<?xml version="1.0" encoding="UTF-8" standalone="no"?>
<svg xmlns:xlink="http://www.w3.org/1999/xlink" height="312.6px" width="14.85px" xmlns="http://www.w3.org/2000/svg">
  <g transform="matrix(1.0, 0.0, 0.0, 1.0, 0.0, 0.0)">
    <use height="300.1" transform="matrix(1.0, 0.0, 0.0, 1.0, 0.0, 12.5)" width="14.85" xlink:href="#shape0"/>
    <use height="95.2" transform="matrix(1.0, 0.0, 0.0, 1.0, 0.0, 16.75)" width="14.85" xlink:href="#sprite0"/>
    <use height="15.75" transform="matrix(1.0, 0.0, 0.0, 1.0, 5.2, 0.0)" width="2.4" xlink:href="#sprite1"/>
    <use height="15.75" transform="matrix(1.0, 0.0, 0.0, 1.0, 5.95, 0.0)" width="0.9" xlink:href="#sprite2"/>
    <use height="10.55" transform="matrix(1.0, 0.0, 0.0, 1.0, 6.65, 5.15)" width="3.25" xlink:href="#sprite3"/>
    <use height="10.6" transform="matrix(1.0, 0.0, 0.0, 1.0, 6.7, 5.1)" width="2.95" xlink:href="#sprite4"/>
  </g>
  <defs>
    <g id="shape0" transform="matrix(1.0, 0.0, 0.0, 1.0, 0.0, -12.5)">
      <path d="M9.15 110.15 L9.15 310.85 Q9.15 311.55 8.65 312.1 8.15 312.6 7.45 312.6 6.75 312.6 6.25 312.1 5.75 311.55 5.75 310.85 L5.75 110.15 Q5.75 109.45 6.25 108.95 6.75 108.45 7.45 108.45 8.15 108.45 8.65 108.95 9.15 109.45 9.15 110.15" fill="url(#gradient0)" fill-rule="evenodd" stroke="none"/>
      <path d="M13.05 112.6 Q13.05 114.1 11.4 115.2 9.75 116.25 7.45 116.25 5.15 116.25 3.5 115.2 1.85 114.1 1.85 112.6 1.85 111.25 3.5 110.95 L7.45 110.8 11.4 110.95 Q13.05 111.25 13.05 112.6" fill="url(#gradient1)" fill-rule="evenodd" stroke="none"/>
      <path d="M12.15 64.7 Q15.0 99.6 14.85 106.7 14.8 109.75 12.5 111.5 10.4 113.1 7.45 113.0 4.45 112.9 2.35 111.05 0.05 109.0 0.0 105.6 -0.1 94.2 1.6 63.35 3.7 26.3 6.3 12.5 8.95 26.15 12.15 64.7" fill="url(#gradient2)" fill-rule="evenodd" stroke="none"/>
      <path d="M0.2 96.0 Q2.9 97.4 6.4 97.4 10.5 97.4 14.35 95.1 L14.85 104.55 Q11.3 106.25 7.5 106.45 3.85 106.6 0.0 105.2 L0.2 96.0" fill="url(#gradient3)" fill-rule="evenodd" stroke="none"/>
      <path d="M7.45 88.95 Q3.75 89.15 0.45 87.65 L0.8 79.75 Q3.3 81.15 6.55 81.15 10.05 81.15 13.25 79.2 L13.85 87.3 Q10.9 88.85 7.45 88.95" fill="url(#gradient4)" fill-rule="evenodd" stroke="none"/>
      <path d="M7.05 74.75 Q3.9 74.95 1.05 73.55 L1.45 66.5 Q3.55 67.75 6.25 67.75 9.4 67.75 12.2 65.85 L12.8 73.1 Q9.95 74.65 7.05 74.75" fill="url(#gradient5)" fill-rule="evenodd" stroke="none"/>
      <path d="M7.05 60.3 Q4.3 60.4 1.85 59.2 L2.2 53.35 Q3.95 54.45 6.35 54.45 8.9 54.45 11.15 53.0 L11.65 59.0 Q9.5 60.2 7.05 60.3" fill="url(#gradient6)" fill-rule="evenodd" stroke="none"/>
      <path d="M6.2 47.15 L2.65 46.65 3.05 41.7 5.6 42.15 Q7.9 42.15 9.95 40.75 L10.45 45.9 Q8.65 47.05 6.2 47.15" fill="url(#gradient7)" fill-rule="evenodd" stroke="none"/>
      <path d="M6.2 39.0 L3.25 38.65 3.7 33.7 5.6 33.95 Q7.45 33.95 9.15 33.05 L9.7 38.1 Q8.05 38.85 6.2 39.0" fill="url(#gradient8)" fill-rule="evenodd" stroke="none"/>
      <path d="M6.2 28.5 L4.2 28.3 4.6 24.7 5.75 24.85 Q6.8 24.85 8.1 24.3 L8.55 27.95 6.2 28.5" fill="url(#gradient9)" fill-rule="evenodd" stroke="none"/>
      <path d="M6.2 20.6 L5.1 20.55 5.55 16.9 5.75 16.9 7.05 16.75 7.6 20.35 6.2 20.6" fill="url(#gradient10)" fill-rule="evenodd" stroke="none"/>
    </g>
    <linearGradient gradientTransform="matrix(0.0021, 0.0, 0.0, -0.0021, 7.45, 210.5)" gradientUnits="userSpaceOnUse" id="gradient0" spreadMethod="pad" x1="-819.2" x2="819.2">
      <stop offset="0.00784313725490196" stop-color="#2f2719"/>
      <stop offset="0.5568627450980392" stop-color="#3c3427"/>
      <stop offset="1.0" stop-color="#2f2719"/>
    </linearGradient>
    <linearGradient gradientTransform="matrix(0.0068, 0.0, 0.0, -0.0068, 7.45, 113.55)" gradientUnits="userSpaceOnUse" id="gradient1" spreadMethod="pad" x1="-819.2" x2="819.2">
      <stop offset="0.00784313725490196" stop-color="#2f2719"/>
      <stop offset="0.5568627450980392" stop-color="#3c3427"/>
      <stop offset="1.0" stop-color="#2f2719"/>
    </linearGradient>
    <linearGradient gradientTransform="matrix(0.0091, 0.0, 0.0, -0.0091, 7.45, 62.75)" gradientUnits="userSpaceOnUse" id="gradient2" spreadMethod="pad" x1="-819.2" x2="819.2">
      <stop offset="0.00784313725490196" stop-color="#604e26"/>
      <stop offset="0.5568627450980392" stop-color="#685937"/>
      <stop offset="1.0" stop-color="#604e26"/>
    </linearGradient>
    <linearGradient gradientTransform="matrix(0.0118, 0.0, 0.0, -0.0118, 7.35, 100.75)" gradientUnits="userSpaceOnUse" id="gradient3" spreadMethod="pad" x1="-819.2" x2="819.2">
      <stop offset="0.00784313725490196" stop-color="#47381b"/>
      <stop offset="0.5568627450980392" stop-color="#4f422a"/>
      <stop offset="1.0" stop-color="#47381b"/>
    </linearGradient>
    <linearGradient gradientTransform="matrix(0.0103, 0.0, 0.0, -0.0103, 7.35, 84.1)" gradientUnits="userSpaceOnUse" id="gradient4" spreadMethod="pad" x1="-819.2" x2="819.2">
      <stop offset="0.00784313725490196" stop-color="#47381b"/>
      <stop offset="0.5568627450980392" stop-color="#4f422a"/>
      <stop offset="1.0" stop-color="#47381b"/>
    </linearGradient>
    <linearGradient gradientTransform="matrix(0.0087, 0.0, 0.0, -0.0087, 6.95, 70.3)" gradientUnits="userSpaceOnUse" id="gradient5" spreadMethod="pad" x1="-819.2" x2="819.2">
      <stop offset="0.00784313725490196" stop-color="#47381b"/>
      <stop offset="0.5568627450980392" stop-color="#4f422a"/>
      <stop offset="1.0" stop-color="#47381b"/>
    </linearGradient>
    <linearGradient gradientTransform="matrix(0.0072, 0.0, 0.0, -0.0072, 6.95, 56.65)" gradientUnits="userSpaceOnUse" id="gradient6" spreadMethod="pad" x1="-819.2" x2="819.2">
      <stop offset="0.00784313725490196" stop-color="#47381b"/>
      <stop offset="0.5568627450980392" stop-color="#4f422a"/>
      <stop offset="1.0" stop-color="#47381b"/>
    </linearGradient>
    <linearGradient gradientTransform="matrix(0.0062, 0.0, 0.0, -0.0062, 6.15, 43.95)" gradientUnits="userSpaceOnUse" id="gradient7" spreadMethod="pad" x1="-819.2" x2="819.2">
      <stop offset="0.00784313725490196" stop-color="#47381b"/>
      <stop offset="0.5568627450980392" stop-color="#4f422a"/>
      <stop offset="1.0" stop-color="#47381b"/>
    </linearGradient>
    <linearGradient gradientTransform="matrix(0.0062, 0.0, 0.0, -0.0062, 6.15, 36.0)" gradientUnits="userSpaceOnUse" id="gradient8" spreadMethod="pad" x1="-819.2" x2="819.2">
      <stop offset="0.00784313725490196" stop-color="#47381b"/>
      <stop offset="0.5568627450980392" stop-color="#4f422a"/>
      <stop offset="1.0" stop-color="#47381b"/>
    </linearGradient>
    <linearGradient gradientTransform="matrix(0.0045, 0.0, 0.0, -0.0045, 6.15, 26.4)" gradientUnits="userSpaceOnUse" id="gradient9" spreadMethod="pad" x1="-819.2" x2="819.2">
      <stop offset="0.00784313725490196" stop-color="#47381b"/>
      <stop offset="0.5568627450980392" stop-color="#4f422a"/>
      <stop offset="1.0" stop-color="#47381b"/>
    </linearGradient>
    <linearGradient gradientTransform="matrix(0.0045, 0.0, 0.0, -0.0045, 6.15, 18.65)" gradientUnits="userSpaceOnUse" id="gradient10" spreadMethod="pad" x1="-819.2" x2="819.2">
      <stop offset="0.00784313725490196" stop-color="#47381b"/>
      <stop offset="0.5568627450980392" stop-color="#4f422a"/>
      <stop offset="1.0" stop-color="#47381b"/>
    </linearGradient>
    <g id="sprite0" transform="matrix(1.0, 0.0, 0.0, 1.0, 0.0, 0.0)">
      <use height="95.2" transform="matrix(1.0, 0.0, 0.0, 1.0, 0.0, 0.0)" width="14.85" xlink:href="#shape1"/>
    </g>
    <g id="shape1" transform="matrix(1.0, 0.0, 0.0, 1.0, 0.0, 0.0)">
      <path d="M2.05 91.4 Q2.05 93.05 2.35 94.3 0.05 92.2 0.0 88.85 -0.1 78.7 1.4 50.1 3.25 15.9 5.6 0.0 4.1 17.8 2.95 52.3 1.95 81.65 2.05 91.4" fill="#050403" fill-rule="evenodd" stroke="none"/>
      <path d="M12.5 52.35 Q15.0 83.75 14.85 89.95 14.85 93.5 11.85 95.2 L12.2 92.6 Q12.25 86.05 10.65 54.6 8.85 19.35 7.2 0.95 9.7 17.6 12.5 52.35" fill="#050403" fill-rule="evenodd" stroke="none"/>
    </g>
    <g id="sprite1" transform="matrix(1.0, 0.0, 0.0, 1.0, 0.0, 0.0)">
      <use height="15.75" transform="matrix(1.0, 0.0, 0.0, 1.0, 0.0, 0.0)" width="2.4" xlink:href="#shape2"/>
    </g>
    <g id="shape2" transform="matrix(1.0, 0.0, 0.0, 1.0, 0.0, 0.0)">
      <path d="M1.35 15.75 Q0.0 11.75 0.0 8.55 0.0 5.35 1.6 0.0 2.4 5.9 2.4 9.1 2.4 12.3 1.35 15.75" fill="url(#gradient11)" fill-rule="evenodd" stroke="none"/>
    </g>
    <linearGradient gradientTransform="matrix(0.0015, 0.0, 0.0, -0.0015, 1.2, 7.9)" gradientUnits="userSpaceOnUse" id="gradient11" spreadMethod="pad" x1="-819.2" x2="819.2">
      <stop offset="0.00784313725490196" stop-color="#604e26"/>
      <stop offset="0.5568627450980392" stop-color="#685937"/>
      <stop offset="1.0" stop-color="#604e26"/>
    </linearGradient>
    <g id="sprite2" transform="matrix(1.0, 0.0, 0.0, 1.0, 0.0, 0.0)">
      <use height="15.75" transform="matrix(1.0, 0.0, 0.0, 1.0, 0.0, 0.0)" width="0.9" xlink:href="#shape3"/>
    </g>
    <g id="shape3" transform="matrix(1.0, 0.0, 0.0, 1.0, 0.0, 0.0)">
      <path d="M0.5 15.75 Q0.0 11.75 0.0 8.55 0.0 5.35 0.6 0.0 L0.9 9.1 Q0.9 12.3 0.5 15.75" fill="#7c6e51" fill-rule="evenodd" stroke="none"/>
    </g>
    <g id="sprite3" transform="matrix(1.0, 0.0, 0.0, 1.0, 0.0, 0.0)">
      <use height="10.55" transform="matrix(1.0, 0.0, 0.0, 1.0, 0.0, 0.0)" width="3.25" xlink:href="#shape4"/>
    </g>
    <g id="shape4" transform="matrix(1.0, 0.0, 0.0, 1.0, 0.0, 0.0)">
      <path d="M0.15 10.55 Q-0.25 7.55 0.35 5.4 0.95 3.25 3.25 0.0 L2.25 6.3 Q1.65 8.45 0.15 10.55" fill="url(#gradient12)" fill-rule="evenodd" stroke="none"/>
    </g>
    <linearGradient gradientTransform="matrix(0.0012, 3.0E-4, 3.0E-4, -0.001, 1.45, 5.2)" gradientUnits="userSpaceOnUse" id="gradient12" spreadMethod="pad" x1="-819.2" x2="819.2">
      <stop offset="0.00784313725490196" stop-color="#604e26"/>
      <stop offset="0.5568627450980392" stop-color="#685937"/>
      <stop offset="1.0" stop-color="#604e26"/>
    </linearGradient>
    <g id="sprite4" transform="matrix(1.0, 0.0, 0.0, 1.0, 0.0, 0.0)">
      <use height="10.6" transform="matrix(1.0, 0.0, 0.0, 1.0, 0.0, 0.0)" width="2.95" xlink:href="#shape5"/>
    </g>
    <g id="shape5" transform="matrix(1.0, 0.0, 0.0, 1.0, 0.0, 0.0)">
      <path d="M0.0 10.6 L0.9 5.6 Q1.5 3.45 2.95 0.0 L1.55 6.2 0.0 10.6" fill="#7c6e51" fill-rule="evenodd" stroke="none"/>
    </g>
  </defs>
</svg>
