<?xml version="1.0" encoding="UTF-8" standalone="no"?>
<svg xmlns:xlink="http://www.w3.org/1999/xlink" height="22.75px" width="67.6px" xmlns="http://www.w3.org/2000/svg">
  <g transform="matrix(1.0, 0.0, 0.0, 1.0, 0.0, 0.0)">
    <use height="8.7" transform="matrix(1.0, 0.0, 0.0, 1.0, 29.15, 0.0)" width="16.7" xlink:href="#shape0"/>
    <use height="4.6" transform="matrix(0.9, 0.0, 0.0, 0.9, 28.35, 7.05)" width="6.05" xlink:href="#sprite0"/>
    <use height="2.4" transform="matrix(0.9, 0.0, 0.0, 0.9, 27.25, 7.85)" width="2.4" xlink:href="#sprite1"/>
    <use height="3.45" transform="matrix(0.9, 0.0, 0.0, 0.9, 22.105, 7.6)" width="3.1" xlink:href="#sprite2"/>
    <use height="11.15" transform="matrix(1.0, 0.0, 0.0, 1.0, 4.75, 3.0)" width="46.1" xlink:href="#shape4"/>
    <use height="5.0" transform="matrix(0.9, 0.0, 0.0, 0.9, 6.9, 12.4)" width="8.0" xlink:href="#sprite3"/>
    <use height="2.8" transform="matrix(0.9, 0.0, 0.0, 0.9, 2.55, 10.95)" width="3.25" xlink:href="#sprite4"/>
    <use height="2.65" transform="matrix(0.9, 0.0, 0.0, 0.9, 4.4, 12.25)" width="3.15" xlink:href="#sprite5"/>
    <use height="13.6" transform="matrix(1.0, 0.0, 0.0, 1.0, 0.0, 2.85)" width="60.25" xlink:href="#shape7"/>
    <use height="5.0" transform="matrix(0.9, 0.0, 0.0, 0.9, 39.15, 10.5)" width="7.35" xlink:href="#sprite6"/>
    <use height="2.8" transform="matrix(0.9, 0.0, 0.0, 0.9, 36.2, 10.05)" width="2.95" xlink:href="#sprite7"/>
    <use height="2.65" transform="matrix(0.9, 0.0, 0.0, 0.9, 37.9, 11.35)" width="2.9" xlink:href="#sprite8"/>
    <use height="11.7" transform="matrix(1.0, 0.0, 0.0, 1.0, 21.2, 7.4)" width="46.4" xlink:href="#shape8"/>
    <use height="6.1" transform="matrix(0.9, 0.0, 0.0, 0.9, 20.0, 16.9)" width="9.15" xlink:href="#sprite9"/>
    <use height="3.45" transform="matrix(0.9, 0.0, 0.0, 0.9, 16.3, 16.35)" width="3.7" xlink:href="#sprite10"/>
    <use height="2.65" transform="matrix(0.9, 0.0, 0.0, 0.9, 8.2, 15.65)" width="3.8" xlink:href="#sprite11"/>
    <use height="1.85" transform="matrix(0.9, 0.0, 0.0, 0.9, 16.65, 20.7)" width="2.2" xlink:href="#sprite12"/>
    <use height="3.25" transform="matrix(0.9, 0.0, 0.0, 0.9, 18.35, 17.95)" width="3.65" xlink:href="#sprite13"/>
    <use height="4.55" transform="matrix(0.9, 0.0, 0.0, 0.9, 10.555, 17.65)" width="4.65" xlink:href="#sprite14"/>
    <use height="14.65" transform="matrix(1.0, 0.0, 0.0, 1.0, 8.1, 8.1)" width="51.75" xlink:href="#shape13"/>
  </g>
  <defs>
    <g id="shape0" transform="matrix(1.0, 0.0, 0.0, 1.0, -29.15, 0.0)">
      <path d="M45.85 7.1 Q45.65 7.45 45.25 7.4 L40.7 8.4 38.6 8.65 Q38.45 8.5 37.75 8.3 L36.95 8.1 34.85 8.65 33.3 8.3 31.3 7.85 29.8 7.7 29.15 6.85 30.15 5.9 31.0 5.4 31.7 4.8 32.75 3.8 33.9 3.85 34.5 2.8 35.8 1.5 36.15 0.8 36.3 0.15 37.35 0.25 38.4 0.6 41.15 3.8 42.35 4.05 44.55 5.8 45.75 6.5 45.85 7.1" fill="#a1b2d9" fill-rule="evenodd" stroke="none"/>
      <path d="M38.4 0.6 Q38.7 0.75 39.6 2.25 L39.15 2.3 38.3 2.3 38.05 1.6 38.4 0.6" fill="#a1aec9" fill-rule="evenodd" stroke="none"/>
      <path d="M41.15 3.8 L40.45 4.5 39.8 4.15 39.25 3.4 39.7 3.25 40.1 3.15 40.45 3.2 41.15 3.8" fill="#a1aec9" fill-rule="evenodd" stroke="none"/>
      <path d="M42.35 4.05 L43.15 4.7 43.45 5.15 43.05 5.3 42.6 5.25 41.95 4.55 42.35 4.05" fill="#a1aec9" fill-rule="evenodd" stroke="none"/>
      <path d="M41.4 5.0 L41.15 4.95 41.45 5.15 Q42.05 5.55 42.05 6.5 L41.35 6.15 40.35 6.35 40.35 5.45 41.05 4.7 41.4 5.0" fill="#a1aec9" fill-rule="evenodd" stroke="none"/>
      <path d="M44.15 6.4 L44.7 6.95 44.25 7.0 43.5 7.05 43.5 6.45 44.15 6.4" fill="#a1aec9" fill-rule="evenodd" stroke="none"/>
      <path d="M45.75 6.5 L45.85 7.1 45.65 7.2 44.95 7.1 45.1 6.5 45.75 6.5" fill="#a1aec9" fill-rule="evenodd" stroke="none"/>
      <path d="M37.35 5.0 L38.0 5.35 38.4 5.6 38.7 5.75 39.25 6.55 39.85 7.3 39.8 8.05 38.8 8.7 38.05 8.45 37.95 7.85 38.25 7.4 38.15 6.35 37.35 5.0" fill="#a1aec9" fill-rule="evenodd" stroke="none"/>
      <path d="M37.1 7.65 L36.95 8.1 34.85 8.65 35.4 7.9 35.55 6.55 35.85 6.0 35.95 5.6 35.55 5.15 36.4 6.0 36.5 6.95 37.1 7.65" fill="#a1aec9" fill-rule="evenodd" stroke="none"/>
      <path d="M34.3 7.85 L33.95 7.65 33.9 6.95 34.1 6.05 34.35 5.55 34.85 6.05 34.3 7.85" fill="#a1aec9" fill-rule="evenodd" stroke="none"/>
      <path d="M32.85 6.5 L32.6 6.95 32.2 6.9 32.15 6.25 32.55 6.15 32.3 5.35 32.9 5.65 32.85 6.5" fill="#a1aec9" fill-rule="evenodd" stroke="none"/>
      <path d="M36.6 3.9 L36.4 3.35 36.35 2.8 37.1 2.45 37.25 3.25 38.0 3.95 37.4 4.4 36.55 4.35 36.6 3.9" fill="#a1aec9" fill-rule="evenodd" stroke="none"/>
      <path d="M35.15 3.8 L35.5 4.5 35.1 4.7 34.35 4.35 34.4 3.8 35.15 3.8" fill="#a1aec9" fill-rule="evenodd" stroke="none"/>
      <path d="M39.45 5.1 L39.75 5.5 39.35 5.65 38.9 5.05 39.15 5.0 39.45 5.1" fill="#a1aec9" fill-rule="evenodd" stroke="none"/>
      <path d="M40.4 6.6 L41.05 6.65 41.15 7.0 41.95 7.7 41.6 8.15 40.7 8.4 40.2 7.9 40.25 7.4 40.4 6.6" fill="#a1aec9" fill-rule="evenodd" stroke="none"/>
      <path d="M37.05 2.0 L36.8 1.65 37.2 1.55 37.6 1.55 37.6 1.9 37.45 2.05 37.2 2.2 37.05 2.0" fill="#a1aec9" fill-rule="evenodd" stroke="none"/>
      <path d="M42.5 6.5 L43.3 7.55 42.65 7.65 42.1 7.5 42.5 6.5" fill="#a1aec9" fill-rule="evenodd" stroke="none"/>
      <path d="M38.4 0.6 L38.25 1.05 38.0 1.4 37.95 1.6 37.2 1.55 37.2 0.95 36.85 1.55 35.8 1.5 35.8 1.15 35.95 0.65 36.3 0.15 36.65 0.0 37.8 0.35 38.4 0.6" fill="#e6e6f0" fill-rule="evenodd" stroke="none"/>
      <path d="M35.6 1.65 L36.4 2.25 37.1 2.45 36.35 2.8 35.85 2.85 35.15 2.75 34.75 2.35 35.6 1.65" fill="#e6e6f0" fill-rule="evenodd" stroke="none"/>
      <path d="M34.5 2.8 L35.4 3.55 35.15 3.8 34.4 3.8 33.95 3.7 34.5 2.8" fill="#e6e6f0" fill-rule="evenodd" stroke="none"/>
      <path d="M38.0 3.2 L38.45 3.3 39.2 3.25 39.45 3.45 39.35 4.25 38.9 4.4 38.35 4.35 37.95 3.7 38.0 3.2" fill="#e6e6f0" fill-rule="evenodd" stroke="none"/>
      <path d="M37.7 2.45 L38.35 2.9 37.6 3.3 37.3 2.9 37.7 2.45" fill="#e6e6f0" fill-rule="evenodd" stroke="none"/>
      <path d="M36.75 4.5 L37.45 4.7 38.15 6.35 37.8 6.3 37.4 5.9 36.7 6.05 36.2 4.65 35.75 5.2 35.75 4.85 36.25 4.4 36.75 4.5" fill="#e6e6f0" fill-rule="evenodd" stroke="none"/>
      <path d="M37.7 6.75 L38.25 7.4 37.65 7.6 37.1 7.4 37.1 6.85 37.7 6.75" fill="#e6e6f0" fill-rule="evenodd" stroke="none"/>
      <path d="M33.25 4.8 L33.0 4.0 35.1 4.95 35.55 4.95 35.75 5.6 35.6 6.25 33.25 4.8" fill="#e6e6f0" fill-rule="evenodd" stroke="none"/>
      <path d="M35.55 6.55 L35.6 7.75 35.05 7.85 34.3 7.85 34.8 6.35 35.55 6.55" fill="#e6e6f0" fill-rule="evenodd" stroke="none"/>
      <path d="M35.2 8.15 L35.05 8.7 34.35 8.6 33.55 8.15 34.0 7.95 35.2 8.15" fill="#e6e6f0" fill-rule="evenodd" stroke="none"/>
      <path d="M33.2 5.55 L34.0 6.4 33.5 6.8 33.05 6.4 33.2 5.55" fill="#e6e6f0" fill-rule="evenodd" stroke="none"/>
      <path d="M32.3 5.35 L32.55 6.15 31.6 6.1 31.3 5.6 31.8 5.15 32.3 5.35" fill="#e6e6f0" fill-rule="evenodd" stroke="none"/>
      <path d="M32.05 4.15 L32.75 3.8 33.0 4.0 33.05 4.95 32.65 5.35 31.5 4.85 32.05 4.15" fill="#e6e6f0" fill-rule="evenodd" stroke="none"/>
      <path d="M42.6 5.25 L43.35 5.95 43.5 6.45 43.35 6.5 43.5 7.05 42.95 7.15 41.75 5.7 41.95 5.4 42.6 5.25" fill="#e6e6f0" fill-rule="evenodd" stroke="none"/>
      <path d="M44.6 6.7 L43.85 6.2 43.55 5.65 43.8 5.55 44.7 6.25 45.35 6.6 45.0 6.9 44.75 7.15 44.6 6.7" fill="#e6e6f0" fill-rule="evenodd" stroke="none"/>
      <path d="M40.1 6.3 L41.55 6.25 42.5 6.5 42.0 7.3 41.15 7.0 40.1 6.3" fill="#e6e6f0" fill-rule="evenodd" stroke="none"/>
      <path d="M40.5 5.6 L39.05 4.85 39.75 4.4 40.8 4.6 40.5 5.6" fill="#e6e6f0" fill-rule="evenodd" stroke="none"/>
      <path d="M40.2 7.9 L38.9 6.15 39.35 5.65 40.25 6.1 40.2 7.9" fill="#e6e6f0" fill-rule="evenodd" stroke="none"/>
    </g>
    <g id="sprite0" transform="matrix(1.0, 0.0, 0.0, 1.0, 0.0, 0.0)">
      <use height="6.1" transform="matrix(0.6612, 0.0, 0.0, 0.7541, 0.0, 0.0)" width="9.15" xlink:href="#shape1"/>
    </g>
    <g id="shape1" transform="matrix(1.0, 0.0, 0.0, 1.0, 0.0, 0.0)">
      <path d="M6.55 5.35 L4.25 6.05 Q2.85 6.35 1.3 5.35 0.0 3.55 0.0 2.65 L0.0 1.75 3.35 1.4 Q5.8 1.25 8.85 0.0 L9.15 3.4 8.45 4.5 Q7.65 5.25 6.55 5.35" fill="#d0d9ec" fill-rule="evenodd" stroke="none"/>
    </g>
    <g id="sprite1" transform="matrix(1.0, 0.0, 0.0, 1.0, 0.0, 0.0)">
      <use height="2.4" transform="matrix(1.0, 0.0, 0.0, 1.0, 0.0, 0.0)" width="2.4" xlink:href="#shape2"/>
    </g>
    <g id="shape2" transform="matrix(1.0, 0.0, 0.0, 1.0, 0.0, 0.0)">
      <path d="M2.4 0.95 Q2.25 2.25 1.15 2.4 0.1 2.55 0.0 0.1 L0.7 0.0 Q1.35 -0.15 2.4 0.95" fill="#d0d9ec" fill-rule="evenodd" stroke="none"/>
    </g>
    <g id="sprite2" transform="matrix(1.0, 0.0, 0.0, 1.0, 0.05, 0.0)">
      <use height="3.45" transform="matrix(1.0, 0.0, 0.0, 1.0, -0.05, 0.0)" width="3.1" xlink:href="#shape3"/>
    </g>
    <g id="shape3" transform="matrix(1.0, 0.0, 0.0, 1.0, 0.05, 0.0)">
      <path d="M3.05 0.0 L3.0 1.3 Q2.95 2.55 2.55 2.95 2.15 3.4 1.4 3.45 L0.25 3.4 Q-0.35 3.4 0.35 0.95 L3.05 0.0" fill="#d0d9ec" fill-rule="evenodd" stroke="none"/>
    </g>
    <g id="shape4" transform="matrix(1.0, 0.0, 0.0, 1.0, -4.75, -3.0)">
      <path d="M34.2 8.75 L35.6 10.15 Q35.3 10.75 33.9 10.75 33.05 10.75 33.05 10.35 L33.25 9.9 34.2 8.75" fill="#d0d9ec" fill-rule="evenodd" stroke="none"/>
      <path d="M39.05 7.4 L41.0 7.85 Q41.6 8.8 40.7 9.8 40.2 10.4 39.7 10.25 L39.05 10.05 38.35 9.5 37.75 8.95 39.05 7.4" fill="#d0d9ec" fill-rule="evenodd" stroke="none"/>
      <path d="M44.85 6.4 Q48.35 7.0 48.4 7.4 L48.2 7.85 47.55 8.3 Q47.05 8.8 45.2 8.8 L44.4 8.6 43.9 8.3 44.85 6.4" fill="#d0d9ec" fill-rule="evenodd" stroke="none"/>
      <path d="M47.15 4.0 Q48.05 4.5 48.35 5.55 48.7 6.5 48.35 6.65 48.1 6.8 46.7 5.65 L47.15 4.0" fill="#d0d9ec" fill-rule="evenodd" stroke="none"/>
      <path d="M42.85 8.3 Q44.75 9.2 44.25 9.9 43.75 10.6 42.6 10.1 L40.6 9.2 41.3 8.2 42.85 8.3" fill="#d0d9ec" fill-rule="evenodd" stroke="none"/>
      <path d="M43.8 3.0 Q46.1 4.0 45.35 4.75 L44.2 5.3 43.5 5.8 41.65 4.8 41.85 3.0 43.8 3.0" fill="#d0d9ec" fill-rule="evenodd" stroke="none"/>
      <path d="M29.3 4.2 Q31.25 4.0 31.35 5.1 31.45 5.75 30.85 6.75 30.6 7.2 29.7 7.2 L28.6 7.1 Q28.35 7.1 27.85 5.95 L29.3 4.2" fill="#d0d9ec" fill-rule="evenodd" stroke="none"/>
      <path d="M24.75 7.45 L24.9 7.6 24.5 8.0 24.0 9.0 22.25 10.2 22.25 9.55 22.3 8.25 24.75 7.45" fill="#efeffa" fill-rule="evenodd" stroke="none"/>
      <path d="M28.1 7.85 L28.75 8.0 29.05 8.5 29.2 8.75 28.5 8.85 27.55 8.8 27.25 7.95 28.1 7.85" fill="#efeffa" fill-rule="evenodd" stroke="none"/>
      <path d="M29.05 8.3 L29.0 8.05 29.9 7.95 31.15 7.7 32.05 7.7 33.6 7.05 33.55 7.4 32.95 8.3 31.3 8.65 29.65 8.75 29.05 8.3" fill="#efeffa" fill-rule="evenodd" stroke="none"/>
      <path d="M27.2 9.8 L27.25 10.35 27.2 10.7 26.1 10.6 26.1 10.45 27.2 9.8" fill="#efeffa" fill-rule="evenodd" stroke="none"/>
      <path d="M34.2 8.75 L35.05 10.15 34.1 10.3 33.05 10.3 33.05 10.05 34.2 8.75" fill="#efeffa" fill-rule="evenodd" stroke="none"/>
      <path d="M39.05 7.4 L40.1 7.45 41.0 7.85 40.25 8.75 40.15 8.35 39.4 9.2 38.9 9.2 38.35 9.1 37.75 8.75 39.05 7.4" fill="#efeffa" fill-rule="evenodd" stroke="none"/>
      <path d="M41.3 8.2 L42.95 8.4 43.15 8.6 42.6 9.2 42.0 9.15 41.15 8.8 41.3 8.2" fill="#efeffa" fill-rule="evenodd" stroke="none"/>
      <path d="M44.85 6.5 L47.4 6.95 47.4 7.3 45.8 7.85 44.95 8.1 44.3 8.1 44.85 6.5" fill="#efeffa" fill-rule="evenodd" stroke="none"/>
      <path d="M41.85 3.0 L43.35 3.3 44.05 3.6 43.75 4.15 42.95 4.65 41.8 4.25 41.85 3.0" fill="#efeffa" fill-rule="evenodd" stroke="none"/>
      <path d="M50.85 7.35 L50.65 8.15 49.7 8.65 48.8 8.1 49.7 6.5 50.85 7.35" fill="#efeffa" fill-rule="evenodd" stroke="none"/>
      <path d="M47.15 4.0 L47.65 4.6 47.95 5.45 47.75 5.35 47.4 5.85 46.7 5.65 47.15 4.0" fill="#efeffa" fill-rule="evenodd" stroke="none"/>
      <path d="M27.15 10.05 L28.7 10.7 28.85 11.45 Q28.55 11.8 28.1 11.75 L22.1 12.8 19.3 13.15 18.2 12.75 17.15 12.5 Q16.95 12.5 15.95 13.05 L15.0 13.7 Q14.95 14.4 12.2 14.0 L10.9 13.1 Q9.9 12.3 9.7 12.3 L7.95 12.8 6.5 13.25 4.85 11.6 7.4 10.65 8.2 10.1 9.3 9.6 10.15 8.95 10.95 8.3 11.6 7.8 13.1 7.9 13.9 6.7 15.65 5.3 16.05 4.6 16.3 3.8 17.75 4.55 19.1 5.45 19.75 5.6 Q20.45 5.75 20.55 5.95 L27.15 10.05" fill="#becdec" fill-rule="evenodd" stroke="none"/>
      <path d="M18.9 5.8 L20.45 6.95 19.9 6.95 18.7 6.95 18.45 6.2 18.9 5.8" fill="#a1aec9" fill-rule="evenodd" stroke="none"/>
      <path d="M23.4 7.55 L22.4 8.3 21.55 7.9 20.85 7.15 21.4 6.95 21.95 6.85 22.4 6.9 23.4 7.55" fill="#a1aec9" fill-rule="evenodd" stroke="none"/>
      <path d="M24.25 8.1 L25.3 8.8 25.75 9.3 25.15 9.45 24.55 9.4 23.7 8.65 24.25 8.1" fill="#a1aec9" fill-rule="evenodd" stroke="none"/>
      <path d="M23.0 9.15 L22.7 9.1 23.05 9.3 Q23.9 9.7 23.9 10.7 L22.9 10.4 21.6 10.55 21.6 9.6 22.5 8.8 23.0 9.15" fill="#a1aec9" fill-rule="evenodd" stroke="none"/>
      <path d="M26.55 10.6 Q27.45 11.1 27.3 11.25 L26.75 11.35 25.8 11.4 25.8 10.65 26.55 10.6" fill="#a1aec9" fill-rule="evenodd" stroke="none"/>
      <path d="M28.7 10.7 L28.85 11.45 28.55 11.5 27.65 11.45 27.8 10.75 28.7 10.7" fill="#a1aec9" fill-rule="evenodd" stroke="none"/>
      <path d="M19.1 9.95 L19.6 10.25 20.0 10.45 20.7 11.3 21.55 12.05 21.35 12.9 20.1 13.65 19.15 13.3 19.0 12.7 19.4 12.2 19.3 11.0 18.2 9.6 19.1 9.95" fill="#a1aec9" fill-rule="evenodd" stroke="none"/>
      <path d="M16.4 10.2 L16.5 11.25 17.3 12.05 17.15 12.5 14.4 13.1 15.1 12.35 15.3 10.85 15.7 10.2 15.8 9.8 15.3 9.3 16.4 10.2" fill="#a1aec9" fill-rule="evenodd" stroke="none"/>
      <path d="M13.6 12.25 L13.2 12.05 13.1 11.25 13.4 10.25 13.7 9.7 14.35 10.25 14.15 10.85 13.6 12.25" fill="#a1aec9" fill-rule="evenodd" stroke="none"/>
      <path d="M11.75 10.7 L11.45 11.3 10.9 11.2 10.75 10.5 11.35 10.4 11.0 9.5 11.8 9.85 11.75 10.7" fill="#a1aec9" fill-rule="evenodd" stroke="none"/>
      <path d="M17.55 9.65 L17.3 9.1 17.25 8.45 18.2 8.1 18.45 8.9 19.4 9.7 18.65 10.15 17.5 10.1 17.55 9.65" fill="#a1aec9" fill-rule="evenodd" stroke="none"/>
      <path d="M14.75 7.85 L15.25 8.6 14.7 8.8 13.7 8.4 13.8 7.85 14.75 7.85" fill="#a1aec9" fill-rule="evenodd" stroke="none"/>
      <path d="M20.45 9.2 L20.75 9.65 20.3 9.85 19.7 9.2 20.0 9.15 20.45 9.2" fill="#a1aec9" fill-rule="evenodd" stroke="none"/>
      <path d="M21.65 10.9 L22.5 11.0 22.7 11.35 23.65 12.1 23.3 12.55 22.1 12.8 21.4 12.35 21.45 11.7 21.65 10.9" fill="#a1aec9" fill-rule="evenodd" stroke="none"/>
      <path d="M17.25 5.9 L16.9 5.5 17.5 5.4 17.95 5.4 17.95 5.7 17.75 5.95 17.45 6.05 17.25 5.9" fill="#a1aec9" fill-rule="evenodd" stroke="none"/>
      <path d="M24.4 10.8 L25.45 11.9 24.6 12.05 23.95 11.85 24.4 10.8" fill="#a1aec9" fill-rule="evenodd" stroke="none"/>
      <path d="M7.85 11.0 L8.45 11.9 9.8 11.45 11.2 11.7 12.9 11.25 13.6 12.6 13.4 13.85 8.3 13.5 4.75 12.4 5.8 11.25 6.95 10.85 7.85 11.0" fill="#a1aec9" fill-rule="evenodd" stroke="none"/>
      <path d="M16.35 7.3 L17.35 7.9 18.3 8.2 17.3 8.5 16.7 8.55 15.75 8.45 15.2 8.05 16.35 7.3" fill="#e6e6f0" fill-rule="evenodd" stroke="none"/>
      <path d="M13.9 6.7 L15.05 7.55 14.75 7.85 13.8 7.85 13.15 7.7 13.9 6.7" fill="#e6e6f0" fill-rule="evenodd" stroke="none"/>
      <path d="M18.85 6.85 L19.55 6.95 20.45 6.9 20.85 7.2 20.65 8.0 20.0 8.2 19.3 8.1 18.8 7.4 18.85 6.85" fill="#e6e6f0" fill-rule="evenodd" stroke="none"/>
      <path d="M18.15 6.35 L18.9 6.85 18.05 7.25 17.6 6.85 18.15 6.35" fill="#e6e6f0" fill-rule="evenodd" stroke="none"/>
      <path d="M19.1 11.2 L18.65 10.8 17.75 10.95 17.4 10.4 17.0 9.4 16.4 10.05 16.4 9.65 17.15 9.2 18.65 9.5 19.6 11.25 19.1 11.2" fill="#e6e6f0" fill-rule="evenodd" stroke="none"/>
      <path d="M18.15 11.05 L18.8 11.75 18.1 12.0 17.3 11.7 17.3 11.15 18.15 11.05" fill="#e6e6f0" fill-rule="evenodd" stroke="none"/>
      <path d="M14.55 9.5 L13.0 9.65 12.1 8.5 11.4 7.9 13.7 7.9 14.85 8.3 14.7 8.8 15.45 9.65 14.55 9.5" fill="#e6e6f0" fill-rule="evenodd" stroke="none"/>
      <path d="M15.3 10.85 L15.35 12.15 14.6 12.3 13.6 12.25 14.25 10.55 15.3 10.85" fill="#e6e6f0" fill-rule="evenodd" stroke="none"/>
      <path d="M10.2 10.55 L10.0 11.15 9.15 11.0 8.05 10.55 8.7 10.35 10.2 10.55" fill="#e6e6f0" fill-rule="evenodd" stroke="none"/>
      <path d="M12.2 9.7 L13.25 10.6 12.6 11.1 11.95 10.6 12.2 9.7" fill="#e6e6f0" fill-rule="evenodd" stroke="none"/>
      <path d="M11.0 9.5 L11.35 10.4 10.1 10.35 9.7 9.75 10.4 9.3 11.0 9.5" fill="#e6e6f0" fill-rule="evenodd" stroke="none"/>
      <path d="M10.3 8.75 L11.45 8.05 11.85 8.45 11.95 10.25 11.35 11.0 9.45 10.1 10.3 8.75" fill="#e6e6f0" fill-rule="evenodd" stroke="none"/>
      <path d="M25.5 10.75 L25.7 11.25 25.8 11.4 24.95 11.45 24.4 10.8 23.45 9.95 23.7 9.55 24.55 9.4 25.5 10.15 25.8 10.65 25.5 10.75" fill="#e6e6f0" fill-rule="evenodd" stroke="none"/>
      <path d="M27.35 11.45 L27.2 11.0 26.25 10.45 25.85 9.85 26.1 9.7 27.3 10.5 28.2 10.9 27.35 11.45" fill="#e6e6f0" fill-rule="evenodd" stroke="none"/>
      <path d="M21.25 10.55 L23.15 10.5 24.4 10.8 23.75 11.6 22.7 11.35 21.25 10.55" fill="#e6e6f0" fill-rule="evenodd" stroke="none"/>
      <path d="M21.8 9.75 L19.95 9.0 20.75 8.45 22.2 8.7 21.8 9.75" fill="#e6e6f0" fill-rule="evenodd" stroke="none"/>
      <path d="M21.2 12.35 L18.85 9.05 19.7 8.15 21.35 8.95 21.2 12.35" fill="#e6e6f0" fill-rule="evenodd" stroke="none"/>
      <path d="M16.35 3.85 L17.85 4.65 17.85 5.0 17.0 5.9 15.5 5.3 16.35 3.85" fill="#e6e6f0" fill-rule="evenodd" stroke="none"/>
    </g>
    <g id="sprite3" transform="matrix(1.0, 0.0, 0.0, 1.0, 0.0, 0.0)">
      <use height="6.1" transform="matrix(0.8743, 0.0, 0.0, 0.8197, 0.0, 0.0)" width="9.15" xlink:href="#shape1"/>
    </g>
    <g id="sprite4" transform="matrix(1.0, 0.0, 0.0, 1.0, 0.0, 0.0)">
      <use height="3.45" transform="matrix(0.8784, 0.0, 0.0, 0.8116, 0.0, 0.0)" width="3.7" xlink:href="#shape5"/>
    </g>
    <g id="shape5" transform="matrix(1.0, 0.0, 0.0, 1.0, 0.0, 0.0)">
      <path d="M3.65 1.1 Q3.9 2.7 2.75 3.25 1.6 3.8 0.0 2.9 L1.0 0.0 2.15 0.2 Q3.35 0.4 3.65 1.1" fill="#d0d9ec" fill-rule="evenodd" stroke="none"/>
    </g>
    <g id="sprite5" transform="matrix(1.0, 0.0, 0.0, 1.0, 0.0, 0.0)">
      <use height="2.65" transform="matrix(1.0862, 0.0, 0.0, 1.0, 0.0, 0.0)" width="2.9" xlink:href="#shape6"/>
    </g>
    <g id="shape6" transform="matrix(1.0, 0.0, 0.0, 1.0, 0.0, 0.0)">
      <path d="M2.9 1.05 Q2.65 2.5 1.4 2.65 0.6 2.75 0.2 1.45 L0.0 0.15 0.8 0.0 Q1.6 -0.15 2.9 1.05" fill="#d0d9ec" fill-rule="evenodd" stroke="none"/>
    </g>
    <g id="shape7" transform="matrix(1.0, 0.0, 0.0, 1.0, 0.0, -2.85)">
      <path d="M13.55 13.2 L15.35 14.75 Q14.9 15.45 13.05 15.45 11.9 15.45 12.0 15.0 L12.3 14.5 13.55 13.2" fill="#d0d9ec" fill-rule="evenodd" stroke="none"/>
      <path d="M1.7 13.25 L4.25 13.8 4.5 14.5 Q4.6 15.25 3.85 15.95 3.2 16.55 2.5 16.45 L1.7 16.2 Q1.4 16.2 0.0 15.0 L1.7 13.25" fill="#d0d9ec" fill-rule="evenodd" stroke="none"/>
      <path d="M24.95 14.55 L24.0 14.5 21.9 13.7 22.85 12.6 24.9 12.75 25.5 13.0 26.5 13.65 Q25.5 14.05 24.95 14.55" fill="#d0d9ec" fill-rule="evenodd" stroke="none"/>
      <path d="M18.9 15.7 L18.05 14.65 17.5 13.6 19.5 12.55 Q21.75 12.3 22.3 13.05 22.75 13.6 22.25 14.6 20.65 14.85 19.25 15.75 L18.9 15.7" fill="#d0d9ec" fill-rule="evenodd" stroke="none"/>
      <path d="M29.35 12.95 L27.45 13.3 26.45 12.2 27.6 10.5 29.75 10.35 29.9 12.05 29.35 12.95" fill="#d0d9ec" fill-rule="evenodd" stroke="none"/>
      <path d="M13.8 13.85 L16.2 13.1 16.55 14.25 Q17.25 15.15 16.8 15.15 L14.85 15.15 13.8 14.8 13.8 13.85" fill="#d0d9ec" fill-rule="evenodd" stroke="none"/>
      <path d="M17.5 13.6 L19.5 12.55 20.1 12.5 21.6 12.6 21.45 13.3 20.25 13.9 17.5 13.6" fill="#efeffa" fill-rule="evenodd" stroke="none"/>
      <path d="M3.35 10.95 L4.75 11.1 4.6 11.7 3.4 12.9 2.5 12.65 3.35 10.95" fill="#efeffa" fill-rule="evenodd" stroke="none"/>
      <path d="M6.95 13.25 L4.7 13.3 4.4 12.35 5.5 12.25 6.35 12.4 6.8 12.95 6.95 13.25" fill="#efeffa" fill-rule="evenodd" stroke="none"/>
      <path d="M7.85 13.7 L7.7 13.45 9.0 13.4 10.55 13.05 11.8 13.05 13.85 12.4 13.75 12.8 12.9 13.75 10.8 14.15 8.65 14.25 7.85 13.7" fill="#efeffa" fill-rule="evenodd" stroke="none"/>
      <path d="M13.55 13.2 L14.6 14.75 13.4 14.95 12.05 14.95 12.0 14.6 13.55 13.2" fill="#efeffa" fill-rule="evenodd" stroke="none"/>
      <path d="M1.7 13.25 L3.05 13.4 4.25 13.8 3.3 14.8 3.1 14.35 2.15 15.25 0.75 15.15 0.0 14.75 1.7 13.25" fill="#efeffa" fill-rule="evenodd" stroke="none"/>
      <path d="M22.85 12.6 L25.05 12.8 25.25 13.05 24.55 13.7 23.75 13.65 22.65 13.25 22.85 12.6" fill="#efeffa" fill-rule="evenodd" stroke="none"/>
      <path d="M29.15 11.4 L28.9 12.25 27.6 12.8 26.45 12.2 27.6 10.5 29.15 11.4" fill="#efeffa" fill-rule="evenodd" stroke="none"/>
      <path d="M16.2 13.1 L15.85 14.1 15.35 14.05 14.4 14.55 13.7 13.8 16.2 13.1" fill="#efeffa" fill-rule="evenodd" stroke="none"/>
      <path d="M58.7 9.1 L60.1 9.8 60.25 10.55 Q60.0 10.9 59.6 10.85 L54.1 11.9 51.5 12.2 50.5 11.85 49.55 11.6 Q49.35 11.6 48.45 12.15 L47.6 12.8 Q47.5 13.5 45.0 13.1 44.75 13.05 43.85 12.2 L42.75 11.4 41.15 11.9 39.8 12.35 38.35 10.7 40.65 9.75 41.35 9.2 42.35 8.65 43.15 8.0 44.45 6.9 45.8 6.95 46.55 5.8 48.2 4.4 48.55 3.7 48.8 2.9 50.05 3.05 51.25 3.4 54.6 6.95 56.0 7.2 58.7 9.1" fill="#becdec" fill-rule="evenodd" stroke="none"/>
      <path d="M51.25 3.4 L52.7 5.25 52.2 5.3 51.1 5.3 50.9 4.55 51.25 3.4" fill="#a1aec9" fill-rule="evenodd" stroke="none"/>
      <path d="M54.6 6.95 Q54.2 7.35 53.75 7.7 L52.9 7.3 52.3 6.5 52.85 6.3 53.3 6.2 53.75 6.25 54.6 6.95" fill="#a1aec9" fill-rule="evenodd" stroke="none"/>
      <path d="M56.0 7.2 L57.0 7.9 57.35 8.4 56.9 8.55 56.35 8.5 55.55 7.75 56.0 7.2" fill="#a1aec9" fill-rule="evenodd" stroke="none"/>
      <path d="M54.9 8.25 L54.65 8.15 Q54.45 8.15 54.95 8.4 55.7 8.8 55.7 9.8 L54.85 9.5 53.65 9.65 53.65 8.7 54.45 7.9 54.9 8.25" fill="#a1aec9" fill-rule="evenodd" stroke="none"/>
      <path d="M58.2 9.7 Q59.0 10.15 58.85 10.35 L58.3 10.45 57.4 10.5 57.4 9.75 58.2 9.7" fill="#a1aec9" fill-rule="evenodd" stroke="none"/>
      <path d="M60.1 9.8 L60.25 10.55 60.0 10.6 59.15 10.55 59.3 9.85 60.1 9.8" fill="#a1aec9" fill-rule="evenodd" stroke="none"/>
      <path d="M50.85 8.6 L51.25 8.9 51.65 9.05 52.3 9.95 53.05 10.7 52.9 11.55 51.75 12.25 50.9 11.95 50.7 11.35 51.05 10.85 51.0 9.65 50.05 8.25 50.85 8.6" fill="#a1aec9" fill-rule="evenodd" stroke="none"/>
      <path d="M49.7 11.1 L49.55 11.6 47.0 12.15 47.7 11.45 47.85 9.95 48.25 9.3 48.35 8.9 47.85 8.4 48.85 9.3 48.95 10.35 49.7 11.1" fill="#a1aec9" fill-rule="evenodd" stroke="none"/>
      <path d="M46.3 11.35 L45.9 11.1 45.8 10.35 46.1 9.35 46.4 8.8 47.0 9.35 46.85 9.95 46.3 11.35" fill="#a1aec9" fill-rule="evenodd" stroke="none"/>
      <path d="M44.65 9.8 L44.3 10.4 43.85 10.3 43.7 9.6 44.25 9.5 43.95 8.6 44.7 8.95 44.65 9.8" fill="#a1aec9" fill-rule="evenodd" stroke="none"/>
      <path d="M49.1 7.0 L48.9 6.45 48.8 5.8 49.7 5.5 49.9 6.3 50.8 7.05 50.1 7.55 49.05 7.5 49.1 7.0" fill="#a1aec9" fill-rule="evenodd" stroke="none"/>
      <path d="M47.4 6.95 L47.8 7.7 47.35 7.9 46.4 7.5 46.5 6.95 47.4 6.95" fill="#a1aec9" fill-rule="evenodd" stroke="none"/>
      <path d="M52.55 8.3 L52.85 8.75 52.4 8.95 51.9 8.3 52.2 8.25 52.55 8.3" fill="#a1aec9" fill-rule="evenodd" stroke="none"/>
      <path d="M53.7 10.0 L54.45 10.05 54.6 10.45 55.55 11.15 55.15 11.65 54.1 11.9 53.45 11.45 53.5 10.8 53.7 10.0" fill="#a1aec9" fill-rule="evenodd" stroke="none"/>
      <path d="M49.35 4.6 L49.85 4.5 50.3 4.5 50.3 4.8 50.15 5.0 49.8 5.15 49.35 4.6" fill="#a1aec9" fill-rule="evenodd" stroke="none"/>
      <path d="M56.2 9.9 L57.15 11.0 56.4 11.1 55.75 10.95 56.2 9.9" fill="#a1aec9" fill-rule="evenodd" stroke="none"/>
      <path d="M44.1 10.8 L45.65 10.3 46.25 11.7 46.1 12.95 41.45 12.6 38.2 11.5 39.2 10.35 40.2 9.95 41.05 10.1 41.6 11.0 42.85 10.55 44.1 10.8" fill="#a1aec9" fill-rule="evenodd" stroke="none"/>
      <path d="M50.15 5.45 L50.15 4.4 49.7 5.4 48.2 5.3 48.2 4.8 48.35 3.95 48.85 3.1 49.35 2.9 51.0 3.5 51.85 3.85 Q51.9 4.35 51.6 4.55 L51.25 5.15 51.15 5.55 50.15 5.45" fill="#e6e6f0" fill-rule="evenodd" stroke="none"/>
      <path d="M47.9 4.6 L48.85 5.2 49.7 5.5 48.8 5.8 48.25 5.85 47.4 5.75 46.9 5.35 47.9 4.6" fill="#e6e6f0" fill-rule="evenodd" stroke="none"/>
      <path d="M46.55 5.8 L47.65 6.65 47.4 6.95 46.5 6.95 45.85 6.8 46.55 5.8" fill="#e6e6f0" fill-rule="evenodd" stroke="none"/>
      <path d="M50.8 6.25 L51.4 6.35 52.25 6.3 52.55 6.55 52.4 7.4 51.85 7.6 51.15 7.5 50.75 6.8 50.8 6.25" fill="#e6e6f0" fill-rule="evenodd" stroke="none"/>
      <path d="M50.45 5.45 L51.15 5.9 50.35 6.35 49.95 5.9 50.45 5.45" fill="#e6e6f0" fill-rule="evenodd" stroke="none"/>
      <path d="M48.6 7.85 L48.05 8.45 48.05 8.05 48.75 7.6 50.15 7.9 51.0 9.65 50.55 9.65 50.1 9.2 49.25 9.35 48.95 8.8 48.6 7.85" fill="#e6e6f0" fill-rule="evenodd" stroke="none"/>
      <path d="M50.45 10.1 L51.05 10.85 50.4 11.05 49.7 10.8 49.7 10.2 50.45 10.1" fill="#e6e6f0" fill-rule="evenodd" stroke="none"/>
      <path d="M45.2 7.55 L44.55 6.95 46.6 6.95 48.55 7.75 49.35 7.75 49.75 8.65 49.4 9.6 45.2 7.55" fill="#e6e6f0" fill-rule="evenodd" stroke="none"/>
      <path d="M47.85 9.95 L47.9 11.2 47.2 11.4 46.3 11.35 46.95 9.65 47.85 9.95" fill="#e6e6f0" fill-rule="evenodd" stroke="none"/>
      <path d="M43.2 9.65 L43.0 10.2 42.2 10.1 41.2 9.65 41.8 9.45 43.2 9.65" fill="#e6e6f0" fill-rule="evenodd" stroke="none"/>
      <path d="M45.0 8.8 L46.05 9.7 45.4 10.15 44.8 9.7 45.0 8.8" fill="#e6e6f0" fill-rule="evenodd" stroke="none"/>
      <path d="M43.95 8.6 L44.25 9.5 43.05 9.45 42.75 8.85 43.4 8.4 43.95 8.6" fill="#e6e6f0" fill-rule="evenodd" stroke="none"/>
      <path d="M43.3 7.8 L44.3 7.15 44.7 7.55 44.8 9.35 44.25 10.1 42.5 9.2 43.3 7.8" fill="#e6e6f0" fill-rule="evenodd" stroke="none"/>
      <path d="M56.35 8.5 L57.2 9.25 57.4 9.75 57.2 9.85 57.35 10.3 57.4 10.5 56.7 10.55 56.2 9.9 55.3 9.0 55.55 8.65 56.35 8.5" fill="#e6e6f0" fill-rule="evenodd" stroke="none"/>
      <path d="M58.9 10.55 L58.7 10.1 57.85 9.55 57.5 8.95 57.75 8.8 58.85 9.6 59.65 10.0 58.9 10.55" fill="#e6e6f0" fill-rule="evenodd" stroke="none"/>
      <path d="M53.3 9.65 L55.05 9.6 56.2 9.9 55.6 10.7 54.6 10.45 53.3 9.65" fill="#e6e6f0" fill-rule="evenodd" stroke="none"/>
      <path d="M53.75 8.85 L52.1 8.05 52.85 7.55 54.2 7.8 53.75 8.85" fill="#e6e6f0" fill-rule="evenodd" stroke="none"/>
      <path d="M53.3 11.45 L51.1 8.1 51.9 7.25 53.4 8.05 53.3 11.45" fill="#e6e6f0" fill-rule="evenodd" stroke="none"/>
    </g>
    <g id="sprite6" transform="matrix(1.0, 0.0, 0.0, 1.0, 0.0, 0.0)">
      <use height="6.1" transform="matrix(0.8033, 0.0, 0.0, 0.8197, 0.0, 0.0)" width="9.15" xlink:href="#shape1"/>
    </g>
    <g id="sprite7" transform="matrix(1.0, 0.0, 0.0, 1.0, 0.0, 0.0)">
      <use height="3.45" transform="matrix(0.7973, 0.0, 0.0, 0.8116, 0.0, 0.0)" width="3.7" xlink:href="#shape5"/>
    </g>
    <g id="sprite8" transform="matrix(1.0, 0.0, 0.0, 1.0, 0.0, 0.0)">
      <use height="2.65" transform="matrix(1.0, 0.0, 0.0, 1.0, 0.0, 0.0)" width="2.9" xlink:href="#shape6"/>
    </g>
    <g id="shape8" transform="matrix(1.0, 0.0, 0.0, 1.0, -21.2, -7.4)">
      <path d="M46.25 12.3 L47.9 13.85 Q47.45 14.5 45.8 14.5 44.75 14.5 44.8 14.05 L45.1 13.6 46.25 12.3" fill="#d0d9ec" fill-rule="evenodd" stroke="none"/>
      <path d="M37.95 10.1 L40.25 10.6 40.45 11.3 Q40.55 12.1 39.9 12.75 39.25 13.4 38.65 13.25 L37.95 13.0 37.05 12.4 36.35 11.85 37.95 10.1" fill="#d0d9ec" fill-rule="evenodd" stroke="none"/>
      <path d="M61.4 9.15 Q62.55 9.65 62.9 10.8 63.25 11.9 62.9 12.0 62.6 12.15 60.95 11.0 L61.4 9.15" fill="#d0d9ec" fill-rule="evenodd" stroke="none"/>
      <path d="M56.65 11.85 Q58.95 12.75 58.3 13.55 57.9 14.05 57.1 14.0 L56.35 13.8 53.9 12.75 54.75 11.7 56.65 11.85" fill="#d0d9ec" fill-rule="evenodd" stroke="none"/>
      <path d="M64.9 7.4 Q65.85 9.0 65.1 9.55 L63.95 9.75 63.05 9.55 Q62.85 9.55 62.9 8.95 L63.05 8.35 Q64.0 7.9 64.9 7.4" fill="#d0d9ec" fill-rule="evenodd" stroke="none"/>
      <path d="M51.65 11.65 Q54.2 11.3 54.45 12.55 54.6 13.35 53.85 14.4 53.55 14.9 52.45 14.9 L51.15 14.8 Q50.9 14.8 50.35 13.75 L49.9 12.7 51.65 11.65" fill="#d0d9ec" fill-rule="evenodd" stroke="none"/>
      <path d="M61.1 9.45 L61.3 12.35 59.3 12.65 58.55 11.95 58.05 11.3 59.15 9.6 61.1 9.45" fill="#d0d9ec" fill-rule="evenodd" stroke="none"/>
      <path d="M46.5 12.95 L48.7 12.15 49.0 13.35 Q49.65 14.25 49.25 14.25 L47.45 14.25 46.5 13.85 46.5 12.95" fill="#d0d9ec" fill-rule="evenodd" stroke="none"/>
      <path d="M65.05 10.5 L67.6 10.9 67.15 13.0 65.8 13.1 64.35 13.0 63.8 11.8 65.05 10.5" fill="#d0d9ec" fill-rule="evenodd" stroke="none"/>
      <path d="M49.9 12.7 L51.65 11.65 52.3 11.6 53.65 11.65 53.5 12.35 52.4 13.0 49.9 12.7" fill="#efeffa" fill-rule="evenodd" stroke="none"/>
      <path d="M36.95 10.05 L38.25 10.2 38.05 10.8 37.0 12.0 36.2 11.75 36.95 10.05" fill="#efeffa" fill-rule="evenodd" stroke="none"/>
      <path d="M40.25 12.35 L38.2 12.4 37.9 11.45 38.9 11.35 39.7 11.45 40.25 12.35" fill="#efeffa" fill-rule="evenodd" stroke="none"/>
      <path d="M45.55 10.5 L45.45 10.85 44.7 11.85 42.75 12.2 40.75 12.35 40.0 11.8 39.9 11.5 41.1 11.45 42.55 11.15 43.65 11.15 45.55 10.5" fill="#efeffa" fill-rule="evenodd" stroke="none"/>
      <path d="M46.25 12.3 L47.25 13.85 46.1 14.0 44.85 14.0 44.85 13.7 46.25 12.3" fill="#efeffa" fill-rule="evenodd" stroke="none"/>
      <path d="M37.95 10.1 L39.15 10.2 40.25 10.6 39.35 11.6 39.2 11.2 38.35 12.1 37.65 12.1 37.05 11.95 36.35 11.55 37.95 10.1" fill="#efeffa" fill-rule="evenodd" stroke="none"/>
      <path d="M54.75 11.7 L56.8 11.9 56.95 12.15 56.35 12.8 55.6 12.75 54.6 12.35 54.75 11.7" fill="#efeffa" fill-rule="evenodd" stroke="none"/>
      <path d="M60.5 10.45 L60.3 11.35 59.1 11.85 58.05 11.3 59.15 9.6 60.5 10.45" fill="#efeffa" fill-rule="evenodd" stroke="none"/>
      <path d="M66.8 10.8 L66.8 11.5 Q66.8 11.7 66.1 11.9 L64.55 12.35 63.7 11.65 65.05 10.5 66.8 10.8" fill="#efeffa" fill-rule="evenodd" stroke="none"/>
      <path d="M48.7 12.15 L48.35 13.2 47.9 13.15 47.0 13.65 46.4 12.9 48.7 12.15" fill="#efeffa" fill-rule="evenodd" stroke="none"/>
      <path d="M64.9 7.4 L64.75 8.45 63.65 8.8 63.05 8.35 Q64.0 7.9 64.9 7.4" fill="#efeffa" fill-rule="evenodd" stroke="none"/>
      <path d="M61.4 9.15 L62.05 9.75 62.4 10.7 62.2 10.55 61.7 11.15 60.95 11.0 61.4 9.15" fill="#efeffa" fill-rule="evenodd" stroke="none"/>
      <path d="M44.45 15.2 L46.3 16.1 46.4 16.95 Q46.1 17.4 45.6 17.35 L41.9 18.0 38.65 18.65 35.45 19.05 34.2 18.55 33.0 18.25 29.85 19.0 27.5 18.6 24.5 18.0 22.2 17.75 21.2 16.6 21.8 16.0 22.7 15.35 24.0 14.65 25.0 13.9 Q25.05 13.7 25.85 13.1 L26.65 12.5 28.35 12.65 29.3 11.2 31.25 9.5 31.75 8.6 32.05 7.65 33.6 7.85 35.15 8.3 39.35 12.6 41.15 12.85 44.45 15.2" fill="#becdec" fill-rule="evenodd" stroke="none"/>
      <path d="M36.3 10.55 L34.95 10.55 34.7 9.65 35.15 8.3 Q35.65 8.5 37.0 10.55 L36.3 10.55" fill="#a1aec9" fill-rule="evenodd" stroke="none"/>
      <path d="M39.35 12.6 L38.25 13.5 37.2 13.0 36.45 12.05 37.1 11.8 38.25 11.7 39.35 12.6" fill="#a1aec9" fill-rule="evenodd" stroke="none"/>
      <path d="M41.15 12.85 L42.35 13.8 42.85 14.35 42.15 14.55 41.5 14.5 40.55 13.55 41.15 12.85" fill="#a1aec9" fill-rule="evenodd" stroke="none"/>
      <path d="M39.7 14.15 L39.35 14.05 39.8 14.35 Q40.7 14.9 40.7 16.1 L39.65 15.7 38.1 15.95 38.1 14.7 39.15 13.8 39.7 14.15" fill="#a1aec9" fill-rule="evenodd" stroke="none"/>
      <path d="M43.85 15.95 L44.65 16.75 44.0 16.85 42.9 16.9 42.9 16.0 43.85 15.95" fill="#a1aec9" fill-rule="evenodd" stroke="none"/>
      <path d="M46.3 16.1 L46.4 16.95 46.1 17.05 45.1 16.95 45.25 16.15 46.3 16.1" fill="#a1aec9" fill-rule="evenodd" stroke="none"/>
      <path d="M36.45 16.25 L37.4 17.2 37.2 18.2 35.75 19.1 34.7 18.7 34.4 17.95 34.9 17.35 34.8 15.95 33.55 14.15 34.6 14.6 35.15 15.0 35.65 15.15 36.45 16.25" fill="#a1aec9" fill-rule="evenodd" stroke="none"/>
      <path d="M31.35 15.5 L31.45 15.0 30.85 14.35 32.15 15.5 32.25 16.75 33.15 17.7 33.0 18.25 29.85 19.0 30.7 18.05 30.85 16.25 31.35 15.5" fill="#a1aec9" fill-rule="evenodd" stroke="none"/>
      <path d="M28.95 17.95 L28.45 17.7 28.35 16.75 28.7 15.5 29.05 14.9 29.8 15.5 29.6 16.25 28.95 17.95" fill="#a1aec9" fill-rule="evenodd" stroke="none"/>
      <path d="M26.8 16.1 L26.45 16.8 25.85 16.65 25.65 15.8 26.3 15.7 25.95 14.6 26.85 15.05 26.8 16.1" fill="#a1aec9" fill-rule="evenodd" stroke="none"/>
      <path d="M32.45 12.7 L32.2 11.95 32.1 11.2 33.2 10.8 33.5 11.8 34.55 12.8 33.65 13.3 32.4 13.25 32.45 12.7" fill="#a1aec9" fill-rule="evenodd" stroke="none"/>
      <path d="M30.3 12.6 L30.8 13.5 30.2 13.8 29.05 13.25 29.15 12.6 30.3 12.6" fill="#a1aec9" fill-rule="evenodd" stroke="none"/>
      <path d="M36.8 14.25 L37.15 14.85 36.65 15.05 35.95 14.15 36.3 14.15 36.8 14.25" fill="#a1aec9" fill-rule="evenodd" stroke="none"/>
      <path d="M38.2 16.35 L39.15 16.4 39.35 16.85 40.5 17.75 40.05 18.3 38.65 18.65 37.9 18.05 37.95 17.3 38.2 16.35" fill="#a1aec9" fill-rule="evenodd" stroke="none"/>
      <path d="M33.1 10.15 L32.75 9.7 33.4 9.6 33.95 9.6 33.95 10.0 33.7 10.2 33.35 10.4 33.1 10.15" fill="#a1aec9" fill-rule="evenodd" stroke="none"/>
      <path d="M41.3 16.2 L42.5 17.55 41.6 17.7 40.75 17.45 41.3 16.2" fill="#a1aec9" fill-rule="evenodd" stroke="none"/>
      <path d="M31.25 9.5 L31.25 9.05 31.45 8.3 32.05 7.65 32.6 7.45 34.25 7.95 35.15 8.3 34.9 8.85 34.55 9.3 34.4 9.65 33.4 9.6 33.4 8.75 32.85 9.55 31.25 9.5" fill="#e6e6f0" fill-rule="evenodd" stroke="none"/>
      <path d="M30.9 9.7 L32.15 10.45 33.2 10.8 32.1 11.2 31.35 11.25 30.3 11.15 29.65 10.6 30.9 9.7" fill="#e6e6f0" fill-rule="evenodd" stroke="none"/>
      <path d="M29.3 11.2 L30.65 12.25 30.3 12.6 29.15 12.6 28.4 12.4 29.3 11.2" fill="#e6e6f0" fill-rule="evenodd" stroke="none"/>
      <path d="M36.8 12.1 L36.65 13.15 35.9 13.4 35.05 13.25 34.5 12.4 34.55 11.7 35.3 11.85 36.35 11.8 36.8 12.1" fill="#e6e6f0" fill-rule="evenodd" stroke="none"/>
      <path d="M34.15 10.75 L35.05 11.35 34.0 11.85 33.5 11.35 34.15 10.75" fill="#e6e6f0" fill-rule="evenodd" stroke="none"/>
      <path d="M32.6 15.5 L32.25 14.9 31.85 13.7 31.1 14.45 31.1 13.95 31.95 13.4 32.65 13.5 33.7 13.8 34.8 15.95 34.25 15.9 33.65 15.35 32.6 15.5" fill="#e6e6f0" fill-rule="evenodd" stroke="none"/>
      <path d="M34.15 16.5 L34.9 17.35 34.05 17.65 33.15 17.3 33.15 16.6 34.15 16.5" fill="#e6e6f0" fill-rule="evenodd" stroke="none"/>
      <path d="M27.35 13.9 L27.0 12.8 28.55 13.3 30.2 14.1 30.85 14.1 31.25 14.95 30.9 15.8 27.35 13.9" fill="#e6e6f0" fill-rule="evenodd" stroke="none"/>
      <path d="M30.85 16.25 L30.9 17.8 30.1 18.0 28.95 17.95 29.7 15.95 30.85 16.25" fill="#e6e6f0" fill-rule="evenodd" stroke="none"/>
      <path d="M30.35 18.3 L30.1 19.1 29.05 18.9 27.85 18.3 28.55 18.1 30.35 18.3" fill="#e6e6f0" fill-rule="evenodd" stroke="none"/>
      <path d="M27.3 14.9 L28.55 15.95 27.75 16.55 27.05 15.95 27.3 14.9" fill="#e6e6f0" fill-rule="evenodd" stroke="none"/>
      <path d="M25.95 14.6 L26.3 15.7 24.9 15.6 24.5 14.95 25.25 14.35 25.95 14.6" fill="#e6e6f0" fill-rule="evenodd" stroke="none"/>
      <path d="M25.55 13.0 L26.65 12.5 27.0 12.8 27.15 14.1 26.5 14.6 24.75 13.95 25.55 13.0" fill="#e6e6f0" fill-rule="evenodd" stroke="none"/>
      <path d="M42.9 16.0 L42.6 16.15 42.8 16.75 42.9 16.9 42.0 17.0 40.25 15.1 40.55 14.65 41.5 14.5 42.6 15.4 42.9 16.0" fill="#e6e6f0" fill-rule="evenodd" stroke="none"/>
      <path d="M45.65 16.35 L45.15 16.65 44.75 17.0 44.55 16.4 43.4 15.75 42.95 15.05 43.25 14.9 45.65 16.35" fill="#e6e6f0" fill-rule="evenodd" stroke="none"/>
      <path d="M37.7 15.9 L39.85 15.8 41.3 16.2 40.6 17.2 39.35 16.85 37.7 15.9" fill="#e6e6f0" fill-rule="evenodd" stroke="none"/>
      <path d="M38.3 14.95 L36.2 13.95 37.15 13.3 38.8 13.65 38.3 14.95" fill="#e6e6f0" fill-rule="evenodd" stroke="none"/>
      <path d="M38.0 15.6 L37.9 18.05 35.9 15.7 36.65 15.05 38.0 15.6" fill="#e6e6f0" fill-rule="evenodd" stroke="none"/>
    </g>
    <g id="sprite9" transform="matrix(1.0, 0.0, 0.0, 1.0, 0.0, 0.0)">
      <use height="6.1" transform="matrix(1.0, 0.0, 0.0, 1.0, 0.0, 0.0)" width="9.15" xlink:href="#shape1"/>
    </g>
    <g id="sprite10" transform="matrix(1.0, 0.0, 0.0, 1.0, 0.0, 0.0)">
      <use height="3.45" transform="matrix(1.0, 0.0, 0.0, 1.0, 0.0, 0.0)" width="3.7" xlink:href="#shape5"/>
    </g>
    <g id="sprite11" transform="matrix(1.0, 0.0, 0.0, 1.0, 0.0, 0.0)">
      <use height="2.65" transform="matrix(1.0, 0.0, 0.0, 1.0, 0.0, 0.0)" width="3.8" xlink:href="#shape9"/>
    </g>
    <g id="shape9" transform="matrix(1.0, 0.0, 0.0, 1.0, 0.0, 0.0)">
      <path d="M3.8 0.0 Q3.5 1.4 2.05 2.3 L0.5 2.55 0.0 2.15 1.3 0.35 3.8 0.0" fill="#d0d9ec" fill-rule="evenodd" stroke="none"/>
    </g>
    <g id="sprite12" transform="matrix(1.0, 0.0, 0.0, 1.0, 0.0, 0.0)">
      <use height="1.85" transform="matrix(1.0, 0.0, 0.0, 1.0, 0.0, 0.0)" width="2.2" xlink:href="#shape10"/>
    </g>
    <g id="shape10" transform="matrix(1.0, 0.0, 0.0, 1.0, 0.0, 0.0)">
      <path d="M1.75 0.0 L2.2 1.8 Q0.3 2.0 0.05 1.25 -0.25 0.55 1.75 0.0" fill="#d0d9ec" fill-rule="evenodd" stroke="none"/>
    </g>
    <g id="sprite13" transform="matrix(1.0, 0.0, 0.0, 1.0, 0.0, 0.0)">
      <use height="3.25" transform="matrix(1.0, 0.0, 0.0, 1.0, 0.0, 0.0)" width="3.65" xlink:href="#shape11"/>
    </g>
    <g id="shape11" transform="matrix(1.0, 0.0, 0.0, 1.0, 0.0, 0.0)">
      <path d="M3.65 1.25 L3.3 2.2 Q2.75 3.15 1.75 3.25 0.75 3.35 0.3 1.8 L0.0 0.2 1.05 0.0 Q2.05 -0.15 3.65 1.25" fill="#d0d9ec" fill-rule="evenodd" stroke="none"/>
    </g>
    <g id="sprite14" transform="matrix(1.0, 0.0, 0.0, 1.0, 0.05, 0.0)">
      <use height="4.55" transform="matrix(1.0, 0.0, 0.0, 1.0, -0.05, 0.0)" width="4.65" xlink:href="#shape12"/>
    </g>
    <g id="shape12" transform="matrix(1.0, 0.0, 0.0, 1.0, 0.05, 0.0)">
      <path d="M4.6 0.0 L4.5 1.7 Q4.45 3.4 3.85 3.95 3.2 4.5 2.05 4.55 L0.35 4.5 Q-0.5 4.5 0.5 1.25 L4.6 0.0" fill="#d0d9ec" fill-rule="evenodd" stroke="none"/>
    </g>
    <g id="shape13" transform="matrix(1.0, 0.0, 0.0, 1.0, -8.1, -8.1)">
      <path d="M28.85 19.1 L30.95 21.0 Q30.4 21.8 28.3 21.8 27.0 21.8 27.1 21.3 L27.4 20.7 28.85 19.1" fill="#d0d9ec" fill-rule="evenodd" stroke="none"/>
      <path d="M39.05 17.95 L39.35 18.75 Q39.45 19.75 38.65 20.55 37.85 21.35 37.1 21.2 L36.2 20.9 Q35.9 20.9 35.05 20.15 L34.2 19.4 36.2 17.3 39.05 17.95" fill="#d0d9ec" fill-rule="evenodd" stroke="none"/>
      <path d="M44.95 16.0 Q50.15 16.85 50.3 17.3 50.4 17.65 49.95 18.0 L49.0 18.65 47.25 19.1 45.5 19.25 44.25 18.95 43.5 18.65 44.95 16.0" fill="#d0d9ec" fill-rule="evenodd" stroke="none"/>
      <path d="M48.35 12.8 Q49.75 13.45 50.2 14.9 50.65 16.15 50.2 16.35 49.8 16.5 47.7 15.05 L48.35 12.8" fill="#d0d9ec" fill-rule="evenodd" stroke="none"/>
      <path d="M41.9 18.55 L43.25 19.25 Q44.5 20.05 44.0 20.65 43.5 21.25 42.45 21.15 L41.5 20.95 38.45 19.7 39.55 18.4 41.9 18.55" fill="#d0d9ec" fill-rule="evenodd" stroke="none"/>
      <path d="M55.95 14.4 Q57.15 16.35 56.2 17.0 55.65 17.4 54.7 17.25 L53.6 17.0 Q53.3 17.0 53.45 16.3 L53.6 15.55 Q54.75 15.0 55.95 14.4" fill="#d0d9ec" fill-rule="evenodd" stroke="none"/>
      <path d="M43.3 11.45 Q46.7 12.8 45.65 13.8 L43.9 14.6 42.9 15.2 40.15 13.9 40.4 11.45 43.3 11.45" fill="#d0d9ec" fill-rule="evenodd" stroke="none"/>
      <path d="M14.95 14.15 Q17.05 14.3 18.75 15.1 L16.8 16.85 14.05 16.75 13.25 14.5 14.95 14.15" fill="#d0d9ec" fill-rule="evenodd" stroke="none"/>
      <path d="M21.0 13.1 Q24.25 12.65 24.5 14.15 24.7 15.15 23.75 16.45 23.35 17.05 22.0 17.05 L20.4 16.95 Q20.05 16.95 19.4 15.65 L18.8 14.35 21.0 13.1" fill="#d0d9ec" fill-rule="evenodd" stroke="none"/>
      <path d="M54.65 16.05 L54.95 19.55 52.4 19.95 51.5 19.1 50.85 18.3 52.2 16.2 54.65 16.05" fill="#d0d9ec" fill-rule="evenodd" stroke="none"/>
      <path d="M56.25 19.3 L59.05 18.3 59.4 19.8 Q60.2 20.9 59.65 20.9 L57.45 20.9 56.25 20.45 56.25 19.3" fill="#d0d9ec" fill-rule="evenodd" stroke="none"/>
      <path d="M48.8 19.55 L51.95 20.05 51.4 22.65 49.7 22.75 47.9 22.65 47.2 21.2 48.8 19.55" fill="#d0d9ec" fill-rule="evenodd" stroke="none"/>
      <path d="M18.8 14.35 L21.0 13.1 21.8 13.05 23.5 13.15 23.35 14.0 Q22.65 14.4 21.9 14.75 L18.8 14.35" fill="#efeffa" fill-rule="evenodd" stroke="none"/>
      <path d="M13.45 14.4 L14.65 14.05 15.75 14.15 17.45 14.75 15.85 15.0 13.45 14.4" fill="#efeffa" fill-rule="evenodd" stroke="none"/>
      <path d="M9.35 15.95 L9.65 15.7 11.6 15.65 11.35 15.95 9.95 16.75 8.1 17.75 9.35 15.95" fill="#efeffa" fill-rule="evenodd" stroke="none"/>
      <path d="M14.6 17.4 L14.75 17.65 14.15 18.15 13.4 19.5 10.8 21.05 10.75 20.2 10.95 18.45 14.6 17.4" fill="#efeffa" fill-rule="evenodd" stroke="none"/>
      <path d="M17.2 16.35 L18.8 16.6 18.65 17.3 17.25 18.75 16.25 18.45 17.2 16.35" fill="#efeffa" fill-rule="evenodd" stroke="none"/>
      <path d="M21.3 19.15 L18.75 19.25 18.35 18.15 19.65 17.95 20.6 18.15 21.3 19.15" fill="#efeffa" fill-rule="evenodd" stroke="none"/>
      <path d="M21.05 18.5 L20.9 18.2 22.35 18.1 24.2 17.75 25.6 17.75 27.95 16.9 27.9 17.35 26.9 18.6 24.5 19.05 22.0 19.15 21.05 18.5" fill="#efeffa" fill-rule="evenodd" stroke="none"/>
      <path d="M18.25 20.5 L18.3 21.3 18.25 21.8 16.55 21.65 16.6 21.35 18.25 20.5" fill="#efeffa" fill-rule="evenodd" stroke="none"/>
      <path d="M28.85 19.1 L30.1 21.0 28.7 21.25 27.15 21.25 27.1 20.85 28.85 19.1" fill="#efeffa" fill-rule="evenodd" stroke="none"/>
      <path d="M37.75 17.45 L39.05 17.95 38.0 19.15 37.8 18.65 36.7 19.75 35.85 19.75 35.1 19.6 34.25 19.1 36.2 17.3 37.75 17.45" fill="#efeffa" fill-rule="evenodd" stroke="none"/>
      <path d="M39.55 18.4 L42.05 18.65 42.3 18.95 41.55 19.7 40.6 19.65 39.3 19.2 39.55 18.4" fill="#efeffa" fill-rule="evenodd" stroke="none"/>
      <path d="M44.9 16.2 L48.7 16.8 48.7 17.2 46.35 17.95 45.1 18.3 44.05 18.3 44.9 16.2" fill="#efeffa" fill-rule="evenodd" stroke="none"/>
      <path d="M40.4 11.45 L42.6 11.9 43.75 12.3 43.2 13.0 42.0 13.7 40.3 13.2 40.4 11.45" fill="#efeffa" fill-rule="evenodd" stroke="none"/>
      <path d="M53.95 17.3 L53.7 18.35 52.15 19.0 50.85 18.3 52.2 16.2 53.95 17.3" fill="#efeffa" fill-rule="evenodd" stroke="none"/>
      <path d="M50.9 19.95 L51.0 20.85 50.1 21.35 48.1 21.8 47.1 21.0 48.8 19.55 50.9 19.95" fill="#efeffa" fill-rule="evenodd" stroke="none"/>
      <path d="M59.05 18.3 L58.6 19.55 58.0 19.55 56.9 20.1 56.1 19.2 59.05 18.3" fill="#efeffa" fill-rule="evenodd" stroke="none"/>
      <path d="M55.95 14.4 L55.75 15.65 54.4 16.1 53.6 15.55 Q54.75 15.0 55.95 14.4" fill="#efeffa" fill-rule="evenodd" stroke="none"/>
      <path d="M48.35 12.8 L49.15 13.65 49.6 14.75 49.25 14.6 48.7 15.25 47.7 15.05 48.35 12.8" fill="#efeffa" fill-rule="evenodd" stroke="none"/>
      <path d="M47.85 9.95 L53.05 10.7 52.1 10.8 46.1 12.95 45.9 11.1 44.25 10.1 41.6 11.0 36.95 10.05 34.9 8.85 36.95 8.1 39.4 9.2 42.85 8.3 45.2 8.8 47.85 9.95" fill="#a1aec9" fill-rule="evenodd" stroke="none"/>
    </g>
  </defs>
</svg>
