<?xml version="1.0" encoding="UTF-8" standalone="no"?>
<svg xmlns:xlink="http://www.w3.org/1999/xlink" height="212.8px" width="185.3px" xmlns="http://www.w3.org/2000/svg">
  <g transform="matrix(1.0, 0.0, 0.0, 1.0, 0.0, 0.0)">
    <use height="212.8" transform="matrix(1.0, 0.0, 0.0, 1.0, 0.0, 0.0)" width="185.3" xlink:href="#shape0"/>
  </g>
  <defs>
    <g id="shape0" transform="matrix(1.0, 0.0, 0.0, 1.0, 0.0, 0.0)">
      <path d="M129.1 32.85 Q132.35 34.4 135.2 34.85 137.6 35.25 139.75 36.55 139.75 40.05 138.05 42.55 136.3 45.05 133.9 45.05 129.25 44.95 125.65 45.15 L127.45 39.55 Q129.15 34.15 129.1 32.85 M142.8 40.95 L142.85 41.0 143.05 53.8 Q142.9 53.0 142.85 46.9 L142.8 40.95 M156.25 47.55 L160.0 47.5 Q159.85 48.95 159.4 49.35 158.9 49.75 158.7 51.15 157.85 56.45 158.2 84.7 157.55 76.3 156.85 62.15 156.15 48.9 156.25 47.55 M166.35 45.85 L168.95 45.45 166.8 45.75 166.35 45.85 M172.3 46.4 L174.7 48.35 175.5 57.65 175.3 65.9 173.85 74.1 Q172.45 81.95 172.45 84.85 172.45 88.6 174.9 89.8 177.3 91.0 177.3 94.05 177.3 95.95 176.35 100.7 175.4 105.45 175.4 106.9 L173.35 106.9 Q168.5 105.1 166.95 103.35 167.95 105.7 167.95 107.8 L167.8 112.8 167.45 118.75 167.35 106.8 167.15 107.3 Q166.9 108.5 165.6 121.5 164.2 135.45 162.9 143.4 162.8 136.7 160.5 112.1 158.25 88.15 158.25 82.45 158.25 76.65 159.15 70.65 L160.15 64.7 Q161.45 81.8 162.45 87.1 L164.95 100.95 164.9 99.75 166.2 101.85 165.85 99.9 Q165.55 98.05 164.75 96.4 L164.65 87.05 Q164.65 76.4 166.55 53.15 168.7 63.4 172.15 64.95 L172.9 64.8 173.15 59.15 172.95 53.25 172.3 46.4 M174.6 141.3 L172.05 141.3 172.8 140.25 173.95 138.15 174.6 141.3 M168.35 142.4 L168.6 151.15 168.45 149.75 168.05 141.7 168.35 142.4 M168.55 152.45 L168.25 154.05 168.35 153.5 168.55 152.45 M152.15 179.4 Q148.45 179.05 147.25 177.9 146.1 176.7 146.1 172.8 L146.25 168.9 Q146.95 168.9 147.3 167.65 147.85 165.8 147.7 160.8 147.7 158.6 149.4 157.8 150.85 157.05 154.45 157.05 L159.85 157.6 Q160.5 158.3 160.5 164.65 L160.45 170.95 Q160.1 173.75 158.3 173.75 156.8 173.75 156.25 171.9 155.7 170.1 156.0 166.15 L155.8 167.2 152.15 179.4 M145.55 167.5 L143.2 167.75 144.85 167.45 145.55 167.5 M142.9 168.0 Q142.35 169.55 142.35 173.85 L142.2 181.6 Q141.2 191.75 133.15 195.3 134.05 189.25 135.35 162.1 L136.6 133.8 137.85 131.3 Q140.55 130.1 142.75 125.9 145.0 121.6 146.1 115.25 L145.7 125.05 145.7 124.4 Q143.35 137.4 143.25 147.8 L142.9 168.0 M133.0 195.45 L131.4 197.6 129.95 199.4 130.55 198.55 133.0 195.45 M129.15 200.35 L129.05 200.5 Q128.2 181.2 128.2 173.15 L128.25 161.8 Q128.35 155.3 128.75 147.1 L129.75 131.95 Q129.75 125.35 128.7 115.4 L126.85 99.55 Q124.7 124.05 124.65 132.7 L124.2 164.15 122.75 175.0 Q122.75 178.8 123.75 184.85 124.75 190.85 124.75 193.8 124.75 197.35 123.75 199.2 122.7 201.05 118.65 204.7 L118.6 204.7 Q117.95 196.95 114.8 171.2 L114.5 165.0 114.5 168.7 112.85 153.55 Q112.4 148.6 111.95 137.65 112.3 142.5 113.2 149.7 114.45 159.5 114.5 161.5 L114.8 125.9 115.15 95.5 Q114.95 95.65 114.85 93.95 L114.8 92.2 115.2 94.05 Q115.2 95.45 115.85 100.85 116.6 107.7 117.5 109.2 118.25 107.3 118.15 98.9 118.0 90.3 121.3 81.5 125.7 69.7 129.75 67.55 L135.8 64.35 138.1 62.4 Q141.45 66.15 142.7 75.85 144.55 90.35 144.85 91.5 141.95 104.55 141.8 111.2 141.6 117.85 141.3 119.3 L139.65 126.45 137.85 131.3 Q137.35 131.3 137.0 132.05 136.6 132.75 136.6 133.8 132.35 141.65 130.2 161.05 128.75 173.7 128.75 182.1 L129.15 200.35 M99.05 203.75 Q98.15 203.75 97.55 202.85 96.9 201.9 96.9 200.55 L96.95 200.1 Q98.45 199.6 101.25 200.85 103.35 201.8 104.35 202.65 L101.9 203.15 99.05 203.75 M75.4 212.55 L74.95 212.45 75.0 212.45 75.4 212.55 M63.85 206.6 Q62.1 198.85 62.0 193.8 L62.2 182.9 Q62.2 175.0 60.3 169.65 L55.6 159.35 56.65 160.55 57.8 163.95 60.5 159.95 Q61.3 158.85 62.8 154.75 63.85 151.9 68.7 151.15 L75.7 150.65 Q76.05 152.05 76.4 156.2 76.95 161.9 76.95 167.8 76.95 185.6 76.6 189.3 76.25 193.15 74.05 198.15 72.7 196.45 72.5 194.05 72.05 187.2 71.4 182.85 L71.0 183.8 70.65 184.25 70.45 188.95 70.7 197.4 Q70.85 201.15 70.55 202.6 69.9 206.05 63.85 206.6 M47.95 165.85 L47.85 166.25 47.8 164.8 47.95 165.85 M27.9 198.2 Q27.45 197.05 27.2 182.4 26.95 165.05 25.95 155.75 25.45 150.75 25.5 147.8 25.4 147.15 22.9 146.1 21.7 145.6 16.1 144.05 13.0 143.2 13.0 142.0 13.0 139.5 12.45 136.35 L10.35 125.3 10.55 119.9 Q10.95 115.9 10.75 113.6 L10.75 113.55 10.85 88.55 Q11.6 97.0 11.6 104.0 L11.75 108.7 Q12.0 112.95 12.35 115.0 L12.6 114.75 13.05 113.9 13.25 111.3 13.15 71.5 Q13.5 68.25 14.95 67.45 16.0 66.9 19.7 66.15 L19.85 58.6 19.7 56.75 19.45 57.75 18.1 60.05 Q19.8 57.15 19.95 53.95 20.2 49.7 21.35 46.15 21.4 102.6 20.6 111.4 19.65 111.85 19.35 122.05 L19.8 120.2 23.35 101.9 Q24.6 94.65 25.55 81.5 L28.95 62.3 Q31.65 46.5 32.25 44.35 33.1 50.5 34.75 56.4 36.05 61.15 36.05 62.6 L35.75 64.25 Q35.45 65.0 34.95 65.0 33.1 65.0 32.3 78.45 31.9 85.85 31.9 94.8 31.9 102.5 32.5 110.3 L33.1 118.6 32.35 148.1 30.55 155.35 28.95 161.85 29.0 163.1 29.9 162.2 Q31.6 160.0 33.1 155.6 34.3 151.95 34.3 150.9 L34.25 149.1 35.55 146.95 Q34.9 152.4 33.2 159.1 L30.3 170.4 Q26.85 184.4 27.9 198.2 M7.75 111.05 Q6.8 110.8 5.0 109.25 L3.15 107.45 5.9 90.3 Q7.45 79.55 7.45 76.4 L8.75 75.45 9.25 74.7 10.8 88.1 Q8.4 105.45 7.75 111.05 M67.55 0.35 L74.25 0.0 77.3 0.4 Q78.7 0.75 79.3 1.2 L78.0 10.05 Q76.8 18.8 76.8 30.7 L77.05 38.4 Q77.4 44.25 78.05 46.05 L78.2 45.85 79.85 41.9 80.5 42.7 Q80.8 43.05 81.0 43.05 L81.3 46.8 Q81.3 49.4 79.85 59.3 78.35 69.2 78.35 75.3 78.35 90.3 77.6 94.55 76.75 99.35 73.45 101.0 65.2 106.8 63.95 107.25 L57.45 107.1 Q52.95 106.65 51.1 105.6 L49.35 104.1 Q49.35 92.3 49.5 85.4 L55.6 98.25 55.5 88.5 57.35 90.05 59.25 91.45 59.7 83.85 59.95 77.45 59.55 71.55 Q59.25 66.25 59.5 65.35 59.95 64.0 61.05 62.75 61.85 61.8 61.85 60.25 61.85 58.7 60.55 54.75 L62.1 28.15 62.3 16.5 65.15 56.25 65.35 56.15 Q67.0 50.35 67.45 31.75 L68.15 0.35 67.55 0.35 M90.75 16.3 L92.65 19.5 91.8 18.55 90.75 16.3 M94.65 21.55 L96.6 22.2 98.5 22.65 97.65 22.6 96.2 22.35 95.1 21.9 94.65 21.55 M106.45 28.9 L108.15 31.6 Q107.85 38.3 107.3 62.85 L106.75 86.55 Q106.75 91.8 102.2 104.2 102.0 104.8 101.35 108.95 L100.7 113.3 100.7 125.4 100.05 137.45 Q99.5 150.2 99.5 167.25 99.5 177.25 100.2 182.7 100.25 183.9 99.7 184.7 L97.3 187.55 Q96.55 188.45 96.55 190.2 L96.7 193.4 Q96.65 197.5 92.6 198.65 L92.4 186.3 Q91.95 179.3 89.9 171.5 L89.6 134.6 93.4 119.55 96.85 104.65 99.95 87.75 Q102.25 75.55 103.0 74.8 105.05 72.7 106.2 64.9 107.0 59.65 107.0 56.9 107.0 47.75 106.8 45.95 L105.05 36.0 106.15 31.25 106.45 28.9 M111.5 32.05 Q112.95 31.8 113.4 30.8 113.75 30.05 116.8 29.4 L117.0 39.85 Q117.05 42.95 118.8 33.85 118.35 41.05 119.45 33.75 119.65 31.5 119.45 30.25 L119.65 29.05 120.5 29.1 Q121.7 43.95 122.25 45.55 120.05 46.05 118.0 47.05 117.1 46.55 116.15 43.05 115.35 40.0 115.35 38.65 L115.25 39.0 114.65 42.95 Q114.45 44.2 113.45 44.2 112.45 44.2 111.65 42.95 110.7 41.6 110.75 39.75 L111.5 32.05 M118.9 29.05 L119.1 29.0 119.1 29.25 118.9 29.05 M179.7 105.95 L179.95 107.95 181.4 109.35 181.55 119.05 Q181.5 123.7 180.7 127.45 179.75 131.9 177.45 134.4 174.9 136.65 173.95 138.15 L169.9 118.85 176.0 113.1 Q179.7 109.35 179.95 107.95 L179.75 106.65 179.7 105.95 M146.3 44.15 Q146.45 48.45 147.3 52.15 L148.9 58.9 Q150.35 67.3 146.35 85.45 L146.3 44.15 M146.2 115.15 Q147.65 109.9 149.3 100.2 151.0 90.35 151.1 86.25 L151.95 92.8 146.3 121.55 146.2 115.15 M152.2 94.5 Q154.0 104.8 155.3 110.1 L158.85 123.65 Q158.9 134.15 156.9 141.65 155.2 148.2 153.45 148.2 L152.55 147.95 152.2 147.7 152.0 144.95 Q152.2 141.7 152.2 94.5 M161.95 140.15 L162.55 146.05 162.45 146.75 161.95 140.15 M140.45 49.5 L141.4 50.85 Q141.75 51.4 141.75 52.0 141.75 54.65 139.45 55.6 L136.8 56.1 Q135.65 56.25 134.35 57.25 132.95 58.3 130.1 58.8 120.3 60.55 118.0 61.8 114.1 63.95 112.45 70.55 L112.5 68.8 112.2 71.55 111.3 75.25 110.4 77.35 110.35 72.4 111.0 75.75 111.25 75.0 Q111.7 72.8 113.15 60.65 115.2 49.6 119.05 49.6 L122.85 50.2 128.75 50.8 134.65 50.55 Q138.9 50.2 140.45 49.5 M112.4 72.95 L113.45 70.55 Q112.9 76.2 112.35 89.0 111.85 101.4 111.25 107.1 L111.5 96.2 111.25 97.25 112.15 82.15 112.4 72.95 M167.8 132.0 Q167.55 123.45 168.0 122.35 L167.8 132.0 M47.6 80.15 L48.45 82.65 47.1 93.45 Q47.2 84.7 47.6 80.15 M37.55 148.25 Q38.6 151.4 39.7 156.75 41.05 163.45 41.05 167.5 41.05 170.5 39.25 173.45 L37.25 176.45 37.55 148.25 M37.0 185.95 Q37.2 194.5 36.75 198.8 L36.35 198.8 37.0 185.95 M95.15 61.55 L95.65 72.75 96.25 70.4 94.35 78.65 Q94.55 63.6 95.15 61.55 M91.2 99.85 L89.85 122.5 89.85 117.95 91.2 94.25 91.0 100.25 91.2 99.85 M89.9 127.55 L89.6 134.6 89.6 131.2 88.15 140.85 89.9 127.55 M111.9 74.05 L110.5 86.4 110.45 78.7 111.3 75.25 111.9 74.05 M57.15 76.15 L55.45 80.65 Q54.85 35.35 54.95 27.3 L57.15 76.15 M77.8 110.9 L79.35 111.35 79.35 121.35 78.4 126.35 77.4 131.6 77.0 132.9 Q76.2 135.55 76.15 136.2 L75.35 139.3 74.6 140.9 Q71.05 143.65 69.35 143.65 L64.85 142.25 63.25 142.65 61.65 143.0 55.1 142.5 56.55 126.35 Q56.6 122.35 59.95 120.1 61.2 119.3 64.1 118.35 L66.8 116.9 Q69.3 115.55 69.7 115.45 71.45 114.9 74.65 114.4 77.1 113.65 77.8 110.9 M86.2 180.05 Q86.95 183.05 87.2 186.25 L87.4 194.85 87.0 204.9 86.2 180.05 M114.8 171.2 L115.05 174.45 114.5 168.7 114.8 171.2" fill="#9b9286" fill-rule="evenodd" stroke="none"/>
      <path d="M120.5 29.1 L125.05 29.5 126.15 30.8 129.1 32.85 Q129.15 34.15 127.45 39.55 L125.65 45.15 Q129.25 44.95 133.9 45.05 L130.05 45.25 125.6 45.6 Q119.0 47.5 118.0 47.05 120.05 46.05 122.25 45.55 121.7 43.95 120.5 29.1 M146.25 42.9 Q147.3 43.3 149.45 45.3 151.1 46.8 156.25 47.55 156.15 48.9 156.85 62.15 157.55 76.3 158.2 84.7 157.85 56.45 158.7 51.15 158.9 49.75 159.4 49.35 159.85 48.95 160.0 47.5 L163.65 46.6 166.35 45.85 166.8 45.75 166.55 53.15 Q164.65 76.4 164.65 87.05 L164.75 96.4 164.9 99.75 164.95 100.95 162.45 87.1 Q161.45 81.8 160.15 64.7 L159.15 70.65 Q158.25 76.65 158.25 82.45 158.25 88.15 160.5 112.1 162.8 136.7 162.9 143.4 L162.55 146.05 161.95 140.15 161.3 131.6 Q160.65 126.3 158.8 121.65 L158.85 123.65 155.3 110.1 Q154.0 104.8 152.2 94.5 L152.2 91.55 151.95 92.8 151.1 86.25 Q151.0 90.35 149.3 100.2 147.65 109.9 146.2 115.15 L146.2 112.2 146.1 115.25 Q145.0 121.6 142.75 125.9 140.55 130.1 137.85 131.3 L139.65 126.45 141.3 119.3 Q141.6 117.85 141.8 111.2 141.95 104.55 144.85 91.5 145.4 92.6 145.4 99.05 L145.35 101.05 Q146.05 96.75 146.35 85.45 150.35 67.3 148.9 58.9 L147.3 52.15 Q146.45 48.45 146.3 44.15 L146.25 42.9 M175.45 48.95 L175.8 49.3 Q177.6 51.65 179.0 52.6 L178.5 62.85 Q177.95 70.0 175.6 82.15 L175.5 80.65 Q175.2 77.25 175.2 72.95 L175.3 65.9 175.5 57.65 Q175.7 51.6 175.45 49.0 L175.45 48.95 M133.15 195.3 L133.0 195.45 130.55 198.55 129.95 199.4 129.55 199.85 129.15 200.35 128.75 182.1 Q128.75 173.7 130.2 161.05 132.35 141.65 136.6 133.8 136.6 132.75 137.0 132.05 137.35 131.3 137.85 131.3 L136.6 133.8 135.35 162.1 Q134.05 189.25 133.15 195.3 M118.6 204.7 L114.65 204.6 Q113.25 196.65 112.1 184.3 110.4 166.6 110.3 147.55 L110.35 141.2 110.5 132.7 111.25 107.1 Q111.85 101.4 112.35 89.0 112.9 76.2 113.45 70.55 119.35 63.3 128.9 62.15 L138.1 62.4 135.8 64.35 129.75 67.55 Q125.7 69.7 121.3 81.5 118.0 90.3 118.15 98.9 118.25 107.3 117.5 109.2 116.6 107.7 115.85 100.85 115.2 95.45 115.2 94.05 L114.8 92.2 114.85 93.95 Q114.95 95.65 115.15 95.5 L114.8 125.9 114.5 161.5 Q114.45 159.5 113.2 149.7 112.3 142.5 111.95 137.65 112.4 148.6 112.85 153.55 L114.5 168.7 114.5 165.0 114.8 171.2 Q117.95 196.95 118.6 204.7 M55.6 159.35 L53.95 161.1 50.5 162.8 Q50.55 157.1 50.05 148.0 52.6 147.25 54.2 147.3 L61.5 147.55 66.65 146.95 69.65 146.3 Q71.75 146.3 76.65 149.45 L75.7 150.65 68.7 151.15 Q63.85 151.9 62.8 154.75 61.3 158.85 60.5 159.95 L57.8 163.95 56.65 160.55 55.6 159.35 M28.05 198.4 L27.9 198.2 Q26.85 184.4 30.3 170.4 L33.2 159.1 Q34.9 152.4 35.55 146.95 L36.0 146.7 37.0 146.3 37.55 148.25 37.25 176.45 Q36.85 178.15 36.85 179.85 L37.0 185.95 36.35 198.8 28.05 198.4 M3.15 107.45 L2.6 106.25 1.2 102.35 0.9 100.15 Q-1.35 93.6 2.15 85.0 4.9 78.35 7.45 76.4 7.45 79.55 5.9 90.3 L3.15 107.45 M9.25 74.7 Q9.75 73.1 9.8 70.65 L9.6 66.4 Q9.6 64.7 10.0 64.15 10.3 63.75 11.45 63.55 14.9 62.95 18.1 60.05 L19.45 57.75 19.7 56.75 19.85 58.6 19.7 66.15 Q16.0 66.9 14.95 67.45 13.5 68.25 13.15 71.5 L13.25 111.3 13.05 113.9 12.6 114.75 12.35 115.0 Q12.0 112.95 11.75 108.7 L11.6 104.0 Q11.6 97.0 10.85 88.55 L10.85 87.85 10.8 88.1 9.25 74.7 M26.45 38.45 L27.85 23.65 Q28.0 21.95 29.05 20.1 37.85 16.4 41.25 16.5 L44.4 16.85 Q46.65 17.1 49.5 16.85 L51.0 16.7 52.15 8.2 Q52.8 4.2 54.0 3.0 L55.65 2.2 61.85 1.15 67.55 0.35 68.15 0.35 67.45 31.75 Q67.0 50.35 65.35 56.15 L65.15 56.25 62.3 16.5 62.1 28.15 60.55 54.75 Q61.85 58.7 61.85 60.25 61.85 61.8 61.05 62.75 59.95 64.0 59.5 65.35 59.25 66.25 59.55 71.55 L59.95 77.45 59.7 83.85 59.25 91.45 57.35 90.05 55.5 88.5 55.6 98.25 49.5 85.4 50.4 70.5 50.85 63.3 48.45 82.65 47.6 80.15 Q48.85 71.6 48.85 49.8 48.85 44.9 49.6 40.05 L51.1 31.5 Q51.35 29.5 52.25 27.85 L53.5 25.7 Q54.4 23.75 51.15 20.05 L49.55 17.35 Q49.35 17.1 48.35 17.1 L42.35 17.55 Q38.0 17.5 38.1 22.9 L33.95 23.0 33.6 35.6 Q33.45 41.95 32.25 44.35 31.65 46.5 28.95 62.3 L25.55 81.5 23.55 90.5 23.8 86.05 Q24.6 79.75 25.65 66.0 26.85 50.65 26.85 44.05 L26.45 38.45 M116.8 29.4 Q118.2 28.4 118.9 29.05 L119.1 29.25 119.1 29.0 119.65 29.05 119.45 30.25 Q119.65 31.5 119.45 33.75 118.35 41.05 118.8 33.85 117.05 42.95 117.0 39.85 L116.8 29.4 M110.55 57.1 L111.65 51.35 Q112.05 49.55 112.9 49.1 114.1 48.45 122.1 49.15 124.95 49.15 128.45 48.0 131.9 46.8 135.25 46.8 135.6 46.8 137.35 47.6 139.4 48.55 140.45 49.5 138.9 50.2 134.65 50.55 L128.75 50.8 122.85 50.2 119.05 49.6 Q115.2 49.6 113.15 60.65 111.7 72.8 111.25 75.0 L111.0 75.75 110.35 72.4 110.55 57.1 M57.45 107.1 L63.95 107.25 60.95 107.4 57.45 107.1 M103.9 39.4 L105.05 36.0 106.8 45.95 Q107.0 47.75 107.0 56.9 107.0 59.65 106.2 64.9 105.05 72.7 103.0 74.8 102.25 75.55 99.95 87.75 L96.85 104.65 93.4 119.55 89.6 134.6 89.9 171.5 89.65 170.6 89.25 169.25 88.45 166.65 Q88.05 159.4 87.7 144.05 L88.15 140.85 89.6 131.2 89.6 134.6 89.9 127.55 89.85 122.5 91.2 99.85 93.4 95.05 Q95.2 88.75 94.35 78.65 L96.25 70.4 95.65 72.75 95.15 61.55 Q98.4 60.05 100.7 53.4 102.5 48.3 103.9 39.4 M57.15 76.15 L54.95 27.3 Q54.85 35.35 55.45 80.65 L57.15 76.15 M49.35 112.8 Q50.85 112.05 53.65 111.1 56.6 110.1 57.45 110.1 L65.3 110.3 77.8 110.9 Q77.1 113.65 74.65 114.4 71.45 114.9 69.7 115.45 69.3 115.55 66.8 116.9 L64.1 118.35 Q61.2 119.3 59.95 120.1 56.6 122.35 56.55 126.35 L55.1 142.5 Q53.25 142.35 51.65 142.5 L49.7 142.2 Q49.4 132.5 49.35 112.8 M114.8 171.2 L114.5 168.7 115.05 174.45 114.8 171.2" fill="#b3aa9e" fill-rule="evenodd" stroke="none"/>
      <path d="M139.75 36.55 L141.75 37.95 142.05 39.85 142.8 40.95 142.85 46.9 Q142.9 53.0 143.05 53.8 L142.85 41.0 Q144.65 42.35 146.25 42.9 L146.3 44.15 146.35 85.45 Q146.05 96.75 145.35 101.05 L145.4 99.05 Q145.4 92.6 144.85 91.5 144.55 90.35 142.7 75.85 141.45 66.15 138.1 62.4 L128.9 62.15 Q119.35 63.3 113.45 70.55 L112.4 72.95 112.45 70.55 Q114.1 63.95 118.0 61.8 120.3 60.55 130.1 58.8 132.95 58.3 134.35 57.25 135.65 56.25 136.8 56.1 L139.45 55.6 Q141.75 54.65 141.75 52.0 141.75 51.4 141.4 50.85 L140.45 49.5 Q139.4 48.55 137.35 47.6 135.6 46.8 135.25 46.8 131.9 46.8 128.45 48.0 124.95 49.15 122.1 49.15 114.1 48.45 112.9 49.1 112.05 49.55 111.65 51.35 L110.55 57.1 109.25 62.75 109.35 61.55 109.65 45.1 Q109.7 35.5 109.95 33.4 L110.05 33.85 110.75 39.75 Q110.7 41.6 111.65 42.95 112.45 44.2 113.45 44.2 114.45 44.2 114.65 42.95 L115.25 39.0 115.35 38.65 Q115.35 40.0 116.15 43.05 117.1 46.55 118.0 47.05 119.0 47.5 125.6 45.6 L130.05 45.25 133.9 45.05 Q136.3 45.05 138.05 42.55 139.75 40.05 139.75 36.55 M168.6 151.15 L168.55 152.45 168.35 153.5 168.45 149.75 168.6 151.15 M110.4 77.35 L111.3 75.25 112.2 71.55 111.9 74.05 111.3 75.25 110.45 78.7 110.4 78.7 110.35 78.0 110.4 77.35" fill="#7c7367" fill-rule="evenodd" stroke="none"/>
      <path d="M168.95 45.45 L172.3 46.4 172.95 53.25 173.15 59.15 172.9 64.8 172.15 64.95 Q168.7 63.4 166.55 53.15 L166.8 45.75 168.95 45.45 M174.7 48.35 L174.65 48.15 175.45 48.95 175.45 49.0 Q175.7 51.6 175.5 57.65 L174.7 48.35 M179.0 52.6 L181.65 53.05 Q180.9 72.9 180.9 76.6 180.9 84.3 180.3 95.5 L179.7 105.95 Q179.2 106.0 177.45 107.0 L175.8 108.05 175.5 107.2 173.6 109.05 173.3 109.4 175.45 109.6 Q177.5 109.6 178.2 109.0 178.9 108.4 179.75 106.65 L179.95 107.95 Q179.7 109.35 176.0 113.1 L169.9 118.85 173.95 138.15 Q174.9 136.65 177.45 134.4 179.75 131.9 180.7 127.45 181.5 123.7 181.55 119.05 L181.4 109.35 Q182.6 108.75 183.05 106.25 183.9 101.65 183.85 88.45 183.85 61.8 183.5 53.9 184.95 56.0 184.95 61.9 L184.95 116.4 185.3 128.05 Q185.3 139.55 180.3 140.6 L178.25 141.05 174.6 141.3 173.95 138.15 172.8 140.25 172.05 141.3 168.4 141.4 168.35 142.4 168.05 141.7 168.45 149.75 168.35 153.5 168.25 154.05 167.3 156.15 166.45 156.55 165.35 156.6 162.4 156.85 Q162.0 161.05 162.0 164.6 162.0 169.25 162.3 175.1 162.5 178.2 162.15 178.7 L159.7 179.0 153.35 179.45 152.15 179.4 155.8 167.2 156.0 166.15 Q155.7 170.1 156.25 171.9 156.8 173.75 158.3 173.75 160.1 173.75 160.45 170.95 L160.5 164.65 Q160.5 158.3 159.85 157.6 L154.45 157.05 Q150.85 157.05 149.4 157.8 147.7 158.6 147.7 160.8 L146.3 121.55 151.95 92.8 152.2 91.55 152.2 94.5 Q152.2 141.7 152.0 144.95 L152.2 147.7 152.55 147.95 153.45 148.2 Q155.2 148.2 156.9 141.65 158.9 134.15 158.85 123.65 L158.8 121.65 Q160.65 126.3 161.3 131.6 L161.95 140.15 162.45 146.75 162.55 146.05 162.9 143.4 Q164.2 135.45 165.6 121.5 166.9 108.5 167.15 107.3 L167.35 106.8 167.45 118.75 167.8 112.8 167.95 107.8 Q167.95 105.7 166.95 103.35 168.5 105.1 173.35 106.9 L175.4 106.9 Q175.4 105.45 176.35 100.7 177.3 95.95 177.3 94.05 177.3 91.0 174.9 89.8 172.45 88.6 172.45 84.85 172.45 81.95 173.85 74.1 L175.3 65.9 175.2 72.95 Q175.2 77.25 175.5 80.65 L175.6 82.15 Q177.95 70.0 178.5 62.85 L179.0 52.6 M143.2 167.75 L142.9 168.0 143.25 147.8 Q143.35 137.4 145.7 124.4 L145.7 125.05 144.6 151.7 144.65 160.05 144.85 167.45 143.2 167.75 M129.05 200.5 Q128.7 201.85 127.5 202.7 125.3 204.3 118.65 204.7 122.7 201.05 123.75 199.2 124.75 197.35 124.75 193.8 124.75 190.85 123.75 184.85 122.75 178.8 122.75 175.0 L124.2 164.15 124.65 132.7 Q124.7 124.05 126.85 99.55 L128.7 115.4 Q129.75 125.35 129.75 131.95 L128.75 147.1 Q128.35 155.3 128.25 161.8 L128.2 173.15 Q128.2 181.2 129.05 200.5 M114.65 204.6 L112.35 204.45 110.7 180.25 Q110.1 173.25 110.1 161.0 L110.3 147.55 Q110.4 166.6 112.1 184.3 113.25 196.65 114.65 204.6 M96.9 200.55 L96.9 197.8 95.0 204.8 Q94.15 207.3 91.95 207.3 90.05 207.3 87.9 206.35 L86.55 205.45 Q86.1 203.9 85.0 193.55 84.2 185.9 82.25 184.75 L81.15 186.5 80.2 188.15 79.9 154.0 79.85 155.4 Q78.45 186.55 77.15 198.9 L75.0 212.45 74.95 212.45 70.7 212.05 67.85 212.5 Q65.45 212.55 63.85 206.6 69.9 206.05 70.55 202.6 70.85 201.15 70.7 197.4 L70.45 188.95 70.65 184.25 71.0 183.8 71.4 182.85 Q72.05 187.2 72.5 194.05 72.7 196.45 74.05 198.15 76.25 193.15 76.6 189.3 76.95 185.6 76.95 167.8 76.95 161.9 76.4 156.2 76.05 152.05 75.7 150.65 L76.65 149.45 Q71.75 146.3 69.65 146.3 L66.65 146.95 61.5 147.55 54.2 147.3 Q52.6 147.25 50.05 148.0 L49.7 142.2 51.65 142.5 Q53.25 142.35 55.1 142.5 L61.65 143.0 63.25 142.65 64.85 142.25 69.35 143.65 Q71.05 143.65 74.6 140.9 L75.35 139.3 76.15 136.2 Q76.2 135.55 77.0 132.9 L77.4 131.6 78.4 126.35 79.35 121.35 79.35 111.35 77.8 110.9 65.3 110.3 57.45 110.1 Q56.6 110.1 53.65 111.1 50.85 112.05 49.35 112.8 L49.35 104.1 51.1 105.6 Q52.95 106.65 57.45 107.1 L60.95 107.4 63.95 107.25 Q65.2 106.8 73.45 101.0 76.75 99.35 77.6 94.55 78.35 90.3 78.35 75.3 78.35 69.2 79.85 59.3 81.3 49.4 81.3 46.8 L81.0 43.05 Q80.8 43.05 80.5 42.7 L79.85 41.9 78.2 45.85 78.05 46.05 Q77.4 44.25 77.05 38.4 L76.8 30.7 Q76.8 18.8 78.0 10.05 L79.3 1.2 80.15 2.05 81.0 3.5 81.65 5.2 Q81.95 12.6 84.55 14.9 86.15 16.3 88.9 15.65 L87.65 21.15 Q86.3 27.0 85.85 31.0 85.75 31.0 85.2 32.35 84.35 30.9 83.5 23.85 82.8 17.9 82.55 12.8 L82.25 11.45 Q81.85 12.55 81.85 19.15 L80.9 36.6 80.9 36.7 Q81.1 35.75 81.6 34.95 82.4 33.85 82.95 33.85 85.45 33.85 87.85 44.2 90.4 55.2 89.4 65.65 L89.45 66.6 Q90.7 56.05 90.8 41.95 90.85 27.35 91.8 18.55 L92.65 19.5 94.65 21.55 95.1 21.9 94.3 35.1 Q93.45 48.9 93.45 59.8 L93.55 61.55 Q96.25 56.7 103.9 39.4 102.5 48.3 100.7 53.4 98.4 60.05 95.15 61.55 94.55 63.6 94.35 78.65 95.2 88.75 93.4 95.05 L91.2 99.85 91.0 100.25 91.2 94.25 91.5 70.15 90.2 94.15 Q90.2 100.05 86.3 117.6 82.4 135.15 82.4 137.15 L82.25 139.75 Q82.25 141.55 82.85 141.55 85.35 155.9 86.15 173.95 86.45 180.85 87.55 185.15 L91.2 200.0 Q91.55 193.1 91.55 185.1 L91.3 179.3 Q90.75 174.9 89.25 169.25 L89.65 170.6 89.9 171.5 Q91.95 179.3 92.4 186.3 L92.6 198.65 Q96.65 197.5 96.7 193.4 L96.55 190.2 Q96.55 188.45 97.3 187.55 L99.7 184.7 Q100.25 183.9 100.2 182.7 99.5 177.25 99.5 167.25 99.5 150.2 100.05 137.45 L100.7 125.4 100.7 113.3 101.35 108.95 Q102.0 104.8 102.2 104.2 106.75 91.8 106.75 86.55 L107.3 62.85 Q107.85 38.3 108.15 31.6 108.6 32.0 111.5 32.05 L110.75 39.75 110.05 33.85 109.95 33.4 Q109.7 35.5 109.65 45.1 L109.35 61.55 109.25 62.75 110.55 57.1 110.35 72.4 110.4 77.35 110.35 78.0 110.4 78.7 110.45 78.7 110.5 86.4 Q109.5 109.55 106.5 131.6 104.05 149.6 104.05 169.95 104.05 171.65 104.75 180.55 L105.4 189.35 Q105.4 195.45 103.3 197.55 105.05 197.7 105.8 198.85 106.25 199.55 106.25 200.4 106.25 201.25 105.65 201.85 L104.35 202.65 Q103.35 201.8 101.25 200.85 98.45 199.6 96.95 200.1 L96.9 200.55 M47.85 166.25 Q48.15 168.85 47.5 170.25 L45.8 172.35 Q43.1 175.2 43.0 181.65 42.85 191.1 42.45 195.1 41.9 200.55 40.25 204.9 38.75 204.6 34.05 202.15 29.6 199.8 28.4 198.85 L28.05 198.4 36.35 198.8 36.75 198.8 Q37.2 194.5 37.0 185.95 L36.85 179.85 Q36.85 178.15 37.25 176.45 L39.25 173.45 Q41.05 170.5 41.05 167.5 41.05 163.45 39.7 156.75 38.6 151.4 37.55 148.25 L37.0 146.3 36.0 146.7 35.55 146.95 34.25 149.1 Q34.4 145.75 35.25 140.1 35.95 135.2 35.95 130.4 L35.85 122.3 Q33.95 137.8 32.35 148.1 L33.1 118.6 32.5 110.3 Q31.9 102.5 31.9 94.8 31.9 85.85 32.3 78.45 33.1 65.0 34.95 65.0 35.45 65.0 35.75 64.25 L36.05 62.6 Q36.05 61.15 34.75 56.4 33.1 50.5 32.25 44.35 33.45 41.95 33.6 35.6 L33.95 23.0 38.1 22.9 Q38.0 17.5 42.35 17.55 L42.25 21.55 Q42.25 26.05 42.7 29.55 43.25 33.9 43.5 41.25 43.8 49.65 43.4 62.55 L43.0 74.4 43.05 78.7 43.45 80.45 46.8 53.9 Q50.0 28.2 51.15 20.05 54.4 23.75 53.5 25.7 L52.25 27.85 Q51.35 29.5 51.1 31.5 L49.6 40.05 Q48.85 44.9 48.85 49.8 48.85 71.6 47.6 80.15 47.2 84.7 47.1 93.45 46.95 98.35 45.5 112.35 L43.9 128.2 Q43.25 130.6 43.25 132.7 L43.3 134.6 43.85 130.15 43.85 130.8 Q43.85 139.65 45.3 146.9 47.15 156.15 47.8 164.8 L47.85 166.25 M10.75 113.55 Q10.7 112.55 9.9 111.8 9.0 111.05 7.75 111.05 8.4 105.45 10.8 88.1 L10.85 87.85 10.85 88.55 10.75 113.55 M21.35 46.15 Q22.25 44.8 22.9 44.1 L23.25 43.65 23.25 43.7 23.35 89.4 23.8 86.05 23.55 90.5 25.55 81.5 Q24.6 94.65 23.35 101.9 L19.8 120.2 19.35 122.05 Q19.65 111.85 20.6 111.4 21.4 102.6 21.35 46.15 M164.75 96.4 Q165.55 98.05 165.85 99.9 L166.2 101.85 164.9 99.75 164.75 96.4 M167.8 132.0 L168.0 122.35 Q167.55 123.45 167.8 132.0 M96.2 22.35 L97.65 22.6 97.75 26.5 97.6 29.15 97.3 31.8 96.9 32.65 96.5 32.8 Q96.15 29.45 96.15 27.6 L96.2 22.35 M89.85 122.5 L89.9 127.55 88.15 140.85 87.7 144.05 Q87.05 138.3 88.35 128.05 L89.85 117.95 89.85 122.5 M86.2 180.05 L87.0 204.9 87.4 194.85 87.2 186.25 Q86.95 183.05 86.2 180.05" fill="#898074" fill-rule="evenodd" stroke="none"/>
      <path d="M181.65 53.05 Q182.7 53.25 183.5 53.9 183.85 61.8 183.85 88.45 183.9 101.65 183.05 106.25 182.6 108.75 181.4 109.35 L179.95 107.95 179.7 105.95 180.3 95.5 Q180.9 84.3 180.9 76.6 180.9 72.9 181.65 53.05 M146.25 168.9 L146.2 167.55 145.55 167.5 144.85 167.45 144.65 160.05 144.6 151.7 145.7 125.05 146.1 115.25 146.2 112.2 146.2 115.15 146.3 121.55 147.7 160.8 Q147.85 165.8 147.3 167.65 146.95 168.9 146.25 168.9 M112.35 204.45 L104.7 204.2 99.05 203.75 101.9 203.15 104.35 202.65 105.65 201.85 Q106.25 201.25 106.25 200.4 106.25 199.55 105.8 198.85 105.05 197.7 103.3 197.55 105.4 195.45 105.4 189.35 L104.75 180.55 Q104.05 171.65 104.05 169.95 104.05 149.6 106.5 131.6 109.5 109.55 110.5 86.4 L111.9 74.05 112.2 71.55 112.5 68.8 112.45 70.55 112.4 72.95 112.15 82.15 111.25 97.25 111.5 96.2 111.25 107.1 110.5 132.7 110.35 141.2 110.3 147.55 110.1 161.0 Q110.1 173.25 110.7 180.25 L112.35 204.45 M80.2 188.15 Q79.5 196.8 79.3 201.15 L78.4 212.8 78.25 212.8 75.55 212.55 75.4 212.55 75.0 212.45 77.15 198.9 Q78.45 186.55 79.85 155.4 L79.9 154.0 80.2 188.15 M50.5 162.8 L49.1 164.2 47.95 165.85 47.8 164.8 Q47.15 156.15 45.3 146.9 43.85 139.65 43.85 130.8 L43.85 130.15 43.9 129.85 Q44.2 127.55 43.9 128.2 L45.5 112.35 Q46.95 98.35 47.1 93.45 L48.45 82.65 50.85 63.3 50.4 70.5 49.5 85.4 Q49.35 92.3 49.35 104.1 L49.35 112.8 Q49.4 132.5 49.7 142.2 L50.05 148.0 Q50.55 157.1 50.5 162.8 M23.25 43.65 L24.85 41.6 Q26.05 39.75 26.45 38.45 L26.85 44.05 Q26.85 50.65 25.65 66.0 24.6 79.75 23.8 86.05 L23.35 89.4 23.25 43.7 23.25 43.65 M88.9 15.65 L90.75 16.3 91.8 18.55 Q90.85 27.35 90.8 41.95 90.7 56.05 89.45 66.6 L89.4 65.65 Q90.4 55.2 87.85 44.2 85.45 33.85 82.95 33.85 82.4 33.85 81.6 34.95 81.1 35.75 80.9 36.7 L80.9 36.6 81.85 19.15 Q81.85 12.55 82.25 11.45 L82.55 12.8 Q82.8 17.9 83.5 23.85 84.35 30.9 85.2 32.35 85.75 31.0 85.85 31.0 86.3 27.0 87.65 21.15 L88.9 15.65 M98.5 22.65 L106.4 28.8 106.45 28.9 106.15 31.25 105.05 36.0 103.9 39.4 Q96.25 56.7 93.55 61.55 L93.45 59.8 Q93.45 48.9 94.3 35.1 L95.1 21.9 96.2 22.35 96.15 27.6 Q96.15 29.45 96.5 32.8 L96.9 32.65 97.3 31.8 97.6 29.15 97.75 26.5 97.65 22.6 98.5 22.65 M179.7 105.95 L179.75 106.65 Q178.9 108.4 178.2 109.0 177.5 109.6 175.45 109.6 L173.3 109.4 173.6 109.05 175.5 107.2 175.8 108.05 177.45 107.0 Q179.2 106.0 179.7 105.95 M42.35 17.55 L48.35 17.1 Q49.35 17.1 49.55 17.35 L51.15 20.05 Q50.0 28.2 46.8 53.9 L43.45 80.45 43.05 78.7 43.0 74.4 43.4 62.55 Q43.8 49.65 43.5 41.25 43.25 33.9 42.7 29.55 42.25 26.05 42.25 21.55 L42.35 17.55 M32.35 148.1 Q33.95 137.8 35.85 122.3 L35.95 130.4 Q35.95 135.2 35.25 140.1 34.4 145.75 34.25 149.1 L34.3 150.9 Q34.3 151.95 33.1 155.6 31.6 160.0 29.9 162.2 L29.0 163.1 28.95 161.85 30.55 155.35 32.35 148.1 M87.7 144.05 Q88.05 159.4 88.45 166.65 L89.25 169.25 Q90.75 174.9 91.3 179.3 L91.55 185.1 Q91.55 193.1 91.2 200.0 L87.55 185.15 Q86.45 180.85 86.15 173.95 85.35 155.9 82.85 141.55 82.25 141.55 82.25 139.75 L82.4 137.15 Q82.4 135.15 86.3 117.6 90.2 100.05 90.2 94.15 L91.5 70.15 91.2 94.25 89.85 117.95 88.35 128.05 Q87.05 138.3 87.7 144.05" fill="#635b52" fill-rule="evenodd" stroke="none"/>
    </g>
  </defs>
</svg>
