<?xml version="1.0" encoding="UTF-8" standalone="no"?>
<svg xmlns:xlink="http://www.w3.org/1999/xlink" height="180.1px" width="140.0px" xmlns="http://www.w3.org/2000/svg">
  <g transform="matrix(1.0, 0.0, 0.0, 1.0, 0.0, 0.0)">
    <use height="180.1" id="maincontainer_mc" transform="matrix(1.0, 0.0, 0.0, 1.0, 0.0, 3.4)" width="139.55" xlink:href="#sprite0"/>
  </g>
  <defs>
    <g id="sprite0" transform="matrix(1.0, 0.0, 0.0, 1.0, 8.5, 5.05)">
      <use height="180.1" id="doorContainer_mc" transform="matrix(1.0, 0.0, 0.0, 1.0, -8.5, -5.05)" width="139.55" xlink:href="#sprite1"/>
    </g>
    <g id="sprite1" transform="matrix(1.0, 0.0, 0.0, 1.0, 9.5, 10.05)">
      <use height="180.1" transform="matrix(1.0, 0.0, 0.0, 1.0, -9.5, -10.05)" width="139.55" xlink:href="#sprite2"/>
    </g>
    <g id="sprite2" transform="matrix(1.0, 0.0, 0.0, 1.0, 9.5, 10.05)">
      <use height="180.1" transform="matrix(1.0, 0.0, 0.0, 1.0, -9.5, -10.05)" width="139.55" xlink:href="#sprite3"/>
      <use height="30.55" transform="matrix(1.0, 0.0, 0.0, 1.0, 36.9, 30.6)" width="50.05" xlink:href="#shape1"/>
    </g>
    <g id="sprite3" transform="matrix(1.0, 0.0, 0.0, 1.0, 0.0, 0.0)">
      <use height="180.1" transform="matrix(1.0, 0.0, 0.0, 1.0, 0.0, 0.0)" width="139.55" xlink:href="#shape0"/>
    </g>
    <g id="shape0" transform="matrix(1.0, 0.0, 0.0, 1.0, 0.0, 0.0)">
      <path d="M21.85 172.6 L121.0 172.6 121.0 180.1 21.85 180.1 21.85 172.6" fill="url(#gradient0)" fill-rule="evenodd" stroke="none"/>
      <path d="M116.75 0.0 L139.55 21.85 139.55 178.4 124.55 178.5 120.75 176.5 21.25 176.5 15.55 177.5 1.05 177.4 1.05 21.85 23.85 0.0 116.75 0.0" fill="#213135" fill-rule="evenodd" stroke="none"/>
      <path d="M106.6 14.7 L124.25 34.7 124.25 178.4 120.9 176.4 17.3 176.4 17.3 34.7 34.9 14.7 106.6 14.7" fill="#182426" fill-rule="evenodd" stroke="none"/>
      <path d="M12.6 167.3 L13.75 155.45 13.7 177.4 0.45 177.6 0.0 177.4 0.75 176.6 1.1 142.6 5.45 158.3 6.65 158.1 Q7.9 158.35 8.1 160.45 L8.4 166.2 Q8.65 169.3 9.6 168.45 10.55 167.6 11.65 167.35 L12.6 167.3" fill="#212728" fill-rule="evenodd" stroke="none"/>
      <path d="M126.6 154.3 L127.45 157.05 128.6 161.1 Q128.8 162.05 128.6 163.1 128.7 163.8 130.45 164.1 131.8 164.35 131.95 167.65 132.05 170.8 133.6 170.6 134.45 170.5 134.95 168.65 L135.95 164.95 Q136.5 163.6 136.75 166.15 137.05 169.2 137.45 169.1 138.25 168.95 139.55 165.1 L139.55 178.1 126.5 178.1 126.6 154.3" fill="#212728" fill-rule="evenodd" stroke="none"/>
      <path d="M127.3 98.65 L138.25 98.65 136.1 102.95 Q135.75 100.3 134.45 100.1 134.15 100.05 132.8 100.5 L129.95 100.3 Q129.05 100.0 128.5 101.2 L128.1 102.45 127.3 98.65" fill="#212728" fill-rule="evenodd" stroke="none"/>
      <path d="M130.95 48.3 Q131.25 48.05 131.8 48.5 L134.45 48.8 Q135.75 48.6 135.4 47.2 135.05 45.8 135.55 45.7 136.25 45.55 136.65 46.75 137.0 47.9 137.25 47.8 137.95 47.45 136.8 50.85 L130.45 50.8 128.65 51.0 129.5 49.9 130.95 48.3" fill="#212728" fill-rule="evenodd" stroke="none"/>
      <path d="M46.7 1.6 L25.95 3.15 Q24.8 3.5 26.35 5.65 27.6 7.45 25.6 7.0 22.9 6.4 20.45 7.45 18.2 8.45 18.1 9.85 18.05 10.7 19.45 13.6 20.25 16.1 17.6 16.0 14.95 15.9 13.5 16.85 L9.75 19.35 Q7.4 20.6 4.35 21.0 L1.75 21.15 23.35 0.15 65.75 0.5 46.7 1.6" fill="#212728" fill-rule="evenodd" stroke="none"/>
      <path d="M116.75 0.0 L139.55 21.85 139.55 178.4 123.8 178.4 123.8 34.7 105.85 14.7 32.65 14.7 14.7 34.7 14.7 177.4 1.05 177.4 1.05 21.85 23.85 0.0 116.75 0.0" fill="url(#gradient1)" fill-rule="evenodd" stroke="none"/>
      <path d="M115.75 0.0 L138.55 21.85 138.55 178.4 122.8 176.4 122.8 34.7 104.8 14.7 31.65 14.7 13.7 34.7 13.7 177.4 0.0 177.4 0.0 21.85 22.8 0.0 115.75 0.0" fill="url(#gradient2)" fill-rule="evenodd" stroke="none"/>
      <path d="M104.05 18.25 L120.5 37.75 120.5 176.45 20.6 176.45 20.6 37.75 37.05 18.25 104.05 18.25" fill="#2c3f44" fill-rule="evenodd" stroke="none"/>
      <path d="M111.1 84.6 L29.35 84.6 29.35 76.1 111.1 76.1 111.1 84.6" fill="#5b5640" fill-rule="evenodd" stroke="none"/>
      <path d="M111.1 83.6 L29.35 83.6 29.35 76.1 111.1 76.1 111.1 83.6" fill="#a0976a" fill-rule="evenodd" stroke="none"/>
      <path d="M111.1 76.6 L29.35 76.6 29.35 76.1 111.1 76.1 111.1 76.6" fill="#e2d49a" fill-rule="evenodd" stroke="none"/>
      <path d="M29.35 83.6 L37.35 76.6 45.35 76.6 37.85 83.6 29.35 83.6" fill="#353227" fill-rule="evenodd" stroke="none"/>
      <path d="M47.35 83.6 L55.35 76.6 63.35 76.6 55.85 83.6 47.35 83.6" fill="#353227" fill-rule="evenodd" stroke="none"/>
      <path d="M65.35 83.6 L73.35 76.6 81.35 76.6 73.85 83.6 65.35 83.6" fill="#353227" fill-rule="evenodd" stroke="none"/>
      <path d="M82.35 83.6 L90.35 76.6 98.35 76.6 90.85 83.6 82.35 83.6" fill="#353227" fill-rule="evenodd" stroke="none"/>
      <path d="M111.1 76.6 L111.1 80.6 107.85 83.6 99.35 83.6 107.35 76.6 111.1 76.6" fill="#353227" fill-rule="evenodd" stroke="none"/>
      <path d="M44.1 83.55 L38.65 83.75 41.4 83.25 44.1 83.55" fill="#5b5640" fill-rule="evenodd" stroke="none"/>
      <path d="M35.8 76.45 L35.15 77.1 32.55 76.6 35.8 76.45" fill="#e2d49a" fill-rule="evenodd" stroke="none"/>
      <path d="M78.75 83.0 L82.35 83.6 73.85 83.6 75.95 83.3 78.75 83.0" fill="#847c5d" fill-rule="evenodd" stroke="none"/>
      <path d="M98.35 76.6 L107.35 76.6 106.6 77.25 103.85 76.95 100.8 76.7 98.35 76.6" fill="#847c5d" fill-rule="evenodd" stroke="none"/>
      <path d="M58.05 83.6 L60.8 82.95 62.55 82.8 63.65 80.2 65.55 79.85 64.0 80.55 63.4 83.1 62.05 83.7 58.05 83.6" fill="#5b5640" fill-rule="evenodd" stroke="none"/>
      <path d="M65.25 79.95 L64.15 80.85 63.75 83.2 62.35 83.7 63.4 83.1 64.0 80.55 65.25 79.95" fill="#e2d49a" fill-rule="evenodd" stroke="none"/>
      <path d="M50.15 76.6 L55.35 76.6 52.35 79.25 Q52.6 78.45 52.35 78.45 52.05 78.45 51.5 77.55 L50.85 77.0 50.15 76.6" fill="#847c5d" fill-rule="evenodd" stroke="none"/>
      <path d="M52.35 79.25 L55.35 76.6 63.35 76.6 61.3 77.2 58.9 78.0 57.55 78.45 56.05 78.75 52.35 79.25" fill="#28261e" fill-rule="evenodd" stroke="none"/>
      <path d="M106.6 77.25 L107.35 76.6 111.1 76.6 111.1 80.6 110.55 79.7 109.4 78.25 Q109.2 77.95 107.85 77.6 L106.6 77.25" fill="#28261e" fill-rule="evenodd" stroke="none"/>
      <path d="M98.35 76.6 L93.9 77.1 91.8 76.9 90.35 76.6 98.35 76.6" fill="#28261e" fill-rule="evenodd" stroke="none"/>
      <path d="M86.45 76.6 L87.7 76.6 88.5 77.6 86.6 78.8 87.7 77.7 86.45 76.6" fill="#5b5640" fill-rule="evenodd" stroke="none"/>
      <path d="M87.7 76.6 L88.5 76.6 88.95 77.6 Q88.0 78.1 87.0 78.55 L88.5 77.6 87.7 76.6" fill="#e2d49a" fill-rule="evenodd" stroke="none"/>
      <path d="M72.75 82.35 L73.2 81.75 Q73.8 81.1 74.4 80.8 75.4 80.35 77.8 78.75 L76.65 80.95 73.85 83.6 69.9 83.6 72.75 82.35" fill="#28261e" fill-rule="evenodd" stroke="none"/>
      <path d="M92.0 83.75 L97.75 82.75 99.25 81.5 99.35 83.6 92.0 83.75" fill="#5b5640" fill-rule="evenodd" stroke="none"/>
      <path d="M99.25 81.5 L99.75 82.0 99.35 83.6 99.25 81.5" fill="#e2d49a" fill-rule="evenodd" stroke="none"/>
      <path d="M29.35 76.6 L32.55 76.6 35.15 77.1 31.45 77.3 29.35 76.6" fill="#5b5640" fill-rule="evenodd" stroke="none"/>
      <path d="M104.05 18.25 L120.5 37.75 120.5 176.45 20.6 176.45 20.6 37.75 37.05 18.25 104.05 18.25" fill="url(#gradient3)" fill-rule="evenodd" stroke="none"/>
      <path d="M99.3 25.7 L113.4 44.3 113.4 176.4 111.1 176.4 111.1 46.0 97.65 27.65 42.95 27.65 29.55 46.0 29.55 176.4 27.7 176.4 27.7 44.3 41.8 25.7 99.3 25.7" fill="#1a282b" fill-rule="evenodd" stroke="none"/>
      <path d="M41.25 93.1 L41.25 120.3 27.95 120.3 27.95 93.1 41.25 93.1" fill="#1a282b" fill-rule="evenodd" stroke="none"/>
      <path d="M41.25 157.2 L27.95 157.2 27.95 130.0 41.25 130.0 41.25 157.2" fill="#1a282b" fill-rule="evenodd" stroke="none"/>
      <path d="M38.5 95.05 L38.5 117.85 26.1 117.85 26.1 95.05 38.5 95.05" fill="#2c3f44" fill-rule="evenodd" stroke="none"/>
      <path d="M38.5 131.95 L38.5 154.75 25.65 154.75 25.65 131.95 38.5 131.95" fill="#2c3f44" fill-rule="evenodd" stroke="none"/>
      <path d="M99.05 93.1 L112.35 93.1 112.35 120.3 99.05 120.3 99.05 93.1" fill="#1a282b" fill-rule="evenodd" stroke="none"/>
      <path d="M99.05 130.0 L112.35 130.0 112.35 157.2 99.05 157.2 99.05 130.0" fill="#1a282b" fill-rule="evenodd" stroke="none"/>
      <path d="M101.8 95.05 L114.2 95.05 114.2 117.85 101.8 117.85 101.8 95.05" fill="#2c3f44" fill-rule="evenodd" stroke="none"/>
      <path d="M101.8 131.95 L114.65 131.95 114.65 154.75 101.8 154.75 101.8 131.95" fill="#2c3f44" fill-rule="evenodd" stroke="none"/>
      <path d="M36.1 160.1 L103.6 160.1 103.6 173.1 36.1 173.1 36.1 160.1" fill="#1a282b" fill-rule="evenodd" stroke="none"/>
      <path d="M37.75 161.65 L102.25 161.65 102.25 171.4 37.75 171.4 37.75 161.65" fill="#253438" fill-rule="evenodd" stroke="none"/>
      <path d="M39.2 163.15 L100.85 163.15 100.85 169.7 39.2 169.7 39.2 163.15" fill="#2c3f44" fill-rule="evenodd" stroke="none"/>
      <path d="M127.3 98.65 L127.3 75.25 138.25 75.25 138.25 98.65 127.3 98.65" fill="#4f5656" fill-rule="evenodd" stroke="none"/>
      <path d="M127.7 98.3 L127.7 75.55 137.95 75.55 137.95 98.3 127.7 98.3" fill="#5e6c6d" fill-rule="evenodd" stroke="none"/>
      <path d="M135.1 87.5 Q136.0 87.5 136.65 88.2 137.25 88.95 137.25 89.95 137.25 91.0 136.65 91.75 136.0 92.45 135.1 92.45 134.2 92.45 133.55 91.75 132.9 91.0 132.9 89.95 132.9 88.95 133.55 88.2 134.2 87.5 135.1 87.5" fill="#424949" fill-rule="evenodd" stroke="none"/>
      <path d="M135.25 87.7 Q136.1 87.7 136.65 88.35 137.25 89.05 137.25 90.0 137.25 90.95 136.65 91.6 136.05 92.3 135.25 92.3 134.45 92.3 133.85 91.6 133.25 90.95 133.25 90.0 133.25 89.05 133.85 88.35 134.4 87.7 135.25 87.7" fill="#a3b7b6" fill-rule="evenodd" stroke="none"/>
      <path d="M135.15 87.8 Q135.95 87.8 136.5 88.45 137.05 89.1 137.05 90.0 137.05 90.9 136.5 91.55 135.95 92.15 135.15 92.15 134.35 92.15 133.75 91.55 133.2 90.9 133.2 90.0 133.2 89.1 133.75 88.45 134.35 87.8 135.15 87.8" fill="#5e6c6d" fill-rule="evenodd" stroke="none"/>
      <path d="M135.2 88.25 Q135.85 88.25 136.3 88.75 136.75 89.3 136.75 90.0 L136.3 91.25 Q135.85 91.75 135.2 91.75 134.55 91.75 134.05 91.25 133.6 90.7 133.6 90.0 133.6 89.3 134.05 88.75 134.55 88.25 135.2 88.25" fill="#363d3d" fill-rule="evenodd" stroke="none"/>
      <path d="M135.2 88.4 Q135.75 88.4 136.2 88.85 136.6 89.35 136.6 90.0 136.6 90.65 136.2 91.1 135.75 91.55 135.2 91.55 134.6 91.55 134.2 91.1 133.8 90.65 133.8 90.0 133.8 89.3 134.2 88.85 134.6 88.4 135.2 88.4" fill="#cc4040" fill-rule="evenodd" stroke="none"/>
      <path d="M135.2 88.4 Q135.75 88.4 136.2 88.85 136.6 89.35 136.6 90.0 136.6 90.65 136.2 91.1 135.75 91.55 135.2 91.55 134.6 91.55 134.2 91.1 133.8 90.65 133.8 90.0 133.8 89.3 134.2 88.85 134.6 88.4 135.2 88.4" fill="url(#gradient4)" fill-rule="evenodd" stroke="none"/>
      <path d="M135.4 88.95 Q135.9 88.95 135.9 89.45 135.9 89.9 135.4 89.9 134.95 89.9 134.95 89.45 134.95 88.95 135.4 88.95" fill="#ea5959" fill-rule="evenodd" stroke="none"/>
      <path d="M134.95 92.75 Q135.85 92.75 136.5 93.5 137.1 94.2 137.1 95.25 137.1 96.25 136.5 97.0 135.85 97.7 134.95 97.7 134.05 97.7 133.4 97.0 132.75 96.25 132.75 95.25 132.75 94.2 133.4 93.5 134.05 92.75 134.95 92.75" fill="#424949" fill-rule="evenodd" stroke="none"/>
      <path d="M135.1 92.95 Q135.9 92.95 136.5 93.65 137.1 94.3 137.1 95.25 137.1 96.2 136.5 96.9 135.95 97.55 135.1 97.55 134.25 97.55 133.7 96.9 133.1 96.2 133.1 95.25 133.1 94.3 133.7 93.65 134.3 92.95 135.1 92.95" fill="#a3b7b6" fill-rule="evenodd" stroke="none"/>
      <path d="M134.95 93.1 Q135.75 93.1 136.35 93.75 136.9 94.35 136.9 95.25 136.9 96.15 136.35 96.8 135.75 97.45 134.95 97.45 134.15 97.45 133.6 96.8 133.05 96.15 133.05 95.25 133.05 94.35 133.6 93.75 134.15 93.1 134.95 93.1" fill="#5e6c6d" fill-rule="evenodd" stroke="none"/>
      <path d="M135.0 93.55 Q135.7 93.55 136.15 94.05 136.6 94.55 136.6 95.3 136.6 96.0 136.15 96.55 135.65 97.05 135.0 97.05 134.35 97.05 133.9 96.55 133.45 96.0 133.45 95.3 133.45 94.55 133.9 94.05 134.35 93.55 135.0 93.55" fill="#363d3d" fill-rule="evenodd" stroke="none"/>
      <path d="M135.05 93.7 Q135.6 93.7 136.0 94.15 136.4 94.6 136.4 95.25 136.4 95.9 136.0 96.35 135.6 96.8 135.05 96.8 134.45 96.8 134.05 96.35 133.65 95.9 133.65 95.25 133.65 94.6 134.05 94.15 134.45 93.7 135.05 93.7" fill="#cc4040" fill-rule="evenodd" stroke="none"/>
      <path d="M135.05 93.7 Q135.6 93.7 136.0 94.15 136.4 94.6 136.4 95.25 136.4 95.9 136.0 96.35 135.6 96.8 135.05 96.8 134.45 96.8 134.05 96.35 133.65 95.9 133.65 95.25 133.65 94.6 134.05 94.15 134.45 93.7 135.05 93.7" fill="url(#gradient5)" fill-rule="evenodd" stroke="none"/>
      <path d="M135.25 94.25 Q135.7 94.25 135.7 94.7 135.7 95.2 135.25 95.2 134.8 95.2 134.8 94.7 134.8 94.25 135.25 94.25" fill="#ea5959" fill-rule="evenodd" stroke="none"/>
      <path d="M130.25 92.65 Q131.15 92.65 131.8 93.35 132.4 94.1 132.4 95.1 132.4 96.15 131.8 96.9 131.15 97.6 130.25 97.6 129.35 97.6 128.7 96.9 128.05 96.15 128.05 95.1 128.05 94.1 128.7 93.35 129.35 92.65 130.25 92.65" fill="#424949" fill-rule="evenodd" stroke="none"/>
      <path d="M130.4 92.85 Q131.25 92.85 131.8 93.5 132.4 94.2 132.4 95.15 132.4 96.1 131.8 96.75 131.2 97.45 130.4 97.45 129.6 97.45 129.0 96.75 128.4 96.1 128.4 95.15 128.4 94.2 129.0 93.5 129.55 92.85 130.4 92.85" fill="#a3b7b6" fill-rule="evenodd" stroke="none"/>
      <path d="M130.25 92.95 Q131.05 92.95 131.65 93.6 132.2 94.25 132.2 95.15 132.2 96.05 131.65 96.7 131.05 97.3 130.25 97.3 129.45 97.3 128.9 96.7 128.35 96.05 128.35 95.15 128.35 94.25 128.9 93.6 129.45 92.95 130.25 92.95" fill="#5e6c6d" fill-rule="evenodd" stroke="none"/>
      <path d="M130.3 93.4 Q130.95 93.4 131.45 93.9 131.9 94.45 131.9 95.15 L131.45 96.4 Q130.95 96.9 130.3 96.9 129.65 96.9 129.2 96.4 128.75 95.85 128.75 95.15 128.75 94.45 129.2 93.9 129.65 93.4 130.3 93.4" fill="#363d3d" fill-rule="evenodd" stroke="none"/>
      <path d="M130.35 93.55 Q130.9 93.55 131.35 94.0 131.75 94.5 131.75 95.15 131.75 95.8 131.35 96.25 L130.35 96.7 Q129.75 96.7 129.35 96.25 128.95 95.8 128.95 95.15 128.95 94.45 129.35 94.0 129.75 93.55 130.35 93.55" fill="#cc4040" fill-rule="evenodd" stroke="none"/>
      <path d="M130.35 93.55 Q130.9 93.55 131.35 94.0 131.75 94.5 131.75 95.15 131.75 95.8 131.35 96.25 L130.35 96.7 Q129.75 96.7 129.35 96.25 128.95 95.8 128.95 95.15 128.95 94.45 129.35 94.0 129.75 93.55 130.35 93.55" fill="url(#gradient6)" fill-rule="evenodd" stroke="none"/>
      <path d="M130.55 94.1 Q131.05 94.1 131.05 94.6 131.05 95.05 130.55 95.05 130.1 95.05 130.1 94.6 130.1 94.1 130.55 94.1" fill="#ea5959" fill-rule="evenodd" stroke="none"/>
      <path d="M135.05 81.9 Q135.95 81.9 136.6 82.6 137.2 83.35 137.2 84.35 137.2 85.4 136.6 86.15 135.95 86.85 135.05 86.85 134.15 86.85 133.5 86.15 132.85 85.4 132.85 84.35 132.85 83.35 133.5 82.6 134.15 81.9 135.05 81.9" fill="#424949" fill-rule="evenodd" stroke="none"/>
      <path d="M135.2 82.1 Q136.05 82.1 136.6 82.75 137.2 83.45 137.2 84.4 137.2 85.35 136.6 86.0 136.0 86.7 135.2 86.7 134.4 86.7 133.8 86.0 133.2 85.35 133.2 84.4 133.2 83.45 133.8 82.75 134.35 82.1 135.2 82.1" fill="#a3b7b6" fill-rule="evenodd" stroke="none"/>
      <path d="M135.05 82.2 Q135.85 82.2 136.45 82.85 137.0 83.5 137.0 84.4 137.0 85.3 136.45 85.95 135.85 86.55 135.05 86.55 134.25 86.55 133.7 85.95 133.15 85.3 133.15 84.4 133.15 83.5 133.7 82.85 134.25 82.2 135.05 82.2" fill="#5e6c6d" fill-rule="evenodd" stroke="none"/>
      <path d="M135.1 82.65 Q135.75 82.65 136.25 83.15 136.7 83.7 136.7 84.4 136.7 85.1 136.25 85.65 135.75 86.15 135.1 86.15 134.45 86.15 134.0 85.65 133.55 85.1 133.55 84.4 133.55 83.7 134.0 83.15 134.45 82.65 135.1 82.65" fill="#363d3d" fill-rule="evenodd" stroke="none"/>
      <path d="M135.15 82.8 Q135.7 82.8 136.1 83.25 136.5 83.75 136.5 84.4 136.5 85.05 136.1 85.5 135.7 85.95 135.15 85.95 134.55 85.95 134.15 85.5 133.75 85.05 133.75 84.4 133.75 83.7 134.15 83.25 134.55 82.8 135.15 82.8" fill="#cc4040" fill-rule="evenodd" stroke="none"/>
      <path d="M135.15 82.8 Q135.7 82.8 136.1 83.25 136.5 83.75 136.5 84.4 136.5 85.05 136.1 85.5 135.7 85.95 135.15 85.95 134.55 85.95 134.15 85.5 133.75 85.05 133.75 84.4 133.75 83.7 134.15 83.25 134.55 82.8 135.15 82.8" fill="url(#gradient7)" fill-rule="evenodd" stroke="none"/>
      <path d="M135.35 83.35 Q135.8 83.35 135.8 83.85 L135.35 84.3 Q134.9 84.3 134.9 83.85 134.9 83.35 135.35 83.35" fill="#ea5959" fill-rule="evenodd" stroke="none"/>
      <path d="M129.95 81.85 Q130.95 81.85 131.65 82.6 132.35 83.35 132.35 84.35 132.35 85.35 131.65 86.1 130.95 86.8 129.95 86.8 129.0 86.8 128.3 86.1 127.6 85.35 127.6 84.35 127.6 83.35 128.3 82.6 129.0 81.85 129.95 81.85" fill="#424949" fill-rule="evenodd" stroke="none"/>
      <path d="M130.15 82.05 Q131.05 82.05 131.7 82.75 132.35 83.4 132.35 84.35 132.35 85.3 131.7 86.0 131.05 86.65 130.15 86.65 129.25 86.65 128.6 86.0 127.95 85.3 127.95 84.35 127.95 83.4 128.6 82.75 129.25 82.05 130.15 82.05" fill="#a3b7b6" fill-rule="evenodd" stroke="none"/>
      <path d="M130.0 82.2 Q130.85 82.2 131.5 82.85 132.1 83.45 132.1 84.35 132.1 85.25 131.5 85.9 130.85 86.55 130.0 86.55 129.15 86.55 128.5 85.9 127.9 85.25 127.9 84.35 127.9 83.45 128.5 82.85 129.15 82.2 130.0 82.2" fill="#5e6c6d" fill-rule="evenodd" stroke="none"/>
      <path d="M130.05 82.65 Q130.75 82.65 131.3 83.15 131.8 83.65 131.8 84.4 131.8 85.1 131.3 85.65 130.75 86.15 130.05 86.15 129.35 86.15 128.85 85.65 128.35 85.1 128.35 84.4 128.35 83.65 128.85 83.15 129.35 82.65 130.05 82.65" fill="#363d3d" fill-rule="evenodd" stroke="none"/>
      <path d="M130.05 82.8 Q130.7 82.8 131.15 83.25 131.6 83.7 131.6 84.35 L131.15 85.5 Q130.7 85.95 130.05 85.95 129.45 85.95 129.0 85.5 128.55 85.0 128.55 84.35 128.55 83.7 129.0 83.25 129.45 82.8 130.05 82.8" fill="#cc4040" fill-rule="evenodd" stroke="none"/>
      <path d="M130.05 82.8 Q130.7 82.8 131.15 83.25 131.6 83.7 131.6 84.35 L131.15 85.5 Q130.7 85.95 130.05 85.95 129.45 85.95 129.0 85.5 128.55 85.0 128.55 84.35 128.55 83.7 129.0 83.25 129.45 82.8 130.05 82.8" fill="url(#gradient8)" fill-rule="evenodd" stroke="none"/>
      <path d="M130.3 83.35 Q130.8 83.35 130.8 83.8 130.8 84.3 130.3 84.3 129.8 84.3 129.8 83.8 129.8 83.35 130.3 83.35" fill="#ea5959" fill-rule="evenodd" stroke="none"/>
      <path d="M130.0 87.45 Q130.9 87.45 131.55 88.15 132.2 88.9 132.2 89.9 132.2 90.95 131.55 91.7 130.9 92.4 130.0 92.4 129.1 92.4 128.5 91.7 127.85 90.95 127.85 89.9 127.85 88.9 128.5 88.15 129.1 87.45 130.0 87.45" fill="#424949" fill-rule="evenodd" stroke="none"/>
      <path d="M130.2 87.65 Q131.05 87.65 131.6 88.3 132.2 89.0 132.2 89.95 132.2 90.9 131.6 91.55 131.0 92.25 130.2 92.25 129.35 92.25 128.75 91.55 128.15 90.9 128.15 89.95 128.15 89.0 128.75 88.3 129.35 87.65 130.2 87.65" fill="#a3b7b6" fill-rule="evenodd" stroke="none"/>
      <path d="M130.05 87.75 Q130.85 87.75 131.4 88.4 132.0 89.05 132.0 89.95 132.0 90.85 131.4 91.5 130.85 92.1 130.05 92.1 129.25 92.1 128.7 91.5 128.1 90.85 128.1 89.95 128.1 89.05 128.7 88.4 129.25 87.75 130.05 87.75" fill="#5e6c6d" fill-rule="evenodd" stroke="none"/>
      <path d="M130.1 88.2 Q130.75 88.2 131.25 88.7 131.7 89.25 131.7 89.95 L131.25 91.2 Q130.75 91.7 130.1 91.7 129.45 91.7 128.95 91.2 128.5 90.65 128.5 89.95 128.5 89.25 128.95 88.7 129.45 88.2 130.1 88.2" fill="#363d3d" fill-rule="evenodd" stroke="none"/>
      <path d="M130.1 88.35 Q130.7 88.35 131.1 88.8 131.5 89.25 131.5 89.95 131.5 90.6 131.1 91.05 130.7 91.5 130.1 91.5 129.55 91.5 129.1 91.05 128.7 90.6 128.7 89.95 128.7 89.3 129.1 88.8 129.55 88.35 130.1 88.35" fill="#cc4040" fill-rule="evenodd" stroke="none"/>
      <path d="M130.1 88.35 Q130.7 88.35 131.1 88.8 131.5 89.25 131.5 89.95 131.5 90.6 131.1 91.05 130.7 91.5 130.1 91.5 129.55 91.5 129.1 91.05 128.7 90.6 128.7 89.95 128.7 89.3 129.1 88.8 129.55 88.35 130.1 88.35" fill="url(#gradient9)" fill-rule="evenodd" stroke="none"/>
      <path d="M130.35 88.9 Q130.8 88.9 130.8 89.4 L130.35 89.85 Q129.9 89.85 129.9 89.4 129.9 88.9 130.35 88.9" fill="#ea5959" fill-rule="evenodd" stroke="none"/>
      <path d="M137.95 75.7 L137.95 98.25 137.7 98.25 137.7 75.7 137.95 75.7" fill="#96a7a8" fill-rule="evenodd" stroke="none"/>
      <path d="M136.4 80.8 L128.75 80.8 128.75 76.3 136.4 76.3 136.4 80.8" fill="#363d3d" fill-rule="evenodd" stroke="none"/>
      <path d="M136.4 80.4 L129.1 80.4 129.1 76.3 136.4 76.3 136.4 80.4" fill="#000000" fill-rule="evenodd" stroke="none"/>
      <path d="M136.45 81.05 L128.7 81.05 128.7 80.8 136.45 80.8 136.45 81.05" fill="#96a7a8" fill-rule="evenodd" stroke="none"/>
      <path d="M127.45 75.2 L138.25 75.25 137.95 75.55 127.55 75.5 127.45 75.2" fill="#96a7a8" fill-rule="evenodd" stroke="none"/>
      <path d="M127.3 98.65 L127.7 98.25 137.95 98.25 138.25 98.65 127.3 98.65" fill="#363d3d" fill-rule="evenodd" stroke="none"/>
      <path d="M106.6 14.7 L104.3 18.15 37.3 18.15 34.9 14.7 106.6 14.7" fill="#111819" fill-rule="evenodd" stroke="none"/>
      <path d="M121.45 37.6 L104.3 18.15 106.6 14.7 124.25 34.7 121.45 37.6" fill="#141e1e" fill-rule="evenodd" stroke="none"/>
      <path d="M34.9 14.7 L37.3 18.15 20.85 37.7 17.3 34.7 34.9 14.7" fill="#141e1e" fill-rule="evenodd" stroke="none"/>
      <path d="M99.3 25.7 L97.65 27.65 42.95 27.65 41.8 25.7 99.3 25.7" fill="#111819" fill-rule="evenodd" stroke="none"/>
      <path d="M42.95 27.65 L29.55 46.0 27.7 44.3 41.8 25.7 42.95 27.65" fill="#141e1e" fill-rule="evenodd" stroke="none"/>
      <path d="M99.3 25.7 L113.4 44.3 111.1 46.0 97.65 27.65 99.3 25.7" fill="#141e1e" fill-rule="evenodd" stroke="none"/>
      <path d="M99.05 93.1 L110.6 93.35 112.85 94.85 101.8 95.05 99.05 93.1" fill="#223638" fill-rule="evenodd" stroke="none"/>
      <path d="M38.5 95.05 L27.85 94.6 30.35 92.6 41.25 93.1 38.5 95.05" fill="#223638" fill-rule="evenodd" stroke="none"/>
      <path d="M99.6 130.45 L110.95 130.3 113.25 131.95 101.8 131.95 99.6 130.45" fill="#223638" fill-rule="evenodd" stroke="none"/>
      <path d="M38.5 131.95 L27.6 131.95 29.75 130.1 41.25 130.0 38.5 131.95" fill="#223638" fill-rule="evenodd" stroke="none"/>
      <path d="M101.8 117.85 L113.1 118.3 111.45 120.3 99.05 120.3 101.8 117.85" fill="#141e1e" fill-rule="evenodd" stroke="none"/>
      <path d="M28.1 118.1 L38.5 117.85 41.25 120.3 29.6 120.6 28.1 118.1" fill="#141e1e" fill-rule="evenodd" stroke="none"/>
      <path d="M28.1 155.3 L38.5 154.75 41.25 157.2 29.25 157.45 28.1 155.3" fill="#141e1e" fill-rule="evenodd" stroke="none"/>
      <path d="M101.8 154.75 L113.25 154.95 111.25 157.45 98.6 157.25 101.8 154.75" fill="#141e1e" fill-rule="evenodd" stroke="none"/>
      <path d="M39.6 162.15 L36.1 160.1 103.6 160.1 100.1 162.15 39.6 162.15" fill="#141e1e" fill-rule="evenodd" stroke="none"/>
      <path d="M36.1 173.1 L39.6 170.6 100.1 170.6 103.6 173.1 36.1 173.1" fill="#223638" fill-rule="evenodd" stroke="none"/>
      <path d="M39.2 163.3 L37.75 161.75 102.25 161.75 100.85 163.3 39.2 163.3" fill="#32474c" fill-rule="evenodd" stroke="none"/>
      <path d="M37.75 171.4 L39.2 169.7 100.85 169.7 102.25 171.4 37.75 171.4" fill="#192426" fill-rule="evenodd" stroke="none"/>
      <path d="M38.65 163.15 L100.5 163.15 100.5 163.75 38.65 163.75 38.65 163.15" fill="#527580" fill-rule="evenodd" stroke="none"/>
      <path d="M38.1 95.6 L27.85 95.6 27.85 94.6 38.1 94.6 38.1 95.6" fill="#527580" fill-rule="evenodd" stroke="none"/>
      <path d="M112.1 96.1 L101.85 96.1 101.85 95.1 112.1 95.1 112.1 96.1" fill="#527580" fill-rule="evenodd" stroke="none"/>
      <path d="M38.45 132.95 L28.2 132.95 28.2 131.95 38.45 131.95 38.45 132.95" fill="#527580" fill-rule="evenodd" stroke="none"/>
      <path d="M112.1 133.1 L101.85 133.1 101.85 132.1 112.1 132.1 112.1 133.1" fill="#527580" fill-rule="evenodd" stroke="none"/>
      <path d="M104.35 19.15 L37.3 19.15 37.3 18.15 104.35 18.15 104.35 19.15" fill="#527580" fill-rule="evenodd" stroke="none"/>
      <path d="M20.85 37.7 L37.3 18.15 37.85 18.9 20.85 37.7" fill="#527580" fill-rule="evenodd" stroke="none"/>
      <path d="M103.65 18.15 L120.1 37.7 103.1 18.9 103.65 18.15" fill="#527580" fill-rule="evenodd" stroke="none"/>
      <path d="M20.4 37.1 L21.3 37.1 21.3 176.4 20.4 176.4 20.4 37.1" fill="#141e1e" fill-rule="evenodd" stroke="none"/>
      <path d="M120.4 37.35 L121.3 37.35 121.3 176.65 120.4 176.65 120.4 37.35" fill="#141e1e" fill-rule="evenodd" stroke="none"/>
      <path d="M22.6 168.8 Q23.0 169.75 23.75 169.6 L24.45 169.3 24.55 171.1 Q24.75 173.0 25.25 173.6 L27.7 176.4 21.3 176.4 21.45 163.1 21.8 165.4 22.6 168.8" fill="#282f30" fill-rule="evenodd" stroke="none"/>
      <path d="M38.5 154.75 L28.1 154.8 27.95 167.45 Q26.1 159.6 26.45 157.8 27.25 154.3 27.25 153.1 27.25 151.5 27.5 150.3 27.9 148.45 28.75 149.1 29.25 149.45 30.1 151.35 30.75 152.8 31.75 152.6 33.6 152.3 38.5 154.75" fill="#282f30" fill-rule="evenodd" stroke="none"/>
      <path d="M29.55 163.75 L29.75 160.3 29.7 165.85 Q29.55 165.0 29.55 163.75 M29.7 165.85 Q29.9 167.3 30.6 167.45 L32.6 167.65 Q33.45 167.75 33.75 168.45 L34.1 171.2 Q34.25 173.1 34.95 173.1 L37.75 173.7 Q39.7 174.3 40.45 174.8 L47.5 175.2 54.95 174.95 59.4 175.05 60.95 175.45 65.45 175.55 68.25 175.3 Q68.6 174.7 71.95 174.15 L76.1 173.8 84.2 174.6 92.45 175.3 94.3 174.55 98.1 174.3 103.5 174.75 106.75 174.45 Q107.35 174.25 108.1 172.9 L109.1 170.95 109.9 168.7 Q110.35 167.1 110.1 166.6 109.9 166.2 110.65 164.35 L111.45 162.6 111.1 176.4 29.55 176.4 29.7 165.85" fill="#282f30" fill-rule="evenodd" stroke="none"/>
      <path d="M118.95 160.55 Q118.6 158.05 118.75 157.3 L119.4 153.3 119.75 150.45 119.75 176.4 113.25 176.4 113.25 167.1 113.75 169.5 Q114.45 172.0 115.25 172.3 116.1 172.6 116.55 171.3 L117.25 168.6 Q117.5 167.85 117.7 168.85 118.0 170.45 118.6 170.6 119.25 170.8 119.15 168.05 L119.1 163.95 Q119.3 163.1 118.95 160.55" fill="#282f30" fill-rule="evenodd" stroke="none"/>
      <path d="M102.1 149.8 Q103.6 150.6 104.25 150.1 104.6 149.85 104.75 151.5 105.5 153.4 108.6 153.8 L113.25 154.75 102.1 154.75 102.1 149.8" fill="#282f30" fill-rule="evenodd" stroke="none"/>
      <path d="M21.95 54.45 L21.8 60.8 Q21.65 66.5 21.95 67.8 22.25 69.1 22.15 73.45 L21.95 79.1 22.75 99.8 22.3 114.95 Q21.75 128.75 21.45 129.95 21.1 131.2 21.7 137.1 22.25 142.65 22.6 143.6 22.8 144.15 22.25 146.7 L21.6 149.95 21.1 164.8 21.1 38.45 Q21.75 53.1 21.95 54.45" fill="#282f30" fill-rule="evenodd" stroke="none"/>
      <path d="M28.1 118.1 L28.2 132.95 30.95 133.1 29.65 133.3 Q28.25 133.55 27.95 133.95 27.5 134.5 26.65 134.35 25.7 134.15 25.6 133.1 25.55 132.35 26.3 131.25 27.05 130.15 26.95 129.3 26.8 128.1 27.25 122.8 L27.25 118.6 27.1 115.8 Q29.75 116.8 30.95 116.1 31.65 115.7 35.15 116.75 L38.5 117.85 28.1 118.1" fill="#282f30" fill-rule="evenodd" stroke="none"/>
      <path d="M101.8 117.85 Q106.75 115.95 108.45 114.95 L110.35 114.8 111.95 115.6 113.6 115.45 115.25 114.95 Q115.95 114.85 115.15 116.45 L114.1 118.6 113.45 125.6 113.1 118.3 101.8 117.85" fill="#282f30" fill-rule="evenodd" stroke="none"/>
      <path d="M101.75 97.8 L102.35 98.25 Q103.0 98.7 103.45 98.8 103.85 98.9 103.3 100.5 L102.45 102.8 Q102.2 103.55 102.75 106.6 102.95 107.45 101.75 110.95 L101.75 97.8" fill="#282f30" fill-rule="evenodd" stroke="none"/>
      <path d="M26.75 88.05 L27.6 86.45 27.6 95.6 33.95 95.6 31.7 96.35 Q29.3 97.2 28.6 97.6 L27.0 99.55 Q26.15 100.75 25.75 99.95 L25.1 98.2 Q24.95 97.4 25.45 96.95 25.75 96.65 25.2 95.45 24.6 94.15 24.95 93.45 L26.2 91.65 Q26.85 90.8 26.45 90.3 26.0 89.75 26.75 88.05" fill="#282f30" fill-rule="evenodd" stroke="none"/>
      <path d="M120.45 38.95 L120.45 152.8 Q118.75 139.45 119.25 137.1 119.6 135.6 119.5 133.65 L119.25 131.45 118.7 129.2 Q118.3 127.4 118.6 127.1 L119.45 126.45 Q119.9 126.0 119.75 125.3 L119.4 120.0 Q119.2 115.25 119.45 112.95 119.6 110.95 118.5 108.05 117.4 105.25 117.45 104.8 117.55 104.05 118.65 103.1 L119.6 101.95 Q119.45 101.35 119.4 96.3 119.35 91.0 119.6 89.3 L120.0 83.5 Q120.05 79.35 119.6 77.3 118.95 74.3 118.95 66.6 119.75 53.45 119.6 52.3 L118.95 46.1 120.45 38.95" fill="#282f30" fill-rule="evenodd" stroke="none"/>
      <path d="M40.55 23.95 L42.75 24.35 47.15 24.7 50.95 25.35 41.8 25.7 27.95 44.3 27.95 54.6 26.25 51.8 Q25.9 51.2 26.05 49.6 L26.45 47.1 Q26.65 46.45 26.15 45.2 L25.6 43.6 Q25.6 43.2 28.5 40.15 L31.75 36.8 34.0 34.35 Q35.9 32.15 35.75 31.85 35.6 31.4 36.35 30.1 37.1 28.65 37.95 28.15 38.6 27.8 38.5 25.85 L38.6 23.65 40.55 23.95" fill="#282f30" fill-rule="evenodd" stroke="none"/>
      <path d="M89.45 24.0 L92.45 23.8 97.1 23.35 Q97.5 23.25 98.55 23.8 L100.1 24.35 Q100.5 24.35 102.95 26.7 105.45 29.05 106.45 29.15 107.5 29.25 107.7 32.2 107.95 35.45 108.1 35.6 L111.0 39.65 Q113.6 43.15 114.45 42.95 115.25 42.75 114.75 44.45 L113.95 46.8 113.25 51.45 113.4 44.3 99.3 25.7 61.45 25.65 70.1 24.0 73.55 24.15 77.6 24.65 89.45 24.0" fill="#282f30" fill-rule="evenodd" stroke="none"/>
      <path d="M35.45 71.6 Q37.9 72.65 42.0 73.5 45.65 74.2 45.95 74.45 46.75 75.1 52.25 76.1 L29.35 76.1 29.35 66.95 31.95 71.3 33.3 71.3 35.45 71.6" fill="#282f30" fill-rule="evenodd" stroke="none"/>
      <path d="M82.25 86.1 L78.0 86.2 74.1 85.95 69.05 85.2 65.25 84.8 111.1 84.8 111.1 92.6 Q110.75 87.45 109.6 87.45 L108.5 87.25 107.6 86.45 103.45 86.3 Q102.75 86.5 100.95 87.35 99.65 87.95 99.1 87.8 L98.3 86.7 Q97.9 85.95 96.75 86.1 L93.6 86.2 90.45 85.95 86.45 85.95 82.25 86.1" fill="#282f30" fill-rule="evenodd" stroke="none"/>
      <path d="M40.15 85.65 Q38.35 85.9 37.75 86.6 37.3 87.15 35.2 87.0 L32.25 86.95 Q31.45 87.15 30.5 88.75 30.05 89.55 29.75 90.3 L29.75 85.45 51.25 84.8 43.1 85.6 40.15 85.65" fill="#282f30" fill-rule="evenodd" stroke="none"/>
      <path d="M108.05 72.9 Q109.0 72.15 109.45 71.95 110.25 71.6 111.1 69.1 L111.1 76.1 77.45 75.45 80.7 75.15 85.1 74.95 88.45 75.45 91.45 75.3 93.1 73.85 Q94.1 73.0 94.6 73.1 98.25 74.0 101.9 74.3 L106.45 74.1 108.05 72.9" fill="#282f30" fill-rule="evenodd" stroke="none"/>
      <path d="M84.6 30.3 L76.75 30.5 Q75.75 30.3 74.75 29.65 74.05 29.15 72.25 29.15 70.6 29.15 68.7 29.85 L66.6 30.15 Q64.4 29.35 62.05 29.55 L58.95 30.0 Q58.1 30.1 57.65 29.35 L56.95 28.5 54.6 28.55 52.1 28.85 50.6 28.55 49.75 28.15 47.15 28.5 Q44.5 28.9 44.1 29.35 L41.6 32.15 36.45 36.3 42.95 27.65 97.65 27.65 105.95 39.6 Q100.1 32.0 98.75 31.65 L96.3 30.75 94.45 30.0 84.6 30.3" fill="#282f30" fill-rule="evenodd" stroke="none"/>
      <path d="M41.65 111.9 Q42.25 113.9 42.75 114.45 43.3 115.0 43.3 116.45 L43.25 118.45 42.85 119.8 Q42.65 120.7 43.45 121.3 44.25 121.95 43.05 122.2 L38.6 122.95 Q37.45 123.2 34.6 120.3 L40.75 120.3 41.1 109.95 41.65 111.9" fill="#282f30" fill-rule="evenodd" stroke="none"/>
      <path d="M78.95 158.45 L82.4 159.3 85.95 159.8 Q86.75 159.7 95.25 159.9 L103.6 160.1 37.45 160.45 43.3 159.7 50.25 159.1 Q57.05 160.0 59.45 159.3 L62.8 158.1 66.95 157.6 Q68.8 157.8 69.3 158.7 L69.75 159.3 Q70.45 158.95 71.6 156.95 L72.35 158.05 Q73.2 159.1 73.95 159.1 L76.45 158.65 78.95 158.45" fill="#282f30" fill-rule="evenodd" stroke="none"/>
      <path d="M97.25 130.6 Q97.75 130.6 99.45 128.1 L104.25 129.3 110.95 130.3 98.95 130.0 98.95 153.3 97.6 147.3 97.3 145.7 97.25 144.8 96.45 143.6 98.1 141.6 Q98.45 141.15 98.35 138.15 L97.95 134.45 97.3 132.15 Q96.9 130.6 97.25 130.6" fill="#282f30" fill-rule="evenodd" stroke="none"/>
      <path d="M41.45 127.8 L42.05 128.7 Q42.7 129.9 43.75 129.6 44.85 129.3 43.9 130.9 L42.45 133.3 Q42.25 133.95 41.7 140.95 L41.25 147.8 41.25 130.8 37.45 129.95 Q41.1 128.3 41.45 127.8" fill="#282f30" fill-rule="evenodd" stroke="none"/>
      <path d="M104.45 93.1 L99.05 93.1 99.05 107.1 Q97.6 104.1 97.6 102.6 L97.65 100.4 97.6 98.3 Q97.45 96.85 97.45 94.65 97.4 91.95 97.75 91.6 98.0 91.35 98.85 91.8 99.8 92.3 100.45 92.1 L102.25 91.55 103.6 91.6 Q104.1 92.1 104.45 93.1" fill="#282f30" fill-rule="evenodd" stroke="none"/>
      <path d="M92.15 159.05 Q91.6 159.55 91.1 159.45 90.55 159.35 90.35 158.4 L90.25 157.45 89.1 157.1 Q89.25 155.8 89.55 155.25 90.0 154.3 91.1 153.95 91.95 153.7 92.15 151.8 92.3 150.0 92.95 149.95 93.9 149.85 95.25 151.85 96.6 153.85 95.95 154.1 95.5 154.3 96.15 156.25 96.75 158.05 96.25 157.8 L94.4 157.75 Q93.45 157.95 92.95 158.3 92.7 158.45 92.15 159.05" fill="#282f30" fill-rule="evenodd" stroke="none"/>
      <path d="M68.25 169.1 L78.45 168.3 Q79.45 168.0 82.25 168.25 L85.75 168.6 89.75 168.25 93.1 167.8 94.65 168.05 96.95 168.3 Q97.9 168.2 98.35 167.0 L98.6 165.8 98.75 169.3 68.25 169.1" fill="#282f30" fill-rule="evenodd" stroke="none"/>
      <path d="M126.5 39.6 L126.5 176.1 124.45 176.1 124.45 39.6 126.5 39.6" fill="#caffff" fill-rule="evenodd" stroke="none"/>
      <path d="M16.25 39.35 L16.25 175.85 14.2 175.85 14.2 39.35 16.25 39.35" fill="#caffff" fill-rule="evenodd" stroke="none"/>
      <path d="M104.35 12.45 L36.35 12.45 36.35 10.6 104.35 10.6 104.35 12.45" fill="#caffff" fill-rule="evenodd" stroke="none"/>
      <path d="M12.3 53.55 Q13.6 34.7 15.55 34.7 17.45 34.7 18.75 53.55 20.1 73.0 20.1 103.15 20.1 133.9 18.75 155.7 17.45 177.45 15.55 177.45 13.65 177.45 12.3 155.7 10.95 133.95 10.95 103.15 10.95 72.95 12.3 53.55" fill="url(#gradient10)" fill-rule="evenodd" stroke="none"/>
      <path d="M122.6 54.3 Q123.6 34.95 125.25 34.95 126.95 34.95 128.25 54.3 129.6 74.55 129.6 103.85 129.6 134.0 128.45 155.4 127.25 176.75 125.6 176.75 123.95 176.75 122.8 155.4 121.6 134.0 121.6 103.85 121.6 73.45 122.6 54.3" fill="url(#gradient11)" fill-rule="evenodd" stroke="none"/>
      <path d="M95.0 8.75 Q105.75 9.9 105.75 11.5 105.75 13.1 95.0 14.25 L69.1 15.35 43.2 14.25 Q32.45 13.1 32.45 11.5 32.45 9.9 43.2 8.75 L69.1 7.6 95.0 8.75" fill="url(#gradient12)" fill-rule="evenodd" stroke="none"/>
      <path d="M128.65 50.95 L136.8 50.85 138.3 54.95 138.3 69.25 136.95 72.4 128.7 72.4 126.7 68.55 126.7 55.3 128.65 50.95" fill="#505b5b" fill-rule="evenodd" stroke="none"/>
      <path d="M128.95 51.45 L136.55 51.3 137.95 55.2 137.95 68.85 136.65 71.85 128.95 71.85 127.05 68.2 127.05 55.55 128.95 51.45" fill="#5e6c6d" fill-rule="evenodd" stroke="none"/>
      <path d="M129.0 52.75 L136.4 52.8 137.35 56.0 137.35 68.0 136.4 70.5 129.15 70.5 127.85 67.1 127.85 56.0 129.0 52.75" fill="#3f4949" fill-rule="evenodd" stroke="none"/>
      <path d="M129.15 52.85 L136.35 52.95 137.25 55.7 137.25 67.3 136.35 69.75 129.35 69.75 128.1 66.4 128.1 55.85 129.15 52.85" fill="#000000" fill-rule="evenodd" stroke="none"/>
      <path d="M128.65 50.95 L136.8 50.85 136.5 51.5 128.75 51.5 128.65 50.95" fill="#829393" fill-rule="evenodd" stroke="none"/>
      <path d="M136.5 51.5 L136.8 50.85 138.3 54.95 137.95 55.05 136.5 51.5" fill="#748687" fill-rule="evenodd" stroke="none"/>
      <path d="M126.7 55.3 L126.7 55.05 128.65 50.95 128.85 51.55 127.05 55.55 126.7 55.3" fill="#748687" fill-rule="evenodd" stroke="none"/>
      <path d="M128.65 72.7 L128.95 71.85 136.65 71.85 136.9 72.7 128.65 72.7" fill="#363d3d" fill-rule="evenodd" stroke="none"/>
      <path d="M137.95 68.85 L138.3 69.25 136.9 72.7 136.65 71.85 137.95 68.85" fill="#444c4c" fill-rule="evenodd" stroke="none"/>
      <path d="M126.7 68.55 L127.05 68.2 128.95 71.85 128.65 72.7 126.7 68.55" fill="#444c4c" fill-rule="evenodd" stroke="none"/>
      <path d="M128.95 51.45 L136.55 51.3 136.5 51.5 128.85 51.55 128.95 51.45" fill="#a3b7b6" fill-rule="evenodd" stroke="none"/>
      <path d="M127.85 67.1 L129.15 70.5 136.4 70.5 137.35 68.0 136.45 70.7 129.05 70.85 127.85 67.1" fill="#a3b7b6" fill-rule="evenodd" stroke="none"/>
      <path d="M129.7 67.75 L129.25 67.75 129.25 58.3 129.7 58.3 129.7 67.75" fill="#ffe783" fill-rule="evenodd" stroke="none"/>
      <path d="M131.3 67.8 L130.75 67.8 130.75 58.4 131.3 58.4 131.3 67.8" fill="#ffe783" fill-rule="evenodd" stroke="none"/>
      <path d="M135.5 59.95 L132.4 59.95 132.4 58.75 135.5 58.75 135.5 59.95" fill="#b9e07c" fill-rule="evenodd" stroke="none"/>
      <path d="M135.65 56.75 L129.8 56.75 129.8 55.55 135.65 55.55 135.65 56.75" fill="#ffe783" fill-rule="evenodd" stroke="none"/>
      <path d="M135.5 63.2 L132.4 63.2 132.4 62.0 135.5 62.0 135.5 63.2" fill="#b9e07c" fill-rule="evenodd" stroke="none"/>
      <path d="M135.5 67.2 L132.4 67.2 132.4 66.0 135.5 66.0 135.5 67.2" fill="#b9e07c" fill-rule="evenodd" stroke="none"/>
      <path d="M131.0 63.1 Q131.0 66.6 130.65 69.05 130.3 71.55 129.8 71.55 129.3 71.55 128.95 69.05 128.6 66.6 128.6 63.1 128.6 59.6 128.95 57.1 129.3 54.65 129.8 54.65 130.3 54.65 130.65 57.1 131.0 59.6 131.0 63.1" fill="url(#gradient13)" fill-rule="evenodd" stroke="none"/>
      <path d="M132.25 63.1 Q132.25 66.6 131.9 69.05 131.55 71.55 131.05 71.55 130.55 71.55 130.2 69.05 129.85 66.6 129.85 63.1 129.85 59.6 130.2 57.1 130.55 54.65 131.05 54.65 131.55 54.65 131.9 57.1 132.25 59.6 132.25 63.1" fill="url(#gradient14)" fill-rule="evenodd" stroke="none"/>
      <path d="M132.5 58.5 Q130.55 58.5 129.2 57.8 127.8 57.05 127.8 56.0 127.8 54.95 129.2 54.2 130.55 53.45 132.5 53.45 134.4 53.45 135.8 54.2 137.15 54.95 137.15 56.0 137.15 57.05 135.8 57.8 134.4 58.5 132.5 58.5" fill="url(#gradient15)" fill-rule="evenodd" stroke="none"/>
      <path d="M136.0 59.45 Q136.0 60.5 135.4 61.25 134.75 61.95 133.85 61.95 132.95 61.95 132.35 61.25 131.7 60.5 131.7 59.45 131.7 58.35 132.35 57.65 132.95 56.9 133.85 56.9 134.75 56.9 135.4 57.65 136.0 58.35 136.0 59.45" fill="url(#gradient16)" fill-rule="evenodd" stroke="none"/>
      <path d="M135.75 62.45 Q135.75 63.5 135.15 64.25 134.5 65.0 133.6 65.0 132.75 65.0 132.1 64.25 131.5 63.5 131.5 62.45 131.5 61.4 132.1 60.65 132.75 59.9 133.6 59.9 134.5 59.9 135.15 60.65 135.75 61.4 135.75 62.45" fill="url(#gradient17)" fill-rule="evenodd" stroke="none"/>
      <path d="M135.8 66.7 Q135.8 67.75 135.2 68.5 134.55 69.25 133.7 69.25 132.8 69.25 132.2 68.5 131.55 67.75 131.55 66.7 131.55 65.65 132.2 64.9 132.8 64.15 133.7 64.15 134.55 64.15 135.2 64.9 135.8 65.65 135.8 66.7" fill="url(#gradient18)" fill-rule="evenodd" stroke="none"/>
    </g>
    <radialGradient cx="0" cy="0" gradientTransform="matrix(0.0565, 0.0, 0.0, -0.0034, 71.45, 175.7)" gradientUnits="userSpaceOnUse" id="gradient0" r="819.2" spreadMethod="pad">
      <stop offset="0.0" stop-color="#000000" stop-opacity="0.6784314"/>
      <stop offset="1.0" stop-color="#000000" stop-opacity="0.0"/>
    </radialGradient>
    <linearGradient gradientTransform="matrix(0.0876, 0.0, 0.0, -0.0876, 70.25, 89.2)" gradientUnits="userSpaceOnUse" id="gradient1" spreadMethod="pad" x1="-819.2" x2="819.2">
      <stop offset="0.0" stop-color="#000000" stop-opacity="0.50980395"/>
      <stop offset="0.07450980392156863" stop-color="#000000" stop-opacity="0.0"/>
      <stop offset="0.9372549019607843" stop-color="#000000" stop-opacity="0.0"/>
      <stop offset="1.0" stop-color="#000000" stop-opacity="0.50980395"/>
    </linearGradient>
    <linearGradient gradientTransform="matrix(0.0, 0.1001, 0.1001, 0.0, 69.3, 77.2)" gradientUnits="userSpaceOnUse" id="gradient2" spreadMethod="pad" x1="-819.2" x2="819.2">
      <stop offset="0.0" stop-color="#000000" stop-opacity="0.50980395"/>
      <stop offset="0.07450980392156863" stop-color="#000000" stop-opacity="0.0"/>
    </linearGradient>
    <linearGradient gradientTransform="matrix(0.0, 0.0992, 0.0992, 0.0, 70.55, 94.4)" gradientUnits="userSpaceOnUse" id="gradient3" spreadMethod="pad" x1="-819.2" x2="819.2">
      <stop offset="0.0" stop-color="#000000" stop-opacity="0.4"/>
      <stop offset="0.12156862745098039" stop-color="#000000" stop-opacity="0.13725491"/>
      <stop offset="0.7803921568627451" stop-color="#000000" stop-opacity="0.0"/>
    </linearGradient>
    <radialGradient cx="0" cy="0" gradientTransform="matrix(0.0, -0.0045, 0.0041, 0.0, 135.2, 90.0)" gradientUnits="userSpaceOnUse" id="gradient4" r="819.2" spreadMethod="pad">
      <stop offset="0.1450980392156863" stop-color="#130c0e" stop-opacity="0.0"/>
      <stop offset="0.4980392156862745" stop-color="#130c0e" stop-opacity="0.6509804"/>
      <stop offset="0.6235294117647059" stop-color="#130c0e" stop-opacity="0.9490196"/>
    </radialGradient>
    <radialGradient cx="0" cy="0" gradientTransform="matrix(0.0, -0.0046, 0.0041, 0.0, 135.05, 95.25)" gradientUnits="userSpaceOnUse" id="gradient5" r="819.2" spreadMethod="pad">
      <stop offset="0.1450980392156863" stop-color="#130c0e" stop-opacity="0.0"/>
      <stop offset="0.4980392156862745" stop-color="#130c0e" stop-opacity="0.6509804"/>
      <stop offset="0.6235294117647059" stop-color="#130c0e" stop-opacity="0.9490196"/>
    </radialGradient>
    <radialGradient cx="0" cy="0" gradientTransform="matrix(0.0, -0.0046, 0.0041, 0.0, 130.35, 95.15)" gradientUnits="userSpaceOnUse" id="gradient6" r="819.2" spreadMethod="pad">
      <stop offset="0.1450980392156863" stop-color="#130c0e" stop-opacity="0.0"/>
      <stop offset="0.4980392156862745" stop-color="#130c0e" stop-opacity="0.6509804"/>
      <stop offset="0.6235294117647059" stop-color="#130c0e" stop-opacity="0.9490196"/>
    </radialGradient>
    <radialGradient cx="0" cy="0" gradientTransform="matrix(0.0, -0.0046, 0.0041, 0.0, 135.15, 84.4)" gradientUnits="userSpaceOnUse" id="gradient7" r="819.2" spreadMethod="pad">
      <stop offset="0.1450980392156863" stop-color="#130c0e" stop-opacity="0.0"/>
      <stop offset="0.4980392156862745" stop-color="#130c0e" stop-opacity="0.6509804"/>
      <stop offset="0.6235294117647059" stop-color="#130c0e" stop-opacity="0.9490196"/>
    </radialGradient>
    <radialGradient cx="0" cy="0" gradientTransform="matrix(0.0, -0.0046, 0.0045, 0.0, 130.05, 84.35)" gradientUnits="userSpaceOnUse" id="gradient8" r="819.2" spreadMethod="pad">
      <stop offset="0.1450980392156863" stop-color="#130c0e" stop-opacity="0.0"/>
      <stop offset="0.4980392156862745" stop-color="#130c0e" stop-opacity="0.6509804"/>
      <stop offset="0.6235294117647059" stop-color="#130c0e" stop-opacity="0.9490196"/>
    </radialGradient>
    <radialGradient cx="0" cy="0" gradientTransform="matrix(0.0, -0.0046, 0.0041, 0.0, 130.1, 89.95)" gradientUnits="userSpaceOnUse" id="gradient9" r="819.2" spreadMethod="pad">
      <stop offset="0.1450980392156863" stop-color="#130c0e" stop-opacity="0.0"/>
      <stop offset="0.4980392156862745" stop-color="#130c0e" stop-opacity="0.6509804"/>
      <stop offset="0.6235294117647059" stop-color="#130c0e" stop-opacity="0.9490196"/>
    </radialGradient>
    <radialGradient cx="0" cy="0" gradientTransform="matrix(-0.0105, 0.0, 0.0, -0.2091, 15.55, 106.05)" gradientUnits="userSpaceOnUse" id="gradient10" r="819.2" spreadMethod="pad">
      <stop offset="0.0" stop-color="#caffff" stop-opacity="0.84705883"/>
      <stop offset="0.011764705882352941" stop-color="#c6f9f9" stop-opacity="0.8235294"/>
      <stop offset="0.11372549019607843" stop-color="#a0c6c7" stop-opacity="0.6313726"/>
      <stop offset="0.2196078431372549" stop-color="#7e9a9a" stop-opacity="0.4627451"/>
      <stop offset="0.32941176470588235" stop-color="#627474" stop-opacity="0.32156864"/>
      <stop offset="0.44313725490196076" stop-color="#4b5556" stop-opacity="0.20392157"/>
      <stop offset="0.5607843137254902" stop-color="#393d3e" stop-opacity="0.11372549"/>
      <stop offset="0.6862745098039216" stop-color="#2d2c2d" stop-opacity="0.047058824"/>
      <stop offset="0.8235294117647058" stop-color="#252223" stop-opacity="0.011764706"/>
      <stop offset="0.9921568627450981" stop-color="#231f20" stop-opacity="0.0"/>
    </radialGradient>
    <radialGradient cx="0" cy="0" gradientTransform="matrix(-0.0093, 0.0, 0.0, -0.2071, 125.6, 105.85)" gradientUnits="userSpaceOnUse" id="gradient11" r="819.2" spreadMethod="pad">
      <stop offset="0.0" stop-color="#caffff" stop-opacity="0.84705883"/>
      <stop offset="0.011764705882352941" stop-color="#c6f9f9" stop-opacity="0.8235294"/>
      <stop offset="0.11372549019607843" stop-color="#a0c6c7" stop-opacity="0.6313726"/>
      <stop offset="0.2196078431372549" stop-color="#7e9a9a" stop-opacity="0.4627451"/>
      <stop offset="0.32941176470588235" stop-color="#627474" stop-opacity="0.32156864"/>
      <stop offset="0.44313725490196076" stop-color="#4b5556" stop-opacity="0.20392157"/>
      <stop offset="0.5607843137254902" stop-color="#393d3e" stop-opacity="0.11372549"/>
      <stop offset="0.6862745098039216" stop-color="#2d2c2d" stop-opacity="0.047058824"/>
      <stop offset="0.8235294117647058" stop-color="#252223" stop-opacity="0.011764706"/>
      <stop offset="0.9921568627450981" stop-color="#231f20" stop-opacity="0.0"/>
    </radialGradient>
    <radialGradient cx="0" cy="0" gradientTransform="matrix(0.0, -0.0093, 0.1066, 0.0, 69.1, 11.5)" gradientUnits="userSpaceOnUse" id="gradient12" r="819.2" spreadMethod="pad">
      <stop offset="0.0" stop-color="#caffff" stop-opacity="0.84705883"/>
      <stop offset="0.011764705882352941" stop-color="#c6f9f9" stop-opacity="0.8235294"/>
      <stop offset="0.11372549019607843" stop-color="#a0c6c7" stop-opacity="0.6313726"/>
      <stop offset="0.2196078431372549" stop-color="#7e9a9a" stop-opacity="0.4627451"/>
      <stop offset="0.32941176470588235" stop-color="#627474" stop-opacity="0.32156864"/>
      <stop offset="0.44313725490196076" stop-color="#4b5556" stop-opacity="0.20392157"/>
      <stop offset="0.5607843137254902" stop-color="#393d3e" stop-opacity="0.11372549"/>
      <stop offset="0.6862745098039216" stop-color="#2d2c2d" stop-opacity="0.047058824"/>
      <stop offset="0.8235294117647058" stop-color="#252223" stop-opacity="0.011764706"/>
      <stop offset="0.9921568627450981" stop-color="#231f20" stop-opacity="0.0"/>
    </radialGradient>
    <radialGradient cx="0" cy="0" gradientTransform="matrix(0.0028, 0.0, 0.0, -0.0241, 129.8, 63.1)" gradientUnits="userSpaceOnUse" id="gradient13" r="819.2" spreadMethod="pad">
      <stop offset="0.03529411764705882" stop-color="#fff3c0" stop-opacity="0.49803922"/>
      <stop offset="0.0392156862745098" stop-color="#fdf1be" stop-opacity="0.49411765"/>
      <stop offset="0.13725490196078433" stop-color="#cac09a" stop-opacity="0.3764706"/>
      <stop offset="0.23921568627450981" stop-color="#9e9579" stop-opacity="0.2784314"/>
      <stop offset="0.34509803921568627" stop-color="#78715e" stop-opacity="0.19215687"/>
      <stop offset="0.4588235294117647" stop-color="#595347" stop-opacity="0.12156863"/>
      <stop offset="0.5725490196078431" stop-color="#413c36" stop-opacity="0.06666667"/>
      <stop offset="0.6941176470588235" stop-color="#302c2a" stop-opacity="0.02745098"/>
      <stop offset="0.8274509803921568" stop-color="#262222" stop-opacity="0.003921569"/>
      <stop offset="0.9921568627450981" stop-color="#231f20" stop-opacity="0.0"/>
    </radialGradient>
    <radialGradient cx="0" cy="0" gradientTransform="matrix(0.0028, 0.0, 0.0, -0.0241, 131.05, 63.1)" gradientUnits="userSpaceOnUse" id="gradient14" r="819.2" spreadMethod="pad">
      <stop offset="0.03529411764705882" stop-color="#fff3c0" stop-opacity="0.49803922"/>
      <stop offset="0.0392156862745098" stop-color="#fdf1be" stop-opacity="0.49411765"/>
      <stop offset="0.13725490196078433" stop-color="#cac09a" stop-opacity="0.3764706"/>
      <stop offset="0.23921568627450981" stop-color="#9e9579" stop-opacity="0.2784314"/>
      <stop offset="0.34509803921568627" stop-color="#78715e" stop-opacity="0.19215687"/>
      <stop offset="0.4588235294117647" stop-color="#595347" stop-opacity="0.12156863"/>
      <stop offset="0.5725490196078431" stop-color="#413c36" stop-opacity="0.06666667"/>
      <stop offset="0.6941176470588235" stop-color="#302c2a" stop-opacity="0.02745098"/>
      <stop offset="0.8274509803921568" stop-color="#262222" stop-opacity="0.003921569"/>
      <stop offset="0.9921568627450981" stop-color="#231f20" stop-opacity="0.0"/>
    </radialGradient>
    <radialGradient cx="0" cy="0" gradientTransform="matrix(0.0, 0.0059, 0.0133, 0.0, 132.5, 56.0)" gradientUnits="userSpaceOnUse" id="gradient15" r="819.2" spreadMethod="pad">
      <stop offset="0.03529411764705882" stop-color="#fff3c0" stop-opacity="0.49803922"/>
      <stop offset="0.0392156862745098" stop-color="#fdf1be" stop-opacity="0.49411765"/>
      <stop offset="0.13725490196078433" stop-color="#cac09a" stop-opacity="0.3764706"/>
      <stop offset="0.23921568627450981" stop-color="#9e9579" stop-opacity="0.2784314"/>
      <stop offset="0.34509803921568627" stop-color="#78715e" stop-opacity="0.19215687"/>
      <stop offset="0.4588235294117647" stop-color="#595347" stop-opacity="0.12156863"/>
      <stop offset="0.5725490196078431" stop-color="#413c36" stop-opacity="0.06666667"/>
      <stop offset="0.6941176470588235" stop-color="#302c2a" stop-opacity="0.02745098"/>
      <stop offset="0.8274509803921568" stop-color="#262222" stop-opacity="0.003921569"/>
      <stop offset="0.9921568627450981" stop-color="#231f20" stop-opacity="0.0"/>
    </radialGradient>
    <radialGradient cx="0" cy="0" gradientTransform="matrix(0.007, 0.0, 0.0, -0.0102, 133.85, 59.45)" gradientUnits="userSpaceOnUse" id="gradient16" r="819.2" spreadMethod="pad">
      <stop offset="0.0" stop-color="#b9e07c" stop-opacity="0.49803922"/>
      <stop offset="0.058823529411764705" stop-color="#a4c56f" stop-opacity="0.42745098"/>
      <stop offset="0.16862745098039217" stop-color="#829a5a" stop-opacity="0.3137255"/>
      <stop offset="0.28627450980392155" stop-color="#657448" stop-opacity="0.21568628"/>
      <stop offset="0.40784313725490196" stop-color="#4d553a" stop-opacity="0.13725491"/>
      <stop offset="0.5333333333333333" stop-color="#3a3d2e" stop-opacity="0.07450981"/>
      <stop offset="0.6666666666666666" stop-color="#2d2c26" stop-opacity="0.03137255"/>
      <stop offset="0.8117647058823529" stop-color="#252222" stop-opacity="0.007843138"/>
      <stop offset="0.9921568627450981" stop-color="#231f20" stop-opacity="0.0"/>
    </radialGradient>
    <radialGradient cx="0" cy="0" gradientTransform="matrix(0.007, 0.0, 0.0, -0.0102, 133.6, 62.45)" gradientUnits="userSpaceOnUse" id="gradient17" r="819.2" spreadMethod="pad">
      <stop offset="0.0" stop-color="#b9e07c" stop-opacity="0.49803922"/>
      <stop offset="0.058823529411764705" stop-color="#a4c56f" stop-opacity="0.42745098"/>
      <stop offset="0.16862745098039217" stop-color="#829a5a" stop-opacity="0.3137255"/>
      <stop offset="0.28627450980392155" stop-color="#657448" stop-opacity="0.21568628"/>
      <stop offset="0.40784313725490196" stop-color="#4d553a" stop-opacity="0.13725491"/>
      <stop offset="0.5333333333333333" stop-color="#3a3d2e" stop-opacity="0.07450981"/>
      <stop offset="0.6666666666666666" stop-color="#2d2c26" stop-opacity="0.03137255"/>
      <stop offset="0.8117647058823529" stop-color="#252222" stop-opacity="0.007843138"/>
      <stop offset="0.9921568627450981" stop-color="#231f20" stop-opacity="0.0"/>
    </radialGradient>
    <radialGradient cx="0" cy="0" gradientTransform="matrix(0.007, 0.0, 0.0, -0.0102, 133.7, 66.7)" gradientUnits="userSpaceOnUse" id="gradient18" r="819.2" spreadMethod="pad">
      <stop offset="0.0" stop-color="#b9e07c" stop-opacity="0.49803922"/>
      <stop offset="0.058823529411764705" stop-color="#a4c56f" stop-opacity="0.42745098"/>
      <stop offset="0.16862745098039217" stop-color="#829a5a" stop-opacity="0.3137255"/>
      <stop offset="0.28627450980392155" stop-color="#657448" stop-opacity="0.21568628"/>
      <stop offset="0.40784313725490196" stop-color="#4d553a" stop-opacity="0.13725491"/>
      <stop offset="0.5333333333333333" stop-color="#3a3d2e" stop-opacity="0.07450981"/>
      <stop offset="0.6666666666666666" stop-color="#2d2c26" stop-opacity="0.03137255"/>
      <stop offset="0.8117647058823529" stop-color="#252222" stop-opacity="0.007843138"/>
      <stop offset="0.9921568627450981" stop-color="#231f20" stop-opacity="0.0"/>
    </radialGradient>
    <g id="shape1" transform="matrix(1.0, 0.0, 0.0, 1.0, -36.9, -30.6)">
      <path d="M67.4 33.5 L58.2 33.5 58.2 42.75 48.95 42.75 48.95 52.05 48.9 52.05 48.9 52.1 39.7 52.1 39.7 61.15 37.85 61.15 37.85 50.15 47.0 50.15 47.0 40.85 47.05 40.85 47.05 40.8 56.25 40.8 56.25 31.55 67.4 31.55 67.4 33.5" fill="#99bcbc" fill-rule="evenodd" stroke="none"/>
      <path d="M66.5 32.55 L57.25 32.55 57.25 41.85 48.05 41.85 48.05 51.1 48.0 51.1 48.0 51.15 38.75 51.15 38.75 60.25 36.9 60.25 36.9 49.2 46.1 49.2 46.1 39.9 55.3 39.9 55.3 30.6 66.5 30.6 66.5 32.55" fill="url(#gradient19)" fill-rule="evenodd" stroke="none"/>
      <path d="M69.75 46.65 L75.25 46.65 75.25 35.3 80.7 35.3 80.7 46.65 86.2 46.65 78.05 55.45 69.75 46.65" fill="#99bcbc" fill-rule="evenodd" stroke="none"/>
      <path d="M70.5 47.4 L76.0 47.4 76.0 36.05 81.45 36.05 81.45 47.4 86.95 47.4 78.8 56.2 70.5 47.4" fill="url(#gradient20)" fill-rule="evenodd" stroke="none"/>
    </g>
    <radialGradient cx="0" cy="0" gradientTransform="matrix(0.0181, 0.0, 0.0, -0.0181, 51.7, 45.4)" gradientUnits="userSpaceOnUse" id="gradient19" r="819.2" spreadMethod="pad">
      <stop offset="0.0" stop-color="#70b3b5"/>
      <stop offset="0.9647058823529412" stop-color="#4f7371"/>
    </radialGradient>
    <radialGradient cx="0" cy="0" gradientTransform="matrix(-0.0112, 0.0, 0.0, 0.0112, 78.75, 46.15)" gradientUnits="userSpaceOnUse" id="gradient20" r="819.2" spreadMethod="pad">
      <stop offset="0.0" stop-color="#70b3b5"/>
      <stop offset="0.9647058823529412" stop-color="#4f7371"/>
    </radialGradient>
  </defs>
</svg>
