<?xml version="1.0" encoding="UTF-8" standalone="no"?>
<svg xmlns:xlink="http://www.w3.org/1999/xlink" height="500.0px" width="150.0px" xmlns="http://www.w3.org/2000/svg">
  <g transform="matrix(1.0, 0.0, 0.0, 1.0, 0.0, 0.0)">
    <use height="500.0" transform="matrix(1.0, 0.0, 0.0, 1.0, 0.0, 0.0)" width="150.0" xlink:href="#shape0"/>
    <use height="144.0" transform="matrix(1.0, 0.0, 0.0, 1.0, 20.2, 319.2)" width="38.65" xlink:href="#sprite0"/>
    <use height="169.65" transform="matrix(1.0, 0.0, 0.0, 1.0, 90.0, 171.35)" width="41.35" xlink:href="#sprite1"/>
    <use height="165.35" transform="matrix(1.0, 0.0, 0.0, 1.0, 22.2, 37.5)" width="37.85" xlink:href="#sprite2"/>
    <use height="94.0" transform="matrix(1.0, 0.0, 0.0, 1.0, 106.65, 9.35)" width="28.5" xlink:href="#sprite3"/>
  </g>
  <defs>
    <g id="shape0" transform="matrix(1.0, 0.0, 0.0, 1.0, 0.0, 0.0)">
      <path d="M150.0 0.0 L150.0 500.0 0.0 500.0 0.0 0.0 150.0 0.0" fill="#c8c786" fill-rule="evenodd" stroke="none"/>
    </g>
    <g id="sprite0" transform="matrix(1.0, 0.0, 0.0, 1.0, 0.0, 0.0)">
      <use height="144.0" transform="matrix(1.0, 0.0, 0.0, 1.0, 0.0, 0.0)" width="38.65" xlink:href="#shape1"/>
    </g>
    <g id="shape1" transform="matrix(1.0, 0.0, 0.0, 1.0, 0.0, 0.0)">
      <path d="M28.3 8.65 L38.65 86.65 17.65 79.3 20.65 144.0 2.0 124.0 5.0 76.3 23.0 68.65 22.0 42.0 23.3 4.0 28.3 8.65" fill="#c3c299" fill-rule="evenodd" stroke="none"/>
      <path d="M26.0 5.0 L35.0 83.0 16.0 76.0 18.0 138.0 2.0 122.0 0.0 47.0 14.0 57.0 11.0 30.0 22.0 36.0 19.0 0.0 26.0 5.0" fill="#bbba7f" fill-rule="evenodd" stroke="none"/>
      <path d="M25.3 7.3 L32.65 79.3 14.3 73.3 16.0 132.65 3.65 122.3 4.3 112.3 10.3 116.65 8.65 88.65 12.0 90.0 11.3 65.3 19.0 69.0 19.0 51.0 23.3 51.3 25.0 71.65 27.65 72.0 22.65 5.65 25.3 7.3" fill="#cfcea2" fill-rule="evenodd" stroke="none"/>
    </g>
    <g id="sprite1" transform="matrix(1.0, 0.0, 0.0, 1.0, 0.0, 0.0)">
      <use height="169.65" transform="matrix(1.0, 0.0, 0.0, 1.0, 0.0, 0.0)" width="41.35" xlink:href="#shape2"/>
    </g>
    <g id="shape2" transform="matrix(1.0, 0.0, 0.0, 1.0, 0.0, 0.0)">
      <path d="M25.35 52.65 L32.35 15.0 41.35 76.35 27.35 75.65 26.35 116.35 15.0 115.65 11.65 169.65 1.0 159.35 5.0 103.35 17.0 97.0 12.35 56.65 25.35 52.65" fill="#c3c299" fill-rule="evenodd" stroke="none"/>
      <path d="M32.0 14.0 L38.0 74.0 25.0 73.0 24.0 110.0 12.0 110.0 9.0 162.0 0.0 156.0 0.0 94.0 11.0 92.0 4.0 48.0 17.0 49.0 Q15.5 44.75 14.9 40.4 13.65 31.65 18.0 31.0 22.4 30.4 24.65 34.15 25.75 36.0 26.0 38.0 L23.0 0.0 32.0 14.0" fill="#bbba7f" fill-rule="evenodd" stroke="none"/>
      <path d="M26.35 8.65 L30.0 13.65 35.35 70.35 24.0 71.0 22.35 107.65 9.35 106.35 7.0 158.35 2.65 153.0 4.35 97.0 15.65 96.0 11.0 53.0 14.65 53.0 16.0 60.65 20.35 62.65 18.65 46.0 23.65 45.35 27.0 59.65 30.35 59.65 26.35 8.65" fill="#cfcea2" fill-rule="evenodd" stroke="none"/>
    </g>
    <g id="sprite2" transform="matrix(1.0, 0.0, 0.0, 1.0, 0.0, 0.0)">
      <use height="165.35" transform="matrix(1.0, 0.0, 0.0, 1.0, 0.0, 0.0)" width="37.85" xlink:href="#shape3"/>
    </g>
    <g id="shape3" transform="matrix(1.0, 0.0, 0.0, 1.0, 0.0, 0.0)">
      <path d="M37.8 38.1 Q38.1 63.75 35.5 76.7 32.9 89.6 28.2 91.1 L25.2 90.85 24.0 90.0 23.15 91.2 Q22.15 92.85 21.3 95.2 18.5 102.75 18.3 114.5 18.1 126.3 20.3 147.0 L22.5 165.35 0.0 165.0 12.5 74.2 25.15 66.0 37.0 15.0 Q37.65 25.25 37.8 38.1" fill="#c3c299" fill-rule="evenodd" stroke="none"/>
      <path d="M37.0 15.0 Q37.5 32.75 36.25 50.5 33.75 86.0 25.0 86.0 16.25 86.0 16.25 124.0 16.25 143.0 18.0 162.0 L0.0 165.0 1.0 58.0 19.0 64.0 14.0 41.0 28.0 40.0 29.0 0.0 37.0 15.0" fill="#bbba7f" fill-rule="evenodd" stroke="none"/>
      <path d="M25.3 43.0 L26.65 69.7 Q28.05 61.55 29.25 49.9 31.7 26.65 30.65 9.35 L35.65 16.35 35.5 38.5 Q34.8 62.5 32.3 71.7 29.8 80.85 24.8 84.2 22.3 85.85 20.3 85.7 L18.7 87.0 Q16.95 89.55 16.3 96.0 15.3 106.35 15.3 160.0 L4.0 163.0 7.3 74.0 11.3 75.0 12.05 86.25 12.2 84.85 Q12.95 79.5 17.3 78.7 L24.3 77.35 20.0 45.35 25.3 43.0" fill="#cfcea2" fill-rule="evenodd" stroke="none"/>
    </g>
    <g id="sprite3" transform="matrix(1.0, 0.0, 0.0, 1.0, 0.0, 0.0)">
      <use height="94.0" transform="matrix(1.0, 0.0, 0.0, 1.0, 0.0, 0.0)" width="28.5" xlink:href="#shape4"/>
    </g>
    <g id="shape4" transform="matrix(1.0, 0.0, 0.0, 1.0, 0.0, 0.0)">
      <path d="M22.0 0.0 Q23.5 4.65 25.05 10.9 28.2 23.4 28.5 31.5 28.8 39.8 24.5 43.9 23.05 45.3 20.7 46.55 L17.15 48.35 10.0 52.5 13.35 86.5 2.0 94.0 4.35 38.65 19.5 24.15 22.0 0.0" fill="#c3c299" fill-rule="evenodd" stroke="none"/>
      <path d="M22.0 0.0 Q24.25 9.25 25.5 18.9 28.0 38.15 23.0 40.0 18.0 41.9 12.5 47.15 9.75 49.75 8.0 52.0 L9.0 86.0 2.0 94.0 0.0 34.0 14.0 24.0 16.0 4.0 22.0 0.0" fill="#bbba7f" fill-rule="evenodd" stroke="none"/>
      <path d="M21.0 4.65 Q22.4 11.1 23.35 18.15 25.3 32.35 23.0 35.65 20.7 39.0 12.95 45.35 9.1 48.5 5.65 51.0 L7.35 85.65 3.65 89.0 3.35 43.0 Q5.5 42.15 8.3 40.35 13.9 36.65 17.0 31.65 20.15 26.65 19.9 15.65 19.75 10.15 19.0 5.65 L21.0 4.65" fill="#cfcea2" fill-rule="evenodd" stroke="none"/>
    </g>
  </defs>
</svg>
