<?xml version="1.0" encoding="UTF-8" standalone="no"?>
<svg xmlns:xlink="http://www.w3.org/1999/xlink" height="15.25px" width="20.35px" xmlns="http://www.w3.org/2000/svg">
  <g transform="matrix(1.0, 0.0, 0.0, 1.0, 0.0, 0.0)">
    <use height="2.25" transform="matrix(1.0, 0.0, 0.0, 1.0, 3.0, 13.0)" width="10.85" xlink:href="#sprite0"/>
    <use height="14.75" transform="matrix(1.0, 0.0, 0.0, 1.0, 0.0, 0.0)" width="20.35" xlink:href="#shape1"/>
    <use height="6.85" transform="matrix(1.0, 0.0, 0.0, 1.0, 10.6, 6.65)" width="6.6" xlink:href="#sprite1"/>
    <use height="3.2" transform="matrix(1.0, 0.0, 0.0, 1.0, 12.1, 10.8)" width="5.95" xlink:href="#sprite2"/>
    <use height="5.75" transform="matrix(1.0, 0.0, 0.0, 1.0, 9.4, 7.75)" width="1.4" xlink:href="#sprite3"/>
    <use height="5.75" transform="matrix(1.0, 0.0, 0.0, 1.0, 7.35, 6.6)" width="1.6" xlink:href="#sprite4"/>
    <use height="10.05" transform="matrix(1.0, 0.0, 0.0, 1.0, 3.05, 3.15)" width="4.55" xlink:href="#sprite5"/>
    <use height="7.05" transform="matrix(1.0, 0.0, 0.0, 1.0, 1.3, 6.0)" width="4.4" xlink:href="#sprite6"/>
  </g>
  <defs>
    <g id="sprite0" transform="matrix(1.0, 0.0, 0.0, 1.0, 0.0, 0.0)">
      <use height="2.25" transform="matrix(1.0, 0.0, 0.0, 1.0, 0.0, 0.0)" width="10.85" xlink:href="#shape0"/>
    </g>
    <g id="shape0" transform="matrix(1.0, 0.0, 0.0, 1.0, 0.0, 0.0)">
      <path d="M10.85 1.45 L5.15 2.25 3.25 1.1 2.0 1.35 0.0 1.1 1.75 0.2 5.6 0.0 10.85 1.45" fill="#36262c" fill-rule="evenodd" stroke="none"/>
    </g>
    <g id="shape1" transform="matrix(1.0, 0.0, 0.0, 1.0, 0.0, 0.0)">
      <path d="M6.85 4.55 L9.15 11.9 11.45 5.0 10.3 12.8 20.35 3.2 11.65 13.25 19.65 9.95 12.35 14.15 10.3 14.15 8.45 14.75 6.3 13.5 4.9 13.95 4.1 12.55 0.0 3.9 5.7 12.1 1.6 0.0 7.8 13.0 6.85 4.55" fill="#a48476" fill-rule="evenodd" stroke="none"/>
    </g>
    <g id="sprite1" transform="matrix(1.0, 0.0, 0.0, 1.0, 0.0, 0.0)">
      <use height="6.85" transform="matrix(1.0, 0.0, 0.0, 1.0, 0.0, 0.0)" width="6.6" xlink:href="#shape2"/>
    </g>
    <g id="shape2" transform="matrix(1.0, 0.0, 0.0, 1.0, 0.0, 0.0)">
      <path d="M0.0 6.7 L6.6 0.0 0.5 6.85 0.65 6.4 0.0 6.7" fill="#787b68" fill-rule="evenodd" stroke="none"/>
    </g>
    <g id="sprite2" transform="matrix(1.0, 0.0, 0.0, 1.0, 0.0, 0.0)">
      <use height="3.2" transform="matrix(1.0, 0.0, 0.0, 1.0, 0.0, 0.0)" width="5.95" xlink:href="#shape3"/>
    </g>
    <g id="shape3" transform="matrix(1.0, 0.0, 0.0, 1.0, 0.0, 0.0)">
      <path d="M0.0 2.75 L5.95 0.0 0.15 3.2 0.0 2.75" fill="#787b68" fill-rule="evenodd" stroke="none"/>
    </g>
    <g id="sprite3" transform="matrix(1.0, 0.0, 0.0, 1.0, 0.0, 0.0)">
      <use height="5.75" transform="matrix(1.0, 0.0, 0.0, 1.0, 0.0, 0.0)" width="1.4" xlink:href="#shape4"/>
    </g>
    <g id="shape4" transform="matrix(1.0, 0.0, 0.0, 1.0, 0.0, 0.0)">
      <path d="M0.0 5.75 L1.4 0.0 0.45 5.7 0.0 5.75" fill="#787b68" fill-rule="evenodd" stroke="none"/>
    </g>
    <g id="sprite4" transform="matrix(1.0, 0.0, 0.0, 1.0, 0.0, 0.0)">
      <use height="5.75" transform="matrix(1.0, 0.0, 0.0, 1.0, 0.0, 0.0)" width="1.6" xlink:href="#shape5"/>
    </g>
    <g id="shape5" transform="matrix(1.0, 0.0, 0.0, 1.0, 0.0, 0.0)">
      <path d="M0.95 5.75 L0.0 0.0 1.6 5.6 0.95 5.75" fill="#787b68" fill-rule="evenodd" stroke="none"/>
    </g>
    <g id="sprite5" transform="matrix(1.0, 0.0, 0.0, 1.0, 0.0, 0.0)">
      <use height="10.05" transform="matrix(1.0, 0.0, 0.0, 1.0, 0.0, 0.0)" width="4.55" xlink:href="#shape6"/>
    </g>
    <g id="shape6" transform="matrix(1.0, 0.0, 0.0, 1.0, 0.0, 0.0)">
      <path d="M3.95 9.55 L0.0 0.0 4.55 10.05 3.95 9.55" fill="#787b68" fill-rule="evenodd" stroke="none"/>
    </g>
    <g id="sprite6" transform="matrix(1.0, 0.0, 0.0, 1.0, 0.0, 0.0)">
      <use height="7.05" transform="matrix(1.0, 0.0, 0.0, 1.0, 0.0, 0.0)" width="4.4" xlink:href="#shape7"/>
    </g>
    <g id="shape7" transform="matrix(1.0, 0.0, 0.0, 1.0, 0.0, 0.0)">
      <path d="M3.95 7.05 L0.0 0.0 4.4 6.45 3.9 6.3 3.95 7.05" fill="#787b68" fill-rule="evenodd" stroke="none"/>
    </g>
  </defs>
</svg>
