<?xml version="1.0" encoding="UTF-8" standalone="no"?>
<svg xmlns:xlink="http://www.w3.org/1999/xlink" height="39.85px" width="64.8px" xmlns="http://www.w3.org/2000/svg">
  <g transform="matrix(1.0, 0.0, 0.0, 1.0, 0.0, 0.0)">
    <use height="35.2" transform="matrix(1.0, 0.0, 0.0, 1.0, 2.8, 4.05)" width="59.2" xlink:href="#shape0"/>
    <use height="47.95" transform="matrix(0.8, 0.0, 0.0, 0.8, 2.25, 5.5)" width="81.0" xlink:href="#sprite0"/>
    <use height="35.85" transform="matrix(1.0, 0.0, 0.0, 1.0, 2.8, 4.0)" width="59.2" xlink:href="#shape3"/>
  </g>
  <defs>
    <g id="shape0" transform="matrix(1.0, 0.0, 0.0, 1.0, -2.8, -4.05)">
      <path d="M59.0 7.75 L5.5 10.55 5.4 10.35 3.1 5.75 52.5 4.05 62.0 5.55 59.0 7.75" fill="url(#gradient0)" fill-rule="evenodd" stroke="none"/>
      <path d="M51.05 5.45 L51.75 5.6 49.5 5.7 48.7 5.75 45.75 5.7 44.4 5.55 43.7 5.35 43.65 5.3 43.7 5.25 44.3 5.15 46.55 5.1 44.75 4.7 46.7 4.6 47.9 4.9 48.1 4.95 48.25 4.95 50.6 5.5 51.05 5.45 M47.0 5.25 L45.55 5.3 45.45 5.35 45.55 5.4 47.3 5.6 48.85 5.55 47.25 5.2 47.0 5.25" fill="#fffbeb" fill-rule="evenodd" stroke="none"/>
      <path d="M38.9 5.55 L40.85 5.75 40.3 5.5 39.0 5.55 38.9 5.55 M34.75 5.05 L37.3 5.35 39.8 5.25 38.8 4.9 40.6 4.85 42.8 5.95 41.0 5.95 33.25 5.15 34.75 5.05" fill="#fffbeb" fill-rule="evenodd" stroke="none"/>
      <path d="M34.0 6.1 L32.45 5.75 30.8 5.85 30.7 5.9 30.8 5.95 32.5 6.15 34.0 6.1 M33.35 5.5 L35.7 6.0 36.15 5.95 36.85 6.15 34.6 6.2 33.85 6.25 30.9 6.2 29.65 6.05 28.9 5.9 28.9 5.8 29.0 5.75 29.5 5.7 26.05 5.35 28.2 5.3 31.75 5.6 30.0 5.2 31.85 5.15 32.85 5.35 33.1 5.45 33.3 5.5 33.35 5.5" fill="#fffbeb" fill-rule="evenodd" stroke="none"/>
      <path d="M23.15 5.45 L26.9 6.25 28.25 6.2 29.15 6.4 26.25 6.5 25.5 6.55 24.45 6.55 24.3 6.55 23.55 6.35 24.9 6.35 20.8 5.55 23.15 5.45" fill="#fffbeb" fill-rule="evenodd" stroke="none"/>
      <path d="M17.9 5.95 L17.85 6.1 17.8 6.15 17.85 6.25 17.9 6.3 18.25 6.3 20.75 6.45 23.35 6.6 21.4 6.7 21.15 6.65 17.8 6.45 17.6 6.8 16.4 6.85 15.6 6.9 15.15 6.9 15.15 6.85 15.2 6.7 15.3 6.55 15.45 6.35 15.55 6.1 15.85 5.8 15.95 5.75 18.2 5.65 17.9 5.95" fill="#fffbeb" fill-rule="evenodd" stroke="none"/>
      <path d="M38.9 5.55 L39.15 5.55 39.5 5.5 40.3 5.5 40.85 5.75 38.9 5.55 M39.9 5.55 L39.7 5.55 39.5 5.55 39.8 5.55 40.1 5.6 39.9 5.55 M32.9 5.15 L32.8 5.1 35.1 5.0 37.35 5.3 39.3 5.2 38.35 4.95 38.6 4.85 40.8 4.8 41.05 4.85 43.3 5.95 43.0 5.95 40.7 6.0 32.9 5.15 M34.75 5.05 L33.25 5.15 41.0 5.95 42.8 5.95 40.6 4.85 38.8 4.9 39.8 5.25 37.3 5.35 34.75 5.05" fill="#5a717d" fill-rule="evenodd" stroke="none"/>
      <path d="M33.0 5.3 L33.25 5.35 33.5 5.4 33.7 5.5 33.75 5.5 35.9 5.95 35.95 5.95 37.25 6.1 37.3 6.15 37.05 6.15 30.7 6.25 29.25 6.1 28.5 5.9 28.45 5.8 28.5 5.75 28.55 5.75 28.9 5.7 25.75 5.4 25.6 5.35 25.85 5.35 28.05 5.25 28.9 5.3 31.1 5.55 31.15 5.55 29.6 5.25 29.8 5.15 32.3 5.15 33.0 5.3 M32.85 5.35 L31.85 5.15 30.0 5.2 31.75 5.6 31.0 5.6 28.2 5.3 26.05 5.35 29.5 5.7 29.0 5.75 28.9 5.8 28.9 5.9 29.65 6.05 30.9 6.2 36.85 6.15 36.15 5.95 35.7 6.0 33.35 5.5 33.3 5.5 33.1 5.45 32.85 5.35" fill="#5a717d" fill-rule="evenodd" stroke="none"/>
      <path d="M20.35 5.55 L20.6 5.55 23.3 5.4 27.1 6.2 28.1 6.15 28.65 6.2 29.55 6.35 29.6 6.4 29.35 6.45 26.45 6.55 26.1 6.55 24.25 6.6 24.0 6.55 23.9 6.55 23.15 6.4 23.4 6.35 24.3 6.35 20.35 5.55 M23.15 5.45 L20.8 5.55 24.9 6.35 23.55 6.35 24.3 6.55 24.45 6.55 25.5 6.55 26.25 6.5 29.15 6.4 28.25 6.2 26.9 6.25 23.15 5.45" fill="#5a717d" fill-rule="evenodd" stroke="none"/>
      <path d="M17.9 5.95 L18.2 5.65 15.95 5.75 15.85 5.8 15.55 6.1 15.45 6.35 15.3 6.55 15.2 6.7 15.15 6.85 15.15 6.9 16.1 6.9 16.4 6.85 17.6 6.8 17.8 6.45 21.15 6.65 21.4 6.7 23.35 6.6 20.75 6.45 18.25 6.3 17.9 6.3 17.85 6.25 17.8 6.15 17.85 6.1 17.9 5.95 M18.0 5.6 L18.45 5.65 18.65 5.7 18.35 5.95 18.3 6.1 18.25 6.15 18.3 6.25 18.4 6.25 19.1 6.3 19.9 6.35 19.95 6.35 23.55 6.55 23.8 6.6 23.55 6.65 22.7 6.7 22.0 6.75 21.25 6.75 21.0 6.7 18.2 6.55 18.05 6.8 17.8 6.85 16.6 6.9 16.3 6.95 14.8 6.95 14.7 6.85 14.75 6.7 14.95 6.3 15.3 5.95 15.4 5.75 15.65 5.7 18.0 5.6" fill="#5a717d" fill-rule="evenodd" stroke="none"/>
      <path d="M8.3 7.9 L3.1 5.75 4.1 5.85 5.8 6.15 Q6.85 6.5 8.3 7.7 8.5 7.75 8.3 7.9" fill="#73726a" fill-rule="evenodd" stroke="none"/>
      <path d="M8.6 7.65 L8.2 7.7 Q6.3 6.4 4.5 5.95 L3.1 5.75 4.0 5.75 5.7 5.95 Q6.75 6.3 8.65 7.25 L8.6 7.65" fill="#fffbeb" fill-rule="evenodd" stroke="none"/>
      <path d="M8.3 7.7 L8.3 37.15 8.3 39.25 7.7 7.3 Q8.0 7.35 8.3 7.7" fill="#fffbeb" fill-rule="evenodd" stroke="none"/>
      <path d="M3.1 5.75 L8.3 7.9 10.1 8.95 13.2 31.05 8.3 39.25 2.8 35.35 3.1 5.75" fill="url(#gradient1)" fill-rule="evenodd" stroke="none"/>
      <path d="M6.9 9.75 L6.95 12.5 6.85 13.4 6.6 13.75 6.05 14.0 5.5 13.8 5.3 13.55 5.15 13.3 5.0 12.6 4.9 11.6 4.9 10.85 3.65 10.45 3.6 9.05 4.55 9.4 6.5 10.0 6.45 9.7 6.9 9.75 M5.5 12.35 L5.6 12.6 5.75 12.75 5.95 12.85 6.2 12.8 6.35 12.65 6.5 12.45 6.5 12.3 6.55 12.0 6.5 11.35 5.4 11.05 5.5 12.35" fill="#fffbeb" fill-rule="evenodd" stroke="none"/>
      <path d="M3.7 13.55 L6.95 16.4 7.0 17.75 3.75 19.1 3.7 17.95 4.8 17.55 4.8 15.65 3.7 14.95 3.7 13.55 M5.5 17.35 L5.75 17.25 5.9 17.15 6.35 17.0 5.5 16.25 5.5 17.35" fill="#fffbeb" fill-rule="evenodd" stroke="none"/>
      <path d="M7.0 20.8 L7.05 23.45 6.9 24.35 6.7 24.75 6.15 24.95 Q5.9 24.95 5.6 24.75 L5.4 24.45 5.25 24.25 5.1 23.6 3.8 24.4 3.75 22.8 3.9 22.75 5.0 22.4 5.0 21.85 3.75 21.45 3.75 20.1 4.8 20.5 4.9 20.55 6.55 21.05 6.55 20.75 7.0 20.8 M6.55 22.35 L5.5 22.05 5.5 22.95 5.6 23.35 5.7 23.6 5.85 23.75 6.1 23.8 6.3 23.75 6.45 23.6 6.55 23.4 6.65 23.0 6.55 22.35" fill="#fffbeb" fill-rule="evenodd" stroke="none"/>
      <path d="M7.05 26.55 L7.1 29.85 7.1 30.0 7.05 30.0 6.5 29.85 6.5 28.9 4.7 28.55 3.85 28.35 3.8 26.55 6.45 27.35 6.5 26.4 7.05 26.55" fill="#fffbeb" fill-rule="evenodd" stroke="none"/>
      <path d="M3.9 31.65 L3.9 30.3 5.55 32.8 5.65 32.9 7.1 30.85 7.1 32.35 7.1 32.4 6.15 33.65 7.15 35.15 7.2 36.65 7.15 36.95 7.0 36.75 4.05 32.2 3.9 31.95 3.9 31.65" fill="#fffbeb" fill-rule="evenodd" stroke="none"/>
      <path d="M6.4 12.15 L6.4 11.6 5.55 11.4 5.55 11.95 5.6 12.25 5.65 12.35 5.75 12.45 5.95 12.55 6.1 12.5 6.3 12.35 6.4 12.15 M5.5 12.35 L5.4 11.05 6.5 11.35 6.55 12.0 6.55 12.1 6.5 12.45 6.35 12.65 6.2 12.8 5.95 12.85 5.75 12.75 5.6 12.6 5.5 12.35 M6.9 9.75 L6.45 9.7 6.5 10.0 4.55 9.4 3.6 9.05 3.65 10.45 4.9 10.85 4.9 11.6 5.0 12.6 5.15 13.3 5.3 13.55 5.5 13.8 6.05 14.0 6.6 13.75 6.85 13.4 6.95 12.55 6.9 9.75 M6.3 9.65 Q6.3 9.35 6.45 9.35 L6.9 9.45 7.0 9.55 7.05 9.8 7.1 13.1 6.95 13.6 6.7 14.05 6.1 14.35 5.5 14.1 5.2 13.75 5.1 13.5 5.05 13.45 4.9 12.7 4.75 11.55 4.75 11.15 3.65 10.75 3.5 10.4 3.5 9.0 3.5 8.8 3.6 8.75 4.55 9.1 4.7 9.15 4.75 9.15 6.3 9.65" fill="#5a717d" fill-rule="evenodd" stroke="none"/>
      <path d="M5.6 16.7 L5.6 17.0 5.7 16.95 5.85 16.9 5.6 16.7 M5.5 17.35 L5.5 16.25 6.35 17.0 5.9 17.15 5.75 17.25 5.5 17.35 M3.7 13.55 L3.7 14.95 4.8 15.65 4.8 17.55 3.7 17.95 3.75 19.1 7.0 17.75 6.95 16.4 3.7 13.55 M3.6 13.3 L3.7 13.3 7.0 16.15 7.1 16.45 7.1 17.8 7.05 18.05 3.8 19.4 3.7 19.35 3.65 19.1 3.6 17.9 3.7 17.6 4.65 17.3 4.65 15.85 3.7 15.2 Q3.55 15.15 3.55 14.9 L3.5 13.55 3.6 13.3" fill="#5a717d" fill-rule="evenodd" stroke="none"/>
      <path d="M6.55 22.35 L6.65 23.0 6.65 23.1 6.55 23.4 6.45 23.6 6.3 23.75 6.1 23.8 5.85 23.75 5.7 23.6 5.6 23.35 5.5 22.95 5.5 22.05 6.55 22.35 M5.65 22.65 L5.7 23.2 5.75 23.35 5.9 23.4 6.1 23.5 6.2 23.5 6.35 23.35 6.45 23.2 6.5 23.1 6.5 22.6 5.65 22.35 5.65 22.65 M7.0 20.8 L6.55 20.75 6.55 21.05 4.9 20.55 4.8 20.5 3.75 20.1 3.75 21.45 5.0 21.85 5.0 22.4 3.9 22.75 3.75 22.8 3.8 24.4 5.1 23.6 5.25 24.25 5.4 24.45 5.6 24.75 Q5.9 24.95 6.15 24.95 L6.7 24.75 6.9 24.35 7.05 23.5 7.0 20.8 M6.4 20.7 Q6.4 20.4 6.5 20.4 L7.0 20.5 7.1 20.6 7.1 20.85 7.15 24.05 7.05 24.55 6.75 25.0 6.15 25.25 Q5.9 25.25 5.6 25.05 L5.3 24.7 5.2 24.45 5.15 24.4 5.05 23.95 3.85 24.7 3.7 24.65 3.7 24.35 3.65 22.75 Q3.65 22.5 3.9 22.4 L4.9 22.15 3.75 21.75 3.65 21.4 3.6 20.05 3.65 19.85 3.75 19.75 4.8 20.15 4.9 20.2 6.4 20.7" fill="#5a717d" fill-rule="evenodd" stroke="none"/>
      <path d="M6.5 26.4 L6.45 27.35 3.8 26.55 3.85 28.35 4.7 28.55 6.5 28.9 6.5 29.85 7.05 30.0 7.1 30.0 7.1 29.85 7.05 26.55 6.5 26.4 M3.65 26.5 L3.7 26.3 3.8 26.2 6.3 27.0 6.3 26.35 Q6.3 26.1 6.45 26.1 L7.05 26.2 7.1 26.35 7.2 26.55 7.25 29.95 7.15 30.25 7.05 30.35 6.5 30.15 Q6.35 30.15 6.35 29.8 L6.35 29.15 4.0 28.7 3.8 28.55 3.7 28.3 3.65 26.5" fill="#5a717d" fill-rule="evenodd" stroke="none"/>
      <path d="M3.9 31.65 L3.9 31.95 4.05 32.2 7.0 36.75 7.15 36.95 7.2 36.65 7.15 35.15 6.15 33.65 7.1 32.4 7.1 32.35 7.1 30.85 5.65 32.9 5.55 32.8 3.9 30.3 3.9 31.65 M7.0 30.55 L7.15 30.6 7.25 30.9 7.3 32.1 7.25 32.5 7.25 32.55 7.15 32.65 6.4 33.7 7.2 34.9 7.3 35.15 7.3 36.75 7.2 37.2 6.95 36.95 4.0 32.45 3.8 32.0 3.75 31.6 3.75 30.25 3.85 30.0 3.95 30.05 5.6 32.55 5.65 32.5 5.85 32.25 7.0 30.55" fill="#5a717d" fill-rule="evenodd" stroke="none"/>
      <path d="M61.7 36.15 L8.3 39.25 8.3 7.9 62.0 5.55 61.7 36.15" fill="url(#gradient2)" fill-rule="evenodd" stroke="none"/>
      <path d="M33.6 23.5 Q34.35 24.1 34.15 25.3 L35.05 25.1 Q35.7 25.05 35.85 25.45 L35.9 26.35 37.1 26.15 38.45 26.15 Q38.5 27.4 37.75 28.35 L39.1 28.2 Q39.7 28.3 39.9 28.55 L40.5 28.95 Q40.35 27.9 41.05 28.1 L42.3 28.85 42.35 28.8 42.1 28.1 Q41.9 26.35 43.65 26.45 L46.1 27.1 Q46.7 27.55 46.55 28.15 L46.6 28.15 46.65 28.2 Q46.9 27.7 47.6 27.4 L48.85 27.3 Q49.2 27.4 49.5 27.75 49.7 27.2 50.5 27.2 L52.5 27.35 Q51.4 26.6 51.55 25.3 53.3 25.15 54.8 26.1 L55.05 26.3 Q55.5 25.8 56.1 25.75 57.3 25.65 57.9 27.25 58.3 26.75 59.2 26.75 58.9 26.55 58.75 25.7 58.65 24.8 58.9 24.55 L60.35 24.75 Q60.45 24.15 60.95 23.95 L61.85 24.1 61.7 36.15 8.3 39.25 8.3 26.85 Q8.75 26.95 8.7 27.85 8.7 28.7 9.3 28.6 L9.35 29.3 Q9.3 29.8 9.4 29.95 L10.55 29.75 Q11.05 29.85 11.1 30.6 L11.5 29.95 Q12.1 29.55 12.6 30.4 12.6 29.75 12.95 29.55 L13.85 29.75 14.5 30.5 Q14.8 29.55 15.75 30.5 L17.05 31.65 18.1 31.2 Q18.5 30.7 18.3 30.05 18.35 29.55 18.85 29.65 L19.7 30.0 Q20.9 28.65 22.05 29.25 21.6 27.85 23.05 28.15 L25.2 28.95 25.3 28.25 25.3 27.55 Q25.55 27.15 26.2 27.25 L27.2 27.5 Q27.45 27.3 27.3 26.6 27.2 25.95 27.5 25.55 L29.45 25.6 29.8 25.8 Q29.6 25.2 29.7 24.55 L30.65 24.6 Q30.55 23.65 31.6 23.3 32.8 22.9 33.6 23.5" fill="#ffffff" fill-rule="evenodd" stroke="none"/>
    </g>
    <linearGradient gradientTransform="matrix(0.0359, 0.0, 0.0, -0.0359, 32.55, 7.35)" gradientUnits="userSpaceOnUse" id="gradient0" spreadMethod="pad" x1="-819.2" x2="819.2">
      <stop offset="0.0" stop-color="#e6baff"/>
      <stop offset="0.5450980392156862" stop-color="#ffffff"/>
    </linearGradient>
    <linearGradient gradientTransform="matrix(0.0037, 0.0, 0.0, -0.0037, 6.25, 22.55)" gradientUnits="userSpaceOnUse" id="gradient1" spreadMethod="pad" x1="-819.2" x2="819.2">
      <stop offset="0.0" stop-color="#e6baff"/>
      <stop offset="0.5450980392156862" stop-color="#ffffff"/>
    </linearGradient>
    <linearGradient gradientTransform="matrix(4.0E-4, 0.021, 0.021, -4.0E-4, 35.25, 25.95)" gradientUnits="userSpaceOnUse" id="gradient2" spreadMethod="pad" x1="-819.2" x2="819.2">
      <stop offset="0.0" stop-color="#e6baff"/>
      <stop offset="0.5450980392156862" stop-color="#ffffff"/>
    </linearGradient>
    <g id="sprite0" transform="matrix(1.0, 0.0, 0.0, 1.0, 0.0, 0.0)">
      <clipPath id="clipPath0" transform="matrix(1.0, 0.0, 0.0, 1.0, 0.0, 0.0)">
        <use height="42.15" transform="matrix(1.0, 0.0, 0.0, 1.0, 7.55, 0.0)" width="67.15" xlink:href="#shape1"/>
      </clipPath>
      <g clip-path="url(#clipPath0)">
        <use height="44.05" transform="matrix(1.0, 0.0, 0.0, 1.0, 0.0, 3.9)" width="81.0" xlink:href="#shape2"/>
      </g>
    </g>
    <g id="shape1" transform="matrix(1.0, 0.0, 0.0, 1.0, -7.55, 0.0)">
      <path d="M74.3 38.3 L7.55 42.15 7.55 2.95 74.7 0.0 74.3 38.3" fill="#ff0000" fill-rule="evenodd" stroke="none"/>
    </g>
    <g id="shape2" transform="matrix(1.0, 0.0, 0.0, 1.0, 0.0, -3.9)">
      <path d="M40.5 4.0 Q57.3 2.95 69.15 14.05 81.0 25.15 81.0 42.0 L78.35 42.15 Q78.35 26.5 67.25 16.1 56.2 5.7 40.5 6.65 24.8 7.65 13.7 19.4 2.6 31.15 2.6 46.85 L0.0 47.0 Q0.0 30.15 11.85 17.6 23.7 5.05 40.5 4.0" fill="url(#gradient3)" fill-rule="evenodd" stroke="none"/>
      <path d="M40.5 6.65 Q56.2 5.7 67.25 16.1 78.35 26.5 78.35 42.15 L75.8 42.3 Q75.8 27.6 65.45 17.95 55.15 8.3 40.5 9.2 25.8 10.1 15.5 21.0 5.15 31.95 5.15 46.7 L2.6 46.85 Q2.6 31.15 13.7 19.4 24.8 7.65 40.5 6.65" fill="url(#gradient4)" fill-rule="evenodd" stroke="none"/>
      <path d="M40.5 9.2 Q55.15 8.3 65.45 17.95 75.8 27.6 75.8 42.3 L73.25 42.5 Q73.25 28.85 63.65 19.85 54.1 10.9 40.5 11.7 26.85 12.55 17.3 22.7 7.7 32.85 7.7 46.5 L5.15 46.7 Q5.15 31.95 15.5 21.0 25.8 10.1 40.5 9.2" fill="url(#gradient5)" fill-rule="evenodd" stroke="none"/>
      <path d="M40.5 11.7 Q54.1 10.9 63.65 19.85 73.25 28.85 73.25 42.5 L71.05 42.6 Q71.05 29.95 62.1 21.55 53.15 13.15 40.5 13.9 27.85 14.7 18.85 24.2 9.9 33.75 9.9 46.4 L7.7 46.5 Q7.7 32.85 17.3 22.7 26.85 12.55 40.5 11.7" fill="url(#gradient6)" fill-rule="evenodd" stroke="none"/>
      <path d="M40.5 13.9 Q53.15 13.15 62.1 21.55 71.05 29.95 71.05 42.6 L68.95 42.75 Q68.95 30.95 60.6 23.1 52.3 15.3 40.5 16.05 28.7 16.75 20.35 25.6 12.0 34.45 12.0 46.25 L9.9 46.4 Q9.9 33.75 18.85 24.2 27.85 14.7 40.5 13.9" fill="url(#gradient7)" fill-rule="evenodd" stroke="none"/>
      <path d="M40.9 19.0 Q51.25 18.3 58.0 25.3 64.65 32.15 64.0 42.25 L62.6 42.45 Q63.15 33.0 56.9 26.65 50.5 20.15 40.9 20.85 30.7 21.55 23.95 29.65 17.2 37.75 18.25 47.75 L16.55 47.95 Q15.3 37.1 22.55 28.45 29.85 19.75 40.9 19.0" fill="url(#gradient8)" fill-rule="evenodd" stroke="none"/>
      <path d="M40.9 20.85 Q50.5 20.15 56.9 26.65 63.15 33.0 62.6 42.45 L61.2 42.6 Q61.7 33.8 55.85 27.9 49.9 21.95 40.95 22.6 31.5 23.3 25.2 30.75 18.9 38.2 19.85 47.55 L18.25 47.75 Q17.2 37.75 23.95 29.65 30.7 21.55 40.9 20.85" fill="url(#gradient9)" fill-rule="evenodd" stroke="none"/>
      <path d="M40.95 22.6 Q49.9 21.95 55.85 27.9 61.7 33.8 61.2 42.6 L59.85 42.75 Q60.25 34.6 54.8 29.2 49.3 23.65 41.0 24.3 32.25 25.0 26.45 31.9 20.7 38.75 21.5 47.4 L19.85 47.55 Q18.9 38.2 25.2 30.75 31.5 23.3 40.95 22.6" fill="url(#gradient10)" fill-rule="evenodd" stroke="none"/>
      <path d="M41.0 24.3 Q49.3 23.65 54.8 29.2 60.25 34.6 59.85 42.75 L58.65 42.9 Q59.0 35.35 53.9 30.3 48.7 25.15 41.0 25.8 32.95 26.45 27.5 32.9 22.15 39.25 22.85 47.2 L21.5 47.4 Q20.7 38.75 26.45 31.9 32.25 25.0 41.0 24.3" fill="url(#gradient11)" fill-rule="evenodd" stroke="none"/>
      <path d="M41.0 25.8 Q48.7 25.15 53.9 30.3 59.0 35.35 58.65 42.9 L57.5 43.05 Q57.75 36.0 53.0 31.35 48.2 26.6 41.05 27.2 33.55 27.85 28.55 33.75 23.55 39.7 24.2 47.05 L22.85 47.2 Q22.15 39.25 27.5 32.9 32.95 26.45 41.0 25.8" fill="url(#gradient12)" fill-rule="evenodd" stroke="none"/>
    </g>
    <radialGradient cx="0" cy="0" gradientTransform="matrix(0.0596, -0.0037, 0.0, -0.0596, 40.8, 4.3)" gradientUnits="userSpaceOnUse" id="gradient3" r="819.2" spreadMethod="pad">
      <stop offset="0.0" stop-color="#db4327"/>
      <stop offset="0.4470588235294118" stop-color="#d94123" stop-opacity="0.79607844"/>
      <stop offset="0.8980392156862745" stop-color="#d43a17" stop-opacity="0.19215687"/>
      <stop offset="1.0" stop-color="#d23813" stop-opacity="0.0"/>
    </radialGradient>
    <radialGradient cx="0" cy="0" gradientTransform="matrix(0.0643, -0.004, 0.0, -0.0643, 40.65, 4.15)" gradientUnits="userSpaceOnUse" id="gradient4" r="819.2" spreadMethod="pad">
      <stop offset="0.0" stop-color="#e8a42d"/>
      <stop offset="0.3137254901960784" stop-color="#e69f2a" stop-opacity="0.85490197"/>
      <stop offset="0.7019607843137254" stop-color="#e09021" stop-opacity="0.44705883"/>
      <stop offset="1.0" stop-color="#da7f18" stop-opacity="0.0"/>
    </radialGradient>
    <radialGradient cx="0" cy="0" gradientTransform="matrix(0.054, -0.0033, 0.0, -0.054, 40.75, 9.45)" gradientUnits="userSpaceOnUse" id="gradient5" r="819.2" spreadMethod="pad">
      <stop offset="0.0" stop-color="#fef935"/>
      <stop offset="0.6745098039215687" stop-color="#f7f02c" stop-opacity="0.40784314"/>
      <stop offset="1.0" stop-color="#f2e926" stop-opacity="0.0"/>
    </radialGradient>
    <radialGradient cx="0" cy="0" gradientTransform="matrix(0.051, -0.0031, 0.0, -0.051, 40.75, 11.95)" gradientUnits="userSpaceOnUse" id="gradient6" r="819.2" spreadMethod="pad">
      <stop offset="0.0" stop-color="#bdfa31"/>
      <stop offset="0.2901960784313726" stop-color="#b7f42e" stop-opacity="0.85490197"/>
      <stop offset="0.6823529411764706" stop-color="#a8e325" stop-opacity="0.4509804"/>
      <stop offset="1.0" stop-color="#96d01c" stop-opacity="0.0"/>
    </radialGradient>
    <radialGradient cx="0" cy="0" gradientTransform="matrix(0.0501, -0.0031, 0.0, -0.0501, 40.75, 14.15)" gradientUnits="userSpaceOnUse" id="gradient7" r="819.2" spreadMethod="pad">
      <stop offset="0.09019607843137255" stop-color="#77c4fd"/>
      <stop offset="0.4235294117647059" stop-color="#6fb8f2" stop-opacity="0.7176471"/>
      <stop offset="1.0" stop-color="#5a9ad4" stop-opacity="0.0"/>
    </radialGradient>
    <radialGradient cx="0" cy="0" gradientTransform="matrix(0.036, -0.0024, -6.0E-4, -0.0393, 40.1, 19.25)" gradientUnits="userSpaceOnUse" id="gradient8" r="819.2" spreadMethod="pad">
      <stop offset="0.0" stop-color="#db4327"/>
      <stop offset="0.4470588235294118" stop-color="#d94123" stop-opacity="0.79607844"/>
      <stop offset="0.8980392156862745" stop-color="#d43a17" stop-opacity="0.19215687"/>
      <stop offset="1.0" stop-color="#d23813" stop-opacity="0.0"/>
    </radialGradient>
    <radialGradient cx="0" cy="0" gradientTransform="matrix(0.0387, -0.0026, -6.0E-4, -0.0423, 40.1, 19.25)" gradientUnits="userSpaceOnUse" id="gradient9" r="819.2" spreadMethod="pad">
      <stop offset="0.0" stop-color="#e8a42d"/>
      <stop offset="0.3137254901960784" stop-color="#e69f2a" stop-opacity="0.85490197"/>
      <stop offset="0.7019607843137254" stop-color="#e09021" stop-opacity="0.44705883"/>
      <stop offset="1.0" stop-color="#da7f18" stop-opacity="0.0"/>
    </radialGradient>
    <radialGradient cx="0" cy="0" gradientTransform="matrix(0.0324, -0.0022, -5.0E-4, -0.0354, 40.4, 22.8)" gradientUnits="userSpaceOnUse" id="gradient10" r="819.2" spreadMethod="pad">
      <stop offset="0.0" stop-color="#fef935"/>
      <stop offset="0.6745098039215687" stop-color="#f7f02c" stop-opacity="0.40784314"/>
      <stop offset="1.0" stop-color="#f2e926" stop-opacity="0.0"/>
    </radialGradient>
    <radialGradient cx="0" cy="0" gradientTransform="matrix(0.0305, -0.0021, -5.0E-4, -0.0333, 40.5, 24.55)" gradientUnits="userSpaceOnUse" id="gradient11" r="819.2" spreadMethod="pad">
      <stop offset="0.0" stop-color="#bdfa31"/>
      <stop offset="0.2901960784313726" stop-color="#b7f42e" stop-opacity="0.85490197"/>
      <stop offset="0.6823529411764706" stop-color="#a8e325" stop-opacity="0.4509804"/>
      <stop offset="1.0" stop-color="#96d01c" stop-opacity="0.0"/>
    </radialGradient>
    <radialGradient cx="0" cy="0" gradientTransform="matrix(0.0299, -0.002, -5.0E-4, -0.0326, 40.65, 26.0)" gradientUnits="userSpaceOnUse" id="gradient12" r="819.2" spreadMethod="pad">
      <stop offset="0.09019607843137255" stop-color="#77c4fd"/>
      <stop offset="0.4235294117647059" stop-color="#6fb8f2" stop-opacity="0.7176471"/>
      <stop offset="1.0" stop-color="#5a9ad4" stop-opacity="0.0"/>
    </radialGradient>
    <g id="shape3" transform="matrix(1.0, 0.0, 0.0, 1.0, -2.8, -4.0)">
      <path d="M35.45 30.5 L35.25 31.1 34.9 30.2 35.3 30.45 35.45 30.5" fill="#c5e7ed" fill-rule="evenodd" stroke="none"/>
      <path d="M17.6 36.55 L19.1 36.4 21.0 36.15 18.05 36.9 17.6 36.55" fill="#7d9929" fill-rule="evenodd" stroke="none"/>
      <path d="M15.9 37.45 L16.35 37.15 17.6 37.0 15.9 37.45" fill="#7d9929" fill-rule="evenodd" stroke="none"/>
      <path d="M32.35 31.9 L32.3 32.05 30.5 33.35 32.7 33.2 22.45 35.75 19.9 34.6 19.6 34.15 Q22.1 31.55 27.85 31.55 L28.45 31.5 32.35 31.9" fill="#7d9929" fill-rule="evenodd" stroke="none"/>
      <path d="M49.15 30.85 Q50.85 30.95 52.25 31.75 53.5 32.45 53.65 33.05 L53.75 33.55 53.2 34.15 46.65 33.95 41.5 33.7 41.65 33.6 42.95 32.55 43.25 32.75 45.0 32.75 45.7 32.75 46.35 32.6 46.25 32.15 45.8 31.15 49.15 30.85" fill="#7d9929" fill-rule="evenodd" stroke="none"/>
      <path d="M36.7 31.25 L37.05 31.9 37.05 32.45 37.15 32.95 35.8 33.05 32.7 33.2 30.5 33.35 32.3 32.05 32.35 31.9 32.55 30.65 32.75 31.15 33.05 31.65 Q33.4 31.05 33.3 30.15 L34.1 31.4 34.35 29.95 34.4 29.8 34.5 28.9 34.9 30.0 34.9 30.2 35.25 31.1 35.45 30.5 35.5 30.15 35.75 29.5 36.7 31.25" fill="#7d9929" fill-rule="evenodd" stroke="none"/>
      <path d="M44.35 30.55 L44.9 29.6 45.8 31.15 46.25 32.15 46.35 32.6 45.7 32.75 45.0 32.75 43.25 32.75 42.3 32.1 42.5 32.05 42.25 31.4 42.55 30.65 42.75 31.15 43.6 30.15 43.75 30.65 43.9 31.15 44.35 30.55" fill="#7d9929" fill-rule="evenodd" stroke="none"/>
      <path d="M42.5 32.05 L39.85 32.7 40.35 32.4 41.5 31.15 Q41.55 30.9 41.9 30.8 L42.25 31.4 42.5 32.05" fill="#7d9929" fill-rule="evenodd" stroke="none"/>
      <path d="M17.9 33.7 L18.1 33.85 18.5 34.35 18.85 34.75 18.95 34.2 19.25 32.95 19.6 34.15 19.9 34.6 22.45 35.75 22.5 35.8 21.0 36.15 19.1 36.4 17.6 36.55 17.2 36.15 17.25 35.95 17.3 34.7 17.5 34.15 Q17.7 33.65 17.9 33.7" fill="#7d9929" fill-rule="evenodd" stroke="none"/>
      <path d="M17.6 37.0 L16.35 37.15 13.35 37.2 11.55 37.15 11.55 36.4 11.5 35.6 12.8 36.1 12.7 35.65 Q12.65 35.35 12.85 35.3 L13.3 35.75 13.8 35.95 13.9 35.5 13.85 35.05 13.9 34.8 14.1 34.8 14.65 35.1 15.25 35.6 15.25 34.6 15.3 33.95 16.5 35.5 18.05 36.9 18.1 36.95 17.75 36.95 17.7 37.0 17.6 37.0" fill="#7d9929" fill-rule="evenodd" stroke="none"/>
      <path d="M56.65 31.9 L56.6 32.7 56.55 33.2 56.85 33.1 57.1 32.85 57.2 33.85 57.9 33.95 58.25 33.75 58.6 33.6 58.75 34.1 Q58.85 34.35 59.1 34.2 L59.65 33.75 59.65 34.75 60.05 34.35 60.15 35.1 60.55 34.85 Q60.85 34.65 61.0 34.7 L60.9 35.2 60.85 35.75 60.2 35.8 57.4 35.65 51.9 35.6 54.1 33.1 Q54.15 32.95 54.35 32.75 L55.15 31.8 55.3 32.4 Q55.3 32.85 55.45 32.95 L56.65 31.9" fill="#7d9929" fill-rule="evenodd" stroke="none"/>
      <path d="M35.3 31.7 Q45.75 31.05 53.65 32.75 58.55 33.85 61.7 35.65 L61.7 36.15 8.3 39.25 8.3 38.35 Q12.6 36.2 20.15 34.25 28.55 32.1 35.3 31.7" fill="#94b530" fill-rule="evenodd" stroke="none"/>
      <path d="M24.5 15.05 L24.2 15.55 24.1 15.55 Q23.75 15.95 23.1 16.2 L21.45 16.55 21.0 16.55 21.0 19.75 Q21.0 20.35 20.35 20.4 L18.3 20.55 17.9 20.35 17.7 19.9 17.85 12.0 17.4 11.45 17.3 10.1 17.5 9.65 17.9 9.45 21.75 9.2 21.95 9.2 22.6 9.3 Q23.05 9.4 23.5 9.65 L24.3 10.55 Q24.85 11.4 24.95 12.35 L24.9 14.15 24.5 15.05 M23.85 14.6 L24.1 14.0 24.1 12.5 Q24.1 11.85 23.6 10.95 L23.05 10.35 22.45 10.1 21.95 10.05 21.9 10.05 21.8 9.85 21.8 10.05 18.15 10.25 18.2 11.2 18.7 11.15 18.55 19.7 20.15 19.55 20.15 15.8 21.45 15.75 22.75 15.45 23.55 15.0 23.85 14.6" fill="#725d94" fill-rule="evenodd" stroke="none"/>
      <path d="M21.45 11.7 L21.35 11.7 21.0 11.75 21.05 13.85 21.1 13.85 21.65 13.75 21.95 13.7 22.0 13.6 22.1 13.35 22.1 12.75 22.0 12.35 21.8 12.0 21.45 11.7 M20.85 10.95 L21.3 10.9 21.4 10.85 21.5 10.85 21.7 10.9 22.1 11.15 22.45 11.55 22.75 12.05 22.9 12.75 22.9 13.35 22.75 13.95 22.4 14.35 21.75 14.55 21.1 14.65 20.4 14.65 20.25 14.6 20.15 11.1 20.85 10.95" fill="#725d94" fill-rule="evenodd" stroke="none"/>
      <path d="M28.9 14.25 L28.5 14.3 27.5 14.25 28.35 10.8 29.45 13.8 29.5 14.0 29.05 14.25 28.9 14.25" fill="#725d94" fill-rule="evenodd" stroke="none"/>
      <path d="M29.0 9.8 L27.45 9.9 25.0 19.3 26.5 19.2 27.0 15.95 29.95 15.8 30.95 18.95 32.15 18.8 29.0 9.8 M33.0 18.75 L32.95 19.3 32.5 19.55 30.8 19.75 Q30.3 19.75 30.2 19.35 L29.35 16.65 27.7 16.75 27.25 19.5 Q27.15 20.0 26.65 20.0 L24.7 20.15 Q24.4 20.15 24.3 19.95 24.05 19.6 24.15 19.4 L26.7 9.55 Q26.8 9.1 27.3 9.1 L29.15 9.0 Q29.65 9.0 29.75 9.4 L33.0 18.75" fill="#725d94" fill-rule="evenodd" stroke="none"/>
      <path d="M38.7 10.35 L38.15 9.8 37.6 9.55 37.1 9.5 33.6 9.7 33.65 10.6 34.1 10.55 34.0 18.75 35.5 18.7 35.5 15.05 36.6 15.0 37.6 18.55 39.4 18.45 37.75 14.8 37.95 14.75 38.7 14.3 38.7 14.25 38.9 13.95 39.15 13.35 39.2 11.85 Q39.15 11.25 38.7 10.35 M40.0 11.75 L39.95 13.45 39.6 14.35 39.25 14.85 38.8 15.15 40.25 18.4 40.2 18.95 39.7 19.25 37.5 19.35 Q37.0 19.35 36.75 18.6 L36.3 16.9 36.3 18.85 Q36.3 19.4 35.7 19.5 L33.75 19.6 33.35 19.45 33.2 19.0 33.3 11.35 Q32.85 11.3 32.85 10.85 L32.75 9.55 32.9 9.1 33.35 8.9 34.65 8.8 37.1 8.7 37.8 8.75 38.6 9.15 39.4 9.95 Q39.9 10.85 40.0 11.75" fill="#725d94" fill-rule="evenodd" stroke="none"/>
      <path d="M37.2 11.75 L37.0 11.4 36.75 11.15 36.65 11.1 36.6 11.1 36.3 11.15 36.3 13.15 36.45 13.15 36.9 13.1 37.1 13.0 37.2 12.95 37.25 12.7 37.2 11.75 M35.95 10.35 L36.1 10.35 36.5 10.3 36.9 10.3 37.3 10.55 37.65 10.9 37.9 11.4 38.1 12.1 38.05 12.7 37.9 13.25 37.6 13.65 36.95 13.9 35.5 13.95 35.5 10.5 35.95 10.35" fill="#725d94" fill-rule="evenodd" stroke="none"/>
      <path d="M45.55 9.1 L45.25 9.1 41.3 9.35 41.4 10.65 42.7 10.75 42.75 18.35 44.75 18.15 44.3 10.55 45.65 10.5 45.65 9.15 45.55 9.1 M47.85 9.0 L47.3 9.05 50.15 12.6 50.35 12.8 Q50.55 12.95 50.35 13.35 L47.9 17.9 49.1 17.9 49.7 17.8 54.5 8.95 54.6 8.7 54.05 8.7 52.7 8.8 51.05 11.85 48.85 9.05 48.75 8.95 48.5 8.95 47.85 9.0 M53.7 7.95 L54.5 7.9 Q55.4 7.9 55.45 8.5 L55.2 9.25 50.55 17.9 49.95 18.55 49.35 18.65 47.55 18.7 Q47.2 18.7 47.05 18.4 46.9 18.15 47.1 17.8 L49.4 13.6 49.6 13.15 49.55 13.15 46.45 9.3 46.45 10.65 Q46.45 11.2 45.85 11.3 L45.2 11.3 45.55 17.95 45.5 18.55 Q45.4 18.95 45.0 18.95 L42.5 19.2 42.15 19.05 41.95 18.6 41.9 11.5 41.15 11.45 Q40.65 11.35 40.65 10.9 L40.5 9.2 40.7 8.75 41.1 8.55 45.3 8.3 45.65 8.3 Q46.0 8.3 46.3 8.65 L46.3 8.75 46.35 8.65 46.85 8.3 48.45 8.15 49.1 8.25 49.25 8.35 49.7 8.85 50.9 10.4 52.05 8.35 Q52.15 8.05 52.5 8.05 L53.7 7.95" fill="#725d94" fill-rule="evenodd" stroke="none"/>
      <path d="M24.0 14.75 L23.7 15.15 22.85 15.65 21.45 15.95 20.35 16.0 20.35 19.75 18.35 19.9 18.5 16.65 18.5 11.35 18.0 11.4 17.95 10.05 19.3 9.95 21.8 9.85 22.5 9.9 23.15 10.15 23.75 10.8 Q24.3 11.75 24.3 12.45 L24.3 14.05 24.0 14.75 M20.35 11.25 L20.45 14.45 21.1 14.45 21.7 14.35 22.3 14.2 22.6 13.85 22.7 12.75 22.6 12.15 22.3 11.65 21.95 11.3 21.7 11.1 21.3 11.1 20.9 11.15 20.35 11.25" fill="#ffffff" fill-rule="evenodd" stroke="none"/>
      <path d="M29.3 14.0 L29.25 13.85 29.1 13.55 28.4 11.5 27.75 14.05 28.5 14.1 29.05 14.05 29.3 14.0 M29.15 9.6 L32.45 18.95 30.8 19.15 29.85 16.0 27.2 16.15 26.65 19.4 24.75 19.55 27.3 9.7 29.15 9.6" fill="#ffffff" fill-rule="evenodd" stroke="none"/>
      <path d="M38.85 10.25 Q39.3 11.0 39.4 11.85 L39.35 13.35 39.1 14.0 38.8 14.4 38.05 14.95 39.7 18.65 37.5 18.75 37.35 18.4 36.45 15.2 35.7 15.25 35.7 18.9 33.8 19.0 33.9 10.75 33.45 10.8 33.4 9.5 34.65 9.4 37.0 9.3 37.65 9.35 38.3 9.65 38.85 10.25 M36.15 10.55 L35.7 10.65 35.7 13.75 36.9 13.7 37.5 13.5 37.75 13.15 37.9 12.1 37.75 11.5 37.5 11.0 37.15 10.7 36.9 10.5 36.15 10.55" fill="#ffffff" fill-rule="evenodd" stroke="none"/>
      <path d="M45.55 8.9 L45.8 9.0 45.85 9.15 45.85 10.7 44.55 10.75 44.95 18.35 42.55 18.6 42.5 10.95 41.25 10.85 41.1 9.15 43.3 9.0 44.1 8.95 45.55 8.9" fill="#ffffff" fill-rule="evenodd" stroke="none"/>
      <path d="M47.8 8.8 L48.5 8.75 48.85 8.75 49.0 8.95 51.0 11.5 52.55 8.6 53.7 8.55 54.5 8.5 54.9 8.55 50.1 17.55 49.8 17.95 49.35 18.05 48.6 18.1 47.55 18.15 50.2 13.25 50.25 12.95 50.05 12.75 46.9 8.9 47.8 8.8" fill="#ffffff" fill-rule="evenodd" stroke="none"/>
      <path d="M62.0 5.5 L61.75 36.1 8.3 39.2 8.3 7.85 62.0 5.5" fill="url(#gradient13)" fill-rule="evenodd" stroke="none"/>
      <path d="M3.15 5.7 L52.5 4.0 62.0 5.5 8.3 7.85 3.15 5.7" fill="url(#gradient14)" fill-rule="evenodd" stroke="none"/>
      <path d="M8.3 39.2 L2.8 35.3 3.15 5.7 8.3 7.85 8.3 39.2" fill="url(#gradient15)" fill-rule="evenodd" stroke="none"/>
      <path d="M59.95 5.9 L61.45 6.0 35.05 7.1 8.8 8.25 Q8.55 11.5 8.55 19.7 L8.35 39.85 8.15 29.75 8.15 8.9 8.25 8.3 8.05 8.15 Q6.25 6.95 4.55 6.55 L3.15 6.35 4.05 6.3 5.75 6.5 8.7 7.85 10.7 7.8 59.95 5.9" fill="#ffffff" fill-opacity="0.7019608" fill-rule="evenodd" stroke="none"/>
      <path d="M29.25 22.55 Q30.3 22.05 31.3 21.85 L30.65 23.85 32.95 23.8 31.75 25.45 33.95 25.85 33.25 26.65 Q32.55 27.2 32.2 27.2 L34.45 28.15 33.45 28.65 32.3 29.05 33.25 29.65 33.95 30.35 31.75 30.75 32.95 32.4 30.65 32.25 Q31.15 33.35 31.3 34.35 L29.4 33.8 Q29.25 34.95 29.45 36.0 L27.7 34.85 27.6 36.1 27.25 37.25 26.0 35.45 Q25.5 36.35 25.2 37.65 L24.65 36.65 24.35 35.45 Q23.95 35.65 23.65 36.25 L23.1 37.25 Q22.85 37.2 22.65 36.15 L22.6 34.85 20.85 36.0 20.95 33.8 18.9 34.3 19.25 33.25 19.45 32.25 17.35 32.45 18.45 30.75 16.15 30.35 18.05 28.95 Q16.95 28.8 15.85 28.05 L18.05 27.25 16.15 26.05 Q16.45 25.65 17.25 25.65 L18.45 25.45 17.35 23.75 19.55 23.8 Q19.1 22.85 18.95 21.85 20.0 22.05 20.95 22.55 L20.85 20.2 Q21.2 20.15 21.75 20.7 L22.45 21.4 22.85 19.15 Q23.25 19.15 23.65 19.8 L24.05 20.75 Q24.65 20.65 25.1 18.65 L26.05 20.9 27.25 18.95 Q27.45 20.3 27.8 21.4 28.55 20.65 29.4 20.2 L29.25 22.55" fill="#264f3d" fill-rule="evenodd" stroke="none"/>
      <path d="M29.45 22.25 Q30.4 21.75 31.45 21.5 L30.75 23.5 33.05 23.45 31.85 25.1 34.05 25.5 33.4 26.35 32.3 26.85 Q33.5 27.3 34.55 27.85 L33.6 28.3 32.45 28.75 33.35 29.35 34.05 30.05 31.85 30.45 33.05 32.05 30.75 32.0 31.45 34.05 Q30.6 33.85 29.5 33.45 29.4 34.65 29.55 35.7 L27.85 34.55 27.7 35.8 27.35 36.9 26.15 35.1 25.3 37.35 24.75 36.3 24.45 35.1 23.75 35.95 23.25 36.9 Q22.95 36.85 22.8 35.85 L22.7 34.55 21.0 35.7 21.05 33.45 19.05 34.0 19.35 33.0 19.55 32.0 17.45 32.1 18.65 30.45 16.25 30.05 Q17.0 29.4 18.2 28.65 17.05 28.45 16.0 27.7 L18.2 26.9 16.25 25.75 Q16.55 25.35 17.4 25.35 L18.65 25.15 17.45 23.45 Q18.5 23.65 19.65 23.45 L19.1 21.5 21.05 22.25 21.0 19.85 Q21.35 19.85 21.85 20.4 L22.65 21.05 23.0 18.85 Q23.35 18.85 23.75 19.45 L24.2 20.45 Q24.75 20.35 25.25 18.35 L26.2 20.6 Q26.75 19.55 27.45 18.65 27.55 19.95 27.95 21.05 L29.5 19.85 29.45 22.25" fill="#2d8196" fill-rule="evenodd" stroke="none"/>
      <path d="M15.0 26.95 L13.9 27.05 13.8 31.85 Q13.7 33.05 13.05 33.05 12.6 33.1 12.4 32.75 12.1 32.2 12.1 30.35 L12.1 30.2 12.3 27.1 Q10.15 27.2 10.15 26.65 10.15 26.1 11.35 26.05 L14.85 25.9 Q15.95 25.95 15.95 26.45 15.95 26.9 15.0 26.95" fill="#ffffff" fill-rule="evenodd" stroke="none"/>
      <path d="M10.15 26.65 Q10.15 27.1 11.6 27.1 L12.3 27.1 12.1 30.2 12.1 30.35 Q12.1 32.2 12.4 32.75 12.5 33.05 12.95 33.05 L13.05 33.05 Q13.7 33.05 13.8 31.85 L13.9 27.05 15.0 26.95 Q15.95 26.9 15.95 26.45 15.95 25.95 14.85 25.9 L13.85 25.9 11.35 26.05 Q10.15 26.1 10.15 26.65 M11.45 27.9 Q9.35 27.9 9.35 26.65 9.35 25.3 11.25 25.25 L13.85 25.1 14.85 25.1 Q16.75 25.15 16.75 26.45 16.75 27.65 15.05 27.75 L14.7 27.8 14.6 31.85 Q14.55 33.0 14.0 33.5 13.65 33.85 13.1 33.85 L12.95 33.85 Q12.0 33.85 11.65 33.1 11.3 32.35 11.3 30.35 L11.45 27.9" fill="#2d8196" fill-rule="evenodd" stroke="none"/>
      <path d="M19.6 26.55 Q21.65 30.75 21.65 31.8 21.65 32.45 21.05 32.45 20.5 32.5 20.1 31.9 L19.25 30.15 17.35 30.4 17.05 31.6 Q16.85 32.65 16.2 32.65 15.5 32.75 15.5 32.15 15.5 30.85 17.15 26.65 17.65 25.3 18.3 25.25 18.7 25.25 19.05 25.6 L19.6 26.55 M18.85 29.25 L18.2 27.4 17.65 29.4 18.85 29.25" fill="#ffffff" fill-rule="evenodd" stroke="none"/>
      <path d="M18.85 29.25 L17.65 29.4 18.2 27.4 18.85 29.25 M18.4 25.25 L18.3 25.25 Q17.65 25.3 17.15 26.65 15.5 30.85 15.5 32.15 15.5 32.65 16.05 32.65 L16.2 32.65 Q16.85 32.65 17.05 31.6 L17.35 30.4 19.25 30.15 20.05 31.85 Q20.45 32.45 20.95 32.45 L21.05 32.45 Q21.65 32.45 21.65 31.8 21.65 30.75 19.6 26.55 L19.05 25.65 Q18.75 25.25 18.4 25.25 M18.4 24.45 Q19.1 24.45 19.65 25.05 L20.3 26.2 Q22.45 30.65 22.45 31.8 22.45 32.4 22.05 32.8 21.65 33.25 21.05 33.25 L20.95 33.25 Q19.7 33.25 18.75 31.05 L18.0 31.1 17.85 31.8 17.45 32.85 Q17.05 33.45 16.25 33.45 L16.05 33.45 Q14.7 33.45 14.7 32.15 14.7 30.6 16.4 26.4 17.15 24.55 18.25 24.45 L18.4 24.45" fill="#2d8196" fill-rule="evenodd" stroke="none"/>
      <path d="M24.2 25.0 Q25.9 24.9 25.9 26.6 25.9 27.45 25.25 27.45 24.75 27.45 24.6 26.8 24.45 26.05 24.1 26.1 23.85 26.1 23.65 26.45 L23.45 27.05 Q23.45 27.7 24.65 28.7 25.75 29.65 25.75 30.45 25.75 31.3 25.25 31.85 24.6 32.6 23.45 32.65 L22.45 32.45 22.2 32.0 Q22.2 31.45 22.7 31.45 L23.75 31.45 Q24.35 31.45 24.35 30.9 24.35 30.45 23.1 29.4 21.85 28.4 21.85 27.4 21.85 26.55 22.55 25.85 23.25 25.05 24.2 25.0" fill="#ffffff" fill-rule="evenodd" stroke="none"/>
      <path d="M24.35 25.0 L24.2 25.0 Q23.25 25.05 22.55 25.85 21.85 26.55 21.85 27.4 21.85 28.4 23.1 29.4 24.35 30.45 24.35 30.9 24.35 31.45 23.75 31.45 L23.65 31.5 22.85 31.4 22.7 31.45 Q22.2 31.45 22.2 32.0 22.2 32.65 23.25 32.65 L23.45 32.65 Q24.6 32.6 25.25 31.85 25.75 31.3 25.75 30.45 25.75 29.65 24.65 28.7 23.45 27.7 23.45 27.05 L23.65 26.45 Q23.85 26.1 24.1 26.1 L24.15 26.05 Q24.45 26.05 24.6 26.75 24.75 27.45 25.25 27.45 25.9 27.45 25.9 26.6 25.9 25.85 25.5 25.45 25.05 25.0 24.35 25.0 M26.05 24.85 Q26.7 25.5 26.7 26.6 26.7 27.35 26.25 27.8 25.85 28.2 25.35 28.25 L25.3 28.25 Q26.55 29.4 26.55 30.45 26.55 31.65 25.8 32.45 24.95 33.35 23.45 33.45 L23.25 33.45 Q22.35 33.45 21.85 33.0 21.4 32.6 21.4 32.0 21.4 31.45 21.75 31.05 22.1 30.65 22.65 30.65 L22.85 30.6 23.35 30.65 22.8 30.2 21.65 29.1 Q21.05 28.3 21.05 27.4 21.05 26.25 21.95 25.25 22.9 24.25 24.15 24.2 L24.35 24.2 Q25.4 24.2 26.05 24.85" fill="#2d8196" fill-rule="evenodd" stroke="none"/>
      <path d="M31.35 26.05 L30.25 26.1 30.15 30.95 Q30.15 32.1 29.45 32.15 28.95 32.2 28.75 31.85 28.45 31.25 28.45 29.45 L28.45 29.25 28.65 26.2 Q26.5 26.25 26.5 25.7 26.5 25.2 27.7 25.1 29.4 25.0 31.2 25.05 32.3 25.05 32.3 25.5 32.3 25.95 31.35 26.05" fill="#ffffff" fill-rule="evenodd" stroke="none"/>
      <path d="M26.5 25.7 Q26.5 26.25 27.95 26.25 L28.65 26.2 28.45 29.25 28.45 29.45 Q28.45 31.25 28.75 31.85 L29.35 32.2 29.45 32.15 Q30.15 32.1 30.15 30.95 L30.25 26.1 31.35 26.05 Q32.3 25.95 32.3 25.5 32.3 25.05 31.2 25.05 L30.2 25.0 27.7 25.1 Q26.5 25.2 26.5 25.7 M27.85 27.05 Q25.7 26.9 25.7 25.7 25.7 24.45 27.65 24.3 L30.2 24.2 31.2 24.25 Q33.1 24.25 33.1 25.5 33.1 26.7 31.4 26.85 L31.05 26.85 30.95 31.0 Q30.9 32.1 30.35 32.6 30.0 32.95 29.45 32.95 L29.35 33.0 Q28.4 33.0 28.05 32.2 27.65 31.45 27.65 29.45 L27.8 27.15 27.85 27.05" fill="#2d8196" fill-rule="evenodd" stroke="none"/>
      <path d="M36.0 24.65 Q37.35 24.5 37.35 25.05 37.35 25.45 36.65 25.65 L34.9 25.85 34.35 25.9 34.45 28.3 34.8 28.25 36.15 28.25 36.45 28.65 Q36.45 29.05 35.85 29.2 L34.5 29.35 34.6 30.65 35.85 30.55 Q37.05 30.45 37.05 31.0 37.05 31.6 34.85 31.75 L34.2 31.8 Q33.35 31.85 33.2 31.5 32.7 30.35 32.7 28.45 32.7 27.15 33.05 25.45 33.15 25.0 33.85 24.85 L36.0 24.65" fill="#ffffff" fill-rule="evenodd" stroke="none"/>
      <path d="M35.2 27.45 L35.65 27.45 Q37.25 27.45 37.25 28.65 37.25 29.4 36.55 29.75 37.85 29.85 37.85 31.0 37.85 31.85 36.85 32.25 L34.85 32.55 33.95 32.6 Q32.85 32.6 32.45 31.85 L32.45 31.8 Q31.9 30.5 31.9 28.45 31.9 26.95 32.25 25.25 32.5 24.25 33.75 24.05 L36.45 23.8 Q38.15 23.8 38.15 25.05 38.15 25.95 37.2 26.3 L35.15 26.65 35.2 27.45 M37.35 25.05 Q37.35 24.6 36.45 24.6 L33.85 24.85 Q33.15 25.0 33.05 25.45 32.7 27.15 32.7 28.45 32.7 30.35 33.2 31.5 33.3 31.8 33.95 31.8 L34.85 31.75 Q37.05 31.6 37.05 31.0 37.05 30.55 36.2 30.55 L35.85 30.55 34.6 30.65 34.5 29.35 35.85 29.2 Q36.45 29.05 36.45 28.65 36.45 28.25 35.65 28.25 L34.45 28.3 34.35 25.9 34.9 25.85 36.65 25.65 Q37.35 25.45 37.35 25.05" fill="#2d8196" fill-rule="evenodd" stroke="none"/>
      <path d="M43.0 25.9 Q43.0 27.0 41.45 28.0 L43.2 30.45 Q43.2 30.85 42.6 30.9 42.15 30.95 41.4 30.2 L40.1 28.85 40.05 30.7 39.95 31.3 Q39.8 31.55 39.35 31.6 38.65 31.6 38.5 30.9 L38.4 29.45 Q38.4 27.2 38.85 25.55 L38.25 25.85 Q37.75 25.9 37.75 25.45 37.75 25.05 38.45 24.6 39.25 24.05 40.25 24.0 41.35 23.9 42.15 24.45 43.0 25.05 43.0 25.9 M40.3 25.05 L40.1 27.7 Q41.3 26.9 41.3 26.15 41.3 25.15 40.3 25.05" fill="#ffffff" fill-rule="evenodd" stroke="none"/>
      <path d="M41.3 26.15 Q41.3 26.9 40.1 27.7 L40.3 25.05 Q41.3 25.15 41.3 26.15 M43.0 25.9 Q43.0 25.05 42.25 24.5 41.5 24.0 40.5 24.0 L40.25 24.0 Q39.25 24.05 38.45 24.6 37.75 25.05 37.75 25.45 37.75 25.85 38.2 25.85 L38.25 25.85 38.85 25.55 Q38.4 27.2 38.4 29.45 L38.5 30.9 Q38.65 31.6 39.3 31.6 L39.35 31.6 Q39.8 31.55 39.95 31.3 L40.05 30.7 40.1 28.85 41.35 30.15 Q42.1 30.9 42.55 30.9 L42.6 30.9 Q43.2 30.85 43.2 30.45 L41.45 28.0 Q43.0 27.0 43.0 25.9 M42.85 24.0 Q43.8 24.8 43.8 25.9 43.8 27.05 42.6 28.1 44.0 29.85 44.0 30.45 L43.65 31.25 Q43.3 31.65 42.65 31.7 L42.55 31.7 Q41.8 31.7 40.85 30.8 40.75 32.3 39.45 32.4 L39.3 32.4 Q38.1 32.4 37.75 31.15 37.6 30.6 37.6 29.45 L37.8 26.6 Q36.95 26.35 36.95 25.45 36.95 24.65 37.95 23.95 38.95 23.25 40.25 23.2 L40.5 23.2 Q41.85 23.2 42.85 24.0" fill="#2d8196" fill-rule="evenodd" stroke="none"/>
    </g>
    <linearGradient gradientTransform="matrix(-0.0135, 0.0201, 0.0201, 0.0135, 34.45, 22.85)" gradientUnits="userSpaceOnUse" id="gradient13" spreadMethod="pad" x1="-819.2" x2="819.2">
      <stop offset="0.0" stop-color="#ffffff" stop-opacity="0.31764707"/>
      <stop offset="1.0" stop-color="#525252" stop-opacity="0.047058824"/>
    </linearGradient>
    <linearGradient gradientTransform="matrix(0.0564, -0.0186, -0.0094, -0.0285, 24.3, 26.05)" gradientUnits="userSpaceOnUse" id="gradient14" spreadMethod="pad" x1="-819.2" x2="819.2">
      <stop offset="0.0" stop-color="#000000" stop-opacity="0.61960787"/>
      <stop offset="1.0" stop-color="#000000" stop-opacity="0.0"/>
    </linearGradient>
    <linearGradient gradientTransform="matrix(0.0188, -0.0221, -0.0171, -0.0145, 11.95, 12.0)" gradientUnits="userSpaceOnUse" id="gradient15" spreadMethod="pad" x1="-819.2" x2="819.2">
      <stop offset="0.0" stop-color="#000000" stop-opacity="0.61960787"/>
      <stop offset="1.0" stop-color="#000000" stop-opacity="0.36862746"/>
      <stop offset="1.0" stop-color="#000000" stop-opacity="0.0"/>
    </linearGradient>
  </defs>
</svg>
