<?xml version="1.0" encoding="UTF-8" standalone="no"?>
<svg xmlns:xlink="http://www.w3.org/1999/xlink" height="153.0px" width="152.0px" xmlns="http://www.w3.org/2000/svg">
  <g transform="matrix(1.0, 0.0, 0.0, 1.0, 0.0, 0.0)">
    <use height="108.35" transform="matrix(1.0, 0.0, 0.0, 1.0, 0.0, 0.0)" width="138.55" xlink:href="#sprite0"/>
    <use height="23.15" transform="matrix(1.0, 0.0, 0.0, 1.0, 19.55, 78.85)" width="98.25" xlink:href="#sprite1"/>
    <use height="12.5" transform="matrix(1.0, 0.0, 0.0, 1.0, 82.1, 3.15)" width="21.35" xlink:href="#sprite2"/>
    <use height="12.65" transform="matrix(1.0, 0.0, 0.0, 1.0, 36.1, 3.0)" width="27.0" xlink:href="#sprite3"/>
    <use height="14.05" transform="matrix(1.0, 0.0, 0.0, 1.0, 2.3, 59.6)" width="17.65" xlink:href="#sprite4"/>
    <use height="14.5" transform="matrix(1.0, 0.0, 0.0, 1.0, 121.05, 58.1)" width="15.75" xlink:href="#sprite5"/>
    <use height="19.3" transform="matrix(1.0, 0.0, 0.0, 1.0, 14.85, 17.05)" width="9.1" xlink:href="#sprite6"/>
    <use height="16.0" transform="matrix(1.0, 0.0, 0.0, 1.0, 120.9, 20.35)" width="4.35" xlink:href="#sprite7"/>
    <use height="98.15" transform="matrix(1.0, 0.0, 0.0, 1.0, 1.6, 1.45)" width="135.45" xlink:href="#shape8"/>
    <use height="92.8" transform="matrix(1.0, 0.0, 0.0, 1.0, 1.6, 6.8)" width="135.45" xlink:href="#sprite8"/>
    <use height="50.95" transform="matrix(1.0, 0.0, 0.0, 1.0, 29.95, 27.5)" width="82.85" xlink:href="#shape10"/>
    <use height="50.95" transform="matrix(1.0, 0.0, 0.0, 1.0, 29.95, 27.5)" width="82.85" xlink:href="#sprite9"/>
    <use height="47.6" transform="matrix(1.0, 0.0, 0.0, 1.0, 30.9, 28.9)" width="80.8" xlink:href="#shape12"/>
    <use height="41.5" transform="matrix(1.0, 0.0, 0.0, 1.0, 32.45, 32.85)" width="77.65" xlink:href="#sprite10"/>
    <use height="88.15" transform="matrix(1.0, 0.0, 0.0, 1.0, 5.15, 11.45)" width="130.25" xlink:href="#shape14"/>
    <use height="18.95" transform="matrix(1.0, 0.0, 0.0, 1.2368, 30.4, 114.7765)" width="21.0" xlink:href="#sprite11"/>
    <use height="15.75" transform="matrix(1.0, 0.0, 0.0, 1.0, 31.85, 115.65)" width="18.95" xlink:href="#sprite12"/>
    <use height="21.55" transform="matrix(1.0, 0.0, 0.0, 1.1852, 16.0, 93.0072)" width="27.7" xlink:href="#sprite13"/>
    <use height="17.5" transform="matrix(1.0, 0.0, 0.0, 1.0, 16.95, 95.3)" width="24.75" xlink:href="#sprite14"/>
    <use height="16.2" transform="matrix(1.0, 0.0, 0.0, 1.3086, 52.9, 124.261)" width="15.1" xlink:href="#sprite15"/>
    <use height="12.85" transform="matrix(1.0, 0.0, 0.0, 1.0, 53.8, 126.05)" width="13.1" xlink:href="#sprite16"/>
    <use height="10.9" transform="matrix(1.0, 0.0, 0.0, 1.0, 54.35, 125.85)" width="12.55" xlink:href="#shape21"/>
    <use height="8.7" transform="matrix(1.0, 0.0, 0.0, 1.0, 54.35, 128.05)" width="12.55" xlink:href="#sprite17"/>
    <use height="13.65" transform="matrix(1.0, 0.0, 0.0, 1.0, 32.1, 116.0)" width="18.2" xlink:href="#shape23"/>
    <use height="11.05" transform="matrix(1.0, 0.0, 0.0, 1.0, 32.15, 118.8)" width="18.0" xlink:href="#sprite18"/>
    <use height="16.2" transform="matrix(1.0, 0.0, 0.0, 1.0, 17.2, 94.85)" width="25.25" xlink:href="#shape25"/>
    <use height="13.6" transform="matrix(1.0, 0.0, 0.0, 1.0, 17.2, 97.45)" width="25.25" xlink:href="#sprite19"/>
    <use height="14.85" transform="matrix(1.0, 0.0, 0.0, 1.0, 94.45, 45.5)" width="11.9" xlink:href="#shape27"/>
  </g>
  <defs>
    <g id="sprite0" transform="matrix(1.0, 0.0, 0.0, 1.0, -36.05, -36.0)">
      <use height="108.35" transform="matrix(1.0, 0.0, 0.0, 1.0, 36.05, 36.0)" width="138.55" xlink:href="#shape0"/>
    </g>
    <g id="shape0" transform="matrix(1.0, 0.0, 0.0, 1.0, -36.05, -36.0)">
      <path d="M174.6 90.8 Q174.15 102.4 167.95 108.05 166.05 109.8 163.8 110.8 L161.9 111.4 160.6 117.15 Q158.6 123.6 155.05 127.15 151.5 130.7 140.95 130.15 L131.1 128.85 Q130.0 132.6 126.65 136.4 120.0 144.0 108.85 144.35 96.9 144.65 89.2 137.0 86.8 134.6 85.1 131.7 L83.9 129.25 Q81.1 131.6 76.9 133.25 68.5 136.6 61.35 133.05 54.25 129.5 52.35 120.95 51.75 118.3 51.75 115.45 L51.85 113.15 Q47.6 112.7 43.5 109.7 35.3 103.75 36.1 91.1 36.65 81.75 43.8 76.1 47.4 73.3 50.85 72.35 49.75 69.45 50.0 65.4 50.55 57.3 57.4 51.75 65.9 44.9 76.5 46.25 81.8 46.9 85.4 48.95 L86.2 46.95 Q87.35 44.5 89.25 42.5 95.3 36.0 106.4 36.0 118.45 36.0 124.8 42.15 128.0 45.2 128.75 48.25 L136.0 46.75 Q144.8 46.0 152.4 50.0 160.2 54.1 161.4 63.65 162.0 68.4 161.0 72.35 L163.2 73.4 Q165.8 74.8 168.0 76.65 174.9 82.6 174.6 90.8" fill="#000000" fill-rule="evenodd" stroke="none"/>
    </g>
    <g id="sprite1" transform="matrix(1.0, 0.0, 0.0, 1.0, 0.0, 0.0)">
      <use height="23.15" transform="matrix(1.0, 0.0, 0.0, 1.0, 0.0, 0.0)" width="98.25" xlink:href="#shape1"/>
    </g>
    <g id="shape1" transform="matrix(1.0, 0.0, 0.0, 1.0, 0.0, 0.0)">
      <path d="M84.5 6.0 Q88.25 6.0 93.65 4.75 L98.25 3.5 95.15 5.95 Q91.3 8.55 87.55 9.15 83.8 9.8 78.15 9.35 L73.25 8.75 Q72.15 12.3 68.85 15.85 62.15 22.95 50.9 23.15 41.05 23.3 34.55 16.4 32.5 14.25 31.05 11.65 L30.0 9.5 Q28.1 11.2 25.55 11.45 L25.5 11.75 19.75 12.55 Q13.1 13.05 8.55 11.8 4.0 10.55 1.55 5.15 0.35 2.45 0.0 0.0 L23.6 8.15 31.75 4.0 32.75 6.65 Q34.0 9.5 35.25 10.75 L40.15 15.85 66.65 13.8 68.25 11.5 Q69.75 9.25 71.0 4.8 L72.8 5.3 77.1 6.05 84.5 6.0" fill="#000000" fill-rule="evenodd" stroke="none"/>
    </g>
    <g id="sprite2" transform="matrix(1.0, 0.0, 0.0, 1.0, 0.0, 0.0)">
      <use height="12.5" transform="matrix(1.0, 0.0, 0.0, 1.0, 0.0, 0.0)" width="21.35" xlink:href="#shape2"/>
    </g>
    <g id="shape2" transform="matrix(1.0, 0.0, 0.0, 1.0, 0.0, 0.0)">
      <path d="M0.0 0.0 Q1.5 0.4 3.2 1.15 6.7 2.6 8.0 4.2 9.85 6.35 11.0 8.5 L21.35 8.5 8.7 12.5 Q6.7 9.0 5.85 7.2 5.0 5.35 0.0 0.0" fill="#000000" fill-rule="evenodd" stroke="none"/>
    </g>
    <g id="sprite3" transform="matrix(1.0, 0.0, 0.0, 1.0, 0.0, 0.0)">
      <use height="12.65" transform="matrix(1.0, 0.0, 0.0, 1.0, 0.0, 0.0)" width="27.0" xlink:href="#shape3"/>
    </g>
    <g id="shape3" transform="matrix(1.0, 0.0, 0.0, 1.0, 0.0, 0.0)">
      <path d="M27.0 0.0 Q22.0 3.85 19.85 6.5 17.7 9.15 16.85 12.65 L0.0 8.35 15.35 8.0 Q16.65 5.7 18.7 3.65 20.9 1.45 24.15 0.5 L27.0 0.0" fill="#000000" fill-rule="evenodd" stroke="none"/>
    </g>
    <g id="sprite4" transform="matrix(1.0, 0.0, 0.0, 1.0, 0.0, 0.0)">
      <use height="14.05" transform="matrix(1.0, 0.0, 0.0, 1.0, 0.0, 0.0)" width="17.65" xlink:href="#shape4"/>
    </g>
    <g id="shape4" transform="matrix(1.0, 0.0, 0.0, 1.0, 0.0, 0.0)">
      <path d="M0.0 0.0 L17.65 9.75 16.5 14.05 14.45 13.8 Q12.05 13.3 10.15 12.05 6.4 9.6 2.85 4.55 1.05 2.05 0.0 0.0" fill="#000000" fill-rule="evenodd" stroke="none"/>
    </g>
    <g id="sprite5" transform="matrix(1.0, 0.0, 0.0, 1.0, 0.0, 0.0)">
      <use height="14.5" transform="matrix(1.0, 0.0, 0.0, 1.0, 0.0, 0.0)" width="15.75" xlink:href="#shape5"/>
    </g>
    <g id="shape5" transform="matrix(1.0, 0.0, 0.0, 1.0, 0.0, 0.0)">
      <path d="M15.75 0.0 Q15.55 1.5 14.4 3.55 12.1 7.7 7.25 10.5 L0.0 14.5 0.0 9.25 15.75 0.0" fill="#000000" fill-rule="evenodd" stroke="none"/>
    </g>
    <g id="sprite6" transform="matrix(1.0, 0.0, 0.0, 1.0, 0.05, 0.0)">
      <use height="19.3" transform="matrix(1.0, 0.0, 0.0, 1.0, -0.05, 0.0)" width="9.1" xlink:href="#shape6"/>
    </g>
    <g id="shape6" transform="matrix(1.0, 0.0, 0.0, 1.0, 0.05, 0.0)">
      <path d="M9.05 0.0 Q6.2 5.95 4.9 11.3 4.05 14.6 4.4 16.45 4.55 17.35 4.9 17.6 L0.05 19.3 Q-0.3 16.65 0.55 11.95 1.4 7.35 5.3 3.2 7.25 1.15 9.05 0.0" fill="#000000" fill-rule="evenodd" stroke="none"/>
    </g>
    <g id="sprite7" transform="matrix(1.0, 0.0, 0.0, 1.0, 0.0, 0.0)">
      <use height="16.0" transform="matrix(1.0, 0.0, 0.0, 1.0, 0.0, 0.0)" width="4.35" xlink:href="#shape7"/>
    </g>
    <g id="shape7" transform="matrix(1.0, 0.0, 0.0, 1.0, 0.0, 0.0)">
      <path d="M0.05 0.0 L1.7 2.25 Q3.45 4.9 3.9 7.0 4.55 10.3 4.3 16.0 L0.0 14.65 0.8 13.25 Q1.55 11.4 1.55 9.3 1.55 6.0 0.05 0.0" fill="#000000" fill-rule="evenodd" stroke="none"/>
    </g>
    <g id="shape8" transform="matrix(1.0, 0.0, 0.0, 1.0, -1.6, -1.45)">
      <path d="M19.95 77.5 L19.95 76.3 20.05 76.3 19.95 77.5" fill="url(#gradient0)" fill-rule="evenodd" stroke="none"/>
      <path d="M90.55 14.6 L98.3 12.7 Q107.45 11.55 114.6 15.15 123.6 19.7 123.15 27.8 122.95 31.85 120.9 35.0 L123.35 35.8 Q126.35 36.9 128.85 38.5 136.85 43.55 137.05 51.35 137.2 57.45 129.95 62.35 127.7 63.85 124.95 65.1 L122.65 66.0 121.45 72.25 Q119.6 79.15 116.2 82.2 112.85 85.25 101.35 84.75 L90.55 83.65 Q90.1 87.55 87.5 91.45 82.3 99.3 71.75 99.6 60.45 99.9 54.55 91.95 52.7 89.5 51.6 86.5 L50.85 84.0 Q47.7 86.05 43.25 87.45 34.25 90.3 27.5 87.25 20.8 84.2 19.0 76.45 18.45 74.0 18.45 71.4 L18.55 69.3 Q13.95 67.6 9.5 64.35 0.65 57.95 1.7 50.5 2.7 43.4 10.75 38.5 14.75 36.05 18.55 35.0 17.25 32.6 17.25 29.15 17.3 22.25 23.95 17.05 31.8 10.95 43.0 11.9 48.6 12.35 52.65 14.05 52.85 13.25 53.4 12.1 54.5 9.7 56.25 7.75 61.9 1.45 72.05 1.45 83.3 1.45 88.05 8.05 90.45 11.3 90.55 14.6" fill="#f2f2f2" fill-rule="evenodd" stroke="none"/>
      <path d="M85.05 10.75 L87.4 7.2 Q89.3 9.4 90.1 12.25 L90.55 14.6 93.55 13.65 Q97.25 12.65 101.05 12.45 99.85 13.8 99.05 15.1 98.45 16.15 98.5 17.2 L98.7 18.1 91.7 22.75 85.05 10.75" fill="#e0e0e0" fill-rule="evenodd" stroke="none"/>
      <path d="M53.85 10.55 L56.7 12.45 52.7 24.75 37.05 17.1 38.8 16.5 42.05 15.1 Q43.4 14.4 42.85 11.85 47.05 12.2 50.85 13.45 L52.65 14.05 53.85 10.55" fill="#e0e0e0" fill-rule="evenodd" stroke="none"/>
      <path d="M92.7 19.25 Q95.4 18.15 98.3 17.5 107.45 15.4 114.6 18.85 123.6 23.2 123.15 30.95 122.95 34.85 120.9 37.85 L129.0 42.15 Q137.05 47.6 137.05 53.45 137.05 59.3 129.85 64.0 127.6 65.45 124.9 66.6 L122.65 67.5 121.45 73.5 Q119.6 80.05 116.2 82.95 112.85 85.9 101.35 85.4 L90.55 84.35 Q90.1 88.05 87.5 91.85 82.3 99.35 71.75 99.6 60.45 99.9 54.55 92.3 52.7 89.9 51.6 87.05 L50.85 84.65 Q47.7 86.6 43.25 87.95 34.25 90.7 27.5 87.8 20.8 84.85 19.0 77.45 18.45 75.15 18.45 72.65 L18.55 70.65 Q13.95 69.0 9.5 65.95 0.65 59.8 1.7 52.7 2.7 45.85 10.75 41.15 14.75 38.85 18.55 37.85 17.25 35.55 17.25 32.25 17.3 25.65 23.95 20.7 31.8 14.85 43.0 17.2 48.6 18.35 52.65 20.7 L53.45 17.85 Q54.65 14.45 56.45 11.65 62.3 2.75 72.4 3.55 83.75 4.4 88.3 12.4 90.55 16.4 90.55 20.25 L92.7 19.25" fill="#ffffff" fill-rule="evenodd" stroke="none"/>
      <path d="M88.3 15.45 Q90.55 19.3 90.55 23.0 L92.7 22.05 Q95.4 20.95 98.3 20.35 107.45 18.35 114.6 21.65 123.6 25.85 123.15 33.35 122.95 37.1 120.9 40.0 L129.0 44.15 Q137.05 49.45 137.05 55.05 137.05 60.7 129.85 65.2 L122.65 68.6 121.45 74.35 Q119.6 80.7 116.2 83.55 112.85 86.35 101.35 85.9 L90.55 84.9 Q90.1 88.5 87.5 92.1 82.3 99.35 71.75 99.6 60.45 99.9 54.55 92.55 52.7 90.3 51.6 87.5 L50.85 85.2 Q47.7 87.1 43.25 88.4 34.25 91.0 27.5 88.2 20.8 85.4 19.0 78.25 18.45 76.0 18.45 73.6 L18.55 71.65 Q13.95 70.05 9.5 67.1 0.65 61.2 1.7 54.3 2.7 47.7 10.75 43.2 14.75 40.95 18.55 40.0 17.25 37.8 17.25 34.6 17.3 28.25 23.95 23.45 31.8 17.8 43.0 20.05 48.6 21.2 52.65 23.45 L53.45 20.7 Q54.65 17.4 56.45 14.7 62.3 6.1 72.4 6.85 83.75 7.7 88.3 15.45" fill="#e6e6e6" fill-rule="evenodd" stroke="none"/>
      <path d="M56.45 14.7 Q62.3 6.1 72.4 6.85 83.75 7.7 88.3 15.45 90.55 19.3 90.55 23.0 L92.7 22.05 Q95.4 20.95 98.3 20.35 107.45 18.35 114.6 21.65 123.6 25.85 123.15 33.35 122.95 37.1 120.9 40.0 L126.0 42.4 Q131.65 45.45 134.5 48.85 101.0 45.25 75.2 45.6 53.35 45.9 26.35 49.3 L3.7 52.6 3.35 49.85 Q6.05 45.4 12.6 42.25 15.85 40.7 18.55 40.0 17.25 37.8 17.25 34.6 17.3 28.25 23.95 23.45 31.8 17.8 43.0 20.05 48.6 21.2 52.65 23.45 L53.45 20.7 Q54.65 17.4 56.45 14.7" fill="#ebebeb" fill-rule="evenodd" stroke="none"/>
      <path d="M56.45 14.7 Q62.3 6.1 72.4 6.85 83.75 7.7 88.3 15.45 90.55 19.3 90.55 23.0 L92.7 22.05 Q95.4 20.95 98.3 20.35 107.45 18.35 114.6 21.65 123.6 25.85 123.15 33.35 122.95 37.1 120.9 40.0 L126.0 42.4 Q131.65 45.45 134.5 48.85 101.0 45.25 75.2 45.6 53.35 45.9 26.35 49.3 L3.7 52.6 3.35 49.85 Q6.05 45.4 12.6 42.25 15.85 40.7 18.55 40.0 17.25 37.8 17.25 34.6 17.3 28.25 23.95 23.45 31.8 17.8 43.0 20.05 48.6 21.2 52.65 23.45 L53.45 20.7 Q54.65 17.4 56.45 14.7" fill="#ebebeb" fill-rule="evenodd" stroke="none"/>
      <path d="M22.7 65.6 L46.1 67.6 Q63.65 68.75 77.7 68.1 93.35 67.4 110.1 64.85 125.45 62.5 132.7 60.1 L136.15 58.8 Q134.2 62.9 128.25 66.15 L122.65 68.6 121.45 74.35 Q119.6 80.7 116.2 83.55 112.85 86.35 101.35 85.9 L90.55 84.9 Q90.1 88.5 87.5 92.1 82.3 99.35 71.75 99.6 60.45 99.9 54.55 92.55 52.7 90.3 51.6 87.5 L50.85 85.2 Q47.7 87.1 43.25 88.4 34.25 91.0 27.5 88.2 20.8 85.4 19.0 78.25 18.45 76.0 18.45 73.6 L18.55 71.65 Q16.1 70.8 13.0 69.2 6.9 65.95 4.0 62.1 12.9 64.7 22.7 65.6" fill="#dedede" fill-rule="evenodd" stroke="none"/>
      <path d="M27.5 88.2 Q23.05 86.3 20.7 82.4 19.0 79.55 18.55 75.8 29.05 79.95 36.2 79.6 40.8 79.35 52.0 81.1 63.5 82.85 71.2 82.6 89.05 82.0 107.7 77.6 112.5 76.5 121.9 72.7 120.0 80.35 116.2 83.55 112.85 86.35 101.35 85.9 L90.55 84.9 Q90.1 88.5 87.5 92.1 82.3 99.35 71.75 99.6 60.45 99.9 54.55 92.55 52.7 90.3 51.6 87.5 L50.85 85.2 Q47.7 87.1 43.25 88.4 34.25 91.0 27.5 88.2" fill="#d9d9d9" fill-rule="evenodd" stroke="none"/>
    </g>
    <linearGradient gradientTransform="matrix(0.0, -4.0E-4, -4.0E-4, 0.0, 20.0, 77.15)" gradientUnits="userSpaceOnUse" id="gradient0" spreadMethod="pad" x1="-819.2" x2="819.2">
      <stop offset="0.20392156862745098" stop-color="#000000" stop-opacity="0.0"/>
      <stop offset="1.0" stop-color="#000000" stop-opacity="0.5294118"/>
    </linearGradient>
    <g id="sprite8" transform="matrix(1.0, 0.0, 0.0, 1.0, 0.0, 0.0)">
      <use height="92.8" transform="matrix(1.0, 0.0, 0.0, 1.0, 0.0, 0.0)" width="135.45" xlink:href="#shape9"/>
    </g>
    <g id="shape9" transform="matrix(1.0, 0.0, 0.0, 1.0, 0.0, 0.0)">
      <path d="M135.45 48.25 Q135.45 53.9 128.25 58.4 L121.05 61.8 119.85 67.55 Q118.0 73.9 114.6 76.75 111.25 79.55 99.75 79.1 L88.95 78.1 Q88.5 81.7 85.9 85.3 80.7 92.55 70.15 92.8 58.85 93.1 52.95 85.75 51.1 83.5 50.0 80.7 L49.25 78.4 Q46.1 80.3 41.65 81.6 32.65 84.2 25.9 81.4 19.2 78.6 17.4 71.45 16.85 69.2 16.85 66.8 L16.95 64.85 Q12.35 63.25 7.9 60.3 -0.95 54.4 0.1 47.5 1.1 40.9 9.15 36.4 13.15 34.15 16.95 33.2 15.65 31.0 15.65 27.8 15.7 21.45 22.35 16.65 30.2 11.0 41.4 13.25 47.0 14.4 51.05 16.65 51.95 12.2 54.85 7.9 60.7 -0.7 70.8 0.05 82.15 0.9 86.7 8.65 88.95 12.5 88.95 16.2 L91.1 15.25 Q93.8 14.15 96.7 13.55 105.85 11.55 113.0 14.85 122.0 19.05 121.55 26.55 121.35 30.3 119.3 33.2 L127.4 37.35 Q135.45 42.65 135.45 48.25" fill="url(#gradient1)" fill-rule="evenodd" stroke="none"/>
    </g>
    <linearGradient gradientTransform="matrix(-0.0011, -0.1047, -0.1047, 0.0011, 68.1, 84.3)" gradientUnits="userSpaceOnUse" id="gradient1" spreadMethod="pad" x1="-819.2" x2="819.2">
      <stop offset="0.00392156862745098" stop-color="#000000" stop-opacity="0.4"/>
      <stop offset="0.1450980392156863" stop-color="#000000" stop-opacity="0.23137255"/>
      <stop offset="1.0" stop-color="#000000" stop-opacity="0.0"/>
    </linearGradient>
    <g id="shape10" transform="matrix(1.0, 0.0, 0.0, 1.0, -29.95, -27.5)">
      <path d="M34.85 64.95 Q33.9 65.0 32.85 64.1 30.7 62.35 30.05 57.8 29.45 53.25 32.15 49.05 33.5 46.95 34.95 45.75 33.3 43.55 32.4 40.9 30.55 35.55 34.2 33.35 37.85 31.15 47.5 32.1 L56.4 33.5 56.4 32.55 Q56.6 31.45 57.6 30.5 60.75 27.5 70.55 27.5 79.1 27.5 83.2 30.5 85.25 32.0 85.6 33.5 L95.35 32.05 Q105.65 31.05 108.25 33.35 110.7 35.55 110.1 41.8 109.8 44.9 109.0 47.55 L110.9 50.7 Q112.8 54.75 112.8 59.1 112.8 63.5 108.9 67.0 L105.0 69.65 Q104.7 71.7 102.65 73.75 98.6 77.85 90.05 77.85 87.75 77.85 83.45 76.1 L79.65 74.35 76.95 76.4 Q73.25 78.45 67.95 78.45 62.7 78.45 59.6 76.35 L57.5 74.2 Q56.25 75.7 53.5 76.9 48.0 79.3 40.7 77.85 37.05 77.15 35.6 70.95 L34.85 64.95" fill="#b8b8b8" fill-rule="evenodd" stroke="none"/>
    </g>
    <g id="sprite9" transform="matrix(1.0, 0.0, 0.0, 1.0, 0.0, 0.0)">
      <use height="50.95" transform="matrix(1.0, 0.0, 0.0, 1.0, 0.0, 0.0)" width="82.85" xlink:href="#shape11"/>
    </g>
    <g id="shape11" transform="matrix(1.0, 0.0, 0.0, 1.0, 0.0, 0.0)">
      <path d="M79.05 20.05 L80.95 23.2 Q82.85 27.25 82.85 31.6 82.85 36.0 78.95 39.5 L75.05 42.15 Q74.75 44.2 72.7 46.25 68.65 50.35 60.1 50.35 57.8 50.35 53.5 48.6 L49.7 46.85 Q48.9 47.9 47.0 48.9 43.3 50.95 38.0 50.95 32.75 50.95 29.65 48.85 L27.55 46.7 Q26.3 48.2 23.55 49.4 18.05 51.8 10.75 50.35 7.1 49.65 5.65 43.45 L4.9 37.45 Q3.95 37.5 2.9 36.6 0.75 34.85 0.1 30.3 -0.5 25.75 2.2 21.55 L5.0 18.25 Q3.35 16.05 2.45 13.4 0.6 8.05 4.25 5.85 7.9 3.65 17.55 4.6 L26.45 6.0 26.45 5.05 Q26.65 3.95 27.65 3.0 30.8 0.0 40.6 0.0 49.15 0.0 53.25 3.0 55.3 4.5 55.65 6.0 L65.4 4.55 Q75.7 3.55 78.3 5.85 80.75 8.05 80.15 14.3 79.85 17.4 79.05 20.05" fill="url(#gradient2)" fill-rule="evenodd" stroke="none"/>
    </g>
    <linearGradient gradientTransform="matrix(0.0, -0.0494, -0.0494, 0.0, 41.4, 34.95)" gradientUnits="userSpaceOnUse" id="gradient2" spreadMethod="pad" x1="-819.2" x2="819.2">
      <stop offset="0.00392156862745098" stop-color="#000000" stop-opacity="0.4"/>
      <stop offset="0.0784313725490196" stop-color="#000000" stop-opacity="0.32941177"/>
      <stop offset="1.0" stop-color="#000000" stop-opacity="0.0"/>
    </linearGradient>
    <g id="shape12" transform="matrix(1.0, 0.0, 0.0, 1.0, -30.9, -28.9)">
      <path d="M36.4 69.5 L35.7 63.9 Q34.8 63.95 33.75 63.1 31.65 61.45 31.0 57.2 30.4 52.95 33.05 49.05 34.35 47.05 35.8 45.95 34.2 43.9 33.3 41.4 31.5 36.4 35.05 34.35 38.6 32.3 48.0 33.2 L56.7 34.5 56.7 33.65 Q56.9 32.6 57.85 31.7 60.95 28.9 70.55 28.9 78.85 28.9 82.85 31.7 84.85 33.1 85.2 34.5 L94.7 33.15 Q104.7 32.2 107.25 34.35 109.65 36.4 109.05 42.2 108.75 45.1 108.0 47.6 L109.85 50.55 Q111.7 54.35 111.7 58.45 111.7 62.55 107.9 65.85 L104.1 68.3 Q103.8 70.2 101.8 72.15 97.8 75.95 89.5 75.95 87.25 75.95 83.1 74.3 L79.4 72.65 Q78.6 73.6 76.8 74.6 73.15 76.5 68.0 76.5 62.85 76.5 59.85 74.35 L57.85 72.15 Q56.6 73.65 53.9 74.9 48.55 77.35 41.4 75.95 37.85 75.25 36.4 69.5" fill="#c4c4c4" fill-rule="evenodd" stroke="none"/>
      <path d="M38.55 40.35 L35.4 34.15 Q39.1 32.3 48.3 33.15 L56.7 34.4 56.7 33.55 Q56.9 32.5 57.85 31.65 60.95 28.9 70.55 28.9 78.85 28.9 82.85 31.65 84.85 33.05 85.2 34.4 L94.7 33.05 Q104.7 32.15 107.25 34.3 L107.65 34.65 Q103.3 40.1 102.9 40.1 L38.55 40.35" fill="#e7e7e7" fill-rule="evenodd" stroke="none"/>
      <path d="M37.75 67.9 L37.05 62.7 Q36.2 62.75 35.2 61.95 33.2 60.45 32.55 56.55 31.95 52.6 34.5 49.0 35.8 47.2 37.2 46.15 35.65 44.25 34.8 41.95 33.05 37.35 36.45 35.45 39.9 33.55 48.9 34.35 L57.25 35.55 57.25 34.75 Q57.45 33.8 58.4 33.0 61.35 30.4 70.55 30.4 78.55 30.4 82.4 33.0 84.35 34.25 84.65 35.55 L93.8 34.3 Q103.45 33.45 105.85 35.45 108.15 37.35 107.55 42.7 107.3 45.35 106.55 47.65 L108.35 50.4 Q110.1 53.85 110.1 57.65 110.1 61.45 106.45 64.5 L102.8 66.75 Q102.5 68.55 100.6 70.3 96.8 73.85 88.8 73.85 86.65 73.85 82.65 72.35 L79.1 70.8 Q78.35 71.7 76.6 72.6 73.05 74.35 68.1 74.35 63.15 74.35 60.3 72.35 L58.4 70.3 Q57.2 71.7 54.6 72.85 49.4 75.1 42.55 73.85 39.1 73.2 37.75 67.9" fill="#ffffff" fill-rule="evenodd" stroke="none"/>
      <path d="M37.75 68.2 L37.05 63.25 Q36.2 63.3 35.2 62.55 33.2 61.1 32.55 57.35 31.95 53.6 34.5 50.15 35.8 48.45 37.2 47.45 35.65 45.65 34.8 43.45 33.05 39.05 36.45 37.25 39.9 35.45 48.9 36.2 L57.25 37.35 57.25 36.6 Q57.45 35.65 58.4 34.9 61.35 32.45 70.55 32.45 78.55 32.45 82.4 34.9 84.35 36.15 84.65 37.35 L93.8 36.15 Q103.45 35.35 105.85 37.25 108.15 39.05 107.55 44.15 107.3 46.7 106.55 48.9 L108.35 51.5 Q110.1 54.85 110.1 58.45 110.1 62.05 106.45 64.95 L102.8 67.1 Q102.5 68.8 100.6 70.5 96.8 73.85 88.8 73.85 86.65 73.85 82.65 72.4 L79.1 70.95 76.6 72.65 Q73.05 74.35 68.1 74.35 63.15 74.35 60.3 72.45 L58.4 70.5 Q57.2 71.85 54.6 72.9 49.4 75.05 42.55 73.85 39.1 73.25 37.75 68.2" fill="#eeeeee" fill-rule="evenodd" stroke="none"/>
      <path d="M32.55 57.0 L32.55 56.75 Q38.95 58.95 43.0 59.6 47.5 60.35 53.95 59.85 L60.95 59.35 67.1 60.5 74.75 60.85 91.7 58.1 98.3 57.75 Q103.1 57.4 104.7 56.6 L109.6 54.25 Q110.1 56.15 110.1 58.15 110.1 61.8 106.45 64.75 L102.8 66.95 Q102.5 68.7 100.6 70.4 96.8 73.85 88.8 73.85 86.65 73.85 82.65 72.4 L79.1 70.9 Q78.35 71.75 76.6 72.65 73.05 74.35 68.1 74.35 63.15 74.35 60.3 72.4 L58.4 70.4 Q57.2 71.75 54.6 72.85 49.4 75.05 42.55 73.85 39.1 73.25 37.75 68.1 L37.05 63.05 Q36.2 63.1 35.2 62.35 33.2 60.85 32.55 57.0" fill="#e9e9e9" fill-rule="evenodd" stroke="none"/>
      <path d="M37.75 68.1 L37.05 63.05 39.9 66.1 Q43.65 69.05 48.2 68.6 52.05 68.2 55.85 67.1 58.8 66.25 60.15 66.35 L71.9 66.85 81.3 66.8 91.7 66.35 Q95.1 65.75 109.35 61.35 108.15 63.7 105.35 65.55 L102.8 66.95 Q102.5 68.7 100.6 70.4 96.8 73.85 88.8 73.85 86.65 73.85 82.65 72.4 L79.1 70.9 Q78.35 71.75 76.6 72.65 73.05 74.35 68.1 74.35 63.15 74.35 60.3 72.4 L58.4 70.4 Q57.2 71.75 54.6 72.85 49.4 75.05 42.55 73.85 39.1 73.25 37.75 68.1" fill="#e3e3e3" fill-rule="evenodd" stroke="none"/>
      <path d="M47.15 42.8 Q43.75 42.65 40.15 43.8 37.9 44.5 36.15 45.5 34.55 43.15 34.3 41.25 33.85 38.45 36.45 37.15 39.9 35.45 48.9 36.15 L57.25 37.25 57.25 36.5 Q57.45 35.65 58.4 34.95 61.35 32.6 70.55 32.6 78.55 32.6 82.4 34.95 84.35 36.1 84.65 37.25 L93.8 36.1 Q103.45 35.35 105.85 37.15 108.5 39.1 107.4 44.8 L92.2 44.2 83.55 42.95 Q76.7 41.65 73.7 41.9 L66.2 43.0 62.8 43.75 47.15 42.8" fill="#f2f2f2" fill-rule="evenodd" stroke="none"/>
    </g>
    <g id="sprite10" transform="matrix(1.0, 0.0, 0.0, 1.0, 0.0, 0.0)">
      <use height="41.5" transform="matrix(1.0, 0.0, 0.0, 1.0, 0.0, 0.0)" width="77.65" xlink:href="#shape13"/>
    </g>
    <g id="shape13" transform="matrix(1.0, 0.0, 0.0, 1.0, 0.0, 0.0)">
      <path d="M61.35 3.7 Q71.0 2.9 73.4 4.75 75.7 6.55 75.1 11.6 74.85 14.15 74.1 16.3 L75.9 18.9 Q77.65 22.2 77.65 25.75 77.65 29.35 74.0 32.2 L70.35 34.35 Q70.05 36.0 68.15 37.7 64.35 41.0 56.35 41.0 54.2 41.0 50.2 39.6 L46.65 38.15 Q45.9 39.0 44.15 39.85 40.6 41.5 35.65 41.5 30.7 41.5 27.85 39.6 L25.95 37.65 Q24.75 38.95 22.15 40.05 16.95 42.2 10.1 41.0 6.65 40.4 5.3 35.4 L4.6 30.5 Q3.75 30.55 2.75 29.8 0.75 28.4 0.1 24.7 -0.5 21.0 2.05 17.55 L4.75 14.85 Q3.2 13.05 2.35 10.9 0.6 6.55 4.0 4.75 7.45 2.95 16.45 3.75 L24.8 4.85 24.8 4.1 Q25.0 3.2 25.95 2.45 28.9 0.0 38.1 0.0 46.1 0.0 49.95 2.45 51.9 3.65 52.2 4.85 L61.35 3.7" fill="url(#gradient3)" fill-rule="evenodd" stroke="none"/>
    </g>
    <linearGradient gradientTransform="matrix(0.0, -0.0581, -0.0581, 0.0, 38.85, 45.15)" gradientUnits="userSpaceOnUse" id="gradient3" spreadMethod="pad" x1="-819.2" x2="819.2">
      <stop offset="0.00392156862745098" stop-color="#000000" stop-opacity="0.4"/>
      <stop offset="0.0784313725490196" stop-color="#000000" stop-opacity="0.32941177"/>
      <stop offset="1.0" stop-color="#000000" stop-opacity="0.0"/>
    </linearGradient>
    <g id="shape14" transform="matrix(1.0, 0.0, 0.0, 1.0, -5.15, -11.45)">
      <path d="M49.7 13.1 L52.65 14.05 53.05 12.65 55.35 15.1 52.65 20.7 48.05 18.1 49.7 13.1" fill="#d1d1d1" fill-rule="evenodd" stroke="none"/>
      <path d="M91.7 14.45 L94.7 13.75 93.35 18.75 90.55 20.25 89.35 14.45 89.7 11.45 91.7 14.45" fill="#d1d1d1" fill-rule="evenodd" stroke="none"/>
      <path d="M21.45 19.65 Q23.2 17.05 25.7 15.35 28.2 13.65 32.35 12.55 L35.95 11.85 36.55 12.55 Q37.1 13.4 36.95 14.35 36.8 15.4 34.1 16.15 L27.45 17.35 Q24.15 17.8 21.85 19.9 L20.2 21.85 21.45 19.65" fill="#ffffff" fill-rule="evenodd" stroke="none"/>
      <path d="M107.0 12.75 Q109.8 13.0 113.45 14.35 116.4 15.45 119.0 18.0 L120.95 20.35 Q116.2 17.6 113.7 16.35 112.15 15.55 108.65 15.4 L105.45 15.35 104.4 15.05 Q103.4 14.55 103.7 13.6 104.05 12.5 107.0 12.75" fill="#ffffff" fill-rule="evenodd" stroke="none"/>
      <path d="M16.7 35.35 L18.55 37.85 9.95 41.6 10.95 37.85 16.7 35.35" fill="#e0e0e0" fill-rule="evenodd" stroke="none"/>
      <path d="M123.2 35.85 L129.2 38.35 128.2 41.1 121.95 38.85 123.2 35.85" fill="#e0e0e0" fill-rule="evenodd" stroke="none"/>
      <path d="M125.2 36.35 L123.45 39.1 121.95 38.85 123.2 35.85 125.2 36.35" fill="#d1d1d1" fill-rule="evenodd" stroke="none"/>
      <path d="M16.7 35.35 L18.55 37.85 15.45 39.1 14.95 36.35 16.7 35.35" fill="#d1d1d1" fill-rule="evenodd" stroke="none"/>
      <path d="M116.2 83.55 Q112.85 86.35 101.35 85.9 L90.55 84.9 96.7 84.75 Q104.1 84.2 110.35 82.1 115.15 80.5 120.45 77.3 118.6 81.5 116.2 83.55" fill="#bfbfbf" fill-rule="evenodd" stroke="none"/>
      <path d="M51.7 83.1 L52.65 85.25 Q54.0 87.8 55.9 89.9 61.95 96.55 71.05 96.1 80.7 95.6 86.6 90.2 89.55 87.5 90.55 84.9 90.1 88.5 87.5 92.1 82.3 99.35 71.75 99.6 60.45 99.9 54.55 92.55 52.7 90.3 51.6 87.5 L50.85 85.2 Q47.7 87.1 43.25 88.4 34.25 91.0 27.5 88.2 21.75 85.8 19.6 80.1 21.35 82.35 24.45 84.1 28.35 86.25 33.05 86.75 40.8 87.6 47.05 85.45 50.15 84.35 51.7 83.1" fill="#bfbfbf" fill-rule="evenodd" stroke="none"/>
      <path d="M13.7 67.85 L19.95 69.35 18.55 71.7 18.55 71.65 13.75 69.55 Q8.3 66.8 5.15 63.5 10.85 67.0 13.7 67.85" fill="#c2c2c2" fill-rule="evenodd" stroke="none"/>
      <path d="M132.7 63.15 L132.35 63.45 Q129.75 65.6 125.95 67.3 L122.65 68.6 122.35 70.55 120.95 66.1 123.0 66.05 Q125.4 65.8 127.45 64.85 129.65 63.85 135.4 60.15 L132.7 63.15" fill="#c2c2c2" fill-rule="evenodd" stroke="none"/>
    </g>
    <g id="sprite11" transform="matrix(1.0, 0.0, 0.0, 1.0, -36.0, -36.0)">
      <use height="18.95" transform="matrix(1.0, 0.0, 0.0, 1.0, 36.0, 36.0)" width="21.0" xlink:href="#shape15"/>
    </g>
    <g id="shape15" transform="matrix(1.0, 0.0, 0.0, 1.0, -36.0, -36.0)">
      <path d="M50.05 36.6 Q56.6 38.5 57.0 44.7 57.45 51.3 49.2 54.15 41.35 56.9 37.5 50.1 36.05 47.5 36.0 44.8 36.0 42.1 37.4 41.25 L42.25 37.2 Q45.25 35.2 50.05 36.6" fill="#000000" fill-rule="evenodd" stroke="none"/>
    </g>
    <g id="sprite12" transform="matrix(1.0, 0.0, 0.0, 1.0, -0.05, 0.0)">
      <use height="15.75" transform="matrix(1.0, 0.0, 0.0, 1.0, 0.05, 0.0)" width="18.95" xlink:href="#shape16"/>
    </g>
    <g id="shape16" transform="matrix(1.0, 0.0, 0.0, 1.0, -0.05, 0.0)">
      <path d="M13.05 0.45 Q18.9 2.05 19.0 7.2 19.05 12.55 11.55 15.05 4.45 17.4 1.2 12.05 0.0 10.0 0.05 7.85 0.1 5.7 1.35 4.95 3.05 3.95 5.85 1.25 8.75 -0.75 13.05 0.45" fill="#000000" fill-rule="evenodd" stroke="none"/>
    </g>
    <g id="sprite13" transform="matrix(1.0, 0.0, 0.0, 1.0, -36.0, -35.95)">
      <use height="21.55" transform="matrix(1.0, 0.0, 0.0, 1.0, 36.0, 35.95)" width="27.7" xlink:href="#shape17"/>
    </g>
    <g id="shape17" transform="matrix(1.0, 0.0, 0.0, 1.0, -36.0, -35.95)">
      <path d="M42.1 37.0 L49.45 36.1 Q51.0 35.65 53.95 36.7 57.05 37.8 59.55 39.85 66.25 45.2 62.15 51.35 58.2 57.4 51.4 57.5 46.7 57.6 43.15 55.4 40.55 53.8 38.0 49.0 35.05 43.5 36.45 40.1 37.45 37.65 42.1 37.0" fill="#000000" fill-rule="evenodd" stroke="none"/>
    </g>
    <g id="sprite14" transform="matrix(1.0, 0.0, 0.0, 1.0, 0.05, 0.0)">
      <use height="17.5" transform="matrix(1.0, 0.0, 0.0, 1.0, -0.05, 0.0)" width="24.75" xlink:href="#shape18"/>
    </g>
    <g id="shape18" transform="matrix(1.0, 0.0, 0.0, 1.0, 0.05, 0.0)">
      <path d="M0.45 3.15 Q1.4 1.05 5.1 0.7 L11.35 0.15 15.55 0.5 Q18.5 1.25 20.85 2.8 27.05 6.9 23.3 12.2 19.55 17.4 13.3 17.5 8.95 17.6 5.65 15.7 3.3 14.35 1.35 10.5 -0.85 6.1 0.45 3.15" fill="#000000" fill-rule="evenodd" stroke="none"/>
    </g>
    <g id="sprite15" transform="matrix(1.0, 0.0, 0.0, 1.0, -36.0, -36.0)">
      <use height="16.2" transform="matrix(1.0, 0.0, 0.0, 1.0, 36.0, 36.0)" width="15.1" xlink:href="#shape19"/>
    </g>
    <g id="shape19" transform="matrix(1.0, 0.0, 0.0, 1.0, -36.0, -36.0)">
      <path d="M42.9 36.35 Q45.45 35.4 47.8 37.1 50.05 38.7 50.8 41.55 51.6 44.6 50.1 47.2 48.35 50.25 43.95 51.6 39.55 52.95 37.45 51.2 35.7 49.7 36.05 46.4 36.35 43.3 38.3 40.35 40.3 37.3 42.9 36.35" fill="#000000" fill-rule="evenodd" stroke="none"/>
    </g>
    <g id="sprite16" transform="matrix(1.0, 0.0, 0.0, 1.0, 0.0, 0.0)">
      <use height="12.85" transform="matrix(1.0, 0.0, 0.0, 1.0, 0.0, 0.0)" width="13.1" xlink:href="#shape20"/>
    </g>
    <g id="shape20" transform="matrix(1.0, 0.0, 0.0, 1.0, 0.0, 0.0)">
      <path d="M10.45 0.8 Q12.3 2.0 12.85 4.25 14.3 10.0 6.7 12.3 L1.15 12.1 Q-0.3 10.95 0.1 8.35 0.5 5.9 2.2 3.55 4.05 1.1 6.25 0.3 8.45 -0.5 10.45 0.8" fill="#000000" fill-rule="evenodd" stroke="none"/>
    </g>
    <g id="shape21" transform="matrix(1.0, 0.0, 0.0, 1.0, -54.35, -125.85)">
      <path d="M60.35 126.1 Q62.45 125.45 64.35 126.5 66.15 127.55 66.65 129.45 68.05 134.3 60.8 136.25 53.55 138.15 54.45 132.9 54.8 130.85 56.5 128.85 58.25 126.75 60.35 126.1" fill="#e6e6e6" fill-rule="evenodd" stroke="none"/>
      <path d="M60.35 127.3 Q62.45 126.7 64.35 127.7 66.15 128.6 66.65 130.3 68.05 134.6 60.8 136.3 53.55 138.0 54.45 133.35 54.8 131.5 56.5 129.75 58.25 127.9 60.35 127.3" fill="#ffffff" fill-rule="evenodd" stroke="none"/>
      <path d="M60.35 128.25 Q62.45 127.75 64.35 128.6 66.15 129.4 66.65 130.9 68.05 134.8 60.8 136.35 53.55 137.9 54.45 133.65 54.8 132.0 56.5 130.45 58.25 128.8 60.35 128.25" fill="#ebebeb" fill-rule="evenodd" stroke="none"/>
      <path d="M54.65 133.0 L60.55 132.55 66.8 131.25 Q67.1 132.85 65.75 134.1 64.2 135.6 60.8 136.35 56.75 137.2 55.2 136.05 53.85 135.05 54.65 133.0" fill="#e6e6e6" fill-rule="evenodd" stroke="none"/>
      <path d="M60.35 128.25 L63.85 128.35 Q65.4 128.9 66.25 130.1 L55.9 131.05 Q57.8 128.9 60.35 128.25" fill="#f0f0f0" fill-rule="evenodd" stroke="none"/>
      <path d="M66.75 132.5 Q66.15 135.2 60.8 136.35 54.95 137.5 54.4 134.8 L59.85 134.25 66.75 132.5" fill="#d9d9d9" fill-rule="evenodd" stroke="none"/>
      <path d="M55.05 135.65 L57.1 135.8 60.7 135.65 Q62.85 135.15 66.75 132.5 L65.6 134.1 Q63.8 135.8 60.8 136.35 57.75 136.9 56.1 136.3 L55.05 135.65" fill="#c2c2c2" fill-rule="evenodd" stroke="none"/>
    </g>
    <g id="sprite17" transform="matrix(1.0, 0.0, 0.0, 1.0, 0.0, 0.0)">
      <use height="8.7" transform="matrix(1.0, 0.0, 0.0, 1.0, 0.0, 0.0)" width="12.55" xlink:href="#shape22"/>
    </g>
    <g id="shape22" transform="matrix(1.0, 0.0, 0.0, 1.0, 0.0, 0.0)">
      <path d="M6.0 0.2 Q8.1 -0.3 10.0 0.55 11.8 1.35 12.3 2.85 13.7 6.75 6.45 8.3 -0.8 9.85 0.1 5.6 0.45 3.95 2.15 2.4 3.9 0.75 6.0 0.2" fill="url(#gradient4)" fill-rule="evenodd" stroke="none"/>
    </g>
    <linearGradient gradientTransform="matrix(0.0, -0.0109, -0.0109, 0.0, 6.25, 7.65)" gradientUnits="userSpaceOnUse" id="gradient4" spreadMethod="pad" x1="-819.2" x2="819.2">
      <stop offset="0.00392156862745098" stop-color="#000000" stop-opacity="0.4"/>
      <stop offset="0.0784313725490196" stop-color="#000000" stop-opacity="0.32941177"/>
      <stop offset="1.0" stop-color="#000000" stop-opacity="0.0"/>
    </linearGradient>
    <g id="shape23" transform="matrix(1.0, 0.0, 0.0, 1.0, -32.1, -116.0)">
      <path d="M33.4 120.35 Q35.0 119.5 37.7 117.1 40.45 115.35 44.5 116.4 50.05 117.8 50.05 122.05 50.05 126.55 42.9 128.75 36.15 130.85 33.2 126.4 32.05 124.7 32.1 122.85 32.2 121.05 33.4 120.35" fill="#e6e6e6" fill-rule="evenodd" stroke="none"/>
      <path d="M37.7 118.6 Q40.45 117.05 44.5 117.95 50.05 119.2 50.05 122.95 50.05 126.9 42.9 128.85 36.15 130.65 33.2 126.75 32.05 125.25 32.1 123.65 32.2 122.05 33.4 121.45 35.0 120.7 37.7 118.6" fill="#ffffff" fill-rule="evenodd" stroke="none"/>
      <path d="M37.7 119.65 Q40.45 118.25 44.5 119.1 50.05 120.25 50.05 123.6 50.05 127.15 42.9 128.9 36.15 130.55 33.2 127.0 32.05 125.7 32.1 124.2 32.2 122.8 33.4 122.25 35.0 121.55 37.7 119.65" fill="#ebebeb" fill-rule="evenodd" stroke="none"/>
      <path d="M42.9 128.9 Q37.65 130.2 34.45 128.1 31.8 126.35 32.15 123.95 L33.5 125.1 40.95 125.5 Q46.7 124.75 50.05 123.6 50.05 125.15 48.35 126.5 46.5 128.0 42.9 128.9" fill="#e6e6e6" fill-rule="evenodd" stroke="none"/>
      <path d="M41.15 127.2 Q44.4 126.95 49.4 125.45 47.85 127.7 42.9 128.9 39.1 129.85 36.3 129.0 33.95 128.25 32.85 126.5 L41.15 127.2" fill="#d9d9d9" fill-rule="evenodd" stroke="none"/>
      <path d="M37.7 119.65 Q40.45 118.25 44.5 119.1 47.9 119.8 49.35 121.7 L42.9 122.05 36.15 122.35 33.4 122.25 Q35.0 121.55 37.7 119.65" fill="#f0f0f0" fill-rule="evenodd" stroke="none"/>
      <path d="M39.2 128.75 L43.5 128.35 Q44.9 128.05 46.45 127.2 L50.3 124.25 Q49.85 125.35 48.8 126.5 46.65 128.9 43.45 129.35 L36.05 129.05 Q35.25 128.75 34.0 127.6 L32.85 126.5 34.65 127.65 Q36.9 128.75 39.2 128.75" fill="#c2c2c2" fill-rule="evenodd" stroke="none"/>
    </g>
    <g id="sprite18" transform="matrix(1.0, 0.0, 0.0, 1.0, 0.0, -0.05)">
      <use height="11.05" transform="matrix(1.0, 0.0, 0.0, 1.0, 0.0, 0.05)" width="18.0" xlink:href="#shape24"/>
    </g>
    <g id="shape24" transform="matrix(1.0, 0.0, 0.0, 1.0, 0.0, -0.05)">
      <path d="M12.35 0.35 Q17.95 1.5 18.0 5.1 18.1 8.85 10.95 10.6 4.2 12.25 1.15 8.5 -0.05 7.05 0.0 5.55 0.05 4.05 1.25 3.5 2.85 2.8 5.55 0.9 8.3 -0.5 12.35 0.35" fill="url(#gradient5)" fill-rule="evenodd" stroke="none"/>
    </g>
    <linearGradient gradientTransform="matrix(0.0, -0.0201, -0.0201, 0.0, 9.0, 8.95)" gradientUnits="userSpaceOnUse" id="gradient5" spreadMethod="pad" x1="-819.2" x2="819.2">
      <stop offset="0.00392156862745098" stop-color="#000000" stop-opacity="0.4"/>
      <stop offset="0.0784313725490196" stop-color="#000000" stop-opacity="0.32941177"/>
      <stop offset="1.0" stop-color="#000000" stop-opacity="0.0"/>
    </linearGradient>
    <g id="shape25" transform="matrix(1.0, 0.0, 0.0, 1.0, -17.2, -94.85)">
      <path d="M28.85 94.95 L33.15 95.25 Q36.1 95.95 38.5 97.4 44.85 101.2 41.0 106.1 37.25 110.95 30.8 111.05 26.35 111.1 23.0 109.35 20.6 108.15 18.65 104.55 16.35 100.5 17.7 97.75 18.65 95.8 22.5 95.5 L28.85 94.95" fill="#e6e6e6" fill-rule="evenodd" stroke="none"/>
      <path d="M17.7 98.9 Q18.65 97.15 22.5 96.85 L28.85 96.35 Q32.75 95.45 38.5 98.6 44.85 102.05 41.0 106.55 37.25 110.95 30.8 111.05 26.3 111.15 23.0 109.5 20.6 108.35 18.65 105.1 16.35 101.4 17.7 98.9" fill="#ffffff" fill-rule="evenodd" stroke="none"/>
      <path d="M17.7 100.0 Q18.65 98.35 22.5 98.1 L28.85 97.65 Q32.8 96.85 38.5 99.7 44.85 102.85 41.0 106.95 37.25 111.0 30.8 111.05 26.35 111.1 23.0 109.65 20.6 108.6 18.65 105.65 16.35 102.3 17.7 100.0" fill="#e6e6e6" fill-rule="evenodd" stroke="none"/>
      <path d="M27.8 103.35 Q23.55 102.55 17.55 103.4 16.9 101.4 17.7 100.0 18.65 98.35 22.5 98.1 L28.85 97.65 Q32.4 96.9 37.95 99.4 44.1 102.2 41.8 105.95 L27.8 103.35" fill="#ebebeb" fill-rule="evenodd" stroke="none"/>
      <path d="M40.8 107.1 Q37.05 111.0 30.7 111.05 26.35 111.1 23.0 109.65 20.75 108.65 18.85 105.95 L28.85 106.8 40.8 107.1" fill="#d9d9d9" fill-rule="evenodd" stroke="none"/>
      <path d="M20.75 108.1 Q19.45 106.95 18.6 105.55 L22.55 108.3 Q25.8 109.9 31.2 110.05 34.0 110.15 37.65 108.25 L42.0 105.55 41.0 106.95 Q37.25 111.0 30.8 111.05 26.35 111.1 23.0 109.65 L20.75 108.1" fill="#c2c2c2" fill-rule="evenodd" stroke="none"/>
      <path d="M30.15 100.3 Q24.2 99.75 17.3 101.2 L17.7 100.0 Q18.65 98.35 22.5 98.1 L28.85 97.65 Q31.05 97.2 35.25 98.45 39.85 99.8 41.55 102.0 L30.15 100.3" fill="#f0f0f0" fill-rule="evenodd" stroke="none"/>
    </g>
    <g id="sprite19" transform="matrix(1.0, 0.0, 0.0, 1.0, 0.05, 0.1)">
      <use height="13.6" transform="matrix(1.0, 0.0, 0.0, 1.0, -0.05, -0.1)" width="25.25" xlink:href="#shape26"/>
    </g>
    <g id="shape26" transform="matrix(1.0, 0.0, 0.0, 1.0, 0.05, 0.1)">
      <path d="M0.45 2.45 Q1.4 0.8 5.25 0.55 L11.6 0.1 Q15.55 -0.7 21.25 2.15 27.6 5.3 23.75 9.4 20.0 13.45 13.55 13.5 9.1 13.55 5.75 12.1 3.35 11.05 1.4 8.1 -0.9 4.75 0.45 2.45" fill="url(#gradient6)" fill-rule="evenodd" stroke="none"/>
    </g>
    <linearGradient gradientTransform="matrix(0.0, -0.0203, -0.0203, 0.0, 12.55, 10.8)" gradientUnits="userSpaceOnUse" id="gradient6" spreadMethod="pad" x1="-819.2" x2="819.2">
      <stop offset="0.00392156862745098" stop-color="#000000" stop-opacity="0.4"/>
      <stop offset="0.0784313725490196" stop-color="#000000" stop-opacity="0.32941177"/>
      <stop offset="1.0" stop-color="#000000" stop-opacity="0.0"/>
    </linearGradient>
    <g id="shape27" transform="matrix(1.0, 0.0, 0.0, 1.0, -94.45, -45.5)">
      <path d="M106.35 54.2 Q106.35 56.75 104.7 58.55 103.1 60.35 100.8 60.35 98.5 60.35 96.9 58.55 95.25 56.75 95.25 54.2 95.25 51.6 96.9 49.8 98.5 48.0 100.8 48.0 103.1 48.0 104.7 49.8 106.35 51.6 106.35 54.2" fill="#b8b8b0" fill-rule="evenodd" stroke="none"/>
      <path d="M105.75 53.55 Q105.75 55.9 104.2 57.5 102.7 59.15 100.5 59.15 98.35 59.15 96.8 57.5 95.25 55.9 95.25 53.55 95.25 51.25 96.8 49.65 98.35 48.0 100.5 48.0 102.65 48.0 104.2 49.65 105.75 51.25 105.75 53.55" fill="#7d8aa6" fill-rule="evenodd" stroke="none"/>
      <path d="M105.2 53.15 Q105.2 55.3 103.75 56.8 102.3 58.3 100.25 58.3 98.2 58.3 96.7 56.8 95.25 55.3 95.25 53.15 95.25 51.0 96.7 49.5 98.2 48.0 100.25 48.0 102.3 48.0 103.75 49.5 105.2 51.0 105.2 53.15" fill="#98a9c7" fill-rule="evenodd" stroke="none"/>
      <path d="M103.9 52.3 Q103.9 54.1 102.7 55.4 101.5 56.65 99.8 56.65 98.1 56.65 96.85 55.4 95.65 54.1 95.65 52.3 95.65 50.55 96.85 49.25 98.1 48.0 99.8 48.0 101.5 48.0 102.7 49.25 103.9 50.55 103.9 52.3" fill="#718094" fill-rule="evenodd" stroke="none"/>
      <path d="M103.7 50.45 Q103.7 52.5 102.35 53.95 100.95 55.4 99.05 55.4 97.15 55.4 95.8 53.95 94.45 52.5 94.45 50.45 94.45 48.4 95.8 46.95 97.15 45.5 99.05 45.5 100.95 45.5 102.35 46.95 103.7 48.4 103.7 50.45" fill="#9eb3cf" fill-rule="evenodd" stroke="none"/>
      <path d="M102.25 49.7 Q102.25 51.45 101.1 52.7 99.95 53.95 98.35 53.95 96.7 53.95 95.6 52.7 94.45 51.45 94.45 49.7 94.45 47.95 95.6 46.75 96.7 45.5 98.35 45.5 99.95 45.5 101.1 46.75 102.25 47.95 102.25 49.7" fill="#b5c9ed" fill-rule="evenodd" stroke="none"/>
      <path d="M100.2 48.8 Q100.2 50.0 99.5 50.85 98.75 51.7 97.7 51.7 96.7 51.7 95.95 50.85 95.25 50.0 95.25 48.8 95.25 47.55 95.95 46.7 96.7 45.85 97.7 45.85 98.75 45.85 99.5 46.7 100.2 47.55 100.2 48.8" fill="#c3d9ff" fill-rule="evenodd" stroke="none"/>
      <path d="M99.2 48.5 Q99.2 49.15 98.75 49.6 98.25 50.1 97.6 50.1 96.95 50.1 96.5 49.6 96.05 49.15 96.05 48.5 96.05 47.85 96.5 47.35 96.95 46.85 97.6 46.85 98.25 46.85 98.75 47.35 99.2 47.8 99.2 48.5" fill="#deeaff" fill-rule="evenodd" stroke="none"/>
    </g>
  </defs>
</svg>
