<?xml version="1.0" encoding="UTF-8" standalone="no"?>
<svg xmlns:xlink="http://www.w3.org/1999/xlink" height="100.0px" width="100.0px" xmlns="http://www.w3.org/2000/svg">
  <g transform="matrix(1.0, 0.0, 0.0, 1.0, 0.0, 0.0)">
    <use height="63.4" transform="matrix(1.0, 0.0, 0.0, 1.0, 15.7, 17.35)" width="66.7" xlink:href="#shape0"/>
    <use height="88.3" transform="matrix(0.6695, 0.0, 0.0, 0.6695, 21.35, 17.85)" width="89.7" xlink:href="#sprite0"/>
    <use height="37.2" transform="matrix(1.0, 0.0, 0.0, 1.0, 37.3, 31.1)" width="33.3" xlink:href="#shape2"/>
    <use height="42.9" transform="matrix(0.996, -0.0264, 0.0264, 0.996, 36.0096, 27.7275)" width="37.3" xlink:href="#shape3"/>
  </g>
  <defs>
    <g id="shape0" transform="matrix(1.0, 0.0, 0.0, 1.0, 33.35, 31.7)">
      <path d="M22.0 -24.5 L23.85 -27.45 Q26.1 -30.75 27.1 -30.15 27.55 -29.9 27.75 -28.5 L27.95 -25.85 27.95 -24.35 27.45 -22.9 Q26.5 -20.6 22.7 -18.6 19.3 -16.8 18.8 -14.3 18.6 -13.15 24.55 -12.75 31.05 -12.25 31.9 -11.0 L32.95 -9.3 Q33.35 -8.35 33.35 -6.75 33.4 -5.25 33.05 -4.25 32.55 -2.95 30.85 -0.4 28.3 3.5 18.7 14.65 L8.35 26.55 7.0 28.4 Q6.0 29.75 4.9 30.55 1.6 32.85 -3.0 30.45 L-17.25 22.8 -28.05 16.7 -30.75 14.9 Q-32.3 13.65 -32.5 12.55 L-33.1 10.45 Q-33.5 8.7 -33.2 8.35 -31.5 6.4 -18.3 -1.55 L-4.1 -10.25 Q-0.3 -13.75 1.65 -14.6 L5.8 -14.8 10.95 -13.15 Q12.8 -12.45 14.4 -12.8 11.5 -12.25 18.35 -20.5 L21.95 -24.5 22.0 -24.5" fill="#a18544" fill-rule="evenodd" stroke="none"/>
      <path d="M-27.3 12.75 L-28.15 13.9 -27.65 16.9 -28.05 16.7 -28.9 16.25 -29.3 13.2 -30.95 12.15 -30.25 15.3 -31.7 14.25 -32.55 9.8 -17.15 5.65 -3.2 12.95 2.55 27.15 5.05 30.6 Q3.45 31.6 1.6 31.7 L0.75 26.8 -2.6 27.45 -2.0 31.0 -3.4 30.4 -4.1 30.0 -5.1 26.25 -7.6 24.95 -7.25 28.35 -8.6 27.65 -9.8 23.2 -11.45 19.85 -13.55 21.8 -13.3 25.0 -15.65 23.7 -16.0 20.55 -20.05 16.9 -20.75 18.0 -19.95 21.15 -21.35 20.45 -22.05 15.9 -24.95 15.7 -24.3 18.95 -25.25 18.5 -25.8 15.25 -27.3 12.75" fill="#8a723a" fill-rule="evenodd" stroke="none"/>
      <path d="M21.0 -21.05 Q20.8 -19.85 22.45 -18.45 19.8 -16.9 18.8 -11.65 L24.55 -11.45 Q31.0 -12.35 31.9 -11.0 L32.95 -9.3 Q33.35 -8.35 33.35 -6.75 33.4 -5.25 33.05 -4.25 32.55 -2.95 30.85 -0.4 28.3 3.5 18.7 14.65 L8.35 26.55 6.4 29.15 Q4.8 31.05 2.8 31.5 L3.0 29.95 2.75 26.55 Q2.4 20.85 0.85 17.8 L-0.6 15.9 Q7.7 -0.25 14.6 -12.85 11.3 -12.05 18.35 -20.55 L22.0 -24.55 23.8 -27.45 23.95 -26.95 23.75 -26.25 Q21.15 -22.5 21.0 -21.05" fill="#826a31" fill-rule="evenodd" stroke="none"/>
      <path d="M30.1 -4.05 Q27.5 -0.3 17.85 10.95 L7.55 22.9 Q5.0 26.25 4.05 26.85 0.75 29.05 -3.9 26.65 L-18.1 19.05 -28.85 13.05 Q-31.6 11.3 -32.35 10.55 -34.1 8.75 -32.7 7.15 -30.85 5.0 -18.45 -6.3 L-4.9 -18.6 Q-1.05 -22.1 0.85 -22.9 L5.0 -23.1 10.15 -21.45 13.75 -21.15 Q17.55 -22.05 18.6 -24.85 L19.25 -27.2 Q19.65 -28.6 20.3 -29.35 23.1 -32.75 25.95 -31.25 28.75 -29.8 27.2 -26.25 26.25 -23.9 23.0 -22.65 20.05 -21.45 19.6 -19.05 19.35 -17.55 22.6 -15.95 24.4 -15.1 27.45 -14.05 31.1 -12.55 31.9 -11.1 33.25 -8.65 30.1 -4.05" fill="#d9b96a" fill-rule="evenodd" stroke="none"/>
      <path d="M4.7 -23.15 L5.7 -22.95 Q3.0 -17.9 0.3 -15.4 -3.35 -12.05 -9.6 -10.35 -15.55 -8.75 -17.85 -4.15 L-19.55 0.3 -21.45 5.25 Q-23.5 9.3 -28.25 13.4 L-29.45 12.7 Q-24.5 8.7 -22.65 4.45 L-18.7 -3.95 Q-16.25 -8.3 -13.65 -9.85 -12.25 -10.75 -6.65 -13.15 -1.9 -15.25 0.1 -16.9 2.15 -18.5 4.7 -23.15" fill="#c4a657" fill-rule="evenodd" stroke="none"/>
      <path d="M-5.05 -3.4 Q-2.9 -5.9 -1.5 -8.05 L0.8 -12.7 Q2.6 -16.35 6.4 -22.75 L7.5 -22.45 Q6.4 -20.35 2.65 -11.5 -0.2 -4.65 -2.2 -2.05 -5.15 1.75 -10.55 5.05 -14.3 7.35 -19.85 9.65 -22.9 10.95 -25.1 15.2 L-25.9 14.7 Q-23.65 11.45 -20.55 8.55 -16.8 5.05 -13.25 3.4 -9.35 1.6 -5.05 -3.4" fill="#c4a657" fill-rule="evenodd" stroke="none"/>
      <path d="M-25.05 -0.2 L-19.6 -5.25 -21.35 -2.05 Q-24.1 3.05 -25.75 5.45 -27.25 7.7 -30.05 10.7 L-31.05 11.65 -32.8 10.05 -31.45 9.1 Q-29.7 7.9 -28.0 5.2 L-25.05 -0.2" fill="#c4a657" fill-rule="evenodd" stroke="none"/>
      <path d="M-3.65 -19.75 L-3.6 -19.75 Q0.15 -20.55 1.95 -23.25 L2.8 -23.4 Q0.9 -19.75 -2.1 -17.85 -4.5 -16.2 -8.75 -15.1 L-3.65 -19.75" fill="#c4a657" fill-rule="evenodd" stroke="none"/>
      <path d="M31.05 -12.1 L32.1 -10.65 Q28.6 -7.75 27.75 -0.95 L24.8 2.75 Q25.65 -7.05 31.05 -12.1" fill="#c4a657" fill-rule="evenodd" stroke="none"/>
      <path d="M22.05 -27.75 L25.05 -31.55 26.25 -31.05 25.65 -29.9 Q24.15 -27.3 19.55 -23.35 14.85 -19.35 13.25 -16.6 11.65 -13.9 9.15 -6.5 6.5 1.2 4.8 4.45 2.55 8.6 -2.8 12.3 L-10.1 16.4 Q-11.85 17.3 -13.65 21.3 L-16.1 20.0 Q-14.55 17.4 -12.3 15.45 -9.45 12.95 -6.05 12.0 -1.8 10.8 2.15 4.5 4.7 0.5 7.6 -6.5 L11.1 -14.95 Q13.15 -19.4 15.5 -21.7 17.4 -22.5 18.2 -24.0 L22.05 -27.75" fill="#c4a657" fill-rule="evenodd" stroke="none"/>
      <path d="M21.85 -16.35 Q23.2 -15.65 24.4 -15.2 22.4 -12.25 20.05 -5.75 L15.8 6.0 Q13.2 12.8 9.45 15.9 L5.75 18.25 Q2.75 19.95 1.5 20.85 -1.05 22.6 -2.7 26.95 L-4.35 26.25 -5.25 25.75 Q-3.5 22.5 -0.1 19.75 L6.35 15.1 Q10.45 11.9 13.3 6.2 15.4 1.8 17.15 -4.9 18.85 -11.7 21.85 -16.35" fill="#c4a657" fill-rule="evenodd" stroke="none"/>
      <path d="M-2.4 0.7 Q2.6 -5.05 4.7 -12.2 6.6 -18.55 9.15 -21.85 L11.7 -21.05 Q9.1 -17.75 6.5 -11.6 3.45 -4.3 1.75 -1.5 -1.65 3.95 -5.5 7.1 -8.7 9.65 -14.2 12.0 -18.6 13.85 -20.85 17.5 L-22.3 16.7 Q-19.55 11.85 -13.15 8.9 -7.05 6.05 -2.4 0.7" fill="#c4a657" fill-rule="evenodd" stroke="none"/>
      <path d="M27.1 -14.2 L28.65 -13.55 Q26.15 -11.3 23.9 -4.75 22.1 0.7 20.85 7.45 L7.55 22.9 5.2 25.65 Q3.1 27.45 0.6 27.55 2.55 23.4 7.25 19.95 12.55 16.1 13.7 14.35 18.3 7.5 22.9 -8.05 24.0 -11.95 27.1 -14.2" fill="#c4a657" fill-rule="evenodd" stroke="none"/>
      <path d="M27.05 -30.2 Q27.6 -29.45 27.65 -28.45 25.9 -27.45 24.5 -25.75 L22.35 -22.4 Q21.25 -21.9 20.7 -21.25 19.85 -20.45 19.6 -19.05 19.5 -18.35 20.05 -17.7 17.05 -11.15 13.8 -1.8 11.35 5.5 8.1 9.2 5.65 12.0 -0.6 15.9 -5.7 19.05 -7.7 24.45 L-9.9 23.3 Q-6.35 19.15 -1.4 14.25 L6.25 6.8 Q9.35 3.65 13.05 -5.45 L17.55 -17.65 Q18.95 -21.45 27.05 -30.2" fill="#c4a657" fill-rule="evenodd" stroke="none"/>
      <path d="M-5.55 -5.95 Q-7.3 -3.2 -9.85 -0.9 -12.5 1.45 -13.6 1.05 -14.75 0.65 -14.4 -1.65 -14.0 -4.05 -12.35 -5.15 L-9.5 -6.75 Q-8.4 -7.05 -8.4 -5.95 -8.4 -4.95 -9.45 -4.05 L-10.5 -3.35 -9.8 -4.0 Q-9.2 -4.65 -9.9 -4.9 -10.8 -5.2 -11.55 -4.55 -12.35 -3.9 -12.5 -2.55 -12.65 -1.2 -11.5 -1.5 -10.4 -1.85 -8.9 -3.6 L-6.75 -6.2 Q-6.3 -7.1 -7.45 -7.5 -8.9 -8.05 -10.6 -7.25 -12.65 -6.35 -14.55 -3.85 -15.6 -2.6 -16.25 -0.05 L-16.75 2.25 -17.1 1.3 Q-17.3 -0.1 -16.8 -2.2 -16.3 -4.3 -15.45 -5.4 -14.05 -7.2 -11.0 -8.3 -6.75 -9.8 -5.3 -9.15 -3.85 -8.55 -5.55 -5.95" fill="#c4a657" fill-rule="evenodd" stroke="none"/>
      <path d="M25.05 -30.15 Q27.45 -28.9 25.1 -26.4 24.2 -25.4 23.1 -25.05 21.85 -24.65 21.1 -25.3 19.9 -26.45 21.7 -28.65 23.5 -30.95 25.05 -30.15" fill="url(#gradient0)" fill-rule="evenodd" stroke="none"/>
    </g>
    <linearGradient gradientTransform="matrix(0.0028, 5.0E-4, 3.0E-4, -0.0029, 24.0, -27.45)" gradientUnits="userSpaceOnUse" id="gradient0" spreadMethod="pad" x1="-819.2" x2="819.2">
      <stop offset="0.0" stop-color="#967c38"/>
      <stop offset="1.0" stop-color="#d6ac59"/>
    </linearGradient>
    <g id="sprite0" transform="matrix(1.0, 0.0, 0.0, 1.0, 0.0, 0.0)">
      <use height="88.3" transform="matrix(1.0, 0.0, 0.0, 1.0, 0.0, 0.0)" width="89.7" xlink:href="#shape1"/>
    </g>
    <g id="shape1" transform="matrix(1.0, 0.0, 0.0, 1.0, 0.0, 0.0)">
      <path d="M28.0 24.35 L35.8 17.3 42.55 88.3 Q39.3 88.4 35.6 86.4 L33.85 85.5 28.0 24.35" fill="#ffffff" fill-rule="evenodd" stroke="none"/>
      <path d="M1.7 68.1 L0.0 50.0 22.15 29.65 27.1 81.95 Q9.75 72.7 1.7 68.1" fill="#ffffff" fill-rule="evenodd" stroke="none"/>
      <path d="M82.7 25.75 Q88.0 27.95 89.15 30.2 91.0 33.8 86.35 40.6 L84.4 43.25 82.7 25.75" fill="#ffffff" fill-rule="evenodd" stroke="none"/>
      <path d="M66.55 13.05 Q68.3 11.75 69.15 9.55 L70.3 5.65 71.3 16.35 70.7 18.2 Q70.5 19.3 71.7 20.5 L75.0 54.85 71.0 59.55 66.55 13.05" fill="#ffffff" fill-rule="evenodd" stroke="none"/>
      <path d="M54.4 13.75 L58.2 15.1 Q60.0 15.5 61.95 15.05 63.1 14.8 64.7 14.15 L69.25 61.6 59.95 72.35 54.4 13.75" fill="#ffffff" fill-rule="evenodd" stroke="none"/>
      <path d="M82.5 2.9 Q83.1 5.0 82.05 7.45 L81.1 9.1 80.25 0.0 Q81.95 0.95 82.5 2.9" fill="#ffffff" fill-rule="evenodd" stroke="none"/>
    </g>
    <g id="shape2" transform="matrix(1.0, 0.0, 0.0, 1.0, -37.3, -31.1)">
      <path d="M50.25 36.9 L59.5 45.85 Q63.2 49.75 66.45 54.45 70.4 60.05 70.55 62.7 L70.55 66.5 Q70.3 67.45 69.0 68.15 67.55 68.9 67.4 66.2 L67.5 63.25 64.6 67.4 65.5 64.15 Q66.0 61.45 64.65 60.65 63.3 60.1 63.05 59.8 62.65 59.4 62.4 57.7 62.1 56.1 61.0 55.25 L59.9 54.7 Q57.85 55.75 55.1 57.9 53.35 59.2 50.2 60.2 L47.45 60.95 46.25 59.9 Q44.65 57.95 42.8 53.55 39.85 46.45 37.3 36.7 L44.1 31.1 50.25 36.9" fill="#634325" fill-rule="evenodd" stroke="none"/>
    </g>
    <g id="shape3" transform="matrix(1.0, 0.0, 0.0, 1.0, 18.65, 21.45)">
      <path d="M-3.85 -2.95 L2.2 -3.4 9.1 -3.05 Q10.1 -1.9 9.9 0.3 L9.5 2.35 8.0 3.6 Q5.4 5.4 -0.05 8.05 -4.05 9.95 -6.3 10.65 L-7.8 10.95 -7.85 3.95 -3.85 -2.95" fill="#7a7a7a" fill-rule="evenodd" stroke="none"/>
      <path d="M-3.9 4.55 L-4.2 7.05 Q-4.15 8.85 -3.1 9.4 -6.9 11.05 -7.8 10.95 L-7.85 5.85 -3.9 4.55" fill="#999999" fill-rule="evenodd" stroke="none"/>
      <path d="M9.7 -2.55 Q8.85 -2.45 7.35 -1.75 4.35 -0.4 1.1 2.65 L-7.8 10.95 -9.15 8.7 Q-11.0 5.0 -13.55 -1.9 -16.3 -9.5 -17.75 -16.25 L-18.65 -21.45 -14.2 -20.85 Q-8.55 -19.4 -2.9 -15.05 3.35 -10.2 7.15 -5.9 L9.7 -2.55" fill="url(#gradient1)" fill-rule="evenodd" stroke="none"/>
      <path d="M-2.9 -15.05 Q3.35 -10.2 7.15 -5.9 L9.7 -2.55 8.75 -2.55 4.1 -8.15 Q-0.4 -13.05 -5.25 -16.3 -10.1 -19.55 -14.2 -20.65 L-18.65 -21.35 -18.65 -21.45 -14.2 -20.85 Q-8.55 -19.4 -2.9 -15.05" fill="#ededed" fill-rule="evenodd" stroke="none"/>
      <path d="M-13.55 -1.9 Q-16.3 -9.5 -17.75 -16.25 L-18.65 -21.45 -17.65 -21.45 -15.0 -21.05 Q-14.7 -17.9 -13.55 -13.75 -12.0 -8.15 -9.35 -2.1 -7.25 2.6 -3.65 7.05 L-7.8 10.95 -9.15 8.7 Q-11.0 5.0 -13.55 -1.9" fill="#c9c9c9" fill-rule="evenodd" stroke="none"/>
      <path d="M-13.1 -12.1 L-16.35 -10.7 -16.85 -12.5 -13.45 -13.4 -13.1 -12.1" fill="#e6e6e6" fill-rule="evenodd" stroke="none"/>
      <path d="M-18.25 -18.75 L-14.75 -19.15 -13.9 -15.1 -17.3 -14.3 -18.25 -18.75" fill="#e6e6e6" fill-rule="evenodd" stroke="none"/>
      <path d="M-5.4 4.7 Q-6.95 6.6 -8.6 9.75 L-9.9 7.1 -6.55 3.05 -5.4 4.7" fill="#e6e6e6" fill-rule="evenodd" stroke="none"/>
      <path d="M-14.2 -3.85 L-15.65 -8.2 -12.5 -10.35 -11.15 -6.5 -14.2 -3.85" fill="#e6e6e6" fill-rule="evenodd" stroke="none"/>
      <path d="M-10.6 -5.1 L-8.85 -1.1 -11.9 2.35 -13.4 -1.55 -10.6 -5.1" fill="#e6e6e6" fill-rule="evenodd" stroke="none"/>
      <path d="M7.9 0.55 L10.65 1.05 10.7 3.05 9.25 4.2 Q7.85 5.35 6.45 4.9 L5.15 3.85 4.75 0.7 5.95 0.75 7.9 0.55" fill="#919191" fill-rule="evenodd" stroke="none"/>
      <path d="M11.35 0.6 Q11.7 1.25 10.65 1.05 9.4 1.3 8.35 1.95 L6.55 2.95 4.75 0.7 5.2 0.15 Q5.95 -0.5 7.35 -0.95 L9.5 -1.1 10.3 -0.5 11.35 0.6" fill="#b5b5b5" fill-rule="evenodd" stroke="none"/>
      <path d="M15.65 10.75 L16.05 14.25 Q16.05 18.1 14.05 19.95 12.65 21.25 11.95 21.25 11.15 21.2 11.05 19.45 10.8 16.4 11.3 15.15 11.65 14.25 11.35 13.15 11.25 12.55 9.35 11.35 7.6 10.2 7.65 9.15 7.7 6.95 6.45 5.9 L5.25 5.2 5.0 1.6 6.05 1.4 8.2 1.3 Q9.15 1.4 10.2 2.65 L11.05 3.85 15.65 10.75" fill="#855d2d" fill-rule="evenodd" stroke="none"/>
      <path d="M18.4 12.05 L18.65 15.0 Q18.5 18.25 16.4 19.85 15.5 20.55 13.5 21.1 L10.9 21.3 Q10.4 20.15 10.35 18.15 10.3 16.35 10.5 15.8 10.7 15.3 11.85 14.15 L12.95 13.1 Q13.9 10.85 14.8 9.4 L18.4 12.05" fill="#664723" fill-rule="evenodd" stroke="none"/>
      <path d="M17.8 14.4 Q16.35 17.65 11.5 17.4 10.05 17.35 10.9 15.1 L12.8 10.95 Q13.35 9.4 11.8 8.8 9.1 7.8 8.9 7.6 8.05 6.9 8.1 5.65 8.1 4.4 7.6 3.95 L6.45 2.9 5.3 2.15 Q4.3 1.75 5.85 0.65 7.45 -0.45 8.95 -0.4 10.65 -0.35 12.25 0.95 14.25 2.65 16.65 6.7 19.3 11.15 17.8 14.4" fill="#9c7444" fill-rule="evenodd" stroke="none"/>
      <path d="M13.0 17.35 L12.0 17.4 Q11.7 15.0 11.75 13.35 L12.7 11.25 12.65 14.15 Q12.55 15.2 13.0 17.35" fill="#b88950" fill-rule="evenodd" stroke="none"/>
      <path d="M11.95 8.65 L12.1 8.95 10.8 8.5 Q9.7 5.95 8.65 5.15 L7.9 4.45 7.6 3.95 7.4 3.8 6.35 2.55 5.1 1.4 5.55 0.9 7.0 2.05 8.25 3.5 10.3 6.5 11.95 8.65" fill="#b88950" fill-rule="evenodd" stroke="none"/>
      <path d="M17.1 7.5 Q18.1 9.55 18.3 11.45 18.4 13.25 17.7 14.6 17.8 11.45 17.4 8.85 L17.1 7.5" fill="#b88950" fill-rule="evenodd" stroke="none"/>
      <path d="M6.45 0.6 L6.3 0.4 6.9 0.1 8.6 1.75 10.55 3.05 Q11.45 3.7 11.8 4.7 L12.85 6.45 Q13.55 7.4 13.75 8.8 L14.05 12.7 Q14.15 15.7 14.4 17.1 L13.65 17.3 13.4 14.8 13.45 10.45 Q13.3 7.9 12.15 6.65 L9.0 3.5 6.45 0.6" fill="#b88950" fill-rule="evenodd" stroke="none"/>
      <path d="M16.1 7.15 Q16.35 8.1 16.4 11.5 16.5 14.8 16.8 15.8 L16.15 16.3 Q15.75 14.0 15.75 11.75 15.8 4.8 13.85 3.45 L11.0 1.6 Q9.2 0.5 8.7 -0.4 L8.95 -0.4 9.35 -0.4 9.8 0.25 Q10.5 1.05 12.05 1.95 L14.15 3.2 Q14.85 3.8 15.3 4.75 L16.1 7.15" fill="#b88950" fill-rule="evenodd" stroke="none"/>
      <path d="M7.45 -0.15 L8.05 -0.3 8.4 0.1 10.7 1.95 Q12.05 3.2 12.45 4.15 L13.95 6.3 Q15.0 7.65 15.1 8.7 L15.3 12.5 Q15.35 15.5 15.55 16.7 L14.9 16.95 Q14.65 15.3 14.7 13.7 14.85 7.7 13.35 6.2 12.8 5.7 12.25 4.5 11.75 3.5 10.8 2.85 8.45 1.05 7.45 -0.15" fill="#b88950" fill-rule="evenodd" stroke="none"/>
      <path d="M10.2 0.1 L10.0 -0.25 10.5 -0.1 Q11.3 0.85 12.85 1.55 L12.9 1.6 13.9 2.65 11.8 1.6 Q10.65 1.0 10.2 0.1" fill="#b88950" fill-rule="evenodd" stroke="none"/>
      <path d="M13.75 15.6 Q12.25 15.6 12.85 13.95 13.45 12.35 15.1 12.25 17.05 12.15 16.5 13.9 16.0 15.65 13.75 15.6" fill="#664723" fill-rule="evenodd" stroke="none"/>
      <path d="M16.55 13.25 Q16.65 14.1 15.9 14.8 15.1 15.65 13.75 15.6 12.85 15.6 12.8 14.8 13.2 13.5 14.95 13.0 15.75 12.75 16.55 13.25" fill="#b3b3b3" fill-rule="evenodd" stroke="none"/>
      <path d="M16.55 13.25 Q16.65 14.1 15.9 14.8 15.1 15.65 13.75 15.6 13.15 15.6 12.95 15.2 14.25 15.85 15.2 14.55 15.85 13.7 15.95 13.0 L16.55 13.25" fill="#7d7d7d" fill-rule="evenodd" stroke="none"/>
      <path d="M14.9 13.35 Q15.6 13.6 14.85 14.05 L13.95 14.2 Q13.75 14.0 14.1 13.6 14.45 13.2 14.9 13.35" fill="#ffffff" fill-rule="evenodd" stroke="none"/>
      <path d="M14.15 4.15 L13.55 4.2 Q13.2 4.45 13.95 5.35 14.2 5.6 14.3 5.45 L14.25 5.05 Q14.1 4.85 14.05 5.05 L14.05 5.25 13.9 5.05 Q13.8 4.85 13.85 4.65 L14.25 4.7 14.7 5.55 Q14.85 6.15 14.55 6.2 L13.85 5.7 13.15 4.55 Q12.9 3.95 13.15 3.85 13.55 3.75 14.15 4.15" fill="#b88950" fill-rule="evenodd" stroke="none"/>
    </g>
    <linearGradient gradientTransform="matrix(0.0172, -1.0E-4, -1.0E-4, -0.0172, -4.45, -5.3)" gradientUnits="userSpaceOnUse" id="gradient1" spreadMethod="pad" x1="-819.2" x2="819.2">
      <stop offset="0.0" stop-color="#969696"/>
      <stop offset="1.0" stop-color="#d6d6d6"/>
    </linearGradient>
  </defs>
</svg>
