<?xml version="1.0" encoding="UTF-8" standalone="no"?>
<svg xmlns:xlink="http://www.w3.org/1999/xlink" height="99.6px" width="329.45px" xmlns="http://www.w3.org/2000/svg">
  <g transform="matrix(1.0, 0.0, 0.0, 1.0, 0.0, 0.0)">
    <use height="99.6" transform="matrix(1.0, 0.0, 0.0, 1.0, 0.0, 0.0)" width="329.45" xlink:href="#shape0"/>
  </g>
  <defs>
    <g id="shape0" transform="matrix(1.0, 0.0, 0.0, 1.0, 0.0, 0.0)">
      <path d="M318.4 8.05 Q321.45 14.25 324.55 19.85 328.4 26.8 328.6 47.35 328.8 68.15 324.7 75.45 320.3 83.4 298.85 91.15 275.95 99.4 253.6 99.45 L198.5 99.1 Q164.6 98.75 158.9 99.0 134.4 100.1 108.0 99.25 78.15 98.3 65.65 95.25 49.45 91.35 33.8 86.2 15.05 80.05 12.0 76.55 3.5 66.95 1.05 56.2 -1.5 44.9 2.15 30.75 5.8 16.8 12.1 10.0 17.85 3.75 26.7 2.7 33.1 1.95 68.85 4.75 L107.7 7.35 141.5 5.45 176.05 4.0 228.75 3.35 275.4 2.55 315.95 2.95 318.4 8.05" fill="#613a22" fill-rule="evenodd" stroke="none"/>
      <path d="M292.05 2.45 Q306.0 1.8 308.1 2.2 309.1 2.4 318.2 2.25 L323.0 15.4 Q318.6 13.9 313.85 13.8 310.0 13.75 306.7 15.5 304.35 14.45 299.6 16.3 298.15 16.9 296.15 16.8 L292.25 16.5 Q284.4 16.35 281.6 16.65 279.75 16.8 279.15 17.2 278.85 17.45 278.9 17.6 277.9 18.55 275.95 19.4 L276.8 21.55 277.15 23.2 276.25 24.75 Q275.25 25.85 275.1 26.5 274.8 27.45 273.4 28.75 L271.0 30.45 268.65 31.5 Q267.15 32.2 266.3 33.0 264.25 35.05 264.2 37.0 L264.25 38.75 263.8 40.3 261.55 43.35 Q259.7 45.65 259.05 45.9 258.35 46.1 260.25 48.4 262.1 50.6 263.95 52.0 266.25 53.7 267.85 56.4 265.75 56.85 263.6 57.55 259.25 58.85 258.8 59.9 L258.0 62.35 Q257.5 63.7 256.7 64.5 L254.6 67.4 Q253.25 69.4 252.25 69.75 251.15 70.2 247.85 69.75 L243.95 68.95 236.65 67.45 239.5 66.35 Q242.7 65.25 244.35 65.3 245.85 65.35 247.45 63.1 249.15 60.6 249.75 60.4 250.6 60.1 251.2 60.85 251.45 61.1 251.45 59.75 L251.7 55.95 251.9 52.4 Q251.95 50.95 250.65 49.5 L249.35 48.35 246.75 44.65 247.55 44.0 Q248.65 43.35 250.1 43.4 L251.45 43.15 Q251.95 42.75 254.1 42.45 256.4 42.1 257.6 40.8 259.05 39.2 259.85 38.9 263.15 37.55 263.25 35.3 L263.1 33.65 262.95 31.95 263.55 30.5 Q263.95 29.7 263.4 28.3 262.65 26.55 261.5 26.05 L257.1 25.5 246.1 25.0 239.15 23.5 238.5 20.15 244.2 19.6 245.25 16.65 241.95 15.25 236.35 15.4 Q232.25 16.05 231.25 17.05 L228.6 19.35 Q226.8 20.95 226.15 21.95 225.0 23.75 222.75 25.2 222.2 25.55 221.95 24.0 221.6 22.0 221.15 21.5 219.65 19.9 214.85 20.4 213.55 20.5 211.25 21.45 209.15 22.3 207.15 22.25 L203.1 21.9 Q201.8 21.6 200.5 20.8 198.7 20.95 199.65 24.9 L201.0 30.8 Q200.95 32.4 199.8 33.8 L197.9 36.05 Q197.2 37.15 197.55 38.5 L198.45 40.75 Q198.9 41.75 198.35 44.1 197.85 46.4 197.0 47.4 196.4 48.2 192.65 48.5 L189.0 48.6 Q192.65 48.3 194.0 46.65 194.85 45.65 194.6 44.3 194.1 42.85 194.1 42.35 L194.6 34.35 187.35 28.55 184.5 21.5 180.2 18.4 Q179.55 17.75 175.85 17.1 L170.9 16.55 163.25 17.4 160.35 17.7 157.2 17.65 Q155.75 17.75 153.05 20.2 150.5 22.5 147.15 22.45 L140.9 22.0 137.15 21.6 Q135.5 21.55 133.25 22.5 L129.1 24.45 Q127.2 25.25 126.35 25.2 L124.4 25.05 Q124.25 25.5 125.05 27.95 125.85 30.5 125.65 31.4 125.4 32.5 124.25 33.05 L121.9 33.65 Q120.85 33.85 120.6 34.7 L120.55 36.3 Q120.5 37.3 119.45 39.95 L117.35 40.85 Q115.2 41.9 114.75 42.5 114.3 43.15 116.05 47.95 L117.9 52.6 122.15 56.65 123.5 58.65 Q124.85 60.75 125.05 61.4 125.4 62.4 125.65 66.7 L124.55 70.7 124.15 72.5 123.5 74.0 Q123.05 74.85 122.2 75.05 L120.45 75.3 119.15 75.4 118.8 75.25 115.1 76.2 Q114.55 76.35 114.15 77.25 113.7 78.3 112.4 78.8 L106.85 78.4 103.1 77.3 107.75 77.7 110.75 77.6 111.8 76.15 Q112.4 75.75 113.25 73.85 114.15 71.8 117.25 69.55 120.55 67.15 119.85 64.2 118.4 61.25 118.4 60.25 118.45 59.1 117.3 58.55 115.0 57.5 114.15 56.85 112.5 55.55 111.25 55.55 L108.85 55.75 105.5 55.35 103.7 54.65 Q102.55 54.15 100.85 53.9 99.05 53.7 98.95 54.4 L98.5 55.9 97.3 57.1 95.1 58.8 92.75 60.45 Q90.4 62.05 88.35 62.35 L90.45 58.75 91.35 58.15 93.45 57.1 Q94.45 56.75 94.7 55.5 L95.2 53.15 Q95.65 52.1 96.65 51.05 L97.6 50.2 100.0 47.25 Q100.05 44.55 99.75 43.25 99.4 41.6 99.4 40.95 99.5 39.4 100.85 37.9 102.15 36.5 102.2 33.1 L102.0 29.95 Q101.7 27.25 100.45 23.25 L99.85 21.55 Q99.95 22.6 99.45 21.9 98.85 21.05 97.85 20.85 L95.15 20.5 91.5 19.4 Q89.05 18.55 87.85 18.35 86.45 18.1 85.5 18.75 L83.85 19.95 Q82.4 20.6 79.15 20.5 76.15 20.5 76.1 22.8 76.1 24.1 75.7 24.9 L74.05 26.75 Q73.05 27.55 73.4 28.6 L73.95 30.4 Q73.95 31.25 76.2 32.85 L79.2 34.85 Q79.85 35.3 78.2 36.0 L75.2 37.1 74.15 37.25 Q73.55 36.75 71.85 36.4 L68.15 35.6 Q66.9 35.4 66.2 35.6 65.6 35.8 64.3 36.7 63.65 37.15 63.15 37.55 L62.15 38.55 Q61.65 39.05 61.55 38.9 61.35 38.55 60.5 38.5 59.6 38.45 59.1 39.3 58.35 40.5 57.45 41.1 56.15 41.9 53.35 40.7 L50.8 39.3 52.95 39.3 56.15 39.1 Q57.2 38.85 58.05 38.2 58.95 37.55 59.2 36.8 59.45 36.05 59.9 35.65 L61.9 34.5 Q63.1 33.95 62.6 33.15 L61.6 31.5 Q61.4 30.7 62.4 27.45 L63.95 22.4 64.0 19.9 Q62.05 15.85 60.6 15.35 L54.6 13.2 Q53.25 12.8 52.05 12.0 L49.8 10.5 36.3 9.4 Q34.55 10.45 32.75 12.25 L29.35 15.45 Q28.1 16.3 25.05 16.55 22.1 14.9 18.65 14.6 15.25 14.3 12.05 15.35 L8.85 14.95 Q8.9 14.6 8.45 14.0 8.15 13.55 8.8 12.5 L11.15 9.15 11.35 8.95 Q13.3 6.6 16.3 3.95 L17.65 2.8 120.65 8.1 153.45 5.9 181.6 6.2 223.9 4.7 225.5 4.25 229.5 3.4 234.5 3.1 262.1 3.35 292.05 2.45" fill="#55351e" fill-rule="evenodd" stroke="none"/>
      <path d="M322.05 52.95 Q324.1 51.55 324.3 50.45 325.0 46.9 323.8 44.15 L322.45 42.1 325.45 43.45 327.0 47.85 Q327.65 49.85 327.95 52.2 L327.9 53.5 327.5 56.5 Q327.25 58.05 326.85 58.55 L325.45 59.8 324.7 60.35 323.45 60.45 Q322.25 60.8 322.7 62.05 L323.7 64.45 323.9 66.05 323.85 66.15 323.05 67.15 320.4 69.9 316.35 73.3 316.2 73.3 Q314.9 73.25 314.4 73.75 314.15 73.95 313.65 75.05 311.25 76.55 308.25 78.1 L304.1 77.35 302.15 76.7 308.5 76.15 Q309.65 76.0 311.3 73.95 L313.6 71.25 Q313.95 71.0 316.05 70.2 317.7 69.6 318.3 68.65 318.95 67.6 318.9 65.9 L318.7 64.35 Q318.85 57.35 319.55 55.35 319.9 54.4 322.05 52.95" fill="#55351e" fill-rule="evenodd" stroke="none"/>
      <path d="M295.85 57.9 Q295.75 59.8 296.4 61.6 296.8 62.65 295.95 64.2 L295.0 65.55 293.3 66.85 Q292.6 69.5 291.6 69.85 L290.0 69.95 287.95 69.75 Q286.9 69.75 286.15 70.25 L285.6 70.7 284.65 71.6 Q283.15 72.5 280.2 72.65 277.3 72.8 275.5 70.65 L274.3 68.5 275.6 69.85 277.4 70.2 280.25 70.3 Q281.6 70.0 283.3 69.0 284.65 67.7 285.0 66.7 285.2 66.1 286.0 65.55 L286.7 65.1 290.05 64.45 Q290.15 61.55 291.45 60.5 292.7 59.45 293.25 56.55 L293.55 53.85 294.7 55.5 Q295.85 57.3 295.85 57.9" fill="#55351e" fill-rule="evenodd" stroke="none"/>
      <path d="M256.9 70.85 L258.45 69.55 Q260.15 68.25 260.95 68.25 L261.15 70.6 Q261.3 73.1 260.85 73.95 L259.95 75.15 256.8 75.85 253.75 76.55 252.15 76.75 Q251.1 76.75 248.7 75.9 L246.5 75.0 249.6 75.0 254.15 74.8 Q255.4 74.6 255.6 74.2 L255.5 73.85 256.9 70.85" fill="#55351e" fill-rule="evenodd" stroke="none"/>
      <path d="M191.3 76.95 L188.45 75.9 195.15 76.35 196.45 75.65 Q197.9 74.95 198.5 74.75 L200.05 73.35 201.55 71.5 Q202.05 71.0 201.75 68.45 201.5 66.15 202.0 66.15 203.65 66.2 204.7 64.05 L205.4 61.9 209.05 61.6 210.1 61.3 Q210.7 61.1 210.45 59.4 L209.85 55.95 209.4 54.05 208.9 52.6 Q208.7 51.55 209.7 48.2 L210.7 45.0 211.25 51.65 211.6 53.95 212.2 55.0 Q212.85 56.0 214.1 59.05 L213.95 60.2 213.75 62.4 Q213.7 63.25 213.1 63.75 L211.7 64.65 Q211.05 65.05 210.1 66.2 L209.3 67.3 208.65 68.65 Q208.05 70.2 208.25 71.25 208.55 72.95 209.2 72.65 L208.85 73.7 207.45 75.95 Q206.6 76.95 205.45 76.7 L204.45 76.2 Q202.8 76.5 200.45 77.45 L198.4 78.15 196.1 78.05 Q194.45 78.0 191.3 76.95" fill="#55351e" fill-rule="evenodd" stroke="none"/>
      <path d="M161.95 37.75 L162.7 39.8 Q163.1 40.7 163.85 41.0 L168.1 40.85 Q169.4 40.55 169.4 39.1 169.4 38.65 170.7 36.6 L172.0 34.65 172.15 36.0 171.9 39.15 171.25 41.05 170.6 41.65 Q170.0 42.55 167.6 43.35 L166.2 43.75 164.8 43.8 Q163.85 43.75 163.6 44.5 163.5 44.9 163.55 45.25 L164.3 46.0 165.25 47.3 166.7 50.3 Q166.95 51.1 166.4 53.05 L168.4 53.1 170.9 52.15 172.2 50.45 172.9 49.65 Q173.65 49.0 173.95 49.95 174.45 51.45 173.9 51.95 L173.15 53.7 172.45 54.55 171.35 56.15 Q171.0 56.75 171.1 58.05 L171.25 59.9 171.45 63.65 169.9 65.4 Q168.95 66.45 168.8 67.15 168.75 67.5 168.85 67.6 L166.6 67.85 163.85 67.5 160.6 67.45 159.4 67.2 158.4 66.9 156.7 67.25 155.6 67.6 153.35 68.1 Q152.6 68.05 147.9 66.45 L153.9 66.1 156.45 63.95 Q158.4 62.15 158.95 62.2 159.55 62.2 160.2 61.4 L161.25 60.2 Q162.0 59.75 162.1 56.75 L162.1 55.5 Q163.15 53.0 162.9 52.0 L160.3 44.2 155.75 46.6 154.85 47.3 153.0 47.8 Q151.75 47.95 149.75 47.1 L148.0 46.2 151.75 46.3 153.2 45.9 154.8 45.1 Q156.05 44.6 158.35 42.4 L161.95 37.75" fill="#55351e" fill-rule="evenodd" stroke="none"/>
      <path d="M30.5 73.5 L26.95 73.0 Q24.6 72.6 23.0 71.9 21.45 71.25 26.2 71.7 L31.25 72.3 34.0 72.1 Q34.75 72.1 37.3 69.9 L40.35 67.45 41.05 65.7 41.4 64.5 42.55 63.4 Q44.1 62.15 45.95 61.55 47.75 61.0 47.2 60.1 L46.5 58.8 Q46.85 58.35 47.0 56.55 L47.1 54.85 Q49.25 52.45 45.4 49.15 41.0 46.2 41.0 45.7 41.05 44.75 46.05 48.35 L51.65 52.65 Q52.05 53.15 51.65 54.3 L51.05 55.9 Q51.05 56.35 52.0 57.45 L53.5 59.2 Q53.9 59.75 53.8 60.75 53.75 61.9 53.95 62.45 54.4 63.7 54.15 64.7 L54.9 64.85 56.4 65.0 Q57.05 65.05 58.3 64.5 L60.2 63.6 Q60.75 63.3 62.0 60.7 63.0 58.5 63.0 58.9 L62.8 61.1 62.2 63.1 Q61.65 63.85 60.9 65.85 55.6 68.25 54.85 68.25 L50.1 67.4 48.1 67.2 46.85 67.6 Q45.75 67.55 45.65 69.3 L45.8 71.05 41.55 71.25 Q39.7 71.35 38.9 72.15 38.5 72.55 38.5 72.9 L34.25 73.85 30.5 73.5" fill="#55351e" fill-rule="evenodd" stroke="none"/>
      <path d="M176.8 14.95 Q179.3 15.3 176.85 14.85 L176.8 14.95 M233.85 6.8 L233.7 7.2 233.95 7.2 233.85 6.8 M286.9 2.75 L292.8 2.9 299.9 3.05 306.1 2.35 305.9 2.3 306.15 2.35 308.8 2.6 313.75 2.95 315.95 2.95 318.45 2.9 320.8 9.2 320.65 9.1 319.2 7.8 319.3 9.2 Q319.3 10.8 318.7 11.9 L318.05 13.2 318.6 17.65 315.2 16.0 Q311.85 14.35 312.35 14.25 L311.9 12.15 308.15 11.35 Q306.8 12.45 304.15 13.6 L304.6 10.25 302.5 9.5 302.25 9.9 301.65 11.3 Q298.85 9.75 298.8 8.7 L298.05 8.75 Q296.1 11.3 294.5 12.45 294.15 14.0 294.2 15.35 292.0 13.3 291.65 11.25 L290.95 7.4 290.8 8.75 Q290.3 10.5 288.65 12.2 L285.95 14.9 Q286.8 13.1 286.75 10.45 286.7 8.75 286.1 7.65 L285.45 6.9 284.8 7.9 Q284.15 9.2 284.0 10.5 283.75 12.6 283.8 14.35 281.6 12.05 281.25 9.65 L280.9 7.3 279.65 8.8 277.3 11.25 275.8 12.45 275.7 7.7 274.3 8.6 Q272.8 9.75 272.4 11.05 271.85 13.1 271.9 14.6 269.35 10.8 269.35 9.3 L267.5 10.2 265.7 11.95 265.6 17.65 258.5 20.55 252.0 20.9 255.05 17.95 Q256.3 18.0 257.5 16.6 L258.45 15.2 256.2 12.0 Q257.1 12.45 254.15 9.35 252.9 10.6 252.0 12.35 L249.9 16.25 Q248.3 12.1 248.6 10.05 L248.85 7.95 247.75 9.05 245.25 11.3 Q243.45 12.8 241.6 12.85 242.8 10.45 242.75 8.95 L242.7 7.5 240.6 9.15 Q238.5 11.15 238.55 13.2 L238.65 16.5 237.0 14.55 Q235.25 12.3 234.85 10.6 L234.25 8.25 233.15 8.75 Q232.1 11.15 231.2 11.9 L229.7 13.1 230.2 10.05 227.25 11.35 227.3 16.1 226.15 14.6 225.1 15.9 Q223.2 17.15 216.55 17.75 L217.65 14.25 212.1 10.45 210.1 10.9 210.75 9.8 210.6 9.7 208.6 9.95 206.15 10.0 205.75 10.1 Q206.75 12.15 207.25 12.5 204.65 12.85 202.25 11.35 L202.0 11.2 197.95 12.3 197.95 12.5 197.65 12.4 194.15 13.35 193.25 12.75 192.35 13.55 Q192.7 14.65 193.8 16.05 194.8 17.35 195.05 18.35 L195.5 22.35 195.4 26.85 195.65 27.8 195.85 29.85 Q195.8 31.35 191.4 25.8 L190.5 23.3 190.0 21.25 Q189.75 20.5 190.9 20.5 L189.5 19.75 186.05 18.2 184.6 16.65 Q182.85 15.15 181.6 15.1 L179.55 15.25 176.7 15.0 Q175.2 14.7 176.7 14.95 L176.65 14.8 172.3 14.1 Q171.55 14.55 170.75 14.95 L171.1 13.85 167.8 13.35 168.6 14.6 167.0 14.65 Q164.75 14.2 163.05 13.05 L162.45 12.6 158.6 12.2 158.35 13.0 158.2 14.15 Q157.2 13.9 156.6 13.0 L153.65 13.45 151.9 15.15 150.45 15.8 Q151.6 14.25 151.85 13.1 L150.55 12.8 149.65 13.6 148.2 14.4 148.45 12.6 146.2 12.5 144.8 14.05 143.5 16.15 Q143.0 14.05 143.15 12.6 L143.15 12.5 140.95 12.6 140.55 12.9 Q138.65 14.6 138.0 14.75 L138.45 12.75 138.05 12.75 Q136.45 13.0 135.9 14.15 L134.45 16.1 Q133.95 14.95 134.1 13.25 L134.4 11.45 134.55 10.9 Q131.35 13.9 129.6 14.85 L127.8 15.75 126.6 18.3 Q125.7 20.15 124.5 21.05 123.2 21.95 123.7 24.1 123.9 25.15 124.4 26.05 L124.35 28.05 124.0 30.45 121.9 33.65 121.3 34.3 Q120.7 35.15 120.55 36.3 120.3 38.75 119.45 39.95 L117.35 41.35 114.75 42.5 Q113.9 42.9 111.6 45.85 L109.45 48.75 109.6 40.75 108.2 37.2 Q107.5 35.45 107.7 35.7 L108.7 35.75 Q109.05 34.8 110.2 33.45 L111.25 32.3 Q111.3 30.3 110.4 25.75 L110.05 24.15 Q111.0 27.2 113.55 26.6 114.85 26.3 115.9 25.35 114.45 21.85 114.0 19.35 113.75 17.9 107.15 13.4 L106.1 14.45 104.35 15.6 104.15 13.0 103.4 10.9 103.25 10.8 Q101.9 12.65 100.45 13.55 98.65 14.65 96.25 14.8 97.85 13.2 98.15 12.05 L98.45 10.2 Q94.25 12.7 92.5 13.0 L90.7 13.3 Q91.85 11.55 91.85 10.9 L91.8 10.25 91.1 10.95 87.95 11.1 84.7 10.35 88.6 13.7 86.7 13.55 Q84.5 13.25 82.95 12.2 L80.25 10.15 79.35 9.35 79.25 10.95 Q79.25 12.7 79.55 13.5 L80.05 14.8 Q78.1 13.95 76.95 12.1 L75.5 9.55 74.95 8.35 74.2 10.25 73.7 12.3 73.55 13.95 72.55 13.15 72.6 13.55 Q72.95 15.8 72.9 19.35 72.8 22.95 72.4 24.05 71.9 25.55 68.85 28.0 L67.25 31.95 64.25 32.9 65.85 27.95 Q66.75 27.45 67.7 26.35 69.65 24.15 70.0 21.0 L70.4 18.4 70.55 18.0 69.75 17.45 Q68.9 16.55 68.6 15.0 68.15 12.7 67.7 11.75 L66.75 12.35 65.3 12.9 Q65.6 12.25 65.6 10.55 L65.6 9.35 65.2 9.15 Q63.55 10.25 62.05 10.4 L62.05 10.45 59.5 10.6 56.25 10.4 56.85 11.8 57.8 13.45 Q58.4 13.95 56.2 13.45 54.0 13.0 52.35 11.75 50.75 10.6 49.9 9.2 L49.35 8.05 48.6 9.35 47.65 11.55 47.45 12.7 Q47.05 12.6 46.6 12.3 45.75 11.7 45.55 10.7 L45.3 8.65 Q42.6 12.9 41.15 13.5 L39.65 14.1 Q41.15 12.2 41.2 11.0 L41.25 8.7 Q40.4 11.15 38.9 11.9 L37.45 12.65 Q37.95 10.85 37.65 10.05 L37.35 9.25 36.0 10.3 34.05 12.2 32.7 14.25 Q32.25 12.15 32.45 10.7 L32.8 9.2 33.0 8.75 32.2 9.2 Q31.1 9.85 29.85 10.9 27.9 12.6 27.25 12.7 L27.75 10.6 26.7 10.8 Q25.55 11.2 25.15 12.0 24.45 13.3 23.65 13.9 23.2 12.75 23.4 11.05 L23.75 9.25 23.9 8.7 Q20.6 11.65 18.8 12.5 L17.0 13.4 18.4 9.8 Q16.45 10.8 15.3 10.65 L13.55 10.2 12.7 9.9 14.45 13.1 Q12.05 12.0 10.75 11.05 L10.15 10.55 11.15 9.15 11.35 8.95 Q13.3 6.6 16.3 3.95 L17.9 2.6 19.85 1.4 Q21.0 1.55 23.3 2.35 L26.7 2.7 32.35 2.9 38.15 3.6 42.35 3.95 46.0 4.2 51.95 3.95 Q52.35 3.4 53.3 3.5 L55.7 4.1 60.05 4.15 60.25 4.75 65.7 4.8 70.75 5.0 73.5 5.15 75.6 5.1 84.0 4.9 86.1 5.3 88.05 5.75 89.55 5.85 91.6 5.7 94.65 5.2 97.3 5.4 99.0 6.25 101.35 6.8 102.05 6.85 118.25 5.9 124.5 6.35 Q128.65 6.9 130.75 7.7 L133.05 7.35 135.65 6.85 142.55 6.4 Q144.5 6.1 147.3 6.45 L152.15 6.15 156.5 5.7 158.55 5.45 161.55 5.25 162.25 5.3 162.45 5.25 163.6 3.85 163.95 4.25 165.2 4.95 170.75 4.4 175.2 4.8 178.75 5.1 183.8 4.9 189.05 5.15 192.85 5.2 196.15 5.2 201.45 4.6 Q201.75 4.1 202.6 4.15 L204.8 4.5 208.65 4.3 219.75 4.55 223.3 4.2 223.25 4.4 227.9 4.05 233.0 4.2 240.2 4.3 242.8 4.05 245.05 4.0 249.9 3.9 256.75 3.45 264.4 3.55 272.5 3.45 Q275.85 3.05 281.05 3.55 L284.1 3.15 286.9 2.75" fill="#482d1d" fill-rule="evenodd" stroke="none"/>
      <path d="M50.6 54.15 Q51.35 56.4 51.3 57.65 L51.4 59.65 52.2 61.7 49.65 65.15 47.4 65.35 Q44.9 65.8 43.6 67.0 42.3 68.25 39.7 69.2 L37.3 69.9 40.35 67.45 41.4 64.5 44.25 63.25 Q46.7 62.2 45.95 61.55 45.25 61.0 46.2 59.25 L47.3 56.6 Q47.35 55.65 48.6 53.8 L49.9 52.15 50.6 54.15" fill="#482d1d" fill-rule="evenodd" stroke="none"/>
      <path d="M100.85 53.9 L101.95 49.6 106.95 48.7 106.8 50.2 Q106.3 51.7 104.4 51.65 102.55 51.6 101.5 52.75 101.0 53.35 100.85 53.9" fill="#482d1d" fill-rule="evenodd" stroke="none"/>
      <path d="M121.7 63.0 Q123.0 61.75 123.25 60.0 L123.3 58.5 124.5 60.55 Q125.7 62.8 125.7 64.05 L125.5 66.75 124.55 70.7 123.65 73.9 Q123.25 74.45 120.45 75.3 117.95 76.1 116.45 77.05 L115.4 77.85 115.1 76.2 116.75 74.2 Q118.6 72.05 119.55 71.45 L121.4 69.6 122.1 68.5 122.15 66.0 121.7 63.0" fill="#482d1d" fill-rule="evenodd" stroke="none"/>
      <path d="M157.15 65.15 Q159.15 64.7 160.7 63.7 162.2 62.75 164.25 59.8 L166.85 55.85 168.1 56.35 Q169.35 57.1 169.3 58.35 169.25 60.8 169.9 65.4 170.3 68.1 167.4 67.3 163.65 65.8 162.15 65.75 L158.55 65.45 157.15 65.15" fill="#482d1d" fill-rule="evenodd" stroke="none"/>
      <path d="M268.45 23.75 Q268.0 21.7 268.05 19.2 L273.55 18.8 273.45 20.05 273.0 22.8 Q272.45 24.8 269.4 27.25 L268.45 23.75" fill="#482d1d" fill-rule="evenodd" stroke="none"/>
      <path d="M213.3 58.2 L214.1 59.05 Q214.65 59.6 213.8 61.05 L211.7 64.65 210.45 66.85 209.3 67.3 Q208.4 67.75 208.5 69.65 208.6 71.2 209.2 72.65 209.6 73.6 208.55 74.85 L207.45 75.95 Q205.95 77.55 202.4 78.5 L196.6 78.8 193.4 78.35 Q201.0 75.45 203.5 73.5 205.1 72.3 205.5 70.05 L205.6 68.05 Q208.8 64.7 211.35 61.1 L213.3 58.2" fill="#482d1d" fill-rule="evenodd" stroke="none"/>
      <path d="M286.7 65.1 Q286.75 63.85 290.5 62.65 L294.25 61.7 295.0 65.55 294.3 65.95 293.3 66.85 Q293.0 67.6 291.3 68.7 289.35 70.0 287.95 69.75 286.6 69.55 284.95 70.25 L283.6 71.0 Q286.65 67.1 286.7 65.1" fill="#482d1d" fill-rule="evenodd" stroke="none"/>
      <path d="M327.95 52.2 Q328.0 50.95 327.35 48.1 L326.75 45.5 329.45 50.45 329.25 52.9 Q328.65 56.25 327.25 59.95 L327.15 60.2 326.75 60.55 Q326.95 59.85 326.45 59.8 L325.45 59.8 325.7 63.2 323.85 66.15 322.3 68.0 Q322.65 65.95 322.35 65.1 L321.75 63.05 323.45 60.45 321.15 58.4 324.15 57.45 Q325.5 56.8 326.2 55.8 L327.45 53.3 327.95 52.2" fill="#482d1d" fill-rule="evenodd" stroke="none"/>
      <path d="M23.8 52.75 Q24.5 51.05 24.5 50.0 24.55 48.8 25.75 47.5 L27.85 45.8 Q28.65 45.35 30.2 44.8 L31.65 44.35 35.9 44.45 39.2 45.85 43.55 47.85 Q45.05 48.6 45.75 50.65 L47.2 53.4 40.2 53.75 36.2 53.45 32.7 53.3 27.7 53.3 Q25.85 53.25 24.95 54.6 24.5 55.3 24.4 55.95 22.65 55.95 22.95 54.95 L23.8 52.75" fill="#6d4126" fill-rule="evenodd" stroke="none"/>
      <path d="M29.5 63.3 L24.0 63.45 Q22.45 63.4 20.55 64.3 L19.0 65.15 18.75 63.35 23.55 60.95 25.05 60.8 27.8 60.8 Q30.8 60.6 31.55 60.85 L45.05 61.6 40.55 63.05 36.0 63.45 29.5 63.3" fill="#6d4126" fill-rule="evenodd" stroke="none"/>
      <path d="M14.35 31.55 L17.9 30.35 23.4 29.95 22.35 31.7 18.1 32.6 16.8 34.0 14.0 36.55 Q12.8 37.45 12.3 38.55 L11.7 40.0 Q11.2 40.7 10.1 44.95 7.2 40.4 7.25 38.9 7.25 37.95 7.8 36.6 L8.3 35.4 9.35 34.45 Q10.7 33.4 12.1 32.75 L14.35 31.55" fill="#6d4126" fill-rule="evenodd" stroke="none"/>
      <path d="M8.9 52.35 L10.45 52.7 8.95 52.95 Q7.9 53.1 6.85 54.4 5.9 55.65 5.9 56.65 5.85 57.9 4.8 62.35 3.85 58.85 3.85 57.85 3.9 56.85 4.4 55.55 5.0 53.9 5.95 53.15 7.1 52.2 8.9 52.35" fill="#6d4126" fill-rule="evenodd" stroke="none"/>
      <path d="M42.9 23.9 L40.55 23.25 40.8 21.8 46.3 21.9 49.3 22.7 47.75 23.65 44.0 23.85 42.9 23.9" fill="#6d4126" fill-rule="evenodd" stroke="none"/>
      <path d="M42.15 31.05 Q40.65 31.3 39.1 32.0 38.15 32.45 37.65 33.5 37.4 34.0 37.3 34.45 L36.8 36.2 Q35.85 33.45 36.35 32.2 36.75 31.25 37.6 30.65 38.4 30.0 39.15 30.0 L44.4 29.85 42.15 31.05" fill="#6d4126" fill-rule="evenodd" stroke="none"/>
      <path d="M31.55 22.35 Q32.05 22.6 31.75 24.35 L29.75 23.8 30.2 22.85 Q30.85 22.0 31.55 22.35" fill="#6d4126" fill-rule="evenodd" stroke="none"/>
      <path d="M60.65 44.65 Q63.75 45.35 63.45 46.95 L62.3 49.2 Q62.0 50.4 59.75 50.4 59.3 50.35 59.1 49.75 L58.8 48.6 Q58.65 48.15 59.65 46.35 L60.65 44.65" fill="#6d4126" fill-rule="evenodd" stroke="none"/>
      <path d="M95.8 35.05 L96.0 36.6 Q95.9 38.2 94.5 38.3 L93.45 38.45 93.0 38.75 Q92.1 39.05 91.35 39.6 L89.45 40.95 88.05 41.85 87.95 40.9 88.25 39.05 88.5 38.15 89.6 37.3 Q90.95 36.45 92.05 36.5 92.9 36.5 93.55 36.05 94.4 35.4 95.8 35.05" fill="#6d4126" fill-rule="evenodd" stroke="none"/>
      <path d="M87.75 51.15 L93.0 51.75 92.95 52.5 92.7 54.0 Q92.3 55.7 91.15 56.5 90.55 56.95 90.15 58.35 L89.85 59.7 Q88.6 60.95 86.8 61.65 85.7 62.1 84.4 61.15 L83.35 60.1 86.1 59.15 Q86.85 58.9 87.15 57.4 L88.45 54.45 88.5 52.95 84.25 52.6 81.5 52.8 Q80.7 52.95 79.5 54.35 L78.4 55.75 79.0 51.5 81.25 50.8 83.95 51.0 87.75 51.15" fill="#6d4126" fill-rule="evenodd" stroke="none"/>
      <path d="M93.55 48.0 L80.6 45.55 83.45 45.1 87.4 44.65 95.1 46.05 Q96.1 46.05 96.1 47.55 L93.55 48.0" fill="#6d4126" fill-rule="evenodd" stroke="none"/>
      <path d="M107.9 58.05 L110.9 57.85 117.1 59.2 Q117.85 59.4 118.25 60.3 L118.8 61.75 Q119.3 62.5 118.5 65.75 L117.75 64.5 Q117.3 63.7 116.25 63.1 L115.3 62.7 112.3 63.15 Q111.45 63.25 111.25 64.15 L110.75 65.35 108.8 65.5 106.5 65.25 103.65 65.75 101.0 66.4 Q100.25 66.55 100.45 65.75 100.6 65.0 101.25 64.15 L103.0 61.05 104.1 58.7 105.35 58.35 107.9 58.05" fill="#6d4126" fill-rule="evenodd" stroke="none"/>
      <path d="M107.4 69.8 Q108.15 70.3 112.65 71.4 L110.35 72.85 106.1 73.0 103.3 73.4 100.1 73.9 Q99.0 74.05 98.4 74.35 L98.05 74.6 98.15 70.85 100.9 70.15 102.55 68.85 Q104.7 67.95 107.4 69.8" fill="#6d4126" fill-rule="evenodd" stroke="none"/>
      <path d="M109.05 75.3 L113.1 74.4 112.2 75.45 110.55 77.1 109.3 77.55 107.75 77.7 Q106.25 78.15 102.8 75.95 L104.2 75.95 106.55 75.75 109.05 75.3" fill="#6d4126" fill-rule="evenodd" stroke="none"/>
      <path d="M76.65 64.55 L75.3 62.7 78.0 65.25 78.45 71.6 Q78.4 73.05 78.1 73.5 77.55 74.35 74.55 75.15 L73.35 75.6 Q72.5 75.8 71.05 75.6 L67.0 74.7 64.6 74.0 70.6 74.1 Q73.1 73.4 73.6 72.65 L74.55 71.5 75.15 70.95 75.7 68.2 Q77.6 66.65 76.65 64.55" fill="#6d4126" fill-rule="evenodd" stroke="none"/>
      <path d="M159.55 36.75 L158.5 37.75 Q157.15 38.75 155.75 38.7 L153.25 38.65 149.5 38.8 Q148.9 38.95 147.85 40.5 L146.95 42.0 146.5 39.5 149.8 36.3 150.8 35.6 154.3 35.4 159.55 36.75" fill="#6d4126" fill-rule="evenodd" stroke="none"/>
      <path d="M165.1 33.1 L168.1 32.9 171.85 33.5 169.05 37.45 165.55 37.6 Q164.75 37.6 163.7 36.95 L162.8 36.3 Q162.8 35.55 163.35 34.85 L164.05 33.8 Q164.45 33.25 165.1 33.1" fill="#6d4126" fill-rule="evenodd" stroke="none"/>
      <path d="M158.85 47.25 L161.25 51.8 159.0 52.0 158.15 52.75 156.7 54.2 Q155.95 55.2 153.9 58.9 L150.65 58.85 Q149.55 58.8 148.45 59.5 L146.1 60.75 Q144.7 61.2 145.05 59.65 L145.65 57.5 Q145.65 57.05 146.2 54.85 L146.75 52.75 152.55 50.9 156.3 48.95 158.85 47.25" fill="#6d4126" fill-rule="evenodd" stroke="none"/>
      <path d="M159.4 57.25 L158.85 58.8 Q158.0 60.35 156.6 60.45 L155.25 60.3 155.6 59.95 156.95 58.7 Q158.45 57.4 159.4 57.25" fill="#6d4126" fill-rule="evenodd" stroke="none"/>
      <path d="M140.8 37.4 L134.8 37.3 132.55 37.55 130.25 37.95 Q129.2 38.05 128.5 38.95 L127.45 40.4 Q127.0 40.85 126.5 43.3 L126.1 45.65 124.45 41.6 Q124.5 39.35 125.5 37.6 126.1 36.6 128.0 35.9 L131.1 34.7 140.8 37.4" fill="#6d4126" fill-rule="evenodd" stroke="none"/>
      <path d="M188.8 35.8 L193.85 35.4 193.0 38.4 192.45 41.15 Q192.45 42.75 191.4 44.85 191.1 45.45 190.15 45.45 L188.15 45.3 187.45 45.2 Q187.65 44.95 187.15 44.55 186.55 44.05 185.05 44.1 L182.65 44.2 181.0 38.9 182.3 36.7 183.85 36.2 188.8 35.8" fill="#6d4126" fill-rule="evenodd" stroke="none"/>
      <path d="M193.7 59.9 Q193.25 60.15 193.35 59.65 L193.65 57.05 193.7 55.15 Q196.0 53.2 199.3 51.0 201.35 49.65 201.45 49.1 201.2 48.55 201.35 48.05 L210.7 45.0 210.75 45.75 210.6 47.2 Q210.05 49.45 207.05 50.9 205.55 51.6 205.5 52.2 L205.25 53.1 203.45 55.6 Q202.95 56.25 201.2 56.95 L196.9 58.45 Q195.15 59.05 193.7 59.9" fill="#6d4126" fill-rule="evenodd" stroke="none"/>
      <path d="M190.8 64.1 L191.55 62.35 198.85 61.25 Q200.6 61.05 202.6 60.3 200.05 62.75 199.3 63.0 L195.55 64.2 190.8 64.1" fill="#6d4126" fill-rule="evenodd" stroke="none"/>
      <path d="M188.75 67.3 L184.85 73.5 184.95 68.5 188.25 66.3 189.4 66.2 192.25 66.15 196.25 66.2 199.25 66.75 196.95 67.45 195.3 67.55 193.5 67.4 188.75 67.3" fill="#6d4126" fill-rule="evenodd" stroke="none"/>
      <path d="M169.1 73.95 L170.8 73.5 173.6 73.05 Q175.1 73.05 179.3 75.4 L172.8 75.25 Q170.7 75.2 169.1 77.2 167.75 78.8 167.75 79.9 167.7 80.9 164.95 81.1 L163.5 78.35 165.55 76.3 Q167.85 74.25 169.1 73.95" fill="#6d4126" fill-rule="evenodd" stroke="none"/>
      <path d="M147.8 73.2 L147.6 73.8 Q145.1 73.5 143.85 72.7 L142.05 72.4 139.6 72.65 Q138.4 72.6 137.05 73.05 L134.1 74.05 Q132.95 74.4 132.65 75.65 132.6 73.0 133.15 72.0 133.65 71.05 135.15 71.0 L139.4 71.15 141.4 70.4 144.4 70.75 Q145.1 70.75 145.55 71.1 L146.9 72.05 Q147.8 72.5 147.8 73.2 M132.65 75.65 L132.75 78.5 Q132.45 77.55 132.5 76.55 132.5 76.05 132.65 75.65" fill="#6d4126" fill-rule="evenodd" stroke="none"/>
      <path d="M166.65 17.9 Q169.15 17.95 169.1 19.2 L168.35 21.4 Q168.15 22.2 167.0 21.85 L165.85 21.35 163.4 19.1 Q163.7 18.8 164.3 18.5 165.4 17.85 166.65 17.9" fill="#6d4126" fill-rule="evenodd" stroke="none"/>
      <path d="M236.9 31.8 L237.9 32.95 Q235.65 32.2 232.65 32.15 230.85 32.1 229.75 32.65 L227.35 33.8 Q226.0 34.2 225.9 34.55 L225.35 35.75 225.15 32.0 227.65 30.55 232.9 30.65 Q235.4 30.7 236.9 31.8" fill="#6d4126" fill-rule="evenodd" stroke="none"/>
      <path d="M236.55 49.2 Q238.55 49.25 236.9 49.85 L232.55 50.4 231.05 50.4 229.8 51.25 Q228.4 52.25 227.75 53.05 226.75 54.25 226.65 58.25 226.05 56.95 226.1 56.05 226.1 55.75 226.45 54.75 L226.85 52.75 227.05 51.3 Q227.4 50.75 227.9 50.15 229.0 49.0 230.1 48.85 L233.05 48.9 236.55 49.2" fill="#6d4126" fill-rule="evenodd" stroke="none"/>
      <path d="M261.85 35.15 L260.35 35.15 256.1 35.3 253.9 35.6 252.85 35.75 Q252.4 35.75 252.2 34.9 L252.1 34.0 252.95 33.25 Q254.2 32.45 255.9 32.3 L261.85 35.15" fill="#6d4126" fill-rule="evenodd" stroke="none"/>
      <path d="M248.8 37.95 L255.25 40.55 253.1 41.65 250.1 43.4 Q249.0 44.3 242.9 44.05 L243.75 40.1 Q244.15 38.75 245.1 38.45 L248.8 37.95" fill="#6d4126" fill-rule="evenodd" stroke="none"/>
      <path d="M249.2 49.35 Q250.5 49.75 251.3 50.25 251.3 51.5 250.5 51.95 L249.15 52.55 247.75 53.15 244.95 54.6 243.7 56.35 244.2 57.1 Q244.8 57.85 245.4 57.85 246.4 57.9 247.9 59.9 244.85 62.1 243.1 62.35 L238.55 62.75 Q237.5 62.9 237.35 63.5 L236.15 57.95 Q236.05 57.0 237.9 54.15 L239.8 51.5 240.95 50.75 Q242.4 49.85 244.05 49.35 246.6 48.6 249.2 49.35" fill="#6d4126" fill-rule="evenodd" stroke="none"/>
      <path d="M212.45 28.0 Q216.2 30.05 215.4 30.3 L212.9 31.0 209.4 32.7 208.15 32.4 208.2 29.4 Q208.2 28.8 209.1 28.6 L212.45 28.0" fill="#6d4126" fill-rule="evenodd" stroke="none"/>
      <path d="M214.05 37.05 Q215.55 35.1 216.5 36.0 216.85 36.3 216.8 36.75 216.75 37.25 216.3 37.3 215.55 37.45 215.55 38.15 L215.75 39.55 Q215.75 40.55 213.75 40.75 L212.25 39.0 214.05 37.05" fill="#6d4126" fill-rule="evenodd" stroke="none"/>
      <path d="M281.85 54.8 Q283.4 54.0 284.0 53.85 284.95 53.6 290.5 53.7 L291.75 54.75 289.65 57.95 288.7 58.8 286.65 59.65 285.8 60.15 Q286.25 60.55 285.85 61.4 285.35 62.45 283.9 63.0 L279.3 63.75 Q277.25 64.05 276.7 65.4 276.4 66.1 276.5 66.7 L275.3 64.2 Q276.9 58.95 277.4 58.2 L279.15 56.6 280.45 55.55 281.85 54.8" fill="#6d4126" fill-rule="evenodd" stroke="none"/>
      <path d="M256.95 66.95 L261.0 66.65 Q256.95 69.85 255.95 70.3 L255.05 71.1 253.65 71.55 Q252.7 71.5 251.85 72.1 L249.9 73.2 247.6 73.55 246.85 73.4 252.2 69.0 Q252.85 68.55 254.35 67.85 L255.75 67.3 256.95 66.95" fill="#6d4126" fill-rule="evenodd" stroke="none"/>
      <path d="M270.15 73.35 L270.45 75.15 Q270.7 77.05 270.55 77.85 270.35 78.6 269.7 78.75 L268.25 79.05 Q267.25 79.55 266.8 76.55 L267.6 75.2 Q268.7 73.8 270.15 73.35" fill="#6d4126" fill-rule="evenodd" stroke="none"/>
      <path d="M306.8 23.5 L306.05 23.5 301.8 23.15 298.55 23.6 Q295.55 24.8 291.95 28.5 290.1 30.45 289.65 31.4 L288.9 32.45 Q288.0 33.1 288.1 29.3 288.15 25.5 288.8 24.7 289.7 23.55 291.25 22.6 293.55 21.2 296.35 21.05 L306.8 23.5" fill="#6d4126" fill-rule="evenodd" stroke="none"/>
      <path d="M281.85 35.8 L286.1 36.15 Q288.1 36.15 289.05 36.7 L289.6 35.95 Q289.9 35.5 291.15 35.45 L293.6 35.5 Q295.35 35.55 297.1 36.1 L294.3 37.05 293.25 37.45 291.8 38.25 Q290.9 38.65 290.95 39.45 L291.0 41.2 Q290.8 42.15 290.25 41.75 L289.75 41.2 Q287.75 40.15 287.0 39.4 286.55 38.95 284.95 38.95 L281.5 39.05 279.25 39.05 277.75 39.45 Q276.8 39.75 275.8 40.6 L275.0 41.4 276.3 36.7 277.3 36.2 281.85 35.8" fill="#6d4126" fill-rule="evenodd" stroke="none"/>
      <path d="M274.9 49.5 Q273.5 50.3 273.3 50.9 L271.05 50.85 269.6 49.05 270.35 48.4 Q271.5 47.7 273.35 47.4 279.35 48.75 277.6 48.7 276.35 48.7 274.9 49.5" fill="#6d4126" fill-rule="evenodd" stroke="none"/>
      <path d="M318.0 39.75 Q322.5 41.8 322.45 42.1 L320.8 43.35 317.65 44.95 Q316.4 45.4 316.5 47.1 L316.85 48.7 Q315.8 49.95 314.8 49.9 L308.8 50.05 Q307.25 50.2 306.1 52.0 305.5 52.9 305.25 53.75 L305.65 47.0 308.5 41.3 310.65 40.65 Q313.65 39.95 318.0 39.75" fill="#6d4126" fill-rule="evenodd" stroke="none"/>
      <path d="M300.55 64.15 Q300.1 63.55 300.3 61.8 L300.65 60.15 303.7 55.7 316.7 56.45 315.15 59.2 Q313.85 60.9 312.85 61.15 312.25 61.3 311.45 63.1 L310.8 64.85 Q308.8 63.55 307.8 63.3 307.25 63.15 305.35 64.25 303.35 65.45 303.05 65.45 301.55 65.45 300.55 64.15" fill="#6d4126" fill-rule="evenodd" stroke="none"/>
      <path d="M308.2 70.05 L308.95 71.15 Q309.55 72.4 308.9 73.3 L308.4 73.95 307.85 74.05 306.8 74.65 305.6 75.0 303.05 75.3 300.1 75.15 297.35 74.85 Q296.9 74.7 297.95 74.55 L299.1 74.4 299.95 73.45 302.15 71.95 304.15 71.05 308.2 70.05" fill="#6d4126" fill-rule="evenodd" stroke="none"/>
      <path d="M317.4 28.95 Q317.75 29.2 318.45 29.25 319.7 29.25 319.15 32.0 317.7 31.2 316.7 31.2 L314.4 31.4 313.45 31.7 Q312.35 32.1 311.4 32.85 310.4 33.65 310.3 32.85 L310.4 31.35 Q310.45 31.0 311.3 30.5 L312.45 29.35 Q312.6 28.9 310.7 27.95 L308.75 27.05 310.55 25.35 312.6 26.25 316.0 27.95 317.4 28.95" fill="#6d4126" fill-rule="evenodd" stroke="none"/>
      <path d="M286.95 0.75 L292.85 0.9 299.95 1.05 306.15 0.35 305.95 0.3 306.2 0.35 308.85 0.6 316.0 0.95 317.7 0.9 319.65 6.15 319.25 5.8 319.35 7.2 Q319.35 8.8 318.75 9.9 L317.8 11.65 Q317.7 8.6 316.9 6.9 L316.5 5.95 315.95 5.7 313.65 10.15 312.4 12.25 311.25 7.3 310.7 5.5 309.95 7.05 Q309.0 8.7 308.15 9.35 306.85 10.45 304.2 11.6 304.7 8.5 304.65 7.15 L304.6 5.75 303.7 6.3 Q302.7 7.05 302.3 7.9 L301.7 9.3 Q298.9 7.75 298.85 6.7 L298.8 5.7 297.5 7.5 294.55 10.45 Q294.2 12.0 294.2 13.35 292.05 11.3 291.7 9.25 L291.0 5.4 290.85 6.75 Q290.35 8.5 288.65 10.2 L285.95 12.9 Q286.85 11.1 286.8 8.45 286.75 6.75 286.15 5.65 L285.5 4.9 284.85 5.9 Q284.2 7.2 284.05 8.5 L283.8 12.35 Q281.65 10.05 281.3 7.65 L280.95 5.3 279.7 6.8 277.35 9.25 275.85 10.45 275.75 5.7 274.3 6.6 Q272.8 7.75 272.45 9.05 271.9 11.1 271.9 12.6 269.4 8.8 269.35 7.3 L269.35 5.85 267.4 8.4 Q264.9 11.1 262.45 11.9 L258.5 13.2 260.5 11.8 Q262.5 10.1 262.65 8.65 262.95 6.3 262.3 4.6 L262.1 4.6 Q259.3 6.95 259.3 8.1 L259.05 11.1 Q257.8 9.35 257.45 7.25 L257.1 5.2 255.35 6.3 Q253.3 7.9 252.0 10.35 L249.95 14.25 Q248.35 10.1 248.6 8.05 L248.9 5.95 247.8 7.05 245.3 9.3 Q243.5 10.8 241.65 10.85 242.8 8.45 242.8 6.95 L242.75 5.5 240.65 7.15 Q238.55 9.15 238.6 11.2 L238.65 14.5 Q235.55 11.3 234.9 8.6 L233.9 4.8 233.15 6.9 Q232.2 9.1 231.25 9.9 L229.75 11.1 Q230.3 8.7 230.25 6.95 L230.25 5.15 228.75 6.25 Q227.2 7.7 227.25 9.35 L227.35 14.1 226.1 12.45 Q224.85 10.5 224.8 8.85 L224.75 6.15 221.5 10.4 221.55 9.2 221.35 9.35 221.3 8.35 218.85 9.85 219.6 7.3 Q217.45 8.55 215.25 9.75 215.9 8.45 215.85 7.4 L215.2 6.95 215.15 6.9 Q213.6 8.1 212.15 8.45 L210.1 8.9 210.9 7.6 208.6 7.95 205.7 7.95 206.35 9.1 207.3 10.5 Q204.7 10.85 202.3 9.35 200.8 8.45 199.95 7.3 L199.4 6.35 198.8 7.55 Q198.15 8.85 198.1 9.45 L198.0 10.5 Q196.55 10.2 196.15 8.85 L195.8 7.05 Q193.65 10.95 192.4 11.55 L191.1 12.2 Q192.3 10.4 192.25 9.4 L192.15 7.35 Q191.55 9.55 190.3 10.3 L189.0 11.05 Q189.35 9.45 189.05 8.75 L188.7 8.1 187.55 9.1 185.95 10.85 184.9 12.7 Q184.35 10.9 184.45 9.65 L184.65 8.35 184.8 7.95 184.1 8.4 Q183.2 9.05 182.15 10.0 L179.9 11.7 180.25 9.9 179.3 10.15 Q178.3 10.5 178.0 11.25 177.45 12.4 176.75 13.0 176.25 12.0 176.35 10.5 L176.5 8.95 176.65 8.45 Q173.9 11.2 172.35 12.1 L170.8 12.95 171.8 9.7 Q170.1 10.7 169.1 10.65 L168.0 9.7 167.0 9.6 167.65 10.95 168.65 12.6 167.0 12.65 Q164.8 12.2 163.1 11.05 161.5 9.95 160.6 8.6 L160.0 7.45 159.25 8.8 Q158.5 10.25 158.4 11.0 L158.25 12.15 Q156.65 11.8 156.3 10.25 L155.95 8.15 Q153.4 12.45 151.95 13.15 L150.5 13.8 Q151.95 11.85 151.95 10.65 L151.9 8.3 Q151.1 10.8 149.7 11.6 L148.25 12.4 Q148.7 10.55 148.35 9.8 L148.05 9.0 146.75 10.1 Q145.3 11.3 144.85 12.05 L143.55 14.15 Q143.05 12.05 143.2 10.6 L143.5 9.1 143.65 8.65 142.85 9.15 140.6 10.9 Q138.7 12.6 138.05 12.75 L138.5 10.65 Q138.0 10.7 137.45 10.9 136.3 11.3 135.9 12.15 135.3 13.45 134.5 14.1 134.0 12.95 134.15 11.25 L134.45 9.45 134.6 8.9 Q131.4 11.9 129.6 12.85 L127.85 13.75 129.1 10.1 Q127.15 11.15 126.05 11.05 L124.3 10.7 123.45 10.45 125.25 13.55 Q122.8 12.5 121.5 11.6 L119.95 10.35 119.4 9.8 119.65 11.9 Q120.0 14.1 120.4 14.75 L121.05 15.8 Q116.65 13.25 115.7 11.3 L113.85 8.05 113.65 9.75 Q113.4 11.65 113.45 12.6 L113.45 14.7 Q111.5 13.55 110.2 11.6 109.35 10.4 108.95 9.25 L108.7 8.35 108.1 9.95 Q107.25 11.7 106.15 12.45 L104.4 13.6 104.2 11.0 103.7 9.45 103.35 8.7 102.6 9.75 100.45 11.55 Q98.7 12.65 96.25 12.8 97.9 11.2 98.2 10.05 L98.5 8.2 Q94.3 10.7 92.55 11.0 L90.75 11.3 Q91.85 9.55 91.85 8.9 L91.85 8.25 91.15 8.95 88.0 9.1 84.75 8.35 88.65 11.7 86.7 11.55 Q84.5 11.25 82.95 10.2 L80.3 8.15 79.4 7.35 79.3 8.95 Q79.3 10.7 79.6 11.5 L80.1 12.8 Q78.15 11.95 77.0 10.1 L75.55 7.55 75.0 6.35 74.45 7.7 Q73.85 9.25 73.75 10.3 L73.6 11.95 Q71.65 10.8 71.15 8.75 L70.65 6.65 Q68.25 9.8 66.8 10.35 L65.35 10.9 Q65.65 10.25 65.65 8.55 L65.6 6.85 Q64.1 8.15 62.1 8.4 L62.1 8.45 59.55 8.6 56.3 8.4 56.9 9.8 Q57.55 11.2 57.85 11.45 58.45 11.95 56.25 11.45 54.05 11.0 52.4 9.75 50.8 8.6 49.95 7.2 L49.4 6.05 48.65 7.35 Q47.85 8.85 47.7 9.55 L47.5 10.7 Q45.9 10.3 45.6 8.7 L45.35 6.65 Q42.65 10.9 41.2 11.5 L39.7 12.1 Q41.2 10.2 41.25 9.0 L41.3 6.7 Q40.4 9.15 38.95 9.9 L37.45 10.65 Q38.0 8.85 37.7 8.05 L37.4 7.25 36.05 8.3 Q34.6 9.5 34.1 10.2 33.25 11.35 32.75 12.25 32.3 10.15 32.5 8.7 L32.85 7.2 33.0 6.75 32.2 7.2 29.9 8.9 Q27.9 10.6 27.25 10.7 L27.8 8.6 26.75 8.8 Q25.6 9.2 25.2 10.0 24.5 11.3 23.7 11.9 23.2 10.75 23.4 9.05 L23.75 7.25 23.95 6.7 Q20.65 9.65 18.85 10.5 L17.05 11.4 18.45 7.8 Q16.45 8.8 15.35 8.65 L12.75 7.9 14.45 11.1 11.1 9.25 11.15 9.15 11.35 8.95 Q13.3 6.6 16.3 3.95 L17.9 2.6 19.45 1.65 Q20.9 0.75 22.45 0.0 L24.35 0.6 26.75 0.7 32.35 0.9 38.2 1.6 42.4 1.95 46.05 2.2 52.0 1.95 Q52.4 1.4 53.35 1.5 L55.75 2.1 60.1 2.15 60.3 2.75 65.75 2.8 70.75 3.0 73.5 3.15 75.6 3.1 84.05 2.9 86.15 3.3 88.1 3.75 89.6 3.85 91.65 3.7 94.65 3.2 97.3 3.4 99.05 4.25 101.35 4.8 106.1 4.8 111.75 5.2 117.05 5.95 120.15 5.9 123.1 5.9 129.05 5.8 132.85 5.4 135.7 4.85 147.35 4.45 152.2 4.15 156.55 3.7 158.6 3.45 161.55 3.25 162.3 3.3 162.5 3.25 163.6 1.85 164.0 2.25 Q164.5 2.65 165.25 2.95 L170.8 2.4 175.25 2.8 178.8 3.1 183.85 2.9 189.1 3.15 192.85 3.2 196.15 3.2 201.45 2.6 Q201.8 2.1 202.65 2.15 L204.85 2.5 208.7 2.3 219.8 2.55 223.3 2.2 223.25 2.4 227.95 2.05 233.05 2.2 240.25 2.3 242.8 2.05 245.1 2.0 249.95 1.9 256.8 1.45 264.45 1.55 272.5 1.45 277.25 1.35 281.1 1.55 284.15 1.15 286.95 0.75" fill="#487016" fill-rule="evenodd" stroke="none"/>
      <path d="M159.0 6.45 L159.8 7.8 Q158.6 9.8 158.4 11.0 L158.25 12.15 Q157.05 11.9 156.5 10.8 L157.3 11.15 157.45 9.95 Q157.55 9.25 158.3 7.75 L159.0 6.45" fill="#406313" fill-rule="evenodd" stroke="none"/>
      <path d="M151.95 13.15 L150.5 13.8 151.75 11.55 153.9 8.85 154.95 7.15 155.3 9.2 Q153.05 12.65 151.95 13.15" fill="#406313" fill-rule="evenodd" stroke="none"/>
      <path d="M175.35 9.5 L175.35 9.7 172.35 12.1 170.8 12.95 171.4 11.05 Q172.95 10.15 175.7 7.45 L175.55 7.9 175.35 9.5" fill="#406313" fill-rule="evenodd" stroke="none"/>
      <path d="M163.1 11.05 Q162.05 10.4 160.95 9.15 L162.15 10.05 Q163.85 11.25 166.05 11.65 L167.65 11.55 Q167.35 11.35 166.65 9.95 L166.0 8.6 167.05 8.65 168.1 9.65 Q169.1 9.7 170.8 8.7 L170.3 10.4 169.1 10.65 168.0 9.7 167.0 9.6 167.65 10.95 168.65 12.6 167.0 12.65 Q164.8 12.2 163.1 11.05" fill="#406313" fill-rule="evenodd" stroke="none"/>
      <path d="M188.05 7.75 L188.2 8.55 Q186.45 10.05 185.95 10.85 L184.9 12.7 184.45 10.65 184.95 9.85 186.6 8.05 187.75 7.1 188.05 7.75" fill="#406313" fill-rule="evenodd" stroke="none"/>
      <path d="M195.2 7.85 L195.25 8.0 Q193.5 11.05 192.4 11.55 L191.1 12.2 192.25 9.85 194.0 7.45 194.8 6.05 195.2 7.85" fill="#406313" fill-rule="evenodd" stroke="none"/>
      <path d="M150.75 10.6 L149.7 11.6 148.25 12.4 148.5 10.7 148.7 10.6 Q150.15 9.8 150.95 7.3 L150.95 9.65 150.75 10.6" fill="#406313" fill-rule="evenodd" stroke="none"/>
      <path d="M183.45 8.65 L183.45 8.85 182.15 10.0 179.9 11.7 180.25 9.9 180.1 9.9 181.15 9.0 183.1 7.4 183.8 6.95 183.65 7.35 183.45 8.65" fill="#406313" fill-rule="evenodd" stroke="none"/>
      <path d="M190.3 10.3 L189.0 11.05 189.15 9.35 189.3 9.3 Q190.55 8.55 191.2 6.35 L191.3 8.4 190.95 9.7 190.3 10.3" fill="#406313" fill-rule="evenodd" stroke="none"/>
      <path d="M113.8 8.55 Q113.4 11.15 113.45 12.6 L113.45 14.7 Q112.05 13.85 110.8 12.4 L112.45 13.7 112.45 11.6 112.7 8.75 112.9 7.05 113.8 8.55" fill="#406313" fill-rule="evenodd" stroke="none"/>
      <path d="M102.35 7.65 L103.0 9.2 Q101.85 10.75 100.45 11.55 98.7 12.65 96.25 12.8 L97.5 11.4 99.5 10.55 101.6 8.7 102.35 7.65" fill="#406313" fill-rule="evenodd" stroke="none"/>
      <path d="M107.7 7.35 L107.85 7.85 108.4 9.2 Q107.55 11.45 106.15 12.45 L104.4 13.6 104.3 12.0 105.15 11.4 Q106.3 10.65 107.1 8.95 L107.7 7.35" fill="#406313" fill-rule="evenodd" stroke="none"/>
      <path d="M97.5 7.2 L97.25 8.95 Q93.85 10.8 92.55 11.0 L90.75 11.3 91.5 10.0 91.55 10.0 Q93.35 9.7 97.5 7.2" fill="#406313" fill-rule="evenodd" stroke="none"/>
      <path d="M142.7 7.65 L142.5 8.1 142.2 9.6 140.6 10.9 Q138.7 12.6 138.05 12.75 L138.45 10.85 139.6 9.9 141.9 8.15 142.7 7.65" fill="#406313" fill-rule="evenodd" stroke="none"/>
      <path d="M122.45 9.4 L123.3 9.65 125.05 10.05 Q126.2 10.15 128.15 9.1 L127.55 10.8 126.05 11.05 124.3 10.7 123.45 10.45 125.25 13.55 Q122.8 12.5 121.5 11.6 L119.95 10.35 119.4 9.8 119.65 11.9 Q120.0 14.1 120.4 14.75 L121.05 15.8 Q117.55 13.75 116.1 11.95 117.75 13.4 120.1 14.8 L119.45 13.75 Q119.0 13.1 118.65 10.9 L118.4 8.8 119.0 9.35 120.55 10.6 Q121.85 11.5 124.25 12.5 L122.45 9.4" fill="#406313" fill-rule="evenodd" stroke="none"/>
      <path d="M90.9 7.9 L90.4 9.2 88.0 9.1 84.95 8.4 83.75 7.35 87.0 8.05 90.15 7.95 90.9 7.25 90.9 7.9" fill="#406313" fill-rule="evenodd" stroke="none"/>
      <path d="M147.4 8.75 L147.5 9.45 Q145.5 11.05 144.85 12.05 L143.55 14.15 143.2 12.0 143.85 11.0 Q144.35 10.3 145.75 9.05 L147.05 8.0 147.4 8.75" fill="#406313" fill-rule="evenodd" stroke="none"/>
      <path d="M133.6 7.85 L133.45 8.4 133.15 10.2 129.6 12.85 127.85 13.75 128.5 11.9 128.65 11.8 Q130.4 10.9 133.6 7.85" fill="#406313" fill-rule="evenodd" stroke="none"/>
      <path d="M137.5 9.65 L137.2 11.0 Q136.3 11.35 135.9 12.15 135.3 13.45 134.5 14.1 134.2 13.45 134.15 12.4 L134.95 11.1 Q135.35 10.3 136.45 9.9 L137.5 9.65" fill="#406313" fill-rule="evenodd" stroke="none"/>
      <path d="M279.95 4.3 L280.25 6.15 277.35 9.25 275.85 10.45 275.8 8.65 276.35 8.2 278.7 5.8 279.95 4.3" fill="#406313" fill-rule="evenodd" stroke="none"/>
      <path d="M274.75 4.7 L274.8 6.25 Q272.85 7.5 272.45 9.05 271.9 11.1 271.9 12.6 L270.95 11.05 271.45 8.0 Q271.85 6.7 273.35 5.6 L274.75 4.7" fill="#406313" fill-rule="evenodd" stroke="none"/>
      <path d="M285.35 5.1 Q284.25 6.75 284.05 8.5 L283.8 12.35 282.85 11.1 283.05 7.5 Q283.25 6.2 283.9 4.9 L284.5 3.9 284.8 4.15 285.35 5.1" fill="#406313" fill-rule="evenodd" stroke="none"/>
      <path d="M268.4 6.3 L268.5 7.0 Q265.65 10.9 262.45 11.9 L258.5 13.2 261.45 10.9 Q263.9 10.1 266.4 7.35 L268.35 4.8 268.4 6.3" fill="#406313" fill-rule="evenodd" stroke="none"/>
      <path d="M303.7 6.1 L303.7 6.35 Q302.7 7.05 302.3 7.9 L301.7 9.3 Q299.6 8.1 299.0 7.15 L300.7 8.3 301.35 6.9 Q301.75 6.05 302.7 5.3 L303.6 4.75 303.7 6.1" fill="#406313" fill-rule="evenodd" stroke="none"/>
      <path d="M256.15 4.2 L256.35 5.6 Q253.7 7.2 252.0 10.35 L249.95 14.25 249.35 12.5 251.05 9.35 Q252.35 6.9 254.35 5.3 L256.15 4.2" fill="#406313" fill-rule="evenodd" stroke="none"/>
      <path d="M310.3 6.3 L310.3 6.35 Q309.25 8.45 308.15 9.35 306.85 10.45 304.2 11.6 L304.4 10.0 307.2 8.35 Q308.0 7.65 308.95 6.0 L309.75 4.5 310.3 6.3" fill="#406313" fill-rule="evenodd" stroke="none"/>
      <path d="M290.05 4.35 L290.6 7.45 Q290.05 8.75 288.65 10.2 L285.95 12.9 Q286.5 11.85 286.7 10.15 L287.7 9.15 Q289.35 7.45 289.85 5.75 L290.05 4.35" fill="#406313" fill-rule="evenodd" stroke="none"/>
      <path d="M297.85 5.7 L298.25 6.45 Q296.45 9.15 294.55 10.45 294.2 12.0 294.2 13.35 L293.25 12.25 Q293.25 10.8 293.55 9.45 L296.5 6.5 297.8 4.7 297.85 5.7" fill="#406313" fill-rule="evenodd" stroke="none"/>
      <path d="M247.65 7.0 L247.6 7.2 245.3 9.3 Q243.5 10.8 241.65 10.85 L242.2 9.5 244.3 8.3 247.9 4.95 247.65 7.0" fill="#406313" fill-rule="evenodd" stroke="none"/>
      <path d="M220.55 8.15 L220.55 8.85 218.85 9.85 219.5 7.85 219.7 7.75 220.3 7.3 220.35 8.35 220.55 8.15" fill="#406313" fill-rule="evenodd" stroke="none"/>
      <path d="M221.3 8.35 L223.75 5.15 223.8 7.4 221.5 10.4 221.55 9.2 221.35 9.35 221.3 8.35" fill="#406313" fill-rule="evenodd" stroke="none"/>
      <path d="M215.85 7.85 L218.6 6.3 218.1 8.15 215.25 9.75 215.85 7.85" fill="#406313" fill-rule="evenodd" stroke="none"/>
      <path d="M202.3 9.35 Q200.9 8.55 200.05 7.4 L201.3 8.35 Q202.9 9.35 204.85 9.6 L206.3 9.45 205.35 8.1 204.75 6.95 207.65 6.9 209.95 6.6 209.15 7.85 211.15 7.4 Q212.6 7.1 214.2 5.85 L214.25 5.95 214.85 6.4 214.8 7.15 Q213.4 8.15 212.15 8.45 L210.1 8.9 210.9 7.6 208.6 7.95 205.7 7.95 206.35 9.1 207.3 10.5 Q204.7 10.85 202.3 9.35" fill="#406313" fill-rule="evenodd" stroke="none"/>
      <path d="M197.8 6.5 L198.4 5.3 198.6 5.65 199.25 6.6 Q198.15 8.45 198.1 9.45 L198.0 10.5 Q196.8 10.25 196.3 9.2 L197.0 9.45 197.1 8.45 Q197.15 7.8 197.8 6.5" fill="#406313" fill-rule="evenodd" stroke="none"/>
      <path d="M229.3 5.8 Q227.25 7.3 227.25 9.35 L227.35 14.1 226.4 12.9 226.3 8.35 Q226.25 6.7 227.75 5.25 L229.25 4.15 229.3 5.8" fill="#406313" fill-rule="evenodd" stroke="none"/>
      <path d="M241.8 4.45 L241.8 6.15 Q238.55 8.65 238.6 11.2 L238.65 14.5 237.7 13.35 237.6 10.2 Q237.55 8.15 239.7 6.1 L241.8 4.45" fill="#406313" fill-rule="evenodd" stroke="none"/>
      <path d="M232.9 3.75 L233.5 5.95 Q232.45 8.9 231.25 9.9 L229.75 11.1 230.15 8.95 230.25 8.85 Q231.2 8.1 232.15 5.85 L232.9 3.75" fill="#406313" fill-rule="evenodd" stroke="none"/>
      <path d="M315.5 4.95 L315.9 5.8 313.65 10.15 312.4 12.25 312.0 10.25 312.65 9.1 314.95 4.7 315.5 4.95" fill="#406313" fill-rule="evenodd" stroke="none"/>
      <path d="M259.05 11.1 L258.15 9.5 258.3 7.1 Q258.3 6.25 259.5 5.05 L261.15 3.6 261.35 3.6 261.65 5.0 Q259.3 6.85 259.3 8.1 L259.05 11.1" fill="#406313" fill-rule="evenodd" stroke="none"/>
      <path d="M47.65 6.35 L48.4 5.05 48.55 5.45 49.15 6.45 Q47.85 8.6 47.7 9.55 L47.5 10.7 Q46.4 10.4 45.85 9.4 L46.55 9.7 46.7 8.55 Q46.85 7.8 47.65 6.35" fill="#406313" fill-rule="evenodd" stroke="none"/>
      <path d="M36.7 7.0 L36.8 7.7 Q34.8 9.2 34.1 10.2 33.25 11.35 32.75 12.25 L32.45 10.1 33.1 9.15 35.05 7.25 36.4 6.25 36.7 7.0" fill="#406313" fill-rule="evenodd" stroke="none"/>
      <path d="M40.0 9.0 L38.95 9.9 37.45 10.65 37.75 8.95 37.95 8.85 Q39.45 8.1 40.3 5.65 L40.25 8.0 40.0 9.0" fill="#406313" fill-rule="evenodd" stroke="none"/>
      <path d="M32.05 5.75 L31.85 6.2 31.5 7.7 29.9 8.9 Q27.9 10.6 27.25 10.7 L27.75 8.8 28.9 7.9 Q30.15 6.85 31.25 6.2 L32.05 5.75" fill="#406313" fill-rule="evenodd" stroke="none"/>
      <path d="M44.35 5.6 L44.6 7.7 Q42.45 10.95 41.2 11.5 L39.7 12.1 41.0 9.9 43.25 7.25 44.35 5.6" fill="#406313" fill-rule="evenodd" stroke="none"/>
      <path d="M73.75 10.3 L73.6 11.95 72.05 10.5 72.6 10.95 72.75 9.25 Q72.85 8.2 73.45 6.65 L74.0 5.35 74.75 6.9 Q73.9 8.75 73.75 10.3" fill="#406313" fill-rule="evenodd" stroke="none"/>
      <path d="M69.65 5.65 L70.1 7.35 Q67.95 9.9 66.8 10.35 L65.35 10.9 65.6 9.4 65.8 9.35 Q67.25 8.8 69.65 5.65" fill="#406313" fill-rule="evenodd" stroke="none"/>
      <path d="M52.4 9.75 L50.55 8.1 51.4 8.75 Q53.05 10.0 55.25 10.45 57.45 10.95 56.85 10.45 L55.9 8.8 55.3 7.4 58.55 7.6 61.15 7.4 61.1 7.4 Q63.15 7.15 64.65 5.8 L64.65 7.5 Q63.5 8.25 62.1 8.4 L62.1 8.45 59.55 8.6 56.3 8.4 56.9 9.8 Q57.55 11.2 57.85 11.45 58.45 11.95 56.25 11.45 54.05 11.0 52.4 9.75" fill="#406313" fill-rule="evenodd" stroke="none"/>
      <path d="M26.8 7.6 L26.5 8.95 Q25.5 9.35 25.2 10.0 24.5 11.3 23.7 11.9 23.4 11.25 23.4 10.2 L24.2 9.0 Q24.6 8.2 25.75 7.8 L26.8 7.6" fill="#406313" fill-rule="evenodd" stroke="none"/>
      <path d="M80.3 8.15 L79.4 7.35 79.3 8.95 Q79.3 10.7 79.6 11.5 L80.1 12.8 Q78.5 12.1 77.35 10.65 78.25 11.4 79.1 11.8 L78.6 10.5 Q78.3 9.7 78.3 7.95 L78.4 6.35 79.3 7.15 82.0 9.15 Q83.9 10.5 87.4 10.7 L87.7 10.9 88.65 11.7 86.7 11.55 Q84.5 11.25 82.95 10.2 L80.3 8.15" fill="#406313" fill-rule="evenodd" stroke="none"/>
      <path d="M22.95 5.7 L22.8 6.25 22.45 8.0 18.85 10.5 17.05 11.4 17.75 9.55 17.9 9.5 Q19.65 8.65 22.95 5.7" fill="#406313" fill-rule="evenodd" stroke="none"/>
      <path d="M11.1 9.25 L11.15 9.15 11.3 8.95 13.5 10.05 12.25 7.9 12.85 7.25 14.35 7.6 Q15.5 7.75 17.45 6.75 L16.8 8.4 15.35 8.65 12.75 7.9 14.45 11.1 11.1 9.25" fill="#406313" fill-rule="evenodd" stroke="none"/>
      <path d="M179.25 8.85 L179.0 10.25 Q178.25 10.65 178.0 11.25 177.45 12.4 176.75 13.0 176.45 12.35 176.35 11.3 L177.0 10.2 Q177.3 9.5 178.3 9.1 L179.25 8.85" fill="#406313" fill-rule="evenodd" stroke="none"/>
      <path d="M317.8 8.9 Q318.35 7.8 318.35 6.2 L318.25 4.8 319.6 6.0 319.65 6.15 319.25 5.8 319.35 7.2 Q319.35 8.8 318.75 9.9 L317.8 11.65 317.55 9.3 317.8 8.9" fill="#406313" fill-rule="evenodd" stroke="none"/>
      <path d="M21.85 20.4 Q23.05 20.65 24.25 21.8 25.55 23.05 25.5 24.25 25.45 25.55 24.9 25.95 L22.45 26.45 Q20.65 26.6 19.3 25.4 18.0 24.25 18.05 22.85 18.05 19.7 21.85 20.4" fill="#55351e" fill-rule="evenodd" stroke="none"/>
      <path d="M58.25 25.85 Q60.4 27.15 59.85 28.5 L58.9 29.6 56.95 29.25 Q55.0 28.65 54.7 27.55 54.35 26.2 55.55 25.6 56.8 24.95 58.25 25.85" fill="#55351e" fill-rule="evenodd" stroke="none"/>
      <path d="M52.85 33.75 Q54.2 34.65 53.35 35.95 52.5 37.2 51.25 37.0 50.15 36.75 50.95 34.9 51.75 33.05 52.85 33.75" fill="#55351e" fill-rule="evenodd" stroke="none"/>
      <path d="M87.75 26.4 Q89.05 27.0 89.25 28.55 89.45 30.15 88.15 31.4 86.9 32.6 84.75 30.95 82.65 29.35 82.7 28.05 82.7 26.55 83.65 25.95 85.0 25.15 87.75 26.4" fill="#55351e" fill-rule="evenodd" stroke="none"/>
      <path d="M75.5 53.15 Q76.0 54.8 75.2 55.2 L72.8 55.15 Q71.2 54.7 71.2 53.85 71.3 51.35 73.75 51.4 75.0 51.45 75.5 53.15" fill="#55351e" fill-rule="evenodd" stroke="none"/>
      <path d="M130.05 49.2 Q131.3 50.7 130.9 52.4 130.55 54.0 129.2 54.2 128.0 54.35 126.8 52.95 125.7 51.65 125.55 50.35 125.3 48.9 126.75 48.05 128.35 47.15 130.05 49.2" fill="#55351e" fill-rule="evenodd" stroke="none"/>
      <path d="M147.2 27.0 Q151.2 27.45 150.65 29.4 150.15 31.1 147.9 31.8 146.3 32.3 145.05 31.35 143.9 30.5 143.95 29.45 143.95 28.35 144.65 27.65 145.5 26.85 147.2 27.0" fill="#55351e" fill-rule="evenodd" stroke="none"/>
      <path d="M181.9 30.15 Q183.55 30.35 183.7 31.9 183.85 33.2 183.1 33.95 182.55 34.5 181.15 33.7 179.8 32.95 179.65 32.15 179.45 31.35 180.05 30.7 180.7 30.0 181.9 30.15" fill="#55351e" fill-rule="evenodd" stroke="none"/>
      <path d="M208.8 37.7 L209.2 39.25 Q209.35 41.0 208.2 41.9 207.0 42.95 205.8 41.75 204.75 40.7 204.75 39.35 204.8 38.25 205.6 37.95 L208.8 37.7" fill="#55351e" fill-rule="evenodd" stroke="none"/>
      <path d="M207.35 35.15 Q205.75 36.65 204.5 35.8 203.35 35.05 203.6 33.85 203.8 33.05 204.95 32.65 L206.65 32.4 Q207.15 32.4 207.4 33.7 207.6 34.9 207.35 35.15" fill="#55351e" fill-rule="evenodd" stroke="none"/>
      <path d="M245.95 29.15 Q248.1 31.2 247.45 32.15 247.1 32.7 244.6 33.6 243.05 34.2 241.95 32.8 L241.15 31.3 Q241.5 29.95 242.25 29.0 243.8 27.1 245.95 29.15" fill="#55351e" fill-rule="evenodd" stroke="none"/>
      <path d="M236.1 43.25 Q236.45 44.35 236.15 45.45 236.0 46.1 235.35 46.05 L233.65 45.9 Q231.25 45.8 230.9 44.1 230.75 43.0 231.55 42.1 232.45 41.05 233.95 41.4 235.6 41.75 236.1 43.25" fill="#55351e" fill-rule="evenodd" stroke="none"/>
      <path d="M226.75 66.25 Q229.25 67.15 228.3 69.3 227.4 71.3 225.9 71.5 224.95 71.65 223.6 70.2 L222.45 68.7 Q222.75 67.85 223.45 67.1 224.85 65.6 226.75 66.25" fill="#55351e" fill-rule="evenodd" stroke="none"/>
      <path d="M307.15 33.0 Q308.0 32.6 308.65 34.9 309.25 37.15 308.05 37.8 306.95 38.4 305.15 36.85 L303.6 35.2 304.4 34.55 307.15 33.0" fill="#55351e" fill-rule="evenodd" stroke="none"/>
      <path d="M281.45 29.3 Q282.95 29.9 283.1 31.7 283.2 33.5 281.85 34.05 280.65 34.55 279.55 33.6 278.6 32.75 278.4 31.5 278.25 30.35 279.2 29.6 280.2 28.8 281.45 29.3" fill="#55351e" fill-rule="evenodd" stroke="none"/>
      <path d="M300.35 49.15 Q302.55 49.0 302.6 51.1 302.7 53.0 301.5 53.9 300.7 54.55 299.3 52.9 L298.05 51.1 298.55 50.15 Q299.25 49.2 300.35 49.15" fill="#55351e" fill-rule="evenodd" stroke="none"/>
      <path d="M20.6 19.4 Q21.8 19.6 23.0 20.75 24.3 21.95 24.25 23.2 24.25 24.5 23.7 24.9 L21.25 25.4 Q19.45 25.55 18.05 24.35 16.75 23.25 16.8 21.85 16.9 18.75 20.6 19.4" fill="#5b554d" fill-rule="evenodd" stroke="none"/>
      <path d="M57.0 24.85 Q59.15 26.15 58.65 27.5 58.4 28.2 57.7 28.6 L55.75 28.2 Q53.75 27.6 53.45 26.5 53.1 25.15 54.3 24.55 55.55 23.95 57.0 24.85" fill="#5b554d" fill-rule="evenodd" stroke="none"/>
      <path d="M51.6 32.75 Q53.0 33.65 52.15 34.95 51.3 36.2 50.05 35.95 48.9 35.7 49.7 33.9 50.55 32.05 51.6 32.75" fill="#5b554d" fill-rule="evenodd" stroke="none"/>
      <path d="M86.5 25.4 Q87.85 26.0 88.05 27.55 88.2 29.15 86.9 30.4 85.65 31.55 83.5 29.95 81.45 28.35 81.45 27.05 81.5 25.55 82.45 24.95 83.75 24.15 86.5 25.4" fill="#5b554d" fill-rule="evenodd" stroke="none"/>
      <path d="M73.95 54.15 Q73.1 54.55 71.6 54.15 69.95 53.75 70.0 52.85 70.0 50.35 72.5 50.4 73.75 50.4 74.25 52.1 74.75 53.75 73.95 54.15" fill="#5b554d" fill-rule="evenodd" stroke="none"/>
      <path d="M128.85 48.2 Q130.1 49.65 129.7 51.35 129.35 53.0 128.0 53.15 126.8 53.3 125.55 51.9 124.45 50.65 124.3 49.35 124.1 47.9 125.55 47.05 127.1 46.15 128.85 48.2" fill="#5b554d" fill-rule="evenodd" stroke="none"/>
      <path d="M146.0 26.0 Q150.0 26.4 149.4 28.35 148.9 30.05 146.65 30.75 145.1 31.25 143.8 30.35 142.65 29.5 142.7 28.45 142.7 27.35 143.4 26.65 144.3 25.85 146.0 26.0" fill="#5b554d" fill-rule="evenodd" stroke="none"/>
      <path d="M180.7 29.15 Q182.35 29.35 182.5 30.9 182.65 32.2 181.85 32.9 181.3 33.45 179.95 32.65 178.6 31.9 178.4 31.1 178.2 30.3 178.8 29.7 179.45 29.0 180.7 29.15" fill="#5b554d" fill-rule="evenodd" stroke="none"/>
      <path d="M207.55 36.65 L207.95 38.25 Q208.1 40.0 207.0 40.9 205.75 41.9 204.6 40.75 203.5 39.7 203.5 38.35 203.55 37.25 204.35 36.9 L207.55 36.65" fill="#5b554d" fill-rule="evenodd" stroke="none"/>
      <path d="M206.1 34.15 Q204.5 35.65 203.25 34.8 202.1 34.0 202.4 32.8 202.55 32.0 203.7 31.6 L205.4 31.35 Q205.9 31.4 206.15 32.7 206.35 33.9 206.1 34.15" fill="#5b554d" fill-rule="evenodd" stroke="none"/>
      <path d="M244.7 28.1 Q246.85 30.15 246.2 31.15 245.85 31.7 243.4 32.6 241.8 33.2 240.7 31.8 L239.95 30.25 Q240.3 28.9 241.05 27.95 242.6 26.05 244.7 28.1" fill="#5b554d" fill-rule="evenodd" stroke="none"/>
      <path d="M232.75 40.4 Q234.4 40.75 234.9 42.25 235.25 43.35 234.9 44.4 234.75 45.05 234.1 45.05 L232.4 44.9 Q229.95 44.8 229.7 43.05 229.5 41.95 230.3 41.05 231.25 40.05 232.75 40.4" fill="#5b554d" fill-rule="evenodd" stroke="none"/>
      <path d="M227.05 68.25 Q226.2 70.25 224.65 70.5 223.7 70.65 222.4 69.15 L221.25 67.65 Q221.55 66.8 222.25 66.05 223.6 64.55 225.5 65.25 228.0 66.1 227.05 68.25" fill="#5b554d" fill-rule="evenodd" stroke="none"/>
      <path d="M305.9 32.0 Q306.75 31.6 307.4 33.85 308.05 36.1 306.8 36.75 305.7 37.4 303.9 35.85 L302.35 34.2 303.15 33.55 Q304.3 32.8 305.9 32.0" fill="#5b554d" fill-rule="evenodd" stroke="none"/>
      <path d="M280.2 28.25 Q281.7 28.85 281.85 30.65 282.0 32.5 280.65 33.05 279.4 33.55 278.35 32.6 277.35 31.7 277.2 30.45 277.0 29.3 278.0 28.55 279.0 27.75 280.2 28.25" fill="#5b554d" fill-rule="evenodd" stroke="none"/>
      <path d="M299.1 48.15 Q301.3 48.0 301.4 50.1 301.45 51.95 300.25 52.9 299.45 53.55 298.05 51.9 L296.8 50.1 297.3 49.15 Q298.0 48.2 299.1 48.15" fill="#5b554d" fill-rule="evenodd" stroke="none"/>
      <path d="M21.1 20.4 Q22.15 20.55 23.15 21.5 24.3 22.55 24.25 23.6 24.25 24.65 23.75 25.0 L21.65 25.4 Q20.05 25.55 18.9 24.55 17.75 23.6 17.8 22.4 17.8 19.8 21.1 20.4" fill="#514c45" fill-rule="evenodd" stroke="none"/>
      <path d="M57.0 25.3 Q59.15 26.45 58.65 27.65 L57.7 28.6 55.75 28.25 Q53.75 27.7 53.45 26.75 53.1 25.55 54.3 25.05 55.5 24.55 57.0 25.3" fill="#514c45" fill-rule="evenodd" stroke="none"/>
      <path d="M51.6 33.2 Q52.95 33.95 52.1 35.1 51.3 36.2 50.05 36.0 48.9 35.8 49.7 34.2 50.5 32.6 51.6 33.2" fill="#514c45" fill-rule="evenodd" stroke="none"/>
      <path d="M86.65 26.7 Q87.85 27.15 88.0 28.35 88.15 29.55 87.0 30.5 85.95 31.4 84.0 30.15 82.15 28.95 82.2 27.95 82.2 26.85 83.05 26.4 84.2 25.75 86.65 26.7" fill="#514c45" fill-rule="evenodd" stroke="none"/>
      <path d="M73.95 54.15 Q73.1 54.55 71.6 54.15 69.95 53.75 70.0 52.9 70.0 50.6 72.5 50.65 73.75 50.65 74.25 52.25 74.75 53.8 73.95 54.15" fill="#514c45" fill-rule="evenodd" stroke="none"/>
      <path d="M128.9 49.15 Q130.05 50.35 129.7 51.7 129.4 53.05 128.15 53.15 127.05 53.3 125.95 52.15 124.95 51.15 124.8 50.1 124.6 48.95 125.9 48.25 127.35 47.5 128.9 49.15" fill="#514c45" fill-rule="evenodd" stroke="none"/>
      <path d="M146.25 26.5 Q149.65 26.85 149.15 28.6 148.75 30.15 146.8 30.8 145.5 31.2 144.4 30.4 143.4 29.65 143.45 28.7 143.45 27.7 144.05 27.1 144.8 26.35 146.25 26.5" fill="#514c45" fill-rule="evenodd" stroke="none"/>
      <path d="M180.65 30.65 Q182.35 30.8 182.5 31.75 182.65 32.55 181.85 33.0 L179.95 32.85 Q178.6 32.35 178.4 31.85 178.2 31.3 178.8 30.95 179.4 30.55 180.65 30.65" fill="#514c45" fill-rule="evenodd" stroke="none"/>
      <path d="M207.55 37.9 L207.9 39.05 Q208.1 40.35 207.05 41.0 L204.75 40.9 Q203.75 40.1 203.75 39.1 203.8 38.3 204.55 38.05 L207.55 37.9" fill="#514c45" fill-rule="evenodd" stroke="none"/>
      <path d="M206.1 34.25 Q204.5 35.6 203.25 34.85 202.1 34.15 202.35 33.1 202.7 31.85 205.4 31.85 205.9 31.85 206.15 33.0 206.35 34.05 206.1 34.25" fill="#514c45" fill-rule="evenodd" stroke="none"/>
      <path d="M244.75 29.15 Q246.85 30.75 246.2 31.5 245.85 31.9 243.5 32.6 242.0 33.05 240.95 32.0 L240.15 30.8 Q240.5 29.75 241.2 29.0 242.7 27.55 244.75 29.15" fill="#514c45" fill-rule="evenodd" stroke="none"/>
      <path d="M232.85 41.35 Q234.4 41.65 234.85 42.8 235.2 43.65 234.9 44.55 L234.15 45.05 232.55 44.9 Q230.25 44.9 229.95 43.5 229.75 42.65 230.5 41.9 231.35 41.1 232.85 41.35" fill="#514c45" fill-rule="evenodd" stroke="none"/>
      <path d="M225.85 66.45 Q227.85 67.15 227.1 68.8 226.4 70.35 225.2 70.5 224.45 70.6 223.4 69.5 L222.45 68.35 Q222.7 67.65 223.25 67.1 224.35 65.9 225.85 66.45" fill="#514c45" fill-rule="evenodd" stroke="none"/>
      <path d="M305.9 33.5 Q306.75 33.2 307.4 34.8 308.05 36.35 306.8 36.8 305.7 37.25 303.9 36.15 L302.35 35.0 303.15 34.55 Q304.3 34.05 305.9 33.5" fill="#514c45" fill-rule="evenodd" stroke="none"/>
      <path d="M280.2 29.7 Q281.7 30.15 281.85 31.45 282.0 32.7 280.65 33.1 279.4 33.45 278.3 32.75 277.35 32.15 277.15 31.25 277.0 30.45 277.95 29.9 L280.2 29.7" fill="#514c45" fill-rule="evenodd" stroke="none"/>
      <path d="M299.05 49.85 Q301.3 49.8 301.4 51.15 301.45 52.4 300.25 52.95 299.45 53.35 298.05 52.25 L296.8 51.1 297.25 50.5 Q297.95 49.9 299.05 49.85" fill="#514c45" fill-rule="evenodd" stroke="none"/>
      <path d="M127.15 85.1 L128.55 82.45 Q129.95 80.15 129.9 81.8 129.85 84.5 131.1 88.5 L130.4 90.65 Q129.35 92.95 127.65 93.75 126.0 94.55 122.05 93.15 L118.4 91.6 120.15 91.55 124.4 91.05 Q126.45 90.7 126.75 88.85 126.8 86.45 127.15 85.1" fill="#55351e" fill-rule="evenodd" stroke="none"/>
      <path d="M70.9 82.45 L68.55 81.35 73.9 81.45 81.95 78.9 81.8 74.4 Q81.95 70.25 83.4 72.25 84.85 74.3 84.0 79.1 83.15 83.95 81.15 84.9 79.5 85.7 78.2 85.25 L75.2 84.1 70.9 82.45" fill="#55351e" fill-rule="evenodd" stroke="none"/>
      <path d="M179.95 80.1 L181.75 90.8 177.7 92.05 175.4 90.45 Q173.1 88.55 173.15 87.3 173.2 85.6 173.55 84.7 174.05 83.4 175.95 80.65 177.3 78.7 177.45 79.1 177.95 80.4 179.95 80.1" fill="#55351e" fill-rule="evenodd" stroke="none"/>
      <path d="M231.3 79.05 L232.45 88.4 225.8 88.95 222.5 86.2 229.2 85.0 Q229.9 81.7 231.3 79.05" fill="#55351e" fill-rule="evenodd" stroke="none"/>
      <path d="M124.6 80.4 Q126.3 79.85 123.1 81.45 122.0 82.75 121.25 85.5 119.9 90.45 118.4 91.6 116.3 93.25 117.2 88.6 L118.55 83.6 123.1 81.45 Q123.8 80.65 124.6 80.4" fill="#6d4126" fill-rule="evenodd" stroke="none"/>
      <path d="M224.65 78.25 Q226.45 78.3 225.55 80.85 224.65 83.35 221.9 82.85 219.15 82.35 220.9 80.25 222.6 78.2 224.65 78.25" fill="#6d4126" fill-rule="evenodd" stroke="none"/>
    </g>
  </defs>
</svg>
