<?xml version="1.0" encoding="UTF-8" standalone="no"?>
<svg xmlns:xlink="http://www.w3.org/1999/xlink" height="26.9px" width="31.85px" xmlns="http://www.w3.org/2000/svg">
  <g transform="matrix(1.0, 0.0, 0.0, 1.0, 0.0, 0.0)">
    <use height="29.15" id="cubimal" transform="matrix(1.0, 0.0, 0.0, 1.0, -3.9, -1.2)" width="37.05" xlink:href="#sprite0"/>
  </g>
  <defs>
    <g id="sprite0" transform="matrix(1.0, 0.0, 0.0, 1.0, 4.3, 1.75)">
      <use height="26.9" transform="matrix(1.0, 0.0, 0.0, 1.0, -0.4, -0.55)" width="31.85" xlink:href="#sprite1"/>
    </g>
    <g id="sprite1" transform="matrix(1.0, 0.0, 0.0, 1.0, 0.0, 0.5)">
      <use height="8.45" transform="matrix(1.0, 0.0, 0.0, 1.0, 0.0, 7.95)" width="10.2" xlink:href="#sprite2"/>
      <use height="26.9" transform="matrix(1.0, 0.0, 0.0, 1.0, 6.05, -0.5)" width="25.8" xlink:href="#sprite6"/>
    </g>
    <g id="sprite2" transform="matrix(1.0, 0.0, 0.0, 1.0, 0.0, 0.0)">
      <use height="8.15" transform="matrix(1.0, 0.0, 0.0, 1.0, 0.7, 0.0)" width="4.55" xlink:href="#sprite3"/>
      <use height="8.15" transform="matrix(1.0, 0.0, 0.0, 1.0, 0.2, 0.2)" width="4.6" xlink:href="#sprite4"/>
      <use height="8.15" transform="matrix(1.0, 0.0, 0.0, 1.0, 0.0, 0.3)" width="4.6" xlink:href="#sprite5"/>
      <use height="1.9" transform="matrix(1.0, 0.0, 0.0, 1.0, 4.35, 4.4)" width="5.85" xlink:href="#shape3"/>
    </g>
    <g id="sprite3" transform="matrix(1.0, 0.0, 0.0, 1.0, 0.0, 0.0)">
      <use height="8.15" transform="matrix(1.0, 0.0, 0.0, 1.0, 0.0, 0.0)" width="4.55" xlink:href="#shape0"/>
    </g>
    <g id="shape0" transform="matrix(1.0, 0.0, 0.0, 1.0, 0.0, 0.0)">
      <path d="M3.5 5.9 Q3.6 5.0 3.05 4.75 L2.6 4.7 2.0 4.8 Q1.2 5.05 1.1 5.9 1.05 6.65 1.5 6.95 2.15 7.3 2.8 6.95 3.4 6.6 3.5 5.9 M0.05 1.25 Q0.2 0.05 1.25 0.0 3.3 -0.05 4.15 2.0 4.9 3.85 4.25 4.45 4.9 5.25 4.15 6.85 3.3 8.6 1.25 7.95 0.2 7.6 0.05 6.35 -0.15 5.05 0.8 4.35 L1.25 4.0 0.8 3.55 Q-0.15 2.5 0.05 1.25 M3.5 2.75 Q3.4 2.0 2.8 1.5 2.15 0.9 1.5 1.1 1.05 1.3 1.1 2.1 1.2 2.95 2.0 3.45 L2.6 3.75 3.05 3.8 Q3.6 3.75 3.5 2.75" fill="url(#gradient0)" fill-rule="evenodd" stroke="none"/>
    </g>
    <linearGradient gradientTransform="matrix(0.0, 0.0042, 0.0042, 0.0, 2.25, 3.45)" gradientUnits="userSpaceOnUse" id="gradient0" spreadMethod="pad" x1="-819.2" x2="819.2">
      <stop offset="0.0" stop-color="#8f8f8f"/>
      <stop offset="0.22745098039215686" stop-color="#e8e8e8"/>
      <stop offset="1.0" stop-color="#696969"/>
    </linearGradient>
    <g id="sprite4" transform="matrix(1.0, 0.0, 0.0, 1.0, 0.0, 0.0)">
      <use height="8.15" transform="matrix(1.0, 0.0, 0.0, 1.0, 0.0, 0.0)" width="4.6" xlink:href="#shape1"/>
    </g>
    <g id="shape1" transform="matrix(1.0, 0.0, 0.0, 1.0, 0.0, 0.0)">
      <path d="M2.05 4.8 Q1.2 5.0 1.15 5.85 1.1 6.65 1.55 6.95 2.15 7.35 2.8 6.95 3.4 6.6 3.5 5.9 3.65 5.0 3.1 4.8 L2.65 4.7 2.05 4.8 M0.05 1.25 Q0.25 0.05 1.3 0.0 3.35 -0.05 4.2 2.0 4.95 3.85 4.25 4.45 4.95 5.2 4.2 6.85 3.35 8.65 1.3 8.0 0.25 7.6 0.05 6.35 -0.15 5.05 0.8 4.35 L1.3 4.0 0.8 3.55 Q-0.15 2.5 0.05 1.25 M1.55 1.1 Q1.1 1.3 1.15 2.1 1.2 3.0 2.05 3.45 L2.65 3.75 3.1 3.8 Q3.65 3.75 3.5 2.75 3.4 2.0 2.8 1.5 2.15 0.9 1.55 1.1" fill="url(#gradient1)" fill-rule="evenodd" stroke="none"/>
    </g>
    <linearGradient gradientTransform="matrix(0.0015, 0.0054, 0.0054, -0.0015, 1.85, 3.25)" gradientUnits="userSpaceOnUse" id="gradient1" spreadMethod="pad" x1="-819.2" x2="819.2">
      <stop offset="0.0" stop-color="#e8e8e8"/>
      <stop offset="1.0" stop-color="#ededed"/>
    </linearGradient>
    <g id="sprite5" transform="matrix(1.0, 0.0, 0.0, 1.0, 0.0, 0.0)">
      <use height="8.15" transform="matrix(1.0, 0.0, 0.0, 1.0, 0.0, 0.0)" width="4.6" xlink:href="#shape2"/>
    </g>
    <g id="shape2" transform="matrix(1.0, 0.0, 0.0, 1.0, 0.0, 0.0)">
      <path d="M2.05 4.8 Q1.2 5.0 1.15 5.85 1.1 6.65 1.55 6.95 2.15 7.35 2.8 6.95 3.4 6.6 3.5 5.9 3.7 4.95 3.1 4.8 L2.65 4.7 2.05 4.8 M0.05 1.25 Q0.25 0.05 1.3 0.0 3.35 -0.05 4.2 2.0 4.95 3.85 4.25 4.45 4.95 5.2 4.2 6.85 3.35 8.65 1.3 8.0 0.25 7.6 0.05 6.35 -0.15 5.05 0.8 4.35 L1.3 4.0 0.8 3.55 Q-0.15 2.5 0.05 1.25 M3.5 2.75 Q3.4 2.0 2.8 1.5 2.15 0.9 1.55 1.1 1.1 1.3 1.15 2.1 1.2 3.0 2.05 3.45 L2.65 3.75 3.1 3.8 Q3.65 3.75 3.5 2.75" fill="url(#gradient2)" fill-rule="evenodd" stroke="none"/>
    </g>
    <linearGradient gradientTransform="matrix(0.0015, 0.0054, 0.0054, -0.0015, 1.85, 3.25)" gradientUnits="userSpaceOnUse" id="gradient2" spreadMethod="pad" x1="-819.2" x2="819.2">
      <stop offset="0.0" stop-color="#e8e8e8"/>
      <stop offset="1.0" stop-color="#878787"/>
    </linearGradient>
    <g id="shape3" transform="matrix(1.0, 0.0, 0.0, 1.0, -4.35, -4.4)">
      <path d="M10.2 6.3 L4.8 5.5 Q4.35 5.55 4.35 5.0 4.35 4.65 4.6 4.5 L4.8 4.4 10.2 5.2 10.2 6.3" fill="url(#gradient3)" fill-rule="evenodd" stroke="none"/>
    </g>
    <linearGradient gradientTransform="matrix(-1.0E-4, 8.0E-4, 8.0E-4, 1.0E-4, 7.3, 5.4)" gradientUnits="userSpaceOnUse" id="gradient3" spreadMethod="pad" x1="-819.2" x2="819.2">
      <stop offset="0.0" stop-color="#8f8f8f"/>
      <stop offset="0.22745098039215686" stop-color="#e8e8e8"/>
      <stop offset="1.0" stop-color="#696969"/>
    </linearGradient>
    <g id="sprite6" transform="matrix(1.0, 0.0, 0.0, 1.0, -0.05, 0.5)">
      <use height="26.9" transform="matrix(1.0, 0.0, 0.0, 1.0, 0.05, -0.5)" width="25.8" xlink:href="#shape4"/>
    </g>
    <g id="shape4" transform="matrix(1.0, 0.0, 0.0, 1.0, -0.05, 0.5)">
      <path d="M2.85 20.8 L7.55 21.15 6.7 24.0 Q6.1 25.55 5.45 25.4 4.2 25.1 2.85 20.8" fill="url(#gradient4)" fill-rule="evenodd" stroke="none"/>
      <path d="M12.2 21.8 L16.85 22.15 16.05 25.0 Q15.45 26.55 14.8 26.4 13.55 26.1 12.2 21.8" fill="url(#gradient5)" fill-rule="evenodd" stroke="none"/>
      <path d="M19.85 17.95 L24.55 18.3 23.7 21.15 Q23.1 22.7 22.45 22.55 21.2 22.25 19.85 17.95" fill="url(#gradient6)" fill-rule="evenodd" stroke="none"/>
      <path d="M22.25 2.05 Q23.95 2.05 24.8 2.7 L25.6 4.1 Q25.85 4.9 25.85 15.65 L25.85 17.1 Q25.8 17.85 25.4 18.45 L22.7 20.7 Q20.65 22.15 19.75 22.6 L17.5 23.6 15.95 24.0 10.4 23.55 6.05 23.05 2.3 22.5 Q1.25 22.3 0.85 21.6 0.35 20.6 0.3 17.55 L0.05 10.45 Q0.1 6.45 1.2 5.7 2.65 4.7 5.8 3.0 9.6 0.9 10.7 0.85 L16.5 1.4 22.25 2.05" fill="url(#gradient7)" fill-rule="evenodd" stroke="none"/>
      <path d="M25.6 4.1 L25.8 6.7 25.85 15.65 25.85 17.1 Q25.8 17.85 25.4 18.45 L22.7 20.7 Q20.65 22.15 19.75 22.6 L17.85 23.4 15.95 24.0 Q16.45 23.0 16.4 21.85 L16.3 7.85 16.4 7.7 19.15 6.2 22.65 4.35 24.95 2.85 25.6 4.1" fill="url(#gradient8)" fill-rule="evenodd" stroke="none"/>
      <path d="M23.4 4.05 L19.5 6.05 Q16.7 7.4 16.4 7.7 L7.7 6.8 0.7 6.3 1.2 5.7 Q2.65 4.7 5.8 3.0 9.6 0.9 10.7 0.85 14.1 0.7 22.25 2.05 24.4 2.35 24.95 2.85 L23.4 4.05" fill="url(#gradient9)" fill-rule="evenodd" stroke="none"/>
      <path d="M23.9 2.8 Q23.8 3.45 22.6 3.9 L19.85 4.35 18.4 4.25 18.6 3.9 18.85 1.8 18.95 1.35 20.25 1.25 22.9 1.7 Q24.0 2.15 23.9 2.8" fill="url(#gradient10)" fill-rule="evenodd" stroke="none"/>
      <path d="M18.0 3.75 L17.9 2.6 Q17.85 1.3 18.3 0.75 18.95 0.0 19.9 -0.35 21.05 -0.75 21.8 -0.05 22.95 0.95 22.7 2.3 21.55 3.2 20.75 3.5 L19.4 3.9 18.0 3.75" fill="url(#gradient11)" fill-rule="evenodd" stroke="none"/>
      <path d="M18.4 1.05 Q17.95 1.55 18.1 3.8 L18.0 3.75 17.9 2.6 Q17.85 1.3 18.3 0.75 18.75 0.15 19.55 -0.2 L21.15 -0.4 Q19.65 -0.35 18.4 1.05" fill="#ffffff" fill-rule="evenodd" stroke="none"/>
      <path d="M21.8 -0.05 L21.85 0.0 Q20.8 -0.2 19.8 1.25 19.55 1.6 19.45 2.8 L19.4 3.9 19.2 3.9 Q19.2 1.6 19.5 1.05 L20.2 0.3 Q20.9 -0.25 21.6 -0.2 L21.8 -0.05" fill="#ffffff" fill-rule="evenodd" stroke="none"/>
      <path d="M19.8 1.25 Q20.8 -0.2 21.85 0.0 22.9 0.95 22.7 2.3 21.55 3.2 20.75 3.5 L19.4 3.9 19.45 2.8 Q19.55 1.6 19.8 1.25" fill="#ffffff" fill-rule="evenodd" stroke="none"/>
      <path d="M19.8 1.25 Q20.8 -0.2 21.85 0.0 22.9 0.95 22.7 2.3 21.55 3.2 20.75 3.5 L19.4 3.9 19.45 2.8 Q19.55 1.6 19.8 1.25" fill="url(#gradient12)" fill-rule="evenodd" stroke="none"/>
      <path d="M20.2 1.9 Q20.9 0.9 21.6 1.0 22.35 1.7 22.2 2.6 L20.9 3.4 19.95 3.7 20.0 2.95 Q20.05 2.1 20.2 1.9" fill="url(#gradient13)" fill-rule="evenodd" stroke="none"/>
      <path d="M16.75 4.85 Q18.05 5.35 18.0 6.0 18.0 6.7 16.65 7.2 15.3 7.75 13.4 7.8 L11.5 7.75 11.75 7.35 11.8 5.05 11.9 4.55 13.5 4.4 16.75 4.85" fill="url(#gradient14)" fill-rule="evenodd" stroke="none"/>
      <path d="M10.95 7.2 Q10.75 6.65 10.7 5.95 10.5 4.55 11.0 3.9 11.65 3.05 12.85 2.7 14.2 2.3 15.2 3.0 16.65 4.05 16.55 5.5 15.3 6.45 14.4 6.8 L12.75 7.35 10.95 7.2" fill="url(#gradient15)" fill-rule="evenodd" stroke="none"/>
      <path d="M11.2 4.2 Q10.7 4.75 11.1 7.25 L10.95 7.2 Q10.75 6.65 10.7 5.95 10.5 4.55 11.0 3.9 11.55 3.2 12.45 2.85 L14.4 2.65 Q12.55 2.7 11.2 4.2" fill="#ffffff" fill-rule="evenodd" stroke="none"/>
      <path d="M15.25 3.05 Q14.4 2.9 13.75 3.45 L12.95 4.4 Q12.65 4.8 12.7 6.1 L12.75 7.35 12.5 7.35 Q12.35 4.55 12.55 4.2 L13.3 3.35 Q14.05 2.8 14.9 2.85 L15.2 3.0 15.25 3.05" fill="#ffffff" fill-rule="evenodd" stroke="none"/>
      <path d="M12.95 4.4 L13.75 3.45 Q14.4 2.9 15.25 3.05 16.65 4.05 16.55 5.5 15.3 6.45 14.4 6.8 L12.75 7.35 12.7 6.1 Q12.65 4.8 12.95 4.4" fill="#ffffff" fill-rule="evenodd" stroke="none"/>
      <path d="M12.95 4.4 L13.75 3.45 Q14.4 2.9 15.25 3.05 16.65 4.05 16.55 5.5 15.3 6.45 14.4 6.8 L12.75 7.35 12.7 6.1 Q12.65 4.8 12.95 4.4" fill="url(#gradient16)" fill-rule="evenodd" stroke="none"/>
      <path d="M13.55 5.1 Q14.1 4.0 15.1 4.1 16.05 4.8 16.0 5.8 L14.5 6.7 13.4 7.05 13.35 6.25 Q13.35 5.35 13.55 5.1" fill="url(#gradient17)" fill-rule="evenodd" stroke="none"/>
      <path d="M22.55 15.1 L23.15 14.8 Q23.1 16.05 23.5 16.35 L24.0 16.25 24.15 15.85 Q24.25 15.6 24.5 15.65 24.8 15.65 24.65 16.3 L24.0 17.05 23.3 17.05 23.15 16.85 Q23.15 17.7 22.25 18.0 21.05 18.45 20.85 17.5 20.8 17.15 21.1 17.05 21.4 17.0 21.5 17.25 21.6 17.55 21.95 17.45 22.35 17.35 22.55 17.0 22.8 16.45 22.55 15.1" fill="#8a7a6a" fill-rule="evenodd" stroke="none"/>
      <path d="M23.7 15.6 Q23.5 15.95 22.05 16.9 21.35 16.85 21.15 16.4 20.95 15.95 21.3 15.35 21.7 14.7 22.5 14.3 L23.9 13.9 23.9 14.5 23.7 15.6" fill="url(#gradient18)" fill-rule="evenodd" stroke="none"/>
      <path d="M22.95 13.7 L23.65 13.6 Q24.05 13.65 24.1 13.85 24.25 14.35 23.5 14.95 L22.2 16.05 Q21.7 16.1 21.55 15.6 21.4 15.25 21.55 14.85 21.65 14.45 22.95 13.7" fill="url(#gradient19)" fill-rule="evenodd" stroke="none"/>
      <path d="M23.35 13.75 Q23.9 13.4 24.1 13.95 24.2 14.35 23.8 14.95 L22.25 16.0 21.8 15.6 21.85 14.9 Q21.95 14.7 23.35 13.75" fill="#f4d8e1" fill-rule="evenodd" stroke="none"/>
      <path d="M23.35 13.8 L23.85 13.65 24.15 13.9 Q24.35 14.7 23.9 15.0 L22.2 16.05 Q21.85 16.0 21.85 15.6 L21.95 14.95 Q22.05 14.55 23.35 13.8" fill="url(#gradient20)" fill-rule="evenodd" stroke="none"/>
      <path d="M19.35 15.1 L19.05 16.35 Q18.7 16.85 18.25 16.85 L17.5 16.35 Q17.15 15.85 17.15 15.1 17.15 14.4 17.5 13.9 17.8 13.4 18.25 13.4 18.7 13.4 19.05 13.9 L19.35 15.1" fill="url(#gradient21)" fill-rule="evenodd" stroke="none"/>
      <path d="M18.9 15.15 L18.65 16.05 18.0 16.4 17.35 16.05 Q17.1 15.7 17.1 15.15 17.1 14.6 17.35 14.2 17.6 13.85 18.0 13.85 18.4 13.85 18.65 14.2 L18.9 15.15" fill="url(#gradient22)" fill-rule="evenodd" stroke="none"/>
      <path d="M25.8 11.25 L25.6 12.4 25.05 12.9 Q24.75 12.9 24.55 12.4 L24.35 11.25 Q24.35 9.65 25.05 9.65 L25.6 10.1 25.8 11.25" fill="url(#gradient23)" fill-rule="evenodd" stroke="none"/>
      <path d="M25.5 11.25 Q25.5 12.45 24.9 12.45 24.3 12.45 24.3 11.25 24.3 10.05 24.9 10.05 25.5 10.05 25.5 11.25" fill="url(#gradient24)" fill-rule="evenodd" stroke="none"/>
      <path d="M24.95 2.85 Q24.85 3.45 20.8 5.65 16.75 7.9 16.65 8.4 L16.65 20.85 Q16.6 23.4 15.95 24.0 L16.15 23.4 16.25 17.4 16.1 10.3 15.9 8.4 Q15.8 8.1 15.35 8.0 L6.85 7.05 0.75 6.05 8.35 6.85 13.2 7.3 16.35 7.4 Q16.85 7.35 20.25 5.55 L24.95 2.85" fill="#ffffff" fill-rule="evenodd" stroke="none"/>
    </g>
    <linearGradient gradientTransform="matrix(0.0011, 0.0, 0.0, -0.0011, 4.8, 23.05)" gradientUnits="userSpaceOnUse" id="gradient4" spreadMethod="pad" x1="-819.2" x2="819.2">
      <stop offset="0.0" stop-color="#eff8ff"/>
      <stop offset="1.0" stop-color="#bdd0d9"/>
    </linearGradient>
    <linearGradient gradientTransform="matrix(0.0011, 0.0, 0.0, -0.0011, 14.1, 24.05)" gradientUnits="userSpaceOnUse" id="gradient5" spreadMethod="pad" x1="-819.2" x2="819.2">
      <stop offset="0.0" stop-color="#eff8ff"/>
      <stop offset="1.0" stop-color="#bdd0d9"/>
    </linearGradient>
    <linearGradient gradientTransform="matrix(0.0011, 0.0, 0.0, -0.0011, 21.75, 20.25)" gradientUnits="userSpaceOnUse" id="gradient6" spreadMethod="pad" x1="-819.2" x2="819.2">
      <stop offset="0.0" stop-color="#eff8ff"/>
      <stop offset="1.0" stop-color="#bdd0d9"/>
    </linearGradient>
    <linearGradient gradientTransform="matrix(0.0036, 0.0111, 0.0111, -0.0036, 13.5, 13.7)" gradientUnits="userSpaceOnUse" id="gradient7" spreadMethod="pad" x1="-819.2" x2="819.2">
      <stop offset="0.0" stop-color="#eff8ff"/>
      <stop offset="1.0" stop-color="#bdd0d9"/>
    </linearGradient>
    <linearGradient gradientTransform="matrix(0.0037, 0.0097, 0.0097, -0.0037, 21.05, 14.65)" gradientUnits="userSpaceOnUse" id="gradient8" spreadMethod="pad" x1="-819.2" x2="819.2">
      <stop offset="0.0" stop-color="#eff8ff"/>
      <stop offset="1.0" stop-color="#bdd0d9"/>
    </linearGradient>
    <linearGradient gradientTransform="matrix(0.0148, 0.0, 0.0, -0.0148, 12.8, 4.25)" gradientUnits="userSpaceOnUse" id="gradient9" spreadMethod="pad" x1="-819.2" x2="819.2">
      <stop offset="0.0" stop-color="#eff8ff"/>
      <stop offset="1.0" stop-color="#dcf2fc"/>
    </linearGradient>
    <radialGradient cx="0" cy="0" gradientTransform="matrix(0.0047, 0.0, 2.0E-4, -0.0019, 20.05, 2.8)" gradientUnits="userSpaceOnUse" id="gradient10" r="819.2" spreadMethod="pad">
      <stop offset="0.21568627450980393" stop-color="#000000" stop-opacity="0.3764706"/>
      <stop offset="0.8666666666666667" stop-color="#000000" stop-opacity="0.0"/>
    </radialGradient>
    <linearGradient gradientTransform="matrix(4.0E-4, 0.0025, 0.0025, 0.0, 20.3, 1.65)" gradientUnits="userSpaceOnUse" id="gradient11" spreadMethod="pad" x1="-819.2" x2="819.2">
      <stop offset="0.0" stop-color="#eff8ff"/>
      <stop offset="1.0" stop-color="#bdd0d9"/>
    </linearGradient>
    <linearGradient gradientTransform="matrix(9.0E-4, 0.0019, 0.002, -6.0E-4, 20.8, 1.95)" gradientUnits="userSpaceOnUse" id="gradient12" spreadMethod="pad" x1="-819.2" x2="819.2">
      <stop offset="0.0" stop-color="#e1f1ff"/>
      <stop offset="1.0" stop-color="#bdd0d9"/>
    </linearGradient>
    <linearGradient gradientTransform="matrix(6.0E-4, 0.0013, 0.0013, -4.0E-4, 20.9, 2.35)" gradientUnits="userSpaceOnUse" id="gradient13" spreadMethod="pad" x1="-819.2" x2="819.2">
      <stop offset="0.0" stop-color="#e8cdb0"/>
      <stop offset="1.0" stop-color="#c0aa92"/>
    </linearGradient>
    <radialGradient cx="0" cy="0" gradientTransform="matrix(0.0058, 0.0, 0.0, -0.0021, 13.35, 6.1)" gradientUnits="userSpaceOnUse" id="gradient14" r="819.2" spreadMethod="pad">
      <stop offset="0.21568627450980393" stop-color="#000000" stop-opacity="0.3764706"/>
      <stop offset="0.8666666666666667" stop-color="#000000" stop-opacity="0.0"/>
    </radialGradient>
    <linearGradient gradientTransform="matrix(4.0E-4, 0.0025, 0.0027, -4.0E-4, 13.55, 4.85)" gradientUnits="userSpaceOnUse" id="gradient15" spreadMethod="pad" x1="-819.2" x2="819.2">
      <stop offset="0.0" stop-color="#eff8ff"/>
      <stop offset="1.0" stop-color="#bdd0d9"/>
    </linearGradient>
    <linearGradient gradientTransform="matrix(9.0E-4, 0.0019, 0.002, -9.0E-4, 14.25, 5.15)" gradientUnits="userSpaceOnUse" id="gradient16" spreadMethod="pad" x1="-819.2" x2="819.2">
      <stop offset="0.0" stop-color="#e1f1ff"/>
      <stop offset="1.0" stop-color="#bdd0d9"/>
    </linearGradient>
    <linearGradient gradientTransform="matrix(6.0E-4, 0.0013, 0.0014, -6.0E-4, 14.45, 5.6)" gradientUnits="userSpaceOnUse" id="gradient17" spreadMethod="pad" x1="-819.2" x2="819.2">
      <stop offset="0.0" stop-color="#e8cdb0"/>
      <stop offset="1.0" stop-color="#c0aa92"/>
    </linearGradient>
    <radialGradient cx="0" cy="0" gradientTransform="matrix(0.0018, 0.0, 0.0, -0.0018, 22.7, 15.45)" gradientUnits="userSpaceOnUse" id="gradient18" r="819.2" spreadMethod="pad">
      <stop offset="0.21568627450980393" stop-color="#000000" stop-opacity="0.3764706"/>
      <stop offset="0.8666666666666667" stop-color="#000000" stop-opacity="0.0"/>
    </radialGradient>
    <linearGradient gradientTransform="matrix(0.0, 8.0E-4, 8.0E-4, 0.0, 22.8, 15.4)" gradientUnits="userSpaceOnUse" id="gradient19" spreadMethod="pad" x1="-819.2" x2="819.2">
      <stop offset="0.0" stop-color="#e9a9ba"/>
      <stop offset="1.0" stop-color="#c47f91"/>
    </linearGradient>
    <linearGradient gradientTransform="matrix(5.0E-4, 8.0E-4, 8.0E-4, -5.0E-4, 23.1, 14.95)" gradientUnits="userSpaceOnUse" id="gradient20" spreadMethod="pad" x1="-819.2" x2="819.2">
      <stop offset="0.0" stop-color="#c78f9f"/>
      <stop offset="1.0" stop-color="#9b6473"/>
    </linearGradient>
    <linearGradient gradientTransform="matrix(-4.0E-4, -0.0016, -0.0016, 4.0E-4, 18.1, 14.5)" gradientUnits="userSpaceOnUse" id="gradient21" spreadMethod="pad" x1="-819.2" x2="819.2">
      <stop offset="0.0" stop-color="#a7bcd0"/>
      <stop offset="1.0" stop-color="#678795"/>
    </linearGradient>
    <linearGradient gradientTransform="matrix(-1.0E-4, 0.0018, 0.0018, 1.0E-4, 17.95, 15.6)" gradientUnits="userSpaceOnUse" id="gradient22" spreadMethod="pad" x1="-819.2" x2="819.2">
      <stop offset="0.0" stop-color="#5f4e29"/>
      <stop offset="0.8588235294117647" stop-color="#271d09"/>
    </linearGradient>
    <linearGradient gradientTransform="matrix(-4.0E-4, -0.0016, -0.0016, 4.0E-4, 25.45, 12.75)" gradientUnits="userSpaceOnUse" id="gradient23" spreadMethod="pad" x1="-819.2" x2="819.2">
      <stop offset="0.0" stop-color="#a7bcd0"/>
      <stop offset="1.0" stop-color="#678795"/>
    </linearGradient>
    <linearGradient gradientTransform="matrix(-1.0E-4, 0.0017, 0.0017, 1.0E-4, 24.9, 11.7)" gradientUnits="userSpaceOnUse" id="gradient24" spreadMethod="pad" x1="-819.2" x2="819.2">
      <stop offset="0.0" stop-color="#5f4e29"/>
      <stop offset="0.8588235294117647" stop-color="#271d09"/>
    </linearGradient>
  </defs>
</svg>
