<?xml version="1.0" encoding="UTF-8" standalone="no"?>
<svg xmlns:xlink="http://www.w3.org/1999/xlink" height="161.55px" width="295.0px" xmlns="http://www.w3.org/2000/svg">
  <g transform="matrix(1.0, 0.0, 0.0, 1.0, 0.0, 0.0)">
    <use height="161.55" transform="matrix(1.0, 0.0, 0.0, 1.0, 0.0, 0.0)" width="295.0" xlink:href="#shape0"/>
  </g>
  <defs>
    <g id="shape0" transform="matrix(1.0, 0.0, 0.0, 1.0, 0.0, 0.0)">
      <path d="M188.55 79.25 Q187.55 66.0 185.0 59.75 178.1 42.85 165.25 35.05 151.85 26.95 135.0 30.75 120.65 33.95 112.4 72.4 109.9 83.9 107.3 102.35 104.75 120.45 104.0 123.75 99.95 141.9 88.25 151.9 71.95 165.75 44.0 159.75 17.75 154.15 6.25 126.9 2.65 118.35 0.95 108.7 L0.0 100.75 3.75 107.45 Q8.65 115.4 14.4 121.5 32.65 141.0 52.0 134.75 62.55 131.35 67.9 116.35 71.7 105.6 74.2 83.3 77.65 52.1 78.65 46.5 82.15 26.5 89.0 16.75 105.25 -6.35 124.25 2.4 133.75 6.75 140.0 15.75 L143.65 11.95 Q148.5 7.7 154.4 5.5 173.15 -1.5 195.0 14.75 202.9 20.6 206.8 35.8 209.05 44.45 211.55 65.85 213.9 86.15 216.5 94.85 220.65 108.75 229.0 112.75 244.65 120.25 271.4 101.25 284.75 91.75 295.0 80.75 287.5 98.5 274.65 114.5 248.9 146.5 222.0 137.75 207.1 132.9 199.35 122.75 193.1 114.6 190.75 101.75 189.8 96.55 188.55 79.25" fill="#6d7877" fill-rule="evenodd" stroke="none"/>
      <path d="M6.25 126.9 Q2.65 118.35 0.95 108.7 L0.0 100.75 2.1 107.7 Q4.95 116.1 8.9 123.5 21.45 147.15 39.9 151.5 61.35 156.6 76.8 152.5 91.25 148.65 99.4 137.0 L99.6 136.7 Q93.15 150.35 81.3 156.6 66.3 164.55 44.0 159.75 17.75 154.15 6.25 126.9" fill="#586160" fill-rule="evenodd" stroke="none"/>
      <path d="M116.4 0.15 L116.9 0.5 Q115.3 0.4 112.45 2.25 106.85 6.0 100.9 16.0 97.85 21.2 95.7 35.9 L92.2 65.9 Q89.95 85.65 87.35 97.15 83.65 113.2 77.9 121.0 68.1 134.3 56.15 136.8 49.35 138.25 43.85 136.2 48.0 136.05 52.0 134.75 62.55 131.35 67.9 116.35 71.7 105.6 74.2 83.3 77.65 52.1 78.65 46.5 82.15 26.5 89.0 16.75 101.75 -1.4 116.4 0.15" fill="#586160" fill-rule="evenodd" stroke="none"/>
      <path d="M188.55 79.25 Q187.55 66.0 185.0 59.75 179.3 45.85 169.45 38.0 159.3 29.95 146.3 29.6 145.95 29.45 147.65 28.4 149.6 27.2 152.3 26.3 160.15 23.75 167.6 26.15 191.15 33.85 196.9 87.0 199.35 109.7 209.7 120.5 220.0 131.25 238.4 130.5 250.1 130.05 261.15 124.1 268.65 120.05 275.0 114.05 263.7 128.25 251.8 134.6 236.9 142.6 222.0 137.75 207.1 132.9 199.35 122.75 193.1 114.6 190.75 101.75 189.8 96.55 188.55 79.25" fill="#586160" fill-rule="evenodd" stroke="none"/>
      <path d="M126.8 24.35 Q130.4 23.0 133.5 22.5 131.8 22.85 129.6 23.8 123.5 26.55 118.7 33.0 113.9 39.45 107.35 56.55 104.05 65.1 101.7 72.35 L101.3 64.45 Q100.95 54.9 101.4 46.35 101.8 37.8 106.65 27.55 109.05 22.45 111.4 19.0 105.8 33.4 105.2 45.5 104.9 51.55 105.7 54.7 L108.1 48.5 Q111.15 41.0 114.7 34.35 118.25 27.7 126.8 24.35" fill="#586160" fill-rule="evenodd" stroke="none"/>
      <path d="M174.05 18.7 Q181.55 23.7 190.9 36.55 195.55 42.95 198.7 48.35 198.7 42.0 197.4 35.0 196.55 30.65 191.55 20.55 L186.7 11.35 190.75 16.5 Q195.35 23.35 198.05 31.7 200.75 40.05 201.85 59.7 202.4 69.55 202.4 77.7 200.05 69.7 195.75 52.35 193.05 41.5 183.25 29.0 L174.05 18.7" fill="#586160" fill-rule="evenodd" stroke="none"/>
      <path d="M94.8 96.85 L96.4 81.7 95.7 110.0 104.4 92.35 101.75 100.9 Q98.4 110.65 95.05 116.7 91.7 122.75 82.7 128.65 78.25 131.6 74.4 133.35 76.9 131.85 80.05 129.25 86.3 124.05 89.4 118.6 92.55 113.15 94.8 96.85" fill="#586160" fill-rule="evenodd" stroke="none"/>
      <path d="M109.4 67.35 L112.4 67.35 103.7 85.0 109.4 67.35" fill="#586160" fill-rule="evenodd" stroke="none"/>
      <path d="M97.05 59.35 L98.4 60.7 93.4 80.35 95.0 70.45 Q96.65 60.4 97.05 59.35" fill="#586160" fill-rule="evenodd" stroke="none"/>
      <path d="M233.65 126.9 L229.15 125.75 234.05 125.85 243.4 125.7 Q247.7 125.45 251.95 121.75 253.6 120.3 253.65 119.45 253.75 118.55 251.7 119.0 L236.75 118.35 226.05 116.7 232.9 117.55 252.05 116.7 Q262.25 115.25 273.5 104.8 279.15 99.6 282.7 94.7 L279.8 99.8 Q276.15 105.75 272.4 109.7 266.15 116.3 261.5 119.75 254.15 125.2 246.65 126.5 L233.65 126.9" fill="#586160" fill-rule="evenodd" stroke="none"/>
      <path d="M207.45 98.5 L207.2 90.05 Q208.7 100.35 212.7 111.9 214.65 117.7 216.35 121.45 L213.45 118.55 Q210.3 114.95 209.1 111.3 207.9 107.7 207.45 98.5" fill="#586160" fill-rule="evenodd" stroke="none"/>
      <path d="M99.4 11.0 Q91.7 29.7 88.7 40.7 87.05 46.7 85.8 67.6 84.4 90.4 83.4 96.0 81.95 104.15 74.85 113.55 71.3 118.25 68.05 121.35 72.05 115.0 75.4 106.35 77.25 101.5 79.3 78.35 81.7 51.2 82.7 45.35 84.35 35.75 92.05 22.4 95.9 15.75 99.4 11.0" fill="#4d5554" fill-rule="evenodd" stroke="none"/>
      <path d="M164.4 30.25 Q173.4 31.8 178.4 37.0 183.4 42.2 187.05 54.0 L189.1 61.55 188.1 58.35 Q185.35 50.7 179.7 44.0 174.1 37.35 164.7 32.85 L156.4 29.7 164.4 30.25" fill="#4d5554" fill-rule="evenodd" stroke="none"/>
      <path d="M164.45 7.15 L167.05 7.35 156.4 12.35 159.8 11.75 Q163.95 11.25 167.7 11.7 171.45 12.1 175.3 14.6 177.25 15.85 178.4 17.0 175.5 15.75 171.85 14.65 164.6 12.4 161.05 13.0 157.5 13.65 150.75 16.4 L144.7 19.0 148.25 14.85 Q152.65 10.35 157.05 8.7 161.0 7.25 164.45 7.15" fill="#586160" fill-rule="evenodd" stroke="none"/>
      <path d="M78.4 142.35 Q77.25 143.95 73.45 145.45 65.95 148.45 53.05 148.05 40.15 147.6 30.3 140.95 27.25 138.85 24.85 136.4 L23.05 134.35 29.35 138.15 Q37.45 142.4 46.4 144.7 54.25 146.7 67.1 144.75 73.55 143.75 78.4 142.35" fill="#586160" fill-rule="evenodd" stroke="none"/>
      <path d="M20.1 143.25 Q31.85 154.75 48.7 156.0 65.6 157.25 77.85 154.75 83.95 153.5 86.7 152.0 84.15 154.6 78.4 156.75 66.9 161.1 51.05 159.0 35.3 156.95 27.25 151.95 17.6 145.95 11.7 132.0 L13.7 135.45 Q16.4 139.65 20.1 143.25" fill="#4d5554" fill-rule="evenodd" stroke="none"/>
      <path d="M192.7 73.7 L193.5 82.7 Q194.9 93.55 197.8 102.65 206.95 131.75 227.4 132.35 247.8 133.0 256.8 129.9 L259.05 129.0 261.7 126.7 Q261.4 127.85 259.05 129.0 255.9 131.45 251.7 133.6 239.35 139.85 227.7 136.7 213.45 132.9 207.2 128.3 200.65 123.45 197.4 113.95 194.7 105.85 193.4 88.95 L192.7 73.7" fill="#4d5554" fill-rule="evenodd" stroke="none"/>
    </g>
  </defs>
</svg>
