<?xml version="1.0" encoding="UTF-8" standalone="no"?>
<svg xmlns:xlink="http://www.w3.org/1999/xlink" height="250.0px" width="80.0px" xmlns="http://www.w3.org/2000/svg">
  <g transform="matrix(1.0, 0.0, 0.0, 1.0, 0.0, 0.0)">
    <clipPath id="clipPath0" transform="matrix(1.0, 0.0, 0.0, 1.0, 0.0, 0.0)">
      <use height="261.2" transform="matrix(1.0, 0.0, 0.0, 1.0, -18.7, -1.35)" width="118.95" xlink:href="#shape0"/>
    </clipPath>
    <g clip-path="url(#clipPath0)">
      <use height="178.85" transform="matrix(1.3065, 0.0, 0.0, 1.3065, 23.4234, 10.4976)" width="28.65" xlink:href="#sprite0"/>
    </g>
  </g>
  <defs>
    <g id="shape0" transform="matrix(1.0, 0.0, 0.0, 1.0, 18.7, 1.35)">
      <path d="M-18.7 1.5 L93.05 -1.35 100.25 257.0 -11.5 259.85 -18.7 1.5" fill="#cc0000" fill-rule="evenodd" stroke="none"/>
    </g>
    <g id="sprite0" transform="matrix(1.0, 0.0, 0.0, 1.0, 3.35, 4.25)">
      <use height="172.35" transform="matrix(1.0, 0.0, 0.0, 1.0, -3.1, -1.0)" width="28.4" xlink:href="#shape1"/>
    </g>
    <g id="shape1" transform="matrix(1.0, 0.0, 0.0, 1.0, 3.1, 1.0)">
      <path d="M20.6 85.45 L1.5 85.45 1.4 82.7 Q0.95 72.45 -1.05 62.3 -4.0 47.7 -2.75 32.15 -1.5 16.55 1.9 9.1 5.3 1.65 6.95 -1.0 4.3 13.5 6.6 27.7 9.0 42.5 14.35 56.5 19.3 69.35 20.45 82.7 L20.55 84.5 20.6 85.45" fill="#cccccc" fill-opacity="0.6392157" fill-rule="evenodd" stroke="none"/>
      <path d="M1.6 84.9 L20.7 84.9 20.8 87.65 Q21.25 97.9 23.25 108.05 26.2 122.65 24.95 138.2 23.7 153.8 20.3 161.25 16.9 168.7 15.25 171.35 17.9 156.85 15.6 142.65 13.2 127.85 7.85 113.85 2.9 101.0 1.75 87.65 L1.65 85.85 1.6 84.9" fill="#cccccc" fill-opacity="0.6392157" fill-rule="evenodd" stroke="none"/>
    </g>
  </defs>
</svg>
