<?xml version="1.0" encoding="UTF-8" standalone="no"?>
<svg xmlns:xlink="http://www.w3.org/1999/xlink" height="27.15px" width="32.2px" xmlns="http://www.w3.org/2000/svg">
  <g transform="matrix(1.0, 0.0, 0.0, 1.0, 0.0, 0.0)">
    <use height="29.8" id="cubimal" transform="matrix(1.0, 0.0, 0.0, 1.0, -3.9, -1.25)" width="37.45" xlink:href="#sprite0"/>
  </g>
  <defs>
    <g id="sprite0" transform="matrix(1.0, 0.0, 0.0, 1.0, 4.3, 1.8)">
      <use height="27.15" transform="matrix(1.0, 0.0, 0.0, 1.0, -0.4, -0.55)" width="32.2" xlink:href="#sprite1"/>
    </g>
    <g id="sprite1" transform="matrix(1.0, 0.0, 0.0, 1.0, 0.0, 0.5)">
      <use height="8.45" transform="matrix(1.0, 0.0, 0.0, 1.0, 0.0, 7.95)" width="10.2" xlink:href="#sprite2"/>
      <use height="27.15" transform="matrix(1.0, 0.0, 0.0, 1.0, 2.3, -0.5)" width="29.9" xlink:href="#sprite6"/>
    </g>
    <g id="sprite2" transform="matrix(1.0, 0.0, 0.0, 1.0, 0.0, 0.0)">
      <use height="8.15" transform="matrix(1.0, 0.0, 0.0, 1.0, 0.7, 0.0)" width="4.55" xlink:href="#sprite3"/>
      <use height="8.15" transform="matrix(1.0, 0.0, 0.0, 1.0, 0.2, 0.2)" width="4.6" xlink:href="#sprite4"/>
      <use height="8.15" transform="matrix(1.0, 0.0, 0.0, 1.0, 0.0, 0.3)" width="4.6" xlink:href="#sprite5"/>
      <use height="1.9" transform="matrix(1.0, 0.0, 0.0, 1.0, 4.35, 4.4)" width="5.85" xlink:href="#shape3"/>
    </g>
    <g id="sprite3" transform="matrix(1.0, 0.0, 0.0, 1.0, 0.0, 0.0)">
      <use height="8.15" transform="matrix(1.0, 0.0, 0.0, 1.0, 0.0, 0.0)" width="4.55" xlink:href="#shape0"/>
    </g>
    <g id="shape0" transform="matrix(1.0, 0.0, 0.0, 1.0, 0.0, 0.0)">
      <path d="M3.5 5.9 Q3.6 5.0 3.05 4.75 L2.6 4.7 2.0 4.8 Q1.2 5.05 1.1 5.9 1.05 6.65 1.5 6.95 2.15 7.3 2.8 6.95 3.4 6.6 3.5 5.9 M0.05 1.25 Q0.2 0.05 1.25 0.0 3.3 -0.05 4.15 2.0 4.9 3.85 4.25 4.45 4.9 5.25 4.15 6.85 3.3 8.6 1.25 7.95 0.2 7.6 0.05 6.35 -0.15 5.05 0.8 4.35 L1.25 4.0 0.8 3.55 Q-0.15 2.5 0.05 1.25 M3.5 2.75 Q3.4 2.0 2.8 1.5 2.15 0.9 1.5 1.1 1.05 1.3 1.1 2.1 1.2 2.95 2.0 3.45 L2.6 3.75 3.05 3.8 Q3.6 3.75 3.5 2.75" fill="url(#gradient0)" fill-rule="evenodd" stroke="none"/>
    </g>
    <linearGradient gradientTransform="matrix(0.0, 0.0042, 0.0042, 0.0, 2.25, 3.45)" gradientUnits="userSpaceOnUse" id="gradient0" spreadMethod="pad" x1="-819.2" x2="819.2">
      <stop offset="0.0" stop-color="#8f8f8f"/>
      <stop offset="0.22745098039215686" stop-color="#e8e8e8"/>
      <stop offset="1.0" stop-color="#696969"/>
    </linearGradient>
    <g id="sprite4" transform="matrix(1.0, 0.0, 0.0, 1.0, 0.0, 0.0)">
      <use height="8.15" transform="matrix(1.0, 0.0, 0.0, 1.0, 0.0, 0.0)" width="4.6" xlink:href="#shape1"/>
    </g>
    <g id="shape1" transform="matrix(1.0, 0.0, 0.0, 1.0, 0.0, 0.0)">
      <path d="M2.05 4.8 Q1.2 5.0 1.15 5.85 1.1 6.65 1.55 6.95 2.15 7.35 2.8 6.95 3.4 6.6 3.5 5.9 3.65 5.0 3.1 4.8 L2.65 4.7 2.05 4.8 M0.05 1.25 Q0.25 0.05 1.3 0.0 3.35 -0.05 4.2 2.0 4.95 3.85 4.25 4.45 4.95 5.2 4.2 6.85 3.35 8.65 1.3 8.0 0.25 7.6 0.05 6.35 -0.15 5.05 0.8 4.35 L1.3 4.0 0.8 3.55 Q-0.15 2.5 0.05 1.25 M1.55 1.1 Q1.1 1.3 1.15 2.1 1.2 3.0 2.05 3.45 L2.65 3.75 3.1 3.8 Q3.65 3.75 3.5 2.75 3.4 2.0 2.8 1.5 2.15 0.9 1.55 1.1" fill="url(#gradient1)" fill-rule="evenodd" stroke="none"/>
    </g>
    <linearGradient gradientTransform="matrix(0.0015, 0.0054, 0.0054, -0.0015, 1.85, 3.25)" gradientUnits="userSpaceOnUse" id="gradient1" spreadMethod="pad" x1="-819.2" x2="819.2">
      <stop offset="0.0" stop-color="#e8e8e8"/>
      <stop offset="1.0" stop-color="#ededed"/>
    </linearGradient>
    <g id="sprite5" transform="matrix(1.0, 0.0, 0.0, 1.0, 0.0, 0.0)">
      <use height="8.15" transform="matrix(1.0, 0.0, 0.0, 1.0, 0.0, 0.0)" width="4.6" xlink:href="#shape2"/>
    </g>
    <g id="shape2" transform="matrix(1.0, 0.0, 0.0, 1.0, 0.0, 0.0)">
      <path d="M2.05 4.8 Q1.2 5.0 1.15 5.85 1.1 6.65 1.55 6.95 2.15 7.35 2.8 6.95 3.4 6.6 3.5 5.9 3.7 4.95 3.1 4.8 L2.65 4.7 2.05 4.8 M0.05 1.25 Q0.25 0.05 1.3 0.0 3.35 -0.05 4.2 2.0 4.95 3.85 4.25 4.45 4.95 5.2 4.2 6.85 3.35 8.65 1.3 8.0 0.25 7.6 0.05 6.35 -0.15 5.05 0.8 4.35 L1.3 4.0 0.8 3.55 Q-0.15 2.5 0.05 1.25 M3.5 2.75 Q3.4 2.0 2.8 1.5 2.15 0.9 1.55 1.1 1.1 1.3 1.15 2.1 1.2 3.0 2.05 3.45 L2.65 3.75 3.1 3.8 Q3.65 3.75 3.5 2.75" fill="url(#gradient2)" fill-rule="evenodd" stroke="none"/>
    </g>
    <linearGradient gradientTransform="matrix(0.0015, 0.0054, 0.0054, -0.0015, 1.85, 3.25)" gradientUnits="userSpaceOnUse" id="gradient2" spreadMethod="pad" x1="-819.2" x2="819.2">
      <stop offset="0.0" stop-color="#e8e8e8"/>
      <stop offset="1.0" stop-color="#878787"/>
    </linearGradient>
    <g id="shape3" transform="matrix(1.0, 0.0, 0.0, 1.0, -4.35, -4.4)">
      <path d="M10.2 6.3 L4.8 5.5 Q4.35 5.55 4.35 5.0 4.35 4.65 4.6 4.5 L4.8 4.4 10.2 5.2 10.2 6.3" fill="url(#gradient3)" fill-rule="evenodd" stroke="none"/>
    </g>
    <linearGradient gradientTransform="matrix(-1.0E-4, 8.0E-4, 8.0E-4, 1.0E-4, 7.3, 5.4)" gradientUnits="userSpaceOnUse" id="gradient3" spreadMethod="pad" x1="-819.2" x2="819.2">
      <stop offset="0.0" stop-color="#8f8f8f"/>
      <stop offset="0.22745098039215686" stop-color="#e8e8e8"/>
      <stop offset="1.0" stop-color="#696969"/>
    </linearGradient>
    <g id="sprite6" transform="matrix(1.0, 0.0, 0.0, 1.0, 3.7, 0.5)">
      <use height="27.15" transform="matrix(1.0, 0.0, 0.0, 1.0, -3.7, -0.5)" width="29.9" xlink:href="#shape4"/>
    </g>
    <g id="shape4" transform="matrix(1.0, 0.0, 0.0, 1.0, 3.7, 0.5)">
      <path d="M5.8 22.0 L10.45 22.35 Q9.35 26.85 8.35 26.6 7.15 26.3 5.8 22.0" fill="url(#gradient4)" fill-rule="evenodd" stroke="none"/>
      <path d="M14.1 18.15 L18.75 18.5 Q17.65 23.0 16.65 22.75 15.45 22.45 14.1 18.15" fill="url(#gradient5)" fill-rule="evenodd" stroke="none"/>
      <path d="M1.1 14.7 L4.95 16.95 4.95 19.3 Q4.7 21.7 3.5 22.25 2.2 22.85 -0.25 22.2 -2.15 21.7 -3.3 21.0 -3.95 20.65 -3.5 20.0 L-1.9 18.4 Q-0.45 17.0 1.1 14.7" fill="url(#gradient6)" fill-rule="evenodd" stroke="none"/>
      <path d="M-2.1 20.0 Q-1.8 20.45 -2.4 20.75 L-3.2 20.65 Q-3.4 20.15 -2.9 19.9 L-2.4 19.8 Q-2.2 19.85 -2.1 20.0" fill="url(#gradient7)" fill-rule="evenodd" stroke="none"/>
      <path d="M-0.85 18.65 Q-0.45 19.05 -0.9 19.45 -1.25 19.95 -1.7 19.6 -2.05 19.25 -1.65 18.8 -1.2 18.35 -0.85 18.65" fill="url(#gradient8)" fill-rule="evenodd" stroke="none"/>
      <path d="M0.4 17.25 L0.55 17.6 0.35 18.05 -0.45 18.15 Q-0.8 17.85 -0.4 17.35 L0.4 17.25" fill="url(#gradient9)" fill-rule="evenodd" stroke="none"/>
      <path d="M-0.75 20.5 Q-0.5 20.9 -1.0 21.25 -1.55 21.6 -1.8 21.15 -2.05 20.75 -1.5 20.4 L-1.05 20.3 Q-0.8 20.3 -0.75 20.5" fill="url(#gradient10)" fill-rule="evenodd" stroke="none"/>
      <path d="M0.75 19.6 Q1.05 20.1 0.5 20.35 L-0.3 20.3 Q-0.6 19.85 0.0 19.55 L0.45 19.45 0.75 19.6" fill="url(#gradient11)" fill-rule="evenodd" stroke="none"/>
      <path d="M9.75 23.75 L5.4 23.25 1.6 22.7 Q0.6 22.5 0.2 21.8 -0.35 20.8 -0.4 17.75 L-0.6 10.65 Q-0.55 6.65 0.55 5.9 1.85 4.95 5.15 3.2 8.95 1.1 10.0 1.05 L15.8 1.6 21.6 2.25 Q23.25 2.25 24.1 2.9 24.65 3.35 24.95 4.3 25.2 5.1 25.2 15.85 L25.2 17.3 24.75 18.65 22.0 20.9 19.1 22.8 Q16.55 24.2 15.3 24.2 L9.75 23.75" fill="url(#gradient12)" fill-rule="evenodd" stroke="none"/>
      <path d="M2.85 10.25 L2.55 11.2 Q2.25 11.55 1.85 11.55 1.45 11.55 1.2 11.2 0.9 10.8 0.9 10.25 0.9 9.7 1.2 9.25 L1.85 8.85 Q2.25 8.85 2.55 9.25 L2.85 10.25" fill="url(#gradient13)" fill-rule="evenodd" stroke="none"/>
      <path d="M2.85 14.2 L2.55 15.15 Q2.25 15.55 1.85 15.55 1.45 15.55 1.2 15.15 0.9 14.75 0.9 14.2 0.9 13.65 1.2 13.2 L1.85 12.8 Q2.25 12.8 2.55 13.2 L2.85 14.2" fill="url(#gradient14)" fill-rule="evenodd" stroke="none"/>
      <path d="M2.85 18.5 L2.55 19.5 Q2.25 19.9 1.85 19.9 L1.2 19.5 Q0.9 19.05 0.9 18.5 0.9 17.95 1.2 17.55 1.45 17.15 1.85 17.15 2.25 17.15 2.55 17.55 L2.85 18.5" fill="url(#gradient15)" fill-rule="evenodd" stroke="none"/>
      <path d="M5.9 10.7 L5.6 11.65 4.95 12.05 Q4.55 12.05 4.25 11.65 L4.0 10.7 Q4.0 10.15 4.25 9.75 4.55 9.35 4.95 9.35 L5.6 9.75 5.9 10.7" fill="url(#gradient16)" fill-rule="evenodd" stroke="none"/>
      <path d="M5.9 14.65 L5.6 15.65 4.95 16.05 Q4.55 16.05 4.25 15.65 L4.0 14.65 Q4.0 14.1 4.25 13.7 4.55 13.3 4.95 13.3 L5.6 13.7 5.9 14.65" fill="url(#gradient17)" fill-rule="evenodd" stroke="none"/>
      <path d="M5.9 18.95 L5.6 19.95 4.95 20.35 Q4.55 20.35 4.25 19.95 4.0 19.55 4.0 18.95 4.0 18.4 4.25 18.0 4.55 17.6 4.95 17.6 L5.6 18.0 5.9 18.95" fill="url(#gradient18)" fill-rule="evenodd" stroke="none"/>
      <path d="M9.15 11.05 L8.9 12.0 8.2 12.4 Q7.85 12.4 7.55 12.0 7.25 11.6 7.25 11.05 7.25 10.5 7.55 10.1 7.8 9.7 8.2 9.7 8.6 9.7 8.9 10.1 L9.15 11.05" fill="url(#gradient19)" fill-rule="evenodd" stroke="none"/>
      <path d="M9.15 15.0 L8.9 16.0 8.2 16.4 Q7.85 16.4 7.55 16.0 7.25 15.55 7.25 15.0 7.25 14.45 7.55 14.05 7.8 13.65 8.2 13.65 8.6 13.65 8.9 14.05 L9.15 15.0" fill="url(#gradient20)" fill-rule="evenodd" stroke="none"/>
      <path d="M9.15 19.3 L8.9 20.3 8.2 20.7 Q7.85 20.7 7.55 20.3 7.25 19.85 7.25 19.3 7.25 18.75 7.55 18.35 7.8 17.95 8.2 17.95 8.6 17.95 8.9 18.35 L9.15 19.3" fill="url(#gradient21)" fill-rule="evenodd" stroke="none"/>
      <path d="M13.0 11.4 L12.7 12.4 Q12.45 12.8 12.05 12.8 L11.35 12.4 11.1 11.4 Q11.1 10.85 11.35 10.5 11.65 10.1 12.05 10.1 12.45 10.1 12.7 10.5 L13.0 11.4" fill="url(#gradient22)" fill-rule="evenodd" stroke="none"/>
      <path d="M13.0 15.4 L12.7 16.4 Q12.45 16.8 12.05 16.8 L11.35 16.4 11.1 15.4 Q11.1 14.85 11.35 14.45 11.65 14.05 12.05 14.05 12.45 14.05 12.7 14.45 13.0 14.85 13.0 15.4" fill="url(#gradient23)" fill-rule="evenodd" stroke="none"/>
      <path d="M13.0 19.7 L12.7 20.7 Q12.45 21.1 12.05 21.1 L11.35 20.7 Q11.1 20.3 11.1 19.7 11.1 19.15 11.35 18.75 11.65 18.35 12.05 18.35 12.45 18.35 12.7 18.75 13.0 19.15 13.0 19.7" fill="url(#gradient24)" fill-rule="evenodd" stroke="none"/>
      <path d="M24.95 4.3 L25.15 6.9 25.2 15.85 25.2 17.3 24.75 18.65 22.0 20.9 19.1 22.8 17.2 23.6 15.3 24.2 Q15.8 23.2 15.75 22.05 L15.65 8.05 15.75 7.9 Q16.05 7.6 18.5 6.4 L22.0 4.55 24.25 3.05 Q24.8 3.6 24.95 4.3" fill="url(#gradient25)" fill-rule="evenodd" stroke="none"/>
      <path d="M7.05 7.0 L0.05 6.5 0.55 5.9 Q1.85 4.95 5.15 3.2 8.95 1.1 10.0 1.05 L21.6 2.25 Q23.75 2.55 24.25 3.05 L22.75 4.25 18.85 6.25 Q16.05 7.6 15.75 7.9 L7.05 7.0" fill="url(#gradient26)" fill-rule="evenodd" stroke="none"/>
      <path d="M6.15 7.25 L2.4 6.7 0.1 6.25 7.7 7.05 12.55 7.5 15.7 7.6 Q16.25 7.55 19.6 5.75 L24.25 3.05 Q24.15 3.65 20.15 5.85 16.1 8.1 16.0 8.6 L16.0 21.05 Q15.9 23.6 15.3 24.2 L15.5 23.6 15.55 17.6 15.4 10.5 15.25 8.6 Q15.15 8.3 14.7 8.2 L6.15 7.25" fill="#86b932" fill-rule="evenodd" stroke="none"/>
      <path d="M13.0 21.35 Q13.2 20.9 13.65 21.15 14.1 21.35 13.9 21.8 12.75 24.6 12.95 26.15 13.05 26.65 12.55 26.65 12.05 26.7 11.95 26.25 11.7 24.5 13.0 21.35" fill="#c29f58" fill-rule="evenodd" stroke="none"/>
      <path d="M17.85 23.45 Q17.85 22.95 18.35 22.95 18.85 22.95 18.85 23.45 L18.85 24.55 Q18.85 25.05 18.35 25.05 17.85 25.05 17.85 24.6 L17.85 23.45" fill="#c29f58" fill-rule="evenodd" stroke="none"/>
      <path d="M20.7 23.55 L20.5 23.0 20.6 22.45 Q20.65 21.95 21.15 21.95 21.65 21.95 21.6 22.45 L21.5 22.8 21.5 22.9 Q21.8 23.15 21.45 23.5 L20.7 23.55" fill="#c29f58" fill-rule="evenodd" stroke="none"/>
      <path d="M22.95 19.65 Q22.95 19.15 23.45 19.2 23.95 19.25 23.95 19.75 23.95 20.35 24.2 20.6 24.55 20.95 24.15 21.3 23.8 21.65 23.45 21.3 22.95 20.75 22.95 19.65" fill="#c29f58" fill-rule="evenodd" stroke="none"/>
      <path d="M10.05 9.85 Q9.85 10.3 9.4 10.1 8.95 9.85 9.1 9.4 L10.05 8.0 Q10.7 7.35 11.4 7.05 L13.75 7.0 Q14.1 7.35 13.8 7.7 L13.15 7.75 Q12.65 7.25 11.3 8.3 10.3 9.05 10.05 9.85" fill="#c29f58" fill-rule="evenodd" stroke="none"/>
      <path d="M10.45 6.05 Q10.05 6.3 9.8 5.9 9.55 5.45 9.95 5.2 12.25 3.7 14.45 3.85 L16.7 4.3 18.55 4.4 Q19.05 4.45 18.9 4.95 18.8 5.45 18.35 5.35 L16.45 5.3 14.45 4.85 Q12.4 4.85 10.45 6.05" fill="#c29f58" fill-rule="evenodd" stroke="none"/>
      <path d="M21.85 2.85 Q22.25 3.1 21.95 3.5 21.7 3.9 21.3 3.65 19.95 2.75 20.15 1.75 20.3 1.05 21.25 0.1 L21.9 0.15 Q22.25 0.55 21.9 0.9 21.15 1.65 21.15 1.85 21.15 2.25 21.85 2.85" fill="#c29f58" fill-rule="evenodd" stroke="none"/>
      <path d="M9.3 15.6 Q8.25 16.1 8.05 17.0 L7.5 17.4 Q7.0 17.4 7.1 16.9 7.25 15.95 7.75 15.45 8.2 15.0 9.15 14.65 10.35 14.2 11.25 13.2 L12.65 11.1 Q12.9 10.7 13.3 10.95 13.75 11.2 13.5 11.6 12.3 13.7 11.15 14.7 L9.3 15.6" fill="#c29f58" fill-rule="evenodd" stroke="none"/>
      <path d="M9.5 20.6 Q8.65 21.85 8.8 22.95 8.9 23.45 8.4 23.55 7.95 23.7 7.85 23.2 7.7 22.0 8.05 21.15 L9.2 19.45 Q11.3 16.95 12.65 14.45 12.85 14.0 13.3 14.25 13.75 14.55 13.5 14.95 L11.1 18.65 9.5 20.6" fill="#c29f58" fill-rule="evenodd" stroke="none"/>
      <path d="M10.5 26.3 Q10.0 26.35 9.95 25.85 9.8 23.0 10.5 20.95 L12.2 17.1 Q12.35 16.65 12.85 16.75 13.35 16.85 13.2 17.3 L11.65 20.75 Q10.8 23.1 10.95 25.8 11.0 26.3 10.5 26.3" fill="#c29f58" fill-rule="evenodd" stroke="none"/>
      <path d="M10.45 11.0 L9.95 12.05 Q9.9 12.5 9.4 12.4 8.9 12.35 8.95 11.85 L9.7 10.5 10.8 8.95 Q11.95 7.55 13.15 7.65 13.65 7.65 13.55 8.15 13.5 8.65 13.0 8.6 12.1 8.55 11.2 10.1 L10.45 11.0" fill="#dbb464" fill-rule="evenodd" stroke="none"/>
      <path d="M13.5 9.15 Q14.0 9.0 14.05 9.5 14.1 10.0 13.65 10.1 12.75 10.35 12.15 11.85 L11.4 14.15 Q11.3 14.6 10.8 14.4 10.35 14.25 10.5 13.75 L11.05 12.1 Q11.3 11.15 11.65 10.65 12.5 9.4 13.5 9.15" fill="#dbb464" fill-rule="evenodd" stroke="none"/>
      <path d="M13.25 11.2 L13.95 11.3 Q14.3 11.65 13.9 11.95 13.4 12.3 13.15 13.25 L12.7 14.7 Q11.95 16.35 11.8 17.35 11.75 17.85 11.25 17.7 10.8 17.55 10.85 17.05 L11.4 15.15 12.1 13.3 Q12.6 11.65 13.25 11.2" fill="#dbb464" fill-rule="evenodd" stroke="none"/>
      <path d="M10.25 18.85 Q9.85 19.1 9.55 18.7 9.25 18.3 9.65 18.05 L11.65 16.65 12.75 14.6 Q12.95 14.15 13.4 14.4 13.85 14.6 13.65 15.05 13.15 16.5 12.4 17.3 L10.25 18.85" fill="#dbb464" fill-rule="evenodd" stroke="none"/>
      <path d="M10.35 21.8 Q9.9 21.7 9.95 21.2 10.5 18.4 12.2 16.6 12.55 16.25 12.9 16.6 13.3 16.95 12.95 17.3 11.45 18.85 10.95 21.45 10.85 21.9 10.35 21.8" fill="#dbb464" fill-rule="evenodd" stroke="none"/>
      <path d="M12.3 18.15 L13.0 18.1 Q13.4 18.4 13.1 18.75 11.95 20.15 11.95 23.0 11.95 23.5 11.45 23.45 10.95 23.4 10.95 22.9 10.95 19.75 12.3 18.15" fill="#dbb464" fill-rule="evenodd" stroke="none"/>
      <path d="M10.25 24.9 Q10.1 24.45 10.5 24.25 11.55 23.8 12.1 22.6 L12.85 20.35 Q13.05 19.9 13.5 20.15 13.95 20.35 13.8 20.8 L12.8 23.35 Q12.1 24.65 10.9 25.15 10.45 25.35 10.25 24.9" fill="#dbb464" fill-rule="evenodd" stroke="none"/>
      <path d="M13.35 24.55 Q13.3 24.1 13.8 24.1 14.3 24.1 14.35 24.6 14.35 25.3 14.7 25.5 15.1 25.75 14.85 26.2 14.6 26.65 14.2 26.4 13.35 25.9 13.35 24.55" fill="#dbb464" fill-rule="evenodd" stroke="none"/>
      <path d="M14.7 24.55 Q14.6 24.1 15.1 24.0 15.6 23.85 15.7 24.35 L15.95 25.15 Q16.4 25.35 16.15 25.8 15.9 26.25 15.45 26.0 L14.95 25.4 14.7 24.55" fill="#dbb464" fill-rule="evenodd" stroke="none"/>
      <path d="M16.2 24.3 Q16.05 23.85 16.55 23.75 17.05 23.65 17.2 24.1 L17.45 25.5 Q17.45 25.95 16.95 25.9 16.45 25.9 16.45 25.4 L16.2 24.3" fill="#dbb464" fill-rule="evenodd" stroke="none"/>
      <path d="M19.1 23.3 Q19.1 22.85 19.6 22.85 20.1 22.85 20.1 23.35 L20.1 24.2 Q20.1 24.7 19.6 24.7 19.1 24.7 19.1 24.2 L19.1 23.3" fill="#dbb464" fill-rule="evenodd" stroke="none"/>
      <path d="M20.95 21.1 Q20.95 20.6 21.45 20.6 21.95 20.55 21.95 21.05 21.95 21.9 22.15 22.05 22.5 22.4 22.2 22.75 L21.5 22.85 Q20.95 22.35 20.95 21.1" fill="#dbb464" fill-rule="evenodd" stroke="none"/>
      <path d="M22.1 19.9 Q22.1 19.4 22.6 19.45 23.05 19.5 23.05 20.0 L23.05 22.25 Q23.05 22.75 22.6 22.7 22.1 22.65 22.1 22.15 L22.1 19.9" fill="#dbb464" fill-rule="evenodd" stroke="none"/>
      <path d="M24.1 18.55 Q24.1 18.05 24.6 18.1 25.1 18.15 25.05 18.6 25.05 19.65 25.35 20.0 25.65 20.4 25.25 20.7 L24.55 20.65 Q24.0 20.05 24.1 18.55" fill="#dbb464" fill-rule="evenodd" stroke="none"/>
      <path d="M24.85 18.15 Q25.05 17.75 25.5 17.9 26.0 18.05 25.8 18.5 L25.75 18.85 Q26.0 19.25 25.55 19.5 25.15 19.7 24.9 19.3 24.6 18.85 24.85 18.15" fill="#dbb464" fill-rule="evenodd" stroke="none"/>
      <path d="M10.45 7.0 Q10.0 7.1 9.85 6.65 9.7 6.15 10.2 6.0 14.75 4.65 14.7 6.5 14.7 7.0 14.2 7.0 13.75 7.0 13.7 6.6 L13.6 6.55 13.1 6.55 12.1 6.65 10.45 7.0" fill="#dbb464" fill-rule="evenodd" stroke="none"/>
      <path d="M10.35 4.1 Q9.9 4.15 9.85 3.65 9.8 3.15 10.3 3.15 L12.3 3.05 Q13.6 3.05 14.3 3.4 15.85 4.35 17.1 6.1 17.4 6.5 17.0 6.75 16.55 7.05 16.3 6.65 L15.15 5.2 13.6 4.25 10.35 4.1" fill="#dbb464" fill-rule="evenodd" stroke="none"/>
      <path d="M18.7 4.8 Q19.05 5.15 18.65 5.45 18.3 5.8 17.95 5.45 L16.05 3.95 Q15.4 3.25 15.1 2.25 14.9 1.75 15.4 1.65 15.9 1.55 16.05 2.0 16.4 3.05 17.1 3.6 L18.7 4.8" fill="#dbb464" fill-rule="evenodd" stroke="none"/>
      <path d="M16.9 2.35 L15.95 2.05 15.0 1.85 Q14.5 1.8 14.6 1.3 14.65 0.8 15.15 0.9 L17.6 1.6 Q18.45 2.2 19.15 3.55 19.35 4.0 18.95 4.2 18.5 4.35 18.25 3.95 17.55 2.7 16.9 2.35" fill="#dbb464" fill-rule="evenodd" stroke="none"/>
      <path d="M21.75 3.1 Q22.0 3.5 21.6 3.75 L20.9 3.65 Q19.25 1.35 16.75 1.0 16.25 0.95 16.35 0.45 16.4 -0.05 16.9 0.0 19.9 0.45 21.75 3.1" fill="#dbb464" fill-rule="evenodd" stroke="none"/>
      <path d="M22.3 2.45 Q22.2 2.95 21.7 2.85 21.25 2.75 21.35 2.3 21.6 1.1 22.65 0.3 23.7 -0.45 24.9 -0.5 25.4 -0.5 25.45 0.0 25.5 0.5 25.0 0.5 24.1 0.55 23.35 1.05 22.5 1.6 22.3 2.45" fill="#dbb464" fill-rule="evenodd" stroke="none"/>
      <path d="M23.4 2.35 Q22.95 2.45 22.85 1.95 22.75 1.5 23.25 1.4 L24.95 1.55 Q25.8 1.9 26.15 2.8 26.35 3.2 25.9 3.45 25.45 3.65 25.25 3.2 24.8 2.1 23.4 2.35" fill="#dbb464" fill-rule="evenodd" stroke="none"/>
      <path d="M8.7 19.55 Q8.6 20.0 8.1 19.9 7.65 19.85 7.7 19.35 8.25 16.9 9.45 15.5 11.75 12.85 12.8 12.05 13.2 11.75 13.45 12.15 13.75 12.55 13.35 12.85 9.45 15.9 8.7 19.55" fill="#dbb464" fill-rule="evenodd" stroke="none"/>
      <path d="M12.65 19.65 Q12.9 19.25 13.3 19.5 13.75 19.8 13.5 20.25 13.15 20.85 13.05 21.85 13.05 22.35 12.55 22.3 12.05 22.3 12.1 21.8 12.1 20.75 12.65 19.65" fill="#dbb464" fill-rule="evenodd" stroke="none"/>
      <path d="M20.7 2.55 Q23.1 1.1 24.35 1.9 25.25 2.5 25.35 4.1 26.45 16.25 25.85 17.95 25.45 19.15 22.45 21.3 L17.55 24.5 Q15.65 25.7 14.3 24.95 13.1 24.25 13.1 22.8 12.75 10.05 12.95 8.05 13.1 6.7 16.2 4.9 17.85 3.95 20.7 2.55" fill="#dbb464" fill-rule="evenodd" stroke="none"/>
      <path d="M14.6 6.4 Q13.9 7.25 13.85 7.85 13.6 10.1 13.95 22.6 13.95 23.95 15.25 24.45 16.65 25.0 18.5 23.95 L17.55 24.5 Q15.65 25.7 14.3 24.95 13.1 24.25 13.1 22.8 12.75 10.05 12.95 8.05 13.15 6.7 16.15 4.95 L14.6 6.4" fill="#ab8743" fill-rule="evenodd" stroke="none"/>
      <path d="M21.2 3.1 Q23.35 1.75 24.5 2.5 25.3 3.05 25.45 4.55 L25.9 10.95 Q26.25 16.4 25.85 17.45 25.5 18.55 22.8 20.55 L18.4 23.55 Q16.7 24.65 15.45 23.95 14.35 23.35 14.3 21.95 14.0 10.35 14.2 8.25 14.35 7.0 17.1 5.3 L21.2 3.1" fill="#f0e0bb" fill-rule="evenodd" stroke="none"/>
      <path d="M14.2 8.25 Q14.35 7.0 17.1 5.3 L21.2 3.1 Q23.35 1.75 24.5 2.5 25.3 3.05 25.45 4.55 L25.9 10.85 Q26.25 16.25 25.9 17.4 L25.35 17.85 25.75 16.55 Q25.7 16.0 25.2 15.85 24.55 15.65 24.55 14.85 24.55 14.0 25.2 14.2 25.85 14.4 25.95 13.6 26.0 12.85 25.6 12.35 L24.85 11.15 Q24.5 10.4 24.85 10.5 25.25 10.6 25.35 9.5 25.4 8.45 24.95 8.0 L23.75 6.4 Q23.1 5.3 23.6 5.25 24.2 5.15 24.05 4.45 23.95 3.75 23.2 3.6 22.1 3.45 19.1 5.25 16.3 6.95 15.75 7.9 15.3 8.7 15.35 8.8 15.4 8.9 16.0 8.6 L17.25 8.65 Q17.85 9.1 17.1 10.1 L15.55 12.35 Q14.85 13.6 15.2 14.35 L16.05 14.3 Q16.65 13.5 16.85 13.6 17.85 14.1 16.45 16.1 15.5 17.45 15.2 18.65 14.8 20.0 15.6 20.1 16.15 20.15 16.95 18.95 17.65 17.85 18.1 17.95 19.3 18.3 17.45 20.85 16.7 21.9 16.75 22.3 16.75 22.8 18.0 22.8 16.5 23.65 14.95 23.55 14.3 22.8 14.3 21.95 14.0 10.35 14.2 8.25" fill="#a8420e" fill-rule="evenodd" stroke="none"/>
      <path d="M18.1 8.5 Q17.8 7.75 18.7 7.85 19.35 7.95 19.4 7.0 19.45 5.85 19.6 5.75 L20.35 5.3 Q20.75 5.25 20.85 6.0 L20.95 7.1 21.5 6.65 Q22.1 6.3 22.35 6.85 22.55 7.4 22.2 8.2 L21.7 9.35 21.7 11.6 Q21.75 13.45 21.95 14.6 22.25 16.3 23.0 15.8 23.7 15.3 23.7 15.45 L23.55 16.95 Q23.4 17.9 23.6 18.1 24.15 18.65 25.35 17.85 L25.9 17.4 25.85 17.45 Q25.5 18.55 22.8 20.55 L18.4 23.55 16.6 24.2 14.95 23.6 14.95 23.55 Q16.5 23.65 18.0 22.8 L19.45 21.85 Q20.95 20.55 21.1 19.5 21.25 18.65 20.45 18.2 19.8 17.85 19.95 17.4 20.1 17.0 20.95 16.7 21.9 16.4 21.4 13.35 20.9 10.2 19.6 9.75 18.35 9.3 18.1 8.5" fill="#604821" fill-rule="evenodd" stroke="none"/>
      <path d="M20.9 13.7 Q20.9 14.7 20.45 15.4 20.0 16.1 19.4 16.1 18.75 16.1 18.35 15.4 17.9 14.7 17.9 13.7 17.9 12.7 18.35 12.05 18.75 11.35 19.4 11.35 20.0 11.35 20.45 12.05 20.9 12.75 20.9 13.7" fill="#b6a176" fill-rule="evenodd" stroke="none"/>
      <path d="M20.3 13.7 Q20.3 14.45 19.95 14.95 19.6 15.45 19.05 15.45 18.5 15.45 18.15 14.95 17.8 14.45 17.8 13.7 17.8 13.0 18.15 12.5 18.55 12.0 19.05 12.0 19.6 12.0 19.95 12.5 20.3 13.0 20.3 13.7" fill="url(#gradient27)" fill-rule="evenodd" stroke="none"/>
      <path d="M24.4 11.75 Q24.4 12.65 24.05 13.3 L23.2 13.9 Q22.7 13.9 22.35 13.25 22.0 12.6 22.0 11.65 22.0 10.8 22.35 10.15 22.7 9.5 23.2 9.55 23.7 9.55 24.05 10.2 24.4 10.85 24.4 11.75" fill="#584d39" fill-rule="evenodd" stroke="none"/>
      <path d="M23.95 11.7 L23.65 12.85 22.95 13.35 Q22.55 13.3 22.25 12.85 21.95 12.35 21.95 11.7 21.95 11.05 22.25 10.6 22.55 10.1 22.95 10.15 23.35 10.15 23.65 10.65 L23.95 11.7" fill="url(#gradient28)" fill-rule="evenodd" stroke="none"/>
      <path d="M3.55 20.1 Q5.45 19.4 6.15 20.8 6.5 21.5 6.45 22.35 3.4 24.5 2.4 24.65 1.7 24.75 2.35 22.55 2.95 20.35 3.55 20.1" fill="url(#gradient29)" fill-rule="evenodd" stroke="none"/>
    </g>
    <linearGradient gradientTransform="matrix(0.0011, 0.0, 0.0, -0.0011, 7.7, 24.25)" gradientUnits="userSpaceOnUse" id="gradient4" spreadMethod="pad" x1="-819.2" x2="819.2">
      <stop offset="0.0" stop-color="#3d6c08"/>
      <stop offset="0.9372549019607843" stop-color="#315705"/>
    </linearGradient>
    <linearGradient gradientTransform="matrix(0.0011, 0.0, 0.0, -0.0011, 16.0, 20.45)" gradientUnits="userSpaceOnUse" id="gradient5" spreadMethod="pad" x1="-819.2" x2="819.2">
      <stop offset="0.0" stop-color="#5f4e29"/>
      <stop offset="0.9372549019607843" stop-color="#3a2b0e"/>
    </linearGradient>
    <linearGradient gradientTransform="matrix(0.0012, 0.0037, 0.0037, -0.0012, 0.8, 19.4)" gradientUnits="userSpaceOnUse" id="gradient6" spreadMethod="pad" x1="-819.2" x2="819.2">
      <stop offset="0.0" stop-color="#487c10"/>
      <stop offset="0.9372549019607843" stop-color="#2e4d04"/>
    </linearGradient>
    <linearGradient gradientTransform="matrix(0.0022, 0.0031, 0.0031, -0.0022, -2.0, 21.2)" gradientUnits="userSpaceOnUse" id="gradient7" spreadMethod="pad" x1="-819.2" x2="819.2">
      <stop offset="0.0" stop-color="#55901b"/>
      <stop offset="0.9372549019607843" stop-color="#477c0b"/>
    </linearGradient>
    <linearGradient gradientTransform="matrix(0.0022, 0.0031, 0.0031, -0.0022, -0.5, 20.15)" gradientUnits="userSpaceOnUse" id="gradient8" spreadMethod="pad" x1="-819.2" x2="819.2">
      <stop offset="0.0" stop-color="#55901b"/>
      <stop offset="0.9372549019607843" stop-color="#477c0b"/>
    </linearGradient>
    <linearGradient gradientTransform="matrix(0.0022, 0.0031, 0.0031, -0.0022, 0.95, 19.05)" gradientUnits="userSpaceOnUse" id="gradient9" spreadMethod="pad" x1="-819.2" x2="819.2">
      <stop offset="0.0" stop-color="#55901b"/>
      <stop offset="0.9372549019607843" stop-color="#477c0b"/>
    </linearGradient>
    <linearGradient gradientTransform="matrix(0.0022, 0.0031, 0.0031, -0.0022, -1.35, 20.75)" gradientUnits="userSpaceOnUse" id="gradient10" spreadMethod="pad" x1="-819.2" x2="819.2">
      <stop offset="0.0" stop-color="#55901b"/>
      <stop offset="0.9372549019607843" stop-color="#477c0b"/>
    </linearGradient>
    <linearGradient gradientTransform="matrix(0.0022, 0.0031, 0.0031, -0.0022, 0.05, 19.7)" gradientUnits="userSpaceOnUse" id="gradient11" spreadMethod="pad" x1="-819.2" x2="819.2">
      <stop offset="0.0" stop-color="#55901b"/>
      <stop offset="0.9372549019607843" stop-color="#477c0b"/>
    </linearGradient>
    <linearGradient gradientTransform="matrix(0.0036, 0.0111, 0.0111, -0.0036, 12.85, 13.9)" gradientUnits="userSpaceOnUse" id="gradient12" spreadMethod="pad" x1="-819.2" x2="819.2">
      <stop offset="0.0" stop-color="#487c10"/>
      <stop offset="0.9372549019607843" stop-color="#2e4d04"/>
    </linearGradient>
    <linearGradient gradientTransform="matrix(0.0058, 0.0081, 0.0081, -0.0058, 5.85, 15.75)" gradientUnits="userSpaceOnUse" id="gradient13" spreadMethod="pad" x1="-819.2" x2="819.2">
      <stop offset="0.0" stop-color="#55901b"/>
      <stop offset="0.9372549019607843" stop-color="#477c0b"/>
    </linearGradient>
    <linearGradient gradientTransform="matrix(0.0058, 0.0081, 0.0081, -0.0058, 3.95, 17.1)" gradientUnits="userSpaceOnUse" id="gradient14" spreadMethod="pad" x1="-819.2" x2="819.2">
      <stop offset="0.0" stop-color="#55901b"/>
      <stop offset="0.9372549019607843" stop-color="#477c0b"/>
    </linearGradient>
    <linearGradient gradientTransform="matrix(0.0058, 0.0081, 0.0081, -0.0058, 1.9, 18.55)" gradientUnits="userSpaceOnUse" id="gradient15" spreadMethod="pad" x1="-819.2" x2="819.2">
      <stop offset="0.0" stop-color="#55901b"/>
      <stop offset="0.9372549019607843" stop-color="#477c0b"/>
    </linearGradient>
    <linearGradient gradientTransform="matrix(0.0058, 0.0081, 0.0081, -0.0058, 7.65, 14.45)" gradientUnits="userSpaceOnUse" id="gradient16" spreadMethod="pad" x1="-819.2" x2="819.2">
      <stop offset="0.0" stop-color="#55901b"/>
      <stop offset="0.9372549019607843" stop-color="#477c0b"/>
    </linearGradient>
    <linearGradient gradientTransform="matrix(0.0058, 0.0081, 0.0081, -0.0058, 5.75, 15.8)" gradientUnits="userSpaceOnUse" id="gradient17" spreadMethod="pad" x1="-819.2" x2="819.2">
      <stop offset="0.0" stop-color="#55901b"/>
      <stop offset="0.9372549019607843" stop-color="#477c0b"/>
    </linearGradient>
    <linearGradient gradientTransform="matrix(0.0058, 0.0081, 0.0081, -0.0058, 3.7, 17.25)" gradientUnits="userSpaceOnUse" id="gradient18" spreadMethod="pad" x1="-819.2" x2="819.2">
      <stop offset="0.0" stop-color="#55901b"/>
      <stop offset="0.9372549019607843" stop-color="#477c0b"/>
    </linearGradient>
    <linearGradient gradientTransform="matrix(0.0058, 0.0081, 0.0081, -0.0058, 9.65, 13.05)" gradientUnits="userSpaceOnUse" id="gradient19" spreadMethod="pad" x1="-819.2" x2="819.2">
      <stop offset="0.0" stop-color="#55901b"/>
      <stop offset="0.9372549019607843" stop-color="#477c0b"/>
    </linearGradient>
    <linearGradient gradientTransform="matrix(0.0058, 0.0081, 0.0081, -0.0058, 7.75, 14.4)" gradientUnits="userSpaceOnUse" id="gradient20" spreadMethod="pad" x1="-819.2" x2="819.2">
      <stop offset="0.0" stop-color="#55901b"/>
      <stop offset="0.9372549019607843" stop-color="#477c0b"/>
    </linearGradient>
    <linearGradient gradientTransform="matrix(0.0058, 0.0081, 0.0081, -0.0058, 5.75, 15.85)" gradientUnits="userSpaceOnUse" id="gradient21" spreadMethod="pad" x1="-819.2" x2="819.2">
      <stop offset="0.0" stop-color="#55901b"/>
      <stop offset="0.9372549019607843" stop-color="#477c0b"/>
    </linearGradient>
    <linearGradient gradientTransform="matrix(0.0058, 0.0081, 0.0081, -0.0058, 12.0, 11.35)" gradientUnits="userSpaceOnUse" id="gradient22" spreadMethod="pad" x1="-819.2" x2="819.2">
      <stop offset="0.0" stop-color="#55901b"/>
      <stop offset="0.9372549019607843" stop-color="#477c0b"/>
    </linearGradient>
    <linearGradient gradientTransform="matrix(0.0058, 0.0081, 0.0081, -0.0058, 10.1, 12.7)" gradientUnits="userSpaceOnUse" id="gradient23" spreadMethod="pad" x1="-819.2" x2="819.2">
      <stop offset="0.0" stop-color="#55901b"/>
      <stop offset="0.9372549019607843" stop-color="#477c0b"/>
    </linearGradient>
    <linearGradient gradientTransform="matrix(0.0058, 0.0081, 0.0081, -0.0058, 8.05, 14.15)" gradientUnits="userSpaceOnUse" id="gradient24" spreadMethod="pad" x1="-819.2" x2="819.2">
      <stop offset="0.0" stop-color="#55901b"/>
      <stop offset="0.9372549019607843" stop-color="#477c0b"/>
    </linearGradient>
    <linearGradient gradientTransform="matrix(0.0037, 0.0097, 0.0097, -0.0037, 20.35, 14.85)" gradientUnits="userSpaceOnUse" id="gradient25" spreadMethod="pad" x1="-819.2" x2="819.2">
      <stop offset="0.0" stop-color="#a79876"/>
      <stop offset="1.0" stop-color="#685c44"/>
    </linearGradient>
    <linearGradient gradientTransform="matrix(0.0148, 0.0, 0.0, -0.0148, 12.15, 4.45)" gradientUnits="userSpaceOnUse" id="gradient26" spreadMethod="pad" x1="-819.2" x2="819.2">
      <stop offset="0.0" stop-color="#55901b"/>
      <stop offset="0.9372549019607843" stop-color="#477c0b"/>
    </linearGradient>
    <radialGradient cx="0" cy="0" gradientTransform="matrix(0.0018, 0.0, 0.0, -0.0018, 18.45, 14.35)" gradientUnits="userSpaceOnUse" id="gradient27" r="819.2" spreadMethod="pad">
      <stop offset="0.0" stop-color="#4d3b1d"/>
      <stop offset="1.0" stop-color="#2b1d04"/>
    </radialGradient>
    <radialGradient cx="0" cy="0" gradientTransform="matrix(0.0019, 0.0, 0.0, -0.0016, 22.0, 12.2)" gradientUnits="userSpaceOnUse" id="gradient28" r="819.2" spreadMethod="pad">
      <stop offset="0.0" stop-color="#4d3b1d"/>
      <stop offset="1.0" stop-color="#2b1d04"/>
    </radialGradient>
    <linearGradient gradientTransform="matrix(0.0019, 0.0014, 0.0014, -0.0019, 4.05, 22.5)" gradientUnits="userSpaceOnUse" id="gradient29" spreadMethod="pad" x1="-819.2" x2="819.2">
      <stop offset="0.0" stop-color="#4a810c"/>
      <stop offset="0.9372549019607843" stop-color="#2f5405"/>
    </linearGradient>
  </defs>
</svg>
