<?xml version="1.0" encoding="UTF-8" standalone="no"?>
<svg xmlns:xlink="http://www.w3.org/1999/xlink" height="172.4px" width="171.8px" xmlns="http://www.w3.org/2000/svg">
  <g transform="matrix(1.0, 0.0, 0.0, 1.0, 0.0, 0.0)">
    <use height="172.4" transform="matrix(1.0, 0.0, 0.0, 1.0, 0.0, 0.0)" width="171.8" xlink:href="#shape0"/>
    <use height="55.5" transform="matrix(1.0, 0.0, 0.0, 1.0, 30.65, 27.45)" width="109.55" xlink:href="#sprite0"/>
    <use height="61.0" transform="matrix(1.0, 0.0, 0.0, 1.0, 30.65, 27.45)" width="109.55" xlink:href="#sprite1"/>
    <use height="56.9" transform="matrix(1.0, 0.0, 0.0, 1.0, 26.35, 85.95)" width="118.15" xlink:href="#sprite2"/>
    <use height="57.35" transform="matrix(1.0, 0.0, 0.0, 1.0, 29.75, 71.15)" width="97.25" xlink:href="#shape4"/>
    <use height="11.9" transform="matrix(1.0, 0.0, 0.0, 1.0, 31.45, 74.7)" width="12.2" xlink:href="#sprite3"/>
    <use height="2.5" transform="matrix(1.0, 0.0, 0.0, 1.0, 36.55, 75.15)" width="6.9" xlink:href="#sprite4"/>
    <use height="17.5" transform="matrix(1.0, 0.0, 0.0, 1.0, 30.85, 68.55)" width="20.55" xlink:href="#sprite5"/>
    <use height="17.85" transform="matrix(1.0, 0.0, 0.0, 1.0, 39.25, 75.6)" width="27.85" xlink:href="#shape11"/>
    <use height="23.05" transform="matrix(1.0, 0.0, 0.0, 1.0, 58.85, 83.35)" width="24.9" xlink:href="#sprite6"/>
    <use height="34.8" transform="matrix(1.0, 0.0, 0.0, 1.0, 58.0, 76.85)" width="38.3" xlink:href="#sprite7"/>
    <use height="16.35" transform="matrix(1.0, 0.0, 0.0, 1.0, 62.55, 84.0)" width="18.2" xlink:href="#sprite8"/>
    <use height="6.8" transform="matrix(1.0, 0.0, 0.0, 1.0, 112.85, 83.0)" width="5.7" xlink:href="#sprite9"/>
    <use height="36.4" transform="matrix(1.0, 0.0, 0.0, 1.0, 67.2, 88.45)" width="55.65" xlink:href="#sprite10"/>
    <use height="34.8" transform="matrix(1.0, 0.0, 0.0, 1.0, 99.0, 89.95)" width="23.85" xlink:href="#sprite11"/>
    <use height="28.4" transform="matrix(1.0, 0.0, 0.0, 1.0, 116.85, 90.75)" width="6.0" xlink:href="#shape25"/>
    <use height="29.45" transform="matrix(1.0, 0.0, 0.0, 1.0, 71.8, 91.45)" width="8.85" xlink:href="#sprite14"/>
    <use height="26.45" transform="matrix(1.0, 0.0, 0.0, 1.0, 67.7, 88.45)" width="3.15" xlink:href="#shape28"/>
    <use height="19.0" transform="matrix(1.0, 0.0, 0.0, 1.0, 68.35, 80.2)" width="54.85" xlink:href="#sprite15"/>
    <use height="7.65" transform="matrix(1.0, 0.0, 0.0, 1.0, 109.65, 82.55)" width="7.9" xlink:href="#sprite16"/>
    <use height="52.35" transform="matrix(1.0, 0.0, 0.0, 1.0, 43.2, 45.65)" width="84.45" xlink:href="#shape33"/>
  </g>
  <defs>
    <g id="shape0" transform="matrix(1.0, 0.0, 0.0, 1.0, 0.0, 0.0)">
      <path d="M148.9 27.55 L151.2 30.15 Q150.5 42.3 150.5 51.05 L151.35 69.3 151.85 82.5 151.7 107.25 151.35 124.25 Q151.2 134.4 151.4 141.4 L148.75 144.4 Q148.25 132.9 148.3 125.65 148.35 115.35 149.45 106.9 L149.6 102.4 149.6 97.65 149.25 93.0 149.15 84.1 148.65 60.7 148.5 55.5 148.9 27.55" fill="#d99e58" fill-rule="evenodd" stroke="none"/>
      <path d="M80.75 0.2 L80.8 20.9 80.6 79.8 Q80.25 112.35 79.2 138.65 L79.3 143.15 79.65 147.7 80.0 152.4 Q80.65 161.25 80.45 166.25 L80.35 171.6 77.95 171.4 76.95 158.25 76.65 152.1 76.6 137.45 77.9 77.85 Q78.5 43.2 77.9 18.25 L77.85 0.4 80.75 0.2" fill="#d99e58" fill-rule="evenodd" stroke="none"/>
      <path d="M151.85 30.9 L154.75 34.55 153.4 43.75 153.3 47.2 Q153.25 49.1 153.75 50.7 L154.1 55.9 155.75 71.55 Q156.65 80.75 156.2 87.3 L156.2 111.95 Q155.2 122.1 155.8 135.8 L152.75 139.75 152.25 125.4 Q152.2 117.45 152.8 111.1 L153.0 106.7 152.9 87.4 152.9 83.5 152.25 71.65 151.45 59.9 151.05 55.05 Q150.8 46.6 151.85 30.9" fill="#d99e58" fill-rule="evenodd" stroke="none"/>
      <path d="M142.4 40.8 Q141.4 30.0 141.15 24.6 L140.85 19.9 146.1 24.7 146.55 56.1 146.2 86.6 146.5 98.4 146.5 106.5 Q145.2 123.05 145.75 147.45 L140.45 152.2 139.2 136.95 Q138.3 130.25 139.2 120.3 L140.6 103.55 140.8 98.65 140.9 90.05 140.8 78.9 142.35 57.05 Q143.1 50.45 142.4 40.8" fill="#d99e58" fill-rule="evenodd" stroke="none"/>
      <path d="M159.3 41.3 L159.15 48.65 Q159.3 54.1 160.45 63.8 161.8 74.6 162.05 79.25 L162.75 124.25 Q160.35 129.1 157.2 133.75 L157.65 114.05 157.85 96.05 157.55 91.1 157.4 85.65 157.55 79.85 Q157.65 76.5 157.35 74.15 155.45 61.85 154.9 55.25 L154.6 50.55 Q154.55 44.05 155.4 35.5 157.65 38.55 159.3 41.3" fill="#d99e58" fill-rule="evenodd" stroke="none"/>
      <path d="M76.8 0.5 L76.85 17.35 Q77.2 44.15 76.7 76.6 L75.3 135.85 75.35 141.9 75.75 152.6 76.8 171.05 76.8 171.3 72.6 170.75 72.1 160.5 71.45 150.2 71.2 145.8 71.05 142.1 71.0 138.4 Q71.0 110.15 71.75 63.1 L71.95 59.9 Q72.55 53.95 72.55 46.45 L72.2 33.05 72.4 16.5 72.25 10.85 72.2 1.1 76.8 0.5" fill="#d99e58" fill-rule="evenodd" stroke="none"/>
      <path d="M162.55 53.6 Q162.4 51.3 162.4 48.9 L162.4 46.9 Q164.65 51.3 166.05 55.05 166.3 58.7 166.9 63.45 L166.95 69.15 167.55 93.0 167.55 112.55 165.2 118.95 165.1 96.1 164.4 73.4 164.4 67.9 163.55 63.1 Q163.05 61.1 162.85 58.25 L162.55 53.6" fill="#d99e58" fill-rule="evenodd" stroke="none"/>
      <path d="M54.8 24.1 Q55.65 20.45 53.9 15.7 51.55 10.35 50.65 7.6 54.75 5.8 58.0 4.7 L58.05 5.45 Q57.9 8.9 60.05 16.75 61.95 23.75 61.15 28.0 L59.45 34.65 Q58.6 38.5 59.2 41.25 61.65 56.85 61.1 78.25 60.8 90.5 59.7 114.9 59.7 118.5 60.65 125.95 61.65 133.3 61.6 137.1 L61.55 142.15 61.05 155.1 60.85 168.05 54.05 165.6 55.0 153.1 55.6 140.6 55.6 136.3 Q55.5 133.7 53.8 123.2 52.45 115.05 53.3 109.95 55.85 94.25 55.25 78.25 L55.3 76.6 Q55.3 72.6 54.45 67.6 53.4 57.55 50.85 45.35 L50.35 39.8 Q50.15 38.15 50.35 35.55 L50.75 34.25 52.9 29.3 54.8 24.1" fill="#d99e58" fill-rule="evenodd" stroke="none"/>
      <path d="M62.65 23.1 Q63.25 19.7 62.1 15.35 L59.75 8.1 Q59.35 6.45 59.1 4.35 L61.65 3.55 61.7 5.5 62.15 8.85 Q64.1 18.8 64.1 30.45 L63.0 70.85 61.95 47.1 Q61.35 33.0 62.65 23.1" fill="#d99e58" fill-rule="evenodd" stroke="none"/>
      <path d="M163.1 75.65 L163.35 72.85 164.05 102.55 164.05 107.25 Q163.65 113.1 163.9 121.8 L163.5 122.7 163.5 122.45 Q163.4 111.6 163.55 106.1 L163.1 75.65" fill="#d99e58" fill-rule="evenodd" stroke="none"/>
      <path d="M67.6 4.2 L67.9 1.95 71.0 1.35 71.0 14.3 Q70.8 22.9 70.9 46.2 71.05 66.4 70.5 78.1 70.0 96.7 70.0 128.75 L70.25 149.25 70.35 150.45 Q70.7 158.6 71.5 167.95 L71.65 170.55 68.8 170.05 68.65 161.6 68.25 152.95 67.5 137.7 Q66.55 116.2 67.6 75.15 68.7 33.1 67.9 12.85 L67.6 8.5 Q67.45 6.3 67.6 4.2" fill="#d99e58" fill-rule="evenodd" stroke="none"/>
      <path d="M64.95 17.7 L63.25 7.25 Q62.9 5.9 63.25 3.45 L63.3 3.05 66.75 2.2 Q66.35 4.9 66.5 8.05 L66.8 12.05 Q67.55 15.25 67.55 22.15 L66.75 81.05 Q66.1 117.15 66.85 140.1 L67.05 150.2 Q66.8 154.0 67.1 159.95 L67.55 169.8 64.6 169.1 64.6 136.05 64.1 126.65 Q63.6 120.5 63.6 117.35 63.45 106.45 64.25 75.15 64.95 48.55 64.1 32.95 64.1 32.05 64.65 30.5 L65.6 28.0 Q65.9 23.85 64.95 17.7" fill="#d99e58" fill-rule="evenodd" stroke="none"/>
      <path d="M168.2 69.8 L168.0 60.55 Q171.8 72.7 171.8 85.9 171.8 97.1 169.0 107.7 L168.8 94.45 168.2 69.8" fill="#d99e58" fill-rule="evenodd" stroke="none"/>
      <path d="M137.75 36.65 L135.75 16.0 140.0 19.2 Q140.35 31.15 141.65 39.8 142.0 43.4 141.8 47.9 L141.15 56.0 140.75 60.55 139.5 77.1 138.65 106.45 Q138.0 117.0 138.25 129.9 138.4 138.5 139.15 153.25 L135.5 155.95 Q134.3 140.9 133.85 132.6 133.2 119.65 133.55 109.1 L134.15 100.65 135.25 94.25 135.75 89.95 135.9 85.7 135.85 82.85 137.65 62.25 138.1 57.35 Q138.75 48.65 137.75 36.65" fill="#d99e58" fill-rule="evenodd" stroke="none"/>
      <path d="M98.1 0.9 L98.35 36.15 Q98.55 60.4 97.9 75.75 L97.05 84.45 Q96.2 90.8 96.9 97.6 L97.5 101.9 98.6 106.7 Q101.5 119.4 101.85 129.15 102.3 141.55 98.95 151.7 98.4 153.3 98.3 156.05 L98.3 160.3 98.5 164.15 Q98.8 167.55 99.6 170.7 L98.85 170.8 Q98.2 166.65 98.05 162.1 L97.95 158.7 98.65 149.25 Q99.85 135.95 99.85 127.9 99.85 116.25 97.6 106.85 L95.75 98.3 Q94.95 92.45 95.55 87.75 L96.3 73.95 Q97.15 60.85 96.8 41.3 L96.7 36.9 Q96.35 21.4 95.5 5.95 L95.3 0.55 98.1 0.9" fill="#d99e58" fill-rule="evenodd" stroke="none"/>
      <path d="M117.15 27.65 L117.55 6.05 122.55 8.2 122.1 29.55 Q121.8 42.45 122.0 50.9 L121.7 74.4 121.7 78.9 121.5 83.4 118.5 121.35 Q117.35 142.9 119.55 159.55 119.8 161.7 119.25 165.05 L114.8 166.8 115.15 162.5 115.7 122.0 Q115.95 96.65 116.35 81.4 L116.9 73.5 Q117.25 67.0 117.25 54.0 L117.2 49.3 Q116.9 40.6 117.15 27.65" fill="#d99e58" fill-rule="evenodd" stroke="none"/>
      <path d="M100.2 1.2 Q100.2 11.2 100.65 21.15 L100.9 37.7 101.0 57.5 Q100.9 68.8 100.1 77.35 L99.85 82.5 Q99.1 93.0 99.05 95.65 L99.05 100.05 100.55 104.1 102.25 108.85 103.45 113.65 Q105.0 123.6 104.0 136.25 103.35 143.85 100.9 159.05 100.15 163.95 101.35 167.95 L101.8 170.3 100.8 170.45 Q100.3 167.6 99.95 163.65 L99.75 159.2 101.0 152.05 Q103.5 136.4 103.75 129.15 104.2 115.9 100.15 106.5 L98.35 101.2 97.75 96.9 Q97.05 89.9 98.85 83.25 L99.25 78.45 Q100.25 59.25 99.5 36.85 L99.1 14.75 Q98.75 7.1 98.7 0.95 L100.2 1.2" fill="#d99e58" fill-rule="evenodd" stroke="none"/>
      <path d="M101.9 32.4 L101.85 21.2 101.85 1.5 103.1 1.75 Q102.75 15.05 103.45 26.05 L103.55 31.95 104.2 56.15 Q104.3 70.05 102.55 79.9 L102.1 85.0 Q101.7 87.55 101.6 90.3 101.9 94.8 102.95 100.9 L103.95 106.25 105.1 110.95 Q107.4 123.1 106.4 139.65 105.85 149.2 103.9 168.15 L103.95 169.85 103.9 169.9 103.7 167.85 Q103.2 166.05 103.25 163.45 L103.35 159.05 Q105.2 143.35 105.75 135.55 106.65 122.05 104.55 112.2 L103.25 107.65 101.4 102.6 Q100.8 100.45 100.55 97.2 L100.25 91.75 Q100.25 90.05 100.4 88.4 L100.8 85.0 101.1 80.4 Q102.7 71.2 102.35 56.65 101.8 35.6 101.9 32.4" fill="#d99e58" fill-rule="evenodd" stroke="none"/>
      <path d="M110.55 30.15 L110.95 3.75 114.25 4.85 114.2 7.05 Q114.45 13.05 114.15 23.4 L113.75 39.9 113.7 45.35 113.55 56.2 113.4 61.65 112.85 75.25 112.55 79.75 Q111.95 87.2 112.1 96.1 L112.15 99.4 Q112.2 110.1 112.9 131.6 113.35 150.95 112.15 164.0 L111.9 167.4 111.9 167.75 109.35 168.5 109.35 167.05 Q110.75 145.05 110.95 134.3 111.3 116.05 109.55 101.75 L109.35 98.5 Q108.75 89.35 109.15 82.2 L109.5 76.95 Q111.25 50.55 110.55 30.15" fill="#d99e58" fill-rule="evenodd" stroke="none"/>
      <path d="M114.75 47.85 L114.85 44.45 115.2 5.15 116.55 5.65 116.15 26.0 Q115.9 38.3 116.2 46.4 L116.1 50.45 Q115.9 62.65 115.2 70.95 L114.55 80.15 Q113.65 95.1 113.45 125.1 113.05 107.4 113.75 97.6 L113.8 93.95 Q114.05 83.65 114.45 75.55 L114.75 65.15 Q114.6 56.55 114.75 47.85" fill="#d99e58" fill-rule="evenodd" stroke="none"/>
      <path d="M127.7 35.05 L127.35 10.7 Q131.05 12.75 133.85 14.65 L134.15 21.45 Q134.65 32.7 136.45 40.9 137.2 48.2 136.85 54.3 L135.3 60.75 133.85 73.95 Q133.65 76.85 133.8 80.85 L134.1 87.6 134.15 90.75 132.45 100.0 Q126.6 127.9 132.45 154.4 L133.1 157.6 Q129.7 159.85 125.8 161.95 L124.95 157.1 123.9 150.65 122.85 135.2 Q122.85 125.35 124.45 111.4 L127.2 88.0 127.5 84.1 Q127.9 77.8 127.7 72.3 L128.0 59.45 127.7 35.05" fill="#d99e58" fill-rule="evenodd" stroke="none"/>
      <path d="M84.15 24.05 L84.15 0.05 85.95 0.0 91.5 0.2 91.5 52.8 Q91.65 58.05 91.45 62.7 L91.35 67.65 91.0 86.8 90.95 90.65 90.9 101.3 91.0 111.45 Q90.75 118.0 91.15 128.15 L91.75 144.75 91.75 158.8 92.1 162.05 93.6 171.4 85.95 171.8 83.55 171.7 84.0 153.3 84.05 138.25 Q83.1 117.8 83.8 81.25 84.6 41.25 84.15 24.05" fill="#d99e58" fill-rule="evenodd" stroke="none"/>
      <path d="M83.2 0.1 L83.25 26.25 83.5 54.55 Q83.5 73.45 83.75 83.0 83.75 87.55 82.75 109.25 81.95 125.3 82.9 135.65 L82.9 140.65 82.75 150.6 82.75 171.7 81.45 171.65 Q81.6 162.65 81.35 152.2 L80.9 138.2 Q80.85 125.2 81.65 80.0 82.3 43.8 81.65 21.75 L81.65 0.1 83.2 0.1" fill="#d99e58" fill-rule="evenodd" stroke="none"/>
      <path d="M92.75 45.95 L92.75 0.3 94.95 0.5 Q94.95 19.5 95.4 38.6 L95.5 43.25 96.25 59.2 Q96.5 68.15 95.6 74.95 L94.65 87.8 Q94.05 92.9 94.65 99.15 L96.25 107.95 Q98.45 116.8 98.65 127.7 98.75 136.4 97.55 147.95 L96.3 159.45 96.35 162.65 Q96.5 167.0 97.15 171.0 L95.55 171.25 Q94.65 167.0 94.0 162.2 L92.95 144.05 Q92.4 136.9 92.45 126.7 L92.6 109.7 92.4 104.1 92.0 87.15 92.5 70.2 92.75 45.95" fill="#d99e58" fill-rule="evenodd" stroke="none"/>
      <path d="M125.5 32.85 L125.7 9.8 126.35 10.15 126.75 33.4 127.15 56.6 127.15 61.45 127.0 73.6 127.0 84.65 126.85 88.25 Q121.75 107.9 122.85 135.2 122.85 143.35 123.9 150.65 L124.95 162.35 123.35 163.2 123.0 160.05 Q118.3 126.75 125.4 88.4 L125.9 82.5 126.0 76.55 126.05 72.55 126.0 60.65 125.9 55.85 Q125.45 45.95 125.5 32.85" fill="#d99e58" fill-rule="evenodd" stroke="none"/>
      <path d="M123.75 31.25 L124.1 9.0 125.05 9.45 124.75 30.5 Q124.5 43.9 124.55 51.55 L124.4 76.45 124.6 82.45 124.35 88.4 Q121.25 104.0 120.95 125.2 120.9 130.45 121.55 162.0 L121.55 164.0 121.25 164.15 120.55 157.1 Q119.35 141.55 120.75 119.75 122.75 94.95 123.45 82.4 L123.35 76.25 123.5 53.45 123.75 31.25" fill="#d99e58" fill-rule="evenodd" stroke="none"/>
      <path d="M5.85 101.25 L6.0 117.2 5.7 116.4 5.75 106.05 5.8 101.55 5.95 96.45 5.85 101.25" fill="#d99e58" fill-rule="evenodd" stroke="none"/>
      <path d="M19.6 37.25 L19.4 31.7 23.05 27.5 23.6 31.35 23.85 36.55 Q24.0 42.75 23.0 54.65 22.05 66.8 22.1 72.65 L22.3 103.45 Q22.35 107.45 22.85 115.75 22.95 122.9 21.4 127.15 20.35 130.6 20.35 134.6 20.35 137.65 21.0 142.0 L16.35 136.15 Q16.45 134.0 17.0 132.05 18.4 126.8 18.05 117.75 17.65 106.8 18.05 103.1 L17.95 97.6 Q17.85 89.8 18.1 77.95 L18.35 67.6 Q18.4 62.85 19.05 52.4 19.65 42.6 19.6 37.25" fill="#d99e58" fill-rule="evenodd" stroke="none"/>
      <path d="M29.25 37.55 Q29.35 35.1 29.1 32.6 L26.7 23.8 29.3 21.45 Q30.05 25.65 31.25 30.0 31.85 32.15 31.8 35.1 L31.6 40.15 31.15 45.2 29.45 57.75 Q28.4 65.35 28.25 70.25 L28.45 85.9 Q28.35 88.85 28.65 94.55 L28.9 103.2 28.75 106.75 Q28.85 127.65 27.8 138.9 27.0 142.95 28.15 146.25 L28.35 149.55 24.4 145.7 23.7 140.4 Q23.45 137.35 23.9 135.0 25.3 129.7 25.15 121.05 25.0 110.2 25.35 107.05 L25.4 70.45 Q25.65 69.1 25.1 66.3 24.6 63.6 24.85 62.35 27.0 54.15 27.8 49.95 29.2 43.05 29.25 37.55" fill="#d99e58" fill-rule="evenodd" stroke="none"/>
      <path d="M36.25 37.0 L36.15 28.0 34.95 22.85 33.45 18.0 35.5 16.45 37.35 28.45 Q38.15 35.25 37.75 40.6 L37.5 45.4 36.6 57.35 Q36.05 64.4 36.0 69.2 L36.1 73.45 36.85 114.0 36.95 118.5 Q37.3 126.1 36.9 133.6 L36.05 155.75 32.3 152.9 32.35 142.55 Q33.2 132.05 33.2 111.55 L33.15 68.4 Q33.15 63.2 34.25 54.95 L35.95 41.45 36.25 37.0" fill="#d99e58" fill-rule="evenodd" stroke="none"/>
      <path d="M104.85 35.2 L105.2 2.2 109.8 3.4 109.35 30.2 109.35 52.1 Q109.3 64.85 108.75 74.1 L108.4 78.95 107.9 84.2 Q107.5 87.35 107.8 89.35 107.8 94.4 108.2 100.15 L108.5 103.7 Q110.4 116.05 109.65 135.55 108.6 163.1 108.7 167.5 L108.7 168.7 105.85 169.45 105.9 166.15 Q108.0 145.15 108.3 137.75 108.85 121.75 106.2 109.55 L104.85 104.9 103.35 100.15 Q102.25 97.15 103.6 92.0 105.15 85.9 105.0 83.65 L105.3 78.8 Q105.9 70.35 105.45 57.15 L104.85 35.2" fill="#d99e58" fill-rule="evenodd" stroke="none"/>
      <path d="M32.55 44.7 L32.75 39.55 Q32.35 31.95 30.7 20.2 L32.1 19.05 Q33.0 24.55 34.65 30.0 35.3 32.15 35.25 35.15 L35.1 40.25 34.5 45.25 32.4 57.9 Q31.25 65.35 31.45 70.7 L31.5 75.95 Q32.05 82.05 31.95 90.25 L31.65 104.35 31.6 109.05 31.8 126.65 Q32.0 137.35 30.95 144.2 L30.85 151.75 28.85 149.95 28.7 147.05 28.0 142.1 Q27.65 139.15 28.3 136.95 29.6 130.65 30.0 123.2 30.25 118.1 30.1 109.35 L29.8 105.2 29.75 94.55 Q29.8 88.0 29.4 84.0 L29.2 68.8 29.15 64.35 Q29.15 61.75 29.75 59.9 31.95 52.7 32.55 44.7" fill="#d99e58" fill-rule="evenodd" stroke="none"/>
      <path d="M24.5 26.0 L25.35 25.1 26.9 31.3 27.45 35.95 Q28.0 43.6 26.35 50.1 24.9 56.4 24.4 59.65 23.7 64.9 24.25 69.05 L24.4 73.2 24.75 106.25 Q25.0 112.65 24.15 125.6 23.3 138.4 23.6 144.85 L21.5 142.6 Q21.25 138.85 21.4 136.45 21.5 134.4 22.75 120.5 23.65 110.85 23.25 104.35 L23.4 72.15 Q22.9 65.6 24.4 55.7 L26.65 39.5 26.8 34.9 Q25.6 30.9 24.5 26.0" fill="#d99e58" fill-rule="evenodd" stroke="none"/>
      <path d="M0.15 90.0 L0.3 79.4 Q1.25 67.05 5.75 55.15 L4.8 105.7 4.95 114.4 Q0.75 102.6 0.15 90.0" fill="#d99e58" fill-rule="evenodd" stroke="none"/>
      <path d="M7.45 73.0 L7.6 63.1 Q7.45 59.1 7.55 50.85 9.9 45.65 12.55 41.3 L12.4 53.8 Q12.35 61.3 12.45 66.5 L12.2 76.75 Q11.75 89.25 11.7 98.1 L11.65 102.4 Q11.25 106.6 11.4 114.05 11.5 122.0 11.25 125.6 L11.05 127.9 Q8.8 123.95 7.0 119.65 L6.75 111.9 Q6.6 107.15 6.8 103.95 L6.85 100.1 7.45 73.0" fill="#d99e58" fill-rule="evenodd" stroke="none"/>
      <path d="M13.8 39.4 Q15.65 36.5 17.45 34.15 17.75 44.75 17.1 69.0 L17.0 73.7 Q16.65 87.55 16.65 97.3 L16.65 102.0 16.55 118.05 Q16.5 127.6 15.05 134.0 L15.0 134.25 Q13.5 132.1 12.15 129.75 L12.25 128.35 Q13.1 115.9 12.95 103.6 L12.9 99.2 13.2 77.0 13.5 66.4 Q14.05 51.6 13.8 39.4" fill="#d99e58" fill-rule="evenodd" stroke="none"/>
      <path d="M43.7 36.8 Q45.0 29.35 45.15 23.9 45.3 16.9 43.65 11.2 46.95 9.3 49.05 8.35 51.9 15.2 49.8 26.95 47.45 40.2 48.4 45.2 L52.3 65.55 Q53.35 85.45 52.9 103.35 L52.35 106.05 Q51.0 113.25 51.85 122.25 L53.15 131.05 Q53.7 135.9 53.55 139.7 L53.45 143.6 52.8 154.2 52.0 164.75 Q49.4 163.7 46.3 162.05 L46.65 155.0 Q47.1 147.05 46.95 141.0 L46.85 137.45 Q46.05 133.25 45.7 129.7 44.7 115.15 46.75 97.45 L46.75 97.3 47.9 87.4 Q48.95 79.2 47.85 70.0 47.0 62.6 44.5 52.55 43.7 49.7 43.35 47.6 43.3 42.8 43.7 36.8" fill="#d99e58" fill-rule="evenodd" stroke="none"/>
      <path d="M49.9 40.8 L50.85 45.35 51.65 55.2 Q49.95 48.35 49.4 44.2 48.9 41.05 50.0 36.8 49.6 39.05 49.9 40.8" fill="#d99e58" fill-rule="evenodd" stroke="none"/>
      <path d="M62.15 89.85 L62.8 83.2 Q62.3 115.5 63.5 139.65 L63.55 143.5 63.55 168.8 61.35 168.2 62.1 144.8 62.15 139.55 61.05 114.85 Q60.6 100.6 62.15 89.85" fill="#d99e58" fill-rule="evenodd" stroke="none"/>
      <path d="M147.2 126.9 L147.4 145.8 147.0 146.2 Q146.9 135.85 147.2 126.9" fill="#d99e58" fill-rule="evenodd" stroke="none"/>
      <path d="M52.55 123.15 L53.55 129.1 Q54.25 132.9 54.4 135.25 52.95 129.3 52.55 123.15" fill="#d99e58" fill-rule="evenodd" stroke="none"/>
      <path d="M44.95 60.4 Q46.55 67.3 47.1 73.5 L44.95 60.4" fill="#d99e58" fill-rule="evenodd" stroke="none"/>
      <path d="M39.5 38.7 L39.35 33.45 Q39.25 29.65 38.4 24.45 L36.85 15.5 41.9 12.2 Q42.75 18.3 42.85 26.7 L42.7 41.2 Q42.1 47.6 43.0 52.55 L43.15 53.05 Q43.5 57.3 44.95 64.85 46.55 73.2 46.95 76.6 47.85 84.3 46.45 90.35 44.75 101.5 44.35 114.1 44.05 123.85 44.5 137.65 L44.5 161.1 38.15 157.25 38.3 143.6 38.25 132.95 38.35 119.7 38.7 69.8 38.7 64.7 Q39.7 49.5 39.5 38.7" fill="#d99e58" fill-rule="evenodd" stroke="none"/>
      <path d="M0.05 85.9 L0.3 79.4 0.15 90.0 0.05 85.9" fill="#af6924" fill-rule="evenodd" stroke="none"/>
      <path d="M6.8 52.5 L6.55 69.85 5.8 101.55 5.75 106.05 5.7 116.4 4.95 114.4 4.8 105.7 5.75 55.15 6.8 52.5" fill="#af6924" fill-rule="evenodd" stroke="none"/>
      <path d="M6.55 69.55 L6.65 59.25 6.8 55.6 6.8 52.5 7.55 50.85 Q7.45 59.1 7.6 63.1 L7.45 73.0 6.85 100.1 6.8 103.95 Q6.6 107.15 6.75 111.9 L7.0 119.65 6.0 117.2 5.85 101.25 6.55 69.55" fill="#af6924" fill-rule="evenodd" stroke="none"/>
      <path d="M12.55 41.3 L13.8 39.4 Q14.05 51.6 13.5 66.4 L13.2 77.0 12.9 99.2 12.95 103.6 Q13.1 115.9 12.25 128.35 L12.15 129.75 11.05 127.9 11.25 125.6 Q11.5 122.0 11.4 114.05 11.25 106.6 11.65 102.4 L11.7 98.1 Q11.75 89.25 12.2 76.75 L12.45 66.5 Q12.35 61.3 12.4 53.8 L12.55 41.3" fill="#af6924" fill-rule="evenodd" stroke="none"/>
      <path d="M19.4 31.7 L19.6 37.25 Q19.65 42.6 19.05 52.4 18.4 62.85 18.35 67.6 L18.1 77.95 Q17.85 89.8 17.95 97.6 L18.05 103.1 Q17.65 106.8 18.05 117.75 18.4 126.8 17.0 132.05 16.45 134.0 16.35 136.15 L15.0 134.25 15.05 134.0 Q16.5 127.6 16.55 118.05 L16.65 102.0 16.65 97.3 Q16.65 87.55 17.0 73.7 L17.1 69.0 Q17.75 44.75 17.45 34.15 L19.4 31.7" fill="#af6924" fill-rule="evenodd" stroke="none"/>
      <path d="M23.85 36.55 L23.6 31.35 23.05 27.5 24.5 26.0 Q25.6 30.9 26.8 34.9 L26.65 39.5 24.4 55.7 Q22.9 65.6 23.4 72.15 L23.25 104.35 Q23.65 110.85 22.75 120.5 21.5 134.4 21.4 136.45 21.25 138.85 21.5 142.6 L21.0 142.0 Q20.35 137.65 20.35 134.6 20.35 130.6 21.4 127.15 22.95 122.9 22.85 115.75 22.35 107.45 22.3 103.45 L22.1 72.65 Q22.05 66.8 23.0 54.65 24.0 42.75 23.85 36.55" fill="#af6924" fill-rule="evenodd" stroke="none"/>
      <path d="M27.45 35.95 L26.9 31.3 25.35 25.1 26.7 23.8 29.1 32.6 Q29.35 35.1 29.25 37.55 29.2 43.05 27.8 49.95 27.0 54.15 24.85 62.35 24.6 63.6 25.1 66.3 25.65 69.1 25.4 70.45 L25.35 107.05 Q25.0 110.2 25.15 121.05 25.3 129.7 23.9 135.0 23.45 137.35 23.7 140.4 L24.4 145.7 23.6 144.85 Q23.3 138.4 24.15 125.6 25.0 112.65 24.75 106.25 L24.4 73.2 24.25 69.05 Q23.7 64.9 24.4 59.65 24.9 56.4 26.35 50.1 28.0 43.6 27.45 35.95" fill="#af6924" fill-rule="evenodd" stroke="none"/>
      <path d="M31.6 40.15 L31.8 35.1 Q31.85 32.15 31.25 30.0 30.05 25.65 29.3 21.45 L30.7 20.2 Q32.35 31.95 32.75 39.55 L32.55 44.7 Q31.95 52.7 29.75 59.9 29.15 61.75 29.15 64.35 L29.2 68.8 29.4 84.0 Q29.8 88.0 29.75 94.55 L29.8 105.2 30.1 109.35 Q30.25 118.1 30.0 123.2 29.6 130.65 28.3 136.95 27.65 139.15 28.0 142.1 L28.7 147.05 28.85 149.95 28.35 149.55 28.15 146.25 Q27.0 142.95 27.8 138.9 28.85 127.65 28.75 106.75 L28.9 103.2 28.65 94.55 Q28.35 88.85 28.45 85.9 L28.25 70.25 Q28.4 65.35 29.45 57.75 L31.15 45.2 31.6 40.15" fill="#af6924" fill-rule="evenodd" stroke="none"/>
      <path d="M33.45 18.0 L34.95 22.85 36.15 28.0 36.25 37.0 35.95 41.45 34.25 54.95 Q33.15 63.2 33.15 68.4 L33.2 111.55 Q33.2 132.05 32.35 142.55 L32.3 152.9 30.85 151.75 30.95 144.2 Q32.0 137.35 31.8 126.65 L31.6 109.05 31.65 104.35 31.95 90.25 Q32.05 82.05 31.5 75.95 L31.45 70.7 Q31.25 65.35 32.4 57.9 L34.5 45.25 35.1 40.25 35.25 35.15 Q35.3 32.15 34.65 30.0 33.0 24.55 32.1 19.05 L33.45 18.0" fill="#af6924" fill-rule="evenodd" stroke="none"/>
      <path d="M39.2 38.9 L39.25 33.45 Q39.2 30.1 38.6 28.0 37.35 21.95 36.75 15.55 L36.85 15.5 38.4 24.45 Q39.25 29.65 39.35 33.45 L39.5 38.7 Q39.7 49.5 38.7 64.7 L38.7 69.8 38.35 119.7 38.25 132.95 38.3 143.6 38.15 157.25 37.0 156.4 37.4 149.45 37.7 120.3 Q37.65 114.75 38.05 95.0 38.3 79.3 37.95 69.8 L37.9 65.0 Q37.95 60.75 38.35 54.15 L39.0 43.25 39.2 38.9" fill="#af6924" fill-rule="evenodd" stroke="none"/>
      <path d="M37.75 40.6 Q38.15 35.25 37.35 28.45 L35.5 16.45 Q35.85 16.25 36.15 16.0 L38.35 28.4 Q39.25 35.45 38.55 41.1 L38.1 45.7 37.0 57.25 Q36.55 63.8 36.95 68.65 L37.0 73.5 37.2 117.65 36.85 156.3 36.05 155.75 36.9 133.6 Q37.3 126.1 36.95 118.5 L36.85 114.0 36.1 73.45 36.0 69.2 Q36.05 64.4 36.6 57.35 L37.5 45.4 37.75 40.6" fill="#af6924" fill-rule="evenodd" stroke="none"/>
      <path d="M38.55 41.1 Q39.25 35.45 38.35 28.4 L36.15 16.0 36.75 15.55 Q37.35 21.95 38.6 28.0 39.2 30.1 39.25 33.45 L39.2 38.9 39.0 43.25 38.35 54.15 Q37.95 60.75 37.9 65.0 L37.95 69.8 Q38.3 79.3 38.05 95.0 37.65 114.75 37.7 120.3 L37.4 149.45 37.05 152.85 37.2 117.65 37.0 73.5 36.95 68.65 Q36.55 63.8 37.0 57.25 L38.1 45.7 38.55 41.1" fill="#af6924" fill-rule="evenodd" stroke="none"/>
      <path d="M46.45 90.35 Q47.85 84.3 46.95 76.6 46.55 73.2 44.95 64.85 43.5 57.3 43.15 53.05 L44.95 60.4 47.1 73.5 47.45 80.05 Q47.6 86.8 45.5 108.1 43.75 125.75 45.4 136.65 L45.05 161.4 44.5 161.1 44.5 137.65 Q44.05 123.85 44.35 114.1 44.75 101.5 46.45 90.35" fill="#af6924" fill-rule="evenodd" stroke="none"/>
      <path d="M45.9 106.25 Q44.95 118.85 45.7 129.7 44.95 122.35 45.35 113.6 L45.9 106.25" fill="#af6924" fill-rule="evenodd" stroke="none"/>
      <path d="M43.7 36.8 Q43.3 42.8 43.35 47.6 42.7 43.65 43.0 40.3 L43.7 36.8" fill="#af6924" fill-rule="evenodd" stroke="none"/>
      <path d="M42.7 41.2 L42.85 26.7 Q42.75 18.3 41.9 12.2 L42.4 11.9 44.0 22.15 Q44.35 26.15 43.8 31.75 L42.7 41.2" fill="#af6924" fill-rule="evenodd" stroke="none"/>
      <path d="M46.4 140.7 L46.35 136.15 Q45.95 133.3 45.7 129.7 46.05 133.25 46.85 137.45 L46.95 141.0 Q47.1 147.05 46.65 155.0 L46.3 162.05 45.85 161.8 45.95 158.85 46.4 140.7" fill="#af6924" fill-rule="evenodd" stroke="none"/>
      <path d="M43.7 36.8 L44.35 24.1 Q44.5 16.9 43.45 11.3 L43.65 11.2 Q45.3 16.9 45.15 23.9 45.0 29.35 43.7 36.8" fill="#af6924" fill-rule="evenodd" stroke="none"/>
      <path d="M47.75 88.9 Q48.3 82.0 47.1 73.5 46.55 67.3 44.95 60.4 43.85 53.9 43.5 50.6 L43.35 47.6 Q43.7 49.7 44.5 52.55 47.0 62.6 47.85 70.0 48.95 79.2 47.9 87.4 L47.75 88.9" fill="#af6924" fill-rule="evenodd" stroke="none"/>
      <path d="M43.0 51.6 L43.15 53.05 43.0 52.55 Q42.1 47.6 42.7 41.2 42.7 47.45 43.0 51.6" fill="#af6924" fill-rule="evenodd" stroke="none"/>
      <path d="M47.45 80.05 L47.1 73.5 Q48.3 82.0 47.75 88.9 L46.75 97.3 46.75 97.45 Q45.65 106.95 45.35 113.6 44.95 122.35 45.7 129.7 45.95 133.3 46.35 136.15 L46.4 140.7 45.95 158.85 45.85 161.8 45.05 161.4 45.4 136.65 Q43.75 125.75 45.5 108.1 47.6 86.8 47.45 80.05" fill="#af6924" fill-rule="evenodd" stroke="none"/>
      <path d="M42.7 41.2 L43.8 31.75 Q44.35 26.15 44.0 22.15 L42.4 11.9 43.45 11.3 Q44.5 16.9 44.35 24.1 L43.7 36.8 43.0 40.3 Q42.7 43.65 43.35 47.6 L43.5 50.6 Q43.85 53.9 44.95 60.4 L43.15 53.05 43.0 51.6 Q42.7 47.45 42.7 41.2" fill="#af6924" fill-rule="evenodd" stroke="none"/>
      <path d="M52.35 117.65 L52.35 117.85 Q52.15 120.2 52.55 123.15 52.95 129.3 54.4 135.25 L54.5 136.7 54.35 141.65 53.65 153.3 52.75 165.1 52.0 164.75 52.8 154.2 53.45 143.6 53.55 139.7 Q53.7 135.9 53.15 131.05 L51.85 122.25 Q51.0 113.25 52.35 106.05 L52.9 103.35 52.85 106.1 Q52.35 112.5 52.35 117.65" fill="#af6924" fill-rule="evenodd" stroke="none"/>
      <path d="M55.3 76.6 L55.25 78.25 54.45 67.6 Q55.3 72.6 55.3 76.6" fill="#af6924" fill-rule="evenodd" stroke="none"/>
      <path d="M50.95 10.15 L52.25 14.9 Q52.9 19.15 51.95 25.45 L50.4 35.4 50.0 36.8 Q48.9 41.05 49.4 44.2 49.95 48.35 51.65 55.2 L52.3 65.55 48.4 45.2 Q47.45 40.2 49.8 26.95 51.9 15.2 49.05 8.35 L50.0 7.9 50.2 8.55 50.95 10.15" fill="#af6924" fill-rule="evenodd" stroke="none"/>
      <path d="M52.3 65.55 Q54.65 79.6 54.35 90.45 L53.2 101.6 52.9 103.35 Q53.35 85.45 52.3 65.55" fill="#af6924" fill-rule="evenodd" stroke="none"/>
      <path d="M50.95 10.15 L50.4 7.75 50.65 7.6 Q51.55 10.35 53.9 15.7 55.65 20.45 54.8 24.1 L52.9 29.3 50.75 34.25 53.3 26.05 Q53.75 23.3 53.4 20.3 L52.25 14.9 Q51.85 12.25 50.95 10.15" fill="#af6924" fill-rule="evenodd" stroke="none"/>
      <path d="M54.35 90.45 L55.25 78.25 Q55.85 94.25 53.3 109.95 52.45 115.05 53.8 123.2 55.5 133.7 55.6 136.3 L55.6 140.6 55.0 153.1 54.05 165.6 53.3 165.3 54.2 153.1 Q54.65 146.1 54.7 140.95 L54.6 135.9 54.4 135.25 Q54.25 132.9 53.55 129.1 L52.55 123.15 52.35 117.65 53.2 101.6 Q54.2 95.8 54.35 90.45" fill="#af6924" fill-rule="evenodd" stroke="none"/>
      <path d="M49.9 40.8 Q49.6 39.05 50.0 36.8 L50.35 35.55 Q50.15 38.15 50.35 39.8 L50.85 45.35 49.9 40.8" fill="#af6924" fill-rule="evenodd" stroke="none"/>
      <path d="M54.45 67.6 L51.65 55.2 50.85 45.35 Q53.4 57.55 54.45 67.6" fill="#af6924" fill-rule="evenodd" stroke="none"/>
      <path d="M54.6 135.9 L54.7 140.95 Q54.65 146.1 54.2 153.1 L53.3 165.3 52.75 165.1 53.65 153.3 54.35 141.65 54.5 136.7 54.4 135.25 54.6 135.9" fill="#af6924" fill-rule="evenodd" stroke="none"/>
      <path d="M50.4 7.75 L50.95 10.15 50.2 8.55 50.0 7.9 50.4 7.75" fill="#af6924" fill-rule="evenodd" stroke="none"/>
      <path d="M53.3 26.05 L50.75 34.25 50.4 35.4 51.95 25.45 Q52.9 19.15 52.25 14.9 L53.4 20.3 Q53.75 23.3 53.3 26.05" fill="#af6924" fill-rule="evenodd" stroke="none"/>
      <path d="M54.35 90.45 Q54.65 79.6 52.3 65.55 L51.65 55.2 54.45 67.6 55.25 78.25 54.35 90.45" fill="#af6924" fill-rule="evenodd" stroke="none"/>
      <path d="M62.1 15.35 Q63.25 19.7 62.65 23.1 61.35 33.0 61.95 47.1 L63.0 70.85 62.8 83.2 62.15 89.85 Q60.6 100.6 61.05 114.85 L62.15 139.55 62.1 144.8 61.35 168.2 60.85 168.05 61.05 155.1 61.55 142.15 61.6 137.1 Q61.65 133.3 60.65 125.95 59.7 118.5 59.7 114.9 60.8 90.5 61.1 78.25 61.65 56.85 59.2 41.25 58.6 38.5 59.45 34.65 L61.15 28.0 Q61.95 23.75 60.05 16.75 57.9 8.9 58.05 5.45 L58.0 4.7 59.1 4.35 Q59.35 6.45 59.75 8.1 L62.1 15.35" fill="#af6924" fill-rule="evenodd" stroke="none"/>
      <path d="M61.7 5.5 L61.65 3.55 63.3 3.05 63.25 3.45 Q62.9 5.9 63.25 7.25 L64.95 17.7 Q65.9 23.85 65.6 28.0 L64.65 30.5 Q64.1 32.05 64.1 32.95 64.95 48.55 64.25 75.15 63.45 106.45 63.6 117.35 63.6 120.5 64.1 126.65 L64.6 136.05 64.6 169.1 63.55 168.8 63.55 143.5 63.5 139.65 Q62.3 115.5 62.8 83.2 63.15 77.3 63.0 70.85 L64.1 30.45 Q64.1 18.8 62.15 8.85 L61.7 5.5" fill="#af6924" fill-rule="evenodd" stroke="none"/>
      <path d="M66.5 8.05 Q66.35 4.9 66.75 2.2 L67.9 1.95 67.6 4.2 Q67.45 6.3 67.6 8.5 L67.9 12.85 Q68.7 33.1 67.6 75.15 66.55 116.2 67.5 137.7 L68.25 152.95 68.65 161.6 68.8 170.05 67.55 169.8 67.1 159.95 Q66.8 154.0 67.05 150.2 L66.85 140.1 Q66.1 117.15 66.75 81.05 L67.55 22.15 Q67.55 15.25 66.8 12.05 L66.5 8.05" fill="#af6924" fill-rule="evenodd" stroke="none"/>
      <path d="M71.05 142.8 L70.95 137.3 70.75 100.25 Q70.75 78.55 71.75 63.1 71.0 110.15 71.0 138.4 L71.05 142.1 71.05 142.8 M71.1 144.25 L71.2 145.8 71.45 150.2 72.1 160.5 72.6 170.75 72.45 170.7 72.45 170.4 Q71.45 161.2 71.2 149.5 L71.1 144.25" fill="#af6924" fill-rule="evenodd" stroke="none"/>
      <path d="M70.9 46.2 Q70.8 22.9 71.0 14.3 L71.0 13.55 71.05 14.5 Q71.55 36.95 70.95 71.55 L70.3 100.1 Q70.25 87.4 70.5 78.1 71.05 66.4 70.9 46.2" fill="#af6924" fill-rule="evenodd" stroke="none"/>
      <path d="M71.0 8.1 L71.0 1.35 71.2 1.3 71.2 6.05 71.0 8.1" fill="#af6924" fill-rule="evenodd" stroke="none"/>
      <path d="M72.0 14.55 L72.0 1.15 72.2 1.1 72.25 10.85 72.4 16.5 72.2 33.05 Q71.8 20.85 72.0 14.55" fill="#af6924" fill-rule="evenodd" stroke="none"/>
      <path d="M72.2 33.05 L72.55 46.45 Q72.55 53.95 71.95 59.9 L71.75 63.1 72.2 33.05" fill="#af6924" fill-rule="evenodd" stroke="none"/>
      <path d="M71.2 6.05 L71.2 1.3 72.0 1.15 72.0 14.55 Q71.8 20.85 72.2 33.05 L71.75 63.1 Q70.75 78.55 70.75 100.25 L70.95 137.3 71.2 149.5 Q71.45 161.2 72.45 170.4 L72.45 170.7 71.7 170.6 70.15 144.65 70.0 140.3 70.0 128.75 70.95 71.55 Q71.55 36.95 71.05 14.5 L71.0 8.1 71.2 6.05" fill="#af6924" fill-rule="evenodd" stroke="none"/>
      <path d="M77.85 0.4 L77.9 18.25 Q78.5 43.2 77.9 77.85 L76.6 137.45 76.65 152.1 76.95 158.25 77.95 171.4 76.8 171.3 76.8 171.05 75.75 152.6 75.35 141.9 75.3 135.85 76.7 76.6 Q77.2 44.15 76.85 17.35 L76.8 0.5 77.85 0.4" fill="#af6924" fill-rule="evenodd" stroke="none"/>
      <path d="M81.65 0.1 L81.65 21.75 Q82.3 43.8 81.65 80.0 80.85 125.2 80.9 138.2 L81.35 152.2 Q81.6 162.65 81.45 171.65 L80.35 171.6 80.45 166.25 Q80.65 161.25 80.0 152.4 L79.65 147.7 79.3 143.15 79.2 138.65 Q80.25 112.35 80.6 79.8 L80.8 20.9 80.75 0.2 81.65 0.1" fill="#af6924" fill-rule="evenodd" stroke="none"/>
      <path d="M84.15 0.05 L84.15 24.05 Q84.6 41.25 83.8 81.25 83.1 117.8 84.05 138.25 L84.0 153.3 83.55 171.7 82.75 171.7 82.75 150.6 82.9 140.65 82.9 135.65 Q81.95 125.3 82.75 109.25 83.75 87.55 83.75 83.0 83.5 73.45 83.5 54.55 L83.25 26.25 83.2 0.1 84.15 0.05" fill="#af6924" fill-rule="evenodd" stroke="none"/>
      <path d="M92.75 0.3 L92.75 45.95 92.5 70.2 92.0 87.15 92.4 104.1 92.6 109.7 92.45 126.7 Q92.4 136.9 92.95 144.05 L94.0 162.2 Q94.65 167.0 95.55 171.25 L93.6 171.4 92.1 162.05 91.75 158.8 91.75 144.75 91.15 128.15 Q90.75 118.0 91.0 111.45 L90.9 101.3 90.95 90.65 91.0 86.8 91.35 67.65 91.45 62.7 Q91.65 58.05 91.5 52.8 L91.5 0.2 92.75 0.3" fill="#af6924" fill-rule="evenodd" stroke="none"/>
      <path d="M95.5 43.25 L95.4 38.6 Q94.95 19.5 94.95 0.5 L95.3 0.55 95.5 5.95 Q96.35 21.4 96.7 36.9 L96.8 41.3 Q97.15 60.85 96.3 73.95 L95.55 87.75 Q94.95 92.45 95.75 98.3 L97.6 106.85 Q99.85 116.25 99.85 127.9 99.85 135.95 98.65 149.25 L97.95 158.7 98.05 162.1 Q98.2 166.65 98.85 170.8 L97.15 171.0 Q96.5 167.0 96.35 162.65 L96.3 159.45 97.55 147.95 Q98.75 136.4 98.65 127.7 98.45 116.8 96.25 107.95 L94.65 99.15 Q94.05 92.9 94.65 87.8 L95.6 74.95 Q96.5 68.15 96.25 59.2 L95.5 43.25" fill="#af6924" fill-rule="evenodd" stroke="none"/>
      <path d="M98.7 0.95 Q98.75 7.1 99.1 14.75 L99.5 36.85 Q100.25 59.25 99.25 78.45 L98.85 83.25 Q97.05 89.9 97.75 96.9 L98.35 101.2 100.15 106.5 Q104.2 115.9 103.75 129.15 103.5 136.4 101.0 152.05 L99.75 159.2 99.95 163.65 Q100.3 167.6 100.8 170.45 L99.6 170.7 Q98.8 167.55 98.5 164.15 L98.3 160.3 98.3 156.05 Q98.4 153.3 98.95 151.7 102.3 141.55 101.85 129.15 101.5 119.4 98.6 106.7 L97.5 101.9 96.9 97.6 Q96.2 90.8 97.05 84.45 L97.9 75.75 Q98.55 60.4 98.35 36.15 L98.1 0.9 98.7 0.95" fill="#af6924" fill-rule="evenodd" stroke="none"/>
      <path d="M100.9 37.7 L100.65 21.15 Q100.2 11.2 100.2 1.2 L101.85 1.5 101.85 21.2 101.9 32.4 Q101.8 35.6 102.35 56.65 102.7 71.2 101.1 80.4 L100.8 85.0 100.4 88.4 Q100.25 90.05 100.25 91.75 L100.55 97.2 Q100.8 100.45 101.4 102.6 L103.25 107.65 104.55 112.2 Q106.65 122.05 105.75 135.55 105.2 143.35 103.35 159.05 L103.25 163.45 Q103.2 166.05 103.7 167.85 L103.9 169.9 101.8 170.3 101.35 167.95 Q100.15 163.95 100.9 159.05 103.35 143.85 104.0 136.25 105.0 123.6 103.45 113.65 L102.25 108.85 100.55 104.1 99.05 100.05 99.05 95.65 Q99.1 93.0 99.85 82.5 L100.1 77.35 Q100.9 68.8 101.0 57.5 L100.9 37.7" fill="#af6924" fill-rule="evenodd" stroke="none"/>
      <path d="M105.2 2.2 L104.85 35.2 105.45 57.15 Q105.9 70.35 105.3 78.8 L105.0 83.65 Q105.15 85.9 103.6 92.0 102.25 97.15 103.35 100.15 L104.85 104.9 106.2 109.55 Q108.85 121.75 108.3 137.75 108.0 145.15 105.9 166.15 L105.85 169.45 103.95 169.85 103.9 168.15 Q105.85 149.2 106.4 139.65 107.4 123.1 105.1 110.95 L103.95 106.25 102.95 100.9 Q101.9 94.8 101.6 90.3 101.7 87.55 102.1 85.0 L102.55 79.9 Q104.3 70.05 104.2 56.15 L103.55 31.95 103.45 26.05 Q102.75 15.05 103.1 1.75 L105.2 2.2" fill="#af6924" fill-rule="evenodd" stroke="none"/>
      <path d="M110.95 3.75 L110.55 30.15 Q111.25 50.55 109.5 76.95 L109.15 82.2 Q108.75 89.35 109.35 98.5 L109.55 101.75 Q111.3 116.05 110.95 134.3 110.75 145.05 109.35 167.05 L109.35 168.5 108.7 168.7 108.7 167.5 Q108.6 163.1 109.65 135.55 110.4 116.05 108.5 103.7 L108.2 100.15 Q107.8 94.4 107.8 89.35 107.5 87.35 107.9 84.2 L108.4 78.95 108.75 74.1 Q109.3 64.85 109.35 52.1 L109.35 30.2 109.8 3.4 110.95 3.75" fill="#af6924" fill-rule="evenodd" stroke="none"/>
      <path d="M113.75 39.9 L114.15 23.4 Q114.45 13.05 114.2 7.05 L114.25 4.85 115.2 5.15 114.85 44.45 114.75 47.85 Q114.6 56.55 114.75 65.15 L114.45 75.55 Q114.05 83.65 113.8 93.95 L113.75 97.6 Q113.05 107.4 113.45 125.1 113.35 154.7 112.85 167.45 L111.9 167.75 111.9 167.4 112.15 164.0 Q113.35 150.95 112.9 131.6 112.2 110.1 112.15 99.4 L112.1 96.1 Q111.95 87.2 112.55 79.75 L112.85 75.25 113.4 61.65 113.55 56.2 113.7 45.35 113.75 39.9" fill="#af6924" fill-rule="evenodd" stroke="none"/>
      <path d="M116.2 46.4 Q115.9 38.3 116.15 26.0 L116.55 5.65 117.55 6.05 117.15 27.65 Q116.9 40.6 117.2 49.3 L117.25 54.0 Q117.25 67.0 116.9 73.5 L116.35 81.4 Q115.95 96.65 115.7 122.0 L115.15 162.5 114.8 166.8 113.05 167.4 113.3 164.8 Q114.0 156.15 113.9 144.95 L113.45 125.1 Q113.65 95.1 114.55 80.15 L115.2 70.95 Q115.9 62.65 116.1 50.45 L116.2 46.4" fill="#af6924" fill-rule="evenodd" stroke="none"/>
      <path d="M113.45 125.1 L113.9 144.95 Q114.0 156.15 113.3 164.8 L113.05 167.4 112.85 167.45 Q113.35 154.7 113.45 125.1" fill="#af6924" fill-rule="evenodd" stroke="none"/>
      <path d="M122.1 29.55 L122.55 8.2 124.1 9.0 123.75 31.25 123.5 53.45 123.35 76.25 123.45 82.4 Q122.75 94.95 120.75 119.75 119.35 141.55 120.55 157.1 L121.25 164.15 119.25 165.05 Q119.8 161.7 119.55 159.55 117.35 142.9 118.5 121.35 L121.5 83.4 121.7 78.9 121.7 74.4 122.0 50.9 Q121.8 42.45 122.1 29.55" fill="#af6924" fill-rule="evenodd" stroke="none"/>
      <path d="M124.75 30.5 L125.05 9.45 125.7 9.8 125.5 32.85 Q125.45 45.95 125.9 55.85 L126.0 60.65 126.05 72.55 126.0 76.55 125.9 82.5 125.4 88.4 Q118.3 126.75 123.0 160.05 L123.35 163.2 121.55 164.0 121.55 162.0 Q120.9 130.45 120.95 125.2 121.25 104.0 124.35 88.4 L124.6 82.45 124.4 76.45 124.55 51.55 Q124.5 43.9 124.75 30.5" fill="#af6924" fill-rule="evenodd" stroke="none"/>
      <path d="M123.9 150.65 L124.95 157.1 125.8 161.95 124.95 162.35 123.9 150.65" fill="#af6924" fill-rule="evenodd" stroke="none"/>
      <path d="M126.75 33.4 L126.35 10.15 127.35 10.7 127.7 35.05 128.0 59.45 127.7 72.3 Q127.9 77.8 127.5 84.1 L127.2 88.0 124.45 111.4 Q122.85 125.35 122.85 135.2 121.75 107.9 126.85 88.25 L127.0 84.65 127.0 73.6 127.15 61.45 127.15 56.6 126.75 33.4" fill="#af6924" fill-rule="evenodd" stroke="none"/>
      <path d="M134.15 21.45 Q134.4 25.4 134.8 28.5 L136.45 40.9 Q134.65 32.7 134.15 21.45" fill="#af6924" fill-rule="evenodd" stroke="none"/>
      <path d="M135.3 60.75 L136.85 54.3 134.5 74.45 Q134.9 80.05 134.6 86.1 L134.3 89.9 134.15 90.75 134.1 87.6 133.8 80.85 Q133.65 76.85 133.85 73.95 L135.3 60.75" fill="#af6924" fill-rule="evenodd" stroke="none"/>
      <path d="M135.15 92.7 L135.85 82.85 135.9 85.7 135.75 89.95 135.25 94.25 134.15 100.65 Q134.5 97.1 135.15 92.7" fill="#af6924" fill-rule="evenodd" stroke="none"/>
      <path d="M134.15 100.65 L133.55 109.1 Q133.2 119.65 133.85 132.6 134.3 140.9 135.5 155.95 L134.85 156.4 Q134.05 148.05 132.3 139.4 131.0 132.3 131.5 123.5 131.7 119.5 133.05 108.05 L134.15 100.65" fill="#af6924" fill-rule="evenodd" stroke="none"/>
      <path d="M134.15 90.75 L134.1 92.1 132.45 101.8 Q127.8 129.95 132.45 154.4 126.6 127.9 132.45 100.0 L134.15 90.75" fill="#af6924" fill-rule="evenodd" stroke="none"/>
      <path d="M136.45 40.9 L137.25 44.2 Q138.25 48.3 136.85 54.3 137.2 48.2 136.45 40.9" fill="#af6924" fill-rule="evenodd" stroke="none"/>
      <path d="M137.1 33.65 L135.5 15.8 135.75 16.0 137.75 36.65 Q138.75 48.65 138.1 57.35 L137.65 62.25 135.85 82.85 135.8 77.25 137.2 59.0 137.7 55.3 138.2 51.6 Q138.0 44.35 137.1 33.65" fill="#af6924" fill-rule="evenodd" stroke="none"/>
      <path d="M134.8 28.5 Q134.4 25.4 134.15 21.45 L133.95 14.75 135.5 15.8 137.1 33.65 Q138.0 44.35 138.2 51.6 L137.7 55.3 137.2 59.0 135.8 77.25 135.15 92.7 Q134.5 97.1 134.15 100.65 L133.05 108.05 Q131.7 119.5 131.5 123.5 131.0 132.3 132.3 139.4 134.05 148.05 134.85 156.4 L133.2 157.55 132.45 154.4 Q127.8 129.95 132.45 101.8 L134.1 92.1 134.15 90.75 134.3 89.9 134.6 86.1 Q134.9 80.05 134.5 74.45 L136.85 54.3 Q138.25 48.3 137.25 44.2 L136.45 40.9 134.8 28.5" fill="#af6924" fill-rule="evenodd" stroke="none"/>
      <path d="M141.8 47.9 Q142.0 43.4 141.65 39.8 140.35 31.15 140.0 19.2 L140.85 19.9 141.15 24.6 Q141.4 30.0 142.4 40.8 143.1 50.45 142.35 57.05 L140.8 78.9 140.9 90.05 140.8 98.65 140.6 103.55 139.2 120.3 Q138.3 130.25 139.2 136.95 L140.45 152.2 139.15 153.25 Q138.4 138.5 138.25 129.9 138.0 117.0 138.65 106.45 L139.5 77.1 140.75 60.55 141.15 56.0 141.8 47.9" fill="#af6924" fill-rule="evenodd" stroke="none"/>
      <path d="M146.1 24.7 L147.55 26.15 147.7 106.2 Q147.3 115.8 147.2 126.9 146.9 135.85 147.0 146.2 L145.75 147.45 Q145.2 123.05 146.5 106.5 L146.5 98.4 146.2 86.6 146.55 56.1 146.1 24.7" fill="#af6924" fill-rule="evenodd" stroke="none"/>
      <path d="M147.55 26.15 L148.9 27.55 148.5 55.5 148.65 60.7 149.15 84.1 149.25 93.0 149.6 97.65 149.6 102.4 149.45 106.9 Q148.35 115.35 148.3 125.65 148.25 132.9 148.75 144.4 L147.4 145.8 147.2 126.9 Q147.5 116.25 148.15 106.9 L148.05 102.2 147.7 97.5 147.55 26.15" fill="#af6924" fill-rule="evenodd" stroke="none"/>
      <path d="M147.6 94.05 L147.7 97.5 148.05 102.2 148.15 106.9 Q147.5 116.25 147.2 126.9 147.3 115.8 147.7 106.2 L147.6 94.05" fill="#af6924" fill-rule="evenodd" stroke="none"/>
      <path d="M151.2 30.15 L151.85 30.9 Q150.8 46.6 151.05 55.05 L151.45 59.9 152.25 71.65 152.9 83.5 152.9 87.4 153.0 106.7 152.8 111.1 Q152.2 117.45 152.25 125.4 L152.75 139.75 151.4 141.4 Q151.2 134.4 151.35 124.25 L151.7 107.25 151.85 82.5 151.35 69.3 150.5 51.05 Q150.5 42.3 151.2 30.15" fill="#af6924" fill-rule="evenodd" stroke="none"/>
      <path d="M153.3 47.2 L153.4 43.75 154.75 34.55 155.4 35.5 Q154.55 44.05 154.6 50.55 L154.9 55.25 Q155.45 61.85 157.35 74.15 157.65 76.5 157.55 79.85 L157.4 85.65 157.55 91.1 157.85 96.05 157.65 114.05 157.2 133.75 155.8 135.8 Q155.2 122.1 156.2 111.95 L156.2 87.3 Q156.65 80.75 155.75 71.55 L154.1 55.9 153.75 50.7 Q153.25 49.1 153.3 47.2" fill="#af6924" fill-rule="evenodd" stroke="none"/>
      <path d="M159.15 48.65 L159.3 41.3 160.85 43.95 Q160.3 53.9 162.7 65.65 L163.35 72.85 163.1 75.65 163.55 106.1 Q163.4 111.6 163.5 122.45 L163.5 122.7 162.75 124.25 162.05 79.25 Q161.8 74.6 160.45 63.8 159.3 54.1 159.15 48.65" fill="#af6924" fill-rule="evenodd" stroke="none"/>
      <path d="M161.1 44.35 L162.4 46.9 162.4 48.9 Q162.4 51.3 162.55 53.6 L162.85 58.25 Q163.05 61.1 163.55 63.1 L164.4 67.9 164.4 73.4 165.1 96.1 165.2 118.95 163.9 121.8 Q163.65 113.1 164.05 107.25 L164.05 102.55 163.35 72.85 Q163.55 69.8 163.25 68.25 L162.7 65.65 Q161.55 58.6 161.15 55.1 160.5 49.0 161.1 44.35" fill="#af6924" fill-rule="evenodd" stroke="none"/>
      <path d="M163.25 68.25 Q163.55 69.8 163.35 72.85 L162.7 65.65 163.25 68.25" fill="#af6924" fill-rule="evenodd" stroke="none"/>
      <path d="M168.0 60.55 L168.2 69.8 168.8 94.45 169.0 107.7 167.55 112.55 167.55 93.0 166.95 69.15 166.9 63.45 Q166.3 58.7 166.05 55.05 L168.0 60.55" fill="#af6924" fill-rule="evenodd" stroke="none"/>
      <path d="M25.15 25.8 Q37.05 13.9 52.45 7.35 68.4 0.6 85.85 0.6 103.3 0.6 119.25 7.35 134.65 13.9 146.55 25.8 158.45 37.7 165.0 53.1 171.75 69.05 171.75 86.5 171.75 103.95 165.0 119.9 158.45 135.3 146.55 147.2 134.65 159.1 119.25 165.65 103.3 172.4 85.85 172.4 68.4 172.4 52.45 165.65 37.05 159.1 25.15 147.2 13.3 135.3 6.75 119.9 0.0 103.95 0.0 86.5 0.0 69.05 6.75 53.1 13.3 37.7 25.15 25.8" fill="url(#gradient0)" fill-rule="evenodd" stroke="none"/>
      <path d="M57.7 19.1 Q71.2 13.4 85.95 13.4 100.7 13.4 114.15 19.1 127.2 24.6 137.2 34.65 147.25 44.65 152.75 57.7 158.45 71.15 158.45 85.9 158.45 100.65 152.75 114.1 147.25 127.15 137.2 137.15 116.0 158.4 85.95 158.4 55.9 158.4 34.65 137.15 24.6 127.15 19.1 114.1 13.4 100.65 13.4 85.9 13.4 71.15 19.1 57.7 24.6 44.65 34.65 34.65 44.7 24.6 57.7 19.1" fill="url(#gradient1)" fill-rule="evenodd" stroke="none"/>
      <path d="M19.55 85.9 Q19.55 58.65 38.85 39.3 58.15 20.0 85.4 20.0 112.65 20.0 132.0 39.3 151.3 58.65 151.3 85.9 151.3 113.15 132.0 132.45 112.65 151.8 85.4 151.8 58.2 151.8 38.85 132.45 19.55 113.15 19.55 85.9" fill="url(#gradient2)" fill-rule="evenodd" stroke="none"/>
      <path d="M20.35 85.9 Q20.35 112.85 39.4 131.9 58.5 150.95 85.4 150.95 112.35 150.95 131.4 131.9 150.45 112.85 150.45 85.9 150.45 58.95 131.4 39.9 112.35 20.85 85.4 20.85 58.45 20.85 39.4 39.9 20.35 58.95 20.35 85.9 M38.25 38.75 Q47.7 29.3 59.9 24.25 72.05 19.2 85.4 19.2 98.8 19.2 110.95 24.25 123.15 29.3 132.6 38.75 142.05 48.2 147.1 60.4 152.1 72.55 152.1 85.9 152.1 99.25 147.1 111.45 142.05 123.6 132.6 133.05 123.15 142.5 110.95 147.55 98.8 152.6 85.4 152.6 72.05 152.6 59.9 147.55 47.7 142.5 38.25 133.05 28.8 123.6 23.75 111.45 18.7 99.25 18.7 85.9 18.7 72.55 23.75 60.4 28.8 48.2 38.25 38.75" fill="#45260c" fill-rule="evenodd" stroke="none"/>
      <path d="M26.25 83.75 Q26.25 59.3 43.6 42.0 60.9 24.7 85.4 24.7 109.9 24.7 127.25 42.0 144.6 59.3 144.6 83.75 144.6 108.25 127.25 125.55 109.95 142.85 85.4 142.85 60.9 142.85 43.6 125.55 26.25 108.25 26.25 83.75" fill="url(#gradient3)" fill-rule="evenodd" stroke="none"/>
      <path d="M86.2 36.25 Q86.2 36.8 85.4 38.4 L77.25 55.05 76.05 57.0 Q75.5 57.55 74.45 57.55 73.2 57.55 72.4 56.75 71.7 56.0 71.7 55.2 71.7 54.7 72.05 54.05 L80.3 38.4 71.85 38.4 Q70.6 38.4 69.95 37.7 69.4 37.1 69.4 36.15 69.4 35.2 69.95 34.55 70.6 33.85 71.85 33.85 L83.8 33.85 Q84.95 33.85 85.65 34.75 86.2 35.45 86.2 36.25" fill="#ecf8bd" fill-rule="evenodd" stroke="none"/>
      <path d="M95.15 33.45 Q98.85 33.45 101.15 35.9 103.4 38.25 103.4 41.65 103.4 45.05 100.45 49.9 98.0 54.0 95.05 56.75 L94.0 57.55 93.0 57.75 Q92.25 57.75 91.45 57.0 90.65 56.2 90.65 55.35 90.65 54.9 91.35 54.0 L95.9 48.7 95.85 48.65 93.75 49.05 Q90.85 49.05 88.8 46.8 86.85 44.65 86.85 41.65 86.85 38.35 89.15 35.95 91.55 33.45 95.15 33.45 M97.4 44.1 Q98.25 43.15 98.25 41.65 98.25 40.2 97.45 39.25 96.55 38.2 95.15 38.2 93.75 38.2 92.85 39.2 92.0 40.2 92.0 41.65 92.0 43.05 92.8 44.05 93.65 45.1 95.15 45.1 96.5 45.1 97.4 44.1" fill="#ecf8bd" fill-rule="evenodd" stroke="none"/>
      <path d="M86.2 35.25 Q86.2 35.8 85.4 37.4 L77.25 54.05 76.05 56.0 Q75.5 56.55 74.45 56.55 73.2 56.55 72.4 55.75 71.7 55.0 71.7 54.2 71.7 53.7 72.05 53.05 L80.3 37.4 71.85 37.4 Q70.6 37.4 69.95 36.7 69.4 36.1 69.4 35.15 69.4 34.2 69.95 33.55 70.6 32.85 71.85 32.85 L83.8 32.85 Q84.95 32.85 85.65 33.75 86.2 34.45 86.2 35.25" fill="url(#gradient4)" fill-rule="evenodd" stroke="none"/>
      <path d="M95.15 32.45 Q98.85 32.45 101.15 34.9 103.4 37.25 103.4 40.65 103.4 44.05 100.45 48.9 98.0 53.0 95.05 55.75 L94.0 56.55 93.0 56.75 Q92.25 56.75 91.45 56.0 90.65 55.2 90.65 54.35 90.65 53.9 91.35 53.0 L95.9 47.7 95.85 47.65 93.75 48.05 Q90.85 48.05 88.8 45.8 86.85 43.65 86.85 40.65 86.85 37.35 89.15 34.95 91.55 32.45 95.15 32.45 M95.15 37.2 Q93.75 37.2 92.85 38.2 92.0 39.2 92.0 40.65 92.0 42.05 92.8 43.05 93.65 44.1 95.15 44.1 96.5 44.1 97.4 43.1 98.25 42.15 98.25 40.65 98.25 39.2 97.45 38.25 96.55 37.2 95.15 37.2" fill="url(#gradient5)" fill-rule="evenodd" stroke="none"/>
    </g>
    <linearGradient gradientTransform="matrix(0.0, -0.1048, -0.1048, 0.0, 85.85, 86.5)" gradientUnits="userSpaceOnUse" id="gradient0" spreadMethod="pad" x1="-819.2" x2="819.2">
      <stop offset="0.0196078431372549" stop-color="#7f3a06"/>
      <stop offset="0.12549019607843137" stop-color="#8e5524" stop-opacity="0.8509804"/>
      <stop offset="0.3568627450980392" stop-color="#ad8965" stop-opacity="0.54901963"/>
      <stop offset="0.5686274509803921" stop-color="#c6b39a" stop-opacity="0.3137255"/>
      <stop offset="0.7529411764705882" stop-color="#d8d0c0" stop-opacity="0.14117648"/>
      <stop offset="0.8980392156862745" stop-color="#e3e3d8" stop-opacity="0.03529412"/>
      <stop offset="0.9882352941176471" stop-color="#e7e9e0" stop-opacity="0.0"/>
    </linearGradient>
    <linearGradient gradientTransform="matrix(0.0, -0.0885, -0.0885, 0.0, 85.95, 85.9)" gradientUnits="userSpaceOnUse" id="gradient1" spreadMethod="pad" x1="-819.2" x2="819.2">
      <stop offset="0.0" stop-color="#eed9c2"/>
      <stop offset="0.08627450980392157" stop-color="#e5ccb5" stop-opacity="0.8745098"/>
      <stop offset="0.3176470588235294" stop-color="#d0ae97" stop-opacity="0.5921569"/>
      <stop offset="0.5176470588235295" stop-color="#c39c84" stop-opacity="0.41960785"/>
      <stop offset="0.6549019607843137" stop-color="#bf967e" stop-opacity="0.35686275"/>
      <stop offset="1.0" stop-color="#582d22"/>
    </linearGradient>
    <linearGradient gradientTransform="matrix(0.0, -0.0804, -0.0804, 0.0, 85.4, 85.9)" gradientUnits="userSpaceOnUse" id="gradient2" spreadMethod="pad" x1="-819.2" x2="819.2">
      <stop offset="0.0" stop-color="#b1812f"/>
      <stop offset="0.28627450980392155" stop-color="#c89a33"/>
      <stop offset="0.6745098039215687" stop-color="#edc13a"/>
      <stop offset="0.9647058823529412" stop-color="#d7e989"/>
    </linearGradient>
    <radialGradient cx="0" cy="0" gradientTransform="matrix(0.0722, 0.0, 0.0, -0.0722, 85.4, 83.75)" gradientUnits="userSpaceOnUse" id="gradient3" r="819.2" spreadMethod="pad">
      <stop offset="0.03529411764705882" stop-color="#deea89"/>
      <stop offset="0.30196078431372547" stop-color="#dee986" stop-opacity="0.99215686"/>
      <stop offset="0.4627450980392157" stop-color="#e0e57e" stop-opacity="0.98039216"/>
      <stop offset="0.592156862745098" stop-color="#e2de71" stop-opacity="0.9529412"/>
      <stop offset="0.7098039215686275" stop-color="#e6d45d" stop-opacity="0.91764706"/>
      <stop offset="0.8117647058823529" stop-color="#eac845" stop-opacity="0.87058824"/>
      <stop offset="0.8705882352941177" stop-color="#edbf35" stop-opacity="0.8392157"/>
    </radialGradient>
    <linearGradient gradientTransform="matrix(0.0, -0.0145, -0.0145, 0.0, 77.8, 44.7)" gradientUnits="userSpaceOnUse" id="gradient4" spreadMethod="pad" x1="-819.2" x2="819.2">
      <stop offset="0.15294117647058825" stop-color="#4a2805"/>
      <stop offset="0.24705882352941178" stop-color="#502905"/>
      <stop offset="0.3764705882352941" stop-color="#632b07"/>
      <stop offset="0.5333333333333333" stop-color="#80300b"/>
      <stop offset="0.7058823529411765" stop-color="#aa3510"/>
      <stop offset="0.8901960784313725" stop-color="#df3c16"/>
      <stop offset="0.8941176470588236" stop-color="#e03c16"/>
    </linearGradient>
    <linearGradient gradientTransform="matrix(0.0, -0.0148, -0.0148, 0.0, 95.15, 44.6)" gradientUnits="userSpaceOnUse" id="gradient5" spreadMethod="pad" x1="-819.2" x2="819.2">
      <stop offset="0.15294117647058825" stop-color="#4a2805"/>
      <stop offset="0.24705882352941178" stop-color="#502905"/>
      <stop offset="0.3764705882352941" stop-color="#632b07"/>
      <stop offset="0.5333333333333333" stop-color="#80300b"/>
      <stop offset="0.7058823529411765" stop-color="#aa3510"/>
      <stop offset="0.8901960784313725" stop-color="#df3c16"/>
      <stop offset="0.8941176470588236" stop-color="#e03c16"/>
    </linearGradient>
    <g id="sprite0" transform="matrix(1.0, 0.0, 0.0, 1.0, 0.0, 0.0)">
      <use height="55.5" transform="matrix(1.0, 0.0, 0.0, 1.0, 0.0, 0.0)" width="109.55" xlink:href="#shape1"/>
    </g>
    <g id="shape1" transform="matrix(1.0, 0.0, 0.0, 1.0, 0.0, 0.0)">
      <path d="M95.6 17.9 Q102.3 25.25 106.05 34.2 109.55 42.6 109.55 50.05 109.55 52.45 109.05 54.45 106.25 37.95 92.9 25.1 77.15 10.0 54.75 10.0 32.0 10.0 16.45 25.1 3.0 38.1 0.45 55.5 0.0 53.7 0.0 51.25 0.0 43.05 3.5 34.35 7.2 25.1 13.9 17.7 29.85 0.0 54.75 0.0 79.35 0.0 95.6 17.9" fill="url(#gradient6)" fill-rule="evenodd" stroke="none"/>
    </g>
    <linearGradient gradientTransform="matrix(0.0, -0.0339, -0.0339, 0.0, 54.75, 27.75)" gradientUnits="userSpaceOnUse" id="gradient6" spreadMethod="pad" x1="-819.2" x2="819.2">
      <stop offset="0.12941176470588237" stop-color="#e2b8b2"/>
      <stop offset="0.9254901960784314" stop-color="#ffffff"/>
    </linearGradient>
    <g id="sprite1" transform="matrix(1.0, 0.0, 0.0, 1.0, 0.0, 0.0)">
      <use height="61.0" transform="matrix(1.0, 0.0, 0.0, 1.0, 0.0, 0.0)" width="109.55" xlink:href="#shape2"/>
    </g>
    <g id="shape2" transform="matrix(1.0, 0.0, 0.0, 1.0, 0.0, 0.0)">
      <path d="M106.05 34.2 Q109.55 42.6 109.55 50.05 109.55 57.45 105.25 59.35 101.75 60.95 93.5 59.3 L76.05 55.3 Q64.1 52.75 54.75 52.75 45.3 52.75 33.45 55.5 L16.05 59.9 Q7.75 61.8 4.3 60.4 0.0 58.65 0.0 51.25 0.0 43.05 3.5 34.35 7.2 25.1 13.9 17.7 29.85 0.0 54.75 0.0 79.35 0.0 95.6 17.9 102.3 25.25 106.05 34.2" fill="#ffffff" fill-rule="evenodd" stroke="none"/>
    </g>
    <g id="sprite2" transform="matrix(1.0, 0.0, 0.0, 1.0, 0.0, 0.0)">
      <use height="56.9" transform="matrix(1.0, 0.0, 0.0, 1.0, 0.0, 0.0)" width="118.15" xlink:href="#shape3"/>
    </g>
    <g id="shape3" transform="matrix(1.0, 0.0, 0.0, 1.0, 0.0, 0.0)">
      <path d="M95.1 30.2 Q111.1 18.75 117.65 0.25 L118.15 0.0 Q117.3 23.75 100.15 40.3 82.9 56.9 59.0 56.9 35.55 56.9 18.5 40.85 1.5 24.9 0.0 1.7 6.85 19.6 22.65 30.65 38.8 41.95 58.55 41.95 78.75 41.95 95.1 30.2" fill="url(#gradient7)" fill-rule="evenodd" stroke="none"/>
    </g>
    <radialGradient cx="0" cy="0" gradientTransform="matrix(0.0566, 0.0, 0.0, -0.0566, 59.05, 28.45)" gradientUnits="userSpaceOnUse" id="gradient7" r="819.2" spreadMethod="pad">
      <stop offset="0.0" stop-color="#ccefe7" stop-opacity="0.0"/>
      <stop offset="0.0784313725490196" stop-color="#c9e7dc" stop-opacity="0.039215688"/>
      <stop offset="0.21176470588235294" stop-color="#c1d1c0" stop-opacity="0.14509805"/>
      <stop offset="0.38823529411764707" stop-color="#b5ae93" stop-opacity="0.32156864"/>
      <stop offset="0.596078431372549" stop-color="#a67d55" stop-opacity="0.5647059"/>
      <stop offset="0.6509803921568628" stop-color="#a17045" stop-opacity="0.627451"/>
    </radialGradient>
    <g id="shape4" transform="matrix(1.0, 0.0, 0.0, 1.0, -29.75, -71.15)">
      <path d="M47.8 72.65 L49.85 73.2 52.65 74.2 Q55.4 75.25 59.0 77.1 64.55 79.95 68.25 83.1 72.35 80.2 80.5 78.95 L96.15 78.3 Q103.2 78.6 108.75 79.8 L110.5 80.25 111.25 80.3 113.65 80.1 117.05 79.8 117.25 79.8 118.8 79.9 Q120.55 80.3 121.55 81.65 122.55 83.05 122.4 84.8 126.3 87.55 126.6 91.0 L126.7 92.0 125.6 115.9 Q125.5 117.1 124.85 118.05 122.8 120.9 119.2 123.15 113.65 126.7 105.6 127.9 L101.45 128.45 100.7 128.4 Q97.6 128.6 93.85 128.45 L83.55 127.2 Q69.25 124.15 64.0 115.2 63.45 114.05 63.5 113.0 L64.2 98.05 64.1 98.05 62.35 98.35 62.2 98.3 61.6 98.25 59.15 97.3 58.1 96.7 57.3 96.15 57.2 96.1 57.1 96.0 55.65 94.9 Q54.1 93.7 51.9 91.35 L49.2 88.8 Q47.95 87.85 46.5 87.55 L44.4 87.35 44.2 87.35 43.6 87.4 42.45 87.55 42.4 87.55 Q41.15 88.5 39.6 88.4 L39.35 88.35 37.5 87.9 Q35.6 87.0 35.25 84.75 L34.7 83.95 34.3 83.85 33.55 83.75 Q30.9 83.2 30.1 80.75 29.85 79.95 29.75 78.95 29.6 77.55 30.35 76.25 31.35 74.5 33.85 73.3 36.4 72.1 39.05 72.1 L40.3 72.1 44.15 72.55 44.3 72.55 44.85 72.45 46.2 72.4 47.8 72.65" fill="#fbfcc9" fill-rule="evenodd" stroke="none"/>
      <path d="M50.05 72.35 L52.85 73.35 Q55.4 74.3 59.15 76.25 64.4 78.95 68.4 82.25 72.5 79.35 80.65 78.15 L96.35 77.45 Q103.1 77.75 108.95 79.0 L111.4 79.5 113.8 79.3 117.25 78.95 117.4 78.95 118.95 79.05 Q120.7 79.45 121.75 80.8 122.75 82.2 122.55 83.95 126.4 86.7 126.8 90.15 L126.9 91.15 125.75 115.05 Q125.65 116.3 125.0 117.2 123.0 120.0 119.4 122.3 113.85 125.85 105.75 127.1 L101.65 127.6 100.9 127.6 94.05 127.6 83.75 126.35 Q69.45 123.35 64.2 114.35 63.6 113.35 63.65 112.15 L64.35 97.2 64.25 97.2 62.5 97.5 62.35 97.5 61.8 97.4 Q60.85 97.2 59.3 96.45 L57.5 95.35 57.4 95.25 57.25 95.2 55.8 94.05 52.1 90.55 49.4 88.0 Q48.15 87.05 46.65 86.75 L44.6 86.55 43.75 86.55 42.6 86.7 42.55 86.7 Q41.3 87.7 39.8 87.55 L39.5 87.5 Q38.65 87.5 37.65 87.1 35.7 86.1 35.45 83.95 L34.9 83.1 33.75 82.9 Q31.1 82.35 30.25 79.95 L29.95 78.1 Q29.8 76.75 30.5 75.4 31.5 73.7 34.05 72.5 36.55 71.3 39.2 71.25 L39.85 71.25 40.5 71.3 44.3 71.7 44.45 71.7 45.0 71.65 46.4 71.6 47.95 71.8 50.05 72.35" fill="url(#gradient8)" fill-rule="evenodd" stroke="none"/>
      <path d="M50.05 72.35 L47.95 71.8 46.4 71.6 45.0 71.65 44.45 71.7 44.3 71.7 40.5 71.3 39.85 71.25 39.2 71.25 Q36.55 71.3 34.05 72.5 31.5 73.7 30.5 75.4 29.8 76.75 29.95 78.1 L30.25 79.95 Q31.1 82.35 33.75 82.9 L34.9 83.1 35.45 83.95 Q35.7 86.1 37.65 87.1 38.65 87.5 39.5 87.5 L39.8 87.55 Q41.3 87.7 42.55 86.7 L42.6 86.7 43.75 86.55 44.6 86.55 46.65 86.75 Q48.15 87.05 49.4 88.0 L52.1 90.55 55.8 94.05 57.25 95.2 57.4 95.25 57.5 95.35 59.3 96.45 Q60.85 97.2 61.8 97.4 L62.35 97.5 62.5 97.5 64.25 97.2 64.35 97.2 63.65 112.15 Q63.6 113.35 64.2 114.35 69.45 123.35 83.75 126.35 L94.05 127.6 100.9 127.6 101.65 127.6 105.75 127.1 Q113.85 125.85 119.4 122.3 123.0 120.0 125.0 117.2 125.65 116.3 125.75 115.05 L126.9 91.15 126.8 90.15 Q126.4 86.7 122.55 83.95 122.75 82.2 121.75 80.8 120.7 79.45 118.95 79.05 L117.4 78.95 117.25 78.95 113.8 79.3 111.4 79.5 108.95 79.0 Q103.1 77.75 96.35 77.45 L80.65 78.15 Q72.5 79.35 68.4 82.25 64.4 78.95 59.15 76.25 55.4 74.3 52.85 73.35 L50.05 72.35 Z" fill="none" stroke="#fbfcc9" stroke-linecap="butt" stroke-linejoin="miter" stroke-width="0.25"/>
      <path d="M44.3 75.2 L44.8 75.1 44.95 75.05 46.25 74.95 50.45 76.05 50.55 76.1 51.6 76.5 57.6 79.3 Q64.35 82.75 67.6 86.1 L67.75 86.6 67.75 86.7 67.7 86.85 68.4 87.2 Q69.85 83.95 77.65 82.15 85.5 80.35 96.2 80.85 102.75 81.15 108.25 82.3 L110.05 82.75 111.2 82.85 114.3 82.65 117.3 82.35 117.45 82.35 118.25 82.4 Q119.3 82.55 119.15 83.6 L118.95 85.75 Q123.35 88.05 123.45 90.75 L123.5 91.0 122.35 114.9 122.25 115.25 Q120.5 117.65 117.35 119.6 112.45 122.65 105.2 123.75 L101.4 124.2 101.1 124.15 94.2 124.2 84.45 123.05 Q71.55 120.3 67.15 112.65 L67.05 112.3 67.9 94.65 Q66.95 94.25 65.7 94.0 L63.65 93.75 63.0 94.05 62.7 94.1 Q62.05 94.05 60.9 93.45 L60.25 93.1 60.05 92.95 59.4 92.5 59.25 92.45 57.95 91.45 54.55 88.2 51.4 85.25 Q49.55 83.85 47.35 83.4 L44.6 83.15 43.5 83.15 41.7 83.45 41.3 83.55 40.6 83.95 Q40.35 84.2 40.05 84.15 L39.85 84.1 39.15 84.05 Q38.8 83.9 38.8 83.5 38.7 82.15 37.2 80.65 36.6 80.0 35.6 79.75 L34.45 79.6 Q33.7 79.4 33.5 78.9 33.35 78.45 33.35 77.8 33.25 77.5 33.45 77.1 33.95 76.25 35.55 75.5 37.35 74.7 39.25 74.65 L40.35 74.65 44.3 75.2" fill="#45260c" fill-rule="evenodd" stroke="none"/>
    </g>
    <linearGradient gradientTransform="matrix(0.0067, -0.032, -0.032, -0.0067, 77.55, 97.7)" gradientUnits="userSpaceOnUse" id="gradient8" spreadMethod="pad" x1="-819.2" x2="819.2">
      <stop offset="0.0" stop-color="#b1812f"/>
      <stop offset="0.1568627450980392" stop-color="#c89a33"/>
      <stop offset="0.3686274509803922" stop-color="#edc13a"/>
      <stop offset="0.9647058823529412" stop-color="#deea89"/>
    </linearGradient>
    <g id="sprite3" transform="matrix(1.0, 0.0, 0.0, 1.0, 0.0, 0.0)">
      <clipPath id="clipPath0" transform="matrix(1.0, 0.0, 0.0, 1.0, 0.0, 0.0)">
        <use height="6.05" transform="matrix(1.0, 0.0, 0.0, 1.0, 2.55, 2.8)" width="7.4" xlink:href="#shape5"/>
      </clipPath>
      <g clip-path="url(#clipPath0)">
        <use height="11.9" transform="matrix(1.0, 0.0, 0.0, 1.0, 0.0, 0.0)" width="12.2" xlink:href="#shape6"/>
      </g>
    </g>
    <g id="shape5" transform="matrix(1.0, 0.0, 0.0, 1.0, -2.55, -2.8)">
      <path d="M2.55 2.95 L4.65 2.8 5.05 2.85 9.95 3.35 Q9.85 6.1 9.3 7.6 8.75 9.15 8.0 8.75 7.9 7.2 6.2 5.5 5.35 4.6 3.95 4.4 L2.65 4.0 2.55 3.25 2.55 2.95" fill="#ff0000" fill-rule="evenodd" stroke="none"/>
    </g>
    <g id="shape6" transform="matrix(1.0, 0.0, 0.0, 1.0, 0.0, 0.0)">
      <path d="M3.85 0.0 L12.2 4.15 8.35 11.9 0.0 7.75 3.85 0.0" fill="url(#gradient9)" fill-rule="evenodd" stroke="none"/>
    </g>
    <linearGradient gradientTransform="matrix(0.0017, 8.0E-4, -8.0E-4, 0.0017, 3.35, 4.55)" gradientUnits="userSpaceOnUse" id="gradient9" spreadMethod="pad" x1="-819.2" x2="819.2">
      <stop offset="0.0" stop-color="#6e7073"/>
      <stop offset="1.0" stop-color="#565759"/>
    </linearGradient>
    <g id="sprite4" transform="matrix(1.0, 0.0, 0.0, 1.0, 0.0, 0.0)">
      <clipPath id="clipPath1" transform="matrix(1.0, 0.0, 0.0, 1.0, 0.0, 0.0)">
        <use height="1.9" transform="matrix(1.0, 0.0, 0.0, 1.0, 0.15, 0.15)" width="6.3" xlink:href="#shape7"/>
      </clipPath>
      <g clip-path="url(#clipPath1)">
        <use height="2.5" transform="matrix(1.0, 0.0, 0.0, 1.0, 0.0, 0.0)" width="6.9" xlink:href="#shape8"/>
      </g>
    </g>
    <g id="shape7" transform="matrix(1.0, 0.0, 0.0, 1.0, -0.15, -0.15)">
      <path d="M6.05 1.0 Q6.6 1.35 6.4 1.75 6.2 2.15 5.05 1.55 3.8 0.9 2.3 1.15 0.9 1.4 0.5 2.05 0.05 1.6 0.2 1.2 0.3 0.9 1.25 0.55 2.25 0.1 3.0 0.15 L3.15 0.15 Q5.3 0.45 6.05 1.0" fill="#ff0000" fill-rule="evenodd" stroke="none"/>
    </g>
    <g id="shape8" transform="matrix(1.0, 0.0, 0.0, 1.0, 0.0, 0.0)">
      <path d="M0.0 0.0 L6.9 0.0 6.9 2.45 0.0 2.5 0.0 0.0" fill="url(#gradient10)" fill-rule="evenodd" stroke="none"/>
    </g>
    <linearGradient gradientTransform="matrix(0.0026, 0.0, 0.0, 0.0026, 2.7, 1.25)" gradientUnits="userSpaceOnUse" id="gradient10" spreadMethod="pad" x1="-819.2" x2="819.2">
      <stop offset="0.0" stop-color="#6b6c6f"/>
      <stop offset="0.403921568627451" stop-color="#a0a1a3"/>
      <stop offset="0.7686274509803922" stop-color="#d4d5d6"/>
      <stop offset="0.8627450980392157" stop-color="#d2d3d4"/>
      <stop offset="0.9019607843137255" stop-color="#cbcccd"/>
      <stop offset="0.9333333333333333" stop-color="#bebfc1"/>
      <stop offset="0.9568627450980393" stop-color="#acaeaf"/>
      <stop offset="0.9803921568627451" stop-color="#959799"/>
      <stop offset="1.0" stop-color="#7a7c7f"/>
    </linearGradient>
    <g id="sprite5" transform="matrix(1.0, 0.0, 0.0, 1.0, 0.0, 0.0)">
      <clipPath id="clipPath2" transform="matrix(1.0, 0.0, 0.0, 1.0, 0.0, 0.0)">
        <use height="3.9" transform="matrix(1.0, 0.0, 0.0, 1.0, 2.85, 6.75)" width="16.1" xlink:href="#shape9"/>
      </clipPath>
      <g clip-path="url(#clipPath2)">
        <use height="17.5" transform="matrix(1.0, 0.0, 0.0, 1.0, 0.0, 0.0)" width="20.55" xlink:href="#shape10"/>
      </g>
    </g>
    <g id="shape9" transform="matrix(1.0, 0.0, 0.0, 1.0, -2.85, -6.75)">
      <path d="M18.95 8.7 Q13.1 10.95 12.0 10.6 6.25 8.85 3.9 9.25 1.8 9.65 3.9 8.15 5.9 6.75 8.4 6.75 L9.45 6.75 Q13.4 6.95 18.95 8.7 M10.4 7.8 Q10.75 7.45 10.2 7.25 L7.5 7.15 Q6.1 7.45 6.3 7.95 6.6 8.55 7.6 8.55 L9.4 8.35 Q10.1 8.15 10.4 7.8" fill="#ff0000" fill-rule="evenodd" stroke="none"/>
    </g>
    <g id="shape10" transform="matrix(1.0, 0.0, 0.0, 1.0, 0.0, 0.0)">
      <path d="M4.85 0.0 L20.55 7.85 15.7 17.5 0.0 9.65 4.85 0.0" fill="url(#gradient11)" fill-rule="evenodd" stroke="none"/>
    </g>
    <linearGradient gradientTransform="matrix(0.0029, 0.0014, -0.0014, 0.0029, 6.85, 7.05)" gradientUnits="userSpaceOnUse" id="gradient11" spreadMethod="pad" x1="-819.2" x2="819.2">
      <stop offset="0.0" stop-color="#afb1b4"/>
      <stop offset="1.0" stop-color="#d9dbdc"/>
    </linearGradient>
    <g id="shape11" transform="matrix(1.0, 0.0, 0.0, 1.0, -39.25, -75.6)">
      <path d="M61.7 84.05 Q63.9 84.65 67.1 86.55 L66.25 91.9 62.75 93.45 60.45 88.85 Q59.8 87.75 60.7 85.8 L61.7 84.05" fill="#693d22" fill-rule="evenodd" stroke="none"/>
      <path d="M39.4 78.5 L46.05 75.85 62.8 86.35 62.6 89.65 Q62.2 93.2 62.75 93.45 61.4 93.4 58.35 90.95 L52.5 85.3 Q49.25 82.55 44.6 82.5 L41.0 83.0 40.1 83.55 Q39.25 82.25 39.25 80.25 L39.4 78.5" fill="#8a4d22" fill-rule="evenodd" stroke="none"/>
      <path d="M39.75 78.7 L39.45 78.45 40.1 78.2 Q41.1 78.95 42.6 79.2 L44.7 79.1 46.55 78.85 Q47.75 78.9 48.95 79.6 50.35 80.35 51.05 81.55 51.8 82.85 53.25 83.2 54.7 83.6 55.95 82.85 L56.85 82.65 60.75 85.05 Q58.55 84.25 57.55 83.7 L56.0 83.4 54.7 83.7 52.95 83.5 Q51.55 83.0 51.1 82.35 49.85 80.55 48.6 79.95 L46.5 79.4 44.0 79.7 41.85 79.8 Q40.7 79.5 39.75 78.7" fill="#693b1d" fill-rule="evenodd" stroke="none"/>
      <path d="M42.8 80.35 L45.0 79.95 47.45 80.1 Q48.25 80.4 49.8 81.9 51.3 83.35 52.9 83.85 L56.5 84.75 Q58.2 85.25 59.6 86.4 L62.6 89.35 62.6 89.65 62.55 89.7 61.7 88.9 59.55 86.75 Q58.1 85.55 56.15 85.05 L52.6 84.15 Q51.25 83.7 50.55 83.1 L48.85 81.5 Q47.7 80.55 46.7 80.3 L44.5 80.5 42.45 80.8 Q41.05 80.65 39.25 79.95 L39.3 79.2 Q41.1 80.5 42.8 80.35" fill="#693b1d" fill-rule="evenodd" stroke="none"/>
      <path d="M41.5 82.8 L40.7 83.15 39.9 83.2 39.7 82.75 41.5 82.8" fill="#693b1d" fill-rule="evenodd" stroke="none"/>
      <path d="M42.15 82.05 L39.5 82.25 39.35 81.75 Q41.9 81.35 44.35 82.4 L44.6 82.5 43.45 82.55 Q42.95 82.2 42.15 82.05" fill="#693b1d" fill-rule="evenodd" stroke="none"/>
      <path d="M62.55 93.0 L61.2 92.9 59.6 91.9 62.5 92.65 62.55 93.0" fill="#693b1d" fill-rule="evenodd" stroke="none"/>
      <path d="M46.75 82.65 L44.35 81.9 Q41.25 80.95 39.45 81.2 L39.3 81.25 39.25 80.45 42.8 81.15 45.15 81.6 47.65 82.35 Q50.3 82.95 53.0 84.9 L56.0 87.15 Q58.15 88.65 60.05 89.25 L62.5 90.3 62.5 90.75 61.7 90.3 Q58.25 89.05 56.65 88.05 L53.7 85.75 Q51.65 84.15 50.85 83.9 L50.15 83.7 Q48.65 82.95 46.75 82.65" fill="#693b1d" fill-rule="evenodd" stroke="none"/>
      <path d="M62.45 91.45 L62.45 91.95 59.7 90.95 57.6 89.75 55.55 88.35 54.75 87.5 57.5 89.1 Q59.95 90.7 62.45 91.45" fill="#693b1d" fill-rule="evenodd" stroke="none"/>
      <path d="M56.65 85.75 Q57.9 86.05 58.7 86.6 59.6 87.25 59.7 87.9 59.8 88.55 59.15 88.45 58.5 88.35 57.35 87.65 56.2 87.0 56.2 86.7 56.25 86.45 57.0 86.55 57.75 86.7 58.05 86.95 58.45 87.3 57.5 87.25 57.7 86.9 57.45 86.85 56.7 86.7 57.1 87.2 L58.05 87.75 58.85 87.65 Q59.25 87.0 57.25 86.2 L55.55 85.6 56.65 85.75" fill="#693b1d" fill-rule="evenodd" stroke="none"/>
      <path d="M45.15 81.1 L45.7 80.85 47.0 80.9 Q47.75 81.2 47.9 81.65 48.05 82.15 47.45 82.05 L46.3 81.65 Q45.8 81.4 46.15 81.25 46.65 81.1 47.05 81.5 L46.5 81.5 47.05 81.75 Q47.5 81.9 47.45 81.65 L47.1 81.15 46.35 80.9 45.15 81.1" fill="#693b1d" fill-rule="evenodd" stroke="none"/>
      <path d="M41.85 76.6 Q44.45 75.5 46.2 75.6 L48.75 76.2 Q52.3 77.3 57.3 79.85 61.5 82.0 64.75 84.5 L67.1 86.55 62.7 88.4 59.5 85.8 Q55.6 82.85 51.9 81.2 46.75 78.95 42.55 78.55 L39.35 78.6 39.95 77.9 Q40.75 77.05 41.85 76.6" fill="#de7e3f" fill-rule="evenodd" stroke="none"/>
      <path d="M45.4 75.65 Q47.15 76.35 48.8 76.2 L48.85 76.2 51.35 77.1 48.2 76.65 44.6 75.75 45.4 75.65" fill="#b76933" fill-rule="evenodd" stroke="none"/>
      <path d="M49.05 79.7 L50.6 80.65 48.6 79.95 Q48.05 79.4 46.9 79.35 L46.7 79.35 45.55 79.05 Q47.95 79.15 49.05 79.7" fill="#b76933" fill-rule="evenodd" stroke="none"/>
      <path d="M51.2 77.85 Q46.8 77.4 44.65 76.65 L43.2 76.1 43.85 75.95 Q46.45 77.2 48.25 77.3 L52.75 77.65 54.55 78.5 51.2 77.85" fill="#b76933" fill-rule="evenodd" stroke="none"/>
      <path d="M63.35 88.15 L62.85 88.35 61.95 87.2 Q61.3 86.4 60.05 85.55 58.6 84.55 57.1 84.1 L55.55 83.15 58.15 83.8 Q60.85 84.75 62.65 87.2 L63.35 88.15" fill="#b76933" fill-rule="evenodd" stroke="none"/>
      <path d="M43.45 76.45 L46.65 77.35 51.45 78.35 54.9 79.05 57.6 80.05 58.05 80.2 61.9 82.5 63.95 84.75 66.1 87.0 65.9 87.05 64.6 86.15 Q61.8 82.85 60.35 81.85 59.25 81.15 56.75 80.15 54.2 79.2 52.55 78.85 L42.7 76.6 42.3 76.4 42.75 76.25 43.45 76.45" fill="#b76933" fill-rule="evenodd" stroke="none"/>
      <path d="M41.9 76.6 Q42.95 77.1 45.5 77.6 L50.5 78.6 55.75 80.1 58.95 81.3 Q60.1 81.85 61.35 83.45 63.55 86.15 65.4 87.25 L65.15 87.4 64.05 86.65 Q62.3 85.05 60.5 82.9 59.9 82.2 58.05 81.25 56.25 80.35 54.85 79.95 L45.15 77.75 41.6 76.7 41.85 76.6 41.9 76.6" fill="#b76933" fill-rule="evenodd" stroke="none"/>
      <path d="M66.05 85.55 L66.85 86.65 66.45 86.8 65.65 85.95 64.95 84.65 66.05 85.55" fill="#b76933" fill-rule="evenodd" stroke="none"/>
      <path d="M39.55 78.3 L39.8 78.0 41.55 78.5 40.05 78.5 39.55 78.3" fill="#b76933" fill-rule="evenodd" stroke="none"/>
      <path d="M40.95 77.05 L42.75 77.65 46.9 78.4 Q49.7 78.95 50.9 79.65 51.9 80.2 53.4 81.1 L57.25 82.85 Q61.85 84.8 63.95 87.0 L64.55 87.65 64.1 87.8 62.45 86.05 Q61.4 85.2 59.05 84.0 56.85 82.85 55.1 82.2 L51.9 80.65 49.3 79.3 45.2 78.4 41.05 77.65 40.4 77.45 40.95 77.05" fill="#b76933" fill-rule="evenodd" stroke="none"/>
      <path d="M57.75 81.8 Q58.5 82.15 59.0 82.65 59.55 83.2 58.85 83.1 58.1 83.05 55.85 81.85 53.6 80.7 53.5 80.35 53.4 80.05 54.65 80.35 L57.05 81.1 Q59.0 81.8 59.8 82.85 58.15 81.35 55.85 80.8 L54.85 80.65 Q54.55 80.7 55.05 81.05 55.6 81.5 56.7 81.95 57.8 82.45 58.0 82.35 58.4 82.2 56.9 81.6 L56.65 81.65 56.75 81.85 Q56.35 81.75 56.05 81.4 55.85 81.15 56.45 81.3 L57.75 81.8" fill="#b76933" fill-rule="evenodd" stroke="none"/>
    </g>
    <g id="sprite6" transform="matrix(1.0, 0.0, 0.0, 1.0, 0.0, 0.0)">
      <clipPath id="clipPath3" transform="matrix(1.0, 0.0, 0.0, 1.0, 0.0, 0.0)">
        <use height="12.25" transform="matrix(1.0, 0.0, 0.0, 1.0, 4.15, 5.4)" width="16.85" xlink:href="#shape12"/>
      </clipPath>
      <g clip-path="url(#clipPath3)">
        <use height="23.05" transform="matrix(1.0, 0.0, 0.0, 1.0, 0.0, 0.0)" width="24.9" xlink:href="#shape13"/>
      </g>
    </g>
    <g id="shape12" transform="matrix(1.0, 0.0, 0.0, 1.0, -4.15, -5.4)">
      <path d="M4.15 7.65 Q4.1 6.2 4.45 5.4 L11.7 6.95 Q13.65 7.45 21.0 12.05 L20.4 17.65 Q14.7 12.45 9.0 10.6 6.2 9.65 4.5 9.75 4.15 9.4 4.15 7.65" fill="#ff0000" fill-rule="evenodd" stroke="none"/>
    </g>
    <g id="shape13" transform="matrix(1.0, 0.0, 0.0, 1.0, 0.0, 0.0)">
      <path d="M6.4 0.0 L24.9 7.7 18.45 23.05 0.0 15.35 6.4 0.0" fill="url(#gradient12)" fill-rule="evenodd" stroke="none"/>
    </g>
    <linearGradient gradientTransform="matrix(0.0062, 0.0026, -0.0026, 0.0062, 8.75, 10.0)" gradientUnits="userSpaceOnUse" id="gradient12" spreadMethod="pad" x1="-819.2" x2="819.2">
      <stop offset="0.0" stop-color="#444245"/>
      <stop offset="1.0" stop-color="#58595b"/>
    </linearGradient>
    <g id="sprite7" transform="matrix(1.0, 0.0, 0.0, 1.0, 0.0, 0.0)">
      <clipPath id="clipPath4" transform="matrix(1.0, 0.0, 0.0, 1.0, 0.0, 0.0)">
        <use height="14.2" transform="matrix(1.0, 0.0, 0.0, 1.0, 5.3, 10.3)" width="27.7" xlink:href="#shape14"/>
      </clipPath>
      <g clip-path="url(#clipPath4)">
        <use height="34.8" transform="matrix(1.0, 0.0, 0.0, 1.0, 0.0, 0.0)" width="38.3" xlink:href="#shape15"/>
      </g>
    </g>
    <g id="shape14" transform="matrix(1.0, 0.0, 0.0, 1.0, -5.3, -10.3)">
      <path d="M5.3 11.85 L9.0 10.3 33.0 23.05 29.25 24.5 5.3 11.85" fill="#ff0000" fill-rule="evenodd" stroke="none"/>
    </g>
    <g id="shape15" transform="matrix(1.0, 0.0, 0.0, 1.0, 0.0, 0.0)">
      <path d="M10.5 0.0 L38.3 13.85 27.85 34.8 0.0 20.95 10.5 0.0" fill="url(#gradient13)" fill-rule="evenodd" stroke="none"/>
    </g>
    <linearGradient gradientTransform="matrix(0.0061, 0.003, -0.003, 0.0061, 10.6, 13.15)" gradientUnits="userSpaceOnUse" id="gradient13" spreadMethod="pad" x1="-819.2" x2="819.2">
      <stop offset="0.0" stop-color="#7e8082"/>
      <stop offset="0.7568627450980392" stop-color="#bfc1c2"/>
      <stop offset="1.0" stop-color="#d5d7d8"/>
    </linearGradient>
    <g id="sprite8" transform="matrix(1.0, 0.0, 0.0, 1.0, 0.0, 0.0)">
      <clipPath id="clipPath5" transform="matrix(1.0, 0.0, 0.0, 1.0, 0.0, 0.0)">
        <use height="6.75" transform="matrix(1.0, 0.0, 0.0, 1.0, 2.45, 4.85)" width="13.3" xlink:href="#shape16"/>
      </clipPath>
      <g clip-path="url(#clipPath5)">
        <use height="16.35" transform="matrix(1.0, 0.0, 0.0, 1.0, 0.0, 0.0)" width="18.2" xlink:href="#shape17"/>
      </g>
    </g>
    <g id="shape16" transform="matrix(1.0, 0.0, 0.0, 1.0, -2.45, -4.85)">
      <path d="M2.45 5.6 Q4.0 4.75 6.6 4.85 L7.75 4.95 15.75 9.2 13.85 11.6 2.45 5.6" fill="#ff0000" fill-rule="evenodd" stroke="none"/>
    </g>
    <g id="shape17" transform="matrix(1.0, 0.0, 0.0, 1.0, 0.0, 0.0)">
      <path d="M13.45 16.35 L0.0 10.0 4.7 0.0 18.2 6.35 13.45 16.35" fill="url(#gradient14)" fill-rule="evenodd" stroke="none"/>
    </g>
    <linearGradient gradientTransform="matrix(-0.0045, -0.0021, 0.0021, -0.0045, 7.1, 7.25)" gradientUnits="userSpaceOnUse" id="gradient14" spreadMethod="pad" x1="-819.2" x2="819.2">
      <stop offset="0.0" stop-color="#7c7e80"/>
      <stop offset="0.5882352941176471" stop-color="#b1b3b4"/>
      <stop offset="1.0" stop-color="#d9dbdc"/>
    </linearGradient>
    <g id="sprite9" transform="matrix(1.0, 0.0, 0.0, 1.0, 0.0, 0.0)">
      <clipPath id="clipPath6" transform="matrix(1.0, 0.0, 0.0, 1.0, 0.0, 0.0)">
        <use height="5.9" transform="matrix(1.0, 0.0, 0.0, 1.0, 0.15, 0.25)" width="5.55" xlink:href="#shape18"/>
      </clipPath>
      <g clip-path="url(#clipPath6)">
        <use height="6.8" transform="matrix(1.0, 0.0, 0.0, 1.0, 0.0, 0.0)" width="5.7" xlink:href="#shape19"/>
      </g>
    </g>
    <g id="shape18" transform="matrix(1.0, 0.0, 0.0, 1.0, -0.15, -0.25)">
      <path d="M0.15 3.3 L5.7 0.25 5.2 6.0 Q5.15 6.8 0.15 3.3" fill="#ff0000" fill-rule="evenodd" stroke="none"/>
    </g>
    <g id="shape19" transform="matrix(1.0, 0.0, 0.0, 1.0, 0.0, 0.0)">
      <path d="M0.3 0.0 L5.7 0.25 5.4 6.8 0.0 6.55 0.3 0.0" fill="url(#gradient15)" fill-rule="evenodd" stroke="none"/>
    </g>
    <linearGradient gradientTransform="matrix(0.0033, 2.0E-4, -2.0E-4, 0.0033, 2.85, 3.4)" gradientUnits="userSpaceOnUse" id="gradient15" spreadMethod="pad" x1="-819.2" x2="819.2">
      <stop offset="0.0" stop-color="#c1040c"/>
      <stop offset="1.0" stop-color="#930306"/>
    </linearGradient>
    <g id="sprite10" transform="matrix(1.0, 0.0, 0.0, 1.0, 0.0, 0.0)">
      <clipPath id="clipPath7" transform="matrix(1.0, 0.0, 0.0, 1.0, 0.0, 0.0)">
        <use height="35.2" transform="matrix(1.0, 0.0, 0.0, 1.0, 0.5, 0.0)" width="55.15" xlink:href="#shape20"/>
      </clipPath>
      <g clip-path="url(#clipPath7)">
        <use height="36.4" transform="matrix(1.0, 0.0, 0.0, 1.0, 0.0, 0.0)" width="55.65" xlink:href="#shape21"/>
      </g>
    </g>
    <g id="shape20" transform="matrix(1.0, 0.0, 0.0, 1.0, -0.5, 0.0)">
      <path d="M55.65 2.55 L54.5 26.4 Q51.9 30.15 46.05 32.5 38.3 35.65 27.05 35.15 15.35 34.6 8.05 30.75 2.85 27.95 0.5 23.9 L1.6 0.0 55.65 2.55" fill="#ff0000" fill-rule="evenodd" stroke="none"/>
    </g>
    <g id="shape21" transform="matrix(1.0, 0.0, 0.0, 1.0, 0.0, 0.0)">
      <path d="M54.05 36.4 L0.0 33.85 1.6 0.0 55.65 2.55 54.05 36.4" fill="url(#gradient16)" fill-rule="evenodd" stroke="none"/>
    </g>
    <linearGradient gradientTransform="matrix(0.0329, 0.0016, -0.0016, 0.0329, 27.85, 18.15)" gradientUnits="userSpaceOnUse" id="gradient16" spreadMethod="pad" x1="-819.2" x2="819.2">
      <stop offset="0.0" stop-color="#c1040c"/>
      <stop offset="1.0" stop-color="#930306"/>
    </linearGradient>
    <g id="sprite11" transform="matrix(1.0, 0.0, 0.0, 1.0, 0.0, 0.0)">
      <use height="34.8" transform="matrix(1.0, 0.0, 0.0, 1.0, 0.0, 0.0)" width="23.85" xlink:href="#sprite12"/>
    </g>
    <g id="sprite12" transform="matrix(1.0, 0.0, 0.0, 1.0, 0.0, 0.0)">
      <clipPath id="clipPath8" transform="matrix(1.0, 0.0, 0.0, 1.0, 0.0, 0.0)">
        <use height="34.8" transform="matrix(1.0, 0.0, 0.0, 1.0, 0.0, 0.0)" width="23.85" xlink:href="#shape22"/>
      </clipPath>
      <g clip-path="url(#clipPath8)">
        <use height="34.8" transform="matrix(1.0, 0.0, 0.0, 1.0, 0.0, 0.0)" width="23.85" xlink:href="#sprite13"/>
      </g>
    </g>
    <g id="shape22" transform="matrix(1.0, 0.0, 0.0, 1.0, 0.0, 0.0)">
      <path d="M0.0 33.75 L1.6 0.0 23.85 1.05 22.25 34.8 0.0 33.75" fill="#ff0000" fill-rule="evenodd" stroke="none"/>
    </g>
    <g id="sprite13" transform="matrix(1.0, 0.0, 0.0, 1.0, 0.0, 0.0)">
      <clipPath id="clipPath9" transform="matrix(1.0, 0.0, 0.0, 1.0, 0.0, 0.0)">
        <use height="33.2" transform="matrix(1.0, 0.0, 0.0, 1.0, 2.2, 0.5)" width="21.65" xlink:href="#shape23"/>
      </clipPath>
      <g clip-path="url(#clipPath9)">
        <use height="34.8" transform="matrix(1.0, 0.0, 0.0, 1.0, 0.0, 0.0)" width="23.85" xlink:href="#shape24"/>
      </g>
    </g>
    <g id="shape23" transform="matrix(1.0, 0.0, 0.0, 1.0, -2.2, -0.5)">
      <path d="M10.7 26.35 L10.95 24.95 12.1 0.5 23.85 1.05 22.7 24.9 Q20.6 27.9 14.65 30.55 8.65 33.25 2.2 33.7 6.9 33.15 9.3 29.5 10.25 28.1 10.7 26.35" fill="#ff0000" fill-rule="evenodd" stroke="none"/>
    </g>
    <g id="shape24" transform="matrix(1.0, 0.0, 0.0, 1.0, 0.0, 0.0)">
      <path d="M1.6 0.0 L23.85 1.05 22.25 34.8 0.0 33.75 1.6 0.0" fill="url(#gradient17)" fill-rule="evenodd" stroke="none"/>
    </g>
    <linearGradient gradientTransform="matrix(0.0135, 6.0E-4, -6.0E-4, 0.0135, 11.95, 17.4)" gradientUnits="userSpaceOnUse" id="gradient17" spreadMethod="pad" x1="-819.2" x2="819.2">
      <stop offset="0.0" stop-color="#f70a3e"/>
      <stop offset="0.9725490196078431" stop-color="#c40616"/>
      <stop offset="1.0" stop-color="#c30515"/>
    </linearGradient>
    <g id="shape25" transform="matrix(1.0, 0.0, 0.0, 1.0, -116.85, -90.75)">
      <path d="M118.2 90.75 L122.85 91.0 121.7 114.85 Q120.2 117.05 116.85 119.15 L118.2 90.75" fill="#790104" fill-rule="evenodd" stroke="none"/>
    </g>
    <g id="sprite14" transform="matrix(1.0, 0.0, 0.0, 1.0, 0.0, 0.0)">
      <clipPath id="clipPath10" transform="matrix(1.0, 0.0, 0.0, 1.0, 0.0, 0.0)">
        <use height="29.45" transform="matrix(1.0, 0.0, 0.0, 1.0, 0.2, 0.0)" width="8.65" xlink:href="#shape26"/>
      </clipPath>
      <g clip-path="url(#clipPath10)">
        <use height="29.45" transform="matrix(1.0, 0.0, 0.0, 1.0, 0.0, 0.0)" width="8.85" xlink:href="#shape27"/>
      </g>
    </g>
    <g id="shape26" transform="matrix(1.0, 0.0, 0.0, 1.0, -0.2, 0.0)">
      <path d="M1.4 0.0 L8.85 0.35 7.45 29.45 Q3.3 28.0 0.2 25.65 L1.4 0.0" fill="#ff0000" fill-rule="evenodd" stroke="none"/>
    </g>
    <g id="shape27" transform="matrix(1.0, 0.0, 0.0, 1.0, 0.0, 0.0)">
      <path d="M1.4 0.0 L8.85 0.35 7.45 29.45 0.0 29.1 1.4 0.0" fill="url(#gradient18)" fill-rule="evenodd" stroke="none"/>
    </g>
    <linearGradient gradientTransform="matrix(0.0045, 2.0E-4, -2.0E-4, 0.0045, 4.45, 14.75)" gradientUnits="userSpaceOnUse" id="gradient18" spreadMethod="pad" x1="-819.2" x2="819.2">
      <stop offset="0.0" stop-color="#f70a3e"/>
      <stop offset="0.9725490196078431" stop-color="#c40616"/>
      <stop offset="1.0" stop-color="#c30515"/>
    </linearGradient>
    <g id="shape28" transform="matrix(1.0, 0.0, 0.0, 1.0, -67.7, -88.45)">
      <path d="M68.8 88.45 L70.85 88.55 69.6 114.9 Q68.45 113.7 67.7 112.35 L68.8 88.45" fill="#790104" fill-rule="evenodd" stroke="none"/>
    </g>
    <g id="sprite15" transform="matrix(1.0, 0.0, 0.0, 1.0, 0.0, 0.0)">
      <clipPath id="clipPath11" transform="matrix(1.0, 0.0, 0.0, 1.0, 0.0, 0.0)">
        <use height="16.6" transform="matrix(1.0, 0.0, 0.0, 1.0, 0.4, 1.2)" width="54.05" xlink:href="#shape29"/>
      </clipPath>
      <g clip-path="url(#clipPath11)">
        <use height="19.0" transform="matrix(1.0, 0.0, 0.0, 1.0, 0.0, 0.0)" width="54.85" xlink:href="#shape30"/>
      </g>
    </g>
    <g id="shape29" transform="matrix(1.0, 0.0, 0.0, 1.0, -0.4, -1.2)">
      <path d="M42.8 3.6 L49.05 3.15 Q49.3 3.25 48.6 4.1 47.9 5.0 48.1 5.1 54.6 7.65 54.45 10.8 54.3 14.2 46.25 16.2 38.2 18.25 27.05 17.7 15.85 17.2 8.05 14.4 0.25 11.65 0.4 8.25 0.55 4.85 8.6 2.8 16.6 0.8 27.8 1.3 31.15 1.45 36.7 2.65 L42.8 3.6" fill="#ff0000" fill-rule="evenodd" stroke="none"/>
    </g>
    <g id="shape30" transform="matrix(1.0, 0.0, 0.0, 1.0, 0.0, 0.0)">
      <path d="M54.05 19.0 L0.0 16.45 0.8 0.0 54.85 2.6 54.05 19.0" fill="url(#gradient19)" fill-rule="evenodd" stroke="none"/>
    </g>
    <linearGradient gradientTransform="matrix(0.0329, 0.0016, -0.0016, 0.0329, 27.4, 9.5)" gradientUnits="userSpaceOnUse" id="gradient19" spreadMethod="pad" x1="-819.2" x2="819.2">
      <stop offset="0.0" stop-color="#373737"/>
      <stop offset="0.3686274509803922" stop-color="#595959"/>
      <stop offset="0.5764705882352941" stop-color="#525252"/>
      <stop offset="0.7647058823529411" stop-color="#5e5e5e"/>
      <stop offset="1.0" stop-color="#525252"/>
    </linearGradient>
    <g id="sprite16" transform="matrix(1.0, 0.0, 0.0, 1.0, 0.0, 0.0)">
      <clipPath id="clipPath12" transform="matrix(1.0, 0.0, 0.0, 1.0, 0.0, 0.0)">
        <use height="5.45" transform="matrix(1.0, 0.0, 0.0, 1.0, 0.55, 0.35)" width="7.3" xlink:href="#shape31"/>
      </clipPath>
      <g clip-path="url(#clipPath12)">
        <use height="7.65" transform="matrix(1.0, 0.0, 0.0, 1.0, 0.0, 0.0)" width="7.9" xlink:href="#shape32"/>
      </g>
    </g>
    <g id="shape31" transform="matrix(1.0, 0.0, 0.0, 1.0, -0.55, -0.35)">
      <path d="M7.75 0.8 L6.3 2.45 4.45 4.9 Q2.95 6.55 2.05 5.1 L0.95 2.85 Q0.35 1.4 0.6 1.25 L3.1 0.95 6.25 0.7 7.75 0.35 Q8.0 0.35 7.75 0.8" fill="#ff0000" fill-rule="evenodd" stroke="none"/>
    </g>
    <g id="shape32" transform="matrix(1.0, 0.0, 0.0, 1.0, 0.0, 0.0)">
      <path d="M0.35 0.0 L7.9 0.35 7.55 7.65 0.0 7.3 0.35 0.0" fill="url(#gradient20)" fill-rule="evenodd" stroke="none"/>
    </g>
    <linearGradient gradientTransform="matrix(0.0044, 2.0E-4, -2.0E-4, 0.0044, 4.05, 3.85)" gradientUnits="userSpaceOnUse" id="gradient20" spreadMethod="pad" x1="-819.2" x2="819.2">
      <stop offset="0.0" stop-color="#4d4d4d"/>
      <stop offset="1.0" stop-color="#696969"/>
    </linearGradient>
    <g id="shape33" transform="matrix(1.0, 0.0, 0.0, 1.0, -43.2, -45.65)">
      <path d="M115.75 85.7 Q115.3 85.55 116.25 84.6 117.15 83.7 116.55 83.55 L113.15 83.75 109.6 83.95 Q103.6 82.6 96.3 82.25 85.7 81.75 78.05 83.5 70.45 85.25 70.3 88.2 70.15 91.2 77.6 93.65 84.95 96.05 95.65 96.6 106.3 97.1 113.9 95.35 121.55 93.6 121.65 90.65 121.8 88.05 115.75 85.7 M110.5 83.45 L114.45 83.25 118.3 83.05 Q118.8 83.25 117.6 84.25 116.4 85.3 116.8 85.45 122.95 88.0 122.8 91.0 122.65 94.4 114.6 96.4 106.55 98.45 95.4 97.9 84.2 97.4 76.4 94.6 68.6 91.85 68.75 88.45 68.9 85.05 76.95 83.0 84.95 81.0 96.15 81.5 104.05 81.85 110.5 83.45" fill="#909090" fill-rule="evenodd" stroke="none"/>
      <path d="M60.35 48.15 Q61.05 49.3 61.0 50.6 L60.95 52.15 62.15 53.05 Q63.25 53.9 63.75 55.1 64.2 56.35 63.95 57.65 63.75 59.1 62.6 60.25 61.75 61.05 60.65 61.35 L59.15 61.75 58.7 63.2 Q58.25 64.4 57.45 65.1 56.35 66.2 54.85 66.35 L54.1 66.4 Q53.1 66.4 52.1 65.9 50.95 65.35 50.35 64.35 L49.5 63.05 47.9 63.05 Q46.6 63.0 45.45 62.3 44.3 61.55 43.75 60.4 43.2 59.15 43.35 57.85 43.5 56.5 44.3 55.45 L45.25 54.25 44.8 52.8 Q44.4 51.55 44.75 50.2 45.05 48.9 46.0 48.0 47.45 46.6 49.4 46.7 L50.9 47.0 52.3 47.5 53.55 46.6 Q54.8 45.75 56.4 45.75 57.35 45.75 58.45 46.25 L58.5 46.3 Q59.7 47.0 60.35 48.15" fill="url(#gradient21)" fill-rule="evenodd" stroke="none"/>
      <path d="M60.35 48.15 Q61.05 49.3 61.0 50.6 L60.95 52.15 62.15 53.05 Q63.25 53.9 63.75 55.1 64.2 56.35 63.95 57.65 63.75 59.1 62.6 60.25 61.75 61.05 60.65 61.35 L59.15 61.75 58.7 63.2 Q58.25 64.4 57.45 65.1 56.35 66.2 54.85 66.35 L54.1 66.4 Q53.1 66.4 52.1 65.9 50.95 65.35 50.35 64.35 L49.5 63.05 47.9 63.05 Q46.6 63.0 45.45 62.3 44.3 61.55 43.75 60.4 43.2 59.15 43.35 57.85 43.5 56.5 44.3 55.45 L45.25 54.25 44.8 52.8 Q44.4 51.55 44.75 50.2 45.05 48.9 46.0 48.0 47.45 46.6 49.4 46.7 L50.9 47.0 52.3 47.5 53.55 46.6 Q54.8 45.75 56.4 45.75 57.35 45.75 58.45 46.25 L58.5 46.3 Q59.7 47.0 60.35 48.15 Z" fill="none" stroke="#fbfcc9" stroke-linecap="butt" stroke-linejoin="miter" stroke-width="0.25"/>
      <path d="M55.1 48.8 Q56.1 48.05 57.25 48.65 58.4 49.3 58.3 50.5 L58.2 53.45 60.55 55.2 Q61.6 55.95 61.35 57.2 L60.75 58.3 59.9 58.8 57.1 59.6 56.15 62.35 55.6 63.2 54.5 63.75 Q53.25 63.9 52.55 62.85 L50.9 60.4 47.95 60.4 Q46.75 60.3 46.15 59.25 45.65 58.05 46.4 57.1 L48.2 54.8 47.35 52.0 Q46.95 50.8 47.85 49.9 48.8 49.0 49.95 49.5 L52.7 50.5 55.1 48.8" fill="#45260c" fill-rule="evenodd" stroke="none"/>
      <path d="M57.35 50.5 L57.25 53.9 60.0 55.95 Q60.55 56.35 60.4 57.0 L60.1 57.6 59.65 57.85 56.35 58.8 55.25 62.05 55.0 62.5 54.35 62.8 Q53.7 62.9 53.35 62.3 L51.4 59.45 48.0 59.45 Q47.35 59.45 47.0 58.8 46.75 58.2 47.15 57.7 L49.25 55.0 48.25 51.7 Q48.05 51.15 48.5 50.6 48.95 50.15 49.65 50.35 L52.85 51.55 55.65 49.55 56.8 49.5 Q57.4 49.85 57.35 50.5" fill="url(#gradient22)" fill-rule="evenodd" stroke="none"/>
      <path d="M60.0 55.95 Q60.55 56.35 60.4 57.0 L60.1 57.6 59.65 57.85 59.75 57.5 Q59.9 56.85 59.35 56.45 L56.6 54.4 56.7 51.0 Q56.75 50.35 56.15 50.0 L55.0 50.05 52.2 52.05 49.0 50.85 48.4 50.85 48.5 50.6 Q48.95 50.15 49.65 50.35 L52.85 51.55 55.65 49.55 56.8 49.5 Q57.4 49.85 57.35 50.5 L57.25 53.9 60.0 55.95" fill="#ffffff" fill-rule="evenodd" stroke="none"/>
      <path d="M124.8 48.0 Q125.8 48.9 126.1 50.2 126.45 51.55 126.05 52.8 L125.6 54.25 126.55 55.45 Q127.4 56.5 127.5 57.85 127.65 59.15 127.05 60.4 126.5 61.55 125.4 62.3 124.25 63.0 122.95 63.05 L121.35 63.05 120.5 64.35 Q119.8 65.4 118.75 65.9 117.65 66.4 116.7 66.4 L115.95 66.35 Q114.45 66.2 113.35 65.1 112.6 64.4 112.15 63.2 L111.65 61.75 110.2 61.35 Q109.15 61.05 108.25 60.25 107.15 59.25 106.85 57.65 106.65 56.35 107.1 55.1 107.6 53.9 108.7 53.05 L109.9 52.15 109.85 50.6 Q109.8 49.3 110.45 48.15 111.1 46.95 112.3 46.3 L112.4 46.25 Q113.4 45.75 114.45 45.75 116.0 45.75 117.25 46.6 L118.5 47.5 119.95 47.0 121.45 46.7 Q123.35 46.65 124.8 48.0" fill="url(#gradient23)" fill-rule="evenodd" stroke="none"/>
      <path d="M124.8 48.0 Q125.8 48.9 126.1 50.2 126.45 51.55 126.05 52.8 L125.6 54.25 126.55 55.45 Q127.4 56.5 127.5 57.85 127.65 59.15 127.05 60.4 126.5 61.55 125.4 62.3 124.25 63.0 122.95 63.05 L121.35 63.05 120.5 64.35 Q119.8 65.4 118.75 65.9 117.65 66.4 116.7 66.4 L115.95 66.35 Q114.45 66.2 113.35 65.1 112.6 64.4 112.15 63.2 L111.65 61.75 110.2 61.35 Q109.15 61.05 108.25 60.25 107.15 59.25 106.85 57.65 106.65 56.35 107.1 55.1 107.6 53.9 108.7 53.05 L109.9 52.15 109.85 50.6 Q109.8 49.3 110.45 48.15 111.1 46.95 112.3 46.3 L112.4 46.25 Q113.4 45.75 114.45 45.75 116.0 45.75 117.25 46.6 L118.5 47.5 119.95 47.0 121.45 46.7 Q123.35 46.65 124.8 48.0 Z" fill="none" stroke="#fbfcc9" stroke-linecap="butt" stroke-linejoin="miter" stroke-width="0.25"/>
      <path d="M115.7 48.8 L118.1 50.5 120.85 49.5 Q122.0 49.05 122.95 49.9 123.9 50.85 123.5 52.0 L122.6 54.8 124.45 57.1 Q125.2 58.1 124.65 59.25 124.15 60.3 122.85 60.4 L119.9 60.4 118.3 62.85 Q117.5 63.9 116.35 63.75 115.6 63.6 115.2 63.2 L114.7 62.35 113.75 59.6 110.9 58.8 110.1 58.3 Q109.6 57.85 109.5 57.2 109.25 55.95 110.25 55.2 L112.65 53.45 112.5 50.5 Q112.5 49.3 113.6 48.65 114.7 48.05 115.7 48.8" fill="#45260c" fill-rule="evenodd" stroke="none"/>
      <path d="M119.4 59.45 L117.5 62.3 Q117.1 62.9 116.45 62.8 L115.85 62.5 115.6 62.05 114.5 58.8 111.2 57.85 110.75 57.6 110.4 57.0 Q110.3 56.35 110.85 55.95 L113.6 53.9 113.45 50.5 Q113.45 49.8 114.05 49.5 L115.15 49.55 117.95 51.55 121.2 50.35 Q121.9 50.2 122.3 50.6 122.75 51.05 122.6 51.7 L121.55 55.0 123.7 57.7 Q124.15 58.2 123.8 58.8 123.55 59.45 122.85 59.45 L119.4 59.45" fill="url(#gradient24)" fill-rule="evenodd" stroke="none"/>
      <path d="M118.6 52.05 L115.8 50.05 114.7 50.0 Q114.1 50.3 114.1 51.0 L114.25 54.4 111.5 56.45 Q110.95 56.85 111.05 57.5 L111.2 57.85 110.75 57.6 110.4 57.0 Q110.3 56.35 110.85 55.95 L113.6 53.9 113.45 50.5 Q113.45 49.8 114.05 49.5 L115.15 49.55 117.95 51.55 121.2 50.35 Q121.9 50.2 122.3 50.6 L122.45 50.85 121.85 50.85 118.6 52.05" fill="#ffffff" fill-rule="evenodd" stroke="none"/>
    </g>
    <linearGradient gradientTransform="matrix(0.0057, -0.011, -0.011, -0.0057, 53.7, 55.3)" gradientUnits="userSpaceOnUse" id="gradient21" spreadMethod="pad" x1="-819.2" x2="819.2">
      <stop offset="0.0" stop-color="#b1812f"/>
      <stop offset="0.1568627450980392" stop-color="#c89a33"/>
      <stop offset="0.3686274509803922" stop-color="#edc13a"/>
      <stop offset="0.9647058823529412" stop-color="#deea89"/>
    </linearGradient>
    <linearGradient gradientTransform="matrix(0.0037, -0.0071, -0.0071, -0.0037, 53.7, 55.3)" gradientUnits="userSpaceOnUse" id="gradient22" spreadMethod="pad" x1="-819.2" x2="819.2">
      <stop offset="0.023529411764705882" stop-color="#808080"/>
      <stop offset="0.7294117647058823" stop-color="#e6e6e6"/>
      <stop offset="1.0" stop-color="#b3b3b3"/>
    </linearGradient>
    <linearGradient gradientTransform="matrix(0.0057, 0.011, -0.011, 0.0057, 117.1, 55.3)" gradientUnits="userSpaceOnUse" id="gradient23" spreadMethod="pad" x1="-819.2" x2="819.2">
      <stop offset="0.0" stop-color="#b1812f"/>
      <stop offset="0.1568627450980392" stop-color="#c89a33"/>
      <stop offset="0.3686274509803922" stop-color="#edc13a"/>
      <stop offset="0.9647058823529412" stop-color="#deea89"/>
    </linearGradient>
    <linearGradient gradientTransform="matrix(-0.0073, -0.0033, 0.0033, -0.0073, 117.1, 55.3)" gradientUnits="userSpaceOnUse" id="gradient24" spreadMethod="pad" x1="-819.2" x2="819.2">
      <stop offset="0.023529411764705882" stop-color="#808080"/>
      <stop offset="0.7294117647058823" stop-color="#e6e6e6"/>
      <stop offset="1.0" stop-color="#b3b3b3"/>
    </linearGradient>
  </defs>
</svg>
