<?xml version="1.0" encoding="UTF-8" standalone="no"?>
<svg xmlns:xlink="http://www.w3.org/1999/xlink" height="94.3px" width="74.6px" xmlns="http://www.w3.org/2000/svg">
  <g transform="matrix(1.0, 0.0, 0.0, 1.0, 0.0, 0.0)">
    <use height="19.9" transform="matrix(1.0, 0.0, 0.0, 1.0, 5.65, 90.3)" width="62.85" xlink:href="#shape0"/>
    <use height="12.95" transform="matrix(1.0, 0.0, 0.0, 1.0377, 6.8, 96.25)" width="59.6" xlink:href="#sprite0"/>
    <use height="84.6" transform="matrix(1.0, 0.0, 0.0, 1.0, 9.05, 26.3)" width="64.15" xlink:href="#shape2"/>
    <use height="81.3" transform="matrix(1.0, 0.0, 0.0, 1.0377, 44.75, 26.05)" width="26.55" xlink:href="#sprite1"/>
    <use height="1.45" transform="matrix(1.0, 0.0, 0.0, 1.0, 62.8, 26.75)" width="0.55" xlink:href="#shape4"/>
    <use height="78.7" transform="matrix(1.0, 0.0, 0.0, 1.0377, 48.95, 28.15)" width="20.75" xlink:href="#sprite2"/>
    <use height="82.85" transform="matrix(1.0, 0.0, 0.0, 1.0, 4.05, 26.8)" width="68.35" xlink:href="#shape6"/>
    <use height="76.0" transform="matrix(1.0, 0.0, 0.0, 1.0377, 4.15, 27.5)" width="16.05" xlink:href="#sprite3"/>
    <use height="74.85" transform="matrix(1.0, 0.0, 0.0, 1.0377, 24.5, 33.65)" width="15.7" xlink:href="#sprite4"/>
    <use height="78.0" transform="matrix(1.0, 0.0, 0.0, 1.0, 0.0, 17.0)" width="74.6" xlink:href="#shape9"/>
  </g>
  <defs>
    <g id="shape0" transform="matrix(1.0, 0.0, 0.0, 1.0, -5.65, -90.3)">
      <path d="M37.05 90.3 Q50.05 90.3 59.3 93.2 68.5 96.15 68.5 100.25 68.5 104.35 59.3 107.3 50.05 110.2 37.05 110.2 24.05 110.2 14.85 107.3 5.65 104.35 5.65 100.25 5.65 96.15 14.85 93.2 24.05 90.3 37.05 90.3" fill="url(#gradient0)" fill-rule="evenodd" stroke="none"/>
    </g>
    <radialGradient cx="0" cy="0" gradientTransform="matrix(0.0384, 0.0, 0.0, -0.0121, 37.05, 100.2)" gradientUnits="userSpaceOnUse" id="gradient0" r="819.2" spreadMethod="pad">
      <stop offset="0.08627450980392157" stop-color="#000000" stop-opacity="0.24705882"/>
      <stop offset="0.8666666666666667" stop-color="#000000" stop-opacity="0.101960786"/>
      <stop offset="1.0" stop-color="#000000" stop-opacity="0.0"/>
    </radialGradient>
    <g id="sprite0" transform="matrix(1.0, 0.0, 0.0, 1.0, 0.05, 0.0)">
      <use height="12.95" transform="matrix(1.0, 0.0, 0.0, 1.0, -0.05, 0.0)" width="59.6" xlink:href="#shape1"/>
    </g>
    <g id="shape1" transform="matrix(1.0, 0.0, 0.0, 1.0, 0.05, 0.0)">
      <path d="M57.2 0.0 Q58.75 0.0 59.35 2.85 60.0 5.7 58.6 6.7 56.55 8.15 53.1 9.55 48.1 11.5 42.15 12.5 36.3 13.45 24.45 12.45 L9.7 10.65 Q6.1 10.05 3.15 8.7 0.45 7.5 0.0 6.5 -0.35 5.8 2.4 4.1 3.75 3.3 5.2 2.6 L57.2 0.0" fill="#000000" fill-rule="evenodd" stroke="none"/>
    </g>
    <g id="shape2" transform="matrix(1.0, 0.0, 0.0, 1.0, -9.05, -26.3)">
      <path d="M57.35 30.0 Q61.4 28.15 63.2 26.3 62.9 28.15 62.7 31.65 62.35 38.6 62.8 46.45 63.55 59.15 65.0 98.1 63.55 101.3 59.55 104.4 51.6 110.7 38.95 110.35 24.15 109.95 15.45 105.7 12.75 104.35 11.0 102.8 L9.75 101.5 11.1 98.3 Q12.3 94.55 11.65 92.2 11.2 90.5 12.15 74.8 13.1 58.75 12.3 54.85 10.85 47.7 9.05 28.05 11.9 29.3 16.95 30.6 27.05 33.15 38.15 33.4 49.25 33.65 57.35 30.0" fill="#7e4e18" fill-rule="evenodd" stroke="none"/>
      <path d="M64.6 61.0 Q62.95 72.5 62.6 72.75 62.25 73.1 62.8 76.45 62.8 80.25 59.65 82.25 55.1 85.2 57.15 68.55 57.95 62.35 62.05 40.4 L69.2 33.05 70.45 35.45 72.5 40.0 Q73.1 41.55 70.55 43.75 67.3 46.55 66.9 47.55 66.3 48.95 64.6 61.0" fill="#7e4e18" fill-rule="evenodd" stroke="none"/>
      <path d="M69.2 33.55 Q71.15 31.45 72.6 35.5 74.0 39.55 72.05 42.05 70.2 44.45 68.9 39.8 67.65 35.15 69.2 33.55" fill="#c49764" fill-rule="evenodd" stroke="none"/>
      <path d="M17.6 56.5 Q17.0 58.25 16.65 71.15 16.3 84.4 15.9 86.1 15.1 89.85 15.35 105.5 L13.45 103.45 Q14.25 88.6 14.8 83.6 15.3 78.95 15.8 69.1 16.3 57.95 15.9 54.85 L12.3 28.0 15.1 30.45 16.75 42.2 Q18.3 54.45 17.6 56.5" fill="#704515" fill-rule="evenodd" stroke="none"/>
      <path d="M28.7 32.35 L31.6 32.75 30.4 41.3 Q29.15 50.35 28.95 53.2 L28.7 67.7 28.4 84.05 Q28.1 91.05 28.4 110.1 L25.9 109.25 Q26.2 95.2 26.45 89.0 L26.9 72.8 Q27.25 60.25 27.55 56.9 28.1 51.15 28.7 32.35" fill="#704515" fill-rule="evenodd" stroke="none"/>
      <path d="M18.45 30.8 L21.5 31.55 21.4 39.75 Q21.3 48.6 21.45 51.95 L23.15 86.95 24.25 108.4 22.0 108.0 Q22.6 98.1 21.75 93.95 21.4 92.25 21.1 77.95 20.85 64.0 20.1 61.05 19.25 57.7 18.75 43.9 L18.45 30.8" fill="#704515" fill-rule="evenodd" stroke="none"/>
      <path d="M31.5 50.8 L34.8 35.4 33.7 44.4 Q32.55 53.95 32.55 56.5 L32.4 70.65 Q32.3 82.3 32.85 85.7 33.65 91.05 32.0 110.1 L30.9 109.65 Q31.45 101.4 31.45 96.85 L30.95 81.05 30.05 64.35 Q29.7 60.75 31.5 50.8" fill="#704515" fill-rule="evenodd" stroke="none"/>
      <path d="M20.1 108.0 L18.95 107.15 Q18.15 96.45 18.15 93.55 L19.0 78.05 19.8 64.8 20.0 79.4 Q20.2 94.5 20.35 96.85 20.65 100.6 20.1 108.0" fill="#704515" fill-rule="evenodd" stroke="none"/>
      <path d="M17.3 106.75 L15.35 105.5 16.75 96.0 17.3 106.75" fill="#704515" fill-rule="evenodd" stroke="none"/>
      <path d="M57.5 58.15 Q56.8 53.5 57.1 41.9 L57.5 31.25 59.45 29.2 Q58.35 43.7 58.05 51.15 57.8 59.2 60.85 71.8 61.95 76.35 65.0 98.1 L62.2 102.6 Q61.1 93.55 60.85 89.85 L59.5 75.4 57.5 58.15" fill="#704515" fill-rule="evenodd" stroke="none"/>
      <path d="M60.85 103.0 Q57.25 95.2 57.25 93.1 L57.5 69.35 58.1 79.05 Q58.8 89.1 59.15 90.6 59.75 93.1 60.85 103.0" fill="#704515" fill-rule="evenodd" stroke="none"/>
      <path d="M68.9 40.0 L70.0 41.65 68.45 42.75 Q66.6 44.3 65.05 46.6 63.5 48.9 62.6 53.55 L62.1 57.05 62.6 52.3 Q63.35 46.45 64.2 44.95 65.1 43.4 67.1 41.55 L68.9 40.0" fill="#704515" fill-rule="evenodd" stroke="none"/>
      <path d="M60.6 28.7 L62.8 26.4 63.1 27.5 63.35 30.45 63.35 38.75 61.15 44.15 60.6 28.7" fill="#704515" fill-rule="evenodd" stroke="none"/>
      <path d="M36.45 59.8 Q36.25 62.55 36.95 75.85 37.7 89.05 38.1 90.6 L39.15 96.55 40.05 103.0 40.6 110.9 38.95 110.35 38.3 103.05 Q37.35 95.1 36.15 91.45 34.95 87.95 35.1 74.2 35.5 60.4 35.35 58.55 35.15 56.25 36.05 48.5 L37.0 41.25 38.95 35.85 36.45 59.8" fill="#704515" fill-rule="evenodd" stroke="none"/>
      <path d="M36.7 109.65 L33.65 109.65 Q33.65 106.65 33.8 103.6 34.1 97.35 34.8 96.85 35.5 96.35 36.15 102.95 L36.7 109.65" fill="#704515" fill-rule="evenodd" stroke="none"/>
      <path d="M41.45 35.85 Q41.7 55.3 41.15 58.15 40.8 60.1 41.55 73.35 42.3 85.6 42.8 89.45 43.35 93.55 42.25 110.5 40.85 93.1 40.3 89.85 39.85 87.15 39.3 76.8 38.75 66.1 38.95 62.3 39.1 58.9 40.3 47.05 L41.45 35.85" fill="#704515" fill-rule="evenodd" stroke="none"/>
      <path d="M44.5 35.85 L45.85 35.4 45.05 59.4 Q45.05 61.7 45.95 74.7 46.85 88.05 47.25 90.6 L49.2 109.65 46.4 109.65 Q45.85 98.1 45.85 93.95 L44.8 78.9 Q43.8 66.35 43.95 64.8 44.2 61.9 44.5 35.85" fill="#704515" fill-rule="evenodd" stroke="none"/>
      <path d="M54.75 33.35 L54.25 43.1 Q53.75 53.2 53.9 55.3 L54.55 70.0 55.0 85.7 Q55.0 89.3 55.35 94.0 55.7 98.85 56.1 99.75 56.7 101.0 57.8 105.5 L55.85 107.15 Q54.75 96.0 54.75 94.35 53.65 67.65 53.05 64.35 52.75 62.5 52.95 54.05 L53.05 44.9 Q52.9 43.9 52.85 38.75 L52.8 33.75 54.75 33.35" fill="#704515" fill-rule="evenodd" stroke="none"/>
      <path d="M49.2 35.0 L50.85 35.0 50.2 44.9 Q49.55 55.1 49.75 56.05 49.9 57.1 49.3 71.3 L48.65 85.3 48.0 71.3 Q47.35 57.1 47.55 56.05 L49.2 35.0" fill="#704515" fill-rule="evenodd" stroke="none"/>
      <path d="M54.2 105.95 Q52.8 105.1 52.5 103.85 L50.0 91.05 Q49.3 87.7 50.85 73.8 L52.5 60.65 52.3 72.0 Q52.15 83.75 52.5 86.1 53.05 89.85 54.2 105.95" fill="#704515" fill-rule="evenodd" stroke="none"/>
      <path d="M52.25 108.85 L49.2 109.65 50.3 97.25 52.25 108.85" fill="#704515" fill-rule="evenodd" stroke="none"/>
      <path d="M62.0 27.65 L62.5 27.15 63.15 27.0 62.0 27.65 57.5 31.25 Q55.85 32.5 52.15 33.35 L44.65 34.15 39.15 34.05 34.55 33.65 29.55 32.85 27.45 32.35 36.6 32.5 49.9 32.0 Q53.35 31.45 58.6 29.2 L62.0 27.65" fill="#b06d22" fill-rule="evenodd" stroke="none"/>
      <path d="M68.45 37.3 L68.55 34.65 69.65 39.8 Q70.05 41.55 70.95 42.0 L70.9 42.0 Q69.65 41.8 69.1 40.95 68.5 40.1 68.45 37.3" fill="#b06d22" fill-rule="evenodd" stroke="none"/>
      <path d="M35.4 109.5 L34.9 105.4 Q34.45 101.2 34.7 100.7 L35.1 98.85 35.25 97.7 35.9 101.85 36.55 107.6 36.55 110.9 35.4 109.5" fill="#593711" fill-rule="evenodd" stroke="none"/>
      <path d="M39.85 110.1 Q39.3 97.4 38.4 94.6 36.15 88.15 36.15 82.55 L36.9 56.5 Q38.0 87.2 38.2 89.45 L39.2 95.95 40.05 102.1 39.85 110.1" fill="#593711" fill-rule="evenodd" stroke="none"/>
      <path d="M53.15 104.25 L52.15 97.8 Q51.2 91.1 51.3 90.25 L52.0 87.65 52.5 86.1 53.05 89.85 53.55 96.0 Q53.55 99.35 53.15 104.25" fill="#593711" fill-rule="evenodd" stroke="none"/>
      <path d="M29.8 32.5 L31.6 33.15 30.85 39.65 29.5 48.5 Q29.0 50.5 28.55 56.8 L29.8 32.5" fill="#593711" fill-rule="evenodd" stroke="none"/>
      <path d="M19.55 83.05 L19.7 86.75 Q19.85 90.7 20.1 92.45 20.45 95.2 19.9 103.75 L18.8 95.45 Q18.7 94.25 19.1 88.55 L19.55 83.05" fill="#593711" fill-rule="evenodd" stroke="none"/>
      <path d="M12.85 30.6 L12.3 29.5 15.45 31.4 17.3 49.65 15.1 41.05 Q14.65 39.7 13.7 35.0 L12.85 30.6" fill="#593711" fill-rule="evenodd" stroke="none"/>
      <path d="M11.2 29.5 L12.7 49.3 9.05 28.05 11.2 29.5" fill="#704515" fill-rule="evenodd" stroke="none"/>
      <path d="M58.55 34.15 L59.45 47.95 Q59.65 49.3 58.7 60.35 57.95 53.45 58.05 51.15 L58.55 34.15" fill="#593711" fill-rule="evenodd" stroke="none"/>
      <path d="M46.0 36.25 L47.45 35.55 45.2 53.45 46.0 36.25" fill="#593711" fill-rule="evenodd" stroke="none"/>
      <path d="M19.7 70.85 L21.2 92.45 Q21.35 94.95 20.1 108.0 L20.25 99.05 20.3 94.8 20.1 89.1 Q19.85 86.9 19.75 78.65 L19.7 70.85" fill="#8c571b" fill-rule="evenodd" stroke="none"/>
      <path d="M15.45 31.4 L16.8 39.3 Q18.15 47.8 18.25 50.7 18.4 55.4 16.2 71.1 16.55 61.2 16.95 58.45 17.55 53.55 17.1 48.8 L15.45 31.4" fill="#8c571b" fill-rule="evenodd" stroke="none"/>
      <path d="M38.4 44.65 L38.4 51.25 38.2 60.9 Q38.05 63.9 38.95 77.85 39.8 91.6 40.25 94.6 40.8 98.5 40.8 109.0 L39.85 98.5 38.95 94.15 Q38.3 90.95 38.2 89.45 L37.65 76.1 37.25 61.7 37.85 51.75 38.4 44.65" fill="#8c571b" fill-rule="evenodd" stroke="none"/>
      <path d="M54.75 33.35 L57.5 31.25 54.2 48.65 54.75 33.35" fill="#593711" fill-rule="evenodd" stroke="none"/>
      <path d="M62.2 102.6 Q60.0 98.9 59.45 96.45 59.0 94.35 58.25 82.9 57.5 71.3 58.05 73.05 58.6 74.6 60.45 88.75 L62.2 102.6" fill="#593711" fill-rule="evenodd" stroke="none"/>
      <path d="M65.05 53.2 Q64.45 56.1 62.6 72.75 L62.8 53.65 65.6 44.55 65.55 47.8 Q65.4 51.4 65.05 53.2" fill="#593711" fill-rule="evenodd" stroke="none"/>
      <path d="M51.8 74.95 L51.8 71.55 51.85 74.15 Q52.2 85.1 53.05 86.95 53.95 88.75 54.0 96.05 L53.9 103.0 Q53.35 93.55 52.5 89.45 52.0 86.85 51.8 74.95" fill="#8c571b" fill-rule="evenodd" stroke="none"/>
      <path d="M58.05 71.4 L60.85 89.85 62.2 102.6 Q60.85 93.95 60.3 91.85 59.95 90.6 58.95 80.85 L58.05 71.4" fill="#8c571b" fill-rule="evenodd" stroke="none"/>
      <path d="M59.15 53.65 L59.1 48.8 58.75 43.7 Q58.6 42.7 59.15 37.7 L59.75 32.9 Q59.75 41.0 59.3 42.45 59.05 43.4 59.4 46.2 L60.0 50.1 Q60.3 51.75 58.9 59.6 L59.15 53.65" fill="#8c571b" fill-rule="evenodd" stroke="none"/>
      <path d="M47.45 35.55 L48.1 35.2 45.85 51.75 47.45 35.55" fill="#8c571b" fill-rule="evenodd" stroke="none"/>
      <path d="M34.8 96.85 L37.25 103.85 Q38.05 106.35 37.35 108.9 37.05 110.15 36.55 110.9 36.45 106.75 36.0 104.25 L34.8 96.85" fill="#8c571b" fill-rule="evenodd" stroke="none"/>
      <path d="M20.65 60.85 Q20.05 58.0 20.7 54.7 L21.45 51.95 23.55 85.7 Q21.6 65.4 20.65 60.85" fill="#593711" fill-rule="evenodd" stroke="none"/>
      <path d="M23.7 108.4 L23.8 96.85 25.35 108.85 23.7 108.4" fill="#593711" fill-rule="evenodd" stroke="none"/>
      <path d="M11.5 102.8 L14.25 92.7 14.1 104.7 11.5 102.8" fill="#593711" fill-rule="evenodd" stroke="none"/>
      <path d="M51.7 108.6 L50.45 108.85 50.6 98.9 51.7 108.6" fill="#593711" fill-rule="evenodd" stroke="none"/>
      <path d="M42.25 110.5 L42.7 99.95 42.65 96.75 42.55 94.75 43.95 106.75 43.1 110.5 42.25 110.5" fill="#593711" fill-rule="evenodd" stroke="none"/>
    </g>
    <g id="sprite1" transform="matrix(1.0, 0.0, 0.0, 1.0, 0.0, 0.0)">
      <use height="81.3" transform="matrix(1.0, 0.0, 0.0, 1.0, 0.0, 0.0)" width="26.55" xlink:href="#shape3"/>
    </g>
    <g id="shape3" transform="matrix(1.0, 0.0, 0.0, 1.0, 0.0, 0.0)">
      <path d="M24.0 7.5 Q23.65 8.5 23.75 10.5 24.0 15.35 26.55 15.9 L22.95 20.15 Q21.15 22.9 20.55 27.3 19.05 39.3 19.05 43.65 19.0 48.95 20.0 60.9 20.5 67.4 20.15 69.1 19.55 72.05 16.15 74.55 13.8 76.3 10.1 78.25 L4.0 81.3 Q4.05 79.2 3.6 76.85 L2.85 72.6 Q2.55 70.55 2.45 67.1 L2.2 61.55 Q1.4 49.85 0.5 44.55 0.1 42.3 0.05 37.15 L0.0 29.55 1.35 33.15 Q2.25 35.15 2.45 36.55 1.55 29.5 1.35 23.2 1.05 13.1 3.05 10.3 L3.25 8.05 Q4.2 7.8 6.05 8.05 7.45 8.2 8.8 7.4 10.3 6.55 13.6 3.5 16.65 0.7 18.25 0.0 L17.95 6.8 Q17.75 10.65 18.1 13.45 18.95 11.9 21.55 9.5 22.9 8.2 24.0 7.5 24.4 6.0 25.7 6.55 25.0 6.75 24.0 7.5" fill="#1c1105" fill-rule="evenodd" stroke="none"/>
    </g>
    <g id="shape4" transform="matrix(1.0, 0.0, 0.0, 1.0, -62.8, -26.75)">
      <path d="M62.8 26.75 L63.35 28.0 62.85 28.2 62.8 26.75" fill="#1c1105" fill-rule="evenodd" stroke="none"/>
    </g>
    <g id="sprite2" transform="matrix(1.0, 0.0, 0.0, 1.0, 0.0, 0.0)">
      <use height="78.7" transform="matrix(1.0, 0.0, 0.0, 1.0, 0.0, 0.0)" width="20.75" xlink:href="#shape5"/>
    </g>
    <g id="shape5" transform="matrix(1.0, 0.0, 0.0, 1.0, 0.0, 0.0)">
      <path d="M10.25 2.15 Q11.45 1.2 13.9 0.0 L14.15 4.7 14.15 9.35 Q14.1 10.8 13.05 15.7 12.2 19.7 12.55 22.05 L14.25 19.25 Q15.3 17.45 16.35 17.0 L14.45 20.75 17.5 16.95 Q19.35 14.35 20.75 14.2 20.25 15.6 18.6 17.95 16.95 20.25 16.4 21.8 15.85 23.6 15.2 31.3 14.6 38.6 14.7 41.15 L15.4 54.5 16.0 67.65 Q15.2 68.1 14.0 69.95 12.9 71.75 11.95 72.1 L11.9 71.95 Q9.35 75.0 5.65 77.1 1.9 79.2 0.0 78.55 0.25 76.45 2.05 72.4 2.4 73.35 3.05 74.05 L4.1 66.7 Q5.7 69.6 7.45 70.55 8.0 68.65 7.5 65.85 L6.2 61.15 Q6.35 62.3 5.95 63.35 L5.15 47.55 Q4.7 35.45 5.75 32.2 4.85 23.9 6.65 22.8 L7.1 23.8 7.55 24.75 7.15 15.4 Q6.9 8.1 7.55 6.0 8.2 3.8 10.25 2.15" fill="#1c1105" fill-rule="evenodd" stroke="none"/>
    </g>
    <g id="shape6" transform="matrix(1.0, 0.0, 0.0, 1.0, -4.05, -26.8)">
      <path d="M41.6 32.75 Q37.1 32.5 35.2 31.75 L39.1 32.5 Q39.5 31.7 42.55 31.85 L46.7 32.05 50.35 31.05 54.55 30.55 56.05 30.35 53.25 31.35 48.0 32.7 Q45.65 33.05 41.6 32.75" fill="#8c6a44" fill-rule="evenodd" stroke="none"/>
      <path d="M70.05 39.75 Q71.2 40.3 72.1 37.7 72.55 39.3 72.3 40.4 71.95 41.7 70.85 40.9 70.4 40.6 70.05 39.75 M71.15 35.0 Q70.25 33.9 70.0 36.1 L69.8 39.05 69.45 37.15 Q69.0 33.95 70.45 34.0 L71.15 35.0" fill="#99744a" fill-rule="evenodd" stroke="none"/>
      <path d="M70.35 36.25 Q70.55 35.55 70.9 35.65 L71.4 36.4 Q71.85 38.3 70.25 37.85 70.0 37.2 70.25 36.5 L70.35 36.25" fill="#99744a" fill-rule="evenodd" stroke="none"/>
      <path d="M69.35 33.4 L69.2 33.6 Q69.5 31.4 71.0 33.0 72.5 34.5 72.25 36.1 71.55 32.65 69.35 33.4" fill="#99744a" fill-rule="evenodd" stroke="none"/>
      <path d="M13.3 60.15 L13.45 59.75 12.5 87.35 Q12.05 91.65 11.65 102.15 L9.15 101.6 Q8.35 97.1 7.2 94.6 6.5 93.1 5.25 91.7 L4.15 90.6 Q3.9 89.95 4.45 88.65 4.8 87.8 5.3 87.6 L5.7 87.5 8.2 89.95 8.65 89.4 Q9.0 88.55 8.75 87.1 8.45 85.65 10.55 73.7 12.6 62.1 13.3 60.15" fill="#7e4e18" fill-rule="evenodd" stroke="none"/>
      <path d="M11.65 92.2 L10.95 103.05 9.15 101.6 Q8.6 98.4 7.5 96.15 L5.4 92.6 4.15 90.6 Q5.4 90.45 5.85 89.85 6.1 89.45 6.75 90.3 L8.05 92.55 10.25 97.1 11.65 92.2" fill="#704515" fill-rule="evenodd" stroke="none"/>
      <path d="M12.4 79.55 Q11.45 86.05 10.8 87.35 9.85 89.45 8.2 89.95 8.2 87.75 8.45 86.2 L11.5 69.45 11.5 70.4 11.1 72.3 Q10.75 73.15 10.55 78.85 L10.4 84.4 13.2 73.35 12.4 79.55" fill="#704515" fill-rule="evenodd" stroke="none"/>
      <path d="M11.95 40.05 L13.45 45.3 Q13.9 46.65 14.85 54.05 L12.5 46.8 Q11.95 45.3 11.9 42.5 L11.95 40.05" fill="#593711" fill-rule="evenodd" stroke="none"/>
      <path d="M12.7 49.3 L14.55 58.2 Q14.75 59.45 14.2 64.0 L13.05 70.65 Q12.2 73.35 10.7 83.9 10.95 74.65 11.4 73.35 L12.8 66.6 Q13.9 60.7 13.75 59.25 L12.7 49.3" fill="#8c571b" fill-rule="evenodd" stroke="none"/>
      <path d="M5.7 87.5 L8.2 89.95 8.6 92.45 5.7 89.15 5.7 87.5" fill="#8c571b" fill-rule="evenodd" stroke="none"/>
      <path d="M13.2 83.9 L13.1 85.75 Q13.0 87.75 13.2 88.65 13.45 90.1 12.05 93.85 L11.4 89.3 Q11.2 88.25 12.0 86.0 12.8 83.9 13.2 83.9" fill="#704515" fill-rule="evenodd" stroke="none"/>
      <path d="M12.75 84.75 L13.05 86.1 13.2 88.65 12.5 92.7 Q11.95 90.6 12.2 89.3 L12.6 86.55 12.75 84.75" fill="#593711" fill-rule="evenodd" stroke="none"/>
      <path d="M41.05 52.2 L42.0 58.2 Q42.3 60.25 41.2 69.85 L40.75 59.35 41.05 52.2" fill="#593711" fill-rule="evenodd" stroke="none"/>
      <path d="M40.9 34.05 L42.15 34.15 39.8 42.45 40.9 34.05" fill="#593711" fill-rule="evenodd" stroke="none"/>
      <path d="M44.25 83.9 L45.6 88.65 Q46.15 90.45 45.85 93.95 43.8 91.25 43.4 89.6 43.1 88.35 43.45 86.1 43.8 84.0 44.25 83.9" fill="#593711" fill-rule="evenodd" stroke="none"/>
      <path d="M44.25 83.9 L45.6 88.65 Q45.9 89.95 45.85 93.95 45.05 91.75 45.05 89.95 L44.65 86.2 44.25 83.9" fill="#8c571b" fill-rule="evenodd" stroke="none"/>
      <path d="M30.9 109.65 L28.85 109.3 31.35 103.95 30.9 109.65" fill="#593711" fill-rule="evenodd" stroke="none"/>
      <path d="M34.55 33.65 L36.75 33.8 34.65 37.8 34.55 33.65" fill="#593711" fill-rule="evenodd" stroke="none"/>
      <path d="M22.6 39.75 L23.0 38.5 24.0 41.85 24.25 43.95 24.95 47.8 Q25.5 50.15 25.95 57.0 25.25 55.1 25.25 54.05 L24.3 49.85 23.0 45.5 Q22.75 44.65 22.65 42.15 L22.6 39.75" fill="#593711" fill-rule="evenodd" stroke="none"/>
      <path d="M36.35 32.6 L29.2 32.6 20.55 32.25 Q18.2 31.85 13.05 29.75 L10.55 28.05 9.3 26.8 12.55 28.55 Q16.5 30.45 19.7 30.8 L36.35 32.6" fill="#b06d22" fill-rule="evenodd" stroke="none"/>
      <path d="M25.95 32.85 L28.0 32.75 26.9 36.9 25.95 32.85" fill="#593711" fill-rule="evenodd" stroke="none"/>
      <path d="M32.75 52.6 L32.4 54.15 Q32.05 55.95 32.15 57.25 32.35 59.35 31.8 63.7 L31.05 58.3 Q30.95 57.2 31.85 54.8 L32.75 52.6" fill="#593711" fill-rule="evenodd" stroke="none"/>
    </g>
    <g id="sprite3" transform="matrix(1.0, 0.0, 0.0, 1.0, 0.0, 0.0)">
      <use height="76.0" transform="matrix(1.0, 0.0, 0.0, 1.0, 0.0, 0.0)" width="16.05" xlink:href="#shape7"/>
    </g>
    <g id="shape7" transform="matrix(1.0, 0.0, 0.0, 1.0, 0.0, 0.0)">
      <path d="M13.3 10.45 L14.7 18.0 Q15.55 21.75 15.9 29.55 16.2 36.6 15.9 41.4 L15.5 37.15 Q14.95 34.1 14.3 33.6 12.7 37.55 13.25 51.55 13.7 63.8 14.85 69.6 L15.75 74.75 Q15.7 76.6 13.2 75.7 L8.6 73.95 Q5.6 72.55 4.55 70.9 L4.85 70.85 3.35 66.25 1.35 62.9 0.0 60.9 Q-0.05 60.1 0.3 59.0 0.5 58.35 1.05 58.05 L1.55 57.9 4.05 60.25 Q4.85 57.85 5.0 55.5 L6.95 43.45 8.7 33.15 Q8.75 30.4 7.75 25.95 6.6 21.0 6.45 18.8 5.65 6.1 4.8 2.05 L4.75 0.35 Q4.95 -0.6 7.55 0.95 L10.1 2.7 10.3 2.55 11.45 3.65 Q12.2 4.6 13.3 10.45" fill="#1c1105" fill-rule="evenodd" stroke="none"/>
    </g>
    <g id="sprite4" transform="matrix(1.0, 0.0, 0.0, 1.0, 0.0, 0.0)">
      <use height="74.85" transform="matrix(1.0, 0.0, 0.0, 1.0, 0.0, 0.0)" width="15.7" xlink:href="#shape8"/>
    </g>
    <g id="shape8" transform="matrix(1.0, 0.0, 0.0, 1.0, 0.0, 0.0)">
      <path d="M15.7 0.0 Q15.8 2.85 14.55 11.3 13.3 19.35 13.6 22.3 L13.2 19.5 Q12.95 17.8 13.05 16.6 12.3 18.3 12.25 20.95 L12.2 25.6 10.8 38.35 Q10.6 40.65 10.9 46.35 11.2 51.95 11.6 54.15 L12.1 58.5 12.55 62.9 14.05 68.05 Q15.2 71.75 15.0 72.85 14.75 74.3 12.7 74.7 11.25 75.0 9.4 74.75 L5.6 74.1 Q2.7 73.45 2.3 72.85 1.75 72.0 1.65 68.55 L1.4 63.85 0.65 65.25 0.0 66.75 Q0.1 57.1 1.2 50.5 L1.95 43.25 2.8 36.0 Q4.0 29.75 5.3 18.3 6.7 5.95 6.7 0.4 L6.55 0.15 10.6 0.4 Q14.0 0.9 15.7 0.0" fill="#ffffff" fill-rule="evenodd" stroke="none"/>
    </g>
    <g id="shape9" transform="matrix(1.0, 0.0, 0.0, 1.0, 0.0, -17.0)">
      <path d="M17.7 29.7 L23.0 32.85 24.15 55.4 21.95 42.85 17.7 29.7" fill="#593711" fill-rule="evenodd" stroke="none"/>
      <path d="M0.0 93.45 L6.05 92.05 7.5 92.8 7.05 93.65 Q6.3 94.5 4.95 94.9 3.4 95.35 0.5 94.0 L0.0 93.45" fill="#3f5511" fill-rule="evenodd" stroke="none"/>
      <path d="M7.4 92.55 Q6.3 94.05 4.8 94.45 3.25 94.9 0.0 93.45 3.1 91.1 4.95 90.7 6.1 90.45 6.85 91.5 L7.4 92.55" fill="#586715" fill-rule="evenodd" stroke="none"/>
      <path d="M6.7 91.25 L7.3 91.9 Q7.5 92.4 7.1 92.9 6.5 93.7 4.25 94.25 5.7 93.2 5.9 92.55 L3.6 92.7 1.2 93.35 Q2.7 92.45 3.7 92.15 L5.0 91.9 6.0 91.65 Q6.5 91.3 5.2 90.85 L4.95 90.7 6.7 91.25" fill="#3f5511" fill-rule="evenodd" stroke="none"/>
      <path d="M2.1 93.4 L3.7 93.0 5.0 93.05 4.2 93.75 3.35 93.9 2.1 93.4" fill="#668510" fill-rule="evenodd" stroke="none"/>
      <path d="M2.45 92.35 L3.25 91.6 Q4.1 90.95 4.5 91.1 5.15 91.35 4.85 91.45 L3.9 91.7 2.45 92.35" fill="#668510" fill-rule="evenodd" stroke="none"/>
      <path d="M73.7 55.9 L73.15 56.5 Q69.95 57.95 68.25 57.45 66.75 57.05 65.95 56.05 L65.45 55.2 67.05 54.35 73.7 55.9" fill="#3f5511" fill-rule="evenodd" stroke="none"/>
      <path d="M65.6 54.85 L66.15 53.75 Q66.95 52.6 68.25 52.9 70.25 53.3 73.7 55.9 70.1 57.4 68.45 57.0 L66.4 55.75 65.6 54.85" fill="#586715" fill-rule="evenodd" stroke="none"/>
      <path d="M67.95 53.0 L67.3 53.3 Q66.75 53.7 67.1 53.9 L68.15 54.2 69.6 54.45 Q70.75 54.75 72.35 55.8 L69.75 55.05 67.25 54.85 Q67.4 55.6 69.05 56.8 66.55 56.1 65.85 55.3 65.4 54.7 65.65 54.15 65.85 53.75 66.35 53.45 L68.25 52.9 67.95 53.0" fill="#3f5511" fill-rule="evenodd" stroke="none"/>
      <path d="M71.4 55.85 L69.95 56.3 69.1 56.15 68.2 55.45 Q67.95 55.1 69.65 55.45 L71.4 55.85" fill="#668510" fill-rule="evenodd" stroke="none"/>
      <path d="M71.0 54.6 L69.4 54.0 68.4 53.7 Q68.05 53.55 68.75 53.3 69.45 53.0 71.0 54.6" fill="#668510" fill-rule="evenodd" stroke="none"/>
      <path d="M74.6 47.85 L74.55 48.85 73.35 51.05 Q71.85 53.25 70.45 53.85 68.55 54.6 66.85 54.3 L65.5 53.85 66.35 51.65 74.6 47.85" fill="#3f5511" fill-rule="evenodd" stroke="none"/>
      <path d="M65.35 53.4 Q64.95 52.7 64.85 51.75 64.65 49.95 66.2 49.2 68.65 47.95 74.6 47.85 72.35 52.35 70.2 53.25 68.9 53.85 67.0 53.7 L65.35 53.4" fill="#586715" fill-rule="evenodd" stroke="none"/>
      <path d="M66.2 49.2 L65.7 50.4 Q65.45 51.2 66.0 51.15 L67.3 50.6 69.05 49.7 Q70.5 49.1 73.1 48.8 71.35 49.45 69.7 50.2 66.45 51.65 67.0 52.0 67.9 52.7 70.65 52.55 67.45 53.9 66.05 53.55 65.05 53.4 64.75 52.65 64.55 52.0 64.8 51.35 L65.6 50.0 66.2 49.2" fill="#3f5511" fill-rule="evenodd" stroke="none"/>
      <path d="M72.15 49.65 L71.2 51.35 Q70.95 51.7 70.15 51.85 69.3 52.05 68.55 51.85 67.95 51.65 70.0 50.6 71.0 50.1 72.15 49.65" fill="#668510" fill-rule="evenodd" stroke="none"/>
      <path d="M70.65 48.75 L68.4 49.4 67.1 49.95 Q66.7 50.1 67.1 49.2 67.4 48.65 69.05 48.65 L70.65 48.75" fill="#668510" fill-rule="evenodd" stroke="none"/>
      <path d="M51.25 26.05 Q52.05 23.95 51.1 23.5 L50.8 22.75 50.25 23.4 51.1 23.5 Q51.2 24.45 50.5 25.75 L48.55 28.15 Q50.25 28.95 51.25 26.05 M27.7 34.6 L27.75 34.45 Q32.9 35.55 38.75 35.4 45.1 35.2 51.2 33.45 55.85 32.1 58.4 29.6 60.25 27.8 59.65 25.65 59.1 23.7 57.1 22.75 L57.25 23.05 Q58.4 23.65 58.7 25.6 59.0 27.55 58.15 28.8 57.65 29.5 55.65 30.25 L52.95 31.1 Q45.95 33.5 38.05 34.05 L31.15 33.65 25.05 32.6 25.25 32.2 24.0 32.1 23.9 32.45 Q20.55 31.9 16.35 29.4 10.7 26.05 12.7 22.8 11.4 23.2 11.55 24.9 11.75 26.3 12.65 27.65 13.5 28.95 14.85 29.7 L17.2 30.85 Q21.4 32.75 26.35 34.05 L27.45 34.35 27.35 34.5 27.3 34.5 27.3 34.6 25.55 36.8 24.45 34.6 24.0 42.95 23.95 42.4 23.9 42.15 22.9 34.0 22.85 33.6 23.05 33.75 23.3 36.9 23.4 37.8 23.8 38.55 Q24.1 37.5 23.85 35.8 23.6 34.25 23.05 33.75 L23.0 33.15 22.8 33.5 21.95 33.25 Q18.7 32.3 16.4 31.2 11.25 28.75 10.75 25.5 10.25 22.4 17.95 20.15 25.1 18.15 35.3 17.85 45.8 17.55 53.1 19.35 61.3 21.4 61.65 25.5 62.0 28.9 55.95 31.85 L53.8 32.8 52.65 33.25 Q49.05 34.5 44.75 35.05 L41.65 35.4 36.3 35.5 33.65 35.4 33.2 35.35 33.0 35.35 31.4 35.15 27.7 34.6 M57.55 24.8 L57.35 24.2 Q56.95 22.5 54.5 21.65 57.65 25.0 53.7 27.6 50.8 29.5 48.0 29.75 L41.75 31.0 35.5 31.35 29.95 30.15 24.45 28.95 18.6 28.3 17.4 28.05 Q19.35 29.55 22.45 30.15 L23.1 30.3 22.4 30.55 Q23.3 31.05 24.7 31.25 L28.25 31.35 32.75 32.55 36.95 33.0 40.8 33.0 45.75 32.3 50.3 31.55 Q52.8 31.0 54.7 29.5 L55.45 28.85 54.2 30.45 Q55.4 30.75 57.0 27.75 58.25 25.45 57.55 24.8 M40.2 26.55 L39.5 27.1 41.85 26.75 Q43.1 26.2 43.85 24.75 L42.85 24.35 41.95 25.1 36.55 25.85 30.85 25.45 Q31.3 24.55 32.55 24.05 32.05 24.6 31.7 25.5 32.65 23.9 34.9 23.8 L38.2 24.05 38.35 24.05 39.55 24.55 Q39.6 24.05 39.25 23.75 L40.5 24.0 Q39.65 23.25 37.9 23.1 L37.2 23.05 37.15 23.05 36.95 23.05 36.85 23.05 36.1 23.05 35.3 23.05 34.85 23.05 34.55 23.05 32.3 23.1 31.3 23.45 Q29.2 23.8 27.4 24.6 27.8 27.9 34.45 27.5 L40.2 26.55 M48.75 24.2 L49.0 24.05 48.65 24.05 48.2 24.05 48.55 24.45 Q44.35 27.65 39.1 28.2 L28.8 27.45 24.85 27.4 Q22.3 27.2 21.5 25.25 23.35 23.05 27.8 21.95 31.1 21.1 34.6 21.1 L41.55 21.55 Q46.0 22.15 48.3 23.3 44.35 19.9 35.0 19.9 31.75 19.9 27.35 21.3 22.9 22.65 19.9 24.6 20.25 27.35 26.4 28.45 L33.6 29.1 Q37.85 30.4 42.65 30.1 49.75 29.75 49.4 24.85 L48.75 24.2 M43.15 29.35 L43.7 29.2 44.75 29.0 43.15 29.35 M48.7 24.6 L48.55 24.45 48.7 24.35 48.7 24.6 M29.4 19.3 Q34.45 18.95 40.65 19.4 48.9 20.1 54.55 21.35 52.6 19.5 47.7 18.85 L40.5 18.2 36.75 18.3 32.8 18.65 28.7 19.1 Q27.25 18.9 25.35 19.55 L24.5 19.9 Q18.0 21.0 15.9 24.0 L14.25 24.55 15.55 24.55 Q15.2 25.05 15.15 25.6 L15.05 25.5 14.25 25.0 13.75 25.25 Q13.45 25.4 13.4 26.0 14.15 27.4 17.4 28.05 L16.25 27.05 Q16.15 25.7 16.9 24.65 16.65 25.5 17.25 26.45 L17.9 26.5 17.35 26.2 Q16.9 24.0 21.85 22.1 24.4 21.1 27.75 20.15 L26.2 20.15 26.25 20.1 28.3 20.05 Q29.6 20.1 30.25 19.65 L29.4 19.3 M15.95 24.0 L15.75 24.3 15.9 24.0 15.95 24.0 M33.55 24.75 Q33.95 25.55 35.1 25.5 36.2 25.45 36.8 24.75 L35.55 24.35 35.2 24.35 Q34.5 24.25 33.55 24.75" fill="#c49764" fill-rule="evenodd" stroke="none"/>
      <path d="M51.25 26.05 Q50.25 28.95 48.55 28.15 L50.5 25.75 Q51.2 24.45 51.1 23.5 L50.25 23.4 50.8 22.75 51.1 23.5 Q52.05 23.95 51.25 26.05 M27.35 34.5 L27.45 34.35 26.35 34.05 Q21.4 32.75 17.2 30.85 L14.85 29.7 Q13.5 28.95 12.65 27.65 11.75 26.3 11.55 24.9 11.4 23.2 12.7 22.8 10.7 26.05 16.35 29.4 20.55 31.9 23.9 32.45 L24.0 32.1 25.25 32.2 25.05 32.6 31.15 33.65 38.05 34.05 Q45.95 33.5 52.95 31.1 L55.65 30.25 Q57.65 29.5 58.15 28.8 59.0 27.55 58.7 25.6 58.4 23.65 57.25 23.05 L57.1 22.75 Q59.1 23.7 59.65 25.65 60.25 27.8 58.4 29.6 55.85 32.1 51.2 33.45 45.1 35.2 38.75 35.4 32.9 35.55 27.75 34.45 L27.7 34.6 27.5 34.95 27.3 34.95 26.85 36.15 26.9 35.25 26.35 36.15 25.5 38.1 24.9 36.95 24.8 40.05 24.6 41.65 24.25 42.45 24.15 42.7 24.1 42.75 24.0 42.95 24.45 34.6 25.55 36.8 27.3 34.6 27.35 34.5 M57.35 24.2 L56.55 23.4 56.55 24.05 Q56.8 26.55 54.45 27.95 53.6 28.45 50.8 29.2 47.25 30.15 42.1 32.8 46.55 32.05 52.55 30.1 54.1 29.6 56.15 27.4 L56.9 26.55 56.05 28.1 55.45 28.85 54.7 29.5 Q52.8 31.0 50.3 31.55 L45.75 32.3 40.8 33.0 36.95 33.0 37.3 32.85 32.2 31.85 27.25 30.3 Q24.75 29.75 23.1 30.3 L22.45 30.15 Q19.35 29.55 17.4 28.05 L18.6 28.3 24.45 28.95 29.95 30.15 35.5 31.35 41.75 31.0 48.0 29.75 Q50.8 29.5 53.7 27.6 57.65 25.0 54.5 21.65 56.95 22.5 57.35 24.2 M40.2 26.55 L34.45 27.5 Q27.8 27.9 27.4 24.6 29.2 23.8 31.3 23.45 30.3 23.9 29.8 24.75 30.1 25.9 30.75 26.0 L30.7 26.15 31.5 26.2 30.8 26.0 30.75 26.0 30.85 25.45 36.55 25.85 41.95 25.1 40.2 26.55 M33.6 29.1 L26.4 28.45 Q20.25 27.35 19.9 24.6 22.9 22.65 27.35 21.3 31.75 19.9 35.0 19.9 44.35 19.9 48.3 23.3 46.0 22.15 41.55 21.55 L34.6 21.1 Q31.1 21.1 27.8 21.95 23.35 23.05 21.5 25.25 22.3 27.2 24.85 27.4 L28.8 27.45 39.1 28.2 Q44.35 27.65 48.55 24.45 L48.2 24.05 48.65 24.05 49.0 24.05 48.75 24.2 48.65 24.05 48.7 24.35 48.55 24.45 48.7 24.6 48.8 25.45 48.35 26.4 48.1 25.0 47.9 26.0 Q47.0 27.5 45.1 28.1 42.65 28.8 42.05 29.25 L43.7 29.2 43.15 29.35 41.65 29.4 33.6 29.1 M28.7 19.1 L32.8 18.65 36.75 18.3 40.5 18.2 47.7 18.85 Q52.6 19.5 54.55 21.35 48.9 20.1 40.65 19.4 34.45 18.95 29.4 19.3 L28.7 19.1 M16.25 27.05 L17.4 28.05 Q14.15 27.4 13.4 26.0 13.45 25.4 13.75 25.25 L14.25 25.0 15.05 25.5 15.15 25.6 15.1 26.0 Q15.05 27.3 16.5 27.65 L16.25 27.45 16.25 27.05 M15.55 24.55 L14.25 24.55 15.9 24.0 Q18.0 21.0 24.5 19.9 L20.4 21.35 Q17.9 22.05 16.3 23.6 L15.95 24.0 15.9 24.0 15.75 24.3 15.7 24.35 15.55 24.55 M33.55 24.75 Q34.5 24.25 35.2 24.35 L35.55 24.35 36.8 24.75 Q36.2 25.45 35.1 25.5 33.95 25.55 33.55 24.75" fill="#99744a" fill-rule="evenodd" stroke="none"/>
      <path d="M22.8 33.5 L23.0 33.15 23.05 33.75 Q23.6 34.25 23.85 35.8 24.1 37.5 23.8 38.55 L23.4 37.8 23.3 36.9 23.05 33.75 22.85 33.6 22.75 33.55 22.8 33.5 M56.9 26.55 L57.3 24.95 56.95 24.55 57.45 24.7 57.55 24.8 Q58.25 25.45 57.0 27.75 55.4 30.75 54.2 30.45 L55.45 28.85 56.05 28.1 56.9 26.55 M57.3 24.95 L57.35 24.65 Q57.15 24.8 57.25 24.85 L57.3 24.95 M23.1 30.3 Q24.75 29.75 27.25 30.3 L32.2 31.85 37.3 32.85 36.95 33.0 32.75 32.55 28.25 31.35 24.7 31.25 Q23.3 31.05 22.4 30.55 L23.1 30.3 M41.95 25.1 L42.85 24.35 43.85 24.75 Q43.1 26.2 41.85 26.75 L39.5 27.1 40.2 26.55 41.95 25.1 M34.85 23.05 L35.3 23.05 36.1 23.05 36.85 23.05 36.95 23.05 37.2 23.1 38.15 23.25 39.25 23.75 Q39.6 24.05 39.55 24.55 L38.35 24.05 38.2 24.05 34.9 23.8 Q32.65 23.9 31.7 25.5 32.05 24.6 32.55 24.05 33.05 23.55 33.65 23.3 L33.8 23.25 34.85 23.05 M48.75 24.2 L49.4 24.85 Q49.75 29.75 42.65 30.1 37.85 30.4 33.6 29.1 L41.65 29.4 43.15 29.35 44.75 29.0 46.75 28.1 48.35 26.4 48.8 25.45 48.7 24.6 48.7 24.35 48.65 24.05 48.75 24.2 M26.2 20.15 L27.75 20.15 Q24.4 21.1 21.85 22.1 16.9 24.0 17.35 26.2 L17.9 26.5 17.25 26.45 Q16.65 25.5 16.9 24.65 L17.3 24.0 18.15 23.25 18.95 22.85 Q22.35 21.2 23.3 20.85 L25.7 20.2 26.05 20.15 26.15 20.15 26.2 20.15" fill="#d4a36c" fill-rule="evenodd" stroke="none"/>
      <path d="M24.6 41.65 L24.8 40.05 24.9 36.95 25.5 38.1 26.35 36.15 26.9 35.25 26.85 36.15 24.35 43.05 24.4 42.85 24.4 42.8 24.6 41.65 M52.65 33.25 L53.8 32.8 54.35 32.75 55.4 32.65 53.8 33.0 52.65 33.25 M57.55 24.8 L57.45 24.7 56.95 24.55 57.3 24.95 56.9 26.55 56.15 27.4 Q54.1 29.6 52.55 30.1 46.55 32.05 42.1 32.8 47.25 30.15 50.8 29.2 53.6 28.45 54.45 27.95 56.8 26.55 56.55 24.05 L56.55 23.4 57.35 24.2 57.55 24.8 M57.3 24.95 L57.25 24.85 Q57.15 24.8 57.35 24.65 L57.3 24.95 M31.3 23.45 L32.3 23.1 34.55 23.05 34.85 23.05 33.8 23.25 33.65 23.3 Q33.05 23.55 32.55 24.05 31.3 24.55 30.85 25.45 L30.75 26.0 30.8 26.0 31.5 26.2 30.7 26.15 30.75 26.0 Q30.1 25.9 29.8 24.75 30.3 23.9 31.3 23.45 M36.95 23.05 L37.15 23.05 37.2 23.05 37.9 23.1 Q39.65 23.25 40.5 24.0 L39.25 23.75 38.15 23.25 37.2 23.1 36.95 23.05 M43.7 29.2 L42.05 29.25 Q42.65 28.8 45.1 28.1 47.0 27.5 47.9 26.0 L48.1 25.0 48.35 26.4 46.75 28.1 44.75 29.0 43.7 29.2 M28.7 19.1 L29.4 19.3 30.25 19.65 Q29.6 20.1 28.3 20.05 L26.25 20.1 26.2 20.15 26.15 20.15 26.05 20.15 25.7 20.2 23.3 20.85 Q22.35 21.2 18.95 22.85 L18.15 23.25 17.3 24.0 16.9 24.65 Q16.15 25.7 16.25 27.05 L16.25 27.45 16.5 27.65 Q15.05 27.3 15.1 26.0 L15.15 25.6 Q15.2 25.05 15.55 24.55 L15.7 24.35 15.75 24.3 15.95 24.0 16.3 23.6 Q17.9 22.05 20.4 21.35 L24.5 19.9 25.35 19.55 Q27.25 18.9 28.7 19.1" fill="#8c6a44" fill-rule="evenodd" stroke="none"/>
      <path d="M26.85 36.15 L27.3 34.95 27.5 34.95 28.9 34.95 27.9 36.75 24.35 43.2 24.35 43.05 26.85 36.15 M31.4 35.15 L33.0 35.35 31.6 35.25 28.85 35.1 31.4 35.15 M36.3 35.5 L41.65 35.4 44.75 35.05 47.05 34.95 Q49.65 34.7 53.8 33.0 L55.4 32.65 54.35 32.75 56.3 31.9 61.55 29.2 60.65 30.0 59.15 31.6 56.65 33.2 Q54.65 34.05 51.35 34.8 L51.2 34.85 44.0 35.7 36.3 35.5 M9.15 25.8 Q10.25 29.25 11.7 30.45 L12.4 30.95 14.9 32.0 17.4 32.5 18.55 33.2 20.3 34.95 21.45 37.1 22.3 38.55 22.7 39.3 22.35 38.75 19.95 35.25 18.85 34.35 Q15.75 33.0 13.4 32.4 L12.75 32.2 10.2 31.75 Q8.45 31.25 8.45 28.0 L8.85 24.8 9.15 25.8" fill="#b06d22" fill-rule="evenodd" stroke="none"/>
      <path d="M27.35 34.5 L27.3 34.6 27.3 34.5 27.35 34.5 M27.5 34.95 L27.7 34.6 31.4 35.15 28.85 35.1 31.6 35.25 33.0 35.35 33.2 35.35 33.65 35.4 36.3 35.5 44.0 35.7 51.2 34.85 Q44.9 36.55 36.95 36.95 32.1 37.1 27.9 36.75 L28.9 34.95 27.5 34.95 M44.75 35.05 Q49.05 34.5 52.65 33.25 L53.8 33.0 Q49.65 34.7 47.05 34.95 L44.75 35.05 M53.8 32.8 L55.95 31.85 Q62.0 28.9 61.65 25.5 61.3 21.4 53.1 19.35 45.8 17.55 35.3 17.85 25.1 18.15 17.95 20.15 10.25 22.4 10.75 25.5 11.25 28.75 16.4 31.2 L12.4 30.95 11.7 30.45 Q10.25 29.25 9.15 25.8 8.9 21.95 17.05 19.45 24.7 17.1 35.8 17.0 47.15 16.8 54.8 19.0 63.45 21.45 63.35 25.9 63.25 29.05 59.15 31.6 L60.65 30.0 61.55 29.2 56.3 31.9 54.35 32.75 53.8 32.8 M19.95 35.25 L18.5 34.8 Q15.5 33.8 13.4 32.4 15.75 33.0 18.85 34.35 L19.95 35.25" fill="#945c1d" fill-rule="evenodd" stroke="none"/>
      <path d="M24.1 42.75 L24.15 42.7 24.35 43.15 24.1 42.75 M24.25 42.45 L24.6 41.65 24.4 42.8 24.4 42.85 24.35 43.05 24.35 43.2 24.25 42.45 M16.4 31.2 Q18.7 32.3 21.95 33.25 L22.8 33.5 22.75 33.55 22.85 33.6 22.9 34.0 18.3 32.85 18.55 33.2 17.4 32.5 14.9 32.0 12.4 30.95 16.4 31.2 M23.9 42.15 L23.95 42.4 22.35 38.75 22.7 39.3 22.3 38.55 21.9 37.7 22.25 38.1 23.9 42.15" fill="#9c5f10" fill-rule="evenodd" stroke="none"/>
      <path d="M24.15 42.7 L24.25 42.45 24.35 43.2 24.35 43.15 24.15 42.7 M22.9 34.0 L23.9 42.15 22.25 38.1 21.9 37.7 21.45 37.1 20.3 34.95 18.55 33.2 18.3 32.85 22.9 34.0" fill="#593711" fill-rule="evenodd" stroke="none"/>
    </g>
  </defs>
</svg>
