<?xml version="1.0" encoding="UTF-8" standalone="no"?>
<svg xmlns:xlink="http://www.w3.org/1999/xlink" height="300.0px" width="500.0px" xmlns="http://www.w3.org/2000/svg">
  <g transform="matrix(1.0, 0.0, 0.0, 1.0, 0.0, 0.0)">
    <use height="300.0" transform="matrix(1.0, 0.0, 0.0, 1.0, 0.0, 0.0)" width="500.0" xlink:href="#shape0"/>
  </g>
  <defs>
    <g id="shape0" transform="matrix(1.0, 0.0, 0.0, 1.0, 0.0, 0.0)">
      <path d="M500.0 200.0 L0.0 200.0 0.0 100.0 500.0 100.0 500.0 200.0" fill="#aba254" fill-rule="evenodd" stroke="none"/>
      <path d="M46.2 190.7 L41.9 184.75 37.3 190.5 41.9 181.7 46.2 190.7" fill="#918b4b" fill-rule="evenodd" stroke="none"/>
      <path d="M76.25 178.7 L71.1 171.55 65.55 178.45 71.1 167.85 76.25 178.7" fill="#918b4b" fill-rule="evenodd" stroke="none"/>
      <path d="M106.9 181.9 L102.85 176.25 98.45 181.7 102.85 173.35 106.9 181.9" fill="#918b4b" fill-rule="evenodd" stroke="none"/>
      <path d="M139.4 183.8 L134.95 177.6 130.1 183.65 134.95 174.4 139.4 183.8" fill="#918b4b" fill-rule="evenodd" stroke="none"/>
      <path d="M158.8 167.75 L153.55 174.25 158.8 164.3 163.6 174.45 158.8 167.75" fill="#918b4b" fill-rule="evenodd" stroke="none"/>
      <path d="M197.2 182.45 L194.35 178.5 191.3 182.35 194.35 176.45 197.2 182.45" fill="#918b4b" fill-rule="evenodd" stroke="none"/>
      <path d="M230.25 174.4 L225.5 167.8 220.4 174.2 225.5 164.4 230.25 174.4" fill="#918b4b" fill-rule="evenodd" stroke="none"/>
      <path d="M256.85 187.1 L252.25 180.75 247.3 186.9 252.25 177.45 256.85 187.1" fill="#918b4b" fill-rule="evenodd" stroke="none"/>
      <path d="M278.7 179.75 L273.45 172.5 267.75 179.55 273.45 168.7 278.7 179.75" fill="#918b4b" fill-rule="evenodd" stroke="none"/>
      <path d="M320.2 179.7 L316.1 174.0 311.65 179.5 316.1 171.05 320.2 179.7" fill="#918b4b" fill-rule="evenodd" stroke="none"/>
      <path d="M352.75 190.1 L347.65 182.95 342.05 189.85 347.65 179.3 352.75 190.1" fill="#918b4b" fill-rule="evenodd" stroke="none"/>
      <path d="M382.45 193.6 L379.5 189.5 376.3 193.45 379.5 187.4 382.45 193.6" fill="#918b4b" fill-rule="evenodd" stroke="none"/>
      <path d="M404.95 181.15 L402.3 177.45 399.4 181.0 402.3 175.55 404.95 181.15" fill="#918b4b" fill-rule="evenodd" stroke="none"/>
      <path d="M438.35 185.2 L433.0 177.75 427.15 185.0 433.0 173.9 438.35 185.2" fill="#918b4b" fill-rule="evenodd" stroke="none"/>
      <path d="M471.45 177.0 L465.85 169.25 459.8 176.75 465.85 165.25 471.45 177.0" fill="#918b4b" fill-rule="evenodd" stroke="none"/>
      <path d="M496.4 189.95 L491.65 183.35 486.5 189.7 491.65 179.95 496.4 189.95" fill="#918b4b" fill-rule="evenodd" stroke="none"/>
      <path d="M227.85 194.4 L222.5 187.0 216.65 194.2 222.5 183.15 227.85 194.4" fill="#918b4b" fill-rule="evenodd" stroke="none"/>
      <path d="M456.35 194.25 L453.3 190.0 449.95 194.15 453.3 187.8 456.35 194.25" fill="#918b4b" fill-rule="evenodd" stroke="none"/>
      <path d="M169.7 193.25 L164.45 186.0 158.8 193.0 164.45 182.25 169.7 193.25" fill="#918b4b" fill-rule="evenodd" stroke="none"/>
      <path d="M497.4 160.5 L494.5 156.45 491.3 160.35 494.5 154.35 497.4 160.5" fill="#918b4b" fill-rule="evenodd" stroke="none"/>
      <path d="M467.7 155.7 L465.05 152.05 462.2 155.6 465.05 150.2 467.7 155.7" fill="#918b4b" fill-rule="evenodd" stroke="none"/>
      <path d="M438.45 165.3 L433.9 159.0 428.95 165.1 433.9 155.7 438.45 165.3" fill="#918b4b" fill-rule="evenodd" stroke="none"/>
      <path d="M400.95 161.6 L396.35 155.15 391.3 161.4 396.35 151.85 400.95 161.6" fill="#918b4b" fill-rule="evenodd" stroke="none"/>
      <path d="M371.25 162.7 L367.8 157.85 364.05 162.55 367.8 155.4 371.25 162.7" fill="#918b4b" fill-rule="evenodd" stroke="none"/>
      <path d="M347.15 168.2 L344.5 164.5 341.6 168.1 344.5 162.6 347.15 168.2" fill="#918b4b" fill-rule="evenodd" stroke="none"/>
      <path d="M321.3 154.0 L318.3 157.7 321.3 152.05 324.05 157.8 321.3 154.0" fill="#918b4b" fill-rule="evenodd" stroke="none"/>
      <path d="M294.7 167.85 L291.3 163.1 287.55 167.7 291.3 160.65 294.7 167.85" fill="#918b4b" fill-rule="evenodd" stroke="none"/>
      <path d="M262.65 157.15 L259.5 152.7 256.05 157.0 259.5 150.45 262.65 157.15" fill="#918b4b" fill-rule="evenodd" stroke="none"/>
      <path d="M218.55 116.1 L215.4 111.65 211.95 115.95 215.4 109.4 218.55 116.1" fill="#918b4b" fill-rule="evenodd" stroke="none"/>
      <path d="M234.1 154.75 L229.1 147.85 223.7 154.55 229.1 144.25 234.1 154.75" fill="#918b4b" fill-rule="evenodd" stroke="none"/>
      <path d="M199.2 158.1 L193.5 165.15 199.2 154.3 204.45 165.4 199.2 158.1" fill="#918b4b" fill-rule="evenodd" stroke="none"/>
      <path d="M179.35 163.15 L174.8 156.8 169.85 162.95 174.8 153.5 179.35 163.15" fill="#918b4b" fill-rule="evenodd" stroke="none"/>
      <path d="M145.55 160.5 L142.15 155.75 138.4 160.35 142.15 153.3 145.55 160.5" fill="#918b4b" fill-rule="evenodd" stroke="none"/>
      <path d="M491.1 111.25 L487.65 106.45 483.95 111.1 487.65 104.0 491.1 111.25" fill="#918b4b" fill-rule="evenodd" stroke="none"/>
      <path d="M113.15 153.6 L108.4 147.0 103.25 153.4 108.4 143.55 113.15 153.6" fill="#918b4b" fill-rule="evenodd" stroke="none"/>
      <path d="M79.3 151.55 L76.0 155.6 79.3 149.4 82.3 155.75 79.3 151.55" fill="#918b4b" fill-rule="evenodd" stroke="none"/>
      <path d="M13.7 168.1 L10.65 163.95 7.4 168.0 10.65 161.75 13.7 168.1" fill="#918b4b" fill-rule="evenodd" stroke="none"/>
      <path d="M57.85 162.25 L52.35 154.6 46.4 162.0 52.35 150.65 57.85 162.25" fill="#918b4b" fill-rule="evenodd" stroke="none"/>
      <path d="M32.7 157.25 L28.5 151.45 23.95 157.1 28.5 148.45 32.7 157.25" fill="#918b4b" fill-rule="evenodd" stroke="none"/>
      <path d="M19.25 138.45 L14.9 132.35 10.15 138.25 14.9 129.25 19.25 138.45" fill="#918b4b" fill-rule="evenodd" stroke="none"/>
      <path d="M38.45 127.2 L33.2 133.75 38.45 123.75 43.3 133.95 38.45 127.2" fill="#918b4b" fill-rule="evenodd" stroke="none"/>
      <path d="M72.2 143.2 L66.5 135.25 60.3 142.95 66.5 131.15 72.2 143.2" fill="#918b4b" fill-rule="evenodd" stroke="none"/>
      <path d="M100.4 135.65 L96.7 130.5 92.65 135.5 96.7 127.8 100.4 135.65" fill="#918b4b" fill-rule="evenodd" stroke="none"/>
      <path d="M130.65 121.1 L127.4 116.6 123.9 121.0 127.4 114.3 130.65 121.1" fill="#918b4b" fill-rule="evenodd" stroke="none"/>
      <path d="M151.2 145.45 L148.0 141.0 144.55 145.3 148.0 138.7 151.2 145.45" fill="#918b4b" fill-rule="evenodd" stroke="none"/>
      <path d="M194.0 147.75 L191.3 144.0 188.35 147.6 191.3 142.05 194.0 147.75" fill="#918b4b" fill-rule="evenodd" stroke="none"/>
      <path d="M173.95 138.75 L171.25 135.0 168.35 138.6 171.25 133.05 173.95 138.75" fill="#918b4b" fill-rule="evenodd" stroke="none"/>
      <path d="M20.2 195.25 L17.5 191.5 14.6 195.15 17.5 189.6 20.2 195.25" fill="#918b4b" fill-rule="evenodd" stroke="none"/>
      <path d="M230.05 131.2 L226.0 125.55 221.55 131.0 226.0 122.6 230.05 131.2" fill="#918b4b" fill-rule="evenodd" stroke="none"/>
      <path d="M256.6 145.3 L251.65 138.4 246.25 145.1 251.65 134.85 256.6 145.3" fill="#918b4b" fill-rule="evenodd" stroke="none"/>
      <path d="M288.5 146.95 L284.95 141.95 281.05 146.8 284.95 139.4 288.5 146.95" fill="#918b4b" fill-rule="evenodd" stroke="none"/>
      <path d="M315.45 146.7 L310.55 139.85 305.2 146.45 310.55 136.35 315.45 146.7" fill="#918b4b" fill-rule="evenodd" stroke="none"/>
      <path d="M347.2 144.55 L344.2 140.45 341.0 144.45 344.2 138.3 347.2 144.55" fill="#918b4b" fill-rule="evenodd" stroke="none"/>
      <path d="M380.1 138.45 L375.4 131.9 370.25 138.2 375.4 128.5 380.1 138.45" fill="#918b4b" fill-rule="evenodd" stroke="none"/>
      <path d="M403.3 138.3 L397.6 145.4 403.3 134.55 408.55 145.6 403.3 138.3" fill="#918b4b" fill-rule="evenodd" stroke="none"/>
      <path d="M427.8 143.8 L424.2 148.35 427.8 141.4 431.15 148.5 427.8 143.8" fill="#918b4b" fill-rule="evenodd" stroke="none"/>
      <path d="M456.15 147.7 L452.8 143.0 449.1 147.55 452.8 140.6 456.15 147.7" fill="#918b4b" fill-rule="evenodd" stroke="none"/>
      <path d="M490.5 146.9 L486.2 140.9 481.5 146.7 486.2 137.8 490.5 146.9" fill="#918b4b" fill-rule="evenodd" stroke="none"/>
      <path d="M30.25 116.95 L24.5 108.95 18.25 116.7 24.5 104.85 30.25 116.95" fill="#918b4b" fill-rule="evenodd" stroke="none"/>
      <path d="M458.9 112.95 L455.35 108.0 451.45 112.8 455.35 105.4 458.9 112.95" fill="#918b4b" fill-rule="evenodd" stroke="none"/>
      <path d="M302.4 195.85 L297.45 189.0 292.1 195.65 297.45 185.45 302.4 195.85" fill="#918b4b" fill-rule="evenodd" stroke="none"/>
      <path d="M89.35 192.25 L86.3 188.0 82.95 192.1 86.3 185.8 89.35 192.25" fill="#918b4b" fill-rule="evenodd" stroke="none"/>
      <path d="M482.1 124.45 L477.4 117.9 472.25 124.25 477.4 114.5 482.1 124.45" fill="#918b4b" fill-rule="evenodd" stroke="none"/>
      <path d="M449.85 128.8 L446.75 124.45 443.35 128.65 446.75 122.25 449.85 128.8" fill="#918b4b" fill-rule="evenodd" stroke="none"/>
      <path d="M424.85 118.15 L421.5 113.5 417.9 118.0 421.5 111.1 424.85 118.15" fill="#918b4b" fill-rule="evenodd" stroke="none"/>
      <path d="M398.3 117.45 L395.5 113.5 392.45 117.3 395.5 111.5 398.3 117.45" fill="#918b4b" fill-rule="evenodd" stroke="none"/>
      <path d="M370.9 116.85 L365.55 109.35 359.65 116.65 365.55 105.5 370.9 116.85" fill="#918b4b" fill-rule="evenodd" stroke="none"/>
      <path d="M338.95 121.9 L333.55 114.35 327.65 121.7 333.55 110.5 338.95 121.9" fill="#918b4b" fill-rule="evenodd" stroke="none"/>
      <path d="M303.65 119.5 L298.5 112.4 292.95 119.3 298.5 108.7 303.65 119.5" fill="#918b4b" fill-rule="evenodd" stroke="none"/>
      <path d="M277.5 127.3 L272.5 120.4 267.15 127.1 272.5 116.85 277.5 127.3" fill="#918b4b" fill-rule="evenodd" stroke="none"/>
      <path d="M253.4 125.85 L247.7 117.85 241.45 125.6 247.7 113.75 253.4 125.85" fill="#918b4b" fill-rule="evenodd" stroke="none"/>
      <path d="M213.85 140.05 L209.95 134.6 205.7 139.85 209.95 131.8 213.85 140.05" fill="#918b4b" fill-rule="evenodd" stroke="none"/>
      <path d="M195.05 123.75 L189.7 116.3 183.85 123.55 189.7 112.4 195.05 123.75" fill="#918b4b" fill-rule="evenodd" stroke="none"/>
      <path d="M160.2 120.35 L157.1 115.95 153.7 120.2 157.1 113.7 160.2 120.35" fill="#918b4b" fill-rule="evenodd" stroke="none"/>
      <path d="M140.25 135.55 L136.1 129.75 131.55 135.35 136.1 126.75 140.25 135.55" fill="#918b4b" fill-rule="evenodd" stroke="none"/>
      <path d="M106.55 119.1 L103.3 114.6 99.8 118.95 103.3 112.25 106.55 119.1" fill="#918b4b" fill-rule="evenodd" stroke="none"/>
      <path d="M77.15 119.2 L71.55 111.35 65.4 118.95 71.55 107.3 77.15 119.2" fill="#918b4b" fill-rule="evenodd" stroke="none"/>
      <path d="M48.55 123.3 L45.05 118.5 41.3 123.15 45.05 116.0 48.55 123.3" fill="#918b4b" fill-rule="evenodd" stroke="none"/>
      <path d="M14.3 126.05 L10.75 121.1 6.85 125.9 10.75 118.55 14.3 126.05" fill="#918b4b" fill-rule="evenodd" stroke="none"/>
      <path d="M500.0 300.0 L0.0 300.0 0.0 200.0 500.0 200.0 500.0 300.0" fill="#aba254" fill-rule="evenodd" stroke="none"/>
      <path d="M46.2 290.7 L41.9 284.75 37.3 290.5 41.9 281.7 46.2 290.7" fill="#918b4b" fill-rule="evenodd" stroke="none"/>
      <path d="M76.25 278.7 L71.1 271.55 65.55 278.45 71.1 267.85 76.25 278.7" fill="#918b4b" fill-rule="evenodd" stroke="none"/>
      <path d="M106.9 281.9 L102.85 276.25 98.45 281.7 102.85 273.35 106.9 281.9" fill="#918b4b" fill-rule="evenodd" stroke="none"/>
      <path d="M139.4 283.8 L134.95 277.6 130.1 283.65 134.95 274.4 139.4 283.8" fill="#918b4b" fill-rule="evenodd" stroke="none"/>
      <path d="M158.8 267.75 L153.55 274.25 158.8 264.3 163.6 274.45 158.8 267.75" fill="#918b4b" fill-rule="evenodd" stroke="none"/>
      <path d="M197.2 282.45 L194.35 278.5 191.3 282.35 194.35 276.45 197.2 282.45" fill="#918b4b" fill-rule="evenodd" stroke="none"/>
      <path d="M230.25 274.4 L225.5 267.8 220.4 274.2 225.5 264.4 230.25 274.4" fill="#918b4b" fill-rule="evenodd" stroke="none"/>
      <path d="M256.85 287.1 L252.25 280.75 247.3 286.9 252.25 277.45 256.85 287.1" fill="#918b4b" fill-rule="evenodd" stroke="none"/>
      <path d="M278.7 279.75 L273.45 272.5 267.75 279.55 273.45 268.7 278.7 279.75" fill="#918b4b" fill-rule="evenodd" stroke="none"/>
      <path d="M320.2 279.7 L316.1 274.0 311.65 279.5 316.1 271.05 320.2 279.7" fill="#918b4b" fill-rule="evenodd" stroke="none"/>
      <path d="M352.75 290.1 L347.65 282.95 342.05 289.85 347.65 279.3 352.75 290.1" fill="#918b4b" fill-rule="evenodd" stroke="none"/>
      <path d="M382.45 293.6 L379.5 289.5 376.3 293.45 379.5 287.4 382.45 293.6" fill="#918b4b" fill-rule="evenodd" stroke="none"/>
      <path d="M404.95 281.15 L402.3 277.45 399.4 281.0 402.3 275.55 404.95 281.15" fill="#918b4b" fill-rule="evenodd" stroke="none"/>
      <path d="M438.35 285.2 L433.0 277.75 427.15 285.0 433.0 273.9 438.35 285.2" fill="#918b4b" fill-rule="evenodd" stroke="none"/>
      <path d="M471.45 277.0 L465.85 269.25 459.8 276.75 465.85 265.25 471.45 277.0" fill="#918b4b" fill-rule="evenodd" stroke="none"/>
      <path d="M496.4 289.95 L491.65 283.35 486.5 289.7 491.65 279.95 496.4 289.95" fill="#918b4b" fill-rule="evenodd" stroke="none"/>
      <path d="M227.85 294.4 L222.5 287.0 216.65 294.2 222.5 283.15 227.85 294.4" fill="#918b4b" fill-rule="evenodd" stroke="none"/>
      <path d="M456.35 294.25 L453.3 290.0 449.95 294.15 453.3 287.8 456.35 294.25" fill="#918b4b" fill-rule="evenodd" stroke="none"/>
      <path d="M169.7 293.25 L164.45 286.0 158.8 293.0 164.45 282.25 169.7 293.25" fill="#918b4b" fill-rule="evenodd" stroke="none"/>
      <path d="M497.4 260.5 L494.5 256.45 491.3 260.35 494.5 254.35 497.4 260.5" fill="#918b4b" fill-rule="evenodd" stroke="none"/>
      <path d="M467.7 255.7 L465.05 252.05 462.2 255.6 465.05 250.2 467.7 255.7" fill="#918b4b" fill-rule="evenodd" stroke="none"/>
      <path d="M438.45 265.3 L433.9 259.0 428.95 265.1 433.9 255.7 438.45 265.3" fill="#918b4b" fill-rule="evenodd" stroke="none"/>
      <path d="M400.95 261.6 L396.35 255.15 391.3 261.4 396.35 251.85 400.95 261.6" fill="#918b4b" fill-rule="evenodd" stroke="none"/>
      <path d="M371.25 262.7 L367.8 257.85 364.05 262.55 367.8 255.4 371.25 262.7" fill="#918b4b" fill-rule="evenodd" stroke="none"/>
      <path d="M347.15 268.2 L344.5 264.5 341.6 268.1 344.5 262.6 347.15 268.2" fill="#918b4b" fill-rule="evenodd" stroke="none"/>
      <path d="M321.3 254.0 L318.3 257.7 321.3 252.05 324.05 257.8 321.3 254.0" fill="#918b4b" fill-rule="evenodd" stroke="none"/>
      <path d="M294.7 267.85 L291.3 263.1 287.55 267.7 291.3 260.65 294.7 267.85" fill="#918b4b" fill-rule="evenodd" stroke="none"/>
      <path d="M262.65 257.15 L259.5 252.7 256.05 257.0 259.5 250.45 262.65 257.15" fill="#918b4b" fill-rule="evenodd" stroke="none"/>
      <path d="M218.55 216.1 L215.4 211.65 211.95 215.95 215.4 209.4 218.55 216.1" fill="#918b4b" fill-rule="evenodd" stroke="none"/>
      <path d="M234.1 254.75 L229.1 247.85 223.7 254.55 229.1 244.25 234.1 254.75" fill="#918b4b" fill-rule="evenodd" stroke="none"/>
      <path d="M199.2 258.1 L193.5 265.15 199.2 254.3 204.45 265.4 199.2 258.1" fill="#918b4b" fill-rule="evenodd" stroke="none"/>
      <path d="M179.35 263.15 L174.8 256.8 169.85 262.95 174.8 253.5 179.35 263.15" fill="#918b4b" fill-rule="evenodd" stroke="none"/>
      <path d="M145.55 260.5 L142.15 255.75 138.4 260.35 142.15 253.3 145.55 260.5" fill="#918b4b" fill-rule="evenodd" stroke="none"/>
      <path d="M491.1 211.25 L487.65 206.45 483.95 211.1 487.65 204.0 491.1 211.25" fill="#918b4b" fill-rule="evenodd" stroke="none"/>
      <path d="M113.15 253.6 L108.4 247.0 103.25 253.4 108.4 243.55 113.15 253.6" fill="#918b4b" fill-rule="evenodd" stroke="none"/>
      <path d="M79.3 251.55 L76.0 255.6 79.3 249.4 82.3 255.75 79.3 251.55" fill="#918b4b" fill-rule="evenodd" stroke="none"/>
      <path d="M13.7 268.1 L10.65 263.95 7.4 268.0 10.65 261.75 13.7 268.1" fill="#918b4b" fill-rule="evenodd" stroke="none"/>
      <path d="M57.85 262.25 L52.35 254.6 46.4 262.0 52.35 250.65 57.85 262.25" fill="#918b4b" fill-rule="evenodd" stroke="none"/>
      <path d="M32.7 257.25 L28.5 251.45 23.95 257.1 28.5 248.45 32.7 257.25" fill="#918b4b" fill-rule="evenodd" stroke="none"/>
      <path d="M19.25 238.45 L14.9 232.35 10.15 238.25 14.9 229.25 19.25 238.45" fill="#918b4b" fill-rule="evenodd" stroke="none"/>
      <path d="M38.45 227.2 L33.2 233.75 38.45 223.75 43.3 233.95 38.45 227.2" fill="#918b4b" fill-rule="evenodd" stroke="none"/>
      <path d="M72.2 243.2 L66.5 235.25 60.3 242.95 66.5 231.15 72.2 243.2" fill="#918b4b" fill-rule="evenodd" stroke="none"/>
      <path d="M100.4 235.65 L96.7 230.5 92.65 235.5 96.7 227.8 100.4 235.65" fill="#918b4b" fill-rule="evenodd" stroke="none"/>
      <path d="M130.65 221.1 L127.4 216.6 123.9 221.0 127.4 214.3 130.65 221.1" fill="#918b4b" fill-rule="evenodd" stroke="none"/>
      <path d="M151.2 245.45 L148.0 241.0 144.55 245.3 148.0 238.7 151.2 245.45" fill="#918b4b" fill-rule="evenodd" stroke="none"/>
      <path d="M194.0 247.75 L191.3 244.0 188.35 247.6 191.3 242.05 194.0 247.75" fill="#918b4b" fill-rule="evenodd" stroke="none"/>
      <path d="M173.95 238.75 L171.25 235.0 168.35 238.6 171.25 233.05 173.95 238.75" fill="#918b4b" fill-rule="evenodd" stroke="none"/>
      <path d="M20.2 295.25 L17.5 291.5 14.6 295.15 17.5 289.6 20.2 295.25" fill="#918b4b" fill-rule="evenodd" stroke="none"/>
      <path d="M230.05 231.2 L226.0 225.55 221.55 231.0 226.0 222.6 230.05 231.2" fill="#918b4b" fill-rule="evenodd" stroke="none"/>
      <path d="M256.6 245.3 L251.65 238.4 246.25 245.1 251.65 234.85 256.6 245.3" fill="#918b4b" fill-rule="evenodd" stroke="none"/>
      <path d="M288.5 246.95 L284.95 241.95 281.05 246.8 284.95 239.4 288.5 246.95" fill="#918b4b" fill-rule="evenodd" stroke="none"/>
      <path d="M315.45 246.7 L310.55 239.85 305.2 246.45 310.55 236.35 315.45 246.7" fill="#918b4b" fill-rule="evenodd" stroke="none"/>
      <path d="M347.2 244.55 L344.2 240.45 341.0 244.45 344.2 238.3 347.2 244.55" fill="#918b4b" fill-rule="evenodd" stroke="none"/>
      <path d="M380.1 238.45 L375.4 231.9 370.25 238.2 375.4 228.5 380.1 238.45" fill="#918b4b" fill-rule="evenodd" stroke="none"/>
      <path d="M403.3 238.3 L397.6 245.4 403.3 234.55 408.55 245.6 403.3 238.3" fill="#918b4b" fill-rule="evenodd" stroke="none"/>
      <path d="M431.15 248.5 L427.8 243.8 424.2 248.35 427.8 241.4 431.15 248.5" fill="#918b4b" fill-rule="evenodd" stroke="none"/>
      <path d="M456.15 247.7 L452.8 243.0 449.1 247.55 452.8 240.6 456.15 247.7" fill="#918b4b" fill-rule="evenodd" stroke="none"/>
      <path d="M490.5 246.9 L486.2 240.9 481.5 246.7 486.2 237.8 490.5 246.9" fill="#918b4b" fill-rule="evenodd" stroke="none"/>
      <path d="M30.25 216.95 L24.5 208.95 18.25 216.7 24.5 204.85 30.25 216.95" fill="#918b4b" fill-rule="evenodd" stroke="none"/>
      <path d="M458.9 212.95 L455.35 208.0 451.45 212.8 455.35 205.4 458.9 212.95" fill="#918b4b" fill-rule="evenodd" stroke="none"/>
      <path d="M302.4 295.85 L297.45 289.0 292.1 295.65 297.45 285.45 302.4 295.85" fill="#918b4b" fill-rule="evenodd" stroke="none"/>
      <path d="M89.35 292.25 L86.3 288.0 82.95 292.1 86.3 285.8 89.35 292.25" fill="#918b4b" fill-rule="evenodd" stroke="none"/>
      <path d="M482.1 224.45 L477.4 217.9 472.25 224.25 477.4 214.5 482.1 224.45" fill="#918b4b" fill-rule="evenodd" stroke="none"/>
      <path d="M449.85 228.8 L446.75 224.45 443.35 228.65 446.75 222.25 449.85 228.8" fill="#918b4b" fill-rule="evenodd" stroke="none"/>
      <path d="M424.85 218.15 L421.5 213.5 417.9 218.0 421.5 211.1 424.85 218.15" fill="#918b4b" fill-rule="evenodd" stroke="none"/>
      <path d="M398.3 217.45 L395.5 213.5 392.45 217.3 395.5 211.5 398.3 217.45" fill="#918b4b" fill-rule="evenodd" stroke="none"/>
      <path d="M370.9 216.85 L365.55 209.35 359.65 216.65 365.55 205.5 370.9 216.85" fill="#918b4b" fill-rule="evenodd" stroke="none"/>
      <path d="M338.95 221.9 L333.55 214.35 327.65 221.7 333.55 210.5 338.95 221.9" fill="#918b4b" fill-rule="evenodd" stroke="none"/>
      <path d="M303.65 219.5 L298.5 212.4 292.95 219.3 298.5 208.7 303.65 219.5" fill="#918b4b" fill-rule="evenodd" stroke="none"/>
      <path d="M277.5 227.3 L272.5 220.4 267.15 227.1 272.5 216.85 277.5 227.3" fill="#918b4b" fill-rule="evenodd" stroke="none"/>
      <path d="M253.4 225.85 L247.7 217.85 241.45 225.6 247.7 213.75 253.4 225.85" fill="#918b4b" fill-rule="evenodd" stroke="none"/>
      <path d="M213.85 240.05 L209.95 234.6 205.7 239.85 209.95 231.8 213.85 240.05" fill="#918b4b" fill-rule="evenodd" stroke="none"/>
      <path d="M195.05 223.75 L189.7 216.3 183.85 223.55 189.7 212.4 195.05 223.75" fill="#918b4b" fill-rule="evenodd" stroke="none"/>
      <path d="M160.2 220.35 L157.1 215.95 153.7 220.2 157.1 213.7 160.2 220.35" fill="#918b4b" fill-rule="evenodd" stroke="none"/>
      <path d="M140.25 235.55 L136.1 229.75 131.55 235.35 136.1 226.75 140.25 235.55" fill="#918b4b" fill-rule="evenodd" stroke="none"/>
      <path d="M106.55 219.1 L103.3 214.6 99.8 218.95 103.3 212.25 106.55 219.1" fill="#918b4b" fill-rule="evenodd" stroke="none"/>
      <path d="M77.15 219.2 L71.55 211.35 65.4 218.95 71.55 207.3 77.15 219.2" fill="#918b4b" fill-rule="evenodd" stroke="none"/>
      <path d="M48.55 223.3 L45.05 218.5 41.3 223.15 45.05 216.0 48.55 223.3" fill="#918b4b" fill-rule="evenodd" stroke="none"/>
      <path d="M14.3 226.05 L10.75 221.1 6.85 225.9 10.75 218.55 14.3 226.05" fill="#918b4b" fill-rule="evenodd" stroke="none"/>
      <path d="M500.0 100.0 L0.0 100.0 0.0 0.0 500.0 0.0 500.0 100.0" fill="#aba254" fill-rule="evenodd" stroke="none"/>
      <path d="M46.2 90.7 L41.9 84.75 37.3 90.5 41.9 81.7 46.2 90.7" fill="#918b4b" fill-rule="evenodd" stroke="none"/>
      <path d="M76.25 78.7 L71.1 71.55 65.55 78.45 71.1 67.85 76.25 78.7" fill="#918b4b" fill-rule="evenodd" stroke="none"/>
      <path d="M106.9 81.9 L102.85 76.25 98.45 81.7 102.85 73.35 106.9 81.9" fill="#918b4b" fill-rule="evenodd" stroke="none"/>
      <path d="M139.4 83.8 L134.95 77.6 130.1 83.65 134.95 74.4 139.4 83.8" fill="#918b4b" fill-rule="evenodd" stroke="none"/>
      <path d="M158.8 67.75 L153.55 74.25 158.8 64.3 163.6 74.45 158.8 67.75" fill="#918b4b" fill-rule="evenodd" stroke="none"/>
      <path d="M197.2 82.45 L194.35 78.5 191.3 82.35 194.35 76.45 197.2 82.45" fill="#918b4b" fill-rule="evenodd" stroke="none"/>
      <path d="M230.25 74.4 L225.5 67.8 220.4 74.2 225.5 64.4 230.25 74.4" fill="#918b4b" fill-rule="evenodd" stroke="none"/>
      <path d="M256.85 87.1 L252.25 80.75 247.3 86.9 252.25 77.45 256.85 87.1" fill="#918b4b" fill-rule="evenodd" stroke="none"/>
      <path d="M278.7 79.75 L273.45 72.5 267.75 79.55 273.45 68.7 278.7 79.75" fill="#918b4b" fill-rule="evenodd" stroke="none"/>
      <path d="M320.2 79.7 L316.1 74.0 311.65 79.5 316.1 71.05 320.2 79.7" fill="#918b4b" fill-rule="evenodd" stroke="none"/>
      <path d="M352.75 90.1 L347.65 82.95 342.05 89.85 347.65 79.3 352.75 90.1" fill="#918b4b" fill-rule="evenodd" stroke="none"/>
      <path d="M382.45 93.6 L379.5 89.5 376.3 93.45 379.5 87.4 382.45 93.6" fill="#918b4b" fill-rule="evenodd" stroke="none"/>
      <path d="M404.95 81.15 L402.3 77.45 399.4 81.0 402.3 75.55 404.95 81.15" fill="#918b4b" fill-rule="evenodd" stroke="none"/>
      <path d="M438.35 85.2 L433.0 77.75 427.15 85.0 433.0 73.9 438.35 85.2" fill="#918b4b" fill-rule="evenodd" stroke="none"/>
      <path d="M471.45 77.0 L465.85 69.25 459.8 76.75 465.85 65.25 471.45 77.0" fill="#918b4b" fill-rule="evenodd" stroke="none"/>
      <path d="M496.4 89.95 L491.65 83.35 486.5 89.75 491.65 79.95 496.4 89.95" fill="#918b4b" fill-rule="evenodd" stroke="none"/>
      <path d="M227.85 94.4 L222.5 87.0 216.65 94.2 222.5 83.15 227.85 94.4" fill="#918b4b" fill-rule="evenodd" stroke="none"/>
      <path d="M456.35 94.25 L453.3 90.0 449.95 94.15 453.3 87.8 456.35 94.25" fill="#918b4b" fill-rule="evenodd" stroke="none"/>
      <path d="M169.7 93.25 L164.45 86.0 158.8 93.0 164.45 82.25 169.7 93.25" fill="#918b4b" fill-rule="evenodd" stroke="none"/>
      <path d="M497.4 60.5 L494.5 56.45 491.3 60.35 494.5 54.35 497.4 60.5" fill="#918b4b" fill-rule="evenodd" stroke="none"/>
      <path d="M467.7 55.7 L465.05 52.05 462.2 55.6 465.05 50.2 467.7 55.7" fill="#918b4b" fill-rule="evenodd" stroke="none"/>
      <path d="M438.45 65.3 L433.9 59.0 428.95 65.1 433.9 55.7 438.45 65.3" fill="#918b4b" fill-rule="evenodd" stroke="none"/>
      <path d="M400.95 61.6 L396.35 55.15 391.3 61.4 396.35 51.85 400.95 61.6" fill="#918b4b" fill-rule="evenodd" stroke="none"/>
      <path d="M371.25 62.7 L367.8 57.85 364.05 62.55 367.8 55.4 371.25 62.7" fill="#918b4b" fill-rule="evenodd" stroke="none"/>
      <path d="M347.15 68.2 L344.5 64.5 341.6 68.1 344.5 62.6 347.15 68.2" fill="#918b4b" fill-rule="evenodd" stroke="none"/>
      <path d="M321.3 54.0 L318.3 57.7 321.3 52.05 324.05 57.8 321.3 54.0" fill="#918b4b" fill-rule="evenodd" stroke="none"/>
      <path d="M294.7 67.85 L291.3 63.1 287.55 67.7 291.3 60.65 294.7 67.85" fill="#918b4b" fill-rule="evenodd" stroke="none"/>
      <path d="M262.65 57.15 L259.5 52.7 256.05 57.0 259.5 50.45 262.65 57.15" fill="#918b4b" fill-rule="evenodd" stroke="none"/>
      <path d="M218.55 16.1 L215.4 11.65 211.95 15.95 215.4 9.4 218.55 16.1" fill="#918b4b" fill-rule="evenodd" stroke="none"/>
      <path d="M234.1 54.75 L229.1 47.85 223.7 54.55 229.1 44.25 234.1 54.75" fill="#918b4b" fill-rule="evenodd" stroke="none"/>
      <path d="M199.2 58.1 L193.5 65.15 199.2 54.3 204.45 65.4 199.2 58.1" fill="#918b4b" fill-rule="evenodd" stroke="none"/>
      <path d="M179.35 63.15 L174.8 56.8 169.85 62.95 174.8 53.5 179.35 63.15" fill="#918b4b" fill-rule="evenodd" stroke="none"/>
      <path d="M145.55 60.5 L142.15 55.75 138.4 60.35 142.15 53.3 145.55 60.5" fill="#918b4b" fill-rule="evenodd" stroke="none"/>
      <path d="M491.1 11.25 L487.65 6.45 483.95 11.1 487.65 4.0 491.1 11.25" fill="#918b4b" fill-rule="evenodd" stroke="none"/>
      <path d="M113.15 53.6 L108.4 47.0 103.25 53.4 108.4 43.55 113.15 53.6" fill="#918b4b" fill-rule="evenodd" stroke="none"/>
      <path d="M79.3 51.55 L76.0 55.6 79.3 49.4 82.3 55.75 79.3 51.55" fill="#918b4b" fill-rule="evenodd" stroke="none"/>
      <path d="M13.7 68.1 L10.65 63.95 7.4 68.0 10.65 61.75 13.7 68.1" fill="#918b4b" fill-rule="evenodd" stroke="none"/>
      <path d="M57.85 62.25 L52.35 54.6 46.4 62.0 52.35 50.65 57.85 62.25" fill="#918b4b" fill-rule="evenodd" stroke="none"/>
      <path d="M32.7 57.25 L28.5 51.45 23.95 57.1 28.5 48.45 32.7 57.25" fill="#918b4b" fill-rule="evenodd" stroke="none"/>
      <path d="M19.25 38.45 L14.9 32.35 10.15 38.25 14.9 29.25 19.25 38.45" fill="#918b4b" fill-rule="evenodd" stroke="none"/>
      <path d="M38.45 27.2 L33.2 33.75 38.45 23.75 43.3 33.95 38.45 27.2" fill="#918b4b" fill-rule="evenodd" stroke="none"/>
      <path d="M72.2 43.2 L66.5 35.25 60.3 42.95 66.5 31.15 72.2 43.2" fill="#918b4b" fill-rule="evenodd" stroke="none"/>
      <path d="M100.4 35.65 L96.7 30.5 92.65 35.5 96.7 27.8 100.4 35.65" fill="#918b4b" fill-rule="evenodd" stroke="none"/>
      <path d="M130.65 21.1 L127.4 16.6 123.9 21.0 127.4 14.3 130.65 21.1" fill="#918b4b" fill-rule="evenodd" stroke="none"/>
      <path d="M151.2 45.45 L148.0 41.0 144.55 45.3 148.0 38.7 151.2 45.45" fill="#918b4b" fill-rule="evenodd" stroke="none"/>
      <path d="M194.0 47.75 L191.3 44.0 188.35 47.6 191.3 42.05 194.0 47.75" fill="#918b4b" fill-rule="evenodd" stroke="none"/>
      <path d="M173.95 38.75 L171.25 35.0 168.35 38.6 171.25 33.05 173.95 38.75" fill="#918b4b" fill-rule="evenodd" stroke="none"/>
      <path d="M20.2 95.25 L17.5 91.5 14.6 95.15 17.5 89.6 20.2 95.25" fill="#918b4b" fill-rule="evenodd" stroke="none"/>
      <path d="M230.05 31.2 L226.0 25.55 221.55 31.0 226.0 22.6 230.05 31.2" fill="#918b4b" fill-rule="evenodd" stroke="none"/>
      <path d="M256.6 45.3 L251.65 38.4 246.25 45.1 251.65 34.85 256.6 45.3" fill="#918b4b" fill-rule="evenodd" stroke="none"/>
      <path d="M288.5 46.95 L284.95 41.95 281.05 46.8 284.95 39.4 288.5 46.95" fill="#918b4b" fill-rule="evenodd" stroke="none"/>
      <path d="M315.45 46.7 L310.55 39.85 305.2 46.45 310.55 36.35 315.45 46.7" fill="#918b4b" fill-rule="evenodd" stroke="none"/>
      <path d="M347.2 44.55 L344.2 40.45 341.0 44.45 344.2 38.3 347.2 44.55" fill="#918b4b" fill-rule="evenodd" stroke="none"/>
      <path d="M380.1 38.45 L375.4 31.9 370.25 38.2 375.4 28.5 380.1 38.45" fill="#918b4b" fill-rule="evenodd" stroke="none"/>
      <path d="M403.3 38.3 L397.6 45.4 403.3 34.55 408.55 45.6 403.3 38.3" fill="#918b4b" fill-rule="evenodd" stroke="none"/>
      <path d="M431.15 48.5 L427.8 43.8 424.2 48.35 427.8 41.4 431.15 48.5" fill="#918b4b" fill-rule="evenodd" stroke="none"/>
      <path d="M456.15 47.7 L452.8 43.0 449.1 47.55 452.8 40.6 456.15 47.7" fill="#918b4b" fill-rule="evenodd" stroke="none"/>
      <path d="M490.5 46.9 L486.2 40.9 481.5 46.7 486.2 37.8 490.5 46.9" fill="#918b4b" fill-rule="evenodd" stroke="none"/>
      <path d="M30.25 16.95 L24.5 8.95 18.25 16.7 24.5 4.85 30.25 16.95" fill="#918b4b" fill-rule="evenodd" stroke="none"/>
      <path d="M458.9 12.95 L455.35 8.0 451.45 12.8 455.35 5.4 458.9 12.95" fill="#918b4b" fill-rule="evenodd" stroke="none"/>
      <path d="M302.4 95.85 L297.45 89.0 292.1 95.65 297.45 85.45 302.4 95.85" fill="#918b4b" fill-rule="evenodd" stroke="none"/>
      <path d="M89.35 92.25 L86.3 88.0 82.95 92.1 86.3 85.8 89.35 92.25" fill="#918b4b" fill-rule="evenodd" stroke="none"/>
      <path d="M482.1 24.45 L477.4 17.9 472.25 24.25 477.4 14.5 482.1 24.45" fill="#918b4b" fill-rule="evenodd" stroke="none"/>
      <path d="M449.85 28.8 L446.75 24.45 443.35 28.65 446.75 22.25 449.85 28.8" fill="#918b4b" fill-rule="evenodd" stroke="none"/>
      <path d="M424.85 18.15 L421.5 13.5 417.9 18.0 421.5 11.1 424.85 18.15" fill="#918b4b" fill-rule="evenodd" stroke="none"/>
      <path d="M398.3 17.45 L395.5 13.5 392.45 17.3 395.5 11.5 398.3 17.45" fill="#918b4b" fill-rule="evenodd" stroke="none"/>
      <path d="M370.9 16.85 L365.55 9.35 359.65 16.65 365.55 5.5 370.9 16.85" fill="#918b4b" fill-rule="evenodd" stroke="none"/>
      <path d="M338.95 21.9 L333.55 14.35 327.65 21.7 333.55 10.5 338.95 21.9" fill="#918b4b" fill-rule="evenodd" stroke="none"/>
      <path d="M303.65 19.5 L298.5 12.4 292.95 19.3 298.5 8.7 303.65 19.5" fill="#918b4b" fill-rule="evenodd" stroke="none"/>
      <path d="M277.5 27.3 L272.5 20.4 267.15 27.1 272.5 16.85 277.5 27.3" fill="#918b4b" fill-rule="evenodd" stroke="none"/>
      <path d="M253.4 25.85 L247.7 17.85 241.45 25.6 247.7 13.75 253.4 25.85" fill="#918b4b" fill-rule="evenodd" stroke="none"/>
      <path d="M213.85 40.05 L209.95 34.6 205.7 39.85 209.95 31.8 213.85 40.05" fill="#918b4b" fill-rule="evenodd" stroke="none"/>
      <path d="M195.05 23.75 L189.7 16.3 183.85 23.55 189.7 12.4 195.05 23.75" fill="#918b4b" fill-rule="evenodd" stroke="none"/>
      <path d="M160.2 20.35 L157.1 15.95 153.7 20.2 157.1 13.7 160.2 20.35" fill="#918b4b" fill-rule="evenodd" stroke="none"/>
      <path d="M140.25 35.55 L136.1 29.75 131.55 35.35 136.1 26.75 140.25 35.55" fill="#918b4b" fill-rule="evenodd" stroke="none"/>
      <path d="M106.55 19.1 L103.3 14.6 99.8 18.95 103.3 12.25 106.55 19.1" fill="#918b4b" fill-rule="evenodd" stroke="none"/>
      <path d="M77.15 19.2 L71.55 11.35 65.4 18.95 71.55 7.3 77.15 19.2" fill="#918b4b" fill-rule="evenodd" stroke="none"/>
      <path d="M48.55 23.3 L45.05 18.5 41.3 23.15 45.05 16.0 48.55 23.3" fill="#918b4b" fill-rule="evenodd" stroke="none"/>
      <path d="M14.3 26.05 L10.75 21.1 6.85 25.9 10.75 18.55 14.3 26.05" fill="#918b4b" fill-rule="evenodd" stroke="none"/>
    </g>
  </defs>
</svg>
