<?xml version="1.0" encoding="UTF-8" standalone="no"?>
<svg xmlns:xlink="http://www.w3.org/1999/xlink" height="183.0px" width="243.0px" xmlns="http://www.w3.org/2000/svg">
  <g transform="matrix(1.0, 0.0, 0.0, 1.0, 0.0, 0.0)">
    <use height="136.2" transform="matrix(1.0, 0.0, 0.0, 1.0, 3.75, 73.3)" width="233.05" xlink:href="#sprite0"/>
    <use height="0.0" id="price_tag_pt" transform="matrix(1.0, 0.0, 0.0, 1.0, 121.65, 204.5)" width="0.0" xlink:href="#sprite2"/>
  </g>
  <defs>
    <g id="sprite0" transform="matrix(1.0, 0.0, 0.0, 1.0, 0.0, 0.0)">
      <use height="90.95" transform="matrix(1.0, 0.0, 0.0, 1.0, 24.4, 0.0)" width="180.25" xlink:href="#shape0"/>
      <use height="39.65" transform="matrix(0.8698, 0.0, 0.0, 0.8698, -0.02, 101.7333)" width="265.05" xlink:href="#sprite1"/>
      <use height="123.6" transform="matrix(1.0, 0.0, 0.0, 1.0, 0.0, 11.6)" width="233.05" xlink:href="#shape2"/>
    </g>
    <g id="shape0" transform="matrix(1.0, 0.0, 0.0, 1.0, -24.4, 0.0)">
      <path d="M186.1 7.15 L188.55 4.3 Q189.45 3.65 191.2 3.1 L195.7 2.0 204.65 0.0 203.5 2.5 203.3 2.55 202.55 2.7 198.0 3.8 193.45 4.75 188.95 5.85 Q186.95 6.5 186.1 7.15 M42.05 47.65 L44.6 46.65 Q45.15 47.85 46.2 49.25 49.1 53.2 51.85 53.2 L53.45 52.75 Q52.2 55.95 49.85 55.95 47.1 55.95 44.2 52.0 L42.65 49.45 Q42.2 48.5 42.05 47.65 M51.9 34.45 L55.2 30.25 Q56.8 29.0 65.5 25.25 L66.45 24.85 76.95 20.05 76.7 20.45 73.9 24.75 73.85 24.45 Q70.6 25.75 65.5 28.0 L63.4 28.9 54.95 32.7 Q52.45 33.95 51.9 34.45 M103.45 28.4 L108.35 28.55 108.85 29.25 Q111.75 33.5 115.85 37.2 127.95 47.85 144.45 47.85 L147.05 47.55 148.65 46.95 148.25 48.0 148.15 48.2 Q147.4 49.7 146.0 50.6 144.2 51.65 141.45 51.65 124.95 51.65 112.85 41.0 108.75 37.3 105.85 33.05 103.7 29.9 103.45 28.4 M149.6 40.35 L151.35 36.95 Q156.05 34.2 158.5 31.4 161.95 27.45 162.8 23.4 L162.95 22.3 163.05 23.2 163.05 24.7 Q163.05 30.15 158.5 35.4 155.55 38.8 152.25 39.85 L149.8 40.35 149.6 40.35 M122.2 14.6 L142.2 15.5 147.25 15.75 145.35 19.2 139.65 18.1 122.2 14.6 M162.35 10.35 L162.75 10.1 Q167.25 11.8 172.8 11.8 182.6 11.8 186.35 10.25 L186.8 10.05 Q186.5 12.0 184.2 13.0 180.95 14.35 173.15 14.55 L170.65 14.55 Q164.8 14.55 160.1 12.65 L159.45 13.1 162.35 10.35" fill="#5d5851" fill-rule="evenodd" stroke="none"/>
      <path d="M203.3 2.55 Q201.8 3.1 198.3 5.9 194.4 9.05 193.95 10.95 L193.9 11.4 Q193.9 12.15 194.2 13.15 192.75 16.45 185.25 21.5 178.1 25.75 175.95 27.15 178.85 25.8 185.4 24.05 190.85 22.05 196.9 18.25 L197.7 19.6 Q194.25 21.7 189.5 23.65 183.15 26.25 176.75 27.7 171.3 28.9 165.8 29.25 176.6 26.1 179.8 24.0 184.95 20.7 188.15 17.9 190.25 16.05 191.6 15.55 L191.2 15.6 Q180.05 19.15 177.6 19.7 L177.7 19.5 Q182.7 18.8 188.4 14.95 192.8 11.95 198.0 3.8 L202.55 2.7 203.3 2.55 M187.25 40.15 L187.25 41.3 Q187.25 42.3 191.35 47.85 L192.0 48.7 Q184.8 50.8 179.35 51.8 L170.6 52.6 168.35 52.25 Q169.35 51.65 173.3 50.2 178.45 48.3 181.9 45.45 184.45 43.4 187.25 40.15 M195.0 52.05 Q197.7 54.65 200.75 56.05 L201.15 59.3 195.75 60.4 Q175.45 64.35 159.15 65.9 L145.05 66.65 142.9 66.1 Q139.6 65.2 138.95 64.75 L138.95 64.45 139.9 64.45 142.15 64.95 144.25 65.2 149.8 65.15 161.75 62.95 162.2 62.85 Q167.15 61.85 167.6 61.3 L167.6 60.9 Q167.65 60.65 168.2 60.45 169.95 59.85 174.5 54.9 L175.8 53.5 191.7 52.4 195.0 52.05 M142.65 83.85 L110.0 84.45 Q90.2 84.9 68.7 87.0 75.05 82.85 79.1 80.45 L86.15 76.1 86.15 76.15 Q86.75 75.85 87.8 75.55 L89.45 75.25 Q90.6 75.25 97.65 77.2 105.8 79.15 112.6 79.15 119.15 79.15 130.35 76.75 L132.35 76.3 Q141.7 74.2 160.55 68.95 L159.45 68.5 161.3 68.5 Q165.45 69.45 187.05 71.5 184.4 73.9 180.25 75.5 172.3 78.6 155.05 81.75 L142.65 83.85 M59.6 87.95 L36.3 90.95 35.9 90.0 Q33.7 85.3 27.8 85.3 L27.0 81.45 27.25 81.45 Q31.8 81.45 35.9 80.1 45.7 76.85 50.3 75.6 L35.9 82.85 Q34.8 83.4 34.25 83.7 L35.9 83.65 42.95 83.2 43.9 83.35 43.7 85.1 Q43.7 85.75 44.05 85.95 L45.35 86.2 Q46.95 86.2 52.8 84.2 L65.5 79.8 67.7 79.0 Q77.2 75.65 88.75 69.55 L81.3 74.25 68.75 81.6 65.5 83.6 Q61.7 86.05 59.6 87.95 M149.2 44.2 L149.25 40.8 149.6 40.35 149.8 40.35 157.65 48.25 Q163.25 53.6 164.55 54.0 L162.55 53.35 159.55 51.6 Q152.95 47.75 149.2 44.2 M162.95 22.3 L162.65 21.2 Q162.35 20.8 160.1 20.8 L158.65 20.9 Q161.2 19.7 164.95 18.2 L169.0 16.5 Q168.45 18.45 164.2 22.15 L163.05 23.2 162.95 22.3 M179.6 48.7 L179.55 48.9 179.65 48.7 179.6 48.7 M105.85 69.2 Q108.6 65.7 110.45 64.45 L111.2 63.8 111.3 62.15 Q111.3 61.45 109.35 54.65 L107.45 47.85 107.65 48.4 110.05 54.0 Q111.15 56.2 113.55 59.35 115.3 61.65 115.3 62.65 115.3 63.9 105.85 69.2 M61.1 55.4 L65.5 50.15 Q67.5 47.25 68.7 44.25 70.3 40.15 70.95 34.25 L71.6 37.45 Q71.85 39.85 74.05 45.8 74.05 46.2 72.0 47.15 69.05 48.55 66.2 51.25 L65.5 51.95 61.8 55.6 60.55 56.85 60.55 56.7 61.1 55.4" fill="#383531" fill-rule="evenodd" stroke="none"/>
      <path d="M53.45 52.75 Q54.95 48.95 54.95 40.7 54.95 38.95 54.1 37.2 53.3 35.55 52.0 34.55 L61.1 31.25 65.5 29.7 66.5 29.35 67.0 29.15 72.15 27.5 72.35 27.65 73.65 28.95 76.2 37.5 78.05 45.2 Q78.65 47.05 79.8 47.35 L83.55 48.2 92.6 50.65 94.95 50.95 Q96.2 50.95 96.75 49.85 L97.15 48.65 98.1 47.9 Q102.1 41.3 104.2 33.85 L104.45 34.25 Q107.35 38.5 111.45 42.2 123.55 52.85 140.05 52.85 144.05 52.85 146.0 50.6 147.4 49.7 148.15 48.2 L148.25 48.0 156.4 51.05 162.55 53.35 164.55 54.0 Q163.25 53.6 157.65 48.25 L149.8 40.35 152.25 39.85 Q155.55 38.8 158.5 35.4 163.05 30.15 163.05 24.7 L163.05 23.2 164.2 22.15 Q168.45 18.45 169.0 16.5 L169.05 16.2 168.8 16.2 156.9 19.5 143.15 23.2 Q139.8 22.3 133.1 19.55 126.2 16.7 122.05 14.55 L122.2 14.6 139.65 18.1 145.35 19.2 145.55 19.25 151.75 16.8 Q156.8 14.65 159.45 13.1 L160.1 12.65 Q164.8 14.55 170.65 14.55 L173.15 14.55 Q180.95 14.35 184.2 13.0 186.5 12.0 186.8 10.05 L186.85 9.45 Q186.85 7.9 186.1 7.15 186.95 6.5 188.95 5.85 L193.45 4.75 198.0 3.8 Q192.8 11.95 188.4 14.95 182.7 18.8 177.7 19.5 L177.6 19.7 Q180.05 19.15 191.2 15.6 L191.6 15.55 Q190.25 16.05 188.15 17.9 184.95 20.7 179.8 24.0 176.6 26.1 165.8 29.25 171.3 28.9 176.75 27.7 L178.8 28.45 176.8 41.95 Q176.6 43.7 175.1 44.75 L170.8 47.2 167.25 49.15 Q164.65 50.45 164.05 50.45 164.25 50.95 165.85 51.45 167.3 51.95 167.3 52.5 167.3 56.2 164.85 59.75 163.55 61.7 161.75 62.95 L149.8 65.15 144.25 65.2 142.15 64.95 139.9 64.45 138.95 64.45 138.95 64.75 Q139.6 65.2 142.9 66.1 L145.05 66.65 151.4 67.75 157.55 68.2 159.45 68.5 160.55 68.95 Q141.7 74.2 132.35 76.3 L130.35 76.75 131.55 74.4 Q127.45 76.45 119.7 77.4 L112.55 78.0 112.8 78.0 112.55 78.05 Q112.55 78.9 112.45 78.25 L112.55 78.05 112.55 78.0 Q109.35 77.95 104.6 76.05 99.55 73.8 97.8 73.25 97.8 72.55 98.7 69.15 99.55 65.7 99.55 64.15 L98.55 60.0 98.3 60.0 Q94.55 64.25 89.9 67.0 L80.55 72.0 Q77.7 73.6 68.95 74.9 L65.5 75.35 59.05 76.25 59.05 75.75 Q59.65 74.6 64.55 69.5 L48.9 73.9 39.3 76.5 35.9 76.4 Q31.5 76.0 29.55 74.5 27.65 73.05 27.55 69.55 31.8 68.2 35.9 61.65 L36.05 61.4 Q41.65 52.25 42.65 49.45 L44.2 52.0 Q47.1 55.95 49.85 55.95 52.2 55.95 53.45 52.75 M179.6 48.7 L179.65 48.7 179.55 48.9 179.6 48.7 M158.6 43.3 Q160.5 45.2 162.55 45.95 160.05 44.4 160.05 41.6 160.05 40.1 161.95 36.25 L163.8 31.95 Q163.5 32.95 159.85 36.25 156.05 39.7 155.8 40.2 L158.6 43.3 M107.45 47.85 L106.65 46.0 107.35 49.35 Q107.6 51.35 109.2 55.95 110.8 60.55 102.55 71.0 L105.85 69.2 Q115.3 63.9 115.3 62.65 115.3 61.65 113.55 59.35 111.15 56.2 110.05 54.0 L107.65 48.4 107.45 47.85 M146.05 56.4 L146.5 55.85 Q144.55 56.3 141.8 57.5 L136.8 59.75 Q137.7 60.65 142.65 61.65 L148.95 62.5 150.05 62.5 Q149.45 62.1 146.5 61.45 144.55 61.0 144.55 59.5 144.55 58.35 146.05 56.4 M60.15 33.25 L56.95 34.9 56.1 35.15 Q58.6 44.35 55.9 53.2 L56.65 51.4 Q60.05 43.65 57.7 35.9 L65.7 30.7 60.15 33.25 M70.95 34.25 L70.65 33.5 69.65 31.9 Q68.4 37.95 66.9 41.65 L65.5 45.05 61.1 55.4 60.55 56.7 60.55 56.85 61.8 55.6 65.5 51.95 66.2 51.25 Q69.05 48.55 72.0 47.15 74.05 46.2 74.05 45.8 71.85 39.85 71.6 37.45 L70.95 34.25 M32.6 66.7 Q34.45 66.0 35.9 65.2 39.85 62.9 41.0 59.45 41.45 58.05 41.5 56.1 L41.55 54.75 Q41.1 56.1 39.25 59.1 L35.9 63.65 32.65 66.6 32.6 66.7" fill="#48443f" fill-rule="evenodd" stroke="none"/>
      <path d="M197.7 19.6 L198.2 20.4 Q196.3 20.4 191.7 23.95 186.85 27.65 186.85 29.6 L187.05 34.8 187.25 40.15 Q184.45 43.4 181.9 45.45 178.45 48.3 173.3 50.2 169.35 51.65 168.35 52.25 L168.05 52.45 169.3 52.45 170.1 52.65 170.95 53.05 175.2 53.5 175.8 53.5 174.5 54.9 Q169.95 59.85 168.2 60.45 167.65 60.65 167.6 60.9 L167.6 61.3 Q167.15 61.85 162.2 62.85 L161.75 62.95 Q163.55 61.7 164.85 59.75 167.3 56.2 167.3 52.5 167.3 51.95 165.85 51.45 164.25 50.95 164.05 50.45 164.65 50.45 167.25 49.15 L170.8 47.2 175.1 44.75 Q176.6 43.7 176.8 41.95 L178.8 28.45 176.75 27.7 Q183.15 26.25 189.5 23.65 194.25 21.7 197.7 19.6 M27.0 81.45 L24.55 69.85 27.55 69.55 Q27.65 73.05 29.55 74.5 31.5 76.0 35.9 76.4 L39.3 76.5 48.9 73.9 64.55 69.5 Q59.65 74.6 59.05 75.75 L59.05 76.25 65.5 75.35 68.95 74.9 Q77.7 73.6 80.55 72.0 L89.9 67.0 Q94.55 64.25 98.3 60.0 L98.55 60.0 99.55 64.15 Q99.55 65.7 98.7 69.15 97.8 72.55 97.8 73.25 99.55 73.8 104.6 76.05 109.35 77.95 112.55 78.0 L112.55 78.05 112.45 78.25 Q112.55 78.9 112.55 78.05 L112.8 78.0 112.55 78.0 119.7 77.4 Q127.45 76.45 131.55 74.4 L130.35 76.75 Q119.15 79.15 112.6 79.15 105.8 79.15 97.65 77.2 90.6 75.25 89.45 75.25 L87.8 75.55 Q86.75 75.85 86.15 76.15 L86.15 76.1 86.15 76.0 86.9 75.65 Q88.85 74.4 92.8 70.15 L98.05 64.35 97.85 64.45 88.75 69.55 Q77.2 75.65 67.7 79.0 L65.5 79.8 52.8 84.2 Q46.95 86.2 45.35 86.2 L44.05 85.95 Q43.7 85.75 43.7 85.1 L43.9 83.35 42.95 83.2 35.9 83.65 34.25 83.7 Q34.8 83.4 35.9 82.85 L50.3 75.6 Q45.7 76.85 35.9 80.1 31.8 81.45 27.25 81.45 L27.0 81.45 M61.1 55.4 L65.5 45.05 66.9 41.65 Q68.4 37.95 69.65 31.9 L70.65 33.5 70.95 34.25 Q70.3 40.15 68.7 44.25 67.5 47.25 65.5 50.15 L61.1 55.4" fill="#403c38" fill-rule="evenodd" stroke="none"/>
      <path d="M194.2 13.15 Q194.6 14.5 195.65 16.25 L196.9 18.25 Q190.85 22.05 185.4 24.05 178.85 25.8 175.95 27.15 178.1 25.75 185.25 21.5 192.75 16.45 194.2 13.15 M192.0 48.7 L195.0 52.05 191.7 52.4 175.8 53.5 175.2 53.5 170.95 53.05 170.1 52.65 169.3 52.45 168.05 52.45 168.35 52.25 170.6 52.6 179.35 51.8 Q184.8 50.8 192.0 48.7 M201.15 59.3 L204.05 84.75 193.0 84.25 Q180.65 83.7 159.95 83.7 L142.65 83.85 155.05 81.75 Q172.3 78.6 180.25 75.5 184.4 73.9 187.05 71.5 165.45 69.45 161.3 68.5 L159.45 68.5 157.55 68.2 151.4 67.75 145.05 66.65 159.15 65.9 Q175.45 64.35 195.75 60.4 L201.15 59.3 M68.7 87.0 L65.5 87.35 59.6 87.95 Q61.7 86.05 65.5 83.6 L68.75 81.6 81.3 74.25 88.75 69.55 97.85 64.45 98.05 64.35 92.8 70.15 Q88.85 74.4 86.9 75.65 L86.15 76.0 86.15 76.1 79.1 80.45 Q75.05 82.85 68.7 87.0 M148.65 46.95 L149.2 44.2 Q152.95 47.75 159.55 51.6 L162.55 53.35 156.4 51.05 148.25 48.0 148.65 46.95 M158.65 20.9 L151.4 22.15 145.5 23.55 143.35 23.25 143.15 23.2 156.9 19.5 168.8 16.2 169.05 16.2 169.0 16.5 164.95 18.2 Q161.2 19.7 158.65 20.9 M105.85 69.2 L102.55 71.0 Q110.8 60.55 109.2 55.95 107.6 51.35 107.35 49.35 L106.65 46.0 107.45 47.85 109.35 54.65 Q111.3 61.45 111.3 62.15 L111.2 63.8 110.45 64.45 Q108.6 65.7 105.85 69.2" fill="#292724" fill-rule="evenodd" stroke="none"/>
      <path d="M147.25 15.75 L148.65 15.4 Q150.4 14.6 155.05 13.15 159.7 11.7 162.35 10.35 L159.45 13.1 Q156.8 14.65 151.75 16.8 L145.55 19.25 145.35 19.2 147.25 15.75" fill="#726c65" fill-rule="evenodd" stroke="none"/>
      <path d="M24.55 69.85 L24.4 69.25 24.85 69.25 Q26.15 69.35 27.7 68.45 31.2 66.4 35.9 59.35 L36.1 59.05 Q41.1 51.4 42.0 47.7 L42.05 47.65 Q42.2 48.5 42.65 49.45 41.65 52.25 36.05 61.4 L35.9 61.65 Q31.8 68.2 27.55 69.55 L24.55 69.85 M52.0 34.55 L51.9 34.45 Q52.45 33.95 54.95 32.7 L63.4 28.9 65.5 28.0 Q70.6 25.75 73.85 24.45 L73.9 24.75 74.1 26.25 Q74.25 28.0 75.05 31.55 L76.45 37.2 76.6 37.65 Q77.3 39.2 80.95 45.0 L80.9 45.05 81.1 45.4 90.65 47.6 96.25 48.9 96.95 49.05 97.15 48.65 97.2 48.55 98.65 44.7 100.5 38.7 102.65 31.3 103.35 28.4 103.45 28.4 Q103.7 29.9 105.85 33.05 108.75 37.3 112.85 41.0 124.95 51.65 141.45 51.65 144.2 51.65 146.0 50.6 144.05 52.85 140.05 52.85 123.55 52.85 111.45 42.2 107.35 38.5 104.45 34.25 L104.2 33.85 Q102.1 41.3 98.1 47.9 L97.15 48.65 96.75 49.85 Q96.2 50.95 94.95 50.95 L92.6 50.65 83.55 48.2 79.8 47.35 Q78.65 47.05 78.05 45.2 L76.2 37.5 73.65 28.95 72.35 27.65 72.15 27.5 67.0 29.15 66.5 29.35 65.5 29.7 61.1 31.25 52.0 34.55 M158.6 43.3 L155.8 40.2 Q156.05 39.7 159.85 36.25 163.5 32.95 163.8 31.95 L161.95 36.25 Q160.05 40.1 160.05 41.6 160.05 44.4 162.55 45.95 160.5 45.2 158.6 43.3 M146.05 56.4 Q144.55 58.35 144.55 59.5 144.55 61.0 146.5 61.45 149.45 62.1 150.05 62.5 L148.95 62.5 142.65 61.65 Q137.7 60.65 136.8 59.75 L141.8 57.5 Q144.55 56.3 146.5 55.85 L146.05 56.4 M60.15 33.25 L65.7 30.7 57.7 35.9 Q60.05 43.65 56.65 51.4 L55.9 53.2 Q58.6 44.35 56.1 35.15 L56.95 34.9 60.15 33.25 M32.6 66.7 L32.65 66.6 35.9 63.65 39.25 59.1 Q41.1 56.1 41.55 54.75 L41.5 56.1 Q41.45 58.05 41.0 59.45 39.85 62.9 35.9 65.2 34.45 66.0 32.6 66.7" fill="#635e57" fill-rule="evenodd" stroke="none"/>
      <path d="M84.1 41.3 L93.7 43.55 98.65 44.7 97.2 48.55 97.15 48.65 96.95 49.05 96.25 48.9 90.65 47.6 81.1 45.4 80.9 45.05 80.95 45.0 84.1 41.3" fill="#524e48" fill-rule="evenodd" stroke="none"/>
      <path d="M76.7 20.45 L76.9 20.4 77.15 22.2 Q77.4 25.2 79.5 33.15 L79.65 33.6 79.8 33.9 76.6 37.65 76.45 37.2 75.05 31.55 Q74.25 28.0 74.1 26.25 L73.9 24.75 76.7 20.45" fill="#4a4641" fill-rule="evenodd" stroke="none"/>
      <path d="M79.8 33.9 L84.1 41.3 80.95 45.0 Q77.3 39.2 76.6 37.65 L79.8 33.9" fill="#3e3a36" fill-rule="evenodd" stroke="none"/>
      <path d="M173.15 14.55 L170.65 14.55 Q164.8 14.55 160.1 12.65 L159.45 13.1 162.35 10.35 162.75 10.1 Q167.25 11.8 172.8 11.8 182.6 11.8 186.35 10.25 L186.8 10.05 Q186.5 12.0 184.2 13.0 180.95 14.35 173.15 14.55" fill="url(#gradient0)" fill-rule="evenodd" stroke="none"/>
      <path d="M148.25 48.0 L148.15 48.2 Q147.4 49.7 146.0 50.6 144.2 51.65 141.45 51.65 124.95 51.65 112.85 41.0 108.75 37.3 105.85 33.05 103.7 29.9 103.45 28.4 L108.35 28.55 108.85 29.25 Q111.75 33.5 115.85 37.2 127.95 47.85 144.45 47.85 L147.05 47.55 148.65 46.95 148.25 48.0" fill="url(#gradient1)" fill-rule="evenodd" stroke="none"/>
      <path d="M98.65 44.7 L97.2 48.55 97.15 48.65 96.95 49.05 96.25 48.9 90.65 47.6 81.1 45.4 80.9 45.05 80.95 45.0 Q77.3 39.2 76.6 37.65 L76.45 37.2 75.05 31.55 Q74.25 28.0 74.1 26.25 L73.9 24.75 76.7 20.45 76.9 20.4 77.15 22.2 Q77.4 25.2 79.5 33.15 L79.65 33.6 79.8 33.9 84.1 41.3 93.7 43.55 98.65 44.7" fill="url(#gradient2)" fill-rule="evenodd" stroke="none"/>
      <path d="M42.05 47.65 L44.6 46.65 Q45.15 47.85 46.2 49.25 49.1 53.2 51.85 53.2 L53.45 52.75 Q52.2 55.95 49.85 55.95 47.1 55.95 44.2 52.0 L42.65 49.45 Q42.2 48.5 42.05 47.65" fill="url(#gradient3)" fill-rule="evenodd" stroke="none"/>
      <path d="M203.3 2.55 Q201.8 3.1 198.3 5.9 194.4 9.05 193.95 10.95 L193.9 11.4 Q193.9 12.15 194.2 13.15 194.6 14.5 195.65 16.25 L196.9 18.25 197.7 19.6 198.2 20.4 Q196.3 20.4 191.7 23.95 186.85 27.65 186.85 29.6 L187.05 34.8 187.25 40.15 187.25 41.3 Q187.25 42.3 191.35 47.85 L192.0 48.7 195.0 52.05 Q197.7 54.65 200.75 56.05 L204.05 84.75 193.0 84.25 Q180.65 83.7 159.95 83.7 L142.65 83.85 110.0 84.45 Q90.2 84.9 68.7 87.0 L59.6 87.95 36.3 90.95 Q34.25 85.3 27.8 85.3 L24.55 69.85 27.55 69.55 Q31.9 68.2 36.05 61.4 41.65 52.25 42.65 49.45 L44.2 52.0 Q47.1 55.95 49.85 55.95 52.2 55.95 53.45 52.75 54.95 48.95 54.95 40.7 54.95 38.95 54.1 37.2 53.3 35.55 52.0 34.55 L51.9 34.45 Q52.45 33.95 54.95 32.7 L63.4 28.9 Q69.95 26.0 73.85 24.45 L73.9 24.75 74.1 26.25 Q74.25 28.0 75.05 31.55 L76.45 37.2 76.6 37.65 Q77.3 39.2 80.95 45.0 L80.9 45.05 81.1 45.4 90.65 47.6 96.25 48.9 96.95 49.05 97.15 48.65 97.2 48.55 98.65 44.7 100.5 38.7 102.65 31.3 103.35 28.4 103.45 28.4 Q103.7 29.9 105.85 33.05 108.75 37.3 112.85 41.0 124.95 51.65 141.45 51.65 144.2 51.65 146.0 50.6 147.4 49.7 148.15 48.2 L148.25 48.0 148.65 46.95 149.2 44.2 149.25 40.8 149.6 40.35 151.35 36.95 Q156.05 34.2 158.5 31.4 161.95 27.45 162.8 23.4 L162.95 22.3 162.65 21.2 Q162.35 20.8 160.1 20.8 L158.65 20.9 151.4 22.15 145.5 23.55 143.35 23.25 143.15 23.2 Q139.8 22.3 133.1 19.55 126.2 16.7 122.05 14.55 L122.2 14.6 139.65 18.1 145.35 19.2 145.55 19.25 151.75 16.8 Q156.8 14.65 159.45 13.1 L160.1 12.65 Q164.8 14.55 170.65 14.55 L173.15 14.55 Q180.95 14.35 184.2 13.0 186.5 12.0 186.8 10.05 L186.85 9.45 Q186.85 7.9 186.1 7.15 186.95 6.5 188.95 5.85 L193.45 4.75 198.0 3.8 202.55 2.7 203.3 2.55" fill="url(#gradient4)" fill-rule="evenodd" stroke="none"/>
    </g>
    <linearGradient gradientTransform="matrix(0.0167, 0.0, 0.0, 0.0027, 173.1, 12.3)" gradientUnits="userSpaceOnUse" id="gradient0" spreadMethod="pad" x1="-819.2" x2="819.2">
      <stop offset="0.00392156862745098" stop-color="#000000" stop-opacity="0.0"/>
      <stop offset="1.0" stop-color="#000000" stop-opacity="0.6156863"/>
    </linearGradient>
    <linearGradient gradientTransform="matrix(0.024, 0.0135, -0.0069, 0.0124, 126.05, 40.0)" gradientUnits="userSpaceOnUse" id="gradient1" spreadMethod="pad" x1="-819.2" x2="819.2">
      <stop offset="0.00392156862745098" stop-color="#000000" stop-opacity="0.0"/>
      <stop offset="1.0" stop-color="#000000" stop-opacity="0.6156863"/>
    </linearGradient>
    <linearGradient gradientTransform="matrix(0.0095, 0.0117, -0.0136, 0.011, 86.25, 34.7)" gradientUnits="userSpaceOnUse" id="gradient2" spreadMethod="pad" x1="-819.2" x2="819.2">
      <stop offset="0.00392156862745098" stop-color="#000000" stop-opacity="0.0"/>
      <stop offset="1.0" stop-color="#000000" stop-opacity="0.6156863"/>
    </linearGradient>
    <linearGradient gradientTransform="matrix(0.0057, 0.0039, -0.0032, 0.0047, 47.75, 51.3)" gradientUnits="userSpaceOnUse" id="gradient3" spreadMethod="pad" x1="-819.2" x2="819.2">
      <stop offset="0.00392156862745098" stop-color="#000000" stop-opacity="0.0"/>
      <stop offset="1.0" stop-color="#000000" stop-opacity="0.6156863"/>
    </linearGradient>
    <linearGradient gradientTransform="matrix(2.0E-4, 0.0279, -0.054, 5.0E-4, 111.05, 81.65)" gradientUnits="userSpaceOnUse" id="gradient4" spreadMethod="pad" x1="-819.2" x2="819.2">
      <stop offset="0.00392156862745098" stop-color="#000000" stop-opacity="0.0"/>
      <stop offset="1.0" stop-color="#000000" stop-opacity="0.6156863"/>
    </linearGradient>
    <g id="sprite1" transform="matrix(1.0, 0.0, 0.0, 1.0, 10.6, 14.85)">
      <use height="39.65" transform="matrix(1.0, 0.0, 0.0, 1.0, -10.6, -14.85)" width="265.05" xlink:href="#shape1"/>
    </g>
    <g id="shape1" transform="matrix(1.0, 0.0, 0.0, 1.0, 10.6, 14.85)">
      <path d="M22.75 -9.65 L207.95 -14.85 254.45 16.6 219.8 23.25 210.1 23.65 197.55 24.45 186.3 24.8 174.2 23.7 Q168.0 22.7 166.4 21.55 163.95 19.8 163.15 17.9 L162.25 15.3 Q161.0 13.3 149.15 13.3 L132.1 14.25 105.7 15.15 Q90.3 15.15 86.55 14.7 L79.15 14.25 60.5 15.15 48.95 15.9 37.55 22.55 -10.6 19.5 22.75 -9.65" fill="#000000" fill-opacity="0.2627451" fill-rule="evenodd" stroke="none"/>
    </g>
    <g id="shape2" transform="matrix(1.0, 0.0, 0.0, 1.0, 0.0, -11.6)">
      <path d="M43.05 15.1 L42.55 15.7 38.55 20.15 Q35.75 22.9 33.55 24.15 30.45 25.9 27.4 26.95 L24.95 27.7 24.55 33.95 24.5 35.75 24.45 36.3 24.45 36.85 24.35 39.8 24.35 40.15 24.4 41.1 24.5 43.6 Q24.8 46.5 25.5 48.45 L26.2 49.9 24.25 48.35 Q22.3 47.1 21.9 48.5 21.65 49.4 21.7 51.75 L21.95 56.95 Q22.55 63.9 24.0 67.25 L24.05 67.35 Q25.4 70.4 30.15 70.4 L34.6 69.8 26.5 84.65 30.0 84.8 28.8 87.15 26.25 92.4 Q24.7 95.95 24.2 98.25 23.7 100.15 23.95 101.2 L24.35 102.1 Q25.9 103.85 28.8 100.3 L30.3 98.25 30.65 97.7 31.4 96.45 30.0 99.9 26.95 107.6 Q22.65 119.05 23.45 120.2 24.2 121.35 27.65 116.9 L29.95 113.7 30.95 112.2 30.15 120.5 35.35 113.75 39.8 129.6 35.7 123.1 32.3 125.85 27.4 122.5 22.2 125.85 20.05 122.15 17.6 122.8 24.5 106.25 23.65 107.45 21.7 110.0 Q18.65 113.75 17.6 113.45 16.55 113.15 18.3 108.45 L19.55 105.25 19.95 104.45 20.2 103.8 Q19.7 104.2 19.25 104.05 18.35 103.85 18.85 101.35 L19.0 100.8 20.0 98.25 23.2 92.35 25.8 88.1 26.95 86.35 26.7 86.5 21.0 89.25 21.05 88.7 21.4 85.9 21.9 79.45 Q22.0 76.85 26.0 74.15 27.25 73.3 28.75 72.55 L30.0 71.95 23.9 72.7 21.3 61.4 20.45 61.4 17.15 60.75 Q12.45 59.4 11.05 53.1 10.35 50.15 12.15 47.35 13.8 44.75 16.85 43.3 19.25 42.15 21.4 42.6 22.5 42.85 23.1 43.3 L23.1 27.85 20.5 26.0 24.7 25.1 31.85 23.25 Q34.35 22.5 39.45 18.05 L44.1 13.75 43.05 15.1 M35.05 75.45 L32.6 79.45 30.0 83.25 36.0 69.35 36.05 70.8 35.95 72.65 35.7 73.95 35.05 75.45 M37.65 66.1 L36.25 67.25 35.05 67.8 32.35 68.45 30.25 68.2 32.7 67.9 35.4 66.5 36.75 65.45 37.7 64.65 40.1 62.15 39.8 62.9 39.35 63.8 38.85 64.6 37.65 66.1 M24.4 52.75 L24.0 53.4 Q24.1 51.45 24.95 51.25 25.9 51.1 27.45 54.0 L28.8 56.95 27.85 55.3 27.35 54.6 26.8 53.95 Q25.15 51.95 24.4 52.75 M28.45 43.85 Q28.55 42.3 29.45 41.6 30.6 40.75 32.15 42.25 33.9 43.85 35.65 47.65 L37.05 51.1 33.6 46.3 Q29.8 41.85 28.5 43.75 L28.45 43.85 M16.35 45.85 Q16.05 45.9 15.8 46.1 L15.0 46.95 14.6 47.7 Q14.05 48.9 13.75 50.7 L13.7 51.3 13.65 51.45 13.55 53.4 13.8 55.5 14.4 57.3 15.3 58.45 Q15.7 59.05 16.4 59.15 L17.85 58.9 Q19.6 58.05 20.35 55.55 21.2 52.85 20.8 49.05 20.6 47.35 20.2 46.3 19.75 45.1 19.15 45.0 L17.15 45.25 16.4 45.75 16.35 45.85 M28.25 35.75 L28.2 36.3 28.15 36.65 28.15 36.85 27.75 39.8 27.65 40.15 27.45 41.1 Q26.85 43.9 26.05 44.05 25.2 44.25 25.3 41.1 L25.35 40.15 25.4 39.8 25.7 36.85 25.75 36.45 25.8 36.3 25.85 35.75 27.1 28.45 31.7 26.75 28.65 29.5 28.25 35.75 M30.95 101.95 L30.55 103.85 29.6 108.1 Q28.0 114.35 26.65 114.8 25.3 115.3 28.0 108.7 28.8 106.6 29.95 104.1 L30.95 101.95 M30.25 93.4 L28.3 98.25 Q27.2 100.05 26.35 99.5 25.8 99.15 25.85 98.25 25.9 96.4 28.3 92.15 L30.9 87.9 32.15 86.05 31.6 88.35 30.25 93.4 M33.55 108.05 Q33.3 112.8 31.85 114.8 L32.6 109.4 33.55 103.65 33.6 104.95 33.55 108.05" fill="#383531" fill-rule="evenodd" stroke="none"/>
      <path d="M39.8 129.6 L35.35 113.75 30.15 120.5 30.95 112.2 29.95 113.7 27.65 116.9 Q24.2 121.35 23.45 120.2 22.65 119.05 26.95 107.6 L30.0 99.9 31.4 96.45 30.65 97.7 30.3 98.25 28.8 100.3 Q25.9 103.85 24.35 102.1 L23.95 101.2 Q23.7 100.15 24.2 98.25 24.7 95.95 26.25 92.4 L28.8 87.15 30.0 84.8 26.5 84.65 34.6 69.8 30.15 70.4 Q25.4 70.4 24.05 67.35 L24.0 67.25 Q22.55 63.9 21.95 56.95 L21.7 51.75 Q21.65 49.4 21.9 48.5 22.3 47.1 24.25 48.35 L26.2 49.9 25.5 48.45 Q24.8 46.5 24.5 43.6 L24.4 41.1 24.35 40.15 24.35 39.8 24.45 36.85 24.45 36.3 24.5 35.75 24.55 33.95 24.95 27.7 27.4 26.95 Q30.45 25.9 33.55 24.15 35.75 22.9 38.55 20.15 L42.55 15.7 43.05 15.1 31.55 29.7 31.15 30.65 Q30.75 31.8 30.5 32.9 30.15 34.55 30.4 35.75 L30.5 36.3 30.75 36.85 31.55 37.95 32.95 39.8 33.15 40.15 33.6 41.1 35.35 45.45 37.05 51.1 35.65 47.65 Q33.9 43.85 32.15 42.25 30.6 40.75 29.45 41.6 28.55 42.3 28.45 43.85 27.15 45.8 27.85 51.5 28.2 54.4 28.8 56.95 L27.45 54.0 Q25.9 51.1 24.95 51.25 24.1 51.45 24.0 53.4 L24.4 52.75 Q24.05 53.05 23.9 53.85 23.55 55.5 23.75 57.6 23.95 59.75 24.7 61.85 25.45 64.05 26.6 65.6 L28.2 67.25 29.4 67.95 30.25 68.2 32.35 68.45 35.05 67.8 36.25 67.25 37.65 66.1 37.75 66.7 37.65 67.25 35.95 72.65 36.05 70.8 36.0 69.35 30.0 83.25 32.6 79.45 35.05 75.45 Q33.0 82.1 32.7 84.75 L34.95 85.3 36.6 86.95 32.45 97.65 38.25 87.1 38.4 87.1 38.85 87.15 34.0 98.3 39.2 111.45 39.8 129.6 M28.25 35.75 L28.65 29.5 31.7 26.75 27.1 28.45 25.85 35.75 25.8 36.3 25.75 36.45 25.7 36.85 25.4 39.8 25.35 40.15 25.3 41.1 Q25.2 44.25 26.05 44.05 26.85 43.9 27.45 41.1 L27.65 40.15 27.75 39.8 28.15 36.85 28.15 36.65 28.2 36.3 28.25 35.75 M29.7 38.9 L30.9 39.8 31.3 40.15 31.55 40.4 32.15 41.1 33.85 43.0 32.9 41.1 32.5 40.5 32.3 40.15 32.05 39.8 Q30.7 38.0 29.55 38.1 29.05 38.15 29.15 38.35 L29.7 38.9 M30.25 93.4 L31.6 88.35 32.15 86.05 30.9 87.9 28.3 92.15 Q25.9 96.4 25.85 98.25 25.8 99.15 26.35 99.5 27.2 100.05 28.3 98.25 L30.25 93.4 M30.95 101.95 L29.95 104.1 Q28.8 106.6 28.0 108.7 25.3 115.3 26.65 114.8 28.0 114.35 29.6 108.1 L30.55 103.85 30.95 101.95 M33.55 108.05 L33.6 104.95 33.55 103.65 32.6 109.4 31.85 114.8 Q33.3 112.8 33.55 108.05 M36.6 110.55 Q37.35 113.2 37.8 117.2 L38.15 120.65 38.45 118.0 Q38.65 114.85 38.3 112.35 37.9 109.9 35.7 105.6 L34.2 102.9 33.55 101.8 34.6 104.55 36.6 110.55" fill="#48443f" fill-rule="evenodd" stroke="none"/>
      <path d="M20.5 26.0 L23.1 27.85 23.1 43.3 Q22.5 42.85 21.4 42.6 19.25 42.15 16.85 43.3 13.8 44.75 12.15 47.35 10.35 50.15 11.05 53.1 12.45 59.4 17.15 60.75 L20.45 61.4 21.3 61.4 23.9 72.7 30.0 71.95 28.75 72.55 Q27.25 73.3 26.0 74.15 22.0 76.85 21.9 79.45 L21.4 85.9 21.05 88.7 20.45 89.0 19.5 89.35 Q19.55 86.8 19.1 82.85 L18.45 78.0 18.05 75.9 22.05 74.1 21.45 63.65 19.15 63.15 Q16.4 62.4 14.25 61.2 7.35 57.4 8.9 50.5 10.4 43.6 15.95 41.6 L17.95 41.1 19.55 40.95 21.15 41.0 20.5 26.0 M26.7 86.5 L26.95 86.35 25.8 88.1 23.2 92.35 20.0 98.25 19.0 100.8 Q14.7 102.5 10.15 102.4 L7.8 102.3 12.6 99.15 13.85 98.25 Q18.15 94.95 19.0 92.75 L19.2 92.25 20.65 91.45 Q23.0 90.15 24.45 88.7 L25.6 87.6 26.7 86.5 M19.95 104.45 L19.55 105.25 18.3 108.45 Q16.55 113.15 17.6 113.45 18.65 113.75 21.7 110.0 L23.65 107.45 24.5 106.25 17.6 122.8 20.05 122.15 22.2 125.85 27.4 122.5 32.3 125.85 35.7 123.1 39.8 129.6 30.95 129.6 27.4 125.7 18.6 129.6 18.15 129.6 18.65 124.65 11.3 129.6 0.0 129.6 5.9 122.0 Q12.0 113.65 13.15 109.6 13.6 108.1 13.4 106.9 L19.95 104.45" fill="#292724" fill-rule="evenodd" stroke="none"/>
      <path d="M16.35 45.85 L16.4 45.75 17.15 45.25 19.15 45.0 Q19.75 45.1 20.2 46.3 20.6 47.35 20.8 49.05 21.2 52.85 20.35 55.55 19.6 58.05 17.85 58.9 L16.4 59.15 Q15.7 59.05 15.3 58.45 16.5 59.45 17.6 57.9 18.55 56.5 19.0 53.8 19.45 51.1 19.0 48.9 18.55 46.45 17.15 45.9 L17.05 45.9 16.35 45.85" fill="#1a1817" fill-rule="evenodd" stroke="none"/>
      <path d="M38.85 87.15 L38.4 87.1 38.25 87.1 32.45 97.65 36.6 86.95 34.95 85.3 32.7 84.75 Q33.0 82.1 35.05 75.45 L35.7 73.95 35.95 72.65 37.65 67.25 37.75 66.7 37.65 66.1 38.85 64.6 39.35 63.8 39.8 62.9 40.1 62.15 34.0 83.25 39.2 86.35 38.85 87.15 M29.7 38.9 L29.15 38.35 Q29.05 38.15 29.55 38.1 30.7 38.0 32.05 39.8 L32.3 40.15 32.5 40.5 32.9 41.1 33.85 43.0 32.15 41.1 31.55 40.4 31.3 40.15 30.9 39.8 29.7 38.9 M36.6 110.55 L34.6 104.55 33.55 101.8 34.2 102.9 35.7 105.6 Q37.9 109.9 38.3 112.35 38.65 114.85 38.45 118.0 L38.15 120.65 37.8 117.2 Q37.35 113.2 36.6 110.55" fill="#635e57" fill-rule="evenodd" stroke="none"/>
      <path d="M37.7 64.65 L36.75 65.45 35.4 66.5 36.35 65.75 37.7 64.65" fill="#76927d" fill-rule="evenodd" stroke="none"/>
      <path d="M21.05 88.7 L21.0 89.25 26.7 86.5 25.6 87.6 24.45 88.7 Q23.0 90.15 20.65 91.45 L19.2 92.25 19.5 89.35 20.45 89.0 21.05 88.7 M19.0 100.8 L18.85 101.35 Q18.35 103.85 19.25 104.05 19.7 104.2 20.2 103.8 L19.95 104.45 13.4 106.9 Q13.05 104.9 10.95 103.7 9.9 103.1 8.5 102.75 L7.35 102.55 Q7.55 102.45 7.8 102.3 L10.15 102.4 Q14.7 102.5 19.0 100.8 M18.15 129.6 L11.3 129.6 18.65 124.65 18.15 129.6 M30.95 129.6 L18.6 129.6 27.4 125.7 30.95 129.6" fill="#0a0909" fill-rule="evenodd" stroke="none"/>
      <path d="M39.2 86.35 L34.0 83.25 39.45 64.5 Q56.55 77.4 67.75 86.6 41.5 90.9 41.1 91.35 37.1 96.05 36.05 97.75 37.35 98.3 38.6 99.15 L40.8 100.5 Q40.05 100.7 39.05 101.5 38.05 102.25 38.05 102.65 38.05 103.0 38.55 103.95 39.05 104.9 39.05 106.5 L39.3 110.75 Q39.5 112.95 40.1 115.45 40.55 117.35 40.55 119.5 40.55 121.05 39.7 121.95 L39.55 122.1 39.2 111.45 34.0 98.3 39.2 86.35" fill="url(#gradient5)" fill-rule="evenodd" stroke="none"/>
      <path d="M203.5 19.8 L208.9 20.45 202.65 18.4 203.5 19.8 M187.25 11.6 L194.05 16.05 194.95 18.25 Q196.05 20.55 197.1 20.8 198.1 21.05 200.4 20.75 L202.5 20.4 202.7 20.7 201.0 17.6 212.85 20.4 208.9 29.25 203.5 48.45 200.2 42.05 200.7 65.8 199.25 61.1 199.3 59.2 198.65 59.2 197.55 55.55 197.5 54.5 Q195.55 48.8 197.1 41.75 L206.95 28.45 204.3 23.55 206.1 21.95 204.65 21.55 200.85 21.95 195.7 21.6 Q194.55 21.0 193.95 18.6 L193.55 16.35 187.25 11.6 M156.7 128.2 L155.4 127.45 153.9 119.0 158.2 115.75 163.35 111.65 170.25 105.45 Q178.55 97.35 182.1 90.15 L182.45 89.4 182.8 88.55 183.15 87.75 Q184.75 85.85 185.3 82.95 185.8 80.05 185.8 77.8 L185.65 73.85 Q185.6 73.6 185.95 73.85 188.15 75.2 188.95 75.4 L187.35 72.55 Q185.6 69.2 185.1 66.8 184.6 64.35 184.45 61.7 L184.45 59.55 184.15 60.55 183.65 63.1 Q183.2 66.45 184.0 69.0 L182.85 66.75 179.95 62.85 176.05 58.75 174.8 57.5 172.3 55.3 171.95 55.05 196.05 55.95 196.1 56.6 Q196.1 57.55 195.5 57.85 L194.45 58.3 192.3 56.9 177.95 56.7 175.75 56.05 189.95 56.2 172.95 55.3 173.05 55.4 187.0 60.45 Q188.2 61.15 190.9 67.9 193.5 74.3 194.1 77.5 L194.1 77.55 194.25 77.6 195.0 77.1 196.35 76.1 196.95 76.1 Q197.25 76.85 197.35 78.3 L197.6 82.25 Q197.65 83.15 198.85 85.45 199.95 87.65 199.95 89.35 199.95 90.9 199.35 91.25 L198.1 91.35 Q196.55 91.35 194.9 90.05 L191.1 86.6 190.7 86.9 190.7 87.85 191.35 93.5 191.1 94.5 189.2 93.45 189.35 102.2 183.95 100.7 184.35 101.85 184.9 104.75 Q185.15 107.2 184.6 109.2 L183.45 111.65 182.8 112.5 Q180.6 115.15 170.55 120.85 164.3 124.4 156.7 128.2 M203.0 43.8 Q204.05 44.55 205.2 38.75 L206.1 32.8 203.9 37.85 Q201.9 43.0 203.0 43.8 M192.2 58.75 L192.2 58.85 Q191.55 59.6 189.65 59.9 L188.75 60.0 188.45 59.6 178.6 56.85 191.55 58.25 192.2 58.7 192.2 58.75 M189.6 69.15 L186.8 64.05 185.45 61.7 185.85 63.9 187.1 68.85 Q189.2 76.05 191.25 76.3 193.3 76.55 189.6 69.15 M185.4 86.2 L187.25 80.1 184.6 86.65 183.6 89.4 183.2 90.6 Q182.0 94.2 182.05 95.55 182.1 97.5 183.65 99.05 L185.2 100.2 184.7 99.3 Q184.1 97.9 183.85 95.35 183.7 93.9 184.25 91.05 L184.6 89.4 185.4 86.2 M187.5 92.75 L187.5 92.55 186.85 89.4 186.6 88.4 186.1 86.45 185.7 88.45 185.5 89.4 185.2 91.45 185.0 92.85 Q184.3 99.2 186.35 99.15 188.45 99.05 187.5 92.75 M199.2 56.05 L199.05 42.25 207.0 30.1 197.65 42.4 199.2 56.05 M181.55 100.15 L181.25 100.0 180.35 99.8 Q178.75 99.65 176.8 100.65 174.85 101.6 173.15 103.35 L171.9 104.9 174.2 103.25 Q176.8 101.6 178.45 101.5 L181.15 101.05 Q181.9 100.75 181.55 100.15 M181.15 104.85 Q181.0 103.2 179.35 102.9 176.55 102.4 172.35 106.0 170.45 107.6 168.25 110.05 L166.85 111.65 Q164.2 114.8 162.0 118.05 163.65 116.1 165.55 114.45 169.4 111.05 170.7 112.2 172.05 113.35 164.55 119.35 L156.75 125.2 Q159.0 123.8 162.15 122.0 168.35 118.45 172.6 116.2 175.05 114.95 177.15 112.75 L178.2 111.65 180.25 108.55 180.45 108.15 Q181.35 106.2 181.15 104.85" fill="#48443f" fill-rule="evenodd" stroke="none"/>
      <path d="M187.25 11.6 L193.55 16.35 193.95 18.6 Q194.55 21.0 195.7 21.6 L200.85 21.95 204.65 21.55 206.1 21.95 204.3 23.55 200.35 23.9 196.1 23.45 Q194.75 22.75 193.7 19.75 193.15 18.25 192.9 16.85 L187.25 11.6 M198.65 59.2 L199.3 59.2 199.25 61.1 198.65 59.2 M200.7 65.8 L200.2 42.05 203.5 48.45 208.9 29.25 212.85 20.4 201.0 17.6 221.2 19.55 220.95 22.25 Q220.9 25.25 221.9 27.1 222.85 28.95 224.75 30.2 L226.5 31.05 229.1 39.55 229.05 43.1 228.45 39.2 225.65 31.55 223.8 30.35 220.5 27.45 Q219.25 26.05 218.65 23.55 L218.35 21.3 216.2 20.95 213.5 24.5 213.95 28.9 Q214.7 32.4 215.75 33.55 L218.35 36.7 220.25 39.35 222.3 46.35 221.55 44.35 220.45 42.05 219.25 38.95 214.8 34.5 Q213.9 33.6 212.8 30.2 L211.85 26.95 210.55 29.75 Q209.0 33.15 208.1 36.3 207.15 39.5 206.3 46.5 L205.65 52.9 201.5 48.8 204.8 69.5 192.55 65.55 190.0 61.85 200.7 66.05 200.7 65.8 M184.5 128.2 L156.7 128.2 Q164.3 124.4 170.55 120.85 180.6 115.15 182.8 112.5 L183.45 111.65 184.6 109.2 Q185.15 107.2 184.9 104.75 L184.35 101.85 183.95 100.7 189.35 102.2 189.2 93.45 191.1 94.5 193.45 95.85 196.5 98.05 201.7 112.5 190.55 107.65 189.7 107.3 190.15 108.6 190.8 110.85 190.95 111.65 191.0 111.9 Q191.95 117.25 190.2 120.75 188.15 124.75 184.5 128.2 M203.0 43.8 Q201.9 43.0 203.9 37.85 L206.1 32.8 205.2 38.75 Q204.05 44.55 203.0 43.8 M194.45 58.3 L192.2 58.7 192.2 58.75 192.2 58.7 191.55 58.25 178.6 56.85 176.75 56.65 177.95 56.7 192.3 56.9 194.45 58.3 M189.6 69.15 Q193.3 76.55 191.25 76.3 189.2 76.05 187.1 68.85 L185.85 63.9 185.45 61.7 186.8 64.05 189.6 69.15 M187.5 92.75 Q188.45 99.05 186.35 99.15 184.3 99.2 185.0 92.85 L185.2 91.45 185.5 89.4 185.7 88.45 186.1 86.45 186.6 88.4 186.85 89.4 187.5 92.55 187.5 92.75 M181.15 104.85 Q181.35 106.2 180.45 108.15 L180.25 108.55 178.2 111.65 177.15 112.75 Q175.05 114.95 172.6 116.2 168.35 118.45 162.15 122.0 159.0 123.8 156.75 125.2 L164.55 119.35 Q172.05 113.35 170.7 112.2 169.4 111.05 165.55 114.45 163.65 116.1 162.0 118.05 164.2 114.8 166.85 111.65 L168.25 110.05 Q170.45 107.6 172.35 106.0 176.55 102.4 179.35 102.9 181.0 103.2 181.15 104.85" fill="#383531" fill-rule="evenodd" stroke="none"/>
      <path d="M203.5 19.8 L202.65 18.4 208.9 20.45 203.5 19.8 M192.55 65.55 L192.5 65.55 192.8 66.05 188.15 60.85 187.0 60.45 173.05 55.4 172.95 55.3 189.95 56.2 175.75 56.05 177.95 56.7 176.75 56.65 178.6 56.85 188.45 59.6 188.75 60.0 190.0 61.85 192.55 65.55 M176.05 58.75 L179.95 62.85 182.85 66.75 184.0 69.0 Q183.2 66.45 183.65 63.1 L184.15 60.55 184.45 59.55 184.45 61.7 Q184.6 64.35 185.1 66.8 185.6 69.2 187.35 72.55 L188.95 75.4 Q188.15 75.2 185.95 73.85 185.6 73.6 185.65 73.85 L185.8 77.8 Q185.8 80.05 185.3 82.95 184.75 85.85 183.15 87.75 187.8 75.8 180.5 64.4 178.6 61.4 176.05 58.75 M194.65 69.55 L196.75 73.6 199.2 70.5 199.25 70.7 199.3 71.15 196.4 74.9 194.65 69.55 M185.4 86.2 L184.6 89.4 184.25 91.05 Q183.7 93.9 183.85 95.35 184.1 97.9 184.7 99.3 L185.2 100.2 183.65 99.05 Q182.1 97.5 182.05 95.55 182.0 94.2 183.2 90.6 L183.6 89.4 184.6 86.65 187.25 80.1 185.4 86.2 M199.2 56.05 L197.65 42.4 207.0 30.1 199.05 42.25 199.2 56.05 M181.55 100.15 Q181.9 100.75 181.15 101.05 L178.45 101.5 Q176.8 101.6 174.2 103.25 L171.9 104.9 173.15 103.35 Q174.85 101.6 176.8 100.65 178.75 99.65 180.35 99.8 L181.25 100.0 181.55 100.15" fill="#635e57" fill-rule="evenodd" stroke="none"/>
      <path d="M229.05 43.1 L229.05 43.3 227.55 38.2 224.2 31.4 220.35 29.2 Q219.0 28.3 217.0 24.45 215.4 26.6 213.95 28.9 L213.5 24.5 216.2 20.95 218.35 21.3 218.65 23.55 Q219.25 26.05 220.5 27.45 L223.8 30.35 225.65 31.55 228.45 39.2 229.05 43.1 M220.45 42.05 Q219.25 39.6 218.25 38.95 L215.25 36.6 213.65 35.15 212.0 32.3 Q207.65 40.65 207.45 48.65 207.1 58.8 209.95 70.5 L210.4 72.35 193.4 66.85 193.35 66.8 193.15 66.75 192.8 66.05 192.5 65.55 192.55 65.55 204.8 69.5 201.5 48.8 205.65 52.9 206.3 46.5 Q207.15 39.5 208.1 36.3 209.0 33.15 210.55 29.75 L211.85 26.95 212.8 30.2 Q213.9 33.6 214.8 34.5 L219.25 38.95 220.45 42.05 M210.8 73.7 L211.8 77.1 199.3 71.2 199.3 71.15 199.25 70.7 210.8 73.7 M212.4 81.3 L211.45 83.45 209.35 89.4 208.8 91.2 Q205.35 103.15 208.4 107.75 L211.75 111.65 Q215.55 115.45 222.6 120.75 L233.05 128.2 224.25 128.2 203.1 102.0 205.3 80.05 212.4 81.3 M216.45 128.2 L200.6 128.2 Q200.4 121.45 193.5 111.65 L190.55 107.65 201.7 112.5 196.5 98.05 193.55 89.95 216.45 128.2" fill="#292724" fill-rule="evenodd" stroke="none"/>
      <path d="M197.5 54.5 L197.55 55.55 197.55 56.0 196.05 55.95 171.95 55.05 172.3 55.3 174.8 57.5 176.05 58.75 Q178.6 61.4 180.5 64.4 187.8 75.8 183.15 87.75 L182.8 88.55 182.45 89.4 182.1 90.15 Q178.55 97.35 170.25 105.45 L132.2 95.45 Q163.25 86.35 171.75 57.4 L171.55 56.6 171.8 53.95 183.95 53.45 192.05 53.95 197.5 54.5" fill="url(#gradient6)" fill-rule="evenodd" stroke="none"/>
      <path d="M197.55 55.55 L198.65 59.2 195.6 59.0 194.45 58.3 195.5 57.85 Q196.1 57.55 196.1 56.6 L196.05 55.95 197.55 56.0 197.55 55.55 M199.25 61.1 L200.7 65.8 200.7 66.05 190.0 61.85 188.75 60.0 189.65 59.9 Q191.55 59.6 192.2 58.85 L192.2 58.75 199.15 63.9 199.25 61.1" fill="#3c3834" fill-rule="evenodd" stroke="none"/>
      <path d="M194.45 58.3 L195.6 59.0 198.65 59.2 199.25 61.1 199.15 63.9 192.2 58.75 192.2 58.7 194.45 58.3" fill="#262421" fill-rule="evenodd" stroke="none"/>
      <path d="M192.8 66.05 L193.15 66.75 194.65 69.55 196.4 74.9 199.3 71.15 199.3 71.2 200.55 82.3 205.3 80.05 203.1 102.0 203.1 102.1 193.3 89.2 193.55 89.95 196.5 98.05 193.45 95.85 191.1 94.5 191.35 93.5 190.7 87.85 190.7 86.9 191.1 86.6 194.9 90.05 Q196.55 91.35 198.1 91.35 L199.35 91.25 Q199.95 90.9 199.95 89.35 199.95 87.65 198.85 85.45 197.65 83.15 197.6 82.25 L197.35 78.3 Q197.25 76.85 196.95 76.1 L196.35 76.1 195.0 77.1 194.25 77.6 194.1 77.55 194.1 77.5 Q193.5 74.3 190.9 67.9 188.2 61.15 187.0 60.45 L188.15 60.85 192.8 66.05" fill="#3d3935" fill-rule="evenodd" stroke="none"/>
      <path d="M210.4 72.35 L210.8 73.7 199.25 70.7 199.2 70.5 196.75 73.6 194.65 69.55 193.15 66.75 193.35 66.8 193.4 66.85 210.4 72.35 M211.8 77.1 L212.85 80.15 212.4 81.3 205.3 80.05 200.55 82.3 199.3 71.2 211.8 77.1 M224.25 128.2 L216.45 128.2 193.55 89.95 193.3 89.2 203.1 102.1 203.1 102.0 224.25 128.2 M200.6 128.2 L184.5 128.2 Q188.15 124.75 190.2 120.75 191.95 117.25 191.0 111.9 L190.95 111.65 190.8 110.85 190.15 108.6 189.7 107.3 190.55 107.65 193.5 111.65 Q200.4 121.45 200.6 128.2" fill="#1a1817" fill-rule="evenodd" stroke="none"/>
      <path d="M51.95 84.2 L53.8 84.15 64.15 84.15 70.7 84.2 86.8 84.55 96.75 84.85 111.15 85.4 111.15 85.65 110.15 85.65 96.65 89.65 Q110.7 87.2 123.2 86.75 L128.5 86.65 140.3 86.55 154.0 86.35 155.15 86.35 155.95 86.45 156.75 85.85 160.65 86.3 167.2 86.75 172.8 86.05 176.6 85.35 177.2 85.35 Q177.45 85.4 177.5 85.75 L181.75 85.85 184.5 85.75 184.75 85.75 169.7 88.1 Q176.75 86.7 165.9 87.25 L165.75 87.1 158.3 87.25 158.5 87.55 158.4 87.75 Q156.15 88.6 155.25 89.25 L155.1 89.4 152.4 91.35 150.05 92.95 148.5 93.95 148.3 94.05 145.65 95.0 149.65 94.25 156.35 93.65 Q160.0 93.35 162.75 92.25 L165.25 91.3 168.5 90.05 Q171.1 88.95 171.5 88.25 L181.25 91.85 Q182.15 92.2 182.4 92.6 L183.75 94.75 183.8 94.85 184.65 95.8 178.7 93.85 175.35 92.75 174.75 93.1 Q166.35 97.85 162.4 98.9 L153.1 100.8 150.15 101.25 138.7 102.3 128.1 103.65 123.2 102.9 118.95 102.2 115.15 102.45 104.65 103.15 101.4 103.6 101.0 103.7 87.25 104.15 86.8 104.15 Q80.75 104.1 75.8 102.55 68.8 100.35 54.15 98.9 L52.25 98.9 52.15 98.8 52.2 98.9 49.9 98.9 53.95 98.2 58.75 98.15 73.95 100.55 86.8 102.2 99.25 102.9 104.6 102.4 108.65 101.9 Q107.65 99.3 105.55 97.85 L102.65 95.9 102.65 94.4 105.9 94.4 123.2 96.05 130.05 96.45 130.15 96.55 130.15 96.4 134.2 96.2 Q135.4 95.85 137.15 93.4 L136.4 93.4 123.2 93.2 115.45 92.9 102.15 92.15 83.4 89.9 80.35 89.75 68.95 90.4 Q75.45 87.75 75.35 86.85 L75.25 86.3 72.5 86.15 62.05 86.6 46.25 87.65 46.6 85.55 46.5 84.6 51.95 84.2 M38.45 86.65 L38.4 86.65 33.6 83.45 41.9 80.35 43.85 81.35 38.6 86.45 38.5 86.5 38.45 86.65 M139.6 91.0 L128.8 90.65 Q138.3 92.9 139.8 92.75 L146.65 91.4 Q150.45 90.35 146.2 88.35 141.95 86.35 142.3 87.9 L142.65 89.75 139.6 91.0 M130.35 101.65 L123.2 100.35 109.8 97.5 123.2 101.6 129.65 103.4 Q132.1 103.4 146.2 99.95 L130.35 101.65 M167.55 94.9 Q150.15 98.35 146.6 99.85 161.85 98.35 167.55 94.9" fill="#48443f" fill-rule="evenodd" stroke="none"/>
      <path d="M169.7 88.1 L184.75 85.75 184.5 85.75 181.75 85.85 177.5 85.75 Q177.45 85.4 177.2 85.35 L176.6 85.35 172.8 86.05 167.2 86.75 160.65 86.3 156.75 85.85 155.95 86.45 155.15 86.35 154.0 86.35 140.3 86.55 128.5 86.65 123.2 86.75 Q110.7 87.2 96.65 89.65 L110.15 85.65 111.15 85.65 111.15 85.4 96.75 84.85 86.8 84.55 70.7 84.2 64.15 84.15 53.8 84.15 51.95 84.2 76.1 81.15 76.1 81.35 76.2 81.25 86.8 82.05 87.05 82.05 96.75 82.3 104.35 82.5 118.2 82.7 120.05 82.7 123.2 82.65 134.2 81.85 147.45 80.65 151.05 80.45 163.3 79.95 Q172.25 79.35 175.1 80.1 L184.9 82.65 185.05 82.7 Q194.05 94.4 198.6 95.25 L203.0 95.05 206.6 97.95 206.25 97.95 202.75 97.9 199.85 97.9 199.1 97.85 196.15 97.4 197.25 98.8 198.4 100.15 197.5 100.15 194.4 99.8 192.55 99.55 187.6 98.8 Q190.3 99.6 194.05 101.3 L196.35 102.4 197.15 102.45 199.2 102.1 202.55 101.3 202.7 101.25 203.3 101.1 204.95 100.7 Q206.75 101.25 211.65 112.65 213.35 116.55 214.3 119.8 L212.8 118.2 212.55 117.85 Q207.95 115.15 202.45 109.5 L200.65 107.6 Q196.65 105.85 196.15 104.9 196.2 105.35 195.65 105.9 195.15 106.35 199.9 114.15 192.9 106.55 188.65 103.65 L184.9 100.9 184.55 101.15 184.4 101.25 184.4 100.7 184.4 100.25 Q184.4 99.9 184.55 99.7 L178.4 99.35 173.8 99.95 Q160.3 104.3 151.95 105.4 L151.15 105.4 131.85 106.35 Q126.85 107.65 126.65 112.65 126.35 111.6 126.05 107.2 125.85 104.15 124.75 104.15 L123.2 103.9 120.2 103.75 Q116.0 103.85 115.9 106.4 L113.45 106.05 110.5 105.65 110.75 105.6 110.9 105.65 110.9 105.4 110.75 105.6 109.35 105.65 100.25 107.0 89.15 108.9 86.8 109.15 Q83.6 109.85 82.95 112.3 82.55 113.7 82.45 116.65 L82.4 118.65 82.25 116.65 82.15 115.15 82.1 114.15 81.9 108.65 76.15 108.65 76.0 108.7 73.4 109.15 Q73.1 109.15 71.7 108.1 L69.9 106.65 Q69.05 105.9 65.0 105.9 63.2 105.9 62.7 106.5 62.35 106.85 62.15 108.4 L61.6 111.55 61.4 115.25 61.5 118.65 57.65 118.4 57.15 115.2 56.05 108.4 55.65 105.65 54.15 105.65 52.9 105.75 47.65 106.05 36.15 107.15 30.25 108.1 Q28.7 108.75 29.15 111.15 28.4 108.45 28.4 116.15 27.75 114.2 26.9 112.75 L26.65 110.9 25.6 111.0 Q23.2 108.3 19.5 108.35 L14.4 108.4 13.15 108.3 13.05 106.8 33.85 105.0 58.4 103.9 58.45 103.9 59.05 111.15 59.65 118.15 61.0 108.65 62.0 101.8 68.15 102.4 73.95 103.55 79.9 104.9 81.5 105.6 83.25 106.15 86.8 105.7 88.0 105.55 96.9 104.9 99.8 104.05 101.0 103.7 101.4 103.6 104.65 103.15 115.15 102.45 118.95 102.2 123.2 102.9 128.1 103.65 138.7 102.3 150.15 101.25 153.1 100.8 162.4 98.9 Q166.35 97.85 174.75 93.1 L175.35 92.75 178.7 93.85 184.65 95.8 183.8 94.85 183.75 94.75 182.4 92.6 Q182.15 92.2 181.25 91.85 L171.5 88.25 Q171.1 88.95 168.5 90.05 L165.25 91.3 162.75 92.25 Q160.0 93.35 156.35 93.65 L149.65 94.25 145.65 95.0 148.3 94.05 148.5 93.95 153.75 93.45 Q155.2 93.3 157.25 92.1 L159.75 90.25 160.6 89.55 169.25 88.15 169.7 88.1 M139.6 91.0 L142.65 89.75 142.3 87.9 Q141.95 86.35 146.2 88.35 150.45 90.35 146.65 91.4 L139.8 92.75 Q138.3 92.9 128.8 90.65 L139.6 91.0" fill="#363330" fill-rule="evenodd" stroke="none"/>
      <path d="M46.25 87.65 L62.05 86.6 72.5 86.15 75.25 86.3 75.35 86.85 Q75.45 87.75 68.95 90.4 L80.35 89.75 83.4 89.9 102.15 92.15 115.45 92.9 123.2 93.2 136.4 93.4 137.15 93.4 Q135.4 95.85 134.2 96.2 L130.15 96.4 130.15 96.55 130.05 96.45 123.2 96.05 105.9 94.4 102.65 94.4 102.65 95.9 105.55 97.85 Q107.65 99.3 108.65 101.9 L104.6 102.4 99.25 102.9 86.8 102.2 73.95 100.55 58.75 98.15 53.95 98.2 49.9 98.9 48.65 98.9 48.65 99.15 50.3 100.3 52.4 101.9 Q51.9 101.9 51.9 102.15 L21.05 105.25 14.1 105.9 Q20.9 103.5 25.75 101.1 L26.25 100.8 53.0 95.75 54.65 95.4 36.9 94.8 43.0 88.0 45.7 87.7 46.15 87.65 46.25 87.65 M148.5 93.95 L150.05 92.95 152.4 91.35 155.1 89.4 155.25 89.25 Q156.15 88.6 158.4 87.75 L158.5 87.55 158.3 87.25 165.75 87.1 165.9 87.25 Q176.75 86.7 169.7 88.1 L169.25 88.15 160.6 89.55 159.75 90.25 157.25 92.1 Q155.2 93.3 153.75 93.45 L148.5 93.95" fill="#54504a" fill-rule="evenodd" stroke="none"/>
      <path d="M206.6 97.95 L208.85 99.75 208.9 100.0 209.1 100.35 Q209.75 101.45 210.35 104.2 210.95 107.1 231.35 127.5 L209.65 131.35 206.35 126.45 Q204.25 123.0 203.4 120.15 L203.4 119.9 Q204.55 121.7 216.15 127.65 L214.75 121.5 214.45 120.4 214.9 120.4 215.4 120.4 Q214.85 120.2 214.3 119.8 213.35 116.55 211.65 112.65 206.75 101.25 204.95 100.7 L203.3 101.1 202.7 101.25 202.55 101.3 199.2 102.1 197.15 102.45 196.35 102.4 194.05 101.3 Q190.3 99.6 187.6 98.8 L192.55 99.55 194.4 99.8 197.5 100.15 198.4 100.15 197.25 98.8 196.15 97.4 199.1 97.85 199.85 97.9 202.75 97.9 206.25 97.95 206.6 97.95 M205.45 132.0 L198.45 133.05 197.9 132.4 197.8 132.45 Q197.65 132.5 197.65 132.65 197.05 131.7 194.1 124.2 191.05 116.3 190.65 114.4 L193.45 116.65 199.6 124.45 205.45 132.0 M191.3 134.1 L188.0 134.55 185.1 124.6 Q182.6 116.2 180.9 112.65 L180.05 110.1 Q179.7 108.7 179.15 108.4 178.55 108.05 174.7 106.95 L171.15 105.65 176.5 105.85 Q179.8 105.95 182.25 103.45 L184.4 101.25 Q184.5 107.15 185.7 113.65 187.35 122.55 191.3 134.1 M155.75 133.85 L153.6 130.95 152.95 118.7 154.15 118.9 156.9 119.4 156.8 120.95 Q156.5 127.7 155.75 133.85 M50.45 118.6 L48.2 127.25 40.9 130.55 41.45 127.9 43.55 119.35 45.95 119.1 50.45 118.6 M62.0 101.8 L61.0 108.65 59.65 118.15 59.05 111.15 58.45 103.9 58.4 103.9 54.25 101.0 58.45 101.45 62.0 101.8" fill="#1a1817" fill-rule="evenodd" stroke="none"/>
      <path d="M209.65 131.35 L205.45 132.0 199.6 124.45 193.45 116.65 194.95 117.9 Q198.65 120.9 200.15 121.15 L200.15 118.65 199.4 117.15 199.75 117.05 200.4 116.9 206.8 118.65 Q212.3 120.2 214.45 120.4 L214.75 121.5 216.15 127.65 Q204.55 121.7 203.4 119.9 L203.4 120.15 Q204.25 123.0 206.35 126.45 L209.65 131.35 M188.0 134.55 L184.95 135.0 Q182.6 129.45 180.9 123.9 L178.8 116.5 177.75 113.2 Q176.3 109.0 173.85 107.4 172.05 106.2 168.7 105.6 L171.15 105.65 174.7 106.95 Q178.55 108.05 179.15 108.4 179.7 108.7 180.05 110.1 L180.9 112.65 Q182.6 116.2 185.1 124.6 L188.0 134.55 M160.45 134.45 L156.1 134.3 155.7 134.25 155.75 133.85 Q156.5 127.7 156.8 120.95 L156.9 119.4 Q157.3 109.45 157.8 105.85 L158.2 106.55 Q158.8 108.9 158.65 119.75 L158.55 125.15 158.95 131.0 Q159.1 132.05 160.4 133.4 L160.45 134.45 M98.3 116.0 L97.3 116.05 96.8 116.1 85.7 116.65 83.95 116.7 84.45 115.25 85.4 112.65 Q86.65 113.05 89.45 114.55 91.5 115.65 93.0 115.65 L95.55 115.5 Q97.25 115.1 96.9 113.65 L97.15 114.0 96.95 112.45 98.3 116.0 M40.9 130.55 L40.75 131.05 34.65 131.5 38.2 125.2 39.4 122.95 44.9 112.65 Q45.6 113.65 45.8 116.8 L45.95 119.1 43.55 119.35 41.45 127.9 40.9 130.55 M26.25 100.8 L26.55 100.65 Q28.15 99.85 33.3 97.95 L33.75 97.75 34.05 97.1 34.85 97.05 53.0 95.75 26.25 100.8" fill="#292724" fill-rule="evenodd" stroke="none"/>
      <path d="M198.45 133.05 L192.85 133.9 187.95 114.55 184.55 101.15 184.9 100.9 188.65 103.65 Q192.9 106.55 199.9 114.15 195.15 106.35 195.65 105.9 196.2 105.35 196.15 104.9 196.65 105.85 200.65 107.6 L202.45 109.5 Q207.95 115.15 212.55 117.85 L212.8 118.2 214.3 119.8 Q214.85 120.2 215.4 120.4 L214.9 120.4 214.45 120.4 Q212.3 120.2 206.8 118.65 L200.4 116.9 199.75 117.05 199.4 117.15 200.15 118.65 200.15 121.15 Q198.65 120.9 194.95 117.9 L193.45 116.65 190.65 114.4 Q191.05 116.3 194.1 124.2 197.05 131.7 197.65 132.65 197.65 132.5 197.8 132.45 L197.9 132.4 198.45 133.05 M151.95 105.4 Q160.3 104.3 173.8 99.95 L178.4 99.35 184.55 99.7 Q184.4 99.9 184.4 100.25 L184.4 100.7 184.4 101.25 182.25 103.45 Q179.8 105.95 176.5 105.85 L171.15 105.65 168.7 105.6 167.2 105.6 157.85 105.45 151.95 105.4" fill="#32302c" fill-rule="evenodd" stroke="none"/>
      <path d="M192.85 133.9 L191.3 134.1 Q187.35 122.55 185.7 113.65 184.5 107.15 184.4 101.25 L184.55 101.15 187.95 114.55 192.85 133.9 M158.2 106.55 Q159.3 107.5 160.65 109.8 162.1 111.6 164.6 107.45 164.85 110.0 165.35 112.45 165.85 114.85 165.85 117.05 165.85 119.25 164.1 131.5 L164.05 133.05 160.4 133.4 Q159.1 132.05 158.95 131.0 L158.55 125.15 158.65 119.75 Q158.8 108.9 158.2 106.55" fill="#4e4944" fill-rule="evenodd" stroke="none"/>
      <path d="M152.95 118.7 L151.65 118.4 Q148.85 117.75 148.15 116.85 147.65 116.15 146.4 116.15 L138.75 117.65 128.35 116.75 Q129.35 111.75 130.4 109.65 131.35 107.7 141.4 106.65 L151.95 105.4 157.85 105.45 167.2 105.6 168.7 105.6 Q172.05 106.2 173.85 107.4 176.3 109.0 177.75 113.2 L178.8 116.5 Q178.55 118.3 178.25 122.75 177.9 127.8 177.4 129.4 176.35 132.4 169.85 132.8 L169.25 132.8 164.05 133.05 164.1 131.5 Q165.85 119.25 165.85 117.05 165.85 114.85 165.35 112.45 164.85 110.0 164.6 107.45 162.1 111.6 160.65 109.8 159.3 107.5 158.2 106.55 L157.8 105.85 Q157.0 105.6 155.45 113.2 L154.15 118.9 152.95 118.7 M125.95 116.55 L118.9 115.9 118.95 112.45 119.25 109.3 Q119.75 105.65 120.9 105.65 122.2 105.65 123.2 106.4 125.7 108.3 125.9 115.1 L125.95 116.55 M79.0 116.5 L73.15 115.65 68.65 114.65 66.05 116.65 Q63.75 118.3 62.5 118.6 63.6 114.5 63.4 113.15 L78.3 113.15 78.4 113.9 79.0 116.5 M57.65 118.4 L54.4 118.15 51.35 118.5 50.65 116.7 Q49.8 114.45 49.65 113.65 L49.35 112.75 48.9 111.15 Q48.9 109.85 50.25 108.4 L56.05 108.4 57.15 115.2 57.65 118.4 M11.95 129.85 L3.65 128.5 7.6 124.3 11.0 120.4 Q12.5 114.2 12.95 110.65 L17.65 110.15 18.9 110.15 Q18.4 110.65 18.4 111.9 18.4 112.6 18.9 113.15 19.35 113.65 19.9 113.65 20.55 113.65 21.25 112.65 22.05 111.5 23.15 111.15 L24.95 111.0 25.6 111.0 26.65 110.9 26.9 112.75 27.35 117.5 Q28.3 124.05 29.9 126.65 30.05 124.45 29.6 122.2 29.15 119.6 29.15 117.0 L29.3 114.05 29.65 110.65 35.65 109.8 40.15 109.2 40.3 109.3 Q42.15 110.6 42.15 111.65 42.15 113.7 40.2 118.0 L38.0 122.45 37.9 119.15 Q37.25 119.75 35.2 123.3 32.9 127.2 32.9 128.4 L31.15 128.4 19.65 126.15 18.1 120.0 Q16.95 115.45 17.15 113.9 15.55 117.55 14.75 121.45 14.3 123.5 13.8 126.6 13.3 128.8 12.05 129.75 L11.95 129.85 M113.45 106.05 Q115.1 106.8 115.7 108.3 L115.95 109.3 116.45 111.8 Q115.7 112.95 114.4 112.9 L109.9 113.1 102.5 113.4 Q100.5 113.4 98.55 112.4 L96.4 111.4 Q95.55 111.4 95.1 112.4 94.7 113.35 94.9 114.15 L92.15 114.15 91.5 112.7 Q93.6 110.8 97.9 109.3 L98.2 109.2 105.95 106.8 109.35 105.65 110.75 105.6 110.9 105.4 110.9 105.65 110.75 105.6 110.5 105.65 113.45 106.05 M112.5 115.35 L112.95 115.15 Q113.15 115.05 113.15 115.4 L112.5 115.35" fill="#3f3b37" fill-rule="evenodd" stroke="none"/>
      <path d="M184.95 135.0 L183.35 135.2 181.9 135.15 169.75 134.75 164.05 134.6 160.45 134.45 160.4 133.4 164.05 133.05 169.25 132.8 169.85 132.8 Q176.35 132.4 177.4 129.4 177.9 127.8 178.25 122.75 178.55 118.3 178.8 116.5 L180.9 123.9 Q182.6 129.45 184.95 135.0 M128.35 116.75 L126.05 116.55 125.95 116.55 125.9 115.1 Q125.7 108.3 123.2 106.4 122.2 105.65 120.9 105.65 119.75 105.65 119.25 109.3 L118.95 112.45 118.9 115.9 117.35 115.8 112.25 115.4 112.5 115.35 101.65 115.85 100.95 115.9 98.4 116.0 98.3 116.0 96.95 112.45 97.15 114.0 96.9 113.65 Q97.25 115.1 95.55 115.5 L93.0 115.65 Q91.5 115.65 89.45 114.55 86.65 113.05 85.4 112.65 L84.45 115.25 83.95 116.7 83.75 116.7 83.65 116.7 83.65 116.65 82.45 116.65 Q82.55 113.7 82.95 112.3 83.6 109.85 86.8 109.15 L89.15 108.9 100.25 107.0 109.35 105.65 105.95 106.8 98.2 109.2 97.9 109.3 Q93.6 110.8 91.5 112.7 L92.15 114.15 94.9 114.15 Q94.7 113.35 95.1 112.4 95.55 111.4 96.4 111.4 L98.55 112.4 Q100.5 113.4 102.5 113.4 L109.9 113.1 114.4 112.9 Q115.7 112.95 116.45 111.8 L115.95 109.3 115.7 108.3 Q115.1 106.8 113.45 106.05 L115.9 106.4 Q116.0 103.85 120.2 103.75 L123.2 103.9 124.75 104.15 Q125.85 104.15 126.05 107.2 126.35 111.6 126.65 112.65 126.85 107.65 131.85 106.35 L151.15 105.4 151.95 105.4 141.4 106.65 Q131.35 107.7 130.4 109.65 129.35 111.75 128.35 116.75 M82.25 116.65 L79.0 116.5 78.4 113.9 78.3 113.15 63.4 113.15 Q63.6 114.5 62.5 118.6 L62.0 118.65 61.5 118.65 61.4 115.25 61.6 111.55 62.15 108.4 Q62.35 106.85 62.7 106.5 63.2 105.9 65.0 105.9 69.05 105.9 69.9 106.65 L71.7 108.1 Q73.1 109.15 73.4 109.15 L76.0 108.7 76.15 108.65 81.9 108.65 82.1 114.15 82.15 115.15 82.25 116.65 M51.35 118.5 L51.25 118.55 50.45 118.6 45.95 119.1 45.8 116.8 Q45.6 113.65 44.9 112.65 L39.4 122.95 38.2 125.2 34.65 131.5 25.9 131.9 11.95 129.85 12.05 129.75 Q13.3 128.8 13.8 126.6 14.3 123.5 14.75 121.45 15.55 117.55 17.15 113.9 16.95 115.45 18.1 120.0 L19.65 126.15 31.15 128.4 32.9 128.4 Q32.9 127.2 35.2 123.3 37.25 119.75 37.9 119.15 L38.0 122.45 40.2 118.0 Q42.15 113.7 42.15 111.65 42.15 110.6 40.3 109.3 L40.15 109.2 35.65 109.8 29.65 110.65 29.3 114.05 29.15 117.0 Q29.15 119.6 29.6 122.2 30.05 124.45 29.9 126.65 28.3 124.05 27.35 117.5 L26.9 112.75 Q27.75 114.2 28.4 116.15 28.4 108.45 29.15 111.15 28.7 108.75 30.25 108.1 L36.15 107.15 47.65 106.05 52.9 105.75 54.15 105.65 55.65 105.65 56.05 108.4 50.25 108.4 48.2 108.4 47.15 109.65 Q47.15 110.0 48.25 111.2 L49.35 112.75 49.65 113.65 Q49.8 114.45 50.65 116.7 L51.35 118.5 M12.95 110.65 L13.15 108.3 14.4 108.4 19.5 108.35 Q23.2 108.3 25.6 111.0 L24.95 111.0 23.15 111.15 Q22.05 111.5 21.25 112.65 20.55 113.65 19.9 113.65 19.35 113.65 18.9 113.15 18.4 112.6 18.4 111.9 18.4 110.65 18.9 110.15 L17.65 110.15 12.95 110.65 M35.4 93.9 L38.45 86.65 38.5 86.5 38.6 86.45 43.85 81.35 41.9 80.35 43.45 79.75 46.35 81.9 44.35 83.05 41.75 87.15 35.4 93.9 M33.75 82.95 L41.0 56.35 41.2 58.35 40.6 77.3 33.75 82.95 M34.85 97.05 L36.9 94.8 54.65 95.4 53.0 95.75 34.85 97.05 M156.9 119.4 L154.15 118.9 155.45 113.2 Q157.0 105.6 157.8 105.85 157.3 109.45 156.9 119.4 M112.5 115.35 L113.15 115.4 Q113.15 115.05 112.95 115.15 L112.5 115.35" fill="#383531" fill-rule="evenodd" stroke="none"/>
      <path d="M34.8 95.4 L35.4 93.9 41.75 87.15 44.35 83.05 46.35 81.9 46.4 84.6 45.05 85.75 44.95 85.85 44.5 84.6 44.75 84.2 39.9 90.4 Q37.65 93.15 34.8 95.4 M33.65 83.3 L33.75 82.95 40.6 77.3 41.2 58.35 43.25 78.75 Q42.05 75.5 41.9 74.2 42.25 78.25 40.2 80.0 39.5 80.6 33.65 83.3" fill="#282623" fill-rule="evenodd" stroke="none"/>
      <path d="M33.6 83.45 L33.65 83.3 Q39.5 80.6 40.2 80.0 42.25 78.25 41.9 74.2 42.05 75.5 43.25 78.75 L43.3 79.65 43.45 79.75 41.9 80.35 33.6 83.45" fill="#141312" fill-rule="evenodd" stroke="none"/>
      <path d="M34.05 97.1 L34.8 95.4 Q37.65 93.15 39.9 90.4 L44.75 84.2 44.5 84.6 44.95 85.85 43.0 88.0 36.9 94.8 34.85 97.05 34.05 97.1" fill="#080807" fill-rule="evenodd" stroke="none"/>
      <path d="M49.9 98.9 L52.2 98.9 52.25 98.9 54.15 98.9 Q68.8 100.35 75.8 102.55 80.75 104.1 86.8 104.15 L87.25 104.15 101.0 103.7 99.8 104.05 96.9 104.9 88.0 105.55 86.8 105.7 83.25 106.15 81.5 105.6 79.9 104.9 73.95 103.55 68.15 102.4 62.0 101.8 58.45 101.45 54.25 101.0 58.4 103.9 33.85 105.0 13.05 106.8 13.0 106.7 13.25 106.2 14.05 105.9 14.1 105.9 21.05 105.25 51.9 102.15 Q51.9 101.9 52.4 101.9 L50.3 100.3 48.65 99.15 48.65 98.9 49.9 98.9 M52.75 100.65 L52.65 100.65 52.75 100.7 52.75 100.65 M130.35 101.65 L146.2 99.95 Q132.1 103.4 129.65 103.4 L123.2 101.6 109.8 97.5 123.2 100.35 130.35 101.65 M167.55 94.9 Q161.85 98.35 146.6 99.85 150.15 98.35 167.55 94.9" fill="#635e57" fill-rule="evenodd" stroke="none"/>
      <path d="M50.25 108.4 Q48.9 109.85 48.9 111.15 L49.35 112.75 48.25 111.2 Q47.15 110.0 47.15 109.65 L48.2 108.4 50.25 108.4" fill="#5a554f" fill-rule="evenodd" stroke="none"/>
      <path d="M185.05 82.7 Q194.05 94.4 198.6 95.25 L203.0 95.05 206.6 97.95 206.25 97.95 202.75 97.9 199.85 97.9 178.7 93.85 175.35 92.75 174.75 93.1 120.05 82.7 134.2 81.85 147.45 80.65 184.9 82.65 185.05 82.7" fill="url(#gradient7)" fill-rule="evenodd" stroke="none"/>
      <path d="M76.65 83.4 L87.05 82.05 96.75 82.3 104.35 82.5 96.75 84.85 80.35 89.75 70.1 92.75 Q40.75 101.3 21.05 105.25 L14.1 105.9 Q20.9 103.5 25.75 101.1 L26.25 100.8 26.55 100.65 Q28.25 99.8 33.75 97.75 L34.2 97.35 52.2 86.7 57.75 85.95 64.55 85.0 70.7 84.2 76.65 83.4" fill="url(#gradient8)" fill-rule="evenodd" stroke="none"/>
      <path d="M76.65 83.4 L70.7 84.2 64.55 85.0 57.75 85.95 52.2 86.7 34.2 97.35 42.6 88.0 45.8 84.55 62.25 83.45 Q79.05 82.75 76.65 83.4" fill="url(#gradient9)" fill-rule="evenodd" stroke="none"/>
      <path d="M38.45 86.65 L38.4 86.65 33.6 83.45 41.0 56.35 43.3 79.65 46.35 81.9 46.4 84.6 45.05 85.75 34.85 97.05 34.05 97.1 38.45 86.65" fill="#000000" fill-opacity="0.3882353" fill-rule="evenodd" stroke="none"/>
    </g>
    <linearGradient gradientTransform="matrix(-0.0353, -0.0142, 0.0131, -0.0326, 28.9, 80.7)" gradientUnits="userSpaceOnUse" id="gradient5" spreadMethod="pad" x1="-819.2" x2="819.2">
      <stop offset="0.00392156862745098" stop-color="#000000" stop-opacity="0.0"/>
      <stop offset="1.0" stop-color="#000000" stop-opacity="0.6156863"/>
    </linearGradient>
    <linearGradient gradientTransform="matrix(0.0211, -0.0242, 0.023, 0.0201, 179.25, 60.25)" gradientUnits="userSpaceOnUse" id="gradient6" spreadMethod="pad" x1="-819.2" x2="819.2">
      <stop offset="0.00392156862745098" stop-color="#000000" stop-opacity="0.0"/>
      <stop offset="1.0" stop-color="#000000" stop-opacity="0.6156863"/>
    </linearGradient>
    <linearGradient gradientTransform="matrix(0.0428, 0.0, 0.0, 0.0106, 164.6, 89.55)" gradientUnits="userSpaceOnUse" id="gradient7" spreadMethod="pad" x1="-819.2" x2="819.2">
      <stop offset="0.00392156862745098" stop-color="#000000" stop-opacity="0.0"/>
      <stop offset="1.0" stop-color="#000000" stop-opacity="0.6156863"/>
    </linearGradient>
    <linearGradient gradientTransform="matrix(-0.0531, 0.0145, -0.0038, -0.014, 41.55, 98.2)" gradientUnits="userSpaceOnUse" id="gradient8" spreadMethod="pad" x1="-819.2" x2="819.2">
      <stop offset="0.00392156862745098" stop-color="#000000" stop-opacity="0.0"/>
      <stop offset="1.0" stop-color="#000000" stop-opacity="0.6156863"/>
    </linearGradient>
    <linearGradient gradientTransform="matrix(-0.0531, 0.0145, -0.0038, -0.014, 41.55, 98.2)" gradientUnits="userSpaceOnUse" id="gradient9" spreadMethod="pad" x1="-819.2" x2="819.2">
      <stop offset="0.00392156862745098" stop-color="#000000" stop-opacity="0.0"/>
      <stop offset="0.984313725490196" stop-color="#000000" stop-opacity="0.972549"/>
    </linearGradient>
  </defs>
</svg>
