<?xml version="1.0" encoding="UTF-8" standalone="no"?>
<svg xmlns:xlink="http://www.w3.org/1999/xlink" height="100.0px" width="175.0px" xmlns="http://www.w3.org/2000/svg">
  <g transform="matrix(1.0, 0.0, 0.0, 1.0, 0.0, 0.0)">
    <use height="100.05" transform="matrix(1.0, 0.0, 0.0, 1.0, 49.75, -0.2)" width="95.55" xlink:href="#shape0"/>
  </g>
  <defs>
    <g id="shape0" transform="matrix(1.0, 0.0, 0.0, 1.0, -49.75, 0.2)">
      <path d="M135.1 64.3 Q126.1 77.85 109.0 80.5 91.75 83.15 76.3 73.45 61.0 63.8 56.35 47.35 51.75 31.05 60.6 17.5 69.6 4.05 86.75 1.45 103.95 -1.2 119.4 8.45 134.85 18.1 139.5 34.55 144.0 50.9 135.1 64.3" fill="#9c180e" fill-rule="evenodd" stroke="none"/>
      <path d="M89.95 0.9 Q76.95 2.55 67.95 10.45 58.8 18.5 57.15 30.4 L57.0 30.55 Q55.85 38.7 58.7 46.85 61.25 54.75 67.15 61.4 76.7 72.1 90.35 76.35 L95.2 77.6 95.35 77.6 Q103.6 79.35 111.2 78.35 124.05 76.85 133.05 68.95 142.3 60.8 144.0 48.85 L144.0 48.75 Q145.4 38.45 140.75 28.4 136.15 18.6 127.15 11.6 L125.6 10.45 Q116.85 4.05 105.9 1.8 98.3 0.05 89.95 0.9 M105.9 0.9 Q124.3 4.8 135.75 18.85 147.2 33.05 144.9 49.0 144.4 53.5 142.45 57.8 137.3 69.7 124.15 75.75 118.25 78.5 111.3 79.35 103.35 80.4 94.95 78.5 79.8 75.35 68.85 64.7 58.15 54.25 55.95 40.95 55.2 35.95 55.85 30.4 57.65 18.1 67.05 9.85 76.3 1.7 89.55 0.15 97.9 -0.85 105.9 0.9" fill="#949494" fill-rule="evenodd" stroke="none"/>
      <path d="M144.0 48.75 Q141.8 64.45 127.5 72.95 113.25 81.4 95.2 77.6 77.2 73.85 66.0 60.05 54.8 46.25 57.0 30.55 59.2 14.85 73.6 6.45 87.9 -2.1 105.9 1.8 123.9 5.55 135.0 19.25 146.2 33.05 144.0 48.75" fill="#424242" fill-rule="evenodd" stroke="none"/>
      <path d="M127.15 11.6 Q122.65 9.45 119.05 9.85 110.3 10.45 109.25 19.0 108.2 26.8 113.5 32.95 117.25 37.05 111.7 52.0 106.8 65.45 103.7 68.1 102.95 68.95 100.9 72.7 98.45 76.25 94.2 77.35 76.55 73.35 65.75 59.65 54.95 46.1 57.0 30.55 59.2 14.85 73.6 6.45 87.9 -2.1 105.9 1.8 117.5 4.2 127.15 11.6" fill="#3d3d3d" fill-rule="evenodd" stroke="none"/>
      <path d="M133.05 68.95 Q124.05 76.85 111.2 78.35 103.6 79.35 95.35 77.6 L95.2 77.6 94.2 77.35 Q98.45 76.25 100.9 72.7 102.95 68.95 103.7 68.1 106.8 65.45 111.7 52.0 117.25 37.05 113.5 32.95 L111.3 29.8 111.55 29.4 114.65 30.65 Q118.25 32.45 120.7 35.2 127.4 42.6 132.15 41.95 135.25 41.7 139.35 37.2 140.9 35.45 141.15 29.15 145.3 38.85 144.0 48.75 L144.0 48.85 Q142.3 60.8 133.05 68.95" fill="#4a4a4a" fill-rule="evenodd" stroke="none"/>
      <path d="M104.6 43.35 Q108.1 35.55 111.3 29.8 L113.5 32.95 Q117.25 37.05 111.7 52.0 106.8 65.45 103.7 68.1 102.95 68.95 100.9 72.7 98.45 76.25 94.2 77.35 L89.05 76.0 87.75 75.5 Q98.45 69.45 98.8 62.05 99.1 56.05 104.6 43.35" fill="#484848" fill-rule="evenodd" stroke="none"/>
      <path d="M124.95 57.15 Q119.95 65.7 109.1 67.55 98.3 69.6 88.0 63.8 77.85 58.15 74.1 48.1 70.4 38.1 75.4 29.55 80.4 21.15 91.25 19.1 101.9 17.1 112.2 22.75 122.5 28.55 126.25 38.6 129.95 48.6 124.95 57.15" fill="#363636" fill-rule="evenodd" stroke="none"/>
      <path d="M107.95 26.4 L107.85 26.15 Q107.95 26.05 108.2 26.3 L108.2 26.8 110.8 26.65 110.3 27.55 111.2 27.55 Q111.2 29.15 108.85 29.65 L105.9 29.8 106.55 28.8 105.65 29.15 Q103.2 30.05 101.8 29.15 102.8 28.4 104.85 27.65 L107.95 26.4" fill="#5c544b" fill-rule="evenodd" stroke="none"/>
      <path d="M105.65 25.65 L104.75 25.9 Q105.4 25.4 106.05 25.65 L106.05 26.15 Q105.5 26.65 104.6 26.4 105.0 25.9 105.65 25.65" fill="#5c544b" fill-rule="evenodd" stroke="none"/>
      <path d="M100.35 31.4 L100.25 31.8 100.9 31.8 Q100.65 32.8 99.85 33.05 L98.45 33.55 100.35 31.4" fill="#5c544b" fill-rule="evenodd" stroke="none"/>
      <path d="M116.6 30.9 L116.95 31.05 112.2 31.3 114.8 30.55 Q116.45 30.15 117.35 29.55 L116.6 30.9 M118.5 32.2 L118.15 33.55 119.05 33.45 117.1 35.95 117.75 34.05 116.35 34.8 116.95 33.45 Q116.05 32.95 114.65 32.95 L112.2 33.2 Q113.35 32.2 115.3 31.7 L118.0 31.15 117.5 32.55 118.5 32.2" fill="#5c544b" fill-rule="evenodd" stroke="none"/>
      <path d="M123.4 38.85 L123.0 39.2 122.25 40.85 Q124.7 38.2 125.7 37.95 L124.05 40.45 120.3 44.25 122.1 42.35 120.3 44.0 Q121.1 42.7 121.1 41.45 L119.3 41.95 123.0 39.2 123.15 38.95 123.4 38.85" fill="#5c544b" fill-rule="evenodd" stroke="none"/>
      <path d="M114.0 52.4 L111.3 54.9 Q112.35 54.75 113.5 53.75 113.35 53.75 113.35 53.9 114.5 53.75 116.6 52.65 L113.75 55.0 Q114.25 55.0 116.2 54.0 117.75 53.0 118.5 53.4 114.0 59.55 111.05 59.8 L114.15 57.15 111.8 58.8 109.5 59.8 107.7 60.8 Q106.55 61.4 105.9 61.05 107.85 60.05 108.85 59.3 110.4 58.15 111.3 56.15 110.55 56.05 109.25 57.05 107.7 58.3 107.05 58.3 108.5 56.8 111.55 54.4 L114.0 52.4" fill="#5c544b" fill-rule="evenodd" stroke="none"/>
      <path d="M106.15 56.4 L105.65 56.8 Q101.25 61.15 97.15 61.05 98.55 59.9 101.0 58.8 104.6 57.05 105.15 56.8 L106.15 56.4" fill="#5c544b" fill-rule="evenodd" stroke="none"/>
      <path d="M102.95 56.05 L103.05 56.3 Q101.15 57.55 100.5 57.4 101.4 56.65 102.95 56.05" fill="#5c544b" fill-rule="evenodd" stroke="none"/>
      <path d="M99.1 41.35 L98.7 41.35 Q97.8 43.35 95.2 45.6 96.4 45.5 97.55 44.5 98.95 43.1 99.1 41.35 M87.65 35.7 Q88.25 34.2 88.15 32.95 87.35 34.7 86.45 35.45 L84.65 36.3 85.3 36.7 85.45 37.05 82.75 37.2 Q80.95 36.95 80.05 37.55 L82.6 38.1 Q81.3 39.1 78.1 39.1 78.6 39.45 79.65 39.45 L81.2 39.35 Q80.7 39.95 79.5 40.2 78.35 40.45 77.85 40.85 79.25 41.1 81.85 40.2 81.3 41.2 80.15 42.1 L78.35 43.85 Q80.05 43.7 82.6 41.7 86.6 38.35 86.75 38.35 L85.2 39.7 Q84.3 40.35 84.05 41.6 L86.75 40.1 84.65 43.7 Q87.75 40.35 88.0 38.7 L86.85 39.2 87.1 37.95 86.6 37.95 Q86.75 37.3 87.65 35.7 M93.15 27.15 L97.4 27.15 97.4 26.05 98.95 28.15 99.75 28.15 Q100.1 28.3 100.25 29.3 97.8 29.8 94.3 31.8 89.95 34.45 89.7 37.2 91.25 37.3 93.15 36.55 L96.5 34.8 Q93.8 36.55 90.95 37.7 97.15 37.45 101.25 34.45 L99.35 36.3 Q101.4 37.55 104.75 35.55 108.75 33.2 110.15 33.2 L107.45 36.95 110.9 36.55 114.4 35.95 Q113.5 39.1 110.65 42.1 107.3 45.5 106.4 47.5 109.9 44.5 111.95 44.0 101.9 54.75 95.75 57.05 97.15 53.4 100.65 49.75 L106.3 44.6 Q110.8 39.6 112.2 38.35 110.65 37.95 109.25 40.2 105.25 42.85 100.9 46.35 98.7 48.25 97.3 50.15 L98.8 49.9 Q95.5 52.65 93.55 55.15 L93.8 57.05 Q92.8 57.55 91.25 56.65 L91.35 54.9 Q91.35 53.9 91.9 53.15 90.45 53.0 87.0 54.4 83.9 55.5 82.1 54.9 L82.35 53.65 84.95 52.65 Q90.35 50.75 92.4 49.25 L91.35 49.25 Q91.75 48.1 92.8 46.85 L94.45 45.0 93.4 45.1 92.5 44.85 Q93.15 43.6 94.95 42.45 96.65 41.35 97.3 39.85 L95.75 41.1 Q94.85 41.7 94.2 41.6 L94.85 39.85 93.4 41.6 Q92.4 42.6 92.15 43.6 L92.65 42.95 Q90.6 47.5 88.25 48.35 L88.9 48.6 Q88.15 50.25 86.1 51.0 L84.05 51.65 84.95 51.75 82.5 53.15 82.85 52.25 80.55 52.25 78.1 51.9 Q78.1 50.25 78.75 49.25 L84.4 46.5 85.85 45.75 Q86.75 45.25 87.25 45.75 89.3 44.25 89.8 42.85 L87.25 44.0 Q85.55 44.6 84.95 45.75 L84.65 45.75 83.0 46.1 78.0 45.6 Q75.0 45.25 73.2 44.0 73.45 42.95 75.3 41.45 L74.25 39.95 Q75.0 39.1 76.45 38.6 L78.75 37.95 Q78.35 37.7 77.7 36.45 78.5 35.45 80.15 34.95 L82.75 33.7 82.6 32.95 Q85.2 30.3 90.05 30.05 90.2 27.3 93.15 27.15" fill="#5c544b" fill-rule="evenodd" stroke="none"/>
      <path d="M105.0 53.9 Q106.05 51.65 107.7 49.6 L105.0 51.75 Q109.75 47.25 112.2 43.85 L113.5 43.7 114.8 42.45 113.6 43.7 115.7 43.45 Q116.95 42.85 119.05 40.6 110.0 53.15 105.0 53.9" fill="#5c544b" fill-rule="evenodd" stroke="none"/>
      <path d="M61.0 73.7 Q59.85 75.85 56.85 78.75 L52.1 74.75 50.05 72.35 51.35 71.45 Q51.6 71.35 52.9 72.2 54.3 73.2 55.95 73.1 59.3 72.95 61.1 71.45 L61.5 71.85 Q61.75 72.45 61.0 73.7" fill="url(#gradient0)" fill-rule="evenodd" stroke="none"/>
      <path d="M55.6 80.25 Q57.25 80.75 57.0 81.4 56.75 81.9 55.85 81.9 54.05 81.25 52.35 79.85 51.75 79.35 51.2 77.85 50.85 76.5 51.1 76.1 51.2 75.85 51.75 75.75 52.0 75.6 52.25 75.6 52.0 76.6 52.9 78.1 53.9 79.75 55.6 80.25" fill="url(#gradient1)" fill-rule="evenodd" stroke="none"/>
      <path d="M54.7 78.85 Q53.15 75.85 51.6 76.35 50.85 76.6 51.75 78.35 52.65 80.0 54.15 80.75 54.95 81.0 55.05 80.4 L54.7 78.85 M49.8 73.95 Q49.55 70.6 50.95 72.95 52.35 75.35 59.45 78.85 60.75 79.6 63.7 87.55 55.7 83.65 52.1 79.5 50.05 77.25 49.8 73.95" fill="url(#gradient2)" fill-rule="evenodd" stroke="none"/>
      <path d="M83.25 92.55 Q83.65 91.15 84.4 89.55 85.85 86.55 87.9 86.0 L96.1 83.4 98.05 88.8 92.25 95.55 Q86.35 94.2 83.25 92.55" fill="#614122" fill-rule="evenodd" stroke="none"/>
      <path d="M55.7 76.5 L57.4 74.6 Q59.6 72.45 61.75 71.95 L62.0 73.35 Q62.65 75.1 64.7 77.25 69.25 81.65 75.65 81.9 L88.15 81.65 Q94.45 82.0 96.1 83.4 L95.1 83.75 Q93.55 84.75 91.1 87.4 L87.35 91.15 58.7 85.4 55.7 76.5" fill="#805223" fill-rule="evenodd" stroke="none"/>
      <path d="M56.25 76.6 Q57.9 76.6 59.3 77.35 60.75 78.1 61.1 79.5 61.4 80.75 63.05 82.15 64.35 83.25 65.5 83.65 L70.75 83.5 Q71.95 83.4 73.85 84.25 75.65 85.15 75.8 85.75 75.9 86.55 76.7 87.4 77.6 88.3 78.6 88.55 L83.65 90.4 76.7 89.05 Q76.05 88.4 76.05 87.9 75.65 85.75 73.85 84.75 71.95 83.75 69.75 84.4 67.7 84.9 65.5 84.4 63.55 83.9 62.4 82.75 L61.0 80.75 Q60.35 79.5 59.2 78.6 57.9 77.6 55.95 77.35 L55.7 76.5 56.25 76.6" fill="#613f1d" fill-rule="evenodd" stroke="none"/>
      <path d="M62.3 80.25 L60.75 77.75 Q59.2 75.85 56.35 75.6 L57.15 74.85 Q59.3 75.6 60.85 76.85 61.5 77.35 62.4 79.1 63.2 80.75 64.2 81.4 65.35 82.15 67.55 82.25 L71.05 82.25 Q72.85 82.4 78.9 85.75 81.45 87.15 84.4 87.4 86.1 87.55 89.3 87.3 L91.25 87.3 90.7 87.8 84.05 87.8 Q81.3 87.65 78.9 86.4 76.2 84.75 74.1 83.75 72.05 82.75 68.95 82.75 L64.7 82.4 Q63.2 81.75 62.3 80.25" fill="#613f1d" fill-rule="evenodd" stroke="none"/>
      <path d="M62.3 73.95 Q60.85 73.45 60.6 72.35 L61.25 72.1 61.9 72.85 62.3 73.95" fill="#613f1d" fill-rule="evenodd" stroke="none"/>
      <path d="M62.0 75.35 L63.7 76.1 64.7 77.1 64.45 77.1 Q61.0 76.0 59.2 73.1 L59.85 72.7 Q60.35 74.35 62.0 75.35" fill="#613f1d" fill-rule="evenodd" stroke="none"/>
      <path d="M95.2 83.65 L94.85 84.0 Q93.55 83.0 90.7 81.9 L93.7 82.4 95.2 83.65" fill="#613f1d" fill-rule="evenodd" stroke="none"/>
      <path d="M57.65 74.35 L58.55 73.6 58.7 73.7 Q59.95 75.75 63.8 77.5 L66.9 79.0 Q68.45 80.25 71.3 81.25 L72.2 81.65 Q73.35 82.25 77.2 82.5 L82.85 83.0 Q85.7 83.65 90.95 85.75 L92.4 86.0 91.9 86.65 87.9 85.15 Q85.2 83.9 81.2 83.4 L75.55 82.75 Q70.5 82.15 67.45 80.25 63.3 78.5 61.65 76.85 60.2 75.5 57.65 74.35" fill="#613f1d" fill-rule="evenodd" stroke="none"/>
      <path d="M93.3 85.25 Q89.7 83.5 85.05 82.75 L80.3 81.75 82.1 81.65 85.95 82.25 89.7 83.0 93.8 84.75 93.3 85.25" fill="#613f1d" fill-rule="evenodd" stroke="none"/>
      <path d="M85.95 85.15 Q86.85 85.65 86.1 86.3 L83.4 86.65 Q81.85 86.55 80.15 85.5 L78.9 84.5 81.3 85.65 84.8 85.75 Q84.95 85.15 84.05 84.75 83.25 84.4 82.35 84.4 81.2 84.4 82.35 85.15 82.75 85.25 82.85 84.75 83.9 85.65 83.0 85.65 82.35 85.65 81.45 85.0 80.55 84.4 80.95 84.0 L83.25 84.15 85.95 85.15" fill="#613f1d" fill-rule="evenodd" stroke="none"/>
      <path d="M63.7 79.1 L64.6 80.5 Q65.5 81.4 66.4 80.75 66.8 80.5 66.15 80.25 65.75 80.0 65.35 80.0 L65.9 80.5 Q65.1 80.5 64.7 79.85 64.6 79.35 65.35 79.6 66.15 79.85 66.8 80.4 67.55 80.75 66.8 81.15 66.15 81.5 65.1 81.15 64.35 80.75 63.95 79.85 L63.7 79.1" fill="#613f1d" fill-rule="evenodd" stroke="none"/>
      <path d="M58.55 85.75 Q56.85 84.15 55.7 80.65 55.2 79.1 55.45 77.5 L55.7 76.25 58.55 79.25 Q62.8 82.9 70.15 85.5 79.0 88.8 89.7 88.8 L92.25 95.55 Q84.95 95.8 73.85 92.45 66.15 90.05 61.65 87.65 60.1 86.8 58.55 85.75" fill="#cf8740" fill-rule="evenodd" stroke="none"/>
      <path d="M57.75 84.9 L57.25 84.0 Q58.8 84.65 61.5 86.65 L65.0 89.3 61.65 87.65 61.5 87.65 Q60.1 85.75 57.75 84.9" fill="#ab6f34" fill-rule="evenodd" stroke="none"/>
      <path d="M65.6 88.3 L69.6 91.05 66.9 90.05 62.3 86.0 Q60.75 84.65 56.75 83.15 L56.35 82.4 58.3 83.25 Q60.5 84.25 65.6 88.3" fill="#ab6f34" fill-rule="evenodd" stroke="none"/>
      <path d="M90.05 89.9 L88.15 90.15 Q83.4 90.9 79.4 89.05 78.1 88.55 75.9 87.15 L78.75 87.8 Q83.15 89.9 87.35 89.4 L89.8 89.05 90.05 89.9" fill="#ab6f34" fill-rule="evenodd" stroke="none"/>
      <path d="M57.0 82.25 Q56.6 81.9 56.1 81.9 L55.95 81.15 56.5 81.4 Q58.05 82.15 68.05 88.65 70.15 89.9 73.75 91.55 77.35 93.05 79.25 93.45 81.95 93.95 88.9 93.3 L91.5 93.7 91.6 94.05 86.6 94.2 81.7 94.45 75.0 92.8 74.35 92.55 70.5 90.9 Q68.45 89.8 66.4 88.05 L61.0 84.4 57.0 82.25" fill="#ab6f34" fill-rule="evenodd" stroke="none"/>
      <path d="M55.7 80.65 L55.6 80.25 Q56.6 80.5 59.95 82.65 L71.55 89.8 Q73.35 90.8 76.3 91.65 79.25 92.55 80.7 92.45 L89.05 92.15 91.1 92.55 91.25 93.05 82.2 92.8 77.2 92.55 Q74.75 91.4 72.55 90.55 69.85 89.4 65.9 86.9 L60.1 83.0 Q57.0 81.0 55.7 80.65" fill="#ab6f34" fill-rule="evenodd" stroke="none"/>
      <path d="M89.8 95.55 L87.5 95.3 89.95 94.7 91.9 94.55 92.0 95.2 89.8 95.55" fill="#ab6f34" fill-rule="evenodd" stroke="none"/>
      <path d="M55.6 76.75 L56.25 77.0 57.5 78.5 55.45 77.35 55.6 76.75" fill="#ab6f34" fill-rule="evenodd" stroke="none"/>
      <path d="M57.65 80.4 Q56.1 79.35 55.45 79.35 L55.45 78.35 56.1 78.75 60.85 82.0 65.5 85.0 69.6 86.15 74.35 87.65 Q81.6 90.8 86.6 91.15 L90.45 90.9 90.7 91.65 89.45 91.65 Q84.4 91.9 77.35 89.15 75.4 88.4 67.45 86.15 65.5 85.65 62.3 83.5 L57.65 80.4" fill="#ab6f34" fill-rule="evenodd" stroke="none"/>
      <path d="M73.45 89.9 Q76.45 91.65 79.9 91.8 77.85 92.15 75.0 90.9 69.6 88.4 70.75 88.05 71.3 87.8 74.9 88.8 78.35 89.8 79.25 90.55 80.05 91.3 78.9 91.3 L76.55 90.8 74.75 90.05 Q73.85 89.55 74.35 89.55 75.15 89.4 75.65 89.8 L75.3 89.8 Q75.0 89.9 75.55 90.15 L77.45 90.4 Q77.35 90.15 75.65 89.65 74.0 88.9 73.1 88.8 71.4 88.65 73.45 89.9" fill="#ab6f34" fill-rule="evenodd" stroke="none"/>
      <path d="M114.0 91.55 L114.8 95.2 110.9 99.7 Q107.45 98.95 100.9 95.2 L90.85 89.15 Q91.5 87.9 93.3 86.3 L95.6 84.65 96.4 84.4 100.25 87.15 Q105.75 90.15 114.0 91.55" fill="url(#gradient3)" fill-rule="evenodd" stroke="none"/>
      <path d="M109.75 94.55 L111.05 93.2 Q112.35 93.2 113.0 92.55 L114.15 91.9 114.8 95.2 110.9 99.7 109.1 98.45 109.75 94.55" fill="url(#gradient4)" fill-rule="evenodd" stroke="none"/>
      <path d="M110.8 99.85 L92.9 94.8 90.7 89.15 109.75 94.55 Q109.1 95.2 110.3 97.2 111.45 99.1 110.8 99.85" fill="url(#gradient5)" fill-rule="evenodd" stroke="none"/>
      <path d="M110.8 99.85 L98.8 96.45 Q94.6 93.3 93.7 90.05 L109.5 94.45 Q108.85 95.05 110.15 97.05 111.45 99.1 110.8 99.85" fill="url(#gradient6)" fill-rule="evenodd" stroke="none"/>
    </g>
    <linearGradient gradientTransform="matrix(0.0016, 0.0018, -0.0018, 0.0015, 52.1, 72.6)" gradientUnits="userSpaceOnUse" id="gradient0" spreadMethod="pad" x1="-819.2" x2="819.2">
      <stop offset="0.0" stop-color="#4f4f4f"/>
      <stop offset="1.0" stop-color="#303030"/>
    </linearGradient>
    <linearGradient gradientTransform="matrix(0.003, 0.0012, -0.0012, 0.0029, 53.15, 78.6)" gradientUnits="userSpaceOnUse" id="gradient1" spreadMethod="pad" x1="-819.2" x2="819.2">
      <stop offset="0.0" stop-color="#4a4a4a"/>
      <stop offset="0.33725490196078434" stop-color="#838383"/>
      <stop offset="0.7686274509803922" stop-color="#d1d1d1"/>
      <stop offset="0.8588235294117647" stop-color="#cfcfcf"/>
      <stop offset="0.8941176470588236" stop-color="#c8c8c8"/>
      <stop offset="0.9254901960784314" stop-color="#bbbbbb"/>
      <stop offset="0.9490196078431372" stop-color="#a9a9a9"/>
      <stop offset="0.9686274509803922" stop-color="#929292"/>
      <stop offset="0.9882352941176471" stop-color="#767676"/>
      <stop offset="1.0" stop-color="#5e5e5e"/>
    </linearGradient>
    <linearGradient gradientTransform="matrix(-0.002, -4.0E-4, 4.0E-4, -0.002, 59.05, 79.25)" gradientUnits="userSpaceOnUse" id="gradient2" spreadMethod="pad" x1="-819.2" x2="819.2">
      <stop offset="0.0" stop-color="#a6a6a6"/>
      <stop offset="1.0" stop-color="#d9d9d9"/>
    </linearGradient>
    <linearGradient gradientTransform="matrix(0.0077, 0.0077, -0.0079, 0.0076, 100.5, 90.65)" gradientUnits="userSpaceOnUse" id="gradient3" spreadMethod="pad" x1="-819.2" x2="819.2">
      <stop offset="0.0" stop-color="#1c1c1c"/>
      <stop offset="1.0" stop-color="#333333"/>
    </linearGradient>
    <linearGradient gradientTransform="matrix(0.0017, 0.0013, -0.0013, 0.0016, 111.45, 95.3)" gradientUnits="userSpaceOnUse" id="gradient4" spreadMethod="pad" x1="-819.2" x2="819.2">
      <stop offset="0.0" stop-color="#696969"/>
      <stop offset="1.0" stop-color="#8a8a8a"/>
    </linearGradient>
    <linearGradient gradientTransform="matrix(0.0068, 0.0078, -0.008, 0.0067, 97.9, 93.45)" gradientUnits="userSpaceOnUse" id="gradient5" spreadMethod="pad" x1="-819.2" x2="819.2">
      <stop offset="0.0" stop-color="#636363"/>
      <stop offset="0.5176470588235295" stop-color="#9c9c9c"/>
      <stop offset="1.0" stop-color="#d4d4d4"/>
    </linearGradient>
    <linearGradient gradientTransform="matrix(-0.0051, -0.0056, 0.0057, -0.005, 100.35, 93.95)" gradientUnits="userSpaceOnUse" id="gradient6" spreadMethod="pad" x1="-819.2" x2="819.2">
      <stop offset="0.0" stop-color="#616161"/>
      <stop offset="0.49019607843137253" stop-color="#9a9a9a"/>
      <stop offset="1.0" stop-color="#d9d9d9"/>
    </linearGradient>
  </defs>
</svg>
