<?xml version="1.0" encoding="UTF-8" standalone="no"?>
<svg xmlns:xlink="http://www.w3.org/1999/xlink" height="35.6px" width="45.0px" xmlns="http://www.w3.org/2000/svg">
  <g transform="matrix(1.0, 0.0, 0.0, 1.0, 0.0, 0.0)">
    <use height="35.6" transform="matrix(1.0, 0.0, 0.0, 1.0, 0.0, 0.0)" width="45.0" xlink:href="#shape0"/>
  </g>
  <defs>
    <g id="shape0" transform="matrix(1.0, 0.0, 0.0, 1.0, 0.0, 0.0)">
      <path d="M44.7 33.8 L45.0 35.6 44.5 35.6 43.4 34.7 38.3 27.3 Q34.1 21.2 29.4 15.5 24.4 9.25 17.5 5.15 13.95 3.15 12.75 7.05 L11.25 5.75 Q10.85 -0.95 17.4 0.15 20.5 0.65 23.2 2.65 28.5 6.05 32.5 11.05 34.1 12.75 35.3 14.7 37.5 22.7 41.6 29.8 42.8 32.0 44.7 33.8 M7.55 14.5 L2.15 9.65 Q-0.55 7.45 0.15 4.35 L1.65 4.45 Q4.65 11.65 12.05 16.5 L21.0 23.1 Q28.2 28.4 36.1 32.6 L40.6 34.9 Q38.3 34.4 36.1 33.4 28.4 29.5 21.3 24.7 14.05 19.8 7.55 14.5" fill="#afb979" fill-rule="evenodd" stroke="none"/>
      <path d="M41.5 35.2 Q32.9 34.8 25.0 31.3 18.0 27.6 11.55 23.0 6.95 19.8 7.55 14.5 14.05 19.8 21.3 24.7 28.4 29.5 36.1 33.4 38.3 34.4 40.6 34.9 L41.5 35.2" fill="#666600" fill-rule="evenodd" stroke="none"/>
      <path d="M44.7 33.8 Q42.8 32.0 41.6 29.8 37.5 22.7 35.3 14.7 41.9 20.6 43.9 28.7 44.5 31.3 44.7 33.8 M11.25 5.75 L12.75 7.05 16.35 10.55 Q15.05 10.45 13.95 11.55 L13.75 11.75 Q24.5 24.5 39.2 33.2 41.4 34.5 43.9 35.5 L43.4 34.7 44.5 35.6 41.5 35.2 40.6 34.9 36.1 32.6 Q28.2 28.4 21.0 23.1 L12.05 16.5 Q4.65 11.65 1.65 4.45 L11.25 5.75" fill="#7d8747" fill-rule="evenodd" stroke="none"/>
      <path d="M43.4 34.7 L43.9 35.5 Q41.4 34.5 39.2 33.2 24.5 24.5 13.75 11.75 L13.95 11.55 Q15.05 10.45 16.35 10.55 21.7 16.8 27.7 22.2 33.9 27.6 40.8 32.7 L43.4 34.7" fill="#5b6334" fill-rule="evenodd" stroke="none"/>
      <path d="M12.75 7.05 Q13.95 3.15 17.5 5.15 24.4 9.25 29.4 15.5 34.1 21.2 38.3 27.3 L43.4 34.7 40.8 32.7 Q33.9 27.6 27.7 22.2 21.7 16.8 16.35 10.55 L12.75 7.05" fill="#9aa657" fill-rule="evenodd" stroke="none"/>
    </g>
  </defs>
</svg>
