<?xml version="1.0" encoding="UTF-8" standalone="no"?>
<svg xmlns:xlink="http://www.w3.org/1999/xlink" height="94.15px" width="207.4px" xmlns="http://www.w3.org/2000/svg">
  <g transform="matrix(1.0, 0.0, 0.0, 1.0, 0.0, 0.0)">
    <use height="69.7" transform="matrix(1.0, 0.0, 0.0, 1.0, 12.25, 92.5)" width="183.35" xlink:href="#shape0"/>
    <use height="0.0" id="price_tag_pt" transform="matrix(1.0, 0.0, 0.0, 1.0, 111.0, 168.1)" width="0.0" xlink:href="#sprite0"/>
  </g>
  <defs>
    <g id="shape0" transform="matrix(1.0, 0.0, 0.0, 1.0, -12.25, -92.5)">
      <path d="M55.1 126.85 L55.1 126.6 55.15 124.85 55.05 123.7 54.75 121.8 55.25 122.35 55.55 122.95 55.55 124.7 56.15 127.65 55.9 128.2 Q55.65 128.5 55.7 128.85 L55.95 129.35 56.2 129.75 Q55.3 130.1 54.95 130.35 L56.4 130.25 Q56.4 131.25 54.4 131.5 L53.0 131.65 52.75 131.65 53.4 131.2 Q53.85 131.3 54.3 131.0 L54.9 130.65 54.6 130.55 54.55 130.4 54.55 130.3 55.0 129.5 Q55.45 128.95 55.2 128.25 L55.1 126.85" fill="#90ab27" fill-rule="evenodd" stroke="none"/>
      <path d="M54.75 121.8 L54.75 121.7 55.9 121.85 56.25 122.25 56.5 123.85 56.7 125.55 56.6 126.5 56.55 127.5 Q56.7 128.95 56.5 129.3 L57.4 130.55 57.35 130.65 Q57.8 131.6 56.15 132.05 L53.75 132.45 52.2 132.55 52.4 132.05 52.3 132.05 52.25 131.85 52.75 131.65 53.0 131.65 54.4 131.5 Q56.4 131.25 56.4 130.25 L54.95 130.35 Q55.3 130.1 56.2 129.75 L55.95 129.35 55.7 128.85 Q55.65 128.5 55.9 128.2 L56.15 127.65 55.55 124.7 55.55 122.95 55.25 122.35 54.75 121.8 M53.4 131.2 L54.05 130.75 54.55 130.4 54.6 130.55 54.9 130.65 54.3 131.0 Q53.85 131.3 53.4 131.2" fill="#617809" fill-rule="evenodd" stroke="none"/>
      <path d="M54.05 130.75 L55.1 126.85 55.2 128.25 Q55.45 128.95 55.0 129.5 L54.55 130.3 54.55 130.4 54.05 130.75" fill="#adc64a" fill-rule="evenodd" stroke="none"/>
      <path d="M52.95 150.25 L52.5 150.4 52.45 149.85 Q53.0 149.65 53.8 148.7 L54.75 147.35 54.4 145.4 53.3 145.45 52.85 145.15 52.8 144.95 53.45 144.45 53.75 143.6 Q53.85 143.25 54.45 143.0 54.95 142.85 54.9 142.45 L53.9 142.5 Q53.1 142.5 53.05 142.15 53.0 141.8 53.75 141.5 54.1 141.3 54.6 141.15 55.05 140.9 54.95 140.05 L54.75 138.9 55.2 136.8 55.5 134.55 Q55.35 133.4 54.4 133.45 L52.1 133.9 52.15 132.85 52.4 132.85 53.6 132.8 53.65 132.8 54.9 132.7 54.95 132.7 57.4 131.8 57.5 132.8 57.4 133.35 56.6 133.45 Q56.2 133.6 56.25 133.95 56.3 134.4 57.1 134.3 L57.2 135.0 Q56.65 135.45 56.25 137.15 55.8 138.9 56.2 140.15 56.7 141.65 56.05 143.1 55.4 144.3 54.65 144.65 L54.7 145.05 55.4 145.15 55.55 145.95 Q55.7 147.4 54.9 148.5 L52.95 150.25" fill="#c11103" fill-rule="evenodd" stroke="none"/>
      <path d="M57.4 130.55 L57.6 130.85 57.95 132.2 58.3 133.55 Q58.4 134.0 57.5 138.35 L56.45 143.55 56.1 147.5 Q55.45 149.1 52.95 150.25 L54.9 148.5 Q55.7 147.4 55.55 145.95 L55.4 145.15 54.7 145.05 54.65 144.65 Q55.4 144.3 56.05 143.1 56.7 141.65 56.2 140.15 55.8 138.9 56.25 137.15 56.65 135.45 57.2 135.0 L57.1 134.3 Q56.3 134.4 56.25 133.95 56.2 133.6 56.6 133.45 L57.4 133.35 57.5 132.8 57.4 131.8 54.95 132.7 54.9 132.7 53.65 132.8 53.6 132.8 52.4 132.85 52.15 132.85 52.2 132.55 53.75 132.45 56.15 132.05 Q57.8 131.6 57.35 130.65 L57.4 130.55 M53.1 148.1 L53.5 147.3 53.4 146.85 53.95 146.75 54.05 147.35 53.1 148.1" fill="#a00f04" fill-rule="evenodd" stroke="none"/>
      <path d="M52.8 134.6 L52.85 134.5 53.5 134.5 53.65 135.1 53.55 137.85 53.0 140.75 52.8 139.25 52.6 136.45 Q52.5 135.25 52.8 134.6 M53.75 142.8 L53.8 143.0 53.5 143.65 Q53.35 143.95 52.9 143.9 52.7 142.55 53.75 142.8" fill="#ffe1de" fill-rule="evenodd" stroke="none"/>
      <path d="M52.45 149.85 Q52.55 149.15 52.95 148.35 L53.1 148.1 54.05 147.35 53.95 146.75 53.4 146.85 53.2 146.35 Q52.95 145.85 52.85 145.15 L53.3 145.45 54.4 145.4 54.75 147.35 53.8 148.7 Q53.0 149.65 52.45 149.85 M52.8 144.95 L52.75 144.65 52.6 143.15 52.3 136.8 52.1 133.95 52.1 133.9 54.4 133.45 Q55.35 133.4 55.5 134.55 L55.2 136.8 54.75 138.9 54.95 140.05 Q55.05 140.9 54.6 141.15 54.1 141.3 53.75 141.5 53.0 141.8 53.05 142.15 53.1 142.5 53.9 142.5 L54.9 142.45 Q54.95 142.85 54.45 143.0 53.85 143.25 53.75 143.6 L53.45 144.45 52.8 144.95 M52.85 134.5 L52.8 134.5 52.8 134.6 Q52.5 135.25 52.6 136.45 L52.8 139.25 53.0 140.75 53.55 137.85 53.65 135.1 53.5 134.5 52.85 134.5 M53.75 142.8 Q52.7 142.55 52.9 143.9 53.35 143.95 53.5 143.65 L53.8 143.0 53.75 142.8" fill="#dd1303" fill-rule="evenodd" stroke="none"/>
      <path d="M72.1 127.8 L72.3 127.55 72.45 127.45 72.55 127.45 72.45 128.85 71.9 129.0 71.9 129.45 72.25 130.6 72.55 132.4 71.35 135.8 71.8 136.65 72.8 137.3 73.8 137.15 74.2 137.55 72.25 137.95 72.1 137.95 70.35 136.8 71.15 134.55 71.3 133.4 Q71.45 132.85 72.0 132.9 L72.0 132.55 71.45 129.25 Q71.45 128.85 71.8 128.45 L72.1 127.8" fill="#86795f" fill-rule="evenodd" stroke="none"/>
      <path d="M68.85 137.1 Q69.85 136.75 70.2 136.3 70.7 135.3 70.7 134.15 L70.6 133.35 71.45 131.85 71.25 128.8 Q71.45 128.2 71.9 127.85 L72.1 127.8 71.8 128.45 Q71.45 128.85 71.45 129.25 L72.0 132.55 72.0 132.9 Q71.45 132.85 71.3 133.4 L71.15 134.55 70.35 136.8 72.1 137.95 Q68.9 137.9 68.7 137.1 L68.85 137.1" fill="#615845" fill-rule="evenodd" stroke="none"/>
      <path d="M72.45 128.85 Q72.4 130.9 72.8 133.85 L72.6 134.35 Q72.3 134.95 72.3 135.35 72.3 136.35 72.8 136.6 L73.8 137.15 72.8 137.3 71.8 136.65 71.35 135.8 72.55 132.4 72.25 130.6 71.9 129.45 71.9 129.0 72.45 128.85" fill="#c0af8b" fill-rule="evenodd" stroke="none"/>
      <path d="M74.2 137.55 L74.55 137.8 74.55 137.95 74.4 137.95 74.35 137.95 71.95 138.2 68.85 137.95 68.4 137.95 68.4 140.55 68.7 142.3 Q69.0 143.25 69.85 143.35 L69.35 144.1 Q69.35 144.4 69.95 144.75 70.4 145.05 70.65 145.0 L69.85 145.45 Q69.65 145.6 69.65 146.2 69.65 146.6 69.95 147.0 70.2 147.35 70.5 147.35 L72.55 146.75 73.7 146.75 72.6 147.4 Q71.65 148.0 71.65 148.3 71.65 149.05 72.4 150.1 73.1 151.1 73.8 151.1 74.75 151.1 75.65 150.45 L76.5 149.85 76.55 150.25 76.5 150.6 76.15 150.9 75.9 151.1 73.6 152.2 Q73.05 152.2 71.95 150.15 L70.3 147.7 69.4 146.75 68.75 144.9 Q67.7 142.65 67.7 141.55 L67.85 140.2 67.7 138.45 Q67.7 137.9 68.05 137.45 68.4 137.1 68.75 137.0 L68.85 137.1 68.7 137.1 Q68.9 137.9 72.1 137.95 L72.25 137.95 74.2 137.55" fill="#465706" fill-rule="evenodd" stroke="none"/>
      <path d="M76.05 149.6 Q76.35 149.65 76.5 149.85 L75.65 150.45 Q74.75 151.1 73.8 151.1 73.1 151.1 72.4 150.1 71.65 149.05 71.65 148.3 71.65 148.0 72.6 147.4 L73.7 146.75 72.55 146.75 70.5 147.35 Q70.2 147.35 69.95 147.0 69.65 146.6 69.65 146.2 69.65 145.6 69.85 145.45 L70.65 145.0 Q70.4 145.05 69.95 144.75 69.35 144.4 69.35 144.1 L69.85 143.35 Q69.0 143.25 68.7 142.3 L68.4 140.55 68.4 137.95 68.85 137.95 71.95 138.2 74.35 137.95 74.4 137.95 71.6 138.7 Q69.85 138.95 69.85 139.75 69.85 142.65 70.65 142.65 71.15 142.65 72.4 142.05 L72.8 142.05 72.8 142.65 Q70.85 143.35 70.45 143.6 L70.95 144.1 71.75 144.15 73.45 143.95 Q73.4 144.65 72.45 145.1 L70.8 145.75 70.8 146.05 73.05 145.85 Q74.2 145.85 74.2 147.05 74.2 147.9 73.8 148.4 73.45 148.85 73.45 149.05 L73.7 150.3 74.35 150.3 Q74.6 150.15 75.5 149.8 L76.05 149.6" fill="#526310" fill-rule="evenodd" stroke="none"/>
      <path d="M74.55 137.95 L74.9 144.65 Q75.05 145.85 75.75 146.55 L76.4 147.5 76.15 148.3 Q75.75 148.95 75.75 149.5 L76.05 149.6 75.5 149.8 Q74.6 150.15 74.35 150.3 L73.7 150.3 73.45 149.05 Q73.45 148.85 73.8 148.4 74.2 147.9 74.2 147.05 74.2 145.85 73.05 145.85 L70.8 146.05 70.8 145.75 72.45 145.1 Q73.4 144.65 73.45 143.95 L71.75 144.15 70.95 144.1 70.45 143.6 Q70.85 143.35 72.8 142.65 L72.8 142.05 72.4 142.05 Q71.15 142.65 70.65 142.65 69.85 142.65 69.85 139.75 69.85 138.95 71.6 138.7 L74.4 137.95 74.55 137.95 M74.1 139.55 Q74.05 139.35 73.55 139.2 L73.8 141.5 73.25 143.1 74.25 144.15 74.2 140.25 74.1 139.55 M74.05 144.95 L74.05 145.3 74.35 145.6 74.4 145.7 74.7 146.25 75.1 147.35 74.7 148.55 74.7 148.95 75.5 148.4 76.05 147.55 74.35 144.9 74.05 144.95" fill="#6e821d" fill-rule="evenodd" stroke="none"/>
      <path d="M74.1 139.55 L74.2 140.25 74.25 144.15 73.25 143.1 73.8 141.5 73.55 139.2 Q74.05 139.35 74.1 139.55" fill="#f6ffd4" fill-rule="evenodd" stroke="none"/>
      <path d="M74.05 144.95 L74.35 144.9 76.05 147.55 75.5 148.4 74.7 148.95 74.7 148.55 75.1 147.35 74.7 146.25 74.4 145.7 74.35 145.6 74.05 145.3 74.05 144.95" fill="#d0de97" fill-rule="evenodd" stroke="none"/>
      <path d="M174.2 117.05 L174.1 115.65 174.2 115.65 174.35 115.75 174.55 116.0 174.85 116.65 175.2 117.45 174.65 120.75 174.65 121.1 Q175.2 121.05 175.35 121.6 L175.5 122.75 176.3 125.0 174.55 126.15 174.4 126.15 172.45 125.75 172.85 125.35 173.85 125.5 Q174.35 125.5 174.85 124.85 L175.3 124.0 174.1 120.6 Q174.1 119.65 174.4 118.8 L174.75 117.65 174.75 117.2 174.2 117.05" fill="#90ab27" fill-rule="evenodd" stroke="none"/>
      <path d="M174.55 126.15 L176.3 125.0 175.5 122.75 175.35 121.6 Q175.2 121.05 174.65 121.1 L174.65 120.75 175.2 117.45 174.85 116.65 174.55 116.0 174.75 116.05 175.4 117.0 175.2 120.05 Q175.2 120.4 176.05 121.55 L175.95 122.35 Q175.95 123.5 176.45 124.5 176.8 124.95 177.8 125.3 L177.95 125.3 Q177.75 126.1 174.55 126.15" fill="#617809" fill-rule="evenodd" stroke="none"/>
      <path d="M174.2 117.05 L174.75 117.2 174.75 117.65 174.4 118.8 Q174.1 119.65 174.1 120.6 L175.3 124.0 174.85 124.85 Q174.35 125.5 173.85 125.5 L172.85 125.35 173.85 124.8 Q174.35 124.55 174.35 123.55 L174.05 122.55 173.85 122.05 174.2 117.05" fill="#adc64a" fill-rule="evenodd" stroke="none"/>
      <path d="M172.45 125.75 L174.4 126.15 174.55 126.15 Q177.75 126.1 177.95 125.3 L177.8 125.3 177.9 125.2 Q178.25 125.3 178.6 125.65 178.95 126.1 178.95 126.65 L178.8 128.4 178.95 129.75 Q178.95 130.85 177.9 133.1 L177.25 134.95 176.35 135.9 174.7 138.35 Q173.6 140.4 173.05 140.4 L170.75 139.3 170.5 139.1 170.15 138.8 170.1 138.45 170.15 138.05 171.0 138.65 Q171.9 139.3 172.85 139.3 173.55 139.3 174.25 138.3 175.0 137.25 175.0 136.5 175.0 136.2 174.05 135.6 L172.95 134.95 174.1 134.95 176.15 135.55 176.7 135.2 177.0 134.4 176.8 133.65 176.0 133.2 176.7 132.95 Q177.3 132.6 177.3 132.3 L176.8 131.55 Q177.65 131.45 177.95 130.5 L178.25 128.75 178.25 126.15 177.8 126.15 174.7 126.4 172.3 126.15 172.25 126.15 172.1 126.15 172.1 126.0 172.45 125.75" fill="#465706" fill-rule="evenodd" stroke="none"/>
      <path d="M170.15 138.05 Q170.3 137.85 170.6 137.8 L171.15 138.0 172.3 138.5 172.95 138.5 173.2 137.25 172.85 136.6 Q172.45 136.1 172.45 135.25 172.45 134.05 173.6 134.05 L175.85 134.25 175.85 133.95 174.2 133.3 Q173.25 132.85 173.2 132.15 L174.9 132.35 175.7 132.3 176.2 131.8 173.85 130.85 173.85 130.25 174.25 130.25 Q175.5 130.85 176.0 130.85 176.8 130.85 176.8 127.95 176.8 127.15 175.05 126.9 L172.25 126.15 172.3 126.15 174.7 126.4 177.8 126.15 178.25 126.15 178.25 128.75 177.95 130.5 Q177.65 131.45 176.8 131.55 L177.3 132.3 Q177.3 132.6 176.7 132.95 L176.0 133.2 176.8 133.65 177.0 134.4 176.7 135.2 176.15 135.55 174.1 134.95 172.95 134.95 174.05 135.6 Q175.0 136.2 175.0 136.5 175.0 137.25 174.25 138.3 173.55 139.3 172.85 139.3 171.9 139.3 171.0 138.65 L170.15 138.05" fill="#526310" fill-rule="evenodd" stroke="none"/>
      <path d="M170.6 137.8 L170.9 137.7 Q170.9 137.15 170.5 136.5 L170.25 135.7 Q170.25 135.4 170.9 134.75 171.6 134.05 171.75 132.85 L172.1 126.15 172.25 126.15 175.05 126.9 Q176.8 127.15 176.8 127.95 176.8 130.85 176.0 130.85 175.5 130.85 174.25 130.25 L173.85 130.25 173.85 130.85 176.2 131.8 175.7 132.3 174.9 132.35 173.2 132.15 Q173.25 132.85 174.2 133.3 L175.85 133.95 175.85 134.25 173.6 134.05 Q172.45 134.05 172.45 135.25 172.45 136.1 172.85 136.6 L173.2 137.25 172.95 138.5 172.3 138.5 171.15 138.0 170.6 137.8 M172.55 127.75 L172.45 128.45 172.4 132.35 173.4 131.3 Q172.85 130.2 172.85 129.7 L173.1 127.4 172.55 127.75 M172.6 133.5 L172.6 133.15 172.3 133.1 170.6 135.75 Q170.6 136.1 171.15 136.6 L171.95 137.15 171.95 136.75 171.55 135.55 171.95 134.45 172.25 133.9 172.3 133.8 172.6 133.5" fill="#6e821d" fill-rule="evenodd" stroke="none"/>
      <path d="M172.55 127.75 L173.1 127.4 172.85 129.7 Q172.85 130.2 173.4 131.3 L172.4 132.35 172.45 128.45 172.55 127.75" fill="#f6ffd4" fill-rule="evenodd" stroke="none"/>
      <path d="M172.6 133.5 L172.3 133.8 172.25 133.9 171.95 134.45 171.55 135.55 171.95 136.75 171.95 137.15 171.15 136.6 Q170.6 136.1 170.6 135.75 L172.3 133.1 172.6 133.15 172.6 133.5" fill="#d0de97" fill-rule="evenodd" stroke="none"/>
      <path d="M88.6 132.0 L89.35 131.7 90.5 134.65 89.85 136.9 89.15 138.4 Q89.15 138.7 90.4 139.3 L90.9 139.95 91.15 140.4 91.25 140.7 91.05 140.8 Q88.95 141.75 88.05 142.0 L87.9 142.05 87.1 142.05 87.0 142.05 87.0 141.8 87.65 141.65 89.3 141.25 89.55 140.65 89.85 140.0 89.3 139.35 88.7 138.55 Q88.7 138.05 89.4 136.65 L90.05 135.0 89.7 134.25 89.85 133.65 89.3 132.6 88.6 132.0" fill="#617809" fill-rule="evenodd" stroke="none"/>
      <path d="M87.65 141.65 L87.65 141.6 88.15 140.95 88.2 140.45 88.7 140.4 88.7 140.0 88.4 138.0 88.8 136.8 89.15 134.45 88.95 133.95 88.95 133.85 88.85 133.5 88.45 132.05 88.6 132.0 89.3 132.6 89.85 133.65 89.7 134.25 90.05 135.0 89.4 136.65 Q88.7 138.05 88.7 138.55 L89.3 139.35 89.85 140.0 89.55 140.65 89.3 141.25 87.65 141.65" fill="#90ab27" fill-rule="evenodd" stroke="none"/>
      <path d="M88.2 140.45 L88.25 139.85 88.1 138.5 87.9 137.75 Q87.9 137.3 88.4 136.6 L88.95 135.1 89.0 134.7 89.0 134.6 88.95 133.95 89.15 134.45 88.8 136.8 88.4 138.0 88.7 140.0 88.7 140.4 88.2 140.45" fill="#adc64a" fill-rule="evenodd" stroke="none"/>
      <path d="M91.05 140.8 Q91.75 140.8 91.85 141.55 L92.0 142.4 92.15 143.1 Q92.15 144.6 91.45 146.3 90.7 148.05 90.7 148.9 L91.05 152.0 90.75 152.9 Q90.4 153.4 90.4 153.65 L90.6 154.15 90.8 154.7 89.95 156.35 89.4 157.4 88.95 158.55 88.55 158.55 88.4 157.95 88.45 157.95 88.9 157.4 89.35 155.95 89.6 154.7 89.7 154.15 89.8 154.1 89.25 153.95 Q88.85 153.95 88.45 154.25 L88.35 154.35 88.35 154.25 88.05 153.25 88.0 153.2 90.1 152.65 Q90.1 152.15 90.35 151.8 L90.6 151.2 90.3 150.0 90.1 148.1 Q90.1 146.9 90.8 145.15 L91.6 143.35 91.6 143.0 91.3 143.0 88.65 143.9 88.15 143.9 88.15 143.75 89.95 142.9 91.45 141.9 91.45 141.35 88.8 142.35 Q87.65 142.7 87.2 143.25 L86.6 143.7 86.2 143.55 86.2 143.5 Q86.2 143.25 86.65 142.7 L87.1 142.1 87.1 142.05 87.9 142.05 88.05 142.0 Q88.95 141.75 91.05 140.8" fill="#c1a64b" fill-rule="evenodd" stroke="none"/>
      <path d="M88.4 157.95 L88.3 157.4 88.3 157.3 88.45 157.0 88.7 155.95 88.7 155.0 88.1 155.25 88.15 155.0 88.25 154.6 88.35 154.35 88.45 154.25 Q88.85 153.95 89.25 153.95 L89.8 154.1 89.7 154.15 89.6 154.7 89.35 155.95 88.9 157.4 88.45 157.95 88.4 157.95 M88.0 153.2 Q87.8 152.85 87.75 152.3 L88.1 152.35 Q88.95 152.35 88.95 152.0 L88.7 151.9 88.7 151.65 89.2 150.7 89.55 149.55 88.95 147.4 Q88.95 146.25 89.45 144.25 L89.45 143.9 88.1 144.2 87.4 144.2 87.4 144.1 87.8 143.5 86.8 144.4 86.5 144.65 86.2 143.55 86.6 143.7 87.2 143.25 Q87.65 142.7 88.8 142.35 L91.45 141.35 91.45 141.9 89.95 142.9 88.15 143.75 88.15 143.9 88.65 143.9 91.3 143.0 91.6 143.0 91.6 143.35 90.8 145.15 Q90.1 146.9 90.1 148.1 L90.3 150.0 90.6 151.2 90.35 151.8 Q90.1 152.15 90.1 152.65 L88.0 153.2 M87.6 150.6 L87.45 149.85 87.4 149.6 87.85 149.85 88.55 149.9 88.55 150.25 87.6 150.6" fill="#ceb45d" fill-rule="evenodd" stroke="none"/>
      <path d="M88.3 157.3 L88.25 157.0 88.1 155.45 88.1 155.25 88.7 155.0 88.7 155.95 88.45 157.0 88.3 157.3 M87.75 152.3 L87.7 151.45 87.6 150.6 88.55 150.25 88.55 149.9 87.85 149.85 87.4 149.6 87.15 148.65 86.7 145.3 86.5 144.65 86.8 144.4 87.8 143.5 87.4 144.1 87.4 144.2 88.1 144.2 89.45 143.9 89.45 144.25 Q88.95 146.25 88.95 147.4 L89.55 149.55 89.2 150.7 88.7 151.65 88.7 151.9 88.95 152.0 Q88.95 152.35 88.1 152.35 L87.75 152.3 M88.05 144.8 L87.65 144.95 Q86.9 145.25 86.9 145.7 L87.85 147.6 88.2 148.75 88.6 149.45 Q89.15 149.45 89.15 149.0 L88.45 147.15 Q87.8 145.85 87.8 145.4 L88.05 144.8 M88.35 151.1 L88.1 151.05 87.8 151.55 87.8 151.7 88.15 151.75 88.55 151.4 88.35 151.1" fill="#e2ca79" fill-rule="evenodd" stroke="none"/>
      <path d="M88.05 144.8 L87.8 145.4 Q87.8 145.85 88.45 147.15 L89.15 149.0 Q89.15 149.45 88.6 149.45 L88.2 148.75 87.85 147.6 86.9 145.7 Q86.9 145.25 87.65 144.95 L88.05 144.8" fill="#fff2ad" fill-rule="evenodd" stroke="none"/>
      <path d="M88.35 151.1 L88.55 151.4 88.15 151.75 87.8 151.7 87.8 151.55 88.1 151.05 88.35 151.1" fill="#fff9d7" fill-rule="evenodd" stroke="none"/>
      <path d="M104.55 133.6 L105.05 134.15 105.35 134.75 105.35 136.5 105.95 139.45 105.7 140.0 Q105.45 140.3 105.5 140.65 L105.75 141.15 106.0 141.55 Q105.1 141.9 104.75 142.15 L106.2 142.05 Q106.2 143.05 104.2 143.3 L102.8 143.45 102.55 143.45 103.2 143.0 104.1 142.8 104.7 142.45 104.4 142.35 104.35 142.2 104.35 142.1 104.8 141.3 Q105.25 140.75 105.0 140.05 L104.9 138.65 104.9 138.4 104.95 136.65 104.85 135.5 104.55 133.6" fill="#90ab27" fill-rule="evenodd" stroke="none"/>
      <path d="M104.55 133.6 L104.55 133.5 105.7 133.65 106.05 134.05 106.3 135.65 106.5 137.35 106.4 138.3 106.35 139.3 Q106.5 140.75 106.3 141.1 L107.2 142.35 107.15 142.45 Q107.6 143.4 105.95 143.85 L103.55 144.25 102.0 144.35 102.2 143.85 102.1 143.85 102.05 143.65 102.55 143.45 102.8 143.45 104.2 143.3 Q106.2 143.05 106.2 142.05 L104.75 142.15 Q105.1 141.9 106.0 141.55 L105.75 141.15 105.5 140.65 Q105.45 140.3 105.7 140.0 L105.95 139.45 105.35 136.5 105.35 134.75 105.05 134.15 104.55 133.6 M103.85 142.55 L104.35 142.2 104.4 142.35 104.7 142.45 104.1 142.8 103.2 143.0 103.85 142.55" fill="#617809" fill-rule="evenodd" stroke="none"/>
      <path d="M104.9 138.65 L105.0 140.05 Q105.25 140.75 104.8 141.3 L104.35 142.1 104.35 142.2 103.85 142.55 104.9 138.65" fill="#adc64a" fill-rule="evenodd" stroke="none"/>
      <path d="M102.0 144.35 L103.55 144.25 105.95 143.85 Q107.6 143.4 107.15 142.45 L107.2 142.35 107.4 142.65 107.75 144.0 108.1 145.35 Q108.2 145.8 107.3 150.15 L106.25 155.35 Q106.2 158.55 105.9 159.3 105.25 160.9 102.75 162.05 L104.7 160.3 Q105.5 159.2 105.35 157.75 L105.2 156.95 104.5 156.85 104.45 156.45 Q105.2 156.1 105.85 154.9 106.5 153.45 106.0 151.95 105.6 150.7 106.05 148.95 106.45 147.25 107.0 146.8 L106.9 146.1 Q106.1 146.2 106.05 145.75 106.0 145.4 106.4 145.25 L107.2 145.15 107.3 144.6 107.2 143.6 104.75 144.5 104.7 144.5 103.45 144.6 103.4 144.6 102.2 144.65 101.95 144.65 102.0 144.35 M102.9 159.9 L103.3 159.1 103.2 158.65 103.75 158.55 103.85 159.15 102.9 159.9" fill="#a00f04" fill-rule="evenodd" stroke="none"/>
      <path d="M102.75 162.05 L102.3 162.2 102.25 161.65 103.6 160.5 104.55 159.15 104.2 157.2 103.1 157.25 102.65 156.95 102.6 156.75 Q103.05 156.75 103.25 156.25 L103.55 155.4 Q103.65 155.05 104.25 154.8 104.75 154.65 104.7 154.25 L103.7 154.3 Q102.9 154.3 102.85 153.95 102.8 153.6 103.55 153.3 103.9 153.1 104.4 152.95 104.85 152.7 104.75 151.85 L104.55 150.7 105.0 148.6 105.3 146.35 Q105.15 145.2 104.2 145.25 L101.9 145.7 101.95 144.65 102.2 144.65 103.4 144.6 103.45 144.6 104.7 144.5 104.75 144.5 107.2 143.6 107.3 144.6 107.2 145.15 106.4 145.25 Q106.0 145.4 106.05 145.75 106.1 146.2 106.9 146.1 L107.0 146.8 Q106.45 147.25 106.05 148.95 105.6 150.7 106.0 151.95 106.5 153.45 105.85 154.9 105.2 156.1 104.45 156.45 L104.5 156.85 105.2 156.95 105.35 157.75 Q105.5 159.2 104.7 160.3 L102.75 162.05" fill="#c11103" fill-rule="evenodd" stroke="none"/>
      <path d="M102.6 146.4 L102.65 146.3 103.3 146.3 103.45 146.9 103.35 149.65 102.8 152.55 102.6 151.05 102.4 148.25 Q102.3 147.05 102.6 146.4 M103.6 154.8 L103.3 155.45 Q103.15 155.75 102.7 155.7 102.5 154.35 103.55 154.6 L103.6 154.8" fill="#ffe1de" fill-rule="evenodd" stroke="none"/>
      <path d="M102.25 161.65 Q102.35 160.95 102.75 160.15 L102.9 159.9 103.85 159.15 103.75 158.55 103.2 158.65 103.0 158.15 Q102.75 157.65 102.65 156.95 L103.1 157.25 104.2 157.2 104.55 159.15 103.6 160.5 102.25 161.65 M102.6 156.75 L102.55 156.45 102.4 154.95 102.1 148.6 101.9 145.75 101.9 145.7 104.2 145.25 Q105.15 145.2 105.3 146.35 L105.0 148.6 104.55 150.7 104.75 151.85 Q104.85 152.7 104.4 152.95 103.9 153.1 103.55 153.3 102.8 153.6 102.85 153.95 102.9 154.3 103.7 154.3 L104.7 154.25 Q104.75 154.65 104.25 154.8 103.65 155.05 103.55 155.4 L103.25 156.25 Q103.05 156.75 102.6 156.75 M102.65 146.3 L102.6 146.3 102.6 146.4 Q102.3 147.05 102.4 148.25 L102.6 151.05 102.8 152.55 103.35 149.65 103.45 146.9 103.3 146.3 102.65 146.3 M103.6 154.8 L103.55 154.6 Q102.5 154.35 102.7 155.7 103.15 155.75 103.3 155.45 L103.6 154.8" fill="#dd1303" fill-rule="evenodd" stroke="none"/>
      <path d="M121.35 134.15 L121.55 133.9 121.7 133.8 121.8 133.8 121.7 135.2 121.15 135.35 121.15 135.8 121.5 136.95 121.8 138.75 120.6 142.15 121.05 143.0 Q121.55 143.65 122.05 143.65 L123.05 143.5 123.45 143.9 121.5 144.3 121.35 144.3 119.6 143.15 120.4 140.9 120.55 139.75 Q120.7 139.2 121.25 139.25 L121.25 138.9 120.7 135.6 Q120.7 135.2 121.05 134.8 L121.35 134.15" fill="#86795f" fill-rule="evenodd" stroke="none"/>
      <path d="M121.7 135.2 Q121.65 137.25 122.05 140.2 L121.85 140.7 Q121.55 141.3 121.55 141.7 121.55 142.7 122.05 142.95 L123.05 143.5 122.05 143.65 Q121.55 143.65 121.05 143.0 L120.6 142.15 121.8 138.75 121.5 136.95 121.15 135.8 121.15 135.35 121.7 135.2" fill="#c0af8b" fill-rule="evenodd" stroke="none"/>
      <path d="M123.45 143.9 L123.8 144.15 123.8 144.3 123.65 144.3 123.6 144.3 121.2 144.55 118.1 144.3 117.65 144.3 117.65 146.9 117.95 148.65 Q118.25 149.6 119.1 149.7 118.6 150.25 118.6 150.45 L119.2 151.1 119.9 151.35 119.1 151.8 118.9 152.55 Q118.9 152.95 119.2 153.35 119.45 153.7 119.75 153.7 120.5 153.7 121.8 153.1 L122.95 153.1 121.85 153.75 Q120.9 154.35 120.9 154.65 120.9 155.4 121.65 156.45 122.35 157.45 123.05 157.45 124.0 157.45 124.9 156.8 L125.75 156.2 125.8 156.6 125.75 156.95 125.4 157.25 125.15 157.45 122.85 158.55 Q122.3 158.55 121.2 156.5 L119.55 154.05 Q118.8 153.55 118.65 153.1 L118.0 151.25 Q116.95 149.0 116.95 147.9 L117.1 146.55 116.95 144.8 Q116.95 144.25 117.3 143.8 117.65 143.45 118.0 143.35 L118.1 143.45 117.95 143.45 Q118.15 144.25 121.35 144.3 L121.5 144.3 123.45 143.9" fill="#465706" fill-rule="evenodd" stroke="none"/>
      <path d="M125.3 155.95 Q125.6 156.0 125.75 156.2 L124.9 156.8 Q124.0 157.45 123.05 157.45 122.35 157.45 121.65 156.45 120.9 155.4 120.9 154.65 120.9 154.35 121.85 153.75 L122.95 153.1 121.8 153.1 Q120.5 153.7 119.75 153.7 119.45 153.7 119.2 153.35 118.9 152.95 118.9 152.55 L119.1 151.8 119.9 151.35 119.2 151.1 118.6 150.45 Q118.6 150.25 119.1 149.7 118.25 149.6 117.95 148.65 L117.65 146.9 117.65 144.3 118.1 144.3 121.2 144.55 123.6 144.3 123.65 144.3 120.85 145.05 Q119.1 145.3 119.1 146.1 119.1 149.0 119.9 149.0 120.4 149.0 121.65 148.4 L122.05 148.4 122.05 149.0 Q120.1 149.7 119.7 149.95 L120.2 150.45 121.0 150.5 122.7 150.3 Q122.65 151.0 121.7 151.45 L120.05 152.1 120.05 152.4 122.3 152.2 Q123.45 152.2 123.45 153.4 123.45 154.25 123.05 154.75 122.7 155.2 122.7 155.4 L122.95 156.65 123.6 156.65 124.75 156.15 125.3 155.95" fill="#526310" fill-rule="evenodd" stroke="none"/>
      <path d="M123.8 144.3 L124.15 151.0 Q124.3 152.2 125.0 152.9 L125.65 153.85 125.4 154.65 Q125.0 155.3 125.0 155.85 L125.3 155.95 124.75 156.15 123.6 156.65 122.95 156.65 122.7 155.4 Q122.7 155.2 123.05 154.75 123.45 154.25 123.45 153.4 123.45 152.2 122.3 152.2 L120.05 152.4 120.05 152.1 121.7 151.45 Q122.65 151.0 122.7 150.3 L121.0 150.5 120.2 150.45 119.7 149.95 Q120.1 149.7 122.05 149.0 L122.05 148.4 121.65 148.4 Q120.4 149.0 119.9 149.0 119.1 149.0 119.1 146.1 119.1 145.3 120.85 145.05 L123.65 144.3 123.8 144.3 M122.8 145.55 L123.05 147.85 122.5 149.45 123.5 150.5 123.45 146.6 123.35 145.9 122.8 145.55 M123.3 151.3 L123.3 151.65 123.6 151.95 123.65 152.05 123.95 152.6 124.35 153.7 Q124.35 154.2 123.95 154.9 L123.95 155.3 124.75 154.75 125.3 153.9 123.6 151.25 123.3 151.3" fill="#6e821d" fill-rule="evenodd" stroke="none"/>
      <path d="M122.8 145.55 L123.35 145.9 123.45 146.6 123.5 150.5 122.5 149.45 123.05 147.85 122.8 145.55" fill="#f6ffd4" fill-rule="evenodd" stroke="none"/>
      <path d="M118.1 143.45 L119.45 142.65 Q119.95 141.65 119.95 140.5 L119.85 139.7 120.7 138.2 120.5 135.15 121.15 134.2 121.35 134.15 121.05 134.8 Q120.7 135.2 120.7 135.6 L121.25 138.9 121.25 139.25 Q120.7 139.2 120.55 139.75 L120.4 140.9 119.6 143.15 121.35 144.3 Q118.15 144.25 117.95 143.45 L118.1 143.45" fill="#615845" fill-rule="evenodd" stroke="none"/>
      <path d="M123.3 151.3 L123.6 151.25 125.3 153.9 124.75 154.75 123.95 155.3 123.95 154.9 Q124.35 154.2 124.35 153.7 L123.95 152.6 123.65 152.05 123.6 151.95 123.3 151.65 123.3 151.3" fill="#d0de97" fill-rule="evenodd" stroke="none"/>
      <path d="M133.35 133.8 L134.05 134.4 Q134.6 135.0 134.6 135.45 L134.45 136.05 134.8 136.8 134.15 138.45 Q133.45 139.85 133.45 140.35 133.45 140.65 134.05 141.15 L134.6 141.8 134.3 142.45 134.05 143.05 132.4 143.45 132.4 143.4 132.9 142.75 132.95 142.25 133.45 142.2 133.45 141.8 133.15 139.8 133.55 138.6 133.9 136.25 133.7 135.75 133.7 135.65 133.6 135.3 133.2 133.85 133.35 133.8" fill="#90ab27" fill-rule="evenodd" stroke="none"/>
      <path d="M132.4 143.45 L134.05 143.05 134.3 142.45 134.6 141.8 134.05 141.15 Q133.45 140.65 133.45 140.35 133.45 139.85 134.15 138.45 L134.8 136.8 134.45 136.05 134.6 135.45 Q134.6 135.0 134.05 134.4 L133.35 133.8 134.1 133.5 135.25 136.45 Q135.25 137.3 134.6 138.7 L133.9 140.2 135.15 141.1 135.65 141.75 135.9 142.2 136.0 142.5 135.8 142.6 132.8 143.8 132.65 143.85 131.85 143.85 131.75 143.85 131.75 143.6 132.4 143.45" fill="#617809" fill-rule="evenodd" stroke="none"/>
      <path d="M130.95 145.35 L131.35 145.5 Q131.65 145.5 131.95 145.05 132.4 144.5 133.55 144.15 L136.2 143.15 136.2 143.7 134.7 144.7 132.9 145.55 132.9 145.7 133.4 145.7 136.05 144.8 136.35 144.8 136.35 145.15 135.55 146.95 Q134.85 148.7 134.85 149.9 L135.05 151.8 135.35 153.0 135.1 153.6 Q134.85 153.95 134.85 154.45 L132.75 155.0 Q132.55 154.65 132.5 154.1 L132.85 154.15 Q133.7 154.15 133.7 153.8 L133.45 153.7 133.45 153.45 133.95 152.5 134.3 151.35 133.7 149.2 Q133.7 148.05 134.2 146.05 L134.2 145.7 132.85 146.0 132.15 146.0 132.15 145.9 132.55 145.3 131.55 146.2 131.25 146.45 130.95 145.35 M133.1 156.15 L133.2 156.05 Q133.6 155.75 134.0 155.75 L134.55 155.9 134.45 155.95 134.35 156.5 134.1 157.75 133.65 159.2 133.2 159.75 133.15 159.75 133.05 159.2 133.05 159.1 133.2 158.8 133.45 157.75 133.45 156.8 132.85 157.05 132.9 156.8 133.0 156.4 133.1 156.15 M132.15 151.4 L132.6 151.65 133.3 151.7 133.3 152.05 132.35 152.4 132.2 151.65 132.15 151.4" fill="#ceb45d" fill-rule="evenodd" stroke="none"/>
      <path d="M132.15 151.4 L131.9 150.45 131.45 147.1 131.25 146.45 131.55 146.2 132.55 145.3 132.15 145.9 132.15 146.0 132.85 146.0 134.2 145.7 134.2 146.05 Q133.7 148.05 133.7 149.2 L134.3 151.35 133.95 152.5 133.45 153.45 133.45 153.7 133.7 153.8 Q133.7 154.15 132.85 154.15 L132.5 154.1 132.45 153.25 132.35 152.4 133.3 152.05 133.3 151.7 132.6 151.65 132.15 151.4 M132.8 146.6 L132.4 146.75 Q131.65 147.05 131.65 147.5 L132.6 149.4 132.95 150.55 133.35 151.25 Q133.9 151.25 133.9 150.8 L133.2 148.95 Q132.55 147.65 132.55 147.2 L132.8 146.6 M132.55 153.5 L132.9 153.55 Q133.3 153.55 133.3 153.2 L133.1 152.9 132.85 152.85 132.55 153.35 132.55 153.5 M133.05 159.1 L133.0 158.8 132.85 157.25 132.85 157.05 133.45 156.8 133.45 157.75 133.2 158.8 133.05 159.1" fill="#e2ca79" fill-rule="evenodd" stroke="none"/>
      <path d="M131.85 143.85 L132.65 143.85 132.8 143.8 135.8 142.6 Q136.5 142.6 136.6 143.35 L136.75 144.2 136.9 144.9 Q136.9 146.4 136.2 148.1 135.45 149.85 135.45 150.7 L135.8 153.8 135.5 154.7 Q135.15 155.2 135.15 155.45 L135.35 155.95 135.55 156.5 134.7 158.15 134.15 159.2 133.7 160.35 133.3 160.35 133.15 159.75 133.2 159.75 133.65 159.2 134.1 157.75 134.35 156.5 134.45 155.95 134.55 155.9 134.0 155.75 Q133.6 155.75 133.2 156.05 L133.1 156.15 133.1 156.05 132.8 155.05 132.75 155.0 134.85 154.45 Q134.85 153.95 135.1 153.6 L135.35 153.0 135.05 151.8 134.85 149.9 Q134.85 148.7 135.55 146.95 L136.35 145.15 136.35 144.8 136.05 144.8 133.4 145.7 132.9 145.7 132.9 145.55 134.7 144.7 136.2 143.7 136.2 143.15 133.55 144.15 Q132.4 144.5 131.95 145.05 131.65 145.5 131.35 145.5 L130.95 145.35 130.95 145.3 131.4 144.5 131.85 143.9 131.85 143.85" fill="#c1a64b" fill-rule="evenodd" stroke="none"/>
      <path d="M133.7 135.75 L133.9 136.25 133.55 138.6 133.15 139.8 133.45 141.8 133.45 142.2 132.95 142.25 133.0 141.65 132.85 140.3 132.65 139.55 Q132.65 139.1 133.15 138.4 L133.7 136.9 133.75 136.5 133.75 136.4 133.7 135.75" fill="#adc64a" fill-rule="evenodd" stroke="none"/>
      <path d="M132.8 146.6 L132.55 147.2 Q132.55 147.65 133.2 148.95 L133.9 150.8 Q133.9 151.25 133.35 151.25 L132.95 150.55 132.6 149.4 131.65 147.5 Q131.65 147.05 132.4 146.75 L132.8 146.6" fill="#fff2ad" fill-rule="evenodd" stroke="none"/>
      <path d="M132.55 153.5 L132.55 153.35 132.85 152.85 133.1 152.9 133.3 153.2 Q133.3 153.55 132.9 153.55 L132.55 153.5" fill="#fff9d7" fill-rule="evenodd" stroke="none"/>
      <path d="M147.85 130.4 L148.05 130.15 148.2 130.05 148.3 130.05 148.2 131.45 147.65 131.6 147.65 132.05 148.0 133.2 148.3 135.0 147.1 138.4 147.55 139.25 Q148.05 139.9 148.55 139.9 L149.55 139.75 149.95 140.15 148.0 140.55 147.85 140.55 146.1 139.4 146.9 137.15 147.05 136.0 Q147.2 135.45 147.75 135.5 L147.75 135.15 147.2 131.85 Q147.2 131.45 147.55 131.05 L147.85 130.4" fill="#86795f" fill-rule="evenodd" stroke="none"/>
      <path d="M144.6 139.7 L145.95 138.9 Q146.45 137.9 146.45 136.75 L146.35 135.95 147.2 134.45 147.0 131.4 Q147.2 130.8 147.65 130.45 L147.85 130.4 147.55 131.05 Q147.2 131.45 147.2 131.85 L147.75 135.15 147.75 135.5 Q147.2 135.45 147.05 136.0 L146.9 137.15 146.1 139.4 147.85 140.55 Q144.65 140.5 144.45 139.7 L144.6 139.7" fill="#615845" fill-rule="evenodd" stroke="none"/>
      <path d="M148.2 131.45 Q148.15 133.5 148.55 136.45 L148.35 136.95 Q148.05 137.55 148.05 137.95 148.05 138.95 148.55 139.2 L149.55 139.75 148.55 139.9 Q148.05 139.9 147.55 139.25 L147.1 138.4 148.3 135.0 148.0 133.2 147.65 132.05 147.65 131.6 148.2 131.45" fill="#c0af8b" fill-rule="evenodd" stroke="none"/>
      <path d="M149.95 140.15 L150.3 140.4 150.3 140.55 150.15 140.55 150.1 140.55 147.7 140.8 144.6 140.55 144.15 140.55 144.15 143.15 144.45 144.9 Q144.75 145.85 145.6 145.95 L145.1 146.7 Q145.1 147.0 145.7 147.35 146.15 147.65 146.4 147.6 145.75 147.9 145.6 148.05 145.4 148.2 145.4 148.8 145.4 149.2 145.7 149.6 145.95 149.95 146.25 149.95 147.0 149.95 148.3 149.35 L149.45 149.35 148.35 150.0 Q147.4 150.6 147.4 150.9 147.4 151.65 148.15 152.7 148.85 153.7 149.55 153.7 150.5 153.7 151.4 153.05 L152.25 152.45 152.3 152.85 152.25 153.2 151.9 153.5 151.65 153.7 149.35 154.8 Q148.8 154.8 147.7 152.75 L146.05 150.3 145.15 149.35 144.5 147.5 Q143.45 145.25 143.45 144.15 L143.6 142.8 143.45 141.05 Q143.45 140.5 143.8 140.05 L144.5 139.6 144.6 139.7 144.45 139.7 Q144.65 140.5 147.85 140.55 L148.0 140.55 149.95 140.15" fill="#465706" fill-rule="evenodd" stroke="none"/>
      <path d="M150.3 140.55 L150.65 147.25 Q150.8 148.45 151.5 149.15 L152.15 150.1 151.9 150.9 Q151.5 151.55 151.5 152.1 L151.8 152.2 151.25 152.4 150.1 152.9 149.45 152.9 149.2 151.65 Q149.2 151.45 149.55 151.0 149.95 150.5 149.95 149.65 149.95 148.45 148.8 148.45 L146.55 148.65 146.55 148.35 148.2 147.7 Q149.15 147.25 149.2 146.55 L147.5 146.75 146.7 146.7 146.2 146.2 Q146.6 145.95 148.55 145.25 L148.55 144.65 148.15 144.65 146.4 145.25 Q145.6 145.25 145.6 142.35 145.6 141.55 147.35 141.3 149.65 140.9 150.15 140.55 L150.3 140.55 M149.3 141.8 L149.55 144.1 149.0 145.7 150.0 146.75 149.95 142.85 149.85 142.15 149.3 141.8 M150.15 148.3 L150.45 148.85 150.85 149.95 150.45 151.15 150.45 151.55 151.25 151.0 151.8 150.15 150.1 147.5 149.8 147.55 149.8 147.9 150.1 148.2 150.15 148.3" fill="#6e821d" fill-rule="evenodd" stroke="none"/>
      <path d="M151.8 152.2 Q152.1 152.25 152.25 152.45 L151.4 153.05 Q150.5 153.7 149.55 153.7 148.85 153.7 148.15 152.7 147.4 151.65 147.4 150.9 147.4 150.6 148.35 150.0 L149.45 149.35 148.3 149.35 Q147.0 149.95 146.25 149.95 145.95 149.95 145.7 149.6 145.4 149.2 145.4 148.8 145.4 148.2 145.6 148.05 145.75 147.9 146.4 147.6 146.15 147.65 145.7 147.35 145.1 147.0 145.1 146.7 L145.6 145.95 Q144.75 145.85 144.45 144.9 L144.15 143.15 144.15 140.55 144.6 140.55 147.7 140.8 150.1 140.55 150.15 140.55 Q149.65 140.9 147.35 141.3 145.6 141.55 145.6 142.35 145.6 145.25 146.4 145.25 L148.15 144.65 148.55 144.65 148.55 145.25 Q146.6 145.95 146.2 146.2 L146.7 146.7 147.5 146.75 149.2 146.55 Q149.15 147.25 148.2 147.7 L146.55 148.35 146.55 148.65 148.8 148.45 Q149.95 148.45 149.95 149.65 149.95 150.5 149.55 151.0 149.2 151.45 149.2 151.65 L149.45 152.9 150.1 152.9 151.25 152.4 151.8 152.2" fill="#526310" fill-rule="evenodd" stroke="none"/>
      <path d="M149.3 141.8 L149.85 142.15 149.95 142.85 150.0 146.75 149.0 145.7 149.55 144.1 149.3 141.8" fill="#f6ffd4" fill-rule="evenodd" stroke="none"/>
      <path d="M150.15 148.3 L150.1 148.2 149.8 147.9 149.8 147.55 150.1 147.5 151.8 150.15 151.25 151.0 150.45 151.55 150.45 151.15 150.85 149.95 150.45 148.85 150.15 148.3" fill="#d0de97" fill-rule="evenodd" stroke="none"/>
      <path d="M161.05 123.6 L161.05 123.5 162.2 123.65 162.55 124.05 162.8 125.65 163.0 127.35 162.9 128.3 162.85 129.3 Q163.0 130.75 162.8 131.1 L163.7 132.35 163.65 132.45 Q164.1 133.4 162.45 133.85 L160.05 134.25 158.5 134.35 158.7 133.85 158.6 133.85 158.55 133.65 159.05 133.45 159.3 133.45 160.7 133.3 Q162.7 133.05 162.7 132.05 L161.25 132.15 162.5 131.55 162.25 131.15 162.0 130.65 Q161.95 130.3 162.2 130.0 L162.45 129.45 161.85 126.5 161.85 124.75 161.55 124.15 161.05 123.6 M160.35 132.55 Q160.55 132.35 160.85 132.2 L160.9 132.35 161.2 132.45 160.6 132.8 159.7 133.0 160.35 132.55" fill="#617809" fill-rule="evenodd" stroke="none"/>
      <path d="M161.05 123.6 L161.55 124.15 161.85 124.75 161.85 126.5 162.45 129.45 162.2 130.0 Q161.95 130.3 162.0 130.65 L162.25 131.15 162.5 131.55 161.25 132.15 162.7 132.05 Q162.7 133.05 160.7 133.3 L159.3 133.45 159.05 133.45 159.7 133.0 160.6 132.8 161.2 132.45 160.9 132.35 160.85 132.2 160.85 132.1 161.3 131.3 Q161.75 130.75 161.5 130.05 L161.4 128.65 161.4 128.4 161.45 126.65 161.35 125.5 161.05 123.6" fill="#90ab27" fill-rule="evenodd" stroke="none"/>
      <path d="M158.5 134.35 L160.05 134.25 162.45 133.85 Q164.1 133.4 163.65 132.45 L163.7 132.35 163.9 132.65 Q163.85 133.0 164.25 134.0 L164.6 135.35 Q164.7 135.8 163.8 140.15 L162.75 145.35 Q162.7 148.55 162.4 149.3 161.75 150.9 159.25 152.05 L161.2 150.3 Q162.0 149.2 161.85 147.75 L161.7 146.95 161.0 146.85 160.95 146.45 Q161.7 146.1 162.35 144.9 163.0 143.45 162.5 141.95 162.1 140.7 162.55 138.95 162.95 137.25 163.5 136.8 L163.4 136.1 Q162.6 136.2 162.55 135.75 162.5 135.4 162.9 135.25 L163.7 135.15 163.8 134.6 163.7 133.6 161.25 134.5 161.2 134.5 159.95 134.6 159.9 134.6 158.7 134.65 158.45 134.65 158.5 134.35 M159.4 149.9 L159.8 149.1 159.7 148.65 160.25 148.55 160.35 149.15 159.4 149.9" fill="#a00f04" fill-rule="evenodd" stroke="none"/>
      <path d="M159.25 152.05 L158.8 152.2 158.75 151.65 160.1 150.5 161.05 149.15 160.7 147.2 159.6 147.25 159.15 146.95 159.1 146.75 Q159.55 146.75 159.75 146.25 L160.05 145.4 Q160.15 145.05 160.75 144.8 161.25 144.65 161.2 144.25 L160.2 144.3 Q159.4 144.3 159.35 143.95 159.3 143.6 160.05 143.3 L160.9 142.95 Q161.35 142.7 161.25 141.85 L161.05 140.7 161.5 138.6 161.8 136.35 Q161.65 135.2 160.7 135.25 L158.4 135.7 158.45 134.65 158.7 134.65 159.9 134.6 159.95 134.6 161.2 134.5 161.25 134.5 163.7 133.6 163.8 134.6 163.7 135.15 162.9 135.25 Q162.5 135.4 162.55 135.75 162.6 136.2 163.4 136.1 L163.5 136.8 Q162.95 137.25 162.55 138.95 162.1 140.7 162.5 141.95 163.0 143.45 162.35 144.9 161.7 146.1 160.95 146.45 L161.0 146.85 161.7 146.95 161.85 147.75 Q162.0 149.2 161.2 150.3 L159.25 152.05" fill="#c11103" fill-rule="evenodd" stroke="none"/>
      <path d="M161.4 128.65 L161.5 130.05 Q161.75 130.75 161.3 131.3 L160.85 132.1 160.85 132.2 Q160.55 132.35 160.35 132.55 L161.4 128.65" fill="#adc64a" fill-rule="evenodd" stroke="none"/>
      <path d="M158.75 151.65 Q158.85 150.95 159.25 150.15 L159.4 149.9 160.35 149.15 160.25 148.55 159.7 148.65 159.5 148.15 Q159.25 147.65 159.15 146.95 L159.6 147.25 160.7 147.2 161.05 149.15 160.1 150.5 158.75 151.65 M159.1 146.75 L159.05 146.45 158.9 144.95 158.6 138.6 158.4 135.75 158.4 135.7 160.7 135.25 Q161.65 135.2 161.8 136.35 L161.5 138.6 161.05 140.7 161.25 141.85 Q161.35 142.7 160.9 142.95 L160.05 143.3 Q159.3 143.6 159.35 143.95 159.4 144.3 160.2 144.3 L161.2 144.25 Q161.25 144.65 160.75 144.8 160.15 145.05 160.05 145.4 L159.75 146.25 Q159.55 146.75 159.1 146.75 M159.1 136.4 Q158.8 137.05 158.9 138.25 L159.1 141.05 159.3 142.55 159.85 139.65 159.95 136.9 159.8 136.3 159.15 136.3 159.1 136.3 159.1 136.4 M160.05 144.6 Q159.0 144.35 159.2 145.7 159.65 145.75 159.8 145.45 L160.1 144.8 160.05 144.6" fill="#dd1303" fill-rule="evenodd" stroke="none"/>
      <path d="M159.15 136.3 L159.8 136.3 159.95 136.9 159.85 139.65 159.3 142.55 159.1 141.05 158.9 138.25 Q158.8 137.05 159.1 136.4 L159.15 136.3 M160.05 144.6 L160.1 144.8 159.8 145.45 Q159.65 145.75 159.2 145.7 159.0 144.35 160.05 144.6" fill="#ffe1de" fill-rule="evenodd" stroke="none"/>
      <path d="M184.45 114.2 L186.1 113.8 186.35 113.2 186.65 112.55 186.1 111.9 Q185.5 111.4 185.5 111.1 185.5 110.6 186.2 109.2 L186.85 107.55 186.5 106.8 186.65 106.2 Q186.65 105.75 186.1 105.15 L185.4 104.55 186.15 104.25 187.3 107.2 186.65 109.45 185.95 110.95 Q185.95 111.25 187.2 111.85 L187.7 112.5 187.95 112.95 188.05 113.25 187.85 113.35 184.85 114.55 184.7 114.6 183.9 114.6 183.8 114.6 183.8 114.35 184.45 114.2" fill="#617809" fill-rule="evenodd" stroke="none"/>
      <path d="M185.4 104.55 L186.1 105.15 Q186.65 105.75 186.65 106.2 L186.5 106.8 186.85 107.55 186.2 109.2 Q185.5 110.6 185.5 111.1 185.5 111.4 186.1 111.9 L186.65 112.55 186.35 113.2 186.1 113.8 184.45 114.2 184.45 114.15 184.95 113.5 185.0 113.0 185.5 112.95 185.5 112.55 185.2 110.55 185.6 109.35 185.95 107.0 185.75 106.5 185.75 106.4 185.65 106.05 185.25 104.6 185.4 104.55" fill="#90ab27" fill-rule="evenodd" stroke="none"/>
      <path d="M185.75 106.5 L185.95 107.0 185.6 109.35 185.2 110.55 185.5 112.55 185.5 112.95 185.0 113.0 185.05 112.4 184.9 111.05 184.7 110.3 Q184.7 109.85 185.2 109.15 L185.75 107.65 185.8 107.25 185.8 107.15 185.75 106.5" fill="#adc64a" fill-rule="evenodd" stroke="none"/>
      <path d="M183.9 114.6 L184.7 114.6 184.85 114.55 187.85 113.35 Q188.55 113.35 188.65 114.1 L188.8 114.95 188.95 115.65 Q188.95 117.15 188.25 118.85 187.5 120.6 187.5 121.45 L187.85 124.55 187.55 125.45 Q187.2 125.95 187.2 126.2 L187.4 126.7 187.6 127.25 186.75 128.9 186.2 129.95 185.75 131.1 185.35 131.1 185.2 130.5 185.25 130.5 185.7 129.95 186.15 128.5 186.4 127.25 186.5 126.7 186.6 126.65 186.05 126.5 185.25 126.8 185.15 126.9 185.15 126.8 184.85 125.8 184.8 125.75 186.9 125.2 Q186.9 124.7 187.15 124.35 L187.4 123.75 187.1 122.55 186.9 120.65 Q186.9 119.45 187.6 117.7 L188.4 115.9 188.4 115.55 188.1 115.55 185.45 116.45 184.95 116.45 184.95 116.3 186.75 115.45 188.25 114.45 188.25 113.9 185.6 114.9 Q184.45 115.25 184.0 115.8 183.7 116.25 183.4 116.25 L183.0 116.1 183.0 116.05 Q183.0 115.8 183.45 115.25 L183.9 114.65 183.9 114.6" fill="#c1a64b" fill-rule="evenodd" stroke="none"/>
      <path d="M183.0 116.1 L183.4 116.25 Q183.7 116.25 184.0 115.8 184.45 115.25 185.6 114.9 L188.25 113.9 188.25 114.45 186.75 115.45 184.95 116.3 184.95 116.45 185.45 116.45 188.1 115.55 188.4 115.55 188.4 115.9 187.6 117.7 Q186.9 119.45 186.9 120.65 L187.1 122.55 187.4 123.75 187.15 124.35 Q186.9 124.7 186.9 125.2 L184.8 125.75 Q184.6 125.4 184.55 124.85 L184.9 124.9 Q185.75 124.9 185.75 124.55 L185.5 124.45 185.5 124.2 186.0 123.25 186.35 122.1 185.75 119.95 Q185.75 118.8 186.25 116.8 L186.25 116.45 184.9 116.75 184.2 116.75 184.2 116.65 184.6 116.05 Q183.85 116.55 183.6 116.95 L183.3 117.2 183.0 116.1 M185.15 126.9 L185.25 126.8 186.05 126.5 186.6 126.65 186.5 126.7 186.4 127.25 186.15 128.5 185.7 129.95 185.25 130.5 185.2 130.5 185.1 129.95 185.1 129.85 185.25 129.55 185.5 128.5 185.5 127.55 184.9 127.8 184.95 127.55 185.05 127.15 185.15 126.9 M184.2 122.15 Q184.25 122.25 184.65 122.4 L185.35 122.45 185.35 122.8 184.4 123.15 184.25 122.4 184.2 122.15" fill="#ceb45d" fill-rule="evenodd" stroke="none"/>
      <path d="M183.3 117.2 L183.6 116.95 Q183.85 116.55 184.6 116.05 L184.2 116.65 184.2 116.75 184.9 116.75 186.25 116.45 186.25 116.8 Q185.75 118.8 185.75 119.95 L186.35 122.1 186.0 123.25 185.5 124.2 185.5 124.45 185.75 124.55 Q185.75 124.9 184.9 124.9 L184.55 124.85 184.5 124.0 184.4 123.15 185.35 122.8 185.35 122.45 184.65 122.4 Q184.25 122.25 184.2 122.15 L183.95 121.2 183.5 117.85 183.3 117.2 M184.45 117.5 Q183.7 117.8 183.7 118.25 L184.65 120.15 185.0 121.3 185.4 122.0 Q185.95 122.0 185.95 121.55 L185.25 119.7 184.6 117.95 184.85 117.35 184.45 117.5 M184.9 123.6 L184.6 124.1 184.6 124.25 184.95 124.3 Q185.35 124.3 185.35 123.95 L185.15 123.65 184.9 123.6 M185.1 129.85 L185.05 129.55 184.9 128.0 184.9 127.8 185.5 127.55 185.5 128.5 185.25 129.55 185.1 129.85" fill="#e2ca79" fill-rule="evenodd" stroke="none"/>
      <path d="M184.45 117.5 L184.85 117.35 184.6 117.95 185.25 119.7 185.95 121.55 Q185.95 122.0 185.4 122.0 L185.0 121.3 184.65 120.15 183.7 118.25 Q183.7 117.8 184.45 117.5" fill="#fff2ad" fill-rule="evenodd" stroke="none"/>
      <path d="M184.9 123.6 L185.15 123.65 185.35 123.95 Q185.35 124.3 184.95 124.3 L184.6 124.25 184.6 124.1 184.9 123.6" fill="#fff9d7" fill-rule="evenodd" stroke="none"/>
      <path d="M15.45 95.1 L15.45 95.0 16.6 95.15 16.95 95.55 17.2 97.15 17.4 98.85 17.3 99.8 17.25 100.8 Q17.4 102.25 17.2 102.6 L18.1 103.85 18.05 103.95 Q18.5 104.9 16.85 105.35 L14.45 105.75 12.9 105.85 13.1 105.35 13.0 105.35 12.95 105.15 13.45 104.95 13.7 104.95 15.1 104.8 Q17.1 104.55 17.1 103.55 L15.65 103.65 Q16.0 103.4 16.9 103.05 L16.65 102.65 16.4 102.15 Q16.35 101.8 16.6 101.5 L16.85 100.95 16.25 98.0 16.25 96.25 15.95 95.65 15.45 95.1 M14.75 104.05 L15.25 103.7 15.3 103.85 15.6 103.95 15.0 104.3 14.1 104.5 14.75 104.05" fill="#617809" fill-rule="evenodd" stroke="none"/>
      <path d="M15.45 95.1 L15.95 95.65 16.25 96.25 16.25 98.0 16.85 100.95 16.6 101.5 Q16.35 101.8 16.4 102.15 L16.65 102.65 16.9 103.05 Q16.0 103.4 15.65 103.65 L17.1 103.55 Q17.1 104.55 15.1 104.8 L13.7 104.95 13.45 104.95 14.1 104.5 15.0 104.3 15.6 103.95 15.3 103.85 15.25 103.7 15.25 103.6 15.7 102.8 Q16.15 102.25 15.9 101.55 L15.8 100.15 15.8 99.9 15.85 98.15 15.75 97.0 15.45 95.1" fill="#90ab27" fill-rule="evenodd" stroke="none"/>
      <path d="M15.8 100.15 L15.9 101.55 Q16.15 102.25 15.7 102.8 L15.25 103.6 15.25 103.7 14.75 104.05 15.8 100.15" fill="#adc64a" fill-rule="evenodd" stroke="none"/>
      <path d="M12.9 105.85 L14.45 105.75 16.85 105.35 Q18.5 104.9 18.05 103.95 L18.1 103.85 18.3 104.15 Q18.25 104.5 18.65 105.5 L19.0 106.85 Q19.1 107.3 18.2 111.65 L17.15 116.85 Q17.1 120.05 16.8 120.8 16.15 122.4 13.65 123.55 L15.6 121.8 Q16.4 120.7 16.25 119.25 L16.1 118.45 15.4 118.35 15.35 117.95 Q16.1 117.6 16.75 116.4 17.4 114.95 16.9 113.45 16.5 112.2 16.95 110.45 17.35 108.75 17.9 108.3 L17.8 107.6 Q17.0 107.7 16.95 107.25 16.9 106.9 17.3 106.75 L18.1 106.65 18.2 106.1 18.1 105.1 15.65 106.0 15.6 106.0 14.35 106.1 14.3 106.1 13.1 106.15 12.85 106.15 12.9 105.85 M13.8 121.4 L14.2 120.6 14.1 120.15 14.65 120.05 14.75 120.65 13.8 121.4" fill="#a00f04" fill-rule="evenodd" stroke="none"/>
      <path d="M13.65 123.55 L13.2 123.7 13.15 123.15 14.5 122.0 15.45 120.65 15.1 118.7 14.0 118.75 13.55 118.45 13.5 118.25 14.15 117.75 14.45 116.9 Q14.55 116.55 15.15 116.3 15.65 116.15 15.6 115.75 L14.6 115.8 Q13.8 115.8 13.75 115.45 13.7 115.1 14.45 114.8 L15.3 114.45 Q15.75 114.2 15.65 113.35 L15.45 112.2 15.9 110.1 16.2 107.85 Q16.05 106.7 15.1 106.75 L12.8 107.2 12.85 106.15 13.1 106.15 14.3 106.1 14.35 106.1 15.6 106.0 15.65 106.0 18.1 105.1 18.2 106.1 18.1 106.65 17.3 106.75 Q16.9 106.9 16.95 107.25 17.0 107.7 17.8 107.6 L17.9 108.3 Q17.35 108.75 16.95 110.45 16.5 112.2 16.9 113.45 17.4 114.95 16.75 116.4 16.1 117.6 15.35 117.95 L15.4 118.35 16.1 118.45 16.25 119.25 Q16.4 120.7 15.6 121.8 L13.65 123.55" fill="#c11103" fill-rule="evenodd" stroke="none"/>
      <path d="M13.15 123.15 Q13.25 122.45 13.65 121.65 L13.8 121.4 14.75 120.65 14.65 120.05 14.1 120.15 13.9 119.65 Q13.65 119.15 13.55 118.45 L14.0 118.75 15.1 118.7 15.45 120.65 14.5 122.0 13.15 123.15 M13.5 118.25 L13.45 117.95 13.3 116.45 13.0 110.1 12.8 107.25 12.8 107.2 15.1 106.75 Q16.05 106.7 16.2 107.85 L15.9 110.1 15.45 112.2 15.65 113.35 Q15.75 114.2 15.3 114.45 L14.45 114.8 Q13.7 115.1 13.75 115.45 13.8 115.8 14.6 115.8 L15.6 115.75 Q15.65 116.15 15.15 116.3 14.55 116.55 14.45 116.9 L14.15 117.75 13.5 118.25 M13.55 107.8 L13.5 107.8 13.5 107.9 Q13.2 108.55 13.3 109.75 L13.5 112.55 13.7 114.05 14.25 111.15 14.35 108.4 14.2 107.8 13.55 107.8 M14.45 116.1 Q13.4 115.85 13.6 117.2 14.05 117.25 14.2 116.95 L14.5 116.3 14.45 116.1" fill="#dd1303" fill-rule="evenodd" stroke="none"/>
      <path d="M13.5 107.9 L13.55 107.8 14.2 107.8 14.35 108.4 14.25 111.15 13.7 114.05 13.5 112.55 13.3 109.75 Q13.2 108.55 13.5 107.9 M14.45 116.1 L14.5 116.3 14.2 116.95 Q14.05 117.25 13.6 117.2 13.4 115.85 14.45 116.1" fill="#ffe1de" fill-rule="evenodd" stroke="none"/>
      <path d="M30.85 106.95 L31.6 106.65 32.75 109.6 32.1 111.85 31.4 113.35 32.65 114.25 33.15 114.9 33.4 115.35 33.5 115.65 33.3 115.75 30.3 116.95 30.15 117.0 29.35 117.0 29.25 117.0 29.25 116.75 29.9 116.6 31.55 116.2 31.8 115.6 32.1 114.95 31.55 114.3 Q30.95 113.8 30.95 113.5 30.95 113.0 31.65 111.6 L32.3 109.95 31.95 109.2 32.1 108.6 31.55 107.55 30.85 106.95" fill="#617809" fill-rule="evenodd" stroke="none"/>
      <path d="M29.9 116.6 L29.9 116.55 30.4 115.9 30.45 115.4 30.95 115.35 30.95 114.95 30.65 112.95 31.05 111.75 31.4 109.4 31.2 108.9 31.2 108.8 31.1 108.45 30.7 107.0 30.85 106.95 31.55 107.55 32.1 108.6 31.95 109.2 32.3 109.95 31.65 111.6 Q30.95 113.0 30.95 113.5 30.95 113.8 31.55 114.3 L32.1 114.95 31.8 115.6 31.55 116.2 29.9 116.6" fill="#90ab27" fill-rule="evenodd" stroke="none"/>
      <path d="M30.45 115.4 L30.5 114.8 30.35 113.45 30.15 112.7 Q30.15 112.25 30.65 111.55 L31.2 110.05 31.25 109.65 31.25 109.55 31.2 108.9 31.4 109.4 31.05 111.75 30.65 112.95 30.95 114.95 30.95 115.35 30.45 115.4" fill="#adc64a" fill-rule="evenodd" stroke="none"/>
      <path d="M33.3 115.75 Q34.0 115.75 34.1 116.5 L34.25 117.35 34.4 118.05 Q34.4 119.55 33.7 121.25 32.95 123.0 32.95 123.85 32.95 124.55 33.3 126.95 L33.0 127.85 Q32.65 128.35 32.65 128.6 L32.85 129.1 33.05 129.65 32.2 131.3 31.65 132.35 31.2 133.5 30.8 133.5 30.65 132.9 30.7 132.9 31.15 132.35 31.6 130.9 31.85 129.65 31.95 129.1 32.05 129.05 31.5 128.9 Q31.1 128.9 30.7 129.2 L30.6 129.3 30.6 129.2 30.3 128.2 30.25 128.15 32.35 127.6 Q32.35 127.1 32.6 126.75 L32.85 126.15 32.55 124.95 32.35 123.05 Q32.35 121.85 33.05 120.1 L33.85 118.3 33.85 117.95 33.55 117.95 30.9 118.85 30.4 118.85 30.4 118.7 32.2 117.85 33.7 116.85 33.7 116.3 31.05 117.3 Q29.9 117.65 29.45 118.2 L28.85 118.65 28.45 118.5 28.45 118.45 Q28.45 118.2 28.9 117.65 L29.35 117.05 29.35 117.0 30.15 117.0 30.3 116.95 33.3 115.75" fill="#c1a64b" fill-rule="evenodd" stroke="none"/>
      <path d="M30.65 132.9 L30.55 132.35 30.55 132.25 30.7 131.95 30.95 130.9 30.95 129.95 30.35 130.2 30.4 129.95 30.5 129.55 30.6 129.3 30.7 129.2 Q31.1 128.9 31.5 128.9 L32.05 129.05 31.95 129.1 31.85 129.65 31.6 130.9 31.15 132.35 30.7 132.9 30.65 132.9 M30.25 128.15 Q30.05 127.8 30.0 127.25 L30.35 127.3 Q31.2 127.3 31.2 126.95 L30.95 126.85 30.95 126.6 31.45 125.65 31.8 124.5 31.2 122.35 Q31.2 121.2 31.7 119.2 L31.7 118.85 30.35 119.15 29.65 119.15 29.65 119.05 30.05 118.45 29.05 119.35 28.75 119.6 28.45 118.5 28.85 118.65 29.45 118.2 Q29.9 117.65 31.05 117.3 L33.7 116.3 33.7 116.85 32.2 117.85 30.4 118.7 30.4 118.85 30.9 118.85 33.55 117.95 33.85 117.95 33.85 118.3 33.05 120.1 Q32.35 121.85 32.35 123.05 L32.55 124.95 32.85 126.15 32.6 126.75 Q32.35 127.1 32.35 127.6 L30.25 128.15 M29.85 125.55 L29.7 124.8 29.65 124.55 30.1 124.8 30.8 124.85 30.8 125.2 29.85 125.55" fill="#ceb45d" fill-rule="evenodd" stroke="none"/>
      <path d="M30.55 132.25 L30.5 131.95 30.35 130.4 30.35 130.2 30.95 129.95 30.95 130.9 30.7 131.95 30.55 132.25 M30.0 127.25 L29.95 126.4 29.85 125.55 30.8 125.2 30.8 124.85 30.1 124.8 29.65 124.55 29.4 123.6 28.95 120.25 28.75 119.6 29.05 119.35 30.05 118.45 29.65 119.05 29.65 119.15 30.35 119.15 31.7 118.85 31.7 119.2 Q31.2 121.2 31.2 122.35 L31.8 124.5 31.45 125.65 30.95 126.6 30.95 126.85 31.2 126.95 Q31.2 127.3 30.35 127.3 L30.0 127.25 M29.15 120.65 L30.1 122.55 30.45 123.7 30.85 124.4 Q31.4 124.4 31.4 123.95 L30.7 122.1 30.05 120.35 30.3 119.75 29.9 119.9 Q29.15 120.2 29.15 120.65 M30.6 126.05 L30.35 126.0 30.05 126.5 30.05 126.65 30.4 126.7 30.8 126.35 30.6 126.05" fill="#e2ca79" fill-rule="evenodd" stroke="none"/>
      <path d="M29.15 120.65 Q29.15 120.2 29.9 119.9 L30.3 119.75 30.05 120.35 30.7 122.1 31.4 123.95 Q31.4 124.4 30.85 124.4 L30.45 123.7 30.1 122.55 29.15 120.65" fill="#fff2ad" fill-rule="evenodd" stroke="none"/>
      <path d="M30.6 126.05 L30.8 126.35 30.4 126.7 30.05 126.65 30.05 126.5 30.35 126.0 30.6 126.05" fill="#fff9d7" fill-rule="evenodd" stroke="none"/>
      <path d="M42.35 113.3 L42.05 113.95 Q41.7 114.35 41.7 114.75 L42.25 118.05 42.25 118.4 Q41.7 118.35 41.55 118.9 L41.4 120.05 40.6 122.3 42.35 123.45 Q39.15 123.4 38.95 122.6 L39.1 122.6 Q40.1 122.25 40.45 121.8 40.95 120.8 40.95 119.65 L40.85 118.85 41.7 117.35 41.5 114.3 Q41.7 113.7 42.15 113.35 L42.35 113.3" fill="#615845" fill-rule="evenodd" stroke="none"/>
      <path d="M42.35 113.3 L42.55 113.05 42.7 112.95 42.8 112.95 42.7 114.35 42.15 114.5 42.15 114.95 42.5 116.1 42.8 117.9 41.6 121.3 Q41.6 121.6 42.05 122.15 42.55 122.8 43.05 122.8 L44.05 122.65 44.45 123.05 42.5 123.45 42.35 123.45 40.6 122.3 41.4 120.05 41.55 118.9 Q41.7 118.35 42.25 118.4 L42.25 118.05 41.7 114.75 Q41.7 114.35 42.05 113.95 L42.35 113.3" fill="#86795f" fill-rule="evenodd" stroke="none"/>
      <path d="M44.05 122.65 L43.05 122.8 Q42.55 122.8 42.05 122.15 41.6 121.6 41.6 121.3 L42.8 117.9 42.5 116.1 42.15 114.95 42.15 114.5 42.7 114.35 Q42.65 116.4 43.05 119.35 L42.85 119.85 Q42.55 120.45 42.55 120.85 42.55 121.85 43.05 122.1 L44.05 122.65" fill="#c0af8b" fill-rule="evenodd" stroke="none"/>
      <path d="M42.35 123.45 L42.5 123.45 44.45 123.05 44.8 123.3 44.8 123.45 44.65 123.45 44.6 123.45 42.2 123.7 39.1 123.45 38.65 123.45 38.65 126.05 38.95 127.8 Q39.25 128.75 40.1 128.85 L39.6 129.6 40.2 130.25 40.9 130.5 40.1 130.95 39.9 131.7 Q39.9 132.1 40.2 132.5 40.45 132.85 40.75 132.85 L42.8 132.25 43.95 132.25 42.85 132.9 Q41.9 133.5 41.9 133.8 41.9 134.55 42.65 135.6 43.35 136.6 44.05 136.6 L45.9 135.95 46.75 135.35 46.8 135.75 46.75 136.1 46.4 136.4 46.15 136.6 43.85 137.7 Q43.3 137.7 42.2 135.65 L40.55 133.2 39.65 132.25 39.0 130.4 Q37.95 128.15 37.95 127.05 L38.1 125.7 37.95 123.95 Q37.95 123.4 38.3 122.95 L39.0 122.5 39.1 122.6 38.95 122.6 Q39.15 123.4 42.35 123.45" fill="#465706" fill-rule="evenodd" stroke="none"/>
      <path d="M44.65 123.45 Q44.15 123.8 41.85 124.2 40.1 124.45 40.1 125.25 40.1 128.15 40.9 128.15 41.4 128.15 42.65 127.55 L43.05 127.55 43.05 128.15 Q41.1 128.85 40.7 129.1 L41.2 129.6 42.0 129.65 43.7 129.45 Q43.65 130.15 42.7 130.6 L41.05 131.25 41.05 131.55 43.3 131.35 Q44.45 131.35 44.45 132.55 44.45 133.4 44.05 133.9 43.7 134.35 43.7 134.55 L43.95 135.8 44.6 135.8 45.75 135.3 46.3 135.1 Q46.6 135.15 46.75 135.35 L45.9 135.95 44.05 136.6 Q43.35 136.6 42.65 135.6 41.9 134.55 41.9 133.8 41.9 133.5 42.85 132.9 L43.95 132.25 42.8 132.25 40.75 132.85 Q40.45 132.85 40.2 132.5 39.9 132.1 39.9 131.7 L40.1 130.95 40.9 130.5 40.2 130.25 39.6 129.6 40.1 128.85 Q39.25 128.75 38.95 127.8 L38.65 126.05 38.65 123.45 39.1 123.45 42.2 123.7 44.6 123.45 44.65 123.45" fill="#526310" fill-rule="evenodd" stroke="none"/>
      <path d="M44.65 123.45 L44.8 123.45 45.15 130.15 Q45.3 131.35 46.0 132.05 L46.65 133.0 46.4 133.8 Q46.0 134.45 46.0 135.0 L46.3 135.1 45.75 135.3 44.6 135.8 43.95 135.8 43.7 134.55 Q43.7 134.35 44.05 133.9 44.45 133.4 44.45 132.55 44.45 131.35 43.3 131.35 L41.05 131.55 41.05 131.25 42.7 130.6 Q43.65 130.15 43.7 129.45 L42.0 129.65 41.2 129.6 40.7 129.1 Q41.1 128.85 43.05 128.15 L43.05 127.55 42.65 127.55 Q41.4 128.15 40.9 128.15 40.1 128.15 40.1 125.25 40.1 124.45 41.85 124.2 44.15 123.8 44.65 123.45 M43.8 124.7 L44.05 127.0 43.5 128.6 44.5 129.65 44.45 125.75 44.35 125.05 Q44.3 124.85 43.8 124.7 M44.3 130.45 L44.3 130.8 44.6 131.1 44.65 131.2 44.95 131.75 Q45.35 132.4 45.35 132.85 L44.95 134.05 44.95 134.45 45.75 133.9 46.3 133.05 44.6 130.4 44.3 130.45" fill="#6e821d" fill-rule="evenodd" stroke="none"/>
      <path d="M43.8 124.7 Q44.3 124.85 44.35 125.05 L44.45 125.75 44.5 129.65 43.5 128.6 44.05 127.0 43.8 124.7" fill="#f6ffd4" fill-rule="evenodd" stroke="none"/>
      <path d="M44.3 130.45 L44.6 130.4 46.3 133.05 45.75 133.9 44.95 134.45 44.95 134.05 45.35 132.85 Q45.35 132.4 44.95 131.75 L44.65 131.2 44.6 131.1 44.3 130.8 44.3 130.45" fill="#d0de97" fill-rule="evenodd" stroke="none"/>
      <path d="M14.9 93.2 L16.0 93.45 Q23.55 100.6 32.1 106.65 69.9 133.55 115.75 133.6 151.95 133.65 177.0 111.9 185.45 104.55 192.1 94.75 L193.4 94.4 Q185.45 105.4 177.2 112.6 152.15 134.35 115.95 134.3 70.1 134.25 32.3 107.35 24.2 101.6 14.9 93.2" fill="#aca593" fill-rule="evenodd" stroke="none"/>
      <path d="M193.4 94.4 Q195.1 94.0 194.9 94.65 187.85 104.45 179.55 111.9 153.7 135.05 115.75 135.0 82.95 134.95 54.2 121.6 L53.25 121.15 53.05 121.05 52.75 120.9 Q41.45 115.5 30.8 108.05 21.25 101.4 12.9 93.45 12.4 92.65 14.9 93.2 24.2 101.6 32.3 107.35 70.1 134.25 115.95 134.3 152.15 134.35 177.2 112.6 185.45 105.4 193.4 94.4" fill="#8a8067" fill-rule="evenodd" stroke="none"/>
      <path d="M12.45 92.5 L12.95 92.5 Q12.95 93.05 13.3 93.4 13.65 93.8 14.2 93.8 14.75 93.8 15.1 93.4 15.5 93.05 15.5 92.5 L15.75 92.5 15.25 93.35 14.25 94.0 Q12.6 94.0 12.45 92.5" fill="#747474" fill-rule="evenodd" stroke="none"/>
      <path d="M15.75 92.5 L16.25 92.5 Q16.25 93.35 15.65 93.9 15.1 94.5 14.25 94.5 13.4 94.5 12.8 93.9 12.25 93.35 12.25 92.5 L12.45 92.5 Q12.6 94.0 14.25 94.0 L15.25 93.35 15.75 92.5" fill="#494949" fill-rule="evenodd" stroke="none"/>
      <path d="M191.8 93.8 L192.3 93.8 Q192.3 94.35 192.65 94.7 193.0 95.1 193.55 95.1 194.1 95.1 194.45 94.7 194.85 94.35 194.85 93.8 L195.1 93.8 194.6 94.65 Q194.05 95.3 193.6 95.3 191.95 95.3 191.8 93.8" fill="#747474" fill-rule="evenodd" stroke="none"/>
      <path d="M195.1 93.8 L195.6 93.8 Q195.6 94.65 195.0 95.2 194.45 95.8 193.6 95.8 192.75 95.8 192.15 95.2 191.6 94.65 191.6 93.8 L191.8 93.8 Q191.95 95.3 193.6 95.3 194.05 95.3 194.6 94.65 L195.1 93.8" fill="#494949" fill-rule="evenodd" stroke="none"/>
    </g>
  </defs>
</svg>
