<?xml version="1.0" encoding="UTF-8" standalone="no"?>
<svg xmlns:xlink="http://www.w3.org/1999/xlink" height="52.7px" width="67.4px" xmlns="http://www.w3.org/2000/svg">
  <g transform="matrix(1.0, 0.0, 0.0, 1.0, 0.0, 0.0)">
    <use height="42.75" transform="matrix(1.0, 0.0, 0.0, 1.0, -0.4, 0.15)" width="42.75" xlink:href="#shape0"/>
  </g>
  <defs>
    <g id="shape0" transform="matrix(1.0, 0.0, 0.0, 1.0, 0.4, -0.15)">
      <path d="M42.35 42.9 L-0.4 42.9 -0.4 0.15 42.35 0.15 42.35 42.9" fill="#ffffff" fill-opacity="0.0" fill-rule="evenodd" stroke="none"/>
      <path d="M31.8 4.65 L31.75 4.75 30.95 6.55 30.25 7.95 29.55 9.35 29.4 10.4 29.45 11.05 31.5 8.75 31.5 8.7 32.4 8.05 33.2 7.5 Q35.05 6.4 35.6 7.3 L35.7 8.45 35.7 9.4 35.45 11.05 35.0 12.2 34.35 13.3 32.35 15.15 32.0 15.45 31.8 15.8 Q32.4 15.45 33.75 15.05 L34.55 14.65 35.95 14.1 Q37.7 13.4 39.4 11.8 L39.35 12.15 Q39.05 13.25 37.95 14.45 L37.85 14.45 36.3 15.65 34.8 16.45 33.35 17.0 34.3 17.05 35.7 16.85 37.05 16.6 39.15 16.05 39.05 16.15 36.75 18.3 36.55 18.45 35.05 19.2 33.55 19.45 33.85 19.05 33.35 19.2 32.95 19.45 32.8 19.55 32.55 19.55 Q32.1 19.6 31.95 19.75 L32.15 19.85 31.7 20.05 30.75 20.3 30.5 20.25 29.65 20.25 29.75 20.15 30.15 19.85 31.75 18.55 32.55 18.0 31.75 18.1 31.8 18.05 32.35 17.05 30.6 18.2 29.3 18.15 28.85 18.15 28.9 18.1 29.45 17.4 30.15 16.05 29.1 16.7 28.75 16.95 Q29.55 14.1 29.9 13.4 L30.1 13.1 Q28.45 14.5 27.75 15.7 L27.1 16.9 27.05 16.9 27.0 17.0 26.95 17.0 26.45 17.4 26.55 17.05 26.4 17.4 26.35 17.45 26.15 17.65 26.2 17.25 Q26.55 15.9 27.1 15.05 26.65 15.1 26.25 15.55 L26.35 14.75 26.55 12.8 26.6 12.7 26.75 12.45 26.6 12.5 26.95 10.4 27.35 9.2 26.95 9.6 26.25 10.65 25.95 11.45 25.45 12.75 25.35 13.35 25.25 13.45 Q25.0 13.65 24.7 14.2 L24.15 14.9 24.1 14.85 24.1 14.8 Q23.95 14.5 24.05 13.85 L24.15 13.3 24.2 12.95 24.35 12.65 24.45 12.45 24.4 12.7 24.2 13.4 Q24.65 13.1 24.95 12.1 L25.35 10.6 Q26.35 8.25 27.85 6.95 L28.05 6.85 28.55 6.45 29.25 5.85 30.75 4.8 Q31.15 4.5 31.4 4.5 L31.8 4.65 M26.75 3.15 L26.25 3.45 Q25.7 4.0 25.5 4.55 L25.0 6.3 24.85 7.75 24.75 8.4 24.8 9.05 25.0 9.4 24.55 11.35 23.95 11.85 23.95 11.2 24.0 9.8 23.55 10.6 Q23.1 11.7 23.0 13.05 L22.6 13.95 21.9 8.75 Q21.8 8.0 22.15 7.9 L22.45 8.7 23.05 10.45 23.2 10.95 23.2 10.45 23.25 10.05 23.3 9.8 Q23.95 7.0 24.35 5.95 25.2 3.85 26.75 3.15 M25.85 7.0 L25.95 6.7 25.95 6.85 25.85 7.0 M29.55 22.95 L29.6 22.9 29.85 22.8 30.15 22.85 30.45 22.8 32.2 23.15 31.35 23.15 29.55 22.95 M32.55 20.7 L32.9 20.35 33.1 20.15 33.15 20.05 35.5 20.25 36.75 20.15 37.15 19.85 Q34.7 21.85 32.1 22.4 L31.8 22.45 31.75 22.45 31.5 22.5 31.6 22.45 31.25 22.45 32.15 21.7 33.05 20.85 32.55 20.7" fill="url(#gradient0)" fill-rule="evenodd" stroke="none"/>
      <path d="M31.5 8.7 L31.5 8.75 29.45 11.05 29.4 10.4 29.55 9.35 30.25 7.95 30.95 6.55 31.75 4.75 31.8 4.65 32.0 4.95 31.95 5.65 31.65 6.25 31.6 6.35 31.55 6.45 31.35 6.85 31.15 7.35 30.15 9.85 31.5 8.7 M26.75 3.15 L26.35 5.2 26.15 6.05 26.05 6.45 25.95 6.65 25.95 6.7 25.85 7.0 25.85 7.05 25.8 7.05 25.15 8.95 25.0 9.4 24.8 9.05 24.75 8.4 24.85 7.75 25.0 6.3 25.5 4.55 Q25.7 4.0 26.25 3.45 L26.75 3.15 M23.25 10.05 L23.2 10.45 23.2 10.95 23.05 10.45 22.45 8.7 22.15 7.9 22.4 8.2 22.5 8.3 23.0 9.45 23.2 10.25 23.25 10.05" fill="#b168e1" fill-rule="evenodd" stroke="none"/>
      <path d="M28.55 6.45 L28.05 6.85 27.95 6.7 27.25 6.45 26.55 6.45 Q26.3 6.5 25.95 6.85 L25.95 6.7 25.95 6.65 26.05 6.45 26.15 6.05 Q28.6 4.15 29.1 5.1 28.95 5.2 28.95 5.45 L28.85 5.85 28.55 6.45 M26.35 17.45 L26.4 17.4 26.45 17.4 26.35 17.45 M35.45 11.05 L35.7 9.4 36.25 10.1 36.9 11.6 35.9 12.35 35.9 12.3 35.8 11.45 35.45 11.05 M33.2 7.5 L32.4 8.05 32.35 8.0 Q32.05 7.45 31.15 7.35 L31.35 6.85 31.55 6.45 32.0 6.4 Q32.6 6.4 32.95 6.85 L33.2 7.5" fill="#8c5dab" fill-rule="evenodd" stroke="none"/>
      <path d="M28.05 6.85 L27.85 6.95 Q26.35 8.25 25.35 10.6 L24.95 12.1 Q24.65 13.1 24.2 13.4 L24.4 12.7 24.45 12.45 24.95 11.25 24.55 11.35 25.0 9.4 25.15 8.95 25.8 7.05 25.85 7.05 25.85 7.0 25.95 6.85 Q26.3 6.5 26.55 6.45 L27.25 6.45 27.95 6.7 28.05 6.85 M26.4 17.4 L26.55 17.05 26.45 17.4 26.4 17.4 M34.35 13.3 L35.0 12.2 35.45 11.05 35.8 11.45 35.9 12.3 35.9 12.35 34.15 13.75 34.35 13.3 M32.4 8.05 L31.5 8.7 30.15 9.85 31.15 7.35 Q32.05 7.45 32.35 8.0 L32.4 8.05" fill="#644677" fill-rule="evenodd" stroke="none"/>
      <path d="M32.15 19.85 L31.95 19.75 Q32.1 19.6 32.55 19.55 L32.8 19.55 32.15 19.85 M33.55 19.45 L35.05 19.2 36.55 18.45 Q37.35 18.25 37.75 18.75 38.05 19.15 37.75 19.45 L37.15 19.85 36.75 20.15 35.5 20.25 33.15 20.05 33.55 19.45 M39.15 16.05 L37.05 16.6 35.7 16.85 34.3 17.05 33.35 17.0 34.8 16.45 36.3 15.65 37.85 14.45 37.95 14.45 37.45 14.95 Q38.75 14.85 39.55 15.35 L39.15 16.05 M39.4 11.8 Q37.7 13.4 35.95 14.1 L34.55 14.65 33.75 15.05 Q32.4 15.45 31.8 15.8 L32.0 15.45 32.35 15.15 34.35 13.3 34.15 13.75 35.9 12.35 36.9 11.6 37.95 10.75 Q38.7 10.25 39.0 10.35 L39.1 10.4 Q39.7 10.75 39.4 11.75 L39.4 11.8 M31.25 22.45 L31.6 22.45 31.5 22.5 31.75 22.45 31.8 22.45 32.15 22.5 32.2 22.5 32.95 22.75 32.5 23.05 32.25 23.15 32.2 23.15 30.45 22.8 31.25 22.45" fill="#eaccfd" fill-rule="evenodd" stroke="none"/>
      <path d="M25.35 13.35 L25.45 12.75 25.95 11.45 26.25 10.65 26.95 9.6 27.35 9.2 26.95 10.4 26.6 12.5 Q26.15 12.6 25.35 13.35 M26.55 12.8 L26.35 14.75 26.25 15.55 25.95 15.85 Q25.45 16.55 25.25 17.25 L25.25 17.1 25.35 15.95 25.6 14.85 25.6 14.75 25.75 14.3 25.95 13.85 26.55 12.8 M27.0 17.0 L27.05 16.9 27.0 17.0 M27.1 16.9 L27.75 15.7 Q28.45 14.5 30.1 13.1 L29.9 13.4 Q29.55 14.1 28.75 16.95 L28.0 17.45 27.8 17.6 27.95 16.65 28.25 16.0 27.95 16.2 27.1 16.9 M28.85 18.15 L29.3 18.15 30.6 18.2 Q30.45 18.25 30.25 18.4 L29.5 18.85 29.25 18.95 27.95 18.9 27.9 18.85 28.85 18.15 M31.75 18.1 L32.55 18.0 31.75 18.55 30.15 19.85 29.75 20.15 30.15 19.7 30.95 19.1 31.6 18.4 31.75 18.2 31.75 18.1 M29.65 20.25 L30.5 20.25 30.75 20.3 30.15 20.45 29.75 20.4 29.35 20.4 29.3 20.4 29.4 20.35 29.65 20.25 M23.0 13.05 Q23.1 11.7 23.55 10.6 L24.0 9.8 23.95 11.2 23.95 11.85 23.5 12.4 23.0 13.05 M29.85 22.8 L30.65 22.25 31.85 21.3 32.55 20.7 33.05 20.85 32.15 21.7 31.25 22.45 30.45 22.8 30.15 22.85 29.85 22.8" fill="#cf8bfb" fill-rule="evenodd" stroke="none"/>
      <path d="M24.45 12.45 L24.35 12.65 Q23.55 13.4 23.55 15.55 L23.95 15.0 24.05 14.85 Q23.8 16.25 23.4 16.6 L23.05 15.35 23.2 14.0 Q23.55 12.55 24.65 11.65 L24.75 11.55 24.45 12.45 M26.6 12.7 L26.55 12.8 25.95 13.85 25.75 14.3 25.6 14.75 25.6 14.85 Q25.3 15.0 25.05 15.45 L24.75 16.3 Q24.3 17.1 24.55 18.1 L24.75 17.85 24.65 18.45 24.2 16.95 Q24.15 16.1 24.55 15.2 25.35 13.65 26.6 12.7 M26.2 17.25 L26.15 17.65 26.35 17.45 26.25 17.65 27.0 17.0 27.1 16.9 27.95 16.2 27.75 16.55 27.6 16.85 27.45 17.05 26.55 17.85 Q26.35 18.15 26.45 18.45 26.55 18.7 26.85 18.65 26.7 18.9 26.85 19.05 L27.25 19.65 27.4 19.4 27.95 18.95 27.95 18.9 29.25 18.95 29.5 18.85 30.25 18.4 Q30.45 18.25 30.6 18.2 L32.35 17.05 31.8 18.05 30.75 18.75 30.5 18.95 29.5 19.35 28.3 19.65 27.75 19.65 27.3 19.7 Q27.65 20.3 27.6 20.65 L27.55 21.3 27.15 21.65 25.45 21.85 25.55 21.75 Q26.55 20.75 26.15 20.25 L25.75 20.5 26.05 20.05 26.0 19.0 Q25.75 18.15 25.95 17.7 L26.2 17.25 M28.75 16.95 L29.1 16.7 30.15 16.05 28.45 17.55 27.4 18.15 27.8 17.45 27.8 17.6 28.0 17.45 28.75 16.95 M30.75 20.3 L31.7 20.05 32.15 19.85 32.8 19.55 32.95 19.45 33.35 19.2 33.85 19.05 33.55 19.45 33.35 19.7 31.45 21.05 29.55 21.25 28.75 21.05 29.75 20.45 29.75 20.4 30.15 20.45 30.75 20.3 M24.1 20.15 L24.35 20.5 24.9 21.05 24.3 21.25 24.15 21.2 24.1 21.15 24.1 20.95 23.55 19.85 22.8 18.8 Q23.0 18.5 23.65 19.45 L23.75 19.65 24.0 20.05 24.1 20.15 M23.55 22.4 L23.55 22.8 23.35 23.2 23.25 23.55 21.55 26.15 21.0 26.9 20.8 27.1 20.85 27.15 18.5 29.05 14.2 31.0 Q11.7 32.15 11.1 32.85 8.7 35.65 8.5 36.9 L8.25 38.1 7.85 38.6 Q7.7 38.65 7.0 39.25 L6.9 39.1 7.1 38.65 7.65 36.25 Q7.0 37.45 6.35 37.95 L5.15 38.65 5.15 38.5 4.85 37.75 5.35 37.05 6.3 36.2 5.25 36.8 4.7 37.55 4.2 38.05 4.0 37.75 4.35 37.45 4.55 37.1 4.65 36.95 4.9 36.55 3.9 37.05 3.6 37.15 3.55 37.15 3.25 36.65 3.3 36.65 3.95 36.55 5.3 35.55 6.25 34.7 6.2 34.85 6.3 34.8 6.15 35.0 5.95 35.3 5.5 36.4 5.5 36.45 5.65 36.3 Q6.4 35.8 7.6 34.0 L7.15 36.45 7.8 35.65 8.95 34.1 9.85 33.05 11.0 32.15 Q11.85 31.45 16.75 29.6 18.5 28.85 19.65 27.65 L21.75 25.35 Q22.8 24.25 22.9 23.15 L23.55 22.4 M2.8 35.05 L2.75 35.55 2.35 35.85 2.8 35.05 M2.75 35.75 L2.9 36.1 2.7 36.05 2.75 35.75" fill="#6c840e" fill-rule="evenodd" stroke="none"/>
      <path d="M24.1 14.85 L24.15 14.9 24.7 14.2 Q25.0 13.65 25.25 13.45 L25.35 13.35 Q26.15 12.6 26.6 12.5 L26.75 12.45 26.6 12.7 Q25.35 13.65 24.55 15.2 24.15 16.1 24.2 16.95 L24.65 18.45 24.75 17.85 24.95 17.45 25.25 17.1 25.25 17.25 Q25.45 16.55 25.95 15.85 L26.25 15.55 Q26.65 15.1 27.1 15.05 26.55 15.9 26.2 17.25 L25.95 17.7 Q25.75 18.15 26.0 19.0 L26.05 20.05 25.75 20.5 24.9 21.05 24.35 20.5 24.1 20.15 24.35 20.35 24.55 20.3 24.65 20.15 25.0 19.4 Q25.1 18.85 24.85 18.45 L24.3 18.85 Q24.05 18.95 23.9 18.25 L23.75 17.1 23.9 16.6 23.95 16.05 23.35 16.7 Q22.95 17.15 22.75 16.45 L22.65 15.65 22.6 14.9 22.5 14.4 22.35 15.0 22.6 13.95 23.0 13.05 23.5 12.4 23.95 11.85 24.55 11.35 24.95 11.25 24.45 12.45 24.75 11.55 24.65 11.65 Q23.55 12.55 23.2 14.0 L23.05 15.35 23.4 16.6 Q23.8 16.25 24.05 14.85 L24.1 14.85 M31.8 18.05 L31.75 18.1 31.75 18.2 30.75 18.75 31.8 18.05 M29.75 20.15 L29.65 20.25 29.4 20.35 29.8 20.05 30.15 19.7 29.75 20.15 M28.25 16.0 L27.95 16.65 27.8 17.6 27.8 17.45 27.95 16.6 28.25 16.0 M22.6 18.1 L23.2 18.5 23.65 19.45 Q23.0 18.5 22.8 18.8 L22.6 18.1 M24.15 21.2 L24.3 21.25 24.15 21.25 24.15 21.2 M33.15 20.05 L33.35 19.7 33.55 19.45 33.15 20.05 M21.55 24.6 L23.75 22.1 23.55 22.4 22.9 23.15 Q22.8 24.25 21.75 25.35 L19.65 27.65 Q18.5 28.85 16.75 29.6 11.85 31.45 11.0 32.15 L9.85 33.05 8.95 34.1 7.8 35.65 7.15 36.45 7.6 34.0 Q6.4 35.8 5.65 36.3 L5.5 36.45 5.5 36.4 5.95 35.3 6.15 35.0 6.3 34.8 6.8 34.3 7.35 33.65 7.45 33.45 Q7.45 33.85 7.65 33.8 L7.95 33.5 8.05 32.85 Q8.05 32.55 8.25 32.65 8.6 32.85 8.55 33.35 8.75 32.65 9.35 32.0 10.0 31.3 12.1 30.35 L13.35 29.85 12.75 30.65 14.75 29.75 15.25 29.35 15.6 29.05 15.7 29.0 18.3 27.95 20.55 26.25 Q22.0 25.05 21.55 24.6 M22.35 25.85 L22.25 25.9 22.45 25.65 22.35 25.85 M5.3 35.55 L3.95 36.55 3.3 36.65 2.9 36.15 2.7 36.05 2.9 36.1 2.75 35.75 2.95 35.4 2.75 35.55 2.8 35.05 3.5 34.25 3.15 35.25 2.95 35.65 2.95 36.05 Q3.1 36.3 3.6 36.2 L4.55 35.55 5.35 34.8 5.3 35.55 M3.95 33.7 L4.5 33.25 5.3 32.65 3.95 33.7" fill="#86a214" fill-rule="evenodd" stroke="none"/>
      <path d="M24.35 12.65 L24.2 12.95 24.15 13.3 24.05 13.85 Q23.95 14.5 24.1 14.8 L24.1 14.85 24.05 14.85 23.95 15.0 23.55 15.55 Q23.55 13.4 24.35 12.65 M26.45 17.4 L26.95 17.0 27.0 17.0 27.05 16.9 27.1 16.9 27.0 17.0 26.25 17.65 26.35 17.45 26.45 17.4 M30.15 16.05 L29.45 17.4 28.9 18.1 28.85 18.15 27.9 18.85 27.95 18.9 27.95 18.95 27.4 19.4 27.25 19.65 26.85 19.05 Q26.7 18.9 26.85 18.65 26.55 18.7 26.45 18.45 26.35 18.15 26.55 17.85 L27.45 17.05 27.6 16.85 27.75 16.55 27.95 16.2 28.25 16.0 27.95 16.6 27.8 17.45 27.4 18.15 28.45 17.55 30.15 16.05 M25.25 17.1 L24.95 17.45 24.75 17.85 24.55 18.1 Q24.3 17.1 24.75 16.3 L25.05 15.45 Q25.3 15.0 25.6 14.85 L25.35 15.95 25.25 17.1 M24.9 21.05 L25.75 20.5 26.15 20.25 Q26.55 20.75 25.55 21.75 L25.45 21.85 27.15 21.65 27.55 21.3 27.6 20.65 Q27.65 20.3 27.3 19.7 L27.75 19.65 28.3 19.65 29.5 19.35 30.5 18.95 29.05 19.95 Q28.5 20.25 28.35 20.8 L28.75 20.85 29.05 20.55 29.35 20.4 29.75 20.4 29.75 20.45 28.75 21.05 29.55 21.25 31.45 21.05 33.35 19.7 33.15 20.05 33.1 20.15 32.9 20.35 32.55 20.7 31.85 21.3 30.65 22.25 30.35 22.35 29.7 22.3 29.25 22.1 28.75 22.4 28.3 22.7 26.75 22.65 25.95 22.6 25.15 22.25 24.75 21.6 24.6 21.3 Q24.45 21.2 24.15 21.45 L24.15 21.25 24.3 21.25 24.9 21.05 M23.75 22.1 L24.4 23.0 24.0 23.65 23.75 23.95 23.05 24.9 22.45 25.65 22.25 25.9 22.35 25.85 22.65 25.8 23.95 26.1 25.35 26.35 26.35 26.25 Q25.3 27.65 23.95 28.1 22.35 28.7 21.0 27.3 21.8 28.1 22.75 28.25 L22.2 27.85 22.0 27.45 Q22.0 27.25 22.3 27.25 L23.15 27.45 24.0 27.55 Q24.9 27.45 25.95 26.6 23.35 27.85 21.95 26.05 L21.85 25.95 21.55 26.15 23.25 23.55 23.35 23.2 23.55 22.8 23.55 22.4 23.75 22.1 M4.7 37.55 L5.25 36.8 6.3 36.2 5.35 37.05 4.85 37.75 4.7 37.55 M5.15 38.65 L6.35 37.95 Q7.0 37.45 7.65 36.25 L7.1 38.65 6.9 39.1 6.65 38.65 5.5 38.9 5.15 38.65 M7.0 39.25 Q7.7 38.65 7.85 38.6 L8.25 38.1 8.5 36.9 Q8.7 35.65 11.1 32.85 11.7 32.15 14.2 31.0 L18.5 29.05 20.85 27.15 21.0 27.3 20.95 27.4 Q19.35 29.0 15.0 31.8 13.95 32.15 12.55 33.25 11.05 33.35 10.4 34.65 L9.7 35.65 Q9.35 36.25 8.95 37.65 8.35 38.9 7.55 39.25 L7.0 39.25 M13.95 23.8 Q15.45 24.85 16.05 26.65 L16.15 27.05 16.15 27.1 Q15.5 26.35 14.95 26.15 L15.3 25.8 Q15.4 25.55 15.1 25.25 L14.0 24.65 11.45 24.6 Q12.9 23.55 13.95 23.8 M9.3 26.45 L9.35 26.2 9.55 26.25 11.4 26.05 13.35 26.2 Q14.65 26.55 15.05 27.65 L15.35 28.5 15.4 29.1 15.4 29.2 14.75 29.75 12.75 30.65 13.35 29.85 13.65 29.4 14.05 29.05 Q14.4 28.6 14.35 28.05 14.35 27.25 13.5 26.75 L10.95 26.55 9.25 26.8 9.25 26.65 9.25 26.55 9.3 26.45 M3.8 37.5 L3.8 37.45 3.85 37.5 3.8 37.5" fill="#546708" fill-rule="evenodd" stroke="none"/>
      <path d="M22.35 15.0 L22.5 14.4 22.6 14.9 22.65 15.65 22.75 16.45 Q22.95 17.15 23.35 16.7 L23.95 16.05 23.9 16.6 23.75 17.1 23.9 18.25 Q24.05 18.95 24.3 18.85 L24.85 18.45 Q25.1 18.85 25.0 19.4 L24.65 20.15 24.55 20.3 24.35 20.35 24.1 20.15 24.0 20.05 23.75 19.65 23.65 19.45 23.2 18.5 22.6 18.1 22.55 18.1 22.55 18.05 22.5 18.05 Q22.15 17.05 22.35 15.0 M16.1 28.2 L18.15 27.15 20.35 25.65 21.55 24.55 21.55 24.6 Q22.0 25.05 20.55 26.25 L18.3 27.95 15.7 29.0 15.6 29.05 16.1 28.2 M6.3 34.8 L6.2 34.85 6.25 34.7 5.3 35.55 5.35 34.8 4.55 35.55 3.6 36.2 Q3.1 36.3 2.95 36.05 L2.95 35.65 3.15 35.25 3.5 34.25 3.5 34.2 3.95 33.7 5.3 32.65 7.25 31.2 7.7 31.05 8.8 30.75 14.05 29.05 13.65 29.4 13.35 29.85 12.1 30.35 Q10.0 31.3 9.35 32.0 8.75 32.65 8.55 33.35 8.6 32.85 8.25 32.65 8.05 32.55 8.05 32.85 L7.95 33.5 7.65 33.8 Q7.45 33.85 7.45 33.45 L7.35 33.65 6.8 34.3 6.3 34.8" fill="#a5c71a" fill-rule="evenodd" stroke="none"/>
      <path d="M30.5 18.95 L30.75 18.75 31.75 18.2 31.6 18.4 30.95 19.1 30.15 19.7 29.8 20.05 29.4 20.35 29.3 20.4 29.35 20.4 29.05 20.55 28.75 20.85 28.35 20.8 Q28.5 20.25 29.05 19.95 L30.5 18.95 M24.15 21.45 Q24.45 21.2 24.6 21.3 L24.75 21.6 25.15 22.25 25.95 22.6 26.75 22.65 28.3 22.7 28.75 22.4 29.25 22.1 29.7 22.3 30.35 22.35 30.65 22.25 29.85 22.8 29.6 22.9 29.55 22.95 28.15 23.25 27.35 23.05 26.55 22.85 24.6 22.7 24.4 23.0 23.75 22.1 24.1 21.65 24.15 21.45 M21.55 26.15 L21.85 25.95 21.95 26.05 Q23.35 27.85 25.95 26.6 24.9 27.45 24.0 27.55 L23.15 27.45 22.3 27.25 Q22.0 27.25 22.0 27.45 L22.2 27.85 22.75 28.25 Q21.8 28.1 21.0 27.3 L20.85 27.15 20.8 27.1 21.0 26.9 21.55 26.15 M3.55 37.15 L3.6 37.15 3.9 37.05 4.9 36.55 4.65 36.95 4.55 37.1 4.35 37.45 4.0 37.75 4.2 38.05 4.7 37.55 4.85 37.75 5.15 38.5 5.15 38.65 5.5 38.9 6.65 38.65 6.9 39.1 7.0 39.25 7.55 39.25 Q8.35 38.9 8.95 37.65 9.35 36.25 9.7 35.65 L10.4 34.65 Q11.05 33.35 12.55 33.25 L11.4 34.25 10.95 34.7 10.4 35.2 Q9.6 36.25 8.75 38.15 L8.0 39.85 6.65 39.55 Q5.35 39.05 4.8 38.65 L4.3 38.2 4.2 38.05 3.8 37.5 3.85 37.5 3.8 37.45 3.55 37.15 M2.75 35.55 L2.95 35.4 2.75 35.75 2.7 36.05 2.35 35.85 2.75 35.55" fill="#3b4a03" fill-rule="evenodd" stroke="none"/>
      <path d="M9.3 26.45 L9.4 26.05 Q9.75 25.05 10.85 23.85 12.05 22.55 13.8 23.7 L13.95 23.8 Q12.9 23.55 11.45 24.6 L14.0 24.65 15.1 25.25 Q15.4 25.55 15.3 25.8 L14.95 26.15 Q15.5 26.35 16.15 27.1 L16.1 28.2 15.6 29.05 15.25 29.35 14.75 29.75 15.4 29.2 15.4 29.1 15.35 28.5 15.05 27.65 Q14.65 26.55 13.35 26.2 L11.4 26.05 9.55 26.25 9.35 26.2 9.3 26.45" fill="url(#gradient1)" fill-rule="evenodd" stroke="none"/>
    </g>
    <radialGradient cx="0" cy="0" gradientTransform="matrix(0.0112, 0.014, 0.01, -0.0085, 27.55, 18.1)" gradientUnits="userSpaceOnUse" id="gradient0" r="819.2" spreadMethod="pad">
      <stop offset="0.0" stop-color="#ffffff"/>
      <stop offset="0.9882352941176471" stop-color="#cf80f9"/>
    </radialGradient>
    <linearGradient gradientTransform="matrix(0.0028, -0.0022, -0.0019, -0.0022, 13.15, 26.5)" gradientUnits="userSpaceOnUse" id="gradient1" spreadMethod="pad" x1="-819.2" x2="819.2">
      <stop offset="0.0" stop-color="#596c0a"/>
      <stop offset="1.0" stop-color="#a7ca1c"/>
    </linearGradient>
  </defs>
</svg>
