<?xml version="1.0" encoding="UTF-8" standalone="no"?>
<svg xmlns:xlink="http://www.w3.org/1999/xlink" height="46.1px" width="43.2px" xmlns="http://www.w3.org/2000/svg">
  <g transform="matrix(1.0, 0.0, 0.0, 1.0, 0.0, 0.0)">
    <use height="36.85" transform="matrix(1.0, 0.0, 0.0, 1.0, 10.35, 9.25)" width="22.5" xlink:href="#shape0"/>
  </g>
  <defs>
    <g id="shape0" transform="matrix(1.0, 0.0, 0.0, 1.0, -10.35, -9.25)">
      <path d="M21.2 45.8 Q16.75 45.7 13.7 42.5 10.65 39.25 10.8 34.8 L11.0 32.9 Q12.4 33.9 15.1 34.6 L21.25 35.35 27.85 34.85 Q30.7 34.25 32.0 33.15 L32.2 35.35 Q32.05 39.8 28.85 42.9 25.65 45.9 21.2 45.8" fill="url(#gradient0)" fill-rule="evenodd" stroke="none"/>
      <path d="M21.45 29.8 Q25.85 29.9 28.9 30.8 32.0 31.7 31.95 32.8 31.9 33.9 28.8 34.65 L21.3 35.25 13.85 34.25 Q10.8 33.35 10.85 32.25 10.85 31.1 14.0 30.4 L21.45 29.8" fill="url(#gradient1)" fill-rule="evenodd" stroke="none"/>
      <path d="M10.85 32.3 Q10.9 33.4 13.85 34.25 L21.3 35.25 28.8 34.65 Q31.85 33.9 31.95 32.85 31.85 34.1 29.4 34.9 26.5 35.8 21.45 35.65 16.4 35.5 13.45 34.45 10.85 33.5 10.85 32.3" fill="#fcf3a8" fill-rule="evenodd" stroke="none"/>
      <path d="M21.4 36.3 Q21.85 35.9 22.45 35.9 23.05 35.9 23.5 36.3 23.95 36.75 23.9 37.3 23.85 37.9 23.45 38.3 23.0 38.7 22.4 38.7 21.75 38.7 21.35 38.3 20.9 37.85 20.9 37.25 20.95 36.7 21.4 36.3" fill="url(#gradient2)" fill-rule="evenodd" stroke="none"/>
      <path d="M14.0 35.85 L13.7 36.4 13.05 36.65 Q12.7 36.65 12.45 36.4 12.2 36.1 12.25 35.8 12.25 35.45 12.5 35.2 12.75 34.95 13.1 34.95 14.0 35.05 14.0 35.85" fill="url(#gradient3)" fill-rule="evenodd" stroke="none"/>
      <path d="M17.95 35.4 L17.7 36.0 17.05 36.2 16.45 35.95 16.2 35.35 Q16.25 35.05 16.45 34.8 16.75 34.55 17.1 34.55 L17.7 34.8 17.95 35.4" fill="url(#gradient4)" fill-rule="evenodd" stroke="none"/>
      <path d="M24.35 33.35 L24.1 33.95 23.45 34.2 Q22.6 34.1 22.6 33.3 L22.85 32.75 Q23.15 32.5 23.5 32.5 23.85 32.5 24.1 32.75 L24.35 33.35" fill="url(#gradient5)" fill-rule="evenodd" stroke="none"/>
      <path d="M18.7 39.95 Q18.65 40.55 18.25 40.95 L17.2 41.3 Q16.55 41.3 16.15 40.9 15.7 40.5 15.7 39.9 15.75 39.3 16.2 38.9 16.65 38.5 17.25 38.5 17.85 38.55 18.3 38.95 18.7 39.4 18.7 39.95" fill="url(#gradient6)" fill-rule="evenodd" stroke="none"/>
      <path d="M29.3 37.55 L29.05 38.15 28.4 38.35 27.8 38.1 Q27.5 37.85 27.5 37.5 L27.8 36.9 28.45 36.7 Q28.85 36.7 29.05 36.95 29.35 37.2 29.3 37.55" fill="url(#gradient7)" fill-rule="evenodd" stroke="none"/>
      <path d="M14.1 31.5 Q13.1 31.45 12.75 31.1 12.85 30.55 13.25 30.25 13.65 29.9 14.15 29.95 14.65 29.95 15.05 30.3 15.45 30.7 15.5 31.3 L14.1 31.5" fill="url(#gradient8)" fill-rule="evenodd" stroke="none"/>
      <path d="M23.45 33.3 L22.4 33.05 Q22.65 32.1 23.5 32.1 24.45 32.2 24.6 33.15 L23.45 33.3" fill="url(#gradient9)" fill-rule="evenodd" stroke="none"/>
      <path d="M19.7 34.6 Q18.45 34.55 18.15 34.1 18.25 33.5 18.75 33.15 19.2 32.75 19.8 32.8 20.4 32.8 20.85 33.25 21.3 33.7 21.35 34.35 L19.7 34.6" fill="url(#gradient10)" fill-rule="evenodd" stroke="none"/>
      <path d="M27.85 31.25 L26.4 30.9 Q26.65 29.95 27.85 29.95 28.45 30.0 28.85 30.3 29.25 30.65 29.25 31.1 L27.85 31.25" fill="url(#gradient11)" fill-rule="evenodd" stroke="none"/>
      <path d="M22.6 22.1 Q22.8 21.9 23.05 21.75 L23.95 21.3 24.1 22.8 24.35 25.2 Q23.05 24.9 23.3 24.6 23.55 24.35 23.2 23.55 L22.6 22.1 22.05 22.5 Q21.25 23.5 22.45 24.6 L23.65 25.3 24.45 25.95 24.35 25.2 24.4 25.2 26.55 25.9 Q28.85 27.3 30.2 29.85 L31.8 32.65 Q32.9 33.5 30.7 34.4 28.05 35.45 22.5 35.3 17.15 35.15 13.95 33.9 11.35 32.85 11.95 32.3 L13.45 29.95 Q14.7 27.8 15.6 27.3 16.35 26.9 17.65 27.3 18.85 27.7 19.35 27.3 19.95 26.75 19.35 25.75 L18.6 24.5 18.7 23.0 18.75 22.85 Q19.0 21.7 19.5 20.7 19.85 20.2 20.1 21.3 L20.25 21.2 22.35 20.05 Q23.05 19.6 22.0 18.7 L23.3 18.7 23.65 18.75 22.9 19.9 Q22.2 20.7 22.45 21.65 L22.6 22.1 M25.2 19.45 Q25.65 20.1 24.4 20.95 L23.95 21.3 23.65 18.75 Q24.8 18.9 25.2 19.45" fill="url(#gradient12)" fill-rule="evenodd" stroke="none"/>
      <path d="M11.2 30.6 Q12.95 26.2 17.2 24.25 21.45 22.3 25.8 24.0 30.05 25.7 31.9 30.05 33.75 34.35 32.05 38.7 30.3 43.1 26.05 45.1 21.75 47.0 17.45 45.3 13.15 43.6 11.3 39.3 9.45 35.0 11.2 30.6" fill="url(#gradient13)" fill-rule="evenodd" stroke="none"/>
      <path d="M17.45 45.3 Q13.15 43.6 11.3 39.3 9.45 35.0 11.2 30.6 12.95 26.2 17.2 24.25 21.45 22.3 25.8 24.0 30.05 25.7 31.9 30.05 33.75 34.35 32.05 38.7 30.3 43.1 26.05 45.1 21.75 47.0 17.45 45.3 M11.45 30.5 Q9.75 34.85 11.55 39.05 13.35 43.3 17.6 44.9 21.85 46.6 26.05 44.7 30.2 42.85 31.9 38.5 33.6 34.2 31.8 30.0 30.0 25.75 25.75 24.1 21.5 22.45 17.3 24.3 13.1 26.2 11.45 30.5" fill="url(#gradient14)" fill-rule="evenodd" stroke="none"/>
      <path d="M22.6 28.1 L24.45 27.8 Q27.05 28.7 27.7 31.75 28.05 33.3 27.85 34.65 L27.75 35.9 Q27.45 37.45 26.45 38.45 23.3 41.6 14.45 38.65 11.85 37.75 11.65 34.45 11.4 31.55 12.85 29.05 13.5 27.85 14.8 26.9 15.8 26.15 16.25 26.1 L16.5 26.55 Q16.95 27.15 18.65 27.7 L22.6 28.1" fill="url(#gradient15)" fill-rule="evenodd" stroke="none"/>
      <path d="M26.5 26.9 Q26.85 26.6 26.5 25.7 L26.15 24.9 28.15 26.2 Q30.35 27.9 31.25 29.95 32.1 32.05 32.05 34.45 L31.75 36.4 29.95 36.75 30.25 35.75 Q30.5 34.35 30.0 32.1 29.5 29.9 27.95 28.15 L26.5 26.9" fill="url(#gradient16)" fill-rule="evenodd" stroke="none"/>
      <path d="M25.05 26.6 L24.9 26.65 Q26.05 26.2 26.05 25.6 26.1 24.95 24.85 24.5 L21.85 24.0 18.85 24.4 Q17.55 24.8 17.5 25.45 17.45 26.05 18.55 26.5 L19.8 26.9 18.45 26.5 Q17.3 26.05 17.35 25.4 17.4 24.75 18.7 24.3 L21.85 23.9 Q23.75 23.9 25.05 24.4 26.3 24.9 26.25 25.55 26.2 26.15 25.05 26.6" fill="url(#gradient17)" fill-rule="evenodd" stroke="none"/>
      <path d="M26.05 25.6 Q26.05 26.25 24.75 26.7 L21.7 27.1 18.7 26.55 Q17.45 26.1 17.5 25.45 17.55 24.8 18.85 24.4 L21.85 24.0 24.85 24.5 Q26.1 24.95 26.05 25.6" fill="url(#gradient18)" fill-rule="evenodd" stroke="none"/>
      <path d="M27.45 17.3 Q27.45 18.3 25.85 18.95 24.3 19.65 22.05 19.6 19.85 19.55 18.35 18.8 16.85 18.1 16.85 17.1 16.9 16.1 18.45 15.4 20.05 14.7 22.25 14.75 24.45 14.85 26.0 15.55 27.5 16.3 27.45 17.3 M22.1 18.3 L25.15 17.9 Q26.4 17.45 26.4 16.75 26.45 16.1 25.2 15.6 24.0 15.1 22.25 15.1 L19.25 15.5 Q18.0 15.9 17.95 16.6 17.9 17.3 19.15 17.75 L22.1 18.3" fill="url(#gradient19)" fill-rule="evenodd" stroke="none"/>
      <path d="M26.2 25.25 L26.25 25.55 Q26.2 26.3 24.9 26.8 L21.85 27.3 Q20.05 27.25 18.8 26.7 17.55 26.15 17.6 25.4 L17.65 25.1 17.85 18.05 Q18.15 18.7 19.3 19.1 L22.05 19.6 24.9 19.2 Q26.05 18.8 26.4 18.2 L26.2 25.25" fill="url(#gradient20)" fill-rule="evenodd" stroke="none"/>
      <path d="M22.05 19.5 Q24.45 19.5 25.75 18.7 L25.6 24.5 25.65 24.85 Q25.6 25.55 24.5 26.05 23.4 26.55 21.85 26.5 20.3 26.5 19.25 25.95 18.15 25.45 18.2 24.7 L18.25 24.4 18.45 18.6 Q19.65 19.45 22.05 19.5" fill="url(#gradient21)" fill-rule="evenodd" stroke="none"/>
      <path d="M22.05 27.1 L23.2 27.1 21.85 27.2 19.65 26.9 19.55 26.75 22.05 27.1" fill="url(#gradient22)" fill-rule="evenodd" stroke="none"/>
      <path d="M17.85 17.95 L18.15 18.35 18.05 24.0 Q18.05 25.15 18.65 25.9 L18.45 25.95 17.95 25.75 Q17.8 25.8 18.0 26.0 L18.25 26.25 18.25 26.3 Q17.55 25.9 17.55 25.3 L17.65 25.0 17.85 17.95" fill="url(#gradient23)" fill-rule="evenodd" stroke="none"/>
      <path d="M25.95 18.85 L25.45 19.05 25.45 18.9 26.4 18.1 26.15 25.15 26.25 25.5 25.7 26.3 25.35 25.95 25.7 25.3 25.85 24.75 26.05 19.2 25.95 18.85" fill="url(#gradient24)" fill-rule="evenodd" stroke="none"/>
      <path d="M20.15 26.35 Q19.95 26.35 20.05 26.5 L20.15 26.65 19.6 26.45 19.45 26.5 Q19.25 26.5 19.55 26.75 L18.25 26.25 18.25 26.2 18.45 25.95 18.65 26.1 19.1 26.3 18.65 25.9 18.8 25.8 19.05 18.9 20.4 19.3 20.15 26.35" fill="url(#gradient25)" fill-rule="evenodd" stroke="none"/>
      <path d="M18.65 26.1 L18.45 25.95 18.65 25.9 19.1 26.3 18.65 26.1" fill="url(#gradient26)" fill-rule="evenodd" stroke="none"/>
      <path d="M18.65 26.1 L18.45 25.95 18.65 25.9 19.1 26.3 18.65 26.1" fill="url(#gradient27)" fill-rule="evenodd" stroke="none"/>
      <path d="M25.4 19.1 L25.45 19.05 25.25 25.9 25.35 25.95 24.75 26.5 Q25.45 26.3 25.45 26.5 L24.35 26.9 24.5 26.55 24.35 26.5 23.8 26.7 24.05 19.3 24.6 19.2 25.4 19.1" fill="url(#gradient28)" fill-rule="evenodd" stroke="none"/>
      <path d="M25.4 19.1 L24.6 19.2 25.45 18.9 25.45 19.05 25.4 19.1" fill="url(#gradient29)" fill-rule="evenodd" stroke="none"/>
      <path d="M25.4 19.1 L24.6 19.2 25.45 18.9 25.45 19.05 25.4 19.1" fill="url(#gradient30)" fill-rule="evenodd" stroke="none"/>
      <path d="M25.35 25.95 L25.7 26.3 25.45 26.5 Q25.45 26.3 24.75 26.5 L25.35 25.95" fill="url(#gradient31)" fill-rule="evenodd" stroke="none"/>
      <path d="M25.35 25.95 L25.7 26.3 25.45 26.5 Q25.45 26.3 24.75 26.5 L25.35 25.95" fill="url(#gradient32)" fill-rule="evenodd" stroke="none"/>
      <path d="M20.05 26.5 Q19.95 26.35 20.15 26.35 L20.75 26.45 Q21.5 26.75 21.15 26.75 L20.15 26.65 20.05 26.5" fill="#ffffff" fill-rule="evenodd" stroke="none"/>
      <path d="M21.65 26.9 Q21.45 26.85 21.55 26.7 L21.8 26.65 21.9 26.8 21.65 26.9" fill="#ffffff" fill-rule="evenodd" stroke="none"/>
      <path d="M26.4 16.75 Q26.4 17.45 25.15 17.9 L22.1 18.3 19.15 17.75 Q17.9 17.3 17.95 16.6 18.0 15.9 19.25 15.5 L22.25 15.1 Q24.0 15.1 25.2 15.6 26.45 16.1 26.4 16.75" fill="url(#gradient33)" fill-rule="evenodd" stroke="none"/>
      <path d="M22.25 14.75 Q24.45 14.85 26.0 15.55 27.5 16.3 27.45 17.3 27.45 18.3 25.85 18.95 24.3 19.65 22.05 19.6 19.85 19.55 18.35 18.8 16.85 18.1 16.85 17.1 16.9 16.1 18.45 15.4 20.05 14.7 22.25 14.75 M22.05 19.1 L25.65 18.6 Q27.1 18.0 27.15 17.1 27.2 16.25 25.7 15.6 24.25 14.95 22.2 14.9 20.15 14.9 18.65 15.45 17.2 16.05 17.15 16.9 17.1 17.8 18.55 18.45 20.0 19.1 22.05 19.1" fill="url(#gradient34)" fill-rule="evenodd" stroke="none"/>
      <path d="M25.15 15.6 L24.85 15.5 25.25 15.65 Q26.45 16.1 26.4 16.75 26.4 17.45 25.15 17.9 L22.1 18.3 19.15 17.75 Q17.9 17.3 17.95 16.6 18.0 15.9 19.25 15.5 L19.65 15.35 19.4 15.45 Q18.2 15.9 18.15 16.55 18.15 17.2 19.3 17.7 20.45 18.15 22.15 18.2 L25.05 17.8 Q26.2 17.35 26.25 16.7 26.25 16.1 25.15 15.6" fill="url(#gradient35)" fill-rule="evenodd" stroke="none"/>
      <path d="M22.15 18.1 L24.95 17.7 Q26.1 17.3 26.15 16.7 26.2 16.05 25.05 15.6 L23.4 15.15 25.2 15.6 Q26.45 16.1 26.4 16.75 26.4 17.45 25.15 17.9 L22.1 18.3 19.15 17.75 Q17.9 17.3 17.95 16.6 18.0 15.9 19.25 15.5 L19.85 15.3 19.4 15.45 Q18.25 15.85 18.25 16.5 18.2 17.1 19.35 17.6 L22.15 18.1" fill="url(#gradient36)" fill-rule="evenodd" stroke="none"/>
      <path d="M26.8 10.15 L26.25 16.8 25.55 17.45 Q24.35 18.1 22.15 18.05 19.85 18.0 18.7 17.35 L18.0 16.75 17.25 10.3 18.05 9.95 21.2 9.3 25.3 9.6 26.8 10.15" fill="#a78a56" fill-rule="evenodd" stroke="none"/>
      <path d="M24.2 11.45 L24.65 11.6 24.95 11.9 Q24.9 12.3 24.05 12.6 L21.4 12.9 18.65 12.6 17.45 12.05 17.25 10.3 17.65 10.5 18.55 10.85 20.35 11.35 22.35 11.4 23.45 11.4 23.65 11.3 23.75 11.05 23.9 10.9 24.2 11.45" fill="#cba769" fill-rule="evenodd" stroke="none"/>
      <path d="M20.95 9.75 Q21.15 9.75 21.15 9.9 L21.0 10.1 20.45 10.25 19.2 10.25 Q19.2 9.75 20.5 9.75 L20.95 9.75" fill="url(#gradient37)" fill-rule="evenodd" stroke="none"/>
      <path d="M22.4 10.5 L22.15 10.7 21.8 10.75 21.1 10.7 Q21.05 10.45 21.4 10.4 L21.9 10.4 22.4 10.5" fill="url(#gradient38)" fill-rule="evenodd" stroke="none"/>
      <path d="M22.7 9.7 L22.9 9.7 23.15 9.8 22.7 9.8 22.7 9.7" fill="url(#gradient39)" fill-rule="evenodd" stroke="none"/>
      <path d="M24.7 9.7 Q24.45 9.5 24.65 9.45 L26.0 9.8 25.85 9.8 24.7 9.7" fill="url(#gradient40)" fill-rule="evenodd" stroke="none"/>
      <path d="M25.85 10.15 L25.8 10.05 26.45 10.05 25.85 10.15" fill="url(#gradient41)" fill-rule="evenodd" stroke="none"/>
      <path d="M26.8 10.1 L26.8 10.15 26.25 16.8 25.55 17.45 Q24.35 18.1 22.15 18.05 19.85 18.0 18.7 17.35 L18.0 16.75 17.25 10.3 18.15 11.0 Q19.45 11.7 21.55 11.7 L24.85 11.65 24.5 11.3 Q24.2 10.95 24.35 10.85 L25.15 10.9 25.8 11.05 Q26.5 10.8 26.8 10.1" fill="#a58d54" fill-rule="evenodd" stroke="none"/>
      <path d="M22.5 16.6 L22.25 16.4 22.05 16.2 Q21.8 16.7 22.05 16.85 22.3 17.05 22.5 16.6 M23.5 15.25 L23.4 14.8 23.25 14.7 23.25 15.25 23.5 15.25 M23.25 12.5 Q22.95 12.5 23.05 12.95 23.1 13.45 23.4 13.5 L23.65 13.2 23.45 12.5 23.25 12.5 M25.75 11.25 L25.75 11.0 25.8 11.05 25.85 11.0 Q25.85 11.95 25.55 12.1 L24.85 12.2 Q24.4 12.15 24.45 11.9 L23.45 11.7 22.2 11.7 Q23.6 12.05 23.95 12.3 L24.4 12.75 24.7 13.1 24.85 13.5 24.55 14.1 24.25 14.7 24.35 15.05 24.1 15.5 23.9 15.9 23.95 16.3 Q24.05 16.7 23.7 16.7 L23.35 16.7 23.0 16.55 22.7 16.8 22.55 16.9 22.4 17.0 21.8 17.1 21.15 17.4 19.85 17.15 19.65 17.1 19.5 16.95 19.4 16.65 19.0 16.4 18.2 16.3 17.9 16.1 17.85 15.05 18.05 15.4 18.65 15.65 19.0 15.35 Q19.35 15.95 19.9 16.1 L20.45 16.2 20.8 16.55 21.2 16.5 21.3 16.25 21.45 16.05 22.0 16.1 Q22.05 15.5 22.45 15.4 L22.75 15.3 22.95 15.1 22.9 14.3 Q22.6 13.7 22.45 14.1 L21.95 13.65 21.65 12.95 Q21.35 12.45 20.45 12.05 L19.85 11.6 19.7 11.5 21.55 11.7 24.75 11.65 25.0 11.95 25.4 12.1 Q25.75 12.1 25.75 11.25" fill="#8b7347" fill-rule="evenodd" stroke="none"/>
      <path d="M25.3 10.95 L24.3 10.9 24.35 10.85 25.05 10.85 25.75 11.0 25.75 11.25 Q25.75 12.1 25.4 12.1 L25.0 11.95 Q25.25 12.1 25.5 11.8 L25.65 11.3 25.3 10.95" fill="#615031" fill-rule="evenodd" stroke="none"/>
      <path d="M25.05 14.8 L25.05 14.2 24.7 14.2 Q24.45 14.25 24.45 14.6 L24.65 15.0 Q25.0 15.1 25.05 14.8 M25.85 11.0 L26.05 10.95 26.1 11.5 26.05 12.25 25.95 13.25 25.65 13.95 Q25.45 14.25 25.6 14.9 L25.7 15.6 25.4 16.4 25.1 16.5 24.9 16.75 Q24.6 16.75 24.2 17.05 L23.55 17.5 22.7 17.65 21.85 17.6 20.5 17.55 19.9 17.5 19.2 17.15 18.6 17.05 18.0 16.75 17.9 16.1 18.2 16.3 19.0 16.4 19.4 16.65 19.5 16.95 19.65 17.1 19.85 17.15 21.15 17.4 21.8 17.1 22.4 17.0 22.55 16.9 22.7 16.8 23.0 16.55 23.35 16.7 23.7 16.7 Q24.05 16.7 23.95 16.3 L23.9 15.9 24.1 15.5 24.35 15.05 24.25 14.7 24.55 14.1 24.85 13.5 24.7 13.1 24.4 12.75 23.95 12.3 Q23.6 12.05 22.2 11.7 L23.45 11.7 24.45 11.9 Q24.4 12.15 24.85 12.2 L25.55 12.1 Q25.85 11.95 25.85 11.0" fill="#735e39" fill-rule="evenodd" stroke="none"/>
      <path d="M26.8 10.15 L26.45 13.05 Q26.2 13.05 26.25 13.5 L26.45 13.9 26.25 16.8 25.55 17.45 Q24.35 18.1 22.15 18.05 20.0 18.0 18.85 17.45 L18.0 16.75 18.6 17.05 19.2 17.15 19.9 17.5 20.5 17.55 21.85 17.6 22.7 17.65 23.55 17.5 24.2 17.05 Q24.6 16.75 24.9 16.75 L25.1 16.5 25.4 16.4 25.7 15.6 25.6 14.9 Q25.45 14.25 25.65 13.95 L25.95 13.25 26.05 12.25 26.1 11.5 26.05 10.95 26.8 10.1 26.8 10.15" fill="#4d4027" fill-rule="evenodd" stroke="none"/>
      <path d="M18.85 13.65 Q18.25 13.7 18.15 12.9 18.05 12.1 18.55 12.0 19.05 11.9 19.25 12.7 19.3 13.55 18.85 13.65" fill="url(#gradient42)" fill-rule="evenodd" stroke="none"/>
      <path d="M21.15 14.8 Q20.4 15.15 19.9 14.3 19.45 13.4 20.25 12.95 L20.45 12.95 21.1 13.05 21.45 13.55 Q21.55 14.6 21.15 14.8" fill="url(#gradient43)" fill-rule="evenodd" stroke="none"/>
      <path d="M18.95 14.75 L18.9 14.4 Q18.95 14.1 19.1 14.1 L19.45 14.15 Q19.65 14.25 19.65 15.05 19.05 15.05 18.95 14.75" fill="url(#gradient44)" fill-rule="evenodd" stroke="none"/>
      <path d="M17.8 14.35 Q18.1 14.3 18.05 14.85 L17.85 14.9 17.8 14.35" fill="url(#gradient45)" fill-rule="evenodd" stroke="none"/>
      <path d="M23.4 13.5 Q23.1 13.45 23.05 12.95 22.95 12.5 23.25 12.5 L23.45 12.5 23.65 13.2 23.4 13.5" fill="#705c39" fill-rule="evenodd" stroke="none"/>
      <path d="M23.4 13.5 Q23.1 13.45 23.05 12.95 22.95 12.5 23.25 12.5 L23.45 12.5 23.65 13.2 23.4 13.5" fill="url(#gradient46)" fill-rule="evenodd" stroke="none"/>
      <path d="M23.4 14.8 L23.5 15.25 23.25 15.25 23.25 14.7 23.4 14.8" fill="#705c39" fill-rule="evenodd" stroke="none"/>
      <path d="M23.4 14.8 L23.5 15.25 23.25 15.25 23.25 14.7 23.4 14.8" fill="url(#gradient47)" fill-rule="evenodd" stroke="none"/>
      <path d="M22.25 16.4 L22.5 16.6 Q22.3 17.05 22.05 16.85 21.8 16.7 22.05 16.2 L22.25 16.4" fill="#705c39" fill-rule="evenodd" stroke="none"/>
      <path d="M22.25 16.4 L22.5 16.6 Q22.3 17.05 22.05 16.85 21.8 16.7 22.05 16.2 L22.25 16.4" fill="url(#gradient48)" fill-rule="evenodd" stroke="none"/>
      <path d="M24.7 14.2 L25.05 14.2 25.05 14.8 Q25.0 15.1 24.65 15.0 L24.45 14.6 Q24.45 14.25 24.7 14.2" fill="#615031" fill-rule="evenodd" stroke="none"/>
      <path d="M24.7 14.2 L25.05 14.2 25.05 14.8 Q25.0 15.1 24.65 15.0 L24.45 14.6 Q24.45 14.25 24.7 14.2" fill="url(#gradient49)" fill-rule="evenodd" stroke="none"/>
      <path d="M26.25 13.5 Q26.2 13.05 26.45 13.05 L26.45 13.9 26.25 13.5" fill="#4d4027" fill-rule="evenodd" stroke="none"/>
      <path d="M26.25 13.5 Q26.2 13.05 26.45 13.05 L26.45 13.9 26.25 13.5" fill="url(#gradient50)" fill-rule="evenodd" stroke="none"/>
      <path d="M25.0 11.95 L24.75 11.65 24.8 11.65 25.0 11.95" fill="#705c39" fill-rule="evenodd" stroke="none"/>
      <path d="M25.0 11.95 L24.75 11.65 24.8 11.65 25.0 11.95" fill="url(#gradient51)" fill-rule="evenodd" stroke="none"/>
      <path d="M24.75 11.55 L24.35 11.1 24.3 10.9 25.3 10.95 25.65 11.3 25.5 11.8 Q25.25 12.1 25.0 11.95 L24.8 11.65 24.85 11.65 24.75 11.55" fill="#615031" fill-rule="evenodd" stroke="none"/>
      <path d="M24.75 11.55 L24.35 11.1 24.3 10.9 25.3 10.95 25.65 11.3 25.5 11.8 Q25.25 12.1 25.0 11.95 L24.8 11.65 24.85 11.65 24.75 11.55" fill="url(#gradient52)" fill-rule="evenodd" stroke="none"/>
      <path d="M19.85 42.75 Q17.05 42.55 15.05 41.65 L13.65 40.7 Q12.4 39.6 12.05 37.4 11.65 34.4 12.85 31.2 L14.1 28.55 Q17.0 30.2 22.45 30.05 L27.25 29.55 27.85 31.5 28.5 35.15 Q28.65 37.5 27.75 41.9 27.3 42.2 26.1 42.5 L19.85 42.75" fill="url(#gradient53)" fill-rule="evenodd" stroke="none"/>
      <path d="M16.35 38.6 Q14.85 38.2 14.25 36.9 13.65 35.6 14.15 34.1 14.55 32.8 17.75 32.65 L22.65 33.0 Q25.15 33.5 25.85 35.0 26.4 36.1 26.05 37.95 25.85 39.25 23.6 39.35 L21.4 39.2 Q21.2 40.15 19.8 40.6 L18.25 40.7 17.75 40.5 18.55 40.1 Q19.35 39.65 19.2 39.1 L16.35 38.6" fill="url(#gradient54)" fill-rule="evenodd" stroke="none"/>
      <path d="M13.45 37.6 Q12.45 35.8 13.15 33.75 13.85 31.55 18.6 31.55 L22.85 31.95 Q26.2 32.65 27.0 34.95 27.45 36.2 27.1 38.15 26.65 40.4 23.2 40.4 L22.0 40.35 Q21.35 41.25 20.1 41.65 L18.75 41.85 Q17.75 41.85 17.05 41.3 16.65 40.95 16.7 40.4 L17.0 39.85 16.05 39.6 Q14.3 39.15 13.45 37.6 M18.6 32.65 Q14.65 32.65 14.15 34.1 13.65 35.6 14.25 36.9 14.85 38.2 16.35 38.6 L19.2 39.1 Q19.35 39.65 18.55 40.1 L17.75 40.5 18.0 40.7 18.75 40.8 19.8 40.6 Q21.2 40.15 21.4 39.2 L23.2 39.35 Q25.85 39.35 26.05 37.95 26.4 36.1 25.85 35.0 25.15 33.5 22.65 33.0 L18.6 32.65" fill="#8a8569" fill-rule="evenodd" stroke="none"/>
    </g>
    <radialGradient cx="0" cy="0" gradientTransform="matrix(0.0072, 0.0161, 0.0161, -0.0072, 19.05, 31.7)" gradientUnits="userSpaceOnUse" id="gradient0" r="819.2" spreadMethod="pad">
      <stop offset="0.0" stop-color="#e0f08d" stop-opacity="0.6666667"/>
      <stop offset="0.9882352941176471" stop-color="#a29415" stop-opacity="0.84705883"/>
    </radialGradient>
    <radialGradient cx="0" cy="0" gradientTransform="matrix(0.0053, 0.0124, 0.0118, -0.0056, 19.05, 29.3)" gradientUnits="userSpaceOnUse" id="gradient1" r="819.2" spreadMethod="pad">
      <stop offset="0.0" stop-color="#d3c430" stop-opacity="0.6666667"/>
      <stop offset="0.9882352941176471" stop-color="#cdcd2f" stop-opacity="0.84705883"/>
    </radialGradient>
    <radialGradient cx="0" cy="0" gradientTransform="matrix(6.0E-4, 0.0022, 0.0022, -6.0E-4, 22.25, 36.85)" gradientUnits="userSpaceOnUse" id="gradient2" r="819.2" spreadMethod="pad">
      <stop offset="0.0" stop-color="#ffffff"/>
      <stop offset="0.16470588235294117" stop-color="#f4f4ad"/>
      <stop offset="0.8588235294117647" stop-color="#87741c" stop-opacity="0.84705883"/>
      <stop offset="1.0" stop-color="#a79e3f" stop-opacity="0.84705883"/>
    </radialGradient>
    <radialGradient cx="0" cy="0" gradientTransform="matrix(3.0E-4, 0.0013, 0.0013, -3.0E-4, 13.0, 35.55)" gradientUnits="userSpaceOnUse" id="gradient3" r="819.2" spreadMethod="pad">
      <stop offset="0.0" stop-color="#ffffff"/>
      <stop offset="0.16470588235294117" stop-color="#f4f4ad"/>
      <stop offset="0.8588235294117647" stop-color="#87741c" stop-opacity="0.84705883"/>
      <stop offset="1.0" stop-color="#a79e3f" stop-opacity="0.84705883"/>
    </radialGradient>
    <radialGradient cx="0" cy="0" gradientTransform="matrix(3.0E-4, 0.0013, 0.0013, -3.0E-4, 17.0, 35.1)" gradientUnits="userSpaceOnUse" id="gradient4" r="819.2" spreadMethod="pad">
      <stop offset="0.0" stop-color="#ffffff"/>
      <stop offset="0.16470588235294117" stop-color="#f4f4ad"/>
      <stop offset="0.8588235294117647" stop-color="#87741c" stop-opacity="0.84705883"/>
      <stop offset="1.0" stop-color="#a79e3f" stop-opacity="0.84705883"/>
    </radialGradient>
    <radialGradient cx="0" cy="0" gradientTransform="matrix(3.0E-4, 0.0013, 0.0013, -3.0E-4, 23.4, 33.1)" gradientUnits="userSpaceOnUse" id="gradient5" r="819.2" spreadMethod="pad">
      <stop offset="0.0" stop-color="#ffffff"/>
      <stop offset="0.16470588235294117" stop-color="#f4f4ad"/>
      <stop offset="0.8588235294117647" stop-color="#87741c" stop-opacity="0.84705883"/>
      <stop offset="1.0" stop-color="#a79e3f" stop-opacity="0.84705883"/>
    </radialGradient>
    <radialGradient cx="0" cy="0" gradientTransform="matrix(6.0E-4, 0.0022, 0.0022, -6.0E-4, 17.05, 39.5)" gradientUnits="userSpaceOnUse" id="gradient6" r="819.2" spreadMethod="pad">
      <stop offset="0.0" stop-color="#ffffff"/>
      <stop offset="0.16470588235294117" stop-color="#f4f4ad"/>
      <stop offset="0.8588235294117647" stop-color="#87741c" stop-opacity="0.84705883"/>
      <stop offset="1.0" stop-color="#a79e3f" stop-opacity="0.84705883"/>
    </radialGradient>
    <radialGradient cx="0" cy="0" gradientTransform="matrix(4.0E-4, 0.0013, 0.0013, -4.0E-4, 28.3, 37.25)" gradientUnits="userSpaceOnUse" id="gradient7" r="819.2" spreadMethod="pad">
      <stop offset="0.0" stop-color="#ffffff"/>
      <stop offset="0.16470588235294117" stop-color="#f4f4ad"/>
      <stop offset="0.8588235294117647" stop-color="#87741c" stop-opacity="0.84705883"/>
      <stop offset="1.0" stop-color="#a79e3f" stop-opacity="0.84705883"/>
    </radialGradient>
    <radialGradient cx="0" cy="0" gradientTransform="matrix(-1.0E-4, 0.0018, 0.0031, 2.0E-4, 14.25, 30.0)" gradientUnits="userSpaceOnUse" id="gradient8" r="819.2" spreadMethod="pad">
      <stop offset="0.0" stop-color="#ffffff"/>
      <stop offset="0.16470588235294117" stop-color="#f4f4ad"/>
      <stop offset="0.8588235294117647" stop-color="#87741c" stop-opacity="0.84705883"/>
      <stop offset="1.0" stop-color="#a79e3f" stop-opacity="0.84705883"/>
    </radialGradient>
    <radialGradient cx="0" cy="0" gradientTransform="matrix(-1.0E-4, 0.0014, 0.0024, 2.0E-4, 23.55, 32.15)" gradientUnits="userSpaceOnUse" id="gradient9" r="819.2" spreadMethod="pad">
      <stop offset="0.0" stop-color="#ffffff"/>
      <stop offset="0.16470588235294117" stop-color="#f4f4ad"/>
      <stop offset="0.8588235294117647" stop-color="#87741c" stop-opacity="0.84705883"/>
      <stop offset="1.0" stop-color="#a79e3f" stop-opacity="0.84705883"/>
    </radialGradient>
    <radialGradient cx="0" cy="0" gradientTransform="matrix(-2.0E-4, 0.0022, 0.0036, 3.0E-4, 19.85, 32.85)" gradientUnits="userSpaceOnUse" id="gradient10" r="819.2" spreadMethod="pad">
      <stop offset="0.0" stop-color="#ffffff"/>
      <stop offset="0.16470588235294117" stop-color="#f4f4ad"/>
      <stop offset="0.8588235294117647" stop-color="#87741c" stop-opacity="0.84705883"/>
      <stop offset="1.0" stop-color="#a79e3f" stop-opacity="0.84705883"/>
    </radialGradient>
    <radialGradient cx="0" cy="0" gradientTransform="matrix(-1.0E-4, 0.0015, 0.0033, 2.0E-4, 27.9, 30.0)" gradientUnits="userSpaceOnUse" id="gradient11" r="819.2" spreadMethod="pad">
      <stop offset="0.0" stop-color="#ffffff"/>
      <stop offset="0.16470588235294117" stop-color="#f4f4ad"/>
      <stop offset="0.8588235294117647" stop-color="#87741c" stop-opacity="0.84705883"/>
      <stop offset="1.0" stop-color="#a79e3f" stop-opacity="0.84705883"/>
    </radialGradient>
    <radialGradient cx="0" cy="0" gradientTransform="matrix(-5.0E-4, 0.0162, 0.0317, 0.001, 22.2, 19.3)" gradientUnits="userSpaceOnUse" id="gradient12" r="819.2" spreadMethod="pad">
      <stop offset="0.0" stop-color="#ffffff" stop-opacity="0.25882354"/>
      <stop offset="0.16470588235294117" stop-color="#ebebeb" stop-opacity="0.36862746"/>
      <stop offset="0.8588235294117647" stop-color="#e0e0e0" stop-opacity="0.45882353"/>
      <stop offset="1.0" stop-color="#ededed" stop-opacity="0.22745098"/>
    </radialGradient>
    <radialGradient cx="0" cy="0" gradientTransform="matrix(0.0024, 0.0173, 0.0158, -0.0022, 21.25, 31.15)" gradientUnits="userSpaceOnUse" id="gradient13" r="819.2" spreadMethod="pad">
      <stop offset="0.0" stop-color="#ffffff" stop-opacity="0.47843137"/>
      <stop offset="0.7098039215686275" stop-color="#ffffff" stop-opacity="0.08235294"/>
      <stop offset="0.8666666666666667" stop-color="#ffffff" stop-opacity="0.2"/>
      <stop offset="1.0" stop-color="#ffffff" stop-opacity="0.02745098"/>
    </radialGradient>
    <radialGradient cx="0" cy="0" gradientTransform="matrix(0.0183, -0.0158, -0.0158, -0.0183, 14.15, 40.3)" gradientUnits="userSpaceOnUse" id="gradient14" r="819.2" spreadMethod="pad">
      <stop offset="0.0" stop-color="#ffffff" stop-opacity="0.9490196"/>
      <stop offset="1.0" stop-color="#8a9b9e"/>
    </radialGradient>
    <radialGradient cx="0" cy="0" gradientTransform="matrix(0.0025, 0.0122, 0.0139, -0.0023, 21.15, 26.7)" gradientUnits="userSpaceOnUse" id="gradient15" r="819.2" spreadMethod="pad">
      <stop offset="0.0" stop-color="#ffffff" stop-opacity="0.5882353"/>
      <stop offset="1.0" stop-color="#ffffff" stop-opacity="0.0"/>
    </radialGradient>
    <radialGradient cx="0" cy="0" gradientTransform="matrix(0.0016, 0.008, 0.0089, -0.0018, 29.7, 26.5)" gradientUnits="userSpaceOnUse" id="gradient16" r="819.2" spreadMethod="pad">
      <stop offset="0.0" stop-color="#ffffff" stop-opacity="0.61960787"/>
      <stop offset="1.0" stop-color="#ffffff" stop-opacity="0.02745098"/>
    </radialGradient>
    <linearGradient gradientTransform="matrix(0.0048, 0.0019, 0.0019, -0.0048, 21.8, 25.5)" gradientUnits="userSpaceOnUse" id="gradient17" spreadMethod="pad" x1="-819.2" x2="819.2">
      <stop offset="0.0" stop-color="#ffffff" stop-opacity="0.9490196"/>
      <stop offset="1.0" stop-color="#abd9db"/>
    </linearGradient>
    <linearGradient gradientTransform="matrix(0.0044, 0.001, 0.001, -0.0044, 22.05, 25.55)" gradientUnits="userSpaceOnUse" id="gradient18" spreadMethod="pad" x1="-819.2" x2="819.2">
      <stop offset="0.0" stop-color="#000000" stop-opacity="0.24705882"/>
      <stop offset="1.0" stop-color="#000000" stop-opacity="0.02745098"/>
    </linearGradient>
    <linearGradient gradientTransform="matrix(-9.0E-4, -0.0032, -0.0032, 9.0E-4, 22.15, 17.2)" gradientUnits="userSpaceOnUse" id="gradient19" spreadMethod="pad" x1="-819.2" x2="819.2">
      <stop offset="0.0" stop-color="#ffffff" stop-opacity="0.21960784"/>
      <stop offset="1.0" stop-color="#ffffff" stop-opacity="0.02745098"/>
    </linearGradient>
    <linearGradient gradientTransform="matrix(0.0053, 2.0E-4, 3.0E-4, -0.0104, 22.0, 22.7)" gradientUnits="userSpaceOnUse" id="gradient20" spreadMethod="pad" x1="-819.2" x2="819.2">
      <stop offset="0.0" stop-color="#ffffff" stop-opacity="0.21960784"/>
      <stop offset="1.0" stop-color="#ffffff" stop-opacity="0.02745098"/>
    </linearGradient>
    <linearGradient gradientTransform="matrix(0.0045, 1.0E-4, 2.0E-4, -0.0089, 22.0, 22.55)" gradientUnits="userSpaceOnUse" id="gradient21" spreadMethod="pad" x1="-819.2" x2="819.2">
      <stop offset="0.0" stop-color="#ffffff" stop-opacity="0.21960784"/>
      <stop offset="1.0" stop-color="#ffffff" stop-opacity="0.02745098"/>
    </linearGradient>
    <linearGradient gradientTransform="matrix(0.0053, 2.0E-4, 3.0E-4, -0.0104, 21.85, 27.0)" gradientUnits="userSpaceOnUse" id="gradient22" spreadMethod="pad" x1="-819.2" x2="819.2">
      <stop offset="0.0" stop-color="#ffffff" stop-opacity="0.9490196"/>
      <stop offset="1.0" stop-color="#abd9db"/>
    </linearGradient>
    <linearGradient gradientTransform="matrix(0.0053, 2.0E-4, 3.0E-4, -0.0104, 21.95, 22.25)" gradientUnits="userSpaceOnUse" id="gradient23" spreadMethod="pad" x1="-819.2" x2="819.2">
      <stop offset="0.0" stop-color="#ffffff" stop-opacity="0.9490196"/>
      <stop offset="1.0" stop-color="#809c89"/>
    </linearGradient>
    <linearGradient gradientTransform="matrix(0.0048, 0.0, 0.0, -0.0048, 21.8, 22.2)" gradientUnits="userSpaceOnUse" id="gradient24" spreadMethod="pad" x1="-819.2" x2="819.2">
      <stop offset="0.0" stop-color="#ffffff" stop-opacity="0.9490196"/>
      <stop offset="1.0" stop-color="#9aafb8"/>
    </linearGradient>
    <linearGradient gradientTransform="matrix(-1.0E-4, 0.0022, 0.0043, 1.0E-4, 19.3, 22.5)" gradientUnits="userSpaceOnUse" id="gradient25" spreadMethod="pad" x1="-819.2" x2="819.2">
      <stop offset="0.0" stop-color="#ffffff" stop-opacity="0.41960785"/>
      <stop offset="1.0" stop-color="#ffffff" stop-opacity="0.02745098"/>
    </linearGradient>
    <linearGradient gradientTransform="matrix(0.0053, 2.0E-4, 3.0E-4, -0.0104, 21.85, 26.2)" gradientUnits="userSpaceOnUse" id="gradient26" spreadMethod="pad" x1="-819.2" x2="819.2">
      <stop offset="0.0" stop-color="#ffffff" stop-opacity="0.9490196"/>
      <stop offset="1.0" stop-color="#abd9db"/>
    </linearGradient>
    <linearGradient gradientTransform="matrix(-1.0E-4, 0.0022, 0.0043, 1.0E-4, 18.85, 22.5)" gradientUnits="userSpaceOnUse" id="gradient27" spreadMethod="pad" x1="-819.2" x2="819.2">
      <stop offset="0.0" stop-color="#ffffff" stop-opacity="0.41960785"/>
      <stop offset="1.0" stop-color="#ffffff" stop-opacity="0.02745098"/>
    </linearGradient>
    <linearGradient gradientTransform="matrix(1.0E-4, -0.0022, 0.0043, 1.0E-4, 24.7, 22.6)" gradientUnits="userSpaceOnUse" id="gradient28" spreadMethod="pad" x1="-819.2" x2="819.2">
      <stop offset="0.0" stop-color="#ffffff" stop-opacity="0.13725491"/>
      <stop offset="1.0" stop-color="#ffffff" stop-opacity="0.02745098"/>
    </linearGradient>
    <linearGradient gradientTransform="matrix(0.0056, 2.0E-4, 3.0E-4, -0.0111, 22.2, 19.0)" gradientUnits="userSpaceOnUse" id="gradient29" spreadMethod="pad" x1="-819.2" x2="819.2">
      <stop offset="0.0" stop-color="#ffffff"/>
      <stop offset="1.0" stop-color="#abd9db"/>
    </linearGradient>
    <linearGradient gradientTransform="matrix(1.0E-4, -0.0022, 0.0044, 1.0E-4, 24.9, 22.7)" gradientUnits="userSpaceOnUse" id="gradient30" spreadMethod="pad" x1="-819.2" x2="819.2">
      <stop offset="0.0" stop-color="#ffffff" stop-opacity="0.13725491"/>
      <stop offset="1.0" stop-color="#ffffff" stop-opacity="0.02745098"/>
    </linearGradient>
    <linearGradient gradientTransform="matrix(0.0056, 2.0E-4, 3.0E-4, -0.0111, 22.0, 26.15)" gradientUnits="userSpaceOnUse" id="gradient31" spreadMethod="pad" x1="-819.2" x2="819.2">
      <stop offset="0.0" stop-color="#ffffff"/>
      <stop offset="1.0" stop-color="#abd9db"/>
    </linearGradient>
    <linearGradient gradientTransform="matrix(1.0E-4, -0.0022, 0.0043, 1.0E-4, 25.35, 22.6)" gradientUnits="userSpaceOnUse" id="gradient32" spreadMethod="pad" x1="-819.2" x2="819.2">
      <stop offset="0.0" stop-color="#ffffff" stop-opacity="0.13725491"/>
      <stop offset="1.0" stop-color="#ffffff" stop-opacity="0.02745098"/>
    </linearGradient>
    <linearGradient gradientTransform="matrix(0.0052, 1.0E-4, 3.0E-4, -0.0097, 22.2, 16.7)" gradientUnits="userSpaceOnUse" id="gradient33" spreadMethod="pad" x1="-819.2" x2="819.2">
      <stop offset="0.0" stop-color="#000000" stop-opacity="0.08627451"/>
      <stop offset="1.0" stop-color="#bcd9db" stop-opacity="0.41960785"/>
    </linearGradient>
    <linearGradient gradientTransform="matrix(-9.0E-4, -0.0032, -0.0032, 9.0E-4, 22.15, 17.2)" gradientUnits="userSpaceOnUse" id="gradient34" spreadMethod="pad" x1="-819.2" x2="819.2">
      <stop offset="0.0" stop-color="#ffffff" stop-opacity="0.9490196"/>
      <stop offset="1.0" stop-color="#9aafb8"/>
    </linearGradient>
    <linearGradient gradientTransform="matrix(0.0045, 0.0018, 0.0018, -0.0045, 22.2, 16.7)" gradientUnits="userSpaceOnUse" id="gradient35" spreadMethod="pad" x1="-819.2" x2="819.2">
      <stop offset="0.0" stop-color="#ffffff" stop-opacity="0.9490196"/>
      <stop offset="1.0" stop-color="#abd9db"/>
    </linearGradient>
    <linearGradient gradientTransform="matrix(0.0052, 1.0E-4, 3.0E-4, -0.0097, 22.2, 16.7)" gradientUnits="userSpaceOnUse" id="gradient36" spreadMethod="pad" x1="-819.2" x2="819.2">
      <stop offset="0.0" stop-color="#ffffff" stop-opacity="0.9490196"/>
      <stop offset="1.0" stop-color="#9aafb8"/>
    </linearGradient>
    <linearGradient gradientTransform="matrix(-0.0012, 0.0, 0.0, 0.0013, 20.4, 10.0)" gradientUnits="userSpaceOnUse" id="gradient37" spreadMethod="pad" x1="-819.2" x2="819.2">
      <stop offset="0.0" stop-color="#c1a064"/>
      <stop offset="1.0" stop-color="#706341"/>
    </linearGradient>
    <linearGradient gradientTransform="matrix(-8.0E-4, 0.0, 0.0, 9.0E-4, 21.9, 10.55)" gradientUnits="userSpaceOnUse" id="gradient38" spreadMethod="pad" x1="-819.2" x2="819.2">
      <stop offset="0.0" stop-color="#c1a064"/>
      <stop offset="1.0" stop-color="#706341"/>
    </linearGradient>
    <linearGradient gradientTransform="matrix(-3.0E-4, 0.0, 0.0, 3.0E-4, 23.0, 9.7)" gradientUnits="userSpaceOnUse" id="gradient39" spreadMethod="pad" x1="-819.2" x2="819.2">
      <stop offset="0.0" stop-color="#c1a064"/>
      <stop offset="1.0" stop-color="#706341"/>
    </linearGradient>
    <linearGradient gradientTransform="matrix(-0.0018, 0.0, 0.0, 0.0019, 26.35, 9.6)" gradientUnits="userSpaceOnUse" id="gradient40" spreadMethod="pad" x1="-819.2" x2="819.2">
      <stop offset="0.0" stop-color="#c1a064"/>
      <stop offset="1.0" stop-color="#706341"/>
    </linearGradient>
    <linearGradient gradientTransform="matrix(-4.0E-4, 0.0, 0.0, 4.0E-4, 26.2, 10.1)" gradientUnits="userSpaceOnUse" id="gradient41" spreadMethod="pad" x1="-819.2" x2="819.2">
      <stop offset="0.0" stop-color="#c1a064"/>
      <stop offset="1.0" stop-color="#706341"/>
    </linearGradient>
    <linearGradient gradientTransform="matrix(-1.0E-4, -0.001, -0.0011, 1.0E-4, 18.7, 12.85)" gradientUnits="userSpaceOnUse" id="gradient42" spreadMethod="pad" x1="-819.2" x2="819.2">
      <stop offset="0.0" stop-color="#c1a064"/>
      <stop offset="1.0" stop-color="#706341"/>
    </linearGradient>
    <linearGradient gradientTransform="matrix(-2.0E-4, -0.0012, -0.0013, 2.0E-4, 20.65, 13.95)" gradientUnits="userSpaceOnUse" id="gradient43" spreadMethod="pad" x1="-819.2" x2="819.2">
      <stop offset="0.0" stop-color="#c1a064"/>
      <stop offset="1.0" stop-color="#706341"/>
    </linearGradient>
    <linearGradient gradientTransform="matrix(-1.0E-4, -6.0E-4, -6.0E-4, 1.0E-4, 19.25, 14.6)" gradientUnits="userSpaceOnUse" id="gradient44" spreadMethod="pad" x1="-819.2" x2="819.2">
      <stop offset="0.0" stop-color="#c1a064"/>
      <stop offset="1.0" stop-color="#706341"/>
    </linearGradient>
    <linearGradient gradientTransform="matrix(0.0, -3.0E-4, -3.0E-4, 0.0, 17.9, 14.65)" gradientUnits="userSpaceOnUse" id="gradient45" spreadMethod="pad" x1="-819.2" x2="819.2">
      <stop offset="0.0" stop-color="#c1a064"/>
      <stop offset="1.0" stop-color="#706341"/>
    </linearGradient>
    <linearGradient gradientTransform="matrix(-1.0E-4, -6.0E-4, -7.0E-4, 1.0E-4, 23.4, 13.05)" gradientUnits="userSpaceOnUse" id="gradient46" spreadMethod="pad" x1="-819.2" x2="819.2">
      <stop offset="0.0" stop-color="#c1a064"/>
      <stop offset="1.0" stop-color="#706341"/>
    </linearGradient>
    <linearGradient gradientTransform="matrix(0.0, -4.0E-4, -4.0E-4, 0.0, 23.35, 15.0)" gradientUnits="userSpaceOnUse" id="gradient47" spreadMethod="pad" x1="-819.2" x2="819.2">
      <stop offset="0.0" stop-color="#c1a064"/>
      <stop offset="1.0" stop-color="#706341"/>
    </linearGradient>
    <linearGradient gradientTransform="matrix(0.0, -4.0E-4, -4.0E-4, 1.0E-4, 22.2, 16.55)" gradientUnits="userSpaceOnUse" id="gradient48" spreadMethod="pad" x1="-819.2" x2="819.2">
      <stop offset="0.0" stop-color="#c1a064"/>
      <stop offset="1.0" stop-color="#706341"/>
    </linearGradient>
    <linearGradient gradientTransform="matrix(-1.0E-4, -5.0E-4, -5.0E-4, 1.0E-4, 24.75, 14.65)" gradientUnits="userSpaceOnUse" id="gradient49" spreadMethod="pad" x1="-819.2" x2="819.2">
      <stop offset="0.0" stop-color="#c1a064"/>
      <stop offset="1.0" stop-color="#706341"/>
    </linearGradient>
    <linearGradient gradientTransform="matrix(-1.0E-4, -5.0E-4, -5.0E-4, 1.0E-4, 26.4, 13.5)" gradientUnits="userSpaceOnUse" id="gradient50" spreadMethod="pad" x1="-819.2" x2="819.2">
      <stop offset="0.0" stop-color="#c1a064"/>
      <stop offset="1.0" stop-color="#706341"/>
    </linearGradient>
    <linearGradient gradientTransform="matrix(-1.0E-4, -7.0E-4, -8.0E-4, 1.0E-4, 24.85, 11.45)" gradientUnits="userSpaceOnUse" id="gradient51" spreadMethod="pad" x1="-819.2" x2="819.2">
      <stop offset="0.0" stop-color="#c1a064"/>
      <stop offset="1.0" stop-color="#706341"/>
    </linearGradient>
    <linearGradient gradientTransform="matrix(-1.0E-4, -7.0E-4, -8.0E-4, 1.0E-4, 25.0, 11.45)" gradientUnits="userSpaceOnUse" id="gradient52" spreadMethod="pad" x1="-819.2" x2="819.2">
      <stop offset="0.0" stop-color="#c1a064"/>
      <stop offset="1.0" stop-color="#706341"/>
    </linearGradient>
    <radialGradient cx="0" cy="0" gradientTransform="matrix(0.0052, 0.0193, 0.0196, -0.0051, 18.05, 30.95)" gradientUnits="userSpaceOnUse" id="gradient53" r="819.2" spreadMethod="pad">
      <stop offset="0.0" stop-color="#fbf5e2"/>
      <stop offset="0.07058823529411765" stop-color="#f6f0db"/>
      <stop offset="0.43137254901960786" stop-color="#e3dcc1"/>
      <stop offset="0.7490196078431373" stop-color="#d7d0b1"/>
      <stop offset="1.0" stop-color="#d3ccac"/>
    </radialGradient>
    <radialGradient cx="0" cy="0" gradientTransform="matrix(0.0043, 0.0111, 0.0111, -0.0043, 18.1, 32.6)" gradientUnits="userSpaceOnUse" id="gradient54" r="819.2" spreadMethod="pad">
      <stop offset="0.0" stop-color="#fbf5e2"/>
      <stop offset="0.07058823529411765" stop-color="#f6f0db"/>
      <stop offset="0.43137254901960786" stop-color="#e3dcc1"/>
      <stop offset="0.7490196078431373" stop-color="#d7d0b1"/>
      <stop offset="1.0" stop-color="#d3ccac"/>
    </radialGradient>
  </defs>
</svg>
