<?xml version="1.0" encoding="UTF-8" standalone="no"?>
<svg xmlns:xlink="http://www.w3.org/1999/xlink" height="46.1px" width="43.2px" xmlns="http://www.w3.org/2000/svg">
  <g transform="matrix(1.0, 0.0, 0.0, 1.0, 0.0, 0.0)">
    <use height="39.55" transform="matrix(-0.0302, 0.9995, -0.9995, -0.0302, 19.3406, 7.2414)" width="28.65" xlink:href="#shape0"/>
    <use height="17.75" transform="matrix(1.0359, -0.3236, 0.3236, 1.0359, -21.3491, 18.0692)" width="25.2" xlink:href="#shape1"/>
    <use height="39.85" transform="matrix(-0.0302, 0.9995, -0.9995, -0.0302, 19.5466, 7.0475)" width="28.65" xlink:href="#shape2"/>
  </g>
  <defs>
    <g id="shape0" transform="matrix(1.0, 0.0, 0.0, 1.0, 14.8, 12.75)">
      <path d="M7.75 -9.55 Q7.65 -8.6 6.25 -7.85 L5.8 -0.8 Q10.95 1.6 12.95 7.05 14.95 12.55 12.6 17.95 10.25 23.5 4.7 25.7 -0.8 27.95 -6.2 25.65 -11.6 23.3 -13.8 17.75 -15.95 12.15 -13.55 6.65 -11.05 0.8 -5.0 -1.4 L-4.55 -8.45 Q-5.8 -9.45 -5.75 -10.3 -5.75 -10.95 -5.1 -11.45 -1.4 -13.3 2.05 -12.55 L6.5 -11.5 Q7.85 -10.6 7.75 -9.55" fill="url(#gradient0)" fill-rule="evenodd" stroke="none"/>
      <path d="M-12.65 8.85 L-10.65 5.95 Q-8.95 3.3 -7.8 2.65 L-5.15 2.75 Q-3.65 3.3 -3.05 2.75 -2.2 2.15 -2.95 0.9 L-3.85 -0.8 Q-3.8 -3.45 -2.5 -5.5 -2.1 -6.35 -1.7 -4.8 L-1.6 -4.85 1.1 -6.3 Q2.1 -6.85 0.75 -8.0 L2.35 -8.0 2.85 -7.95 1.8 -6.4 Q0.9 -5.4 1.1 -4.25 L1.3 -3.7 0.6 -3.15 Q-0.4 -1.95 1.05 -0.5 1.25 -0.35 2.6 0.45 L3.55 1.3 3.5 0.35 Q5.8 0.95 6.25 1.3 9.1 3.25 10.65 6.55 12.25 9.95 12.55 10.15 14.05 11.3 11.1 12.3 7.75 13.65 0.65 13.2 -6.2 12.75 -10.15 11.0 -13.45 9.55 -12.65 8.85 M3.5 0.35 Q1.8 -0.05 2.1 -0.4 2.45 -0.75 2.0 -1.8 L1.3 -3.7 1.9 -4.05 3.05 -4.6 2.85 -7.9 Q4.25 -7.6 4.75 -6.95 5.5 -5.85 3.05 -4.6 L3.2 -2.7 3.5 0.35" fill="url(#gradient1)" fill-rule="evenodd" stroke="none"/>
      <path d="M6.25 -10.15 Q6.2 -9.3 4.55 -8.8 L0.75 -8.4 Q-1.5 -8.6 -3.0 -9.25 -4.6 -9.9 -4.5 -10.8 -4.45 -11.65 -2.85 -12.2 L1.0 -12.55 Q3.25 -12.4 4.75 -11.7 6.3 -11.05 6.25 -10.15" fill="url(#gradient2)" fill-rule="evenodd" stroke="none"/>
    </g>
    <linearGradient gradientTransform="matrix(0.0174, 6.0E-4, 6.0E-4, -0.0174, -0.15, 3.35)" gradientUnits="userSpaceOnUse" id="gradient0" spreadMethod="pad" x1="-819.2" x2="819.2">
      <stop offset="0.0" stop-color="#d9eeef"/>
      <stop offset="1.0" stop-color="#abd9db"/>
    </linearGradient>
    <radialGradient cx="0" cy="0" gradientTransform="matrix(-0.0013, 0.0206, 0.0403, 0.0026, 0.95, -7.2)" gradientUnits="userSpaceOnUse" id="gradient1" r="819.2" spreadMethod="pad">
      <stop offset="0.0" stop-color="#ffffff" stop-opacity="0.25882354"/>
      <stop offset="0.16470588235294117" stop-color="#ebebeb" stop-opacity="0.36862746"/>
      <stop offset="0.8588235294117647" stop-color="#e0e0e0" stop-opacity="0.45882353"/>
      <stop offset="1.0" stop-color="#ededed" stop-opacity="0.22745098"/>
    </radialGradient>
    <linearGradient gradientTransform="matrix(0.0065, 4.0E-4, 7.0E-4, -0.0123, 0.85, -10.5)" gradientUnits="userSpaceOnUse" id="gradient2" spreadMethod="pad" x1="-819.2" x2="819.2">
      <stop offset="0.0" stop-color="#000000" stop-opacity="0.08627451"/>
      <stop offset="1.0" stop-color="#bcd9db" stop-opacity="0.41960785"/>
    </linearGradient>
    <g id="shape1" transform="matrix(1.0, 0.0, 0.0, 1.0, 13.05, -8.25)">
      <path d="M-12.85 14.5 L-12.8 12.35 Q-11.05 13.4 -7.8 13.95 L-0.6 14.4 Q3.65 14.25 7.05 13.4 10.3 12.6 11.65 11.3 L12.15 13.75 Q12.45 18.7 9.05 22.25 5.65 25.85 0.4 26.0 -4.8 26.2 -8.65 22.85 -12.5 19.45 -12.85 14.5" fill="url(#gradient3)" fill-rule="evenodd" stroke="none"/>
      <path d="M-13.05 11.65 Q-13.15 10.4 -9.55 9.4 -6.05 8.4 -0.95 8.3 L7.85 8.9 Q11.5 9.65 11.6 10.95 11.7 12.15 8.2 13.2 4.55 14.15 -0.5 14.35 L-9.25 13.7 Q-13.0 12.9 -13.05 11.65" fill="url(#gradient4)" fill-rule="evenodd" stroke="none"/>
      <path d="M-13.0 11.7 Q-12.9 12.85 -9.25 13.7 L-0.5 14.35 Q4.55 14.15 8.2 13.2 11.55 12.2 11.6 11.0 11.65 12.3 8.9 13.35 5.55 14.55 -0.35 14.75 -6.25 14.9 -9.8 13.9 -12.9 13.1 -13.0 11.7" fill="#fcf3a8" fill-rule="evenodd" stroke="none"/>
      <path d="M2.7 16.45 Q2.75 17.1 2.25 17.6 1.8 18.05 1.05 18.1 0.4 18.1 -0.15 17.7 -0.7 17.2 -0.75 16.6 -0.85 15.9 -0.35 15.45 0.15 14.95 0.85 14.95 1.55 14.9 2.15 15.35 2.7 15.8 2.7 16.45" fill="url(#gradient5)" fill-rule="evenodd" stroke="none"/>
      <path d="M-3.05 19.7 Q-3.0 20.35 -3.5 20.85 -4.0 21.35 -4.7 21.35 -5.4 21.35 -5.95 20.9 L-6.55 19.85 Q-6.55 19.2 -6.05 18.75 -5.6 18.25 -4.95 18.2 -4.25 18.15 -3.65 18.6 -3.1 19.0 -3.05 19.7" fill="url(#gradient6)" fill-rule="evenodd" stroke="none"/>
      <path d="M9.0 16.4 Q9.05 17.3 8.05 17.35 7.0 17.35 6.9 16.4 6.85 15.5 7.9 15.45 9.0 15.4 9.0 16.4" fill="url(#gradient7)" fill-rule="evenodd" stroke="none"/>
    </g>
    <radialGradient cx="0" cy="0" gradientTransform="matrix(0.0101, 0.0174, 0.0179, -0.0091, -3.55, 10.5)" gradientUnits="userSpaceOnUse" id="gradient3" r="819.2" spreadMethod="pad">
      <stop offset="0.0" stop-color="#e0f08d" stop-opacity="0.6666667"/>
      <stop offset="0.9882352941176471" stop-color="#a29415" stop-opacity="0.84705883"/>
    </radialGradient>
    <radialGradient cx="0" cy="0" gradientTransform="matrix(0.0075, 0.0135, 0.0132, -0.007, -3.8, 7.8)" gradientUnits="userSpaceOnUse" id="gradient4" r="819.2" spreadMethod="pad">
      <stop offset="0.0" stop-color="#d3c430" stop-opacity="0.6666667"/>
      <stop offset="0.9882352941176471" stop-color="#cdcd2f" stop-opacity="0.84705883"/>
    </radialGradient>
    <radialGradient cx="0" cy="0" gradientTransform="matrix(9.0E-4, 0.0024, 0.0025, -8.0E-4, 0.7, 16.05)" gradientUnits="userSpaceOnUse" id="gradient5" r="819.2" spreadMethod="pad">
      <stop offset="0.0" stop-color="#ffffff"/>
      <stop offset="0.16470588235294117" stop-color="#f4f4ad"/>
      <stop offset="0.8588235294117647" stop-color="#87741c" stop-opacity="0.84705883"/>
      <stop offset="1.0" stop-color="#a79e3f" stop-opacity="0.84705883"/>
    </radialGradient>
    <radialGradient cx="0" cy="0" gradientTransform="matrix(9.0E-4, 0.0024, 0.0024, -8.0E-4, -5.05, 19.25)" gradientUnits="userSpaceOnUse" id="gradient6" r="819.2" spreadMethod="pad">
      <stop offset="0.0" stop-color="#ffffff"/>
      <stop offset="0.16470588235294117" stop-color="#f4f4ad"/>
      <stop offset="0.8588235294117647" stop-color="#87741c" stop-opacity="0.84705883"/>
      <stop offset="1.0" stop-color="#a79e3f" stop-opacity="0.84705883"/>
    </radialGradient>
    <radialGradient cx="0" cy="0" gradientTransform="matrix(5.0E-4, 0.0014, 0.0015, -5.0E-4, 7.85, 16.05)" gradientUnits="userSpaceOnUse" id="gradient7" r="819.2" spreadMethod="pad">
      <stop offset="0.0" stop-color="#ffffff"/>
      <stop offset="0.16470588235294117" stop-color="#f4f4ad"/>
      <stop offset="0.8588235294117647" stop-color="#87741c" stop-opacity="0.84705883"/>
      <stop offset="1.0" stop-color="#a79e3f" stop-opacity="0.84705883"/>
    </radialGradient>
    <g id="shape2" transform="matrix(1.0, 0.0, 0.0, 1.0, 15.0, 12.95)">
      <path d="M-2.75 4.75 L-3.45 4.4 -3.25 4.25 -2.75 4.75" fill="url(#gradient8)" fill-rule="evenodd" stroke="none"/>
      <path d="M-2.75 4.75 L-3.45 4.4 -3.25 4.25 -2.75 4.75" fill="url(#gradient9)" fill-rule="evenodd" stroke="none"/>
      <path d="M3.5 4.85 L4.1 4.35 4.55 4.65 4.2 4.85 3.5 4.85" fill="url(#gradient10)" fill-rule="evenodd" stroke="none"/>
      <path d="M3.5 4.85 L4.1 4.35 4.55 4.65 4.2 4.85 3.5 4.85" fill="url(#gradient11)" fill-rule="evenodd" stroke="none"/>
      <path d="M-1.6 5.1 L-1.7 5.0 -1.6 4.8 -0.9 4.9 Q0.05 5.2 -0.5 5.25 L-1.6 5.1" fill="#ffffff" fill-rule="evenodd" stroke="none"/>
      <path d="M-13.95 17.8 Q-16.15 12.25 -13.75 6.7 -11.4 1.2 -5.85 -1.05 -0.35 -3.3 5.05 -1.0 10.45 1.4 12.65 6.95 14.8 12.5 12.4 18.05 10.0 23.55 4.45 25.75 -1.05 28.05 -6.4 25.7 -11.85 23.35 -13.95 17.8" fill="url(#gradient12)" fill-rule="evenodd" stroke="none"/>
      <path d="M-6.3 25.25 Q-1.0 27.55 4.5 25.35 9.85 23.2 12.2 17.75 14.6 12.25 12.45 6.85 10.35 1.4 5.05 -0.9 -0.25 -3.2 -5.7 -1.0 -11.15 1.25 -13.45 6.65 -15.8 12.1 -13.7 17.5 -11.6 22.95 -6.3 25.25 M4.45 25.75 Q-1.05 28.05 -6.4 25.7 -11.85 23.35 -13.95 17.8 -16.15 12.25 -13.75 6.7 -11.4 1.2 -5.85 -1.05 -0.35 -3.3 5.05 -1.0 10.45 1.4 12.65 6.95 14.8 12.5 12.4 18.05 10.0 23.55 4.45 25.75" fill="url(#gradient13)" fill-rule="evenodd" stroke="none"/>
      <path d="M-13.35 11.65 Q-13.55 8.0 -11.6 4.9 -10.65 3.35 -9.0 2.25 -7.7 1.3 -7.15 1.3 -6.9 1.25 -6.9 1.85 -6.3 2.55 -4.2 3.4 -2.0 4.25 0.85 4.05 L3.2 3.7 Q6.5 5.0 7.2 8.9 L7.25 12.6 Q7.4 15.35 5.35 17.35 1.25 21.3 -9.95 17.15 -13.2 15.95 -13.35 11.65" fill="url(#gradient14)" fill-rule="evenodd" stroke="none"/>
      <path d="M5.85 2.7 Q6.5 2.1 5.55 0.15 L8.1 1.9 Q10.75 4.2 11.75 6.85 12.8 9.5 12.6 12.55 L12.15 15.05 9.85 15.4 10.35 14.2 Q10.7 12.35 10.15 9.5 9.6 6.65 7.7 4.4 L5.85 2.7" fill="url(#gradient15)" fill-rule="evenodd" stroke="none"/>
      <path d="M-5.7 0.4 Q-5.65 -0.45 -3.9 -0.95 L0.15 -1.35 4.1 -0.55 Q5.65 0.15 5.65 0.95 5.55 1.75 4.0 2.25 L2.3 2.65 3.9 2.25 Q5.3 1.75 5.4 1.0 5.45 0.25 3.95 -0.45 2.35 -1.1 0.1 -1.2 L-3.8 -0.85 Q-5.4 -0.35 -5.5 0.5 -5.55 1.15 -4.6 1.7 -5.75 1.05 -5.7 0.4" fill="url(#gradient16)" fill-rule="evenodd" stroke="none"/>
      <path d="M0.1 -1.2 Q2.35 -1.1 3.95 -0.45 5.45 0.25 5.4 1.0 5.3 1.85 3.7 2.35 L-0.2 2.7 Q-2.45 2.65 -4.0 2.0 -5.55 1.25 -5.5 0.5 -5.4 -0.35 -3.8 -0.85 L0.1 -1.2" fill="url(#gradient17)" fill-rule="evenodd" stroke="none"/>
      <path d="M-2.9 -12.2 Q-4.5 -11.65 -4.55 -10.8 -4.65 -9.9 -3.05 -9.25 -1.55 -8.6 0.7 -8.4 L4.5 -8.8 Q6.15 -9.3 6.2 -10.15 6.25 -11.05 4.7 -11.7 3.2 -12.4 0.95 -12.55 L-2.9 -12.2 M0.55 -6.85 Q-2.25 -7.05 -4.15 -7.95 -6.1 -8.95 -6.0 -10.2 -5.95 -11.45 -3.9 -12.25 -1.85 -13.1 0.95 -12.9 3.8 -12.75 5.7 -11.7 7.65 -10.65 7.5 -9.45 7.4 -8.2 5.45 -7.45 3.35 -6.65 0.55 -6.85" fill="url(#gradient18)" fill-rule="evenodd" stroke="none"/>
      <path d="M-3.95 2.1 Q-5.5 1.35 -5.4 0.45 L-5.35 0.0 -4.7 -9.0 Q-4.45 -8.15 -3.0 -7.55 -1.4 -6.9 0.55 -6.85 L4.2 -7.15 Q5.75 -7.6 6.15 -8.4 L5.55 0.6 5.6 1.0 Q5.5 2.0 3.9 2.55 L-0.1 2.95 Q-2.35 2.9 -3.95 2.1" fill="url(#gradient19)" fill-rule="evenodd" stroke="none"/>
      <path d="M-4.55 -0.45 L-4.05 -8.25 Q-2.6 -7.1 0.55 -6.95 3.6 -6.75 5.25 -7.75 L4.8 -0.3 4.85 0.05 Q4.8 1.0 3.4 1.55 L0.0 1.95 Q-2.0 1.85 -3.25 1.2 -4.6 0.5 -4.55 -0.45" fill="url(#gradient20)" fill-rule="evenodd" stroke="none"/>
      <path d="M-2.8 2.4 L-3.0 2.2 0.25 2.7 1.65 2.85 -0.1 2.8 -2.8 2.4" fill="url(#gradient21)" fill-rule="evenodd" stroke="none"/>
      <path d="M-4.75 -9.05 L-4.4 -8.55 -4.8 -1.3 Q-4.8 0.1 -4.15 1.1 L-4.35 1.2 -5.0 0.95 -4.95 1.15 -4.65 1.45 -4.6 1.6 Q-5.5 1.05 -5.45 0.3 L-5.35 -0.1 -4.75 -9.05" fill="url(#gradient22)" fill-rule="evenodd" stroke="none"/>
      <path d="M5.6 -7.1 L5.5 -7.55 4.85 -7.4 4.85 -7.55 Q5.85 -7.95 6.1 -8.5 L5.5 0.5 5.55 0.85 Q5.55 1.45 4.9 1.85 L4.4 1.5 4.95 0.6 5.15 0.0 5.6 -7.1" fill="url(#gradient23)" fill-rule="evenodd" stroke="none"/>
      <path d="M-4.35 1.2 L-3.5 1.7 -4.15 1.1 -3.85 1.0 -3.3 -7.8 Q-2.45 -7.4 -1.6 -7.15 L-2.15 1.75 -2.35 1.9 -2.2 2.1 -2.9 1.8 -3.05 1.8 -3.0 2.2 Q-4.25 1.85 -4.65 1.45 L-4.35 1.2" fill="url(#gradient24)" fill-rule="evenodd" stroke="none"/>
      <path d="M-3.5 1.7 L-4.35 1.2 -4.15 1.1 -3.5 1.7" fill="url(#gradient25)" fill-rule="evenodd" stroke="none"/>
      <path d="M-3.5 1.7 L-4.35 1.2 -4.15 1.1 -3.5 1.7" fill="url(#gradient26)" fill-rule="evenodd" stroke="none"/>
      <path d="M3.05 -7.0 L3.75 -7.15 4.8 -7.35 4.85 -7.4 4.25 1.45 4.4 1.5 3.7 2.1 Q4.6 1.9 4.5 2.1 L3.15 2.55 3.4 2.15 3.2 2.1 2.4 2.4 3.05 -7.0" fill="url(#gradient27)" fill-rule="evenodd" stroke="none"/>
      <path d="M4.8 -7.35 L3.75 -7.15 4.85 -7.55 4.85 -7.4 4.8 -7.35" fill="url(#gradient28)" fill-rule="evenodd" stroke="none"/>
      <path d="M4.8 -7.35 L3.75 -7.15 4.85 -7.55 4.85 -7.4 4.8 -7.35" fill="url(#gradient29)" fill-rule="evenodd" stroke="none"/>
      <path d="M4.4 1.5 L4.9 1.85 4.5 2.1 Q4.6 1.9 3.7 2.1 L4.4 1.5" fill="url(#gradient30)" fill-rule="evenodd" stroke="none"/>
      <path d="M4.4 1.5 L4.9 1.85 4.5 2.1 Q4.6 1.9 3.7 2.1 L4.4 1.5" fill="url(#gradient31)" fill-rule="evenodd" stroke="none"/>
      <path d="M-2.35 1.9 L-2.15 1.75 Q-1.85 1.6 -1.4 1.95 L-0.95 2.3 -2.25 2.05 -2.35 1.9" fill="#ffffff" fill-rule="evenodd" stroke="none"/>
      <path d="M-0.45 2.25 L-0.05 2.1 0.05 2.35 -0.35 2.45 -0.45 2.25" fill="#ffffff" fill-rule="evenodd" stroke="none"/>
      <path d="M-3.65 -12.2 Q-5.55 -11.55 -5.6 -10.45 -5.7 -9.3 -3.85 -8.4 -2.05 -7.55 0.6 -7.4 3.2 -7.2 5.2 -7.9 7.05 -8.65 7.1 -9.7 7.2 -10.8 5.35 -11.7 3.55 -12.6 0.9 -12.8 L-3.65 -12.2 M0.55 -6.85 Q-2.25 -7.05 -4.15 -7.95 -6.1 -8.95 -6.0 -10.2 -5.95 -11.45 -3.9 -12.25 -1.85 -13.1 0.95 -12.9 3.8 -12.75 5.7 -11.7 7.65 -10.65 7.5 -9.45 7.4 -8.2 5.45 -7.45 3.35 -6.65 0.55 -6.85" fill="url(#gradient32)" fill-rule="evenodd" stroke="none"/>
      <path d="M-3.05 -9.25 Q-4.65 -9.9 -4.55 -10.8 -4.5 -11.65 -2.9 -12.2 L-1.4 -12.5 -2.7 -12.15 Q-4.25 -11.7 -4.3 -10.8 -4.3 -10.0 -2.85 -9.35 -1.45 -8.65 0.7 -8.5 L4.4 -8.9 Q5.95 -9.4 5.95 -10.2 5.95 -11.05 4.65 -11.7 L3.95 -12.0 4.75 -11.65 Q6.2 -11.0 6.2 -10.15 6.15 -9.3 4.5 -8.8 L0.7 -8.4 Q-1.55 -8.6 -3.05 -9.25" fill="url(#gradient33)" fill-rule="evenodd" stroke="none"/>
      <path d="M-3.05 -9.25 Q-4.65 -9.9 -4.55 -10.8 -4.5 -11.65 -2.9 -12.2 L-0.05 -12.55 -2.6 -12.15 Q-4.15 -11.7 -4.2 -10.9 -4.25 -10.15 -2.8 -9.45 -1.4 -8.8 0.7 -8.65 L4.3 -9.0 Q5.8 -9.55 5.85 -10.3 5.95 -11.1 4.45 -11.8 L3.9 -12.05 4.7 -11.7 Q6.25 -11.05 6.2 -10.15 6.15 -9.3 4.5 -8.8 L0.7 -8.4 Q-1.55 -8.6 -3.05 -9.25" fill="url(#gradient34)" fill-rule="evenodd" stroke="none"/>
      <path d="M-5.4 18.7 L-4.35 18.3 Q-3.2 17.8 -3.4 17.05 L-7.1 16.0 Q-9.0 15.3 -9.75 13.4 -10.35 11.7 -9.5 9.65 -8.95 8.35 -6.45 8.2 L-6.25 8.15 -6.05 8.2 -4.45 8.15 -4.2 8.1 -3.35 8.15 Q-0.6 8.4 1.95 9.2 5.25 10.15 6.1 12.3 6.7 13.8 6.05 16.3 5.55 18.0 2.5 17.85 L2.2 17.8 0.8 17.6 -0.45 17.4 Q-0.75 18.75 -2.7 19.1 L-4.15 19.3 -4.75 19.05 -5.4 18.7" fill="url(#gradient35)" fill-rule="evenodd" stroke="none"/>
      <path d="M2.4 7.8 Q6.85 9.2 7.7 12.35 8.1 13.95 7.4 16.65 7.05 17.8 6.05 18.45 4.6 19.5 1.9 19.2 L0.25 19.0 Q-0.75 20.1 -2.4 20.5 L-4.25 20.65 Q-5.8 20.5 -6.4 19.75 -7.05 19.15 -6.85 18.5 -6.75 18.0 -6.45 17.75 L-7.55 17.35 Q-10.0 16.55 -10.9 14.3 -11.95 11.75 -10.8 9.05 -9.65 6.3 -3.3 6.8 -0.1 6.95 2.4 7.8 M2.2 17.8 L2.5 17.85 Q5.55 18.0 6.05 16.3 6.7 13.8 6.1 12.3 5.25 10.15 1.95 9.2 -0.6 8.4 -3.35 8.15 L-4.2 8.1 -4.45 8.15 -6.05 8.2 -6.25 8.15 -6.45 8.2 Q-8.95 8.35 -9.5 9.65 -10.35 11.7 -9.75 13.4 -9.0 15.3 -7.1 16.0 L-3.4 17.05 Q-3.2 17.8 -4.35 18.3 L-5.4 18.7 -5.1 18.95 -4.75 19.05 -4.15 19.3 -2.7 19.1 Q-0.75 18.75 -0.45 17.4 L0.8 17.6 2.0 17.8 2.2 17.8" fill="#8a8569" fill-rule="evenodd" stroke="none"/>
      <path d="M2.1 5.15 Q5.75 5.4 8.6 5.05 L9.15 7.8 Q9.65 10.8 9.65 12.75 9.65 16.0 7.85 21.7 L5.55 22.35 -2.95 22.0 Q-6.65 21.45 -9.25 19.95 L-11.05 18.55 Q-12.55 16.85 -12.75 13.95 -13.0 9.8 -10.9 5.6 L-8.95 2.2 Q-5.3 4.75 2.1 5.15 M2.4 7.8 Q-0.1 6.95 -3.3 6.8 -9.65 6.3 -10.8 9.05 -11.95 11.75 -10.9 14.3 -10.0 16.55 -7.55 17.35 L-6.45 17.75 Q-6.75 18.0 -6.85 18.5 -7.05 19.15 -6.4 19.75 -5.8 20.5 -4.25 20.65 L-2.4 20.5 Q-0.75 20.1 0.25 19.0 L1.9 19.2 Q4.6 19.5 6.05 18.45 7.05 17.8 7.4 16.65 8.1 13.95 7.7 12.35 6.85 9.2 2.4 7.8 M-5.4 18.7 L-4.75 19.05 -5.1 18.95 -5.4 18.7 M0.8 17.6 L2.2 17.8 2.0 17.8 0.8 17.6" fill="url(#gradient36)" fill-rule="evenodd" stroke="none"/>
    </g>
    <linearGradient gradientTransform="matrix(0.0058, 1.0E-4, 3.0E-4, -0.0114, 0.3, 4.6)" gradientUnits="userSpaceOnUse" id="gradient8" spreadMethod="pad" x1="-819.2" x2="819.2">
      <stop offset="0.0" stop-color="#ffffff" stop-opacity="0.9490196"/>
      <stop offset="1.0" stop-color="#abd9db"/>
    </linearGradient>
    <linearGradient gradientTransform="matrix(-1.0E-4, 0.0024, 0.0047, 1.0E-4, -3.0, 0.55)" gradientUnits="userSpaceOnUse" id="gradient9" spreadMethod="pad" x1="-819.2" x2="819.2">
      <stop offset="0.0" stop-color="#ffffff" stop-opacity="0.41960785"/>
      <stop offset="1.0" stop-color="#ffffff" stop-opacity="0.02745098"/>
    </linearGradient>
    <linearGradient gradientTransform="matrix(0.0062, 1.0E-4, 3.0E-4, -0.0122, 0.45, 4.55)" gradientUnits="userSpaceOnUse" id="gradient10" spreadMethod="pad" x1="-819.2" x2="819.2">
      <stop offset="0.0" stop-color="#ffffff"/>
      <stop offset="1.0" stop-color="#abd9db"/>
    </linearGradient>
    <linearGradient gradientTransform="matrix(0.0, -0.0024, 0.0047, 1.0E-4, 4.1, 0.6)" gradientUnits="userSpaceOnUse" id="gradient11" spreadMethod="pad" x1="-819.2" x2="819.2">
      <stop offset="0.0" stop-color="#ffffff" stop-opacity="0.13725491"/>
      <stop offset="1.0" stop-color="#ffffff" stop-opacity="0.02745098"/>
    </linearGradient>
    <radialGradient cx="0" cy="0" gradientTransform="matrix(0.0023, 0.0221, 0.0202, -0.0021, -1.05, 7.9)" gradientUnits="userSpaceOnUse" id="gradient12" r="819.2" spreadMethod="pad">
      <stop offset="0.0" stop-color="#ffffff" stop-opacity="0.47843137"/>
      <stop offset="0.7098039215686275" stop-color="#ffffff" stop-opacity="0.08235294"/>
      <stop offset="0.8666666666666667" stop-color="#ffffff" stop-opacity="0.2"/>
      <stop offset="1.0" stop-color="#ffffff" stop-opacity="0.02745098"/>
    </radialGradient>
    <radialGradient cx="0" cy="0" gradientTransform="matrix(0.024, -0.0193, -0.0193, -0.024, -10.45, 19.25)" gradientUnits="userSpaceOnUse" id="gradient13" r="819.2" spreadMethod="pad">
      <stop offset="0.0" stop-color="#ffffff" stop-opacity="0.9490196"/>
      <stop offset="1.0" stop-color="#8a9b9e"/>
    </radialGradient>
    <radialGradient cx="0" cy="0" gradientTransform="matrix(0.0027, 0.0157, 0.0177, -0.0023, -1.0, 2.25)" gradientUnits="userSpaceOnUse" id="gradient14" r="819.2" spreadMethod="pad">
      <stop offset="0.0" stop-color="#ffffff" stop-opacity="0.5882353"/>
      <stop offset="1.0" stop-color="#ffffff" stop-opacity="0.0"/>
    </radialGradient>
    <radialGradient cx="0" cy="0" gradientTransform="matrix(0.0018, 0.0103, 0.0114, -0.002, 10.0, 2.35)" gradientUnits="userSpaceOnUse" id="gradient15" r="819.2" spreadMethod="pad">
      <stop offset="0.0" stop-color="#ffffff" stop-opacity="0.61960787"/>
      <stop offset="1.0" stop-color="#ffffff" stop-opacity="0.02745098"/>
    </radialGradient>
    <linearGradient gradientTransform="matrix(0.006, 0.0026, 0.0026, -0.006, -0.05, 0.7)" gradientUnits="userSpaceOnUse" id="gradient16" spreadMethod="pad" x1="-819.2" x2="819.2">
      <stop offset="0.0" stop-color="#ffffff" stop-opacity="0.9490196"/>
      <stop offset="1.0" stop-color="#abd9db"/>
    </linearGradient>
    <linearGradient gradientTransform="matrix(0.0056, 0.0015, 0.0015, -0.0056, 0.2, 0.8)" gradientUnits="userSpaceOnUse" id="gradient17" spreadMethod="pad" x1="-819.2" x2="819.2">
      <stop offset="0.0" stop-color="#000000" stop-opacity="0.24705882"/>
      <stop offset="1.0" stop-color="#000000" stop-opacity="0.02745098"/>
    </linearGradient>
    <linearGradient gradientTransform="matrix(-9.0E-4, -0.0041, -0.0041, 9.0E-4, 0.75, -9.85)" gradientUnits="userSpaceOnUse" id="gradient18" spreadMethod="pad" x1="-819.2" x2="819.2">
      <stop offset="0.0" stop-color="#ffffff" stop-opacity="0.21960784"/>
      <stop offset="1.0" stop-color="#ffffff" stop-opacity="0.02745098"/>
    </linearGradient>
    <linearGradient gradientTransform="matrix(0.0067, 4.0E-4, 8.0E-4, -0.0132, 0.25, -2.9)" gradientUnits="userSpaceOnUse" id="gradient19" spreadMethod="pad" x1="-819.2" x2="819.2">
      <stop offset="0.0" stop-color="#ffffff" stop-opacity="0.21960784"/>
      <stop offset="1.0" stop-color="#ffffff" stop-opacity="0.02745098"/>
    </linearGradient>
    <linearGradient gradientTransform="matrix(0.0057, 4.0E-4, 7.0E-4, -0.0113, 0.3, -3.0)" gradientUnits="userSpaceOnUse" id="gradient20" spreadMethod="pad" x1="-819.2" x2="819.2">
      <stop offset="0.0" stop-color="#ffffff" stop-opacity="0.21960784"/>
      <stop offset="1.0" stop-color="#ffffff" stop-opacity="0.02745098"/>
    </linearGradient>
    <linearGradient gradientTransform="matrix(0.0067, 4.0E-4, 8.0E-4, -0.0132, -0.1, 2.65)" gradientUnits="userSpaceOnUse" id="gradient21" spreadMethod="pad" x1="-819.2" x2="819.2">
      <stop offset="0.0" stop-color="#ffffff" stop-opacity="0.9490196"/>
      <stop offset="1.0" stop-color="#abd9db"/>
    </linearGradient>
    <linearGradient gradientTransform="matrix(0.0067, 4.0E-4, 8.0E-4, -0.0132, 0.25, -3.4)" gradientUnits="userSpaceOnUse" id="gradient22" spreadMethod="pad" x1="-819.2" x2="819.2">
      <stop offset="0.0" stop-color="#b7c6c7" stop-opacity="0.9490196"/>
      <stop offset="1.0" stop-color="#95bdbf"/>
    </linearGradient>
    <linearGradient gradientTransform="matrix(0.0061, 2.0E-4, 2.0E-4, -0.0061, 0.05, -3.5)" gradientUnits="userSpaceOnUse" id="gradient23" spreadMethod="pad" x1="-819.2" x2="819.2">
      <stop offset="0.0" stop-color="#b7c6c7" stop-opacity="0.9490196"/>
      <stop offset="1.0" stop-color="#95bdbf"/>
    </linearGradient>
    <linearGradient gradientTransform="matrix(-2.0E-4, 0.0028, 0.0054, 3.0E-4, -3.1, -3.25)" gradientUnits="userSpaceOnUse" id="gradient24" spreadMethod="pad" x1="-819.2" x2="819.2">
      <stop offset="0.0" stop-color="#ffffff" stop-opacity="0.41960785"/>
      <stop offset="1.0" stop-color="#ffffff" stop-opacity="0.02745098"/>
    </linearGradient>
    <linearGradient gradientTransform="matrix(0.0067, 4.0E-4, 8.0E-4, -0.0132, 0.0, 1.6)" gradientUnits="userSpaceOnUse" id="gradient25" spreadMethod="pad" x1="-819.2" x2="819.2">
      <stop offset="0.0" stop-color="#ffffff" stop-opacity="0.9490196"/>
      <stop offset="1.0" stop-color="#abd9db"/>
    </linearGradient>
    <linearGradient gradientTransform="matrix(-2.0E-4, 0.0028, 0.0054, 3.0E-4, -3.65, -3.25)" gradientUnits="userSpaceOnUse" id="gradient26" spreadMethod="pad" x1="-819.2" x2="819.2">
      <stop offset="0.0" stop-color="#ffffff" stop-opacity="0.41960785"/>
      <stop offset="1.0" stop-color="#ffffff" stop-opacity="0.02745098"/>
    </linearGradient>
    <linearGradient gradientTransform="matrix(2.0E-4, -0.0028, 0.0054, 3.0E-4, 3.8, -2.9)" gradientUnits="userSpaceOnUse" id="gradient27" spreadMethod="pad" x1="-819.2" x2="819.2">
      <stop offset="0.0" stop-color="#ffffff" stop-opacity="0.13725491"/>
      <stop offset="1.0" stop-color="#ffffff" stop-opacity="0.02745098"/>
    </linearGradient>
    <linearGradient gradientTransform="matrix(0.0072, 4.0E-4, 9.0E-4, -0.0142, 0.75, -7.55)" gradientUnits="userSpaceOnUse" id="gradient28" spreadMethod="pad" x1="-819.2" x2="819.2">
      <stop offset="0.0" stop-color="#ffffff"/>
      <stop offset="1.0" stop-color="#abd9db"/>
    </linearGradient>
    <linearGradient gradientTransform="matrix(2.0E-4, -0.0028, 0.0056, 3.0E-4, 4.05, -2.7)" gradientUnits="userSpaceOnUse" id="gradient29" spreadMethod="pad" x1="-819.2" x2="819.2">
      <stop offset="0.0" stop-color="#ffffff" stop-opacity="0.13725491"/>
      <stop offset="1.0" stop-color="#ffffff" stop-opacity="0.02745098"/>
    </linearGradient>
    <linearGradient gradientTransform="matrix(0.0072, 4.0E-4, 9.0E-4, -0.0141, 0.15, 1.55)" gradientUnits="userSpaceOnUse" id="gradient30" spreadMethod="pad" x1="-819.2" x2="819.2">
      <stop offset="0.0" stop-color="#ffffff"/>
      <stop offset="1.0" stop-color="#abd9db"/>
    </linearGradient>
    <linearGradient gradientTransform="matrix(2.0E-4, -0.0028, 0.0055, 3.0E-4, 4.65, -2.85)" gradientUnits="userSpaceOnUse" id="gradient31" spreadMethod="pad" x1="-819.2" x2="819.2">
      <stop offset="0.0" stop-color="#ffffff" stop-opacity="0.13725491"/>
      <stop offset="1.0" stop-color="#ffffff" stop-opacity="0.02745098"/>
    </linearGradient>
    <linearGradient gradientTransform="matrix(-9.0E-4, -0.0041, -0.0041, 9.0E-4, 0.75, -9.85)" gradientUnits="userSpaceOnUse" id="gradient32" spreadMethod="pad" x1="-819.2" x2="819.2">
      <stop offset="0.0" stop-color="#b7c6c7" stop-opacity="0.9490196"/>
      <stop offset="1.0" stop-color="#95bdbf"/>
    </linearGradient>
    <linearGradient gradientTransform="matrix(0.0057, 0.0025, 0.0025, -0.0057, 0.8, -10.5)" gradientUnits="userSpaceOnUse" id="gradient33" spreadMethod="pad" x1="-819.2" x2="819.2">
      <stop offset="0.0" stop-color="#ffffff" stop-opacity="0.9490196"/>
      <stop offset="1.0" stop-color="#abd9db"/>
    </linearGradient>
    <linearGradient gradientTransform="matrix(0.0065, 4.0E-4, 7.0E-4, -0.0123, 0.8, -10.5)" gradientUnits="userSpaceOnUse" id="gradient34" spreadMethod="pad" x1="-819.2" x2="819.2">
      <stop offset="0.0" stop-color="#b7c6c7" stop-opacity="0.9490196"/>
      <stop offset="1.0" stop-color="#95bdbf"/>
    </linearGradient>
    <radialGradient cx="0" cy="0" gradientTransform="matrix(0.0045, 0.0154, 0.0154, -0.0045, -4.05, 8.15)" gradientUnits="userSpaceOnUse" id="gradient35" r="819.2" spreadMethod="pad">
      <stop offset="0.0" stop-color="#fbf5e2"/>
      <stop offset="0.07058823529411765" stop-color="#f6f0db"/>
      <stop offset="0.43137254901960786" stop-color="#e3dcc1"/>
      <stop offset="0.7490196078431373" stop-color="#d7d0b1"/>
      <stop offset="1.0" stop-color="#d3ccac"/>
    </radialGradient>
    <radialGradient cx="0" cy="0" gradientTransform="matrix(0.0048, 0.0266, 0.0271, -0.0046, -4.0, 5.9)" gradientUnits="userSpaceOnUse" id="gradient36" r="819.2" spreadMethod="pad">
      <stop offset="0.0" stop-color="#fbf5e2"/>
      <stop offset="0.07058823529411765" stop-color="#f6f0db"/>
      <stop offset="0.43137254901960786" stop-color="#e3dcc1"/>
      <stop offset="0.7490196078431373" stop-color="#d7d0b1"/>
      <stop offset="1.0" stop-color="#d3ccac"/>
    </radialGradient>
  </defs>
</svg>
