<?xml version="1.0" encoding="UTF-8" standalone="no"?>
<svg xmlns:xlink="http://www.w3.org/1999/xlink" height="44.6px" width="43.6px" xmlns="http://www.w3.org/2000/svg">
  <g transform="matrix(1.0, 0.0, 0.0, 1.0, 0.0, 0.0)">
    <use height="44.6" transform="matrix(1.0, 0.0, 0.0, 1.0, 0.0, 0.0)" width="43.6" xlink:href="#shape0"/>
  </g>
  <defs>
    <g id="shape0" transform="matrix(1.0, 0.0, 0.0, 1.0, 0.0, 0.0)">
      <path d="M42.85 19.3 L43.45 18.65 43.55 18.55 43.5 19.2 Q43.2 21.35 43.35 22.45 43.65 24.3 43.25 25.45 42.85 26.5 42.3 26.05 41.95 25.75 42.1 24.75 L42.2 23.35 Q42.15 23.1 41.95 23.45 L41.8 23.8 41.6 24.3 41.5 24.55 41.55 23.7 Q40.3 24.8 39.35 27.4 38.2 30.55 37.65 31.3 37.8 30.15 37.25 29.35 36.75 28.6 35.95 28.7 L35.9 28.25 35.9 28.2 37.55 25.8 38.7 23.7 38.95 23.25 38.9 27.25 Q39.95 25.6 40.4 22.75 L40.55 21.6 Q42.2 20.45 42.85 19.3" fill="#6f68b7" fill-rule="evenodd" stroke="none"/>
      <path d="M43.55 18.55 L43.45 18.65 42.85 19.3 42.1 19.8 40.65 20.65 40.05 20.95 39.45 21.5 38.55 22.85 37.45 24.95 35.8 27.35 35.75 27.45 33.8 29.95 33.45 30.25 32.05 30.7 30.8 30.7 27.7 30.8 26.4 31.35 25.65 31.6 23.8 31.45 Q22.9 31.0 20.05 30.45 L14.3 29.7 3.95 28.3 1.65 27.65 Q0.65 27.3 0.25 26.9 L0.2 26.85 0.3 26.7 0.3 26.65 0.5 26.3 0.9 25.7 0.95 25.65 1.15 25.35 3.05 23.45 3.4 23.15 5.05 21.95 7.45 20.15 7.25 20.55 7.25 20.65 7.2 20.7 Q7.1 21.25 7.5 21.55 L7.55 21.6 7.45 21.7 Q8.95 22.4 10.85 22.55 L14.4 22.1 Q16.3 21.3 15.5 20.0 15.1 19.25 12.8 18.75 L12.5 18.15 12.25 17.6 12.2 17.5 12.0 17.1 Q13.25 16.4 14.4 15.95 L14.3 16.85 14.3 17.25 Q14.45 18.9 15.95 19.35 L17.75 19.85 17.35 20.95 17.4 20.95 17.25 21.35 16.6 23.2 16.55 23.15 16.35 23.75 Q15.15 23.95 14.15 25.0 12.85 26.35 13.95 27.5 L14.15 26.35 Q14.35 25.6 14.75 25.2 L15.95 24.6 16.0 24.6 15.95 24.7 16.05 24.75 15.75 25.65 15.75 25.9 15.7 25.85 Q15.6 26.6 16.05 27.1 L17.25 27.8 18.6 28.2 19.4 28.35 23.25 28.7 Q25.4 28.45 26.95 27.5 29.45 25.95 29.05 25.0 28.75 24.25 26.3 24.1 L26.05 23.55 26.05 23.5 24.95 21.1 24.95 21.15 24.55 20.2 24.3 19.55 25.75 18.95 26.7 18.05 Q27.0 18.95 27.75 19.35 28.6 19.75 29.65 19.35 L29.4 19.95 29.15 20.7 29.1 20.7 28.8 21.5 28.6 21.5 Q27.65 21.6 26.95 22.05 26.1 22.55 27.1 23.0 27.8 21.8 28.8 21.55 L28.65 21.9 28.75 21.95 28.3 23.1 28.25 23.05 Q28.1 23.75 28.4 24.2 L29.4 24.85 32.85 25.45 34.65 25.15 35.2 25.05 Q38.1 24.45 38.05 22.65 L36.5 22.3 36.4 22.05 36.0 21.15 35.5 20.0 Q37.75 20.1 38.95 19.5 L40.2 18.4 Q40.55 17.65 39.9 16.95 39.3 16.2 37.7 16.05 L37.6 15.6 37.45 15.35 37.5 15.35 37.55 15.3 38.25 15.5 39.35 15.65 41.2 15.9 Q43.6 16.1 43.6 18.3 L43.55 18.55 M28.2 16.15 L28.2 16.25 Q28.05 18.6 29.7 19.15 L29.65 19.3 Q26.6 18.65 27.1 16.8 L26.9 17.2 Q26.9 16.6 26.35 16.15 25.75 15.65 24.25 15.6 L24.15 15.15 24.55 15.15 28.35 15.25 28.2 16.15 M7.35 22.0 Q6.9 21.6 6.9 21.0 5.1 23.3 10.25 23.3 L8.25 22.65 7.35 22.0 M14.45 22.45 Q15.15 22.7 15.6 22.0 L15.1 21.8 Q14.7 21.95 14.6 22.05 14.4 22.15 14.45 22.45 M8.45 26.15 Q7.75 26.55 7.75 27.3 8.9 27.85 9.65 26.9 10.4 25.9 9.25 25.8 L8.45 26.15 M5.9 26.85 Q7.65 26.7 7.95 25.25 8.25 23.8 6.25 24.15 L5.25 24.3 Q3.1 24.25 3.5 25.65 3.85 27.0 5.9 26.85 M31.35 26.75 L33.45 26.5 31.25 26.0 29.6 25.85 Q30.0 26.6 31.35 26.75" fill="url(#gradient0)" fill-rule="evenodd" stroke="none"/>
      <path d="M37.5 15.35 L37.45 15.35 37.6 15.6 37.7 16.05 Q38.0 17.7 37.55 18.15 36.5 19.2 35.3 19.65 L35.05 19.05 34.45 17.65 34.05 16.85 35.35 16.05 35.5 15.9 Q36.35 15.1 36.95 13.55 L37.05 13.8 37.25 14.45 37.5 15.35 M29.35 11.2 Q31.2 11.55 33.1 10.4 34.7 9.45 35.45 8.15 L35.75 9.45 35.75 9.5 36.05 10.75 Q35.4 12.0 34.25 12.8 32.2 14.45 28.75 13.4 L29.35 11.2 M30.65 5.15 Q32.9 4.8 34.25 2.75 L34.8 4.95 Q33.55 7.25 30.2 7.35 L30.65 5.15 M29.7 19.15 Q28.05 18.6 28.2 16.25 L28.2 16.15 Q29.3 16.85 30.45 17.1 L30.25 17.55 29.8 18.8 29.7 19.15" fill="url(#gradient1)" fill-rule="evenodd" stroke="none"/>
      <path d="M35.75 9.45 L35.45 8.15 Q34.7 9.45 33.1 10.4 31.2 11.55 29.35 11.2 L30.2 7.35 Q33.55 7.25 34.8 4.95 L34.25 2.75 Q32.9 4.8 30.65 5.15 L30.85 4.25 Q31.8 0.0 32.6 0.0 33.55 0.0 34.45 3.35 L35.75 9.45 M28.75 13.4 Q32.2 14.45 34.25 12.8 35.4 12.0 36.05 10.75 L35.75 9.5 37.05 13.8 36.95 13.55 Q36.35 15.1 35.5 15.9 L35.35 16.05 34.05 16.85 33.75 16.35 33.6 16.15 33.0 15.55 Q32.55 15.2 32.1 15.2 31.8 15.2 31.5 15.45 L30.7 16.5 30.45 17.1 Q29.3 16.85 28.2 16.15 L28.35 15.25 28.75 13.4" fill="url(#gradient2)" fill-rule="evenodd" stroke="none"/>
      <path d="M36.0 21.15 L36.4 22.05 36.5 22.3 36.65 23.7 Q36.8 23.1 36.45 22.2 L35.35 23.3 Q34.1 24.05 32.3 24.05 29.85 24.05 28.3 23.1 L28.75 21.95 30.55 22.3 Q34.8 22.75 36.0 21.15 M29.15 20.7 L29.4 19.95 29.65 19.35 29.65 19.3 29.7 19.15 29.8 18.8 Q30.65 19.5 32.45 18.8 33.75 18.35 34.45 17.65 L35.05 19.05 35.3 19.65 35.35 19.7 Q34.2 20.95 31.95 20.95 L29.15 20.7 M30.25 17.55 L30.45 17.1 30.7 16.5 31.5 15.45 Q31.8 15.2 32.1 15.2 32.55 15.2 33.0 15.55 L33.6 16.15 33.75 16.35 34.05 16.85 33.65 16.25 Q32.8 17.55 31.05 17.55 L30.25 17.55" fill="url(#gradient3)" fill-rule="evenodd" stroke="none"/>
      <path d="M17.75 19.85 L15.95 19.35 Q14.45 18.9 14.3 17.25 L18.55 17.7 18.25 18.45 17.95 19.3 17.95 19.35 17.9 19.35 17.75 19.85 M24.15 15.15 L24.25 15.6 24.4 16.35 24.45 16.65 24.5 17.3 Q24.45 18.05 24.1 18.4 L23.9 18.6 23.55 17.85 23.55 17.9 22.85 16.65 22.65 16.35 23.5 15.6 23.9 15.15 24.05 14.95 24.05 14.9 24.15 15.15 M22.6 11.15 L23.3 12.95 Q19.8 15.95 14.75 14.55 L14.7 14.55 15.15 13.2 15.45 12.3 Q19.65 13.05 22.2 10.1 L22.6 11.15 M21.55 7.9 Q19.75 10.0 16.4 9.25 L17.05 7.05 Q19.35 7.35 20.95 6.15 L21.0 6.3 21.05 6.4 21.1 6.5 21.55 7.9" fill="url(#gradient4)" fill-rule="evenodd" stroke="none"/>
      <path d="M14.3 17.25 L14.3 16.85 14.4 15.95 14.75 14.55 Q19.8 15.95 23.3 12.95 L24.05 14.95 23.9 15.15 23.5 15.6 22.65 16.35 22.0 15.65 Q21.35 15.15 20.75 15.15 L20.7 15.15 Q19.7 15.15 18.9 16.85 L18.55 17.7 14.3 17.25 M22.6 11.15 L22.2 10.1 Q19.65 13.05 15.45 12.3 L17.05 7.05 17.2 6.6 Q18.25 3.5 19.1 3.5 19.95 3.5 20.95 6.15 19.35 7.35 17.05 7.05 L16.4 9.25 Q19.75 10.0 21.55 7.9 L22.6 11.15" fill="url(#gradient5)" fill-rule="evenodd" stroke="none"/>
      <path d="M24.3 19.55 L24.55 20.2 24.95 21.15 Q23.8 22.95 21.05 23.45 L16.6 23.2 17.25 21.35 17.4 20.95 20.2 21.05 Q22.5 21.0 24.25 19.45 L24.3 19.55 M26.05 23.55 L26.3 24.1 26.6 25.35 Q25.1 27.45 21.2 27.7 17.65 27.95 15.75 25.9 L15.75 25.65 16.05 24.75 20.95 25.2 Q24.7 25.1 26.05 23.55 M22.65 16.35 L22.85 16.65 23.55 17.9 21.8 18.95 Q19.45 19.95 17.95 19.35 L17.95 19.3 18.25 18.45 18.55 17.7 18.9 16.85 Q19.7 15.15 20.7 15.15 L20.75 15.15 Q21.35 15.15 22.0 15.65 L22.65 16.35" fill="url(#gradient6)" fill-rule="evenodd" stroke="none"/>
      <path d="M37.7 16.05 Q39.3 16.2 39.9 16.95 40.55 17.65 40.2 18.4 L38.95 19.5 Q37.75 20.1 35.5 20.0 L35.35 19.65 35.35 19.7 35.3 19.65 Q36.5 19.2 37.55 18.15 38.0 17.7 37.7 16.05 M36.5 22.3 L38.05 22.65 Q38.1 24.45 35.2 25.05 L34.65 25.15 36.35 24.1 36.5 24.0 36.65 23.7 36.5 22.3 M26.7 18.05 L25.75 18.95 24.3 19.55 24.25 19.45 23.9 18.6 24.1 18.4 Q24.45 18.05 24.5 17.3 L24.45 16.65 24.4 16.35 24.25 15.6 Q25.75 15.65 26.35 16.15 26.9 16.6 26.9 17.2 L26.6 17.8 26.7 18.05 M26.3 24.1 Q28.75 24.25 29.05 25.0 29.45 25.95 26.95 27.5 25.4 28.45 23.25 28.7 L19.4 28.35 20.2 28.5 21.4 28.6 21.65 28.6 Q24.25 28.5 26.2 26.8 26.75 26.35 26.65 25.25 L26.6 25.35 26.3 24.1 M12.8 18.75 Q15.1 19.25 15.5 20.0 16.3 21.3 14.4 22.1 L10.85 22.55 Q8.95 22.4 7.45 21.7 L7.55 21.6 7.6 21.65 8.1 21.85 Q11.35 22.85 13.25 21.3 L13.3 21.3 Q13.7 20.9 13.4 20.1 L13.35 20.05 13.3 19.85 13.25 19.7 13.25 19.75 12.8 18.75" fill="#968cdd" fill-rule="evenodd" stroke="none"/>
      <path d="M28.8 21.55 Q27.8 21.8 27.1 23.0 26.1 22.55 26.95 22.05 27.65 21.6 28.6 21.5 L28.8 21.5 28.8 21.55 M29.65 19.35 Q28.6 19.75 27.75 19.35 27.0 18.95 26.7 18.05 L26.6 17.8 26.9 17.2 27.1 16.8 Q26.6 18.65 29.65 19.3 L29.65 19.35 M16.0 24.6 L15.95 24.6 14.75 25.2 Q14.35 25.6 14.15 26.35 L13.95 27.5 Q12.85 26.35 14.15 25.0 15.15 23.95 16.35 23.75 L16.0 24.6 M7.35 22.0 L8.25 22.65 10.25 23.3 Q5.1 23.3 6.9 21.0 6.9 21.6 7.35 22.0 M31.35 26.75 Q30.0 26.6 29.6 25.85 L31.25 26.0 33.45 26.5 31.35 26.75" fill="#dfdafe" fill-rule="evenodd" stroke="none"/>
      <path d="M24.95 21.15 L24.95 21.1 26.05 23.5 26.05 23.55 Q24.7 25.1 20.95 25.2 L16.05 24.75 15.95 24.7 16.0 24.6 16.35 23.75 16.55 23.15 16.6 23.2 21.05 23.45 Q23.8 22.95 24.95 21.15 M19.4 28.35 L18.6 28.2 17.25 27.8 16.05 27.1 Q15.6 26.6 15.7 25.85 L15.75 25.9 Q17.65 27.95 21.2 27.7 25.1 27.45 26.6 25.35 L26.65 25.25 Q26.75 26.35 26.2 26.8 24.25 28.5 21.65 28.6 L21.4 28.6 20.2 28.5 19.4 28.35 M17.4 20.95 L17.35 20.95 17.75 19.85 17.9 19.35 17.95 19.35 Q19.45 19.95 21.8 18.95 L23.55 17.9 23.55 17.85 23.9 18.6 24.25 19.45 Q22.5 21.0 20.2 21.05 L17.4 20.95" fill="url(#gradient7)" fill-rule="evenodd" stroke="none"/>
      <path d="M35.5 20.0 L36.0 21.15 Q34.8 22.75 30.55 22.3 L28.75 21.95 28.65 21.9 28.8 21.55 28.8 21.5 29.1 20.7 29.15 20.7 31.95 20.95 Q34.2 20.95 35.35 19.7 L35.35 19.65 35.5 20.0 M34.65 25.15 L32.85 25.45 29.4 24.85 28.4 24.2 Q28.1 23.75 28.25 23.05 L28.3 23.1 Q29.85 24.05 32.3 24.05 34.1 24.05 35.35 23.3 L36.45 22.2 Q36.8 23.1 36.65 23.7 L36.5 24.0 36.35 24.1 34.65 25.15 M29.8 18.8 L30.25 17.55 31.05 17.55 Q32.8 17.55 33.65 16.25 L34.05 16.85 34.45 17.65 Q33.75 18.35 32.45 18.8 30.65 19.5 29.8 18.8" fill="url(#gradient8)" fill-rule="evenodd" stroke="none"/>
      <path d="M0.25 26.9 Q0.65 27.3 1.65 27.65 L3.95 28.3 14.3 29.7 20.05 30.45 Q22.9 31.0 23.8 31.45 L25.65 31.6 26.4 31.35 27.7 30.8 30.8 30.7 32.05 30.7 33.45 30.25 33.8 29.95 35.75 27.45 35.8 27.35 37.45 24.95 38.55 22.85 39.45 21.5 40.05 20.95 40.65 20.65 42.1 19.8 42.85 19.3 Q42.2 20.45 40.55 21.6 L40.2 21.8 Q39.5 22.3 38.95 23.25 L38.7 23.7 37.55 25.8 35.9 28.2 35.9 28.25 33.95 30.8 33.75 31.0 Q33.0 31.55 31.5 31.55 L30.9 31.55 27.8 31.7 27.35 31.9 25.8 32.45 23.95 32.3 Q21.9 31.35 14.45 30.55 L4.05 29.2 Q0.8 28.25 0.05 27.35 L0.25 26.9" fill="url(#gradient9)" fill-rule="evenodd" stroke="none"/>
      <path d="M40.55 21.6 L40.4 22.75 Q39.95 25.6 38.9 27.25 L38.95 23.25 Q39.5 22.3 40.2 21.8 L40.55 21.6 M35.9 28.25 L35.95 28.7 Q36.3 33.05 34.0 34.3 L33.95 32.3 33.95 32.15 33.75 31.0 33.95 30.8 35.9 28.25" fill="#5b5595" fill-rule="evenodd" stroke="none"/>
      <path d="M12.5 18.15 L12.8 18.75 13.25 19.75 Q12.8 20.9 10.1 21.15 L7.95 21.0 7.25 20.55 7.45 20.15 7.8 19.2 8.55 19.35 9.05 19.4 9.7 19.4 Q11.15 19.45 12.05 18.65 L12.5 18.15 M7.5 21.55 Q7.1 21.25 7.2 20.7 L7.25 20.65 Q7.1 21.2 7.5 21.55 M8.75 16.7 L9.85 16.75 Q10.7 16.6 11.45 16.05 L11.8 16.7 11.25 17.55 Q10.7 18.1 10.0 18.3 L8.1 18.45 8.1 18.4 8.75 16.7 M10.95 15.45 Q10.15 16.4 9.05 16.0 L9.05 15.95 Q9.55 15.05 10.1 15.05 10.5 15.05 10.95 15.45" fill="url(#gradient10)" fill-rule="evenodd" stroke="none"/>
      <path d="M12.0 17.1 L12.2 17.5 12.25 17.6 12.5 18.15 12.05 18.65 Q11.15 19.45 9.7 19.4 L9.05 19.4 8.55 19.35 7.8 19.2 8.05 18.45 8.1 18.45 10.0 18.3 Q10.7 18.1 11.25 17.55 L11.8 16.7 11.8 16.65 11.95 16.95 12.0 17.1 M7.55 21.6 L7.5 21.55 Q7.1 21.2 7.25 20.65 L7.25 20.55 7.95 21.0 10.1 21.15 Q12.8 20.9 13.25 19.75 L13.25 19.7 13.3 19.85 13.35 20.05 13.4 20.1 Q13.7 20.9 13.3 21.3 L13.25 21.3 Q11.35 22.85 8.1 21.85 L7.6 21.65 7.55 21.6 M8.75 16.7 L9.0 16.0 9.05 16.0 Q10.15 16.4 10.95 15.45 L10.95 15.4 11.45 16.05 Q10.7 16.6 9.85 16.75 L8.75 16.7" fill="url(#gradient11)" fill-rule="evenodd" stroke="none"/>
      <path d="M14.45 22.45 Q14.4 22.15 14.6 22.05 14.7 21.95 15.1 21.8 L15.6 22.0 Q15.15 22.7 14.45 22.45 M5.9 26.85 Q3.85 27.0 3.5 25.65 3.1 24.25 5.25 24.3 L6.25 24.15 Q8.25 23.8 7.95 25.25 7.65 26.7 5.9 26.85 M8.45 26.15 L9.25 25.8 Q10.4 25.9 9.65 26.9 8.9 27.85 7.75 27.3 7.75 26.55 8.45 26.15" fill="#a79afd" fill-rule="evenodd" stroke="none"/>
      <path d="M14.95 31.5 L14.9 32.15 13.95 32.15 Q13.85 31.9 14.1 31.5 L14.95 31.5 M16.1 32.45 L16.1 31.5 16.45 31.5 Q17.15 32.3 16.1 32.45 M20.1 33.0 L20.45 33.15 20.4 33.8 19.8 33.8 Q19.65 33.45 19.8 33.3 L20.1 33.0 M15.45 33.2 L14.8 33.3 15.1 32.5 15.6 32.5 15.45 33.2 M16.75 33.0 Q17.6 33.9 16.75 34.05 15.85 34.25 16.6 33.15 L16.75 33.0 M10.45 32.65 Q10.55 33.3 10.25 33.6 L9.3 33.8 Q9.15 33.05 10.1 32.65 L10.45 32.65 M10.95 35.15 L10.45 35.45 10.45 34.65 10.95 34.5 10.95 35.15 M8.95 31.0 L9.1 31.0 Q9.65 31.7 9.4 32.8 8.2 33.15 8.05 32.05 7.9 30.95 8.95 31.0 M9.95 32.15 Q9.85 31.9 10.05 31.8 L10.25 31.65 10.6 31.5 10.55 32.15 9.95 32.15 M22.75 33.0 L23.25 32.8 Q24.7 34.6 22.9 34.45 22.3 34.4 22.15 34.0 21.95 33.55 22.75 33.0 M24.6 33.15 L24.2 33.25 23.75 33.0 24.25 33.0 24.45 33.0 24.6 33.15 M23.25 35.65 Q22.95 36.25 22.7 36.1 22.4 35.95 22.6 35.3 L23.25 35.65 M1.75 29.8 L1.1 29.95 1.25 29.3 1.75 29.8" fill="#d6d0fe" fill-rule="evenodd" stroke="none"/>
      <path d="M0.2 26.85 L0.25 26.9 0.05 27.35 0.2 26.85 M41.5 24.55 L41.6 24.3 41.45 24.75 41.5 24.55 M16.1 32.45 Q17.15 32.3 16.45 31.5 L16.1 31.5 16.1 32.45 M14.95 31.5 L14.1 31.5 Q13.85 31.9 13.95 32.15 L14.9 32.15 14.95 31.5 M14.8 35.35 L14.45 34.6 Q14.2 34.25 13.35 34.0 12.35 33.65 11.85 34.75 11.3 35.95 11.5 38.5 11.75 42.0 9.55 40.75 L9.45 39.95 9.65 36.9 Q9.7 36.0 8.75 35.2 L7.7 34.5 Q7.7 33.65 6.65 32.6 L5.6 31.75 5.85 32.2 6.2 33.8 Q6.25 34.75 5.5 34.65 L5.45 34.45 5.0 33.45 2.65 31.65 Q0.7 30.4 0.3 29.75 -0.1 29.1 0.05 27.35 0.8 28.25 4.05 29.2 L14.45 30.55 Q21.9 31.35 23.95 32.3 L25.8 32.45 27.35 31.9 Q27.75 32.35 27.25 33.05 26.4 34.3 24.95 34.3 23.7 34.3 23.65 35.9 23.55 37.4 24.6 41.0 25.55 44.3 23.05 43.9 L23.45 44.2 Q21.7 43.1 21.75 41.95 L22.15 39.35 Q22.4 37.4 22.05 36.6 21.65 35.7 19.45 35.6 21.45 35.65 21.95 36.4 21.65 34.9 19.35 34.4 18.05 34.15 17.2 34.7 16.45 35.15 16.2 36.05 L16.1 36.2 16.5 36.05 15.55 36.15 14.8 35.35 M14.6 34.65 L15.25 35.65 Q16.2 35.85 15.85 34.9 15.45 34.0 14.75 33.8 L14.1 33.5 14.6 34.65 M16.75 33.0 L16.6 33.15 Q15.85 34.25 16.75 34.05 17.6 33.9 16.75 33.0 M15.45 33.2 L15.6 32.5 15.1 32.5 14.8 33.3 15.45 33.2 M20.1 33.0 L19.8 33.3 Q19.65 33.45 19.8 33.8 L20.4 33.8 20.45 33.15 20.1 33.0 M3.25 31.15 Q3.7 31.3 4.35 32.05 4.95 32.7 5.4 32.8 5.55 31.6 4.0 30.45 2.45 29.35 2.45 30.8 L3.25 31.15 M5.55 35.15 L5.6 35.3 5.7 35.4 5.55 35.25 5.55 35.15 M9.95 32.15 L10.55 32.15 10.6 31.5 10.25 31.65 10.05 31.8 Q9.85 31.9 9.95 32.15 M8.95 31.0 Q7.9 30.95 8.05 32.05 8.2 33.15 9.4 32.8 9.65 31.7 9.1 31.0 L8.95 31.0 M10.95 35.15 L10.95 34.5 10.45 34.65 10.45 35.45 10.95 35.15 M10.45 32.65 L10.1 32.65 Q9.15 33.05 9.3 33.8 L10.25 33.6 Q10.55 33.3 10.45 32.65 M9.8 39.95 Q11.2 39.4 10.55 37.25 10.1 35.75 9.1 34.3 L9.75 35.65 Q10.15 37.75 9.8 39.95 M33.95 32.3 Q33.95 33.2 33.35 33.85 L32.25 35.0 Q32.0 35.35 32.0 37.65 32.0 39.75 31.25 40.3 30.7 40.8 30.1 40.3 30.4 38.75 30.1 38.05 L29.25 36.9 29.25 36.65 Q29.5 35.25 30.7 32.95 L31.5 31.55 Q33.0 31.55 33.75 31.0 L33.95 32.15 33.95 32.3 M24.6 33.15 L24.45 33.0 24.25 33.0 23.75 33.0 24.2 33.25 24.6 33.15 M22.75 33.0 Q21.95 33.55 22.15 34.0 22.3 34.4 22.9 34.45 24.7 34.6 23.25 32.8 L22.75 33.0 M30.6 35.0 Q30.1 35.75 30.5 36.9 L30.95 38.95 Q31.95 38.9 31.85 37.35 31.8 35.95 31.25 35.15 L30.6 35.0 M22.55 40.4 Q22.55 42.95 23.4 42.8 L23.5 40.1 Q23.45 38.45 22.95 37.5 L22.75 37.0 22.55 40.4 M23.25 35.65 L22.6 35.3 Q22.4 35.95 22.7 36.1 22.95 36.25 23.25 35.65 M1.75 29.8 L1.25 29.3 1.1 29.95 1.75 29.8" fill="url(#gradient12)" fill-rule="evenodd" stroke="none"/>
      <path d="M35.95 28.7 Q36.75 28.6 37.25 29.35 37.8 30.15 37.65 31.3 38.2 30.55 39.35 27.4 40.3 24.8 41.55 23.7 L41.5 24.55 41.45 24.75 41.35 24.9 40.95 25.7 Q40.4 26.55 40.05 27.7 L39.15 30.55 Q38.75 31.9 38.95 33.05 39.1 33.8 38.8 33.9 37.85 34.15 37.95 31.75 38.0 30.95 37.1 31.95 36.3 32.9 35.65 34.25 35.2 35.25 34.5 35.4 L33.3 35.7 Q32.75 36.05 32.8 36.75 L33.3 39.3 Q33.7 41.15 33.15 41.85 32.65 42.5 31.0 42.1 L30.75 42.0 30.05 41.4 Q29.9 41.05 30.1 40.3 30.7 40.8 31.25 40.3 32.0 39.75 32.0 37.65 32.0 35.35 32.25 35.0 L33.35 33.85 Q33.95 33.2 33.95 32.3 L34.0 34.3 Q36.3 33.05 35.95 28.7 M9.55 40.75 Q11.75 42.0 11.5 38.5 11.3 35.95 11.85 34.75 12.35 33.65 13.35 34.0 14.2 34.25 14.45 34.6 L14.8 35.35 Q13.95 34.5 12.45 36.05 12.05 36.5 12.2 37.55 L12.55 39.6 Q12.7 42.25 10.5 42.1 9.95 42.05 9.7 41.4 L9.65 41.3 9.6 41.15 9.5 40.75 9.55 40.75 M16.5 36.05 L16.1 36.2 16.2 36.05 Q16.45 35.15 17.2 34.7 18.05 34.15 19.35 34.4 21.65 34.9 21.95 36.4 21.45 35.65 19.45 35.6 L19.25 35.6 Q17.3 35.55 16.5 36.05 M23.45 44.2 L23.05 43.9 Q25.55 44.3 24.6 41.0 23.55 37.4 23.65 35.9 23.7 34.3 24.95 34.3 26.4 34.3 27.25 33.05 27.75 32.35 27.35 31.9 L27.8 31.7 30.9 31.55 31.5 31.55 30.7 32.95 Q29.5 35.25 29.25 36.65 L29.25 36.9 28.45 36.35 28.0 36.2 27.85 36.2 27.4 36.15 Q26.4 36.2 25.95 37.15 25.65 37.9 26.3 40.0 26.95 42.05 26.2 43.55 25.4 45.05 23.95 44.45 L23.75 44.4 23.55 44.3 23.45 44.2 M5.5 34.65 Q6.25 34.75 6.2 33.8 L5.85 32.2 5.6 31.75 6.65 32.6 Q7.7 33.65 7.7 34.5 L7.4 34.45 Q7.1 34.45 6.8 34.85 L6.1 35.35 5.7 35.4 5.6 35.3 5.55 35.15 5.55 35.05 5.45 34.65 5.5 34.65" fill="#8d83e6" fill-rule="evenodd" stroke="none"/>
      <path d="M14.6 34.65 L14.1 33.5 14.75 33.8 Q15.45 34.0 15.85 34.9 16.2 35.85 15.25 35.65 L14.6 34.65" fill="url(#gradient13)" fill-rule="evenodd" stroke="none"/>
      <path d="M3.25 31.15 L2.45 30.8 Q2.45 29.35 4.0 30.45 5.55 31.6 5.4 32.8 4.95 32.7 4.35 32.05 3.7 31.3 3.25 31.15" fill="url(#gradient14)" fill-rule="evenodd" stroke="none"/>
      <path d="M9.8 39.95 Q10.15 37.75 9.75 35.65 L9.1 34.3 Q10.1 35.75 10.55 37.25 11.2 39.4 9.8 39.95" fill="url(#gradient15)" fill-rule="evenodd" stroke="none"/>
      <path d="M30.6 35.0 L31.25 35.15 Q31.8 35.95 31.85 37.35 31.95 38.9 30.95 38.95 L30.5 36.9 Q30.1 35.75 30.6 35.0" fill="url(#gradient16)" fill-rule="evenodd" stroke="none"/>
      <path d="M22.55 40.4 L22.75 37.0 22.95 37.5 Q23.45 38.45 23.5 40.1 L23.4 42.8 Q22.55 42.95 22.55 40.4" fill="url(#gradient17)" fill-rule="evenodd" stroke="none"/>
    </g>
    <radialGradient cx="0" cy="0" gradientTransform="matrix(0.026, -1.0E-4, -1.0E-4, -0.026, 18.3, 14.55)" gradientUnits="userSpaceOnUse" id="gradient0" r="819.2" spreadMethod="pad">
      <stop offset="0.0" stop-color="#eab1f4"/>
      <stop offset="1.0" stop-color="#beb7fe"/>
    </radialGradient>
    <radialGradient cx="0" cy="0" gradientTransform="matrix(0.0188, -1.0E-4, -2.0E-4, -0.0339, 31.75, -2.65)" gradientUnits="userSpaceOnUse" id="gradient1" r="819.2" spreadMethod="pad">
      <stop offset="0.0" stop-color="#edbb6a"/>
      <stop offset="1.0" stop-color="#96435a"/>
    </radialGradient>
    <radialGradient cx="0" cy="0" gradientTransform="matrix(0.0143, -1.0E-4, -7.0E-4, -0.0225, 32.35, 0.7)" gradientUnits="userSpaceOnUse" id="gradient2" r="819.2" spreadMethod="pad">
      <stop offset="0.0" stop-color="#fdf889"/>
      <stop offset="1.0" stop-color="#ce796a"/>
    </radialGradient>
    <radialGradient cx="0" cy="0" gradientTransform="matrix(0.0085, 0.0, -1.0E-4, -0.0119, 32.2, 15.6)" gradientUnits="userSpaceOnUse" id="gradient3" r="819.2" spreadMethod="pad">
      <stop offset="0.0" stop-color="#fdf889"/>
      <stop offset="1.0" stop-color="#ce796a"/>
    </radialGradient>
    <radialGradient cx="0" cy="0" gradientTransform="matrix(0.0155, -1.0E-4, -1.0E-4, -0.0281, 16.0, 3.4)" gradientUnits="userSpaceOnUse" id="gradient4" r="819.2" spreadMethod="pad">
      <stop offset="0.0" stop-color="#edbb6a"/>
      <stop offset="1.0" stop-color="#96435a"/>
    </radialGradient>
    <radialGradient cx="0" cy="0" gradientTransform="matrix(0.0131, 0.0, -1.0E-4, -0.0189, 19.1, 4.1)" gradientUnits="userSpaceOnUse" id="gradient5" r="819.2" spreadMethod="pad">
      <stop offset="0.0" stop-color="#fdf889"/>
      <stop offset="1.0" stop-color="#ce796a"/>
    </radialGradient>
    <radialGradient cx="0" cy="0" gradientTransform="matrix(0.011, 0.0, -1.0E-4, -0.0156, 20.85, 15.65)" gradientUnits="userSpaceOnUse" id="gradient6" r="819.2" spreadMethod="pad">
      <stop offset="0.0" stop-color="#fdf889"/>
      <stop offset="1.0" stop-color="#ce796a"/>
    </radialGradient>
    <radialGradient cx="0" cy="0" gradientTransform="matrix(0.0137, -1.0E-4, -1.0E-4, -0.0247, 19.8, 13.1)" gradientUnits="userSpaceOnUse" id="gradient7" r="819.2" spreadMethod="pad">
      <stop offset="0.0" stop-color="#edbb6a"/>
      <stop offset="1.0" stop-color="#96435a"/>
    </radialGradient>
    <radialGradient cx="0" cy="0" gradientTransform="matrix(0.0093, 0.0, -1.0E-4, -0.0169, 32.6, 13.35)" gradientUnits="userSpaceOnUse" id="gradient8" r="819.2" spreadMethod="pad">
      <stop offset="0.0" stop-color="#edbb6a"/>
      <stop offset="1.0" stop-color="#96435a"/>
    </radialGradient>
    <radialGradient cx="0" cy="0" gradientTransform="matrix(0.0307, -2.0E-4, -2.0E-4, -0.0307, 20.3, 28.15)" gradientUnits="userSpaceOnUse" id="gradient9" r="819.2" spreadMethod="pad">
      <stop offset="0.0" stop-color="#f7e5fd"/>
      <stop offset="1.0" stop-color="#beb7fe"/>
    </radialGradient>
    <radialGradient cx="0" cy="0" gradientTransform="matrix(0.0064, 0.0, -1.0E-4, -0.0085, 10.15, 15.3)" gradientUnits="userSpaceOnUse" id="gradient10" r="819.2" spreadMethod="pad">
      <stop offset="0.0" stop-color="#fdf889"/>
      <stop offset="1.0" stop-color="#ce796a"/>
    </radialGradient>
    <radialGradient cx="0" cy="0" gradientTransform="matrix(0.0082, 0.0, -1.0E-4, -0.0148, 12.1, 13.4)" gradientUnits="userSpaceOnUse" id="gradient11" r="819.2" spreadMethod="pad">
      <stop offset="0.0" stop-color="#edbb6a"/>
      <stop offset="1.0" stop-color="#96435a"/>
    </radialGradient>
    <radialGradient cx="0" cy="0" gradientTransform="matrix(0.0299, -1.0E-4, 9.0E-4, -0.0293, 19.95, 20.15)" gradientUnits="userSpaceOnUse" id="gradient12" r="819.2" spreadMethod="pad">
      <stop offset="0.0" stop-color="#eab1f4"/>
      <stop offset="1.0" stop-color="#998efd"/>
    </radialGradient>
    <radialGradient cx="0" cy="0" gradientTransform="matrix(0.0036, 0.0, 0.0, -0.0036, 13.6, 32.85)" gradientUnits="userSpaceOnUse" id="gradient13" r="819.2" spreadMethod="pad">
      <stop offset="0.0" stop-color="#f7e5fd"/>
      <stop offset="1.0" stop-color="#beb7fe"/>
    </radialGradient>
    <radialGradient cx="0" cy="0" gradientTransform="matrix(0.0051, 0.0, 0.0, -0.0051, 1.6, 29.25)" gradientUnits="userSpaceOnUse" id="gradient14" r="819.2" spreadMethod="pad">
      <stop offset="0.0" stop-color="#f7e5fd"/>
      <stop offset="1.0" stop-color="#beb7fe"/>
    </radialGradient>
    <radialGradient cx="0" cy="0" gradientTransform="matrix(0.0074, 0.0, 0.0, -0.0074, 8.65, 32.7)" gradientUnits="userSpaceOnUse" id="gradient15" r="819.2" spreadMethod="pad">
      <stop offset="0.0" stop-color="#f7e5fd"/>
      <stop offset="1.0" stop-color="#beb7fe"/>
    </radialGradient>
    <radialGradient cx="0" cy="0" gradientTransform="matrix(0.0054, 0.0, 0.0, -0.0054, 29.85, 33.85)" gradientUnits="userSpaceOnUse" id="gradient16" r="819.2" spreadMethod="pad">
      <stop offset="0.0" stop-color="#f7e5fd"/>
      <stop offset="1.0" stop-color="#beb7fe"/>
    </radialGradient>
    <radialGradient cx="0" cy="0" gradientTransform="matrix(0.0074, 0.0, 0.0, -0.0074, 22.3, 35.3)" gradientUnits="userSpaceOnUse" id="gradient17" r="819.2" spreadMethod="pad">
      <stop offset="0.0" stop-color="#f7e5fd"/>
      <stop offset="1.0" stop-color="#beb7fe"/>
    </radialGradient>
  </defs>
</svg>
