<?xml version="1.0" encoding="UTF-8" standalone="no"?>
<svg xmlns:xlink="http://www.w3.org/1999/xlink" height="572.65px" width="1487.85px" xmlns="http://www.w3.org/2000/svg">
  <g transform="matrix(1.0, 0.0, 0.0, 1.0, 0.0, 0.0)">
    <use height="565.75" transform="matrix(1.0, 0.0, 0.0, 1.0, 0.0, 0.0)" width="1487.85" xlink:href="#shape0"/>
  </g>
  <defs>
    <g id="shape0" transform="matrix(1.0, 0.0, 0.0, 1.0, 0.0, 0.0)">
      <path d="M1400.8 107.5 Q1467.4 175.5 1484.25 297.85 1500.95 419.1 1440.5 482.55 1412.75 511.65 1367.9 530.1 1326.7 546.95 1269.05 555.6 1218.2 563.25 1149.75 565.1 1095.0 566.6 1015.65 564.55 L872.45 559.85 Q784.4 556.95 725.9 556.95 670.2 556.95 582.0 559.15 475.15 561.8 445.6 562.15 372.15 563.1 320.55 560.75 257.7 557.8 210.7 549.5 102.65 530.3 52.05 476.35 -5.35 415.2 0.55 300.3 3.65 239.25 14.4 194.8 25.4 149.4 45.3 117.25 65.15 85.1 95.65 63.4 125.35 42.2 167.95 29.0 208.25 16.45 264.65 9.8 315.6 3.8 388.25 1.6 446.4 -0.1 541.15 0.2 597.3 0.35 725.9 1.25 769.35 1.45 868.6 0.5 956.15 -0.35 1002.4 0.25 1072.8 1.25 1124.95 5.7 1186.25 11.0 1233.8 22.0 1341.35 46.85 1400.8 107.5 M1421.5 301.9 Q1405.95 201.3 1344.55 145.4 1289.75 95.55 1190.5 75.1 1111.8 58.85 977.15 57.25 934.65 56.7 853.8 57.4 762.25 58.2 722.2 58.05 L551.85 57.15 Q464.55 56.95 410.85 58.35 343.85 60.15 296.85 65.1 244.9 70.55 207.7 80.85 168.45 91.7 141.05 109.15 112.95 127.0 94.6 153.4 76.25 179.85 66.15 217.15 56.25 253.7 53.35 303.9 47.95 398.65 100.85 453.8 148.1 503.0 247.15 525.2 327.75 543.3 463.75 546.9 513.75 548.25 589.5 548.15 L722.2 547.75 Q752.75 547.75 857.35 548.7 940.55 549.5 989.35 548.85 1136.95 547.0 1223.05 530.25 1332.15 509.0 1381.15 458.9 1436.9 401.85 1421.5 301.9" fill="#14110b" fill-rule="evenodd" stroke="none"/>
    </g>
  </defs>
</svg>
