<?xml version="1.0" encoding="UTF-8" standalone="no"?>
<svg xmlns:xlink="http://www.w3.org/1999/xlink" height="49.0px" width="68.35px" xmlns="http://www.w3.org/2000/svg">
  <g transform="matrix(1.0, 0.0, 0.0, 1.0, 0.0, 0.0)">
    <use height="47.95" transform="matrix(1.0, 0.0, 0.0, 1.0, 0.6, 0.0)" width="45.2" xlink:href="#shape0"/>
  </g>
  <defs>
    <g id="shape0" transform="matrix(1.0, 0.0, 0.0, 1.0, -0.6, 0.0)">
      <path d="M40.35 0.55 L41.45 0.55 41.5 0.55 41.65 0.55 40.7 0.95 Q39.6 1.55 38.7 2.5 35.9 5.45 36.75 10.4 L36.6 10.45 34.85 10.75 34.7 10.75 34.15 10.85 33.4 10.9 34.05 11.15 37.05 11.8 37.1 12.1 34.05 11.85 31.8 11.55 31.0 12.65 30.1 13.7 29.15 14.6 28.95 14.8 Q29.05 15.45 29.7 16.2 L30.8 17.45 31.8 18.65 31.9 18.95 32.6 19.0 33.2 18.95 34.9 18.95 35.5 18.75 Q35.9 18.5 36.05 18.4 37.65 17.4 38.8 17.25 L39.0 17.25 39.75 18.95 40.8 22.2 40.75 22.2 40.65 22.1 39.65 22.2 38.15 22.2 36.55 22.65 33.8 22.8 33.1 22.85 31.1 22.9 32.7 23.7 Q33.65 24.25 34.05 24.85 L34.7 25.7 34.9 26.05 35.0 26.3 35.45 26.45 Q37.05 26.9 37.8 27.55 L38.2 27.2 41.35 25.05 41.55 27.05 41.15 27.15 39.85 27.5 38.7 27.85 37.9 28.1 37.45 28.3 41.55 29.2 41.45 31.35 41.45 31.45 39.85 31.3 39.45 31.3 38.95 31.4 Q39.05 31.55 39.25 31.55 L41.35 32.55 41.3 33.1 41.1 33.1 40.8 33.3 40.15 33.65 40.0 33.8 39.95 33.95 40.1 34.35 40.3 34.65 40.55 35.1 40.7 35.55 40.45 35.7 39.7 35.9 39.05 35.8 38.3 35.5 37.5 35.05 37.05 34.95 36.7 34.8 34.65 34.95 31.65 35.25 31.35 35.35 31.2 35.6 Q30.5 36.95 30.35 37.75 L30.3 38.25 26.9 38.15 26.45 37.2 26.0 36.45 25.8 36.35 25.45 36.35 23.55 36.2 23.15 36.2 22.65 36.2 22.1 35.85 21.3 35.45 21.6 35.4 22.15 35.2 22.65 34.9 22.75 34.85 22.8 34.7 22.5 34.25 22.2 33.9 21.95 33.55 Q22.8 34.15 25.4 32.45 L25.35 32.55 25.45 32.7 26.7 32.95 27.85 32.75 27.85 32.95 28.0 33.05 28.65 33.2 29.25 33.45 29.95 33.5 30.1 33.5 Q29.0 33.85 28.35 34.3 27.5 34.85 27.05 35.7 26.9 36.0 27.4 35.95 30.05 35.5 31.45 33.3 L32.9 32.85 34.05 32.2 Q34.3 32.0 33.9 32.0 L33.35 32.1 31.65 33.0 31.55 32.9 31.4 32.9 30.0 32.75 Q28.7 32.6 28.7 32.25 L28.4 32.15 28.1 32.25 Q25.9 32.95 26.45 31.7 26.5 31.5 26.15 31.55 L25.95 31.6 26.2 31.0 26.4 30.3 26.35 29.7 26.3 29.1 25.25 28.5 26.7 28.35 26.8 28.35 23.95 27.5 22.75 27.5 22.75 27.45 22.6 27.35 22.4 27.3 22.35 27.3 21.75 27.25 20.95 27.3 20.85 27.3 20.6 26.9 20.75 26.65 20.85 26.15 20.85 25.65 20.85 25.15 Q20.8 24.8 20.6 24.75 L20.45 24.75 20.35 24.65 21.1 23.95 22.3 22.95 22.35 23.95 22.35 24.95 22.75 25.05 23.65 24.7 Q24.2 24.35 24.5 24.35 L24.55 24.35 24.35 24.85 23.85 25.9 23.85 26.15 24.9 26.3 26.45 26.65 28.05 26.95 28.6 27.05 29.25 26.75 Q30.85 26.05 31.55 25.85 L32.4 25.65 32.4 25.45 32.8 25.4 33.35 25.2 33.3 25.05 33.1 25.0 32.5 25.1 32.4 25.1 32.35 24.35 30.6 23.2 30.15 22.15 29.65 22.1 29.35 22.4 29.3 22.35 28.6 22.5 28.25 22.45 27.4 22.6 Q27.0 22.7 27.1 22.9 L27.1 22.95 26.0 23.45 25.2 23.75 25.05 23.75 24.9 23.85 24.8 23.95 24.05 24.15 23.2 24.55 23.2 23.5 23.1 22.45 22.8 22.35 22.5 22.45 Q21.9 22.65 21.25 23.15 L20.2 24.1 20.15 22.8 19.95 22.7 20.4 21.8 20.95 20.9 21.25 20.35 21.5 19.8 20.25 19.85 21.35 19.5 22.1 19.3 22.2 19.3 22.65 19.15 22.95 19.15 23.3 19.1 23.25 19.7 Q23.25 19.95 23.65 19.9 L24.05 19.6 Q24.05 18.85 24.5 18.1 L24.6 19.05 Q24.75 19.3 25.2 19.35 L25.85 19.4 26.45 19.3 26.55 19.15 26.5 19.0 25.85 18.9 Q25.45 18.9 25.35 18.7 L25.25 17.9 25.3 17.1 24.95 17.0 24.55 17.15 Q23.95 17.6 23.6 18.25 L23.4 18.8 18.4 15.0 18.35 15.0 16.6 15.2 13.9 15.65 13.65 15.75 13.45 15.95 12.5 17.0 11.45 17.95 11.2 18.05 11.05 18.2 11.65 18.55 12.3 18.85 12.95 19.15 Q13.35 19.35 13.55 19.5 L13.7 19.65 13.8 19.75 14.25 19.85 14.65 19.9 14.95 19.95 17.6 20.15 16.2 20.5 14.85 20.85 10.45 21.7 10.2 21.7 9.95 21.7 9.2 21.5 Q8.9 18.35 8.15 15.65 L8.25 15.3 8.55 14.95 8.3 14.85 7.9 14.7 7.4 13.25 9.55 12.95 8.55 12.9 7.85 12.75 7.55 12.65 7.9 12.75 10.1 12.45 13.6 11.55 13.3 12.75 Q13.25 13.0 13.65 12.95 14.05 12.9 14.1 12.7 14.2 12.05 14.45 11.35 L14.9 11.05 14.5 11.05 14.9 10.15 16.05 7.8 15.85 7.65 15.55 7.7 13.9 8.4 12.25 8.5 11.75 8.5 Q11.4 8.65 11.55 8.75 L13.25 8.95 15.05 8.3 14.0 10.45 13.8 10.95 13.6 10.9 11.0 10.2 Q8.0 9.35 6.15 8.3 6.05 7.25 6.3 6.2 L7.75 5.6 8.25 5.4 6.75 4.75 7.05 4.05 8.05 3.95 9.4 3.8 11.35 3.55 11.8 3.45 11.5 3.45 8.4 3.15 7.7 3.0 Q8.65 1.55 10.25 0.8 L11.15 1.65 13.05 3.55 13.35 3.95 13.55 4.35 16.3 3.4 19.15 3.05 20.4 3.3 21.6 3.65 21.5 4.25 21.3 4.8 20.9 5.45 20.5 6.05 21.15 6.4 21.8 6.7 23.3 7.8 24.2 8.5 24.7 8.4 25.2 8.2 27.9 6.95 30.7 5.8 31.0 5.7 31.15 5.45 31.3 3.65 31.3 2.8 29.6 2.75 29.7 2.65 30.65 2.3 31.65 2.15 32.35 1.95 33.1 1.8 33.85 1.75 Q34.25 1.75 34.5 2.0 L34.8 2.55 34.7 3.15 36.2 3.2 36.9 3.25 37.65 3.3 38.05 2.8 Q39.1 1.8 41.05 0.55 L40.35 0.55 M6.75 36.75 L7.25 35.7 7.8 35.7 9.65 35.55 7.85 36.9 6.75 36.75 M8.95 35.1 L8.0 34.9 7.6 34.7 Q8.6 32.1 9.0 28.65 L9.0 28.45 10.4 28.3 10.05 28.2 9.85 28.15 9.1 27.85 9.1 27.55 12.35 27.25 12.4 27.7 12.6 28.2 12.75 28.45 12.65 28.75 12.25 28.8 11.65 28.85 11.25 29.15 11.25 29.25 11.3 29.35 11.8 29.8 12.3 30.1 12.3 30.55 11.7 31.05 11.4 31.45 Q11.3 31.7 11.5 31.9 L11.85 32.05 12.25 32.15 12.5 32.2 12.65 32.75 12.6 32.85 12.15 33.45 Q12.05 33.7 12.1 34.05 L12.25 34.6 Q12.4 34.8 12.75 34.85 L13.05 34.95 12.35 35.3 11.2 35.55 10.7 35.5 10.4 35.5 10.0 35.45 10.55 35.3 8.95 35.1 M11.5 26.95 L10.75 26.7 9.2 26.2 9.25 24.05 9.3 24.1 9.7 24.5 10.9 24.7 13.75 25.35 13.75 25.5 13.7 25.95 13.75 26.7 13.7 26.7 13.15 26.6 12.6 26.6 12.4 26.8 12.35 27.1 12.35 27.2 11.5 26.95 M20.4 11.9 L20.3 11.85 19.8 11.7 19.25 11.65 Q18.45 11.85 18.4 11.4 19.25 10.5 19.65 9.2 19.7 8.95 19.35 9.0 19.0 9.05 18.9 9.2 L17.9 10.95 17.65 11.3 16.7 12.25 17.65 12.05 17.55 12.4 17.75 12.6 18.05 12.6 19.45 12.4 Q19.85 12.6 19.55 13.85 19.5 14.15 19.9 14.1 L20.35 13.8 20.5 13.35 Q20.65 12.65 21.1 12.05 L21.15 12.05 22.45 11.9 Q22.15 12.9 22.5 13.1 L24.85 13.25 27.25 12.85 27.7 12.65 Q27.85 12.4 27.5 12.4 L24.9 12.6 23.85 12.8 Q23.05 12.8 23.15 12.2 L23.4 11.4 23.75 10.6 23.5 10.35 Q23.15 10.35 23.05 10.5 L22.3 11.35 Q21.7 11.8 21.75 11.2 21.75 10.95 21.45 10.95 L21.0 11.1 20.4 11.9 M28.45 18.4 L27.95 18.8 27.75 19.1 27.7 19.2 27.6 18.9 27.2 18.9 26.85 19.05 Q26.65 19.3 26.55 19.7 26.55 19.9 26.9 19.85 27.3 19.8 27.35 19.6 27.85 19.8 28.3 19.35 L28.6 18.95 Q28.8 18.7 29.0 18.8 L29.1 19.25 28.4 20.25 28.4 20.4 28.5 20.45 29.75 20.25 30.55 19.4 31.4 19.55 32.3 19.6 Q32.55 19.6 32.75 19.4 32.95 19.2 32.6 19.2 L31.7 19.2 30.85 18.85 30.45 18.8 Q30.2 18.85 30.1 19.0 L29.65 19.7 29.7 19.5 Q30.15 18.75 29.65 18.4 L29.05 18.25 28.45 18.4 M14.7 12.35 Q14.8 12.6 15.15 12.55 L16.2 12.15 16.6 12.25 16.65 12.0 16.85 11.7 Q17.0 11.5 16.65 11.45 L16.15 11.55 15.05 12.05 14.7 12.35 M6.2 9.1 L6.35 9.85 6.25 9.45 6.2 9.1 M15.6 25.55 L15.6 25.65 15.5 25.55 15.6 25.55 M18.75 24.8 L19.05 24.55 19.35 23.95 19.25 24.75 19.15 24.75 18.7 25.05 18.45 25.25 18.6 24.95 18.75 24.8 M30.45 30.5 L30.3 30.75 30.25 31.0 30.3 31.05 Q31.0 31.35 31.5 30.55 L31.2 30.45 31.25 30.35 31.15 30.25 30.9 30.25 Q30.5 30.35 30.45 30.5 M28.85 30.05 L28.45 30.2 Q28.25 30.3 28.2 30.55 L28.2 30.8 28.7 31.05 29.2 31.0 29.6 30.7 Q29.7 30.4 29.35 30.35 L29.25 30.1 28.85 30.05 M28.1 35.25 Q28.6 34.25 30.45 33.65 30.65 34.05 29.15 35.05 27.65 36.05 28.1 35.25" fill="url(#gradient0)" fill-rule="evenodd" stroke="none"/>
      <path d="M41.3 33.1 L41.35 32.55 39.25 31.55 Q39.05 31.55 38.95 31.4 L39.45 31.3 39.85 31.3 40.35 31.6 41.45 32.3 41.85 32.65 42.3 33.05 Q41.85 37.65 40.9 40.5 40.2 42.4 39.35 43.35 L39.3 43.45 38.5 44.1 36.4 44.35 36.1 44.3 35.4 44.1 34.95 43.9 32.75 42.45 31.9 41.5 31.6 40.75 31.45 39.1 31.55 38.5 32.05 38.3 32.1 39.45 Q32.3 40.75 33.15 41.7 34.2 42.85 35.9 43.35 L37.55 43.5 38.05 43.35 38.25 43.25 39.5 41.15 40.05 39.6 41.3 33.1 M41.45 31.35 L41.55 29.2 37.45 28.3 37.9 28.1 41.95 28.95 42.15 29.1 42.4 29.25 42.45 30.35 42.45 31.55 42.05 31.5 41.45 31.35 M41.55 27.05 L41.35 25.05 40.95 22.85 40.8 22.2 39.75 18.95 39.0 17.25 39.05 17.25 38.05 14.8 37.95 14.6 37.15 12.2 37.1 12.1 37.05 11.8 34.05 11.15 33.4 10.9 34.15 10.85 34.7 10.75 37.8 11.2 37.9 11.25 38.15 12.3 39.35 15.65 40.7 18.8 Q42.25 22.75 42.5 26.75 L41.55 27.05 M36.75 10.4 Q35.9 5.45 38.7 2.5 39.6 1.55 40.7 0.95 L41.65 0.55 42.65 0.65 Q44.25 0.9 44.95 2.15 45.75 3.5 45.8 6.7 L45.55 6.7 45.35 6.75 45.3 6.7 Q45.25 2.1 42.9 1.25 L41.4 1.3 40.95 1.55 39.75 2.55 Q38.25 4.1 37.8 6.2 37.35 7.95 37.7 10.15 L36.75 10.4" fill="#b3a383" fill-rule="evenodd" stroke="none"/>
      <path d="M45.35 6.75 L37.8 6.2 Q38.25 4.1 39.75 2.55 L40.95 1.55 41.4 1.3 42.9 1.25 Q45.25 2.1 45.3 6.7 L45.35 6.75" fill="url(#gradient1)" fill-rule="evenodd" stroke="none"/>
      <path d="M7.7 3.0 L8.4 3.15 11.5 3.45 11.35 3.55 9.4 3.8 7.75 3.55 7.65 3.25 7.7 3.0 M6.75 4.75 L8.25 5.4 7.75 5.6 6.8 5.0 6.75 4.75 M7.85 12.75 L8.55 12.9 9.55 12.95 7.4 13.25 Q7.25 13.05 7.85 12.75 M8.3 14.85 L8.55 14.95 8.25 15.3 Q8.2 15.05 8.3 14.85 M33.1 22.85 L33.8 22.8 36.55 22.65 38.15 22.2 39.65 22.2 40.75 22.2 40.8 22.2 40.95 22.85 38.25 24.0 36.9 24.65 35.4 25.15 Q35.2 25.15 34.65 24.75 L33.95 24.3 32.9 23.75 31.95 23.05 33.1 22.85 M7.25 35.7 L7.7 35.35 8.3 35.3 8.95 35.1 10.55 35.3 10.0 35.45 9.65 35.5 9.65 35.55 7.8 35.7 7.25 35.7 M9.0 28.65 L9.05 28.35 9.4 28.2 9.85 28.15 10.05 28.2 10.4 28.3 9.0 28.45 9.0 28.65 M9.1 27.55 L9.7 27.15 10.9 27.05 11.5 26.95 12.35 27.2 12.35 27.25 9.1 27.55 M14.85 23.75 L14.8 23.7 14.45 23.15 14.2 22.6 14.4 22.6 14.9 22.4 14.85 23.75 M14.1 22.45 L14.05 22.0 14.55 21.6 15.05 21.4 17.25 20.4 20.25 20.45 19.4 21.5 18.4 22.4 17.45 23.4 17.35 22.9 17.05 22.85 16.7 23.0 15.65 23.85 15.8 22.8 15.6 21.75 15.35 21.65 15.05 21.75 Q14.45 21.95 14.1 22.45 M16.7 23.8 L16.55 23.85 16.35 24.05 16.2 24.05 16.6 23.55 16.7 23.8 M14.7 37.1 L14.85 36.8 14.85 37.1 14.7 37.1 M21.05 37.9 L21.2 35.95 21.75 36.2 22.45 36.55 22.9 36.8 23.4 37.0 23.4 38.0 21.05 37.9" fill="#c9be9b" fill-rule="evenodd" stroke="none"/>
      <path d="M41.35 25.05 L38.2 27.2 37.8 27.55 Q37.05 26.9 35.45 26.45 L35.0 26.3 34.9 26.05 34.7 25.7 34.05 24.85 Q33.65 24.25 32.7 23.7 L31.1 22.9 33.1 22.85 31.95 23.05 32.9 23.75 33.95 24.3 34.65 24.75 Q35.2 25.15 35.4 25.15 L36.9 24.65 38.25 24.0 40.95 22.85 41.35 25.05 M39.65 22.2 L40.65 22.1 40.75 22.2 39.65 22.2" fill="#d9cfb0" fill-rule="evenodd" stroke="none"/>
      <path d="M21.3 35.45 L22.1 35.85 22.65 36.2 23.15 36.2 23.55 36.2 25.45 36.35 25.8 36.35 26.0 36.45 26.45 37.2 26.9 38.15 25.15 38.1 23.4 38.0 23.4 37.0 22.9 36.8 22.45 36.55 21.75 36.2 21.2 35.95 21.2 35.45 21.3 35.45 M30.3 38.25 L30.35 37.75 Q30.5 36.95 31.2 35.6 L31.35 35.35 31.65 35.25 34.65 34.95 36.7 34.8 37.05 34.95 37.5 35.05 38.3 35.5 39.05 35.8 39.7 35.9 40.45 35.7 40.7 35.55 40.55 35.1 40.3 34.65 40.1 34.35 39.95 33.95 40.0 33.8 40.15 33.65 40.8 33.3 41.1 33.1 41.3 33.1 40.05 39.6 39.5 41.15 38.25 43.25 38.05 43.35 37.55 43.5 35.9 43.35 Q34.2 42.85 33.15 41.7 32.3 40.75 32.1 39.45 L32.05 38.3 30.3 38.25 M13.7 34.85 L13.8 35.0 13.8 35.15 13.7 35.55 13.75 36.15 13.75 36.65 13.85 36.7 14.0 36.75 14.1 36.8 14.25 36.8 14.85 36.75 14.85 36.8 14.7 37.1 12.85 36.9 Q12.1 36.75 11.6 36.9 L10.95 37.2 10.9 37.25 7.85 36.9 9.65 35.55 9.65 35.5 10.0 35.45 10.4 35.5 10.7 35.5 11.2 35.55 12.35 35.3 13.05 34.95 13.15 34.95 13.7 34.85 M31.4 38.6 L31.55 38.5 31.45 39.1 31.6 40.75 31.9 41.5 Q31.45 40.75 31.35 39.85 L31.4 38.6" fill="#d4c8a3" fill-rule="evenodd" stroke="none"/>
      <path d="M40.35 0.55 L41.05 0.55 Q39.1 1.8 38.05 2.8 L37.65 3.3 36.9 3.25 36.2 3.2 34.7 3.15 34.8 2.55 34.5 2.0 Q34.25 1.75 33.85 1.75 L33.1 1.8 32.35 1.95 31.65 2.15 30.65 2.3 29.7 2.65 29.6 2.75 25.25 2.55 Q23.8 3.25 21.7 3.4 L21.6 3.65 20.4 3.3 19.15 3.05 16.3 3.4 13.55 4.35 13.35 3.95 13.05 3.55 11.15 1.65 10.25 0.8 10.8 0.6 11.3 0.4 11.35 0.4 11.45 0.4 12.65 0.15 13.05 0.1 13.4 0.05 13.85 0.05 13.15 0.15 13.5 0.3 14.25 0.9 15.2 1.65 16.3 1.85 17.55 1.95 19.4 1.85 21.15 1.7 22.9 1.55 24.75 1.4 26.8 1.6 27.6 1.75 28.75 1.85 31.0 1.45 33.0 1.3 35.55 1.1 40.2 0.55 40.3 0.55 40.35 0.55 M39.6 0.55 L29.3 0.85 20.35 0.4 16.15 0.05 24.6 0.6 Q30.45 0.95 33.0 0.8 L35.55 0.65 39.05 0.55 39.3 0.55 39.6 0.55" fill="#f5ecd3" fill-rule="evenodd" stroke="none"/>
      <path d="M40.35 0.55 L40.3 0.55 40.2 0.55 35.55 1.1 33.0 1.3 31.0 1.45 28.75 1.85 27.6 1.75 26.8 1.6 24.75 1.4 22.9 1.55 21.15 1.7 19.4 1.85 17.55 1.95 16.3 1.85 15.2 1.65 14.25 0.9 13.5 0.3 13.15 0.15 13.85 0.05 14.05 0.05 15.75 0.0 16.1 0.05 16.15 0.05 20.35 0.4 29.3 0.85 39.6 0.55 39.8 0.55 40.45 0.5 40.35 0.55" fill="#fff6db" fill-rule="evenodd" stroke="none"/>
      <path d="M29.6 2.75 L31.3 2.8 31.3 3.65 31.15 5.45 31.0 5.7 30.7 5.8 27.9 6.95 25.2 8.2 24.7 8.4 24.2 8.5 23.3 7.8 21.8 6.7 21.15 6.4 20.5 6.05 20.9 5.45 21.3 4.8 21.5 4.25 21.6 3.65 21.7 3.4 Q23.8 3.25 25.25 2.55 L29.6 2.75" fill="#ede7ce" fill-rule="evenodd" stroke="none"/>
      <path d="M17.6 20.15 L14.95 19.95 15.4 19.85 Q16.2 19.55 17.0 18.45 L17.55 18.45 17.65 19.15 17.85 19.3 18.15 19.3 19.15 19.1 20.05 18.85 21.1 19.15 22.1 19.3 21.35 19.5 20.25 19.85 19.4 20.1 19.1 20.2 17.6 20.15 M14.65 19.9 L14.25 19.85 13.8 19.75 13.7 19.65 13.55 19.5 Q13.35 19.35 12.95 19.15 L12.3 18.85 11.65 18.55 11.05 18.2 11.2 18.05 11.45 17.95 12.5 17.0 13.45 15.95 13.65 15.75 13.9 15.65 16.6 15.2 18.35 15.0 18.4 15.0 23.4 18.8 23.3 19.1 22.95 19.15 22.65 19.15 22.7 19.1 Q23.0 18.9 22.65 18.8 L21.5 18.65 20.45 18.3 20.1 18.25 Q19.95 18.25 19.8 18.4 L19.2 18.6 18.45 18.7 18.3 17.75 Q18.25 17.55 17.95 17.6 L17.55 17.75 17.35 17.8 17.7 16.9 Q17.75 16.65 17.4 16.65 L16.95 16.8 Q16.4 17.35 16.55 17.95 L15.7 19.1 Q14.45 20.3 14.9 17.6 15.15 16.95 15.7 16.55 16.35 16.0 16.95 16.25 L17.45 16.1 Q17.75 15.9 17.4 15.75 16.2 15.3 14.75 16.55 13.25 17.85 13.9 19.15 14.2 19.75 14.65 19.9 M39.0 17.25 L38.8 17.25 Q37.65 17.4 36.05 18.4 35.9 18.5 35.5 18.75 L34.9 18.95 33.2 18.95 32.6 19.0 31.9 18.95 31.8 18.65 30.8 17.45 29.7 16.2 Q29.05 15.45 28.95 14.8 L29.15 14.6 30.1 13.7 31.0 12.65 31.8 11.55 34.05 11.85 37.1 12.1 37.15 12.2 37.95 14.6 38.05 14.8 39.05 17.25 39.0 17.25" fill="#f0e7cc" fill-rule="evenodd" stroke="none"/>
      <path d="M13.8 10.95 L14.0 10.45 15.05 8.3 13.25 8.95 11.55 8.75 Q11.4 8.65 11.75 8.5 L12.25 8.5 13.9 8.4 15.55 7.7 15.85 7.65 16.05 7.8 14.9 10.15 14.5 11.05 14.45 11.35 Q14.2 12.05 14.1 12.7 14.05 12.9 13.65 12.95 13.25 13.0 13.3 12.75 L13.6 11.55 13.8 10.95 M14.95 19.95 L14.65 19.9 Q14.2 19.75 13.9 19.15 13.25 17.85 14.75 16.55 16.2 15.3 17.4 15.75 17.75 15.9 17.45 16.1 L16.95 16.25 Q16.35 16.0 15.7 16.55 15.15 16.95 14.9 17.6 14.45 20.3 15.7 19.1 L16.55 17.95 Q16.4 17.35 16.95 16.8 L17.4 16.65 Q17.75 16.65 17.7 16.9 L17.35 17.8 17.55 17.75 17.95 17.6 Q18.25 17.55 18.3 17.75 L18.45 18.7 19.2 18.6 19.8 18.4 Q19.95 18.25 20.1 18.25 L20.45 18.3 21.5 18.65 22.65 18.8 Q23.0 18.9 22.7 19.1 L22.65 19.15 22.2 19.3 22.1 19.3 21.1 19.15 20.05 18.85 19.15 19.1 18.15 19.3 17.85 19.3 17.65 19.15 17.55 18.45 17.0 18.45 Q16.2 19.55 15.4 19.85 L14.95 19.95 M23.4 18.8 L23.6 18.25 Q23.95 17.6 24.55 17.15 L24.95 17.0 25.3 17.1 25.25 17.9 25.35 18.7 Q25.45 18.9 25.85 18.9 L26.5 19.0 26.55 19.15 26.45 19.3 25.85 19.4 25.2 19.35 Q24.75 19.3 24.6 19.05 L24.5 18.1 Q24.05 18.85 24.05 19.6 L23.65 19.9 Q23.25 19.95 23.25 19.7 L23.3 19.1 23.4 18.8 M19.95 22.7 L20.15 22.8 20.2 24.1 21.25 23.15 Q21.9 22.65 22.5 22.45 L22.8 22.35 23.1 22.45 23.2 23.5 23.2 24.55 24.05 24.15 24.8 23.95 25.0 23.95 Q25.3 23.95 25.0 24.2 L24.55 24.35 24.5 24.35 Q24.2 24.35 23.65 24.7 L22.75 25.05 22.35 24.95 22.35 23.95 22.3 22.95 21.1 23.95 20.35 24.65 20.15 24.65 19.9 24.7 19.25 24.75 19.35 23.95 19.05 24.55 18.75 24.8 18.55 24.8 Q18.15 24.85 18.2 24.7 L18.4 24.3 18.1 24.4 17.6 24.45 17.5 24.3 17.2 23.95 16.95 23.85 16.7 23.8 16.6 23.55 16.2 24.05 16.0 24.25 15.35 24.95 14.9 25.15 14.8 25.1 14.55 25.05 14.85 23.75 14.9 22.4 14.4 22.6 14.2 22.6 14.1 22.55 14.1 22.45 Q14.45 21.95 15.05 21.75 L15.35 21.65 15.6 21.75 15.8 22.8 15.65 23.85 16.7 23.0 17.05 22.85 17.35 22.9 17.45 23.4 17.6 23.75 Q17.8 24.15 18.3 24.05 L18.5 24.05 19.35 22.95 Q19.45 22.8 19.8 22.7 L19.95 22.7 M27.1 22.95 L27.1 22.9 Q27.0 22.7 27.4 22.6 L28.25 22.45 28.6 22.5 28.65 22.55 Q28.85 24.05 27.45 25.9 28.8 26.05 29.5 24.9 30.2 23.7 29.4 22.45 L29.35 22.4 29.65 22.1 30.15 22.15 30.6 23.2 Q30.9 24.4 29.85 25.4 28.5 26.8 26.65 26.35 L26.5 26.2 26.55 26.0 27.45 24.6 27.8 22.95 27.5 23.0 27.1 22.95 M32.4 25.1 L32.5 25.1 33.1 25.0 33.3 25.05 33.35 25.2 32.8 25.4 32.4 25.45 32.0 25.55 31.2 25.65 Q30.45 25.55 30.75 24.45 30.8 24.3 31.2 24.25 31.6 24.15 31.55 24.35 31.3 25.3 31.85 25.2 L32.4 25.1 M25.95 31.6 L26.15 31.55 Q26.5 31.5 26.45 31.7 25.9 32.95 28.1 32.25 L28.4 32.15 28.7 32.25 Q28.7 32.6 30.0 32.75 L31.4 32.9 31.55 32.9 31.65 33.0 33.35 32.1 33.9 32.0 Q34.3 32.0 34.05 32.2 L32.9 32.85 31.45 33.3 Q30.05 35.5 27.4 35.95 26.9 36.0 27.05 35.7 27.5 34.85 28.35 34.3 29.0 33.85 30.1 33.5 L29.95 33.5 29.25 33.45 28.65 33.2 28.0 33.05 27.85 32.95 27.85 32.75 26.7 32.95 25.45 32.7 25.35 32.55 25.4 32.45 Q22.8 34.15 21.95 33.55 L21.9 33.5 21.75 33.05 21.6 32.5 21.6 32.45 21.9 32.3 22.55 31.75 22.5 32.0 Q22.35 33.35 23.75 32.8 L25.75 31.7 25.95 31.6 M28.45 18.4 L29.05 18.25 29.65 18.4 Q30.15 18.75 29.7 19.5 L29.65 19.7 30.1 19.0 Q30.2 18.85 30.45 18.8 L30.85 18.85 31.7 19.2 32.6 19.2 Q32.95 19.2 32.75 19.4 32.55 19.6 32.3 19.6 L31.4 19.55 30.55 19.4 29.75 20.25 28.5 20.45 28.4 20.4 28.4 20.25 29.1 19.25 29.0 18.8 Q28.8 18.7 28.6 18.95 L28.3 19.35 Q27.85 19.8 27.35 19.6 27.3 19.8 26.9 19.85 26.55 19.9 26.55 19.7 26.65 19.3 26.85 19.05 L27.2 18.9 27.6 18.9 27.7 19.2 27.75 19.1 27.95 18.8 28.45 18.4 M20.4 11.9 L21.0 11.1 21.45 10.95 Q21.75 10.95 21.75 11.2 21.7 11.8 22.3 11.35 L23.05 10.5 Q23.15 10.35 23.5 10.35 L23.75 10.6 23.4 11.4 23.15 12.2 Q23.05 12.8 23.85 12.8 L24.9 12.6 27.5 12.4 Q27.85 12.4 27.7 12.65 L27.25 12.85 24.85 13.25 22.5 13.1 Q22.15 12.9 22.45 11.9 L21.15 12.05 21.1 12.05 Q20.65 12.65 20.5 13.35 L20.35 13.8 19.9 14.1 Q19.5 14.15 19.55 13.85 19.85 12.6 19.45 12.4 L18.05 12.6 17.75 12.6 17.55 12.4 17.65 12.05 16.7 12.25 17.65 11.3 17.9 10.95 18.9 9.2 Q19.0 9.05 19.35 9.0 19.7 8.95 19.65 9.2 19.25 10.5 18.4 11.4 18.45 11.85 19.25 11.65 L19.8 11.7 20.3 11.85 20.4 11.9 M26.45 24.6 L25.85 24.65 25.65 24.75 25.1 24.8 Q24.75 24.65 25.05 24.35 25.35 24.1 25.75 24.0 L26.45 24.15 Q26.75 24.35 26.45 24.6 M14.7 12.35 L15.05 12.05 16.15 11.55 16.65 11.45 Q17.0 11.5 16.85 11.7 L16.65 12.0 16.6 12.25 16.2 12.15 15.15 12.55 Q14.8 12.6 14.7 12.35 M30.45 30.5 Q30.5 30.35 30.9 30.25 L31.15 30.25 31.25 30.35 31.2 30.45 31.5 30.55 Q31.0 31.35 30.3 31.05 L30.25 31.0 30.3 30.75 30.45 30.5 M22.65 30.55 L22.85 30.4 Q23.9 29.5 25.35 29.0 L25.85 29.0 Q26.05 29.1 25.65 29.25 24.6 29.65 23.75 30.25 L22.85 31.15 22.85 31.1 22.65 30.55 M28.85 30.05 L29.25 30.1 29.35 30.35 Q29.7 30.4 29.6 30.7 L29.2 31.0 28.7 31.05 28.2 30.8 28.2 30.55 Q28.25 30.3 28.45 30.2 L28.85 30.05 M28.1 35.25 Q27.65 36.05 29.15 35.05 30.65 34.05 30.45 33.65 28.6 34.25 28.1 35.25" fill="#9d957e" fill-rule="evenodd" stroke="none"/>
      <path d="M9.2 21.5 L9.95 21.7 10.2 21.7 10.45 21.7 14.85 20.85 16.2 20.5 17.6 20.15 19.1 20.2 19.4 20.1 20.25 19.85 21.5 19.8 21.25 20.35 20.95 20.9 20.4 21.8 19.95 22.7 19.8 22.7 Q19.45 22.8 19.35 22.95 L18.5 24.05 18.3 24.05 Q17.8 24.15 17.6 23.75 L17.45 23.4 18.4 22.4 19.4 21.5 20.25 20.45 17.25 20.4 15.05 21.4 14.55 21.6 14.05 22.0 14.1 22.45 14.1 22.55 14.2 22.6 14.45 23.15 14.8 23.7 14.85 23.75 14.55 25.05 14.5 25.05 14.15 24.95 Q13.95 24.95 13.85 25.1 L13.75 25.35 10.9 24.7 9.7 24.5 9.3 24.1 9.25 24.05 9.25 23.85 9.2 22.2 9.2 21.75 9.2 21.65 9.15 21.5 9.2 21.5 M16.35 24.05 L15.95 24.5 15.65 25.3 15.6 25.55 15.5 25.55 15.2 25.25 14.9 25.15 15.35 24.95 16.0 24.25 16.2 24.05 16.35 24.05 M17.6 24.45 L18.1 24.4 18.4 24.3 18.2 24.7 Q18.15 24.85 18.55 24.8 L18.75 24.8 18.6 24.95 18.45 25.25 18.3 25.4 18.05 25.35 17.6 24.45" fill="#e0d6b6" fill-rule="evenodd" stroke="none"/>
      <path d="M24.8 23.95 L24.9 23.85 25.05 23.75 25.2 23.75 26.0 23.45 27.1 22.95 27.5 23.0 27.8 22.95 27.45 24.6 26.55 26.0 26.5 26.2 26.65 26.35 Q28.5 26.8 29.85 25.4 30.9 24.4 30.6 23.2 L32.35 24.35 32.4 25.1 31.85 25.2 Q31.3 25.3 31.55 24.35 31.6 24.15 31.2 24.25 30.8 24.3 30.75 24.45 30.45 25.55 31.2 25.65 L32.0 25.55 32.4 25.45 32.4 25.65 31.55 25.85 Q30.85 26.05 29.25 26.75 L28.6 27.05 28.05 26.95 26.45 26.65 24.9 26.3 23.85 26.15 23.85 25.9 24.35 24.85 24.55 24.35 25.0 24.2 Q25.3 23.95 25.0 23.95 L24.8 23.95 M28.6 22.5 L29.3 22.35 29.35 22.4 29.4 22.45 Q30.2 23.7 29.5 24.9 28.8 26.05 27.45 25.9 28.85 24.05 28.65 22.55 L28.6 22.5 M26.45 24.6 Q26.75 24.35 26.45 24.15 L25.75 24.0 Q25.35 24.1 25.05 24.35 24.75 24.65 25.1 24.8 L25.65 24.75 25.85 24.65 26.45 24.6" fill="#ede4ca" fill-rule="evenodd" stroke="none"/>
      <path d="M6.15 8.3 Q8.0 9.35 11.0 10.2 L13.6 10.9 13.8 10.95 13.6 11.55 10.1 12.45 7.9 12.75 7.55 12.65 7.15 12.55 6.45 10.4 6.35 9.85 6.2 9.1 6.1 8.3 6.15 8.3 M14.5 11.05 L14.9 11.05 14.45 11.35 14.5 11.05" fill="#dbd5b8" fill-rule="evenodd" stroke="none"/>
      <path d="M20.35 24.65 L20.45 24.75 20.6 25.05 20.6 25.6 20.6 26.1 20.5 26.55 20.4 26.85 19.6 26.0 Q19.0 25.55 18.3 25.4 L18.45 25.25 18.7 25.05 19.15 24.75 19.25 24.75 19.9 24.7 20.15 24.65 20.35 24.65 M20.85 27.3 L20.95 27.3 21.75 27.25 22.35 27.3 22.4 27.3 22.5 27.4 22.5 27.55 Q22.5 28.35 21.85 28.9 L21.45 29.3 21.1 28.15 20.7 27.25 20.85 27.3 M13.75 25.35 L13.85 25.1 Q13.95 24.95 14.15 24.95 L14.5 25.05 14.55 25.05 14.8 25.1 14.95 25.2 15.45 25.7 Q14.0 26.3 13.1 27.8 L12.75 28.45 12.6 28.2 12.4 27.7 12.35 27.25 12.35 27.2 12.35 27.1 12.4 26.8 12.6 26.6 13.15 26.6 13.7 26.7 13.75 26.7 13.7 25.95 13.75 25.5 13.75 25.35 M15.6 25.55 L15.65 25.3 15.95 24.5 16.35 24.05 16.55 23.85 16.7 23.8 16.95 23.85 17.25 24.2 17.7 24.95 17.8 25.3 17.3 25.3 15.6 25.65 15.6 25.55 M12.65 28.75 L12.3 30.1 11.8 29.8 11.3 29.35 11.25 29.25 11.25 29.15 11.65 28.85 12.25 28.8 12.65 28.75 M12.3 30.55 L12.5 32.2 12.05 32.05 11.85 32.05 11.5 31.9 Q11.3 31.7 11.4 31.45 L11.7 31.05 12.3 30.55 M12.65 32.75 L12.85 33.25 13.65 34.8 13.0 34.85 12.75 34.85 Q12.4 34.8 12.25 34.6 L12.1 34.05 Q12.05 33.7 12.15 33.45 L12.6 32.85 12.65 32.75 M13.8 35.0 L15.3 36.25 15.05 36.5 14.0 36.75 13.85 36.7 13.75 36.65 13.75 36.15 13.7 35.55 13.8 35.15 13.8 35.0 M15.75 36.45 L16.8 36.7 18.1 36.65 18.0 36.85 17.85 37.2 17.75 37.35 17.5 37.3 16.05 37.2 15.9 36.85 15.75 36.45 M18.2 36.65 L19.0 36.35 20.15 35.45 20.15 35.95 20.1 36.75 20.05 37.1 19.95 37.5 19.15 37.5 19.0 37.5 18.3 36.8 18.2 36.65 M20.3 35.25 L20.6 34.65 21.4 32.5 21.5 32.95 21.7 33.5 21.95 33.85 22.25 34.15 22.6 34.65 22.5 34.75 22.4 34.85 21.9 35.15 21.35 35.35 20.55 35.3 20.5 35.3 20.3 35.25 M21.45 32.35 Q21.7 31.05 21.55 29.8 L22.15 30.25 Q22.65 30.55 22.6 31.05 L22.3 31.65 21.65 32.2 Q21.5 32.3 21.45 32.35" fill="url(#gradient2)" fill-rule="evenodd" stroke="none"/>
      <path d="M20.45 24.75 L20.6 24.75 Q20.8 24.8 20.85 25.15 L20.85 25.65 20.85 26.15 20.75 26.65 20.6 26.9 20.85 27.3 20.7 27.25 20.4 26.85 20.5 26.55 20.6 26.1 20.6 25.6 20.6 25.05 20.45 24.75 M22.4 27.3 L22.6 27.35 22.75 27.45 22.75 27.5 22.75 27.65 22.55 28.35 22.15 28.9 22.05 28.95 21.65 29.4 21.75 29.85 22.4 30.3 22.65 30.55 22.85 31.1 22.85 31.15 22.55 31.75 21.9 32.3 21.6 32.45 21.6 32.5 21.75 33.05 21.9 33.5 21.95 33.55 22.2 33.9 22.5 34.25 22.8 34.7 22.75 34.85 22.65 34.9 22.15 35.2 21.6 35.4 21.3 35.45 21.2 35.45 20.55 35.3 21.35 35.35 21.9 35.15 22.4 34.85 22.5 34.75 22.6 34.65 22.25 34.15 21.95 33.85 21.7 33.5 21.5 32.95 21.4 32.5 21.45 32.35 Q21.5 32.3 21.65 32.2 L22.3 31.65 22.6 31.05 Q22.65 30.55 22.15 30.25 L21.55 29.8 21.45 29.3 21.85 28.9 Q22.5 28.35 22.5 27.55 L22.5 27.4 22.4 27.3 M17.8 25.3 L17.7 24.95 17.25 24.2 16.95 23.85 17.2 23.95 17.5 24.3 17.6 24.45 18.05 25.35 17.8 25.3 M14.9 25.15 L15.2 25.25 15.5 25.55 15.6 25.65 15.45 25.7 14.95 25.2 14.8 25.1 14.9 25.15 M13.65 34.8 L13.7 34.85 13.15 34.95 13.05 34.95 12.75 34.85 13.0 34.85 13.65 34.8 M15.3 36.25 L15.55 36.35 15.3 36.55 14.85 36.75 14.25 36.8 14.1 36.8 14.0 36.75 15.05 36.5 15.3 36.25 M18.1 36.65 L18.2 36.65 18.3 36.8 18.1 37.3 18.0 37.4 17.85 37.35 17.75 37.35 17.85 37.2 18.0 36.85 18.1 36.65 M20.15 35.45 L20.3 35.25 20.5 35.3 20.4 35.45 20.4 36.15 20.35 36.8 20.2 37.55 19.25 37.55 19.15 37.5 19.95 37.5 20.05 37.1 20.1 36.75 20.15 35.95 20.15 35.45 M11.85 32.05 L12.05 32.05 12.5 32.2 12.25 32.15 11.85 32.05" fill="#4b571b" fill-rule="evenodd" stroke="none"/>
      <path d="M15.6 25.65 L17.3 25.3 17.8 25.3 18.05 25.35 18.3 25.4 Q19.0 25.55 19.6 26.0 L20.4 26.85 20.7 27.25 21.1 28.15 21.45 29.3 21.55 29.8 Q21.7 31.05 21.45 32.35 L21.4 32.5 20.6 34.65 20.3 35.25 20.15 35.45 19.0 36.35 18.2 36.65 18.1 36.65 16.8 36.7 15.75 36.45 15.55 36.35 15.3 36.25 13.8 35.0 13.7 34.85 13.65 34.8 12.85 33.25 12.65 32.75 12.5 32.2 12.3 30.55 12.3 30.1 12.65 28.75 12.75 28.45 13.1 27.8 Q14.0 26.3 15.45 25.7 L15.6 25.65 M17.9 25.8 L17.1 25.7 Q14.55 25.85 13.3 28.05 11.95 30.3 13.05 33.15 14.15 35.95 16.65 36.35 L18.65 36.0 Q19.65 35.5 20.1 34.4 21.6 31.2 20.55 28.35 20.05 27.1 19.15 26.4 18.6 25.95 17.9 25.8" fill="url(#gradient3)" fill-rule="evenodd" stroke="none"/>
      <path d="M17.9 25.8 Q18.6 25.95 19.15 26.4 20.05 27.1 20.55 28.35 21.6 31.2 20.1 34.4 19.65 35.5 18.65 36.0 L16.65 36.35 Q14.15 35.95 13.05 33.15 11.95 30.3 13.3 28.05 14.55 25.85 17.1 25.7 L17.9 25.8 M17.0 26.05 Q14.7 26.15 13.55 28.2 12.35 30.3 13.35 33.0 14.35 35.65 16.6 36.0 L18.45 35.7 Q19.3 35.2 19.75 34.2 21.1 31.2 20.15 28.5 19.2 25.9 17.0 26.05" fill="url(#gradient4)" fill-rule="evenodd" stroke="none"/>
      <path d="M17.1 29.4 Q16.85 29.4 16.85 29.65 16.8 29.9 17.1 29.9 L17.5 29.95 17.4 31.8 Q17.4 32.1 17.65 32.1 L17.95 31.8 18.05 29.95 18.45 29.95 18.7 29.75 18.65 29.55 18.5 29.5 17.1 29.4 M16.75 29.65 L16.5 29.4 15.15 29.35 Q14.9 29.35 14.9 29.6 L15.1 29.85 15.5 29.85 15.45 31.7 Q15.4 32.0 15.7 32.0 15.95 32.05 16.0 31.75 L16.05 29.9 16.5 29.9 16.75 29.65 M19.25 29.0 L19.5 28.55 19.45 28.4 19.25 28.3 14.6 28.15 14.4 28.2 14.3 28.4 14.55 28.8 Q14.65 29.05 14.9 29.05 L18.85 29.2 Q19.1 29.2 19.25 29.0 M17.0 26.05 Q19.2 25.9 20.15 28.5 21.1 31.2 19.75 34.2 19.3 35.2 18.45 35.7 L16.6 36.0 Q14.35 35.65 13.35 33.0 12.35 30.3 13.55 28.2 14.7 26.15 17.0 26.05 M14.35 32.5 L14.1 32.95 14.15 33.1 14.35 33.2 19.0 33.4 19.2 33.35 19.3 33.2 19.05 32.75 18.7 32.5 14.7 32.35 Q14.5 32.3 14.35 32.5" fill="url(#gradient5)" fill-rule="evenodd" stroke="none"/>
      <path d="M16.75 29.65 L16.5 29.9 16.05 29.9 16.0 31.75 Q15.95 32.05 15.7 32.0 15.4 32.0 15.45 31.7 L15.5 29.85 15.1 29.85 14.9 29.6 Q14.9 29.35 15.15 29.35 L16.5 29.4 16.75 29.65 M17.1 29.4 L18.5 29.5 18.65 29.55 18.7 29.75 18.45 29.95 18.05 29.95 17.95 31.8 17.65 32.1 Q17.4 32.1 17.4 31.8 L17.5 29.95 17.1 29.9 Q16.8 29.9 16.85 29.65 16.85 29.4 17.1 29.4 M19.25 29.0 Q19.1 29.2 18.85 29.2 L14.9 29.05 Q14.65 29.05 14.55 28.8 L14.3 28.4 14.4 28.2 14.6 28.15 19.25 28.3 19.45 28.4 19.5 28.55 19.25 29.0 M14.35 32.5 Q14.5 32.3 14.7 32.35 L18.7 32.5 19.05 32.75 19.3 33.2 19.2 33.35 19.0 33.4 14.35 33.2 14.15 33.1 14.1 32.95 14.35 32.5" fill="#606e23" fill-rule="evenodd" stroke="none"/>
      <path d="M15.55 36.35 L15.75 36.45 15.9 36.85 16.05 37.2 14.85 37.1 14.85 36.8 14.85 36.75 15.3 36.55 15.55 36.35 M19.15 37.5 L19.25 37.55 20.2 37.55 20.35 36.8 20.4 36.15 20.4 35.45 20.5 35.3 20.55 35.3 21.2 35.45 21.2 35.95 21.05 37.9 18.5 37.75 18.65 37.7 18.65 37.65 18.55 37.6 18.55 37.55 18.35 37.45 18.15 37.4 18.0 37.4 18.1 37.3 18.3 36.8 19.0 37.5 19.15 37.5" fill="url(#gradient6)" fill-rule="evenodd" stroke="none"/>
      <path d="M14.85 37.1 L16.05 37.2 17.5 37.3 17.75 37.35 17.85 37.35 Q17.55 37.5 17.45 37.8 L16.8 37.7 14.95 37.65 14.0 37.7 14.0 37.55 14.0 37.5 Q13.9 37.35 13.65 37.35 L12.45 37.25 11.9 37.35 Q11.55 37.4 11.35 37.6 L11.25 37.7 10.55 39.55 10.3 40.6 10.2 40.45 Q10.1 39.25 10.4 38.25 L10.7 37.55 10.9 37.25 10.95 37.2 11.6 36.9 Q12.1 36.75 12.85 36.9 L14.7 37.1 14.85 37.1 M18.2 37.9 L18.45 37.8 18.35 37.85 18.2 37.9" fill="#dfe866" fill-rule="evenodd" stroke="none"/>
      <path d="M36.4 44.35 L36.6 44.4 27.9 43.8 19.15 42.95 18.7 42.5 Q18.2 41.85 18.05 40.7 17.95 39.55 18.15 38.5 L18.25 38.15 20.6 38.3 23.35 38.4 27.1 38.55 30.3 38.6 31.35 38.6 31.4 38.6 31.35 39.85 Q31.45 40.75 31.9 41.5 L32.75 42.45 34.95 43.9 35.4 44.1 36.1 44.3 36.4 44.35 M10.4 42.05 L4.2 41.45 Q3.9 41.4 3.45 41.15 L1.6 39.65 Q0.75 38.65 0.6 37.2 L0.65 35.95 0.9 36.1 6.6 37.05 6.65 37.05 7.35 37.15 7.5 37.2 10.7 37.55 10.4 38.25 Q10.1 39.25 10.2 40.45 L10.25 40.85 10.4 42.05" fill="url(#gradient7)" fill-rule="evenodd" stroke="none"/>
      <path d="M26.9 38.15 L30.3 38.25 32.05 38.3 31.55 38.5 31.4 38.6 31.35 38.6 30.3 38.6 27.1 38.55 23.35 38.4 20.6 38.3 18.25 38.15 18.35 37.85 18.45 37.8 18.5 37.75 21.05 37.9 23.4 38.0 25.15 38.1 26.9 38.15 M0.65 35.95 L1.15 35.75 3.9 36.3 6.75 36.75 7.85 36.9 10.9 37.25 10.7 37.55 7.5 37.2 7.35 37.15 6.65 37.05 6.6 37.05 0.9 36.1 0.65 35.95" fill="#fff8e0" fill-rule="evenodd" stroke="none"/>
      <path d="M17.2 42.75 L17.3 44.9 17.3 45.0 17.35 45.9 17.35 46.6 17.4 47.95 17.2 47.9 16.85 47.85 16.85 46.65 16.75 45.0 16.7 44.5 16.7 42.8 16.85 40.95 16.95 40.4 17.3 38.45 17.3 38.2 17.45 37.8 Q17.55 37.5 17.85 37.35 L18.0 37.4 18.15 37.4 18.35 37.45 18.55 37.55 18.55 37.6 18.65 37.65 18.65 37.7 18.5 37.75 18.45 37.8 18.2 37.9 18.05 37.95 17.9 38.15 17.8 38.45 17.65 39.0 17.55 39.5 17.5 39.9 17.45 40.2 17.45 40.3 17.4 40.35 17.4 40.5 17.2 42.2 17.2 42.6 17.2 42.75 M13.75 46.6 L12.65 46.65 11.15 46.85 10.3 47.0 10.35 46.85 12.5 46.3 13.5 46.2 13.75 46.6" fill="#697529" fill-rule="evenodd" stroke="none"/>
      <path d="M19.15 42.95 L17.45 42.8 17.2 42.75 17.2 42.6 17.2 42.2 17.4 40.5 17.4 40.35 17.45 40.3 17.45 40.2 17.5 39.9 17.55 39.5 17.65 39.0 17.8 38.45 17.9 38.15 18.05 37.95 18.2 37.9 18.35 37.85 18.25 38.15 18.15 38.5 Q17.95 39.55 18.05 40.7 18.2 41.85 18.7 42.5 L19.15 42.95" fill="url(#gradient8)" fill-rule="evenodd" stroke="none"/>
      <path d="M10.3 40.6 L10.55 39.55 11.25 37.7 11.35 37.6 Q11.55 37.4 11.9 37.35 L12.45 37.25 13.65 37.35 Q13.9 37.35 14.0 37.5 L14.0 37.55 14.0 37.7 14.95 37.65 16.8 37.7 17.45 37.8 17.3 38.2 17.3 38.45 14.5 38.45 13.25 38.5 13.0 38.6 Q12.9 38.8 13.35 38.95 L15.2 39.8 16.95 40.4 16.85 40.95 16.7 42.8 16.3 42.9 15.4 43.05 15.2 43.05 15.15 43.2 14.5 43.9 14.1 44.0 13.65 44.0 13.0 43.95 12.4 43.65 Q12.0 43.3 11.9 42.4 L11.9 42.25 11.9 42.05 11.75 41.8 11.25 41.5 10.75 41.15 10.3 40.6" fill="url(#gradient9)" fill-rule="evenodd" stroke="none"/>
      <path d="M10.65 45.45 L10.7 45.1 10.65 43.6 10.6 43.55 10.6 43.45 10.6 43.4 10.4 42.05 10.25 40.85 10.2 40.45 10.3 40.6 10.75 41.15 11.25 41.5 11.75 41.8 11.9 42.05 11.9 42.25 11.9 42.4 Q12.0 43.3 12.4 43.65 L13.0 43.95 13.65 44.0 14.1 44.0 14.5 43.9 15.15 43.2 15.2 43.05 15.4 43.05 16.3 42.9 16.7 42.8 16.7 44.5 16.75 45.0 15.95 44.95 14.6 44.85 13.45 44.8 12.95 44.8 12.4 44.8 11.85 44.95 11.35 45.15 10.7 45.45 10.65 45.45" fill="#929937" fill-rule="evenodd" stroke="none"/>
      <path d="M17.3 38.45 L16.95 40.4 15.2 39.8 13.35 38.95 Q12.9 38.8 13.0 38.6 L13.25 38.5 14.5 38.45 17.3 38.45" fill="#aab23f" fill-rule="evenodd" stroke="none"/>
      <path d="M10.55 45.95 L10.65 45.45 10.7 45.45 11.35 45.15 11.85 44.95 12.4 44.8 12.95 44.8 13.45 44.8 14.6 44.85 15.95 44.95 16.75 45.0 16.85 46.65 16.5 46.75 15.8 46.95 15.25 46.9 14.8 46.75 14.5 46.45 14.2 46.1 13.5 45.95 12.75 46.05 11.3 46.2 11.1 46.15 11.05 46.05 10.55 45.95" fill="#868c32" fill-rule="evenodd" stroke="none"/>
      <path d="M16.85 47.85 L15.7 47.65 Q15.25 47.55 14.45 47.05 L13.75 46.6 13.5 46.2 12.5 46.3 10.35 46.85 10.55 45.95 11.05 46.05 11.1 46.15 11.3 46.2 12.75 46.05 13.5 45.95 14.2 46.1 14.5 46.45 14.8 46.75 15.25 46.9 15.8 46.95 16.5 46.75 16.85 46.65 16.85 47.85" fill="#a3b541" fill-rule="evenodd" stroke="none"/>
      <path d="M25.25 28.5 L26.3 29.1 26.35 29.7 26.4 30.3 26.2 31.0 25.95 31.6 25.75 31.7 23.75 32.8 Q22.35 33.35 22.5 32.0 L22.55 31.75 22.85 31.15 23.75 30.25 Q24.6 29.65 25.65 29.25 26.05 29.1 25.85 29.0 L25.35 29.0 Q23.9 29.5 22.85 30.4 L22.65 30.55 22.4 30.3 21.75 29.85 21.65 29.4 22.05 28.95 22.15 28.9 25.25 28.5" fill="#d9d0b0" fill-rule="evenodd" stroke="none"/>
      <path d="M22.75 27.5 L23.95 27.5 26.8 28.35 26.7 28.35 25.25 28.5 22.15 28.9 22.55 28.35 22.75 27.65 22.75 27.5" fill="#e6dcbc" fill-rule="evenodd" stroke="none"/>
    </g>
    <radialGradient cx="0" cy="0" gradientTransform="matrix(0.0479, 0.0, 0.0, -0.0449, 22.65, 5.55)" gradientUnits="userSpaceOnUse" id="gradient0" r="819.2" spreadMethod="pad">
      <stop offset="0.0" stop-color="#f7f2dc"/>
      <stop offset="1.0" stop-color="#d6caa3"/>
    </radialGradient>
    <radialGradient cx="0" cy="0" gradientTransform="matrix(0.0069, 0.0, 0.0, -0.0069, 42.75, 6.95)" gradientUnits="userSpaceOnUse" id="gradient1" r="819.2" spreadMethod="pad">
      <stop offset="0.0" stop-color="#b3a983"/>
      <stop offset="1.0" stop-color="#8c7f53"/>
    </radialGradient>
    <linearGradient gradientTransform="matrix(2.0E-4, 0.0078, 0.0078, -2.0E-4, 16.95, 30.65)" gradientUnits="userSpaceOnUse" id="gradient2" spreadMethod="pad" x1="-819.2" x2="819.2">
      <stop offset="0.0" stop-color="#adb53d"/>
      <stop offset="1.0" stop-color="#69701e"/>
    </linearGradient>
    <linearGradient gradientTransform="matrix(1.0E-4, 0.0063, 0.0063, -1.0E-4, 16.95, 30.85)" gradientUnits="userSpaceOnUse" id="gradient3" spreadMethod="pad" x1="-819.2" x2="819.2">
      <stop offset="0.0" stop-color="#c8d146"/>
      <stop offset="1.0" stop-color="#7d8523"/>
    </linearGradient>
    <linearGradient gradientTransform="matrix(1.0E-4, 0.0059, 0.0059, -1.0E-4, 16.8, 30.9)" gradientUnits="userSpaceOnUse" id="gradient4" spreadMethod="pad" x1="-819.2" x2="819.2">
      <stop offset="0.0" stop-color="#cfe065"/>
      <stop offset="1.0" stop-color="#d8e063"/>
    </linearGradient>
    <linearGradient gradientTransform="matrix(1.0E-4, 0.0055, 0.0055, -1.0E-4, 16.75, 30.9)" gradientUnits="userSpaceOnUse" id="gradient5" spreadMethod="pad" x1="-819.2" x2="819.2">
      <stop offset="0.0" stop-color="#c8d146"/>
      <stop offset="1.0" stop-color="#7d8523"/>
    </linearGradient>
    <linearGradient gradientTransform="matrix(-1.0E-4, 0.002, 0.002, 1.0E-4, 18.05, 35.9)" gradientUnits="userSpaceOnUse" id="gradient6" spreadMethod="pad" x1="-819.2" x2="819.2">
      <stop offset="0.0" stop-color="#c8d146"/>
      <stop offset="1.0" stop-color="#7d8523"/>
    </linearGradient>
    <linearGradient gradientTransform="matrix(-2.0E-4, 0.0028, 0.0028, 2.0E-4, 18.6, 40.7)" gradientUnits="userSpaceOnUse" id="gradient7" spreadMethod="pad" x1="-819.2" x2="819.2">
      <stop offset="0.0" stop-color="#f7f2dc"/>
      <stop offset="1.0" stop-color="#d6caa3"/>
    </linearGradient>
    <linearGradient gradientTransform="matrix(-1.0E-4, 0.0029, 0.0029, 1.0E-4, 17.15, 40.2)" gradientUnits="userSpaceOnUse" id="gradient8" spreadMethod="pad" x1="-819.2" x2="819.2">
      <stop offset="0.0" stop-color="#8c897c"/>
      <stop offset="1.0" stop-color="#d6caa3"/>
    </linearGradient>
    <linearGradient gradientTransform="matrix(-2.0E-4, 0.006, 0.006, 2.0E-4, 14.3, 42.2)" gradientUnits="userSpaceOnUse" id="gradient9" spreadMethod="pad" x1="-819.2" x2="819.2">
      <stop offset="0.0" stop-color="#c8d146"/>
      <stop offset="1.0" stop-color="#7d8523"/>
    </linearGradient>
  </defs>
</svg>
