<?xml version="1.0" encoding="UTF-8" standalone="no"?>
<svg xmlns:xlink="http://www.w3.org/1999/xlink" height="183.3px" width="188.15px" xmlns="http://www.w3.org/2000/svg">
  <g transform="matrix(1.0, 0.0, 0.0, 1.0, 0.0, 0.0)">
    <use height="183.3" transform="matrix(1.0, 0.0, 0.0, 1.0, 0.0, 0.0)" width="188.15" xlink:href="#shape0"/>
  </g>
  <defs>
    <g id="shape0" transform="matrix(1.0, 0.0, 0.0, 1.0, 0.0, 0.0)">
      <path d="M21.7 42.15 Q30.7 40.2 34.75 38.0 37.25 36.65 37.25 35.75 37.25 29.7 31.15 27.75 L26.4 26.6 Q23.9 25.95 23.15 25.0 23.85 23.9 28.35 22.45 33.5 20.75 34.7 19.95 38.95 17.15 42.3 15.85 43.6 14.95 43.6 9.5 43.6 5.8 48.0 4.95 L57.05 4.25 Q62.95 3.65 68.0 1.65 72.15 0.0 78.35 0.0 L90.75 1.05 115.25 3.0 115.1 4.4 113.35 5.15 111.55 5.55 112.0 5.8 113.55 5.85 116.7 5.8 Q117.7 5.35 117.7 4.65 117.7 3.95 117.15 3.45 L116.3 2.85 116.3 2.7 117.05 2.5 Q133.85 2.5 145.4 15.65 144.05 17.0 143.15 17.0 L136.4 16.15 133.95 16.2 129.2 17.0 Q123.7 18.45 122.75 18.2 L123.2 18.5 125.05 18.7 127.3 18.55 135.55 17.35 142.7 17.8 Q145.05 17.5 145.9 16.15 148.9 21.35 161.25 26.95 170.25 31.05 181.15 34.1 182.05 36.7 182.05 38.0 182.05 42.45 175.7 43.85 168.45 44.6 166.65 45.4 L164.75 44.7 163.45 44.35 158.15 44.7 151.4 45.0 147.8 44.6 144.25 44.35 144.8 44.05 146.55 43.45 Q148.15 42.85 149.35 41.95 L149.45 43.1 150.6 43.3 Q152.2 43.15 152.75 42.5 L151.75 39.8 149.75 41.35 Q149.75 39.9 147.85 38.9 145.9 37.9 143.15 37.9 L144.35 37.2 136.1 38.15 Q130.9 37.9 128.7 39.85 L126.9 41.7 124.35 43.5 124.65 44.05 126.65 44.5 Q128.6 44.5 131.9 42.75 135.55 40.8 136.05 38.85 L136.55 38.85 Q136.55 39.6 136.85 40.15 137.15 40.65 137.6 40.65 136.15 43.1 134.3 44.1 132.6 45.05 129.8 45.15 L130.15 45.2 133.95 45.3 135.6 45.2 133.55 46.15 140.25 46.75 142.0 46.5 141.45 48.35 141.4 48.45 141.35 48.6 140.9 50.6 Q139.15 50.4 131.35 50.75 L121.65 51.4 117.35 51.5 Q115.7 51.3 115.7 49.75 115.7 48.65 116.5 48.4 L117.6 48.1 115.65 48.1 107.4 48.8 100.85 48.15 99.4 47.0 99.05 46.75 Q98.75 46.1 98.75 45.15 98.75 44.55 101.1 43.95 L102.3 43.6 102.05 44.3 Q102.05 45.35 104.05 46.1 L108.9 46.8 Q111.75 46.8 113.75 46.1 115.75 45.35 115.75 44.3 115.75 43.25 113.75 42.55 111.75 41.8 108.9 41.8 L105.75 42.1 106.2 41.75 105.3 40.9 99.15 40.5 93.35 40.95 87.4 41.75 90.5 41.9 78.8 41.65 Q72.55 41.45 69.45 42.75 L70.35 42.9 74.0 42.8 67.6 43.75 Q65.6 43.85 64.1 44.45 L64.6 44.5 67.6 43.75 73.4 44.35 80.4 44.9 Q87.85 44.9 89.15 45.65 86.75 48.15 84.9 47.8 82.0 47.2 78.5 48.55 L79.2 48.85 Q79.4 48.95 79.4 49.55 79.4 50.85 75.25 52.35 L72.05 53.35 67.1 53.8 67.65 54.1 49.75 53.65 34.65 52.15 34.6 52.1 34.55 52.0 43.25 51.4 Q44.7 51.15 45.45 50.55 44.7 49.4 38.7 47.2 L32.7 45.2 Q32.15 44.65 31.05 44.25 L31.05 44.3 25.3 42.8 24.85 42.75 23.5 42.45 22.15 42.25 21.7 42.15 M83.05 122.5 L79.55 122.0 79.45 121.95 79.45 121.9 78.25 121.35 78.25 121.1 78.2 75.3 79.05 80.5 79.7 87.65 Q79.6 68.95 80.0 57.45 L79.5 57.4 86.55 57.75 86.5 59.85 Q83.1 60.2 81.8 61.9 81.0 63.0 81.0 64.8 81.0 65.5 81.65 66.0 82.0 66.25 82.5 66.5 L83.65 64.15 Q84.9 62.05 86.45 61.25 L86.45 62.0 86.0 62.5 85.6 63.0 85.55 63.2 85.55 63.25 85.5 63.3 84.9 64.25 Q84.65 64.75 84.65 65.35 L85.1 67.05 Q85.65 68.65 86.15 69.5 86.05 72.6 88.3 75.3 L89.1 75.8 Q88.65 76.3 87.25 76.35 L85.9 76.1 84.5 100.95 83.05 122.5 M65.35 110.7 L63.75 109.9 61.85 109.3 Q59.8 109.3 59.75 111.5 59.75 114.25 58.85 115.0 L57.05 102.35 Q56.2 96.15 55.05 83.8 L55.2 68.1 Q55.55 60.85 55.35 56.4 L60.75 56.35 66.05 56.3 63.85 61.05 Q62.1 65.35 62.1 70.0 62.1 74.35 62.65 80.0 63.2 85.65 63.75 86.7 67.0 93.3 65.35 110.7 M43.1 20.0 L42.55 19.45 41.25 19.15 39.95 19.45 Q39.4 19.7 39.4 20.05 L39.95 20.7 41.25 20.95 42.45 20.75 42.4 20.95 Q42.4 21.55 43.25 22.0 L45.25 22.45 47.3 22.0 Q48.1 21.55 48.1 20.95 48.1 20.35 47.3 19.9 46.45 19.45 45.25 19.45 44.05 19.45 43.25 19.9 L43.1 20.0 M47.95 27.6 Q46.85 28.4 46.5 29.1 48.8 29.85 50.45 27.5 L49.45 26.5 47.95 27.6 M43.7 29.95 Q43.4 30.15 43.4 30.45 L43.7 31.0 44.45 31.2 45.2 31.0 45.5 30.45 45.2 29.95 Q44.9 29.7 44.45 29.7 44.0 29.7 43.7 29.95 M54.15 28.4 L53.2 27.95 53.65 27.6 Q52.45 27.55 50.65 28.35 L49.1 29.15 Q51.0 30.05 51.35 30.8 51.5 31.15 52.3 31.15 L53.2 30.3 54.15 28.4 M48.75 32.35 L48.75 31.3 46.6 31.3 46.6 32.35 48.75 32.35 M48.5 37.55 L48.8 36.8 Q48.8 36.1 47.9 35.65 46.95 35.15 45.6 35.15 44.25 35.15 43.35 35.65 42.4 36.1 42.4 36.8 42.4 37.5 43.35 38.0 L45.6 38.45 46.15 38.45 Q45.95 38.75 46.0 39.15 46.3 41.25 44.15 41.85 48.4 41.95 49.85 40.6 51.7 38.9 52.6 38.7 L51.5 38.0 Q50.4 37.5 49.75 37.5 L48.5 37.55 M42.1 44.15 L38.15 43.85 36.75 43.85 37.05 44.25 37.5 44.55 38.3 44.65 42.1 44.15 M42.15 38.75 Q41.35 38.9 41.1 39.75 L43.75 39.8 Q43.15 39.2 42.6 38.9 L42.15 38.75 M51.4 40.55 L50.95 40.5 Q49.35 40.35 50.4 40.65 L52.1 40.8 Q51.9 40.6 51.4 40.55 M72.2 56.75 L73.0 56.8 72.6 56.8 72.2 56.75 M96.2 57.5 L103.5 56.9 102.6 57.0 101.65 57.3 100.55 57.3 96.2 57.6 96.2 57.5 M49.6 50.65 L51.0 50.55 Q52.55 50.3 54.1 49.5 L49.45 48.8 48.45 49.0 48.15 49.2 Q48.05 49.95 48.3 50.25 48.6 50.65 49.6 50.65 M37.85 60.15 L37.9 59.8 37.95 59.8 Q38.85 59.85 39.2 60.25 39.65 60.75 39.85 62.2 L39.7 62.75 38.15 62.85 37.9 60.45 37.85 60.15 M28.2 74.7 L28.85 74.35 Q29.45 74.1 29.5 74.6 28.8 77.1 26.95 77.4 26.95 76.3 27.35 75.5 27.7 74.7 28.2 74.7 M32.55 70.9 Q33.05 71.4 33.05 72.1 33.05 72.8 32.55 73.35 32.0 73.85 31.3 73.85 30.6 73.85 30.1 73.35 29.55 72.8 29.55 72.1 29.55 71.4 30.1 70.9 30.6 70.35 31.3 70.35 32.0 70.35 32.55 70.9 M36.05 67.65 Q37.1 65.45 37.0 64.0 L37.45 62.75 37.75 63.2 37.95 64.4 37.65 69.7 36.4 70.25 35.7 69.95 Q35.4 69.8 35.4 69.15 L35.5 68.45 36.05 67.65 M40.1 57.7 L39.7 57.75 39.45 57.5 40.45 57.15 40.1 57.7 M39.1 66.8 L40.1 65.8 Q40.2 67.4 39.8 67.5 L39.35 67.15 39.1 66.8 M24.2 80.65 Q24.55 81.0 24.55 81.5 L24.2 82.4 Q23.8 82.75 23.3 82.75 22.8 82.75 22.45 82.4 22.05 82.0 22.05 81.5 22.05 81.0 22.45 80.65 22.8 80.25 23.3 80.25 23.8 80.25 24.2 80.65 M161.75 29.85 L161.7 30.15 Q161.8 30.6 165.45 30.8 L165.1 29.8 161.75 29.85 M147.15 23.5 Q146.15 23.5 145.45 23.85 144.75 24.15 144.75 24.6 144.75 25.05 145.45 25.4 L147.15 25.7 148.85 25.4 Q149.55 25.05 149.55 24.6 149.55 24.15 148.85 23.85 148.15 23.5 147.15 23.5 M142.05 26.8 Q137.15 27.2 135.75 28.95 135.15 30.8 134.8 31.1 L135.45 31.25 147.4 31.75 151.35 32.2 Q154.15 32.2 154.15 31.0 154.15 30.0 153.6 29.3 152.65 28.1 150.45 28.55 L148.1 28.55 148.1 26.8 142.05 26.8 M138.65 20.6 Q138.9 21.45 138.75 21.75 L140.75 22.0 Q142.0 21.85 142.1 21.5 138.9 20.2 138.65 20.6 M67.8 13.15 L63.25 14.15 71.25 14.25 73.85 13.7 76.2 13.1 84.35 12.5 78.75 11.9 77.95 10.85 Q78.0 10.5 78.75 9.5 79.5 8.5 79.5 7.8 79.5 5.6 75.35 5.2 L68.75 4.4 69.4 4.0 Q71.2 3.3 72.05 2.45 L71.45 2.05 69.0 1.9 66.55 2.35 64.85 2.8 Q65.6 4.9 68.05 5.5 L69.4 5.8 63.6 6.05 Q59.95 6.6 59.95 7.6 59.95 8.2 60.2 8.45 L60.45 8.75 62.7 8.85 60.8 10.35 Q60.25 10.65 60.25 10.9 60.25 11.9 60.45 11.35 L66.0 11.75 Q68.55 11.75 68.8 10.8 69.1 9.35 70.05 8.85 72.6 7.5 73.95 9.25 L72.55 9.5 Q72.2 10.95 71.35 11.85 70.4 12.85 69.15 13.1 L67.8 13.15 M75.4 6.9 Q75.9 7.0 76.4 7.35 L77.0 7.9 74.9 9.0 75.4 6.9 M68.75 17.15 L69.1 17.2 71.8 17.35 Q72.45 17.35 72.8 17.0 L73.2 16.35 72.8 15.55 70.7 15.7 Q69.7 16.0 68.75 17.15 M61.75 30.0 Q60.75 30.0 59.95 30.45 59.05 31.05 59.05 32.05 59.05 32.8 59.55 33.15 60.45 33.85 67.65 31.6 L67.75 30.15 61.75 30.0 M75.2 19.5 L72.45 19.1 70.45 19.15 Q69.3 18.9 68.0 19.6 L66.4 20.9 Q66.45 21.25 67.4 21.5 L69.15 21.7 Q70.7 21.7 72.3 20.2 72.4 20.65 71.8 22.1 L74.65 22.2 80.0 22.05 Q82.55 21.8 83.3 20.85 L80.1 20.8 Q77.45 20.7 76.05 19.7 L75.2 19.5 M67.05 28.1 L68.4 28.1 68.5 27.75 66.5 27.85 67.05 28.1 M69.9 35.2 L76.8 35.0 76.7 34.8 Q75.45 33.15 73.4 31.5 L71.45 30.15 69.6 30.5 67.75 30.85 67.7 31.55 Q68.4 31.5 68.5 32.15 68.0 33.5 66.5 34.7 L65.8 35.4 67.9 35.65 69.9 35.2 M90.3 6.45 L92.45 6.5 89.75 5.5 89.85 5.95 90.3 6.45 M74.45 28.5 L74.45 30.5 77.7 30.65 Q78.9 30.65 79.9 29.4 L79.75 28.7 77.1 28.45 74.45 28.5 M119.75 4.5 L118.1 5.15 Q117.8 6.6 116.75 6.5 118.25 6.8 118.95 6.1 119.35 5.75 119.75 4.5 M100.2 5.4 L100.25 4.85 100.1 4.15 95.75 3.8 95.6 4.15 Q98.25 5.8 99.45 5.8 L100.15 5.7 100.2 5.4 M119.25 13.9 L121.7 12.85 121.45 12.85 Q111.8 12.85 110.5 10.9 L109.55 9.55 Q108.7 8.95 105.9 8.95 L104.5 9.1 104.2 9.15 104.0 9.7 102.5 10.65 101.0 11.4 101.8 10.1 102.45 8.8 Q93.9 9.05 92.1 10.75 L94.75 11.65 94.0 12.0 93.45 12.55 103.35 12.7 94.45 13.2 98.05 14.05 102.4 14.55 105.35 14.15 111.8 14.05 Q116.15 13.85 118.0 13.95 L109.2 14.45 103.8 14.8 116.0 14.85 118.65 14.65 121.9 13.95 123.1 14.5 123.45 12.8 122.75 13.5 121.9 13.95 119.25 13.9 M102.45 6.2 L102.5 6.75 103.55 6.7 Q104.05 6.6 104.15 6.4 104.6 6.15 103.6 6.15 L102.45 6.2 M96.55 16.8 L93.85 16.85 Q94.3 17.6 94.45 19.05 94.8 20.2 96.2 20.2 L99.75 19.9 Q98.5 20.4 96.75 20.55 L97.0 20.75 98.5 20.9 Q102.05 20.9 104.45 20.15 107.15 19.35 110.1 17.15 L103.65 18.75 107.45 17.15 98.65 16.85 97.6 16.6 96.55 16.8 M94.55 29.1 Q94.8 29.45 96.2 29.4 L100.9 29.65 Q103.6 29.55 105.1 27.5 98.25 27.35 96.2 27.5 94.65 27.6 94.35 28.1 L94.55 29.1 M112.1 31.55 Q112.0 29.75 110.4 29.25 L107.6 28.4 108.75 29.5 107.8 30.15 106.3 30.5 103.65 30.35 98.75 30.15 101.75 30.95 101.45 31.4 105.8 32.4 Q105.8 33.55 105.15 34.4 104.5 35.1 103.7 35.2 L103.5 35.2 102.85 35.15 Q103.85 34.5 103.85 33.05 L103.75 32.15 98.95 31.7 Q94.15 31.7 94.15 33.35 94.15 34.4 95.3 35.05 96.95 36.0 100.2 35.55 L101.0 35.8 97.75 36.2 Q97.8 36.95 100.4 36.95 L105.55 36.8 108.0 36.95 Q111.15 37.9 112.25 37.9 L116.7 36.85 124.95 34.15 114.9 33.7 110.45 33.1 110.75 32.6 Q112.15 32.5 112.75 31.8 L112.1 31.55 M129.75 14.1 Q132.1 14.45 132.75 13.8 L131.65 13.2 130.8 13.1 Q130.15 13.1 129.95 13.4 L129.75 14.1 M128.65 8.3 L124.25 8.8 Q122.4 9.25 122.4 9.9 122.4 10.55 124.25 11.05 L128.65 11.5 133.1 11.05 Q134.9 10.55 134.9 9.9 134.9 9.25 133.1 8.8 L128.65 8.3 M122.2 23.8 L120.8 25.1 123.55 25.2 Q124.85 24.95 125.1 23.5 L123.4 23.45 Q122.95 23.3 122.2 23.8 M124.35 26.0 Q124.35 26.5 125.25 26.9 L127.45 27.25 129.65 26.9 Q130.55 26.5 130.55 26.0 130.55 25.5 129.65 25.15 L127.45 24.75 125.25 25.15 Q124.35 25.5 124.35 26.0 M120.2 47.55 L121.1 47.4 Q121.1 46.8 116.75 46.5 118.2 47.4 120.2 47.55 M122.55 75.95 L122.75 77.15 123.0 79.7 123.3 84.0 Q123.6 85.8 125.05 90.9 L125.55 92.65 126.2 95.6 126.7 101.25 126.95 106.45 126.9 114.9 126.95 125.65 126.05 130.9 122.8 112.45 Q120.75 101.4 119.55 92.9 L118.65 91.7 117.95 94.2 117.4 85.3 Q118.55 83.55 118.9 82.15 121.15 81.55 121.45 80.85 L121.85 77.25 122.2 76.35 122.55 75.95 M85.75 36.1 Q85.3 36.1 85.0 36.35 84.7 36.55 84.7 36.85 84.7 37.15 85.0 37.4 L85.75 37.6 86.5 37.4 86.8 36.85 Q86.8 36.55 86.5 36.35 L85.75 36.1 M75.9 45.55 L82.75 45.8 75.9 45.55 M65.6 41.95 L65.6 40.45 59.4 40.45 59.4 41.95 65.6 41.95 M65.1 38.75 L65.35 39.1 66.0 39.2 Q67.0 39.2 66.75 38.8 L65.45 38.15 65.1 38.75 M67.15 33.3 Q67.5 33.0 67.65 31.65 66.5 33.85 67.15 33.3 M55.25 42.65 L55.6 42.15 55.25 41.65 54.35 41.45 53.5 41.65 53.1 42.15 53.5 42.65 54.35 42.85 55.25 42.65 M55.2 36.7 L55.0 36.5 54.15 37.15 53.75 37.8 Q55.4 37.75 55.55 37.25 L55.2 36.7 M60.75 46.35 Q60.75 46.85 61.3 47.25 L62.65 47.6 64.0 47.25 Q64.55 46.85 64.55 46.35 64.55 45.85 64.0 45.5 63.45 45.1 62.65 45.1 61.85 45.1 61.3 45.5 60.75 45.85 60.75 46.35 M55.05 48.15 Q57.1 48.9 59.0 48.9 L60.1 48.65 60.75 48.15 56.95 46.55 55.05 46.4 53.4 46.75 54.4 47.8 55.05 48.15 M82.55 70.9 L82.8 70.0 82.55 69.15 Q82.3 68.75 81.95 68.75 81.6 68.75 81.35 69.15 81.1 69.5 81.1 70.0 L81.35 70.9 81.95 71.25 Q82.3 71.25 82.55 70.9 M96.25 82.25 L99.65 81.9 102.75 82.1 103.0 83.55 Q103.6 83.5 104.7 84.55 105.8 85.65 105.8 86.35 105.8 87.05 105.2 87.55 104.45 88.15 103.0 88.0 L101.6 102.95 100.15 118.35 99.95 119.3 Q99.15 116.15 97.5 111.75 97.25 111.1 97.15 108.55 L96.15 82.65 96.25 82.25 M107.6 87.95 L106.95 88.15 106.35 87.95 106.05 87.45 Q106.05 87.15 106.35 86.95 L106.95 86.75 107.6 86.95 107.85 87.45 107.6 87.95 M112.05 120.55 L115.15 129.5 114.0 129.7 112.15 121.0 112.05 120.55 M176.75 41.25 L176.5 41.2 Q173.9 41.45 172.8 38.85 L174.55 38.8 Q175.9 38.8 179.65 40.15 180.4 40.1 180.6 39.75 L180.8 38.6 Q180.8 36.4 176.0 35.9 L169.75 35.8 Q169.25 35.8 168.75 36.3 168.25 36.8 167.75 36.8 L162.75 36.85 Q161.05 37.05 161.05 38.25 161.05 39.7 162.9 41.15 165.85 43.45 172.25 43.45 L177.4 43.1 Q179.05 42.7 176.75 41.25 M164.35 34.1 Q165.65 34.9 167.1 34.9 167.75 34.9 168.35 34.5 L168.85 33.9 Q168.8 33.45 167.6 33.35 L166.4 33.4 Q164.4 33.4 164.05 33.9 L164.35 34.1 M156.75 40.25 Q157.25 40.9 158.0 40.9 158.75 40.9 159.3 40.25 159.8 39.6 159.8 38.7 159.8 37.8 159.3 37.15 158.75 36.5 158.0 36.5 157.25 36.5 156.75 37.15 156.2 37.8 156.2 38.7 156.2 39.6 156.75 40.25 M153.95 36.55 Q154.3 36.2 152.75 35.8 L152.4 36.15 149.1 37.15 150.0 37.85 151.75 37.95 Q154.4 37.95 154.55 37.4 L154.5 37.05 153.95 36.55" fill="#b3aa9e" fill-rule="evenodd" stroke="none"/>
      <path d="M115.25 3.0 L116.25 2.85 116.3 2.85 117.15 3.45 Q117.7 3.95 117.7 4.65 117.7 5.35 116.7 5.8 L113.55 5.85 114.7 5.45 115.05 5.25 Q115.75 4.9 116.15 3.75 116.1 3.4 115.6 3.85 L115.1 4.4 115.25 3.0 M145.4 15.65 L145.9 16.15 Q145.05 17.5 142.7 17.8 L135.55 17.35 140.45 16.8 133.95 16.2 136.4 16.15 143.15 17.0 Q144.05 17.0 145.4 15.65 M32.7 45.2 L38.7 47.2 Q44.7 49.4 45.45 50.55 44.7 51.15 43.25 51.4 L34.55 52.0 34.35 51.75 34.3 51.6 34.2 51.5 34.1 50.9 36.3 51.45 38.75 51.7 40.65 51.55 41.45 51.15 37.4 50.45 36.45 50.45 Q37.0 50.45 37.85 49.35 L38.8 47.75 Q38.5 47.05 36.35 46.7 L33.5 46.5 33.45 46.4 32.7 45.2 M67.65 54.1 L67.1 53.8 72.05 53.35 70.35 54.3 67.65 54.1 M75.25 52.35 Q79.4 50.85 79.4 49.55 79.4 48.95 79.2 48.85 L78.5 48.55 Q82.0 47.2 84.9 47.8 86.75 48.15 89.15 45.65 87.85 44.9 80.4 44.9 L73.4 44.35 67.6 43.75 64.6 44.5 64.1 44.45 Q65.6 43.85 67.6 43.75 L74.0 42.8 89.65 43.9 94.45 43.25 99.75 42.15 90.5 41.9 87.4 41.75 93.35 40.95 99.15 40.5 105.3 40.9 106.2 41.75 105.75 42.1 104.05 42.55 Q102.75 43.0 102.3 43.6 L101.1 43.95 Q98.75 44.55 98.75 45.15 98.75 46.1 99.05 46.75 98.3 46.25 98.4 46.85 99.25 48.1 102.9 48.7 L107.4 48.8 115.65 48.1 117.6 48.1 116.5 48.4 Q115.7 48.65 115.7 49.75 115.7 51.3 117.35 51.5 L121.65 51.4 109.3 54.25 Q100.75 56.15 89.85 56.15 L80.25 55.75 73.85 54.7 Q79.15 54.1 80.4 53.2 81.2 52.65 81.2 50.65 L81.05 49.65 80.45 48.75 79.75 48.15 Q80.1 50.4 78.85 51.3 78.1 51.8 75.25 52.35 M140.9 50.6 L141.35 48.6 143.15 48.95 145.4 47.0 Q147.2 45.35 149.6 46.25 L151.75 45.8 147.75 45.15 Q146.85 45.75 143.45 45.85 L142.5 47.5 141.45 48.35 142.0 46.5 140.25 46.75 133.55 46.15 135.6 45.2 Q139.5 45.85 140.25 42.85 L140.25 41.45 Q140.1 40.8 139.45 40.8 139.0 40.8 140.05 39.65 141.15 38.45 143.15 37.9 145.9 37.9 147.85 38.9 149.75 39.9 149.75 41.35 L149.35 41.95 Q148.15 42.85 146.55 43.45 L144.8 44.05 144.25 44.35 147.8 44.6 151.4 45.0 158.15 44.7 163.45 44.35 164.75 44.7 166.65 45.4 Q162.4 47.55 158.15 48.25 L153.35 48.75 Q151.6 47.8 150.6 47.8 146.75 47.8 146.75 49.15 L146.85 49.9 147.25 50.2 140.9 50.6 M137.6 40.65 Q137.15 40.65 136.85 40.15 136.55 39.6 136.55 38.85 L137.7 38.95 137.6 40.65 M43.1 20.0 L43.25 19.9 Q44.05 19.45 45.25 19.45 46.45 19.45 47.3 19.9 48.1 20.35 48.1 20.95 48.1 21.55 47.3 22.0 L45.25 22.45 43.25 22.0 Q42.4 21.55 42.4 20.95 L42.45 20.75 42.55 20.7 43.1 20.05 43.1 20.0 M45.85 20.4 L45.05 20.15 Q44.6 20.15 44.3 20.4 43.95 20.65 43.95 21.0 43.95 21.35 44.3 21.6 L45.05 21.85 45.85 21.6 46.15 21.0 45.85 20.4 M53.2 27.95 L51.75 29.1 52.95 29.2 Q53.85 29.1 53.3 28.55 52.8 28.0 54.15 28.4 L53.2 30.3 52.3 31.15 Q51.5 31.15 51.35 30.8 51.0 30.05 49.1 29.15 L50.65 28.35 Q52.45 27.55 53.65 27.6 L53.2 27.95 M48.75 32.35 L46.6 32.35 46.6 31.3 48.75 31.3 48.75 32.35 M48.5 37.55 L49.75 37.5 Q50.4 37.5 51.5 38.0 L52.6 38.7 Q51.7 38.9 49.85 40.6 48.4 41.95 44.15 41.85 46.3 41.25 46.0 39.15 45.95 38.75 46.15 38.45 L47.9 38.0 48.5 37.55 M46.8 40.05 L48.7 40.0 Q49.55 39.6 50.1 38.15 L47.6 38.95 Q47.2 39.1 46.8 40.05 M107.9 56.45 L108.6 56.35 108.55 56.4 107.9 56.45 M129.2 17.0 L126.95 17.8 123.2 18.5 127.3 18.55 125.05 18.7 123.2 18.5 122.75 18.2 Q123.7 18.45 129.2 17.0 M69.4 5.8 L68.05 5.5 Q65.6 4.9 64.85 2.8 L66.55 2.35 69.0 1.9 71.45 2.05 72.05 2.45 Q71.2 3.3 69.4 4.0 L68.75 4.4 75.35 5.2 Q79.5 5.6 79.5 7.8 79.5 8.5 78.75 9.5 78.0 10.5 77.95 10.85 L78.75 11.9 84.35 12.5 76.2 13.1 73.85 13.7 71.25 14.25 63.25 14.15 67.8 13.15 69.55 13.3 Q71.15 13.3 73.8 11.8 76.1 10.45 76.85 9.5 L77.1 8.85 78.1 7.15 77.0 7.9 76.4 7.35 Q75.9 7.0 75.4 6.9 L75.45 6.15 72.6 6.25 70.95 5.9 69.4 5.8 M68.75 17.15 Q69.7 16.0 70.7 15.7 L72.8 15.55 73.2 16.35 72.8 17.0 Q72.45 17.35 71.8 17.35 L69.1 17.2 68.75 17.15 M70.45 19.15 L72.45 19.1 75.2 19.5 73.95 20.8 73.25 21.25 73.2 21.75 76.05 21.85 76.0 20.85 76.05 19.7 Q77.45 20.7 80.1 20.8 L83.3 20.85 Q82.55 21.8 80.0 22.05 L74.65 22.2 71.8 22.1 Q72.4 20.65 72.3 20.2 L72.45 19.8 Q72.1 19.15 70.45 19.15 M66.5 34.7 Q68.0 33.5 68.5 32.15 68.4 31.5 67.7 31.55 L67.75 30.85 69.6 30.5 71.45 30.15 73.4 31.5 Q75.45 33.15 76.7 34.8 L76.8 35.0 69.9 35.2 Q70.7 34.4 70.85 32.4 L70.45 30.8 68.9 33.25 66.5 34.7 M90.3 6.45 L89.85 5.95 89.75 5.5 92.45 6.5 90.3 6.45 M74.45 28.5 L77.1 28.45 79.75 28.7 79.9 29.4 Q78.9 30.65 77.7 30.65 L74.45 30.5 74.45 28.5 M100.2 5.4 L100.15 5.7 99.45 5.8 Q98.25 5.8 95.6 4.15 L95.75 3.8 100.1 4.15 100.25 4.85 100.2 5.4 M104.5 9.1 L105.9 8.95 Q108.7 8.95 109.55 9.55 L110.5 10.9 Q111.8 12.85 121.45 12.85 L121.7 12.85 119.25 13.9 118.0 13.95 Q116.15 13.85 111.8 14.05 L105.35 14.15 106.45 12.65 106.45 10.8 105.1 10.8 104.95 11.65 104.45 12.3 104.65 11.75 104.85 10.8 Q104.85 9.65 104.5 9.1 M99.75 19.9 L96.2 20.2 Q94.8 20.2 94.45 19.05 94.3 17.6 93.85 16.85 L96.55 16.8 96.05 17.5 96.05 18.4 98.7 18.5 Q98.85 17.55 98.65 16.85 L107.45 17.15 103.65 18.75 Q100.45 19.5 99.75 19.9 M101.75 30.95 L98.75 30.15 103.65 30.35 106.3 30.5 107.8 30.15 108.75 29.5 107.6 28.4 110.4 29.25 Q112.0 29.75 112.1 31.55 L107.15 30.95 101.75 30.95 M110.75 32.6 L110.45 33.1 114.9 33.7 124.95 34.15 116.7 36.85 112.25 37.9 Q111.15 37.9 108.0 36.95 108.9 37.1 109.9 36.5 L111.15 35.35 Q111.1 34.8 108.45 33.5 L107.3 35.0 103.7 35.2 Q104.5 35.1 105.15 34.4 105.8 33.55 105.8 32.4 L107.6 32.55 110.75 32.6 M105.55 36.8 L100.4 36.95 Q97.8 36.95 97.75 36.2 L101.0 35.8 105.55 36.8 M126.45 26.1 L129.5 25.8 129.75 25.5 126.5 25.5 126.45 26.1 M124.35 26.0 Q124.35 25.5 125.25 25.15 L127.45 24.75 129.65 25.15 Q130.55 25.5 130.55 26.0 130.55 26.5 129.65 26.9 L127.45 27.25 125.25 26.9 Q124.35 26.5 124.35 26.0 M95.95 51.8 Q95.85 53.3 93.55 53.3 L93.1 53.4 Q94.35 54.1 95.9 54.1 L101.35 53.5 101.45 53.15 101.45 50.8 98.05 50.35 Q96.05 50.35 95.95 51.8 M102.6 52.05 Q102.8 52.25 103.1 52.25 L103.6 52.05 103.8 51.5 103.6 51.0 Q103.4 50.75 103.1 50.75 102.8 50.75 102.6 51.0 L102.4 51.5 102.6 52.05 M89.25 48.15 Q90.4 47.3 90.1 45.5 L88.35 47.4 Q86.55 48.9 84.5 48.2 L82.7 48.15 87.4 48.65 Q88.5 48.65 89.25 48.15 M55.2 36.7 L55.55 37.25 Q55.4 37.75 53.75 37.8 L54.15 37.15 55.0 36.5 55.2 36.7 M55.25 42.65 L54.35 42.85 53.5 42.65 53.1 42.15 53.5 41.65 54.35 41.45 55.25 41.65 55.6 42.15 55.25 42.65 M56.95 46.55 L60.75 48.15 60.1 48.65 59.0 48.9 Q57.1 48.9 55.05 48.15 57.35 48.35 58.1 47.5 L56.95 46.55 M54.4 47.8 L53.4 46.75 55.05 46.4 54.75 46.8 Q54.45 47.35 54.4 47.8 M176.5 41.2 L174.45 41.8 174.8 42.0 175.9 42.15 Q176.55 42.15 176.65 41.85 L176.75 41.25 Q179.05 42.7 177.4 43.1 L172.25 43.45 Q165.85 43.45 162.9 41.15 161.05 39.7 161.05 38.25 161.05 37.05 162.75 36.85 L167.75 36.8 Q168.25 36.8 168.75 36.3 169.25 35.8 169.75 35.8 L176.0 35.9 Q180.8 36.4 180.8 38.6 L180.6 39.75 Q180.4 40.1 179.65 40.15 175.9 38.8 174.55 38.8 L172.8 38.85 Q173.9 41.45 176.5 41.2 M176.55 37.2 Q176.55 36.9 175.9 36.7 L174.3 36.45 172.7 36.7 Q172.05 36.9 172.05 37.2 L172.7 37.75 174.3 37.95 175.9 37.75 176.55 37.2 M166.4 33.4 L167.6 33.35 Q168.8 33.45 168.85 33.9 L168.35 34.5 Q167.75 34.9 167.1 34.9 165.65 34.9 164.35 34.1 L165.4 34.3 Q166.6 34.4 166.75 34.0 L166.75 33.5 166.4 33.4 M167.45 39.4 L167.55 39.25 168.25 39.05 Q169.7 39.05 169.95 41.0 L169.8 41.55 169.2 41.75 169.75 42.15 170.75 42.3 172.7 42.2 172.9 41.95 173.1 41.15 Q173.1 40.0 170.65 38.9 167.95 37.65 164.4 37.65 L162.55 37.85 162.3 38.0 Q162.05 38.2 162.05 38.8 162.05 39.6 163.6 40.0 L167.35 40.7 167.45 39.4 M152.4 36.15 L152.4 36.75 153.0 36.8 153.95 36.55 154.5 37.05 154.55 37.4 Q154.4 37.95 151.75 37.95 L150.0 37.85 149.1 37.15 152.4 36.15" fill="#a39a90" fill-rule="evenodd" stroke="none"/>
      <path d="M105.75 42.1 L108.9 41.8 Q111.75 41.8 113.75 42.55 115.75 43.25 115.75 44.3 115.75 45.35 113.75 46.1 111.75 46.8 108.9 46.8 L104.05 46.1 Q102.05 45.35 102.05 44.3 L102.3 43.6 Q102.75 43.0 104.05 42.55 L105.75 42.1 M136.05 38.85 Q135.55 40.8 131.9 42.75 128.6 44.5 126.65 44.5 L124.65 44.05 124.35 43.5 126.9 41.7 128.7 39.85 Q130.9 37.9 136.1 38.15 L136.05 38.85 M149.75 41.35 L151.75 39.8 152.75 42.5 Q152.2 43.15 150.6 43.3 L149.45 43.1 149.35 41.95 149.75 41.35 M42.45 20.75 L41.25 20.95 39.95 20.7 39.4 20.05 Q39.4 19.7 39.95 19.45 L41.25 19.15 42.55 19.45 43.1 20.0 43.1 20.05 42.55 20.7 42.45 20.75 M43.7 29.95 Q44.0 29.7 44.45 29.7 44.9 29.7 45.2 29.95 L45.5 30.45 45.2 31.0 44.45 31.2 43.7 31.0 43.4 30.45 Q43.4 30.15 43.7 29.95 M47.95 27.6 L49.45 26.5 50.45 27.5 Q48.8 29.85 46.5 29.1 46.85 28.4 47.95 27.6 M46.15 38.45 L45.6 38.45 43.35 38.0 Q42.4 37.5 42.4 36.8 42.4 36.1 43.35 35.65 44.25 35.15 45.6 35.15 46.95 35.15 47.9 35.65 48.8 36.1 48.8 36.8 L48.5 37.55 47.9 38.0 46.15 38.45 M51.4 40.55 Q51.9 40.6 52.1 40.8 L50.4 40.65 Q49.35 40.35 50.95 40.5 L51.4 40.55 M42.15 38.75 L42.6 38.9 Q43.15 39.2 43.75 39.8 L41.1 39.75 Q41.35 38.9 42.15 38.75 M42.1 44.15 L38.3 44.65 37.5 44.55 37.05 44.25 36.75 43.85 38.15 43.85 42.1 44.15 M49.6 50.65 Q48.6 50.65 48.3 50.25 48.05 49.95 48.15 49.2 L48.45 49.0 49.45 48.8 54.1 49.5 Q52.55 50.3 51.0 50.55 L49.6 50.65 M138.65 20.6 Q138.9 20.2 142.1 21.5 142.0 21.85 140.75 22.0 L138.75 21.75 Q138.9 21.45 138.65 20.6 M142.05 26.8 L148.1 26.8 148.1 28.55 150.45 28.55 Q152.65 28.1 153.6 29.3 154.15 30.0 154.15 31.0 154.15 32.2 151.35 32.2 L147.4 31.75 135.45 31.25 134.8 31.1 Q135.15 30.8 135.75 28.95 137.15 27.2 142.05 26.8 M147.15 23.5 Q148.15 23.5 148.85 23.85 149.55 24.15 149.55 24.6 149.55 25.05 148.85 25.4 L147.15 25.7 145.45 25.4 Q144.75 25.05 144.75 24.6 144.75 24.15 145.45 23.85 146.15 23.5 147.15 23.5 M161.75 29.85 L165.1 29.8 165.45 30.8 Q161.8 30.6 161.7 30.15 L161.75 29.85 M73.95 9.25 Q72.6 7.5 70.05 8.85 69.1 9.35 68.8 10.8 68.55 11.75 66.0 11.75 L60.45 11.35 Q60.25 11.9 60.25 10.9 60.25 10.65 60.8 10.35 L62.7 8.85 60.45 8.75 60.2 8.45 Q59.95 8.2 59.95 7.6 59.95 6.6 63.6 6.05 L69.4 5.8 70.95 5.9 72.6 6.25 75.45 6.15 75.4 6.9 74.9 9.0 74.65 9.7 Q74.45 10.0 74.1 9.45 L73.95 9.25 M61.75 30.0 L67.75 30.15 67.65 31.6 Q60.45 33.85 59.55 33.15 59.05 32.8 59.05 32.05 59.05 31.05 59.95 30.45 60.75 30.0 61.75 30.0 M72.3 20.2 Q70.7 21.7 69.15 21.7 L67.4 21.5 Q66.45 21.25 66.4 20.9 L68.0 19.6 Q69.3 18.9 70.45 19.15 72.1 19.15 72.45 19.8 L72.3 20.2 M67.05 28.1 L66.5 27.85 68.5 27.75 68.4 28.1 67.05 28.1 M115.1 4.4 L115.6 3.85 Q116.1 3.4 116.15 3.75 115.75 4.9 115.05 5.25 L114.7 5.45 113.55 5.85 112.0 5.8 111.55 5.55 113.35 5.15 115.1 4.4 M119.75 4.5 Q119.35 5.75 118.95 6.1 118.25 6.8 116.75 6.5 117.8 6.6 118.1 5.15 L119.75 4.5 M119.25 13.9 L121.9 13.95 122.75 13.5 123.45 12.8 123.1 14.5 121.9 13.95 118.65 14.65 116.0 14.85 103.8 14.8 109.2 14.45 118.0 13.95 119.25 13.9 M103.35 12.7 L93.45 12.55 94.0 12.0 94.75 11.65 92.1 10.75 Q93.9 9.05 102.45 8.8 L101.8 10.1 101.0 11.4 102.5 10.65 104.0 9.7 104.2 9.15 104.5 9.1 Q104.85 9.65 104.85 10.8 L104.65 11.75 104.45 12.3 103.75 12.7 103.35 12.7 M102.45 6.2 L103.6 6.15 Q104.6 6.15 104.15 6.4 104.05 6.6 103.55 6.7 L102.5 6.75 102.45 6.2 M103.65 18.75 L110.1 17.15 Q107.15 19.35 104.45 20.15 102.05 20.9 98.5 20.9 L97.0 20.75 96.75 20.55 Q98.5 20.4 99.75 19.9 100.45 19.5 103.65 18.75 M94.55 29.1 L94.35 28.1 Q94.65 27.6 96.2 27.5 98.25 27.35 105.1 27.5 103.6 29.55 100.9 29.65 L96.2 29.4 Q94.8 29.45 94.55 29.1 M100.2 35.55 Q96.95 36.0 95.3 35.05 94.15 34.4 94.15 33.35 94.15 31.7 98.95 31.7 L103.75 32.15 103.85 33.05 Q103.85 34.5 102.85 35.15 L100.2 35.55 M128.65 8.3 L133.1 8.8 Q134.9 9.25 134.9 9.9 134.9 10.55 133.1 11.05 L128.65 11.5 124.25 11.05 Q122.4 10.55 122.4 9.9 122.4 9.25 124.25 8.8 L128.65 8.3 M129.75 14.1 L129.95 13.4 Q130.15 13.1 130.8 13.1 L131.65 13.2 132.75 13.8 Q132.1 14.45 129.75 14.1 M122.2 23.8 Q122.95 23.3 123.4 23.45 L125.1 23.5 Q124.85 24.95 123.55 25.2 L120.8 25.1 122.2 23.8 M120.2 47.55 Q118.2 47.4 116.75 46.5 121.1 46.8 121.1 47.4 L120.2 47.55 M85.75 36.1 L86.5 36.35 Q86.8 36.55 86.8 36.85 L86.5 37.4 85.75 37.6 85.0 37.4 Q84.7 37.15 84.7 36.85 84.7 36.55 85.0 36.35 85.3 36.1 85.75 36.1 M75.9 45.55 L82.75 45.8 75.9 45.55 M67.15 33.3 Q66.5 33.85 67.65 31.65 67.5 33.0 67.15 33.3 M65.1 38.75 L65.45 38.15 66.75 38.8 Q67.0 39.2 66.0 39.2 L65.35 39.1 65.1 38.75 M65.6 41.95 L59.4 41.95 59.4 40.45 65.6 40.45 65.6 41.95 M60.75 46.35 Q60.75 45.85 61.3 45.5 61.85 45.1 62.65 45.1 63.45 45.1 64.0 45.5 64.55 45.85 64.55 46.35 64.55 46.85 64.0 47.25 L62.65 47.6 61.3 47.25 Q60.75 46.85 60.75 46.35 M156.75 40.25 Q156.2 39.6 156.2 38.7 156.2 37.8 156.75 37.15 157.25 36.5 158.0 36.5 158.75 36.5 159.3 37.15 159.8 37.8 159.8 38.7 159.8 39.6 159.3 40.25 158.75 40.9 158.0 40.9 157.25 40.9 156.75 40.25" fill="#c3b9ac" fill-rule="evenodd" stroke="none"/>
      <path d="M72.05 53.35 L75.25 52.35 Q78.1 51.8 78.85 51.3 80.1 50.4 79.75 48.15 L80.45 48.75 81.05 49.65 81.2 50.65 Q81.2 52.65 80.4 53.2 79.15 54.1 73.85 54.7 L70.35 54.3 72.05 53.35 M74.0 42.8 L70.35 42.9 69.45 42.75 Q72.55 41.45 78.8 41.65 L90.5 41.9 99.75 42.15 94.45 43.25 89.65 43.9 74.0 42.8 M99.05 46.75 L99.4 47.0 100.85 48.15 107.4 48.8 102.9 48.7 Q99.25 48.1 98.4 46.85 98.3 46.25 99.05 46.75 M141.35 48.6 L141.4 48.45 141.45 48.35 142.5 47.5 143.45 45.85 Q146.85 45.75 147.75 45.15 L151.75 45.8 149.6 46.25 Q147.2 45.35 145.4 47.0 L143.15 48.95 141.35 48.6 M135.6 45.2 L133.95 45.3 130.15 45.2 129.8 45.15 Q132.6 45.05 134.3 44.1 136.15 43.1 137.6 40.65 L137.7 38.95 136.55 38.85 136.05 38.85 136.1 38.15 144.35 37.2 143.15 37.9 Q141.15 38.45 140.05 39.65 139.0 40.8 139.45 40.8 140.1 40.8 140.25 41.45 L140.25 42.85 Q139.5 45.85 135.6 45.2 M45.85 20.4 L46.15 21.0 45.85 21.6 45.05 21.85 44.3 21.6 Q43.95 21.35 43.95 21.0 43.95 20.65 44.3 20.4 44.6 20.15 45.05 20.15 L45.85 20.4 M54.15 28.4 Q52.8 28.0 53.3 28.55 53.85 29.1 52.95 29.2 L51.75 29.1 53.2 27.95 54.15 28.4 M46.8 40.05 Q47.2 39.1 47.6 38.95 L50.1 38.15 Q49.55 39.6 48.7 40.0 L46.8 40.05 M33.8 47.1 L33.75 46.95 33.5 46.5 36.35 46.7 Q38.5 47.05 38.8 47.75 L37.85 49.35 Q37.0 50.45 36.45 50.45 L37.4 50.45 41.45 51.15 40.65 51.55 38.75 51.7 36.3 51.45 34.1 50.9 34.2 48.65 34.15 48.5 33.8 47.1 M133.95 16.2 L140.45 16.8 135.55 17.35 127.3 18.55 123.2 18.5 126.95 17.8 129.2 17.0 133.95 16.2 M67.8 13.15 L69.15 13.1 Q70.4 12.85 71.35 11.85 72.2 10.95 72.55 9.5 L73.95 9.25 74.1 9.45 Q74.45 10.0 74.65 9.7 L74.9 9.0 77.0 7.9 78.1 7.15 77.1 8.85 76.85 9.5 Q76.1 10.45 73.8 11.8 71.15 13.3 69.55 13.3 L67.8 13.15 M75.2 19.5 L76.05 19.7 76.0 20.85 76.05 21.85 73.2 21.75 73.25 21.25 73.95 20.8 75.2 19.5 M69.9 35.2 L67.9 35.65 65.8 35.4 66.5 34.7 68.9 33.25 70.45 30.8 70.85 32.4 Q70.7 34.4 69.9 35.2 M105.35 14.15 L102.4 14.55 98.05 14.05 94.45 13.2 103.35 12.7 103.75 12.7 104.45 12.3 104.95 11.65 105.1 10.8 106.45 10.8 106.45 12.65 105.35 14.15 M96.55 16.8 L97.6 16.6 98.65 16.85 Q98.85 17.55 98.7 18.5 L96.05 18.4 96.05 17.5 96.55 16.8 M112.1 31.55 L112.75 31.8 Q112.15 32.5 110.75 32.6 L107.6 32.55 105.8 32.4 101.45 31.4 101.75 30.95 107.15 30.95 112.1 31.55 M108.0 36.95 L105.55 36.8 101.0 35.8 100.2 35.55 102.85 35.15 103.5 35.2 103.7 35.2 107.3 35.0 108.45 33.5 Q111.1 34.8 111.15 35.35 L109.9 36.5 Q108.9 37.1 108.0 36.95 M126.45 26.1 L126.5 25.5 129.75 25.5 129.5 25.8 126.45 26.1 M102.6 52.05 L102.4 51.5 102.6 51.0 Q102.8 50.75 103.1 50.75 103.4 50.75 103.6 51.0 L103.8 51.5 103.6 52.05 103.1 52.25 Q102.8 52.25 102.6 52.05 M95.95 51.8 Q96.05 50.35 98.05 50.35 L101.45 50.8 101.45 53.15 101.35 53.5 95.9 54.1 Q94.35 54.1 93.1 53.4 L93.55 53.3 Q95.85 53.3 95.95 51.8 M89.25 48.15 Q88.5 48.65 87.4 48.65 L82.7 48.15 84.5 48.2 Q86.55 48.9 88.35 47.4 L90.1 45.5 Q90.4 47.3 89.25 48.15 M55.05 48.15 L54.4 47.8 Q54.45 47.35 54.75 46.8 L55.05 46.4 56.95 46.55 58.1 47.5 Q57.35 48.35 55.05 48.15 M176.75 41.25 L176.65 41.85 Q176.55 42.15 175.9 42.15 L174.8 42.0 174.45 41.8 176.5 41.2 176.75 41.25 M176.55 37.2 L175.9 37.75 174.3 37.95 172.7 37.75 172.05 37.2 Q172.05 36.9 172.7 36.7 L174.3 36.45 175.9 36.7 Q176.55 36.9 176.55 37.2 M164.35 34.1 L164.05 33.9 Q164.4 33.4 166.4 33.4 L166.75 33.5 166.75 34.0 Q166.6 34.4 165.4 34.3 L164.35 34.1 M167.45 39.4 L167.35 40.7 163.6 40.0 Q162.05 39.6 162.05 38.8 162.05 38.2 162.3 38.0 L162.55 37.85 164.4 37.65 Q167.95 37.65 170.65 38.9 173.1 40.0 173.1 41.15 L172.9 41.95 172.7 42.2 170.75 42.3 169.75 42.15 169.2 41.75 169.8 41.55 169.95 41.0 Q169.7 39.05 168.25 39.05 L167.55 39.25 167.45 39.4 M153.95 36.55 L153.0 36.8 152.4 36.75 152.4 36.15 152.75 35.8 Q154.3 36.2 153.95 36.55 M147.25 50.2 L146.85 49.9 146.75 49.15 Q146.75 47.8 150.6 47.8 151.6 47.8 153.35 48.75 L147.25 50.2" fill="#8c847c" fill-rule="evenodd" stroke="none"/>
      <path d="M17.85 77.45 L17.7 77.4 17.6 76.1 17.65 76.1 20.75 76.5 21.45 76.4 20.6 75.9 22.0 75.8 Q22.2 75.45 22.2 74.0 L22.05 72.05 22.05 71.75 Q22.2 71.45 22.8 71.45 L23.85 71.7 24.55 72.4 23.8 72.85 24.05 73.5 Q24.05 75.15 23.45 76.35 22.8 77.5 21.9 77.5 L22.05 77.2 19.6 76.6 18.6 76.9 17.85 77.45 M9.9 64.15 Q8.4 62.6 7.25 62.05 L6.7 60.8 Q7.4 60.95 9.45 62.55 11.1 63.8 14.45 63.8 20.05 63.8 21.25 61.75 L22.0 59.75 Q22.5 58.45 23.45 57.6 L23.2 55.85 18.75 55.65 19.05 55.0 19.35 54.65 18.85 54.5 17.05 53.85 21.4 54.1 26.2 53.85 30.75 54.7 Q32.2 54.9 32.2 55.95 32.2 57.5 31.2 58.1 30.0 58.85 29.5 61.0 29.05 63.25 28.6 63.9 27.4 65.75 24.3 65.8 L23.0 65.85 19.05 65.95 18.1 65.75 Q18.45 65.45 20.3 64.9 22.25 64.3 23.15 63.65 L23.75 62.95 24.1 62.15 Q22.5 63.85 19.05 64.05 L9.9 64.15 M33.5 46.5 L33.75 46.95 33.8 47.1 33.5 46.5 M11.3 51.85 L14.65 53.15 12.75 52.65 11.5 52.0 11.3 51.85 M113.4 58.85 L113.9 58.1 115.85 58.4 116.55 58.5 118.65 58.95 120.2 64.05 Q120.75 65.8 120.75 66.65 120.75 69.2 119.3 71.7 117.45 74.95 114.25 74.95 L112.15 74.75 Q112.8 74.2 113.7 73.75 L115.0 73.1 116.45 71.7 117.75 70.15 Q111.95 72.2 109.3 72.05 L105.8 71.5 106.95 72.55 Q107.8 74.3 109.75 75.95 112.15 77.9 114.45 77.9 L112.85 78.35 Q111.45 78.35 109.05 77.4 106.2 76.25 104.3 75.95 L99.85 75.85 95.2 75.65 94.8 75.3 98.0 73.8 Q94.8 74.25 88.75 72.85 L87.95 71.85 87.55 70.75 87.4 69.55 89.3 71.05 Q90.9 72.15 91.45 72.2 92.2 72.05 92.1 70.9 L92.15 70.9 Q93.45 71.6 94.7 71.6 95.8 71.6 97.05 71.0 L98.4 70.25 98.75 69.55 97.4 69.2 Q96.65 69.0 96.6 68.7 L95.95 68.15 94.55 67.85 Q96.7 66.95 98.1 66.75 98.9 67.55 100.15 68.05 101.15 68.45 101.6 68.45 103.0 68.45 107.05 67.1 L108.55 66.5 108.15 66.9 107.45 67.8 106.1 69.75 Q108.6 70.0 109.0 70.65 109.35 71.25 110.8 71.25 114.1 71.25 115.65 70.15 116.75 69.4 116.75 68.35 L115.85 62.1 Q115.85 61.25 115.25 60.65 L113.4 58.85 M94.45 63.2 L94.05 62.8 94.45 62.15 92.9 62.1 Q92.35 62.15 92.05 62.65 L91.8 63.1 92.2 63.15 92.1 63.4 Q91.5 63.2 91.15 62.75 92.0 62.1 92.85 61.75 94.4 61.15 97.45 60.8 L98.1 61.8 Q97.5 62.3 94.45 63.2" fill="#a7a499" fill-rule="evenodd" stroke="none"/>
      <path d="M19.25 41.8 L21.25 42.1 22.15 42.25 23.5 42.45 23.5 42.5 19.75 43.15 Q16.65 43.5 15.8 43.2 L16.7 41.95 19.25 41.8 M31.05 44.3 L31.05 44.25 Q32.15 44.65 32.7 45.2 L33.45 46.4 33.5 46.5 33.8 47.1 34.15 48.5 34.15 48.55 31.4 50.6 Q29.05 51.95 26.45 51.95 L23.45 51.85 23.2 51.8 26.1 51.15 26.65 50.85 17.55 50.2 9.2 49.65 6.8 49.1 12.0 48.1 Q15.8 47.15 16.75 47.15 17.4 47.15 18.0 48.0 18.6 48.8 19.95 48.8 20.65 48.8 21.2 48.15 22.05 47.1 23.35 46.35 L23.45 46.35 25.1 46.15 27.6 46.45 Q27.7 47.4 27.15 49.1 L28.35 49.2 Q29.95 49.2 30.4 48.0 L31.05 44.3" fill="#b6b2a8" fill-rule="evenodd" stroke="none"/>
      <path d="M0.5 48.6 L0.45 48.6 Q1.15 47.25 2.5 45.7 L8.6 45.95 Q13.8 45.25 15.8 43.2 16.65 43.5 19.75 43.15 L23.5 42.5 24.85 42.75 25.3 42.8 31.05 44.3 30.4 48.0 Q29.95 49.2 28.35 49.2 L27.15 49.1 Q27.7 47.4 27.6 46.45 L25.1 46.15 23.45 46.35 26.75 44.8 21.45 43.8 Q20.8 43.8 19.4 44.35 17.45 45.15 17.45 46.35 L17.65 47.1 17.8 47.2 23.35 46.35 Q22.05 47.1 21.2 48.15 20.65 48.8 19.95 48.8 18.6 48.8 18.0 48.0 17.4 47.15 16.75 47.15 15.8 47.15 12.0 48.1 L6.8 49.1 0.5 48.6 M16.9 41.55 L19.25 41.8 16.7 41.95 16.9 41.55 M34.15 48.5 L34.2 48.65 34.15 48.55 34.15 48.5" fill="#c2beb3" fill-rule="evenodd" stroke="none"/>
      <path d="M34.55 52.0 L34.6 52.1 27.1 52.9 20.05 53.6 Q19.3 53.6 15.75 52.2 L10.2 50.05 9.2 49.65 17.55 50.2 26.65 50.85 26.1 51.15 23.2 51.8 23.45 51.85 26.45 51.95 Q29.05 51.95 31.4 50.6 L34.15 48.55 34.2 48.65 34.1 50.9 34.2 51.5 34.3 51.6 34.35 51.75 34.55 52.0" fill="#938f86" fill-rule="evenodd" stroke="none"/>
      <path d="M17.65 76.1 L18.0 73.15 Q19.65 73.1 21.0 72.15 22.15 71.35 22.4 70.55 L21.65 70.75 21.1 70.8 21.0 70.65 21.45 70.55 25.5 70.5 24.55 72.4 23.85 71.7 22.8 71.45 Q22.2 71.45 22.05 71.75 L22.05 72.05 22.2 74.0 Q22.2 75.45 22.0 75.8 L20.6 75.9 21.45 76.4 20.75 76.5 17.65 76.1 M1.3 56.75 Q0.0 53.85 0.0 51.15 L0.5 48.6 6.8 49.1 9.2 49.65 10.2 50.05 1.55 49.15 2.7 49.35 7.7 50.75 11.3 51.85 11.5 52.0 11.15 51.9 11.05 52.7 Q11.05 53.35 11.45 53.8 L12.4 54.5 Q9.95 54.2 8.65 55.25 8.2 55.6 7.5 56.8 L6.75 58.35 Q6.5 58.9 6.5 59.55 L6.7 60.2 Q7.05 60.85 7.6 60.85 L8.95 59.9 11.8 57.7 Q12.9 57.05 14.0 56.75 L16.75 56.45 17.65 56.55 Q19.85 56.95 20.1 56.15 L18.55 55.95 18.75 55.65 23.2 55.85 23.45 57.6 Q22.5 58.45 22.0 59.75 L21.25 61.75 Q20.05 63.8 14.45 63.8 11.1 63.8 9.45 62.55 7.4 60.95 6.7 60.8 6.4 60.1 4.95 59.3 L3.45 58.55 6.4 58.4 3.65 56.5 Q2.6 55.75 2.05 54.9 L2.15 55.45 2.0 56.2 1.3 56.75 M21.25 42.1 L21.7 42.15 22.15 42.25 21.25 42.1 M23.5 42.45 L24.85 42.75 23.5 42.5 23.5 42.45 M34.6 52.1 L34.65 52.15 34.85 52.4 34.6 52.1 M16.5 53.75 L14.65 53.15 11.3 51.85 16.5 53.75 M24.75 67.75 L28.9 67.5 24.75 67.85 24.75 67.75 M18.45 60.1 L18.85 60.25 Q19.4 60.2 19.75 59.8 L19.75 58.8 18.45 60.1 M22.8 67.95 L21.45 68.0 22.8 67.9 22.8 67.95 M113.9 58.1 L114.05 57.8 115.85 58.4 113.9 58.1 M109.0 57.45 L107.85 57.45 100.55 57.3 101.65 57.3 109.0 57.45 M103.95 58.75 L105.75 58.85 104.05 59.15 103.45 59.15 Q102.15 59.15 101.25 59.7 100.35 60.2 100.35 60.9 L99.4 61.95 Q97.75 63.5 97.75 64.0 97.75 64.65 98.0 65.0 L98.5 65.55 98.6 65.65 Q99.15 66.2 100.3 66.2 L104.45 66.65 100.75 66.8 99.65 66.4 97.8 65.85 98.1 66.75 Q96.7 66.95 94.55 67.85 L90.3 67.0 Q89.05 67.0 88.2 67.85 L88.05 68.35 Q88.05 69.4 89.25 70.15 90.4 70.9 92.1 70.9 92.2 72.05 91.45 72.2 90.9 72.15 89.3 71.05 L87.4 69.55 87.55 70.75 87.95 71.85 86.15 69.5 Q85.65 68.65 85.1 67.05 L84.65 65.35 Q84.65 64.75 84.9 64.25 L85.5 63.3 Q85.3 63.6 85.4 63.8 L85.55 64.0 Q86.5 63.7 89.8 61.7 93.35 59.95 96.4 60.45 97.45 60.65 99.65 59.7 L100.0 59.6 102.15 59.25 103.95 58.75 M108.45 65.85 L108.75 65.65 Q110.35 64.45 112.25 63.15 113.35 62.25 113.35 61.2 L113.05 60.1 112.3 59.3 113.4 58.85 115.25 60.65 Q115.85 61.25 115.85 62.1 L116.75 68.35 Q116.75 69.4 115.65 70.15 114.1 71.25 110.8 71.25 109.35 71.25 109.0 70.65 108.6 70.0 106.1 69.75 L107.45 67.8 108.2 69.1 Q108.65 69.6 109.65 69.6 114.8 69.6 114.8 67.2 L114.3 65.8 113.75 65.15 112.4 65.8 109.2 66.15 110.45 65.5 108.45 65.85 M108.55 66.5 L107.05 67.1 108.7 66.4 108.55 66.5 M96.6 68.7 Q96.65 69.0 97.4 69.2 L98.75 69.55 98.4 70.25 97.05 71.0 Q95.8 71.6 94.7 71.6 93.45 71.6 92.15 70.9 94.55 71.05 95.5 70.4 96.15 70.0 96.6 68.7 M87.25 61.25 L86.0 62.5 86.45 62.0 87.25 61.25 M92.1 63.4 Q92.25 64.55 93.6 64.55 L94.45 64.5 94.45 63.2 Q97.5 62.3 98.1 61.8 L97.45 60.8 Q94.4 61.15 92.85 61.75 92.0 62.1 91.15 62.75 91.5 63.2 92.1 63.4 M123.1 62.7 L122.55 61.95 Q123.45 62.85 124.0 64.4 L124.45 65.85 123.85 64.25 123.1 62.7" fill="#b2aea3" fill-rule="evenodd" stroke="none"/>
      <path d="M20.45 68.0 L17.5 67.8 24.75 67.75 24.75 67.85 24.8 68.2 22.8 68.25 22.8 67.95 22.8 67.9 21.45 68.0 20.55 68.0 20.45 68.0 M11.9 66.05 L9.9 64.15 19.05 64.05 Q22.5 63.85 24.1 62.15 L23.75 62.95 23.15 63.65 Q22.25 64.3 20.3 64.9 18.45 65.45 18.1 65.75 L19.05 65.95 23.0 65.85 19.4 66.5 16.35 66.95 11.9 66.05 M7.25 62.05 L4.85 60.9 2.75 59.4 1.65 57.5 1.25 56.75 1.3 56.75 2.0 56.2 2.15 55.45 2.05 54.9 Q2.6 55.75 3.65 56.5 L6.4 58.4 3.45 58.55 4.95 59.3 Q6.4 60.1 6.7 60.8 L7.25 62.05 M34.65 52.8 Q35.5 54.05 35.5 54.95 35.5 59.25 32.7 62.6 29.4 66.5 24.3 65.8 27.4 65.75 28.6 63.9 29.05 63.25 29.5 61.0 30.0 58.85 31.2 58.1 32.2 57.5 32.2 55.95 32.2 54.9 30.75 54.7 L26.2 53.85 34.65 52.8 M14.65 53.15 L16.5 53.75 17.05 53.85 18.85 54.5 12.4 54.5 11.45 53.8 Q11.05 53.35 11.05 52.7 L11.15 51.9 11.5 52.0 12.75 52.65 14.65 53.15 M21.9 78.15 L21.3 78.15 21.9 77.5 Q22.8 77.5 23.45 76.35 24.05 75.15 24.05 73.5 L25.0 75.35 25.75 74.5 26.65 73.7 26.65 74.1 26.5 74.95 26.4 75.25 25.35 76.95 25.0 77.25 25.15 76.35 25.0 75.35 24.95 77.3 Q24.0 77.95 21.9 78.15 M28.05 71.6 L28.1 72.55 27.7 72.9 28.05 71.6 M27.1 71.2 L27.4 71.35 26.75 72.8 27.1 71.2 M104.45 66.65 L105.55 66.8 Q107.25 66.7 108.45 65.85 L110.45 65.5 109.2 66.15 108.7 66.4 107.05 67.1 Q103.0 68.45 101.6 68.45 101.15 68.45 100.15 68.05 98.9 67.55 98.1 66.75 L97.8 65.85 99.65 66.4 100.75 66.8 104.45 66.65 M88.75 72.85 Q94.8 74.25 98.0 73.8 L94.8 75.3 95.2 75.65 99.85 75.85 104.3 75.95 Q106.2 76.25 109.05 77.4 111.45 78.35 112.85 78.35 L114.45 77.9 Q112.15 77.9 109.75 75.95 107.8 74.3 106.95 72.55 107.7 72.95 110.2 73.35 L115.0 73.1 113.7 73.75 Q112.8 74.2 112.15 74.75 L114.25 74.95 Q117.45 74.95 119.3 71.7 120.75 69.2 120.75 66.65 120.75 65.8 120.2 64.05 L118.65 58.95 120.35 59.9 120.8 60.25 122.55 61.95 123.1 62.7 123.45 65.9 123.65 69.05 Q123.65 69.8 122.25 70.45 120.4 71.35 119.35 72.85 117.55 75.4 116.8 75.8 L113.6 76.2 113.3 76.2 Q114.6 76.7 115.0 77.1 L115.15 77.5 Q113.4 79.55 111.1 79.3 L105.75 78.5 99.05 79.35 97.5 79.05 Q96.35 79.0 94.05 77.65 91.35 76.05 89.75 73.95 L88.75 72.85 M94.05 62.8 Q92.7 62.8 92.2 63.15 L91.8 63.1 92.05 62.65 Q92.35 62.15 92.9 62.1 L94.45 62.15 94.05 62.8 M117.4 80.3 L115.35 81.25 114.35 81.55 111.75 81.15 108.3 80.5 107.95 80.4 Q115.05 80.55 117.4 80.3" fill="#8b897f" fill-rule="evenodd" stroke="none"/>
      <path d="M20.75 78.15 L18.2 77.6 17.85 77.45 18.6 76.9 19.6 76.6 22.05 77.2 21.9 77.5 21.3 78.15 20.75 78.15 M17.5 67.8 L16.85 67.75 14.35 67.25 Q13.1 66.9 11.9 66.05 L16.35 66.95 19.4 66.5 23.0 65.85 24.3 65.8 Q29.4 66.5 32.7 62.6 35.5 59.25 35.5 54.95 35.5 54.05 34.65 52.8 L35.25 52.75 36.05 53.45 36.95 53.75 37.15 53.85 Q37.65 57.1 36.1 61.35 34.0 67.3 28.9 67.5 L24.75 67.75 17.5 67.8 M24.55 72.4 L25.5 70.5 25.65 70.45 25.95 70.45 26.3 70.5 26.65 70.65 27.1 71.2 26.75 72.8 27.4 71.35 28.05 71.6 27.7 72.9 27.5 72.95 26.85 72.95 26.3 73.1 26.1 73.35 26.65 73.7 25.75 74.5 25.0 75.35 24.05 73.5 23.8 72.85 24.55 72.4 M24.95 77.3 L25.0 75.35 25.15 76.35 25.0 77.25 24.95 77.3 M106.95 72.55 L105.8 71.5 109.3 72.05 Q111.95 72.2 117.75 70.15 L116.45 71.7 115.0 73.1 110.2 73.35 Q107.7 72.95 106.95 72.55 M99.05 79.35 L105.75 78.5 111.1 79.3 Q113.4 79.55 115.15 77.5 L115.0 77.1 Q114.6 76.7 113.3 76.2 L113.6 76.2 116.8 75.8 Q117.55 75.4 119.35 72.85 120.4 71.35 122.25 70.45 123.65 69.8 123.65 69.05 L123.45 65.9 123.1 62.7 123.85 64.25 124.45 65.85 124.45 66.0 124.45 66.05 124.5 66.55 Q125.85 71.45 122.55 75.95 L122.2 76.35 121.2 77.3 119.45 78.75 117.4 80.3 Q115.05 80.55 107.95 80.4 L107.45 80.3 99.05 79.35" fill="#68665f" fill-rule="evenodd" stroke="none"/>
      <path d="M19.4 71.05 L21.0 70.65 21.1 70.8 Q20.85 71.35 20.0 71.55 L19.55 71.35 19.5 71.25 19.4 71.05 M2.5 45.7 Q5.8 44.05 8.2 42.25 10.2 41.35 16.9 41.45 L16.9 41.55 16.7 41.95 15.8 43.2 Q13.8 45.25 8.6 45.95 L2.5 45.7 M10.2 50.05 L15.75 52.2 Q19.3 53.6 20.05 53.6 L27.1 52.9 34.6 52.1 34.85 52.4 35.25 52.75 34.65 52.8 26.2 53.85 21.4 54.1 17.05 53.85 16.5 53.75 11.3 51.85 7.7 50.75 2.7 49.35 1.55 49.15 10.2 50.05 M23.35 46.35 L17.8 47.2 17.65 47.1 17.45 46.35 Q17.45 45.15 19.4 44.35 20.8 43.8 21.45 43.8 L26.75 44.8 23.45 46.35 23.35 46.35 M12.4 54.5 L18.85 54.5 19.35 54.65 19.05 55.0 18.75 55.65 18.55 55.95 16.75 56.45 14.0 56.75 13.7 56.75 8.25 57.5 Q7.75 57.45 7.6 57.15 L7.5 56.8 Q8.2 55.6 8.65 55.25 9.95 54.2 12.4 54.5 M107.85 57.45 L103.95 58.75 102.15 59.25 100.0 59.6 91.9 59.9 90.15 59.75 90.5 59.1 90.85 58.95 Q92.65 58.25 96.2 57.6 L100.55 57.3 107.85 57.45 M105.75 58.85 L107.6 59.1 108.75 59.5 106.35 59.7 106.9 59.75 Q108.05 60.45 108.05 60.9 108.05 62.25 106.8 63.15 105.6 64.05 103.95 64.05 L102.25 63.6 102.05 63.45 Q103.55 65.3 107.35 64.95 L106.9 65.5 105.65 66.25 100.3 66.2 Q99.15 66.2 98.6 65.65 L98.5 65.55 98.45 64.85 Q98.45 63.45 99.4 61.95 L100.35 60.9 103.45 59.15 104.05 59.15 105.75 58.85 M108.15 66.9 L108.55 66.5 108.7 66.4 109.2 66.15 112.4 65.8 113.75 65.8 Q113.4 67.25 112.05 67.8 L109.25 68.2 108.35 68.1 108.05 68.0 108.15 66.9 M109.6 61.3 Q109.9 61.05 110.35 61.05 L111.15 61.3 111.45 61.9 111.15 62.5 110.35 62.75 109.6 62.5 Q109.25 62.25 109.25 61.9 109.25 61.55 109.6 61.3 M101.8 63.05 Q101.55 62.6 101.7 61.95 L101.5 62.55 101.8 63.05 M88.2 67.85 L92.4 67.95 96.45 68.5 94.95 69.1 92.3 69.5 89.1 69.05 88.05 68.35 88.2 67.85" fill="#d2cdc1" fill-rule="evenodd" stroke="none"/>
      <path d="M181.15 34.1 L182.05 35.6 182.9 37.8 182.9 37.9 Q182.95 40.3 181.1 42.35 L179.55 43.3 177.5 44.4 174.0 45.5 173.75 45.55 171.75 46.15 Q168.75 47.3 167.5 47.95 L167.15 48.25 166.2 49.15 164.75 50.35 163.75 50.8 161.65 51.15 160.4 51.2 158.9 51.15 157.6 51.1 156.7 51.05 154.05 51.05 153.6 51.15 153.3 51.2 151.55 51.6 146.4 53.05 141.25 52.55 131.85 52.2 130.1 52.3 124.3 52.9 123.9 53.0 121.05 53.55 120.15 53.75 116.4 54.7 112.5 55.7 108.55 56.4 108.6 56.35 107.9 56.45 103.5 56.9 96.2 57.5 90.85 57.75 86.55 57.75 79.5 57.4 73.0 56.8 72.2 56.75 66.05 56.3 60.75 56.35 55.35 56.4 51.85 56.05 51.45 56.0 45.7 55.65 37.75 54.4 37.15 53.85 36.95 53.75 36.05 53.45 35.25 52.75 34.85 52.4 34.65 52.15 49.75 53.65 67.65 54.1 70.35 54.3 73.85 54.7 80.25 55.75 89.85 56.15 Q100.75 56.15 109.3 54.25 L121.65 51.4 131.35 50.75 Q139.15 50.4 140.9 50.6 L147.25 50.2 153.35 48.75 158.15 48.25 Q162.4 47.55 166.65 45.4 168.45 44.6 175.7 43.85 182.05 42.45 182.05 38.0 182.05 36.7 181.15 34.1 M89.7 59.5 L88.25 60.4 86.45 61.25 Q84.9 62.05 83.65 64.15 L82.5 66.5 Q82.0 66.25 81.65 66.0 81.0 65.5 81.0 64.8 81.0 63.0 81.8 61.9 83.1 60.2 86.5 59.85 L89.7 59.5 M82.55 70.9 Q82.3 71.25 81.95 71.25 L81.35 70.9 81.1 70.0 Q81.1 69.5 81.35 69.15 81.6 68.75 81.95 68.75 82.3 68.75 82.55 69.15 L82.8 70.0 82.55 70.9" fill="#d2c8ba" fill-rule="evenodd" stroke="none"/>
      <path d="M58.85 115.0 Q57.45 115.7 55.6 115.7 52.4 115.15 50.65 114.15 49.55 106.1 49.55 88.45 49.55 79.0 50.75 72.7 51.95 66.35 51.95 59.8 L51.85 56.05 55.35 56.4 Q55.55 60.85 55.2 68.1 54.85 73.25 54.85 77.3 L55.05 83.8 Q56.2 96.15 57.05 102.35 L58.85 115.0 M37.15 53.85 L37.75 54.4 Q38.25 55.6 37.95 59.45 L37.9 59.8 37.85 60.15 Q35.45 66.1 33.7 67.75 31.8 69.5 27.4 69.5 22.0 68.9 20.55 68.0 L21.45 68.0 22.8 67.95 22.8 68.25 24.8 68.2 24.75 67.85 28.9 67.5 Q34.0 67.3 36.1 61.35 37.65 57.1 37.15 53.85 M116.4 54.7 L120.15 53.75 120.35 59.9 118.65 58.95 116.55 58.5 116.4 54.7 M26.15 78.4 L25.45 80.8 24.85 81.1 22.95 79.3 21.9 78.15 Q24.0 77.95 24.95 77.3 L25.0 77.25 25.35 76.95 26.4 75.25 26.15 78.4 M97.5 79.05 L99.05 79.35 107.45 80.3 107.95 80.4 108.3 80.5 111.75 81.15 114.35 81.55 115.35 81.25 117.4 80.3 119.45 78.75 118.9 82.15 Q118.55 83.55 117.4 85.3 116.35 88.5 115.5 95.0 L114.8 102.5 113.7 106.45 113.95 99.2 Q113.95 98.75 114.1 98.65 L113.65 98.65 112.9 93.1 Q111.95 87.5 110.1 87.5 109.7 87.5 109.6 87.65 109.0 84.1 108.35 83.25 107.8 82.55 105.35 82.0 103.6 81.6 102.4 80.8 101.45 80.15 100.45 80.15 98.4 80.15 97.5 80.75 96.9 81.1 96.25 82.25 L96.15 82.65 94.75 91.55 94.75 89.65 94.7 83.75 Q94.7 81.8 95.55 80.45 96.35 79.05 97.5 79.05 M122.2 76.35 L121.85 77.25 121.2 77.3 122.2 76.35 M115.55 90.2 L116.15 87.0 Q114.45 90.0 114.55 91.75 L114.65 95.7 114.75 94.75 115.55 90.2" fill="#635b52" fill-rule="evenodd" stroke="none"/>
      <path d="M18.0 73.15 L18.5 71.95 19.4 71.05 19.5 71.25 19.55 71.35 20.0 71.55 Q20.85 71.35 21.1 70.8 L21.65 70.75 22.4 70.55 Q22.15 71.35 21.0 72.15 19.65 73.1 18.0 73.15 M18.55 55.95 L20.1 56.15 Q19.85 56.95 17.65 56.55 L16.75 56.45 18.55 55.95 M14.0 56.75 Q12.9 57.05 11.8 57.7 L8.95 59.9 7.6 60.85 Q7.05 60.85 6.7 60.2 L6.5 59.55 Q6.5 58.9 6.75 58.35 L7.5 56.8 7.6 57.15 Q7.75 57.45 8.25 57.5 L13.7 56.75 14.0 56.75 M18.45 60.1 L19.75 58.8 19.75 59.8 Q19.4 60.2 18.85 60.25 L18.45 60.1 M113.9 58.1 L113.4 58.85 112.3 59.3 113.05 60.1 113.35 61.2 Q113.35 62.25 112.25 63.15 110.35 64.45 108.75 65.65 L108.45 65.85 Q107.25 66.7 105.55 66.8 L104.45 66.65 100.3 66.2 105.65 66.25 106.9 65.5 107.35 64.95 Q103.55 65.3 102.05 63.45 L102.25 63.6 103.95 64.05 Q105.6 64.05 106.8 63.15 108.05 62.25 108.05 60.9 108.05 60.45 106.9 59.75 L106.35 59.7 108.75 59.5 107.6 59.1 105.75 58.85 103.95 58.75 107.85 57.45 109.0 57.45 112.5 57.5 114.05 57.5 114.05 57.8 113.9 58.1 M107.45 67.8 L108.15 66.9 108.05 68.0 108.35 68.1 109.25 68.2 112.05 67.8 Q113.4 67.25 113.75 65.8 L112.4 65.8 113.75 65.15 114.3 65.8 114.8 67.2 Q114.8 69.6 109.65 69.6 108.65 69.6 108.2 69.1 L107.45 67.8 M94.55 67.85 L95.95 68.15 96.6 68.7 Q96.15 70.0 95.5 70.4 94.55 71.05 92.15 70.9 L92.1 70.9 Q90.4 70.9 89.25 70.15 88.05 69.4 88.05 68.35 L89.1 69.05 92.3 69.5 94.95 69.1 96.45 68.5 92.4 67.95 88.2 67.85 Q89.05 67.0 90.3 67.0 L94.55 67.85 M109.6 61.3 Q109.25 61.55 109.25 61.9 109.25 62.25 109.6 62.5 L110.35 62.75 111.15 62.5 111.45 61.9 111.15 61.3 110.35 61.05 Q109.9 61.05 109.6 61.3 M103.45 59.15 L100.35 60.9 Q100.35 60.2 101.25 59.7 102.15 59.15 103.45 59.15 M99.4 61.95 Q98.45 63.45 98.45 64.85 L98.5 65.55 98.0 65.0 Q97.75 64.65 97.75 64.0 97.75 63.5 99.4 61.95 M100.0 59.6 L99.65 59.7 Q97.45 60.65 96.4 60.45 93.35 59.95 89.8 61.7 86.5 63.7 85.55 64.0 L85.4 63.8 Q85.3 63.6 85.5 63.3 L85.55 63.25 85.55 63.2 85.6 63.0 86.0 62.5 87.25 61.25 88.25 60.4 89.7 59.5 90.5 59.1 90.15 59.75 91.9 59.9 100.0 59.6 M94.05 62.8 L94.45 63.2 94.45 64.5 93.6 64.55 Q92.25 64.55 92.1 63.4 L92.2 63.15 Q92.7 62.8 94.05 62.8 M101.8 63.05 L101.5 62.55 101.7 61.95 Q101.55 62.6 101.8 63.05" fill="#bdb9ae" fill-rule="evenodd" stroke="none"/>
      <path d="M21.4 78.75 L20.75 78.15 21.3 78.15 21.9 78.15 22.95 79.3 21.4 78.75 M21.1 68.95 L20.45 68.0 20.55 68.0 Q22.0 68.9 27.4 69.5 31.8 69.5 33.7 67.75 35.45 66.1 37.85 60.15 L37.9 60.45 37.75 63.2 37.45 62.75 37.0 64.0 Q37.1 65.45 36.05 67.65 32.8 70.5 28.4 70.5 L25.95 70.45 25.65 70.45 23.45 69.85 21.1 68.95 M112.5 55.7 L116.4 54.7 116.55 58.5 115.85 58.4 114.05 57.8 114.05 57.5 112.5 57.5 112.5 55.7 M37.9 59.8 L37.95 59.45 37.95 59.8 37.9 59.8 M28.1 72.55 Q28.55 73.35 28.2 74.7 27.7 74.7 27.35 75.5 26.95 76.3 26.95 77.4 L26.15 78.4 26.4 75.25 26.5 74.95 26.65 74.1 26.65 73.7 26.1 73.35 26.3 73.1 26.85 72.95 27.5 72.95 27.7 72.9 28.1 72.55 M89.75 73.95 Q91.35 76.05 94.05 77.65 96.35 79.0 97.5 79.05 96.35 79.05 95.55 80.45 94.7 81.8 94.7 83.75 L94.0 85.05 93.3 80.95 Q92.7 77.95 90.8 76.4 L88.5 73.9 89.75 73.95 M121.85 77.25 L121.45 80.85 Q121.15 81.55 118.9 82.15 L119.45 78.75 121.2 77.3 121.85 77.25 M117.4 85.3 L117.95 94.2 114.8 102.5 115.5 95.0 Q116.35 88.5 117.4 85.3 M115.55 90.2 L114.75 94.75 114.65 95.7 114.55 91.75 Q114.45 90.0 116.15 87.0 L115.55 90.2 M108.75 131.6 Q107.15 125.3 107.15 123.55 107.15 122.4 108.05 115.65 108.95 108.9 108.95 102.45 L108.8 84.25 105.5 84.1 Q104.5 82.45 102.75 82.1 L99.65 81.9 96.25 82.25 Q96.9 81.1 97.5 80.75 98.4 80.15 100.45 80.15 101.45 80.15 102.4 80.8 103.6 81.6 105.35 82.0 107.8 82.55 108.35 83.25 109.0 84.1 109.6 87.65 109.7 87.5 110.1 87.5 111.95 87.5 112.9 93.1 L113.65 98.65 114.1 98.65 Q113.95 98.75 113.95 99.2 L113.7 106.45 112.15 114.75 111.6 118.3 111.5 118.9 108.75 131.6" fill="#7c7367" fill-rule="evenodd" stroke="none"/>
      <path d="M140.55 167.0 L138.45 166.85 135.9 166.75 137.15 166.75 Q137.1 166.2 137.2 165.9 L137.3 165.65 Q137.65 165.1 138.1 162.75 L138.55 159.75 138.9 160.1 139.75 161.3 Q140.45 162.6 140.55 164.15 L140.55 167.0 M123.3 139.3 Q123.4 136.2 121.3 132.95 119.1 129.45 116.3 129.45 115.05 129.45 108.5 132.1 102.0 134.7 99.8 134.7 98.85 134.7 98.4 134.05 97.75 133.2 97.75 130.95 98.35 123.7 98.15 121.35 97.85 117.75 93.65 117.75 91.15 117.75 88.85 120.65 86.8 123.3 83.05 122.5 L84.5 100.95 85.9 76.1 87.25 76.35 Q88.65 76.3 89.1 75.8 L88.3 75.3 Q86.05 72.6 86.15 69.5 L87.95 71.85 88.75 72.85 89.75 73.95 88.5 73.9 90.8 76.4 Q90.8 94.7 90.25 109.9 L90.7 108.3 Q91.8 102.45 93.7 95.6 L94.4 96.9 94.75 89.65 94.75 91.55 96.15 82.65 97.15 108.55 Q97.25 111.1 97.5 111.75 99.15 116.15 99.95 119.3 L100.15 118.35 101.6 102.95 103.0 88.0 Q104.45 88.15 105.2 87.55 105.8 87.05 105.8 86.35 105.8 85.65 104.7 84.55 103.6 83.5 103.0 83.55 L102.75 82.1 Q104.5 82.45 105.5 84.1 L108.8 84.25 108.95 102.45 Q108.95 108.9 108.05 115.65 107.15 122.4 107.15 123.55 107.15 125.3 108.75 131.6 L108.7 131.75 110.55 130.5 Q112.35 128.8 112.25 126.5 L112.15 121.0 114.0 129.7 115.15 129.5 112.05 120.55 112.15 120.8 112.15 114.75 113.7 106.45 114.8 102.5 117.95 94.2 118.65 91.7 119.55 92.9 Q120.75 101.4 122.8 112.45 L126.05 130.9 126.95 125.65 126.95 129.35 Q126.85 134.7 125.15 136.95 L125.1 137.0 123.3 139.3 M78.25 121.1 Q76.85 119.9 75.1 117.5 72.0 113.35 72.3 110.6 L70.2 111.2 67.8 111.6 66.75 111.4 65.35 110.7 Q67.0 93.3 63.75 86.7 63.2 85.65 62.65 80.0 62.1 74.35 62.1 70.0 62.1 65.35 63.85 61.05 L66.05 56.3 72.2 56.75 72.6 56.8 69.1 58.2 70.05 58.25 Q76.55 60.65 77.95 67.5 78.65 71.05 78.2 75.3 L78.25 121.1 M42.7 82.1 L39.75 79.8 Q35.95 77.35 31.7 77.35 28.35 77.35 27.1 81.75 L26.3 84.8 Q25.75 86.15 24.75 86.15 22.5 86.15 21.7 83.15 21.1 81.0 21.4 78.75 L22.95 79.3 24.85 81.1 25.45 80.8 26.15 78.4 26.95 77.4 Q28.8 77.1 29.5 74.6 29.45 74.1 28.85 74.35 L28.2 74.7 Q28.55 73.35 28.1 72.55 L28.05 71.6 27.4 71.35 27.1 71.2 26.65 70.65 26.3 70.5 25.95 70.45 28.4 70.5 Q32.8 70.5 36.05 67.65 L35.5 68.45 35.4 69.15 Q35.4 69.8 35.7 69.95 L36.4 70.25 37.65 69.7 37.95 64.4 37.75 63.2 37.9 60.45 38.15 62.85 39.7 62.75 39.85 62.2 Q39.65 60.75 39.2 60.25 38.85 59.85 37.95 59.8 L37.95 59.45 Q38.25 55.6 37.75 54.4 L45.7 55.65 Q45.75 58.55 44.45 66.2 42.95 74.8 42.7 79.35 L42.7 82.1 M21.45 70.55 L21.1 68.95 23.45 69.85 25.65 70.45 25.5 70.5 21.45 70.55 M86.55 57.75 L90.85 57.75 90.85 58.95 90.5 59.1 89.7 59.5 86.5 59.85 86.55 57.75 M103.5 56.9 L107.9 56.45 108.55 56.4 112.5 55.7 112.5 57.5 109.0 57.45 101.65 57.3 102.6 57.0 103.5 56.9 M32.55 70.9 Q32.0 70.35 31.3 70.35 30.6 70.35 30.1 70.9 29.55 71.4 29.55 72.1 29.55 72.8 30.1 73.35 30.6 73.85 31.3 73.85 32.0 73.85 32.55 73.35 33.05 72.8 33.05 72.1 33.05 71.4 32.55 70.9 M40.1 57.7 L40.45 57.15 39.45 57.5 39.7 57.75 40.1 57.7 M39.1 66.8 L39.35 67.15 39.8 67.5 Q40.2 67.4 40.1 65.8 L39.1 66.8 M24.2 80.65 Q23.8 80.25 23.3 80.25 22.8 80.25 22.45 80.65 22.05 81.0 22.05 81.5 22.05 82.0 22.45 82.4 22.8 82.75 23.3 82.75 23.8 82.75 24.2 82.4 L24.55 81.5 Q24.55 81.0 24.2 80.65 M88.25 60.4 L87.25 61.25 86.45 62.0 86.45 61.25 88.25 60.4 M111.5 118.9 L111.6 118.3 112.05 120.55 111.5 118.9 M107.6 87.95 L107.85 87.45 107.6 86.95 106.95 86.75 106.35 86.95 Q106.05 87.15 106.05 87.45 L106.35 87.95 106.95 88.15 107.6 87.95" fill="#9b9286" fill-rule="evenodd" stroke="none"/>
      <path d="M182.9 37.8 L185.25 41.15 183.35 38.4 182.9 37.9 182.9 37.8 M185.9 77.0 L185.5 79.15 185.8 77.3 185.9 77.0 M140.55 168.55 L140.55 167.0 140.55 164.15 140.6 166.0 140.55 168.55 M135.9 166.75 L135.7 166.75 137.3 165.65 137.2 165.9 Q137.1 166.2 137.15 166.75 L135.9 166.75 M122.25 147.05 L122.1 144.4 122.2 142.85 122.25 147.05 M50.65 114.15 L50.25 113.85 48.6 111.9 Q47.95 110.55 47.45 108.8 L47.1 107.35 Q46.9 104.6 47.0 104.05 L47.15 88.3 Q47.15 85.45 46.45 84.2 45.6 82.65 43.15 82.5 L42.7 82.45 42.7 82.1 42.7 79.35 Q42.95 74.8 44.45 66.2 45.75 58.55 45.7 55.65 L51.45 56.0 51.85 56.05 51.95 59.8 Q51.95 66.35 50.75 72.7 49.55 79.0 49.55 88.45 49.55 106.1 50.65 114.15 M73.0 56.8 L79.5 57.4 80.0 57.45 Q79.6 68.95 79.7 87.65 L79.05 80.5 78.2 75.3 Q78.65 71.05 77.95 67.5 76.55 60.65 70.05 58.25 L69.1 58.2 72.6 56.8 73.0 56.8 M90.85 57.75 L96.2 57.5 96.2 57.6 Q92.65 58.25 90.85 58.95 L90.85 57.75 M122.75 77.15 L122.9 78.35 123.0 79.7 122.75 77.15 M127.35 75.4 L127.5 74.55 127.1 78.35 127.35 75.4 M55.05 83.8 L54.85 77.3 Q54.85 73.25 55.2 68.1 L55.05 83.8 M90.8 76.4 Q92.7 77.95 93.3 80.95 L94.0 85.05 94.7 83.75 94.75 89.65 94.4 96.9 93.7 95.6 Q91.8 102.45 90.7 108.3 L90.25 109.9 Q90.8 94.7 90.8 76.4 M136.6 80.1 L136.45 79.7 136.75 75.65 136.85 75.75 136.6 80.1 M108.75 131.6 L111.5 118.9 112.05 120.55 111.6 118.3 112.15 114.75 112.15 120.8 112.05 120.55 112.15 121.0 112.25 126.5 Q112.35 128.8 110.55 130.5 L108.7 131.75 108.75 131.6 M132.65 151.75 L132.65 155.0 132.55 156.35 132.6 153.4 132.55 154.25 132.65 151.75 M183.65 51.6 L183.6 48.65 183.8 51.35 183.75 51.5 183.65 51.6 M170.35 128.7 L170.25 123.55 170.35 121.7 170.35 128.7 M169.85 112.15 L169.7 118.2 169.75 109.15 169.85 112.15 M166.25 75.4 L166.3 81.85 166.25 84.2 166.2 77.35 166.25 75.4 M144.15 166.8 L143.9 166.6 144.15 162.6 144.15 166.8 M144.15 167.65 L143.85 167.7 144.55 167.55 144.15 167.65" fill="#898074" fill-rule="evenodd" stroke="none"/>
      <path d="M185.25 41.15 L185.3 41.25 185.45 41.45 186.0 42.3 185.95 42.35 Q184.7 42.8 184.35 43.4 L183.0 45.6 182.6 45.8 Q183.15 42.35 183.35 38.4 L185.25 41.15 M185.5 79.15 L184.65 82.9 184.45 77.0 185.8 77.3 185.5 79.15 M183.05 89.65 Q181.95 98.25 181.6 107.25 181.35 113.45 179.4 123.4 177.95 130.65 177.7 137.05 L177.4 142.55 175.95 145.4 Q175.1 145.8 173.7 147.1 L171.25 148.95 170.45 148.8 169.95 149.2 169.95 149.45 Q167.45 150.8 166.55 157.25 166.05 161.05 165.3 169.85 164.3 177.4 161.55 180.55 158.0 184.65 150.7 182.65 L148.5 182.5 147.5 165.85 Q147.25 160.95 147.25 152.25 147.5 141.25 147.2 136.95 147.0 134.15 144.75 130.5 142.6 127.0 142.6 125.5 L142.75 123.4 141.85 114.5 Q141.5 110.0 141.9 106.85 L142.3 103.2 Q142.85 114.55 144.3 122.45 L144.85 123.7 Q145.1 122.55 145.15 119.05 L145.1 108.6 145.65 111.45 146.05 110.55 148.45 123.6 148.4 123.55 148.65 124.65 149.2 126.95 149.45 129.25 148.45 142.2 148.6 155.5 Q148.9 143.95 151.8 130.55 156.35 113.45 156.55 110.05 L156.35 117.25 Q156.35 119.1 157.4 126.15 158.55 133.75 159.55 137.7 L159.85 137.6 Q162.1 135.35 162.95 127.4 L163.75 115.25 164.8 102.55 165.15 91.0 Q165.4 95.5 165.05 124.3 164.85 140.1 167.85 139.95 L167.9 139.85 Q167.7 135.3 168.35 125.3 168.9 116.9 169.75 109.15 L169.7 118.2 169.85 112.15 170.25 123.55 170.35 128.7 170.4 133.15 170.5 138.0 Q170.55 140.0 170.75 140.4 L171.55 140.0 Q172.05 139.65 172.2 139.65 L173.85 142.0 Q175.65 140.6 176.6 135.0 177.3 130.85 177.3 126.8 L177.5 92.35 177.65 77.65 175.85 75.6 Q174.55 72.85 171.9 71.85 169.05 71.15 167.95 70.4 L167.6 70.2 166.6 69.75 166.3 81.85 166.25 75.4 166.2 70.3 165.3 70.0 162.75 72.45 Q161.2 73.65 160.9 76.65 L160.65 80.1 160.5 78.9 Q160.65 67.25 160.4 51.2 L161.65 51.15 Q161.2 58.95 161.2 62.05 L161.3 64.25 161.6 64.65 Q162.25 63.65 162.75 61.0 163.55 57.1 163.75 50.8 L164.75 50.35 162.75 67.25 Q162.65 68.2 163.3 68.5 166.45 66.7 166.2 49.15 L167.15 48.25 166.9 55.85 166.75 62.25 Q166.75 64.05 168.15 65.5 L169.0 63.95 169.8 61.95 170.9 66.15 172.05 68.15 Q172.75 69.2 173.4 69.2 176.45 69.2 177.25 58.35 L177.5 47.5 Q178.5 47.5 177.5 44.4 L179.55 43.3 181.1 42.35 181.15 43.3 180.35 45.15 Q179.5 47.0 179.5 48.65 L179.75 52.2 181.9 51.85 183.65 51.6 183.4 62.5 182.15 62.7 Q182.95 66.6 179.45 69.1 175.9 71.6 171.15 70.2 L169.25 70.1 Q170.45 70.85 174.9 71.4 L180.1 71.75 Q180.85 71.75 181.15 71.05 181.65 69.9 183.25 68.8 L183.05 89.65 M148.35 182.5 L146.85 182.35 140.6 180.1 Q140.0 179.8 140.0 178.8 140.55 173.75 140.55 168.55 L140.6 166.0 143.85 166.6 144.1 157.9 144.15 159.65 144.15 162.6 143.9 166.6 144.15 166.8 144.55 167.55 143.85 167.7 Q143.75 173.7 144.15 180.9 L145.05 181.1 148.25 182.45 148.35 182.5 M128.75 167.95 L124.65 167.95 124.4 167.95 Q124.45 164.25 125.55 162.6 L127.75 158.95 128.1 157.2 Q128.85 160.75 128.75 167.9 L128.75 167.95 M122.75 151.85 L122.8 151.25 122.7 151.0 122.5 143.35 123.0 143.8 124.1 142.8 124.15 150.25 123.95 156.95 Q123.7 158.8 123.0 159.7 L122.75 151.85 M120.15 53.75 L121.05 53.55 120.8 60.25 120.35 59.9 120.15 53.75 M123.9 53.0 L124.3 52.9 124.65 53.2 123.9 53.0 M130.1 52.3 L131.85 52.2 Q135.45 53.15 136.95 55.4 137.8 56.6 138.3 58.1 138.95 58.9 139.25 62.45 L139.45 66.75 139.45 73.55 Q139.3 78.45 141.75 83.4 144.85 89.6 145.9 96.8 L147.0 106.4 146.05 110.55 145.1 103.8 145.3 98.25 Q145.3 96.7 143.85 93.95 L141.45 89.85 141.2 89.4 141.55 91.8 140.45 88.6 Q136.95 83.35 136.65 81.25 L136.6 80.1 136.85 75.75 Q137.45 69.65 137.45 65.55 L137.25 60.65 136.4 57.65 Q135.8 55.25 133.3 53.85 L130.1 52.3 M128.55 54.3 L129.5 55.8 Q129.75 58.25 129.15 83.4 128.5 83.35 128.0 82.75 127.05 81.55 127.1 78.35 L127.5 74.55 127.85 71.65 127.95 68.45 127.9 68.1 127.9 66.6 Q127.9 58.75 128.55 54.3 M131.4 66.8 Q131.95 71.55 131.85 80.1 L131.95 81.75 Q132.4 77.4 132.6 68.25 132.75 60.05 133.3 56.65 134.8 57.5 134.9 59.2 L134.8 66.4 135.1 79.5 Q133.6 80.75 132.6 82.3 132.1 83.05 130.8 83.25 L131.4 66.8 M126.9 114.9 L126.95 106.45 126.7 101.25 126.2 95.6 Q128.15 97.65 127.9 105.25 L127.45 114.8 126.9 114.9 M125.55 92.65 L125.05 90.9 124.85 85.15 126.05 84.5 126.4 87.1 126.6 85.7 Q126.9 84.25 127.35 84.2 128.7 84.85 129.2 87.45 L129.8 91.55 130.25 89.75 Q130.55 88.65 131.15 88.25 L131.85 90.7 133.2 99.3 Q132.8 115.4 131.3 124.45 L129.25 137.55 126.9 136.6 Q126.1 136.4 125.1 137.0 L125.15 136.95 Q126.85 134.7 126.95 129.35 128.1 127.05 128.7 123.45 129.85 116.9 129.85 101.25 129.85 93.6 128.8 92.55 L127.5 92.7 125.55 92.65 M135.45 109.55 L135.45 108.35 135.45 101.6 135.45 94.9 136.0 98.3 136.2 101.3 135.95 107.65 135.35 116.6 135.45 109.55 M134.3 89.85 Q134.3 89.05 134.8 86.1 135.25 83.05 135.55 82.2 L135.85 83.3 135.0 90.2 134.3 89.85 M183.8 51.35 Q183.95 52.15 184.85 54.2 185.6 55.95 185.6 57.1 185.6 59.25 184.9 60.6 L183.9 62.2 183.75 51.5 183.8 51.35 M154.85 109.95 L155.5 109.7 155.05 113.5 Q154.65 117.05 152.9 120.25 L154.85 109.95 M150.2 124.5 L151.45 122.9 152.4 121.55 Q152.4 122.75 151.75 123.65 151.1 124.5 150.2 124.5 M165.25 146.3 L164.55 145.7 163.6 145.45 159.75 148.65 Q158.6 149.45 155.55 149.65 L154.2 150.5 152.6 152.3 Q151.9 153.1 151.65 154.8 151.1 158.2 151.1 178.1 151.1 179.1 151.55 180.7 152.45 180.6 152.8 180.1 L153.2 179.2 Q153.4 178.85 154.35 178.85 L156.8 179.55 Q157.8 179.9 160.15 178.3 L160.55 178.05 161.5 177.1 Q161.85 176.3 161.85 173.55 L161.5 170.65 160.9 167.45 Q160.45 165.65 160.45 163.55 L160.55 155.15 159.3 155.1 157.3 155.15 156.3 155.0 156.15 154.45 161.55 151.3 Q163.1 151.3 164.2 149.85 165.25 148.35 165.25 146.3 M143.75 167.75 Q141.6 168.25 141.25 169.35 141.0 170.15 140.55 176.95 L142.0 176.05 Q142.15 173.6 142.95 170.7 L143.75 167.75 M124.75 142.15 L126.4 141.15 126.25 146.1 125.75 151.35 124.75 142.15 M132.55 156.35 L132.65 155.0 Q132.65 160.45 132.3 163.35 L132.55 156.35" fill="#726a60" fill-rule="evenodd" stroke="none"/>
      <path d="M131.95 167.65 L131.7 167.7 128.75 167.95 128.75 167.9 Q128.85 160.75 128.1 157.2 L127.75 158.95 125.55 162.6 Q124.45 164.25 124.4 167.95 L122.95 167.9 Q122.35 157.85 122.5 154.85 L122.75 151.85 123.0 159.7 Q123.7 158.8 123.95 156.95 L124.15 150.25 124.1 142.8 124.75 142.15 125.75 151.35 126.25 146.1 126.4 141.15 127.4 141.05 Q130.8 141.05 131.6 146.5 132.1 149.7 132.25 157.8 L132.25 158.15 132.55 154.25 132.6 153.4 132.55 156.35 132.3 163.35 131.95 167.65 M122.7 151.0 Q122.4 149.2 122.25 147.05 L122.2 142.85 122.5 143.35 122.7 151.0 M121.05 53.55 L123.9 53.0 124.65 53.2 Q125.9 54.45 126.35 55.45 126.85 56.7 126.85 59.05 L127.3 63.65 127.3 63.1 Q127.25 55.8 128.1 54.05 L128.55 54.3 Q127.9 58.75 127.9 66.6 L127.9 68.1 127.95 68.45 127.85 71.65 127.5 74.55 127.35 75.4 127.4 73.25 Q126.55 75.05 124.55 74.75 L125.6 80.9 125.55 81.05 122.9 78.35 122.75 77.15 122.55 75.95 Q125.85 71.45 124.5 66.55 L124.45 66.05 124.45 66.0 124.45 65.85 124.0 64.4 Q123.45 62.85 122.55 61.95 L120.8 60.25 121.05 53.55 M129.5 55.8 L130.0 55.9 131.65 55.9 131.85 56.05 132.0 56.75 131.65 60.7 131.15 65.2 131.4 66.8 130.8 83.25 129.15 83.4 Q129.75 58.25 129.5 55.8 M133.3 56.65 L133.7 56.25 Q134.35 56.35 134.95 56.95 135.55 57.5 136.4 57.65 L137.25 60.65 137.45 65.55 Q137.45 69.65 136.85 75.75 L136.75 75.65 136.45 79.7 Q136.05 79.2 135.1 79.5 L134.8 66.4 134.9 59.2 Q134.8 57.5 133.3 56.65 M126.95 125.65 L126.9 114.9 127.45 114.8 127.9 105.25 Q128.15 97.65 126.2 95.6 L125.55 92.65 127.5 92.7 128.8 92.55 Q129.85 93.6 129.85 101.25 129.85 116.9 128.7 123.45 128.1 127.05 126.95 129.35 L126.95 125.65 M125.05 90.9 Q123.6 85.8 123.3 84.0 L124.85 85.15 125.05 90.9 M133.2 99.3 L133.8 105.8 133.95 110.35 132.85 122.85 Q133.65 120.8 134.45 116.8 135.3 112.65 135.45 109.55 L135.35 116.6 Q135.2 128.05 134.3 138.5 L132.65 155.0 132.65 151.75 132.65 132.25 Q132.35 132.8 131.9 135.3 131.55 137.55 130.8 138.3 130.4 138.3 129.25 137.55 L131.3 124.45 Q132.8 115.4 133.2 99.3 M135.45 101.6 L134.7 99.4 Q134.15 97.95 134.15 94.95 L134.3 89.85 135.0 90.2 Q135.4 90.4 135.45 94.9 L135.45 101.6 M135.55 82.2 L136.25 81.5 135.95 84.15 135.85 83.3 135.55 82.2 M148.45 123.6 L146.05 110.55 145.65 111.45 145.1 108.6 145.1 103.8 146.05 110.55 147.0 106.4 Q149.85 100.15 151.0 82.3 151.55 74.15 152.1 51.5 152.0 80.2 151.5 104.8 151.5 106.8 152.0 107.25 L152.85 107.65 153.6 107.5 155.45 103.35 155.5 104.75 155.25 106.65 154.85 109.95 152.9 120.25 152.4 121.55 151.45 122.9 150.2 124.5 148.45 123.6" fill="#625954" fill-rule="evenodd" stroke="none"/>
      <path d="M186.0 42.3 L186.65 44.0 187.55 50.95 Q188.15 55.0 188.15 58.7 188.15 61.3 187.25 67.2 L185.9 77.0 185.8 77.3 184.45 77.0 184.65 82.9 183.95 86.5 183.05 89.65 183.25 68.8 Q181.65 69.9 181.15 71.05 180.85 71.75 180.1 71.75 L174.9 71.4 Q170.45 70.85 169.25 70.1 L171.15 70.2 Q175.9 71.6 179.45 69.1 182.95 66.6 182.15 62.7 L183.4 62.5 183.65 51.6 181.9 51.85 179.75 52.2 179.5 48.65 Q179.5 47.0 180.35 45.15 L181.15 43.3 181.1 42.35 Q182.95 40.3 182.9 37.9 L183.35 38.4 Q183.15 42.35 182.6 45.8 L183.0 45.6 184.35 43.4 Q184.7 42.8 185.95 42.35 L186.0 42.3 M122.2 142.85 L122.7 140.5 123.3 139.3 125.1 137.0 Q126.1 136.4 126.9 136.6 L129.25 137.55 Q130.4 138.3 130.8 138.3 131.55 137.55 131.9 135.3 132.35 132.8 132.65 132.25 L132.65 151.75 132.55 154.25 132.25 158.15 132.25 157.8 Q132.1 149.7 131.6 146.5 130.8 141.05 127.4 141.05 L126.4 141.15 124.75 142.15 124.1 142.8 123.0 143.8 122.5 143.35 122.2 142.85 M124.3 52.9 L130.1 52.3 133.3 53.85 Q135.8 55.25 136.4 57.65 135.55 57.5 134.95 56.95 134.35 56.35 133.7 56.25 L133.3 56.65 Q132.75 60.05 132.6 68.25 132.4 77.4 131.95 81.75 L131.85 80.1 Q131.95 71.55 131.4 66.8 L131.15 65.2 131.65 60.7 132.0 56.75 131.85 56.05 131.65 55.9 130.0 55.9 129.5 55.8 128.55 54.3 128.1 54.05 Q127.25 55.8 127.3 63.1 L127.3 63.65 126.85 59.05 Q126.85 56.7 126.35 55.45 125.9 54.45 124.65 53.2 L124.3 52.9 M161.65 51.15 L163.75 50.8 Q163.55 57.1 162.75 61.0 162.25 63.65 161.6 64.65 L161.3 64.25 161.2 62.05 Q161.2 58.95 161.65 51.15 M122.9 78.35 L125.55 81.05 125.6 80.9 124.55 74.75 Q126.55 75.05 127.4 73.25 L127.35 75.4 127.1 78.35 Q127.05 81.55 128.0 82.75 128.5 83.35 129.15 83.4 L130.8 83.25 Q132.1 83.05 132.6 82.3 133.6 80.75 135.1 79.5 136.05 79.2 136.45 79.7 L136.6 80.1 136.65 81.25 136.25 81.5 135.55 82.2 Q135.25 83.05 134.8 86.1 134.3 89.05 134.3 89.85 L134.15 94.95 Q134.15 97.95 134.7 99.4 L135.45 101.6 135.45 108.35 135.45 109.55 Q135.3 112.65 134.45 116.8 133.65 120.8 132.85 122.85 L133.95 110.35 133.8 105.8 133.2 99.3 131.85 90.7 131.15 88.25 Q130.55 88.65 130.25 89.75 L129.8 91.55 129.2 87.45 Q128.7 84.85 127.35 84.2 126.9 84.25 126.6 85.7 L126.4 87.1 126.05 84.5 124.85 85.15 123.3 84.0 123.0 79.7 122.9 78.35 M183.8 51.35 L183.6 48.65 183.65 51.6 183.75 51.5 183.9 62.2 184.9 60.6 Q185.6 59.25 185.6 57.1 185.6 55.95 184.85 54.2 183.95 52.15 183.8 51.35 M156.55 110.05 Q156.35 113.45 151.8 130.55 148.9 143.95 148.6 155.5 L148.45 142.2 149.45 129.25 149.2 126.95 148.65 124.65 148.4 123.55 148.45 123.6 150.2 124.5 Q151.1 124.5 151.75 123.65 152.4 122.75 152.4 121.55 L152.9 120.25 Q154.65 117.05 155.05 113.5 L155.5 109.7 Q156.2 107.85 156.25 105.9 156.35 102.05 156.6 99.85 156.9 91.2 156.6 85.8 L156.75 71.4 157.55 96.55 157.25 103.0 156.55 110.05 M145.1 108.6 L145.15 119.05 Q145.1 122.55 144.85 123.7 L144.3 122.45 Q142.85 114.55 142.3 103.2 L142.25 102.4 141.55 91.8 141.2 89.4 141.45 89.85 143.85 93.95 Q145.3 96.7 145.3 98.25 L145.1 103.8 145.1 108.6" fill="#625952" fill-rule="evenodd" stroke="none"/>
      <path d="M148.5 182.5 L148.35 182.5 148.25 182.45 145.05 181.1 144.2 152.75 144.15 159.65 144.1 157.9 143.85 166.6 140.6 166.0 140.55 164.15 Q140.45 162.6 139.75 161.3 L139.45 151.25 Q139.45 144.2 140.9 134.75 L142.75 123.4 142.6 125.5 Q142.6 127.0 144.75 130.5 147.0 134.15 147.2 136.95 147.5 141.25 147.25 152.25 147.25 160.95 147.5 165.85 L148.5 182.5 M131.85 52.2 L141.25 52.55 Q139.75 67.2 142.3 73.5 L144.45 78.1 Q145.6 80.95 145.85 84.65 146.4 70.15 146.4 53.05 L151.55 51.6 153.3 51.2 153.55 64.85 153.6 51.15 154.05 51.05 156.7 51.05 157.6 51.1 Q157.1 59.85 156.75 71.4 L156.6 85.8 Q156.9 91.2 156.6 99.85 156.35 102.05 156.25 105.9 156.2 107.85 155.5 109.7 L154.85 109.95 155.25 106.65 155.5 104.75 155.45 103.35 153.6 107.5 152.85 107.65 152.0 107.25 Q151.5 106.8 151.5 104.8 152.0 80.2 152.1 51.5 151.55 74.15 151.0 82.3 149.85 100.15 147.0 106.4 L145.9 96.8 Q144.85 89.6 141.75 83.4 139.3 78.45 139.45 73.55 L139.45 66.75 139.25 62.45 Q138.95 58.9 138.3 58.1 137.8 56.6 136.95 55.4 135.45 53.15 131.85 52.2 M158.9 51.15 L160.4 51.2 Q160.65 67.25 160.5 78.9 L160.65 80.1 160.9 76.65 Q161.2 73.65 162.75 72.45 L165.3 70.0 166.2 70.3 166.25 75.4 166.2 77.35 165.7 104.8 165.8 128.75 167.65 75.65 168.3 75.8 169.4 76.05 170.05 75.2 Q170.75 74.35 171.15 74.35 L174.05 74.8 175.85 75.6 177.65 77.65 177.5 92.35 177.3 126.8 Q177.3 130.85 176.6 135.0 175.65 140.6 173.85 142.0 L172.2 139.65 Q172.05 139.65 171.55 140.0 L170.75 140.4 Q170.55 140.0 170.5 138.0 L170.4 133.15 171.65 120.6 171.9 111.35 171.7 101.4 171.3 88.75 Q170.6 90.15 170.35 121.7 L170.25 123.55 169.85 112.15 169.75 109.15 Q168.9 116.9 168.35 125.3 167.7 135.3 167.9 139.85 L167.85 139.95 Q164.85 140.1 165.05 124.3 165.4 95.5 165.15 91.0 L164.8 102.55 163.75 115.25 162.95 127.4 Q162.1 135.35 159.85 137.6 L159.15 133.6 Q158.8 130.65 158.8 125.8 L159.4 116.05 159.3 68.05 158.9 51.15 M171.75 46.15 L173.75 45.55 173.55 50.35 Q174.05 47.35 174.0 45.5 L177.5 44.4 Q178.5 47.5 177.5 47.5 L177.25 58.35 Q176.45 69.2 173.4 69.2 172.75 69.2 172.05 68.15 L170.9 66.15 170.85 60.85 172.5 54.85 173.3 51.45 172.9 52.35 172.7 52.55 Q172.1 50.3 171.75 46.15 M161.55 151.3 Q162.15 149.7 163.6 148.35 165.0 147.1 165.25 146.3 165.25 148.35 164.2 149.85 163.1 151.3 161.55 151.3 M155.55 149.65 L155.7 151.4 156.15 154.45 156.3 155.0 156.55 155.8 157.3 155.15 159.3 155.1 159.25 158.4 160.15 178.3 Q157.8 179.9 156.8 179.55 L154.35 178.85 Q153.4 178.85 153.2 179.2 L152.8 180.1 153.4 164.6 Q153.95 152.45 154.2 150.5 L155.55 149.65 M143.75 167.75 L142.95 170.7 Q142.15 173.6 142.0 176.05 L140.55 176.95 Q141.0 170.15 141.25 169.35 141.6 168.25 143.75 167.75 M143.85 167.7 L144.15 167.65 144.15 180.9 Q143.75 173.7 143.85 167.7 M160.9 167.45 L161.5 170.65 161.85 173.55 Q161.85 176.3 161.5 177.1 L160.55 178.05 160.9 167.45" fill="#8b8178" fill-rule="evenodd" stroke="none"/>
      <path d="M171.25 148.95 L169.95 149.45 169.95 149.2 170.45 148.8 171.25 148.95 M135.7 166.75 L135.65 166.75 133.05 167.5 131.95 167.65 132.3 163.35 Q132.65 160.45 132.65 155.0 L134.3 138.5 Q135.2 128.05 135.35 116.6 L135.95 107.65 136.2 101.3 136.0 98.3 135.45 94.9 Q135.4 90.4 135.0 90.2 L135.85 83.3 135.95 84.15 136.25 81.5 136.65 81.25 Q136.95 83.35 140.45 88.6 L141.55 91.8 142.25 102.4 142.3 103.2 141.9 106.85 Q141.5 110.0 141.85 114.5 L142.75 123.4 140.9 134.75 Q139.45 144.2 139.45 151.25 L139.75 161.3 138.9 160.1 138.55 159.75 138.1 162.75 Q137.65 165.1 137.3 165.65 L135.7 166.75 M141.25 52.55 L146.4 53.05 Q146.4 70.15 145.85 84.65 145.6 80.95 144.45 78.1 L142.3 73.5 Q139.75 67.2 141.25 52.55 M153.3 51.2 L153.6 51.15 153.55 64.85 153.3 51.2 M157.6 51.1 L158.9 51.15 159.3 68.05 159.4 116.05 158.8 125.8 Q158.8 130.65 159.15 133.6 L159.85 137.6 159.55 137.7 Q158.55 133.75 157.4 126.15 156.35 119.1 156.35 117.25 L156.55 110.05 157.25 103.0 157.55 96.55 156.75 71.4 Q157.1 59.85 157.6 51.1 M164.75 50.35 L166.2 49.15 Q166.45 66.7 163.3 68.5 162.65 68.2 162.75 67.25 L164.75 50.35 M167.15 48.25 L167.5 47.95 Q168.75 47.3 171.75 46.15 172.1 50.3 172.7 52.55 L172.9 52.35 173.3 51.45 172.5 54.85 170.85 60.85 170.9 66.15 169.8 61.95 169.0 63.95 168.15 65.5 Q166.75 64.05 166.75 62.25 L166.9 55.85 167.15 48.25 M173.75 45.55 L174.0 45.5 Q174.05 47.35 173.55 50.35 L173.75 45.55 M170.4 133.15 L170.35 128.7 170.35 121.7 Q170.6 90.15 171.3 88.75 L171.7 101.4 171.9 111.35 171.65 120.6 170.4 133.15 M166.3 81.85 L166.6 69.75 167.6 70.2 167.95 70.4 Q169.05 71.15 171.9 71.85 174.55 72.85 175.85 75.6 L174.05 74.8 171.15 74.35 Q170.75 74.35 170.05 75.2 L169.4 76.05 168.3 75.8 167.65 75.65 165.8 128.75 165.7 104.8 166.2 77.35 166.25 84.2 166.3 81.85 M165.25 146.3 Q165.0 147.1 163.6 148.35 162.15 149.7 161.55 151.3 L156.15 154.45 155.7 151.4 155.55 149.65 Q158.6 149.45 159.75 148.65 L163.6 145.45 164.55 145.7 165.25 146.3 M152.8 180.1 Q152.45 180.6 151.55 180.7 151.1 179.1 151.1 178.1 151.1 158.2 151.65 154.8 151.9 153.1 152.6 152.3 L154.2 150.5 Q153.95 152.45 153.4 164.6 L152.8 180.1 M144.15 162.6 L144.15 159.65 144.2 152.75 145.05 181.1 144.15 180.9 144.15 167.65 144.55 167.55 144.15 166.8 144.15 162.6 M159.3 155.1 L160.55 155.15 160.45 163.55 Q160.45 165.65 160.9 167.45 L160.55 178.05 160.15 178.3 159.25 158.4 159.3 155.1 M156.3 155.0 L157.3 155.15 156.55 155.8 156.3 155.0" fill="#a1978b" fill-rule="evenodd" stroke="none"/>
    </g>
  </defs>
</svg>
