<?xml version="1.0" encoding="UTF-8" standalone="no"?>
<svg xmlns:xlink="http://www.w3.org/1999/xlink" height="18.2px" width="21.7px" xmlns="http://www.w3.org/2000/svg">
  <g transform="matrix(1.0, 0.0, 0.0, 1.0, 0.0, 0.0)">
    <use height="17.05" transform="matrix(1.0, 0.0, 0.0, 1.0, 0.05, 0.0)" width="19.6" xlink:href="#shape0"/>
  </g>
  <defs>
    <g id="shape0" transform="matrix(1.0, 0.0, 0.0, 1.0, -0.05, 0.0)">
      <path d="M3.35 2.65 L3.3 2.65 3.8 2.3 5.55 1.2 6.25 0.85 Q8.45 -0.3 11.55 0.15 L15.4 1.1 16.25 1.45 16.0 1.6 15.2 1.4 14.4 1.1 13.4 0.75 12.25 0.6 11.1 0.55 9.45 0.5 9.0 0.65 7.95 0.65 7.55 0.85 7.3 1.15 6.9 1.25 6.45 1.4 Q5.65 1.9 5.25 2.0 L3.95 2.35 3.35 2.65" fill="#ecd16e" fill-rule="evenodd" stroke="none"/>
      <path d="M3.35 2.65 L3.95 2.35 5.25 2.0 Q5.65 1.9 6.45 1.4 L6.9 1.25 7.3 1.15 7.55 0.85 7.95 0.65 9.0 0.65 9.45 0.5 11.1 0.55 12.25 0.6 13.4 0.75 14.4 1.1 15.2 1.4 16.0 1.6 16.25 1.45 15.4 1.1 Q16.45 1.35 17.75 2.45 18.95 3.45 18.9 3.85 L18.85 3.6 Q18.6 4.25 17.85 3.6 17.4 3.25 16.6 2.85 L15.85 2.6 16.25 2.9 Q16.7 3.3 16.75 3.65 16.85 4.15 16.0 4.85 15.05 5.6 13.9 5.6 12.75 5.6 11.45 5.0 10.35 4.5 9.4 3.75 8.9 3.3 8.3 3.3 7.3 2.8 6.5 3.0 L5.5 3.6 Q5.3 3.75 6.0 3.8 L7.7 4.05 8.25 4.25 8.7 4.45 8.45 4.35 13.05 7.0 13.25 7.15 14.95 8.55 16.95 10.0 19.0 11.65 Q18.45 11.7 17.85 12.0 L16.1 12.85 15.05 13.15 14.5 13.35 14.15 13.35 14.0 13.5 13.0 13.6 12.85 13.7 12.75 13.8 12.25 13.85 9.95 13.75 9.2 13.75 8.5 13.6 7.7 13.35 6.9 13.0 6.65 12.5 6.35 12.05 5.75 12.0 5.15 11.95 4.85 11.5 4.85 10.95 Q4.3 10.95 4.2 10.65 L4.2 10.4 4.2 10.15 Q4.1 9.95 3.6 9.9 3.1 9.85 2.95 9.65 L2.6 9.05 2.15 8.5 1.45 7.9 2.45 9.75 Q1.65 8.65 1.3 7.55 0.75 5.8 1.7 4.3 L2.1 3.75 3.35 2.65 M7.3 2.2 L7.85 2.65 8.5 2.25 Q8.6 1.7 7.85 1.75 L7.6 2.0 Q7.35 2.0 7.3 2.2 M9.05 1.1 L9.85 1.2 9.8 0.85 9.4 0.75 9.05 1.1 M3.6 4.9 L4.4 5.85 4.05 5.05 Q3.8 4.05 4.25 3.1 L3.6 3.65 Q3.05 4.35 3.6 4.9 M4.0 6.4 Q3.7 6.7 4.2 6.85 4.7 6.95 4.6 6.4 L4.0 6.4 M3.9 7.6 L3.5 7.65 Q3.05 7.55 3.0 8.3 3.0 9.05 3.75 8.85 4.1 8.75 4.15 8.25 4.2 7.8 3.9 7.6 M8.2 4.85 L8.0 4.65 7.5 4.4 6.75 4.45 Q6.3 4.55 6.15 4.9 5.95 5.3 6.2 5.5 L6.85 5.65 7.55 5.7 8.2 5.6 8.3 5.35 8.35 5.1 8.2 4.85 M9.9 2.5 L10.45 2.6 10.35 2.1 10.0 2.0 9.8 2.25 9.9 2.5 M7.25 6.15 L6.65 6.4 Q6.1 5.9 5.7 7.0 5.3 8.0 6.35 8.0 L7.05 7.9 7.45 7.35 Q7.7 6.6 7.25 6.15 M8.1 7.15 Q7.75 7.3 7.75 7.6 7.75 7.9 8.1 7.9 8.7 8.0 8.6 7.25 L8.1 7.15 M11.8 1.75 L11.65 1.4 11.0 1.4 Q10.9 1.65 11.25 1.75 L11.8 1.75 M13.1 1.45 Q13.05 1.9 13.6 1.6 14.2 1.35 13.6 1.2 L13.1 1.45 M9.35 9.6 L9.1 9.65 9.1 9.9 Q9.2 10.35 10.25 10.15 L10.15 9.55 9.6 9.25 9.35 9.6 M8.1 10.75 L8.05 10.25 7.7 9.85 7.15 9.75 7.35 10.35 Q7.15 10.8 7.3 11.05 7.45 11.4 8.0 11.25 L8.1 10.75 M6.65 8.9 L6.15 8.6 5.7 8.9 Q5.5 9.15 5.45 9.45 5.35 10.1 5.9 10.25 L6.45 10.35 6.65 9.9 Q6.85 9.1 6.65 8.9 M9.15 11.75 L9.1 12.15 Q9.0 12.45 9.5 12.45 L9.75 12.45 9.85 12.25 Q9.95 11.75 9.6 11.65 L9.15 11.75" fill="url(#gradient0)" fill-rule="evenodd" stroke="none"/>
      <path d="M9.05 1.1 L9.4 0.75 9.8 0.85 9.85 1.2 9.05 1.1 M7.3 2.2 Q7.35 2.0 7.6 2.0 L7.85 1.75 Q8.6 1.7 8.5 2.25 L7.85 2.65 7.3 2.2 M3.9 7.6 Q4.2 7.8 4.15 8.25 4.1 8.75 3.75 8.85 3.0 9.05 3.0 8.3 3.05 7.55 3.5 7.65 L3.9 7.6 M4.0 6.4 L4.6 6.4 Q4.7 6.95 4.2 6.85 3.7 6.7 4.0 6.4 M9.9 2.5 L9.8 2.25 10.0 2.0 10.35 2.1 10.45 2.6 9.9 2.5 M8.2 4.85 L8.35 5.1 8.3 5.35 8.2 5.6 7.55 5.7 6.85 5.65 6.2 5.5 Q5.95 5.3 6.15 4.9 6.3 4.55 6.75 4.45 L7.5 4.4 8.0 4.65 8.2 4.85 M13.1 1.45 L13.6 1.2 Q14.2 1.35 13.6 1.6 13.05 1.9 13.1 1.45 M11.8 1.75 L11.25 1.75 Q10.9 1.65 11.0 1.4 L11.65 1.4 11.8 1.75 M8.1 7.15 L8.6 7.25 Q8.7 8.0 8.1 7.9 7.75 7.9 7.75 7.6 7.75 7.3 8.1 7.15 M7.25 6.15 Q7.7 6.6 7.45 7.35 L7.05 7.9 6.35 8.0 Q5.3 8.0 5.7 7.0 6.1 5.9 6.65 6.4 L7.25 6.15 M6.65 8.9 Q6.85 9.1 6.65 9.9 L6.45 10.35 5.9 10.25 Q5.35 10.1 5.45 9.45 5.5 9.15 5.7 8.9 L6.15 8.6 6.65 8.9 M8.1 10.75 L8.0 11.25 Q7.45 11.4 7.3 11.05 7.15 10.8 7.35 10.35 L7.15 9.75 7.7 9.85 8.05 10.25 8.1 10.75 M9.35 9.6 L9.6 9.25 10.15 9.55 10.25 10.15 Q9.2 10.35 9.1 9.9 L9.1 9.65 9.35 9.6 M9.15 11.75 L9.6 11.65 Q9.95 11.75 9.85 12.25 L9.75 12.45 9.5 12.45 Q9.0 12.45 9.1 12.15 L9.15 11.75" fill="#f5dc84" fill-rule="evenodd" stroke="none"/>
      <path d="M3.6 4.9 Q3.05 4.35 3.6 3.65 L4.25 3.1 Q3.8 4.05 4.05 5.05 L4.4 5.85 3.6 4.9" fill="#a28638" fill-rule="evenodd" stroke="none"/>
      <path d="M19.5 12.3 Q19.8 12.75 19.5 13.25 L18.75 13.95 Q17.15 15.15 14.7 16.25 L13.6 16.65 12.95 16.85 Q12.75 16.15 11.75 16.15 L10.6 16.15 Q9.55 16.0 7.0 14.85 4.15 13.55 2.5 11.6 1.1 9.9 0.65 7.9 L0.55 6.05 1.25 4.7 1.45 4.5 1.7 4.3 Q0.75 5.8 1.3 7.55 1.65 8.65 2.45 9.75 L3.9 11.55 4.85 12.45 5.15 12.7 5.4 12.9 5.0 13.0 Q6.05 14.1 7.65 14.95 L7.85 15.0 12.2 15.65 Q13.45 15.8 13.55 16.15 15.9 15.9 17.15 14.65 18.3 13.6 18.5 12.6 L19.05 12.45 19.45 12.35 19.5 12.3" fill="#907836" fill-rule="evenodd" stroke="none"/>
      <path d="M13.6 16.65 L11.75 17.05 8.7 16.7 Q6.85 16.35 4.75 14.8 2.9 13.35 1.6 11.55 0.55 10.1 0.2 9.0 0.0 8.25 0.1 7.55 0.2 6.9 0.6 5.9 0.95 5.05 1.25 4.7 L0.55 6.05 0.65 7.9 Q1.1 9.9 2.5 11.6 4.15 13.55 7.0 14.85 9.55 16.0 10.6 16.15 L11.75 16.15 Q12.75 16.15 12.95 16.85 L13.6 16.65" fill="#a3873e" fill-rule="evenodd" stroke="none"/>
      <path d="M17.3 5.25 L16.85 5.5 14.45 6.75 13.25 7.15 13.05 7.0 10.65 5.3 10.4 5.15 Q9.7 4.7 8.25 4.25 L7.7 4.05 Q7.25 3.9 7.6 3.85 L9.15 4.15 Q10.1 4.5 11.0 5.15 12.65 6.35 14.3 6.15 L15.1 6.0 17.2 5.3 17.3 5.25" fill="#8d7431" fill-rule="evenodd" stroke="none"/>
      <path d="M18.9 3.85 L18.9 3.9 18.55 4.4 17.3 5.25 17.2 5.3 15.1 6.0 14.3 6.15 Q12.65 6.35 11.0 5.15 10.1 4.5 9.15 4.15 L7.6 3.85 Q7.25 3.9 7.7 4.05 L6.0 3.8 Q5.3 3.75 5.5 3.6 L6.5 3.0 Q7.3 2.8 8.3 3.3 8.9 3.3 9.4 3.75 10.35 4.5 11.45 5.0 12.75 5.6 13.9 5.6 15.05 5.6 16.0 4.85 16.85 4.15 16.75 3.65 16.7 3.3 16.25 2.9 L15.85 2.6 16.6 2.85 Q17.4 3.25 17.85 3.6 18.6 4.25 18.85 3.6 L18.9 3.85 M8.25 4.25 Q9.7 4.7 10.4 5.15 L10.65 5.3 13.05 7.0 8.45 4.35 8.7 4.45 8.25 4.25" fill="#b3933e" fill-rule="evenodd" stroke="none"/>
      <path d="M19.0 11.65 L19.1 11.75 19.5 12.3 19.45 12.35 19.05 12.45 18.5 12.6 17.45 12.95 Q16.4 13.6 15.4 14.05 13.5 14.9 10.95 15.05 8.25 15.25 5.4 12.9 L5.15 12.7 4.85 12.45 3.9 11.55 2.45 9.75 1.45 7.9 2.15 8.5 2.6 9.05 2.95 9.65 Q3.1 9.85 3.6 9.9 4.1 9.95 4.2 10.15 L4.2 10.4 4.2 10.65 Q4.3 10.95 4.85 10.95 L4.85 11.5 5.15 11.95 5.75 12.0 6.35 12.05 6.65 12.5 6.9 13.0 7.7 13.35 8.5 13.6 9.2 13.75 9.95 13.75 12.25 13.85 12.75 13.8 12.85 13.7 13.0 13.6 14.0 13.5 14.15 13.35 14.5 13.35 15.05 13.15 16.1 12.85 17.85 12.0 Q18.45 11.7 19.0 11.65" fill="#bb9b47" fill-rule="evenodd" stroke="none"/>
      <path d="M5.4 12.9 Q8.25 15.25 10.95 15.05 13.5 14.9 15.4 14.05 16.4 13.6 17.45 12.95 L18.5 12.6 Q18.3 13.6 17.15 14.65 15.9 15.9 13.55 16.15 13.45 15.8 12.2 15.65 L7.85 15.0 7.65 14.95 Q6.05 14.1 5.0 13.0 L5.4 12.9" fill="#675627" fill-rule="evenodd" stroke="none"/>
    </g>
    <radialGradient cx="0" cy="0" gradientTransform="matrix(0.0149, 0.0, 0.0, -0.0149, 14.55, 9.65)" gradientUnits="userSpaceOnUse" id="gradient0" r="819.2" spreadMethod="pad">
      <stop offset="0.0" stop-color="#bea154"/>
      <stop offset="0.6431372549019608" stop-color="#ecc868"/>
      <stop offset="1.0" stop-color="#bea154"/>
    </radialGradient>
  </defs>
</svg>
