<?xml version="1.0" encoding="UTF-8" standalone="no"?>
<svg xmlns:xlink="http://www.w3.org/1999/xlink" height="220.0px" width="124.55px" xmlns="http://www.w3.org/2000/svg">
  <g transform="matrix(1.0, 0.0, 0.0, 1.0, 0.0, 0.0)">
    <use height="14.0" transform="matrix(1.0, 0.0, 0.0, 1.0, 0.0, 234.75)" width="123.55" xlink:href="#shape0"/>
    <use height="213.0" transform="matrix(1.0, 0.0, 0.0, 1.0, 3.0, 28.5)" width="119.6" xlink:href="#sprite0"/>
    <use height="0.0" id="price_tag_pt" transform="matrix(1.0, 0.0, 0.0, 1.0, 62.0, 241.2)" width="0.0" xlink:href="#sprite12"/>
  </g>
  <defs>
    <g id="shape0" transform="matrix(1.0, 0.0, 0.0, 1.0, 0.0, -234.75)">
      <path d="M123.55 248.75 L0.0 248.75 0.0 234.75 123.55 234.75 123.55 248.75" fill="#ffffff" fill-opacity="0.0" fill-rule="evenodd" stroke="none"/>
    </g>
    <g id="sprite0" transform="matrix(1.0, 0.0, 0.0, 1.0, 0.0, 0.0)">
      <use height="28.95" transform="matrix(0.9545, 0.0, 0.0, 0.8099, 7.3636, 188.7555)" width="110.0" xlink:href="#sprite1"/>
      <use height="28.95" transform="matrix(0.8499, 0.0, 0.0, 0.8303, 13.0953, 188.9394)" width="110.0" xlink:href="#sprite1"/>
      <use height="25.95" transform="matrix(1.0, 0.0, 0.0, 1.0, 6.9, 185.65)" width="106.0" xlink:href="#shape2"/>
      <use height="8.35" transform="matrix(1.0, 0.0, 0.0, 1.0, 24.9, 202.9)" width="22.6" xlink:href="#sprite2"/>
      <use height="189.3" transform="matrix(1.0, 0.0, 0.0, 1.0, 0.0, 18.2)" width="119.45" xlink:href="#shape4"/>
      <use height="187.4" transform="matrix(1.0, 0.0, 0.0, 1.0, 0.0, 18.2)" width="119.45" xlink:href="#sprite3"/>
      <use height="96.95" transform="matrix(1.0, 0.0, 0.0, 1.0, 0.0, 1.9)" width="119.45" xlink:href="#shape6"/>
      <use height="16.0" transform="matrix(1.0, 0.0, 0.0, 1.0, 10.9, 2.8)" width="97.4" xlink:href="#sprite4"/>
      <use height="199.5" transform="matrix(1.0, 0.0, 0.0, 1.0, 1.4, 6.3)" width="118.2" xlink:href="#shape8"/>
      <use height="7.35" transform="matrix(1.0, 0.0, 0.0, 1.0, 20.6, 6.05)" width="56.8" xlink:href="#sprite5"/>
      <use height="203.0" transform="matrix(1.0, 0.0, 0.0, 1.0, 0.9, 0.0)" width="118.15" xlink:href="#shape10"/>
      <use height="163.2" transform="matrix(1.0, 0.0, 0.0, 1.0, 86.9, 38.5)" width="26.7" xlink:href="#sprite6"/>
      <use height="175.9" transform="matrix(1.0, 0.0, 0.0, 1.0, 0.0, 18.2)" width="19.3" xlink:href="#sprite7"/>
      <use height="20.9" transform="matrix(1.0, 0.0, 0.0, 1.0, 83.55, 23.75)" width="30.05" xlink:href="#sprite8"/>
      <use height="160.8" transform="matrix(1.0, 0.0, 0.0, 1.0, 21.7, 42.7)" width="30.0" xlink:href="#sprite9"/>
      <use height="131.5" transform="matrix(1.0, 0.0, 0.0, 1.0, 11.0, 59.55)" width="96.0" xlink:href="#shape15"/>
      <use height="5.1" transform="matrix(1.0, 0.0, 0.0, 1.0, 14.4, 62.05)" width="88.85" xlink:href="#sprite10"/>
      <use height="131.5" transform="matrix(1.0, 0.0, 0.0, 1.0, 11.0, 59.55)" width="96.0" xlink:href="#shape17"/>
      <use height="19.9" transform="matrix(1.0, 0.0, 0.0, 1.0, 25.6, 24.65)" width="32.25" xlink:href="#sprite11"/>
    </g>
    <g id="sprite1" transform="matrix(1.0, 0.0, 0.0, 1.0, -36.0, -36.0)">
      <use height="28.95" transform="matrix(1.0, 0.0, 0.0, 1.0, 36.0, 36.0)" width="110.0" xlink:href="#shape1"/>
    </g>
    <g id="shape1" transform="matrix(1.0, 0.0, 0.0, 1.0, -36.0, -36.0)">
      <path d="M129.9 60.75 Q113.8 64.95 91.0 64.95 68.2 64.95 52.1 60.75 36.0 56.5 36.0 50.5 36.0 44.5 52.1 40.25 68.25 36.0 91.0 36.0 113.8 36.0 129.9 40.25 146.0 44.5 146.0 50.5 146.0 56.5 129.9 60.75" fill="#000000" fill-rule="evenodd" stroke="none"/>
    </g>
    <g id="shape2" transform="matrix(1.0, 0.0, 0.0, 1.0, -6.9, -185.65)">
      <path d="M8.75 192.15 L6.9 185.65 16.65 192.55 Q28.55 199.95 39.4 202.45 44.1 203.55 51.05 201.6 58.3 199.5 60.25 199.8 62.2 199.5 69.15 201.6 75.8 203.55 80.4 202.45 91.15 199.95 103.1 193.6 109.1 190.4 112.9 187.7 112.1 190.55 110.3 193.9 106.7 200.6 101.85 203.15 96.15 206.15 89.45 207.9 77.45 211.1 60.05 211.55 31.8 212.25 17.65 203.15 11.8 199.35 8.75 192.15" fill="url(#gradient0)" fill-rule="evenodd" stroke="none"/>
    </g>
    <linearGradient gradientTransform="matrix(0.0647, 0.0, 0.0, -0.0647, 59.9, 198.6)" gradientUnits="userSpaceOnUse" id="gradient0" spreadMethod="pad" x1="-819.2" x2="819.2">
      <stop offset="0.0" stop-color="#ffffff"/>
      <stop offset="0.8431372549019608" stop-color="#808080"/>
      <stop offset="1.0" stop-color="#bdbdbd"/>
    </linearGradient>
    <g id="sprite2" transform="matrix(1.0, 0.0, 0.0, 1.0, 0.0, 0.0)">
      <use height="8.35" transform="matrix(1.0, 0.0, 0.0, 1.0, 0.0, 0.0)" width="22.6" xlink:href="#shape3"/>
    </g>
    <g id="shape3" transform="matrix(1.0, 0.0, 0.0, 1.0, 0.0, 0.0)">
      <path d="M0.0 3.9 L0.0 0.0 22.6 0.9 22.35 8.35 Q9.35 7.45 0.0 3.9" fill="#ffffff" fill-rule="evenodd" stroke="none"/>
    </g>
    <g id="shape4" transform="matrix(1.0, 0.0, 0.0, 1.0, 0.0, -18.2)">
      <path d="M7.65 189.1 L6.9 185.65 16.65 192.55 Q28.55 199.95 39.4 202.45 44.1 203.55 51.05 201.6 58.3 199.5 60.25 199.8 62.2 199.5 69.15 201.6 75.8 203.55 80.4 202.45 89.8 200.25 100.2 195.05 106.6 191.9 111.85 188.4 L112.65 188.45 Q110.5 195.0 106.55 199.35 101.0 200.6 96.6 202.0 85.8 205.3 79.95 206.25 65.6 208.6 48.25 206.6 34.15 205.0 23.25 201.7 15.05 199.2 11.1 196.6 8.9 193.25 7.65 189.1" fill="#6e6e6e" fill-rule="evenodd" stroke="none"/>
      <path d="M10.9 18.2 Q19.15 19.0 25.15 20.8 30.25 22.3 38.95 22.75 52.9 23.45 59.0 22.7 L59.0 22.5 59.75 22.65 60.45 22.5 60.45 22.7 Q66.55 23.45 80.5 22.75 89.2 22.3 94.3 20.8 100.3 19.0 108.55 18.2 L113.55 24.9 Q118.6 32.1 119.1 34.55 119.55 37.0 119.4 78.65 L119.1 119.8 Q119.85 180.75 118.55 183.8 116.65 188.1 112.15 191.9 104.45 198.25 90.4 202.1 81.15 204.6 70.85 205.3 64.75 205.75 59.75 205.5 54.7 205.75 48.6 205.3 38.3 204.6 29.05 202.1 15.0 198.25 7.3 191.9 2.8 188.1 0.9 183.8 0.1 181.9 0.15 150.65 L0.35 119.8 0.05 78.65 Q-0.1 37.0 0.35 34.55 0.85 32.1 5.95 24.9 8.45 21.3 10.9 18.2" fill="#9c3232" fill-rule="evenodd" stroke="none"/>
    </g>
    <g id="sprite3" transform="matrix(1.0, 0.0, 0.0, 1.0, 0.0, 0.0)">
      <use height="187.4" transform="matrix(1.0, 0.0, 0.0, 1.0, 0.0, 0.0)" width="119.45" xlink:href="#shape5"/>
    </g>
    <g id="shape5" transform="matrix(1.0, 0.0, 0.0, 1.0, 0.0, 0.0)">
      <path d="M94.3 2.6 Q100.3 0.8 108.55 0.0 L113.55 6.7 Q118.6 13.9 119.1 16.35 119.55 18.8 119.4 60.45 L119.1 101.6 Q119.85 162.55 118.55 165.6 116.65 169.9 112.15 173.7 104.45 180.05 90.4 183.9 81.15 186.4 70.85 187.1 64.75 187.55 59.75 187.3 54.7 187.55 48.6 187.1 38.3 186.4 29.05 183.9 15.0 180.05 7.3 173.7 2.8 169.9 0.9 165.6 0.1 163.7 0.15 132.45 L0.35 101.6 0.05 60.45 Q-0.1 18.8 0.35 16.35 0.85 13.9 5.95 6.7 8.45 3.1 10.9 0.0 19.15 0.8 25.15 2.6 30.25 4.1 38.95 4.55 52.9 5.25 59.0 4.5 L59.0 4.3 59.75 4.45 60.45 4.3 60.45 4.5 Q66.55 5.25 80.5 4.55 89.2 4.1 94.3 2.6" fill="url(#gradient1)" fill-rule="evenodd" stroke="none"/>
    </g>
    <linearGradient gradientTransform="matrix(0.1631, 0.0, 0.0, -0.1631, 51.5, 93.7)" gradientUnits="userSpaceOnUse" id="gradient1" spreadMethod="pad" x1="-819.2" x2="819.2">
      <stop offset="0.1411764705882353" stop-color="#231f20"/>
      <stop offset="0.1607843137254902" stop-color="#231f20" stop-opacity="0.79607844"/>
      <stop offset="0.3686274509803922" stop-color="#231f20" stop-opacity="0.0"/>
      <stop offset="0.6549019607843137" stop-color="#231f20" stop-opacity="0.7490196"/>
      <stop offset="0.8901960784313725" stop-color="#231f20" stop-opacity="0.050980393"/>
    </linearGradient>
    <g id="shape6" transform="matrix(1.0, 0.0, 0.0, 1.0, 0.0, -1.9)">
      <path d="M0.15 41.0 Q3.95 37.7 9.75 39.25 19.25 41.85 22.35 44.6 25.85 47.7 20.55 50.45 17.9 51.85 15.0 51.05 L10.4 50.15 Q7.0 50.55 4.25 53.95 0.55 58.4 0.55 66.0 0.55 73.6 3.2 77.1 4.6 79.0 9.5 81.7 13.3 83.8 19.45 82.75 24.4 81.95 25.35 83.95 27.2 87.95 25.1 91.7 22.6 96.15 15.7 95.35 6.0 94.25 0.1 87.5 -0.1 51.2 0.15 41.0" fill="#7d2929" fill-rule="evenodd" stroke="none"/>
      <path d="M28.95 45.05 Q28.55 47.0 25.55 51.0 22.8 54.65 21.65 55.4 20.9 55.95 20.35 57.0 L19.9 57.95 22.25 57.45 Q24.9 57.3 26.65 59.05 28.7 61.15 28.95 64.55 29.15 67.8 27.7 71.2 26.1 74.8 24.35 77.35 22.35 80.2 20.85 80.6 L16.1 81.2 Q12.7 81.25 10.15 80.15 7.25 78.9 5.05 75.35 2.8 71.7 2.7 67.8 2.55 63.55 4.0 59.4 5.6 54.8 8.2 53.55 10.5 52.45 14.3 53.6 16.2 54.15 17.65 54.95 21.4 52.05 23.3 48.75 24.75 46.25 25.4 44.6 L26.75 40.15 Q27.3 37.85 28.55 35.6 L30.2 33.1 31.5 31.75 32.4 31.15 34.45 32.05 31.9 37.5 Q29.3 43.25 28.95 45.05" fill="#7d2929" fill-rule="evenodd" stroke="none"/>
      <path d="M33.15 43.2 L43.4 44.0 Q53.8 45.15 54.8 46.75 57.3 50.75 58.05 58.9 58.7 65.85 57.9 69.75 57.35 72.4 53.6 74.35 L49.9 75.75 57.85 91.25 58.55 93.6 Q58.7 96.15 55.9 97.0 53.05 97.9 49.2 96.35 L45.9 94.6 44.15 85.75 Q42.2 76.95 41.2 77.5 40.2 78.05 40.9 86.1 41.2 90.15 41.75 94.1 L40.1 95.85 Q38.15 97.55 36.75 97.55 35.35 97.55 32.75 95.0 L30.4 92.4 31.05 68.7 Q31.95 44.7 33.15 43.2" fill="#7d2929" fill-rule="evenodd" stroke="none"/>
      <path d="M80.25 45.0 L85.65 45.25 Q86.95 45.7 87.6 46.2 L97.45 91.9 Q96.35 94.65 94.9 96.1 93.85 97.15 92.85 97.15 91.95 97.15 90.5 96.25 89.45 95.55 88.75 91.55 87.95 87.2 87.4 86.4 L80.3 86.2 74.15 87.4 72.0 97.15 71.15 98.2 Q69.85 99.2 67.55 98.65 65.25 98.1 62.85 96.75 L60.9 95.45 69.6 47.45 73.05 46.55 80.25 45.0" fill="#7d2929" fill-rule="evenodd" stroke="none"/>
      <path d="M95.0 44.95 Q95.25 43.05 96.05 41.55 L104.9 38.9 Q114.4 36.2 117.5 36.0 L118.65 36.05 119.1 37.35 Q119.45 39.25 119.45 62.5 L117.65 63.7 116.85 64.05 117.6 64.45 119.45 65.7 119.35 89.1 Q101.1 96.6 99.3 92.75 98.25 90.55 94.95 46.55 L95.0 44.95" fill="#7d2929" fill-rule="evenodd" stroke="none"/>
      <path d="M0.15 41.0 Q3.9 37.75 9.75 38.3 16.3 39.05 19.8 41.85 23.7 45.0 18.55 47.7 15.95 49.1 14.0 48.3 11.45 47.2 10.4 47.35 7.0 47.8 4.25 51.15 0.55 55.6 0.55 63.2 0.55 70.85 3.2 74.35 4.6 76.25 9.5 78.95 13.3 81.05 19.45 80.0 24.4 79.15 25.35 81.2 27.2 85.2 25.1 88.95 22.6 93.4 15.7 92.6 6.05 91.5 0.1 84.7 -0.1 50.7 0.15 41.0" fill="url(#gradient2)" fill-rule="evenodd" stroke="none"/>
      <path d="M28.3 42.3 Q28.0 44.3 25.45 48.8 23.0 53.05 22.0 53.75 L20.05 55.0 19.0 55.6 21.3 54.95 Q24.0 54.65 25.85 56.35 28.0 58.3 28.4 61.7 28.8 64.95 27.5 68.4 26.1 72.05 24.5 74.7 22.7 77.6 21.2 78.15 L16.55 79.05 Q13.1 79.25 10.5 78.25 7.55 77.15 5.15 73.75 2.75 70.25 2.4 66.35 2.0 62.1 3.2 57.9 4.55 53.25 7.1 51.8 9.35 50.55 13.2 51.5 15.15 52.0 16.6 52.7 20.2 49.6 21.9 46.2 L23.8 41.95 24.9 37.45 Q25.35 34.9 26.1 32.5 26.75 30.45 27.25 29.6 L28.1 27.4 32.15 30.2 30.4 35.2 Q28.6 40.5 28.3 42.3" fill="url(#gradient3)" fill-rule="evenodd" stroke="none"/>
      <path d="M33.15 40.45 L43.4 41.25 Q53.8 42.4 54.8 44.0 57.3 48.0 58.05 56.15 58.7 63.05 57.9 67.0 57.35 69.6 53.6 71.55 L49.9 73.0 57.85 88.5 58.55 90.85 Q58.7 93.4 55.9 94.25 53.05 95.15 49.2 93.6 L45.9 91.85 44.15 83.0 Q42.2 74.2 41.2 74.75 40.2 75.25 40.9 83.35 L41.75 91.3 40.1 93.05 Q38.15 94.8 36.75 94.8 35.35 94.75 32.75 92.2 L30.4 89.6 31.05 65.9 Q31.95 41.9 33.15 40.45" fill="url(#gradient4)" fill-rule="evenodd" stroke="none"/>
      <path d="M80.25 42.2 L85.65 42.5 Q86.95 42.95 87.6 43.45 L97.45 89.15 Q96.35 91.9 94.9 93.3 93.85 94.35 92.85 94.4 91.95 94.4 90.5 93.45 89.45 92.8 88.75 88.8 87.95 84.4 87.4 83.6 86.6 82.45 80.3 83.45 L74.15 84.65 72.0 94.35 71.15 95.45 Q69.85 96.45 67.55 95.9 65.25 95.35 62.85 93.95 L60.9 92.7 69.6 44.65 73.05 43.8 80.25 42.2" fill="url(#gradient5)" fill-rule="evenodd" stroke="none"/>
      <path d="M94.95 45.65 L95.0 44.05 Q95.25 42.1 96.05 40.6 L104.9 37.5 Q114.4 34.35 117.5 34.15 L118.1 33.7 118.65 33.3 119.1 34.55 Q119.45 36.45 119.45 59.75 L117.65 60.95 116.85 61.3 117.6 61.7 119.45 62.9 119.35 86.3 Q101.1 93.8 99.3 89.95 98.25 87.75 94.95 45.65" fill="url(#gradient6)" fill-rule="evenodd" stroke="none"/>
      <path d="M38.6 47.75 L42.6 48.0 Q46.95 48.45 48.6 49.3 51.9 51.0 48.6 64.4 47.75 67.65 42.4 67.75 L37.25 67.15 38.6 47.75" fill="#9c3232" fill-rule="evenodd" stroke="none"/>
      <path d="M79.25 47.15 Q81.95 47.55 84.7 59.05 86.1 64.8 86.9 70.5 L72.9 71.75 Q73.8 65.5 75.05 59.3 77.55 46.9 79.25 47.15" fill="#9c3232" fill-rule="evenodd" stroke="none"/>
      <path d="M103.35 44.3 L106.55 43.25 Q110.0 42.2 111.25 42.15 112.7 42.1 114.45 46.4 116.2 50.65 115.8 53.05 115.5 55.0 109.8 56.7 L104.2 58.0 103.35 44.3" fill="#9c3232" fill-rule="evenodd" stroke="none"/>
      <path d="M106.05 70.85 L110.1 69.0 Q114.35 67.2 115.65 67.7 117.2 68.3 118.1 71.7 119.05 75.05 118.35 77.6 117.8 79.7 111.8 81.25 L105.9 82.35 106.05 70.85" fill="#9c3232" fill-rule="evenodd" stroke="none"/>
      <path d="M48.6 49.3 Q50.55 50.3 50.2 55.3 L49.3 53.7 48.65 52.5 Q48.2 51.35 44.35 51.0 L40.65 50.9 39.15 67.5 37.25 67.15 38.6 47.75 42.6 48.0 Q46.95 48.45 48.6 49.3" fill="#7d2929" fill-rule="evenodd" stroke="none"/>
      <path d="M79.25 47.15 Q81.95 47.55 84.7 59.05 86.1 64.8 86.9 70.5 L84.8 70.7 82.85 60.85 Q81.05 53.2 79.9 53.2 78.7 53.2 77.05 61.75 75.95 67.4 75.45 71.55 L72.9 71.75 Q73.8 65.5 75.05 59.3 77.55 46.9 79.25 47.15" fill="#7d2929" fill-rule="evenodd" stroke="none"/>
      <path d="M106.85 45.65 L103.65 46.05 103.45 45.7 103.35 44.3 106.55 43.25 Q110.0 42.2 111.25 42.15 112.7 42.1 114.45 46.4 116.2 50.65 115.8 53.05 115.6 54.1 113.6 55.2 112.35 47.35 111.15 46.3 110.2 45.45 106.85 45.65" fill="#7d2929" fill-rule="evenodd" stroke="none"/>
      <path d="M106.05 70.85 L110.1 69.0 Q114.35 67.2 115.65 67.7 117.2 68.3 118.1 71.7 119.05 75.05 118.35 77.6 117.95 79.05 114.9 80.25 114.9 72.2 114.15 70.75 L110.45 70.85 106.05 72.25 106.05 70.85" fill="#7d2929" fill-rule="evenodd" stroke="none"/>
      <path d="M9.9 53.55 Q12.55 52.85 14.35 53.85 16.8 55.2 17.7 55.35 L21.3 55.65 Q23.15 55.85 24.35 57.0 26.25 58.65 26.8 62.1 27.4 66.55 24.75 71.45 22.3 75.8 19.95 76.95 L15.9 77.35 Q12.2 77.1 10.15 76.1 6.2 74.3 4.9 69.6 3.2 63.1 4.6 58.65 6.1 54.6 9.9 53.55" fill="url(#gradient7)" fill-rule="evenodd" stroke="none"/>
      <path d="M26.5 37.5 L26.85 37.55 28.6 37.3 31.15 36.4 33.15 35.25 36.4 32.5 39.75 30.3 43.5 28.95 45.6 28.5 48.25 28.35 49.85 28.45 47.45 29.05 46.2 29.5 43.95 30.85 38.75 35.55 36.0 37.1 34.55 37.65 32.25 38.2 29.2 38.35 27.8 38.1 27.0 37.8 26.95 37.75 26.5 37.5" fill="#667310" fill-rule="evenodd" stroke="none"/>
      <path d="M32.2 37.8 L33.2 37.5 35.6 36.45 37.0 35.5 40.85 32.2 42.15 31.25 44.15 30.15 46.35 29.3 47.7 28.95 47.95 29.15 45.15 29.9 44.2 30.25 42.7 31.05 40.75 32.45 40.7 32.55 37.1 35.55 35.8 36.4 33.5 37.45 32.2 37.8" fill="#6f7d15" fill-rule="evenodd" stroke="none"/>
      <path d="M42.25 31.35 L42.05 31.4 41.95 31.35 41.8 31.4 41.6 31.4 40.2 31.6 40.1 31.65 39.5 31.8 40.3 31.5 40.4 31.45 41.75 31.15 42.25 31.15 42.35 31.2 42.4 31.2 42.25 31.35" fill="#6f7d15" fill-rule="evenodd" stroke="none"/>
      <path d="M36.95 33.8 L38.4 33.15 39.35 32.9 39.7 32.85 40.05 32.75 40.05 32.8 40.2 32.75 40.25 32.8 40.0 33.0 39.8 33.05 38.85 33.15 37.9 33.45 37.75 33.55 37.55 33.6 37.5 33.6 37.2 33.75 37.05 33.8 36.95 33.8" fill="#6f7d15" fill-rule="evenodd" stroke="none"/>
      <path d="M36.2 35.15 L37.1 34.75 38.45 34.4 38.3 34.55 38.15 34.65 36.2 35.15" fill="#6f7d15" fill-rule="evenodd" stroke="none"/>
      <path d="M35.65 36.35 L35.7 36.4 35.6 36.45 33.95 36.8 33.25 36.85 34.85 36.45 35.0 36.45 35.15 36.35 35.65 36.35" fill="#6f7d15" fill-rule="evenodd" stroke="none"/>
      <path d="M31.0 37.75 L30.3 37.65 31.65 37.7 31.95 37.65 32.4 37.65 32.5 37.7 32.4 37.8 31.85 37.75 31.0 37.75" fill="#6f7d15" fill-rule="evenodd" stroke="none"/>
      <path d="M42.5 31.3 L42.55 31.4 42.55 31.55 42.3 32.1 41.95 32.65 42.1 32.15 42.1 31.75 41.95 31.4 42.35 31.25 42.5 31.3" fill="#6f7d15" fill-rule="evenodd" stroke="none"/>
      <path d="M40.45 32.9 L40.45 33.3 40.1 34.0 40.2 33.7 40.3 33.5 40.25 33.4 40.25 33.3 40.2 33.2 39.8 33.05 40.3 32.75 40.45 32.9" fill="#6f7d15" fill-rule="evenodd" stroke="none"/>
      <path d="M38.5 35.1 L38.4 35.35 38.4 35.2 38.5 35.0 38.5 34.9 38.35 34.65 38.35 34.6 38.3 34.55 38.4 34.45 38.6 34.5 38.65 34.95 38.5 35.1" fill="#6f7d15" fill-rule="evenodd" stroke="none"/>
      <path d="M35.8 36.35 L35.8 36.65 35.75 36.75 35.35 37.15 35.6 36.8 35.65 36.65 35.6 36.55 35.6 36.45 35.7 36.35 35.8 36.35" fill="#6f7d15" fill-rule="evenodd" stroke="none"/>
      <path d="M15.5 56.9 L16.2 56.95 17.4 57.25 20.75 57.15 Q19.5 58.0 18.15 58.15 L16.15 58.2 Q15.25 58.05 14.45 57.25 L13.35 55.65 12.85 54.65 13.6 55.4 15.5 56.9" fill="#ffa5a5" fill-rule="evenodd" stroke="none"/>
      <path d="M13.8 55.65 L15.9 55.75 Q16.65 55.9 16.55 55.6 L16.7 55.4 17.0 55.3 18.3 55.6 17.95 55.95 Q17.7 56.3 18.0 56.7 18.7 57.25 19.95 57.25 L18.95 57.45 16.35 57.6 14.6 56.55 13.8 55.65" fill="#801317" fill-rule="evenodd" stroke="none"/>
      <path d="M23.95 42.9 Q25.0 40.1 25.65 36.9 26.35 33.7 27.0 32.35 27.7 31.0 28.05 28.8 28.15 28.4 29.45 29.2 30.1 29.55 30.35 30.3 L31.05 30.75 30.05 32.8 Q29.5 33.55 28.05 39.65 26.8 44.65 24.05 49.4 22.3 52.25 19.1 55.7 L17.95 56.4 17.0 56.75 16.65 57.05 15.95 57.35 15.0 56.9 Q14.3 56.45 14.25 55.95 14.9 55.75 16.4 54.6 L18.8 52.3 21.65 47.9 Q22.8 45.9 23.95 42.9" fill="#667310" fill-rule="evenodd" stroke="none"/>
      <path d="M10.9 18.2 L10.9 10.8 17.8 10.6 Q27.35 10.45 40.6 10.8 61.15 11.4 80.55 10.8 100.55 10.2 108.55 10.8 L108.55 18.2 Q106.5 19.8 99.35 21.45 85.15 24.65 59.95 24.7 34.75 24.75 20.3 21.45 15.8 20.45 12.9 19.2 L10.9 18.2" fill="url(#gradient8)" fill-rule="evenodd" stroke="none"/>
      <path d="M27.65 16.25 L33.6 15.45 53.4 17.2 53.25 24.6 Q38.65 24.25 27.8 22.35 L27.65 16.25" fill="#ffffff" fill-rule="evenodd" stroke="none"/>
      <path d="M25.15 4.4 Q39.4 1.9 59.6 1.9 79.8 1.9 94.05 4.4 108.3 6.9 108.3 10.45 108.3 14.0 94.05 16.5 79.75 19.0 59.6 19.0 39.45 19.0 25.15 16.5 10.9 14.0 10.9 10.45 10.9 6.9 25.15 4.4" fill="url(#gradient9)" fill-rule="evenodd" stroke="none"/>
      <path d="M25.15 5.1 Q39.45 2.8 59.6 2.8 79.75 2.8 94.05 5.1 108.3 7.45 108.3 10.7 108.3 13.95 94.05 16.3 79.75 18.6 59.6 18.6 39.45 18.6 25.15 16.3 10.9 13.95 10.9 10.7 10.9 7.45 25.15 5.1" fill="#a7a7a7" fill-rule="evenodd" stroke="none"/>
    </g>
    <linearGradient gradientTransform="matrix(0.0633, 3.0E-4, 3.0E-4, -0.0633, 51.45, 65.65)" gradientUnits="userSpaceOnUse" id="gradient2" spreadMethod="pad" x1="-819.2" x2="819.2">
      <stop offset="0.0" stop-color="#ffffff"/>
      <stop offset="1.0" stop-color="#97b9cc"/>
    </linearGradient>
    <linearGradient gradientTransform="matrix(0.0158, 0.0022, 0.0022, -0.0158, 16.9, 52.65)" gradientUnits="userSpaceOnUse" id="gradient3" spreadMethod="pad" x1="-819.2" x2="819.2">
      <stop offset="0.0" stop-color="#ffffff"/>
      <stop offset="1.0" stop-color="#d4d4d4"/>
    </linearGradient>
    <linearGradient gradientTransform="matrix(0.0721, -0.0022, -0.0022, -0.0721, 60.25, 67.0)" gradientUnits="userSpaceOnUse" id="gradient4" spreadMethod="pad" x1="-819.2" x2="819.2">
      <stop offset="0.0" stop-color="#ffffff"/>
      <stop offset="1.0" stop-color="#97b9cc"/>
    </linearGradient>
    <linearGradient gradientTransform="matrix(0.0749, 0.0, 0.0, -0.0749, 62.25, 69.05)" gradientUnits="userSpaceOnUse" id="gradient5" spreadMethod="pad" x1="-819.2" x2="819.2">
      <stop offset="0.0" stop-color="#ffffff"/>
      <stop offset="1.0" stop-color="#97b9cc"/>
    </linearGradient>
    <linearGradient gradientTransform="matrix(0.0591, 0.0, 0.0, -0.0591, 67.65, 62.3)" gradientUnits="userSpaceOnUse" id="gradient6" spreadMethod="pad" x1="-819.2" x2="819.2">
      <stop offset="0.0" stop-color="#ffffff"/>
      <stop offset="1.0" stop-color="#97b9cc"/>
    </linearGradient>
    <linearGradient gradientTransform="matrix(0.0485, 0.0054, 0.0054, -0.0485, 37.15, 67.9)" gradientUnits="userSpaceOnUse" id="gradient7" spreadMethod="pad" x1="-819.2" x2="819.2">
      <stop offset="0.0" stop-color="#f05424"/>
      <stop offset="1.0" stop-color="#732918"/>
    </linearGradient>
    <linearGradient gradientTransform="matrix(0.0596, 0.0, 0.0, -0.0596, 59.75, 17.6)" gradientUnits="userSpaceOnUse" id="gradient8" spreadMethod="pad" x1="-819.2" x2="819.2">
      <stop offset="0.0" stop-color="#ededed"/>
      <stop offset="0.803921568627451" stop-color="#919191"/>
      <stop offset="0.8509803921568627" stop-color="#979797"/>
      <stop offset="0.9176470588235294" stop-color="#a8a8a8"/>
      <stop offset="0.9921568627450981" stop-color="#c3c3c3"/>
      <stop offset="1.0" stop-color="#c7c7c7"/>
    </linearGradient>
    <linearGradient gradientTransform="matrix(0.0594, 0.0, 0.0, -0.0594, 59.6, 10.45)" gradientUnits="userSpaceOnUse" id="gradient9" spreadMethod="pad" x1="-819.2" x2="819.2">
      <stop offset="0.0" stop-color="#ffffff"/>
      <stop offset="1.0" stop-color="#b0b0b0"/>
    </linearGradient>
    <g id="sprite4" transform="matrix(1.0, 0.0, 0.0, 1.0, 0.0, 0.0)">
      <use height="16.0" transform="matrix(1.0, 0.0, 0.0, 1.0, 0.0, 0.0)" width="97.4" xlink:href="#shape7"/>
    </g>
    <g id="shape7" transform="matrix(1.0, 0.0, 0.0, 1.0, 0.0, 0.0)">
      <path d="M97.4 8.0 Q97.4 11.35 83.15 13.65 68.9 16.0 48.7 16.0 28.5 16.0 14.25 13.65 0.0 11.35 0.0 8.0 0.0 4.7 14.25 2.35 28.55 0.0 48.7 0.0 68.85 0.0 83.15 2.35 97.4 4.7 97.4 8.0" fill="url(#gradient10)" fill-rule="evenodd" stroke="none"/>
    </g>
    <linearGradient gradientTransform="matrix(0.1089, 0.0, 0.0, -0.1089, 45.85, 8.0)" gradientUnits="userSpaceOnUse" id="gradient10" spreadMethod="pad" x1="-819.2" x2="819.2">
      <stop offset="0.00392156862745098" stop-color="#231f20"/>
      <stop offset="0.058823529411764705" stop-color="#231f20" stop-opacity="0.79607844"/>
      <stop offset="0.5843137254901961" stop-color="#231f20" stop-opacity="0.0"/>
      <stop offset="0.8627450980392157" stop-color="#231f20"/>
    </linearGradient>
    <g id="shape8" transform="matrix(1.0, 0.0, 0.0, 1.0, -1.4, -6.3)">
      <path d="M31.95 16.45 Q19.95 15.05 14.45 12.7 15.25 10.05 28.2 8.15 41.2 6.3 59.2 6.3 77.3 6.3 90.3 8.2 103.25 10.05 103.9 12.75 98.4 15.05 86.4 16.5 L59.25 17.95 31.95 16.45" fill="url(#gradient11)" fill-rule="evenodd" stroke="none"/>
      <path d="M49.75 110.45 Q49.75 112.55 48.75 112.8 L45.15 113.3 Q42.55 113.95 43.1 115.65 45.65 121.6 43.35 122.05 41.25 122.6 39.75 123.7 37.6 124.9 39.25 125.85 40.5 126.8 41.55 125.6 43.05 123.5 43.6 123.25 44.35 123.05 45.4 123.25 46.65 123.45 47.7 123.25 49.0 123.0 49.0 121.85 49.2 120.25 50.0 119.45 50.55 118.75 52.05 119.2 53.65 119.75 54.1 119.2 54.9 118.55 54.9 116.15 55.1 113.6 55.4 113.05 55.9 112.35 57.7 112.35 59.75 112.55 60.0 111.65 60.85 108.45 62.1 107.35 64.4 104.95 69.0 109.25 72.35 112.3 71.6 119.2 70.25 128.0 61.05 135.1 48.95 143.9 35.9 142.45 35.4 150.95 41.0 156.2 44.6 159.5 50.8 160.7 69.0 133.0 83.65 125.4 L80.8 118.5 87.0 116.85 Q93.4 115.2 93.15 116.35 L93.9 122.3 Q102.4 121.1 108.3 124.45 L110.1 109.0 Q118.55 115.65 117.0 117.8 L117.0 118.05 Q118.3 118.75 118.3 121.1 118.3 124.9 115.75 124.9 L114.7 124.45 113.7 128.0 Q118.75 133.15 119.6 140.55 L119.6 181.55 Q119.6 185.55 115.35 190.05 110.5 195.15 102.65 197.6 89.55 201.65 84.1 202.95 72.3 205.7 61.8 205.8 42.9 205.35 29.75 202.25 L44.6 170.9 Q31.3 167.6 23.55 157.85 16.1 148.15 20.0 134.4 15.65 128.35 15.1 121.1 14.05 112.35 19.45 105.0 26.65 95.05 38.45 91.95 48.15 89.55 53.6 92.2 57.75 94.1 59.25 95.5 66.45 100.75 57.2 104.5 L52.85 105.45 Q49.95 106.2 49.75 107.1 L49.75 110.45" fill="url(#gradient12)" fill-rule="evenodd" stroke="none"/>
      <path d="M32.8 174.0 Q32.8 176.65 31.25 178.25 29.45 180.15 27.15 180.15 24.9 180.15 23.3 178.25 21.5 176.6 21.5 174.0 21.5 171.45 23.3 169.7 24.9 167.8 27.15 167.8 29.45 167.8 31.25 169.7 32.8 171.4 32.8 174.0" fill="url(#gradient13)" fill-rule="evenodd" stroke="none"/>
      <path d="M15.85 154.55 Q18.2 154.55 18.2 157.65 18.2 160.7 15.85 160.7 13.55 160.7 13.55 157.65 13.55 154.55 15.85 154.55" fill="url(#gradient14)" fill-rule="evenodd" stroke="none"/>
      <path d="M41.55 151.25 Q41.55 147.45 45.9 147.45 47.7 147.45 49.0 148.6 50.25 149.55 50.25 151.25 50.25 152.9 49.0 153.85 47.7 155.0 45.9 155.0 41.55 155.0 41.55 151.25" fill="url(#gradient15)" fill-rule="evenodd" stroke="none"/>
      <path d="M119.6 145.05 L119.6 182.75 Q119.6 186.65 115.55 191.0 110.9 196.0 103.4 198.3 L85.75 203.25 Q74.55 205.8 64.65 205.8 49.2 205.8 37.2 203.7 41.1 196.15 49.05 178.25 55.55 163.65 58.5 159.05 76.4 131.8 90.6 127.05 101.85 123.2 110.6 129.4 118.55 135.1 119.6 145.05" fill="url(#gradient16)" fill-rule="evenodd" stroke="none"/>
      <path d="M115.55 191.0 Q110.9 196.0 103.4 198.3 L85.75 203.25 Q74.55 205.8 64.65 205.8 L63.6 205.8 Q76.5 178.9 83.5 167.15 93.1 151.0 99.55 148.6 107.3 145.75 113.15 150.3 118.75 154.45 119.6 161.9 L119.6 182.75 Q119.6 186.65 115.55 191.0" fill="url(#gradient17)" fill-rule="evenodd" stroke="none"/>
      <path d="M25.9 127.5 L34.85 129.65 32.8 139.6 Q31.75 150.7 37.2 156.45 42.5 162.1 52.85 163.55 L61.8 163.8 62.85 164.5 Q63.6 165.5 62.6 168.05 60.55 171.8 57.7 171.15 52.35 170.7 45.65 168.75 32.4 164.8 26.4 156.7 20.25 148.6 22.55 137.25 L25.9 127.5" fill="url(#gradient18)" fill-rule="evenodd" stroke="none"/>
      <path d="M47.45 108.8 Q47.45 111.65 46.4 111.85 L41.55 112.8 Q38.5 113.55 38.95 115.65 L41.3 119.95 Q42.05 121.85 40.25 122.3 37.5 123.1 35.4 125.15 32.8 127.75 34.85 129.2 36.65 130.6 38.45 129.4 L42.05 126.8 Q43.7 126.1 44.9 126.1 46.4 126.35 47.7 126.1 49.3 125.65 49.5 124.9 50.05 123.2 50.8 122.3 52.05 120.9 53.85 120.9 L56.7 120.4 Q57.5 119.7 56.95 118.25 56.4 116.1 56.95 115.2 57.45 114.25 59.5 114.25 61.6 114.5 62.1 113.3 62.85 110.85 63.35 109.95 64.2 108.8 65.95 110.2 69.25 112.6 68.5 119.2 67.45 127.25 59.0 133.7 44.35 144.8 27.4 138.2 22.0 136.0 18.95 126.55 15.35 115.45 21.75 106.4 28.2 97.2 38.7 94.55 47.45 92.15 52.3 94.55 60.55 98.6 57.7 100.7 56.7 101.7 52.05 102.6 47.9 103.35 47.7 104.3 L47.45 108.8" fill="url(#gradient19)" fill-rule="evenodd" stroke="none"/>
      <path d="M93.4 133.45 Q93.2 134.65 90.6 134.65 L88.0 134.4 87.5 133.9 Q85.85 124.9 84.4 120.15 83.65 116.9 81.35 114.45 L79.0 112.8 82.1 111.85 Q85.65 110.9 87.5 110.9 91.1 110.7 92.1 110.9 L92.1 124.65 93.4 133.45" fill="url(#gradient20)" fill-rule="evenodd" stroke="none"/>
      <path d="M116.75 113.05 L117.55 114.95 Q117.05 115.2 116.5 116.15 115.2 117.85 114.45 120.4 L110.35 134.65 Q109.0 134.35 108.55 133.9 L108.05 132.5 110.85 118.75 111.35 109.25 113.95 110.45 Q116.55 112.1 116.75 113.05" fill="url(#gradient21)" fill-rule="evenodd" stroke="none"/>
      <path d="M99.55 107.35 Q99.55 113.35 95.2 117.3 90.85 121.6 84.65 121.6 78.55 121.6 74.4 117.3 70.05 113.35 70.05 107.35 70.05 101.2 74.4 97.15 78.5 92.9 84.65 92.9 90.9 92.9 95.2 97.15 99.55 101.45 99.55 107.35" fill="url(#gradient22)" fill-rule="evenodd" stroke="none"/>
      <path d="M119.6 92.4 L119.6 118.5 Q118.6 119.2 117.0 119.2 113.7 119.2 111.6 115.2 109.3 111.05 109.3 105.45 109.3 99.9 111.6 95.75 113.7 91.7 117.0 91.7 118.5 91.7 119.6 92.4" fill="url(#gradient23)" fill-rule="evenodd" stroke="none"/>
      <path d="M94.15 115.4 Q90.9 118.75 85.7 118.75 80.85 118.75 77.5 115.65 74.15 112.6 73.9 107.85 75.95 110.7 79.8 110.7 82.8 110.7 85.2 108.55 87.25 106.65 87.25 103.55 87.25 98.8 82.85 97.15 L85.7 96.7 Q90.55 96.7 94.15 100.0 97.75 103.1 97.75 107.6 97.75 112.35 94.15 115.4" fill="url(#gradient24)" fill-rule="evenodd" stroke="none"/>
      <path d="M117.8 95.25 L119.6 95.75 119.6 115.2 117.8 115.65 Q115.75 115.65 113.95 112.8 112.4 109.8 112.4 105.45 L112.65 103.8 Q113.7 105.45 114.95 105.45 118.3 105.45 118.3 100.0 118.3 97.15 116.75 95.25 L117.8 95.25" fill="url(#gradient25)" fill-rule="evenodd" stroke="none"/>
      <path d="M9.15 142.55 Q10.3 142.55 11.1 143.55 11.9 144.6 11.9 146.05 11.9 147.5 11.1 148.5 10.3 149.5 9.15 149.5 8.0 149.5 7.2 148.5 6.4 147.45 6.4 146.05 6.4 144.6 7.2 143.55 8.0 142.55 9.15 142.55" fill="url(#gradient26)" fill-rule="evenodd" stroke="none"/>
      <path d="M8.4 172.6 Q11.3 172.6 13.35 174.9 15.4 177.2 15.4 180.45 15.4 183.7 13.35 186.0 11.3 188.3 8.4 188.3 5.5 188.3 3.45 186.0 1.4 183.7 1.4 180.45 1.4 177.2 3.45 174.9 5.5 172.6 8.4 172.6" fill="url(#gradient27)" fill-rule="evenodd" stroke="none"/>
      <path d="M20.9 189.65 Q23.8 189.65 25.85 191.95 27.9 194.25 27.9 197.5 27.9 199.7 26.95 201.5 19.4 199.25 14.0 196.3 14.4 193.45 16.35 191.55 18.3 189.65 20.9 189.65" fill="url(#gradient28)" fill-rule="evenodd" stroke="none"/>
      <path d="M90.1 35.15 Q90.1 36.75 89.15 37.9 88.2 39.05 86.8 39.05 85.4 39.05 84.45 37.9 83.5 36.75 83.5 35.15 83.5 33.5 84.45 32.35 85.4 31.2 86.8 31.2 88.2 31.2 89.15 32.35 90.1 33.5 90.1 35.15" fill="url(#gradient29)" fill-rule="evenodd" stroke="none"/>
      <path d="M77.7 31.5 Q77.7 32.65 77.0 33.5 76.25 34.3 75.25 34.3 74.25 34.3 73.5 33.5 72.8 32.65 72.8 31.5 72.8 30.35 73.5 29.5 74.25 28.7 75.25 28.7 76.25 28.7 77.0 29.5 77.7 30.35 77.7 31.5" fill="url(#gradient30)" fill-rule="evenodd" stroke="none"/>
      <path d="M71.35 35.45 Q71.35 36.6 70.6 37.45 69.85 38.25 68.8 38.25 67.75 38.25 67.0 37.45 66.25 36.6 66.25 35.45 66.25 34.3 67.0 33.45 67.75 32.6 68.8 32.6 69.85 32.6 70.6 33.45 71.35 34.3 71.35 35.45" fill="url(#gradient31)" fill-rule="evenodd" stroke="none"/>
      <path d="M32.6 9.55 L60.55 8.3 88.7 9.55 Q100.2 10.7 100.2 12.35 100.2 13.95 88.7 15.25 L60.55 16.4 32.6 15.25 Q21.15 14.0 21.15 12.35 21.15 10.65 32.6 9.55" fill="#949494" fill-rule="evenodd" stroke="none"/>
      <path d="M32.6 10.7 Q41.6 10.2 59.5 10.2 77.7 10.2 86.35 10.7 L98.1 10.7 98.1 12.2 98.35 12.35 98.1 12.35 98.1 12.5 Q97.1 13.6 89.0 14.65 L60.3 16.05 31.3 14.65 Q21.95 13.6 20.9 12.5 L20.9 10.7 32.6 10.7" fill="url(#gradient32)" fill-rule="evenodd" stroke="none"/>
      <path d="M32.35 8.05 L59.5 6.9 86.9 8.05 Q98.35 9.3 98.35 10.95 98.35 12.65 86.9 13.75 L59.5 14.9 32.35 13.75 Q20.9 12.65 20.9 10.95 20.9 9.3 32.35 8.05" fill="url(#gradient33)" fill-rule="evenodd" stroke="none"/>
      <path d="M36.55 8.55 L60.55 7.65 84.3 8.55 Q94.2 9.3 94.2 10.45 94.2 11.7 84.3 12.5 L60.55 13.35 36.55 12.5 Q26.6 11.65 26.6 10.45 26.6 9.3 36.55 8.55" fill="url(#gradient34)" fill-rule="evenodd" stroke="none"/>
      <path d="M27.65 11.1 Q31.4 8.65 60.55 8.65 89.4 8.65 93.15 11.1 88.95 13.5 60.55 13.5 L38.6 12.85 Q29.6 12.1 27.65 11.1" fill="url(#gradient35)" fill-rule="evenodd" stroke="none"/>
    </g>
    <linearGradient gradientTransform="matrix(0.0546, 0.0, 0.0, -0.0546, 59.2, 12.1)" gradientUnits="userSpaceOnUse" id="gradient11" spreadMethod="pad" x1="-819.2" x2="819.2">
      <stop offset="0.0" stop-color="#ffffff"/>
      <stop offset="1.0" stop-color="#b0b0b0"/>
    </linearGradient>
    <linearGradient gradientTransform="matrix(0.0615, 0.0, 0.0, -0.0615, 67.75, 148.3)" gradientUnits="userSpaceOnUse" id="gradient12" spreadMethod="pad" x1="-819.2" x2="819.2">
      <stop offset="0.0" stop-color="#ffffff"/>
      <stop offset="1.0" stop-color="#d4d4d4"/>
    </linearGradient>
    <linearGradient gradientTransform="matrix(0.0615, 0.0, 0.0, -0.0615, 67.75, 174.0)" gradientUnits="userSpaceOnUse" id="gradient13" spreadMethod="pad" x1="-819.2" x2="819.2">
      <stop offset="0.0" stop-color="#ffffff"/>
      <stop offset="1.0" stop-color="#d4d4d4"/>
    </linearGradient>
    <linearGradient gradientTransform="matrix(0.0615, 0.0, 0.0, -0.0615, 67.75, 157.65)" gradientUnits="userSpaceOnUse" id="gradient14" spreadMethod="pad" x1="-819.2" x2="819.2">
      <stop offset="0.0" stop-color="#ffffff"/>
      <stop offset="1.0" stop-color="#d4d4d4"/>
    </linearGradient>
    <linearGradient gradientTransform="matrix(0.0615, 0.0, 0.0, -0.0615, 67.7, 151.2)" gradientUnits="userSpaceOnUse" id="gradient15" spreadMethod="pad" x1="-819.2" x2="819.2">
      <stop offset="0.0" stop-color="#ffffff"/>
      <stop offset="1.0" stop-color="#d4d4d4"/>
    </linearGradient>
    <linearGradient gradientTransform="matrix(0.0502, 0.0, 0.0, 0.8046, 78.3, 165.7)" gradientUnits="userSpaceOnUse" id="gradient16" spreadMethod="pad" x1="-819.2" x2="819.2">
      <stop offset="0.0" stop-color="#f05424"/>
      <stop offset="1.0" stop-color="#732918"/>
    </linearGradient>
    <linearGradient gradientTransform="matrix(0.034, 0.0, 0.0, 0.3689, 91.6, 176.65)" gradientUnits="userSpaceOnUse" id="gradient17" spreadMethod="pad" x1="-819.2" x2="819.2">
      <stop offset="0.0" stop-color="#db9d40"/>
      <stop offset="1.0" stop-color="#734f18"/>
    </linearGradient>
    <linearGradient gradientTransform="matrix(0.0252, 0.0, 0.0, 0.203, 42.6, 149.4)" gradientUnits="userSpaceOnUse" id="gradient18" spreadMethod="pad" x1="-819.2" x2="819.2">
      <stop offset="0.0" stop-color="#f05424"/>
      <stop offset="1.0" stop-color="#993721"/>
    </linearGradient>
    <linearGradient gradientTransform="matrix(0.031, 0.0, 0.0, 0.3071, 43.05, 117.0)" gradientUnits="userSpaceOnUse" id="gradient19" spreadMethod="pad" x1="-819.2" x2="819.2">
      <stop offset="0.0" stop-color="#f05424"/>
      <stop offset="1.0" stop-color="#993721"/>
    </linearGradient>
    <linearGradient gradientTransform="matrix(0.0088, 0.0, 0.0, 0.0245, 86.2, 122.75)" gradientUnits="userSpaceOnUse" id="gradient20" spreadMethod="pad" x1="-819.2" x2="819.2">
      <stop offset="0.0" stop-color="#a63b1d"/>
      <stop offset="1.0" stop-color="#9b361c"/>
    </linearGradient>
    <linearGradient gradientTransform="matrix(0.0057, 0.0, 0.0, 0.0104, 112.65, 121.95)" gradientUnits="userSpaceOnUse" id="gradient21" spreadMethod="pad" x1="-819.2" x2="819.2">
      <stop offset="0.0" stop-color="#862f1a"/>
      <stop offset="1.0" stop-color="#732918"/>
    </linearGradient>
    <linearGradient gradientTransform="matrix(0.0622, 0.0, 0.0, -0.0622, 66.2, 107.25)" gradientUnits="userSpaceOnUse" id="gradient22" spreadMethod="pad" x1="-819.2" x2="819.2">
      <stop offset="0.0" stop-color="#ffffff"/>
      <stop offset="1.0" stop-color="#d4d4d4"/>
    </linearGradient>
    <linearGradient gradientTransform="matrix(0.0622, 0.0, 0.0, -0.0622, 66.2, 105.45)" gradientUnits="userSpaceOnUse" id="gradient23" spreadMethod="pad" x1="-819.2" x2="819.2">
      <stop offset="0.0" stop-color="#ffffff"/>
      <stop offset="1.0" stop-color="#d4d4d4"/>
    </linearGradient>
    <linearGradient gradientTransform="matrix(0.029, 0.0, 0.0, 0.2681, 95.7, 107.7)" gradientUnits="userSpaceOnUse" id="gradient24" spreadMethod="pad" x1="-819.2" x2="819.2">
      <stop offset="0.0" stop-color="#8c817e"/>
      <stop offset="1.0" stop-color="#6e6362"/>
    </linearGradient>
    <linearGradient gradientTransform="matrix(0.0291, 0.0, 0.0, 0.2696, 95.7, 105.45)" gradientUnits="userSpaceOnUse" id="gradient25" spreadMethod="pad" x1="-819.2" x2="819.2">
      <stop offset="0.0" stop-color="#8c817e"/>
      <stop offset="1.0" stop-color="#6e6362"/>
    </linearGradient>
    <linearGradient gradientTransform="matrix(0.0732, 0.0, 0.0, -0.0732, 70.9, 146.05)" gradientUnits="userSpaceOnUse" id="gradient26" spreadMethod="pad" x1="-819.2" x2="819.2">
      <stop offset="0.0" stop-color="#ffffff"/>
      <stop offset="1.0" stop-color="#d4d4d4"/>
    </linearGradient>
    <linearGradient gradientTransform="matrix(0.1864, 0.0, 0.0, -0.1864, 165.6, 180.45)" gradientUnits="userSpaceOnUse" id="gradient27" spreadMethod="pad" x1="-819.2" x2="819.2">
      <stop offset="0.0" stop-color="#ffffff"/>
      <stop offset="1.0" stop-color="#d4d4d4"/>
    </linearGradient>
    <linearGradient gradientTransform="matrix(0.1852, 0.0, 0.0, -0.1852, 177.1, 195.6)" gradientUnits="userSpaceOnUse" id="gradient28" spreadMethod="pad" x1="-819.2" x2="819.2">
      <stop offset="0.0" stop-color="#ffffff"/>
      <stop offset="1.0" stop-color="#d4d4d4"/>
    </linearGradient>
    <linearGradient gradientTransform="matrix(0.0884, 0.0, 0.0, 1.7344, 63.35, 35.1)" gradientUnits="userSpaceOnUse" id="gradient29" spreadMethod="pad" x1="-819.2" x2="819.2">
      <stop offset="0.0" stop-color="#ffffff"/>
      <stop offset="1.0" stop-color="#d4d4d4"/>
    </linearGradient>
    <linearGradient gradientTransform="matrix(0.0649, 0.0, 0.0, 490.5061, 30.9, 31.7)" gradientUnits="userSpaceOnUse" id="gradient30" spreadMethod="pad" x1="-819.2" x2="819.2">
      <stop offset="0.0" stop-color="#ffffff"/>
      <stop offset="1.0" stop-color="#d4d4d4"/>
    </linearGradient>
    <linearGradient gradientTransform="matrix(0.0677, 0.0, 0.0, -26.0635, 45.15, 35.45)" gradientUnits="userSpaceOnUse" id="gradient31" spreadMethod="pad" x1="-819.2" x2="819.2">
      <stop offset="0.0" stop-color="#ffffff"/>
      <stop offset="1.0" stop-color="#d4d4d4"/>
    </linearGradient>
    <linearGradient gradientTransform="matrix(0.0472, 0.0, 0.0, -0.0472, 59.55, 13.1)" gradientUnits="userSpaceOnUse" id="gradient32" spreadMethod="pad" x1="-819.2" x2="819.2">
      <stop offset="0.0" stop-color="#ffffff"/>
      <stop offset="1.0" stop-color="#949494"/>
    </linearGradient>
    <linearGradient gradientTransform="matrix(0.0466, 0.0, 0.0, -0.0466, 59.5, 10.9)" gradientUnits="userSpaceOnUse" id="gradient33" spreadMethod="pad" x1="-819.2" x2="819.2">
      <stop offset="0.0" stop-color="#ffffff"/>
      <stop offset="1.0" stop-color="#b0b0b0"/>
    </linearGradient>
    <linearGradient gradientTransform="matrix(-0.0409, 0.0, 0.0, 0.0409, 59.75, 10.5)" gradientUnits="userSpaceOnUse" id="gradient34" spreadMethod="pad" x1="-819.2" x2="819.2">
      <stop offset="0.0" stop-color="#ffffff"/>
      <stop offset="1.0" stop-color="#b0b0b0"/>
    </linearGradient>
    <linearGradient gradientTransform="matrix(0.0393, 0.0, 0.0, -0.0393, 60.25, 11.1)" gradientUnits="userSpaceOnUse" id="gradient35" spreadMethod="pad" x1="-819.2" x2="819.2">
      <stop offset="0.0" stop-color="#ffffff"/>
      <stop offset="1.0" stop-color="#b0b0b0"/>
    </linearGradient>
    <g id="sprite5" transform="matrix(1.0, 0.0, 0.0, 1.0, -0.05, 0.0)">
      <use height="7.35" transform="matrix(1.0, 0.0, 0.0, 1.0, 0.05, 0.0)" width="56.8" xlink:href="#shape9"/>
    </g>
    <g id="shape9" transform="matrix(1.0, 0.0, 0.0, 1.0, -0.05, 0.0)">
      <path d="M47.85 4.2 Q51.65 3.15 53.75 1.95 L56.85 2.45 Q54.8 3.75 50.95 5.05 43.35 7.55 34.7 7.35 26.6 7.2 0.85 1.95 0.0 1.6 0.05 0.75 L0.25 0.0 Q19.05 3.7 32.15 5.25 40.35 6.2 47.85 4.2" fill="#000000" fill-rule="evenodd" stroke="none"/>
    </g>
    <g id="shape10" transform="matrix(1.0, 0.0, 0.0, 1.0, -0.9, 0.0)">
      <path d="M22.15 6.8 Q20.05 6.2 19.25 4.95 L18.9 3.8 Q19.35 1.9 27.85 0.75 L42.15 0.1 Q48.05 0.45 60.75 2.6 73.55 4.8 75.1 5.75 76.55 6.7 75.9 7.85 75.35 8.85 73.5 9.4 L68.7 10.7 57.75 11.85 Q51.0 12.2 37.3 9.9 26.55 8.1 22.15 6.8 M50.45 4.75 Q45.2 5.4 45.15 6.35 45.1 7.1 49.75 7.75 L57.6 8.2 Q68.1 7.65 69.25 6.8 70.8 5.75 58.65 4.45 L50.45 4.75 M43.1 4.05 Q46.45 3.15 45.55 2.6 44.5 1.95 41.05 1.65 L33.1 1.85 Q29.0 2.35 27.6 3.1 26.35 3.8 28.0 4.15 L33.15 4.95 37.35 5.0 43.1 4.05" fill="url(#gradient36)" fill-rule="evenodd" stroke="none"/>
      <path d="M47.3 2.1 Q48.3 2.75 44.6 3.85 41.2 4.9 38.3 5.1 L34.6 5.2 37.3 5.1 Q39.9 5.0 42.95 4.1 46.15 3.2 45.25 2.65 44.2 2.0 40.9 1.75 L33.1 1.95 Q27.65 2.6 27.15 3.6 27.0 3.05 28.55 2.4 30.35 1.7 33.7 1.2 L42.4 0.9 Q46.1 1.25 47.3 2.1" fill="#707070" fill-rule="evenodd" stroke="none"/>
      <path d="M49.95 4.85 Q45.05 5.25 44.45 6.1 L44.4 5.95 Q44.5 4.75 50.3 3.9 L59.35 3.45 67.8 4.7 Q71.9 5.55 70.95 6.3 69.6 7.4 58.1 8.15 L53.25 8.1 56.85 8.15 Q67.35 7.6 68.5 6.75 69.3 6.2 65.5 5.65 L57.65 4.8 Q54.55 4.45 49.95 4.85" fill="#707070" fill-rule="evenodd" stroke="none"/>
      <path d="M21.4 6.75 L20.85 6.6 20.3 6.35 20.25 6.3 19.8 6.1 19.15 5.65 19.15 5.6 18.9 5.4 18.85 5.35 18.7 5.15 18.65 5.1 18.55 4.9 18.5 4.85 18.4 4.7 18.35 4.55 18.3 4.5 18.25 4.4 Q22.25 5.75 28.35 6.4 L43.8 8.6 56.1 10.05 Q60.3 9.95 75.3 6.8 75.5 7.55 74.75 8.3 74.05 9.0 72.75 9.35 L67.95 10.65 57.0 11.85 Q50.2 12.2 36.55 9.85 25.8 8.05 21.4 6.75" fill="#969696" fill-rule="evenodd" stroke="none"/>
      <path d="M75.8 6.6 Q76.05 7.4 75.35 8.25 74.65 9.2 73.45 9.55 L68.3 10.9 Q63.65 11.85 56.95 12.2 L56.4 12.05 55.85 11.85 56.25 10.05 63.6 9.1 68.0 8.3 72.3 7.55 75.8 6.6" fill="#808080" fill-rule="evenodd" stroke="none"/>
      <path d="M18.25 4.4 L21.4 5.05 29.5 6.45 43.9 8.65 56.25 9.9 69.7 8.1 Q60.4 10.7 54.75 10.6 L38.4 8.45 25.05 6.05 18.25 4.4" fill="url(#gradient37)" fill-rule="evenodd" stroke="none"/>
      <path d="M47.25 4.4 L49.85 3.9 54.5 3.15 Q57.3 2.85 63.45 3.95 L56.1 3.35 50.25 3.9 47.25 4.4" fill="url(#gradient38)" fill-rule="evenodd" stroke="none"/>
      <path d="M32.4 1.4 L34.7 0.95 39.15 0.5 Q42.0 0.55 45.85 1.45 L41.25 0.8 36.2 1.05 32.4 1.4" fill="url(#gradient39)" fill-rule="evenodd" stroke="none"/>
      <path d="M3.05 38.8 Q6.25 40.25 11.25 41.45 27.4 45.3 56.25 45.3 85.1 45.3 104.95 40.4 114.9 37.9 119.05 35.45 L118.05 186.0 Q113.3 190.6 103.5 195.05 83.85 203.85 58.6 202.9 33.35 201.95 14.6 192.15 8.75 189.1 4.25 185.55 L0.9 182.6 0.9 37.6 3.05 38.8" fill="url(#gradient40)" fill-rule="evenodd" stroke="none"/>
    </g>
    <linearGradient gradientTransform="matrix(0.0383, 0.0116, 0.0116, -0.0383, 53.25, 7.65)" gradientUnits="userSpaceOnUse" id="gradient36" spreadMethod="pad" x1="-819.2" x2="819.2">
      <stop offset="0.06274509803921569" stop-color="#ffffff"/>
      <stop offset="1.0" stop-color="#b0b0b0"/>
    </linearGradient>
    <linearGradient gradientTransform="matrix(0.0314, 0.0022, 0.0022, -0.0314, 43.85, 8.0)" gradientUnits="userSpaceOnUse" id="gradient37" spreadMethod="pad" x1="-819.2" x2="819.2">
      <stop offset="0.0" stop-color="#ffffff"/>
      <stop offset="1.0" stop-color="#ffffff"/>
    </linearGradient>
    <linearGradient gradientTransform="matrix(0.0098, 7.0E-4, 7.0E-4, -0.0098, 55.35, 4.0)" gradientUnits="userSpaceOnUse" id="gradient38" spreadMethod="pad" x1="-819.2" x2="819.2">
      <stop offset="0.0" stop-color="#ffffff"/>
      <stop offset="1.0" stop-color="#ffffff"/>
    </linearGradient>
    <linearGradient gradientTransform="matrix(0.0082, 6.0E-4, 6.0E-4, -0.0082, 39.15, 1.15)" gradientUnits="userSpaceOnUse" id="gradient39" spreadMethod="pad" x1="-819.2" x2="819.2">
      <stop offset="0.0" stop-color="#ffffff"/>
      <stop offset="1.0" stop-color="#ffffff"/>
    </linearGradient>
    <linearGradient gradientTransform="matrix(0.0, 0.0833, 0.0833, 0.0, 60.0, -2.5)" gradientUnits="userSpaceOnUse" id="gradient40" spreadMethod="pad" x1="-819.2" x2="819.2">
      <stop offset="0.00784313725490196" stop-color="#ffffff"/>
      <stop offset="0.996078431372549" stop-color="#ffffff" stop-opacity="0.007843138"/>
      <stop offset="1.0" stop-color="#ffffff" stop-opacity="0.0"/>
    </linearGradient>
    <g id="sprite6" transform="matrix(1.0, 0.0, 0.0, 1.0, -36.0, -36.0)">
      <use height="163.2" transform="matrix(1.0, 0.0, 0.0, 1.0, 36.0, 36.0)" width="26.7" xlink:href="#shape11"/>
    </g>
    <g id="shape11" transform="matrix(1.0, 0.0, 0.0, 1.0, -36.0, -36.0)">
      <path d="M51.35 39.7 Q58.0 37.85 62.7 36.0 L62.7 186.85 60.1 189.1 53.9 193.65 Q50.95 195.6 43.15 197.6 L36.0 199.2 36.0 42.15 Q45.2 41.4 51.35 39.7" fill="url(#gradient41)" fill-rule="evenodd" stroke="none"/>
    </g>
    <linearGradient gradientTransform="matrix(0.0014, 0.1742, 0.1742, -0.0014, 49.0, 76.3)" gradientUnits="userSpaceOnUse" id="gradient41" spreadMethod="pad" x1="-819.2" x2="819.2">
      <stop offset="0.1411764705882353" stop-color="#231f20"/>
      <stop offset="1.0" stop-color="#231f20" stop-opacity="0.0"/>
    </linearGradient>
    <g id="sprite7" transform="matrix(1.0, 0.0, 0.0, 1.0, -36.0, -36.0)">
      <use height="175.9" transform="matrix(1.0, 0.0, 0.0, 1.0, 36.0, 36.0)" width="19.3" xlink:href="#shape12"/>
    </g>
    <g id="shape12" transform="matrix(1.0, 0.0, 0.0, 1.0, -36.0, -36.0)">
      <path d="M41.95 42.7 Q44.45 39.1 46.9 36.0 L52.05 36.6 55.3 41.4 48.9 48.6 Q42.4 56.25 41.95 58.75 41.55 61.25 42.4 135.6 L43.3 209.4 46.3 211.9 Q39.25 207.15 36.9 201.6 36.1 199.7 36.15 168.45 L36.35 137.6 36.05 96.45 Q35.9 54.8 36.35 52.35 36.85 49.9 41.95 42.7" fill="#000000" fill-rule="evenodd" stroke="none"/>
    </g>
    <g id="sprite8" transform="matrix(1.0, 0.0, 0.0, 1.0, -36.0, -36.0)">
      <use height="20.9" transform="matrix(1.0, 0.0, 0.0, 1.0, 36.0, 36.0)" width="30.05" xlink:href="#shape13"/>
    </g>
    <g id="shape13" transform="matrix(1.0, 0.0, 0.0, 1.0, -36.0, -36.0)">
      <path d="M66.05 50.75 Q59.35 53.25 52.7 54.75 46.05 56.3 39.35 56.9 L36.0 40.3 58.0 36.0 66.05 50.75" fill="url(#gradient42)" fill-rule="evenodd" stroke="none"/>
    </g>
    <linearGradient gradientTransform="matrix(2.0E-4, 0.0222, 0.0222, -2.0E-4, 51.0, 41.15)" gradientUnits="userSpaceOnUse" id="gradient42" spreadMethod="pad" x1="-819.2" x2="819.2">
      <stop offset="0.1411764705882353" stop-color="#231f20"/>
      <stop offset="1.0" stop-color="#231f20" stop-opacity="0.0"/>
    </linearGradient>
    <g id="sprite9" transform="matrix(1.0, 0.0, 0.0, 1.0, 0.0, 0.0)">
      <use height="160.8" transform="matrix(1.0, 0.0, 0.0, 1.0, 0.0, 0.0)" width="30.0" xlink:href="#shape14"/>
    </g>
    <g id="shape14" transform="matrix(1.0, 0.0, 0.0, 1.0, 0.0, 0.0)">
      <path d="M3.25 0.0 Q13.7 2.25 30.0 3.0 29.45 15.8 28.7 80.1 L27.9 160.8 Q18.4 160.0 11.1 157.55 5.85 155.85 0.0 152.55 L3.25 0.0" fill="url(#gradient43)" fill-rule="evenodd" stroke="none"/>
    </g>
    <linearGradient gradientTransform="matrix(0.0, 0.1522, 0.1522, 0.0, 15.0, 56.6)" gradientUnits="userSpaceOnUse" id="gradient43" spreadMethod="pad" x1="-819.2" x2="819.2">
      <stop offset="0.00784313725490196" stop-color="#ffffff"/>
      <stop offset="1.0" stop-color="#ffffff" stop-opacity="0.0"/>
    </linearGradient>
    <g id="shape15" transform="matrix(1.0, 0.0, 0.0, 1.0, -11.0, -59.55)">
      <path d="M12.65 60.4 L26.25 61.75 60.65 63.1 93.95 61.35 106.4 59.55 107.0 179.6 Q103.3 182.35 95.6 185.2 80.2 190.8 60.1 191.05 41.05 191.3 24.1 186.6 18.8 185.1 14.4 183.3 L11.0 181.8 12.65 60.4 M28.55 63.55 L14.4 62.05 12.4 180.75 Q22.15 184.55 26.15 185.5 39.45 188.7 60.4 188.9 77.4 189.05 92.85 184.25 100.6 181.9 104.9 179.45 L104.4 62.05 92.3 63.55 61.4 65.05 28.55 63.55" fill="#612020" fill-rule="evenodd" stroke="none"/>
      <path d="M14.4 62.05 L25.85 63.4 57.25 64.75 90.25 63.75 103.25 62.75 91.25 64.55 Q76.4 66.35 62.25 66.2 46.0 66.0 28.6 64.0 L14.4 62.05" fill="url(#gradient44)" fill-rule="evenodd" stroke="none"/>
      <path d="M30.6 63.75 L14.8 62.1 12.65 60.4 26.25 61.75 60.65 63.1 93.95 61.35 106.4 59.55 106.4 59.65 103.7 62.15 89.6 63.8 61.4 65.05 30.6 63.75" fill="#381111" fill-rule="evenodd" stroke="none"/>
      <path d="M24.1 186.6 Q18.8 185.1 14.4 183.3 L11.0 181.8 11.05 180.8 12.45 179.35 12.4 180.75 Q22.15 184.55 26.15 185.5 39.45 188.7 60.4 188.9 77.4 189.05 92.85 184.25 100.6 181.9 104.9 179.45 L104.9 179.4 106.75 179.8 Q102.2 183.0 93.85 185.8 79.0 190.8 60.1 191.05 41.05 191.3 24.1 186.6" fill="#381111" fill-rule="evenodd" stroke="none"/>
      <path d="M12.65 60.4 L26.25 61.75 60.65 63.1 93.95 61.35 106.4 59.55 107.0 179.6 Q103.3 182.35 95.6 185.2 80.2 190.8 60.1 191.05 41.05 191.3 24.1 186.6 18.8 185.1 14.4 183.3 L11.0 181.8 12.65 60.4 M28.55 63.55 L14.4 62.05 12.4 180.75 Q22.15 184.55 26.15 185.5 39.45 188.7 60.4 188.9 77.4 189.05 92.85 184.25 100.6 181.9 104.9 179.45 L104.4 62.05 92.3 63.55 61.4 65.05 28.55 63.55" fill="#823535" fill-rule="evenodd" stroke="none"/>
    </g>
    <linearGradient gradientTransform="matrix(0.0, 0.0574, 0.0574, 0.0, 58.85, 90.7)" gradientUnits="userSpaceOnUse" id="gradient44" spreadMethod="pad" x1="-819.2" x2="819.2">
      <stop offset="0.00784313725490196" stop-color="#ffffff"/>
      <stop offset="1.0" stop-color="#ffffff" stop-opacity="0.0"/>
    </linearGradient>
    <g id="sprite10" transform="matrix(1.0, 0.0, 0.0, 1.0, 0.0, 0.0)">
      <use height="5.1" transform="matrix(1.0, 0.0, 0.0, 1.0, 0.0, 0.0)" width="88.85" xlink:href="#shape16"/>
    </g>
    <g id="shape16" transform="matrix(1.0, 0.0, 0.0, 1.0, 0.0, 0.0)">
      <path d="M43.55 5.1 Q24.2 4.8 10.15 2.35 3.15 1.15 0.0 0.0 L11.45 1.35 42.85 2.7 75.85 1.7 88.85 0.7 74.7 3.05 Q57.75 5.3 43.55 5.1" fill="#fafafa" fill-rule="evenodd" stroke="none"/>
    </g>
    <g id="shape17" transform="matrix(1.0, 0.0, 0.0, 1.0, -11.0, -59.55)">
      <path d="M30.6 63.75 L14.8 62.1 12.65 60.4 26.25 61.75 60.65 63.1 93.95 61.35 106.4 59.55 106.4 59.65 103.7 62.15 89.6 63.8 61.4 65.05 30.6 63.75" fill="#402424" fill-rule="evenodd" stroke="none"/>
      <path d="M24.1 186.6 Q18.8 185.1 14.4 183.3 L11.0 181.8 11.05 180.8 12.45 179.35 12.4 180.75 Q22.15 184.55 26.15 185.5 39.45 188.7 60.4 188.9 77.4 189.05 92.85 184.25 100.6 181.9 104.9 179.45 L104.9 179.4 106.75 179.8 Q102.2 183.0 93.85 185.8 79.0 190.8 60.1 191.05 41.05 191.3 24.1 186.6" fill="#542f2f" fill-rule="evenodd" stroke="none"/>
      <path d="M104.4 62.05 L103.85 62.1 106.4 59.55 107.0 179.6 106.3 180.1 104.65 179.6 104.9 179.45 104.4 62.05" fill="#4f2a2a" fill-rule="evenodd" stroke="none"/>
    </g>
    <g id="sprite11" transform="matrix(1.0, 0.0, 0.0, 1.0, 0.0, 0.0)">
      <use height="19.9" transform="matrix(1.0, 0.0, 0.0, 1.0, 0.0, 0.0)" width="32.25" xlink:href="#shape18"/>
    </g>
    <g id="shape18" transform="matrix(1.0, 0.0, 0.0, 1.0, 0.0, 0.0)">
      <path d="M7.3 0.0 L32.25 2.4 26.8 19.9 13.15 18.8 Q3.4 17.75 0.0 16.65 L7.3 0.0" fill="url(#gradient45)" fill-rule="evenodd" stroke="none"/>
    </g>
    <linearGradient gradientTransform="matrix(0.0, 0.0478, 0.0478, 0.0, 16.1, 6.7)" gradientUnits="userSpaceOnUse" id="gradient45" spreadMethod="pad" x1="-819.2" x2="819.2">
      <stop offset="0.00784313725490196" stop-color="#ffffff"/>
      <stop offset="0.996078431372549" stop-color="#ffffff" stop-opacity="0.007843138"/>
      <stop offset="1.0" stop-color="#ffffff" stop-opacity="0.0"/>
    </linearGradient>
  </defs>
</svg>
