<?xml version="1.0" encoding="UTF-8" standalone="no"?>
<svg xmlns:xlink="http://www.w3.org/1999/xlink" height="37.5px" width="87.75px" xmlns="http://www.w3.org/2000/svg">
  <g transform="matrix(1.0, 0.0, 0.0, 1.0, 0.0, 0.0)">
    <use height="37.5" transform="matrix(1.0, 0.0, 0.0, 1.0, 0.0, 0.0)" width="87.75" xlink:href="#shape0"/>
  </g>
  <defs>
    <g id="shape0" transform="matrix(1.0, 0.0, 0.0, 1.0, 0.0, 0.0)">
      <path d="M3.55 1.4 L2.95 37.4 0.3 35.75 0.0 1.75 3.55 1.4" fill="#413b31" fill-rule="evenodd" stroke="none"/>
      <path d="M87.0 0.0 L87.75 37.5 2.95 37.4 3.55 1.4 87.0 0.0" fill="#554d3d" fill-rule="evenodd" stroke="none"/>
      <path d="M14.95 15.15 Q15.2 17.45 18.25 16.4 21.2 15.45 21.0 13.5 20.8 11.6 17.95 12.2 14.7 12.9 14.95 15.15 M24.75 12.6 Q27.55 15.85 29.35 19.6 L14.0 19.6 13.0 23.1 Q12.35 26.95 14.0 28.6 15.65 30.25 21.1 27.2 23.8 25.7 26.2 23.85 L28.8 27.55 Q27.95 29.1 25.7 30.45 21.2 33.25 14.25 32.55 10.3 32.2 8.4 29.0 6.65 26.15 6.9 21.85 7.1 17.7 9.0 14.1 11.0 10.3 14.0 8.75 19.15 6.1 24.75 12.6" fill="#dd2736" fill-rule="evenodd" stroke="none"/>
      <path d="M44.25 8.3 L50.75 7.55 43.0 20.05 51.5 32.05 47.0 31.8 40.75 22.8 36.25 31.55 29.25 31.55 38.0 20.05 27.75 9.3 33.0 9.05 40.0 18.05 44.25 8.3" fill="#dd2736" fill-rule="evenodd" stroke="none"/>
      <path d="M55.0 12.3 L59.0 11.8 58.15 15.45 Q57.35 19.55 57.5 22.05 57.75 26.05 59.5 32.3 L55.0 31.8 55.0 12.3" fill="#dd2736" fill-rule="evenodd" stroke="none"/>
      <path d="M56.0 5.0 Q58.75 5.25 59.2 7.6 59.65 9.9 56.75 9.65 54.05 9.4 54.2 7.1 54.4 4.8 56.0 5.0" fill="#dd2736" fill-rule="evenodd" stroke="none"/>
      <path d="M82.75 4.55 L83.0 9.9 74.2 12.2 73.75 14.55 Q73.35 17.25 73.5 19.1 L74.45 31.55 70.95 31.35 71.45 12.2 61.75 13.35 62.2 8.95 64.9 9.4 70.75 8.95 Q74.9 7.8 82.75 4.55" fill="#dd2736" fill-rule="evenodd" stroke="none"/>
    </g>
  </defs>
</svg>
