<?xml version="1.0" encoding="UTF-8" standalone="no"?>
<svg xmlns:xlink="http://www.w3.org/1999/xlink" height="171.75px" width="171.75px" xmlns="http://www.w3.org/2000/svg">
  <g transform="matrix(1.0, 0.0, 0.0, 1.0, 0.0, 0.0)">
    <use height="171.75" transform="matrix(1.0, 0.0, 0.0, 1.0, 0.0, 0.0)" width="171.75" xlink:href="#shape0"/>
    <use height="128.6" transform="matrix(1.0, 0.0, 0.0, 1.0, 21.45, 19.25)" width="128.8" xlink:href="#sprite0"/>
    <use height="122.7" transform="matrix(1.0, 0.0, 0.0, 1.0, 36.3, 23.9)" width="99.1" xlink:href="#shape2"/>
    <use height="36.05" transform="matrix(1.0, 0.0, 0.0, 1.0, 75.85, 53.9)" width="41.55" xlink:href="#sprite1"/>
    <use height="37.15" transform="matrix(1.0, 0.0, 0.0, 1.0, 74.2, 51.55)" width="45.1" xlink:href="#shape4"/>
    <use height="66.45" transform="matrix(1.0, 0.0, 0.0, 1.0, 26.25, 22.2)" width="119.2" xlink:href="#sprite2"/>
    <use height="61.9" transform="matrix(1.0, 0.0, 0.0, 1.0, 21.55, 85.95)" width="128.6" xlink:href="#sprite5"/>
  </g>
  <defs>
    <g id="shape0" transform="matrix(1.0, 0.0, 0.0, 1.0, 0.0, 0.0)">
      <path d="M165.0 52.45 Q171.75 68.4 171.75 85.85 171.75 103.3 165.0 119.25 158.45 134.65 146.55 146.55 134.65 158.45 119.25 165.0 103.3 171.75 85.85 171.75 68.4 171.75 52.45 165.0 37.05 158.45 25.15 146.55 13.3 134.65 6.75 119.25 0.0 103.3 0.0 85.85 0.0 68.4 6.75 52.45 13.3 37.05 25.15 25.15 37.05 13.3 52.45 6.75 68.4 0.0 85.85 0.0 103.3 0.0 119.25 6.75 134.65 13.3 146.55 25.15 158.45 37.05 165.0 52.45" fill="#ffffff" fill-rule="evenodd" stroke="none"/>
      <path d="M157.55 85.85 Q157.55 100.4 151.9 113.75 146.45 126.6 136.55 136.55 126.6 146.5 113.75 151.95 100.4 157.6 85.85 157.6 71.3 157.6 57.95 151.95 45.1 146.5 35.2 136.55 25.3 126.6 19.85 113.75 14.2 100.4 14.2 85.85 14.2 71.3 19.85 57.95 25.25 45.1 35.2 35.15 45.1 25.25 57.95 19.8 71.3 14.15 85.85 14.15 100.4 14.15 113.75 19.8 126.6 25.25 136.55 35.15 146.45 45.1 151.9 57.95 157.55 71.3 157.55 85.85" fill="url(#gradient0)" fill-rule="evenodd" stroke="none"/>
      <path d="M152.95 58.05 Q158.45 71.3 158.45 85.85 158.45 100.4 152.95 113.65 147.5 126.95 137.2 137.2 126.95 147.5 113.65 152.95 100.4 158.45 85.85 158.45 71.3 158.45 58.05 152.95 44.8 147.5 34.5 137.2 24.25 126.95 18.75 113.65 13.3 100.4 13.3 85.85 13.3 71.3 18.75 58.05 24.25 44.8 34.5 34.5 44.8 24.2 58.05 18.75 71.3 13.25 85.85 13.25 100.4 13.25 113.65 18.75 126.95 24.25 137.2 34.5 147.5 44.8 152.95 58.05 M156.65 85.85 Q156.65 71.45 151.1 58.3 145.7 45.6 135.9 35.8 115.2 15.05 85.85 15.05 71.45 15.05 58.3 20.6 45.6 26.0 35.8 35.8 26.05 45.6 20.65 58.3 15.1 71.45 15.1 85.85 15.1 115.2 35.8 135.95 45.6 145.75 58.3 151.15 71.45 156.7 85.85 156.7 100.25 156.7 113.4 151.15 126.1 145.75 135.9 135.95 145.7 126.15 151.1 113.4 156.65 100.25 156.65 85.85" fill="#470b17" fill-rule="evenodd" stroke="none"/>
    </g>
    <linearGradient gradientTransform="matrix(0.0, -0.0875, -0.0875, 0.0, 85.85, 85.85)" gradientUnits="userSpaceOnUse" id="gradient0" spreadMethod="pad" x1="-819.2" x2="819.2">
      <stop offset="0.03529411764705882" stop-color="#722f2a"/>
      <stop offset="0.5843137254901961" stop-color="#e76267"/>
      <stop offset="1.0" stop-color="#dcb574"/>
    </linearGradient>
    <g id="sprite0" transform="matrix(1.0, 0.0, 0.0, 1.0, 0.0, 0.0)">
      <use height="128.6" transform="matrix(1.0, 0.0, 0.0, 1.0, 0.0, 0.0)" width="128.8" xlink:href="#shape1"/>
    </g>
    <g id="shape1" transform="matrix(1.0, 0.0, 0.0, 1.0, 0.0, 0.0)">
      <path d="M128.8 64.3 Q128.8 90.95 109.95 109.75 91.1 128.6 64.4 128.6 37.75 128.6 18.85 109.75 0.0 90.95 0.0 64.3 0.0 37.7 18.85 18.85 37.75 0.0 64.4 0.0 91.1 0.0 109.95 18.85 128.8 37.65 128.8 64.3" fill="url(#gradient1)" fill-rule="evenodd" stroke="none"/>
    </g>
    <radialGradient cx="0" cy="0" gradientTransform="matrix(0.0785, 0.0, 0.0, -0.0785, 64.4, 64.3)" gradientUnits="userSpaceOnUse" id="gradient1" r="819.2" spreadMethod="pad">
      <stop offset="0.0" stop-color="#f6bd8e"/>
      <stop offset="0.0196078431372549" stop-color="#f5ba8c"/>
      <stop offset="0.24705882352941178" stop-color="#ed9b78"/>
      <stop offset="0.44313725490196076" stop-color="#e9886b"/>
      <stop offset="0.5843137254901961" stop-color="#e78267"/>
      <stop offset="0.5882352941176471" stop-color="#e68066" stop-opacity="0.99215686"/>
      <stop offset="0.6745098039215687" stop-color="#da6858" stop-opacity="0.9019608"/>
      <stop offset="0.7686274509803922" stop-color="#d1564e" stop-opacity="0.8392157"/>
      <stop offset="0.8705882352941177" stop-color="#cc4b48" stop-opacity="0.8"/>
      <stop offset="1.0" stop-color="#ca4846" stop-opacity="0.7882353"/>
    </radialGradient>
    <g id="shape2" transform="matrix(1.0, 0.0, 0.0, 1.0, -36.3, -23.9)">
      <path d="M96.35 32.1 Q96.8 33.65 96.25 35.25 95.85 36.4 94.95 37.25 L93.75 38.35 94.0 39.95 Q94.2 41.1 93.8 42.35 93.25 43.85 91.9 44.85 L91.25 45.25 89.05 45.75 Q87.8 45.75 86.6 45.1 L85.2 44.3 83.7 45.05 Q82.45 45.7 81.0 45.55 79.6 45.4 78.45 44.55 77.3 43.7 76.8 42.35 76.3 41.05 76.55 39.6 L76.85 38.0 75.7 36.85 Q74.75 35.85 74.4 34.4 74.1 33.0 74.55 31.65 75.25 29.75 77.1 28.8 77.85 28.45 78.7 28.35 L80.3 28.15 81.05 26.7 Q81.85 25.15 83.35 24.5 84.3 24.0 85.5 24.0 L85.6 24.0 Q87.05 24.05 88.25 24.8 89.45 25.6 90.05 26.9 L90.75 28.35 92.35 28.6 Q93.8 28.85 94.85 29.8 95.95 30.75 96.35 32.1" fill="url(#gradient2)" fill-rule="evenodd" stroke="none"/>
      <path d="M96.35 32.1 Q96.8 33.65 96.25 35.25 95.85 36.4 94.95 37.25 L93.75 38.35 94.0 39.95 Q94.2 41.1 93.8 42.35 93.25 43.85 91.9 44.85 L91.25 45.25 89.05 45.75 Q87.8 45.75 86.6 45.1 L85.2 44.3 83.7 45.05 Q82.45 45.7 81.0 45.55 79.6 45.4 78.45 44.55 77.3 43.7 76.8 42.35 76.3 41.05 76.55 39.6 L76.85 38.0 75.7 36.85 Q74.75 35.85 74.4 34.4 74.1 33.0 74.55 31.65 75.25 29.75 77.1 28.8 77.85 28.45 78.7 28.35 L80.3 28.15 81.05 26.7 Q81.85 25.15 83.35 24.5 84.3 24.0 85.5 24.0 L85.6 24.0 Q87.05 24.05 88.25 24.8 89.45 25.6 90.05 26.9 L90.75 28.35 92.35 28.6 Q93.8 28.85 94.85 29.8 95.95 30.75 96.35 32.1 Z" fill="none" stroke="#f7e0e7" stroke-linecap="butt" stroke-linejoin="miter" stroke-width="0.25"/>
      <path d="M91.9 31.45 Q93.2 31.7 93.6 32.95 93.85 33.65 93.6 34.3 L93.0 35.15 90.7 37.3 91.2 40.4 91.1 41.45 90.3 42.5 88.0 42.6 85.25 41.1 82.45 42.5 Q81.2 43.1 80.2 42.3 79.1 41.5 79.35 40.15 L79.95 37.05 77.75 34.85 Q76.85 33.85 77.25 32.6 77.7 31.3 79.05 31.15 L82.15 30.8 83.6 28.0 84.4 27.15 85.55 26.85 Q86.85 26.85 87.45 28.1 L88.8 30.95 91.9 31.45" fill="#470b17" fill-rule="evenodd" stroke="none"/>
      <path d="M91.7 32.45 Q92.4 32.55 92.65 33.25 L92.6 33.95 92.3 34.4 89.65 36.9 90.2 40.55 90.15 41.1 89.7 41.65 88.5 41.7 85.3 39.95 82.0 41.6 80.8 41.45 Q80.2 41.0 80.35 40.35 L81.05 36.75 78.5 34.15 Q77.95 33.6 78.2 32.95 78.4 32.3 79.15 32.15 L82.8 31.7 84.5 28.45 Q84.85 27.85 85.55 27.85 86.25 27.85 86.55 28.5 L88.1 31.85 91.7 32.45" fill="url(#gradient3)" fill-rule="evenodd" stroke="none"/>
      <path d="M91.7 32.45 Q92.4 32.55 92.65 33.25 L92.6 33.95 92.3 34.4 92.25 34.0 Q92.1 33.35 91.35 33.2 L87.75 32.6 86.2 29.3 Q85.9 28.65 85.15 28.65 84.45 28.55 84.1 29.25 L82.4 32.5 78.8 32.95 Q78.35 33.05 78.2 33.2 L78.2 32.95 Q78.4 32.3 79.15 32.15 L82.8 31.7 84.5 28.45 Q84.85 27.85 85.55 27.85 86.25 27.85 86.55 28.5 L88.1 31.85 91.7 32.45" fill="#f7e0e7" fill-rule="evenodd" stroke="none"/>
      <path d="M66.3 32.95 L66.3 33.0 Q67.25 35.1 65.65 37.65 L63.35 40.3 Q60.1 43.4 56.85 43.9 L56.3 43.9 55.3 45.4 Q52.45 49.15 49.6 50.2 L49.35 50.25 48.8 52.2 Q47.25 56.5 44.7 58.4 L44.25 58.7 44.0 58.8 43.1 58.9 42.05 58.55 Q41.0 57.9 40.35 56.55 L39.7 56.75 39.15 56.85 38.95 56.8 Q37.85 56.75 37.2 55.85 36.0 54.1 36.65 51.5 37.15 49.6 38.45 47.9 40.3 45.65 42.95 44.55 42.8 42.75 44.15 40.85 45.15 39.4 46.65 38.3 48.85 36.85 51.55 36.45 52.0 34.9 53.55 33.45 54.8 32.35 56.25 31.65 58.35 30.8 60.7 30.8 63.0 30.85 64.75 31.7 65.85 31.95 66.3 32.95" fill="url(#gradient4)" fill-rule="evenodd" stroke="none"/>
      <path d="M66.3 32.95 Q65.85 31.95 64.75 31.7 63.0 30.85 60.7 30.8 58.35 30.8 56.25 31.65 54.8 32.35 53.55 33.45 52.0 34.9 51.55 36.45 48.85 36.85 46.65 38.3 45.15 39.4 44.15 40.85 42.8 42.75 42.95 44.55 40.3 45.65 38.45 47.9 37.15 49.6 36.65 51.5 36.0 54.1 37.2 55.85 37.85 56.75 38.95 56.8 L39.15 56.85 39.7 56.75 40.35 56.55 Q41.0 57.9 42.05 58.55 L43.1 58.9 44.0 58.8 44.25 58.7 44.7 58.4 Q47.25 56.5 48.8 52.2 L49.35 50.25 49.6 50.2 Q52.45 49.15 55.3 45.4 L56.3 43.9 56.85 43.9 Q60.1 43.4 63.35 40.3 L65.65 37.65 Q67.25 35.1 66.3 33.0 L66.3 32.95 Z" fill="none" stroke="#f7e0e7" stroke-linecap="butt" stroke-linejoin="miter" stroke-width="0.25"/>
      <path d="M64.3 33.2 Q64.65 33.2 64.85 33.65 65.4 34.9 64.4 36.65 63.65 37.95 62.35 39.1 59.4 41.9 56.6 42.35 L56.3 42.35 55.8 42.0 55.6 41.6 Q55.1 43.05 54.05 44.4 51.75 47.7 49.05 48.7 L48.9 48.7 48.75 48.75 48.7 48.75 48.2 48.5 48.0 48.2 Q48.0 49.9 47.3 51.6 45.95 55.55 43.75 57.15 L43.55 57.25 43.5 57.3 43.2 57.3 42.9 57.2 Q41.6 56.4 41.35 54.35 L39.3 55.2 39.1 55.25 39.05 55.25 Q38.7 55.25 38.5 54.95 37.65 53.7 38.25 51.7 38.7 50.15 39.7 48.85 42.05 46.05 45.25 45.55 L45.15 45.55 45.1 45.5 44.65 45.1 Q44.2 43.65 45.35 41.9 46.2 40.6 47.55 39.6 50.05 37.95 53.0 37.95 52.85 36.45 54.3 34.95 55.4 33.85 56.9 33.1 58.75 32.35 60.75 32.4 62.8 32.4 64.25 33.2 L64.3 33.2" fill="#470b17" fill-rule="evenodd" stroke="none"/>
      <path d="M63.9 33.85 Q63.95 34.9 62.5 35.95 L59.95 37.2 Q56.2 38.5 53.75 37.9 56.6 36.25 57.9 35.3 60.9 33.25 63.9 33.85" fill="url(#gradient5)" fill-rule="evenodd" stroke="none"/>
      <path d="M53.7 37.85 Q53.55 36.7 54.8 35.45 55.8 34.4 57.2 33.75 58.9 33.05 60.7 33.05 62.55 33.05 63.95 33.8 L61.3 34.1 58.85 35.25 Q56.1 37.0 53.7 37.85" fill="#f7ded7" fill-rule="evenodd" stroke="none"/>
      <path d="M64.2 33.9 Q64.65 34.85 63.75 36.4 L61.9 38.55 Q58.9 41.25 56.5 41.65 L57.75 39.8 59.25 37.6 Q61.25 34.5 64.2 33.9" fill="url(#gradient6)" fill-rule="evenodd" stroke="none"/>
      <path d="M56.4 41.65 Q55.85 40.65 56.45 39.0 56.95 37.6 58.0 36.5 59.3 35.2 60.95 34.5 62.65 33.75 64.2 33.9 63.0 34.15 61.9 35.2 L60.1 37.2 Q58.2 40.0 56.4 41.65" fill="#f7ded7" fill-rule="evenodd" stroke="none"/>
      <path d="M54.6 38.95 Q54.8 40.0 53.6 41.3 L51.3 43.0 Q47.85 45.05 45.4 44.9 L48.95 41.55 Q51.5 38.95 54.6 38.95" fill="url(#gradient7)" fill-rule="evenodd" stroke="none"/>
      <path d="M45.35 44.85 Q44.95 43.75 45.95 42.3 46.7 41.1 48.0 40.15 49.5 39.15 51.25 38.8 L54.6 38.9 Q53.35 38.95 52.1 39.7 L49.9 41.3 45.35 44.85" fill="#f7ded7" fill-rule="evenodd" stroke="none"/>
      <path d="M54.9 38.95 Q55.5 39.8 54.9 41.5 L53.5 44.0 Q51.2 47.2 48.8 48.05 L50.75 43.55 Q52.1 40.15 54.9 38.95" fill="url(#gradient8)" fill-rule="evenodd" stroke="none"/>
      <path d="M48.75 48.05 Q48.0 47.2 48.3 45.45 48.5 44.0 49.3 42.7 50.3 41.2 51.8 40.15 53.35 39.1 54.9 38.95 53.8 39.45 52.9 40.65 L51.5 43.0 Q50.1 46.2 48.75 48.05" fill="#f7ded7" fill-rule="evenodd" stroke="none"/>
      <path d="M46.25 46.2 Q46.75 47.15 45.95 48.75 L44.3 51.05 Q41.6 53.95 39.15 54.55 L41.6 50.3 Q43.35 47.1 46.25 46.2" fill="url(#gradient9)" fill-rule="evenodd" stroke="none"/>
      <path d="M39.1 54.55 Q38.45 53.6 38.95 51.95 39.3 50.55 40.25 49.3 41.45 47.9 43.05 47.05 44.65 46.2 46.25 46.2 45.05 46.55 44.05 47.65 L42.4 49.85 Q40.55 53.0 39.1 54.55" fill="#f7ded7" fill-rule="evenodd" stroke="none"/>
      <path d="M46.55 46.15 Q47.4 46.8 47.3 48.6 L46.65 51.35 Q45.35 55.1 43.3 56.6 L43.9 51.75 Q44.2 48.1 46.55 46.15" fill="url(#gradient10)" fill-rule="evenodd" stroke="none"/>
      <path d="M43.25 56.6 Q42.3 56.0 42.05 54.3 41.85 52.8 42.25 51.3 42.8 49.6 43.95 48.2 45.1 46.75 46.55 46.1 45.6 46.9 45.1 48.35 L44.45 51.0 Q44.0 54.45 43.25 56.6" fill="#f7ded7" fill-rule="evenodd" stroke="none"/>
      <path d="M115.45 31.65 Q116.95 32.35 118.15 33.45 119.7 34.9 120.15 36.45 122.95 36.85 125.1 38.3 126.6 39.4 127.6 40.85 128.9 42.75 128.75 44.55 131.45 45.65 133.25 47.9 134.55 49.55 135.05 51.5 135.7 54.05 134.5 55.85 133.85 56.75 132.8 56.8 L132.55 56.85 132.0 56.75 131.4 56.55 Q130.8 57.85 129.7 58.55 L128.6 58.9 127.7 58.8 127.5 58.7 127.05 58.4 Q124.55 56.55 122.95 52.2 L122.35 50.25 122.1 50.2 Q119.25 49.15 116.4 45.4 L115.4 43.9 114.85 43.9 Q111.6 43.4 108.35 40.3 106.95 39.1 106.05 37.65 104.5 35.1 105.4 33.0 L105.4 32.95 Q105.85 31.95 106.95 31.7 108.7 30.85 111.0 30.8 113.35 30.8 115.45 31.65" fill="url(#gradient11)" fill-rule="evenodd" stroke="none"/>
      <path d="M115.45 31.65 Q116.95 32.35 118.15 33.45 119.7 34.9 120.15 36.45 122.95 36.85 125.1 38.3 126.6 39.4 127.6 40.85 128.9 42.75 128.75 44.55 131.45 45.65 133.25 47.9 134.55 49.55 135.05 51.5 135.7 54.05 134.5 55.85 133.85 56.75 132.8 56.8 L132.55 56.85 132.0 56.75 131.4 56.55 Q130.8 57.85 129.7 58.55 L128.6 58.9 127.7 58.8 127.5 58.7 127.05 58.4 Q124.55 56.55 122.95 52.2 L122.35 50.25 122.1 50.2 Q119.25 49.15 116.4 45.4 L115.4 43.9 114.85 43.9 Q111.6 43.4 108.35 40.3 106.95 39.1 106.05 37.65 104.5 35.1 105.4 33.0 L105.4 32.95 Q105.85 31.95 106.95 31.7 108.7 30.85 111.0 30.8 113.35 30.8 115.45 31.65 Z" fill="none" stroke="#f7e0e7" stroke-linecap="butt" stroke-linejoin="miter" stroke-width="0.25"/>
      <path d="M110.95 32.4 Q112.95 32.35 114.8 33.1 116.35 33.85 117.4 34.95 118.9 36.45 118.7 37.95 121.7 37.95 124.15 39.6 125.5 40.6 126.35 41.9 127.5 43.65 127.05 45.1 L126.65 45.5 126.55 45.55 126.45 45.55 Q129.75 46.05 132.0 48.85 133.0 50.15 133.45 51.7 134.05 53.7 133.2 54.95 L132.7 55.25 132.6 55.25 132.4 55.2 Q131.4 55.0 130.35 54.35 130.1 56.4 128.85 57.2 L128.5 57.3 128.25 57.3 127.95 57.15 Q125.75 55.55 124.4 51.6 123.7 49.9 123.7 48.2 L123.5 48.5 123.0 48.75 122.95 48.75 122.85 48.7 122.65 48.7 Q120.2 47.8 117.65 44.4 116.6 43.05 116.1 41.6 L115.9 42.0 115.4 42.35 115.1 42.35 Q112.5 41.9 109.35 39.1 108.05 37.95 107.3 36.65 106.3 34.9 106.85 33.65 107.05 33.2 107.45 33.2 L107.5 33.2 Q108.95 32.4 110.95 32.4" fill="#470b17" fill-rule="evenodd" stroke="none"/>
      <path d="M113.8 35.3 L117.95 37.9 Q115.5 38.5 111.8 37.2 110.35 36.7 109.25 35.95 107.8 34.9 107.8 33.85 110.9 33.2 113.8 35.3" fill="url(#gradient12)" fill-rule="evenodd" stroke="none"/>
      <path d="M118.0 37.85 Q115.8 37.1 112.85 35.25 111.15 34.35 110.4 34.1 L107.8 33.8 Q109.15 33.05 111.0 33.05 112.8 33.05 114.5 33.75 115.9 34.4 116.95 35.45 118.15 36.7 118.0 37.85" fill="#f7ded7" fill-rule="evenodd" stroke="none"/>
      <path d="M112.45 37.6 L113.95 39.8 115.2 41.65 Q112.75 41.25 109.85 38.55 L108.0 36.4 Q107.05 34.9 107.5 33.9 110.45 34.5 112.45 37.6" fill="url(#gradient13)" fill-rule="evenodd" stroke="none"/>
      <path d="M115.3 41.65 Q113.5 40.0 111.6 37.2 L109.8 35.2 Q108.7 34.15 107.5 33.9 109.05 33.75 110.75 34.5 112.45 35.2 113.7 36.5 114.75 37.65 115.25 39.0 115.9 40.65 115.3 41.65" fill="#f7ded7" fill-rule="evenodd" stroke="none"/>
      <path d="M117.15 38.95 Q120.25 38.95 122.75 41.55 L126.3 44.9 Q123.85 45.05 120.4 43.0 L118.1 41.3 Q116.9 40.0 117.15 38.95" fill="url(#gradient14)" fill-rule="evenodd" stroke="none"/>
      <path d="M126.4 44.85 Q124.25 43.65 121.85 41.3 120.45 40.15 119.65 39.7 118.4 38.95 117.15 38.9 L120.45 38.8 Q122.25 39.15 123.75 40.15 125.0 41.05 125.8 42.3 126.75 43.75 126.4 44.85" fill="#f7ded7" fill-rule="evenodd" stroke="none"/>
      <path d="M116.8 38.95 Q119.6 40.15 120.95 43.55 L122.0 46.0 122.9 48.05 Q120.6 47.2 118.2 44.0 L116.8 41.5 Q116.2 39.8 116.8 38.95" fill="url(#gradient15)" fill-rule="evenodd" stroke="none"/>
      <path d="M122.95 48.05 Q121.65 46.2 120.2 43.0 L118.85 40.65 Q117.95 39.45 116.85 38.95 118.4 39.1 119.95 40.15 121.4 41.15 122.4 42.7 123.2 44.05 123.45 45.45 123.75 47.2 122.95 48.05" fill="#f7ded7" fill-rule="evenodd" stroke="none"/>
      <path d="M125.45 46.2 Q128.45 47.1 130.1 50.3 L132.55 54.55 Q130.05 53.95 127.45 51.05 126.4 50.0 125.75 48.75 124.95 47.15 125.45 46.2" fill="url(#gradient16)" fill-rule="evenodd" stroke="none"/>
      <path d="M132.65 54.55 Q131.05 52.85 129.3 49.85 L127.7 47.65 Q126.65 46.55 125.5 46.2 127.05 46.2 128.7 47.05 130.3 47.9 131.45 49.3 132.4 50.5 132.8 51.95 133.3 53.6 132.65 54.55" fill="#f7ded7" fill-rule="evenodd" stroke="none"/>
      <path d="M125.15 46.15 Q127.55 48.15 127.85 51.75 L128.4 56.6 Q126.35 55.0 125.05 51.35 124.5 49.95 124.45 48.6 124.3 46.8 125.15 46.15" fill="url(#gradient17)" fill-rule="evenodd" stroke="none"/>
      <path d="M128.45 56.6 Q127.7 54.45 127.25 51.0 L126.6 48.35 Q126.1 46.9 125.2 46.1 126.65 46.75 127.8 48.2 128.95 49.6 129.45 51.3 129.85 52.85 129.65 54.3 129.45 56.0 128.45 56.6" fill="#f7ded7" fill-rule="evenodd" stroke="none"/>
      <path d="M64.85 66.45 Q67.2 67.5 69.25 68.9 L70.9 70.05 73.35 72.1 Q72.75 70.9 72.2 69.0 71.55 66.7 71.65 64.2 L72.15 60.2 72.35 58.95 Q73.05 54.25 77.1 51.55 80.65 49.1 85.4 49.0 L105.05 49.05 Q112.25 49.05 115.95 50.9 120.9 53.35 121.65 59.75 121.95 62.0 121.85 63.85 124.75 64.0 127.3 65.55 L127.55 65.6 127.7 65.75 128.05 65.95 128.15 66.1 Q130.3 67.85 130.65 70.4 131.05 72.9 129.5 75.7 128.35 77.8 126.6 80.3 L125.0 82.4 Q126.85 88.65 125.5 95.2 124.75 98.7 122.4 101.25 120.55 103.3 118.05 104.4 116.45 105.15 114.45 105.75 L115.55 106.7 Q119.9 110.75 120.7 116.6 121.6 122.6 119.75 128.2 118.15 133.0 115.55 137.0 112.75 141.35 108.8 144.3 105.75 146.6 102.35 146.6 99.7 146.6 97.2 145.2 91.5 142.15 89.95 135.4 89.65 133.85 88.65 132.5 L88.55 132.3 88.45 132.2 Q86.8 129.85 85.85 127.55 84.75 130.1 83.35 132.1 L83.3 132.15 83.05 132.5 Q82.1 133.85 81.75 135.4 80.2 142.15 74.5 145.2 71.6 146.8 68.6 146.55 65.6 146.35 62.95 144.3 58.9 141.25 56.15 137.0 53.55 133.0 51.95 128.25 50.1 122.45 51.0 116.65 51.9 110.7 56.2 106.7 L57.3 105.75 Q55.3 105.2 53.65 104.4 51.25 103.3 49.35 101.3 47.0 98.65 46.25 95.15 44.85 88.7 46.7 82.4 L45.1 80.25 Q43.6 78.15 42.25 75.65 40.7 72.95 41.05 70.45 41.4 67.95 43.45 66.2 L43.55 66.0 44.4 65.55 Q47.15 63.9 50.3 63.8 L51.2 63.8 55.15 64.0 60.15 64.9 Q62.8 65.55 64.85 66.45 M54.55 69.85 L50.5 69.65 Q48.8 69.75 47.4 70.55 L47.2 70.7 Q46.45 71.25 47.3 72.85 L49.85 76.85 52.2 79.9 53.3 81.2 52.7 82.8 Q50.7 88.4 51.9 93.95 52.35 95.95 53.6 97.25 54.65 98.45 56.1 99.05 57.35 99.7 59.1 100.15 L64.3 100.75 81.2 99.5 79.55 94.5 77.8 89.5 75.45 84.5 73.5 81.25 70.25 77.25 66.85 74.35 66.75 74.25 66.05 73.8 Q64.6 72.8 62.55 71.85 60.55 71.0 58.75 70.6 L54.55 69.85 M81.8 55.65 Q78.55 56.9 78.1 59.85 L77.9 61.2 77.5 64.25 Q77.4 65.95 77.8 67.45 78.3 69.2 79.2 70.6 L79.35 70.85 79.45 71.15 Q80.5 73.75 82.95 74.65 L88.9 75.3 90.95 75.3 91.75 76.05 Q95.35 79.45 95.5 82.25 95.6 84.1 94.3 85.45 93.6 86.25 93.25 87.7 L93.35 87.8 94.1 89.05 93.55 90.4 92.15 94.5 90.45 99.5 105.3 100.65 107.35 100.75 107.45 100.75 112.65 100.15 115.6 99.1 Q117.1 98.4 118.1 97.25 119.35 95.95 119.8 93.95 121.0 88.25 119.0 82.8 L118.4 81.2 119.5 79.9 121.85 76.85 124.4 72.85 Q124.95 71.85 124.9 71.3 124.85 70.9 124.45 70.65 L124.3 70.55 Q122.95 69.75 121.2 69.65 L115.7 69.9 115.95 64.5 115.9 60.45 Q115.55 57.55 113.85 56.45 111.5 54.9 105.05 54.9 L85.45 54.85 Q83.35 55.05 81.8 55.65 M84.95 99.2 L85.55 99.15 84.85 99.45 82.7 103.95 81.65 100.75 66.75 106.7 Q63.05 108.3 60.15 111.0 57.35 113.65 56.75 117.5 56.05 122.05 57.5 126.4 58.8 130.3 61.05 133.8 63.45 137.35 66.45 139.6 69.0 141.55 71.75 140.05 75.15 138.15 76.05 134.1 76.65 131.35 78.25 129.15 L78.35 128.95 78.6 128.7 Q80.8 125.5 81.7 121.65 L82.45 117.55 83.2 112.2 86.15 114.8 88.65 113.35 89.3 117.6 90.05 121.65 Q90.95 125.45 93.05 128.6 L93.55 128.95 93.65 129.4 Q95.0 131.4 95.65 134.1 96.6 138.2 100.0 140.05 102.7 141.55 105.3 139.6 108.3 137.35 110.7 133.8 112.95 130.25 114.2 126.4 115.65 122.05 114.95 117.5 114.35 113.55 111.6 111.05 108.6 108.3 105.0 106.7 L104.3 106.45 104.0 106.3 90.05 100.75 87.15 108.95 85.5 98.1 84.95 99.2" fill="#f7e0e7" fill-rule="evenodd" stroke="none"/>
      <path d="M64.85 66.35 Q66.75 67.15 69.25 68.75 L70.9 69.9 73.35 71.95 Q72.8 70.8 72.2 68.9 71.55 66.6 71.65 64.1 L72.15 60.15 72.35 58.9 Q73.05 54.25 77.1 51.55 80.65 49.1 85.4 49.0 L105.05 49.05 Q112.25 49.05 115.95 50.85 120.9 53.35 121.65 59.7 121.95 61.95 121.85 63.7 124.9 63.95 127.3 65.4 L127.55 65.5 127.7 65.65 128.05 65.85 128.15 65.95 Q130.3 67.7 130.65 70.2 131.05 72.75 129.5 75.5 L126.6 80.05 125.0 82.15 Q126.85 88.35 125.5 94.85 124.75 98.3 122.4 100.9 120.5 102.9 118.05 104.0 116.45 104.75 114.45 105.35 L115.55 106.3 Q119.9 110.25 120.7 116.15 121.6 122.1 119.75 127.65 118.15 132.4 115.55 136.4 112.7 140.7 108.8 143.65 105.65 145.95 102.35 145.95 99.85 145.95 97.2 144.55 91.5 141.5 89.95 134.8 89.65 133.25 88.65 131.9 L88.55 131.75 88.45 131.65 Q86.8 129.3 85.85 127.0 84.7 129.6 83.35 131.5 L83.3 131.55 83.05 131.9 Q82.1 133.25 81.75 134.8 80.2 141.5 74.5 144.55 71.55 146.15 68.6 145.9 65.6 145.65 62.95 143.65 58.95 140.65 56.15 136.4 53.6 132.45 51.95 127.7 50.1 121.95 51.0 116.15 51.9 110.2 56.2 106.3 L57.3 105.35 Q55.3 104.8 53.65 104.0 51.25 102.95 49.35 100.9 47.0 98.3 46.25 94.85 44.8 88.4 46.7 82.15 L45.1 80.05 Q43.65 78.05 42.25 75.5 40.7 72.8 41.05 70.3 41.4 67.85 43.45 66.1 L43.55 65.9 44.4 65.4 Q47.2 63.8 50.3 63.7 L51.2 63.7 55.15 63.9 60.15 64.8 Q62.4 65.3 64.85 66.35 M54.55 69.7 L50.5 69.55 Q48.85 69.55 47.4 70.4 L47.2 70.55 Q46.45 71.1 47.3 72.65 L49.85 76.65 52.2 79.7 53.3 81.0 52.7 82.55 Q50.7 88.1 51.9 93.6 52.35 95.65 53.6 96.95 54.65 98.1 56.1 98.7 57.35 99.35 59.1 99.8 L64.3 100.4 81.2 99.15 79.55 94.15 77.8 89.2 75.45 84.25 73.5 81.05 70.25 77.05 66.85 74.15 66.75 74.1 66.05 73.6 Q64.2 72.4 62.55 71.7 60.55 70.85 58.75 70.45 L54.55 69.7 M81.8 55.6 Q78.55 56.85 78.1 59.75 L77.9 61.1 77.5 64.15 Q77.4 65.85 77.8 67.3 78.3 69.05 79.2 70.45 L79.35 70.7 79.45 71.0 Q80.5 73.6 82.95 74.5 L88.9 75.1 90.95 75.15 91.75 75.9 Q95.35 79.2 95.5 82.0 95.6 83.85 94.3 85.2 93.6 85.95 93.25 87.4 L94.1 88.75 93.55 90.1 92.15 94.15 90.45 99.15 105.3 100.3 107.35 100.4 107.45 100.4 112.65 99.8 115.6 98.75 Q117.1 98.05 118.1 96.9 119.3 95.7 119.8 93.6 121.0 88.0 119.0 82.55 L118.4 81.0 119.5 79.7 121.85 76.65 124.4 72.65 Q124.95 71.65 124.9 71.15 124.85 70.75 124.45 70.5 L124.3 70.4 Q122.9 69.55 121.2 69.55 L115.7 69.75 115.95 64.35 115.9 60.35 Q115.55 57.5 113.85 56.4 111.5 54.85 105.05 54.85 L85.45 54.85 Q83.7 54.85 81.8 55.6 M84.95 98.85 L85.55 98.8 84.85 99.1 82.7 103.55 81.65 100.4 66.75 106.3 Q62.9 108.0 60.15 110.6 57.35 113.15 56.75 117.0 56.05 121.55 57.5 125.85 58.75 129.65 61.05 133.2 63.35 136.65 66.45 139.0 69.0 140.9 71.75 139.45 75.15 137.55 76.05 133.5 76.65 130.8 78.25 128.6 L78.35 128.4 78.6 128.15 Q80.8 124.95 81.7 121.15 L82.45 117.05 83.2 111.75 86.15 114.35 88.65 112.9 89.3 117.1 90.05 121.15 Q90.95 124.95 93.05 128.0 L93.55 128.4 93.65 128.85 Q95.05 130.9 95.65 133.5 96.65 137.65 100.0 139.4 102.7 140.9 105.3 139.0 108.4 136.65 110.7 133.2 112.95 129.75 114.2 125.85 115.65 121.55 114.95 117.0 114.35 113.1 111.6 110.6 108.7 107.9 105.0 106.3 L104.3 106.05 104.0 105.9 90.05 100.35 87.15 108.55 85.5 97.75 84.95 98.85" fill="url(#gradient18)" fill-rule="evenodd" stroke="none"/>
      <path d="M64.85 66.35 Q66.75 67.15 69.25 68.75 L70.9 69.9 73.35 71.95 Q72.8 70.8 72.2 68.9 71.55 66.6 71.65 64.1 L72.15 60.15 72.35 58.9 Q73.05 54.25 77.1 51.55 80.65 49.1 85.4 49.0 L105.05 49.05 Q112.25 49.05 115.95 50.85 120.9 53.35 121.65 59.7 121.95 61.95 121.85 63.7 124.9 63.95 127.3 65.4 L127.55 65.5 127.7 65.65 128.05 65.85 128.15 65.95 Q130.3 67.7 130.65 70.2 131.05 72.75 129.5 75.5 L126.6 80.05 125.0 82.15 Q126.85 88.35 125.5 94.85 124.75 98.3 122.4 100.9 120.5 102.9 118.05 104.0 116.45 104.75 114.45 105.35 L115.55 106.3 Q119.9 110.25 120.7 116.15 121.6 122.1 119.75 127.65 118.15 132.4 115.55 136.4 112.7 140.7 108.8 143.65 105.65 145.95 102.35 145.95 99.85 145.95 97.2 144.55 91.5 141.5 89.95 134.8 89.65 133.25 88.65 131.9 L88.55 131.75 88.45 131.65 Q86.8 129.3 85.85 127.0 84.7 129.6 83.35 131.5 L83.3 131.55 83.05 131.9 Q82.1 133.25 81.75 134.8 80.2 141.5 74.5 144.55 71.55 146.15 68.6 145.9 65.6 145.65 62.95 143.65 58.95 140.65 56.15 136.4 53.6 132.45 51.95 127.7 50.1 121.95 51.0 116.15 51.9 110.2 56.2 106.3 L57.3 105.35 Q55.3 104.8 53.65 104.0 51.25 102.95 49.35 100.9 47.0 98.3 46.25 94.85 44.8 88.4 46.7 82.15 L45.1 80.05 Q43.65 78.05 42.25 75.5 40.7 72.8 41.05 70.3 41.4 67.85 43.45 66.1 L43.55 65.9 44.4 65.4 Q47.2 63.8 50.3 63.7 L51.2 63.7 55.15 63.9 60.15 64.8 Q62.4 65.3 64.85 66.35 M54.55 69.7 L50.5 69.55 Q48.85 69.55 47.4 70.4 L47.2 70.55 Q46.45 71.1 47.3 72.65 L49.85 76.65 52.2 79.7 53.3 81.0 52.7 82.55 Q50.7 88.1 51.9 93.6 52.35 95.65 53.6 96.95 54.65 98.1 56.1 98.7 57.35 99.35 59.1 99.8 L64.3 100.4 81.2 99.15 79.55 94.15 77.8 89.2 75.45 84.25 73.5 81.05 70.25 77.05 66.85 74.15 66.75 74.1 66.05 73.6 Q64.2 72.4 62.55 71.7 60.55 70.85 58.75 70.45 L54.55 69.7 M81.8 55.6 Q78.55 56.85 78.1 59.75 L77.9 61.1 77.5 64.15 Q77.4 65.85 77.8 67.3 78.3 69.05 79.2 70.45 L79.35 70.7 79.45 71.0 Q80.5 73.6 82.95 74.5 L88.9 75.1 90.95 75.15 91.75 75.9 Q95.35 79.2 95.5 82.0 95.6 83.85 94.3 85.2 93.6 85.95 93.25 87.4 L94.1 88.75 93.55 90.1 92.15 94.15 90.45 99.15 105.3 100.3 107.35 100.4 107.45 100.4 112.65 99.8 115.6 98.75 Q117.1 98.05 118.1 96.9 119.3 95.7 119.8 93.6 121.0 88.0 119.0 82.55 L118.4 81.0 119.5 79.7 121.85 76.65 124.4 72.65 Q124.95 71.65 124.9 71.15 124.85 70.75 124.45 70.5 L124.3 70.4 Q122.9 69.55 121.2 69.55 L115.7 69.75 115.95 64.35 115.9 60.35 Q115.55 57.5 113.85 56.4 111.5 54.85 105.05 54.85 L85.45 54.85 Q83.7 54.85 81.8 55.6 M84.95 98.85 L85.55 98.8 84.85 99.1 82.7 103.55 81.65 100.4 66.75 106.3 Q62.9 108.0 60.15 110.6 57.35 113.15 56.75 117.0 56.05 121.55 57.5 125.85 58.75 129.65 61.05 133.2 63.35 136.65 66.45 139.0 69.0 140.9 71.75 139.45 75.15 137.55 76.05 133.5 76.65 130.8 78.25 128.6 L78.35 128.4 78.6 128.15 Q80.8 124.95 81.7 121.15 L82.45 117.05 83.2 111.75 86.15 114.35 88.65 112.9 89.3 117.1 90.05 121.15 Q90.95 124.95 93.05 128.0 L93.55 128.4 93.65 128.85 Q95.05 130.9 95.65 133.5 96.65 137.65 100.0 139.4 102.7 140.9 105.3 139.0 108.4 136.65 110.7 133.2 112.95 129.75 114.2 125.85 115.65 121.55 114.95 117.0 114.35 113.1 111.6 110.6 108.7 107.9 105.0 106.3 L104.3 106.05 104.0 105.9 90.05 100.35 87.15 108.55 85.5 97.75 84.95 98.85" fill="none" stroke="#f7e0e7" stroke-linecap="butt" stroke-linejoin="miter" stroke-width="0.25"/>
      <path d="M67.65 71.2 L68.5 71.75 Q70.6 73.25 72.35 75.05 L75.9 79.35 78.05 82.9 80.5 88.05 82.35 93.35 83.15 95.85 83.7 95.1 Q84.35 94.55 85.2 94.25 86.35 93.85 87.45 94.95 88.2 95.75 88.25 96.65 L89.35 93.35 Q90.15 90.7 91.25 88.05 92.25 85.6 93.7 82.9 L95.85 79.35 Q97.45 77.05 99.4 75.05 101.05 73.3 103.2 71.75 L104.1 71.15 Q106.3 69.75 108.0 69.05 110.2 68.1 112.3 67.6 L116.9 66.8 121.3 66.6 Q123.75 66.7 126.0 68.0 L126.05 68.05 Q129.05 70.25 126.95 74.1 L124.25 78.35 121.75 81.55 Q124.0 87.8 122.65 94.25 122.05 96.95 120.25 98.9 118.7 100.55 116.85 101.35 L113.3 102.6 107.45 103.3 107.35 103.3 105.05 103.2 106.1 103.65 Q110.25 105.4 113.55 108.45 117.1 111.7 117.85 116.6 118.6 121.75 117.0 126.75 115.55 131.1 113.1 134.8 110.6 138.65 107.05 141.3 104.85 143.0 102.35 143.0 100.5 143.0 98.6 142.0 94.1 139.55 92.8 134.15 92.25 131.75 90.9 130.05 88.25 126.3 87.2 121.8 L86.4 117.55 85.95 117.7 85.85 117.7 Q85.55 117.7 85.35 117.5 L84.5 121.8 Q83.45 126.3 80.8 130.05 79.45 131.9 78.9 134.15 77.7 139.5 73.1 142.0 71.2 143.0 69.35 143.0 66.9 143.0 64.7 141.3 61.1 138.7 58.6 134.8 56.15 131.0 54.75 126.75 53.1 121.75 53.9 116.6 54.6 111.7 58.15 108.45 61.5 105.4 65.6 103.65 L66.65 103.2 64.3 103.3 58.4 102.6 54.85 101.35 Q53.0 100.55 51.45 98.9 49.6 96.9 49.1 94.25 47.65 87.8 50.0 81.55 L47.5 78.35 44.8 74.1 Q42.65 70.25 45.7 68.05 L45.7 68.0 45.75 68.0 Q47.95 66.7 50.4 66.6 L54.8 66.8 59.45 67.6 Q61.45 68.1 63.7 69.05 65.65 69.85 67.65 71.2" fill="#470b17" fill-rule="evenodd" stroke="none"/>
      <path d="M86.85 95.55 Q87.6 96.2 87.5 97.25 87.45 98.25 86.85 98.7 L86.55 98.85 86.4 98.9 85.95 98.75 85.0 98.9 84.25 98.45 Q83.7 97.9 83.7 97.0 83.7 96.25 84.25 95.7 84.85 95.2 85.45 95.0 86.15 94.75 86.85 95.55" fill="#6c582f" fill-rule="evenodd" stroke="none"/>
      <path d="M85.0 98.9 Q85.55 99.05 85.6 100.55 L85.65 103.05 85.25 103.1 85.0 103.2 84.85 103.35 84.75 103.55 84.7 103.6 Q83.75 103.15 83.45 102.55 83.2 101.95 83.2 100.95 83.2 100.2 83.7 99.55 84.25 98.9 84.55 98.9 L85.0 98.9 M86.55 98.85 L87.05 98.85 Q87.45 98.85 87.85 99.5 L88.15 101.05 87.85 102.8 87.0 103.55 86.65 103.25 85.85 103.05 85.8 103.05 85.75 101.7 Q85.85 100.65 86.1 99.9 L86.4 98.9 86.55 98.85" fill="#6e6a48" fill-rule="evenodd" stroke="none"/>
      <path d="M86.4 98.9 L86.1 99.9 Q85.85 100.65 85.75 101.7 L85.8 103.05 85.85 103.05 86.65 103.25 87.0 103.55 87.3 104.95 87.35 107.2 87.05 109.45 Q86.65 111.15 85.7 111.05 84.35 111.05 84.4 107.5 L84.5 104.9 84.7 103.6 84.75 103.55 84.85 103.35 85.0 103.2 85.25 103.1 85.65 103.05 85.6 100.55 Q85.55 99.05 85.0 98.9 L85.95 98.75 86.4 98.9" fill="#3f3822" fill-rule="evenodd" stroke="none"/>
      <path d="M84.7 103.6 L84.5 104.9 84.4 107.5 Q84.35 111.05 85.7 111.05 86.65 111.15 87.05 109.45 L87.35 107.2 87.3 104.95 87.0 103.55 87.55 104.6 87.85 107.5 Q87.8 110.0 87.25 113.05 86.65 116.8 85.85 116.9 85.3 115.85 84.55 112.45 83.75 108.95 83.75 107.0 83.75 105.85 84.05 104.75 84.3 104.0 84.7 103.6" fill="#7e754c" fill-rule="evenodd" stroke="none"/>
      <path d="M55.0 75.5 Q53.1 75.45 51.4 76.5 50.0 77.4 51.0 78.55 52.5 80.2 54.4 80.1 L55.65 79.85 63.7 80.35 68.1 81.2 72.6 82.35 Q74.4 82.8 76.65 83.75 L77.1 84.7 72.6 83.1 69.2 82.35 64.05 81.6 60.4 81.7 56.05 82.35 Q53.4 83.0 52.0 85.7 51.0 87.7 52.9 88.05 L56.35 87.85 Q55.35 88.15 54.35 88.6 52.9 89.2 52.05 90.7 51.1 92.7 52.3 94.45 52.65 95.0 53.3 95.1 L61.7 94.05 68.65 93.7 71.9 93.95 76.45 94.7 80.6 95.9 80.7 96.5 72.2 94.45 67.85 94.2 63.25 94.3 60.95 94.6 Q58.55 95.0 56.6 95.9 55.2 96.45 54.9 98.0 54.75 98.6 55.15 99.05 56.8 100.8 59.25 100.55 L64.0 99.95 70.1 98.85 74.75 98.55 Q77.2 98.55 79.4 99.35 L81.9 100.45 82.7 101.6 79.95 101.75 77.65 101.3 73.55 101.15 Q69.05 102.5 64.4 102.5 L58.6 101.85 55.2 100.65 Q53.35 99.8 52.05 98.35 50.4 96.6 49.85 94.05 48.45 87.5 50.9 81.4 L48.15 77.9 Q46.55 75.75 45.5 73.7 43.6 70.45 46.15 68.7 L46.0 69.0 Q47.4 72.05 50.9 71.5 L56.6 70.55 61.0 70.7 Q62.85 71.2 64.9 72.25 L66.55 73.15 62.55 71.85 58.6 71.3 53.95 71.6 51.9 71.9 Q50.3 72.05 49.05 73.2 48.6 73.6 49.0 74.0 50.3 75.5 52.3 74.85 L57.05 74.55 61.4 75.0 71.15 76.75 72.15 77.8 67.95 76.7 63.5 75.8 59.0 75.35 55.0 75.5 M65.2 87.3 L69.45 87.7 Q71.5 87.95 73.8 88.55 L78.2 89.8 78.95 89.95 79.15 90.55 Q77.1 89.75 74.75 89.3 L60.55 87.25 65.2 87.3" fill="#75632f" fill-rule="evenodd" stroke="none"/>
      <path d="M63.4 69.75 L67.2 71.85 68.05 72.45 64.0 70.95 67.8 74.0 66.8 73.35 66.55 73.15 64.9 72.25 Q62.85 71.2 61.0 70.7 L56.6 70.55 50.9 71.5 Q47.4 72.05 46.0 69.0 L46.15 68.7 Q48.15 67.5 50.45 67.4 L54.75 67.6 59.25 68.35 Q61.1 68.8 63.4 69.75" fill="#3f2b14" fill-rule="evenodd" stroke="none"/>
      <path d="M58.25 76.8 L61.75 77.25 Q58.15 76.9 55.1 78.7 53.85 79.95 54.4 80.1 52.5 80.2 51.0 78.55 50.0 77.4 51.4 76.5 53.1 75.45 55.0 75.5 56.55 76.65 58.25 76.8 M54.15 73.1 Q52.45 73.4 52.3 74.85 50.3 75.5 49.0 74.0 48.6 73.6 49.05 73.2 50.3 72.05 51.9 71.9 L56.05 72.8 54.15 73.1 M64.05 81.6 Q62.1 82.0 62.1 84.2 62.1 84.9 62.45 85.25 63.6 86.7 65.2 87.3 L60.55 87.25 68.6 88.2 Q67.7 88.4 67.15 89.4 65.55 92.6 68.65 93.7 L61.7 94.05 Q58.65 92.0 53.9 91.75 58.85 90.3 60.5 87.25 L60.55 87.25 Q57.2 85.0 53.7 85.85 58.1 84.55 60.4 81.7 L64.05 81.6 M63.25 94.3 L67.85 94.2 72.2 94.45 Q71.35 94.45 70.5 95.0 68.05 96.65 70.1 98.85 L64.0 99.95 Q62.15 98.95 60.6 98.6 L56.65 98.15 Q58.15 97.45 59.15 96.5 L60.95 94.6 63.25 94.3" fill="#9efdfe" fill-rule="evenodd" stroke="none"/>
      <path d="M59.0 75.35 L63.5 75.8 67.95 76.7 72.15 77.8 74.05 79.8 69.9 78.65 65.85 77.7 58.25 76.8 Q56.55 76.65 55.0 75.5 L59.0 75.35 M58.6 71.3 L62.55 71.85 66.55 73.15 66.8 73.35 62.4 72.75 58.0 72.65 56.05 72.8 51.9 71.9 53.95 71.6 58.6 71.3 M60.4 81.7 Q58.1 84.55 53.7 85.85 57.2 85.0 60.55 87.25 L60.5 87.25 Q58.85 90.3 53.9 91.75 58.65 92.0 61.7 94.05 L53.3 95.1 Q52.65 95.0 52.3 94.45 51.1 92.7 52.05 90.7 52.9 89.2 54.35 88.6 55.35 88.15 56.35 87.85 L52.9 88.05 Q51.0 87.7 52.0 85.7 53.4 83.0 56.05 82.35 L60.4 81.7 M54.9 98.0 Q55.2 96.45 56.6 95.9 58.55 95.0 60.95 94.6 L59.15 96.5 Q58.15 97.45 56.65 98.15 L60.6 98.6 Q62.15 98.95 64.0 99.95 L59.25 100.55 Q56.8 100.8 55.15 99.05 54.75 98.6 54.9 98.0" fill="#6bb3fb" fill-rule="evenodd" stroke="none"/>
      <path d="M68.05 72.45 Q69.95 73.7 71.75 75.6 73.85 77.8 75.2 79.8 L77.3 83.25 79.75 88.35 81.6 93.55 83.45 99.0 Q84.2 100.85 82.7 101.6 L81.9 100.45 80.7 96.5 80.6 95.9 77.1 84.7 76.65 83.75 74.05 79.8 71.15 76.75 64.0 70.95 68.05 72.45" fill="#9b9168" fill-rule="evenodd" stroke="none"/>
      <path d="M55.1 78.7 Q58.15 76.9 61.75 77.25 L65.85 77.7 69.9 78.65 74.05 79.8 76.65 83.75 Q74.4 82.8 72.6 82.35 L68.1 81.2 63.7 80.35 55.65 79.85 54.4 80.1 Q53.85 79.95 55.1 78.7 M58.0 72.65 L62.4 72.75 66.8 73.35 67.8 74.0 71.15 76.75 61.4 75.0 57.05 74.55 52.3 74.85 Q52.45 73.4 54.15 73.1 L56.05 72.8 58.0 72.65 M68.6 88.2 L74.75 89.3 Q77.1 89.75 79.15 90.55 L80.6 95.9 76.45 94.7 71.9 93.95 68.65 93.7 Q65.55 92.6 67.15 89.4 67.7 88.4 68.6 88.2 M62.1 84.2 Q62.1 82.0 64.05 81.6 L69.2 82.35 72.6 83.1 77.1 84.7 78.95 89.95 78.2 89.8 73.8 88.55 Q71.5 87.95 69.45 87.7 L65.2 87.3 Q63.6 86.7 62.45 85.25 62.1 84.9 62.1 84.2 M72.2 94.45 L80.7 96.5 81.9 100.45 79.4 99.35 Q77.2 98.55 74.75 98.55 L70.1 98.85 Q68.05 96.65 70.5 95.0 71.35 94.45 72.2 94.45" fill="#6581fe" fill-rule="evenodd" stroke="none"/>
      <path d="M83.2 102.4 L83.3 102.65 Q80.9 106.35 79.85 110.95 78.85 115.4 78.85 119.85 78.85 124.9 77.75 129.5 76.75 133.8 73.95 137.5 73.55 137.35 73.25 137.05 L72.75 136.3 72.55 135.25 72.6 134.4 72.4 134.4 Q72.35 136.65 70.9 138.3 69.85 139.45 68.35 139.15 67.15 138.9 66.55 137.9 65.2 135.9 66.65 133.95 L66.45 133.95 Q66.0 135.25 64.8 135.65 L62.7 135.55 Q61.6 134.95 61.4 133.7 60.75 130.3 63.0 127.55 L62.8 127.55 Q61.3 129.65 59.45 128.45 57.9 127.45 58.05 125.55 58.15 123.8 58.9 122.15 59.8 120.2 60.8 118.65 59.3 119.7 58.55 118.2 57.9 116.95 58.2 115.55 59.2 111.45 62.3 108.75 65.65 105.8 69.9 104.05 76.35 101.4 83.2 102.4 M70.75 105.75 L65.8 107.95 Q61.55 109.9 59.55 114.15 58.95 115.5 60.05 116.1 62.95 117.6 65.4 114.7 68.25 111.3 71.75 108.3 L74.65 106.5 65.35 115.05 Q62.0 118.4 60.95 123.0 60.5 124.65 62.05 124.9 65.45 125.3 67.25 121.55 69.4 117.05 71.45 113.2 L71.6 112.95 Q73.1 109.2 76.3 106.85 L76.5 106.5 76.5 106.75 76.3 106.85 Q72.7 112.6 70.35 117.1 L68.6 120.3 Q66.35 124.25 65.5 128.9 L65.6 129.1 Q68.3 130.1 69.7 127.25 69.1 129.25 70.1 131.3 L70.25 131.55 Q74.75 125.3 75.55 117.3 L77.0 112.25 74.35 124.35 Q73.6 127.75 74.65 130.9 76.95 128.55 77.3 125.2 77.9 120.8 78.0 115.6 78.1 110.7 80.0 106.5 80.9 104.35 82.9 102.6 76.6 102.7 70.75 105.75 M70.25 125.95 L75.65 111.4 72.45 121.0 70.25 125.95" fill="#6581fe" fill-rule="evenodd" stroke="none"/>
      <path d="M83.2 102.4 Q76.35 101.4 69.9 104.05 65.65 105.8 62.3 108.75 59.2 111.45 58.2 115.55 57.9 116.95 58.55 118.2 59.3 119.7 60.8 118.65 59.8 120.2 58.9 122.15 58.15 123.8 58.05 125.55 57.9 127.45 59.45 128.45 61.3 129.65 62.8 127.55 L63.0 127.55 Q60.75 130.3 61.4 133.7 61.6 134.95 62.7 135.55 L64.8 135.65 Q66.0 135.25 66.45 133.95 L66.65 133.95 Q65.2 135.9 66.55 137.9 67.15 138.9 68.35 139.15 69.85 139.45 70.9 138.3 72.35 136.65 72.4 134.4 L72.6 134.4 72.55 135.25 72.75 136.3 73.25 137.05 Q73.55 137.35 73.95 137.5 76.75 133.8 77.75 129.5 78.85 124.9 78.85 119.85 78.85 115.4 79.85 110.95 80.9 106.35 83.3 102.65 L83.5 103.15 Q81.0 106.5 80.4 111.0 79.9 115.65 79.65 120.4 79.4 125.15 80.15 129.6 78.65 131.65 78.15 133.95 76.95 139.0 72.75 141.3 68.8 143.4 65.15 140.7 61.7 138.1 59.25 134.35 56.75 130.4 55.5 126.5 53.9 121.65 54.65 116.7 55.4 111.95 58.7 109.05 61.9 106.1 65.9 104.35 69.7 102.8 73.4 102.0 78.2 100.95 83.0 101.85 L83.2 102.4" fill="#6a5c39" fill-rule="evenodd" stroke="none"/>
      <path d="M80.4 111.0 Q81.0 106.5 83.5 103.15 85.2 107.7 85.0 112.7 84.75 117.35 83.75 121.65 82.7 126.0 80.15 129.6 79.4 125.15 79.65 120.4 79.9 115.65 80.4 111.0" fill="#95885b" fill-rule="evenodd" stroke="none"/>
      <path d="M80.0 106.5 Q78.1 110.7 78.0 115.6 L76.1 120.9 76.0 117.15 77.0 112.25 75.55 117.3 72.65 122.9 73.5 118.2 75.65 111.4 73.75 116.8 Q72.05 119.6 69.75 121.85 L69.35 122.25 70.35 117.1 Q72.7 112.6 76.3 106.85 73.1 109.2 71.6 112.95 L71.45 113.2 65.85 118.5 68.7 111.85 74.65 106.5 71.75 108.3 Q68.75 108.85 66.2 110.3 L65.85 110.5 Q68.35 108.55 70.75 105.75 76.6 102.7 82.9 102.6 80.9 104.35 80.0 106.5" fill="#9efdfe" fill-rule="evenodd" stroke="none"/>
      <path d="M70.75 105.75 Q68.35 108.55 65.85 110.5 L66.2 110.3 Q68.75 108.85 71.75 108.3 68.25 111.3 65.4 114.7 62.95 117.6 60.05 116.1 58.95 115.5 59.55 114.15 61.55 109.9 65.8 107.95 L70.75 105.75 M74.35 124.35 L76.0 117.15 76.1 120.9 78.0 115.6 Q77.9 120.8 77.3 125.2 76.95 128.55 74.65 130.9 73.6 127.75 74.35 124.35 M72.45 121.0 L73.5 118.2 72.65 122.9 75.55 117.3 Q74.75 125.3 70.25 131.55 L70.1 131.3 Q69.1 129.25 69.7 127.25 68.3 130.1 65.6 129.1 L65.5 128.9 Q66.35 124.25 68.6 120.3 L70.35 117.1 69.35 122.25 69.75 121.85 Q72.05 119.6 73.75 116.8 L70.25 125.95 72.45 121.0 M65.85 118.5 L71.45 113.2 Q69.4 117.05 67.25 121.55 65.45 125.3 62.05 124.9 60.5 124.65 60.95 123.0 62.0 118.4 65.35 115.05 L68.7 111.85 65.85 118.5" fill="#6bb3fb" fill-rule="evenodd" stroke="none"/>
      <path d="M106.8 72.25 Q108.9 71.15 110.75 70.7 L115.15 70.55 120.85 71.5 Q124.25 72.05 125.75 69.0 L125.55 68.7 Q128.05 70.45 126.25 73.7 L123.6 77.9 120.85 81.4 Q123.25 87.7 121.85 94.05 121.35 96.6 119.65 98.35 118.35 99.8 116.5 100.65 114.9 101.4 113.1 101.85 L107.35 102.5 Q102.7 102.5 98.2 101.15 L94.05 101.3 91.75 101.75 89.0 101.6 89.85 100.45 Q90.95 99.8 92.3 99.35 94.55 98.55 97.0 98.55 L101.65 98.85 107.75 99.95 112.45 100.55 Q114.9 100.75 116.55 99.05 116.95 98.6 116.85 98.0 116.45 96.4 115.15 95.9 113.15 95.0 110.75 94.6 L108.5 94.3 103.85 94.2 99.5 94.45 91.0 96.5 91.15 95.9 Q93.05 95.2 95.25 94.7 L99.8 93.95 103.05 93.7 110.0 94.05 118.4 95.1 Q119.0 95.0 119.45 94.45 120.65 92.75 119.65 90.7 118.9 89.2 117.4 88.6 L115.4 87.85 118.8 88.05 Q120.75 87.65 119.75 85.7 118.35 83.0 115.65 82.35 L111.3 81.7 107.7 81.6 102.55 82.35 99.15 83.1 94.65 84.7 95.05 83.75 Q97.45 82.8 99.15 82.35 L103.65 81.2 108.0 80.35 116.05 79.85 117.35 80.1 Q119.2 80.2 120.7 78.55 121.75 77.4 120.3 76.5 118.6 75.45 116.7 75.5 L112.7 75.35 108.2 75.8 103.8 76.7 99.55 77.8 100.6 76.75 110.3 75.0 114.7 74.55 119.4 74.85 Q121.4 75.5 122.7 74.0 123.15 73.6 122.65 73.2 121.4 72.05 119.8 71.9 L117.8 71.6 113.1 71.3 109.15 71.85 105.15 73.15 106.8 72.25 M106.5 87.3 L111.15 87.25 96.95 89.3 Q94.5 89.8 92.55 90.55 L92.75 89.95 93.5 89.8 97.9 88.55 Q100.3 87.95 102.25 87.7 L106.5 87.3" fill="#75632f" fill-rule="evenodd" stroke="none"/>
      <path d="M105.15 73.15 L103.95 74.0 107.75 70.95 103.65 72.45 104.55 71.85 Q106.35 70.65 108.3 69.75 110.65 68.8 112.5 68.35 L117.0 67.6 121.3 67.4 Q123.55 67.5 125.55 68.7 L125.75 69.0 Q124.25 72.05 120.85 71.5 L115.15 70.55 110.75 70.7 Q108.9 71.15 106.8 72.25 L105.15 73.15" fill="#3f2b14" fill-rule="evenodd" stroke="none"/>
      <path d="M108.5 94.3 L110.75 94.6 112.6 96.5 115.1 98.15 111.15 98.6 Q109.65 98.9 107.75 99.95 L101.65 98.85 Q103.7 96.6 101.2 95.0 100.4 94.45 99.5 94.45 L103.85 94.2 108.5 94.3 M103.15 88.2 L111.15 87.25 106.5 87.3 Q108.05 86.75 109.3 85.25 109.65 84.8 109.6 84.2 109.6 82.0 107.7 81.6 L111.3 81.7 Q113.6 84.5 118.05 85.85 114.55 85.05 111.15 87.25 L111.25 87.25 Q112.8 90.25 117.8 91.75 113.05 92.0 110.0 94.05 L103.05 93.7 Q106.2 92.55 104.55 89.4 104.1 88.45 103.15 88.2 M113.45 76.8 Q115.15 76.65 116.7 75.5 118.6 75.45 120.3 76.5 121.75 77.4 120.7 78.55 119.2 80.2 117.35 80.1 117.85 79.95 116.6 78.7 113.55 76.9 110.0 77.25 L113.45 76.8 M119.8 71.9 Q121.4 72.05 122.65 73.2 123.15 73.6 122.7 74.0 121.4 75.5 119.4 74.85 119.25 73.4 117.55 73.1 L115.65 72.8 119.8 71.9" fill="#9efdfe" fill-rule="evenodd" stroke="none"/>
      <path d="M99.55 77.8 L103.8 76.7 108.2 75.8 112.7 75.35 116.7 75.5 Q115.15 76.65 113.45 76.8 L109.0 77.4 105.85 77.7 101.8 78.65 97.7 79.8 99.55 77.8 M105.15 73.15 L109.15 71.85 113.1 71.3 117.8 71.6 119.8 71.9 115.65 72.8 113.7 72.65 109.3 72.75 104.9 73.35 105.15 73.15 M115.65 82.35 Q118.35 83.0 119.75 85.7 120.75 87.65 118.8 88.05 L115.4 87.85 117.4 88.6 Q118.9 89.2 119.65 90.7 120.65 92.75 119.45 94.45 119.0 95.0 118.4 95.1 L110.0 94.05 Q113.05 92.0 117.8 91.75 112.8 90.25 111.25 87.25 L111.15 87.25 Q114.55 85.05 118.05 85.85 113.6 84.5 111.3 81.7 L115.65 82.35 M115.15 95.9 Q116.45 96.4 116.85 98.0 116.95 98.6 116.55 99.05 114.9 100.75 112.45 100.55 L107.75 99.95 Q109.65 98.9 111.15 98.6 L115.1 98.15 112.6 96.5 110.75 94.6 Q113.15 95.0 115.15 95.9" fill="#6bb3fb" fill-rule="evenodd" stroke="none"/>
      <path d="M107.75 70.95 L100.6 76.75 97.7 79.8 95.05 83.75 92.55 90.55 89.85 100.45 89.0 101.6 Q87.5 100.85 88.25 99.0 L90.1 93.55 Q91.05 90.55 91.95 88.35 L94.4 83.25 Q95.3 81.45 96.5 79.8 98.1 77.55 99.95 75.6 101.65 73.85 103.65 72.45 L107.75 70.95" fill="#9b9168" fill-rule="evenodd" stroke="none"/>
      <path d="M109.3 72.75 L113.7 72.65 115.65 72.8 117.55 73.1 Q119.25 73.4 119.4 74.85 L114.7 74.55 110.3 75.0 100.6 76.75 103.95 74.0 104.9 73.35 109.3 72.75 M109.0 77.4 L110.0 77.25 Q113.55 76.9 116.6 78.7 117.85 79.95 117.35 80.1 L116.05 79.85 108.0 80.35 103.65 81.2 99.15 82.35 Q97.45 82.8 95.05 83.75 L97.7 79.8 101.8 78.65 105.85 77.7 109.0 77.4 M107.7 81.6 Q109.6 82.0 109.6 84.2 109.65 84.8 109.3 85.25 108.05 86.75 106.5 87.3 L102.25 87.7 Q100.3 87.95 97.9 88.55 L93.5 89.8 92.75 89.95 94.65 84.7 99.15 83.1 102.55 82.35 107.7 81.6 M99.8 93.95 L95.25 94.7 Q93.05 95.2 91.15 95.9 L92.55 90.55 Q94.5 89.8 96.95 89.3 L103.15 88.2 Q104.1 88.45 104.55 89.4 106.2 92.55 103.05 93.7 L99.8 93.95 M91.0 96.5 L99.5 94.45 Q100.4 94.45 101.2 95.0 103.7 96.6 101.65 98.85 L97.0 98.55 Q94.55 98.55 92.3 99.35 90.95 99.8 89.85 100.45 L91.0 96.5" fill="#6581fe" fill-rule="evenodd" stroke="none"/>
      <path d="M101.85 104.05 Q106.1 105.8 109.45 108.75 112.6 111.45 113.5 115.55 113.8 116.9 113.2 118.2 112.45 119.7 110.9 118.65 L112.85 122.15 Q113.55 123.6 113.7 125.55 113.8 127.5 112.3 128.45 110.35 129.65 108.95 127.55 L108.75 127.55 Q111.0 130.25 110.3 133.7 110.1 134.95 109.0 135.55 L106.9 135.65 Q105.7 135.25 105.25 133.95 L105.05 133.95 Q106.5 135.85 105.2 137.9 104.55 138.95 103.35 139.15 101.85 139.45 100.8 138.3 99.4 136.65 99.3 134.4 L99.1 134.4 99.15 135.25 99.0 136.3 98.5 137.05 97.75 137.5 Q95.05 133.9 94.0 129.5 92.85 124.65 92.85 119.85 92.85 115.4 91.85 110.95 90.8 106.35 88.4 102.65 L88.5 102.4 Q95.35 101.45 101.85 104.05 M91.75 106.5 Q93.65 110.8 93.7 115.6 93.75 120.15 94.4 125.2 94.85 128.65 97.05 130.9 98.1 127.75 97.35 124.35 L94.7 112.25 96.15 117.3 Q96.95 125.3 101.45 131.55 L101.6 131.3 Q102.6 129.35 102.0 127.25 103.4 130.1 106.15 129.1 L106.2 128.9 Q105.35 124.3 103.15 120.3 L101.4 117.1 Q99.1 112.8 95.45 106.85 98.55 109.15 100.15 112.95 L100.25 113.2 104.45 121.55 Q106.25 125.25 109.7 124.9 111.15 124.7 110.8 123.0 109.7 118.4 106.35 115.05 L97.05 106.5 99.95 108.3 Q103.25 111.1 106.3 114.7 108.75 117.6 111.65 116.1 112.75 115.5 112.15 114.15 110.15 109.9 105.9 107.95 L101.0 105.75 Q95.15 102.7 88.8 102.6 90.75 104.25 91.75 106.5 M96.05 111.4 L101.5 125.95 99.25 121.0 96.05 111.4" fill="#6581fe" fill-rule="evenodd" stroke="none"/>
      <path d="M88.5 102.4 L88.7 101.85 Q93.5 100.95 98.3 102.0 102.1 102.8 105.8 104.35 109.85 106.1 113.0 109.05 116.4 112.05 117.05 116.7 117.8 121.75 116.25 126.5 114.8 130.75 112.45 134.35 110.0 138.1 106.55 140.7 102.95 143.4 99.0 141.3 94.75 139.0 93.6 133.95 93.0 131.45 91.55 129.6 92.3 124.9 92.1 120.4 L91.3 111.0 Q90.8 106.65 88.2 103.15 L88.4 102.65 Q90.8 106.35 91.85 110.95 92.85 115.4 92.85 119.85 92.85 124.65 94.0 129.5 95.05 133.9 97.75 137.5 L98.5 137.05 99.0 136.3 99.15 135.25 99.1 134.4 99.3 134.4 Q99.4 136.65 100.8 138.3 101.85 139.45 103.35 139.15 104.55 138.95 105.2 137.9 106.5 135.85 105.05 133.95 L105.25 133.95 Q105.7 135.25 106.9 135.65 L109.0 135.55 Q110.1 134.95 110.3 133.7 111.0 130.25 108.75 127.55 L108.95 127.55 Q110.35 129.65 112.3 128.45 113.8 127.5 113.7 125.55 113.55 123.6 112.85 122.15 L110.9 118.65 Q112.45 119.7 113.2 118.2 113.8 116.9 113.5 115.55 112.6 111.45 109.45 108.75 106.1 105.8 101.85 104.05 95.35 101.45 88.5 102.4" fill="#6a5c39" fill-rule="evenodd" stroke="none"/>
      <path d="M91.3 111.0 L92.1 120.4 Q92.3 124.9 91.55 129.6 88.95 125.95 88.0 121.65 86.9 117.1 86.7 112.7 86.5 107.7 88.2 103.15 90.8 106.65 91.3 111.0" fill="#95885b" fill-rule="evenodd" stroke="none"/>
      <path d="M91.75 106.5 Q90.75 104.25 88.8 102.6 95.15 102.7 101.0 105.75 103.15 108.35 105.85 110.5 L105.55 110.3 Q103.0 108.85 99.95 108.3 L97.05 106.5 103.05 111.85 105.85 118.5 100.25 113.2 100.15 112.95 Q98.55 109.15 95.45 106.85 99.1 112.8 101.4 117.1 L102.4 122.25 101.95 121.85 Q99.9 119.8 97.95 116.8 L96.05 111.4 98.2 118.2 99.05 122.9 96.15 117.3 94.7 112.25 95.7 117.15 95.65 120.9 93.7 115.6 Q93.65 110.8 91.75 106.5" fill="#9efdfe" fill-rule="evenodd" stroke="none"/>
      <path d="M105.9 107.95 Q110.15 109.9 112.15 114.15 112.75 115.5 111.65 116.1 108.75 117.6 106.3 114.7 103.25 111.1 99.95 108.3 103.0 108.85 105.55 110.3 L105.85 110.5 Q103.15 108.35 101.0 105.75 L105.9 107.95 M109.7 124.9 Q106.25 125.25 104.45 121.55 L100.25 113.2 105.85 118.5 103.05 111.85 106.35 115.05 Q109.7 118.4 110.8 123.0 111.15 124.7 109.7 124.9 M103.15 120.3 Q105.35 124.3 106.2 128.9 L106.15 129.1 Q103.4 130.1 102.0 127.25 102.6 129.35 101.6 131.3 L101.45 131.55 Q96.95 125.3 96.15 117.3 L99.05 122.9 98.2 118.2 99.25 121.0 101.5 125.95 97.95 116.8 Q99.9 119.8 101.95 121.85 L102.4 122.25 101.4 117.1 103.15 120.3 M94.4 125.2 Q93.75 120.15 93.7 115.6 L95.65 120.9 95.7 117.15 97.35 124.35 Q98.1 127.75 97.05 130.9 94.85 128.65 94.4 125.2" fill="#6bb3fb" fill-rule="evenodd" stroke="none"/>
    </g>
    <linearGradient gradientTransform="matrix(0.0, -0.0133, -0.0133, 0.0, 85.4, 34.85)" gradientUnits="userSpaceOnUse" id="gradient2" spreadMethod="pad" x1="-819.2" x2="819.2">
      <stop offset="0.2823529411764706" stop-color="#ab3a48"/>
      <stop offset="0.28627450980392155" stop-color="#ab3b48"/>
      <stop offset="0.7019607843137254" stop-color="#d88f62"/>
      <stop offset="0.8941176470588236" stop-color="#e9b06c"/>
    </linearGradient>
    <linearGradient gradientTransform="matrix(0.0, -0.0085, -0.0085, 0.0, 85.4, 34.85)" gradientUnits="userSpaceOnUse" id="gradient3" spreadMethod="pad" x1="-819.2" x2="819.2">
      <stop offset="0.2823529411764706" stop-color="#e94b46"/>
      <stop offset="0.6784313725490196" stop-color="#e99459"/>
      <stop offset="0.8941176470588236" stop-color="#eab562"/>
    </linearGradient>
    <linearGradient gradientTransform="matrix(3.0E-4, -0.0173, -0.0173, -3.0E-4, 51.5, 44.85)" gradientUnits="userSpaceOnUse" id="gradient4" spreadMethod="pad" x1="-819.2" x2="819.2">
      <stop offset="0.2823529411764706" stop-color="#ab3a48"/>
      <stop offset="0.28627450980392155" stop-color="#ab3b48"/>
      <stop offset="0.7019607843137254" stop-color="#d88f62"/>
      <stop offset="0.8941176470588236" stop-color="#e9b06c"/>
    </linearGradient>
    <linearGradient gradientTransform="matrix(0.0, -0.0027, -0.0027, 0.0, 58.85, 35.85)" gradientUnits="userSpaceOnUse" id="gradient5" spreadMethod="pad" x1="-819.2" x2="819.2">
      <stop offset="0.10588235294117647" stop-color="#eab562"/>
      <stop offset="0.3215686274509804" stop-color="#e99459"/>
      <stop offset="0.7176470588235294" stop-color="#e94b46"/>
    </linearGradient>
    <linearGradient gradientTransform="matrix(1.0E-4, -0.0048, -0.0048, -1.0E-4, 60.45, 37.8)" gradientUnits="userSpaceOnUse" id="gradient6" spreadMethod="pad" x1="-819.2" x2="819.2">
      <stop offset="0.10588235294117647" stop-color="#eab562"/>
      <stop offset="0.3215686274509804" stop-color="#e99459"/>
      <stop offset="0.7176470588235294" stop-color="#e94b46"/>
    </linearGradient>
    <linearGradient gradientTransform="matrix(1.0E-4, -0.0037, -0.0037, -1.0E-4, 50.0, 41.9)" gradientUnits="userSpaceOnUse" id="gradient7" spreadMethod="pad" x1="-819.2" x2="819.2">
      <stop offset="0.10588235294117647" stop-color="#eab562"/>
      <stop offset="0.3215686274509804" stop-color="#e99459"/>
      <stop offset="0.7176470588235294" stop-color="#e94b46"/>
    </linearGradient>
    <linearGradient gradientTransform="matrix(1.0E-4, -0.0056, -0.0056, -1.0E-4, 52.0, 43.5)" gradientUnits="userSpaceOnUse" id="gradient8" spreadMethod="pad" x1="-819.2" x2="819.2">
      <stop offset="0.10588235294117647" stop-color="#eab562"/>
      <stop offset="0.3215686274509804" stop-color="#e99459"/>
      <stop offset="0.7176470588235294" stop-color="#e94b46"/>
    </linearGradient>
    <linearGradient gradientTransform="matrix(1.0E-4, -0.0052, -0.0052, -1.0E-4, 42.8, 50.4)" gradientUnits="userSpaceOnUse" id="gradient9" spreadMethod="pad" x1="-819.2" x2="819.2">
      <stop offset="0.10588235294117647" stop-color="#eab562"/>
      <stop offset="0.3215686274509804" stop-color="#e99459"/>
      <stop offset="0.7176470588235294" stop-color="#e94b46"/>
    </linearGradient>
    <linearGradient gradientTransform="matrix(1.0E-4, -0.0064, -0.0064, -1.0E-4, 45.35, 51.35)" gradientUnits="userSpaceOnUse" id="gradient10" spreadMethod="pad" x1="-819.2" x2="819.2">
      <stop offset="0.10588235294117647" stop-color="#eab562"/>
      <stop offset="0.3215686274509804" stop-color="#e99459"/>
      <stop offset="0.7176470588235294" stop-color="#e94b46"/>
    </linearGradient>
    <linearGradient gradientTransform="matrix(0.002, 0.0172, -0.0172, 0.002, 120.2, 44.85)" gradientUnits="userSpaceOnUse" id="gradient11" spreadMethod="pad" x1="-819.2" x2="819.2">
      <stop offset="0.2823529411764706" stop-color="#ab3a48"/>
      <stop offset="0.28627450980392155" stop-color="#ab3b48"/>
      <stop offset="0.7019607843137254" stop-color="#d88f62"/>
      <stop offset="0.8941176470588236" stop-color="#e9b06c"/>
    </linearGradient>
    <linearGradient gradientTransform="matrix(-0.0025, 0.0012, -0.0012, -0.0025, 112.85, 35.85)" gradientUnits="userSpaceOnUse" id="gradient12" spreadMethod="pad" x1="-819.2" x2="819.2">
      <stop offset="0.10588235294117647" stop-color="#eab562"/>
      <stop offset="0.3215686274509804" stop-color="#e99459"/>
      <stop offset="0.7176470588235294" stop-color="#e94b46"/>
    </linearGradient>
    <linearGradient gradientTransform="matrix(-0.0045, -0.0017, 0.0017, -0.0045, 111.3, 37.75)" gradientUnits="userSpaceOnUse" id="gradient13" spreadMethod="pad" x1="-819.2" x2="819.2">
      <stop offset="0.10588235294117647" stop-color="#eab562"/>
      <stop offset="0.3215686274509804" stop-color="#e99459"/>
      <stop offset="0.7176470588235294" stop-color="#e94b46"/>
    </linearGradient>
    <linearGradient gradientTransform="matrix(-0.0037, 2.0E-4, -2.0E-4, -0.0037, 121.7, 41.9)" gradientUnits="userSpaceOnUse" id="gradient14" spreadMethod="pad" x1="-819.2" x2="819.2">
      <stop offset="0.10588235294117647" stop-color="#eab562"/>
      <stop offset="0.3215686274509804" stop-color="#e99459"/>
      <stop offset="0.7176470588235294" stop-color="#e94b46"/>
    </linearGradient>
    <linearGradient gradientTransform="matrix(-0.0041, -0.0039, 0.0039, -0.0041, 119.7, 43.5)" gradientUnits="userSpaceOnUse" id="gradient15" spreadMethod="pad" x1="-819.2" x2="819.2">
      <stop offset="0.10588235294117647" stop-color="#eab562"/>
      <stop offset="0.3215686274509804" stop-color="#e99459"/>
      <stop offset="0.7176470588235294" stop-color="#e94b46"/>
    </linearGradient>
    <linearGradient gradientTransform="matrix(-0.0045, -0.0026, 0.0026, -0.0045, 128.9, 50.4)" gradientUnits="userSpaceOnUse" id="gradient16" spreadMethod="pad" x1="-819.2" x2="819.2">
      <stop offset="0.10588235294117647" stop-color="#eab562"/>
      <stop offset="0.3215686274509804" stop-color="#e99459"/>
      <stop offset="0.7176470588235294" stop-color="#e94b46"/>
    </linearGradient>
    <linearGradient gradientTransform="matrix(-0.0014, -0.0062, 0.0062, -0.0014, 126.4, 51.35)" gradientUnits="userSpaceOnUse" id="gradient17" spreadMethod="pad" x1="-819.2" x2="819.2">
      <stop offset="0.10588235294117647" stop-color="#eab562"/>
      <stop offset="0.3215686274509804" stop-color="#e99459"/>
      <stop offset="0.7176470588235294" stop-color="#e94b46"/>
    </linearGradient>
    <linearGradient gradientTransform="matrix(0.0, -0.0526, -0.0526, 0.0, 85.85, 93.7)" gradientUnits="userSpaceOnUse" id="gradient18" spreadMethod="pad" x1="-819.2" x2="819.2">
      <stop offset="0.2823529411764706" stop-color="#ab3a48"/>
      <stop offset="0.28627450980392155" stop-color="#ab3b48"/>
      <stop offset="0.7019607843137254" stop-color="#d88f62"/>
      <stop offset="0.8941176470588236" stop-color="#e9b06c"/>
    </linearGradient>
    <g id="sprite1" transform="matrix(1.0, 0.0, 0.0, 1.0, 0.0, -0.05)">
      <use height="36.05" transform="matrix(1.0, 0.0, 0.0, 1.0, 0.0, 0.05)" width="41.55" xlink:href="#shape3"/>
    </g>
    <g id="shape3" transform="matrix(1.0, 0.0, 0.0, 1.0, 0.0, -0.05)">
      <path d="M41.3 15.55 Q41.3 19.65 40.45 20.95 38.2 24.35 29.95 24.4 22.25 24.5 25.15 24.5 L23.8 26.45 Q24.2 28.0 23.5 29.2 22.0 31.75 16.1 36.0 15.45 36.45 14.5 34.25 14.65 33.55 15.45 32.7 L16.85 31.35 Q17.9 30.2 18.05 28.6 18.2 26.65 16.55 25.2 L14.45 24.2 6.6 23.5 Q1.85 22.1 0.45 16.9 -0.15 14.7 0.05 11.9 L0.65 7.45 Q1.25 3.5 5.0 1.5 7.4 0.25 10.15 0.05 L27.95 0.05 Q34.75 0.05 37.8 1.85 40.9 3.65 41.4 8.15 41.65 10.35 41.5 11.95 L41.3 15.55" fill="#231f20" fill-rule="evenodd" stroke="none"/>
    </g>
    <g id="shape4" transform="matrix(1.0, 0.0, 0.0, 1.0, -74.2, -51.55)">
      <path d="M105.05 51.95 Q112.0 51.95 115.1 53.75 118.25 55.55 118.75 60.05 L118.9 63.85 118.7 67.45 Q118.7 71.5 117.8 72.85 115.5 76.25 107.15 76.3 L99.9 76.4 98.25 78.3 Q98.7 80.15 98.2 81.25 96.95 84.05 90.95 88.2 89.95 88.9 90.45 86.7 90.95 84.5 92.15 83.25 93.75 81.5 89.45 77.75 L86.95 76.05 Q82.0 75.9 80.1 75.05 76.5 73.4 75.0 68.1 74.4 65.9 74.6 63.4 L75.25 59.3 Q75.8 55.35 79.65 53.35 82.5 51.9 85.9 51.9 L105.05 51.95" fill="#ffffff" fill-rule="evenodd" stroke="none"/>
      <path d="M80.55 53.4 Q76.25 55.25 75.6 59.4 L75.4 60.7 Q74.6 65.2 75.35 68.0 76.8 72.95 80.05 74.6 82.0 75.55 86.4 75.65 L86.95 75.7 87.15 75.75 89.7 77.4 Q92.9 80.3 92.95 82.1 92.95 82.95 92.45 83.5 91.65 84.35 91.05 85.95 90.55 87.35 90.7 87.9 L90.75 87.85 Q96.2 84.1 97.65 81.55 98.45 80.2 98.0 78.75 L97.9 78.4 97.95 78.05 99.55 76.2 99.85 76.0 107.15 75.95 Q114.55 75.9 117.0 73.25 117.95 72.25 118.25 70.7 L118.35 68.25 118.35 67.45 Q118.35 65.75 118.5 64.6 118.65 62.55 118.4 60.1 117.9 55.8 114.95 54.05 111.95 52.35 105.05 52.3 L85.35 52.3 Q83.05 52.3 80.55 53.4 M84.95 51.55 L105.05 51.55 Q112.2 51.6 115.4 53.5 118.6 55.4 119.15 60.0 119.4 62.55 119.25 64.65 119.1 65.8 119.1 67.45 L119.1 68.2 119.0 70.9 Q118.65 72.6 117.55 73.75 114.8 76.65 107.15 76.7 L100.05 76.75 98.65 78.4 98.7 78.5 Q99.25 80.15 98.4 81.7 96.9 84.5 91.15 88.5 L90.6 88.7 Q90.2 88.7 90.05 88.3 89.7 87.55 90.35 85.75 90.95 83.95 91.9 82.95 L92.2 82.15 Q92.1 80.6 89.2 78.0 L86.85 76.4 86.4 76.4 Q81.8 76.3 79.7 75.25 76.15 73.5 74.65 68.2 73.8 65.15 74.65 60.55 L74.85 59.25 Q75.4 55.65 78.6 53.55 81.25 51.8 84.95 51.55" fill="#470b17" fill-rule="evenodd" stroke="none"/>
      <path d="M80.75 57.25 L81.95 57.25 84.1 56.65 86.4 56.6 89.5 57.15 90.95 57.35 92.35 57.15 93.4 56.6 Q94.0 56.4 94.6 56.6 L95.3 57.1 Q95.75 57.4 96.15 57.35 L96.95 56.95 97.8 56.55 Q98.55 56.4 99.4 56.95 99.95 57.4 100.8 57.3 101.95 57.25 103.1 56.7 L104.4 56.55 104.95 56.95 105.5 57.35 Q106.3 57.6 108.6 56.9 L111.5 56.95 112.8 57.25 114.1 57.45" fill="none" stroke="#470b17" stroke-linecap="round" stroke-linejoin="round" stroke-width="0.5"/>
      <path d="M80.6 61.75 L82.85 61.25 83.95 61.55 85.15 61.5 86.5 61.15 87.6 61.4 Q89.5 62.1 91.65 62.2 L93.6 61.75 Q94.85 61.25 95.5 61.25 96.25 61.2 97.15 61.65 L100.55 62.3 102.4 61.95 104.25 61.75 105.85 62.0 107.45 61.7 Q109.25 60.95 111.25 61.2 L112.7 61.65 114.05 62.05" fill="none" stroke="#470b17" stroke-linecap="round" stroke-linejoin="round" stroke-width="0.5"/>
      <path d="M80.55 66.65 L81.45 66.3 82.5 66.0 Q83.35 65.95 84.15 66.6 L86.2 66.55 88.3 66.7 90.6 66.2 92.95 65.95 94.9 66.55 97.35 66.3 99.35 66.15 100.55 66.45 101.7 66.75 103.7 66.6 105.7 66.25 107.2 66.4 108.65 66.65 110.0 66.45 111.35 66.35 112.75 66.7 114.15 66.8" fill="none" stroke="#470b17" stroke-linecap="round" stroke-linejoin="round" stroke-width="0.5"/>
      <path d="M80.4 71.3 L81.15 71.1 81.95 70.95 83.75 70.9 85.8 70.65 87.1 70.95 88.35 71.35 90.3 71.05 Q91.5 70.65 92.15 70.75 L93.25 71.1 94.4 71.4 96.55 71.1 Q98.3 70.5 99.75 70.55 L101.65 71.0 103.55 71.55 105.1 71.45 106.6 71.05 107.6 71.15 108.4 71.5 108.9 71.5 109.35 71.3 110.8 71.1 112.35 71.35 113.95 71.55" fill="none" stroke="#470b17" stroke-linecap="round" stroke-linejoin="round" stroke-width="0.5"/>
    </g>
    <g id="sprite2" transform="matrix(1.0, 0.0, 0.0, 1.0, 0.0, 0.0)">
      <use height="60.45" transform="matrix(1.0, 0.0, 0.0, 1.0, 0.0, 0.0)" width="119.2" xlink:href="#sprite3"/>
      <use height="66.45" transform="matrix(1.0, 0.0, 0.0, 1.0, 0.0, 0.0)" width="119.2" xlink:href="#sprite4"/>
    </g>
    <g id="sprite3" transform="matrix(1.0, 0.0, 0.0, 1.0, 0.0, 0.0)">
      <use height="60.45" transform="matrix(1.0, 0.0, 0.0, 1.0, 0.0, 0.0)" width="119.2" xlink:href="#shape5"/>
    </g>
    <g id="shape5" transform="matrix(1.0, 0.0, 0.0, 1.0, 0.0, 0.0)">
      <path d="M104.05 19.5 Q111.3 27.5 115.4 37.25 119.2 46.4 119.2 54.5 119.2 57.4 118.7 59.35 115.7 41.35 101.15 27.4 84.0 10.9 59.6 10.9 34.85 10.9 17.9 27.35 3.25 41.55 0.5 60.45 0.0 58.6 0.0 55.85 0.0 46.95 3.8 37.45 7.85 27.4 15.1 19.3 32.55 0.0 59.6 0.0 86.35 0.0 104.05 19.5" fill="url(#gradient19)" fill-rule="evenodd" stroke="none"/>
    </g>
    <linearGradient gradientTransform="matrix(0.0, -0.0369, -0.0369, 0.0, 59.6, 30.25)" gradientUnits="userSpaceOnUse" id="gradient19" spreadMethod="pad" x1="-819.2" x2="819.2">
      <stop offset="0.12941176470588237" stop-color="#e2b8b2"/>
      <stop offset="0.9254901960784314" stop-color="#ffffff"/>
    </linearGradient>
    <g id="sprite4" transform="matrix(1.0, 0.0, 0.0, 1.0, 0.0, 0.0)">
      <use height="66.45" transform="matrix(1.0, 0.0, 0.0, 1.0, 0.0, 0.0)" width="119.2" xlink:href="#shape6"/>
    </g>
    <g id="shape6" transform="matrix(1.0, 0.0, 0.0, 1.0, 0.0, 0.0)">
      <path d="M115.4 37.25 Q119.2 46.4 119.2 54.5 119.2 62.55 114.5 64.65 110.7 66.35 101.75 64.6 L82.8 60.2 Q69.8 57.45 59.6 57.45 49.35 57.45 36.4 60.45 L17.45 65.25 Q8.45 67.3 4.7 65.8 0.0 63.9 0.0 55.85 0.0 46.95 3.8 37.45 7.85 27.4 15.1 19.3 32.55 0.0 59.6 0.0 86.35 0.0 104.05 19.5 111.3 27.5 115.4 37.25" fill="#ffffff" fill-rule="evenodd" stroke="none"/>
    </g>
    <g id="sprite5" transform="matrix(1.0, 0.0, 0.0, 1.0, 0.0, 0.0)">
      <use height="61.9" transform="matrix(1.0, 0.0, 0.0, 1.0, 0.0, 0.0)" width="128.6" xlink:href="#shape7"/>
    </g>
    <g id="shape7" transform="matrix(1.0, 0.0, 0.0, 1.0, 0.0, 0.0)">
      <path d="M128.05 0.25 L128.6 0.0 Q127.65 25.85 109.0 43.85 90.3 61.9 64.25 61.9 38.7 61.9 20.15 44.45 1.6 27.05 0.0 1.8 7.5 21.3 24.65 33.3 42.2 45.6 63.75 45.6 85.7 45.6 103.5 32.85 120.9 20.35 128.05 0.25" fill="url(#gradient20)" fill-rule="evenodd" stroke="none"/>
    </g>
    <radialGradient cx="0" cy="0" gradientTransform="matrix(0.0616, 0.0, 0.0, -0.0616, 64.3, 30.95)" gradientUnits="userSpaceOnUse" id="gradient20" r="819.2" spreadMethod="pad">
      <stop offset="0.0" stop-color="#f3a32d" stop-opacity="0.0"/>
      <stop offset="0.06274509803921569" stop-color="#e99a2c" stop-opacity="0.0627451"/>
      <stop offset="0.17254901960784313" stop-color="#cd832a" stop-opacity="0.23921569"/>
      <stop offset="0.3176470588235294" stop-color="#a05e27" stop-opacity="0.52156866"/>
      <stop offset="0.48627450980392156" stop-color="#632b23" stop-opacity="0.9098039"/>
      <stop offset="0.5215686274509804" stop-color="#551f23"/>
    </radialGradient>
  </defs>
</svg>
