<?xml version="1.0" encoding="UTF-8" standalone="no"?>
<svg xmlns:xlink="http://www.w3.org/1999/xlink" height="164.25px" width="110.65px" xmlns="http://www.w3.org/2000/svg">
  <g transform="matrix(1.0, 0.0, 0.0, 1.0, 0.0, 0.0)">
    <use height="164.25" transform="matrix(1.0, 0.0, 0.0, 1.0, 0.0, 0.0)" width="110.65" xlink:href="#shape0"/>
  </g>
  <defs>
    <g id="shape0" transform="matrix(1.0, 0.0, 0.0, 1.0, 0.0, 0.0)">
      <path d="M43.35 1.3 L50.75 0.1 Q59.45 -0.45 66.0 3.0 77.95 9.2 89.25 43.9 97.75 69.75 103.65 103.3 107.1 122.65 110.65 158.8 L101.65 164.25 45.65 2.8 43.35 1.3" fill="url(#gradient0)" fill-rule="evenodd" stroke="none"/>
      <path d="M45.65 0.8 Q74.7 -1.3 91.05 81.25 99.25 122.55 101.65 164.25 L0.0 147.05 Q1.15 111.25 7.45 75.05 20.05 2.7 45.65 0.8" fill="#b9a36a" fill-rule="evenodd" stroke="none"/>
      <path d="M76.65 40.15 Q82.7 55.8 87.45 87.1 89.9 103.15 91.85 120.45 93.0 127.45 97.25 163.55 L4.65 147.9 Q5.55 136.1 7.1 120.6 10.2 89.6 13.65 71.15 17.45 50.85 23.85 34.65 29.15 21.3 34.65 14.3 38.85 9.0 43.95 7.75 L51.5 7.95 Q56.4 9.15 61.95 15.0 70.35 23.75 76.65 40.15" fill="#5d553e" fill-rule="evenodd" stroke="none"/>
      <path d="M67.85 24.3 Q78.6 41.65 83.35 70.0 87.9 97.5 96.0 163.3 L5.35 148.0 Q6.5 132.25 8.7 112.65 13.15 73.5 18.35 54.3 24.3 32.3 31.8 20.15 38.7 9.0 45.35 8.3 57.15 7.05 67.85 24.3" fill="#996035" fill-rule="evenodd" stroke="none"/>
      <path d="M22.55 40.55 Q26.45 29.5 30.7 22.05 26.4 62.4 26.2 80.95 26.0 106.6 26.4 151.55 L16.95 149.95 Q19.3 113.95 19.45 97.3 19.65 82.6 22.55 40.55" fill="#a77853" fill-rule="evenodd" stroke="none"/>
      <path d="M44.5 8.45 Q42.8 23.1 42.8 27.7 42.8 29.65 44.4 42.8 46.0 55.55 45.85 61.5 45.75 67.25 43.5 75.15 41.25 82.85 41.25 85.3 41.25 88.65 43.4 154.4 L33.9 152.8 34.5 111.85 34.95 73.55 Q34.75 59.5 39.45 11.0 42.0 9.0 44.5 8.45" fill="#a56538" fill-rule="evenodd" stroke="none"/>
      <path d="M53.05 9.65 Q58.05 11.9 62.6 17.1 64.4 41.2 63.35 47.1 62.5 51.65 62.3 74.75 L62.25 103.85 Q62.25 112.65 63.65 157.85 L53.85 156.2 53.3 113.05 Q53.15 108.25 54.2 90.4 L55.45 64.8 Q55.65 53.0 53.05 9.65" fill="#a77853" fill-rule="evenodd" stroke="none"/>
      <path d="M70.3 81.8 Q70.3 75.8 72.1 32.2 76.9 42.3 80.15 54.95 82.55 113.15 82.55 121.35 82.55 129.85 84.35 161.35 L71.2 159.1 72.3 124.6 71.3 104.8 Q70.3 87.15 70.3 81.8" fill="#a56538" fill-rule="evenodd" stroke="none"/>
      <path d="M46.8 8.25 L50.45 8.75 Q51.55 58.35 51.0 69.0 50.4 80.9 50.95 155.7 L46.1 154.85 Q46.55 113.5 46.35 102.3 46.15 94.25 47.55 81.55 49.0 68.2 49.0 65.0 49.0 55.65 46.8 8.25" fill="#a56538" fill-rule="evenodd" stroke="none"/>
      <path d="M12.5 83.65 Q15.35 65.3 18.35 54.3 L18.65 53.2 11.2 148.95 8.5 148.5 Q9.65 129.3 9.65 120.0 9.65 112.05 12.5 83.65" fill="#a56538" fill-rule="evenodd" stroke="none"/>
      <path d="M93.3 162.85 L87.85 161.95 87.0 145.3 Q86.75 140.85 87.45 97.8 L92.45 135.3 93.3 162.85" fill="#a77853" fill-rule="evenodd" stroke="none"/>
      <path d="M71.65 86.65 Q75.05 86.65 77.0 88.95 78.75 90.95 78.7 93.95 78.65 96.85 76.95 98.9 75.05 101.1 72.0 101.0 68.95 100.9 67.35 98.6 65.95 96.6 66.1 93.7 66.2 90.85 67.7 88.85 69.3 86.65 71.65 86.65" fill="#644329" fill-rule="evenodd" stroke="none"/>
    </g>
    <linearGradient gradientTransform="matrix(0.0029, 0.0273, 0.0273, -0.0029, 71.15, 24.3)" gradientUnits="userSpaceOnUse" id="gradient0" spreadMethod="pad" x1="-819.2" x2="819.2">
      <stop offset="0.0" stop-color="#e2af7b"/>
      <stop offset="1.0" stop-color="#c2895a"/>
    </linearGradient>
  </defs>
</svg>
