<?xml version="1.0" encoding="UTF-8" standalone="no"?>
<svg xmlns:xlink="http://www.w3.org/1999/xlink" height="172.3px" width="171.85px" xmlns="http://www.w3.org/2000/svg">
  <g transform="matrix(1.0, 0.0, 0.0, 1.0, 0.0, 0.0)">
    <use height="172.3" transform="matrix(1.0, 0.0, 0.0, 1.0, 0.0, 0.0)" width="171.85" xlink:href="#shape0"/>
    <use height="66.1" transform="matrix(1.0, 0.0, 0.0, 1.0, 42.85, 60.2)" width="95.2" xlink:href="#sprite0"/>
    <use height="55.55" transform="matrix(1.0, 0.0, 0.0, 1.0, 30.75, 27.4)" width="109.55" xlink:href="#sprite2"/>
    <use height="61.05" transform="matrix(1.0, 0.0, 0.0, 1.0, 30.75, 27.4)" width="109.55" xlink:href="#sprite3"/>
    <use height="56.8" transform="matrix(1.0, 0.0, 0.0, 1.0, 26.45, 85.95)" width="118.15" xlink:href="#sprite4"/>
  </g>
  <defs>
    <g id="shape0" transform="matrix(1.0, 0.0, 0.0, 1.0, 0.0, 0.0)">
      <path d="M104.9 35.2 L104.9 30.15 105.2 2.2 109.8 3.4 109.4 30.15 109.35 52.05 Q109.3 64.95 108.8 74.05 L108.45 78.95 107.9 84.2 Q107.55 87.35 107.8 89.35 107.8 93.6 108.25 100.1 L108.55 103.7 Q110.45 116.0 109.7 135.5 108.65 162.6 108.75 167.45 L108.7 168.65 105.85 169.35 105.95 166.05 Q108.05 144.6 108.3 137.65 108.9 121.7 106.2 109.55 L104.9 104.9 103.4 100.15 Q102.3 97.15 103.6 92.0 105.15 85.85 105.0 83.6 L105.3 78.8 Q105.9 70.3 105.5 57.15 L104.9 35.2" fill="#e29d61" fill-rule="evenodd" stroke="none"/>
      <path d="M5.85 105.75 L6.0 117.2 5.7 116.4 Q6.0 110.05 5.75 106.05 L5.85 101.5 6.0 97.65 5.85 105.75" fill="#e29d61" fill-rule="evenodd" stroke="none"/>
      <path d="M44.95 60.35 Q46.65 67.7 47.15 73.5 L44.95 60.35" fill="#e29d61" fill-rule="evenodd" stroke="none"/>
      <path d="M100.2 1.2 Q100.3 11.85 100.7 21.1 L100.95 37.7 101.05 57.45 Q100.95 68.8 100.15 77.3 L99.85 82.5 99.1 95.6 99.1 100.05 100.6 104.05 102.25 108.8 103.5 113.6 Q105.05 123.55 104.05 136.2 103.4 143.75 100.95 159.0 100.1 163.8 101.4 167.9 L101.85 170.2 100.85 170.4 Q100.2 166.85 100.0 163.6 L99.8 159.1 101.0 152.0 Q103.55 136.5 103.8 129.1 104.25 115.9 100.2 106.5 L98.4 101.2 Q98.0 99.25 97.75 96.85 97.1 89.8 98.9 83.25 L99.3 78.45 Q100.2 59.45 99.55 36.8 L99.15 14.75 98.75 0.95 100.2 1.2" fill="#e29d61" fill-rule="evenodd" stroke="none"/>
      <path d="M114.8 47.8 L114.9 44.45 115.25 5.15 116.6 5.65 116.2 26.0 Q115.95 38.35 116.2 46.4 L116.15 50.45 Q116.0 61.75 115.25 70.9 L114.6 80.15 Q113.6 96.85 113.5 125.1 113.05 108.5 113.75 97.6 L113.85 93.9 Q114.0 84.1 114.5 75.55 L114.75 65.15 Q114.65 55.55 114.8 47.8" fill="#e29d61" fill-rule="evenodd" stroke="none"/>
      <path d="M110.6 30.15 L111.0 3.7 114.3 4.8 114.25 7.0 Q114.5 12.95 114.15 23.35 113.75 35.45 113.8 39.85 L113.75 45.3 113.55 56.2 113.45 61.65 112.85 75.2 112.6 79.75 Q112.0 86.8 112.1 96.1 L112.15 99.4 Q112.2 110.1 112.95 131.55 113.4 150.85 112.2 163.95 L111.95 167.35 111.95 167.7 109.4 168.45 109.4 166.95 Q110.8 144.4 111.0 134.25 111.35 115.95 109.6 101.75 L109.35 98.5 Q108.8 89.7 109.2 82.2 L109.55 76.95 Q111.3 49.65 110.6 30.15" fill="#e29d61" fill-rule="evenodd" stroke="none"/>
      <path d="M98.15 0.85 L98.4 36.15 Q98.6 60.55 97.9 75.7 L97.1 84.45 Q96.25 90.75 96.95 97.6 L98.65 106.7 Q101.55 119.4 101.9 129.1 102.35 141.5 99.0 151.6 98.45 153.25 98.35 156.0 L98.35 160.2 98.55 164.1 Q98.85 167.35 99.6 170.6 L98.85 170.75 Q98.3 166.7 98.05 162.05 L98.65 149.2 Q99.9 135.75 99.9 127.9 99.9 116.2 97.65 106.85 L96.4 101.7 95.8 98.3 Q95.0 92.65 95.6 87.75 L95.75 83.6 96.35 73.95 Q97.2 60.85 96.85 41.3 L96.75 36.85 95.55 5.9 95.35 0.5 98.15 0.85" fill="#e29d61" fill-rule="evenodd" stroke="none"/>
      <path d="M101.9 32.4 L101.85 21.2 Q101.75 10.25 101.9 1.5 L103.1 1.7 Q102.85 15.25 103.45 26.05 L103.55 31.9 104.25 56.15 Q104.35 69.95 102.55 79.85 L102.1 85.0 Q101.75 87.6 101.65 90.25 101.95 94.8 103.0 100.9 L105.15 110.9 Q107.45 123.0 106.45 139.6 105.85 149.1 103.95 168.1 L104.0 169.8 103.9 169.8 103.75 167.8 Q103.2 165.95 103.25 163.4 L103.4 159.0 Q105.25 143.3 105.75 135.45 106.65 122.0 104.6 112.2 L103.25 107.6 101.45 102.6 Q100.8 100.35 100.55 97.2 L100.3 91.75 100.45 88.35 100.8 84.95 101.1 80.35 Q102.75 71.15 102.4 56.6 L101.9 32.4" fill="#e29d61" fill-rule="evenodd" stroke="none"/>
      <path d="M92.8 45.95 L92.8 0.3 95.0 0.45 Q95.0 22.2 95.45 38.6 L95.55 43.2 96.3 59.15 Q96.55 68.1 95.65 74.9 L94.7 87.75 Q94.05 93.25 94.7 99.15 L96.25 107.9 Q98.5 116.8 98.65 127.65 98.8 136.35 97.55 147.85 L96.35 159.4 96.35 162.6 Q96.5 166.55 97.2 170.95 L95.6 171.15 Q94.5 166.25 94.05 162.15 L93.7 158.75 93.15 148.9 93.0 144.0 Q92.45 136.8 92.45 126.7 L92.65 109.65 92.45 104.05 Q92.05 95.15 92.05 87.15 L92.55 70.2 92.8 45.95" fill="#e29d61" fill-rule="evenodd" stroke="none"/>
      <path d="M117.15 27.65 L117.6 6.05 122.55 8.2 122.15 29.5 Q121.85 42.5 122.05 50.9 L122.0 55.5 121.85 69.65 121.75 74.4 121.75 78.9 121.55 83.4 118.55 121.3 Q117.4 142.8 119.6 159.45 119.8 161.85 119.3 165.0 L114.85 166.7 115.2 162.4 115.75 121.95 Q116.0 96.65 116.4 81.4 L116.95 73.5 Q117.3 66.95 117.3 53.95 L117.25 49.25 Q116.9 40.6 117.15 27.65" fill="#e29d61" fill-rule="evenodd" stroke="none"/>
      <path d="M76.85 0.5 L76.85 17.35 Q77.2 43.9 76.7 76.6 L75.35 135.8 Q75.25 139.15 75.4 141.85 L75.8 152.55 76.4 161.75 76.8 171.0 76.85 171.2 72.65 170.7 72.15 160.45 71.45 150.15 71.05 138.3 Q71.05 110.05 71.8 63.1 L72.0 59.9 Q72.6 53.9 72.6 46.45 L72.25 33.05 72.45 16.45 72.25 10.8 72.25 1.1 76.85 0.5" fill="#e29d61" fill-rule="evenodd" stroke="none"/>
      <path d="M36.85 156.25 L37.1 152.8 37.05 156.35 36.85 156.25" fill="#e29d61" fill-rule="evenodd" stroke="none"/>
      <path d="M71.05 1.3 L71.05 14.3 Q70.85 22.9 70.95 46.15 71.1 66.4 70.55 78.05 70.1 94.65 70.0 128.3 L70.0 140.4 70.1 144.85 70.4 150.4 Q70.75 158.55 71.55 167.9 L71.7 170.5 68.85 170.0 68.7 161.5 68.3 152.85 67.55 137.6 Q66.55 116.05 67.6 75.15 68.75 33.0 67.95 12.85 L67.6 8.5 Q67.5 6.1 67.65 4.15 L67.95 1.9 71.05 1.3" fill="#e29d61" fill-rule="evenodd" stroke="none"/>
      <path d="M83.25 0.05 L83.3 26.25 83.55 54.55 Q83.55 73.4 83.8 82.95 L82.75 109.25 Q81.95 125.25 82.9 135.6 L82.95 140.6 82.8 150.55 82.8 171.65 81.5 171.6 Q81.65 162.55 81.4 152.15 L80.95 138.1 Q80.9 125.15 81.7 80.0 82.35 43.8 81.7 21.7 L81.65 0.1 83.25 0.05" fill="#e29d61" fill-rule="evenodd" stroke="none"/>
      <path d="M80.75 0.15 L80.8 20.9 80.65 79.75 Q80.3 112.15 79.2 138.6 L79.3 143.1 79.7 147.65 80.05 152.3 Q80.7 160.75 80.5 166.2 L80.4 171.5 78.0 171.35 76.95 158.2 76.65 152.05 76.55 147.4 76.4 142.4 76.6 137.4 77.9 77.85 Q78.5 43.35 77.95 18.25 L77.9 0.4 80.75 0.15" fill="#e29d61" fill-rule="evenodd" stroke="none"/>
      <path d="M84.2 24.05 L84.2 0.05 85.95 0.0 91.55 0.2 91.55 52.75 Q91.7 58.05 91.5 62.65 L91.4 67.65 91.05 86.8 91.0 90.65 Q90.8 95.6 90.95 101.3 L91.1 106.65 91.05 111.45 Q90.8 118.0 91.2 128.05 L91.8 144.65 91.85 149.4 91.75 158.75 92.15 162.0 Q92.55 165.5 93.65 171.35 L85.95 171.7 83.6 171.65 84.05 153.2 84.1 138.2 Q83.15 117.8 83.85 81.2 84.65 41.25 84.2 24.05" fill="#e29d61" fill-rule="evenodd" stroke="none"/>
      <path d="M52.6 123.15 L53.6 129.1 Q54.3 132.85 54.45 135.2 53.0 129.25 52.6 123.15" fill="#e29d61" fill-rule="evenodd" stroke="none"/>
      <path d="M162.45 48.9 L162.45 46.9 166.1 55.0 Q166.35 58.75 166.95 63.4 L166.95 69.1 167.55 92.95 167.6 112.5 165.25 118.9 165.15 96.1 164.45 73.35 164.45 67.9 163.55 63.1 Q163.1 61.1 162.85 58.2 L162.6 53.6 162.45 48.9" fill="#e29d61" fill-rule="evenodd" stroke="none"/>
      <path d="M155.45 35.5 L159.35 41.3 159.25 43.6 159.2 48.65 Q159.35 54.0 160.5 63.8 161.8 74.5 162.05 79.25 L162.8 124.25 Q160.1 129.45 157.25 133.65 L157.7 114.0 157.9 96.0 157.6 91.1 157.4 85.65 157.6 79.8 Q157.7 76.5 157.4 74.15 155.4 61.2 154.9 55.25 L154.6 50.55 Q154.55 44.5 155.45 35.5" fill="#e29d61" fill-rule="evenodd" stroke="none"/>
      <path d="M168.05 60.55 Q171.85 72.95 171.85 85.9 171.85 97.15 169.05 107.65 L168.05 60.55" fill="#e29d61" fill-rule="evenodd" stroke="none"/>
      <path d="M147.25 126.85 L147.4 145.75 147.05 146.15 Q146.95 135.8 147.25 126.85" fill="#e29d61" fill-rule="evenodd" stroke="none"/>
      <path d="M62.2 89.85 L62.8 83.2 Q62.3 114.5 63.5 139.55 L63.6 143.45 63.6 168.75 61.4 168.1 62.15 144.7 62.2 139.5 61.1 114.8 Q60.65 100.55 62.2 89.85" fill="#e29d61" fill-rule="evenodd" stroke="none"/>
      <path d="M125.55 32.85 L125.75 9.8 126.4 10.15 126.8 33.4 127.2 56.6 127.05 73.55 127.05 84.6 126.9 88.2 Q121.7 108.2 122.9 135.1 122.9 143.15 123.9 150.6 L125.0 162.3 123.4 163.15 123.05 159.95 Q118.35 126.45 125.45 88.4 L125.95 82.5 126.05 76.55 126.1 72.55 126.05 60.6 125.95 55.85 Q125.5 45.95 125.55 32.85" fill="#e29d61" fill-rule="evenodd" stroke="none"/>
      <path d="M151.9 30.9 L154.75 34.5 153.45 43.7 153.3 47.15 Q153.3 49.1 153.8 50.65 L154.15 55.9 155.8 71.55 Q156.7 80.7 156.25 87.25 L156.2 111.95 Q155.3 121.9 155.8 135.7 L152.8 139.7 Q151.85 121.55 152.85 111.1 L153.05 106.7 152.95 83.5 152.3 71.65 151.5 59.9 151.1 55.05 Q150.85 46.6 151.9 30.9" fill="#e29d61" fill-rule="evenodd" stroke="none"/>
      <path d="M127.7 35.05 L127.35 10.65 133.85 14.65 134.2 21.45 Q134.6 32.15 136.5 40.9 137.25 48.25 136.85 54.25 L135.35 60.75 134.2 69.8 133.9 73.95 Q133.7 76.85 133.85 80.85 L134.15 87.6 134.15 90.75 132.45 99.95 Q126.65 127.95 132.5 154.35 L133.15 157.55 Q129.55 159.95 125.85 161.85 L125.0 157.0 123.9 150.6 122.9 135.1 Q122.85 125.35 124.5 111.35 L127.25 88.0 127.55 84.1 Q127.95 77.75 127.75 72.3 L128.05 59.4 127.7 35.05" fill="#e29d61" fill-rule="evenodd" stroke="none"/>
      <path d="M123.8 31.25 L124.1 8.95 125.1 9.45 124.75 30.45 Q124.5 43.6 124.55 51.55 L124.45 76.4 124.65 82.4 124.4 88.35 Q121.3 103.95 121.0 125.15 120.9 130.95 121.55 161.9 L121.6 163.95 121.3 164.1 120.6 157.0 Q119.35 141.55 120.75 119.75 122.75 94.95 123.45 82.35 L123.4 76.25 123.55 53.4 123.8 31.25" fill="#e29d61" fill-rule="evenodd" stroke="none"/>
      <path d="M49.9 40.75 L50.9 45.35 51.7 55.15 Q50.05 48.45 49.45 44.2 48.9 41.2 50.05 36.8 49.6 38.75 49.9 40.75" fill="#e29d61" fill-rule="evenodd" stroke="none"/>
      <path d="M137.8 36.6 L135.8 16.0 140.05 19.2 Q140.4 31.15 141.7 39.8 142.05 43.4 141.85 47.9 L141.2 56.0 140.8 60.55 139.5 77.1 139.35 80.4 139.2 92.65 138.65 106.45 Q138.0 116.95 138.25 129.9 138.4 138.05 139.15 153.2 L135.55 155.9 Q134.35 141.5 133.9 132.6 133.25 119.75 133.6 109.1 L133.9 103.65 135.3 94.25 135.8 89.9 135.9 82.85 138.15 57.35 Q138.8 48.65 137.8 36.6" fill="#e29d61" fill-rule="evenodd" stroke="none"/>
      <path d="M149.25 92.95 L149.2 84.05 148.65 60.65 148.55 55.45 148.95 27.55 151.2 30.1 Q150.55 43.1 150.55 51.0 L150.7 56.05 151.4 69.3 151.9 82.5 151.75 107.25 151.4 124.25 Q151.2 134.4 151.4 141.35 L148.75 144.35 Q148.25 133.05 148.3 125.6 148.4 115.4 149.5 106.9 L149.65 102.4 149.6 97.65 149.25 92.95" fill="#e29d61" fill-rule="evenodd" stroke="none"/>
      <path d="M142.45 40.75 Q141.45 29.95 141.2 24.55 L140.9 19.9 Q143.6 22.15 146.15 24.7 L146.6 56.05 146.2 86.55 146.55 98.4 146.55 106.5 Q145.2 123.95 145.8 147.35 L140.45 152.15 139.25 136.9 Q138.35 130.2 139.2 120.25 L140.65 103.5 140.95 90.05 Q141.05 84.45 140.8 78.9 L141.0 75.45 142.05 61.75 142.35 57.05 Q143.15 50.4 142.45 40.75" fill="#e29d61" fill-rule="evenodd" stroke="none"/>
      <path d="M163.1 75.6 L163.35 72.85 163.35 75.6 163.5 79.5 164.05 94.85 164.05 107.2 Q163.7 113.2 163.95 121.8 L163.55 122.7 163.55 122.4 Q163.4 113.8 163.6 106.1 L163.1 75.6" fill="#e29d61" fill-rule="evenodd" stroke="none"/>
      <path d="M43.7 36.8 Q45.05 29.35 45.2 23.9 45.35 16.9 43.65 11.2 46.45 9.55 49.1 8.35 51.95 15.15 49.85 26.95 47.5 40.2 48.45 45.2 L50.45 55.45 52.3 65.55 Q53.4 85.1 52.95 103.35 L52.35 106.05 Q51.05 113.3 51.9 122.25 L53.2 131.0 Q53.75 135.85 53.6 139.6 L53.5 143.55 52.85 154.15 52.05 164.7 46.35 162.0 46.7 154.95 Q47.15 146.95 47.0 140.9 L46.9 137.35 Q46.1 133.25 45.75 129.65 44.7 115.65 46.75 97.45 L46.8 97.3 47.95 87.4 Q49.0 79.25 47.9 69.95 47.05 62.6 44.5 52.55 L43.4 47.6 Q43.3 44.0 43.7 36.8" fill="#e29d61" fill-rule="evenodd" stroke="none"/>
      <path d="M0.2 90.0 L0.35 79.35 Q1.35 66.7 5.8 55.15 L4.8 105.7 Q5.05 109.2 4.95 114.4 0.8 102.55 0.2 90.0" fill="#e29d61" fill-rule="evenodd" stroke="none"/>
      <path d="M26.65 39.5 L26.85 34.9 Q25.35 29.95 24.5 25.95 L25.4 25.05 Q26.1 28.45 26.95 31.25 L27.5 35.95 Q28.1 43.7 26.35 50.1 24.85 56.55 24.45 59.65 23.7 64.95 24.3 69.05 L24.45 73.2 24.8 106.25 Q25.0 112.65 24.2 125.55 23.35 138.3 23.6 144.8 L21.55 142.5 Q21.25 139.4 21.45 136.4 21.55 134.25 22.8 120.45 23.65 110.8 23.3 104.35 L23.45 72.1 Q22.9 65.6 24.4 55.65 L26.65 39.5" fill="#e29d61" fill-rule="evenodd" stroke="none"/>
      <path d="M36.3 36.95 L36.2 28.0 35.0 22.85 33.45 18.0 35.55 16.4 37.4 28.45 Q38.2 35.25 37.8 40.6 L37.55 45.4 36.6 57.35 Q36.1 64.4 36.05 69.2 L36.1 73.45 36.4 93.7 36.9 114.0 37.0 118.45 Q37.25 126.5 36.9 133.55 L36.2 148.85 36.05 155.65 32.3 152.8 32.4 142.45 Q33.25 132.0 33.25 111.55 L33.15 68.4 Q33.2 63.15 34.3 54.95 L36.0 41.45 36.3 36.95" fill="#e29d61" fill-rule="evenodd" stroke="none"/>
      <path d="M32.6 44.7 L32.8 39.55 Q32.4 32.5 30.7 20.2 L32.15 19.0 Q33.1 24.9 34.7 29.95 35.35 32.1 35.3 35.1 L35.15 40.25 34.55 45.25 32.45 57.9 Q31.3 65.35 31.5 70.65 L31.5 75.95 Q32.1 82.05 32.0 90.25 L31.7 104.35 31.65 109.05 31.85 126.6 Q32.05 137.3 31.0 144.1 L30.9 151.65 28.85 149.9 28.75 147.0 28.05 142.05 Q27.7 139.1 28.35 136.9 29.7 130.55 30.05 123.15 30.3 117.95 30.1 109.3 L29.85 105.15 29.8 94.55 Q29.85 88.0 29.45 84.0 L29.2 68.8 29.15 64.35 Q29.2 61.7 29.8 59.9 32.0 52.4 32.6 44.7" fill="#e29d61" fill-rule="evenodd" stroke="none"/>
      <path d="M19.65 37.25 L19.55 32.9 19.4 31.65 23.1 27.45 23.65 31.3 23.9 36.5 Q24.05 42.7 23.05 54.6 22.1 66.8 22.15 72.65 L22.35 103.45 22.85 115.7 Q23.0 122.85 21.45 127.1 20.4 130.5 20.4 134.55 20.4 137.6 21.05 141.95 L16.4 136.1 Q16.5 133.85 17.05 132.0 18.45 126.75 18.1 117.75 17.7 106.7 18.05 103.05 L18.0 97.6 Q17.9 89.75 18.15 77.95 L18.4 67.6 Q18.45 62.7 19.05 52.4 19.7 42.5 19.65 37.25" fill="#e29d61" fill-rule="evenodd" stroke="none"/>
      <path d="M39.55 38.7 L39.35 33.45 Q39.3 29.6 38.45 24.45 L36.85 15.5 41.95 12.2 Q42.8 18.25 42.85 26.7 L42.75 41.2 Q42.15 47.85 43.05 52.55 L43.2 53.05 Q43.55 57.25 45.0 64.85 L46.95 76.6 Q47.8 84.2 46.5 90.35 44.8 101.5 44.4 114.1 44.1 123.8 44.55 137.6 L44.55 161.0 Q41.0 159.05 38.2 157.15 L38.35 143.5 38.3 132.85 38.4 119.65 38.75 69.8 38.7 64.65 Q39.75 49.9 39.55 38.7" fill="#e29d61" fill-rule="evenodd" stroke="none"/>
      <path d="M29.3 37.55 Q29.4 34.85 29.1 32.55 27.7 28.0 26.75 23.75 L29.3 21.4 31.25 29.95 Q31.9 32.15 31.85 35.1 L31.65 40.15 31.2 45.15 29.5 57.7 Q28.45 65.3 28.25 70.25 L28.45 85.9 Q28.4 88.85 28.7 94.5 L28.95 103.2 28.75 106.75 Q28.85 127.5 27.85 138.85 27.05 142.8 28.15 146.15 L28.4 149.5 24.45 145.65 23.75 140.3 Q23.45 137.3 23.9 134.95 25.3 129.65 25.2 121.0 25.05 110.2 25.4 107.05 L25.4 70.45 Q25.65 69.1 25.15 66.3 24.65 63.6 24.9 62.35 27.05 54.15 27.85 49.95 29.25 43.05 29.3 37.55" fill="#e29d61" fill-rule="evenodd" stroke="none"/>
      <path d="M7.5 73.0 L7.65 63.1 Q7.5 59.1 7.6 50.8 10.0 45.65 12.6 41.25 L12.45 53.8 12.45 66.5 12.2 76.75 11.7 98.1 11.7 102.35 Q11.25 106.55 11.4 114.0 11.55 122.0 11.3 125.55 L11.1 127.8 Q8.9 124.0 7.0 119.65 L6.8 111.9 Q6.65 107.1 6.85 103.95 L6.9 100.1 7.5 73.0" fill="#e29d61" fill-rule="evenodd" stroke="none"/>
      <path d="M13.85 39.35 L17.5 34.15 Q17.8 45.75 17.1 68.95 L17.0 73.7 16.65 97.3 16.65 102.0 16.55 118.05 Q16.55 127.55 15.1 133.95 L15.05 134.2 12.15 129.7 12.3 128.3 Q13.15 115.9 13.0 103.6 L12.95 99.15 Q12.95 88.1 13.25 77.0 L13.55 66.35 Q14.1 52.85 13.85 39.35" fill="#e29d61" fill-rule="evenodd" stroke="none"/>
      <path d="M62.7 23.1 Q63.3 19.7 62.15 15.35 L59.8 8.1 Q59.3 5.9 59.15 4.3 L61.7 3.5 61.7 5.45 62.2 8.85 Q64.15 18.8 64.15 30.45 L63.05 70.85 61.95 47.1 Q61.4 33.0 62.7 23.1" fill="#e29d61" fill-rule="evenodd" stroke="none"/>
      <path d="M54.85 24.1 Q55.7 20.45 53.95 15.7 51.6 10.35 50.7 7.6 54.1 6.05 58.05 4.7 L58.05 5.45 Q57.9 8.9 60.1 16.75 62.0 23.75 61.2 28.0 L59.5 34.65 Q58.6 38.5 59.25 41.25 61.65 56.8 61.15 78.25 60.85 90.45 59.75 114.85 59.75 118.5 60.7 125.9 61.7 133.25 61.65 137.05 L61.6 142.1 Q61.2 147.45 61.1 155.0 L60.9 167.95 Q57.25 166.85 54.1 165.55 L55.0 153.05 55.65 140.55 55.65 136.25 Q55.55 133.75 53.85 123.15 52.5 115.05 53.35 109.95 55.95 94.1 55.25 78.2 L55.3 76.6 Q55.3 72.35 54.5 67.55 53.3 56.85 50.9 45.35 L50.4 39.8 Q50.2 38.2 50.4 35.5 L50.8 34.25 52.95 29.25 Q54.35 26.1 54.85 24.1" fill="#e29d61" fill-rule="evenodd" stroke="none"/>
      <path d="M63.25 7.25 Q62.9 5.9 63.25 3.4 L63.35 3.05 66.8 2.2 Q66.4 4.9 66.55 8.05 L66.85 12.0 Q67.6 15.25 67.6 22.1 L66.75 81.05 Q66.15 117.1 66.9 140.05 L67.1 150.15 Q66.85 153.95 67.15 159.9 L67.6 169.7 64.65 169.05 64.65 136.0 64.15 126.65 Q63.65 120.5 63.65 117.3 63.45 106.05 64.25 75.1 64.95 48.45 64.15 32.9 64.15 32.05 64.7 30.45 L65.6 28.0 Q65.9 23.8 64.95 17.7 L63.25 7.25" fill="#e29d61" fill-rule="evenodd" stroke="none"/>
      <path d="M0.1 85.9 L0.35 79.35 0.2 90.0 0.1 85.9" fill="#b9692f" fill-rule="evenodd" stroke="none"/>
      <path d="M5.8 55.15 L6.85 52.5 6.6 69.8 5.85 101.5 5.75 106.05 Q6.0 110.05 5.7 116.4 L4.95 114.4 Q5.05 109.2 4.8 105.7 L5.8 55.15" fill="#b9692f" fill-rule="evenodd" stroke="none"/>
      <path d="M7.65 63.1 L7.5 73.0 6.9 100.1 6.85 103.95 Q6.65 107.1 6.8 111.9 L7.0 119.65 6.0 117.2 5.85 105.75 6.85 52.5 7.6 50.8 Q7.5 59.1 7.65 63.1" fill="#b9692f" fill-rule="evenodd" stroke="none"/>
      <path d="M12.6 41.25 L13.85 39.35 Q14.1 52.85 13.55 66.35 L13.25 77.0 Q12.95 88.1 12.95 99.15 L13.0 103.6 Q13.15 115.9 12.3 128.3 L12.15 129.7 11.1 127.8 11.3 125.55 Q11.55 122.0 11.4 114.0 11.25 106.55 11.7 102.35 L11.7 98.1 12.2 76.75 12.45 66.5 12.45 53.8 12.6 41.25" fill="#b9692f" fill-rule="evenodd" stroke="none"/>
      <path d="M17.5 34.15 L19.4 31.65 19.55 32.9 19.65 37.25 Q19.7 42.5 19.05 52.4 18.45 62.7 18.4 67.6 L18.15 77.95 Q17.9 89.75 18.0 97.6 L18.05 103.05 Q17.7 106.7 18.1 117.75 18.45 126.75 17.05 132.0 16.5 133.85 16.4 136.1 L15.05 134.2 15.1 133.95 Q16.55 127.55 16.55 118.05 L16.65 102.0 16.65 97.3 17.0 73.7 17.1 68.95 Q17.8 45.75 17.5 34.15" fill="#b9692f" fill-rule="evenodd" stroke="none"/>
      <path d="M23.9 36.5 L23.65 31.3 23.1 27.45 24.5 25.95 Q25.35 29.95 26.85 34.9 L26.65 39.5 24.4 55.65 Q22.9 65.6 23.45 72.1 L23.3 104.35 Q23.65 110.8 22.8 120.45 21.55 134.25 21.45 136.4 21.25 139.4 21.55 142.5 L21.05 141.95 Q20.4 137.6 20.4 134.55 20.4 130.5 21.45 127.1 23.0 122.85 22.85 115.7 L22.35 103.45 22.15 72.65 Q22.1 66.8 23.05 54.6 24.05 42.7 23.9 36.5" fill="#b9692f" fill-rule="evenodd" stroke="none"/>
      <path d="M27.5 35.95 L26.95 31.25 Q26.1 28.45 25.4 25.05 L26.75 23.75 Q27.7 28.0 29.1 32.55 29.4 34.85 29.3 37.55 29.25 43.05 27.85 49.95 27.05 54.15 24.9 62.35 24.65 63.6 25.15 66.3 25.65 69.1 25.4 70.45 L25.4 107.05 Q25.05 110.2 25.2 121.0 25.3 129.65 23.9 134.95 23.45 137.3 23.75 140.3 L24.45 145.65 23.6 144.8 Q23.35 138.3 24.2 125.55 25.0 112.65 24.8 106.25 L24.45 73.2 24.3 69.05 Q23.7 64.95 24.45 59.65 24.85 56.55 26.35 50.1 28.1 43.7 27.5 35.95" fill="#b9692f" fill-rule="evenodd" stroke="none"/>
      <path d="M31.65 40.15 L31.85 35.1 Q31.9 32.15 31.25 29.95 L29.3 21.4 30.7 20.2 Q32.4 32.5 32.8 39.55 L32.6 44.7 Q32.0 52.4 29.8 59.9 29.2 61.7 29.15 64.35 L29.2 68.8 29.45 84.0 Q29.85 88.0 29.8 94.55 L29.85 105.15 30.1 109.3 Q30.3 117.95 30.05 123.15 29.7 130.55 28.35 136.9 27.7 139.1 28.05 142.05 L28.75 147.0 28.85 149.9 28.4 149.5 28.15 146.15 Q27.05 142.8 27.85 138.85 28.85 127.5 28.75 106.75 L28.95 103.2 28.7 94.5 Q28.4 88.85 28.45 85.9 L28.25 70.25 Q28.45 65.3 29.5 57.7 L31.2 45.15 31.65 40.15" fill="#b9692f" fill-rule="evenodd" stroke="none"/>
      <path d="M33.45 18.0 L35.0 22.85 36.2 28.0 36.3 36.95 36.0 41.45 34.3 54.95 Q33.2 63.15 33.15 68.4 L33.25 111.55 Q33.25 132.0 32.4 142.45 L32.3 152.8 30.9 151.65 31.0 144.1 Q32.05 137.3 31.85 126.6 L31.65 109.05 31.7 104.35 32.0 90.25 Q32.1 82.05 31.5 75.95 L31.5 70.65 Q31.3 65.35 32.45 57.9 L34.55 45.25 35.15 40.25 35.3 35.1 Q35.35 32.1 34.7 29.95 33.1 24.9 32.15 19.0 L33.45 18.0" fill="#b9692f" fill-rule="evenodd" stroke="none"/>
      <path d="M39.2 38.9 L39.25 33.4 Q39.25 30.15 38.65 28.0 37.5 22.55 36.8 15.55 L36.85 15.5 38.45 24.45 Q39.3 29.6 39.35 33.45 L39.55 38.7 Q39.75 49.9 38.7 64.65 L38.75 69.8 38.4 119.65 38.3 132.85 38.35 143.5 38.2 157.15 37.05 156.35 37.45 149.4 37.75 120.25 Q37.7 114.75 38.1 95.0 38.35 79.25 38.0 69.75 L37.95 64.95 Q38.0 60.7 38.4 54.1 L39.05 43.25 39.2 38.9" fill="#b9692f" fill-rule="evenodd" stroke="none"/>
      <path d="M37.8 40.6 Q38.2 35.25 37.4 28.45 L35.55 16.4 36.2 15.95 38.4 28.4 Q39.3 35.45 38.6 41.1 L38.15 45.7 37.05 57.25 Q36.6 63.7 37.0 68.65 L37.2 120.95 37.2 131.45 36.85 156.25 36.05 155.65 36.2 148.85 36.9 133.55 Q37.25 126.5 37.0 118.45 L36.9 114.0 36.4 93.7 36.1 73.45 36.05 69.2 Q36.1 64.4 36.6 57.35 L37.55 45.4 37.8 40.6" fill="#b9692f" fill-rule="evenodd" stroke="none"/>
      <path d="M38.6 41.1 Q39.3 35.45 38.4 28.4 L36.2 15.95 36.8 15.55 Q37.5 22.55 38.65 28.0 39.25 30.15 39.25 33.4 L39.2 38.9 39.05 43.25 38.4 54.1 Q38.0 60.7 37.95 64.95 L38.0 69.75 Q38.35 79.25 38.1 95.0 37.7 114.75 37.75 120.25 L37.45 149.4 37.1 152.8 37.2 131.45 37.2 120.95 37.0 68.65 Q36.6 63.7 37.05 57.25 L38.15 45.7 38.6 41.1" fill="#b9692f" fill-rule="evenodd" stroke="none"/>
      <path d="M42.75 41.2 L42.85 26.7 Q42.8 18.25 41.95 12.2 L42.45 11.9 44.05 22.1 Q44.4 26.15 43.85 31.7 L42.75 41.2" fill="#b9692f" fill-rule="evenodd" stroke="none"/>
      <path d="M45.8 108.15 Q45.0 119.9 45.75 129.65 45.0 122.35 45.4 113.55 L45.8 108.15" fill="#b9692f" fill-rule="evenodd" stroke="none"/>
      <path d="M43.7 36.8 Q43.3 44.0 43.4 47.6 42.7 43.4 43.05 40.25 L43.7 36.8" fill="#b9692f" fill-rule="evenodd" stroke="none"/>
      <path d="M46.5 90.35 Q47.8 84.2 46.95 76.6 L45.0 64.85 Q43.55 57.25 43.2 53.05 L44.95 60.35 47.15 73.5 47.45 80.0 Q47.65 86.95 45.55 108.05 43.8 125.7 45.4 136.55 L45.4 140.2 45.05 161.35 44.55 161.0 44.55 137.6 Q44.1 123.8 44.4 114.1 44.8 101.5 46.5 90.35" fill="#b9692f" fill-rule="evenodd" stroke="none"/>
      <path d="M43.7 36.8 L44.4 24.1 Q44.55 16.9 43.5 11.3 L43.65 11.2 Q45.35 16.9 45.2 23.9 45.05 29.35 43.7 36.8" fill="#b9692f" fill-rule="evenodd" stroke="none"/>
      <path d="M47.8 88.9 Q48.35 82.0 47.15 73.5 46.65 67.7 44.95 60.35 44.0 54.65 43.55 50.6 L43.4 47.6 44.5 52.55 Q47.05 62.6 47.9 69.95 49.0 79.25 47.95 87.4 L47.8 88.9" fill="#b9692f" fill-rule="evenodd" stroke="none"/>
      <path d="M43.05 51.55 L43.2 53.05 43.05 52.55 Q42.15 47.85 42.75 41.2 42.75 47.45 43.05 51.55" fill="#b9692f" fill-rule="evenodd" stroke="none"/>
      <path d="M46.45 140.6 L46.35 136.1 45.75 129.65 Q46.1 133.25 46.9 137.35 L47.0 140.9 Q47.15 146.95 46.7 154.95 L46.35 162.0 45.9 161.75 46.0 158.75 46.45 140.6" fill="#b9692f" fill-rule="evenodd" stroke="none"/>
      <path d="M42.75 41.2 L43.85 31.7 Q44.4 26.15 44.05 22.1 L42.45 11.9 43.5 11.3 Q44.55 16.9 44.4 24.1 L43.7 36.8 43.05 40.25 Q42.7 43.4 43.4 47.6 L43.55 50.6 Q44.0 54.65 44.95 60.35 L43.2 53.05 43.05 51.55 Q42.75 47.45 42.75 41.2" fill="#b9692f" fill-rule="evenodd" stroke="none"/>
      <path d="M47.45 80.0 L47.15 73.5 Q48.35 82.0 47.8 88.9 L46.8 97.3 46.75 97.45 Q45.7 107.1 45.4 113.55 45.0 122.35 45.75 129.65 L46.35 136.1 46.45 140.6 46.0 158.75 45.9 161.75 45.05 161.35 45.4 140.2 45.4 136.55 Q43.8 125.7 45.55 108.05 47.65 86.95 47.45 80.0" fill="#b9692f" fill-rule="evenodd" stroke="none"/>
      <path d="M51.0 10.15 L52.3 14.85 Q52.95 19.15 51.95 25.45 L50.4 35.4 50.05 36.8 Q48.9 41.2 49.45 44.2 50.05 48.45 51.7 55.15 L52.3 65.55 50.45 55.45 48.45 45.2 Q47.5 40.2 49.85 26.95 51.95 15.15 49.1 8.35 L50.05 7.9 50.25 8.55 51.0 10.15" fill="#b9692f" fill-rule="evenodd" stroke="none"/>
      <path d="M52.35 117.8 Q52.2 120.3 52.6 123.15 53.0 129.25 54.45 135.2 L54.55 136.65 54.4 141.6 53.7 153.25 52.75 165.05 52.05 164.7 52.85 154.15 53.5 143.55 53.6 139.6 Q53.75 135.85 53.2 131.0 L51.9 122.25 Q51.05 113.3 52.35 106.05 L52.95 103.35 52.85 106.1 Q52.35 112.7 52.4 117.6 L52.35 117.8" fill="#b9692f" fill-rule="evenodd" stroke="none"/>
      <path d="M55.3 76.6 L55.25 78.2 54.5 67.55 Q55.3 72.35 55.3 76.6" fill="#b9692f" fill-rule="evenodd" stroke="none"/>
      <path d="M51.0 10.15 L50.55 8.5 50.45 7.75 50.7 7.6 Q51.6 10.35 53.95 15.7 55.7 20.45 54.85 24.1 54.35 26.1 52.95 29.25 L50.8 34.25 52.15 30.2 53.35 26.05 Q54.05 21.45 52.3 14.85 51.9 12.25 51.0 10.15" fill="#b9692f" fill-rule="evenodd" stroke="none"/>
      <path d="M54.4 90.45 L55.25 78.2 Q55.95 94.1 53.35 109.95 52.5 115.05 53.85 123.15 55.55 133.75 55.65 136.25 L55.65 140.55 55.0 153.05 54.1 165.55 53.35 165.25 54.25 153.05 Q54.7 145.9 54.75 140.85 L54.6 135.8 54.45 135.2 Q54.3 132.85 53.6 129.1 L52.6 123.15 52.4 117.6 52.85 106.1 53.25 101.6 Q54.15 96.35 54.4 90.45" fill="#b9692f" fill-rule="evenodd" stroke="none"/>
      <path d="M54.5 67.55 L51.7 55.15 50.9 45.35 Q53.3 56.85 54.5 67.55" fill="#b9692f" fill-rule="evenodd" stroke="none"/>
      <path d="M49.9 40.75 Q49.6 38.75 50.05 36.8 L50.4 35.5 Q50.2 38.2 50.4 39.8 L50.9 45.35 49.9 40.75" fill="#b9692f" fill-rule="evenodd" stroke="none"/>
      <path d="M52.3 65.55 Q54.7 79.85 54.4 90.45 L52.95 103.35 Q53.4 85.1 52.3 65.55" fill="#b9692f" fill-rule="evenodd" stroke="none"/>
      <path d="M54.6 135.8 L54.75 140.85 Q54.7 145.9 54.25 153.05 L53.35 165.25 52.75 165.05 53.7 153.25 54.4 141.6 54.55 136.65 54.45 135.2 54.6 135.8" fill="#b9692f" fill-rule="evenodd" stroke="none"/>
      <path d="M53.35 26.05 L52.15 30.2 50.8 34.25 50.4 35.4 51.95 25.45 Q52.95 19.15 52.3 14.85 54.05 21.45 53.35 26.05" fill="#b9692f" fill-rule="evenodd" stroke="none"/>
      <path d="M51.0 10.15 L50.25 8.55 50.05 7.9 50.45 7.75 50.55 8.5 51.0 10.15" fill="#b9692f" fill-rule="evenodd" stroke="none"/>
      <path d="M54.4 90.45 Q54.7 79.85 52.3 65.55 L51.7 55.15 54.5 67.55 55.25 78.2 54.4 90.45" fill="#b9692f" fill-rule="evenodd" stroke="none"/>
      <path d="M62.15 15.35 Q63.3 19.7 62.7 23.1 61.4 33.0 61.95 47.1 L63.05 70.85 62.8 83.2 62.2 89.85 Q60.65 100.55 61.1 114.8 L62.2 139.5 62.15 144.7 61.4 168.1 60.9 167.95 61.1 155.0 Q61.2 147.45 61.6 142.1 L61.65 137.05 Q61.7 133.25 60.7 125.9 59.75 118.5 59.75 114.85 60.85 90.45 61.15 78.25 61.65 56.8 59.25 41.25 58.6 38.5 59.5 34.65 L61.2 28.0 Q62.0 23.75 60.1 16.75 57.9 8.9 58.05 5.45 L58.05 4.7 59.15 4.3 Q59.3 5.9 59.8 8.1 L62.15 15.35" fill="#b9692f" fill-rule="evenodd" stroke="none"/>
      <path d="M61.7 5.45 L61.7 3.5 63.35 3.05 63.25 3.4 Q62.9 5.9 63.25 7.25 L64.95 17.7 Q65.9 23.8 65.6 28.0 L64.7 30.45 Q64.15 32.05 64.15 32.9 64.95 48.45 64.25 75.1 63.45 106.05 63.65 117.3 63.65 120.5 64.15 126.65 L64.65 136.0 64.65 169.05 63.6 168.75 63.6 143.45 63.5 139.55 Q62.3 114.5 62.8 83.2 63.2 77.5 63.05 70.85 L64.15 30.45 Q64.15 18.8 62.2 8.85 L61.7 5.45" fill="#b9692f" fill-rule="evenodd" stroke="none"/>
      <path d="M66.55 8.05 Q66.4 4.9 66.8 2.2 L67.95 1.9 67.65 4.15 Q67.5 6.1 67.6 8.5 L67.95 12.85 Q68.75 33.0 67.6 75.15 66.55 116.05 67.55 137.6 L68.3 152.85 68.7 161.5 68.85 170.0 67.6 169.7 67.15 159.9 Q66.85 153.95 67.1 150.15 L66.9 140.05 Q66.15 117.1 66.75 81.05 L67.6 22.1 Q67.6 15.25 66.85 12.0 L66.55 8.05" fill="#b9692f" fill-rule="evenodd" stroke="none"/>
      <path d="M71.05 139.3 L71.0 137.2 70.8 100.25 Q70.75 78.65 71.8 63.1 71.05 110.05 71.05 138.3 L71.05 139.3 M71.1 143.25 L71.45 150.15 72.15 160.45 72.65 170.7 72.45 170.65 72.45 170.35 Q71.55 161.4 71.2 149.4 L71.1 143.25" fill="#b9692f" fill-rule="evenodd" stroke="none"/>
      <path d="M70.95 46.15 Q70.85 22.9 71.05 14.3 L71.05 13.5 71.1 14.5 Q71.6 36.85 70.95 71.35 L70.35 98.95 70.55 78.05 Q71.1 66.4 70.95 46.15" fill="#b9692f" fill-rule="evenodd" stroke="none"/>
      <path d="M71.05 8.1 L71.05 1.3 71.25 1.3 71.25 6.0 71.05 8.1" fill="#b9692f" fill-rule="evenodd" stroke="none"/>
      <path d="M72.0 14.55 L72.05 1.15 72.25 1.1 72.25 10.8 72.45 16.45 72.25 33.05 Q71.8 21.5 72.0 14.55" fill="#b9692f" fill-rule="evenodd" stroke="none"/>
      <path d="M72.25 33.05 L72.6 46.45 Q72.6 53.9 72.0 59.9 L71.8 63.1 72.25 33.05" fill="#b9692f" fill-rule="evenodd" stroke="none"/>
      <path d="M71.25 6.0 L71.25 1.3 72.05 1.15 72.0 14.55 Q71.8 21.5 72.25 33.05 L71.8 63.1 Q70.75 78.65 70.8 100.25 L71.0 137.2 71.2 149.4 Q71.55 161.4 72.45 170.35 L72.45 170.65 71.75 170.5 70.3 148.95 70.0 128.3 70.95 71.35 Q71.6 36.85 71.1 14.5 L71.05 8.1 71.25 6.0" fill="#b9692f" fill-rule="evenodd" stroke="none"/>
      <path d="M77.9 0.4 L77.95 18.25 Q78.5 43.35 77.9 77.85 L76.6 137.4 76.4 142.4 76.55 147.4 76.65 152.05 76.95 158.2 78.0 171.35 76.85 171.2 76.8 171.0 76.4 161.75 75.8 152.55 75.4 141.85 Q75.25 139.15 75.35 135.8 L76.7 76.6 Q77.2 43.9 76.85 17.35 L76.85 0.5 77.9 0.4" fill="#b9692f" fill-rule="evenodd" stroke="none"/>
      <path d="M81.65 0.1 L81.7 21.7 Q82.35 43.8 81.7 80.0 80.9 125.15 80.95 138.1 L81.4 152.15 Q81.65 162.55 81.5 171.6 L80.4 171.5 80.5 166.2 Q80.7 160.75 80.05 152.3 L79.7 147.65 79.3 143.1 79.2 138.6 Q80.3 112.15 80.65 79.75 L80.8 20.9 80.75 0.15 81.65 0.1" fill="#b9692f" fill-rule="evenodd" stroke="none"/>
      <path d="M84.2 0.05 L84.2 24.05 Q84.65 41.25 83.85 81.2 83.15 117.8 84.1 138.2 L84.05 153.2 83.6 171.65 82.8 171.65 82.8 150.55 82.95 140.6 82.9 135.6 Q81.95 125.25 82.75 109.25 L83.8 82.95 Q83.55 73.4 83.55 54.55 L83.3 26.25 83.25 0.05 84.2 0.05" fill="#b9692f" fill-rule="evenodd" stroke="none"/>
      <path d="M92.8 0.3 L92.8 45.95 92.55 70.2 92.05 87.15 Q92.05 95.15 92.45 104.05 L92.65 109.65 92.45 126.7 Q92.45 136.8 93.0 144.0 L93.15 148.9 93.7 158.75 94.05 162.15 Q94.5 166.25 95.6 171.15 L93.65 171.35 Q92.55 165.5 92.15 162.0 L91.75 158.75 91.85 149.4 91.8 144.65 91.2 128.05 Q90.8 118.0 91.05 111.45 L91.1 106.65 90.95 101.3 Q90.8 95.6 91.0 90.65 L91.05 86.8 91.4 67.65 91.5 62.65 Q91.7 58.05 91.55 52.75 L91.55 0.2 92.8 0.3" fill="#b9692f" fill-rule="evenodd" stroke="none"/>
      <path d="M95.55 43.2 L95.45 38.6 Q95.0 22.2 95.0 0.45 L95.35 0.5 95.55 5.9 96.75 36.85 96.85 41.3 Q97.2 60.85 96.35 73.95 L95.75 83.6 95.6 87.75 Q95.0 92.65 95.8 98.3 L96.4 101.7 97.65 106.85 Q99.9 116.2 99.9 127.9 99.9 135.75 98.65 149.2 L98.05 162.05 Q98.3 166.7 98.85 170.75 L97.2 170.95 Q96.5 166.55 96.35 162.6 L96.35 159.4 97.55 147.85 Q98.8 136.35 98.65 127.65 98.5 116.8 96.25 107.9 L94.7 99.15 Q94.05 93.25 94.7 87.75 L95.65 74.9 Q96.55 68.1 96.3 59.15 L95.55 43.2" fill="#b9692f" fill-rule="evenodd" stroke="none"/>
      <path d="M98.75 0.95 L99.15 14.75 99.55 36.8 Q100.2 59.45 99.3 78.45 L98.9 83.25 Q97.1 89.8 97.75 96.85 98.0 99.25 98.4 101.2 L100.2 106.5 Q104.25 115.9 103.8 129.1 103.55 136.5 101.0 152.0 L99.8 159.1 100.0 163.6 Q100.2 166.85 100.85 170.4 L99.6 170.6 Q98.85 167.35 98.55 164.1 L98.35 160.2 98.35 156.0 Q98.45 153.25 99.0 151.6 102.35 141.5 101.9 129.1 101.55 119.4 98.65 106.7 L96.95 97.6 Q96.25 90.75 97.1 84.45 L97.9 75.7 Q98.6 60.55 98.4 36.15 L98.15 0.85 98.75 0.95" fill="#b9692f" fill-rule="evenodd" stroke="none"/>
      <path d="M100.95 37.7 L100.7 21.1 Q100.3 11.85 100.2 1.2 L101.9 1.5 Q101.75 10.25 101.85 21.2 L101.9 32.4 102.4 56.6 Q102.75 71.15 101.1 80.35 L100.8 84.95 100.45 88.35 100.3 91.75 100.55 97.2 Q100.8 100.35 101.45 102.6 L103.25 107.6 104.6 112.2 Q106.65 122.0 105.75 135.45 105.25 143.3 103.4 159.0 L103.25 163.4 Q103.2 165.95 103.75 167.8 L103.9 169.8 101.85 170.2 101.4 167.9 Q100.1 163.8 100.95 159.0 103.4 143.75 104.05 136.2 105.05 123.55 103.5 113.6 L102.25 108.8 100.6 104.05 99.1 100.05 99.1 95.6 99.85 82.5 100.15 77.3 Q100.95 68.8 101.05 57.45 L100.95 37.7" fill="#b9692f" fill-rule="evenodd" stroke="none"/>
      <path d="M103.45 26.05 Q102.85 15.25 103.1 1.7 L105.2 2.2 104.9 30.15 104.9 35.2 105.5 57.15 Q105.9 70.3 105.3 78.8 L105.0 83.6 Q105.15 85.85 103.6 92.0 102.3 97.15 103.4 100.15 L104.9 104.9 106.2 109.55 Q108.9 121.7 108.3 137.65 108.05 144.6 105.95 166.05 L105.85 169.35 104.0 169.8 103.95 168.1 Q105.85 149.1 106.45 139.6 107.45 123.0 105.15 110.9 L103.0 100.9 Q101.95 94.8 101.65 90.25 101.75 87.6 102.1 85.0 L102.55 79.85 Q104.35 69.95 104.25 56.15 L103.55 31.9 103.45 26.05" fill="#b9692f" fill-rule="evenodd" stroke="none"/>
      <path d="M111.0 3.7 L110.6 30.15 Q111.3 49.65 109.55 76.95 L109.2 82.2 Q108.8 89.7 109.35 98.5 L109.6 101.75 Q111.35 115.95 111.0 134.25 110.8 144.4 109.4 166.95 L109.4 168.45 108.7 168.65 108.75 167.45 Q108.65 162.6 109.7 135.5 110.45 116.0 108.55 103.7 L108.25 100.1 Q107.8 93.6 107.8 89.35 107.55 87.35 107.9 84.2 L108.45 78.95 108.8 74.05 Q109.3 64.95 109.35 52.05 L109.4 30.15 109.8 3.4 111.0 3.7" fill="#b9692f" fill-rule="evenodd" stroke="none"/>
      <path d="M113.8 39.85 Q113.75 35.45 114.15 23.35 114.5 12.95 114.25 7.0 L114.3 4.8 115.25 5.15 114.9 44.45 114.8 47.8 Q114.65 55.55 114.75 65.15 L114.5 75.55 Q114.0 84.1 113.85 93.9 L113.75 97.6 Q113.05 108.5 113.5 125.1 113.4 154.65 112.9 167.35 L111.95 167.7 111.95 167.35 112.2 163.95 Q113.4 150.85 112.95 131.55 112.2 110.1 112.15 99.4 L112.1 96.1 Q112.0 86.8 112.6 79.75 L112.85 75.2 113.45 61.65 113.55 56.2 113.75 45.3 113.8 39.85" fill="#b9692f" fill-rule="evenodd" stroke="none"/>
      <path d="M116.2 46.4 Q115.95 38.35 116.2 26.0 L116.6 5.65 117.6 6.05 117.15 27.65 Q116.9 40.6 117.25 49.25 L117.3 53.95 Q117.3 66.95 116.95 73.5 L116.4 81.4 Q116.0 96.65 115.75 121.95 L115.2 162.4 114.85 166.7 113.05 167.3 113.35 164.75 Q114.05 156.1 113.95 144.9 L113.5 125.1 Q113.6 96.85 114.6 80.15 L115.25 70.9 Q116.0 61.75 116.15 50.45 L116.2 46.4" fill="#b9692f" fill-rule="evenodd" stroke="none"/>
      <path d="M113.5 125.1 L113.95 144.9 Q114.05 156.1 113.35 164.75 L113.05 167.3 112.9 167.35 Q113.4 154.65 113.5 125.1" fill="#b9692f" fill-rule="evenodd" stroke="none"/>
      <path d="M122.15 29.5 L122.55 8.2 124.1 8.95 123.8 31.25 123.55 53.4 123.4 76.25 123.45 82.35 Q122.75 94.95 120.75 119.75 119.35 141.55 120.6 157.0 L121.3 164.1 119.3 165.0 Q119.8 161.85 119.6 159.45 117.4 142.8 118.55 121.3 L121.55 83.4 121.75 78.9 121.75 74.4 121.85 69.65 122.0 55.5 122.05 50.9 Q121.85 42.5 122.15 29.5" fill="#b9692f" fill-rule="evenodd" stroke="none"/>
      <path d="M124.75 30.45 L125.1 9.45 125.75 9.8 125.55 32.85 Q125.5 45.95 125.95 55.85 L126.05 60.6 126.1 72.55 126.05 76.55 125.95 82.5 125.45 88.4 Q118.35 126.45 123.05 159.95 L123.4 163.15 121.6 163.95 121.55 161.9 Q120.9 130.95 121.0 125.15 121.3 103.95 124.4 88.35 L124.65 82.4 124.45 76.4 124.55 51.55 Q124.5 43.6 124.75 30.45" fill="#b9692f" fill-rule="evenodd" stroke="none"/>
      <path d="M126.8 33.4 L126.4 10.15 127.35 10.65 127.7 35.05 128.05 59.4 127.75 72.3 Q127.95 77.75 127.55 84.1 L127.25 88.0 124.5 111.35 Q122.85 125.35 122.9 135.1 121.7 108.2 126.9 88.2 L127.05 84.6 127.05 73.55 127.2 56.6 126.8 33.4" fill="#b9692f" fill-rule="evenodd" stroke="none"/>
      <path d="M123.9 150.6 Q122.9 143.15 122.9 135.1 L123.9 150.6" fill="#b9692f" fill-rule="evenodd" stroke="none"/>
      <path d="M123.9 150.6 L125.0 157.0 125.85 161.85 125.0 162.3 123.9 150.6" fill="#b9692f" fill-rule="evenodd" stroke="none"/>
      <path d="M134.2 21.45 L134.8 28.5 136.5 40.9 Q134.6 32.15 134.2 21.45" fill="#b9692f" fill-rule="evenodd" stroke="none"/>
      <path d="M135.9 82.85 L135.8 89.9 135.3 94.25 134.25 100.25 135.2 92.7 135.9 82.85" fill="#b9692f" fill-rule="evenodd" stroke="none"/>
      <path d="M134.2 69.8 L135.35 60.75 136.85 54.25 136.55 57.65 134.55 74.45 Q135.0 80.2 134.6 86.1 L134.3 89.9 134.15 90.75 134.15 87.6 133.85 80.85 Q133.7 76.85 133.9 73.95 L134.2 69.8" fill="#b9692f" fill-rule="evenodd" stroke="none"/>
      <path d="M133.1 108.05 L134.25 100.25 133.9 103.65 133.6 109.1 Q133.25 119.75 133.9 132.6 134.35 141.5 135.55 155.9 L134.9 156.35 Q133.9 147.05 132.35 139.35 131.05 132.2 131.55 123.5 131.75 119.05 133.1 108.05" fill="#b9692f" fill-rule="evenodd" stroke="none"/>
      <path d="M136.5 40.9 L137.25 44.2 Q138.3 48.35 136.85 54.25 137.25 48.25 136.5 40.9" fill="#b9692f" fill-rule="evenodd" stroke="none"/>
      <path d="M137.15 33.6 L135.55 15.8 135.8 16.0 137.8 36.6 Q138.8 48.65 138.15 57.35 L135.9 82.85 136.05 73.9 Q136.25 69.4 136.75 63.95 L137.25 59.0 Q137.25 57.7 137.75 55.25 L138.25 51.55 Q138.05 44.3 137.15 33.6" fill="#b9692f" fill-rule="evenodd" stroke="none"/>
      <path d="M134.15 90.75 L134.15 92.1 132.45 101.8 Q127.8 130.15 132.5 154.35 126.65 127.95 132.45 99.95 L134.15 90.75" fill="#b9692f" fill-rule="evenodd" stroke="none"/>
      <path d="M134.8 28.5 L134.2 21.45 134.0 14.7 135.55 15.8 137.15 33.6 Q138.05 44.3 138.25 51.55 L137.75 55.25 Q137.25 57.7 137.25 59.0 L136.75 63.95 Q136.25 69.4 136.05 73.9 L135.2 92.7 134.25 100.25 133.1 108.05 Q131.75 119.05 131.55 123.5 131.05 132.2 132.35 139.35 133.9 147.05 134.9 156.35 L133.25 157.5 132.5 154.35 Q127.8 130.15 132.45 101.8 L134.15 92.1 134.15 90.75 134.3 89.9 134.6 86.1 Q135.0 80.2 134.55 74.45 L136.55 57.65 136.85 54.25 Q138.3 48.35 137.25 44.2 L136.5 40.9 134.8 28.5" fill="#b9692f" fill-rule="evenodd" stroke="none"/>
      <path d="M141.85 47.9 Q142.05 43.4 141.7 39.8 140.4 31.15 140.05 19.2 L140.9 19.9 141.2 24.55 Q141.45 29.95 142.45 40.75 143.15 50.4 142.35 57.05 L142.05 61.75 141.0 75.45 140.8 78.9 Q141.05 84.45 140.95 90.05 L140.65 103.5 139.2 120.25 Q138.35 130.2 139.25 136.9 L140.45 152.15 139.15 153.2 Q138.4 138.05 138.25 129.9 138.0 116.95 138.65 106.45 L139.2 92.65 139.35 80.4 139.5 77.1 140.8 60.55 141.2 56.0 141.85 47.9" fill="#b9692f" fill-rule="evenodd" stroke="none"/>
      <path d="M146.15 24.7 L147.55 26.1 147.75 106.15 Q147.25 116.0 147.25 126.85 146.95 135.8 147.05 146.15 L145.8 147.35 Q145.2 123.95 146.55 106.5 L146.55 98.4 146.2 86.55 146.6 56.05 146.15 24.7" fill="#b9692f" fill-rule="evenodd" stroke="none"/>
      <path d="M147.6 26.15 L148.95 27.55 148.55 55.45 148.65 60.65 149.2 84.05 149.25 92.95 149.6 97.65 149.65 102.4 149.5 106.9 Q148.4 115.4 148.3 125.6 148.25 133.05 148.75 144.35 L147.4 145.75 147.25 126.85 Q147.55 116.2 148.2 106.9 L148.1 102.2 147.75 97.5 147.6 26.15" fill="#b9692f" fill-rule="evenodd" stroke="none"/>
      <path d="M147.6 92.35 L147.75 97.5 148.1 102.2 148.2 106.9 Q147.55 116.2 147.25 126.85 147.25 116.0 147.75 106.15 L147.6 92.35" fill="#b9692f" fill-rule="evenodd" stroke="none"/>
      <path d="M151.2 30.1 L151.9 30.9 Q150.85 46.6 151.1 55.05 L151.5 59.9 152.3 71.65 152.95 83.5 153.05 106.7 152.85 111.1 Q151.85 121.55 152.8 139.7 L151.4 141.35 Q151.2 134.4 151.4 124.25 L151.75 107.25 151.9 82.5 151.4 69.3 150.7 56.05 150.55 51.0 Q150.55 43.1 151.2 30.1" fill="#b9692f" fill-rule="evenodd" stroke="none"/>
      <path d="M153.3 47.15 L153.45 43.7 154.75 34.5 155.45 35.5 Q154.55 44.5 154.6 50.55 L154.9 55.25 Q155.4 61.2 157.4 74.15 157.7 76.5 157.6 79.8 L157.4 85.65 157.6 91.1 157.9 96.0 157.7 114.0 157.25 133.65 155.8 135.7 Q155.3 121.9 156.2 111.95 L156.25 87.25 Q156.7 80.7 155.8 71.55 L154.15 55.9 153.8 50.65 Q153.3 49.1 153.3 47.15" fill="#b9692f" fill-rule="evenodd" stroke="none"/>
      <path d="M159.2 48.65 L159.25 43.6 159.35 41.3 160.85 43.95 Q160.35 54.2 162.7 65.6 163.3 69.6 163.35 72.85 L163.1 75.6 163.6 106.1 Q163.4 113.8 163.55 122.4 L163.55 122.7 162.8 124.25 162.05 79.25 Q161.8 74.5 160.5 63.8 159.35 54.0 159.2 48.65" fill="#b9692f" fill-rule="evenodd" stroke="none"/>
      <path d="M161.1 44.35 L162.45 46.9 162.45 48.9 162.6 53.6 162.85 58.2 Q163.1 61.1 163.55 63.1 L164.45 67.9 164.45 73.35 165.15 96.1 165.25 118.9 163.95 121.8 Q163.7 113.2 164.05 107.2 L164.05 94.85 163.5 79.5 163.35 75.6 163.35 72.85 Q163.65 69.95 163.3 68.25 L162.7 65.6 161.2 55.05 Q160.55 49.0 161.1 44.35" fill="#b9692f" fill-rule="evenodd" stroke="none"/>
      <path d="M163.3 68.25 Q163.65 69.95 163.35 72.85 163.3 69.6 162.7 65.6 L163.3 68.25" fill="#b9692f" fill-rule="evenodd" stroke="none"/>
      <path d="M166.95 69.1 L166.95 63.4 Q166.35 58.75 166.1 55.0 L168.05 60.55 169.05 107.65 167.6 112.5 167.55 92.95 166.95 69.1" fill="#b9692f" fill-rule="evenodd" stroke="none"/>
      <path d="M119.3 7.35 Q134.7 13.9 146.6 25.8 158.5 37.65 165.05 53.1 171.8 69.05 171.8 86.5 171.8 103.95 165.05 119.85 158.5 135.25 146.6 147.15 134.7 159.0 119.3 165.55 103.35 172.3 85.9 172.3 68.45 172.3 52.5 165.55 37.1 159.05 25.2 147.15 13.3 135.25 6.75 119.85 0.0 103.9 0.0 86.5 0.0 69.05 6.75 53.1 13.3 37.7 25.2 25.8 37.1 13.9 52.5 7.35 68.45 0.6 85.9 0.6 103.35 0.6 119.3 7.35" fill="url(#gradient0)" fill-rule="evenodd" stroke="none"/>
      <path d="M137.25 34.6 Q147.3 44.65 152.8 57.65 158.5 71.15 158.5 85.9 158.5 100.65 152.8 114.1 147.3 127.1 137.25 137.15 127.2 147.15 114.2 152.65 100.7 158.35 85.95 158.35 71.2 158.35 57.75 152.65 44.7 147.15 34.7 137.15 24.65 127.1 19.15 114.1 13.45 100.65 13.45 85.9 13.45 71.15 19.15 57.65 24.65 44.65 34.7 34.6 44.7 24.55 57.75 19.05 71.2 13.35 85.95 13.35 100.7 13.35 114.2 19.05 127.2 24.55 137.25 34.6" fill="url(#gradient1)" fill-rule="evenodd" stroke="none"/>
      <path d="M132.1 39.3 Q151.4 58.65 151.4 85.9 151.4 113.15 132.1 132.4 112.75 151.7 85.5 151.7 58.25 151.7 38.95 132.4 19.65 113.1 19.65 85.9 19.65 58.65 38.95 39.3 58.25 20.0 85.5 20.0 112.75 20.0 132.1 39.3" fill="url(#gradient2)" fill-rule="evenodd" stroke="none"/>
      <path d="M131.55 39.9 Q112.45 20.85 85.5 20.85 58.55 20.85 39.5 39.9 20.45 58.95 20.45 85.9 20.45 112.8 39.5 131.85 58.55 150.9 85.5 150.9 112.45 150.9 131.55 131.85 150.6 112.85 150.6 85.9 150.6 58.95 131.55 39.9 M111.05 24.25 Q123.25 29.25 132.7 38.7 142.15 48.15 147.2 60.35 152.25 72.5 152.25 85.9 152.25 99.25 147.2 111.4 142.15 123.6 132.7 133.0 123.25 142.45 111.05 147.5 98.9 152.55 85.5 152.55 72.15 152.55 60.0 147.5 47.8 142.45 38.35 133.0 28.9 123.6 23.85 111.4 18.8 99.25 18.8 85.9 18.8 72.5 23.85 60.35 28.9 48.15 38.35 38.7 47.8 29.25 60.0 24.25 72.15 19.2 85.5 19.2 98.9 19.2 111.05 24.25" fill="#174718" fill-rule="evenodd" stroke="none"/>
      <path d="M127.35 42.0 Q144.7 59.3 144.7 83.75 144.7 108.2 127.35 125.5 110.05 142.75 85.55 142.75 61.0 142.75 43.7 125.5 26.35 108.2 26.35 83.75 26.35 59.3 43.7 42.0 61.05 24.7 85.55 24.7 110.05 24.7 127.35 42.0" fill="url(#gradient3)" fill-rule="evenodd" stroke="none"/>
      <path d="M75.7 45.4 L70.7 51.35 76.75 51.35 Q79.3 51.35 79.3 53.55 79.3 54.6 78.6 55.2 77.95 55.7 76.95 55.7 L65.9 55.7 Q63.35 55.7 63.35 53.55 63.35 52.7 64.1 51.85 L68.3 47.05 72.3 42.0 Q73.45 40.3 73.45 38.9 73.45 37.85 72.8 37.1 72.1 36.35 71.1 36.35 69.1 36.35 68.3 39.05 67.45 41.7 65.95 41.7 64.8 41.7 64.15 41.0 63.55 40.35 63.55 39.3 63.55 36.25 65.9 34.0 68.2 31.8 71.3 31.8 74.4 31.8 76.45 33.7 78.6 35.6 78.6 38.7 78.6 41.55 75.7 45.4" fill="#eaf6c2" fill-rule="evenodd" stroke="none"/>
      <path d="M84.45 32.8 Q84.95 32.2 86.2 32.2 L94.15 32.2 Q95.25 32.2 95.9 32.8 96.55 33.4 96.55 34.3 96.55 36.75 94.25 36.75 L88.05 36.75 87.55 40.25 90.05 39.95 Q93.0 39.95 94.95 42.0 96.85 44.05 96.85 46.95 96.85 51.15 94.6 53.6 92.3 56.1 88.1 56.1 85.9 56.1 83.6 55.0 80.85 53.65 80.85 51.7 80.85 50.75 81.55 50.1 82.2 49.45 83.1 49.45 83.65 49.45 85.3 50.5 87.0 51.55 88.2 51.55 89.85 51.55 90.8 50.15 91.7 48.9 91.7 47.2 91.7 45.7 90.9 44.8 90.05 43.9 88.55 43.9 87.6 43.9 86.55 44.45 85.5 45.0 84.65 45.0 83.75 45.0 83.2 44.45 82.7 43.95 82.7 43.45 L83.65 35.35 Q83.9 33.45 84.45 32.8" fill="#eaf6c2" fill-rule="evenodd" stroke="none"/>
      <path d="M107.7 34.55 L107.7 53.35 Q107.7 54.55 107.0 55.25 106.35 55.9 105.25 55.9 104.15 55.9 103.45 55.25 102.75 54.55 102.75 53.35 L102.75 36.75 100.8 36.75 Q99.7 36.75 99.1 36.05 98.55 35.4 98.55 34.5 98.55 33.6 99.15 32.9 99.8 32.2 100.8 32.2 L105.5 32.2 Q106.5 32.2 107.15 32.9 107.7 33.55 107.7 34.55" fill="#eaf6c2" fill-rule="evenodd" stroke="none"/>
      <path d="M75.7 44.4 L70.7 50.35 76.75 50.35 Q79.3 50.35 79.3 52.55 79.3 53.6 78.6 54.2 77.95 54.7 76.95 54.7 L65.9 54.7 Q63.35 54.7 63.35 52.55 63.35 51.7 64.1 50.85 L68.3 46.05 72.3 41.0 Q73.45 39.3 73.45 37.9 73.45 36.85 72.8 36.1 72.1 35.35 71.1 35.35 69.1 35.35 68.3 38.05 67.45 40.7 65.95 40.7 64.8 40.7 64.15 40.0 63.55 39.35 63.55 38.3 63.55 35.25 65.9 33.0 68.2 30.8 71.3 30.8 74.4 30.8 76.45 32.7 78.6 34.6 78.6 37.7 78.6 40.55 75.7 44.4" fill="url(#gradient4)" fill-rule="evenodd" stroke="none"/>
      <path d="M84.45 31.8 Q84.95 31.2 86.2 31.2 L94.15 31.2 Q95.25 31.2 95.9 31.8 96.55 32.4 96.55 33.3 96.55 35.75 94.25 35.75 L88.05 35.75 87.55 39.25 90.05 38.95 Q93.0 38.95 94.95 41.0 96.85 43.05 96.85 45.95 96.85 50.15 94.6 52.6 92.3 55.1 88.1 55.1 85.9 55.1 83.6 54.0 80.85 52.65 80.85 50.7 80.85 49.75 81.55 49.1 82.2 48.45 83.1 48.45 83.65 48.45 85.3 49.5 87.0 50.55 88.2 50.55 89.85 50.55 90.8 49.15 91.7 47.9 91.7 46.2 91.7 44.7 90.9 43.8 90.05 42.9 88.55 42.9 87.6 42.9 86.55 43.45 85.5 44.0 84.65 44.0 83.75 44.0 83.2 43.45 82.7 42.95 82.7 42.45 L83.65 34.35 Q83.9 32.45 84.45 31.8" fill="url(#gradient5)" fill-rule="evenodd" stroke="none"/>
      <path d="M107.7 33.55 L107.7 52.35 Q107.7 53.55 107.0 54.25 106.35 54.9 105.25 54.9 104.15 54.9 103.45 54.25 102.75 53.55 102.75 52.35 L102.75 35.75 100.8 35.75 Q99.7 35.75 99.1 35.05 98.55 34.4 98.55 33.5 98.55 32.6 99.15 31.9 99.8 31.2 100.8 31.2 L105.5 31.2 Q106.5 31.2 107.15 31.9 107.7 32.55 107.7 33.55" fill="url(#gradient6)" fill-rule="evenodd" stroke="none"/>
      <path d="M130.2 65.95 Q129.05 66.65 127.7 66.65 L126.1 66.65 125.25 67.85 Q123.85 69.9 121.35 69.9 L120.55 69.85 Q119.0 69.55 117.95 68.5 117.05 67.6 116.75 66.5 L116.3 65.1 114.85 64.65 Q113.7 64.25 112.9 63.45 111.8 62.4 111.55 60.8 111.35 59.45 111.85 58.2 112.4 56.95 113.5 56.15 L114.75 55.25 114.7 53.75 Q114.7 52.4 115.4 51.2 116.1 50.05 117.35 49.4 118.5 48.85 119.95 48.95 121.4 49.05 122.4 49.85 L123.6 50.75 125.0 50.25 127.65 50.15 Q129.05 50.5 129.95 51.4 130.9 52.35 131.25 53.75 131.55 55.05 131.15 56.35 L130.65 57.8 131.55 59.0 Q132.4 60.1 132.5 61.45 132.6 62.8 131.95 64.05 131.35 65.25 130.2 65.95" fill="url(#gradient7)" fill-rule="evenodd" stroke="none"/>
      <path d="M130.2 65.95 Q129.05 66.65 127.7 66.65 L126.1 66.65 125.25 67.85 Q123.85 69.9 121.35 69.9 L120.55 69.85 Q119.0 69.55 117.95 68.5 117.05 67.6 116.75 66.5 L116.3 65.1 114.85 64.65 Q113.7 64.25 112.9 63.45 111.8 62.4 111.55 60.8 111.35 59.45 111.85 58.2 112.4 56.95 113.5 56.15 L114.75 55.25 114.7 53.75 Q114.7 52.4 115.4 51.2 116.1 50.05 117.35 49.4 118.5 48.85 119.95 48.95 121.4 49.05 122.4 49.85 L123.6 50.75 125.0 50.25 127.65 50.15 Q129.05 50.5 129.95 51.4 130.9 52.35 131.25 53.75 131.55 55.05 131.15 56.35 L130.65 57.8 131.55 59.0 Q132.4 60.1 132.5 61.45 132.6 62.8 131.95 64.05 131.35 65.25 130.2 65.95 Z" fill="none" stroke="#dcf1a5" stroke-linecap="butt" stroke-linejoin="miter" stroke-width="0.25"/>
      <path d="M129.3 60.65 Q130.1 61.6 129.5 62.8 128.9 63.9 127.7 63.9 L124.7 63.85 123.0 66.25 Q122.25 67.35 121.0 67.1 120.35 67.0 119.9 66.55 L119.4 65.7 118.5 62.9 115.7 62.0 114.85 61.5 Q114.4 61.05 114.3 60.35 114.05 59.2 115.1 58.4 L117.55 56.7 117.5 53.75 Q117.5 52.45 118.6 51.9 L120.75 52.05 123.1 53.85 125.9 52.9 Q127.15 52.5 128.0 53.4 128.95 54.25 128.5 55.45 L127.55 58.3 129.3 60.65" fill="#174718" fill-rule="evenodd" stroke="none"/>
      <path d="M128.55 61.2 Q128.95 61.8 128.65 62.35 128.3 62.95 127.65 62.95 L124.2 62.9 122.2 65.7 Q121.85 66.3 121.15 66.15 120.85 66.15 120.55 65.85 L120.3 65.4 119.25 62.1 115.95 61.1 115.5 60.8 115.2 60.25 Q115.15 59.6 115.65 59.15 L118.5 57.15 118.45 53.7 Q118.45 53.0 119.05 52.75 L120.2 52.85 122.95 54.9 126.2 53.8 Q126.85 53.55 127.35 54.05 127.85 54.55 127.6 55.15 L126.5 58.45 128.55 61.2" fill="url(#gradient8)" fill-rule="evenodd" stroke="none"/>
      <path d="M119.65 53.25 Q119.05 53.6 119.1 54.25 L119.15 57.7 116.3 59.7 Q115.75 60.0 115.85 60.75 L116.0 61.1 115.95 61.1 115.5 60.8 115.2 60.25 Q115.15 59.6 115.65 59.15 L118.5 57.15 118.45 53.7 Q118.45 53.0 119.05 52.75 L120.2 52.85 122.95 54.9 126.2 53.8 Q126.85 53.55 127.35 54.05 L127.45 54.3 126.85 54.3 123.6 55.4 120.8 53.35 119.65 53.25" fill="#ffffff" fill-rule="evenodd" stroke="none"/>
      <path d="M58.85 58.1 Q59.35 59.3 59.15 60.6 58.95 62.05 57.85 63.2 56.95 64.0 55.95 64.3 L54.4 64.8 53.95 66.3 Q53.6 67.45 52.8 68.2 51.7 69.3 50.25 69.5 L49.55 69.55 Q47.1 69.55 45.75 67.6 L44.85 66.3 43.2 66.35 Q41.9 66.35 40.75 65.65 39.65 64.95 39.05 63.8 38.45 62.6 38.55 61.3 38.7 60.0 39.5 58.95 L40.45 57.65 39.9 56.15 Q39.5 54.9 39.8 53.6 40.1 52.3 41.0 51.4 42.45 50.05 44.3 50.05 L45.8 50.3 47.3 50.8 48.55 49.85 Q49.75 48.95 51.35 48.95 52.5 48.95 53.45 49.45 54.6 50.05 55.3 51.15 56.0 52.3 55.95 53.6 L55.95 55.2 57.25 56.15 Q58.35 56.9 58.85 58.1" fill="url(#gradient9)" fill-rule="evenodd" stroke="none"/>
      <path d="M58.85 58.1 Q58.35 56.9 57.25 56.15 L55.95 55.2 55.95 53.6 Q56.0 52.3 55.3 51.15 54.6 50.05 53.45 49.45 52.5 48.95 51.35 48.95 49.75 48.95 48.55 49.85 L47.3 50.8 45.8 50.3 44.3 50.05 Q42.45 50.05 41.0 51.4 40.1 52.3 39.8 53.6 39.5 54.9 39.9 56.15 L40.45 57.65 39.5 58.95 Q38.7 60.0 38.55 61.3 38.45 62.6 39.05 63.8 39.65 64.95 40.75 65.65 41.9 66.35 43.2 66.35 L44.85 66.3 45.75 67.6 Q47.1 69.55 49.55 69.55 L50.25 69.5 Q51.7 69.3 52.8 68.2 53.6 67.45 53.95 66.3 L54.4 64.8 55.95 64.3 Q56.95 64.0 57.85 63.2 58.95 62.05 59.15 60.6 59.35 59.3 58.85 58.1 Z" fill="none" stroke="#dcf1a5" stroke-linecap="butt" stroke-linejoin="miter" stroke-width="0.25"/>
      <path d="M50.1 51.9 Q51.1 51.15 52.25 51.75 53.45 52.35 53.35 53.55 L53.35 56.55 55.75 58.25 Q56.75 58.95 56.6 60.2 L56.0 61.35 55.2 61.85 52.35 62.75 51.5 65.55 50.95 66.4 Q50.45 66.9 49.85 66.95 48.6 67.2 47.85 66.1 L46.15 63.7 43.2 63.75 Q41.95 63.75 41.35 62.65 40.75 61.45 41.55 60.5 L43.3 58.1 42.35 55.3 Q41.95 54.1 42.85 53.2 43.8 52.35 44.95 52.75 L47.75 53.7 50.1 51.9" fill="#174718" fill-rule="evenodd" stroke="none"/>
      <path d="M51.85 52.6 Q52.5 52.85 52.4 53.55 L52.35 57.0 55.2 59.0 Q55.75 59.4 55.65 60.05 L55.35 60.65 54.9 60.95 51.6 61.95 50.55 65.25 50.3 65.7 49.7 66.0 Q49.1 66.15 48.65 65.55 L46.65 62.75 43.2 62.8 Q42.55 62.8 42.2 62.2 41.9 61.65 42.3 61.05 L44.35 58.3 43.25 55.0 Q43.1 54.4 43.5 53.9 44.0 53.4 44.65 53.65 L47.9 54.75 50.7 52.65 51.85 52.6" fill="url(#gradient10)" fill-rule="evenodd" stroke="none"/>
      <path d="M51.8 54.05 Q51.8 53.45 51.2 53.1 L50.05 53.2 47.3 55.25 44.0 54.15 43.4 54.1 43.5 53.9 Q44.0 53.4 44.65 53.65 L47.9 54.75 50.7 52.65 51.85 52.6 Q52.5 52.85 52.4 53.55 L52.35 57.0 55.2 59.0 Q55.75 59.4 55.65 60.05 L55.35 60.65 54.9 60.95 54.85 60.95 55.0 60.6 Q55.1 59.9 54.55 59.5 L51.75 57.55 51.8 54.05" fill="#ffffff" fill-rule="evenodd" stroke="none"/>
      <path d="M129.65 72.8 L131.75 72.65 132.15 72.7 133.65 73.05 Q136.45 74.05 138.3 76.95 L138.75 77.8 138.75 77.9 138.8 77.9 138.8 78.0 139.75 80.55 139.8 80.85 Q140.2 83.1 139.65 85.45 L139.55 85.75 139.0 87.05 Q138.2 89.0 136.7 90.55 135.7 91.65 134.15 91.95 L90.25 101.35 Q88.8 102.4 87.0 102.55 L77.1 103.7 77.0 103.7 76.4 103.8 76.15 106.1 75.7 111.95 75.7 112.45 75.75 112.85 75.4 115.65 75.3 115.9 75.3 116.95 75.1 118.35 74.95 119.3 75.0 119.7 Q75.15 122.15 73.25 123.75 71.4 125.35 69.0 124.8 L48.4 119.85 47.95 119.7 Q46.5 119.2 45.6 117.95 44.7 116.7 44.65 115.15 44.65 112.6 44.8 110.4 L45.3 103.7 Q45.6 99.3 45.85 97.6 46.05 96.15 46.45 95.35 L47.35 93.95 48.1 93.15 49.95 92.05 50.2 91.95 Q51.45 91.3 53.9 91.15 L57.55 90.95 58.15 90.15 58.25 90.05 Q59.95 88.1 63.05 87.65 L65.4 87.45 67.5 87.7 69.2 88.35 Q71.55 89.05 72.95 90.0 L73.1 90.0 74.65 89.7 75.1 89.65 81.0 87.0 Q83.65 85.75 85.75 86.05 95.2 83.0 129.65 72.8" fill="#dcf1a5" fill-rule="evenodd" stroke="none"/>
      <path d="M129.8 71.95 L131.85 71.8 132.25 71.85 133.8 72.25 Q136.6 73.25 138.4 76.1 L138.95 77.2 139.85 79.75 139.95 80.0 Q140.35 82.4 139.75 84.6 L139.15 86.25 Q138.3 88.15 136.8 89.7 135.7 90.85 134.25 91.15 L90.4 100.5 Q89.1 101.5 87.1 101.75 L77.25 102.9 76.5 102.95 76.3 105.25 75.8 111.15 75.85 112.0 Q75.85 113.65 75.5 114.85 L75.45 115.05 75.4 116.15 75.25 117.55 75.1 118.25 75.1 118.9 Q75.25 121.35 73.4 122.95 71.5 124.5 69.1 123.95 L48.5 119.0 48.05 118.85 Q46.6 118.35 45.7 117.1 44.8 115.85 44.8 114.3 44.8 111.8 44.95 109.6 L45.4 102.9 45.95 96.75 Q46.15 95.3 46.55 94.55 46.85 93.85 47.45 93.1 L48.25 92.3 Q48.95 91.65 50.1 91.25 L50.35 91.1 Q51.75 90.45 54.0 90.3 L54.9 90.3 55.05 90.25 57.65 90.15 58.35 89.2 Q60.15 87.3 63.2 86.8 L65.55 86.6 67.65 86.9 68.2 87.05 69.35 87.55 Q71.55 88.1 73.1 89.2 L73.25 89.15 74.8 88.9 75.25 88.8 81.15 86.15 Q83.6 84.95 85.9 85.2 92.55 83.05 129.8 71.95" fill="url(#gradient11)" fill-rule="evenodd" stroke="none"/>
      <path d="M129.8 71.95 Q92.55 83.05 85.9 85.2 83.6 84.95 81.15 86.15 L75.25 88.8 74.8 88.9 73.25 89.15 73.1 89.2 Q71.55 88.1 69.35 87.55 L68.2 87.05 67.65 86.9 65.55 86.6 63.2 86.8 Q60.15 87.3 58.35 89.2 L57.65 90.15 55.05 90.25 54.9 90.3 54.0 90.3 Q51.75 90.45 50.35 91.1 L50.1 91.25 Q48.95 91.65 48.25 92.3 L47.45 93.1 Q46.85 93.85 46.55 94.55 46.15 95.3 45.95 96.75 L45.4 102.9 44.95 109.6 Q44.8 111.8 44.8 114.3 44.8 115.85 45.7 117.1 46.6 118.35 48.05 118.85 L48.5 119.0 69.1 123.95 Q71.5 124.5 73.4 122.95 75.25 121.35 75.1 118.9 L75.1 118.25 75.25 117.55 75.4 116.15 75.45 115.05 75.5 114.85 Q75.85 113.65 75.85 112.0 L75.8 111.15 76.3 105.25 76.5 102.95 77.25 102.9 87.1 101.75 Q89.1 101.5 90.4 100.5 L134.25 91.15 Q135.7 90.85 136.8 89.7 138.3 88.15 139.15 86.25 L139.75 84.6 Q140.35 82.4 139.95 80.0 L139.85 79.75 138.95 77.2 138.4 76.1 Q136.6 73.25 133.8 72.25 L132.25 71.85 131.85 71.8 129.8 71.95 Z" fill="none" stroke="#cfdeed" stroke-linecap="butt" stroke-linejoin="round" stroke-width="0.25"/>
      <path d="M131.9 71.7 L132.25 71.75 133.8 72.15 Q136.7 73.15 138.5 76.05 L139.0 77.0 139.0 77.05 139.05 77.15 140.0 79.7 140.05 80.0 Q140.45 82.35 139.85 84.65 L139.25 86.25 Q138.4 88.1 136.9 89.8 135.85 90.95 134.3 91.25 L90.4 100.65 Q89.15 101.6 87.1 101.85 L77.25 103.0 77.15 103.0 76.65 103.05 76.4 105.3 75.9 111.15 75.95 112.0 Q75.95 113.65 75.6 114.85 L75.55 115.1 75.5 116.15 75.35 117.55 75.2 118.25 75.2 118.85 Q75.35 121.4 73.45 123.05 71.7 124.45 69.5 124.15 L48.0 118.95 Q46.55 118.45 45.6 117.15 44.7 115.9 44.7 114.3 44.65 111.8 44.85 109.55 L45.3 102.9 45.85 96.75 Q46.05 95.25 46.45 94.5 46.8 93.7 47.4 93.05 L48.15 92.2 Q48.95 91.55 50.05 91.15 L50.3 91.0 Q51.7 90.35 54.0 90.2 L57.6 90.05 58.2 89.25 58.25 89.15 Q60.1 87.15 63.2 86.7 L65.55 86.5 67.65 86.8 68.25 86.95 69.4 87.45 Q71.65 88.05 73.15 89.1 L73.2 89.05 75.2 88.7 81.1 86.05 Q83.6 84.85 85.9 85.1 93.1 82.75 129.75 71.85 L131.9 71.7" fill="url(#gradient12)" fill-rule="evenodd" stroke="none"/>
      <path d="M131.9 71.7 L132.25 71.75 133.8 72.15 Q136.7 73.15 138.5 76.05 L139.0 77.0 139.0 77.05 139.05 77.15 140.0 79.7 140.05 80.0 Q140.45 82.35 139.85 84.65 L139.25 86.25 Q138.4 88.1 136.9 89.8 135.85 90.95 134.3 91.25 L90.4 100.65 Q89.15 101.6 87.1 101.85 L77.25 103.0 77.15 103.0 76.65 103.05 76.4 105.3 75.9 111.15 75.95 112.0 Q75.95 113.65 75.6 114.85 L75.55 115.1 75.5 116.15 75.35 117.55 75.2 118.25 75.2 118.85 Q75.35 121.4 73.45 123.05 71.7 124.45 69.5 124.15 L48.0 118.95 Q46.55 118.45 45.6 117.15 44.7 115.9 44.7 114.3 44.65 111.8 44.85 109.55 L45.3 102.9 45.85 96.75 Q46.05 95.25 46.45 94.5 46.8 93.7 47.4 93.05 L48.15 92.2 Q48.95 91.55 50.05 91.15 L50.3 91.0 Q51.7 90.35 54.0 90.2 L57.6 90.05 58.2 89.25 58.25 89.15 Q60.1 87.15 63.2 86.7 L65.55 86.5 67.65 86.8 68.25 86.95 69.4 87.45 Q71.65 88.05 73.15 89.1 L73.2 89.05 75.2 88.7 81.1 86.05 Q83.6 84.85 85.9 85.1 93.1 82.75 129.75 71.85 L131.9 71.7 Z" fill="none" stroke="#dcf1a5" stroke-linecap="butt" stroke-linejoin="miter" stroke-width="0.25"/>
      <path d="M135.3 78.8 L135.35 78.9 136.0 80.7 Q136.2 82.15 135.85 83.65 L135.5 84.55 133.9 86.95 133.45 87.2 88.5 96.85 Q87.9 97.65 86.65 97.75 L75.3 99.05 73.9 99.05 71.55 98.7 72.3 99.8 Q72.85 100.95 72.3 104.95 L71.8 110.75 71.85 112.0 71.65 113.75 Q71.35 114.6 71.4 116.25 L71.35 116.5 71.1 118.15 71.1 119.15 70.8 119.85 70.05 120.05 49.45 115.1 49.4 115.1 Q48.8 114.85 48.8 114.3 48.8 111.85 48.95 109.8 L49.4 103.2 Q49.85 96.9 50.2 96.25 L50.6 95.6 50.85 95.35 Q51.1 95.1 51.55 95.0 L52.15 94.7 54.25 94.3 58.45 94.1 58.95 94.25 60.15 94.25 Q60.6 92.8 61.35 91.95 62.2 90.95 64.0 90.75 L65.3 90.6 66.8 90.8 66.95 90.85 68.0 91.3 68.05 91.35 Q70.05 91.85 71.0 92.6 L71.1 92.7 Q71.65 93.2 72.4 93.25 L74.15 93.05 76.25 92.7 82.9 89.8 Q84.85 88.85 86.05 89.4 94.7 86.55 130.95 75.8 L131.3 75.8 131.7 75.85 Q133.7 76.15 135.0 78.25 L135.25 78.75 135.3 78.8" fill="#174718" fill-rule="evenodd" stroke="none"/>
    </g>
    <linearGradient gradientTransform="matrix(0.0, -0.1048, -0.1048, 0.0, 85.9, 86.5)" gradientUnits="userSpaceOnUse" id="gradient0" spreadMethod="pad" x1="-819.2" x2="819.2">
      <stop offset="0.0196078431372549" stop-color="#873a11"/>
      <stop offset="0.12549019607843137" stop-color="#95542a" stop-opacity="0.8509804"/>
      <stop offset="0.3568627450980392" stop-color="#b28969" stop-opacity="0.54901963"/>
      <stop offset="0.5686274509803921" stop-color="#c9b29c" stop-opacity="0.3137255"/>
      <stop offset="0.7529411764705882" stop-color="#d9d0c2" stop-opacity="0.14117648"/>
      <stop offset="0.8980392156862745" stop-color="#e3e2d8" stop-opacity="0.03529412"/>
      <stop offset="0.9882352941176471" stop-color="#e7e9e1" stop-opacity="0.0"/>
    </linearGradient>
    <linearGradient gradientTransform="matrix(0.0, -0.0885, -0.0885, 0.0, 85.95, 85.9)" gradientUnits="userSpaceOnUse" id="gradient1" spreadMethod="pad" x1="-819.2" x2="819.2">
      <stop offset="0.0" stop-color="#f2d9c4"/>
      <stop offset="0.08627450980392157" stop-color="#e9ccb7" stop-opacity="0.8745098"/>
      <stop offset="0.3176470588235294" stop-color="#d6ae99" stop-opacity="0.5921569"/>
      <stop offset="0.5176470588235295" stop-color="#c99c87" stop-opacity="0.41960785"/>
      <stop offset="0.6549019607843137" stop-color="#c59580" stop-opacity="0.35686275"/>
      <stop offset="1.0" stop-color="#5d2d23"/>
    </linearGradient>
    <linearGradient gradientTransform="matrix(0.0, -0.0804, -0.0804, 0.0, 85.5, 85.9)" gradientUnits="userSpaceOnUse" id="gradient2" spreadMethod="pad" x1="-819.2" x2="819.2">
      <stop offset="0.07450980392156863" stop-color="#64953a"/>
      <stop offset="0.2196078431372549" stop-color="#7aae4d"/>
      <stop offset="0.3686274509803922" stop-color="#94cc63"/>
      <stop offset="0.5882352941176471" stop-color="#ccdc58"/>
      <stop offset="0.8117647058823529" stop-color="#d3de57"/>
      <stop offset="1.0" stop-color="#ffecb6"/>
    </linearGradient>
    <radialGradient cx="0" cy="0" gradientTransform="matrix(0.0722, 0.0, 0.0, -0.0722, 85.5, 83.75)" gradientUnits="userSpaceOnUse" id="gradient3" r="819.2" spreadMethod="pad">
      <stop offset="0.0" stop-color="#ffecb6"/>
      <stop offset="0.18823529411764706" stop-color="#d3de57"/>
      <stop offset="0.5137254901960784" stop-color="#ccdc58"/>
      <stop offset="1.0" stop-color="#97cd63" stop-opacity="0.5372549"/>
    </radialGradient>
    <linearGradient gradientTransform="matrix(0.0, -0.0146, -0.0146, 0.0, 71.35, 42.75)" gradientUnits="userSpaceOnUse" id="gradient4" spreadMethod="pad" x1="-819.2" x2="819.2">
      <stop offset="0.34509803921568627" stop-color="#224c16"/>
      <stop offset="0.5215686274509804" stop-color="#33651e"/>
      <stop offset="0.9019607843137255" stop-color="#5da634"/>
      <stop offset="0.9686274509803922" stop-color="#65b238"/>
    </linearGradient>
    <linearGradient gradientTransform="matrix(0.0, -0.0146, -0.0146, 0.0, 88.85, 43.15)" gradientUnits="userSpaceOnUse" id="gradient5" spreadMethod="pad" x1="-819.2" x2="819.2">
      <stop offset="0.34509803921568627" stop-color="#224c16"/>
      <stop offset="0.5215686274509804" stop-color="#33651e"/>
      <stop offset="0.9019607843137255" stop-color="#5da634"/>
      <stop offset="0.9686274509803922" stop-color="#65b238"/>
    </linearGradient>
    <linearGradient gradientTransform="matrix(0.0, -0.0145, -0.0145, 0.0, 103.15, 43.05)" gradientUnits="userSpaceOnUse" id="gradient6" spreadMethod="pad" x1="-819.2" x2="819.2">
      <stop offset="0.34509803921568627" stop-color="#224c16"/>
      <stop offset="0.5215686274509804" stop-color="#33651e"/>
      <stop offset="0.9019607843137255" stop-color="#5da634"/>
      <stop offset="0.9686274509803922" stop-color="#65b238"/>
    </linearGradient>
    <linearGradient gradientTransform="matrix(0.0, -0.0128, -0.0128, 0.0, 122.0, 59.4)" gradientUnits="userSpaceOnUse" id="gradient7" spreadMethod="pad" x1="-819.2" x2="819.2">
      <stop offset="0.3568627450980392" stop-color="#658234"/>
      <stop offset="0.4627450980392157" stop-color="#759b44"/>
      <stop offset="0.6313725490196078" stop-color="#94cc63"/>
      <stop offset="0.9647058823529412" stop-color="#d9e480"/>
    </linearGradient>
    <linearGradient gradientTransform="matrix(-0.0059, -0.0059, 0.0059, -0.0059, 122.7, 58.7)" gradientUnits="userSpaceOnUse" id="gradient8" spreadMethod="pad" x1="-819.2" x2="819.2">
      <stop offset="0.023529411764705882" stop-color="#808080"/>
      <stop offset="0.7294117647058823" stop-color="#e6e6e6"/>
      <stop offset="1.0" stop-color="#b3b3b3"/>
    </linearGradient>
    <linearGradient gradientTransform="matrix(0.0, -0.0126, -0.0126, 0.0, 48.85, 59.25)" gradientUnits="userSpaceOnUse" id="gradient9" spreadMethod="pad" x1="-819.2" x2="819.2">
      <stop offset="0.3568627450980392" stop-color="#658234"/>
      <stop offset="0.4627450980392157" stop-color="#759b44"/>
      <stop offset="0.6313725490196078" stop-color="#94cc63"/>
      <stop offset="0.9647058823529412" stop-color="#d9e480"/>
    </linearGradient>
    <linearGradient gradientTransform="matrix(0.0059, -0.0059, -0.0059, -0.0059, 48.15, 58.55)" gradientUnits="userSpaceOnUse" id="gradient10" spreadMethod="pad" x1="-819.2" x2="819.2">
      <stop offset="0.023529411764705882" stop-color="#808080"/>
      <stop offset="0.7294117647058823" stop-color="#e6e6e6"/>
      <stop offset="1.0" stop-color="#b3b3b3"/>
    </linearGradient>
    <linearGradient gradientTransform="matrix(0.0056, -0.0368, -0.0368, -0.0056, 92.0, 96.6)" gradientUnits="userSpaceOnUse" id="gradient11" spreadMethod="pad" x1="-819.2" x2="819.2">
      <stop offset="0.0" stop-color="#24313c"/>
      <stop offset="0.2196078431372549" stop-color="#3b4c5c"/>
      <stop offset="0.7019607843137254" stop-color="#7591af"/>
      <stop offset="1.0" stop-color="#9cbee4"/>
    </linearGradient>
    <linearGradient gradientTransform="matrix(0.041, -0.041, -0.041, -0.041, 89.55, 93.95)" gradientUnits="userSpaceOnUse" id="gradient12" spreadMethod="pad" x1="-819.2" x2="819.2">
      <stop offset="0.3568627450980392" stop-color="#658234"/>
      <stop offset="0.4627450980392157" stop-color="#759b44"/>
      <stop offset="0.6313725490196078" stop-color="#94cc63"/>
      <stop offset="0.9647058823529412" stop-color="#d9e480"/>
    </linearGradient>
    <g id="sprite0" transform="matrix(1.0, 0.0, 0.0, 1.0, 0.0, 0.0)">
      <clipPath id="clipPath0" transform="matrix(1.0, 0.0, 0.0, 1.0, 0.0, 0.0)">
        <use height="66.1" transform="matrix(1.0, 0.0, 0.0, 1.0, 0.0, 0.0)" width="95.2" xlink:href="#shape1"/>
      </clipPath>
      <g clip-path="url(#clipPath0)">
        <use height="39.2" transform="matrix(1.0, 0.0, 0.0, 1.0, 38.35, 8.35)" width="55.9" xlink:href="#sprite1"/>
        <use height="29.15" transform="matrix(1.0, 0.0, 0.0, 1.0, 6.85, 29.8)" width="38.45" xlink:href="#shape3"/>
      </g>
    </g>
    <g id="shape1" transform="matrix(1.0, 0.0, 0.0, 1.0, 0.0, 0.0)">
      <path d="M95.2 26.25 L12.65 66.1 0.0 39.85 82.55 0.0 95.2 26.25" fill="#ff0000" fill-rule="evenodd" stroke="none"/>
    </g>
    <g id="sprite1" transform="matrix(1.0, 0.0, 0.0, 1.0, 0.0, 0.0)">
      <clipPath id="clipPath1" transform="matrix(1.0, 0.0, 0.0, 1.0, 0.0, 0.0)">
        <use height="66.1" transform="matrix(0.5872, 0.0, 0.0, 0.593, 0.0, 0.0)" width="95.2" xlink:href="#shape1"/>
      </clipPath>
      <g clip-path="url(#clipPath1)">
        <use height="19.9" transform="matrix(1.0, 0.0, 0.0, 1.0, 0.0, 8.0)" width="54.05" xlink:href="#shape2"/>
      </g>
    </g>
    <g id="shape2" transform="matrix(1.0, 0.0, 0.0, 1.0, 0.0, -8.0)">
      <path d="M53.3 10.55 L53.35 10.65 53.95 12.3 Q51.85 12.8 50.5 14.0 48.8 15.55 45.65 14.95 L40.25 14.65 Q38.4 14.95 36.5 16.7 34.45 17.95 32.4 17.95 L27.45 18.1 Q24.65 18.25 24.2 18.75 19.35 21.15 12.15 22.9 L6.2 24.15 3.35 24.75 2.7 24.95 2.6 24.9 Q0.65 23.4 0.0 23.25 L2.85 22.4 4.8 21.7 50.0 8.0 50.4 8.1 Q52.0 8.35 53.1 10.1 52.0 9.55 50.8 9.6 L47.6 10.15 42.95 10.95 Q42.15 11.1 40.5 11.85 L39.7 12.25 37.55 13.6 35.75 14.7 34.6 15.2 31.65 15.7 28.0 16.2 26.15 16.6 24.55 16.85 20.45 18.4 30.45 16.25 32.85 16.35 36.15 15.95 39.25 13.95 Q39.7 13.75 40.1 13.5 41.75 12.7 46.1 12.25 L51.0 11.55 53.1 10.6 53.3 10.55 M52.1 17.75 L4.75 27.9 Q4.4 27.85 4.65 27.75 L4.4 26.9 20.65 23.8 Q37.15 20.3 53.85 14.8 L53.55 15.6 52.1 17.75 M20.5 19.7 L16.4 20.35 12.1 20.9 6.45 22.45 5.6 22.65 6.05 23.45 9.0 23.05 12.55 22.05 20.35 19.8 20.5 19.7" fill="#ad653e" fill-rule="evenodd" stroke="none"/>
      <path d="M53.1 10.1 L53.3 10.55 53.1 10.6 51.0 11.55 46.1 12.25 Q41.75 12.7 40.1 13.5 39.7 13.75 39.25 13.95 L36.15 15.95 32.85 16.35 30.45 16.25 20.45 18.4 24.55 16.85 26.15 16.6 28.0 16.2 31.65 15.7 34.6 15.2 35.75 14.7 37.55 13.6 39.7 12.25 40.5 11.85 Q42.15 11.1 42.95 10.95 L47.6 10.15 50.8 9.6 Q52.0 9.55 53.1 10.1 M50.5 14.0 Q51.85 12.8 53.95 12.3 54.15 13.45 53.85 14.8 37.15 20.3 20.65 23.8 L4.4 26.9 2.85 25.15 2.7 24.95 3.35 24.75 6.2 24.15 12.15 22.9 Q19.35 21.15 24.2 18.75 24.65 18.25 27.45 18.1 L32.4 17.95 Q34.45 17.95 36.5 16.7 38.4 14.95 40.25 14.65 L45.65 14.95 Q48.8 15.55 50.5 14.0 M20.35 19.8 L12.55 22.05 9.0 23.05 6.05 23.45 5.6 22.65 6.45 22.45 7.25 22.15 12.1 20.9 16.4 20.35 20.5 19.7 20.35 19.8" fill="#754228" fill-rule="evenodd" stroke="none"/>
    </g>
    <g id="shape3" transform="matrix(1.0, 0.0, 0.0, 1.0, -6.85, -29.8)">
      <path d="M41.65 30.45 Q42.0 30.5 42.15 30.85 L42.2 30.95 42.05 31.35 42.05 31.3 41.95 31.15 Q41.75 30.65 40.9 31.0 40.1 31.4 40.2 31.85 L39.9 31.45 Q39.8 31.25 40.15 31.0 L40.2 30.95 40.4 30.9 40.6 30.7 41.65 30.45 M43.75 36.65 L32.35 37.95 29.15 37.65 27.35 37.05 25.45 36.0 23.75 34.95 21.55 34.05 23.2 34.0 25.0 34.35 30.3 36.65 31.9 36.9 33.3 36.6 45.05 32.35 45.3 34.45 45.0 35.95 Q44.8 36.5 43.75 36.65 M15.15 35.5 L16.85 35.5 18.2 35.25 18.35 35.2 18.2 35.4 Q17.65 36.7 17.65 38.75 L17.7 39.2 17.65 39.7 17.75 40.4 17.6 42.45 17.85 41.3 18.55 37.7 19.3 36.1 20.05 35.15 21.3 34.15 Q20.35 35.2 21.25 36.8 L22.95 37.65 24.95 38.4 26.8 39.4 27.45 40.45 27.75 41.6 27.25 54.7 15.75 51.8 15.7 51.85 6.95 49.55 7.45 43.05 Q7.9 36.7 8.15 36.4 8.25 36.05 8.5 35.85 L8.6 35.75 8.95 35.55 9.75 35.15 11.5 34.9 15.15 35.5" fill="#808080" fill-rule="evenodd" stroke="none"/>
      <path d="M11.5 34.9 L12.5 34.85 15.45 34.7 15.95 34.85 17.95 34.75 Q18.4 33.1 19.15 32.2 19.75 31.5 21.25 31.35 L22.4 31.2 23.8 31.4 24.8 31.85 23.4 31.7 21.55 31.95 Q20.05 32.3 19.5 33.05 18.95 33.6 18.6 34.45 L18.4 35.15 18.2 35.25 16.85 35.5 15.15 35.5 11.5 34.9 M21.75 35.65 Q22.15 36.65 25.15 37.55 28.2 38.5 28.7 39.85 29.1 41.1 28.6 44.65 L28.15 50.4 28.15 51.8 28.0 53.25 Q27.7 54.05 27.7 56.0 27.4 57.15 27.4 57.9 L27.25 54.7 27.75 41.6 27.45 40.45 26.8 39.4 24.95 38.4 22.95 37.65 21.25 36.8 Q20.35 35.2 21.3 34.15 L21.55 34.05 21.95 34.2 Q21.6 35.1 21.75 35.65" fill="#858585" fill-rule="evenodd" stroke="none"/>
      <path d="M40.6 30.7 L40.4 30.9 40.2 30.95 40.15 31.0 Q39.8 31.25 39.9 31.45 L40.2 31.85 40.95 31.9 41.7 31.6 42.05 31.35 42.2 30.95 42.15 30.85 Q42.0 30.5 41.65 30.45 L40.6 30.7 M45.05 32.35 L33.3 36.6 31.9 36.9 30.3 36.65 25.0 34.35 23.2 34.0 21.55 34.05 21.3 34.15 20.05 35.15 19.3 36.1 18.55 37.7 17.9 41.3 17.6 42.45 17.75 40.4 17.65 39.7 17.7 39.2 17.65 38.75 Q17.65 36.9 18.2 35.4 L18.4 35.15 18.6 34.45 Q18.9 33.75 19.5 33.05 20.05 32.3 21.55 31.95 L23.4 31.7 24.8 31.85 24.95 31.9 Q26.95 32.45 27.6 33.05 L27.75 33.1 Q28.5 33.8 29.55 33.85 L31.5 33.65 33.55 33.3 40.4 30.3 Q42.45 29.3 43.55 30.3 44.65 31.4 45.05 32.35 M27.4 58.95 L6.85 54.0 6.95 49.55 15.7 51.85 15.75 51.8 27.25 54.7 27.4 58.95" fill="url(#gradient13)" fill-rule="evenodd" stroke="none"/>
      <path d="M40.95 31.9 L40.2 31.85 Q40.1 31.4 40.9 31.0 41.75 30.65 41.95 31.15 L42.05 31.3 42.05 31.35 41.7 31.6 40.95 31.9" fill="#323232" fill-rule="evenodd" stroke="none"/>
    </g>
    <linearGradient gradientTransform="matrix(0.0233, 0.0, 0.0, -0.0233, 25.95, 44.35)" gradientUnits="userSpaceOnUse" id="gradient13" spreadMethod="pad" x1="-819.2" x2="819.2">
      <stop offset="0.023529411764705882" stop-color="#808080"/>
      <stop offset="0.7294117647058823" stop-color="#e6e6e6"/>
      <stop offset="1.0" stop-color="#b3b3b3"/>
    </linearGradient>
    <g id="sprite2" transform="matrix(1.0, 0.0, 0.0, 1.0, 0.0, 0.0)">
      <use height="55.55" transform="matrix(1.0, 0.0, 0.0, 1.0, 0.0, 0.0)" width="109.55" xlink:href="#shape4"/>
    </g>
    <g id="shape4" transform="matrix(1.0, 0.0, 0.0, 1.0, 0.0, 0.0)">
      <path d="M95.6 17.9 Q102.3 25.25 106.05 34.2 109.55 42.6 109.55 50.05 109.55 52.4 109.05 54.5 106.3 38.0 92.95 25.15 77.2 10.0 54.8 10.0 32.0 10.0 16.45 25.1 3.0 38.15 0.45 55.55 0.0 53.75 0.0 51.3 0.0 43.1 3.5 34.4 7.2 25.15 13.9 17.75 29.9 0.0 54.8 0.0 79.35 0.0 95.6 17.9" fill="url(#gradient14)" fill-rule="evenodd" stroke="none"/>
    </g>
    <linearGradient gradientTransform="matrix(0.0, -0.0339, -0.0339, 0.0, 54.75, 27.75)" gradientUnits="userSpaceOnUse" id="gradient14" spreadMethod="pad" x1="-819.2" x2="819.2">
      <stop offset="0.12941176470588237" stop-color="#e8b8b3"/>
      <stop offset="0.9254901960784314" stop-color="#ffffff"/>
    </linearGradient>
    <g id="sprite3" transform="matrix(1.0, 0.0, 0.0, 1.0, 0.0, 0.0)">
      <use height="61.05" transform="matrix(1.0, 0.0, 0.0, 1.0, 0.0, 0.0)" width="109.55" xlink:href="#shape5"/>
    </g>
    <g id="shape5" transform="matrix(1.0, 0.0, 0.0, 1.0, 0.0, 0.0)">
      <path d="M106.05 34.2 Q109.55 42.6 109.55 50.05 109.55 57.45 105.25 59.4 101.75 60.95 93.5 59.35 L76.1 55.35 Q64.15 52.8 54.8 52.8 45.35 52.8 33.5 55.55 L16.05 59.95 Q7.8 61.85 4.3 60.45 0.0 58.7 0.0 51.3 0.0 43.1 3.5 34.4 7.2 25.15 13.9 17.75 29.9 0.0 54.8 0.0 79.35 0.0 95.6 17.9 102.3 25.25 106.05 34.2" fill="#ffffff" fill-rule="evenodd" stroke="none"/>
    </g>
    <g id="sprite4" transform="matrix(1.0, 0.0, 0.0, 1.0, 0.0, 0.0)">
      <use height="56.8" transform="matrix(1.0, 0.0, 0.0, 1.0, 0.0, 0.0)" width="118.15" xlink:href="#shape6"/>
    </g>
    <g id="shape6" transform="matrix(1.0, 0.0, 0.0, 1.0, 0.0, 0.0)">
      <path d="M95.1 30.15 Q111.1 18.7 117.65 0.25 L118.15 0.0 Q117.3 23.75 100.15 40.25 82.95 56.8 59.05 56.8 35.55 56.8 18.5 40.8 1.5 24.85 0.0 1.7 6.9 19.6 22.65 30.6 38.8 41.85 58.55 41.85 78.75 41.85 95.1 30.15" fill="url(#gradient15)" fill-rule="evenodd" stroke="none"/>
    </g>
    <radialGradient cx="0" cy="0" gradientTransform="matrix(0.0566, 0.0, 0.0, -0.0566, 59.05, 28.45)" gradientUnits="userSpaceOnUse" id="gradient15" r="819.2" spreadMethod="pad">
      <stop offset="0.0" stop-color="#c5eee7" stop-opacity="0.0"/>
      <stop offset="0.06274509803921569" stop-color="#c0ecde" stop-opacity="0.043137256"/>
      <stop offset="0.16862745098039217" stop-color="#b1e7c4" stop-opacity="0.16862746"/>
      <stop offset="0.3058823529411765" stop-color="#99df9b" stop-opacity="0.37254903"/>
      <stop offset="0.47058823529411764" stop-color="#77d367" stop-opacity="0.6509804"/>
      <stop offset="0.6509803921568628" stop-color="#49c540"/>
    </radialGradient>
  </defs>
</svg>
