<?xml version="1.0" encoding="UTF-8" standalone="no"?>
<svg xmlns:xlink="http://www.w3.org/1999/xlink" height="32.7px" width="42.95px" xmlns="http://www.w3.org/2000/svg">
  <g transform="matrix(1.0, 0.0, 0.0, 1.0, 0.0, 0.0)">
    <use height="32.7" transform="matrix(1.0, 0.0, 0.0, 1.0, 1.0, 0.0)" width="40.9" xlink:href="#shape0"/>
  </g>
  <defs>
    <g id="shape0" transform="matrix(1.0, 0.0, 0.0, 1.0, -1.0, 0.0)">
      <path d="M41.15 25.1 L25.95 32.3 Q25.15 32.7 23.9 32.7 L21.4 32.4 1.75 27.0 Q1.05 26.7 1.0 26.1 0.95 25.5 1.6 25.35 L2.3 25.35 3.1 25.4 15.5 20.8 Q17.75 20.0 18.7 19.75 L20.7 19.7 41.05 23.25 Q41.85 23.5 41.9 24.1 41.9 24.7 41.15 25.1" fill="#ffffff" fill-rule="evenodd" stroke="none"/>
      <path d="M34.75 22.35 L35.75 22.35 41.05 23.25 Q41.85 23.5 41.9 24.1 41.9 24.7 41.15 25.1 L25.95 32.3 23.85 32.7 23.75 31.9 Q23.6 31.45 23.3 31.3 L34.75 22.35" fill="#d4d5d6" fill-rule="evenodd" stroke="none"/>
      <path d="M40.9 24.5 L25.8 31.25 23.9 31.7 21.9 31.55 2.0 26.3 1.2 25.9 Q1.0 25.65 1.25 25.35 L1.9 24.9 15.5 20.1 18.75 19.1 20.7 19.0 40.8 23.15 Q41.6 23.35 41.65 23.8 41.7 24.2 40.9 24.5" fill="url(#gradient0)" fill-rule="evenodd" stroke="none"/>
      <path d="M3.8 25.8 Q4.7 26.4 8.7 27.7 L16.1 30.0 2.0 26.3 1.2 25.9 Q1.0 25.65 1.25 25.35 L1.9 24.9 13.65 20.75 Q6.7 23.5 6.3 23.7 2.9 25.2 3.8 25.8" fill="#c9c9c9" fill-rule="evenodd" stroke="none"/>
      <path d="M40.8 23.15 Q41.6 23.35 41.65 23.8 41.7 24.2 40.9 24.5 L25.8 31.25 23.9 31.7 21.9 31.55 19.5 30.9 21.7 31.0 24.3 30.6 Q27.4 29.8 32.7 27.65 37.4 25.7 39.3 24.65 L40.8 23.65 Q41.0 23.35 40.1 23.0 L40.8 23.15" fill="#ffffff" fill-rule="evenodd" stroke="none"/>
      <path d="M34.75 23.95 L36.9 24.75 Q38.05 25.25 36.45 25.9 L32.9 27.3 Q27.3 29.9 25.9 29.9 L23.7 29.95 Q22.35 29.9 21.6 29.5 L17.9 28.55 14.5 27.7 12.7 27.05 Q11.3 26.5 10.5 25.7 9.5 24.7 9.4 23.7 9.25 22.9 9.7 22.7 22.4 22.3 26.5 22.5 L30.1 23.05 32.3 23.6 34.75 23.95" fill="#bdbdbd" fill-rule="evenodd" stroke="none"/>
      <path d="M33.9 21.95 Q34.2 22.1 34.5 22.95 L34.75 24.1 34.6 25.8 33.15 26.7 Q32.15 26.8 31.3 27.2 29.0 28.55 28.0 28.75 L27.1 28.85 26.7 28.8 25.4 28.95 23.9 29.15 22.1 28.55 Q20.6 28.0 19.95 28.0 L17.8 27.9 16.9 27.65 16.15 27.5 Q14.7 27.5 13.6 26.9 13.05 26.55 12.4 26.35 L11.35 25.95 9.4 24.95 8.7 24.35 8.3 23.75 7.9 22.9 7.95 22.0 8.2 20.55 9.35 19.7 33.9 21.95" fill="#c77a18" fill-rule="evenodd" stroke="none"/>
      <path d="M33.9 21.95 Q34.2 22.1 34.5 22.95 L34.75 24.1 34.6 25.8 33.15 26.7 Q32.15 26.8 31.3 27.2 29.0 28.55 28.0 28.75 L27.1 28.85 26.7 28.8 25.4 28.95 23.9 29.15 22.1 28.55 Q20.6 28.0 19.95 28.0 L17.8 27.9 16.9 27.65 16.15 27.5 Q14.7 27.5 13.6 26.9 13.05 26.55 12.4 26.35 L11.35 25.95 9.4 24.95 8.7 24.35 8.3 23.75 7.9 22.9 7.95 22.0 8.2 20.55 8.9 20.05 9.1 20.55 9.2 21.15 Q9.4 21.55 8.9 21.7 L8.3 22.35 8.1 22.7 8.3 22.95 8.75 23.75 9.0 24.35 11.35 25.4 12.2 25.3 Q12.55 25.3 13.15 25.9 L13.55 26.1 14.6 26.8 15.7 26.95 16.9 27.1 17.7 27.35 18.6 27.55 20.0 27.6 21.6 27.7 21.55 27.4 22.05 27.5 22.95 27.4 22.7 27.3 21.95 27.15 21.05 27.1 19.75 26.75 Q19.5 26.5 18.95 26.4 L16.75 25.9 15.3 25.3 14.05 24.4 25.5 21.1 33.9 21.95" fill="#b86419" fill-rule="evenodd" stroke="none"/>
      <path d="M15.9 26.35 Q16.85 26.3 16.75 26.7 L16.7 26.8 16.3 26.7 15.35 26.75 Q15.1 26.7 15.3 26.55 L15.9 26.35" fill="#b86419" fill-rule="evenodd" stroke="none"/>
      <path d="M17.5 26.5 Q17.8 26.45 17.9 26.65 L17.9 26.9 17.4 26.85 17.35 26.7 17.5 26.5" fill="#b86419" fill-rule="evenodd" stroke="none"/>
      <path d="M19.9 27.1 Q20.5 27.1 20.2 27.45 L19.7 27.4 Q19.5 27.3 19.6 27.2 19.7 27.1 19.9 27.1" fill="#b86419" fill-rule="evenodd" stroke="none"/>
      <path d="M10.9 24.65 L11.3 24.9 11.35 25.2 11.05 25.15 10.6 24.9 10.3 24.7 10.9 24.65" fill="#b86419" fill-rule="evenodd" stroke="none"/>
      <path d="M25.15 27.4 Q25.45 27.45 25.6 27.7 25.75 27.9 25.4 28.1 L24.95 28.2 24.55 28.15 Q24.05 28.15 23.8 27.6 L25.15 27.4" fill="#c77a18" fill-rule="evenodd" stroke="none"/>
      <path d="M26.7 27.2 L27.0 27.55 Q27.15 27.85 26.9 27.9 L26.55 27.85 26.3 27.5 Q26.1 27.3 26.25 27.1 L26.7 27.2" fill="#c77a18" fill-rule="evenodd" stroke="none"/>
      <path d="M28.9 27.0 Q29.85 27.1 29.5 27.5 L29.25 27.7 28.7 27.65 Q28.3 27.6 28.45 27.3 28.5 27.0 28.9 27.0" fill="#c77a18" fill-rule="evenodd" stroke="none"/>
      <path d="M28.1 27.9 Q28.5 27.9 28.5 28.1 L28.1 28.25 27.9 28.1 28.1 27.9" fill="#c77a18" fill-rule="evenodd" stroke="none"/>
      <path d="M33.4 25.15 L33.7 25.5 33.55 25.75 33.1 25.95 32.7 26.1 32.3 26.0 32.1 25.8 32.1 25.6 Q31.75 25.45 32.75 25.1 L33.4 25.15" fill="#c77a18" fill-rule="evenodd" stroke="none"/>
      <path d="M34.2 24.3 Q34.6 24.3 34.2 25.0 L34.05 25.1 33.75 24.9 Q33.55 24.85 33.75 24.55 33.9 24.3 34.2 24.3" fill="#c77a18" fill-rule="evenodd" stroke="none"/>
      <path d="M34.15 25.5 L34.4 25.65 34.1 25.9 33.95 25.8 34.15 25.5" fill="#c77a18" fill-rule="evenodd" stroke="none"/>
      <path d="M23.0 27.8 L23.65 28.15 23.2 28.5 22.7 28.45 22.3 28.0 Q22.1 27.85 22.4 27.75 L23.0 27.8" fill="#c77a18" fill-rule="evenodd" stroke="none"/>
      <path d="M33.5 21.5 Q34.3 21.95 34.2 22.5 L34.25 22.7 34.1 23.4 33.9 24.1 33.3 24.45 32.45 24.85 31.75 25.1 31.15 25.4 Q30.75 25.5 30.45 25.7 L28.5 26.35 25.9 26.75 24.35 26.8 23.1 26.7 19.05 26.1 16.95 25.8 15.05 25.5 14.05 25.3 12.9 25.0 Q11.65 24.7 10.05 23.7 9.05 23.55 8.9 23.1 L8.75 22.5 8.9 21.7 Q9.1 21.3 8.7 20.9 8.3 20.5 8.55 20.15 L10.85 18.5 Q11.55 18.0 12.4 17.8 L13.9 17.45 16.6 17.15 19.35 17.25 22.55 17.5 25.8 18.1 27.25 18.5 27.9 18.6 Q28.6 18.75 28.9 19.0 29.45 19.45 30.35 19.6 L31.3 20.1 32.1 20.35 32.75 20.7 Q33.15 21.3 33.5 21.5" fill="#d98923" fill-rule="evenodd" stroke="none"/>
      <path d="M33.5 21.5 L33.9 21.85 32.7 22.1 32.45 21.9 32.3 21.6 31.2 21.3 30.3 20.9 Q30.1 20.75 30.3 20.4 L30.4 19.9 29.8 19.7 29.1 19.7 27.6 19.5 27.25 19.4 26.5 19.3 25.45 18.9 24.7 18.9 24.2 18.95 24.15 18.7 24.3 18.5 23.4 18.2 22.1 18.2 21.85 18.25 21.0 18.4 Q20.45 18.5 19.9 18.1 L19.2 17.6 18.8 17.55 18.1 17.6 17.25 17.7 16.5 17.6 14.5 17.3 16.6 17.15 19.35 17.25 22.55 17.5 25.8 18.1 27.25 18.5 27.9 18.6 Q28.6 18.75 28.9 19.0 29.45 19.45 30.35 19.6 L31.3 20.1 32.1 20.35 32.75 20.7 Q33.15 21.3 33.5 21.5" fill="#c77a18" fill-rule="evenodd" stroke="none"/>
      <path d="M22.15 24.2 L22.3 24.05 22.4 23.85 23.65 23.8 Q23.95 23.75 23.7 24.1 L23.2 24.6 22.65 24.8 22.1 24.9 Q21.95 24.9 21.55 25.2 L20.8 25.25 20.65 25.1 20.7 24.9 21.2 24.45 22.15 24.2" fill="#c77a18" fill-rule="evenodd" stroke="none"/>
      <path d="M25.5 24.35 L26.4 24.45 26.65 24.7 Q26.6 24.85 26.0 25.0 L25.35 25.1 Q25.1 25.1 24.7 24.7 24.45 24.45 25.5 24.35" fill="#c77a18" fill-rule="evenodd" stroke="none"/>
      <path d="M32.9 20.95 L32.3 21.6 31.4 21.8 31.0 22.05 30.9 22.4 30.95 23.05 Q30.95 23.35 29.9 23.35 L28.3 23.1 Q27.9 23.1 28.0 22.85 L29.8 22.45 29.7 22.2 29.7 21.75 30.35 21.6 31.2 21.3 32.0 20.95 32.75 20.7 Q33.1 20.65 32.9 20.95" fill="#c77a18" fill-rule="evenodd" stroke="none"/>
      <path d="M30.3 20.45 L29.9 20.55 28.9 20.6 Q29.1 20.45 29.35 20.25 29.6 20.1 30.1 20.05 L30.9 20.1 30.7 20.2 31.15 20.3 30.6 20.3 30.3 20.45" fill="#c77a18" fill-rule="evenodd" stroke="none"/>
      <path d="M28.4 19.65 L27.6 19.7 26.9 19.85 26.15 20.05 Q25.9 20.05 25.85 19.9 L25.8 19.7 26.85 19.25 28.1 19.1 28.6 19.5 28.4 19.65" fill="#c77a18" fill-rule="evenodd" stroke="none"/>
      <path d="M27.4 20.5 Q27.6 20.8 27.2 20.85 L26.55 20.9 26.5 20.75 26.65 20.6 27.4 20.5" fill="#c77a18" fill-rule="evenodd" stroke="none"/>
      <path d="M16.7 24.7 L17.55 24.2 17.8 23.9 Q17.9 23.7 18.25 23.6 L19.05 22.95 Q19.5 22.5 19.65 22.55 L20.6 22.8 21.5 22.7 22.15 22.5 23.2 22.45 24.0 22.7 23.5 22.7 22.65 22.95 22.5 23.15 22.3 23.4 22.15 23.5 21.9 23.7 21.35 23.75 21.0 23.95 20.5 24.1 20.1 24.1 19.6 24.55 19.45 24.7 19.0 24.75 18.45 24.9 18.1 25.0 17.05 24.95 16.75 24.9 Q16.5 24.9 16.7 24.7" fill="#c77a18" fill-rule="evenodd" stroke="none"/>
      <path d="M25.8 21.9 L26.55 22.0 26.8 22.1 26.9 22.4 26.95 22.5 26.6 22.6 26.0 22.95 25.5 23.05 25.1 23.0 24.3 22.7 Q23.95 22.65 24.3 22.5 L24.95 22.4 25.2 22.2 Q25.45 22.0 25.8 21.9" fill="#c77a18" fill-rule="evenodd" stroke="none"/>
      <path d="M25.7 18.5 L26.05 18.75 25.45 18.9 Q25.15 18.9 24.8 18.7 24.3 18.5 25.7 18.5" fill="#c77a18" fill-rule="evenodd" stroke="none"/>
      <path d="M19.85 17.95 L20.8 17.8 22.0 17.8 23.35 17.95 Q23.75 17.95 24.1 18.3 L23.6 18.7 22.9 18.75 Q22.75 18.75 22.85 18.5 L22.9 18.3 21.8 18.6 21.0 18.4 Q19.55 18.1 19.85 17.95" fill="#c77a18" fill-rule="evenodd" stroke="none"/>
      <path d="M20.35 19.75 L21.8 19.7 23.7 19.8 24.15 19.9 24.35 20.1 24.1 20.3 23.2 20.4 22.6 20.5 22.2 20.7 21.45 20.55 20.9 20.2 20.35 19.75" fill="#c77a18" fill-rule="evenodd" stroke="none"/>
      <path d="M22.1 19.05 Q22.35 19.05 22.5 19.2 22.7 19.35 22.2 19.35 L20.35 19.35 Q20.05 19.35 20.3 18.9 20.45 18.75 20.9 19.1 L22.1 19.05" fill="#c77a18" fill-rule="evenodd" stroke="none"/>
      <path d="M16.55 23.6 L16.2 23.6 15.2 23.5 14.5 23.4 Q14.65 22.9 15.5 22.7 L15.9 22.6 18.2 21.6 Q18.75 21.7 18.55 21.8 L18.1 22.0 Q17.8 22.05 17.45 22.75 L16.9 23.5 16.55 23.6" fill="#c77a18" fill-rule="evenodd" stroke="none"/>
      <path d="M16.2 21.15 L16.5 21.25 Q16.75 21.45 16.6 21.5 L15.6 21.95 14.9 22.1 Q14.3 22.2 14.15 22.45 L14.0 22.9 13.7 23.1 13.0 23.4 12.85 23.35 12.9 23.2 13.2 22.7 Q12.3 23.3 11.75 23.2 11.1 23.05 11.35 22.8 L11.9 22.6 12.5 22.35 13.4 21.9 13.8 21.7 14.2 21.7 15.4 21.6 Q15.8 21.3 16.2 21.15" fill="#c77a18" fill-rule="evenodd" stroke="none"/>
      <path d="M19.3 20.0 Q19.5 19.9 19.55 20.1 L19.55 20.45 19.55 20.65 19.55 20.9 18.95 21.0 18.5 20.8 Q18.25 20.6 18.7 20.6 L19.0 20.35 19.3 20.0" fill="#c77a18" fill-rule="evenodd" stroke="none"/>
      <path d="M13.3 23.9 L14.2 23.95 14.3 24.1 14.05 24.4 Q13.9 24.7 13.45 24.4 L12.6 24.3 Q12.3 24.3 13.3 23.9" fill="#c77a18" fill-rule="evenodd" stroke="none"/>
      <path d="M9.25 21.9 L9.5 21.85 9.8 21.85 10.4 21.6 11.9 21.05 11.9 21.25 11.6 21.55 Q10.75 22.1 10.4 22.6 L9.8 22.95 8.9 23.3 9.1 22.9 9.05 22.4 9.25 21.9" fill="#c77a18" fill-rule="evenodd" stroke="none"/>
      <path d="M15.1 19.6 L15.1 19.4 14.1 19.1 15.1 18.75 15.5 18.65 15.9 18.75 16.95 18.9 Q17.2 19.0 17.1 19.2 L16.75 19.6 14.9 20.3 14.05 20.55 13.9 20.3 Q13.55 20.25 14.05 19.95 14.5 19.7 15.1 19.6" fill="#c77a18" fill-rule="evenodd" stroke="none"/>
      <path d="M11.5 19.15 L12.8 18.7 Q13.05 18.65 12.75 18.8 L12.2 18.95 Q12.0 18.95 11.95 19.05 L11.8 19.3 11.1 19.75 10.7 19.85 10.3 19.75 Q10.0 19.7 10.4 19.5 10.8 19.2 11.5 19.15" fill="#c77a18" fill-rule="evenodd" stroke="none"/>
      <path d="M17.15 17.6 Q18.2 17.6 17.8 17.75 L17.3 18.0 16.55 18.05 15.8 18.0 Q15.5 17.95 16.1 17.8 L17.15 17.6" fill="#c77a18" fill-rule="evenodd" stroke="none"/>
      <path d="M19.2 18.65 L19.1 18.85 19.15 19.0 18.8 19.1 17.6 18.9 Q16.9 18.75 17.15 18.6 L17.8 18.3 18.5 18.05 19.3 17.9 19.65 17.8 Q19.55 17.9 19.6 18.25 L19.5 18.45 19.2 18.65" fill="#c77a18" fill-rule="evenodd" stroke="none"/>
      <path d="M18.85 19.6 L18.85 19.7 18.4 19.95 17.9 20.15 17.6 20.0 17.4 19.9 17.1 19.9 Q16.9 19.85 17.1 19.7 17.3 19.55 17.6 19.5 L18.85 19.6" fill="#c77a18" fill-rule="evenodd" stroke="none"/>
      <path d="M32.0 20.95 Q31.6 21.1 31.5 21.2 L30.8 21.6 30.4 21.65 29.7 21.55 28.3 21.5 28.2 21.4 28.1 21.2 28.3 21.0 28.7 20.7 29.2 20.55 31.0 20.2 Q32.2 20.1 31.55 20.3 L32.1 20.4 32.85 20.7 32.75 20.7 32.0 20.95" fill="#e09636" fill-rule="evenodd" stroke="none"/>
      <path d="M26.35 21.85 L25.4 22.05 25.1 22.25 24.95 22.4 24.55 22.3 24.15 22.25 23.25 22.2 23.6 22.0 23.85 21.7 24.3 21.35 25.25 21.1 27.2 21.1 26.95 21.4 26.35 21.85" fill="#e09636" fill-rule="evenodd" stroke="none"/>
      <path d="M21.4 20.4 L22.5 20.6 23.55 20.55 21.9 21.45 21.05 21.8 21.2 21.75 20.0 21.55 19.55 21.5 18.85 21.45 Q18.3 21.4 18.55 21.3 L18.9 21.2 19.25 20.85 19.7 20.45 Q20.15 20.05 20.45 20.0 L20.95 20.1 21.4 20.4" fill="#e09636" fill-rule="evenodd" stroke="none"/>
      <path d="M12.1 18.3 L12.8 18.1 13.3 17.95 13.7 17.85 14.5 17.7 15.6 17.5 16.5 17.6 15.9 17.9 Q15.5 18.0 15.5 18.45 15.4 18.65 15.1 18.65 L14.4 18.55 13.75 18.45 12.9 18.5 12.05 18.45 Q11.8 18.4 12.1 18.3" fill="#e09636" fill-rule="evenodd" stroke="none"/>
      <path d="M11.0 18.7 L11.4 18.75 Q11.65 18.9 11.35 19.1 L11.1 19.35 11.3 19.65 12.25 19.8 Q12.5 19.8 12.4 20.05 L12.05 20.35 11.1 20.6 Q10.85 20.7 10.75 20.8 L10.5 21.2 10.1 21.45 9.6 21.4 Q9.35 21.35 9.45 21.15 L9.6 20.9 9.5 20.8 9.3 20.6 Q9.1 20.45 9.2 20.2 9.2 20.0 9.85 19.55 L10.35 19.1 11.0 18.7" fill="#e09636" fill-rule="evenodd" stroke="none"/>
      <path d="M14.0 19.2 L14.65 19.2 14.9 19.5 14.75 19.65 14.35 19.7 14.0 19.9 13.6 19.9 13.1 19.9 12.9 19.75 Q12.75 19.7 13.15 19.5 L14.0 19.2" fill="#e09636" fill-rule="evenodd" stroke="none"/>
      <path d="M19.9 17.7 Q19.0 17.9 18.45 18.3 L18.2 18.4 16.75 18.7 16.65 18.55 Q16.6 18.4 17.0 18.15 17.9 17.6 18.1 17.6 L19.2 17.6 20.05 17.55 Q20.4 17.55 19.9 17.7" fill="#e09636" fill-rule="evenodd" stroke="none"/>
      <path d="M15.25 20.5 L17.1 20.4 Q17.45 20.45 17.3 20.7 L16.1 21.3 15.1 21.9 14.7 21.9 14.1 21.9 12.6 22.05 Q12.1 22.1 12.3 21.95 L12.7 21.65 Q12.95 21.3 13.55 21.3 L14.4 20.95 15.25 20.5" fill="#e09636" fill-rule="evenodd" stroke="none"/>
      <path d="M16.65 23.65 L17.15 23.1 17.7 22.6 18.55 22.4 18.95 22.3 19.55 22.25 19.75 22.45 18.85 23.2 17.95 23.75 Q17.55 23.9 17.15 24.2 L16.6 24.5 16.3 24.3 Q16.05 24.25 16.1 24.15 16.1 24.1 16.65 23.65" fill="#e09636" fill-rule="evenodd" stroke="none"/>
      <path d="M24.9 19.1 L26.7 18.85 26.9 18.9 26.7 19.25 26.5 19.5 26.3 19.5 25.5 19.85 24.6 19.7 23.7 19.3 Q23.15 19.1 23.85 19.1 L24.9 19.1" fill="#e09636" fill-rule="evenodd" stroke="none"/>
      <path d="M27.95 19.65 L28.6 19.7 28.8 19.95 28.4 20.2 27.8 20.45 27.45 20.35 27.05 20.2 Q26.65 20.05 27.95 19.65" fill="#e09636" fill-rule="evenodd" stroke="none"/>
      <path d="M26.9 24.25 L26.9 24.35 26.2 23.9 Q25.7 23.45 25.85 23.3 L28.0 22.85 28.55 23.05 29.25 23.55 Q29.45 23.75 29.1 23.8 L27.7 24.0 26.9 24.25" fill="#e09636" fill-rule="evenodd" stroke="none"/>
      <path d="M11.5 18.8 L11.35 19.1 11.15 19.2 10.9 19.2 10.5 19.6 9.9 20.0 9.4 20.3 Q9.2 20.3 9.5 19.85 L10.1 19.4 10.75 18.8 11.0 18.7 11.3 18.7 11.5 18.8" fill="#f5b151" fill-rule="evenodd" stroke="none"/>
      <path d="M14.1 17.85 L13.7 18.1 13.2 18.2 12.4 18.25 Q12.1 18.1 12.8 18.1 L13.3 17.9 14.1 17.85" fill="#f5b151" fill-rule="evenodd" stroke="none"/>
      <path d="M15.3 17.5 L15.5 17.7 15.1 17.7 14.8 17.7 Q14.55 17.65 14.8 17.55 L15.3 17.5" fill="#f5b151" fill-rule="evenodd" stroke="none"/>
      <path d="M14.5 17.9 L14.85 17.95 14.7 18.1 14.3 18.1 14.25 18.05 14.5 17.9" fill="#f5b151" fill-rule="evenodd" stroke="none"/>
      <path d="M14.0 19.2 Q14.6 19.2 14.35 19.45 L14.15 19.55 13.95 19.55 13.7 19.4 13.55 19.4 14.0 19.2" fill="#f5b151" fill-rule="evenodd" stroke="none"/>
      <path d="M18.0 17.7 L18.5 17.75 18.7 17.9 18.3 18.05 17.8 18.05 17.55 17.95 17.65 17.8 18.0 17.7" fill="#f5b151" fill-rule="evenodd" stroke="none"/>
      <path d="M15.4 20.5 L15.8 20.65 16.3 20.7 16.45 20.85 16.4 21.0 16.0 21.1 15.55 21.05 14.9 21.1 Q14.65 21.1 14.9 20.85 L15.4 20.5" fill="#f5b151" fill-rule="evenodd" stroke="none"/>
      <path d="M13.9 21.45 L14.25 21.55 14.2 21.7 13.85 21.7 13.25 21.65 Q12.95 21.6 13.9 21.45" fill="#f5b151" fill-rule="evenodd" stroke="none"/>
      <path d="M20.5 20.3 Q21.05 20.3 21.0 20.5 L20.6 20.75 20.1 20.9 19.65 20.9 Q19.5 20.85 19.8 20.65 L20.05 20.5 20.5 20.3" fill="#f5b151" fill-rule="evenodd" stroke="none"/>
      <path d="M22.8 20.75 L21.4 21.2 21.05 21.2 21.5 20.95 22.2 20.7 22.75 20.65 22.8 20.75" fill="#f5b151" fill-rule="evenodd" stroke="none"/>
      <path d="M18.35 22.45 L19.4 22.45 19.5 22.55 19.0 22.8 18.4 23.0 18.1 23.1 18.1 22.95 17.7 22.8 18.35 22.45" fill="#f5b151" fill-rule="evenodd" stroke="none"/>
      <path d="M17.25 23.4 L17.7 23.45 17.6 23.65 17.05 23.85 Q16.9 23.85 17.0 23.65 L17.25 23.4" fill="#f5b151" fill-rule="evenodd" stroke="none"/>
      <path d="M27.6 23.0 Q28.35 23.0 28.3 23.35 L28.25 23.45 28.1 23.35 27.55 23.3 26.85 23.3 Q26.5 23.3 26.85 23.15 L27.6 23.0" fill="#f5b151" fill-rule="evenodd" stroke="none"/>
      <path d="M24.95 21.3 L25.75 21.4 Q25.95 21.6 25.7 21.6 L25.2 21.7 24.4 21.7 Q24.1 21.65 24.35 21.5 L24.95 21.3" fill="#f5b151" fill-rule="evenodd" stroke="none"/>
      <path d="M28.05 19.8 L28.3 19.85 28.05 20.05 27.85 20.1 27.6 20.05 27.5 19.9 28.05 19.8" fill="#f5b151" fill-rule="evenodd" stroke="none"/>
      <path d="M29.5 20.65 L30.65 20.65 30.85 20.7 30.9 20.85 30.9 21.0 30.5 21.1 30.1 21.15 29.6 21.2 28.9 21.2 Q28.65 21.15 28.9 20.9 29.15 20.65 29.5 20.65" fill="#f5b151" fill-rule="evenodd" stroke="none"/>
      <path d="M25.3 19.1 L26.3 19.15 26.0 19.3 25.45 19.4 24.8 19.3 Q24.5 19.25 25.3 19.1" fill="#f5b151" fill-rule="evenodd" stroke="none"/>
      <path d="M34.2 22.5 L34.25 22.7 34.1 23.4 33.9 24.1 33.3 24.45 32.45 24.85 31.75 25.1 31.15 25.4 Q30.75 25.5 30.45 25.7 L28.5 26.35 25.9 26.75 24.35 26.8 23.1 26.7 19.05 26.1 16.95 25.8 15.05 25.5 14.05 25.3 12.9 25.0 Q11.9 24.8 10.45 23.95 L11.4 24.2 13.15 24.4 16.3 24.9 17.4 25.3 18.35 25.35 19.9 25.4 21.0 25.75 21.9 25.9 23.0 25.95 24.1 25.85 25.15 25.8 26.5 25.8 27.3 25.55 28.3 24.95 28.45 24.6 Q28.55 24.4 29.1 24.3 L30.4 24.3 31.6 24.15 33.1 23.0 31.7 22.75 31.3 22.4 Q31.0 22.1 31.35 22.15 L31.7 22.1 32.15 22.15 32.9 22.0 Q33.8 21.7 33.5 21.5 34.3 21.95 34.2 22.5" fill="#f0ab54" fill-rule="evenodd" stroke="none"/>
      <path d="M5.4 26.55 L8.9 25.9 12.95 26.1 Q13.7 27.3 15.3 27.55 L14.7 27.55 12.3 27.8 9.35 27.7 7.15 27.15 5.4 26.55" fill="#bdbdbd" fill-rule="evenodd" stroke="none"/>
      <path d="M23.3 16.9 L23.7 17.4 24.5 17.85 26.8 18.4 27.3 18.5 26.1 19.55 23.75 21.3 22.75 22.25 Q22.25 22.8 21.75 22.95 L20.85 23.5 19.7 23.95 18.55 24.2 17.6 24.5 Q17.05 24.7 16.35 25.15 16.05 25.4 15.8 25.6 L15.6 25.9 Q15.4 26.3 15.5 26.55 15.55 27.1 15.95 27.4 L14.85 27.4 Q13.65 27.15 13.2 26.2 12.8 25.25 13.75 23.05 14.5 21.35 15.0 20.8 15.2 20.65 19.3 18.75 L23.3 16.9" fill="#a15716" fill-rule="evenodd" stroke="none"/>
      <path d="M26.2 12.6 L26.9 14.05 27.25 14.9 27.1 15.95 26.5 17.55 25.0 19.2 24.15 19.95 23.2 20.9 22.1 21.85 21.05 22.3 20.4 22.7 19.65 23.25 17.7 24.05 Q17.1 24.25 15.9 25.3 L14.45 26.5 13.0 26.7 11.75 27.0 11.45 27.15 10.5 27.35 8.75 27.15 7.05 26.8 6.0 26.75 5.15 26.85 Q3.95 26.85 3.5 26.4 L3.15 25.5 2.9 24.65 2.7 23.4 Q2.75 22.35 3.0 22.1 L14.1 16.95 24.9 12.05 26.2 12.6" fill="#c77a18" fill-rule="evenodd" stroke="none"/>
      <path d="M21.1 19.75 L20.0 20.85 18.1 22.1 17.5 22.7 16.45 23.4 15.6 23.75 15.0 24.15 Q14.5 24.4 14.75 24.35 L16.1 23.9 16.05 24.1 Q16.0 24.3 16.1 24.25 L17.5 23.65 18.8 23.15 19.6 22.65 19.75 22.45 20.25 22.1 21.3 21.6 22.3 21.1 23.0 20.05 23.3 19.7 23.55 19.3 Q23.8 18.85 24.0 18.75 L24.85 18.65 26.65 16.8 26.7 16.1 26.9 15.1 26.9 14.75 26.7 14.5 26.15 14.2 25.9 14.0 Q25.4 14.0 25.45 13.5 L25.4 12.9 25.4 12.3 26.2 12.6 26.9 14.05 27.25 14.9 27.1 15.95 26.5 17.55 25.0 19.2 24.15 19.95 23.2 20.9 22.1 21.85 21.05 22.3 20.4 22.7 19.65 23.25 17.7 24.05 Q17.1 24.25 15.9 25.3 L14.45 26.5 13.0 26.7 11.75 27.0 11.45 27.15 10.5 27.35 8.75 27.15 7.05 26.8 6.0 26.75 5.15 26.85 Q3.95 26.85 3.5 26.4 L3.15 25.5 2.9 24.65 2.7 23.4 Q2.75 22.35 3.0 22.1 L10.45 18.6 22.05 18.45 21.1 19.75" fill="#b86419" fill-rule="evenodd" stroke="none"/>
      <path d="M20.9 21.05 L21.55 21.05 Q21.85 21.15 21.55 21.3 L20.7 21.55 20.35 21.7 20.25 21.65 Q20.2 21.5 20.4 21.3 20.65 21.1 20.9 21.05" fill="#b86419" fill-rule="evenodd" stroke="none"/>
      <path d="M19.5 21.7 L19.7 21.85 19.7 22.05 19.25 22.25 19.15 21.95 19.5 21.7" fill="#b86419" fill-rule="evenodd" stroke="none"/>
      <path d="M17.5 23.1 L17.8 23.1 17.75 23.3 17.3 23.55 17.2 23.4 Q17.15 23.2 17.5 23.1" fill="#b86419" fill-rule="evenodd" stroke="none"/>
      <path d="M25.05 17.7 L25.55 17.55 25.3 17.85 25.0 18.3 24.75 18.4 24.7 18.05 25.05 17.7" fill="#b86419" fill-rule="evenodd" stroke="none"/>
      <path d="M12.75 25.1 Q14.05 24.4 14.05 24.85 14.05 25.45 13.5 25.65 L13.2 25.8 12.7 25.85 Q12.3 25.8 12.4 25.5 L12.75 25.1" fill="#c77a18" fill-rule="evenodd" stroke="none"/>
      <path d="M11.25 25.3 Q11.5 24.95 11.7 25.1 L11.7 25.5 11.6 25.95 11.3 26.1 Q11.05 26.1 11.1 25.8 11.1 25.5 11.25 25.3" fill="#c77a18" fill-rule="evenodd" stroke="none"/>
      <path d="M9.15 25.85 Q9.5 25.7 9.7 26.0 9.9 26.3 9.5 26.45 L9.1 26.65 8.75 26.55 Q8.3 26.2 9.15 25.85" fill="#c77a18" fill-rule="evenodd" stroke="none"/>
      <path d="M10.15 26.5 L10.5 26.65 10.3 26.9 9.9 26.8 Q9.85 26.65 10.15 26.5" fill="#c77a18" fill-rule="evenodd" stroke="none"/>
      <path d="M4.45 25.3 Q4.7 25.05 5.05 25.1 6.0 25.1 5.8 25.35 L5.8 25.55 5.7 25.85 5.4 26.0 4.95 26.05 4.5 26.0 4.3 25.75 Q4.15 25.5 4.45 25.3" fill="#c77a18" fill-rule="evenodd" stroke="none"/>
      <path d="M3.45 24.7 L3.95 24.8 Q4.2 25.05 4.05 25.15 L3.65 25.4 Q3.15 24.8 3.45 24.7" fill="#c77a18" fill-rule="evenodd" stroke="none"/>
      <path d="M3.9 25.9 L4.05 26.3 Q3.8 26.3 3.7 26.1 3.65 25.95 3.9 25.9" fill="#c77a18" fill-rule="evenodd" stroke="none"/>
      <path d="M14.9 24.8 Q15.1 24.6 15.4 24.55 15.7 24.5 15.5 24.75 L15.35 25.35 Q15.25 25.65 14.9 25.55 L14.35 25.35 Q14.35 25.2 14.9 24.8" fill="#c77a18" fill-rule="evenodd" stroke="none"/>
      <path d="M22.3 19.35 L21.45 19.85 Q21.25 19.9 19.75 20.8 L18.9 21.35 18.0 21.8 Q17.65 21.9 16.1 22.7 L14.4 23.7 13.3 24.15 11.85 24.6 9.3 25.0 7.3 24.9 6.6 24.85 5.95 24.7 5.25 24.65 4.3 24.5 3.7 24.3 3.25 23.7 2.9 23.1 2.9 22.8 Q2.6 22.3 3.2 21.5 L3.65 20.5 Q3.7 20.15 4.15 19.9 L4.8 19.4 5.5 18.6 6.65 17.5 7.5 16.75 8.05 16.5 9.25 15.6 Q10.15 14.95 12.05 13.95 13.9 13.0 14.9 12.7 L17.4 11.7 19.95 11.15 21.5 11.05 23.1 11.3 24.65 11.75 25.75 12.3 Q26.1 12.6 25.9 13.1 25.6 13.7 25.9 14.0 L26.3 14.75 26.3 15.45 Q26.35 15.95 25.5 16.45 L23.25 18.7 Q23.1 18.75 22.3 19.35" fill="#d98923" fill-rule="evenodd" stroke="none"/>
      <path d="M17.65 12.1 L16.95 12.5 16.15 12.7 15.5 12.8 15.1 13.0 14.7 13.75 Q14.3 14.3 13.75 14.4 L12.9 14.5 12.65 14.55 11.5 14.95 10.75 15.5 10.9 15.65 Q11.1 15.85 10.95 16.0 L10.45 16.1 9.8 16.3 9.0 17.0 8.3 17.35 8.0 17.6 6.7 18.25 6.05 18.5 Q5.55 18.7 5.5 18.9 L5.85 19.4 6.0 19.9 5.3 20.6 4.3 21.3 4.15 21.9 2.9 22.05 3.2 21.5 3.65 20.5 Q3.7 20.15 4.15 19.9 L4.8 19.4 5.5 18.6 6.65 17.5 7.5 16.75 8.05 16.5 9.25 15.6 Q10.15 14.95 12.05 13.95 13.9 13.0 14.9 12.7 L17.4 11.7 19.4 11.25 Q18.0 11.7 17.65 12.1" fill="#c77a18" fill-rule="evenodd" stroke="none"/>
      <path d="M15.35 21.65 L14.75 21.5 14.25 21.55 13.9 21.65 Q13.75 21.7 13.65 21.55 L13.1 21.15 Q12.7 20.85 13.0 20.8 L14.15 20.5 14.3 20.65 14.5 20.8 15.45 20.75 Q15.95 20.85 16.05 21.05 L16.2 21.25 16.1 21.45 Q15.75 21.8 15.35 21.65" fill="#c77a18" fill-rule="evenodd" stroke="none"/>
      <path d="M11.5 22.0 Q12.5 21.7 12.3 22.1 L11.85 22.7 11.2 22.8 10.5 22.7 Q10.4 22.55 10.65 22.35 10.9 22.1 11.5 22.0" fill="#c77a18" fill-rule="evenodd" stroke="none"/>
      <path d="M8.5 21.6 L7.1 22.3 6.05 22.35 5.9 21.7 5.7 21.3 5.2 21.2 4.3 21.3 3.6 20.8 3.5 20.65 Q3.45 20.5 3.65 20.5 L4.45 20.5 5.3 20.6 6.1 20.65 6.75 20.6 Q7.0 20.8 6.9 21.35 L8.7 21.25 Q8.9 21.4 8.5 21.6" fill="#c77a18" fill-rule="evenodd" stroke="none"/>
      <path d="M7.2 19.15 L6.2 19.45 5.8 19.45 5.5 19.4 5.0 19.55 5.4 19.3 5.2 19.3 Q5.7 18.9 5.9 18.95 L6.65 18.95 7.2 19.15" fill="#c77a18" fill-rule="evenodd" stroke="none"/>
      <path d="M7.45 17.35 L8.3 17.1 8.65 17.1 9.7 17.25 Q9.85 17.6 9.5 17.7 L8.75 17.7 8.1 17.8 7.3 18.0 Q7.15 18.05 7.1 17.9 L7.25 17.6 7.45 17.35" fill="#c77a18" fill-rule="evenodd" stroke="none"/>
      <path d="M8.5 18.55 L9.25 18.45 Q9.7 18.6 9.45 18.75 L8.8 18.9 8.5 18.75 8.5 18.55" fill="#c77a18" fill-rule="evenodd" stroke="none"/>
      <path d="M17.9 18.95 Q18.3 18.95 18.4 19.1 L18.7 19.3 19.7 19.6 Q19.9 19.7 19.7 19.8 L19.45 19.95 18.5 20.3 17.55 20.35 17.15 20.45 16.95 20.3 16.35 20.05 16.0 20.1 15.5 20.15 15.1 20.1 14.6 20.15 14.3 20.1 14.1 20.05 13.9 19.8 13.65 19.65 12.8 19.7 12.3 19.8 12.95 19.3 13.95 19.05 14.7 19.05 15.5 18.85 16.3 18.3 Q16.45 18.15 16.95 18.5 17.6 18.95 17.9 18.95" fill="#c77a18" fill-rule="evenodd" stroke="none"/>
      <path d="M11.35 19.75 Q12.5 19.65 12.1 19.9 L11.45 20.45 11.05 20.65 10.6 20.7 9.9 20.5 9.55 20.55 9.55 20.45 9.6 20.05 Q9.6 19.9 9.75 19.9 L9.95 19.7 10.45 19.55 11.1 19.65 11.35 19.75" fill="#c77a18" fill-rule="evenodd" stroke="none"/>
      <path d="M9.5 16.0 L10.35 15.9 9.8 16.3 9.2 16.35 9.3 16.15 9.5 16.0" fill="#c77a18" fill-rule="evenodd" stroke="none"/>
      <path d="M14.7 13.55 L13.75 14.4 Q13.45 14.8 13.05 14.85 L11.95 14.9 12.05 15.1 12.1 15.35 11.45 15.5 10.9 15.3 11.05 15.05 11.45 14.7 12.6 14.1 13.7 13.7 14.7 13.55" fill="#c77a18" fill-rule="evenodd" stroke="none"/>
      <path d="M12.3 17.15 L11.2 17.25 11.3 16.9 11.7 16.7 13.4 16.0 14.75 15.6 Q14.35 15.9 14.4 16.2 L14.05 16.8 Q13.65 17.2 13.3 17.15 L12.9 17.1 12.3 17.15" fill="#c77a18" fill-rule="evenodd" stroke="none"/>
      <path d="M12.95 15.4 L14.05 15.1 Q14.4 14.55 14.5 14.7 14.9 15.1 14.65 15.15 L12.9 15.75 12.6 15.7 Q12.7 15.5 12.95 15.4" fill="#c77a18" fill-rule="evenodd" stroke="none"/>
      <path d="M19.75 17.2 L20.1 17.1 Q20.9 17.05 21.3 17.5 L20.7 17.9 Q20.5 17.9 19.8 18.3 L19.5 18.4 19.1 18.4 18.4 17.8 Q17.85 17.1 17.5 17.2 L17.2 17.2 17.1 17.1 Q16.9 17.1 17.1 16.95 L17.3 16.85 18.95 17.05 19.75 17.2" fill="#c77a18" fill-rule="evenodd" stroke="none"/>
      <path d="M19.8 16.4 L18.75 16.2 Q18.6 16.15 18.7 15.9 18.9 15.7 19.05 15.7 L19.9 15.95 Q20.45 16.2 21.05 15.7 L21.4 15.55 21.9 15.65 22.8 15.85 23.45 15.9 24.0 15.9 Q24.3 16.1 23.75 16.45 L22.3 16.4 22.7 16.85 22.8 16.95 22.7 17.05 21.95 17.0 21.65 16.85 21.3 16.45 19.8 16.4" fill="#c77a18" fill-rule="evenodd" stroke="none"/>
      <path d="M16.55 15.9 Q16.95 15.8 16.85 16.1 L16.45 16.45 16.1 16.55 15.9 16.5 15.75 16.3 15.7 16.1 15.6 15.7 Q15.6 15.5 15.8 15.55 L16.2 15.8 Q16.4 16.0 16.55 15.9" fill="#c77a18" fill-rule="evenodd" stroke="none"/>
      <path d="M22.55 17.7 Q23.7 17.7 23.3 17.9 22.7 18.1 22.6 18.3 22.2 18.7 22.05 18.45 L21.7 18.25 Q21.55 18.15 21.7 18.0 22.1 17.7 22.55 17.7" fill="#c77a18" fill-rule="evenodd" stroke="none"/>
      <path d="M25.15 14.45 L25.45 14.3 25.7 14.35 26.0 14.75 26.1 15.3 26.4 15.7 24.85 15.4 23.4 14.7 23.0 14.5 22.95 14.3 24.5 14.4 24.8 14.45 25.15 14.45" fill="#c77a18" fill-rule="evenodd" stroke="none"/>
      <path d="M18.9 12.9 L19.3 12.9 20.05 12.9 20.3 12.9 19.5 13.55 19.55 13.8 20.65 13.85 Q21.15 13.95 20.9 14.15 L20.85 14.45 19.95 14.5 18.05 14.3 17.55 13.95 Q17.45 13.8 17.65 13.65 L18.55 13.15 18.9 12.9" fill="#c77a18" fill-rule="evenodd" stroke="none"/>
      <path d="M22.75 12.15 L23.9 12.15 Q24.3 12.3 24.0 12.45 L23.7 12.65 23.3 12.7 22.5 12.45 22.25 12.2 22.0 12.2 21.5 12.25 Q21.15 12.15 21.35 12.1 L22.75 12.15" fill="#c77a18" fill-rule="evenodd" stroke="none"/>
      <path d="M17.05 12.3 L18.1 12.2 Q18.7 12.2 18.4 12.3 L17.7 12.65 17.05 12.8 16.5 12.7 Q16.25 12.7 16.6 12.5 L17.05 12.3" fill="#c77a18" fill-rule="evenodd" stroke="none"/>
      <path d="M15.1 13.3 L15.9 13.2 16.7 13.3 17.3 13.4 Q17.65 13.5 17.0 13.85 L15.95 14.45 15.65 14.4 Q15.6 14.35 15.7 14.25 L15.5 14.1 15.1 14.0 15.0 13.8 14.85 13.45 14.7 13.3 15.1 13.3" fill="#c77a18" fill-rule="evenodd" stroke="none"/>
      <path d="M17.5 14.8 L17.35 14.95 17.1 15.25 16.65 15.15 16.15 15.05 16.1 14.95 17.2 14.45 17.7 14.5 17.8 14.7 17.5 14.8" fill="#c77a18" fill-rule="evenodd" stroke="none"/>
      <path d="M6.85 19.2 L7.8 19.35 Q8.15 19.45 8.1 19.8 L8.0 19.9 7.5 20.15 6.7 20.4 5.7 20.85 4.9 20.6 4.45 20.5 3.65 20.5 3.55 20.5 4.1 19.95 4.6 19.7 4.55 19.6 5.1 19.45 6.85 19.2" fill="#e09636" fill-rule="evenodd" stroke="none"/>
      <path d="M9.0 19.3 L8.9 19.15 10.7 18.55 11.65 18.5 12.1 18.7 12.5 18.9 12.85 19.05 12.05 19.4 11.7 19.55 11.35 19.75 Q11.1 19.5 10.85 19.55 L9.9 19.65 9.2 19.4 9.0 19.3" fill="#e09636" fill-rule="evenodd" stroke="none"/>
      <path d="M13.1 17.1 Q13.35 17.2 14.05 16.6 L14.3 16.1 14.75 15.9 Q15.15 15.85 16.1 16.4 L16.55 16.6 Q17.45 16.5 16.7 16.9 L16.05 17.1 15.7 17.35 Q15.0 17.9 14.7 17.9 15.5 18.1 13.9 17.85 L12.3 17.6 Q11.95 17.5 12.1 17.45 12.55 17.05 13.1 17.1" fill="#e09636" fill-rule="evenodd" stroke="none"/>
      <path d="M22.0 11.65 L21.25 11.9 20.45 12.15 19.85 12.5 19.2 12.8 18.8 12.7 Q18.7 12.3 18.3 12.25 L17.65 12.1 18.45 11.75 20.3 11.5 20.7 11.5 21.25 11.5 21.9 11.45 Q22.2 11.5 22.0 11.65" fill="#e09636" fill-rule="evenodd" stroke="none"/>
      <path d="M23.05 11.5 L24.35 12.1 Q25.1 12.35 25.2 12.5 L25.25 13.0 25.05 13.3 25.0 13.4 25.3 13.65 25.2 13.9 24.75 14.1 24.3 14.0 23.9 13.65 Q23.8 13.5 23.55 13.5 L22.6 13.6 Q22.3 13.6 22.2 13.35 22.05 13.15 22.25 13.1 L22.75 12.9 23.1 12.65 23.15 12.3 22.85 12.1 Q22.5 11.95 22.7 11.75 L23.05 11.5" fill="#e09636" fill-rule="evenodd" stroke="none"/>
      <path d="M21.65 13.25 L21.5 13.45 21.0 13.65 20.65 13.7 20.3 13.7 19.9 13.7 19.7 13.65 Q19.55 13.45 19.85 13.25 L20.45 13.0 21.3 13.05 Q21.7 13.15 21.65 13.25" fill="#e09636" fill-rule="evenodd" stroke="none"/>
      <path d="M17.85 13.15 L17.75 13.4 16.3 13.5 16.05 13.5 14.5 13.3 Q14.05 13.35 14.4 13.25 L15.1 13.0 16.15 12.7 17.3 12.9 17.85 13.15" fill="#e09636" fill-rule="evenodd" stroke="none"/>
      <path d="M9.45 22.35 L8.5 22.7 7.95 22.5 7.4 22.45 6.15 22.15 6.1 22.05 6.2 21.8 7.95 21.3 8.9 21.5 9.75 21.6 10.7 21.7 11.15 21.9 10.9 22.1 9.45 22.35" fill="#e09636" fill-rule="evenodd" stroke="none"/>
      <path d="M18.75 18.05 L19.4 18.5 20.05 18.8 19.9 19.05 19.7 19.3 19.1 19.2 18.2 19.0 17.25 18.7 16.15 18.2 Q15.9 18.05 16.3 17.9 L17.25 17.8 Q18.0 17.55 18.75 18.05" fill="#e09636" fill-rule="evenodd" stroke="none"/>
      <path d="M8.65 16.65 L10.4 16.35 11.55 16.15 10.85 16.9 Q10.5 17.5 10.1 17.3 L9.2 17.15 9.0 17.25 8.75 17.1 8.5 16.75 8.65 16.65" fill="#e09636" fill-rule="evenodd" stroke="none"/>
      <path d="M7.7 17.9 Q9.05 17.9 8.7 18.15 L8.1 18.7 7.5 18.6 7.05 18.5 Q6.9 18.4 7.15 18.1 L7.7 17.9" fill="#e09636" fill-rule="evenodd" stroke="none"/>
      <path d="M19.8 14.7 L21.95 14.5 21.8 15.2 21.3 15.9 Q21.8 15.7 20.5 15.7 L19.1 15.95 Q18.75 16.05 18.9 15.8 L19.35 15.05 19.8 14.7" fill="#e09636" fill-rule="evenodd" stroke="none"/>
      <path d="M23.3 12.05 L23.1 12.1 22.85 12.1 22.65 11.8 22.75 11.65 23.05 11.5 23.3 11.55 24.1 12.0 24.75 12.3 Q25.25 12.65 25.0 12.7 L24.75 12.7 24.45 12.55 23.8 12.35 23.3 12.05" fill="#f5b151" fill-rule="evenodd" stroke="none"/>
      <path d="M19.95 11.65 L20.7 11.5 21.25 11.5 Q21.8 11.35 21.6 11.5 L20.9 11.7 20.35 11.75 20.1 11.7 19.95 11.65" fill="#f5b151" fill-rule="evenodd" stroke="none"/>
      <path d="M18.7 11.65 L19.2 11.6 Q19.5 11.6 19.25 11.7 L18.95 11.85 18.55 11.95 18.55 11.85 18.7 11.65" fill="#f5b151" fill-rule="evenodd" stroke="none"/>
      <path d="M19.55 11.85 L19.85 11.9 19.8 12.0 19.45 12.1 19.3 12.0 Q19.3 11.9 19.55 11.85" fill="#f5b151" fill-rule="evenodd" stroke="none"/>
      <path d="M20.45 13.0 L20.9 13.1 20.75 13.15 20.6 13.4 20.4 13.45 20.2 13.4 20.1 13.3 Q20.1 13.1 20.45 13.0" fill="#f5b151" fill-rule="evenodd" stroke="none"/>
      <path d="M16.3 12.7 L16.65 12.7 16.75 12.85 16.55 13.05 16.1 13.2 15.7 13.15 Q15.5 12.95 16.3 12.7" fill="#f5b151" fill-rule="evenodd" stroke="none"/>
      <path d="M7.85 21.35 L8.5 21.8 7.85 21.95 7.45 22.15 7.1 22.2 6.95 22.05 7.05 21.9 7.5 21.65 7.85 21.35" fill="#f5b151" fill-rule="evenodd" stroke="none"/>
      <path d="M9.5 21.9 Q10.5 21.65 10.15 21.9 L9.6 22.1 9.45 22.2 9.3 22.2 Q9.1 22.3 9.2 22.1 9.25 21.9 9.5 21.9" fill="#f5b151" fill-rule="evenodd" stroke="none"/>
      <path d="M14.8 16.25 L15.3 16.25 15.55 16.35 15.75 16.55 15.35 16.7 14.4 16.6 14.8 16.25" fill="#f5b151" fill-rule="evenodd" stroke="none"/>
      <path d="M13.3 17.15 L14.1 17.2 14.6 17.3 14.3 17.4 13.9 17.4 12.85 17.4 Q12.7 17.35 12.85 17.3 13.0 17.15 13.3 17.15" fill="#f5b151" fill-rule="evenodd" stroke="none"/>
      <path d="M17.45 17.75 L18.2 17.9 17.85 18.2 Q17.7 18.3 17.9 18.35 L17.6 18.35 16.95 18.3 16.45 18.3 Q16.25 18.2 16.5 18.1 L17.45 17.75" fill="#f5b151" fill-rule="evenodd" stroke="none"/>
      <path d="M18.75 18.45 L19.1 18.55 19.1 18.8 18.5 18.75 18.35 18.6 Q18.4 18.45 18.75 18.45" fill="#f5b151" fill-rule="evenodd" stroke="none"/>
      <path d="M20.25 14.7 L20.95 14.65 Q21.3 14.7 21.05 14.8 L20.35 14.95 19.9 15.2 19.75 15.35 19.7 15.3 Q19.55 14.9 20.25 14.7" fill="#f5b151" fill-rule="evenodd" stroke="none"/>
      <path d="M11.0 18.65 L11.65 18.65 Q11.95 18.7 11.65 18.9 L10.9 19.1 10.45 19.15 Q10.15 19.25 10.3 18.95 L11.0 18.65" fill="#f5b151" fill-rule="evenodd" stroke="none"/>
      <path d="M7.7 18.05 L8.2 18.0 8.15 18.2 7.95 18.35 7.75 18.3 7.5 18.2 7.7 18.05" fill="#f5b151" fill-rule="evenodd" stroke="none"/>
      <path d="M6.6 19.4 L7.3 19.5 Q7.6 19.7 7.35 19.75 L6.7 20.0 6.2 20.1 5.85 20.2 5.5 20.2 5.4 20.05 5.4 19.9 5.55 19.75 6.6 19.4" fill="#f5b151" fill-rule="evenodd" stroke="none"/>
      <path d="M10.0 16.5 L10.5 16.5 9.95 16.85 9.4 16.9 9.1 16.85 Q9.1 16.65 10.0 16.5" fill="#f5b151" fill-rule="evenodd" stroke="none"/>
      <path d="M22.3 19.35 L21.45 19.85 Q21.25 19.9 19.75 20.8 L18.9 21.35 18.0 21.8 Q17.65 21.9 16.1 22.7 L14.4 23.7 13.3 24.15 11.85 24.6 9.3 25.0 7.3 24.9 6.6 24.85 5.95 24.7 5.25 24.65 4.3 24.5 3.7 24.3 3.25 23.7 2.9 23.1 2.9 22.8 Q2.6 22.3 3.2 21.5 3.0 21.8 3.9 21.9 L3.95 21.7 Q4.05 21.55 4.3 21.5 4.6 21.5 4.1 22.1 L4.4 22.35 4.65 22.25 4.5 22.3 4.1 23.0 4.65 23.3 5.75 23.7 6.7 23.9 7.6 24.0 8.5 23.9 9.1 23.95 10.6 23.75 12.35 23.2 13.3 23.0 14.25 22.9 16.05 22.05 16.95 21.3 18.35 20.75 19.2 20.4 20.1 19.65 Q21.15 18.75 22.9 18.15 L24.4 17.4 25.2 16.85 Q24.2 18.15 23.25 18.7 23.1 18.75 22.3 19.35" fill="#f0ab54" fill-rule="evenodd" stroke="none"/>
      <path d="M27.9 18.7 L30.35 19.6 Q30.3 20.1 29.75 20.3 L29.25 20.7 28.2 21.4 26.5 21.85 24.95 22.0 22.4 22.3 20.9 22.3 20.3 22.2 20.2 22.1 19.75 21.3 19.5 20.75 19.3 20.6 18.4 20.3 17.1 19.9 16.0 19.6 14.6 19.3 Q12.55 18.7 12.4 18.25 L11.5 17.6 10.05 16.9 9.1 15.9 8.7 15.3 9.55 15.0 9.35 14.15 27.9 18.7" fill="#a15716" fill-rule="evenodd" stroke="none"/>
      <path d="M33.5 14.9 L33.45 16.25 32.85 18.25 Q32.35 18.9 31.2 19.1 30.2 19.15 29.3 19.55 L27.5 20.4 25.7 21.05 24.75 21.1 24.4 21.0 23.1 21.05 21.55 21.1 20.0 20.3 Q18.7 19.5 18.05 19.4 L16.0 19.1 15.2 18.7 14.5 18.45 Q13.1 18.3 12.15 17.5 L11.1 16.75 10.2 16.2 8.6 14.85 7.8 13.3 7.65 12.3 Q7.6 12.1 7.9 11.25 L8.55 9.55 9.9 8.65 33.1 13.65 Q33.4 13.85 33.5 14.9" fill="#c77a18" fill-rule="evenodd" stroke="none"/>
      <path d="M33.5 14.9 L33.45 16.25 32.85 18.25 Q32.35 18.9 31.2 19.1 30.2 19.15 29.3 19.55 L27.5 20.4 25.7 21.05 24.75 21.1 24.4 21.0 23.1 21.05 21.55 21.1 20.0 20.3 Q18.7 19.5 18.05 19.4 L16.0 19.1 15.2 18.7 14.5 18.45 Q13.1 18.3 12.15 17.5 L11.1 16.75 10.2 16.2 8.6 14.85 7.8 13.3 7.65 12.3 Q7.6 12.1 7.9 11.25 L8.55 9.55 9.3 9.0 9.4 9.65 9.35 10.35 Q9.45 10.85 8.95 10.95 L8.15 11.7 7.9 12.0 8.0 12.35 8.25 13.35 8.35 14.1 9.55 15.0 10.35 15.55 10.6 15.8 Q10.9 16.0 11.1 16.0 L11.95 16.3 12.3 16.55 13.15 17.5 14.15 17.75 15.3 18.05 16.45 18.1 17.3 18.4 17.85 18.35 18.75 18.4 19.4 19.1 19.75 19.7 20.5 19.7 20.6 19.4 21.1 19.0 Q21.4 18.95 20.9 18.85 L20.2 18.6 19.65 18.1 18.4 17.6 17.5 17.45 Q16.85 17.3 15.5 16.6 L14.25 15.75 13.25 14.65 25.2 11.85 33.1 13.65 Q33.4 13.85 33.5 14.9" fill="#b86419" fill-rule="evenodd" stroke="none"/>
      <path d="M14.55 17.1 Q15.4 17.1 15.3 17.55 L15.15 17.7 Q15.05 17.55 14.8 17.55 L13.9 17.5 Q13.6 17.5 13.9 17.3 14.15 17.1 14.55 17.1" fill="#b86419" fill-rule="evenodd" stroke="none"/>
      <path d="M16.1 17.45 L16.45 17.6 16.35 17.9 15.9 17.8 Q15.7 17.75 15.85 17.6 L16.1 17.45" fill="#b86419" fill-rule="evenodd" stroke="none"/>
      <path d="M13.35 16.75 Q13.9 16.85 13.55 17.25 L13.1 17.1 Q12.9 17.0 13.0 16.9 13.1 16.75 13.35 16.75" fill="#b86419" fill-rule="evenodd" stroke="none"/>
      <path d="M10.1 14.6 L10.45 14.9 Q10.6 15.2 10.4 15.3 10.3 15.35 10.15 15.2 L9.75 14.9 9.5 14.65 10.1 14.6" fill="#b86419" fill-rule="evenodd" stroke="none"/>
      <path d="M30.9 17.9 L31.3 18.3 31.0 18.7 30.5 18.85 30.1 18.7 Q29.55 18.7 29.55 18.05 29.5 17.6 30.9 17.9" fill="#c77a18" fill-rule="evenodd" stroke="none"/>
      <path d="M24.85 19.1 L25.05 19.5 Q25.1 19.9 24.8 19.95 L24.5 19.85 24.35 19.4 Q24.2 19.15 24.35 18.95 24.5 18.8 24.85 19.1" fill="#c77a18" fill-rule="evenodd" stroke="none"/>
      <path d="M22.35 19.0 L22.9 19.25 22.8 19.65 22.5 19.8 22.0 19.7 Q21.65 19.7 21.8 19.3 L22.35 19.0" fill="#c77a18" fill-rule="evenodd" stroke="none"/>
      <path d="M22.65 20.15 Q23.0 20.25 22.95 20.4 L22.55 20.55 Q22.3 20.55 22.35 20.35 L22.65 20.15" fill="#c77a18" fill-rule="evenodd" stroke="none"/>
      <path d="M25.85 19.7 L25.7 19.45 25.7 19.15 Q25.4 19.0 26.5 18.7 L27.1 18.75 Q27.4 18.95 27.3 19.2 L27.1 19.5 26.6 19.7 26.15 19.8 25.85 19.7" fill="#c77a18" fill-rule="evenodd" stroke="none"/>
      <path d="M32.8 16.45 Q33.2 16.5 32.7 17.25 L32.5 17.3 32.25 17.1 Q32.1 17.0 32.3 16.7 32.5 16.4 32.8 16.45" fill="#c77a18" fill-rule="evenodd" stroke="none"/>
      <path d="M32.5 17.85 Q32.75 17.8 32.7 18.0 L32.35 18.3 Q32.15 18.4 32.25 18.1 L32.5 17.85" fill="#c77a18" fill-rule="evenodd" stroke="none"/>
      <path d="M21.65 19.9 L22.2 20.35 21.7 20.7 21.2 20.55 20.95 20.0 Q20.75 19.8 21.1 19.75 L21.65 19.9" fill="#c77a18" fill-rule="evenodd" stroke="none"/>
      <path d="M27.15 8.8 L28.15 9.15 29.05 9.7 Q29.3 10.0 29.65 10.15 L30.3 10.55 31.1 11.25 31.75 11.6 32.3 12.1 32.9 13.05 Q33.5 13.7 33.3 14.3 L33.3 14.6 33.0 15.35 32.6 16.1 31.9 16.5 30.95 16.9 30.25 17.1 29.6 17.4 28.85 17.7 26.75 18.3 24.15 18.5 21.5 18.15 19.65 17.65 17.65 17.1 16.65 16.9 15.7 16.55 13.9 15.95 13.0 15.7 11.95 15.2 Q10.9 14.85 9.5 13.4 8.6 13.1 8.6 12.6 L8.55 11.85 8.95 10.95 Q9.2 10.55 8.9 10.05 8.65 9.5 9.0 9.15 L10.1 8.3 11.65 7.35 Q12.45 6.9 13.3 6.7 L14.9 6.5 17.55 6.4 20.25 6.75 23.25 7.4 Q25.25 7.9 26.25 8.35 L27.15 8.8" fill="#d98923" fill-rule="evenodd" stroke="none"/>
      <path d="M27.15 8.8 L28.15 9.15 29.05 9.7 Q29.3 10.0 29.65 10.15 L30.3 10.55 31.1 11.25 31.75 11.6 32.3 12.1 32.9 13.05 33.2 13.5 31.9 13.7 31.7 13.4 31.7 13.1 31.2 12.9 30.7 12.6 30.35 12.35 29.9 12.05 Q29.75 11.9 30.05 11.5 L30.3 10.9 Q30.25 10.7 29.7 10.65 L29.05 10.5 28.3 10.3 27.7 10.1 27.3 10.0 26.6 9.8 25.7 9.25 Q25.5 9.1 25.0 9.25 L24.5 9.25 Q24.35 9.1 24.5 8.9 L24.7 8.65 Q24.3 8.35 23.9 8.3 L22.65 8.15 22.35 8.1 21.5 8.3 Q20.95 8.3 20.5 7.85 L20.0 7.1 19.55 7.05 18.9 7.1 17.3 6.9 Q16.95 6.5 15.5 6.4 16.5 6.25 17.55 6.4 L20.25 6.75 23.25 7.4 Q25.25 7.9 26.25 8.35 L27.15 8.8" fill="#c77a18" fill-rule="evenodd" stroke="none"/>
      <path d="M22.35 10.95 Q22.7 10.9 22.3 11.3 L21.7 11.9 21.5 12.1 21.1 12.05 20.6 12.1 Q20.4 12.15 19.95 12.45 L19.25 12.4 19.1 12.25 19.25 11.95 Q19.3 11.75 19.85 11.5 L20.8 11.3 21.0 11.1 21.1 10.9 22.35 10.95" fill="#c77a18" fill-rule="evenodd" stroke="none"/>
      <path d="M21.2 14.9 L22.1 15.1 22.25 15.4 21.55 15.7 20.9 15.8 20.35 15.25 Q20.15 14.9 21.2 14.9" fill="#c77a18" fill-rule="evenodd" stroke="none"/>
      <path d="M29.8 12.9 L30.7 12.6 31.5 12.3 32.3 12.1 Q32.7 12.0 32.4 12.35 L31.7 13.1 30.75 13.2 Q30.25 13.2 30.1 13.9 L30.0 14.65 Q29.95 14.9 29.5 14.9 L28.9 14.9 27.4 14.5 Q27.0 14.4 27.2 14.1 L29.05 13.85 29.0 13.5 29.1 13.0 29.8 12.9" fill="#c77a18" fill-rule="evenodd" stroke="none"/>
      <path d="M30.35 11.4 L30.05 11.55 29.65 11.65 28.6 11.6 29.15 11.2 29.95 11.05 30.7 11.2 30.5 11.3 30.9 11.5 30.35 11.4" fill="#c77a18" fill-rule="evenodd" stroke="none"/>
      <path d="M26.95 9.8 L28.2 9.75 28.6 10.25 28.35 10.45 27.55 10.4 26.9 10.5 26.1 10.7 25.85 10.45 25.9 10.2 26.95 9.8" fill="#c77a18" fill-rule="evenodd" stroke="none"/>
      <path d="M27.2 11.3 Q27.3 11.7 26.9 11.7 L26.3 11.7 Q26.1 11.7 26.2 11.55 L26.45 11.35 27.2 11.3" fill="#c77a18" fill-rule="evenodd" stroke="none"/>
      <path d="M22.1 14.25 L21.55 14.3 21.15 14.45 20.65 14.5 20.25 14.55 19.6 15.05 19.45 15.2 19.0 15.2 18.45 15.3 18.1 15.4 17.05 15.25 16.75 15.15 Q16.6 15.1 16.75 14.95 L17.7 14.4 18.05 14.1 Q18.2 13.9 18.55 13.8 L19.5 13.1 Q20.1 12.6 20.2 12.7 L21.05 13.1 21.9 13.1 22.65 12.9 Q23.3 12.75 23.7 12.9 L24.15 13.1 24.4 13.25 23.9 13.25 23.0 13.45 22.8 13.7 22.55 13.95 22.35 14.05 22.1 14.25" fill="#c77a18" fill-rule="evenodd" stroke="none"/>
      <path d="M24.1 15.8 L24.35 15.6 25.0 15.3 Q25.7 15.25 25.75 15.5 L25.95 15.65 26.0 16.05 26.0 16.2 25.65 16.2 24.95 16.55 24.5 16.6 24.1 16.5 23.75 16.4 23.35 16.1 Q22.9 15.9 24.1 15.8" fill="#c77a18" fill-rule="evenodd" stroke="none"/>
      <path d="M26.05 8.85 L26.3 9.15 25.7 9.25 25.1 9.0 Q24.7 8.7 26.05 8.85" fill="#c77a18" fill-rule="evenodd" stroke="none"/>
      <path d="M20.8 7.9 L20.5 7.65 21.5 7.5 22.65 7.65 23.9 7.95 Q24.3 8.0 24.5 8.45 L23.95 8.85 23.7 8.9 23.3 8.85 Q23.15 8.85 23.3 8.55 L23.35 8.3 22.25 8.55 21.5 8.3 20.8 7.9" fill="#c77a18" fill-rule="evenodd" stroke="none"/>
      <path d="M20.5 9.75 L21.1 9.75 21.95 9.85 23.8 10.1 Q24.1 10.15 24.2 10.3 L24.3 10.6 Q24.45 10.75 24.05 10.75 L23.15 10.8 22.1 11.05 21.35 10.85 20.95 10.3 20.5 9.75" fill="#c77a18" fill-rule="evenodd" stroke="none"/>
      <path d="M22.4 9.1 Q23.15 9.55 22.45 9.5 L20.65 9.3 Q20.35 9.3 20.7 8.8 20.8 8.6 21.25 9.05 L22.4 9.1" fill="#c77a18" fill-rule="evenodd" stroke="none"/>
      <path d="M17.8 12.15 Q17.5 12.2 16.9 13.05 L16.25 13.9 15.5 13.9 14.55 13.7 Q13.7 13.85 13.95 13.5 14.25 12.9 15.1 12.75 L15.5 12.7 16.3 12.4 18.0 11.75 Q18.5 11.9 18.3 12.0 L18.1 12.1 17.8 12.15" fill="#c77a18" fill-rule="evenodd" stroke="none"/>
      <path d="M16.1 11.0 Q16.3 10.9 16.45 11.15 L16.45 11.45 15.35 11.9 14.65 11.95 Q14.05 12.1 13.85 12.35 L13.55 12.85 13.2 13.1 12.45 13.3 12.3 13.3 12.45 13.1 12.8 12.55 Q11.7 13.15 11.3 13.0 10.7 12.7 11.0 12.5 L11.6 12.3 12.3 12.1 Q12.9 11.7 13.2 11.65 L13.7 11.45 14.1 11.45 15.25 11.5 16.1 11.0" fill="#c77a18" fill-rule="evenodd" stroke="none"/>
      <path d="M19.5 10.0 Q19.7 9.9 19.7 10.1 L19.55 10.5 19.55 10.75 19.5 11.05 19.2 11.15 18.9 11.1 18.45 10.8 Q18.3 10.55 18.7 10.6 L19.1 10.35 19.5 10.0" fill="#c77a18" fill-rule="evenodd" stroke="none"/>
      <path d="M12.65 14.0 L13.5 14.1 Q13.7 14.25 13.55 14.35 L13.25 14.65 12.65 14.6 11.9 14.35 Q11.45 14.3 12.65 14.0" fill="#c77a18" fill-rule="evenodd" stroke="none"/>
      <path d="M8.5 12.9 L8.8 12.35 8.9 11.8 9.2 11.25 Q9.3 11.1 9.45 11.15 L9.7 11.25 10.4 11.0 12.0 10.5 11.9 10.7 11.55 11.05 10.1 12.15 9.45 12.5 8.5 12.9" fill="#c77a18" fill-rule="evenodd" stroke="none"/>
      <path d="M17.45 8.5 Q17.7 8.55 17.55 8.8 L17.1 9.25 15.1 9.9 14.2 10.1 14.1 9.85 Q13.8 9.7 14.35 9.45 L15.45 9.1 15.5 8.85 14.65 8.4 14.9 8.3 15.7 8.1 16.1 8.0 16.45 8.2 17.45 8.5" fill="#c77a18" fill-rule="evenodd" stroke="none"/>
      <path d="M10.9 8.5 L12.1 8.25 13.5 7.8 13.4 7.95 12.85 8.1 12.6 8.15 12.35 8.45 11.55 8.9 11.15 8.95 10.8 8.85 Q10.5 8.75 10.9 8.5" fill="#c77a18" fill-rule="evenodd" stroke="none"/>
      <path d="M17.95 6.9 Q19.0 7.1 18.55 7.2 L18.0 7.4 17.3 7.45 16.55 7.3 Q16.3 7.25 16.9 7.1 L17.95 6.9" fill="#c77a18" fill-rule="evenodd" stroke="none"/>
      <path d="M19.2 8.85 L18.1 8.5 Q17.45 8.3 17.7 8.1 L18.4 7.85 19.15 7.55 20.0 7.5 20.3 7.45 20.15 7.95 20.1 8.2 19.7 8.4 19.5 8.6 19.55 8.75 19.2 8.85" fill="#c77a18" fill-rule="evenodd" stroke="none"/>
      <path d="M17.95 9.2 L19.1 9.5 19.1 9.55 18.55 9.85 18.1 10.05 17.8 9.8 17.65 9.65 17.35 9.65 Q17.1 9.6 17.4 9.4 17.7 9.25 17.95 9.2" fill="#c77a18" fill-rule="evenodd" stroke="none"/>
      <path d="M30.8 11.3 Q31.95 11.3 31.3 11.5 L31.8 11.65 Q32.0 11.7 32.45 12.1 L32.3 12.1 31.5 12.3 31.05 12.5 30.25 12.95 29.2 12.75 27.8 12.6 27.7 12.5 Q27.5 12.2 27.95 11.95 L28.35 11.7 28.95 11.55 30.8 11.3" fill="#e09636" fill-rule="evenodd" stroke="none"/>
      <path d="M27.5 16.5 L27.15 16.4 26.8 16.3 25.9 16.1 26.3 15.9 26.7 15.55 Q26.75 15.3 27.15 15.25 L28.15 15.05 30.05 15.25 29.7 15.55 29.05 16.0 28.05 16.15 Q27.9 16.15 27.7 16.3 L27.5 16.5" fill="#e09636" fill-rule="evenodd" stroke="none"/>
      <path d="M17.5 10.5 Q17.7 10.6 17.3 10.75 L15.7 11.45 14.8 11.75 14.9 11.7 13.8 11.35 13.45 11.25 12.7 11.15 Q12.25 11.05 12.5 10.9 L12.85 10.85 13.8 10.05 Q14.4 9.6 14.7 9.55 L15.15 9.7 15.5 10.15 15.9 10.35 16.5 10.5 Q16.9 10.3 17.5 10.5" fill="#e09636" fill-rule="evenodd" stroke="none"/>
      <path d="M12.8 7.5 Q12.6 7.35 12.9 7.3 L13.6 7.15 14.1 7.05 14.55 6.9 15.35 6.85 16.5 6.7 17.3 6.9 16.7 7.15 16.35 7.4 16.15 7.8 Q15.95 8.0 15.75 8.0 L15.1 7.8 14.45 7.65 12.8 7.5" fill="#e09636" fill-rule="evenodd" stroke="none"/>
      <path d="M9.55 9.75 L9.55 9.25 10.4 8.55 11.0 8.1 11.7 7.65 12.1 7.75 Q12.3 7.95 11.95 8.1 L11.7 8.5 11.75 8.8 12.1 9.0 12.65 9.05 Q12.9 9.1 12.7 9.35 L12.3 9.7 11.3 9.9 10.95 10.1 10.6 10.55 10.1 10.8 9.65 10.7 Q9.4 10.65 9.55 10.4 L9.8 10.1 9.75 9.95 9.55 9.75" fill="#e09636" fill-rule="evenodd" stroke="none"/>
      <path d="M14.5 8.5 L15.1 8.6 Q15.45 8.75 15.3 9.0 L15.1 9.15 14.7 9.15 14.35 9.3 13.95 9.3 13.45 9.25 13.3 9.1 13.6 8.75 Q14.1 8.55 14.5 8.5" fill="#e09636" fill-rule="evenodd" stroke="none"/>
      <path d="M20.65 7.3 Q19.4 7.55 19.1 7.9 L18.75 7.95 17.3 8.25 17.25 8.05 Q17.3 7.85 17.7 7.6 18.65 7.05 18.9 7.1 L20.0 7.1 20.8 7.2 Q21.15 7.25 20.65 7.3" fill="#e09636" fill-rule="evenodd" stroke="none"/>
      <path d="M24.65 12.7 L24.2 12.7 23.65 12.6 22.1 12.65 Q21.6 12.7 21.85 12.5 L22.3 12.2 Q22.65 11.8 23.3 11.85 L24.2 11.5 25.1 11.1 26.95 11.15 Q27.3 11.25 27.05 11.55 L25.75 12.1 24.65 12.7" fill="#e09636" fill-rule="evenodd" stroke="none"/>
      <path d="M18.1 12.7 L18.5 12.7 19.1 12.65 Q19.5 12.7 19.3 12.85 L18.2 13.65 17.2 14.25 Q16.7 14.35 16.3 14.7 L15.7 14.95 15.5 14.7 Q15.2 14.7 15.3 14.5 L15.95 14.0 16.55 13.35 17.25 12.9 18.1 12.7" fill="#e09636" fill-rule="evenodd" stroke="none"/>
      <path d="M26.95 9.3 Q27.15 9.3 27.1 9.4 L26.85 9.8 26.6 10.0 26.35 10.05 25.5 10.35 Q25.1 10.7 24.7 10.15 L23.9 9.55 Q23.45 9.3 24.1 9.35 L25.1 9.5 26.95 9.3" fill="#e09636" fill-rule="evenodd" stroke="none"/>
      <path d="M27.95 10.35 L28.55 10.5 28.7 10.8 Q28.35 10.95 28.25 11.1 L27.6 11.3 27.3 11.2 26.9 10.9 Q26.65 10.7 27.95 10.35" fill="#e09636" fill-rule="evenodd" stroke="none"/>
      <path d="M24.7 14.55 L23.8 14.8 23.8 14.9 Q23.6 15.0 23.25 14.35 22.9 13.7 23.05 13.6 L25.3 13.25 25.75 13.55 26.3 14.2 Q26.45 14.45 26.1 14.45 L24.7 14.55" fill="#e09636" fill-rule="evenodd" stroke="none"/>
      <path d="M11.0 8.7 L10.3 9.1 10.05 9.3 9.75 9.35 Q9.45 9.3 10.0 8.9 L10.65 8.4 11.45 7.7 11.7 7.65 12.05 7.7 12.15 7.8 11.95 8.1 11.7 8.25 11.5 8.2 11.0 8.7" fill="#f5b151" fill-rule="evenodd" stroke="none"/>
      <path d="M14.9 6.95 L14.5 7.2 13.95 7.3 13.2 7.3 Q13.1 7.15 13.3 7.15 L13.6 7.15 14.15 6.95 14.9 6.95" fill="#f5b151" fill-rule="evenodd" stroke="none"/>
      <path d="M16.35 6.9 L15.65 6.85 Q15.4 6.8 15.7 6.7 L16.25 6.65 16.35 6.9" fill="#f5b151" fill-rule="evenodd" stroke="none"/>
      <path d="M15.3 7.1 L15.65 7.2 15.5 7.3 15.1 7.3 15.1 7.2 Q15.1 7.1 15.3 7.1" fill="#f5b151" fill-rule="evenodd" stroke="none"/>
      <path d="M14.5 8.5 Q15.1 8.55 14.8 8.85 L14.55 8.95 14.35 8.9 14.15 8.75 14.1 8.7 14.0 8.75 14.2 8.65 14.5 8.5" fill="#f5b151" fill-rule="evenodd" stroke="none"/>
      <path d="M18.75 7.1 L19.3 7.3 19.35 7.5 18.95 7.6 18.5 7.55 18.3 7.4 18.4 7.25 Q18.65 7.1 18.75 7.1" fill="#f5b151" fill-rule="evenodd" stroke="none"/>
      <path d="M25.25 11.1 L25.6 11.3 26.1 11.45 26.2 11.6 26.1 11.8 25.7 11.85 25.3 11.75 24.6 11.75 Q24.2 11.7 25.25 11.1" fill="#f5b151" fill-rule="evenodd" stroke="none"/>
      <path d="M23.55 12.1 Q23.8 12.1 23.9 12.25 L23.8 12.4 23.45 12.4 22.9 12.25 Q22.7 12.2 22.95 12.15 L23.55 12.1" fill="#f5b151" fill-rule="evenodd" stroke="none"/>
      <path d="M14.65 9.95 Q15.15 10.05 15.1 10.25 L14.1 10.65 13.65 10.6 Q13.5 10.5 13.85 10.3 L14.1 10.1 14.65 9.95" fill="#f5b151" fill-rule="evenodd" stroke="none"/>
      <path d="M16.2 10.55 L16.75 10.55 16.7 10.7 15.65 11.0 15.3 11.1 14.9 11.1 15.45 10.8 16.2 10.55" fill="#f5b151" fill-rule="evenodd" stroke="none"/>
      <path d="M17.8 13.4 L17.5 13.5 Q17.7 13.35 17.5 13.3 L17.15 13.1 17.4 12.95 17.9 12.75 18.9 12.85 Q19.2 12.9 19.0 13.0 L18.5 13.2 17.8 13.4" fill="#f5b151" fill-rule="evenodd" stroke="none"/>
      <path d="M16.6 13.75 L17.05 13.9 16.9 14.1 16.3 14.3 Q16.1 14.25 16.3 14.05 L16.6 13.75" fill="#f5b151" fill-rule="evenodd" stroke="none"/>
      <path d="M24.8 13.4 Q25.55 13.5 25.4 13.9 L25.35 13.95 25.2 13.85 24.7 13.7 24.05 13.7 Q23.7 13.65 24.1 13.5 L24.8 13.4" fill="#f5b151" fill-rule="evenodd" stroke="none"/>
      <path d="M27.8 15.2 Q28.4 15.15 28.55 15.4 28.7 15.65 28.45 15.65 L27.95 15.7 27.2 15.65 Q26.9 15.5 27.2 15.35 L27.8 15.2" fill="#f5b151" fill-rule="evenodd" stroke="none"/>
      <path d="M28.0 10.55 L28.25 10.65 27.95 10.85 27.7 10.95 27.5 10.8 Q27.3 10.75 27.5 10.65 L28.0 10.55" fill="#f5b151" fill-rule="evenodd" stroke="none"/>
      <path d="M30.1 12.35 L29.7 12.35 29.1 12.35 28.5 12.3 Q28.25 12.2 28.55 11.95 28.85 11.7 29.2 11.7 L30.3 11.8 30.5 11.9 30.5 12.1 30.45 12.25 30.1 12.35" fill="#f5b151" fill-rule="evenodd" stroke="none"/>
      <path d="M25.5 9.5 L26.1 9.5 26.45 9.65 26.15 9.8 25.55 9.9 24.95 9.65 Q24.5 9.5 25.5 9.5" fill="#f5b151" fill-rule="evenodd" stroke="none"/>
      <path d="M19.65 16.9 L20.45 17.1 21.55 17.1 22.65 16.9 23.7 16.75 24.95 17.1 25.8 17.25 26.4 17.3 26.8 17.2 Q27.2 16.9 28.1 16.7 L30.35 16.0 Q31.15 15.7 32.1 14.8 L31.8 14.6 31.75 14.5 32.1 14.5 32.55 14.15 32.35 14.05 Q32.15 13.95 32.35 13.9 L32.8 13.7 Q33.1 13.3 32.9 13.05 33.5 13.7 33.3 14.3 L33.3 14.6 33.0 15.35 32.6 16.1 31.9 16.5 30.95 16.9 30.25 17.1 29.6 17.4 28.85 17.7 26.75 18.3 24.15 18.5 21.5 18.15 19.65 17.65 17.65 17.1 16.65 16.9 15.7 16.55 13.9 15.95 13.0 15.7 11.95 15.2 Q11.05 14.9 9.85 13.75 L10.7 14.15 12.35 14.55 Q12.65 14.6 12.85 14.85 L13.7 15.5 Q14.3 15.9 15.5 16.05 L17.15 16.15 18.65 16.35 19.65 16.9" fill="#f0ab54" fill-rule="evenodd" stroke="none"/>
      <path d="M25.75 8.35 Q27.0 8.3 28.75 9.35 L27.7 9.9 27.15 10.45 26.55 10.9 Q26.3 11.0 26.05 11.25 L25.3 11.5 24.2 11.9 23.6 12.4 22.2 12.5 20.55 12.5 17.6 13.8 Q16.5 14.4 15.2 14.2 L13.5 14.25 11.9 14.35 10.35 13.95 9.3 13.3 8.35 12.95 7.7 12.9 7.65 12.3 9.95 12.15 10.1 12.15 25.75 8.35" fill="#a15716" fill-rule="evenodd" stroke="none"/>
      <path d="M26.9 9.25 L25.9 9.95 Q24.9 10.8 23.5 10.9 L22.75 11.2 21.9 11.55 19.85 12.0 Q19.2 12.1 17.85 12.9 L16.2 13.7 14.65 13.7 13.3 13.75 12.95 13.9 11.95 13.9 10.1 13.35 8.3 12.7 7.15 12.5 6.25 12.4 Q5.0 12.2 4.55 11.7 L4.2 10.8 3.9 9.9 Q3.8 9.55 3.85 8.7 3.9 7.7 4.2 7.5 L16.35 4.55 28.15 1.8 29.5 2.55 30.2 4.1 30.5 4.95 30.45 5.45 30.3 5.9 Q29.9 7.1 29.5 7.35 L27.9 8.7 26.9 9.25" fill="#c77a18" fill-rule="evenodd" stroke="none"/>
      <path d="M30.2 4.1 L30.5 4.95 30.45 5.45 30.3 5.9 Q29.9 7.1 29.5 7.35 L27.9 8.7 26.9 9.25 25.9 9.95 Q24.9 10.8 23.5 10.9 L22.75 11.2 21.9 11.55 19.85 12.0 Q19.2 12.1 17.85 12.9 L16.2 13.7 14.65 13.7 13.3 13.75 12.95 13.9 11.95 13.9 10.1 13.35 8.3 12.7 7.15 12.5 6.25 12.4 Q5.0 12.2 4.55 11.7 L4.2 10.8 3.9 9.9 Q3.8 9.55 3.85 8.7 3.9 7.7 4.2 7.5 L12.4 5.5 24.75 7.45 23.7 8.5 22.45 9.3 20.35 10.15 19.7 10.65 Q19.5 11.0 18.5 11.15 L17.6 11.35 16.9 11.65 Q16.4 11.75 16.7 11.75 L18.1 11.6 18.0 11.75 18.1 11.9 19.7 11.6 21.05 11.3 21.9 11.0 22.1 10.85 Q22.35 10.65 22.65 10.6 L23.8 10.3 24.25 10.25 24.85 10.05 25.25 9.6 25.7 9.1 26.05 8.85 26.3 8.5 Q26.6 8.1 26.85 8.1 L27.7 8.1 29.75 6.7 29.9 6.0 30.1 5.1 30.2 4.75 29.95 4.5 Q29.7 4.4 29.4 4.1 L29.1 3.85 Q28.6 3.75 28.7 3.3 L28.65 2.7 Q28.55 2.25 28.7 2.1 L29.5 2.55 30.2 4.1" fill="#b86419" fill-rule="evenodd" stroke="none"/>
      <path d="M19.95 10.9 L20.6 11.1 Q20.9 11.25 20.65 11.3 L19.7 11.35 19.3 11.5 19.2 11.4 Q19.05 11.0 19.95 10.9" fill="#b86419" fill-rule="evenodd" stroke="none"/>
      <path d="M28.05 7.35 L28.3 7.5 28.25 7.7 27.75 7.8 27.7 7.5 Q27.75 7.3 28.05 7.35" fill="#b86419" fill-rule="evenodd" stroke="none"/>
      <path d="M20.55 10.3 L20.9 10.4 20.85 10.6 20.35 10.75 20.25 10.55 20.55 10.3" fill="#b86419" fill-rule="evenodd" stroke="none"/>
      <path d="M25.3 8.6 L25.9 8.55 25.6 8.8 25.25 9.15 24.95 9.2 Q24.75 9.15 24.9 8.9 25.1 8.6 25.3 8.6" fill="#b86419" fill-rule="evenodd" stroke="none"/>
      <path d="M13.15 12.55 L14.55 12.6 Q14.55 13.15 13.95 13.3 L13.6 13.35 13.1 13.3 Q12.7 13.2 12.75 12.9 L13.15 12.55" fill="#c77a18" fill-rule="evenodd" stroke="none"/>
      <path d="M15.5 11.85 Q15.8 11.5 15.95 11.7 L15.95 12.1 15.85 12.5 15.5 12.65 Q15.25 12.55 15.3 12.25 L15.5 11.85" fill="#c77a18" fill-rule="evenodd" stroke="none"/>
      <path d="M5.9 10.9 Q6.3 10.85 6.5 11.15 6.7 11.5 6.3 11.55 L5.8 11.7 5.5 11.5 Q5.05 11.1 5.9 10.9" fill="#c77a18" fill-rule="evenodd" stroke="none"/>
      <path d="M12.05 12.35 L12.3 12.5 12.1 12.7 11.7 12.6 12.05 12.35" fill="#c77a18" fill-rule="evenodd" stroke="none"/>
      <path d="M8.25 11.55 Q9.3 11.8 9.05 11.95 L9.05 12.2 8.9 12.45 8.6 12.55 8.1 12.5 7.6 12.35 7.4 12.1 Q7.3 11.85 7.6 11.7 L8.25 11.55" fill="#c77a18" fill-rule="evenodd" stroke="none"/>
      <path d="M4.55 10.05 Q4.85 10.0 5.1 10.3 5.3 10.5 5.15 10.6 L4.9 10.8 4.7 10.75 Q4.2 10.1 4.55 10.05" fill="#c77a18" fill-rule="evenodd" stroke="none"/>
      <path d="M4.9 11.3 Q5.4 11.8 5.1 11.7 4.8 11.65 4.7 11.45 4.65 11.3 4.9 11.3" fill="#c77a18" fill-rule="evenodd" stroke="none"/>
      <path d="M16.1 12.8 L16.7 12.7 Q17.0 12.7 16.8 12.9 L16.55 13.4 16.05 13.5 15.5 13.25 16.1 12.8" fill="#c77a18" fill-rule="evenodd" stroke="none"/>
      <path d="M26.05 7.9 Q24.8 8.55 24.05 8.65 L22.2 9.3 21.25 9.7 20.25 9.9 Q19.85 9.9 18.2 10.45 L16.3 11.05 13.5 11.5 10.8 11.4 8.7 10.95 7.25 10.5 6.5 10.35 5.5 10.05 4.8 9.75 4.4 9.1 4.1 8.4 4.1 8.15 Q3.9 7.9 4.1 7.5 L4.5 6.95 5.0 6.05 5.6 5.6 6.3 5.2 7.1 4.55 Q7.3 4.4 7.8 4.2 L8.4 3.75 Q8.8 3.25 9.9 3.0 L10.3 2.8 Q10.5 2.7 11.25 2.35 L14.3 1.3 17.45 0.6 20.15 0.1 Q21.45 -0.1 22.95 0.1 L24.55 0.25 26.3 0.7 29.1 2.2 Q29.45 2.5 29.15 3.0 28.85 3.5 29.1 3.85 L29.5 4.65 29.5 5.3 29.4 5.55 Q29.1 5.6 28.55 6.1 27.25 7.45 26.05 7.9" fill="#d98923" fill-rule="evenodd" stroke="none"/>
      <path d="M17.7 0.9 L17.15 1.6 Q16.7 2.1 16.15 2.05 L15.3 1.95 14.95 2.0 13.65 2.15 12.9 2.55 Q13.3 2.9 13.1 3.1 L12.5 3.1 11.8 3.15 10.9 3.7 10.15 3.9 9.8 4.05 9.15 4.3 8.4 4.45 7.65 4.6 Q7.1 4.7 7.1 4.85 L7.4 5.35 Q7.65 5.75 7.5 5.9 L7.1 6.2 6.7 6.45 Q6.7 6.6 5.7 6.95 5.7 7.5 5.5 7.5 L4.15 7.4 4.5 6.95 5.0 6.05 5.6 5.6 6.3 5.2 7.1 4.55 Q7.3 4.4 7.8 4.2 L8.4 3.75 Q8.8 3.25 9.9 3.0 L10.3 2.8 Q10.5 2.7 11.25 2.35 L14.3 1.3 17.45 0.6 20.15 0.1 22.3 0.05 Q20.8 0.2 20.45 0.55 L19.7 0.75 18.8 0.8 18.1 0.85 17.7 0.9" fill="#c77a18" fill-rule="evenodd" stroke="none"/>
      <path d="M18.2 8.8 L18.35 9.05 18.2 9.2 17.5 9.3 16.8 9.0 16.25 8.95 15.9 9.0 15.65 8.9 15.05 8.4 Q14.7 8.05 14.95 8.05 L16.25 7.95 16.4 8.15 16.6 8.3 17.6 8.45 Q18.1 8.6 18.2 8.8" fill="#c77a18" fill-rule="evenodd" stroke="none"/>
      <path d="M13.3 8.9 Q14.35 8.9 14.15 9.15 L13.65 9.7 13.15 9.7 12.9 9.65 12.2 9.4 Q12.1 9.3 12.4 9.1 L13.3 8.9" fill="#c77a18" fill-rule="evenodd" stroke="none"/>
      <path d="M10.1 8.0 L8.6 8.45 8.0 8.5 Q7.5 8.5 7.45 8.3 L7.3 7.6 Q7.2 7.0 6.65 7.0 L5.7 6.95 4.9 6.3 4.85 6.15 Q4.8 6.0 5.0 6.05 L5.85 6.2 6.7 6.45 7.65 6.65 8.3 6.7 Q8.55 6.95 8.45 7.5 L9.5 7.5 10.3 7.7 Q10.55 7.85 10.1 8.0" fill="#c77a18" fill-rule="evenodd" stroke="none"/>
      <path d="M7.35 5.45 L7.05 5.35 6.5 5.45 6.9 5.2 6.7 5.15 7.45 5.0 8.3 5.1 8.85 5.45 7.8 5.5 7.35 5.45" fill="#c77a18" fill-rule="evenodd" stroke="none"/>
      <path d="M9.9 4.3 L9.1 4.35 8.85 4.2 9.05 3.9 9.25 3.75 10.5 3.7 11.7 4.05 Q11.8 4.4 11.45 4.5 L10.65 4.3 9.9 4.3" fill="#c77a18" fill-rule="evenodd" stroke="none"/>
      <path d="M10.3 5.1 L11.1 5.1 Q11.55 5.3 11.3 5.45 L10.6 5.45 Q10.3 5.45 10.3 5.3 L10.3 5.1" fill="#c77a18" fill-rule="evenodd" stroke="none"/>
      <path d="M20.3 7.15 L20.85 7.35 21.2 7.65 22.2 8.1 22.2 8.3 21.9 8.4 20.85 8.55 19.9 8.45 19.45 8.45 19.25 8.3 18.6 7.9 17.65 7.9 17.25 7.7 16.7 7.7 Q16.65 7.55 16.4 7.55 L16.2 7.5 15.95 7.25 15.7 7.05 14.8 6.9 14.3 6.95 Q14.15 6.9 14.55 6.8 L15.05 6.6 16.1 6.5 16.9 6.65 17.75 6.6 18.3 6.45 18.65 6.2 Q18.8 6.1 19.35 6.55 L20.3 7.15" fill="#c77a18" fill-rule="evenodd" stroke="none"/>
      <path d="M11.35 6.7 L11.55 6.55 11.8 6.45 12.3 6.35 Q12.7 6.4 13.0 6.6 L13.3 6.75 Q14.55 6.75 14.05 7.0 L13.3 7.4 12.9 7.5 12.4 7.5 11.7 7.2 11.3 7.2 11.3 7.05 11.35 6.7" fill="#c77a18" fill-rule="evenodd" stroke="none"/>
      <path d="M11.5 2.8 L12.45 2.9 11.8 3.15 11.15 3.1 11.3 2.9 11.5 2.8" fill="#c77a18" fill-rule="evenodd" stroke="none"/>
      <path d="M15.35 2.3 L14.2 2.15 14.3 2.4 14.3 2.7 13.9 2.7 13.6 2.7 13.05 2.35 13.2 2.1 13.65 1.9 14.95 1.5 17.15 1.4 Q17.5 1.5 16.15 2.05 L15.35 2.3" fill="#c77a18" fill-rule="evenodd" stroke="none"/>
      <path d="M14.95 3.65 L15.7 3.5 17.15 3.35 Q16.7 3.65 16.7 3.9 L16.3 4.35 15.55 4.6 14.45 4.4 13.5 4.45 13.25 4.3 13.4 4.0 13.8 3.85 14.95 3.65" fill="#c77a18" fill-rule="evenodd" stroke="none"/>
      <path d="M15.25 2.9 L16.4 2.75 16.7 2.5 16.95 2.5 Q17.4 2.9 17.05 2.95 L15.15 3.2 Q14.7 3.25 14.85 3.1 L15.25 2.9" fill="#c77a18" fill-rule="evenodd" stroke="none"/>
      <path d="M20.0 5.4 L19.65 5.35 19.5 5.3 Q19.35 5.25 19.55 5.1 L19.8 5.05 21.55 5.5 22.4 5.8 22.8 5.8 Q23.7 5.9 24.0 6.4 24.15 6.65 23.35 6.65 L22.4 6.9 22.05 6.9 21.65 6.9 20.9 6.15 Q20.35 5.4 20.0 5.4" fill="#c77a18" fill-rule="evenodd" stroke="none"/>
      <path d="M25.55 6.0 L25.7 6.15 25.5 6.2 24.75 6.0 24.4 5.8 24.1 5.35 Q23.9 5.1 23.3 5.05 L22.5 5.05 21.95 4.9 21.4 4.7 Q21.25 4.65 21.4 4.45 21.55 4.2 21.7 4.3 L22.65 4.65 23.85 4.55 24.25 4.55 24.7 4.7 25.7 5.05 26.45 5.2 27.0 5.35 Q27.4 5.6 26.7 5.8 L25.15 5.5 25.55 6.0" fill="#c77a18" fill-rule="evenodd" stroke="none"/>
      <path d="M19.05 4.0 Q19.5 3.95 19.3 4.2 L18.9 4.5 18.55 4.55 18.3 4.45 18.15 4.25 18.15 4.0 18.05 3.65 Q18.05 3.4 18.3 3.5 L18.7 3.85 19.05 4.0" fill="#c77a18" fill-rule="evenodd" stroke="none"/>
      <path d="M25.35 6.8 Q26.55 7.05 26.15 7.1 L25.35 7.35 24.75 7.45 24.4 7.15 24.45 6.95 Q24.8 6.7 25.35 6.8" fill="#c77a18" fill-rule="evenodd" stroke="none"/>
      <path d="M29.2 4.6 L29.3 5.1 29.6 5.55 28.65 5.3 27.9 5.0 26.45 4.1 26.05 3.8 25.95 3.6 27.6 4.0 28.3 4.15 28.6 4.1 28.9 4.15 29.2 4.6" fill="#c77a18" fill-rule="evenodd" stroke="none"/>
      <path d="M21.7 1.5 L22.1 1.6 23.2 1.8 22.3 2.3 22.4 2.5 23.5 2.75 Q24.1 2.95 23.8 3.1 L23.7 3.35 22.75 3.25 20.7 2.7 20.25 2.3 Q20.1 2.1 20.3 2.05 L21.35 1.7 21.7 1.5" fill="#c77a18" fill-rule="evenodd" stroke="none"/>
      <path d="M25.3 1.5 L25.1 1.45 24.5 1.35 Q24.2 1.25 24.4 1.25 L25.9 1.5 27.05 1.7 Q27.5 1.9 27.2 2.0 L26.8 2.15 26.4 2.1 25.55 1.75 25.3 1.5" fill="#c77a18" fill-rule="evenodd" stroke="none"/>
      <path d="M19.75 0.65 L20.9 0.7 Q21.55 0.85 21.25 0.9 L20.5 1.1 19.7 1.1 19.15 0.9 Q18.9 0.9 19.3 0.75 L19.75 0.65" fill="#c77a18" fill-rule="evenodd" stroke="none"/>
      <path d="M19.65 2.1 L18.5 2.45 18.15 2.4 Q18.1 2.35 18.2 2.25 L18.0 2.05 17.6 1.9 17.5 1.7 17.35 1.3 17.3 1.2 17.7 1.3 18.55 1.3 19.3 1.5 20.0 1.7 Q20.3 1.85 19.65 2.1" fill="#c77a18" fill-rule="evenodd" stroke="none"/>
      <path d="M18.6 3.05 L19.3 2.85 19.8 2.7 20.35 2.9 Q20.7 3.05 20.45 3.1 L20.15 3.1 19.95 3.25 19.7 3.5 19.15 3.3 18.65 3.1 18.6 3.05" fill="#c77a18" fill-rule="evenodd" stroke="none"/>
      <path d="M9.1 6.4 L8.3 6.5 7.6 6.7 7.2 6.75 6.35 6.4 5.85 6.2 5.0 6.05 4.9 6.1 5.55 5.65 6.1 5.45 6.0 5.35 6.6 5.3 8.5 5.4 Q9.05 5.35 9.5 5.7 9.95 5.9 9.75 6.15 L9.7 6.3 9.1 6.4" fill="#e09636" fill-rule="evenodd" stroke="none"/>
      <path d="M10.7 5.7 L12.65 5.5 13.65 5.55 Q14.1 5.65 14.15 5.85 L14.5 6.15 14.9 6.3 14.05 6.5 13.65 6.65 13.3 6.75 12.75 6.5 11.7 6.4 11.0 6.0 10.7 5.7" fill="#e09636" fill-rule="evenodd" stroke="none"/>
      <path d="M21.8 2.85 Q22.25 2.9 23.25 3.6 L23.7 3.9 Q24.65 3.95 23.8 4.15 23.1 4.2 22.7 4.45 22.0 4.9 21.6 4.8 22.45 5.1 20.75 4.55 L19.1 4.05 18.85 3.85 19.9 3.75 20.95 3.45 21.3 3.0 21.8 2.85" fill="#e09636" fill-rule="evenodd" stroke="none"/>
      <path d="M23.4 1.1 L22.75 1.3 22.1 1.5 21.65 1.35 21.45 1.0 21.1 0.8 20.45 0.55 21.3 0.35 23.3 0.5 24.3 0.65 24.95 0.7 Q25.3 0.75 25.1 0.9 L23.4 1.1" fill="#e09636" fill-rule="evenodd" stroke="none"/>
      <path d="M28.45 2.3 L28.5 2.75 28.3 3.0 28.25 3.1 28.5 3.4 Q28.65 3.55 28.4 3.65 L27.9 3.75 27.4 3.55 Q27.1 3.1 26.7 3.0 L25.65 2.9 25.2 2.6 Q25.05 2.35 25.3 2.3 L26.2 2.05 26.3 1.7 25.95 1.45 Q25.65 1.3 25.85 1.1 L26.25 0.95 27.6 1.7 28.45 2.3" fill="#e09636" fill-rule="evenodd" stroke="none"/>
      <path d="M25.4 4.65 L24.95 4.65 24.8 4.5 Q24.65 4.3 24.95 4.15 L25.6 4.05 26.5 4.25 26.85 4.5 26.7 4.65 26.15 4.75 25.75 4.75 25.4 4.65" fill="#e09636" fill-rule="evenodd" stroke="none"/>
      <path d="M20.05 1.25 Q20.5 1.45 20.55 1.6 L20.5 1.8 18.95 1.65 18.65 1.55 17.0 1.1 Q16.5 1.1 16.9 1.05 L17.7 0.9 18.8 0.8 Q19.15 0.8 20.05 1.25" fill="#e09636" fill-rule="evenodd" stroke="none"/>
      <path d="M10.1 9.05 L8.9 8.6 7.55 8.1 7.5 7.95 7.65 7.75 9.55 7.6 10.5 7.95 11.5 8.2 Q12.05 8.15 12.45 8.5 L12.9 8.75 Q13.15 8.9 12.65 8.9 L11.1 8.9 10.1 9.05" fill="#e09636" fill-rule="evenodd" stroke="none"/>
      <path d="M19.7 5.9 L20.6 6.0 21.3 6.45 21.9 6.95 22.6 7.4 22.45 7.6 22.25 7.85 21.6 7.6 Q21.1 7.35 20.65 7.25 L19.6 6.75 18.5 6.1 Q18.3 5.9 18.65 5.9 L19.7 5.9" fill="#e09636" fill-rule="evenodd" stroke="none"/>
      <path d="M13.7 3.3 L12.9 3.9 Q12.5 4.4 12.05 4.15 L11.1 3.9 10.9 3.9 10.65 3.7 10.35 3.35 10.5 3.3 12.45 3.3 13.5 3.15 Q14.1 3.05 13.7 3.3" fill="#e09636" fill-rule="evenodd" stroke="none"/>
      <path d="M23.4 1.9 Q24.75 2.1 24.5 2.3 24.1 2.7 23.75 2.7 23.25 2.7 23.1 2.5 L22.65 2.3 Q22.5 2.2 22.8 2.0 L23.4 1.9" fill="#e09636" fill-rule="evenodd" stroke="none"/>
      <path d="M16.0 4.3 L18.3 4.5 18.1 5.15 17.5 5.7 17.5 5.6 16.65 5.45 15.15 5.4 Q14.8 5.4 14.9 5.15 15.5 4.3 16.0 4.3" fill="#e09636" fill-rule="evenodd" stroke="none"/>
      <path d="M27.7 2.25 L27.0 1.9 26.45 1.5 26.2 1.5 25.95 1.45 25.75 1.15 25.9 1.05 26.25 0.95 26.5 1.05 27.3 1.65 28.05 2.0 Q28.45 2.4 28.25 2.45 L27.95 2.4 27.7 2.25" fill="#f5b151" fill-rule="evenodd" stroke="none"/>
      <path d="M22.9 0.5 L23.7 0.5 24.3 0.65 24.7 0.7 23.9 0.75 23.3 0.7 23.05 0.65 22.9 0.5" fill="#f5b151" fill-rule="evenodd" stroke="none"/>
      <path d="M21.55 0.3 L22.15 0.45 21.85 0.5 21.45 0.55 21.45 0.45 21.55 0.3" fill="#f5b151" fill-rule="evenodd" stroke="none"/>
      <path d="M22.5 0.65 L22.75 0.7 22.75 0.85 22.35 0.9 22.2 0.75 Q22.2 0.65 22.5 0.65" fill="#f5b151" fill-rule="evenodd" stroke="none"/>
      <path d="M25.6 4.05 L26.1 4.25 26.05 4.2 25.9 4.25 25.7 4.45 25.5 4.45 25.3 4.35 25.25 4.25 Q25.25 4.1 25.6 4.05" fill="#f5b151" fill-rule="evenodd" stroke="none"/>
      <path d="M18.95 0.9 L19.45 1.1 19.2 1.25 18.75 1.3 18.3 1.2 18.45 1.05 18.95 0.9" fill="#f5b151" fill-rule="evenodd" stroke="none"/>
      <path d="M9.45 7.65 L10.1 8.15 9.4 8.25 8.95 8.3 Q8.65 8.5 8.55 8.3 L8.45 8.1 8.55 8.0 9.05 7.85 9.45 7.65" fill="#f5b151" fill-rule="evenodd" stroke="none"/>
      <path d="M11.15 8.45 L11.8 8.45 11.9 8.55 11.3 8.7 11.1 8.7 10.9 8.7 Q10.75 8.75 10.85 8.6 10.9 8.45 11.15 8.45" fill="#f5b151" fill-rule="evenodd" stroke="none"/>
      <path d="M21.8 3.2 L22.35 3.3 22.65 3.45 22.85 3.7 22.4 3.75 Q21.5 3.7 21.35 3.5 21.3 3.3 21.8 3.2" fill="#f5b151" fill-rule="evenodd" stroke="none"/>
      <path d="M20.2 3.8 L21.05 4.0 21.5 4.2 21.2 4.25 20.8 4.15 19.7 3.95 Q19.5 3.9 19.65 3.85 L20.2 3.8" fill="#f5b151" fill-rule="evenodd" stroke="none"/>
      <path d="M19.9 5.9 L20.7 6.25 20.3 6.45 20.3 6.55 20.05 6.5 19.3 6.35 18.75 6.2 Q18.55 6.1 18.9 6.1 L19.9 5.9" fill="#f5b151" fill-rule="evenodd" stroke="none"/>
      <path d="M21.3 6.8 L21.6 7.05 21.6 7.25 21.3 7.2 20.95 7.1 Q20.75 7.1 20.8 6.9 L21.3 6.8" fill="#f5b151" fill-rule="evenodd" stroke="none"/>
      <path d="M16.45 4.4 L17.25 4.45 Q17.6 4.55 17.3 4.6 L16.55 4.7 16.05 4.8 15.9 4.9 15.85 4.85 Q15.7 4.5 16.45 4.4" fill="#f5b151" fill-rule="evenodd" stroke="none"/>
      <path d="M12.95 5.6 L13.6 5.7 Q13.9 5.85 13.6 5.95 L12.8 6.05 12.3 6.0 Q12.0 6.05 12.2 5.8 12.4 5.55 12.95 5.6" fill="#f5b151" fill-rule="evenodd" stroke="none"/>
      <path d="M23.35 2.05 L23.9 2.1 Q24.1 2.15 23.9 2.25 L23.7 2.35 23.45 2.3 23.1 2.1 23.35 2.05" fill="#f5b151" fill-rule="evenodd" stroke="none"/>
      <path d="M8.25 5.55 L8.9 5.75 Q9.25 5.95 9.0 6.05 L8.3 6.15 7.75 6.15 7.35 6.15 6.95 6.1 Q6.85 6.1 6.9 5.95 L6.9 5.8 7.1 5.7 8.25 5.55" fill="#f5b151" fill-rule="evenodd" stroke="none"/>
      <path d="M12.0 3.35 Q12.9 3.35 12.6 3.5 L11.95 3.7 11.35 3.7 11.05 3.5 12.0 3.35" fill="#f5b151" fill-rule="evenodd" stroke="none"/>
      <path d="M27.3 6.85 L28.25 6.45 26.05 7.9 Q24.8 8.55 24.05 8.65 L22.2 9.3 21.25 9.7 20.25 9.9 Q19.85 9.9 18.2 10.45 L16.3 11.05 13.5 11.5 10.8 11.4 8.7 10.95 7.25 10.5 6.5 10.35 5.5 10.05 4.8 9.75 4.4 9.1 4.1 8.4 4.1 8.15 Q3.9 7.9 4.1 7.5 L4.5 6.95 Q4.25 7.2 4.7 7.3 L4.85 7.3 5.05 7.6 5.05 7.95 5.2 8.25 5.35 8.8 7.3 9.4 8.1 9.85 9.05 10.15 10.05 10.2 10.6 10.35 12.3 10.45 14.15 10.25 15.1 10.2 16.2 10.25 17.35 10.1 Q17.45 10.05 18.15 9.75 L19.2 9.3 20.7 9.0 21.65 8.75 22.65 8.2 Q24.0 7.5 25.65 7.3 L27.3 6.85" fill="#f0ab54" fill-rule="evenodd" stroke="none"/>
    </g>
    <linearGradient gradientTransform="matrix(0.0038, 0.0107, 0.0107, -0.0038, 22.25, 27.1)" gradientUnits="userSpaceOnUse" id="gradient0" spreadMethod="pad" x1="-819.2" x2="819.2">
      <stop offset="0.0" stop-color="#e3e3e3"/>
      <stop offset="1.0" stop-color="#ffffff"/>
    </linearGradient>
  </defs>
</svg>
