<?xml version="1.0" encoding="UTF-8" standalone="no"?>
<svg xmlns:xlink="http://www.w3.org/1999/xlink" height="108.0px" width="1500.0px" xmlns="http://www.w3.org/2000/svg">
  <g transform="matrix(1.0, 0.0, 0.0, 1.0, 0.0, 0.0)">
    <use height="108.0" transform="matrix(1.0, 0.0, 0.0, 1.0, 0.0, 0.0)" width="1500.0" xlink:href="#shape0"/>
  </g>
  <defs>
    <g id="shape0" transform="matrix(1.0, 0.0, 0.0, 1.0, 0.0, 0.0)">
      <path d="M1374.35 7.2 L1378.8 10.6 1377.6 10.4 1358.05 9.55 1338.55 8.1 1330.2 7.6 1322.4 6.9 Q1326.7 6.4 1333.8 6.65 L1345.15 7.0 1347.2 7.0 1344.4 7.25 1374.35 7.2 M1090.7 7.2 L1285.1 8.15 Q1237.9 10.65 1175.6 10.65 L1065.95 9.75 1044.95 9.15 1033.8 8.75 Q1062.7 8.2 1090.7 7.2 M157.4 8.05 L157.55 8.05 153.8 7.6 Q165.4 7.75 157.55 8.05 L157.9 8.1 157.4 8.05 M164.35 8.25 L164.55 8.15 196.9 8.45 202.05 9.2 164.35 8.25 M375.0 9.8 L353.55 8.55 407.4 8.6 432.25 8.45 629.65 13.0 615.8 13.0 573.6 12.1 579.0 12.45 586.55 12.9 542.85 12.5 456.0 11.5 423.3 11.2 Q404.15 11.0 390.6 10.5 357.8 12.65 314.4 12.8 L238.05 12.35 192.45 12.25 146.85 11.9 Q140.55 11.75 144.3 11.4 L155.95 10.65 156.55 10.65 174.8 10.55 Q214.9 10.65 280.65 10.35 L326.15 9.9 369.6 10.0 383.35 10.2 377.45 9.95 386.55 9.9 375.0 9.8 M327.45 6.45 L323.8 6.1 337.25 6.45 327.45 6.45 M515.25 6.65 L529.4 6.45 566.2 6.55 650.45 8.25 649.15 8.2 706.55 8.15 849.15 13.55 Q816.65 13.65 777.85 12.75 L706.55 10.55 676.5 9.25 612.0 9.4 547.45 9.3 Q515.5 9.05 492.75 7.65 L493.65 7.6 560.5 6.7 515.25 6.65 M62.85 59.85 L75.7 60.9 85.45 62.0 95.25 62.85 100.8 62.8 Q103.2 62.9 103.8 63.5 93.85 64.55 79.05 62.1 L72.3 61.35 62.25 60.25 62.75 59.85 62.85 59.85 M153.75 59.35 L150.8 58.65 155.6 59.15 163.55 58.35 170.7 59.1 172.8 59.4 162.9 60.05 161.6 59.9 167.85 58.9 158.95 59.55 155.6 59.15 153.75 59.35 M174.55 59.65 L185.8 61.4 183.1 61.35 174.0 61.1 167.25 60.55 174.55 59.65 M233.2 63.6 L238.05 63.75 244.4 64.15 254.0 63.85 Q260.2 63.6 263.3 64.65 L254.15 65.25 244.8 65.0 234.45 65.0 224.25 64.15 233.2 63.6 M103.15 64.55 L100.95 64.75 98.15 65.15 89.35 64.75 80.65 63.6 74.4 62.95 83.0 63.65 103.15 64.55 M149.65 93.55 L150.2 93.55 98.65 94.3 82.4 95.1 66.1 95.8 55.75 96.2 45.45 96.9 41.95 97.6 38.55 98.3 31.1 98.55 Q26.75 98.4 24.45 97.6 L44.35 96.05 58.0 94.9 98.65 94.3 Q117.9 93.35 132.9 93.3 L138.3 93.3 Q143.2 93.3 147.6 93.45 L149.65 93.55 M61.45 106.45 L97.95 107.55 Q72.0 107.55 53.55 106.95 L30.05 105.85 44.35 106.4 Q53.85 106.75 61.45 106.45 M400.9 102.1 L408.4 101.8 406.6 102.25 406.3 103.15 405.05 103.25 402.9 102.75 Q401.55 102.5 400.9 102.1 M403.95 103.35 L402.1 103.4 Q399.3 103.4 398.35 102.55 L398.3 102.4 403.95 103.35 M422.95 102.15 L493.05 102.7 464.6 103.3 Q446.7 103.8 436.15 103.75 L427.35 104.2 Q425.5 104.45 422.3 106.25 419.65 107.75 416.9 107.5 L417.3 106.85 417.6 106.75 Q419.65 106.05 421.25 105.15 423.85 103.8 423.6 102.85 L422.95 102.15 M1498.25 106.6 L1401.05 106.1 Q1345.7 105.65 1303.75 104.3 L1497.95 106.35 1498.1 106.35 1498.4 106.6 1498.25 106.6 M1477.45 102.6 L1456.2 102.2 1471.3 102.2 1477.45 102.6 M1187.3 95.45 L1190.3 95.35 1201.05 95.9 1197.25 95.8 1188.3 96.2 1185.1 97.15 1181.75 97.45 Q1182.65 95.85 1187.3 95.45 M1426.2 101.65 Q1453.75 100.15 1490.8 100.6 L1490.9 100.6 1492.3 101.7 Q1478.15 101.55 1467.55 101.85 L1426.2 101.65 M1348.2 89.65 L1343.95 89.95 1337.65 90.35 1330.65 90.4 1323.65 90.35 1317.1 89.8 1310.75 89.05 1302.3 88.8 1293.8 88.9 Q1274.7 88.9 1236.75 88.2 L1219.35 87.8 1239.75 87.85 1299.8 88.2 1348.55 89.5 1348.2 89.65 M1478.8 90.95 L1471.1 91.2 1463.35 90.75 Q1464.55 90.0 1468.45 90.1 L1474.25 90.35 1477.95 90.25 1478.1 90.25 1478.95 90.95 1478.8 90.95 M1238.3 80.0 L1231.3 80.4 1227.9 80.0 1238.3 80.0 M1206.6 73.65 Q1210.45 72.55 1217.15 71.9 L1225.55 70.7 1234.1 70.3 1246.8 71.9 1254.1 72.45 1261.75 72.45 1258.85 72.8 1256.0 73.15 1247.0 73.85 1242.95 74.65 1239.0 75.8 1237.45 76.2 1237.2 75.9 Q1241.4 74.35 1240.1 71.6 1236.7 71.3 1230.95 71.7 L1221.75 72.2 1213.75 72.9 1206.6 73.65 M1196.9 75.55 L1196.45 75.85 1200.55 76.55 1204.45 77.3 1215.15 77.45 1221.7 77.2 1228.1 77.4 Q1229.0 77.55 1230.15 78.1 L1232.05 78.9 1234.0 79.25 1227.8 79.5 1224.9 79.7 1223.25 79.6 1218.2 79.7 1213.2 79.6 1208.7 79.25 1204.15 78.75 1199.8 77.55 Q1197.15 76.8 1195.25 76.75 L1196.45 75.85 1196.35 75.85 1196.35 75.6 1196.9 75.55 M1283.4 81.05 L1280.5 80.4 Q1273.55 78.9 1268.9 78.9 L1240.05 78.15 1256.05 77.8 Q1265.75 77.6 1272.0 78.15 L1276.15 79.0 1280.0 80.15 Q1284.45 81.3 1291.4 81.45 L1302.9 81.9 1308.35 82.35 1307.75 82.35 1284.75 81.2 1283.4 81.05 M1312.55 82.3 L1310.25 82.15 1313.7 82.0 1331.05 82.0 1312.55 82.3 M1368.05 82.0 L1377.05 81.7 1385.9 82.0 1384.65 82.0 1368.05 82.0 M1462.85 78.1 L1454.35 78.0 1462.65 77.95 1462.75 77.95 1462.95 78.1 1462.85 78.1 M1433.2 70.65 L1409.05 70.5 1394.45 70.3 1452.6 69.85 1452.7 69.85 1453.2 70.25 1433.2 70.65 M1446.05 64.6 Q1414.0 64.15 1382.0 63.25 L1370.45 62.8 1445.5 64.15 1445.6 64.15 1446.2 64.6 1446.05 64.6 M1436.25 56.7 L1430.0 56.65 Q1417.55 56.65 1393.55 57.0 L1357.1 57.4 1349.3 57.55 1341.45 57.4 1340.65 57.35 1304.05 57.95 Q1262.6 58.75 1237.65 58.25 L1183.35 57.15 1337.55 57.0 1332.25 56.4 1326.0 55.95 1436.1 56.6 1436.25 56.6 1436.35 56.7 1436.25 56.7 M1134.2 41.2 L1135.25 41.45 1137.2 42.15 1139.45 42.55 1146.55 42.7 1153.7 42.6 1165.45 42.65 1169.3 42.9 1173.25 43.25 1168.55 43.7 1163.85 44.0 1150.7 44.0 1144.6 43.9 Q1149.4 43.8 1151.9 42.8 L1141.85 43.05 1133.15 42.95 1124.45 41.9 1129.6 41.35 1131.15 41.15 1131.45 41.15 1134.2 41.2 M1117.15 42.0 L1115.65 42.0 1115.5 41.95 1117.15 42.0 M1111.2 39.9 L1111.15 39.85 1111.25 39.9 1111.2 39.9 M1279.8 40.4 L1265.9 40.4 1254.25 40.5 1242.65 39.85 Q1246.55 40.0 1252.4 39.75 L1262.1 39.2 1273.25 37.8 Q1277.3 36.9 1282.4 36.7 L1291.8 36.65 1295.85 37.05 1284.9 39.45 1279.8 40.4 M1285.4 40.35 L1285.55 40.4 1285.4 40.35 M1238.05 60.25 Q1266.65 60.15 1280.95 60.35 L1322.2 61.65 1238.05 60.25 M1067.9 39.75 L1069.5 39.5 1073.1 40.0 1080.35 40.35 1077.45 40.7 1074.6 40.85 Q1073.7 41.0 1072.3 41.7 L1070.15 42.65 1064.35 43.5 1058.25 43.55 1050.75 43.6 1043.25 43.5 1036.25 42.9 1047.6 43.0 1053.25 43.2 1058.7 43.4 1062.65 43.5 Q1065.3 43.4 1065.95 42.5 L1069.7 42.2 Q1069.75 40.75 1067.9 39.75 M1023.5 41.65 L1023.2 41.5 1030.55 41.75 1025.45 41.0 1027.55 41.0 1043.55 41.5 1059.5 41.2 1063.15 41.1 1064.6 40.85 Q1064.1 41.65 1062.2 41.85 L1057.2 41.75 1050.5 41.75 Q1046.0 41.9 1044.6 42.7 L1045.95 42.85 1045.4 42.8 1031.3 42.15 1023.5 41.65 M1044.25 38.65 L1044.05 38.75 Q1043.45 39.3 1044.15 39.75 L1044.0 40.45 1043.4 40.75 1040.7 40.45 1039.5 40.3 1037.65 39.85 Q1039.1 38.75 1044.25 38.65 M1043.15 40.8 L1042.35 40.85 1041.5 40.8 1043.15 40.8 M1064.0 74.6 L1065.8 74.55 1069.65 74.75 1073.25 75.65 1076.8 76.6 1081.1 76.75 1085.35 76.9 1070.05 79.75 Q1069.65 79.8 1069.1 80.4 L1067.95 81.05 1066.0 81.1 1064.05 81.0 1058.9 81.75 Q1050.75 83.2 1043.7 83.2 L1032.95 83.7 1027.6 83.55 1028.8 83.55 Q1040.4 83.55 1053.85 81.65 1064.2 80.15 1077.85 77.15 1071.0 75.5 1064.0 74.6 M1022.7 76.4 Q1021.7 77.25 1019.25 77.55 L1019.1 78.9 Q1018.85 79.85 1018.9 80.2 1017.3 80.35 1016.6 79.55 1015.9 78.9 1016.25 77.9 L1016.85 76.9 1020.45 76.4 1022.7 76.4 M1060.25 77.0 L1060.4 76.9 1064.1 77.0 1060.25 77.0 M983.4 74.5 L974.85 75.4 Q969.55 76.1 966.1 77.25 L957.55 80.2 Q953.15 81.55 948.4 81.75 L938.05 82.2 928.85 82.45 929.8 82.35 949.9 80.7 Q954.85 80.55 959.95 79.0 L969.1 75.95 Q972.75 74.8 979.95 74.6 L983.4 74.5 M1064.65 77.7 Q1063.45 78.65 1061.35 78.95 L1057.95 79.1 1064.65 77.7 M1107.8 83.6 L1111.1 83.8 1114.65 85.35 1108.5 85.9 1102.7 86.8 1096.9 86.9 1091.05 86.8 1100.3 84.55 1101.3 84.35 1107.8 83.6 M1150.95 87.0 L1161.8 85.65 Q1152.7 85.75 1137.75 83.75 L1113.6 80.85 1113.45 80.85 1110.65 80.35 1114.55 79.9 1118.65 79.6 1123.25 80.2 1127.8 81.05 1137.15 83.1 Q1142.85 84.4 1146.5 84.7 1151.55 85.15 1166.55 85.05 1179.1 85.0 1186.3 86.3 1185.25 87.25 1179.7 87.2 L1172.1 87.0 1151.55 87.0 1150.95 87.0 M1120.2 42.0 L1118.8 41.45 1120.5 41.35 1124.45 41.9 1120.2 42.0 M1117.65 45.8 L1121.45 45.9 1128.35 45.25 1196.25 44.7 1128.4 46.85 1115.55 47.35 1105.6 46.85 1110.5 46.55 1115.1 46.75 Q1118.0 46.75 1119.35 46.0 L1117.65 45.8 M1163.75 91.5 Q1170.15 91.35 1172.35 90.35 L1196.5 90.7 1174.8 91.75 1165.45 92.9 Q1160.0 93.55 1155.9 93.05 1157.9 91.55 1163.75 91.5 M1148.5 88.0 L1096.75 92.25 Q1064.8 92.35 1002.75 90.2 L936.45 88.15 1148.5 88.0 M1219.4 90.8 L1225.75 91.05 1196.5 90.7 Q1206.35 90.55 1219.4 90.8 M1384.0 77.4 L1390.45 77.55 1368.45 77.45 Q1374.5 77.3 1384.0 77.4 M579.65 81.15 L576.55 80.55 580.15 81.2 579.65 81.15 M572.95 79.85 L569.35 79.15 566.35 79.1 563.35 78.55 563.3 78.55 560.25 78.1 553.9 77.25 548.3 75.85 536.35 74.75 541.35 75.0 546.35 75.3 557.3 75.85 562.5 76.85 567.9 77.45 579.45 78.5 590.85 80.15 596.05 81.2 601.3 82.4 606.8 83.7 612.4 85.0 627.0 86.7 631.25 86.9 633.75 87.0 623.25 87.0 572.95 79.85 M436.25 79.35 L458.5 78.5 459.45 78.45 442.3 80.25 Q443.0 80.7 445.65 81.2 L441.4 81.1 441.25 81.1 435.2 80.15 428.1 79.6 428.8 79.45 431.65 79.35 434.45 79.4 436.25 79.35 M613.2 86.65 L618.65 86.9 620.65 87.0 610.85 87.0 610.55 86.9 615.05 86.9 613.2 86.65 M567.5 87.0 L561.05 87.0 551.1 86.05 532.7 85.5 521.4 85.2 510.25 85.5 501.2 86.5 489.2 86.15 489.15 86.1 489.25 85.85 490.3 85.75 495.4 84.9 500.6 84.25 Q511.35 83.9 514.9 83.9 L529.25 84.35 567.3 86.7 567.5 87.0 M616.4 87.9 L627.6 87.7 629.35 87.95 629.95 87.95 626.35 88.05 Q620.55 88.15 616.4 87.9 M628.05 87.7 L629.65 87.5 631.65 87.35 633.45 87.55 635.15 87.1 635.5 87.1 637.15 87.4 638.8 87.7 636.1 87.8 631.65 87.55 628.05 87.7 M721.8 62.35 L746.45 60.35 764.2 58.95 781.4 58.75 Q778.0 59.25 775.35 60.1 L784.55 60.4 788.85 60.4 778.5 61.0 763.0 61.7 Q757.35 61.7 746.35 62.05 L729.5 62.4 721.8 62.35 M809.6 58.1 L809.4 58.1 792.75 57.95 823.05 55.85 836.35 55.05 947.35 55.9 Q966.25 57.0 986.35 57.0 L991.5 57.0 960.85 58.6 937.8 58.65 914.75 57.95 Q897.3 56.9 871.8 57.0 L828.75 57.4 819.05 57.7 809.6 58.1 M751.85 57.7 L750.55 57.7 747.9 57.75 748.3 57.3 751.85 57.7 M700.2 35.7 Q670.0 35.6 646.8 35.0 L878.45 34.85 859.75 35.15 753.55 35.6 700.2 35.7 M350.75 60.1 L348.95 59.2 360.25 58.8 371.35 59.3 375.45 60.15 379.7 60.8 389.3 61.1 398.9 61.4 398.8 62.2 398.85 62.85 403.4 63.1 407.95 63.5 417.45 64.0 433.6 64.0 434.85 64.0 Q418.7 64.95 402.15 64.65 L400.6 64.5 391.35 63.2 381.95 62.5 367.1 61.65 352.5 59.8 356.3 61.05 355.2 60.7 350.75 60.1 M486.25 58.85 L478.65 58.95 461.2 58.65 Q455.25 58.65 443.45 58.95 L425.75 59.2 397.95 59.2 380.05 58.95 362.15 58.65 352.1 58.0 345.9 57.55 346.7 57.6 427.95 57.05 473.05 57.4 473.95 57.45 Q477.0 57.65 483.25 57.45 L493.05 57.65 492.65 58.05 Q488.1 58.05 486.25 58.85 M280.8 63.95 Q279.9 64.65 280.4 65.55 286.4 65.85 292.2 67.9 L294.85 69.15 297.4 70.35 294.7 69.9 289.75 68.7 282.2 67.5 Q277.15 66.7 275.05 65.65 277.3 64.5 280.8 63.95 M299.25 65.55 Q300.0 66.3 303.25 66.35 L308.6 66.25 Q308.45 67.35 303.4 67.45 L300.75 67.4 303.5 67.3 Q297.35 67.4 297.0 65.75 L299.25 65.55 M332.45 67.2 L336.2 68.85 339.9 69.35 343.75 69.4 353.75 69.95 340.2 69.95 336.1 69.95 Q333.7 70.1 332.55 70.9 L334.1 71.0 309.85 71.45 316.4 70.1 327.3 68.85 323.7 69.35 330.55 69.1 Q334.45 68.6 332.45 67.2 M274.95 63.6 Q275.45 63.0 276.25 62.75 L279.6 62.45 277.85 62.85 276.3 63.3 274.95 63.6 M455.55 82.65 L457.9 82.7 458.5 82.85 455.55 82.65 M455.45 82.1 L453.55 81.95 449.8 81.6 452.95 81.75 455.45 82.1 M566.4 86.1 L554.3 84.8 550.5 84.25 538.05 83.35 550.3 84.2 539.8 82.6 529.25 81.6 Q517.85 81.05 509.7 81.5 L508.55 81.5 511.7 81.1 521.45 80.15 530.45 80.1 539.3 80.8 547.5 82.4 555.8 83.8 562.75 84.9 Q565.15 85.45 566.4 86.1 M503.35 81.9 L501.05 82.05 502.0 81.75 503.9 81.8 503.35 81.9 M565.7 89.7 L546.85 90.4 Q526.3 89.6 508.3 89.25 L662.1 89.45 642.35 89.65 587.05 89.6 565.7 89.7 M598.6 103.2 L631.85 103.0 668.3 103.15 808.8 104.85 Q782.5 104.85 731.75 104.3 679.7 103.8 654.65 103.75 L629.45 103.8 Q614.95 103.75 604.25 103.35 L598.6 103.2 M807.85 99.25 L858.1 100.0 Q832.4 101.35 790.95 101.65 782.0 101.7 768.1 101.05 L745.2 100.1 Q723.65 99.5 691.45 99.5 L639.35 99.5 622.85 99.25 609.05 99.0 634.75 98.65 663.25 98.4 690.6 98.65 679.0 98.9 807.85 99.25 M413.2 88.65 Q469.7 88.45 508.3 89.3 L316.75 89.05 318.1 89.0 413.2 88.65 M677.05 89.8 L670.3 89.5 823.0 89.65 Q808.3 89.65 779.15 90.35 750.05 91.05 735.3 91.05 L706.1 90.9 677.05 89.8 M883.3 29.8 L892.5 29.85 939.05 30.35 1064.15 32.35 976.8 32.2 Q927.75 31.75 889.5 30.05 L883.3 29.8 M991.5 57.0 L992.1 56.95 Q1003.05 56.3 1019.9 56.6 L1047.7 57.0 991.5 57.0 M769.5 69.2 L799.2 68.35 803.15 68.55 807.45 68.1 880.2 66.25 929.75 65.65 860.15 69.2 Q819.8 71.0 790.45 70.5 L779.3 70.35 Q770.85 70.05 769.5 69.2 M171.3 100.25 L171.45 100.2 168.5 100.0 169.05 100.0 169.3 100.0 171.9 100.15 173.4 100.0 174.6 100.3 180.8 100.45 183.6 100.7 182.55 100.7 174.6 100.3 171.3 100.25 M182.45 98.55 L185.1 98.5 183.65 98.65 182.45 98.55 M340.5 38.3 L394.5 38.8 250.5 39.4 191.9 39.45 Q158.1 39.35 133.35 38.25 129.9 38.1 160.15 37.5 L186.85 36.7 230.95 37.15 Q224.0 37.45 215.05 37.4 209.65 37.4 199.4 37.7 L190.2 38.0 211.25 38.0 Q221.35 38.0 249.3 38.55 266.2 38.95 292.35 38.6 L327.05 38.15 336.65 38.25 340.5 38.3 M280.35 62.45 L280.75 62.4 280.85 62.4 280.35 62.45 M248.3 54.8 L248.8 55.2 228.45 54.95 248.3 54.8 M254.45 79.85 L251.25 79.85 Q238.1 79.05 221.3 79.05 L196.35 79.4 188.6 79.15 162.8 78.4 178.45 78.7 194.1 78.95 225.9 78.5 257.55 79.6 248.85 79.5 254.45 79.85 M184.45 80.45 Q197.55 80.6 196.65 80.7 L188.1 81.25 179.4 81.75 165.95 81.6 172.55 81.35 180.5 81.05 182.75 81.0 184.45 80.45 M164.2 81.6 L150.5 81.5 130.15 81.35 131.95 80.95 138.05 80.15 162.4 81.5 164.2 81.6 M135.3 79.85 L128.7 79.6 132.1 79.35 135.45 78.95 141.15 78.2 144.25 78.45 147.6 78.65 141.65 79.05 135.6 79.0 135.55 79.5 135.5 79.25 Q133.35 79.5 135.3 79.85 M156.4 74.2 L157.3 74.2 156.0 74.35 155.2 74.35 156.4 74.2 M185.5 74.15 Q201.9 74.1 199.6 74.2 L203.25 74.25 186.7 74.3 185.5 74.15 M156.6 75.25 L173.9 75.85 165.15 75.85 155.6 76.05 Q149.75 76.2 146.05 75.85 L139.9 75.25 140.9 76.05 142.15 76.8 144.05 77.35 143.0 77.35 134.8 76.7 Q133.1 76.15 132.4 75.3 L140.95 74.95 148.3 74.95 148.8 75.0 146.7 75.2 156.6 75.25 M284.45 79.6 L284.1 79.6 283.4 79.55 283.75 79.55 284.45 79.6 M322.15 81.55 L321.35 81.0 338.5 81.0 341.25 80.95 332.8 81.6 322.15 81.55 M373.45 79.6 L376.6 79.6 394.05 79.85 404.4 80.15 384.6 80.15 374.35 80.7 363.9 81.2 358.9 81.15 354.0 81.6 348.95 82.8 343.7 83.35 340.1 83.35 341.95 83.1 350.75 81.75 366.0 80.15 373.45 79.6 M267.75 88.65 L264.05 88.95 263.8 89.0 255.3 89.6 246.75 89.9 223.6 89.9 200.45 90.0 138.95 90.0 122.1 89.2 Q123.1 88.55 116.15 88.35 L267.75 88.65 268.7 88.55 Q279.0 87.85 292.8 88.1 L316.85 88.75 267.75 88.65 M294.35 44.1 L291.8 43.9 290.05 44.05 Q240.5 43.65 186.35 42.35 L169.2 41.6 435.55 43.1 Q370.5 44.65 294.35 44.1 M324.65 67.6 L324.8 67.4 325.6 67.65 324.95 67.7 326.15 68.3 324.65 67.6 M339.9 55.85 L340.0 55.9 303.3 55.65 Q317.25 55.5 339.9 55.85 M157.8 38.1 L174.8 38.35 Q169.45 38.65 187.95 38.55 207.2 38.45 192.5 38.3 L156.0 38.05 157.8 38.1 M104.7 42.0 Q108.15 41.4 111.7 42.05 L159.35 43.35 217.7 46.0 260.45 49.25 104.7 42.0 M274.6 95.35 L418.4 96.25 347.45 97.95 Q307.3 98.75 276.5 98.45 L244.05 96.8 233.8 96.1 223.55 95.2 217.95 94.25 212.3 93.5 233.6 94.3 240.55 94.7 238.15 94.8 237.2 94.85 254.35 95.5 Q264.9 95.95 271.6 95.5 L274.6 95.35 M169.2 41.6 L144.4 41.45 Q153.15 40.85 169.2 41.6 M224.85 106.0 Q219.45 106.35 215.45 105.95 215.15 104.2 218.05 103.95 219.65 103.8 222.8 104.0 L250.55 104.0 238.4 104.8 224.85 106.0 M109.9 102.7 L173.55 104.3 128.55 105.7 83.8 102.1 Q96.75 102.65 109.9 102.7 M252.6 104.0 L255.85 103.8 Q304.75 102.45 357.9 104.0 L252.6 104.0" fill="#d3be88" fill-rule="evenodd" stroke="none"/>
      <path d="M1396.25 24.55 Q1381.2 24.05 1370.5 23.9 1354.1 23.65 1328.55 23.9 L1286.55 24.25 1275.75 24.35 1397.5 25.55 1410.95 36.35 1312.55 34.85 Q1306.95 34.7 1298.6 36.4 L1295.85 37.05 1291.8 36.65 1282.4 36.7 Q1277.3 36.9 1273.25 37.8 L1262.1 39.2 1252.4 39.75 Q1246.55 40.0 1242.65 39.85 L1254.25 40.5 1265.9 40.4 1279.8 40.4 1276.25 41.0 1267.45 41.8 1253.55 41.8 1239.6 41.75 1216.0 41.75 Q1202.45 41.7 1192.4 41.15 L1171.7 39.3 1150.9 38.05 Q1135.7 37.85 1128.15 38.1 1118.65 38.4 1111.25 39.9 L1111.15 39.85 1111.2 39.9 1106.05 41.1 1112.45 41.85 1115.5 41.95 1115.65 42.0 1117.15 42.0 1119.0 42.15 1125.45 43.0 1132.0 43.35 1142.25 43.85 1144.6 43.9 1150.7 44.0 1163.85 44.0 1168.55 43.7 1173.25 43.25 1169.3 42.9 1165.45 42.65 1153.7 42.6 1146.55 42.7 1139.45 42.55 1137.2 42.15 1135.25 41.45 1134.2 41.2 1139.9 41.1 Q1148.35 40.5 1154.65 40.8 L1174.95 41.85 1195.3 42.3 1207.05 42.25 Q1214.05 42.2 1218.75 42.3 L1252.05 42.75 Q1270.65 42.85 1285.45 42.2 L1312.0 40.65 1338.6 39.2 1357.7 38.8 1376.8 38.05 1411.4 36.7 1420.7 44.2 1353.9 46.05 1422.05 45.3 1436.1 56.6 1326.0 55.95 1332.25 56.4 1337.55 57.0 1183.35 57.15 1237.65 58.25 Q1262.6 58.75 1304.05 57.95 L1340.65 57.35 1341.45 57.4 1349.3 57.55 1357.1 57.4 1393.55 57.0 Q1417.55 56.65 1430.0 56.65 L1436.25 56.7 1445.5 64.15 1370.45 62.8 1382.0 63.25 Q1414.0 64.15 1446.05 64.6 L1452.6 69.85 1394.45 70.3 1409.05 70.5 1433.2 70.65 1432.7 70.65 Q1406.25 71.5 1395.6 71.5 L1377.85 70.85 Q1364.4 70.65 1362.9 72.8 L1374.95 73.15 1387.1 72.9 1394.65 73.3 1402.15 73.65 Q1419.8 73.55 1430.7 73.1 L1456.6 73.05 1462.65 77.95 1454.35 78.0 1462.85 78.1 1468.8 82.9 1462.05 82.75 1423.35 82.4 1385.9 82.0 1377.05 81.7 1368.05 82.0 1331.05 82.0 1313.7 82.0 1310.25 82.15 1312.55 82.3 1308.35 82.35 1302.9 81.9 1291.4 81.45 Q1284.45 81.3 1280.0 80.15 L1276.15 79.0 1272.0 78.15 Q1265.75 77.6 1256.05 77.8 L1240.05 78.15 1268.9 78.9 Q1273.55 78.9 1280.5 80.4 L1283.4 81.05 1259.75 79.4 1234.3 79.25 1234.0 79.25 1232.05 78.9 1230.15 78.1 Q1229.0 77.55 1228.1 77.4 L1221.7 77.2 1215.15 77.45 1204.45 77.3 1200.55 76.55 1196.45 75.85 1196.9 75.55 1202.9 75.4 1213.65 75.1 1222.8 74.3 Q1228.35 73.95 1232.25 74.45 1232.8 75.05 1232.25 75.6 1228.4 76.35 1227.5 77.0 1231.65 77.5 1236.15 76.2 L1237.2 75.9 1237.45 76.2 1239.0 75.8 1242.95 74.65 1247.0 73.85 1256.0 73.15 1258.85 72.8 1261.75 72.45 1254.1 72.45 1246.8 71.9 1234.1 70.3 1225.55 70.7 1217.15 71.9 Q1210.45 72.55 1206.6 73.65 L1205.75 73.65 1191.8 73.9 Q1183.4 74.25 1178.4 75.6 L1195.8 77.75 Q1200.55 79.7 1207.6 80.1 1212.6 80.35 1220.75 79.9 L1227.9 80.0 1231.3 80.4 1238.3 80.0 1244.3 80.0 1255.05 79.7 1265.85 80.15 Q1268.0 80.5 1271.95 81.55 1275.6 82.55 1277.85 82.8 L1290.65 83.75 1303.9 84.3 Q1316.8 84.85 1337.7 84.3 1364.65 83.55 1371.5 83.55 L1385.2 84.05 1398.9 84.95 1416.35 85.6 1433.75 86.2 1474.5 87.5 1477.95 90.25 1474.25 90.35 1468.45 90.1 Q1464.55 90.0 1463.35 90.75 L1471.1 91.2 1478.8 90.95 1481.8 93.35 1448.5 93.1 Q1425.35 92.75 1415.05 92.75 L1367.8 92.75 1359.35 92.9 Q1353.1 92.65 1354.1 90.7 1356.0 90.55 1360.65 90.7 L1367.1 90.5 Q1364.55 89.3 1358.8 88.9 L1349.75 89.15 Q1349.25 89.25 1348.55 89.5 L1299.8 88.2 1239.75 87.85 1219.35 87.8 1236.75 88.2 Q1274.7 88.9 1293.8 88.9 L1302.3 88.8 1310.75 89.05 1317.1 89.8 1323.65 90.35 1330.65 90.4 1337.65 90.35 1343.95 89.95 1348.2 89.65 1347.0 90.15 1344.4 91.2 1337.1 91.95 1329.6 92.65 1334.05 93.25 1338.7 93.4 Q1343.2 93.8 1353.85 93.8 1364.6 93.8 1379.25 94.15 L1404.6 94.75 1411.05 95.0 1335.5 95.0 Q1322.6 95.0 1296.8 94.4 L1313.35 95.7 1354.6 97.85 Q1378.1 98.55 1398.6 97.8 L1438.05 95.4 Q1461.45 95.8 1484.9 95.85 L1490.8 100.6 Q1453.75 100.15 1426.2 101.65 L1346.6 101.25 Q1309.5 101.25 1290.95 100.85 L1265.3 100.1 1275.55 100.2 1229.5 96.55 Q1211.5 93.9 1202.45 93.3 1195.6 92.85 1187.25 93.55 L1172.25 95.3 1156.6 97.8 1140.9 100.1 1134.25 100.7 Q1144.55 100.6 1163.7 101.2 L1186.8 101.75 1181.8 101.55 1170.6 101.25 1163.95 100.95 1157.25 100.7 1153.2 100.85 Q1150.5 100.85 1149.7 100.3 1154.95 99.7 1166.8 99.9 L1183.75 99.25 1188.8 98.25 1200.65 98.05 1195.55 97.95 Q1192.4 97.85 1190.4 98.05 L1188.8 98.25 1182.25 98.05 1181.8 98.05 1181.55 98.0 1181.75 97.45 1185.1 97.15 1188.3 96.2 1197.25 95.8 1201.05 95.9 1190.3 95.35 1187.3 95.45 1202.55 95.95 1214.55 97.6 1226.55 99.15 1243.65 100.7 1255.1 101.2 Q1263.6 101.2 1266.6 101.35 L1293.85 102.25 1321.15 102.3 Q1328.2 102.25 1339.4 102.55 L1357.65 102.9 Q1370.2 103.0 1390.6 102.7 L1423.5 102.3 1456.2 102.2 1477.45 102.6 1494.7 103.75 1497.95 106.35 1303.75 104.3 Q1345.7 105.65 1401.05 106.1 L1498.25 106.6 1500.0 108.0 1422.35 108.0 1385.65 106.65 Q1365.3 106.0 1348.95 106.05 L1323.05 106.15 Q1357.4 106.7 1403.75 108.0 L344.9 108.0 359.4 107.2 374.0 107.15 389.5 107.4 405.0 107.65 411.4 107.7 Q414.85 107.6 417.3 106.85 L416.9 107.5 Q419.65 107.75 422.3 106.25 425.5 104.45 427.35 104.2 L436.15 103.75 Q446.7 103.8 464.6 103.3 L493.05 102.7 422.95 102.15 Q421.35 101.35 416.45 101.05 L408.55 100.8 398.55 99.95 Q390.8 99.55 389.55 101.15 392.25 100.95 397.5 102.2 L398.3 102.4 398.35 102.55 Q399.3 103.4 402.1 103.4 L403.95 103.35 405.55 103.4 405.05 103.25 406.3 103.15 406.6 102.25 408.4 101.8 400.9 102.1 400.65 101.9 Q408.15 100.95 417.5 101.85 417.85 102.5 416.5 103.35 L414.05 103.9 411.9 104.55 Q408.25 105.9 406.55 106.05 L399.1 106.0 Q394.25 105.75 391.7 106.15 L392.9 106.55 392.7 106.55 Q373.7 106.05 364.15 106.05 353.95 106.0 340.45 107.8 L339.3 108.0 255.05 108.0 242.9 107.7 235.55 108.0 236.8 108.0 189.75 108.0 189.25 107.7 Q192.1 107.55 174.7 107.55 L177.8 107.1 170.65 107.55 142.2 107.65 130.25 107.75 138.95 108.0 102.85 108.0 98.05 107.8 92.35 107.75 88.75 108.0 0.0 108.0 3.45 105.35 21.9 105.6 30.05 105.85 53.55 106.95 Q72.0 107.55 97.95 107.55 L61.45 106.45 66.8 106.15 Q66.4 105.6 60.5 105.55 L54.75 105.55 41.05 104.8 27.35 103.95 Q20.15 103.7 5.6 103.7 L12.55 98.4 24.45 97.6 Q26.75 98.4 31.1 98.55 L38.55 98.3 41.95 97.6 45.45 96.9 55.75 96.2 66.1 95.8 82.4 95.1 98.65 94.3 150.2 93.55 149.65 93.55 162.65 93.95 177.45 94.7 192.1 93.95 164.4 92.7 136.55 92.2 Q116.6 91.7 94.75 91.7 59.95 91.7 44.5 92.3 L18.1 94.15 25.2 88.7 38.1 88.75 56.85 88.5 51.0 87.95 56.15 87.3 Q53.55 85.45 47.25 84.95 44.5 84.75 37.55 84.8 L30.3 84.8 34.15 81.85 55.95 82.8 66.05 84.1 75.45 86.45 56.1 86.4 78.5 87.25 87.65 88.6 88.95 88.75 Q98.3 90.9 103.6 90.3 L116.1 91.15 101.1 88.8 102.0 88.9 89.35 86.1 94.9 85.5 101.4 84.85 114.25 84.15 127.2 84.25 147.7 84.3 Q159.55 84.25 168.15 83.75 L179.5 82.85 162.4 81.6 155.1 82.0 144.75 82.15 133.1 82.0 Q126.25 81.95 121.45 82.2 L108.1 83.6 94.9 85.5 89.3 86.05 Q78.7 83.75 73.1 81.8 67.35 79.8 60.0 79.35 54.55 79.05 46.2 79.6 L36.25 80.25 44.8 73.7 52.35 73.95 Q57.4 73.9 58.7 72.95 L46.95 72.05 50.35 69.45 Q60.1 69.85 73.05 69.9 L96.0 69.9 51.95 68.2 60.9 61.4 74.4 62.95 80.65 63.6 89.35 64.75 98.15 65.15 100.95 64.75 103.15 64.55 Q126.45 64.95 147.45 62.35 L154.9 61.6 167.1 63.3 167.6 63.4 173.6 64.55 147.3 64.4 137.5 64.85 141.75 65.35 Q135.45 65.45 138.55 65.65 L150.55 67.1 145.05 67.65 130.05 68.35 145.05 67.65 152.3 67.4 167.2 69.5 Q197.2 72.2 222.95 70.45 L208.85 67.8 Q208.3 69.25 200.45 69.2 L190.5 68.85 158.1 67.15 184.5 65.8 Q187.4 65.55 179.55 65.4 L184.5 65.2 Q201.7 65.5 236.25 65.15 L234.45 65.0 244.8 65.0 254.15 65.25 263.3 64.65 Q260.2 63.6 254.0 63.85 L244.4 64.15 238.05 63.75 233.2 63.6 274.0 60.35 261.45 59.8 252.9 60.95 Q243.4 62.75 233.05 63.05 224.45 63.25 212.6 62.7 L192.2 61.55 185.8 61.4 174.55 59.65 179.7 59.0 189.9 58.3 Q193.1 57.95 189.05 57.75 L179.7 59.0 172.8 59.4 170.7 59.1 163.55 58.35 164.7 58.2 173.75 57.4 196.05 57.15 180.9 57.05 169.45 57.15 175.65 57.3 173.75 57.4 145.9 57.6 Q131.25 57.75 132.65 57.85 L141.1 58.2 149.5 58.55 150.8 58.65 153.75 59.35 146.4 59.85 126.65 60.75 Q115.55 61.45 107.2 63.0 L103.8 63.5 Q103.2 62.9 100.8 62.8 L95.25 62.85 85.45 62.0 75.7 60.9 62.85 59.85 66.75 56.85 70.65 57.75 76.95 58.5 83.3 58.75 100.7 59.3 122.65 58.5 Q130.35 57.75 139.15 55.95 L113.35 55.6 90.05 55.75 67.5 56.3 78.65 47.75 Q88.5 47.6 98.3 47.6 L79.9 46.8 85.45 42.55 Q101.0 43.0 114.65 42.95 L86.85 41.45 102.4 29.55 103.85 29.65 Q114.4 30.45 129.3 30.2 L154.8 29.55 175.45 28.75 181.6 29.05 186.6 28.4 187.95 28.2 Q195.8 27.9 202.65 27.95 L205.15 28.05 202.5 28.5 181.25 29.85 Q169.2 30.6 176.4 30.6 189.7 30.6 202.5 28.5 206.7 28.2 205.15 28.05 L210.65 26.9 212.4 26.55 227.85 26.15 228.8 26.25 243.75 27.2 258.65 28.6 268.1 29.65 277.55 30.45 279.0 30.6 321.45 36.1 320.55 36.0 325.9 36.75 328.55 36.8 317.9 34.35 311.05 32.7 Q301.75 30.9 288.2 29.25 L265.2 26.5 254.05 25.8 242.85 25.85 227.85 26.15 Q219.0 25.4 212.4 26.55 197.4 26.9 187.95 28.2 L175.45 28.75 158.2 28.05 138.35 29.0 121.25 29.05 103.85 28.45 114.55 20.25 125.2 20.45 114.85 20.05 121.3 15.1 145.55 15.6 157.55 15.75 122.35 14.3 128.2 9.8 134.15 9.85 132.35 9.85 153.75 10.6 156.55 10.65 155.95 10.65 144.3 11.4 Q140.55 11.75 146.85 11.9 L192.45 12.25 238.05 12.35 314.4 12.8 Q357.8 12.65 390.6 10.5 404.15 11.0 423.3 11.2 L456.0 11.5 542.85 12.5 586.55 12.9 613.5 14.45 632.95 15.0 652.25 16.25 761.8 13.6 703.0 13.95 Q667.1 14.2 644.15 13.65 L615.8 13.0 629.65 13.0 432.25 8.45 483.95 7.75 493.65 7.6 492.75 7.65 Q515.5 9.05 547.45 9.3 L612.0 9.4 676.5 9.25 706.55 10.55 777.85 12.75 Q816.65 13.65 849.15 13.55 L706.55 8.15 649.15 8.2 650.45 8.25 566.2 6.55 529.4 6.45 515.25 6.65 337.25 6.45 323.8 6.1 327.45 6.45 229.85 6.3 250.05 6.8 274.8 7.35 Q313.8 8.25 353.55 8.55 L375.0 9.8 196.05 8.3 196.9 8.45 164.55 8.15 164.35 8.25 157.9 8.1 157.55 8.05 Q165.4 7.75 153.8 7.6 L157.55 8.05 157.4 8.05 131.35 7.4 141.0 0.0 630.25 0.0 710.2 3.5 790.15 7.0 791.05 7.0 789.2 7.05 789.9 7.1 776.35 7.1 792.95 7.45 789.2 7.15 790.1 7.1 829.7 9.9 Q870.7 10.5 904.1 13.95 L925.5 15.0 945.25 14.9 943.5 14.85 890.6 12.6 874.5 10.8 858.4 9.2 830.05 7.8 938.25 9.25 969.95 9.35 Q961.4 11.85 944.2 10.75 925.2 9.5 917.95 10.75 920.75 11.9 926.9 11.7 L936.1 11.3 946.0 11.75 956.0 12.05 970.55 12.0 Q979.0 11.6 984.4 9.3 L984.45 9.3 984.65 9.3 984.4 9.35 1033.8 8.75 1044.95 9.15 1065.95 9.75 1175.6 10.65 Q1237.9 10.65 1285.1 8.15 L1090.7 7.2 1095.95 7.0 916.1 7.0 895.8 6.35 896.7 6.7 Q899.35 7.6 905.05 7.8 L913.6 7.95 932.25 8.3 938.7 8.35 932.25 8.4 913.6 8.1 905.05 7.85 896.7 7.0 812.2 7.15 Q801.35 6.9 792.85 7.0 L637.85 0.0 1091.1 0.0 1082.65 1.2 1077.3 2.15 Q1067.95 5.9 1052.65 6.6 L1247.15 7.8 Q1239.5 7.55 1212.65 7.25 L1178.15 6.2 1157.45 4.6 1136.8 3.0 Q1129.6 2.55 1119.0 2.65 L1101.15 2.8 1093.7 3.0 1086.35 2.7 1086.8 1.75 1087.45 0.85 1091.65 0.3 1095.95 0.0 1365.75 0.0 1373.7 6.4 1355.55 6.25 1347.2 7.0 1345.15 7.0 1333.8 6.65 Q1326.7 6.4 1322.4 6.9 L1330.2 7.6 1338.55 8.1 1358.05 9.55 1377.6 10.4 1378.8 10.6 1374.35 7.2 1374.7 7.2 1383.55 14.3 1368.45 14.6 1383.95 14.65 1389.7 19.3 1336.25 17.35 1284.7 17.35 1291.7 17.8 1315.25 19.25 1338.8 20.1 1390.65 20.05 1396.25 24.55 M1253.5 52.85 L1269.6 53.45 1243.5 52.15 1253.5 52.85 M1196.45 75.85 L1195.25 76.75 Q1197.15 76.8 1199.8 77.55 L1204.15 78.75 1208.7 79.25 1213.2 79.6 1218.2 79.7 1223.25 79.6 1224.9 79.7 1220.75 79.9 1208.6 79.35 1195.8 77.75 Q1194.15 77.1 1192.2 75.9 L1196.35 75.6 1196.35 75.85 1196.45 75.85 M1286.0 40.55 L1285.55 40.4 1286.0 40.55 M1220.35 66.7 L1174.95 68.95 1265.9 66.55 Q1229.5 66.55 1220.35 66.7 M1238.05 60.25 L1322.2 61.65 1280.95 60.35 Q1266.65 60.15 1238.05 60.25 M1122.95 41.05 Q1125.35 40.95 1131.15 41.15 L1129.6 41.35 1124.45 41.9 1133.15 42.95 1131.75 42.85 1124.9 42.6 1120.2 42.0 1124.45 41.9 1120.5 41.35 1122.95 41.05 M1036.25 42.9 L1043.25 43.5 1050.75 43.6 1058.25 43.55 1064.35 43.5 1070.15 42.65 1072.3 41.7 Q1073.7 41.0 1074.6 40.85 L1077.45 40.7 1080.35 40.35 1073.1 40.0 1069.5 39.5 1067.9 39.75 Q1064.2 37.8 1053.15 37.7 L1032.05 38.65 Q1031.2 40.85 1041.5 40.8 L1042.35 40.85 1043.15 40.8 1044.0 40.75 1043.4 40.75 1044.0 40.45 1044.15 39.75 Q1043.45 39.3 1044.05 38.75 L1044.25 38.65 1046.3 38.65 1056.45 39.1 1060.4 39.1 1064.6 39.7 Q1064.8 40.35 1064.6 40.85 L1063.15 41.1 1059.5 41.2 1043.55 41.5 1027.55 41.0 1025.45 41.0 1009.05 38.6 Q1010.2 38.8 1012.3 39.5 L1015.7 40.45 1023.2 41.5 1023.5 41.65 1023.25 41.6 1015.35 40.7 1007.95 38.9 1000.65 36.85 Q1002.1 36.05 1003.4 36.0 L992.8 36.0 Q992.4 36.0 992.2 36.3 992.0 36.6 992.1 36.9 995.3 38.05 1000.95 39.05 L1010.15 40.6 Q1020.4 42.7 1032.8 42.85 L1036.25 42.9 M1078.45 44.95 L1071.8 47.15 Q1068.25 48.15 1064.55 48.15 L1057.9 48.0 1060.4 48.15 Q1065.2 48.4 1074.95 48.15 L1078.4 47.8 1081.55 46.7 1087.7 44.85 1091.4 44.0 Q1093.85 43.4 1094.75 42.8 L1086.4 43.25 Q1082.05 43.75 1078.45 44.95 M1065.35 40.5 L1064.6 39.65 1064.7 39.75 1065.2 40.15 1065.35 40.5 M1027.6 83.55 L1032.95 83.7 1043.7 83.2 Q1050.75 83.2 1058.9 81.75 L1064.05 81.0 1066.0 81.1 1067.95 81.05 1069.1 80.4 Q1069.65 79.8 1070.05 79.75 L1085.35 76.9 1081.1 76.75 1076.8 76.6 1073.25 75.65 1069.65 74.75 1065.8 74.55 1064.0 74.6 1052.75 73.65 1039.95 71.95 Q1031.2 70.35 1027.0 70.05 1017.1 69.4 1007.3 69.5 995.85 69.6 987.75 70.8 L977.9 71.9 968.05 73.05 966.05 73.5 955.0 74.7 941.9 76.0 Q934.25 76.8 929.1 77.95 L928.25 78.0 910.9 80.25 893.65 82.9 Q878.05 85.0 857.3 85.0 L825.2 85.0 811.3 84.75 797.5 85.5 783.4 86.85 759.0 87.1 767.9 87.2 Q777.0 87.2 783.4 86.85 L850.4 86.4 868.5 86.4 Q879.0 86.1 885.95 84.4 890.4 83.3 897.7 83.3 L909.7 83.55 928.85 82.45 938.05 82.2 948.4 81.75 Q953.15 81.55 957.55 80.2 L966.1 77.25 Q969.55 76.1 974.85 75.4 L983.4 74.5 991.3 74.3 1003.7 73.65 1009.65 72.95 1015.45 72.2 Q1026.05 71.45 1039.65 73.8 L1046.35 75.15 1053.05 76.45 1059.2 76.85 1060.4 76.9 1060.25 77.0 1060.15 77.0 1055.3 77.55 1050.45 78.25 1042.4 79.0 1033.4 79.75 Q1027.3 80.05 1024.5 80.9 L1024.4 80.95 Q1013.55 81.05 1015.4 77.3 L1016.85 76.9 1016.25 77.9 Q1015.9 78.9 1016.6 79.55 1017.3 80.35 1018.9 80.2 1018.85 79.85 1019.1 78.9 L1019.25 77.55 Q1021.7 77.25 1022.7 76.4 L1025.8 76.6 1024.1 77.05 1022.2 77.3 Q1023.25 78.2 1026.2 78.05 1029.25 77.9 1029.95 76.6 L1019.25 75.5 Q1012.45 75.55 1010.3 78.6 1007.9 81.95 1016.35 83.05 L1027.6 83.55 M1113.45 80.85 L1099.8 81.35 1086.2 83.0 1073.05 84.25 1066.4 85.75 1059.65 86.4 1029.05 87.1 1047.05 87.1 1064.75 86.35 1072.8 85.8 1071.45 86.25 1079.1 86.45 1086.7 85.75 1101.3 84.35 1100.3 84.55 1091.05 86.8 1096.9 86.9 1102.7 86.8 1108.5 85.9 1114.65 85.35 1111.1 83.8 1124.3 85.4 1140.9 87.1 Q1146.15 87.3 1150.95 87.0 L1151.55 87.0 1172.1 87.0 1179.7 87.2 Q1185.25 87.25 1186.3 86.3 1179.1 85.0 1166.55 85.05 1151.55 85.15 1146.5 84.7 1142.85 84.4 1137.15 83.1 L1127.8 81.05 1123.25 80.2 1118.65 79.6 1114.55 79.9 1110.65 80.35 1113.45 80.85 M1066.85 71.15 L1054.75 70.8 Q1074.3 72.95 1103.15 72.95 L1131.3 72.8 Q1147.05 72.45 1159.2 70.8 L1174.95 69.05 1106.05 71.0 1078.9 71.0 1066.85 71.15 M1105.6 46.85 L1115.55 47.35 1128.4 46.85 1196.25 44.7 1128.35 45.25 1121.45 45.9 1117.65 45.8 1116.85 45.7 1121.6 44.95 1111.95 44.4 1107.95 44.4 1104.35 44.95 Q1095.7 45.05 1097.7 46.45 1098.7 47.15 1103.8 46.95 L1105.6 46.85 M1087.55 20.3 L994.25 17.35 1108.1 21.4 1087.55 20.3 M1163.05 51.35 Q1166.45 52.45 1173.35 52.15 L1183.55 51.45 Q1193.55 50.85 1210.5 50.75 1215.3 50.75 1220.1 50.9 L1186.7 49.2 1174.85 50.05 1163.05 51.35 M1163.75 91.5 Q1157.9 91.55 1155.9 93.05 1160.0 93.55 1165.45 92.9 L1174.8 91.75 1196.5 90.7 1172.35 90.35 Q1170.15 91.35 1163.75 91.5 M1129.65 107.85 L1233.85 108.0 1228.7 107.75 Q1203.85 106.7 1165.95 107.2 L1129.65 107.85 M1219.4 90.8 Q1206.35 90.55 1196.5 90.7 L1225.75 91.05 1219.4 90.8 M1148.5 88.0 L936.45 88.15 1002.75 90.2 Q1064.8 92.35 1096.75 92.25 L1148.5 88.0 M1384.0 77.4 Q1374.5 77.3 1368.45 77.45 L1390.45 77.55 1384.0 77.4 M648.55 29.2 L649.7 29.15 678.9 27.95 664.55 28.1 694.1 26.05 406.5 28.6 Q445.95 29.25 482.25 30.15 L560.95 31.55 Q606.0 31.9 639.6 29.85 L648.55 29.2 M573.25 58.65 L557.2 59.2 545.0 60.5 532.9 62.2 589.35 58.75 573.25 58.65 M583.4 82.95 L588.65 83.75 594.4 84.65 599.05 85.8 604.05 86.65 603.1 86.75 600.65 87.0 567.5 87.0 567.3 86.7 576.6 86.9 566.4 86.1 Q565.15 85.45 562.75 84.9 L555.8 83.8 547.5 82.4 539.3 80.8 530.45 80.1 521.45 80.15 511.7 81.1 508.55 81.5 503.9 81.8 502.0 81.75 501.05 82.05 498.6 82.2 Q494.5 82.5 489.35 83.7 L480.7 85.9 480.5 85.9 469.45 86.45 471.05 86.95 465.0 86.9 470.15 87.95 474.35 87.35 483.35 87.45 495.7 87.55 508.0 87.45 Q522.35 87.45 552.6 87.8 L597.2 88.15 616.4 87.9 Q620.55 88.15 626.35 88.05 L629.95 87.95 645.1 88.15 636.1 87.8 638.8 87.7 637.15 87.4 635.5 87.1 635.15 87.1 635.25 87.0 633.75 87.0 631.25 86.9 627.0 86.7 612.4 85.0 606.8 83.7 601.3 82.4 596.05 81.2 590.85 80.15 579.45 78.5 567.9 77.45 562.5 76.85 557.3 75.85 546.35 75.3 541.35 75.0 536.35 74.75 548.3 75.85 553.9 77.25 546.25 76.15 Q528.25 73.55 501.6 74.8 L485.55 75.65 469.5 76.5 478.3 75.75 453.5 77.15 440.9 77.35 432.7 77.3 Q427.7 77.25 424.45 77.35 L421.45 77.5 Q419.9 77.75 419.3 78.8 L420.75 79.35 420.55 79.45 Q421.8 80.05 423.65 80.55 L427.0 81.0 426.65 80.3 428.85 80.5 445.5 82.25 455.55 82.65 458.5 82.85 457.9 82.7 462.15 82.65 Q464.0 82.85 466.1 82.7 L471.6 82.85 Q475.15 82.65 474.55 81.15 L469.0 80.65 468.7 80.55 468.5 80.65 465.85 80.55 Q466.8 80.8 467.0 81.4 L464.4 81.85 461.65 82.35 455.45 82.1 452.95 81.75 449.8 81.6 445.75 81.2 445.65 81.2 Q443.0 80.7 442.3 80.25 L459.45 78.45 Q472.55 77.85 480.85 77.9 L493.25 77.4 505.45 76.25 Q515.8 75.35 532.35 76.4 L543.65 77.5 554.85 78.95 565.95 80.7 577.1 82.25 583.4 82.95 M592.25 84.05 L588.0 82.8 580.5 81.3 579.65 81.15 580.15 81.2 580.5 81.25 588.0 82.75 592.7 84.1 592.25 84.05 M561.05 87.0 L538.3 87.0 Q515.05 87.0 503.4 86.55 L501.2 86.5 510.25 85.5 521.4 85.2 532.7 85.5 551.1 86.05 561.05 87.0 M489.2 86.15 L486.5 86.05 489.25 85.85 489.15 86.1 489.2 86.15 M610.85 87.0 L609.4 87.0 608.4 86.95 610.55 86.9 610.85 87.0 M747.9 57.75 L734.3 58.55 718.15 59.3 615.2 59.3 621.05 60.1 627.1 61.4 639.0 62.5 635.7 61.9 652.85 62.3 670.05 62.5 708.35 62.65 721.8 62.35 729.5 62.4 746.35 62.05 Q757.35 61.7 763.0 61.7 L778.5 61.0 788.85 60.4 784.55 60.4 775.35 60.1 Q778.0 59.25 781.4 58.75 L782.05 58.75 795.6 58.75 809.15 58.35 813.25 58.15 809.6 58.1 819.05 57.7 828.75 57.4 871.8 57.0 Q897.3 56.9 914.75 57.95 L937.8 58.65 960.85 58.6 991.5 57.0 986.35 57.0 Q966.25 57.0 947.35 55.9 L836.35 55.05 823.05 55.85 792.75 57.95 768.8 57.65 Q758.8 57.6 751.85 57.7 L748.3 57.3 747.9 57.75 M617.2 88.05 L597.2 88.45 604.5 89.1 611.95 89.0 646.8 89.0 636.9 88.7 619.05 88.2 617.2 88.05 M693.4 21.2 L693.7 21.6 764.9 20.1 Q740.0 20.1 717.9 20.55 705.05 20.65 693.4 21.2 M660.3 47.8 L638.0 49.1 663.6 49.2 739.75 49.1 Q783.75 49.2 815.85 50.25 L714.45 44.95 Q714.6 47.35 705.45 47.75 L695.4 47.65 677.85 47.6 Q667.15 47.5 660.3 47.8 M706.95 71.7 L741.65 70.1 745.5 69.9 672.25 72.05 Q687.5 72.35 706.95 71.7 M700.2 35.7 L753.55 35.6 859.75 35.15 878.45 34.85 646.8 35.0 Q670.0 35.6 700.2 35.7 M436.85 22.1 L410.0 21.35 412.45 21.45 436.85 22.1 M434.85 64.0 L433.6 64.0 417.45 64.0 407.95 63.5 403.4 63.1 398.85 62.85 398.8 62.2 398.9 61.4 389.3 61.1 379.7 60.8 375.45 60.15 371.35 59.3 360.25 58.8 348.95 59.2 350.75 60.1 348.8 59.8 340.4 59.2 331.8 59.3 317.7 59.85 303.55 60.35 296.55 60.1 289.65 60.45 279.6 62.45 276.25 62.75 Q275.45 63.0 274.95 63.6 268.75 65.15 264.4 66.9 266.7 68.85 272.35 69.65 L281.35 70.45 286.85 71.3 291.95 72.45 Q297.4 73.45 304.4 72.4 L309.85 71.45 334.1 71.0 332.55 70.9 Q333.7 70.1 336.1 69.95 L340.2 69.95 353.75 69.95 343.75 69.4 339.9 69.35 336.2 68.85 332.45 67.2 331.4 66.6 Q329.05 65.45 324.3 64.95 L316.75 64.5 302.1 63.7 Q289.4 63.6 291.15 66.65 293.35 67.4 297.05 67.45 L300.75 67.4 303.4 67.45 Q308.45 67.35 308.6 66.25 L303.25 66.35 Q300.0 66.3 299.25 65.55 L309.85 65.25 Q317.55 65.45 322.75 66.8 320.75 67.8 315.75 68.1 L308.15 68.75 Q302.65 70.2 299.85 70.5 L299.75 70.5 297.4 70.35 294.85 69.15 292.2 67.9 Q286.4 65.85 280.4 65.55 279.9 64.65 280.8 63.95 L284.2 63.5 289.85 62.85 295.5 62.5 308.1 62.15 320.65 61.4 Q332.35 60.7 343.05 60.9 347.4 60.95 352.8 62.3 L361.9 64.7 Q367.5 65.95 374.25 66.35 L387.0 66.8 396.1 67.55 405.05 68.35 409.75 68.1 414.5 67.8 428.0 67.25 436.15 67.0 444.3 66.7 465.05 64.75 485.85 62.35 502.85 61.3 519.85 60.4 528.15 59.55 536.75 59.15 552.3 58.6 562.6 58.1 567.4 58.1 565.05 58.05 566.0 58.0 504.95 56.05 Q503.35 55.85 500.7 56.6 L496.55 57.8 494.55 58.05 492.65 58.05 493.05 57.65 483.25 57.45 Q477.0 57.65 473.95 57.45 L473.05 57.4 427.95 57.05 346.7 57.6 345.9 57.55 352.1 58.0 362.15 58.65 380.05 58.95 397.95 59.2 425.75 59.2 443.45 58.95 Q455.25 58.65 461.2 58.65 L478.65 58.95 486.25 58.85 485.85 59.05 485.7 59.1 482.75 59.3 473.1 60.3 463.45 61.4 456.5 62.1 449.5 62.85 434.85 64.0 M427.9 79.65 L428.1 79.6 435.2 80.15 441.25 81.1 437.05 81.1 432.45 80.45 427.9 79.65 M488.95 40.9 Q501.5 41.35 507.05 41.25 L547.2 39.25 559.9 38.65 475.95 40.6 Q481.3 40.6 488.95 40.9 M456.25 67.7 Q450.0 68.2 449.45 69.3 457.0 70.2 470.4 69.35 L479.2 68.2 487.9 66.75 494.1 66.35 500.3 66.1 515.05 64.65 529.65 62.65 532.9 62.2 493.85 64.6 Q488.2 66.0 479.05 66.45 L463.95 67.25 456.25 67.7 M419.85 32.0 L394.25 31.75 414.8 32.3 Q439.2 32.7 459.8 32.0 L419.85 32.0 M497.95 59.4 L495.2 59.5 489.95 59.45 495.2 59.45 497.95 59.4 M513.85 17.85 L360.1 14.7 388.0 15.7 Q432.35 17.05 450.9 17.4 486.15 18.15 513.85 17.85 M565.7 89.7 L587.05 89.6 642.35 89.65 662.1 89.45 508.3 89.25 Q526.3 89.6 546.85 90.4 L565.7 89.7 M668.3 103.15 L694.45 102.85 453.15 101.25 Q453.7 102.0 465.7 102.25 L475.55 102.3 Q520.35 103.35 585.0 103.2 L594.65 103.2 598.6 103.2 604.25 103.35 Q614.95 103.75 629.45 103.8 L654.65 103.75 Q679.7 103.8 731.75 104.3 782.5 104.85 808.8 104.85 L668.3 103.15 M690.6 98.65 L663.25 98.4 634.75 98.65 609.05 99.0 622.85 99.25 639.35 99.5 691.45 99.5 Q723.65 99.5 745.2 100.1 L768.1 101.05 Q782.0 101.7 790.95 101.65 832.4 101.35 858.1 100.0 L807.85 99.25 903.45 98.9 Q897.95 98.75 892.3 98.75 L756.25 98.5 Q713.15 98.35 691.6 98.6 L690.6 98.65 M677.05 89.8 L706.1 90.9 735.3 91.05 Q750.05 91.05 779.15 90.35 808.3 89.65 823.0 89.65 L670.3 89.5 677.05 89.8 M413.2 88.65 L318.1 89.0 316.75 89.05 508.3 89.3 Q469.7 88.45 413.2 88.65 M944.65 37.4 Q921.45 35.1 885.45 34.85 L899.5 36.45 Q934.9 36.15 970.15 40.5 L990.4 42.9 1010.5 45.9 1021.3 46.85 1032.15 47.2 1046.3 47.7 1043.55 47.6 1036.2 47.15 1028.85 46.55 1024.05 46.4 1019.35 46.05 1013.5 44.75 Q1009.7 43.75 1007.65 43.5 L986.5 41.15 965.3 39.1 955.8 38.6 950.2 38.1 944.65 37.4 M958.15 14.95 L964.55 15.05 975.55 14.85 958.15 14.95 M939.05 30.35 L957.55 30.3 Q1013.1 30.35 1058.65 29.0 L938.75 29.0 Q915.45 29.0 882.6 28.6 L826.45 27.85 808.6 27.6 856.4 29.45 883.3 29.8 889.5 30.05 Q927.75 31.75 976.8 32.2 L1064.15 32.35 939.05 30.35 M896.3 23.95 L941.6 23.95 932.65 23.8 Q912.7 23.7 900.0 23.85 L896.3 23.95 M937.0 53.75 Q920.1 53.25 899.0 53.4 L861.0 54.0 987.35 55.7 964.65 54.75 937.0 53.75 M1047.7 6.7 L1052.65 6.55 1029.75 6.45 1038.95 6.7 1047.7 6.7 M999.15 11.3 L989.6 13.1 989.5 13.1 978.65 14.7 975.85 14.85 984.4 14.25 992.95 13.15 993.05 13.15 997.75 12.55 1003.1 11.5 1008.55 10.55 999.15 11.3 M1015.95 36.0 L1009.95 35.65 1003.45 36.0 1015.95 36.0 M991.5 57.0 L1047.7 57.0 1019.9 56.6 Q1003.05 56.3 992.1 56.95 L991.5 57.0 M1037.65 39.85 L1039.5 40.3 1037.35 40.1 1037.65 39.85 M1026.05 24.85 L965.25 24.0 Q985.0 24.65 1010.85 24.85 L1026.05 24.85 M783.65 26.4 L766.4 25.8 Q756.4 25.55 749.1 25.95 749.55 27.55 753.15 26.35 L766.6 26.6 808.6 27.6 783.65 26.4 M768.15 74.8 L781.15 74.9 Q798.2 75.15 811.2 74.7 L841.05 72.55 755.15 73.65 768.15 74.8 M880.2 66.25 L963.15 63.55 Q905.05 64.2 876.0 64.75 L788.9 67.55 745.5 69.9 769.5 69.2 Q770.85 70.05 779.3 70.35 L790.45 70.5 Q819.8 71.0 860.15 69.2 L929.75 65.65 880.2 66.25 M799.2 68.35 L807.45 68.1 803.15 68.55 799.2 68.35 M790.65 43.45 L818.85 43.1 687.8 40.7 739.2 42.65 Q767.55 43.5 790.65 43.45 M818.85 43.1 L896.3 44.5 873.5 43.5 850.7 42.8 Q840.05 42.7 818.85 43.1 M842.1 58.2 Q825.0 57.7 813.25 58.15 L861.95 58.95 842.1 58.2 M70.35 93.75 L81.65 93.25 111.85 93.3 132.15 93.25 132.9 93.3 Q117.9 93.35 98.65 94.3 L58.0 94.9 68.55 93.85 73.15 93.8 70.35 93.75 M155.5 99.2 L129.4 100.7 59.8 100.2 74.1 100.7 99.25 101.7 124.4 102.35 140.75 102.4 157.0 101.7 166.55 100.7 171.9 100.85 174.7 100.4 171.2 100.25 171.3 100.25 174.6 100.3 182.55 100.7 183.6 100.7 186.65 101.0 184.7 101.0 185.7 101.1 176.15 101.1 171.9 100.85 166.95 101.25 176.15 101.1 205.0 102.85 196.55 101.8 206.05 102.05 215.6 102.45 224.0 102.75 232.45 102.85 Q228.85 101.6 222.1 101.35 L211.45 101.15 200.55 100.2 189.6 99.05 189.55 99.0 189.5 99.0 184.25 98.7 183.65 98.65 185.1 98.5 182.45 98.55 179.8 98.3 189.05 98.15 175.8 98.05 171.35 97.75 169.3 98.05 172.75 97.45 188.25 96.15 184.9 95.95 184.45 96.15 Q143.5 96.95 151.35 97.05 L168.1 97.6 161.2 98.45 159.75 98.55 159.35 98.6 159.1 98.6 Q148.7 98.8 152.3 99.0 L155.5 99.2 M168.5 100.0 L162.35 99.6 160.2 99.4 169.3 100.0 169.05 100.0 168.5 100.0 M13.45 97.7 L13.85 97.75 Q18.15 97.95 12.65 98.3 L13.45 97.7 M4.5 104.55 L14.4 105.0 4.05 104.9 4.5 104.55 M353.45 21.45 L337.65 21.05 Q313.6 21.2 290.2 19.95 L306.0 21.5 363.25 24.0 Q389.15 24.25 420.6 23.2 L366.9 21.8 351.75 20.5 Q352.45 21.05 353.45 21.45 M294.85 36.75 L325.9 36.85 271.75 35.6 Q273.1 34.4 271.6 34.05 L268.3 33.8 Q266.4 33.7 263.45 33.75 L259.0 33.8 261.4 34.2 Q257.9 35.55 250.2 35.35 L238.75 34.75 Q226.6 34.35 220.75 32.6 L223.9 32.2 227.35 32.2 257.0 32.2 245.9 30.1 228.55 29.7 Q218.0 29.55 211.35 30.7 L207.0 31.55 Q203.2 32.55 204.4 33.85 205.05 34.5 208.9 34.7 209.65 35.4 211.0 35.9 L211.4 35.8 213.1 36.4 Q214.15 36.65 214.8 36.0 L236.95 36.0 241.85 36.3 230.95 37.15 186.85 36.7 160.15 37.5 Q129.9 38.1 133.35 38.25 158.1 39.35 191.9 39.45 L250.5 39.4 394.5 38.8 340.5 38.3 341.05 38.05 331.95 37.5 329.2 36.95 327.45 36.95 331.95 37.5 334.45 37.95 294.85 36.75 M327.05 38.15 L335.35 38.05 336.65 38.25 327.05 38.15 M213.2 30.6 L213.65 30.6 212.15 30.85 213.2 30.6 M257.65 17.4 L290.2 19.95 271.7 17.95 264.65 17.4 Q260.7 17.15 257.65 17.4 M280.75 62.4 L281.45 62.35 280.85 62.4 280.75 62.4 M248.3 54.8 L228.45 54.95 248.8 55.2 248.3 54.8 M256.15 83.6 L266.2 84.55 Q272.1 85.1 276.1 86.0 L280.55 86.65 Q265.75 82.65 255.6 81.95 L243.15 81.55 232.1 81.65 237.05 81.8 245.0 82.15 250.6 82.75 256.15 83.6 M196.35 79.4 L221.3 79.05 Q238.1 79.05 251.25 79.85 L254.45 79.85 259.65 80.25 270.4 81.1 287.1 81.95 303.8 82.8 333.0 83.8 340.1 83.35 343.7 83.35 348.95 82.8 354.0 81.6 358.9 81.15 363.9 81.2 374.35 80.7 384.6 80.15 404.4 80.15 394.05 79.85 376.6 79.6 373.45 79.6 381.35 78.95 357.65 78.4 345.35 80.35 341.25 80.95 338.5 81.0 321.35 81.0 322.15 81.55 317.3 81.45 301.85 81.05 295.35 80.95 284.1 79.6 284.45 79.6 292.55 80.55 322.3 80.95 Q340.0 80.85 351.6 78.4 L345.75 78.85 340.0 79.65 332.5 80.05 324.95 80.0 310.45 80.0 298.85 80.05 287.25 79.65 278.2 78.5 269.15 77.45 263.3 77.1 260.7 76.8 245.25 76.4 251.7 76.8 239.3 76.8 201.8 76.7 Q179.75 76.75 164.3 77.6 164.45 77.55 164.55 77.45 L155.6 77.1 146.4 77.35 144.05 77.35 142.15 76.8 140.9 76.05 139.9 75.25 146.05 75.85 Q149.75 76.2 155.6 76.05 L165.15 75.85 173.9 75.85 156.6 75.25 Q200.65 75.4 191.2 74.7 L186.7 74.3 203.25 74.25 199.6 74.2 Q201.9 74.1 185.5 74.15 L185.1 74.1 178.95 73.6 Q168.5 73.3 163.3 73.6 L157.3 74.2 156.4 74.2 167.15 73.1 152.55 73.4 137.9 73.65 128.7 73.75 Q121.8 74.2 121.3 76.05 L125.35 76.7 129.55 76.8 136.9 77.65 141.15 78.2 135.45 78.95 132.1 79.35 128.7 79.6 135.3 79.85 138.05 80.15 131.95 80.95 130.15 81.35 150.5 81.5 164.2 81.6 164.55 81.6 165.95 81.6 179.4 81.75 188.1 81.25 196.65 80.7 Q197.55 80.6 184.45 80.45 L184.55 80.35 184.9 80.0 192.35 79.75 198.3 79.75 Q202.0 79.6 196.35 79.4 M273.6 80.0 L277.7 80.65 268.6 80.1 266.65 80.0 273.6 80.0 M267.75 88.65 L316.85 88.75 292.8 88.1 Q279.0 87.85 268.7 88.55 L267.75 88.65 116.15 88.35 Q123.1 88.55 122.1 89.2 L138.95 90.0 200.45 90.0 223.6 89.9 246.75 89.9 255.3 89.6 263.8 89.0 264.05 88.95 267.75 88.65 M283.4 79.55 L281.25 79.25 283.75 79.55 283.4 79.55 M290.05 44.05 L264.45 44.95 314.0 45.5 294.35 44.1 Q370.5 44.65 435.55 43.1 L169.2 41.6 186.35 42.35 Q240.5 43.65 290.05 44.05 M324.8 67.4 L324.65 67.6 323.3 66.95 324.8 67.4 M319.4 88.2 L350.25 87.45 283.35 86.9 288.55 87.3 Q301.65 88.35 319.4 88.2 M377.45 9.95 L383.35 10.2 369.6 10.0 377.45 9.95 M333.15 29.2 L327.3 29.1 337.1 29.4 333.15 29.2 M328.9 46.9 L357.75 48.4 386.35 48.6 Q484.5 49.55 556.8 48.15 L329.55 46.55 328.9 46.9 M339.9 55.85 Q317.25 55.5 303.3 55.65 L340.0 55.9 339.9 55.85 M168.8 27.05 L179.15 26.95 171.75 26.9 173.65 26.65 180.9 25.45 Q130.95 25.85 135.1 26.2 L145.1 27.3 145.45 27.35 154.85 27.95 161.05 28.05 159.5 28.0 164.7 28.15 170.5 28.3 162.2 27.65 168.8 27.05 M138.65 32.7 L147.8 33.15 142.6 32.6 134.4 32.6 139.3 32.75 138.65 32.7 M147.4 32.35 L140.7 32.45 142.6 32.6 166.55 32.65 167.9 32.3 173.5 32.25 171.1 32.1 171.3 32.0 193.5 31.8 182.95 31.25 170.55 31.75 172.2 31.75 147.4 32.35 M148.85 33.2 L147.8 33.15 Q152.75 33.9 155.6 35.4 L166.7 35.9 157.8 34.4 148.85 33.2 M158.25 14.3 L190.25 14.25 188.35 14.1 197.75 14.15 186.55 13.8 185.65 13.6 177.45 13.7 Q167.85 13.65 154.35 13.9 L140.6 14.2 158.25 14.3 M104.7 42.0 L260.45 49.25 217.7 46.0 159.35 43.35 111.7 42.05 Q108.15 41.4 104.7 42.0 M143.0 77.35 L138.75 77.3 134.8 76.7 143.0 77.35 M148.3 74.95 L149.6 74.9 155.2 74.35 156.0 74.35 151.25 74.8 149.6 74.9 148.8 75.0 148.3 74.95 M179.55 65.4 L154.6 66.75 154.3 66.75 141.75 65.35 160.2 65.25 Q172.45 65.25 179.55 65.4 M133.15 47.35 L149.35 48.35 Q168.3 49.35 177.4 50.7 181.5 51.3 205.5 51.35 L198.1 50.95 190.7 50.25 197.5 49.5 204.3 48.75 196.9 48.2 180.95 48.1 164.95 48.2 133.15 47.35 M209.4 21.8 L213.95 22.5 Q216.95 22.65 209.4 21.8 207.4 21.1 214.85 20.7 L202.7 21.05 209.4 21.8 M166.55 32.65 Q164.0 33.55 162.8 34.8 L188.4 32.85 166.55 32.65 M237.75 51.3 L205.5 51.35 211.1 51.85 237.75 51.3 M169.2 41.6 Q153.15 40.85 144.4 41.45 L169.2 41.6 M240.55 94.7 L233.6 94.3 212.3 93.5 217.95 94.25 223.55 95.2 233.8 96.1 244.05 96.8 276.5 98.45 Q307.3 98.75 347.45 97.95 L418.4 96.25 274.6 95.35 Q284.55 94.8 298.15 94.9 309.0 94.9 330.5 94.3 352.6 93.95 388.9 94.35 L447.25 94.85 305.85 93.3 Q298.1 93.8 287.1 93.8 L268.3 93.75 Q261.8 93.8 253.2 94.15 L240.55 94.7 M224.85 106.0 L238.4 104.8 250.55 104.0 222.8 104.0 Q219.65 103.8 218.05 103.95 215.15 104.2 215.45 105.95 219.45 106.35 224.85 106.0 M183.55 96.4 L180.75 96.55 177.05 96.55 183.55 96.4 M173.4 100.0 L175.05 99.85 180.8 100.45 174.6 100.3 173.4 100.0 M154.65 99.0 L161.85 99.15 156.65 99.15 154.65 99.0 M109.9 102.7 Q96.75 102.65 83.8 102.1 L128.55 105.7 173.55 104.3 109.9 102.7 M340.0 101.65 Q342.25 102.4 345.9 102.45 L352.05 102.3 389.5 102.3 358.4 100.7 349.05 100.45 Q343.25 100.4 340.0 101.65 M252.6 104.0 L357.9 104.0 Q304.75 102.45 255.85 103.8 L252.6 104.0 M253.3 59.8 L204.05 58.2 Q232.15 61.45 253.3 59.8" fill="#c4b17f" fill-rule="evenodd" stroke="none"/>
      <path d="M1397.5 25.55 L1275.75 24.35 1286.55 24.25 1328.55 23.9 Q1354.1 23.65 1370.5 23.9 1381.2 24.05 1396.25 24.55 L1396.4 24.55 1397.6 25.55 1397.5 25.55 M1390.65 20.05 L1338.8 20.1 1315.25 19.25 1291.7 17.8 1284.7 17.35 1336.25 17.35 1389.7 19.3 1389.9 19.3 1390.8 20.05 1390.65 20.05 M1383.95 14.65 L1368.45 14.6 1383.55 14.3 1383.65 14.3 1384.1 14.65 1383.95 14.65 M1095.95 0.0 L1091.65 0.3 1087.45 0.85 1086.8 1.75 1086.35 2.7 1093.7 3.0 1101.15 2.8 1119.0 2.65 Q1129.6 2.55 1136.8 3.0 L1157.45 4.6 1178.15 6.2 1212.65 7.25 Q1239.5 7.55 1247.15 7.8 L1052.65 6.6 Q1067.95 5.9 1077.3 2.15 L1082.65 1.2 1091.1 0.0 1095.95 0.0 M637.85 0.0 L792.85 7.0 Q801.35 6.9 812.2 7.15 L828.6 7.7 830.05 7.8 858.4 9.2 874.5 10.8 890.6 12.6 943.5 14.85 945.25 14.9 925.5 15.0 904.1 13.95 Q870.7 10.5 829.7 9.9 L790.1 7.1 789.9 7.1 789.2 7.05 791.05 7.0 790.15 7.0 710.2 3.5 630.25 0.0 637.85 0.0 M938.7 8.35 L932.25 8.3 913.6 7.95 905.05 7.8 Q899.35 7.6 896.7 6.7 L895.8 6.35 916.1 7.0 984.65 9.2 984.45 9.3 984.4 9.3 Q979.0 11.6 970.55 12.0 L956.0 12.05 946.0 11.75 936.1 11.3 926.9 11.7 Q920.75 11.9 917.95 10.75 925.2 9.5 944.2 10.75 961.4 11.85 969.95 9.35 L970.55 9.15 960.7 8.9 950.85 8.45 938.7 8.35 M196.9 8.45 L196.05 8.3 375.0 9.8 386.55 9.9 377.45 9.95 369.6 10.0 326.15 9.9 280.65 10.35 Q214.9 10.65 174.8 10.55 L156.55 10.65 153.75 10.6 132.35 9.85 134.15 9.85 202.05 9.2 196.9 8.45 M615.8 13.0 L644.15 13.65 Q667.1 14.2 703.0 13.95 L761.8 13.6 652.25 16.25 632.95 15.0 613.5 14.45 586.55 12.9 579.0 12.45 573.6 12.1 615.8 13.0 M122.35 14.3 L157.55 15.75 145.55 15.6 121.3 15.1 121.15 15.1 122.25 14.3 122.35 14.3 M114.85 20.05 L125.2 20.45 114.55 20.25 114.5 20.25 114.75 20.05 114.85 20.05 M103.85 28.45 L121.25 29.05 138.35 29.0 158.2 28.05 175.45 28.75 187.95 28.2 Q197.4 26.9 212.4 26.55 219.0 25.4 227.85 26.15 L242.85 25.85 254.05 25.8 265.2 26.5 288.2 29.25 Q301.75 30.9 311.05 32.7 L317.9 34.35 328.55 36.8 325.9 36.75 320.55 36.0 321.45 36.1 324.35 36.45 279.95 29.0 276.25 29.15 272.3 29.35 279.0 30.6 277.55 30.45 268.1 29.65 258.65 28.6 243.75 27.2 228.8 26.25 227.85 26.15 212.4 26.55 210.65 26.9 205.15 28.05 Q206.7 28.2 202.5 28.5 189.7 30.6 176.4 30.6 169.2 30.6 181.25 29.85 L202.5 28.5 205.15 28.05 202.65 27.95 Q195.8 27.9 187.95 28.2 L186.6 28.4 181.6 29.05 175.45 28.75 154.8 29.55 129.3 30.2 Q114.4 30.45 103.85 29.65 L102.4 29.55 102.3 29.55 103.75 28.45 103.85 28.45 M86.85 41.45 L114.65 42.95 Q101.0 43.0 85.45 42.55 L85.35 42.55 86.8 41.45 86.85 41.45 M79.9 46.8 L98.3 47.6 Q88.5 47.6 78.65 47.75 L78.55 47.75 79.85 46.8 79.9 46.8 M67.5 56.3 L90.05 55.75 113.35 55.6 139.15 55.95 Q130.35 57.75 122.65 58.5 L100.7 59.3 83.3 58.75 76.95 58.5 70.65 57.75 66.75 56.85 66.7 56.85 67.35 56.3 67.5 56.3 M103.8 63.5 L107.2 63.0 Q115.55 61.45 126.65 60.75 L146.4 59.85 153.75 59.35 155.6 59.15 158.95 59.55 133.1 61.4 Q131.9 62.65 126.35 62.75 L118.55 63.4 129.3 63.75 139.9 63.0 156.6 60.65 161.45 62.0 167.1 63.3 154.9 61.6 147.45 62.35 Q126.45 64.95 103.15 64.55 L83.0 63.65 74.4 62.95 60.9 61.4 60.75 61.35 62.25 60.25 72.3 61.35 79.05 62.1 Q93.85 64.55 103.8 63.5 M150.8 58.65 L149.5 58.55 141.1 58.2 132.65 57.85 Q131.25 57.75 145.9 57.6 L173.75 57.4 175.65 57.3 169.45 57.15 180.9 57.05 196.05 57.15 173.75 57.4 164.7 58.2 163.55 58.35 155.6 59.15 150.8 58.65 M172.8 59.4 L179.7 59.0 189.05 57.75 Q193.1 57.95 189.9 58.3 L179.7 59.0 174.55 59.65 167.25 60.55 174.0 61.1 183.1 61.35 185.8 61.4 192.2 61.55 212.6 62.7 Q224.45 63.25 233.05 63.05 243.4 62.75 252.9 60.95 L261.45 59.8 274.0 60.35 233.2 63.6 224.25 64.15 217.0 63.55 181.45 63.0 175.05 63.0 168.75 62.35 166.2 61.6 163.75 60.85 163.35 60.8 163.3 60.8 158.75 60.35 161.6 59.9 162.9 60.05 172.8 59.4 M184.5 65.2 L179.55 65.4 Q187.4 65.55 184.5 65.8 L158.1 67.15 190.5 68.85 200.45 69.2 Q208.3 69.25 208.85 67.8 L222.95 70.45 Q197.2 72.2 167.2 69.5 L152.3 67.4 145.05 67.65 130.05 68.35 145.05 67.65 150.55 67.1 138.55 65.65 Q135.45 65.45 141.75 65.35 L137.5 64.85 147.3 64.4 173.6 64.55 180.8 65.15 184.5 65.2 M51.95 68.2 L96.0 69.9 73.05 69.9 Q60.1 69.85 50.35 69.45 L50.2 69.45 51.85 68.2 51.95 68.2 M46.95 72.05 L58.7 72.95 Q57.4 73.9 52.35 73.95 L44.8 73.7 44.7 73.7 46.85 72.05 46.95 72.05 M36.25 80.25 L46.2 79.6 Q54.55 79.05 60.0 79.35 67.35 79.8 73.1 81.8 78.7 83.75 89.3 86.05 L94.9 85.5 108.1 83.6 121.45 82.2 Q126.25 81.95 133.1 82.0 L144.75 82.15 155.1 82.0 153.1 82.25 Q154.0 82.8 156.25 82.75 L159.75 82.65 169.5 83.2 179.5 82.85 168.15 83.75 Q159.55 84.25 147.7 84.3 L127.2 84.25 114.25 84.15 101.4 84.85 94.9 85.5 89.35 86.1 102.0 88.9 101.1 88.8 82.75 85.85 Q79.2 85.8 72.15 84.05 65.1 82.3 61.55 82.2 63.35 83.25 66.05 84.1 L55.95 82.8 34.15 81.85 34.05 81.85 36.1 80.25 36.25 80.25 M103.6 90.3 Q98.3 90.9 88.95 88.75 L103.6 90.3 M78.5 87.25 L56.1 86.4 75.45 86.45 78.5 87.25 M30.3 84.8 L37.55 84.8 Q44.5 84.75 47.25 84.95 53.55 85.45 56.15 87.3 L51.0 87.95 39.8 86.9 27.35 87.0 30.15 84.8 30.3 84.8 M38.1 88.75 L25.2 88.7 25.05 88.7 25.9 88.1 26.5 88.15 38.1 88.75 M18.1 94.15 L44.5 92.3 Q59.95 91.7 94.75 91.7 116.6 91.7 136.55 92.2 L164.4 92.7 192.1 93.95 177.45 94.7 162.65 93.95 149.65 93.55 147.6 93.45 Q143.2 93.3 138.3 93.3 L132.9 93.3 132.15 93.25 111.85 93.3 81.65 93.25 70.35 93.75 50.95 93.3 Q40.75 93.3 35.7 93.45 L20.6 94.45 Q22.4 95.4 28.15 95.25 L36.65 94.85 Q42.7 94.85 52.6 94.45 L68.55 93.85 58.0 94.9 44.35 96.05 24.45 97.6 12.55 98.4 12.45 98.4 12.6 98.3 12.65 98.3 Q18.15 97.95 13.85 97.75 L13.45 97.7 13.35 97.7 18.0 94.15 18.1 94.15 M5.6 103.7 Q20.15 103.7 27.35 103.95 L41.05 104.8 54.75 105.55 60.5 105.55 Q66.4 105.6 66.8 106.15 L61.45 106.45 Q53.85 106.75 44.35 106.4 L30.05 105.85 21.9 105.6 3.45 105.35 3.35 105.35 3.95 104.9 4.05 104.9 14.4 105.0 4.5 104.55 4.45 104.55 5.5 103.7 5.6 103.7 M88.75 108.0 L92.35 107.75 98.05 107.8 102.85 108.0 88.75 108.0 M138.95 108.0 L130.25 107.75 142.2 107.65 170.65 107.55 163.55 108.0 138.95 108.0 M174.7 107.55 Q192.1 107.55 189.25 107.7 L189.75 108.0 171.05 108.0 174.7 107.55 M236.8 108.0 L235.55 108.0 242.9 107.7 255.05 108.0 236.8 108.0 M339.3 108.0 L340.45 107.8 Q353.95 106.0 364.15 106.05 373.7 106.05 392.7 106.55 L392.9 106.55 400.25 106.85 407.25 106.55 413.4 105.8 419.1 103.9 417.6 103.35 416.5 103.35 Q417.85 102.5 417.5 101.85 408.15 100.95 400.65 101.9 L400.9 102.1 Q401.55 102.5 402.9 102.75 L405.05 103.25 405.55 103.4 403.95 103.35 398.3 102.4 397.5 102.2 Q392.25 100.95 389.55 101.15 390.8 99.55 398.55 99.95 L408.55 100.8 416.45 101.05 Q421.35 101.35 422.95 102.15 L423.6 102.85 Q423.85 103.8 421.25 105.15 419.65 106.05 417.6 106.75 L417.3 106.85 Q414.85 107.6 411.4 107.7 L405.0 107.65 389.5 107.4 374.0 107.15 359.4 107.2 344.9 108.0 339.3 108.0 M1403.75 108.0 Q1357.4 106.7 1323.05 106.15 L1348.95 106.05 Q1365.3 106.0 1385.65 106.65 L1422.35 108.0 1403.75 108.0 M1494.7 103.75 L1477.45 102.6 1471.3 102.2 1456.2 102.2 1423.5 102.3 1390.6 102.7 Q1370.2 103.0 1357.65 102.9 L1339.4 102.55 Q1328.2 102.25 1321.15 102.3 L1293.85 102.25 1266.6 101.35 Q1263.6 101.2 1255.1 101.2 L1243.65 100.7 1226.55 99.15 1214.55 97.6 1202.55 95.95 1187.3 95.45 Q1182.65 95.85 1181.75 97.45 L1181.55 98.0 1181.8 98.05 1167.45 97.55 1164.2 97.45 Q1162.15 97.6 1161.55 98.5 1165.65 99.0 1171.9 98.7 L1182.25 98.05 1188.8 98.25 1190.4 98.05 Q1192.4 97.85 1195.55 97.95 L1200.65 98.05 1188.8 98.25 1183.75 99.25 1166.8 99.9 Q1154.95 99.7 1149.7 100.3 1150.5 100.85 1153.2 100.85 L1157.25 100.7 1163.95 100.95 1170.6 101.25 1181.8 101.55 1186.8 101.75 1163.7 101.2 Q1144.55 100.6 1134.25 100.7 L1140.9 100.1 1156.6 97.8 1172.25 95.3 1187.25 93.55 Q1195.6 92.85 1202.45 93.3 1211.5 93.9 1229.5 96.55 L1208.2 94.85 Q1206.85 94.55 1206.65 95.25 1211.6 96.6 1219.55 97.15 L1232.65 98.05 1265.3 100.1 1290.95 100.85 Q1309.5 101.25 1346.6 101.25 L1426.2 101.65 1467.55 101.85 Q1478.15 101.55 1492.3 101.7 L1494.9 103.75 1494.7 103.75 M1484.9 95.85 Q1461.45 95.8 1438.05 95.4 L1398.6 97.8 Q1378.1 98.55 1354.6 97.85 L1313.35 95.7 1296.8 94.4 Q1322.6 95.0 1335.5 95.0 L1411.05 95.0 1404.6 94.75 1379.25 94.15 Q1364.6 93.8 1353.85 93.8 1343.2 93.8 1338.7 93.4 L1334.05 93.25 1329.6 92.65 1337.1 91.95 1344.4 91.2 1347.0 90.15 1348.2 89.65 1348.55 89.5 Q1349.25 89.25 1349.75 89.15 L1358.8 88.9 Q1364.55 89.3 1367.1 90.5 L1360.65 90.7 Q1356.0 90.55 1354.1 90.7 1353.1 92.65 1359.35 92.9 L1367.8 92.75 1415.05 92.75 Q1425.35 92.75 1448.5 93.1 L1481.8 93.35 1481.95 93.35 1483.05 94.25 1482.95 94.25 Q1453.0 93.8 1413.1 93.8 L1390.6 93.5 Q1376.0 93.2 1368.05 93.3 L1484.05 95.05 1485.05 95.85 1484.9 95.85 M1474.5 87.5 L1433.75 86.2 1416.35 85.6 1398.9 84.95 1385.2 84.05 1371.5 83.55 Q1364.65 83.55 1337.7 84.3 1316.8 84.85 1303.9 84.3 L1290.65 83.75 1277.85 82.8 Q1275.6 82.55 1271.95 81.55 1268.0 80.5 1265.85 80.15 L1255.05 79.7 1244.3 80.0 1238.3 80.0 1227.9 80.0 1220.75 79.9 Q1212.6 80.35 1207.6 80.1 1200.55 79.7 1195.8 77.75 L1178.4 75.6 Q1183.4 74.25 1191.8 73.9 L1205.75 73.65 1206.6 73.65 1213.75 72.9 1221.75 72.2 1230.95 71.7 Q1236.7 71.3 1240.1 71.6 1241.4 74.35 1237.2 75.9 L1236.15 76.2 Q1231.65 77.5 1227.5 77.0 1228.4 76.35 1232.25 75.6 1232.8 75.05 1232.25 74.45 1228.35 73.95 1222.8 74.3 L1213.65 75.1 1202.9 75.4 1196.9 75.55 1196.35 75.6 1192.2 75.9 Q1194.15 77.1 1195.8 77.75 L1208.6 79.35 1220.75 79.9 1224.9 79.7 1227.8 79.5 1234.0 79.25 1234.3 79.25 1259.75 79.4 1283.4 81.05 1284.75 81.2 1307.75 82.35 1308.35 82.35 1312.55 82.3 1331.05 82.0 1368.05 82.0 1384.65 82.0 1385.9 82.0 1423.35 82.4 1462.05 82.75 1468.8 82.9 1468.95 82.9 1470.5 84.15 1454.7 83.7 1422.85 83.85 1391.0 83.7 Q1395.9 84.85 1404.45 85.1 L1417.85 85.35 Q1441.7 86.15 1472.7 86.05 L1472.9 86.05 1474.65 87.5 1474.5 87.5 M1430.7 73.1 Q1419.8 73.55 1402.15 73.65 L1394.65 73.3 1387.1 72.9 1374.95 73.15 1362.9 72.8 Q1364.4 70.65 1377.85 70.85 L1395.6 71.5 Q1406.25 71.5 1432.7 70.65 L1433.2 70.65 1453.2 70.25 1455.1 71.75 1413.95 72.05 1430.7 73.1 M1422.05 45.3 L1353.9 46.05 1420.7 44.2 1420.85 44.2 1422.2 45.3 1422.05 45.3 M1411.4 36.7 L1376.8 38.05 1357.7 38.8 1338.6 39.2 1312.0 40.65 1285.45 42.2 Q1270.65 42.85 1252.05 42.75 L1218.75 42.3 Q1214.05 42.2 1207.05 42.25 L1195.3 42.3 1174.95 41.85 1154.65 40.8 Q1148.35 40.5 1139.9 41.1 L1134.2 41.2 1131.45 41.15 1131.15 41.15 Q1125.35 40.95 1122.95 41.05 L1125.55 40.6 Q1133.25 39.3 1144.55 39.5 L1147.15 39.55 1123.05 38.6 1118.85 39.3 Q1116.05 39.6 1115.1 40.45 L1115.1 40.5 Q1115.45 41.0 1116.35 41.25 L1118.05 41.45 1118.8 41.45 1120.2 42.0 1124.9 42.6 1131.75 42.85 1133.15 42.95 1141.85 43.05 1151.9 42.8 Q1149.4 43.8 1144.6 43.9 L1142.25 43.85 1132.0 43.35 1125.45 43.0 1119.0 42.15 1117.15 42.0 1115.5 41.95 1112.45 41.85 1106.05 41.1 1111.2 39.9 1111.25 39.9 Q1118.65 38.4 1128.15 38.1 1135.7 37.85 1150.9 38.05 L1171.7 39.3 1192.4 41.15 Q1202.45 41.7 1216.0 41.75 L1239.6 41.75 1253.55 41.8 1267.45 41.8 1276.25 41.0 1279.8 40.4 1284.9 39.45 1295.85 37.05 1298.6 36.4 Q1306.95 34.7 1312.55 34.85 L1410.95 36.35 1411.05 36.35 1411.5 36.7 1411.4 36.7 M1253.5 52.85 L1243.5 52.15 1269.6 53.45 1253.5 52.85 M1285.4 40.35 L1285.55 40.4 1286.0 40.55 1294.45 41.05 1296.4 40.85 1300.5 40.3 1307.7 39.1 1308.0 39.05 1310.15 38.85 1311.3 38.8 1313.6 38.7 1317.3 38.6 1317.5 38.6 1317.8 38.6 1317.95 38.6 1318.25 38.6 1318.75 38.6 1346.05 38.55 1373.25 37.5 1297.0 38.6 Q1291.75 38.25 1285.4 40.35 M1220.35 66.7 Q1229.5 66.55 1265.9 66.55 L1174.95 68.95 1220.35 66.7 M1067.9 39.75 Q1069.75 40.75 1069.7 42.2 L1065.95 42.5 Q1066.35 42.0 1066.05 41.25 L1065.35 40.5 1065.2 40.15 1064.7 39.75 1064.6 39.65 1064.6 39.7 1060.4 39.1 1056.45 39.1 1046.3 38.65 1044.25 38.65 Q1039.1 38.75 1037.65 39.85 L1037.35 40.1 1039.5 40.3 1040.7 40.45 1043.4 40.75 1044.0 40.75 1043.15 40.8 1041.5 40.8 Q1031.2 40.85 1032.05 38.65 L1053.15 37.7 Q1064.2 37.8 1067.9 39.75 M1047.6 43.0 L1036.25 42.9 1032.8 42.85 Q1020.4 42.7 1010.15 40.6 L1000.95 39.05 Q995.3 38.05 992.1 36.9 992.0 36.6 992.2 36.3 992.4 36.0 992.8 36.0 L1003.4 36.0 Q1002.1 36.05 1000.65 36.85 L1007.95 38.9 1015.35 40.7 1023.25 41.6 1023.5 41.65 1031.3 42.15 1045.4 42.8 1045.95 42.85 1047.6 43.0 M1078.45 44.95 Q1082.05 43.75 1086.4 43.25 L1094.75 42.8 Q1093.85 43.4 1091.4 44.0 L1087.7 44.85 1081.55 46.7 1078.4 47.8 1074.95 48.15 Q1065.2 48.4 1060.4 48.15 L1057.9 48.0 1064.55 48.15 Q1068.25 48.15 1071.8 47.15 L1078.45 44.95 M1064.0 74.6 Q1071.0 75.5 1077.85 77.15 1064.2 80.15 1053.85 81.65 1040.4 83.55 1028.8 83.55 L1027.6 83.55 1016.35 83.05 Q1007.9 81.95 1010.3 78.6 1012.45 75.55 1019.25 75.5 L1029.95 76.6 Q1029.25 77.9 1026.2 78.05 1023.25 78.2 1022.2 77.3 L1024.1 77.05 1025.8 76.6 1022.7 76.4 1020.45 76.4 1016.85 76.9 1015.4 77.3 Q1013.55 81.05 1024.4 80.95 L1023.1 81.45 1024.7 81.65 1026.0 81.75 1026.4 81.75 1030.9 81.8 1038.8 81.6 1048.15 80.85 1057.4 79.2 1057.95 79.1 1061.35 78.95 Q1063.45 78.65 1064.65 77.7 L1066.45 77.65 Q1067.55 77.6 1068.3 77.0 L1064.1 77.0 1060.4 76.9 1059.2 76.85 1053.05 76.45 1046.35 75.15 1039.65 73.8 Q1026.05 71.45 1015.45 72.2 L1009.65 72.95 1003.7 73.65 991.3 74.3 983.4 74.5 979.95 74.6 Q972.75 74.8 969.1 75.95 L959.95 79.0 Q954.85 80.55 949.9 80.7 L929.8 82.35 928.85 82.45 909.7 83.55 897.7 83.3 Q890.4 83.3 885.95 84.4 879.0 86.1 868.5 86.4 L850.4 86.4 783.4 86.85 Q777.0 87.2 767.9 87.2 L759.0 87.1 783.4 86.85 797.5 85.5 811.3 84.75 825.2 85.0 857.3 85.0 Q878.05 85.0 893.65 82.9 L910.9 80.25 928.25 78.0 929.1 77.95 925.05 78.95 936.85 78.4 957.15 75.9 970.2 73.95 989.1 71.0 966.05 73.5 968.05 73.05 977.9 71.9 987.75 70.8 Q995.85 69.6 1007.3 69.5 1017.1 69.4 1027.0 70.05 1031.2 70.35 1039.95 71.95 L1052.75 73.65 1064.0 74.6 M1072.8 85.8 L1064.75 86.35 1047.05 87.1 1029.05 87.1 1059.65 86.4 1066.4 85.75 1073.05 84.25 1086.2 83.0 1099.8 81.35 1113.45 80.85 1113.6 80.85 1137.75 83.75 Q1152.7 85.75 1161.8 85.65 L1150.95 87.0 Q1146.15 87.3 1140.9 87.1 L1124.3 85.4 1111.1 83.8 1107.8 83.6 1116.4 82.65 1084.55 83.7 1078.6 84.7 1072.8 85.8 M1066.85 71.15 L1078.9 71.0 1106.05 71.0 1174.95 69.05 1159.2 70.8 Q1147.05 72.45 1131.3 72.8 L1103.15 72.95 Q1074.3 72.95 1054.75 70.8 L1066.85 71.15 M1117.65 45.8 L1119.35 46.0 Q1118.0 46.75 1115.1 46.75 L1110.5 46.55 1105.6 46.85 1103.8 46.95 Q1098.7 47.15 1097.7 46.45 1095.7 45.05 1104.35 44.95 L1107.95 44.4 1111.95 44.4 1121.6 44.95 1116.85 45.7 1117.65 45.8 M1163.05 51.35 L1174.85 50.05 1186.7 49.2 1220.1 50.9 Q1215.3 50.75 1210.5 50.75 1193.55 50.85 1183.55 51.45 L1173.35 52.15 Q1166.45 52.45 1163.05 51.35 M1087.55 20.3 L1108.1 21.4 994.25 17.35 1087.55 20.3 M1129.65 107.85 L1165.95 107.2 Q1203.85 106.7 1228.7 107.75 L1233.85 108.0 1129.65 107.85 M1340.85 96.1 L1353.25 96.6 Q1390.65 99.2 1427.3 95.45 L1398.4 96.0 1340.85 96.1 M664.55 28.1 L581.75 29.0 571.1 28.65 Q564.55 28.4 560.55 28.85 L562.85 29.3 566.05 29.35 571.8 29.25 588.85 30.0 Q594.75 30.4 603.1 30.3 L605.8 30.25 643.5 29.35 648.55 29.2 639.6 29.85 Q606.0 31.9 560.95 31.55 L482.25 30.15 Q445.95 29.25 406.5 28.6 L694.1 26.05 664.55 28.1 M573.25 58.65 L589.35 58.75 532.9 62.2 545.0 60.5 557.2 59.2 573.25 58.65 M566.35 79.1 L564.65 79.05 568.35 79.5 571.85 80.25 579.9 82.3 583.4 82.95 577.1 82.25 565.95 80.7 554.85 78.95 543.65 77.5 532.35 76.4 Q515.8 75.35 505.45 76.25 L493.25 77.4 480.85 77.9 Q472.55 77.85 459.45 78.45 L458.5 78.5 436.25 79.35 452.9 78.15 453.05 78.15 454.0 78.05 460.95 77.35 462.95 77.15 469.5 76.5 485.55 75.65 501.6 74.8 Q528.25 73.55 546.25 76.15 L553.9 77.25 560.25 78.1 559.9 78.1 558.7 78.0 557.75 77.9 555.3 77.85 553.9 77.85 553.1 77.9 563.3 78.55 563.35 78.55 566.35 79.1 M588.65 83.75 L592.7 84.2 592.25 84.05 592.7 84.1 594.4 84.65 588.65 83.75 M576.55 80.55 L572.95 79.85 623.25 87.0 620.65 87.0 618.65 86.9 613.2 86.65 606.9 85.55 600.45 84.75 600.05 84.75 597.5 84.55 596.2 84.45 593.4 84.2 593.15 84.15 592.7 84.1 588.0 82.75 580.5 81.25 580.15 81.2 576.55 80.55 M486.5 86.05 L482.75 85.95 480.7 85.9 489.35 83.7 Q494.5 82.5 498.6 82.2 L501.05 82.05 503.35 81.9 Q501.55 82.3 500.55 83.1 503.6 83.5 508.0 83.0 L515.35 82.1 518.95 81.95 538.05 83.35 550.5 84.25 554.3 84.8 566.4 86.1 576.6 86.9 567.3 86.7 529.25 84.35 514.9 83.9 Q511.35 83.9 500.6 84.25 L495.4 84.9 490.3 85.75 489.25 85.85 486.5 86.05 M471.05 86.95 L474.35 87.35 470.15 87.95 465.0 86.9 471.05 86.95 M627.6 87.7 L628.05 87.7 631.65 87.55 636.1 87.8 645.1 88.15 629.95 87.95 629.35 87.95 627.6 87.7 M721.8 62.35 L708.35 62.65 670.05 62.5 652.85 62.3 635.7 61.9 639.0 62.5 627.1 61.4 621.05 60.1 615.2 59.3 718.15 59.3 734.3 58.55 747.9 57.75 750.55 57.7 751.85 57.7 Q758.8 57.6 768.8 57.65 L792.75 57.95 809.4 58.1 809.6 58.1 813.25 58.15 809.15 58.35 795.6 58.75 782.05 58.75 781.4 58.75 764.2 58.95 746.45 60.35 721.8 62.35 M660.3 47.8 Q667.15 47.5 677.85 47.6 L695.4 47.65 705.45 47.75 Q714.6 47.35 714.45 44.95 L815.85 50.25 Q783.75 49.2 739.75 49.1 L663.6 49.2 638.0 49.1 660.3 47.8 M693.4 21.2 Q705.05 20.65 717.9 20.55 740.0 20.1 764.9 20.1 L693.7 21.6 693.4 21.2 M687.05 60.35 L670.1 60.45 653.1 60.3 676.8 61.85 Q688.1 62.2 699.8 61.9 L719.65 60.9 687.05 60.35 M706.95 71.7 Q687.5 72.35 672.25 72.05 L745.5 69.9 741.65 70.1 706.95 71.7 M436.85 22.1 L412.45 21.45 410.0 21.35 436.85 22.1 M350.75 60.1 L355.2 60.7 356.3 61.05 364.3 63.55 368.5 63.7 374.8 64.05 385.25 65.0 394.2 65.65 412.8 66.2 422.2 66.15 434.8 65.65 438.45 65.7 442.05 65.65 444.1 65.35 445.2 65.15 444.9 65.15 443.65 65.2 426.6 65.45 423.6 65.45 402.15 64.65 Q418.7 64.95 434.85 64.0 L449.5 62.85 456.5 62.1 463.45 61.4 473.1 60.3 482.75 59.3 485.7 59.1 485.75 59.1 489.95 59.45 495.2 59.5 497.95 59.4 504.05 59.1 504.25 59.1 504.4 59.1 504.8 59.05 529.05 58.2 533.4 58.15 494.55 58.05 496.55 57.8 500.7 56.6 Q503.35 55.85 504.95 56.05 L566.0 58.0 565.05 58.05 567.4 58.1 562.6 58.1 552.3 58.6 536.75 59.15 528.15 59.55 519.85 60.4 502.85 61.3 485.85 62.35 465.05 64.75 444.3 66.7 436.15 67.0 428.0 67.25 414.5 67.8 409.75 68.1 405.05 68.35 396.1 67.55 387.0 66.8 374.25 66.35 Q367.5 65.95 361.9 64.7 L352.8 62.3 Q347.4 60.95 343.05 60.9 332.35 60.7 320.65 61.4 L308.1 62.15 295.5 62.5 289.85 62.85 284.2 63.5 280.8 63.95 Q277.3 64.5 275.05 65.65 277.15 66.7 282.2 67.5 L289.75 68.7 294.7 69.9 297.4 70.35 299.75 70.5 298.9 70.55 298.4 70.6 297.75 70.55 Q298.55 71.25 303.0 71.2 L308.8 70.85 316.4 70.1 309.85 71.45 304.4 72.4 Q297.4 73.45 291.95 72.45 L286.85 71.3 281.35 70.45 272.35 69.65 Q266.7 68.85 264.4 66.9 268.75 65.15 274.95 63.6 L276.3 63.3 Q275.3 63.6 274.75 64.05 L270.3 65.65 Q269.65 65.95 269.5 66.25 269.3 66.6 269.7 67.15 L275.35 68.55 281.15 69.7 276.55 68.25 Q275.05 67.8 274.3 67.2 273.45 66.55 273.35 65.75 L273.4 65.75 273.55 65.7 273.85 65.6 274.65 65.35 278.65 64.0 282.2 63.2 284.25 63.0 289.85 62.35 295.4 61.85 Q294.35 61.1 290.7 61.45 L285.3 62.05 285.15 62.05 281.45 62.35 280.75 62.4 280.35 62.45 279.7 62.55 277.85 62.85 279.6 62.45 289.65 60.45 296.55 60.1 303.55 60.35 317.7 59.85 331.8 59.3 340.4 59.2 348.8 59.8 350.75 60.1 M322.75 66.8 Q317.55 65.45 309.85 65.25 L299.25 65.55 297.0 65.75 Q297.35 67.4 303.5 67.3 L300.75 67.4 297.05 67.45 Q293.35 67.4 291.15 66.65 289.4 63.6 302.1 63.7 L316.75 64.5 324.3 64.95 Q329.05 65.45 331.4 66.6 L332.45 67.2 Q334.45 68.6 330.55 69.1 L323.7 69.35 327.3 68.85 326.15 68.3 324.95 67.7 325.6 67.65 324.8 67.4 323.3 66.95 322.85 66.75 322.75 66.8 M455.55 82.65 L445.5 82.25 428.85 80.5 426.65 80.3 426.55 80.15 Q427.1 79.8 427.9 79.65 L432.45 80.45 437.05 81.1 441.25 81.1 441.4 81.1 445.65 81.2 445.75 81.2 449.8 81.6 453.55 81.95 455.45 82.1 461.65 82.35 461.05 82.55 462.15 82.65 457.9 82.7 455.55 82.65 M420.75 79.35 L419.3 78.8 Q419.9 77.75 421.45 77.5 L424.45 77.35 Q427.7 77.25 432.7 77.3 L440.9 77.35 453.5 77.15 431.7 78.4 429.45 78.35 425.9 78.25 Q422.15 78.3 420.75 79.35 M488.95 40.9 Q481.3 40.6 475.95 40.6 L559.9 38.65 547.2 39.25 507.05 41.25 Q501.5 41.35 488.95 40.9 M467.0 81.4 Q466.8 80.8 465.85 80.55 L468.5 80.65 467.0 81.4 M469.0 80.65 L474.55 81.15 Q475.15 82.65 471.6 82.85 L466.1 82.7 Q468.85 82.4 470.9 81.6 L469.0 80.65 M456.25 67.7 L463.95 67.25 479.05 66.45 Q488.2 66.0 493.85 64.6 L532.9 62.2 529.65 62.65 515.05 64.65 500.3 66.1 494.1 66.35 487.9 66.75 479.2 68.2 470.4 69.35 Q457.0 70.2 449.45 69.3 450.0 68.2 456.25 67.7 M419.85 32.0 L459.8 32.0 Q439.2 32.7 414.8 32.3 L394.25 31.75 419.85 32.0 M538.05 83.35 L528.5 82.35 518.95 81.95 509.7 81.5 Q517.85 81.05 529.25 81.6 L539.8 82.6 550.3 84.2 538.05 83.35 M513.85 17.85 Q486.15 18.15 450.9 17.4 432.35 17.05 388.0 15.7 L360.1 14.7 513.85 17.85 M598.6 103.2 L594.65 103.2 585.0 103.2 Q520.35 103.35 475.55 102.3 L465.7 102.25 Q453.7 102.0 453.15 101.25 L694.45 102.85 668.3 103.15 631.85 103.0 598.6 103.2 M807.85 99.25 L679.0 98.9 690.6 98.65 691.6 98.6 Q713.15 98.35 756.25 98.5 L892.3 98.75 Q897.95 98.75 903.45 98.9 L807.85 99.25 M883.3 29.8 L856.4 29.45 808.6 27.6 826.45 27.85 882.6 28.6 Q915.45 29.0 938.75 29.0 L1058.65 29.0 Q1013.1 30.35 957.55 30.3 L939.05 30.35 892.5 29.85 883.3 29.8 M958.15 14.95 L975.55 14.85 964.55 15.05 958.15 14.95 M944.65 37.4 L950.2 38.1 955.8 38.6 965.3 39.1 986.5 41.15 1007.65 43.5 Q1009.7 43.75 1013.5 44.75 L1019.35 46.05 1024.05 46.4 1028.85 46.55 1036.2 47.15 1043.55 47.6 1046.3 47.7 1032.15 47.2 1021.3 46.85 1010.5 45.9 990.4 42.9 970.15 40.5 Q934.9 36.15 899.5 36.45 L885.45 34.85 Q921.45 35.1 944.65 37.4 M896.3 23.95 L900.0 23.85 Q912.7 23.7 932.65 23.8 L941.6 23.95 896.3 23.95 M999.15 11.3 L1008.55 10.55 1003.1 11.5 997.75 12.55 993.05 13.15 992.95 13.15 984.4 14.25 975.85 14.85 978.65 14.7 989.5 13.1 989.6 13.1 999.15 11.3 M1047.7 6.7 L1038.95 6.7 1029.75 6.45 1052.65 6.55 1047.7 6.7 M937.0 53.75 L964.65 54.75 987.35 55.7 861.0 54.0 899.0 53.4 Q920.1 53.25 937.0 53.75 M1015.95 36.0 L1003.45 36.0 1009.95 35.65 1015.95 36.0 M1026.05 24.85 L1010.85 24.85 Q985.0 24.65 965.25 24.0 L1026.05 24.85 M769.5 69.2 L745.5 69.9 788.9 67.55 876.0 64.75 Q905.05 64.2 963.15 63.55 L880.2 66.25 807.45 68.1 799.2 68.35 769.5 69.2 M768.15 74.8 L755.15 73.65 841.05 72.55 811.2 74.7 Q798.2 75.15 781.15 74.9 L768.15 74.8 M783.65 26.4 L808.6 27.6 766.6 26.6 753.15 26.35 Q749.55 27.55 749.1 25.95 756.4 25.55 766.4 25.8 L783.65 26.4 M790.65 43.45 Q767.55 43.5 739.2 42.65 L687.8 40.7 818.85 43.1 790.65 43.45 M842.1 58.2 L861.95 58.95 813.25 58.15 Q825.0 57.7 842.1 58.2 M818.85 43.1 Q840.05 42.7 850.7 42.8 L873.5 43.5 896.3 44.5 818.85 43.1 M171.3 100.25 L171.2 100.25 174.7 100.4 171.9 100.85 166.55 100.7 157.0 101.7 140.75 102.4 124.4 102.35 99.25 101.7 74.1 100.7 59.8 100.2 129.4 100.7 155.5 99.2 155.9 99.25 161.9 99.55 162.35 99.6 168.5 100.0 171.45 100.2 171.3 100.25 M161.2 98.45 L168.1 97.6 151.35 97.05 Q143.5 96.95 184.45 96.15 L183.55 96.4 177.05 96.55 174.7 97.0 172.75 97.45 161.95 98.4 161.8 98.4 161.2 98.45 M179.8 98.3 L182.45 98.55 183.65 98.65 184.25 98.7 189.5 99.0 189.55 99.0 189.6 99.05 200.55 100.2 211.45 101.15 222.1 101.35 Q228.85 101.6 232.45 102.85 L224.0 102.75 215.6 102.45 206.05 102.05 196.55 101.8 205.0 102.85 176.15 101.1 166.95 101.25 171.9 100.85 176.15 101.1 185.7 101.1 184.7 101.0 186.65 101.0 183.6 100.7 180.8 100.45 175.05 99.85 173.4 100.0 171.9 100.15 169.3 100.0 160.2 99.4 156.65 99.15 161.85 99.15 154.65 99.0 159.75 98.55 179.8 98.3 M366.9 21.8 L420.6 23.2 Q389.15 24.25 363.25 24.0 L306.0 21.5 290.2 19.95 Q313.6 21.2 337.65 21.05 L353.45 21.45 Q357.15 23.1 365.05 23.05 L376.9 22.65 366.9 21.8 M271.75 35.6 L262.15 35.4 249.95 36.3 242.05 36.15 242.2 36.0 237.95 36.0 236.95 35.9 228.55 34.65 220.1 33.7 211.2 33.15 210.95 32.5 210.95 32.3 Q210.95 31.7 211.4 31.3 L212.15 30.85 213.65 30.6 213.2 30.6 213.65 30.55 211.6 30.7 210.15 31.05 Q208.4 31.6 208.1 32.7 207.9 33.75 208.9 34.7 205.05 34.5 204.4 33.85 203.2 32.55 207.0 31.55 L211.35 30.7 Q218.0 29.55 228.55 29.7 L245.9 30.1 257.0 32.2 227.35 32.2 223.9 32.2 220.75 32.6 Q226.6 34.35 238.75 34.75 L250.2 35.35 Q257.9 35.55 261.4 34.2 L259.0 33.8 263.45 33.75 Q266.4 33.7 268.3 33.8 L271.6 34.05 Q273.1 34.4 271.75 35.6 M238.4 36.05 L236.95 36.0 237.95 36.0 238.4 36.05 M241.85 36.3 L244.3 36.45 294.85 36.75 334.45 37.95 331.95 37.5 327.45 36.95 329.2 36.95 331.95 37.5 341.05 38.05 340.5 38.3 336.65 38.25 335.35 38.05 327.05 38.15 292.35 38.6 Q266.2 38.95 249.3 38.55 221.35 38.0 211.25 38.0 L190.2 38.0 199.4 37.7 Q209.65 37.4 215.05 37.4 224.0 37.45 230.95 37.15 L241.85 36.3 M257.65 17.4 Q260.7 17.15 264.65 17.4 L271.7 17.95 290.2 19.95 257.65 17.4 M256.15 83.6 L250.6 82.75 245.0 82.15 237.05 81.8 232.1 81.65 243.15 81.55 255.6 81.95 Q265.75 82.65 280.55 86.65 L276.1 86.0 Q272.1 85.1 266.2 84.55 L256.15 83.6 M254.45 79.85 L248.85 79.5 257.55 79.6 225.9 78.5 194.1 78.95 178.45 78.7 162.8 78.4 188.6 79.15 196.35 79.4 Q202.0 79.6 198.3 79.75 L192.35 79.75 198.3 79.5 141.65 79.05 147.6 78.65 144.25 78.45 141.15 78.2 136.9 77.65 129.55 76.8 125.35 76.7 121.3 76.05 Q121.8 74.2 128.7 73.75 L137.9 73.65 152.55 73.4 167.15 73.1 156.4 74.2 155.2 74.35 149.6 74.9 148.3 74.95 140.95 74.95 132.4 75.3 Q133.1 76.15 134.8 76.7 L138.75 77.3 143.0 77.35 144.05 77.35 146.4 77.35 155.6 77.1 164.55 77.45 Q164.45 77.55 164.3 77.6 179.75 76.75 201.8 76.7 L239.3 76.8 251.7 76.8 Q260.0 77.5 267.3 78.95 L267.85 79.05 271.2 79.65 272.05 79.8 273.6 80.0 266.65 80.0 268.6 80.1 277.7 80.65 Q293.3 82.75 309.55 82.65 L295.35 80.95 301.85 81.05 317.3 81.45 322.15 81.55 332.8 81.6 341.25 80.95 345.35 80.35 357.65 78.4 381.35 78.95 373.45 79.6 366.0 80.15 350.75 81.75 341.95 83.1 340.1 83.35 333.0 83.8 303.8 82.8 287.1 81.95 270.4 81.1 259.65 80.25 254.45 79.85 M157.3 74.2 L163.3 73.6 Q168.5 73.3 178.95 73.6 L185.1 74.1 185.5 74.15 186.7 74.3 191.2 74.7 Q200.65 75.4 156.6 75.25 L146.7 75.2 148.8 75.0 149.6 74.9 151.25 74.8 156.0 74.35 157.3 74.2 M263.3 77.1 L269.15 77.45 278.2 78.5 287.25 79.65 298.85 80.05 310.45 80.0 324.95 80.0 332.5 80.05 340.0 79.65 345.75 78.85 351.6 78.4 Q340.0 80.85 322.3 80.95 L292.55 80.55 284.45 79.6 283.75 79.55 281.25 79.25 263.3 77.1 M290.05 44.05 L291.8 43.9 294.35 44.1 314.0 45.5 264.45 44.95 290.05 44.05 M297.7 64.95 L297.6 65.0 308.8 65.0 303.2 64.75 297.7 64.95 M295.3 66.1 Q296.65 65.0 297.6 65.0 L294.75 65.0 Q293.75 65.0 293.35 65.65 293.0 66.3 293.4 67.05 294.0 67.1 295.3 66.1 M319.4 88.2 Q301.65 88.35 288.55 87.3 L283.35 86.9 350.25 87.45 319.4 88.2 M328.9 46.9 L329.55 46.55 556.8 48.15 Q484.5 49.55 386.35 48.6 L357.75 48.4 328.9 46.9 M333.15 29.2 L337.1 29.4 327.3 29.1 333.15 29.2 M145.1 27.3 L168.8 27.05 162.2 27.65 170.5 28.3 164.7 28.15 159.5 28.0 145.45 27.35 145.1 27.3 M167.9 32.3 L166.55 32.65 142.6 32.6 140.7 32.45 147.4 32.35 167.9 32.3 M138.65 32.7 L139.3 32.75 134.4 32.6 142.6 32.6 147.8 33.15 138.65 32.7 M172.2 31.75 L170.55 31.75 182.95 31.25 193.5 31.8 171.3 32.0 172.2 31.75 M148.85 33.2 L157.8 34.4 166.7 35.9 155.6 35.4 Q152.75 33.9 147.8 33.15 L148.85 33.2 M157.8 38.1 L156.0 38.05 192.5 38.3 Q207.2 38.45 187.95 38.55 169.45 38.65 174.8 38.35 L157.8 38.1 M158.25 14.3 L140.6 14.2 154.35 13.9 Q167.85 13.65 177.45 13.7 L185.65 13.6 186.55 13.8 197.75 14.15 188.35 14.1 190.25 14.25 158.25 14.3 M179.55 65.4 Q172.45 65.25 160.2 65.25 L141.75 65.35 154.3 66.75 154.6 66.75 179.55 65.4 M209.4 21.8 Q216.95 22.65 213.95 22.5 L209.4 21.8 202.7 21.05 214.85 20.7 Q207.4 21.1 209.4 21.8 M133.15 47.35 L164.95 48.2 180.95 48.1 196.9 48.2 204.3 48.75 197.5 49.5 190.7 50.25 198.1 50.95 205.5 51.35 Q181.5 51.3 177.4 50.7 168.3 49.35 149.35 48.35 L133.15 47.35 M166.55 32.65 L188.4 32.85 162.8 34.8 Q164.0 33.55 166.55 32.65 M237.75 51.3 L211.1 51.85 205.5 51.35 237.75 51.3 M274.6 95.35 L271.6 95.5 Q264.9 95.95 254.35 95.5 L237.2 94.85 238.15 94.8 240.55 94.7 253.2 94.15 Q261.8 93.8 268.3 93.75 L287.1 93.8 Q298.1 93.8 305.85 93.3 L447.25 94.85 388.9 94.35 Q352.6 93.95 330.5 94.3 309.0 94.9 298.15 94.9 284.55 94.8 274.6 95.35 M340.0 101.65 Q343.25 100.4 349.05 100.45 L358.4 100.7 389.5 102.3 352.05 102.3 345.9 102.45 Q342.25 102.4 340.0 101.65 M253.3 59.8 Q232.15 61.45 204.05 58.2 L253.3 59.8" fill="#b3a174" fill-rule="evenodd" stroke="none"/>
      <path d="M1374.7 7.2 L1374.35 7.2 1344.4 7.25 1347.2 7.0 1355.55 6.25 1373.7 6.4 1373.85 6.4 1374.85 7.2 1374.7 7.2 M812.2 7.15 L896.7 7.0 905.05 7.85 913.6 8.1 932.25 8.4 938.7 8.35 950.85 8.45 960.7 8.9 970.55 9.15 969.95 9.35 938.25 9.25 830.05 7.8 828.6 7.7 812.2 7.15 M916.1 7.0 L1095.95 7.0 1090.7 7.2 Q1062.7 8.2 1033.8 8.75 L984.4 9.35 984.65 9.3 984.45 9.3 984.65 9.2 916.1 7.0 M790.1 7.1 L789.2 7.15 792.95 7.45 776.35 7.1 789.9 7.1 790.1 7.1 M131.35 7.4 L157.4 8.05 157.9 8.1 164.35 8.25 202.05 9.2 134.15 9.85 128.2 9.8 128.1 9.8 131.2 7.4 131.35 7.4 M353.55 8.55 Q313.8 8.25 274.8 7.35 L250.05 6.8 229.85 6.3 327.45 6.45 337.25 6.45 515.25 6.65 560.5 6.7 493.65 7.6 483.95 7.75 432.25 8.45 407.4 8.6 353.55 8.55 M321.45 36.1 L279.0 30.6 272.3 29.35 276.25 29.15 279.95 29.0 324.35 36.45 321.45 36.1 M234.45 65.0 L236.25 65.15 Q201.7 65.5 184.5 65.2 L180.8 65.15 173.6 64.55 167.6 63.4 167.1 63.3 161.45 62.0 156.6 60.65 139.9 63.0 129.3 63.75 118.55 63.4 126.35 62.75 Q131.9 62.65 133.1 61.4 L158.95 59.55 167.85 58.9 161.6 59.9 158.75 60.35 163.3 60.8 163.35 60.8 163.75 60.85 166.2 61.6 168.75 62.35 175.05 63.0 181.45 63.0 217.0 63.55 224.25 64.15 234.45 65.0 M155.1 82.0 L162.4 81.6 179.5 82.85 169.5 83.2 159.75 82.65 156.25 82.75 Q154.0 82.8 153.1 82.25 L155.1 82.0 M101.1 88.8 L116.1 91.15 103.6 90.3 88.95 88.75 87.65 88.6 78.5 87.25 75.45 86.45 66.05 84.1 Q63.35 83.25 61.55 82.2 65.1 82.3 72.15 84.05 79.2 85.8 82.75 85.85 L101.1 88.8 M51.0 87.95 L56.85 88.5 38.1 88.75 26.5 88.15 25.9 88.1 27.35 87.0 39.8 86.9 51.0 87.95 M170.65 107.55 L177.8 107.1 174.7 107.55 171.05 108.0 163.55 108.0 170.65 107.55 M392.9 106.55 L391.7 106.15 Q394.25 105.75 399.1 106.0 L406.55 106.05 Q408.25 105.9 411.9 104.55 L414.05 103.9 416.5 103.35 417.6 103.35 419.1 103.9 413.4 105.8 407.25 106.55 400.25 106.85 392.9 106.55 M1181.8 98.05 L1182.25 98.05 1171.9 98.7 Q1165.65 99.0 1161.55 98.5 1162.15 97.6 1164.2 97.45 L1167.45 97.55 1181.8 98.05 M1229.5 96.55 L1275.55 100.2 1265.3 100.1 1232.65 98.05 1219.55 97.15 Q1211.6 96.6 1206.65 95.25 1206.85 94.55 1208.2 94.85 L1229.5 96.55 M1456.6 73.05 L1430.7 73.1 1413.95 72.05 1455.1 71.75 1456.7 73.05 1456.6 73.05 M1285.55 40.4 L1285.4 40.35 Q1291.75 38.25 1297.0 38.6 L1373.25 37.5 1346.05 38.55 1318.75 38.6 1318.25 38.6 1317.95 38.6 1317.8 38.6 1317.5 38.6 1317.3 38.6 1313.6 38.7 1311.3 38.8 1310.15 38.85 1308.0 39.05 1307.7 39.1 1300.5 40.3 1296.4 40.85 1294.45 41.05 1286.0 40.55 1285.55 40.4 M1118.8 41.45 L1118.05 41.45 1116.35 41.25 Q1115.45 41.0 1115.1 40.5 L1115.1 40.45 Q1116.05 39.6 1118.85 39.3 L1123.05 38.6 1147.15 39.55 1144.55 39.5 Q1133.25 39.3 1125.55 40.6 L1122.95 41.05 1120.5 41.35 1118.8 41.45 M1065.95 42.5 Q1065.3 43.4 1062.65 43.5 L1058.7 43.4 1053.25 43.2 1047.6 43.0 1045.95 42.85 1044.6 42.7 Q1046.0 41.9 1050.5 41.75 L1057.2 41.75 1062.2 41.85 Q1064.1 41.65 1064.6 40.85 1064.8 40.35 1064.6 39.7 L1064.6 39.65 1065.35 40.5 1066.05 41.25 Q1066.35 42.0 1065.95 42.5 M1023.2 41.5 L1015.7 40.45 1012.3 39.5 Q1010.2 38.8 1009.05 38.6 L1025.45 41.0 1030.55 41.75 1023.2 41.5 M1024.4 80.95 L1024.5 80.9 Q1027.3 80.05 1033.4 79.75 L1042.4 79.0 1050.45 78.25 1055.3 77.55 1060.15 77.0 1060.25 77.0 1064.1 77.0 1068.3 77.0 Q1067.55 77.6 1066.45 77.65 L1064.65 77.7 1057.95 79.1 1057.4 79.2 1048.15 80.85 1038.8 81.6 1030.9 81.8 1026.4 81.75 1026.0 81.75 1024.7 81.65 1023.1 81.45 1024.4 80.95 M929.1 77.95 Q934.25 76.8 941.9 76.0 L955.0 74.7 966.05 73.5 989.1 71.0 970.2 73.95 957.15 75.9 936.85 78.4 925.05 78.95 929.1 77.95 M1072.8 85.8 L1078.6 84.7 1084.55 83.7 1116.4 82.65 1107.8 83.6 1101.3 84.35 1086.7 85.75 1079.1 86.45 1071.45 86.25 1072.8 85.8 M1340.85 96.1 L1398.4 96.0 1427.3 95.45 Q1390.65 99.2 1353.25 96.6 L1340.85 96.1 M1472.9 86.05 L1472.7 86.05 Q1441.7 86.15 1417.85 85.35 L1404.45 85.1 Q1395.9 84.85 1391.0 83.7 L1422.85 83.85 1454.7 83.7 1470.5 84.15 1472.9 86.05 M1483.05 94.25 L1484.05 95.05 1368.05 93.3 Q1376.0 93.2 1390.6 93.5 L1413.1 93.8 Q1453.0 93.8 1482.95 94.25 L1483.05 94.25 M648.55 29.2 L643.5 29.35 605.8 30.25 603.1 30.3 Q594.75 30.4 588.85 30.0 L571.8 29.25 566.05 29.35 562.85 29.3 560.55 28.85 Q564.55 28.4 571.1 28.65 L581.75 29.0 664.55 28.1 678.9 27.95 649.7 29.15 648.55 29.2 M583.4 82.95 L579.9 82.3 571.85 80.25 568.35 79.5 564.65 79.05 566.35 79.1 569.35 79.15 572.95 79.85 576.55 80.55 579.65 81.15 580.5 81.3 588.0 82.8 592.25 84.05 592.7 84.2 588.65 83.75 583.4 82.95 M563.3 78.55 L553.1 77.9 553.9 77.85 555.3 77.85 557.75 77.9 558.7 78.0 559.9 78.1 560.25 78.1 563.3 78.55 M469.5 76.5 L462.95 77.15 460.95 77.35 454.0 78.05 453.05 78.15 452.9 78.15 436.25 79.35 434.45 79.4 431.65 79.35 428.8 79.45 428.1 79.6 427.9 79.65 Q427.1 79.8 426.55 80.15 L426.65 80.3 427.0 81.0 423.65 80.55 Q421.8 80.05 420.55 79.45 L420.75 79.35 Q422.15 78.3 425.9 78.25 L429.45 78.35 431.7 78.4 453.5 77.15 478.3 75.75 469.5 76.5 M592.7 84.1 L593.15 84.15 593.4 84.2 596.2 84.45 597.5 84.55 600.05 84.75 600.45 84.75 606.9 85.55 613.2 86.65 615.05 86.9 610.55 86.9 608.4 86.95 609.4 87.0 610.85 87.0 620.65 87.0 623.25 87.0 633.75 87.0 635.25 87.0 635.15 87.1 633.45 87.55 631.65 87.35 629.65 87.5 628.05 87.7 627.6 87.7 616.4 87.9 597.2 88.15 552.6 87.8 Q522.35 87.45 508.0 87.45 L495.7 87.55 483.35 87.45 474.35 87.35 471.05 86.95 469.45 86.45 480.5 85.9 480.7 85.9 482.75 85.95 486.5 86.05 489.2 86.15 501.2 86.5 503.4 86.55 Q515.05 87.0 538.3 87.0 L561.05 87.0 567.5 87.0 600.65 87.0 603.1 86.75 604.05 86.65 599.05 85.8 594.4 84.65 592.7 84.1 M617.2 88.05 L619.05 88.2 636.9 88.7 646.8 89.0 611.95 89.0 604.5 89.1 597.2 88.45 617.2 88.05 M687.05 60.35 L719.65 60.9 699.8 61.9 Q688.1 62.2 676.8 61.85 L653.1 60.3 670.1 60.45 687.05 60.35 M356.3 61.05 L352.5 59.8 367.1 61.65 381.95 62.5 391.35 63.2 400.6 64.5 402.15 64.65 423.6 65.45 426.6 65.45 443.65 65.2 444.9 65.15 445.2 65.15 444.1 65.35 442.05 65.65 438.45 65.7 434.8 65.65 422.2 66.15 412.8 66.2 394.2 65.65 385.25 65.0 374.8 64.05 368.5 63.7 364.3 63.55 356.3 61.05 M485.7 59.1 L485.85 59.05 486.25 58.85 Q488.1 58.05 492.65 58.05 L494.55 58.05 533.4 58.15 529.05 58.2 504.8 59.05 504.4 59.1 504.25 59.1 504.05 59.1 497.95 59.4 495.2 59.45 489.95 59.45 485.75 59.1 485.7 59.1 M299.75 70.5 L299.85 70.5 Q302.65 70.2 308.15 68.75 L315.75 68.1 Q320.75 67.8 322.75 66.8 L322.85 66.75 323.3 66.95 324.65 67.6 326.15 68.3 327.3 68.85 316.4 70.1 308.8 70.85 303.0 71.2 Q298.55 71.25 297.75 70.55 L298.4 70.6 298.9 70.55 299.75 70.5 M462.15 82.65 L461.05 82.55 461.65 82.35 464.4 81.85 467.0 81.4 468.5 80.65 468.7 80.55 469.0 80.65 470.9 81.6 Q468.85 82.4 466.1 82.7 464.0 82.85 462.15 82.65 M538.05 83.35 L518.95 81.95 515.35 82.1 508.0 83.0 Q503.6 83.5 500.55 83.1 501.55 82.3 503.35 81.9 L503.9 81.8 508.55 81.5 509.7 81.5 518.95 81.95 528.5 82.35 538.05 83.35 M70.35 93.75 L73.15 93.8 68.55 93.85 52.6 94.45 Q42.7 94.85 36.65 94.85 L28.15 95.25 Q22.4 95.4 20.6 94.45 L35.7 93.45 Q40.75 93.3 50.95 93.3 L70.35 93.75 M162.35 99.6 L161.9 99.55 155.9 99.25 155.5 99.2 152.3 99.0 Q148.7 98.8 159.1 98.6 L159.35 98.6 159.75 98.55 161.2 98.45 161.8 98.4 161.95 98.4 172.75 97.45 174.7 97.0 177.05 96.55 180.75 96.55 183.55 96.4 184.45 96.15 184.9 95.95 188.25 96.15 172.75 97.45 169.3 98.05 175.8 98.05 189.05 98.15 179.8 98.3 159.75 98.55 154.65 99.0 156.65 99.15 160.2 99.4 162.35 99.6 M366.9 21.8 L376.9 22.65 365.05 23.05 Q357.15 23.1 353.45 21.45 352.45 21.05 351.75 20.5 L366.9 21.8 M242.05 36.15 L241.9 36.2 238.4 36.05 237.95 36.0 236.95 36.0 214.8 36.0 Q214.15 36.65 213.1 36.4 L211.4 35.8 211.0 35.9 Q209.65 35.4 208.9 34.7 207.9 33.75 208.1 32.7 208.4 31.6 210.15 31.05 L211.6 30.7 213.65 30.55 213.2 30.6 212.15 30.85 211.4 31.3 Q210.95 31.7 210.95 32.3 L210.95 32.5 211.2 33.15 220.1 33.7 228.55 34.65 236.95 35.9 237.95 36.0 242.2 36.0 242.05 36.15 M281.45 62.35 L285.15 62.05 285.3 62.05 290.7 61.45 Q294.35 61.1 295.4 61.85 L289.85 62.35 284.25 63.0 282.2 63.2 278.65 64.0 274.65 65.35 273.85 65.6 273.55 65.7 273.4 65.75 273.35 65.75 Q273.45 66.55 274.3 67.2 275.05 67.8 276.55 68.25 L281.15 69.7 275.35 68.55 269.7 67.15 Q269.3 66.6 269.5 66.25 269.65 65.95 270.3 65.65 L274.75 64.05 Q275.3 63.6 276.3 63.3 L277.85 62.85 279.7 62.55 280.35 62.45 280.85 62.4 281.45 62.35 M192.35 79.75 L184.9 80.0 184.55 80.35 184.45 80.45 182.75 81.0 180.5 81.05 172.55 81.35 165.95 81.6 164.55 81.6 164.2 81.6 162.4 81.5 138.05 80.15 135.3 79.85 Q133.35 79.5 135.5 79.25 L135.55 79.5 135.6 79.0 141.65 79.05 198.3 79.5 192.35 79.75 M251.7 76.8 L245.25 76.4 260.7 76.8 263.3 77.1 281.25 79.25 283.4 79.55 284.1 79.6 295.35 80.95 309.55 82.65 Q293.3 82.75 277.7 80.65 L273.6 80.0 272.05 79.8 271.2 79.65 267.85 79.05 267.3 78.95 Q260.0 77.5 251.7 76.8 M295.3 66.1 Q294.0 67.1 293.4 67.05 293.0 66.3 293.35 65.65 293.75 65.0 294.75 65.0 L297.6 65.0 Q296.65 65.0 295.3 66.1 M297.7 64.95 L303.2 64.75 308.8 65.0 297.6 65.0 297.7 64.95 M145.1 27.3 L135.1 26.2 Q130.95 25.85 180.9 25.45 L173.65 26.65 171.75 26.9 179.15 26.95 168.8 27.05 145.1 27.3 M159.5 28.0 L161.05 28.05 154.85 27.95 145.45 27.35 159.5 28.0 M167.9 32.3 L147.4 32.35 172.2 31.75 171.3 32.0 171.1 32.1 173.5 32.25 167.9 32.3" fill="#94855f" fill-rule="evenodd" stroke="none"/>
      <path d="M271.75 35.6 L325.9 36.85 294.85 36.75 244.3 36.45 241.85 36.3 236.95 36.0 238.4 36.05 241.9 36.2 242.05 36.15 249.95 36.3 262.15 35.4 271.75 35.6" fill="#665c3c" fill-rule="evenodd" stroke="none"/>
      <path d="M1500.0 108.0 L0.0 108.0 141.0 0.0 1365.75 0.0 1500.0 108.0" fill="url(#gradient0)" fill-rule="evenodd" stroke="none"/>
    </g>
    <linearGradient gradientTransform="matrix(0.0, 0.0665, 0.0665, 0.0, 750.0, 55.2)" gradientUnits="userSpaceOnUse" id="gradient0" spreadMethod="pad" x1="-819.2" x2="819.2">
      <stop offset="0.0" stop-color="#000000" stop-opacity="0.2784314"/>
      <stop offset="0.47058823529411764" stop-color="#000000" stop-opacity="0.14901961"/>
      <stop offset="1.0" stop-color="#000000" stop-opacity="0.23921569"/>
    </linearGradient>
  </defs>
</svg>
