<?xml version="1.0" encoding="UTF-8" standalone="no"?>
<svg xmlns:xlink="http://www.w3.org/1999/xlink" height="168.65px" width="115.2px" xmlns="http://www.w3.org/2000/svg">
  <g transform="matrix(1.0, 0.0, 0.0, 1.0, 0.0, 0.0)">
    <use height="168.65" transform="matrix(1.0, 0.0, 0.0, 1.0, 0.0, 0.0)" width="115.2" xlink:href="#shape0"/>
  </g>
  <defs>
    <g id="shape0" transform="matrix(1.0, 0.0, 0.0, 1.0, 0.0, 0.0)">
      <path d="M12.75 87.6 L24.5 78.1 34.7 81.55 20.35 98.25 12.75 87.6" fill="#a2946c" fill-rule="evenodd" stroke="none"/>
      <path d="M114.0 88.1 Q115.5 127.0 115.15 164.55 L107.15 168.65 36.8 9.2 Q49.35 5.15 63.7 2.45 92.45 -3.0 101.7 3.65 111.0 10.3 114.0 88.1" fill="url(#gradient0)" fill-rule="evenodd" stroke="none"/>
      <path d="M9.55 52.55 L0.0 19.05 Q21.35 11.9 44.05 7.5 89.5 -1.25 96.45 12.7 103.4 26.65 106.0 99.05 107.25 135.25 107.15 168.65 L19.15 167.3 12.75 87.6 21.5 84.4 18.35 51.75 9.55 52.55" fill="#8b7c53" fill-rule="evenodd" stroke="none"/>
      <path d="M96.85 96.6 Q98.85 133.4 99.65 168.55 L26.2 167.4 20.75 94.8 29.5 86.8 23.1 42.2 13.55 41.4 16.75 24.65 Q31.9 19.1 48.2 15.1 80.9 7.15 86.85 15.1 92.85 23.05 96.85 96.6" fill="#628f94" fill-rule="evenodd" stroke="none"/>
      <path d="M80.5 19.05 Q86.95 24.55 91.25 97.05 93.35 133.3 94.2 168.45 L32.0 167.5 27.1 98.75 32.7 89.2 27.1 39.0 19.95 36.6 23.1 29.45 Q34.85 24.65 47.9 20.95 74.05 13.6 80.5 19.05" fill="#85a7ac" fill-rule="evenodd" stroke="none"/>
      <path d="M82.55 89.4 Q84.45 91.35 85.0 94.2 85.55 97.15 84.25 99.25 82.8 101.65 79.3 101.95 75.8 102.25 73.9 100.15 72.25 98.35 72.3 95.4 72.35 92.55 73.85 90.3 75.55 87.9 78.1 87.6 80.55 87.3 82.55 89.4" fill="#495352" fill-rule="evenodd" stroke="none"/>
      <path d="M48.25 55.9 Q49.75 55.8 49.2 53.15 48.7 50.5 46.85 50.5 45.35 50.5 46.1 53.25 46.85 56.0 48.25 55.9 M45.15 45.25 Q48.85 44.7 50.9 48.05 52.65 50.9 52.7 55.65 52.75 60.1 51.4 63.55 49.95 67.2 47.75 67.2 45.6 67.2 43.95 63.9 42.5 60.9 41.95 56.55 41.4 52.2 42.2 49.05 43.0 45.55 45.15 45.25" fill="#628f94" fill-rule="evenodd" stroke="none"/>
      <path d="M74.65 128.4 Q76.95 128.25 78.75 131.45 80.4 134.35 80.9 138.5 81.45 142.75 80.4 145.55 79.25 148.7 76.5 148.5 73.75 148.3 71.95 145.2 70.3 142.4 69.95 138.4 69.65 134.45 70.8 131.65 72.1 128.6 74.65 128.4 M74.65 131.2 Q73.25 131.1 72.45 133.35 71.7 135.5 71.9 138.4 72.4 145.85 77.15 145.7 80.4 145.6 79.05 138.5 77.65 131.45 74.65 131.2" fill="#628f94" fill-rule="evenodd" stroke="none"/>
      <path d="M44.05 113.4 Q46.75 113.5 47.15 116.95 47.6 120.45 44.85 120.65 42.0 120.9 41.55 117.1 41.1 113.3 44.05 113.4" fill="#628f94" fill-rule="evenodd" stroke="none"/>
      <path d="M43.0 44.6 Q41.35 45.2 40.35 47.25 39.4 49.3 39.75 51.55 40.2 54.65 42.5 63.8 L41.3 62.95 Q40.05 62.45 40.05 64.1 40.05 66.7 41.1 71.65 38.55 63.1 37.5 57.2 37.45 54.85 37.7 51.95 38.15 46.05 39.6 43.05 40.9 40.3 40.2 32.6 L39.25 25.45 42.05 24.2 42.1 32.45 Q42.4 40.85 43.75 41.7 44.85 42.4 48.9 43.05 52.7 44.05 53.8 46.95 54.95 49.95 55.25 54.25 L55.35 57.9 54.5 52.95 Q53.35 47.7 51.8 46.3 50.05 44.8 47.25 44.35 L43.0 44.6" fill="#628f94" fill-rule="evenodd" stroke="none"/>
      <path d="M29.55 99.2 L30.8 105.75 Q32.1 113.25 32.45 117.9 32.75 121.45 34.65 126.95 36.35 132.0 36.35 135.35 36.35 138.75 35.05 141.0 33.85 143.1 34.0 145.25 L36.0 166.75 33.7 166.1 29.55 99.2" fill="#628f94" fill-rule="evenodd" stroke="none"/>
      <path d="M38.35 80.95 L36.95 76.75 36.0 86.2 29.4 31.3 38.35 80.95" fill="#628f94" fill-rule="evenodd" stroke="none"/>
      <path d="M32.15 28.85 Q34.35 27.2 35.8 33.5 36.55 36.65 36.8 40.15 L34.3 42.75 32.15 28.85" fill="#628f94" fill-rule="evenodd" stroke="none"/>
      <path d="M47.75 121.8 L49.15 119.9 48.1 123.1 Q47.1 126.65 47.3 128.1 47.45 129.1 49.25 133.5 51.1 137.95 51.35 139.85 51.55 141.45 50.6 143.85 49.65 146.15 50.1 148.65 50.85 153.3 51.95 166.6 L50.25 166.6 Q48.55 140.15 47.6 133.95 47.0 129.95 45.25 127.95 L40.95 124.4 Q38.75 122.55 37.6 116.55 L36.95 110.95 Q37.6 114.05 39.6 117.7 41.9 121.75 44.05 122.7 46.0 123.55 47.75 121.8" fill="#628f94" fill-rule="evenodd" stroke="none"/>
      <path d="M37.1 126.55 L39.4 129.95 38.65 154.7 37.1 126.55" fill="#628f94" fill-rule="evenodd" stroke="none"/>
      <path d="M42.35 132.55 L44.35 140.45 47.0 166.1 44.35 165.5 42.35 132.55" fill="#628f94" fill-rule="evenodd" stroke="none"/>
      <path d="M65.8 130.0 L66.9 132.3 Q68.05 135.05 68.35 137.2 68.65 139.7 70.25 144.65 71.7 149.2 73.2 152.75 74.35 155.5 73.75 161.7 L72.95 167.35 69.25 167.6 Q70.4 159.7 69.7 153.65 69.3 149.9 67.5 139.6 L65.8 130.0" fill="#628f94" fill-rule="evenodd" stroke="none"/>
      <path d="M72.5 104.05 L76.2 121.65 80.25 124.25 Q84.45 127.75 85.5 132.1 86.55 136.6 84.45 142.9 83.5 145.7 80.6 151.8 79.3 154.55 80.45 160.9 81.0 164.05 81.8 166.65 L78.75 165.95 Q78.45 162.75 78.4 159.3 78.2 152.4 79.25 151.1 80.65 149.3 81.95 143.95 83.35 137.9 82.7 133.95 82.15 130.35 78.2 127.15 L74.35 124.7 72.5 104.05" fill="#628f94" fill-rule="evenodd" stroke="none"/>
      <path d="M47.45 70.2 L48.2 70.65 50.0 70.45 Q51.4 69.5 52.8 66.25 52.1 91.05 52.55 93.4 L54.1 98.1 Q55.4 102.0 55.8 105.45 56.15 108.4 55.25 113.15 54.3 117.9 54.65 120.5 55.35 125.85 56.75 159.25 L55.1 157.85 Q51.85 93.6 50.7 85.25 50.0 80.05 48.65 74.6 L47.45 70.2" fill="#628f94" fill-rule="evenodd" stroke="none"/>
      <path d="M43.75 74.35 L45.75 78.85 Q47.8 84.05 47.95 87.8 48.15 93.85 47.7 110.3 L43.75 74.35" fill="#628f94" fill-rule="evenodd" stroke="none"/>
      <path d="M42.15 110.1 L39.6 108.25 37.5 86.2 42.15 110.1" fill="#628f94" fill-rule="evenodd" stroke="none"/>
      <path d="M33.55 95.95 L35.65 94.1 34.25 107.55 33.55 95.95" fill="#628f94" fill-rule="evenodd" stroke="none"/>
      <path d="M86.65 57.0 L86.9 65.1 85.25 54.65 84.8 85.25 Q82.95 49.35 81.1 36.35 79.95 28.25 76.25 23.95 75.1 22.6 73.8 21.8 L72.75 21.3 Q75.95 20.85 79.4 25.35 83.35 30.55 84.8 39.35 86.1 47.3 86.65 57.0" fill="#628f94" fill-rule="evenodd" stroke="none"/>
      <path d="M91.5 154.6 L88.5 150.9 88.25 89.7 91.5 154.6" fill="#628f94" fill-rule="evenodd" stroke="none"/>
      <path d="M79.0 105.9 L79.95 111.0 Q81.05 116.45 81.8 118.2 L85.0 125.6 79.45 119.6 79.0 105.9" fill="#628f94" fill-rule="evenodd" stroke="none"/>
      <path d="M84.55 105.2 L86.4 104.5 85.95 115.65 84.55 105.2" fill="#628f94" fill-rule="evenodd" stroke="none"/>
      <path d="M85.25 154.85 L88.95 166.9 85.0 164.55 85.25 154.85" fill="#628f94" fill-rule="evenodd" stroke="none"/>
      <path d="M57.65 119.6 L59.5 129.8 60.45 131.25 Q61.6 133.45 62.3 137.2 63.0 141.0 62.05 145.15 61.55 147.25 60.9 148.55 L63.7 165.25 60.7 163.4 57.65 119.6" fill="#628f94" fill-rule="evenodd" stroke="none"/>
      <path d="M60.7 46.8 L61.5 57.45 Q62.4 69.1 63.0 74.15 63.5 78.75 66.1 81.95 68.4 84.9 68.35 85.95 68.25 87.5 66.9 91.35 65.8 95.65 66.5 100.55 67.65 108.7 71.1 124.0 L67.85 122.85 65.6 110.4 Q63.2 95.85 62.3 85.25 60.9 68.35 57.45 44.25 L60.7 46.8" fill="#628f94" fill-rule="evenodd" stroke="none"/>
      <path d="M56.25 84.35 L59.3 86.9 60.7 112.85 56.25 84.35" fill="#628f94" fill-rule="evenodd" stroke="none"/>
      <path d="M68.55 56.5 Q69.7 61.85 70.2 81.55 L67.85 75.55 63.9 32.85 68.55 56.5" fill="#628f94" fill-rule="evenodd" stroke="none"/>
      <path d="M50.7 25.2 Q51.75 25.65 53.85 33.8 L55.8 41.9 52.35 39.6 50.95 32.2 Q49.75 24.85 50.7 25.2" fill="#628f94" fill-rule="evenodd" stroke="none"/>
      <path d="M69.5 25.7 L74.15 34.05 74.15 51.2 69.5 25.7" fill="#628f94" fill-rule="evenodd" stroke="none"/>
      <path d="M75.3 79.7 Q75.5 78.55 74.8 60.25 L78.75 81.35 75.3 79.7" fill="#628f94" fill-rule="evenodd" stroke="none"/>
    </g>
    <linearGradient gradientTransform="matrix(0.0, 0.0196, 0.0196, 0.0, 76.0, 25.5)" gradientUnits="userSpaceOnUse" id="gradient0" spreadMethod="pad" x1="-819.2" x2="819.2">
      <stop offset="0.0" stop-color="#d3ccb7"/>
      <stop offset="1.0" stop-color="#ac9e76"/>
    </linearGradient>
  </defs>
</svg>
