<?xml version="1.0" encoding="UTF-8" standalone="no"?>
<svg xmlns:xlink="http://www.w3.org/1999/xlink" height="60.55px" width="80.35px" xmlns="http://www.w3.org/2000/svg">
  <g transform="matrix(1.0, 0.0, 0.0, 1.0, 0.0, 0.0)">
    <use height="60.55" transform="matrix(1.0, 0.0, 0.0, 1.0, 0.0, 0.0)" width="80.35" xlink:href="#shape0"/>
  </g>
  <defs>
    <g id="shape0" transform="matrix(1.0, 0.0, 0.0, 1.0, 0.0, 0.0)">
      <path d="M79.15 14.55 Q80.2 15.25 77.75 19.1 L75.1 22.8 Q66.8 18.2 57.6 13.95 39.3 5.5 35.0 7.55 26.3 11.7 21.9 33.65 19.7 44.65 19.25 54.8 L16.7 56.15 Q13.55 57.55 10.75 57.8 7.3 58.1 3.45 57.0 1.5 56.45 0.25 55.8 2.95 43.6 8.25 30.7 18.9 4.8 32.0 1.05 43.15 -2.1 59.2 4.1 69.3 8.0 79.15 14.55" fill="#a64e5e" fill-rule="evenodd" stroke="none"/>
      <path d="M53.8 8.25 Q61.75 10.35 76.5 16.5 L76.9 23.25 75.6 23.05 75.1 22.8 Q67.05 18.35 58.1 14.15 40.1 5.85 35.35 7.45 38.25 6.25 43.3 6.5 48.1 6.75 53.8 8.25" fill="#85424f" fill-rule="evenodd" stroke="none"/>
      <path d="M21.05 14.65 Q18.1 21.0 13.8 37.15 11.65 45.2 10.0 52.15 L1.45 50.95 Q5.7 35.1 11.65 23.15 21.0 4.2 32.0 1.05 L33.75 0.65 Q31.4 1.85 28.7 4.3 23.85 8.65 21.05 14.65" fill="#85424f" fill-rule="evenodd" stroke="none"/>
      <path d="M2.75 46.45 L4.15 48.45 Q6.45 50.4 11.25 50.3 14.1 50.3 19.85 47.4 L20.75 51.1 Q21.65 54.95 21.5 55.75 21.2 57.2 18.85 58.6 15.6 60.55 10.25 60.55 5.7 60.55 2.9 59.3 0.6 58.25 0.05 56.7 -0.3 55.6 1.2 50.9 L2.75 46.45" fill="#5b2932" fill-rule="evenodd" stroke="none"/>
      <path d="M21.7 9.15 Q24.6 6.2 26.9 4.65 22.95 8.6 20.65 12.45 18.65 15.85 16.25 21.55 13.35 28.25 11.95 33.55 9.85 41.3 8.2 49.3 6.25 48.7 5.0 47.65 L4.2 46.7 Q7.95 34.1 12.85 22.45 15.9 15.15 21.7 9.15" fill="#66363f" fill-rule="evenodd" stroke="none"/>
      <path d="M72.3 16.1 L70.65 19.6 Q67.85 17.55 62.85 14.95 59.75 13.35 51.05 10.2 L42.95 7.35 47.8 8.15 55.45 9.85 Q59.2 11.0 72.3 16.1" fill="#66363f" fill-rule="evenodd" stroke="none"/>
      <path d="M2.75 46.45 L4.0 48.3 Q6.05 50.2 10.25 50.3 9.45 51.55 9.0 52.95 8.2 55.25 8.8 56.8 9.45 58.5 13.55 58.95 L17.9 59.1 Q14.75 60.55 10.25 60.55 5.7 60.55 2.9 59.3 0.6 58.25 0.05 56.7 -0.3 55.6 1.2 50.9 L2.75 46.45" fill="#412227" fill-rule="evenodd" stroke="none"/>
      <path d="M16.0 50.85 L19.4 49.6 20.15 51.5 Q20.85 53.6 20.55 54.9 20.3 56.2 18.6 56.95 L16.9 57.4 Q16.5 57.0 17.15 55.35 17.55 54.3 16.8 52.45 L16.0 50.85" fill="#85424f" fill-rule="evenodd" stroke="none"/>
      <path d="M15.35 47.3 Q18.4 34.1 19.95 28.25 20.9 24.65 24.55 17.5 L27.95 11.1 Q23.15 22.55 21.9 28.55 20.65 34.6 19.0 45.85 16.4 47.4 15.35 47.3" fill="#ba727b" fill-rule="evenodd" stroke="none"/>
      <path d="M70.65 10.45 L72.85 13.05 Q58.35 6.0 50.65 3.5 45.85 1.95 40.05 2.15 L35.25 2.65 38.75 1.7 Q43.15 0.85 47.45 1.5 51.75 2.15 61.6 6.35 L70.65 10.45" fill="#ba727b" fill-rule="evenodd" stroke="none"/>
      <path d="M78.9 14.4 Q80.95 15.2 80.1 19.6 79.2 24.0 75.85 23.15 72.45 22.25 74.2 17.75 75.9 13.2 78.9 14.4" fill="#ba727b" fill-rule="evenodd" stroke="none"/>
      <path d="M78.6 15.0 Q80.1 15.4 79.5 19.2 78.95 23.0 76.6 22.5 74.2 22.0 75.45 18.25 76.65 14.55 78.6 15.0" fill="url(#gradient0)" fill-rule="evenodd" stroke="none"/>
    </g>
    <linearGradient gradientTransform="matrix(0.0027, 0.0, 0.0, -0.0027, 77.35, 18.75)" gradientUnits="userSpaceOnUse" id="gradient0" spreadMethod="pad" x1="-819.2" x2="819.2">
      <stop offset="0.0" stop-color="#893342"/>
      <stop offset="1.0" stop-color="#2d1d1e"/>
    </linearGradient>
  </defs>
</svg>
