<?xml version="1.0" encoding="UTF-8" standalone="no"?>
<svg xmlns:xlink="http://www.w3.org/1999/xlink" height="16.0px" width="85.65px" xmlns="http://www.w3.org/2000/svg">
  <g transform="matrix(1.0, 0.0, 0.0, 1.0, 0.0, 0.0)">
    <use height="16.0" transform="matrix(1.0, 0.0, 0.0, 1.0, 0.0, 0.0)" width="85.65" xlink:href="#sprite0"/>
  </g>
  <defs>
    <g id="sprite0" transform="matrix(1.0, 0.0, 0.0, 1.0, 0.0, 0.0)">
      <use height="16.0" transform="matrix(1.0, 0.0, 0.0, 1.0, 0.0, 0.0)" width="85.65" xlink:href="#shape0"/>
      <use height="6.4" transform="matrix(1.0, 0.0, 0.0, 1.0, 50.65, 2.55)" width="20.95" xlink:href="#sprite1"/>
    </g>
    <g id="shape0" transform="matrix(1.0, 0.0, 0.0, 1.0, 0.0, 0.0)">
      <path d="M42.05 6.75 Q38.75 7.9 34.15 7.9 29.5 7.9 26.25 6.75 22.95 5.6 22.95 3.95 22.95 2.35 26.25 1.15 29.5 0.0 34.15 0.0 38.75 0.0 42.05 1.15 45.3 2.35 45.3 3.95 45.3 5.6 42.05 6.75" fill="#59412f" fill-rule="evenodd" stroke="none"/>
      <path d="M0.0 13.0 Q0.0 11.75 3.0 10.9 5.95 10.05 10.15 10.05 14.35 10.05 17.3 10.9 20.25 11.75 20.25 13.0 20.25 14.25 17.3 15.1 14.35 16.0 10.15 16.0 5.95 16.0 3.0 15.1 0.0 14.25 0.0 13.0" fill="#59412f" fill-rule="evenodd" stroke="none"/>
      <path d="M81.15 7.95 L77.95 7.55 Q76.6 7.1 76.6 6.5 76.6 5.85 77.95 5.45 L81.15 5.0 84.35 5.45 Q85.65 5.85 85.65 6.5 85.65 7.1 84.35 7.55 L81.15 7.95" fill="#59412f" fill-rule="evenodd" stroke="none"/>
      <path d="M44.6 13.25 Q44.6 12.55 45.95 12.0 47.3 11.5 49.15 11.5 L52.35 12.0 Q53.65 12.55 53.65 13.25 53.65 13.95 52.35 14.45 L49.15 14.95 45.95 14.45 Q44.6 13.95 44.6 13.25" fill="#59412f" fill-rule="evenodd" stroke="none"/>
    </g>
    <g id="sprite1" transform="matrix(1.0, 0.0, 0.0, 1.0, 0.0, 0.0)">
      <use height="6.4" transform="matrix(1.0, 0.0, 0.0, 1.0, 0.0, 0.0)" width="20.95" xlink:href="#shape1"/>
    </g>
    <g id="shape1" transform="matrix(1.0, 0.0, 0.0, 1.0, 0.0, 0.0)">
      <path d="M0.0 3.2 Q0.0 1.85 3.1 0.95 6.15 0.0 10.5 0.0 14.85 0.0 17.9 0.95 20.95 1.85 20.95 3.2 20.95 4.5 17.9 5.45 14.8 6.4 10.5 6.4 6.15 6.4 3.1 5.45 0.0 4.5 0.0 3.2" fill="#59412f" fill-rule="evenodd" stroke="none"/>
    </g>
  </defs>
</svg>
