<?xml version="1.0" encoding="UTF-8" standalone="no"?>
<svg xmlns:xlink="http://www.w3.org/1999/xlink" height="189.6px" width="111.85px" xmlns="http://www.w3.org/2000/svg">
  <g transform="matrix(1.0, 0.0, 0.0, 1.0, 0.0, 0.0)">
    <use height="17.85" transform="matrix(1.0, 0.0, 0.0, 1.0, 23.65, 167.0)" width="76.35" xlink:href="#sprite0"/>
    <use height="187.1" transform="matrix(1.0, 0.0, 0.0, 1.0, 0.0, 0.65)" width="111.85" xlink:href="#shape1"/>
  </g>
  <defs>
    <g id="sprite0" transform="matrix(1.0, 0.0, 0.0, 1.0, 0.0, 0.0)">
      <use height="17.85" transform="matrix(1.0, 0.0, 0.0, 1.0, 0.0, 0.0)" width="76.35" xlink:href="#shape0"/>
    </g>
    <g id="shape0" transform="matrix(1.0, 0.0, 0.0, 1.0, 0.0, 0.0)">
      <path d="M65.2 15.2 Q53.9 17.85 38.2 17.85 22.6 17.85 11.15 15.2 0.0 12.65 0.0 8.95 0.0 5.2 11.15 2.6 22.35 0.0 38.2 0.0 54.15 0.0 65.2 2.6 76.35 5.2 76.35 8.95 76.35 12.65 65.2 15.2" fill="url(#gradient0)" fill-rule="evenodd" stroke="none"/>
    </g>
    <radialGradient cx="0" cy="0" gradientTransform="matrix(0.0399, 0.0, 0.0, -0.0131, 42.25, 8.6)" gradientUnits="userSpaceOnUse" id="gradient0" r="819.2" spreadMethod="pad">
      <stop offset="0.0" stop-color="#000000" stop-opacity="0.44705883"/>
      <stop offset="1.0" stop-color="#000000" stop-opacity="0.0"/>
    </radialGradient>
    <g id="shape1" transform="matrix(1.0, 0.0, 0.0, 1.0, 0.0, -0.65)">
      <path d="M66.85 54.5 L67.5 148.5 63.65 148.5 62.95 54.5 66.85 54.5" fill="#141414" fill-rule="evenodd" stroke="none"/>
      <path d="M65.85 54.5 L66.55 148.5 63.65 148.5 62.95 54.5 65.85 54.5" fill="#262626" fill-rule="evenodd" stroke="none"/>
      <path d="M64.25 54.5 L64.95 148.5 63.75 148.5 63.05 54.5 64.25 54.5" fill="#4f4f4f" fill-rule="evenodd" stroke="none"/>
      <path d="M49.1 9.9 L70.2 5.15 72.8 6.5 Q76.0 8.3 78.7 10.5 87.5 17.55 88.7 26.15 89.9 34.75 85.85 43.75 84.6 46.5 82.95 49.05 L81.55 51.0 51.45 61.1 54.1 58.6 Q57.3 55.4 59.9 51.95 68.25 41.0 67.6 31.8 67.0 22.6 58.0 15.35 55.15 13.05 51.85 11.25 L49.1 9.9" fill="#3b3b3b" fill-rule="evenodd" stroke="none"/>
      <path d="M71.6 14.35 Q77.05 12.35 79.55 11.15 L83.6 15.25 84.85 16.85 Q81.9 18.55 77.35 19.8 72.55 21.1 69.25 21.05 L68.7 22.8 66.65 20.2 64.65 18.5 65.1 17.5 63.8 17.55 Q66.25 16.35 71.6 14.35" fill="#454545" fill-rule="evenodd" stroke="none"/>
      <path d="M70.2 5.15 L73.45 6.85 Q77.3 9.1 80.4 11.9 78.55 12.85 71.15 15.0 64.95 16.8 63.4 18.35 62.1 17.45 59.85 16.95 56.65 14.0 52.55 11.65 L49.1 9.9 70.2 5.15" fill="#454545" fill-rule="evenodd" stroke="none"/>
      <path d="M56.05 10.8 L53.05 9.1 70.2 5.15 73.3 6.95 63.3 9.0 58.55 10.1 56.05 10.8" fill="#363636" fill-rule="evenodd" stroke="none"/>
      <path d="M61.1 15.25 Q62.3 13.65 77.25 9.45 L78.2 9.85 Q79.15 10.35 79.75 11.45 L80.45 12.75 82.0 14.2 79.8 15.3 76.75 15.45 Q76.4 16.45 72.85 17.5 69.4 18.55 68.25 18.2 68.25 18.65 67.0 18.8 65.8 18.95 65.75 19.3 64.35 17.15 61.65 15.6 L61.55 15.25 61.1 15.25" fill="#575757" fill-rule="evenodd" stroke="none"/>
      <path d="M80.75 12.45 L61.75 18.7 60.75 16.95 78.5 11.2 80.75 12.45" fill="#707070" fill-rule="evenodd" stroke="none"/>
      <path d="M84.2 24.35 L86.6 23.85 88.2 23.75 88.7 26.15 Q89.9 34.75 85.85 43.75 84.6 46.5 82.95 49.05 L81.55 51.0 52.15 60.85 52.45 60.2 Q57.9 55.15 61.75 49.45 68.2 39.85 67.6 31.8 67.55 31.0 67.0 30.6 L66.2 29.5 Q69.45 29.35 75.2 27.25 82.05 24.8 84.2 24.35" fill="#262626" fill-rule="evenodd" stroke="none"/>
      <path d="M87.35 21.25 Q88.35 23.6 88.7 26.15 L88.85 27.35 88.7 28.0 Q88.2 29.4 86.9 29.9 L84.05 30.75 77.15 33.15 72.8 34.15 Q69.9 34.85 68.7 35.85 L67.6 34.5 67.6 31.8 Q67.45 29.6 66.85 27.55 L69.7 26.75 Q74.6 26.25 78.9 24.7 L87.35 21.25" fill="#2e2e2e" fill-rule="evenodd" stroke="none"/>
      <path d="M68.1 36.5 L68.7 35.85 69.1 36.15 68.1 36.5" fill="#2e2e2e" fill-rule="evenodd" stroke="none"/>
      <path d="M87.75 38.6 Q86.4 43.25 83.85 47.6 L81.55 51.0 53.95 60.25 55.45 59.55 Q56.2 57.7 60.05 55.05 64.4 52.05 65.5 50.5 L67.95 46.75 Q69.2 44.95 70.8 43.95 73.3 42.4 78.7 40.9 L87.75 38.6" fill="#1c1c1c" fill-rule="evenodd" stroke="none"/>
      <path d="M33.65 17.55 Q39.65 10.0 48.2 9.9 56.7 9.85 62.8 17.3 68.95 24.8 69.0 35.45 69.1 46.1 63.1 53.7 57.1 61.3 48.55 61.35 40.05 61.4 33.95 53.9 27.85 46.4 27.75 35.75 27.7 25.1 33.65 17.55" fill="#141414" fill-rule="evenodd" stroke="none"/>
      <path d="M33.9 21.15 Q39.8 14.25 48.3 14.15 56.8 14.1 62.85 20.95 68.95 27.8 69.0 37.6 69.1 47.35 63.1 54.3 57.15 61.3 48.65 61.35 40.2 61.4 34.15 54.5 28.1 47.65 28.0 37.9 27.95 28.1 33.9 21.15" fill="#1f1f1f" fill-rule="evenodd" stroke="none"/>
      <path d="M33.95 26.85 Q39.9 21.75 48.4 21.7 56.9 21.65 62.9 26.65 68.95 31.7 69.0 38.9 69.1 46.1 63.1 51.25 57.15 56.4 48.65 56.45 40.15 56.5 34.1 51.45 28.05 46.4 28.0 39.2 27.95 32.0 33.95 26.85" fill="#2e2e2e" fill-rule="evenodd" stroke="none"/>
      <path d="M36.0 21.8 Q40.65 15.95 47.3 15.9 53.95 15.85 58.7 21.65 63.45 27.4 63.5 35.65 63.55 43.85 58.9 49.7 54.25 55.55 47.6 55.6 40.95 55.65 36.2 49.85 31.5 44.05 31.4 35.85 31.35 27.65 36.0 21.8" fill="#404040" fill-rule="evenodd" stroke="none"/>
      <path d="M36.7 21.6 Q41.25 15.95 47.7 15.9 54.2 15.85 58.8 21.45 63.45 27.05 63.5 35.0 63.55 42.95 59.0 48.6 54.5 54.3 48.0 54.35 41.55 54.4 36.95 48.8 32.35 43.2 32.25 35.25 32.2 27.25 36.7 21.6" fill="#141414" fill-rule="evenodd" stroke="none"/>
      <path d="M38.9 21.35 Q43.05 15.95 49.0 15.9 54.95 15.85 59.2 21.2 63.45 26.55 63.5 34.15 63.55 41.75 59.4 47.15 55.2 52.55 49.25 52.6 43.3 52.65 39.05 47.3 34.85 41.95 34.75 34.35 34.7 26.75 38.9 21.35" fill="#000000" fill-rule="evenodd" stroke="none"/>
      <path d="M40.15 21.1 Q44.05 15.95 49.7 15.9 55.35 15.85 59.4 21.0 63.4 26.1 63.45 33.4 63.55 40.7 59.6 45.9 55.65 51.05 50.0 51.1 44.35 51.15 40.3 46.05 36.3 40.9 36.25 33.6 36.2 26.3 40.15 21.1" fill="#f2eddd" fill-rule="evenodd" stroke="none"/>
      <path d="M40.15 21.1 Q44.05 15.95 49.7 15.9 55.35 15.85 59.4 21.0 63.4 26.1 63.45 33.4 63.55 40.7 59.6 45.9 55.65 51.05 50.0 51.1 44.35 51.15 40.3 46.05 36.3 40.9 36.25 33.6 36.2 26.3 40.15 21.1" fill="url(#gradient1)" fill-rule="evenodd" stroke="none"/>
      <path d="M50.4 57.1 L55.5 66.55 64.0 69.5 63.55 72.0 52.0 68.6 45.95 58.65 50.4 57.1" fill="#141414" fill-rule="evenodd" stroke="none"/>
      <path d="M66.75 11.35 L71.0 65.45 27.95 63.6 21.55 10.05 66.75 11.35 M25.4 12.75 L31.0 60.05 68.75 61.7 65.05 13.9 25.4 12.75" fill="#363636" fill-rule="evenodd" stroke="none"/>
      <path d="M66.75 11.35 L71.0 65.45 27.95 63.6 21.55 10.05 66.75 11.35 M25.4 12.75 L31.0 60.05 68.75 61.7 65.05 13.9 25.4 12.75" fill="#363636" fill-rule="evenodd" stroke="none"/>
      <path d="M62.75 121.5 L67.4 121.5 81.4 168.75 83.75 169.15 81.9 170.9 75.4 170.5 62.75 121.5" fill="#1c1c1c" fill-rule="evenodd" stroke="none"/>
      <path d="M62.5 121.7 L69.75 127.45 73.75 144.95 Q71.75 142.95 70.5 143.2 69.7 143.35 69.4 144.65 L69.25 145.95 62.5 121.7" fill="#141414" fill-rule="evenodd" stroke="none"/>
      <path d="M67.75 138.2 L63.75 127.2 65.75 125.2 72.6 138.95 67.75 138.2" fill="#000000" fill-rule="evenodd" stroke="none"/>
      <path d="M79.25 162.45 L81.9 170.9 75.4 170.5 73.0 161.95 74.35 163.35 Q75.9 164.7 77.0 164.7 78.1 164.7 78.8 163.6 L79.25 162.45" fill="#141414" fill-rule="evenodd" stroke="none"/>
      <path d="M66.75 118.95 L27.75 181.45 17.5 180.2 18.1 178.5 25.7 179.1 62.25 117.95 66.75 118.95" fill="#404040" fill-rule="evenodd" stroke="none"/>
      <path d="M55.5 129.95 L58.9 124.15 Q62.45 118.25 63.25 117.85 L63.25 120.5 56.0 132.7 55.5 129.95" fill="#333333" fill-rule="evenodd" stroke="none"/>
      <path d="M59.0 124.2 L62.5 118.7 63.5 118.2 63.5 121.7 59.5 127.45 59.0 124.2" fill="#262626" fill-rule="evenodd" stroke="none"/>
      <path d="M24.1 13.3 L25.4 12.75 31.95 61.0 29.95 61.5 24.1 13.3" fill="#080808" fill-rule="evenodd" stroke="none"/>
      <path d="M66.75 11.35 L68.35 11.5 72.7 64.45 71.0 65.45 66.75 11.35" fill="#141414" fill-rule="evenodd" stroke="none"/>
      <path d="M68.35 11.5 L67.1 12.25 21.3 10.55 22.8 9.55 68.35 11.5" fill="#707070" fill-rule="evenodd" stroke="none"/>
      <path d="M29.95 61.5 L31.2 60.5 68.75 61.7 68.95 63.2 29.95 61.5" fill="#141414" fill-rule="evenodd" stroke="none"/>
      <path d="M65.55 21.75 L68.4 57.8 59.5 59.25 55.65 22.05 65.55 21.75" fill="#1f1f1f" fill-rule="evenodd" stroke="none"/>
      <path d="M59.1 23.8 L60.95 42.3 62.1 52.85 62.85 58.75 59.5 59.25 55.6 23.8 59.1 23.8" fill="#262626" fill-rule="evenodd" stroke="none"/>
      <path d="M64.8 40.4 Q64.4 34.0 63.1 27.75 61.95 22.3 61.4 22.05 L65.55 21.75 68.35 57.85 64.65 58.2 65.0 50.85 Q65.1 45.25 64.8 40.4" fill="#141414" fill-rule="evenodd" stroke="none"/>
      <path d="M65.55 21.75 L56.6 23.05 53.05 22.35 64.35 21.2 65.55 21.75" fill="#707070" fill-rule="evenodd" stroke="none"/>
      <path d="M55.8 22.55 L59.5 59.25 57.35 59.55 53.55 22.6 55.8 22.55" fill="#575757" fill-rule="evenodd" stroke="none"/>
      <path d="M64.95 26.35 L67.6 25.9 68.0 32.5 65.15 33.6 64.95 26.35" fill="#141414" fill-rule="evenodd" stroke="none"/>
      <path d="M66.85 46.85 L69.5 46.4 69.9 52.95 67.05 54.05 66.85 46.85" fill="#141414" fill-rule="evenodd" stroke="none"/>
      <path d="M65.45 27.0 L65.25 25.6 67.7 26.0 65.45 27.0" fill="#4f4f4f" fill-rule="evenodd" stroke="none"/>
      <path d="M67.35 47.5 L67.6 45.75 69.85 46.45 67.35 47.5" fill="#4f4f4f" fill-rule="evenodd" stroke="none"/>
      <path d="M3.5 59.1 L0.0 21.5 21.2 20.05 25.15 56.75 3.5 59.1" fill="#242424" fill-rule="evenodd" stroke="none"/>
      <path d="M3.5 59.1 L0.25 22.4 6.0 22.1 7.6 40.6 Q8.0 45.3 8.9 52.3 L9.75 58.35 3.5 59.1" fill="#2b2b2b" fill-rule="evenodd" stroke="none"/>
      <path d="M19.2 19.25 L21.2 20.05 0.0 21.5 0.5 20.65 19.2 19.25" fill="#707070" fill-rule="evenodd" stroke="none"/>
      <path d="M14.0 21.55 L21.25 20.75 25.15 56.75 17.25 57.75 17.3 51.7 Q17.25 44.65 16.85 39.5 16.3 31.3 14.0 21.55" fill="#1a1a1a" fill-rule="evenodd" stroke="none"/>
      <path d="M49.6 3.35 L56.65 11.8 29.95 11.2 20.7 2.15 49.6 3.35" fill="#1c1c1c" fill-rule="evenodd" stroke="none"/>
      <path d="M51.85 6.35 L56.65 11.8 28.65 10.5 23.85 5.55 29.15 6.75 Q35.1 8.0 38.4 7.95 43.65 7.9 51.85 6.35" fill="#0a0a0a" fill-rule="evenodd" stroke="none"/>
      <path d="M50.6 2.15 L49.6 3.35 20.7 2.15 21.1 0.65 50.6 2.15" fill="#707070" fill-rule="evenodd" stroke="none"/>
      <path d="M49.6 3.35 L50.6 2.15 57.65 10.3 56.65 11.8 49.6 3.35" fill="#141414" fill-rule="evenodd" stroke="none"/>
      <path d="M33.85 64.25 L63.3 66.0 47.7 81.4 16.4 78.6 33.85 64.25" fill="#454545" fill-rule="evenodd" stroke="none"/>
      <path d="M16.4 78.6 L47.7 81.4 47.7 82.9 16.9 80.35 16.4 78.6" fill="#262626" fill-rule="evenodd" stroke="none"/>
      <path d="M37.4 75.95 Q45.9 76.9 52.9 76.1 L47.15 80.9 16.4 78.6 21.4 74.6 26.2 74.9 37.4 75.95" fill="#4f4f4f" fill-rule="evenodd" stroke="none"/>
      <path d="M16.4 78.6 L17.15 77.85 48.15 80.4 47.15 80.9 16.4 78.6" fill="#7d7d7d" fill-rule="evenodd" stroke="none"/>
      <path d="M33.55 68.65 L28.35 69.0 33.85 64.25 63.3 66.0 58.1 71.05 Q51.85 69.1 44.35 68.65 39.65 68.35 33.55 68.65" fill="#3d3d3d" fill-rule="evenodd" stroke="none"/>
      <path d="M47.35 81.15 L63.3 66.0 63.25 68.5 47.7 82.9 47.35 81.15" fill="#141414" fill-rule="evenodd" stroke="none"/>
      <path d="M38.2 62.7 L43.95 62.9 41.25 65.7 36.2 65.2 38.2 62.7" fill="#262626" fill-rule="evenodd" stroke="none"/>
      <path d="M59.95 63.8 L57.25 66.55 52.25 66.1 54.2 63.6 59.95 63.8" fill="#262626" fill-rule="evenodd" stroke="none"/>
      <path d="M41.95 64.65 L43.95 62.9 44.45 64.9 41.95 64.65" fill="#141414" fill-rule="evenodd" stroke="none"/>
      <path d="M58.25 65.55 L59.95 63.8 60.5 66.05 58.25 65.55" fill="#141414" fill-rule="evenodd" stroke="none"/>
      <path d="M20.0 24.3 L26.0 23.8 26.45 30.55 20.35 31.5 20.0 24.3" fill="#141414" fill-rule="evenodd" stroke="none"/>
      <path d="M21.85 45.95 L27.85 45.45 28.65 52.0 22.2 53.15 21.85 45.95" fill="#141414" fill-rule="evenodd" stroke="none"/>
      <path d="M21.4 24.3 L21.65 23.3 23.15 23.05 26.15 23.8 21.4 24.3" fill="#595959" fill-rule="evenodd" stroke="none"/>
      <path d="M24.1 46.05 L23.8 44.3 26.05 44.3 27.85 45.45 24.1 46.05" fill="#595959" fill-rule="evenodd" stroke="none"/>
      <path d="M61.0 68.55 L69.0 68.45 69.05 77.95 61.05 78.05 61.0 68.55" fill="#141414" fill-rule="evenodd" stroke="none"/>
      <path d="M61.0 68.55 L67.7 68.5 67.8 78.0 61.05 78.05 61.0 68.55" fill="#262626" fill-rule="evenodd" stroke="none"/>
      <path d="M61.0 68.55 L65.7 68.5 65.8 78.0 61.05 78.05 61.0 68.55" fill="#404040" fill-rule="evenodd" stroke="none"/>
      <path d="M61.0 68.55 L63.95 68.5 64.05 78.0 61.05 78.05 61.0 68.55" fill="#4f4f4f" fill-rule="evenodd" stroke="none"/>
      <path d="M60.9 68.55 L62.85 68.5 62.9 78.0 60.95 78.05 60.9 68.55" fill="#2e2e2e" fill-rule="evenodd" stroke="none"/>
      <path d="M62.1 68.5 L63.1 68.5 63.2 78.0 62.15 78.0 62.1 68.5" fill="#404040" fill-rule="evenodd" stroke="none"/>
      <path d="M67.0 79.95 L63.25 79.95 63.25 77.7 67.0 77.7 67.0 79.95" fill="#1c1c1c" fill-rule="evenodd" stroke="none"/>
      <path d="M62.25 66.45 L66.75 66.45 66.75 68.2 62.25 68.2 62.25 66.45" fill="#1c1c1c" fill-rule="evenodd" stroke="none"/>
      <path d="M64.35 119.0 L65.6 123.75 34.5 176.95 27.0 181.7 64.35 119.0" fill="#1c1c1c" fill-rule="evenodd" stroke="none"/>
      <path d="M63.25 119.85 L65.25 125.7 58.0 136.45 53.75 137.95 63.25 119.85" fill="#000000" fill-rule="evenodd" stroke="none"/>
      <path d="M27.75 181.45 L34.5 169.7 34.15 171.0 Q33.95 172.25 34.75 171.95 36.0 171.45 38.25 170.2 L34.5 176.95 27.75 181.45" fill="#000000" fill-rule="evenodd" stroke="none"/>
      <path d="M72.6 138.95 L74.6 143.25 82.1 168.45 83.75 167.6 83.75 169.15 81.9 170.9 72.6 138.95" fill="#404040" fill-rule="evenodd" stroke="none"/>
      <path d="M82.1 168.45 L81.75 166.95 83.75 167.6 82.1 168.45" fill="#262626" fill-rule="evenodd" stroke="none"/>
      <path d="M18.1 178.5 L26.0 175.2 28.25 175.7 25.7 179.1 18.1 178.5" fill="#4d4d4d" fill-rule="evenodd" stroke="none"/>
      <path d="M99.95 180.2 L108.55 182.7 97.1 184.1 93.25 180.9 64.3 118.65 65.7 112.5 99.95 180.2" fill="#404040" fill-rule="evenodd" stroke="none"/>
      <path d="M64.45 117.65 Q64.9 117.8 79.1 149.35 L93.25 180.9 97.1 184.1 97.5 185.7 92.7 183.05 63.05 117.75 64.45 117.65" fill="#262626" fill-rule="evenodd" stroke="none"/>
      <path d="M97.5 185.7 L97.1 184.1 108.55 182.7 107.95 184.5 97.5 185.7" fill="#141414" fill-rule="evenodd" stroke="none"/>
      <path d="M64.2 117.95 L68.8 117.7 73.45 126.85 Q72.0 125.4 70.75 125.9 69.95 126.2 69.7 127.15 L69.6 128.1 64.2 117.95" fill="#262626" fill-rule="evenodd" stroke="none"/>
      <path d="M67.25 125.15 L64.35 119.0 69.05 117.95 71.75 123.45 70.75 122.75 Q69.5 122.15 68.25 122.45 67.0 122.75 67.0 124.0 L67.25 125.15" fill="#1c1c1c" fill-rule="evenodd" stroke="none"/>
      <path d="M63.25 120.5 L64.35 119.0 71.75 134.7 70.25 134.45 63.25 120.5" fill="#141414" fill-rule="evenodd" stroke="none"/>
      <path d="M89.25 171.75 L90.7 172.15 93.05 172.2 Q94.25 171.75 94.95 170.35 L99.95 180.2 104.25 181.5 99.25 182.2 Q98.8 182.2 97.9 183.15 L97.1 184.1 93.3 181.95 89.25 171.75" fill="#333333" fill-rule="evenodd" stroke="none"/>
      <path d="M91.15 176.75 L92.65 177.05 95.2 177.2 Q96.6 176.95 97.8 175.8 L99.95 180.2 93.75 182.45 91.15 176.75" fill="#262626" fill-rule="evenodd" stroke="none"/>
      <path d="M90.65 161.3 L90.45 162.3 Q90.05 163.4 89.0 163.7 L86.5 163.5 85.2 162.95 73.75 137.6 73.65 136.6 Q73.75 135.5 74.95 135.2 76.15 134.9 77.3 135.85 L78.25 136.85 90.65 161.3" fill="#4d4d4d" fill-rule="evenodd" stroke="none"/>
      <path d="M69.6 128.1 L69.6 127.2 Q69.8 126.25 70.75 125.9 L72.55 125.7 75.65 131.9 Q74.45 130.25 72.8 130.45 71.75 130.6 71.85 131.75 71.85 132.3 72.1 132.85 L69.6 128.1" fill="#333333" fill-rule="evenodd" stroke="none"/>
      <path d="M69.0 108.45 L69.05 117.95 61.05 118.05 61.0 108.55 69.0 108.45" fill="#141414" fill-rule="evenodd" stroke="none"/>
      <path d="M67.7 108.5 L67.8 118.0 61.05 118.05 61.0 108.55 67.7 108.5" fill="#262626" fill-rule="evenodd" stroke="none"/>
      <path d="M65.7 108.5 L65.8 118.0 61.05 118.05 61.0 108.55 65.7 108.5" fill="#404040" fill-rule="evenodd" stroke="none"/>
      <path d="M63.95 108.5 L64.05 118.0 61.05 118.05 61.0 108.55 63.95 108.5" fill="#4f4f4f" fill-rule="evenodd" stroke="none"/>
      <path d="M62.85 108.5 L62.9 118.0 60.95 118.05 60.9 108.55 62.85 108.5" fill="#2e2e2e" fill-rule="evenodd" stroke="none"/>
      <path d="M63.1 108.5 L63.2 118.0 62.15 118.0 62.1 108.5 63.1 108.5" fill="#404040" fill-rule="evenodd" stroke="none"/>
      <path d="M67.0 120.5 L63.25 120.5 63.25 117.85 67.0 117.85 67.0 120.5" fill="#1c1c1c" fill-rule="evenodd" stroke="none"/>
      <path d="M62.75 106.45 L67.25 106.45 67.25 108.2 62.75 108.2 62.75 106.45" fill="#1c1c1c" fill-rule="evenodd" stroke="none"/>
      <path d="M70.25 129.95 L73.9 138.55 Q78.0 148.1 80.5 152.95 84.5 160.7 93.75 182.45 L81.25 155.95 Q76.4 145.65 72.85 136.75 L70.25 129.95" fill="#707070" fill-rule="evenodd" stroke="none"/>
      <path d="M83.4 55.65 L79.5 69.65 70.0 71.25 67.25 70.55 67.65 69.45 75.5 67.2 78.4 58.65 76.3 39.7 81.75 38.15 83.4 55.65" fill="#1c1c1c" fill-rule="evenodd" stroke="none"/>
      <path d="M83.05 38.65 Q83.05 40.6 81.8 42.0 80.5 43.4 78.7 43.45 76.85 43.45 75.6 42.05 74.3 40.7 74.25 38.7 74.25 36.7 75.55 35.3 76.8 33.9 78.6 33.9 80.45 33.9 81.75 35.3 83.0 36.65 83.05 38.65" fill="#404040" fill-rule="evenodd" stroke="none"/>
      <path d="M77.5 41.95 L79.25 58.2 76.75 67.95 67.25 70.7 67.5 69.7 75.5 67.2 78.0 57.8 76.15 42.05 77.5 41.95" fill="#404040" fill-rule="evenodd" stroke="none"/>
      <path d="M77.5 41.95 L81.25 41.95 82.75 51.45 Q81.75 49.2 80.75 49.45 80.15 49.6 79.5 50.8 L79.0 51.95 77.5 41.95" fill="#000000" fill-rule="evenodd" stroke="none"/>
      <path d="M66.0 70.95 L76.75 67.95 79.5 69.65 70.0 71.25 66.0 70.95" fill="#000000" fill-rule="evenodd" stroke="none"/>
      <path d="M83.05 38.5 Q83.05 40.4 81.95 41.8 80.85 43.15 79.3 43.15 77.75 43.15 76.65 41.8 75.55 40.45 75.5 38.55 75.5 36.65 76.6 35.25 77.7 33.9 79.25 33.9 80.8 33.9 81.9 35.25 83.0 36.6 83.05 38.5" fill="#707070" fill-rule="evenodd" stroke="none"/>
      <path d="M83.05 38.5 Q83.05 40.4 82.05 41.8 81.0 43.15 79.55 43.15 78.1 43.15 77.05 41.8 76.05 40.45 76.0 38.55 76.0 36.65 77.0 35.25 78.05 33.9 79.5 33.9 80.95 33.9 82.0 35.25 83.0 36.6 83.05 38.5" fill="#141414" fill-rule="evenodd" stroke="none"/>
      <path d="M81.5 38.65 Q81.55 39.9 80.95 40.75 80.4 41.65 79.55 41.65 78.75 41.7 78.15 40.8 77.55 39.95 77.55 38.65 77.5 37.4 78.1 36.55 78.65 35.65 79.5 35.65 80.35 35.65 80.9 36.5 81.5 37.4 81.5 38.65" fill="#000000" fill-rule="evenodd" stroke="none"/>
      <path d="M80.4 38.65 Q80.4 39.9 80.0 40.75 79.6 41.65 79.0 41.65 78.4 41.7 78.0 40.8 77.55 39.95 77.55 38.65 77.5 37.4 77.95 36.55 78.35 35.65 78.95 35.65 79.55 35.65 80.0 36.55 80.4 37.4 80.4 38.65" fill="#262626" fill-rule="evenodd" stroke="none"/>
      <path d="M77.65 43.0 L78.0 46.3 76.7 46.5 76.15 42.05 76.95 42.0 77.65 43.0" fill="#292929" fill-rule="evenodd" stroke="none"/>
      <path d="M77.9 45.95 L80.0 57.8 76.75 67.95 79.25 58.2 77.9 45.95" fill="#707070" fill-rule="evenodd" stroke="none"/>
      <path d="M76.25 43.05 L74.9 41.3 75.75 40.95 77.65 43.0 76.25 43.05" fill="#292929" fill-rule="evenodd" stroke="none"/>
      <path d="M74.75 36.3 L74.95 35.75 75.9 34.7 Q76.9 34.05 78.6 33.9 L77.0 34.95 76.25 35.75 75.9 36.3 74.75 36.3" fill="#292929" fill-rule="evenodd" stroke="none"/>
      <path d="M66.15 71.05 L66.5 69.45 70.15 68.7 70.15 69.8 66.15 71.05" fill="#292929" fill-rule="evenodd" stroke="none"/>
      <path d="M24.65 18.3 L23.5 18.05 22.5 18.2 21.55 10.05 67.1 12.25 67.75 21.2 65.65 21.05 65.05 13.9 24.5 12.7 24.65 18.3" fill="#2e2e2e" fill-rule="evenodd" stroke="none"/>
      <path d="M27.15 56.8 L29.25 56.8 29.6 61.7 68.5 63.2 68.35 57.85 70.65 57.8 71.0 65.45 27.95 63.6 27.15 56.8" fill="#2e2e2e" fill-rule="evenodd" stroke="none"/>
      <path d="M27.75 61.7 L36.55 62.6 51.65 63.55 Q60.0 63.7 71.0 63.05 L71.15 65.55 27.95 63.6 27.75 61.7" fill="#262626" fill-rule="evenodd" stroke="none"/>
      <path d="M67.5 12.55 L67.65 14.55 43.5 12.05 Q39.4 11.85 30.25 12.05 L21.9 12.3 21.55 10.05 67.5 12.55" fill="#262626" fill-rule="evenodd" stroke="none"/>
      <path d="M29.95 61.5 L68.5 63.2 68.5 63.7 29.9 61.95 29.95 61.5" fill="#575757" fill-rule="evenodd" stroke="none"/>
      <path d="M29.95 61.5 L32.25 60.05 68.25 61.95 68.5 63.2 29.95 61.5" fill="#1c1c1c" fill-rule="evenodd" stroke="none"/>
      <path d="M27.35 173.1 Q34.6 173.1 39.7 174.6 44.85 176.1 44.85 178.3 44.85 180.4 39.7 181.9 34.7 183.45 27.35 183.45 19.95 183.45 14.95 181.9 9.8 180.4 9.8 178.3 9.8 176.1 14.95 174.6 20.05 173.1 27.35 173.1" fill="url(#gradient2)" fill-rule="evenodd" stroke="none"/>
      <path d="M94.5 178.3 Q101.55 178.3 106.75 179.7 111.85 181.05 111.85 183.05 111.85 185.0 106.75 186.4 101.75 187.75 94.5 187.75 87.4 187.75 82.2 186.4 77.15 185.0 77.15 183.05 77.15 181.05 82.2 179.7 87.55 178.3 94.5 178.3" fill="url(#gradient3)" fill-rule="evenodd" stroke="none"/>
      <path d="M76.65 165.0 Q82.0 165.0 85.75 166.2 89.5 167.5 89.5 169.25 89.5 170.95 85.75 172.2 81.85 173.45 76.65 173.45 71.55 173.45 67.55 172.2 63.8 170.95 63.8 169.25 63.8 167.5 67.55 166.2 71.4 165.0 76.65 165.0" fill="url(#gradient4)" fill-rule="evenodd" stroke="none"/>
    </g>
    <radialGradient cx="0" cy="0" gradientTransform="matrix(0.0286, 0.0, 0.0, -0.0492, 47.85, 34.15)" gradientUnits="userSpaceOnUse" id="gradient1" r="819.2" spreadMethod="pad">
      <stop offset="0.27450980392156865" stop-color="#130c0e" stop-opacity="0.0"/>
      <stop offset="0.6784313725490196" stop-color="#130c0e" stop-opacity="0.54901963"/>
      <stop offset="0.7607843137254902" stop-color="#130c0e" stop-opacity="0.9490196"/>
    </radialGradient>
    <radialGradient cx="0" cy="0" gradientTransform="matrix(0.0183, 0.0, 0.0, -0.0076, 29.2, 178.1)" gradientUnits="userSpaceOnUse" id="gradient2" r="819.2" spreadMethod="pad">
      <stop offset="0.10980392156862745" stop-color="#000000" stop-opacity="0.44705883"/>
      <stop offset="1.0" stop-color="#000000" stop-opacity="0.0"/>
    </radialGradient>
    <radialGradient cx="0" cy="0" gradientTransform="matrix(0.0181, 0.0, 0.0, -0.0069, 96.35, 182.85)" gradientUnits="userSpaceOnUse" id="gradient3" r="819.2" spreadMethod="pad">
      <stop offset="0.10980392156862745" stop-color="#000000" stop-opacity="0.44705883"/>
      <stop offset="1.0" stop-color="#000000" stop-opacity="0.0"/>
    </radialGradient>
    <radialGradient cx="0" cy="0" gradientTransform="matrix(0.0134, 0.0, 0.0, -0.0062, 78.05, 169.05)" gradientUnits="userSpaceOnUse" id="gradient4" r="819.2" spreadMethod="pad">
      <stop offset="0.10980392156862745" stop-color="#000000" stop-opacity="0.44705883"/>
      <stop offset="1.0" stop-color="#000000" stop-opacity="0.0"/>
    </radialGradient>
  </defs>
</svg>
