<?xml version="1.0" encoding="UTF-8" standalone="no"?>
<svg xmlns:xlink="http://www.w3.org/1999/xlink" height="50.55px" width="46.3px" xmlns="http://www.w3.org/2000/svg">
  <g transform="matrix(1.0, 0.0, 0.0, 1.0, 0.0, 0.0)">
    <use height="12.2" transform="matrix(1.0, 0.0, 0.0, 1.0, 31.9, 12.8)" width="9.6" xlink:href="#sprite0"/>
    <use height="12.6" transform="matrix(1.0, 0.0, 0.0, 1.0, 31.7, 12.6)" width="9.9" xlink:href="#sprite1"/>
    <use height="4.4" transform="matrix(1.0, 0.0, 0.0, 1.0, 37.25, 13.5)" width="3.3" xlink:href="#sprite2"/>
    <use height="1.1" transform="matrix(1.0, 0.0, 0.0, 1.0, 40.25, 19.0)" width="0.4" xlink:href="#sprite3"/>
    <use height="32.4" transform="matrix(1.0, 0.0, 0.0, 1.0, 20.0, 12.9)" width="20.9" xlink:href="#sprite4"/>
    <use height="19.8" transform="matrix(1.0, 0.0, 0.0, 1.0, 20.55, 24.5)" width="19.7" xlink:href="#sprite5"/>
    <use height="3.2" transform="matrix(1.0, 0.0, 0.0, 1.0, 21.55, 23.05)" width="18.0" xlink:href="#sprite6"/>
    <use height="24.05" transform="matrix(1.0, 0.0, 0.0, 1.0, 21.7, 20.75)" width="8.75" xlink:href="#sprite7"/>
    <use height="22.35" transform="matrix(1.0, 0.0, 0.0, 1.0, 35.9, 20.95)" width="3.3" xlink:href="#sprite8"/>
    <use height="32.8" transform="matrix(1.0, 0.0, 0.0, 1.0, 19.8, 12.7)" width="21.3" xlink:href="#sprite9"/>
    <use height="11.55" transform="matrix(1.0, 0.0, 0.0, 1.0, 19.75, 26.45)" width="21.3" xlink:href="#shape10"/>
    <use height="3.2" transform="matrix(1.0, 0.0, 0.0, 1.0, 22.15, 40.5)" width="16.5" xlink:href="#sprite10"/>
    <use height="1.1" transform="matrix(1.0, 0.0, 0.0, 1.0, 25.65, 19.05)" width="6.65" xlink:href="#sprite11"/>
    <use height="2.0" transform="matrix(1.0, 0.0, 0.0, 1.0, 27.5, 16.5)" width="2.35" xlink:href="#sprite12"/>
    <use height="2.1" transform="matrix(1.0, 0.0, 0.0, 1.0, 28.1, 14.8)" width="4.45" xlink:href="#sprite13"/>
    <use height="27.05" transform="matrix(1.0, 0.0, 0.0, 1.0, 19.9, 10.1)" width="17.5" xlink:href="#shape15"/>
    <use height="4.4" transform="matrix(1.0, 0.0, 0.0, 1.0, 28.65, 11.0)" width="0.95" xlink:href="#sprite14"/>
    <use height="3.4" transform="matrix(1.0, 0.0, 0.0, 1.0, 28.05, 7.5)" width="4.85" xlink:href="#shape17"/>
    <use height="12.35" transform="matrix(1.0, 0.0, 0.0, 1.0, 5.05, 17.4)" width="9.7" xlink:href="#sprite15"/>
    <use height="12.7" transform="matrix(1.0, 0.0, 0.0, 1.0, 4.9, 17.25)" width="10.05" xlink:href="#sprite16"/>
    <use height="4.5" transform="matrix(1.0, 0.0, 0.0, 1.0, 6.0, 18.1)" width="3.3" xlink:href="#sprite17"/>
    <use height="1.1" transform="matrix(1.0, 0.0, 0.0, 1.0, 5.9, 23.7)" width="0.4" xlink:href="#sprite18"/>
    <use height="32.75" transform="matrix(1.0, 0.0, 0.0, 1.0, 5.65, 17.55)" width="21.15" xlink:href="#sprite19"/>
    <use height="20.0" transform="matrix(1.0, 0.0, 0.0, 1.0, 6.35, 29.25)" width="19.9" xlink:href="#sprite20"/>
    <use height="3.25" transform="matrix(1.0, 0.0, 0.0, 1.0, 7.0, 27.8)" width="18.2" xlink:href="#sprite21"/>
    <use height="24.3" transform="matrix(1.0, 0.0, 0.0, 1.0, 7.35, 25.45)" width="8.85" xlink:href="#sprite22"/>
    <use height="26.4" transform="matrix(1.0, 0.0, 0.0, 1.0, 21.7, 25.65)" width="3.35" xlink:href="#sprite23"/>
    <use height="33.1" transform="matrix(1.0, 0.0, 0.0, 1.0, 5.45, 17.35)" width="21.5" xlink:href="#sprite24"/>
    <use height="11.65" transform="matrix(1.0, 0.0, 0.0, 1.0, 5.5, 31.25)" width="21.55" xlink:href="#shape27"/>
    <use height="3.25" transform="matrix(1.0, 0.0, 0.0, 1.0, 7.9, 45.4)" width="16.7" xlink:href="#sprite25"/>
    <use height="1.1" transform="matrix(1.0, 0.0, 0.0, 1.0, 11.35, 23.75)" width="6.7" xlink:href="#sprite26"/>
    <use height="2.0" transform="matrix(1.0, 0.0, 0.0, 1.0, 13.2, 21.2)" width="2.35" xlink:href="#sprite27"/>
    <use height="2.15" transform="matrix(1.0, 0.0, 0.0, 1.0, 14.1, 19.45)" width="4.5" xlink:href="#sprite28"/>
    <use height="27.35" transform="matrix(1.0, 0.0, 0.0, 1.0, 9.2, 14.7)" width="17.7" xlink:href="#shape30"/>
    <use height="4.45" transform="matrix(1.0, 0.0, 0.0, 1.0, 14.25, 15.85)" width="1.0" xlink:href="#sprite29"/>
    <use height="3.45" transform="matrix(1.0, 0.0, 0.0, 1.0, 13.7, 12.05)" width="4.95" xlink:href="#shape32"/>
  </g>
  <defs>
    <g id="sprite0" transform="matrix(1.0, 0.0, 0.0, 1.0, 0.0, -0.05)">
      <use height="12.2" transform="matrix(1.0, 0.0, 0.0, 1.0, 0.0, 0.05)" width="9.6" xlink:href="#shape0"/>
    </g>
    <g id="shape0" transform="matrix(1.0, 0.0, 0.0, 1.0, 0.0, -0.05)">
      <path d="M9.25 3.15 Q10.1 6.05 8.8 9.55 8.25 11.15 7.55 12.15 6.5 12.5 5.95 11.85 5.5 11.35 5.65 10.75 L6.8 8.55 Q7.55 7.0 7.5 5.7 7.45 3.4 6.05 2.65 4.55 1.85 2.3 3.25 1.65 3.65 1.2 4.25 0.35 3.55 0.0 2.3 0.95 1.35 1.5 1.05 3.25 -0.05 5.55 0.05 8.35 0.15 9.25 3.15" fill="url(#gradient0)" fill-rule="evenodd" stroke="none"/>
    </g>
    <radialGradient cx="0" cy="0" gradientTransform="matrix(-0.0067, 0.0, 0.0, -0.0067, 4.8, 6.15)" gradientUnits="userSpaceOnUse" id="gradient0" r="819.2" spreadMethod="pad">
      <stop offset="0.0" stop-color="#a16023"/>
      <stop offset="1.0" stop-color="#704517"/>
    </radialGradient>
    <g id="sprite1" transform="matrix(1.0, 0.0, 0.0, 1.0, 0.0, 0.0)">
      <use height="12.6" transform="matrix(1.0, 0.0, 0.0, 1.0, 0.0, 0.0)" width="9.9" xlink:href="#shape1"/>
    </g>
    <g id="shape1" transform="matrix(1.0, 0.0, 0.0, 1.0, 0.0, 0.0)">
      <path d="M7.55 5.85 Q7.5 4.4 6.85 3.55 6.2 2.7 5.05 2.7 4.0 2.7 2.6 3.55 L1.55 4.55 1.45 4.7 1.3 4.55 Q0.4 3.9 0.05 2.5 L0.0 2.45 0.05 2.35 1.55 1.0 Q3.4 -0.1 5.75 0.0 7.8 0.1 8.95 1.8 9.85 3.25 9.9 5.4 10.0 7.55 9.2 9.75 L7.9 12.4 7.85 12.45 7.8 12.45 7.1 12.6 Q6.4 12.6 5.95 12.05 5.5 11.4 5.65 10.8 L6.1 10.0 Q7.55 7.45 7.55 5.85 M9.6 5.45 Q9.5 3.35 8.65 2.0 7.55 0.45 5.7 0.35 2.2 0.2 0.4 2.5 0.7 3.55 1.4 4.15 L2.4 3.25 Q3.85 2.35 5.05 2.35 6.3 2.35 7.1 3.3 7.85 4.25 7.9 5.85 7.95 7.45 6.4 10.2 L6.0 10.95 Q5.9 11.4 6.2 11.85 6.6 12.25 7.1 12.25 L7.65 12.15 8.85 9.65 Q9.65 7.5 9.6 5.45" fill="#634120" fill-rule="evenodd" stroke="none"/>
    </g>
    <g id="sprite2" transform="matrix(1.0, 0.0, 0.0, 1.0, 0.0, 0.0)">
      <use height="4.4" transform="matrix(1.0, 0.0, 0.0, 1.0, 0.0, 0.0)" width="3.3" xlink:href="#shape2"/>
    </g>
    <g id="shape2" transform="matrix(1.0, 0.0, 0.0, 1.0, 0.0, 0.0)">
      <path d="M0.65 0.0 Q1.65 0.05 2.4 1.0 3.2 2.05 3.3 3.65 3.4 5.0 3.05 3.95 L2.35 1.9 Q1.85 0.9 0.45 0.25 L0.0 0.0 0.65 0.0" fill="#fcc676" fill-rule="evenodd" stroke="none"/>
    </g>
    <g id="sprite3" transform="matrix(1.0, 0.0, 0.0, 1.0, 0.05, 0.05)">
      <use height="1.1" transform="matrix(1.0, 0.0, 0.0, 1.0, -0.05, -0.05)" width="0.4" xlink:href="#shape3"/>
    </g>
    <g id="shape3" transform="matrix(1.0, 0.0, 0.0, 1.0, 0.0, 0.05)">
      <path d="M0.1 0.05 Q0.3 -0.4 0.4 1.05 -0.25 0.9 0.1 0.05" fill="#fcc676" fill-rule="evenodd" stroke="none"/>
    </g>
    <g id="sprite4" transform="matrix(1.0, 0.0, 0.0, 1.0, 0.0, 0.0)">
      <use height="32.4" transform="matrix(1.0, 0.0, 0.0, 1.0, 0.0, 0.0)" width="20.9" xlink:href="#shape4"/>
    </g>
    <g id="shape4" transform="matrix(1.0, 0.0, 0.0, 1.0, 0.0, 0.0)">
      <path d="M20.85 17.05 L20.85 27.95 20.9 28.4 Q20.9 30.1 17.85 31.25 14.8 32.4 10.45 32.4 6.1 32.4 3.1 31.25 0.05 30.1 0.05 28.4 L0.05 17.05 0.05 14.6 0.05 13.8 Q0.55 6.55 4.9 5.7 7.55 5.15 8.9 2.6 9.6 1.35 9.75 0.2 L10.45 0.0 11.15 0.2 Q11.3 1.35 12.0 2.6 13.35 5.15 16.0 5.7 20.3 6.55 20.8 13.8 L20.85 13.8 20.85 14.6 20.85 17.05" fill="url(#gradient1)" fill-rule="evenodd" stroke="none"/>
    </g>
    <radialGradient cx="0" cy="0" gradientTransform="matrix(0.0, 0.0244, 0.0244, 0.0, 6.0, 11.8)" gradientUnits="userSpaceOnUse" id="gradient1" r="819.2" spreadMethod="pad">
      <stop offset="0.0" stop-color="#a16023"/>
      <stop offset="1.0" stop-color="#472807"/>
    </radialGradient>
    <g id="sprite5" transform="matrix(1.0, 0.0, 0.0, 1.0, -0.05, 0.0)">
      <use height="19.8" transform="matrix(1.0, 0.0, 0.0, 1.0, 0.05, 0.0)" width="19.7" xlink:href="#shape5"/>
    </g>
    <g id="shape5" transform="matrix(1.0, 0.0, 0.0, 1.0, 0.0, 0.0)">
      <path d="M19.7 4.3 L19.7 16.75 Q19.25 17.6 17.75 18.4 14.75 20.0 9.45 19.8 4.9 19.6 2.05 18.3 0.6 17.65 0.1 17.0 L0.0 3.5 Q0.05 2.65 0.4 1.5 0.7 0.55 0.95 0.2 L1.0 0.2 Q1.1 0.85 3.7 1.3 L10.0 1.75 16.4 1.3 Q19.0 0.8 19.0 0.15 L18.95 0.0 19.05 0.0 Q19.7 1.4 19.7 4.3" fill="url(#gradient2)" fill-rule="evenodd" stroke="none"/>
    </g>
    <radialGradient cx="0" cy="0" gradientTransform="matrix(-1.0E-4, -0.0253, 0.0253, -1.0E-4, 10.75, 21.3)" gradientUnits="userSpaceOnUse" id="gradient2" r="819.2" spreadMethod="pad">
      <stop offset="0.0" stop-color="#db7f21"/>
      <stop offset="1.0" stop-color="#bd7626"/>
    </radialGradient>
    <g id="sprite6" transform="matrix(1.0, 0.0, 0.0, 1.0, 0.0, 0.0)">
      <use height="3.25" transform="matrix(0.9863, 0.0, 0.0, 0.9846, 0.0, 0.0)" width="18.25" xlink:href="#shape6"/>
    </g>
    <g id="shape6" transform="matrix(1.0, 0.0, 0.0, 1.0, 0.0, 0.0)">
      <path d="M18.25 1.6 Q18.25 2.3 15.55 2.75 L9.1 3.25 2.7 2.75 Q0.0 2.3 0.0 1.6 0.0 0.95 2.7 0.45 L9.1 0.0 15.55 0.45 Q18.25 0.95 18.25 1.6" fill="#f29f3f" fill-rule="evenodd" stroke="none"/>
    </g>
    <g id="sprite7" transform="matrix(1.0, 0.0, 0.0, 1.0, 0.05, 0.0)">
      <use height="24.05" transform="matrix(1.0, 0.0, 0.0, 1.0, -0.05, 0.0)" width="8.75" xlink:href="#shape7"/>
    </g>
    <g id="shape7" transform="matrix(1.0, 0.0, 0.0, 1.0, 0.05, 0.0)">
      <path d="M8.7 24.0 L8.2 24.05 Q3.0 24.05 0.1 22.4 -0.15 7.15 0.1 4.55 0.25 2.5 1.6 1.1 2.8 -0.15 3.85 0.0 5.7 0.1 6.3 0.9 7.5 2.4 7.95 3.4 8.55 4.75 8.5 6.45 L8.7 24.0" fill="url(#gradient3)" fill-rule="evenodd" stroke="none"/>
    </g>
    <linearGradient gradientTransform="matrix(0.0047, 0.0, 0.0, -0.0047, 2.9, 12.0)" gradientUnits="userSpaceOnUse" id="gradient3" spreadMethod="pad" x1="-819.2" x2="819.2">
      <stop offset="0.0" stop-color="#ffce9e"/>
      <stop offset="1.0" stop-color="#000000"/>
    </linearGradient>
    <g id="sprite8" transform="matrix(1.0, 0.0, 0.0, 1.0, 0.0, 0.0)">
      <use height="22.35" transform="matrix(1.0, 0.0, 0.0, 1.0, 0.0, 0.0)" width="3.3" xlink:href="#shape8"/>
    </g>
    <g id="shape8" transform="matrix(1.0, 0.0, 0.0, 1.0, 0.0, 0.0)">
      <path d="M1.15 0.35 Q2.85 1.85 3.15 5.35 3.35 7.2 3.15 10.15 L3.3 21.15 2.1 22.35 1.95 8.55 Q1.8 2.85 0.15 0.5 -0.2 0.0 0.3 0.0 0.75 -0.05 1.15 0.35" fill="url(#gradient4)" fill-rule="evenodd" stroke="none"/>
    </g>
    <linearGradient gradientTransform="matrix(0.0, 0.0098, 0.0098, 0.0, 1.65, 8.4)" gradientUnits="userSpaceOnUse" id="gradient4" spreadMethod="pad" x1="-819.2" x2="819.2">
      <stop offset="0.0" stop-color="#ffc185"/>
      <stop offset="1.0" stop-color="#000000"/>
    </linearGradient>
    <g id="sprite9" transform="matrix(1.0, 0.0, 0.0, 1.0, 0.0, 0.0)">
      <use height="32.8" transform="matrix(1.0, 0.0, 0.0, 1.0, 0.0, 0.0)" width="21.3" xlink:href="#shape9"/>
    </g>
    <g id="shape9" transform="matrix(1.0, 0.0, 0.0, 1.0, 0.0, 0.0)">
      <path d="M21.2 13.85 L21.25 13.85 21.25 28.1 21.3 28.6 Q21.3 30.35 18.25 31.6 15.15 32.8 10.65 32.8 6.2 32.8 3.1 31.6 0.05 30.35 0.05 28.6 L0.05 17.25 0.05 14.8 0.05 14.0 0.1 13.85 Q0.65 6.7 5.05 5.7 7.6 5.15 8.9 2.75 9.6 1.55 9.75 0.4 L9.75 0.3 10.65 0.0 11.5 0.3 11.55 0.4 Q11.7 1.55 12.35 2.75 13.7 5.15 16.25 5.7 20.6 6.7 21.2 13.85 M20.9 14.2 L20.85 14.05 Q20.3 6.95 16.15 6.05 13.65 5.55 12.25 3.3 11.4 1.9 11.2 0.55 L10.65 0.4 10.1 0.55 9.05 3.3 Q7.6 5.55 5.1 6.05 0.9 7.0 0.45 14.05 L0.4 14.15 0.4 14.8 0.4 17.25 0.4 28.05 0.5 28.05 0.4 28.6 Q0.4 30.15 3.45 31.3 6.5 32.45 10.65 32.45 14.85 32.45 17.9 31.3 20.95 30.2 20.95 28.6 L20.9 28.15 20.9 14.2" fill="#634120" fill-rule="evenodd" stroke="none"/>
    </g>
    <g id="shape10" transform="matrix(1.0, 0.0, 0.0, 1.0, -19.75, -26.45)">
      <path d="M41.05 26.45 L41.05 35.35 Q39.85 36.3 37.7 37.0 34.35 38.1 30.1 38.0 22.0 37.8 19.75 35.35 L19.75 27.1 19.8 27.1 19.85 26.55 Q22.2 28.1 30.0 28.25 L37.95 27.6 Q40.4 27.05 41.05 26.45" fill="url(#gradient5)" fill-rule="evenodd" stroke="none"/>
    </g>
    <linearGradient gradientTransform="matrix(0.013, 0.0, 0.0, -0.013, 30.45, 32.25)" gradientUnits="userSpaceOnUse" id="gradient5" spreadMethod="pad" x1="-819.2" x2="819.2">
      <stop offset="0.0" stop-color="#ffc978"/>
      <stop offset="1.0" stop-color="#b48445"/>
    </linearGradient>
    <g id="sprite10" transform="matrix(1.0, 0.0, 0.0, 1.0, 0.0, 0.0)">
      <use height="3.2" transform="matrix(1.0, 0.0, 0.0, 1.0, 0.0, 0.0)" width="16.5" xlink:href="#shape11"/>
    </g>
    <g id="shape11" transform="matrix(1.0, 0.0, 0.0, 1.0, 0.0, 0.0)">
      <path d="M15.75 0.6 Q17.5 1.45 15.15 2.4 L12.45 3.2 13.15 2.55 14.2 1.6 Q14.4 1.2 13.25 0.85 9.4 -0.2 0.0 0.5 L7.8 0.0 15.75 0.6" fill="#6e3e11" fill-rule="evenodd" stroke="none"/>
    </g>
    <g id="sprite11" transform="matrix(1.0, 0.0, 0.0, 1.0, -0.05, 0.0)">
      <use height="1.1" transform="matrix(0.9852, 0.0, 0.0, 1.0, 0.05, 0.0)" width="6.75" xlink:href="#shape12"/>
    </g>
    <g id="shape12" transform="matrix(1.0, 0.0, 0.0, 1.0, 0.0, 0.0)">
      <path d="M0.45 0.0 L2.15 0.35 6.75 0.95 4.8 1.1 0.95 0.5 0.05 0.15 Q-0.1 -0.05 0.45 0.0" fill="#fcc676" fill-rule="evenodd" stroke="none"/>
    </g>
    <g id="sprite12" transform="matrix(1.0, 0.0, 0.0, 1.0, 0.0, 0.0)">
      <use height="2.05" transform="matrix(0.9792, 0.0, 0.0, 0.9756, 0.001, 0.0)" width="2.4" xlink:href="#shape13"/>
    </g>
    <g id="shape13" transform="matrix(1.0, 0.0, 0.0, 1.0, 0.05, 0.0)">
      <path d="M1.7 0.0 Q2.65 0.2 2.25 1.05 L1.8 1.6 0.9 1.9 0.05 2.0 0.1 1.6 0.8 0.65 Q1.35 -0.05 1.7 0.0" fill="#fcc676" fill-rule="evenodd" stroke="none"/>
    </g>
    <g id="sprite13" transform="matrix(1.0, 0.0, 0.0, 1.0, 0.0, 0.05)">
      <use height="2.1" transform="matrix(1.0, 0.0, 0.0, 1.0, 0.0, -0.05)" width="4.45" xlink:href="#shape14"/>
    </g>
    <g id="shape14" transform="matrix(1.0, 0.0, 0.0, 1.0, 0.0, 0.05)">
      <path d="M0.6 0.25 L4.1 0.5 4.45 1.15 Q4.05 1.8 2.2 2.0 0.35 2.2 0.0 1.6 L0.6 0.25" fill="#634120" fill-rule="evenodd" stroke="none"/>
    </g>
    <g id="shape15" transform="matrix(1.0, 0.0, 0.0, 1.0, -19.9, -10.1)">
      <path d="M27.55 31.35 L28.5 29.85 Q29.2 28.9 29.6 29.2 29.65 29.85 28.6 31.1 27.25 32.7 27.0 33.25 L28.1 35.2 29.15 37.15 Q28.3 37.3 27.65 36.15 L26.65 34.05 Q26.25 34.25 25.5 35.7 L24.65 36.85 Q23.85 36.35 24.8 35.15 L26.1 33.45 24.7 30.95 Q23.85 29.25 24.5 29.05 24.9 29.2 25.6 30.95 26.25 32.65 26.6 32.65 L27.15 32.15 27.55 31.35" fill="#452d17" fill-rule="evenodd" stroke="none"/>
      <path d="M32.45 31.45 L33.95 33.15 34.4 32.7 36.2 30.15 36.6 29.7 37.0 29.25 37.4 29.3 37.15 29.8 34.45 33.55 36.7 36.15 Q36.95 36.7 36.2 36.9 L35.85 36.55 34.05 34.05 32.5 36.25 32.2 36.65 31.75 37.15 31.4 36.95 Q31.35 36.75 31.45 36.6 L32.4 35.3 32.8 34.55 33.35 33.7 32.8 32.85 31.9 31.85 31.0 30.9 Q30.6 30.4 30.7 29.95 31.1 29.85 31.3 30.15 L31.6 30.65 32.45 31.45" fill="#452d17" fill-rule="evenodd" stroke="none"/>
      <path d="M20.5 28.3 L20.95 30.0 Q21.2 31.55 21.35 31.55 L21.9 30.4 22.55 29.0 Q22.95 28.15 23.15 28.45 L22.5 30.2 21.5 32.15 22.3 35.7 Q21.85 35.85 21.6 34.75 L21.25 32.9 20.55 34.35 20.05 35.4 Q19.65 34.95 20.2 33.9 L21.0 32.35 20.45 30.05 Q20.15 28.5 20.5 28.3" fill="#452d17" fill-rule="evenodd" stroke="none"/>
      <path d="M28.25 10.35 L32.75 10.35 32.75 15.35 Q32.7 15.7 32.05 15.95 L30.5 16.2 28.95 15.95 28.25 15.35 28.25 10.35" fill="url(#gradient6)" fill-rule="evenodd" stroke="none"/>
      <path d="M28.25 10.35 L32.75 10.35 32.75 15.35 Q32.7 15.7 32.05 15.95 L30.5 16.2 28.95 15.95 28.25 15.35 28.25 10.35 Z" fill="none" stroke="#634120" stroke-linecap="butt" stroke-linejoin="miter" stroke-width="0.5"/>
    </g>
    <linearGradient gradientTransform="matrix(0.0029, 0.0, 0.0, -0.0029, 30.5, 13.3)" gradientUnits="userSpaceOnUse" id="gradient6" spreadMethod="pad" x1="-819.2" x2="819.2">
      <stop offset="0.0" stop-color="#a16e34"/>
      <stop offset="1.0" stop-color="#704a22"/>
    </linearGradient>
    <g id="sprite14" transform="matrix(1.0, 0.0, 0.0, 1.0, 0.0, 0.0)">
      <use height="4.4" transform="matrix(1.0, 0.0, 0.0, 1.0, 0.0, 0.0)" width="0.95" xlink:href="#shape16"/>
    </g>
    <g id="shape16" transform="matrix(1.0, 0.0, 0.0, 1.0, 0.0, 0.0)">
      <path d="M0.0 2.2 Q0.0 0.0 0.5 0.0 0.95 0.0 0.95 2.2 0.95 4.4 0.5 4.4 0.0 4.4 0.0 2.2" fill="#fcc676" fill-rule="evenodd" stroke="none"/>
    </g>
    <g id="shape17" transform="matrix(1.0, 0.0, 0.0, 1.0, -28.05, -7.5)">
      <path d="M28.05 10.25 Q28.05 10.0 28.75 9.85 L30.5 9.65 32.2 9.85 Q32.9 10.0 32.9 10.25 32.9 10.9 30.5 10.9 28.05 10.9 28.05 10.25" fill="#a17448" fill-rule="evenodd" stroke="none"/>
      <path d="M32.9 8.1 L32.45 10.2 30.75 10.55 29.0 10.4 28.45 10.25 28.1 8.1 30.65 8.35 32.9 8.1" fill="url(#gradient7)" fill-rule="evenodd" stroke="none"/>
      <path d="M28.1 8.15 L28.8 7.7 30.5 7.5 32.2 7.7 32.9 8.15 Q32.9 8.8 30.5 8.8 L28.8 8.6 28.1 8.15" fill="url(#gradient8)" fill-rule="evenodd" stroke="none"/>
      <path d="M32.0 9.15 Q32.15 8.9 32.25 9.1 L32.35 9.55 Q32.35 9.85 32.0 9.75 31.7 9.7 32.0 9.15" fill="url(#gradient9)" fill-rule="evenodd" stroke="none"/>
      <path d="M31.4 9.75 Q31.4 9.55 31.55 9.6 L31.7 9.9 31.55 10.15 Q31.35 10.15 31.4 9.75" fill="url(#gradient10)" fill-rule="evenodd" stroke="none"/>
      <path d="M29.4 9.35 Q29.55 9.15 29.75 9.45 L29.8 9.9 29.45 9.85 Q29.2 9.6 29.4 9.35" fill="url(#gradient11)" fill-rule="evenodd" stroke="none"/>
      <path d="M28.7 9.05 Q28.7 8.9 28.85 8.95 L29.0 9.25 28.85 9.4 28.7 9.05" fill="url(#gradient12)" fill-rule="evenodd" stroke="none"/>
      <path d="M28.6 9.6 Q28.65 9.45 28.8 9.65 L28.9 9.95 Q28.9 10.15 28.7 10.05 28.45 9.95 28.6 9.6" fill="url(#gradient13)" fill-rule="evenodd" stroke="none"/>
      <path d="M31.9 8.0 Q32.1 8.0 32.2 8.15 L31.95 8.25 31.6 8.1 Q31.55 7.95 31.9 8.0" fill="url(#gradient14)" fill-rule="evenodd" stroke="none"/>
      <path d="M31.3 7.8 L31.5 7.7 31.75 7.8 31.5 7.9 31.3 7.8" fill="url(#gradient15)" fill-rule="evenodd" stroke="none"/>
      <path d="M30.55 8.5 Q30.55 8.35 30.85 8.35 31.15 8.35 31.15 8.5 31.15 8.65 30.85 8.65 30.55 8.65 30.55 8.5" fill="url(#gradient16)" fill-rule="evenodd" stroke="none"/>
      <path d="M29.05 8.0 Q29.05 7.9 29.35 7.9 L29.65 8.0 29.35 8.1 29.05 8.0" fill="url(#gradient17)" fill-rule="evenodd" stroke="none"/>
      <path d="M30.25 8.0 L30.45 7.9 30.65 8.0 30.45 8.1 30.25 8.0" fill="url(#gradient18)" fill-rule="evenodd" stroke="none"/>
    </g>
    <linearGradient gradientTransform="matrix(0.0029, 0.0, 0.0, -0.0029, 30.5, 9.3)" gradientUnits="userSpaceOnUse" id="gradient7" spreadMethod="pad" x1="-819.2" x2="819.2">
      <stop offset="0.0" stop-color="#ebb64b"/>
      <stop offset="1.0" stop-color="#ab7f3e"/>
    </linearGradient>
    <linearGradient gradientTransform="matrix(-0.0052, 0.0014, 0.0014, 0.0052, 30.75, 8.1)" gradientUnits="userSpaceOnUse" id="gradient8" spreadMethod="pad" x1="-819.2" x2="819.2">
      <stop offset="0.0" stop-color="#ebb64b"/>
      <stop offset="1.0" stop-color="#ab7f3e"/>
    </linearGradient>
    <linearGradient gradientTransform="matrix(1.0E-4, 5.0E-4, -5.0E-4, 1.0E-4, 32.1, 9.5)" gradientUnits="userSpaceOnUse" id="gradient9" spreadMethod="pad" x1="-819.2" x2="819.2">
      <stop offset="0.0" stop-color="#ebb64b"/>
      <stop offset="1.0" stop-color="#ab7f3e"/>
    </linearGradient>
    <linearGradient gradientTransform="matrix(1.0E-4, 3.0E-4, -3.0E-4, 1.0E-4, 31.55, 9.95)" gradientUnits="userSpaceOnUse" id="gradient10" spreadMethod="pad" x1="-819.2" x2="819.2">
      <stop offset="0.0" stop-color="#ebb64b"/>
      <stop offset="1.0" stop-color="#ab7f3e"/>
    </linearGradient>
    <linearGradient gradientTransform="matrix(1.0E-4, 4.0E-4, -4.0E-4, 1.0E-4, 29.6, 9.7)" gradientUnits="userSpaceOnUse" id="gradient11" spreadMethod="pad" x1="-819.2" x2="819.2">
      <stop offset="0.0" stop-color="#ebb64b"/>
      <stop offset="1.0" stop-color="#ab7f3e"/>
    </linearGradient>
    <linearGradient gradientTransform="matrix(0.0, 3.0E-4, -3.0E-4, 0.0, 28.85, 9.2)" gradientUnits="userSpaceOnUse" id="gradient12" spreadMethod="pad" x1="-819.2" x2="819.2">
      <stop offset="0.0" stop-color="#ebb64b"/>
      <stop offset="1.0" stop-color="#ab7f3e"/>
    </linearGradient>
    <linearGradient gradientTransform="matrix(1.0E-4, 3.0E-4, -3.0E-4, 1.0E-4, 28.75, 9.85)" gradientUnits="userSpaceOnUse" id="gradient13" spreadMethod="pad" x1="-819.2" x2="819.2">
      <stop offset="0.0" stop-color="#ebb64b"/>
      <stop offset="1.0" stop-color="#ab7f3e"/>
    </linearGradient>
    <linearGradient gradientTransform="matrix(4.0E-4, 0.0, 0.0, 4.0E-4, 31.85, 8.1)" gradientUnits="userSpaceOnUse" id="gradient14" spreadMethod="pad" x1="-819.2" x2="819.2">
      <stop offset="0.0" stop-color="#ebb64b"/>
      <stop offset="1.0" stop-color="#ab7f3e"/>
    </linearGradient>
    <linearGradient gradientTransform="matrix(2.0E-4, 0.0, 0.0, 2.0E-4, 31.5, 7.8)" gradientUnits="userSpaceOnUse" id="gradient15" spreadMethod="pad" x1="-819.2" x2="819.2">
      <stop offset="0.0" stop-color="#ebb64b"/>
      <stop offset="1.0" stop-color="#ab7f3e"/>
    </linearGradient>
    <linearGradient gradientTransform="matrix(4.0E-4, 0.0, 0.0, 4.0E-4, 30.8, 8.5)" gradientUnits="userSpaceOnUse" id="gradient16" spreadMethod="pad" x1="-819.2" x2="819.2">
      <stop offset="0.0" stop-color="#ebb64b"/>
      <stop offset="1.0" stop-color="#ab7f3e"/>
    </linearGradient>
    <linearGradient gradientTransform="matrix(3.0E-4, 0.0, 0.0, 3.0E-4, 29.35, 8.0)" gradientUnits="userSpaceOnUse" id="gradient17" spreadMethod="pad" x1="-819.2" x2="819.2">
      <stop offset="0.0" stop-color="#ebb64b"/>
      <stop offset="1.0" stop-color="#ab7f3e"/>
    </linearGradient>
    <linearGradient gradientTransform="matrix(2.0E-4, 0.0, 0.0, 2.0E-4, 30.45, 8.0)" gradientUnits="userSpaceOnUse" id="gradient18" spreadMethod="pad" x1="-819.2" x2="819.2">
      <stop offset="0.0" stop-color="#ebb64b"/>
      <stop offset="1.0" stop-color="#ab7f3e"/>
    </linearGradient>
    <g id="sprite15" transform="matrix(1.0, 0.0, 0.0, 1.0, 0.05, 0.0)">
      <use height="12.35" transform="matrix(1.0, 0.0, 0.0, 1.0, -0.05, 0.0)" width="9.7" xlink:href="#shape18"/>
    </g>
    <g id="shape18" transform="matrix(1.0, 0.0, 0.0, 1.0, 0.05, 0.0)">
      <path d="M8.4 4.3 L7.3 3.3 Q5.1 1.9 3.55 2.7 2.1 3.45 2.05 5.75 2.0 7.05 2.75 8.6 L3.95 10.85 Q4.1 11.45 3.65 11.95 3.1 12.6 2.0 12.25 1.25 11.05 0.75 9.65 -0.6 6.1 0.3 3.2 1.2 0.15 4.05 0.0 6.4 -0.1 8.15 1.0 L9.65 2.3 Q9.3 3.55 8.4 4.3" fill="url(#gradient19)" fill-rule="evenodd" stroke="none"/>
    </g>
    <radialGradient cx="0" cy="0" gradientTransform="matrix(0.0068, 0.0, 0.0, -0.0068, 4.8, 6.2)" gradientUnits="userSpaceOnUse" id="gradient19" r="819.2" spreadMethod="pad">
      <stop offset="0.0" stop-color="#a16023"/>
      <stop offset="1.0" stop-color="#704517"/>
    </radialGradient>
    <g id="sprite16" transform="matrix(1.0, 0.0, 0.0, 1.0, 0.0, -0.05)">
      <use height="12.7" transform="matrix(1.0, 0.0, 0.0, 1.0, 0.0, 0.05)" width="10.05" xlink:href="#shape19"/>
    </g>
    <g id="shape19" transform="matrix(1.0, 0.0, 0.0, 1.0, 0.0, -0.05)">
      <path d="M10.0 2.55 Q9.7 3.7 8.75 4.65 L8.6 4.75 8.5 4.6 7.45 3.65 Q6.1 2.75 4.95 2.75 3.85 2.75 3.15 3.6 2.5 4.5 2.45 5.95 2.4 7.7 3.9 10.15 L4.3 10.95 Q4.5 11.6 4.05 12.2 3.6 12.75 2.9 12.75 L2.15 12.6 2.1 12.6 2.05 12.55 0.75 9.9 Q-0.05 7.65 0.0 5.45 0.1 3.3 1.05 1.85 2.2 0.15 4.25 0.05 6.65 -0.05 8.5 1.05 L10.0 2.4 10.05 2.5 10.0 2.55 M8.65 4.25 Q9.35 3.55 9.65 2.55 7.8 0.2 4.25 0.4 2.3 0.5 1.35 2.05 0.45 3.4 0.4 5.5 0.3 7.65 1.1 9.8 1.6 11.2 2.35 12.3 L2.9 12.4 Q3.35 12.4 3.75 12.0 L4.0 11.1 3.55 10.35 Q2.05 7.7 2.05 5.95 2.1 4.35 2.9 3.35 3.7 2.4 4.95 2.4 6.2 2.4 7.6 3.35 L8.65 4.25" fill="#634120" fill-rule="evenodd" stroke="none"/>
    </g>
    <g id="sprite17" transform="matrix(1.0, 0.0, 0.0, 1.0, 0.0, 0.05)">
      <use height="4.5" transform="matrix(1.0, 0.0, 0.0, 1.0, 0.0, -0.05)" width="3.3" xlink:href="#shape20"/>
    </g>
    <g id="shape20" transform="matrix(1.0, 0.0, 0.0, 1.0, 0.0, 0.05)">
      <path d="M3.3 0.0 Q3.1 0.15 2.85 0.25 1.5 0.9 0.95 1.9 L0.25 4.0 Q-0.1 5.05 0.0 3.7 0.1 2.05 0.9 1.0 1.7 0.05 2.7 0.0 L3.3 0.0" fill="#fcc676" fill-rule="evenodd" stroke="none"/>
    </g>
    <g id="sprite18" transform="matrix(1.0, 0.0, 0.0, 1.0, 0.0, 0.05)">
      <use height="1.1" transform="matrix(1.0, 0.0, 0.0, 1.0, 0.0, -0.05)" width="0.4" xlink:href="#shape21"/>
    </g>
    <g id="shape21" transform="matrix(1.0, 0.0, 0.0, 1.0, 0.0, 0.0)">
      <path d="M0.25 0.1 Q0.6 0.95 0.0 1.1 0.05 -0.35 0.25 0.1" fill="#fcc676" fill-rule="evenodd" stroke="none"/>
    </g>
    <g id="sprite19" transform="matrix(1.0, 0.0, 0.0, 1.0, 0.0, 0.0)">
      <use height="32.75" transform="matrix(1.0, 0.0, 0.0, 1.0, 0.0, 0.0)" width="21.15" xlink:href="#shape22"/>
    </g>
    <g id="shape22" transform="matrix(1.0, 0.0, 0.0, 1.0, 0.0, 0.0)">
      <path d="M21.1 14.7 L21.1 17.2 21.1 28.3 21.05 28.3 21.1 28.7 Q21.1 30.4 18.0 31.55 14.9 32.75 10.55 32.75 6.15 32.75 3.1 31.55 0.0 30.4 0.0 28.7 L0.05 28.25 0.05 17.2 0.05 14.7 0.05 13.95 0.1 13.95 Q0.6 6.6 4.95 5.75 7.65 5.2 9.0 2.65 9.7 1.35 9.85 0.2 L10.55 0.0 11.3 0.2 Q11.45 1.35 12.15 2.65 13.5 5.2 16.2 5.75 20.55 6.6 21.05 13.95 L21.1 13.95 21.1 14.7" fill="url(#gradient20)" fill-rule="evenodd" stroke="none"/>
    </g>
    <radialGradient cx="0" cy="0" gradientTransform="matrix(3.0E-4, 0.0263, 0.0263, -3.0E-4, 7.3, 13.2)" gradientUnits="userSpaceOnUse" id="gradient20" r="819.2" spreadMethod="pad">
      <stop offset="0.0" stop-color="#a16023"/>
      <stop offset="1.0" stop-color="#472807"/>
    </radialGradient>
    <g id="sprite20" transform="matrix(1.0, 0.0, 0.0, 1.0, 0.0, 0.0)">
      <use height="20.0" transform="matrix(1.0, 0.0, 0.0, 1.0, 0.0, 0.0)" width="19.9" xlink:href="#shape23"/>
    </g>
    <g id="shape23" transform="matrix(1.0, 0.0, 0.0, 1.0, 0.0, 0.0)">
      <path d="M16.15 1.35 Q18.8 0.9 18.85 0.2 L18.9 0.25 19.45 1.55 19.9 3.55 19.75 17.2 Q19.25 17.85 17.8 18.5 14.95 19.8 10.3 20.0 4.95 20.2 1.95 18.6 0.45 17.8 0.0 16.95 L0.0 4.4 Q0.0 1.45 0.65 0.0 L0.7 0.0 0.65 0.15 Q0.65 0.85 3.35 1.3 L9.75 1.8 16.15 1.35" fill="url(#gradient21)" fill-rule="evenodd" stroke="none"/>
    </g>
    <radialGradient cx="0" cy="0" gradientTransform="matrix(1.0E-4, -0.0255, -0.0255, -1.0E-4, 9.0, 21.55)" gradientUnits="userSpaceOnUse" id="gradient21" r="819.2" spreadMethod="pad">
      <stop offset="0.0" stop-color="#db7f21"/>
      <stop offset="1.0" stop-color="#bd7626"/>
    </radialGradient>
    <g id="sprite21" transform="matrix(1.0, 0.0, 0.0, 1.0, 0.0, 0.0)">
      <use height="3.25" transform="matrix(0.9973, 0.0, 0.0, 1.0, 0.0, 0.0)" width="18.25" xlink:href="#shape6"/>
    </g>
    <g id="sprite22" transform="matrix(1.0, 0.0, 0.0, 1.0, 0.05, 0.0)">
      <use height="24.3" transform="matrix(1.0, 0.0, 0.0, 1.0, -0.05, 0.0)" width="8.85" xlink:href="#shape24"/>
    </g>
    <g id="shape24" transform="matrix(1.0, 0.0, 0.0, 1.0, 0.05, 0.0)">
      <path d="M8.8 24.3 L8.3 24.3 Q3.05 24.3 0.1 22.65 -0.15 7.25 0.1 4.6 0.25 2.55 1.65 1.15 2.8 -0.1 3.9 0.0 L5.25 0.2 Q5.95 0.4 6.4 0.95 L8.05 3.45 Q8.65 4.8 8.6 6.55 L8.8 24.3" fill="url(#gradient22)" fill-rule="evenodd" stroke="none"/>
    </g>
    <linearGradient gradientTransform="matrix(0.0047, 0.0, 0.0, -0.0047, 2.95, 12.15)" gradientUnits="userSpaceOnUse" id="gradient22" spreadMethod="pad" x1="-819.2" x2="819.2">
      <stop offset="0.0" stop-color="#ffce9e"/>
      <stop offset="1.0" stop-color="#000000"/>
    </linearGradient>
    <g id="sprite23" transform="matrix(1.0, 0.0, 0.0, 1.0, 0.0, 0.0)">
      <use height="26.4" transform="matrix(1.0, 0.0, 0.0, 1.0, 0.0, 0.0)" width="3.35" xlink:href="#shape25"/>
    </g>
    <g id="shape25" transform="matrix(1.0, 0.0, 0.0, 1.0, 0.0, 0.0)">
      <path d="M1.15 0.4 Q2.9 2.25 3.2 6.3 L3.15 12.0 3.35 25.0 2.15 26.4 1.95 10.1 Q1.8 3.3 0.15 0.6 -0.2 0.05 0.3 0.0 0.75 -0.05 1.15 0.4" fill="url(#gradient23)" fill-rule="evenodd" stroke="none"/>
    </g>
    <linearGradient gradientTransform="matrix(0.0, 0.0116, 0.0116, 0.0, 1.65, 9.95)" gradientUnits="userSpaceOnUse" id="gradient23" spreadMethod="pad" x1="-819.2" x2="819.2">
      <stop offset="0.0" stop-color="#ffc185"/>
      <stop offset="1.0" stop-color="#000000"/>
    </linearGradient>
    <g id="sprite24" transform="matrix(1.0, 0.0, 0.0, 1.0, 0.0, 0.0)">
      <use height="33.1" transform="matrix(1.0, 0.0, 0.0, 1.0, 0.0, 0.0)" width="21.5" xlink:href="#shape26"/>
    </g>
    <g id="shape26" transform="matrix(1.0, 0.0, 0.0, 1.0, 0.0, 0.0)">
      <path d="M21.5 14.15 L21.45 28.7 21.5 28.9 Q21.5 30.65 18.4 31.9 15.25 33.1 10.75 33.1 6.2 33.1 3.1 31.9 0.0 30.65 0.0 28.9 L0.05 28.4 0.05 13.95 0.1 13.95 Q0.7 6.75 5.1 5.75 7.7 5.2 9.05 2.75 L9.9 0.4 9.9 0.25 10.75 0.0 11.65 0.25 11.65 0.4 Q11.8 1.55 12.5 2.75 13.85 5.2 16.45 5.75 20.85 6.75 21.4 13.95 L21.45 13.95 21.5 14.15 M21.1 14.15 Q20.55 7.0 16.35 6.1 13.8 5.6 12.4 3.3 11.55 1.9 11.35 0.55 L10.75 0.35 10.2 0.55 Q10.0 1.9 9.15 3.3 7.7 5.6 5.2 6.1 1.0 7.0 0.45 14.15 L0.45 14.9 0.45 17.4 0.45 28.45 0.35 28.9 Q0.35 30.5 3.45 31.6 6.5 32.75 10.75 32.75 14.95 32.75 18.05 31.6 21.1 30.45 21.1 28.9 L21.1 28.55 21.0 28.35 21.1 28.35 21.1 17.4 21.1 14.9 21.1 14.15" fill="#634120" fill-rule="evenodd" stroke="none"/>
    </g>
    <g id="shape27" transform="matrix(1.0, 0.0, 0.0, 1.0, -5.5, -31.25)">
      <path d="M26.9 31.3 L26.95 31.9 27.0 31.9 27.0 32.65 27.0 35.15 27.0 40.25 Q24.6 42.65 16.6 42.9 12.3 43.0 8.9 41.9 6.8 41.2 5.5 40.25 L5.5 31.25 Q6.2 31.85 8.65 32.4 L16.65 33.05 Q24.45 32.9 26.9 31.3" fill="url(#gradient24)" fill-rule="evenodd" stroke="none"/>
    </g>
    <linearGradient gradientTransform="matrix(0.0131, 0.0, 0.0, -0.0131, 16.25, 37.05)" gradientUnits="userSpaceOnUse" id="gradient24" spreadMethod="pad" x1="-819.2" x2="819.2">
      <stop offset="0.0" stop-color="#ffc978"/>
      <stop offset="1.0" stop-color="#b48445"/>
    </linearGradient>
    <g id="sprite25" transform="matrix(1.0, 0.0, 0.0, 1.0, 0.05, 0.0)">
      <use height="3.25" transform="matrix(1.003, 0.0, 0.0, 1.0, -0.05, 0.0)" width="16.65" xlink:href="#shape28"/>
    </g>
    <g id="shape28" transform="matrix(1.0, 0.0, 0.0, 1.0, 0.0, 0.0)">
      <path d="M1.35 2.45 Q-1.05 1.5 0.75 0.6 L8.8 0.0 16.65 0.55 Q7.15 -0.2 3.25 0.9 2.1 1.25 2.35 1.65 L3.4 2.6 4.1 3.25 Q2.55 2.95 1.35 2.45" fill="#6e3e11" fill-rule="evenodd" stroke="none"/>
    </g>
    <g id="sprite26" transform="matrix(1.0, 0.0, 0.0, 1.0, -0.05, 0.0)">
      <use height="1.1" transform="matrix(0.9926, 0.0, 0.0, 1.0, 0.05, 0.0)" width="6.75" xlink:href="#shape12"/>
    </g>
    <g id="sprite27" transform="matrix(1.0, 0.0, 0.0, 1.0, 0.05, 0.0)">
      <use height="2.05" transform="matrix(0.9792, 0.0, 0.0, 0.9756, -0.049, 0.0)" width="2.4" xlink:href="#shape13"/>
    </g>
    <g id="sprite28" transform="matrix(1.0, 0.0, 0.0, 1.0, 0.0, 0.05)">
      <use height="2.15" transform="matrix(1.0, 0.0, 0.0, 1.0, 0.0, -0.05)" width="4.5" xlink:href="#shape29"/>
    </g>
    <g id="shape29" transform="matrix(1.0, 0.0, 0.0, 1.0, 0.0, 0.05)">
      <path d="M3.85 0.25 Q4.0 1.0 4.5 1.6 4.15 2.25 2.3 2.05 0.4 1.8 0.0 1.15 L0.35 0.55 Q3.7 -0.45 3.85 0.25" fill="#634120" fill-rule="evenodd" stroke="none"/>
    </g>
    <g id="shape30" transform="matrix(1.0, 0.0, 0.0, 1.0, -9.2, -14.7)">
      <path d="M22.05 35.8 L20.6 38.3 21.95 40.05 Q22.85 41.25 22.05 41.75 21.9 41.85 21.25 40.55 L20.1 38.9 19.05 41.0 Q18.35 42.2 17.5 42.05 L18.6 40.1 19.7 38.1 18.1 35.95 Q17.0 34.7 17.05 34.0 17.45 33.7 18.15 34.65 L19.15 36.15 19.55 36.95 20.1 37.45 Q20.45 37.45 21.15 35.75 21.85 34.0 22.25 33.85 22.9 34.05 22.05 35.8" fill="#452d17" fill-rule="evenodd" stroke="none"/>
      <path d="M15.05 35.45 L15.35 34.95 Q15.55 34.65 15.95 34.8 16.05 35.25 15.65 35.7 L14.75 36.7 13.8 37.7 Q13.25 38.45 13.25 38.55 L13.8 39.4 15.2 41.5 15.3 41.8 Q15.25 42.05 14.9 42.05 L14.6 41.85 14.45 41.55 14.15 41.1 12.6 38.9 10.75 41.45 10.4 41.75 Q10.0 41.65 9.9 41.4 9.75 41.2 9.9 41.05 L12.15 38.4 9.45 34.6 9.2 34.1 9.3 34.05 9.55 34.05 10.0 34.5 10.4 34.95 12.25 37.55 12.7 38.0 14.2 36.25 15.05 35.45" fill="#452d17" fill-rule="evenodd" stroke="none"/>
      <path d="M24.25 33.8 L24.85 35.2 25.15 35.95 25.4 36.4 Q25.6 36.4 25.85 34.8 26.05 33.2 26.3 33.1 26.65 33.3 26.3 34.85 L25.75 37.15 26.55 38.7 Q27.1 39.8 26.75 40.25 L26.25 39.2 25.5 37.7 25.15 39.6 Q24.9 40.75 24.45 40.6 L25.25 36.95 24.3 35.0 23.6 33.25 Q23.8 32.95 24.25 33.8" fill="#452d17" fill-rule="evenodd" stroke="none"/>
      <path d="M18.45 14.95 L18.45 20.0 17.75 20.65 16.15 20.9 14.6 20.65 Q13.95 20.4 13.9 20.0 L13.9 14.95 18.45 14.95" fill="url(#gradient25)" fill-rule="evenodd" stroke="none"/>
      <path d="M18.45 14.95 L13.9 14.95 13.9 20.0 Q13.95 20.4 14.6 20.65 L16.15 20.9 17.75 20.65 18.45 20.0 18.45 14.95 Z" fill="none" stroke="#634120" stroke-linecap="butt" stroke-linejoin="miter" stroke-width="0.5"/>
    </g>
    <linearGradient gradientTransform="matrix(0.0028, 0.0, 0.0, -0.0028, 16.15, 17.9)" gradientUnits="userSpaceOnUse" id="gradient25" spreadMethod="pad" x1="-819.2" x2="819.2">
      <stop offset="0.0" stop-color="#a16e34"/>
      <stop offset="1.0" stop-color="#704a22"/>
    </linearGradient>
    <g id="sprite29" transform="matrix(1.0, 0.0, 0.0, 1.0, 0.0, 0.0)">
      <use height="4.45" transform="matrix(1.0, 0.0, 0.0, 1.0, 0.0, 0.0)" width="1.0" xlink:href="#shape31"/>
    </g>
    <g id="shape31" transform="matrix(1.0, 0.0, 0.0, 1.0, 0.0, 0.0)">
      <path d="M1.0 2.25 L0.85 3.8 0.5 4.45 Q0.3 4.45 0.15 3.8 0.0 3.15 0.0 2.25 0.0 1.35 0.15 0.65 0.3 0.0 0.5 0.0 1.0 0.0 1.0 2.25" fill="#fcc676" fill-rule="evenodd" stroke="none"/>
    </g>
    <g id="shape32" transform="matrix(1.0, 0.0, 0.0, 1.0, -13.7, -12.05)">
      <path d="M18.65 14.85 Q18.65 15.5 16.15 15.5 L14.4 15.3 13.7 14.85 Q13.7 14.25 16.15 14.25 18.65 14.25 18.65 14.85" fill="#a17448" fill-rule="evenodd" stroke="none"/>
      <path d="M15.9 15.15 L14.7 15.0 14.2 14.8 13.75 12.65 14.25 12.85 16.0 12.95 18.55 12.65 18.25 14.55 18.25 14.85 15.9 15.15" fill="url(#gradient26)" fill-rule="evenodd" stroke="none"/>
      <path d="M18.55 12.7 Q18.55 13.35 16.15 13.35 L14.45 13.15 Q13.75 12.95 13.75 12.7 13.75 12.45 14.45 12.25 L16.15 12.05 17.85 12.25 Q18.55 12.45 18.55 12.7" fill="url(#gradient27)" fill-rule="evenodd" stroke="none"/>
      <path d="M14.65 13.75 Q14.95 14.3 14.65 14.35 14.3 14.45 14.3 14.15 L14.4 13.7 14.65 13.75" fill="url(#gradient28)" fill-rule="evenodd" stroke="none"/>
      <path d="M15.25 14.35 L15.1 14.75 14.95 14.5 15.1 14.2 15.25 14.35" fill="url(#gradient29)" fill-rule="evenodd" stroke="none"/>
      <path d="M17.25 13.95 Q17.45 14.2 17.25 14.45 17.0 14.7 16.9 14.45 16.75 14.25 16.95 14.0 L17.25 13.95" fill="url(#gradient30)" fill-rule="evenodd" stroke="none"/>
      <path d="M18.0 13.65 L17.85 13.95 Q17.65 14.05 17.65 13.85 L17.85 13.55 Q17.95 13.45 18.0 13.65" fill="url(#gradient31)" fill-rule="evenodd" stroke="none"/>
      <path d="M18.1 14.2 Q18.25 14.55 18.0 14.65 17.75 14.75 17.75 14.55 L17.9 14.25 18.1 14.2" fill="url(#gradient32)" fill-rule="evenodd" stroke="none"/>
      <path d="M14.75 12.55 Q15.1 12.55 15.05 12.7 L14.65 12.8 Q14.35 12.8 14.45 12.7 14.55 12.55 14.75 12.55" fill="url(#gradient33)" fill-rule="evenodd" stroke="none"/>
      <path d="M15.4 12.4 L15.15 12.5 14.9 12.4 15.15 12.3 15.4 12.4" fill="url(#gradient34)" fill-rule="evenodd" stroke="none"/>
      <path d="M16.15 13.1 Q16.15 13.25 15.8 13.25 15.5 13.25 15.5 13.1 15.5 12.95 15.8 12.95 16.15 12.95 16.15 13.1" fill="url(#gradient35)" fill-rule="evenodd" stroke="none"/>
      <path d="M17.55 12.95 L17.3 13.05 17.1 12.95 17.3 12.85 17.55 12.95" fill="url(#gradient36)" fill-rule="evenodd" stroke="none"/>
      <path d="M17.6 12.55 L17.3 12.7 Q17.0 12.7 17.0 12.55 L17.3 12.45 17.6 12.55" fill="url(#gradient37)" fill-rule="evenodd" stroke="none"/>
      <path d="M16.4 12.55 L16.2 12.65 16.05 12.55 Q16.05 12.45 16.2 12.45 L16.4 12.55" fill="url(#gradient38)" fill-rule="evenodd" stroke="none"/>
    </g>
    <linearGradient gradientTransform="matrix(0.0029, 0.0, 0.0, -0.0029, 16.15, 13.9)" gradientUnits="userSpaceOnUse" id="gradient26" spreadMethod="pad" x1="-819.2" x2="819.2">
      <stop offset="0.0" stop-color="#ebb64b"/>
      <stop offset="1.0" stop-color="#ab7f3e"/>
    </linearGradient>
    <linearGradient gradientTransform="matrix(-0.0041, 6.0E-4, 6.0E-4, 0.0041, 15.7, 12.8)" gradientUnits="userSpaceOnUse" id="gradient27" spreadMethod="pad" x1="-819.2" x2="819.2">
      <stop offset="0.0" stop-color="#ebb64b"/>
      <stop offset="1.0" stop-color="#ab7f3e"/>
    </linearGradient>
    <linearGradient gradientTransform="matrix(-1.0E-4, -5.0E-4, -5.0E-4, 1.0E-4, 14.55, 14.05)" gradientUnits="userSpaceOnUse" id="gradient28" spreadMethod="pad" x1="-819.2" x2="819.2">
      <stop offset="0.0" stop-color="#ebb64b"/>
      <stop offset="1.0" stop-color="#ab7f3e"/>
    </linearGradient>
    <linearGradient gradientTransform="matrix(-1.0E-4, -3.0E-4, -3.0E-4, 1.0E-4, 15.1, 14.55)" gradientUnits="userSpaceOnUse" id="gradient29" spreadMethod="pad" x1="-819.2" x2="819.2">
      <stop offset="0.0" stop-color="#ebb64b"/>
      <stop offset="1.0" stop-color="#ab7f3e"/>
    </linearGradient>
    <linearGradient gradientTransform="matrix(-1.0E-4, -4.0E-4, -4.0E-4, 1.0E-4, 17.1, 14.3)" gradientUnits="userSpaceOnUse" id="gradient30" spreadMethod="pad" x1="-819.2" x2="819.2">
      <stop offset="0.0" stop-color="#ebb64b"/>
      <stop offset="1.0" stop-color="#ab7f3e"/>
    </linearGradient>
    <linearGradient gradientTransform="matrix(0.0, -3.0E-4, -3.0E-4, 0.0, 17.85, 13.8)" gradientUnits="userSpaceOnUse" id="gradient31" spreadMethod="pad" x1="-819.2" x2="819.2">
      <stop offset="0.0" stop-color="#ebb64b"/>
      <stop offset="1.0" stop-color="#ab7f3e"/>
    </linearGradient>
    <linearGradient gradientTransform="matrix(-1.0E-4, -3.0E-4, -3.0E-4, 1.0E-4, 17.95, 14.45)" gradientUnits="userSpaceOnUse" id="gradient32" spreadMethod="pad" x1="-819.2" x2="819.2">
      <stop offset="0.0" stop-color="#ebb64b"/>
      <stop offset="1.0" stop-color="#ab7f3e"/>
    </linearGradient>
    <linearGradient gradientTransform="matrix(-4.0E-4, 0.0, 0.0, 4.0E-4, 14.8, 12.7)" gradientUnits="userSpaceOnUse" id="gradient33" spreadMethod="pad" x1="-819.2" x2="819.2">
      <stop offset="0.0" stop-color="#ebb64b"/>
      <stop offset="1.0" stop-color="#ab7f3e"/>
    </linearGradient>
    <linearGradient gradientTransform="matrix(-2.0E-4, 0.0, 0.0, 2.0E-4, 15.15, 12.4)" gradientUnits="userSpaceOnUse" id="gradient34" spreadMethod="pad" x1="-819.2" x2="819.2">
      <stop offset="0.0" stop-color="#ebb64b"/>
      <stop offset="1.0" stop-color="#ab7f3e"/>
    </linearGradient>
    <linearGradient gradientTransform="matrix(-4.0E-4, 0.0, 0.0, 4.0E-4, 15.85, 13.1)" gradientUnits="userSpaceOnUse" id="gradient35" spreadMethod="pad" x1="-819.2" x2="819.2">
      <stop offset="0.0" stop-color="#ebb64b"/>
      <stop offset="1.0" stop-color="#ab7f3e"/>
    </linearGradient>
    <linearGradient gradientTransform="matrix(-2.0E-4, 0.0, 0.0, 2.0E-4, 17.35, 12.95)" gradientUnits="userSpaceOnUse" id="gradient36" spreadMethod="pad" x1="-819.2" x2="819.2">
      <stop offset="0.0" stop-color="#ebb64b"/>
      <stop offset="1.0" stop-color="#ab7f3e"/>
    </linearGradient>
    <linearGradient gradientTransform="matrix(-3.0E-4, 0.0, 0.0, 3.0E-4, 17.35, 12.55)" gradientUnits="userSpaceOnUse" id="gradient37" spreadMethod="pad" x1="-819.2" x2="819.2">
      <stop offset="0.0" stop-color="#ebb64b"/>
      <stop offset="1.0" stop-color="#ab7f3e"/>
    </linearGradient>
    <linearGradient gradientTransform="matrix(-2.0E-4, 0.0, 0.0, 2.0E-4, 16.25, 12.55)" gradientUnits="userSpaceOnUse" id="gradient38" spreadMethod="pad" x1="-819.2" x2="819.2">
      <stop offset="0.0" stop-color="#ebb64b"/>
      <stop offset="1.0" stop-color="#ab7f3e"/>
    </linearGradient>
  </defs>
</svg>
