<?xml version="1.0" encoding="UTF-8" standalone="no"?>
<svg xmlns:xlink="http://www.w3.org/1999/xlink" height="66.6px" width="210.95px" xmlns="http://www.w3.org/2000/svg">
  <g transform="matrix(1.0, 0.0, 0.0, 1.0, 0.0, 0.0)">
    <use height="92.4" transform="matrix(0.758, -0.0059, 0.0, 0.7033, -0.0213, 32.0928)" width="278.35" xlink:href="#sprite0"/>
    <use height="0.0" id="price_tag_pt" transform="matrix(1.0, 0.0, 0.0, 1.0, 105.5, 93.35)" width="0.0" xlink:href="#sprite1"/>
  </g>
  <defs>
    <g id="sprite0" transform="matrix(1.0, 0.0, 0.0, 1.0, 7.35, 3.2)">
      <use height="92.4" transform="matrix(1.0, 0.0, 0.0, 1.0, -7.35, -3.2)" width="278.35" xlink:href="#shape0"/>
    </g>
    <g id="shape0" transform="matrix(1.0, 0.0, 0.0, 1.0, 7.35, 3.2)">
      <path d="M271.0 46.0 Q271.0 63.9 230.25 76.6 189.45 89.2 131.85 89.2 74.2 89.2 33.45 76.6 -7.35 63.9 -7.35 46.0 -7.35 28.1 33.45 15.45 74.2 2.75 131.85 2.75 189.45 2.75 230.25 15.45 271.0 28.1 271.0 46.0" fill="url(#gradient0)" fill-rule="evenodd" stroke="none"/>
      <path d="M208.9 78.35 L208.75 78.45 209.6 78.25 208.9 78.35 M265.7 43.4 Q265.7 54.55 254.0 62.95 240.35 72.75 211.75 78.0 L208.4 78.55 Q190.4 81.75 166.75 83.6 L136.65 85.05 104.85 83.9 77.85 82.1 Q-4.8 72.2 -4.8 40.0 -4.8 34.3 -1.65 30.2 L6.75 21.2 7.35 21.0 Q31.25 9.15 63.9 4.2 91.4 0.0 130.95 0.0 L146.45 0.5 166.5 1.4 166.8 1.4 169.85 1.8 202.7 6.85 Q222.0 10.0 233.65 13.55 265.7 23.2 265.7 43.4 M149.65 0.95 L148.65 0.9 149.65 1.0 149.65 0.95 M99.45 83.25 L100.65 83.4 101.9 83.4 99.45 83.25" fill="#23170c" fill-opacity="0.99215686" fill-rule="evenodd" stroke="none"/>
      <path d="M187.05 3.65 L186.85 3.25 186.6 3.5 183.9 2.7 178.95 1.5 168.3 0.95 166.85 0.75 164.6 0.35 163.1 0.1 162.35 -0.2 162.6 0.05 162.75 0.55 149.25 -0.6 136.2 -0.85 136.3 -1.1 128.7 -1.35 116.4 -0.7 116.3 -1.15 112.4 -0.55 92.8 0.05 Q90.9 0.75 89.0 0.75 L86.75 1.15 82.0 1.55 Q74.2 1.55 65.95 2.9 L57.55 4.35 Q57.35 3.3 55.65 4.35 L53.9 5.65 53.3 5.6 53.45 5.5 50.9 6.25 47.6 7.25 43.35 7.9 39.15 8.2 Q38.6 8.2 18.7 15.9 L19.5 16.4 Q13.1 21.15 9.45 24.15 2.7 29.65 2.7 34.8 2.7 39.15 6.85 45.85 7.4 44.5 6.95 44.15 7.8 44.6 8.8 47.05 8.65 46.6 12.1 49.4 L15.6 52.25 15.45 52.8 Q17.3 53.05 17.45 53.8 17.55 54.25 18.4 54.35 L18.35 53.75 Q18.35 54.15 18.7 54.4 L19.15 54.4 18.85 54.45 20.05 54.6 Q19.75 54.95 24.8 57.1 31.65 60.05 43.6 63.85 L53.15 64.55 Q53.3 65.35 66.65 67.45 L66.45 67.5 77.15 69.45 Q80.15 69.45 91.1 71.35 L93.9 70.9 96.7 70.4 Q99.05 70.4 101.8 71.45 104.55 72.45 106.15 72.45 L110.0 71.8 112.95 71.15 115.15 71.9 116.35 71.65 Q116.75 71.35 124.5 71.75 L132.15 72.2 132.5 72.9 133.25 72.25 Q134.1 71.55 134.7 71.55 L138.95 72.15 143.2 72.7 146.1 72.0 149.4 71.25 Q149.9 71.25 150.75 71.9 151.6 72.55 152.1 72.55 L163.1 71.45 163.4 71.8 Q163.95 71.95 165.95 71.0 166.8 71.95 169.25 72.0 L171.6 71.8 166.15 70.85 180.95 69.8 181.75 70.55 207.2 65.8 208.75 66.2 210.25 66.55 Q210.75 66.55 210.95 65.95 211.15 65.35 211.65 65.35 L217.25 63.3 Q222.0 61.25 223.65 61.25 224.65 61.25 225.55 60.4 230.1 58.5 233.4 56.25 L235.8 54.35 235.65 55.35 235.6 56.0 250.8 46.4 Q251.85 45.95 252.8 43.65 254.1 40.5 254.1 35.8 254.1 32.25 253.45 30.55 252.65 28.55 250.05 26.2 L249.8 27.05 249.45 26.85 Q247.7 25.0 246.3 22.7 245.45 21.25 244.95 21.25 243.2 21.25 240.75 18.85 L239.65 17.9 Q239.3 17.8 239.4 18.95 236.65 18.15 231.8 15.0 227.55 12.2 226.4 12.2 225.6 12.2 222.45 11.0 219.65 9.95 217.25 10.3 217.5 10.1 217.35 9.9 217.2 9.65 216.5 9.65 L215.95 9.5 Q215.7 9.1 214.7 8.95 L212.95 8.8 204.45 7.25 203.65 7.1 206.55 7.3 201.2 6.25 196.25 5.6 194.95 5.05 194.0 4.85 187.05 3.65 M149.65 -2.25 L148.65 -2.3 149.65 -2.2 149.65 -2.25 M208.4 75.35 Q190.4 78.55 166.75 80.4 L136.65 81.85 104.85 80.7 77.85 78.9 Q-4.8 69.0 -4.8 36.8 -4.8 31.1 -1.65 27.0 L6.75 18.0 7.35 17.8 Q31.25 5.95 63.9 1.0 91.4 -3.2 130.95 -3.2 L146.45 -2.7 166.5 -1.8 166.8 -1.7 169.85 -1.4 202.7 3.65 Q222.0 6.8 233.65 10.35 265.7 20.0 265.7 40.2 265.7 51.35 254.0 59.75 240.35 69.55 211.75 74.8 L210.25 74.9 208.9 75.15 208.75 75.25 208.4 75.35 M223.65 16.95 L224.1 17.6 221.8 17.5 Q219.65 17.05 218.55 15.6 L215.15 13.25 223.65 16.95 M209.9 11.55 L210.7 12.4 210.55 12.45 205.45 10.6 209.9 11.55 M192.95 7.6 L194.0 8.15 Q195.95 9.1 201.15 10.55 202.15 10.55 202.1 10.1 216.0 14.65 218.1 16.0 215.75 15.75 172.05 5.2 L174.85 5.05 Q175.85 5.05 177.45 5.9 L178.3 5.4 186.3 6.5 191.7 7.3 192.95 7.6 M171.75 4.65 L171.2 4.85 Q170.75 5.15 171.35 5.35 L169.65 5.45 Q169.0 5.45 169.05 4.95 169.05 4.55 169.35 4.3 L171.75 4.65 M123.8 2.3 L123.75 2.55 120.7 2.5 120.3 2.4 123.8 2.3 M124.25 2.6 Q125.5 2.2 127.8 2.65 L124.25 2.6 M97.2 3.25 L94.55 3.25 97.15 3.2 97.2 3.25 M90.05 3.5 L87.7 4.25 Q90.0 3.5 89.4 3.55 L90.05 3.5 M25.4 19.9 L34.9 15.9 30.05 24.55 Q32.7 22.65 43.9 18.55 55.1 14.5 57.6 14.5 L59.6 14.95 61.9 15.55 50.25 18.65 Q51.6 19.7 49.8 20.2 L44.6 21.2 Q35.75 23.3 35.75 30.6 35.75 31.85 39.2 34.95 43.7 39.0 50.5 41.75 L56.45 44.85 56.35 44.4 Q59.4 45.9 64.55 47.1 L71.1 48.25 71.05 48.15 71.25 48.1 Q71.15 49.5 80.35 49.5 L82.15 49.7 83.45 49.85 95.7 51.35 113.55 52.25 113.95 52.25 117.8 52.4 118.3 61.5 92.5 59.2 88.55 58.5 82.55 59.35 82.55 61.4 73.65 61.7 59.75 59.75 Q56.7 59.4 51.75 57.6 37.2 53.55 37.2 50.25 37.2 49.65 37.85 48.95 L38.45 48.35 Q25.9 43.1 23.0 39.5 L21.0 36.7 Q19.6 35.05 16.65 33.35 L16.1 36.55 15.9 32.1 15.45 32.7 Q15.45 29.45 18.25 26.15 L21.95 21.8 Q22.9 21.75 24.7 20.25 L25.4 19.9 M197.0 5.2 L196.45 5.0 196.25 5.05 197.0 5.2 M161.0 4.85 L168.75 5.15 163.2 5.7 160.9 5.4 161.0 4.85 M173.55 79.3 Q176.85 78.95 171.9 79.3 L173.55 79.3 M99.45 80.05 L100.65 80.2 101.9 80.2 99.45 80.05 M59.4 4.0 L59.3 4.05 Q58.95 4.2 59.25 4.1 L59.4 4.0 M8.05 47.25 L8.75 48.15 8.15 47.35 8.05 47.25 M25.35 37.1 L24.95 37.05 25.0 37.9 25.45 37.25 25.35 37.1 M78.8 50.0 L73.0 50.35 69.35 51.0 Q68.85 51.0 68.65 50.5 68.45 49.95 67.95 49.95 67.35 49.95 65.85 50.65 L64.5 51.35 Q64.75 53.55 66.95 54.2 L70.7 54.55 Q72.15 54.55 74.35 53.65 77.45 52.35 78.8 50.0" fill="#372616" fill-opacity="0.99215686" fill-rule="evenodd" stroke="none"/>
      <path d="M165.95 71.0 Q163.95 71.95 163.4 71.8 L163.1 71.45 152.1 72.55 Q151.6 72.55 150.75 71.9 149.9 71.25 149.4 71.25 L146.1 72.0 143.2 72.7 138.95 72.15 134.7 71.55 Q134.1 71.55 133.25 72.25 L132.5 72.9 132.15 72.2 124.5 71.75 Q116.75 71.35 116.35 71.65 L115.15 71.9 112.95 71.15 110.0 71.8 106.15 72.45 Q104.55 72.45 101.8 71.45 99.05 70.4 96.7 70.4 L93.9 70.9 91.1 71.35 Q80.15 69.45 77.15 69.45 L66.45 67.5 66.65 67.45 Q53.3 65.35 53.15 64.55 L43.6 63.85 Q31.65 60.05 24.8 57.1 19.75 54.95 20.05 54.6 L18.85 54.45 19.15 54.4 18.7 54.4 Q18.35 54.15 18.35 53.75 L18.4 54.35 Q17.55 54.25 17.45 53.8 17.3 53.05 15.45 52.8 L15.6 52.25 12.1 49.4 Q8.65 46.6 8.8 47.05 7.8 44.6 6.95 44.15 7.4 44.5 6.85 45.85 2.7 39.15 2.7 34.8 2.7 29.65 9.45 24.15 13.1 21.15 19.5 16.4 L18.7 15.9 Q38.6 8.2 39.15 8.2 L43.35 7.9 47.6 7.25 50.9 6.25 53.45 5.5 53.3 5.6 53.9 5.65 55.65 4.35 Q57.35 3.3 57.55 4.35 L65.95 2.9 Q74.2 1.55 82.0 1.55 L86.75 1.15 89.0 0.75 Q90.9 0.75 92.8 0.05 L112.4 -0.55 116.3 -1.15 116.4 -0.7 128.7 -1.35 136.3 -1.1 136.2 -0.85 149.25 -0.6 162.75 0.55 162.6 0.05 162.35 -0.2 163.1 0.1 164.6 0.35 166.85 0.75 168.3 0.95 178.95 1.5 183.9 2.7 186.6 3.5 186.85 3.25 187.05 3.65 188.3 4.1 190.9 4.8 194.1 5.45 194.0 4.85 194.95 5.05 194.6 5.35 194.35 5.45 196.25 5.6 201.2 6.25 Q200.25 6.6 196.95 6.2 L202.25 7.4 209.7 9.4 191.7 7.3 186.3 6.5 178.3 5.4 171.75 4.65 169.35 4.3 Q152.95 1.5 147.5 2.65 L144.85 2.65 128.05 1.45 123.95 1.6 123.8 2.3 120.3 2.4 114.5 2.6 Q108.35 3.45 100.35 2.55 L99.75 3.15 99.65 3.2 98.75 3.2 97.15 3.2 94.55 3.25 90.05 3.5 89.4 3.55 89.35 3.55 Q86.7 4.35 82.45 4.15 L78.2 3.8 Q69.7 3.8 69.5 4.7 70.75 5.6 69.4 5.6 68.9 5.6 69.15 5.25 69.4 4.85 68.9 4.85 68.4 4.85 68.0 5.2 L67.25 5.45 64.95 5.9 Q62.6 6.45 62.45 7.0 61.25 6.5 60.25 6.5 59.75 6.5 59.15 6.8 L58.0 7.1 57.45 7.2 56.85 7.3 Q56.2 7.3 55.15 7.8 L52.1 9.15 Q48.25 9.2 46.85 9.9 L45.7 10.8 46.25 10.25 Q37.05 12.45 36.6 13.05 37.65 13.45 36.0 14.05 L34.8 14.55 33.15 14.5 Q32.6 14.5 31.45 15.2 L31.35 15.25 31.1 15.4 29.95 16.1 29.55 15.95 Q28.15 18.05 27.15 18.05 L26.35 18.75 25.4 19.9 24.7 20.25 21.95 21.8 18.25 26.15 Q15.45 29.45 15.45 32.7 L15.9 32.1 16.1 36.55 Q17.7 43.65 27.35 49.3 36.9 54.95 51.75 57.6 56.7 59.4 59.75 59.75 L73.65 61.7 107.55 65.45 139.8 66.75 Q161.8 66.75 191.4 61.35 231.15 54.15 235.35 42.45 L236.2 43.3 Q237.2 44.15 237.8 44.15 240.8 44.15 245.75 40.8 L253.3 35.3 252.4 42.15 252.5 43.5 Q252.35 44.45 250.8 46.4 L235.6 56.0 235.65 55.35 235.8 54.35 233.4 56.25 Q230.1 58.5 225.55 60.4 224.65 61.25 223.65 61.25 222.0 61.25 217.25 63.3 L211.65 65.35 Q211.15 65.35 210.95 65.95 210.75 66.55 210.25 66.55 L208.75 66.2 207.2 65.8 181.75 70.55 180.95 69.8 166.15 70.85 165.95 71.0 M203.65 7.1 L204.45 7.25 204.95 7.65 202.25 7.4 201.1 6.8 203.65 7.1 M61.9 15.55 L70.5 14.25 70.9 14.2 76.4 13.7 94.0 12.4 103.75 11.75 104.6 11.7 104.7 11.7 106.5 11.5 106.95 11.45 114.35 10.7 117.15 10.45 Q119.15 10.35 119.15 10.95 119.15 11.45 128.15 11.05 137.1 10.6 137.1 11.1 137.1 11.7 139.5 11.65 L142.6 11.4 146.9 11.8 165.5 12.95 171.05 12.65 171.2 12.95 170.7 13.4 173.6 13.6 175.8 13.15 Q178.05 13.15 181.35 13.85 184.75 14.6 186.15 15.55 L186.55 15.85 186.55 16.05 186.5 16.1 185.7 16.05 181.45 15.1 178.65 14.5 176.25 14.15 177.1 14.65 174.15 14.35 Q172.3 13.55 168.95 13.65 L168.35 13.7 168.85 13.6 169.5 13.5 169.55 13.35 167.6 13.6 164.6 13.8 Q157.25 13.5 154.85 13.55 L155.85 14.1 Q149.8 12.6 149.7 13.2 L149.85 13.8 Q149.8 14.2 148.65 14.2 L147.25 14.15 146.3 14.05 144.8 13.85 141.65 13.4 134.9 13.4 Q126.55 13.3 120.05 13.5 L119.65 13.3 119.4 13.25 116.25 13.1 113.85 13.3 113.35 12.9 106.8 13.45 106.35 13.65 105.75 13.65 Q105.0 14.25 104.85 13.75 L104.8 13.45 104.7 13.75 104.15 13.8 103.35 13.5 100.7 13.55 91.45 14.7 79.85 16.25 70.05 17.2 Q65.1 17.3 60.1 18.55 56.1 19.55 53.6 20.8 52.2 22.2 49.25 22.95 46.5 23.65 44.5 26.0 L44.3 26.2 43.25 27.7 43.65 27.9 43.65 28.25 Q43.65 31.7 45.45 34.15 47.25 36.6 49.8 36.6 L49.75 36.5 49.95 36.7 52.35 38.85 50.2 36.85 50.15 36.75 54.85 39.45 54.85 39.55 54.95 39.7 54.75 39.65 54.2 39.75 54.5 39.8 54.8 40.05 54.95 39.95 54.95 39.7 Q56.15 40.8 56.7 41.0 L57.0 41.1 Q57.0 41.75 57.3 41.55 L57.5 41.35 59.75 42.35 Q60.5 42.65 60.45 42.2 L61.4 42.8 Q62.65 43.5 64.1 44.0 L64.1 43.8 70.35 44.8 71.45 44.9 71.6 45.0 Q71.8 45.0 71.8 44.45 L72.1 44.8 Q72.2 45.05 72.65 45.1 L73.15 44.65 73.2 45.15 74.0 45.25 76.3 45.75 76.7 45.65 77.45 45.9 77.5 46.0 77.65 46.05 77.6 46.0 77.6 45.95 80.2 45.95 88.4 48.0 95.2 49.0 Q101.3 49.3 153.3 48.85 L153.2 49.6 158.0 49.45 160.85 49.25 161.05 48.7 161.35 48.65 161.2 48.7 Q161.05 48.65 161.15 48.95 L161.15 49.05 161.7 49.2 161.85 49.0 163.3 48.9 163.6 48.85 164.25 48.85 164.85 48.75 164.55 48.45 167.55 48.8 167.7 48.5 168.65 48.45 168.85 48.15 169.95 48.3 173.15 47.7 173.25 47.65 173.6 47.45 174.5 47.5 174.55 47.8 175.2 47.9 176.6 47.65 178.0 46.75 178.35 46.9 179.15 47.05 Q178.35 46.9 179.45 46.8 L179.55 46.35 181.15 46.65 188.05 45.6 188.5 45.95 188.6 45.6 190.75 45.2 Q191.65 44.75 191.65 44.15 L191.7 44.1 191.8 44.1 191.95 43.95 191.95 44.2 191.85 44.5 192.35 44.6 192.85 44.2 Q193.6 43.5 197.8 42.3 L197.7 41.95 198.4 41.0 203.1 38.35 200.95 40.4 203.6 38.2 204.3 37.95 204.6 37.35 204.75 37.6 205.25 36.65 205.35 36.35 205.1 36.35 205.95 34.95 206.15 32.95 206.85 33.9 207.6 32.75 207.35 32.3 207.45 31.8 207.6 32.1 207.65 32.25 Q208.25 31.25 208.55 29.2 L208.55 29.1 208.15 28.4 208.0 28.25 207.95 27.95 207.7 27.45 207.2 26.45 210.55 26.95 213.1 27.45 216.35 28.05 Q217.7 28.5 218.65 29.1 L218.75 29.05 218.6 28.45 218.75 28.5 219.4 29.45 Q219.25 31.25 218.85 31.65 L218.65 32.2 215.4 35.15 Q214.15 36.35 213.15 38.2 L212.25 39.15 210.0 40.5 207.45 42.15 205.05 42.85 203.55 43.1 203.6 43.2 203.0 44.4 197.15 46.6 196.95 45.85 Q196.55 46.3 195.65 46.75 L195.4 46.9 Q193.3 47.7 186.1 49.05 L185.75 49.05 180.6 50.1 180.6 49.95 166.7 52.0 166.55 51.65 158.5 52.4 157.95 52.4 157.7 52.4 152.9 52.6 145.6 52.75 144.95 52.6 144.85 52.75 144.2 52.75 143.55 52.75 140.05 52.75 133.85 52.7 Q132.95 52.1 113.95 52.25 L113.55 52.25 95.7 51.35 83.45 49.85 82.15 49.7 80.35 49.5 Q71.15 49.5 71.25 48.1 L71.05 48.15 56.35 44.4 56.45 44.85 50.5 41.75 Q43.7 39.0 39.2 34.95 35.75 31.85 35.75 30.6 35.75 23.3 44.6 21.2 L49.8 20.2 Q51.6 19.7 50.25 18.65 L61.9 15.55 M218.35 33.2 L218.4 33.2 218.25 33.35 218.35 33.2 M230.55 48.8 L230.35 48.85 229.65 49.15 229.4 49.35 230.05 49.1 230.55 48.8 M239.1 41.55 L239.0 41.5 239.15 40.75 240.0 40.45 239.1 41.55 M197.0 5.2 L196.25 5.05 196.45 5.0 197.0 5.2 M199.05 41.45 L198.6 41.55 Q198.15 41.65 198.15 41.95 L199.05 41.45 M195.6 42.95 L194.95 43.0 Q195.0 42.75 195.3 42.75 L195.8 42.85 195.6 42.95 M146.2 2.4 L145.8 2.35 145.95 2.45 146.2 2.4 M134.0 11.95 L133.85 12.0 134.05 12.05 134.1 12.05 134.85 12.05 134.85 12.1 135.15 12.0 135.25 11.95 135.25 11.9 134.85 11.95 134.15 11.95 134.0 11.95 M61.9 5.85 Q61.75 5.85 61.65 6.0 L61.5 6.25 61.65 6.55 61.9 6.65 62.2 6.55 62.3 6.25 62.2 6.0 Q62.05 5.85 61.9 5.85 M61.05 6.2 L60.8 6.2 60.9 6.4 61.05 6.2 M59.4 4.0 L59.25 4.1 Q58.95 4.2 59.3 4.05 L59.4 4.0 M48.65 22.3 L47.6 22.85 45.5 24.5 48.65 22.3 M12.1 30.5 Q11.9 30.5 11.85 30.6 L12.25 30.75 Q12.45 30.8 12.45 30.65 L12.1 30.5 M8.05 47.25 L8.15 47.35 8.75 48.15 8.05 47.25" fill="#e1d0af" fill-rule="evenodd" stroke="none"/>
      <path d="M169.85 -1.4 L166.8 -1.7 166.8 -1.8 169.85 -1.4" fill="#121111" fill-opacity="0.16078432" fill-rule="evenodd" stroke="none"/>
      <path d="M166.8 -1.7 L166.5 -1.8 166.8 -1.8 166.8 -1.7" fill="#413e3d" fill-opacity="0.59607846" fill-rule="evenodd" stroke="none"/>
      <path d="M187.05 3.65 L194.0 4.85 194.1 5.45 190.9 4.8 188.3 4.1 187.05 3.65 M194.95 5.05 L196.25 5.6 194.35 5.45 194.6 5.35 194.95 5.05 M201.2 6.25 L206.55 7.3 203.65 7.1 201.1 6.8 202.25 7.4 204.95 7.65 204.45 7.25 212.95 8.8 214.7 8.95 Q215.7 9.1 215.95 9.5 L216.5 9.65 Q217.2 9.65 217.35 9.9 217.5 10.1 217.25 10.3 219.65 9.95 222.45 11.0 225.6 12.2 226.4 12.2 227.55 12.2 231.8 15.0 236.65 18.15 239.4 18.95 239.3 17.8 239.65 17.9 L240.75 18.85 Q243.2 21.25 244.95 21.25 245.45 21.25 246.3 22.7 247.7 25.0 249.45 26.85 L250.7 30.2 Q251.1 30.0 251.85 31.4 L253.3 35.3 245.75 40.8 Q240.8 44.15 237.8 44.15 237.2 44.15 236.2 43.3 L235.35 42.45 Q237.75 36.4 237.75 35.4 L237.55 33.85 237.3 32.25 236.95 29.25 Q236.3 26.3 234.95 25.55 L233.25 24.45 Q232.55 23.85 232.5 23.05 232.45 21.85 230.2 20.4 L227.65 18.9 Q226.05 17.25 218.1 14.2 L209.9 11.0 209.9 11.55 205.45 10.6 195.6 8.3 192.95 7.6 191.7 7.3 209.7 9.4 202.25 7.4 196.95 6.2 Q200.25 6.6 201.2 6.25 M246.2 34.1 L246.75 33.5 246.15 34.1 246.2 34.1 M239.1 41.55 L240.0 40.45 239.15 40.75 239.0 41.5 239.1 41.55" fill="#c7b596" fill-rule="evenodd" stroke="none"/>
      <path d="M249.45 26.85 L249.8 27.05 250.05 26.2 Q252.65 28.55 253.45 30.55 254.1 32.25 254.1 35.8 254.1 40.5 252.8 43.65 251.85 45.95 250.8 46.4 252.35 44.45 252.5 43.5 L252.4 42.15 253.3 35.3 251.85 31.4 Q251.1 30.0 250.7 30.2 L249.45 26.85 M223.65 16.95 L215.15 13.25 218.55 15.6 Q219.65 17.05 221.8 17.5 L224.1 17.6 223.65 16.95 M209.9 11.55 L209.9 11.0 218.1 14.2 Q226.05 17.25 227.65 18.9 L230.2 20.4 Q232.45 21.85 232.5 23.05 232.55 23.85 233.25 24.45 L234.95 25.55 Q236.3 26.3 236.95 29.25 L237.3 32.25 237.55 33.85 237.75 35.4 Q237.75 36.4 235.35 42.45 231.15 54.15 191.4 61.35 161.8 66.75 139.8 66.75 L107.55 65.45 73.65 61.7 82.55 61.4 82.55 59.35 88.55 58.5 92.5 59.2 118.3 61.5 129.0 61.5 Q136.25 61.45 138.35 62.95 L148.4 61.4 Q149.7 62.0 149.75 62.7 149.75 63.2 150.35 63.2 152.85 63.2 152.9 62.7 153.05 61.8 153.45 61.6 L152.8 61.15 152.75 60.05 152.6 60.95 Q148.95 60.0 145.7 60.8 L141.45 61.85 138.65 61.45 135.25 60.6 Q135.05 59.05 136.3 56.65 137.75 53.85 140.05 52.75 L143.55 52.75 143.05 53.15 144.05 52.9 Q143.6 52.75 144.2 52.75 L144.85 52.75 145.6 52.75 152.9 52.6 156.75 52.55 Q158.2 53.2 162.05 54.1 L163.85 53.6 166.8 52.5 166.25 52.2 165.9 52.2 161.4 52.8 159.4 53.1 159.3 52.85 159.55 52.5 159.4 52.5 157.9 52.9 157.95 52.4 158.5 52.4 163.2 52.3 166.55 51.65 166.7 52.0 166.9 52.1 169.5 52.0 170.6 51.65 180.6 49.95 180.6 50.1 182.2 50.2 Q183.95 50.05 185.75 49.05 L186.1 49.05 191.1 48.45 Q193.65 47.8 195.4 46.9 L195.65 46.75 Q196.55 46.3 196.95 45.85 L197.15 46.6 203.0 44.4 203.6 43.2 203.55 43.1 205.05 42.85 207.45 42.15 Q208.1 41.8 210.1 40.6 L212.25 39.15 213.15 38.2 215.35 36.4 Q217.45 34.65 218.25 33.35 L218.4 33.2 218.35 33.2 218.65 32.2 218.85 31.65 Q219.25 31.25 219.4 29.45 L218.75 28.5 218.1 26.95 217.6 27.1 217.4 26.05 216.2 25.1 Q215.15 24.2 213.9 23.7 L213.8 23.15 210.6 22.25 210.75 22.1 210.75 21.9 207.1 20.85 198.1 18.55 198.1 18.35 198.55 18.25 198.6 18.15 Q199.2 18.0 196.45 17.35 L186.15 15.55 Q184.75 14.6 181.35 13.85 178.05 13.15 175.8 13.15 L173.6 13.6 170.7 13.4 171.2 12.95 171.05 12.65 165.5 12.95 146.9 11.8 142.6 11.4 139.5 11.65 Q137.1 11.7 137.1 11.1 137.1 10.6 128.15 11.05 119.15 11.45 119.15 10.95 119.15 10.35 117.15 10.45 L114.35 10.7 106.95 11.45 107.0 11.3 106.95 11.25 106.5 11.5 104.7 11.7 104.6 11.7 Q103.75 11.75 103.55 11.45 L103.75 11.75 94.0 12.4 76.4 13.7 70.9 14.2 70.9 14.0 70.7 14.2 70.5 14.25 61.9 15.55 59.6 14.95 57.6 14.5 Q55.1 14.5 43.9 18.55 32.7 22.65 30.05 24.55 L34.9 15.9 25.4 19.9 26.35 18.75 27.15 18.05 Q28.15 18.05 29.55 15.95 L29.95 16.1 31.1 15.4 31.35 15.25 31.45 15.2 Q32.6 14.5 33.15 14.5 L34.8 14.55 36.0 14.05 Q37.65 13.45 36.6 13.05 37.05 12.45 46.25 10.25 L45.7 10.8 46.85 9.9 Q48.25 9.2 52.1 9.15 L55.15 7.8 Q56.2 7.3 56.85 7.3 L57.45 7.2 58.0 7.1 59.15 6.8 Q59.75 6.5 60.25 6.5 61.25 6.5 62.45 7.0 62.6 6.45 64.95 5.9 L67.25 5.45 68.0 5.2 Q68.4 4.85 68.9 4.85 69.4 4.85 69.15 5.25 68.9 5.6 69.4 5.6 70.75 5.6 69.5 4.7 69.7 3.8 78.2 3.8 L82.45 4.15 Q86.7 4.35 89.35 3.55 L89.4 3.55 Q90.0 3.5 87.7 4.25 L90.05 3.5 94.55 3.25 97.2 3.25 98.75 3.2 99.65 3.2 100.25 3.0 99.95 3.0 99.75 3.15 100.35 2.55 Q108.35 3.45 114.5 2.6 L120.3 2.4 120.7 2.5 122.1 2.7 129.8 3.25 130.35 3.1 130.2 2.85 130.05 2.7 127.8 2.65 Q125.5 2.2 124.25 2.6 L123.75 2.55 123.8 2.3 123.95 1.6 128.05 1.45 144.85 2.65 148.15 2.75 147.5 2.65 Q152.95 1.5 169.35 4.3 169.05 4.55 169.05 4.95 169.0 5.45 169.65 5.45 L171.35 5.35 Q170.75 5.15 171.2 4.85 L171.75 4.65 178.3 5.4 177.45 5.9 Q175.85 5.05 174.85 5.05 L172.05 5.2 Q215.75 15.75 218.1 16.0 216.0 14.65 202.1 10.1 202.15 10.55 201.15 10.55 195.95 9.1 194.0 8.15 L192.95 7.6 195.6 8.3 205.45 10.6 210.55 12.45 210.7 12.4 209.9 11.55 M94.0 12.4 L94.25 12.25 Q93.95 12.25 93.85 12.4 L94.0 12.4 M181.15 46.65 L179.55 46.35 179.45 46.8 Q178.35 46.9 179.15 47.05 L178.35 46.9 178.0 46.75 176.6 47.65 175.2 47.9 174.55 47.8 174.5 47.5 173.6 47.45 173.25 47.65 173.15 47.7 169.95 48.3 162.95 43.35 158.0 49.45 153.2 49.6 153.3 48.85 Q101.3 49.3 95.2 49.0 L88.4 48.0 80.2 45.95 77.6 45.95 77.55 45.95 77.55 45.9 77.45 45.9 76.7 45.65 76.3 45.75 74.0 45.25 73.2 45.15 73.15 44.65 72.65 45.1 Q72.2 45.05 72.1 44.8 L71.8 44.45 Q71.8 45.0 71.6 45.0 L71.45 44.9 70.35 44.8 76.4 42.15 Q69.35 41.4 67.05 40.0 L65.5 38.2 61.7 34.85 Q59.45 32.95 59.2 31.85 L65.0 32.55 57.9 30.85 62.95 29.65 59.7 28.2 66.3 26.2 Q63.5 25.1 62.5 23.75 61.95 23.0 61.95 21.85 61.95 21.25 64.15 20.4 L66.3 19.7 64.7 19.1 70.35 18.5 70.25 18.35 71.35 18.3 Q72.75 18.3 72.75 17.7 L74.05 18.0 Q76.15 17.95 79.85 16.25 L91.45 14.7 100.7 13.55 98.85 13.95 98.8 14.1 99.0 14.1 100.35 13.9 100.4 13.9 101.25 14.0 100.9 14.05 102.0 13.9 102.2 13.9 102.2 14.0 104.15 13.8 104.7 13.75 104.85 13.75 Q105.0 14.25 105.75 13.65 L106.35 13.65 106.8 13.45 113.35 12.9 113.85 13.3 116.25 13.1 119.4 13.25 Q119.9 13.4 119.7 13.6 L120.05 13.5 Q126.55 13.3 134.9 13.4 L141.65 13.4 144.8 13.85 146.3 14.05 Q144.75 13.9 144.3 14.05 L143.7 14.5 141.8 14.8 135.8 14.2 Q136.15 13.95 135.9 13.65 135.15 14.5 134.15 14.5 L128.95 15.1 Q130.9 14.95 131.85 15.1 L133.05 15.4 134.55 14.9 Q135.5 14.4 136.0 14.4 L137.65 14.5 137.6 14.7 Q138.65 15.0 153.25 15.0 L147.25 14.15 148.65 14.2 Q149.8 14.2 149.85 13.8 L149.7 13.2 Q149.8 12.6 155.85 14.1 158.15 15.05 161.3 14.9 L161.3 15.0 161.4 15.35 161.6 15.35 164.85 15.2 166.4 15.45 172.4 15.5 172.8 15.85 177.3 15.85 Q176.95 16.15 177.1 16.6 L178.25 16.7 Q178.1 17.15 178.45 17.35 L181.6 17.4 Q190.6 18.4 191.8 19.2 193.45 20.3 195.8 21.4 L192.25 20.0 177.45 17.35 175.35 18.25 Q177.2 18.25 177.5 18.75 L177.2 19.4 178.05 19.35 Q178.8 18.0 180.7 18.6 L184.1 19.6 Q182.9 19.6 182.6 19.9 185.5 21.15 187.0 23.25 187.75 24.3 187.9 25.1 L183.05 26.9 190.85 29.35 187.65 30.55 193.45 32.05 185.45 33.85 191.3 33.65 Q192.2 33.75 192.3 33.95 187.65 38.05 184.2 40.55 177.65 45.25 173.7 44.0 L181.15 46.65 M43.65 27.9 L43.25 27.7 44.3 26.2 43.65 27.9 M53.6 20.8 Q56.1 19.55 60.1 18.55 65.1 17.3 70.05 17.2 L57.85 19.5 53.6 20.8 M160.9 5.4 L163.2 5.7 168.75 5.15 161.0 4.85 159.45 4.85 160.9 5.4 M164.35 22.15 Q164.3 22.05 162.6 22.8 L163.55 22.55 164.35 22.15 M172.8 25.75 L172.75 25.7 171.55 26.2 172.8 25.75 M178.75 25.0 L179.0 25.75 179.3 25.0 178.75 25.0 M177.4 30.85 L177.65 31.65 177.95 30.85 177.4 30.85 M163.25 31.95 Q164.8 32.05 166.05 31.05 161.2 27.65 160.2 27.65 159.3 27.65 156.85 29.8 154.35 31.95 151.85 31.95 L142.8 32.7 140.3 32.35 138.5 31.95 130.7 30.5 125.8 29.8 Q124.85 29.8 121.7 30.75 L118.1 31.95 Q126.05 31.35 134.9 33.5 L143.05 35.75 150.75 36.0 Q157.1 36.45 158.2 37.25 158.5 31.4 160.85 31.55 L163.25 31.95 M166.15 40.0 L166.9 39.5 166.0 40.0 166.15 40.0 M175.0 53.75 L176.4 52.85 174.4 53.85 175.0 53.75 M169.9 53.95 L170.85 53.4 168.9 54.15 169.9 53.95 M165.25 55.05 L165.1 54.9 Q164.55 54.45 164.4 54.75 L165.25 55.05 M146.2 2.4 L145.95 2.45 145.8 2.35 146.2 2.4 M152.0 23.95 L152.3 23.15 151.7 23.15 152.0 23.95 M134.05 12.0 L134.0 11.95 134.15 11.95 134.1 12.05 134.05 12.05 134.05 12.0 M134.85 11.95 L135.25 11.9 135.25 11.95 135.15 12.0 134.9 12.05 134.85 12.05 134.85 11.95 M125.15 19.95 L125.6 19.9 Q125.75 19.6 125.1 19.9 L125.15 19.95 M123.5 23.15 L123.1 23.1 121.8 23.75 122.7 23.55 123.5 23.15 M131.6 19.7 L131.55 19.8 132.25 20.1 Q132.1 19.6 131.6 19.7 M130.7 22.45 Q129.1 22.45 128.0 23.35 126.85 24.2 126.85 25.45 126.85 26.7 128.0 27.6 129.1 28.45 130.7 28.45 132.3 28.45 133.45 27.6 134.55 26.7 134.55 25.45 134.55 24.2 133.45 23.35 132.3 22.45 130.7 22.45 M132.2 17.25 L132.45 17.95 132.7 17.25 132.2 17.25 M133.9 18.35 L133.7 18.4 Q133.2 18.5 133.0 18.95 L133.5 18.7 133.9 18.35 M129.45 34.15 L129.75 34.45 129.9 33.85 129.45 34.15 M137.25 27.95 L137.35 28.0 137.8 27.65 137.25 27.95 M128.1 45.75 Q128.6 45.9 128.6 45.5 L128.45 45.5 128.15 45.65 128.1 45.75 M161.15 35.2 L161.25 35.25 162.2 34.5 161.65 34.8 161.15 35.2 M133.05 40.45 L133.3 41.55 133.55 40.45 133.05 40.45 M145.6 30.65 L145.15 30.9 145.9 31.9 145.6 30.65 M144.55 26.05 L144.8 26.85 145.1 26.05 144.55 26.05 M147.7 30.15 L147.1 30.15 147.4 31.0 147.7 30.15 M146.0 27.7 Q147.8 29.25 151.4 28.2 155.2 27.05 153.35 24.0 150.4 24.2 148.0 25.85 146.6 26.85 146.0 27.7 M158.6 41.2 Q157.65 41.3 157.3 41.65 L158.05 41.45 Q158.55 41.25 158.6 41.2 M157.75 37.8 L158.0 38.9 158.25 37.8 157.75 37.8 M156.35 45.0 L156.65 46.05 156.95 45.0 156.35 45.0 M116.75 2.9 L116.45 2.95 Q117.2 3.2 116.75 2.9 M101.6 22.45 L101.85 23.2 102.1 22.45 101.6 22.45 M120.1 22.15 L120.4 22.85 120.7 22.15 120.1 22.15 M100.6 11.75 L100.55 11.55 100.15 11.7 100.6 11.75 M85.65 21.45 Q85.35 21.6 84.65 23.6 L85.65 21.6 85.65 21.45 M82.25 21.15 L82.1 21.2 Q82.2 21.45 83.65 21.75 L82.25 21.15 M93.95 17.75 L95.45 17.35 95.25 17.25 Q95.05 17.2 94.5 17.5 L93.95 17.75 M95.35 22.85 L95.6 23.7 95.9 22.85 95.35 22.85 M101.2 29.35 L101.0 29.5 101.6 29.85 101.5 29.65 101.2 29.35 M97.45 20.5 L98.4 20.15 Q98.4 19.75 96.55 20.65 L97.45 20.5 M97.65 23.9 L96.95 24.2 96.4 24.6 97.15 24.3 97.65 23.9 M92.4 28.2 L92.65 29.0 92.95 28.2 92.4 28.2 M96.05 30.65 L95.55 30.65 95.8 31.4 96.05 30.65 M90.9 30.3 L90.35 30.3 90.6 31.05 90.9 30.3 M88.5 30.0 L87.75 30.3 87.25 30.6 88.05 30.35 88.5 30.0 M91.4 34.25 L91.7 35.3 92.05 34.25 91.4 34.25 M84.7 30.65 L86.0 26.65 Q83.4 28.5 83.8 29.75 84.0 30.4 84.7 30.65 M84.05 32.35 L84.4 33.4 84.75 32.35 84.05 32.35 M92.65 39.65 L92.9 40.7 93.15 39.65 92.65 39.65 M86.55 32.8 L86.8 32.8 Q87.65 32.65 87.8 32.35 87.05 32.45 86.55 32.8 M93.7 40.65 L93.95 41.75 94.25 40.65 93.7 40.65 M118.45 28.25 L118.65 29.05 118.9 28.25 118.45 28.25 M114.5 27.75 L115.35 27.4 113.65 27.95 114.5 27.75 M106.6 26.75 L107.3 26.3 106.5 26.75 106.6 26.75 M105.25 27.85 L106.15 27.4 105.85 27.35 105.25 27.85 M108.2 25.05 Q107.95 25.0 108.05 25.55 L108.15 26.1 108.35 25.6 108.2 25.05 M105.95 30.45 L106.25 31.2 106.55 30.45 105.95 30.45 M102.0 34.6 L102.25 36.1 102.5 34.6 102.0 34.6 M114.2 41.8 L113.8 41.75 113.15 42.6 113.85 42.3 114.2 41.8 M152.15 55.05 L152.15 54.45 151.8 54.3 151.8 55.45 152.15 55.05 M149.8 55.9 L150.1 57.05 150.4 55.9 149.8 55.9 M61.05 6.2 L60.9 6.4 60.8 6.2 61.05 6.2 M61.9 5.85 Q62.05 5.85 62.2 6.0 L62.3 6.25 62.2 6.55 61.9 6.65 61.65 6.55 61.5 6.25 61.65 6.0 Q61.75 5.85 61.9 5.85 M68.05 14.45 L68.2 14.35 Q68.1 14.3 68.05 14.4 L68.05 14.45 M69.35 24.0 L69.6 24.8 69.85 24.0 69.35 24.0 M74.8 13.15 L74.8 13.35 75.3 13.35 75.3 13.15 74.8 13.15 M80.3 12.45 L80.4 12.75 80.55 12.45 80.3 12.45 M77.1 21.95 L77.4 22.2 77.75 22.4 77.1 21.95 M76.35 25.15 L75.05 24.75 76.3 25.15 76.35 25.15 M77.2 26.35 L77.1 26.4 78.3 27.05 77.2 26.35 M80.0 40.9 L79.65 40.7 78.95 40.5 78.8 40.55 79.9 40.95 80.0 40.9 M24.7 20.25 Q22.9 21.75 21.95 21.8 L24.7 20.25 M16.1 36.55 L16.65 33.35 Q19.6 35.05 21.0 36.7 L23.0 39.5 Q25.9 43.1 38.45 48.35 L37.85 48.95 Q37.2 49.65 37.2 50.25 37.2 53.55 51.75 57.6 36.9 54.95 27.35 49.3 17.7 43.65 16.1 36.55 M37.3 19.05 L43.65 15.25 Q41.8 15.55 40.05 16.2 36.6 17.45 37.3 19.05 M78.8 50.0 Q77.45 52.35 74.35 53.65 72.15 54.55 70.7 54.55 L66.95 54.2 Q64.75 53.55 64.5 51.35 L65.85 50.65 Q67.35 49.95 67.95 49.95 68.45 49.95 68.65 50.5 68.85 51.0 69.35 51.0 L73.0 50.35 78.8 50.0" fill="#422f1f" fill-rule="evenodd" stroke="none"/>
      <path d="M186.15 15.55 L196.45 17.35 Q199.2 18.0 198.6 18.15 L198.55 18.25 198.1 18.35 198.1 18.55 207.1 20.85 210.75 21.9 210.6 22.25 213.8 23.15 213.9 23.7 Q215.15 24.2 216.2 25.1 L217.4 26.05 217.2 26.85 217.6 27.1 218.1 26.95 218.6 28.45 218.75 29.05 218.65 29.1 Q217.7 28.5 216.35 28.05 L213.1 27.45 210.55 26.95 207.2 26.45 207.7 27.45 207.1 27.45 206.25 26.45 205.7 26.0 204.5 24.75 Q199.35 23.05 195.8 21.4 193.45 20.3 191.8 19.2 190.6 18.4 181.6 17.4 L178.45 17.35 Q178.1 17.15 178.25 16.7 L177.1 16.6 Q176.95 16.15 177.3 15.85 L172.8 15.85 172.4 15.5 166.4 15.45 164.85 15.2 161.6 15.35 161.4 15.35 161.3 15.0 161.3 14.9 Q158.15 15.05 155.85 14.1 L154.85 13.55 Q157.25 13.5 164.6 13.8 L167.6 13.6 169.55 13.35 169.5 13.5 168.85 13.6 168.35 13.7 168.95 13.65 Q172.3 13.55 174.15 14.35 L177.1 14.65 176.25 14.15 178.65 14.5 181.45 15.1 185.7 16.05 186.5 16.1 186.55 16.05 186.55 15.85 186.15 15.55 M100.7 13.55 L103.35 13.5 100.4 13.9 100.35 13.9 99.0 14.1 98.8 14.1 98.85 13.95 100.7 13.55 M133.85 12.0 L134.0 11.95 134.05 12.0 133.85 12.0 M135.15 12.0 L134.85 12.1 134.9 12.05 135.15 12.0 M102.2 13.9 L103.5 13.8 102.2 14.0 102.2 13.9 M102.0 13.9 L100.9 14.05 101.25 14.0 102.0 13.9" fill="#d0bf9e" fill-rule="evenodd" stroke="none"/>
      <path d="M166.15 70.85 L171.6 71.8 169.25 72.0 Q166.8 71.95 165.95 71.0 L166.15 70.85 M140.05 52.75 Q137.75 53.85 136.3 56.65 135.05 59.05 135.25 60.6 L138.65 61.45 141.45 61.85 145.7 60.8 Q148.95 60.0 152.6 60.95 L152.8 61.15 153.45 61.6 Q153.05 61.8 152.9 62.7 152.85 63.2 150.35 63.2 149.75 63.2 149.75 62.7 149.7 62.0 148.4 61.4 L138.35 62.95 Q136.25 61.45 129.0 61.5 L118.3 61.5 117.8 52.4 133.85 52.7 140.05 52.75 M207.1 27.45 L207.95 27.95 208.0 28.25 208.15 28.4 208.55 29.1 208.55 29.2 Q208.25 31.25 207.65 32.25 L207.6 32.1 207.45 31.8 207.35 32.3 207.6 32.75 206.85 33.9 206.15 32.95 205.95 34.95 205.1 36.35 205.35 36.35 205.25 36.65 204.75 37.6 204.6 37.35 204.3 37.95 203.6 38.2 203.1 38.35 198.4 41.0 197.7 41.95 197.8 42.3 Q193.6 43.5 192.85 44.2 L192.35 44.6 191.85 44.5 191.95 44.2 191.95 43.95 191.8 44.1 191.7 44.1 191.65 44.15 Q191.65 44.75 190.75 45.2 L188.6 45.6 188.5 45.95 188.05 45.6 181.15 46.65 173.7 44.0 Q177.65 45.25 184.2 40.55 187.65 38.05 192.3 33.95 192.2 33.75 191.3 33.65 L185.45 33.85 193.45 32.05 187.65 30.55 190.85 29.35 183.05 26.9 187.9 25.1 Q187.75 24.3 187.0 23.25 185.5 21.15 182.6 19.9 182.9 19.6 184.1 19.6 L180.7 18.6 Q178.8 18.0 178.05 19.35 L177.2 19.4 177.5 18.75 Q177.2 18.25 175.35 18.25 L177.45 17.35 192.25 20.0 195.8 21.4 Q199.35 23.05 204.5 24.75 L205.7 26.0 206.25 26.45 207.1 27.45 M77.6 45.95 L77.6 46.0 77.55 45.95 77.6 45.95 M77.5 46.0 L77.45 45.9 77.55 45.9 77.5 46.0 M70.35 44.8 L64.1 43.8 64.1 44.0 Q62.65 43.5 61.4 42.8 L60.45 42.2 Q60.5 42.65 59.75 42.35 L57.5 41.35 57.3 41.55 Q57.0 41.75 57.0 41.1 L56.7 41.0 Q56.15 40.8 54.95 39.7 L54.95 39.95 54.75 39.65 54.95 39.7 54.85 39.55 54.85 39.45 50.15 36.75 50.2 36.85 49.95 36.7 49.75 36.5 49.8 36.6 Q47.25 36.6 45.45 34.15 43.65 31.7 43.65 28.25 L44.5 26.0 Q46.5 23.65 49.25 22.95 52.2 22.2 53.6 20.8 L57.85 19.5 70.05 17.2 79.85 16.25 Q76.15 17.95 74.05 18.0 L72.75 17.7 Q72.75 18.3 71.35 18.3 L70.25 18.35 70.35 18.5 64.7 19.1 66.3 19.7 64.15 20.4 Q61.95 21.25 61.95 21.85 61.95 23.0 62.5 23.75 63.5 25.1 66.3 26.2 L59.7 28.2 62.95 29.65 57.9 30.85 65.0 32.55 59.2 31.85 Q59.45 32.95 61.7 34.85 L65.5 38.2 67.05 40.0 Q69.35 41.4 76.4 42.15 L70.35 44.8 M119.4 13.25 L119.65 13.3 120.05 13.5 119.7 13.6 Q119.9 13.4 119.4 13.25 M146.3 14.05 L147.25 14.15 153.25 15.0 Q138.65 15.0 137.6 14.7 L137.65 14.5 136.0 14.4 Q135.5 14.4 134.55 14.9 L133.05 15.4 131.85 15.1 Q130.9 14.95 128.95 15.1 L134.15 14.5 Q135.15 14.5 135.9 13.65 136.15 13.95 135.8 14.2 L141.8 14.8 143.7 14.5 144.3 14.05 Q144.75 13.9 146.3 14.05 M199.05 41.45 L198.15 41.95 Q198.15 41.65 198.6 41.55 L199.05 41.45 M195.6 42.95 L195.8 42.85 195.3 42.75 Q195.0 42.75 194.95 43.0 L195.6 42.95 M50.55 32.55 L49.45 32.0 50.5 32.55 50.55 32.55 M37.3 19.05 Q36.6 17.45 40.05 16.2 41.8 15.55 43.65 15.25 L37.3 19.05" fill="#3a2818" fill-rule="evenodd" stroke="none"/>
      <path d="M230.55 48.8 L230.05 49.1 229.4 49.35 229.65 49.15 230.35 48.85 230.55 48.8" fill="#ae9b78" fill-rule="evenodd" stroke="none"/>
      <path d="M164.35 22.15 L163.55 22.55 162.6 22.8 Q164.3 22.05 164.35 22.15 M169.9 53.95 L168.9 54.15 170.85 53.4 169.9 53.95 M82.25 21.15 L83.65 21.75 Q82.2 21.45 82.1 21.2 L82.25 21.15" fill="#3b2817" fill-rule="evenodd" stroke="none"/>
      <path d="M172.8 25.75 L171.55 26.2 172.75 25.7 172.8 25.75 M158.6 41.2 Q158.55 41.25 158.05 41.45 L157.3 41.65 Q157.65 41.3 158.6 41.2 M156.35 45.0 L156.95 45.0 156.65 46.05 156.35 45.0 M76.35 25.15 L76.3 25.15 75.05 24.75 76.35 25.15" fill="#3e2b1a" fill-rule="evenodd" stroke="none"/>
      <path d="M178.75 25.0 L179.3 25.0 179.0 25.75 178.75 25.0 M100.6 11.75 L100.15 11.7 100.55 11.55 100.6 11.75 M96.05 30.65 L95.8 31.4 95.55 30.65 96.05 30.65 M92.4 28.2 L92.95 28.2 92.65 29.0 92.4 28.2 M69.35 24.0 L69.85 24.0 69.6 24.8 69.35 24.0" fill="#3b2819" fill-rule="evenodd" stroke="none"/>
      <path d="M144.2 52.75 Q143.6 52.75 144.05 52.9 L143.05 53.15 143.55 52.75 144.2 52.75 M152.6 60.95 L152.75 60.05 152.8 61.15 152.6 60.95 M177.4 30.85 L177.95 30.85 177.65 31.65 177.4 30.85 M166.15 40.0 L166.0 40.0 166.9 39.5 166.15 40.0 M137.25 27.95 L137.8 27.65 137.35 28.0 137.25 27.95 M129.45 34.15 L129.9 33.85 129.75 34.45 129.45 34.15 M133.05 40.45 L133.55 40.45 133.3 41.55 133.05 40.45 M161.15 35.2 L161.65 34.8 162.2 34.5 161.25 35.25 161.15 35.2 M149.8 55.9 L150.4 55.9 150.1 57.05 149.8 55.9" fill="#3d2a19" fill-rule="evenodd" stroke="none"/>
      <path d="M170.6 51.65 L169.5 52.0 166.9 52.1 170.6 51.65 M157.95 52.4 L157.9 52.9 159.4 52.5 159.55 52.5 159.3 52.85 159.4 53.1 161.4 52.8 165.9 52.2 166.25 52.2 166.8 52.5 163.85 53.6 162.05 54.1 Q158.2 53.2 156.75 52.55 L157.7 52.4 157.95 52.4 M169.95 48.3 L168.85 48.15 168.65 48.45 167.7 48.5 167.55 48.8 164.55 48.45 164.85 48.75 164.25 48.85 163.6 48.85 163.3 48.9 161.85 49.0 161.7 49.2 161.15 49.05 161.15 48.95 Q161.05 48.65 161.2 48.7 L161.35 48.65 161.05 48.7 160.85 49.25 158.0 49.45 162.95 43.35 169.95 48.3 M163.25 31.95 L160.85 31.55 Q158.5 31.4 158.2 37.25 157.1 36.45 150.75 36.0 L143.05 35.75 134.9 33.5 Q126.05 31.35 118.1 31.95 L121.7 30.75 Q124.85 29.8 125.8 29.8 L130.7 30.5 138.5 31.95 140.3 32.35 142.8 32.7 151.85 31.95 Q154.35 31.95 156.85 29.8 159.3 27.65 160.2 27.65 161.2 27.65 166.05 31.05 164.8 32.05 163.25 31.95 M175.0 53.75 L174.4 53.85 176.4 52.85 175.0 53.75 M130.7 22.45 Q132.3 22.45 133.45 23.35 134.55 24.2 134.55 25.45 134.55 26.7 133.45 27.6 132.3 28.45 130.7 28.45 129.1 28.45 128.0 27.6 126.85 26.7 126.85 25.45 126.85 24.2 128.0 23.35 129.1 22.45 130.7 22.45 M147.7 30.15 L147.4 31.0 147.1 30.15 147.7 30.15 M144.55 26.05 L145.1 26.05 144.8 26.85 144.55 26.05 M145.6 30.65 L145.9 31.9 145.15 30.9 145.6 30.65 M157.75 37.8 L158.25 37.8 158.0 38.9 157.75 37.8 M84.7 30.65 Q84.0 30.4 83.8 29.75 83.4 28.5 86.0 26.65 L84.7 30.65 M118.45 28.25 L118.9 28.25 118.65 29.05 118.45 28.25 M152.15 55.05 L151.8 55.45 151.8 54.3 152.15 54.45 152.15 55.05 M77.1 21.95 L77.75 22.4 77.4 22.2 77.1 21.95 M80.0 40.9 L79.9 40.95 78.8 40.55 78.95 40.5 79.65 40.7 80.0 40.9 M77.2 26.35 L78.3 27.05 77.1 26.4 77.2 26.35" fill="#3c2918" fill-rule="evenodd" stroke="none"/>
      <path d="M165.25 55.05 L164.4 54.75 Q164.55 54.45 165.1 54.9 L165.25 55.05 M152.0 23.95 L151.7 23.15 152.3 23.15 152.0 23.95 M123.5 23.15 L122.7 23.55 121.8 23.75 123.1 23.1 123.5 23.15 M133.9 18.35 L133.5 18.7 133.0 18.95 Q133.2 18.5 133.7 18.4 L133.9 18.35 M132.2 17.25 L132.7 17.25 132.45 17.95 132.2 17.25 M128.1 45.75 L128.15 45.65 128.45 45.5 128.6 45.5 Q128.6 45.9 128.1 45.75 M101.6 22.45 L102.1 22.45 101.85 23.2 101.6 22.45 M120.1 22.15 L120.7 22.15 120.4 22.85 120.1 22.15 M93.95 17.75 L94.5 17.5 Q95.05 17.2 95.25 17.25 L95.45 17.35 93.95 17.75 M97.65 23.9 L97.15 24.3 96.4 24.6 96.95 24.2 97.65 23.9 M97.45 20.5 L96.55 20.65 Q98.4 19.75 98.4 20.15 L97.45 20.5 M101.2 29.35 L101.5 29.65 101.6 29.85 101.0 29.5 101.2 29.35 M91.4 34.25 L92.05 34.25 91.7 35.3 91.4 34.25 M88.5 30.0 L88.05 30.35 87.25 30.6 87.75 30.3 88.5 30.0 M90.9 30.3 L90.6 31.05 90.35 30.3 90.9 30.3 M93.7 40.65 L94.25 40.65 93.95 41.75 93.7 40.65 M108.2 25.05 L108.35 25.6 108.15 26.1 108.05 25.55 Q107.95 25.0 108.2 25.05 M105.25 27.85 L105.85 27.35 106.15 27.4 105.25 27.85 M114.2 41.8 L113.85 42.3 113.15 42.6 113.8 41.75 114.2 41.8" fill="#3c291a" fill-rule="evenodd" stroke="none"/>
      <path d="M173.55 79.3 L171.9 79.3 Q176.85 78.95 173.55 79.3" fill="#5a3719" fill-rule="evenodd" stroke="none"/>
      <path d="M210.25 74.9 L211.75 74.8 208.4 75.35 209.2 75.15 209.6 75.05 210.25 74.9" fill="#302723" fill-opacity="0.78431374" fill-rule="evenodd" stroke="none"/>
      <path d="M208.4 75.35 L208.75 75.25 209.2 75.15 208.4 75.35 M208.9 75.15 L210.25 74.9 209.6 75.05 208.9 75.15" fill="#2e281f" fill-opacity="0.62352943" fill-rule="evenodd" stroke="none"/>
      <path d="M147.5 2.65 L148.15 2.75 144.85 2.65 147.5 2.65 M123.75 2.55 L124.25 2.6 127.8 2.65 130.05 2.7 130.2 2.85 130.35 3.1 129.8 3.25 122.1 2.7 120.7 2.5 123.75 2.55 M99.75 3.15 L99.95 3.0 100.25 3.0 99.65 3.2 99.75 3.15 M98.75 3.2 L97.2 3.25 97.15 3.2 98.75 3.2 M161.0 4.85 L160.9 5.4 159.45 4.85 161.0 4.85 M116.75 2.9 Q117.2 3.2 116.45 2.95 L116.75 2.9" fill="#463424" fill-rule="evenodd" stroke="none"/>
      <path d="M125.15 19.95 L125.1 19.9 Q125.75 19.6 125.6 19.9 L125.15 19.95 M146.0 27.7 Q146.6 26.85 148.0 25.85 150.4 24.2 153.35 24.0 155.2 27.05 151.4 28.2 147.8 29.25 146.0 27.7 M85.65 21.45 L85.65 21.6 84.65 23.6 Q85.35 21.6 85.65 21.45 M84.05 32.35 L84.75 32.35 84.4 33.4 84.05 32.35 M114.5 27.75 L113.65 27.95 115.35 27.4 114.5 27.75" fill="#3c2919" fill-rule="evenodd" stroke="none"/>
      <path d="M131.6 19.7 Q132.1 19.6 132.25 20.1 L131.55 19.8 131.6 19.7 M106.6 26.75 L106.5 26.75 107.3 26.3 106.6 26.75 M102.0 34.6 L102.5 34.6 102.25 36.1 102.0 34.6 M105.95 30.45 L106.55 30.45 106.25 31.2 105.95 30.45" fill="#3a2718" fill-rule="evenodd" stroke="none"/>
      <path d="M95.35 22.85 L95.9 22.85 95.6 23.7 95.35 22.85 M86.55 32.8 Q87.05 32.45 87.8 32.35 87.65 32.65 86.8 32.8 L86.55 32.8 M92.65 39.65 L93.15 39.65 92.9 40.7 92.65 39.65" fill="#3d2a1b" fill-rule="evenodd" stroke="none"/>
      <path d="M70.7 14.2 L70.9 14.0 70.9 14.2 70.7 14.2 M68.05 14.45 L68.05 14.4 Q68.1 14.3 68.2 14.35 L68.05 14.45 M80.3 12.45 L80.55 12.45 80.4 12.75 80.3 12.45 M74.8 13.15 L75.3 13.15 75.3 13.35 74.8 13.35 74.8 13.15" fill="#c1b091" fill-rule="evenodd" stroke="none"/>
      <path d="M50.55 32.55 L50.5 32.55 49.45 32.0 50.55 32.55" fill="#453223" fill-rule="evenodd" stroke="none"/>
      <path d="M25.35 37.1 L25.45 37.25 25.0 37.9 24.95 37.05 25.35 37.1" fill="#463223" fill-rule="evenodd" stroke="none"/>
    </g>
    <radialGradient cx="0" cy="0" gradientTransform="matrix(0.1698, 0.0, 0.0, -0.0527, 131.85, 46.0)" gradientUnits="userSpaceOnUse" id="gradient0" r="819.2" spreadMethod="pad">
      <stop offset="0.8509803921568627" stop-color="#000000" stop-opacity="0.7490196"/>
      <stop offset="1.0" stop-color="#000000" stop-opacity="0.0"/>
    </radialGradient>
  </defs>
</svg>
