<?xml version="1.0" encoding="UTF-8" standalone="no"?>
<svg xmlns:xlink="http://www.w3.org/1999/xlink" height="53.5px" width="55.85px" xmlns="http://www.w3.org/2000/svg">
  <g transform="matrix(1.0, 0.0, 0.0, 1.0, 0.0, 0.0)">
    <use height="53.5" transform="matrix(1.0, 0.0, 0.0, 1.0, 0.0, 0.0)" width="55.85" xlink:href="#shape0"/>
  </g>
  <defs>
    <g id="shape0" transform="matrix(1.0, 0.0, 0.0, 1.0, 0.0, 0.0)">
      <path d="M34.05 9.9 L37.1 9.9 37.5 12.55 Q37.65 16.2 36.5 21.35 35.3 26.6 31.6 30.75 29.4 33.2 24.45 37.6 21.4 40.65 20.3 47.25 19.75 50.6 19.8 53.3 L14.2 53.3 Q14.4 51.9 14.95 49.85 16.1 45.75 17.8 42.45 20.05 38.2 24.15 34.25 29.2 29.35 31.05 26.75 34.1 22.65 34.35 15.85 34.5 12.45 34.05 9.9" fill="url(#gradient0)" fill-rule="evenodd" stroke="none"/>
      <path d="M52.45 9.6 L54.05 10.5 Q55.0 11.1 55.4 11.85 56.6 13.8 54.55 14.65 L51.1 15.5 Q50.35 15.75 50.05 17.15 49.85 18.2 48.05 17.85 L44.9 16.65 Q42.95 15.8 41.6 15.9 40.2 16.0 38.05 17.5 35.95 19.05 34.65 19.1 33.9 19.15 32.6 18.45 31.3 17.7 30.55 17.7 L29.6 18.0 28.75 18.25 Q27.9 18.2 27.65 17.65 L27.0 16.25 Q26.1 14.9 23.75 15.45 21.25 16.0 20.35 15.2 18.9 14.0 20.7 12.35 21.1 12.0 23.65 10.35 24.95 9.5 25.15 7.75 25.35 5.8 26.0 5.05 26.7 4.25 28.2 4.2 L30.7 4.1 Q32.0 3.85 33.0 2.95 L34.65 0.95 39.15 0.85 Q42.4 2.6 43.15 1.85 45.55 -0.5 48.15 3.6 51.75 9.2 52.45 9.6" fill="url(#gradient1)" fill-rule="evenodd" stroke="none"/>
      <path d="M42.3 6.1 L42.6 6.6 43.15 6.55 44.9 6.25 Q45.9 6.25 46.3 7.25 L46.6 8.4 46.95 9.55 48.4 11.05 Q49.35 12.2 48.75 12.95 48.1 13.75 46.35 12.95 44.05 11.85 43.8 11.85 43.1 11.85 41.9 12.9 40.75 13.85 40.0 13.7 L39.25 13.4 38.45 13.2 37.45 13.85 36.55 14.75 Q35.3 15.65 33.9 14.5 L31.45 12.7 29.1 13.0 Q27.25 13.2 27.3 12.25 27.35 11.8 27.85 11.5 L28.6 11.0 29.25 10.15 29.5 9.55 Q29.95 8.2 32.25 8.25 34.45 8.3 34.85 6.7 L35.0 6.0 Q35.1 5.7 35.45 5.5 L37.0 5.65 38.7 6.9 Q39.6 7.35 40.4 6.4 41.55 5.15 42.3 6.1" fill="#6eb899" fill-rule="evenodd" stroke="none"/>
      <path d="M9.95 19.85 L9.8 23.45 Q9.95 27.5 11.35 30.05 12.35 31.75 14.7 34.05 16.65 36.0 17.7 38.5 19.0 41.7 19.35 46.05 L16.7 46.05 16.45 42.4 Q15.9 38.4 14.5 36.6 L11.1 32.45 Q9.35 29.95 8.8 26.75 8.25 23.65 8.35 21.45 L8.5 19.85 9.95 19.85" fill="url(#gradient2)" fill-rule="evenodd" stroke="none"/>
      <path d="M7.1 18.35 L7.8 18.5 Q8.5 18.6 9.45 18.1 10.45 17.6 10.95 17.55 12.0 17.5 12.75 19.0 13.65 20.8 14.2 21.15 L15.95 21.85 Q16.8 22.2 17.25 23.05 L17.3 23.35 17.45 23.75 18.25 24.55 Q18.5 24.95 17.65 25.35 L16.65 25.4 15.6 25.4 Q15.15 25.5 14.35 26.0 13.55 26.5 13.05 26.6 L11.4 26.3 9.8 26.0 8.1 27.1 Q7.1 27.85 6.1 27.55 5.45 27.4 4.5 26.45 3.55 25.5 2.8 25.35 L1.2 25.1 Q0.2 24.85 0.05 24.2 -0.2 23.2 1.1 22.35 L3.05 21.15 3.9 19.8 4.75 18.5 Q5.25 18.1 5.95 18.1 L7.1 18.35" fill="url(#gradient3)" fill-rule="evenodd" stroke="none"/>
      <path d="M9.2 20.55 L10.2 20.7 11.15 20.4 Q11.65 20.25 12.1 20.6 L12.55 21.45 13.0 22.25 Q13.2 22.45 13.55 22.45 L14.2 22.55 Q14.55 22.6 14.75 22.8 L15.15 23.35 15.05 24.05 14.5 24.3 14.0 24.2 12.7 24.6 11.35 24.85 10.0 24.55 Q9.35 24.45 8.65 25.0 L7.45 25.85 6.05 25.75 5.1 24.8 Q4.6 24.2 3.95 24.15 L2.7 24.25 Q2.05 24.2 2.15 23.55 2.25 22.85 3.5 22.55 4.95 22.2 5.2 21.85 5.95 20.55 6.35 20.2 L8.25 20.15 9.2 20.55" fill="#489eb3" fill-rule="evenodd" stroke="none"/>
      <path d="M30.8 43.95 Q31.55 41.0 32.85 38.85 L34.0 37.3 33.4 39.55 Q32.8 42.2 32.65 44.45 32.55 46.7 33.55 50.35 L34.6 53.5 30.1 53.5 Q29.55 48.7 30.8 43.95" fill="url(#gradient4)" fill-rule="evenodd" stroke="none"/>
    </g>
    <radialGradient cx="0" cy="0" gradientTransform="matrix(0.0943, 0.0, 0.0, -0.0943, 46.7, -36.5)" gradientUnits="userSpaceOnUse" id="gradient0" r="819.2" spreadMethod="pad">
      <stop offset="0.0" stop-color="#de7500"/>
      <stop offset="1.0" stop-color="#1f1a00"/>
    </radialGradient>
    <radialGradient cx="0" cy="0" gradientTransform="matrix(0.0725, 0.0, 0.0, -0.107, 35.85, 10.2)" gradientUnits="userSpaceOnUse" id="gradient1" r="819.2" spreadMethod="pad">
      <stop offset="0.0" stop-color="#eadfbf"/>
      <stop offset="1.0" stop-color="#cdb067"/>
    </radialGradient>
    <radialGradient cx="0" cy="0" gradientTransform="matrix(-0.0445, 0.0, 0.0, -0.057, 4.0, -8.2)" gradientUnits="userSpaceOnUse" id="gradient2" r="819.2" spreadMethod="pad">
      <stop offset="0.0" stop-color="#de7500"/>
      <stop offset="1.0" stop-color="#1f1a00"/>
    </radialGradient>
    <radialGradient cx="0" cy="0" gradientTransform="matrix(-0.0191, 0.0, 0.0, -0.028, 4.1, 15.1)" gradientUnits="userSpaceOnUse" id="gradient3" r="819.2" spreadMethod="pad">
      <stop offset="0.0" stop-color="#eadfbf"/>
      <stop offset="1.0" stop-color="#cdb067"/>
    </radialGradient>
    <radialGradient cx="0" cy="0" gradientTransform="matrix(-0.0417, -0.0023, 0.002, -0.0355, 29.8, 19.45)" gradientUnits="userSpaceOnUse" id="gradient4" r="819.2" spreadMethod="pad">
      <stop offset="0.0" stop-color="#de7500"/>
      <stop offset="1.0" stop-color="#1f1a00"/>
    </radialGradient>
  </defs>
</svg>
