<?xml version="1.0" encoding="UTF-8" standalone="no"?>
<svg xmlns:xlink="http://www.w3.org/1999/xlink" height="38.25px" width="42.4px" xmlns="http://www.w3.org/2000/svg">
  <g transform="matrix(1.0, 0.0, 0.0, 1.0, 0.0, 0.0)">
    <use height="38.25" transform="matrix(1.0, 0.0, 0.0, 1.0, 0.0, 0.0)" width="42.4" xlink:href="#shape0"/>
    <use height="2.95" transform="matrix(1.0, 0.0, 0.0, 1.0, 18.2, 26.4)" width="5.45" xlink:href="#sprite0"/>
    <use height="2.5" transform="matrix(1.0, 0.0, 0.0, 1.0, 24.45, 23.75)" width="4.0" xlink:href="#sprite1"/>
    <use height="2.1" transform="matrix(1.0, 0.0, 0.0, 1.0, 12.7, 28.35)" width="4.2" xlink:href="#sprite2"/>
    <use height="1.55" transform="matrix(1.0, 0.0, 0.0, 1.0, 8.05, 29.25)" width="3.25" xlink:href="#sprite3"/>
    <use height="2.95" transform="matrix(1.0, 0.0, 0.0, 1.0, 30.05, 19.85)" width="3.65" xlink:href="#sprite4"/>
    <use height="13.35" transform="matrix(1.0, 0.0, 0.0, 1.0, 17.45, 12.5)" width="23.85" xlink:href="#shape4"/>
    <use height="1.05" transform="matrix(1.0, 0.0, 0.0, 1.0, 39.85, 16.95)" width="0.5" xlink:href="#sprite5"/>
    <use height="1.05" transform="matrix(1.0, 0.0, 0.0, 1.0, 36.7, 15.7)" width="0.45" xlink:href="#sprite6"/>
    <use height="9.65" transform="matrix(1.0, 0.0, 0.0, 1.0, 1.45, 19.9)" width="21.45" xlink:href="#shape6"/>
  </g>
  <defs>
    <g id="shape0" transform="matrix(1.0, 0.0, 0.0, 1.0, 0.0, 0.0)">
      <path d="M42.1 16.5 Q42.95 19.0 41.45 22.8 40.15 26.05 35.5 29.2 L26.7 34.2 Q23.6 36.0 18.85 37.25 12.2 38.95 6.95 37.75 2.0 36.65 0.5 32.95 -0.95 29.45 1.85 27.35 4.2 25.6 9.25 24.8 14.0 24.05 15.4 22.7 L15.55 22.7 15.85 21.55 Q16.4 16.3 16.0 9.8 L15.55 4.9 14.75 0.05 19.05 0.25 21.0 0.15 22.8 0.4 Q22.55 3.25 23.05 10.35 L23.75 20.35 Q25.25 20.0 27.25 18.5 L30.35 15.9 Q32.15 14.5 34.35 13.8 36.7 13.0 38.5 13.4 41.3 14.05 42.1 16.5" fill="#20141b" fill-rule="evenodd" stroke="none"/>
      <path d="M13.9 33.1 Q13.9 34.8 12.45 36.0 11.0 37.2 8.95 37.2 6.9 37.2 5.4 36.0 3.95 34.8 3.95 33.1 3.95 31.4 5.4 30.2 6.9 29.0 8.95 29.0 11.0 29.0 12.45 30.2 13.9 31.4 13.9 33.1" fill="#5c70ba" fill-rule="evenodd" stroke="none"/>
      <path d="M20.25 31.15 Q20.65 32.8 19.5 34.3 18.3 35.8 16.3 36.2 14.3 36.65 12.65 35.8 10.95 34.95 10.6 33.3 10.25 31.6 11.4 30.15 12.55 28.65 14.55 28.2 16.55 27.75 18.25 28.65 19.9 29.5 20.25 31.15" fill="#5c70ba" fill-rule="evenodd" stroke="none"/>
      <path d="M26.6 28.9 Q27.05 30.5 25.95 32.05 24.9 33.65 22.9 34.15 L19.2 33.95 Q17.5 33.2 17.0 31.55 16.55 29.95 17.65 28.4 18.7 26.8 20.7 26.25 L24.4 26.45 Q26.1 27.25 26.6 28.9" fill="#5c70ba" fill-rule="evenodd" stroke="none"/>
      <path d="M32.45 25.1 Q33.15 26.65 32.35 28.35 31.55 30.05 29.7 30.95 27.85 31.8 26.0 31.35 24.2 30.9 23.45 29.35 22.75 27.8 23.55 26.1 24.35 24.4 26.2 23.5 28.1 22.65 29.9 23.1 31.75 23.55 32.45 25.1" fill="#5c70ba" fill-rule="evenodd" stroke="none"/>
      <path d="M37.9 21.05 Q38.75 22.5 38.1 24.3 37.45 26.05 35.7 27.1 33.9 28.15 32.05 27.85 30.2 27.55 29.35 26.05 28.5 24.6 29.1 22.8 29.75 21.05 31.55 20.0 33.3 19.0 35.2 19.3 37.05 19.6 37.9 21.05" fill="#5c70ba" fill-rule="evenodd" stroke="none"/>
      <path d="M16.5 19.4 L18.8 18.05 23.05 18.15 23.1 18.45 Q22.95 18.75 22.0 18.7 L19.1 19.05 Q17.3 19.45 16.9 19.8 L16.4 19.9 Q16.3 19.7 16.5 19.4" fill="#393340" fill-rule="evenodd" stroke="none"/>
      <path d="M22.25 15.25 Q22.8 15.55 22.95 16.3 23.15 17.0 22.75 16.85 20.2 16.45 19.8 16.0 19.4 15.65 20.35 15.2 L22.25 15.25" fill="#393340" fill-rule="evenodd" stroke="none"/>
    </g>
    <g id="sprite0" transform="matrix(1.0, 0.0, 0.0, 1.0, 0.0, 0.0)">
      <use height="2.1" transform="matrix(1.2976, 0.0, 0.0, 1.4048, 0.0, 0.0)" width="4.2" xlink:href="#shape1"/>
    </g>
    <g id="shape1" transform="matrix(1.0, 0.0, 0.0, 1.0, 0.0, 0.0)">
      <path d="M4.2 0.6 Q4.3 1.0 3.7 1.4 3.15 1.8 2.3 2.0 L0.75 2.05 Q0.1 1.85 0.0 1.45 -0.05 1.05 0.5 0.65 1.05 0.25 1.9 0.1 L3.45 0.05 Q4.15 0.2 4.2 0.6" fill="#d9c57c" fill-rule="evenodd" stroke="none"/>
    </g>
    <g id="sprite1" transform="matrix(1.0, 0.0, 0.0, 1.0, 0.0, -0.05)">
      <use height="2.95" transform="matrix(1.0959, 0.0, 0.0, 0.8475, 0.0, 0.05)" width="3.65" xlink:href="#shape2"/>
    </g>
    <g id="shape2" transform="matrix(1.0, 0.0, 0.0, 1.0, 0.0, 0.0)">
      <path d="M3.55 0.2 Q3.8 0.55 3.45 1.15 L2.4 2.25 Q1.65 2.8 1.0 2.9 L0.05 2.7 Q-0.15 2.35 0.2 1.75 L1.25 0.65 Q1.95 0.15 2.65 0.05 L3.55 0.2" fill="#d9c57c" fill-rule="evenodd" stroke="none"/>
    </g>
    <g id="sprite2" transform="matrix(1.0, 0.0, 0.0, 1.0, 0.0, 0.0)">
      <use height="2.1" transform="matrix(1.0, 0.0, 0.0, 1.0, 0.0, 0.0)" width="4.2" xlink:href="#shape1"/>
    </g>
    <g id="sprite3" transform="matrix(1.0, 0.0, 0.0, 1.0, 0.0, 0.0)">
      <use height="1.55" transform="matrix(1.0, 0.0, 0.0, 1.0, 0.0, 0.0)" width="3.25" xlink:href="#shape3"/>
    </g>
    <g id="shape3" transform="matrix(1.0, 0.0, 0.0, 1.0, 0.0, 0.0)">
      <path d="M3.25 0.85 L2.75 1.35 1.6 1.55 Q0.0 1.45 0.0 0.7 0.1 0.0 1.65 0.0 3.25 0.1 3.25 0.85" fill="#d9c57c" fill-rule="evenodd" stroke="none"/>
    </g>
    <g id="sprite4" transform="matrix(1.0, 0.0, 0.0, 1.0, 0.0, 0.0)">
      <use height="2.95" transform="matrix(1.0, 0.0, 0.0, 1.0, 0.0, 0.0)" width="3.65" xlink:href="#shape2"/>
    </g>
    <g id="shape4" transform="matrix(1.0, 0.0, 0.0, 1.0, -17.45, -12.5)">
      <path d="M19.0 12.6 Q20.15 12.35 20.9 12.9 21.65 13.4 20.9 13.55 L17.9 13.95 Q17.1 13.95 17.7 13.35 18.3 12.7 19.0 12.6" fill="#393340" fill-rule="evenodd" stroke="none"/>
      <path d="M35.9 13.6 Q38.1 13.15 39.95 14.1 L41.3 15.1 Q39.3 14.35 37.7 14.45 37.1 14.5 35.35 15.25 L33.55 15.4 Q32.9 14.95 33.95 14.35 34.85 13.8 35.9 13.6" fill="#393340" fill-rule="evenodd" stroke="none"/>
      <path d="M34.25 21.35 Q34.55 21.25 34.3 21.55 L33.9 22.25 Q33.85 22.6 34.15 22.65 L34.65 22.5 Q35.45 22.05 35.25 22.35 L34.35 23.0 Q33.75 23.25 33.45 22.85 33.2 22.5 33.55 21.95 L34.25 21.35" fill="#1f1a1c" fill-rule="evenodd" stroke="none"/>
      <path d="M36.25 24.35 Q36.5 24.2 36.3 24.5 L36.05 25.15 Q36.05 25.7 36.7 25.25 37.35 24.8 37.2 25.1 L36.55 25.7 Q36.0 26.0 35.7 25.7 35.45 25.45 35.7 24.95 L36.25 24.35" fill="#1f1a1c" fill-rule="evenodd" stroke="none"/>
      <path d="M33.6 24.65 Q33.8 24.5 34.1 24.9 34.4 25.3 34.3 25.45 L33.85 25.15 33.6 24.65" fill="#a11a24" fill-rule="evenodd" stroke="none"/>
      <path d="M36.0 19.85 L36.65 18.55 Q37.0 17.35 36.65 16.7 36.2 15.85 36.7 15.65 37.1 15.5 37.4 15.95 37.7 16.35 37.6 16.95 37.4 18.55 36.2 20.0 L36.0 19.85" fill="#5c70ba" fill-rule="evenodd" stroke="none"/>
      <path d="M40.75 18.8 Q39.95 20.35 37.9 21.5 L37.7 21.2 Q39.2 20.3 39.7 19.35 L39.9 18.3 39.75 17.45 Q39.75 16.35 40.5 16.8 40.85 17.0 40.95 17.65 L40.75 18.8" fill="#5c70ba" fill-rule="evenodd" stroke="none"/>
    </g>
    <g id="sprite5" transform="matrix(1.0, 0.0, 0.0, 1.0, 0.0, -0.05)">
      <use height="1.05" transform="matrix(1.1111, 0.0, 0.0, 1.0, 0.0, 0.05)" width="0.45" xlink:href="#shape5"/>
    </g>
    <g id="shape5" transform="matrix(1.0, 0.0, 0.0, 1.0, 0.0, -0.05)">
      <path d="M0.25 0.05 Q0.6 0.25 0.4 0.75 L0.05 0.95 0.05 0.3 Q0.1 -0.05 0.25 0.05" fill="#d9c57c" fill-rule="evenodd" stroke="none"/>
    </g>
    <g id="sprite6" transform="matrix(1.0, 0.0, 0.0, 1.0, 0.0, -0.05)">
      <use height="1.05" transform="matrix(1.0, 0.0, 0.0, 1.0, 0.0, 0.05)" width="0.45" xlink:href="#shape5"/>
    </g>
    <g id="shape6" transform="matrix(1.0, 0.0, 0.0, 1.0, -1.45, -19.9)">
      <path d="M20.45 19.9 Q22.1 19.9 22.7 20.45 23.2 20.95 22.45 21.15 L18.95 22.55 17.05 22.8 Q16.25 22.5 16.5 21.8 16.75 21.2 18.0 20.55 19.3 19.9 20.45 19.9" fill="#393340" fill-rule="evenodd" stroke="none"/>
      <path d="M14.9 24.25 Q16.6 23.8 17.3 24.65 18.0 25.5 16.75 26.4 14.5 27.95 9.65 27.65 6.35 27.4 3.6 28.95 2.55 29.55 1.9 29.55 1.15 29.5 1.65 28.45 2.15 27.45 3.65 26.8 4.7 26.35 6.9 25.9 L14.9 24.25" fill="#393340" fill-rule="evenodd" stroke="none"/>
      <path d="M21.45 22.55 Q23.2 22.45 22.75 23.55 22.3 24.7 20.8 24.8 19.45 24.9 19.95 23.75 20.4 22.65 21.45 22.55" fill="#393340" fill-rule="evenodd" stroke="none"/>
    </g>
  </defs>
</svg>
