<?xml version="1.0" encoding="UTF-8" standalone="no"?>
<svg xmlns:xlink="http://www.w3.org/1999/xlink" height="43.2px" width="44.5px" xmlns="http://www.w3.org/2000/svg">
  <g transform="matrix(1.0, 0.0, 0.0, 1.0, 0.0, 0.0)">
    <use height="36.75" transform="matrix(1.0, 0.0, 0.0, 1.0, 0.0, 6.45)" width="26.15" xlink:href="#shape0"/>
    <use height="34.05" transform="matrix(1.0, 0.0, 0.0, 1.0, 2.4, 6.8)" width="5.7" xlink:href="#sprite0"/>
    <use height="34.05" transform="matrix(1.0, 0.0, 0.0, 1.0, 18.25, 6.8)" width="5.7" xlink:href="#sprite1"/>
    <use height="3.35" transform="matrix(1.0, 0.0, 0.0, 1.0, 4.4, 6.45)" width="17.75" xlink:href="#sprite2"/>
    <use height="8.65" transform="matrix(1.0, 0.0, 0.0, 1.0, 3.3, 0.0)" width="19.65" xlink:href="#shape4"/>
    <use height="1.3" transform="matrix(1.0, 0.0, 0.0, 1.0, 4.65, 7.3)" width="10.3" xlink:href="#sprite3"/>
    <use height="2.5" transform="matrix(1.0, 0.0, 0.0, 1.0, 3.6, 39.1)" width="4.75" xlink:href="#shape6"/>
  </g>
  <defs>
    <g id="shape0" transform="matrix(1.0, 0.0, 0.0, 1.0, 0.0, -6.45)">
      <path d="M24.1 10.45 Q25.2 11.65 25.65 12.7 26.15 14.05 26.15 16.25 L25.75 26.7 25.25 36.0 Q25.1 37.7 23.75 39.35 21.9 41.6 18.5 42.55 L13.1 43.2 7.65 42.55 Q4.2 41.6 2.4 39.35 1.05 37.75 0.9 36.0 L0.4 26.7 0.0 16.25 Q0.0 14.0 0.5 12.7 0.9 11.65 2.0 10.45 4.15 8.1 4.95 6.45 L13.1 6.9 21.2 6.45 Q22.1 8.2 24.1 10.45" fill="url(#gradient0)" fill-rule="evenodd" stroke="none"/>
      <path d="M23.35 10.65 Q24.4 11.85 24.75 12.9 25.25 14.2 25.25 16.35 L24.9 26.45 24.4 35.5 Q24.25 37.2 23.0 38.75 21.3 40.9 18.05 41.85 15.55 42.6 13.0 42.5 L7.9 41.85 Q4.65 40.9 2.95 38.75 1.7 37.2 1.55 35.5 L1.05 26.45 0.7 16.35 Q0.7 14.2 1.2 12.9 1.55 11.85 2.6 10.65 4.35 8.6 5.35 6.8 L13.0 7.15 20.6 6.8 Q21.3 8.4 23.35 10.65" fill="url(#gradient1)" fill-rule="evenodd" stroke="none"/>
      <path d="M14.0 21.0 L18.2 20.65 17.75 37.05 15.4 37.6 Q12.35 38.05 8.8 37.65 5.6 37.3 3.6 35.9 L2.2 34.55 1.4 19.95 3.7 20.55 Q4.3 18.55 5.65 17.3 7.05 16.0 8.7 16.0 10.5 15.95 11.95 17.4 13.4 18.75 14.0 21.0" fill="url(#gradient2)" fill-rule="evenodd" stroke="none"/>
      <path d="M8.65 17.05 Q10.35 17.05 11.7 18.3 13.05 19.55 13.6 21.65 L17.3 21.3 17.5 21.3 17.1 36.6 17.0 36.65 Q15.05 37.4 11.6 37.4 L8.75 37.25 Q5.8 36.9 3.95 35.6 L2.6 34.35 2.55 34.25 1.85 20.5 2.1 20.65 4.0 21.2 Q4.6 19.3 5.9 18.15 7.15 17.05 8.65 17.05 M6.05 18.5 Q4.8 19.6 4.25 21.4 L4.2 21.55 4.05 21.55 2.2 21.1 2.9 34.2 Q4.7 36.45 8.8 36.9 L11.6 37.05 16.8 36.35 17.15 21.7 13.5 22.0 13.35 22.0 13.3 21.85 Q12.8 19.85 11.5 18.6 10.25 17.35 8.7 17.35 7.25 17.4 6.05 18.5" fill="#ffd66e" fill-rule="evenodd" stroke="none"/>
      <path d="M12.0 23.0 Q12.0 24.8 11.0 26.05 10.0 27.3 8.6 27.3 7.2 27.3 6.25 26.05 5.25 24.8 5.25 23.0 5.25 21.25 6.25 20.0 7.2 18.75 8.6 18.75 10.0 18.75 11.0 20.0 12.0 21.25 12.0 23.0" fill="url(#gradient3)" fill-rule="evenodd" stroke="none"/>
      <path d="M8.3 20.6 L8.2 21.15 11.95 22.55 12.0 23.0 11.75 24.45 7.9 21.7 7.75 21.85 10.5 26.55 Q9.8 27.2 9.0 27.25 L7.2 22.1 7.05 22.15 6.9 22.1 6.7 26.55 5.7 25.15 6.3 21.85 Q5.8 21.45 5.8 20.7 6.35 19.65 7.25 19.1 L7.6 19.25 8.2 18.8 8.6 18.75 Q9.35 18.75 9.85 19.05 L8.05 19.7 8.25 20.2 10.75 19.7 11.5 20.8 8.3 20.6" fill="#ffd66e" fill-rule="evenodd" stroke="none"/>
      <path d="M15.55 28.65 L15.65 30.15 Q15.5 31.2 15.05 31.2 14.65 31.2 14.5 30.55 L14.45 29.9 9.45 30.1 9.5 34.85 10.9 34.9 Q12.25 35.1 12.1 35.55 11.7 36.6 8.7 36.05 5.85 35.6 5.85 34.7 L6.9 34.5 7.9 34.65 7.9 33.9 7.55 29.7 4.1 29.1 4.05 29.55 3.7 30.45 Q3.1 31.15 3.1 28.7 3.1 26.55 3.95 27.0 L4.3 28.1 Q5.65 28.85 8.4 28.9 L14.1 28.65 14.5 27.6 Q14.6 27.35 15.0 27.75 L15.55 28.65" fill="#ffd66e" fill-rule="evenodd" stroke="none"/>
    </g>
    <linearGradient gradientTransform="matrix(0.016, 0.0, 0.0, -0.016, 13.1, 24.8)" gradientUnits="userSpaceOnUse" id="gradient0" spreadMethod="pad" x1="-819.2" x2="819.2">
      <stop offset="0.0" stop-color="#ffe9d1"/>
      <stop offset="1.0" stop-color="#855c30"/>
    </linearGradient>
    <linearGradient gradientTransform="matrix(0.015, 0.0, 0.0, -0.015, 13.0, 24.65)" gradientUnits="userSpaceOnUse" id="gradient1" spreadMethod="pad" x1="-819.2" x2="819.2">
      <stop offset="0.0" stop-color="#ffc98c"/>
      <stop offset="1.0" stop-color="#9c703f"/>
    </linearGradient>
    <linearGradient gradientTransform="matrix(0.0103, 0.0, 0.0, -0.0103, 9.85, 26.9)" gradientUnits="userSpaceOnUse" id="gradient2" spreadMethod="pad" x1="-819.2" x2="819.2">
      <stop offset="0.0" stop-color="#6e7dff"/>
      <stop offset="0.20392156862745098" stop-color="#6574fb"/>
      <stop offset="0.5450980392156862" stop-color="#4c5bef"/>
      <stop offset="0.9686274509803922" stop-color="#2433dc"/>
      <stop offset="1.0" stop-color="#2130db"/>
    </linearGradient>
    <linearGradient gradientTransform="matrix(0.0041, 0.0, 0.0, -0.0041, 8.6, 23.0)" gradientUnits="userSpaceOnUse" id="gradient3" spreadMethod="pad" x1="-819.2" x2="819.2">
      <stop offset="0.0" stop-color="#ff9354"/>
      <stop offset="0.2235294117647059" stop-color="#f68e51"/>
      <stop offset="0.5882352941176471" stop-color="#dd8048"/>
      <stop offset="1.0" stop-color="#ba6c3c"/>
    </linearGradient>
    <g id="sprite0" transform="matrix(1.0, 0.0, 0.0, 1.0, 0.0, 0.0)">
      <use height="30.15" transform="matrix(1.1287, 0.0, 0.0, 1.1293, 0.0, 0.0)" width="5.05" xlink:href="#shape1"/>
    </g>
    <g id="shape1" transform="matrix(1.0, 0.0, 0.0, 1.0, 0.0, 0.0)">
      <path d="M0.0 6.2 Q0.05 5.5 0.75 4.5 L1.85 3.05 3.2 0.5 5.05 0.0 4.5 2.1 3.45 4.7 Q2.8 6.2 2.7 6.95 2.55 7.8 2.55 14.55 L2.55 24.2 Q2.6 28.35 3.1 30.15 L1.75 28.75 0.7 27.15 0.3 26.35 0.0 6.2" fill="url(#gradient4)" fill-rule="evenodd" stroke="none"/>
    </g>
    <linearGradient gradientTransform="matrix(0.001, 0.0147, 0.0147, -0.001, 2.75, 14.35)" gradientUnits="userSpaceOnUse" id="gradient4" spreadMethod="pad" x1="-819.2" x2="819.2">
      <stop offset="0.0" stop-color="#ffffff"/>
      <stop offset="1.0" stop-color="#000000"/>
    </linearGradient>
    <g id="sprite1" transform="matrix(1.0, 0.0, 0.0, 1.0, 0.0, 0.0)">
      <use height="34.05" transform="matrix(1.0, 0.0, 0.0, 1.0, 0.0, 0.0)" width="5.7" xlink:href="#shape2"/>
    </g>
    <g id="shape2" transform="matrix(1.0, 0.0, 0.0, 1.0, 0.0, 0.0)">
      <path d="M2.1 0.55 Q2.4 1.5 3.6 3.4 L4.8 5.05 Q5.65 6.2 5.7 7.0 L5.35 29.75 4.9 30.7 3.7 32.5 2.15 34.05 Q2.75 32.0 2.8 27.35 3.0 10.35 2.65 7.85 L1.8 5.3 0.6 2.35 0.0 0.0 2.1 0.55" fill="url(#gradient5)" fill-rule="evenodd" stroke="none"/>
    </g>
    <linearGradient gradientTransform="matrix(-0.0012, -0.0166, 0.0166, -0.0012, 2.55, 16.2)" gradientUnits="userSpaceOnUse" id="gradient5" spreadMethod="pad" x1="-819.2" x2="819.2">
      <stop offset="0.0" stop-color="#ffffff"/>
      <stop offset="1.0" stop-color="#000000"/>
    </linearGradient>
    <g id="sprite2" transform="matrix(1.0, 0.0, 0.0, 1.0, 0.0, 0.0)">
      <use height="3.0" transform="matrix(1.127, 0.0, 0.0, 1.1167, 0.0, 0.0)" width="15.75" xlink:href="#shape3"/>
    </g>
    <g id="shape3" transform="matrix(1.0, 0.0, 0.0, 1.0, 0.0, 0.0)">
      <path d="M14.9 0.0 L15.75 1.4 Q13.6 3.15 8.4 3.0 2.45 2.85 0.0 0.85 L0.5 0.0 7.7 0.4 14.9 0.0" fill="#755332" fill-rule="evenodd" stroke="none"/>
    </g>
    <g id="shape4" transform="matrix(1.0, 0.0, 0.0, 1.0, -3.3, 0.0)">
      <path d="M22.45 6.5 Q22.45 7.4 19.7 8.05 L13.05 8.65 6.35 8.05 Q3.6 7.4 3.6 6.5 3.6 5.6 6.35 4.95 L13.05 4.3 19.7 4.95 Q22.45 5.6 22.45 6.5" fill="url(#gradient6)" fill-rule="evenodd" stroke="none"/>
      <path d="M22.95 5.95 Q22.95 6.85 20.1 7.5 L13.15 8.1 6.2 7.5 Q3.3 6.85 3.3 5.95 3.3 5.05 6.2 4.45 L13.15 3.8 20.1 4.45 Q22.95 5.05 22.95 5.95" fill="url(#gradient7)" fill-rule="evenodd" stroke="none"/>
      <path d="M22.6 1.95 L22.6 5.6 Q22.55 6.25 19.75 6.65 L13.1 7.1 6.4 6.65 Q3.6 6.25 3.5 5.6 L3.5 1.95 22.6 1.95" fill="#0304d6" fill-rule="evenodd" stroke="none"/>
      <path d="M22.6 5.6 Q22.5 6.3 19.75 6.85 L13.1 7.45 6.4 6.85 Q3.6 6.3 3.5 5.6 L3.5 1.75 22.6 1.75 22.6 5.6" fill="url(#gradient8)" fill-rule="evenodd" stroke="none"/>
      <path d="M22.6 1.8 Q22.6 2.6 19.8 3.1 L13.1 3.65 6.3 3.1 Q3.5 2.6 3.5 1.8 3.5 1.05 6.3 0.55 L13.1 0.0 19.8 0.55 Q22.6 1.05 22.6 1.8" fill="url(#gradient9)" fill-rule="evenodd" stroke="none"/>
    </g>
    <radialGradient cx="0" cy="0" gradientTransform="matrix(0.0113, 0.0, 0.0, -0.0026, 13.05, 6.5)" gradientUnits="userSpaceOnUse" id="gradient6" r="819.2" spreadMethod="pad">
      <stop offset="0.0" stop-color="#ffc98c"/>
      <stop offset="1.0" stop-color="#cc9b66"/>
    </radialGradient>
    <linearGradient gradientTransform="matrix(0.012, 0.0, 0.0, -0.012, 13.15, 5.95)" gradientUnits="userSpaceOnUse" id="gradient7" spreadMethod="pad" x1="-819.2" x2="819.2">
      <stop offset="0.0" stop-color="#2929d6"/>
      <stop offset="0.3254901960784314" stop-color="#4255ff"/>
      <stop offset="0.5019607843137255" stop-color="#3f4ff6"/>
      <stop offset="0.788235294117647" stop-color="#373fdd"/>
      <stop offset="1.0" stop-color="#3030c7"/>
    </linearGradient>
    <linearGradient gradientTransform="matrix(0.0117, 0.0, 0.0, -0.0117, 13.1, 4.65)" gradientUnits="userSpaceOnUse" id="gradient8" spreadMethod="pad" x1="-819.2" x2="819.2">
      <stop offset="0.0" stop-color="#2b2be2"/>
      <stop offset="0.3254901960784314" stop-color="#3045ff"/>
      <stop offset="0.6" stop-color="#3241f6"/>
      <stop offset="1.0" stop-color="#3636e0"/>
    </linearGradient>
    <linearGradient gradientTransform="matrix(-0.0106, 8.0E-4, 8.0E-4, 0.0106, 12.5, 1.85)" gradientUnits="userSpaceOnUse" id="gradient9" spreadMethod="pad" x1="-819.2" x2="819.2">
      <stop offset="0.0" stop-color="#3b5bff"/>
      <stop offset="0.8156862745098039" stop-color="#3b52ff"/>
      <stop offset="1.0" stop-color="#3b4fff"/>
    </linearGradient>
    <g id="sprite3" transform="matrix(1.0, 0.0, 0.0, 1.0, 0.0, 0.0)">
      <use height="1.3" transform="matrix(1.0, 0.0, 0.0, 1.0, 0.0, 0.0)" width="10.3" xlink:href="#shape5"/>
    </g>
    <g id="shape5" transform="matrix(1.0, 0.0, 0.0, 1.0, 0.0, 0.0)">
      <path d="M0.45 0.05 L3.85 0.7 10.3 1.1 6.8 1.25 2.45 0.8 0.3 0.3 0.0 0.05 0.45 0.05" fill="#ffffff" fill-rule="evenodd" stroke="none"/>
    </g>
    <g id="shape6" transform="matrix(1.0, 0.0, 0.0, 1.0, -3.6, -39.1)">
      <path d="M4.95 39.3 Q6.05 39.9 6.3 40.55 6.5 41.15 6.0 41.15 5.3 41.15 3.95 39.9 3.35 39.35 3.85 39.15 L4.95 39.3" fill="#f9e2c9" fill-rule="evenodd" stroke="none"/>
      <path d="M7.8 40.75 Q8.6 40.95 8.25 41.35 7.85 41.75 7.6 41.55 L7.3 41.0 Q7.25 40.6 7.8 40.75" fill="#f9e2c9" fill-rule="evenodd" stroke="none"/>
    </g>
  </defs>
</svg>
