<?xml version="1.0" encoding="UTF-8" standalone="no"?>
<svg xmlns:xlink="http://www.w3.org/1999/xlink" height="300.0px" width="150.0px" xmlns="http://www.w3.org/2000/svg">
  <g transform="matrix(1.0, 0.0, 0.0, 1.0, 0.0, 0.0)">
    <use height="312.0" transform="matrix(1.0, 0.0, 0.0, 1.0, -1.4, -2.05)" width="153.95" xlink:href="#sprite0"/>
  </g>
  <defs>
    <g id="sprite0" transform="matrix(1.0, 0.0, 0.0, 1.0, 76.4, 152.05)">
      <clipPath id="clipPath0" transform="matrix(1.0, 0.0, 0.0, 1.0, 76.4, 152.05)">
        <use height="310.95" transform="matrix(0.9753, 0.0, 0.0, 0.9648, -75.0126, -149.9804)" width="153.8" xlink:href="#shape0"/>
      </clipPath>
      <g clip-path="url(#clipPath0)">
        <use height="310.95" transform="matrix(1.0, 0.0, 0.0, 1.0, -76.4, -151.05)" width="153.8" xlink:href="#shape0"/>
        <use height="276.35" transform="matrix(1.0, 0.0, 0.0, 1.0, -74.5, -142.85)" width="152.05" xlink:href="#sprite1"/>
        <use height="312.0" transform="matrix(1.0, 0.0, 0.0, 1.0, -76.25, -152.05)" width="153.75" xlink:href="#shape2"/>
      </g>
    </g>
    <g id="shape0" transform="matrix(1.0, 0.0, 0.0, 1.0, 76.4, 151.05)">
      <path d="M77.4 159.9 L-76.4 159.9 -76.4 -151.05 77.4 -151.05 77.4 159.9" fill="#000000" fill-rule="evenodd" stroke="none"/>
    </g>
    <g id="sprite1" transform="matrix(1.0, 0.0, 0.0, 1.0, 0.0, 0.0)">
      <use height="276.35" transform="matrix(1.0, 0.0, 0.0, 1.0, 0.0, 0.0)" width="152.05" xlink:href="#shape1"/>
    </g>
    <g id="shape1" transform="matrix(1.0, 0.0, 0.0, 1.0, 0.0, 0.0)">
      <path d="M42.25 49.5 Q42.8 49.5 43.05 49.95 L41.4 49.95 Q41.65 49.5 42.25 49.5" fill="#b3b3b3" fill-rule="evenodd" stroke="none"/>
      <path d="M21.95 38.05 Q21.95 39.0 21.05 39.0 L20.4 38.75 Q20.1 38.45 20.1 38.05 20.1 37.7 20.4 37.45 20.65 37.15 21.05 37.15 21.95 37.15 21.95 38.05" fill="#b3b3b3" fill-rule="evenodd" stroke="none"/>
      <path d="M40.4 13.0 L39.7 12.75 39.45 12.1 Q39.45 11.2 40.4 11.2 41.35 11.2 41.35 12.1 L41.05 12.75 40.4 13.0" fill="#b3b3b3" fill-rule="evenodd" stroke="none"/>
      <path d="M56.2 25.45 Q56.2 24.9 56.75 24.9 57.3 24.9 57.3 25.45 57.3 26.0 56.75 26.0 56.2 26.0 56.2 25.45" fill="#b3b3b3" fill-rule="evenodd" stroke="none"/>
      <path d="M49.5 1.45 Q49.5 2.2 48.75 2.2 48.05 2.2 48.05 1.45 48.05 0.7 48.75 0.7 49.5 0.7 49.5 1.45" fill="#b3b3b3" fill-rule="evenodd" stroke="none"/>
      <path d="M29.05 2.9 L29.05 1.8" fill="none" stroke="#b3b3b3" stroke-linecap="round" stroke-linejoin="round" stroke-width="0.05"/>
      <path d="M19.35 1.3 Q19.35 1.8 18.95 2.2 18.65 2.55 18.1 2.55 17.55 2.55 17.15 2.2 16.8 1.8 16.8 1.3 16.8 0.75 17.15 0.4 17.55 0.0 18.1 0.0 18.65 0.0 18.95 0.4 19.35 0.75 19.35 1.3" fill="#b3b3b3" fill-rule="evenodd" stroke="none"/>
      <path d="M20.1 6.5 Q19.35 6.5 19.35 5.8 19.35 5.05 20.1 5.05 20.85 5.05 20.85 5.8 20.85 6.5 20.1 6.5" fill="#b3b3b3" fill-rule="evenodd" stroke="none"/>
      <path d="M22.35 3.75 Q22.35 3.25 22.9 3.25 23.5 3.25 23.5 3.75 23.5 4.35 22.9 4.35 22.35 4.35 22.35 3.75" fill="#b3b3b3" fill-rule="evenodd" stroke="none"/>
      <path d="M82.95 22.75 L82.65 23.55 81.85 23.85 81.05 23.55 Q80.75 23.15 80.75 22.75 80.75 22.3 81.05 22.0 81.4 21.7 81.85 21.7 82.3 21.7 82.65 22.0 L82.95 22.75" fill="#b3b3b3" fill-rule="evenodd" stroke="none"/>
      <path d="M81.1 26.0 Q81.85 26.0 81.85 26.7 81.85 27.45 81.1 27.45 80.35 27.45 80.35 26.7 80.35 26.0 81.1 26.0" fill="#b3b3b3" fill-rule="evenodd" stroke="none"/>
      <path d="M82.2 15.85 Q82.2 16.25 81.85 16.25 81.45 16.25 81.45 15.85 81.45 15.5 81.85 15.5 82.2 15.5 82.2 15.85" fill="#b3b3b3" fill-rule="evenodd" stroke="none"/>
      <path d="M72.9 20.4 Q72.9 19.85 73.5 19.85 74.05 19.85 74.05 20.4 74.05 20.95 73.5 20.95 72.9 20.95 72.9 20.4" fill="#b3b3b3" fill-rule="evenodd" stroke="none"/>
      <path d="M81.45 44.05 L81.1 44.4 Q80.75 44.4 80.75 44.05 80.75 43.65 81.1 43.65 81.45 43.65 81.45 44.05" fill="#b3b3b3" fill-rule="evenodd" stroke="none"/>
      <path d="M68.85 0.45 L69.05 1.15 69.7 1.25 69.05 1.35 68.85 2.05 68.75 1.35 68.05 1.25 68.75 1.15 68.85 0.45" fill="#b3b3b3" fill-rule="evenodd" stroke="none"/>
      <path d="M150.95 19.6 Q150.95 18.65 152.05 18.55 L152.05 20.75 Q150.95 20.65 150.95 19.6" fill="#b3b3b3" fill-rule="evenodd" stroke="none"/>
      <path d="M131.25 5.95 Q131.25 5.2 132.0 5.2 132.7 5.2 132.7 5.95 132.7 6.65 132.0 6.65 131.25 6.65 131.25 5.95" fill="#b3b3b3" fill-rule="evenodd" stroke="none"/>
      <path d="M135.7 7.2 Q135.7 7.75 135.15 7.75 134.55 7.75 134.55 7.2 134.55 6.7 135.15 6.7 135.7 6.7 135.7 7.2" fill="#b3b3b3" fill-rule="evenodd" stroke="none"/>
      <path d="M89.25 134.2 L88.95 134.8 88.3 135.05 Q87.4 135.05 87.4 134.2 87.4 133.8 87.65 133.55 87.9 133.3 88.3 133.3 88.7 133.3 88.95 133.55 L89.25 134.2" fill="#b3b3b3" fill-rule="evenodd" stroke="none"/>
      <path d="M67.15 121.0 Q68.05 121.0 68.05 121.9 L67.8 122.55 67.15 122.8 Q66.2 122.8 66.2 121.9 66.2 121.0 67.15 121.0" fill="#b3b3b3" fill-rule="evenodd" stroke="none"/>
      <path d="M37.5 136.85 Q36.8 136.85 36.8 136.2 36.8 135.45 37.5 135.45 38.3 135.45 38.3 136.2 38.3 136.85 37.5 136.85" fill="#b3b3b3" fill-rule="evenodd" stroke="none"/>
      <path d="M42.8 139.7 Q43.55 139.45 43.55 138.65 L43.5 138.45 Q43.9 138.65 43.9 139.05 43.9 139.8 43.15 139.8 L42.8 139.7" fill="#b3b3b3" fill-rule="evenodd" stroke="none"/>
      <path d="M85.55 95.9 Q85.55 95.0 86.45 95.0 86.7 95.0 86.9 95.2 L87.3 95.6 87.4 95.9 87.1 96.55 86.45 96.8 Q85.55 96.8 85.55 95.9" fill="#b3b3b3" fill-rule="evenodd" stroke="none"/>
      <path d="M103.4 109.3 Q103.4 109.8 102.8 109.8 102.25 109.8 102.25 109.3 102.25 108.7 102.8 108.7 103.4 108.7 103.4 109.3" fill="#b3b3b3" fill-rule="evenodd" stroke="none"/>
      <path d="M66.9 89.6 Q66.9 90.3 66.2 90.3 65.45 90.3 65.45 89.6 L65.45 89.5 66.9 89.5 66.9 89.6" fill="#b3b3b3" fill-rule="evenodd" stroke="none"/>
      <path d="M129.0 106.55 L128.7 107.35 127.95 107.65 127.1 107.35 Q126.8 107.0 126.8 106.55 126.8 106.1 127.1 105.8 127.45 105.5 127.95 105.5 L128.7 105.8 129.0 106.55" fill="#b3b3b3" fill-rule="evenodd" stroke="none"/>
      <path d="M127.95 110.55 L127.7 111.05 127.15 111.25 Q126.4 111.25 126.4 110.55 126.4 109.8 127.15 109.8 127.95 109.8 127.95 110.55" fill="#b3b3b3" fill-rule="evenodd" stroke="none"/>
      <path d="M128.25 99.75 L127.95 100.1 Q127.55 100.1 127.55 99.75 127.55 99.35 127.95 99.35 128.25 99.35 128.25 99.75" fill="#b3b3b3" fill-rule="evenodd" stroke="none"/>
      <path d="M119.0 104.2 Q119.0 103.7 119.55 103.7 120.1 103.7 120.1 104.2 120.1 104.75 119.55 104.75 119.0 104.75 119.0 104.2" fill="#b3b3b3" fill-rule="evenodd" stroke="none"/>
      <path d="M126.8 127.9 Q126.8 127.5 127.15 127.5 127.55 127.5 127.55 127.9 127.55 128.2 127.15 128.2 126.8 128.2 126.8 127.9" fill="#b3b3b3" fill-rule="evenodd" stroke="none"/>
      <path d="M115.9 129.55 L115.55 130.3 Q115.25 130.65 114.75 130.65 114.3 130.65 114.0 130.3 113.65 130.0 113.65 129.55 113.65 129.1 114.0 128.8 114.3 128.45 114.75 128.45 115.25 128.45 115.55 128.8 115.9 129.1 115.9 129.55" fill="#b3b3b3" fill-rule="evenodd" stroke="none"/>
      <path d="M66.4 90.9 L66.65 90.45 Q66.9 90.2 67.2 90.2 67.95 90.2 67.95 90.9 67.95 91.65 67.2 91.65 66.4 91.65 66.4 90.9" fill="#b3b3b3" fill-rule="evenodd" stroke="none"/>
      <path d="M84.5 90.2 Q85.4 90.2 85.4 91.1 L85.15 91.75 84.5 92.0 Q83.55 92.0 83.55 91.1 83.55 90.2 84.5 90.2" fill="#b3b3b3" fill-rule="evenodd" stroke="none"/>
      <path d="M87.3 95.6 L86.9 95.2 86.9 95.1 Q86.9 94.55 87.45 94.55 88.05 94.55 88.05 95.1 88.05 95.6 87.45 95.6 L87.3 95.6" fill="#b3b3b3" fill-rule="evenodd" stroke="none"/>
      <path d="M111.25 91.25 Q111.8 91.25 111.8 91.8 111.8 92.4 111.25 92.4 110.65 92.4 110.65 91.8 110.65 91.25 111.25 91.25" fill="#b3b3b3" fill-rule="evenodd" stroke="none"/>
      <path d="M97.0 115.75 L97.55 112.9 98.1 115.75 101.1 116.25 101.25 116.25 101.2 116.3 101.1 116.3 98.1 116.85 97.55 119.75 97.0 116.85 94.0 116.3 93.9 116.3 93.85 116.25 94.0 116.25 97.0 115.75" fill="#b3b3b3" fill-rule="evenodd" stroke="none"/>
      <path d="M97.75 124.45 L97.55 124.45 97.65 124.4 97.75 124.4 101.2 123.8 101.8 120.45 101.8 120.3 101.85 120.4 101.85 120.45 102.5 123.8 105.95 124.4 106.0 124.4 106.1 124.45 105.95 124.45 102.5 125.05 101.85 132.8 101.85 128.45 101.8 128.6 101.8 128.35 101.2 125.05 97.75 124.45" fill="#b3b3b3" fill-rule="evenodd" stroke="none"/>
      <path d="M152.0 102.25 L152.05 102.35 152.05 106.95 152.0 107.05 151.6 105.0 149.55 104.65 151.6 104.25 152.0 102.25" fill="#b3b3b3" fill-rule="evenodd" stroke="none"/>
      <path d="M0.95 128.95 L0.3 128.7 0.0 128.05 Q0.0 127.15 0.95 127.15 1.95 127.15 1.95 128.05 L1.65 128.7 0.95 128.95" fill="#b3b3b3" fill-rule="evenodd" stroke="none"/>
      <path d="M17.85 141.4 Q17.85 141.95 17.35 141.95 16.8 141.95 16.8 141.4 16.8 140.85 17.35 140.85 17.85 140.85 17.85 141.4" fill="#b3b3b3" fill-rule="evenodd" stroke="none"/>
      <path d="M8.55 117.35 Q8.55 117.1 8.8 116.9 L9.35 116.7 Q10.1 116.7 10.1 117.35 10.1 118.1 9.35 118.1 8.55 118.1 8.55 117.35" fill="#b3b3b3" fill-rule="evenodd" stroke="none"/>
      <path d="M43.55 138.65 Q43.55 139.45 42.8 139.7 L42.4 139.8 Q42.0 139.8 41.65 139.45 41.35 139.15 41.35 138.65 41.35 138.25 41.65 137.95 42.0 137.6 42.4 137.6 43.3 137.6 43.5 138.45 L43.55 138.65" fill="#b3b3b3" fill-rule="evenodd" stroke="none"/>
      <path d="M41.7 141.95 Q42.15 141.95 42.3 142.3 L41.05 142.3 Q41.3 141.95 41.7 141.95" fill="#b3b3b3" fill-rule="evenodd" stroke="none"/>
      <path d="M42.05 131.85 Q42.05 131.5 42.4 131.5 42.8 131.5 42.8 131.85 42.8 132.15 42.4 132.15 42.05 132.15 42.05 131.85" fill="#b3b3b3" fill-rule="evenodd" stroke="none"/>
      <path d="M33.5 136.35 Q33.5 135.8 34.05 135.8 34.65 135.8 34.65 136.35 34.65 136.85 34.05 136.85 33.5 136.85 33.5 136.35" fill="#b3b3b3" fill-rule="evenodd" stroke="none"/>
      <path d="M36.05 108.3 L34.65 108.55 34.35 109.9 34.1 108.55 32.6 108.3 34.1 108.0 34.35 106.6 34.65 108.0 36.05 108.3" fill="#b3b3b3" fill-rule="evenodd" stroke="none"/>
      <path d="M29.6 117.05 L30.3 117.15 29.6 117.3 29.45 117.95 29.35 117.3 28.65 117.15 29.35 117.05 29.45 116.35 29.6 117.05" fill="#b3b3b3" fill-rule="evenodd" stroke="none"/>
      <path d="M2.45 198.6 Q2.45 198.05 3.0 198.05 3.55 198.05 3.55 198.6 3.55 199.1 3.0 199.1 2.45 199.1 2.45 198.6" fill="#b3b3b3" fill-rule="evenodd" stroke="none"/>
      <path d="M29.25 195.9 L28.9 196.65 28.1 196.95 Q27.65 196.95 27.35 196.65 27.0 196.3 27.0 195.9 27.0 195.45 27.35 195.15 27.65 194.85 28.1 194.85 28.55 194.85 28.9 195.15 29.25 195.45 29.25 195.9" fill="#b3b3b3" fill-rule="evenodd" stroke="none"/>
      <path d="M28.1 199.85 Q28.1 200.6 27.35 200.6 26.65 200.6 26.65 199.85 L26.85 199.3 27.35 199.1 Q28.1 199.1 28.1 199.85" fill="#b3b3b3" fill-rule="evenodd" stroke="none"/>
      <path d="M27.75 189.0 Q27.75 188.65 28.1 188.65 28.5 188.65 28.5 189.0 28.5 189.4 28.1 189.4 27.75 189.4 27.75 189.0" fill="#b3b3b3" fill-rule="evenodd" stroke="none"/>
      <path d="M19.7 194.1 Q19.2 194.1 19.2 193.55 19.2 193.0 19.7 193.0 20.3 193.0 20.3 193.55 20.3 194.1 19.7 194.1" fill="#b3b3b3" fill-rule="evenodd" stroke="none"/>
      <path d="M27.0 217.2 Q27.0 216.8 27.35 216.8 27.75 216.8 27.75 217.2 L27.35 217.55 Q27.0 217.55 27.0 217.2" fill="#b3b3b3" fill-rule="evenodd" stroke="none"/>
      <path d="M15.15 173.6 L15.25 174.25 15.95 174.4 15.25 174.5 15.15 175.2 15.05 174.5 14.35 174.4 15.05 174.25 15.15 173.6" fill="#b3b3b3" fill-rule="evenodd" stroke="none"/>
      <path d="M98.3 193.9 Q97.9 193.9 97.55 193.55 97.25 193.25 97.25 192.75 97.25 192.35 97.55 192.05 97.9 191.7 98.3 191.7 98.8 191.7 99.15 192.05 L99.45 192.75 99.15 193.55 Q98.8 193.9 98.3 193.9" fill="#b3b3b3" fill-rule="evenodd" stroke="none"/>
      <path d="M101.7 193.9 Q101.7 193.15 102.4 193.15 103.15 193.15 103.15 193.9 103.15 194.55 102.4 194.55 101.7 194.55 101.7 193.9" fill="#b3b3b3" fill-rule="evenodd" stroke="none"/>
      <path d="M77.55 179.1 Q77.55 178.35 78.25 178.35 79.0 178.35 79.0 179.1 79.0 179.75 78.25 179.75 77.55 179.75 77.55 179.1" fill="#b3b3b3" fill-rule="evenodd" stroke="none"/>
      <path d="M81.4 180.9 Q80.85 180.9 80.85 180.35 80.85 179.75 81.4 179.75 82.0 179.75 82.0 180.35 82.0 180.9 81.4 180.9" fill="#b3b3b3" fill-rule="evenodd" stroke="none"/>
      <path d="M136.65 182.85 Q136.65 182.3 137.2 182.3 137.7 182.3 137.7 182.85 137.7 183.4 137.2 183.4 136.65 183.4 136.65 182.85" fill="#b3b3b3" fill-rule="evenodd" stroke="none"/>
      <path d="M140.7 183.95 Q140.7 184.5 140.15 184.5 139.65 184.5 139.65 183.95 139.65 183.4 140.15 183.4 140.7 183.4 140.7 183.95" fill="#b3b3b3" fill-rule="evenodd" stroke="none"/>
      <path d="M143.5 187.0 L142.85 186.75 Q142.55 186.5 142.55 186.1 142.55 185.75 142.85 185.5 143.1 185.2 143.5 185.2 144.4 185.2 144.4 186.1 144.4 187.0 143.5 187.0" fill="#b3b3b3" fill-rule="evenodd" stroke="none"/>
      <path d="M64.55 239.2 Q65.0 239.2 65.35 239.55 L65.65 240.25 65.35 241.05 Q65.0 241.4 64.55 241.4 64.15 241.4 63.75 241.05 63.45 240.75 63.45 240.25 63.45 239.85 63.75 239.55 64.15 239.2 64.55 239.2" fill="#b3b3b3" fill-rule="evenodd" stroke="none"/>
      <path d="M37.8 274.95 Q37.35 274.95 37.0 274.6 36.65 274.3 36.65 273.9 36.65 273.4 37.0 273.1 37.35 272.75 37.8 272.75 38.25 272.75 38.55 273.1 38.9 273.4 38.9 273.9 L38.55 274.6 Q38.25 274.95 37.8 274.95" fill="#b3b3b3" fill-rule="evenodd" stroke="none"/>
      <path d="M41.9 275.65 Q41.1 275.65 41.1 274.95 L41.35 274.4 41.9 274.2 42.4 274.4 42.65 274.95 Q42.65 275.65 41.9 275.65" fill="#b3b3b3" fill-rule="evenodd" stroke="none"/>
      <path d="M17.7 260.9 Q16.95 260.9 16.95 260.15 16.95 259.4 17.7 259.4 18.45 259.4 18.45 260.15 18.45 260.9 17.7 260.9" fill="#b3b3b3" fill-rule="evenodd" stroke="none"/>
      <path d="M20.3 261.4 Q20.3 260.9 20.85 260.9 21.4 260.9 21.4 261.4 21.4 261.95 20.85 261.95 20.3 261.95 20.3 261.4" fill="#b3b3b3" fill-rule="evenodd" stroke="none"/>
      <path d="M113.65 275.85 Q113.65 275.3 114.2 275.3 114.75 275.3 114.75 275.85 114.75 276.35 114.2 276.35 113.65 276.35 113.65 275.85" fill="#b3b3b3" fill-rule="evenodd" stroke="none"/>
      <path d="M76.1 263.95 Q76.1 263.35 76.65 263.35 77.2 263.35 77.2 263.95 77.2 264.45 76.65 264.45 76.1 264.45 76.1 263.95" fill="#b3b3b3" fill-rule="evenodd" stroke="none"/>
      <path d="M79.05 265.0 Q79.05 264.45 79.65 264.45 80.2 264.45 80.2 265.0 80.2 265.55 79.65 265.55 79.05 265.55 79.05 265.0" fill="#b3b3b3" fill-rule="evenodd" stroke="none"/>
      <path d="M82.95 268.05 Q82.05 268.05 82.05 267.15 L82.3 266.55 Q82.6 266.25 82.95 266.25 83.35 266.25 83.6 266.55 L83.9 267.15 83.6 267.8 82.95 268.05" fill="#b3b3b3" fill-rule="evenodd" stroke="none"/>
      <path d="M43.8 227.05 L43.75 227.05 43.6 227.0 43.8 227.0 46.75 226.5 47.0 225.5 47.7 225.5 47.9 226.5 50.9 227.0 51.05 227.0 50.95 227.05 50.9 227.05 47.9 227.6 47.35 230.5 47.35 230.65 47.3 230.55 47.3 230.5 46.75 227.6 43.8 227.05" fill="#b3b3b3" fill-rule="evenodd" stroke="none"/>
      <path d="M47.55 235.2 L47.3 235.2 47.45 235.15 47.55 235.15 50.95 234.5 51.6 231.2 52.25 234.5 55.7 235.15 55.8 235.15 55.9 235.2 55.7 235.2 52.25 235.8 51.6 243.55 51.6 239.1 50.95 235.8 47.55 235.2" fill="#b3b3b3" fill-rule="evenodd" stroke="none"/>
      <path d="M67.15 257.7 Q67.85 257.7 67.85 258.4 67.85 259.15 67.15 259.15 66.35 259.15 66.35 258.4 66.35 257.7 67.15 257.7" fill="#b3b3b3" fill-rule="evenodd" stroke="none"/>
      <path d="M81.25 255.9 Q80.95 255.9 80.75 255.7 L80.5 255.15 Q80.5 254.45 81.25 254.45 82.0 254.45 82.0 255.15 82.0 255.9 81.25 255.9" fill="#b3b3b3" fill-rule="evenodd" stroke="none"/>
      <path d="M85.3 258.6 Q85.3 259.5 84.4 259.5 L83.75 259.25 Q83.45 259.0 83.45 258.6 83.45 257.7 84.4 257.7 85.3 257.7 85.3 258.6" fill="#b3b3b3" fill-rule="evenodd" stroke="none"/>
      <path d="M87.4 263.1 Q86.85 263.1 86.85 262.55 86.85 262.05 87.4 262.05 87.9 262.05 87.9 262.55 87.9 263.1 87.4 263.1" fill="#b3b3b3" fill-rule="evenodd" stroke="none"/>
      <path d="M111.15 258.75 Q111.75 258.75 111.75 259.3 111.75 259.9 111.15 259.9 110.6 259.9 110.6 259.3 110.6 258.75 111.15 258.75" fill="#b3b3b3" fill-rule="evenodd" stroke="none"/>
      <path d="M136.1 247.55 Q135.55 247.55 135.55 247.05 135.55 246.5 136.1 246.5 136.65 246.5 136.65 247.05 136.65 247.55 136.1 247.55" fill="#b3b3b3" fill-rule="evenodd" stroke="none"/>
      <path d="M139.4 247.55 Q139.8 247.55 140.1 247.85 L140.4 248.45 140.1 249.15 139.4 249.4 138.75 249.15 138.5 248.45 Q138.5 248.1 138.75 247.85 139.05 247.55 139.4 247.55" fill="#b3b3b3" fill-rule="evenodd" stroke="none"/>
      <path d="M151.85 269.75 L151.85 269.65 151.95 269.7 151.95 269.75 152.05 270.3 152.05 274.05 151.95 274.55 151.95 274.6 151.85 274.65 151.85 274.55 151.5 272.55 149.4 272.2 149.3 272.2 149.35 272.15 149.4 272.15 151.5 271.75 151.85 269.75" fill="#b3b3b3" fill-rule="evenodd" stroke="none"/>
      <path d="M6.25 29.1 L5.9 29.8 Q5.55 30.15 5.1 30.15 4.65 30.15 4.3 29.8 4.0 29.5 4.0 29.1 4.0 28.65 4.3 28.3 4.65 27.95 5.1 27.95 5.55 27.95 5.9 28.3 L6.25 29.1" fill="#b3b3b3" fill-rule="evenodd" stroke="none"/>
      <path d="M5.15 33.05 Q5.15 33.8 4.4 33.8 3.6 33.8 3.6 33.05 3.6 32.3 4.4 32.3 L4.9 32.5 5.15 33.05" fill="#b3b3b3" fill-rule="evenodd" stroke="none"/>
      <path d="M5.45 22.2 Q5.45 22.6 5.15 22.6 4.75 22.6 4.75 22.2 4.75 21.85 5.15 21.85 5.45 21.85 5.45 22.2" fill="#b3b3b3" fill-rule="evenodd" stroke="none"/>
      <path d="M4.0 50.4 Q4.0 50.0 4.4 50.0 4.75 50.0 4.75 50.4 L4.4 50.75 Q4.0 50.75 4.0 50.4" fill="#b3b3b3" fill-rule="evenodd" stroke="none"/>
      <path d="M136.8 64.35 Q137.4 64.35 137.65 64.85 L136.0 64.85 Q136.25 64.35 136.8 64.35" fill="#b3b3b3" fill-rule="evenodd" stroke="none"/>
      <path d="M116.55 52.95 L116.3 53.6 115.65 53.85 114.95 53.6 114.7 52.95 Q114.7 52.6 114.95 52.35 115.25 52.05 115.65 52.05 116.55 52.05 116.55 52.95" fill="#b3b3b3" fill-rule="evenodd" stroke="none"/>
      <path d="M31.2 35.1 L30.55 34.85 30.3 34.2 Q30.3 33.3 31.2 33.3 32.15 33.3 32.15 34.2 32.15 35.1 31.2 35.1" fill="#b3b3b3" fill-rule="evenodd" stroke="none"/>
      <path d="M134.0 26.95 Q134.0 26.6 134.3 26.35 134.55 26.05 134.95 26.05 135.85 26.05 135.85 26.95 L135.6 27.6 134.95 27.85 134.3 27.6 Q134.0 27.35 134.0 26.95" fill="#b3b3b3" fill-rule="evenodd" stroke="none"/>
      <path d="M151.85 40.35 Q151.85 40.85 151.35 40.85 150.8 40.85 150.8 40.35 150.8 39.75 151.35 39.75 151.85 39.75 151.85 40.35" fill="#b3b3b3" fill-rule="evenodd" stroke="none"/>
      <path d="M144.1 16.3 Q144.1 17.05 143.35 17.05 142.55 17.05 142.55 16.3 142.55 15.6 143.35 15.6 144.1 15.6 144.1 16.3" fill="#b3b3b3" fill-rule="evenodd" stroke="none"/>
      <path d="M123.65 17.8 L123.65 16.65" fill="none" stroke="#b3b3b3" stroke-linecap="round" stroke-linejoin="round" stroke-width="0.05"/>
      <path d="M113.95 16.15 Q113.95 16.65 113.55 17.05 113.2 17.4 112.65 17.4 112.1 17.4 111.7 17.05 111.35 16.65 111.35 16.15 111.35 15.6 111.7 15.25 112.1 14.85 112.65 14.85 113.2 14.85 113.55 15.25 113.95 15.6 113.95 16.15" fill="#b3b3b3" fill-rule="evenodd" stroke="none"/>
      <path d="M114.7 21.35 Q113.95 21.35 113.95 20.65 113.95 19.95 114.7 19.95 L115.25 20.15 115.45 20.65 Q115.45 21.35 114.7 21.35" fill="#b3b3b3" fill-rule="evenodd" stroke="none"/>
      <path d="M116.95 18.65 Q116.95 18.15 117.5 18.15 118.0 18.15 118.0 18.65 118.0 19.2 117.5 19.2 116.95 19.2 116.95 18.65" fill="#b3b3b3" fill-rule="evenodd" stroke="none"/>
      <path d="M29.2 29.55 L28.8 27.55 26.7 27.2 28.8 26.8 29.2 24.75 29.6 26.8 31.7 27.2 29.6 27.55 29.2 29.55" fill="#b3b3b3" fill-rule="evenodd" stroke="none"/>
      <path d="M37.0 23.65 L36.85 23.65 36.9 23.6 37.0 23.6 39.05 23.2 39.45 21.2 39.45 21.15 39.5 21.1 39.5 21.2 39.85 23.2 41.95 23.6 42.0 23.6 42.05 23.65 41.95 23.65 39.85 24.0 39.5 26.0 39.5 26.1 39.45 26.05 39.45 26.0 39.05 24.0 37.0 23.65" fill="#b3b3b3" fill-rule="evenodd" stroke="none"/>
    </g>
    <g id="shape2" transform="matrix(1.0, 0.0, 0.0, 1.0, 76.25, 152.05)">
      <path d="M-69.75 -75.8 L-69.75 -76.9 -69.75 -75.8 M48.9 -112.0 L48.9 -113.1 48.9 -112.0 M77.5 -152.05 L77.5 159.95 -76.25 159.95 -76.25 -152.05 77.5 -152.05" fill="url(#gradient0)" fill-rule="evenodd" stroke="none"/>
      <path d="M48.9 -113.1 L48.9 -112.0 M-69.75 -76.9 L-69.75 -75.8" fill="none" stroke="#b3b3b3" stroke-linecap="round" stroke-linejoin="round" stroke-width="0.05"/>
    </g>
    <linearGradient gradientTransform="matrix(-1.0E-4, -0.1838, 0.1942, -1.0E-4, 0.65, 3.95)" gradientUnits="userSpaceOnUse" id="gradient0" spreadMethod="pad" x1="-819.2" x2="819.2">
      <stop offset="0.0" stop-color="#000000" stop-opacity="0.8"/>
      <stop offset="1.0" stop-color="#000000" stop-opacity="0.14901961"/>
    </linearGradient>
  </defs>
</svg>
