<?xml version="1.0" encoding="UTF-8" standalone="no"?>
<svg xmlns:xlink="http://www.w3.org/1999/xlink" height="259.8px" width="130.4px" xmlns="http://www.w3.org/2000/svg">
  <g transform="matrix(1.0, 0.0, 0.0, 1.0, 0.0, 0.0)">
    <use height="259.8" transform="matrix(1.0, 0.0, 0.0, 1.0, 0.0, 0.0)" width="130.4" xlink:href="#shape0"/>
  </g>
  <defs>
    <g id="shape0" transform="matrix(1.0, 0.0, 0.0, 1.0, 0.0, 0.0)">
      <path d="M122.4 245.55 L126.1 246.2 Q128.6 246.45 129.5 247.05 127.55 247.15 123.95 248.15 L118.4 249.25 Q119.15 249.75 120.8 249.65 L123.4 249.75 Q122.55 250.35 119.5 250.3 116.7 250.2 115.85 251.15 116.2 251.7 117.35 251.75 L119.15 252.05 115.85 252.05 Q113.7 251.9 112.95 252.55 L114.6 253.05 108.25 253.5 Q104.35 253.7 102.0 254.65 L100.7 255.25 99.35 255.65 93.45 256.15 91.8 256.5 90.45 257.15 Q87.85 258.3 82.4 257.95 L74.0 257.7 Q74.5 259.85 71.75 259.8 L67.65 259.0 61.3 258.65 Q56.7 258.85 54.95 258.65 L46.9 257.8 Q42.25 257.15 39.0 256.05 39.25 254.05 35.3 253.9 30.65 253.8 29.95 252.75 31.3 252.75 31.8 251.6 L30.85 250.9 29.9 250.25 26.85 249.9 23.85 249.25 24.7 249.0 25.35 248.65 Q23.0 247.35 17.35 248.1 L9.25 247.7 Q11.25 245.9 16.05 245.3 L23.4 244.1 15.15 244.2 20.8 242.65 24.1 242.05 27.3 241.25 25.35 241.15 27.55 240.8 Q28.95 240.5 29.45 239.75 28.0 239.85 28.0 238.65 30.35 237.55 33.9 237.3 L39.95 237.15 83.95 235.65 Q86.6 235.5 91.1 235.75 L98.3 236.15 106.45 236.7 Q112.95 237.5 112.9 239.05 L111.95 239.55 Q115.2 239.9 121.2 241.6 127.4 243.35 130.4 243.75 L125.95 244.25 Q122.65 244.5 122.4 245.55" fill="url(#gradient0)" fill-rule="evenodd" stroke="none"/>
      <path d="M120.95 245.1 Q119.15 245.5 118.65 246.0 117.45 247.2 118.35 247.65 L120.7 248.4 116.15 249.0 111.55 249.55 107.55 249.75 Q104.85 249.8 103.8 250.5 104.55 251.1 106.35 251.25 108.25 251.45 109.0 251.95 L100.65 252.35 Q96.1 252.45 93.1 255.45 90.6 257.9 85.35 257.75 L76.85 257.5 73.55 258.15 70.2 258.55 62.1 258.55 Q56.75 258.35 50.95 256.7 L46.0 255.15 41.0 253.6 37.95 253.0 Q36.05 252.5 35.6 251.2 L36.95 251.0 Q37.75 251.0 38.2 250.65 L32.9 250.05 Q28.75 249.85 28.6 249.15 29.15 248.65 30.55 248.45 31.85 248.2 32.5 247.55 31.25 246.6 28.45 246.4 25.4 246.2 24.3 245.65 L25.85 245.55 27.25 245.15 Q22.8 244.25 13.65 245.0 4.35 245.75 0.0 244.95 0.85 243.45 5.2 243.2 L11.0 243.05 17.2 242.6 23.4 241.9 Q22.35 241.3 21.95 241.2 L27.4 240.5 Q31.05 240.05 32.5 238.9 30.25 237.7 27.3 238.05 29.4 236.9 32.25 236.65 L37.45 236.55 60.8 238.05 Q61.55 237.35 63.85 237.35 L66.85 237.55 77.1 237.55 87.5 237.45 Q93.8 237.4 97.9 237.5 L104.35 237.95 110.75 238.7 114.85 239.0 115.5 239.7 Q115.3 240.0 115.5 240.55 115.6 240.9 115.15 241.3 114.9 241.5 115.85 242.05 L118.3 242.0 124.85 242.85 129.95 243.55 Q127.1 243.6 123.45 244.65 L120.95 245.1" fill="url(#gradient1)" fill-rule="evenodd" stroke="none"/>
      <path d="M72.9 1.5 L78.6 0.45 83.35 0.0 Q91.1 0.0 95.65 5.95 99.85 11.5 99.0 18.45 L99.0 18.95 Q97.5 18.85 94.8 17.65 L92.05 16.15 Q94.45 14.1 94.45 12.65 L94.2 11.85 93.9 11.65 Q91.55 11.3 88.5 9.95 85.95 8.85 84.3 8.85 82.35 8.85 79.75 9.75 77.3 10.6 75.75 11.7 L72.9 1.5 M100.4 24.9 L101.0 26.75 Q99.95 27.95 98.1 27.95 L91.55 27.75 92.7 27.2 94.5 26.85 Q95.3 26.8 97.35 25.8 99.35 24.85 100.15 24.15 L100.4 24.9 M103.0 34.65 L102.85 39.1 102.8 40.15 102.65 42.25 102.15 45.05 Q102.15 43.45 100.65 42.3 99.6 41.5 98.3 41.3 L98.6 41.3 99.1 41.35 100.65 41.5 102.4 41.25 Q102.7 40.1 102.2 38.45 L100.95 36.75 98.25 34.7 Q96.7 33.6 90.45 31.75 L90.7 31.65 92.0 31.45 94.5 31.1 96.8 30.75 97.45 30.85 99.2 31.6 99.45 31.75 100.1 32.2 102.75 34.45 103.0 34.65 M101.9 46.0 L100.75 49.9 99.4 48.25 98.0 47.15 Q96.5 45.5 94.45 44.4 L93.85 44.15 94.3 44.15 99.35 44.8 100.8 45.35 101.85 45.95 101.9 46.0 M99.7 58.9 L100.0 61.2 99.2 60.1 Q98.35 59.3 97.35 58.85 L96.8 58.75 96.8 57.45 Q96.8 55.5 94.45 54.15 93.3 53.5 91.95 53.15 L93.25 53.4 93.7 53.5 96.65 54.45 98.15 55.85 99.5 57.4 99.5 57.25 99.7 58.9 M100.2 62.35 L100.85 67.1 101.05 76.4 100.9 79.65 100.1 82.9 97.4 80.2 Q96.05 79.25 93.95 78.85 L91.45 75.25 92.7 76.1 94.75 77.85 Q96.5 79.5 97.9 79.5 98.55 79.5 98.75 78.65 L98.8 77.05 Q98.8 74.0 97.7 72.55 L97.2 72.0 96.7 71.35 Q95.25 69.65 92.65 69.45 L91.75 69.15 92.2 69.15 93.15 69.2 94.45 69.2 97.05 69.65 98.15 70.15 99.45 71.15 100.2 62.35 M94.6 96.85 L94.25 97.9 Q94.05 100.5 91.65 108.7 L89.2 117.3 88.95 118.45 86.25 120.45 86.4 119.65 84.85 119.85 86.05 119.2 Q83.95 119.2 82.7 117.15 81.35 114.95 78.55 114.0 78.2 113.75 77.85 113.75 L76.5 113.1 79.4 113.95 82.3 114.85 84.55 116.1 87.65 117.5 Q86.7 114.1 85.95 113.6 L84.8 113.55 84.5 113.2 86.6 113.3 86.45 112.35 Q86.35 111.35 86.75 111.1 L87.5 110.7 86.75 110.0 Q84.75 107.65 83.0 106.2 82.3 105.6 81.6 105.15 L81.8 105.25 Q84.85 106.55 85.35 107.0 L88.25 109.65 88.5 107.0 88.5 105.4 88.5 105.2 89.45 104.9 89.95 104.25 90.45 104.5 Q90.55 101.5 89.2 98.0 87.7 94.05 85.35 92.7 L84.55 92.3 84.05 91.95 Q83.35 91.4 85.2 91.5 L87.85 93.0 90.15 94.5 92.6 97.15 93.1 96.95 93.3 96.7 93.55 94.25 Q93.55 90.15 89.45 88.2 88.05 87.55 84.55 86.85 L83.7 86.7 83.2 86.65 80.45 86.1 74.1 85.1 76.45 84.6 Q78.15 84.45 79.7 84.6 L83.6 85.2 88.8 86.45 91.9 87.65 93.25 89.25 94.4 90.9 94.5 91.1 94.6 91.5 94.85 92.35 Q95.45 88.25 92.0 84.0 L87.5 79.4 87.25 78.95 87.85 79.45 92.35 83.2 96.35 86.9 96.55 87.15 97.8 88.8 97.85 88.95 95.1 95.05 94.6 96.85 M88.45 120.8 Q87.95 124.15 88.6 127.3 L89.75 131.55 Q84.0 131.85 80.75 133.9 77.6 135.85 76.9 135.85 L73.1 135.4 69.55 134.8 Q76.6 136.1 79.85 132.75 L81.7 130.3 Q82.5 129.1 83.2 129.1 84.05 129.1 85.3 127.15 86.5 125.25 86.8 123.6 L86.7 123.85 86.2 124.35 83.65 125.3 81.25 125.85 79.5 125.75 77.55 126.2 75.9 126.2 75.3 126.05 75.95 125.85 77.45 125.85 77.7 125.85 78.1 125.8 78.45 125.7 79.5 125.75 81.5 124.65 83.45 123.5 87.0 121.7 Q88.0 121.7 88.45 120.8 M90.05 133.5 L90.1 134.0 90.35 137.85 89.15 145.25 Q87.95 152.35 87.9 153.8 L86.75 154.25 83.1 154.55 82.75 154.5 82.55 154.5 Q78.6 153.55 77.2 153.55 76.15 153.55 73.3 154.45 L75.45 153.0 78.25 151.9 Q83.35 152.2 84.65 150.6 L85.7 147.1 Q86.15 145.85 87.35 143.55 88.2 141.95 88.2 141.2 L88.05 140.2 87.85 139.95 84.55 143.5 Q83.55 144.2 79.0 144.2 L74.6 143.85 75.1 143.8 Q80.05 142.95 84.7 138.9 L90.05 133.5 M87.85 155.3 Q87.85 156.95 88.3 159.9 89.1 165.2 91.0 170.15 L92.15 173.85 90.2 172.6 89.2 176.95 Q88.9 177.8 88.9 178.6 L86.45 179.7 87.0 179.1 87.35 178.3 87.6 177.45 88.0 176.1 88.45 174.6 88.7 173.8 88.3 173.7 86.3 174.9 84.0 175.6 81.75 175.9 80.5 175.9 84.0 175.05 Q86.1 174.05 86.95 172.85 L87.8 170.85 88.3 168.4 Q88.3 167.3 88.0 166.7 87.9 166.2 86.85 165.35 85.3 166.4 83.05 168.9 80.9 170.85 78.05 170.85 L76.75 170.75 75.15 170.55 Q79.2 170.55 82.05 169.0 84.9 167.4 84.9 165.2 L85.5 162.3 85.55 161.1 82.85 161.35 80.7 161.05 80.3 160.85 82.5 159.65 84.5 158.7 86.7 158.0 87.35 156.95 Q86.5 157.15 84.5 156.95 L83.95 156.9 81.3 156.25 79.85 155.8 87.85 155.3 M93.1 177.65 Q98.85 197.8 99.7 207.25 100.1 212.05 99.8 215.2 L100.1 216.45 100.8 220.1 Q99.0 221.25 97.5 221.25 96.0 221.25 94.35 220.5 L92.6 219.6 90.3 218.45 86.95 217.85 82.5 217.4 79.85 217.75 76.9 218.4 76.9 218.3 76.55 218.4 76.4 218.5 76.1 219.05 Q76.25 220.2 76.05 220.8 L74.75 220.95 73.85 220.85 73.65 220.75 73.3 220.1 74.35 219.5 75.0 218.55 75.3 217.85 75.4 217.55 75.7 216.75 Q75.8 216.65 77.15 215.85 78.25 216.0 78.25 214.25 78.25 213.55 77.2 212.25 75.7 210.4 73.15 209.55 L73.8 209.55 77.65 210.45 77.85 209.95 Q77.8 206.85 78.6 203.9 L78.75 203.5 Q78.8 207.8 79.5 210.95 L80.05 214.4 80.05 214.45 80.15 216.1 83.55 216.15 84.1 216.2 84.05 216.45 91.5 218.3 98.45 220.5 98.45 219.5 Q97.85 219.3 95.2 216.1 92.95 213.45 89.45 213.85 L85.3 213.85 84.55 213.75 93.85 213.1 Q95.0 213.15 96.4 214.05 L98.05 214.9 98.75 214.8 98.85 214.65 99.15 211.3 Q99.15 210.25 97.75 209.7 L95.45 209.45 95.1 209.4 94.7 209.25 95.15 208.95 97.05 207.3 Q98.05 206.55 98.05 205.35 L97.85 204.1 97.65 203.55 96.2 204.15 Q95.45 204.65 93.5 205.3 L91.45 205.85 90.35 205.8 Q83.65 206.15 82.75 205.8 L82.45 205.55 Q86.4 205.55 89.05 204.65 91.65 203.7 93.8 201.45 95.4 199.8 95.65 198.85 94.7 198.6 94.2 198.2 L93.75 197.65 93.85 193.4 94.05 193.0 Q94.05 192.0 93.4 190.35 L93.15 189.8 93.15 189.65 93.15 189.6 94.8 189.4 Q95.45 189.15 95.55 188.5 95.15 187.3 94.25 186.7 93.85 186.4 93.45 186.25 L93.15 186.2 92.55 185.65 93.7 184.15 94.1 183.25 93.6 180.5 92.95 178.25 93.1 177.65 M103.8 232.6 Q105.2 235.5 105.9 236.0 107.6 237.15 108.55 238.15 107.9 238.05 106.2 236.95 104.5 235.9 103.55 235.75 L102.4 235.8 101.6 235.8 100.95 235.8 Q100.25 238.75 100.1 240.15 L101.2 242.95 102.2 245.2 102.45 247.15 102.9 249.3 98.25 252.5 96.25 253.85 Q97.0 252.95 97.3 251.15 L97.45 249.2 97.45 247.8 95.1 248.0 Q91.75 249.65 89.9 250.15 L85.15 250.65 Q82.9 250.65 81.55 249.2 L82.35 249.15 85.5 249.45 87.0 249.3 91.65 248.55 96.65 246.35 97.95 244.55 98.85 242.6 98.75 241.85 96.7 241.95 96.1 242.05 Q93.35 243.25 91.05 243.65 L86.8 243.95 83.5 243.9 87.2 243.2 92.0 241.75 95.45 240.25 97.2 238.6 97.6 237.75 98.25 236.2 98.6 234.75 Q98.6 232.2 96.55 232.2 96.3 232.2 92.95 234.15 L91.35 234.95 90.85 235.0 88.3 235.3 87.85 235.15 89.25 235.0 Q92.6 235.0 97.4 229.25 99.85 228.7 99.85 227.2 99.85 225.85 100.0 225.4 100.3 224.5 101.45 223.55 102.9 230.9 103.8 232.6 M109.45 239.05 L110.95 240.4 109.05 240.4 107.25 240.8 109.45 239.05 M112.85 242.85 L115.15 247.55 114.25 247.6 113.3 247.6 113.15 245.35 112.85 242.85 M109.55 247.85 L108.4 247.95 108.8 246.85 109.05 245.7 109.3 246.3 109.55 247.85 M106.65 248.2 L104.05 248.8 104.15 246.5 104.8 246.75 105.7 247.5 106.55 248.15 106.65 248.2 M85.2 256.45 L82.45 256.6 76.15 256.0 Q75.1 255.4 74.5 255.4 L70.55 256.3 63.7 257.5 Q64.4 256.9 65.15 255.35 L65.85 253.75 65.75 252.8 53.95 252.8 Q50.75 252.7 45.1 250.95 L44.9 250.8 48.7 251.2 52.05 251.4 66.3 250.5 Q66.55 250.5 67.2 251.35 L68.2 252.65 69.25 253.1 71.25 253.3 74.6 253.6 Q77.55 253.2 77.55 249.25 77.55 245.9 72.35 245.25 63.95 244.15 60.35 242.35 L58.45 241.1 Q61.4 242.65 67.35 243.75 L75.85 244.9 Q76.85 244.9 77.15 244.45 L74.8 243.6 Q72.6 242.5 71.05 240.2 L68.05 237.5 70.9 238.35 73.75 239.75 Q73.75 240.35 74.6 240.75 L76.55 241.15 78.45 241.85 76.85 240.95 77.0 239.7 Q77.1 238.7 77.7 238.7 77.1 238.7 77.2 238.15 L77.45 237.55 Q77.25 235.7 76.75 234.6 L76.3 234.05 Q75.7 234.05 75.3 233.65 74.9 233.2 74.9 232.6 L74.9 232.25 Q73.9 232.25 73.2 231.4 72.5 230.55 72.5 229.35 L72.75 228.3 71.9 228.15 69.55 226.6 69.2 226.1 Q69.2 224.3 67.55 223.0 65.9 221.7 63.6 221.7 L61.2 221.4 62.3 221.05 66.3 221.15 Q67.8 221.15 68.9 221.9 69.95 222.65 69.95 223.7 70.3 226.2 72.45 227.4 75.2 228.95 75.75 229.8 76.2 230.5 76.05 228.2 L75.8 225.25 76.75 226.55 78.45 231.15 Q79.75 235.0 79.9 236.35 L79.8 237.45 Q79.45 237.7 79.3 238.55 L79.2 239.35 79.1 244.35 Q79.25 247.7 79.6 248.9 80.15 250.75 81.9 251.7 L83.85 253.25 84.65 254.8 85.2 256.45 M36.15 247.1 L36.0 246.9 35.0 246.25 Q35.15 245.6 34.55 245.15 34.0 244.7 34.1 244.3 34.55 242.8 43.1 235.85 L39.2 239.7 37.8 241.7 37.05 243.7 37.05 245.5 37.05 248.15 36.8 248.15 36.15 247.1 M63.1 103.3 L63.25 103.2 Q64.05 102.75 65.4 102.3 L67.45 101.8 69.7 102.0 71.55 102.5 72.1 102.95 72.1 103.85 67.25 103.8 64.1 104.3 62.5 104.45 62.55 103.95 63.1 103.3 M80.25 32.15 L80.4 32.15 Q82.8 32.0 83.8 31.5 L84.0 31.45 Q86.3 29.9 87.0 26.2 L87.15 25.95 Q87.7 30.4 85.95 31.85 84.8 32.75 81.6 32.75 L79.8 32.25 80.25 32.15 M99.1 51.15 L100.1 52.4 99.95 53.15 99.65 52.25 Q99.35 51.85 98.95 51.85 L98.85 51.75 99.0 51.15 99.1 51.15 M80.55 52.85 L80.7 52.6 Q80.9 52.2 81.25 52.2 L82.85 51.95 85.1 51.85 87.25 52.4 88.75 52.8 85.9 53.0 80.45 53.5 80.55 52.85 M85.15 59.55 L84.1 59.15 85.35 58.4 88.65 57.8 90.45 58.2 92.8 59.0 94.05 59.8 94.1 59.85 95.65 61.15 89.25 59.75 87.95 59.45 85.15 59.55 M86.55 63.95 L88.85 64.45 86.4 64.5 84.6 65.05 Q83.35 65.5 82.95 65.7 80.35 66.85 78.55 66.9 L78.15 66.65 Q77.75 66.2 77.95 65.15 79.15 64.45 81.55 63.95 L84.45 63.5 85.2 63.65 86.55 63.95 M78.5 104.0 L76.8 104.1 77.15 103.8 78.5 104.0 M64.55 147.15 Q64.55 148.0 65.3 148.65 66.0 149.25 67.0 149.25 L69.1 149.75 67.05 149.95 64.5 149.7 62.35 149.1 61.45 148.25 Q62.55 147.65 63.6 147.0 L64.25 146.5 63.95 145.35 63.65 144.95 65.0 145.3 64.65 146.55 64.55 147.15 M66.9 156.05 L69.85 156.15 70.1 155.2 70.15 155.15 71.1 155.5 69.8 156.35 68.1 156.9 66.2 157.15 64.75 156.95 63.95 156.55 63.45 155.85 66.9 156.05 M71.35 164.45 L71.65 165.0 Q72.25 166.1 72.0 167.4 L71.9 167.8 71.45 168.9 70.45 170.15 69.25 170.6 64.95 170.85 Q62.35 170.85 59.55 169.2 57.55 168.05 56.5 166.85 L59.35 167.75 Q61.8 168.6 63.25 168.65 L68.75 168.2 Q70.3 167.1 70.15 166.0 L69.65 166.15 67.0 166.3 64.0 166.25 Q61.4 166.05 60.25 165.25 L59.5 164.55 67.2 165.1 Q68.75 165.1 70.15 164.15 L71.1 164.0 71.35 164.45 M61.2 132.0 Q61.65 132.9 63.25 133.8 L66.45 135.5 64.55 135.65 Q61.9 135.85 60.55 134.85 59.35 134.05 59.35 132.55 L59.55 131.05 59.7 130.3 60.45 131.05 61.2 132.0 M77.8 175.55 L78.95 175.8 75.5 175.5 77.8 175.55 M80.05 186.2 L83.4 186.5 84.35 186.45 81.5 187.25 77.45 188.2 75.85 190.0 75.75 190.7 75.75 193.1 75.65 193.8 75.65 193.85 73.85 195.15 74.45 194.5 Q75.1 193.05 75.1 191.9 75.1 188.75 74.45 185.9 L80.05 186.2 M82.7 195.6 L85.1 195.85 84.25 196.35 78.4 198.6 78.2 199.1 77.65 199.2 76.75 199.2 76.7 198.95 76.3 197.85 Q75.9 197.35 74.6 197.2 L74.6 197.15 Q76.55 195.9 77.05 195.6 77.45 195.35 77.85 195.25 L78.45 195.15 78.75 195.15 82.7 195.6 M69.7 111.15 L75.1 111.15 72.35 111.8 68.3 112.45 68.2 112.45 65.0 112.5 63.75 112.45 61.6 112.1 Q60.65 111.85 60.1 111.4 L59.9 111.2 60.4 111.2 66.3 111.15 69.7 111.15 M69.7 183.9 L69.6 184.25 68.65 188.2 67.8 191.45 Q67.55 192.55 67.2 192.4 67.0 192.65 67.2 196.75 66.9 198.15 65.8 199.8 L63.85 203.0 63.7 200.25 63.85 199.55 65.3 197.6 66.6 196.15 66.85 195.35 66.35 194.0 66.15 192.45 Q66.15 191.55 67.25 188.3 L69.15 183.4 69.7 183.9 M48.0 226.5 L50.2 227.1 57.95 228.15 Q53.9 228.15 50.8 228.3 L48.45 228.45 48.0 228.35 47.1 228.75 45.1 229.75 46.55 229.9 45.2 231.25 43.95 232.2 Q43.45 232.15 43.2 231.75 L43.1 231.45 43.05 231.35 43.8 230.5 44.45 230.1 47.0 227.85 46.85 227.7 46.75 227.4 46.85 226.5 48.0 226.5 M56.85 240.05 L56.15 239.55 56.35 239.55 56.85 240.05" fill="#655c49" fill-rule="evenodd" stroke="none"/>
      <path d="M99.0 18.45 L100.4 24.9 100.15 24.15 100.0 23.65 99.55 21.85 99.0 18.95 99.0 18.45 M102.5 31.7 L102.75 34.3 Q101.65 32.9 99.45 31.75 L99.2 31.6 97.45 30.85 95.75 30.45 Q93.35 30.45 90.2 31.2 86.85 32.0 86.15 32.85 L87.75 32.7 89.3 32.5 85.5 34.45 85.95 34.5 92.6 34.75 Q99.1 35.55 102.2 38.45 102.7 40.1 102.4 41.25 L100.65 41.5 99.1 41.35 Q92.55 37.0 88.3 37.1 L84.45 37.3 79.15 36.7 78.5 35.65 Q78.2 35.1 78.2 34.45 78.75 30.25 78.55 26.75 L81.75 27.35 Q84.05 28.0 84.8 28.55 84.8 30.65 84.0 31.45 L83.8 31.5 80.5 31.55 80.4 32.15 80.25 32.15 78.8 32.25 Q80.5 33.3 82.25 33.3 L85.2 32.8 Q86.5 32.25 87.35 30.95 89.45 29.65 92.6 29.1 95.35 30.15 100.15 30.25 101.85 31.05 102.5 31.7 M100.25 51.95 Q99.6 55.85 99.6 57.0 L99.7 58.9 99.5 57.25 99.75 54.4 99.95 53.15 100.1 52.4 100.25 51.95 M97.85 89.0 L95.7 94.0 94.6 96.85 95.1 95.05 97.85 88.95 97.85 89.0 M87.9 153.8 L87.9 153.85 86.75 154.25 87.9 153.8 M100.1 216.45 L101.3 222.05 Q102.75 229.0 103.8 232.6 102.9 230.9 101.45 223.55 L100.8 220.05 100.8 220.1 100.1 216.45 M114.25 247.6 L113.15 247.65 113.3 247.6 114.25 247.6 M108.4 247.95 L106.65 248.2 106.55 248.15 Q106.2 246.85 106.1 244.5 L106.75 243.05 107.05 241.15 Q107.05 239.9 106.3 238.6 L107.15 238.75 Q107.5 238.9 107.5 239.55 L107.45 240.35 107.2 240.8 107.25 240.8 Q111.1 240.55 111.4 241.45 L112.0 246.7 111.75 247.5 110.1 246.25 110.15 243.85 109.65 245.25 Q109.35 244.95 109.35 244.35 L109.1 243.15 109.2 244.3 109.05 245.7 108.8 246.85 108.4 247.95 M98.25 252.5 L96.2 253.95 96.25 253.85 98.25 252.5 M37.8 250.75 L36.15 247.1 36.8 248.15 37.8 250.75 M34.45 246.05 L33.6 245.75 34.05 245.85 34.45 246.05 M35.65 236.85 Q39.75 230.9 50.35 221.25 57.55 214.75 59.2 208.2 L58.8 210.15 58.9 210.15 59.3 210.15 Q62.7 209.8 65.2 204.7 66.45 202.0 67.15 198.8 67.8 195.4 67.8 191.45 L68.65 188.2 69.6 184.25 69.75 183.95 70.3 184.45 Q71.6 185.35 72.95 185.75 L73.1 186.25 Q73.1 187.65 73.65 188.9 L74.45 190.45 73.7 192.8 Q73.1 194.0 73.1 194.8 L73.45 197.1 73.75 199.4 69.8 200.15 70.95 200.15 73.05 200.1 Q74.25 200.25 75.7 201.7 75.35 202.4 73.75 203.6 72.2 204.75 71.5 204.9 L71.85 205.05 74.35 205.3 Q75.65 205.45 75.65 206.45 L75.55 207.15 75.4 207.0 75.35 207.1 Q74.3 207.7 71.15 207.6 68.15 207.5 65.3 209.5 L68.45 209.5 69.7 209.65 72.5 211.05 72.1 211.2 67.9 211.15 69.35 211.45 Q71.45 212.1 73.1 213.25 L71.45 212.85 Q69.4 211.95 64.15 212.0 L62.9 211.75 62.5 211.55 63.4 212.15 Q63.2 212.4 62.6 212.45 L62.2 212.5 64.0 212.5 67.3 214.35 Q69.6 215.55 70.85 215.5 L69.25 215.6 64.95 215.95 62.35 215.85 59.9 215.65 Q61.2 216.45 63.7 216.9 L67.95 217.7 Q73.0 218.9 73.7 223.15 73.15 224.2 71.65 224.2 L70.65 224.05 69.95 223.7 Q69.95 222.65 68.9 221.9 67.8 221.15 66.3 221.15 L64.2 220.05 58.95 219.6 Q57.35 219.6 56.15 220.1 L56.5 220.2 62.3 221.05 61.2 221.4 63.6 221.7 66.15 223.7 69.2 226.1 69.55 226.6 67.7 225.45 Q65.65 224.55 63.15 224.8 L63.75 224.9 Q65.15 225.5 73.45 233.45 L73.45 233.7 72.9 233.55 72.5 233.6 Q72.6 234.1 73.45 235.5 74.4 237.05 75.25 237.8 L74.85 237.65 Q73.45 237.2 71.1 234.95 L66.5 230.7 Q60.0 225.1 53.6 226.15 50.35 226.0 49.6 226.15 L49.65 226.1 52.0 224.0 51.3 224.5 48.55 226.05 46.8 226.35 Q45.9 226.6 45.75 226.85 L45.85 227.05 Q46.1 227.3 46.75 227.4 L46.85 227.7 44.45 230.1 43.8 230.5 43.05 231.35 43.1 231.45 41.75 232.85 38.0 236.95 38.1 238.15 37.2 238.15 35.65 236.85 M59.65 206.2 L59.9 202.35 59.35 192.85 58.75 185.25 61.4 185.85 63.35 185.65 62.65 186.45 64.3 186.75 Q64.95 186.95 65.05 187.15 L63.1 189.1 Q65.2 188.95 65.2 190.55 65.2 192.8 63.9 193.55 L60.15 193.9 60.2 194.6 60.75 195.25 61.05 195.75 64.85 195.6 64.95 195.9 Q64.9 196.35 63.85 196.25 L62.8 196.25 63.2 196.55 64.8 196.8 Q63.5 198.5 63.5 198.85 63.5 199.85 63.85 199.55 L63.7 200.25 62.7 201.3 60.95 202.65 59.95 203.4 60.8 203.5 61.95 203.45 61.35 204.0 Q60.55 204.8 59.65 206.2 M58.1 182.0 L57.85 181.25 56.65 177.1 56.7 177.3 58.1 182.0 M54.65 170.05 Q53.8 165.9 53.8 164.6 L54.85 159.5 Q55.85 153.85 55.85 150.4 L54.55 140.0 55.0 140.45 Q58.15 142.15 59.0 142.25 L58.0 142.45 59.6 142.45 62.65 144.5 Q62.65 145.3 63.05 145.85 63.4 146.4 63.9 146.4 L60.8 146.55 60.85 146.75 59.4 146.9 61.0 148.15 62.35 149.1 64.5 149.7 67.05 149.95 64.1 151.15 64.3 151.35 Q66.4 152.85 66.85 153.4 L64.05 154.75 67.75 155.4 66.9 156.05 63.45 155.85 63.95 156.55 64.75 156.95 63.0 156.8 61.35 156.3 61.5 156.85 Q62.1 157.75 64.75 158.35 L67.95 158.8 67.9 158.9 66.95 160.1 65.9 160.8 67.05 160.9 Q68.5 160.75 69.4 160.15 L69.5 160.65 68.6 162.0 67.3 163.2 70.8 162.85 70.15 164.15 Q68.75 165.1 67.2 165.1 L59.5 164.55 60.25 165.25 Q61.4 166.05 64.0 166.25 L67.0 166.3 Q64.55 168.3 62.15 167.55 L62.5 168.2 63.25 168.65 Q61.8 168.6 59.35 167.75 L56.5 166.85 Q57.55 168.05 59.55 169.2 62.35 170.85 64.95 170.85 L69.25 170.6 Q68.6 171.15 66.3 171.3 63.9 171.4 63.15 171.95 L63.2 172.4 Q64.05 173.35 65.65 173.35 L67.9 172.95 Q70.0 172.4 71.0 171.35 L71.7 171.7 69.7 174.05 Q72.75 173.15 78.5 172.4 83.6 171.4 87.35 168.25 L87.35 169.1 Q87.4 171.75 83.6 172.9 L74.15 174.6 72.85 175.1 71.45 175.8 72.6 176.0 81.75 176.55 84.2 176.1 87.9 176.3 Q86.75 177.3 84.85 178.3 81.1 180.25 76.95 180.25 L75.0 180.2 77.2 178.65 78.5 177.3 71.55 177.85 Q67.95 177.8 65.5 176.1 64.9 175.7 60.4 174.15 57.25 173.05 54.55 169.45 L54.65 169.75 54.65 170.05 M54.1 137.45 L53.4 132.95 Q56.15 131.65 57.2 131.45 L58.3 131.6 Q57.95 132.55 58.35 133.45 L57.05 134.15 Q57.25 134.55 58.9 135.15 60.55 135.75 60.8 136.1 L54.5 136.3 55.2 136.75 58.3 137.7 Q59.5 138.9 65.35 139.0 70.3 139.25 73.1 138.9 L72.95 139.15 69.75 139.6 66.05 139.45 67.05 139.7 69.45 139.9 75.75 139.85 75.35 140.85 70.9 141.25 68.9 141.6 69.1 141.6 63.9 141.35 Q62.1 140.9 58.55 139.25 55.2 137.65 54.35 136.95 L54.1 137.45 M53.15 130.25 L53.05 128.7 Q54.35 128.2 56.1 126.5 L58.55 124.15 Q54.7 126.35 53.05 126.6 L54.25 117.6 56.0 115.25 54.45 116.05 Q55.65 111.9 57.95 106.4 59.45 106.2 61.65 103.9 L62.55 103.95 62.5 104.45 64.1 104.3 63.45 106.15 63.75 107.6 Q63.95 106.9 65.3 105.5 L67.25 103.8 72.1 103.85 72.1 102.95 73.9 103.25 79.95 105.25 Q83.15 106.7 83.15 109.1 83.15 110.1 82.5 109.55 L79.95 109.05 Q81.5 110.95 81.85 112.95 L81.8 113.7 81.5 113.7 Q80.3 112.55 77.95 111.75 75.6 110.95 73.4 110.95 L71.2 111.0 68.8 110.65 65.25 110.7 63.45 109.05 60.4 111.2 59.9 111.2 60.1 111.4 58.3 112.85 Q58.8 112.55 59.7 112.4 L57.5 113.8 58.05 113.75 60.65 112.95 63.75 112.45 65.0 112.5 68.2 112.45 68.3 112.45 Q71.4 112.5 74.85 114.4 78.5 116.4 79.6 116.5 L79.1 117.75 80.5 117.9 78.85 118.85 77.05 119.8 Q75.15 119.8 71.75 118.6 L68.6 117.4 67.0 117.65 65.4 118.05 64.7 118.15 Q62.1 117.7 59.65 118.75 L57.45 120.2 58.2 119.75 59.55 119.4 62.4 119.9 62.75 120.6 Q61.55 122.4 61.0 124.25 60.7 125.4 60.7 126.1 L59.75 127.7 Q59.3 127.9 58.85 128.2 L58.55 128.5 59.0 128.95 58.8 129.45 53.15 130.25 M63.8 96.3 L71.65 81.9 Q74.6 82.75 77.15 80.45 L80.35 77.45 84.2 77.3 88.15 77.45 Q86.65 76.55 82.5 76.1 82.8 75.8 86.15 74.35 89.15 73.0 89.6 72.0 L89.4 71.65 85.25 70.75 84.7 70.75 84.7 70.7 84.1 70.7 84.7 70.75 Q82.35 70.8 80.8 71.45 L78.8 72.1 80.65 70.9 Q82.25 70.05 84.8 69.65 83.95 69.9 85.55 69.75 L90.15 69.55 Q91.9 69.65 92.95 70.55 93.9 71.4 93.9 72.65 93.9 74.0 92.9 74.75 90.25 73.9 88.25 73.8 L89.95 74.3 91.6 75.2 88.5 75.05 85.2 75.2 86.25 75.2 Q88.4 74.7 90.5 75.95 92.3 77.0 93.4 78.8 L91.45 78.9 93.55 80.9 Q95.0 82.15 97.55 87.65 L96.55 87.15 96.35 86.9 Q95.55 85.65 93.95 84.3 91.15 80.15 89.4 79.25 87.9 78.45 83.4 78.45 81.1 78.45 79.5 79.75 78.45 80.6 78.2 81.4 L78.75 81.8 Q80.9 81.0 85.85 82.75 91.2 84.65 91.9 87.65 L88.8 86.45 Q87.2 85.6 85.15 85.05 L81.4 84.6 76.2 84.4 73.2 85.35 70.05 85.85 72.1 85.95 70.4 86.7 68.85 87.5 69.85 87.3 Q71.1 86.9 72.45 86.0 L80.45 86.1 83.2 86.65 Q86.6 88.6 89.85 90.95 90.3 92.85 90.15 94.5 L87.85 93.0 85.2 91.5 Q83.7 90.45 80.45 89.05 77.4 87.75 76.65 87.75 76.0 87.75 72.9 89.15 69.4 90.75 68.15 92.1 L68.6 92.05 Q69.65 91.7 71.3 90.8 72.95 90.15 75.55 90.15 77.8 90.15 79.85 90.9 L72.15 91.1 72.55 91.15 Q75.85 91.15 76.8 91.7 76.8 92.45 76.4 92.85 L71.45 93.15 Q69.45 93.65 69.05 94.7 L70.0 94.35 72.1 93.95 73.8 93.75 73.85 93.8 Q76.15 94.4 78.45 95.7 79.55 96.3 80.7 97.05 83.4 98.9 84.1 99.95 L84.25 100.2 81.85 99.45 82.65 99.75 Q85.85 101.6 85.95 104.5 L85.9 104.6 85.85 104.85 Q83.95 101.6 80.05 99.85 L76.4 98.7 Q74.65 99.25 73.75 99.85 L74.2 100.1 78.0 101.2 Q79.75 101.7 81.05 103.3 L77.95 102.25 Q76.95 101.7 73.6 101.1 L70.4 100.6 Q64.7 102.2 63.25 103.2 L63.1 103.3 61.8 103.75 Q64.05 100.35 66.55 98.1 69.55 95.45 71.7 95.8 L66.45 94.85 Q65.8 94.85 64.8 95.5 L63.8 96.3 M75.7 74.65 Q77.45 70.0 78.45 60.85 79.25 53.25 79.05 49.7 78.8 46.1 80.05 43.7 L81.35 41.2 81.35 41.45 82.85 41.0 84.2 41.15 84.15 41.2 84.3 41.2 85.6 42.5 83.95 43.9 82.6 44.85 82.8 45.0 86.3 43.2 Q90.2 41.35 92.95 41.35 94.2 41.35 96.3 42.65 L99.35 44.8 94.3 44.15 93.25 43.95 92.85 43.9 91.55 43.9 85.9 45.45 83.55 46.5 83.5 46.5 82.0 48.1 Q81.15 49.15 81.15 49.55 L81.25 50.25 81.6 50.35 84.5 47.8 Q85.5 47.05 87.0 47.05 L91.9 47.1 Q93.8 48.05 97.45 50.95 L97.55 51.25 Q95.8 51.1 93.3 51.3 L89.9 51.7 89.3 51.95 85.1 51.85 82.85 51.95 81.25 52.2 Q80.9 52.2 80.7 52.6 L80.55 52.85 Q80.15 53.3 79.9 53.8 L80.45 53.5 85.9 53.0 86.15 53.0 89.0 53.55 90.85 54.75 Q92.8 56.5 92.8 59.0 L90.45 58.2 88.65 57.8 85.35 58.4 84.1 59.15 85.15 59.55 83.85 60.4 Q93.0 59.35 96.85 63.55 98.75 65.65 98.9 68.15 L98.6 69.25 96.0 67.4 Q96.0 65.55 93.55 64.25 91.1 62.95 87.6 62.95 L82.35 62.9 Q78.65 63.25 77.95 65.15 77.75 66.2 78.15 66.65 L78.55 66.9 Q80.35 66.85 82.95 65.7 L82.0 67.05 81.45 68.1 81.5 68.7 81.7 68.8 82.5 68.85 Q81.6 69.25 79.85 70.75 L78.2 72.35 78.15 72.35 77.85 72.45 Q77.2 72.75 75.7 74.65 M81.3 40.75 L81.2 40.2 81.3 40.55 81.3 40.75 M80.85 39.4 L80.6 38.85 80.7 39.0 80.85 39.4 M78.3 24.75 L78.15 23.55 80.3 22.9 82.1 22.4 Q84.85 22.4 86.6 23.2 L88.5 24.45 88.35 24.65 82.45 24.3 78.3 24.75 M78.0 22.6 L77.85 21.75 84.65 19.65 Q87.6 20.7 90.25 21.95 92.6 22.7 98.25 22.9 L97.75 23.75 Q96.8 25.45 94.55 25.45 92.05 25.45 90.1 23.15 88.1 20.85 85.1 20.85 L81.65 21.05 Q79.75 21.4 78.0 22.6 M76.45 14.8 L72.9 1.5 75.75 11.7 75.8 12.1 76.15 13.45 76.45 14.8 M76.5 113.1 L77.85 113.75 77.15 113.45 76.5 113.1 M96.35 40.9 L96.95 41.15 97.9 41.75 96.35 40.9 M87.25 52.4 L85.1 51.85 85.8 52.0 87.25 52.4 M95.2 53.75 L96.65 54.45 93.7 53.5 92.8 52.9 93.9 53.25 95.2 53.75 M94.05 59.8 L95.1 59.95 94.1 59.85 94.05 59.8 M93.15 69.2 L92.2 69.15 92.65 69.15 93.15 69.2 M91.8 65.1 L89.1 64.5 88.85 64.45 91.7 65.05 91.8 65.1 M90.5 65.6 L94.05 67.3 94.4 68.7 93.1 68.4 Q92.55 66.75 91.95 66.4 91.15 66.2 90.5 65.6 M84.45 63.5 L84.75 63.55 85.2 63.65 84.45 63.5 M84.45 105.85 L83.95 105.4 85.35 105.5 84.45 105.85 M79.95 109.05 Q77.85 107.4 72.75 107.2 74.95 107.45 77.3 108.2 L79.95 109.05 M83.0 119.8 L81.55 121.55 80.8 121.45 Q80.85 120.95 81.35 120.1 L83.0 119.8 M65.45 120.85 Q67.2 121.4 70.3 123.35 73.3 125.25 75.25 125.75 L74.1 125.85 75.75 125.8 75.95 125.85 75.3 126.05 74.35 126.2 75.9 126.2 77.55 126.2 81.0 125.9 79.55 127.1 74.55 127.25 68.75 126.5 65.8 127.0 62.75 127.55 Q62.25 127.35 62.95 127.0 L64.05 126.55 62.1 125.15 62.2 124.85 62.55 124.1 Q62.95 123.35 63.75 122.7 L65.45 120.85 M81.45 127.1 L83.35 126.3 83.3 127.3 82.9 127.4 81.45 127.1 M68.65 130.4 Q73.4 131.05 77.0 129.85 L81.0 128.4 78.55 132.0 76.4 133.65 70.85 134.15 67.4 134.2 62.15 132.6 61.75 131.9 67.6 130.9 67.4 130.9 63.8 130.55 65.15 130.4 68.65 130.4 M79.95 145.7 L79.35 146.45 78.2 147.2 81.05 146.45 Q80.05 147.45 75.3 148.65 L70.8 149.75 Q70.8 150.75 70.0 149.85 L69.55 149.7 69.35 148.75 69.65 148.35 74.25 148.1 Q78.0 147.4 79.35 145.8 L79.95 145.7 M70.8 158.5 L71.5 160.15 70.5 160.1 Q70.8 160.1 70.8 158.5 M75.35 167.15 L78.9 166.95 79.55 166.85 79.65 166.8 80.05 166.7 81.8 166.1 84.85 164.9 Q84.7 165.35 84.9 165.2 84.9 167.4 82.05 169.0 79.2 170.55 75.15 170.55 L72.65 171.1 71.05 171.2 Q71.45 170.4 71.45 168.9 L71.9 167.8 Q74.5 167.75 75.35 167.15 M80.85 165.8 L75.15 165.85 Q74.45 165.65 74.1 164.85 L77.1 164.75 76.95 164.55 76.25 164.05 73.55 163.8 Q73.85 163.05 73.55 162.45 L74.6 162.25 Q73.55 162.4 73.05 161.7 72.6 160.65 72.15 160.15 L72.2 157.75 77.7 157.55 81.65 157.6 Q82.8 157.5 83.95 156.9 L84.5 156.95 84.5 158.7 82.5 159.65 80.3 160.85 80.7 161.05 82.85 161.35 85.55 161.1 85.5 162.3 Q82.25 165.25 80.85 165.8 M74.35 155.95 L74.05 155.5 80.3 155.35 82.55 154.5 82.75 154.5 80.75 155.65 80.55 155.7 76.15 155.9 76.85 156.1 74.35 155.95 M75.45 153.0 L73.35 152.75 74.15 152.55 72.8 152.5 72.45 151.5 71.75 152.45 70.65 152.15 69.75 151.6 70.0 151.55 71.4 151.2 Q72.2 150.95 72.2 150.5 72.2 150.3 77.5 149.65 83.15 148.6 84.5 146.5 84.5 148.75 82.7 150.35 80.85 151.9 78.25 151.9 L75.45 153.0 M66.4 145.35 L70.4 144.7 72.15 145.35 69.3 146.55 67.9 146.35 66.4 145.35 M88.7 173.8 L88.45 174.6 88.55 174.2 88.7 173.8 M89.05 204.65 Q86.4 205.55 82.45 205.55 L82.75 205.8 Q83.65 206.15 90.35 205.8 L79.15 206.15 80.25 206.45 83.7 207.55 88.4 207.85 90.95 207.45 Q88.45 208.9 87.45 209.1 L82.9 209.5 85.35 209.5 84.2 210.65 83.15 211.8 83.35 211.8 88.05 212.25 93.15 211.65 93.85 211.55 93.85 213.1 84.55 213.75 85.3 213.85 80.05 214.4 79.5 210.95 Q78.8 207.8 78.75 203.5 L78.85 204.8 79.4 202.35 83.0 202.15 85.85 200.85 90.85 199.2 Q90.95 201.4 90.6 202.55 90.2 203.7 89.05 204.65 M95.15 208.95 L94.7 209.25 94.9 209.1 91.05 209.15 95.15 208.95 M83.55 216.15 L80.15 216.1 80.05 214.45 80.15 214.8 89.7 214.65 Q91.7 214.65 92.85 215.3 L92.4 215.55 88.1 215.7 83.55 216.15 M75.7 216.75 L75.4 217.55 74.3 216.0 Q74.4 214.9 73.9 214.0 L74.55 214.7 75.7 216.75 M75.3 217.85 L75.0 218.55 74.4 217.45 75.3 217.85 M89.25 196.15 L89.8 196.1 90.8 198.7 83.45 197.85 80.9 198.0 Q84.8 196.7 86.5 196.7 88.15 196.7 89.0 197.15 L90.4 198.0 89.95 197.1 89.25 196.15 M85.15 191.6 L84.4 192.25 81.3 192.75 77.25 192.8 Q78.6 191.75 81.45 191.25 L84.85 190.9 85.15 191.6 M81.05 186.15 L85.15 186.45 85.1 187.45 84.6 187.5 Q81.9 187.7 80.55 188.25 79.1 188.8 78.3 190.05 L79.3 190.3 79.05 190.5 Q78.4 190.5 77.95 189.85 77.45 189.15 77.45 188.2 L81.5 187.25 84.35 186.45 83.4 186.5 80.05 186.2 80.45 186.2 81.05 186.15 M79.1 183.2 L78.45 183.25 77.8 183.25 79.1 183.2 M77.1 193.9 L78.95 193.8 77.4 194.4 77.1 193.9 M62.45 182.5 Q61.5 182.5 60.85 181.85 60.15 181.15 60.15 180.2 L60.15 179.55 62.65 179.75 64.9 180.4 65.25 180.5 68.65 180.85 69.15 181.05 Q68.8 181.15 68.35 181.7 L65.5 182.1 63.6 182.75 62.45 182.5 M69.7 174.05 L68.5 175.75 68.75 175.5 69.7 174.05 M67.65 182.8 L67.35 183.2 65.35 183.1 67.65 182.8 M79.9 236.35 L79.85 237.1 79.8 237.45 79.9 236.35 M83.95 251.05 L88.6 250.95 93.45 250.7 Q92.4 252.2 89.1 252.75 L83.55 253.0 83.85 253.25 81.9 251.7 82.75 252.35 Q82.75 252.0 83.45 251.3 L85.25 251.15 83.95 251.05 M82.35 249.15 L81.9 249.0 81.7 248.2 Q81.7 247.15 84.75 246.45 L87.8 245.5 87.6 245.25 87.95 245.15 95.4 244.45 94.3 245.25 Q93.55 246.3 92.05 246.75 L90.2 247.1 93.15 247.1 92.25 247.75 88.9 248.85 87.0 249.3 85.5 249.45 82.35 249.15 M86.8 243.95 L84.35 244.5 Q82.4 244.7 81.05 243.85 82.1 242.25 85.75 240.4 L85.55 240.1 Q82.1 239.0 81.55 236.35 L80.85 229.25 83.8 229.15 92.35 229.9 88.85 230.95 89.9 231.15 93.4 231.25 92.75 231.65 84.25 235.3 82.1 235.5 84.25 235.55 Q87.4 235.65 89.65 237.4 92.0 239.2 92.0 241.75 L87.2 243.2 83.5 243.9 86.8 243.95 M80.5 227.1 Q80.5 223.95 83.9 221.75 85.85 220.45 88.25 219.95 L88.95 220.45 89.05 220.45 Q90.2 221.05 92.55 221.75 91.2 222.9 87.2 222.9 L87.75 223.1 89.85 223.65 Q92.05 224.35 92.85 225.25 L85.8 225.5 80.5 227.1 M49.75 229.95 Q51.35 230.15 51.55 230.5 L48.85 231.3 47.2 231.75 Q48.8 233.05 52.15 233.35 L57.75 235.25 58.75 235.9 58.7 235.9 60.35 236.95 61.4 237.4 Q62.8 239.45 64.45 240.1 66.0 240.7 70.8 241.15 L70.85 241.2 66.75 241.1 57.55 237.55 56.2 236.65 Q54.9 235.9 52.9 235.7 51.5 234.45 48.1 234.2 L43.55 234.05 Q44.05 232.95 45.05 232.1 L47.0 229.9 49.75 229.95 M48.45 228.45 L48.05 228.5 48.0 228.55 47.9 228.55 48.0 228.35 48.45 228.45 M53.0 239.4 Q56.95 240.9 57.55 242.2 L57.35 242.35 55.15 242.65 51.15 242.2 Q49.2 241.65 46.5 240.2 L47.2 240.8 Q54.9 244.7 59.55 245.55 L50.55 245.05 Q41.7 240.3 40.45 239.15 L41.0 239.75 Q41.85 241.3 44.2 243.1 L46.8 244.75 Q49.15 246.95 49.95 247.15 L56.35 247.85 60.05 248.45 67.15 249.2 Q66.75 250.6 67.65 251.3 L68.85 252.15 68.2 252.65 67.2 251.35 Q66.55 250.5 66.3 250.5 L52.05 251.4 48.7 251.2 44.9 250.8 45.1 250.95 42.65 249.6 49.3 249.95 Q54.1 250.05 58.05 249.75 L55.95 249.3 45.0 247.3 Q42.55 246.6 39.7 243.6 L40.0 244.45 40.4 245.25 42.4 247.4 45.1 249.25 43.15 248.55 39.45 246.9 Q37.55 245.7 37.2 243.5 L37.8 241.7 39.2 239.7 41.85 238.15 43.25 235.6 44.7 235.75 Q44.2 235.9 45.65 236.8 L47.3 237.7 Q49.15 238.6 50.35 238.9 L53.0 239.4 M72.5 233.6 L72.35 233.9 Q72.5 234.65 72.5 233.6 M92.8 209.7 L93.25 209.95 91.95 209.65 92.8 209.7 M102.4 235.8 L103.55 235.75 103.05 236.75 102.4 235.8 M104.05 248.8 Q102.45 247.5 102.45 246.4 102.45 244.05 103.8 242.5 104.8 241.35 106.0 241.1 L105.75 241.4 Q104.9 243.55 104.8 246.75 L104.15 246.5 104.05 248.8" fill="#d9cbb0" fill-rule="evenodd" stroke="none"/>
      <path d="M101.0 26.75 L102.05 30.0 100.15 30.25 Q95.35 30.15 92.6 29.1 L88.85 27.0 88.15 28.95 87.35 30.95 Q86.5 32.25 85.2 32.8 L82.25 33.3 Q80.5 33.3 78.8 32.25 L80.25 32.15 79.8 32.25 81.6 32.75 Q84.8 32.75 85.95 31.85 87.7 30.4 87.15 25.95 L88.35 24.65 88.5 24.45 89.1 23.85 88.95 26.8 92.7 27.2 91.55 27.75 98.1 27.95 Q99.95 27.95 101.0 26.75 M102.75 34.3 L103.0 34.65 102.75 34.45 100.1 32.2 99.45 31.75 Q101.65 32.9 102.75 34.3 M102.15 45.05 L101.9 45.9 101.2 44.6 Q100.6 43.65 97.9 41.75 L96.95 41.15 96.35 40.9 Q95.8 40.5 94.6 40.15 L91.8 39.75 Q90.0 39.75 87.9 40.5 L84.85 41.2 84.3 41.2 84.15 41.2 84.2 41.15 82.85 41.0 81.3 40.55 81.2 40.2 80.95 39.65 80.9 39.55 80.85 39.4 80.7 39.0 85.2 39.85 93.5 39.45 Q94.15 39.45 98.6 41.3 L98.3 41.3 Q99.6 41.5 100.65 42.3 102.15 43.45 102.15 45.05 M100.0 61.2 L100.2 62.35 99.45 71.15 98.15 70.15 99.05 68.1 Q99.55 66.4 99.55 65.1 99.55 64.3 98.1 62.6 96.65 60.85 95.1 59.95 L97.45 60.45 97.5 59.6 97.35 58.85 Q98.35 59.3 99.2 60.1 L100.0 61.2 M89.75 131.55 L90.05 133.45 90.05 133.5 84.7 138.9 Q80.05 142.95 75.1 143.8 L74.6 143.85 79.0 144.2 Q83.55 144.2 84.55 143.5 L87.85 139.95 88.05 140.2 88.2 141.2 Q88.2 141.95 87.35 143.55 86.15 145.85 85.7 147.1 L84.65 150.6 Q83.35 152.2 78.25 151.9 80.85 151.9 82.7 150.35 84.5 148.75 84.5 146.5 83.15 148.6 77.5 149.65 72.2 150.3 72.2 150.5 72.2 150.95 71.4 151.2 L70.0 151.55 69.75 151.6 70.65 152.15 71.75 152.45 72.45 151.5 72.8 152.5 73.35 152.75 75.45 153.0 73.3 154.45 Q76.15 153.55 77.2 153.55 78.6 153.55 82.55 154.5 L80.3 155.35 74.05 155.5 74.35 155.95 75.45 156.85 77.05 157.0 79.65 156.8 78.7 157.3 77.7 157.55 72.2 157.75 72.15 160.15 Q72.15 161.1 72.55 161.8 72.95 162.45 73.55 162.45 73.85 163.05 73.55 163.8 L73.05 164.75 73.3 165.7 75.15 165.85 80.85 165.8 81.65 165.9 80.05 166.7 79.65 166.8 79.55 166.85 78.9 166.95 75.35 167.15 72.0 167.4 Q72.25 166.1 71.65 165.0 L71.35 164.45 Q72.0 163.05 71.5 160.15 L70.8 158.5 Q70.25 157.75 70.0 157.05 L69.8 156.35 71.1 155.5 70.15 155.15 70.1 155.2 69.85 156.15 66.9 156.05 67.75 155.4 64.05 154.75 66.85 153.4 Q66.4 152.85 64.3 151.35 L64.1 151.15 67.05 149.95 69.1 149.75 67.0 149.25 Q66.0 149.25 65.3 148.65 64.55 148.0 64.55 147.15 L69.0 147.85 69.65 148.35 69.35 148.75 69.55 149.7 70.0 149.85 Q70.8 150.75 70.8 149.75 L75.3 148.65 Q80.05 147.45 81.05 146.45 L78.2 147.2 79.35 146.45 79.95 145.7 79.65 145.6 79.8 145.5 74.1 144.85 73.2 144.95 70.95 144.5 Q71.75 143.75 74.25 142.9 L79.8 140.85 78.1 140.85 Q79.25 139.85 82.5 137.65 84.0 136.65 84.2 135.45 L80.3 136.3 75.95 136.6 72.9 136.5 64.2 136.45 Q63.1 136.55 62.4 137.15 L62.9 137.75 Q63.9 138.5 65.35 139.0 59.5 138.9 58.3 137.7 59.35 136.95 60.75 136.55 L62.0 136.15 Q60.15 135.25 58.35 133.45 57.95 132.55 58.3 131.6 L58.8 129.45 59.0 128.95 59.75 127.7 60.7 126.1 63.85 120.85 62.55 124.1 62.2 124.85 61.45 126.4 Q61.45 127.0 61.9 127.8 L62.45 128.75 Q61.25 129.1 60.95 129.45 L60.45 131.05 59.7 130.3 59.55 131.05 59.35 132.55 Q59.35 134.05 60.55 134.85 61.9 135.85 64.55 135.65 L66.45 135.5 63.25 133.8 Q61.65 132.9 61.2 132.0 L62.15 132.6 67.4 134.2 70.85 134.15 76.4 133.65 78.55 132.0 81.0 128.4 83.45 127.5 82.9 127.4 83.3 127.3 Q84.1 127.1 84.75 126.6 L84.25 126.55 Q85.8 125.35 86.2 124.35 L86.7 123.85 86.8 123.6 Q86.5 125.25 85.3 127.15 84.05 129.1 83.2 129.1 82.5 129.1 81.7 130.3 L79.85 132.75 Q76.6 136.1 69.55 134.8 L73.1 135.4 76.9 135.85 Q77.6 135.85 80.75 133.9 84.0 131.85 89.75 131.55 M87.9 153.85 L87.85 155.3 79.85 155.8 81.3 156.25 76.85 156.1 76.15 155.9 80.55 155.7 80.75 155.65 Q82.75 154.95 83.1 154.55 L86.75 154.25 87.9 153.85 M108.55 238.15 L109.45 239.05 107.25 240.8 109.05 240.4 110.95 240.4 112.1 241.4 112.85 242.85 113.15 245.35 113.3 247.6 113.15 247.65 112.35 247.65 112.0 246.7 111.4 241.45 Q111.1 240.55 107.25 240.8 L107.2 240.8 107.45 240.35 107.5 239.55 Q107.5 238.9 107.15 238.75 L106.3 238.6 102.55 238.8 103.05 236.75 103.55 235.75 Q104.5 235.9 106.2 236.95 107.9 238.05 108.55 238.15 M111.05 247.75 L109.55 247.85 109.3 246.3 109.65 245.25 110.15 243.85 110.1 246.25 110.7 247.35 111.05 247.75 M103.45 249.05 L102.9 249.3 102.45 247.15 Q102.85 248.45 103.45 249.05 M96.2 253.95 Q94.3 255.7 91.7 256.05 L85.2 256.45 84.65 254.8 83.85 253.25 Q86.8 254.1 89.5 254.15 L90.1 253.85 Q93.05 253.25 96.2 253.95 M63.7 257.5 L63.2 257.55 60.1 257.9 53.9 257.75 52.5 257.45 51.15 257.15 51.35 257.15 55.8 256.95 Q57.8 256.5 59.35 254.9 L58.95 254.9 Q48.2 256.2 44.1 252.85 L41.6 250.25 Q40.25 248.95 38.5 248.85 L38.15 251.3 37.8 250.75 36.8 248.15 37.05 248.15 37.05 245.5 Q37.9 246.65 40.65 247.85 L43.75 249.1 42.15 249.15 42.65 249.6 45.1 250.95 Q50.75 252.7 53.95 252.8 L65.75 252.8 65.85 253.75 65.15 255.35 Q64.4 256.9 63.7 257.5 M35.0 246.25 L34.5 246.05 34.45 246.05 34.05 245.85 Q33.5 243.85 33.5 242.3 33.5 241.4 33.95 240.45 34.9 238.6 37.2 238.15 L38.1 238.15 38.0 236.95 41.75 232.85 43.1 231.45 43.2 231.75 Q43.45 232.15 43.95 232.2 L45.2 231.25 46.55 229.9 46.75 229.9 47.0 229.9 45.05 232.1 Q44.05 232.95 43.55 234.05 L43.25 235.6 41.85 238.15 39.2 239.7 43.1 235.85 Q34.55 242.8 34.1 244.3 34.0 244.7 34.55 245.15 35.15 245.6 35.0 246.25 M77.85 21.75 L77.35 19.0 81.55 18.75 86.2 19.05 84.65 19.65 77.85 21.75 M77.15 17.9 L76.45 14.8 76.15 13.45 83.7 13.95 82.75 14.5 79.95 16.15 77.15 17.9 M75.75 11.7 Q77.3 10.6 79.75 9.75 82.35 8.85 84.3 8.85 85.95 8.85 88.5 9.95 91.55 11.3 93.9 11.65 L94.2 11.85 94.45 12.65 Q94.45 14.1 92.05 16.15 L94.8 17.65 Q97.5 18.85 99.0 18.95 L99.55 21.85 Q97.45 21.85 93.8 18.7 90.05 15.4 88.3 15.2 L89.65 15.0 Q90.35 14.8 90.7 14.45 L91.15 13.85 90.6 13.2 Q86.75 13.35 86.5 12.15 86.25 10.9 83.65 10.9 L79.7 11.35 75.8 12.1 75.75 11.7 M74.1 85.1 L80.45 86.1 72.45 86.0 72.1 85.95 70.05 85.85 73.2 85.35 74.1 85.1 M84.55 86.85 Q88.05 87.55 89.45 88.2 93.55 90.15 93.55 94.25 L93.3 96.7 93.1 96.95 92.6 97.15 90.15 94.5 Q90.3 92.85 89.85 90.95 89.3 90.05 87.6 88.65 85.9 87.25 84.55 86.85 M84.05 91.95 L84.55 92.3 84.15 92.15 83.4 91.85 83.15 91.75 84.05 91.95 M89.95 104.25 L89.45 104.9 89.55 104.0 89.95 104.25 M88.5 105.4 L88.5 107.0 87.0 105.5 87.45 105.5 86.7 105.3 85.9 104.6 85.95 104.5 Q86.85 104.55 88.5 105.4 M85.35 107.0 Q84.85 106.55 81.8 105.25 L81.6 105.15 78.5 104.0 77.15 103.8 73.9 103.25 72.1 102.95 71.55 102.5 74.8 102.2 77.95 102.25 81.05 103.3 Q82.3 104.75 83.95 105.4 L84.45 105.85 85.35 107.0 M86.75 110.0 L87.5 110.7 86.75 111.1 Q86.35 111.35 86.45 112.35 L86.6 113.3 84.5 113.2 82.5 111.1 83.4 110.8 86.75 111.1 86.75 110.0 M84.8 113.55 L85.95 113.6 Q86.7 114.1 87.65 117.5 L84.55 116.1 Q84.95 115.4 84.8 113.55 M82.3 114.85 L79.4 113.95 76.5 113.1 77.15 113.45 72.35 111.8 75.1 111.15 69.7 111.15 71.2 111.0 73.4 110.95 Q75.6 110.95 77.95 111.75 80.3 112.55 81.5 113.7 L82.3 114.85 M78.55 114.0 Q81.35 114.95 82.7 117.15 83.95 119.2 86.05 119.2 L84.85 119.85 86.4 119.65 86.25 120.45 Q84.55 121.65 81.55 121.55 L83.0 119.8 83.4 118.3 80.5 117.9 79.1 117.75 79.6 116.5 Q79.6 115.35 79.1 114.55 L78.55 114.0 M81.4 84.6 L85.15 85.05 Q87.2 85.6 88.8 86.45 L83.6 85.2 79.7 84.6 81.4 84.6 M93.95 84.3 Q95.55 85.65 96.35 86.9 L92.35 83.2 87.85 79.45 Q90.0 79.8 91.25 81.3 L93.95 84.3 M91.6 75.2 L89.95 74.3 88.25 73.8 Q90.25 73.9 92.9 74.75 94.5 75.1 95.15 75.85 L95.95 76.9 97.05 75.9 Q97.9 74.95 97.9 73.95 97.8 72.9 97.2 72.0 L97.7 72.55 Q98.8 74.0 98.8 77.05 L98.75 78.65 Q98.55 79.5 97.9 79.5 96.5 79.5 94.75 77.85 L92.65 76.0 91.6 75.2 M90.15 69.55 L85.55 69.75 Q83.95 69.9 84.8 69.65 L89.85 68.85 92.65 69.15 92.2 69.15 91.75 69.15 92.65 69.45 90.15 69.55 M61.8 103.75 L63.1 103.3 62.55 103.95 61.65 103.9 61.8 103.75 M64.1 104.3 L67.25 103.8 65.3 105.5 Q63.95 106.9 63.75 107.6 L63.45 106.15 64.1 104.3 M100.0 23.65 L100.15 24.15 Q99.35 24.85 97.35 25.8 95.3 26.8 94.5 26.85 95.55 26.5 100.0 23.65 M97.45 30.85 L96.8 30.75 94.5 31.1 92.0 31.45 90.7 31.65 90.45 31.75 Q96.7 33.6 98.25 34.7 L100.95 36.75 Q97.7 35.1 95.95 34.35 92.85 33.05 89.3 32.5 L87.75 32.7 86.15 32.85 Q86.85 32.0 90.2 31.2 93.35 30.45 95.75 30.45 L97.45 30.85 M84.0 31.45 Q84.8 30.65 84.8 28.55 L87.0 26.2 Q86.3 29.9 84.0 31.45 M91.55 43.9 L87.7 45.1 84.85 46.2 Q84.65 46.2 85.25 45.85 L85.9 45.45 91.55 43.9 M93.7 44.1 L93.25 43.95 94.3 44.15 93.85 44.15 93.7 44.1 M85.9 53.0 L88.75 52.8 87.25 52.4 85.8 52.0 89.2 52.15 91.9 52.65 93.25 53.4 91.95 53.15 Q93.3 53.5 94.45 54.15 96.8 55.5 96.8 57.45 96.0 56.05 91.65 54.45 L89.0 53.55 86.15 53.0 85.9 53.0 M98.0 47.15 L95.95 45.4 94.45 44.4 Q96.5 45.5 98.0 47.15 M97.05 69.65 L94.45 69.2 94.4 68.7 94.05 67.3 93.35 66.4 91.8 65.1 91.7 65.05 Q90.65 64.5 89.65 64.3 L86.55 63.95 85.2 63.65 84.75 63.55 87.6 62.95 Q91.1 62.95 93.55 64.25 96.0 65.55 96.0 67.4 L97.05 69.65 M94.6 91.5 L94.7 90.6 94.45 89.25 94.3 88.85 Q91.15 82.25 88.35 81.55 85.0 81.8 82.45 80.8 L82.85 80.4 Q83.25 80.1 85.15 79.7 L87.5 79.4 92.0 84.0 Q95.45 88.25 94.85 92.35 L94.6 91.5 M78.45 125.7 L78.8 125.6 80.85 124.65 Q82.55 123.7 83.45 123.5 L81.5 124.65 79.5 125.75 78.45 125.7 M81.25 125.85 L81.0 125.9 77.55 126.2 79.5 125.75 81.25 125.85 M62.65 144.5 L63.25 144.85 63.65 144.95 63.95 145.35 64.25 146.5 63.9 146.4 Q63.4 146.4 63.05 145.85 62.65 145.3 62.65 144.5 M65.0 145.3 L66.4 145.35 67.9 146.35 68.1 146.5 64.65 146.55 65.0 145.3 M86.95 172.85 Q86.1 174.05 84.0 175.05 L80.5 175.9 81.75 175.9 84.0 175.6 86.3 174.9 84.2 176.1 81.75 176.55 72.6 176.0 71.45 175.8 72.85 175.1 74.15 174.6 80.9 174.9 Q83.35 174.8 86.95 172.85 M88.3 173.7 L88.7 173.8 88.55 174.2 88.3 173.7 M88.0 176.1 L87.6 177.45 87.9 176.3 88.0 176.1 M87.35 178.3 L87.0 179.1 86.45 179.7 88.9 178.6 88.45 179.6 Q83.75 182.15 77.05 182.15 L73.3 181.75 74.9 181.3 Q76.15 181.05 80.45 181.25 84.75 180.95 87.35 178.3 M76.75 170.75 L78.05 170.85 Q80.9 170.85 83.05 168.9 85.3 166.4 86.85 165.35 87.9 166.2 88.0 166.7 85.5 169.85 82.4 171.1 79.65 172.15 75.15 172.15 L71.7 171.7 71.0 171.35 70.25 171.05 70.45 170.15 71.45 168.9 Q71.45 170.4 71.05 171.2 L72.65 171.1 76.75 170.75 M77.8 175.55 L75.5 175.5 78.95 175.8 77.8 175.55 M92.45 180.4 L92.95 178.25 93.6 180.5 94.1 183.25 93.7 184.15 92.55 185.65 Q91.8 184.9 91.8 183.7 92.55 182.95 92.55 181.9 L92.45 180.4 M93.45 186.25 Q93.85 186.4 94.25 186.7 95.15 187.3 95.55 188.5 95.45 189.15 94.8 189.4 L93.15 189.6 93.7 188.6 94.1 187.9 93.85 186.7 93.45 186.25 M93.85 193.4 L93.75 197.65 93.05 196.65 92.1 195.5 92.85 195.0 93.1 194.3 93.85 193.4 M90.35 205.8 L91.45 205.85 93.5 205.3 Q95.45 204.65 96.2 204.15 L97.65 203.55 97.85 204.1 98.05 205.35 Q98.05 206.55 97.05 207.3 L95.15 208.95 91.05 209.15 94.9 209.1 94.7 209.25 95.1 209.4 92.8 209.7 91.95 209.65 90.4 209.25 90.55 209.15 91.05 209.15 Q93.05 209.0 94.55 207.7 96.2 206.2 96.2 204.15 95.45 204.9 90.95 207.45 L88.4 207.85 83.7 207.55 80.25 206.45 79.15 206.15 90.35 205.8 M95.45 209.45 L97.75 209.7 Q99.15 210.25 99.15 211.3 L98.85 214.65 98.75 214.8 98.05 214.9 96.4 214.05 Q95.0 213.15 93.85 213.1 L94.65 212.25 95.45 211.35 97.75 211.15 97.8 211.15 95.55 210.55 95.45 209.45 M85.3 213.85 L89.45 213.85 Q92.95 213.45 95.2 216.1 97.85 219.3 98.45 219.5 L98.45 220.5 91.5 218.3 84.05 216.45 84.1 216.2 83.55 216.15 88.1 215.7 92.4 215.55 Q93.0 216.05 93.85 216.35 L92.85 215.3 Q91.7 214.65 89.7 214.65 L80.15 214.8 80.05 214.45 80.05 214.4 85.3 213.85 M78.6 203.9 Q77.8 206.85 77.85 209.95 L77.65 210.45 73.8 209.55 73.15 209.55 Q75.7 210.4 77.2 212.25 78.25 213.55 78.25 214.25 78.25 216.0 77.15 215.85 L76.0 214.55 Q74.8 213.4 74.8 212.85 74.8 210.85 72.55 210.05 L69.7 209.65 68.45 209.5 Q69.55 208.35 72.25 208.8 L76.0 209.9 75.6 207.9 75.35 207.1 75.4 207.0 75.55 207.15 75.8 207.55 76.55 207.75 77.15 207.6 77.05 207.4 77.4 204.65 Q77.4 203.75 76.6 203.45 75.75 203.1 75.75 202.75 75.75 202.15 76.0 201.75 L76.4 201.2 78.85 202.25 78.6 203.9 M75.4 217.55 L75.3 217.85 74.4 217.45 Q73.3 216.95 72.55 216.05 L71.3 214.5 Q69.5 212.7 64.0 212.5 L62.2 212.5 62.6 212.45 Q63.2 212.4 63.4 212.15 L64.15 212.0 Q69.4 211.95 71.45 212.85 L74.3 216.0 75.4 217.55 M74.35 219.5 L73.3 220.1 Q72.1 218.35 70.8 217.55 70.0 217.1 69.45 217.1 L66.95 217.1 67.7 216.5 69.5 216.4 Q71.8 216.4 73.0 217.6 L74.35 219.5 M73.65 220.75 L73.85 220.85 74.75 220.95 76.05 220.8 Q76.25 220.2 76.1 219.05 L76.4 218.5 76.55 218.4 76.9 218.3 76.9 218.4 79.85 217.75 82.5 217.4 86.95 217.85 90.3 218.45 Q84.85 218.6 79.65 220.3 L75.45 222.0 73.65 220.75 M81.05 186.15 L84.7 185.3 84.8 185.4 85.15 186.45 81.05 186.15 M74.45 185.9 Q75.1 188.75 75.1 191.9 75.1 193.05 74.45 194.5 L73.85 195.15 75.65 193.85 76.25 194.7 Q76.7 195.25 77.35 195.25 L77.85 195.25 Q77.45 195.35 77.05 195.6 76.55 195.9 74.6 197.15 L73.9 196.15 Q73.6 195.6 73.6 194.95 L74.0 193.0 74.45 190.45 73.65 188.9 Q73.1 187.65 73.1 186.25 L73.25 185.8 74.45 185.9 M79.05 190.5 L79.3 190.3 84.35 190.5 81.2 190.75 78.55 191.15 79.05 190.5 M77.15 182.75 L76.6 183.2 74.45 182.9 77.7 182.15 77.15 182.75 M82.7 195.6 L78.75 195.15 80.45 195.0 Q83.0 194.85 83.7 195.05 L82.7 195.6 M74.6 197.2 Q75.9 197.35 76.3 197.85 L76.7 198.95 73.8 198.6 74.45 198.2 74.9 197.5 74.6 197.2 M78.2 199.1 L78.4 198.6 79.0 198.95 78.2 199.1 M66.3 111.15 L60.4 111.2 63.45 109.05 65.25 110.7 66.3 111.15 M60.1 111.4 Q60.65 111.85 61.6 112.1 L59.7 112.4 Q58.8 112.55 58.3 112.85 L60.1 111.4 M75.9 126.2 L74.35 126.2 75.3 126.05 75.9 126.2 M63.6 147.0 Q62.55 147.65 61.45 148.25 L62.35 149.1 61.0 148.15 59.4 146.9 60.85 146.75 63.6 147.0 M69.65 166.15 L70.15 166.0 Q70.3 167.1 68.75 168.2 L69.65 166.15 M67.15 198.8 Q66.45 202.0 65.2 204.7 62.7 209.8 59.3 210.15 L58.9 210.15 58.8 210.15 59.2 208.2 Q60.65 208.2 61.7 206.2 62.7 204.15 62.7 201.3 L63.7 200.25 63.85 203.0 65.8 199.8 Q66.9 198.15 67.2 196.75 L67.15 198.8 M66.35 194.0 L66.85 195.35 66.6 196.15 65.3 197.6 64.8 196.8 63.2 196.55 62.8 196.25 63.85 196.25 Q64.9 196.35 64.95 195.9 65.55 195.9 65.95 195.35 66.35 194.8 66.35 194.0 M75.75 229.8 L75.8 225.25 Q76.25 225.05 76.75 226.55 L75.8 225.25 76.05 228.2 Q76.2 230.5 75.75 229.8 M79.85 237.1 Q79.75 238.3 79.2 239.35 L79.3 238.55 Q79.45 237.7 79.8 237.45 L79.85 237.1 M79.1 244.35 L81.15 244.8 83.45 244.9 83.15 245.3 Q81.5 245.25 80.95 246.05 80.7 246.45 80.7 247.35 80.7 248.4 81.05 249.05 81.8 250.3 83.95 251.05 L85.25 251.15 83.45 251.3 81.75 251.55 81.9 251.7 Q80.15 250.75 79.6 248.9 79.25 247.7 79.1 244.35 M97.45 249.2 L96.5 249.95 94.4 250.25 92.5 250.15 92.95 249.5 93.6 248.9 95.1 248.0 97.45 247.8 97.45 249.2 M96.65 246.35 Q97.1 244.6 96.1 242.05 L96.7 241.95 98.75 241.85 98.85 242.6 97.95 244.55 96.65 246.35 M53.6 226.15 L57.35 226.8 Q59.35 227.35 60.5 228.4 L57.95 228.15 50.2 227.1 48.0 226.5 48.55 226.05 51.3 224.5 52.0 224.0 49.65 226.1 49.6 226.15 Q50.35 226.0 53.6 226.15 M68.1 234.25 Q72.85 237.05 75.9 239.15 L76.5 238.75 77.45 237.55 77.2 238.15 Q77.1 238.7 77.7 238.7 77.1 238.7 77.0 239.7 L76.85 240.95 74.9 239.85 Q72.15 238.35 71.15 237.5 L68.1 234.25 M72.5 229.35 L71.5 228.2 71.9 228.15 72.75 228.3 72.5 229.35 M44.45 230.1 L46.85 227.7 47.0 227.85 44.45 230.1 M48.0 228.35 L47.9 228.55 47.1 228.75 48.0 228.35 M70.85 241.2 L70.8 241.15 Q69.65 240.1 67.5 238.55 L65.4 237.1 65.6 237.15 71.05 240.2 Q72.6 242.5 74.8 243.6 L77.15 244.45 Q76.85 244.9 75.85 244.9 L67.35 243.75 Q61.4 242.65 58.45 241.1 L58.15 240.9 56.85 240.05 56.35 239.55 Q59.0 239.6 68.1 242.1 73.45 244.25 74.6 244.15 L72.95 243.0 70.85 241.2 M37.8 241.7 L37.2 243.5 37.05 243.7 37.8 241.7 M56.35 247.85 L49.95 247.15 Q49.15 246.95 46.8 244.75 L45.3 242.85 47.95 244.05 50.55 245.05 59.55 245.55 64.55 245.1 60.35 242.35 Q63.95 244.15 72.35 245.25 77.55 245.9 77.55 249.25 77.55 253.2 74.6 253.6 L71.25 253.3 72.5 253.05 Q74.6 252.55 74.6 251.45 74.6 249.15 73.9 248.35 72.85 247.1 69.3 247.1 L60.05 247.95 56.35 247.85 M76.55 241.15 L74.6 240.75 Q73.75 240.35 73.75 239.75 L74.0 239.85 76.55 241.15 M97.4 229.25 Q92.6 235.0 89.25 235.0 L87.85 235.15 88.3 235.3 84.25 235.55 82.1 235.5 84.25 235.3 Q88.45 235.3 91.4 233.7 94.35 232.1 94.35 229.85 L94.45 229.85 97.4 229.25 M91.35 234.95 L92.95 234.15 Q96.3 232.2 96.55 232.2 98.6 232.2 98.6 234.75 L98.25 236.2 97.6 237.75 Q96.65 236.55 96.35 235.15 96.2 234.4 95.35 234.4 L91.35 234.95 M97.2 238.6 L95.45 240.25 Q95.45 239.55 96.0 239.1 96.5 238.6 97.2 238.6 M95.7 223.15 Q96.35 223.15 96.7 223.45 97.05 223.75 97.0 224.15 L96.5 224.8 95.5 225.0 95.7 223.15 M106.1 244.5 Q106.2 246.85 106.55 248.15 L105.7 247.5 105.65 245.65 Q105.65 244.0 106.05 242.95 L106.1 244.5 M100.1 240.15 Q100.25 238.75 100.95 235.8 L101.6 235.8 Q101.65 236.7 101.0 238.3 L100.1 240.15 M101.2 242.95 L102.05 241.85 102.2 245.2 101.2 242.95" fill="#94866b" fill-rule="evenodd" stroke="none"/>
      <path d="M102.05 30.0 L102.5 31.7 Q101.85 31.05 100.15 30.25 L102.05 30.0 M101.9 45.9 L101.9 46.0 101.85 45.95 100.8 45.35 99.35 44.8 96.3 42.65 Q94.2 41.35 92.95 41.35 90.2 41.35 86.3 43.2 L82.8 45.0 82.6 44.85 83.95 43.9 85.6 42.5 84.3 41.2 84.85 41.2 87.9 40.5 Q90.0 39.75 91.8 39.75 L94.6 40.15 Q95.8 40.5 96.35 40.9 L97.9 41.75 Q100.6 43.65 101.2 44.6 L101.9 45.9 M112.35 247.65 L111.05 247.75 110.7 247.35 110.1 246.25 111.75 247.5 112.0 246.7 112.35 247.65 M104.05 248.8 L103.45 249.05 Q102.85 248.45 102.45 247.15 L102.2 245.2 102.05 241.85 101.2 242.95 100.1 240.15 101.0 238.3 Q101.65 236.7 101.6 235.8 L102.4 235.8 103.05 236.75 102.55 238.8 106.3 238.6 Q107.05 239.9 107.05 241.15 L106.75 243.05 106.1 244.5 106.05 242.95 Q105.65 244.0 105.65 245.65 L105.7 247.5 104.8 246.75 Q104.9 243.55 105.75 241.4 L106.0 241.1 Q104.8 241.35 103.8 242.5 102.45 244.05 102.45 246.4 102.45 247.5 104.05 248.8 M51.15 257.15 L48.1 256.35 43.55 255.1 Q42.1 254.65 38.15 251.3 L38.5 248.85 Q40.25 248.95 41.6 250.25 L44.1 252.85 Q48.2 256.2 58.95 254.9 L59.35 254.9 Q57.8 256.5 55.8 256.95 L51.35 257.15 51.15 257.15 M33.6 245.75 L32.8 245.55 30.45 245.15 35.65 236.8 35.65 236.85 37.2 238.15 Q34.9 238.6 33.95 240.45 33.5 241.4 33.5 242.3 33.5 243.85 34.05 245.85 L33.6 245.75 M59.2 208.2 L59.65 206.2 Q60.55 204.8 61.35 204.0 L61.95 203.45 60.8 203.5 59.95 203.4 60.95 202.65 62.7 201.3 Q62.7 204.15 61.7 206.2 60.65 208.2 59.2 208.2 M53.4 132.95 L53.15 130.25 58.8 129.45 58.3 131.6 57.2 131.45 Q56.15 131.65 53.4 132.95 M53.05 128.7 L53.05 126.6 Q54.7 126.35 58.55 124.15 L56.1 126.5 Q54.35 128.2 53.05 128.7 M54.25 117.6 L54.1 117.75 54.45 116.05 56.0 115.25 54.25 117.6 M81.35 41.2 L81.35 41.15 81.3 40.75 81.3 40.55 82.85 41.0 81.35 41.45 81.35 41.2 M80.6 38.85 L79.65 37.65 Q78.85 36.5 79.15 36.7 L84.45 37.3 88.3 37.1 Q92.55 37.0 99.1 41.35 L98.6 41.3 Q94.15 39.45 93.5 39.45 L85.2 39.85 80.7 39.0 80.6 38.85 M78.55 26.75 L78.5 26.75 78.3 24.75 82.45 24.3 88.35 24.65 87.15 25.95 87.0 26.2 84.8 28.55 Q84.05 28.0 81.75 27.35 L78.55 26.75 M78.15 23.55 L78.0 22.6 Q79.75 21.4 81.65 21.05 L85.1 20.85 Q88.1 20.85 90.1 23.15 92.05 25.45 94.55 25.45 96.8 25.45 97.75 23.75 L98.25 22.9 Q92.6 22.7 90.25 21.95 87.6 20.7 84.65 19.65 L86.2 19.05 81.55 18.75 77.35 19.0 77.35 18.9 77.15 17.9 79.95 16.15 82.75 14.5 83.7 13.95 76.15 13.45 75.8 12.1 79.7 11.35 83.65 10.9 Q86.25 10.9 86.5 12.15 86.75 13.35 90.6 13.2 L91.15 13.85 90.7 14.45 Q90.35 14.8 89.65 15.0 L88.3 15.2 Q90.05 15.4 93.8 18.7 97.45 21.85 99.55 21.85 L100.0 23.65 Q95.55 26.5 94.5 26.85 L92.7 27.2 88.95 26.8 89.1 23.85 88.5 24.45 86.6 23.2 Q84.85 22.4 82.1 22.4 L80.3 22.9 78.15 23.55 M79.7 84.6 Q78.15 84.45 76.45 84.6 L74.1 85.1 73.2 85.35 76.2 84.4 81.4 84.6 79.7 84.6 M83.2 86.65 L83.7 86.7 84.55 86.85 Q85.9 87.25 87.6 88.65 89.3 90.05 89.85 90.95 86.6 88.6 83.2 86.65 M85.2 91.5 Q83.35 91.4 84.05 91.95 L83.15 91.75 82.5 91.55 79.85 90.9 Q77.8 90.15 75.55 90.15 72.95 90.15 71.3 90.8 69.65 91.7 68.6 92.05 L68.15 92.1 Q69.4 90.75 72.9 89.15 76.0 87.75 76.65 87.75 77.4 87.75 80.45 89.05 83.7 90.45 85.2 91.5 M89.45 104.9 L88.5 105.2 88.5 105.4 Q86.85 104.55 85.95 104.5 85.85 101.6 82.65 99.75 L81.85 99.45 84.25 100.2 Q84.75 101.7 86.2 102.6 L89.55 104.0 89.45 104.9 M88.5 107.0 L88.25 109.65 85.35 107.0 84.45 105.85 85.35 105.5 87.0 105.5 88.5 107.0 M81.6 105.15 Q82.3 105.6 83.0 106.2 84.75 107.65 86.75 110.0 L86.75 111.1 83.4 110.8 82.5 111.1 84.5 113.2 84.8 113.55 Q84.95 115.4 84.55 116.1 L82.3 114.85 81.5 113.7 81.8 113.7 81.85 112.95 Q81.5 110.95 79.95 109.05 L82.5 109.55 Q83.15 110.1 83.15 109.1 83.15 106.7 79.95 105.25 L73.9 103.25 77.15 103.8 76.8 104.1 78.5 104.0 81.6 105.15 M77.85 113.75 Q78.2 113.75 78.55 114.0 L79.1 114.55 Q79.6 115.35 79.6 116.5 78.5 116.4 74.85 114.4 71.4 112.5 68.3 112.45 L72.35 111.8 77.15 113.45 77.85 113.75 M72.1 85.95 L72.45 86.0 Q71.1 86.9 69.85 87.3 L68.85 87.5 70.4 86.7 72.1 85.95 M91.9 87.65 Q91.2 84.65 85.85 82.75 80.9 81.0 78.75 81.8 L78.2 81.4 Q78.45 80.6 79.5 79.75 81.1 78.45 83.4 78.45 87.9 78.45 89.4 79.25 91.15 80.15 93.95 84.3 L91.25 81.3 Q90.0 79.8 87.85 79.45 L87.25 78.95 87.5 79.4 85.15 79.7 Q83.25 80.1 82.85 80.4 L82.45 80.8 Q85.0 81.8 88.35 81.55 91.15 82.25 94.3 88.85 L94.45 89.25 94.7 90.6 94.6 91.5 94.5 91.1 94.4 90.9 93.25 89.25 91.9 87.65 M96.55 87.15 L97.55 87.65 97.8 88.8 96.55 87.15 M93.4 78.8 Q92.3 77.0 90.5 75.95 88.4 74.7 86.25 75.2 L85.2 75.2 88.5 75.05 91.6 75.2 92.65 76.0 94.75 77.85 92.7 76.1 91.45 75.25 93.95 78.85 93.4 78.8 M92.9 74.75 Q93.9 74.0 93.9 72.65 93.9 71.4 92.95 70.55 91.9 69.65 90.15 69.55 L92.65 69.45 Q95.25 69.65 96.7 71.35 L97.2 72.0 Q97.8 72.9 97.9 73.95 97.9 74.95 97.05 75.9 L95.95 76.9 95.15 75.85 Q94.5 75.1 92.9 74.75 M84.8 69.65 Q82.25 70.05 80.65 70.9 L78.8 72.1 78.4 72.35 78.1 72.4 78.15 72.35 78.2 72.35 79.85 70.75 Q81.6 69.25 82.5 68.85 L93.1 68.4 94.4 68.7 94.45 69.2 93.15 69.2 92.65 69.15 89.85 68.85 84.8 69.65 M73.8 93.75 L72.1 93.95 70.0 94.35 69.05 94.7 Q69.45 93.65 71.45 93.15 L76.4 92.85 Q75.45 93.5 73.2 93.5 L73.6 93.7 73.8 93.75 M63.25 103.2 Q64.7 102.2 70.4 100.6 L73.6 101.1 Q76.95 101.7 77.95 102.25 L74.8 102.2 71.55 102.5 69.7 102.0 67.45 101.8 65.4 102.3 Q64.05 102.75 63.25 103.2 M85.85 104.85 L85.9 104.6 86.7 105.3 85.85 104.85 M100.95 36.75 L102.2 38.45 Q99.1 35.55 92.6 34.75 L85.95 34.5 85.5 34.45 89.3 32.5 Q92.85 33.05 95.95 34.35 97.7 35.1 100.95 36.75 M92.6 29.1 Q89.45 29.65 87.35 30.95 L88.15 28.95 88.85 27.0 92.6 29.1 M80.4 32.15 L80.5 31.55 83.8 31.5 Q82.8 32.0 80.4 32.15 M85.9 45.45 L85.25 45.85 Q84.65 46.2 84.85 46.2 L83.55 46.5 89.75 46.65 91.9 47.1 87.0 47.05 Q85.5 47.05 84.5 47.8 L81.6 50.35 81.25 50.25 81.15 49.55 Q81.15 49.15 82.0 48.1 L83.5 46.5 83.55 46.5 85.9 45.45 M85.1 51.85 L89.3 51.95 89.2 52.15 85.8 52.0 85.1 51.85 M97.55 51.25 L97.45 50.95 99.0 51.15 98.85 51.75 97.55 51.25 M80.45 53.5 L79.9 53.8 Q80.15 53.3 80.55 52.85 L80.45 53.5 M89.0 53.55 L91.65 54.45 Q96.0 56.05 96.8 57.45 L96.8 58.75 97.35 58.85 97.5 59.6 97.45 60.45 95.1 59.95 Q96.65 60.85 98.1 62.6 99.55 64.3 99.55 65.1 99.55 66.4 99.05 68.1 L98.15 70.15 97.05 69.65 96.0 67.4 98.6 69.25 98.9 68.15 Q98.75 65.65 96.85 63.55 93.0 59.35 83.85 60.4 L85.15 59.55 87.95 59.45 89.25 59.75 95.65 61.15 94.1 59.85 95.1 59.95 94.05 59.8 92.8 59.0 Q92.8 56.5 90.85 54.75 L89.0 53.55 M93.25 53.4 L91.9 52.65 92.8 52.9 93.7 53.5 93.25 53.4 M91.7 65.05 L88.85 64.45 89.1 64.5 91.8 65.1 93.35 66.4 94.05 67.3 90.5 65.6 89.1 64.5 86.4 64.5 88.85 64.45 86.55 63.95 89.65 64.3 Q90.65 64.5 91.7 65.05 M84.75 63.55 L84.45 63.5 81.55 63.95 Q79.15 64.45 77.95 65.15 78.65 63.25 82.35 62.9 L87.6 62.95 84.75 63.55 M79.95 109.05 L77.3 108.2 Q74.95 107.45 72.75 107.2 77.85 107.4 79.95 109.05 M80.5 117.9 L83.4 118.3 83.0 119.8 81.35 120.1 77.05 119.8 78.85 118.85 80.5 117.9 M81.25 125.85 L83.65 125.3 86.2 124.35 Q85.8 125.35 84.25 126.55 L84.75 126.6 Q84.1 127.1 83.3 127.3 L83.35 126.3 81.45 127.1 80.0 127.0 79.55 127.1 81.0 125.9 81.25 125.85 M62.75 120.6 L63.85 120.85 65.45 120.85 63.75 122.7 Q62.95 123.35 62.55 124.1 L63.85 120.85 60.7 126.1 Q60.7 125.4 61.0 124.25 61.55 122.4 62.75 120.6 M75.25 125.75 L75.75 125.8 74.1 125.85 75.25 125.75 M65.35 139.0 Q63.9 138.5 62.9 137.75 L62.4 137.15 Q63.1 136.55 64.2 136.45 L72.9 136.5 75.95 136.6 80.3 136.3 84.2 135.45 Q84.0 136.65 82.5 137.65 79.25 139.85 78.1 140.85 L77.3 140.85 75.35 140.85 75.75 139.85 69.45 139.9 67.05 139.7 66.05 139.45 69.75 139.6 72.95 139.15 73.1 138.9 Q70.3 139.25 65.35 139.0 M70.95 144.5 L73.2 144.95 72.15 145.35 70.4 144.7 70.95 144.5 M79.65 145.6 L79.95 145.7 79.35 145.8 79.65 145.6 M69.0 147.85 L64.55 147.15 64.65 146.55 68.1 146.5 67.9 146.35 69.3 146.55 Q69.0 146.55 68.9 146.95 L68.8 147.3 69.0 147.85 M69.8 156.35 L70.0 157.05 Q70.25 157.75 70.8 158.5 70.8 160.1 70.5 160.1 L71.5 160.15 Q72.0 163.05 71.35 164.45 L71.1 164.0 70.15 164.15 70.8 162.85 67.3 163.2 68.6 162.0 69.5 160.65 69.4 160.15 Q68.5 160.75 67.05 160.9 L65.9 160.8 66.95 160.1 67.9 158.9 67.95 158.8 64.75 158.35 Q62.1 157.75 61.5 156.85 L61.35 156.3 63.0 156.8 64.75 156.95 66.2 157.15 68.1 156.9 69.8 156.35 M72.0 167.4 L75.35 167.15 Q74.5 167.75 71.9 167.8 L72.0 167.4 M80.05 166.7 L81.65 165.9 80.85 165.8 Q82.25 165.25 85.5 162.3 L84.9 165.2 Q84.7 165.35 84.85 164.9 L81.8 166.1 80.05 166.7 M75.15 165.85 L73.3 165.7 73.05 164.75 73.55 163.8 76.25 164.05 76.95 164.55 77.1 164.75 74.1 164.85 Q74.45 165.65 75.15 165.85 M73.55 162.45 Q72.95 162.45 72.55 161.8 72.15 161.1 72.15 160.15 72.6 160.65 73.05 161.7 73.55 162.4 74.6 162.25 L73.55 162.45 M77.7 157.55 L78.7 157.3 79.65 156.8 77.05 157.0 75.45 156.85 74.35 155.95 76.85 156.1 81.3 156.25 83.95 156.9 Q82.8 157.5 81.65 157.6 L77.7 157.55 M73.35 152.75 L72.8 152.5 74.15 152.55 73.35 152.75 M82.75 154.5 L83.1 154.55 Q82.75 154.95 80.75 155.65 L82.75 154.5 M76.4 133.65 L70.85 134.15 76.4 133.65 M62.15 132.6 L61.2 132.0 60.45 131.05 60.95 129.45 Q61.25 129.1 62.45 128.75 L61.9 127.8 Q61.45 127.0 61.45 126.4 L62.2 124.85 62.1 125.15 64.05 126.55 62.95 127.0 Q62.25 127.35 62.75 127.55 L62.35 127.8 62.8 128.25 64.0 129.05 64.15 129.15 68.65 130.4 65.15 130.4 63.8 130.55 67.4 130.9 67.6 130.9 61.75 131.9 62.15 132.6 M59.75 127.7 L59.0 128.95 58.55 128.5 58.85 128.2 Q59.3 127.9 59.75 127.7 M58.35 133.45 Q60.15 135.25 62.0 136.15 L60.75 136.55 Q59.35 136.95 58.3 137.7 L55.2 136.75 54.5 136.3 60.8 136.1 Q60.55 135.75 58.9 135.15 57.25 134.55 57.05 134.15 L58.35 133.45 M59.0 142.25 L59.6 142.45 58.0 142.45 59.0 142.25 M88.0 166.7 Q88.3 167.3 88.3 168.4 L87.8 170.85 86.95 172.85 Q83.35 174.8 80.9 174.9 L74.15 174.6 83.6 172.9 Q87.4 171.75 87.35 169.1 L87.35 168.25 Q83.6 171.4 78.5 172.4 72.75 173.15 69.7 174.05 L71.7 171.7 75.15 172.15 Q79.65 172.15 82.4 171.1 85.5 169.85 88.0 166.7 M86.3 174.9 L88.3 173.7 88.55 174.2 88.45 174.6 88.0 176.1 87.9 176.3 84.2 176.1 86.3 174.9 M84.5 156.95 Q86.5 157.15 87.35 156.95 L86.7 158.0 84.5 158.7 84.5 156.95 M75.15 170.55 L76.75 170.75 72.65 171.1 75.15 170.55 M70.45 170.15 L70.25 171.05 71.0 171.35 Q70.0 172.4 67.9 172.95 L65.65 173.35 Q64.05 173.35 63.2 172.4 L63.15 171.95 Q63.9 171.4 66.3 171.3 68.6 171.15 69.25 170.6 L70.45 170.15 M93.75 197.65 L94.2 198.2 Q94.7 198.6 95.65 198.85 95.4 199.8 93.8 201.45 91.65 203.7 89.05 204.65 90.2 203.7 90.6 202.55 90.95 201.4 90.85 199.2 L91.8 198.85 90.8 198.7 89.8 196.1 92.1 195.05 93.1 194.3 92.85 195.0 92.1 195.5 93.05 196.65 93.75 197.65 M95.1 209.4 L95.45 209.45 95.55 210.55 93.25 209.95 92.8 209.7 95.1 209.4 M78.75 203.5 L78.6 203.9 78.85 202.25 79.4 202.35 78.85 204.8 78.75 203.5 M77.15 215.85 Q75.8 216.65 75.7 216.75 L74.55 214.7 73.9 214.0 Q74.4 214.9 74.3 216.0 L71.45 212.85 73.1 213.25 Q71.45 212.1 69.35 211.45 L67.9 211.15 72.1 211.2 72.5 211.05 69.7 209.65 72.55 210.05 Q74.8 210.85 74.8 212.85 74.8 213.4 76.0 214.55 L77.15 215.85 M75.0 218.55 L74.35 219.5 73.0 217.6 Q71.8 216.4 69.5 216.4 L67.7 216.5 66.95 217.1 69.45 217.1 Q70.0 217.1 70.8 217.55 72.1 218.35 73.3 220.1 L73.65 220.75 75.45 222.0 79.65 220.3 Q84.85 218.6 90.3 218.45 L92.6 219.6 92.1 219.5 88.65 219.85 88.15 219.85 88.25 219.95 Q85.85 220.45 83.9 221.75 80.5 223.95 80.5 227.1 L80.6 227.55 80.95 227.6 82.05 228.05 83.8 229.15 80.85 229.25 81.55 236.35 Q82.1 239.0 85.55 240.1 L85.75 240.4 Q82.1 242.25 81.05 243.85 82.4 244.7 84.35 244.5 L86.8 243.95 91.05 243.65 Q93.35 243.25 96.1 242.05 97.1 244.6 96.65 246.35 L91.65 248.55 87.0 249.3 88.9 248.85 92.25 247.75 93.15 247.1 90.2 247.1 92.05 246.75 Q93.55 246.3 94.3 245.25 L95.4 244.45 87.95 245.15 87.6 245.25 87.8 245.5 84.75 246.45 Q81.7 247.15 81.7 248.2 L81.9 249.0 82.35 249.15 81.55 249.2 Q82.9 250.65 85.15 250.65 L89.9 250.15 Q91.75 249.65 95.1 248.0 L93.6 248.9 92.95 249.5 92.5 250.15 94.4 250.25 96.5 249.95 97.45 249.2 97.3 251.15 Q97.0 252.95 96.25 253.85 L96.2 253.95 Q93.05 253.25 90.1 253.85 L89.5 254.15 Q86.8 254.1 83.85 253.25 L83.55 253.0 89.1 252.75 Q92.4 252.2 93.45 250.7 L88.6 250.95 83.95 251.05 Q81.8 250.3 81.05 249.05 80.7 248.4 80.7 247.35 80.7 246.45 80.95 246.05 81.5 245.25 83.15 245.3 L83.45 244.9 81.15 244.8 79.1 244.35 79.2 239.35 Q79.75 238.3 79.85 237.1 L79.9 236.35 Q79.75 235.0 78.45 231.15 L76.75 226.55 Q76.25 225.05 75.8 225.25 L75.75 229.8 Q75.2 228.95 72.45 227.4 70.3 226.2 69.95 223.7 L70.65 224.05 71.65 224.2 Q73.15 224.2 73.7 223.15 73.0 218.9 67.95 217.7 L63.7 216.9 Q61.2 216.45 59.9 215.65 L62.35 215.85 64.95 215.95 69.25 215.6 70.85 215.5 Q69.6 215.55 67.3 214.35 L64.0 212.5 Q69.5 212.7 71.3 214.5 L72.55 216.05 Q73.3 216.95 74.4 217.45 L75.0 218.55 M91.8 183.7 L92.45 180.4 92.55 181.9 Q92.55 182.95 91.8 183.7 M83.8 195.0 L86.45 195.9 87.85 196.25 89.25 196.15 89.95 197.1 90.4 198.0 89.0 197.15 Q88.15 196.7 86.5 196.7 84.8 196.7 80.9 198.0 L79.0 198.95 78.4 198.6 84.25 196.35 85.1 195.85 82.7 195.6 83.7 195.05 Q83.0 194.85 80.45 195.0 L78.75 195.15 78.45 195.15 77.85 195.25 77.35 195.25 Q76.7 195.25 76.25 194.7 L75.65 193.85 75.65 193.8 77.1 193.9 77.4 194.4 78.95 193.8 81.2 193.95 83.8 195.0 M75.75 193.1 L75.75 190.7 75.85 190.0 77.45 188.2 Q77.45 189.15 77.95 189.85 78.4 190.5 79.05 190.5 L78.55 191.15 81.2 190.75 84.35 190.5 84.85 190.9 81.45 191.25 Q78.6 191.75 77.25 192.8 L75.75 193.1 M72.95 185.75 L73.25 185.8 73.1 186.25 72.95 185.75 M74.6 197.15 L74.6 197.2 74.9 197.5 74.45 198.2 73.8 198.6 76.7 198.95 76.75 199.2 73.8 199.2 73.95 199.55 75.25 200.6 76.4 201.2 76.0 201.75 Q75.75 202.15 75.75 202.75 75.75 203.1 76.6 203.45 77.4 203.75 77.4 204.65 L77.05 207.4 77.15 207.6 76.55 207.75 75.8 207.55 75.55 207.15 75.65 206.45 Q75.65 205.45 74.35 205.3 L71.85 205.05 71.5 204.9 Q72.2 204.75 73.75 203.6 75.35 202.4 75.7 201.7 74.25 200.25 73.05 200.1 L70.95 200.15 69.8 200.15 73.75 199.4 73.45 197.1 73.1 194.8 Q73.1 194.0 73.7 192.8 L74.45 190.45 74.0 193.0 73.6 194.95 Q73.6 195.6 73.9 196.15 L74.6 197.15 M75.35 207.1 L75.6 207.9 76.0 209.9 72.25 208.8 Q69.55 208.35 68.45 209.5 L65.3 209.5 Q68.15 207.5 71.15 207.6 74.3 207.7 75.35 207.1 M65.25 110.7 L68.8 110.65 71.2 111.0 69.7 111.15 66.3 111.15 65.25 110.7 M61.6 112.1 L63.75 112.45 60.65 112.95 58.05 113.75 57.5 113.8 59.7 112.4 61.6 112.1 M63.9 146.4 L64.25 146.5 63.6 147.0 60.85 146.75 60.8 146.55 63.9 146.4 M68.75 168.2 L63.25 168.65 62.5 168.2 62.15 167.55 Q64.55 168.3 67.0 166.3 L69.65 166.15 68.75 168.2 M69.7 174.05 L68.75 175.5 68.5 175.75 69.7 174.05 M69.75 183.95 L69.6 184.25 69.7 183.9 69.75 183.95 M67.8 191.45 Q67.8 195.4 67.15 198.8 L67.2 196.75 Q67.0 192.65 67.2 192.4 67.55 192.55 67.8 191.45 M69.15 183.4 L67.25 188.3 Q66.15 191.55 66.15 192.45 L66.35 194.0 Q66.35 194.8 65.95 195.35 65.55 195.9 64.95 195.9 L64.85 195.6 61.05 195.75 60.75 195.25 60.2 194.6 60.15 193.9 63.9 193.55 Q65.2 192.8 65.2 190.55 65.2 188.95 63.1 189.1 L65.05 187.15 Q64.95 186.95 64.3 186.75 L62.65 186.45 63.35 185.65 65.65 184.9 67.35 183.2 67.65 182.8 Q68.7 182.95 69.15 183.4 M65.3 197.6 L63.85 199.55 Q63.5 199.85 63.5 198.85 63.5 198.5 64.8 196.8 L65.3 197.6 M63.4 212.15 L62.5 211.55 62.9 211.75 64.15 212.0 63.4 212.15 M62.3 221.05 L56.5 220.2 56.15 220.1 Q57.35 219.6 58.95 219.6 L64.2 220.05 66.3 221.15 62.3 221.05 M69.2 226.1 L66.15 223.7 63.6 221.7 Q65.9 221.7 67.55 223.0 69.2 224.3 69.2 226.1 M60.5 228.4 Q59.35 227.35 57.35 226.8 L53.6 226.15 Q60.0 225.1 66.5 230.7 L71.1 234.95 Q73.45 237.2 74.85 237.65 L75.25 237.8 Q74.4 237.05 73.45 235.5 72.6 234.1 72.5 233.6 L72.9 233.55 73.45 233.7 73.45 233.45 Q65.15 225.5 63.75 224.9 L63.15 224.8 Q65.65 224.55 67.7 225.45 L69.55 226.6 71.9 228.15 71.5 228.2 72.5 229.35 Q72.5 230.55 73.2 231.4 73.9 232.25 74.9 232.25 L74.9 232.6 Q74.9 233.2 75.3 233.65 75.7 234.05 76.3 234.05 L76.75 234.6 Q77.25 235.7 77.45 237.55 L76.5 238.75 75.9 239.15 Q72.85 237.05 68.1 234.25 L65.15 231.2 Q63.0 229.05 60.5 228.4 M48.55 226.05 L48.0 226.5 46.85 226.5 46.75 227.4 Q46.1 227.3 45.85 227.05 L45.75 226.85 Q45.9 226.6 46.8 226.35 L48.55 226.05 M52.15 233.35 L55.15 234.15 57.75 235.25 52.15 233.35 M66.75 241.1 L70.85 241.2 72.95 243.0 74.6 244.15 Q73.45 244.25 68.1 242.1 L69.45 242.15 66.75 241.1 M70.8 241.15 Q66.0 240.7 64.45 240.1 62.8 239.45 61.4 237.4 L65.4 237.1 67.5 238.55 Q69.65 240.1 70.8 241.15 M59.55 245.55 Q54.9 244.7 47.2 240.8 L46.5 240.2 Q49.2 241.65 51.15 242.2 L55.15 242.65 57.35 242.35 57.55 242.2 Q56.95 240.9 53.0 239.4 L56.15 239.55 56.85 240.05 58.15 240.9 58.45 241.1 60.35 242.35 64.55 245.1 59.55 245.55 M44.7 235.75 L43.25 235.6 43.55 234.05 48.1 234.2 Q51.5 234.45 52.9 235.7 46.45 235.2 44.7 235.75 M37.2 243.5 Q37.55 245.7 39.45 246.9 L43.15 248.55 45.1 249.25 42.4 247.4 40.4 245.25 40.0 244.45 39.7 243.6 Q42.55 246.6 45.0 247.3 L55.95 249.3 58.05 249.75 Q54.1 250.05 49.3 249.95 L42.65 249.6 42.15 249.15 43.75 249.1 40.65 247.85 Q37.9 246.65 37.05 245.5 L37.05 243.7 37.2 243.5 M68.2 252.65 L68.85 252.15 67.65 251.3 Q66.75 250.6 67.15 249.2 L60.05 248.45 56.35 247.85 60.05 247.95 69.3 247.1 Q72.85 247.1 73.9 248.35 74.6 249.15 74.6 251.45 74.6 252.55 72.5 253.05 L71.25 253.3 69.25 253.1 68.2 252.65 M46.8 244.75 L44.2 243.1 Q41.85 241.3 41.0 239.75 L40.45 239.15 Q41.7 240.3 50.55 245.05 L47.95 244.05 45.3 242.85 46.8 244.75 M72.5 233.6 Q72.5 234.65 72.35 233.9 L72.5 233.6 M68.05 237.5 L71.05 240.2 65.6 237.15 68.05 237.5 M95.45 211.35 L94.65 212.25 93.85 213.1 93.85 211.55 95.45 211.35 M85.35 209.5 L82.9 209.5 87.45 209.1 Q88.45 208.9 90.95 207.45 95.45 204.9 96.2 204.15 96.2 206.2 94.55 207.7 93.05 209.0 91.05 209.15 L90.55 209.15 90.4 209.25 85.35 209.5 M88.3 235.3 L90.85 235.0 91.35 234.95 95.35 234.4 Q96.2 234.4 96.35 235.15 96.65 236.55 97.6 237.75 L97.2 238.6 Q96.5 238.6 96.0 239.1 95.45 239.55 95.45 240.25 L92.0 241.75 Q92.0 239.2 89.65 237.4 87.4 235.65 84.25 235.55 L88.3 235.3 M92.85 215.3 L93.85 216.35 Q93.0 216.05 92.4 215.55 L92.85 215.3 M92.85 225.25 Q92.05 224.35 89.85 223.65 L87.75 223.1 87.2 222.9 Q91.2 222.9 92.55 221.75 L94.45 222.4 Q95.25 222.8 95.7 223.15 L95.5 225.0 92.85 225.25 M92.35 229.9 L94.35 229.85 Q94.35 232.1 91.4 233.7 88.45 235.3 84.25 235.3 L92.75 231.65 93.4 231.25 89.9 231.15 88.85 230.95 92.35 229.9 M81.9 251.7 L81.75 251.55 83.45 251.3 Q82.75 252.0 82.75 252.35 L81.9 251.7 M109.3 246.3 L109.05 245.7 109.2 244.3 109.1 243.15 109.35 244.35 Q109.35 244.95 109.65 245.25 L109.3 246.3" fill="#c3b598" fill-rule="evenodd" stroke="none"/>
      <path d="M100.75 49.9 L100.25 51.95 100.1 52.4 99.1 51.15 Q99.1 49.3 96.35 48.0 93.6 46.65 89.75 46.65 L83.55 46.5 84.85 46.2 87.7 45.1 91.55 43.9 92.85 43.9 93.7 44.1 93.85 44.15 94.45 44.4 95.95 45.4 98.0 47.15 99.4 48.25 100.75 49.9 M88.95 118.45 L88.45 120.8 Q88.0 121.7 87.0 121.7 L83.45 123.5 Q82.55 123.7 80.85 124.65 L78.8 125.6 78.45 125.7 78.1 125.8 77.7 125.85 77.45 125.85 76.65 125.85 81.05 122.5 79.6 122.35 Q79.9 121.8 80.35 121.4 L79.9 121.15 73.9 120.3 73.75 120.25 73.25 120.2 65.85 118.85 65.55 118.9 62.4 119.9 59.55 119.4 58.2 119.75 57.45 120.2 59.65 118.75 Q62.1 117.7 64.7 118.15 L65.4 118.05 67.0 117.65 68.6 117.4 71.75 118.6 Q75.15 119.8 77.05 119.8 L81.35 120.1 Q80.85 120.95 80.8 121.45 L81.55 121.55 Q84.55 121.65 86.25 120.45 L88.95 118.45 M92.15 173.85 L92.65 175.6 93.1 177.65 92.95 178.25 92.45 180.4 91.8 183.7 Q91.8 184.9 92.55 185.65 L93.15 186.2 93.45 186.25 93.85 186.7 94.1 187.9 93.5 188.7 93.9 187.65 93.05 187.05 89.65 187.25 89.15 187.15 90.1 184.45 86.45 184.8 86.1 184.8 87.45 181.55 Q87.15 181.6 84.6 183.2 83.8 184.0 81.95 184.5 L79.05 184.9 71.4 184.4 70.3 184.45 69.75 183.95 69.7 183.9 69.15 183.4 Q68.7 182.95 67.65 182.8 L65.35 183.1 63.6 182.75 65.5 182.1 68.35 181.7 Q68.8 181.15 69.15 181.05 L68.65 180.85 65.25 180.5 64.9 180.4 64.3 180.2 68.05 179.8 71.2 178.95 71.2 178.2 67.55 178.25 Q65.0 178.25 62.65 176.9 L61.05 175.35 Q60.35 174.55 58.4 174.45 L57.1 174.3 55.7 173.85 55.45 172.9 54.65 169.75 54.55 169.45 Q57.25 173.05 60.4 174.15 64.9 175.7 65.5 176.1 67.95 177.8 71.55 177.85 L78.5 177.3 77.2 178.65 75.0 180.2 76.95 180.25 Q81.1 180.25 84.85 178.3 86.75 177.3 87.9 176.3 L87.6 177.45 87.35 178.3 Q84.75 180.95 80.45 181.25 76.15 181.05 74.9 181.3 L73.3 181.75 77.05 182.15 Q83.75 182.15 88.45 179.6 L88.9 178.6 Q88.9 177.8 89.2 176.95 L90.2 172.6 92.15 173.85 M54.55 140.0 L54.1 137.45 54.35 136.95 Q55.2 137.65 58.55 139.25 62.1 140.9 63.9 141.35 L56.5 140.65 55.0 140.45 54.55 140.0 M75.35 75.35 L75.7 74.65 Q77.2 72.75 77.85 72.45 L78.15 72.35 78.1 72.4 78.4 72.35 78.8 72.1 80.8 71.45 83.25 71.25 Q84.6 71.05 84.7 70.75 L85.25 70.75 89.4 71.65 89.6 72.0 Q89.15 73.0 86.15 74.35 82.8 75.8 82.5 76.1 86.65 76.55 88.15 77.45 L84.2 77.3 Q83.6 76.85 82.45 76.45 L81.2 76.05 Q81.05 76.45 81.05 75.45 81.05 74.55 82.75 73.8 84.75 72.95 85.3 71.95 L83.4 71.8 Q80.95 71.8 80.15 72.3 L75.35 75.35 M85.35 92.7 Q87.7 94.05 89.2 98.0 90.55 101.5 90.45 104.5 L89.55 104.0 86.2 102.6 Q84.75 101.7 84.25 100.2 L84.1 99.95 82.4 97.9 Q82.55 97.6 84.6 98.5 L85.15 98.2 Q85.05 97.7 84.2 96.75 83.35 95.85 82.7 95.5 L81.65 94.85 85.45 96.3 Q84.85 95.45 81.85 94.2 L78.75 93.05 78.45 92.9 80.35 96.15 80.4 96.5 78.45 95.7 Q76.15 94.4 73.85 93.8 L73.8 93.75 73.6 93.7 73.2 93.5 Q75.45 93.5 76.4 92.85 76.8 92.45 76.8 91.7 75.85 91.15 72.55 91.15 L72.15 91.1 79.85 90.9 82.5 91.55 83.4 91.85 84.15 92.15 85.35 92.7 M89.3 51.95 L89.9 51.7 91.45 51.7 Q92.05 51.55 92.05 52.1 L96.15 53.8 Q97.0 53.8 97.65 53.3 L98.95 51.85 Q99.35 51.85 99.65 52.25 L99.95 53.15 99.75 54.4 99.7 54.55 97.1 54.15 95.2 53.75 93.9 53.25 92.8 52.9 91.9 52.65 89.2 52.15 89.3 51.95 M75.35 140.85 L77.3 140.85 73.3 141.4 69.1 141.6 68.9 141.6 70.9 141.25 75.35 140.85 M93.15 189.65 L93.15 189.8 93.4 190.35 Q94.05 192.0 94.05 193.0 L93.85 193.4 93.1 194.3 92.1 195.05 89.8 196.1 89.25 196.15 87.85 196.25 86.45 195.9 83.8 195.0 82.65 194.4 85.25 194.45 86.15 194.5 92.0 194.55 92.55 193.9 92.45 192.95 90.8 193.2 88.65 193.25 83.85 193.25 80.55 193.1 81.3 192.75 84.4 192.25 85.15 191.6 85.25 191.5 Q86.8 190.95 89.4 190.85 L91.8 189.95 93.15 189.65 M92.6 219.6 L94.35 220.5 Q96.0 221.25 97.5 221.25 99.0 221.25 100.8 220.1 L100.8 220.05 101.45 223.55 Q100.3 224.5 100.0 225.4 99.85 225.85 99.85 227.2 99.85 228.7 97.4 229.25 L94.45 229.85 95.5 228.2 94.75 227.75 93.55 227.5 94.55 226.8 94.75 226.25 93.8 226.7 92.55 226.95 83.6 227.25 83.05 227.5 Q82.45 227.75 82.05 228.05 L80.95 227.6 80.6 227.55 80.5 227.1 85.8 225.5 92.85 225.25 95.5 225.0 96.5 224.8 97.0 224.15 Q97.05 223.75 96.7 223.45 96.35 223.15 95.7 223.15 95.25 222.8 94.45 222.4 93.8 221.55 92.55 221.05 91.0 220.4 89.05 220.45 L88.95 220.45 88.25 219.95 88.15 219.85 88.65 219.85 92.1 219.5 92.6 219.6 M78.45 183.25 L79.75 183.2 79.1 183.2 77.8 183.25 78.45 183.25 M77.15 182.75 L77.7 182.15 74.45 182.9 76.6 183.2 77.15 182.75 M76.75 199.2 L77.65 199.2 78.2 199.1 79.0 198.95 80.9 198.0 83.45 197.85 90.8 198.7 91.8 198.85 90.85 199.2 85.85 200.85 84.8 199.9 Q84.25 199.45 83.65 199.45 L80.25 199.5 Q77.4 199.75 75.25 200.6 L73.95 199.55 73.8 199.2 76.75 199.2 M62.75 127.55 L65.8 127.0 68.75 126.5 74.55 127.25 68.1 128.05 62.8 128.25 62.35 127.8 62.75 127.55 M61.7 182.75 L59.85 181.95 Q59.45 181.65 59.45 181.15 59.45 180.55 59.65 180.45 L60.15 180.2 Q60.15 181.15 60.85 181.85 61.5 182.5 62.45 182.5 L63.5 182.75 61.7 182.75 M72.5 182.35 L71.85 182.15 71.8 182.15 72.5 182.35 M70.15 181.8 L69.3 181.75 70.95 181.95 70.15 181.8 M57.95 228.15 L60.5 228.4 Q63.0 229.05 65.15 231.2 L68.1 234.25 71.15 237.5 Q72.15 238.35 74.9 239.85 L74.0 239.85 73.75 239.75 70.9 238.35 68.05 237.5 65.6 237.15 65.4 237.1 61.4 237.4 60.35 236.95 58.7 235.9 58.75 235.9 61.95 235.5 66.0 235.15 67.75 235.2 64.3 233.55 65.95 233.45 64.85 232.15 63.75 231.75 60.2 229.8 Q57.85 228.7 54.6 228.7 L51.75 229.25 49.75 229.95 47.0 229.9 46.75 229.9 47.1 229.3 47.9 228.55 48.0 228.55 48.05 228.5 48.45 228.45 50.8 228.3 Q53.9 228.15 57.95 228.15 M51.55 230.5 L53.75 230.35 54.7 230.15 Q53.5 231.4 50.35 231.7 L47.2 231.75 48.85 231.3 51.55 230.5 M52.9 235.7 Q54.9 235.9 56.2 236.65 L57.55 237.55 50.45 237.15 47.3 237.7 45.65 236.8 Q44.2 235.9 44.7 235.75 46.45 235.2 52.9 235.7 M95.55 210.55 L97.8 211.15 97.75 211.15 95.45 211.35 93.85 211.55 93.15 211.65 90.7 210.5 87.75 210.15 Q86.05 210.15 85.05 210.7 L83.35 211.8 83.15 211.8 84.2 210.65 85.35 209.5 90.4 209.25 91.95 209.65 93.25 209.95 95.55 210.55" fill="#342b1e" fill-rule="evenodd" stroke="none"/>
      <path d="M100.1 82.9 Q100.0 84.55 97.85 89.0 L97.85 88.95 97.8 88.8 97.55 87.65 Q95.0 82.15 93.55 80.9 L91.45 78.9 93.4 78.8 93.95 78.85 Q96.05 79.25 97.4 80.2 L100.1 82.9 M56.65 177.1 L56.45 176.45 56.25 175.8 55.7 173.85 57.1 174.3 58.4 174.45 59.0 174.8 57.8 174.9 Q58.4 175.6 58.4 175.85 L56.25 175.8 56.7 177.3 56.65 177.1 M55.45 172.9 L54.65 170.05 54.65 169.75 55.45 172.9 M57.95 106.4 L57.85 106.4 59.1 103.75 63.75 96.3 63.8 96.3 64.8 95.5 Q65.8 94.85 66.45 94.85 L71.7 95.8 Q69.55 95.45 66.55 98.1 64.05 100.35 61.8 103.75 L61.65 103.9 Q59.45 106.2 57.95 106.4 M74.85 76.3 L75.35 75.35 80.15 72.3 Q80.95 71.8 83.4 71.8 L85.3 71.95 Q84.75 72.95 82.75 73.8 81.05 74.55 81.05 75.45 81.05 76.45 81.2 76.05 L82.45 76.45 Q83.6 76.85 84.2 77.3 L80.35 77.45 80.4 77.2 78.75 76.9 77.35 76.9 79.75 74.5 79.25 74.6 Q77.85 74.95 76.4 75.6 L74.85 76.3 M84.55 92.3 L85.35 92.7 84.15 92.15 84.55 92.3 M90.45 104.5 L89.95 104.25 89.55 104.0 90.45 104.5 M80.8 71.45 Q82.35 70.8 84.7 70.75 L84.1 70.7 84.7 70.7 84.7 70.75 Q84.6 71.05 83.25 71.25 L80.8 71.45 M82.5 91.55 L83.15 91.75 83.4 91.85 82.5 91.55 M81.05 103.3 Q79.75 101.7 78.0 101.2 L74.2 100.1 73.75 99.85 Q74.65 99.25 76.4 98.7 L80.05 99.85 Q83.95 101.6 85.85 104.85 L86.7 105.3 87.45 105.5 87.0 105.5 85.35 105.5 83.95 105.4 Q82.3 104.75 81.05 103.3 M84.1 99.95 Q83.4 98.9 80.7 97.05 79.55 96.3 78.45 95.7 L80.4 96.5 80.35 96.15 78.45 92.9 78.75 93.05 81.85 94.2 Q84.85 95.45 85.45 96.3 L81.65 94.85 82.7 95.5 Q83.35 95.85 84.2 96.75 85.05 97.7 85.15 98.2 L84.6 98.5 Q82.55 97.6 82.4 97.9 L84.1 99.95 M89.75 46.65 Q93.6 46.65 96.35 48.0 99.1 49.3 99.1 51.15 L99.0 51.15 97.45 50.95 Q93.8 48.05 91.9 47.1 L89.75 46.65 M93.25 43.95 L93.7 44.1 92.85 43.9 93.25 43.95 M89.9 51.7 L93.3 51.3 Q95.8 51.1 97.55 51.25 L98.85 51.75 98.95 51.85 97.65 53.3 Q97.0 53.8 96.15 53.8 L92.05 52.1 Q92.05 51.55 91.45 51.7 L89.9 51.7 M96.65 54.45 L95.2 53.75 97.1 54.15 99.7 54.55 99.75 54.4 99.5 57.25 99.5 57.4 98.15 55.85 96.65 54.45 M86.4 64.5 L89.1 64.5 90.5 65.6 Q91.15 66.2 91.95 66.4 92.55 66.75 93.1 68.4 L82.5 68.85 81.7 68.8 81.5 68.7 81.45 68.1 82.0 67.05 82.95 65.7 Q83.35 65.5 84.6 65.05 L86.4 64.5 M73.9 120.3 Q74.25 120.5 74.25 121.05 L74.9 121.85 75.5 122.75 Q75.5 123.75 75.0 123.55 L72.1 124.25 72.45 124.45 75.25 124.75 Q76.95 124.75 77.95 124.2 79.05 123.6 79.6 122.35 L79.9 121.15 80.35 121.4 Q79.9 121.8 79.6 122.35 L81.05 122.5 76.65 125.85 77.45 125.85 75.95 125.85 75.75 125.8 75.25 125.75 Q73.3 125.25 70.3 123.35 67.2 121.4 65.45 120.85 L63.85 120.85 62.75 120.6 62.4 119.9 65.55 118.9 66.85 120.15 69.3 122.05 Q69.65 120.9 70.2 120.55 70.85 120.15 72.45 120.15 L73.25 120.2 73.75 120.25 73.9 120.3 M79.55 127.1 L80.0 127.0 81.45 127.1 82.9 127.4 83.45 127.5 81.0 128.4 77.0 129.85 Q73.4 131.05 68.65 130.4 L64.15 129.15 64.0 129.05 62.8 128.25 68.1 128.05 74.55 127.25 79.55 127.1 M78.1 140.85 L79.8 140.85 74.25 142.9 Q71.75 143.75 70.95 144.5 L70.4 144.7 66.4 145.35 65.0 145.3 63.65 144.95 63.25 144.85 62.65 144.5 59.6 142.45 59.0 142.25 Q58.15 142.15 55.0 140.45 L56.5 140.65 63.9 141.35 69.1 141.6 73.3 141.4 77.3 140.85 78.1 140.85 M73.2 144.95 L74.1 144.85 79.8 145.5 79.65 145.6 79.35 145.8 Q78.0 147.4 74.25 148.1 L69.65 148.35 69.0 147.85 68.8 147.3 68.9 146.95 Q69.0 146.55 69.3 146.55 L72.15 145.35 73.2 144.95 M93.15 189.6 L93.15 189.65 91.8 189.95 89.4 190.85 Q86.9 188.9 86.0 187.2 L84.6 183.2 Q87.15 181.6 87.45 181.55 L86.1 184.8 86.45 184.8 90.1 184.45 89.15 187.15 89.65 187.25 93.05 187.05 93.9 187.65 93.5 188.7 94.1 187.9 93.7 188.6 93.15 189.6 M88.65 193.25 L90.8 193.2 92.45 192.95 92.55 193.9 92.0 194.55 86.15 194.5 86.1 194.35 88.65 193.25 M85.25 194.45 L82.65 194.4 83.8 195.0 81.2 193.95 78.95 193.8 77.1 193.9 75.65 193.8 75.75 193.1 77.25 192.8 81.3 192.75 80.55 193.1 83.85 193.25 85.25 194.45 M85.25 191.5 L85.15 191.6 84.85 190.9 84.35 190.5 79.3 190.3 78.3 190.05 Q79.1 188.8 80.55 188.25 81.9 187.7 84.6 187.5 L85.3 187.8 Q85.5 187.95 85.5 188.6 85.5 188.9 85.85 189.45 L86.15 190.15 Q86.15 190.8 85.95 190.95 L85.25 191.5 M80.05 186.2 L74.45 185.9 73.25 185.8 72.95 185.75 Q71.6 185.35 70.3 184.45 L71.4 184.4 Q72.6 185.85 75.9 185.95 L80.45 185.55 80.45 186.2 80.05 186.2 M79.1 183.2 L79.75 183.2 78.45 183.25 79.1 183.2 M75.25 200.6 Q77.4 199.75 80.25 199.5 L83.65 199.45 Q84.25 199.45 84.8 199.9 L85.85 200.85 83.0 202.15 79.4 202.35 78.85 202.25 76.4 201.2 75.25 200.6 M61.7 182.75 L63.5 182.75 62.45 182.5 63.6 182.75 65.35 183.1 67.35 183.2 65.65 184.9 63.35 185.65 61.4 185.85 63.55 185.55 62.6 184.05 61.7 182.75 M62.65 179.75 L63.05 178.65 Q63.15 177.85 62.65 176.9 65.0 178.25 67.55 178.25 L71.2 178.2 71.2 178.95 68.05 179.8 64.3 180.2 64.9 180.4 62.65 179.75 M72.5 182.35 L71.8 182.15 71.85 182.15 72.5 182.35 M70.15 181.8 L70.95 181.95 69.3 181.75 70.15 181.8 M83.8 229.15 L82.05 228.05 Q82.45 227.75 83.05 227.5 L83.6 227.25 83.55 227.5 87.8 228.05 87.05 228.4 86.2 228.55 87.1 229.05 89.85 229.1 92.75 228.8 92.8 227.15 92.55 226.95 93.8 226.7 94.75 226.25 94.55 226.8 93.55 227.5 94.75 227.75 95.5 228.2 94.45 229.85 94.35 229.85 92.35 229.9 83.8 229.15 M54.6 228.7 Q53.9 228.95 57.25 229.6 L60.9 230.2 59.7 230.15 55.75 230.75 51.45 231.95 51.8 232.3 55.1 232.85 Q58.45 233.35 60.95 234.25 L60.0 234.15 60.65 234.55 Q61.0 234.6 60.95 234.25 L63.5 234.1 Q63.5 232.8 63.75 231.75 L64.85 232.15 65.95 233.45 64.3 233.55 67.75 235.2 66.0 235.15 61.95 235.5 58.75 235.9 57.75 235.25 55.15 234.15 52.15 233.35 Q48.8 233.05 47.2 231.75 L50.35 231.7 Q53.5 231.4 54.7 230.15 L53.75 230.35 51.55 230.5 Q51.35 230.15 49.75 229.95 L51.75 229.25 54.6 228.7 M47.9 228.55 L47.1 229.3 46.75 229.9 46.55 229.9 45.1 229.75 47.1 228.75 47.9 228.55 M57.55 237.55 L66.75 241.1 69.45 242.15 68.1 242.1 Q59.0 239.6 56.35 239.55 L56.15 239.55 53.0 239.4 50.35 238.9 Q49.15 238.6 47.3 237.7 L50.45 237.15 57.55 237.55 M74.0 239.85 L74.9 239.85 76.85 240.95 78.45 241.85 76.55 241.15 74.0 239.85 M93.15 211.65 L88.05 212.25 83.35 211.8 85.05 210.7 Q86.05 210.15 87.75 210.15 L90.7 210.5 93.15 211.65 M92.55 221.75 Q90.2 221.05 89.05 220.45 91.0 220.4 92.55 221.05 93.8 221.55 94.45 222.4 L92.55 221.75" fill="#4e402d" fill-rule="evenodd" stroke="none"/>
      <path d="M58.75 185.25 L58.45 183.5 58.35 183.05 58.1 182.0 56.7 177.3 56.25 175.8 58.4 175.85 Q58.4 175.6 57.8 174.9 L59.0 174.8 58.4 174.45 Q60.35 174.55 61.05 175.35 L62.65 176.9 Q63.15 177.85 63.05 178.65 L62.65 179.75 60.15 179.55 60.15 180.2 59.65 180.45 Q59.45 180.55 59.45 181.15 59.45 181.65 59.85 181.95 L61.7 182.75 62.6 184.05 63.55 185.55 61.4 185.85 58.75 185.25 M71.65 81.9 L74.85 76.3 76.4 75.6 Q77.85 74.95 79.25 74.6 L79.75 74.5 77.35 76.9 78.75 76.9 80.4 77.2 80.35 77.45 77.15 80.45 Q74.6 82.75 71.65 81.9 M79.9 121.15 L79.6 122.35 Q79.05 123.6 77.95 124.2 76.95 124.75 75.25 124.75 L72.45 124.45 72.1 124.25 75.0 123.55 Q75.5 123.75 75.5 122.75 L74.9 121.85 74.25 121.05 Q74.25 120.5 73.9 120.3 L79.9 121.15 M73.25 120.2 L72.45 120.15 Q70.85 120.15 70.2 120.55 69.65 120.9 69.3 122.05 L66.85 120.15 65.55 118.9 65.85 118.85 73.25 120.2 M88.65 193.25 L86.1 194.35 86.15 194.5 85.25 194.45 83.85 193.25 88.65 193.25 M84.6 183.2 L86.0 187.2 Q86.9 188.9 89.4 190.85 86.8 190.95 85.25 191.5 L85.95 190.95 Q86.15 190.8 86.15 190.15 L85.85 189.45 Q85.5 188.9 85.5 188.6 85.5 187.95 85.3 187.8 L84.6 187.5 85.1 187.45 85.15 186.45 84.8 185.4 84.7 185.3 81.05 186.15 80.45 186.2 80.45 185.55 75.9 185.95 Q72.6 185.85 71.4 184.4 L79.05 184.9 81.95 184.5 Q83.8 184.0 84.6 183.2 M63.75 231.75 Q63.5 232.8 63.5 234.1 L60.95 234.25 Q61.0 234.6 60.65 234.55 L60.0 234.15 60.95 234.25 Q58.45 233.35 55.1 232.85 L51.8 232.3 51.45 231.95 55.75 230.75 59.7 230.15 60.9 230.2 57.25 229.6 Q53.9 228.95 54.6 228.7 57.85 228.7 60.2 229.8 L63.75 231.75 M92.55 226.95 L92.8 227.15 92.75 228.8 89.85 229.1 87.1 229.05 86.2 228.55 87.05 228.4 87.8 228.05 83.55 227.5 83.6 227.25 92.55 226.95" fill="#645139" fill-rule="evenodd" stroke="none"/>
    </g>
    <radialGradient cx="0" cy="0" gradientTransform="matrix(0.082, 0.0, 0.0, -0.026, 69.8, 247.7)" gradientUnits="userSpaceOnUse" id="gradient0" r="819.2" spreadMethod="pad">
      <stop offset="0.0" stop-color="#000000" stop-opacity="0.6862745"/>
      <stop offset="1.0" stop-color="#000000" stop-opacity="0.0"/>
    </radialGradient>
    <radialGradient cx="0" cy="0" gradientTransform="matrix(0.0883, 0.0, 0.0, -0.0287, 65.7, 247.55)" gradientUnits="userSpaceOnUse" id="gradient1" r="819.2" spreadMethod="pad">
      <stop offset="0.0" stop-color="#000000" stop-opacity="0.6862745"/>
      <stop offset="1.0" stop-color="#000000" stop-opacity="0.0"/>
    </radialGradient>
  </defs>
</svg>
