<?xml version="1.0" encoding="UTF-8" standalone="no"?>
<svg xmlns:xlink="http://www.w3.org/1999/xlink" height="119.0px" width="189.0px" xmlns="http://www.w3.org/2000/svg">
  <g transform="matrix(1.0, 0.0, 0.0, 1.0, 0.0, 0.0)">
    <use height="119.0" transform="matrix(1.0, 0.0, 0.0, 1.0, 0.0, 25.0)" width="189.0" xlink:href="#sprite0"/>
    <use height="0.0" id="price_tag_pt" transform="matrix(1.0, 0.0, 0.0, 1.0, 94.65, 137.1)" width="0.0" xlink:href="#sprite1"/>
  </g>
  <defs>
    <g id="sprite0" transform="matrix(1.0, 0.0, 0.0, 1.0, 0.0, 0.0)">
      <use height="119.0" transform="matrix(1.0, 0.0, 0.0, 1.0, 0.0, 0.0)" width="189.0" xlink:href="#shape0"/>
    </g>
    <g id="shape0" transform="matrix(1.0, 0.0, 0.0, 1.0, 0.0, 0.0)">
      <path d="M189.0 103.25 Q189.0 109.8 161.35 114.4 133.65 119.0 94.5 119.0 55.35 119.0 27.7 114.4 0.0 109.8 0.0 103.25 0.0 96.4 26.65 91.95 53.25 87.5 94.5 87.5 133.65 87.5 161.35 92.1 189.0 96.75 189.0 103.25" fill="url(#gradient0)" fill-rule="evenodd" stroke="none"/>
      <path d="M159.45 93.8 L171.15 114.05 163.5 114.5 153.6 98.75 84.3 99.65 76.65 114.05 Q21.3 115.4 18.15 114.95 L21.75 109.1 26.05 94.25 159.45 93.8" fill="url(#gradient1)" fill-rule="evenodd" stroke="none"/>
      <path d="M157.05 64.4 L157.05 97.1 32.85 97.1 32.85 65.0 157.05 64.4" fill="#4f3727" fill-rule="evenodd" stroke="none"/>
      <path d="M157.05 90.35 L157.05 97.1 32.85 97.1 32.85 90.45 157.05 90.35" fill="#493226" fill-rule="evenodd" stroke="none"/>
      <path d="M157.05 94.55 L157.05 97.1 32.85 97.1 32.85 94.6 157.05 94.55" fill="#35251c" fill-rule="evenodd" stroke="none"/>
      <path d="M157.05 85.1 L32.85 84.95 32.85 77.15 157.05 77.15 157.05 85.1" fill="#493226" fill-rule="evenodd" stroke="none"/>
      <path d="M157.05 81.65 L32.85 81.55 32.85 77.15 157.05 77.15 157.05 81.65" fill="#35251c" fill-rule="evenodd" stroke="none"/>
      <path d="M155.4 55.4 L166.5 63.2 164.55 112.1 155.7 96.5 155.4 55.4" fill="#493226" fill-rule="evenodd" stroke="none"/>
      <path d="M155.4 55.4 L166.5 63.2 Q166.2 68.6 164.7 74.8 163.75 78.75 164.6 83.0 164.7 83.4 163.25 85.3 161.45 87.7 160.55 90.65 158.9 96.05 158.55 101.0 L155.4 96.95 155.4 55.4" fill="#3a2821" fill-rule="evenodd" stroke="none"/>
      <path d="M155.7 76.45 L155.4 55.4 166.5 59.4 164.55 84.4 155.7 76.45" fill="#3a2821" fill-rule="evenodd" stroke="none"/>
      <path d="M82.95 60.95 L82.7 97.15 74.55 112.1 73.8 63.2 82.95 60.95" fill="#493226" fill-rule="evenodd" stroke="none"/>
      <path d="M82.95 60.95 L83.25 96.95 79.8 102.8 79.95 98.95 Q79.85 94.4 78.9 90.85 77.9 87.35 76.15 84.05 L74.6 81.4 73.8 62.4 82.95 60.95" fill="#3a2821" fill-rule="evenodd" stroke="none"/>
      <path d="M82.7 77.1 L74.55 83.75 73.8 61.95 82.95 60.95 82.7 77.1" fill="#3a2821" fill-rule="evenodd" stroke="none"/>
      <path d="M21.45 98.9 L21.45 64.1 74.85 64.1 74.85 98.9 21.45 98.9" fill="#775437" fill-rule="evenodd" stroke="none"/>
      <path d="M21.45 70.3 L21.45 64.1 74.85 64.1 74.85 70.3 21.45 70.3" fill="#6b4b32" fill-rule="evenodd" stroke="none"/>
      <path d="M21.45 67.05 L21.45 64.1 74.85 64.1 74.85 67.05 21.45 67.05" fill="#5b3f2c" fill-rule="evenodd" stroke="none"/>
      <path d="M163.05 64.25 L163.05 79.75 75.75 79.75 75.75 64.25 163.05 64.25" fill="#775437" fill-rule="evenodd" stroke="none"/>
      <path d="M163.05 64.25 L163.05 67.75 75.75 67.75 75.75 64.25 163.05 64.25" fill="#6b4b32" fill-rule="evenodd" stroke="none"/>
      <path d="M163.05 64.25 L163.05 65.95 75.75 65.95 75.75 64.25 163.05 64.25" fill="#5b3f2c" fill-rule="evenodd" stroke="none"/>
      <path d="M21.45 98.9 L74.55 98.9 74.55 112.1 21.45 112.1 21.45 98.9" fill="#966845" fill-rule="evenodd" stroke="none"/>
      <path d="M21.45 101.3 L74.55 101.3 74.55 112.1 21.45 112.1 21.45 101.3" fill="#775437" fill-rule="evenodd" stroke="none"/>
      <path d="M21.45 98.55 L74.85 98.55 74.85 100.15 21.45 100.15 21.45 98.55" fill="#5b3f2c" fill-rule="evenodd" stroke="none"/>
      <path d="M21.45 98.55 L74.85 98.55 74.85 99.35 21.45 99.35 21.45 98.55" fill="#493325" fill-rule="evenodd" stroke="none"/>
      <path d="M171.75 60.2 L13.4 60.2 31.5 50.35 152.15 50.2 171.75 60.2" fill="#966944" fill-rule="evenodd" stroke="none"/>
      <path d="M172.35 60.25 L172.35 64.65 13.4 64.65 13.4 60.25 172.35 60.25" fill="#825c3a" fill-rule="evenodd" stroke="none"/>
      <path d="M172.35 60.25 L172.35 62.4 13.4 62.4 13.4 60.25 172.35 60.25" fill="#755235" fill-rule="evenodd" stroke="none"/>
      <path d="M172.35 60.2 L172.35 61.1 13.4 61.1 13.4 60.2 172.35 60.2" fill="#66472f" fill-rule="evenodd" stroke="none"/>
      <path d="M164.25 64.4 L168.3 64.7 168.3 112.1 164.55 112.1 164.25 64.4" fill="#775437" fill-rule="evenodd" stroke="none"/>
      <path d="M164.25 64.4 L168.3 64.4 168.3 68.45 164.25 68.3 164.25 64.4" fill="#6b4b32" fill-rule="evenodd" stroke="none"/>
      <path d="M164.25 64.4 L168.3 64.4 168.3 66.8 164.25 66.7 164.25 64.4" fill="#5b3f2c" fill-rule="evenodd" stroke="none"/>
      <path d="M168.3 100.25 L164.15 100.25 164.15 98.6 168.3 98.6 168.3 100.25" fill="#60422d" fill-rule="evenodd" stroke="none"/>
      <path d="M168.3 99.5 L164.15 99.5 164.15 98.45 168.3 98.45 168.3 99.5" fill="#493325" fill-rule="evenodd" stroke="none"/>
      <path d="M152.25 50.4 L32.25 50.4 32.25 14.9 152.25 14.0 152.25 50.4" fill="#4f3727" fill-rule="evenodd" stroke="none"/>
      <path d="M152.25 50.4 L32.25 50.4 32.25 42.65 152.25 42.45 152.25 50.4" fill="#493226" fill-rule="evenodd" stroke="none"/>
      <path d="M152.25 50.4 L32.25 50.4 32.25 48.6 152.25 48.55 152.25 50.4" fill="#35251c" fill-rule="evenodd" stroke="none"/>
      <path d="M152.25 30.4 L152.25 37.05 32.25 36.9 32.25 30.4 152.25 30.4" fill="#493226" fill-rule="evenodd" stroke="none"/>
      <path d="M152.25 30.4 L152.25 34.0 32.25 33.95 32.25 30.4 152.25 30.4" fill="#35251c" fill-rule="evenodd" stroke="none"/>
      <path d="M152.25 25.85 L32.25 25.85 32.25 23.95 152.25 23.9 152.25 25.85" fill="#493226" fill-rule="evenodd" stroke="none"/>
      <path d="M152.25 22.55 L32.25 22.55 32.25 14.2 152.25 14.0 152.25 22.55" fill="#493226" fill-rule="evenodd" stroke="none"/>
      <path d="M152.25 20.9 L32.25 20.9 32.25 14.15 152.25 14.0 152.25 20.9" fill="#35251c" fill-rule="evenodd" stroke="none"/>
      <path d="M152.25 24.95 L152.25 25.7 32.25 25.7 32.25 24.95 152.25 24.95" fill="#35251c" fill-rule="evenodd" stroke="none"/>
      <path d="M165.15 6.85 L18.15 7.1 18.1 3.4 165.1 3.0 165.15 6.85" fill="#825c3a" fill-rule="evenodd" stroke="none"/>
      <path d="M165.15 4.7 L18.15 5.1 18.1 3.4 165.1 2.95 165.15 4.7" fill="#755235" fill-rule="evenodd" stroke="none"/>
      <path d="M165.15 3.7 L18.1 4.15 18.1 3.4 165.1 2.9 165.15 3.7" fill="#66472f" fill-rule="evenodd" stroke="none"/>
      <path d="M158.4 0.0 L165.1 3.0 18.1 3.4 25.35 0.2 158.4 0.0" fill="#966944" fill-rule="evenodd" stroke="none"/>
      <path d="M165.15 3.2 L18.1 3.7 18.7 2.9 164.6 2.45 165.15 3.2" fill="#a8724e" fill-rule="evenodd" stroke="none"/>
      <path d="M20.0 26.15 L23.55 22.75 24.9 6.85 28.25 6.6 28.05 47.0 17.85 59.6 Q16.95 46.7 16.65 36.9 16.45 30.75 20.0 26.15" fill="#60422d" fill-rule="evenodd" stroke="none"/>
      <path d="M25.35 26.25 L25.05 23.3 24.75 8.25 24.9 6.85 28.25 6.7 28.55 51.1 17.85 59.6 17.9 55.3 Q21.95 51.5 23.65 48.9 24.8 47.15 25.4 41.05 25.9 36.05 25.8 32.15 L25.35 26.25" fill="#563b29" fill-rule="evenodd" stroke="none"/>
      <path d="M22.0 23.95 L23.55 22.75 24.9 6.85 27.45 6.65 25.9 23.35 23.6 25.7 Q21.0 28.65 19.35 31.8 18.15 34.15 18.1 42.95 18.05 50.8 18.8 58.15 L17.85 59.6 Q16.95 46.7 16.65 36.9 16.35 29.05 22.0 23.95" fill="#563b29" fill-rule="evenodd" stroke="none"/>
      <path d="M20.75 6.5 L24.3 6.5 24.6 23.3 21.75 26.45 Q18.75 30.35 17.8 33.95 16.9 37.6 17.1 48.95 L17.5 59.6 14.0 59.45 Q13.4 45.25 13.7 36.4 13.9 30.85 17.35 26.4 L20.75 23.0 20.75 6.5" fill="#825c3a" fill-rule="evenodd" stroke="none"/>
      <path d="M27.75 6.7 L29.15 7.75 29.15 18.85 32.55 18.85 32.4 41.8 28.05 47.0 27.75 6.7" fill="#493226" fill-rule="evenodd" stroke="none"/>
      <path d="M31.2 25.5 L31.2 23.55 31.05 22.6 Q30.65 21.65 29.35 21.9 28.7 22.05 28.15 22.35 L28.0 20.75 Q27.85 19.15 28.15 19.1 L32.55 18.85 32.25 50.4 27.75 52.65 27.9 43.05 Q30.6 41.7 30.95 40.25 L29.55 34.2 Q28.1 28.2 28.15 27.4 L31.2 25.5" fill="#3a2821" fill-rule="evenodd" stroke="none"/>
      <path d="M75.95 37.6 L28.5 37.95 28.5 28.5 75.95 28.5 75.95 37.6" fill="#775437" fill-rule="evenodd" stroke="none"/>
      <path d="M75.95 31.65 L28.5 31.8 28.5 28.5 75.95 28.5 75.95 31.65" fill="#825c3a" fill-rule="evenodd" stroke="none"/>
      <path d="M28.5 35.5 L75.95 35.6 75.95 38.1 28.5 38.1 28.5 35.5" fill="#6b4b32" fill-rule="evenodd" stroke="none"/>
      <path d="M26.7 6.95 L28.05 6.95 28.05 50.8 26.45 52.25 26.7 6.95" fill="#775437" fill-rule="evenodd" stroke="none"/>
      <path d="M28.05 6.95 L28.05 21.95 26.45 22.45 26.7 6.95 28.05 6.95" fill="#6b4b32" fill-rule="evenodd" stroke="none"/>
      <path d="M28.05 6.95 L28.05 19.7 26.45 20.1 26.7 6.95 28.05 6.95" fill="#4c3525" fill-rule="evenodd" stroke="none"/>
      <path d="M163.95 25.95 Q167.25 30.55 167.1 36.65 166.8 46.45 165.95 59.35 L156.4 46.75 156.05 6.6 159.5 6.7 160.6 22.55 163.95 25.95" fill="#60422d" fill-rule="evenodd" stroke="none"/>
      <path d="M159.1 8.45 L158.85 32.25 Q158.75 36.0 159.25 40.75 159.85 46.5 160.9 48.2 162.45 50.75 165.5 54.7 L165.55 58.9 157.85 51.4 155.85 6.9 159.0 7.05 159.1 8.45" fill="#563b29" fill-rule="evenodd" stroke="none"/>
      <path d="M161.75 23.7 Q167.05 28.55 166.8 36.3 L165.7 58.35 164.75 56.95 Q165.4 50.3 165.15 42.5 164.85 34.25 163.7 31.9 162.2 28.85 159.9 26.7 L157.85 25.15 156.7 6.95 159.05 7.1 159.1 7.1 160.35 22.6 161.75 23.7" fill="#563b29" fill-rule="evenodd" stroke="none"/>
      <path d="M162.85 6.7 L162.85 23.05 166.15 26.4 Q169.45 30.9 169.6 36.35 169.9 45.15 169.8 59.3 L165.95 59.35 166.35 48.8 Q166.55 37.55 165.65 33.95 164.8 30.35 162.1 26.6 L159.6 23.6 159.5 6.7 162.85 6.7" fill="#825c3a" fill-rule="evenodd" stroke="none"/>
      <path d="M156.65 6.5 L156.3 46.75 151.8 41.55 152.0 18.6 155.2 18.6 155.2 7.55 156.65 6.5" fill="#493226" fill-rule="evenodd" stroke="none"/>
      <path d="M156.15 29.8 Q156.45 34.8 154.55 36.2 152.95 37.35 153.8 41.25 154.1 42.65 155.25 42.9 L156.4 42.85 156.35 52.45 152.15 50.2 151.65 19.0 156.75 18.55 156.35 22.85 155.15 22.55 Q153.85 22.4 153.45 23.05 L153.0 24.05 Q152.85 24.95 153.9 25.95 L155.5 27.15 Q156.05 27.8 156.15 29.8" fill="#3a2821" fill-rule="evenodd" stroke="none"/>
      <path d="M157.65 6.7 L158.05 52.45 156.35 52.45 156.4 6.7 157.65 6.7" fill="#825c3a" fill-rule="evenodd" stroke="none"/>
      <path d="M156.4 6.7 L157.65 6.7 157.85 23.35 156.35 22.85 156.4 6.7" fill="#6b4b32" fill-rule="evenodd" stroke="none"/>
      <path d="M156.4 6.7 L157.65 6.7 157.85 20.2 156.35 19.8 156.4 6.7" fill="#4c3525" fill-rule="evenodd" stroke="none"/>
      <path d="M78.2 18.65 L78.2 38.1 75.95 38.05 75.95 18.65 78.2 18.65" fill="#775437" fill-rule="evenodd" stroke="none"/>
      <path d="M78.2 18.65 L78.2 38.1 77.75 38.05 77.75 18.65 78.2 18.65" fill="#825c3a" fill-rule="evenodd" stroke="none"/>
      <path d="M76.75 18.65 L76.75 38.1 75.95 38.05 75.95 18.65 76.75 18.65" fill="#60422d" fill-rule="evenodd" stroke="none"/>
      <path d="M78.2 18.7 L81.6 18.7 81.35 34.7 78.2 37.75 78.2 18.7" fill="#60422d" fill-rule="evenodd" stroke="none"/>
      <path d="M80.55 22.8 Q80.35 22.2 79.3 21.45 L78.3 20.8 78.2 18.7 82.6 18.75 82.6 34.5 81.3 34.75 78.75 37.2 78.9 27.85 80.8 26.2 Q80.9 23.8 80.55 22.8" fill="#4f3727" fill-rule="evenodd" stroke="none"/>
      <path d="M75.95 28.5 L28.5 28.5 32.55 26.55 75.6 26.4 75.95 28.5" fill="#60422d" fill-rule="evenodd" stroke="none"/>
      <path d="M150.45 35.3 Q150.2 34.55 149.55 33.85 148.25 32.45 146.25 32.6 144.3 32.75 142.6 34.05 141.8 34.7 141.35 35.3 L140.1 34.1 Q138.45 32.9 136.45 32.6 134.45 32.3 119.0 32.3 L102.15 32.35 Q100.6 32.35 98.4 33.95 L96.5 35.5 95.05 34.3 Q93.15 33.05 90.85 33.05 88.55 33.05 87.55 34.3 87.0 34.9 86.95 35.5 L79.35 35.5 79.35 28.55 155.85 28.55 155.85 35.3 150.45 35.3" fill="#775437" fill-rule="evenodd" stroke="none"/>
      <path d="M155.85 28.55 L79.35 28.55 82.35 25.6 152.0 25.6 155.85 28.55" fill="#60422d" fill-rule="evenodd" stroke="none"/>
      <path d="M151.55 50.7 L157.85 54.15 26.45 54.3 32.25 50.85 151.55 50.7" fill="#8e6343" fill-rule="evenodd" stroke="none"/>
      <path d="M160.35 66.8 L160.35 78.05 78.6 78.05 78.6 66.8 160.35 66.8" fill="#966845" fill-rule="evenodd" stroke="none"/>
      <path d="M158.25 67.7 L158.25 76.55 80.7 76.55 80.7 67.7 158.25 67.7" fill="#825c3a" fill-rule="evenodd" stroke="none"/>
      <path d="M78.6 78.05 L78.6 66.8 80.7 67.7 80.7 76.55 78.6 78.05" fill="#543b29" fill-rule="evenodd" stroke="none"/>
      <path d="M158.25 67.7 L160.35 66.8 160.35 78.05 158.25 76.55 158.25 67.7" fill="#543b29" fill-rule="evenodd" stroke="none"/>
      <path d="M151.65 68.9 Q145.95 68.6 118.15 68.6 88.7 68.65 85.8 69.2 83.35 69.65 81.8 70.85 81.0 71.4 80.7 71.9 L80.7 67.7 158.25 67.7 158.25 72.05 Q158.05 71.35 157.15 70.6 155.3 69.1 151.65 68.9" fill="#a06f4a" fill-rule="evenodd" stroke="none"/>
      <path d="M160.35 78.05 L78.6 78.05 80.7 76.55 158.25 76.55 160.35 78.05" fill="#473325" fill-rule="evenodd" stroke="none"/>
      <path d="M114.3 71.15 Q114.3 72.15 113.55 72.9 112.8 73.6 111.75 73.6 110.7 73.6 109.95 72.9 109.2 72.15 109.2 71.15 109.2 70.15 109.95 69.4 110.7 68.7 111.75 68.7 112.8 68.7 113.55 69.4 114.3 70.15 114.3 71.15" fill="#66472f" fill-rule="evenodd" stroke="none"/>
      <path d="M130.35 70.8 Q130.35 71.8 129.55 72.55 128.8 73.25 127.7 73.25 126.6 73.25 125.85 72.55 125.1 71.8 125.1 70.8 125.1 69.75 125.85 69.05 126.6 68.3 127.7 68.3 128.8 68.3 129.55 69.05 130.35 69.75 130.35 70.8" fill="#66472f" fill-rule="evenodd" stroke="none"/>
      <path d="M114.0 70.95 Q114.0 71.8 113.4 72.45 112.75 73.05 111.85 73.05 110.95 73.05 110.3 72.45 109.65 71.8 109.65 70.95 109.65 70.1 110.3 69.5 110.95 68.9 111.85 68.9 112.75 68.9 113.4 69.5 114.0 70.1 114.0 70.95" fill="#a88356" fill-rule="evenodd" stroke="none"/>
      <path d="M113.5 70.95 Q113.5 71.6 113.0 72.1 112.55 72.55 111.85 72.55 111.15 72.55 110.7 72.1 110.2 71.6 110.2 70.95 110.2 70.3 110.7 69.85 111.2 69.4 111.85 69.4 112.55 69.4 113.0 69.85 113.5 70.3 113.5 70.95" fill="#efc48f" fill-rule="evenodd" stroke="none"/>
      <path d="M113.5 71.15 L113.05 72.2 111.9 72.65 Q111.25 72.65 110.75 72.2 110.3 71.8 110.3 71.15 110.3 70.5 110.75 70.1 111.25 69.65 111.9 69.65 112.6 69.65 113.05 70.1 113.5 70.5 113.5 71.15" fill="#bc9561" fill-rule="evenodd" stroke="none"/>
      <path d="M113.25 71.1 Q113.25 71.6 112.85 71.95 112.5 72.3 111.95 72.3 111.45 72.3 111.05 71.95 110.7 71.6 110.7 71.1 110.7 70.6 111.05 70.25 111.4 69.9 111.95 69.9 112.5 69.9 112.85 70.25 113.25 70.6 113.25 71.1" fill="#a88356" fill-rule="evenodd" stroke="none"/>
      <path d="M129.9 70.65 Q129.9 71.5 129.3 72.15 128.65 72.75 127.75 72.75 126.85 72.75 126.2 72.15 125.55 71.5 125.55 70.65 125.55 69.8 126.2 69.2 126.85 68.6 127.75 68.6 128.65 68.6 129.3 69.2 129.9 69.8 129.9 70.65" fill="#a88356" fill-rule="evenodd" stroke="none"/>
      <path d="M129.4 70.65 Q129.4 71.3 128.9 71.8 128.45 72.25 127.75 72.25 127.05 72.25 126.6 71.8 126.1 71.3 126.1 70.65 126.1 70.0 126.6 69.55 127.1 69.1 127.75 69.1 128.45 69.1 128.9 69.55 129.4 70.0 129.4 70.65" fill="#efc48f" fill-rule="evenodd" stroke="none"/>
      <path d="M129.4 70.85 L128.95 71.9 Q128.5 72.35 127.8 72.35 127.15 72.35 126.65 71.9 126.2 71.5 126.2 70.85 126.2 70.2 126.65 69.8 127.15 69.35 127.8 69.35 128.5 69.35 128.95 69.8 129.4 70.2 129.4 70.85" fill="#bc9561" fill-rule="evenodd" stroke="none"/>
      <path d="M129.15 70.8 Q129.15 71.3 128.75 71.65 128.4 72.0 127.85 72.0 L126.95 71.65 Q126.6 71.3 126.6 70.8 126.6 70.3 126.95 69.95 127.3 69.6 127.85 69.6 128.4 69.6 128.75 69.95 129.15 70.3 129.15 70.8" fill="#a88356" fill-rule="evenodd" stroke="none"/>
      <path d="M111.6 70.15 L113.0 70.0 Q114.5 69.95 115.0 70.4 115.55 70.9 115.7 72.45 115.8 73.75 116.8 73.9 L120.5 74.05 123.75 73.55 Q124.35 73.2 124.8 71.55 125.15 70.0 125.8 69.95 L128.3 69.95 128.25 71.5 127.25 71.6 Q126.2 71.8 126.0 72.3 L125.9 74.05 Q125.85 75.2 125.1 75.35 L119.95 75.7 Q115.5 75.75 114.65 75.0 113.9 74.4 114.05 73.2 114.15 72.2 113.75 72.1 L111.6 71.75 111.6 70.15" fill="#cea467" fill-rule="evenodd" stroke="none"/>
      <path d="M114.55 71.3 Q115.05 71.6 115.25 72.9 115.45 74.05 116.25 74.2 L120.5 74.5 124.2 74.1 125.1 72.35 Q125.6 70.9 126.15 70.6 L127.2 70.5 128.25 70.6 128.25 71.5 127.25 71.6 Q126.2 71.8 126.0 72.3 L125.9 74.05 Q125.85 75.2 125.1 75.35 L119.95 75.7 Q115.5 75.75 114.65 75.0 113.9 74.4 114.05 73.2 114.15 72.2 113.75 72.1 L111.6 71.75 111.6 70.75 112.95 70.8 Q113.95 70.95 114.55 71.3" fill="#bc9561" fill-rule="evenodd" stroke="none"/>
      <path d="M119.95 75.7 Q115.5 75.75 114.65 75.0 114.0 74.45 114.05 73.45 L114.0 72.25 114.2 71.95 114.45 73.6 Q114.65 74.75 115.55 74.9 L120.85 75.25 Q125.05 75.4 125.45 74.8 125.75 74.4 125.6 72.75 125.45 71.35 126.15 71.3 L128.25 70.75 128.25 71.5 127.25 71.6 Q126.2 71.8 126.0 72.3 L125.9 74.05 Q125.85 75.2 125.1 75.35 L119.95 75.7" fill="#a88356" fill-rule="evenodd" stroke="none"/>
      <path d="M115.8 73.75 L120.15 74.2 124.2 74.1 119.95 74.65 Q117.25 74.65 115.8 73.75" fill="#efc48f" fill-rule="evenodd" stroke="none"/>
      <path d="M112.4 70.85 L113.5 70.65 Q114.6 70.5 114.9 70.85 115.35 71.4 115.2 72.3 114.65 71.4 114.0 71.4 113.3 71.4 112.4 70.85" fill="#efc48f" fill-rule="evenodd" stroke="none"/>
      <path d="M125.45 71.85 L125.4 71.3 Q125.45 70.65 126.0 70.3 L127.1 69.95 127.7 69.95 126.15 70.6 125.45 71.85" fill="#efc48f" fill-rule="evenodd" stroke="none"/>
      <path d="M158.3 68.05 L80.7 68.05 80.8 67.6 158.3 67.6 158.3 68.05" fill="#af7852" fill-rule="evenodd" stroke="none"/>
      <path d="M25.35 80.6 L25.35 69.35 70.95 69.35 70.95 80.6 25.35 80.6" fill="#966845" fill-rule="evenodd" stroke="none"/>
      <path d="M26.5 79.1 L26.5 70.25 69.8 70.25 69.8 79.1 26.5 79.1" fill="#825c3a" fill-rule="evenodd" stroke="none"/>
      <path d="M25.35 69.35 L26.5 70.25 26.5 79.1 25.35 80.6 25.35 69.35" fill="#543b29" fill-rule="evenodd" stroke="none"/>
      <path d="M69.8 70.25 L70.95 69.35 70.95 80.6 69.8 79.1 69.8 70.25" fill="#543b29" fill-rule="evenodd" stroke="none"/>
      <path d="M26.5 70.25 L69.8 70.25 69.8 74.6 69.15 73.15 Q68.15 71.65 66.1 71.45 62.95 71.15 47.4 71.15 L29.35 71.75 Q28.0 72.2 27.1 73.4 L26.5 74.45 26.5 70.25" fill="#a06f4a" fill-rule="evenodd" stroke="none"/>
      <path d="M26.5 79.1 L69.8 79.1 70.95 80.6 25.35 80.6 26.5 79.1" fill="#473325" fill-rule="evenodd" stroke="none"/>
      <path d="M43.95 73.7 Q43.95 74.7 43.3 75.45 42.65 76.2 41.75 76.2 40.85 76.2 40.2 75.45 39.55 74.7 39.55 73.7 39.55 72.7 40.2 71.95 40.85 71.25 41.75 71.25 42.65 71.25 43.3 71.95 43.95 72.7 43.95 73.7" fill="#66472f" fill-rule="evenodd" stroke="none"/>
      <path d="M57.5 73.35 Q57.5 74.35 56.85 75.1 56.2 75.8 55.3 75.8 54.35 75.8 53.7 75.1 53.05 74.35 53.05 73.35 53.05 72.3 53.7 71.6 54.35 70.85 55.3 70.85 56.2 70.85 56.85 71.6 57.5 72.3 57.5 73.35" fill="#66472f" fill-rule="evenodd" stroke="none"/>
      <path d="M43.65 73.5 Q43.65 74.35 43.1 75.0 42.6 75.6 41.8 75.6 41.05 75.6 40.5 75.0 39.95 74.35 39.95 73.5 39.95 72.7 40.5 72.05 41.05 71.45 41.8 71.45 42.6 71.45 43.1 72.05 43.65 72.65 43.65 73.5" fill="#a88356" fill-rule="evenodd" stroke="none"/>
      <path d="M43.25 73.5 Q43.25 74.15 42.85 74.65 42.4 75.1 41.85 75.1 41.25 75.1 40.85 74.65 40.45 74.2 40.45 73.5 40.45 72.85 40.85 72.4 41.25 71.95 41.85 71.95 42.4 71.95 42.85 72.4 43.25 72.85 43.25 73.5" fill="#efc48f" fill-rule="evenodd" stroke="none"/>
      <path d="M43.25 73.7 Q43.25 74.35 42.85 74.75 42.45 75.2 41.9 75.2 41.35 75.2 40.9 74.75 40.5 74.35 40.5 73.7 40.5 73.05 40.9 72.65 41.35 72.2 41.9 72.2 42.45 72.2 42.85 72.65 43.25 73.05 43.25 73.7" fill="#bc9561" fill-rule="evenodd" stroke="none"/>
      <path d="M43.0 73.65 L42.7 74.5 41.95 74.85 Q41.5 74.85 41.2 74.5 40.85 74.15 40.85 73.65 40.85 73.15 41.2 72.8 41.5 72.45 41.95 72.45 42.4 72.45 42.7 72.8 L43.0 73.65" fill="#a88356" fill-rule="evenodd" stroke="none"/>
      <path d="M57.15 73.2 Q57.15 74.05 56.6 74.7 56.1 75.3 55.3 75.3 54.55 75.3 54.0 74.7 53.45 74.05 53.45 73.2 53.45 72.4 54.0 71.75 54.55 71.15 55.3 71.15 56.1 71.15 56.6 71.75 57.15 72.35 57.15 73.2" fill="#a88356" fill-rule="evenodd" stroke="none"/>
      <path d="M56.75 73.2 Q56.75 73.85 56.35 74.35 55.9 74.8 55.35 74.8 54.75 74.8 54.35 74.35 53.95 73.9 53.95 73.2 53.95 72.55 54.35 72.1 54.75 71.65 55.35 71.65 55.9 71.65 56.35 72.1 56.75 72.55 56.75 73.2" fill="#efc48f" fill-rule="evenodd" stroke="none"/>
      <path d="M56.75 73.4 Q56.75 74.05 56.35 74.45 55.9 74.9 55.35 74.9 54.8 74.9 54.4 74.45 54.0 74.05 54.0 73.4 54.0 72.75 54.4 72.35 54.8 71.9 55.35 71.9 55.9 71.9 56.35 72.35 56.75 72.75 56.75 73.4" fill="#bc9561" fill-rule="evenodd" stroke="none"/>
      <path d="M56.5 73.35 L56.2 74.2 55.45 74.55 Q55.0 74.55 54.7 74.2 54.35 73.85 54.35 73.35 54.35 72.85 54.7 72.5 55.0 72.15 55.45 72.15 55.9 72.15 56.2 72.5 L56.5 73.35" fill="#a88356" fill-rule="evenodd" stroke="none"/>
      <path d="M42.85 72.55 Q44.1 72.5 44.5 72.95 45.0 73.45 45.1 75.0 45.2 76.3 46.05 76.45 L49.15 76.6 51.95 76.1 Q52.45 75.8 52.8 74.1 53.1 72.55 53.65 72.5 L55.8 72.5 55.75 74.05 54.9 74.15 Q54.05 74.35 53.85 74.85 L53.75 76.6 Q53.7 77.8 53.1 77.9 L48.7 78.25 Q44.95 78.3 44.2 77.55 43.55 76.95 43.7 75.75 43.75 74.75 43.45 74.65 L41.65 74.3 41.65 72.7 42.85 72.55" fill="#cea467" fill-rule="evenodd" stroke="none"/>
      <path d="M44.2 77.55 Q43.55 76.95 43.7 75.75 43.75 74.75 43.45 74.65 L41.65 74.3 41.65 73.3 42.75 73.35 44.1 73.85 Q44.55 74.15 44.75 75.45 44.9 76.6 45.55 76.75 L49.15 77.05 52.35 76.65 53.1 74.95 Q53.5 73.5 53.95 73.2 L54.85 73.05 55.75 73.15 55.75 74.05 54.9 74.15 Q54.05 74.35 53.85 74.85 L53.75 76.6 Q53.7 77.8 53.1 77.9 L48.7 78.25 Q44.95 78.3 44.2 77.55" fill="#bc9561" fill-rule="evenodd" stroke="none"/>
      <path d="M48.7 78.25 Q44.95 78.3 44.2 77.55 43.6 77.0 43.65 76.0 L43.65 74.8 43.85 74.5 44.05 76.15 Q44.2 77.3 45.0 77.45 L49.45 77.85 Q53.0 77.95 53.4 77.35 53.65 77.0 53.5 75.3 53.35 73.9 53.95 73.85 L55.75 73.3 55.75 74.05 54.9 74.15 Q54.05 74.35 53.85 74.85 L53.75 76.6 Q53.7 77.8 53.1 77.9 L48.7 78.25" fill="#a88356" fill-rule="evenodd" stroke="none"/>
      <path d="M45.15 76.3 L48.9 76.75 52.35 76.65 51.4 76.95 48.7 77.2 Q46.4 77.2 45.15 76.3" fill="#efc48f" fill-rule="evenodd" stroke="none"/>
      <path d="M42.3 73.4 L43.2 73.2 Q44.15 73.05 44.4 73.4 44.8 73.95 44.7 74.85 L44.4 74.4 Q44.0 73.95 43.65 73.95 43.05 73.95 42.3 73.4" fill="#efc48f" fill-rule="evenodd" stroke="none"/>
      <path d="M53.4 74.4 Q53.15 73.4 53.85 72.85 54.25 72.55 54.8 72.5 L55.3 72.5 53.95 73.2 53.4 74.4" fill="#efc48f" fill-rule="evenodd" stroke="none"/>
      <path d="M26.5 70.25 L69.8 70.25 69.8 70.7 26.45 70.7 26.5 70.25" fill="#af7852" fill-rule="evenodd" stroke="none"/>
      <path d="M30.9 29.75 L73.9 29.75 73.9 37.4 30.9 37.4 30.9 29.75" fill="#966845" fill-rule="evenodd" stroke="none"/>
      <path d="M72.8 30.35 L72.8 36.4 32.0 36.4 32.0 30.35 72.8 30.35" fill="#825c3a" fill-rule="evenodd" stroke="none"/>
      <path d="M32.0 30.35 L32.0 36.4 30.9 37.4 30.9 29.75 32.0 30.35" fill="#543b29" fill-rule="evenodd" stroke="none"/>
      <path d="M72.8 30.35 L73.9 29.75 73.9 37.4 72.8 36.4 72.8 30.35" fill="#543b29" fill-rule="evenodd" stroke="none"/>
      <path d="M72.2 32.35 Q71.25 31.35 69.35 31.2 66.5 30.95 51.7 31.0 36.25 31.0 34.7 31.4 32.65 31.9 32.0 33.2 L32.0 30.35 72.8 30.35 72.8 33.3 Q72.7 32.85 72.2 32.35" fill="#a06f4a" fill-rule="evenodd" stroke="none"/>
      <path d="M73.9 37.4 L30.9 37.4 32.0 36.4 72.8 36.4 73.9 37.4" fill="#473325" fill-rule="evenodd" stroke="none"/>
      <path d="M49.45 32.7 Q49.45 33.4 48.95 33.9 48.4 34.4 47.7 34.4 47.0 34.4 46.45 33.9 45.95 33.4 45.95 32.7 45.95 32.05 46.45 31.55 47.0 31.05 47.7 31.05 48.4 31.05 48.95 31.55 49.45 32.05 49.45 32.7" fill="#66472f" fill-rule="evenodd" stroke="none"/>
      <path d="M60.35 32.45 Q60.35 33.15 59.85 33.65 59.3 34.15 58.55 34.15 57.8 34.15 57.3 33.65 56.75 33.15 56.75 32.45 56.75 31.75 57.3 31.3 57.8 30.8 58.55 30.8 59.3 30.8 59.85 31.3 60.35 31.75 60.35 32.45" fill="#66472f" fill-rule="evenodd" stroke="none"/>
      <path d="M49.25 32.6 L48.8 33.6 Q48.4 34.0 47.75 34.0 47.15 34.0 46.75 33.6 46.3 33.15 46.3 32.6 46.3 32.0 46.75 31.6 47.15 31.2 47.75 31.2 48.4 31.2 48.8 31.6 49.25 32.0 49.25 32.6" fill="#a88356" fill-rule="evenodd" stroke="none"/>
      <path d="M48.9 32.6 L48.6 33.35 47.8 33.65 Q47.3 33.65 47.0 33.35 46.65 33.05 46.65 32.6 46.65 32.15 47.0 31.85 47.3 31.5 47.8 31.5 48.25 31.5 48.6 31.85 48.9 32.15 48.9 32.6" fill="#efc48f" fill-rule="evenodd" stroke="none"/>
      <path d="M48.9 32.7 L48.6 33.45 47.8 33.75 Q47.35 33.75 47.05 33.45 46.7 33.15 46.7 32.7 46.7 32.3 47.05 32.0 47.35 31.7 47.8 31.7 L48.6 32.0 48.9 32.7" fill="#bc9561" fill-rule="evenodd" stroke="none"/>
      <path d="M48.7 32.65 L48.45 33.25 47.85 33.5 47.25 33.25 47.0 32.65 Q47.0 32.3 47.25 32.1 47.5 31.85 47.85 31.85 48.7 31.85 48.7 32.65" fill="#a88356" fill-rule="evenodd" stroke="none"/>
      <path d="M60.05 32.4 Q60.05 32.95 59.65 33.4 59.2 33.8 58.6 33.8 57.95 33.8 57.55 33.4 57.1 32.95 57.1 32.4 57.1 31.8 57.55 31.4 57.95 31.0 58.6 31.0 59.2 31.0 59.65 31.4 60.05 31.8 60.05 32.4" fill="#a88356" fill-rule="evenodd" stroke="none"/>
      <path d="M59.7 32.4 L59.4 33.15 58.6 33.45 Q58.1 33.45 57.8 33.15 57.45 32.8 57.45 32.4 57.45 31.95 57.8 31.65 58.1 31.3 58.6 31.3 59.05 31.3 59.4 31.65 L59.7 32.4" fill="#efc48f" fill-rule="evenodd" stroke="none"/>
      <path d="M59.7 32.5 L59.4 33.25 58.6 33.55 Q58.15 33.55 57.85 33.25 57.55 32.9 57.55 32.5 57.55 32.1 57.85 31.8 58.15 31.5 58.6 31.5 L59.4 31.8 59.7 32.5" fill="#bc9561" fill-rule="evenodd" stroke="none"/>
      <path d="M59.55 32.45 Q59.55 33.25 58.65 33.25 L58.05 33.0 57.8 32.45 Q57.8 32.1 58.05 31.9 58.3 31.65 58.65 31.65 59.55 31.65 59.55 32.45" fill="#a88356" fill-rule="evenodd" stroke="none"/>
      <path d="M56.8 35.55 L53.25 35.8 Q50.3 35.85 49.7 35.35 49.2 34.9 49.25 34.1 49.35 33.4 49.05 33.35 L47.6 33.1 47.6 32.05 48.55 31.95 Q49.6 31.9 49.9 32.2 50.3 32.55 50.4 33.6 50.5 34.45 51.15 34.55 L53.65 34.7 55.9 34.35 Q56.3 34.15 56.55 33.0 56.8 31.95 57.25 31.9 L58.95 31.9 58.95 32.95 58.25 33.0 Q57.55 33.15 57.4 33.5 L57.35 34.7 Q57.3 35.45 56.8 35.55" fill="#cea467" fill-rule="evenodd" stroke="none"/>
      <path d="M58.95 32.95 L58.25 33.0 Q57.55 33.15 57.4 33.5 L57.35 34.7 Q57.3 35.45 56.8 35.55 L53.25 35.8 Q50.3 35.85 49.7 35.35 49.2 34.9 49.25 34.1 49.35 33.4 49.05 33.35 L47.6 33.1 47.6 32.45 48.5 32.45 Q49.2 32.55 49.6 32.8 49.95 33.0 50.1 33.9 50.2 34.65 50.75 34.8 L53.65 35.0 56.2 34.7 56.8 33.55 Q57.1 32.55 57.5 32.35 L58.25 32.3 58.95 32.35 58.95 32.95" fill="#bc9561" fill-rule="evenodd" stroke="none"/>
      <path d="M57.5 32.8 L58.95 32.45 58.95 32.95 58.25 33.0 Q57.55 33.15 57.4 33.5 L57.35 34.7 Q57.3 35.45 56.8 35.55 L53.25 35.8 Q50.3 35.85 49.7 35.35 49.25 34.95 49.25 34.25 L49.25 33.45 49.4 33.25 49.55 34.4 Q49.65 35.15 50.3 35.25 L53.9 35.5 57.0 35.2 57.1 33.8 Q57.05 32.85 57.5 32.8" fill="#a88356" fill-rule="evenodd" stroke="none"/>
      <path d="M50.45 34.5 L53.45 34.8 56.2 34.7 55.4 34.9 53.25 35.1 Q51.45 35.1 50.45 34.5" fill="#efc48f" fill-rule="evenodd" stroke="none"/>
      <path d="M48.15 32.5 L48.9 32.35 Q49.65 32.25 49.85 32.5 50.15 32.9 50.05 33.5 L49.8 33.2 Q49.5 32.9 49.2 32.9 48.75 32.9 48.15 32.5" fill="#efc48f" fill-rule="evenodd" stroke="none"/>
      <path d="M57.0 33.2 Q56.85 32.5 57.4 32.1 L58.15 31.9 58.55 31.9 57.5 32.35 57.0 33.2" fill="#efc48f" fill-rule="evenodd" stroke="none"/>
      <path d="M72.8 30.65 L31.95 30.65 32.0 30.35 72.8 30.35 72.8 30.65" fill="#af7852" fill-rule="evenodd" stroke="none"/>
      <path d="M24.9 95.75 L24.9 84.5 70.5 84.5 70.5 95.75 24.9 95.75" fill="#966845" fill-rule="evenodd" stroke="none"/>
      <path d="M26.05 94.25 L26.05 85.4 69.35 85.4 69.35 94.25 26.05 94.25" fill="#825c3a" fill-rule="evenodd" stroke="none"/>
      <path d="M24.9 95.75 L24.9 84.5 26.05 85.4 26.05 94.25 24.9 95.75" fill="#543b29" fill-rule="evenodd" stroke="none"/>
      <path d="M69.35 85.4 L70.5 84.5 70.5 95.75 69.35 94.25 69.35 85.4" fill="#543b29" fill-rule="evenodd" stroke="none"/>
      <path d="M26.05 85.4 L69.35 85.4 69.35 89.75 68.7 88.3 Q67.7 86.8 65.65 86.6 62.5 86.3 46.95 86.3 L28.9 86.9 Q27.55 87.35 26.65 88.55 L26.05 89.6 26.05 85.4" fill="#a06f4a" fill-rule="evenodd" stroke="none"/>
      <path d="M26.05 94.25 L69.35 94.25 70.5 95.75 24.9 95.75 26.05 94.25" fill="#473325" fill-rule="evenodd" stroke="none"/>
      <path d="M43.5 88.85 Q43.5 89.85 42.85 90.6 42.2 91.35 41.3 91.35 40.4 91.35 39.75 90.6 39.1 89.85 39.1 88.85 39.1 87.85 39.75 87.1 40.4 86.4 41.3 86.4 42.2 86.4 42.85 87.1 43.5 87.85 43.5 88.85" fill="#66472f" fill-rule="evenodd" stroke="none"/>
      <path d="M57.05 88.5 Q57.05 89.5 56.4 90.25 55.75 90.95 54.85 90.95 53.9 90.95 53.25 90.25 52.6 89.5 52.6 88.5 52.6 87.45 53.25 86.75 53.9 86.0 54.85 86.0 55.75 86.0 56.4 86.75 57.05 87.45 57.05 88.5" fill="#66472f" fill-rule="evenodd" stroke="none"/>
      <path d="M43.2 88.65 Q43.2 89.5 42.65 90.15 42.15 90.75 41.35 90.75 40.6 90.75 40.05 90.15 39.5 89.5 39.5 88.65 39.5 87.85 40.05 87.2 40.6 86.6 41.35 86.6 42.15 86.6 42.65 87.2 43.2 87.8 43.2 88.65" fill="#a88356" fill-rule="evenodd" stroke="none"/>
      <path d="M42.8 88.65 Q42.8 89.3 42.4 89.8 L41.4 90.25 Q40.8 90.25 40.4 89.8 40.0 89.35 40.0 88.65 40.0 88.0 40.4 87.55 40.8 87.1 41.4 87.1 41.95 87.1 42.4 87.55 42.8 88.0 42.8 88.65" fill="#efc48f" fill-rule="evenodd" stroke="none"/>
      <path d="M42.8 88.85 Q42.8 89.5 42.4 89.9 42.0 90.35 41.45 90.35 40.9 90.35 40.45 89.9 40.05 89.5 40.05 88.85 40.05 88.2 40.45 87.8 40.9 87.35 41.45 87.35 42.0 87.35 42.4 87.8 42.8 88.2 42.8 88.85" fill="#bc9561" fill-rule="evenodd" stroke="none"/>
      <path d="M42.55 88.8 L42.25 89.65 Q41.95 90.0 41.5 90.0 41.05 90.0 40.75 89.65 40.4 89.3 40.4 88.8 40.4 88.3 40.75 87.95 41.05 87.6 41.5 87.6 41.95 87.6 42.25 87.95 L42.55 88.8" fill="#a88356" fill-rule="evenodd" stroke="none"/>
      <path d="M56.7 88.35 Q56.7 89.2 56.15 89.85 55.65 90.45 54.85 90.45 54.1 90.45 53.55 89.85 53.0 89.2 53.0 88.35 53.0 87.55 53.55 86.9 54.1 86.3 54.85 86.3 55.65 86.3 56.15 86.9 56.7 87.5 56.7 88.35" fill="#a88356" fill-rule="evenodd" stroke="none"/>
      <path d="M56.3 88.35 Q56.3 89.0 55.9 89.5 55.45 89.95 54.9 89.95 54.3 89.95 53.9 89.5 53.5 89.05 53.5 88.35 53.5 87.7 53.9 87.25 54.3 86.8 54.9 86.8 55.45 86.8 55.9 87.25 56.3 87.7 56.3 88.35" fill="#efc48f" fill-rule="evenodd" stroke="none"/>
      <path d="M56.3 88.55 Q56.3 89.2 55.9 89.6 55.45 90.05 54.9 90.05 54.35 90.05 53.95 89.6 53.55 89.2 53.55 88.55 53.55 87.9 53.95 87.5 54.35 87.05 54.9 87.05 55.45 87.05 55.9 87.5 56.3 87.9 56.3 88.55" fill="#bc9561" fill-rule="evenodd" stroke="none"/>
      <path d="M56.05 88.5 L55.75 89.35 Q55.45 89.7 55.0 89.7 54.55 89.7 54.25 89.35 53.9 89.0 53.9 88.5 53.9 88.0 54.25 87.65 54.55 87.3 55.0 87.3 55.45 87.3 55.75 87.65 L56.05 88.5" fill="#a88356" fill-rule="evenodd" stroke="none"/>
      <path d="M52.65 93.05 L48.25 93.4 Q44.5 93.45 43.75 92.7 43.1 92.1 43.25 90.9 43.3 89.9 43.0 89.8 L41.2 89.45 41.2 87.9 42.4 87.75 Q43.65 87.7 44.05 88.1 44.55 88.6 44.65 90.15 44.75 91.45 45.6 91.6 L48.7 91.75 Q50.8 91.7 51.5 91.25 52.0 90.95 52.35 89.25 52.65 87.7 53.2 87.65 L55.35 87.65 55.3 89.25 54.45 89.35 Q53.6 89.55 53.4 90.0 L53.3 91.75 Q53.25 92.95 52.65 93.05" fill="#cea467" fill-rule="evenodd" stroke="none"/>
      <path d="M51.9 91.8 L52.65 90.1 Q53.05 88.65 53.5 88.35 L54.4 88.2 55.3 88.3 55.3 89.25 54.45 89.35 Q53.6 89.55 53.4 90.0 L53.3 91.75 Q53.25 92.95 52.65 93.05 L48.25 93.4 Q44.5 93.45 43.75 92.7 43.1 92.1 43.25 90.9 43.3 89.9 43.0 89.8 L41.2 89.45 41.2 88.45 42.3 88.5 Q43.2 88.65 43.65 89.0 44.1 89.3 44.3 90.6 44.45 91.75 45.1 91.95 L48.7 92.2 51.9 91.8" fill="#bc9561" fill-rule="evenodd" stroke="none"/>
      <path d="M53.5 89.0 L55.3 88.45 55.3 89.25 54.45 89.35 Q53.6 89.55 53.4 90.0 L53.3 91.75 Q53.25 92.95 52.65 93.05 L48.25 93.4 Q44.5 93.45 43.75 92.7 43.15 92.15 43.2 91.15 L43.2 89.95 43.4 89.7 43.6 91.3 Q43.75 92.5 44.55 92.6 L49.0 93.0 Q52.55 93.1 52.95 92.5 53.2 92.15 53.05 90.45 52.9 89.05 53.5 89.0" fill="#a88356" fill-rule="evenodd" stroke="none"/>
      <path d="M44.7 91.5 L48.45 91.95 51.9 91.8 50.95 92.1 48.25 92.4 Q45.95 92.4 44.7 91.5" fill="#efc48f" fill-rule="evenodd" stroke="none"/>
      <path d="M41.85 88.55 L42.75 88.35 43.95 88.55 Q44.35 89.1 44.25 90.0 L43.95 89.55 Q43.55 89.1 43.2 89.1 42.6 89.1 41.85 88.55" fill="#efc48f" fill-rule="evenodd" stroke="none"/>
      <path d="M52.95 89.55 Q52.7 88.55 53.4 88.0 53.8 87.7 54.35 87.65 L54.85 87.65 53.5 88.35 52.95 89.55" fill="#efc48f" fill-rule="evenodd" stroke="none"/>
      <path d="M26.15 85.4 L69.4 85.4 69.4 85.85 26.1 85.85 26.15 85.4" fill="#af7852" fill-rule="evenodd" stroke="none"/>
      <path d="M171.1 59.45 L172.35 60.2 13.4 60.2 13.7 59.45 171.1 59.45" fill="#a8724e" fill-rule="evenodd" stroke="none"/>
      <path d="M21.45 100.85 L74.55 100.85 74.55 105.05 67.05 103.6 Q57.7 102.2 48.35 102.3 L29.3 103.7 21.45 104.95 21.45 100.85" fill="#825c3a" fill-rule="evenodd" stroke="none"/>
      <path d="M21.45 100.4 L74.55 100.4 74.55 101.0 21.45 101.0 21.45 100.4" fill="#af7852" fill-rule="evenodd" stroke="none"/>
      <path d="M74.6 98.45 L82.95 84.95 82.8 87.15 74.55 100.35 74.6 98.45" fill="#35251c" fill-rule="evenodd" stroke="none"/>
      <path d="M164.35 98.45 L164.35 100.25 155.4 86.8 155.5 85.0 164.35 98.45" fill="#35251c" fill-rule="evenodd" stroke="none"/>
      <path d="M21.75 107.3 L48.5 109.1 Q59.35 109.1 67.95 107.75 L74.4 106.4 74.55 112.1 21.45 112.1 21.75 107.3" fill="#6d4d35" fill-rule="evenodd" stroke="none"/>
      <path d="M164.6 105.7 L168.0 105.5 168.3 112.1 164.55 112.1 164.6 105.7" fill="#6d4d35" fill-rule="evenodd" stroke="none"/>
      <path d="M71.75 27.5 L53.45 26.95 Q37.25 26.95 28.5 28.3 27.9 28.3 32.7 25.85 L75.6 26.4 75.95 28.0 71.75 27.5" fill="#4f3727" fill-rule="evenodd" stroke="none"/>
      <path d="M76.05 28.75 L28.5 28.75 28.5 28.3 76.05 28.3 76.05 28.75" fill="#a06f4a" fill-rule="evenodd" stroke="none"/>
      <path d="M155.9 29.0 L79.35 29.0 79.35 28.5 155.9 28.5 155.9 29.0" fill="#845d3d" fill-rule="evenodd" stroke="none"/>
      <path d="M153.6 33.25 L155.85 32.5 155.85 35.3 150.45 35.3 Q150.2 34.55 149.55 33.85 148.25 32.45 146.25 32.6 144.3 32.75 142.6 34.05 141.8 34.7 141.35 35.3 L140.1 34.1 Q138.45 32.9 136.45 32.6 134.45 32.3 119.0 32.3 L102.15 32.35 Q100.6 32.35 98.4 33.95 L96.5 35.5 95.05 34.3 Q93.15 33.05 90.85 33.05 88.55 33.05 87.55 34.3 87.0 34.9 86.95 35.5 L79.35 35.5 79.35 32.55 Q84.5 33.35 86.2 32.6 87.85 31.85 90.35 31.45 93.35 30.95 94.95 31.45 96.85 32.1 96.45 32.8 97.15 32.1 98.4 31.55 100.35 30.6 102.95 30.55 L121.2 30.35 Q136.1 30.25 137.6 30.55 139.05 30.85 140.35 31.95 L141.3 33.05 Q142.05 32.45 143.15 31.8 145.35 30.6 146.95 30.7 148.35 30.75 150.75 32.1 153.0 33.35 153.6 33.25" fill="#6b4b32" fill-rule="evenodd" stroke="none"/>
      <path d="M145.85 27.15 Q133.05 26.45 116.1 26.4 96.9 26.35 80.35 27.4 L82.35 25.6 152.0 25.6 155.25 27.85 145.85 27.15" fill="#4f3727" fill-rule="evenodd" stroke="none"/>
      <path d="M159.0 6.8 L159.0 18.65 25.7 19.05 25.7 6.8 159.0 6.8" fill="#664730" fill-rule="evenodd" stroke="none"/>
      <path d="M159.0 12.1 L159.0 15.3 25.7 15.45 25.7 12.1 159.0 12.1" fill="#563d2c" fill-rule="evenodd" stroke="none"/>
      <path d="M159.0 12.1 L159.0 14.0 25.7 14.1 25.7 12.1 159.0 12.1" fill="#4c3525" fill-rule="evenodd" stroke="none"/>
      <path d="M159.0 6.8 L159.0 12.85 25.7 13.05 25.7 6.8 159.0 6.8" fill="#775437" fill-rule="evenodd" stroke="none"/>
      <path d="M159.0 6.8 L159.0 9.25 25.7 9.3 25.7 6.8 159.0 6.8" fill="#6b4b32" fill-rule="evenodd" stroke="none"/>
      <path d="M159.0 6.8 L159.0 8.05 25.7 8.1 25.7 6.8 159.0 6.8" fill="#5b3f2c" fill-rule="evenodd" stroke="none"/>
      <path d="M41.1 16.1 Q41.1 16.8 40.6 17.3 40.05 17.8 39.3 17.8 38.55 17.8 38.05 17.3 37.5 16.8 37.5 16.1 37.5 15.4 38.05 14.9 38.55 14.4 39.3 14.4 40.05 14.4 40.6 14.9 41.1 15.4 41.1 16.1" fill="#4c3525" fill-rule="evenodd" stroke="none"/>
      <path d="M40.8 16.05 L40.35 17.05 Q39.95 17.45 39.3 17.45 38.7 17.45 38.3 17.05 37.85 16.6 37.85 16.05 37.85 15.45 38.3 15.05 38.7 14.65 39.3 14.65 39.95 14.65 40.35 15.05 40.8 15.45 40.8 16.05" fill="#a88356" fill-rule="evenodd" stroke="none"/>
      <path d="M40.45 16.05 L40.15 16.8 39.35 17.1 Q38.85 17.1 38.55 16.8 38.2 16.45 38.2 16.05 38.2 15.6 38.55 15.3 38.85 14.95 39.35 14.95 39.8 14.95 40.15 15.3 L40.45 16.05" fill="#efc48f" fill-rule="evenodd" stroke="none"/>
      <path d="M40.45 16.15 L40.15 16.9 39.35 17.2 Q38.9 17.2 38.6 16.9 38.3 16.55 38.3 16.15 38.3 15.75 38.6 15.4 38.9 15.1 39.35 15.1 39.8 15.1 40.15 15.4 L40.45 16.15" fill="#bc9561" fill-rule="evenodd" stroke="none"/>
      <path d="M40.3 16.1 Q40.3 16.9 39.4 16.9 L38.8 16.65 38.55 16.1 Q38.55 15.75 38.8 15.55 L39.4 15.3 Q40.3 15.3 40.3 16.1" fill="#a88356" fill-rule="evenodd" stroke="none"/>
      <path d="M147.35 16.0 Q147.35 16.7 146.85 17.15 146.35 17.65 145.6 17.65 144.85 17.65 144.35 17.15 143.8 16.7 143.8 16.0 143.8 15.3 144.35 14.8 144.85 14.3 145.6 14.3 146.35 14.3 146.85 14.8 147.35 15.3 147.35 16.0" fill="#4c3525" fill-rule="evenodd" stroke="none"/>
      <path d="M147.1 15.9 L146.65 16.9 Q146.25 17.3 145.6 17.3 145.0 17.3 144.55 16.9 144.1 16.5 144.1 15.9 144.1 15.35 144.55 14.9 145.0 14.5 145.6 14.5 146.25 14.5 146.65 14.9 L147.1 15.9" fill="#a88356" fill-rule="evenodd" stroke="none"/>
      <path d="M146.75 15.9 L146.4 16.7 Q146.1 17.0 145.6 17.0 145.15 17.0 144.85 16.7 144.5 16.35 144.5 15.9 144.5 15.45 144.85 15.15 145.15 14.85 145.6 14.85 146.1 14.85 146.4 15.15 146.75 15.45 146.75 15.9" fill="#efc48f" fill-rule="evenodd" stroke="none"/>
      <path d="M146.75 16.05 L146.45 16.75 Q146.1 17.05 145.65 17.05 L144.9 16.75 Q144.55 16.45 144.55 16.05 144.55 15.6 144.9 15.3 145.2 15.0 145.65 15.0 146.1 15.0 146.45 15.3 L146.75 16.05" fill="#bc9561" fill-rule="evenodd" stroke="none"/>
      <path d="M146.55 16.0 Q146.55 16.8 145.7 16.8 144.85 16.8 144.85 16.0 144.85 15.65 145.1 15.4 145.35 15.15 145.7 15.15 146.55 15.15 146.55 16.0" fill="#a88356" fill-rule="evenodd" stroke="none"/>
      <path d="M21.2 10.55 L21.2 6.95 24.75 6.85 24.8 10.65 21.2 10.55" fill="#755235" fill-rule="evenodd" stroke="none"/>
      <path d="M21.2 8.85 L21.2 6.95 24.75 6.85 24.8 8.85 21.2 8.85" fill="#66472f" fill-rule="evenodd" stroke="none"/>
      <path d="M162.85 10.0 L159.5 10.2 159.5 6.7 162.85 6.7 162.85 10.0" fill="#755235" fill-rule="evenodd" stroke="none"/>
      <path d="M159.5 8.8 L159.5 6.7 162.85 6.7 162.75 8.65 159.5 8.8" fill="#66472f" fill-rule="evenodd" stroke="none"/>
      <path d="M21.35 20.55 Q22.55 21.45 23.35 21.25 L24.45 20.7 25.0 20.35 25.05 23.3 23.0 25.4 22.65 24.75 Q22.2 24.1 21.6 24.15 L18.95 24.7 21.2 23.0 21.35 20.55" fill="#755235" fill-rule="evenodd" stroke="none"/>
      <path d="M159.5 19.7 Q160.95 20.8 161.55 20.7 L162.85 19.65 162.55 22.6 164.5 24.45 163.75 24.35 162.4 24.6 Q161.85 24.9 161.75 25.5 L161.75 26.1 159.6 23.65 159.5 19.7" fill="#755235" fill-rule="evenodd" stroke="none"/>
      <path d="M14.1 45.85 L14.6 47.15 Q15.25 48.4 16.05 48.25 16.9 48.1 17.3 46.8 L17.5 45.55 17.95 59.6 14.45 59.45 14.1 45.85" fill="#755235" fill-rule="evenodd" stroke="none"/>
      <path d="M166.2 44.65 L166.75 45.9 Q167.45 47.1 168.0 47.1 168.9 47.1 169.8 45.3 L169.8 59.3 165.95 59.35 166.2 44.65" fill="#755235" fill-rule="evenodd" stroke="none"/>
      <path d="M14.4 55.75 Q15.3 57.55 16.4 57.45 17.1 57.4 17.45 56.75 L17.7 56.1 17.95 59.6 14.45 59.45 14.4 55.75" fill="#66472f" fill-rule="evenodd" stroke="none"/>
      <path d="M166.2 55.0 L166.7 55.8 Q167.3 56.55 167.85 56.55 168.75 56.55 169.9 55.45 L169.8 59.3 165.95 59.35 166.05 55.45 166.2 55.0" fill="#66472f" fill-rule="evenodd" stroke="none"/>
      <path d="M15.7 29.9 Q16.75 29.05 17.85 29.35 18.75 29.55 18.6 30.75 L18.15 32.95 Q17.95 34.3 17.4 35.5 16.65 37.05 15.85 37.0 14.8 36.9 14.2 35.85 14.4 32.55 15.7 29.9" fill="#89603e" fill-rule="evenodd" stroke="none"/>
      <path d="M165.85 28.45 L166.9 28.35 Q168.9 31.95 169.15 36.1 168.4 36.9 167.75 36.85 166.9 36.8 166.4 35.8 166.0 35.1 165.6 33.4 164.55 28.8 165.85 28.45" fill="#89603e" fill-rule="evenodd" stroke="none"/>
      <path d="M21.2 23.0 L21.25 22.15 23.1 22.6 24.4 22.25 25.0 22.0 25.05 23.3 21.2 23.0" fill="#66472f" fill-rule="evenodd" stroke="none"/>
      <path d="M159.6 23.65 L159.65 22.15 160.05 22.25 161.35 22.45 Q162.55 22.6 163.05 21.7 L162.85 23.05 159.6 23.65" fill="#66472f" fill-rule="evenodd" stroke="none"/>
      <path d="M156.0 51.95 L158.2 52.0 159.05 54.1 156.0 51.95" fill="#4c3627" fill-rule="evenodd" stroke="none"/>
      <path d="M158.1 49.5 L165.95 58.0 169.85 58.0 170.75 59.2 165.95 59.35 157.8 53.1 158.1 49.5" fill="#4c3627" fill-rule="evenodd" stroke="none"/>
      <path d="M26.45 52.25 L26.65 53.65 18.4 59.65 13.65 59.5 14.55 58.3 18.4 58.3 26.45 52.25" fill="#4c3627" fill-rule="evenodd" stroke="none"/>
      <path d="M149.3 19.1 L152.0 18.6 152.0 25.6 148.95 25.4 149.85 24.6 Q150.7 23.65 150.65 22.6 150.6 21.55 149.95 20.2 L149.3 19.1" fill="#35251c" fill-rule="evenodd" stroke="none"/>
      <path d="M82.6 18.75 L85.95 19.2 84.95 20.1 Q84.0 21.25 84.05 22.35 84.15 24.15 85.5 25.25 L82.65 25.1 82.6 18.75" fill="#35251c" fill-rule="evenodd" stroke="none"/>
      <path d="M32.3 19.3 L36.9 19.3 35.35 20.4 Q33.85 21.75 33.9 23.05 34.05 25.05 35.3 25.85 L32.3 25.85 32.3 19.3" fill="#35251c" fill-rule="evenodd" stroke="none"/>
      <path d="M75.85 19.45 L75.85 25.5 71.8 25.15 Q73.5 24.4 73.7 22.7 73.85 21.65 72.55 20.3 L71.25 19.2 75.85 19.45" fill="#35251c" fill-rule="evenodd" stroke="none"/>
      <path d="M151.9 41.95 L151.8 49.6 148.05 49.2 Q148.95 47.3 148.95 45.55 L149.2 41.95 151.9 41.95" fill="#35251c" fill-rule="evenodd" stroke="none"/>
      <path d="M32.55 45.7 L35.0 45.55 35.35 50.05 32.25 50.4 32.55 45.7" fill="#35251c" fill-rule="evenodd" stroke="none"/>
      <path d="M82.7 97.15 L83.1 80.15 84.9 80.15 84.9 96.8 82.7 97.15" fill="#35251c" fill-rule="evenodd" stroke="none"/>
      <path d="M155.4 79.7 L155.4 96.95 153.3 96.95 153.3 80.15 155.4 79.7" fill="#35251c" fill-rule="evenodd" stroke="none"/>
      <path d="M26.4 51.4 L28.2 51.1 28.05 52.25 25.8 53.8 26.4 51.4" fill="#4c3627" fill-rule="evenodd" stroke="none"/>
    </g>
    <radialGradient cx="0" cy="0" gradientTransform="matrix(0.1053, 0.0, 0.0, -0.0176, 94.5, 103.25)" gradientUnits="userSpaceOnUse" id="gradient0" r="819.2" spreadMethod="pad">
      <stop offset="0.0" stop-color="#000000" stop-opacity="0.24705882"/>
      <stop offset="1.0" stop-color="#000000" stop-opacity="0.0"/>
    </radialGradient>
    <radialGradient cx="0" cy="0" gradientTransform="matrix(0.1338, 0.0, 0.0, -0.1338, 94.65, 104.4)" gradientUnits="userSpaceOnUse" id="gradient1" r="819.2" spreadMethod="pad">
      <stop offset="0.0" stop-color="#000000" stop-opacity="0.24705882"/>
      <stop offset="1.0" stop-color="#000000" stop-opacity="0.0"/>
    </radialGradient>
  </defs>
</svg>
