<?xml version="1.0" encoding="UTF-8" standalone="no"?>
<svg xmlns:xlink="http://www.w3.org/1999/xlink" height="63.65px" width="24.9px" xmlns="http://www.w3.org/2000/svg">
  <g transform="matrix(1.0, 0.0, 0.0, 1.0, 0.0, 0.0)">
    <use height="63.65" transform="matrix(1.0, 0.0, 0.0, 1.0, 0.0, 0.0)" width="24.9" xlink:href="#shape0"/>
  </g>
  <defs>
    <g id="shape0" transform="matrix(1.0, 0.0, 0.0, 1.0, 0.0, 0.0)">
      <path d="M5.9 36.1 Q8.8 42.1 16.95 50.15 L24.55 56.95 24.9 60.65 Q24.45 64.25 20.15 63.55 16.4 59.85 12.1 54.65 3.55 44.3 0.95 36.9 -1.6 29.55 2.85 16.85 5.05 10.5 7.8 5.65 L14.95 7.85 Q11.55 12.5 8.7 18.4 3.0 30.1 5.9 36.1" fill="#895d60" fill-rule="evenodd" stroke="none"/>
      <path d="M2.6 33.7 Q3.95 40.4 10.5 48.9 13.3 52.55 18.7 58.15 L23.9 62.8 Q22.65 63.95 20.15 63.55 16.4 59.85 12.1 54.65 3.55 44.3 0.95 36.9 -1.45 30.0 2.3 18.4 4.4 12.05 7.6 6.05 L9.4 8.55 Q7.2 12.2 5.2 17.2 1.3 27.15 2.6 33.7" fill="#794f53" fill-rule="evenodd" stroke="none"/>
      <path d="M9.45 9.1 Q7.4 8.4 6.6 7.2 5.65 5.9 6.0 3.8 6.4 1.4 6.85 0.9 L8.55 0.5 13.25 0.85 Q16.5 1.55 16.75 3.35 17.1 5.9 15.8 7.9 13.95 10.8 9.45 9.1" fill="#6d484c" fill-rule="evenodd" stroke="none"/>
      <path d="M12.85 0.5 Q16.1 1.4 16.6 2.5 17.15 3.65 16.25 4.35 15.0 5.3 11.45 4.75 7.9 4.25 6.9 2.6 6.05 1.3 7.05 0.7 L12.85 0.5" fill="#895d60" fill-rule="evenodd" stroke="none"/>
      <path d="M11.95 0.8 Q16.45 2.05 15.65 3.45 14.85 4.85 10.55 3.5 6.7 2.25 8.15 1.2 9.55 0.15 11.95 0.8" fill="#4a3939" fill-rule="evenodd" stroke="none"/>
    </g>
  </defs>
</svg>
