<?xml version="1.0" encoding="UTF-8" standalone="no"?>
<svg xmlns:xlink="http://www.w3.org/1999/xlink" height="45.5px" width="34.15px" xmlns="http://www.w3.org/2000/svg">
  <g transform="matrix(1.0, 0.0, 0.0, 1.0, 0.0, 0.0)">
    <use height="4.9" transform="matrix(0.75, 0.0, 0.0, 0.75, 9.25, 41.8)" width="20.3" xlink:href="#sprite0"/>
    <use height="4.35" transform="matrix(0.75, 0.0, 0.0, 0.75, 9.35, 41.8)" width="20.05" xlink:href="#sprite1"/>
    <use height="8.5" transform="matrix(0.75, 0.0, 0.0, 0.75, 9.35, 38.15)" width="20.1" xlink:href="#sprite2"/>
    <use height="7.7" transform="matrix(0.75, 0.0, 0.0, 0.75, 9.35, 38.75)" width="20.1" xlink:href="#sprite3"/>
    <use height="41.15" transform="matrix(0.75, 0.0, 0.0, 0.75, 8.55, 10.55)" width="22.75" xlink:href="#sprite4"/>
    <use height="25.65" transform="matrix(1.0, 0.0, 0.0, 1.0, 9.0, 15.75)" width="16.2" xlink:href="#shape5"/>
    <use height="5.8" transform="matrix(0.75, 0.0, 0.0, 0.75, 8.6, 8.55)" width="22.4" xlink:href="#sprite5"/>
    <use height="32.35" transform="matrix(1.0, 0.0, 0.0, 1.0, 9.05, 11.9)" width="15.95" xlink:href="#shape7"/>
    <use height="29.7" transform="matrix(0.75, 0.0, 0.0, 0.75, 10.1, 11.5)" width="7.5" xlink:href="#sprite6"/>
    <use height="25.7" transform="matrix(0.75, 0.0, 0.0, 0.75, 20.2625, 11.85)" width="4.85" xlink:href="#sprite7"/>
    <use height="33.05" transform="matrix(1.0, 0.0, 0.0, 1.0, 8.55, 8.55)" width="17.05" xlink:href="#shape10"/>
  </g>
  <defs>
    <g id="sprite0" transform="matrix(1.0, 0.0, 0.0, 1.0, 0.0, 0.0)">
      <use height="4.9" transform="matrix(1.0, 0.0, 0.0, 1.0, 0.0, 0.0)" width="20.3" xlink:href="#shape0"/>
    </g>
    <g id="shape0" transform="matrix(1.0, 0.0, 0.0, 1.0, 0.05, 0.0)">
      <path d="M18.6 1.35 L20.1 0.0 Q20.35 0.4 20.15 1.2 L18.9 2.4 Q17.0 3.7 14.05 4.5 L11.9 4.85 11.9 4.9 8.3 4.9 8.3 4.85 6.15 4.5 Q3.2 3.7 1.3 2.4 L0.05 1.2 Q-0.15 0.55 0.1 0.05 1.7 2.1 6.15 3.25 L8.3 3.6 8.3 3.65 11.9 3.65 11.9 3.6 14.05 3.25 Q16.8 2.55 18.6 1.35" fill="#5e473c" fill-rule="evenodd" stroke="none"/>
    </g>
    <g id="sprite1" transform="matrix(1.0, 0.0, 0.0, 1.0, 0.0, 0.0)">
      <use height="4.35" transform="matrix(1.0, 0.0, 0.0, 1.0, 0.0, 0.0)" width="20.05" xlink:href="#shape1"/>
    </g>
    <g id="shape1" transform="matrix(1.0, 0.0, 0.0, 1.0, 0.0, 0.0)">
      <path d="M14.0 3.25 Q18.2 2.2 20.05 0.05 L20.05 0.35 19.25 1.4 Q15.9 4.2 10.35 4.35 6.05 4.5 2.6 2.55 0.9 1.6 0.0 0.6 L0.0 0.0 1.5 1.35 Q3.35 2.55 6.1 3.25 L8.2 3.6 8.2 3.65 11.85 3.65 11.85 3.6 14.0 3.25" fill="#ffffff" fill-rule="evenodd" stroke="none"/>
    </g>
    <g id="sprite2" transform="matrix(1.0, 0.0, 0.0, 1.0, 0.0, 0.0)">
      <use height="8.5" transform="matrix(1.0, 0.0, 0.0, 1.0, 0.0, 0.0)" width="20.1" xlink:href="#shape2"/>
    </g>
    <g id="shape2" transform="matrix(1.0, 0.0, 0.0, 1.0, 0.0, 0.0)">
      <path d="M18.7 3.55 L20.1 4.8 18.85 6.0 Q16.95 7.3 14.0 8.1 L11.85 8.45 11.85 8.5 8.25 8.5 8.25 8.45 6.1 8.1 Q3.15 7.3 1.25 6.0 L0.0 4.8 1.4 3.55 Q2.5 2.7 7.45 0.6 L10.1 0.0 12.65 0.6 15.25 1.75 Q18.0 3.0 18.7 3.55" fill="url(#gradient0)" fill-rule="evenodd" stroke="none"/>
    </g>
    <linearGradient gradientTransform="matrix(0.0, 0.0051, 0.0051, 0.0, 10.05, 4.4)" gradientUnits="userSpaceOnUse" id="gradient0" spreadMethod="pad" x1="-819.2" x2="819.2">
      <stop offset="0.0" stop-color="#7a7a7a"/>
      <stop offset="1.0" stop-color="#ffffff"/>
    </linearGradient>
    <g id="sprite3" transform="matrix(1.0, 0.0, 0.0, 1.0, 0.0, 0.0)">
      <use height="7.5" transform="matrix(1.0203, 0.0, 0.0, 1.0267, 0.0, 0.0)" width="19.7" xlink:href="#shape3"/>
    </g>
    <g id="shape3" transform="matrix(1.0, 0.0, 0.0, 1.0, 0.0, 0.0)">
      <path d="M18.3 2.65 L19.7 3.9 18.45 5.05 Q16.6 6.35 13.7 7.1 L11.6 7.45 11.6 7.5 8.05 7.5 8.05 7.45 5.95 7.1 Q3.1 6.35 1.25 5.05 L0.0 3.9 1.4 2.65 Q2.45 1.9 6.7 0.0 L4.15 1.9 Q3.55 2.4 3.45 2.85 3.4 3.3 3.85 4.0 4.7 5.25 5.7 5.7 L8.95 6.35 13.7 5.9 Q16.15 5.25 17.25 4.15 18.15 3.25 17.3 2.1 L18.3 2.65" fill="#e3e3e3" fill-rule="evenodd" stroke="none"/>
    </g>
    <g id="sprite4" transform="matrix(1.0, 0.0, 0.0, 1.0, 0.0, 0.0)">
      <use height="41.15" transform="matrix(1.0, 0.0, 0.0, 1.0, 0.0, 0.0)" width="22.75" xlink:href="#shape4"/>
    </g>
    <g id="shape4" transform="matrix(1.0, 0.0, 0.0, 1.0, 0.0, 0.0)">
      <path d="M22.5 0.0 Q22.9 5.4 22.6 11.75 22.05 24.5 18.75 29.35 16.0 33.4 15.15 37.15 14.7 39.05 14.8 40.1 L14.4 40.6 Q13.55 41.15 11.4 41.1 L11.4 41.15 11.3 41.15 11.3 41.1 Q9.2 41.15 8.35 40.6 L7.9 40.1 Q8.0 39.05 7.6 37.15 6.7 33.4 3.95 29.35 0.85 24.85 0.2 13.35 -0.2 7.3 0.15 0.45 0.45 1.6 3.65 2.35 L11.3 3.15 19.25 2.3 Q22.5 1.45 22.5 0.25 L22.45 0.0 22.5 0.0" fill="#ffffff" fill-rule="evenodd" stroke="none"/>
    </g>
    <g id="shape5" transform="matrix(1.0, 0.0, 0.0, 1.0, -9.0, -15.75)">
      <path d="M25.05 15.75 Q25.3 18.4 25.1 21.7 24.7 28.9 22.35 32.55 20.4 35.6 19.75 38.4 19.45 39.85 19.55 40.6 L19.25 41.0 17.15 41.35 17.15 41.4 17.05 41.4 17.05 41.35 14.95 41.0 14.65 40.6 Q14.75 39.85 14.45 38.4 13.85 35.6 11.9 32.55 8.5 27.3 9.1 16.05 9.4 17.55 17.1 17.55 L22.75 16.95 Q24.7 16.45 25.05 15.75" fill="url(#gradient1)" fill-rule="evenodd" stroke="none"/>
    </g>
    <radialGradient cx="0" cy="0" gradientTransform="matrix(-3.0E-4, 0.0208, 0.0108, 2.0E-4, 14.55, 25.05)" gradientUnits="userSpaceOnUse" id="gradient1" r="819.2" spreadMethod="pad">
      <stop offset="0.0" stop-color="#ffb545"/>
      <stop offset="1.0" stop-color="#cc6d00"/>
    </radialGradient>
    <g id="sprite5" transform="matrix(1.0, 0.0, 0.0, 1.0, 0.0, 0.0)">
      <use height="5.75" transform="matrix(1.0022, 0.0, 0.0, 1.0087, 0.0, 0.0)" width="22.35" xlink:href="#shape6"/>
    </g>
    <g id="shape6" transform="matrix(1.0, 0.0, 0.0, 1.0, 0.0, 0.0)">
      <path d="M22.35 2.9 Q22.35 4.1 19.1 4.95 L11.2 5.75 Q6.55 5.75 3.3 4.95 0.0 4.1 0.0 2.9 0.0 1.7 3.3 0.85 6.55 0.0 11.2 0.0 15.8 0.0 19.1 0.85 22.35 1.7 22.35 2.9" fill="#ffffff" fill-rule="evenodd" stroke="none"/>
    </g>
    <g id="shape7" transform="matrix(1.0, 0.0, 0.0, 1.0, -9.05, -11.9)">
      <path d="M24.65 14.95 Q25.4 15.35 24.6 16.35 23.75 17.5 21.6 18.35 19.75 19.1 16.45 19.15 13.15 19.2 11.2 18.55 9.8 18.1 9.3 17.25 9.05 16.8 9.05 16.05 9.05 15.7 9.85 15.6 L11.2 15.35 17.5 14.85 Q23.85 14.5 24.65 14.95" fill="#ffd396" fill-rule="evenodd" stroke="none"/>
      <path d="M11.05 18.2 Q9.95 17.95 9.4 16.95 8.8 15.95 9.45 15.25 10.6 14.15 13.9 13.9 L17.05 13.45 Q19.15 13.25 20.8 13.45 24.95 13.95 25.0 15.4 25.05 16.7 21.55 18.0 17.0 19.65 11.05 18.2" fill="url(#gradient2)" fill-rule="evenodd" stroke="none"/>
      <path d="M11.45 13.65 L14.7 16.0 Q17.35 18.35 14.5 18.25 11.5 18.15 10.3 16.9 9.45 16.0 9.75 14.9 10.05 13.8 11.45 13.65" fill="#f5cc91" fill-rule="evenodd" stroke="none"/>
      <path d="M11.45 13.65 Q14.1 12.55 17.05 12.5 L21.8 13.0 Q23.85 13.45 23.55 14.8 23.25 16.15 21.15 17.45 19.3 18.55 15.95 18.4 12.95 18.25 11.6 17.45 9.85 16.4 10.0 15.25 10.15 14.2 11.45 13.65" fill="url(#gradient3)" fill-rule="evenodd" stroke="none"/>
      <path d="M13.5 12.25 L14.55 14.1 Q15.35 15.9 13.9 15.9 12.4 15.9 11.6 15.15 10.95 14.55 11.05 13.75 11.2 13.15 12.35 12.65 L13.5 12.25" fill="#f5cc91" fill-rule="evenodd" stroke="none"/>
      <path d="M13.6 12.35 L17.25 11.9 19.6 12.4 Q21.1 12.85 19.7 14.2 18.3 15.65 16.05 15.9 14.05 16.15 13.2 15.9 12.55 15.7 11.65 14.65 10.95 13.8 11.75 13.15 12.4 12.6 13.6 12.35" fill="url(#gradient4)" fill-rule="evenodd" stroke="none"/>
      <path d="M11.65 40.75 L11.85 41.75 12.6 42.7 13.4 43.55 Q13.45 43.85 12.4 43.55 11.35 43.25 10.6 42.7 L9.75 41.95 Q9.6 41.65 10.65 41.0 11.65 40.35 11.65 40.75" fill="#e3e3e3" fill-rule="evenodd" stroke="none"/>
      <path d="M20.2 43.45 Q21.75 43.3 21.25 43.7 20.8 44.1 19.85 44.2 19.05 44.35 19.45 43.9 19.75 43.45 20.2 43.45" fill="#e3e3e3" fill-rule="evenodd" stroke="none"/>
    </g>
    <linearGradient gradientTransform="matrix(0.0097, 0.0, 0.0, -0.0097, 17.05, 16.1)" gradientUnits="userSpaceOnUse" id="gradient2" spreadMethod="pad" x1="-819.2" x2="819.2">
      <stop offset="0.0" stop-color="#ffb545"/>
      <stop offset="1.0" stop-color="#db8827"/>
    </linearGradient>
    <linearGradient gradientTransform="matrix(0.0083, 0.0, 0.0, -0.0083, 16.8, 15.45)" gradientUnits="userSpaceOnUse" id="gradient3" spreadMethod="pad" x1="-819.2" x2="819.2">
      <stop offset="0.0" stop-color="#ffb545"/>
      <stop offset="1.0" stop-color="#cc6d00"/>
    </linearGradient>
    <linearGradient gradientTransform="matrix(0.0055, 0.0, 0.0, -0.0055, 15.8, 13.95)" gradientUnits="userSpaceOnUse" id="gradient4" spreadMethod="pad" x1="-819.2" x2="819.2">
      <stop offset="0.0" stop-color="#ffb545"/>
      <stop offset="1.0" stop-color="#cc6d00"/>
    </linearGradient>
    <g id="sprite6" transform="matrix(1.0, 0.0, 0.0, 1.0, 0.0, 0.0)">
      <use height="29.7" transform="matrix(1.0, 0.0, 0.0, 1.0, 0.0, 0.0)" width="7.5" xlink:href="#shape8"/>
    </g>
    <g id="shape8" transform="matrix(1.0, 0.0, 0.0, 1.0, 0.0, 0.0)">
      <path d="M0.1 0.0 L4.45 1.5 Q7.1 17.5 7.45 25.25 7.7 30.1 6.3 29.65 L4.85 28.25 3.85 26.75 Q2.9 25.3 1.9 22.35 0.7 18.6 0.35 14.75 0.0 10.9 0.0 5.5 L0.1 0.0" fill="url(#gradient5)" fill-rule="evenodd" stroke="none"/>
    </g>
    <linearGradient gradientTransform="matrix(0.004, 0.0, 0.0, -0.004, 1.3, 14.85)" gradientUnits="userSpaceOnUse" id="gradient5" spreadMethod="pad" x1="-819.2" x2="819.2">
      <stop offset="0.0" stop-color="#ffffff"/>
      <stop offset="1.0" stop-color="#000000"/>
    </linearGradient>
    <g id="sprite7" transform="matrix(1.0, 0.0, 0.0, 1.0, 0.25, 0.0)">
      <use height="25.7" transform="matrix(1.0, 0.0, 0.0, 1.0, -0.25, 0.0)" width="4.85" xlink:href="#shape9"/>
    </g>
    <g id="shape9" transform="matrix(1.0, 0.0, 0.0, 1.0, 0.25, 0.0)">
      <path d="M2.05 0.5 L4.3 0.0 4.55 6.4 Q4.85 15.4 3.05 20.65 2.05 23.6 0.6 25.1 -0.95 26.7 0.4 24.15 2.3 20.5 2.3 15.9 L2.05 0.5" fill="url(#gradient6)" fill-rule="evenodd" stroke="none"/>
    </g>
    <linearGradient gradientTransform="matrix(0.0, 0.0115, 0.0115, 0.0, 2.3, 10.85)" gradientUnits="userSpaceOnUse" id="gradient6" spreadMethod="pad" x1="-819.2" x2="819.2">
      <stop offset="0.0" stop-color="#ffffff"/>
      <stop offset="1.0" stop-color="#000000"/>
    </linearGradient>
    <g id="shape10" transform="matrix(1.0, 0.0, 0.0, 1.0, -8.55, -8.55)">
      <path d="M17.05 8.55 L23.0 9.2 Q25.45 9.85 25.45 10.75 25.45 11.65 23.0 12.25 L17.05 12.9 11.1 12.25 Q8.65 11.65 8.65 10.75 8.65 9.85 11.1 9.2 L17.05 8.55 M17.1 12.3 L22.5 11.8 Q24.7 11.35 24.7 10.6 24.7 9.95 22.5 9.45 L17.1 8.95 11.75 9.45 Q9.55 9.95 9.55 10.6 9.55 11.35 11.75 11.8 L17.1 12.3" fill="#c9c9c9" fill-rule="evenodd" stroke="none"/>
      <path d="M12.25 13.65 L12.9 13.75 13.0 14.3 Q13.0 14.8 14.45 14.6 13.6 15.2 12.6 14.9 11.95 14.7 11.95 14.2 11.85 13.7 12.25 13.65" fill="#f5cc91" fill-rule="evenodd" stroke="none"/>
      <path d="M11.45 15.6 Q13.6 17.15 15.25 17.15 L13.0 17.3 Q11.75 17.2 11.25 16.75 L10.8 16.0 Q10.65 15.6 10.85 15.45 11.05 15.35 11.45 15.6" fill="#f5cc91" fill-rule="evenodd" stroke="none"/>
      <path d="M20.95 14.5 Q21.7 14.5 21.4 14.95 21.1 15.35 20.65 15.25 20.25 15.25 20.4 14.85 20.55 14.5 20.95 14.5" fill="#f29e2b" fill-rule="evenodd" stroke="none"/>
      <path d="M23.8 15.25 Q24.9 15.25 24.55 15.7 24.25 16.15 23.7 16.2 23.35 16.3 23.4 15.75 23.5 15.25 23.8 15.25" fill="#f29e2b" fill-rule="evenodd" stroke="none"/>
      <path d="M19.7 15.55 Q20.4 15.3 20.45 15.8 20.5 16.3 19.9 16.3 19.45 16.3 19.45 15.95 L19.7 15.55" fill="#f29e2b" fill-rule="evenodd" stroke="none"/>
      <path d="M25.05 11.2 Q24.25 12.0 21.9 12.45 L17.05 12.9 Q12.7 12.9 10.2 11.95 L9.0 11.25 Q8.75 16.45 9.1 21.35 9.7 29.2 11.8 32.4 13.8 35.45 14.45 38.3 L14.7 40.6 15.15 41.0 16.9 41.2 17.15 41.2 18.9 41.0 19.4 40.6 Q19.2 40.1 19.6 38.3 20.25 35.5 22.3 32.4 24.4 29.2 24.95 21.25 25.3 16.55 25.05 11.2 M24.9 10.15 L25.3 10.2 25.35 10.35 Q25.75 13.6 25.45 19.55 25.0 28.95 22.6 32.6 20.65 35.55 20.0 38.35 19.65 39.8 19.75 40.6 19.75 41.55 17.15 41.55 L17.05 41.55 17.05 41.6 16.9 41.55 Q15.35 41.55 14.7 41.15 L14.35 40.6 Q14.4 39.8 14.05 38.35 13.45 35.55 11.5 32.6 9.25 29.2 8.7 20.65 8.4 15.75 8.65 10.7 L9.05 10.65 Q9.25 11.35 11.35 11.95 L17.05 12.55 22.75 11.9 Q25.0 11.3 25.0 10.55 L24.9 10.15" fill="#c9c9c9" fill-rule="evenodd" stroke="none"/>
    </g>
  </defs>
</svg>
