<?xml version="1.0" encoding="UTF-8" standalone="no"?>
<svg xmlns:xlink="http://www.w3.org/1999/xlink" height="32.15px" width="86.35px" xmlns="http://www.w3.org/2000/svg">
  <g transform="matrix(1.0, 0.0, 0.0, 1.0, 0.0, 0.0)">
    <use height="32.15" transform="matrix(1.0, 0.0, 0.0, 1.0, 0.0, 0.0)" width="86.35" xlink:href="#shape0"/>
  </g>
  <defs>
    <g id="shape0" transform="matrix(1.0, 0.0, 0.0, 1.0, 0.0, 0.0)">
      <path d="M73.35 24.4 Q74.25 25.75 71.95 27.95 69.55 30.25 65.85 31.25 62.1 32.3 59.4 32.1 56.65 31.9 56.0 30.5 55.3 29.05 57.7 27.05 60.05 25.05 63.7 24.05 71.75 21.8 73.35 24.4" fill="#809da1" fill-rule="evenodd" stroke="none"/>
      <path d="M47.6 29.85 Q46.05 30.65 43.4 30.65 L36.75 30.2 Q32.25 29.75 29.1 28.3 25.7 26.7 25.95 24.8 26.2 22.85 29.45 21.75 32.85 20.5 37.85 20.95 40.45 21.2 42.8 22.25 45.25 23.3 46.65 24.9 48.0 26.4 48.2 27.9 48.4 29.25 47.6 29.85" fill="#97b3ab" fill-rule="evenodd" stroke="none"/>
      <path d="M1.3 12.85 Q2.9 11.55 5.4 10.9 L9.9 10.55 Q11.85 10.85 12.1 11.85 12.35 12.85 10.75 14.0 9.2 15.15 6.7 15.8 L2.35 16.3 Q0.45 16.1 0.1 15.1 -0.3 14.1 1.3 12.85" fill="#809da1" fill-rule="evenodd" stroke="none"/>
      <path d="M29.95 15.3 Q30.25 16.15 28.65 17.0 27.0 17.85 24.8 17.8 22.6 17.75 21.05 17.0 19.55 16.3 19.65 15.4 19.7 14.55 21.25 14.0 L24.85 13.6 Q29.45 13.7 29.95 15.3" fill="#86abae" fill-rule="evenodd" stroke="none"/>
      <path d="M56.45 18.8 L56.0 19.45 Q55.45 19.85 54.65 19.9 52.8 20.1 52.65 19.45 52.55 19.15 53.1 18.8 53.65 18.4 54.45 18.35 56.2 18.2 56.45 18.8" fill="#86abae" fill-rule="evenodd" stroke="none"/>
      <path d="M26.0 3.0 Q25.65 5.0 20.2 5.15 L16.1 4.6 Q14.35 4.0 14.3 3.0 14.25 2.0 15.95 1.25 17.65 0.45 20.1 0.35 22.55 0.3 24.45 1.15 26.25 2.05 26.0 3.0" fill="#86abae" fill-rule="evenodd" stroke="none"/>
      <path d="M47.9 2.65 Q47.85 3.15 46.95 3.35 L44.7 3.4 Q43.45 3.05 42.7 2.5 41.95 1.95 42.1 1.45 42.3 1.0 43.2 0.9 L45.2 1.05 Q46.35 1.2 47.1 1.65 47.9 2.15 47.9 2.65" fill="#809da1" fill-rule="evenodd" stroke="none"/>
      <path d="M70.8 0.95 Q71.65 2.1 69.7 4.15 67.65 6.35 64.25 7.3 L58.0 7.5 Q55.3 6.8 55.4 5.35 55.55 2.95 62.45 0.95 69.4 -0.95 70.8 0.95" fill="#86abae" fill-rule="evenodd" stroke="none"/>
      <path d="M86.35 5.95 Q86.45 6.4 85.7 6.9 L83.8 7.55 81.9 7.75 Q81.0 7.6 80.85 7.15 80.7 6.7 81.45 6.15 82.15 5.6 83.35 5.3 84.55 5.1 85.4 5.3 86.3 5.45 86.35 5.95" fill="#86abae" fill-rule="evenodd" stroke="none"/>
      <path d="M49.8 11.0 Q49.75 12.55 46.75 13.3 43.7 14.05 39.95 13.3 36.15 12.55 33.9 11.3 31.5 9.95 31.45 8.35 31.45 6.75 34.45 5.95 37.55 5.15 41.35 5.9 45.1 6.6 47.45 8.0 49.85 9.45 49.8 11.0" fill="#86abae" fill-rule="evenodd" stroke="none"/>
      <path d="M24.7 28.5 Q24.6 29.3 23.05 29.6 L19.5 29.3 Q17.55 28.75 16.35 27.65 15.15 26.6 15.5 25.85 15.85 25.1 17.3 25.05 L20.55 25.55 Q22.45 26.1 23.6 26.9 24.8 27.7 24.7 28.5" fill="#809da1" fill-rule="evenodd" stroke="none"/>
      <path d="M13.75 30.4 L13.05 31.1 11.55 31.35 Q9.5 31.6 9.25 30.75 9.15 30.4 9.8 30.05 10.45 29.65 11.4 29.5 L13.1 29.75 Q13.8 30.05 13.75 30.4" fill="#86abae" fill-rule="evenodd" stroke="none"/>
      <path d="M77.15 18.1 Q76.7 19.8 71.3 20.15 68.75 20.3 67.5 20.1 65.85 19.9 65.35 19.05 64.75 18.1 66.5 16.8 68.35 15.4 71.0 15.25 73.65 15.1 75.6 16.15 77.45 17.1 77.15 18.1" fill="#86abae" fill-rule="evenodd" stroke="none"/>
    </g>
  </defs>
</svg>
