<?xml version="1.0" encoding="UTF-8" standalone="no"?>
<svg xmlns:xlink="http://www.w3.org/1999/xlink" height="82.0px" width="500.0px" xmlns="http://www.w3.org/2000/svg">
  <g transform="matrix(1.0, 0.0, 0.0, 1.0, 0.0, 0.0)">
    <use height="82.0" transform="matrix(1.0, 0.0, 0.0, 1.0, 0.0, 0.0)" width="500.0" xlink:href="#shape0"/>
  </g>
  <defs>
    <g id="shape0" transform="matrix(1.0, 0.0, 0.0, 1.0, 0.0, 0.0)">
      <path d="M500.0 12.0 L500.0 82.0 0.0 82.0 0.0 42.0 Q21.65 42.0 71.15 35.8 L172.65 21.9 Q242.05 12.3 285.35 7.6 347.7 0.85 390.1 0.0 409.15 -0.35 446.2 5.75 484.25 12.0 500.0 12.0" fill="#b3ab64" fill-rule="evenodd" stroke="none"/>
      <path d="M45.45 71.95 L41.9 67.0 38.0 71.8 41.9 64.45 45.45 71.95" fill="#a49a48" fill-rule="evenodd" stroke="none"/>
      <path d="M75.35 59.8 L71.05 53.85 66.4 59.6 71.05 50.75 75.35 59.8" fill="#a49a48" fill-rule="evenodd" stroke="none"/>
      <path d="M106.2 63.2 L102.8 58.5 99.15 63.05 102.8 56.1 106.2 63.2" fill="#a49a48" fill-rule="evenodd" stroke="none"/>
      <path d="M138.6 65.05 L134.9 59.9 130.85 64.9 134.9 57.2 138.6 65.05" fill="#a49a48" fill-rule="evenodd" stroke="none"/>
      <path d="M158.75 50.05 L154.4 55.45 158.75 47.15 162.75 55.6 158.75 50.05" fill="#a49a48" fill-rule="evenodd" stroke="none"/>
      <path d="M196.7 63.95 L194.35 60.65 191.75 63.85 194.35 58.95 196.7 63.95" fill="#a49a48" fill-rule="evenodd" stroke="none"/>
      <path d="M229.4 55.6 L225.45 50.1 221.2 55.4 225.45 47.25 229.4 55.6" fill="#a49a48" fill-rule="evenodd" stroke="none"/>
      <path d="M256.05 68.35 L252.2 63.0 248.05 68.15 252.2 60.3 256.05 68.35" fill="#a49a48" fill-rule="evenodd" stroke="none"/>
      <path d="M277.75 60.85 L273.4 54.8 268.65 60.65 273.4 51.65 277.75 60.85" fill="#a49a48" fill-rule="evenodd" stroke="none"/>
      <path d="M319.45 61.0 L316.05 56.25 312.35 60.85 316.05 53.8 319.45 61.0" fill="#a49a48" fill-rule="evenodd" stroke="none"/>
      <path d="M351.85 71.2 L347.6 65.25 342.95 71.0 347.6 62.2 351.85 71.2" fill="#a49a48" fill-rule="evenodd" stroke="none"/>
      <path d="M381.9 75.1 L379.5 71.7 376.8 75.0 379.5 69.95 381.9 75.1" fill="#a49a48" fill-rule="evenodd" stroke="none"/>
      <path d="M404.5 62.7 L402.25 59.6 399.85 62.6 402.25 58.05 404.5 62.7" fill="#a49a48" fill-rule="evenodd" stroke="none"/>
      <path d="M437.4 66.3 L432.95 60.05 428.05 66.1 432.95 56.85 437.4 66.3" fill="#a49a48" fill-rule="evenodd" stroke="none"/>
      <path d="M470.45 58.05 L465.8 51.55 460.75 57.85 465.8 48.2 470.45 58.05" fill="#a49a48" fill-rule="evenodd" stroke="none"/>
      <path d="M495.55 71.1 L491.6 65.65 487.3 70.95 491.6 62.8 495.55 71.1" fill="#a49a48" fill-rule="evenodd" stroke="none"/>
      <path d="M226.9 75.5 L222.45 69.3 217.6 75.3 222.45 66.1 226.9 75.5" fill="#a49a48" fill-rule="evenodd" stroke="none"/>
      <path d="M455.8 75.75 L453.25 72.2 450.45 75.6 453.25 70.35 455.8 75.75" fill="#a49a48" fill-rule="evenodd" stroke="none"/>
      <path d="M168.75 74.35 L164.4 68.3 159.7 74.15 164.4 65.15 168.75 74.35" fill="#a49a48" fill-rule="evenodd" stroke="none"/>
      <path d="M496.9 42.0 L494.45 38.6 491.8 41.9 494.45 36.85 496.9 42.0" fill="#a49a48" fill-rule="evenodd" stroke="none"/>
      <path d="M467.2 37.25 L465.0 34.2 462.65 37.2 465.0 32.65 467.2 37.25" fill="#a49a48" fill-rule="evenodd" stroke="none"/>
      <path d="M437.65 46.55 L433.85 41.25 429.7 46.35 433.85 38.55 437.65 46.55" fill="#a49a48" fill-rule="evenodd" stroke="none"/>
      <path d="M400.15 42.8 L396.3 37.45 392.1 42.65 396.3 34.7 400.15 42.8" fill="#a49a48" fill-rule="evenodd" stroke="none"/>
      <path d="M370.65 44.1 L367.75 40.05 364.6 43.95 367.75 38.0 370.65 44.1" fill="#a49a48" fill-rule="evenodd" stroke="none"/>
      <path d="M346.65 49.75 L344.45 46.65 342.05 49.65 344.45 45.1 346.65 49.75" fill="#a49a48" fill-rule="evenodd" stroke="none"/>
      <path d="M323.55 39.35 L321.25 36.15 318.75 39.25 321.25 34.55 323.55 39.35" fill="#a49a48" fill-rule="evenodd" stroke="none"/>
      <path d="M294.1 49.3 L291.25 45.3 288.15 49.15 291.25 43.25 294.1 49.3" fill="#a49a48" fill-rule="evenodd" stroke="none"/>
      <path d="M262.1 38.6 L259.45 34.9 256.55 38.45 259.45 33.0 262.1 38.6" fill="#a49a48" fill-rule="evenodd" stroke="none"/>
      <path d="M147.1 78.55 L144.5 74.9 141.6 78.45 144.5 73.0 147.1 78.55" fill="#a49a48" fill-rule="evenodd" stroke="none"/>
      <path d="M233.2 35.9 L229.05 30.1 224.55 35.75 229.05 27.15 233.2 35.9" fill="#a49a48" fill-rule="evenodd" stroke="none"/>
      <path d="M199.15 40.4 L194.4 46.3 199.15 37.25 203.55 46.5 199.15 40.4" fill="#a49a48" fill-rule="evenodd" stroke="none"/>
      <path d="M178.55 44.35 L174.75 39.05 170.6 44.2 174.75 36.35 178.55 44.35" fill="#a49a48" fill-rule="evenodd" stroke="none"/>
      <path d="M144.95 41.95 L142.1 37.95 139.0 41.8 142.1 35.95 144.95 41.95" fill="#a49a48" fill-rule="evenodd" stroke="none"/>
      <path d="M415.3 80.45 L412.5 76.5 409.4 80.3 412.5 74.45 415.3 80.45" fill="#a49a48" fill-rule="evenodd" stroke="none"/>
      <path d="M119.45 44.0 L115.5 38.5 111.2 43.8 115.5 35.65 119.45 44.0" fill="#a49a48" fill-rule="evenodd" stroke="none"/>
      <path d="M88.5 44.8 L86.0 41.3 83.25 44.65 86.0 39.5 88.5 44.8" fill="#a49a48" fill-rule="evenodd" stroke="none"/>
      <path d="M13.15 49.6 L10.65 46.1 7.9 49.5 10.65 44.3 13.15 49.6" fill="#a49a48" fill-rule="evenodd" stroke="none"/>
      <path d="M31.05 78.85 L26.5 72.5 21.5 78.65 26.5 69.2 31.05 78.85" fill="#a49a48" fill-rule="evenodd" stroke="none"/>
      <path d="M36.45 56.05 L33.0 51.2 29.2 55.9 33.0 48.7 36.45 56.05" fill="#a49a48" fill-rule="evenodd" stroke="none"/>
      <path d="M55.5 51.6 L51.5 46.0 47.1 51.4 51.5 43.1 55.5 51.6" fill="#a49a48" fill-rule="evenodd" stroke="none"/>
      <path d="M68.75 78.1 L64.0 71.5 58.8 77.9 64.0 68.05 68.75 78.1" fill="#a49a48" fill-rule="evenodd" stroke="none"/>
      <path d="M156.65 31.7 L154.0 28.0 151.1 31.55 154.0 26.05 156.65 31.7" fill="#a49a48" fill-rule="evenodd" stroke="none"/>
      <path d="M193.5 29.3 L191.25 26.15 188.85 29.2 191.25 24.55 193.5 29.3" fill="#a49a48" fill-rule="evenodd" stroke="none"/>
      <path d="M12.2 75.6 L10.0 72.5 7.55 75.5 10.0 70.9 12.2 75.6" fill="#a49a48" fill-rule="evenodd" stroke="none"/>
      <path d="M187.85 79.15 L184.5 74.4 180.8 79.0 184.5 72.0 187.85 79.15" fill="#a49a48" fill-rule="evenodd" stroke="none"/>
      <path d="M255.7 26.45 L251.6 20.7 247.1 26.25 251.6 17.75 255.7 26.45" fill="#a49a48" fill-rule="evenodd" stroke="none"/>
      <path d="M287.85 28.3 L284.9 24.2 281.65 28.2 284.9 22.05 287.85 28.3" fill="#a49a48" fill-rule="evenodd" stroke="none"/>
      <path d="M314.6 27.85 L310.5 22.15 306.05 27.65 310.5 19.2 314.6 27.85" fill="#a49a48" fill-rule="evenodd" stroke="none"/>
      <path d="M346.65 26.05 L344.2 22.6 341.5 25.95 344.2 20.85 346.65 26.05" fill="#a49a48" fill-rule="evenodd" stroke="none"/>
      <path d="M379.25 19.6 L375.35 14.15 371.05 19.45 375.35 11.35 379.25 19.6" fill="#a49a48" fill-rule="evenodd" stroke="none"/>
      <path d="M403.25 20.65 L398.5 26.5 403.25 17.5 407.6 26.7 403.25 20.65" fill="#a49a48" fill-rule="evenodd" stroke="none"/>
      <path d="M430.55 29.9 L427.8 26.0 424.75 29.8 427.8 24.0 430.55 29.9" fill="#a49a48" fill-rule="evenodd" stroke="none"/>
      <path d="M455.55 29.1 L452.75 25.2 449.7 29.0 452.75 23.2 455.55 29.1" fill="#a49a48" fill-rule="evenodd" stroke="none"/>
      <path d="M489.75 28.15 L486.15 23.15 482.25 28.0 486.15 20.6 489.75 28.15" fill="#a49a48" fill-rule="evenodd" stroke="none"/>
      <path d="M362.0 75.5 L358.75 79.5 362.0 73.35 364.95 79.65 362.0 75.5" fill="#a49a48" fill-rule="evenodd" stroke="none"/>
      <path d="M301.5 77.0 L297.4 71.25 292.9 76.8 297.4 68.3 301.5 77.0" fill="#a49a48" fill-rule="evenodd" stroke="none"/>
      <path d="M88.8 73.75 L86.25 70.15 83.45 73.6 86.25 68.35 88.8 73.75" fill="#a49a48" fill-rule="evenodd" stroke="none"/>
      <path d="M478.9 79.45 L475.0 74.0 470.7 79.3 475.0 71.15 478.9 79.45" fill="#a49a48" fill-rule="evenodd" stroke="none"/>
      <path d="M445.0 11.5 L442.15 15.0 445.0 9.6 447.55 15.1 445.0 11.5" fill="#a49a48" fill-rule="evenodd" stroke="none"/>
      <path d="M393.3 8.25 L391.0 5.0 388.45 8.15 391.0 3.3 393.3 8.25" fill="#a49a48" fill-rule="evenodd" stroke="none"/>
      <path d="M328.45 79.25 L324.0 73.0 319.1 79.05 324.0 69.75 328.45 79.25" fill="#a49a48" fill-rule="evenodd" stroke="none"/>
      <path d="M338.5 15.3 L334.0 9.0 329.05 15.1 334.0 5.75 338.5 15.3" fill="#a49a48" fill-rule="evenodd" stroke="none"/>
      <path d="M301.75 19.15 L297.5 13.2 292.85 18.95 297.5 10.1 301.75 19.15" fill="#a49a48" fill-rule="evenodd" stroke="none"/>
      <path d="M241.0 73.5 L236.5 79.05 241.0 70.5 245.1 79.25 241.0 73.5" fill="#a49a48" fill-rule="evenodd" stroke="none"/>
      <path d="M212.75 27.0 L209.5 22.5 205.95 26.85 209.5 20.15 212.75 27.0" fill="#a49a48" fill-rule="evenodd" stroke="none"/>
      <path d="M120.45 77.75 L116.0 71.5 111.1 77.55 116.0 68.25 120.45 77.75" fill="#a49a48" fill-rule="evenodd" stroke="none"/>
    </g>
  </defs>
</svg>
