<?xml version="1.0" encoding="UTF-8" standalone="no"?>
<svg xmlns:xlink="http://www.w3.org/1999/xlink" height="502.1px" width="510.9px" xmlns="http://www.w3.org/2000/svg">
  <g transform="matrix(1.0, 0.0, 0.0, 1.0, 0.0, 0.0)">
    <use height="502.1" transform="matrix(1.0, 0.0, 0.0, 1.0, 0.0, 0.0)" width="510.9" xlink:href="#shape0"/>
  </g>
  <defs>
    <g id="shape0" transform="matrix(1.0, 0.0, 0.0, 1.0, 0.0, 0.0)">
      <path d="M326.85 21.15 Q337.1 31.1 342.75 44.05 348.6 57.45 348.6 72.15 348.6 86.85 342.75 100.25 337.1 113.2 326.85 123.15 316.55 133.15 303.25 138.65 289.45 144.3 274.3 144.3 259.2 144.3 245.4 138.65 232.1 133.15 221.8 123.15 211.55 113.2 205.9 100.25 200.05 86.85 200.05 72.15 200.05 57.45 205.9 44.05 211.5 31.1 221.8 21.15 232.1 11.15 245.4 5.65 259.2 0.0 274.3 0.0 289.4 0.0 303.25 5.65 316.55 11.15 326.85 21.15" fill="url(#gradient0)" fill-rule="evenodd" stroke="none"/>
      <path d="M205.7 18.45 Q231.4 26.7 251.1 42.85 271.55 59.6 282.65 82.5 293.75 105.4 293.6 130.5 293.45 154.7 282.9 177.65 272.35 200.55 252.95 218.6 232.95 237.3 206.3 248.05 179.65 258.85 151.05 259.8 123.4 260.8 97.75 252.55 72.05 244.25 52.35 228.1 31.9 211.35 20.8 188.45 9.7 165.55 9.85 140.5 10.0 116.25 20.6 93.35 31.15 70.45 50.5 52.4 70.5 33.75 97.15 22.95 123.8 12.2 152.4 11.2 180.05 10.2 205.7 18.45" fill="url(#gradient1)" fill-rule="evenodd" stroke="none"/>
      <path d="M355.85 133.5 Q369.9 139.3 380.75 149.9 391.6 160.45 397.6 174.15 403.75 188.35 403.75 203.9 403.75 219.45 397.6 233.65 391.6 247.4 380.75 257.95 369.9 268.55 355.85 274.35 341.25 280.35 325.3 280.35 309.35 280.35 294.8 274.35 280.7 268.55 269.85 257.95 259.0 247.4 253.05 233.65 246.9 219.45 246.9 203.9 246.9 188.35 253.05 174.15 259.0 160.45 269.85 149.9 280.7 139.3 294.8 133.5 309.35 127.5 325.3 127.5 341.25 127.5 355.85 133.5" fill="url(#gradient2)" fill-rule="evenodd" stroke="none"/>
      <path d="M248.35 72.6 Q243.5 82.7 233.75 90.95 213.1 108.35 181.95 110.5 150.75 112.7 127.35 98.45 116.25 91.7 109.7 82.4 102.9 72.75 101.95 61.75 101.0 50.75 106.0 40.25 110.85 30.15 120.6 21.9 141.25 4.5 172.45 2.3 203.6 0.15 227.05 14.4 250.45 28.7 252.45 51.1 253.4 62.1 248.35 72.6" fill="url(#gradient3)" fill-rule="evenodd" stroke="none"/>
      <path d="M195.05 79.65 Q218.45 93.9 220.45 116.35 221.4 127.35 216.35 137.8 211.5 147.9 201.75 156.15 181.1 173.55 149.95 175.75 118.75 177.95 95.35 163.65 71.9 149.4 69.95 126.95 69.0 115.95 74.0 105.5 78.85 95.4 88.6 87.15 109.25 69.75 140.45 67.55 171.6 65.35 195.05 79.65" fill="url(#gradient4)" fill-rule="evenodd" stroke="none"/>
      <path d="M283.0 180.0 Q298.25 189.3 308.85 202.55 319.4 215.75 323.6 230.8 328.0 246.35 324.9 261.65 321.85 277.0 311.85 289.4 302.2 301.35 287.45 309.0 272.7 316.6 255.15 318.7 236.95 320.9 218.35 316.8 199.75 312.7 183.95 303.05 168.65 293.7 158.1 280.5 147.55 267.3 143.35 252.25 138.95 236.65 142.05 221.35 145.15 206.05 155.1 193.65 164.75 181.65 179.5 174.05 194.25 166.4 211.8 164.3 230.0 162.15 248.6 166.25 267.2 170.35 283.0 180.0" fill="url(#gradient5)" fill-rule="evenodd" stroke="none"/>
      <path d="M335.8 71.85 Q351.45 82.9 360.85 97.95 370.55 113.6 372.1 131.3 373.65 149.0 366.75 165.75 360.1 181.95 346.55 195.0 333.0 208.05 314.65 216.0 295.65 224.2 274.15 225.65 252.65 227.1 232.45 221.65 212.95 216.3 197.3 205.25 181.65 194.2 172.25 179.15 162.55 163.5 161.0 145.8 159.45 128.1 166.35 111.35 173.0 95.15 186.55 82.1 200.1 69.05 218.45 61.1 237.45 52.95 258.95 51.45 280.4 50.0 300.6 55.5 320.15 60.8 335.8 71.85" fill="url(#gradient6)" fill-rule="evenodd" stroke="none"/>
      <path d="M209.9 229.7 Q220.35 249.05 222.25 270.8 224.15 292.6 217.15 313.05 210.35 332.85 196.3 348.65 182.25 364.5 163.05 373.95 143.15 383.7 120.6 385.2 98.05 386.7 76.7 379.65 56.1 372.85 39.45 359.1 22.85 345.3 12.75 326.65 2.3 307.3 0.4 285.55 -1.5 263.75 5.5 243.3 12.25 223.5 26.35 207.7 40.4 191.85 59.6 182.4 79.5 172.6 102.05 171.1 124.6 169.6 145.95 176.65 166.55 183.45 183.2 197.25 199.8 211.05 209.9 229.7" fill="url(#gradient7)" fill-rule="evenodd" stroke="none"/>
      <path d="M171.75 112.55 Q186.8 121.7 195.7 134.35 204.95 147.45 206.25 162.4 207.6 177.35 200.75 191.55 194.15 205.3 180.9 216.45 167.65 227.6 149.8 234.5 131.35 241.6 110.55 243.05 89.75 244.55 70.25 240.1 51.4 235.8 36.4 226.65 21.35 217.5 12.45 204.85 3.2 191.8 1.9 176.85 0.6 161.9 7.45 147.7 14.05 133.95 27.3 122.8 40.5 111.6 58.4 104.75 76.85 97.65 97.65 96.15 118.45 94.7 137.9 99.1 156.75 103.4 171.75 112.55" fill="url(#gradient8)" fill-rule="evenodd" stroke="none"/>
      <path d="M205.15 312.7 Q222.05 325.25 232.2 342.3 242.75 359.95 244.5 379.95 246.25 399.95 238.9 418.8 231.8 437.05 217.25 451.75 202.7 466.4 182.95 475.25 162.5 484.4 139.4 486.0 116.25 487.55 94.45 481.25 73.4 475.2 56.5 462.65 39.6 450.1 29.4 433.05 18.9 415.4 17.15 395.4 15.4 375.4 22.75 356.55 29.8 338.3 44.35 323.65 58.9 308.95 78.65 300.1 99.1 290.95 122.25 289.35 145.35 287.8 167.15 294.1 188.2 300.15 205.15 312.7" fill="url(#gradient9)" fill-rule="evenodd" stroke="none"/>
      <path d="M213.5 209.15 Q237.3 207.55 259.75 214.3 281.45 220.85 298.9 234.2 316.35 247.6 326.85 265.8 337.75 284.6 339.6 305.9 341.45 327.2 333.95 347.25 326.7 366.65 311.75 382.2 296.85 397.75 276.5 407.15 255.5 416.85 231.7 418.45 207.9 420.05 185.45 413.3 163.75 406.75 146.3 393.4 128.8 380.0 118.3 361.8 107.4 343.0 105.55 321.7 103.7 300.4 111.2 280.35 118.45 261.0 133.4 245.4 148.35 229.85 168.65 220.45 189.7 210.75 213.5 209.15" fill="url(#gradient10)" fill-rule="evenodd" stroke="none"/>
      <path d="M505.1 289.25 Q507.35 315.2 497.85 339.65 488.65 363.3 469.8 382.35 450.9 401.4 425.3 412.85 398.8 424.75 368.8 426.8 338.8 428.85 310.55 420.65 283.25 412.8 261.35 396.55 239.4 380.3 226.2 358.2 212.55 335.3 210.3 309.35 208.05 283.4 217.6 258.9 226.8 235.25 245.65 216.25 264.5 197.2 290.1 185.75 316.6 173.85 346.6 171.8 376.6 169.75 404.85 177.9 432.15 185.8 454.05 202.05 476.0 218.3 489.2 240.4 502.85 263.3 505.1 289.25" fill="url(#gradient11)" fill-rule="evenodd" stroke="none"/>
      <path d="M495.5 110.95 Q497.25 130.95 489.9 149.8 482.8 168.05 468.25 182.75 453.7 197.4 433.95 206.25 413.5 215.4 390.4 217.0 367.25 218.55 345.45 212.25 324.4 206.2 307.5 193.65 290.6 181.1 280.4 164.05 269.9 146.4 268.15 126.4 266.4 106.4 273.75 87.55 280.8 69.3 295.35 54.65 309.9 39.95 329.65 31.1 350.1 21.95 373.25 20.35 396.35 18.75 418.15 25.05 439.2 31.15 456.15 43.7 473.05 56.2 483.2 73.3 493.75 90.95 495.5 110.95" fill="url(#gradient12)" fill-rule="evenodd" stroke="none"/>
      <path d="M376.65 321.6 Q394.2 320.45 410.8 325.9 426.85 331.2 439.8 341.95 452.75 352.7 460.6 367.2 468.75 382.2 470.2 399.15 471.65 416.1 466.2 432.0 460.95 447.4 450.0 459.75 439.05 472.05 424.1 479.4 408.65 487.0 391.1 488.2 373.55 489.35 356.95 483.85 340.9 478.55 327.95 467.85 315.0 457.1 307.2 442.55 299.05 427.55 297.6 410.6 296.15 393.65 301.55 377.75 306.8 362.35 317.75 350.05 328.7 337.7 343.65 330.35 359.1 322.75 376.65 321.6" fill="url(#gradient13)" fill-rule="evenodd" stroke="none"/>
      <path d="M191.75 284.3 Q212.8 273.85 236.65 272.25 260.5 270.7 283.1 278.25 304.9 285.6 322.55 300.4 340.15 315.2 350.85 335.25 361.9 355.95 363.95 379.3 366.0 402.65 358.6 424.55 351.5 445.75 336.6 462.7 321.75 479.65 301.45 489.75 280.4 500.2 256.55 501.8 232.7 503.4 210.1 495.8 188.3 488.5 170.65 473.7 153.05 458.9 142.35 438.85 131.3 418.15 129.25 394.8 127.25 371.45 134.6 349.5 141.7 328.3 156.6 311.35 171.45 294.4 191.75 284.3" fill="url(#gradient14)" fill-rule="evenodd" stroke="none"/>
      <path d="M499.2 184.15 Q500.65 201.1 495.2 217.0 489.95 232.4 479.0 244.75 468.05 257.05 453.1 264.4 437.65 272.0 420.1 273.2 402.55 274.35 385.95 268.85 369.9 263.55 356.95 252.85 344.0 242.1 336.2 227.55 328.05 212.55 326.6 195.6 325.15 178.65 330.55 162.75 335.8 147.35 346.75 135.05 357.7 122.7 372.65 115.35 388.1 107.75 405.65 106.6 423.2 105.45 439.8 110.9 455.85 116.2 468.8 126.95 481.75 137.7 489.6 152.2 497.75 167.2 499.2 184.15" fill="url(#gradient15)" fill-rule="evenodd" stroke="none"/>
      <path d="M253.15 321.1 Q253.6 339.25 246.2 355.9 239.05 371.95 225.6 384.35 212.15 396.8 194.5 403.65 176.2 410.75 156.0 410.85 135.8 410.95 117.2 404.0 99.2 397.3 85.2 385.0 71.15 372.7 63.2 356.7 55.05 340.15 54.6 322.0 54.15 303.85 61.55 287.2 68.7 271.15 82.15 258.75 95.6 246.3 113.25 239.45 131.55 232.35 151.75 232.25 171.95 232.15 190.55 239.1 208.5 245.8 222.55 258.1 236.6 270.35 244.5 286.35 252.7 302.9 253.15 321.1" fill="url(#gradient16)" fill-rule="evenodd" stroke="none"/>
      <path d="M159.95 104.2 Q183.05 84.8 217.85 82.3 252.7 79.85 278.85 95.85 291.25 103.35 298.55 113.75 306.15 124.5 307.25 136.8 308.35 149.1 302.7 160.8 297.3 172.1 286.4 181.3 263.3 200.75 228.5 203.2 193.65 205.7 167.5 189.7 155.1 182.15 147.8 171.75 140.2 161.0 139.1 148.7 138.0 136.4 143.65 124.7 149.05 113.4 159.95 104.2" fill="url(#gradient17)" fill-rule="evenodd" stroke="none"/>
      <path d="M379.0 120.0 Q388.05 132.9 389.35 147.6 390.65 162.3 383.95 176.3 377.45 189.85 364.4 200.8 351.4 211.8 333.8 218.55 315.6 225.55 295.15 227.0 274.7 228.45 255.5 224.1 236.95 219.9 222.15 210.85 207.35 201.85 198.6 189.4 189.5 176.5 188.2 161.8 186.9 147.1 193.65 133.1 200.15 119.6 213.2 108.6 226.25 97.65 243.8 90.85 262.0 83.85 282.45 82.4 302.9 80.95 322.1 85.3 340.6 89.55 355.4 98.55 370.2 107.6 379.0 120.0" fill="url(#gradient18)" fill-rule="evenodd" stroke="none"/>
      <path d="M172.25 309.2 Q190.15 302.3 210.3 300.9 230.45 299.5 249.3 303.75 267.55 307.9 282.15 316.8 296.7 325.65 305.35 337.9 314.3 350.6 315.55 365.05 316.8 379.55 310.2 393.3 303.8 406.6 291.0 417.4 278.15 428.25 260.85 434.9 242.95 441.8 222.8 443.2 202.65 444.65 183.8 440.35 165.55 436.2 151.0 427.35 136.45 418.45 127.8 406.2 118.85 393.55 117.6 379.05 116.3 364.6 122.9 350.8 129.3 337.5 142.15 326.7 155.0 315.85 172.25 309.2" fill="url(#gradient19)" fill-rule="evenodd" stroke="none"/>
      <path d="M295.25 267.7 Q314.8 265.45 333.55 269.8 351.6 274.0 366.4 283.7 381.2 293.35 390.45 307.1 400.0 321.25 402.2 337.75 404.4 354.2 398.85 370.1 393.5 385.5 381.65 398.2 369.85 410.95 353.4 419.05 336.4 427.45 316.8 429.7 297.25 431.95 278.5 427.65 260.45 423.45 245.65 413.75 230.85 404.1 221.6 390.35 212.05 376.2 209.85 359.7 207.65 343.2 213.2 327.3 218.6 311.95 230.4 299.2 242.25 286.45 258.65 278.35 275.7 269.95 295.25 267.7" fill="url(#gradient20)" fill-rule="evenodd" stroke="none"/>
      <path d="M272.6 169.0 Q292.05 173.5 308.0 183.95 323.9 194.35 333.85 209.1 344.15 224.35 346.5 242.1 348.85 259.8 342.9 276.95 337.1 293.45 324.4 307.15 311.7 320.85 294.0 329.55 275.7 338.6 254.65 341.0 233.6 343.4 213.5 338.75 194.05 334.25 178.15 323.85 162.25 313.4 152.3 298.7 142.0 283.4 139.65 265.7 137.3 248.0 143.25 230.85 149.05 214.35 161.75 200.65 174.45 186.95 192.1 178.2 210.4 169.15 231.45 166.75 252.5 164.35 272.6 169.0" fill="url(#gradient21)" fill-rule="evenodd" stroke="none"/>
      <path d="M209.0 133.95 Q224.9 144.35 234.85 159.1 245.15 174.35 247.5 192.1 249.85 209.8 243.9 226.95 238.1 243.45 225.4 257.15 212.7 270.85 195.0 279.55 176.7 288.6 155.65 291.0 134.6 293.4 114.5 288.75 95.05 284.25 79.15 273.85 63.25 263.4 53.3 248.7 43.0 233.4 40.65 215.7 38.3 198.0 44.25 180.85 50.05 164.35 62.75 150.65 75.45 136.95 93.1 128.2 111.4 119.15 132.45 116.75 153.5 114.35 173.6 119.0 193.05 123.5 209.0 133.95" fill="url(#gradient22)" fill-rule="evenodd" stroke="none"/>
      <path d="M177.45 37.75 Q198.5 35.35 218.6 40.0 238.05 44.5 254.0 54.95 269.9 65.35 279.85 80.1 290.15 95.35 292.5 113.1 294.85 130.8 288.9 147.95 283.1 164.45 270.4 178.15 257.7 191.85 240.0 200.55 221.7 209.6 200.65 212.0 179.6 214.4 159.5 209.75 140.05 205.25 124.15 194.85 108.25 184.4 98.3 169.7 88.0 154.4 85.65 136.7 83.3 119.0 89.25 101.85 95.05 85.35 107.75 71.65 120.45 57.95 138.1 49.2 156.4 40.15 177.45 37.75" fill="url(#gradient23)" fill-rule="evenodd" stroke="none"/>
      <path d="M352.6 28.0 Q372.05 32.5 388.0 42.95 403.9 53.35 413.85 68.1 424.15 83.35 426.5 101.1 428.85 118.8 422.9 135.95 417.1 152.45 404.4 166.15 391.7 179.85 374.0 188.55 355.7 197.6 334.65 200.0 313.6 202.4 293.5 197.75 274.05 193.25 258.15 182.85 242.25 172.4 232.3 157.7 222.0 142.4 219.65 124.7 217.3 107.0 223.25 89.85 229.05 73.35 241.75 59.65 254.45 45.95 272.1 37.2 290.4 28.15 311.45 25.75 332.5 23.35 352.6 28.0" fill="url(#gradient24)" fill-rule="evenodd" stroke="none"/>
      <path d="M471.8 229.35 Q466.2 245.35 453.9 258.65 441.6 271.9 424.5 280.35 406.8 289.1 386.4 291.45 366.05 293.75 346.55 289.25 327.7 284.9 312.3 274.8 296.85 264.7 287.25 250.45 277.3 235.65 275.0 218.5 272.7 201.35 278.5 184.75 284.1 168.75 296.4 155.5 308.7 142.25 325.8 133.8 343.55 125.05 363.9 122.7 384.25 120.4 403.75 124.9 422.6 129.25 438.0 139.35 453.45 149.45 463.05 163.7 473.0 178.5 475.3 195.65 477.6 212.8 471.8 229.35" fill="url(#gradient25)" fill-rule="evenodd" stroke="none"/>
      <path d="M282.4 250.5 Q294.7 237.25 311.8 228.8 329.55 220.05 349.9 217.7 370.25 215.4 389.75 219.9 408.6 224.25 424.0 234.35 439.45 244.45 449.05 258.7 459.0 273.5 461.3 290.65 463.6 307.8 457.8 324.35 452.2 340.35 439.9 353.65 427.6 366.9 410.5 375.35 392.8 384.1 372.4 386.45 352.05 388.75 332.55 384.25 313.7 379.9 298.3 369.8 282.85 359.7 273.25 345.45 263.3 330.65 261.0 313.5 258.7 296.35 264.5 279.75 270.1 263.75 282.4 250.5" fill="url(#gradient26)" fill-rule="evenodd" stroke="none"/>
      <path d="M292.35 98.05 Q315.65 105.6 335.05 122.0 354.4 138.35 366.85 160.95 379.75 184.35 383.3 211.15 386.85 237.95 380.45 263.45 374.25 288.1 359.7 308.2 345.15 328.3 324.45 340.7 303.05 353.55 278.1 356.3 253.15 359.05 229.0 351.2 205.7 343.65 186.3 327.3 166.95 310.9 154.5 288.3 141.65 264.9 138.1 238.1 134.55 211.3 140.95 185.8 147.1 161.15 161.65 141.05 176.25 120.95 196.9 108.55 218.3 95.7 243.25 92.95 268.2 90.2 292.35 98.05" fill="url(#gradient27)" fill-rule="evenodd" stroke="none"/>
      <path d="M262.0 218.35 Q277.45 228.45 287.05 242.7 297.0 257.5 299.3 274.65 301.6 291.8 295.8 308.35 290.2 324.35 277.9 337.65 265.6 350.9 248.5 359.35 230.8 368.1 210.4 370.45 190.05 372.75 170.55 368.25 151.7 363.9 136.3 353.8 120.85 343.7 111.25 329.45 101.3 314.65 99.0 297.5 96.7 280.35 102.5 263.75 108.1 247.75 120.4 234.5 132.7 221.25 149.8 212.8 167.55 204.05 187.9 201.7 208.25 199.4 227.75 203.9 246.6 208.25 262.0 218.35" fill="url(#gradient28)" fill-rule="evenodd" stroke="none"/>
      <path d="M256.05 368.65 Q247.05 373.55 232.9 380.25 204.55 393.75 179.85 402.3 152.8 412.45 122.4 421.25 93.8 429.55 98.2 426.75 99.45 425.95 124.1 418.5 155.15 409.15 177.55 401.2 202.85 392.95 232.1 379.9 246.75 373.4 256.05 368.65" fill="url(#gradient29)" fill-rule="evenodd" stroke="none"/>
      <path d="M248.45 386.2 Q240.55 390.15 229.7 395.15 200.75 408.6 175.8 418.3 143.3 431.45 120.95 439.25 95.75 448.0 93.7 446.25 93.35 445.95 118.2 437.75 150.75 427.0 173.7 417.95 199.15 408.35 228.95 395.05 L248.45 386.2" fill="url(#gradient30)" fill-rule="evenodd" stroke="none"/>
      <path d="M229.1 335.55 L245.7 328.3 229.95 335.6 Q195.25 351.3 165.5 362.85 126.75 378.45 100.05 387.95 70.0 398.6 67.7 396.95 67.3 396.65 96.85 386.6 135.75 373.4 163.05 362.65 193.5 351.15 229.1 335.55" fill="url(#gradient31)" fill-rule="evenodd" stroke="none"/>
      <path d="M406.9 390.05 Q399.2 394.8 388.6 401.0 360.35 417.55 335.95 429.85 304.35 446.35 282.35 456.5 257.7 467.9 255.7 466.25 255.35 465.95 279.6 455.25 311.55 441.1 333.9 429.7 358.75 417.45 387.85 400.95 L406.9 390.05" fill="url(#gradient32)" fill-rule="evenodd" stroke="none"/>
      <path d="M369.75 339.85 L381.1 333.05 Q376.85 336.0 370.15 340.05 356.7 348.2 344.85 353.4 329.5 360.7 318.65 364.55 306.45 368.9 305.0 366.95 304.75 366.6 316.85 362.75 332.8 357.7 343.65 352.8 355.8 347.75 369.75 339.85" fill="url(#gradient33)" fill-rule="evenodd" stroke="none"/>
      <path d="M420.3 408.65 Q392.05 425.2 367.6 437.5 335.95 454.05 314.05 464.2 289.4 475.6 287.35 473.95 287.0 473.65 311.3 462.9 343.25 448.75 365.55 437.35 390.4 425.1 419.5 408.6 L438.55 397.7 420.3 408.65" fill="url(#gradient34)" fill-rule="evenodd" stroke="none"/>
      <path d="M345.4 453.85 Q376.4 444.5 398.9 436.5 424.15 428.25 453.45 415.25 468.05 408.75 477.4 403.95 468.4 408.9 454.25 415.6 425.9 429.1 401.15 437.65 374.0 447.8 343.75 456.55 315.2 464.85 319.5 462.05 320.75 461.25 345.4 453.85" fill="url(#gradient35)" fill-rule="evenodd" stroke="none"/>
      <path d="M356.9 390.05 L338.6 401.0 Q310.35 417.55 285.95 429.85 254.35 446.35 232.35 456.5 207.7 467.9 205.7 466.25 205.35 465.95 229.6 455.25 261.55 441.1 283.9 429.7 308.75 417.45 337.85 400.95 L356.9 390.05" fill="url(#gradient36)" fill-rule="evenodd" stroke="none"/>
      <path d="M386.4 369.3 Q375.35 375.95 358.0 385.4 323.2 404.3 293.1 417.4 259.95 432.6 223.25 446.85 188.6 460.3 193.95 456.65 195.45 455.6 225.45 443.7 263.05 428.8 290.45 416.6 321.2 403.75 357.05 385.15 374.95 375.9 386.4 369.3" fill="url(#gradient37)" fill-rule="evenodd" stroke="none"/>
      <path d="M208.55 92.55 Q199.6 97.5 185.45 104.2 157.15 117.7 132.35 126.25 105.2 136.4 74.95 145.15 46.4 153.45 50.7 150.65 51.95 149.85 76.6 142.45 107.65 133.1 130.05 125.15 155.4 116.85 184.6 103.85 199.25 97.35 208.55 92.55" fill="url(#gradient38)" fill-rule="evenodd" stroke="none"/>
      <path d="M343.65 69.5 Q376.25 58.8 399.2 49.75 424.65 40.1 454.4 26.8 469.3 20.15 478.85 15.5 469.65 20.2 455.15 26.9 426.25 40.35 401.3 50.05 368.75 63.2 346.45 71.0 321.25 79.75 319.15 78.0 318.8 77.7 343.65 69.5" fill="url(#gradient39)" fill-rule="evenodd" stroke="none"/>
      <path d="M205.0 49.15 L182.5 59.55 Q147.75 75.25 118.0 86.8 79.2 102.45 52.55 111.9 22.5 122.55 20.2 120.85 19.8 120.6 49.35 110.55 88.1 97.4 115.55 86.6 145.85 75.15 181.6 59.5 L205.0 49.15" fill="url(#gradient40)" fill-rule="evenodd" stroke="none"/>
      <path d="M488.4 256.95 L470.15 267.9 Q441.9 284.45 417.5 296.75 385.8 313.35 363.9 323.45 339.25 334.8 337.2 333.2 336.85 332.9 361.15 322.2 393.0 308.1 415.4 296.65 440.35 284.35 469.35 267.9 L488.4 256.95" fill="url(#gradient41)" fill-rule="evenodd" stroke="none"/>
      <path d="M399.4 407.7 Q415.3 402.65 426.2 397.75 438.4 392.65 452.25 384.8 459.2 380.85 463.6 377.95 L452.7 385.0 Q439.25 393.15 427.4 398.35 412.05 405.65 401.2 409.5 388.95 413.85 387.55 411.85 387.3 411.5 399.4 407.7" fill="url(#gradient42)" fill-rule="evenodd" stroke="none"/>
      <path d="M495.1 311.65 L476.8 322.6 Q448.5 339.15 424.15 351.45 392.4 368.05 370.55 378.15 345.9 389.5 343.85 387.85 343.5 387.55 367.8 376.85 399.7 362.75 422.1 351.3 446.95 339.05 476.05 322.55 L495.1 311.65" fill="url(#gradient43)" fill-rule="evenodd" stroke="none"/>
      <path d="M201.9 219.9 Q192.9 224.85 178.75 231.55 150.45 245.0 125.7 253.55 98.55 263.75 68.25 272.5 39.7 280.8 44.05 278.0 45.3 277.2 69.95 269.8 100.95 260.45 123.4 252.45 148.7 244.2 177.95 231.2 192.6 224.7 201.9 219.9" fill="url(#gradient44)" fill-rule="evenodd" stroke="none"/>
      <path d="M481.4 55.95 L463.15 66.9 Q434.9 83.45 410.5 95.75 378.8 112.35 356.9 122.45 332.25 133.8 330.2 132.2 329.85 131.9 354.15 121.2 386.0 107.1 408.4 95.65 433.35 83.35 462.35 66.9 L481.4 55.95" fill="url(#gradient45)" fill-rule="evenodd" stroke="none"/>
      <path d="M510.9 35.25 Q499.85 41.9 482.5 51.35 447.75 70.25 417.65 83.35 384.55 98.55 347.75 112.8 313.1 126.25 318.45 122.6 320.0 121.55 349.95 109.65 387.6 94.65 414.95 82.55 445.65 69.7 481.55 51.1 499.45 41.8 510.9 35.25" fill="url(#gradient46)" fill-rule="evenodd" stroke="none"/>
      <path d="M149.5 344.85 Q150.45 343.35 150.9 344.05 151.3 344.65 151.0 346.05 150.75 347.25 149.9 346.45 149.05 345.55 149.5 344.85" fill="url(#gradient47)" fill-rule="evenodd" stroke="none"/>
      <path d="M124.15 460.0 Q124.1 459.75 124.65 459.65 L125.2 459.75 Q125.2 460.15 125.95 460.15 126.4 460.15 126.2 460.4 126.0 460.65 125.5 460.65 124.15 460.65 124.15 460.0" fill="url(#gradient48)" fill-rule="evenodd" stroke="none"/>
      <path d="M262.25 464.75 L262.2 464.8 262.3 464.7 262.4 464.6 262.4 464.65 Q262.8 464.25 263.35 464.65 L263.65 465.15 263.55 465.6 262.5 466.15 Q261.85 466.15 261.65 465.45 L261.75 465.0 262.15 464.8 262.25 464.75" fill="url(#gradient49)" fill-rule="evenodd" stroke="none"/>
      <path d="M274.2 446.65 L273.85 446.65 Q273.3 446.65 272.6 446.25 L271.8 445.5 Q271.65 445.05 271.9 444.8 L272.8 444.6 273.15 444.6 Q273.7 444.6 274.4 445.0 L275.2 445.75 Q275.35 446.2 275.1 446.45 L274.2 446.65" fill="url(#gradient50)" fill-rule="evenodd" stroke="none"/>
      <path d="M385.8 436.55 L384.2 436.3 384.2 434.7 Q384.2 434.45 385.55 434.45 386.9 434.45 386.9 434.75 L386.9 435.25 385.85 436.5 385.8 436.55" fill="url(#gradient51)" fill-rule="evenodd" stroke="none"/>
      <path d="M55.25 337.9 L56.15 337.55 56.55 337.5 57.1 338.05 Q57.25 338.2 56.0 338.85 L55.1 339.25 54.7 339.3 54.15 338.75 Q54.05 338.65 54.6 338.3 L55.25 337.9" fill="url(#gradient52)" fill-rule="evenodd" stroke="none"/>
      <path d="M86.3 329.1 Q86.65 328.7 87.2 328.75 87.7 328.75 88.1 329.15 88.55 329.55 88.55 330.05 L88.55 330.55 Q88.55 331.9 87.4 331.8 86.9 331.8 86.45 331.4 86.0 331.0 86.0 330.5 L86.0 329.95 Q86.0 329.45 86.3 329.1" fill="url(#gradient53)" fill-rule="evenodd" stroke="none"/>
      <path d="M93.0 345.55 L93.35 345.25 93.85 345.35 Q94.55 345.65 94.55 346.25 L94.55 346.9 Q94.55 347.35 93.7 347.15 93.0 346.85 93.0 346.25 L93.0 345.55" fill="url(#gradient54)" fill-rule="evenodd" stroke="none"/>
      <path d="M46.75 323.7 L47.1 323.85 48.55 325.15 48.8 325.5 Q48.25 325.5 48.25 326.0 L47.85 325.85 46.45 324.6 46.2 324.25 Q46.2 323.7 46.75 323.7" fill="url(#gradient55)" fill-rule="evenodd" stroke="none"/>
      <path d="M248.35 467.0 Q248.65 466.7 249.75 467.4 L250.4 468.15 250.5 468.65 249.75 469.2 249.45 469.6 Q249.4 469.95 248.95 469.8 L248.3 469.5 247.5 468.85 247.2 468.2 Q247.25 467.8 247.65 467.5 L248.35 467.0" fill="url(#gradient56)" fill-rule="evenodd" stroke="none"/>
      <path d="M349.75 467.1 L350.85 467.6 Q351.5 467.75 351.9 468.15 352.45 468.65 351.3 468.65 L350.2 468.65 348.85 468.35 Q348.3 468.1 348.3 467.8 L348.3 467.25 348.75 467.0 349.75 467.1" fill="url(#gradient57)" fill-rule="evenodd" stroke="none"/>
      <path d="M136.75 362.35 L137.05 362.9 Q137.2 363.5 136.85 363.9 136.5 364.3 135.9 364.3 135.05 364.35 134.2 363.7 L134.4 363.25 134.55 362.5 134.65 362.3 134.7 362.05 136.75 362.35" fill="url(#gradient58)" fill-rule="evenodd" stroke="none"/>
      <path d="M143.15 367.9 Q142.95 367.65 142.95 366.8 142.95 366.6 143.6 366.8 L144.3 367.05 144.95 367.4 146.0 367.9 146.4 368.25 Q146.6 368.55 146.25 368.55 L146.0 368.55 145.95 368.55 146.0 368.55 145.95 369.0 145.7 369.1 144.3 368.7 143.15 367.9" fill="url(#gradient59)" fill-rule="evenodd" stroke="none"/>
      <path d="M32.35 352.4 Q32.55 352.2 32.85 352.5 L33.0 352.95 32.85 353.35 Q32.85 353.6 32.55 353.5 L32.15 353.05 32.35 352.4" fill="url(#gradient60)" fill-rule="evenodd" stroke="none"/>
      <path d="M356.6 433.85 L356.75 434.05 356.95 433.95 357.0 434.0 356.85 434.35 357.05 434.3 357.1 434.5 357.3 434.6 357.4 434.4 357.6 434.5 357.65 434.3 357.65 434.1 357.8 434.25 358.1 434.1 358.05 434.4 358.15 434.5 358.2 434.6 357.8 434.65 357.95 434.85 357.8 434.95 357.85 435.2 358.05 435.15 358.1 435.4 358.25 435.3 Q358.3 435.15 358.4 435.2 L358.4 435.45 358.65 435.6 358.4 435.7 358.3 435.9 358.25 435.9 358.15 435.8 358.05 435.65 357.95 435.85 357.8 435.75 357.6 435.9 357.7 436.1 357.55 436.2 357.65 436.3 357.85 436.35 357.85 436.45 357.65 436.55 357.65 436.85 357.5 436.75 357.4 436.6 357.2 436.7 357.15 436.65 357.3 436.3 357.1 436.35 357.1 436.15 356.85 436.05 356.7 436.25 356.55 436.15 356.55 436.35 356.5 436.55 356.35 436.45 356.05 436.55 356.0 436.5 356.1 436.3 356.0 436.05 356.35 436.0 356.25 435.9 356.25 435.85 Q356.2 435.75 356.4 435.75 L356.3 435.45 356.1 435.5 356.1 435.3 355.9 435.4 355.7 435.45 355.75 435.2 355.6 435.15 355.55 435.0 355.75 435.0 355.85 434.75 355.9 434.75 356.1 435.0 356.2 434.85 356.4 434.9 356.55 434.75 356.45 434.55 356.65 434.45 Q356.65 434.35 356.5 434.35 L356.3 434.3 356.3 434.2 356.55 434.15 356.5 433.9 356.6 433.85" fill="url(#gradient61)" fill-rule="evenodd" stroke="none"/>
      <path d="M295.4 459.5 L295.2 460.0 295.75 460.15 295.7 460.55 294.85 460.55 294.4 461.35 294.8 461.45 295.25 461.4 295.55 461.05 295.8 460.7 Q296.1 460.55 296.15 460.9 L296.0 461.35 296.6 461.45 Q296.8 461.65 296.6 461.9 L296.0 462.0 296.15 462.45 295.9 462.7 295.6 462.35 295.3 461.9 294.4 462.0 294.85 462.8 295.7 462.8 295.85 463.05 295.75 463.3 295.2 463.35 295.4 463.8 295.15 464.15 294.9 463.9 294.7 463.65 294.5 463.85 294.35 464.05 Q293.9 464.0 294.05 463.65 L294.35 463.05 293.95 462.25 293.45 463.05 293.8 463.8 293.45 464.05 293.15 463.65 292.75 464.05 Q292.5 464.25 292.35 463.9 L292.6 463.35 292.35 463.3 292.1 463.3 291.95 463.05 292.35 462.8 292.95 462.8 293.4 462.0 292.5 461.95 292.1 462.5 291.6 462.45 291.8 462.0 291.2 461.9 291.1 461.7 291.2 461.45 291.8 461.4 291.6 460.85 Q291.85 460.5 292.1 460.85 L292.5 461.4 293.0 461.45 293.4 461.35 292.95 460.55 292.1 460.55 Q291.85 460.3 292.1 460.05 L292.35 460.05 292.6 460.0 292.35 459.5 Q292.45 459.2 292.7 459.2 L293.1 459.7 293.45 459.3 293.7 459.3 293.7 459.8 293.45 460.3 293.9 461.1 294.35 460.3 294.2 459.95 294.0 459.55 Q294.0 459.25 294.3 459.3 L294.7 459.7 295.05 459.2 Q295.45 459.2 295.4 459.5" fill="url(#gradient62)" fill-rule="evenodd" stroke="none"/>
      <path d="M166.2 390.95 L166.45 390.95 166.75 392.25 166.5 392.5 165.85 392.65 Q165.55 392.5 165.4 392.15 165.15 391.6 165.4 391.0 L165.7 391.0 166.2 390.95" fill="url(#gradient63)" fill-rule="evenodd" stroke="none"/>
      <path d="M393.75 364.75 L394.1 365.2 394.0 365.7 Q393.5 366.2 392.95 366.2 L392.4 366.05 392.1 365.55 Q391.95 364.95 392.6 364.85 L392.65 364.85 392.75 364.8 392.8 364.75 Q393.25 364.3 393.75 364.75" fill="url(#gradient64)" fill-rule="evenodd" stroke="none"/>
      <path d="M400.55 397.95 L399.65 398.15 399.3 398.15 Q398.75 398.15 398.05 397.75 L397.25 397.0 Q397.1 396.55 397.35 396.3 L398.25 396.1 398.6 396.1 399.85 396.5 400.65 397.25 Q400.85 397.7 400.55 397.95" fill="url(#gradient65)" fill-rule="evenodd" stroke="none"/>
      <path d="M98.85 367.05 L99.55 366.55 Q99.95 366.15 100.9 366.95 L101.6 367.7 101.65 368.2 100.95 368.75 100.65 369.15 Q100.6 369.5 100.1 369.35 L99.5 369.1 98.7 368.4 Q98.4 368.1 98.4 367.75 98.45 367.35 98.85 367.05" fill="url(#gradient66)" fill-rule="evenodd" stroke="none"/>
      <path d="M293.25 468.8 L293.35 469.7 293.7 470.0 Q293.45 470.1 293.35 470.5 293.25 470.85 293.45 471.1 L293.85 471.1 293.55 471.5 Q293.3 471.7 293.35 471.95 293.5 472.4 293.95 472.3 L294.25 472.0 294.4 471.5 294.65 471.8 Q295.4 471.8 295.5 471.05 L295.8 471.2 296.3 470.95 296.8 470.85 Q296.7 471.25 296.0 471.5 L295.95 471.9 Q295.4 471.7 294.9 472.2 L295.0 472.4 295.1 472.6 294.75 472.6 294.4 472.45 Q294.05 472.55 294.05 472.95 294.05 473.4 294.4 473.45 L294.75 473.3 295.05 473.25 294.9 473.65 Q295.3 474.2 295.95 474.0 295.9 474.35 296.3 474.55 L296.8 475.0 296.3 474.95 295.85 474.65 295.5 474.85 Q295.35 474.2 294.75 474.05 L294.6 474.25 294.4 474.4 Q294.35 473.6 293.9 473.55 293.7 473.55 293.35 473.9 293.25 474.25 293.55 474.4 L293.85 474.75 293.5 474.75 293.35 475.05 293.35 475.45 293.55 475.7 293.7 475.9 293.35 476.1 293.25 477.1 293.05 476.7 293.05 476.15 292.7 475.9 Q293.25 475.35 292.95 474.75 L292.55 474.75 292.85 474.35 293.05 473.95 292.55 473.55 292.15 473.85 291.95 474.45 291.7 474.05 Q290.95 474.2 290.9 474.85 290.75 474.9 290.7 474.75 L290.55 474.65 Q289.95 475.2 289.6 475.0 L289.9 474.6 290.35 474.35 290.4 474.0 291.45 473.75 291.35 473.55 291.25 473.3 Q291.5 473.15 291.9 473.45 292.35 473.4 292.35 472.9 292.35 472.45 291.9 472.45 L291.25 472.6 291.35 472.4 291.45 472.2 291.0 471.85 290.4 471.9 290.35 471.55 289.95 471.25 289.6 470.85 Q289.9 470.7 290.5 471.2 L290.7 471.1 Q290.8 471.0 290.85 471.05 L291.65 471.8 291.8 471.65 Q291.8 471.5 291.9 471.5 L292.1 471.9 292.4 472.3 292.9 472.2 293.05 471.75 292.75 471.45 292.55 471.1 292.95 471.1 Q293.25 470.65 292.7 469.95 293.0 469.95 293.0 469.5 L293.1 468.8 293.25 468.8" fill="url(#gradient67)" fill-rule="evenodd" stroke="none"/>
      <path d="M410.1 425.05 L410.2 424.55 Q410.35 424.35 410.6 424.35 L410.7 424.3 410.65 424.35 410.75 424.25 410.85 424.2 Q411.2 423.85 411.8 424.2 L412.1 424.7 412.0 425.2 410.95 425.7 Q410.3 425.7 410.1 425.05" fill="url(#gradient68)" fill-rule="evenodd" stroke="none"/>
      <path d="M221.9 412.55 L222.2 412.55 223.45 412.95 224.25 413.7 Q224.5 414.1 224.15 414.4 L223.25 414.6 222.9 414.6 Q222.45 414.6 221.65 414.2 L220.9 413.45 Q220.65 413.05 220.95 412.75 L221.9 412.55" fill="url(#gradient69)" fill-rule="evenodd" stroke="none"/>
      <path d="M393.5 454.35 L392.95 453.8 Q392.85 453.7 393.4 453.35 393.95 453.0 394.05 453.0 394.7 452.65 394.95 452.6 L395.35 452.55 395.9 453.1 Q396.05 453.25 394.8 453.95 L393.9 454.3 393.5 454.35" fill="url(#gradient70)" fill-rule="evenodd" stroke="none"/>
      <path d="M416.3 393.2 Q416.3 391.95 417.45 391.95 417.95 391.95 418.4 392.35 418.85 392.75 418.85 393.25 L418.85 393.8 418.55 394.7 Q418.2 395.05 417.7 395.05 417.15 395.0 416.75 394.65 416.3 394.25 416.3 393.75 L416.3 393.2" fill="url(#gradient71)" fill-rule="evenodd" stroke="none"/>
      <path d="M133.5 441.15 Q133.5 440.9 133.85 440.85 L134.35 440.95 Q135.05 441.25 135.05 441.8 L135.05 442.5 134.75 442.8 134.25 442.7 Q133.5 442.4 133.5 441.85 L133.5 441.15" fill="url(#gradient72)" fill-rule="evenodd" stroke="none"/>
      <path d="M384.9 335.05 L384.6 335.45 383.45 335.4 382.65 334.7 382.35 334.1 Q382.4 333.7 382.8 333.4 L383.5 332.85 Q383.9 332.55 384.85 333.3 L385.55 334.0 385.6 334.55 384.9 335.05" fill="url(#gradient73)" fill-rule="evenodd" stroke="none"/>
      <path d="M100.45 443.55 L100.85 443.05 Q101.45 443.05 100.95 443.85 L101.5 444.0 101.45 444.4 100.65 444.4 100.15 445.2 101.05 445.25 101.3 444.9 101.6 444.5 Q101.9 444.4 101.9 444.7 L101.75 445.2 102.4 445.3 Q102.6 445.5 102.4 445.75 L101.75 445.8 Q102.2 446.55 101.7 446.55 L101.35 446.2 101.05 445.75 100.15 445.8 100.6 446.6 101.45 446.65 101.6 446.85 101.5 447.1 100.95 447.15 101.15 447.65 100.9 447.95 100.65 447.75 100.5 447.5 100.1 447.9 Q99.65 447.85 99.85 447.5 L100.15 446.9 99.7 446.1 Q99.2 446.6 99.2 446.85 L99.6 447.65 99.2 447.9 98.9 447.5 98.55 447.9 Q98.3 448.1 98.15 447.75 L98.35 447.2 97.85 447.1 97.75 446.85 Q97.75 446.5 98.7 446.6 L99.2 445.85 98.25 445.8 97.85 446.35 97.4 446.3 97.55 445.8 97.25 445.75 96.95 445.75 Q96.75 445.5 96.95 445.3 L97.55 445.25 97.4 444.7 Q97.6 444.35 97.9 444.7 L98.25 445.25 98.75 445.3 99.2 445.2 98.7 444.4 97.85 444.4 Q97.65 444.1 97.85 443.9 L98.35 443.85 98.15 443.35 Q98.15 443.0 98.5 443.05 L98.85 443.55 99.2 443.15 99.5 443.15 99.45 443.65 99.2 444.15 99.65 444.95 100.15 444.15 99.95 443.8 99.75 443.4 Q99.75 443.05 100.1 443.15 L100.45 443.55" fill="url(#gradient74)" fill-rule="evenodd" stroke="none"/>
      <path d="M101.15 424.8 L101.5 424.4 101.8 424.45 101.75 424.95 101.5 425.4 101.95 426.2 102.45 425.4 102.25 425.05 102.05 424.65 Q102.05 424.3 102.4 424.4 L102.75 424.8 103.15 424.3 Q103.55 424.3 103.45 424.6 L103.25 425.1 103.8 425.25 103.75 425.65 102.95 425.65 102.45 426.45 103.35 426.55 103.6 426.2 103.9 425.8 Q104.2 425.65 104.2 426.0 L104.05 426.45 104.7 426.55 104.7 427.0 104.05 427.1 104.2 427.55 104.0 427.8 103.65 427.45 103.35 427.0 102.45 427.1 102.9 427.9 103.75 427.9 103.9 428.15 103.8 428.4 103.25 428.45 103.45 428.9 103.2 429.25 102.95 429.0 102.75 428.75 102.4 429.15 Q101.95 429.1 102.15 428.75 L102.45 428.15 102.0 427.35 Q101.5 427.85 101.5 428.15 L101.9 428.9 Q101.8 429.2 101.5 429.15 L101.2 428.75 100.85 429.15 Q100.6 429.35 100.45 429.0 L100.65 428.45 100.15 428.4 100.05 428.15 Q100.05 427.9 100.4 427.9 L101.0 427.9 101.45 427.1 100.55 427.05 100.15 427.6 Q99.9 427.95 99.7 427.6 L99.85 427.1 99.25 427.0 Q99.05 426.8 99.25 426.55 L99.85 426.5 99.7 425.95 Q99.9 425.6 100.2 425.95 L100.55 426.55 101.05 426.55 101.45 426.45 101.0 425.65 100.15 425.65 Q99.9 425.4 100.15 425.15 L100.65 425.1 100.45 424.6 Q100.45 424.3 100.8 424.3 L101.15 424.8" fill="url(#gradient75)" fill-rule="evenodd" stroke="none"/>
      <path d="M75.7 396.4 L75.1 396.5 Q75.5 397.2 75.0 397.2 L74.7 396.85 74.4 396.45 73.5 396.5 73.95 397.3 74.8 397.3 74.95 397.55 74.85 397.8 74.3 397.85 74.5 398.3 74.25 398.65 74.0 398.4 73.8 398.15 73.6 398.35 73.45 398.55 Q73.0 398.5 73.15 398.15 L73.45 397.55 73.05 396.75 Q72.55 397.25 72.55 397.55 72.55 397.85 72.9 398.3 72.9 398.6 72.55 398.55 L72.25 398.15 71.85 398.55 Q71.6 398.75 71.45 398.4 L71.7 397.85 71.2 397.8 71.05 397.55 Q71.1 397.2 72.05 397.3 L72.5 396.5 71.6 396.45 71.2 397.05 70.7 397.0 70.9 396.5 70.6 396.45 70.3 396.4 70.2 396.2 70.3 395.95 70.9 395.9 70.7 395.4 71.2 395.35 71.6 395.95 72.1 395.95 72.5 395.85 72.05 395.05 71.2 395.05 71.1 394.85 71.2 394.6 71.7 394.5 71.45 394.0 Q71.55 393.7 71.8 393.7 L72.2 394.2 72.4 394.05 72.55 393.8 72.8 393.85 72.8 394.35 72.55 394.8 73.0 395.6 73.45 394.8 73.3 394.45 73.1 394.05 Q73.1 393.75 73.4 393.8 L73.8 394.2 74.15 393.7 Q74.55 393.7 74.5 394.0 L74.3 394.5 74.85 394.65 74.8 395.05 73.95 395.05 73.5 395.85 74.35 395.95 74.65 395.6 74.9 395.2 Q75.2 395.05 75.25 395.4 L75.1 395.85 75.7 395.95 Q75.9 396.2 75.7 396.4" fill="url(#gradient76)" fill-rule="evenodd" stroke="none"/>
      <path d="M111.55 400.05 L111.55 400.6 111.25 401.45 Q110.95 401.85 110.4 401.8 109.9 401.8 109.45 401.4 109.0 401.0 109.0 400.5 L109.0 399.95 Q109.0 399.45 109.3 399.1 109.65 398.7 110.2 398.75 110.7 398.75 111.1 399.15 111.55 399.55 111.55 400.05" fill="url(#gradient77)" fill-rule="evenodd" stroke="none"/>
      <path d="M197.6 456.45 L198.05 456.5 Q198.25 456.7 198.05 456.85 L197.6 456.9 197.75 457.2 197.6 457.4 197.35 457.15 197.15 456.85 196.55 456.9 196.85 457.45 197.45 457.45 197.55 457.6 197.45 457.8 197.1 457.85 197.2 458.15 197.05 458.4 196.9 458.25 196.75 458.05 196.5 458.35 Q196.2 458.3 196.3 458.05 L196.5 457.65 196.2 457.1 Q195.85 457.45 195.85 457.6 L196.1 458.15 195.85 458.35 195.65 458.05 195.4 458.3 195.1 458.25 195.3 457.85 194.9 457.8 194.85 457.6 195.1 457.45 195.5 457.45 195.85 456.9 195.2 456.85 194.95 457.25 Q194.75 457.5 194.6 457.25 L194.7 456.9 194.3 456.85 Q194.15 456.7 194.3 456.5 L194.7 456.5 194.6 456.1 Q194.75 455.85 194.95 456.1 L195.2 456.5 195.85 456.45 195.5 455.9 194.9 455.9 Q194.75 455.75 194.9 455.55 L195.3 455.5 195.1 455.15 195.35 454.95 195.6 455.3 195.85 455.0 196.05 455.05 Q196.25 455.3 195.85 455.7 L196.2 456.25 196.5 455.75 196.25 455.2 196.45 455.0 196.7 455.3 197.0 454.95 197.2 455.15 197.1 455.5 197.45 455.6 197.45 455.9 196.85 455.9 196.55 456.45 197.1 456.5 197.5 456.0 Q197.7 455.9 197.75 456.1 L197.6 456.45" fill="url(#gradient78)" fill-rule="evenodd" stroke="none"/>
      <path d="M301.3 94.6 Q301.25 96.35 300.5 96.05 299.9 95.75 299.4 94.35 299.05 93.2 300.2 93.45 301.35 93.75 301.3 94.6" fill="url(#gradient79)" fill-rule="evenodd" stroke="none"/>
      <path d="M143.0 45.55 L143.55 45.45 144.05 45.7 144.25 46.15 143.95 46.55 143.9 46.6 143.9 46.7 143.85 46.8 Q143.65 47.35 143.0 47.25 L142.5 47.0 142.35 46.5 Q142.5 45.85 143.0 45.55" fill="url(#gradient80)" fill-rule="evenodd" stroke="none"/>
      <path d="M144.1 67.85 L145.15 68.1 Q145.55 68.25 145.45 68.7 L144.75 69.35 144.45 69.5 143.15 69.8 142.1 69.55 Q141.7 69.25 141.85 68.9 L142.55 68.25 142.85 68.1 144.1 67.85" fill="url(#gradient81)" fill-rule="evenodd" stroke="none"/>
      <path d="M50.7 132.5 L52.2 131.9 53.0 133.3 Q53.15 133.55 52.0 134.2 50.8 134.85 50.65 134.6 L50.4 134.15 50.7 132.6 50.7 132.5" fill="url(#gradient82)" fill-rule="evenodd" stroke="none"/>
      <path d="M386.4 52.35 L387.1 52.55 Q387.3 52.6 386.55 53.8 L386.0 54.55 385.65 54.8 384.9 54.6 Q384.75 54.55 385.1 54.0 L385.45 53.35 386.05 52.6 Q386.2 52.3 386.4 52.35" fill="url(#gradient83)" fill-rule="evenodd" stroke="none"/>
      <path d="M363.55 75.5 L363.8 76.0 Q364.45 77.1 363.4 77.65 L362.4 77.75 Q361.8 77.65 361.55 77.2 L361.3 76.75 Q361.05 76.3 361.15 75.85 361.25 75.35 361.7 75.1 L362.7 74.95 Q363.3 75.05 363.55 75.5" fill="url(#gradient84)" fill-rule="evenodd" stroke="none"/>
      <path d="M350.0 65.9 L349.85 66.35 349.4 66.5 Q348.6 66.6 348.35 66.1 L348.0 65.5 Q347.8 65.1 348.6 64.9 349.35 64.8 349.65 65.3 L350.0 65.9" fill="url(#gradient85)" fill-rule="evenodd" stroke="none"/>
      <path d="M398.55 60.65 L398.95 60.6 400.85 61.0 401.2 61.2 Q401.45 61.6 401.0 61.95 L400.6 61.95 399.65 61.8 398.7 61.55 398.35 61.4 Q398.8 61.05 398.55 60.65" fill="url(#gradient86)" fill-rule="evenodd" stroke="none"/>
      <path d="M154.85 37.75 Q154.7 38.3 153.45 38.1 L152.5 37.8 152.15 37.35 152.55 36.55 152.6 36.05 Q152.35 35.55 153.65 35.55 L154.65 35.75 155.2 36.15 Q155.4 36.5 155.2 36.95 L154.85 37.75" fill="url(#gradient87)" fill-rule="evenodd" stroke="none"/>
      <path d="M67.7 87.65 L66.8 88.05 65.6 88.2 64.4 88.25 Q63.75 88.0 64.7 87.45 L65.65 86.9 66.95 86.5 Q67.55 86.5 67.7 86.75 L67.95 87.2 67.7 87.65" fill="url(#gradient88)" fill-rule="evenodd" stroke="none"/>
      <path d="M305.3 71.15 L305.6 72.35 Q305.1 72.75 303.7 73.15 L303.2 72.8 Q302.75 72.35 302.85 71.85 302.95 71.3 303.45 71.0 304.25 70.5 305.25 70.65 L305.3 71.15" fill="url(#gradient89)" fill-rule="evenodd" stroke="none"/>
      <path d="M292.9 72.85 Q291.75 72.85 292.4 72.45 L292.55 72.35 292.6 72.35 292.6 72.3 292.4 71.9 292.6 71.7 294.0 71.35 295.35 71.45 296.15 72.35 Q296.3 72.6 294.8 72.8 L294.2 72.8 292.9 72.85" fill="url(#gradient90)" fill-rule="evenodd" stroke="none"/>
      <path d="M399.2 29.85 Q399.15 30.15 398.75 30.0 398.35 30.0 398.4 29.7 L398.3 29.3 398.35 29.1 398.55 29.0 399.1 29.2 399.2 29.85" fill="url(#gradient91)" fill-rule="evenodd" stroke="none"/>
      <path d="M75.3 118.3 L75.45 118.15 75.5 118.15 75.55 118.5 75.7 118.4 75.8 118.55 76.05 118.5 76.1 118.3 76.25 118.3 76.2 118.1 76.1 117.9 76.35 117.95 76.5 117.7 76.55 117.7 76.6 117.95 76.75 118.05 76.85 118.1 76.55 118.3 76.7 118.35 76.7 118.4 76.65 118.6 76.8 118.75 77.0 118.65 77.1 118.8 77.25 118.65 77.35 118.5 77.45 118.7 77.6 118.7 77.75 118.8 77.55 118.9 77.6 119.15 77.55 119.2 77.4 119.15 77.2 119.05 77.25 119.25 77.05 119.3 77.0 119.5 77.15 119.65 77.05 119.8 77.4 119.8 77.45 119.85 77.3 120.05 77.45 120.2 77.4 120.35 77.15 120.2 77.0 120.4 76.95 120.4 76.9 120.0 76.75 120.15 76.6 120.0 76.4 120.0 76.4 120.25 76.2 120.25 76.25 120.45 76.35 120.6 76.15 120.6 75.95 120.85 75.85 120.55 Q75.65 120.6 75.6 120.45 L75.95 120.25 Q75.75 120.25 75.7 120.15 L75.8 119.95 Q75.75 119.8 75.6 119.8 L75.5 119.9 75.35 119.7 75.15 120.05 75.05 119.85 74.7 119.8 74.95 119.6 74.85 119.35 74.95 119.35 75.1 119.45 75.25 119.5 75.2 119.25 75.4 119.25 75.5 119.05 75.3 118.9 75.4 118.75 75.25 118.7 75.05 118.75 75.0 118.65 75.15 118.5 75.0 118.25 75.3 118.3" fill="url(#gradient92)" fill-rule="evenodd" stroke="none"/>
      <path d="M115.65 63.5 L116.3 63.7 116.4 63.15 Q116.8 62.95 116.85 63.4 L116.85 64.05 117.65 64.5 117.7 63.6 117.35 63.35 116.95 63.15 Q116.95 62.8 117.2 62.7 L117.65 62.95 117.8 62.4 Q117.9 62.1 118.2 62.3 L118.25 62.9 118.75 62.7 118.95 62.9 Q119.05 63.1 118.75 63.25 L118.25 63.55 118.25 64.5 119.05 64.05 119.1 63.4 Q119.15 63.0 119.55 63.2 L119.65 63.7 120.2 63.5 120.4 63.6 120.4 63.85 119.9 64.2 120.35 64.55 Q120.3 65.0 119.9 64.85 L119.3 64.55 118.55 65.05 119.35 65.5 120.1 65.1 Q120.45 65.2 120.35 65.5 L119.9 65.8 120.4 66.15 Q120.5 66.45 120.2 66.55 L119.65 66.3 Q119.55 66.4 119.6 66.6 L119.55 66.85 119.3 66.95 Q119.05 66.85 119.1 66.5 L119.05 66.0 118.7 65.7 118.25 65.5 118.25 66.4 118.6 66.65 118.95 66.9 118.8 67.3 118.55 67.2 118.25 67.1 Q118.15 67.3 118.2 67.75 L117.75 67.65 117.65 67.1 117.15 67.25 Q116.9 67.25 116.95 66.9 L117.65 66.45 117.7 65.55 117.3 65.65 116.9 65.9 Q116.8 66.0 116.85 66.35 L116.8 66.85 Q116.6 67.1 116.4 66.85 L116.35 66.35 116.05 66.4 115.7 66.55 115.5 66.15 116.0 65.8 Q115.25 65.35 115.7 65.15 L116.2 65.25 116.65 65.5 Q116.85 65.3 117.4 65.0 L116.6 64.5 115.85 64.9 115.6 64.8 115.6 64.55 116.0 64.2 115.6 63.9 Q115.4 63.7 115.65 63.5" fill="url(#gradient93)" fill-rule="evenodd" stroke="none"/>
      <path d="M262.9 61.7 Q263.05 61.35 263.4 61.3 L264.05 61.5 Q264.5 61.8 264.6 62.5 L264.35 62.6 263.8 63.0 263.7 63.05 262.8 62.1 262.9 61.7" fill="url(#gradient94)" fill-rule="evenodd" stroke="none"/>
      <path d="M80.3 198.35 Q80.1 198.85 79.45 198.75 L78.95 198.5 78.8 198.05 Q78.95 197.4 79.45 197.05 80.0 196.75 80.55 197.2 81.0 197.75 80.4 198.1 L80.35 198.2 80.3 198.35" fill="url(#gradient95)" fill-rule="evenodd" stroke="none"/>
      <path d="M60.4 172.5 Q60.8 172.8 60.65 173.15 L59.95 173.75 59.7 173.95 58.4 174.2 57.35 173.95 Q56.95 173.75 57.1 173.35 L57.8 172.7 Q57.95 172.65 58.05 172.55 58.65 172.25 59.35 172.25 L60.4 172.5" fill="url(#gradient96)" fill-rule="evenodd" stroke="none"/>
      <path d="M334.25 50.15 L333.9 50.95 Q333.75 51.5 332.5 51.3 L331.55 51.0 331.2 50.6 331.6 49.75 331.65 49.25 Q331.4 48.75 332.7 48.75 L333.7 48.95 Q334.05 49.05 334.3 49.35 L334.25 50.15" fill="url(#gradient97)" fill-rule="evenodd" stroke="none"/>
      <path d="M115.95 55.35 Q115.25 54.95 114.9 55.1 114.8 55.15 114.85 55.3 L114.85 55.5 114.4 55.25 Q114.2 54.95 113.95 55.05 L113.65 55.4 113.7 55.85 114.1 55.95 114.45 56.15 114.1 56.35 Q114.1 56.95 114.9 57.2 114.65 57.4 114.85 57.8 L115.1 58.4 114.95 58.5 114.45 57.75 114.0 57.65 114.05 57.1 113.65 56.6 113.3 56.8 113.4 56.3 113.35 55.85 112.65 55.8 Q112.45 55.95 112.55 56.25 L112.7 56.75 112.45 56.75 112.25 56.6 Q111.65 57.0 111.95 57.7 L111.55 57.7 111.3 58.15 Q111.15 58.45 110.9 58.45 110.8 58.25 111.0 58.0 L111.25 57.5 111.1 57.2 Q111.65 57.05 111.85 56.4 111.85 56.3 111.7 56.3 L111.5 56.15 Q111.6 55.95 111.8 55.95 L112.2 55.9 Q112.45 55.65 112.25 55.3 112.0 54.9 111.65 55.05 L111.2 55.55 111.1 55.35 111.15 55.1 Q110.5 54.8 110.05 55.35 109.9 55.05 109.45 55.05 L108.85 54.9 Q109.0 54.55 109.8 54.7 L109.9 54.55 110.05 54.4 Q110.5 54.85 111.1 54.7 L111.15 54.45 Q111.05 54.3 111.2 54.25 L111.6 54.6 112.05 54.7 112.35 54.15 Q112.25 53.8 111.95 53.8 L111.5 53.65 Q111.55 53.45 111.85 53.45 L111.8 53.15 111.6 52.8 111.35 52.7 111.1 52.55 111.25 52.2 Q110.75 51.55 110.9 51.3 111.2 51.15 111.55 52.0 L111.95 52.05 Q111.7 52.85 112.3 53.2 L112.65 53.0 112.6 53.5 Q112.45 53.75 112.65 53.95 L113.25 54.0 113.45 53.55 113.3 53.0 Q113.4 52.9 113.7 53.2 114.25 52.7 114.05 52.1 L114.45 52.05 114.7 51.6 115.1 51.3 115.0 51.8 114.75 52.25 114.9 52.6 Q114.3 52.65 114.1 53.35 L114.3 53.45 114.5 53.65 113.85 53.8 Q113.5 54.05 113.7 54.45 113.9 54.9 114.3 54.65 L114.5 54.4 Q114.6 54.2 114.8 54.25 115.0 54.45 114.85 54.65 115.4 55.0 115.9 54.4 L116.1 54.65 116.65 54.7 117.15 54.9 116.7 55.05 116.2 55.05 116.05 55.25 115.95 55.35" fill="url(#gradient98)" fill-rule="evenodd" stroke="none"/>
      <path d="M35.15 155.55 L35.15 155.6 Q34.9 156.2 34.3 156.1 L33.75 155.85 33.6 155.4 Q33.75 154.75 34.25 154.4 34.9 154.0 35.35 154.55 L35.5 155.0 35.25 155.4 35.2 155.5 35.15 155.55" fill="url(#gradient99)" fill-rule="evenodd" stroke="none"/>
      <path d="M202.95 70.6 L204.25 70.35 205.3 70.6 Q205.7 70.8 205.55 71.2 L204.85 71.85 204.55 72.0 203.3 72.3 202.25 72.05 Q201.85 71.8 201.95 71.4 L202.65 70.75 202.95 70.6" fill="url(#gradient100)" fill-rule="evenodd" stroke="none"/>
      <path d="M34.25 121.85 L34.85 121.1 35.2 120.85 35.95 121.05 Q36.15 121.1 35.4 122.35 L34.8 123.1 34.45 123.35 33.7 123.15 33.9 122.5 34.25 121.85" fill="url(#gradient101)" fill-rule="evenodd" stroke="none"/>
      <path d="M45.8 185.25 Q46.45 186.35 45.4 186.9 L44.4 187.05 Q43.8 186.9 43.55 186.45 L43.3 186.0 Q42.65 184.9 43.65 184.35 L44.7 184.25 Q45.3 184.35 45.55 184.8 L45.8 185.25" fill="url(#gradient102)" fill-rule="evenodd" stroke="none"/>
      <path d="M101.9 221.35 L101.55 220.95 101.95 220.1 102.0 219.6 Q101.75 219.1 103.0 219.1 L104.05 219.3 Q104.45 219.4 104.6 219.7 104.8 220.05 104.6 220.5 L104.25 221.3 Q104.1 221.85 102.8 221.65 L101.9 221.35" fill="url(#gradient103)" fill-rule="evenodd" stroke="none"/>
      <path d="M44.9 149.9 L45.4 149.85 45.2 149.3 Q45.2 149.0 45.55 149.05 L45.9 149.5 46.25 149.1 46.55 149.15 46.5 149.65 46.25 150.1 46.7 150.9 47.2 150.15 47.0 149.75 46.8 149.35 Q46.8 149.0 47.15 149.1 L47.5 149.5 47.9 149.05 Q48.3 149.0 48.2 149.3 L48.0 149.8 Q49.0 149.9 48.5 150.35 L47.7 150.4 47.2 151.15 48.1 151.25 48.35 150.9 48.65 150.5 Q48.95 150.35 48.95 150.7 L48.8 151.15 49.45 151.25 Q49.65 151.5 49.45 151.7 L48.8 151.8 Q49.2 152.5 48.75 152.5 L48.4 152.2 48.1 151.75 47.2 151.8 47.65 152.6 48.5 152.6 48.65 152.85 48.55 153.1 48.0 153.15 48.2 153.65 Q48.3 153.9 47.95 153.95 L47.7 153.7 47.5 153.45 47.15 153.85 Q46.7 153.8 46.9 153.45 L47.2 152.85 46.75 152.05 46.25 152.85 46.65 153.6 Q46.55 153.9 46.25 153.85 L45.95 153.45 45.6 153.85 Q45.35 154.05 45.2 153.75 L45.4 153.15 44.9 153.1 44.8 152.85 Q44.8 152.5 45.75 152.6 L46.25 151.8 45.3 151.75 44.9 152.35 44.45 152.3 44.6 151.8 44.3 151.75 44.0 151.7 Q43.8 151.5 44.0 151.25 L44.3 151.25 44.6 151.2 44.45 150.7 44.95 150.65 45.3 151.25 46.25 151.2 45.75 150.4 44.9 150.35 44.8 150.15 44.9 149.9" fill="url(#gradient104)" fill-rule="evenodd" stroke="none"/>
      <path d="M40.95 276.15 L41.3 276.65 41.65 276.25 41.95 276.25 Q42.15 276.5 41.95 276.75 L41.65 277.25 Q41.65 277.55 42.15 278.05 L42.6 277.25 42.45 276.9 42.25 276.5 Q42.25 276.2 42.55 276.25 L42.9 276.65 43.3 276.15 Q43.7 276.15 43.65 276.45 L43.45 276.95 43.95 277.1 Q44.2 277.25 43.95 277.5 L43.1 277.5 42.65 278.3 43.5 278.35 43.8 278.0 Q43.95 277.65 44.05 277.6 44.35 277.5 44.4 277.8 L44.2 278.3 44.85 278.4 Q45.05 278.6 44.85 278.85 L44.2 278.9 44.4 279.35 44.15 279.65 43.85 279.3 43.5 278.85 42.65 278.9 43.1 279.75 43.95 279.75 44.1 279.95 43.95 280.2 43.45 280.3 43.65 280.75 43.4 281.1 43.15 280.85 42.95 280.6 42.6 281.0 Q42.15 280.95 42.3 280.6 L42.6 280.0 42.15 279.2 41.65 279.95 41.85 280.35 42.05 280.75 Q41.95 281.05 41.65 281.0 L41.35 280.6 41.0 281.0 Q40.75 281.2 40.6 280.85 L40.85 280.3 40.3 280.2 40.2 279.95 Q40.25 279.75 40.6 279.75 L41.2 279.75 41.65 278.95 40.75 278.9 40.35 279.45 39.85 279.4 40.05 278.9 39.75 278.85 39.45 278.85 39.35 278.65 39.45 278.4 40.05 278.35 39.85 277.8 Q40.1 277.45 40.35 277.8 L40.75 278.35 41.25 278.4 41.65 278.3 41.2 277.5 40.3 277.5 Q40.15 277.25 40.3 277.0 L40.85 276.95 40.6 276.45 Q40.7 276.1 40.95 276.15" fill="url(#gradient105)" fill-rule="evenodd" stroke="none"/>
      <path d="M19.75 117.8 L20.1 118.3 20.45 117.9 20.75 117.9 20.7 118.4 20.45 118.9 Q20.45 119.2 20.95 119.7 L21.4 118.9 21.2 118.55 21.0 118.15 Q21.0 117.8 21.35 117.9 L21.7 118.3 22.1 117.8 Q22.5 117.8 22.45 118.1 L22.25 118.6 22.75 118.75 Q23.0 118.9 22.75 119.15 L21.9 119.15 21.45 119.95 22.3 120.0 22.6 119.65 22.85 119.25 Q23.15 119.15 23.2 119.45 L23.0 119.95 23.65 120.05 Q23.85 120.25 23.65 120.5 L23.0 120.55 Q23.45 121.3 22.95 121.3 L22.6 120.95 22.3 120.5 21.45 120.55 21.85 121.35 22.75 121.4 22.85 121.6 22.75 121.85 22.25 121.9 22.45 122.4 22.2 122.75 21.95 122.5 21.75 122.25 21.35 122.65 Q20.9 122.6 21.1 122.25 L21.4 121.65 20.95 120.85 20.45 121.6 20.85 122.4 20.45 122.65 20.15 122.25 19.8 122.65 Q19.55 122.85 19.4 122.5 L19.65 121.95 19.1 121.85 19.0 121.6 Q19.0 121.4 19.35 121.4 L19.95 121.35 20.45 120.6 19.5 120.55 19.15 121.1 18.65 121.05 18.85 120.55 18.55 120.5 18.2 120.5 Q18.0 120.25 18.2 120.05 L18.85 120.0 18.65 119.45 Q18.85 119.1 19.15 119.45 L19.5 120.0 20.0 120.05 20.45 119.95 19.95 119.15 19.1 119.15 Q18.9 118.85 19.1 118.65 L19.65 118.6 19.4 118.1 Q19.4 117.75 19.75 117.8" fill="url(#gradient106)" fill-rule="evenodd" stroke="none"/>
      <path d="M307.65 28.45 Q307.05 28.35 306.8 27.9 L306.55 27.4 Q306.3 26.95 306.4 26.5 306.5 26.0 306.95 25.75 L307.95 25.65 Q308.55 25.75 308.8 26.2 L309.05 26.7 Q309.35 27.15 309.25 27.6 L308.7 28.35 307.65 28.45" fill="url(#gradient107)" fill-rule="evenodd" stroke="none"/>
      <path d="M204.8 19.65 L204.55 19.5 204.7 19.2 205.05 19.35 205.1 18.95 205.4 18.9 205.45 19.3 205.8 19.2 205.95 19.3 205.45 19.8 205.45 20.4 206.0 20.15 206.05 19.65 Q206.1 19.4 206.35 19.5 L206.4 19.9 206.8 19.7 206.95 20.0 206.6 20.25 206.9 20.5 206.65 20.65 206.2 20.45 205.65 20.8 206.2 21.1 Q206.5 21.0 206.75 20.85 207.0 20.85 206.9 21.15 L206.6 21.35 206.95 21.55 Q207.05 21.8 206.8 21.85 L206.45 21.7 206.35 22.05 206.2 22.15 Q206.05 22.05 206.05 21.8 L206.0 21.45 205.45 21.15 205.45 21.75 205.95 22.1 205.8 22.35 205.45 22.25 205.4 22.7 Q205.05 22.9 205.05 22.25 204.45 22.5 204.55 22.1 L205.05 21.8 205.05 21.15 204.5 21.4 Q204.4 21.5 204.45 21.75 L204.45 22.05 204.2 22.05 204.1 21.7 203.7 21.85 203.55 21.6 203.9 21.3 203.65 21.1 203.7 20.85 204.0 20.95 204.35 21.1 204.85 20.8 204.3 20.45 203.75 20.75 203.6 20.65 203.6 20.45 203.9 20.25 203.6 20.0 Q203.45 19.9 203.65 19.75 L204.1 19.9 204.15 19.5 Q204.45 19.4 204.5 19.65 L204.5 20.1 205.05 20.45 205.05 19.8 204.8 19.65" fill="url(#gradient108)" fill-rule="evenodd" stroke="none"/>
      <path d="M409.45 274.65 Q407.7 274.7 407.95 274.0 408.25 273.3 409.6 272.75 410.75 272.3 410.5 273.5 410.3 274.65 409.45 274.65" fill="url(#gradient109)" fill-rule="evenodd" stroke="none"/>
      <path d="M445.85 112.9 L446.3 112.7 Q447.0 112.9 447.3 113.3 447.75 113.8 447.25 114.4 L446.35 114.35 446.25 114.25 446.2 114.25 Q445.6 114.1 445.6 113.45 L445.85 112.9" fill="url(#gradient110)" fill-rule="evenodd" stroke="none"/>
      <path d="M424.8 114.7 L425.15 116.0 425.0 117.05 Q424.75 117.5 424.35 117.35 L423.7 116.7 423.5 116.45 Q423.15 115.95 423.15 115.15 423.05 114.55 423.3 114.1 423.6 113.7 423.95 113.8 L424.6 114.45 424.8 114.7" fill="url(#gradient111)" fill-rule="evenodd" stroke="none"/>
      <path d="M433.15 333.55 Q433.45 334.0 433.35 334.55 433.3 335.15 432.85 335.4 L432.4 335.7 Q431.95 336.0 431.5 335.95 L430.7 335.45 Q430.45 335.05 430.5 334.45 430.6 333.85 431.0 333.55 L431.45 333.25 Q432.55 332.6 433.15 333.55" fill="url(#gradient112)" fill-rule="evenodd" stroke="none"/>
      <path d="M441.5 321.25 L441.05 321.15 440.85 320.65 Q440.65 319.9 441.15 319.6 L441.75 319.2 442.15 319.3 442.4 319.8 Q442.5 320.6 442.05 320.85 L441.5 321.25" fill="url(#gradient113)" fill-rule="evenodd" stroke="none"/>
      <path d="M455.7 122.25 Q455.9 121.85 456.1 121.9 L456.95 122.2 457.45 122.25 Q457.75 122.05 457.9 122.55 L458.0 123.2 457.9 124.25 Q457.8 124.75 457.55 124.85 L456.75 124.9 455.9 124.6 Q455.3 124.5 455.5 123.2 L455.7 122.25" fill="url(#gradient114)" fill-rule="evenodd" stroke="none"/>
      <path d="M433.6 276.95 L433.15 277.0 432.4 277.3 431.95 277.4 Q431.4 276.8 431.05 275.55 L431.35 275.0 Q431.75 274.55 432.3 274.6 432.8 274.65 433.15 275.15 433.7 275.85 433.6 276.95" fill="url(#gradient115)" fill-rule="evenodd" stroke="none"/>
      <path d="M431.5 264.2 L431.7 264.35 432.15 265.75 432.1 267.1 431.3 267.95 Q431.15 268.05 430.95 267.4 L430.75 266.65 430.7 265.95 Q430.55 265.45 430.55 264.8 430.55 263.7 430.95 264.2 L431.1 264.45 431.5 264.2" fill="url(#gradient116)" fill-rule="evenodd" stroke="none"/>
      <path d="M439.2 234.0 L439.6 234.05 Q440.35 234.35 439.9 235.2 L438.9 235.85 438.8 235.55 438.45 235.2 438.35 235.05 438.3 234.95 Q438.5 234.45 439.2 234.0" fill="url(#gradient117)" fill-rule="evenodd" stroke="none"/>
      <path d="M455.45 301.45 L456.3 301.75 456.8 301.75 Q457.1 301.6 457.3 302.1 L457.4 302.75 457.25 303.8 456.9 304.4 456.1 304.45 455.25 304.15 Q454.7 303.95 454.85 302.75 L455.05 301.8 455.45 301.45" fill="url(#gradient118)" fill-rule="evenodd" stroke="none"/>
      <path d="M425.05 174.25 Q425.25 173.85 425.65 173.95 L426.3 174.6 426.5 174.9 Q426.85 175.4 426.85 176.15 L426.7 177.2 Q426.45 177.65 426.05 177.5 L425.4 176.85 425.2 176.6 Q424.95 176.15 424.85 175.35 L425.05 174.25" fill="url(#gradient119)" fill-rule="evenodd" stroke="none"/>
      <path d="M478.5 275.45 Q478.8 275.9 478.7 276.45 478.65 277.05 478.2 277.35 L477.75 277.65 476.85 277.9 476.05 277.4 Q475.8 276.95 475.85 276.4 475.95 275.8 476.4 275.5 L476.85 275.2 Q477.3 274.9 477.75 274.95 478.2 275.0 478.5 275.45" fill="url(#gradient120)" fill-rule="evenodd" stroke="none"/>
      <path d="M478.25 173.7 L477.85 173.75 478.0 174.1 477.9 174.25 Q477.8 174.35 477.65 174.15 L477.35 173.8 476.75 173.85 477.05 174.4 477.55 174.4 Q477.8 174.4 477.7 174.7 L477.35 174.75 477.55 175.15 477.3 175.35 477.0 175.0 476.8 175.3 Q476.5 175.3 476.55 175.05 L476.75 174.6 476.35 174.1 476.1 174.65 476.4 175.15 Q476.4 175.5 476.15 175.35 L475.9 175.05 475.7 175.4 475.4 175.3 475.55 174.9 475.15 174.85 475.05 174.7 Q475.15 174.4 475.75 174.5 L476.0 173.9 475.4 173.95 475.1 174.45 474.8 174.35 474.9 174.0 474.5 173.95 Q474.25 173.6 474.9 173.6 474.5 172.95 475.0 173.1 L475.35 173.55 475.95 173.5 475.7 173.0 475.4 172.95 475.05 172.95 Q474.85 172.8 475.0 172.7 L475.35 172.6 475.2 172.2 Q475.2 172.0 475.45 172.0 L475.75 172.35 475.9 172.1 Q476.05 171.95 476.15 172.1 476.3 172.35 475.95 172.8 L476.35 173.25 476.65 172.7 476.3 172.2 476.4 172.05 476.6 172.0 476.8 172.3 477.0 172.0 Q477.15 171.85 477.3 172.0 L477.2 172.45 477.55 172.5 Q477.7 172.8 477.45 172.85 L476.95 172.85 476.7 173.45 477.3 173.45 477.6 172.9 Q477.85 172.8 477.9 173.05 L477.8 173.35 478.15 173.4 Q478.4 173.5 478.25 173.7" fill="url(#gradient121)" fill-rule="evenodd" stroke="none"/>
      <path d="M453.6 264.1 Q453.5 264.5 452.8 264.75 L452.75 265.15 Q452.15 264.95 451.7 265.4 L451.8 265.65 451.9 265.85 451.55 265.85 Q451.35 265.7 451.2 265.7 450.85 265.75 450.85 266.2 450.85 266.65 451.2 266.7 L451.55 266.55 451.85 266.5 451.7 266.9 Q452.1 267.5 452.75 267.2 452.7 267.6 453.1 267.8 L453.6 268.25 453.1 268.2 452.65 267.9 452.3 268.1 Q452.15 267.45 451.55 267.3 L451.4 267.5 451.2 267.65 Q451.15 266.85 450.7 266.8 450.4 266.8 450.15 267.15 450.05 267.5 450.35 267.65 L450.65 268.0 450.25 268.0 450.15 268.3 450.15 268.7 450.35 268.9 450.5 269.15 450.15 269.35 450.05 270.35 449.85 269.95 449.85 269.4 449.5 269.15 Q450.1 268.55 449.75 268.0 L449.35 268.0 449.65 267.6 449.85 267.2 449.35 266.8 448.95 267.1 448.75 267.65 448.5 267.3 Q447.75 267.4 447.7 268.1 447.55 268.15 447.5 268.0 L447.35 267.9 Q446.75 268.45 446.4 268.25 L446.7 267.85 447.15 267.6 447.2 267.2 Q447.7 267.45 448.25 267.0 L448.15 266.8 448.05 266.55 448.7 266.7 Q449.15 266.65 449.15 266.15 449.15 265.7 448.7 265.7 448.35 266.05 448.05 265.85 L448.15 265.6 448.25 265.45 447.8 265.1 447.2 265.15 447.15 264.8 446.75 264.5 446.4 264.1 Q446.7 263.9 447.3 264.45 L447.5 264.35 447.65 264.3 448.45 265.05 448.6 264.9 448.7 264.75 448.9 265.15 449.2 265.55 449.7 265.4 449.85 264.95 449.55 264.65 449.35 264.35 449.75 264.35 Q450.05 263.9 449.5 263.2 L449.8 262.75 449.9 262.05 450.05 262.05 450.15 262.95 450.5 263.25 Q450.25 263.35 450.15 263.7 450.05 264.05 450.25 264.35 L450.65 264.35 450.35 264.75 Q450.1 264.95 450.15 265.2 450.3 265.65 450.7 265.55 L451.05 265.25 451.2 264.75 Q451.45 264.65 451.45 265.05 452.15 265.05 452.3 264.3 L452.6 264.45 453.1 264.2 453.6 264.1" fill="url(#gradient122)" fill-rule="evenodd" stroke="none"/>
    </g>
    <radialGradient cx="0" cy="0" gradientTransform="matrix(0.0906, 0.0, 0.0, -0.0881, 274.3, 72.15)" gradientUnits="userSpaceOnUse" id="gradient0" r="819.2" spreadMethod="pad">
      <stop offset="0.0" stop-color="#ffffff" stop-opacity="0.49803922"/>
      <stop offset="1.0" stop-color="#ffffff" stop-opacity="0.0"/>
    </radialGradient>
    <radialGradient cx="0" cy="0" gradientTransform="matrix(0.1598, -0.0647, -0.0666, -0.1374, 151.75, 135.5)" gradientUnits="userSpaceOnUse" id="gradient1" r="819.2" spreadMethod="pad">
      <stop offset="0.0" stop-color="#ffffff" stop-opacity="0.49803922"/>
      <stop offset="1.0" stop-color="#ffffff" stop-opacity="0.0"/>
    </radialGradient>
    <radialGradient cx="0" cy="0" gradientTransform="matrix(0.0957, 0.0, 0.0, -0.0933, 325.3, 203.9)" gradientUnits="userSpaceOnUse" id="gradient2" r="819.2" spreadMethod="pad">
      <stop offset="0.0" stop-color="#ffffff" stop-opacity="0.49803922"/>
      <stop offset="1.0" stop-color="#ffffff" stop-opacity="0.0"/>
    </radialGradient>
    <radialGradient cx="0" cy="0" gradientTransform="matrix(0.0918, -0.0065, -0.0058, -0.066, 177.2, 56.4)" gradientUnits="userSpaceOnUse" id="gradient3" r="819.2" spreadMethod="pad">
      <stop offset="0.0" stop-color="#ffffff" stop-opacity="0.49803922"/>
      <stop offset="1.0" stop-color="#ffffff" stop-opacity="0.0"/>
    </radialGradient>
    <radialGradient cx="0" cy="0" gradientTransform="matrix(0.0918, -0.0065, -0.0058, -0.066, 145.2, 121.65)" gradientUnits="userSpaceOnUse" id="gradient4" r="819.2" spreadMethod="pad">
      <stop offset="0.0" stop-color="#ffffff" stop-opacity="0.49803922"/>
      <stop offset="1.0" stop-color="#ffffff" stop-opacity="0.0"/>
    </radialGradient>
    <radialGradient cx="0" cy="0" gradientTransform="matrix(0.1116, 0.0246, 0.0185, -0.0919, 233.5, 241.5)" gradientUnits="userSpaceOnUse" id="gradient5" r="819.2" spreadMethod="pad">
      <stop offset="0.0" stop-color="#ffffff" stop-opacity="0.49803922"/>
      <stop offset="1.0" stop-color="#ffffff" stop-opacity="0.0"/>
    </radialGradient>
    <radialGradient cx="0" cy="0" gradientTransform="matrix(0.1288, -0.0089, -0.0093, -0.1063, 266.55, 138.55)" gradientUnits="userSpaceOnUse" id="gradient6" r="819.2" spreadMethod="pad">
      <stop offset="0.0" stop-color="#ffffff" stop-opacity="0.49803922"/>
      <stop offset="1.0" stop-color="#ffffff" stop-opacity="0.0"/>
    </radialGradient>
    <radialGradient cx="0" cy="0" gradientTransform="matrix(0.1354, -0.009, -0.0113, -0.1307, 111.3, 278.15)" gradientUnits="userSpaceOnUse" id="gradient7" r="819.2" spreadMethod="pad">
      <stop offset="0.0" stop-color="#ffffff" stop-opacity="0.49803922"/>
      <stop offset="1.0" stop-color="#ffffff" stop-opacity="0.0"/>
    </radialGradient>
    <radialGradient cx="0" cy="0" gradientTransform="matrix(0.1247, -0.0088, -0.0079, -0.0897, 104.1, 169.6)" gradientUnits="userSpaceOnUse" id="gradient8" r="819.2" spreadMethod="pad">
      <stop offset="0.0" stop-color="#ffffff" stop-opacity="0.49803922"/>
      <stop offset="1.0" stop-color="#ffffff" stop-opacity="0.0"/>
    </radialGradient>
    <radialGradient cx="0" cy="0" gradientTransform="matrix(0.1387, -0.0094, -0.0105, -0.12, 130.8, 387.65)" gradientUnits="userSpaceOnUse" id="gradient9" r="819.2" spreadMethod="pad">
      <stop offset="0.0" stop-color="#ffffff" stop-opacity="0.49803922"/>
      <stop offset="1.0" stop-color="#ffffff" stop-opacity="0.0"/>
    </radialGradient>
    <radialGradient cx="0" cy="0" gradientTransform="matrix(0.1428, -0.0097, -0.0111, -0.1277, 222.6, 313.8)" gradientUnits="userSpaceOnUse" id="gradient10" r="819.2" spreadMethod="pad">
      <stop offset="0.0" stop-color="#ffffff" stop-opacity="0.49803922"/>
      <stop offset="1.0" stop-color="#ffffff" stop-opacity="0.0"/>
    </radialGradient>
    <radialGradient cx="0" cy="0" gradientTransform="matrix(0.1799, -0.0123, -0.0135, -0.1556, 357.7, 299.3)" gradientUnits="userSpaceOnUse" id="gradient11" r="819.2" spreadMethod="pad">
      <stop offset="0.0" stop-color="#ffffff" stop-opacity="0.49803922"/>
      <stop offset="1.0" stop-color="#ffffff" stop-opacity="0.0"/>
    </radialGradient>
    <radialGradient cx="0" cy="0" gradientTransform="matrix(0.1387, -0.0094, -0.0105, -0.12, 381.8, 118.65)" gradientUnits="userSpaceOnUse" id="gradient12" r="819.2" spreadMethod="pad">
      <stop offset="0.0" stop-color="#ffffff" stop-opacity="0.49803922"/>
      <stop offset="1.0" stop-color="#ffffff" stop-opacity="0.0"/>
    </radialGradient>
    <radialGradient cx="0" cy="0" gradientTransform="matrix(0.1053, -0.007, -0.0088, -0.1017, 383.9, 404.9)" gradientUnits="userSpaceOnUse" id="gradient13" r="819.2" spreadMethod="pad">
      <stop offset="0.0" stop-color="#ffffff" stop-opacity="0.49803922"/>
      <stop offset="1.0" stop-color="#ffffff" stop-opacity="0.0"/>
    </radialGradient>
    <radialGradient cx="0" cy="0" gradientTransform="matrix(0.1432, -0.0095, -0.0121, -0.1401, 246.6, 387.05)" gradientUnits="userSpaceOnUse" id="gradient14" r="819.2" spreadMethod="pad">
      <stop offset="0.0" stop-color="#ffffff" stop-opacity="0.49803922"/>
      <stop offset="1.0" stop-color="#ffffff" stop-opacity="0.0"/>
    </radialGradient>
    <radialGradient cx="0" cy="0" gradientTransform="matrix(0.1053, -0.007, -0.0088, -0.1017, 412.9, 189.9)" gradientUnits="userSpaceOnUse" id="gradient15" r="819.2" spreadMethod="pad">
      <stop offset="0.0" stop-color="#ffffff" stop-opacity="0.49803922"/>
      <stop offset="1.0" stop-color="#ffffff" stop-opacity="0.0"/>
    </radialGradient>
    <radialGradient cx="0" cy="0" gradientTransform="matrix(0.1212, -6.0E-4, -0.0026, -0.109, 153.85, 321.55)" gradientUnits="userSpaceOnUse" id="gradient16" r="819.2" spreadMethod="pad">
      <stop offset="0.0" stop-color="#ffffff" stop-opacity="0.91764706"/>
      <stop offset="0.8901960784313725" stop-color="#ffffff" stop-opacity="0.0"/>
    </radialGradient>
    <radialGradient cx="0" cy="0" gradientTransform="matrix(0.1026, -0.0072, -0.0065, -0.0738, 223.2, 142.75)" gradientUnits="userSpaceOnUse" id="gradient17" r="819.2" spreadMethod="pad">
      <stop offset="0.0" stop-color="#ffffff" stop-opacity="0.91764706"/>
      <stop offset="0.8901960784313725" stop-color="#ffffff" stop-opacity="0.0"/>
    </radialGradient>
    <radialGradient cx="0" cy="0" gradientTransform="matrix(0.1227, -0.0087, -0.0078, -0.0883, 288.8, 154.7)" gradientUnits="userSpaceOnUse" id="gradient18" r="819.2" spreadMethod="pad">
      <stop offset="0.0" stop-color="#ffffff" stop-opacity="0.91764706"/>
      <stop offset="0.8901960784313725" stop-color="#ffffff" stop-opacity="0.0"/>
    </radialGradient>
    <radialGradient cx="0" cy="0" gradientTransform="matrix(0.1208, -0.0085, -0.0076, -0.0869, 216.55, 372.05)" gradientUnits="userSpaceOnUse" id="gradient19" r="819.2" spreadMethod="pad">
      <stop offset="0.0" stop-color="#ffffff" stop-opacity="0.91764706"/>
      <stop offset="0.8901960784313725" stop-color="#ffffff" stop-opacity="0.0"/>
    </radialGradient>
    <radialGradient cx="0" cy="0" gradientTransform="matrix(0.1174, -0.0134, -0.0132, -0.0989, 306.05, 348.7)" gradientUnits="userSpaceOnUse" id="gradient20" r="819.2" spreadMethod="pad">
      <stop offset="0.0" stop-color="#ffffff" stop-opacity="0.91764706"/>
      <stop offset="0.8901960784313725" stop-color="#ffffff" stop-opacity="0.0"/>
    </radialGradient>
    <radialGradient cx="0" cy="0" gradientTransform="matrix(0.1262, -0.0144, -0.0142, -0.1063, 243.05, 253.9)" gradientUnits="userSpaceOnUse" id="gradient21" r="819.2" spreadMethod="pad">
      <stop offset="0.0" stop-color="#ffffff" stop-opacity="0.91764706"/>
      <stop offset="0.8901960784313725" stop-color="#ffffff" stop-opacity="0.0"/>
    </radialGradient>
    <radialGradient cx="0" cy="0" gradientTransform="matrix(0.1262, -0.0144, -0.0142, -0.1063, 144.05, 203.9)" gradientUnits="userSpaceOnUse" id="gradient22" r="819.2" spreadMethod="pad">
      <stop offset="0.0" stop-color="#ffffff" stop-opacity="0.91764706"/>
      <stop offset="0.8901960784313725" stop-color="#ffffff" stop-opacity="0.0"/>
    </radialGradient>
    <radialGradient cx="0" cy="0" gradientTransform="matrix(0.1262, -0.0144, -0.0142, -0.1063, 189.05, 124.9)" gradientUnits="userSpaceOnUse" id="gradient23" r="819.2" spreadMethod="pad">
      <stop offset="0.0" stop-color="#ffffff" stop-opacity="0.91764706"/>
      <stop offset="0.8901960784313725" stop-color="#ffffff" stop-opacity="0.0"/>
    </radialGradient>
    <radialGradient cx="0" cy="0" gradientTransform="matrix(0.1262, -0.0144, -0.0142, -0.1063, 323.05, 112.9)" gradientUnits="userSpaceOnUse" id="gradient24" r="819.2" spreadMethod="pad">
      <stop offset="0.0" stop-color="#ffffff" stop-opacity="0.91764706"/>
      <stop offset="0.8901960784313725" stop-color="#ffffff" stop-opacity="0.0"/>
    </radialGradient>
    <radialGradient cx="0" cy="0" gradientTransform="matrix(0.1222, -0.014, -0.0137, -0.103, 375.15, 207.05)" gradientUnits="userSpaceOnUse" id="gradient25" r="819.2" spreadMethod="pad">
      <stop offset="0.0" stop-color="#ffffff" stop-opacity="0.91764706"/>
      <stop offset="0.8901960784313725" stop-color="#ffffff" stop-opacity="0.0"/>
    </radialGradient>
    <radialGradient cx="0" cy="0" gradientTransform="matrix(0.1222, -0.014, -0.0137, -0.103, 361.15, 302.05)" gradientUnits="userSpaceOnUse" id="gradient26" r="819.2" spreadMethod="pad">
      <stop offset="0.0" stop-color="#ffffff" stop-opacity="0.91764706"/>
      <stop offset="0.8901960784313725" stop-color="#ffffff" stop-opacity="0.0"/>
    </radialGradient>
    <radialGradient cx="0" cy="0" gradientTransform="matrix(0.1496, -0.0165, -0.0213, -0.1607, 260.7, 224.6)" gradientUnits="userSpaceOnUse" id="gradient27" r="819.2" spreadMethod="pad">
      <stop offset="0.0" stop-color="#ffffff" stop-opacity="0.91764706"/>
      <stop offset="0.8901960784313725" stop-color="#ffffff" stop-opacity="0.0"/>
    </radialGradient>
    <radialGradient cx="0" cy="0" gradientTransform="matrix(0.1222, -0.014, -0.0137, -0.103, 199.15, 286.05)" gradientUnits="userSpaceOnUse" id="gradient28" r="819.2" spreadMethod="pad">
      <stop offset="0.0" stop-color="#ffffff" stop-opacity="0.91764706"/>
      <stop offset="0.8901960784313725" stop-color="#ffffff" stop-opacity="0.0"/>
    </radialGradient>
    <linearGradient gradientTransform="matrix(0.0973, -0.0337, 0.0183, 0.053, 177.5, 399.55)" gradientUnits="userSpaceOnUse" id="gradient29" spreadMethod="pad" x1="-819.2" x2="819.2">
      <stop offset="0.0" stop-color="#ffffff" stop-opacity="0.30980393"/>
      <stop offset="0.7490196078431373" stop-color="#ffffff" stop-opacity="0.0"/>
    </linearGradient>
    <linearGradient gradientTransform="matrix(0.0976, -0.0379, 0.0119, 0.0306, 174.25, 416.8)" gradientUnits="userSpaceOnUse" id="gradient30" spreadMethod="pad" x1="-819.2" x2="819.2">
      <stop offset="0.0" stop-color="#ffffff" stop-opacity="0.12941177"/>
      <stop offset="0.8470588235294118" stop-color="#ffffff" stop-opacity="0.0"/>
    </linearGradient>
    <linearGradient gradientTransform="matrix(0.1165, -0.0453, 0.0119, 0.0306, 163.75, 361.45)" gradientUnits="userSpaceOnUse" id="gradient31" spreadMethod="pad" x1="-819.2" x2="819.2">
      <stop offset="0.0" stop-color="#ffffff" stop-opacity="0.12941177"/>
      <stop offset="0.8470588235294118" stop-color="#ffffff" stop-opacity="0.0"/>
    </linearGradient>
    <linearGradient gradientTransform="matrix(0.0953, -0.0481, 0.0119, 0.0306, 334.4, 428.45)" gradientUnits="userSpaceOnUse" id="gradient32" spreadMethod="pad" x1="-819.2" x2="819.2">
      <stop offset="0.0" stop-color="#ffffff" stop-opacity="0.12941177"/>
      <stop offset="0.8470588235294118" stop-color="#ffffff" stop-opacity="0.0"/>
    </linearGradient>
    <linearGradient gradientTransform="matrix(0.0465, -0.0205, 0.0119, 0.0306, 343.75, 351.8)" gradientUnits="userSpaceOnUse" id="gradient33" spreadMethod="pad" x1="-819.2" x2="819.2">
      <stop offset="0.0" stop-color="#ffffff" stop-opacity="0.12941177"/>
      <stop offset="0.8470588235294118" stop-color="#ffffff" stop-opacity="0.0"/>
    </linearGradient>
    <linearGradient gradientTransform="matrix(0.0953, -0.0481, 0.0119, 0.0306, 366.1, 436.1)" gradientUnits="userSpaceOnUse" id="gradient34" spreadMethod="pad" x1="-819.2" x2="819.2">
      <stop offset="0.0" stop-color="#ffffff" stop-opacity="0.12941177"/>
      <stop offset="0.8470588235294118" stop-color="#ffffff" stop-opacity="0.0"/>
    </linearGradient>
    <linearGradient gradientTransform="matrix(0.0973, -0.0337, 0.0183, 0.053, 398.85, 434.9)" gradientUnits="userSpaceOnUse" id="gradient35" spreadMethod="pad" x1="-819.2" x2="819.2">
      <stop offset="0.0" stop-color="#ffffff" stop-opacity="0.30980393"/>
      <stop offset="0.7490196078431373" stop-color="#ffffff" stop-opacity="0.0"/>
    </linearGradient>
    <linearGradient gradientTransform="matrix(0.0953, -0.0481, 0.0119, 0.0306, 284.4, 428.45)" gradientUnits="userSpaceOnUse" id="gradient36" spreadMethod="pad" x1="-819.2" x2="819.2">
      <stop offset="0.0" stop-color="#ffffff" stop-opacity="0.12941177"/>
      <stop offset="0.8470588235294118" stop-color="#ffffff" stop-opacity="0.0"/>
    </linearGradient>
    <linearGradient gradientTransform="matrix(0.1184, -0.0515, 0.0183, 0.053, 290.5, 414.9)" gradientUnits="userSpaceOnUse" id="gradient37" spreadMethod="pad" x1="-819.2" x2="819.2">
      <stop offset="0.0" stop-color="#ffffff" stop-opacity="0.30980393"/>
      <stop offset="0.7490196078431373" stop-color="#ffffff" stop-opacity="0.0"/>
    </linearGradient>
    <linearGradient gradientTransform="matrix(0.0973, -0.0337, 0.0183, 0.053, 130.05, 123.5)" gradientUnits="userSpaceOnUse" id="gradient38" spreadMethod="pad" x1="-819.2" x2="819.2">
      <stop offset="0.0" stop-color="#ffffff" stop-opacity="0.30980393"/>
      <stop offset="0.7490196078431373" stop-color="#ffffff" stop-opacity="0.0"/>
    </linearGradient>
    <linearGradient gradientTransform="matrix(0.0976, -0.0379, 0.0119, 0.0306, 399.7, 48.55)" gradientUnits="userSpaceOnUse" id="gradient39" spreadMethod="pad" x1="-819.2" x2="819.2">
      <stop offset="0.0" stop-color="#ffffff" stop-opacity="0.12941177"/>
      <stop offset="0.8470588235294118" stop-color="#ffffff" stop-opacity="0.0"/>
    </linearGradient>
    <linearGradient gradientTransform="matrix(0.1165, -0.0453, 0.0119, 0.0306, 116.25, 85.4)" gradientUnits="userSpaceOnUse" id="gradient40" spreadMethod="pad" x1="-819.2" x2="819.2">
      <stop offset="0.0" stop-color="#ffffff" stop-opacity="0.12941177"/>
      <stop offset="0.8470588235294118" stop-color="#ffffff" stop-opacity="0.0"/>
    </linearGradient>
    <linearGradient gradientTransform="matrix(0.0953, -0.0481, 0.0119, 0.0306, 415.95, 295.4)" gradientUnits="userSpaceOnUse" id="gradient41" spreadMethod="pad" x1="-819.2" x2="819.2">
      <stop offset="0.0" stop-color="#ffffff" stop-opacity="0.12941177"/>
      <stop offset="0.8470588235294118" stop-color="#ffffff" stop-opacity="0.0"/>
    </linearGradient>
    <linearGradient gradientTransform="matrix(0.0465, -0.0205, 0.0119, 0.0306, 426.25, 396.7)" gradientUnits="userSpaceOnUse" id="gradient42" spreadMethod="pad" x1="-819.2" x2="819.2">
      <stop offset="0.0" stop-color="#ffffff" stop-opacity="0.12941177"/>
      <stop offset="0.8470588235294118" stop-color="#ffffff" stop-opacity="0.0"/>
    </linearGradient>
    <linearGradient gradientTransform="matrix(0.0953, -0.0481, 0.0119, 0.0306, 422.6, 350.05)" gradientUnits="userSpaceOnUse" id="gradient43" spreadMethod="pad" x1="-819.2" x2="819.2">
      <stop offset="0.0" stop-color="#ffffff" stop-opacity="0.12941177"/>
      <stop offset="0.8470588235294118" stop-color="#ffffff" stop-opacity="0.0"/>
    </linearGradient>
    <linearGradient gradientTransform="matrix(0.0973, -0.0337, 0.0183, 0.053, 123.35, 250.85)" gradientUnits="userSpaceOnUse" id="gradient44" spreadMethod="pad" x1="-819.2" x2="819.2">
      <stop offset="0.0" stop-color="#ffffff" stop-opacity="0.30980393"/>
      <stop offset="0.7490196078431373" stop-color="#ffffff" stop-opacity="0.0"/>
    </linearGradient>
    <linearGradient gradientTransform="matrix(0.0953, -0.0481, 0.0119, 0.0306, 408.95, 94.4)" gradientUnits="userSpaceOnUse" id="gradient45" spreadMethod="pad" x1="-819.2" x2="819.2">
      <stop offset="0.0" stop-color="#ffffff" stop-opacity="0.12941177"/>
      <stop offset="0.8470588235294118" stop-color="#ffffff" stop-opacity="0.0"/>
    </linearGradient>
    <linearGradient gradientTransform="matrix(0.1184, -0.0515, 0.0183, 0.053, 415.05, 80.85)" gradientUnits="userSpaceOnUse" id="gradient46" spreadMethod="pad" x1="-819.2" x2="819.2">
      <stop offset="0.0" stop-color="#ffffff" stop-opacity="0.30980393"/>
      <stop offset="0.7490196078431373" stop-color="#ffffff" stop-opacity="0.0"/>
    </linearGradient>
    <radialGradient cx="0" cy="0" gradientTransform="matrix(0.0014, 0.0, 0.0, -0.0014, 150.25, 345.3)" gradientUnits="userSpaceOnUse" id="gradient47" r="819.2" spreadMethod="pad">
      <stop offset="0.06666666666666667" stop-color="#ffffff" stop-opacity="0.8"/>
      <stop offset="1.0" stop-color="#ffffff" stop-opacity="0.8"/>
    </radialGradient>
    <radialGradient cx="0" cy="0" gradientTransform="matrix(0.001, 0.0, 0.0, -0.001, 125.2, 460.15)" gradientUnits="userSpaceOnUse" id="gradient48" r="819.2" spreadMethod="pad">
      <stop offset="0.06666666666666667" stop-color="#ffffff" stop-opacity="0.8"/>
      <stop offset="1.0" stop-color="#ffffff" stop-opacity="0.8"/>
    </radialGradient>
    <radialGradient cx="0" cy="0" gradientTransform="matrix(0.0011, 0.0, 0.0, -0.0011, 262.65, 465.3)" gradientUnits="userSpaceOnUse" id="gradient49" r="819.2" spreadMethod="pad">
      <stop offset="0.06666666666666667" stop-color="#ffffff" stop-opacity="0.8"/>
      <stop offset="1.0" stop-color="#ffffff" stop-opacity="0.8"/>
    </radialGradient>
    <radialGradient cx="0" cy="0" gradientTransform="matrix(0.0018, 0.0, 0.0, -0.0018, 273.5, 445.6)" gradientUnits="userSpaceOnUse" id="gradient50" r="819.2" spreadMethod="pad">
      <stop offset="0.06666666666666667" stop-color="#ffffff" stop-opacity="0.8"/>
      <stop offset="1.0" stop-color="#ffffff" stop-opacity="0.8"/>
    </radialGradient>
    <radialGradient cx="0" cy="0" gradientTransform="matrix(0.0015, 0.0, 0.0, -0.0015, 385.55, 435.5)" gradientUnits="userSpaceOnUse" id="gradient51" r="819.2" spreadMethod="pad">
      <stop offset="0.06666666666666667" stop-color="#ffffff" stop-opacity="0.8"/>
      <stop offset="1.0" stop-color="#ffffff" stop-opacity="0.8"/>
    </radialGradient>
    <radialGradient cx="0" cy="0" gradientTransform="matrix(0.0015, 0.0, 0.0, -0.0015, 55.6, 338.4)" gradientUnits="userSpaceOnUse" id="gradient52" r="819.2" spreadMethod="pad">
      <stop offset="0.06666666666666667" stop-color="#ffffff" stop-opacity="0.8"/>
      <stop offset="1.0" stop-color="#ffffff" stop-opacity="0.8"/>
    </radialGradient>
    <radialGradient cx="0" cy="0" gradientTransform="matrix(0.0017, 0.0, 0.0, -0.0017, 87.3, 330.25)" gradientUnits="userSpaceOnUse" id="gradient53" r="819.2" spreadMethod="pad">
      <stop offset="0.06666666666666667" stop-color="#ffffff" stop-opacity="0.8"/>
      <stop offset="1.0" stop-color="#ffffff" stop-opacity="0.8"/>
    </radialGradient>
    <radialGradient cx="0" cy="0" gradientTransform="matrix(0.0011, 0.0, 0.0, -0.0011, 93.75, 346.25)" gradientUnits="userSpaceOnUse" id="gradient54" r="819.2" spreadMethod="pad">
      <stop offset="0.06666666666666667" stop-color="#ffffff" stop-opacity="0.8"/>
      <stop offset="1.0" stop-color="#ffffff" stop-opacity="0.8"/>
    </radialGradient>
    <radialGradient cx="0" cy="0" gradientTransform="matrix(0.0015, 0.0, 0.0, -0.0015, 47.5, 324.85)" gradientUnits="userSpaceOnUse" id="gradient55" r="819.2" spreadMethod="pad">
      <stop offset="0.06666666666666667" stop-color="#ffffff" stop-opacity="0.8"/>
      <stop offset="1.0" stop-color="#ffffff" stop-opacity="0.8"/>
    </radialGradient>
    <radialGradient cx="0" cy="0" gradientTransform="matrix(0.0019, 0.0, 0.0, -0.0019, 248.85, 468.35)" gradientUnits="userSpaceOnUse" id="gradient56" r="819.2" spreadMethod="pad">
      <stop offset="0.06666666666666667" stop-color="#ffffff" stop-opacity="0.8"/>
      <stop offset="1.0" stop-color="#ffffff" stop-opacity="0.8"/>
    </radialGradient>
    <radialGradient cx="0" cy="0" gradientTransform="matrix(0.0018, 0.0, 0.0, -0.0018, 350.15, 467.85)" gradientUnits="userSpaceOnUse" id="gradient57" r="819.2" spreadMethod="pad">
      <stop offset="0.06666666666666667" stop-color="#ffffff" stop-opacity="0.8"/>
      <stop offset="1.0" stop-color="#ffffff" stop-opacity="0.8"/>
    </radialGradient>
    <radialGradient cx="0" cy="0" gradientTransform="matrix(0.0016, 0.0, 0.0, -0.0016, 135.65, 363.15)" gradientUnits="userSpaceOnUse" id="gradient58" r="819.2" spreadMethod="pad">
      <stop offset="0.06666666666666667" stop-color="#ffffff" stop-opacity="0.8"/>
      <stop offset="1.0" stop-color="#ffffff" stop-opacity="0.8"/>
    </radialGradient>
    <radialGradient cx="0" cy="0" gradientTransform="matrix(0.0018, 0.0, 0.0, -0.0018, 144.7, 367.9)" gradientUnits="userSpaceOnUse" id="gradient59" r="819.2" spreadMethod="pad">
      <stop offset="0.06666666666666667" stop-color="#ffffff" stop-opacity="0.8"/>
      <stop offset="1.0" stop-color="#ffffff" stop-opacity="0.8"/>
    </radialGradient>
    <radialGradient cx="0" cy="0" gradientTransform="matrix(6.0E-4, 0.0, 0.0, -6.0E-4, 32.6, 352.95)" gradientUnits="userSpaceOnUse" id="gradient60" r="819.2" spreadMethod="pad">
      <stop offset="0.06666666666666667" stop-color="#ffffff" stop-opacity="0.8"/>
      <stop offset="1.0" stop-color="#ffffff" stop-opacity="0.8"/>
    </radialGradient>
    <radialGradient cx="0" cy="0" gradientTransform="matrix(0.0019, 0.0, 0.0, -0.0019, 357.1, 435.35)" gradientUnits="userSpaceOnUse" id="gradient61" r="819.2" spreadMethod="pad">
      <stop offset="0.06666666666666667" stop-color="#ffffff" stop-opacity="0.8"/>
      <stop offset="1.0" stop-color="#ffffff" stop-opacity="0.8"/>
    </radialGradient>
    <radialGradient cx="0" cy="0" gradientTransform="matrix(0.0032, 0.0, 0.0, -0.0032, 293.9, 461.65)" gradientUnits="userSpaceOnUse" id="gradient62" r="819.2" spreadMethod="pad">
      <stop offset="0.06666666666666667" stop-color="#ffffff" stop-opacity="0.8"/>
      <stop offset="1.0" stop-color="#ffffff" stop-opacity="0.8"/>
    </radialGradient>
    <radialGradient cx="0" cy="0" gradientTransform="matrix(0.001, 0.0, 0.0, -0.001, 166.0, 391.8)" gradientUnits="userSpaceOnUse" id="gradient63" r="819.2" spreadMethod="pad">
      <stop offset="0.06666666666666667" stop-color="#ffffff" stop-opacity="0.8"/>
      <stop offset="1.0" stop-color="#ffffff" stop-opacity="0.8"/>
    </radialGradient>
    <radialGradient cx="0" cy="0" gradientTransform="matrix(0.0011, 0.0, 0.0, -0.0011, 393.1, 365.4)" gradientUnits="userSpaceOnUse" id="gradient64" r="819.2" spreadMethod="pad">
      <stop offset="0.06666666666666667" stop-color="#ffffff" stop-opacity="0.8"/>
      <stop offset="1.0" stop-color="#ffffff" stop-opacity="0.8"/>
    </radialGradient>
    <radialGradient cx="0" cy="0" gradientTransform="matrix(0.0018, 0.0, 0.0, -0.0018, 398.95, 397.1)" gradientUnits="userSpaceOnUse" id="gradient65" r="819.2" spreadMethod="pad">
      <stop offset="0.06666666666666667" stop-color="#ffffff" stop-opacity="0.8"/>
      <stop offset="1.0" stop-color="#ffffff" stop-opacity="0.8"/>
    </radialGradient>
    <radialGradient cx="0" cy="0" gradientTransform="matrix(0.0019, 0.0, 0.0, -0.0019, 100.05, 367.9)" gradientUnits="userSpaceOnUse" id="gradient66" r="819.2" spreadMethod="pad">
      <stop offset="0.06666666666666667" stop-color="#ffffff" stop-opacity="0.8"/>
      <stop offset="1.0" stop-color="#ffffff" stop-opacity="0.8"/>
    </radialGradient>
    <radialGradient cx="0" cy="0" gradientTransform="matrix(0.0047, 0.0, 0.0, -0.0047, 293.2, 472.95)" gradientUnits="userSpaceOnUse" id="gradient67" r="819.2" spreadMethod="pad">
      <stop offset="0.06666666666666667" stop-color="#ffffff" stop-opacity="0.8"/>
      <stop offset="1.0" stop-color="#ffffff" stop-opacity="0.8"/>
    </radialGradient>
    <radialGradient cx="0" cy="0" gradientTransform="matrix(0.0011, 0.0, 0.0, -0.0011, 411.1, 424.85)" gradientUnits="userSpaceOnUse" id="gradient68" r="819.2" spreadMethod="pad">
      <stop offset="0.06666666666666667" stop-color="#ffffff" stop-opacity="0.8"/>
      <stop offset="1.0" stop-color="#ffffff" stop-opacity="0.8"/>
    </radialGradient>
    <radialGradient cx="0" cy="0" gradientTransform="matrix(0.0018, 0.0, 0.0, -0.0018, 222.55, 413.55)" gradientUnits="userSpaceOnUse" id="gradient69" r="819.2" spreadMethod="pad">
      <stop offset="0.06666666666666667" stop-color="#ffffff" stop-opacity="0.8"/>
      <stop offset="1.0" stop-color="#ffffff" stop-opacity="0.8"/>
    </radialGradient>
    <radialGradient cx="0" cy="0" gradientTransform="matrix(0.0015, 0.0, 0.0, -0.0015, 394.4, 453.45)" gradientUnits="userSpaceOnUse" id="gradient70" r="819.2" spreadMethod="pad">
      <stop offset="0.06666666666666667" stop-color="#ffffff" stop-opacity="0.8"/>
      <stop offset="1.0" stop-color="#ffffff" stop-opacity="0.8"/>
    </radialGradient>
    <radialGradient cx="0" cy="0" gradientTransform="matrix(0.0017, 0.0, 0.0, -0.0017, 417.55, 393.5)" gradientUnits="userSpaceOnUse" id="gradient71" r="819.2" spreadMethod="pad">
      <stop offset="0.06666666666666667" stop-color="#ffffff" stop-opacity="0.8"/>
      <stop offset="1.0" stop-color="#ffffff" stop-opacity="0.8"/>
    </radialGradient>
    <radialGradient cx="0" cy="0" gradientTransform="matrix(0.0011, 0.0, 0.0, -0.0011, 134.3, 441.8)" gradientUnits="userSpaceOnUse" id="gradient72" r="819.2" spreadMethod="pad">
      <stop offset="0.06666666666666667" stop-color="#ffffff" stop-opacity="0.8"/>
      <stop offset="1.0" stop-color="#ffffff" stop-opacity="0.8"/>
    </radialGradient>
    <radialGradient cx="0" cy="0" gradientTransform="matrix(0.0019, 0.0, 0.0, -0.0019, 384.0, 334.25)" gradientUnits="userSpaceOnUse" id="gradient73" r="819.2" spreadMethod="pad">
      <stop offset="0.06666666666666667" stop-color="#ffffff" stop-opacity="0.8"/>
      <stop offset="1.0" stop-color="#ffffff" stop-opacity="0.8"/>
    </radialGradient>
    <radialGradient cx="0" cy="0" gradientTransform="matrix(0.0032, 0.0, 0.0, -0.0032, 99.65, 445.5)" gradientUnits="userSpaceOnUse" id="gradient74" r="819.2" spreadMethod="pad">
      <stop offset="0.06666666666666667" stop-color="#ffffff" stop-opacity="0.8"/>
      <stop offset="1.0" stop-color="#ffffff" stop-opacity="0.8"/>
    </radialGradient>
    <radialGradient cx="0" cy="0" gradientTransform="matrix(0.0032, 0.0, 0.0, -0.0032, 101.95, 426.75)" gradientUnits="userSpaceOnUse" id="gradient75" r="819.2" spreadMethod="pad">
      <stop offset="0.06666666666666667" stop-color="#ffffff" stop-opacity="0.8"/>
      <stop offset="1.0" stop-color="#ffffff" stop-opacity="0.8"/>
    </radialGradient>
    <radialGradient cx="0" cy="0" gradientTransform="matrix(0.0032, 0.0, 0.0, -0.0032, 73.0, 396.2)" gradientUnits="userSpaceOnUse" id="gradient76" r="819.2" spreadMethod="pad">
      <stop offset="0.06666666666666667" stop-color="#ffffff" stop-opacity="0.8"/>
      <stop offset="1.0" stop-color="#ffffff" stop-opacity="0.8"/>
    </radialGradient>
    <radialGradient cx="0" cy="0" gradientTransform="matrix(0.0017, 0.0, 0.0, -0.0017, 110.3, 400.25)" gradientUnits="userSpaceOnUse" id="gradient77" r="819.2" spreadMethod="pad">
      <stop offset="0.06666666666666667" stop-color="#ffffff" stop-opacity="0.8"/>
      <stop offset="1.0" stop-color="#ffffff" stop-opacity="0.8"/>
    </radialGradient>
    <radialGradient cx="0" cy="0" gradientTransform="matrix(0.0022, 0.0, 0.0, -0.0022, 196.15, 456.65)" gradientUnits="userSpaceOnUse" id="gradient78" r="819.2" spreadMethod="pad">
      <stop offset="0.06666666666666667" stop-color="#ffffff" stop-opacity="0.8"/>
      <stop offset="1.0" stop-color="#ffffff" stop-opacity="0.8"/>
    </radialGradient>
    <radialGradient cx="0" cy="0" gradientTransform="matrix(-0.0013, 7.0E-4, 7.0E-4, 0.0013, 300.45, 94.65)" gradientUnits="userSpaceOnUse" id="gradient79" r="819.2" spreadMethod="pad">
      <stop offset="0.06666666666666667" stop-color="#ffffff" stop-opacity="0.8"/>
      <stop offset="1.0" stop-color="#ffffff" stop-opacity="0.8"/>
    </radialGradient>
    <radialGradient cx="0" cy="0" gradientTransform="matrix(-0.001, 6.0E-4, 6.0E-4, 0.001, 143.3, 46.35)" gradientUnits="userSpaceOnUse" id="gradient80" r="819.2" spreadMethod="pad">
      <stop offset="0.06666666666666667" stop-color="#ffffff" stop-opacity="0.8"/>
      <stop offset="1.0" stop-color="#ffffff" stop-opacity="0.8"/>
    </radialGradient>
    <radialGradient cx="0" cy="0" gradientTransform="matrix(-0.0015, 9.0E-4, 9.0E-4, 0.0015, 143.65, 68.8)" gradientUnits="userSpaceOnUse" id="gradient81" r="819.2" spreadMethod="pad">
      <stop offset="0.06666666666666667" stop-color="#ffffff" stop-opacity="0.8"/>
      <stop offset="1.0" stop-color="#ffffff" stop-opacity="0.8"/>
    </radialGradient>
    <radialGradient cx="0" cy="0" gradientTransform="matrix(-0.0013, 7.0E-4, 7.0E-4, 0.0013, 51.45, 133.25)" gradientUnits="userSpaceOnUse" id="gradient82" r="819.2" spreadMethod="pad">
      <stop offset="0.06666666666666667" stop-color="#ffffff" stop-opacity="0.8"/>
      <stop offset="1.0" stop-color="#ffffff" stop-opacity="0.8"/>
    </radialGradient>
    <radialGradient cx="0" cy="0" gradientTransform="matrix(-0.0013, 7.0E-4, 7.0E-4, 0.0013, 386.0, 53.55)" gradientUnits="userSpaceOnUse" id="gradient83" r="819.2" spreadMethod="pad">
      <stop offset="0.06666666666666667" stop-color="#ffffff" stop-opacity="0.8"/>
      <stop offset="1.0" stop-color="#ffffff" stop-opacity="0.8"/>
    </radialGradient>
    <radialGradient cx="0" cy="0" gradientTransform="matrix(-0.0015, 9.0E-4, 9.0E-4, 0.0015, 362.55, 76.35)" gradientUnits="userSpaceOnUse" id="gradient84" r="819.2" spreadMethod="pad">
      <stop offset="0.06666666666666667" stop-color="#ffffff" stop-opacity="0.8"/>
      <stop offset="1.0" stop-color="#ffffff" stop-opacity="0.8"/>
    </radialGradient>
    <radialGradient cx="0" cy="0" gradientTransform="matrix(-9.0E-4, 5.0E-4, 5.0E-4, 9.0E-4, 349.0, 65.7)" gradientUnits="userSpaceOnUse" id="gradient85" r="819.2" spreadMethod="pad">
      <stop offset="0.06666666666666667" stop-color="#ffffff" stop-opacity="0.8"/>
      <stop offset="1.0" stop-color="#ffffff" stop-opacity="0.8"/>
    </radialGradient>
    <radialGradient cx="0" cy="0" gradientTransform="matrix(-0.0013, 7.0E-4, 7.0E-4, 0.0013, 399.8, 61.3)" gradientUnits="userSpaceOnUse" id="gradient86" r="819.2" spreadMethod="pad">
      <stop offset="0.06666666666666667" stop-color="#ffffff" stop-opacity="0.8"/>
      <stop offset="1.0" stop-color="#ffffff" stop-opacity="0.8"/>
    </radialGradient>
    <radialGradient cx="0" cy="0" gradientTransform="matrix(-0.0016, 9.0E-4, 9.0E-4, 0.0016, 153.7, 36.85)" gradientUnits="userSpaceOnUse" id="gradient87" r="819.2" spreadMethod="pad">
      <stop offset="0.06666666666666667" stop-color="#ffffff" stop-opacity="0.8"/>
      <stop offset="1.0" stop-color="#ffffff" stop-opacity="0.8"/>
    </radialGradient>
    <radialGradient cx="0" cy="0" gradientTransform="matrix(-0.0015, 9.0E-4, 9.0E-4, 0.0015, 66.05, 87.65)" gradientUnits="userSpaceOnUse" id="gradient88" r="819.2" spreadMethod="pad">
      <stop offset="0.06666666666666667" stop-color="#ffffff" stop-opacity="0.8"/>
      <stop offset="1.0" stop-color="#ffffff" stop-opacity="0.8"/>
    </radialGradient>
    <radialGradient cx="0" cy="0" gradientTransform="matrix(-0.0014, 8.0E-4, 8.0E-4, 0.0014, 304.25, 71.85)" gradientUnits="userSpaceOnUse" id="gradient89" r="819.2" spreadMethod="pad">
      <stop offset="0.06666666666666667" stop-color="#ffffff" stop-opacity="0.8"/>
      <stop offset="1.0" stop-color="#ffffff" stop-opacity="0.8"/>
    </radialGradient>
    <radialGradient cx="0" cy="0" gradientTransform="matrix(-0.0016, 9.0E-4, 9.0E-4, 0.0016, 294.05, 72.25)" gradientUnits="userSpaceOnUse" id="gradient90" r="819.2" spreadMethod="pad">
      <stop offset="0.06666666666666667" stop-color="#ffffff" stop-opacity="0.8"/>
      <stop offset="1.0" stop-color="#ffffff" stop-opacity="0.8"/>
    </radialGradient>
    <radialGradient cx="0" cy="0" gradientTransform="matrix(-5.0E-4, 3.0E-4, 3.0E-4, 5.0E-4, 398.75, 29.55)" gradientUnits="userSpaceOnUse" id="gradient91" r="819.2" spreadMethod="pad">
      <stop offset="0.06666666666666667" stop-color="#ffffff" stop-opacity="0.8"/>
      <stop offset="1.0" stop-color="#ffffff" stop-opacity="0.8"/>
    </radialGradient>
    <radialGradient cx="0" cy="0" gradientTransform="matrix(-0.0016, 9.0E-4, 9.0E-4, 0.0016, 76.2, 119.25)" gradientUnits="userSpaceOnUse" id="gradient92" r="819.2" spreadMethod="pad">
      <stop offset="0.06666666666666667" stop-color="#ffffff" stop-opacity="0.8"/>
      <stop offset="1.0" stop-color="#ffffff" stop-opacity="0.8"/>
    </radialGradient>
    <radialGradient cx="0" cy="0" gradientTransform="matrix(-0.0028, 0.0016, 0.0016, 0.0028, 117.95, 65.0)" gradientUnits="userSpaceOnUse" id="gradient93" r="819.2" spreadMethod="pad">
      <stop offset="0.06666666666666667" stop-color="#ffffff" stop-opacity="0.8"/>
      <stop offset="1.0" stop-color="#ffffff" stop-opacity="0.8"/>
    </radialGradient>
    <radialGradient cx="0" cy="0" gradientTransform="matrix(-9.0E-4, 5.0E-4, 5.0E-4, 9.0E-4, 263.65, 62.1)" gradientUnits="userSpaceOnUse" id="gradient94" r="819.2" spreadMethod="pad">
      <stop offset="0.06666666666666667" stop-color="#ffffff" stop-opacity="0.8"/>
      <stop offset="1.0" stop-color="#ffffff" stop-opacity="0.8"/>
    </radialGradient>
    <radialGradient cx="0" cy="0" gradientTransform="matrix(-0.001, 6.0E-4, 6.0E-4, 0.001, 79.75, 197.85)" gradientUnits="userSpaceOnUse" id="gradient95" r="819.2" spreadMethod="pad">
      <stop offset="0.06666666666666667" stop-color="#ffffff" stop-opacity="0.8"/>
      <stop offset="1.0" stop-color="#ffffff" stop-opacity="0.8"/>
    </radialGradient>
    <radialGradient cx="0" cy="0" gradientTransform="matrix(-0.0015, 9.0E-4, 9.0E-4, 0.0015, 58.9, 173.25)" gradientUnits="userSpaceOnUse" id="gradient96" r="819.2" spreadMethod="pad">
      <stop offset="0.06666666666666667" stop-color="#ffffff" stop-opacity="0.8"/>
      <stop offset="1.0" stop-color="#ffffff" stop-opacity="0.8"/>
    </radialGradient>
    <radialGradient cx="0" cy="0" gradientTransform="matrix(-0.0016, 9.0E-4, 9.0E-4, 0.0016, 332.75, 50.05)" gradientUnits="userSpaceOnUse" id="gradient97" r="819.2" spreadMethod="pad">
      <stop offset="0.06666666666666667" stop-color="#ffffff" stop-opacity="0.8"/>
      <stop offset="1.0" stop-color="#ffffff" stop-opacity="0.8"/>
    </radialGradient>
    <radialGradient cx="0" cy="0" gradientTransform="matrix(-0.0041, 0.0023, 0.0023, 0.0041, 112.95, 54.85)" gradientUnits="userSpaceOnUse" id="gradient98" r="819.2" spreadMethod="pad">
      <stop offset="0.06666666666666667" stop-color="#ffffff" stop-opacity="0.8"/>
      <stop offset="1.0" stop-color="#ffffff" stop-opacity="0.8"/>
    </radialGradient>
    <radialGradient cx="0" cy="0" gradientTransform="matrix(-0.001, 6.0E-4, 6.0E-4, 0.001, 34.55, 155.2)" gradientUnits="userSpaceOnUse" id="gradient99" r="819.2" spreadMethod="pad">
      <stop offset="0.06666666666666667" stop-color="#ffffff" stop-opacity="0.8"/>
      <stop offset="1.0" stop-color="#ffffff" stop-opacity="0.8"/>
    </radialGradient>
    <radialGradient cx="0" cy="0" gradientTransform="matrix(-0.0015, 9.0E-4, 9.0E-4, 0.0015, 203.75, 71.3)" gradientUnits="userSpaceOnUse" id="gradient100" r="819.2" spreadMethod="pad">
      <stop offset="0.06666666666666667" stop-color="#ffffff" stop-opacity="0.8"/>
      <stop offset="1.0" stop-color="#ffffff" stop-opacity="0.8"/>
    </radialGradient>
    <radialGradient cx="0" cy="0" gradientTransform="matrix(-0.0013, 7.0E-4, 7.0E-4, 0.0013, 34.85, 122.1)" gradientUnits="userSpaceOnUse" id="gradient101" r="819.2" spreadMethod="pad">
      <stop offset="0.06666666666666667" stop-color="#ffffff" stop-opacity="0.8"/>
      <stop offset="1.0" stop-color="#ffffff" stop-opacity="0.8"/>
    </radialGradient>
    <radialGradient cx="0" cy="0" gradientTransform="matrix(-0.0015, 9.0E-4, 9.0E-4, 0.0015, 44.55, 185.65)" gradientUnits="userSpaceOnUse" id="gradient102" r="819.2" spreadMethod="pad">
      <stop offset="0.06666666666666667" stop-color="#ffffff" stop-opacity="0.8"/>
      <stop offset="1.0" stop-color="#ffffff" stop-opacity="0.8"/>
    </radialGradient>
    <radialGradient cx="0" cy="0" gradientTransform="matrix(-0.0016, 9.0E-4, 9.0E-4, 0.0016, 103.1, 220.4)" gradientUnits="userSpaceOnUse" id="gradient103" r="819.2" spreadMethod="pad">
      <stop offset="0.06666666666666667" stop-color="#ffffff" stop-opacity="0.8"/>
      <stop offset="1.0" stop-color="#ffffff" stop-opacity="0.8"/>
    </radialGradient>
    <radialGradient cx="0" cy="0" gradientTransform="matrix(0.0032, 0.0, 0.0, -0.0032, 46.7, 151.5)" gradientUnits="userSpaceOnUse" id="gradient104" r="819.2" spreadMethod="pad">
      <stop offset="0.06666666666666667" stop-color="#ffffff" stop-opacity="0.8"/>
      <stop offset="1.0" stop-color="#ffffff" stop-opacity="0.8"/>
    </radialGradient>
    <radialGradient cx="0" cy="0" gradientTransform="matrix(0.0032, 0.0, 0.0, -0.0032, 42.15, 278.6)" gradientUnits="userSpaceOnUse" id="gradient105" r="819.2" spreadMethod="pad">
      <stop offset="0.06666666666666667" stop-color="#ffffff" stop-opacity="0.8"/>
      <stop offset="1.0" stop-color="#ffffff" stop-opacity="0.8"/>
    </radialGradient>
    <radialGradient cx="0" cy="0" gradientTransform="matrix(0.0032, 0.0, 0.0, -0.0032, 20.9, 120.25)" gradientUnits="userSpaceOnUse" id="gradient106" r="819.2" spreadMethod="pad">
      <stop offset="0.06666666666666667" stop-color="#ffffff" stop-opacity="0.8"/>
      <stop offset="1.0" stop-color="#ffffff" stop-opacity="0.8"/>
    </radialGradient>
    <radialGradient cx="0" cy="0" gradientTransform="matrix(-0.0015, 9.0E-4, 9.0E-4, 0.0015, 307.8, 27.05)" gradientUnits="userSpaceOnUse" id="gradient107" r="819.2" spreadMethod="pad">
      <stop offset="0.06666666666666667" stop-color="#ffffff" stop-opacity="0.8"/>
      <stop offset="1.0" stop-color="#ffffff" stop-opacity="0.8"/>
    </radialGradient>
    <radialGradient cx="0" cy="0" gradientTransform="matrix(-0.0019, 0.0011, 0.0011, 0.0019, 205.25, 20.8)" gradientUnits="userSpaceOnUse" id="gradient108" r="819.2" spreadMethod="pad">
      <stop offset="0.06666666666666667" stop-color="#ffffff" stop-opacity="0.8"/>
      <stop offset="1.0" stop-color="#ffffff" stop-opacity="0.8"/>
    </radialGradient>
    <radialGradient cx="0" cy="0" gradientTransform="matrix(-8.0E-4, -0.0012, -0.0012, 8.0E-4, 409.35, 273.8)" gradientUnits="userSpaceOnUse" id="gradient109" r="819.2" spreadMethod="pad">
      <stop offset="0.06666666666666667" stop-color="#ffffff" stop-opacity="0.8"/>
      <stop offset="1.0" stop-color="#ffffff" stop-opacity="0.8"/>
    </radialGradient>
    <radialGradient cx="0" cy="0" gradientTransform="matrix(-6.0E-4, -9.0E-4, -9.0E-4, 6.0E-4, 446.55, 113.65)" gradientUnits="userSpaceOnUse" id="gradient110" r="819.2" spreadMethod="pad">
      <stop offset="0.06666666666666667" stop-color="#ffffff" stop-opacity="0.8"/>
      <stop offset="1.0" stop-color="#ffffff" stop-opacity="0.8"/>
    </radialGradient>
    <radialGradient cx="0" cy="0" gradientTransform="matrix(-0.001, -0.0015, -0.0015, 0.001, 424.15, 115.6)" gradientUnits="userSpaceOnUse" id="gradient111" r="819.2" spreadMethod="pad">
      <stop offset="0.06666666666666667" stop-color="#ffffff" stop-opacity="0.8"/>
      <stop offset="1.0" stop-color="#ffffff" stop-opacity="0.8"/>
    </radialGradient>
    <radialGradient cx="0" cy="0" gradientTransform="matrix(-0.001, -0.0014, -0.0014, 0.001, 431.95, 334.5)" gradientUnits="userSpaceOnUse" id="gradient112" r="819.2" spreadMethod="pad">
      <stop offset="0.06666666666666667" stop-color="#ffffff" stop-opacity="0.8"/>
      <stop offset="1.0" stop-color="#ffffff" stop-opacity="0.8"/>
    </radialGradient>
    <radialGradient cx="0" cy="0" gradientTransform="matrix(-6.0E-4, -9.0E-4, -9.0E-4, 6.0E-4, 441.6, 320.2)" gradientUnits="userSpaceOnUse" id="gradient113" r="819.2" spreadMethod="pad">
      <stop offset="0.06666666666666667" stop-color="#ffffff" stop-opacity="0.8"/>
      <stop offset="1.0" stop-color="#ffffff" stop-opacity="0.8"/>
    </radialGradient>
    <radialGradient cx="0" cy="0" gradientTransform="matrix(-0.0011, -0.0016, -0.0016, 0.0011, 456.75, 123.4)" gradientUnits="userSpaceOnUse" id="gradient114" r="819.2" spreadMethod="pad">
      <stop offset="0.06666666666666667" stop-color="#ffffff" stop-opacity="0.8"/>
      <stop offset="1.0" stop-color="#ffffff" stop-opacity="0.8"/>
    </radialGradient>
    <radialGradient cx="0" cy="0" gradientTransform="matrix(-9.0E-4, -0.0013, -0.0013, 9.0E-4, 432.35, 276.0)" gradientUnits="userSpaceOnUse" id="gradient115" r="819.2" spreadMethod="pad">
      <stop offset="0.06666666666666667" stop-color="#ffffff" stop-opacity="0.8"/>
      <stop offset="1.0" stop-color="#ffffff" stop-opacity="0.8"/>
    </radialGradient>
    <radialGradient cx="0" cy="0" gradientTransform="matrix(-0.001, -0.0015, -0.0015, 0.001, 431.25, 265.85)" gradientUnits="userSpaceOnUse" id="gradient116" r="819.2" spreadMethod="pad">
      <stop offset="0.06666666666666667" stop-color="#ffffff" stop-opacity="0.8"/>
      <stop offset="1.0" stop-color="#ffffff" stop-opacity="0.8"/>
    </radialGradient>
    <radialGradient cx="0" cy="0" gradientTransform="matrix(-5.0E-4, -8.0E-4, -8.0E-4, 5.0E-4, 439.25, 234.85)" gradientUnits="userSpaceOnUse" id="gradient117" r="819.2" spreadMethod="pad">
      <stop offset="0.06666666666666667" stop-color="#ffffff" stop-opacity="0.8"/>
      <stop offset="1.0" stop-color="#ffffff" stop-opacity="0.8"/>
    </radialGradient>
    <radialGradient cx="0" cy="0" gradientTransform="matrix(-0.0011, -0.0016, -0.0016, 0.0011, 456.1, 302.95)" gradientUnits="userSpaceOnUse" id="gradient118" r="819.2" spreadMethod="pad">
      <stop offset="0.06666666666666667" stop-color="#ffffff" stop-opacity="0.8"/>
      <stop offset="1.0" stop-color="#ffffff" stop-opacity="0.8"/>
    </radialGradient>
    <radialGradient cx="0" cy="0" gradientTransform="matrix(-0.001, -0.0015, -0.0015, 0.001, 425.85, 175.75)" gradientUnits="userSpaceOnUse" id="gradient119" r="819.2" spreadMethod="pad">
      <stop offset="0.06666666666666667" stop-color="#ffffff" stop-opacity="0.8"/>
      <stop offset="1.0" stop-color="#ffffff" stop-opacity="0.8"/>
    </radialGradient>
    <radialGradient cx="0" cy="0" gradientTransform="matrix(-0.001, -0.0014, -0.0014, 0.001, 477.3, 276.4)" gradientUnits="userSpaceOnUse" id="gradient120" r="819.2" spreadMethod="pad">
      <stop offset="0.06666666666666667" stop-color="#ffffff" stop-opacity="0.8"/>
      <stop offset="1.0" stop-color="#ffffff" stop-opacity="0.8"/>
    </radialGradient>
    <radialGradient cx="0" cy="0" gradientTransform="matrix(-0.0012, -0.0018, -0.0018, 0.0012, 476.35, 173.7)" gradientUnits="userSpaceOnUse" id="gradient121" r="819.2" spreadMethod="pad">
      <stop offset="0.06666666666666667" stop-color="#ffffff" stop-opacity="0.8"/>
      <stop offset="1.0" stop-color="#ffffff" stop-opacity="0.8"/>
    </radialGradient>
    <radialGradient cx="0" cy="0" gradientTransform="matrix(0.0047, 0.0, 0.0, -0.0047, 450.0, 266.2)" gradientUnits="userSpaceOnUse" id="gradient122" r="819.2" spreadMethod="pad">
      <stop offset="0.06666666666666667" stop-color="#ffffff" stop-opacity="0.8"/>
      <stop offset="1.0" stop-color="#ffffff" stop-opacity="0.8"/>
    </radialGradient>
  </defs>
</svg>
