<?xml version="1.0" encoding="UTF-8" standalone="no"?>
<svg xmlns:xlink="http://www.w3.org/1999/xlink" height="106.45px" width="104.75px" xmlns="http://www.w3.org/2000/svg">
  <g transform="matrix(1.0, 0.0, 0.0, 1.0, 0.0, 0.0)">
    <use height="29.45" transform="matrix(1.0, 0.0, 0.0, 1.0, 0.0, 77.0)" width="104.75" xlink:href="#sprite0"/>
    <use height="23.55" transform="matrix(1.0, 0.0, 0.0, 1.0, 5.15, 81.0)" width="95.0" xlink:href="#sprite1"/>
    <use height="101.8" transform="matrix(1.0, 0.0, 0.0, 1.0, 11.75, 0.0)" width="82.15" xlink:href="#shape2"/>
    <use height="101.8" transform="matrix(1.0, 0.0, 0.0, 1.0, 11.75, 0.0)" width="82.15" xlink:href="#sprite2"/>
    <use height="9.55" transform="matrix(1.0, 0.0, 0.0, 1.0, 50.55, 23.5)" width="8.35" xlink:href="#sprite9"/>
    <use height="9.55" transform="matrix(1.0, 0.0, 0.0, 1.0, 38.35, 23.6)" width="8.4" xlink:href="#sprite10"/>
    <use height="8.35" transform="matrix(1.0, 0.0, 0.0, 1.0, 39.0, 24.2)" width="19.35" xlink:href="#shape10"/>
  </g>
  <defs>
    <g id="sprite0" transform="matrix(1.0, 0.0, 0.0, 1.0, 0.0, 0.0)">
      <use height="29.45" transform="matrix(1.0, 0.0, 0.0, 1.0, 0.0, 0.0)" width="104.75" xlink:href="#shape0"/>
    </g>
    <g id="shape0" transform="matrix(1.0, 0.0, 0.0, 1.0, 0.0, 0.0)">
      <path d="M92.45 25.3 Q86.5 23.7 80.4 23.35 74.25 22.95 76.9 24.45 79.8 26.05 74.85 27.9 69.7 29.75 61.9 29.4 52.5 29.0 38.1 24.6 25.25 20.65 20.45 21.15 15.05 21.7 4.85 24.7 1.8 25.55 0.85 25.45 -0.35 25.35 0.15 23.75 1.45 19.75 10.65 14.5 14.35 12.4 25.65 7.05 40.9 -0.2 52.65 0.0 54.25 0.05 57.15 1.85 60.2 3.75 61.5 3.95 72.6 5.65 82.45 10.75 L102.2 21.25 Q104.75 22.45 104.75 23.6 104.8 24.6 102.9 25.3 98.5 26.9 92.45 25.3" fill="#717773" fill-rule="evenodd" stroke="none"/>
    </g>
    <g id="sprite1" transform="matrix(1.0, 0.0, 0.0, 1.0, 0.2, 0.0)">
      <use height="23.55" transform="matrix(1.0, 0.0, 0.0, 1.0, -0.2, 0.0)" width="95.0" xlink:href="#shape1"/>
    </g>
    <g id="shape1" transform="matrix(1.0, 0.0, 0.0, 1.0, 0.2, 0.0)">
      <path d="M86.4 19.9 L80.6 18.2 Q76.55 16.7 74.05 16.2 69.45 15.25 68.85 17.85 68.75 18.3 69.1 19.4 69.4 20.35 69.1 20.85 67.45 23.55 60.65 23.55 L51.2 22.65 41.7 20.2 32.3 17.35 23.8 15.15 15.05 14.9 8.3 16.4 1.5 18.05 Q-4.2 19.3 9.2 11.5 12.25 10.0 23.0 5.6 37.05 -0.1 47.75 0.0 49.2 0.05 51.85 1.45 54.65 3.0 55.85 3.15 67.85 4.7 76.65 7.85 84.55 10.65 92.9 15.85 94.95 17.15 94.8 18.35 94.65 19.55 92.35 20.1 L86.4 19.9" fill="#40454d" fill-rule="evenodd" stroke="none"/>
    </g>
    <g id="shape2" transform="matrix(1.0, 0.0, 0.0, 1.0, -11.75, 0.0)">
      <path d="M86.1 97.65 Q81.05 96.05 76.0 95.7 70.85 95.3 73.05 96.85 75.45 98.45 71.3 100.25 67.0 102.1 60.45 101.75 52.15 101.3 40.5 97.35 29.3 93.55 25.65 93.55 21.85 93.55 14.95 95.7 12.75 96.4 12.15 96.3 11.4 96.2 12.15 94.75 L17.45 88.35 Q21.65 83.45 23.45 77.85 25.8 70.6 27.9 56.05 30.05 41.1 30.4 29.25 30.75 16.05 37.2 7.05 44.25 -2.85 53.45 1.2 63.85 5.85 66.1 24.7 68.4 44.35 69.9 53.05 73.05 71.2 76.95 77.05 80.65 82.55 84.85 86.9 L91.75 93.95 Q95.15 97.75 93.2 98.6 91.45 99.3 86.1 97.65" fill="url(#gradient0)" fill-rule="evenodd" stroke="none"/>
    </g>
    <linearGradient gradientTransform="matrix(-0.0051, 0.0532, -0.0532, -0.0051, 48.75, 54.05)" gradientUnits="userSpaceOnUse" id="gradient0" spreadMethod="pad" x1="-819.2" x2="819.2">
      <stop offset="0.0" stop-color="#c3a331"/>
      <stop offset="0.6235294117647059" stop-color="#ef772a"/>
      <stop offset="1.0" stop-color="#734423"/>
    </linearGradient>
    <g id="sprite2" transform="matrix(1.0, 0.0, 0.0, 1.0, 0.0, 0.1)">
      <clipPath id="clipPath0" transform="matrix(1.0, 0.0, 0.0, 1.0, 0.0, 0.1)">
        <use height="101.8" transform="matrix(1.0, 0.0, 0.0, 1.0, 0.0, -0.1)" width="82.15" xlink:href="#shape3"/>
      </clipPath>
      <g clip-path="url(#clipPath0)">
        <use height="3.4" transform="matrix(1.0, 0.0, 0.0, 1.0, 26.3, 2.15)" width="21.3" xlink:href="#sprite3"/>
        <use height="5.25" transform="matrix(1.0, 0.0, 0.0, 1.0, 22.6, 7.3)" width="28.7" xlink:href="#sprite4"/>
        <use height="6.25" transform="matrix(1.0, 0.0, 0.0, 1.0, 14.1, 51.0)" width="45.45" xlink:href="#sprite5"/>
        <use height="6.25" transform="matrix(1.0, 0.0, 0.0, 1.0, 13.45, 48.1)" width="45.45" xlink:href="#sprite6"/>
        <use height="8.95" transform="matrix(1.0, 0.0, 0.0, 1.0, 12.15, 34.9)" width="46.3" xlink:href="#sprite7"/>
        <use height="4.4" transform="matrix(1.0, 0.0, 0.0, 1.0, 20.2, 13.5)" width="33.25" xlink:href="#sprite8"/>
      </g>
    </g>
    <g id="shape3" transform="matrix(1.0, 0.0, 0.0, 1.0, 0.0, 0.1)">
      <path d="M54.35 24.6 Q56.65 44.25 58.15 52.95 61.3 71.1 65.2 76.95 68.9 82.45 73.1 86.8 L80.0 93.85 Q83.4 97.65 81.45 98.5 79.7 99.2 74.35 97.55 69.3 95.95 64.25 95.6 59.1 95.2 61.3 96.75 63.7 98.35 59.55 100.15 55.25 102.0 48.7 101.65 40.4 101.2 28.75 97.25 17.55 93.45 13.9 93.45 10.1 93.45 3.2 95.6 L0.4 96.2 Q-0.35 96.1 0.4 94.65 L5.7 88.25 Q9.9 83.35 11.7 77.75 14.05 70.5 16.15 55.95 18.3 41.0 18.65 29.15 19.0 15.95 25.45 6.95 32.5 -2.95 41.7 1.1 52.1 5.75 54.35 24.6" fill="#ff0000" fill-rule="evenodd" stroke="none"/>
    </g>
    <g id="sprite3" transform="matrix(1.0, 0.0, 0.0, 1.0, 0.0, 0.0)">
      <use height="3.4" transform="matrix(1.0, 0.0, 0.0, 1.0, 0.0, 0.0)" width="21.3" xlink:href="#shape4"/>
    </g>
    <g id="shape4" transform="matrix(1.0, 0.0, 0.0, 1.0, 0.0, 0.0)">
      <path d="M18.7 0.2 L21.3 1.65 Q15.05 3.95 6.9 3.25 L0.0 2.05 2.8 0.0 Q7.7 1.4 13.7 0.95 L18.7 0.2" fill="#706685" fill-rule="evenodd" stroke="none"/>
    </g>
    <g id="sprite4" transform="matrix(1.0, 0.0, 0.0, 1.0, 0.0, 0.0)">
      <use height="5.25" transform="matrix(1.0, 0.0, 0.0, 1.0, 0.0, 0.0)" width="28.7" xlink:href="#shape5"/>
    </g>
    <g id="shape5" transform="matrix(1.0, 0.0, 0.0, 1.0, 0.0, 0.0)">
      <path d="M26.95 0.4 L28.7 3.1 Q17.25 6.3 7.5 4.75 2.6 3.95 0.0 2.5 L1.95 0.0 Q8.2 2.95 18.2 2.0 23.2 1.5 26.95 0.4" fill="#706685" fill-rule="evenodd" stroke="none"/>
    </g>
    <g id="sprite5" transform="matrix(1.0, 0.0, 0.0, 1.0, 0.0, 0.0)">
      <use height="6.25" transform="matrix(1.0, 0.0, 0.0, 1.0, 0.0, 0.0)" width="45.45" xlink:href="#shape6"/>
    </g>
    <g id="shape6" transform="matrix(1.0, 0.0, 0.0, 1.0, 0.0, 0.0)">
      <path d="M44.8 0.2 L45.45 2.05 Q40.65 6.65 22.8 6.2 4.8 5.8 0.0 0.6 L1.95 0.0 Q3.1 2.05 9.5 3.35 15.4 4.55 23.2 4.65 42.1 4.9 44.8 0.2" fill="#706685" fill-rule="evenodd" stroke="none"/>
    </g>
    <g id="sprite6" transform="matrix(1.0, 0.0, 0.0, 1.0, 0.0, 0.0)">
      <use height="6.25" transform="matrix(1.0, 0.0, 0.0, 1.0, 0.0, 0.0)" width="45.45" xlink:href="#shape6"/>
    </g>
    <g id="sprite7" transform="matrix(1.0, 0.0, 0.0, 1.0, 0.0, 0.0)">
      <use height="8.95" transform="matrix(1.0, 0.0, 0.0, 1.0, 0.0, 0.0)" width="46.3" xlink:href="#shape7"/>
    </g>
    <g id="shape7" transform="matrix(1.0, 0.0, 0.0, 1.0, 0.0, 0.0)">
      <path d="M45.65 0.3 L46.3 2.95 Q44.0 6.05 37.3 7.65 31.05 9.15 23.25 8.9 15.3 8.6 9.15 6.65 2.4 4.5 0.0 0.9 L2.0 0.0 Q3.95 2.55 10.2 4.15 16.05 5.7 23.4 5.9 40.95 6.35 45.65 0.3" fill="#706685" fill-rule="evenodd" stroke="none"/>
    </g>
    <g id="sprite8" transform="matrix(1.0, 0.0, 0.0, 1.0, 0.0, 0.0)">
      <use height="4.4" transform="matrix(1.0, 0.0, 0.0, 1.0, 0.0, 0.0)" width="33.25" xlink:href="#shape8"/>
    </g>
    <g id="shape8" transform="matrix(1.0, 0.0, 0.0, 1.0, 0.0, 0.0)">
      <path d="M32.6 0.4 L33.25 1.85 Q22.8 5.3 10.45 4.05 4.3 3.4 0.2 2.05 L0.0 0.0 Q11.0 4.15 22.9 2.7 28.85 1.95 32.6 0.4" fill="#706685" fill-rule="evenodd" stroke="none"/>
    </g>
    <g id="sprite9" transform="matrix(1.0, 0.0, 0.0, 1.0, 0.0, 0.0)">
      <use height="9.55" transform="matrix(0.994, 0.0, 0.0, 1.0, 0.0, 0.0)" width="8.4" xlink:href="#shape9"/>
    </g>
    <g id="shape9" transform="matrix(1.0, 0.0, 0.0, 1.0, 0.0, 0.0)">
      <path d="M0.0 4.75 Q0.0 2.75 1.25 1.4 2.45 0.0 4.2 0.0 5.95 0.0 7.15 1.4 8.4 2.75 8.4 4.75 8.4 6.75 7.15 8.15 5.95 9.55 4.2 9.55 2.45 9.55 1.25 8.15 0.0 6.75 0.0 4.75" fill="#c3a331" fill-rule="evenodd" stroke="none"/>
    </g>
    <g id="sprite10" transform="matrix(1.0, 0.0, 0.0, 1.0, 0.0, 0.0)">
      <use height="9.55" transform="matrix(1.0, 0.0, 0.0, 1.0, 0.0, 0.0)" width="8.4" xlink:href="#shape9"/>
    </g>
    <g id="shape10" transform="matrix(1.0, 0.0, 0.0, 1.0, -39.0, -24.2)">
      <path d="M51.1 28.35 Q51.1 26.65 52.15 25.4 53.2 24.2 54.7 24.2 56.25 24.2 57.3 25.4 58.35 26.6 58.35 28.35 58.35 30.1 57.3 31.3 56.25 32.55 54.7 32.55 53.2 32.55 52.15 31.3 51.1 30.1 51.1 28.35" fill="url(#gradient1)" fill-rule="evenodd" stroke="none"/>
      <path d="M42.65 24.2 Q44.15 24.2 45.25 25.4 46.3 26.65 46.3 28.35 46.3 30.1 45.25 31.3 44.15 32.55 42.65 32.55 41.15 32.55 40.1 31.3 39.0 30.1 39.0 28.35 39.0 26.65 40.1 25.4 41.15 24.2 42.65 24.2" fill="url(#gradient2)" fill-rule="evenodd" stroke="none"/>
      <path d="M54.9 29.75 Q54.9 28.95 55.25 28.45 55.65 27.9 56.2 27.9 56.75 27.9 57.1 28.45 57.5 28.95 57.5 29.75 57.5 30.5 57.1 31.05 56.75 31.6 56.2 31.6 55.65 31.6 55.25 31.05 54.9 30.5 54.9 29.75" fill="url(#gradient3)" fill-rule="evenodd" stroke="none"/>
      <path d="M42.95 29.55 Q42.95 28.8 43.35 28.25 43.75 27.7 44.25 27.7 44.8 27.7 45.2 28.25 45.55 28.8 45.55 29.55 45.55 30.35 45.2 30.85 44.8 31.4 44.25 31.4 43.7 31.4 43.35 30.85 42.95 30.35 42.95 29.55" fill="url(#gradient4)" fill-rule="evenodd" stroke="none"/>
    </g>
    <linearGradient gradientTransform="matrix(-3.0E-4, 0.0047, -0.0047, -3.0E-4, 54.7, 28.35)" gradientUnits="userSpaceOnUse" id="gradient1" spreadMethod="pad" x1="-819.2" x2="819.2">
      <stop offset="0.0" stop-color="#cce4e4"/>
      <stop offset="1.0" stop-color="#b8d9bd"/>
    </linearGradient>
    <linearGradient gradientTransform="matrix(-3.0E-4, 0.0043, -0.0043, -3.0E-4, 42.6, 27.85)" gradientUnits="userSpaceOnUse" id="gradient2" spreadMethod="pad" x1="-819.2" x2="819.2">
      <stop offset="0.0" stop-color="#cce4e4"/>
      <stop offset="1.0" stop-color="#b8d9bd"/>
    </linearGradient>
    <linearGradient gradientTransform="matrix(-0.0016, 0.0, 0.0, -0.0016, 56.2, 29.75)" gradientUnits="userSpaceOnUse" id="gradient3" spreadMethod="pad" x1="-819.2" x2="819.2">
      <stop offset="0.0" stop-color="#242224"/>
      <stop offset="0.23921568627450981" stop-color="#27252e"/>
      <stop offset="0.6392156862745098" stop-color="#302e49"/>
      <stop offset="1.0" stop-color="#3a3866"/>
    </linearGradient>
    <linearGradient gradientTransform="matrix(-0.0016, 0.0, 0.0, -0.0016, 44.25, 29.55)" gradientUnits="userSpaceOnUse" id="gradient4" spreadMethod="pad" x1="-819.2" x2="819.2">
      <stop offset="0.0" stop-color="#242224"/>
      <stop offset="0.23921568627450981" stop-color="#27252e"/>
      <stop offset="0.6392156862745098" stop-color="#302e49"/>
      <stop offset="1.0" stop-color="#3a3866"/>
    </linearGradient>
  </defs>
</svg>
