<?xml version="1.0" encoding="UTF-8" standalone="no"?>
<svg xmlns:xlink="http://www.w3.org/1999/xlink" height="150.0px" width="300.0px" xmlns="http://www.w3.org/2000/svg">
  <g transform="matrix(1.0, 0.0, 0.0, 1.0, 0.0, 0.0)">
    <use height="220.9" transform="matrix(0.5839, -0.0053, 0.008, 0.2953, -79.8558, 91.0942)" width="418.35" xlink:href="#shape0"/>
    <use height="220.9" transform="matrix(0.5839, -0.0053, 0.0144, 0.533, -4.5653, 22.5432)" width="418.35" xlink:href="#shape0"/>
    <use height="220.9" transform="matrix(0.5839, -0.006, 0.0087, 0.2953, 27.715, 59.6378)" width="418.35" xlink:href="#shape0"/>
    <use height="220.9" transform="matrix(0.5839, -0.0053, 0.008, 0.2953, -36.8058, -3.6558)" width="418.35" xlink:href="#shape0"/>
    <use height="129.35" transform="matrix(0.5839, -0.0053, 0.008, 0.2953, 28.3634, 7.5617)" width="246.05" xlink:href="#shape1"/>
    <use height="220.9" transform="matrix(0.5839, -0.006, 0.0087, 0.2953, 185.615, 17.7378)" width="418.35" xlink:href="#shape0"/>
    <use height="220.9" transform="matrix(0.5839, -0.0053, 0.0147, 0.5423, 74.356, 20.3637)" width="418.35" xlink:href="#shape0"/>
    <use height="220.9" transform="matrix(0.5839, -0.0053, 0.008, 0.2953, 90.1442, 48.0942)" width="418.35" xlink:href="#shape0"/>
    <use height="220.9" transform="matrix(0.5839, -0.006, 0.0087, 0.2953, 26.015, 3.3378)" width="418.35" xlink:href="#shape0"/>
    <use height="129.35" transform="matrix(0.5839, -0.0053, 0.008, 0.2953, 135.3634, 3.1117)" width="246.05" xlink:href="#shape1"/>
    <use height="153.65" transform="matrix(0.4604, -0.1151, 0.2142, 0.2544, -35.1327, 60.2964)" width="376.05" xlink:href="#shape2"/>
    <use height="153.65" transform="matrix(0.4626, -0.1068, 0.2086, 0.2587, 68.8792, 110.9508)" width="376.05" xlink:href="#shape2"/>
    <use height="153.65" transform="matrix(0.4805, -0.0896, 0.1644, 0.2646, 85.6619, 22.4356)" width="376.05" xlink:href="#shape2"/>
    <use height="339.2" transform="matrix(0.4093, 0.0, 0.0411, 0.259, 70.2987, -0.3058)" width="540.5" xlink:href="#morphshape0"/>
    <use height="339.2" transform="matrix(0.409, -0.0063, 0.0457, 0.2585, 0.4597, 60.6205)" width="540.5" xlink:href="#morphshape0"/>
    <use height="339.2" transform="matrix(0.409, -0.0056, 0.0457, 0.2585, -6.713, 48.6964)" width="540.5" xlink:href="#morphshape0"/>
    <use height="339.2" transform="matrix(0.4096, 0.0109, 0.0322, 0.2599, -41.8739, -6.557)" width="540.5" xlink:href="#morphshape0"/>
  </g>
  <defs>
    <g id="shape0" transform="matrix(1.0, 0.0, 0.0, 1.0, 209.15, 110.45)">
      <path d="M53.55 8.85 Q29.0 8.85 11.65 -5.55 -5.7 -19.95 -5.7 -40.3 -5.7 -60.65 11.65 -75.05 29.0 -89.45 53.55 -89.45 78.1 -89.45 95.5 -75.05 112.85 -60.65 112.85 -40.3 112.85 -19.95 95.5 -5.55 78.1 8.85 53.55 8.85" fill="url(#gradient0)" fill-rule="evenodd" stroke="none"/>
      <path d="M-77.75 -62.75 Q-55.4 -55.55 -46.15 -36.4 -36.85 -17.3 -46.05 2.65 -55.2 22.55 -77.5 31.6 -99.8 40.6 -122.1 33.45 -144.4 26.25 -153.7 7.1 -163.0 -12.05 -153.8 -32.0 -144.65 -51.9 -122.35 -60.9 -100.1 -69.95 -77.75 -62.75" fill="url(#gradient1)" fill-rule="evenodd" stroke="none"/>
      <path d="M159.0 -9.05 Q159.0 11.25 144.1 25.55 129.15 39.9 108.05 39.9 86.95 39.9 72.05 25.55 57.15 11.25 57.15 -9.05 57.15 -29.3 72.05 -43.6 86.95 -57.95 108.05 -57.95 129.15 -57.95 144.1 -43.6 159.0 -29.3 159.0 -9.05" fill="url(#gradient2)" fill-rule="evenodd" stroke="none"/>
      <path d="M20.3 -98.05 Q43.7 -83.75 45.7 -61.35 46.65 -50.35 41.6 -39.85 36.75 -29.75 27.0 -21.5 6.35 -4.1 -24.8 -1.95 -56.0 0.25 -79.4 -14.0 -102.85 -28.3 -104.8 -50.7 -105.75 -61.7 -100.75 -72.2 -95.9 -82.3 -86.15 -90.55 -65.5 -107.95 -34.3 -110.15 -3.15 -112.3 20.3 -98.05" fill="url(#gradient3)" fill-rule="evenodd" stroke="none"/>
      <path d="M-100.75 -17.95 Q-95.9 -28.05 -86.15 -36.3 -65.5 -53.7 -34.3 -55.9 -3.15 -58.1 20.3 -43.8 43.7 -29.55 45.7 -7.1 46.65 3.9 41.6 14.35 36.75 24.45 27.0 32.7 6.35 50.1 -24.8 52.3 -56.0 54.5 -79.4 40.2 -102.85 25.95 -104.8 3.5 -105.75 -7.5 -100.75 -17.95" fill="url(#gradient4)" fill-rule="evenodd" stroke="none"/>
      <path d="M-75.1 -11.5 Q-46.35 -24.15 -10.85 -16.4 24.65 -8.65 46.15 15.0 56.3 26.2 60.6 38.7 65.0 51.7 62.5 64.3 59.95 76.9 50.9 86.95 42.15 96.65 28.55 102.6 -0.2 115.25 -35.7 107.5 -71.2 99.75 -92.7 76.1 -102.85 64.95 -107.15 52.4 -111.55 39.45 -109.05 26.85 -106.5 14.25 -97.45 4.2 -88.7 -5.5 -75.1 -11.5" fill="url(#gradient5)" fill-rule="evenodd" stroke="none"/>
      <path d="M97.95 35.75 Q93.1 45.85 83.35 54.1 62.7 71.5 31.55 73.7 0.4 75.9 -23.05 61.6 -46.5 47.3 -48.45 24.9 -49.4 13.9 -44.4 3.45 -39.55 -6.65 -29.75 -14.9 -9.1 -32.3 22.05 -34.5 53.2 -36.7 76.65 -22.4 100.05 -8.15 102.05 14.3 103.0 25.3 97.95 35.75" fill="url(#gradient6)" fill-rule="evenodd" stroke="none"/>
      <path d="M168.8 50.4 Q169.8 61.4 164.75 71.9 159.9 82.0 150.15 90.25 129.5 107.65 98.3 109.8 67.15 112.0 43.7 97.75 20.3 83.45 18.3 61.05 17.35 50.05 22.4 39.55 27.25 29.45 37.0 21.2 57.65 3.8 88.8 1.6 119.95 -0.55 143.4 13.7 154.5 20.45 161.05 29.75 167.85 39.4 168.8 50.4" fill="url(#gradient7)" fill-rule="evenodd" stroke="none"/>
      <path d="M-66.25 -14.2 Q-59.45 -4.55 -58.5 6.45 -57.5 17.45 -62.55 27.9 -67.4 38.0 -77.15 46.25 -97.85 63.65 -129.0 65.85 -160.15 68.05 -183.6 53.75 -207.0 39.5 -209.0 17.05 -209.95 6.05 -204.9 -4.4 -200.05 -14.5 -190.3 -22.75 -169.65 -40.15 -138.5 -42.35 -107.35 -44.55 -83.9 -30.25 -72.8 -23.5 -66.25 -14.2" fill="url(#gradient8)" fill-rule="evenodd" stroke="none"/>
      <path d="M209.05 10.7 Q210.05 21.7 205.0 32.2 200.15 42.3 190.4 50.55 169.75 67.95 138.55 70.15 107.4 72.35 83.95 58.05 60.55 43.75 58.55 21.35 57.6 10.35 62.65 -0.15 67.5 -10.25 77.25 -18.45 97.9 -35.85 129.05 -38.05 160.2 -40.25 183.65 -25.95 194.75 -19.25 201.3 -9.9 208.1 -0.3 209.05 10.7" fill="url(#gradient9)" fill-rule="evenodd" stroke="none"/>
    </g>
    <radialGradient cx="0" cy="0" gradientTransform="matrix(0.0723, 0.0, 0.0, -0.06, 53.55, -40.3)" gradientUnits="userSpaceOnUse" id="gradient0" r="819.2" spreadMethod="pad">
      <stop offset="0.0" stop-color="#ffffff" stop-opacity="0.019607844"/>
      <stop offset="0.9647058823529412" stop-color="#ffffff" stop-opacity="0.0"/>
    </radialGradient>
    <radialGradient cx="0" cy="0" gradientTransform="matrix(0.0657, -0.0266, -0.0274, -0.0564, -99.9, -14.65)" gradientUnits="userSpaceOnUse" id="gradient1" r="819.2" spreadMethod="pad">
      <stop offset="0.0" stop-color="#ffffff" stop-opacity="0.019607844"/>
      <stop offset="0.9647058823529412" stop-color="#ffffff" stop-opacity="0.0"/>
    </radialGradient>
    <radialGradient cx="0" cy="0" gradientTransform="matrix(0.0621, 0.0, 0.0, -0.0597, 108.05, -9.05)" gradientUnits="userSpaceOnUse" id="gradient2" r="819.2" spreadMethod="pad">
      <stop offset="0.0" stop-color="#ffffff" stop-opacity="0.019607844"/>
      <stop offset="0.9647058823529412" stop-color="#ffffff" stop-opacity="0.0"/>
    </radialGradient>
    <radialGradient cx="0" cy="0" gradientTransform="matrix(0.0918, -0.0065, -0.0058, -0.066, -29.55, -56.05)" gradientUnits="userSpaceOnUse" id="gradient3" r="819.2" spreadMethod="pad">
      <stop offset="0.0" stop-color="#ffffff" stop-opacity="0.019607844"/>
      <stop offset="0.9647058823529412" stop-color="#ffffff" stop-opacity="0.0"/>
    </radialGradient>
    <radialGradient cx="0" cy="0" gradientTransform="matrix(0.0918, -0.0065, -0.0058, -0.066, -29.55, -1.8)" gradientUnits="userSpaceOnUse" id="gradient4" r="819.2" spreadMethod="pad">
      <stop offset="0.0" stop-color="#ffffff" stop-opacity="0.019607844"/>
      <stop offset="0.9647058823529412" stop-color="#ffffff" stop-opacity="0.0"/>
    </radialGradient>
    <radialGradient cx="0" cy="0" gradientTransform="matrix(0.1047, 0.0229, 0.0152, -0.0756, -23.25, 45.55)" gradientUnits="userSpaceOnUse" id="gradient5" r="819.2" spreadMethod="pad">
      <stop offset="0.0" stop-color="#ffffff" stop-opacity="0.019607844"/>
      <stop offset="0.9647058823529412" stop-color="#ffffff" stop-opacity="0.0"/>
    </radialGradient>
    <radialGradient cx="0" cy="0" gradientTransform="matrix(0.0918, -0.0065, -0.0058, -0.066, 26.8, 19.6)" gradientUnits="userSpaceOnUse" id="gradient6" r="819.2" spreadMethod="pad">
      <stop offset="0.0" stop-color="#ffffff" stop-opacity="0.019607844"/>
      <stop offset="0.9647058823529412" stop-color="#ffffff" stop-opacity="0.0"/>
    </radialGradient>
    <radialGradient cx="0" cy="0" gradientTransform="matrix(0.0918, -0.0065, -0.0058, -0.066, 93.55, 55.7)" gradientUnits="userSpaceOnUse" id="gradient7" r="819.2" spreadMethod="pad">
      <stop offset="0.0" stop-color="#ffffff" stop-opacity="0.019607844"/>
      <stop offset="0.9647058823529412" stop-color="#ffffff" stop-opacity="0.0"/>
    </radialGradient>
    <radialGradient cx="0" cy="0" gradientTransform="matrix(0.0918, -0.0065, -0.0058, -0.066, -133.75, 11.75)" gradientUnits="userSpaceOnUse" id="gradient8" r="819.2" spreadMethod="pad">
      <stop offset="0.0" stop-color="#ffffff" stop-opacity="0.019607844"/>
      <stop offset="0.9647058823529412" stop-color="#ffffff" stop-opacity="0.0"/>
    </radialGradient>
    <radialGradient cx="0" cy="0" gradientTransform="matrix(0.0918, -0.0065, -0.0058, -0.066, 133.8, 16.05)" gradientUnits="userSpaceOnUse" id="gradient9" r="819.2" spreadMethod="pad">
      <stop offset="0.0" stop-color="#ffffff" stop-opacity="0.019607844"/>
      <stop offset="0.9647058823529412" stop-color="#ffffff" stop-opacity="0.0"/>
    </radialGradient>
    <g id="shape1" transform="matrix(1.0, 0.0, 0.0, 1.0, 123.0, 64.65)">
      <path d="M-106.15 -36.95 Q-87.7 -52.5 -59.8 -54.45 -31.95 -56.45 -11.0 -43.65 9.95 -30.9 11.7 -10.85 13.45 9.2 -5.0 24.75 -23.45 40.3 -51.3 42.25 -79.2 44.25 -100.15 31.45 -121.1 18.7 -122.85 -1.35 -124.6 -21.4 -106.15 -36.95" fill="url(#gradient10)" fill-rule="evenodd" stroke="none"/>
      <path d="M42.95 3.45 Q27.15 16.75 3.3 18.45 -20.6 20.15 -38.5 9.2 -56.45 -1.7 -58.0 -18.9 -59.5 -36.05 -43.65 -49.4 -27.85 -62.7 -4.0 -64.4 19.9 -66.1 37.8 -55.15 55.75 -44.2 57.25 -27.05 58.8 -9.9 42.95 3.45" fill="url(#gradient11)" fill-rule="evenodd" stroke="none"/>
      <path d="M90.3 -53.25 Q111.75 -40.15 113.55 -19.65 115.35 0.85 96.45 16.8 77.55 32.8 49.0 34.8 20.45 36.8 -1.05 23.7 -22.5 10.6 -24.3 -9.9 -26.1 -30.45 -7.2 -46.4 11.7 -62.3 40.25 -64.35 68.8 -66.35 90.3 -53.25" fill="url(#gradient12)" fill-rule="evenodd" stroke="none"/>
      <path d="M7.0 -18.4 Q30.9 -20.1 48.8 -9.15 66.75 1.8 68.25 18.95 69.8 36.1 53.95 49.45 38.15 62.75 14.3 64.45 -9.6 66.15 -27.5 55.2 -45.45 44.3 -47.0 27.1 -48.5 9.95 -32.65 -3.4 -16.85 -16.7 7.0 -18.4" fill="url(#gradient13)" fill-rule="evenodd" stroke="none"/>
      <path d="M103.95 45.8 Q86.1 56.7 61.95 54.75 37.8 52.75 21.55 39.1 5.3 25.4 6.4 8.0 7.5 -9.4 25.35 -20.3 43.25 -31.25 67.35 -29.25 91.5 -27.3 107.8 -13.6 124.1 0.1 122.95 17.5 121.85 34.9 103.95 45.8" fill="url(#gradient14)" fill-rule="evenodd" stroke="none"/>
    </g>
    <radialGradient cx="0" cy="0" gradientTransform="matrix(0.0821, -0.0058, -0.0052, -0.059, -55.55, -6.1)" gradientUnits="userSpaceOnUse" id="gradient10" r="819.2" spreadMethod="pad">
      <stop offset="0.20784313725490197" stop-color="#ffffff" stop-opacity="0.2627451"/>
      <stop offset="0.9647058823529412" stop-color="#ffffff" stop-opacity="0.0"/>
    </radialGradient>
    <radialGradient cx="0" cy="0" gradientTransform="matrix(0.0703, -0.005, -0.0044, -0.0506, -0.35, -22.95)" gradientUnits="userSpaceOnUse" id="gradient11" r="819.2" spreadMethod="pad">
      <stop offset="0.20784313725490197" stop-color="#ffffff" stop-opacity="0.2627451"/>
      <stop offset="0.9647058823529412" stop-color="#ffffff" stop-opacity="0.0"/>
    </radialGradient>
    <radialGradient cx="0" cy="0" gradientTransform="matrix(0.0841, -0.006, -0.0053, -0.0605, 44.6, -14.8)" gradientUnits="userSpaceOnUse" id="gradient12" r="819.2" spreadMethod="pad">
      <stop offset="0.20784313725490197" stop-color="#ffffff" stop-opacity="0.2627451"/>
      <stop offset="0.9647058823529412" stop-color="#ffffff" stop-opacity="0.0"/>
    </radialGradient>
    <radialGradient cx="0" cy="0" gradientTransform="matrix(0.0703, -0.005, -0.0044, -0.0506, 10.65, 23.05)" gradientUnits="userSpaceOnUse" id="gradient13" r="819.2" spreadMethod="pad">
      <stop offset="0.20784313725490197" stop-color="#ffffff" stop-opacity="0.2627451"/>
      <stop offset="0.9647058823529412" stop-color="#ffffff" stop-opacity="0.0"/>
    </radialGradient>
    <radialGradient cx="0" cy="0" gradientTransform="matrix(0.0711, 0.0058, 0.0033, -0.0513, 64.65, 12.75)" gradientUnits="userSpaceOnUse" id="gradient14" r="819.2" spreadMethod="pad">
      <stop offset="0.20784313725490197" stop-color="#ffffff" stop-opacity="0.2627451"/>
      <stop offset="0.9647058823529412" stop-color="#ffffff" stop-opacity="0.0"/>
    </radialGradient>
    <g id="shape2" transform="matrix(1.0, 0.0, 0.0, 1.0, 183.55, 76.95)">
      <path d="M0.75 -33.4 L2.65 -33.3 Q11.9 -28.5 26.45 -22.0 55.4 -9.15 80.55 -0.9 L80.65 -0.85 80.7 -0.85 80.85 -0.8 Q103.2 7.15 134.2 16.5 159.5 24.05 160.75 24.95 162.75 26.3 162.45 27.6 162.7 29.25 160.75 30.05 L160.7 30.05 160.55 30.1 159.5 30.25 159.45 30.25 154.9 29.55 154.7 29.5 Q148.5 28.05 134.4 23.95 104.05 15.15 76.85 5.0 L76.85 5.05 Q51.95 -3.55 23.5 -17.15 9.25 -23.85 0.3 -28.8 L0.2 -28.85 -0.1 -29.1 -0.8 -30.1 -0.85 -30.25 Q-1.2 -31.25 -0.75 -32.15 L-0.75 -32.1 -0.65 -32.3 -0.7 -32.25 Q-0.2 -33.15 0.75 -33.4" fill="url(#gradient15)" fill-rule="evenodd" stroke="none"/>
      <path d="M3.35 -18.25 L5.3 -18.15 Q14.75 -13.5 29.6 -6.85 59.35 6.4 84.75 15.95 107.55 25.0 140.15 35.75 L158.75 41.95 Q161.85 43.05 163.35 43.65 L164.6 44.15 164.9 44.3 164.95 44.3 165.3 44.55 165.6 44.75 165.5 44.7 165.85 45.05 Q166.7 46.15 166.4 47.1 166.25 47.9 165.55 48.45 L165.5 48.5 Q162.55 51.25 135.75 42.0 113.4 34.15 80.85 21.0 L80.9 21.0 Q55.8 11.25 26.85 -2.25 12.3 -8.95 3.1 -13.6 L3.05 -13.65 2.9 -13.7 2.95 -13.7 Q2.15 -14.15 1.85 -14.95 L1.8 -15.1 Q1.45 -16.0 1.85 -16.9 L1.95 -17.1 Q2.35 -17.85 3.2 -18.2 L3.35 -18.25" fill="url(#gradient16)" fill-rule="evenodd" stroke="none"/>
      <path d="M4.1 -76.75 L4.15 -76.8 4.2 -76.8 6.15 -76.7 6.4 -76.55 Q16.2 -72.15 29.45 -66.35 65.15 -50.75 95.4 -39.35 122.8 -28.55 161.5 -15.4 L183.6 -7.8 189.05 -5.8 189.1 -5.8 190.5 -5.2 190.5 -5.25 191.05 -4.95 191.2 -4.85 191.65 -4.5 191.7 -4.45 Q192.75 -3.35 192.45 -2.35 192.45 -1.35 191.35 -0.7 188.25 1.85 156.65 -9.3 130.0 -18.8 91.15 -34.45 L91.2 -34.45 Q61.35 -46.05 26.55 -61.8 L3.95 -72.2 3.75 -72.3 Q3.0 -72.75 2.7 -73.55 L2.7 -73.6 Q2.35 -74.6 2.8 -75.55 L2.8 -75.5 3.0 -75.8 3.95 -76.7 4.1 -76.75 M191.6 -4.5 L191.65 -4.5 191.6 -4.5" fill="url(#gradient17)" fill-rule="evenodd" stroke="none"/>
      <path d="M2.8 64.2 L3.3 64.55 3.4 64.6 3.4 64.65 4.0 65.25 4.05 65.35 4.1 65.5 Q4.55 66.3 4.4 66.95 4.35 67.9 3.5 68.5 0.65 71.3 -25.85 59.1 -47.65 49.05 -79.55 32.45 -104.05 20.05 -132.35 3.45 -143.0 -2.75 -150.7 -7.5 -151.6 -8.1 -151.8 -9.1 L-151.8 -9.15 -151.8 -9.4 -151.8 -9.5 -151.8 -9.55 -151.8 -9.65 Q-151.85 -10.3 -151.5 -10.9 -150.95 -11.8 -149.95 -12.05 L-148.1 -11.8 -129.05 -0.85 Q-100.1 15.55 -75.2 27.8 -52.9 39.25 -21.1 53.35 -8.95 58.7 -2.9 61.45 L1.6 63.55 2.85 64.25 2.8 64.2" fill="url(#gradient18)" fill-rule="evenodd" stroke="none"/>
      <path d="M-122.15 -68.75 Q-117.8 -65.85 -110.95 -61.95 -97.25 -54.2 -85.15 -49.1 -74.35 -44.25 -58.6 -39.25 L-49.5 -36.3 -47.15 -35.4 -46.35 -35.05 -45.7 -34.5 -45.65 -34.45 -45.6 -34.45 Q-44.95 -33.65 -44.95 -32.9 L-44.95 -32.85 -44.95 -32.8 Q-44.85 -31.95 -45.5 -31.2 -47.7 -27.65 -62.0 -32.7 -72.95 -36.6 -88.4 -43.95 L-88.45 -44.0 -88.55 -44.05 -88.6 -44.1 Q-100.5 -49.35 -113.9 -57.45 -120.7 -61.65 -124.95 -64.6 -125.55 -65.05 -125.8 -65.65 L-126.0 -66.1 -126.0 -66.15 Q-126.2 -67.15 -125.65 -68.0 L-125.65 -68.05 Q-125.15 -68.75 -124.4 -69.0 L-124.05 -69.1 -124.0 -69.1 Q-123.05 -69.3 -122.15 -68.75" fill="url(#gradient19)" fill-rule="evenodd" stroke="none"/>
      <path d="M-183.2 -3.2 Q-182.65 -4.1 -181.65 -4.35 -180.7 -4.6 -179.8 -4.1 L-160.75 6.8 Q-131.7 23.25 -106.9 35.45 L-105.0 36.45 -104.95 36.45 Q-104.1 36.9 -103.7 37.8 L-103.7 37.85 -103.65 38.05 Q-103.45 38.85 -103.7 39.55 L-103.75 39.65 -103.8 39.75 -103.8 39.8 -103.85 39.9 Q-104.25 40.6 -105.05 41.0 L-105.0 40.95 -105.1 41.0 -106.7 41.15 -106.9 41.1 -112.2 39.25 -112.3 39.2 -112.4 39.1 -114.15 38.55 -114.3 38.5 -114.4 38.45 -114.5 38.45 -117.45 36.95 -117.45 36.9 -120.45 35.35 Q-140.95 24.65 -164.0 11.15 L-182.3 0.2 Q-183.2 -0.3 -183.45 -1.3 -183.7 -2.3 -183.15 -3.2 L-183.2 -3.2 M-28.8 71.9 L-28.85 71.85 -28.35 72.2 -28.25 72.25 -28.25 72.3 -27.7 72.85 -27.65 72.9 -27.6 73.0 -27.55 73.15 Q-27.1 73.95 -27.25 74.6 -27.35 75.45 -28.05 76.1 -30.75 79.15 -57.5 66.8 -76.25 58.2 -102.15 44.8 L-102.2 44.8 Q-103.1 44.35 -103.45 43.45 L-103.45 43.4 -103.5 43.2 Q-103.7 42.45 -103.45 41.75 L-103.3 41.35 Q-102.9 40.6 -102.05 40.25 L-101.9 40.2 -100.45 40.1 -100.25 40.15 -91.0 43.4 -90.9 43.45 -91.0 43.4 -90.8 43.45 -90.75 43.5 -90.7 43.5 -90.65 43.55 -87.0 45.25 -83.4 47.0 Q-69.35 53.6 -52.75 61.0 -40.6 66.35 -34.55 69.1 L-30.05 71.2 -28.8 71.9" fill="url(#gradient20)" fill-rule="evenodd" stroke="none"/>
      <path d="M-66.4 6.25 Q-44.6 18.25 -25.2 27.8 -2.9 39.25 28.9 53.35 L47.1 61.45 51.6 63.55 52.85 64.25 52.8 64.2 53.3 64.55 53.4 64.6 53.4 64.65 54.0 65.25 54.05 65.35 54.1 65.5 Q54.55 66.3 54.4 66.95 54.35 67.9 53.5 68.5 50.65 71.3 24.15 59.1 2.35 49.05 -29.55 32.45 -54.05 20.05 -82.35 3.45 -93.0 -2.75 -100.7 -7.5 -101.6 -8.1 -101.8 -9.1 L-101.8 -9.15 -101.8 -9.4 -101.8 -9.5 -101.8 -9.55 -101.8 -9.65 Q-101.85 -10.3 -101.5 -10.9 L-100.9 -11.6 -99.95 -12.05 -99.7 -12.1 Q-98.9 -12.25 -98.1 -11.8 L-85.9 -4.75 -79.05 -0.85 -66.4 6.25" fill="url(#gradient21)" fill-rule="evenodd" stroke="none"/>
      <path d="M-100.9 -11.6 L-101.65 -12.0 Q-119.05 -21.55 -130.1 -28.2 -131.0 -28.7 -131.25 -29.7 -131.5 -30.7 -131.0 -31.6 -130.5 -32.5 -129.5 -32.75 -128.5 -33.0 -127.6 -32.45 L-127.6 -32.5 Q-116.2 -26.0 -98.35 -16.75 -62.55 1.85 -31.9 14.7 -4.6 26.75 33.0 41.7 63.45 53.8 65.0 54.95 67.1 56.35 66.85 57.6 66.9 58.65 66.2 59.4 65.75 60.0 64.75 60.25 L64.7 60.25 64.45 60.25 63.5 60.25 63.45 60.25 Q62.15 60.1 58.2 58.75 50.8 56.3 33.45 49.55 -3.45 35.25 -36.6 20.0 L-36.6 20.05 Q-50.95 13.8 -66.4 6.25 L-79.05 -0.85 -85.9 -4.75 -98.1 -11.8 Q-98.9 -12.25 -99.7 -12.1 L-99.95 -12.05 -100.9 -11.6" fill="url(#gradient22)" fill-rule="evenodd" stroke="none"/>
    </g>
    <linearGradient gradientTransform="matrix(-0.0973, -0.0337, -0.0183, 0.053, 80.0, -0.1)" gradientUnits="userSpaceOnUse" id="gradient15" spreadMethod="pad" x1="-819.2" x2="819.2">
      <stop offset="0.0" stop-color="#bebebe" stop-opacity="0.07058824"/>
      <stop offset="1.0" stop-color="#ffffff" stop-opacity="0.0"/>
    </linearGradient>
    <linearGradient gradientTransform="matrix(-0.0976, -0.0379, -0.0119, 0.0306, 83.3, 17.15)" gradientUnits="userSpaceOnUse" id="gradient16" spreadMethod="pad" x1="-819.2" x2="819.2">
      <stop offset="0.0" stop-color="#bebebe" stop-opacity="0.07058824"/>
      <stop offset="1.0" stop-color="#ffffff" stop-opacity="0.0"/>
    </linearGradient>
    <linearGradient gradientTransform="matrix(-0.1165, -0.0453, -0.0119, 0.0306, 93.8, -38.2)" gradientUnits="userSpaceOnUse" id="gradient17" spreadMethod="pad" x1="-819.2" x2="819.2">
      <stop offset="0.0" stop-color="#bebebe" stop-opacity="0.07058824"/>
      <stop offset="1.0" stop-color="#ffffff" stop-opacity="0.0"/>
    </linearGradient>
    <linearGradient gradientTransform="matrix(-0.0953, -0.0481, -0.0119, 0.0306, -76.9, 28.8)" gradientUnits="userSpaceOnUse" id="gradient18" spreadMethod="pad" x1="-819.2" x2="819.2">
      <stop offset="0.0" stop-color="#bebebe" stop-opacity="0.07058824"/>
      <stop offset="1.0" stop-color="#ffffff" stop-opacity="0.0"/>
    </linearGradient>
    <linearGradient gradientTransform="matrix(-0.0465, -0.0205, -0.0119, 0.0306, -86.2, -47.9)" gradientUnits="userSpaceOnUse" id="gradient19" spreadMethod="pad" x1="-819.2" x2="819.2">
      <stop offset="0.0" stop-color="#bebebe" stop-opacity="0.07058824"/>
      <stop offset="1.0" stop-color="#ffffff" stop-opacity="0.0"/>
    </linearGradient>
    <linearGradient gradientTransform="matrix(-0.0953, -0.0481, -0.0119, 0.0306, -108.55, 36.45)" gradientUnits="userSpaceOnUse" id="gradient20" spreadMethod="pad" x1="-819.2" x2="819.2">
      <stop offset="0.0" stop-color="#bebebe" stop-opacity="0.07058824"/>
      <stop offset="1.0" stop-color="#ffffff" stop-opacity="0.0"/>
    </linearGradient>
    <linearGradient gradientTransform="matrix(-0.0953, -0.0481, -0.0119, 0.0306, -26.9, 28.8)" gradientUnits="userSpaceOnUse" id="gradient21" spreadMethod="pad" x1="-819.2" x2="819.2">
      <stop offset="0.0" stop-color="#bebebe" stop-opacity="0.07058824"/>
      <stop offset="1.0" stop-color="#ffffff" stop-opacity="0.0"/>
    </linearGradient>
    <linearGradient gradientTransform="matrix(-0.1184, -0.0515, -0.0183, 0.053, -33.0, 15.25)" gradientUnits="userSpaceOnUse" id="gradient22" spreadMethod="pad" x1="-819.2" x2="819.2">
      <stop offset="0.0" stop-color="#bebebe" stop-opacity="0.07058824"/>
      <stop offset="1.0" stop-color="#ffffff" stop-opacity="0.0"/>
    </linearGradient>
    <g id="morphshape0" transform="matrix(1.0, 0.0, 0.0, 1.0, 269.3, 169.7)">
      <path d="M-83.0 -52.4 Q-82.9 -51.5 -81.6 -50.5 -80.05 -48.7 -78.35 -48.9 -73.75 -49.3 -72.9 -51.65 -72.35 -54.75 -77.1 -57.45 -79.7 -57.35 -81.0 -56.25 -83.1 -54.65 -83.0 -52.4 M-93.75 -95.8 L-93.75 -95.7 -93.75 -95.7 Q-93.55 -94.55 -92.55 -94.3 L-92.3 -94.2 -92.35 -94.2 Q-90.9 -94.0 -88.8 -94.25 -86.45 -94.65 -85.65 -95.95 L-85.5 -96.3 Q-85.0 -98.05 -86.4 -99.55 -87.1 -100.35 -90.45 -101.1 -91.8 -100.4 -92.85 -99.5 -94.25 -98.0 -93.95 -95.6 M-102.9 -50.1 Q-102.55 -48.9 -101.2 -48.55 -99.55 -48.6 -97.4 -49.35 -94.7 -50.3 -93.0 -52.6 -92.4 -54.15 -93.3 -55.6 -94.3 -57.15 -96.8 -58.45 -100.65 -57.3 -102.2 -55.15 -103.7 -53.05 -102.85 -50.0 L-102.85 -50.0 M-114.2 124.0 L-114.2 124.1 Q-113.9 124.9 -113.35 125.4 -112.35 125.65 -111.0 125.95 -107.1 126.0 -105.1 124.15 -104.25 123.3 -103.85 122.45 -103.25 120.8 -104.35 119.2 -105.15 117.9 -107.0 116.7 -107.7 116.65 -108.5 116.6 -109.75 116.9 -110.85 117.65 -112.0 118.55 -113.35 120.4 -114.5 122.05 -114.15 123.9 M-122.9 96.05 Q-124.6 98.95 -122.5 102.15 -121.65 103.0 -119.95 103.5 -118.8 103.5 -117.75 103.0 -112.8 100.8 -112.15 97.85 -112.3 95.35 -116.95 92.3 -119.3 92.7 -120.75 93.8 -122.2 94.85 -122.95 96.15 M-134.55 -77.2 Q-134.8 -75.7 -133.35 -74.85 -132.4 -74.4 -131.25 -73.85 -128.4 -72.9 -126.15 -74.25 -125.5 -74.65 -125.05 -75.1 -123.15 -76.95 -126.4 -81.6 -127.8 -81.9 -129.3 -82.1 -134.2 -80.6 -134.7 -77.25 M-155.7 -5.15 Q-154.95 -3.55 -152.5 -3.55 L-149.0 -3.8 Q-145.65 -5.55 -145.05 -7.25 -144.95 -7.9 -145.15 -8.6 -145.9 -10.55 -149.85 -12.6 L-150.45 -12.65 Q-152.75 -12.15 -154.85 -9.9 -156.45 -7.65 -155.55 -5.25 L-155.55 -5.3 M-166.35 -45.25 Q-165.95 -43.9 -164.25 -43.55 L-161.85 -43.15 -160.9 -43.2 Q-157.5 -44.2 -156.5 -47.35 -156.95 -49.15 -159.85 -51.4 -163.3 -51.2 -165.15 -49.3 -166.9 -47.5 -166.4 -45.2 L-166.4 -45.2 M-176.7 43.9 L-176.7 43.95 Q-176.6 44.65 -175.85 45.15 L-174.5 45.6 Q-172.75 45.8 -171.05 45.5 -168.2 44.75 -166.95 42.75 -166.2 41.05 -167.65 39.6 -168.55 38.6 -171.7 37.7 -174.25 38.5 -175.6 40.0 -177.05 41.55 -176.8 43.95 M-179.9 108.2 Q-179.35 110.2 -177.7 111.2 L-175.85 111.7 Q-174.6 111.9 -173.2 111.5 -171.6 111.1 -170.35 110.2 -166.9 107.95 -166.55 106.0 -166.5 105.25 -166.9 104.5 -167.9 102.65 -172.85 100.9 -177.0 101.0 -179.25 103.35 -180.8 105.5 -180.0 108.35 M-193.95 -41.4 Q-194.35 -39.85 -193.5 -38.2 L-192.55 -36.6 Q-191.5 -35.2 -190.0 -35.25 -189.3 -35.35 -188.6 -35.7 -187.05 -36.4 -185.8 -37.55 -183.6 -39.3 -183.9 -42.05 -185.0 -43.65 -189.65 -45.0 -193.35 -43.9 -194.0 -41.5 M-265.7 73.25 Q-265.85 74.5 -265.0 74.9 -263.7 75.6 -261.4 76.2 L-261.3 76.3 Q-259.8 76.6 -258.45 76.35 -257.2 76.0 -256.4 75.0 L-256.35 74.85 -256.25 74.7 -256.25 74.7 Q-254.6 72.0 -256.7 68.95 -257.2 68.1 -257.85 67.3 -259.55 66.8 -261.4 66.55 -262.5 67.2 -263.4 67.95 -265.55 70.0 -265.75 73.05 M24.35 78.45 Q24.65 81.2 29.0 82.25 33.35 81.1 34.05 79.5 35.1 77.0 31.7 74.4 29.0 73.75 26.85 73.8 23.9 75.25 24.3 78.4 M0.55 -30.45 L0.55 -30.4 Q0.55 -28.15 3.85 -25.6 L4.25 -25.35 Q5.65 -24.85 7.3 -25.15 L7.45 -25.35 Q11.2 -27.95 11.05 -30.6 10.3 -32.8 4.45 -35.0 0.85 -32.8 0.65 -30.45 M-6.35 -105.05 Q-6.8 -102.85 -3.95 -99.75 -3.15 -99.45 -1.9 -99.75 2.45 -101.85 2.6 -104.0 2.3 -106.25 -2.4 -108.75 -5.75 -107.15 -6.3 -105.0 L-6.3 -105.0 M-18.35 33.9 Q-18.55 34.25 -18.45 34.5 -17.55 36.5 -15.6 38.15 -14.25 38.95 -12.35 37.9 -11.0 37.1 -9.7 36.05 -7.7 34.15 -7.35 32.7 -7.25 32.05 -7.35 31.45 L-9.05 29.45 Q-10.7 29.2 -12.8 29.1 -16.75 30.95 -18.45 33.8 L-18.45 33.8 M83.55 -64.6 L83.55 -64.55 83.55 -64.4 Q83.7 -63.05 84.8 -61.8 85.8 -60.65 87.15 -60.15 87.9 -60.0 88.6 -60.15 L90.2 -61.0 Q93.95 -63.35 94.3 -65.25 L94.25 -66.35 Q93.5 -68.05 89.75 -69.6 88.55 -69.6 85.25 -68.15 83.5 -66.65 83.65 -64.6 M137.5 -70.85 L137.5 -70.85 Q136.45 -68.35 138.6 -65.05 L138.95 -64.55 Q140.1 -63.1 142.1 -63.5 L143.1 -63.75 Q144.45 -64.25 145.5 -65.0 147.95 -67.0 148.0 -70.8 147.05 -72.95 142.8 -75.0 138.65 -73.25 137.45 -70.85 M130.3 -95.0 Q130.4 -93.35 132.95 -92.25 133.75 -91.7 134.7 -92.05 140.95 -93.75 141.85 -96.0 142.1 -97.25 140.35 -98.85 139.0 -99.3 135.4 -100.1 133.75 -99.7 133.1 -98.9 130.8 -98.0 130.55 -96.95 129.9 -96.2 130.3 -94.95 M163.85 -31.5 Q163.6 -30.5 164.35 -29.65 165.45 -28.5 166.8 -27.5 167.45 -27.15 168.15 -27.0 169.6 -26.95 170.65 -27.5 L170.85 -27.7 171.45 -28.0 171.85 -28.15 Q175.0 -29.75 175.55 -31.1 L175.85 -31.75 Q176.25 -32.5 176.25 -33.9 175.35 -35.45 171.6 -36.15 169.7 -36.15 168.15 -35.95 164.55 -34.4 163.75 -31.7 M191.0 -98.1 Q191.25 -95.7 194.45 -93.45 195.45 -93.05 196.45 -93.35 202.0 -96.25 202.25 -99.0 202.3 -100.2 200.25 -101.5 199.6 -103.05 196.05 -104.4 194.45 -104.3 193.75 -103.25 190.8 -100.6 190.9 -98.05" fill="url(#gradient23)" fill-rule="evenodd" stroke="none"/>
      <path d="M-37.8 115.7 L-37.8 115.75 -37.8 115.75 Q-37.55 116.95 -37.05 117.8 L-36.4 118.15 -36.4 118.2 -36.4 118.25 -36.4 118.3 -36.35 118.3 -36.35 118.35 -36.15 118.55 -35.8 118.85 -35.35 119.1 -34.15 119.35 Q-31.75 119.4 -29.3 118.4 L-28.55 117.9 -28.2 117.55 Q-26.8 116.15 -26.25 114.65 -26.05 113.6 -26.25 112.5 -26.55 111.2 -27.05 110.0 -27.8 108.55 -30.8 107.2 -34.05 108.1 -36.25 110.05 -38.5 112.1 -37.8 115.7 M112.35 118.05 L112.35 118.1 112.65 118.7 Q112.85 119.2 113.2 119.6 L113.3 119.7 113.4 119.8 113.55 119.95 114.15 120.3 114.5 120.4 Q115.15 120.6 116.2 120.55 L118.7 119.6 Q120.05 118.85 120.7 117.95 121.35 116.7 120.55 115.15 120.05 113.9 118.7 112.5 L116.6 111.9 Q114.35 112.65 113.2 114.0 112.2 115.1 112.1 117.3 L112.15 118.25 M227.6 31.75 Q227.0 33.9 228.05 35.8 L228.65 36.5 Q229.45 37.1 230.35 37.3 231.55 37.2 232.55 36.85 233.8 36.2 234.85 35.25 L236.3 33.6 236.75 33.05 Q237.75 31.8 237.7 30.75 237.35 28.55 231.45 27.35 228.25 28.85 227.5 31.55 M222.75 39.4 Q222.05 41.65 223.6 43.75 L224.25 44.4 Q224.95 45.05 225.75 45.05 L226.65 45.0 Q228.55 44.4 230.3 42.85 231.3 41.95 231.9 40.95 232.1 40.3 232.15 39.15 231.75 37.3 229.5 35.85 228.6 35.5 226.45 35.9 223.6 37.15 222.8 39.5" fill="url(#gradient24)" fill-rule="evenodd" stroke="none"/>
      <path d="M-31.8 154.85 L-31.55 155.15 -31.5 155.2 -31.5 155.25 -31.5 155.3 -31.45 155.35 -31.3 155.5 -31.3 155.4 -31.1 155.65 -30.8 156.0 -30.2 156.6 -30.1 156.7 -29.3 157.3 -28.6 157.6 -28.35 157.7 Q-26.6 157.95 -24.75 157.15 L-24.45 157.05 -23.25 156.3 -23.05 156.15 Q-22.4 155.65 -21.85 155.0 L-21.2 154.15 -20.85 153.4 Q-20.65 153.0 -20.75 152.45 -21.4 149.0 -25.25 148.85 L-27.05 149.25 Q-28.6 149.7 -29.95 150.5 -31.75 152.2 -32.0 154.85 M257.55 -16.6 L257.55 -16.55 Q258.45 -13.5 260.95 -13.4 L261.05 -13.4 Q263.1 -13.35 265.65 -13.7 L266.05 -13.75 Q266.45 -13.9 266.75 -14.2 267.2 -14.9 267.65 -16.15 268.4 -18.75 267.85 -20.3 267.1 -21.9 264.7 -22.45 L263.7 -22.75 261.85 -22.65 Q258.4 -22.45 257.55 -18.65 257.3 -17.6 257.5 -16.6" fill="url(#gradient25)" fill-rule="evenodd" stroke="none"/>
      <path d="M52.4 146.25 L52.6 146.85 Q52.85 147.3 53.25 147.45 53.8 147.6 54.75 147.05 56.8 145.8 57.45 144.6 L57.65 144.0 Q57.7 143.15 57.15 142.3 L56.75 141.75 Q56.3 141.35 54.8 141.5 53.3 142.4 52.65 143.95 52.25 145.0 52.5 146.25 M48.85 146.65 L49.0 146.8 Q49.75 148.2 50.85 148.85 52.05 149.4 53.8 149.0 L56.4 148.25 Q59.1 147.05 60.3 145.1 60.75 144.1 60.9 143.1 L60.9 142.9 Q59.85 141.05 57.8 139.8 55.25 140.1 51.95 141.5 49.6 142.85 48.85 145.7 48.75 146.15 48.9 146.6 M154.55 40.7 L154.55 40.7 154.5 40.9 Q155.6 43.5 158.95 45.65 159.55 46.1 160.2 46.2 L160.95 46.2 Q165.25 45.35 167.75 42.0 167.8 41.3 167.7 40.55 166.9 38.3 164.0 37.0 L160.6 36.1 Q156.1 37.15 154.55 40.75 M182.05 70.45 L182.0 70.55 182.0 70.55 Q182.7 74.1 186.0 75.8 186.9 76.3 188.05 76.4 L188.95 75.95 189.9 74.9 190.5 74.0 190.9 73.35 Q191.25 72.4 191.3 71.6 191.3 70.5 190.55 69.65 L190.25 69.25 189.35 68.55 Q188.5 67.95 187.4 67.4 186.05 66.75 184.6 66.65 183.15 67.05 182.75 68.4 L182.3 70.15 182.3 70.15 M212.05 -14.55 L212.1 -14.45 Q212.6 -12.1 214.6 -10.7 215.25 -10.3 216.1 -10.05 L218.2 -10.0 219.75 -10.3 Q222.1 -10.7 223.75 -11.65 224.4 -12.0 224.8 -12.75 L225.05 -13.7 Q225.3 -15.25 225.1 -16.45 224.65 -17.85 223.1 -18.65 221.95 -19.2 220.6 -19.65 L217.9 -19.2 Q214.2 -18.3 212.1 -14.65 L212.05 -14.5" fill="url(#gradient26)" fill-rule="evenodd" stroke="none"/>
      <path d="M229.55 -128.8 L229.6 -128.65 229.6 -128.6 Q229.75 -128.05 230.15 -127.55 L230.8 -126.8 230.9 -126.75 231.15 -126.55 231.4 -126.35 Q231.95 -126.0 232.55 -125.8 L232.85 -125.7 233.4 -125.55 Q235.2 -125.15 236.35 -126.4 L236.7 -126.75 Q238.45 -129.2 238.05 -131.2 L237.85 -131.75 237.6 -132.15 237.4 -132.5 237.25 -132.6 237.2 -132.65 236.25 -133.2 235.45 -133.65 235.4 -133.7 235.3 -133.75 235.15 -133.8 234.85 -133.9 234.55 -134.0 234.05 -133.85 233.1 -133.55 231.5 -132.45 Q229.5 -130.65 229.55 -128.9" fill="url(#gradient27)" fill-rule="evenodd" stroke="none"/>
      <path d="M-265.75 73.05 Q-265.55 70.0 -263.4 67.95 -262.5 67.2 -261.4 66.55 -259.55 66.8 -257.85 67.3 -257.2 68.1 -256.7 68.95 -254.6 72.0 -256.25 74.7 L-256.25 74.7 -256.35 74.85 -256.4 75.0 Q-257.2 76.0 -258.45 76.35 -259.8 76.6 -261.3 76.3 L-261.4 76.2 Q-263.7 75.6 -265.0 74.9 -265.85 74.5 -265.7 73.25 M-194.0 -41.5 Q-193.35 -43.9 -189.65 -45.0 -185.0 -43.65 -183.9 -42.05 -183.6 -39.3 -185.8 -37.55 -187.05 -36.4 -188.6 -35.7 -189.3 -35.35 -190.0 -35.25 -191.5 -35.2 -192.55 -36.6 L-193.5 -38.2 Q-194.35 -39.85 -193.95 -41.4 M-180.0 108.35 Q-180.8 105.5 -179.25 103.35 -177.0 101.0 -172.85 100.9 -167.9 102.65 -166.9 104.5 -166.5 105.25 -166.55 106.0 -166.9 107.95 -170.35 110.2 -171.6 111.1 -173.2 111.5 -174.6 111.9 -175.85 111.7 L-177.7 111.2 Q-179.35 110.2 -179.9 108.2 M-176.8 43.95 Q-177.05 41.55 -175.6 40.0 -174.25 38.5 -171.7 37.7 -168.55 38.6 -167.65 39.6 -166.2 41.05 -166.95 42.75 -168.2 44.75 -171.05 45.5 -172.75 45.8 -174.5 45.6 L-175.85 45.15 Q-176.6 44.65 -176.7 43.95 L-176.7 43.9 M-166.4 -45.2 L-166.4 -45.2 Q-166.9 -47.5 -165.15 -49.3 -163.3 -51.2 -159.85 -51.4 -156.95 -49.15 -156.5 -47.35 -157.5 -44.2 -160.9 -43.2 L-161.85 -43.15 -164.25 -43.55 Q-165.95 -43.9 -166.35 -45.25 M-155.55 -5.3 L-155.55 -5.25 Q-156.45 -7.65 -154.85 -9.9 -152.75 -12.15 -150.45 -12.65 L-149.85 -12.6 Q-145.9 -10.55 -145.15 -8.6 -144.95 -7.9 -145.05 -7.25 -145.65 -5.55 -149.0 -3.8 L-152.5 -3.55 Q-154.95 -3.55 -155.7 -5.15 M-134.7 -77.25 Q-134.2 -80.6 -129.3 -82.1 -127.8 -81.9 -126.4 -81.6 -123.15 -76.95 -125.05 -75.1 -125.5 -74.65 -126.15 -74.25 -128.4 -72.9 -131.25 -73.85 -132.4 -74.4 -133.35 -74.85 -134.8 -75.7 -134.55 -77.2 M-122.95 96.15 Q-122.2 94.85 -120.75 93.8 -119.3 92.7 -116.95 92.3 -112.3 95.35 -112.15 97.85 -112.8 100.8 -117.75 103.0 -118.8 103.5 -119.95 103.5 -121.65 103.0 -122.5 102.15 -124.6 98.95 -122.9 96.05 M-114.15 123.9 Q-114.5 122.05 -113.35 120.4 -112.0 118.55 -110.85 117.65 -109.75 116.9 -108.5 116.6 -107.7 116.65 -107.0 116.7 -105.15 117.9 -104.35 119.2 -103.25 120.8 -103.85 122.45 -104.25 123.3 -105.1 124.15 -107.1 126.0 -111.0 125.95 -112.35 125.65 -113.35 125.4 -113.9 124.9 -114.2 124.1 L-114.2 124.0 M-102.85 -50.0 L-102.85 -50.0 Q-103.7 -53.05 -102.2 -55.15 -100.65 -57.3 -96.8 -58.45 -94.3 -57.15 -93.3 -55.6 -92.4 -54.15 -93.0 -52.6 -94.7 -50.3 -97.4 -49.35 -99.55 -48.6 -101.2 -48.55 -102.55 -48.9 -102.9 -50.1 M-93.95 -95.6 Q-94.25 -98.0 -92.85 -99.5 -91.8 -100.4 -90.45 -101.1 -87.1 -100.35 -86.4 -99.55 -85.0 -98.05 -85.5 -96.3 L-85.65 -95.95 Q-86.45 -94.65 -88.8 -94.25 -90.9 -94.0 -92.35 -94.2 L-92.3 -94.2 -92.55 -94.3 Q-93.55 -94.55 -93.75 -95.7 L-93.75 -95.7 -93.75 -95.8 M-83.0 -52.4 Q-83.1 -54.65 -81.0 -56.25 -79.7 -57.35 -77.1 -57.45 -72.35 -54.75 -72.9 -51.65 -73.75 -49.3 -78.35 -48.9 -80.05 -48.7 -81.6 -50.5 -82.9 -51.5 -83.0 -52.4 M-37.8 115.7 Q-38.5 112.1 -36.25 110.05 -34.05 108.1 -30.8 107.2 -27.8 108.55 -27.05 110.0 -26.55 111.2 -26.25 112.5 -26.05 113.6 -26.25 114.65 -26.8 116.15 -28.2 117.55 L-28.55 117.9 -29.3 118.4 Q-31.75 119.4 -34.15 119.35 L-35.35 119.1 -35.8 118.85 -36.15 118.55 -36.35 118.35 -36.35 118.3 -36.4 118.3 -36.4 118.25 -36.4 118.2 -36.4 118.15 -37.05 117.8 Q-37.55 116.95 -37.8 115.75 L-37.8 115.75 -37.8 115.7 M-34.1 -81.1 L-34.1 -81.25 -33.1 -82.65 -32.8 -82.85 -32.4 -83.05 -32.05 -83.3 -31.7 -83.5 -31.45 -83.55 -31.15 -83.6 -30.7 -83.75 -30.6 -83.7 -30.5 -83.6 -30.4 -83.5 -30.25 -83.35 -30.1 -83.2 -29.8 -82.75 -29.65 -82.5 -29.05 -81.85 -28.9 -81.55 -28.85 -81.4 -28.75 -81.2 -28.75 -81.05 -28.75 -80.9 -28.8 -80.75 -28.85 -80.5 -28.9 -80.35 -28.95 -80.2 -29.3 -79.6 -29.35 -79.5 -29.45 -79.35 -29.5 -79.25 -29.6 -79.15 -29.8 -79.0 -30.55 -78.25 -30.7 -78.15 Q-31.05 -78.1 -31.45 -78.35 L-33.0 -79.4 -33.3 -79.85 -33.75 -80.4 -33.85 -80.55 -34.05 -80.8 -34.1 -81.05 M-32.0 154.85 Q-31.75 152.2 -29.95 150.5 -28.6 149.7 -27.05 149.25 L-25.25 148.85 Q-21.4 149.0 -20.75 152.45 -20.65 153.0 -20.85 153.4 L-21.2 154.15 -21.85 155.0 Q-22.4 155.65 -23.05 156.15 L-23.25 156.3 -24.45 157.05 -24.75 157.15 Q-26.6 157.95 -28.35 157.7 L-28.6 157.6 -29.3 157.3 -30.1 156.7 -30.2 156.6 -30.8 156.0 -31.1 155.65 -31.3 155.4 -31.3 155.5 -31.45 155.35 -31.5 155.3 -31.5 155.25 -31.5 155.2 -31.55 155.15 -31.8 154.85 M-18.45 33.8 L-18.45 33.8 Q-16.75 30.95 -12.8 29.1 -10.7 29.2 -9.05 29.45 L-7.35 31.45 Q-7.25 32.05 -7.35 32.7 -7.7 34.15 -9.7 36.05 -11.0 37.1 -12.35 37.9 -14.25 38.95 -15.6 38.15 -17.55 36.5 -18.45 34.5 -18.55 34.25 -18.35 33.9 M-6.3 -105.0 L-6.3 -105.0 Q-5.75 -107.15 -2.4 -108.75 2.3 -106.25 2.6 -104.0 2.45 -101.85 -1.9 -99.75 -3.15 -99.45 -3.95 -99.75 -6.8 -102.85 -6.35 -105.05 M0.65 -30.45 Q0.85 -32.8 4.45 -35.0 10.3 -32.8 11.05 -30.6 11.2 -27.95 7.45 -25.35 L7.3 -25.15 Q5.65 -24.85 4.25 -25.35 L3.85 -25.6 Q0.55 -28.15 0.55 -30.4 L0.55 -30.45 M24.3 78.4 Q23.9 75.25 26.85 73.8 29.0 73.75 31.7 74.4 35.1 77.0 34.05 79.5 33.35 81.1 29.0 82.25 24.65 81.2 24.35 78.45 M48.9 146.6 Q48.75 146.15 48.85 145.7 49.6 142.85 51.95 141.5 55.25 140.1 57.8 139.8 59.85 141.05 60.9 142.9 L60.9 143.1 Q60.75 144.1 60.3 145.1 59.1 147.05 56.4 148.25 L53.8 149.0 Q52.05 149.4 50.85 148.85 49.75 148.2 49.0 146.8 L48.85 146.65 M52.5 146.25 Q52.25 145.0 52.65 143.95 53.3 142.4 54.8 141.5 56.3 141.35 56.75 141.75 L57.15 142.3 Q57.7 143.15 57.65 144.0 L57.45 144.6 Q56.8 145.8 54.75 147.05 53.8 147.6 53.25 147.45 52.85 147.3 52.6 146.85 L52.4 146.25 Q52.15 145.0 52.55 143.95 53.2 142.4 54.7 141.5 56.2 141.35 56.65 141.75 L57.05 142.3 Q57.6 143.15 57.55 144.0 L57.35 144.6 Q56.7 145.8 54.65 147.05 53.7 147.6 53.15 147.45 52.75 147.3 52.5 146.85 L52.3 146.25 M83.65 -64.6 Q83.5 -66.65 85.25 -68.15 88.55 -69.6 89.75 -69.6 93.5 -68.05 94.25 -66.35 L94.3 -65.25 Q93.95 -63.35 90.2 -61.0 L88.6 -60.15 Q87.9 -60.0 87.15 -60.15 85.8 -60.65 84.8 -61.8 83.7 -63.05 83.55 -64.4 L83.55 -64.55 83.55 -64.6 M112.15 118.25 L112.1 117.3 Q112.2 115.1 113.2 114.0 114.35 112.65 116.6 111.9 L118.7 112.5 Q120.05 113.9 120.55 115.15 121.35 116.7 120.7 117.95 120.05 118.85 118.7 119.6 L116.2 120.55 Q115.15 120.6 114.5 120.4 L114.15 120.3 113.55 119.95 113.4 119.8 113.3 119.7 113.2 119.6 Q112.85 119.2 112.65 118.7 L112.35 118.1 112.35 118.05 M130.3 -94.95 Q129.9 -96.2 130.55 -96.95 130.8 -98.0 133.1 -98.9 133.75 -99.7 135.4 -100.1 139.0 -99.3 140.35 -98.85 142.1 -97.25 141.85 -96.0 140.95 -93.75 134.7 -92.05 133.75 -91.7 132.95 -92.25 130.4 -93.35 130.3 -95.0 M137.45 -70.85 Q138.65 -73.25 142.8 -75.0 147.05 -72.95 148.0 -70.8 147.95 -67.0 145.5 -65.0 144.45 -64.25 143.1 -63.75 L142.1 -63.5 Q140.1 -63.1 138.95 -64.55 L138.6 -65.05 Q136.45 -68.35 137.5 -70.85 L137.5 -70.85 M154.55 40.75 Q156.1 37.15 160.6 36.1 L164.0 37.0 Q166.9 38.3 167.7 40.55 167.8 41.3 167.75 42.0 165.25 45.35 160.95 46.2 L160.2 46.2 Q159.55 46.1 158.95 45.65 155.6 43.5 154.5 40.9 L154.55 40.7 154.55 40.7 M163.75 -31.7 Q164.55 -34.4 168.15 -35.95 169.7 -36.15 171.6 -36.15 175.35 -35.45 176.25 -33.9 176.25 -32.5 175.85 -31.75 L175.55 -31.1 Q175.0 -29.75 171.85 -28.15 L171.45 -28.0 170.85 -27.7 170.65 -27.5 Q169.6 -26.95 168.15 -27.0 167.45 -27.15 166.8 -27.5 165.45 -28.5 164.35 -29.65 163.6 -30.5 163.85 -31.5 M182.3 70.15 L182.3 70.15 182.75 68.4 Q183.15 67.05 184.6 66.65 186.05 66.75 187.4 67.4 188.5 67.95 189.35 68.55 L190.25 69.25 190.55 69.65 Q191.3 70.5 191.3 71.6 191.25 72.4 190.9 73.35 L190.5 74.0 189.9 74.9 188.95 75.95 188.05 76.4 Q186.9 76.3 186.0 75.8 182.7 74.1 182.0 70.55 L182.0 70.55 182.05 70.45 M190.9 -98.05 Q190.8 -100.6 193.75 -103.25 194.45 -104.3 196.05 -104.4 199.6 -103.05 200.25 -101.5 202.3 -100.2 202.25 -99.0 202.0 -96.25 196.45 -93.35 195.45 -93.05 194.45 -93.45 191.25 -95.7 191.0 -98.1 M212.05 -14.5 L212.1 -14.65 Q214.2 -18.3 217.9 -19.2 L220.6 -19.65 Q221.95 -19.2 223.1 -18.65 224.65 -17.85 225.1 -16.45 225.3 -15.25 225.05 -13.7 L224.8 -12.75 Q224.4 -12.0 223.75 -11.65 222.1 -10.7 219.75 -10.3 L218.2 -10.0 216.1 -10.05 Q215.25 -10.3 214.6 -10.7 212.6 -12.1 212.1 -14.45 L212.05 -14.55 M222.8 39.5 Q223.6 37.15 226.45 35.9 228.6 35.5 229.5 35.85 231.75 37.3 232.15 39.15 232.1 40.3 231.9 40.95 231.3 41.95 230.3 42.85 228.55 44.4 226.65 45.0 L225.75 45.05 Q224.95 45.05 224.25 44.4 L223.6 43.75 Q222.05 41.65 222.75 39.4 M227.5 31.55 Q228.25 28.85 231.45 27.35 237.35 28.55 237.7 30.75 237.75 31.8 236.75 33.05 L236.3 33.6 234.85 35.25 Q233.8 36.2 232.55 36.85 231.55 37.2 230.35 37.3 229.45 37.1 228.65 36.5 L228.05 35.8 Q227.0 33.9 227.6 31.75 M229.55 -128.9 Q229.5 -130.65 231.5 -132.45 L233.1 -133.55 234.05 -133.85 234.55 -134.0 234.85 -133.9 235.15 -133.8 235.3 -133.75 235.4 -133.7 235.45 -133.65 236.25 -133.2 237.2 -132.65 237.25 -132.6 237.4 -132.5 237.6 -132.15 237.85 -131.75 238.05 -131.2 Q238.45 -129.2 236.7 -126.75 L236.35 -126.4 Q235.2 -125.15 233.4 -125.55 L232.85 -125.7 232.55 -125.8 Q231.95 -126.0 231.4 -126.35 L231.15 -126.55 230.9 -126.75 230.8 -126.8 230.15 -127.55 Q229.75 -128.05 229.6 -128.6 L229.6 -128.65 229.55 -128.8 M257.5 -16.6 Q257.3 -17.6 257.55 -18.65 258.4 -22.45 261.85 -22.65 L263.7 -22.75 264.7 -22.45 Q267.1 -21.9 267.85 -20.3 268.4 -18.75 267.65 -16.15 267.2 -14.9 266.75 -14.2 266.45 -13.9 266.05 -13.75 L265.65 -13.7 Q263.1 -13.35 261.05 -13.4 L260.95 -13.4 Q258.45 -13.5 257.55 -16.55 L257.55 -16.6" fill="none" stroke="#000000" stroke-linecap="round" stroke-linejoin="round" stroke-opacity="0.0" stroke-width="1.0"/>
    </g>
    <radialGradient cx="0" cy="0" gradientTransform="matrix(-0.0022, 0.0, 3.0E-4, -0.0027, -67.3, -80.3)" gradientUnits="userSpaceOnUse" id="gradient23" r="819.2" spreadMethod="pad">
      <stop offset="0.06666666666666667" stop-color="#ffffff" stop-opacity="0.7294118"/>
      <stop offset="1.0" stop-color="#ffffff" stop-opacity="0.7294118"/>
    </radialGradient>
    <radialGradient cx="0" cy="0" gradientTransform="matrix(-0.002, 0.0, 2.0E-4, -0.0024, -52.25, 23.1)" gradientUnits="userSpaceOnUse" id="gradient24" r="819.2" spreadMethod="pad">
      <stop offset="0.06666666666666667" stop-color="#ffffff" stop-opacity="0.7294118"/>
      <stop offset="1.0" stop-color="#ffffff" stop-opacity="0.7294118"/>
    </radialGradient>
    <radialGradient cx="0" cy="0" gradientTransform="matrix(-0.0017, 0.0, 2.0E-4, -0.0021, -32.9, 142.65)" gradientUnits="userSpaceOnUse" id="gradient25" r="819.2" spreadMethod="pad">
      <stop offset="0.06666666666666667" stop-color="#ffffff" stop-opacity="0.7294118"/>
      <stop offset="1.0" stop-color="#ffffff" stop-opacity="0.7294118"/>
    </radialGradient>
    <radialGradient cx="0" cy="0" gradientTransform="matrix(-0.0019, 0.0, 2.0E-4, -0.0024, -48.0, 39.25)" gradientUnits="userSpaceOnUse" id="gradient26" r="819.2" spreadMethod="pad">
      <stop offset="0.06666666666666667" stop-color="#ffffff" stop-opacity="0.7294118"/>
      <stop offset="1.0" stop-color="#ffffff" stop-opacity="0.7294118"/>
    </radialGradient>
    <radialGradient cx="0" cy="0" gradientTransform="matrix(-0.0022, 0.0, 3.0E-4, -0.0027, -65.3, -78.4)" gradientUnits="userSpaceOnUse" id="gradient27" r="819.2" spreadMethod="pad">
      <stop offset="0.06666666666666667" stop-color="#ffffff" stop-opacity="0.8117647"/>
      <stop offset="1.0" stop-color="#ffffff" stop-opacity="0.8117647"/>
    </radialGradient>
  </defs>
</svg>
