<?xml version="1.0" encoding="UTF-8" standalone="no"?>
<svg xmlns:xlink="http://www.w3.org/1999/xlink" height="167.65px" width="170.55px" xmlns="http://www.w3.org/2000/svg">
  <g transform="matrix(1.0, 0.0, 0.0, 1.0, 0.0, 0.0)">
    <use height="166.5" transform="matrix(1.0, 0.0, 0.0, 1.0, 20.65, 0.0)" width="132.5" xlink:href="#shape0"/>
  </g>
  <defs>
    <g id="shape0" transform="matrix(1.0, 0.0, 0.0, 1.0, -20.65, 0.0)">
      <path d="M123.65 5.7 L122.95 5.1 124.35 5.0 126.3 5.25 128.2 5.5 124.65 4.6 122.75 4.45 122.75 4.4 122.65 4.45 120.9 4.55 117.25 5.1 116.2 5.7 115.65 6.2 Q114.2 5.0 112.15 4.75 L108.4 4.7 110.5 4.65 Q113.95 2.65 117.35 0.6 119.3 0.95 121.25 1.6 133.15 5.55 141.15 19.1 146.7 28.5 149.75 41.35 L149.75 41.4 149.5 43.45 149.45 40.5 Q149.25 41.85 147.2 41.35 146.4 41.2 144.3 39.9 L143.25 39.25 142.8 38.5 141.65 35.55 Q141.0 33.8 139.35 32.95 137.85 32.15 135.55 31.75 L131.7 31.05 129.15 30.1 129.35 29.8 131.7 28.5 Q133.35 27.75 135.7 25.65 138.2 23.35 139.6 22.6 140.9 21.85 141.7 20.1 L141.2 19.2 Q140.45 20.65 139.35 21.4 L136.25 23.55 133.15 25.75 130.8 27.6 131.6 26.25 127.0 29.4 124.2 29.6 122.3 30.2 120.55 30.95 120.85 30.55 Q121.5 29.75 121.75 28.85 122.2 27.5 121.75 26.0 L121.0 23.25 Q120.9 22.5 121.15 21.55 L121.5 19.85 Q120.5 19.35 118.3 18.75 L115.1 17.6 Q115.2 16.4 115.9 14.9 L116.2 14.3 117.05 12.7 117.8 11.25 Q118.3 9.9 118.1 9.35 L117.25 8.15 Q119.5 6.8 121.45 6.5 L122.25 6.4 Q123.0 6.75 124.15 7.45 125.7 8.35 126.95 8.5 126.8 8.2 124.9 7.3 L123.55 6.3 123.75 6.3 Q125.15 7.05 126.3 7.25 L124.75 6.25 125.0 6.25 126.95 6.5 128.85 6.75 125.25 5.85 123.65 5.7 M116.45 7.05 L117.4 6.45 Q119.15 5.45 120.8 5.2 L121.65 5.15 122.7 5.7 121.55 5.8 117.9 6.35 Q117.25 6.6 116.6 7.2 L116.45 7.05 M116.05 43.6 L118.35 42.8 Q119.15 43.45 118.5 45.2 117.85 47.2 118.05 47.65 119.3 47.35 120.4 43.5 120.8 42.05 121.55 40.5 L122.55 40.15 Q123.05 39.95 123.35 39.5 L124.6 37.25 125.6 34.85 Q126.6 32.8 128.35 31.05 L128.4 31.0 133.7 32.15 137.6 33.35 Q139.95 34.35 140.65 35.6 141.55 37.25 141.35 38.1 141.15 38.95 140.05 39.0 L137.85 38.85 134.45 39.2 Q133.3 39.6 132.5 40.9 133.55 39.95 136.3 39.75 L140.5 40.0 Q142.05 40.4 145.9 42.3 147.25 42.95 148.0 43.85 L149.1 45.65 Q148.0 49.95 144.5 52.5 143.3 53.4 139.2 54.9 L137.75 55.8 136.65 57.0 135.25 58.35 133.4 59.2 135.65 59.1 Q136.65 58.85 137.3 58.3 L138.4 56.95 Q138.75 56.65 139.7 56.35 L141.15 55.95 Q143.9 55.1 145.65 53.95 147.6 52.7 148.85 50.8 150.25 48.75 150.8 46.2 L151.35 49.35 Q154.15 66.25 152.55 83.7 150.9 101.25 145.3 113.7 126.5 155.65 81.0 145.55 79.25 145.55 77.45 144.95 L70.05 142.45 Q68.3 141.85 66.85 140.8 60.1 137.75 54.65 134.0 L56.85 132.3 Q58.6 128.3 58.6 127.05 L58.6 122.8 58.15 123.0 58.15 121.8 54.15 123.3 Q53.1 124.95 50.9 126.85 L48.2 128.9 Q32.05 114.2 32.75 91.25 33.7 90.45 33.7 89.55 L32.8 89.65 Q33.1 83.45 34.65 76.7 37.65 63.35 46.75 48.35 53.0 38.1 60.7 29.35 L64.65 25.05 Q65.8 26.0 67.05 26.2 L65.9 23.75 68.15 21.55 Q71.5 18.3 74.9 15.55 L75.0 17.2 73.4 18.35 69.9 21.5 Q68.85 22.7 68.7 23.65 L69.7 24.05 69.9 24.45 Q70.25 25.55 67.6 28.05 L62.0 32.55 Q61.35 32.85 61.1 33.55 58.4 35.05 58.0 35.5 57.5 36.15 57.65 37.2 L58.0 39.05 58.05 40.85 57.6 42.6 56.5 44.5 55.75 46.15 Q54.1 46.3 52.25 47.4 49.35 49.1 47.95 51.8 L47.65 52.4 Q47.2 50.0 47.1 48.65 L47.1 47.8 45.9 49.8 43.85 54.4 44.05 55.35 45.4 58.15 44.2 60.45 Q43.55 61.65 43.2 62.6 43.55 61.8 44.4 60.7 L45.75 58.9 45.9 59.15 46.05 59.4 45.0 61.45 43.95 63.6 45.3 61.65 46.4 60.2 Q47.0 61.7 46.8 62.95 L46.3 66.45 Q46.1 67.8 46.25 68.25 L47.4 69.7 50.25 72.25 46.25 73.05 43.6 73.45 Q42.2 73.75 41.35 74.45 L39.75 75.8 Q38.7 76.55 37.65 76.55 L35.85 76.15 35.5 79.1 39.65 77.6 Q41.9 76.6 42.45 74.9 L46.45 74.45 Q49.1 74.1 50.1 75.0 L50.1 75.1 50.3 75.15 50.7 75.75 51.35 77.85 Q51.75 79.15 52.55 79.8 53.35 80.45 54.45 80.45 55.6 80.4 55.55 79.25 L53.3 78.05 Q52.35 77.4 51.9 76.05 51.55 75.1 51.55 74.1 L52.65 73.75 53.5 74.0 53.3 73.65 53.75 73.55 55.5 72.85 Q56.55 72.35 57.25 72.25 L61.0 71.95 60.25 75.95 59.45 79.95 Q59.05 81.55 57.7 83.1 L55.0 85.7 50.8 89.3 Q48.15 91.25 45.8 91.8 L43.15 92.0 40.15 92.45 37.6 94.05 Q36.3 95.0 35.45 96.55 35.85 100.05 36.4 102.9 37.1 98.85 38.6 96.4 39.25 95.3 39.65 94.95 40.25 94.45 41.4 94.25 L43.35 94.2 45.35 94.1 Q47.5 93.6 50.45 91.5 L51.85 90.3 54.0 88.75 56.65 86.2 59.0 83.2 Q60.2 81.85 60.75 79.5 L61.45 75.25 61.85 71.9 64.0 72.15 61.9 71.4 Q62.15 68.45 62.95 66.75 66.5 67.45 70.6 65.65 L66.15 66.35 64.75 66.05 63.45 65.85 Q64.3 64.7 66.3 63.2 L69.35 60.9 70.8 59.35 68.55 60.9 66.3 62.5 64.25 64.05 Q63.1 65.05 62.65 66.05 L62.6 66.2 61.9 66.5 62.45 66.65 Q61.6 68.95 61.15 71.15 58.85 70.4 57.35 70.65 L53.35 71.35 51.65 71.85 49.75 70.05 Q48.75 68.95 48.4 68.0 47.9 66.65 48.05 64.7 L48.55 61.25 49.35 62.3 Q50.9 63.95 54.5 64.65 L60.9 65.35 Q59.95 64.7 55.05 62.35 50.4 60.2 48.65 58.75 L48.4 56.35 49.35 54.7 Q50.7 52.6 53.3 50.7 54.15 52.7 53.9 53.65 L54.35 53.0 Q54.75 54.25 54.55 54.95 55.2 53.95 55.25 53.4 L55.15 51.8 Q54.95 50.65 55.2 50.05 L55.35 49.75 55.9 49.75 57.6 50.2 Q58.75 50.95 60.25 51.05 L64.75 51.0 69.1 50.8 70.2 50.55 71.3 50.4 Q71.9 50.5 72.7 51.1 L74.0 51.9 Q75.95 52.5 79.0 51.05 80.6 50.35 83.4 48.5 L83.7 48.3 Q85.15 49.0 86.9 52.05 88.8 55.35 90.0 56.15 L91.35 57.0 92.5 58.05 Q93.0 58.65 93.5 60.1 L94.1 61.65 94.05 61.8 94.0 61.9 93.85 62.4 93.75 62.65 93.65 62.85 Q92.85 64.65 91.3 66.55 L87.95 70.7 88.8 70.15 88.05 71.15 87.0 72.2 85.8 72.85 Q84.95 73.2 84.6 73.5 L84.4 73.7 84.1 73.7 83.95 73.7 85.05 72.95 Q84.35 73.35 83.6 73.7 L82.3 73.55 80.9 73.15 79.5 72.95 Q78.9 73.1 78.2 74.2 L78.1 74.4 77.3 75.3 Q76.3 76.5 76.05 77.95 L77.45 77.25 Q76.9 78.1 76.7 79.2 L78.7 78.15 79.35 77.35 Q79.75 76.75 80.05 76.65 L81.35 76.6 Q82.2 76.7 82.65 77.1 L82.7 77.15 82.75 77.3 82.75 77.8 80.75 83.85 80.15 85.45 Q79.85 86.4 80.0 87.05 L80.65 88.05 80.65 88.1 80.45 89.2 Q80.25 90.4 80.45 91.0 L81.25 88.35 81.25 88.55 81.1 90.45 Q80.9 91.65 81.1 92.25 L83.55 83.75 85.15 79.0 86.1 76.75 Q86.65 75.9 87.8 75.05 L90.05 73.45 92.1 71.65 93.45 69.7 94.55 67.7 Q96.6 64.5 97.65 59.3 97.25 59.0 96.85 58.95 L96.9 58.7 Q98.0 57.2 98.75 57.05 99.95 56.8 101.95 58.6 L104.6 61.2 Q106.05 62.45 107.3 62.65 L109.05 63.95 109.1 64.9 Q109.05 66.15 109.6 66.7 L109.8 66.85 Q109.85 67.55 110.25 67.95 110.65 68.35 111.95 69.05 L113.65 70.3 113.95 70.7 114.25 71.55 115.0 74.9 114.95 76.3 115.3 77.15 115.55 75.5 115.6 76.15 115.6 77.55 115.6 77.65 115.5 77.55 115.3 77.2 115.25 77.4 115.5 77.55 115.65 77.95 Q115.9 78.9 115.4 80.55 L113.65 79.95 109.55 75.95 Q108.95 75.3 107.95 74.7 L106.2 73.6 107.3 74.6 109.8 77.05 Q111.15 78.45 111.75 79.65 L109.0 79.65 Q107.45 79.75 105.4 80.7 103.05 81.8 101.9 82.0 L91.9 81.35 97.35 82.65 101.65 83.0 Q101.15 84.65 100.65 85.3 99.85 86.3 98.15 86.65 L95.05 87.1 92.1 87.65 Q93.1 88.25 95.15 88.3 L98.3 88.25 Q99.65 88.25 100.2 87.85 100.6 87.6 101.2 86.55 103.2 83.25 105.2 81.9 L106.45 81.4 Q108.3 80.65 111.15 80.65 113.4 80.65 115.15 81.3 L114.5 82.95 115.2 81.65 115.35 81.35 116.1 81.7 115.85 82.4 115.2 84.2 115.85 82.9 116.2 81.8 116.35 81.85 Q116.9 82.15 117.2 82.55 L117.7 83.4 Q118.2 84.25 119.45 85.3 L121.7 86.95 124.15 88.5 125.6 89.25 126.9 90.05 127.85 91.15 127.0 91.4 124.95 92.0 122.6 91.9 119.85 91.5 118.6 91.55 122.2 92.8 125.6 93.1 128.6 92.15 128.75 92.3 129.05 91.95 131.65 90.9 Q133.95 90.0 139.6 89.6 L139.7 89.6 138.65 91.9 137.7 94.2 Q137.15 95.85 136.0 96.85 L134.45 97.9 Q133.35 98.5 132.9 98.95 130.95 101.4 129.65 102.5 L125.75 105.15 120.8 105.45 117.6 105.2 110.7 105.0 112.35 105.3 114.0 105.25 117.55 105.65 120.35 105.9 119.85 107.0 119.25 108.05 117.5 109.35 118.15 108.55 115.4 109.6 110.75 109.95 112.1 109.95 115.75 110.35 115.75 110.4 Q114.75 110.95 114.25 112.0 L113.5 114.05 114.6 112.85 115.5 111.55 Q116.2 110.85 118.4 109.9 L120.25 107.85 Q121.25 106.45 122.5 106.1 L125.2 106.35 Q125.65 106.3 126.25 105.85 L127.15 105.15 129.35 103.9 131.3 102.2 132.9 100.3 134.9 98.4 137.1 96.65 136.8 98.4 136.0 101.6 134.95 104.7 Q134.25 106.4 133.3 107.55 L131.8 109.75 131.7 109.95 131.75 109.65 129.6 111.35 127.55 111.75 125.45 112.05 Q123.95 112.45 123.2 113.05 122.55 113.6 122.1 114.65 122.9 113.45 126.2 112.75 L127.55 112.55 128.75 112.3 Q131.5 111.3 131.55 112.55 L131.6 111.25 131.7 112.2 Q131.65 113.65 130.45 117.05 L131.45 115.55 132.25 114.05 132.5 112.4 132.55 110.75 Q132.7 109.9 133.3 109.3 L134.55 108.15 Q135.25 107.55 136.2 105.65 L137.1 107.2 137.65 108.75 138.0 110.4 138.15 112.0 138.95 110.15 Q139.45 108.95 139.4 108.25 L138.55 106.3 136.9 104.0 Q138.8 99.6 139.05 97.35 139.3 95.4 139.85 93.65 L140.3 91.4 141.4 88.95 142.15 88.1 142.75 87.05 143.0 86.8 143.0 86.75 143.4 86.35 Q144.1 85.8 146.0 85.55 146.8 85.25 147.15 84.65 L147.75 83.45 Q150.05 79.95 150.65 78.05 L153.05 70.3 152.6 67.7 151.9 73.0 Q151.5 74.75 150.4 77.0 L148.45 80.8 147.5 82.6 146.05 84.1 142.7 86.45 142.05 87.0 140.1 88.2 140.05 88.45 139.6 88.65 137.5 88.9 130.3 90.45 130.8 89.85 125.7 88.1 Q122.85 86.95 121.15 85.45 L119.1 83.2 Q117.95 81.85 116.75 81.2 L116.45 81.05 116.9 79.45 116.2 78.85 116.2 78.8 116.3 78.2 116.05 77.95 Q116.45 75.8 115.9 73.6 L115.85 73.4 116.85 74.05 117.85 74.7 119.75 75.4 121.45 76.85 Q122.65 77.8 123.25 77.4 L122.1 76.7 121.0 75.85 118.9 74.7 117.9 73.75 119.1 74.15 120.85 75.55 Q122.05 76.5 122.65 76.1 L121.45 75.4 120.35 74.55 Q118.95 74.05 118.25 73.45 L116.7 72.0 Q115.95 71.5 115.15 71.55 L114.85 70.95 113.9 69.15 113.55 68.5 112.1 67.1 111.05 66.0 110.9 65.1 Q110.55 63.3 110.0 62.55 L109.9 62.4 109.7 61.85 Q110.7 60.95 111.55 59.1 L114.25 49.75 116.05 43.6 M119.65 32.2 L122.3 31.65 123.6 31.2 125.05 30.8 125.4 30.75 Q124.8 32.2 123.75 35.55 122.65 38.45 121.05 39.65 119.35 41.0 116.6 41.85 118.1 37.05 119.55 33.55 L119.6 32.85 Q119.55 32.5 119.65 32.2 M60.7 29.35 L60.6 30.5 60.9 29.15 60.7 29.35 M117.0 0.5 L113.8 0.1 106.3 4.4 Q106.75 2.4 105.95 2.25 105.45 2.15 103.1 3.1 L98.15 4.85 Q96.7 5.5 94.25 7.65 91.95 9.65 90.4 10.25 L89.9 9.65 89.35 9.1 Q88.05 10.3 86.85 10.3 L86.2 10.6 Q84.8 10.85 82.85 12.25 L79.75 14.45 Q77.75 15.55 76.4 16.35 L76.8 14.05 Q85.6 7.15 94.45 3.55 98.15 2.0 101.75 1.15 109.75 -0.8 117.0 0.5 M115.5 72.3 L116.25 72.75 116.4 72.85 115.7 72.85 115.5 72.3 M88.05 73.1 L87.65 73.5 87.0 73.9 87.15 73.75 88.05 73.1 M117.2 76.55 L118.25 77.0 119.25 77.5 119.35 77.55 Q117.95 76.25 117.2 76.55 M116.15 78.85 L116.2 78.85 116.3 79.2 116.25 80.95 115.6 80.6 116.15 78.85 M50.85 97.4 L49.65 100.15 Q48.95 101.7 47.9 102.45 46.4 103.2 45.95 103.7 L44.85 105.95 Q43.75 108.7 43.1 111.1 42.75 112.65 43.05 114.3 L43.3 115.15 Q43.4 115.65 43.1 115.9 L49.75 121.95 48.7 120.2 46.75 117.15 44.95 114.05 44.3 112.0 Q44.25 111.15 44.55 109.9 L45.65 105.95 Q46.05 104.85 46.55 104.35 46.85 104.05 48.15 103.3 L48.95 102.6 50.7 102.7 52.45 102.85 55.25 101.85 56.35 100.75 56.9 99.2 Q55.5 100.85 54.05 101.35 L53.35 101.55 Q52.95 101.1 53.3 99.7 L53.8 97.95 Q53.25 98.45 52.9 99.7 L52.3 101.75 51.0 101.95 49.45 101.95 50.4 99.45 Q50.9 97.75 51.45 97.0 L53.95 94.8 Q55.45 93.55 55.85 92.1 L53.25 94.7 Q51.5 96.25 50.85 97.4 M65.5 79.65 Q65.45 77.65 65.75 76.5 63.6 83.6 62.8 91.8 L62.6 93.5 62.65 95.3 Q63.05 97.7 63.65 99.5 L64.85 102.55 65.95 105.6 Q66.3 106.85 66.05 109.15 65.85 111.35 66.25 112.55 67.6 116.4 71.5 119.7 L73.4 120.85 75.25 122.15 77.55 124.9 79.9 127.6 83.5 131.85 Q85.65 134.4 87.4 135.6 96.05 141.6 108.55 146.45 L111.2 145.8 111.35 145.8 113.85 145.05 106.4 137.8 Q108.0 133.5 108.45 129.7 L108.55 128.15 107.75 127.35 106.6 126.6 105.55 125.6 104.45 123.6 102.05 120.75 101.2 119.7 Q100.1 117.6 102.0 111.25 L104.2 106.55 Q105.35 104.15 105.95 101.2 L106.15 99.1 106.35 96.9 104.6 102.1 103.5 104.15 102.3 106.15 100.95 104.9 Q100.55 104.5 99.85 102.9 99.2 101.4 98.75 101.1 98.6 102.75 99.65 104.55 100.5 106.0 101.85 107.1 L101.85 107.2 100.5 113.3 Q99.65 115.45 99.55 116.75 99.25 115.55 98.3 114.65 L96.45 113.2 93.6 111.4 91.0 109.35 Q89.3 107.65 89.7 103.7 L90.8 97.2 89.25 101.6 Q88.35 104.3 88.5 105.95 88.6 107.1 88.95 107.9 88.35 108.4 87.05 107.7 L85.25 106.6 83.5 106.35 81.7 106.7 Q84.0 108.05 88.7 109.6 89.45 109.85 90.85 110.75 L92.7 112.4 95.5 114.55 Q97.35 115.9 98.3 116.8 L99.6 118.25 99.6 118.35 Q99.9 120.25 102.05 123.2 104.3 126.2 104.7 128.15 105.15 130.3 103.8 132.55 102.45 134.75 100.5 135.3 L100.2 135.35 99.6 135.1 Q97.2 134.35 93.95 132.6 L88.45 129.65 82.35 126.7 Q78.85 124.85 76.8 122.7 L75.2 120.9 73.65 119.1 Q71.65 117.6 70.9 116.5 68.35 112.95 67.85 110.95 67.65 110.15 67.95 108.6 L68.2 106.1 68.05 104.75 Q69.3 102.6 71.7 100.0 73.65 98.0 74.75 93.95 75.45 91.4 75.9 87.2 L74.7 91.15 Q73.9 93.4 72.95 94.75 L69.95 97.9 Q67.9 99.8 67.1 101.3 65.2 97.1 64.6 94.8 63.6 91.05 64.6 85.0 L65.5 79.65 M65.95 119.4 L66.45 121.2 67.1 123.6 Q67.6 125.0 68.35 125.65 L70.15 127.1 71.8 129.0 73.3 131.0 Q74.25 132.25 75.35 132.95 76.25 133.55 77.9 134.1 L82.85 134.2 Q76.4 131.0 73.9 129.35 L72.15 127.9 70.45 126.35 68.05 123.95 69.45 118.4 68.6 120.15 67.15 122.0 66.45 119.55 66.15 118.55 66.0 117.55 Q65.7 118.2 65.95 119.4 M52.6 124.6 L49.75 121.95 Q51.25 124.4 52.6 124.6 M114.05 118.6 Q113.25 119.6 114.45 121.25 L116.5 123.45 117.2 124.15 117.35 124.9 117.35 124.35 119.95 127.3 Q121.1 129.15 120.35 130.9 L123.6 127.5 120.45 125.8 Q118.65 124.8 117.55 123.7 L117.45 123.6 Q117.55 122.7 118.0 121.4 L118.1 120.1 118.1 118.8 117.7 121.05 117.1 123.25 115.1 120.75 114.6 119.65 114.05 118.6" fill="url(#gradient0)" fill-rule="evenodd" stroke="none"/>
      <path d="M115.65 6.2 L116.2 5.7 117.25 5.1 120.9 4.55 122.65 4.45 122.75 4.4 122.75 4.45 124.65 4.6 128.2 5.5 126.3 5.25 124.35 5.0 122.95 5.1 123.65 5.7 124.3 6.05 124.75 6.25 126.3 7.25 Q125.15 7.05 123.75 6.3 L123.5 6.15 122.7 5.7 121.65 5.15 120.8 5.2 Q119.15 5.45 117.4 6.45 L116.45 7.05 115.05 7.9 114.4 8.25 113.25 7.55 113.9 7.15 114.25 6.95 115.3 6.45 115.65 6.2 M112.1 67.1 L113.55 68.5 113.9 69.15 114.6 71.35 Q114.2 70.45 113.4 69.65 L112.6 68.9 111.45 67.9 110.1 66.25 109.5 66.05 109.75 65.4 110.1 66.25 111.8 66.9 112.1 67.1 M80.65 88.1 L80.65 88.05 80.0 87.05 Q79.85 86.4 80.15 85.45 L80.75 83.85 82.75 77.8 82.75 77.3 82.75 76.75 Q83.9 76.85 83.55 78.8 L83.35 79.6 82.0 83.2 81.4 84.75 81.05 86.3 80.95 87.8 80.85 88.6 80.65 88.1 M78.1 74.4 L78.2 74.2 Q78.9 73.1 79.5 72.95 L81.25 73.3 82.95 74.0 83.6 73.7 Q84.35 73.35 85.05 72.95 L83.95 73.7 81.8 74.5 80.9 74.65 79.8 74.75 79.45 74.8 78.65 74.95 77.4 75.9 78.1 74.4 M88.8 70.15 L87.95 70.7 91.3 66.55 Q92.85 64.65 93.65 62.85 L93.75 62.65 93.85 62.4 94.0 61.9 94.05 61.8 94.15 61.7 94.85 60.45 94.6 61.4 94.4 62.2 94.2 63.2 Q93.8 64.8 93.0 65.8 90.45 68.8 88.8 70.15 M54.35 53.0 L53.9 53.65 Q54.15 52.7 53.3 50.7 L53.3 50.65 Q52.95 49.8 53.1 49.1 L52.9 49.2 Q50.0 51.4 48.7 53.45 L47.45 55.65 45.95 58.5 45.75 58.9 44.4 60.7 Q43.55 61.8 43.2 62.6 43.55 61.65 44.2 60.45 L45.4 58.15 45.45 57.95 46.65 54.85 47.65 52.4 47.95 51.8 Q49.35 49.1 52.25 47.4 54.1 46.3 55.75 46.15 L57.05 46.15 58.1 46.4 58.6 47.95 Q58.9 48.6 58.5 49.3 L58.45 49.3 55.65 48.5 54.75 48.5 54.55 48.8 Q54.35 49.4 54.5 50.55 L54.65 52.15 54.35 53.0" fill="#161516" fill-rule="evenodd" stroke="none"/>
      <path d="M123.65 5.7 L125.25 5.85 128.85 6.75 126.95 6.5 125.0 6.25 124.75 6.25 124.3 6.05 123.65 5.7 M123.75 6.3 L123.55 6.3 124.9 7.3 Q126.8 8.2 126.95 8.5 125.7 8.35 124.15 7.45 123.0 6.75 122.25 6.4 L121.45 6.5 Q119.5 6.8 117.25 8.15 L118.1 9.35 Q118.3 9.9 117.8 11.25 L117.05 12.7 117.05 12.65 Q117.55 11.4 117.35 10.85 L116.15 9.1 115.05 7.9 116.45 7.05 116.6 7.2 Q117.25 6.6 117.9 6.35 L121.55 5.8 122.7 5.7 123.5 6.15 123.75 6.3 M115.9 14.9 Q115.2 16.4 115.1 17.6 L118.3 18.75 Q120.5 19.35 121.5 19.85 L121.15 21.55 Q120.9 22.5 121.0 23.25 L121.75 26.0 Q122.2 27.5 121.75 28.85 121.5 29.75 120.85 30.55 L120.55 30.95 120.5 31.05 120.45 31.1 120.4 31.15 119.75 31.95 119.65 32.2 Q119.55 32.5 119.6 32.85 L119.55 33.55 Q118.1 37.05 116.6 41.85 L116.05 43.6 114.25 49.75 111.55 59.1 Q110.7 60.95 109.7 61.85 L109.3 61.2 Q110.35 60.35 111.2 58.5 L113.75 49.5 Q116.75 39.2 118.85 34.0 L118.9 33.3 Q118.85 32.85 119.05 32.5 L120.1 31.15 121.0 29.5 Q121.4 28.25 120.9 26.85 L120.2 24.15 120.35 22.55 120.7 20.9 117.6 19.8 Q115.5 19.25 114.5 18.7 114.6 17.35 115.55 15.55 L115.9 14.9 M108.4 4.7 L112.15 4.75 Q114.2 5.0 115.65 6.2 L115.3 6.45 114.25 6.95 113.9 7.15 Q112.85 6.55 111.55 6.4 L105.8 6.25 Q106.35 4.1 105.55 3.95 105.1 3.9 102.8 4.75 99.6 5.75 98.0 6.45 96.55 7.1 94.25 9.1 92.05 11.05 90.55 11.6 L90.05 11.0 89.5 10.45 Q88.25 11.6 87.1 11.6 L86.45 11.9 Q85.1 12.15 83.2 13.45 L80.2 15.6 Q77.2 17.15 75.7 18.15 70.35 21.65 69.7 24.05 L68.7 23.65 Q68.85 22.7 69.9 21.5 L73.4 18.35 75.0 17.2 75.05 17.15 76.4 16.35 Q77.75 15.55 79.75 14.45 L82.85 12.25 Q84.8 10.85 86.2 10.6 L86.85 10.3 Q88.05 10.3 89.35 9.1 L89.9 9.65 90.4 10.25 Q91.95 9.65 94.25 7.65 96.7 5.5 98.15 4.85 L103.1 3.1 Q105.45 2.15 105.95 2.25 106.75 2.4 106.3 4.4 L106.25 4.4 106.2 4.65 107.1 4.7 108.4 4.7 M109.9 62.4 L110.0 62.55 Q110.55 63.3 110.9 65.1 L111.05 66.0 110.95 65.9 110.4 64.95 110.25 63.8 109.9 62.4 M114.85 70.95 L115.15 71.55 115.05 71.55 114.85 70.95 M117.9 73.75 L118.9 74.7 121.0 75.85 122.1 76.7 123.25 77.4 Q122.65 77.8 121.45 76.85 L119.75 75.4 117.85 74.7 116.85 74.05 115.85 73.4 115.9 73.6 Q116.45 75.8 116.05 77.95 L115.6 77.65 115.6 77.55 115.6 76.15 115.55 75.5 Q115.65 73.9 115.3 72.35 L115.25 72.2 115.5 72.3 115.7 72.85 116.4 72.85 117.25 73.45 117.9 73.75 M116.2 78.8 L116.2 78.85 116.9 79.45 116.45 81.05 116.2 81.8 115.85 82.9 115.2 84.2 115.85 82.4 116.1 81.7 116.25 80.95 116.3 79.2 116.2 78.85 116.15 78.85 116.2 78.8 M113.95 70.7 L113.65 70.3 111.95 69.05 Q110.65 68.35 110.25 67.95 109.85 67.55 109.8 66.85 L111.3 67.8 111.45 67.9 112.6 68.9 113.4 69.65 113.95 70.7 M109.05 63.95 L107.3 62.65 Q106.05 62.45 104.6 61.2 L101.95 58.6 Q99.95 56.8 98.75 57.05 98.0 57.2 96.9 58.7 L97.0 58.05 Q98.1 56.6 98.8 56.45 99.95 56.2 101.9 57.95 L104.45 60.45 Q106.0 61.8 107.4 61.85 L107.6 62.0 108.75 63.05 109.05 63.95 M96.85 58.95 Q97.25 59.0 97.65 59.3 96.6 64.5 94.55 67.7 L93.45 69.7 92.1 71.65 90.05 73.45 87.8 75.05 Q86.65 75.9 86.1 76.75 L85.15 79.0 83.55 83.75 81.1 92.25 Q80.9 91.65 81.1 90.45 L81.25 88.55 81.25 88.35 82.95 82.45 84.5 77.7 Q85.05 76.1 85.45 75.45 85.95 74.65 87.0 73.9 L87.65 73.5 88.05 73.1 Q90.7 71.15 91.45 70.4 L92.8 68.45 93.9 66.45 Q95.8 63.55 96.85 58.95 M82.7 77.15 L82.65 77.1 Q82.2 76.7 81.35 76.6 L80.05 76.65 Q79.75 76.75 79.35 77.35 L78.7 78.15 76.7 79.2 Q76.9 78.1 77.45 77.25 L78.05 76.9 78.7 76.1 Q79.1 75.5 79.4 75.4 L80.75 75.3 Q81.6 75.45 82.05 75.8 L82.6 76.95 82.7 77.15 M94.1 61.65 L93.5 60.1 Q93.0 58.65 92.5 58.05 L91.35 57.0 90.0 56.15 Q88.8 55.35 86.9 52.05 85.15 49.0 83.7 48.3 L84.2 48.0 Q85.6 48.65 87.3 51.6 89.15 54.75 90.3 55.55 L91.6 56.4 92.75 57.35 93.7 59.35 94.35 60.95 94.1 61.65 M83.4 48.5 Q80.6 50.35 79.0 51.05 75.95 52.5 74.0 51.9 L72.7 51.1 Q71.9 50.5 71.3 50.4 L70.2 50.55 69.1 50.8 64.75 51.0 60.25 51.05 Q58.75 50.95 57.6 50.2 L55.9 49.75 55.35 49.75 55.2 50.05 Q54.95 50.65 55.15 51.8 L55.25 53.4 Q55.2 53.95 54.55 54.95 54.75 54.25 54.35 53.0 L54.65 52.15 54.5 50.55 Q54.35 49.4 54.55 48.8 L54.75 48.5 55.65 48.5 58.45 49.3 Q59.7 50.4 61.5 50.5 L70.05 50.35 71.1 50.1 72.2 50.0 Q72.75 50.1 73.5 50.65 L74.8 51.4 Q76.7 52.0 79.65 50.6 80.9 50.05 83.4 48.5 M53.3 50.7 Q50.7 52.6 49.35 54.7 L48.4 56.35 46.6 59.8 46.4 60.2 45.3 61.65 43.95 63.6 45.0 61.45 46.05 59.4 46.1 59.25 47.25 56.1 47.45 55.65 48.7 53.45 Q50.0 51.4 52.9 49.2 L53.1 49.1 Q52.95 49.8 53.3 50.65 L53.3 50.7 M55.75 46.15 L56.5 44.5 57.6 42.6 58.05 40.85 58.0 39.05 57.65 37.2 Q57.5 36.15 58.0 35.5 58.4 35.05 61.1 33.55 61.35 32.85 62.0 32.55 L67.6 28.05 Q70.25 25.55 69.9 24.45 72.2 25.1 68.5 28.55 L63.1 32.85 Q62.55 33.05 62.2 33.75 L60.65 34.7 59.25 35.65 Q58.75 36.3 58.9 37.3 L59.25 39.05 59.3 40.75 58.9 42.4 57.85 44.25 Q57.1 45.45 57.05 46.1 L57.05 46.15 55.75 46.15" fill="#f9ecd0" fill-rule="evenodd" stroke="none"/>
      <path d="M120.55 30.95 L122.3 30.2 124.2 29.6 127.0 29.4 131.6 26.25 130.8 27.6 133.15 25.75 136.25 23.55 139.35 21.4 Q140.45 20.65 141.2 19.2 L141.7 20.1 Q140.9 21.85 139.6 22.6 138.2 23.35 135.7 25.65 133.35 27.75 131.7 28.5 L129.35 29.8 129.15 30.1 131.7 31.05 135.55 31.75 Q137.85 32.15 139.35 32.95 141.0 33.8 141.65 35.55 L142.8 38.5 143.25 39.25 144.3 39.9 Q146.4 41.2 147.2 41.35 149.25 41.85 149.45 40.5 L149.5 43.45 149.75 41.4 149.75 41.35 150.8 46.15 150.8 46.2 Q150.25 48.75 148.85 50.8 147.6 52.7 145.65 53.95 143.9 55.1 141.15 55.95 L139.7 56.35 Q138.75 56.65 138.4 56.95 L137.3 58.3 Q136.65 58.85 135.65 59.1 L133.4 59.2 135.25 58.35 136.65 57.0 137.75 55.8 139.2 54.9 Q143.3 53.4 144.5 52.5 148.0 49.95 149.1 45.65 L148.0 43.85 Q147.25 42.95 145.9 42.3 142.05 40.4 140.5 40.0 L136.3 39.75 Q133.55 39.95 132.5 40.9 133.3 39.6 134.45 39.2 L137.85 38.85 140.05 39.0 Q141.15 38.95 141.35 38.1 141.55 37.25 140.65 35.6 139.95 34.35 137.6 33.35 L133.7 32.15 128.4 31.0 128.35 31.05 Q126.6 32.8 125.6 34.85 L124.6 37.25 123.35 39.5 Q123.05 39.95 122.55 40.15 L121.55 40.5 Q120.8 42.05 120.4 43.5 119.3 47.35 118.05 47.65 117.85 47.2 118.5 45.2 119.15 43.45 118.35 42.8 L116.05 43.6 116.6 41.85 Q119.35 41.0 121.05 39.65 122.65 38.45 123.75 35.55 124.8 32.2 125.4 30.75 L125.05 30.8 123.6 31.2 122.3 31.65 119.65 32.2 119.75 31.95 120.4 31.15 120.45 31.1 120.5 31.05 120.55 30.95 M60.7 29.35 L60.9 29.15 60.6 30.5 60.7 29.35" fill="url(#gradient1)" fill-rule="evenodd" stroke="none"/>
      <path d="M117.35 0.6 Q113.95 2.65 110.5 4.65 L108.4 4.7 107.1 4.7 106.2 4.65 106.25 4.4 106.3 4.4 113.8 0.1 117.0 0.5 117.35 0.55 117.35 0.6" fill="url(#gradient2)" fill-rule="evenodd" stroke="none"/>
      <path d="M117.05 12.7 L116.2 14.3 115.9 14.9 115.55 15.55 Q114.6 17.35 114.5 18.7 115.5 19.25 117.6 19.8 L120.7 20.9 120.35 22.55 120.2 24.15 120.9 26.85 Q121.4 28.25 121.0 29.5 L120.1 31.15 119.05 32.5 Q118.85 32.85 118.9 33.3 L118.85 34.0 Q116.75 39.2 113.75 49.5 L111.2 58.5 Q110.35 60.35 109.3 61.2 108.45 60.1 107.1 60.65 L106.25 61.1 107.4 61.85 Q106.0 61.8 104.45 60.45 L101.9 57.95 Q99.95 56.2 98.8 56.45 98.1 56.6 97.0 58.05 96.55 57.7 96.15 57.7 L94.55 60.35 94.35 60.95 93.7 59.35 92.75 57.35 91.6 56.4 90.3 55.55 Q89.15 54.75 87.3 51.6 85.6 48.65 84.2 48.0 L83.7 48.3 83.4 48.5 Q80.9 50.05 79.65 50.6 76.7 52.0 74.8 51.4 L73.5 50.65 Q72.75 50.1 72.2 50.0 L71.1 50.1 70.05 50.35 61.5 50.5 Q59.7 50.4 58.45 49.3 L58.5 49.3 Q58.9 48.6 58.6 47.95 L58.1 46.4 57.05 46.15 57.05 46.1 Q57.1 45.45 57.85 44.25 L58.9 42.4 59.3 40.75 59.25 39.05 58.9 37.3 Q58.75 36.3 59.25 35.65 L60.65 34.7 62.2 33.75 Q62.55 33.05 63.1 32.85 L68.5 28.55 Q72.2 25.1 69.9 24.45 L69.7 24.05 Q70.35 21.65 75.7 18.15 77.2 17.15 80.2 15.6 L83.2 13.45 Q85.1 12.15 86.45 11.9 L87.1 11.6 Q88.25 11.6 89.5 10.45 L90.05 11.0 90.55 11.6 Q92.05 11.05 94.25 9.1 96.55 7.1 98.0 6.45 99.6 5.75 102.8 4.75 105.1 3.9 105.55 3.95 106.35 4.1 105.8 6.25 L111.55 6.4 Q112.85 6.55 113.9 7.15 L113.25 7.55 114.4 8.25 115.05 7.9 116.15 9.1 117.35 10.85 Q117.55 11.4 117.05 12.65 L117.05 12.7 M101.75 1.15 Q98.15 2.0 94.45 3.55 85.6 7.15 76.8 14.05 L76.8 14.0 Q89.95 3.0 101.75 1.15" fill="url(#gradient3)" fill-rule="evenodd" stroke="none"/>
      <path d="M109.7 61.85 L109.9 62.4 110.25 63.8 110.4 64.95 110.95 65.9 111.05 66.0 112.1 67.1 111.8 66.9 110.1 66.25 109.75 65.4 109.5 66.05 110.1 66.25 111.45 67.9 111.3 67.8 109.8 66.85 109.6 66.7 Q109.05 66.15 109.1 64.9 L109.05 63.95 108.75 63.05 107.6 62.0 107.4 61.85 106.25 61.1 107.1 60.65 Q108.45 60.1 109.3 61.2 L109.7 61.85 M113.9 69.15 L114.85 70.95 115.05 71.55 115.15 71.55 Q115.95 71.5 116.7 72.0 L118.25 73.45 Q118.95 74.05 120.35 74.55 L121.45 75.4 122.65 76.1 Q122.05 76.5 120.85 75.55 L119.1 74.15 117.9 73.75 117.25 73.45 116.4 72.85 116.25 72.75 115.5 72.3 115.25 72.2 115.3 72.35 Q115.65 73.9 115.55 75.5 L115.3 77.15 114.95 76.3 115.0 74.9 114.25 71.55 113.95 70.7 113.4 69.65 Q114.2 70.45 114.6 71.35 L113.9 69.15 M116.05 77.95 L116.3 78.2 116.2 78.8 116.15 78.85 115.6 80.6 115.35 81.35 115.2 81.65 114.5 82.95 115.15 81.3 115.2 81.15 115.4 80.55 Q115.9 78.9 115.65 77.95 L115.5 77.55 115.25 77.4 115.3 77.2 115.5 77.55 115.6 77.65 116.05 77.95 M96.9 58.7 L96.85 58.95 Q95.8 63.55 93.9 66.45 L92.8 68.45 91.45 70.4 Q90.7 71.15 88.05 73.1 L87.15 73.75 87.0 73.9 Q85.95 74.65 85.45 75.45 85.05 76.1 84.5 77.7 L82.95 82.45 81.25 88.35 80.45 91.0 Q80.25 90.4 80.45 89.2 L80.65 88.1 80.85 88.6 80.95 87.8 81.05 86.3 81.4 84.75 82.0 83.2 83.35 79.6 83.55 78.8 Q83.9 76.85 82.75 76.75 L82.75 77.3 82.7 77.15 82.6 76.95 82.05 75.8 Q81.6 75.45 80.75 75.3 L79.4 75.4 Q79.1 75.5 78.7 76.1 L78.05 76.9 77.45 77.25 76.05 77.95 Q76.3 76.5 77.3 75.3 L78.1 74.4 77.4 75.9 78.65 74.95 79.45 74.8 79.8 74.75 80.9 74.65 81.8 74.5 83.95 73.7 84.1 73.7 84.4 73.7 84.6 73.5 Q84.95 73.2 85.8 72.85 L87.0 72.2 88.05 71.15 88.8 70.15 Q90.45 68.8 93.0 65.8 93.8 64.8 94.2 63.2 L94.4 62.2 94.6 61.4 94.85 60.45 94.15 61.7 94.05 61.8 94.1 61.65 94.35 60.95 94.55 60.35 96.15 57.7 Q96.55 57.7 97.0 58.05 L96.9 58.7 M79.5 72.95 L80.9 73.15 82.3 73.55 83.6 73.7 82.95 74.0 81.25 73.3 79.5 72.95" fill="#1e1d1a" fill-rule="evenodd" stroke="none"/>
      <path d="M116.45 81.05 L116.75 81.2 Q117.95 81.85 119.1 83.2 L121.15 85.45 Q122.85 86.95 125.7 88.1 L130.8 89.85 130.3 90.45 137.5 88.9 139.6 88.65 140.05 88.45 140.1 88.2 142.05 87.0 142.7 86.45 146.05 84.1 147.5 82.6 148.45 80.8 150.4 77.0 Q151.5 74.75 151.9 73.0 L152.6 67.7 153.05 70.3 150.65 78.05 Q150.05 79.95 147.75 83.45 L147.15 84.65 Q146.8 85.25 146.0 85.55 144.1 85.8 143.4 86.35 L143.0 86.75 143.0 86.8 142.75 87.05 142.15 88.1 141.4 88.95 140.3 91.4 139.85 93.65 Q139.3 95.4 139.05 97.35 138.8 99.6 136.9 104.0 L138.55 106.3 139.4 108.25 Q139.45 108.95 138.95 110.15 L138.15 112.0 138.0 110.4 137.65 108.75 137.1 107.2 136.2 105.65 Q135.25 107.55 134.55 108.15 L133.3 109.3 Q132.7 109.9 132.55 110.75 L132.5 112.4 132.25 114.05 131.45 115.55 130.45 117.05 Q131.65 113.65 131.7 112.2 L131.6 111.25 131.55 112.55 Q131.5 111.3 128.75 112.3 L127.55 112.55 126.2 112.75 Q122.9 113.45 122.1 114.65 122.55 113.6 123.2 113.05 123.95 112.45 125.45 112.05 L127.55 111.75 129.6 111.35 131.75 109.65 131.7 109.95 131.8 109.75 133.3 107.55 Q134.25 106.4 134.95 104.7 L136.0 101.6 136.8 98.4 137.1 96.65 134.9 98.4 132.9 100.3 131.3 102.2 129.35 103.9 127.15 105.15 126.25 105.85 Q125.65 106.3 125.2 106.35 L122.5 106.1 Q121.25 106.45 120.25 107.85 L118.4 109.9 Q116.2 110.85 115.5 111.55 L114.6 112.85 113.5 114.05 114.25 112.0 Q114.75 110.95 115.75 110.4 L115.75 110.35 112.1 109.95 110.75 109.95 115.4 109.6 118.15 108.55 117.5 109.35 119.25 108.05 119.85 107.0 120.35 105.9 117.55 105.65 114.0 105.25 112.35 105.3 110.7 105.0 117.6 105.2 120.8 105.45 125.75 105.15 129.65 102.5 Q130.95 101.4 132.9 98.95 133.35 98.5 134.45 97.9 L136.0 96.85 Q137.15 95.85 137.7 94.2 L138.65 91.9 139.7 89.6 139.6 89.6 Q133.95 90.0 131.65 90.9 L129.05 91.95 128.75 92.3 128.6 92.15 125.6 93.1 122.2 92.8 118.6 91.55 119.85 91.5 122.6 91.9 124.95 92.0 127.0 91.4 127.85 91.15 126.9 90.05 125.6 89.25 124.15 88.5 121.7 86.95 119.45 85.3 Q118.2 84.25 117.7 83.4 L117.2 82.55 Q116.9 82.15 116.35 81.85 L116.2 81.8 116.45 81.05 M116.1 81.7 L115.35 81.35 115.6 80.6 116.25 80.95 116.1 81.7 M115.15 81.3 Q113.4 80.65 111.15 80.65 108.3 80.65 106.45 81.4 L105.2 81.9 Q103.2 83.25 101.2 86.55 100.6 87.6 100.2 87.85 99.65 88.25 98.3 88.25 L95.15 88.3 Q93.1 88.25 92.1 87.65 L95.05 87.1 98.15 86.65 Q99.85 86.3 100.65 85.3 101.15 84.65 101.65 83.0 L97.35 82.65 91.9 81.35 101.9 82.0 Q103.05 81.8 105.4 80.7 107.45 79.75 109.0 79.65 L111.75 79.65 Q111.15 78.45 109.8 77.05 L107.3 74.6 106.2 73.6 107.95 74.7 Q108.95 75.3 109.55 75.95 L113.65 79.95 115.4 80.55 115.2 81.15 115.15 81.3 M65.95 119.4 Q65.7 118.2 66.0 117.55 L66.15 118.55 66.45 119.55 67.15 122.0 68.6 120.15 69.45 118.4 68.05 123.95 70.45 126.35 72.15 127.9 73.9 129.35 Q76.4 131.0 82.85 134.2 L77.9 134.1 Q76.25 133.55 75.35 132.95 74.25 132.25 73.3 131.0 L71.8 129.0 70.15 127.1 68.35 125.65 Q67.6 125.0 67.1 123.6 L66.45 121.2 65.95 119.4" fill="url(#gradient4)" fill-rule="evenodd" stroke="none"/>
      <path d="M117.2 76.55 Q117.95 76.25 119.35 77.55 L119.25 77.5 118.25 77.0 117.2 76.55" fill="url(#gradient5)" fill-rule="evenodd" stroke="none"/>
      <path d="M65.9 23.75 L67.05 26.2 Q65.8 26.0 64.65 25.05 L65.45 24.25 65.9 23.75" fill="url(#gradient6)" fill-rule="evenodd" stroke="none"/>
      <path d="M75.0 17.2 L74.9 15.55 76.8 14.0 76.8 14.05 76.4 16.35 75.05 17.15 75.0 17.2" fill="url(#gradient7)" fill-rule="evenodd" stroke="none"/>
      <path d="M48.4 56.35 L48.65 58.75 Q50.4 60.2 55.05 62.35 59.95 64.7 60.9 65.35 L54.5 64.65 Q50.9 63.95 49.35 62.3 L48.55 61.25 48.05 64.7 Q47.9 66.65 48.4 68.0 48.75 68.95 49.75 70.05 L51.65 71.85 53.35 71.35 57.35 70.65 Q58.85 70.4 61.15 71.15 61.6 68.95 62.45 66.65 L61.9 66.5 62.6 66.2 62.65 66.05 Q63.1 65.05 64.25 64.05 L66.3 62.5 68.55 60.9 70.8 59.35 69.35 60.9 66.3 63.2 Q64.3 64.7 63.45 65.85 L64.75 66.05 66.15 66.35 70.6 65.65 Q66.5 67.45 62.95 66.75 62.15 68.45 61.9 71.4 L64.0 72.15 61.85 71.9 61.45 75.25 60.75 79.5 Q60.2 81.85 59.0 83.2 L56.65 86.2 54.0 88.75 51.85 90.3 50.45 91.5 Q47.5 93.6 45.35 94.1 L43.35 94.2 41.4 94.25 Q40.25 94.45 39.65 94.95 39.25 95.3 38.6 96.4 37.1 98.85 36.4 102.9 35.85 100.05 35.45 96.55 36.3 95.0 37.6 94.05 L40.15 92.45 43.15 92.0 45.8 91.8 Q48.15 91.25 50.8 89.3 L55.0 85.7 57.7 83.1 Q59.05 81.55 59.45 79.95 L60.25 75.95 61.0 71.95 57.25 72.25 Q56.55 72.35 55.5 72.85 L53.75 73.55 53.3 73.65 53.5 74.0 52.65 73.75 51.55 74.1 Q51.55 75.1 51.9 76.05 52.35 77.4 53.3 78.05 L55.55 79.25 Q55.6 80.4 54.45 80.45 53.35 80.45 52.55 79.8 51.75 79.15 51.35 77.85 L50.7 75.75 50.3 75.15 50.1 75.1 50.1 75.0 Q49.1 74.1 46.45 74.45 L42.45 74.9 Q41.9 76.6 39.65 77.6 L35.5 79.1 35.85 76.15 37.65 76.55 Q38.7 76.55 39.75 75.8 L41.35 74.45 Q42.2 73.75 43.6 73.45 L46.25 73.05 50.25 72.25 47.4 69.7 46.25 68.25 Q46.1 67.8 46.3 66.45 L46.8 62.95 Q47.0 61.7 46.4 60.2 L46.6 59.8 48.4 56.35 M46.05 59.4 L45.9 59.15 45.75 58.9 45.95 58.5 47.45 55.65 47.25 56.1 46.1 59.25 46.05 59.4 M45.4 58.15 L44.05 55.35 43.85 54.4 45.9 49.8 47.1 47.8 47.1 48.65 Q47.2 50.0 47.65 52.4 L46.65 54.85 45.45 57.95 45.4 58.15 M65.5 79.65 L64.6 85.0 Q63.6 91.05 64.6 94.8 65.2 97.1 67.1 101.3 67.9 99.8 69.95 97.9 L72.95 94.75 Q73.9 93.4 74.7 91.15 L75.9 87.2 Q75.45 91.4 74.75 93.95 73.65 98.0 71.7 100.0 69.3 102.6 68.05 104.75 L68.2 106.1 67.95 108.6 Q67.65 110.15 67.85 110.95 68.35 112.95 70.9 116.5 71.65 117.6 73.65 119.1 L75.2 120.9 76.8 122.7 Q78.85 124.85 82.35 126.7 L88.45 129.65 93.95 132.6 Q97.2 134.35 99.6 135.1 L100.2 135.35 100.5 135.3 Q102.45 134.75 103.8 132.55 105.15 130.3 104.7 128.15 104.3 126.2 102.05 123.2 99.9 120.25 99.6 118.35 L99.6 118.25 98.3 116.8 Q97.35 115.9 95.5 114.55 L92.7 112.4 90.85 110.75 Q89.45 109.85 88.7 109.6 84.0 108.05 81.7 106.7 L83.5 106.35 85.25 106.6 87.05 107.7 Q88.35 108.4 88.95 107.9 88.6 107.1 88.5 105.95 88.35 104.3 89.25 101.6 L90.8 97.2 89.7 103.7 Q89.3 107.65 91.0 109.35 L93.6 111.4 96.45 113.2 98.3 114.65 Q99.25 115.55 99.55 116.75 99.65 115.45 100.5 113.3 L101.85 107.2 101.85 107.1 Q100.5 106.0 99.65 104.55 98.6 102.75 98.75 101.1 99.2 101.4 99.85 102.9 100.55 104.5 100.95 104.9 L102.3 106.15 103.5 104.15 104.6 102.1 106.35 96.9 106.15 99.1 105.95 101.2 Q105.35 104.15 104.2 106.55 L102.0 111.25 Q100.1 117.6 101.2 119.7 L102.05 120.75 104.45 123.6 105.55 125.6 106.6 126.6 107.75 127.35 108.55 128.15 108.45 129.7 Q108.0 133.5 106.4 137.8 L113.85 145.05 111.35 145.8 111.2 145.8 108.55 146.45 Q96.05 141.6 87.4 135.6 85.65 134.4 83.5 131.85 L79.9 127.6 77.55 124.9 75.25 122.15 73.4 120.85 71.5 119.7 Q67.6 116.4 66.25 112.55 65.85 111.35 66.05 109.15 66.3 106.85 65.95 105.6 L64.85 102.55 63.65 99.5 Q63.05 97.7 62.65 95.3 L62.6 93.5 62.8 91.8 Q63.6 83.6 65.75 76.5 65.45 77.65 65.5 79.65 M50.85 97.4 Q51.5 96.25 53.25 94.7 L55.85 92.1 Q55.45 93.55 53.95 94.8 L51.45 97.0 Q50.9 97.75 50.4 99.45 L49.45 101.95 51.0 101.95 52.3 101.75 52.9 99.7 Q53.25 98.45 53.8 97.95 L53.3 99.7 Q52.95 101.1 53.35 101.55 L54.05 101.35 Q55.5 100.85 56.9 99.2 L56.35 100.75 55.25 101.85 52.45 102.85 50.7 102.7 48.95 102.6 48.15 103.3 Q46.85 104.05 46.55 104.35 46.05 104.85 45.65 105.95 L44.55 109.9 Q44.25 111.15 44.3 112.0 L44.95 114.05 46.75 117.15 48.7 120.2 49.75 121.95 43.1 115.9 Q43.4 115.65 43.3 115.15 L43.05 114.3 Q42.75 112.65 43.1 111.1 43.75 108.7 44.85 105.95 L45.95 103.7 Q46.4 103.2 47.9 102.45 48.95 101.7 49.65 100.15 L50.85 97.4 M114.05 118.6 L114.6 119.65 115.1 120.75 117.1 123.25 117.7 121.05 118.1 118.8 118.1 120.1 118.0 121.4 Q117.55 122.7 117.45 123.6 L117.55 123.7 Q118.65 124.8 120.45 125.8 L123.6 127.5 120.35 130.9 Q121.1 129.15 119.95 127.3 L117.35 124.35 117.35 124.9 117.2 124.15 116.5 123.45 114.45 121.25 Q113.25 119.6 114.05 118.6" fill="url(#gradient8)" fill-rule="evenodd" stroke="none"/>
      <path d="M32.8 89.65 L33.7 89.55 Q33.7 90.45 32.75 91.25 L32.7 91.25 32.75 89.65 32.8 89.65" fill="url(#gradient9)" fill-rule="evenodd" stroke="none"/>
      <path d="M48.2 128.9 L50.9 126.85 Q53.1 124.95 54.15 123.3 L58.15 121.8 58.15 123.0 58.15 126.05 Q58.15 127.3 56.4 131.3 L54.15 133.05 53.9 134.8 Q52.9 137.3 51.9 138.8 51.3 139.75 50.65 141.5 L50.15 143.05 Q44.15 142.8 40.65 141.3 38.45 140.35 34.2 137.75 L32.05 136.4 33.5 134.95 34.1 133.9 35.25 133.55 40.9 132.05 Q44.85 131.05 48.2 128.9" fill="url(#gradient10)" fill-rule="evenodd" stroke="none"/>
      <path d="M58.15 123.0 L58.6 122.8 58.6 127.05 Q58.6 128.3 56.85 132.3 L54.65 134.0 54.6 134.05 54.35 135.8 Q53.35 138.3 52.35 139.8 51.75 140.75 51.1 142.5 L50.65 143.95 50.5 144.05 Q44.6 143.8 41.15 142.3 38.95 141.35 34.75 138.75 L32.65 137.4 32.25 137.6 30.8 138.9 29.25 140.0 27.9 140.1 26.5 140.05 24.05 140.1 21.55 140.0 21.4 139.3 21.3 139.05 23.45 139.1 25.9 139.05 27.3 139.1 28.7 139.0 30.2 137.9 31.7 136.6 32.05 136.4 34.2 137.75 Q38.45 140.35 40.65 141.3 44.15 142.8 50.15 143.05 L50.65 141.5 Q51.3 139.75 51.9 138.8 52.9 137.3 53.9 134.8 L54.15 133.05 56.4 131.3 Q58.15 127.3 58.15 126.05 L58.15 123.0 M51.1 145.0 L51.7 144.55 51.4 148.5 50.25 148.75 Q49.7 148.8 49.2 148.35 48.75 147.95 48.85 147.45 49.25 147.8 49.75 147.75 L50.9 147.5 51.1 145.0 M35.25 133.55 L34.1 133.9 34.65 132.7 35.35 130.25 36.0 129.35 Q36.1 131.45 35.25 133.55 M39.7 150.65 L39.9 151.45 39.5 152.6 38.7 154.75 37.95 156.9 37.55 157.4 37.0 157.35 35.25 157.0 32.7 156.95 30.7 156.4 Q26.55 154.95 24.05 153.7 24.05 153.3 24.8 153.05 L30.5 155.3 32.55 155.8 35.1 155.85 36.85 156.2 37.4 156.25 37.8 155.75 38.55 153.65 39.35 151.5 39.7 150.65 M108.55 162.3 Q109.1 162.9 110.4 163.7 112.7 165.15 113.95 165.4 L115.9 165.35 117.75 165.0 Q118.7 164.85 119.05 164.5 L119.4 163.9 119.6 164.3 119.05 165.55 Q118.7 165.9 117.75 166.05 L115.9 166.4 114.0 166.45 Q112.75 166.2 110.45 164.75 107.75 163.15 108.2 162.3 L108.55 162.3" fill="#faefd8" fill-rule="evenodd" stroke="none"/>
      <path d="M50.5 144.05 L50.65 143.95 51.15 143.55 51.1 145.0 50.9 147.5 49.75 147.75 Q49.25 147.8 48.85 147.45 L48.7 147.35 Q47.95 146.65 48.65 145.75 L50.15 144.3 50.5 144.05" fill="url(#gradient11)" fill-rule="evenodd" stroke="none"/>
      <path d="M52.6 124.6 Q51.25 124.4 49.75 121.95 L52.6 124.6" fill="url(#gradient12)" fill-rule="evenodd" stroke="none"/>
      <path d="M32.05 136.4 L31.7 136.6 30.2 137.9 28.7 139.0 27.3 139.1 25.9 139.05 23.45 139.1 21.3 139.05 20.95 139.0 20.8 138.3 Q20.6 137.85 20.7 137.55 21.7 137.3 24.9 135.55 L27.5 133.55 31.4 130.3 32.65 130.5 32.5 130.55 32.9 130.55 32.65 130.5 Q34.7 129.8 35.45 128.35 L35.35 130.25 34.65 132.7 34.1 133.9 33.5 134.95 32.05 136.4" fill="url(#gradient13)" fill-rule="evenodd" stroke="none"/>
      <path d="M39.7 150.65 L39.35 151.5 38.55 153.65 37.8 155.75 37.4 156.25 36.85 156.2 35.1 155.85 32.55 155.8 30.5 155.3 24.8 153.05 23.85 152.6 Q23.9 151.7 26.75 151.5 L30.05 150.7 33.85 150.0 Q36.85 149.5 37.65 148.8 L39.6 149.25 Q39.45 149.7 39.75 150.35 L39.7 150.65" fill="url(#gradient14)" fill-rule="evenodd" stroke="none"/>
      <path d="M108.55 162.3 Q107.95 161.7 108.15 161.25 L111.7 161.6 115.25 162.2 119.15 162.3 119.6 163.25 119.4 163.9 119.05 164.5 Q118.7 164.85 117.75 165.0 L115.9 165.35 113.95 165.4 Q112.7 165.15 110.4 163.7 109.1 162.9 108.55 162.3" fill="url(#gradient15)" fill-rule="evenodd" stroke="none"/>
      <path d="M58.15 123.3 Q63.8 126.45 70.45 128.6 97.75 137.25 120.15 125.3 143.1 113.1 151.1 84.15 152.35 79.6 153.05 74.9 152.75 85.9 150.8 95.8 148.8 105.95 145.3 113.7 126.5 155.65 81.0 145.55 79.25 145.55 77.45 144.95 L70.05 142.45 Q68.3 141.85 66.85 140.8 59.7 137.55 54.1 133.6 L54.15 133.05 56.4 131.3 Q58.15 127.3 58.15 126.05 L58.15 123.3 M48.2 128.9 Q32.0 114.2 32.7 91.2 36.55 104.25 45.6 113.6 50.45 118.65 56.6 122.4 L54.15 123.3 Q53.1 124.95 50.9 126.85 L48.2 128.9" fill="#000000" fill-rule="evenodd" stroke="none"/>
      <path d="M58.15 123.3 L58.15 126.05 Q58.15 127.3 56.4 131.3 L54.15 133.05 54.1 133.6 53.9 134.8 Q52.9 137.3 51.9 138.8 51.3 139.75 50.65 141.5 L50.15 143.05 Q44.15 142.8 40.65 141.3 38.45 140.35 34.2 137.75 L32.05 136.4 33.5 134.95 34.1 133.9 35.25 133.55 40.9 132.05 Q44.85 131.05 48.2 128.9 L50.9 126.85 Q53.1 124.95 54.15 123.3 L56.6 122.4 58.15 121.8 58.15 123.3" fill="url(#gradient16)" fill-rule="evenodd" stroke="none"/>
    </g>
    <radialGradient cx="0" cy="0" gradientTransform="matrix(0.0187, 0.1285, 0.1046, -0.0152, 87.15, 36.5)" gradientUnits="userSpaceOnUse" id="gradient0" r="819.2" spreadMethod="pad">
      <stop offset="0.0" stop-color="#f7e29c"/>
      <stop offset="0.22745098039215686" stop-color="#d3c07a"/>
      <stop offset="0.30980392156862746" stop-color="#cebb76"/>
      <stop offset="0.4196078431372549" stop-color="#bead6a"/>
      <stop offset="0.5294117647058824" stop-color="#a79959"/>
      <stop offset="1.0" stop-color="#473528"/>
    </radialGradient>
    <radialGradient cx="0" cy="0" gradientTransform="matrix(0.0647, -0.0858, -0.0858, -0.0647, 86.65, 44.0)" gradientUnits="userSpaceOnUse" id="gradient1" r="819.2" spreadMethod="pad">
      <stop offset="0.0" stop-color="#b87d56"/>
      <stop offset="0.21176470588235294" stop-color="#9f6a4a"/>
      <stop offset="0.6666666666666666" stop-color="#5e3a2b"/>
      <stop offset="1.0" stop-color="#2c1412"/>
    </radialGradient>
    <radialGradient cx="0" cy="0" gradientTransform="matrix(0.0647, -0.0858, -0.0858, -0.0647, 86.65, 44.0)" gradientUnits="userSpaceOnUse" id="gradient2" r="819.2" spreadMethod="pad">
      <stop offset="0.0" stop-color="#b87d56"/>
      <stop offset="0.21176470588235294" stop-color="#9f6a4a"/>
      <stop offset="0.6666666666666666" stop-color="#5e3a2b"/>
      <stop offset="1.0" stop-color="#2c1412"/>
    </radialGradient>
    <radialGradient cx="0" cy="0" gradientTransform="matrix(0.0104, 0.0716, 0.0736, -0.0107, 99.55, 61.05)" gradientUnits="userSpaceOnUse" id="gradient3" r="819.2" spreadMethod="pad">
      <stop offset="0.0" stop-color="#514d45"/>
      <stop offset="0.4666666666666667" stop-color="#35332d"/>
      <stop offset="1.0" stop-color="#11100e"/>
    </radialGradient>
    <radialGradient cx="0" cy="0" gradientTransform="matrix(-0.0043, 0.1227, 0.1227, 0.0043, 93.15, 35.6)" gradientUnits="userSpaceOnUse" id="gradient4" r="819.2" spreadMethod="pad">
      <stop offset="0.0" stop-color="#9e4a42"/>
      <stop offset="0.1803921568627451" stop-color="#853f38"/>
      <stop offset="0.5764705882352941" stop-color="#47211e"/>
      <stop offset="1.0" stop-color="#000000"/>
    </radialGradient>
    <radialGradient cx="0" cy="0" gradientTransform="matrix(-0.0043, 0.1229, 0.1229, 0.0043, 93.15, 35.55)" gradientUnits="userSpaceOnUse" id="gradient5" r="819.2" spreadMethod="pad">
      <stop offset="0.0" stop-color="#9e4a42"/>
      <stop offset="0.1803921568627451" stop-color="#853f38"/>
      <stop offset="0.5764705882352941" stop-color="#47211e"/>
      <stop offset="1.0" stop-color="#000000"/>
    </radialGradient>
    <radialGradient cx="0" cy="0" gradientTransform="matrix(0.0647, -0.0858, -0.0858, -0.0647, 86.65, 44.0)" gradientUnits="userSpaceOnUse" id="gradient6" r="819.2" spreadMethod="pad">
      <stop offset="0.0" stop-color="#b87d56"/>
      <stop offset="0.21176470588235294" stop-color="#9f6a4a"/>
      <stop offset="0.6666666666666666" stop-color="#5e3a2b"/>
      <stop offset="1.0" stop-color="#2c1412"/>
    </radialGradient>
    <radialGradient cx="0" cy="0" gradientTransform="matrix(0.0647, -0.0858, -0.0858, -0.0647, 86.65, 44.0)" gradientUnits="userSpaceOnUse" id="gradient7" r="819.2" spreadMethod="pad">
      <stop offset="0.0" stop-color="#b87d56"/>
      <stop offset="0.21176470588235294" stop-color="#9f6a4a"/>
      <stop offset="0.6666666666666666" stop-color="#5e3a2b"/>
      <stop offset="1.0" stop-color="#2c1412"/>
    </radialGradient>
    <radialGradient cx="0" cy="0" gradientTransform="matrix(-0.0043, 0.1227, 0.1227, 0.0043, 93.15, 35.6)" gradientUnits="userSpaceOnUse" id="gradient8" r="819.2" spreadMethod="pad">
      <stop offset="0.0" stop-color="#9e4a42"/>
      <stop offset="0.1803921568627451" stop-color="#853f38"/>
      <stop offset="0.5764705882352941" stop-color="#47211e"/>
      <stop offset="1.0" stop-color="#000000"/>
    </radialGradient>
    <radialGradient cx="0" cy="0" gradientTransform="matrix(-0.0043, 0.1227, 0.1227, 0.0043, 93.2, 35.6)" gradientUnits="userSpaceOnUse" id="gradient9" r="819.2" spreadMethod="pad">
      <stop offset="0.0" stop-color="#9e4a42"/>
      <stop offset="0.1803921568627451" stop-color="#853f38"/>
      <stop offset="0.5764705882352941" stop-color="#47211e"/>
      <stop offset="1.0" stop-color="#000000"/>
    </radialGradient>
    <radialGradient cx="0" cy="0" gradientTransform="matrix(-0.011, -0.0311, -0.0311, 0.011, 58.65, 146.55)" gradientUnits="userSpaceOnUse" id="gradient10" r="819.2" spreadMethod="pad">
      <stop offset="0.0" stop-color="#e7dea8"/>
      <stop offset="0.2901960784313726" stop-color="#ccc290"/>
      <stop offset="0.9137254901960784" stop-color="#887c52"/>
      <stop offset="1.0" stop-color="#7e7249"/>
    </radialGradient>
    <radialGradient cx="0" cy="0" gradientTransform="matrix(-0.0017, -0.0047, -0.0047, 0.0017, 50.7, 148.5)" gradientUnits="userSpaceOnUse" id="gradient11" r="819.2" spreadMethod="pad">
      <stop offset="0.0" stop-color="#e7dea8"/>
      <stop offset="0.2901960784313726" stop-color="#ccc290"/>
      <stop offset="0.9137254901960784" stop-color="#887c52"/>
      <stop offset="1.0" stop-color="#7e7249"/>
    </radialGradient>
    <radialGradient cx="0" cy="0" gradientTransform="matrix(-0.0043, 0.1227, 0.1227, 0.0043, 93.15, 35.65)" gradientUnits="userSpaceOnUse" id="gradient12" r="819.2" spreadMethod="pad">
      <stop offset="0.0" stop-color="#9e4a42"/>
      <stop offset="0.1803921568627451" stop-color="#853f38"/>
      <stop offset="0.5764705882352941" stop-color="#47211e"/>
      <stop offset="1.0" stop-color="#000000"/>
    </radialGradient>
    <radialGradient cx="0" cy="0" gradientTransform="matrix(-0.0058, -0.0164, -0.0164, 0.0058, 32.95, 141.05)" gradientUnits="userSpaceOnUse" id="gradient13" r="819.2" spreadMethod="pad">
      <stop offset="0.0" stop-color="#e7dea8"/>
      <stop offset="0.2901960784313726" stop-color="#ccc290"/>
      <stop offset="0.9137254901960784" stop-color="#887c52"/>
      <stop offset="1.0" stop-color="#7e7249"/>
    </radialGradient>
    <radialGradient cx="0" cy="0" gradientTransform="matrix(1.0E-4, -0.0158, -0.0158, -1.0E-4, 34.4, 158.35)" gradientUnits="userSpaceOnUse" id="gradient14" r="819.2" spreadMethod="pad">
      <stop offset="0.0" stop-color="#e7dea8"/>
      <stop offset="0.2901960784313726" stop-color="#ccc290"/>
      <stop offset="0.9137254901960784" stop-color="#887c52"/>
      <stop offset="1.0" stop-color="#7e7249"/>
    </radialGradient>
    <radialGradient cx="0" cy="0" gradientTransform="matrix(-4.0E-4, -0.0116, -0.0116, 4.0E-4, 116.4, 167.05)" gradientUnits="userSpaceOnUse" id="gradient15" r="819.2" spreadMethod="pad">
      <stop offset="0.0" stop-color="#e7dea8"/>
      <stop offset="0.2901960784313726" stop-color="#ccc290"/>
      <stop offset="0.9137254901960784" stop-color="#887c52"/>
      <stop offset="1.0" stop-color="#7e7249"/>
    </radialGradient>
    <radialGradient cx="0" cy="0" gradientTransform="matrix(-0.011, -0.0311, -0.0311, 0.011, 58.65, 146.55)" gradientUnits="userSpaceOnUse" id="gradient16" r="819.2" spreadMethod="pad">
      <stop offset="0.0" stop-color="#e7dea8"/>
      <stop offset="0.2901960784313726" stop-color="#ccc290"/>
      <stop offset="0.9137254901960784" stop-color="#887c52"/>
      <stop offset="1.0" stop-color="#7e7249"/>
    </radialGradient>
  </defs>
</svg>
