<?xml version="1.0" encoding="UTF-8" standalone="no"?>
<svg xmlns:xlink="http://www.w3.org/1999/xlink" height="300.0px" width="300.0px" xmlns="http://www.w3.org/2000/svg">
  <g transform="matrix(1.0, 0.0, 0.0, 1.0, 0.0, 0.0)">
    <use height="14.3" transform="matrix(2.4798, -1.6801, 1.6801, 2.4798, 44.6304, 179.2773)" width="30.25" xlink:href="#shape0"/>
    <use height="47.45" transform="matrix(1.1197, -0.0465, 0.0465, 1.1197, 51.75, 150.0)" width="71.85" xlink:href="#sprite0"/>
    <use height="13.1" transform="matrix(2.4798, -1.6801, 1.6801, 2.4798, 49.6062, 178.077)" width="18.05" xlink:href="#shape2"/>
    <use height="21.85" transform="matrix(1.1197, -0.0465, 0.0465, 1.1197, 66.25, 171.15)" width="18.9" xlink:href="#sprite1"/>
    <use height="11.75" transform="matrix(1.1197, -0.0465, 0.0465, 1.1197, 65.106, 170.1477)" width="3.95" xlink:href="#sprite2"/>
    <use height="20.1" transform="matrix(2.9777, 0.3654, -0.3981, 3.2443, 98.7047, 181.6578)" width="11.65" xlink:href="#shape5"/>
    <use height="86.85" transform="matrix(0.6723, 0.0825, -0.0899, 0.7325, 98.95, 183.05)" width="49.1" xlink:href="#sprite3"/>
    <use height="81.85" transform="matrix(0.6723, 0.0825, -0.0899, 0.7325, 122.0, 188.95)" width="15.95" xlink:href="#sprite4"/>
    <use height="25.05" transform="matrix(2.8768, 0.8414, -0.8414, 2.8768, 131.7818, 128.9857)" width="19.5" xlink:href="#shape8"/>
    <use height="79.15" transform="matrix(0.862, -0.2288, 0.2288, 0.862, 106.25, 149.0)" width="68.7" xlink:href="#sprite5"/>
    <use height="17.55" transform="matrix(0.862, -0.2288, 0.2288, 0.862, 148.4614, 141.8431)" width="19.15" xlink:href="#sprite6"/>
    <use height="12.05" transform="matrix(0.862, -0.2288, 0.2288, 0.862, 131.7, 142.05)" width="22.1" xlink:href="#sprite7"/>
    <use height="2.95" transform="matrix(2.8768, 0.8414, -0.8414, 2.8768, 133.5579, 134.6579)" width="7.25" xlink:href="#shape12"/>
    <use height="12.1" transform="matrix(0.862, -0.2288, 0.2288, 0.862, 132.7569, 138.9614)" width="17.5" xlink:href="#sprite8"/>
    <use height="12.65" transform="matrix(0.862, -0.2288, 0.2288, 0.862, 135.8683, 137.9045)" width="16.1" xlink:href="#sprite9"/>
    <use height="10.65" transform="matrix(0.862, -0.2288, 0.2288, 0.862, 136.8, 138.4)" width="14.45" xlink:href="#sprite10"/>
    <use height="22.85" transform="matrix(2.8768, 0.8414, -0.8414, 2.8768, 133.5091, 135.8928)" width="14.7" xlink:href="#shape16"/>
    <use height="13.5" transform="matrix(0.862, -0.2288, 0.2288, 0.862, 130.9114, 159.6931)" width="29.15" xlink:href="#sprite11"/>
    <use height="17.1" transform="matrix(0.862, -0.2288, 0.2288, 0.862, 128.95, 199.05)" width="32.4" xlink:href="#sprite12"/>
    <use height="2.7" transform="matrix(2.8768, 0.8414, -0.8414, 2.8768, 137.2689, 150.2648)" width="3.2" xlink:href="#shape19"/>
    <use height="1.95" transform="matrix(0.862, -0.2288, 0.2288, 0.862, 144.75, 153.1)" width="2.45" xlink:href="#sprite13"/>
    <use height="5.0" transform="matrix(0.862, -0.2288, 0.2288, 0.862, 132.4, 157.75)" width="4.2" xlink:href="#sprite14"/>
    <use height="1.4" transform="matrix(0.862, -0.2288, 0.2288, 0.862, 132.55, 157.8)" width="1.25" xlink:href="#sprite15"/>
    <use height="0.9" transform="matrix(0.862, -0.2288, 0.2288, 0.862, 137.4886, 154.7069)" width="5.65" xlink:href="#sprite16"/>
    <use height="1.25" transform="matrix(0.862, -0.2288, 0.2288, 0.862, 142.4955, 153.5183)" width="1.9" xlink:href="#sprite17"/>
    <use height="13.1" transform="matrix(2.8768, 0.8414, -0.8414, 2.8768, 136.3365, 154.5203)" width="11.15" xlink:href="#shape25"/>
    <use height="25.3" transform="matrix(2.9784, 0.3402, -0.3403, 2.9783, 158.7913, 183.2066)" width="10.5" xlink:href="#shape26"/>
    <use height="22.3" transform="matrix(2.9141, 0.7035, -0.7035, 2.9141, 163.4658, 148.2488)" width="21.55" xlink:href="#shape27"/>
    <use height="32.15" transform="matrix(-0.2951, -1.1819, 1.1819, -0.2951, 182.5, 230.3)" width="66.65" xlink:href="#sprite18"/>
    <use height="6.3" transform="matrix(2.9141, 0.7035, -0.7035, 2.9141, 180.7678, 201.7686)" width="8.3" xlink:href="#shape29"/>
    <use height="16.0" transform="matrix(2.9706, 0.4075, -0.4075, 2.9706, 177.7532, 39.1799)" width="16.95" xlink:href="#shape30"/>
    <use height="41.7" transform="matrix(0.8835, 0.1212, -0.1212, 0.8835, 176.45, 49.75)" width="57.15" xlink:href="#sprite19"/>
    <use height="9.1" transform="matrix(2.9706, 0.4075, -0.4075, 2.9706, 184.648, 55.1071)" width="9.5" xlink:href="#shape32"/>
    <use height="16.65" transform="matrix(0.8835, 0.1212, -0.1212, 0.8835, 183.65, 55.75)" width="32.25" xlink:href="#sprite20"/>
    <use height="16.05" transform="matrix(2.9706, 0.4075, -0.4075, 2.9706, 88.0672, 35.5027)" width="42.85" xlink:href="#shape34"/>
    <use height="46.05" transform="matrix(0.8835, 0.1212, -0.1212, 0.8835, 87.1, 42.65)" width="54.2" xlink:href="#sprite21"/>
    <use height="9.75" transform="matrix(2.9706, 0.4075, -0.4075, 2.9706, 97.577, 48.9133)" width="9.65" xlink:href="#shape36"/>
    <use height="19.0" transform="matrix(0.8835, 0.1212, -0.1212, 0.8835, 90.4, 39.3)" width="24.7" xlink:href="#sprite22"/>
    <use height="33.7" transform="matrix(2.9706, 0.4075, -0.4075, 2.9706, 102.4924, 40.6594)" width="38.4" xlink:href="#shape38"/>
    <use height="106.05" transform="matrix(0.8835, 0.1212, -0.1212, 0.8835, 101.65, 47.0)" width="129.0" xlink:href="#sprite23"/>
    <use height="52.95" transform="matrix(0.8835, 0.1212, -0.1212, 0.8835, 167.85, 56.1)" width="26.2" xlink:href="#sprite24"/>
    <use height="15.0" transform="matrix(2.9706, 0.4075, -0.4075, 2.9706, 168.3476, 55.8975)" width="6.5" xlink:href="#shape41"/>
    <use height="13.55" transform="matrix(0.8835, 0.1212, -0.1212, 0.8835, 168.55, 97.35)" width="9.9" xlink:href="#sprite25"/>
    <use height="17.15" transform="matrix(2.9706, 0.4075, -0.4075, 2.9706, 125.3524, 52.7235)" width="5.3" xlink:href="#shape43"/>
    <use height="32.25" transform="matrix(0.8835, 0.1212, -0.1212, 0.8835, 125.1, 116.25)" width="68.45" xlink:href="#sprite26"/>
    <use height="101.6" transform="matrix(0.8835, 0.1212, -0.1212, 0.8835, 109.15, 51.85)" width="119.8" xlink:href="#sprite27"/>
    <use height="23.8" transform="matrix(0.8835, 0.1212, -0.1212, 0.8835, 111.0939, 98.0442)" width="21.05" xlink:href="#sprite28"/>
    <use height="6.55" transform="matrix(2.9706, 0.4075, -0.4075, 2.9706, 110.8669, 97.6476)" width="5.9" xlink:href="#shape47"/>
    <use height="25.85" transform="matrix(0.8835, 0.1212, -0.1212, 0.8835, 168.35, 101.0)" width="19.45" xlink:href="#sprite29"/>
    <use height="16.0" transform="matrix(2.9706, 0.4075, -0.4075, 2.9706, 127.8514, 94.0757)" width="19.1" xlink:href="#shape49"/>
    <use height="300.0" transform="matrix(1.0, 0.0, 0.0, 1.0, 0.0, -0.05)" width="300.0" xlink:href="#shape50"/>
  </g>
  <defs>
    <g id="shape0" transform="matrix(1.0, 0.0, 0.0, 1.0, 29.1, 7.95)">
      <path d="M0.0 -0.7 L1.15 -0.55 0.25 0.3 -4.45 3.2 Q-6.45 4.45 -10.4 5.3 L-10.1 5.45 -10.55 5.5 -12.1 5.6 -12.25 5.6 -18.75 5.85 -17.9 6.35 -20.3 5.75 Q-22.1 5.4 -23.8 4.45 L-24.0 4.75 -25.85 3.3 -26.2 2.95 Q-27.9 1.7 -28.6 0.3 L-28.8 0.35 Q-29.15 -0.1 -29.1 -1.2 L-29.05 -1.4 -28.95 -2.3 Q-28.65 -3.55 -27.95 -4.65 L-28.45 -4.45 -27.4 -5.8 -26.9 -6.05 Q-25.35 -7.65 -23.5 -7.9 -21.5 -8.25 -19.75 -6.85 L-18.3 -5.65 -18.55 -6.15 -18.25 -5.9 -17.7 -5.2 -16.3 -4.25 -16.65 -4.8 -15.1 -3.55 -15.0 -3.5 Q-11.5 -1.45 -8.25 -0.6 L-6.2 -0.25 Q-6.5 -0.4 -6.3 -0.45 L-4.4 -0.1 -1.15 -0.35 0.0 -0.7" fill="url(#gradient0)" fill-rule="evenodd" stroke="none"/>
    </g>
    <radialGradient cx="0" cy="0" gradientTransform="matrix(0.0105, 0.0181, 0.0181, -0.0105, -14.65, -6.7)" gradientUnits="userSpaceOnUse" id="gradient0" r="819.2" spreadMethod="pad">
      <stop offset="0.0" stop-color="#e2a64b" stop-opacity="0.8509804"/>
      <stop offset="1.0" stop-color="#825711" stop-opacity="0.8509804"/>
    </radialGradient>
    <g id="sprite0" transform="matrix(1.0, 0.0, 0.0, 1.0, 0.0, 0.0)">
      <use height="47.45" transform="matrix(1.0, 0.0, 0.0, 1.0, 0.0, 0.0)" width="71.85" xlink:href="#shape1"/>
    </g>
    <g id="shape1" transform="matrix(1.0, 0.0, 0.0, 1.0, 0.0, 0.0)">
      <path d="M68.95 1.45 Q71.45 -0.45 71.8 0.15 72.1 0.65 70.9 3.2 66.5 11.45 64.25 16.4 61.65 22.2 53.8 29.55 L54.75 29.55 50.3 32.65 50.0 32.85 Q42.3 39.1 35.45 42.65 L38.15 42.5 31.9 44.65 Q27.3 46.3 22.05 46.45 L22.05 47.45 15.8 46.8 14.55 46.55 Q8.95 46.05 5.35 43.85 L5.0 44.3 Q3.5 43.65 2.2 41.2 L1.95 40.6 Q1.25 39.5 0.9 38.4 0.35 36.7 0.0 34.15 L0.55 30.7 0.7 33.3 Q0.85 34.95 2.45 37.5 L4.0 39.7 2.7 35.8 Q1.85 33.35 2.25 30.3 L2.85 27.75 2.85 30.35 Q2.85 32.0 4.65 34.3 L6.45 36.25 5.5 34.65 Q4.9 33.6 4.9 32.45 L5.0 31.5 6.0 33.35 8.45 37.4 Q9.85 39.55 10.55 40.05 11.3 40.55 14.1 41.2 15.4 40.2 14.9 39.65 L13.95 38.85 Q13.45 38.4 13.05 37.45 L11.75 34.0 Q10.95 31.5 10.95 30.25 10.95 29.1 16.8 24.3 L22.65 19.75 Q24.95 20.45 26.35 21.25 28.1 22.25 30.0 24.25 L32.7 27.45 Q33.6 28.65 34.15 28.95 L35.25 29.5 33.05 29.25 33.15 30.95 33.15 34.1 33.05 35.95 32.5 34.75 31.8 35.65 Q31.2 36.75 31.75 37.6 32.05 38.05 32.7 38.4 L37.25 37.9 41.6 35.45 Q46.7 32.65 47.85 31.2 L46.2 33.65 50.8 29.55 Q53.7 27.0 56.7 22.45 L59.15 18.4 58.35 19.2 56.05 20.6 Q55.25 21.0 54.4 21.35 L56.55 19.05 62.3 12.45 60.0 13.3 56.6 14.2 54.9 14.45 57.2 12.95 Q54.25 12.3 50.3 13.1 L55.4 11.2 Q54.6 11.1 55.05 10.8 L59.85 8.95 Q63.9 6.65 66.8 3.8 L68.95 1.45" fill="#472800" fill-rule="evenodd" stroke="none"/>
    </g>
    <g id="shape2" transform="matrix(1.0, 0.0, 0.0, 1.0, 27.5, 7.35)">
      <path d="M-15.3 5.75 L-19.0 5.55 -22.3 4.6 Q-23.9 3.95 -24.9 3.2 L-26.35 2.05 Q-26.9 1.45 -27.25 0.35 L-27.5 -1.45 -26.95 -3.4 Q-26.2 -5.2 -24.9 -6.6 L-23.95 -7.35 -24.6 -6.6 -26.25 -4.2 Q-27.2 -2.6 -27.25 -1.15 -27.25 0.3 -26.5 1.35 -25.8 2.45 -24.3 3.35 -22.75 4.35 -20.95 4.8 L-18.35 5.35 -16.45 5.5 -11.8 5.35 -9.95 5.15 -9.45 5.1 -12.65 5.6 -15.3 5.75" fill="#705012" fill-opacity="0.8509804" fill-rule="evenodd" stroke="none"/>
      <path d="M-18.95 -4.9 Q-17.8 -3.85 -17.65 -1.75 -17.5 0.05 -18.05 1.0 L-19.05 2.5 Q-19.85 3.25 -20.85 3.1 -23.1 2.85 -24.55 0.05 -25.15 -1.05 -24.3 -3.05 -23.5 -4.9 -22.5 -5.8 -21.7 -6.5 -20.8 -6.15 L-18.95 -4.9" fill="url(#gradient1)" fill-rule="evenodd" stroke="none"/>
      <path d="M-23.65 0.65 Q-23.95 -0.25 -24.75 -1.15 L-24.5 -2.5 -22.9 -0.4 -22.55 0.7 Q-22.25 1.45 -22.25 1.8 L-22.35 2.05 -22.4 2.3 -22.25 2.65 -23.55 1.55 -23.65 0.65" fill="url(#gradient2)" fill-rule="evenodd" stroke="none"/>
      <path d="M-19.55 -3.75 L-20.65 -4.95 -21.95 -6.1 Q-21.15 -6.5 -20.05 -5.7 L-17.85 -3.1 Q-17.4 -1.65 -17.7 0.0 -17.85 -0.85 -18.5 -2.1 L-19.55 -3.75" fill="url(#gradient3)" fill-rule="evenodd" stroke="none"/>
      <path d="M-19.85 1.9 L-19.6 2.9 -20.8 3.1 -20.8 2.85 Q-21.95 -0.7 -23.65 -2.9 L-24.1 -3.4 -23.55 -4.55 -22.3 -2.95 Q-21.0 -0.95 -19.85 1.9" fill="url(#gradient4)" fill-rule="evenodd" stroke="none"/>
      <path d="M-22.45 -5.85 L-21.05 -4.4 Q-19.6 -2.7 -18.85 -0.7 L-18.25 1.3 -19.05 2.5 -19.6 0.8 -20.15 -0.85 -21.25 -2.85 Q-22.25 -4.35 -23.15 -5.05 L-22.5 -5.8 -22.45 -5.85" fill="url(#gradient5)" fill-rule="evenodd" stroke="none"/>
    </g>
    <radialGradient cx="0" cy="0" gradientTransform="matrix(-0.001, 0.0086, 0.0086, 0.001, -20.6, -3.9)" gradientUnits="userSpaceOnUse" id="gradient1" r="819.2" spreadMethod="pad">
      <stop offset="0.0" stop-color="#f5e9d0" stop-opacity="0.8509804"/>
      <stop offset="1.0" stop-color="#ab9468" stop-opacity="0.8509804"/>
    </radialGradient>
    <radialGradient cx="0" cy="0" gradientTransform="matrix(-1.0E-4, 0.0082, 0.0082, 1.0E-4, -20.85, -3.75)" gradientUnits="userSpaceOnUse" id="gradient2" r="819.2" spreadMethod="pad">
      <stop offset="0.0" stop-color="#f5a27f" stop-opacity="0.8509804"/>
      <stop offset="1.0" stop-color="#995f3c" stop-opacity="0.8509804"/>
    </radialGradient>
    <radialGradient cx="0" cy="0" gradientTransform="matrix(-1.0E-4, 0.0082, 0.0082, 1.0E-4, -20.85, -3.75)" gradientUnits="userSpaceOnUse" id="gradient3" r="819.2" spreadMethod="pad">
      <stop offset="0.0" stop-color="#f5a27f" stop-opacity="0.8509804"/>
      <stop offset="1.0" stop-color="#995f3c" stop-opacity="0.8509804"/>
    </radialGradient>
    <radialGradient cx="0" cy="0" gradientTransform="matrix(-1.0E-4, 0.0082, 0.0082, 1.0E-4, -20.85, -3.75)" gradientUnits="userSpaceOnUse" id="gradient4" r="819.2" spreadMethod="pad">
      <stop offset="0.0" stop-color="#f5a27f" stop-opacity="0.8509804"/>
      <stop offset="1.0" stop-color="#995f3c" stop-opacity="0.8509804"/>
    </radialGradient>
    <radialGradient cx="0" cy="0" gradientTransform="matrix(-1.0E-4, 0.0082, 0.0082, 1.0E-4, -20.85, -3.75)" gradientUnits="userSpaceOnUse" id="gradient5" r="819.2" spreadMethod="pad">
      <stop offset="0.0" stop-color="#f5a27f" stop-opacity="0.8509804"/>
      <stop offset="1.0" stop-color="#995f3c" stop-opacity="0.8509804"/>
    </radialGradient>
    <g id="sprite1" transform="matrix(1.0, 0.0, 0.0, 1.0, 0.0, 0.0)">
      <use height="21.85" transform="matrix(1.0, 0.0, 0.0, 1.0, 0.0, 0.0)" width="18.9" xlink:href="#shape3"/>
    </g>
    <g id="shape3" transform="matrix(1.0, 0.0, 0.0, 1.0, 0.0, 0.0)">
      <path d="M13.15 10.45 Q13.35 7.25 11.8 4.35 10.55 1.85 8.35 0.0 L8.5 0.05 Q12.6 0.6 15.9 5.25 18.7 9.15 18.85 12.1 19.0 15.5 18.65 16.95 17.95 19.65 15.3 20.9 9.95 23.45 2.7 19.1 1.1 18.15 0.0 15.55 3.85 18.4 8.4 16.6 12.95 14.85 13.15 10.45" fill="#000000" fill-rule="evenodd" stroke="none"/>
    </g>
    <g id="sprite2" transform="matrix(1.0, 0.0, 0.0, 1.0, -0.05, 0.0)">
      <use height="11.75" transform="matrix(1.0, 0.0, 0.0, 1.0, 0.05, 0.0)" width="3.95" xlink:href="#shape4"/>
    </g>
    <g id="shape4" transform="matrix(1.0, 0.0, 0.0, 1.0, -0.05, 0.0)">
      <path d="M4.0 0.0 Q1.35 2.65 1.05 3.7 0.7 4.75 0.85 10.5 L0.85 11.75 Q0.05 9.15 0.05 7.05 L0.05 4.0 Q0.2 2.65 1.2 1.75 2.7 0.35 4.0 0.0" fill="#ffdb99" fill-rule="evenodd" stroke="none"/>
    </g>
    <g id="shape5" transform="matrix(1.0, 0.0, 0.0, 1.0, 10.2, 1.7)">
      <path d="M-1.6 -1.65 L-1.45 -1.65 Q-0.5 -1.85 0.4 -1.05 1.55 0.05 1.3 2.15 L-0.35 4.45 Q-1.05 5.45 -0.8 7.35 L-0.2 10.1 0.9 12.65 Q1.65 14.4 1.35 15.25 0.95 16.35 -0.4 17.3 -1.75 18.3 -2.95 18.4 L-6.45 18.1 -9.3 17.45 Q-9.8 17.25 -10.0 15.85 L-10.2 12.1 Q-10.25 9.9 -9.1 7.3 -8.15 5.05 -6.4 2.75 -5.45 1.5 -3.8 0.1 L-1.6 -1.65" fill="url(#gradient6)" fill-rule="evenodd" stroke="none"/>
    </g>
    <radialGradient cx="0" cy="0" gradientTransform="matrix(0.0157, 5.0E-4, 5.0E-4, -0.0158, -6.65, 5.25)" gradientUnits="userSpaceOnUse" id="gradient6" r="819.2" spreadMethod="pad">
      <stop offset="0.0" stop-color="#d5a84c"/>
      <stop offset="1.0" stop-color="#775917"/>
    </radialGradient>
    <g id="sprite3" transform="matrix(1.0, 0.0, 0.0, 1.0, 0.0, 0.0)">
      <use height="86.85" transform="matrix(1.0, 0.0, 0.0, 1.0, 0.0, 0.0)" width="49.1" xlink:href="#shape6"/>
    </g>
    <g id="shape6" transform="matrix(1.0, 0.0, 0.0, 1.0, 0.0, 0.0)">
      <path d="M43.65 10.9 L45.15 9.35 Q46.1 8.35 46.35 7.6 46.85 6.15 46.4 3.85 L45.3 0.0 Q47.45 1.6 48.75 4.15 49.5 7.25 48.6 10.65 48.1 12.65 46.7 14.65 L45.0 16.75 44.55 17.1 44.25 17.55 44.8 17.45 43.3 19.25 Q41.6 21.0 40.45 23.05 L40.95 22.9 Q40.95 23.95 40.0 25.65 L38.5 28.15 Q37.5 30.2 37.25 30.95 L37.7 30.45 Q36.0 34.5 36.15 39.1 L36.95 37.35 Q36.6 43.05 36.95 45.4 L37.5 44.45 37.9 43.3 Q38.7 44.5 38.95 47.2 L39.25 51.1 Q40.4 64.0 39.45 72.65 L38.8 77.1 Q38.3 79.45 37.25 81.25 35.35 84.5 34.85 85.9 L35.1 86.0 Q33.0 86.75 31.45 86.8 26.75 87.2 16.0 85.45 6.2 83.8 3.4 82.6 0.75 81.5 0.0 72.8 2.85 76.15 4.4 76.6 5.3 76.85 5.55 76.4 L5.7 75.1 Q8.2 77.1 10.5 77.65 13.1 78.4 13.7 77.7 14.2 77.05 13.45 76.35 L15.0 76.45 16.5 76.85 17.9 76.6 Q18.85 76.2 19.15 76.15 L21.05 76.05 22.9 75.7 25.4 73.7 Q25.05 75.05 25.35 75.6 26.5 75.8 28.1 74.05 29.55 72.5 29.95 71.1 L29.95 71.75 31.5 69.05 32.95 66.3 33.05 60.55 Q33.0 57.15 32.15 54.95 31.85 55.3 31.65 56.3 L31.7 51.2 Q32.0 46.2 31.65 43.85 L31.15 45.35 Q31.1 42.8 31.55 39.4 L32.45 33.45 Q32.8 31.1 34.4 27.7 L37.0 22.15 36.0 23.0 Q36.2 22.15 37.35 20.85 L39.05 18.95 40.6 17.1 41.95 15.1 40.15 15.6 Q40.5 15.1 42.55 13.35 44.25 11.65 43.65 10.9" fill="#402903" fill-rule="evenodd" stroke="none"/>
    </g>
    <g id="sprite4" transform="matrix(1.0, 0.0, 0.0, 1.0, 0.0, 0.0)">
      <use height="81.85" transform="matrix(1.0, 0.0, 0.0, 1.0, 0.0, 0.0)" width="15.95" xlink:href="#shape7"/>
    </g>
    <g id="shape7" transform="matrix(1.0, 0.0, 0.0, 1.0, 0.0, 0.0)">
      <path d="M13.75 6.5 Q14.65 3.1 13.9 0.0 16.15 4.5 15.4 10.75 10.7 16.75 8.0 20.85 5.0 25.4 6.1 33.75 6.25 34.9 8.75 45.95 L13.55 57.25 Q16.9 65.0 15.6 68.8 14.25 72.7 9.6 76.55 5.1 80.25 0.25 81.85 L0.0 81.75 Q0.5 80.35 2.4 77.1 3.45 75.3 3.95 72.95 L4.6 68.5 Q5.55 59.85 4.4 46.95 L4.1 43.05 Q3.85 40.35 3.05 39.15 L2.65 40.3 2.1 41.25 Q1.75 38.9 2.1 33.2 L1.3 34.95 Q1.15 30.35 2.85 26.3 L2.4 26.8 Q2.65 26.05 3.65 24.0 L5.15 21.5 Q6.1 19.8 6.1 18.75 5.85 18.75 5.6 18.9 6.75 16.85 8.45 15.1 L9.95 13.3 9.4 13.4 Q9.5 13.1 9.7 12.95 L10.15 12.6 11.85 10.5 Q13.25 8.5 13.75 6.5" fill="#402903" fill-rule="evenodd" stroke="none"/>
    </g>
    <g id="shape8" transform="matrix(1.0, 0.0, 0.0, 1.0, 10.4, 14.5)">
      <path d="M-0.25 -12.8 Q-0.6 -11.85 -1.9 -11.2 L-5.95 -9.8 -8.45 -9.2 -9.55 -10.1 Q-10.05 -10.8 -9.55 -11.55 -8.9 -12.45 -6.05 -13.55 -3.2 -14.65 -2.15 -14.5 L-0.5 -14.2 0.0 -13.85 -0.25 -12.8" fill="#736035" fill-opacity="0.8509804" fill-rule="evenodd" stroke="none"/>
      <path d="M-0.75 -12.75 Q-0.9 -12.35 -1.55 -11.6 -2.35 -10.6 -2.85 -10.5 L-7.5 -9.6 -8.45 -9.85 -9.05 -10.05 -9.95 -10.8 -9.9 -11.1 -9.2 -11.9 Q-8.7 -12.3 -8.45 -12.3 L-8.3 -12.25 -8.9 -11.9 -9.55 -11.4 Q-9.75 -10.75 -8.65 -10.8 -6.8 -11.0 -4.9 -11.95 L-2.7 -12.85 -1.65 -13.2 -1.1 -13.1 Q-0.65 -12.9 -0.75 -12.75" fill="#dbc17f" fill-opacity="0.8509804" fill-rule="evenodd" stroke="none"/>
      <path d="M-4.6 -11.55 L0.55 -13.85 1.9 -14.35 1.9 -14.45 1.9 -14.35 1.95 -14.35 2.0 -14.05 2.45 -12.35 2.9 -10.65 2.6 -11.0 2.8 -10.35 Q3.0 -9.4 3.9 -7.4 4.25 -6.65 4.9 -5.8 L4.4 -6.2 6.5 -3.05 8.1 -0.7 9.1 1.2 8.75 0.8 8.8 1.0 9.1 2.5 9.1 3.55 Q9.15 4.5 8.8 5.4 L8.45 6.15 8.4 5.65 7.15 7.45 6.2 8.0 5.65 8.25 5.9 7.95 Q4.0 9.2 1.45 9.85 L-3.65 10.25 -3.4 10.55 -4.65 10.25 -5.1 9.95 Q-6.95 9.45 -7.85 8.25 L-8.45 7.5 -8.35 8.1 -8.9 6.75 -8.85 6.6 Q-9.6 5.05 -9.8 2.9 L-10.0 3.5 -10.15 2.2 -10.1 1.0 -10.0 0.6 -10.4 1.1 -10.35 0.55 -9.85 -1.55 -9.7 -2.5 Q-9.55 -4.5 -9.65 -7.05 L-9.9 -6.75 -10.1 -6.65 -9.9 -7.2 Q-9.75 -7.5 -9.75 -8.55 L-9.95 -10.8 -8.65 -10.55 Q-6.9 -10.5 -4.6 -11.55" fill="url(#gradient7)" fill-rule="evenodd" stroke="none"/>
    </g>
    <radialGradient cx="0" cy="0" gradientTransform="matrix(0.0103, 0.0184, 0.0184, -0.0103, -5.7, -5.65)" gradientUnits="userSpaceOnUse" id="gradient7" r="819.2" spreadMethod="pad">
      <stop offset="0.0" stop-color="#d2a850" stop-opacity="0.8509804"/>
      <stop offset="1.0" stop-color="#775917" stop-opacity="0.8509804"/>
    </radialGradient>
    <g id="sprite5" transform="matrix(1.0, 0.0, 0.0, 1.0, 0.0, 0.0)">
      <use height="79.15" transform="matrix(1.0, 0.0, 0.0, 1.0, 0.0, 0.0)" width="68.7" xlink:href="#shape9"/>
    </g>
    <g id="shape9" transform="matrix(1.0, 0.0, 0.0, 1.0, 0.0, 0.0)">
      <path d="M68.7 7.25 L68.25 8.25 66.55 13.95 Q65.8 16.3 65.0 19.65 L64.8 18.0 64.1 20.2 Q63.1 23.35 62.25 30.55 61.9 33.45 62.2 37.0 L61.6 34.95 Q61.65 38.9 62.2 47.65 62.7 55.2 62.6 57.15 63.05 60.95 62.25 64.45 L61.9 62.75 61.65 63.5 Q61.05 66.1 59.8 68.2 L58.15 71.35 Q56.55 74.05 54.05 76.05 52.85 77.05 51.9 77.5 L52.35 76.1 Q48.15 78.45 45.65 79.0 44.1 79.3 41.9 79.05 L40.0 78.75 41.2 78.3 Q33.6 78.55 25.05 75.95 16.1 73.2 9.85 68.4 9.65 68.8 9.9 69.45 9.0 69.15 7.0 66.5 L6.15 65.05 Q1.75 60.25 1.05 55.15 L0.85 52.1 0.0 54.1 Q0.25 51.15 0.85 49.2 L1.05 48.75 Q1.4 45.75 2.55 42.15 L3.95 40.6 1.8 47.35 2.95 45.85 1.95 48.9 Q1.35 50.8 1.75 53.7 L2.3 56.2 2.35 54.8 Q2.35 53.95 3.05 51.5 L3.7 49.2 3.85 53.15 Q3.95 55.6 5.15 58.45 L6.35 60.85 5.85 58.95 Q5.55 57.8 5.55 56.85 L5.6 56.1 5.8 57.1 Q6.0 58.15 7.7 61.3 L7.25 58.65 Q6.95 57.05 7.05 54.3 L7.15 51.85 7.85 55.15 Q8.5 58.5 10.75 60.85 L10.35 59.75 9.75 57.3 10.45 58.25 12.75 60.4 Q14.3 61.55 17.4 59.75 20.3 58.05 25.2 53.4 29.25 49.55 36.7 52.4 41.15 54.1 44.8 57.05 45.2 57.35 47.25 61.5 48.7 64.45 50.15 62.95 51.75 61.4 53.35 56.25 L55.05 50.0 56.25 44.4 56.95 40.25 55.95 41.75 Q56.05 39.85 56.95 36.65 L60.2 26.75 58.5 29.0 60.2 24.05 Q61.3 20.95 61.45 17.0 L60.9 19.2 Q60.5 20.8 59.65 22.05 L59.85 20.8 59.75 19.0 59.5 18.1 59.1 19.35 58.2 21.55 58.45 19.8 Q58.6 18.7 58.25 17.3 L57.9 16.1 57.65 17.85 Q57.45 19.05 56.45 21.25 L56.35 18.25 Q56.2 15.3 54.4 11.5 L54.9 17.7 54.35 17.0 53.55 16.2 53.1 15.95 53.0 17.65 52.65 17.0 51.45 15.5 50.55 14.5 50.5 18.05 49.5 15.75 Q48.85 14.35 46.75 12.6 L44.8 11.15 45.75 13.3 44.55 12.25 37.95 7.0 36.65 5.85 Q36.05 6.3 35.8 7.25 34.75 10.3 33.75 10.75 L32.55 10.9 32.05 10.75 31.8 10.2 Q31.65 9.6 32.15 9.05 L33.4 7.75 34.6 6.3 35.7 4.85 31.75 0.0 Q36.65 2.95 44.95 3.9 L63.8 6.3 68.5 7.2 68.7 6.85 68.6 7.2 68.7 7.25" fill="#402903" fill-rule="evenodd" stroke="none"/>
    </g>
    <g id="sprite6" transform="matrix(1.0, 0.0, 0.0, 1.0, 0.0, -0.05)">
      <use height="17.55" transform="matrix(1.0, 0.0, 0.0, 1.0, 0.0, 0.05)" width="19.15" xlink:href="#shape10"/>
    </g>
    <g id="shape10" transform="matrix(1.0, 0.0, 0.0, 1.0, 0.0, -0.05)">
      <path d="M11.7 2.5 Q16.3 4.8 17.6 5.65 18.8 6.35 19.05 7.1 19.3 7.75 18.95 8.85 L16.95 13.45 16.1 12.6 15.6 14.6 14.4 17.6 14.55 14.95 Q14.65 12.3 13.6 11.35 L13.4 12.85 12.95 11.9 11.75 10.5 11.0 9.8 11.15 11.4 Q10.3 11.05 8.7 8.35 7.9 7.0 5.15 5.55 2.2 4.05 1.05 2.6 0.45 1.85 0.1 1.85 L0.0 1.65 Q0.1 1.05 3.15 1.15 5.2 -0.1 6.2 0.05 6.9 0.1 11.7 2.5" fill="#402903" fill-rule="evenodd" stroke="none"/>
    </g>
    <g id="sprite7" transform="matrix(1.0, 0.0, 0.0, 1.0, 0.0, 0.0)">
      <use height="12.05" transform="matrix(1.0, 0.0, 0.0, 1.0, 0.0, 0.0)" width="22.1" xlink:href="#shape11"/>
    </g>
    <g id="shape11" transform="matrix(1.0, 0.0, 0.0, 1.0, 0.0, 0.0)">
      <path d="M21.1 4.8 L21.75 5.45 22.1 6.65 21.95 7.15 21.4 7.55 20.8 8.3 20.65 8.6 20.75 8.9 21.0 10.2 21.05 10.95 20.8 11.5 20.45 11.8 19.75 11.95 19.25 12.0 18.65 11.45 18.2 11.05 17.8 10.95 Q17.4 10.85 17.45 10.55 L17.55 10.3 16.75 9.3 16.3 8.7 16.15 8.05 15.35 6.65 Q15.05 6.2 14.55 6.15 L13.4 5.95 12.55 5.8 11.8 5.8 11.0 5.65 9.95 5.15 8.3 4.7 Q8.05 4.65 7.5 5.8 7.1 6.8 6.25 5.9 L5.6 4.85 5.05 3.85 4.35 3.8 Q3.8 4.3 3.35 4.4 2.25 4.7 2.2 4.4 1.95 5.05 0.9 4.85 -0.1 4.7 0.25 3.7 L0.05 2.85 Q-0.15 2.25 0.55 1.2 1.2 0.25 1.8 0.0 L19.8 4.15 Q20.45 4.3 21.1 4.8" fill="#402903" fill-rule="evenodd" stroke="none"/>
    </g>
    <g id="shape12" transform="matrix(1.0, 0.0, 0.0, 1.0, 9.3, 12.85)">
      <path d="M-5.7 -12.8 L-5.55 -12.65 -3.8 -12.65 -2.45 -12.6 -2.2 -12.45 -2.25 -12.2 -2.7 -11.9 -2.65 -11.85 -2.5 -11.8 -2.5 -11.6 -2.35 -11.55 -2.1 -11.45 Q-2.0 -11.3 -2.2 -11.2 L-2.25 -10.95 Q-2.3 -10.85 -2.5 -10.85 L-2.6 -10.95 -2.8 -10.95 -2.95 -11.05 -2.95 -11.25 -3.0 -11.3 -3.15 -11.1 -3.6 -11.2 -3.85 -11.5 -4.15 -11.3 -4.4 -11.25 -4.5 -11.25 -4.6 -11.25 -4.75 -11.2 -4.85 -11.2 -5.0 -11.3 -5.45 -11.1 -5.75 -11.05 -5.85 -11.05 -6.1 -10.85 -6.45 -10.9 -6.7 -10.75 -6.95 -10.7 -7.25 -10.25 Q-7.3 -10.1 -7.5 -10.1 L-7.65 -10.15 Q-7.7 -10.0 -7.85 -10.0 L-8.05 -10.0 -8.15 -10.1 Q-8.2 -10.0 -8.4 -9.95 -8.55 -9.85 -8.7 -10.05 L-8.8 -10.25 -9.15 -10.35 -9.2 -10.5 -9.15 -10.6 -9.3 -10.7 -9.2 -11.0 -8.9 -11.45 Q-9.25 -11.55 -9.05 -11.65 L-8.75 -11.8 -8.85 -11.85 -8.8 -12.05 -8.55 -12.2 -8.55 -12.3 -8.35 -12.55 -7.65 -12.75 -7.0 -12.85 -6.35 -12.85 -5.7 -12.8" fill="url(#gradient8)" fill-rule="evenodd" stroke="none"/>
    </g>
    <radialGradient cx="0" cy="0" gradientTransform="matrix(0.0074, 2.0E-4, 2.0E-4, -0.0074, -7.9, -12.1)" gradientUnits="userSpaceOnUse" id="gradient8" r="819.2" spreadMethod="pad">
      <stop offset="0.0" stop-color="#e9d6a8" stop-opacity="0.8509804"/>
      <stop offset="1.0" stop-color="#c1af78" stop-opacity="0.8509804"/>
    </radialGradient>
    <g id="sprite8" transform="matrix(1.0, 0.0, 0.0, 1.0, 0.05, 0.0)">
      <use height="12.1" transform="matrix(1.0, 0.0, 0.0, 1.0, -0.05, 0.0)" width="17.5" xlink:href="#shape13"/>
    </g>
    <g id="shape13" transform="matrix(1.0, 0.0, 0.0, 1.0, 0.05, 0.0)">
      <path d="M14.55 11.6 Q14.1 10.95 13.5 10.95 L12.35 10.2 11.65 9.45 11.0 9.45 Q10.6 9.45 10.1 8.9 L9.65 8.35 9.15 8.6 7.7 8.8 8.0 8.05 8.15 7.2 7.3 6.75 6.55 6.5 Q6.3 6.55 5.05 6.0 L3.3 5.15 2.9 5.25 Q2.5 5.4 2.5 4.35 L1.2 4.25 Q0.1 4.15 1.8 2.9 L0.05 2.4 Q-0.4 2.15 1.75 1.8 L1.4 0.85 Q1.2 0.1 2.95 0.0 5.15 0.65 5.65 1.15 L7.65 2.3 Q9.35 3.2 9.4 3.45 L9.6 4.25 Q12.7 5.8 16.7 8.5 L16.75 8.55 Q17.6 9.85 17.45 10.6 L17.05 11.4 16.4 11.25 16.6 11.4 16.8 11.9 16.3 12.05 15.75 12.0 15.45 12.05 Q15.25 12.25 14.55 11.6" fill="#c5b37d" fill-rule="evenodd" stroke="none"/>
    </g>
    <g id="sprite9" transform="matrix(1.0, 0.0, 0.0, 1.0, 0.05, -0.05)">
      <use height="12.65" transform="matrix(1.0, 0.0, 0.0, 1.0, -0.05, 0.05)" width="16.1" xlink:href="#shape14"/>
    </g>
    <g id="shape14" transform="matrix(1.0, 0.0, 0.0, 1.0, 0.05, -0.05)">
      <path d="M14.25 7.8 Q15.5 8.95 15.9 10.05 16.3 11.05 15.75 11.15 15.1 11.3 14.8 12.5 14.75 12.95 14.3 12.3 L13.25 11.4 Q12.65 11.35 12.15 10.6 L11.75 9.9 10.35 9.25 9.3 8.55 8.35 8.15 7.1 8.3 6.4 8.6 6.85 7.0 Q6.85 6.5 6.1 6.2 L4.75 5.7 4.2 5.45 3.15 5.2 Q2.15 4.85 2.2 4.3 L2.45 3.85 0.5 3.1 Q-0.6 2.65 0.55 1.65 L0.1 0.6 Q-0.2 -0.05 0.85 0.05 L3.65 0.7 4.35 0.9 Q12.4 6.2 14.25 7.8" fill="#7b6b3b" fill-rule="evenodd" stroke="none"/>
    </g>
    <g id="sprite10" transform="matrix(1.0, 0.0, 0.0, 1.0, 0.0, 0.0)">
      <use height="10.65" transform="matrix(1.0, 0.0, 0.0, 1.0, 0.0, 0.0)" width="14.45" xlink:href="#shape15"/>
    </g>
    <g id="shape15" transform="matrix(1.0, 0.0, 0.0, 1.0, 0.0, 0.0)">
      <path d="M12.05 6.35 Q13.85 8.05 14.15 8.8 L14.35 9.75 Q14.6 10.25 14.25 10.35 L13.4 10.45 12.6 10.65 11.2 9.85 9.1 8.5 8.45 8.05 8.25 7.75 Q8.05 7.45 7.5 7.45 7.1 7.45 6.15 6.85 5.8 6.65 5.8 6.35 L5.9 6.1 4.85 5.5 4.2 4.95 4.05 4.7 2.5 4.4 Q1.6 4.2 1.7 2.9 L0.35 2.5 Q-0.25 2.2 0.65 1.75 0.3 1.55 0.05 0.7 -0.2 0.05 1.5 0.0 3.2 -0.05 4.25 0.6 9.65 4.05 12.05 6.35" fill="#402903" fill-rule="evenodd" stroke="none"/>
    </g>
    <g id="shape16" transform="matrix(1.0, 0.0, 0.0, 1.0, 9.2, 12.45)">
      <path d="M-6.4 -11.15 L-6.3 -11.15 -6.1 -11.15 -5.9 -11.35 -5.55 -11.4 -5.4 -11.5 -5.0 -11.4 -4.7 -11.45 -4.25 -11.55 -3.7 -11.55 -3.55 -11.45 -3.4 -11.35 -3.1 -11.35 -2.95 -11.4 -2.7 -11.35 Q-2.7 -11.25 -2.5 -11.25 -2.35 -11.2 -2.35 -11.3 L-2.3 -11.55 -2.1 -11.45 Q-2.0 -11.3 -2.2 -11.2 L-2.25 -10.95 Q-2.3 -10.85 -2.5 -10.85 L-2.6 -10.95 -2.8 -10.95 -2.95 -11.05 -2.95 -11.25 -3.0 -11.3 -3.15 -11.1 -3.6 -11.2 -3.85 -11.5 -4.15 -11.3 -4.4 -11.25 -4.5 -11.25 -4.6 -11.25 -4.75 -11.2 -4.85 -11.2 -5.0 -11.3 -5.45 -11.1 -5.75 -11.05 -5.85 -11.05 -6.1 -10.85 -6.45 -10.9 -6.7 -10.75 -6.95 -10.7 -7.25 -10.25 Q-7.3 -10.1 -7.5 -10.1 L-7.65 -10.15 Q-7.7 -10.0 -7.85 -10.0 L-8.05 -10.0 -8.15 -10.1 Q-8.2 -10.0 -8.4 -9.95 -8.55 -9.85 -8.75 -10.1 L-8.55 -10.1 -8.35 -10.25 -8.2 -10.2 -7.95 -10.2 -7.8 -10.4 -7.6 -10.35 -7.35 -10.5 -7.2 -10.8 -7.0 -10.85 -6.6 -11.0 -6.4 -11.15" fill="#c5b37d" fill-opacity="0.8509804" fill-rule="evenodd" stroke="none"/>
      <path d="M-5.6 -12.25 L-5.3 -12.45 -5.15 -12.1 -5.2 -11.2 -5.4 -10.95 -5.55 -11.6 -5.6 -12.25" fill="#d8ad41" fill-opacity="0.8509804" fill-rule="evenodd" stroke="none"/>
      <path d="M-8.45 -12.15 L-8.35 -12.0 Q-8.45 -11.85 -8.65 -11.9 L-8.75 -12.0 -8.45 -12.15" fill="#f0e4c5" fill-opacity="0.8509804" fill-rule="evenodd" stroke="none"/>
      <path d="M-8.7 -11.75 L-8.55 -11.6 -8.8 -11.55 -8.9 -11.65 -8.7 -11.75" fill="#f0e4c5" fill-opacity="0.8509804" fill-rule="evenodd" stroke="none"/>
      <path d="M-8.35 -11.4 Q-8.15 -11.45 -8.3 -11.3 L-8.5 -11.1 -8.7 -11.05 -8.7 -11.15 Q-8.85 -10.9 -9.1 -10.9 L-9.1 -11.1 -8.85 -11.4 -8.75 -11.3 -8.35 -11.4" fill="#f0e4c5" fill-opacity="0.8509804" fill-rule="evenodd" stroke="none"/>
      <path d="M-8.7 -10.85 L-8.6 -10.85 -8.5 -10.75 Q-8.5 -10.55 -8.95 -10.6 L-9.0 -10.7 -8.7 -10.85" fill="#f0e4c5" fill-opacity="0.8509804" fill-rule="evenodd" stroke="none"/>
      <path d="M-8.2 -11.05 L-8.1 -11.0 -8.35 -10.95 -8.35 -11.0 -8.2 -11.05" fill="#f0e4c5" fill-opacity="0.8509804" fill-rule="evenodd" stroke="none"/>
      <path d="M-8.2 -10.75 L-8.05 -10.65 -7.95 -10.5 -8.1 -10.35 -8.3 -10.35 -8.4 -10.45 -8.2 -10.75" fill="#f0e4c5" fill-opacity="0.8509804" fill-rule="evenodd" stroke="none"/>
      <path d="M-7.4 -8.5 L-7.1 -8.8 -7.0 -9.4 -6.95 -10.1 -6.7 -10.45 -6.35 -10.5 Q-6.25 -10.45 -6.3 -10.2 L-6.6 -9.95 -6.7 -9.35 -6.7 -8.55 -7.0 -8.15 -7.2 -8.05 Q-7.4 -8.05 -7.5 -8.2 L-7.55 -8.4 -7.5 -8.5 -7.4 -8.5" fill="#f0c871" fill-opacity="0.8509804" fill-rule="evenodd" stroke="none"/>
      <path d="M-6.45 -10.3 L-6.4 -10.45 -6.45 -10.55 -6.35 -10.5 Q-6.25 -10.45 -6.3 -10.2 L-6.6 -9.95 -6.7 -9.35 -6.7 -8.55 Q-6.85 -8.25 -7.15 -8.1 L-6.9 -8.7 -6.75 -9.5 -6.65 -10.1 -6.45 -10.3" fill="#c9a85f" fill-opacity="0.8509804" fill-rule="evenodd" stroke="none"/>
      <path d="M-7.5 -8.2 L-7.55 -8.4 -7.5 -8.5 -7.4 -8.45 -7.15 -8.25 -7.15 -8.1 -7.2 -8.05 Q-7.4 -8.05 -7.5 -8.2" fill="#f4d99e" fill-opacity="0.8509804" fill-rule="evenodd" stroke="none"/>
      <path d="M-1.75 -2.15 Q-2.4 -1.7 -3.55 -1.75 -5.0 -1.8 -5.55 -3.05 -6.55 -5.4 -5.0 -6.65 -4.4 -7.1 -2.95 -7.55 L-0.6 -8.0 -0.95 -5.2 Q-1.45 -2.35 -1.75 -2.15" fill="#896b2a" fill-opacity="0.8509804" fill-rule="evenodd" stroke="none"/>
      <path d="M-3.85 -6.15 L-1.95 -8.05 Q-0.9 -9.05 -0.4 -8.9 0.1 -8.9 1.0 -6.95 L2.1 -3.85 Q2.2 -3.2 3.8 0.45 5.3 3.9 5.4 5.0 5.6 6.7 5.3 7.55 4.85 8.75 3.15 9.35 L-0.25 10.35 -3.5 9.95 -4.5 9.2 Q-4.95 8.45 -5.6 5.8 -6.2 3.6 -6.15 0.85 L-6.25 -3.1 Q-6.4 -3.85 -5.55 -4.7 L-3.85 -6.15" fill="#e2c781" fill-opacity="0.8509804" fill-rule="evenodd" stroke="none"/>
      <path d="M-3.75 -5.95 L-1.85 -7.85 Q-0.8 -8.85 -0.35 -8.75 0.2 -8.7 1.05 -6.85 L2.1 -3.85 Q2.2 -3.2 3.8 0.45 5.3 3.9 5.4 5.0 5.6 6.7 5.3 7.55 4.85 8.75 3.15 9.35 L-0.25 10.35 -3.5 9.95 -4.5 9.2 Q-4.95 8.45 -5.6 5.8 -6.2 3.6 -6.05 1.0 -5.95 -1.95 -6.1 -2.85 -6.25 -3.6 -5.45 -4.45 L-3.75 -5.95" fill="url(#gradient9)" fill-rule="evenodd" stroke="none"/>
    </g>
    <radialGradient cx="0" cy="0" gradientTransform="matrix(-0.0024, -0.0109, -0.0109, 0.0024, -0.7, -0.35)" gradientUnits="userSpaceOnUse" id="gradient9" r="819.2" spreadMethod="pad">
      <stop offset="0.0" stop-color="#f2d289" stop-opacity="0.8509804"/>
      <stop offset="1.0" stop-color="#bb9344" stop-opacity="0.8509804"/>
    </radialGradient>
    <g id="sprite11" transform="matrix(1.0, 0.0, 0.0, 1.0, 0.0, -0.05)">
      <use height="13.5" transform="matrix(1.0, 0.0, 0.0, 1.0, 0.0, 0.05)" width="29.15" xlink:href="#shape17"/>
    </g>
    <g id="shape17" transform="matrix(1.0, 0.0, 0.0, 1.0, 0.0, -0.05)">
      <path d="M26.55 8.3 Q25.05 7.2 21.3 7.65 16.0 8.25 8.9 10.2 L17.05 7.5 12.2 7.8 Q4.45 8.35 0.0 10.35 L1.4 7.45 Q2.4 5.05 6.05 4.1 L13.55 2.7 22.25 0.6 Q27.1 -0.5 28.3 0.55 29.3 1.35 29.1 5.45 28.9 9.0 28.0 13.55 L27.9 11.9 Q27.8 9.25 26.55 8.3" fill="#402903" fill-rule="evenodd" stroke="none"/>
    </g>
    <g id="sprite12" transform="matrix(1.0, 0.0, 0.0, 1.0, 0.0, 0.0)">
      <use height="17.1" transform="matrix(1.0, 0.0, 0.0, 1.0, 0.0, 0.0)" width="32.4" xlink:href="#shape18"/>
    </g>
    <g id="shape18" transform="matrix(1.0, 0.0, 0.0, 1.0, 0.0, 0.0)">
      <path d="M23.35 11.7 Q27.6 12.45 30.45 11.6 31.85 11.2 32.4 10.6 L31.85 11.4 Q29.9 14.3 27.7 16.65 25.05 17.5 21.05 16.75 13.55 15.3 9.5 13.55 3.75 11.1 0.9 6.85 L0.3 6.0 Q-0.3 3.7 0.25 1.6 0.5 0.6 0.9 0.0 3.7 3.1 7.15 6.0 11.5 9.6 23.35 11.7" fill="#402903" fill-rule="evenodd" stroke="none"/>
    </g>
    <g id="shape19" transform="matrix(1.0, 0.0, 0.0, 1.0, 6.65, 8.2)">
      <path d="M-3.5 -8.0 Q-3.4 -7.75 -3.65 -7.75 L-3.85 -7.75 -3.95 -7.9 -3.95 -8.05 -3.8 -8.15 -3.6 -8.15 -3.5 -8.0" fill="#736035" fill-opacity="0.8509804" fill-rule="evenodd" stroke="none"/>
      <path d="M-6.25 -5.7 L-6.25 -5.55 -6.4 -5.5 -6.65 -5.6 -6.5 -5.9 -6.35 -5.85 -6.25 -5.7" fill="#736035" fill-opacity="0.8509804" fill-rule="evenodd" stroke="none"/>
    </g>
    <g id="sprite13" transform="matrix(1.0, 0.0, 0.0, 1.0, 0.0, 0.0)">
      <use height="1.95" transform="matrix(1.0, 0.0, 0.0, 1.0, 0.0, 0.0)" width="2.45" xlink:href="#shape20"/>
    </g>
    <g id="shape20" transform="matrix(1.0, 0.0, 0.0, 1.0, 0.0, 0.0)">
      <path d="M2.45 1.95 L0.0 1.2 0.45 1.05 1.2 0.0 1.75 1.2 1.85 1.35 2.45 1.95" fill="#402903" fill-rule="evenodd" stroke="none"/>
    </g>
    <g id="sprite14" transform="matrix(1.0, 0.0, 0.0, 1.0, 0.0, 0.0)">
      <use height="5.0" transform="matrix(1.0, 0.0, 0.0, 1.0, 0.0, 0.0)" width="4.2" xlink:href="#shape21"/>
    </g>
    <g id="shape21" transform="matrix(1.0, 0.0, 0.0, 1.0, 0.0, 0.0)">
      <path d="M2.85 0.0 L4.2 0.15 Q3.9 0.85 2.95 1.35 2.05 1.9 0.0 5.0 L0.3 3.95 Q0.9 2.75 2.1 1.8 3.05 1.0 2.85 0.0" fill="#402903" fill-rule="evenodd" stroke="none"/>
    </g>
    <g id="sprite15" transform="matrix(1.0, 0.0, 0.0, 1.0, 0.0, 0.0)">
      <use height="1.4" transform="matrix(1.0, 0.0, 0.0, 1.0, 0.0, 0.0)" width="1.25" xlink:href="#shape22"/>
    </g>
    <g id="shape22" transform="matrix(1.0, 0.0, 0.0, 1.0, 0.0, 0.0)">
      <path d="M0.25 1.4 Q-0.2 0.9 0.1 0.35 0.35 -0.2 1.25 0.1 0.45 0.4 0.35 0.9 L0.25 1.4" fill="#f5dc9b" fill-rule="evenodd" stroke="none"/>
    </g>
    <g id="sprite16" transform="matrix(1.0, 0.0, 0.0, 1.0, 0.0, 0.05)">
      <use height="0.9" transform="matrix(1.0, 0.0, 0.0, 1.0, 0.0, -0.05)" width="5.65" xlink:href="#shape23"/>
    </g>
    <g id="shape23" transform="matrix(1.0, 0.0, 0.0, 1.0, 0.0, 0.05)">
      <path d="M0.0 0.55 Q0.45 0.35 1.6 0.1 L3.6 0.05 5.65 0.85 2.85 0.35 0.0 0.55" fill="#f5dc9b" fill-rule="evenodd" stroke="none"/>
    </g>
    <g id="sprite17" transform="matrix(1.0, 0.0, 0.0, 1.0, 0.05, 0.05)">
      <use height="1.25" transform="matrix(1.0, 0.0, 0.0, 1.0, -0.05, -0.05)" width="1.9" xlink:href="#shape24"/>
    </g>
    <g id="shape24" transform="matrix(1.0, 0.0, 0.0, 1.0, 0.05, 0.05)">
      <path d="M1.85 0.35 L1.1 0.35 Q0.35 0.3 0.05 1.2 -0.2 0.65 0.3 0.15 L1.85 0.35" fill="#f5dc9b" fill-rule="evenodd" stroke="none"/>
    </g>
    <g id="shape25" transform="matrix(1.0, 0.0, 0.0, 1.0, 6.55, 6.75)">
      <path d="M-2.8 -6.6 L-2.45 -6.65 Q-2.5 -6.35 -2.75 -6.2 -3.0 -6.05 -2.95 -6.25 L-2.8 -6.6" fill="#816936" fill-opacity="0.8509804" fill-rule="evenodd" stroke="none"/>
      <path d="M-5.3 -4.35 Q-5.1 -4.45 -5.15 -4.2 L-5.35 -3.8 Q-5.55 -3.7 -5.45 -3.95 L-5.3 -4.35" fill="#816936" fill-opacity="0.8509804" fill-rule="evenodd" stroke="none"/>
      <path d="M-6.25 2.0 L-6.4 1.5 -6.05 1.3 -5.7 1.25 -5.4 1.35 Q-5.3 1.45 -5.35 1.6 L-5.45 1.75 -5.55 1.75 -5.75 1.95 -5.9 1.8 -6.1 1.7 -6.2 1.9 -6.2 2.1 -6.25 2.0" fill="#402903" fill-opacity="0.8509804" fill-rule="evenodd" stroke="none"/>
      <path d="M-5.95 6.0 L-5.8 5.8 -5.4 5.65 -5.1 5.65 -5.05 5.85 -5.15 6.05 -5.2 6.15 -5.35 6.15 -5.55 6.05 -5.55 6.2 -5.55 6.35 -5.65 6.3 -5.85 6.15 -5.95 6.0" fill="#402903" fill-opacity="0.8509804" fill-rule="evenodd" stroke="none"/>
      <path d="M4.35 1.2 L4.2 1.35 4.1 1.2 4.05 1.05 4.1 1.3 3.95 1.25 3.7 1.0 3.55 0.85 Q3.65 0.6 4.3 0.5 4.55 0.4 4.6 0.6 L4.5 0.95 4.35 1.2" fill="#402903" fill-opacity="0.8509804" fill-rule="evenodd" stroke="none"/>
      <path d="M1.35 -5.5 L1.55 -5.75 1.7 -5.8 2.05 -5.65 1.95 -5.35 1.8 -5.05 1.75 -4.85 1.75 -4.95 1.6 -5.4 1.5 -5.0 1.15 -5.2 1.2 -5.3 1.35 -5.5" fill="#402903" fill-opacity="0.8509804" fill-rule="evenodd" stroke="none"/>
      <path d="M1.65 -5.9 L1.8 -5.8 1.6 -5.4 1.25 -5.2 1.15 -5.3 1.3 -5.7 Q1.5 -5.9 1.65 -5.9" fill="#f0c871" fill-opacity="0.8509804" fill-rule="evenodd" stroke="none"/>
      <path d="M4.25 0.3 L4.4 0.55 4.1 1.0 3.7 1.05 3.55 0.85 Q3.55 0.7 3.85 0.5 4.1 0.25 4.25 0.3" fill="#f0c871" fill-opacity="0.8509804" fill-rule="evenodd" stroke="none"/>
      <path d="M-5.7 1.2 Q-5.45 1.25 -5.55 1.45 -5.65 1.65 -6.0 1.65 L-6.45 1.5 -6.45 1.25 -6.1 1.15 -5.7 1.2" fill="#f0c871" fill-opacity="0.8509804" fill-rule="evenodd" stroke="none"/>
      <path d="M-5.3 5.5 Q-5.05 5.6 -5.25 5.8 L-5.65 6.05 -5.95 6.1 -6.05 5.9 -5.75 5.6 -5.3 5.5" fill="#f0c871" fill-opacity="0.8509804" fill-rule="evenodd" stroke="none"/>
    </g>
    <g id="shape26" transform="matrix(1.0, 0.0, 0.0, 1.0, 3.75, 1.5)">
      <path d="M2.25 0.65 Q3.0 2.7 3.05 5.25 3.1 6.55 3.85 8.9 L5.05 12.2 6.35 16.15 Q7.15 19.3 6.35 21.15 5.5 23.2 2.4 23.65 -0.3 24.1 -2.25 23.2 -3.65 22.55 -3.75 21.2 L-3.55 19.0 -3.45 14.9 -3.35 13.6 -3.15 11.2 -3.05 7.25 -3.1 3.25 Q-3.05 1.65 -2.1 0.3 L-0.55 -1.25 Q1.2 -2.25 2.25 0.65" fill="url(#gradient10)" fill-rule="evenodd" stroke="none"/>
      <path d="M4.3 19.4 L4.7 18.85 Q5.0 18.5 5.25 18.5 L5.35 18.5 5.2 18.65 4.05 19.9 4.3 19.4" fill="#8c6b25" fill-opacity="0.8509804" fill-rule="evenodd" stroke="none"/>
      <path d="M2.05 3.65 L1.8 3.7 1.6 3.7 1.6 3.0 1.6 2.25 1.4 2.35 1.6 1.6 Q1.75 1.05 1.55 0.95 L1.65 0.6 1.65 0.25 1.15 -0.6 0.45 -0.85 -0.35 -0.8 -1.35 -0.1 -2.2 0.9 -2.75 2.05 -3.05 2.9 Q-2.9 1.4 -2.05 0.15 L-0.55 -1.25 Q1.2 -2.25 2.25 0.65 3.0 2.7 3.05 5.25 3.1 6.8 4.4 10.4 L4.5 11.05 4.6 12.15 4.7 13.25 5.0 14.75 5.05 15.6 4.9 16.3 4.9 17.0 5.0 17.0 4.9 17.75 4.55 18.45 4.5 18.65 Q4.8 17.05 4.3 14.95 L4.2 14.65 4.0 13.0 3.75 13.3 Q3.3 12.9 3.4 11.3 L3.2 11.85 3.35 10.9 Q3.5 10.2 3.3 9.95 L2.8 10.35 2.9 9.4 3.0 8.4 2.75 8.5 2.65 7.4 2.5 7.5 2.5 6.7 2.5 5.9 2.15 6.1 2.15 5.6 2.2 5.05 1.75 5.25 Q2.2 4.7 2.05 3.65" fill="#8c6b25" fill-opacity="0.8509804" fill-rule="evenodd" stroke="none"/>
      <path d="M4.0 19.7 L3.4 20.45 4.0 19.7" fill="#6e531d" fill-opacity="0.8509804" fill-rule="evenodd" stroke="none"/>
      <path d="M-2.25 23.2 L-3.4 22.25 -3.3 22.3 -3.45 22.0 -3.55 21.65 -3.2 21.95 -2.85 22.15 Q-1.65 22.85 -0.9 23.0 L0.1 23.05 0.95 23.1 1.9 23.05 2.4 22.85 2.8 22.55 Q2.65 22.4 2.3 22.4 L3.45 22.35 4.5 21.9 4.9 21.35 5.15 20.7 5.55 20.1 5.8 19.2 Q5.8 18.55 5.35 18.5 L5.25 18.5 Q5.0 18.5 4.7 18.85 L4.3 19.4 4.0 19.7 4.5 18.65 4.55 18.45 4.9 17.75 5.0 17.0 4.9 17.0 4.9 16.3 5.05 15.6 5.0 14.75 4.7 13.25 4.6 12.15 4.5 11.05 4.4 10.4 5.05 12.2 6.35 16.15 Q7.15 19.3 6.35 21.15 5.5 23.2 2.4 23.65 -0.3 24.1 -2.25 23.2" fill="#6e531d" fill-opacity="0.8509804" fill-rule="evenodd" stroke="none"/>
    </g>
    <radialGradient cx="0" cy="0" gradientTransform="matrix(-0.0031, 0.0266, 0.0135, 0.0015, -1.75, 6.9)" gradientUnits="userSpaceOnUse" id="gradient10" r="819.2" spreadMethod="pad">
      <stop offset="0.0" stop-color="#d5a84c" stop-opacity="0.8509804"/>
      <stop offset="1.0" stop-color="#775917" stop-opacity="0.8509804"/>
    </radialGradient>
    <g id="shape27" transform="matrix(1.0, 0.0, 0.0, 1.0, 1.05, 1.6)">
      <path d="M7.95 11.55 Q6.8 8.1 5.0 5.45 L3.75 3.95 Q3.85 4.2 3.65 4.1 L2.55 2.7 Q1.35 1.6 0.3 1.35 L-0.5 1.35 Q-1.8 -0.5 -0.15 -1.25 L3.7 -1.05 6.9 0.6 10.35 2.55 10.3 2.2 11.8 3.35 11.9 3.45 Q14.9 5.35 16.8 7.25 L16.5 6.35 17.9 8.15 19.1 10.2 19.5 11.25 19.85 11.15 20.25 13.3 20.3 13.8 Q20.65 15.65 20.25 17.1 L20.5 17.2 19.65 18.45 19.5 18.6 18.8 19.15 Q17.8 19.8 16.6 20.25 L17.05 20.3 15.4 20.7 14.85 20.55 Q12.75 20.75 11.25 19.85 9.6 18.85 9.25 16.8 L8.9 15.1 8.85 15.6 8.75 15.2 8.8 14.4 8.35 12.85 8.3 13.5 8.0 11.65 7.95 11.55" fill="url(#gradient11)" fill-rule="evenodd" stroke="none"/>
    </g>
    <radialGradient cx="0" cy="0" gradientTransform="matrix(0.0042, -0.0191, -0.0198, -0.0035, 6.0, 13.35)" gradientUnits="userSpaceOnUse" id="gradient11" r="819.2" spreadMethod="pad">
      <stop offset="0.0" stop-color="#e2a64b" stop-opacity="0.8509804"/>
      <stop offset="1.0" stop-color="#825711" stop-opacity="0.8509804"/>
    </radialGradient>
    <g id="sprite18" transform="matrix(1.0, 0.0, 0.0, 1.0, 0.0, 0.0)">
      <use height="32.15" transform="matrix(1.0, 0.0, 0.0, 1.0, 0.0, 0.0)" width="66.65" xlink:href="#shape28"/>
    </g>
    <g id="shape28" transform="matrix(1.0, 0.0, 0.0, 1.0, 0.0, 0.0)">
      <path d="M65.8 0.65 L65.8 0.0 Q67.35 1.65 66.15 4.95 64.95 8.2 61.8 10.9 L54.65 16.0 46.4 21.35 47.2 21.5 Q46.05 22.3 42.95 23.55 L42.65 23.65 Q35.15 28.0 28.8 30.05 L31.1 30.35 25.55 31.25 Q21.4 31.95 16.95 31.3 L16.8 32.15 11.7 30.6 10.65 30.15 Q6.0 28.85 3.35 26.3 L3.0 26.7 Q1.85 25.85 1.2 23.45 L1.05 22.9 0.55 20.8 Q0.25 17.8 0.8 14.7 L0.0 15.55 Q0.25 13.35 1.1 11.7 0.7 14.05 1.0 15.65 1.3 17.45 2.55 19.4 L4.8 22.9 4.45 21.3 Q5.2 23.6 7.8 24.9 11.4 26.8 14.65 27.05 L13.65 27.9 Q16.8 27.55 20.4 26.4 L26.3 24.8 25.15 26.3 Q29.55 24.65 30.4 23.05 31.3 21.4 31.3 18.15 L31.9 20.3 Q33.15 16.8 32.55 14.3 L31.65 10.8 29.4 8.3 30.0 8.7 Q30.7 9.05 31.15 9.05 L31.9 9.05 31.85 8.7 Q31.45 8.25 29.65 7.55 L24.3 5.65 Q26.8 6.3 26.8 5.65 L26.65 4.8 29.2 5.75 29.35 5.75 Q33.0 8.3 35.9 9.15 39.4 10.25 45.6 10.15 51.7 10.05 54.55 8.9 58.3 7.4 60.3 5.55 L61.05 6.4 61.75 5.85 63.05 4.65 63.8 3.8 63.55 5.4 64.6 4.0 Q65.7 2.3 65.8 0.65" fill="#472800" fill-rule="evenodd" stroke="none"/>
    </g>
    <g id="shape29" transform="matrix(1.0, 0.0, 0.0, 1.0, -8.75, -14.4)">
      <path d="M9.7 16.25 Q9.75 17.2 10.35 18.25 10.8 19.0 11.8 19.25 L13.25 19.45 12.05 19.35 12.7 19.55 14.2 19.85 16.7 20.15 16.6 20.25 17.05 20.3 15.4 20.7 14.85 20.55 Q12.75 20.75 11.25 19.85 9.6 18.85 9.25 16.8 L8.9 15.1 8.85 15.6 8.75 15.2 8.8 14.4 9.6 16.3 9.7 15.75 9.7 16.25" fill="#edb766" fill-opacity="0.8509804" fill-rule="evenodd" stroke="none"/>
    </g>
    <g id="shape30" transform="matrix(1.0, 0.0, 0.0, 1.0, -5.1, 32.4)">
      <path d="M6.95 -29.55 L7.85 -30.25 8.1 -30.65 8.8 -31.25 8.65 -31.0 8.45 -30.6 Q9.9 -31.45 11.6 -31.85 12.5 -32.05 12.7 -32.35 L12.35 -31.75 13.0 -31.9 14.85 -32.35 15.5 -32.4 14.8 -32.05 15.85 -32.05 15.6 -31.95 16.45 -31.7 17.75 -31.15 16.8 -31.35 17.9 -30.65 19.55 -29.1 20.8 -27.5 20.35 -27.75 Q21.4 -26.0 21.6 -24.1 21.7 -22.8 21.9 -22.05 L22.05 -21.55 21.55 -21.75 21.55 -21.6 Q21.6 -21.1 21.15 -20.15 L20.7 -19.25 20.7 -19.65 20.2 -18.95 19.3 -18.15 18.9 -18.1 19.2 -18.5 18.85 -18.1 18.65 -17.8 Q18.2 -17.25 17.55 -16.95 L17.0 -16.8 17.1 -16.85 17.25 -17.05 15.7 -16.75 14.95 -16.7 14.7 -16.7 15.0 -16.4 14.0 -16.5 Q13.55 -16.6 9.25 -20.7 L5.1 -24.8 5.25 -26.4 Q5.7 -28.3 6.95 -29.55" fill="url(#gradient12)" fill-rule="evenodd" stroke="none"/>
    </g>
    <radialGradient cx="0" cy="0" gradientTransform="matrix(0.0105, 0.0174, 0.0174, -0.0105, 11.1, -29.25)" gradientUnits="userSpaceOnUse" id="gradient12" r="819.2" spreadMethod="pad">
      <stop offset="0.0" stop-color="#d2a850" stop-opacity="0.8509804"/>
      <stop offset="1.0" stop-color="#775917" stop-opacity="0.8509804"/>
    </radialGradient>
    <g id="sprite19" transform="matrix(1.0, 0.0, 0.0, 1.0, 0.0, 0.0)">
      <use height="41.7" transform="matrix(1.0, 0.0, 0.0, 1.0, 0.0, 0.0)" width="57.15" xlink:href="#shape31"/>
    </g>
    <g id="shape31" transform="matrix(1.0, 0.0, 0.0, 1.0, 0.0, 0.0)">
      <path d="M42.75 21.95 L43.55 18.65 44.1 21.25 Q44.5 24.2 43.45 26.0 L41.8 28.85 Q45.45 24.45 45.9 23.25 L46.35 22.05 46.1 24.05 Q45.6 26.45 44.05 28.25 L41.6 31.2 44.5 29.6 Q47.6 27.6 48.65 25.7 L50.3 22.65 Q48.75 27.05 47.2 28.75 L45.6 30.45 48.9 27.35 Q52.2 23.75 52.05 20.95 51.85 16.55 52.0 15.75 L52.9 18.3 Q53.75 21.05 53.75 22.15 L53.7 23.9 54.15 21.1 Q54.55 17.6 54.0 14.4 L53.1 9.25 55.0 12.7 55.5 15.9 Q55.9 20.3 56.55 22.85 L57.15 24.5 55.35 23.8 55.45 24.25 Q55.6 25.95 54.05 29.2 L52.45 32.15 52.5 30.85 50.9 33.2 Q49.35 35.15 47.8 35.85 L46.55 36.1 47.5 34.75 46.35 36.0 45.65 37.0 Q44.15 38.9 41.95 39.9 L40.05 40.5 40.95 39.55 Q38.3 40.4 35.75 40.65 L33.15 40.8 32.4 40.75 33.35 41.7 30.0 41.4 Q28.55 41.15 14.1 27.35 L0.0 13.55 0.0 12.4 0.05 12.3 0.1 11.0 Q0.3 9.05 0.8 7.35 L0.8 7.25 1.5 5.15 1.55 4.95 2.55 2.75 2.55 2.7 3.95 0.4 4.0 0.4 Q3.45 3.3 3.55 4.35 L3.7 6.1 Q5.1 2.1 6.15 1.05 L7.2 0.0 Q6.45 2.0 6.25 3.95 L6.0 5.9 Q7.65 4.55 9.35 3.15 8.5 3.9 7.65 6.9 L6.8 10.05 Q10.85 5.65 13.95 4.0 15.05 3.45 16.2 2.85 13.6 4.35 12.1 6.7 L10.05 9.75 Q11.6 7.9 13.45 6.75 L15.25 5.6 14.2 6.85 Q13.15 8.5 12.85 10.45 12.55 12.4 22.15 22.55 L31.85 32.3 34.0 32.1 Q36.65 31.3 39.05 28.55 41.45 25.75 42.75 21.95" fill="#402903" fill-rule="evenodd" stroke="none"/>
    </g>
    <g id="shape32" transform="matrix(1.0, 0.0, 0.0, 1.0, -8.1, 27.45)">
      <path d="M12.8 -27.2 Q15.45 -26.2 16.55 -25.15 18.05 -23.7 17.4 -21.85 16.85 -20.15 15.35 -19.25 14.2 -18.55 12.8 -18.35 11.85 -18.25 9.9 -20.85 L8.1 -23.45 Q7.9 -25.55 9.5 -26.75 11.0 -27.9 12.8 -27.2" fill="url(#gradient13)" fill-rule="evenodd" stroke="none"/>
    </g>
    <radialGradient cx="0" cy="0" gradientTransform="matrix(0.005, -0.01, 0.0074, 0.0037, 10.55, -18.85)" gradientUnits="userSpaceOnUse" id="gradient13" r="819.2" spreadMethod="pad">
      <stop offset="0.0" stop-color="#d5b263" stop-opacity="0.8509804"/>
      <stop offset="1.0" stop-color="#bb9344" stop-opacity="0.8509804"/>
    </radialGradient>
    <g id="sprite20" transform="matrix(1.0, 0.0, 0.0, 1.0, 0.0, 0.0)">
      <use height="16.65" transform="matrix(1.0, 0.0, 0.0, 1.0, 0.0, 0.0)" width="32.25" xlink:href="#shape33"/>
    </g>
    <g id="shape33" transform="matrix(1.0, 0.0, 0.0, 1.0, 0.0, 0.0)">
      <path d="M28.8 16.55 Q27.15 16.15 24.05 14.3 20.25 12.0 18.4 9.6 16.0 6.55 13.35 5.3 10.25 3.75 7.3 5.0 4.7 6.15 2.6 9.35 1.6 11.0 1.05 12.35 L0.0 12.75 0.15 11.05 Q0.5 8.9 1.65 6.5 3.0 3.8 5.5 2.05 7.75 0.5 10.25 0.1 L14.0 0.35 16.25 1.4 30.8 10.95 Q31.85 11.65 32.15 13.55 L32.25 15.35 Q30.35 17.0 28.8 16.55" fill="#402903" fill-rule="evenodd" stroke="none"/>
    </g>
    <g id="shape34" transform="matrix(1.0, 0.0, 0.0, 1.0, 24.7, 29.55)">
      <path d="M11.3 -27.35 L11.55 -27.45 12.8 -27.2 Q14.0 -26.8 15.85 -25.85 L17.3 -24.6 18.15 -23.6 17.45 -23.45 16.3 -23.65 14.8 -24.5 Q13.9 -25.15 13.75 -25.45 L13.15 -26.3 12.4 -27.0 11.7 -27.3 11.3 -27.35" fill="#cfb471" fill-opacity="0.8509804" fill-rule="evenodd" stroke="none"/>
      <path d="M10.15 -27.25 L11.35 -27.5 12.3 -27.3 13.05 -26.6 13.95 -25.5 15.15 -24.4 16.4 -23.7 17.65 -23.5 18.15 -23.6 18.15 -23.4 17.0 -23.35 15.8 -23.75 14.5 -24.6 13.15 -26.15 12.0 -27.15 Q10.7 -27.35 9.9 -26.8 9.3 -26.4 8.75 -25.5 8.4 -24.9 8.35 -23.65 L8.35 -22.45 8.05 -22.35 Q7.8 -22.55 8.0 -24.0 8.2 -25.5 8.95 -26.35 L10.15 -27.25" fill="#e2c781" fill-opacity="0.8509804" fill-rule="evenodd" stroke="none"/>
      <path d="M15.85 -24.8 L16.35 -24.25 16.25 -24.1 Q16.1 -24.1 15.9 -24.25 L15.65 -24.6 15.85 -24.8" fill="#a28c52" fill-opacity="0.8509804" fill-rule="evenodd" stroke="none"/>
      <path d="M16.35 -24.25 Q16.35 -24.0 16.15 -24.15 L15.95 -24.55 15.65 -24.6 15.85 -24.8 16.35 -24.25" fill="#e2c781" fill-opacity="0.8509804" fill-rule="evenodd" stroke="none"/>
      <path d="M17.25 -27.2 L17.55 -26.95 17.55 -26.6 Q17.55 -26.4 17.35 -26.3 L16.9 -26.35 Q16.65 -26.5 16.75 -26.9 16.85 -27.25 17.25 -27.2" fill="#6e532d" fill-opacity="0.8509804" fill-rule="evenodd" stroke="none"/>
      <path d="M16.85 -26.4 L17.3 -26.7 17.2 -27.2 17.25 -27.2 17.55 -26.95 17.55 -26.6 Q17.55 -26.4 17.35 -26.3 L16.9 -26.35 16.85 -26.4" fill="#d0b265" fill-opacity="0.8509804" fill-rule="evenodd" stroke="none"/>
      <path d="M-16.25 -29.25 L-14.0 -28.95 Q-12.35 -28.55 -11.3 -27.85 -9.8 -26.85 -9.0 -25.1 L-8.55 -23.55 Q-15.15 -14.0 -15.8 -13.75 L-16.5 -13.5 -16.75 -13.5 -16.55 -13.8 -17.5 -13.65 -19.9 -13.9 -20.8 -14.4 -21.25 -14.75 -20.9 -14.4 -21.3 -14.4 Q-21.8 -14.5 -22.35 -15.0 L-23.75 -16.75 -24.05 -17.55 -24.65 -17.2 Q-24.45 -17.7 -24.65 -19.8 -24.8 -21.5 -24.25 -23.2 -23.65 -25.1 -22.4 -26.35 L-20.25 -28.05 -19.45 -28.55 -20.45 -28.7 -19.4 -28.9 -16.95 -29.05 -17.45 -29.55 -17.2 -29.4 -16.25 -29.25" fill="url(#gradient14)" fill-rule="evenodd" stroke="none"/>
    </g>
    <radialGradient cx="0" cy="0" gradientTransform="matrix(0.0105, 0.0182, 0.0182, -0.0105, -19.9, -25.55)" gradientUnits="userSpaceOnUse" id="gradient14" r="819.2" spreadMethod="pad">
      <stop offset="0.0" stop-color="#d2a850" stop-opacity="0.8509804"/>
      <stop offset="1.0" stop-color="#775917" stop-opacity="0.8509804"/>
    </radialGradient>
    <g id="sprite21" transform="matrix(1.0, 0.0, 0.0, 1.0, 0.0, 0.0)">
      <use height="46.05" transform="matrix(1.0, 0.0, 0.0, 1.0, 0.0, 0.0)" width="54.2" xlink:href="#shape35"/>
    </g>
    <g id="shape35" transform="matrix(1.0, 0.0, 0.0, 1.0, 0.0, 0.0)">
      <path d="M53.1 8.15 Q54.0 10.55 54.2 12.25 32.05 44.3 29.85 45.1 L27.4 45.9 26.6 46.05 27.35 44.95 24.05 45.45 Q19.0 45.85 16.1 44.7 14.75 44.2 12.95 43.0 L11.45 41.85 12.6 42.95 11.35 42.9 Q9.7 42.55 7.8 40.9 4.85 38.3 3.1 35.05 L2.0 32.3 0.05 33.5 Q0.7 31.8 0.05 24.75 L0.0 21.5 1.2 17.8 1.3 23.0 Q1.35 26.25 2.35 29.6 L3.3 32.25 2.95 30.55 Q2.75 29.5 3.1 26.6 L3.5 23.95 3.75 24.9 4.4 29.1 Q4.8 31.8 8.7 34.8 L12.5 37.2 10.6 35.85 Q9.45 35.0 7.85 32.65 L6.45 30.45 8.6 33.15 Q10.0 34.85 13.4 36.2 L16.55 37.25 13.6 34.8 Q11.8 33.25 10.8 31.05 L10.2 29.1 10.85 30.2 Q11.55 31.3 15.95 34.95 L13.8 32.45 Q12.45 30.9 12.25 27.9 L12.35 25.25 13.75 28.35 Q15.75 31.85 18.6 34.15 21.45 36.45 24.2 36.7 L26.35 36.5 34.1 25.15 Q41.7 13.45 41.05 11.55 40.4 9.7 39.0 8.3 L37.75 7.25 39.75 8.0 Q41.75 8.8 43.65 10.35 L41.05 7.7 Q39.2 5.75 36.35 4.7 L38.75 5.4 Q42.1 6.45 46.9 10.05 L45.45 7.1 Q44.55 5.25 43.7 4.25 L43.0 3.65 46.9 5.8 46.35 3.95 Q45.75 2.05 44.65 0.2 L45.85 1.05 Q47.1 1.95 49.2 5.6 L49.0 3.9 Q48.95 3.05 47.9 0.0 51.3 3.35 53.1 8.15" fill="#402903" fill-rule="evenodd" stroke="none"/>
    </g>
    <g id="shape36" transform="matrix(1.0, 0.0, 0.0, 1.0, 20.95, 25.55)">
      <path d="M-20.35 -22.4 Q-19.35 -24.4 -17.45 -25.2 L-13.55 -25.0 Q-11.45 -23.95 -11.3 -21.8 L-12.6 -18.85 Q-14.1 -15.85 -15.05 -15.8 L-17.85 -16.2 Q-19.55 -16.85 -20.45 -18.4 -21.5 -20.25 -20.35 -22.4" fill="#e2c781" fill-opacity="0.8509804" fill-rule="evenodd" stroke="none"/>
      <path d="M-20.05 -22.25 Q-19.1 -24.15 -17.25 -24.95 L-13.5 -24.75 Q-11.45 -23.75 -11.3 -21.65 L-12.55 -18.75 Q-14.0 -15.85 -14.95 -15.8 L-17.6 -16.2 Q-19.25 -16.8 -20.15 -18.35 -21.15 -20.15 -20.05 -22.25" fill="url(#gradient15)" fill-rule="evenodd" stroke="none"/>
    </g>
    <radialGradient cx="0" cy="0" gradientTransform="matrix(-0.0068, -0.0089, -0.0066, 0.005, -12.85, -16.7)" gradientUnits="userSpaceOnUse" id="gradient15" r="819.2" spreadMethod="pad">
      <stop offset="0.0" stop-color="#d5b263" stop-opacity="0.8509804"/>
      <stop offset="1.0" stop-color="#bb9344" stop-opacity="0.8509804"/>
    </radialGradient>
    <g id="sprite22" transform="matrix(1.0, 0.0, 0.0, 1.0, 0.0, 0.0)">
      <use height="19.0" transform="matrix(1.0, 0.0, 0.0, 1.0, 0.0, 0.0)" width="24.7" xlink:href="#shape37"/>
    </g>
    <g id="shape37" transform="matrix(1.0, 0.0, 0.0, 1.0, 0.0, 0.0)">
      <path d="M24.7 0.3 L22.05 0.8 Q20.4 1.1 17.85 1.95 L15.6 2.75 18.0 2.2 22.6 1.85 19.95 2.35 Q18.3 2.65 16.15 3.55 L14.35 4.4 17.35 3.85 24.2 3.4 20.8 4.05 Q18.7 4.45 16.8 5.3 L15.3 6.05 18.35 5.65 21.25 5.75 Q17.6 6.45 14.3 7.8 11.05 9.2 9.0 10.85 L10.75 8.45 8.65 10.4 Q6.5 12.35 3.9 16.6 L4.8 13.7 Q5.7 10.8 7.65 8.6 L5.1 11.05 Q2.55 13.45 0.0 19.0 L0.65 16.65 Q1.05 15.2 2.0 13.05 L2.9 11.15 0.7 14.2 2.85 10.0 Q4.15 7.4 7.0 5.1 8.45 3.95 9.6 3.3 11.55 1.75 14.6 0.7 16.1 0.2 17.2 0.0 L13.15 2.25 17.15 1.15 Q20.5 0.3 24.7 0.3" fill="#e8ce88" fill-rule="evenodd" stroke="none"/>
    </g>
    <g id="shape38" transform="matrix(1.0, 0.0, 0.0, 1.0, 19.7, 28.5)">
      <path d="M2.35 -26.55 L4.95 -25.55 7.5 -24.55 8.95 -23.95 8.1 -24.0 8.6 -23.75 9.55 -23.15 11.85 -21.45 10.75 -21.9 Q12.7 -20.55 14.45 -17.55 16.2 -14.7 17.15 -11.45 L17.75 -10.2 18.7 -7.55 18.3 -8.2 18.2 -7.4 17.85 -5.85 17.85 -6.05 Q17.6 -3.7 15.45 -1.5 L15.5 -1.5 Q15.7 -1.35 16.6 -1.75 L15.15 -0.6 14.45 0.05 14.45 0.15 13.15 0.6 10.85 2.25 10.9 1.8 6.7 3.8 Q4.6 4.6 1.9 4.95 L-2.75 5.15 -6.95 4.65 -8.25 4.6 Q-8.55 4.25 -9.05 4.1 -11.65 3.3 -13.15 2.55 L-15.3 1.0 -16.45 0.05 -16.45 0.35 -17.35 -1.05 -18.35 -2.65 -18.6 -1.9 -18.95 -2.9 -19.05 -3.95 -18.9 -4.25 -19.4 -3.75 -19.5 -4.3 -19.65 -5.05 -19.7 -5.45 -19.2 -6.8 Q-19.35 -9.5 -18.5 -12.35 -17.6 -15.35 -15.7 -18.0 L-15.25 -18.85 -15.8 -18.95 -15.05 -19.35 Q-14.35 -19.7 -12.85 -21.45 L-13.55 -21.25 -13.1 -21.8 -12.05 -22.45 -13.05 -22.45 -11.2 -23.2 -10.85 -23.55 -10.4 -23.65 Q-8.35 -25.25 -5.6 -25.85 L-5.65 -25.9 -6.35 -26.15 -6.65 -26.25 -6.0 -26.3 -4.5 -26.05 -4.35 -26.1 -4.5 -26.2 -4.75 -26.6 -4.8 -26.8 -3.2 -26.25 -2.9 -26.3 -2.95 -26.95 -2.85 -27.3 -2.7 -26.6 -1.5 -26.8 Q-0.75 -26.95 -0.25 -27.2 L0.15 -28.5 0.2 -28.05 Q0.25 -27.6 0.85 -26.95 L0.9 -27.5 1.3 -27.15 Q1.8 -26.75 2.35 -26.55" fill="url(#gradient16)" fill-rule="evenodd" stroke="none"/>
    </g>
    <radialGradient cx="0" cy="0" gradientTransform="matrix(0.0134, 0.0304, 0.0304, -0.0134, -3.95, -20.6)" gradientUnits="userSpaceOnUse" id="gradient16" r="819.2" spreadMethod="pad">
      <stop offset="0.0" stop-color="#dfb258" stop-opacity="0.8509804"/>
      <stop offset="1.0" stop-color="#886113" stop-opacity="0.8509804"/>
    </radialGradient>
    <g id="sprite23" transform="matrix(1.0, 0.0, 0.0, 1.0, 0.0, 0.0)">
      <use height="106.05" transform="matrix(1.0, 0.0, 0.0, 1.0, 0.0, 0.0)" width="129.0" xlink:href="#shape39"/>
    </g>
    <g id="shape39" transform="matrix(1.0, 0.0, 0.0, 1.0, 0.0, 0.0)">
      <path d="M106.1 16.5 L102.35 15.05 Q108.8 19.45 114.85 29.55 120.7 39.25 123.85 50.15 L125.85 54.4 Q128.75 61.0 129.0 63.3 L127.75 61.1 127.45 63.7 Q127.2 66.3 126.15 69.0 L126.2 68.3 Q125.35 76.25 118.2 83.65 L118.25 83.65 Q119.05 84.1 122.0 82.8 L117.2 86.6 Q115.1 88.05 114.75 88.75 L114.85 89.1 110.35 90.55 106.75 93.2 102.65 96.15 102.9 94.75 Q96.05 98.45 88.7 101.35 81.65 104.1 72.65 105.25 L57.0 105.85 42.8 104.3 38.4 104.05 Q37.5 102.9 35.7 102.4 26.95 99.75 22.05 97.2 19.2 95.7 14.8 92.05 L10.95 88.7 10.8 89.75 Q9.95 88.8 7.8 85.1 L4.45 79.75 3.65 82.15 2.55 78.9 Q1.9 76.85 2.2 75.35 L2.65 74.25 1.0 75.95 0.6 74.2 Q0.3 73.1 0.15 71.6 L0.0 70.35 1.2 66.85 Q2.85 70.0 6.5 72.3 9.55 74.3 11.45 75.0 L12.75 75.3 11.55 72.35 12.2 73.0 Q13.3 73.85 15.4 74.9 L18.75 76.55 18.75 72.3 21.05 75.05 Q23.65 77.15 25.0 73.85 26.35 70.55 27.6 68.0 L28.55 66.1 30.75 66.85 Q33.1 67.75 33.9 68.35 34.95 69.1 37.45 69.2 40.1 69.35 40.95 68.5 L46.1 63.85 46.7 65.05 Q47.7 65.95 49.7 64.7 51.85 63.35 54.85 62.55 56.65 62.1 60.15 61.6 L63.6 61.1 61.45 62.4 63.4 62.5 Q66.05 62.4 69.65 61.4 73.3 60.4 75.6 59.1 L77.15 58.0 77.1 60.3 81.3 55.8 81.1 57.4 Q81.05 59.4 81.9 61.35 83.35 64.45 84.55 64.9 93.05 52.4 93.9 50.15 94.6 48.3 93.3 44.5 95.15 49.4 96.5 50.4 98.2 51.65 99.2 51.9 L97.75 48.65 Q96.1 44.4 95.3 39.65 94.25 33.5 91.15 24.9 87.75 15.65 84.85 11.8 L80.25 5.65 75.75 0.0 91.45 6.0 Q94.4 7.05 96.3 8.15 L93.4 7.9 95.05 8.75 98.35 10.8 106.1 16.5" fill="#402903" fill-rule="evenodd" stroke="none"/>
    </g>
    <g id="sprite24" transform="matrix(1.0, 0.0, 0.0, 1.0, 0.0, 0.0)">
      <use height="52.95" transform="matrix(1.0, 0.0, 0.0, 1.0, 0.0, 0.0)" width="26.2" xlink:href="#shape40"/>
    </g>
    <g id="shape40" transform="matrix(1.0, 0.0, 0.0, 1.0, 0.0, 0.0)">
      <path d="M13.6 15.85 Q18.35 24.5 20.4 31.25 22.2 37.0 23.3 42.75 L24.4 47.6 25.65 50.45 Q26.3 52.35 26.15 52.75 25.95 53.3 21.85 52.25 L20.5 50.3 18.95 37.8 Q18.7 35.1 15.8 27.1 13.05 19.5 11.3 16.25 5.95 6.3 3.75 4.15 L0.0 0.0 Q5.1 3.8 7.4 6.15 9.5 8.3 13.6 15.85" fill="#eec04a" fill-rule="evenodd" stroke="none"/>
    </g>
    <g id="shape41" transform="matrix(1.0, 0.0, 0.0, 1.0, -2.75, 26.45)">
      <path d="M2.75 -26.45 L4.4 -24.75 5.85 -22.7 Q8.0 -18.5 8.65 -16.0 L9.2 -12.75 9.25 -11.5 8.8 -11.45 8.2 -15.65 Q7.8 -17.85 5.85 -22.1 5.15 -23.65 3.85 -25.2 L2.75 -26.45" fill="#936925" fill-opacity="0.8509804" fill-rule="evenodd" stroke="none"/>
    </g>
    <g id="sprite25" transform="matrix(1.0, 0.0, 0.0, 1.0, 0.0, 0.0)">
      <use height="13.55" transform="matrix(1.0, 0.0, 0.0, 1.0, 0.0, 0.0)" width="9.9" xlink:href="#shape42"/>
    </g>
    <g id="shape42" transform="matrix(1.0, 0.0, 0.0, 1.0, 0.0, 0.0)">
      <path d="M5.95 2.25 L4.8 3.25 Q3.45 4.75 2.4 7.1 0.7 10.8 0.3 13.55 0.3 10.95 0.85 8.25 L1.75 4.15 0.0 6.4 1.2 4.4 Q2.85 2.2 5.05 1.05 7.45 -0.25 8.9 0.05 L9.9 0.6 Q7.0 1.1 5.95 2.25" fill="#cfb164" fill-rule="evenodd" stroke="none"/>
    </g>
    <g id="shape43" transform="matrix(1.0, 0.0, 0.0, 1.0, 11.6, 25.55)">
      <path d="M-6.45 -21.75 L-6.35 -21.2 -6.3 -20.8 -6.5 -21.4 -6.75 -20.3 -6.9 -19.3 -7.05 -19.85 -7.5 -19.35 -7.85 -19.05 -7.8 -19.35 -8.1 -19.2 -8.5 -18.95 -8.6 -18.7 -8.8 -18.1 -8.9 -17.65 -8.85 -18.65 -8.85 -19.1 -8.85 -19.25 -8.65 -19.1 -8.8 -19.55 -8.85 -19.9 -8.65 -19.8 -8.55 -19.7 -8.1 -19.65 Q-7.4 -19.8 -7.5 -20.4 L-7.55 -20.8 -7.75 -21.0 -8.05 -21.25 -7.85 -21.3 -7.3 -21.55 Q-6.85 -21.9 -6.9 -22.2 L-6.9 -22.3 -6.8 -22.25 -6.6 -22.1 -6.3 -21.85 -6.5 -22.0 -6.45 -21.75" fill="#a1772f" fill-opacity="0.8509804" fill-rule="evenodd" stroke="none"/>
      <path d="M-10.9 -17.7 L-11.1 -18.4 -11.1 -18.75 -11.2 -18.6 -11.3 -18.4 -11.3 -18.2 -11.35 -18.6 -11.4 -18.9 -11.35 -18.95 -11.25 -18.9 Q-11.1 -18.85 -11.0 -19.05 L-11.0 -19.3 -11.0 -19.4 -10.9 -19.5 -10.75 -19.45 -10.8 -19.0 -10.9 -18.45 -10.9 -17.7" fill="#a1772f" fill-opacity="0.8509804" fill-rule="evenodd" stroke="none"/>
      <path d="M-8.7 -14.45 L-8.65 -14.4 -8.55 -14.25 -8.55 -14.05 -8.55 -13.9 -8.45 -13.65 -8.55 -13.7 -8.7 -13.75 -8.8 -13.75 -8.7 -13.55 -9.1 -13.6 -9.35 -13.6 -9.4 -13.65 -9.4 -13.55 -9.15 -13.1 -9.3 -13.15 -9.5 -13.35 -9.65 -13.5 -9.65 -12.9 -9.8 -13.85 -9.65 -13.85 -9.35 -13.9 -8.9 -13.95 Q-8.65 -14.05 -8.7 -14.45" fill="#a1772f" fill-opacity="0.8509804" fill-rule="evenodd" stroke="none"/>
      <path d="M-10.65 -13.7 L-10.7 -13.15 -10.85 -13.5 -11.2 -13.8 -11.05 -13.7 -10.65 -13.7" fill="#a1772f" fill-opacity="0.8509804" fill-rule="evenodd" stroke="none"/>
      <path d="M-6.55 -25.55 L-7.45 -24.15 -8.85 -20.75 Q-9.95 -16.25 -9.95 -13.95 L-9.45 -8.6 -10.2 -9.7 -10.55 -14.45 -10.75 -17.9 Q-10.8 -19.75 -10.45 -21.15 -10.15 -22.4 -8.7 -23.9 -7.5 -25.1 -6.55 -25.55" fill="#936925" fill-opacity="0.8509804" fill-rule="evenodd" stroke="none"/>
      <path d="M-8.85 -23.7 L-6.8 -25.45 -8.45 -23.7 -9.65 -21.95 Q-10.25 -20.6 -10.35 -18.65 -10.45 -16.1 -10.0 -11.15 L-9.85 -9.85 -9.65 -8.9 -9.75 -8.4 -10.2 -9.7 -10.55 -14.45 -10.75 -17.9 Q-10.8 -19.75 -10.45 -21.15 -10.2 -22.3 -8.85 -23.7" fill="#e2bc6b" fill-opacity="0.8509804" fill-rule="evenodd" stroke="none"/>
      <path d="M-11.0 -21.75 L-9.7 -21.55 -8.25 -21.05 -7.65 -20.55 -7.65 -20.15 -8.05 -19.9 -8.4 -19.9 -9.7 -20.35 -11.1 -20.85 -11.3 -21.35 -11.0 -21.75" fill="#f0c871" fill-opacity="0.8509804" fill-rule="evenodd" stroke="none"/>
      <path d="M-7.65 -20.15 L-8.05 -19.9 -8.4 -19.9 -9.7 -20.35 -11.1 -20.85 -11.3 -21.25 -10.5 -21.05 -9.85 -21.0 -9.45 -21.15 -8.85 -21.3 -8.75 -21.25 -9.3 -20.5 -8.85 -20.2 -8.25 -20.2 Q-7.75 -20.35 -7.7 -20.7 -7.55 -20.5 -7.65 -20.15" fill="#ab8237" fill-opacity="0.8509804" fill-rule="evenodd" stroke="none"/>
      <path d="M-7.55 -22.55 Q-7.2 -22.55 -7.15 -22.3 -7.05 -22.05 -7.3 -21.85 -7.45 -21.7 -8.1 -21.5 L-9.2 -21.0 -10.3 -20.0 -11.05 -19.15 -11.4 -19.1 -11.6 -19.5 -11.2 -20.4 -10.4 -21.3 -9.0 -22.15 -7.55 -22.55" fill="#f5de9e" fill-opacity="0.8509804" fill-rule="evenodd" stroke="none"/>
      <path d="M-7.55 -22.45 Q-7.2 -22.5 -7.15 -22.3 -7.05 -22.05 -7.3 -21.85 -7.45 -21.7 -8.1 -21.5 L-9.2 -21.0 -10.3 -20.0 -11.05 -19.15 -11.4 -19.1 -11.6 -19.5 -11.05 -20.4 -10.1 -21.35 -8.75 -22.05 -7.55 -22.45" fill="#f0c871" fill-opacity="0.8509804" fill-rule="evenodd" stroke="none"/>
      <path d="M-7.3 -21.85 Q-7.45 -21.7 -8.1 -21.5 L-9.2 -21.0 -10.3 -20.0 -11.05 -19.15 -11.3 -19.05 -11.6 -19.3 Q-11.4 -19.1 -11.15 -19.45 L-9.55 -21.1 -8.4 -21.65 Q-7.6 -21.95 -7.5 -22.05 L-7.25 -22.25 -7.3 -22.45 -7.1 -22.2 -7.3 -21.85" fill="#ab8237" fill-opacity="0.8509804" fill-rule="evenodd" stroke="none"/>
      <path d="M-9.15 -14.65 L-8.85 -14.55 Q-8.7 -14.4 -8.85 -14.2 L-9.65 -13.9 -10.85 -13.8 Q-11.45 -13.85 -11.55 -14.2 -11.7 -14.5 -11.4 -14.6 L-10.4 -14.65 -9.15 -14.65" fill="#f0c871" fill-opacity="0.8509804" fill-rule="evenodd" stroke="none"/>
      <path d="M-10.6 -14.0 L-9.5 -14.15 Q-9.15 -14.3 -9.15 -14.65 L-8.85 -14.55 Q-8.7 -14.4 -8.85 -14.2 L-9.65 -13.9 -10.85 -13.8 Q-11.4 -13.85 -11.55 -14.15 -11.3 -13.9 -10.6 -14.0" fill="#ab8237" fill-opacity="0.8509804" fill-rule="evenodd" stroke="none"/>
    </g>
    <g id="sprite26" transform="matrix(1.0, 0.0, 0.0, 1.0, 0.0, 0.0)">
      <use height="32.25" transform="matrix(1.0, 0.0, 0.0, 1.0, 0.0, 0.0)" width="68.45" xlink:href="#shape44"/>
    </g>
    <g id="shape44" transform="matrix(1.0, 0.0, 0.0, 1.0, 0.0, 0.0)">
      <path d="M61.25 18.25 L63.8 16.6 Q61.95 19.55 60.1 20.7 L57.95 22.05 60.15 21.35 63.35 20.15 63.45 20.1 64.4 19.6 62.85 20.8 64.2 20.5 66.8 19.6 68.45 18.75 64.15 21.6 Q58.0 24.9 51.25 27.55 44.2 30.3 35.2 31.45 L19.55 32.05 5.35 30.5 0.95 30.25 0.0 29.4 5.3 29.75 9.6 29.35 6.1 28.2 4.15 27.15 Q6.6 28.15 8.9 28.05 L11.6 27.9 9.2 26.85 11.3 26.95 13.4 26.75 8.45 25.4 7.15 24.8 8.75 25.0 11.05 25.15 12.0 25.05 Q10.85 24.55 9.6 23.7 7.0 22.0 6.25 20.25 4.45 17.6 4.2 16.45 3.8 14.45 7.6 13.1 13.6 11.0 51.75 0.0 55.35 6.9 55.4 10.3 55.4 13.7 54.7 15.2 L56.2 13.6 Q55.5 15.9 53.9 18.2 L50.45 22.75 51.6 22.45 54.8 20.6 58.85 17.6 56.7 20.25 58.25 19.7 61.25 18.25" fill="#402903" fill-rule="evenodd" stroke="none"/>
    </g>
    <g id="sprite27" transform="matrix(1.0, 0.0, 0.0, 1.0, 0.0, 0.0)">
      <use height="101.6" transform="matrix(1.0, 0.0, 0.0, 1.0, 0.0, 0.0)" width="119.8" xlink:href="#shape45"/>
    </g>
    <g id="shape45" transform="matrix(1.0, 0.0, 0.0, 1.0, 0.0, 0.0)">
      <path d="M91.4 77.5 L90.75 78.6 Q92.75 76.6 93.3 75.5 93.8 74.45 92.65 74.15 L91.4 77.5 M93.6 83.2 L92.6 83.45 94.0 83.25 96.0 82.75 Q96.85 82.25 96.25 81.15 94.6 83.0 93.6 83.2 M100.7 76.6 L99.7 78.0 100.95 77.55 Q102.45 77.0 103.4 76.35 105.0 75.3 105.9 73.8 L103.9 74.7 Q101.35 75.9 100.7 76.6 M96.35 71.45 L96.4 70.05 95.9 70.25 94.1 76.2 Q95.25 75.85 95.85 74.1 L96.35 71.45 M98.7 73.85 L98.1 73.15 Q97.75 75.35 96.85 76.45 L95.9 77.6 Q97.95 77.15 98.7 75.65 99.15 74.7 98.7 73.85 M100.5 65.8 L99.8 66.25 Q99.05 66.9 98.9 67.75 98.6 69.2 98.8 70.85 L100.5 65.8 M105.0 65.75 L104.95 63.85 103.15 66.85 Q102.5 67.4 102.25 69.1 L101.95 71.85 101.65 73.95 103.25 72.55 Q104.85 70.85 104.95 69.4 L105.0 65.75 M108.8 66.2 L108.65 63.4 108.05 61.0 106.65 63.85 107.05 65.45 Q107.4 67.35 107.2 68.55 L106.8 71.05 107.85 69.7 Q108.85 68.0 108.8 66.2 M101.95 51.15 L101.8 54.85 Q101.5 57.1 101.6 58.35 103.25 56.55 103.55 54.2 103.75 52.75 102.85 50.75 L101.9 49.1 101.95 51.15 M104.95 54.05 L105.05 54.95 Q105.05 56.15 104.4 57.75 103.35 60.25 103.4 62.2 L104.55 61.5 Q105.75 60.4 106.15 58.6 106.55 56.8 105.8 55.25 L104.95 54.05 M106.8 51.35 Q107.05 53.4 107.4 53.85 L107.95 54.55 108.45 53.55 Q108.75 52.35 108.05 51.45 L106.6 49.45 106.8 51.35 M112.55 56.7 L112.0 55.05 111.55 54.25 111.35 55.7 111.25 57.85 111.3 58.9 Q112.65 57.85 112.55 56.7 M102.6 41.05 L102.55 41.85 102.6 43.9 Q102.75 45.55 103.65 48.2 L104.65 51.0 104.75 47.8 Q104.7 46.25 103.65 43.5 L102.6 41.05 M106.7 41.2 L107.55 41.75 Q106.2 38.55 105.4 37.95 L105.75 39.35 Q106.2 40.85 106.7 41.2 M99.75 43.05 Q99.5 44.65 99.55 45.85 99.6 47.8 100.15 49.8 100.65 46.8 100.45 44.5 L100.15 42.25 99.95 41.7 99.75 43.05 M100.95 33.3 L100.5 32.5 100.7 34.4 Q100.95 36.4 101.15 36.95 101.5 37.8 102.2 38.15 102.6 36.95 101.9 35.3 L100.95 33.3 M97.0 34.7 L97.5 36.35 98.1 37.35 Q97.9 35.2 96.9 33.75 L97.0 34.7 M96.9 12.05 L93.15 10.6 Q99.6 15.0 105.65 25.1 111.5 34.8 114.65 45.7 L116.65 49.95 Q119.55 56.55 119.8 58.85 L118.55 56.65 118.25 59.25 Q118.0 61.85 116.95 64.55 L117.0 63.85 Q116.15 71.8 109.0 79.2 L109.05 79.2 Q109.85 79.65 112.8 78.35 111.4 79.75 108.0 82.15 105.9 83.6 105.55 84.3 L105.65 84.65 101.15 86.1 97.55 88.75 93.45 91.7 93.7 90.3 Q86.85 94.0 79.5 96.9 72.45 99.65 63.45 100.8 L47.8 101.4 33.6 99.85 29.2 99.6 Q28.3 98.45 26.5 97.95 17.75 95.3 12.85 92.75 9.35 90.85 4.25 86.45 L4.2 86.4 Q1.55 84.0 0.5 81.15 L0.0 78.75 1.5 80.9 Q3.0 83.1 6.1 86.15 L5.3 82.9 8.05 84.65 Q11.55 86.75 15.6 88.65 19.9 90.65 23.55 91.5 L31.2 92.85 Q34.85 93.45 35.15 92.2 35.35 91.5 34.2 88.85 33.05 86.3 33.45 85.1 34.05 83.25 38.05 83.05 40.0 82.95 54.05 85.7 66.05 88.05 69.8 86.2 73.55 84.35 73.7 75.6 L73.65 69.8 Q73.65 67.15 74.3 66.95 78.75 65.6 83.45 72.5 85.75 75.95 87.2 79.65 L90.15 75.0 91.2 72.35 Q91.85 70.65 92.25 70.0 L92.5 69.65 92.65 71.45 96.05 66.75 Q97.45 65.05 97.75 62.45 L100.1 62.75 99.1 60.25 Q98.5 58.7 98.6 55.25 L98.85 52.05 97.75 54.45 Q97.95 50.85 97.45 45.55 97.15 42.2 95.9 39.9 L94.7 38.3 95.95 37.95 94.4 35.0 93.2 32.5 93.15 32.25 94.85 31.6 94.15 29.1 92.5 24.75 91.45 22.35 88.9 19.75 90.5 20.65 Q92.15 21.55 94.15 23.65 L93.8 22.9 91.4 19.0 94.6 21.5 92.35 18.5 89.15 14.9 91.0 15.7 Q93.05 16.7 93.85 17.55 L95.1 19.0 93.7 15.95 Q91.85 12.55 89.75 10.8 L86.4 8.0 88.5 8.85 Q90.75 9.8 91.65 10.45 L93.05 11.45 Q86.35 5.9 82.7 3.9 L79.05 1.95 80.4 2.0 78.05 0.0 82.25 1.55 Q85.2 2.6 87.1 3.7 L84.2 3.45 85.85 4.3 89.15 6.35 96.9 12.05" fill="#402903" fill-rule="evenodd" stroke="none"/>
    </g>
    <g id="sprite28" transform="matrix(1.0, 0.0, 0.0, 1.0, 0.0, -0.05)">
      <use height="23.8" transform="matrix(1.0, 0.0, 0.0, 1.0, 0.0, 0.05)" width="21.05" xlink:href="#shape46"/>
    </g>
    <g id="shape46" transform="matrix(1.0, 0.0, 0.0, 1.0, 0.0, -0.05)">
      <path d="M10.8 1.95 Q12.7 0.25 14.05 0.05 15.5 -0.15 16.0 2.0 16.45 4.15 15.55 5.25 L13.5 7.7 Q12.25 9.35 11.85 11.05 11.45 12.7 12.4 13.3 L15.3 15.05 18.1 16.45 Q19.35 17.05 20.6 19.35 21.65 21.25 20.15 22.35 18.8 23.35 16.7 22.9 15.05 22.6 11.7 19.25 10.65 18.2 9.3 18.1 7.85 17.95 7.0 19.1 6.65 19.6 6.15 21.35 5.5 23.0 4.0 23.7 2.45 24.4 1.05 22.2 L0.0 19.8 Q-0.05 17.75 5.8 8.45 4.35 7.4 3.0 5.85 1.3 3.95 0.7 2.25 0.4 1.35 1.15 0.95 2.05 0.5 3.65 2.0 L7.7 5.5 Q9.15 3.45 10.8 1.95" fill="#6c4822" fill-rule="evenodd" stroke="none"/>
    </g>
    <g id="shape47" transform="matrix(1.0, 0.0, 0.0, 1.0, 14.35, 10.05)">
      <path d="M-13.7 -9.7 L-12.75 -8.6 -11.0 -6.75 -9.3 -5.6 -8.55 -4.95 -8.5 -4.05 Q-8.65 -3.5 -9.3 -3.55 -9.95 -3.6 -11.0 -4.45 L-12.65 -6.05 Q-13.55 -7.15 -14.1 -8.4 -14.75 -9.9 -13.7 -9.7" fill="#6c4822" fill-opacity="0.8509804" fill-rule="evenodd" stroke="none"/>
      <path d="M-14.15 -9.65 L-13.9 -8.8 -13.5 -8.1 Q-13.25 -7.7 -13.1 -7.85 L-12.6 -8.35 -11.35 -7.0 -11.5 -6.0 Q-11.4 -5.35 -10.9 -4.9 -9.5 -3.7 -9.0 -4.1 -8.55 -4.5 -8.7 -5.15 L-8.55 -4.95 -8.5 -4.05 Q-8.65 -3.5 -9.3 -3.55 -9.95 -3.6 -11.0 -4.45 L-12.65 -6.05 -13.95 -8.05 Q-14.65 -9.4 -14.15 -9.65" fill="#593b1d" fill-opacity="0.8509804" fill-rule="evenodd" stroke="none"/>
      <path d="M-10.75 -7.8 L-12.4 -5.3 -12.95 -3.9 Q-13.2 -3.4 -13.55 -3.5 L-14.1 -4.05 -13.95 -5.65 Q-13.55 -6.95 -12.3 -8.45 -10.95 -10.1 -10.15 -10.05 -9.7 -10.05 -9.6 -9.65 -9.5 -9.2 -9.75 -8.85 L-10.75 -7.8" fill="#6c4822" fill-opacity="0.8509804" fill-rule="evenodd" stroke="none"/>
      <path d="M-9.75 -8.85 L-10.75 -7.8 -12.4 -5.3 -12.95 -3.9 Q-13.2 -3.4 -13.55 -3.5 -14.05 -3.55 -14.15 -4.3 L-13.5 -4.2 -13.05 -5.15 -12.45 -6.5 -11.3 -7.9 -10.3 -9.05 Q-9.8 -9.7 -10.1 -10.05 -9.7 -10.05 -9.6 -9.6 -9.5 -9.2 -9.75 -8.85" fill="#593b1d" fill-opacity="0.8509804" fill-rule="evenodd" stroke="none"/>
    </g>
    <g id="sprite29" transform="matrix(1.0, 0.0, 0.0, 1.0, 0.0, 0.0)">
      <use height="25.85" transform="matrix(1.0, 0.0, 0.0, 1.0, 0.0, 0.0)" width="19.45" xlink:href="#shape48"/>
    </g>
    <g id="shape48" transform="matrix(1.0, 0.0, 0.0, 1.0, 0.0, 0.0)">
      <path d="M11.75 0.0 Q14.5 0.2 16.45 2.85 18.15 5.15 19.05 9.05 19.75 12.1 19.25 14.85 L18.55 17.05 18.5 16.3 Q18.3 17.5 17.1 20.15 15.95 22.6 14.8 23.45 L14.2 23.75 14.8 23.75 Q13.4 25.2 11.55 25.65 L8.75 25.75 Q7.25 25.45 5.1 24.25 3.05 23.15 1.5 20.8 0.25 18.9 0.05 17.45 -0.45 13.2 4.2 6.45 8.8 -0.25 11.75 0.0" fill="#402903" fill-rule="evenodd" stroke="none"/>
    </g>
    <g id="shape49" transform="matrix(1.0, 0.0, 0.0, 1.0, 8.9, 12.0)">
      <path d="M10.2 -8.25 Q10.25 -6.7 9.3 -5.6 8.4 -4.5 7.05 -4.5 5.75 -4.5 4.8 -5.6 3.85 -6.7 3.85 -8.25 3.85 -9.75 4.8 -10.9 5.75 -12.0 7.05 -12.0 8.35 -12.0 9.3 -10.9 10.2 -9.8 10.2 -8.25" fill="url(#gradient17)" fill-rule="evenodd" stroke="none"/>
      <path d="M8.85 -11.2 L7.8 -7.65 6.55 -6.3 Q5.35 -5.25 4.85 -6.2 4.25 -7.3 4.4 -8.65 4.55 -10.05 5.45 -10.95 6.1 -11.6 7.2 -11.7 8.3 -11.75 8.85 -11.2" fill="url(#gradient18)" fill-rule="evenodd" stroke="none"/>
      <path d="M6.35 -10.3 L5.15 -9.5 Q4.55 -9.15 4.55 -9.65 L5.05 -10.6 6.0 -11.15 Q6.4 -11.1 6.35 -10.3" fill="#f7e3de" fill-opacity="0.8509804" fill-rule="evenodd" stroke="none"/>
      <path d="M7.7 -11.6 Q8.45 -11.55 9.1 -11.05 10.2 -9.95 10.2 -8.25 10.25 -6.7 9.3 -5.6 8.4 -4.5 7.05 -4.5 L6.2 -4.65 Q5.4 -5.1 4.95 -6.05 4.5 -7.0 4.55 -8.1 4.65 -9.6 5.55 -10.65 6.5 -11.7 7.7 -11.6" fill="url(#gradient19)" fill-rule="evenodd" stroke="none"/>
      <path d="M4.65 -8.6 L4.5 -8.2 Q4.4 -8.15 4.4 -8.4 4.35 -8.85 4.55 -8.9 L4.65 -8.6" fill="#f7e3de" fill-opacity="0.8509804" fill-rule="evenodd" stroke="none"/>
      <path d="M6.15 -8.65 L6.3 -8.55 6.6 -8.5 6.9 -8.6 7.6 -8.4 8.3 -8.2 8.85 -8.6 9.05 -8.55 9.3 -8.6 9.45 -8.8 Q9.6 -8.55 9.35 -8.35 L8.8 -7.75 8.8 -7.3 8.8 -6.9 Q8.55 -6.55 8.7 -6.05 L9.0 -5.8 9.25 -5.8 8.65 -5.7 8.3 -6.05 8.1 -6.3 7.35 -5.8 Q6.9 -5.45 6.6 -5.4 L6.3 -5.4 6.2 -5.45 Q6.8 -5.5 6.85 -5.9 L6.9 -6.3 6.9 -6.55 7.15 -6.9 7.55 -7.35 7.4 -7.75 7.0 -8.15 6.75 -8.25 6.4 -8.4 6.2 -8.55 6.15 -8.65" fill="#a66f5d" fill-opacity="0.8509804" fill-rule="evenodd" stroke="none"/>
      <path d="M6.15 -10.2 L6.4 -10.1 6.0 -9.9 5.85 -9.55 5.85 -9.35 Q5.75 -9.55 5.8 -9.8 L6.0 -10.05 6.15 -10.2" fill="#f7e3de" fill-opacity="0.8509804" fill-rule="evenodd" stroke="none"/>
      <path d="M8.55 -9.5 L8.6 -9.65 8.75 -9.9 9.05 -9.9 8.85 -9.8 8.65 -9.65 8.55 -9.5" fill="#f7e3de" fill-opacity="0.8509804" fill-rule="evenodd" stroke="none"/>
      <path d="M6.2 -7.1 L6.05 -7.0 5.75 -6.75 5.75 -6.3 Q5.55 -6.45 5.65 -6.8 L5.95 -7.1 6.2 -7.1" fill="#f7e3de" fill-opacity="0.8509804" fill-rule="evenodd" stroke="none"/>
      <path d="M7.15 -9.35 L7.0 -8.85 6.6 -8.65 Q6.4 -8.65 6.2 -8.8 L6.05 -9.3 6.15 -9.8 6.55 -10.0 6.95 -9.85 7.15 -9.35" fill="#5e3c33" fill-opacity="0.8509804" fill-rule="evenodd" stroke="none"/>
      <path d="M6.7 -6.75 L6.85 -6.3 6.7 -5.85 Q6.55 -5.7 6.35 -5.7 6.15 -5.7 6.05 -5.85 L5.9 -6.3 6.05 -6.75 Q6.2 -6.95 6.35 -6.95 L6.7 -6.75" fill="#5e3c33" fill-opacity="0.8509804" fill-rule="evenodd" stroke="none"/>
      <path d="M9.45 -9.1 L9.35 -8.75 9.1 -8.6 8.85 -8.8 8.75 -9.15 8.9 -9.5 9.15 -9.65 9.35 -9.5 9.45 -9.1" fill="#5e3c33" fill-opacity="0.8509804" fill-rule="evenodd" stroke="none"/>
      <path d="M9.35 -6.8 L9.4 -6.4 9.3 -6.05 9.05 -5.9 8.8 -6.1 8.75 -6.45 8.85 -6.8 9.1 -6.95 9.35 -6.8" fill="#5e3c33" fill-opacity="0.8509804" fill-rule="evenodd" stroke="none"/>
      <path d="M8.85 -9.5 Q9.55 -9.7 9.3 -8.85 L8.6 -7.55 7.7 -6.5 Q7.15 -5.95 6.7 -5.85 6.3 -5.75 6.15 -6.05 L6.05 -6.5 Q6.1 -6.6 6.5 -6.9 L7.45 -7.7 8.4 -8.8 8.85 -9.5" fill="#925e4f" fill-opacity="0.8509804" fill-rule="evenodd" stroke="none"/>
      <path d="M8.7 -8.45 L8.95 -8.65 9.1 -9.05 9.15 -9.5 Q9.5 -9.45 9.2 -8.65 L8.6 -7.55 7.7 -6.5 Q7.15 -5.95 6.7 -5.85 6.3 -5.75 6.15 -6.05 L6.05 -6.5 6.15 -6.6 Q6.1 -6.3 6.45 -6.15 6.85 -5.95 7.6 -6.75 L7.85 -7.35 7.65 -7.85 8.3 -8.7 8.7 -8.45" fill="#7a493b" fill-opacity="0.8509804" fill-rule="evenodd" stroke="none"/>
      <path d="M6.45 -9.8 Q6.95 -9.95 7.85 -9.1 L9.1 -7.55 9.4 -6.6 9.15 -6.15 Q8.95 -6.05 8.7 -6.4 L8.2 -7.25 7.1 -8.4 6.35 -8.95 Q6.15 -9.15 6.2 -9.45 L6.45 -9.8" fill="#925e4f" fill-opacity="0.8509804" fill-rule="evenodd" stroke="none"/>
      <path d="M6.55 -9.8 Q6.3 -9.6 6.45 -9.3 L7.05 -8.7 7.85 -7.95 8.55 -7.05 9.1 -6.65 Q9.4 -6.65 9.3 -7.15 L9.35 -6.45 9.15 -6.15 Q8.95 -6.05 8.7 -6.4 L8.2 -7.25 7.1 -8.4 6.35 -8.95 Q6.15 -9.15 6.2 -9.45 L6.45 -9.8 6.55 -9.8" fill="#7a493b" fill-opacity="0.8509804" fill-rule="evenodd" stroke="none"/>
      <path d="M3.55 -6.45 L2.8 -6.35 3.55 -6.15 5.15 -5.0 Q5.85 -4.2 6.1 -2.9 L6.2 -1.15 Q6.2 -0.4 5.75 0.4 L5.75 -0.25 5.4 0.25 Q4.8 1.2 2.85 2.75 L1.65 3.65 1.7 3.15 Q0.8 3.65 -0.15 3.75 L-1.45 3.8 -1.95 3.75 -1.8 4.0 -3.6 3.65 -5.15 3.25 -6.9 2.5 -8.15 1.5 -8.4 1.15 -8.6 0.8 -8.9 -1.15 Q-9.0 -2.45 -8.45 -3.4 L-7.9 -4.1 -8.4 -4.1 -7.85 -4.5 -6.15 -5.6 Q-5.2 -6.15 -4.2 -6.3 L-3.4 -6.35 -4.05 -6.6 -3.35 -6.6 -2.0 -6.9 -0.5 -7.2 -1.1 -6.9 -0.15 -6.85 1.6 -6.8 3.55 -6.45" fill="url(#gradient20)" fill-rule="evenodd" stroke="none"/>
      <path d="M3.65 -1.35 L3.7 -1.5 4.0 -2.2 4.05 -1.7 3.95 -0.85 3.8 -0.4 4.25 -0.85 Q4.7 -1.3 4.95 -2.05 L4.9 -1.7 4.75 -0.85 5.25 -1.8 Q5.65 -2.5 5.65 -3.1 L5.65 -2.85 5.65 -1.75 5.85 -2.45 5.95 -3.55 6.2 -1.15 Q6.2 -0.4 5.75 0.4 L5.75 -0.25 5.4 0.25 Q4.8 1.2 2.85 2.75 L1.65 3.65 1.7 3.15 Q0.8 3.65 -0.15 3.75 L-1.45 3.8 -1.95 3.75 -1.8 4.0 -3.6 3.65 -5.15 3.25 -6.9 2.5 -8.15 1.5 -8.4 1.15 -8.55 0.85 -7.55 1.6 -7.6 1.55 -7.8 1.15 -7.45 1.45 -6.35 2.1 -7.05 1.3 -6.35 1.75 -4.95 2.3 -5.3 2.15 -5.85 1.8 -6.15 1.55 -5.85 1.75 -4.9 2.1 -3.5 2.35 -2.65 2.4 -3.25 2.25 -4.2 1.85 -4.7 1.55 -4.6 1.6 -3.95 1.7 -1.95 1.8 -3.4 1.6 Q-4.3 1.5 -5.0 1.05 L-5.55 0.6 -4.8 0.9 -3.35 1.15 -4.15 0.95 -5.0 0.45 -5.3 0.1 -4.95 0.35 -4.3 0.6 -3.8 0.65 -4.3 0.0 -5.15 -1.15 -1.5 -2.3 Q2.3 -3.4 2.7 -3.05 3.2 -2.7 2.9 -1.9 L3.2 -2.65 3.15 -2.1 2.85 -1.05 3.25 -1.75 Q3.6 -2.4 3.55 -3.0 L3.65 -2.25 3.65 -1.35" fill="#8b7c46" fill-opacity="0.8509804" fill-rule="evenodd" stroke="none"/>
      <path d="M-1.65 -5.5 L-1.9 -5.5 -2.55 -5.45 -2.4 -5.45 -1.9 -5.35 -2.8 -5.3 -3.45 -5.2 -3.65 -5.15 -3.55 -5.2 -3.15 -5.05 -3.7 -4.95 -4.55 -4.75 -4.95 -4.6 -4.85 -4.75 -4.6 -4.9 -5.15 -4.85 -5.6 -4.65 -5.75 -4.5 -5.5 -4.8 -5.8 -4.8 -6.3 -4.6 -6.6 -4.4 -6.4 -4.65 -6.05 -5.05 -5.8 -5.2 -6.0 -5.15 -6.4 -5.0 -6.65 -4.9 -6.5 -5.05 -6.1 -5.35 -5.8 -5.55 -5.15 -5.85 -5.25 -5.95 -4.9 -6.0 -4.15 -6.1 Q-3.9 -6.15 -3.6 -6.35 L-4.0 -6.0 -3.75 -6.05 -2.95 -6.3 -3.2 -6.15 -3.65 -5.95 -2.95 -6.0 -2.2 -5.8 -3.05 -5.75 -2.2 -5.65 -1.65 -5.5" fill="#f5dc9b" fill-opacity="0.8509804" fill-rule="evenodd" stroke="none"/>
      <path d="M-6.2 -4.55 L-5.85 -4.45 -6.2 -4.25 -6.75 -3.85 -7.0 -3.5 -6.8 -3.95 -6.2 -4.55" fill="#f5dc9b" fill-opacity="0.8509804" fill-rule="evenodd" stroke="none"/>
      <path d="M-7.15 -4.5 L-7.3 -4.25 -7.7 -3.85 -7.65 -4.0 -7.15 -4.5" fill="#f5dc9b" fill-opacity="0.8509804" fill-rule="evenodd" stroke="none"/>
      <path d="M-7.2 -4.05 Q-7.0 -4.0 -7.15 -3.85 L-7.55 -3.35 -7.5 -3.65 -7.3 -3.95 -7.2 -4.05" fill="#f5dc9b" fill-opacity="0.8509804" fill-rule="evenodd" stroke="none"/>
      <path d="M-5.6 -4.2 L-5.35 -4.3 -5.15 -4.3 -5.55 -4.05 -6.3 -3.65 -6.15 -3.85 -5.6 -4.2" fill="#f5dc9b" fill-opacity="0.8509804" fill-rule="evenodd" stroke="none"/>
      <path d="M-5.8 -3.8 L-5.3 -3.85 -5.8 -3.45 -6.15 -3.05 -6.35 -2.75 -6.2 -3.25 -5.95 -3.7 -5.8 -3.8" fill="#f5dc9b" fill-opacity="0.8509804" fill-rule="evenodd" stroke="none"/>
      <path d="M-6.8 -3.4 Q-6.5 -3.45 -6.65 -3.3 L-6.95 -3.0 -7.2 -2.8 -7.1 -3.0 -6.8 -3.4" fill="#f5dc9b" fill-opacity="0.8509804" fill-rule="evenodd" stroke="none"/>
      <path d="M-7.45 -3.25 Q-7.25 -3.2 -7.45 -3.0 L-7.75 -2.55 -7.7 -2.8 -7.55 -3.1 -7.45 -3.25" fill="#f5dc9b" fill-opacity="0.8509804" fill-rule="evenodd" stroke="none"/>
      <path d="M-7.9 -3.65 L-7.75 -3.6 -7.8 -3.4 -8.0 -3.05 -8.05 -3.25 -7.95 -3.55 -7.9 -3.65" fill="#f5dc9b" fill-opacity="0.8509804" fill-rule="evenodd" stroke="none"/>
      <path d="M-2.25 -0.25 L-2.1 -0.2 -1.9 0.6 -1.75 1.55 -1.7 2.45 -1.9 2.25 -2.2 1.45 -2.4 0.6 -2.4 -0.1 -2.25 -0.25" fill="#654718" fill-opacity="0.8509804" fill-rule="evenodd" stroke="none"/>
      <path d="M-6.25 1.45 L-5.85 1.7 -5.05 1.95 -3.05 2.25 -1.85 2.1 -1.7 2.5 -1.85 2.55 -2.4 2.55 -5.15 2.1 -6.0 1.65 -6.25 1.45" fill="#654718" fill-opacity="0.8509804" fill-rule="evenodd" stroke="none"/>
      <path d="M2.4 0.65 L1.55 1.45 0.1 2.1 -1.1 2.45 -1.6 2.5 -1.75 2.5 -1.75 2.3 -1.7 2.1 -0.45 2.0 1.25 1.45 2.4 0.65" fill="#654718" fill-opacity="0.8509804" fill-rule="evenodd" stroke="none"/>
      <path d="M-2.1 -0.2 L-2.45 -0.15 -2.45 -0.2 -4.6 -0.6 Q-6.9 -1.55 -6.25 -2.9 -5.9 -3.8 -4.45 -4.2 L-2.75 -4.45 Q0.25 -4.7 1.1 -3.45 1.95 -2.2 0.0 -0.95 -0.95 -0.4 -2.1 -0.2" fill="#efdba7" fill-opacity="0.8509804" fill-rule="evenodd" stroke="none"/>
      <path d="M-2.1 -0.55 L-2.5 -0.5 -2.5 -0.55 -4.65 -0.95 Q-6.9 -1.9 -6.3 -3.3 -5.95 -4.15 -4.45 -4.55 L-2.8 -4.8 Q0.2 -5.05 1.05 -3.85 1.95 -2.55 -0.05 -1.3 -0.95 -0.75 -2.1 -0.55" fill="url(#gradient21)" fill-rule="evenodd" stroke="none"/>
      <path d="M-2.35 -3.6 L-2.65 -3.3 -3.4 -3.1 -4.2 -3.15 Q-4.55 -3.2 -4.6 -3.35 L-4.3 -3.7 -3.55 -3.9 -2.75 -3.85 -2.35 -3.6" fill="#c8a167" fill-opacity="0.8509804" fill-rule="evenodd" stroke="none"/>
    </g>
    <radialGradient cx="0" cy="0" gradientTransform="matrix(0.0038, 0.0082, 0.0082, -0.0038, 5.7, -11.6)" gradientUnits="userSpaceOnUse" id="gradient17" r="819.2" spreadMethod="pad">
      <stop offset="0.0" stop-color="#eaaf9f" stop-opacity="0.8509804"/>
      <stop offset="1.0" stop-color="#b27d71" stop-opacity="0.8509804"/>
    </radialGradient>
    <radialGradient cx="0" cy="0" gradientTransform="matrix(0.0029, 0.0062, 0.0062, -0.0029, 5.65, -11.35)" gradientUnits="userSpaceOnUse" id="gradient18" r="819.2" spreadMethod="pad">
      <stop offset="0.0" stop-color="#eaaf9f" stop-opacity="0.8509804"/>
      <stop offset="1.0" stop-color="#e9baae" stop-opacity="0.8509804"/>
    </radialGradient>
    <radialGradient cx="0" cy="0" gradientTransform="matrix(0.0035, 0.0076, 0.0076, -0.0035, 6.15, -11.25)" gradientUnits="userSpaceOnUse" id="gradient19" r="819.2" spreadMethod="pad">
      <stop offset="0.0" stop-color="#d9a092" stop-opacity="0.8509804"/>
      <stop offset="1.0" stop-color="#ad786a" stop-opacity="0.8509804"/>
    </radialGradient>
    <radialGradient cx="0" cy="0" gradientTransform="matrix(0.005, 0.0112, 0.0103, -0.0053, -3.1, -5.2)" gradientUnits="userSpaceOnUse" id="gradient20" r="819.2" spreadMethod="pad">
      <stop offset="0.0" stop-color="#f5dd9e" stop-opacity="0.8509804"/>
      <stop offset="1.0" stop-color="#9f884b" stop-opacity="0.8509804"/>
    </radialGradient>
    <radialGradient cx="0" cy="0" gradientTransform="matrix(0.0052, -4.0E-4, -3.0E-4, -0.0031, -2.65, -3.35)" gradientUnits="userSpaceOnUse" id="gradient21" r="819.2" spreadMethod="pad">
      <stop offset="0.0" stop-color="#74501a" stop-opacity="0.8509804"/>
      <stop offset="0.7137254901960784" stop-color="#3c290d" stop-opacity="0.8509804"/>
      <stop offset="1.0" stop-color="#583c14" stop-opacity="0.8509804"/>
    </radialGradient>
    <g id="shape50" transform="matrix(1.0, 0.0, 0.0, 1.0, 0.05, 0.0)">
      <path d="M299.95 300.0 L-0.05 300.0 -0.05 0.0 299.95 0.0 299.95 300.0" fill="#ffffff" fill-opacity="0.0" fill-rule="evenodd" stroke="none"/>
    </g>
  </defs>
</svg>
