<?xml version="1.0" encoding="UTF-8" standalone="no"?>
<svg xmlns:xlink="http://www.w3.org/1999/xlink" height="41.1px" width="42.85px" xmlns="http://www.w3.org/2000/svg">
  <g transform="matrix(1.0, 0.0, 0.0, 1.0, 0.0, 0.0)">
    <use height="25.75" transform="matrix(1.0, 0.0, 0.0, 1.0, 19.5, 10.9)" width="18.35" xlink:href="#shape0"/>
    <use height="2.15" transform="matrix(0.8, 0.0, 0.0, 0.8, 28.36, 16.41)" width="2.85" xlink:href="#sprite0"/>
    <use height="1.85" transform="matrix(0.8, 0.0, 0.0, 0.8, 24.51, 18.01)" width="1.7" xlink:href="#sprite1"/>
    <use height="1.45" transform="matrix(0.8, 0.0, 0.0, 0.8, 25.55, 34.21)" width="2.15" xlink:href="#sprite2"/>
    <use height="2.45" transform="matrix(0.8, 0.0, 0.0, 0.8, 32.76, 30.25)" width="1.9" xlink:href="#sprite3"/>
    <use height="1.65" transform="matrix(0.8, 0.0, 0.0, 0.8, 34.0, 26.91)" width="2.4" xlink:href="#sprite4"/>
    <use height="2.3" transform="matrix(0.8, 0.0, 0.0, 0.8, 34.5, 19.55)" width="1.65" xlink:href="#sprite5"/>
    <use height="13.95" transform="matrix(1.0, 0.0, 0.0, 1.0, 20.55, 19.25)" width="11.8" xlink:href="#shape5"/>
    <use height="29.8" transform="matrix(0.8, 0.0, 0.0, 0.8, 21.2, 11.15)" width="5.0" xlink:href="#sprite6"/>
    <use height="29.8" transform="matrix(0.8, 0.0, 0.0, 0.8, 32.3, 11.15)" width="5.0" xlink:href="#sprite7"/>
    <use height="2.95" transform="matrix(0.8, 0.0, 0.0, 0.8, 22.6, 10.95)" width="15.6" xlink:href="#sprite8"/>
    <use height="6.1" transform="matrix(1.0, 0.0, 0.0, 1.0, 21.8, 6.35)" width="13.85" xlink:href="#shape9"/>
    <use height="1.15" transform="matrix(0.8, 0.0, 0.0, 0.8, 22.8, 11.55)" width="9.0" xlink:href="#sprite9"/>
    <use height="27.15" transform="matrix(1.0, 0.0, 0.0, 1.0, 4.95, 13.95)" width="20.4" xlink:href="#shape11"/>
    <use height="2.95" transform="matrix(0.8, 0.0, 0.0, 0.8, 15.4, 20.55)" width="2.15" xlink:href="#sprite10"/>
    <use height="1.9" transform="matrix(0.8, 0.0, 0.0, 0.8, 9.74, 20.91)" width="1.75" xlink:href="#sprite11"/>
    <use height="1.55" transform="matrix(0.8, 0.0, 0.0, 0.8, 11.95, 38.51)" width="2.3" xlink:href="#sprite12"/>
    <use height="1.65" transform="matrix(0.8, 0.0, 0.0, 0.8, 18.96, 37.11)" width="2.9" xlink:href="#sprite13"/>
    <use height="1.75" transform="matrix(0.8, 0.0, 0.0, 0.8, 20.25, 30.86)" width="2.5" xlink:href="#sprite14"/>
    <use height="2.45" transform="matrix(0.8, 0.0, 0.0, 0.8, 20.71, 23.05)" width="1.8" xlink:href="#sprite15"/>
    <use height="14.65" transform="matrix(1.0, 0.0, 0.0, 1.0, 6.05, 22.75)" width="12.4" xlink:href="#shape14"/>
    <use height="31.5" transform="matrix(0.8, 0.0, 0.0, 0.8, 6.7, 14.2)" width="5.3" xlink:href="#sprite16"/>
    <use height="31.5" transform="matrix(0.8, 0.0, 0.0, 0.8, 18.5, 14.2)" width="5.25" xlink:href="#sprite17"/>
    <use height="3.1" transform="matrix(0.8, 0.0, 0.0, 0.8, 8.2, 13.95)" width="16.5" xlink:href="#sprite18"/>
    <use height="6.45" transform="matrix(1.0, 0.0, 0.0, 1.0, 7.4, 9.15)" width="14.55" xlink:href="#shape18"/>
    <use height="1.2" transform="matrix(0.8, 0.0, 0.0, 0.8, 8.44, 14.6)" width="9.45" xlink:href="#sprite19"/>
    <use height="1.9" transform="matrix(1.0, 0.0, 0.0, 1.0, 7.65, 38.05)" width="3.5" xlink:href="#shape20"/>
  </g>
  <defs>
    <g id="shape0" transform="matrix(1.0, 0.0, 0.0, 1.0, -19.5, -10.9)">
      <path d="M37.5 15.3 Q37.85 16.25 37.85 17.8 L37.6 25.1 37.25 31.6 Q37.1 32.85 36.2 33.95 34.9 35.5 32.5 36.2 L28.65 36.65 24.85 36.2 Q22.45 35.5 21.2 33.95 20.25 32.85 20.15 31.6 L19.8 25.1 19.5 17.8 Q19.5 16.25 19.85 15.3 L20.9 13.7 Q22.25 12.25 23.0 10.9 L28.65 11.2 34.4 10.9 Q34.9 12.05 36.45 13.7 37.25 14.55 37.5 15.3" fill="url(#gradient0)" fill-rule="evenodd" stroke="none"/>
      <path d="M35.9 13.85 L36.9 15.45 Q37.25 16.3 37.25 17.85 L37.0 24.9 36.65 31.25 Q36.55 32.45 35.65 33.55 34.45 35.05 32.2 35.7 L28.65 36.2 25.05 35.7 Q22.8 35.05 21.6 33.55 20.7 32.45 20.6 31.25 L20.25 24.9 20.0 17.85 Q20.0 16.3 20.3 15.45 20.6 14.65 21.35 13.85 22.7 12.3 23.25 11.1 L28.65 11.45 34.0 11.1 Q34.4 12.25 35.9 13.85" fill="url(#gradient1)" fill-rule="evenodd" stroke="none"/>
      <path d="M30.0 14.15 L30.35 14.65 30.3 14.8 29.75 15.05 28.5 15.85 Q27.7 16.45 27.65 17.2 27.65 17.75 27.0 17.55 26.3 17.35 26.4 16.75 26.55 15.75 29.0 14.35 29.6 14.0 30.0 14.15" fill="#d4c169" fill-rule="evenodd" stroke="none"/>
      <path d="M25.85 15.55 L24.3 16.6 Q23.2 17.2 22.9 17.6 L21.8 18.35 Q21.1 18.55 21.25 17.9 21.45 17.25 22.55 16.25 23.65 15.25 24.45 14.95 L25.75 14.85 Q26.3 15.05 25.85 15.55" fill="#e0cc6f" fill-rule="evenodd" stroke="none"/>
      <path d="M24.65 32.65 Q25.85 33.05 25.7 33.45 25.55 33.9 24.4 33.95 23.35 34.0 22.65 32.85 22.05 31.85 22.4 31.25 22.6 30.9 23.25 31.6 L24.65 32.65" fill="#e0cc6f" fill-rule="evenodd" stroke="none"/>
      <path d="M31.55 29.1 Q32.2 29.05 32.65 29.95 33.1 30.85 32.65 30.75 L30.3 30.85 Q29.5 30.9 30.05 30.05 30.55 29.25 31.55 29.1" fill="#c2b05f" fill-rule="evenodd" stroke="none"/>
      <path d="M33.05 20.35 Q33.65 20.6 33.25 20.95 32.8 21.35 32.2 20.95 31.6 20.55 32.05 20.35 32.45 20.15 33.05 20.35" fill="#c2b05f" fill-rule="evenodd" stroke="none"/>
      <path d="M30.85 34.45 Q32.3 34.65 30.8 35.15 L28.95 35.2 Q28.65 34.75 29.3 34.5 L30.85 34.45" fill="#c2b05f" fill-rule="evenodd" stroke="none"/>
      <path d="M33.7 22.6 Q34.9 21.65 35.05 23.6 35.15 25.55 33.95 25.3 32.85 25.1 33.0 24.05 33.05 23.05 33.7 22.6" fill="#a3914d" fill-rule="evenodd" stroke="none"/>
    </g>
    <linearGradient gradientTransform="matrix(0.0112, 0.0, 0.0, -0.0112, 28.65, 23.8)" gradientUnits="userSpaceOnUse" id="gradient0" spreadMethod="pad" x1="-819.2" x2="819.2">
      <stop offset="0.0" stop-color="#fae894"/>
      <stop offset="1.0" stop-color="#705829"/>
    </linearGradient>
    <linearGradient gradientTransform="matrix(0.0105, 0.0, 0.0, -0.0105, 28.65, 23.65)" gradientUnits="userSpaceOnUse" id="gradient1" spreadMethod="pad" x1="-819.2" x2="819.2">
      <stop offset="0.0" stop-color="#e3cf70"/>
      <stop offset="1.0" stop-color="#876a31"/>
    </linearGradient>
    <g id="sprite0" transform="matrix(1.0, 0.0, 0.0, 1.0, 0.05, 0.05)">
      <use height="2.15" transform="matrix(1.0, 0.0, 0.0, 1.0, -0.05, -0.05)" width="2.85" xlink:href="#shape1"/>
    </g>
    <g id="shape1" transform="matrix(1.0, 0.0, 0.0, 1.0, 0.05, 0.05)">
      <path d="M2.2 0.0 Q3.25 0.4 2.5 1.35 1.75 2.3 0.55 2.05 -0.6 1.85 0.4 0.8 1.45 -0.25 2.2 0.0" fill="#735b2c" fill-rule="evenodd" stroke="none"/>
    </g>
    <g id="sprite1" transform="matrix(1.0, 0.0, 0.0, 1.0, 0.05, 0.05)">
      <use height="2.45" transform="matrix(0.9444, 0.0, 0.0, 0.7551, -0.0472, -0.05)" width="1.8" xlink:href="#shape2"/>
    </g>
    <g id="shape2" transform="matrix(1.0, 0.0, 0.0, 1.0, 0.05, 0.0)">
      <path d="M1.0 0.0 Q2.05 0.0 1.6 1.35 1.1 2.7 0.35 2.4 -0.25 2.1 0.1 1.05 0.45 0.0 1.0 0.0" fill="#735b2c" fill-rule="evenodd" stroke="none"/>
    </g>
    <g id="sprite2" transform="matrix(1.0, 0.0, 0.0, 1.0, 0.0, 0.05)">
      <use height="2.45" transform="matrix(1.1944, 0.0, 0.0, 0.5918, -0.0097, -0.05)" width="1.8" xlink:href="#shape2"/>
    </g>
    <g id="sprite3" transform="matrix(1.0, 0.0, 0.0, 1.0, 0.05, 0.0)">
      <use height="2.45" transform="matrix(1.0, 0.0, 0.0, 1.0, -0.05, 0.0)" width="1.9" xlink:href="#shape3"/>
    </g>
    <g id="shape3" transform="matrix(1.0, 0.0, 0.0, 1.0, 0.05, 0.0)">
      <path d="M1.55 0.0 Q2.15 0.1 1.55 1.15 L0.3 2.4 Q-0.35 2.65 0.25 1.25 0.85 -0.15 1.55 0.0" fill="#735b2c" fill-rule="evenodd" stroke="none"/>
    </g>
    <g id="sprite4" transform="matrix(1.0, 0.0, 0.0, 1.0, 0.0, 0.05)">
      <use height="1.75" transform="matrix(0.96, 0.0, 0.0, 0.9412, 0.0, -0.0471)" width="2.5" xlink:href="#shape4"/>
    </g>
    <g id="shape4" transform="matrix(1.0, 0.0, 0.0, 1.0, 0.0, 0.05)">
      <path d="M2.5 0.2 Q2.65 1.4 1.4 1.65 0.15 1.9 0.0 1.2 -0.05 0.65 1.2 0.2 2.4 -0.25 2.5 0.2" fill="#735b2c" fill-rule="evenodd" stroke="none"/>
    </g>
    <g id="sprite5" transform="matrix(1.0, 0.0, 0.0, 1.0, 0.0, 0.0)">
      <use height="2.45" transform="matrix(0.9167, 0.0, 0.0, 0.9388, 0.0042, 0.0)" width="1.8" xlink:href="#shape2"/>
    </g>
    <g id="shape5" transform="matrix(1.0, 0.0, 0.0, 1.0, -20.55, -19.25)">
      <path d="M29.35 22.45 L32.35 22.25 32.05 32.65 25.75 33.05 Q23.5 32.8 22.05 31.9 L21.05 31.05 20.55 21.75 20.85 21.85 22.15 22.1 Q22.6 20.85 23.5 20.05 24.5 19.25 25.65 19.25 26.9 19.25 27.95 20.1 28.95 21.05 29.35 22.45" fill="url(#gradient2)" fill-rule="evenodd" stroke="none"/>
      <path d="M23.75 23.45 Q23.65 23.25 23.2 23.05 L22.8 22.85 23.15 22.8 23.95 22.85 24.8 23.7 24.8 23.45 25.45 22.75 26.1 22.25 25.55 23.3 Q24.75 24.85 27.85 26.55 29.45 27.45 29.25 29.35 29.0 31.4 26.3 31.85 23.7 32.3 23.05 30.05 22.45 27.95 23.45 26.85 24.1 26.15 23.95 25.05 L23.65 24.05 Q23.3 23.85 22.65 24.3 L22.15 24.85 22.65 24.0 Q22.9 23.45 23.45 23.55 L23.95 23.7 23.75 23.45" fill="url(#gradient3)" fill-rule="evenodd" stroke="none"/>
    </g>
    <linearGradient gradientTransform="matrix(0.0072, 0.0, 0.0, -0.0072, 26.45, 26.2)" gradientUnits="userSpaceOnUse" id="gradient2" spreadMethod="pad" x1="-819.2" x2="819.2">
      <stop offset="0.0" stop-color="#6fc22f"/>
      <stop offset="0.18823529411764706" stop-color="#69b92c"/>
      <stop offset="0.4980392156862745" stop-color="#59a025"/>
      <stop offset="0.8862745098039215" stop-color="#3f7819"/>
      <stop offset="1.0" stop-color="#366b15"/>
    </linearGradient>
    <linearGradient gradientTransform="matrix(0.0043, 0.0, 0.0, -0.0043, 25.7, 27.1)" gradientUnits="userSpaceOnUse" id="gradient3" spreadMethod="pad" x1="-819.2" x2="819.2">
      <stop offset="0.0" stop-color="#fff7ad"/>
      <stop offset="0.15294117647058825" stop-color="#f9f0a4"/>
      <stop offset="0.4" stop-color="#e7de8b"/>
      <stop offset="0.7176470588235294" stop-color="#cbc063"/>
      <stop offset="1.0" stop-color="#ada139"/>
    </linearGradient>
    <g id="sprite6" transform="matrix(1.0, 0.0, 0.0, 1.0, 0.0, 0.0)">
      <use height="29.8" transform="matrix(1.0, 0.0, 0.0, 1.0, 0.0, 0.0)" width="5.0" xlink:href="#shape6"/>
    </g>
    <g id="shape6" transform="matrix(1.0, 0.0, 0.0, 1.0, 0.0, 0.0)">
      <path d="M0.0 6.15 Q0.05 5.45 0.75 4.45 L1.85 3.0 Q2.9 1.35 3.15 0.5 L5.0 0.0 4.45 2.1 3.4 4.65 Q2.75 6.15 2.65 6.9 2.5 7.75 2.5 14.4 L2.5 23.95 Q2.6 28.05 3.05 29.8 L1.7 28.45 0.7 26.85 0.3 26.05 0.0 6.15" fill="url(#gradient4)" fill-rule="evenodd" stroke="none"/>
    </g>
    <linearGradient gradientTransform="matrix(0.001, 0.0145, 0.0145, -0.001, 2.75, 14.2)" gradientUnits="userSpaceOnUse" id="gradient4" spreadMethod="pad" x1="-819.2" x2="819.2">
      <stop offset="0.0" stop-color="#ffffff"/>
      <stop offset="1.0" stop-color="#000000"/>
    </linearGradient>
    <g id="sprite7" transform="matrix(1.0, 0.0, 0.0, 1.0, 0.0, 0.0)">
      <use height="29.8" transform="matrix(1.0, 0.0, 0.0, 1.0, 0.0, 0.0)" width="5.0" xlink:href="#shape7"/>
    </g>
    <g id="shape7" transform="matrix(1.0, 0.0, 0.0, 1.0, 0.0, 0.0)">
      <path d="M1.85 0.5 L3.15 3.0 4.25 4.45 Q4.95 5.45 5.0 6.15 L4.7 26.05 4.3 26.85 3.3 28.45 1.95 29.8 Q2.4 28.05 2.5 23.95 2.7 9.05 2.35 6.9 L1.6 4.65 0.55 2.1 Q0.0 0.35 0.0 0.0 L1.85 0.5" fill="url(#gradient5)" fill-rule="evenodd" stroke="none"/>
    </g>
    <linearGradient gradientTransform="matrix(-0.001, -0.0145, 0.0145, -0.001, 2.3, 14.2)" gradientUnits="userSpaceOnUse" id="gradient5" spreadMethod="pad" x1="-819.2" x2="819.2">
      <stop offset="0.0" stop-color="#ffffff"/>
      <stop offset="1.0" stop-color="#000000"/>
    </linearGradient>
    <g id="sprite8" transform="matrix(1.0, 0.0, 0.0, 1.0, 0.0, 0.0)">
      <use height="2.95" transform="matrix(1.0, 0.0, 0.0, 1.0, 0.0, 0.0)" width="15.6" xlink:href="#shape8"/>
    </g>
    <g id="shape8" transform="matrix(1.0, 0.0, 0.0, 1.0, 0.0, 0.0)">
      <path d="M14.75 0.0 L15.6 1.35 Q14.95 1.95 13.55 2.35 L8.3 2.95 Q2.35 2.75 0.0 0.8 L0.5 0.0 7.6 0.35 14.75 0.0" fill="#80652f" fill-rule="evenodd" stroke="none"/>
    </g>
    <g id="shape9" transform="matrix(1.0, 0.0, 0.0, 1.0, -21.8, -6.35)">
      <path d="M35.25 10.9 Q35.25 11.55 33.35 12.05 L28.65 12.45 24.0 12.05 Q22.05 11.55 22.05 10.9 22.05 10.25 24.0 9.85 L28.65 9.35 33.35 9.85 Q35.25 10.25 35.25 10.9" fill="url(#gradient6)" fill-rule="evenodd" stroke="none"/>
      <path d="M35.65 10.55 Q35.65 11.2 33.6 11.65 L28.7 12.05 23.85 11.65 Q21.8 11.2 21.8 10.55 21.8 9.9 23.85 9.45 L28.7 9.05 33.6 9.45 Q35.65 9.9 35.65 10.55" fill="url(#gradient7)" fill-rule="evenodd" stroke="none"/>
      <path d="M35.4 10.25 Q35.35 10.7 33.4 11.05 L28.65 11.35 24.0 11.05 Q22.05 10.7 22.0 10.25 L22.0 7.7 35.4 7.7 35.4 10.25" fill="#0304d6" fill-rule="evenodd" stroke="none"/>
      <path d="M35.4 7.6 L35.4 10.3 Q35.3 10.8 33.4 11.2 L28.65 11.65 24.0 11.2 Q22.05 10.8 22.0 10.3 L22.0 7.6 35.4 7.6" fill="url(#gradient8)" fill-rule="evenodd" stroke="none"/>
      <path d="M35.4 7.65 Q35.4 8.15 33.45 8.55 L28.65 8.9 23.95 8.55 Q22.0 8.15 22.0 7.65 22.0 7.1 23.95 6.7 L28.65 6.35 33.45 6.7 Q35.4 7.1 35.4 7.65" fill="url(#gradient9)" fill-rule="evenodd" stroke="none"/>
    </g>
    <linearGradient gradientTransform="matrix(0.0081, 0.0, 0.0, -0.0081, 28.65, 10.9)" gradientUnits="userSpaceOnUse" id="gradient6" spreadMethod="pad" x1="-819.2" x2="819.2">
      <stop offset="0.0" stop-color="#e3cf70"/>
      <stop offset="1.0" stop-color="#705829"/>
    </linearGradient>
    <linearGradient gradientTransform="matrix(0.0084, 0.0, 0.0, -0.0084, 28.7, 10.55)" gradientUnits="userSpaceOnUse" id="gradient7" spreadMethod="pad" x1="-819.2" x2="819.2">
      <stop offset="0.0" stop-color="#e3cf70"/>
      <stop offset="1.0" stop-color="#634e24"/>
    </linearGradient>
    <linearGradient gradientTransform="matrix(0.0082, 0.0, 0.0, -0.0082, 28.65, 9.6)" gradientUnits="userSpaceOnUse" id="gradient8" spreadMethod="pad" x1="-819.2" x2="819.2">
      <stop offset="0.0" stop-color="#6fc22f"/>
      <stop offset="0.06274509803921569" stop-color="#76c638"/>
      <stop offset="0.16470588235294117" stop-color="#88d151"/>
      <stop offset="0.23137254901960785" stop-color="#97d964"/>
      <stop offset="1.0" stop-color="#2f5e12"/>
    </linearGradient>
    <linearGradient gradientTransform="matrix(-0.0074, 5.0E-4, 5.0E-4, 0.0074, 28.25, 7.65)" gradientUnits="userSpaceOnUse" id="gradient9" spreadMethod="pad" x1="-819.2" x2="819.2">
      <stop offset="0.0" stop-color="#6fc22f"/>
      <stop offset="0.6901960784313725" stop-color="#71c838"/>
      <stop offset="1.0" stop-color="#73cc3e"/>
    </linearGradient>
    <g id="sprite9" transform="matrix(1.0, 0.0, 0.0, 1.0, 0.0, 0.0)">
      <use height="1.15" transform="matrix(1.0, 0.0, 0.0, 1.0, 0.0, 0.0)" width="9.0" xlink:href="#shape10"/>
    </g>
    <g id="shape10" transform="matrix(1.0, 0.0, 0.0, 1.0, 0.0, 0.0)">
      <path d="M0.4 0.05 L3.35 0.65 9.0 0.95 5.9 1.1 0.25 0.3 0.0 0.05 0.4 0.05" fill="#ffffff" fill-rule="evenodd" stroke="none"/>
    </g>
    <g id="shape11" transform="matrix(1.0, 0.0, 0.0, 1.0, -4.95, -13.95)">
      <path d="M22.95 33.9 L23.9 34.85 Q24.05 35.25 23.7 35.25 23.25 35.25 22.25 34.35 21.85 33.95 22.2 33.8 L22.95 33.9" fill="#f9e2c9" fill-rule="evenodd" stroke="none"/>
      <path d="M25.0 34.95 Q25.5 35.05 25.25 35.35 25.05 35.65 24.85 35.5 L24.65 35.1 Q24.6 34.85 25.0 34.95" fill="#f9e2c9" fill-rule="evenodd" stroke="none"/>
      <path d="M22.8 16.9 Q23.65 17.8 23.9 18.6 24.3 19.6 24.3 21.25 L24.05 28.9 23.65 35.8 Q23.5 37.05 22.5 38.25 21.2 39.9 18.65 40.65 L14.65 41.1 10.6 40.65 Q8.05 39.9 6.7 38.25 5.7 37.05 5.65 35.8 L5.25 28.9 4.95 21.25 Q4.95 19.6 5.35 18.6 L6.45 16.9 Q7.85 15.4 8.65 13.95 L14.65 14.25 20.65 13.95 Q21.45 15.45 22.8 16.9" fill="url(#gradient10)" fill-rule="evenodd" stroke="none"/>
      <path d="M22.25 17.05 L23.3 18.7 Q23.65 19.65 23.65 21.25 L23.35 28.75 23.05 35.45 Q22.9 36.7 22.0 37.85 20.75 39.45 18.35 40.1 L14.55 40.6 10.8 40.1 Q8.4 39.45 7.15 37.85 6.2 36.65 6.1 35.45 L5.75 28.75 5.45 21.25 Q5.45 19.65 5.85 18.7 6.1 17.95 6.85 17.05 8.3 15.5 8.9 14.2 L14.55 14.5 20.2 14.2 Q21.0 15.65 22.25 17.05" fill="url(#gradient11)" fill-rule="evenodd" stroke="none"/>
      <path d="M14.65 21.95 Q15.1 22.3 14.45 22.75 13.85 23.2 13.45 22.75 12.8 22.1 13.05 19.05 13.15 17.8 14.15 18.05 L14.25 18.2 14.15 18.85 14.05 20.4 Q14.05 21.45 14.65 21.95" fill="#d4c169" fill-rule="evenodd" stroke="none"/>
      <path d="M10.45 20.25 L9.6 22.0 Q8.9 23.1 8.85 23.65 8.75 24.45 8.25 24.95 7.75 25.5 7.55 24.85 7.3 24.2 7.85 22.65 8.25 21.2 8.85 20.45 9.4 19.75 10.0 19.65 10.6 19.5 10.45 20.25" fill="#e0cc6f" fill-rule="evenodd" stroke="none"/>
      <path d="M11.05 37.95 Q12.25 38.3 12.15 38.8 12.0 39.25 10.75 39.3 9.65 39.35 8.95 38.2 8.25 37.05 8.65 36.45 8.85 36.05 9.5 36.8 10.4 37.8 11.05 37.95" fill="#e0cc6f" fill-rule="evenodd" stroke="none"/>
      <path d="M17.35 23.15 Q18.05 23.05 18.5 24.0 19.0 24.95 18.55 24.85 L16.05 24.95 Q15.2 25.05 15.75 24.15 16.25 23.25 17.35 23.15" fill="#c2b05f" fill-rule="evenodd" stroke="none"/>
      <path d="M19.35 20.45 Q20.0 20.65 19.55 21.05 19.05 21.45 18.45 21.05 17.85 20.65 18.3 20.45 18.75 20.25 19.35 20.45" fill="#c2b05f" fill-rule="evenodd" stroke="none"/>
      <path d="M19.35 36.95 Q20.9 37.25 19.3 37.7 L17.35 37.75 Q17.05 37.3 17.7 37.05 L19.35 36.95" fill="#c2b05f" fill-rule="evenodd" stroke="none"/>
      <path d="M21.65 28.75 Q23.25 28.75 22.05 30.45 20.85 32.1 20.05 31.15 19.3 30.25 20.05 29.45 20.75 28.75 21.65 28.75" fill="#a3914d" fill-rule="evenodd" stroke="none"/>
    </g>
    <linearGradient gradientTransform="matrix(0.0118, 0.0, 0.0, -0.0118, 14.65, 27.5)" gradientUnits="userSpaceOnUse" id="gradient10" spreadMethod="pad" x1="-819.2" x2="819.2">
      <stop offset="0.0" stop-color="#fae894"/>
      <stop offset="1.0" stop-color="#705829"/>
    </linearGradient>
    <linearGradient gradientTransform="matrix(0.0111, 0.0, 0.0, -0.0111, 14.55, 27.4)" gradientUnits="userSpaceOnUse" id="gradient11" spreadMethod="pad" x1="-819.2" x2="819.2">
      <stop offset="0.0" stop-color="#e3cf70"/>
      <stop offset="1.0" stop-color="#876a31"/>
    </linearGradient>
    <g id="sprite10" transform="matrix(1.0, 0.0, 0.0, 1.0, 0.0, 0.0)">
      <use height="2.95" transform="matrix(1.0, 0.0, 0.0, 1.0, 0.0, 0.0)" width="2.15" xlink:href="#shape12"/>
    </g>
    <g id="shape12" transform="matrix(1.0, 0.0, 0.0, 1.0, 0.0, 0.0)">
      <path d="M2.15 1.0 Q2.15 2.25 0.95 2.8 -0.2 3.35 0.05 1.8 0.25 0.25 1.05 0.05 2.2 -0.25 2.15 1.0" fill="#735b2c" fill-rule="evenodd" stroke="none"/>
    </g>
    <g id="sprite11" transform="matrix(1.0, 0.0, 0.0, 1.0, -0.05, 0.05)">
      <use height="2.45" transform="matrix(0.9722, 0.0, 0.0, 0.7755, 0.0514, -0.05)" width="1.8" xlink:href="#shape2"/>
    </g>
    <g id="sprite12" transform="matrix(1.0, 0.0, 0.0, 1.0, 0.0, 0.05)">
      <use height="2.45" transform="matrix(1.2778, 0.0, 0.0, 0.6327, -0.0139, -0.05)" width="1.8" xlink:href="#shape2"/>
    </g>
    <g id="sprite13" transform="matrix(1.0, 0.0, 0.0, 1.0, 0.05, 0.05)">
      <use height="1.65" transform="matrix(1.0, 0.0, 0.0, 1.0, -0.05, -0.05)" width="2.9" xlink:href="#shape13"/>
    </g>
    <g id="shape13" transform="matrix(1.0, 0.0, 0.0, 1.0, 0.05, 0.05)">
      <path d="M2.7 0.15 Q3.15 0.6 2.0 1.2 0.9 1.75 0.2 1.55 -0.55 1.35 0.8 0.5 2.15 -0.4 2.7 0.15" fill="#735b2c" fill-rule="evenodd" stroke="none"/>
    </g>
    <g id="sprite14" transform="matrix(1.0, 0.0, 0.0, 1.0, 0.0, 0.05)">
      <use height="1.75" transform="matrix(1.0, 0.0, 0.0, 1.0, 0.0, -0.05)" width="2.5" xlink:href="#shape4"/>
    </g>
    <g id="sprite15" transform="matrix(1.0, 0.0, 0.0, 1.0, 0.05, 0.0)">
      <use height="2.45" transform="matrix(1.0, 0.0, 0.0, 1.0, -0.05, 0.0)" width="1.8" xlink:href="#shape2"/>
    </g>
    <g id="shape14" transform="matrix(1.0, 0.0, 0.0, 1.0, -6.05, -22.75)">
      <path d="M15.35 26.1 L18.45 25.85 18.2 36.85 16.45 37.25 Q14.15 37.55 11.5 37.25 9.15 37.05 7.65 36.1 L6.65 35.25 6.45 32.9 6.05 25.4 7.75 25.8 Q8.2 24.45 9.2 23.6 10.2 22.75 11.45 22.75 12.75 22.7 13.85 23.65 14.9 24.6 15.35 26.1" fill="url(#gradient12)" fill-rule="evenodd" stroke="none"/>
      <path d="M13.75 30.45 Q15.45 31.4 15.25 33.4 15.0 35.55 12.15 36.05 9.4 36.5 8.65 34.1 8.05 31.95 9.15 30.75 9.85 30.0 9.65 28.85 L9.35 27.85 Q9.0 27.6 8.3 28.05 L7.75 28.65 8.25 27.75 Q8.55 27.2 9.1 27.25 L9.65 27.45 9.45 27.15 8.85 26.75 8.45 26.55 8.8 26.45 9.65 26.55 Q10.25 26.75 10.55 27.45 L10.55 27.15 Q10.55 26.95 11.25 26.45 L11.95 25.95 11.35 27.05 Q10.45 28.65 13.75 30.45" fill="url(#gradient13)" fill-rule="evenodd" stroke="none"/>
    </g>
    <linearGradient gradientTransform="matrix(0.0076, 0.0, 0.0, -0.0076, 12.25, 30.05)" gradientUnits="userSpaceOnUse" id="gradient12" spreadMethod="pad" x1="-819.2" x2="819.2">
      <stop offset="0.0" stop-color="#6fc22f"/>
      <stop offset="0.18823529411764706" stop-color="#69b92c"/>
      <stop offset="0.4980392156862745" stop-color="#59a025"/>
      <stop offset="0.8862745098039215" stop-color="#3f7819"/>
      <stop offset="1.0" stop-color="#366b15"/>
    </linearGradient>
    <linearGradient gradientTransform="matrix(0.0046, 0.0, 0.0, -0.0046, 11.45, 31.05)" gradientUnits="userSpaceOnUse" id="gradient13" spreadMethod="pad" x1="-819.2" x2="819.2">
      <stop offset="0.0" stop-color="#fff7ad"/>
      <stop offset="0.15294117647058825" stop-color="#f9f0a4"/>
      <stop offset="0.4" stop-color="#e7de8b"/>
      <stop offset="0.7176470588235294" stop-color="#cbc063"/>
      <stop offset="1.0" stop-color="#ada139"/>
    </linearGradient>
    <g id="sprite16" transform="matrix(1.0, 0.0, 0.0, 1.0, 0.0, 0.0)">
      <use height="31.5" transform="matrix(1.0, 0.0, 0.0, 1.0, 0.0, 0.0)" width="5.3" xlink:href="#shape15"/>
    </g>
    <g id="shape15" transform="matrix(1.0, 0.0, 0.0, 1.0, 0.0, 0.0)">
      <path d="M3.35 0.55 L5.3 0.0 4.7 2.2 3.6 4.95 Q2.9 6.55 2.8 7.3 2.65 8.25 2.65 15.2 2.6 21.7 2.7 25.3 2.75 29.6 3.25 31.5 L1.85 30.05 0.75 28.35 0.35 27.5 0.0 6.5 Q0.05 5.75 0.8 4.7 L1.95 3.2 3.35 0.55" fill="url(#gradient14)" fill-rule="evenodd" stroke="none"/>
    </g>
    <linearGradient gradientTransform="matrix(0.0011, 0.0153, 0.0153, -0.0011, 2.9, 15.0)" gradientUnits="userSpaceOnUse" id="gradient14" spreadMethod="pad" x1="-819.2" x2="819.2">
      <stop offset="0.0" stop-color="#ffffff"/>
      <stop offset="1.0" stop-color="#000000"/>
    </linearGradient>
    <g id="sprite17" transform="matrix(1.0, 0.0, 0.0, 1.0, 0.0, 0.0)">
      <use height="31.5" transform="matrix(1.0, 0.0, 0.0, 1.0, 0.0, 0.0)" width="5.25" xlink:href="#shape16"/>
    </g>
    <g id="shape16" transform="matrix(1.0, 0.0, 0.0, 1.0, 0.0, 0.0)">
      <path d="M1.95 0.55 Q2.2 1.45 3.3 3.2 L4.45 4.7 Q5.2 5.75 5.25 6.5 L4.95 27.5 4.55 28.35 3.45 30.05 2.0 31.5 Q2.55 29.6 2.6 25.3 2.8 9.55 2.45 7.3 2.35 6.55 1.65 4.95 L0.6 2.2 0.0 0.0 1.95 0.55" fill="url(#gradient15)" fill-rule="evenodd" stroke="none"/>
    </g>
    <linearGradient gradientTransform="matrix(-0.0011, -0.0153, 0.0153, -0.0011, 2.4, 15.0)" gradientUnits="userSpaceOnUse" id="gradient15" spreadMethod="pad" x1="-819.2" x2="819.2">
      <stop offset="0.0" stop-color="#ffffff"/>
      <stop offset="1.0" stop-color="#000000"/>
    </linearGradient>
    <g id="sprite18" transform="matrix(1.0, 0.0, 0.0, 1.0, 0.0, 0.0)">
      <use height="3.1" transform="matrix(1.0, 0.0, 0.0, 1.0, 0.0, 0.0)" width="16.5" xlink:href="#shape17"/>
    </g>
    <g id="shape17" transform="matrix(1.0, 0.0, 0.0, 1.0, 0.0, 0.0)">
      <path d="M15.55 0.0 L16.5 1.45 Q14.1 3.25 8.75 3.1 2.65 2.95 0.0 0.85 L0.55 0.0 8.05 0.4 15.55 0.0" fill="#80652f" fill-rule="evenodd" stroke="none"/>
    </g>
    <g id="shape18" transform="matrix(1.0, 0.0, 0.0, 1.0, -7.4, -9.15)">
      <path d="M21.6 13.95 Q21.6 14.65 19.55 15.1 L14.6 15.6 9.65 15.1 Q7.6 14.65 7.6 13.95 7.6 13.25 9.65 12.8 L14.6 12.3 19.55 12.8 Q21.6 13.25 21.6 13.95" fill="url(#gradient16)" fill-rule="evenodd" stroke="none"/>
      <path d="M21.95 13.6 Q21.95 14.25 19.85 14.7 L14.65 15.2 9.5 14.7 Q7.4 14.25 7.4 13.6 7.4 12.9 9.5 12.45 L14.65 11.95 19.85 12.45 Q21.95 12.9 21.95 13.6" fill="url(#gradient17)" fill-rule="evenodd" stroke="none"/>
      <path d="M21.7 10.6 L21.7 13.3 Q21.65 13.8 19.6 14.1 L14.65 14.45 9.65 14.1 Q7.65 13.8 7.55 13.3 L7.55 10.6 21.7 10.6" fill="#0304d6" fill-rule="evenodd" stroke="none"/>
      <path d="M21.7 10.45 L21.7 13.3 Q21.65 13.85 19.6 14.25 L14.65 14.7 9.65 14.25 Q7.65 13.85 7.55 13.3 L7.55 10.45 21.7 10.45" fill="url(#gradient18)" fill-rule="evenodd" stroke="none"/>
      <path d="M21.65 10.5 Q21.65 11.05 19.6 11.45 L14.65 11.85 9.65 11.45 Q7.55 11.05 7.55 10.5 7.55 9.95 9.65 9.55 L14.65 9.15 19.6 9.55 Q21.65 9.95 21.65 10.5" fill="url(#gradient19)" fill-rule="evenodd" stroke="none"/>
    </g>
    <linearGradient gradientTransform="matrix(0.0085, 0.0, 0.0, -0.0085, 14.6, 13.95)" gradientUnits="userSpaceOnUse" id="gradient16" spreadMethod="pad" x1="-819.2" x2="819.2">
      <stop offset="0.0" stop-color="#e3cf70"/>
      <stop offset="1.0" stop-color="#705829"/>
    </linearGradient>
    <linearGradient gradientTransform="matrix(0.0089, 0.0, 0.0, -0.0089, 14.65, 13.6)" gradientUnits="userSpaceOnUse" id="gradient17" spreadMethod="pad" x1="-819.2" x2="819.2">
      <stop offset="0.0" stop-color="#e3cf70"/>
      <stop offset="1.0" stop-color="#634e24"/>
    </linearGradient>
    <linearGradient gradientTransform="matrix(0.0086, 0.0, 0.0, -0.0086, 14.65, 12.6)" gradientUnits="userSpaceOnUse" id="gradient18" spreadMethod="pad" x1="-819.2" x2="819.2">
      <stop offset="0.0" stop-color="#6fc22f"/>
      <stop offset="0.06274509803921569" stop-color="#76c638"/>
      <stop offset="0.16470588235294117" stop-color="#88d151"/>
      <stop offset="0.23137254901960785" stop-color="#97d964"/>
      <stop offset="1.0" stop-color="#2f5e12"/>
    </linearGradient>
    <linearGradient gradientTransform="matrix(-0.0078, 6.0E-4, 6.0E-4, 0.0078, 14.2, 10.55)" gradientUnits="userSpaceOnUse" id="gradient19" spreadMethod="pad" x1="-819.2" x2="819.2">
      <stop offset="0.0" stop-color="#6fc22f"/>
      <stop offset="0.6901960784313725" stop-color="#71c838"/>
      <stop offset="1.0" stop-color="#73cc3e"/>
    </linearGradient>
    <g id="sprite19" transform="matrix(1.0, 0.0, 0.0, 1.0, -0.05, 0.0)">
      <use height="1.2" transform="matrix(1.0, 0.0, 0.0, 1.0, 0.05, 0.0)" width="9.45" xlink:href="#shape19"/>
    </g>
    <g id="shape19" transform="matrix(1.0, 0.0, 0.0, 1.0, -0.05, 0.0)">
      <path d="M0.45 0.05 L3.55 0.65 9.5 1.05 6.25 1.15 Q2.25 1.0 0.3 0.3 L0.05 0.05 0.45 0.05" fill="#ffffff" fill-rule="evenodd" stroke="none"/>
    </g>
    <g id="shape20" transform="matrix(1.0, 0.0, 0.0, 1.0, -7.65, -38.05)">
      <path d="M8.6 38.25 Q9.45 38.65 9.6 39.15 9.75 39.6 9.4 39.6 8.85 39.6 7.85 38.65 7.45 38.25 7.8 38.1 8.15 37.95 8.6 38.25" fill="#f9e2c9" fill-rule="evenodd" stroke="none"/>
      <path d="M10.75 39.3 Q11.3 39.45 11.05 39.75 L10.55 39.85 10.35 39.45 Q10.3 39.25 10.75 39.3" fill="#f9e2c9" fill-rule="evenodd" stroke="none"/>
    </g>
  </defs>
</svg>
