<?xml version="1.0" encoding="UTF-8" standalone="no"?>
<svg xmlns:xlink="http://www.w3.org/1999/xlink" height="172.35px" width="171.85px" xmlns="http://www.w3.org/2000/svg">
  <g transform="matrix(1.0, 0.0, 0.0, 1.0, 0.0, 0.0)">
    <use height="172.35" transform="matrix(1.0, 0.0, 0.0, 1.0, 0.0, 0.0)" width="171.85" xlink:href="#shape0"/>
    <use height="32.6" transform="matrix(1.0, 0.0, 0.0, 1.0, 62.6, 80.55)" width="46.9" xlink:href="#sprite0"/>
    <use height="37.8" transform="matrix(1.0, 0.0, 0.0, 1.0, 63.45, 75.65)" width="55.85" xlink:href="#shape2"/>
    <use height="43.8" transform="matrix(1.0, 0.0, 0.0, 1.0, 55.3, 74.9)" width="64.05" xlink:href="#sprite1"/>
    <use height="46.9" transform="matrix(1.0, 0.0, 0.0, 1.0, 54.65, 74.9)" width="64.7" xlink:href="#shape4"/>
    <use height="38.15" transform="matrix(1.0, 0.0, 0.0, 1.0, 115.6, 80.9)" width="4.3" xlink:href="#sprite2"/>
    <use height="49.3" transform="matrix(1.0, 0.0, 0.0, 1.0, 54.6, 68.25)" width="9.2" xlink:href="#shape6"/>
    <use height="55.75" transform="matrix(1.0, 0.0, 0.0, 1.0, 30.8, 28.6)" width="110.0" xlink:href="#sprite3"/>
    <use height="61.3" transform="matrix(1.0, 0.0, 0.0, 1.0, 30.8, 28.6)" width="110.0" xlink:href="#sprite4"/>
    <use height="57.1" transform="matrix(1.0, 0.0, 0.0, 1.0, 26.45, 87.4)" width="118.7" xlink:href="#sprite5"/>
  </g>
  <defs>
    <g id="shape0" transform="matrix(1.0, 0.0, 0.0, 1.0, 0.0, 0.0)">
      <path d="M114.8 47.8 L114.85 44.45 Q115.15 31.2 115.25 5.15 L116.6 5.65 116.2 26.0 Q115.95 38.35 116.2 46.35 L116.15 50.45 Q116.0 61.75 115.25 70.9 L114.6 80.15 Q113.6 95.95 113.5 125.1 113.05 108.45 113.75 97.6 L113.85 93.9 Q114.0 84.1 114.5 75.55 L114.75 65.15 Q114.65 55.55 114.8 47.8" fill="#d99e58" fill-rule="evenodd" stroke="none"/>
      <path d="M114.25 4.8 L114.25 7.0 Q114.5 12.95 114.15 23.35 113.75 35.45 113.8 39.85 L113.75 45.3 113.55 56.2 113.45 61.65 112.85 75.2 112.6 79.7 Q112.0 86.8 112.1 96.1 L112.15 99.35 Q112.2 110.05 112.95 131.6 113.4 150.9 112.2 163.95 L111.95 167.4 111.95 167.75 109.4 168.5 109.4 167.0 Q110.8 144.45 111.0 134.3 111.35 115.95 109.6 101.75 L109.35 98.5 Q108.75 89.2 109.2 82.2 L109.55 76.95 Q111.3 49.65 110.6 30.15 L111.0 3.7 114.25 4.8" fill="#d99e58" fill-rule="evenodd" stroke="none"/>
      <path d="M105.2 2.2 L109.8 3.4 109.4 30.15 109.35 52.05 Q109.3 64.95 108.8 74.05 L108.45 78.95 107.9 84.15 Q107.55 87.3 107.8 89.35 107.8 93.6 108.25 100.1 L108.55 103.7 Q110.45 115.95 109.7 135.5 108.65 162.65 108.75 167.45 L108.7 168.65 105.85 169.4 105.95 166.1 Q108.05 144.65 108.3 137.7 108.9 121.7 106.2 109.5 L104.9 104.85 103.4 100.15 Q102.3 97.15 103.6 92.0 105.15 85.85 105.0 83.6 L105.3 78.8 Q105.9 70.3 105.5 57.15 L104.9 35.2 105.2 2.2" fill="#d99e58" fill-rule="evenodd" stroke="none"/>
      <path d="M101.9 1.5 L103.1 1.7 Q102.85 15.2 103.45 26.05 L103.55 31.9 104.25 56.1 Q104.35 69.95 102.55 79.85 L102.1 85.0 Q101.75 87.65 101.65 90.25 101.95 94.8 103.0 100.9 L105.15 110.9 Q107.45 123.0 106.45 139.6 105.85 149.15 103.95 168.15 L104.0 169.85 103.9 169.85 103.75 167.85 Q103.2 166.0 103.25 163.45 L103.4 159.0 Q105.25 143.3 105.75 135.5 106.65 122.05 104.55 112.2 L103.25 107.6 101.45 102.6 Q100.8 100.35 100.55 97.2 L100.3 91.7 100.45 88.35 100.8 84.95 101.1 80.35 Q102.75 71.15 102.4 56.6 L101.9 32.4 101.85 21.2 Q101.75 10.25 101.9 1.5" fill="#d99e58" fill-rule="evenodd" stroke="none"/>
      <path d="M125.55 32.8 L125.75 9.8 126.4 10.1 126.8 33.4 127.2 56.55 127.05 73.55 127.05 84.6 126.9 88.2 Q121.7 108.2 122.9 135.15 122.9 143.15 123.9 150.65 L125.0 162.35 123.4 163.15 123.05 160.0 Q118.35 126.5 125.4 88.4 L125.95 82.5 126.05 76.55 126.1 72.55 126.05 60.6 125.95 55.85 Q125.5 45.9 125.55 32.8" fill="#d99e58" fill-rule="evenodd" stroke="none"/>
      <path d="M127.7 35.0 L127.35 10.65 Q130.8 12.55 133.85 14.6 L134.2 21.45 Q134.6 32.15 136.5 40.9 137.25 48.25 136.85 54.25 L135.35 60.7 134.2 69.8 133.9 73.9 Q133.7 76.85 133.85 80.85 L134.15 87.6 134.15 90.75 132.45 99.95 Q126.65 127.95 132.5 154.4 L133.15 157.6 Q129.55 160.0 125.85 161.9 L125.0 157.05 Q124.4 154.25 123.9 150.65 123.2 142.3 122.9 135.15 122.85 125.4 124.45 111.35 L127.2 88.0 127.55 84.1 Q127.95 77.75 127.75 72.3 L128.05 59.4 127.7 35.0" fill="#d99e58" fill-rule="evenodd" stroke="none"/>
      <path d="M123.55 53.4 L123.8 31.2 124.1 8.95 125.1 9.45 124.75 30.45 Q124.5 43.6 124.55 51.5 L124.45 76.4 124.65 82.4 124.35 88.35 Q121.25 103.95 121.0 125.15 120.9 130.85 121.55 161.95 L121.6 164.0 121.3 164.1 120.6 157.05 Q119.35 141.6 120.75 119.75 122.75 94.95 123.45 82.35 L123.4 76.25 123.55 53.4" fill="#d99e58" fill-rule="evenodd" stroke="none"/>
      <path d="M67.65 4.15 L67.95 1.9 71.05 1.3 71.0 10.3 71.05 13.5 71.05 14.3 Q70.85 22.9 70.95 46.15 71.1 66.4 70.55 78.05 70.1 94.75 70.0 128.7 L69.95 140.45 70.1 144.85 70.35 150.45 Q70.8 159.0 71.55 167.95 L71.7 170.55 68.85 170.05 68.7 161.55 68.25 152.9 67.55 137.65 Q66.55 116.05 67.6 75.15 68.7 33.0 67.95 12.85 L67.6 8.5 Q67.5 6.1 67.65 4.15" fill="#d99e58" fill-rule="evenodd" stroke="none"/>
      <path d="M140.05 19.2 Q140.4 31.15 141.7 39.8 142.2 45.45 141.2 55.95 L140.8 60.55 Q139.8 71.8 139.5 77.05 L139.35 80.4 139.2 92.65 138.65 106.45 Q138.0 116.95 138.25 129.9 138.4 138.05 139.15 153.2 L135.5 155.95 Q134.3 141.2 133.9 132.6 133.25 119.7 133.6 109.1 L133.9 103.6 135.3 94.25 135.8 89.9 135.9 85.7 138.15 57.35 Q138.8 48.65 137.8 36.6 L135.8 16.0 140.05 19.2" fill="#d99e58" fill-rule="evenodd" stroke="none"/>
      <path d="M77.9 0.4 L80.75 0.15 80.8 20.9 80.65 79.8 Q80.3 112.15 79.2 138.65 L79.3 143.15 79.7 147.7 80.05 152.35 Q80.7 160.7 80.5 166.25 L80.4 171.55 78.0 171.35 76.95 158.25 76.65 152.05 76.55 147.45 76.4 142.45 76.6 137.45 77.9 77.85 Q78.5 43.35 77.95 18.2 L77.9 0.4" fill="#d99e58" fill-rule="evenodd" stroke="none"/>
      <path d="M81.65 0.1 L83.25 0.05 83.3 26.25 83.55 54.5 Q83.55 73.4 83.8 82.95 L82.75 109.25 Q81.95 125.25 82.9 135.65 L82.95 140.6 82.8 150.6 82.8 171.7 81.5 171.65 Q81.65 162.6 81.4 152.2 L80.95 138.15 Q80.9 125.2 81.7 80.0 82.35 43.8 81.7 21.7 L81.65 0.1" fill="#d99e58" fill-rule="evenodd" stroke="none"/>
      <path d="M72.25 1.1 L76.85 0.5 76.85 17.35 Q77.2 43.9 76.7 76.6 L75.35 135.8 75.35 141.9 75.8 152.6 76.4 161.8 76.8 171.05 76.8 171.25 72.65 170.7 72.15 160.45 71.45 150.2 71.05 138.35 Q71.0 113.2 71.8 63.1 L72.0 59.9 Q72.55 53.85 72.55 46.45 L72.25 33.05 72.45 16.45 72.25 10.8 72.25 1.1" fill="#d99e58" fill-rule="evenodd" stroke="none"/>
      <path d="M84.2 0.05 L85.95 0.0 91.55 0.2 91.55 52.75 Q91.7 58.0 91.5 62.65 L91.4 67.65 91.05 86.8 91.0 90.65 Q90.8 95.6 90.95 101.3 L91.1 106.65 91.0 111.45 Q90.8 117.95 91.2 128.1 L91.8 144.7 91.85 149.45 91.75 158.8 92.1 162.0 Q92.55 165.65 93.65 171.4 L85.95 171.75 83.6 171.7 84.05 153.25 84.1 138.25 Q83.15 117.8 83.85 81.25 84.65 41.25 84.2 24.05 L84.2 0.05" fill="#d99e58" fill-rule="evenodd" stroke="none"/>
      <path d="M98.75 0.95 L100.2 1.2 Q100.3 11.8 100.7 21.1 L100.95 37.7 101.05 57.45 Q100.95 68.75 100.1 77.3 L99.85 82.45 99.1 95.6 99.1 100.0 100.6 104.05 102.25 108.8 103.5 113.6 Q105.05 123.6 104.05 136.25 103.4 143.8 100.95 159.0 100.15 163.85 101.4 167.95 101.55 169.2 101.85 170.25 L100.85 170.45 Q100.2 166.9 100.0 163.65 L99.8 159.15 101.0 152.05 Q103.55 136.55 103.8 129.15 104.25 115.9 100.2 106.5 L98.4 101.2 Q98.0 99.25 97.75 96.85 97.1 89.85 98.9 83.2 L99.3 78.45 Q100.2 59.4 99.55 36.8 L99.15 14.75 98.75 0.95" fill="#d99e58" fill-rule="evenodd" stroke="none"/>
      <path d="M98.35 155.5 L98.35 156.05 98.35 160.25 98.55 164.15 Q98.85 167.45 99.6 170.65 L98.85 170.8 Q98.2 165.95 98.05 162.1 L98.35 155.5 M95.35 0.5 L98.15 0.85 98.25 7.85 98.4 36.15 Q98.6 60.55 97.9 75.7 L97.1 84.45 Q96.25 90.75 96.95 97.55 L97.55 101.9 98.6 106.7 Q101.5 119.35 101.9 129.1 102.4 141.55 99.0 151.65 98.5 153.1 98.4 154.85 L98.65 149.25 Q99.9 135.8 99.85 127.9 99.85 116.2 97.6 106.85 L96.4 101.7 95.8 98.3 Q95.0 92.65 95.6 87.75 95.6 85.65 95.75 83.6 L96.35 73.9 Q97.2 60.9 96.85 41.25 L96.75 36.85 95.55 5.9 95.35 0.5" fill="#d99e58" fill-rule="evenodd" stroke="none"/>
      <path d="M92.8 0.3 L95.0 0.45 Q95.0 22.15 95.45 38.55 L95.55 43.2 96.3 59.15 Q96.55 68.1 95.65 74.9 L94.7 87.75 Q94.05 93.25 94.7 99.15 L96.25 107.9 Q98.5 116.8 98.65 127.7 98.8 136.4 97.55 147.9 L96.3 159.4 96.35 162.65 Q96.5 166.6 97.2 171.0 L95.6 171.2 Q94.55 166.4 94.05 162.2 L93.7 158.8 93.15 148.95 93.0 144.05 Q92.45 136.8 92.45 126.7 L92.65 109.65 92.45 104.05 Q92.05 95.1 92.05 87.15 L92.55 70.2 92.8 45.95 92.8 0.3" fill="#d99e58" fill-rule="evenodd" stroke="none"/>
      <path d="M117.25 49.25 Q116.9 40.6 117.15 27.65 L117.6 6.05 122.55 8.2 122.15 29.5 Q121.85 42.5 122.05 50.9 L122.0 55.5 121.85 69.65 121.75 74.4 121.75 78.9 121.55 83.4 118.55 121.3 Q117.4 142.85 119.6 159.5 119.8 161.9 119.3 165.05 L114.8 166.75 115.2 162.45 115.7 121.95 Q115.95 97.2 116.4 81.4 L116.95 73.5 Q117.35 66.15 117.25 53.95 L117.25 49.25" fill="#d99e58" fill-rule="evenodd" stroke="none"/>
      <path d="M49.9 40.75 L50.9 45.35 51.7 55.15 Q50.0 48.25 49.45 44.2 48.9 41.15 50.05 36.8 49.55 38.95 49.9 40.75" fill="#d99e58" fill-rule="evenodd" stroke="none"/>
      <path d="M52.55 123.15 L53.6 129.1 Q54.3 132.85 54.45 135.2 53.0 129.45 52.55 123.15" fill="#d99e58" fill-rule="evenodd" stroke="none"/>
      <path d="M62.2 89.85 L62.8 83.15 Q62.3 115.5 63.5 139.6 L63.55 143.5 63.6 168.8 61.4 168.15 62.15 144.75 62.2 139.5 61.1 114.8 Q60.65 100.55 62.2 89.85" fill="#d99e58" fill-rule="evenodd" stroke="none"/>
      <path d="M5.85 101.5 L5.95 99.45 5.85 105.75 6.0 117.15 5.7 116.4 5.75 106.05 5.85 101.5" fill="#d99e58" fill-rule="evenodd" stroke="none"/>
      <path d="M44.95 60.35 Q46.6 67.7 47.15 73.45 L44.95 60.35" fill="#d99e58" fill-rule="evenodd" stroke="none"/>
      <path d="M142.45 40.75 Q141.45 29.95 141.2 24.55 L140.9 19.9 Q143.6 22.15 146.15 24.7 L146.55 56.05 146.2 86.55 146.55 98.4 146.55 106.5 Q145.2 123.95 145.8 147.4 L140.45 152.2 139.25 136.95 Q138.35 130.2 139.2 120.25 L140.65 103.5 140.85 98.6 140.85 93.75 140.95 90.05 Q141.05 84.45 140.8 78.9 L141.0 75.45 142.05 61.75 142.35 57.05 Q143.15 50.4 142.45 40.75" fill="#d99e58" fill-rule="evenodd" stroke="none"/>
      <path d="M36.85 156.3 L37.1 152.85 37.05 156.4 36.85 156.3" fill="#d99e58" fill-rule="evenodd" stroke="none"/>
      <path d="M151.9 30.9 L154.75 34.5 153.45 43.7 153.3 47.15 Q153.25 49.1 153.75 50.65 L154.15 55.9 155.8 71.55 Q156.7 80.7 156.25 87.25 L156.2 111.95 Q155.3 121.9 155.8 135.75 L152.8 139.7 Q151.85 121.55 152.85 111.1 L153.05 106.65 152.95 83.5 152.3 71.65 151.5 59.9 151.1 55.0 Q150.85 46.6 151.9 30.9" fill="#d99e58" fill-rule="evenodd" stroke="none"/>
      <path d="M154.6 50.5 Q154.55 44.55 155.45 35.45 L159.35 41.3 159.25 43.6 159.2 48.65 Q159.35 54.0 160.5 63.8 L162.05 79.2 162.8 124.25 Q160.2 129.4 157.25 133.7 L157.7 114.0 157.9 96.0 157.6 91.1 157.4 85.65 157.6 79.8 Q157.7 76.5 157.4 74.15 155.4 61.2 154.9 55.2 L154.6 50.5" fill="#d99e58" fill-rule="evenodd" stroke="none"/>
      <path d="M148.9 27.55 L151.2 30.1 Q150.55 43.1 150.55 51.0 L150.7 56.05 151.4 69.3 151.9 82.5 151.75 107.25 151.4 124.25 Q151.2 134.25 151.4 141.4 L148.75 144.35 Q148.25 133.05 148.3 125.65 148.4 115.35 149.5 106.9 L149.6 97.65 149.25 92.95 149.2 84.05 148.65 60.65 148.55 55.45 Q148.55 49.35 148.9 27.55" fill="#d99e58" fill-rule="evenodd" stroke="none"/>
      <path d="M168.05 60.55 Q171.85 72.95 171.85 85.85 171.85 96.85 169.05 107.65 L168.05 60.55" fill="#d99e58" fill-rule="evenodd" stroke="none"/>
      <path d="M163.35 72.85 L163.35 75.6 164.05 107.2 Q163.7 113.2 163.95 121.8 L163.55 122.65 163.55 122.4 Q163.4 113.8 163.6 106.1 L163.1 75.6 163.35 72.85" fill="#d99e58" fill-rule="evenodd" stroke="none"/>
      <path d="M147.25 126.85 L147.4 145.8 147.05 146.15 Q146.95 135.9 147.25 126.85" fill="#d99e58" fill-rule="evenodd" stroke="none"/>
      <path d="M162.55 53.6 L162.45 46.9 Q164.35 50.6 166.1 55.0 166.45 59.9 166.95 63.4 L166.95 69.1 167.55 92.95 167.6 112.5 165.25 118.9 165.15 96.1 164.45 73.35 164.45 67.9 163.55 63.05 Q163.1 61.1 162.85 58.2 L162.55 53.6" fill="#d99e58" fill-rule="evenodd" stroke="none"/>
      <path d="M54.8 24.05 Q55.65 20.4 53.95 15.7 51.6 10.35 50.7 7.6 54.1 6.05 58.05 4.7 L58.05 5.4 Q57.9 8.9 60.05 16.7 62.0 23.75 61.2 28.0 L59.5 34.65 Q58.6 38.5 59.25 41.25 61.65 56.8 61.15 78.25 60.85 90.45 59.75 114.85 59.75 118.45 60.7 125.9 61.7 133.25 61.65 137.05 L61.6 142.15 Q61.1 148.95 60.9 168.0 57.25 166.9 54.1 165.6 L55.0 153.1 55.65 140.6 55.65 136.3 Q55.55 133.8 53.85 123.2 52.5 115.1 53.35 109.95 55.95 94.1 55.25 78.2 L55.3 76.6 Q55.3 72.25 54.5 67.55 53.3 56.85 50.9 45.35 L50.4 39.8 Q50.2 38.15 50.4 35.5 L50.8 34.25 52.95 29.25 54.8 24.05" fill="#d99e58" fill-rule="evenodd" stroke="none"/>
      <path d="M26.65 39.45 L26.85 34.85 Q25.4 30.1 24.5 25.95 L25.4 25.05 Q26.1 28.45 26.95 31.25 L27.5 35.95 Q28.05 43.65 26.35 50.1 24.85 56.55 24.45 59.65 23.7 64.95 24.3 69.05 L24.45 73.2 24.8 106.25 Q25.0 112.65 24.2 125.6 23.35 138.35 23.6 144.85 L21.55 142.55 Q21.25 139.45 21.45 136.45 21.55 134.3 22.8 120.5 23.65 110.8 23.3 104.35 L23.45 72.1 Q22.9 65.6 24.4 55.65 L26.65 39.45" fill="#d99e58" fill-rule="evenodd" stroke="none"/>
      <path d="M29.3 37.5 L29.1 32.55 Q27.7 28.0 26.75 23.75 L29.3 21.4 31.25 29.95 Q31.9 32.15 31.85 35.1 L31.65 40.15 31.2 45.15 29.5 57.7 Q28.45 65.3 28.25 70.25 L28.45 85.85 Q28.4 88.7 28.7 94.5 L28.9 103.2 28.75 106.7 Q28.85 127.55 27.85 138.9 27.05 142.85 28.15 146.2 L28.35 149.5 24.45 145.7 23.75 140.35 Q23.45 137.35 23.9 135.0 25.3 129.65 25.2 121.0 25.05 110.15 25.4 107.0 L25.4 70.45 Q25.65 69.1 25.15 66.3 24.65 63.6 24.9 62.35 L27.85 49.95 Q29.25 43.05 29.3 37.5" fill="#d99e58" fill-rule="evenodd" stroke="none"/>
      <path d="M32.6 44.7 L32.8 39.55 Q32.4 32.55 30.7 20.2 L32.15 19.0 Q33.15 24.95 34.7 29.95 35.35 32.1 35.3 35.1 L35.15 40.2 34.55 45.25 32.45 57.9 Q31.3 65.35 31.5 70.65 L31.5 75.95 Q32.1 82.05 32.0 90.25 L31.7 104.35 31.65 109.05 31.85 126.6 Q32.05 137.3 31.0 144.15 L30.9 151.7 28.85 149.95 28.75 147.05 28.0 142.1 Q27.7 139.15 28.3 136.95 29.65 130.6 30.05 123.2 30.3 117.95 30.1 109.3 L29.85 105.15 29.8 94.55 Q29.85 88.0 29.45 84.0 L29.2 68.8 29.15 64.35 Q29.2 61.7 29.8 59.9 32.0 52.4 32.6 44.7" fill="#d99e58" fill-rule="evenodd" stroke="none"/>
      <path d="M36.3 36.95 L36.2 28.0 35.0 22.85 33.45 18.0 35.55 16.4 37.4 28.45 Q38.2 35.25 37.8 40.6 L37.5 45.4 36.6 57.35 Q36.1 64.45 36.05 69.2 L36.1 73.4 Q36.15 84.9 36.9 114.0 L37.0 118.45 Q37.25 126.5 36.9 133.55 L36.2 148.85 36.05 155.7 32.3 152.85 32.4 142.5 Q33.25 132.05 33.25 111.55 L33.15 68.4 Q33.2 63.15 34.3 54.95 L36.0 41.45 36.3 36.95" fill="#d99e58" fill-rule="evenodd" stroke="none"/>
      <path d="M39.5 38.7 L39.35 33.45 Q39.3 29.6 38.45 24.45 L36.85 15.45 Q39.55 13.6 41.95 12.2 42.8 18.25 42.85 26.7 L42.75 41.2 Q42.15 47.85 43.05 52.55 L43.15 53.05 Q43.5 57.2 45.0 64.85 46.55 73.0 46.95 76.6 47.8 84.2 46.5 90.3 44.8 101.45 44.4 114.1 44.1 123.85 44.55 137.65 L44.5 161.05 Q40.9 159.05 38.2 157.2 L38.4 119.65 38.75 69.75 38.7 64.65 Q39.7 49.45 39.5 38.7" fill="#d99e58" fill-rule="evenodd" stroke="none"/>
      <path d="M7.6 50.8 Q9.95 45.6 12.6 41.25 L12.45 53.8 12.45 66.5 12.2 76.75 11.7 98.1 11.7 102.35 Q11.25 106.55 11.4 114.0 11.55 122.0 11.3 125.55 L11.1 127.85 Q9.0 124.2 7.0 119.65 L6.8 111.9 Q6.65 107.1 6.85 103.95 L6.9 100.1 7.5 73.0 7.65 63.1 Q7.5 59.1 7.6 50.8" fill="#d99e58" fill-rule="evenodd" stroke="none"/>
      <path d="M0.2 90.0 L0.35 79.35 Q1.35 66.7 5.8 55.15 L4.8 105.7 Q5.05 109.2 4.95 114.4 0.8 102.55 0.2 90.0" fill="#d99e58" fill-rule="evenodd" stroke="none"/>
      <path d="M13.85 39.35 Q15.75 36.35 17.5 34.15 17.8 45.7 17.1 68.95 L17.0 73.7 16.65 97.3 16.65 102.0 16.55 118.05 Q16.55 127.55 15.05 134.0 L15.05 134.2 12.15 129.75 12.3 128.35 Q13.15 115.9 13.0 103.6 L12.95 99.15 Q12.95 88.1 13.25 77.0 L13.55 66.35 Q14.1 52.85 13.85 39.35" fill="#d99e58" fill-rule="evenodd" stroke="none"/>
      <path d="M43.7 36.8 Q45.05 29.35 45.2 23.85 45.35 16.85 43.65 11.15 L49.1 8.3 Q51.95 15.15 49.85 26.9 47.5 40.15 48.45 45.15 L50.45 55.45 52.3 65.55 Q53.4 85.1 52.95 103.3 L52.35 106.0 Q51.05 113.25 51.9 122.2 L53.2 131.0 Q53.75 135.9 53.6 139.65 L53.5 143.6 52.85 154.2 52.05 164.75 46.35 162.05 46.7 155.0 Q47.05 146.6 47.0 140.95 L46.9 137.4 Q46.2 134.05 45.75 129.7 44.7 115.65 46.75 97.45 L46.8 97.25 47.95 87.4 Q49.0 79.25 47.9 69.95 47.05 62.6 44.5 52.55 L43.4 47.6 Q43.3 43.9 43.7 36.8" fill="#d99e58" fill-rule="evenodd" stroke="none"/>
      <path d="M23.1 27.45 L23.9 36.5 Q24.05 42.7 23.05 54.6 22.1 66.8 22.15 72.65 L22.15 76.8 22.15 93.4 22.3 103.45 Q22.4 107.45 22.85 115.7 23.0 122.85 21.45 127.15 19.6 133.1 21.05 142.0 L16.4 136.15 Q16.5 133.9 17.05 132.05 18.45 126.8 18.1 117.75 17.7 106.7 18.05 103.05 L18.0 97.6 Q17.85 88.45 18.1 77.95 L18.25 73.0 18.4 67.6 Q18.45 62.7 19.05 52.4 19.7 42.5 19.65 37.25 L19.55 32.9 19.4 31.65 23.1 27.45" fill="#d99e58" fill-rule="evenodd" stroke="none"/>
      <path d="M63.25 3.4 L63.35 3.05 66.8 2.15 Q66.4 4.7 66.5 8.05 L66.85 12.0 Q67.6 15.25 67.6 22.1 L66.75 81.05 Q66.15 117.2 66.85 140.1 L67.0 146.15 67.1 150.2 Q66.85 154.1 67.15 159.95 L67.6 169.75 64.65 169.05 64.6 136.0 Q64.65 132.75 64.15 126.65 63.65 120.4 63.65 117.3 63.45 106.05 64.25 75.1 64.95 48.45 64.15 32.9 64.15 32.0 64.7 30.45 L65.6 28.0 Q65.9 23.8 64.95 17.7 L63.25 7.25 Q62.9 5.9 63.25 3.4" fill="#d99e58" fill-rule="evenodd" stroke="none"/>
      <path d="M62.65 23.1 Q63.3 19.7 62.15 15.35 L59.8 8.1 Q59.3 5.9 59.15 4.3 L61.7 3.5 61.7 5.45 62.2 8.8 Q64.15 18.75 64.15 30.45 L63.05 70.85 61.95 47.05 Q61.35 32.95 62.65 23.1" fill="#d99e58" fill-rule="evenodd" stroke="none"/>
      <path d="M0.1 85.85 L0.35 79.35 0.2 90.0 0.1 85.85" fill="#af6924" fill-rule="evenodd" stroke="none"/>
      <path d="M6.6 69.8 L5.85 101.5 5.75 106.05 5.7 116.4 4.95 114.4 Q5.05 109.2 4.8 105.7 L5.8 55.15 6.85 52.5 6.6 69.8" fill="#af6924" fill-rule="evenodd" stroke="none"/>
      <path d="M6.85 52.5 L7.6 50.8 Q7.5 59.1 7.65 63.1 L7.5 73.0 6.9 100.1 6.85 103.95 Q6.65 107.1 6.8 111.9 L7.0 119.65 6.0 117.15 5.85 105.75 6.85 52.5" fill="#af6924" fill-rule="evenodd" stroke="none"/>
      <path d="M12.6 41.25 L13.85 39.35 Q14.1 52.85 13.55 66.35 L13.25 77.0 Q12.95 88.1 12.95 99.15 L13.0 103.6 Q13.15 115.9 12.3 128.35 L12.15 129.75 11.1 127.85 11.3 125.55 Q11.55 122.0 11.4 114.0 11.25 106.55 11.7 102.35 L11.7 98.1 12.2 76.75 12.45 66.5 12.45 53.8 12.6 41.25" fill="#af6924" fill-rule="evenodd" stroke="none"/>
      <path d="M17.5 34.15 L19.4 31.65 19.55 32.9 19.65 37.25 Q19.7 42.5 19.05 52.4 18.45 62.7 18.4 67.6 L18.25 73.0 18.1 77.95 Q17.85 88.45 18.0 97.6 L18.05 103.05 Q17.7 106.7 18.1 117.75 18.45 126.8 17.05 132.05 16.5 133.9 16.4 136.15 L15.05 134.2 15.05 134.0 Q16.55 127.55 16.55 118.05 L16.65 102.0 16.65 97.3 17.0 73.7 17.1 68.95 Q17.8 45.7 17.5 34.15" fill="#af6924" fill-rule="evenodd" stroke="none"/>
      <path d="M23.9 36.5 L23.1 27.45 24.5 25.95 Q25.4 30.1 26.85 34.85 L26.65 39.45 24.4 55.65 Q22.9 65.6 23.45 72.1 L23.3 104.35 Q23.65 110.8 22.8 120.5 21.55 134.3 21.45 136.45 21.25 139.45 21.55 142.55 L21.05 142.0 Q19.6 133.1 21.45 127.15 23.0 122.85 22.85 115.7 22.4 107.45 22.3 103.45 L22.15 93.4 22.15 76.8 22.15 72.65 Q22.1 66.8 23.05 54.6 24.05 42.7 23.9 36.5" fill="#af6924" fill-rule="evenodd" stroke="none"/>
      <path d="M27.5 35.95 L26.95 31.25 Q26.1 28.45 25.4 25.05 L26.75 23.75 Q27.7 28.0 29.1 32.55 L29.3 37.5 Q29.25 43.05 27.85 49.95 L24.9 62.35 Q24.65 63.6 25.15 66.3 25.65 69.1 25.4 70.45 L25.4 107.0 Q25.05 110.15 25.2 121.0 25.3 129.65 23.9 135.0 23.45 137.35 23.75 140.35 L24.45 145.7 23.6 144.85 Q23.35 138.35 24.2 125.6 25.0 112.65 24.8 106.25 L24.45 73.2 24.3 69.05 Q23.7 64.95 24.45 59.65 24.85 56.55 26.35 50.1 28.05 43.65 27.5 35.95" fill="#af6924" fill-rule="evenodd" stroke="none"/>
      <path d="M31.65 40.15 L31.85 35.1 Q31.9 32.15 31.25 29.95 L29.3 21.4 30.7 20.2 Q32.4 32.55 32.8 39.55 L32.6 44.7 Q32.0 52.4 29.8 59.9 29.2 61.7 29.15 64.35 L29.2 68.8 29.45 84.0 Q29.85 88.0 29.8 94.55 L29.85 105.15 30.1 109.3 Q30.3 117.95 30.05 123.2 29.65 130.6 28.3 136.95 27.7 139.15 28.0 142.1 L28.75 147.05 28.85 149.95 28.35 149.5 28.15 146.2 Q27.05 142.85 27.85 138.9 28.85 127.55 28.75 106.7 L28.9 103.2 28.7 94.5 Q28.4 88.7 28.45 85.85 L28.25 70.25 Q28.45 65.3 29.5 57.7 L31.2 45.15 31.65 40.15" fill="#af6924" fill-rule="evenodd" stroke="none"/>
      <path d="M35.0 22.85 L36.2 28.0 36.3 36.95 36.0 41.45 34.3 54.95 Q33.2 63.15 33.15 68.4 L33.25 111.55 Q33.25 132.05 32.4 142.5 L32.3 152.85 30.9 151.7 31.0 144.15 Q32.05 137.3 31.85 126.6 L31.65 109.05 31.7 104.35 32.0 90.25 Q32.1 82.05 31.5 75.95 L31.5 70.65 Q31.3 65.35 32.45 57.9 L34.55 45.25 35.15 40.2 35.3 35.1 Q35.35 32.1 34.7 29.95 33.15 24.95 32.15 19.0 L33.45 18.0 35.0 22.85" fill="#af6924" fill-rule="evenodd" stroke="none"/>
      <path d="M39.2 38.85 L39.25 33.4 Q39.25 30.1 38.65 28.0 37.5 22.55 36.8 15.55 L36.85 15.45 38.45 24.45 Q39.3 29.6 39.35 33.45 L39.5 38.7 Q39.7 49.45 38.7 64.65 L38.75 69.75 38.4 119.65 38.2 157.2 37.05 156.4 37.45 149.45 37.75 120.25 Q37.7 114.7 38.1 95.0 38.35 79.25 38.0 69.75 L37.95 64.95 Q38.0 60.7 38.4 54.1 L39.05 43.25 39.2 38.85" fill="#af6924" fill-rule="evenodd" stroke="none"/>
      <path d="M37.8 40.6 Q38.2 35.25 37.4 28.45 L35.55 16.4 36.2 15.95 38.35 28.4 Q39.25 35.45 38.55 41.05 L38.15 45.7 37.05 57.2 Q36.6 63.7 37.0 68.65 L37.05 73.45 37.2 117.6 37.2 120.9 37.2 131.5 36.85 156.3 36.05 155.7 36.2 148.85 36.9 133.55 Q37.25 126.5 37.0 118.45 L36.9 114.0 Q36.15 84.9 36.1 73.4 L36.05 69.2 Q36.1 64.45 36.6 57.35 L37.5 45.4 37.8 40.6" fill="#af6924" fill-rule="evenodd" stroke="none"/>
      <path d="M38.55 41.05 Q39.25 35.45 38.35 28.4 L36.2 15.95 36.8 15.55 Q37.5 22.55 38.65 28.0 39.25 30.1 39.25 33.4 L39.2 38.85 39.05 43.25 38.4 54.1 Q38.0 60.7 37.95 64.95 L38.0 69.75 Q38.35 79.25 38.1 95.0 37.7 114.7 37.75 120.25 L37.2 147.55 37.2 131.5 37.2 120.9 37.2 117.6 37.05 73.45 37.0 68.65 Q36.6 63.7 37.05 57.2 L38.15 45.7 38.55 41.05" fill="#af6924" fill-rule="evenodd" stroke="none"/>
      <path d="M43.7 36.8 Q43.3 43.9 43.4 47.6 42.7 43.4 43.05 40.25 L43.7 36.8" fill="#af6924" fill-rule="evenodd" stroke="none"/>
      <path d="M45.8 108.2 Q45.0 119.95 45.75 129.7 45.0 122.35 45.4 113.6 L45.8 108.2" fill="#af6924" fill-rule="evenodd" stroke="none"/>
      <path d="M46.5 90.3 Q47.8 84.2 46.95 76.6 46.55 73.0 45.0 64.85 43.5 57.2 43.15 53.05 L44.95 60.35 47.15 73.45 47.45 80.0 Q47.65 86.95 45.55 108.05 43.8 125.75 45.4 136.6 L45.05 161.4 44.5 161.05 44.55 137.65 Q44.1 123.85 44.4 114.1 44.8 101.45 46.5 90.3" fill="#af6924" fill-rule="evenodd" stroke="none"/>
      <path d="M42.75 41.2 L42.85 26.7 Q42.8 18.25 41.95 12.2 L42.45 11.9 44.05 22.1 Q44.4 26.15 43.85 31.7 L42.75 41.2" fill="#af6924" fill-rule="evenodd" stroke="none"/>
      <path d="M46.4 140.65 L46.35 136.1 45.75 129.7 Q46.2 134.05 46.9 137.4 L47.0 140.95 Q47.05 146.6 46.7 155.0 L46.35 162.05 45.9 161.8 46.0 158.8 46.4 140.65" fill="#af6924" fill-rule="evenodd" stroke="none"/>
      <path d="M43.55 50.55 L43.4 47.6 44.5 52.55 Q47.05 62.6 47.9 69.95 49.0 79.25 47.95 87.4 L47.75 88.9 Q48.35 82.1 47.15 73.45 46.6 67.7 44.95 60.35 44.0 54.65 43.55 50.55" fill="#af6924" fill-rule="evenodd" stroke="none"/>
      <path d="M42.75 41.2 Q42.75 47.4 43.05 51.55 L43.15 53.05 43.05 52.55 Q42.15 47.85 42.75 41.2" fill="#af6924" fill-rule="evenodd" stroke="none"/>
      <path d="M43.7 36.8 L44.4 24.1 Q44.55 16.9 43.5 11.3 L43.65 11.15 Q45.35 16.85 45.2 23.85 45.05 29.35 43.7 36.8" fill="#af6924" fill-rule="evenodd" stroke="none"/>
      <path d="M43.5 11.3 Q44.55 16.9 44.4 24.1 L43.7 36.8 43.05 40.25 Q42.7 43.4 43.4 47.6 L43.55 50.55 Q44.0 54.65 44.95 60.35 L43.15 53.05 43.05 51.55 Q42.75 47.4 42.75 41.2 L43.85 31.7 Q44.4 26.15 44.05 22.1 L42.45 11.9 43.5 11.3" fill="#af6924" fill-rule="evenodd" stroke="none"/>
      <path d="M47.45 80.0 L47.15 73.45 Q48.35 82.1 47.75 88.9 L46.8 97.25 46.75 97.45 Q45.7 107.1 45.4 113.6 45.0 122.35 45.75 129.7 L46.35 136.1 46.4 140.65 46.0 158.8 45.9 161.8 45.05 161.4 45.4 136.6 Q43.8 125.75 45.55 108.05 47.65 86.95 47.45 80.0" fill="#af6924" fill-rule="evenodd" stroke="none"/>
      <path d="M55.3 76.6 L55.25 78.2 Q55.05 72.9 54.5 67.55 55.3 72.25 55.3 76.6" fill="#af6924" fill-rule="evenodd" stroke="none"/>
      <path d="M52.3 14.85 Q52.95 19.1 51.95 25.45 L50.4 35.4 50.05 36.8 Q48.9 41.15 49.45 44.2 50.0 48.25 51.7 55.15 L52.3 65.55 50.45 55.45 48.45 45.15 Q47.5 40.15 49.85 26.9 51.95 15.15 49.1 8.3 L50.05 7.9 50.25 8.55 51.0 10.15 52.3 14.85" fill="#af6924" fill-rule="evenodd" stroke="none"/>
      <path d="M52.35 117.8 Q52.2 120.1 52.55 123.15 53.0 129.45 54.45 135.2 L54.55 136.65 54.4 141.65 Q54.1 149.35 52.75 165.05 L52.05 164.75 52.85 154.2 53.5 143.6 53.6 139.65 Q53.75 135.9 53.2 131.0 L51.9 122.2 Q51.05 113.25 52.35 106.0 L52.95 103.3 52.85 106.1 Q52.35 112.7 52.4 117.6 L52.35 117.8" fill="#af6924" fill-rule="evenodd" stroke="none"/>
      <path d="M52.3 65.55 Q54.7 79.8 54.4 90.45 L52.95 103.3 Q53.4 85.1 52.3 65.55" fill="#af6924" fill-rule="evenodd" stroke="none"/>
      <path d="M53.25 101.6 Q54.15 96.35 54.4 90.45 L55.25 78.2 Q55.95 94.1 53.35 109.95 52.5 115.1 53.85 123.2 55.55 133.8 55.65 136.3 L55.65 140.6 55.0 153.1 54.1 165.6 53.35 165.3 54.25 153.1 Q54.7 145.95 54.75 140.9 L54.6 135.85 54.45 135.2 Q54.3 132.85 53.6 129.1 L52.55 123.15 52.4 117.6 52.85 106.1 53.25 101.6" fill="#af6924" fill-rule="evenodd" stroke="none"/>
      <path d="M51.0 10.15 L50.55 8.45 50.45 7.7 50.7 7.6 Q51.6 10.35 53.95 15.7 55.65 20.4 54.8 24.05 L52.95 29.25 50.85 34.2 52.15 30.2 53.35 26.05 Q54.05 21.4 52.3 14.85 51.95 12.6 51.0 10.15" fill="#af6924" fill-rule="evenodd" stroke="none"/>
      <path d="M54.5 67.55 Q53.9 64.1 51.7 55.15 L50.9 45.35 Q53.3 56.85 54.5 67.55" fill="#af6924" fill-rule="evenodd" stroke="none"/>
      <path d="M49.9 40.75 Q49.55 38.95 50.05 36.8 L50.4 35.5 Q50.2 38.15 50.4 39.8 L50.9 45.35 49.9 40.75" fill="#af6924" fill-rule="evenodd" stroke="none"/>
      <path d="M53.35 26.05 L52.15 30.2 50.8 34.25 50.4 35.4 51.95 25.45 Q52.95 19.1 52.3 14.85 54.05 21.4 53.35 26.05" fill="#af6924" fill-rule="evenodd" stroke="none"/>
      <path d="M54.6 135.85 L54.75 140.9 Q54.7 145.95 54.25 153.1 L53.35 165.3 52.75 165.05 Q54.1 149.35 54.4 141.65 L54.55 136.65 54.45 135.2 54.6 135.85" fill="#af6924" fill-rule="evenodd" stroke="none"/>
      <path d="M54.4 90.45 Q54.7 79.8 52.3 65.55 L51.7 55.15 Q53.9 64.1 54.5 67.55 55.05 72.9 55.25 78.2 L54.4 90.45" fill="#af6924" fill-rule="evenodd" stroke="none"/>
      <path d="M51.0 10.15 L50.25 8.55 50.05 7.9 50.45 7.7 50.55 8.45 51.0 10.15" fill="#af6924" fill-rule="evenodd" stroke="none"/>
      <path d="M61.2 28.0 Q62.0 23.75 60.05 16.7 57.9 8.9 58.05 5.4 L58.05 4.7 59.15 4.3 Q59.3 5.9 59.8 8.1 L62.15 15.35 Q63.3 19.7 62.65 23.1 61.35 32.95 61.95 47.05 L63.05 70.85 62.8 83.15 62.2 89.85 Q60.65 100.55 61.1 114.8 L62.2 139.5 62.15 144.75 61.4 168.15 60.9 168.0 Q61.1 148.95 61.6 142.15 L61.65 137.05 Q61.7 133.25 60.7 125.9 59.75 118.45 59.75 114.85 60.85 90.45 61.15 78.25 61.65 56.8 59.25 41.25 58.6 38.5 59.5 34.65 L61.2 28.0" fill="#af6924" fill-rule="evenodd" stroke="none"/>
      <path d="M61.7 3.5 L63.35 3.05 63.25 3.4 Q62.9 5.9 63.25 7.25 L64.95 17.7 Q65.9 23.8 65.6 28.0 L64.7 30.45 Q64.15 32.0 64.15 32.9 64.95 48.45 64.25 75.1 63.45 106.05 63.65 117.3 63.65 120.4 64.15 126.65 64.65 132.75 64.6 136.0 L64.65 169.05 63.6 168.8 63.55 143.5 63.5 139.6 Q62.3 115.5 62.8 83.15 63.2 77.5 63.05 70.85 L64.15 30.45 Q64.15 18.75 62.2 8.8 L61.7 5.45 61.7 3.5" fill="#af6924" fill-rule="evenodd" stroke="none"/>
      <path d="M66.8 2.15 L67.95 1.9 67.65 4.15 Q67.5 6.1 67.6 8.5 L67.95 12.85 Q68.7 33.0 67.6 75.15 66.55 116.05 67.55 137.65 L68.25 152.9 68.7 161.55 68.85 170.05 67.6 169.75 67.15 159.95 Q66.85 154.1 67.1 150.2 L67.0 146.15 66.85 140.1 Q66.15 117.2 66.75 81.05 L67.6 22.1 Q67.6 15.25 66.85 12.0 L66.5 8.05 Q66.4 4.7 66.8 2.15" fill="#af6924" fill-rule="evenodd" stroke="none"/>
      <path d="M70.95 46.15 Q70.85 22.9 71.05 14.3 L71.05 13.5 71.1 14.5 Q71.6 36.9 70.95 71.55 L70.35 99.1 70.55 78.05 Q71.1 66.4 70.95 46.15" fill="#af6924" fill-rule="evenodd" stroke="none"/>
      <path d="M72.05 1.15 L72.25 1.1 72.25 10.8 72.45 16.45 72.25 33.05 Q71.8 21.5 72.0 14.5 L72.05 1.15" fill="#af6924" fill-rule="evenodd" stroke="none"/>
      <path d="M71.05 1.3 L71.25 1.3 71.25 6.0 71.05 8.1 71.05 1.3" fill="#af6924" fill-rule="evenodd" stroke="none"/>
      <path d="M71.1 143.25 L71.45 150.2 72.15 160.45 72.65 170.7 72.45 170.7 72.45 170.4 Q71.55 161.45 71.2 149.45 L71.1 143.25 M70.75 100.25 Q70.75 78.6 71.8 63.1 71.0 113.2 71.05 138.35 L71.05 139.35 71.0 137.25 70.75 100.25" fill="#af6924" fill-rule="evenodd" stroke="none"/>
      <path d="M72.25 33.05 L72.55 46.45 Q72.55 53.85 72.0 59.9 L71.8 63.1 72.25 33.05" fill="#af6924" fill-rule="evenodd" stroke="none"/>
      <path d="M71.25 1.3 L72.05 1.15 72.0 14.5 Q71.8 21.5 72.25 33.05 L71.8 63.1 Q70.75 78.6 70.75 100.25 L71.0 137.25 71.2 149.45 Q71.55 161.45 72.45 170.4 L72.45 170.7 71.75 170.55 71.55 167.95 70.35 150.45 70.0 128.7 70.95 71.55 Q71.6 36.9 71.1 14.5 L71.05 8.1 71.25 6.0 71.25 1.3" fill="#af6924" fill-rule="evenodd" stroke="none"/>
      <path d="M76.85 0.5 L77.9 0.4 77.95 18.2 Q78.5 43.35 77.9 77.85 L76.6 137.45 76.4 142.45 76.55 147.45 76.65 152.05 76.95 158.25 78.0 171.35 76.8 171.25 76.8 171.05 76.4 161.8 75.8 152.6 75.35 141.9 75.35 135.8 76.7 76.6 Q77.2 43.9 76.85 17.35 L76.85 0.5" fill="#af6924" fill-rule="evenodd" stroke="none"/>
      <path d="M80.75 0.15 L81.65 0.1 81.7 21.7 Q82.35 43.8 81.7 80.0 80.9 125.2 80.95 138.15 L81.4 152.2 Q81.65 162.6 81.5 171.65 L80.4 171.55 80.5 166.25 Q80.7 160.7 80.05 152.35 L79.7 147.7 79.3 143.15 79.2 138.65 Q80.3 112.15 80.65 79.8 L80.8 20.9 80.75 0.15" fill="#af6924" fill-rule="evenodd" stroke="none"/>
      <path d="M83.25 0.05 L84.2 0.05 84.2 24.05 Q84.65 41.25 83.85 81.25 83.15 117.8 84.1 138.25 L84.05 153.25 83.6 171.7 82.8 171.7 82.8 150.6 82.95 140.6 82.9 135.65 Q81.95 125.25 82.75 109.25 L83.8 82.95 Q83.55 73.4 83.55 54.5 L83.3 26.25 83.25 0.05" fill="#af6924" fill-rule="evenodd" stroke="none"/>
      <path d="M91.55 0.2 L92.8 0.3 92.8 45.95 92.55 70.2 92.05 87.15 Q92.05 95.1 92.45 104.05 L92.65 109.65 92.45 126.7 Q92.45 136.8 93.0 144.05 L93.15 148.95 93.7 158.8 94.05 162.2 Q94.55 166.4 95.6 171.2 L93.65 171.4 Q92.55 165.65 92.1 162.0 L91.75 158.8 91.85 149.45 91.8 144.7 91.2 128.1 Q90.8 117.95 91.0 111.45 L91.1 106.65 90.95 101.3 Q90.8 95.6 91.0 90.65 L91.05 86.8 91.4 67.65 91.5 62.65 Q91.7 58.0 91.55 52.75 L91.55 0.2" fill="#af6924" fill-rule="evenodd" stroke="none"/>
      <path d="M95.0 0.45 L95.35 0.5 95.55 5.9 96.75 36.85 96.85 41.25 Q97.2 60.9 96.35 73.9 L95.75 83.6 Q95.6 85.65 95.6 87.75 95.0 92.65 95.8 98.3 L96.4 101.7 97.6 106.85 Q99.85 116.2 99.85 127.9 99.9 135.8 98.65 149.25 L98.05 162.1 Q98.2 165.95 98.85 170.8 L97.2 171.0 Q96.5 166.6 96.35 162.65 L96.3 159.4 97.55 147.9 Q98.8 136.4 98.65 127.7 98.5 116.8 96.25 107.9 L94.7 99.15 Q94.05 93.25 94.7 87.75 L95.65 74.9 Q96.55 68.1 96.3 59.15 L95.55 43.2 95.45 38.55 Q95.0 22.15 95.0 0.45" fill="#af6924" fill-rule="evenodd" stroke="none"/>
      <path d="M98.4 36.15 L98.25 7.85 98.15 0.85 98.75 0.95 99.15 14.75 99.55 36.8 Q100.2 59.4 99.3 78.45 L98.9 83.2 Q97.1 89.85 97.75 96.85 98.0 99.25 98.4 101.2 L100.2 106.5 Q104.25 115.9 103.8 129.15 103.55 136.55 101.0 152.05 L99.8 159.15 100.0 163.65 Q100.2 166.9 100.85 170.45 L99.6 170.65 Q98.85 167.45 98.55 164.15 L98.35 160.25 98.35 156.05 Q98.35 153.6 99.0 151.65 102.4 141.55 101.9 129.1 101.5 119.35 98.6 106.7 L97.55 101.9 96.95 97.55 Q96.25 90.75 97.1 84.45 L97.9 75.7 Q98.6 60.55 98.4 36.15" fill="#af6924" fill-rule="evenodd" stroke="none"/>
      <path d="M100.2 1.2 L101.9 1.5 Q101.75 10.25 101.85 21.2 L101.9 32.4 102.4 56.6 Q102.75 71.15 101.1 80.35 L100.8 84.95 100.45 88.35 100.3 91.7 100.55 97.2 Q100.8 100.35 101.45 102.6 L103.25 107.6 104.55 112.2 Q106.65 122.05 105.75 135.5 105.25 143.3 103.4 159.0 L103.25 163.45 Q103.2 166.0 103.75 167.85 L103.9 169.85 101.85 170.25 Q101.55 169.2 101.4 167.95 100.15 163.85 100.95 159.0 103.4 143.8 104.05 136.25 105.05 123.6 103.5 113.6 L102.25 108.8 100.6 104.05 99.1 100.0 99.1 95.6 99.85 82.45 100.1 77.3 Q100.95 68.75 101.05 57.45 L100.95 37.7 100.7 21.1 Q100.3 11.8 100.2 1.2" fill="#af6924" fill-rule="evenodd" stroke="none"/>
      <path d="M103.1 1.7 L105.2 2.2 104.9 35.2 105.5 57.15 Q105.9 70.3 105.3 78.8 L105.0 83.6 Q105.15 85.85 103.6 92.0 102.3 97.15 103.4 100.15 L104.9 104.85 106.2 109.5 Q108.9 121.7 108.3 137.7 108.05 144.65 105.95 166.1 L105.85 169.4 104.0 169.85 103.95 168.15 Q105.85 149.15 106.45 139.6 107.45 123.0 105.15 110.9 L103.0 100.9 Q101.95 94.8 101.65 90.25 101.75 87.65 102.1 85.0 L102.55 79.85 Q104.35 69.95 104.25 56.1 L103.55 31.9 103.45 26.05 Q102.85 15.2 103.1 1.7" fill="#af6924" fill-rule="evenodd" stroke="none"/>
      <path d="M109.8 3.4 L111.0 3.7 110.6 30.15 Q111.3 49.65 109.55 76.95 L109.2 82.2 Q108.75 89.2 109.35 98.5 L109.6 101.75 Q111.35 115.95 111.0 134.3 110.8 144.45 109.4 167.0 L109.4 168.5 108.7 168.65 108.75 167.45 Q108.65 162.65 109.7 135.5 110.45 115.95 108.55 103.7 L108.25 100.1 Q107.8 93.6 107.8 89.35 107.55 87.3 107.9 84.15 L108.45 78.95 108.8 74.05 Q109.3 64.95 109.35 52.05 L109.4 30.15 109.8 3.4" fill="#af6924" fill-rule="evenodd" stroke="none"/>
      <path d="M113.8 39.85 Q113.75 35.45 114.15 23.35 114.5 12.95 114.25 7.0 L114.25 4.8 115.25 5.15 Q115.15 31.2 114.85 44.45 L114.8 47.8 Q114.65 55.55 114.75 65.15 L114.5 75.55 Q114.0 84.1 113.85 93.9 L113.75 97.6 Q113.05 108.45 113.5 125.1 113.4 154.65 112.9 167.4 L111.95 167.75 111.95 167.4 112.2 163.95 Q113.4 150.9 112.95 131.6 112.2 110.05 112.15 99.35 L112.1 96.1 Q112.0 86.8 112.6 79.7 L112.85 75.2 113.45 61.65 113.55 56.2 113.75 45.3 113.8 39.85" fill="#af6924" fill-rule="evenodd" stroke="none"/>
      <path d="M116.2 46.35 Q115.95 38.35 116.2 26.0 L116.6 5.65 117.6 6.05 117.15 27.65 Q116.9 40.6 117.25 49.25 L117.25 53.95 Q117.35 66.15 116.95 73.5 L116.4 81.4 Q115.95 97.2 115.7 121.95 L115.2 162.45 114.8 166.75 113.05 167.35 113.35 164.8 Q114.05 156.15 113.95 144.9 L113.5 125.1 Q113.6 95.95 114.6 80.15 L115.25 70.9 Q116.0 61.75 116.15 50.45 L116.2 46.35" fill="#af6924" fill-rule="evenodd" stroke="none"/>
      <path d="M113.5 125.1 L113.95 144.9 Q114.05 156.15 113.35 164.8 L113.05 167.35 112.9 167.4 Q113.4 154.65 113.5 125.1" fill="#af6924" fill-rule="evenodd" stroke="none"/>
      <path d="M122.05 50.9 Q121.85 42.5 122.15 29.5 L122.55 8.2 124.1 8.95 123.8 31.2 123.55 53.4 123.4 76.25 123.45 82.35 Q122.75 94.95 120.75 119.75 119.35 141.6 120.6 157.05 L121.3 164.1 119.3 165.05 Q119.8 161.9 119.6 159.5 117.4 142.85 118.55 121.3 L121.55 83.4 121.75 78.9 121.75 74.4 121.85 69.65 122.0 55.5 122.05 50.9" fill="#af6924" fill-rule="evenodd" stroke="none"/>
      <path d="M124.55 51.5 Q124.5 43.6 124.75 30.45 L125.1 9.45 125.75 9.8 125.55 32.8 Q125.5 45.9 125.95 55.85 L126.05 60.6 126.1 72.55 126.05 76.55 125.95 82.5 125.4 88.4 Q118.35 126.5 123.05 160.0 L123.4 163.15 121.6 164.0 121.55 161.95 Q120.9 130.85 121.0 125.15 121.25 103.95 124.35 88.35 L124.65 82.4 124.45 76.4 124.55 51.5" fill="#af6924" fill-rule="evenodd" stroke="none"/>
      <path d="M123.9 150.65 Q122.9 143.15 122.9 135.15 123.2 142.3 123.9 150.65" fill="#af6924" fill-rule="evenodd" stroke="none"/>
      <path d="M125.0 157.05 L125.85 161.9 125.0 162.35 123.9 150.65 Q124.4 154.25 125.0 157.05" fill="#af6924" fill-rule="evenodd" stroke="none"/>
      <path d="M126.8 33.4 L126.4 10.1 127.35 10.65 127.7 35.0 128.05 59.4 127.75 72.3 Q127.95 77.75 127.55 84.1 L127.2 88.0 124.45 111.35 Q122.85 125.4 122.9 135.15 121.7 108.2 126.9 88.2 L127.05 84.6 127.05 73.55 127.2 56.55 126.8 33.4" fill="#af6924" fill-rule="evenodd" stroke="none"/>
      <path d="M134.2 21.45 L134.8 28.5 136.5 40.9 Q134.6 32.15 134.2 21.45" fill="#af6924" fill-rule="evenodd" stroke="none"/>
      <path d="M134.2 69.8 L135.35 60.7 136.85 54.25 134.55 74.45 Q135.0 80.2 134.6 86.1 L134.3 89.9 134.15 90.75 134.15 87.6 133.85 80.85 Q133.7 76.85 133.9 73.9 L134.2 69.8" fill="#af6924" fill-rule="evenodd" stroke="none"/>
      <path d="M135.15 92.7 L135.9 82.85 135.9 85.7 135.8 89.9 135.3 94.25 134.2 100.6 Q134.6 96.3 135.15 92.7" fill="#af6924" fill-rule="evenodd" stroke="none"/>
      <path d="M134.15 92.05 L132.45 101.75 Q127.8 130.2 132.5 154.4 126.65 127.95 132.45 99.95 L134.15 90.75 134.15 92.05" fill="#af6924" fill-rule="evenodd" stroke="none"/>
      <path d="M138.25 51.55 Q138.05 44.3 137.15 33.6 L135.55 15.8 135.8 16.0 137.8 36.6 Q138.8 48.65 138.15 57.35 L135.9 82.85 136.05 73.9 Q136.25 69.4 136.75 63.95 L137.25 58.95 Q137.25 57.7 137.75 55.25 L138.25 51.55" fill="#af6924" fill-rule="evenodd" stroke="none"/>
      <path d="M133.6 109.1 Q133.25 119.7 133.9 132.6 134.3 141.2 135.5 155.95 L134.9 156.4 Q133.9 147.2 132.35 139.4 131.05 132.25 131.55 123.5 131.75 119.05 133.1 108.0 L133.75 103.4 134.2 100.6 133.9 103.6 133.6 109.1" fill="#af6924" fill-rule="evenodd" stroke="none"/>
      <path d="M136.5 40.9 L137.25 44.2 Q138.25 48.2 136.85 54.25 137.25 48.25 136.5 40.9" fill="#af6924" fill-rule="evenodd" stroke="none"/>
      <path d="M134.8 28.5 L134.2 21.45 134.0 14.7 135.55 15.8 137.15 33.6 Q138.05 44.3 138.25 51.55 L137.75 55.25 Q137.25 57.7 137.25 58.95 L136.75 63.95 Q136.25 69.4 136.05 73.9 L135.15 92.7 Q134.6 96.3 134.2 100.6 L133.75 103.4 133.1 108.0 Q131.75 119.05 131.55 123.5 131.05 132.25 132.35 139.4 133.9 147.2 134.9 156.4 L133.2 157.55 132.5 154.4 Q127.8 130.2 132.45 101.75 L134.15 92.05 134.15 90.75 134.3 89.9 134.6 86.1 Q135.0 80.2 134.55 74.45 L136.85 54.25 Q138.25 48.2 137.25 44.2 L136.5 40.9 134.8 28.5" fill="#af6924" fill-rule="evenodd" stroke="none"/>
      <path d="M141.7 39.8 Q140.4 31.15 140.05 19.2 L140.9 19.9 141.2 24.55 Q141.45 29.95 142.45 40.75 143.15 50.4 142.35 57.05 L142.05 61.75 141.0 75.45 140.8 78.9 Q141.05 84.45 140.95 90.05 L140.85 93.75 140.85 98.6 140.65 103.5 139.2 120.25 Q138.35 130.2 139.25 136.95 L140.45 152.2 139.15 153.2 Q138.4 138.05 138.25 129.9 138.0 116.95 138.65 106.45 L139.2 92.65 139.35 80.4 139.5 77.05 Q139.8 71.8 140.8 60.55 L141.2 55.95 Q142.2 45.45 141.7 39.8" fill="#af6924" fill-rule="evenodd" stroke="none"/>
      <path d="M146.15 24.7 L147.55 26.1 147.75 106.15 Q147.25 116.0 147.25 126.85 146.95 135.9 147.05 146.15 L145.8 147.4 Q145.2 123.95 146.55 106.5 L146.55 98.4 146.2 86.55 146.55 56.05 146.15 24.7" fill="#af6924" fill-rule="evenodd" stroke="none"/>
      <path d="M147.55 26.1 L148.9 27.55 Q148.55 49.35 148.55 55.45 L148.65 60.65 149.2 84.05 149.25 92.95 149.6 97.65 149.5 106.9 Q148.4 115.35 148.3 125.65 148.25 133.05 148.75 144.35 L147.4 145.8 147.25 126.85 Q147.6 116.1 148.2 106.9 L147.65 94.05 147.55 26.1" fill="#af6924" fill-rule="evenodd" stroke="none"/>
      <path d="M148.2 106.9 Q147.6 116.1 147.25 126.85 147.25 116.0 147.75 106.15 L147.55 90.6 148.2 106.9" fill="#af6924" fill-rule="evenodd" stroke="none"/>
      <path d="M150.55 51.0 Q150.55 43.1 151.2 30.1 L151.9 30.9 Q150.85 46.6 151.1 55.0 L151.5 59.9 152.3 71.65 152.95 83.5 153.05 106.65 152.85 111.1 Q151.85 121.55 152.8 139.7 L151.4 141.4 Q151.2 134.25 151.4 124.25 L151.75 107.25 151.9 82.5 151.4 69.3 150.7 56.05 150.55 51.0" fill="#af6924" fill-rule="evenodd" stroke="none"/>
      <path d="M153.75 50.65 Q153.25 49.1 153.3 47.15 L153.45 43.7 154.75 34.5 155.45 35.45 Q154.55 44.55 154.6 50.5 L154.9 55.2 Q155.4 61.2 157.4 74.15 157.7 76.5 157.6 79.8 L157.4 85.65 157.6 91.1 157.9 96.0 157.7 114.0 157.25 133.7 155.8 135.75 Q155.3 121.9 156.2 111.95 L156.25 87.25 Q156.7 80.7 155.8 71.55 L154.15 55.9 153.75 50.65" fill="#af6924" fill-rule="evenodd" stroke="none"/>
      <path d="M159.2 48.65 L159.25 43.6 159.35 41.3 160.85 43.9 Q160.35 54.2 162.7 65.6 163.3 69.6 163.35 72.85 L163.1 75.6 163.6 106.1 Q163.4 113.8 163.55 122.4 L163.55 122.65 162.8 124.25 162.05 79.2 160.5 63.8 Q159.35 54.0 159.2 48.65" fill="#af6924" fill-rule="evenodd" stroke="none"/>
      <path d="M162.45 46.9 L162.55 53.6 162.85 58.2 Q163.1 61.1 163.55 63.05 L164.45 67.9 164.45 73.35 165.15 96.1 165.25 118.9 163.95 121.8 Q163.7 113.2 164.05 107.2 L163.35 75.6 163.35 72.85 Q163.65 69.9 163.25 68.25 L162.7 65.6 161.2 55.05 Q160.55 49.0 161.1 44.35 L162.45 46.9" fill="#af6924" fill-rule="evenodd" stroke="none"/>
      <path d="M163.25 68.25 Q163.65 69.9 163.35 72.85 163.3 69.6 162.7 65.6 L163.25 68.25" fill="#af6924" fill-rule="evenodd" stroke="none"/>
      <path d="M166.95 69.1 L166.95 63.4 Q166.45 59.9 166.1 55.0 L168.05 60.55 169.05 107.65 167.6 112.5 167.55 92.95 166.95 69.1" fill="#af6924" fill-rule="evenodd" stroke="none"/>
      <path d="M146.6 25.75 Q158.5 37.65 165.05 53.05 171.8 69.0 171.8 86.45 171.8 103.9 165.05 119.85 158.5 135.3 146.6 147.2 134.7 159.05 119.3 165.6 103.35 172.35 85.9 172.35 68.45 172.35 52.5 165.6 37.1 159.05 25.2 147.2 13.3 135.3 6.75 119.85 0.0 103.9 0.0 86.45 0.0 69.0 6.75 53.05 13.3 37.65 25.2 25.75 37.1 13.9 52.5 7.35 68.45 0.6 85.9 0.6 103.35 0.6 119.3 7.35 134.7 13.9 146.6 25.75" fill="url(#gradient0)" fill-rule="evenodd" stroke="none"/>
      <path d="M85.95 13.35 Q100.7 13.35 114.2 19.05 127.2 24.55 137.25 34.6 147.3 44.6 152.8 57.65 158.5 71.1 158.5 85.85 158.5 100.6 152.8 114.1 147.3 127.15 137.25 137.15 116.0 158.4 85.95 158.4 71.2 158.4 57.75 152.7 44.7 147.2 34.7 137.15 24.65 127.1 19.15 114.1 13.45 100.6 13.45 85.85 13.45 71.1 19.15 57.65 24.65 44.6 34.7 34.6 44.7 24.55 57.75 19.05 71.2 13.35 85.95 13.35" fill="url(#gradient1)" fill-rule="evenodd" stroke="none"/>
      <path d="M132.6 39.85 Q152.0 59.25 152.0 86.65 152.0 114.05 132.6 133.45 113.2 152.85 85.8 152.85 58.4 152.85 39.0 133.45 19.6 114.05 19.6 86.65 19.6 59.25 39.0 39.85 58.4 20.45 85.8 20.45 113.2 20.45 132.6 39.85" fill="url(#gradient2)" fill-rule="evenodd" stroke="none"/>
      <path d="M132.0 40.45 Q112.9 21.3 85.8 21.3 58.75 21.3 39.6 40.45 20.45 59.6 20.45 86.65 20.45 113.75 39.6 132.85 58.75 152.0 85.8 152.0 112.9 152.0 132.0 132.85 151.15 113.75 151.15 86.65 151.15 59.6 132.0 40.45 M60.15 24.7 Q72.35 19.65 85.8 19.65 99.2 19.65 111.45 24.7 123.65 29.75 133.2 39.25 142.7 48.75 147.75 61.0 152.8 73.2 152.8 86.65 152.8 100.05 147.75 112.3 142.7 124.5 133.2 134.05 123.7 143.55 111.45 148.6 99.2 153.65 85.8 153.65 72.35 153.65 60.15 148.6 47.9 143.55 38.4 134.05 28.9 124.55 23.85 112.3 18.8 100.1 18.8 86.65 18.8 73.2 23.85 61.0 28.9 48.75 38.4 39.25 47.9 29.75 60.15 24.7" fill="#22480e" fill-rule="evenodd" stroke="none"/>
      <path d="M127.85 42.55 Q145.25 59.95 145.25 84.5 145.25 109.05 127.85 126.45 110.45 143.85 85.8 143.85 61.15 143.85 43.75 126.45 26.35 109.05 26.35 84.5 26.35 59.95 43.75 42.55 61.15 25.15 85.8 25.15 110.45 25.15 127.85 42.55" fill="url(#gradient3)" fill-rule="evenodd" stroke="none"/>
      <path d="M45.55 48.05 Q46.8 46.95 48.35 47.05 L49.6 47.3 50.8 47.75 51.8 47.05 Q52.8 46.35 54.2 46.35 L55.85 46.8 55.9 46.85 Q58.05 48.1 57.9 50.45 L57.85 51.7 58.85 52.45 Q60.75 54.0 60.25 56.3 60.0 57.55 59.1 58.4 L57.45 59.3 56.25 59.65 55.85 60.8 54.8 62.4 Q53.85 63.2 52.6 63.4 L52.0 63.4 Q51.25 63.4 50.35 62.95 49.45 62.5 48.9 61.65 L48.2 60.55 46.9 60.55 Q45.8 60.5 44.9 59.9 44.0 59.3 43.55 58.3 43.05 57.3 43.2 56.2 43.35 55.05 44.05 54.2 L44.85 53.25 44.5 52.0 Q44.15 50.95 44.45 49.9 44.75 48.8 45.55 48.05" fill="url(#gradient4)" fill-rule="evenodd" stroke="none"/>
      <path d="M45.55 48.05 Q46.8 46.95 48.35 47.05 L49.6 47.3 50.8 47.75 51.8 47.05 Q52.8 46.35 54.2 46.35 L55.85 46.8 55.9 46.85 Q58.05 48.1 57.9 50.45 L57.85 51.7 58.85 52.45 Q60.75 54.0 60.25 56.3 60.0 57.55 59.1 58.4 L57.45 59.3 56.25 59.65 55.85 60.8 54.8 62.4 Q53.85 63.2 52.6 63.4 L52.0 63.4 Q51.25 63.4 50.35 62.95 49.45 62.5 48.9 61.65 L48.2 60.55 46.9 60.55 Q45.8 60.5 44.9 59.9 44.0 59.3 43.55 58.3 43.05 57.3 43.2 56.2 43.35 55.05 44.05 54.2 L44.85 53.25 44.5 52.0 Q44.15 50.95 44.45 49.9 44.75 48.8 45.55 48.05 Z" fill="none" stroke="#ecf8bd" stroke-linecap="butt" stroke-linejoin="miter" stroke-width="0.25"/>
      <path d="M46.6 51.4 Q46.25 50.4 47.05 49.7 47.75 49.0 48.8 49.35 L51.05 50.25 53.05 48.85 54.85 48.8 Q55.7 49.25 55.7 50.35 L55.55 52.75 57.5 54.25 Q58.35 54.85 58.1 55.9 L57.6 56.8 56.9 57.15 54.55 57.8 53.75 60.1 53.3 60.75 52.35 61.2 Q51.35 61.3 50.75 60.45 L49.45 58.4 47.0 58.35 Q45.95 58.25 45.55 57.35 45.1 56.45 45.75 55.6 L47.3 53.7 46.6 51.4" fill="#22480e" fill-rule="evenodd" stroke="none"/>
      <path d="M54.45 49.45 Q54.95 49.8 54.9 50.3 L54.75 53.1 57.0 54.85 Q57.45 55.2 57.35 55.75 L57.05 56.2 56.7 56.4 53.95 57.15 53.0 59.8 52.75 60.2 52.25 60.4 Q51.75 60.5 51.4 60.0 L49.85 57.65 47.05 57.55 Q46.5 57.55 46.25 57.05 46.0 56.5 46.35 56.1 L48.15 53.9 47.35 51.15 Q47.2 50.65 47.6 50.25 L48.55 50.1 51.15 51.1 53.5 49.5 54.45 49.45" fill="url(#gradient5)" fill-rule="evenodd" stroke="none"/>
      <path d="M48.55 50.1 L51.15 51.1 53.5 49.5 54.45 49.45 Q54.95 49.8 54.9 50.3 L54.75 53.1 57.0 54.85 Q57.45 55.2 57.35 55.75 L57.05 56.2 56.7 56.4 56.8 56.15 Q56.9 55.55 56.45 55.25 L54.2 53.5 54.35 50.7 Q54.45 50.1 53.9 49.85 L52.95 49.9 50.65 51.5 48.0 50.5 47.5 50.45 47.6 50.25 48.55 50.1" fill="#f5fad7" fill-rule="evenodd" stroke="none"/>
      <path d="M114.05 51.7 L114.0 50.45 Q113.85 48.05 115.95 46.85 L116.05 46.8 117.7 46.35 Q119.1 46.35 120.1 47.05 L121.1 47.75 122.3 47.3 123.5 47.05 Q125.05 47.0 126.3 48.05 127.15 48.8 127.45 49.9 127.75 50.95 127.4 52.0 L127.05 53.25 127.85 54.2 Q128.55 55.05 128.7 56.2 128.85 57.3 128.35 58.3 127.9 59.3 127.0 59.9 126.1 60.5 125.0 60.55 L123.7 60.55 123.0 61.65 Q122.45 62.5 121.55 62.95 L119.9 63.4 119.25 63.4 Q118.05 63.15 117.1 62.4 116.35 61.65 116.05 60.8 L115.65 59.65 114.4 59.3 Q113.45 59.05 112.8 58.4 111.95 57.6 111.6 56.3 111.2 54.0 113.05 52.45 L114.05 51.7" fill="url(#gradient6)" fill-rule="evenodd" stroke="none"/>
      <path d="M114.05 51.7 L114.0 50.45 Q113.85 48.05 115.95 46.85 L116.05 46.8 117.7 46.35 Q119.1 46.35 120.1 47.05 L121.1 47.75 122.3 47.3 123.5 47.05 Q125.05 47.0 126.3 48.05 127.15 48.8 127.45 49.9 127.75 50.95 127.4 52.0 L127.05 53.25 127.85 54.2 Q128.55 55.05 128.7 56.2 128.85 57.3 128.35 58.3 127.9 59.3 127.0 59.9 126.1 60.5 125.0 60.55 L123.7 60.55 123.0 61.65 Q122.45 62.5 121.55 62.95 L119.9 63.4 119.25 63.4 Q118.05 63.15 117.1 62.4 116.35 61.65 116.05 60.8 L115.65 59.65 114.4 59.3 Q113.45 59.05 112.8 58.4 111.95 57.6 111.6 56.3 111.2 54.0 113.05 52.45 L114.05 51.7 Z" fill="none" stroke="#ecf8bd" stroke-linecap="butt" stroke-linejoin="miter" stroke-width="0.25"/>
      <path d="M125.3 51.4 L124.6 53.7 126.15 55.6 Q126.75 56.35 126.35 57.35 125.95 58.25 124.9 58.35 L122.45 58.4 121.15 60.45 Q120.55 61.3 119.55 61.2 L118.6 60.75 118.15 60.1 117.35 57.8 115.0 57.15 114.3 56.8 Q113.85 56.35 113.8 55.9 113.55 54.85 114.4 54.25 L116.35 52.75 116.2 50.35 Q116.1 49.3 117.05 48.8 L118.8 48.85 120.8 50.25 123.1 49.35 Q124.1 49.0 124.8 49.7 125.55 50.3 125.3 51.4" fill="#22480e" fill-rule="evenodd" stroke="none"/>
      <path d="M117.45 49.45 L118.4 49.5 120.7 51.1 123.35 50.1 Q123.85 49.9 124.3 50.25 124.7 50.65 124.55 51.15 L123.75 53.9 125.5 56.1 Q125.9 56.5 125.65 57.05 125.4 57.55 124.85 57.55 L122.0 57.65 120.5 60.0 Q120.2 60.5 119.6 60.4 119.4 60.4 119.1 60.2 L118.9 59.8 117.95 57.15 115.2 56.4 114.8 56.2 114.55 55.75 Q114.45 55.15 114.9 54.85 L117.15 53.1 117.0 50.3 Q116.95 49.8 117.45 49.45" fill="url(#gradient7)" fill-rule="evenodd" stroke="none"/>
      <path d="M117.7 53.5 L115.45 55.25 Q115.0 55.55 115.1 56.15 L115.2 56.4 114.8 56.2 114.55 55.75 Q114.45 55.15 114.9 54.85 L117.15 53.1 117.0 50.3 Q116.95 49.8 117.45 49.45 L118.4 49.5 120.7 51.1 123.35 50.1 Q123.85 49.9 124.3 50.25 L124.4 50.45 123.9 50.5 121.25 51.5 118.9 49.9 118.0 49.85 Q117.5 50.1 117.5 50.7 L117.7 53.5" fill="#f5fad7" fill-rule="evenodd" stroke="none"/>
      <path d="M73.75 51.2 Q75.5 53.55 78.55 53.55 80.85 53.55 82.45 52.3 84.35 50.85 84.35 48.15 L80.85 48.15 Q79.8 48.15 79.15 47.5 78.5 46.85 78.5 45.8 78.5 44.75 79.2 44.1 79.85 43.45 80.85 43.45 L86.65 43.45 Q89.65 43.45 89.65 46.75 89.65 51.75 86.65 54.95 83.55 58.25 78.55 58.25 73.45 58.25 70.1 54.6 66.85 51.05 66.85 45.7 66.85 40.35 70.1 36.8 73.4 33.2 78.55 33.2 82.35 33.2 85.15 34.7 87.9 36.15 87.9 38.0 87.9 39.1 87.3 39.75 86.7 40.4 85.8 40.4 84.9 40.4 83.0 39.15 81.05 37.9 78.55 37.9 75.5 37.9 73.75 40.25 72.15 42.4 72.15 45.7 72.15 49.05 73.75 51.2" fill="#eff4d9" fill-rule="evenodd" stroke="none"/>
      <path d="M96.85 43.25 L102.1 43.25 Q103.25 43.25 103.95 44.0 104.55 44.65 104.55 45.6 104.55 46.55 103.95 47.2 103.25 47.95 102.1 47.95 L96.85 47.95 96.85 55.35 Q96.85 56.6 96.1 57.3 95.4 58.0 94.3 58.0 93.2 58.0 92.5 57.3 91.75 56.6 91.75 55.35 L91.75 36.25 Q91.75 35.15 92.45 34.4 93.2 33.6 94.4 33.6 L103.1 33.6 Q104.15 33.6 104.8 34.35 105.35 35.0 105.35 35.95 105.35 36.9 104.8 37.55 104.2 38.3 103.1 38.3 L96.85 38.3 96.85 43.25" fill="#eff4d9" fill-rule="evenodd" stroke="none"/>
      <path d="M73.75 50.2 Q75.5 52.55 78.55 52.55 80.85 52.55 82.45 51.3 84.35 49.85 84.35 47.15 L80.85 47.15 Q79.8 47.15 79.15 46.5 78.5 45.85 78.5 44.8 78.5 43.75 79.2 43.1 79.85 42.45 80.85 42.45 L86.65 42.45 Q89.65 42.45 89.65 45.75 89.65 50.75 86.65 53.95 83.55 57.25 78.55 57.25 73.45 57.25 70.1 53.6 66.85 50.05 66.85 44.7 66.85 39.35 70.1 35.8 73.4 32.2 78.55 32.2 82.35 32.2 85.15 33.7 87.9 35.15 87.9 37.0 87.9 38.1 87.3 38.75 86.7 39.4 85.8 39.4 84.9 39.4 83.0 38.15 81.05 36.9 78.55 36.9 75.5 36.9 73.75 39.25 72.15 41.4 72.15 44.7 72.15 48.05 73.75 50.2" fill="url(#gradient8)" fill-rule="evenodd" stroke="none"/>
      <path d="M96.85 42.25 L102.1 42.25 Q103.25 42.25 103.95 43.0 104.55 43.65 104.55 44.6 104.55 45.55 103.95 46.2 103.25 46.95 102.1 46.95 L96.85 46.95 96.85 54.35 Q96.85 55.6 96.1 56.3 95.4 57.0 94.3 57.0 93.2 57.0 92.5 56.3 91.75 55.6 91.75 54.35 L91.75 35.25 Q91.75 34.15 92.45 33.4 93.2 32.6 94.4 32.6 L103.1 32.6 Q104.15 32.6 104.8 33.35 105.35 34.0 105.35 34.95 105.35 35.9 104.8 36.55 104.2 37.3 103.1 37.3 L96.85 37.3 96.85 42.25" fill="url(#gradient9)" fill-rule="evenodd" stroke="none"/>
      <path d="M108.25 78.1 Q106.5 77.7 105.6 76.25 L105.55 76.25 Q104.3 76.4 102.55 77.05 101.45 78.8 99.4 79.1 L98.2 79.1 97.6 79.45 Q96.45 80.0 95.25 79.85 L95.0 79.85 Q89.45 81.6 82.75 82.05 L82.45 82.05 Q82.1 83.55 80.85 84.5 79.6 85.45 78.05 85.45 76.7 85.45 75.55 84.65 74.45 83.9 73.9 82.65 L72.95 81.95 68.9 81.4 Q68.05 82.25 66.8 82.55 L64.05 82.25 Q62.7 81.7 61.95 80.45 L61.4 79.35 60.2 78.65 59.2 105.4 59.1 116.3 59.15 117.65 59.15 117.7 Q59.85 118.25 61.7 118.75 64.75 119.65 69.7 119.95 L69.7 119.9 70.3 118.85 Q70.9 117.65 72.1 117.0 73.3 116.35 74.65 116.4 75.55 113.95 78.15 113.55 79.6 113.3 80.9 113.95 82.2 114.65 82.9 116.0 L83.0 116.25 83.05 116.3 84.1 119.0 84.15 119.2 89.2 117.65 93.65 115.65 Q97.9 113.7 99.5 113.1 L99.8 111.1 Q100.1 109.55 101.3 108.55 102.55 107.5 104.15 107.5 105.75 107.45 107.0 108.45 108.25 109.45 108.6 111.0 L108.65 111.2 112.85 111.6 Q113.8 111.8 114.7 112.45 L114.2 108.25 113.85 84.25 113.8 83.7 113.2 83.8 Q111.5 83.9 110.15 82.95 108.8 81.9 108.45 80.25 L108.4 80.2 108.4 80.05 108.3 79.55 Q108.15 78.95 108.25 78.15 L108.25 78.1 M104.6 67.35 L104.65 67.3 104.7 67.3 109.05 67.45 Q109.65 67.5 110.3 67.85 L111.75 68.05 113.15 68.55 Q113.7 68.75 114.25 69.15 114.9 69.3 115.4 69.6 120.6 72.6 122.1 78.6 L122.1 78.7 122.55 80.95 122.55 81.05 122.65 82.0 122.8 84.75 123.05 106.45 123.6 111.2 123.6 111.3 123.65 111.5 124.4 119.05 124.4 119.35 124.45 122.25 Q124.2 126.6 120.9 128.1 119.05 129.0 115.55 129.0 L112.4 129.1 Q110.5 129.1 109.25 127.85 108.25 126.95 107.95 125.5 L107.7 123.9 107.65 120.25 105.65 120.55 103.6 121.2 Q101.45 121.9 97.55 123.75 93.5 125.7 90.9 126.65 86.65 128.15 81.8 128.7 L79.5 128.4 77.75 128.85 76.65 128.9 74.9 129.05 73.05 128.9 71.8 129.05 Q59.45 128.6 54.4 125.35 L54.1 125.2 Q52.35 124.25 51.25 122.35 50.0 120.1 50.15 117.2 L50.15 117.0 50.2 105.3 51.45 72.25 Q51.4 70.8 52.35 69.45 53.15 67.7 54.7 66.95 L55.0 66.7 Q58.15 63.75 62.8 63.75 L64.05 63.85 Q66.4 64.15 67.5 66.3 L67.85 66.95 Q68.55 68.45 68.2 69.9 L67.9 72.0 75.2 73.05 76.4 73.15 77.05 73.15 77.95 73.3 78.95 73.15 82.15 73.05 Q88.1 72.7 93.1 71.05 L93.75 70.9 96.1 69.95 Q96.5 69.7 96.9 69.65 L97.3 69.45 99.05 68.75 Q102.15 67.55 104.6 67.35 M110.05 79.85 L108.4 80.2 110.05 79.85" fill="url(#gradient10)" fill-rule="evenodd" stroke="none"/>
      <path d="M104.6 67.35 L104.65 67.3 104.7 67.3 109.05 67.45 Q109.65 67.5 110.3 67.85 L111.75 68.05 113.15 68.55 Q113.7 68.75 114.25 69.15 114.9 69.3 115.4 69.6 120.6 72.6 122.1 78.6 L122.1 78.7 122.55 80.95 122.55 81.05 122.65 82.0 122.8 84.75 123.05 106.45 123.6 111.2 123.6 111.3 123.65 111.5 124.4 119.05 124.4 119.35 124.45 122.25 Q124.2 126.6 120.9 128.1 119.05 129.0 115.55 129.0 L112.4 129.1 Q110.5 129.1 109.25 127.85 108.25 126.95 107.95 125.5 L107.7 123.9 107.65 120.25 105.65 120.55 103.6 121.2 Q101.45 121.9 97.55 123.75 93.5 125.7 90.9 126.65 86.65 128.15 81.8 128.7 L79.5 128.4 77.75 128.85 76.65 128.9 74.9 129.05 73.05 128.9 71.8 129.05 Q59.45 128.6 54.4 125.35 L54.1 125.2 Q52.35 124.25 51.25 122.35 50.0 120.1 50.15 117.2 L50.15 117.0 50.2 105.3 51.45 72.25 Q51.4 70.8 52.35 69.45 53.15 67.7 54.7 66.95 L55.0 66.7 Q58.15 63.75 62.8 63.75 L64.05 63.85 Q66.4 64.15 67.5 66.3 L67.85 66.95 Q68.55 68.45 68.2 69.9 L67.9 72.0 75.2 73.05 76.4 73.15 77.05 73.15 77.95 73.3 78.95 73.15 82.15 73.05 Q88.1 72.7 93.1 71.05 L93.75 70.9 96.1 69.95 Q96.5 69.7 96.9 69.65 L97.3 69.45 99.05 68.75 Q102.15 67.55 104.6 67.35" fill="none" stroke="#ecf8bd" stroke-linecap="butt" stroke-linejoin="miter" stroke-width="0.25"/>
      <path d="M108.25 78.1 Q106.5 77.7 105.6 76.25 L105.55 76.25 Q104.3 76.4 102.55 77.05 101.45 78.8 99.4 79.1 L98.2 79.1 97.6 79.45 Q96.45 80.0 95.25 79.85 L95.0 79.85 Q89.45 81.6 82.75 82.05 L82.45 82.05 Q82.1 83.55 80.85 84.5 79.6 85.45 78.05 85.45 76.7 85.45 75.55 84.65 74.45 83.9 73.9 82.65 L72.95 81.95 68.9 81.4 Q68.05 82.25 66.8 82.55 L64.05 82.25 Q62.7 81.7 61.95 80.45 L61.4 79.35 60.2 78.65 59.2 105.4 59.1 116.3 59.15 117.65 59.15 117.7 Q59.85 118.25 61.7 118.75 64.75 119.65 69.7 119.95 L69.7 119.9 70.3 118.85 Q70.9 117.65 72.1 117.0 73.3 116.35 74.65 116.4 75.55 113.95 78.15 113.55 79.6 113.3 80.9 113.95 82.2 114.65 82.9 116.0 L83.0 116.25 83.05 116.3 84.1 119.0 84.15 119.2 89.2 117.65 93.65 115.65 Q97.9 113.7 99.5 113.1 L99.8 111.1 Q100.1 109.55 101.3 108.55 102.55 107.5 104.15 107.5 105.75 107.45 107.0 108.45 108.25 109.45 108.6 111.0 L108.65 111.2 112.85 111.6 Q113.8 111.8 114.7 112.45 L114.2 108.25 113.85 84.25 113.8 83.7 113.2 83.8 Q111.5 83.9 110.15 82.95 108.8 81.9 108.45 80.25 L108.4 80.2" fill="none" stroke="#ecf8bd" stroke-linecap="butt" stroke-linejoin="miter" stroke-width="0.25"/>
      <path d="M108.4 80.2 L108.4 80.05 108.3 79.55 Q108.15 78.95 108.25 78.15 L108.25 78.1 M108.4 80.2 L110.05 79.85" fill="none" stroke="#ecf8bd" stroke-linecap="round" stroke-linejoin="miter" stroke-width="0.25"/>
      <path d="M100.8 73.95 L99.85 74.35 99.7 74.85 Q99.6 75.5 98.9 75.6 98.25 75.75 97.9 75.15 L96.65 75.65 96.6 75.7 Q96.55 76.05 96.1 76.3 L95.3 76.3 94.85 76.35 94.6 76.35 Q89.1 78.1 82.5 78.55 L79.75 78.65 79.3 80.15 79.25 80.45 79.2 80.55 79.05 81.15 Q78.85 81.95 78.05 81.95 77.3 81.95 77.1 81.15 L76.8 79.55 76.1 79.75 Q75.35 79.75 75.2 79.0 L75.1 78.6 66.9 77.45 66.8 78.25 Q66.7 78.95 66.05 79.1 65.4 79.25 64.95 78.65 L64.45 77.4 64.35 76.85 64.15 76.65 62.7 76.1 Q62.0 75.85 62.1 75.1 62.3 71.7 62.75 69.25 60.3 69.25 58.8 70.7 L57.65 71.75 57.35 71.95 57.1 72.3 56.95 72.45 56.95 72.5 Q55.7 101.9 55.7 105.35 L55.6 116.8 55.65 117.25 Q55.45 119.35 56.6 120.3 L57.0 120.5 Q60.45 123.1 71.45 123.5 L72.05 122.8 73.4 120.45 Q73.75 119.75 74.5 119.9 75.2 120.05 75.3 120.8 L75.25 122.85 75.35 123.45 75.3 123.5 76.95 123.35 77.0 123.35 77.85 117.85 Q77.95 117.1 78.7 117.0 79.4 116.85 79.75 117.55 L79.85 117.7 80.7 119.85 80.8 120.25 81.9 123.15 Q85.85 122.6 89.35 121.35 L95.2 118.8 Q99.05 116.9 101.9 115.95 L102.8 115.7 Q102.85 113.8 103.2 111.8 103.35 111.0 104.2 111.0 105.05 111.0 105.2 111.75 L105.8 114.25 105.8 114.4 105.85 114.45 106.0 114.95 108.95 114.7 112.1 115.0 Q112.8 115.15 112.9 115.9 L113.25 123.55 115.5 123.5 118.45 123.25 Q118.9 123.0 118.95 121.9 L118.85 118.95 118.85 118.75 117.7 107.9 117.3 84.45 117.2 82.65 116.8 80.0 Q115.85 76.5 113.25 74.75 L113.15 76.0 Q113.05 76.8 112.2 76.9 111.3 76.9 111.15 76.1 L110.6 73.45 110.55 73.45 110.3 74.1 Q110.05 74.7 109.4 74.8 108.7 74.9 108.45 74.25 L107.7 72.8 Q106.45 72.65 105.25 72.8 103.5 72.95 101.05 73.9 L100.8 73.95 M98.6 72.7 L100.25 72.05 Q102.8 71.05 105.0 70.8 L108.5 70.9 109.2 71.4 109.4 71.75 Q109.85 71.35 110.4 71.35 L110.8 71.4 111.9 71.8 Q112.4 71.95 112.5 72.5 L113.3 72.5 113.65 72.65 Q117.5 74.8 118.7 79.5 L119.1 81.4 119.1 81.45 119.2 82.45 119.3 84.55 119.55 106.7 120.9 119.05 120.9 119.3 120.95 122.05 Q120.85 124.35 119.3 125.05 L115.5 125.5 112.4 125.6 111.7 125.35 Q111.4 125.05 111.4 124.6 L111.2 124.0 110.95 116.85 105.55 117.05 104.7 116.85 104.1 117.4 102.55 117.85 Q100.15 118.65 96.05 120.6 L89.75 123.35 Q85.85 124.7 81.4 125.2 80.6 125.3 80.35 124.6 L79.3 121.85 78.95 123.85 78.55 124.6 78.5 124.65 Q78.35 125.25 77.6 125.35 L76.35 125.45 74.25 125.55 Q73.8 125.55 73.5 125.25 73.2 124.95 73.2 124.55 L72.85 124.95 Q72.6 125.55 71.9 125.55 60.25 125.2 56.0 122.25 L55.75 122.15 54.6 121.05 Q53.55 119.6 53.65 117.5 L53.65 117.4 53.7 105.35 54.3 88.6 55.0 72.1 Q54.95 71.7 55.45 71.1 55.7 70.15 56.6 70.0 L57.4 69.25 Q59.0 67.75 61.45 67.4 L63.6 67.3 64.35 67.85 64.7 68.55 64.8 69.2 64.6 70.5 64.15 74.5 65.0 74.8 65.4 75.05 65.7 75.35 66.5 75.25 Q70.3 76.3 75.3 76.6 L76.15 76.7 76.55 76.65 77.0 76.65 Q77.45 76.65 77.7 77.0 L78.0 77.4 78.05 77.4 Q78.2 76.65 79.0 76.65 L82.4 76.55 Q88.85 76.1 94.2 74.35 L94.65 74.3 94.95 74.35 95.5 73.9 97.55 73.1 98.2 73.0 98.6 72.7 M113.7 78.3 L113.85 78.95 113.85 79.3 113.6 79.95 Q113.35 80.25 112.95 80.3 L112.85 80.3 Q112.0 80.3 111.85 79.55 L111.85 79.4 111.75 78.9 Q111.6 78.1 112.3 77.75 113.05 77.4 113.55 78.1 L113.7 78.3" fill="#22480e" fill-rule="evenodd" stroke="none"/>
      <path d="M111.25 108.3 L111.1 105.95 112.65 107.3 Q114.1 108.55 116.55 112.3 119.65 117.05 119.9 120.1 120.1 123.15 118.35 123.65 L112.2 124.0 Q112.3 121.35 111.8 114.65 L111.25 108.3" fill="url(#gradient11)" fill-rule="evenodd" stroke="none"/>
      <path d="M115.9 83.25 L112.0 77.65 112.35 73.65 Q112.4 73.5 112.8 73.5 L113.15 73.5 115.2 77.25 115.9 83.25" fill="#cabc99" fill-rule="evenodd" stroke="none"/>
      <path d="M110.3 78.95 L99.8 80.3 97.55 75.5 97.55 74.9 Q97.65 74.25 98.0 74.0 98.3 73.8 98.75 74.65 L99.6 76.0 Q100.3 76.65 101.95 74.65 L108.8 75.55 109.3 73.85 Q109.65 72.8 110.1 72.45 L110.45 72.35 110.3 78.95" fill="#cabc99" fill-rule="evenodd" stroke="none"/>
      <path d="M96.05 77.9 L94.6 77.35 94.55 76.45 Q94.55 75.5 95.0 75.35 95.7 75.15 96.15 75.75 L96.5 76.45 96.05 77.9" fill="#cabc99" fill-rule="evenodd" stroke="none"/>
      <path d="M75.75 77.7 L76.0 78.1 76.4 79.85 76.95 77.65 77.6 78.45 77.9 80.1 Q78.25 82.15 78.95 84.35 L75.25 83.95 75.05 81.0 Q74.85 78.25 75.15 77.8 75.45 77.35 75.75 77.7" fill="#cabc99" fill-rule="evenodd" stroke="none"/>
      <path d="M67.1 79.8 L67.65 84.05 66.0 84.15 65.2 82.8 64.5 81.25 64.7 75.75 65.3 76.4 65.45 77.25 Q65.6 78.05 67.1 79.8" fill="#cabc99" fill-rule="evenodd" stroke="none"/>
      <path d="M101.9 96.15 L118.2 94.2 Q118.1 106.0 118.7 110.1 120.45 121.7 119.9 122.2 119.05 120.1 116.85 118.3 112.35 114.7 105.35 116.05 104.65 114.25 104.25 112.2 L104.25 111.85 Q103.8 113.9 103.8 116.3 L103.8 116.45 102.25 116.9 Q101.3 117.2 92.85 121.0 87.2 123.55 81.25 124.25 L79.9 120.6 Q79.45 117.95 78.95 117.35 L77.95 123.65 77.55 124.35 74.2 124.55 74.2 124.05 Q74.2 123.7 74.7 122.2 75.15 120.8 75.05 120.25 L74.85 119.55 Q74.6 119.65 74.7 119.95 L72.95 123.3 72.45 123.85 71.95 124.55 Q59.6 124.15 56.1 121.05 L55.45 118.2 55.9 116.55 55.95 116.5 55.1 117.65 56.0 96.35 63.25 96.8 74.45 97.2 85.6 97.35 101.9 96.15" fill="#b6a081" fill-rule="evenodd" stroke="none"/>
      <path d="M112.3 123.95 L118.1 123.4 Q119.7 122.75 119.05 119.8 L119.95 120.8 Q120.15 123.85 118.45 124.3 L112.4 124.6 112.3 123.95" fill="#b6a081" fill-rule="evenodd" stroke="none"/>
      <path d="M118.1 119.35 L119.55 120.55 Q120.0 121.4 118.85 123.75 L118.55 124.15 118.9 123.1 Q119.4 121.9 118.8 120.5 L118.1 119.35" fill="#b6a081" fill-rule="evenodd" stroke="none"/>
      <path d="M99.0 73.6 Q102.0 72.4 103.5 72.05 L108.35 71.9 109.65 74.5 110.45 72.35 111.55 72.75 112.85 79.35 113.0 74.55 113.15 73.5 Q116.15 75.2 117.4 78.55 118.3 81.05 118.3 85.1 L118.25 96.9 Q118.3 105.1 118.75 108.7 L119.95 120.75 Q119.1 118.6 116.8 116.8 112.15 113.15 104.9 114.75 L104.25 112.2 Q103.9 110.55 103.9 110.1 103.55 110.5 103.55 111.05 103.1 112.6 102.9 115.3 L102.3 115.5 92.55 119.7 Q86.6 122.3 80.75 122.95 L79.9 120.6 Q79.0 117.95 78.5 117.35 L77.6 123.15 74.25 123.2 74.25 120.4 74.05 119.7 Q73.85 119.85 73.9 120.15 L72.6 123.15 Q60.0 122.6 56.3 119.65 56.4 118.9 56.0 118.8 55.65 118.65 55.65 118.05 L55.9 117.25 55.95 116.45 55.1 117.65 56.05 95.9 56.4 80.0 56.4 71.4 56.65 71.05 Q57.0 70.85 57.75 71.85 58.35 72.65 59.95 73.6 61.95 74.85 64.7 75.75 L64.75 76.6 Q64.9 78.35 65.65 80.4 65.8 77.6 66.0 76.75 L66.2 76.2 Q70.55 77.4 75.6 77.6 L76.0 79.55 76.05 79.05 76.5 77.65 76.95 77.65 Q77.1 79.15 77.8 82.6 77.85 81.65 78.35 79.85 L79.0 77.65 82.45 77.55 Q89.05 77.1 94.5 75.3 L95.0 75.35 95.55 75.8 95.85 74.85 98.0 74.0 98.6 77.05 98.6 75.6 99.0 73.6" fill="url(#gradient12)" fill-rule="evenodd" stroke="none"/>
      <path d="M81.1 114.4 L81.2 113.75 81.65 113.55 82.05 113.25 83.3 112.3 84.85 110.3 85.9 107.95 86.15 110.75 85.75 109.2 Q85.5 109.25 84.85 110.55 L84.1 112.1 83.45 113.1 Q82.95 113.85 82.95 114.15 82.95 114.75 83.85 116.25 L85.0 118.05 86.9 121.75 83.7 122.5 80.15 118.3 79.65 117.75 Q80.45 116.9 81.1 114.4" fill="#d9ceae" fill-rule="evenodd" stroke="none"/>
      <path d="M88.0 121.25 L87.8 121.4 87.7 119.85 88.0 121.25" fill="#d9ceae" fill-rule="evenodd" stroke="none"/>
      <path d="M72.9 89.65 Q73.45 88.3 73.9 87.75 L74.6 87.1 75.9 94.45 77.05 100.25 76.3 101.85 74.5 102.05 73.5 101.85 72.5 101.55 72.15 101.45 71.2 99.8 70.3 98.5 Q69.75 97.6 69.75 97.05 L70.1 95.55 70.7 93.0 71.0 91.75 71.15 91.4 71.8 90.85 72.9 89.65" fill="#d9cfae" fill-rule="evenodd" stroke="none"/>
      <path d="M61.8 108.25 L63.85 108.25 Q65.15 108.4 67.1 109.25 L67.5 109.45 67.65 109.9 68.4 114.05 68.85 116.9 Q68.65 117.0 68.5 117.95 L67.95 119.2 67.55 120.2 Q67.35 120.65 67.5 121.2 L67.85 122.15 68.05 122.5 Q68.25 122.6 69.35 121.9 L70.35 121.3 70.85 121.6 71.75 122.85 71.75 123.1 Q59.85 122.5 56.3 119.65 56.4 118.9 56.0 118.8 55.65 118.65 55.65 118.05 L55.9 117.25 55.95 116.45 55.1 117.65 55.55 107.1 61.8 108.25" fill="#d5c6a1" fill-rule="evenodd" stroke="none"/>
      <path d="M57.75 71.85 Q58.4 72.75 60.4 73.9 L65.25 79.15 65.35 79.55 65.3 81.3 Q65.55 83.0 66.85 84.3 67.1 84.6 67.4 84.55 L68.05 84.45 68.25 85.15 68.65 88.0 Q68.4 87.75 68.1 87.75 L65.2 87.05 Q62.5 85.8 61.1 85.5 L60.5 85.35 56.15 92.3 56.4 78.3 56.4 71.4 56.65 71.05 Q57.0 70.85 57.75 71.85" fill="#d5c6a1" fill-rule="evenodd" stroke="none"/>
      <path d="M68.8 89.35 L69.0 90.7 69.0 90.8 68.5 91.5 67.0 94.15 65.45 97.35 65.55 98.6 65.45 101.25 65.35 102.05 64.35 102.75 59.8 104.7 58.85 104.9 58.7 104.9 Q57.65 104.25 56.65 102.4 L55.8 100.7 55.9 98.15 55.95 98.15 62.35 98.5 64.35 98.45 64.6 97.8 64.95 97.1 65.75 95.05 Q66.1 93.4 67.15 91.5 L68.75 89.4 68.8 89.35" fill="#d5c6a1" fill-rule="evenodd" stroke="none"/>
      <path d="M97.7 104.2 L97.95 104.5 99.4 105.8 102.8 107.95 102.5 111.15 102.45 115.45 102.3 115.5 Q100.35 116.15 95.0 118.55 L94.95 118.2 Q94.6 116.7 93.05 114.55 L92.45 113.8 92.05 112.95 91.9 110.55 Q91.7 109.15 91.85 108.75 L92.25 108.6 93.95 107.05 95.65 105.4 Q96.75 104.45 97.7 104.2" fill="#f1e5ca" fill-rule="evenodd" stroke="none"/>
      <path d="M94.5 82.7 L95.0 83.35 95.9 87.05 96.35 89.45 96.4 89.55 91.0 97.15 90.85 96.9 90.6 95.6 89.4 92.6 88.9 91.4 88.8 90.95 88.75 88.85 Q88.65 86.1 88.8 84.7 88.8 83.85 88.95 83.55 L89.3 83.15 89.8 82.3 90.15 81.35 91.0 79.55 91.4 80.1 94.5 82.7" fill="#f1e5ca" fill-rule="evenodd" stroke="none"/>
      <path d="M80.8 98.1 L83.9 99.35 84.05 99.6 84.1 99.85 84.65 100.85 86.05 103.75 86.55 105.4 83.9 109.85 82.0 110.05 81.6 108.85 80.05 105.75 79.5 104.8 79.6 104.05 80.3 99.6 80.45 98.1 80.8 98.1" fill="#eee2c7" fill-rule="evenodd" stroke="none"/>
      <path d="M74.25 82.95 L75.25 83.95 76.45 85.4 77.8 86.75 78.3 87.15 78.65 87.65 78.65 88.25 78.65 89.65 78.45 92.6 78.3 95.6 78.4 98.4 77.45 102.45 77.45 102.3 75.9 94.45 74.6 87.1 74.25 83.8 Q74.0 83.35 74.25 82.95" fill="#e6dbba" fill-rule="evenodd" stroke="none"/>
      <path d="M115.5 78.25 L116.6 76.9 Q118.3 79.75 118.3 85.1 L118.25 96.9 Q118.3 105.1 118.75 108.7 L119.9 119.9 Q117.9 117.35 116.25 115.95 L115.5 115.4 115.5 111.3 Q116.45 111.5 117.1 110.9 L117.45 109.95 117.3 108.9 116.65 106.9 116.3 105.55 115.75 104.25 115.6 104.1 115.45 98.0 Q114.25 95.95 113.9 93.1 L113.45 93.0 113.9 91.25 114.15 89.5 Q114.2 87.75 113.4 85.55 L111.75 81.8 Q112.15 81.7 112.8 81.05 L115.5 78.25" fill="#f6ead0" fill-rule="evenodd" stroke="none"/>
      <path d="M107.05 98.4 Q106.55 97.35 106.6 97.1 L107.5 95.7 109.0 93.5 109.85 91.65 111.75 92.7 113.45 93.0 113.9 93.1 Q114.25 95.95 115.45 98.0 L115.65 106.5 114.4 106.6 111.7 106.5 111.35 106.3 111.15 105.9 109.15 102.15 107.05 98.4" fill="#ede5cb" fill-rule="evenodd" stroke="none"/>
      <path d="M99.0 73.6 Q102.85 72.0 105.15 71.8 103.8 74.5 102.8 78.8 102.35 80.55 102.05 82.5 101.8 83.75 101.9 84.3 101.5 83.95 101.4 83.35 100.25 80.7 99.4 77.75 L98.75 74.65 99.0 73.6" fill="#dad4b6" fill-rule="evenodd" stroke="none"/>
      <path d="M77.45 80.7 L72.0 80.7 65.7 79.65 65.75 79.2 72.1 80.25 Q74.35 80.45 77.35 80.3 L77.45 80.7" fill="url(#gradient13)" fill-rule="evenodd" stroke="none"/>
      <path d="M65.35 79.55 Q62.8 78.75 60.9 77.6 L59.5 76.55 56.4 74.9 56.4 74.25 59.5 76.0 60.85 77.05 Q62.7 78.25 65.2 79.05 L65.35 79.55" fill="url(#gradient14)" fill-rule="evenodd" stroke="none"/>
      <path d="M112.25 76.45 Q109.75 75.55 106.75 75.65 103.9 75.7 101.05 76.75 97.5 78.05 91.05 79.2 L78.15 80.7 78.25 80.25 89.15 79.05 98.6 77.0 101.2 76.2 Q104.0 75.15 106.75 75.0 109.65 74.85 112.1 75.75 L112.25 76.45" fill="url(#gradient15)" fill-rule="evenodd" stroke="none"/>
      <path d="M117.15 80.15 Q115.45 77.85 112.95 76.75 L112.95 76.1 Q115.6 77.25 117.35 79.7 L117.95 80.6 118.1 81.6 117.15 80.15" fill="url(#gradient16)" fill-rule="evenodd" stroke="none"/>
      <path d="M119.4 114.45 Q117.3 111.9 113.15 110.9 109.4 110.0 104.0 111.0 L103.9 110.25 Q109.25 109.35 113.0 110.15 117.2 111.15 119.35 113.75 L119.4 114.45" fill="url(#gradient17)" fill-rule="evenodd" stroke="none"/>
      <path d="M78.7 117.7 Q83.1 116.9 86.75 115.55 L94.3 112.8 Q99.7 111.0 103.8 110.3 103.55 110.65 103.55 111.05 L103.5 111.1 Q99.45 111.85 94.25 113.7 L86.85 116.5 79.15 118.65 78.7 117.7" fill="url(#gradient18)" fill-rule="evenodd" stroke="none"/>
      <path d="M64.65 118.25 L78.45 117.75 78.25 118.8 64.7 119.3 Q61.55 118.55 59.45 117.5 56.9 116.2 55.25 114.15 L55.3 113.35 Q57.0 115.3 59.5 116.55 61.55 117.55 64.65 118.25" fill="url(#gradient19)" fill-rule="evenodd" stroke="none"/>
      <path d="M101.05 76.75 Q103.9 75.7 106.75 75.65 109.75 75.55 112.25 76.45 L112.85 79.35 112.95 76.75 Q115.45 77.85 117.15 80.15 L118.1 81.6 118.3 85.1 118.25 96.9 Q118.3 105.1 118.75 108.7 L119.35 113.75 Q117.2 111.15 113.0 110.15 109.25 109.35 103.9 110.25 L103.9 110.1 103.8 110.3 Q99.7 111.0 94.3 112.8 L86.75 115.55 Q83.1 116.9 78.7 117.7 L78.5 117.35 78.45 117.75 64.65 118.25 Q61.55 117.55 59.5 116.55 57.0 115.3 55.3 113.35 L56.05 95.9 Q56.4 87.9 56.4 74.9 L59.5 76.55 60.9 77.6 Q62.8 78.75 65.35 79.55 L65.65 80.4 65.7 79.65 72.0 80.7 77.45 80.7 77.8 82.6 78.15 80.7 91.05 79.2 Q97.5 78.05 101.05 76.75" fill="url(#gradient20)" fill-rule="evenodd" stroke="none"/>
      <path d="M101.05 76.75 Q103.9 75.7 106.75 75.65 109.75 75.55 112.25 76.45 L112.85 79.35 112.95 76.75 Q115.45 77.85 117.15 80.15 L118.1 81.6 118.3 85.1 118.25 96.9 Q118.3 105.1 118.75 108.7 L119.35 113.75 Q117.2 111.15 113.0 110.15 109.25 109.35 103.9 110.25 L103.9 110.1 103.8 110.3 Q99.7 111.0 94.3 112.8 L86.75 115.55 Q83.1 116.9 78.7 117.7 L78.5 117.35 78.45 117.75 64.65 118.25 Q61.55 117.55 59.5 116.55 57.0 115.3 55.3 113.35 L56.05 95.9 Q56.4 87.9 56.4 74.9 L59.5 76.55 60.9 77.6 Q62.8 78.75 65.35 79.55 L65.65 80.4 65.7 79.65 72.0 80.7 77.45 80.7 77.8 82.6 78.15 80.7 91.05 79.2 Q97.5 78.05 101.05 76.75" fill="#7daeae" fill-rule="evenodd" stroke="none"/>
    </g>
    <linearGradient gradientTransform="matrix(0.0, -0.1048, -0.1048, 0.0, 85.9, 86.45)" gradientUnits="userSpaceOnUse" id="gradient0" spreadMethod="pad" x1="-819.2" x2="819.2">
      <stop offset="0.0196078431372549" stop-color="#7f3a06"/>
      <stop offset="0.12549019607843137" stop-color="#8e5524" stop-opacity="0.8509804"/>
      <stop offset="0.3568627450980392" stop-color="#ad8965" stop-opacity="0.54901963"/>
      <stop offset="0.5686274509803921" stop-color="#c6b39a" stop-opacity="0.3137255"/>
      <stop offset="0.7529411764705882" stop-color="#d8d0c0" stop-opacity="0.14117648"/>
      <stop offset="0.8980392156862745" stop-color="#e3e3d8" stop-opacity="0.03529412"/>
      <stop offset="0.9882352941176471" stop-color="#e7e9e0" stop-opacity="0.0"/>
    </linearGradient>
    <linearGradient gradientTransform="matrix(0.0, -0.0885, -0.0885, 0.0, 85.95, 85.85)" gradientUnits="userSpaceOnUse" id="gradient1" spreadMethod="pad" x1="-819.2" x2="819.2">
      <stop offset="0.0" stop-color="#eed9c2"/>
      <stop offset="0.08627450980392157" stop-color="#e5ccb5" stop-opacity="0.8745098"/>
      <stop offset="0.3176470588235294" stop-color="#d0ae97" stop-opacity="0.5921569"/>
      <stop offset="0.5176470588235295" stop-color="#c39c84" stop-opacity="0.41960785"/>
      <stop offset="0.6549019607843137" stop-color="#bf967e" stop-opacity="0.35686275"/>
      <stop offset="1.0" stop-color="#582d22"/>
    </linearGradient>
    <linearGradient gradientTransform="matrix(0.0, -0.0808, -0.0808, 0.0, 85.8, 86.65)" gradientUnits="userSpaceOnUse" id="gradient2" spreadMethod="pad" x1="-819.2" x2="819.2">
      <stop offset="0.07450980392156863" stop-color="#6c9726"/>
      <stop offset="0.2196078431372549" stop-color="#82b13a"/>
      <stop offset="0.3686274509803922" stop-color="#9dcf52"/>
      <stop offset="0.5882352941176471" stop-color="#cee03a"/>
      <stop offset="0.8117647058823529" stop-color="#d4e237"/>
      <stop offset="1.0" stop-color="#fdeeb0"/>
    </linearGradient>
    <radialGradient cx="0" cy="0" gradientTransform="matrix(0.0725, 0.0, 0.0, -0.0725, 85.8, 84.5)" gradientUnits="userSpaceOnUse" id="gradient3" r="819.2" spreadMethod="pad">
      <stop offset="0.0" stop-color="#fdeeb0"/>
      <stop offset="0.18823529411764706" stop-color="#d4e237"/>
      <stop offset="0.5137254901960784" stop-color="#cee03a"/>
      <stop offset="1.0" stop-color="#a0d051" stop-opacity="0.5372549"/>
    </radialGradient>
    <linearGradient gradientTransform="matrix(0.0048, -0.0091, -0.0091, -0.0048, 51.8, 54.2)" gradientUnits="userSpaceOnUse" id="gradient4" spreadMethod="pad" x1="-819.2" x2="819.2">
      <stop offset="0.07450980392156863" stop-color="#6b9724"/>
      <stop offset="0.25882352941176473" stop-color="#82b139"/>
      <stop offset="0.4470588235294118" stop-color="#9dcf52"/>
      <stop offset="0.9647058823529412" stop-color="#dae772"/>
    </linearGradient>
    <linearGradient gradientTransform="matrix(0.0031, -0.0058, -0.0058, -0.0031, 51.8, 54.2)" gradientUnits="userSpaceOnUse" id="gradient5" spreadMethod="pad" x1="-819.2" x2="819.2">
      <stop offset="0.0" stop-color="#edbf35"/>
      <stop offset="0.29411764705882354" stop-color="#f0ca31"/>
      <stop offset="0.803921568627451" stop-color="#f9e728"/>
      <stop offset="0.9647058823529412" stop-color="#fcf226"/>
    </linearGradient>
    <linearGradient gradientTransform="matrix(0.0048, 0.0091, -0.0091, 0.0048, 120.05, 54.2)" gradientUnits="userSpaceOnUse" id="gradient6" spreadMethod="pad" x1="-819.2" x2="819.2">
      <stop offset="0.07450980392156863" stop-color="#6b9724"/>
      <stop offset="0.25882352941176473" stop-color="#82b139"/>
      <stop offset="0.4470588235294118" stop-color="#9dcf52"/>
      <stop offset="0.9647058823529412" stop-color="#dae772"/>
    </linearGradient>
    <linearGradient gradientTransform="matrix(-0.0061, -0.0026, 0.0026, -0.0061, 120.05, 54.2)" gradientUnits="userSpaceOnUse" id="gradient7" spreadMethod="pad" x1="-819.2" x2="819.2">
      <stop offset="0.0" stop-color="#edbf35"/>
      <stop offset="0.29411764705882354" stop-color="#f0ca31"/>
      <stop offset="0.803921568627451" stop-color="#f9e728"/>
      <stop offset="0.9647058823529412" stop-color="#fcf226"/>
    </linearGradient>
    <linearGradient gradientTransform="matrix(0.0, -0.0143, -0.0143, 0.0, 78.25, 44.8)" gradientUnits="userSpaceOnUse" id="gradient8" spreadMethod="pad" x1="-819.2" x2="819.2">
      <stop offset="0.14901960784313725" stop-color="#0e2904"/>
      <stop offset="0.30196078431372547" stop-color="#143004"/>
      <stop offset="0.5176470588235295" stop-color="#244304"/>
      <stop offset="0.7764705882352941" stop-color="#3e6206"/>
      <stop offset="0.9686274509803922" stop-color="#567e09"/>
    </linearGradient>
    <linearGradient gradientTransform="matrix(0.0, -0.0143, -0.0143, 0.0, 98.55, 44.8)" gradientUnits="userSpaceOnUse" id="gradient9" spreadMethod="pad" x1="-819.2" x2="819.2">
      <stop offset="0.14901960784313725" stop-color="#0e2904"/>
      <stop offset="0.30196078431372547" stop-color="#143004"/>
      <stop offset="0.5176470588235295" stop-color="#244304"/>
      <stop offset="0.7764705882352941" stop-color="#3e6206"/>
      <stop offset="0.9686274509803922" stop-color="#567e09"/>
    </linearGradient>
    <linearGradient gradientTransform="matrix(0.0, -0.0347, -0.0347, 0.0, 87.3, 98.4)" gradientUnits="userSpaceOnUse" id="gradient10" spreadMethod="pad" x1="-819.2" x2="819.2">
      <stop offset="0.07450980392156863" stop-color="#6b9724"/>
      <stop offset="0.25882352941176473" stop-color="#82b139"/>
      <stop offset="0.4470588235294118" stop-color="#9dcf52"/>
      <stop offset="0.9647058823529412" stop-color="#dae772"/>
    </linearGradient>
    <radialGradient cx="0" cy="0" gradientTransform="matrix(6.0E-4, 0.0085, 0.009, -5.0E-4, 111.75, 120.9)" gradientUnits="userSpaceOnUse" id="gradient11" r="819.2" spreadMethod="pad">
      <stop offset="0.0" stop-color="#b4a881"/>
      <stop offset="1.0" stop-color="#8d8053"/>
    </radialGradient>
    <radialGradient cx="0" cy="0" gradientTransform="matrix(0.0045, 0.0669, 0.0665, -0.004, 110.8, 94.65)" gradientUnits="userSpaceOnUse" id="gradient12" r="819.2" spreadMethod="pad">
      <stop offset="0.0" stop-color="#f6f0d9"/>
      <stop offset="1.0" stop-color="#d7c9a1"/>
    </radialGradient>
    <radialGradient cx="0" cy="0" gradientTransform="matrix(0.0807, 0.0, 0.0, -0.0789, 120.05, 95.85)" gradientUnits="userSpaceOnUse" id="gradient13" r="819.2" spreadMethod="pad">
      <stop offset="0.0" stop-color="#72a29a"/>
      <stop offset="1.0" stop-color="#5b7a71"/>
    </radialGradient>
    <radialGradient cx="0" cy="0" gradientTransform="matrix(0.0807, 0.0, 0.0, -0.0789, 120.05, 95.85)" gradientUnits="userSpaceOnUse" id="gradient14" r="819.2" spreadMethod="pad">
      <stop offset="0.0" stop-color="#72a29a"/>
      <stop offset="1.0" stop-color="#5b7a71"/>
    </radialGradient>
    <radialGradient cx="0" cy="0" gradientTransform="matrix(0.0807, 0.0, 0.0, -0.0789, 120.05, 95.9)" gradientUnits="userSpaceOnUse" id="gradient15" r="819.2" spreadMethod="pad">
      <stop offset="0.0" stop-color="#72a29a"/>
      <stop offset="1.0" stop-color="#5b7a71"/>
    </radialGradient>
    <radialGradient cx="0" cy="0" gradientTransform="matrix(0.0807, 0.0, 0.0, -0.0789, 120.05, 95.9)" gradientUnits="userSpaceOnUse" id="gradient16" r="819.2" spreadMethod="pad">
      <stop offset="0.0" stop-color="#72a29a"/>
      <stop offset="1.0" stop-color="#5b7a71"/>
    </radialGradient>
    <radialGradient cx="0" cy="0" gradientTransform="matrix(0.0807, 0.0, 0.0, -0.0789, 120.05, 95.85)" gradientUnits="userSpaceOnUse" id="gradient17" r="819.2" spreadMethod="pad">
      <stop offset="0.0" stop-color="#72a29a"/>
      <stop offset="1.0" stop-color="#5b7a71"/>
    </radialGradient>
    <radialGradient cx="0" cy="0" gradientTransform="matrix(0.0807, 0.0, 0.0, -0.0789, 120.05, 95.85)" gradientUnits="userSpaceOnUse" id="gradient18" r="819.2" spreadMethod="pad">
      <stop offset="0.0" stop-color="#72a29a"/>
      <stop offset="1.0" stop-color="#5b7a71"/>
    </radialGradient>
    <radialGradient cx="0" cy="0" gradientTransform="matrix(0.0807, 0.0, 0.0, -0.0789, 120.05, 95.85)" gradientUnits="userSpaceOnUse" id="gradient19" r="819.2" spreadMethod="pad">
      <stop offset="0.0" stop-color="#72a29a"/>
      <stop offset="1.0" stop-color="#5b7a71"/>
    </radialGradient>
    <radialGradient cx="0" cy="0" gradientTransform="matrix(0.0807, 0.0, 0.0, -0.0789, 120.05, 95.85)" gradientUnits="userSpaceOnUse" id="gradient20" r="819.2" spreadMethod="pad">
      <stop offset="0.0" stop-color="#72a29a"/>
      <stop offset="1.0" stop-color="#5b7a71"/>
    </radialGradient>
    <g id="sprite0" transform="matrix(1.0, 0.0, 0.0, 1.0, 0.05, 0.0)">
      <use height="32.6" transform="matrix(1.0, 0.0, 0.0, 1.0, -0.05, 0.0)" width="46.9" xlink:href="#shape1"/>
    </g>
    <g id="shape1" transform="matrix(1.0, 0.0, 0.0, 1.0, 0.05, 0.0)">
      <path d="M45.8 26.1 Q45.95 27.8 46.85 29.2 L45.95 29.2 Q45.3 27.95 45.15 26.9 L43.1 27.45 Q41.25 28.15 39.9 28.3 36.8 28.7 34.8 27.65 L33.15 26.4 32.35 26.3 28.75 26.05 27.6 26.1 27.5 27.2 Q27.4 28.7 27.1 29.3 26.05 31.4 23.2 32.25 20.35 33.1 18.3 32.0 16.35 30.9 16.65 28.95 L16.6 28.4 Q16.45 28.1 14.95 28.1 L13.1 28.25 Q11.9 28.5 10.15 29.35 7.35 30.75 5.35 30.8 L4.5 30.8 Q2.0 30.8 0.95 29.75 -0.2 28.6 0.0 26.15 0.4 22.55 3.65 21.5 L3.55 21.2 Q3.0 19.6 3.4 18.35 3.7 17.25 4.8 16.1 5.75 15.15 6.85 14.55 7.75 14.1 10.05 14.0 L11.85 13.8 11.65 12.95 11.4 12.95 Q10.35 12.95 9.7 12.35 8.9 11.55 9.0 9.8 9.2 6.15 14.4 5.75 L14.45 5.1 Q14.65 2.65 15.05 1.7 L15.15 2.05 15.25 1.35 16.1 0.1 17.3 0.0 Q16.1 1.1 15.65 2.45 15.35 3.35 15.25 5.15 L15.15 6.5 11.75 7.1 Q9.9 7.9 9.8 9.85 9.75 11.3 10.25 11.8 10.7 12.2 11.55 12.2 L12.2 12.4 12.6 13.3 12.55 14.2 Q12.3 14.55 11.55 14.65 L10.05 14.75 Q7.95 14.85 7.25 15.25 6.25 15.75 5.4 16.6 4.45 17.6 4.15 18.55 3.85 19.45 4.3 21.0 L4.55 22.05 Q1.15 22.75 0.8 26.25 0.65 28.35 1.5 29.25 2.45 30.15 5.35 30.05 7.1 30.0 9.8 28.7 11.8 27.7 12.95 27.5 16.65 26.9 17.3 28.0 17.55 28.45 17.45 29.0 17.2 30.55 18.7 31.35 L22.95 31.55 Q25.55 30.75 26.35 29.0 L26.7 27.15 Q26.8 25.7 27.1 25.45 27.55 25.0 32.45 25.55 33.6 25.65 33.75 25.9 34.25 26.55 35.15 27.0 37.05 27.9 39.8 27.55 L42.8 26.75 45.8 26.1" fill="#ffffff" fill-rule="evenodd" stroke="none"/>
    </g>
    <g id="shape2" transform="matrix(1.0, 0.0, 0.0, 1.0, -63.45, -75.65)">
      <path d="M75.1 88.15 Q73.35 88.75 73.25 90.45 73.15 91.95 73.9 92.0 75.15 92.1 75.45 92.4 75.85 92.8 76.0 93.75 76.2 94.8 75.8 95.25 75.2 95.95 73.2 96.05 L70.25 96.45 Q69.4 96.9 68.65 97.7 67.8 98.55 67.55 99.35 67.35 100.05 67.75 101.3 68.15 102.6 67.9 103.25 64.55 103.75 64.25 106.85 64.1 108.9 65.0 109.5 L67.95 109.85 Q69.55 109.8 71.75 108.75 74.2 107.55 75.5 107.35 79.7 106.6 80.65 108.2 80.95 108.75 80.85 109.9 80.75 110.7 81.75 111.25 L85.4 111.35 Q87.6 110.7 88.3 109.25 L88.6 107.2 Q88.7 105.8 89.25 105.4 L92.2 105.1 95.2 105.35 Q96.6 105.5 96.95 105.9 L98.2 106.9 Q99.8 107.7 102.35 107.35 L105.75 106.4 Q107.65 105.75 109.25 105.9 109.15 108.05 110.5 109.8 L109.5 109.75 Q108.6 108.35 108.45 106.65 107.3 106.65 105.45 107.3 103.85 107.9 102.45 108.1 99.7 108.45 97.8 107.55 L96.4 106.45 Q96.25 106.2 95.1 106.1 90.2 105.55 89.75 106.0 89.45 106.25 89.35 107.7 L89.0 109.55 Q88.2 111.3 85.6 112.1 L81.35 111.9 Q79.85 111.1 80.1 109.55 80.2 109.0 79.95 108.55 79.3 107.45 75.6 108.05 74.45 108.25 72.45 109.25 69.75 110.55 68.0 110.6 65.1 110.7 64.15 109.8 63.3 108.9 63.45 106.8 63.8 103.3 67.2 102.6 L66.95 101.55 Q66.5 100.0 66.8 99.1 67.1 98.15 68.05 97.15 68.9 96.3 69.9 95.8 70.6 95.4 72.7 95.3 74.85 95.2 75.2 94.75 L75.25 93.85 74.85 92.95 74.2 92.75 Q73.35 92.75 72.9 92.35 72.4 91.85 72.45 90.4 72.55 88.45 74.4 87.65 75.55 87.15 77.8 87.05 L77.9 85.7 Q78.0 83.9 78.3 83.0 78.75 81.65 79.95 80.55 L81.4 80.45 Q79.4 81.75 78.95 83.6 78.65 84.75 78.5 87.75 L75.1 88.15" fill="#898256" fill-rule="evenodd" stroke="none"/>
      <path d="M105.5 102.3 L109.55 102.5 Q111.7 103.35 112.5 105.1 L112.85 106.75 Q113.0 107.85 113.3 108.35 113.85 109.3 115.75 109.6 L118.9 109.65 119.3 113.45 119.05 113.4 Q116.9 111.1 113.0 110.15 L110.5 109.8 Q109.15 108.05 109.25 105.9 107.65 105.75 105.75 106.4 L102.35 107.35 Q99.8 107.7 98.2 106.9 L96.95 105.9 Q96.6 105.5 95.2 105.35 L92.2 105.1 89.25 105.4 Q88.7 105.8 88.6 107.2 L88.3 109.25 Q87.6 110.7 85.4 111.35 L81.75 111.25 Q80.75 110.7 80.85 109.9 80.95 108.75 80.65 108.2 79.7 106.6 75.5 107.35 74.2 107.55 71.75 108.75 69.55 109.8 67.95 109.85 L65.0 109.5 Q64.1 108.9 64.25 106.85 64.55 103.75 67.9 103.25 68.15 102.6 67.75 101.3 67.35 100.05 67.55 99.35 67.8 98.55 68.65 97.7 69.4 96.9 70.25 96.45 L73.2 96.05 Q75.2 95.95 75.8 95.25 76.2 94.8 76.0 93.75 75.85 92.8 75.45 92.4 75.15 92.1 73.9 92.0 73.15 91.95 73.25 90.45 73.35 88.75 75.1 88.15 L78.5 87.75 Q78.65 84.75 78.95 83.6 79.4 81.75 81.4 80.45 L84.05 80.2 82.05 82.3 Q81.5 83.0 81.35 83.6 L81.25 85.05 81.25 86.4 80.8 87.65 Q80.25 88.3 79.2 88.45 77.95 88.55 77.5 88.9 76.75 89.45 76.8 90.1 76.85 90.7 77.55 91.15 77.9 91.4 78.6 91.65 L79.3 92.4 79.4 93.85 Q79.35 94.9 78.75 95.2 L77.05 95.5 Q75.65 95.75 75.3 96.15 75.05 96.45 74.85 97.8 L72.95 98.15 Q72.05 98.5 71.4 99.35 71.0 99.9 70.9 100.65 L70.9 102.1 70.95 103.95 Q71.15 104.7 72.35 104.85 L75.35 104.85 78.4 104.85 Q79.1 104.95 80.05 105.7 81.0 106.5 81.8 106.6 83.8 106.85 84.55 105.75 L86.2 103.4 87.35 102.75 88.7 102.55 91.55 102.25 Q93.25 102.15 94.3 102.6 L96.15 103.3 Q97.5 103.9 97.45 104.3 L100.75 104.35 Q101.85 104.3 103.2 103.55 105.15 102.45 105.5 102.3" fill="#d8cd8a" fill-rule="evenodd" stroke="none"/>
      <path d="M95.8 97.85 L94.75 97.6 93.95 98.05 Q93.4 98.5 93.4 98.8 93.4 99.5 94.3 99.6 L95.8 99.75 95.8 97.85 M91.55 91.35 L90.5 91.6 90.6 93.55 Q90.65 94.8 90.35 95.5 L92.05 95.55 Q92.2 94.8 91.85 93.45 L91.55 91.35 M84.4 99.6 L83.1 99.85 Q82.65 100.1 82.55 100.75 L84.15 100.8 84.4 99.6 M87.05 97.85 L86.0 98.1 Q85.25 98.75 85.2 99.3 L86.65 99.1 Q87.25 98.65 87.05 97.85 M86.0 85.55 Q86.05 86.35 85.55 87.8 L85.5 88.85 85.3 89.85 88.6 89.55 Q88.9 87.3 87.85 84.8 L86.0 85.55 M92.1 79.55 Q90.85 79.85 91.05 80.8 91.15 81.35 91.55 81.5 L92.65 81.55 94.25 81.3 Q95.05 80.9 94.2 80.05 L92.1 79.55 M94.2 89.85 L93.45 90.6 93.0 92.3 Q93.0 93.0 94.4 92.85 94.65 92.25 94.45 91.35 L94.2 89.85 M116.15 100.3 Q115.0 101.0 115.55 102.1 113.55 102.35 115.55 104.2 117.55 106.1 118.1 104.35 L117.8 100.85 Q117.25 99.65 116.15 100.3 M103.25 97.85 Q102.75 98.45 102.95 99.45 103.1 100.5 103.85 100.8 105.1 101.35 105.65 100.0 106.15 98.7 105.35 98.1 L105.9 97.85 Q105.8 97.45 104.65 97.5 103.5 97.5 103.25 97.85 M100.05 95.05 L99.8 91.85 99.55 88.6 98.2 92.1 97.0 93.45 Q96.35 94.45 96.3 95.05 97.8 95.25 100.05 95.05 M105.6 78.55 L105.1 79.8 102.8 82.25 Q101.45 83.7 100.6 84.85 L103.4 85.05 Q105.25 85.25 106.2 85.05 L106.15 83.3 105.9 80.95 105.6 78.55 M109.5 90.5 L109.35 87.7 109.35 83.55 108.55 85.3 Q108.75 85.95 108.3 87.05 L107.6 88.6 106.25 91.15 Q105.4 92.8 105.15 93.85 L107.8 94.05 108.95 94.1 109.35 93.3 Q109.6 92.4 109.5 90.5 M101.05 76.75 Q103.9 75.7 106.75 75.65 109.75 75.55 112.25 76.45 L112.85 79.3 Q111.95 79.3 111.55 79.8 111.15 80.35 111.6 81.15 110.0 81.65 111.35 82.7 112.65 83.75 113.8 82.85 113.75 83.3 114.1 83.5 L114.9 83.6 115.45 83.0 115.45 82.1 116.2 82.05 Q116.3 80.9 115.95 80.5 115.6 80.1 114.35 80.05 L113.05 79.3 112.85 79.3 112.95 76.75 Q115.45 77.85 117.15 80.15 L118.1 81.6 118.3 85.1 118.25 91.9 117.3 92.6 Q117.05 90.75 115.5 91.05 114.6 91.2 114.4 92.1 L114.4 93.75 Q113.2 92.25 112.8 93.85 112.4 95.4 113.25 96.25 L112.3 96.1 Q111.4 99.0 118.3 98.85 118.3 105.05 118.75 108.7 L118.9 109.65 115.75 109.6 Q113.85 109.3 113.3 108.35 113.0 107.85 112.85 106.75 L112.5 105.1 Q111.7 103.35 109.55 102.5 L105.5 102.3 Q105.15 102.45 103.2 103.55 101.85 104.3 100.75 104.35 L97.45 104.3 Q97.5 103.9 96.15 103.3 L94.3 102.6 Q93.25 102.15 91.55 102.25 L88.7 102.55 87.35 102.75 86.2 103.4 84.55 105.75 Q83.8 106.85 81.8 106.6 81.0 106.5 80.05 105.7 79.1 104.95 78.4 104.85 L75.35 104.85 72.35 104.85 Q71.15 104.7 70.95 103.95 L70.9 102.1 70.9 100.65 Q71.0 99.9 71.4 99.35 72.05 98.5 72.95 98.15 L74.85 97.8 Q75.05 96.45 75.3 96.15 75.65 95.75 77.05 95.5 L78.75 95.2 Q79.35 94.9 79.4 93.85 L79.3 92.4 78.6 91.65 Q77.9 91.4 77.55 91.15 76.85 90.7 76.8 90.1 76.75 89.45 77.5 88.9 77.95 88.55 79.2 88.45 80.25 88.3 80.8 87.65 L81.25 86.4 81.25 85.05 81.35 83.6 Q81.5 83.0 82.05 82.3 L84.05 80.2 Q94.9 78.9 101.05 76.75" fill="#8aa652" fill-rule="evenodd" stroke="none"/>
      <path d="M88.6 89.55 L85.3 89.85 85.5 88.85 85.55 87.8 Q86.05 86.35 86.0 85.55 L87.85 84.8 Q88.9 87.3 88.6 89.55" fill="#6d8c3f" fill-rule="evenodd" stroke="none"/>
      <path d="M92.65 81.55 L91.55 81.5 Q91.15 81.35 91.05 80.8 90.85 79.85 92.1 79.55 L94.2 80.05 Q95.05 80.9 94.25 81.3 L92.65 81.55" fill="#6d8c3f" fill-rule="evenodd" stroke="none"/>
      <path d="M106.2 85.05 Q105.25 85.25 103.4 85.05 L100.6 84.85 Q101.45 83.7 102.8 82.25 L105.1 79.8 105.6 78.55 105.9 80.95 106.15 83.3 106.2 85.05" fill="#6d8c3f" fill-rule="evenodd" stroke="none"/>
      <path d="M108.55 85.3 L109.35 83.55 109.35 87.7 109.5 90.5 Q109.6 92.4 109.35 93.3 L108.95 94.1 107.8 94.05 105.15 93.85 Q105.4 92.8 106.25 91.15 L107.6 88.6 108.3 87.05 Q108.75 85.95 108.55 85.3" fill="#6d8c3f" fill-rule="evenodd" stroke="none"/>
      <path d="M98.2 92.1 L99.55 88.6 99.8 91.85 100.05 95.05 Q97.8 95.25 96.3 95.05 96.35 94.45 97.0 93.45 L98.2 92.1" fill="#6d8c3f" fill-rule="evenodd" stroke="none"/>
      <path d="M93.4 98.8 Q93.4 98.5 93.95 98.05 L94.75 97.6 95.8 97.85 95.8 99.75 94.3 99.6 Q93.4 99.5 93.4 98.8" fill="#6d8c3f" fill-rule="evenodd" stroke="none"/>
      <path d="M92.05 95.55 L90.35 95.5 Q90.65 94.8 90.6 93.55 L90.5 91.6 91.55 91.35 91.85 93.45 Q92.2 94.8 92.05 95.55" fill="#6d8c3f" fill-rule="evenodd" stroke="none"/>
      <path d="M94.4 92.85 Q93.0 93.0 93.0 92.3 L93.45 90.6 94.2 89.85 94.45 91.35 Q94.65 92.25 94.4 92.85" fill="#6d8c3f" fill-rule="evenodd" stroke="none"/>
      <path d="M114.1 83.5 Q113.75 83.3 113.8 82.85 112.65 83.75 111.35 82.7 110.0 81.65 111.6 81.15 111.15 80.35 111.55 79.8 111.95 79.3 112.85 79.3 L113.05 79.3 114.35 80.05 Q115.6 80.1 115.95 80.5 116.3 80.9 116.2 82.05 L115.45 82.1 115.45 83.0 114.9 83.6 114.1 83.5" fill="#6d8c3f" fill-rule="evenodd" stroke="none"/>
      <path d="M115.5 91.05 Q117.05 90.75 117.3 92.6 L118.25 91.9 118.3 98.85 Q111.4 99.0 112.3 96.1 L113.25 96.25 Q112.4 95.4 112.8 93.85 113.2 92.25 114.4 93.75 L114.4 92.1 Q114.6 91.2 115.5 91.05" fill="#6d8c3f" fill-rule="evenodd" stroke="none"/>
      <path d="M115.55 102.1 Q115.0 101.0 116.15 100.3 117.25 99.65 117.8 100.85 L118.1 104.35 Q117.55 106.1 115.55 104.2 113.55 102.35 115.55 102.1" fill="#6d8c3f" fill-rule="evenodd" stroke="none"/>
      <path d="M103.25 97.85 Q103.5 97.5 104.65 97.5 105.8 97.45 105.9 97.85 L105.35 98.1 Q106.15 98.7 105.65 100.0 105.1 101.35 103.85 100.8 103.1 100.5 102.95 99.45 102.75 98.45 103.25 97.85" fill="#6d8c3f" fill-rule="evenodd" stroke="none"/>
      <path d="M87.05 97.85 Q87.25 98.65 86.65 99.1 L85.2 99.3 Q85.25 98.75 86.0 98.1 L87.05 97.85" fill="#6d8c3f" fill-rule="evenodd" stroke="none"/>
      <path d="M82.55 100.75 Q82.65 100.1 83.1 99.85 L84.4 99.6 84.15 100.8 82.55 100.75" fill="#6d8c3f" fill-rule="evenodd" stroke="none"/>
    </g>
    <g id="sprite1" transform="matrix(1.0, 0.0, 0.0, 1.0, 0.0, 0.0)">
      <use height="43.8" transform="matrix(1.0, 0.0, 0.0, 1.0, 0.0, 0.0)" width="64.05" xlink:href="#shape3"/>
    </g>
    <g id="shape3" transform="matrix(1.0, 0.0, 0.0, 1.0, 0.0, 0.0)">
      <path d="M63.0 10.2 L62.95 22.0 Q63.0 30.2 63.45 33.8 L64.05 38.85 Q61.9 36.25 57.7 35.25 53.95 34.45 48.6 35.35 L48.6 35.2 48.5 35.4 Q44.4 36.1 39.0 37.9 L31.45 40.65 Q27.8 42.0 23.4 42.8 L23.2 42.45 23.15 42.85 9.35 43.35 Q6.25 42.65 4.2 41.65 1.7 40.4 0.0 38.45 L0.75 21.0 Q1.1 13.0 1.1 0.0 L4.2 1.65 Q5.95 3.4 10.05 4.65 L10.35 5.5 10.4 4.75 Q13.25 5.6 16.7 5.8 L22.15 5.8 22.5 7.7 22.85 5.8 35.75 4.3 Q42.2 3.15 45.75 1.85 48.6 0.8 51.45 0.75 54.45 0.65 56.95 1.55 L57.55 4.45 57.65 1.85 Q60.15 2.95 61.85 5.25 L62.8 6.7 63.0 10.2" fill="#c9bf99" fill-rule="evenodd" stroke="none"/>
    </g>
    <g id="shape4" transform="matrix(1.0, 0.0, 0.0, 1.0, -54.65, -74.9)">
      <path d="M101.05 76.75 Q103.9 75.7 106.75 75.65 109.75 75.55 112.25 76.45 L112.85 79.35 112.95 76.75 Q115.45 77.85 117.15 80.15 L118.1 81.6 118.3 85.1 118.25 96.9 Q118.3 105.1 118.75 108.7 L119.35 113.75 Q117.2 111.15 113.0 110.15 109.25 109.35 103.9 110.25 L103.9 110.1 103.8 110.3 Q99.7 111.0 94.3 112.8 L86.75 115.55 Q83.1 116.9 78.7 117.7 L78.5 117.35 78.45 117.75 64.65 118.25 Q61.55 117.55 59.5 116.55 57.0 115.3 55.3 113.35 L56.05 95.9 Q56.4 87.9 56.4 74.9 L59.5 76.55 60.9 77.6 Q62.8 78.75 65.35 79.55 L65.65 80.4 65.7 79.65 72.0 80.7 77.45 80.7 77.8 82.6 78.15 80.7 91.05 79.2 Q97.5 78.05 101.05 76.75" fill="url(#gradient21)" fill-rule="evenodd" stroke="none"/>
      <path d="M79.8 106.95 L79.15 107.1 78.55 106.9 79.8 106.95" fill="#301f0a" fill-rule="evenodd" stroke="none"/>
      <path d="M69.55 96.2 L69.55 98.2 69.15 97.95 68.9 97.6 69.1 98.9 69.3 100.25 70.65 100.55 70.6 100.65 71.0 100.65 Q70.85 100.8 71.0 100.75 L71.35 100.8 71.35 100.85 71.5 100.85 71.4 100.95 Q72.05 101.05 72.5 101.4 74.7 102.5 74.95 103.6 L75.15 103.9 75.3 104.45 75.35 104.3 Q75.65 104.55 75.8 105.7 L76.05 107.15 78.25 107.6 78.3 107.25 78.35 106.85 78.5 107.35 78.4 107.85 78.85 107.75 79.5 107.85 78.55 107.9 Q78.3 108.05 78.35 108.55 L79.05 108.7 79.65 108.75 79.0 108.9 78.25 108.85 78.25 108.0 76.0 108.3 Q74.35 114.05 68.65 114.6 68.35 115.15 68.1 116.65 L68.45 116.75 68.6 116.9 68.0 116.85 Q67.55 116.8 67.5 117.25 L67.8 117.65 67.8 117.55 67.6 117.45 Q68.1 117.45 68.4 117.85 L68.25 117.8 67.9 117.65 68.35 117.9 68.6 118.25 Q68.65 118.75 68.05 118.75 67.5 118.8 67.35 118.45 L67.95 118.55 68.4 118.35 67.65 117.55 Q67.0 117.0 67.75 116.65 L67.5 114.55 Q61.9 113.8 60.75 107.7 L58.65 107.3 58.55 107.65 58.45 108.05 58.1 108.05 57.85 107.55 Q57.7 107.65 57.7 108.05 L57.3 108.05 56.8 106.15 57.15 107.05 57.45 107.75 57.6 107.2 58.0 107.2 58.2 107.85 58.45 106.9 Q58.5 106.2 58.7 106.0 L58.65 106.85 60.95 106.55 Q62.1 100.55 68.05 100.15 L68.65 98.3 Q68.9 97.1 68.3 96.5 68.05 96.9 68.1 96.45 67.85 96.75 68.0 97.45 L67.95 98.2 67.9 96.15 Q68.4 96.25 68.75 96.85 L69.35 97.8 69.4 96.95 Q69.35 96.35 69.55 96.2 M68.6 99.2 L67.0 105.85 67.65 106.5 68.35 107.05 68.7 99.3 68.6 99.2 M67.9 100.4 Q64.6 100.7 63.45 102.1 L67.15 104.25 67.7 102.2 Q68.05 100.9 67.9 100.2 L67.9 100.4 M69.6 102.9 L69.65 102.65 69.95 104.55 73.75 102.5 71.8 101.25 69.4 100.4 Q69.4 102.15 69.55 102.35 L69.5 102.1 Q69.45 101.95 69.55 101.9 L69.55 102.4 Q69.5 102.75 69.6 102.9 M74.0 102.55 L74.0 102.8 72.0 105.9 71.8 106.1 Q71.65 106.15 71.75 106.25 L73.75 106.7 75.85 107.0 Q75.55 104.05 74.0 102.6 L74.2 102.65 74.3 102.65 74.15 102.55 74.0 102.55 M77.0 107.6 L70.1 106.15 68.65 107.35 72.9 107.5 77.0 107.6 M73.55 108.6 L71.7 108.85 Q71.3 108.85 71.45 109.15 L71.5 109.05 73.3 112.55 Q75.35 110.6 75.6 108.35 L73.55 108.6 M68.45 107.7 L68.45 107.9 Q68.1 113.1 68.2 115.35 L69.8 109.0 68.45 107.7 M68.65 114.4 Q72.0 113.85 73.15 112.65 70.9 111.05 69.6 110.5 L68.65 114.4 M63.0 108.15 L60.95 107.85 Q61.2 110.05 62.85 112.0 L65.1 108.6 63.0 108.15 M63.0 112.25 L64.1 113.15 63.85 113.1 64.6 113.55 65.8 114.0 67.4 114.25 66.85 110.4 Q66.05 110.7 64.9 111.3 L63.0 112.25 M65.35 105.9 Q64.05 103.4 63.2 102.35 61.6 104.05 61.15 106.55 L65.35 105.9 M66.75 108.75 L68.05 107.55 59.85 107.3 66.75 108.75" fill="#301f0a" fill-rule="evenodd" stroke="none"/>
      <path d="M63.05 110.0 L63.2 110.7 61.55 110.85 Q59.6 111.25 58.3 112.5 56.65 114.1 56.1 116.5 55.55 119.0 56.85 120.2 L58.85 121.8 56.25 121.25 55.25 120.2 Q54.3 118.7 54.8 116.4 55.85 111.55 59.55 110.3 L63.05 110.0" fill="#b6a081" fill-rule="evenodd" stroke="none"/>
    </g>
    <linearGradient gradientTransform="matrix(-0.0323, 0.0, 0.0, 0.0323, 92.15, 96.8)" gradientUnits="userSpaceOnUse" id="gradient21" spreadMethod="pad" x1="-819.2" x2="819.2">
      <stop offset="0.0" stop-color="#fff9f9" stop-opacity="0.41960785"/>
      <stop offset="1.0" stop-color="#000000" stop-opacity="0.22745098"/>
    </linearGradient>
    <g id="sprite2" transform="matrix(1.0, 0.0, 0.0, 1.0, 0.05, 0.0)">
      <use height="38.15" transform="matrix(1.0, 0.0, 0.0, 1.0, -0.05, 0.0)" width="4.3" xlink:href="#shape5"/>
    </g>
    <g id="shape5" transform="matrix(1.0, 0.0, 0.0, 1.0, 0.05, 0.0)">
      <path d="M2.05 0.5 L2.25 0.0 Q2.75 2.1 2.65 3.6 2.35 12.8 2.7 22.6 2.85 26.45 4.25 38.15 3.0 32.7 2.9 31.4 L2.4 27.8 1.95 25.05 1.15 21.9 1.2 20.35 1.35 19.2 1.5 16.3 1.1 13.75 0.65 11.3 0.3 8.85 0.0 6.25 0.0 4.55 Q0.05 3.25 0.2 3.0 L2.05 0.5" fill="#ffffff" fill-rule="evenodd" stroke="none"/>
    </g>
    <g id="shape6" transform="matrix(1.0, 0.0, 0.0, 1.0, -54.6, -68.25)">
      <path d="M63.45 68.3 L62.9 72.7 Q62.35 78.0 62.3 82.35 62.2 96.25 62.55 104.4 L62.9 109.8 60.85 109.85 Q58.55 110.2 57.1 112.0 55.65 113.8 55.0 115.85 L54.65 117.55 Q54.5 117.85 54.7 105.35 54.7 102.3 56.0 72.05 L58.1 69.95 Q59.5 68.65 61.6 68.35 L63.45 68.3" fill="url(#gradient22)" fill-rule="evenodd" stroke="none"/>
      <path d="M63.3 68.65 L63.45 68.3 63.8 69.0 63.4 72.0 Q62.95 76.05 62.8 81.5 62.5 94.6 63.2 110.7 L62.7 109.7 Q62.2 103.65 62.05 95.5 61.7 79.15 63.3 68.65" fill="#fef6de" fill-rule="evenodd" stroke="none"/>
    </g>
    <linearGradient gradientTransform="matrix(-0.004, 0.0, 0.0, 0.004, 58.25, 92.9)" gradientUnits="userSpaceOnUse" id="gradient22" spreadMethod="pad" x1="-819.2" x2="819.2">
      <stop offset="0.0" stop-color="#f6f0d9"/>
      <stop offset="1.0" stop-color="#d7c9a1"/>
    </linearGradient>
    <g id="sprite3" transform="matrix(1.0, 0.0, 0.0, 1.0, 0.0, 0.0)">
      <use height="55.75" transform="matrix(1.0, 0.0, 0.0, 1.0, 0.0, 0.0)" width="110.0" xlink:href="#shape7"/>
    </g>
    <g id="shape7" transform="matrix(1.0, 0.0, 0.0, 1.0, 0.0, 0.0)">
      <path d="M96.0 17.95 Q102.7 25.35 106.5 34.35 110.0 42.8 110.0 50.3 110.0 52.95 109.5 54.75 106.75 38.15 93.35 25.25 77.5 10.05 55.0 10.05 32.15 10.05 16.5 25.2 3.0 38.3 0.45 55.75 0.0 54.05 0.0 51.5 0.0 43.25 3.5 34.5 7.2 25.25 13.95 17.8 30.0 0.0 55.0 0.0 79.7 0.0 96.0 17.95" fill="url(#gradient23)" fill-rule="evenodd" stroke="none"/>
    </g>
    <linearGradient gradientTransform="matrix(0.0, -0.034, -0.034, 0.0, 55.0, 27.9)" gradientUnits="userSpaceOnUse" id="gradient23" spreadMethod="pad" x1="-819.2" x2="819.2">
      <stop offset="0.12941176470588237" stop-color="#e1b7b1"/>
      <stop offset="0.9254901960784314" stop-color="#ffffff"/>
    </linearGradient>
    <g id="sprite4" transform="matrix(1.0, 0.0, 0.0, 1.0, 0.0, 0.0)">
      <use height="61.3" transform="matrix(1.0, 0.0, 0.0, 1.0, 0.0, 0.0)" width="110.0" xlink:href="#shape8"/>
    </g>
    <g id="shape8" transform="matrix(1.0, 0.0, 0.0, 1.0, 0.0, 0.0)">
      <path d="M106.5 34.35 Q110.0 42.8 110.0 50.3 110.0 57.7 105.7 59.65 102.15 61.2 93.9 59.6 L76.4 55.55 Q64.4 53.0 55.0 53.0 45.5 53.0 33.6 55.75 L16.1 60.2 Q7.8 62.1 4.3 60.7 0.0 58.9 0.0 51.5 0.0 43.25 3.5 34.5 7.2 25.25 13.95 17.8 30.0 0.0 55.0 0.0 79.7 0.0 96.0 17.95 102.7 25.35 106.5 34.35" fill="#ffffff" fill-rule="evenodd" stroke="none"/>
    </g>
    <g id="sprite5" transform="matrix(1.0, 0.0, 0.0, 1.0, 0.0, 0.0)">
      <use height="57.1" transform="matrix(1.0, 0.0, 0.0, 1.0, 0.0, 0.0)" width="118.7" xlink:href="#shape9"/>
    </g>
    <g id="shape9" transform="matrix(1.0, 0.0, 0.0, 1.0, 0.0, 0.0)">
      <path d="M95.5 30.35 Q111.6 18.8 118.2 0.25 L118.7 0.0 Q117.85 23.85 100.6 40.45 83.35 57.1 59.3 57.1 35.75 57.1 18.6 41.0 1.5 25.0 0.0 1.7 6.95 19.65 22.75 30.75 39.0 42.1 58.85 42.1 79.1 42.1 95.5 30.35" fill="url(#gradient24)" fill-rule="evenodd" stroke="none"/>
    </g>
    <radialGradient cx="0" cy="0" gradientTransform="matrix(0.0568, 0.0, 0.0, -0.0568, 59.35, 28.55)" gradientUnits="userSpaceOnUse" id="gradient24" r="819.2" spreadMethod="pad">
      <stop offset="0.0" stop-color="#cce9e3" stop-opacity="0.0"/>
      <stop offset="0.08235294117647059" stop-color="#c6e6d8" stop-opacity="0.06666667"/>
      <stop offset="0.2196078431372549" stop-color="#b4debd" stop-opacity="0.24313726"/>
      <stop offset="0.403921568627451" stop-color="#98d28f" stop-opacity="0.5372549"/>
      <stop offset="0.6196078431372549" stop-color="#72c152" stop-opacity="0.93333334"/>
      <stop offset="0.6509803921568628" stop-color="#6cbe48"/>
    </radialGradient>
  </defs>
</svg>
