<?xml version="1.0" encoding="UTF-8" standalone="no"?>
<svg xmlns:xlink="http://www.w3.org/1999/xlink" height="31.65px" width="66.2px" xmlns="http://www.w3.org/2000/svg">
  <g transform="matrix(1.0, 0.0, 0.0, 1.0, 0.0, 0.0)">
    <use height="26.55" transform="matrix(1.0, 0.0, 0.0, 1.0, 0.0, 0.0)" width="44.25" xlink:href="#shape0"/>
  </g>
  <defs>
    <g id="shape0" transform="matrix(1.0, 0.0, 0.0, 1.0, 0.0, 0.0)">
      <path d="M37.5 5.15 L40.55 7.8 Q43.85 10.75 44.1 14.8 L43.65 15.9 Q41.45 19.6 37.1 20.35 L40.95 17.5 Q44.65 14.35 41.25 10.75 38.35 7.6 35.05 5.95 L34.4 5.2 Q33.65 3.4 33.25 1.85 L37.5 5.15" fill="#dea190" fill-rule="evenodd" stroke="none"/>
      <path d="M36.7 15.35 Q39.7 16.2 40.25 16.05 40.8 16.05 41.05 15.5 41.45 15.05 38.5 14.35 36.5 13.8 30.6 11.45 25.35 9.15 22.8 5.95 23.7 6.1 24.5 5.55 L25.2 5.0 25.6 4.75 26.3 4.1 26.75 3.7 Q27.75 2.3 29.2 1.55 29.2 1.15 28.85 1.1 26.55 1.0 24.3 2.0 L22.15 2.9 21.5 3.4 21.35 3.45 21.35 3.6 21.3 4.0 Q20.9 5.1 19.6 5.2 L17.85 5.55 16.75 5.4 16.45 5.2 7.5 8.85 13.1 8.5 18.05 7.15 19.1 6.7 Q25.0 10.1 30.5 12.8 32.9 14.2 36.7 15.35 M33.25 1.85 Q33.65 3.4 34.4 5.2 L35.05 5.95 Q38.35 7.6 41.25 10.75 44.65 14.35 40.95 17.5 L37.1 20.35 35.2 20.5 31.8 20.35 Q24.25 19.5 18.0 15.45 L11.3 15.9 Q7.05 15.4 4.05 13.05 1.6 11.4 3.25 9.0 6.85 8.0 9.7 6.15 11.15 5.2 14.35 4.75 17.75 4.3 18.45 3.45 19.35 2.65 21.3 1.6 23.0 0.7 27.0 0.1 30.45 -0.4 33.25 1.85" fill="#b4353b" fill-rule="evenodd" stroke="none"/>
      <path d="M38.5 14.35 Q41.45 15.05 41.05 15.5 40.8 16.05 40.25 16.05 39.7 16.2 36.7 15.35 32.9 14.2 30.5 12.8 25.0 10.1 19.1 6.7 L18.05 7.15 13.1 8.5 7.5 8.85 16.45 5.2 16.75 5.4 17.85 5.55 19.6 5.2 Q20.9 5.1 21.3 4.0 L21.35 3.6 21.35 3.45 21.5 3.4 22.15 2.9 24.3 2.0 Q26.55 1.0 28.85 1.1 29.2 1.15 29.2 1.55 27.75 2.3 26.75 3.7 L26.3 4.1 25.6 4.75 25.2 5.0 24.5 5.55 Q23.7 6.1 22.8 5.95 25.35 9.15 30.6 11.45 36.5 13.8 38.5 14.35" fill="#e0d0bd" fill-rule="evenodd" stroke="none"/>
      <path d="M4.05 13.05 Q7.05 15.4 11.3 15.9 L18.0 15.45 Q24.25 19.5 31.8 20.35 L27.3 19.95 19.75 19.05 12.75 17.85 6.15 16.2 Q2.15 15.15 0.45 11.75 L0.45 11.5 Q0.65 9.35 3.25 9.0 1.6 11.4 4.05 13.05" fill="#dea190" fill-rule="evenodd" stroke="none"/>
      <path d="M31.8 20.35 L35.2 20.5 37.1 20.35 Q41.45 19.6 43.65 15.9 L44.1 14.8 Q44.55 18.15 43.55 21.8 42.6 25.05 39.4 25.9 L32.6 26.55 24.9 26.45 17.55 26.05 Q13.8 25.4 9.8 23.95 L2.3 20.95 Q1.35 20.55 0.9 19.5 -0.65 15.8 0.45 11.75 2.15 15.15 6.15 16.2 L12.75 17.85 19.75 19.05 27.3 19.95 31.8 20.35" fill="#c49681" fill-rule="evenodd" stroke="none"/>
    </g>
  </defs>
</svg>
