<?xml version="1.0" encoding="UTF-8" standalone="no"?>
<svg xmlns:xlink="http://www.w3.org/1999/xlink" height="229.35px" width="111.7px" xmlns="http://www.w3.org/2000/svg">
  <g transform="matrix(1.0, 0.0, 0.0, 1.0, 0.0, 0.0)">
    <use height="229.35" transform="matrix(1.0, 0.0, 0.0, 1.0, 0.0, 0.0)" width="111.7" xlink:href="#shape0"/>
  </g>
  <defs>
    <g id="shape0" transform="matrix(1.0, 0.0, 0.0, 1.0, 0.0, 0.0)">
      <path d="M0.0 46.0 Q0.05 33.75 1.6 21.85 2.95 11.15 4.6 6.6 7.5 -1.35 17.85 0.25 27.9 1.75 32.6 9.6 34.6 12.9 34.15 20.4 34.0 23.5 32.35 36.1 29.25 59.7 33.6 71.6 36.1 78.45 48.9 83.2 56.4 86.0 74.85 91.6 91.2 97.65 99.7 106.75 110.9 118.8 111.6 138.6 112.85 174.85 98.6 203.9 91.5 218.4 84.1 225.65 83.75 225.9 82.5 225.65 80.0 225.1 75.6 222.6 71.25 220.1 67.0 214.1 L63.6 208.6 Q78.6 179.6 84.6 166.6 89.1 156.9 87.25 142.75 85.4 128.65 78.6 119.6 75.65 115.65 66.15 112.55 62.15 111.25 46.35 107.35 32.8 104.0 25.45 101.05 14.65 96.65 9.6 90.6 -0.25 78.75 0.0 46.0" fill="#d15869" fill-rule="evenodd" stroke="none"/>
      <path d="M0.0 46.0 Q0.05 33.75 1.6 21.85 2.95 11.15 4.6 6.6 6.25 2.05 10.95 0.6 15.25 -0.7 20.55 0.85 14.9 21.75 13.0 40.85 9.6 75.55 21.9 85.3 33.6 94.55 54.6 100.25 L69.6 104.35 Q77.25 106.8 81.6 109.95 91.3 117.05 95.65 132.45 99.85 147.35 96.25 158.95 93.35 168.35 84.35 190.6 L75.9 210.95 66.0 203.95 Q78.95 178.75 84.6 166.6 89.1 156.9 87.25 142.75 85.4 128.65 78.6 119.6 75.65 115.65 66.15 112.55 62.15 111.25 46.35 107.35 32.8 104.0 25.45 101.05 14.65 96.65 9.6 90.6 -0.25 78.75 0.0 46.0" fill="#ca3654" fill-rule="evenodd" stroke="none"/>
      <path d="M82.7 228.05 Q76.15 226.15 72.6 223.1 64.5 216.25 62.0 210.0 61.2 208.0 61.05 206.35 L61.1 205.1 Q61.85 202.8 63.35 200.5 66.35 195.85 70.1 195.85 L71.6 199.75 Q74.0 204.35 78.35 208.1 81.7 211.0 88.5 211.6 91.9 211.9 94.6 211.6 L93.1 222.1 Q92.65 224.9 90.55 227.4 L88.6 229.35 82.7 228.05" fill="#bc4d5a" fill-rule="evenodd" stroke="none"/>
      <path d="M13.6 4.3 Q11.5 15.2 9.65 28.6 5.85 55.35 6.9 67.65 7.4 73.35 9.4 79.9 10.35 83.2 11.25 85.3 9.6 84.3 7.8 81.85 4.15 76.95 3.25 69.65 2.3 61.6 1.9 49.25 1.45 34.25 2.6 26.65 L4.6 13.55 Q5.5 8.85 6.6 7.65 8.5 5.55 11.25 4.7 L13.6 4.3" fill="#893342" fill-rule="evenodd" stroke="none"/>
      <path d="M20.05 94.4 L18.6 90.65 23.65 93.3 Q29.65 96.3 34.25 97.95 37.7 99.2 51.5 102.6 65.7 106.05 71.25 107.95 78.4 110.4 82.5 115.25 84.7 117.85 89.25 126.3 92.8 132.9 93.75 143.65 94.75 154.65 92.25 162.3 88.9 172.65 76.25 199.95 74.4 198.9 73.45 196.7 L72.9 194.65 Q77.6 187.0 82.9 176.65 88.45 165.85 90.0 155.9 91.45 146.8 89.6 137.95 87.3 127.05 83.45 120.7 79.4 114.1 73.25 111.65 68.45 109.75 50.0 105.45 L27.25 99.95 Q22.45 98.5 20.05 94.4" fill="#893342" fill-rule="evenodd" stroke="none"/>
      <path d="M25.6 9.6 L28.65 12.6 Q31.65 16.45 31.25 20.6 L29.65 30.1 Q28.4 37.75 27.6 50.3 26.75 63.45 30.25 73.2 32.0 78.05 33.9 80.3 32.0 78.95 29.6 75.55 24.9 68.7 22.6 58.3 20.3 47.85 22.7 27.7 23.95 17.6 25.6 9.6" fill="#ea878b" fill-rule="evenodd" stroke="none"/>
      <path d="M107.15 132.8 Q109.25 143.45 108.6 150.95 107.65 162.2 106.6 169.35 105.05 179.65 102.6 187.3 100.3 194.4 96.85 201.75 L93.9 207.65 90.65 208.45 Q87.25 209.0 86.6 207.95 91.1 201.7 95.75 190.85 105.0 169.1 105.6 145.95 105.75 139.5 105.35 130.95 L104.9 123.65 107.15 132.8" fill="#ed9d9d" fill-rule="evenodd" stroke="none"/>
      <path d="M45.9 85.3 Q47.65 85.35 60.95 89.35 75.8 93.8 81.25 96.65 86.45 99.35 92.7 104.25 L97.9 108.65 92.2 104.75 Q85.3 100.4 79.25 98.3 73.2 96.2 57.8 91.7 L43.6 87.65 Q42.7 87.0 42.5 86.35 42.15 85.1 45.9 85.3" fill="#ed9d9d" fill-rule="evenodd" stroke="none"/>
      <path d="M74.45 210.4 Q71.65 213.95 71.75 216.65 71.85 219.35 75.8 223.4 L79.75 226.95 79.35 226.9 Q75.15 225.35 72.6 223.1 64.5 216.25 62.0 210.0 61.2 208.0 61.05 206.35 L61.1 205.1 Q61.85 202.8 63.35 200.5 66.35 195.85 70.1 195.85 L71.4 199.4 Q73.5 203.65 77.35 207.25 L77.25 207.45 74.45 210.4" fill="#8f3f49" fill-rule="evenodd" stroke="none"/>
      <path d="M86.4 219.45 Q87.05 217.9 86.9 215.7 L86.6 213.8 88.6 213.65 Q90.7 213.7 91.25 214.65 91.95 215.9 91.75 218.2 91.5 220.85 90.1 224.15 88.85 227.05 86.5 226.05 L84.4 224.45 86.4 219.45" fill="#c76b70" fill-rule="evenodd" stroke="none"/>
      <path d="M68.75 198.8 Q68.15 200.25 69.8 203.2 L71.6 205.8 70.8 206.3 Q69.85 207.0 68.9 208.15 67.4 209.95 67.1 212.8 66.85 212.85 66.45 212.55 65.65 212.0 64.9 210.45 64.0 208.55 64.1 206.6 64.15 204.55 65.25 202.95 L67.55 200.05 68.75 198.8" fill="#7c3941" fill-rule="evenodd" stroke="none"/>
    </g>
  </defs>
</svg>
