<?xml version="1.0" encoding="UTF-8" standalone="no"?>
<svg xmlns:xlink="http://www.w3.org/1999/xlink" height="240.0px" width="300.0px" xmlns="http://www.w3.org/2000/svg">
  <g transform="matrix(1.0, 0.0, 0.0, 1.0, 0.0, 0.0)">
    <use height="234.8" transform="matrix(1.0, 0.0, 0.0, 1.0, 2.75, 41.05)" width="289.5" xlink:href="#shape0"/>
    <use height="0.0" id="price_tag_pt" transform="matrix(1.0, 0.0, 0.0, 1.0, 177.5, 278.4)" width="0.0" xlink:href="#sprite0"/>
  </g>
  <defs>
    <g id="shape0" transform="matrix(1.0, 0.0, 0.0, 1.0, -2.75, -41.05)">
      <path d="M110.0 228.75 L216.75 228.75 216.75 261.05 110.0 261.05 110.0 228.75" fill="#ffffff" fill-opacity="0.0" fill-rule="evenodd" stroke="none"/>
      <path d="M149.25 108.1 L147.1 110.85 145.05 113.45 145.05 113.65 146.05 113.65 150.35 112.8 155.35 112.25 163.75 112.65 177.45 113.05 177.65 113.05 175.05 114.6 Q173.15 115.85 172.25 115.85 L172.25 116.05 173.25 116.05 Q175.45 116.3 182.5 114.05 189.9 111.65 190.65 109.85 191.8 107.05 197.15 104.25 199.95 102.8 203.65 101.25 210.85 97.1 221.45 90.05 L230.35 85.1 Q230.9 84.65 230.85 83.5 L230.65 79.55 Q230.65 77.2 231.7 67.65 L231.75 67.1 232.25 62.35 236.2 42.85 237.5 85.2 220.1 97.2 254.7 94.7 Q216.7 101.3 212.75 101.2 L213.15 101.05 212.25 101.05 210.35 101.0 209.65 100.25 206.85 102.65 203.05 106.05 197.15 111.2 194.8 113.3 185.5 119.2 159.0 121.0 154.3 119.65 149.25 118.15 Q147.65 117.55 147.45 117.25 L146.8 120.6 Q146.25 122.9 146.25 124.25 146.25 126.45 145.45 129.8 L145.25 130.8 144.25 128.65 145.0 125.35 145.05 122.45 Q145.05 120.1 144.55 118.5 L144.05 116.95 Q144.05 116.45 144.45 116.45 L143.25 116.45 Q146.15 108.55 149.45 100.65 150.7 97.65 155.35 89.65 L158.4 84.2 149.25 108.1 M141.75 160.4 Q143.05 158.65 144.55 158.65 L145.45 158.85 Q144.85 157.95 142.4 153.05 L139.45 146.85 136.4 140.9 Q134.95 138.25 133.7 137.0 L153.85 142.85 135.85 133.85 133.9 132.45 132.05 131.05 Q133.2 129.9 134.25 129.25 135.0 128.4 136.45 124.25 138.25 118.95 140.4 114.35 L144.65 104.85 148.45 96.15 152.65 86.85 Q154.35 82.95 155.6 77.95 156.3 75.05 157.2 73.6 L162.05 70.05 Q158.35 76.55 153.55 87.15 148.7 97.75 147.25 102.05 L139.85 120.25 136.25 128.55 Q136.25 129.6 140.95 133.8 145.35 137.75 146.45 138.25 153.2 141.2 160.85 146.65 L161.05 146.65 158.75 146.85 139.65 143.25 144.35 150.6 145.35 152.2 147.7 154.6 Q149.9 156.85 152.25 160.45 L156.15 165.95 Q158.65 169.55 158.65 170.15 L158.15 172.85 Q157.65 175.7 157.65 176.65 157.65 185.4 159.95 192.8 161.15 196.65 162.8 199.4 164.85 202.9 167.65 204.65 L167.45 204.65 Q166.0 204.25 164.25 202.75 L162.1 200.6 159.6 197.35 158.4 195.6 155.65 191.05 Q154.85 189.7 154.45 187.2 154.1 184.9 153.45 184.25 L153.45 183.25 154.0 183.55 Q154.55 183.85 156.05 186.85 155.1 182.35 156.3 178.5 157.25 175.35 157.25 173.75 157.25 171.75 154.9 167.7 151.95 162.7 149.8 160.2 L146.55 154.4 Q147.25 155.8 147.25 156.45 L147.25 156.65 145.85 154.65 145.85 154.85 146.25 155.65 147.15 157.15 Q146.8 158.75 145.1 163.2 143.5 167.45 138.25 171.8 L139.2 170.4 140.85 167.65 Q142.35 164.25 141.75 160.4 M172.65 205.45 L173.75 205.95 174.45 206.25 168.3 208.1 161.75 208.65 166.8 207.35 168.5 206.9 172.65 205.45 M251.25 153.75 L255.65 133.1 277.75 118.9 268.85 126.85 267.25 127.85 Q260.7 129.85 259.85 131.45 259.95 133.4 259.05 134.85 L253.05 152.45 252.45 157.2 Q252.25 158.8 251.25 159.65 L247.55 162.5 244.45 164.85 235.75 171.5 Q230.95 174.95 229.45 175.05 231.85 173.1 238.25 166.35 238.0 166.9 237.9 167.4 243.4 165.5 247.7 160.2 251.2 155.85 251.25 153.75 M208.45 203.2 L201.85 216.9 Q197.85 221.45 203.45 229.8 213.15 235.75 218.3 241.8 L221.25 242.85 Q220.65 242.8 219.7 243.5 L219.0 244.1 Q216.6 242.65 214.75 241.05 L210.35 237.1 Q207.55 234.7 204.45 232.85 L204.95 235.8 Q205.45 237.6 207.25 239.05 L212.35 243.0 Q214.0 244.1 216.05 244.85 L215.95 244.95 215.7 245.1 219.9 248.6 220.95 249.45 224.85 251.65 228.55 252.3 229.25 252.45 227.25 252.9 227.1 252.95 Q224.6 252.15 221.3 250.5 223.4 250.95 212.35 245.85 L209.7 244.65 199.95 238.2 199.6 236.5 198.85 232.05 197.9 228.45 197.55 227.25 197.45 227.05 197.5 227.0 197.45 226.45 Q197.45 223.9 199.5 219.2 L202.45 213.15 207.0 205.8 208.45 203.2 M232.05 263.6 L232.45 263.65 233.15 263.8 232.25 264.4 Q230.8 265.4 230.45 266.65 L239.6 268.6 Q246.0 270.2 250.3 272.8 L251.15 273.35 250.45 273.4 248.6 273.15 246.45 272.8 236.45 269.65 231.5 268.75 Q228.65 268.25 228.65 267.35 L228.85 266.65 229.05 265.85 Q227.1 266.35 223.65 265.4 219.95 264.15 218.45 263.85 L218.65 264.25 219.25 264.3 Q219.6 264.5 219.85 265.25 L218.65 266.2 217.25 266.25 Q212.15 266.25 205.1 262.65 L198.85 259.65 197.5 258.55 Q193.35 257.45 186.65 257.45 182.0 257.45 172.05 262.5 L168.05 264.6 166.45 265.45 165.95 265.75 163.05 267.65 163.1 267.7 156.2 269.7 153.15 269.85 151.95 269.9 149.8 269.9 150.7 269.45 Q151.0 269.2 151.25 269.05 L158.45 267.8 Q164.05 266.5 164.05 265.55 L163.85 265.2 163.45 265.05 163.85 264.15 164.25 263.65 162.85 263.45 Q165.55 263.25 171.25 260.35 178.45 256.65 182.85 255.25 L182.85 255.05 181.85 255.05 174.9 256.6 164.45 254.65 Q163.2 254.65 158.0 256.25 152.75 257.85 149.25 257.85 L144.35 257.45 Q141.45 257.45 130.45 260.85 L124.85 262.55 Q129.1 260.7 133.4 259.55 145.25 256.3 150.85 257.4 162.25 253.45 163.65 253.45 L171.95 254.25 181.65 255.05 Q182.0 254.4 184.95 253.9 L188.55 253.45 196.55 254.8 205.25 256.65 Q204.85 257.45 205.05 258.15 205.2 258.8 205.85 259.4 L208.85 261.45 210.3 262.65 211.85 263.65 215.65 264.25 Q218.15 264.25 218.25 262.65 217.55 262.7 216.7 262.15 L215.85 261.5 215.5 261.1 215.7 261.1 216.65 261.3 Q221.9 262.25 223.6 263.8 L224.35 264.3 Q225.9 265.05 229.45 265.05 230.7 265.05 231.65 264.05 L232.05 263.6 M139.8 248.95 Q141.55 247.65 142.05 246.4 142.4 245.45 145.4 244.45 L147.35 243.8 147.8 243.65 Q153.4 243.75 157.55 245.45 L158.8 245.7 160.05 246.25 166.35 247.45 Q168.0 247.45 172.4 245.05 176.8 242.65 179.75 242.65 L181.85 243.0 183.65 243.45 183.65 243.25 180.3 241.85 Q178.35 241.1 177.45 241.45 L175.25 234.85 Q174.6 236.5 173.25 237.85 L168.65 234.6 Q165.35 232.3 161.65 229.45 L158.75 227.3 Q156.6 225.5 156.45 224.25 156.25 222.55 154.4 222.35 152.25 222.15 151.65 221.05 L149.05 215.95 Q147.1 211.95 146.85 210.85 L146.85 211.05 146.7 214.1 Q146.35 215.85 145.65 216.25 L139.9 210.25 136.7 202.85 Q132.05 191.65 132.8 195.25 L133.85 201.7 Q134.2 204.55 133.45 205.05 132.1 203.85 131.15 200.0 L131.15 199.0 131.15 195.45 Q131.25 190.55 132.45 182.85 130.3 188.9 128.65 192.05 126.7 187.65 125.5 185.8 121.6 179.85 120.65 176.25 L120.65 177.65 Q121.05 178.45 121.05 179.25 121.05 180.65 119.95 180.65 L116.75 179.55 105.05 169.45 Q99.7 165.1 96.65 162.05 L96.2 161.35 95.3 160.0 90.65 152.65 90.65 152.85 91.6 155.8 91.65 158.15 91.55 160.2 Q91.3 161.3 90.4 162.45 L85.6 161.55 Q89.85 161.25 89.85 159.25 88.0 145.05 86.8 141.5 L86.65 141.2 86.85 141.45 91.95 151.55 Q94.35 156.1 96.8 159.05 99.0 161.75 103.65 165.6 L114.15 173.6 119.05 177.05 Q119.3 176.15 119.1 175.0 L118.35 172.95 116.25 168.65 Q117.45 170.1 118.8 171.1 L119.0 171.25 Q120.15 172.1 121.5 172.6 124.2 173.65 128.6 181.85 L129.3 183.2 132.4 179.85 132.65 179.6 135.5 176.65 135.65 176.45 135.75 176.35 136.65 175.45 136.55 175.7 135.25 179.4 134.65 181.85 134.5 182.8 134.25 186.05 Q134.25 191.85 136.35 196.0 137.6 198.45 142.1 205.7 L144.0 208.8 146.25 210.65 146.25 208.25 145.5 206.1 Q145.4 205.85 145.45 205.25 L148.15 210.95 Q150.4 215.65 151.85 217.65 153.7 220.15 155.4 220.7 L156.5 221.15 158.25 224.85 Q158.55 225.7 164.5 227.85 L166.85 228.7 Q167.8 232.0 170.05 232.95 L174.25 233.55 174.25 233.45 Q174.25 232.4 173.45 231.25 L173.25 230.95 173.0 230.55 Q172.65 229.85 172.65 229.45 173.6 230.4 175.65 231.45 177.25 232.25 178.25 233.85 178.65 234.55 179.1 237.15 179.45 239.5 180.25 240.25 L183.0 240.8 186.25 241.45 Q187.5 242.05 189.05 244.05 L190.3 245.6 191.45 246.65 189.5 246.0 185.45 247.65 185.25 248.05 190.75 248.75 198.85 249.45 200.45 249.25 199.5 249.7 193.05 250.25 Q185.05 250.1 182.25 250.25 L177.9 251.15 173.25 252.05 Q174.55 251.9 175.8 250.3 177.15 248.6 177.65 248.45 L181.65 247.2 Q184.85 246.1 186.05 245.1 178.4 243.4 174.6 246.35 169.55 250.25 163.45 250.65 L161.35 250.65 161.45 250.6 162.9 250.3 Q167.75 249.25 168.25 248.25 L163.65 247.5 158.45 247.25 Q147.65 247.75 150.05 244.65 148.8 244.95 144.8 246.7 L139.8 248.95 M165.85 118.05 Q165.85 117.85 166.0 117.7 L164.45 119.05 169.45 119.45 Q178.25 119.45 183.15 117.4 186.3 116.05 192.65 111.05 198.85 106.1 212.05 97.95 215.85 95.6 219.05 93.75 210.15 98.05 203.65 102.05 197.4 105.85 192.4 109.8 L186.55 114.35 Q182.2 117.15 167.25 118.05 L165.85 118.05 M204.1 247.8 Q204.65 247.55 205.3 247.45 L206.85 247.3 204.65 246.65 203.05 246.25 202.95 246.25 Q200.0 244.55 196.1 241.45 197.45 242.05 198.95 242.45 200.5 242.85 211.4 246.95 L211.7 247.2 Q213.05 248.5 213.05 249.35 213.05 249.7 209.35 251.45 205.5 253.25 203.65 253.65 L203.65 253.85 207.25 253.85 211.75 253.15 215.85 252.85 219.0 252.9 224.8 253.45 Q219.05 254.7 215.25 255.15 L215.65 255.15 212.8 255.4 208.8 255.7 Q208.05 255.2 206.65 255.0 205.0 254.8 203.25 255.05 L202.05 255.05 Q203.2 252.8 207.45 249.65 206.65 248.8 204.1 247.8 M164.05 222.4 L161.85 219.95 Q157.5 214.9 157.05 213.05 156.45 210.5 153.1 206.35 150.6 203.25 147.45 200.25 L147.45 201.45 138.6 189.1 Q145.45 183.3 148.25 177.6 150.75 172.5 151.05 165.65 L151.3 166.45 151.6 167.65 151.9 169.5 151.9 169.75 Q152.0 171.45 151.7 173.3 L151.5 174.3 151.35 174.85 Q150.25 179.6 149.05 181.05 L144.35 185.0 Q141.85 187.0 141.85 190.05 141.85 190.8 145.55 194.05 148.75 196.85 150.25 197.85 L150.45 194.6 150.65 191.05 Q151.3 191.8 157.35 206.5 162.55 219.05 165.85 219.05 L168.55 218.65 168.9 218.6 170.7 216.5 Q172.55 213.95 172.8 212.65 172.8 215.0 177.9 220.85 183.15 226.9 185.05 227.45 185.1 226.75 185.7 224.9 L187.05 220.25 Q187.7 217.5 187.75 215.6 L188.05 212.45 188.1 213.25 188.1 213.6 188.35 217.3 188.45 218.85 Q192.55 216.95 198.35 211.2 L200.25 209.3 198.25 212.15 192.65 220.45 Q191.85 221.7 191.3 224.45 L190.85 227.05 190.85 230.3 Q191.1 230.95 194.05 233.85 195.15 234.95 196.45 237.0 L194.95 236.2 190.25 233.25 Q185.15 229.6 180.8 225.8 L177.85 223.6 179.95 225.75 182.2 228.15 188.85 235.2 186.85 233.45 175.9 225.05 Q171.25 221.45 172.4 217.2 170.75 222.15 168.8 223.25 166.65 224.4 165.8 223.55 164.9 222.65 164.05 222.4 M161.05 208.85 L160.85 208.85 161.05 208.8 161.05 208.85 M167.65 210.45 L166.35 210.45 162.75 210.4 160.65 209.65 164.05 209.6 167.65 210.45 M208.65 184.25 L213.3 178.55 211.85 180.65 Q209.0 184.9 205.45 192.25 202.3 198.8 200.25 202.15 195.85 209.5 191.35 213.0 L191.25 213.05 191.25 212.85 Q193.05 210.15 193.05 209.25 191.4 210.2 187.75 211.1 L184.95 211.75 Q185.8 211.15 187.15 210.45 189.9 209.1 193.05 208.45 194.55 208.1 195.25 207.05 L197.25 203.85 203.1 196.3 Q206.45 191.2 208.65 184.25 M237.9 167.4 L237.65 167.45 237.85 167.45 237.9 167.4 M236.5 244.2 L236.45 244.25 236.45 244.3 229.1 244.95 227.6 245.35 227.8 245.25 Q229.5 244.55 230.25 244.45 L236.5 244.2 M233.85 252.45 L233.85 252.25 234.25 252.25 233.85 252.45 M230.4 252.35 L233.8 252.25 230.3 252.4 230.4 252.35" fill="#2a2a2a" fill-rule="evenodd" stroke="none"/>
      <path d="M232.25 62.35 L231.75 67.1 231.7 67.65 Q230.65 77.2 230.65 79.55 L230.85 83.5 Q230.9 84.65 230.35 85.1 L221.45 90.05 Q210.85 97.1 203.65 101.25 199.95 102.8 197.15 104.25 191.8 107.05 190.65 109.85 189.9 111.65 182.5 114.05 175.45 116.3 173.25 116.05 L172.25 116.05 172.25 115.85 Q173.15 115.85 175.05 114.6 L177.65 113.05 177.45 113.05 163.75 112.65 155.35 112.25 150.35 112.8 146.05 113.65 145.05 113.65 145.05 113.45 147.1 110.85 149.25 108.1 148.75 109.35 181.6 110.95 227.65 85.15 232.25 62.35 M145.25 130.8 L145.45 129.8 Q146.25 126.45 146.25 124.25 146.25 122.9 146.8 120.6 L147.45 117.25 Q147.65 117.55 149.25 118.15 L154.3 119.65 159.0 121.0 149.4 121.65 145.6 132.45 147.05 133.3 146.25 133.1 144.75 132.75 145.25 130.8 M157.2 73.6 Q156.3 75.05 155.6 77.95 154.35 82.95 152.65 86.85 L148.45 96.15 144.65 104.85 140.4 114.35 Q138.25 118.95 136.45 124.25 135.0 128.4 134.25 129.25 133.2 129.9 132.05 131.05 L133.9 132.45 135.85 133.85 153.85 142.85 133.7 137.0 Q134.95 138.25 136.4 140.9 L139.45 146.85 142.4 153.05 Q144.85 157.95 145.45 158.85 L144.55 158.65 Q143.05 158.65 141.75 160.4 141.2 157.1 139.1 153.5 L131.25 142.55 Q129.4 140.35 128.4 138.3 127.45 136.45 127.2 134.75 L130.5 128.15 156.85 73.8 157.2 73.6 M147.15 157.15 L146.25 155.65 145.85 154.85 145.85 154.65 147.25 156.65 148.7 159.05 Q149.95 161.25 150.55 163.3 L151.3 166.45 151.05 165.65 Q150.75 172.5 148.25 177.6 145.45 183.3 138.6 189.1 L147.45 201.45 147.45 200.25 Q150.6 203.25 153.1 206.35 156.45 210.5 157.05 213.05 157.5 214.9 161.85 219.95 L164.05 222.4 Q166.6 225.05 167.45 225.05 167.85 225.05 168.6 224.45 169.4 223.85 170.65 223.85 171.45 223.85 177.8 229.15 L183.75 234.15 198.9 247.45 199.55 247.15 200.75 246.7 200.9 246.65 202.95 246.25 203.05 246.25 204.65 246.65 206.85 247.3 205.3 247.45 Q204.65 247.55 204.1 247.8 203.35 248.0 202.7 248.35 L200.45 249.25 198.85 249.45 190.75 248.75 185.25 248.05 185.45 247.65 189.5 246.0 191.45 246.65 190.3 245.6 Q192.1 244.65 192.65 244.45 192.75 243.3 190.1 242.4 L187.05 241.45 184.45 237.95 182.25 234.45 Q181.1 232.35 175.25 228.95 L174.55 228.55 Q170.4 226.15 169.25 225.85 L168.65 228.25 166.6 227.4 163.35 226.0 Q160.5 224.85 159.65 224.85 L158.8 222.35 Q157.3 218.5 154.75 214.25 151.75 209.2 149.65 207.25 L149.65 208.45 Q150.45 210.85 150.45 211.45 150.15 210.2 147.2 204.5 144.25 198.75 143.25 197.45 L139.65 193.2 139.4 192.95 137.85 191.25 Q137.85 189.8 138.15 188.7 L138.45 185.35 138.45 182.0 Q138.65 180.1 139.65 179.85 L139.95 180.7 140.45 181.25 Q145.55 178.05 147.25 174.55 148.45 172.1 148.45 167.75 L148.25 161.8 Q147.95 158.9 147.15 157.15 M149.8 160.2 Q151.95 162.7 154.9 167.7 157.25 171.75 157.25 173.75 157.25 175.35 156.3 178.5 155.1 182.35 156.05 186.85 154.55 183.85 154.0 183.55 L153.45 183.25 153.45 184.25 Q154.1 184.9 154.45 187.2 154.85 189.7 155.65 191.05 L158.4 195.6 157.6 194.5 Q154.1 189.55 153.05 189.05 L152.85 189.85 Q152.3 188.45 151.85 184.55 L151.55 181.45 151.45 179.25 152.3 180.4 Q152.6 180.85 152.95 180.85 153.55 180.85 154.25 179.45 155.05 177.85 155.05 175.95 155.05 172.85 154.6 170.8 L153.85 168.25 153.2 166.9 151.35 163.2 149.8 160.2 M200.25 209.3 L204.9 204.45 Q203.0 206.55 197.85 216.85 L198.15 216.85 Q199.75 216.85 202.45 213.15 L199.5 219.2 Q197.45 223.9 197.45 226.45 L197.5 227.0 197.45 227.05 197.55 227.25 197.9 228.45 198.85 232.05 199.6 236.5 199.95 238.2 209.7 244.65 212.35 245.85 Q223.4 250.95 221.3 250.5 224.6 252.15 227.1 252.95 L224.8 253.45 219.0 252.9 215.85 252.85 211.75 253.15 207.25 253.85 203.65 253.85 203.65 253.65 Q205.5 253.25 209.35 251.45 213.05 249.7 213.05 249.35 213.05 248.5 211.7 247.2 L211.4 246.95 Q200.5 242.85 198.95 242.45 197.45 242.05 196.1 241.45 194.7 240.75 193.45 239.85 L188.85 235.2 182.2 228.15 179.95 225.75 177.85 223.6 180.8 225.8 Q185.15 229.6 190.25 233.25 L194.95 236.2 196.45 237.0 Q195.15 234.95 194.05 233.85 191.1 230.95 190.85 230.3 L190.85 227.05 191.3 224.45 Q191.85 221.7 192.65 220.45 L198.25 212.15 200.25 209.3 M258.85 94.4 L292.25 91.95 202.4 108.9 208.45 103.05 208.45 103.65 209.75 103.85 Q217.1 103.85 243.2 97.9 L258.85 94.4 M184.95 211.75 L180.85 212.65 179.25 212.65 Q180.7 211.75 182.35 211.3 L185.1 210.6 Q188.5 209.4 193.45 204.05 L204.45 189.65 208.65 184.25 Q206.45 191.2 203.1 196.3 L197.25 203.85 195.25 207.05 Q194.55 208.1 193.05 208.45 189.9 209.1 187.15 210.45 185.8 211.15 184.95 211.75" fill="#1f1f1f" fill-rule="evenodd" stroke="none"/>
      <path d="M158.4 84.2 L155.35 89.65 Q150.7 97.65 149.45 100.65 146.15 108.55 143.25 116.45 L144.45 116.45 Q144.05 116.45 144.05 116.95 L144.55 118.5 Q145.05 120.1 145.05 122.45 L145.0 125.35 144.25 128.65 145.25 130.8 144.75 132.75 146.25 133.1 147.05 133.3 176.1 149.95 143.75 144.5 159.25 164.55 162.2 194.05 Q165.95 202.1 172.65 205.45 L168.5 206.9 165.65 204.2 164.25 202.75 Q166.0 204.25 167.45 204.65 L167.65 204.65 Q164.85 202.9 162.8 199.4 161.15 196.65 159.95 192.8 157.65 185.4 157.65 176.65 157.65 175.7 158.15 172.85 L158.65 170.15 Q158.65 169.55 156.15 165.95 L152.25 160.45 Q149.9 156.85 147.7 154.6 L145.35 152.2 144.35 150.6 139.65 143.25 158.75 146.85 161.05 146.65 160.85 146.65 Q153.2 141.2 146.45 138.25 145.35 137.75 140.95 133.8 136.25 129.6 136.25 128.55 L139.85 120.25 147.25 102.05 Q148.7 97.75 153.55 87.15 158.35 76.55 162.05 70.05 L201.7 41.05 161.25 76.65 158.4 84.2 M194.8 113.3 L197.15 111.2 203.05 106.05 206.85 102.65 209.65 100.25 210.35 101.0 212.25 101.05 213.15 101.05 212.75 101.2 Q216.7 101.3 254.7 94.7 L258.85 94.4 243.2 97.9 Q217.1 103.85 209.75 103.85 L208.45 103.65 208.45 103.05 202.4 108.9 201.35 109.1 194.8 113.3 M138.25 171.8 Q143.5 167.45 145.1 163.2 146.8 158.75 147.15 157.15 147.95 158.9 148.25 161.8 L148.45 167.75 Q148.45 172.1 147.25 174.55 145.55 178.05 140.45 181.25 L139.95 180.7 139.65 179.85 Q138.65 180.1 138.45 182.0 L138.45 185.35 138.15 188.7 Q137.85 189.8 137.85 191.25 L139.4 192.95 139.65 193.2 Q142.85 197.8 145.75 203.3 149.95 211.1 151.05 216.25 L151.45 216.25 151.25 211.05 154.6 217.4 156.5 221.15 155.4 220.7 Q153.7 220.15 151.85 217.65 150.4 215.65 148.15 210.95 L145.45 205.25 Q145.4 205.85 145.5 206.1 L146.25 208.25 146.25 210.65 144.0 208.8 142.1 205.7 Q140.4 202.05 139.2 198.75 L138.45 196.35 Q136.75 193.65 136.2 192.2 L135.85 191.1 135.85 190.95 135.45 188.5 Q135.0 186.5 135.0 184.15 134.95 181.75 135.9 179.4 136.8 177.05 137.65 175.7 L138.8 174.0 139.25 173.5 137.75 174.7 136.55 175.7 136.65 175.45 135.75 176.35 135.65 176.45 135.5 176.65 132.65 179.6 132.8 172.95 134.0 173.2 135.95 173.55 136.85 173.65 138.25 171.8 M147.25 156.65 L147.25 156.45 Q147.25 155.8 146.55 154.4 L149.8 160.2 151.35 163.2 153.2 166.9 153.85 168.25 154.6 170.8 Q155.05 172.85 155.05 175.95 155.05 177.85 154.25 179.45 153.55 180.85 152.95 180.85 152.6 180.85 152.3 180.4 L151.45 179.25 151.55 181.45 151.4 185.8 Q151.35 188.5 151.65 190.25 151.75 190.75 152.45 191.05 L154.05 192.05 154.75 193.15 157.4 196.55 162.75 202.55 Q165.65 205.6 165.45 205.85 L163.5 206.2 161.45 206.45 161.45 206.65 164.9 207.15 166.8 207.35 161.75 208.65 161.05 208.8 160.85 208.85 161.05 208.85 164.05 209.6 160.65 209.65 162.75 210.4 166.35 210.45 167.65 210.45 171.6 210.05 Q175.15 209.5 179.05 208.25 186.2 206.0 189.95 202.6 L196.4 199.65 216.35 161.95 231.55 149.05 225.8 154.95 215.65 166.05 215.65 166.45 218.45 166.45 216.3 168.6 219.45 168.55 224.75 169.25 229.4 169.45 Q230.8 169.4 232.65 168.45 L234.35 167.05 234.4 167.05 251.2 153.95 251.25 153.75 Q251.2 155.85 247.7 160.2 243.4 165.5 237.9 167.4 238.0 166.9 238.25 166.35 L242.45 161.85 238.6 165.7 Q231.55 172.35 227.75 173.25 L222.15 174.25 Q220.15 174.25 220.05 173.4 220.25 172.25 220.05 171.65 218.5 174.25 215.5 177.9 L214.8 178.85 217.05 175.0 216.6 175.05 Q215.5 175.95 213.3 178.55 L208.65 184.25 204.45 189.65 193.45 204.05 Q188.5 209.4 185.1 210.6 L182.35 211.3 Q180.7 211.75 179.25 212.65 L180.85 212.65 184.95 211.75 187.75 211.1 Q191.4 210.2 193.05 209.25 193.05 210.15 191.25 212.85 L191.25 213.05 191.35 213.0 191.65 213.05 Q192.85 213.05 201.25 203.65 202.85 201.8 204.25 198.95 L207.45 192.45 213.5 181.15 213.45 181.45 213.65 181.45 215.3 179.15 216.6 177.0 215.0 182.7 Q214.45 185.25 213.65 190.25 L213.35 192.05 208.45 203.2 207.0 205.8 202.45 213.15 Q199.75 216.85 198.15 216.85 L197.85 216.85 Q203.0 206.55 204.9 204.45 L200.25 209.3 198.35 211.2 Q192.55 216.95 188.45 218.85 L188.35 217.3 188.1 213.6 188.1 213.25 188.05 212.45 187.75 215.6 Q187.7 217.5 187.05 220.25 L185.7 224.9 Q185.1 226.75 185.05 227.45 183.15 226.9 177.9 220.85 172.8 215.0 172.8 212.65 172.55 213.95 170.7 216.5 L168.9 218.6 168.55 218.65 165.85 219.05 Q162.55 219.05 157.35 206.5 151.3 191.8 150.65 191.05 L150.45 194.6 150.25 197.85 Q148.75 196.85 145.55 194.05 141.85 190.8 141.85 190.05 141.85 187.0 144.35 185.0 L149.05 181.05 Q150.25 179.6 151.35 174.85 L151.5 174.3 151.7 173.3 Q152.0 171.45 151.9 169.75 L151.9 169.5 151.6 167.65 151.3 166.45 150.55 163.3 Q149.95 161.25 148.7 159.05 L147.25 156.65 M237.8 243.9 L238.95 244.25 239.4 244.35 Q244.4 245.8 248.45 246.65 L248.85 246.7 248.7 246.7 225.9 247.5 222.7 247.9 224.7 248.9 227.55 250.4 Q229.05 251.3 229.9 251.2 L235.2 251.35 248.1 255.1 255.2 255.9 259.5 257.6 Q261.7 258.55 263.9 259.65 L267.95 261.9 267.5 261.9 263.75 260.85 241.65 254.45 Q237.0 252.95 227.25 252.9 L229.25 252.45 228.55 252.3 224.85 251.65 220.95 249.45 219.9 248.6 215.7 245.1 215.95 244.95 216.05 244.85 Q214.0 244.1 212.35 243.0 L207.25 239.05 Q205.45 237.6 204.95 235.8 L204.45 232.85 Q207.55 234.7 210.35 237.1 L214.75 241.05 Q216.6 242.65 219.0 244.1 L219.1 244.15 219.7 244.2 222.3 244.85 Q224.7 245.65 225.75 245.65 L227.6 245.35 229.1 244.95 236.45 244.3 236.45 244.25 236.5 244.2 Q236.6 244.0 237.8 243.9 M219.05 258.95 L221.6 260.1 222.3 260.4 Q227.6 262.65 232.05 263.6 L231.65 264.05 Q230.7 265.05 229.45 265.05 225.9 265.05 224.35 264.3 L223.6 263.8 Q221.9 262.25 216.65 261.3 L215.7 261.1 215.5 261.1 215.85 261.5 215.85 261.85 214.55 262.05 Q211.55 262.05 208.9 260.45 L205.05 258.15 Q204.85 257.45 205.25 256.65 L196.55 254.8 188.55 253.45 184.95 253.9 Q182.0 254.4 181.65 255.05 L171.95 254.25 163.65 253.45 Q162.25 253.45 150.85 257.4 145.25 256.3 133.4 259.55 129.1 260.7 124.85 262.55 L122.6 263.5 119.95 263.75 119.4 263.85 118.9 263.65 117.35 263.25 113.7 263.65 109.45 264.05 107.65 264.05 Q107.1 263.95 107.05 263.25 L107.25 263.2 Q112.05 262.1 118.25 261.85 124.35 261.65 128.05 260.15 133.75 257.9 139.85 256.55 L152.1 254.2 Q153.8 253.4 156.1 252.55 L156.5 252.4 158.25 251.75 160.6 250.9 161.35 250.65 163.45 250.65 Q169.55 250.25 174.6 246.35 178.4 243.4 186.05 245.1 184.85 246.1 181.65 247.2 L177.65 248.45 Q177.15 248.6 175.8 250.3 174.55 251.9 173.25 252.05 L177.9 251.15 182.25 250.25 Q185.05 250.1 193.05 250.25 L199.5 249.7 200.45 249.25 202.7 248.35 Q203.35 248.0 204.1 247.8 206.65 248.8 207.45 249.65 203.2 252.8 202.05 255.05 L203.25 255.05 Q205.0 254.8 206.65 255.0 208.05 255.2 208.8 255.7 L207.0 255.8 212.25 257.45 214.4 258.15 217.5 258.15 218.85 258.85 219.05 258.95 M233.15 263.8 Q240.2 265.5 252.2 272.9 L252.2 273.15 251.15 273.35 250.3 272.8 Q246.0 270.2 239.6 268.6 L230.45 266.65 Q230.8 265.4 232.25 264.4 L233.15 263.8 M151.25 269.05 L151.8 268.55 153.15 268.15 Q154.65 267.6 155.7 267.7 160.25 265.95 163.15 262.8 L169.85 259.0 170.35 258.7 Q170.6 258.55 170.8 258.45 L169.9 258.2 169.65 258.1 173.15 257.05 173.25 257.0 174.9 256.6 181.85 255.05 182.85 255.05 182.85 255.25 Q178.45 256.65 171.25 260.35 165.55 263.25 162.85 263.45 L164.25 263.65 163.85 264.15 163.45 265.05 163.85 265.2 164.05 265.55 Q164.05 266.5 158.45 267.8 L151.25 269.05 M61.1 157.15 L58.6 156.7 Q55.9 144.55 53.2 138.1 L52.5 135.75 50.05 130.25 Q49.55 128.8 46.35 127.5 L42.25 125.85 42.25 126.05 43.55 126.6 44.45 127.45 40.05 127.45 38.3 127.0 36.35 126.65 Q34.3 126.65 26.05 131.9 L21.35 135.0 19.85 135.8 Q18.25 136.65 16.7 137.55 L28.25 129.0 24.9 128.25 33.45 126.45 Q27.05 126.9 22.8 126.55 L11.0 125.2 2.75 123.4 35.95 124.8 Q38.2 125.6 39.35 120.8 L39.5 109.85 54.65 96.55 42.05 111.7 Q40.6 119.2 42.2 122.75 42.95 125.0 45.15 125.8 53.7 128.3 59.05 144.95 L59.55 146.8 61.45 153.0 77.15 156.35 Q84.45 155.55 84.3 144.75 83.95 139.85 81.8 135.6 84.15 138.3 85.3 141.0 86.85 144.6 86.85 149.95 L86.45 155.05 Q85.55 159.85 83.05 159.85 L78.65 159.4 61.1 157.15 M80.2 132.85 Q76.4 127.15 69.3 122.6 L78.4 128.75 Q89.55 137.05 101.35 149.4 104.45 155.4 108.75 159.6 L117.45 167.45 116.85 167.45 117.75 169.15 118.8 171.1 Q117.45 170.1 116.25 168.65 L118.35 172.95 119.1 175.0 Q106.45 166.45 97.0 153.8 L96.45 152.65 Q94.35 148.0 90.4 142.6 85.1 135.4 80.2 132.85 M119.0 171.25 L119.85 170.95 121.25 170.65 Q122.4 170.65 125.95 173.95 L132.4 179.85 129.3 183.2 128.6 181.85 Q124.2 173.65 121.5 172.6 120.15 172.1 119.0 171.25 M114.15 173.6 L103.65 165.6 Q99.0 161.75 96.8 159.05 94.35 156.1 91.95 151.55 L86.85 141.45 Q94.35 153.5 101.3 161.2 106.1 166.55 114.15 173.6 M174.55 228.55 L175.25 228.95 Q181.1 232.35 182.25 234.45 L184.45 237.95 187.05 241.45 190.1 242.4 Q192.75 243.3 192.65 244.45 192.1 244.65 190.3 245.6 L189.05 244.05 Q187.5 242.05 186.25 241.45 L183.0 240.8 180.25 240.25 Q179.45 239.5 179.1 237.15 178.65 234.55 178.25 233.85 177.25 232.25 175.65 231.45 173.6 230.4 172.65 229.45 172.65 229.85 173.0 230.55 L173.25 230.95 173.45 231.25 Q174.25 232.4 174.25 233.45 L174.25 233.55 170.05 232.95 Q167.8 232.0 166.85 228.7 L171.05 230.05 171.4 228.7 Q171.65 228.25 172.85 228.25 L174.55 228.55 M202.95 246.25 L200.9 246.65 200.75 246.7 199.55 247.15 198.9 247.45 183.75 234.15 177.8 229.15 Q171.45 223.85 170.65 223.85 169.4 223.85 168.6 224.45 167.85 225.05 167.45 225.05 166.6 225.05 164.05 222.4 164.9 222.65 165.8 223.55 166.65 224.4 168.8 223.25 170.75 222.15 172.4 217.2 171.25 221.45 175.9 225.05 L186.85 233.45 188.85 235.2 193.45 239.85 Q194.7 240.75 196.1 241.45 200.0 244.55 202.95 246.25 M160.55 250.6 L159.95 250.65 159.75 250.65 160.5 250.45 160.55 250.6 M237.9 167.4 L237.85 167.45 237.65 167.45 237.9 167.4 M233.85 252.45 L234.25 252.25 233.85 252.25 233.85 252.45 M230.4 252.35 L230.3 252.4 233.8 252.25 230.4 252.35" fill="#333333" fill-rule="evenodd" stroke="none"/>
      <path d="M165.85 118.05 L167.25 118.05 Q182.2 117.15 186.55 114.35 L192.4 109.8 Q197.4 105.85 203.65 102.05 210.15 98.05 219.05 93.75 215.85 95.6 212.05 97.95 198.85 106.1 192.65 111.05 186.3 116.05 183.15 117.4 178.25 119.45 169.45 119.45 L164.45 119.05 166.0 117.7 Q165.85 117.85 165.85 118.05" fill="#3a3a3a" fill-rule="evenodd" stroke="none"/>
      <path d="M174.45 206.25 L175.8 206.7 178.45 207.35 180.75 206.7 189.95 202.6 Q186.2 206.0 179.05 208.25 175.15 209.5 171.6 210.05 L167.65 210.45 164.05 209.6 161.05 208.85 161.05 208.8 161.75 208.65 168.3 208.1 174.45 206.25 M231.55 149.05 L242.05 140.15 220.5 166.75 234.35 167.05 232.65 168.45 Q230.8 169.4 229.4 169.45 L224.75 169.25 219.45 168.55 216.3 168.6 218.45 166.45 215.65 166.45 215.65 166.05 225.8 154.95 231.55 149.05 M268.85 126.85 L259.15 135.4 254.75 159.25 233.9 175.65 219.5 178.05 213.35 192.05 213.65 190.25 Q214.45 185.25 215.0 182.7 L216.6 177.0 215.3 179.15 213.65 181.45 213.45 181.45 213.5 181.15 213.95 180.3 214.8 178.85 215.5 177.9 Q218.5 174.25 220.05 171.65 220.25 172.25 220.05 173.4 220.15 174.25 222.15 174.25 L227.75 173.25 Q231.55 172.35 238.6 165.7 L242.45 161.85 238.25 166.35 Q231.85 173.1 229.45 175.05 230.95 174.95 235.75 171.5 L244.45 164.85 247.55 162.5 251.25 159.65 Q252.25 158.8 252.45 157.2 L253.05 152.45 259.05 134.85 Q259.95 133.4 259.85 131.45 260.7 129.85 267.25 127.85 L268.85 126.85 M263.7 261.3 L258.85 260.5 254.35 259.8 243.3 258.35 238.0 258.95 237.05 259.15 234.4 258.9 226.3 258.15 217.5 258.15 214.4 258.15 212.25 257.45 207.0 255.8 208.8 255.7 212.8 255.4 215.65 255.15 229.85 253.85 Q232.55 253.85 247.95 257.4 L261.5 260.7 263.7 261.3 M246.45 272.8 L238.55 271.35 225.6 269.0 220.15 268.8 211.8 268.0 211.3 267.85 209.7 267.3 207.4 266.45 206.7 266.2 200.7 261.3 191.4 260.5 185.3 260.4 177.6 261.0 Q174.9 261.4 172.5 262.8 169.9 263.65 168.05 264.6 L172.05 262.5 Q182.0 257.45 186.65 257.45 193.35 257.45 197.5 258.55 L198.85 259.65 205.1 262.65 Q212.15 266.25 217.25 266.25 L218.65 266.2 219.85 265.25 Q219.6 264.5 219.25 264.3 L218.65 264.25 218.45 263.85 Q219.95 264.15 223.65 265.4 227.1 266.35 229.05 265.85 L228.85 266.65 228.65 267.35 Q228.65 268.25 231.5 268.75 L236.45 269.65 246.45 272.8 M97.4 268.95 L96.45 269.05 95.65 269.1 94.95 269.15 96.1 268.65 102.25 265.5 Q104.9 264.05 106.25 263.45 L107.05 263.25 Q107.1 263.95 107.65 264.05 L109.45 264.05 113.7 263.65 117.35 263.25 118.9 263.65 119.4 263.85 119.95 263.75 122.6 263.5 124.85 262.55 130.45 260.85 Q141.45 257.45 144.35 257.45 L149.25 257.85 Q152.75 257.85 158.0 256.25 163.2 254.65 164.45 254.65 L174.9 256.6 173.25 257.0 173.15 257.05 169.65 258.1 164.45 257.05 160.4 256.4 155.35 257.85 150.6 259.4 149.15 259.55 148.8 259.55 142.0 259.75 137.05 260.4 131.85 262.15 125.0 264.55 123.95 264.95 112.4 265.15 110.85 265.15 106.65 266.6 106.45 266.65 Q102.45 268.2 98.15 268.85 L97.4 268.95 M137.4 250.35 L138.0 250.05 139.4 249.2 139.8 248.95 144.8 246.7 Q148.8 244.95 150.05 244.65 147.65 247.75 158.45 247.25 L163.65 247.5 168.25 248.25 Q167.75 249.25 162.9 250.3 L161.45 250.6 160.55 250.6 160.5 250.45 160.45 250.4 Q161.05 250.1 160.4 250.05 L153.95 249.15 153.6 249.1 151.95 248.65 Q150.5 247.95 149.9 247.9 147.9 246.85 147.3 246.85 147.05 246.85 143.0 248.6 139.35 250.15 137.4 250.35 M158.8 245.7 Q162.7 246.2 172.45 244.05 172.65 241.6 169.55 238.6 L168.35 237.5 142.4 218.15 142.35 218.1 Q134.0 212.4 130.5 204.4 L116.15 180.2 114.05 178.65 113.6 178.3 Q104.7 171.65 100.1 167.75 L95.55 163.35 90.4 162.45 Q91.3 161.3 91.55 160.2 L91.65 158.15 91.6 155.8 90.65 152.85 90.65 152.65 95.3 160.0 96.2 161.35 96.65 162.05 Q99.7 165.1 105.05 169.45 L116.75 179.55 119.95 180.65 Q121.05 180.65 121.05 179.25 121.05 178.45 120.65 177.65 L120.65 176.25 Q121.6 179.85 125.5 185.8 126.7 187.65 128.65 192.05 130.3 188.9 132.45 182.85 131.25 190.55 131.15 195.45 L131.15 199.0 131.15 200.0 Q132.1 203.85 133.45 205.05 134.2 204.55 133.85 201.7 L132.8 195.25 Q132.05 191.65 136.7 202.85 L139.9 210.25 145.65 216.25 Q146.35 215.85 146.7 214.1 L146.85 211.05 146.85 210.85 Q147.1 211.95 149.05 215.95 L151.65 221.05 Q152.25 222.15 154.4 222.35 156.25 222.55 156.45 224.25 156.6 225.5 158.75 227.3 L161.65 229.45 Q165.35 232.3 168.65 234.6 L173.25 237.85 Q174.6 236.5 175.25 234.85 L177.45 241.45 Q178.35 241.1 180.3 241.85 L183.65 243.25 183.65 243.45 181.85 243.0 179.75 242.65 Q176.8 242.65 172.4 245.05 168.0 247.45 166.35 247.45 L160.05 246.25 158.8 245.7 M53.2 138.1 Q51.1 133.05 49.0 131.4 43.95 127.5 34.95 129.8 32.35 130.45 29.75 131.4 25.5 132.9 21.35 135.0 L26.05 131.9 Q34.3 126.65 36.35 126.65 L38.3 127.0 40.05 127.45 44.45 127.45 43.55 126.6 42.25 126.05 42.25 125.85 46.35 127.5 Q49.55 128.8 50.05 130.25 L52.5 135.75 53.2 138.1 M24.9 128.25 L11.0 125.2 22.8 126.55 Q27.05 126.9 33.45 126.45 L24.9 128.25" fill="#141414" fill-rule="evenodd" stroke="none"/>
      <path d="M158.4 195.6 L159.6 197.35 162.1 200.6 164.25 202.75 165.65 204.2 168.5 206.9 166.8 207.35 164.9 207.15 161.45 206.65 161.45 206.45 163.5 206.2 165.45 205.85 Q165.65 205.6 162.75 202.55 L157.4 196.55 154.75 193.15 154.05 192.05 152.45 191.05 Q151.75 190.75 151.65 190.25 151.35 188.5 151.4 185.8 L151.55 181.45 151.85 184.55 Q152.3 188.45 152.85 189.85 L153.05 189.05 Q154.1 189.55 157.6 194.5 L158.4 195.6 M221.25 242.85 Q224.9 244.0 227.55 244.15 228.75 244.15 232.3 243.15 L237.8 243.9 Q236.6 244.0 236.5 244.2 L230.25 244.45 Q229.5 244.55 227.8 245.25 L227.6 245.35 225.75 245.65 Q224.7 245.65 222.3 244.85 L219.7 244.2 219.1 244.15 219.0 244.1 219.7 243.5 Q220.65 242.8 221.25 242.85 M267.5 261.9 L266.7 261.9 263.7 261.3 261.5 260.7 247.95 257.4 Q232.55 253.85 229.85 253.85 L215.65 255.15 215.25 255.15 Q219.05 254.7 224.8 253.45 L227.1 252.95 227.25 252.9 Q237.0 252.95 241.65 254.45 L263.75 260.85 267.5 261.9 M101.35 149.4 L106.2 154.65 Q117.6 169.55 132.8 172.95 L132.65 179.6 132.4 179.85 125.95 173.95 Q122.4 170.65 121.25 170.65 L119.85 170.95 119.0 171.25 118.8 171.1 117.75 169.15 116.85 167.45 117.45 167.45 108.75 159.6 Q104.45 155.4 101.35 149.4 M139.65 193.2 L143.25 197.45 Q144.25 198.75 147.2 204.5 150.15 210.2 150.45 211.45 150.45 210.85 149.65 208.45 L149.65 207.25 Q151.75 209.2 154.75 214.25 157.3 218.5 158.8 222.35 L159.65 224.85 Q160.5 224.85 163.35 226.0 L166.6 227.4 168.65 228.25 169.25 225.85 Q170.4 226.15 174.55 228.55 L172.85 228.25 Q171.65 228.25 171.4 228.7 L171.05 230.05 166.85 228.7 164.5 227.85 Q158.55 225.7 158.25 224.85 L156.5 221.15 154.6 217.4 151.25 211.05 151.45 216.25 151.05 216.25 Q149.95 211.1 145.75 203.3 142.85 197.8 139.65 193.2 M136.55 175.7 L137.75 174.7 139.25 173.5 138.8 174.0 137.65 175.7 Q136.8 177.05 135.9 179.4 134.95 181.75 135.0 184.15 135.0 186.5 135.45 188.5 L135.85 190.95 135.85 191.1 136.2 192.2 Q136.75 193.65 138.45 196.35 L139.2 198.75 Q140.4 202.05 142.1 205.7 137.6 198.45 136.35 196.0 134.25 191.85 134.25 186.05 L134.5 182.8 134.65 181.85 135.25 179.4 136.55 175.7 M205.05 258.15 L208.9 260.45 Q211.55 262.05 214.55 262.05 L215.85 261.85 215.85 261.5 216.7 262.15 Q217.55 262.7 218.25 262.65 218.15 264.25 215.65 264.25 L211.85 263.65 210.3 262.65 208.85 261.45 205.85 259.4 Q205.2 258.8 205.05 258.15 M213.3 178.55 Q215.5 175.95 216.6 175.05 L217.05 175.0 214.8 178.85 213.95 180.3 213.5 181.15 207.45 192.45 204.25 198.95 Q202.85 201.8 201.25 203.65 192.85 213.05 191.65 213.05 L191.35 213.0 Q195.85 209.5 200.25 202.15 202.3 198.8 205.45 192.25 209.0 184.9 211.85 180.65 L213.3 178.55" fill="#404040" fill-rule="evenodd" stroke="none"/>
      <path d="M85.6 161.55 L61.1 157.15 78.65 159.4 83.05 159.85 Q85.55 159.85 86.45 155.05 L86.85 149.95 Q86.85 144.6 85.3 141.0 84.15 138.3 81.8 135.6 L80.2 132.85 Q85.1 135.4 90.4 142.6 94.35 148.0 96.45 152.65 L97.0 153.8 Q106.45 166.45 119.1 175.0 119.3 176.15 119.05 177.05 L114.15 173.6 Q106.1 166.55 101.3 161.2 94.35 153.5 86.85 141.45 L86.65 141.2 86.8 141.5 Q88.0 145.05 89.85 159.25 89.85 161.25 85.6 161.55" fill="#2e2e2e" fill-rule="evenodd" stroke="none"/>
      <path d="M91.45 269.85 Q94.4 270.8 102.05 270.85 104.3 270.85 106.45 269.9 L109.45 268.45 111.65 268.1 116.25 267.45 122.55 267.05 133.05 266.45 Q129.85 267.5 116.25 269.85 112.4 270.5 109.05 271.85 106.95 272.65 102.45 272.65 L94.15 272.4 84.45 271.65 Q87.65 269.8 90.2 268.85 L93.15 268.0 92.95 268.1 91.45 269.25 91.45 269.85 M131.85 251.25 L137.55 251.45 Q143.05 251.45 143.95 250.45 144.85 249.45 148.65 249.45 L153.25 249.65 146.8 252.15 Q143.15 253.45 140.45 253.45 L135.65 253.05 130.95 253.1 128.45 253.25 126.4 253.2 Q125.9 253.15 125.65 252.85 125.9 251.65 130.75 249.95 L133.85 249.0 131.85 250.85 131.85 251.25 M159.25 258.65 L159.25 259.05 Q156.75 261.65 155.6 262.3 154.0 263.25 149.25 263.25 L142.55 262.85 138.35 263.25 Q136.4 263.7 135.85 264.25 L135.85 264.05 137.1 262.85 140.2 262.05 144.45 261.45 149.05 261.85 Q150.15 261.85 153.7 260.4 L157.85 258.65 159.25 258.65 M147.15 269.1 Q146.45 269.45 146.05 270.05 L146.05 270.65 153.7 271.2 162.05 271.5 Q161.3 271.6 159.4 272.45 157.2 273.45 154.05 273.45 L146.55 272.95 141.85 272.05 141.65 271.85 Q142.4 270.75 145.35 269.7 L147.15 269.1 M172.75 264.9 L173.9 264.55 178.65 263.45 182.65 263.05 186.15 263.05 195.0 263.5 205.25 266.45 Q206.15 266.65 207.65 268.05 208.9 269.25 211.65 269.45 L220.55 270.0 225.25 270.65 225.25 270.85 217.65 271.45 Q214.35 271.45 208.6 270.15 L202.45 268.65 202.4 268.05 202.45 267.45 Q195.7 267.0 194.15 265.65 192.75 264.45 189.75 264.45 L181.65 264.75 175.05 265.05 172.75 264.9 M249.45 245.55 L250.15 245.45 Q252.05 245.45 253.5 246.05 255.2 246.75 255.65 248.05 L254.05 248.25 Q253.9 249.6 250.35 250.0 L242.65 250.25 233.65 249.85 233.65 249.45 250.65 247.05 Q250.45 246.3 249.6 245.65 L249.45 245.55 M237.45 262.65 Q237.75 262.2 238.65 262.05 L241.35 262.25 246.75 261.85 251.35 262.45 257.35 263.05 Q261.05 263.05 262.25 262.45 L263.65 262.45 Q262.7 264.25 257.65 264.3 L251.85 264.05 243.4 263.95 Q239.85 263.75 237.45 262.65 M247.85 275.4 L247.8 275.4 250.35 275.0 255.85 273.85 255.85 273.45 Q255.25 272.85 254.45 272.85 L256.85 272.25 256.8 271.8 Q256.75 271.55 256.85 271.45 L258.45 271.45 259.85 271.85 259.85 272.25 Q257.9 272.45 257.05 273.45 L257.8 273.75 Q258.55 274.15 258.85 274.45 257.35 275.8 252.65 275.85 L252.65 275.65 252.45 275.85 247.85 275.4" fill="#141414" fill-opacity="0.54901963" fill-rule="evenodd" stroke="none"/>
      <path d="M248.7 246.7 L250.05 246.85 243.45 247.65 234.45 248.05 226.45 248.4 224.7 248.9 222.7 247.9 225.9 247.5 248.7 246.7 M258.85 260.5 L250.6 259.75 242.05 259.35 239.25 259.6 236.2 259.85 231.6 259.25 224.8 258.65 220.8 258.65 219.05 258.95 218.85 258.85 217.5 258.15 226.3 258.15 234.4 258.9 237.05 259.15 238.0 258.95 243.3 258.35 254.35 259.8 258.85 260.5 M209.7 267.3 L209.55 267.25 Q208.05 267.1 204.5 265.1 200.65 263.0 199.85 262.75 L197.2 261.85 192.45 261.35 184.25 261.05 Q180.55 261.05 176.75 262.05 172.65 263.15 169.25 265.15 163.95 268.4 163.05 268.75 159.6 269.95 154.4 269.95 L153.15 269.85 156.2 269.7 163.1 267.7 163.05 267.65 165.95 265.75 166.45 265.45 168.05 264.6 Q169.9 263.65 172.5 262.8 174.9 261.4 177.6 261.0 L185.3 260.4 191.4 260.5 200.7 261.3 206.7 266.2 207.4 266.45 209.7 267.3 M169.85 259.0 L165.75 258.2 159.75 257.15 156.7 257.95 Q154.0 258.95 151.55 259.35 L149.1 259.95 146.95 260.35 144.7 260.55 142.45 260.95 Q133.85 261.7 129.1 264.0 125.05 265.95 118.35 265.95 L114.65 265.55 Q111.5 265.55 105.45 267.25 99.45 268.95 97.45 268.95 L97.4 268.95 98.15 268.85 Q102.45 268.2 106.45 266.65 L106.65 266.6 110.85 265.15 112.4 265.15 123.95 264.95 125.0 264.55 131.85 262.15 137.05 260.4 142.0 259.75 148.8 259.55 149.15 259.55 150.6 259.4 155.35 257.85 160.4 256.4 164.45 257.05 169.65 258.1 169.9 258.2 170.8 258.45 Q170.6 258.55 170.35 258.7 L169.85 259.0 M158.25 251.75 L158.45 251.55 157.9 250.9 Q157.65 250.35 157.05 250.25 L152.55 249.45 Q148.05 247.95 146.95 247.95 146.0 247.95 142.95 248.95 L138.35 250.35 137.4 250.35 Q139.35 250.15 143.0 248.6 147.05 246.85 147.3 246.85 147.9 246.85 149.9 247.9 150.5 247.95 151.95 248.65 L153.6 249.1 153.95 249.15 160.4 250.05 Q161.05 250.1 160.45 250.4 L159.75 250.65 159.95 250.65 160.55 250.6 161.45 250.6 161.35 250.65 160.6 250.9 158.25 251.75" fill="#141414" fill-opacity="0.7137255" fill-rule="evenodd" stroke="none"/>
      <path d="M159.75 250.65 L160.45 250.4 160.5 250.45 159.75 250.65" fill="#363636" fill-rule="evenodd" stroke="none"/>
    </g>
  </defs>
</svg>
