<?xml version="1.0" encoding="UTF-8" standalone="no"?>
<svg xmlns:xlink="http://www.w3.org/1999/xlink" height="54.05px" width="147.85px" xmlns="http://www.w3.org/2000/svg">
  <g transform="matrix(1.0, 0.0, 0.0, 1.0, 0.0, 0.0)">
    <use height="37.65" transform="matrix(1.0, 0.0, 0.0, 1.0, 1.1, 10.05)" width="23.7" xlink:href="#sprite0"/>
    <use height="34.6" transform="matrix(1.0, 0.0, 0.0, 1.0, 0.0, 9.8)" width="23.1" xlink:href="#shape1"/>
    <use height="41.3" transform="matrix(1.0, 0.0, 0.0, 1.0, 37.2, 1.0)" width="30.2" xlink:href="#sprite1"/>
    <use height="36.9" transform="matrix(1.0, 0.0, 0.0, 1.0, 34.0, 2.05)" width="32.0" xlink:href="#shape3"/>
    <use height="37.65" transform="matrix(1.0, 0.0, 0.0, 1.0, 78.4, 12.05)" width="23.75" xlink:href="#sprite2"/>
    <use height="34.6" transform="matrix(1.0, 0.0, 0.0, 1.0, 77.35, 11.8)" width="23.1" xlink:href="#shape4"/>
    <use height="41.3" transform="matrix(1.0, 0.0, 0.0, 1.0, 111.85, 7.0)" width="30.2" xlink:href="#sprite3"/>
    <use height="36.9" transform="matrix(1.0, 0.0, 0.0, 1.0, 108.65, 8.05)" width="32.0" xlink:href="#shape6"/>
    <use height="0.0" id="price_tag_pt" transform="matrix(1.0, 0.0, 0.0, 1.0, 73.9, 55.45)" width="0.0" xlink:href="#sprite4"/>
  </g>
  <defs>
    <g id="sprite0" transform="matrix(1.0, 0.0, 0.0, 1.0, -36.0, -36.05)">
      <use height="37.65" transform="matrix(0.9979, 0.0, 0.0, 1.0, 36.0243, 36.05)" width="23.75" xlink:href="#shape0"/>
    </g>
    <g id="shape0" transform="matrix(1.0, 0.0, 0.0, 1.0, -35.95, -36.05)">
      <path d="M50.1 48.15 L49.95 47.95 50.95 69.55 48.95 71.8 Q46.3 73.95 43.15 73.65 39.3 73.25 37.25 70.25 35.15 67.15 36.45 63.25 37.55 59.95 41.3 59.25 43.2 58.9 44.85 59.2 L43.95 38.9 43.6 36.3 44.55 36.1 46.7 36.2 Q49.2 35.75 52.4 38.05 60.05 43.45 59.6 53.3 59.45 56.65 58.45 59.55 57.55 62.1 57.0 62.05 56.55 62.0 55.85 58.7 55.0 54.85 53.7 53.1 52.15 51.15 51.5 49.55 51.2 48.8 50.9 48.95 50.85 50.8 50.1 48.15" fill="#000000" fill-rule="evenodd" stroke="none"/>
    </g>
    <g id="shape1" transform="matrix(1.0, 0.0, 0.0, 1.0, 0.0, -9.8)">
      <path d="M13.0 17.65 L12.8 20.4 12.65 20.25 13.8 38.25 11.95 40.1 Q9.55 41.9 6.65 41.6 3.1 41.2 1.25 38.7 -0.7 36.1 0.45 32.85 1.4 30.1 4.85 29.55 6.6 29.3 8.1 29.55 L7.05 12.6 8.55 9.8 8.55 9.95 Q8.7 10.15 9.6 10.35 11.85 10.05 14.85 12.0 25.9 19.2 21.85 31.45 L21.55 27.2 Q21.15 22.35 18.05 19.9 14.25 16.95 13.0 17.65" fill="#4f4f4f" fill-rule="evenodd" stroke="none"/>
      <path d="M13.35 20.7 L13.2 23.3 13.05 23.15 14.3 40.05 12.5 41.8 Q10.1 43.45 7.2 43.15 3.65 42.8 1.75 40.4 -0.2 37.95 0.95 34.9 1.9 32.35 5.3 31.85 7.05 31.65 8.55 31.9 L7.4 15.95 7.05 13.9 7.95 13.75 9.9 13.85 Q10.7 13.7 11.8 14.3 L14.6 16.0 Q25.7 22.85 22.3 33.75 L21.95 29.75 Q21.55 25.2 18.45 22.9 14.55 20.05 13.35 20.7" fill="#7d7d7d" fill-rule="evenodd" stroke="none"/>
      <path d="M13.0 21.85 L12.9 24.45 12.75 24.3 14.0 41.25 12.2 42.95 Q9.8 44.65 6.9 44.35 3.35 43.95 1.45 41.6 -0.5 39.1 0.6 36.1 1.55 33.5 5.0 33.0 6.75 32.8 8.25 33.05 L7.1 17.1 6.75 15.05 7.65 14.9 9.6 15.0 Q11.8 14.75 14.85 16.6 25.95 23.4 22.0 34.9 L21.65 30.9 Q21.25 26.35 18.1 24.05 14.4 21.3 13.0 21.85" fill="#2b2b2b" fill-rule="evenodd" stroke="none"/>
      <path d="M13.0 21.85 L12.9 24.45 12.75 24.3 14.0 41.25 12.2 42.95 Q9.8 44.65 6.9 44.35 3.35 43.95 1.45 41.6 -0.5 39.1 0.6 36.1 1.55 33.5 5.0 33.0 6.75 32.8 8.25 33.05 L7.1 17.1 6.75 15.05 7.65 14.9 9.6 15.0 Q11.8 14.75 14.85 16.6 25.95 23.4 22.0 34.9 L21.65 30.9 Q21.25 26.35 18.1 24.05 14.4 21.3 13.0 21.85" fill="url(#gradient0)" fill-rule="evenodd" stroke="none"/>
      <path d="M8.65 13.7 L10.1 13.8 12.9 14.45 Q14.65 15.2 17.65 17.7 14.65 16.2 13.15 15.95 12.2 15.8 10.35 14.75 L8.65 13.7" fill="#828282" fill-rule="evenodd" stroke="none"/>
      <path d="M2.5 32.8 Q3.85 32.95 3.25 34.0 2.65 35.1 1.8 34.6 1.15 34.25 1.75 33.5 L2.5 32.8" fill="#b5b5b5" fill-rule="evenodd" stroke="none"/>
    </g>
    <linearGradient gradientTransform="matrix(0.0, -0.0238, -0.0238, 0.0, 11.7, 32.4)" gradientUnits="userSpaceOnUse" id="gradient0" spreadMethod="pad" x1="-819.2" x2="819.2">
      <stop offset="0.0" stop-color="#000000"/>
      <stop offset="0.09019607843137255" stop-color="#000000" stop-opacity="0.79607844"/>
      <stop offset="1.0" stop-color="#000000" stop-opacity="0.0"/>
    </linearGradient>
    <g id="sprite1" transform="matrix(1.0, 0.0, 0.0, 1.0, -36.05, -36.0)">
      <use height="41.3" transform="matrix(1.0, 0.0, 0.0, 1.0, 36.05, 36.0)" width="30.2" xlink:href="#shape2"/>
    </g>
    <g id="shape2" transform="matrix(1.0, 0.0, 0.0, 1.0, -36.05, -36.0)">
      <path d="M60.25 45.6 L47.4 43.45 48.7 71.0 47.1 73.15 Q44.85 75.25 41.8 74.95 38.35 74.6 37.0 72.0 35.9 69.75 36.05 65.1 36.2 61.5 39.85 60.95 L43.45 61.15 42.3 36.0 64.9 38.5 65.0 41.25 65.05 41.25 66.25 73.3 Q65.75 74.4 64.65 75.45 62.4 77.55 59.35 77.25 55.9 76.9 54.55 74.3 53.45 72.1 53.55 67.4 53.7 63.8 57.35 63.25 L60.95 63.45 60.25 45.6" fill="#000000" fill-rule="evenodd" stroke="none"/>
    </g>
    <g id="shape3" transform="matrix(1.0, 0.0, 0.0, 1.0, -34.0, -2.05)">
      <path d="M37.85 23.1 L42.1 22.95 42.75 7.45 40.2 4.7 42.2 2.05 62.0 3.95 63.9 7.15 63.6 11.1 63.6 35.8 64.25 36.3 61.05 36.4 Q57.0 36.0 55.1 34.6 52.95 33.05 52.6 29.65 52.1 25.05 57.2 24.65 L62.4 25.15 61.15 10.4 44.5 7.65 46.65 33.85 Q46.95 34.05 46.6 34.15 45.85 34.4 42.65 34.1 38.35 33.7 36.6 32.6 34.35 31.2 34.05 27.9 33.7 24.05 37.85 23.1" fill="#4f4f4f" fill-rule="evenodd" stroke="none"/>
      <path d="M41.85 25.3 L40.05 4.55 63.7 7.15 63.9 9.4 63.95 9.4 66.0 35.8 64.35 37.55 Q62.1 39.2 58.9 38.9 55.25 38.5 53.8 36.35 52.55 34.5 52.6 30.65 52.65 27.7 56.45 27.35 L60.25 27.6 59.0 12.9 45.55 10.8 47.6 33.5 46.0 35.25 Q43.7 36.9 40.5 36.6 36.9 36.2 35.45 34.05 34.2 32.2 34.25 28.35 34.3 25.4 38.05 25.05 L41.85 25.3" fill="#2b2b2b" fill-rule="evenodd" stroke="none"/>
      <path d="M41.85 25.3 L40.05 4.55 63.7 7.15 63.9 9.4 63.95 9.4 66.0 35.8 64.35 37.55 Q62.1 39.2 58.9 38.9 55.25 38.5 53.8 36.35 52.55 34.5 52.6 30.65 52.65 27.7 56.45 27.35 L60.25 27.6 59.0 12.9 45.55 10.8 47.6 33.5 46.0 35.25 Q43.7 36.9 40.5 36.6 36.9 36.2 35.45 34.05 34.2 32.2 34.25 28.35 34.3 25.4 38.05 25.05 L41.85 25.3" fill="url(#gradient1)" fill-rule="evenodd" stroke="none"/>
      <path d="M52.55 31.85 Q52.4 31.1 52.5 30.2 52.7 28.1 54.3 27.4 L58.25 27.1 60.25 27.6 55.45 28.05 Q53.1 28.45 52.65 30.35 52.45 31.15 52.55 31.85" fill="#7d7d7d" fill-rule="evenodd" stroke="none"/>
      <path d="M37.8 26.5 Q36.6 27.8 35.95 27.2 35.5 26.85 36.1 25.95 L36.8 25.15 Q38.85 25.3 37.8 26.5" fill="#b5b5b5" fill-rule="evenodd" stroke="none"/>
      <path d="M56.15 27.05 Q57.6 26.95 56.9 28.0 56.2 29.0 54.65 28.8 53.1 28.65 53.85 27.9 54.55 27.15 56.15 27.05" fill="#b5b5b5" fill-rule="evenodd" stroke="none"/>
      <path d="M40.05 4.55 L63.7 7.15 63.7 8.15 39.65 5.2 40.05 4.55" fill="#7d7d7d" fill-rule="evenodd" stroke="none"/>
      <path d="M44.3 5.45 L50.05 5.95 Q53.05 6.2 56.3 7.45 L50.05 6.7 45.85 6.0 44.3 5.45" fill="#828282" fill-rule="evenodd" stroke="none"/>
      <path d="M41.85 25.3 Q38.1 25.0 36.5 26.15 35.55 26.85 34.8 28.5 L34.3 29.95 34.65 27.8 Q35.2 25.55 36.5 25.0 L40.15 24.7 Q41.15 24.95 41.85 25.3" fill="#7d7d7d" fill-rule="evenodd" stroke="none"/>
    </g>
    <linearGradient gradientTransform="matrix(0.0, -0.0284, -0.0284, 0.0, 50.1, 24.95)" gradientUnits="userSpaceOnUse" id="gradient1" spreadMethod="pad" x1="-819.2" x2="819.2">
      <stop offset="0.0" stop-color="#000000"/>
      <stop offset="0.09019607843137255" stop-color="#000000" stop-opacity="0.79607844"/>
      <stop offset="1.0" stop-color="#000000" stop-opacity="0.0"/>
    </linearGradient>
    <g id="sprite2" transform="matrix(1.0, 0.0, 0.0, 1.0, -35.95, -36.05)">
      <use height="37.65" transform="matrix(1.0, 0.0, 0.0, 1.0, 35.95, 36.05)" width="23.75" xlink:href="#shape0"/>
    </g>
    <g id="shape4" transform="matrix(1.0, 0.0, 0.0, 1.0, -77.35, -11.8)">
      <path d="M95.4 21.9 Q91.65 19.0 90.3 19.65 L90.15 22.4 90.0 22.25 91.15 40.25 89.3 42.1 Q86.9 43.9 84.0 43.6 80.45 43.2 78.6 40.7 76.65 38.1 77.8 34.85 78.75 32.1 82.2 31.55 83.95 31.3 85.45 31.55 L84.4 14.6 85.9 11.8 85.85 11.95 86.95 12.35 Q89.2 12.05 92.2 14.0 103.25 21.2 99.2 33.45 L98.85 29.2 Q98.5 24.35 95.4 21.9" fill="#4f4f4f" fill-rule="evenodd" stroke="none"/>
      <path d="M95.75 24.9 Q91.95 22.05 90.65 22.7 L90.55 25.3 90.4 25.15 91.65 42.05 89.85 43.8 Q87.45 45.45 84.55 45.15 81.0 44.8 79.1 42.4 77.15 39.95 78.25 36.9 79.2 34.35 82.65 33.85 84.4 33.65 85.9 33.9 L84.75 17.95 84.4 15.9 85.3 15.75 87.25 15.85 Q88.05 15.7 89.15 16.3 L91.95 18.0 Q103.05 24.85 99.65 35.75 L99.3 31.75 Q98.9 27.2 95.75 24.9" fill="#7d7d7d" fill-rule="evenodd" stroke="none"/>
      <path d="M84.45 19.1 L84.1 17.05 84.95 16.9 86.95 17.0 Q89.15 16.75 92.2 18.6 103.3 25.4 99.35 36.9 L99.0 32.9 Q98.6 28.35 95.45 26.05 91.75 23.3 90.35 23.85 L90.2 26.45 90.05 26.3 91.35 43.25 89.55 44.95 Q87.15 46.65 84.25 46.35 80.7 45.95 78.8 43.6 76.85 41.1 77.95 38.1 78.9 35.5 82.35 35.0 84.05 34.8 85.55 35.05 L84.45 19.1" fill="#2b2b2b" fill-rule="evenodd" stroke="none"/>
      <path d="M84.45 19.1 L84.1 17.05 84.95 16.9 86.95 17.0 Q89.15 16.75 92.2 18.6 103.3 25.4 99.35 36.9 L99.0 32.9 Q98.6 28.35 95.45 26.05 91.75 23.3 90.35 23.85 L90.2 26.45 90.05 26.3 91.35 43.25 89.55 44.95 Q87.15 46.65 84.25 46.35 80.7 45.95 78.8 43.6 76.85 41.1 77.95 38.1 78.9 35.5 82.35 35.0 84.05 34.8 85.55 35.05 L84.45 19.1" fill="url(#gradient2)" fill-rule="evenodd" stroke="none"/>
      <path d="M86.0 15.7 L87.45 15.8 90.25 16.45 Q92.0 17.2 95.0 19.7 L86.0 15.7" fill="#828282" fill-rule="evenodd" stroke="none"/>
      <path d="M79.8 34.8 Q81.15 34.95 80.55 36.0 79.95 37.15 79.15 36.6 78.5 36.25 79.1 35.5 L79.8 34.8" fill="#b5b5b5" fill-rule="evenodd" stroke="none"/>
    </g>
    <linearGradient gradientTransform="matrix(0.0, -0.0238, -0.0238, 0.0, 89.0, 34.4)" gradientUnits="userSpaceOnUse" id="gradient2" spreadMethod="pad" x1="-819.2" x2="819.2">
      <stop offset="0.0" stop-color="#000000"/>
      <stop offset="0.09019607843137255" stop-color="#000000" stop-opacity="0.79607844"/>
      <stop offset="1.0" stop-color="#000000" stop-opacity="0.0"/>
    </linearGradient>
    <g id="sprite3" transform="matrix(1.0, 0.0, 0.0, 1.0, -36.0, -36.0)">
      <use height="41.3" transform="matrix(1.0, 0.0, 0.0, 1.0, 36.0, 36.0)" width="30.2" xlink:href="#shape5"/>
    </g>
    <g id="shape5" transform="matrix(1.0, 0.0, 0.0, 1.0, -36.0, -36.0)">
      <path d="M60.2 45.6 L47.4 43.45 48.65 71.0 47.05 73.15 Q44.8 75.25 41.75 74.95 38.3 74.6 37.0 72.0 35.85 69.75 36.0 65.1 36.15 61.5 39.8 60.95 L43.4 61.15 42.65 42.55 42.6 42.55 42.3 36.0 64.85 38.5 64.95 41.25 65.05 41.25 66.2 73.3 Q65.7 74.4 64.6 75.45 62.35 77.55 59.3 77.25 55.85 76.9 54.5 74.3 53.4 72.05 53.55 67.4 53.7 63.8 57.35 63.25 L60.95 63.45 60.2 45.6" fill="#000000" fill-rule="evenodd" stroke="none"/>
    </g>
    <g id="shape6" transform="matrix(1.0, 0.0, 0.0, 1.0, -108.65, -8.05)">
      <path d="M138.3 41.8 L138.9 42.3 135.7 42.4 Q131.65 42.0 129.75 40.6 127.6 39.05 127.25 35.65 126.75 31.05 131.85 30.65 L137.05 31.15 135.85 16.4 119.2 13.65 121.35 39.85 Q121.65 40.05 121.25 40.15 120.55 40.4 117.35 40.1 113.05 39.7 111.25 38.6 109.0 37.2 108.7 33.9 108.35 30.05 112.5 29.1 L116.75 28.95 117.4 13.45 114.9 10.7 116.9 8.05 136.65 9.95 138.55 13.15 138.3 41.8" fill="#4f4f4f" fill-rule="evenodd" stroke="none"/>
      <path d="M138.35 13.15 L138.55 15.4 138.6 15.4 140.65 41.8 139.0 43.55 Q136.75 45.2 133.55 44.9 129.95 44.5 128.5 42.35 127.25 40.5 127.3 36.65 127.35 33.7 131.1 33.35 L134.9 33.6 133.7 18.9 120.25 16.8 122.3 39.5 120.65 41.25 Q118.4 42.9 115.2 42.6 111.55 42.2 110.1 40.05 108.85 38.2 108.9 34.35 108.95 31.4 112.75 31.05 L116.55 31.3 114.75 10.55 138.35 13.15" fill="#2b2b2b" fill-rule="evenodd" stroke="none"/>
      <path d="M138.35 13.15 L138.55 15.4 138.6 15.4 140.65 41.8 139.0 43.55 Q136.75 45.2 133.55 44.9 129.95 44.5 128.5 42.35 127.25 40.5 127.3 36.65 127.35 33.7 131.1 33.35 L134.9 33.6 133.7 18.9 120.25 16.8 122.3 39.5 120.65 41.25 Q118.4 42.9 115.2 42.6 111.55 42.2 110.1 40.05 108.85 38.2 108.9 34.35 108.95 31.4 112.75 31.05 L116.55 31.3 114.75 10.55 138.35 13.15" fill="url(#gradient3)" fill-rule="evenodd" stroke="none"/>
      <path d="M128.95 33.4 L132.9 33.1 134.9 33.6 130.15 34.05 Q127.8 34.45 127.3 36.35 127.1 37.15 127.2 37.85 127.05 37.1 127.15 36.2 127.35 34.1 128.95 33.4" fill="#7d7d7d" fill-rule="evenodd" stroke="none"/>
      <path d="M111.45 31.15 Q113.5 31.3 112.45 32.5 111.3 33.8 110.6 33.2 110.15 32.85 110.75 31.95 L111.45 31.15" fill="#b5b5b5" fill-rule="evenodd" stroke="none"/>
      <path d="M130.85 33.05 Q132.3 32.95 131.55 34.0 130.85 35.0 129.3 34.8 127.75 34.65 128.5 33.9 129.25 33.15 130.85 33.05" fill="#b5b5b5" fill-rule="evenodd" stroke="none"/>
      <path d="M138.4 14.15 L114.35 11.2 114.75 10.55 138.35 13.15 138.4 14.15" fill="#7d7d7d" fill-rule="evenodd" stroke="none"/>
      <path d="M119.0 11.45 L124.75 11.95 Q127.75 12.2 131.0 13.45 L124.75 12.7 120.55 12.0 119.0 11.45" fill="#828282" fill-rule="evenodd" stroke="none"/>
      <path d="M108.95 35.95 L109.3 33.8 Q109.9 31.55 111.2 31.0 L114.8 30.7 Q115.85 30.95 116.55 31.3 112.75 31.0 111.2 32.15 110.2 32.85 109.5 34.5 L108.95 35.95" fill="#7d7d7d" fill-rule="evenodd" stroke="none"/>
    </g>
    <linearGradient gradientTransform="matrix(0.0, -0.0284, -0.0284, 0.0, 124.8, 30.95)" gradientUnits="userSpaceOnUse" id="gradient3" spreadMethod="pad" x1="-819.2" x2="819.2">
      <stop offset="0.0" stop-color="#000000"/>
      <stop offset="0.09019607843137255" stop-color="#000000" stop-opacity="0.79607844"/>
      <stop offset="1.0" stop-color="#000000" stop-opacity="0.0"/>
    </linearGradient>
  </defs>
</svg>
