<?xml version="1.0" encoding="UTF-8" standalone="no"?>
<svg xmlns:xlink="http://www.w3.org/1999/xlink" height="500.0px" width="500.0px" xmlns="http://www.w3.org/2000/svg">
  <g transform="matrix(1.0, 0.0, 0.0, 1.0, 0.0, 0.0)">
    <use height="500.0" transform="matrix(1.0, 0.0, 0.0, 1.0, 0.0, 0.0)" width="500.0" xlink:href="#shape0"/>
    <use height="173.3" transform="matrix(1.0, 0.0, 0.0, 1.0001, 28.7, 90.7)" width="57.0" xlink:href="#sprite0"/>
    <use height="144.1" transform="matrix(1.0, 0.0, 0.0, 1.0001, 77.05, 345.15)" width="83.3" xlink:href="#sprite6"/>
    <use height="80.4" transform="matrix(1.0, 0.0, 0.0, 1.0001, 130.35, 195.25)" width="27.85" xlink:href="#sprite12"/>
    <use height="170.45" transform="matrix(1.0, 0.0, 0.0, 1.0001, 226.2, 212.0)" width="112.0" xlink:href="#sprite16"/>
    <use height="93.7" transform="matrix(1.0, 0.0, 0.0, 1.0001, 368.2, 402.95)" width="46.0" xlink:href="#sprite26"/>
    <use height="211.15" transform="matrix(1.0, 0.0, 0.0, 1.0001, 385.3, 169.8)" width="102.9" xlink:href="#sprite30"/>
    <use height="126.75" transform="matrix(1.0, 0.0, 0.0, 1.0001, 330.2, 10.0)" width="78.5" xlink:href="#sprite43"/>
    <use height="93.0" transform="matrix(1.0, 0.0, 0.0, 1.0001, 149.2, 16.5)" width="76.7" xlink:href="#sprite51"/>
  </g>
  <defs>
    <g id="shape0" transform="matrix(1.0, 0.0, 0.0, 1.0, 0.0, 0.0)">
      <path d="M500.0 500.0 L0.0 500.0 0.0 0.0 500.0 0.0 500.0 500.0" fill="#d6d5a7" fill-rule="evenodd" stroke="none"/>
      <path d="M244.05 252.45 Q246.7 255.05 246.55 260.7 246.45 265.5 242.3 273.05 240.2 276.85 238.15 279.65 237.65 272.8 236.95 270.1 236.7 269.1 234.65 265.0 232.75 261.15 232.45 259.0 232.05 256.25 233.6 254.1 235.05 252.1 237.65 251.25 241.55 249.95 244.05 252.45" fill="#b5b478" fill-rule="evenodd" stroke="none"/>
      <path d="M243.4 253.4 Q245.25 255.2 245.4 258.5 245.55 262.85 242.6 269.8 240.0 275.9 239.15 276.15 239.05 276.2 238.7 273.45 238.3 270.2 237.8 268.75 235.1 262.6 234.5 259.8 233.4 255.1 237.3 253.1 241.05 251.15 243.4 253.4" fill="#446f59" fill-rule="evenodd" stroke="none"/>
      <path d="M237.5 254.8 Q237.7 253.95 238.8 253.25 L241.7 253.1 Q245.75 255.25 244.2 262.35 243.6 265.05 242.5 267.0 L241.5 268.4 242.7 265.05 Q243.0 264.0 242.9 262.0 L242.7 260.2 241.2 263.05 Q241.35 261.0 241.0 259.0 240.8 257.75 239.15 256.15 L237.5 254.8" fill="#51846a" fill-rule="evenodd" stroke="none"/>
      <path d="M235.8 255.95 Q237.25 254.9 238.45 256.85 L239.35 259.0 238.65 258.3 236.95 258.35 Q236.1 259.0 236.9 261.15 L238.65 265.25 Q239.85 267.9 239.5 271.8 L240.35 269.75 240.7 271.45 242.0 270.1 239.15 275.0 Q238.8 270.1 237.8 267.25 L235.1 259.5 Q234.5 257.8 235.1 256.7 L235.8 255.95" fill="#385949" fill-rule="evenodd" stroke="none"/>
      <path d="M452.95 73.95 Q452.6 71.15 454.15 69.05 455.55 67.1 458.15 66.25 462.05 64.95 464.6 67.4 467.2 70.0 467.1 75.65 467.0 80.5 462.8 88.05 L458.65 94.65 Q458.15 87.75 457.5 85.1 L455.15 80.0 Q453.25 76.15 452.95 73.95" fill="#b5b478" fill-rule="evenodd" stroke="none"/>
      <path d="M457.8 68.1 Q461.6 66.15 463.9 68.4 465.75 70.2 465.9 73.45 466.05 77.8 463.15 84.75 460.55 90.8 459.7 91.15 459.6 91.2 459.25 88.45 458.8 85.15 458.35 83.75 455.6 77.6 455.0 74.8 453.9 70.1 457.8 68.1" fill="#446f59" fill-rule="evenodd" stroke="none"/>
      <path d="M458.0 69.75 Q458.2 68.95 459.3 68.25 460.75 67.3 462.2 68.1 466.35 70.3 464.7 77.35 464.1 80.05 463.0 82.0 L462.05 83.4 463.2 80.05 Q463.5 79.0 463.4 76.95 L463.2 75.15 461.7 78.0 Q461.85 76.0 461.55 73.95 461.35 72.7 459.65 71.1 L458.0 69.75" fill="#51846a" fill-rule="evenodd" stroke="none"/>
      <path d="M456.3 70.95 Q457.75 69.9 458.95 71.8 L459.85 73.95 459.2 73.25 457.5 73.3 Q456.65 73.95 457.4 76.1 L459.15 80.2 Q460.35 82.9 460.0 86.75 L460.85 84.75 461.2 86.4 462.55 85.1 459.7 89.95 Q459.35 85.1 458.35 82.2 L455.65 74.45 Q455.05 72.8 455.6 71.7 L456.3 70.95" fill="#385949" fill-rule="evenodd" stroke="none"/>
      <path d="M441.75 375.2 Q441.2 368.3 440.55 365.6 L438.2 360.5 Q436.3 356.7 436.0 354.5 435.65 351.75 437.2 349.6 438.6 347.6 441.2 346.75 445.1 345.45 447.65 347.95 450.25 350.55 450.15 356.2 450.05 361.05 445.9 368.6 L441.75 375.2" fill="#b5b478" fill-rule="evenodd" stroke="none"/>
      <path d="M442.75 371.65 Q442.65 371.7 442.3 368.95 441.9 365.7 441.4 364.25 438.65 358.1 438.05 355.3 436.95 350.6 440.9 348.6 444.65 346.65 446.95 348.9 448.85 350.75 448.95 354.0 449.1 358.35 446.2 365.3 443.6 371.4 442.75 371.65" fill="#446f59" fill-rule="evenodd" stroke="none"/>
      <path d="M441.05 350.3 Q441.25 349.5 442.35 348.75 443.8 347.8 445.25 348.6 449.35 350.85 447.8 357.85 446.8 362.2 445.1 363.95 L446.25 360.55 Q446.55 359.5 446.45 357.5 L446.25 355.7 444.75 358.55 Q444.9 356.5 444.6 354.5 444.4 353.25 442.7 351.65 L441.05 350.3" fill="#51846a" fill-rule="evenodd" stroke="none"/>
      <path d="M439.35 351.45 Q440.85 350.4 442.05 352.35 L442.9 354.5 442.25 353.8 440.55 353.85 Q439.7 354.5 440.45 356.65 L442.25 360.75 Q443.4 363.4 443.05 367.3 L443.9 365.25 444.25 366.95 445.6 365.6 442.75 370.5 Q442.4 365.6 441.4 362.75 L438.7 355.0 Q438.1 353.3 438.65 352.2 L439.35 351.45" fill="#385949" fill-rule="evenodd" stroke="none"/>
      <path d="M83.95 406.95 Q83.6 404.15 85.15 402.05 86.55 400.1 89.15 399.25 93.05 397.95 95.6 400.4 98.2 403.0 98.1 408.65 98.0 413.5 93.8 421.05 91.7 424.85 89.65 427.65 89.15 420.75 88.5 418.1 L86.15 413.0 Q84.25 409.15 83.95 406.95" fill="#b5b478" fill-rule="evenodd" stroke="none"/>
      <path d="M88.8 401.1 Q92.6 399.15 94.9 401.4 96.75 403.2 96.9 406.45 97.05 410.8 94.15 417.75 91.55 423.8 90.7 424.15 90.6 424.2 90.25 421.45 89.8 418.15 89.35 416.75 86.6 410.6 86.0 407.8 84.9 403.1 88.8 401.1" fill="#446f59" fill-rule="evenodd" stroke="none"/>
      <path d="M89.0 402.75 Q89.2 401.95 90.3 401.25 L93.2 401.1 Q97.35 403.3 95.7 410.35 95.1 413.05 94.0 415.0 L93.05 416.4 94.2 413.05 Q94.5 412.0 94.4 409.95 L94.2 408.15 92.7 411.0 Q92.85 409.0 92.55 406.95 92.35 405.7 90.65 404.1 L89.0 402.75" fill="#51846a" fill-rule="evenodd" stroke="none"/>
      <path d="M87.3 403.95 Q88.75 402.9 89.95 404.8 L90.85 406.95 90.2 406.25 88.5 406.3 Q87.65 406.95 88.4 409.1 L90.15 413.2 Q91.35 415.9 91.0 419.75 L91.85 417.75 92.2 419.4 93.55 418.1 90.7 422.95 Q90.35 418.1 89.35 415.2 L86.65 407.45 Q86.05 405.8 86.6 404.7 L87.3 403.95" fill="#385949" fill-rule="evenodd" stroke="none"/>
      <path d="M268.2 20.75 Q272.1 19.45 274.65 21.95 277.25 24.55 277.15 30.2 277.05 35.05 272.9 42.6 L268.75 49.2 Q268.2 42.3 267.55 39.6 L265.2 34.5 Q263.3 30.7 263.0 28.5 262.65 25.75 264.2 23.6 265.6 21.6 268.2 20.75" fill="#b5b478" fill-rule="evenodd" stroke="none"/>
      <path d="M267.9 22.6 Q271.65 20.65 273.95 22.9 275.85 24.75 275.95 28.0 276.1 32.35 273.2 39.3 270.6 45.4 269.75 45.65 269.65 45.7 269.3 42.95 268.9 39.7 268.4 38.25 265.65 32.1 265.05 29.3 263.95 24.6 267.9 22.6" fill="#446f59" fill-rule="evenodd" stroke="none"/>
      <path d="M268.05 24.3 Q268.25 23.5 269.35 22.75 L272.25 22.6 Q276.35 24.85 274.8 31.85 273.8 36.2 272.1 37.95 L273.25 34.55 Q273.55 33.5 273.45 31.5 L273.25 29.7 271.75 32.55 Q271.9 30.5 271.6 28.5 271.4 27.25 269.7 25.65 L268.05 24.3" fill="#51846a" fill-rule="evenodd" stroke="none"/>
      <path d="M269.05 26.35 L269.9 28.5 269.25 27.8 267.55 27.85 Q266.7 28.5 267.45 30.65 L269.25 34.75 Q270.4 37.4 270.05 41.3 L270.9 39.25 271.25 40.95 272.6 39.6 269.75 44.5 Q269.4 39.6 268.4 36.75 L265.7 29.0 Q265.1 27.3 265.65 26.2 L266.35 25.45 Q267.85 24.4 269.05 26.35" fill="#385949" fill-rule="evenodd" stroke="none"/>
      <path d="M156.2 122.8 Q158.75 122.55 160.5 124.0 162.7 125.9 163.0 130.3 163.3 134.35 159.6 143.3 L155.9 151.45 Q154.45 147.85 152.9 143.3 149.9 134.2 149.7 129.3 149.6 126.2 151.55 124.5 153.25 123.1 156.2 122.8" fill="#b5b478" fill-rule="evenodd" stroke="none"/>
      <path d="M155.9 124.25 Q159.05 123.6 160.45 126.1 161.7 128.25 161.35 132.25 160.9 137.1 156.2 148.2 152.2 135.75 151.6 132.8 150.95 129.65 151.5 127.85 152.3 125.0 155.9 124.25" fill="#446f59" fill-rule="evenodd" stroke="none"/>
      <path d="M155.45 128.1 Q155.2 126.9 156.05 125.9 156.9 124.9 158.25 125.3 161.15 126.2 160.9 130.3 160.75 132.95 159.0 139.6 L159.6 132.55 157.8 137.55 158.55 132.85 Q159.0 128.05 157.8 127.8 L156.1 127.85 155.45 128.1" fill="#51846a" fill-rule="evenodd" stroke="none"/>
      <path d="M154.25 125.75 Q153.25 126.55 152.85 128.75 L152.65 130.75 152.95 130.35 154.55 130.15 Q155.7 130.35 156.0 132.05 L156.05 133.7 154.95 132.65 Q153.8 131.85 153.7 132.95 153.55 134.75 155.75 142.85 L156.5 141.55 156.5 144.5 157.5 143.45 156.2 146.85 153.95 139.4 Q151.7 131.55 151.9 129.4 152.1 127.3 153.2 126.3 L154.25 125.75" fill="#385949" fill-rule="evenodd" stroke="none"/>
      <path d="M368.3 106.25 Q370.85 106.0 372.6 107.5 374.8 109.4 375.1 113.8 375.4 117.85 371.7 126.8 369.9 131.25 368.0 134.9 366.55 131.35 365.0 126.75 362.0 117.65 361.8 112.75 361.6 107.0 368.3 106.25" fill="#b5b478" fill-rule="evenodd" stroke="none"/>
      <path d="M368.0 107.75 Q371.15 107.1 372.55 109.55 373.8 111.75 373.45 115.7 373.0 120.6 368.3 131.65 364.3 119.25 363.7 116.3 363.1 113.1 363.6 111.3 364.45 108.45 368.0 107.75" fill="#446f59" fill-rule="evenodd" stroke="none"/>
      <path d="M368.2 111.35 L367.55 111.6 Q367.3 110.4 368.15 109.4 369.0 108.35 370.35 108.75 373.25 109.65 373.0 113.8 372.9 116.45 371.1 123.1 L371.7 116.0 369.9 121.05 370.65 116.3 Q371.1 111.5 369.9 111.3 L368.2 111.35" fill="#51846a" fill-rule="evenodd" stroke="none"/>
      <path d="M365.3 109.8 Q365.9 109.3 366.4 109.2 365.35 110.05 364.95 112.25 L364.75 114.25 365.05 113.85 366.65 113.65 Q367.8 113.85 368.1 115.55 L368.15 117.2 367.05 116.15 Q365.9 115.35 365.8 116.45 365.65 118.2 367.85 126.35 L368.6 125.0 368.6 127.95 369.65 126.95 368.3 130.35 366.05 122.9 Q363.8 115.05 364.0 112.9 364.2 110.8 365.3 109.8" fill="#385949" fill-rule="evenodd" stroke="none"/>
      <path d="M30.3 242.3 Q32.85 242.05 34.6 243.55 36.8 245.45 37.1 249.85 37.4 253.9 33.7 262.85 L30.0 270.95 Q28.55 267.4 27.0 262.8 24.0 253.7 23.8 248.8 23.6 243.05 30.3 242.3" fill="#b5b478" fill-rule="evenodd" stroke="none"/>
      <path d="M30.0 243.8 Q33.15 243.15 34.55 245.6 35.8 247.8 35.45 251.75 35.0 256.65 30.3 267.7 26.3 255.3 25.7 252.35 25.1 249.15 25.6 247.35 26.45 244.5 30.0 243.8" fill="#446f59" fill-rule="evenodd" stroke="none"/>
      <path d="M30.2 247.4 L29.55 247.65 Q29.3 246.45 30.15 245.45 31.0 244.4 32.35 244.8 35.25 245.7 35.0 249.85 34.9 252.5 33.1 259.15 L33.7 252.05 31.9 257.1 32.65 252.35 Q33.1 247.55 31.9 247.35 L30.2 247.4" fill="#51846a" fill-rule="evenodd" stroke="none"/>
      <path d="M27.3 245.85 L28.4 245.25 Q27.35 246.1 26.95 248.3 L26.75 250.3 27.05 249.9 28.65 249.7 Q29.8 249.9 30.1 251.6 L30.15 253.25 29.05 252.2 Q27.9 251.4 27.8 252.5 27.65 254.25 29.85 262.4 L30.6 261.05 30.6 264.0 31.65 263.0 30.3 266.4 28.05 258.95 Q25.8 251.1 26.0 248.95 26.2 246.85 27.3 245.85" fill="#385949" fill-rule="evenodd" stroke="none"/>
      <path d="M67.05 34.0 Q69.65 33.75 71.35 35.2 73.55 37.1 73.85 41.5 74.15 45.55 70.5 54.5 L66.8 62.65 63.8 54.5 Q60.75 45.4 60.55 40.5 60.45 37.4 62.45 35.7 64.1 34.3 67.05 34.0" fill="#b5b478" fill-rule="evenodd" stroke="none"/>
      <path d="M66.8 35.45 Q69.9 34.85 71.35 37.3 72.6 39.5 72.25 43.45 71.8 48.3 67.05 59.4 63.1 47.0 62.5 44.05 61.85 40.9 62.4 39.05 63.2 36.2 66.8 35.45" fill="#446f59" fill-rule="evenodd" stroke="none"/>
      <path d="M66.35 39.3 Q66.1 38.1 66.9 37.15 67.8 36.1 69.15 36.5 72.05 37.4 71.8 41.5 71.65 44.2 69.9 50.8 L70.45 43.75 68.7 48.75 69.45 44.05 Q69.9 39.25 68.7 39.0 L66.95 39.05 66.35 39.3" fill="#51846a" fill-rule="evenodd" stroke="none"/>
      <path d="M63.75 39.95 L63.55 41.95 63.85 41.55 65.45 41.35 Q66.55 41.55 66.85 43.25 L66.9 44.9 65.8 43.9 Q64.65 43.1 64.55 44.2 64.4 45.95 66.65 54.05 L67.35 52.75 67.35 55.7 68.4 54.65 67.05 58.05 64.8 50.65 Q62.6 42.8 62.8 40.65 63.0 38.55 64.1 37.55 64.65 37.05 65.15 36.95 64.15 37.75 63.75 39.95" fill="#385949" fill-rule="evenodd" stroke="none"/>
      <path d="M321.55 456.5 Q321.45 453.4 323.45 451.7 325.1 450.3 328.05 450.0 330.65 449.75 332.35 451.2 334.55 453.1 334.85 457.5 335.15 461.55 331.5 470.5 L327.8 478.65 324.8 470.5 Q321.75 461.4 321.55 456.5" fill="#b5b478" fill-rule="evenodd" stroke="none"/>
      <path d="M323.5 460.05 Q322.85 456.9 323.4 455.05 324.2 452.2 327.8 451.45 330.9 450.85 332.35 453.3 333.6 455.5 333.25 459.45 332.8 464.3 328.05 475.4 324.1 463.0 323.5 460.05" fill="#446f59" fill-rule="evenodd" stroke="none"/>
      <path d="M327.35 455.3 Q327.1 454.1 327.9 453.15 328.8 452.1 330.15 452.5 333.05 453.4 332.8 457.5 332.65 460.2 330.9 466.8 L331.45 459.75 329.7 464.75 330.45 460.05 Q330.9 455.25 329.7 455.0 L327.95 455.05 327.35 455.3" fill="#51846a" fill-rule="evenodd" stroke="none"/>
      <path d="M326.15 452.95 Q325.15 453.75 324.75 455.95 L324.55 457.95 324.85 457.55 326.45 457.35 Q327.55 457.55 327.85 459.25 L327.9 460.9 326.8 459.9 Q325.65 459.1 325.55 460.2 325.4 461.95 327.65 470.05 L328.35 468.75 328.35 471.7 329.4 470.65 328.05 474.05 325.8 466.65 Q323.6 458.8 323.8 456.65 324.0 454.55 325.1 453.55 L326.15 452.95" fill="#385949" fill-rule="evenodd" stroke="none"/>
    </g>
    <g id="sprite0" transform="matrix(1.0, 0.0, 0.0, 1.0, 0.0, 0.0)">
      <use height="169.3" transform="matrix(1.0, 0.0, 0.0, 1.0, 0.35, 4.0)" width="45.3" xlink:href="#sprite1"/>
      <use height="46.0" transform="matrix(1.0, 0.0, 0.0, 1.0, 1.0, 0.0)" width="26.65" xlink:href="#sprite2"/>
      <use height="91.35" transform="matrix(1.0, 0.0, 0.0, 1.0, 30.35, 47.3)" width="26.65" xlink:href="#sprite3"/>
      <use height="58.65" transform="matrix(1.0, 0.0, 0.0, 1.0, 3.65, 9.65)" width="24.0" xlink:href="#sprite4"/>
      <use height="101.0" transform="matrix(1.0, 0.0, 0.0, 1.0, 29.65, 64.0)" width="11.0" xlink:href="#sprite5"/>
      <use height="168.75" transform="matrix(1.0, 0.0, 0.0, 1.0, 0.0, 4.2)" width="45.5" xlink:href="#shape6"/>
    </g>
    <g id="sprite1" transform="matrix(1.0, 0.0, 0.0, 1.0, 0.0, 0.0)">
      <use height="169.3" transform="matrix(1.0, 0.0, 0.0, 1.0, 0.0, 0.0)" width="45.3" xlink:href="#shape1"/>
    </g>
    <g id="shape1" transform="matrix(1.0, 0.0, 0.0, 1.0, 0.0, 0.0)">
      <path d="M0.0 0.0 L16.65 8.65 17.3 45.3 42.0 50.0 45.3 143.3 37.3 144.65 29.3 169.3 26.65 66.65 4.0 65.3 0.0 0.0" fill="#bcbb76" fill-rule="evenodd" stroke="none"/>
    </g>
    <g id="sprite2" transform="matrix(1.0, 0.0, 0.0, 1.0, 0.0, 0.0)">
      <use height="46.0" transform="matrix(1.0, 0.0, 0.0, 1.0, 0.0, 0.0)" width="26.65" xlink:href="#shape2"/>
    </g>
    <g id="shape2" transform="matrix(1.0, 0.0, 0.0, 1.0, 0.0, 0.0)">
      <path d="M20.0 11.3 L0.0 0.0 26.65 9.3 20.65 46.0 20.0 11.3" fill="#ececd9" fill-rule="evenodd" stroke="none"/>
    </g>
    <g id="sprite3" transform="matrix(1.0, 0.0, 0.0, 1.0, 0.0, 0.0)">
      <use height="91.35" transform="matrix(1.0, 0.0, 0.0, 1.0, 0.0, 0.0)" width="26.65" xlink:href="#shape3"/>
    </g>
    <g id="shape3" transform="matrix(1.0, 0.0, 0.0, 1.0, 0.0, 0.0)">
      <path d="M0.0 0.0 L23.3 2.0 26.65 43.35 23.3 42.0 18.65 91.35 15.3 4.7 0.0 0.0" fill="#ececd9" fill-rule="evenodd" stroke="none"/>
    </g>
    <g id="sprite4" transform="matrix(1.0, 0.0, 0.0, 1.0, 0.0, 0.0)">
      <use height="58.65" transform="matrix(1.0, 0.0, 0.0, 1.0, 0.0, 0.0)" width="24.0" xlink:href="#shape4"/>
    </g>
    <g id="shape4" transform="matrix(1.0, 0.0, 0.0, 1.0, 0.0, 0.0)">
      <path d="M0.0 0.0 L8.35 2.65 9.0 27.65 4.7 26.0 6.0 52.0 23.0 54.65 24.0 58.65 2.7 57.0 0.0 0.0" fill="#b5b478" fill-rule="evenodd" stroke="none"/>
    </g>
    <g id="sprite5" transform="matrix(1.0, 0.0, 0.0, 1.0, 0.0, 0.0)">
      <use height="101.0" transform="matrix(1.0, 0.0, 0.0, 1.0, 0.0, 0.0)" width="11.0" xlink:href="#shape5"/>
    </g>
    <g id="shape5" transform="matrix(1.0, 0.0, 0.0, 1.0, 0.0, 0.0)">
      <path d="M0.0 9.3 L2.0 18.3 4.35 0.0 4.7 77.0 11.0 76.65 11.0 81.3 5.7 82.0 1.35 101.0 0.0 9.3" fill="#b5b478" fill-rule="evenodd" stroke="none"/>
    </g>
    <g id="shape6" transform="matrix(1.0, 0.0, 0.0, 1.0, 0.0, -4.2)">
      <path d="M4.1 69.55 L26.6 71.2 29.35 172.3 22.5 74.05 1.1 72.8 0.0 4.2 4.1 69.55" fill="#b5b478" fill-rule="evenodd" stroke="none"/>
      <path d="M39.5 150.55 L30.25 172.95 38.1 148.8 45.5 147.7 39.5 150.55" fill="#b5b478" fill-rule="evenodd" stroke="none"/>
    </g>
    <g id="sprite6" transform="matrix(1.0, 0.0, 0.0, 1.0, 0.0, 0.0)">
      <use height="130.0" transform="matrix(1.0, 0.0, 0.0, 1.0, 0.0, 8.85)" width="76.0" xlink:href="#sprite7"/>
      <use height="31.2" transform="matrix(1.0, 0.0, 0.0, 1.0, 20.0, 0.0)" width="37.2" xlink:href="#sprite8"/>
      <use height="84.3" transform="matrix(1.0, 0.0, 0.0, 1.0, 52.0, 38.2)" width="31.3" xlink:href="#sprite9"/>
      <use height="114.8" transform="matrix(1.0, 0.0, 0.0, 1.0, 3.3, 20.7)" width="60.35" xlink:href="#sprite10"/>
      <use height="35.65" transform="matrix(1.0, 0.0, 0.0, 1.0, 59.3, 51.2)" width="2.7" xlink:href="#sprite11"/>
      <use height="116.7" transform="matrix(1.0, 0.0, 0.0, 1.0, 0.4, 27.4)" width="72.75" xlink:href="#shape12"/>
    </g>
    <g id="sprite7" transform="matrix(1.0, 0.0, 0.0, 1.0, 0.0, 0.0)">
      <use height="130.0" transform="matrix(1.0, 0.0, 0.0, 1.0, 0.0, 0.0)" width="76.0" xlink:href="#shape7"/>
    </g>
    <g id="shape7" transform="matrix(1.0, 0.0, 0.0, 1.0, 0.0, 0.0)">
      <path d="M47.65 12.0 Q51.6 14.9 51.05 25.9 50.75 31.45 49.65 36.35 L65.0 35.35 65.3 69.0 76.0 73.35 73.3 115.35 70.65 115.0 70.3 100.65 63.3 101.65 63.3 126.65 58.0 130.0 58.65 88.65 47.3 88.35 46.0 49.0 31.3 46.35 Q31.75 42.75 31.4 38.1 30.75 28.75 27.0 23.35 23.25 17.9 11.25 18.1 5.25 18.2 0.0 19.35 0.65 13.9 6.05 10.9 8.75 9.4 11.3 9.0 11.65 6.85 13.0 4.65 15.8 0.2 21.0 0.0 26.2 -0.2 31.6 5.35 34.35 8.15 36.0 11.0 L39.45 9.75 Q43.7 9.1 47.65 12.0" fill="#bcbb76" fill-rule="evenodd" stroke="none"/>
    </g>
    <g id="sprite8" transform="matrix(1.0, 0.0, 0.0, 1.0, 0.0, 0.0)">
      <use height="31.2" transform="matrix(1.0, 0.0, 0.0, 1.0, 0.0, 0.0)" width="37.2" xlink:href="#shape8"/>
    </g>
    <g id="shape8" transform="matrix(1.0, 0.0, 0.0, 1.0, 0.0, 0.0)">
      <path d="M35.0 12.85 Q36.9 14.75 37.15 23.15 37.25 27.35 37.0 31.2 36.85 28.3 35.75 24.95 33.55 18.25 29.0 16.2 24.45 14.15 20.1 15.3 L16.65 16.85 Q15.9 12.7 13.45 9.05 8.55 1.8 0.0 4.5 1.9 2.45 4.75 1.1 10.4 -1.55 15.0 2.2 18.7 5.25 19.7 8.85 20.25 10.65 20.0 11.85 L25.5 10.35 Q31.65 9.5 35.0 12.85" fill="#ececd9" fill-rule="evenodd" stroke="none"/>
    </g>
    <g id="sprite9" transform="matrix(1.0, 0.0, 0.0, 1.0, 0.0, 0.0)">
      <use height="84.3" transform="matrix(1.0, 0.0, 0.0, 1.0, 0.0, 0.0)" width="31.3" xlink:href="#shape9"/>
    </g>
    <g id="shape9" transform="matrix(1.0, 0.0, 0.0, 1.0, 0.0, 0.0)">
      <path d="M2.3 1.0 L20.65 0.0 18.0 34.3 31.3 39.3 26.65 84.3 27.3 42.0 15.65 38.0 15.65 3.0 0.0 4.3 2.3 1.0" fill="#ececd9" fill-rule="evenodd" stroke="none"/>
    </g>
    <g id="sprite10" transform="matrix(1.0, 0.0, 0.0, 1.0, 0.0, 0.0)">
      <use height="114.8" transform="matrix(1.0, 0.0, 0.0, 1.0, 0.0, 0.0)" width="60.35" xlink:href="#shape10"/>
    </g>
    <g id="shape10" transform="matrix(1.0, 0.0, 0.0, 1.0, 0.0, 0.0)">
      <path d="M0.0 5.5 Q2.5 3.5 6.35 1.9 14.0 -1.25 20.7 0.8 32.25 4.45 34.0 18.8 34.7 24.15 34.35 28.5 L50.0 32.8 50.35 71.15 60.35 72.15 58.7 113.15 56.35 114.8 57.0 75.5 45.35 75.15 44.7 35.8 29.7 32.8 Q30.2 26.9 29.15 20.65 27.05 8.15 19.35 6.5 11.65 4.8 5.05 5.0 L0.0 5.5" fill="#b5b478" fill-rule="evenodd" stroke="none"/>
    </g>
    <g id="sprite11" transform="matrix(1.0, 0.0, 0.0, 1.0, 0.0, 0.0)">
      <use height="35.65" transform="matrix(1.0, 0.0, 0.0, 1.0, 0.0, 0.0)" width="2.7" xlink:href="#shape11"/>
    </g>
    <g id="shape11" transform="matrix(1.0, 0.0, 0.0, 1.0, 0.0, 0.0)">
      <path d="M0.7 0.0 L2.7 35.65 0.0 33.65 0.7 0.0" fill="#b5b478" fill-rule="evenodd" stroke="none"/>
    </g>
    <g id="shape12" transform="matrix(1.0, 0.0, 0.0, 1.0, -0.4, -27.4)">
      <path d="M0.4 28.6 Q5.55 27.5 11.4 27.4 23.15 27.3 26.9 32.6 29.6 36.45 30.65 46.35 31.15 51.3 31.15 55.5 L45.65 58.1 47.0 97.25 40.65 64.35 25.65 62.35 Q26.25 55.55 26.0 48.35 25.55 33.9 21.5 31.75 16.35 29.0 7.85 28.55 3.6 28.3 0.4 28.6" fill="#b5b478" fill-rule="evenodd" stroke="none"/>
      <path d="M58.25 98.1 L57.75 139.1 63.4 135.85 57.9 144.1 53.15 103.35 47.15 97.35 58.25 98.1" fill="#b5b478" fill-rule="evenodd" stroke="none"/>
      <path d="M70.4 127.6 L68.0 114.0 63.9 111.0 69.9 109.85 70.25 124.25 73.15 124.6 70.4 127.6" fill="#b5b478" fill-rule="evenodd" stroke="none"/>
    </g>
    <g id="sprite12" transform="matrix(1.0, 0.0, 0.0, 1.0, 0.0, 0.0)">
      <use height="71.0" transform="matrix(1.0, 0.0, 0.0, 1.0, 1.15, 2.75)" width="26.7" xlink:href="#sprite13"/>
      <use height="30.1" transform="matrix(1.0, 0.0, 0.0, 1.0, 3.4, 41.25)" width="22.45" xlink:href="#sprite14"/>
      <use height="33.9" transform="matrix(1.0, 0.0, 0.0, 1.0, 0.0, 46.5)" width="27.6" xlink:href="#shape15"/>
      <use height="53.0" transform="matrix(1.0, 0.0, 0.0, 1.0, 10.85, 0.0)" width="16.0" xlink:href="#sprite15"/>
    </g>
    <g id="sprite13" transform="matrix(1.0, 0.0, 0.0, 1.0, 0.0, 0.0)">
      <use height="71.0" transform="matrix(1.0, 0.0, 0.0, 1.0, 0.0, 0.0)" width="26.7" xlink:href="#shape13"/>
    </g>
    <g id="shape13" transform="matrix(1.0, 0.0, 0.0, 1.0, 0.0, 0.0)">
      <path d="M0.2 33.0 L5.7 35.5 3.2 10.5 8.2 0.0 11.2 53.5 25.2 51.0 26.7 62.0 26.35 63.4 Q25.7 65.1 24.45 66.5 20.45 71.0 11.7 71.0 2.95 71.0 0.7 52.0 -0.4 42.5 0.2 33.0" fill="#bcbb76" fill-rule="evenodd" stroke="none"/>
    </g>
    <g id="sprite14" transform="matrix(1.0, 0.0, 0.0, 1.0, 0.0, 0.0)">
      <use height="30.1" transform="matrix(1.0, 0.0, 0.0, 1.0, 0.0, 0.0)" width="22.45" xlink:href="#shape14"/>
    </g>
    <g id="shape14" transform="matrix(1.0, 0.0, 0.0, 1.0, 0.0, 0.0)">
      <path d="M0.45 1.0 L2.95 0.0 Q2.45 5.5 2.95 11.25 3.95 22.75 8.95 24.0 13.95 25.25 18.45 22.5 20.7 21.15 21.95 19.5 L22.45 25.5 Q21.2 27.15 18.7 28.45 13.7 31.05 7.45 29.5 1.2 27.95 0.2 14.3 -0.3 7.5 0.45 1.0" fill="#b5b478" fill-rule="evenodd" stroke="none"/>
    </g>
    <g id="shape15" transform="matrix(1.0, 0.0, 0.0, 1.0, 0.0, -46.5)">
      <path d="M9.1 73.25 Q16.4 76.65 22.7 72.05 24.7 70.6 26.35 68.55 L27.6 66.75 26.65 69.45 Q25.35 72.6 23.6 75.0 17.9 82.6 9.45 79.5 1.0 76.4 0.1 61.15 -0.2 56.35 0.3 50.95 L0.85 46.5 Q1.85 69.9 9.1 73.25" fill="#b5b478" fill-rule="evenodd" stroke="none"/>
    </g>
    <g id="sprite15" transform="matrix(1.0, 0.0, 0.0, 1.0, 0.0, 0.0)">
      <use height="53.0" transform="matrix(1.0, 0.0, 0.0, 1.0, 0.0, 0.0)" width="16.0" xlink:href="#shape16"/>
    </g>
    <g id="shape16" transform="matrix(1.0, 0.0, 0.0, 1.0, 0.0, 0.0)">
      <path d="M0.0 0.0 L5.75 49.0 16.0 51.5 3.0 53.0 0.0 0.0" fill="#ececd9" fill-rule="evenodd" stroke="none"/>
    </g>
    <g id="sprite16" transform="matrix(1.0, 0.0, 0.0, 1.0, 0.0, 0.0)">
      <use height="148.45" transform="matrix(1.0, 0.0, 0.0, 1.0, 1.0, 12.0)" width="99.0" xlink:href="#sprite17"/>
      <use height="52.0" transform="matrix(1.0, 0.0, 0.0, 1.0, 5.5, 0.0)" width="44.0" xlink:href="#sprite18"/>
      <use height="54.95" transform="matrix(1.0, 0.0, 0.0, 1.0, 42.3, 53.5)" width="39.7" xlink:href="#sprite19"/>
      <use height="46.5" transform="matrix(1.0, 0.0, 0.0, 1.0, 86.5, 111.45)" width="25.5" xlink:href="#sprite20"/>
      <use height="39.5" transform="matrix(1.0, 0.0, 0.0, 1.0, 5.0, 16.5)" width="29.4" xlink:href="#sprite21"/>
      <use height="26.0" transform="matrix(1.0, 0.0, 0.0, 1.0, 31.0, 76.45)" width="17.7" xlink:href="#sprite22"/>
      <use height="43.5" transform="matrix(1.0, 0.0, 0.0, 1.0, 54.0, 82.45)" width="9.5" xlink:href="#sprite23"/>
      <use height="48.8" transform="matrix(1.0, 0.0, 0.0, 1.0, 27.5, 108.45)" width="39.0" xlink:href="#sprite24"/>
      <use height="24.5" transform="matrix(1.0, 0.0, 0.0, 1.0, 72.0, 133.95)" width="23.0" xlink:href="#sprite25"/>
      <use height="155.2" transform="matrix(1.0, 0.0, 0.0, 1.0, 0.0, 15.25)" width="98.0" xlink:href="#shape26"/>
    </g>
    <g id="sprite17" transform="matrix(1.0, 0.0, 0.0, 1.0, 0.0, 0.0)">
      <use height="148.45" transform="matrix(1.0, 0.0, 0.0, 1.0, 0.0, 0.0)" width="99.0" xlink:href="#shape17"/>
    </g>
    <g id="shape17" transform="matrix(1.0, 0.0, 0.0, 1.0, 0.0, 0.0)">
      <path d="M0.0 3.0 L35.5 0.0 35.5 39.5 34.35 42.55 Q33.25 46.25 33.2 49.6 33.05 60.35 44.0 63.45 54.95 66.6 62.8 64.1 66.75 62.85 68.5 60.95 L66.5 98.95 81.5 99.95 90.0 117.95 99.0 118.45 97.0 148.45 90.5 148.45 90.5 129.45 67.5 125.95 65.1 130.2 Q62.05 135.25 58.75 139.15 48.25 151.5 39.5 147.45 30.75 143.4 26.25 120.0 24.85 112.7 24.05 104.35 L23.5 97.45 Q28.65 95.45 33.25 92.2 42.5 85.7 40.0 79.45 37.5 73.2 31.5 69.2 L26.0 66.45 Q27.15 62.1 27.9 55.65 29.4 42.8 27.5 32.5 25.65 22.2 13.65 19.05 7.65 17.5 2.0 18.0 L0.0 3.0" fill="#bcbb76" fill-rule="evenodd" stroke="none"/>
    </g>
    <g id="sprite18" transform="matrix(1.0, 0.0, 0.0, 1.0, 0.0, 0.0)">
      <use height="52.0" transform="matrix(1.0, 0.0, 0.0, 1.0, 0.0, 0.0)" width="44.0" xlink:href="#shape18"/>
    </g>
    <g id="shape18" transform="matrix(1.0, 0.0, 0.0, 1.0, 0.0, 0.0)">
      <path d="M0.0 7.5 L44.0 0.0 40.0 52.0 37.5 8.0 0.0 7.5" fill="#ececd9" fill-rule="evenodd" stroke="none"/>
    </g>
    <g id="sprite19" transform="matrix(1.0, 0.0, 0.0, 1.0, 0.05, 0.0)">
      <use height="54.95" transform="matrix(1.0, 0.0, 0.0, 1.0, -0.05, 0.0)" width="39.7" xlink:href="#shape19"/>
    </g>
    <g id="shape19" transform="matrix(1.0, 0.0, 0.0, 1.0, 0.05, 0.0)">
      <path d="M30.15 12.0 L27.1 15.55 Q22.95 19.4 17.65 20.95 14.6 21.85 10.65 20.3 7.0 18.9 4.05 16.05 1.0 13.2 0.2 10.4 -0.65 7.3 1.65 5.5 1.3 8.0 2.95 10.55 6.35 15.65 16.65 15.95 23.85 16.15 29.7 8.1 32.65 4.1 34.15 0.0 L32.15 47.45 39.65 54.95 29.65 51.95 30.15 12.0" fill="#ececd9" fill-rule="evenodd" stroke="none"/>
    </g>
    <g id="sprite20" transform="matrix(1.0, 0.0, 0.0, 1.0, 0.0, 0.0)">
      <use height="46.5" transform="matrix(1.0, 0.0, 0.0, 1.0, 0.0, 0.0)" width="25.5" xlink:href="#shape20"/>
    </g>
    <g id="shape20" transform="matrix(1.0, 0.0, 0.0, 1.0, 0.0, 0.0)">
      <path d="M0.0 0.0 L11.5 8.5 25.5 10.5 14.5 46.5 17.5 17.0 6.0 14.5 0.0 0.0" fill="#ececd9" fill-rule="evenodd" stroke="none"/>
    </g>
    <g id="sprite21" transform="matrix(1.0, 0.0, 0.0, 1.0, 0.0, 0.0)">
      <use height="39.5" transform="matrix(1.0, 0.0, 0.0, 1.0, 0.0, 0.0)" width="29.4" xlink:href="#shape21"/>
    </g>
    <g id="shape21" transform="matrix(1.0, 0.0, 0.0, 1.0, 0.0, 0.0)">
      <path d="M23.5 11.0 Q28.5 14.15 29.25 24.65 29.65 29.9 29.0 34.5 L26.0 39.5 25.55 31.7 Q24.7 22.8 22.5 17.5 20.3 12.2 9.95 10.05 4.75 9.0 0.0 9.0 L0.0 1.0 6.0 0.0 7.0 4.5 Q9.15 4.9 12.25 5.9 18.5 7.9 23.5 11.0" fill="#b5b478" fill-rule="evenodd" stroke="none"/>
    </g>
    <g id="sprite22" transform="matrix(1.0, 0.0, 0.0, 1.0, 0.0, 0.0)">
      <use height="26.0" transform="matrix(1.0, 0.0, 0.0, 1.0, 0.0, 0.0)" width="17.7" xlink:href="#shape22"/>
    </g>
    <g id="shape22" transform="matrix(1.0, 0.0, 0.0, 1.0, 0.0, 0.0)">
      <path d="M0.0 0.0 Q4.0 1.15 8.2 3.2 16.55 7.3 17.5 12.0 18.45 16.7 14.3 21.8 12.25 24.4 10.0 26.0 10.65 25.15 11.3 23.3 12.7 19.7 13.0 15.0 13.3 10.3 6.7 4.7 3.4 1.9 0.0 0.0" fill="#b5b478" fill-rule="evenodd" stroke="none"/>
    </g>
    <g id="sprite23" transform="matrix(1.0, 0.0, 0.0, 1.0, 0.0, 0.0)">
      <use height="43.5" transform="matrix(1.0, 0.0, 0.0, 1.0, 0.0, 0.0)" width="9.5" xlink:href="#shape23"/>
    </g>
    <g id="shape23" transform="matrix(1.0, 0.0, 0.0, 1.0, 0.0, 0.0)">
      <path d="M3.0 0.0 L9.5 0.0 6.0 32.5 4.0 24.0 0.0 43.5 3.0 0.0" fill="#b5b478" fill-rule="evenodd" stroke="none"/>
    </g>
    <g id="sprite24" transform="matrix(1.0, 0.0, 0.0, 1.0, 0.0, 0.0)">
      <use height="48.8" transform="matrix(1.0, 0.0, 0.0, 1.0, 0.0, 0.0)" width="39.0" xlink:href="#shape24"/>
    </g>
    <g id="shape24" transform="matrix(1.0, 0.0, 0.0, 1.0, 0.0, 0.0)">
      <path d="M0.0 3.0 L5.5 0.0 7.5 17.0 14.0 15.0 Q13.9 22.25 14.7 29.3 16.3 43.45 21.0 42.5 25.7 41.55 32.8 34.2 36.4 30.5 39.0 27.0 L36.55 32.2 Q33.7 37.8 31.5 40.0 L28.05 43.65 Q25.5 46.25 23.2 47.5 16.4 51.2 10.0 44.5 3.75 37.95 1.25 19.8 0.0 10.75 0.0 3.0" fill="#b5b478" fill-rule="evenodd" stroke="none"/>
    </g>
    <g id="sprite25" transform="matrix(1.0, 0.0, 0.0, 1.0, 0.0, 0.0)">
      <use height="24.5" transform="matrix(1.0, 0.0, 0.0, 1.0, 0.0, 0.0)" width="23.0" xlink:href="#shape25"/>
    </g>
    <g id="shape25" transform="matrix(1.0, 0.0, 0.0, 1.0, 0.0, 0.0)">
      <path d="M1.0 0.0 L23.0 3.5 22.0 24.5 19.5 7.5 0.0 2.5 1.0 0.0" fill="#b5b478" fill-rule="evenodd" stroke="none"/>
    </g>
    <g id="shape26" transform="matrix(1.0, 0.0, 0.0, 1.0, 0.0, -15.25)">
      <path d="M0.5 15.25 L2.6 30.65 5.9 30.25 Q10.15 30.15 14.75 31.65 22.9 34.25 25.55 38.2 27.55 41.2 29.0 50.5 29.9 56.4 28.55 67.5 L27.0 77.45 Q26.0 60.5 26.0 53.5 26.0 47.8 23.65 43.25 20.95 38.15 16.0 36.0 11.65 34.15 5.4 33.75 2.25 33.55 0.0 33.75 L0.5 15.25" fill="#b5b478" fill-rule="evenodd" stroke="none"/>
      <path d="M27.1 79.2 Q31.5 79.55 36.35 84.75 41.1 89.85 41.1 93.7 41.1 96.85 39.1 99.35 L37.1 101.2 37.75 97.75 Q38.1 93.65 36.85 90.2 35.55 86.65 31.2 82.6 L27.1 79.2" fill="#b5b478" fill-rule="evenodd" stroke="none"/>
      <path d="M68.1 139.6 L65.8 143.85 Q62.2 150.0 58.3 154.75 45.9 170.0 35.25 165.95 24.65 161.9 23.25 135.5 22.8 127.3 23.35 117.8 L24.0 109.95 24.7 117.8 Q25.75 127.2 27.45 135.1 32.95 160.4 43.1 160.85 51.9 161.25 61.1 150.0 64.0 146.5 66.6 142.25 L68.1 139.6" fill="#b5b478" fill-rule="evenodd" stroke="none"/>
      <path d="M84.0 170.45 L84.75 144.7 69.25 138.35 91.1 141.95 91.0 160.85 98.0 160.7 96.5 164.45 84.0 170.45" fill="#b5b478" fill-rule="evenodd" stroke="none"/>
    </g>
    <g id="sprite26" transform="matrix(1.0, 0.0, 0.0, 1.0, 0.0, 0.0)">
      <use height="92.05" transform="matrix(1.0, 0.0, 0.0, 1.0, 1.45, 0.0)" width="44.55" xlink:href="#sprite27"/>
      <use height="88.5" transform="matrix(1.0, 0.0, 0.0, 1.0, 3.65, 1.55)" width="38.85" xlink:href="#sprite28"/>
      <use height="9.5" transform="matrix(1.0, 0.0, 0.0, 1.0, 15.6, 4.55)" width="11.15" xlink:href="#sprite29"/>
      <use height="81.15" transform="matrix(1.0, 0.0, 0.0, 1.0, 0.0, 12.55)" width="44.25" xlink:href="#shape30"/>
    </g>
    <g id="sprite27" transform="matrix(1.0, 0.0, 0.0, 1.0, 0.0, 0.0)">
      <use height="92.05" transform="matrix(1.0, 0.0, 0.0, 1.0, 0.0, 0.0)" width="44.55" xlink:href="#shape27"/>
    </g>
    <g id="shape27" transform="matrix(1.0, 0.0, 0.0, 1.0, 0.0, 0.0)">
      <path d="M12.05 0.05 Q22.7 -0.8 29.7 17.05 33.2 25.95 34.55 35.05 L44.55 36.05 43.05 92.05 37.05 91.55 37.05 43.05 Q33.8 45.8 29.85 47.75 22.0 51.6 18.55 47.55 15.1 43.5 15.75 33.6 L17.05 24.55 1.55 23.05 Q-0.3 17.7 0.05 12.1 0.8 1.0 12.05 0.05" fill="#bcbb76" fill-rule="evenodd" stroke="none"/>
    </g>
    <g id="sprite28" transform="matrix(1.0, 0.0, 0.0, 1.0, 0.0, 0.0)">
      <use height="88.5" transform="matrix(1.0, 0.0, 0.0, 1.0, 0.0, 0.0)" width="38.85" xlink:href="#shape28"/>
    </g>
    <g id="shape28" transform="matrix(1.0, 0.0, 0.0, 1.0, 0.0, 0.0)">
      <path d="M4.25 1.65 Q5.85 0.5 7.35 0.0 6.35 0.75 5.35 2.3 3.35 5.45 3.35 9.5 3.35 13.55 5.35 15.7 6.35 16.75 7.35 17.0 L22.35 18.0 Q20.1 23.4 18.65 28.95 15.8 40.05 19.85 41.0 23.9 41.95 31.05 39.8 34.6 38.75 37.35 37.5 L38.85 88.5 36.85 88.0 35.35 40.5 Q33.0 42.5 29.9 44.2 23.8 47.55 20.35 46.0 16.55 44.3 15.5 38.3 14.55 33.2 15.85 28.0 L17.35 21.5 0.85 19.0 0.25 14.9 Q-0.25 10.15 0.35 7.0 1.0 3.9 4.25 1.65" fill="#b5b478" fill-rule="evenodd" stroke="none"/>
    </g>
    <g id="sprite29" transform="matrix(1.0, 0.0, 0.0, 1.0, 0.2, 0.0)">
      <use height="9.5" transform="matrix(1.0, 0.0, 0.0, 1.0, -0.2, 0.0)" width="11.15" xlink:href="#shape29"/>
    </g>
    <g id="shape29" transform="matrix(1.0, 0.0, 0.0, 1.0, 0.2, 0.0)">
      <path d="M8.4 4.4 Q12.75 9.1 9.7 9.5 6.8 9.85 2.5 5.05 -1.75 0.3 0.7 0.0 4.0 -0.35 8.4 4.4" fill="#eee4cb" fill-rule="evenodd" stroke="none"/>
    </g>
    <g id="shape30" transform="matrix(1.0, 0.0, 0.0, 1.0, 0.0, -12.55)">
      <path d="M1.1 12.55 L3.0 23.3 18.1 25.05 16.6 33.85 Q15.95 43.55 20.0 48.3 22.7 51.5 29.8 48.8 33.35 47.45 36.35 45.45 34.25 47.9 31.05 49.75 24.65 53.45 19.0 50.3 13.4 47.2 12.9 36.55 12.7 33.25 13.1 29.55 L13.5 26.55 0.0 26.05 1.1 12.55" fill="#b5b478" fill-rule="evenodd" stroke="none"/>
      <path d="M36.85 44.8 L38.25 43.7 38.25 91.95 44.25 92.3 36.25 93.7 36.85 44.8" fill="#b5b478" fill-rule="evenodd" stroke="none"/>
    </g>
    <g id="sprite30" transform="matrix(1.0, 0.0, 0.0, 1.0, 0.0, 0.0)">
      <use height="206.05" transform="matrix(1.0, 0.0, 0.0, 1.0, 4.9, 5.1)" width="90.5" xlink:href="#sprite31"/>
      <use height="52.7" transform="matrix(1.0, 0.0, 0.0, 1.0, 11.4, 0.0)" width="79.5" xlink:href="#sprite32"/>
      <use height="52.25" transform="matrix(1.0, 0.0, 0.0, 1.0, 57.9, 87.9)" width="25.85" xlink:href="#sprite33"/>
      <use height="63.0" transform="matrix(1.0, 0.0, 0.0, 1.0, 69.9, 143.15)" width="33.0" xlink:href="#sprite34"/>
      <use height="59.0" transform="matrix(1.0, 0.0, 0.0, 1.0, 9.75, 8.2)" width="33.0" xlink:href="#sprite35"/>
      <use height="34.65" transform="matrix(1.0, 0.0, 0.0, 1.0, 31.95, 75.2)" width="16.1" xlink:href="#sprite36"/>
      <use height="52.95" transform="matrix(1.0, 0.0, 0.0, 1.0, 51.05, 101.2)" width="12.8" xlink:href="#sprite37"/>
      <use height="57.5" transform="matrix(1.0, 0.0, 0.0, 1.0, 65.35, 151.65)" width="22.05" xlink:href="#sprite38"/>
      <use height="204.35" transform="matrix(1.0, 0.0, 0.0, 1.0, 0.0, 5.95)" width="81.7" xlink:href="#shape39"/>
      <use height="22.9" transform="matrix(1.0, 0.0, 0.0, 1.0, 26.4, 9.3)" width="22.65" xlink:href="#sprite39"/>
      <use height="14.5" transform="matrix(1.0, 0.0, 0.0, 1.0, 52.9, 37.2)" width="28.5" xlink:href="#sprite40"/>
      <use height="11.85" transform="matrix(1.0, 0.0, 0.0, 1.0, 60.8, 97.0)" width="10.9" xlink:href="#sprite41"/>
      <use height="16.5" transform="matrix(1.0, 0.0, 0.0, 1.0, 81.4, 149.15)" width="10.5" xlink:href="#sprite42"/>
    </g>
    <g id="sprite31" transform="matrix(1.0, 0.0, 0.0, 1.0, 0.0, 0.0)">
      <use height="206.05" transform="matrix(1.0, 0.0, 0.0, 1.0, 0.0, 0.0)" width="90.5" xlink:href="#shape31"/>
    </g>
    <g id="shape31" transform="matrix(1.0, 0.0, 0.0, 1.0, 0.0, 0.0)">
      <path d="M47.65 18.75 Q48.4 25.0 47.0 30.6 L73.5 27.6 81.5 50.1 55.5 54.6 47.0 88.6 49.45 88.35 55.4 88.5 Q64.65 89.5 69.0 95.1 73.4 100.7 66.9 120.95 63.65 131.05 59.5 140.05 L90.5 143.55 84.5 205.55 71.0 206.05 Q72.65 201.8 74.2 194.95 77.3 181.2 77.0 168.05 76.7 154.95 64.55 152.45 L56.25 152.0 52.5 152.55 43.5 105.05 Q41.9 105.95 39.25 106.55 34.0 107.8 29.0 106.55 24.0 105.3 25.75 85.35 L28.5 65.6 17.0 64.6 24.0 24.1 0.0 24.6 4.0 0.6 13.4 0.0 Q24.9 0.0 35.5 3.1 46.15 6.25 47.65 18.75" fill="#bcbb76" fill-rule="evenodd" stroke="none"/>
    </g>
    <g id="sprite32" transform="matrix(1.0, 0.0, 0.0, 1.0, 0.0, 0.0)">
      <use height="52.7" transform="matrix(1.0, 0.0, 0.0, 1.0, 0.0, 0.0)" width="79.5" xlink:href="#shape32"/>
    </g>
    <g id="shape32" transform="matrix(1.0, 0.0, 0.0, 1.0, 0.0, 0.0)">
      <path d="M43.7 24.0 Q43.45 13.35 36.5 8.7 27.15 2.45 12.65 1.7 L0.0 2.2 Q4.9 0.95 11.55 0.35 24.95 -0.9 34.0 2.2 43.05 5.35 46.2 16.85 47.75 22.6 47.5 27.7 L75.0 26.2 79.5 52.7 70.0 30.7 42.5 33.7 Q43.8 29.3 43.7 24.0" fill="#ececd9" fill-rule="evenodd" stroke="none"/>
    </g>
    <g id="sprite33" transform="matrix(1.0, 0.0, 0.0, 1.0, 0.0, 0.05)">
      <use height="52.25" transform="matrix(1.0, 0.0, 0.0, 1.0, 0.0, -0.05)" width="25.85" xlink:href="#shape33"/>
    </g>
    <g id="shape33" transform="matrix(1.0, 0.0, 0.0, 1.0, 0.0, 0.05)">
      <path d="M0.0 1.75 Q3.5 0.75 7.95 0.25 16.8 -0.75 21.5 1.75 26.2 4.25 25.8 12.25 25.65 16.25 24.5 19.75 L18.0 52.2 20.5 11.25 Q20.15 8.65 17.4 6.15 11.9 1.15 0.0 1.75" fill="#ececd9" fill-rule="evenodd" stroke="none"/>
    </g>
    <g id="sprite34" transform="matrix(1.0, 0.0, 0.0, 1.0, 0.0, 0.0)">
      <use height="63.0" transform="matrix(1.0, 0.0, 0.0, 1.0, 0.0, 0.0)" width="33.0" xlink:href="#shape34"/>
    </g>
    <g id="shape34" transform="matrix(1.0, 0.0, 0.0, 1.0, 0.0, 0.0)">
      <path d="M0.0 0.0 L33.0 1.5 27.0 59.5 23.0 63.0 28.0 3.5 0.0 0.0" fill="#ececd9" fill-rule="evenodd" stroke="none"/>
    </g>
    <g id="sprite35" transform="matrix(1.0, 0.0, 0.0, 1.0, 0.0, 0.0)">
      <use height="59.0" transform="matrix(1.0, 0.0, 0.0, 1.0, 0.0, 0.0)" width="33.0" xlink:href="#shape35"/>
    </g>
    <g id="shape35" transform="matrix(1.0, 0.0, 0.0, 1.0, 0.0, 0.0)">
      <path d="M4.0 0.35 L7.65 0.0 6.0 13.0 28.3 11.0 26.3 33.35 33.0 32.65 26.3 59.0 16.3 58.0 23.3 17.35 0.0 18.0 4.0 0.35" fill="#b5b478" fill-rule="evenodd" stroke="none"/>
    </g>
    <g id="sprite36" transform="matrix(1.0, 0.0, 0.0, 1.0, 0.0, 0.0)">
      <use height="34.65" transform="matrix(1.0, 0.0, 0.0, 1.0, 0.0, 0.0)" width="16.1" xlink:href="#shape36"/>
    </g>
    <g id="shape36" transform="matrix(1.0, 0.0, 0.0, 1.0, 0.0, 0.0)">
      <path d="M7.45 19.0 Q9.75 19.2 9.5 23.45 9.4 25.6 8.8 27.65 L16.1 26.65 15.45 33.0 Q13.8 34.0 11.35 34.45 6.4 35.35 2.45 32.65 -1.5 29.95 0.9 14.7 2.1 7.1 4.1 0.0 L3.8 18.65 7.45 19.0" fill="#b5b478" fill-rule="evenodd" stroke="none"/>
    </g>
    <g id="sprite37" transform="matrix(1.0, 0.0, 0.0, 1.0, 0.0, 0.0)">
      <use height="52.95" transform="matrix(1.0, 0.0, 0.0, 1.0, 0.0, 0.0)" width="12.8" xlink:href="#shape37"/>
    </g>
    <g id="shape37" transform="matrix(1.0, 0.0, 0.0, 1.0, 0.0, 0.0)">
      <path d="M0.0 0.35 L3.35 0.0 5.7 21.3 Q5.95 20.65 6.7 20.1 8.2 19.0 10.7 19.6 13.2 20.25 12.7 27.0 12.45 30.35 11.7 33.6 L8.35 34.95 8.0 52.95 0.0 0.35" fill="#b5b478" fill-rule="evenodd" stroke="none"/>
    </g>
    <g id="sprite38" transform="matrix(1.0, 0.0, 0.0, 1.0, 0.0, 0.0)">
      <use height="57.5" transform="matrix(1.0, 0.0, 0.0, 1.0, 0.0, 0.0)" width="22.05" xlink:href="#shape38"/>
    </g>
    <g id="shape38" transform="matrix(1.0, 0.0, 0.0, 1.0, 0.0, 0.0)">
      <path d="M0.05 0.15 Q3.45 -0.15 7.45 0.15 15.45 0.75 18.4 3.85 21.3 7.0 20.95 16.05 20.8 20.6 20.05 24.5 L22.05 24.15 17.7 56.5 13.4 57.5 Q15.1 50.2 16.45 41.3 19.2 23.55 17.4 15.85 16.05 10.05 10.85 6.75 6.8 4.15 3.05 4.15 0.75 4.15 0.2 2.15 -0.1 1.15 0.05 0.15" fill="#b5b478" fill-rule="evenodd" stroke="none"/>
    </g>
    <g id="shape39" transform="matrix(1.0, 0.0, 0.0, 1.0, 0.0, -5.95)">
      <path d="M8.55 5.95 L4.55 30.05 28.5 29.45 21.55 69.05 23.9 32.35 0.0 33.95 8.55 5.95" fill="#b5b478" fill-rule="evenodd" stroke="none"/>
      <path d="M22.15 70.2 L33.0 71.2 30.1 88.45 Q28.05 106.6 32.15 110.8 34.6 113.35 41.3 112.5 44.7 112.1 47.55 111.15 45.15 114.1 41.55 115.75 34.35 119.0 28.3 112.55 22.25 106.15 25.05 88.7 25.95 83.25 27.6 77.35 L29.05 72.55 22.15 70.2" fill="#b5b478" fill-rule="evenodd" stroke="none"/>
      <path d="M57.15 158.05 L59.4 157.8 Q62.4 157.6 66.15 157.8 71.35 158.1 73.95 159.5 77.5 161.35 80.25 166.55 83.3 172.4 79.85 191.95 78.15 201.7 75.8 210.3 77.1 200.85 77.6 190.45 78.55 169.6 74.4 164.8 70.25 160.0 61.4 161.3 58.65 161.7 55.75 162.65 L53.4 163.5 48.0 111.55 57.15 158.05" fill="#b5b478" fill-rule="evenodd" stroke="none"/>
    </g>
    <g id="sprite39" transform="matrix(1.0, 0.0, 0.0, 1.0, 0.0, 0.05)">
      <use height="22.9" transform="matrix(1.0, 0.0, 0.0, 1.0, 0.0, -0.05)" width="22.65" xlink:href="#shape40"/>
    </g>
    <g id="shape40" transform="matrix(1.0, 0.0, 0.0, 1.0, 0.0, 0.05)">
      <path d="M20.7 8.3 Q23.15 13.35 22.5 18.85 L17.5 22.85 17.0 15.9 Q16.25 8.55 15.0 6.35 13.75 4.15 6.75 4.8 L0.0 5.85 0.5 0.35 Q15.8 -1.85 20.7 8.3" fill="#eee4cb" fill-rule="evenodd" stroke="none"/>
    </g>
    <g id="sprite40" transform="matrix(1.0, 0.0, 0.0, 1.0, 0.0, 0.0)">
      <use height="14.5" transform="matrix(1.0, 0.0, 0.0, 1.0, 0.0, 0.0)" width="28.5" xlink:href="#shape41"/>
    </g>
    <g id="shape41" transform="matrix(1.0, 0.0, 0.0, 1.0, 0.0, 0.0)">
      <path d="M5.0 1.0 L22.5 0.0 28.5 14.0 22.5 14.5 18.0 4.5 0.0 5.0 5.0 1.0" fill="#eee4cb" fill-rule="evenodd" stroke="none"/>
    </g>
    <g id="sprite41" transform="matrix(1.0, 0.0, 0.0, 1.0, 0.05, 0.05)">
      <use height="11.85" transform="matrix(1.0, 0.0, 0.0, 1.0, -0.05, -0.05)" width="10.9" xlink:href="#shape42"/>
    </g>
    <g id="shape42" transform="matrix(1.0, 0.0, 0.0, 1.0, 0.05, 0.05)">
      <path d="M9.5 4.75 Q10.85 7.1 10.85 9.0 10.85 11.1 9.05 11.6 5.2 12.75 1.5 7.05 -0.05 4.7 -0.05 2.85 0.0 0.7 2.05 0.15 6.1 -0.95 9.5 4.75" fill="#eee4cb" fill-rule="evenodd" stroke="none"/>
    </g>
    <g id="sprite42" transform="matrix(1.0, 0.0, 0.0, 1.0, 0.0, 0.0)">
      <use height="16.5" transform="matrix(1.0, 0.0, 0.0, 1.0, 0.0, 0.0)" width="10.5" xlink:href="#shape43"/>
    </g>
    <g id="shape43" transform="matrix(1.0, 0.0, 0.0, 1.0, 0.0, 0.0)">
      <path d="M0.0 0.0 L10.5 2.5 9.5 16.5 7.0 5.5 0.0 0.0" fill="#eee4cb" fill-rule="evenodd" stroke="none"/>
    </g>
    <g id="sprite43" transform="matrix(1.0, 0.0, 0.0, 1.0, 0.0, 0.0)">
      <use height="118.5" transform="matrix(1.0, 0.0, 0.0, 1.0, 4.5, 3.5)" width="67.0" xlink:href="#sprite44"/>
      <use height="122.25" transform="matrix(1.0, 0.0, 0.0, 1.0, 0.0, 4.5)" width="70.75" xlink:href="#shape45"/>
      <use height="15.75" transform="matrix(1.0, 0.0, 0.0, 1.0, 18.5, 5.25)" width="8.0" xlink:href="#sprite45"/>
      <use height="16.25" transform="matrix(1.0, 0.0, 0.0, 1.0, 6.5, 18.0)" width="21.5" xlink:href="#sprite46"/>
      <use height="87.25" transform="matrix(1.0, 0.0, 0.0, 1.0, 28.25, 32.25)" width="36.85" xlink:href="#sprite47"/>
      <use height="22.25" transform="matrix(1.0, 0.0, 0.0, 1.0, 20.0, 0.0)" width="18.75" xlink:href="#sprite48"/>
      <use height="32.75" transform="matrix(1.0, 0.0, 0.0, 1.0, 41.0, 19.0)" width="22.5" xlink:href="#sprite49"/>
      <use height="66.25" transform="matrix(1.0, 0.0, 0.0, 1.0, 61.25, 48.75)" width="17.25" xlink:href="#sprite50"/>
    </g>
    <g id="sprite44" transform="matrix(1.0, 0.0, 0.0, 1.0, 0.0, 0.0)">
      <use height="118.5" transform="matrix(1.0, 0.0, 0.0, 1.0, 0.0, 0.0)" width="67.0" xlink:href="#shape44"/>
    </g>
    <g id="shape44" transform="matrix(1.0, 0.0, 0.0, 1.0, 0.0, 0.0)">
      <path d="M2.5 12.0 L12.5 13.5 15.0 1.0 26.0 0.0 20.5 22.5 50.0 22.0 41.0 55.0 67.0 52.5 66.5 113.5 53.0 118.5 Q53.65 114.15 54.05 107.5 54.95 94.25 54.0 83.0 53.15 72.9 44.0 70.2 41.1 69.35 37.8 69.35 L35.0 69.5 20.5 68.5 24.5 32.5 0.0 32.5 2.5 12.0" fill="#bcbb76" fill-rule="evenodd" stroke="none"/>
    </g>
    <g id="shape45" transform="matrix(1.0, 0.0, 0.0, 1.0, 0.0, -4.5)">
      <path d="M17.25 4.75 L19.5 4.5 16.5 16.75 17.25 4.75" fill="#b5b478" fill-rule="evenodd" stroke="none"/>
      <path d="M6.0 15.5 L3.75 36.5 28.25 36.75 24.5 72.75 46.25 73.75 Q51.2 74.3 54.3 78.15 57.25 81.8 58.0 87.75 58.65 92.6 57.9 108.05 L57.0 122.5 70.75 118.25 53.25 126.75 54.5 106.0 Q55.95 83.75 48.75 78.75 44.7 75.95 32.2 75.95 L20.5 76.5 26.5 39.0 0.0 39.75 6.0 15.5" fill="#b5b478" fill-rule="evenodd" stroke="none"/>
    </g>
    <g id="sprite45" transform="matrix(1.0, 0.0, 0.0, 1.0, 0.0, 0.0)">
      <use height="15.75" transform="matrix(1.0, 0.0, 0.0, 1.0, 0.0, 0.0)" width="8.0" xlink:href="#shape46"/>
    </g>
    <g id="shape46" transform="matrix(1.0, 0.0, 0.0, 1.0, 0.0, 0.0)">
      <path d="M2.25 0.75 L8.0 0.0 7.75 4.25 4.5 5.75 3.25 15.75 0.0 15.5 2.25 0.75" fill="#b5b478" fill-rule="evenodd" stroke="none"/>
    </g>
    <g id="sprite46" transform="matrix(1.0, 0.0, 0.0, 1.0, 0.0, 0.0)">
      <use height="16.25" transform="matrix(1.0, 0.0, 0.0, 1.0, 0.0, 0.0)" width="21.5" xlink:href="#shape47"/>
    </g>
    <g id="shape47" transform="matrix(1.0, 0.0, 0.0, 1.0, 0.0, 0.0)">
      <path d="M1.75 0.25 L4.5 0.0 Q4.0 11.0 4.75 11.0 L20.75 13.25 21.5 16.25 0.0 16.0 1.75 0.25" fill="#b5b478" fill-rule="evenodd" stroke="none"/>
    </g>
    <g id="sprite47" transform="matrix(1.0, 0.0, 0.0, 1.0, 0.0, 0.0)">
      <use height="87.25" transform="matrix(1.0, 0.0, 0.0, 1.0, 0.0, 0.0)" width="36.85" xlink:href="#shape48"/>
    </g>
    <g id="shape48" transform="matrix(1.0, 0.0, 0.0, 1.0, 0.0, 0.0)">
      <path d="M3.0 0.5 L9.0 0.0 8.25 8.0 15.0 7.25 8.25 31.0 30.75 31.5 30.0 34.75 33.2 41.1 Q36.45 48.3 36.75 52.5 37.25 59.25 35.25 86.0 L31.0 87.25 31.9 79.75 Q32.75 70.4 32.75 61.0 32.75 50.35 29.9 44.9 27.4 40.15 21.75 37.75 17.4 35.9 8.25 36.4 L0.0 37.25 3.0 0.5" fill="#b5b478" fill-rule="evenodd" stroke="none"/>
    </g>
    <g id="sprite48" transform="matrix(1.0, 0.0, 0.0, 1.0, 0.0, 0.0)">
      <use height="22.25" transform="matrix(1.0, 0.0, 0.0, 1.0, 0.0, 0.0)" width="18.75" xlink:href="#shape49"/>
    </g>
    <g id="shape49" transform="matrix(1.0, 0.0, 0.0, 1.0, 0.0, 0.0)">
      <path d="M0.0 2.75 L18.75 0.0 14.25 22.25 14.75 3.0 0.0 2.75" fill="#ececd9" fill-rule="evenodd" stroke="none"/>
    </g>
    <g id="sprite49" transform="matrix(1.0, 0.0, 0.0, 1.0, 0.0, 0.0)">
      <use height="32.75" transform="matrix(1.0, 0.0, 0.0, 1.0, 0.0, 0.0)" width="22.5" xlink:href="#shape50"/>
    </g>
    <g id="shape50" transform="matrix(1.0, 0.0, 0.0, 1.0, 0.0, 0.0)">
      <path d="M0.0 3.5 L22.5 0.0 13.25 32.75 17.25 4.5 0.0 3.5" fill="#ececd9" fill-rule="evenodd" stroke="none"/>
    </g>
    <g id="sprite50" transform="matrix(1.0, 0.0, 0.0, 1.0, 0.0, 0.0)">
      <use height="66.25" transform="matrix(1.0, 0.0, 0.0, 1.0, 0.0, 0.0)" width="17.25" xlink:href="#shape51"/>
    </g>
    <g id="shape51" transform="matrix(1.0, 0.0, 0.0, 1.0, 0.0, 0.0)">
      <path d="M0.0 4.75 L17.25 0.0 17.0 66.25 15.0 4.5 0.0 4.75" fill="#ececd9" fill-rule="evenodd" stroke="none"/>
    </g>
    <g id="sprite51" transform="matrix(1.0, 0.0, 0.0, 1.0, 0.0, 0.0)">
      <use height="84.0" transform="matrix(1.0, 0.0, 0.0, 1.0, 7.0, 6.0)" width="63.95" xlink:href="#sprite52"/>
      <use height="23.25" transform="matrix(1.0, 0.0, 0.0, 1.0, 13.25, 7.75)" width="36.0" xlink:href="#sprite53"/>
      <use height="50.25" transform="matrix(1.0, 0.0, 0.0, 1.0, 45.5, 37.75)" width="17.0" xlink:href="#sprite54"/>
      <use height="85.75" transform="matrix(1.0, 0.0, 0.0, 1.0, 0.0, 7.25)" width="65.0" xlink:href="#shape55"/>
      <use height="12.5" transform="matrix(1.0, 0.0, 0.0, 1.0, 20.25, 0.0)" width="16.75" xlink:href="#sprite55"/>
      <use height="25.5" transform="matrix(1.0, 0.0, 0.0, 1.0, 39.5, 10.75)" width="31.15" xlink:href="#sprite56"/>
      <use height="37.8" transform="matrix(1.0, 0.0, 0.0, 1.0, 65.0, 50.2)" width="11.7" xlink:href="#sprite57"/>
    </g>
    <g id="sprite52" transform="matrix(1.0, 0.0, 0.0, 1.0, 0.0, 0.0)">
      <use height="84.0" transform="matrix(1.0, 0.0, 0.0, 1.0, 0.0, 0.0)" width="63.95" xlink:href="#shape52"/>
    </g>
    <g id="shape52" transform="matrix(1.0, 0.0, 0.0, 1.0, 0.0, 0.0)">
      <path d="M52.5 18.5 Q59.4 24.15 56.15 37.4 54.5 44.0 51.5 49.5 L53.9 48.8 Q57.15 48.7 61.5 51.5 65.9 54.3 62.4 69.45 60.65 77.0 58.0 84.0 L51.5 82.0 50.0 74.0 35.5 75.0 Q38.0 67.25 39.95 57.65 43.8 38.4 41.0 29.0 38.2 19.65 18.8 17.15 L0.0 16.5 10.0 1.0 23.0 0.0 23.0 8.5 Q27.65 8.75 33.65 10.15 45.65 12.9 52.5 18.5" fill="#bcbb76" fill-rule="evenodd" stroke="none"/>
    </g>
    <g id="sprite53" transform="matrix(1.0, 0.0, 0.0, 1.0, 0.0, 0.0)">
      <use height="23.25" transform="matrix(1.0, 0.0, 0.0, 1.0, 0.0, 0.0)" width="36.0" xlink:href="#shape53"/>
    </g>
    <g id="shape53" transform="matrix(1.0, 0.0, 0.0, 1.0, 0.0, 0.0)">
      <path d="M36.0 23.25 Q34.15 21.75 31.0 19.9 24.75 16.2 18.5 14.5 12.25 12.8 5.5 12.35 2.15 12.15 0.0 12.25 L5.0 0.5 9.0 0.0 9.25 4.0 12.25 3.75 12.0 10.5 19.5 12.25 Q24.2 13.35 30.55 18.4 33.75 20.95 36.0 23.25" fill="#b5b478" fill-rule="evenodd" stroke="none"/>
    </g>
    <g id="sprite54" transform="matrix(1.0, 0.0, 0.0, 1.0, 0.0, 0.0)">
      <use height="50.25" transform="matrix(1.0, 0.0, 0.0, 1.0, 0.0, 0.0)" width="17.0" xlink:href="#shape54"/>
    </g>
    <g id="shape54" transform="matrix(1.0, 0.0, 0.0, 1.0, 0.0, 0.0)">
      <path d="M10.75 0.0 L7.5 22.25 11.0 23.5 8.0 35.5 17.0 34.75 17.0 50.25 14.25 49.25 13.25 39.75 0.0 40.75 Q2.5 32.5 4.0 25.0 5.5 17.5 6.25 5.0 L10.75 0.0" fill="#b5b478" fill-rule="evenodd" stroke="none"/>
    </g>
    <g id="shape55" transform="matrix(1.0, 0.0, 0.0, 1.0, 0.0, -7.25)">
      <path d="M48.65 42.25 Q48.8 47.2 47.5 55.5 47.0 62.25 42.5 81.0 L56.5 81.0 58.5 88.0 65.0 90.0 63.25 93.0 57.5 90.5 55.75 83.0 38.0 84.75 Q40.8 75.55 43.1 65.1 47.65 44.15 45.0 37.75 42.35 31.35 20.9 28.3 10.2 26.75 0.0 26.5 L15.75 7.25 6.25 23.0 20.7 23.45 Q36.3 24.8 42.25 29.0 48.3 33.3 48.65 42.25" fill="#b5b478" fill-rule="evenodd" stroke="none"/>
    </g>
    <g id="sprite55" transform="matrix(1.0, 0.0, 0.0, 1.0, 0.0, 0.0)">
      <use height="12.5" transform="matrix(1.0, 0.0, 0.0, 1.0, 0.0, 0.0)" width="16.75" xlink:href="#shape56"/>
    </g>
    <g id="shape56" transform="matrix(1.0, 0.0, 0.0, 1.0, 0.0, 0.0)">
      <path d="M0.0 3.0 L16.75 0.0 13.25 12.5 11.5 3.0 0.0 3.0" fill="#ececd9" fill-rule="evenodd" stroke="none"/>
    </g>
    <g id="sprite56" transform="matrix(1.0, 0.0, 0.0, 1.0, 0.0, 0.0)">
      <use height="25.5" transform="matrix(1.0, 0.0, 0.0, 1.0, 0.0, 0.0)" width="31.15" xlink:href="#shape57"/>
    </g>
    <g id="shape57" transform="matrix(1.0, 0.0, 0.0, 1.0, 0.0, 0.0)">
      <path d="M22.5 10.0 Q17.05 6.7 7.95 4.3 3.45 3.05 0.0 2.5 L1.0 0.0 Q4.9 0.15 9.9 1.2 19.9 3.4 25.5 8.25 31.15 13.1 31.15 19.8 31.15 23.15 30.0 25.5 30.3 22.95 29.55 19.7 27.95 13.3 22.5 10.0" fill="#ececd9" fill-rule="evenodd" stroke="none"/>
    </g>
    <g id="sprite57" transform="matrix(1.0, 0.0, 0.0, 1.0, 0.0, 0.05)">
      <use height="37.8" transform="matrix(1.0, 0.0, 0.0, 1.0, 0.0, -0.05)" width="11.7" xlink:href="#shape58"/>
    </g>
    <g id="shape58" transform="matrix(1.0, 0.0, 0.0, 1.0, 0.0, 0.05)">
      <path d="M0.0 1.5 Q1.75 0.4 3.95 0.05 8.4 -0.55 10.75 3.5 13.1 7.55 9.65 23.05 7.95 30.8 5.75 37.75 7.25 31.3 8.25 24.25 10.25 10.15 7.75 7.0 5.25 3.9 2.4 2.4 0.95 1.65 0.0 1.5" fill="#ececd9" fill-rule="evenodd" stroke="none"/>
    </g>
  </defs>
</svg>
