<?xml version="1.0" encoding="UTF-8" standalone="no"?>
<svg xmlns:xlink="http://www.w3.org/1999/xlink" height="59.35px" width="52.85px" xmlns="http://www.w3.org/2000/svg">
  <g transform="matrix(1.0, 0.0, 0.0, 1.0, 0.0, 0.0)">
    <use height="35.55" transform="matrix(-0.5344, 0.8435, -0.8435, -0.5344, 24.0493, 28.2165)" width="24.7" xlink:href="#shape0"/>
    <use height="51.6" transform="matrix(-0.5344, 0.8435, -0.8435, -0.5344, 49.343, 58.724)" width="48.5" xlink:href="#shape1"/>
    <use height="17.3" transform="matrix(0.9683, 0.081, -0.0799, 0.9552, -12.6847, 20.5524)" width="23.35" xlink:href="#shape2"/>
    <use height="35.6" transform="matrix(-0.5344, 0.8435, -0.8435, -0.5344, 24.2785, 27.948)" width="25.3" xlink:href="#shape3"/>
  </g>
  <defs>
    <g id="shape0" transform="matrix(1.0, 0.0, 0.0, 1.0, 12.35, 8.95)">
      <path d="M5.2 -8.0 Q6.55 -7.15 6.5 -6.3 6.45 -5.4 5.35 -4.7 L5.1 2.4 Q9.6 4.4 11.45 9.0 13.3 13.7 11.45 18.45 9.55 23.3 4.9 25.45 0.2 27.6 -4.6 25.7 -9.35 23.85 -11.35 19.15 -13.3 14.4 -11.45 9.45 -10.45 6.95 -8.55 5.05 -6.7 3.25 -4.35 2.35 L-4.05 -4.85 Q-5.15 -5.55 -5.15 -6.55 -5.15 -7.35 -4.0 -8.0 0.45 -9.9 5.2 -8.0" fill="url(#gradient0)" fill-rule="evenodd" stroke="none"/>
    </g>
    <linearGradient gradientTransform="matrix(0.0108, 0.0014, 0.0014, -0.0109, 1.2, 0.5)" gradientUnits="userSpaceOnUse" id="gradient0" spreadMethod="pad" x1="-819.2" x2="819.2">
      <stop offset="0.00784313725490196" stop-color="#d9eaee" stop-opacity="0.54901963"/>
      <stop offset="1.0" stop-color="#93bac2" stop-opacity="0.69803923"/>
    </linearGradient>
    <g id="shape1" transform="matrix(1.0, 0.0, 0.0, 1.0, 0.1, 46.7)">
      <path d="M40.2 -37.7 Q37.45 -35.55 34.2 -32.8 31.4 -30.4 28.25 -28.25 26.2 -26.9 24.65 -25.25 23.8 -24.3 22.65 -23.6 15.95 -19.45 9.9 -14.55 L7.0 -11.95 Q4.9 -9.85 3.45 -7.35 3.0 -6.6 3.05 -5.75 L3.15 2.4 3.1 2.4 Q2.75 2.9 2.75 3.45 L2.35 4.35 Q1.9 4.9 1.5 4.9 0.65 4.9 0.0 3.4 L-0.1 3.15 Q0.45 0.8 0.45 -1.65 0.45 -12.7 10.05 -18.4 L10.6 -18.7 10.05 -18.45 21.85 -27.5 Q22.05 -28.3 22.75 -28.8 24.25 -29.9 25.9 -30.7 L26.7 -31.35 29.7 -34.15 30.05 -34.5 Q30.75 -36.4 32.95 -37.85 37.0 -40.45 40.75 -43.6 L41.25 -44.05 Q43.8 -46.25 47.0 -46.65 48.95 -46.9 48.2 -45.25 46.85 -42.3 44.05 -40.5 L43.5 -40.1 40.2 -37.8 40.2 -37.7" fill="url(#gradient1)" fill-rule="evenodd" stroke="none"/>
      <path d="M4.15 -10.65 L4.3 -10.45 3.5 -9.0 Q2.85 -8.1 2.0 -8.55 1.4 -9.7 2.5 -10.45 3.2 -10.95 4.0 -10.8 L4.15 -10.65 M1.8 -8.0 Q2.85 -7.5 2.0 -6.55 1.65 -6.15 1.3 -6.55 1.05 -7.05 1.3 -7.55 L1.8 -8.0" fill="#ffffff" fill-opacity="0.65882355" fill-rule="evenodd" stroke="none"/>
    </g>
    <linearGradient gradientTransform="matrix(-0.0137, 0.0137, -0.7071, -0.7071, -2.05, -25.95)" gradientUnits="userSpaceOnUse" id="gradient1" spreadMethod="pad" x1="-819.2" x2="819.2">
      <stop offset="0.0" stop-color="#9ba3bc" stop-opacity="0.0"/>
      <stop offset="0.34901960784313724" stop-color="#7f859b" stop-opacity="0.6666667"/>
      <stop offset="0.9882352941176471" stop-color="#707589" stop-opacity="0.84705883"/>
    </linearGradient>
    <g id="shape2" transform="matrix(1.0, 0.0, 0.0, 1.0, 11.75, -8.85)">
      <path d="M11.6 14.85 Q11.5 19.65 7.95 23.0 4.45 26.25 -0.4 26.15 -5.25 26.05 -8.6 22.55 -11.85 19.05 -11.75 14.25 L-11.55 12.2 Q-8.2 14.55 -0.35 14.85 L6.9 14.3 Q10.05 13.6 11.45 12.45 L11.6 14.85" fill="url(#gradient2)" fill-rule="evenodd" stroke="none"/>
      <path d="M2.55 17.0 L2.1 18.05 Q1.55 18.45 0.9 18.45 0.25 18.45 -0.2 18.0 -0.75 17.55 -0.7 16.9 -0.7 16.3 -0.15 15.85 0.3 15.4 1.0 15.45 1.65 15.45 2.15 15.9 2.6 16.35 2.55 17.0" fill="url(#gradient3)" fill-rule="evenodd" stroke="none"/>
      <path d="M-3.1 19.85 Q-3.1 20.45 -3.55 20.95 -4.1 21.35 -4.8 21.35 -5.4 21.3 -5.85 20.8 -6.4 20.35 -6.35 19.75 -6.35 19.1 -5.8 18.7 -5.35 18.25 -4.65 18.3 -4.05 18.3 -3.55 18.75 -3.1 19.2 -3.1 19.85" fill="url(#gradient4)" fill-rule="evenodd" stroke="none"/>
      <path d="M8.5 17.2 L8.2 17.85 7.45 18.1 Q6.55 18.0 6.55 17.15 6.55 16.75 6.8 16.5 7.1 16.25 7.5 16.3 8.5 16.3 8.5 17.2" fill="url(#gradient5)" fill-rule="evenodd" stroke="none"/>
      <path d="M11.4 12.1 Q11.3 13.3 7.9 14.05 L-0.3 14.7 Q-5.0 14.65 -8.4 13.65 -11.75 12.7 -11.7 11.5 -11.65 10.3 -8.25 9.45 L-0.1 8.85 Q4.75 8.95 8.1 9.95 11.45 10.85 11.4 12.1" fill="url(#gradient6)" fill-rule="evenodd" stroke="none"/>
      <path d="M7.9 14.05 Q11.25 13.3 11.4 12.15 11.25 13.45 8.55 14.35 5.4 15.3 -0.1 15.15 -5.65 14.95 -8.85 13.85 -11.65 12.85 -11.7 11.55 -11.65 12.75 -8.4 13.65 -5.0 14.65 -0.3 14.7 L7.9 14.05" fill="#a7acd1" fill-rule="evenodd" stroke="none"/>
    </g>
    <radialGradient cx="0" cy="0" gradientTransform="matrix(0.0079, 0.0174, 0.0175, -0.0078, -2.7, 10.85)" gradientUnits="userSpaceOnUse" id="gradient2" r="819.2" spreadMethod="pad">
      <stop offset="0.0" stop-color="#a6abcf" stop-opacity="0.6666667"/>
      <stop offset="0.9882352941176471" stop-color="#62657c" stop-opacity="0.84705883"/>
    </radialGradient>
    <radialGradient cx="0" cy="0" gradientTransform="matrix(6.0E-4, 0.0023, 0.0024, -6.0E-4, 0.75, 16.45)" gradientUnits="userSpaceOnUse" id="gradient3" r="819.2" spreadMethod="pad">
      <stop offset="0.0" stop-color="#ffffff"/>
      <stop offset="0.16470588235294117" stop-color="#a3a8cc"/>
      <stop offset="0.8588235294117647" stop-color="#767992" stop-opacity="0.84705883"/>
      <stop offset="1.0" stop-color="#8b8fad" stop-opacity="0.84705883"/>
    </radialGradient>
    <radialGradient cx="0" cy="0" gradientTransform="matrix(6.0E-4, 0.0023, 0.0023, -6.0E-4, -4.9, 19.35)" gradientUnits="userSpaceOnUse" id="gradient4" r="819.2" spreadMethod="pad">
      <stop offset="0.0" stop-color="#ffffff"/>
      <stop offset="0.16470588235294117" stop-color="#a3a8cc"/>
      <stop offset="0.8588235294117647" stop-color="#767992" stop-opacity="0.84705883"/>
      <stop offset="1.0" stop-color="#8b8fad" stop-opacity="0.84705883"/>
    </radialGradient>
    <radialGradient cx="0" cy="0" gradientTransform="matrix(4.0E-4, 0.0014, 0.0014, -4.0E-4, 7.4, 16.9)" gradientUnits="userSpaceOnUse" id="gradient5" r="819.2" spreadMethod="pad">
      <stop offset="0.0" stop-color="#ffffff"/>
      <stop offset="0.16470588235294117" stop-color="#a3a8cc"/>
      <stop offset="0.8588235294117647" stop-color="#767992" stop-opacity="0.84705883"/>
      <stop offset="1.0" stop-color="#8b8fad" stop-opacity="0.84705883"/>
    </radialGradient>
    <radialGradient cx="0" cy="0" gradientTransform="matrix(0.0058, 0.0135, 0.0129, -0.0061, -2.75, 8.25)" gradientUnits="userSpaceOnUse" id="gradient6" r="819.2" spreadMethod="pad">
      <stop offset="0.0" stop-color="#a3a8cc" stop-opacity="0.6666667"/>
      <stop offset="0.9882352941176471" stop-color="#7a7d97" stop-opacity="0.84705883"/>
    </radialGradient>
    <g id="shape3" transform="matrix(1.0, 0.0, 0.0, 1.0, 12.7, 9.0)">
      <path d="M-2.45 -2.0 L-1.25 -3.05 Q-0.9 -3.25 -1.15 -4.2 L-1.2 -4.5 Q0.95 -3.95 2.9 -4.8 L2.25 -3.05 Q2.25 -2.7 1.35 -2.3 0.6 -2.0 0.85 -1.0 1.0 -0.3 1.75 1.15 2.15 2.1 1.85 2.4 1.55 2.65 3.1 3.05 L5.55 3.85 Q8.1 5.45 9.6 8.25 L11.35 11.4 Q12.6 12.4 10.1 13.45 7.2 14.6 0.95 14.45 -5.05 14.25 -8.7 12.85 -11.65 11.7 -10.95 11.05 L-9.3 8.45 Q-7.85 6.05 -6.85 5.45 L-4.5 5.4 Q-3.15 5.85 -2.6 5.4 -1.95 4.8 -2.6 3.7 L-3.45 2.3 Q-3.45 -0.15 -2.45 -2.0" fill="url(#gradient7)" fill-rule="evenodd" stroke="none"/>
      <path d="M11.65 18.3 Q9.7 23.25 4.9 25.4 0.1 27.6 -4.75 25.7 -9.65 23.8 -11.65 18.95 -13.7 14.1 -11.8 9.15 -9.8 4.15 -5.0 2.0 -0.25 -0.2 4.65 1.7 9.45 3.6 11.55 8.5 13.55 13.35 11.65 18.3" fill="url(#gradient8)" fill-rule="evenodd" stroke="none"/>
      <path d="M4.9 25.05 Q9.65 22.95 11.5 18.05 13.4 13.2 11.35 8.45 9.35 3.7 4.6 1.8 -0.2 -0.05 -4.9 2.05 -9.6 4.2 -11.5 9.0 -13.4 13.9 -11.35 18.65 -9.35 23.45 -4.6 25.3 0.2 27.2 4.9 25.05 M11.55 8.5 Q13.55 13.35 11.65 18.3 9.7 23.25 4.9 25.4 0.1 27.6 -4.75 25.7 -9.65 23.8 -11.65 18.95 -13.7 14.1 -11.8 9.15 -9.8 4.15 -5.0 2.0 -0.25 -0.2 4.65 1.7 9.45 3.6 11.55 8.5" fill="url(#gradient9)" fill-rule="evenodd" stroke="none"/>
      <path d="M3.15 6.0 Q6.05 7.0 6.85 10.45 7.2 12.2 6.95 13.65 7.2 16.15 5.4 17.95 1.9 21.5 -8.1 18.2 -11.0 17.25 -11.3 13.5 -11.55 10.2 -9.95 7.35 -9.15 6.05 -7.75 4.95 -6.55 4.15 -6.15 4.15 L-5.85 4.6 Q-5.3 5.25 -3.45 5.85 -0.25 7.0 3.15 6.0" fill="url(#gradient10)" fill-rule="evenodd" stroke="none"/>
      <path d="M5.4 4.95 Q6.0 4.45 5.05 2.7 L7.3 4.15 Q9.75 6.1 10.75 8.45 11.75 10.75 11.65 13.45 L11.35 15.7 9.3 16.05 9.7 15.0 Q9.95 13.35 9.4 10.85 8.8 8.35 7.1 6.4 L5.4 4.95" fill="url(#gradient11)" fill-rule="evenodd" stroke="none"/>
      <path d="M5.2 3.45 Q5.1 4.15 3.8 4.6 L1.85 5.1 3.65 4.6 Q4.95 4.15 4.95 3.5 5.0 2.75 3.65 2.25 L0.25 1.7 -3.2 2.2 Q-4.65 2.65 -4.65 3.35 -4.7 3.95 -3.55 4.5 -4.9 3.95 -4.8 3.3 -4.8 2.55 -3.35 2.05 -1.85 1.5 0.25 1.6 2.25 1.6 3.75 2.2 5.2 2.7 5.2 3.45" fill="url(#gradient12)" fill-rule="evenodd" stroke="none"/>
      <path d="M4.95 3.5 Q4.95 4.2 3.5 4.7 L0.05 5.15 -3.35 4.6 Q-4.7 4.1 -4.65 3.35 -4.65 2.65 -3.2 2.2 L0.25 1.7 3.65 2.25 Q5.0 2.75 4.95 3.5" fill="url(#gradient13)" fill-rule="evenodd" stroke="none"/>
      <path d="M-2.75 -8.2 Q-4.15 -7.7 -4.15 -6.95 -4.25 -6.15 -2.8 -5.6 -1.45 -5.1 0.55 -5.05 2.5 -4.95 3.95 -5.5 5.3 -6.0 5.35 -6.75 5.35 -7.55 4.0 -8.05 L0.65 -8.65 -2.75 -8.2 M-5.4 -6.4 Q-5.35 -7.55 -3.65 -8.3 -1.85 -9.1 0.65 -9.0 3.15 -8.9 4.9 -8.1 6.6 -7.3 6.55 -6.15 6.5 -5.05 4.7 -4.25 2.9 -3.5 0.5 -3.6 -2.0 -3.65 -3.75 -4.45 -5.5 -5.25 -5.4 -6.4" fill="url(#gradient14)" fill-rule="evenodd" stroke="none"/>
      <path d="M-4.25 -5.35 Q-3.95 -4.6 -2.6 -4.1 -1.3 -3.6 0.5 -3.6 L3.65 -4.0 Q5.0 -4.45 5.3 -5.15 L5.05 3.15 5.1 3.5 Q5.1 4.3 3.65 4.85 L0.2 5.4 Q-1.85 5.35 -3.2 4.75 -4.65 4.15 -4.6 3.3 L-4.5 2.95 -4.25 -5.35" fill="url(#gradient15)" fill-rule="evenodd" stroke="none"/>
      <path d="M0.5 -3.65 Q3.1 -3.65 4.6 -4.55 L4.4 2.3 4.45 2.65 Q4.4 3.5 3.15 4.0 1.9 4.55 0.2 4.5 -1.55 4.5 -2.75 3.9 -3.95 3.3 -3.85 2.45 L-3.8 2.2 -3.65 -4.65 Q-2.2 -3.7 0.5 -3.65" fill="url(#gradient16)" fill-rule="evenodd" stroke="none"/>
      <path d="M1.75 5.2 L0.2 5.25 -2.25 4.95 -2.4 4.8 0.5 5.15 1.75 5.2" fill="url(#gradient17)" fill-rule="evenodd" stroke="none"/>
      <path d="M-4.3 -5.4 L-3.95 -4.95 -4.1 1.7 Q-4.05 3.05 -3.45 3.85 L-3.65 3.9 -4.15 3.7 Q-4.35 3.7 -4.15 3.95 L-3.85 4.2 -3.85 4.3 Q-4.65 3.7 -4.65 3.2 L-4.5 2.85 -4.3 -5.4" fill="url(#gradient18)" fill-rule="evenodd" stroke="none"/>
      <path d="M4.95 -4.0 L4.8 -4.45 4.25 -4.2 4.25 -4.3 5.3 -5.2 5.05 3.0 5.1 3.35 4.6 4.25 4.1 3.95 4.5 3.2 4.75 2.55 4.95 -4.0" fill="url(#gradient19)" fill-rule="evenodd" stroke="none"/>
      <path d="M-3.0 -4.3 L-1.45 -3.9 -1.75 4.4 -1.85 4.55 -1.75 4.7 -2.3 4.45 -2.5 4.5 -2.4 4.8 -3.85 4.2 -3.65 3.9 -3.4 4.1 -2.85 4.3 -3.45 3.85 -3.2 3.7 -3.0 -4.3" fill="url(#gradient20)" fill-rule="evenodd" stroke="none"/>
      <path d="M2.7 -3.85 L3.25 -4.0 4.15 -4.15 4.25 -4.2 4.0 3.85 4.1 3.95 3.45 4.5 Q4.3 4.25 4.25 4.5 L3.05 4.95 3.2 4.55 3.05 4.55 2.4 4.8 2.7 -3.85" fill="url(#gradient21)" fill-rule="evenodd" stroke="none"/>
      <path d="M4.15 -4.15 L3.25 -4.0 4.25 -4.3 4.25 -4.2 4.15 -4.15" fill="url(#gradient22)" fill-rule="evenodd" stroke="none"/>
      <path d="M4.15 -4.15 L3.25 -4.0 4.25 -4.3 4.25 -4.2 4.15 -4.15" fill="url(#gradient23)" fill-rule="evenodd" stroke="none"/>
      <path d="M4.1 3.95 L4.6 4.25 4.25 4.5 Q4.3 4.25 3.45 4.5 L4.1 3.95" fill="url(#gradient24)" fill-rule="evenodd" stroke="none"/>
      <path d="M4.1 3.95 L4.6 4.25 4.25 4.5 Q4.3 4.25 3.45 4.5 L4.1 3.95" fill="url(#gradient25)" fill-rule="evenodd" stroke="none"/>
      <path d="M-1.85 4.55 L-1.75 4.4 -1.0 4.45 -0.6 4.8 -1.75 4.7 -1.85 4.55" fill="#ffffff" fill-rule="evenodd" stroke="none"/>
      <path d="M-0.05 4.95 L-0.1 4.75 0.2 4.7 0.25 4.85 -0.05 4.95" fill="#ffffff" fill-rule="evenodd" stroke="none"/>
      <path d="M5.35 -6.75 Q5.3 -6.0 3.95 -5.5 2.5 -4.95 0.55 -5.05 -1.45 -5.1 -2.8 -5.6 -4.25 -6.15 -4.15 -6.95 -4.15 -7.7 -2.75 -8.2 L0.65 -8.65 4.0 -8.05 Q5.35 -7.55 5.35 -6.75" fill="url(#gradient26)" fill-rule="evenodd" stroke="none"/>
      <path d="M-3.4 -8.25 Q-5.05 -7.55 -5.1 -6.6 -5.1 -5.55 -3.5 -4.85 -1.85 -4.15 0.5 -4.1 2.8 -4.0 4.45 -4.65 6.15 -5.4 6.15 -6.35 6.2 -7.3 4.5 -8.05 2.9 -8.8 0.6 -8.85 L-3.4 -8.25 M-5.4 -6.4 Q-5.35 -7.55 -3.65 -8.3 -1.85 -9.1 0.65 -9.0 3.15 -8.9 4.9 -8.1 6.6 -7.3 6.55 -6.15 6.5 -5.05 4.7 -4.25 2.9 -3.5 0.5 -3.6 -2.0 -3.65 -3.75 -4.45 -5.5 -5.25 -5.4 -6.4" fill="url(#gradient27)" fill-rule="evenodd" stroke="none"/>
      <path d="M-2.75 -8.2 L-0.85 -8.6 -2.55 -8.2 Q-3.95 -7.7 -3.95 -7.0 -4.0 -6.3 -2.7 -5.75 -1.3 -5.2 0.55 -5.15 L3.75 -5.55 Q5.1 -6.05 5.1 -6.8 5.2 -7.45 4.05 -8.0 5.35 -7.45 5.35 -6.75 5.3 -6.0 3.95 -5.5 2.5 -4.95 0.55 -5.05 -1.45 -5.1 -2.8 -5.6 -4.25 -6.15 -4.15 -6.95 -4.15 -7.7 -2.75 -8.2" fill="url(#gradient28)" fill-rule="evenodd" stroke="none"/>
      <path d="M-2.75 -8.2 L-2.55 -8.25 Q-3.85 -7.75 -3.85 -7.05 -3.95 -6.35 -2.6 -5.8 -1.3 -5.25 0.55 -5.2 L3.7 -5.7 Q5.0 -6.15 5.05 -6.85 5.05 -7.6 3.75 -8.1 L2.75 -8.4 4.0 -8.05 Q5.35 -7.55 5.35 -6.75 5.3 -6.0 3.95 -5.5 2.5 -4.95 0.55 -5.05 -1.45 -5.1 -2.8 -5.6 -4.25 -6.15 -4.15 -6.95 -4.15 -7.7 -2.75 -8.2" fill="url(#gradient29)" fill-rule="evenodd" stroke="none"/>
      <path d="M9.4 10.2 L9.6 11.1 9.9 14.0 Q10.1 16.65 9.3 20.95 8.95 21.5 7.2 22.0 L-2.75 22.4 Q-5.9 22.2 -8.1 21.1 L-9.7 20.1 Q-10.9 18.85 -11.45 16.4 -11.9 14.0 -11.45 11.4 L-10.85 9.2 Q-5.7 11.5 2.4 11.1 L9.4 10.2" fill="url(#gradient30)" fill-rule="evenodd" stroke="none"/>
      <path d="M-8.1 11.3 Q-7.1 11.65 -7.1 12.7 L-7.3 13.75 Q-7.55 14.3 -7.9 14.5 L-6.55 16.0 Q-6.15 16.3 -6.05 16.7 -6.0 17.05 -6.3 17.25 -6.8 17.5 -7.7 16.15 L-8.0 15.55 -7.2 20.25 Q-7.25 20.8 -7.7 20.75 L-8.25 20.35 -8.65 17.5 -8.95 18.8 -9.3 20.05 -9.8 20.2 Q-10.2 20.1 -10.1 19.75 L-9.8 18.3 -9.15 15.55 -10.6 16.6 Q-10.95 16.65 -10.95 16.4 L-10.85 16.0 -9.6 14.9 -9.05 14.45 -9.25 14.4 Q-10.25 14.0 -9.7 12.5 -9.25 10.95 -8.1 11.3" fill="url(#gradient31)" fill-rule="evenodd" stroke="none"/>
      <path d="M-3.95 13.45 Q-3.35 11.95 -1.85 12.3 -0.6 12.6 -0.6 13.75 L-0.85 14.75 -1.6 15.45 0.2 16.95 0.75 17.7 Q0.9 18.05 0.5 18.25 -0.25 18.55 -1.25 17.2 L-1.75 16.6 -1.05 19.2 Q-0.6 20.85 -0.65 21.3 -0.7 21.75 -1.25 21.7 L-2.0 21.35 -2.5 18.45 -2.85 19.75 -3.25 21.05 -4.0 21.15 Q-4.45 21.05 -4.4 20.7 L-4.05 19.25 -3.2 16.5 Q-4.3 17.5 -5.05 17.55 -5.55 17.6 -5.55 17.35 L-5.35 16.9 -3.75 15.85 -3.05 15.4 -3.35 15.35 Q-4.6 15.0 -3.95 13.45" fill="url(#gradient32)" fill-rule="evenodd" stroke="none"/>
      <path d="M3.35 13.35 Q4.1 11.8 5.7 12.05 6.9 12.3 6.95 13.25 L6.8 14.2 6.0 15.05 7.8 16.15 Q8.95 16.75 8.1 17.3 7.5 17.7 6.35 16.6 L5.9 16.1 7.15 20.5 Q7.15 21.05 6.55 21.15 L5.7 21.0 5.35 19.45 5.1 18.15 4.75 19.55 4.3 21.1 Q4.0 21.45 3.45 21.5 2.85 21.5 2.85 21.1 L3.25 19.4 4.3 16.3 Q3.0 17.55 2.0 17.75 L1.45 17.7 1.65 17.2 Q1.85 16.8 3.7 15.75 L4.45 15.15 4.1 15.15 Q2.6 15.0 3.35 13.35" fill="url(#gradient33)" fill-rule="evenodd" stroke="none"/>
    </g>
    <radialGradient cx="0" cy="0" gradientTransform="matrix(-8.0E-4, 0.0257, 0.0503, 0.0016, 0.55, -13.25)" gradientUnits="userSpaceOnUse" id="gradient7" r="819.2" spreadMethod="pad">
      <stop offset="0.0" stop-color="#ffffff" stop-opacity="0.25882354"/>
      <stop offset="0.16470588235294117" stop-color="#dee9ab" stop-opacity="0.36862746"/>
      <stop offset="0.8588235294117647" stop-color="#cade96" stop-opacity="0.45882353"/>
      <stop offset="1.0" stop-color="#d8ebba" stop-opacity="0.22745098"/>
    </radialGradient>
    <radialGradient cx="0" cy="0" gradientTransform="matrix(0.0027, 0.0194, 0.0178, -0.0025, -0.55, 9.75)" gradientUnits="userSpaceOnUse" id="gradient8" r="819.2" spreadMethod="pad">
      <stop offset="0.0" stop-color="#ffffff" stop-opacity="0.47843137"/>
      <stop offset="0.7098039215686275" stop-color="#ffffff" stop-opacity="0.08235294"/>
      <stop offset="0.8666666666666667" stop-color="#ffffff" stop-opacity="0.2"/>
      <stop offset="1.0" stop-color="#ffffff" stop-opacity="0.02745098"/>
    </radialGradient>
    <radialGradient cx="0" cy="0" gradientTransform="matrix(0.0207, -0.0178, -0.0178, -0.0207, -8.45, 20.05)" gradientUnits="userSpaceOnUse" id="gradient9" r="819.2" spreadMethod="pad">
      <stop offset="0.0" stop-color="#ffffff" stop-opacity="0.9490196"/>
      <stop offset="1.0" stop-color="#8a9b9e"/>
    </radialGradient>
    <radialGradient cx="0" cy="0" gradientTransform="matrix(0.0028, 0.0138, 0.0156, -0.0026, -0.6, 4.75)" gradientUnits="userSpaceOnUse" id="gradient10" r="819.2" spreadMethod="pad">
      <stop offset="0.0" stop-color="#ffffff" stop-opacity="0.5882353"/>
      <stop offset="1.0" stop-color="#ffffff" stop-opacity="0.0"/>
    </radialGradient>
    <radialGradient cx="0" cy="0" gradientTransform="matrix(0.0018, 0.009, 0.01, -0.0021, 9.05, 4.5)" gradientUnits="userSpaceOnUse" id="gradient11" r="819.2" spreadMethod="pad">
      <stop offset="0.0" stop-color="#ffffff" stop-opacity="0.61960787"/>
      <stop offset="1.0" stop-color="#ffffff" stop-opacity="0.02745098"/>
    </radialGradient>
    <linearGradient gradientTransform="matrix(0.0054, 0.0021, 0.0021, -0.0054, 0.2, 3.35)" gradientUnits="userSpaceOnUse" id="gradient12" spreadMethod="pad" x1="-819.2" x2="819.2">
      <stop offset="0.0" stop-color="#ffffff" stop-opacity="0.9490196"/>
      <stop offset="1.0" stop-color="#abd9db"/>
    </linearGradient>
    <linearGradient gradientTransform="matrix(0.005, 0.0011, 0.0011, -0.005, 0.4, 3.5)" gradientUnits="userSpaceOnUse" id="gradient13" spreadMethod="pad" x1="-819.2" x2="819.2">
      <stop offset="0.0" stop-color="#000000" stop-opacity="0.24705882"/>
      <stop offset="1.0" stop-color="#000000" stop-opacity="0.02745098"/>
    </linearGradient>
    <linearGradient gradientTransform="matrix(-0.001, -0.0036, -0.0036, 0.001, 0.55, -6.3)" gradientUnits="userSpaceOnUse" id="gradient14" spreadMethod="pad" x1="-819.2" x2="819.2">
      <stop offset="0.0" stop-color="#ffffff" stop-opacity="0.21960784"/>
      <stop offset="1.0" stop-color="#ffffff" stop-opacity="0.02745098"/>
    </linearGradient>
    <linearGradient gradientTransform="matrix(0.0059, 2.0E-4, 3.0E-4, -0.0117, 0.35, 0.05)" gradientUnits="userSpaceOnUse" id="gradient15" spreadMethod="pad" x1="-819.2" x2="819.2">
      <stop offset="0.0" stop-color="#ffffff" stop-opacity="0.21960784"/>
      <stop offset="1.0" stop-color="#ffffff" stop-opacity="0.02745098"/>
    </linearGradient>
    <linearGradient gradientTransform="matrix(0.0051, 1.0E-4, 3.0E-4, -0.01, 0.35, -0.1)" gradientUnits="userSpaceOnUse" id="gradient16" spreadMethod="pad" x1="-819.2" x2="819.2">
      <stop offset="0.0" stop-color="#ffffff" stop-opacity="0.21960784"/>
      <stop offset="1.0" stop-color="#ffffff" stop-opacity="0.02745098"/>
    </linearGradient>
    <linearGradient gradientTransform="matrix(0.0059, 2.0E-4, 3.0E-4, -0.0117, 0.2, 5.1)" gradientUnits="userSpaceOnUse" id="gradient17" spreadMethod="pad" x1="-819.2" x2="819.2">
      <stop offset="0.0" stop-color="#ffffff" stop-opacity="0.9490196"/>
      <stop offset="1.0" stop-color="#abd9db"/>
    </linearGradient>
    <linearGradient gradientTransform="matrix(0.0059, 2.0E-4, 3.0E-4, -0.0117, 0.3, -0.45)" gradientUnits="userSpaceOnUse" id="gradient18" spreadMethod="pad" x1="-819.2" x2="819.2">
      <stop offset="0.0" stop-color="#ffffff" stop-opacity="0.9490196"/>
      <stop offset="1.0" stop-color="#809c89"/>
    </linearGradient>
    <linearGradient gradientTransform="matrix(0.0054, 0.0, 0.0, -0.0054, 0.1, -0.45)" gradientUnits="userSpaceOnUse" id="gradient19" spreadMethod="pad" x1="-819.2" x2="819.2">
      <stop offset="0.0" stop-color="#ffffff" stop-opacity="0.9490196"/>
      <stop offset="1.0" stop-color="#9aafb8"/>
    </linearGradient>
    <linearGradient gradientTransform="matrix(-1.0E-4, 0.0025, 0.005, 1.0E-4, -2.7, -0.15)" gradientUnits="userSpaceOnUse" id="gradient20" spreadMethod="pad" x1="-819.2" x2="819.2">
      <stop offset="0.0" stop-color="#ffffff" stop-opacity="0.41960785"/>
      <stop offset="1.0" stop-color="#ffffff" stop-opacity="0.02745098"/>
    </linearGradient>
    <linearGradient gradientTransform="matrix(1.0E-4, -0.0025, 0.005, 1.0E-4, 3.45, -0.05)" gradientUnits="userSpaceOnUse" id="gradient21" spreadMethod="pad" x1="-819.2" x2="819.2">
      <stop offset="0.0" stop-color="#ffffff" stop-opacity="0.13725491"/>
      <stop offset="1.0" stop-color="#ffffff" stop-opacity="0.02745098"/>
    </linearGradient>
    <linearGradient gradientTransform="matrix(0.0064, 2.0E-4, 3.0E-4, -0.0125, 0.6, -4.25)" gradientUnits="userSpaceOnUse" id="gradient22" spreadMethod="pad" x1="-819.2" x2="819.2">
      <stop offset="0.0" stop-color="#ffffff"/>
      <stop offset="1.0" stop-color="#abd9db"/>
    </linearGradient>
    <linearGradient gradientTransform="matrix(1.0E-4, -0.0025, 0.0049, 1.0E-4, 3.65, -0.1)" gradientUnits="userSpaceOnUse" id="gradient23" spreadMethod="pad" x1="-819.2" x2="819.2">
      <stop offset="0.0" stop-color="#ffffff" stop-opacity="0.13725491"/>
      <stop offset="1.0" stop-color="#ffffff" stop-opacity="0.02745098"/>
    </linearGradient>
    <linearGradient gradientTransform="matrix(0.0063, 2.0E-4, 3.0E-4, -0.0125, 0.35, 4.15)" gradientUnits="userSpaceOnUse" id="gradient24" spreadMethod="pad" x1="-819.2" x2="819.2">
      <stop offset="0.0" stop-color="#ffffff"/>
      <stop offset="1.0" stop-color="#abd9db"/>
    </linearGradient>
    <linearGradient gradientTransform="matrix(1.0E-4, -0.0025, 0.0049, 1.0E-4, 4.1, 0.1)" gradientUnits="userSpaceOnUse" id="gradient25" spreadMethod="pad" x1="-819.2" x2="819.2">
      <stop offset="0.0" stop-color="#ffffff" stop-opacity="0.13725491"/>
      <stop offset="1.0" stop-color="#ffffff" stop-opacity="0.02745098"/>
    </linearGradient>
    <linearGradient gradientTransform="matrix(0.0058, 2.0E-4, 3.0E-4, -0.0108, 0.6, -6.8)" gradientUnits="userSpaceOnUse" id="gradient26" spreadMethod="pad" x1="-819.2" x2="819.2">
      <stop offset="0.0" stop-color="#000000" stop-opacity="0.08627451"/>
      <stop offset="1.0" stop-color="#bcd9db" stop-opacity="0.41960785"/>
    </linearGradient>
    <linearGradient gradientTransform="matrix(-0.001, -0.0036, -0.0036, 0.001, 0.55, -6.3)" gradientUnits="userSpaceOnUse" id="gradient27" spreadMethod="pad" x1="-819.2" x2="819.2">
      <stop offset="0.0" stop-color="#ffffff" stop-opacity="0.9490196"/>
      <stop offset="1.0" stop-color="#9aafb8"/>
    </linearGradient>
    <linearGradient gradientTransform="matrix(0.0051, 0.002, 0.002, -0.0051, 0.6, -6.8)" gradientUnits="userSpaceOnUse" id="gradient28" spreadMethod="pad" x1="-819.2" x2="819.2">
      <stop offset="0.0" stop-color="#ffffff" stop-opacity="0.9490196"/>
      <stop offset="1.0" stop-color="#abd9db"/>
    </linearGradient>
    <linearGradient gradientTransform="matrix(0.0058, 2.0E-4, 3.0E-4, -0.0108, 0.6, -6.8)" gradientUnits="userSpaceOnUse" id="gradient29" spreadMethod="pad" x1="-819.2" x2="819.2">
      <stop offset="0.0" stop-color="#ffffff" stop-opacity="0.9490196"/>
      <stop offset="1.0" stop-color="#9aafb8"/>
    </linearGradient>
    <radialGradient cx="0" cy="0" gradientTransform="matrix(0.0058, 0.0214, 0.0218, -0.0057, -3.75, 11.4)" gradientUnits="userSpaceOnUse" id="gradient30" r="819.2" spreadMethod="pad">
      <stop offset="0.0" stop-color="#fbf5e2"/>
      <stop offset="0.07058823529411765" stop-color="#f6f0db"/>
      <stop offset="0.43137254901960786" stop-color="#e3dcc1"/>
      <stop offset="0.7490196078431373" stop-color="#d7d0b1"/>
      <stop offset="1.0" stop-color="#d3ccac"/>
    </radialGradient>
    <radialGradient cx="0" cy="0" gradientTransform="matrix(0.0063, 0.0104, 0.0114, -0.0058, -8.0, 7.05)" gradientUnits="userSpaceOnUse" id="gradient31" r="819.2" spreadMethod="pad">
      <stop offset="0.0" stop-color="#c4ec5c"/>
      <stop offset="1.0" stop-color="#7ba01f"/>
    </radialGradient>
    <radialGradient cx="0" cy="0" gradientTransform="matrix(0.0082, 0.0105, 0.0146, -0.0056, -3.35, 10.15)" gradientUnits="userSpaceOnUse" id="gradient32" r="819.2" spreadMethod="pad">
      <stop offset="0.0" stop-color="#bbabfe"/>
      <stop offset="1.0" stop-color="#7969bc"/>
    </radialGradient>
    <radialGradient cx="0" cy="0" gradientTransform="matrix(0.0079, 0.0092, 0.0145, -0.0076, 5.7, 7.9)" gradientUnits="userSpaceOnUse" id="gradient33" r="819.2" spreadMethod="pad">
      <stop offset="0.0" stop-color="#e9aa78"/>
      <stop offset="1.0" stop-color="#9e5c2c"/>
    </radialGradient>
  </defs>
</svg>
