<?xml version="1.0" encoding="UTF-8" standalone="no"?>
<svg xmlns:xlink="http://www.w3.org/1999/xlink" height="160.9px" width="54.3px" xmlns="http://www.w3.org/2000/svg">
  <g transform="matrix(1.0, 0.0, 0.0, 1.0, 0.0, 0.0)">
    <use height="10.9" transform="matrix(1.0, 0.0, 0.0, 1.0, 6.65, 150.0)" width="32.4" xlink:href="#sprite0"/>
    <use height="7.55" transform="matrix(1.0, 0.0, 0.0, 1.0, 8.4, 152.6)" width="29.15" xlink:href="#sprite1"/>
    <use height="158.8" transform="matrix(1.0, 0.0, 0.0, 1.0, 0.0, 0.0)" width="54.3" xlink:href="#shape2"/>
    <use height="0.7" transform="matrix(1.0, 0.0, 0.0, 1.0, 36.05, 155.15)" width="1.6" xlink:href="#sprite2"/>
    <use height="0.45" transform="matrix(1.0, 0.0, 0.0, 1.0, 33.8, 157.15)" width="1.0" xlink:href="#sprite3"/>
    <use height="0.5" transform="matrix(1.0, 0.0, 0.0, 1.0, 22.7, 160.4)" width="1.45" xlink:href="#sprite4"/>
    <use height="0.3" transform="matrix(1.0, 0.0, 0.0, 1.0, 12.95, 158.1)" width="0.8" xlink:href="#sprite5"/>
    <use height="0.45" transform="matrix(1.0, 0.0, 0.0, 1.0, 7.15, 154.2)" width="1.05" xlink:href="#sprite6"/>
    <use height="0.25" transform="matrix(1.0, 0.0, 0.0, 1.0, 12.05, 157.85)" width="0.45" xlink:href="#sprite7"/>
    <use height="0.45" transform="matrix(1.0, 0.0, 0.0, 1.0, 37.85, 154.6)" width="0.65" xlink:href="#sprite8"/>
  </g>
  <defs>
    <g id="sprite0" transform="matrix(1.0, 0.0, 0.0, 1.0, 0.0, -0.05)">
      <use height="10.9" transform="matrix(1.0, 0.0, 0.0, 1.0, 0.0, 0.05)" width="32.4" xlink:href="#shape0"/>
    </g>
    <g id="shape0" transform="matrix(1.0, 0.0, 0.0, 1.0, 0.0, -0.05)">
      <path d="M31.2 6.2 L29.85 6.55 27.65 6.95 27.1 7.05 27.0 7.4 Q26.5 7.9 25.4 8.05 L23.7 8.3 Q24.35 8.55 24.0 8.9 L23.2 9.5 Q21.95 10.25 20.4 10.45 L18.6 10.7 17.25 10.4 15.9 10.2 Q15.85 10.8 15.1 10.95 L13.85 10.9 11.5 10.45 8.15 9.5 Q7.1 9.05 7.6 8.6 7.25 8.45 7.5 8.1 5.65 7.95 4.8 7.45 4.3 7.1 4.25 6.7 4.2 6.3 4.7 6.0 L3.25 5.9 1.8 5.7 Q0.1 5.4 0.0 4.6 -0.05 4.15 1.05 3.6 L2.45 2.9 2.9 2.35 3.45 1.8 Q3.85 1.55 5.35 1.05 L9.65 0.25 11.5 0.1 Q19.45 -0.3 25.65 1.5 29.85 2.65 31.75 4.0 33.3 5.15 31.2 6.2" fill="#757d7d" fill-rule="evenodd" stroke="none"/>
    </g>
    <g id="sprite1" transform="matrix(1.0, 0.0, 0.0, 1.0, 0.0, 0.05)">
      <use height="7.55" transform="matrix(1.0, 0.0, 0.0, 1.0, 0.0, -0.05)" width="29.15" xlink:href="#shape1"/>
    </g>
    <g id="shape1" transform="matrix(1.0, 0.0, 0.0, 1.0, 0.0, 0.05)">
      <path d="M26.55 3.2 L24.8 3.4 24.2 3.55 23.95 4.1 23.0 5.05 21.75 5.5 20.1 5.8 19.65 6.25 19.05 6.65 19.15 6.75 16.45 7.25 13.65 7.15 12.65 7.25 12.05 7.5 12.3 6.9 10.55 7.2 8.9 7.1 7.6 6.85 Q6.7 6.65 6.45 6.2 L6.25 5.3 Q6.15 4.85 5.7 4.7 L4.5 4.45 Q3.8 4.2 4.2 3.6 3.85 3.6 4.0 3.25 L2.75 2.8 1.15 2.6 Q-0.05 2.6 0.0 2.25 L0.35 1.95 0.8 1.8 Q0.05 1.6 0.1 1.25 0.2 1.05 1.5 0.7 L3.4 0.3 4.65 0.4 5.85 0.35 9.55 0.2 11.25 0.3 18.75 0.55 21.25 0.4 25.3 0.25 27.1 0.7 Q28.25 1.0 28.85 1.45 29.5 1.9 28.7 2.05 L27.45 2.2 27.7 2.5 26.9 2.75 26.55 3.2" fill="#757d7d" fill-rule="evenodd" stroke="none"/>
    </g>
    <g id="shape2" transform="matrix(1.0, 0.0, 0.0, 1.0, 0.0, 0.0)">
      <path d="M37.85 81.85 Q36.85 86.55 33.15 99.4 L26.75 124.2 18.5 156.9 16.3 156.85 Q14.75 156.55 13.95 155.65 13.0 154.55 15.45 139.85 L18.1 125.35 Q18.0 122.8 18.5 120.05 L19.65 114.15 Q20.95 106.7 22.45 101.75 L26.2 89.2 28.05 83.55 Q28.75 82.0 30.15 81.65 L34.9 81.05 Q38.1 80.95 37.85 81.85" fill="url(#gradient0)" fill-rule="evenodd" stroke="none"/>
      <path d="M43.45 33.15 L39.75 57.5 Q38.65 65.35 38.35 69.5 37.8 76.75 35.75 91.75 33.9 105.7 33.55 111.45 33.2 118.5 31.5 126.7 L29.85 133.8 29.1 134.85 Q28.25 135.8 27.45 135.95 25.0 136.35 24.6 129.15 L20.25 55.0 Q19.7 49.9 19.55 39.65 L19.4 23.7 19.1 19.6 Q18.85 16.95 19.1 15.45 19.45 13.4 21.45 11.65 21.65 11.4 25.1 8.85 L29.65 5.55 Q32.25 3.8 34.6 2.85 38.55 1.3 39.8 0.95 43.6 -0.1 45.15 0.85 46.15 1.45 46.25 4.15 L46.15 8.6 Q45.6 18.5 43.45 33.15" fill="url(#gradient1)" fill-rule="evenodd" stroke="none"/>
      <path d="M26.2 44.0 Q27.1 30.35 27.6 28.7 27.85 27.85 28.8 29.35 29.6 30.6 30.05 31.9 L31.8 37.05 32.9 40.4 33.55 42.95 33.45 47.1 32.85 52.5 32.05 59.4 31.4 66.1 Q27.95 97.9 26.55 100.5 25.65 102.1 23.65 101.6 L21.85 100.8 22.8 88.05 23.55 79.6 23.95 73.1 Q24.2 68.3 24.6 64.35 25.5 56.15 26.2 44.0" fill="url(#gradient2)" fill-rule="evenodd" stroke="none"/>
      <path d="M38.95 54.55 Q47.8 63.8 49.05 71.2 49.3 72.7 43.2 92.9 L36.8 114.4 Q36.7 115.05 37.25 114.45 L38.25 113.3 Q39.4 112.2 37.55 118.8 L31.25 139.8 28.1 139.75 Q24.65 139.4 23.35 137.95 22.85 133.7 23.7 120.5 L24.65 108.15 Q24.95 101.35 30.3 80.15 L34.85 61.0 Q36.15 55.65 36.55 54.75 37.4 52.95 38.95 54.55" fill="url(#gradient3)" fill-rule="evenodd" stroke="none"/>
      <path d="M24.7 23.75 Q25.1 25.05 26.3 91.05 L27.45 156.8 Q25.7 157.7 23.6 158.0 19.35 158.7 17.6 156.05 15.8 153.35 14.3 120.75 L13.15 88.65 Q13.0 85.25 12.1 77.8 L10.65 66.65 Q9.85 60.45 9.35 54.75 8.55 46.45 8.95 44.85 9.3 43.4 10.8 40.95 L13.8 35.95 18.55 28.25 Q19.85 26.3 21.9 24.5 24.3 22.4 24.7 23.75" fill="url(#gradient4)" fill-rule="evenodd" stroke="none"/>
      <path d="M15.85 70.8 Q17.05 72.7 17.55 75.35 17.95 77.5 17.8 79.55 L16.95 92.25 Q16.25 104.25 16.55 108.85 L17.4 124.95 17.45 133.55 17.1 154.8 13.65 155.05 Q10.15 154.85 10.1 152.4 6.5 136.0 5.7 134.2 3.3 98.9 2.4 94.6 L1.65 90.6 1.4 89.5 Q1.45 88.95 2.0 88.55 L3.25 87.9 3.4 87.05 3.25 86.2 2.65 81.2 Q2.35 78.35 2.35 76.2 L2.05 67.8 1.8 63.5 Q1.45 62.4 1.5 61.45 1.7 59.6 4.05 60.65 6.75 61.8 10.7 65.3 14.4 68.55 15.85 70.8" fill="url(#gradient5)" fill-rule="evenodd" stroke="none"/>
      <path d="M53.9 87.8 Q54.25 87.95 44.4 121.05 L34.45 154.15 33.7 154.9 31.7 155.05 Q31.35 157.3 27.2 157.15 L23.1 156.55 30.25 131.45 30.15 130.75 33.6 117.1 Q36.5 105.85 37.6 102.5 38.9 98.6 39.6 97.4 40.4 96.05 42.0 95.0 L48.35 90.65 Q53.15 87.45 53.9 87.8" fill="url(#gradient6)" fill-rule="evenodd" stroke="none"/>
      <path d="M35.45 84.0 Q37.7 83.4 40.9 83.05 44.8 82.65 44.65 83.55 L37.7 113.8 Q30.25 145.95 27.9 156.95 25.75 159.6 21.45 158.05 22.1 149.25 23.5 139.25 25.7 123.0 31.25 91.05 31.95 87.1 33.0 85.6 33.75 84.45 35.45 84.0" fill="url(#gradient7)" fill-rule="evenodd" stroke="none"/>
      <path d="M25.15 97.5 Q25.35 97.9 23.45 128.0 L21.45 158.05 Q20.45 158.6 19.25 158.75 16.8 159.05 15.65 157.25 15.4 155.1 14.1 128.6 L12.7 100.7 Q12.65 100.2 13.75 98.55 L15.75 95.9 16.95 94.35 18.3 94.4 21.95 95.65 Q24.7 96.65 25.15 97.5" fill="url(#gradient8)" fill-rule="evenodd" stroke="none"/>
      <path d="M11.25 132.35 L12.05 149.05 11.7 151.2 Q11.15 153.2 10.1 152.3 9.45 150.4 0.5 118.3 0.4 117.9 0.6 117.25 0.9 116.4 1.45 115.8 3.5 113.75 5.0 114.05 L7.75 114.55 Q9.75 114.95 10.2 115.4 10.4 115.6 11.25 132.35" fill="url(#gradient9)" fill-rule="evenodd" stroke="none"/>
      <path d="M2.25 60.8 Q2.5 60.25 4.55 61.05 7.25 62.1 11.0 65.1 14.6 67.95 16.5 71.85 17.45 73.8 17.65 75.15 L16.35 74.05 15.4 73.3 14.85 72.35 14.6 73.7 14.55 73.1 14.3 72.55 13.55 72.1 12.7 71.75 11.25 70.8 10.8 70.7 10.65 71.15 10.65 72.15 10.75 75.55 10.5 73.15 10.25 70.1 Q10.05 69.05 8.85 67.85 L7.8 67.0 6.9 66.35 6.7 67.85 6.45 66.4 6.1 65.8 Q5.7 65.3 5.65 65.5 5.35 66.15 5.45 67.75 L5.55 70.0 5.25 66.65 5.2 65.65 4.9 64.7 3.85 63.65 Q1.95 61.5 2.25 60.8" fill="url(#gradient10)" fill-rule="evenodd" stroke="none"/>
      <path d="M22.8 23.55 L24.0 23.2 Q24.7 23.15 24.95 23.75 25.2 24.5 24.95 25.95 L24.7 24.75 Q24.15 25.1 24.05 27.05 L23.9 29.65 23.55 26.55 Q20.9 29.15 19.65 31.8 L18.8 33.7 Q18.05 35.55 18.1 35.95 L18.05 34.55 17.75 36.15 17.65 37.8 17.55 41.95 17.35 39.2 17.1 35.5 16.5 36.35 16.05 37.3 16.05 36.55 Q14.8 38.25 14.55 39.4 L14.45 38.15 13.0 39.7 Q12.1 40.65 11.75 41.35 10.5 43.9 10.65 44.15 10.5 43.95 10.5 42.55 10.2 43.35 10.15 44.9 L10.1 47.35 9.95 43.45 9.25 45.45 8.6 47.15 8.6 46.65 Q8.75 44.55 9.5 43.0 L11.65 38.9 14.4 33.95 15.95 31.55 16.7 30.55 19.55 26.65 Q21.45 24.2 22.8 23.55" fill="url(#gradient11)" fill-rule="evenodd" stroke="none"/>
      <path d="M17.85 93.9 L19.95 94.35 Q21.15 94.75 22.35 95.5 L24.4 96.8 Q25.7 97.8 25.55 98.55 L25.35 98.4 25.15 99.2 24.85 98.6 Q24.75 99.3 25.05 100.7 L24.45 99.3 23.7 97.85 23.6 98.3 23.05 97.85 22.3 97.95 20.6 98.1 19.95 98.25 19.25 98.2 Q18.9 98.2 18.65 98.55 L18.4 98.2 18.15 98.85 18.0 98.3 Q17.45 98.35 16.55 98.95 L15.3 99.85 Q13.7 101.1 14.0 101.4 13.75 101.15 13.75 100.6 13.55 100.95 13.55 102.8 L13.35 101.3 Q12.9 101.75 12.65 101.45 12.45 101.2 12.5 100.7 12.55 99.6 13.25 98.4 14.2 96.65 15.7 95.15 L16.4 94.25 17.25 91.4 Q17.1 93.65 17.85 93.9" fill="url(#gradient12)" fill-rule="evenodd" stroke="none"/>
      <path d="M37.0 54.2 L37.3 53.95 Q38.1 53.55 39.25 54.3 L40.85 55.65 Q42.7 57.4 45.7 61.6 48.1 64.9 48.9 68.55 L49.25 70.95 Q49.3 72.55 48.7 75.35 48.9 71.9 48.6 70.3 L48.2 70.45 48.3 69.35 48.2 68.25 47.8 67.65 47.3 67.1 47.0 66.3 46.55 65.7 46.35 64.85 46.05 64.05 Q45.3 63.0 45.1 63.95 L44.65 62.95 44.05 62.0 Q42.85 60.7 42.0 60.55 L41.65 61.9 41.55 60.5 40.55 59.1 39.25 57.9 38.4 56.95 37.45 56.2 Q37.05 56.5 36.7 57.5 L36.8 55.8 Q36.35 56.55 35.65 59.3 35.6 58.45 36.1 56.35 36.6 54.55 37.0 54.2" fill="url(#gradient13)" fill-rule="evenodd" stroke="none"/>
      <path d="M27.6 28.0 L29.0 27.85 Q29.75 28.0 30.2 28.55 31.95 30.75 33.0 35.8 L33.95 40.3 Q34.25 42.1 34.05 44.55 L33.7 48.8 Q33.55 47.9 33.65 46.15 L33.6 43.5 33.3 44.1 Q33.2 42.0 31.9 39.35 L31.6 41.8 31.4 44.25 31.0 40.65 30.75 37.05 Q30.4 37.95 30.3 39.65 L30.25 37.25 30.05 36.35 29.7 35.6 Q29.55 35.2 29.65 34.45 L29.65 33.35 29.15 32.65 28.6 31.9 28.3 30.9 27.95 30.0 Q27.0 30.7 27.0 32.5 L26.75 30.35 Q26.65 29.0 27.15 28.35 L27.6 28.0" fill="url(#gradient14)" fill-rule="evenodd" stroke="none"/>
      <path d="M6.1 87.4 L8.15 87.85 6.8 88.1 Q5.9 88.35 5.95 88.85 5.9 88.15 4.55 88.6 3.4 89.7 3.2 89.45 2.65 89.7 2.5 90.25 L2.3 89.65 2.0 90.95 2.1 92.45 1.65 90.75 1.45 90.05 1.4 89.35 1.75 88.7 2.2 88.05 Q3.0 86.95 3.45 86.75 3.85 86.6 6.1 87.4" fill="url(#gradient15)" fill-rule="evenodd" stroke="none"/>
      <path d="M47.75 89.0 Q49.75 87.7 50.95 87.2 52.75 86.6 53.4 86.7 54.55 86.95 54.2 88.9 53.9 90.4 53.2 91.45 L53.35 90.7 53.35 89.9 Q53.1 89.3 52.05 89.6 L50.55 90.15 Q49.6 90.55 48.8 91.05 L47.65 91.8 46.8 92.7 46.75 92.4 Q46.0 92.4 45.05 93.5 44.3 94.4 43.9 95.3 L43.85 94.8 43.0 96.35 43.15 95.1 42.15 96.5 41.55 98.05 41.7 96.75 Q42.1 93.65 43.55 92.05 L44.9 90.8 46.3 89.85 47.75 89.0" fill="url(#gradient16)" fill-rule="evenodd" stroke="none"/>
      <path d="M32.35 86.3 L32.7 85.5 33.25 84.6 Q33.85 83.95 34.7 83.7 L39.7 82.6 44.25 82.5 Q44.9 82.6 45.05 83.2 L45.1 83.55 44.95 83.8 44.7 83.85 Q44.55 83.85 44.25 84.15 L44.25 83.8 43.9 84.75 43.95 83.95 43.45 84.05 42.85 84.15 41.2 84.35 Q40.3 84.35 40.0 84.65 39.7 84.9 39.5 85.6 L39.65 84.5 39.4 84.65 39.3 84.35 38.85 84.65 37.5 84.9 36.3 85.25 36.35 85.15 35.8 85.3 34.8 86.0 Q34.25 86.4 34.05 87.05 L34.05 86.5 33.05 89.1 33.3 87.25 33.4 86.7 33.35 86.3 32.95 86.9 32.95 86.5 33.05 86.1 Q32.5 86.3 32.2 86.8 L32.35 86.35 32.35 86.3" fill="url(#gradient17)" fill-rule="evenodd" stroke="none"/>
      <path d="M40.5 4.55 L39.1 5.1 Q38.15 5.45 38.35 4.7 38.0 5.15 37.25 5.45 L35.95 5.9 33.3 7.05 Q30.65 8.15 30.3 8.4 L29.45 9.15 Q28.85 9.65 28.45 9.55 L28.1 10.3 27.9 9.85 26.45 11.2 Q25.6 12.05 25.25 12.8 L25.8 11.1 22.1 15.15 20.75 16.75 Q19.95 17.9 20.15 18.65 19.95 18.0 20.05 16.75 L19.55 19.05 19.5 20.4 19.25 21.55 19.1 19.65 Q18.65 16.7 18.75 15.55 18.8 14.5 19.25 13.6 L20.4 11.9 Q21.45 10.45 24.75 8.0 28.05 5.5 30.8 4.15 L35.3 1.9 Q37.35 0.95 39.8 0.35 43.5 -0.55 45.3 0.85 46.25 1.7 46.35 3.1 46.7 6.7 46.15 8.3 L45.3 5.8 44.45 8.95 43.8 12.8 43.65 9.85 43.35 6.9 Q42.85 7.5 42.6 8.7 L42.2 10.6 42.2 7.8 Q42.25 5.95 41.85 5.05 L41.55 5.8 41.35 6.55 Q41.4 5.7 41.1 4.8 L40.7 4.9 40.5 4.55" fill="url(#gradient18)" fill-rule="evenodd" stroke="none"/>
      <path d="M6.15 113.7 L8.7 114.4 9.95 114.45 Q10.7 114.45 10.9 115.15 11.2 116.1 10.85 118.55 L10.35 116.4 10.0 116.9 Q9.75 116.15 8.7 116.5 7.65 116.8 7.5 117.4 L5.8 117.55 Q4.9 117.85 4.45 118.55 L4.15 118.15 Q3.85 118.4 3.75 118.95 3.7 117.9 2.85 118.65 2.25 119.15 2.0 120.75 1.65 120.25 1.55 119.4 1.35 119.9 1.45 120.9 L1.5 122.4 1.0 120.75 0.5 119.1 0.5 121.0 Q-0.1 119.6 0.0 117.8 0.1 116.6 1.5 115.15 2.95 113.65 4.15 113.65 L4.4 113.7 4.75 113.85 6.15 113.7" fill="url(#gradient19)" fill-rule="evenodd" stroke="none"/>
    </g>
    <linearGradient gradientTransform="matrix(0.0086, 0.0021, 0.0021, -0.0086, 22.45, 117.95)" gradientUnits="userSpaceOnUse" id="gradient0" spreadMethod="pad" x1="-819.2" x2="819.2">
      <stop offset="0.0" stop-color="#8eb7ba"/>
      <stop offset="0.054901960784313725" stop-color="#84aeb5"/>
      <stop offset="0.23529411764705882" stop-color="#6995a7"/>
      <stop offset="0.39215686274509803" stop-color="#59869e"/>
      <stop offset="0.5137254901960784" stop-color="#54819b"/>
      <stop offset="0.6352941176470588" stop-color="#58859c"/>
      <stop offset="0.7686274509803922" stop-color="#65919c"/>
      <stop offset="0.9058823529411765" stop-color="#7ba59d"/>
      <stop offset="1.0" stop-color="#8eb79e"/>
    </linearGradient>
    <linearGradient gradientTransform="matrix(0.0159, 7.0E-4, 7.0E-4, -0.0159, 28.55, 67.85)" gradientUnits="userSpaceOnUse" id="gradient1" spreadMethod="pad" x1="-819.2" x2="819.2">
      <stop offset="0.0" stop-color="#8eb7ba"/>
      <stop offset="0.10980392156862745" stop-color="#77a1a9"/>
      <stop offset="0.26666666666666666" stop-color="#5c8695"/>
      <stop offset="0.40784313725490196" stop-color="#4c7689"/>
      <stop offset="0.5137254901960784" stop-color="#467185"/>
      <stop offset="0.6235294117647059" stop-color="#4b7586"/>
      <stop offset="0.7411764705882353" stop-color="#58828b"/>
      <stop offset="0.8666666666666667" stop-color="#6e9793"/>
      <stop offset="0.9921568627450981" stop-color="#8cb59e"/>
      <stop offset="1.0" stop-color="#8eb79e"/>
    </linearGradient>
    <linearGradient gradientTransform="matrix(-0.0054, 3.0E-4, -4.0E-4, -0.0078, 29.75, 65.65)" gradientUnits="userSpaceOnUse" id="gradient2" spreadMethod="pad" x1="-819.2" x2="819.2">
      <stop offset="0.0" stop-color="#8eb7ba"/>
      <stop offset="0.10980392156862745" stop-color="#77a1a9"/>
      <stop offset="0.26666666666666666" stop-color="#5c8695"/>
      <stop offset="0.40784313725490196" stop-color="#4c7689"/>
      <stop offset="0.5137254901960784" stop-color="#467185"/>
      <stop offset="0.6235294117647059" stop-color="#4b7586"/>
      <stop offset="0.7411764705882353" stop-color="#58828b"/>
      <stop offset="0.8666666666666667" stop-color="#6e9793"/>
      <stop offset="0.9921568627450981" stop-color="#8cb59e"/>
      <stop offset="1.0" stop-color="#8eb79e"/>
    </linearGradient>
    <linearGradient gradientTransform="matrix(0.0138, 0.0036, 0.0036, -0.0138, 31.75, 96.55)" gradientUnits="userSpaceOnUse" id="gradient3" spreadMethod="pad" x1="-819.2" x2="819.2">
      <stop offset="0.0" stop-color="#8eb7ba"/>
      <stop offset="0.10980392156862745" stop-color="#77a1a9"/>
      <stop offset="0.26666666666666666" stop-color="#5c8695"/>
      <stop offset="0.40784313725490196" stop-color="#4c7689"/>
      <stop offset="0.5137254901960784" stop-color="#467185"/>
      <stop offset="0.6235294117647059" stop-color="#4b7586"/>
      <stop offset="0.7411764705882353" stop-color="#58828b"/>
      <stop offset="0.8666666666666667" stop-color="#6e9793"/>
      <stop offset="0.9921568627450981" stop-color="#8cb59e"/>
      <stop offset="1.0" stop-color="#8eb79e"/>
    </linearGradient>
    <linearGradient gradientTransform="matrix(0.0093, -3.0E-4, -3.0E-4, -0.0093, 18.8, 90.85)" gradientUnits="userSpaceOnUse" id="gradient4" spreadMethod="pad" x1="-819.2" x2="819.2">
      <stop offset="0.0" stop-color="#8eb7ba"/>
      <stop offset="0.054901960784313725" stop-color="#84aeb5"/>
      <stop offset="0.23529411764705882" stop-color="#6995a7"/>
      <stop offset="0.39215686274509803" stop-color="#59869e"/>
      <stop offset="0.5137254901960784" stop-color="#54819b"/>
      <stop offset="0.6352941176470588" stop-color="#58859c"/>
      <stop offset="0.7686274509803922" stop-color="#65919c"/>
      <stop offset="0.9058823529411765" stop-color="#7ba59d"/>
      <stop offset="1.0" stop-color="#8eb79e"/>
    </linearGradient>
    <linearGradient gradientTransform="matrix(-0.0088, 4.0E-4, 4.0E-4, 0.0088, 11.0, 107.6)" gradientUnits="userSpaceOnUse" id="gradient5" spreadMethod="pad" x1="-819.2" x2="819.2">
      <stop offset="0.0" stop-color="#8eb7ba"/>
      <stop offset="0.054901960784313725" stop-color="#84aeb5"/>
      <stop offset="0.23529411764705882" stop-color="#6995a7"/>
      <stop offset="0.39215686274509803" stop-color="#59869e"/>
      <stop offset="0.5137254901960784" stop-color="#54819b"/>
      <stop offset="0.6352941176470588" stop-color="#58859c"/>
      <stop offset="0.7686274509803922" stop-color="#65919c"/>
      <stop offset="0.9058823529411765" stop-color="#7ba59d"/>
      <stop offset="1.0" stop-color="#8eb79e"/>
    </linearGradient>
    <linearGradient gradientTransform="matrix(-0.0071, -0.0023, -0.0023, 0.0071, 38.15, 122.05)" gradientUnits="userSpaceOnUse" id="gradient6" spreadMethod="pad" x1="-819.2" x2="819.2">
      <stop offset="0.0" stop-color="#8eb7ba"/>
      <stop offset="0.054901960784313725" stop-color="#84aeb5"/>
      <stop offset="0.23529411764705882" stop-color="#6995a7"/>
      <stop offset="0.39215686274509803" stop-color="#59869e"/>
      <stop offset="0.5137254901960784" stop-color="#54819b"/>
      <stop offset="0.6352941176470588" stop-color="#58859c"/>
      <stop offset="0.7686274509803922" stop-color="#65919c"/>
      <stop offset="0.9058823529411765" stop-color="#7ba59d"/>
      <stop offset="1.0" stop-color="#8eb79e"/>
    </linearGradient>
    <linearGradient gradientTransform="matrix(0.007, 0.0014, 0.0014, -0.007, 30.8, 120.15)" gradientUnits="userSpaceOnUse" id="gradient7" spreadMethod="pad" x1="-819.2" x2="819.2">
      <stop offset="0.0" stop-color="#8eb7ba"/>
      <stop offset="0.054901960784313725" stop-color="#84aeb5"/>
      <stop offset="0.23529411764705882" stop-color="#6995a7"/>
      <stop offset="0.39215686274509803" stop-color="#59869e"/>
      <stop offset="0.5137254901960784" stop-color="#54819b"/>
      <stop offset="0.6352941176470588" stop-color="#58859c"/>
      <stop offset="0.7686274509803922" stop-color="#65919c"/>
      <stop offset="0.9058823529411765" stop-color="#7ba59d"/>
      <stop offset="1.0" stop-color="#8eb79e"/>
    </linearGradient>
    <linearGradient gradientTransform="matrix(0.0063, -2.0E-4, -2.0E-4, -0.0063, 20.6, 126.35)" gradientUnits="userSpaceOnUse" id="gradient8" spreadMethod="pad" x1="-819.2" x2="819.2">
      <stop offset="0.0" stop-color="#8eb7ba"/>
      <stop offset="0.10980392156862745" stop-color="#77a1a9"/>
      <stop offset="0.26666666666666666" stop-color="#5c8695"/>
      <stop offset="0.40784313725490196" stop-color="#4c7689"/>
      <stop offset="0.5137254901960784" stop-color="#467185"/>
      <stop offset="0.6235294117647059" stop-color="#4b7586"/>
      <stop offset="0.7411764705882353" stop-color="#58828b"/>
      <stop offset="0.8666666666666667" stop-color="#6e9793"/>
      <stop offset="0.9921568627450981" stop-color="#8cb59e"/>
      <stop offset="1.0" stop-color="#8eb79e"/>
    </linearGradient>
    <linearGradient gradientTransform="matrix(0.0063, -6.0E-4, -6.0E-4, -0.0063, 8.0, 133.25)" gradientUnits="userSpaceOnUse" id="gradient9" spreadMethod="pad" x1="-819.2" x2="819.2">
      <stop offset="0.0" stop-color="#8eb7ba"/>
      <stop offset="0.10980392156862745" stop-color="#77a1a9"/>
      <stop offset="0.26666666666666666" stop-color="#5c8695"/>
      <stop offset="0.40784313725490196" stop-color="#4c7689"/>
      <stop offset="0.5137254901960784" stop-color="#467185"/>
      <stop offset="0.6235294117647059" stop-color="#4b7586"/>
      <stop offset="0.7411764705882353" stop-color="#58828b"/>
      <stop offset="0.8666666666666667" stop-color="#6e9793"/>
      <stop offset="0.9921568627450981" stop-color="#8cb59e"/>
      <stop offset="1.0" stop-color="#8eb79e"/>
    </linearGradient>
    <linearGradient gradientTransform="matrix(0.0012, -0.0035, -0.0035, -0.0012, 10.1, 67.55)" gradientUnits="userSpaceOnUse" id="gradient10" spreadMethod="pad" x1="-819.2" x2="819.2">
      <stop offset="0.0" stop-color="#b1c1c6"/>
      <stop offset="0.050980392156862744" stop-color="#a6bbc2"/>
      <stop offset="0.27450980392156865" stop-color="#77a2b4"/>
      <stop offset="0.49019607843137253" stop-color="#528eaa"/>
      <stop offset="0.6901960784313725" stop-color="#3980a2"/>
      <stop offset="0.8666666666666667" stop-color="#2a779d"/>
      <stop offset="1.0" stop-color="#25749c"/>
    </linearGradient>
    <linearGradient gradientTransform="matrix(0.0016, -0.0089, -0.0089, -0.0016, 15.7, 41.85)" gradientUnits="userSpaceOnUse" id="gradient11" spreadMethod="pad" x1="-819.2" x2="819.2">
      <stop offset="0.0" stop-color="#b1c1c6"/>
      <stop offset="0.050980392156862744" stop-color="#a6bbc2"/>
      <stop offset="0.27450980392156865" stop-color="#77a2b4"/>
      <stop offset="0.49019607843137253" stop-color="#528eaa"/>
      <stop offset="0.6901960784313725" stop-color="#3980a2"/>
      <stop offset="0.8666666666666667" stop-color="#2a779d"/>
      <stop offset="1.0" stop-color="#25749c"/>
    </linearGradient>
    <linearGradient gradientTransform="matrix(0.0015, -0.0044, -0.0036, -0.0012, 20.2, 96.8)" gradientUnits="userSpaceOnUse" id="gradient12" spreadMethod="pad" x1="-819.2" x2="819.2">
      <stop offset="0.0" stop-color="#b1c1c6"/>
      <stop offset="0.050980392156862744" stop-color="#a6bbc2"/>
      <stop offset="0.27450980392156865" stop-color="#77a2b4"/>
      <stop offset="0.49019607843137253" stop-color="#528eaa"/>
      <stop offset="0.6901960784313725" stop-color="#3980a2"/>
      <stop offset="0.8666666666666667" stop-color="#2a779d"/>
      <stop offset="1.0" stop-color="#25749c"/>
    </linearGradient>
    <linearGradient gradientTransform="matrix(0.0018, -0.005, -0.005, -0.0018, 43.6, 62.35)" gradientUnits="userSpaceOnUse" id="gradient13" spreadMethod="pad" x1="-819.2" x2="819.2">
      <stop offset="0.0" stop-color="#b1c1c6"/>
      <stop offset="0.050980392156862744" stop-color="#a6bbc2"/>
      <stop offset="0.27450980392156865" stop-color="#77a2b4"/>
      <stop offset="0.49019607843137253" stop-color="#528eaa"/>
      <stop offset="0.6901960784313725" stop-color="#3980a2"/>
      <stop offset="0.8666666666666667" stop-color="#2a779d"/>
      <stop offset="1.0" stop-color="#25749c"/>
    </linearGradient>
    <linearGradient gradientTransform="matrix(0.0019, -0.0055, -0.0055, -0.0019, 31.3, 35.85)" gradientUnits="userSpaceOnUse" id="gradient14" spreadMethod="pad" x1="-819.2" x2="819.2">
      <stop offset="0.0" stop-color="#b1c1c6"/>
      <stop offset="0.050980392156862744" stop-color="#a6bbc2"/>
      <stop offset="0.27450980392156865" stop-color="#77a2b4"/>
      <stop offset="0.49019607843137253" stop-color="#528eaa"/>
      <stop offset="0.6901960784313725" stop-color="#3980a2"/>
      <stop offset="0.8666666666666667" stop-color="#2a779d"/>
      <stop offset="1.0" stop-color="#25749c"/>
    </linearGradient>
    <linearGradient gradientTransform="matrix(6.0E-4, -0.0019, -0.0019, -6.0E-4, 4.6, 89.1)" gradientUnits="userSpaceOnUse" id="gradient15" spreadMethod="pad" x1="-819.2" x2="819.2">
      <stop offset="0.0" stop-color="#b1c1c6"/>
      <stop offset="0.050980392156862744" stop-color="#a6bbc2"/>
      <stop offset="0.27450980392156865" stop-color="#77a2b4"/>
      <stop offset="0.49019607843137253" stop-color="#528eaa"/>
      <stop offset="0.6901960784313725" stop-color="#3980a2"/>
      <stop offset="0.8666666666666667" stop-color="#2a779d"/>
      <stop offset="1.0" stop-color="#25749c"/>
    </linearGradient>
    <linearGradient gradientTransform="matrix(-0.0017, -0.0063, -0.0063, 0.0017, 48.2, 93.95)" gradientUnits="userSpaceOnUse" id="gradient16" spreadMethod="pad" x1="-819.2" x2="819.2">
      <stop offset="0.0" stop-color="#b1c1c6"/>
      <stop offset="0.050980392156862744" stop-color="#a6bbc2"/>
      <stop offset="0.27450980392156865" stop-color="#77a2b4"/>
      <stop offset="0.49019607843137253" stop-color="#528eaa"/>
      <stop offset="0.6901960784313725" stop-color="#3980a2"/>
      <stop offset="0.8666666666666667" stop-color="#2a779d"/>
      <stop offset="1.0" stop-color="#25749c"/>
    </linearGradient>
    <linearGradient gradientTransform="matrix(-0.0011, -0.0036, -0.0036, 0.0011, 37.9, 83.6)" gradientUnits="userSpaceOnUse" id="gradient17" spreadMethod="pad" x1="-819.2" x2="819.2">
      <stop offset="0.0" stop-color="#b1c1c6"/>
      <stop offset="0.050980392156862744" stop-color="#a6bbc2"/>
      <stop offset="0.27450980392156865" stop-color="#77a2b4"/>
      <stop offset="0.49019607843137253" stop-color="#528eaa"/>
      <stop offset="0.6901960784313725" stop-color="#3980a2"/>
      <stop offset="0.8666666666666667" stop-color="#2a779d"/>
      <stop offset="1.0" stop-color="#25749c"/>
    </linearGradient>
    <linearGradient gradientTransform="matrix(0.0016, -0.0086, -0.0086, -0.0016, 32.45, 11.7)" gradientUnits="userSpaceOnUse" id="gradient18" spreadMethod="pad" x1="-819.2" x2="819.2">
      <stop offset="0.0" stop-color="#b1c1c6"/>
      <stop offset="0.050980392156862744" stop-color="#a6bbc2"/>
      <stop offset="0.27450980392156865" stop-color="#77a2b4"/>
      <stop offset="0.49019607843137253" stop-color="#528eaa"/>
      <stop offset="0.6901960784313725" stop-color="#3980a2"/>
      <stop offset="0.8666666666666667" stop-color="#2a779d"/>
      <stop offset="1.0" stop-color="#25749c"/>
    </linearGradient>
    <linearGradient gradientTransform="matrix(0.0013, -0.0046, -0.0046, -0.0013, 5.75, 117.0)" gradientUnits="userSpaceOnUse" id="gradient19" spreadMethod="pad" x1="-819.2" x2="819.2">
      <stop offset="0.0" stop-color="#b1c1c6"/>
      <stop offset="0.050980392156862744" stop-color="#a6bbc2"/>
      <stop offset="0.27450980392156865" stop-color="#77a2b4"/>
      <stop offset="0.49019607843137253" stop-color="#528eaa"/>
      <stop offset="0.6901960784313725" stop-color="#3980a2"/>
      <stop offset="0.8666666666666667" stop-color="#2a779d"/>
      <stop offset="1.0" stop-color="#25749c"/>
    </linearGradient>
    <g id="sprite2" transform="matrix(1.0, 0.0, 0.0, 1.0, 0.0, 0.0)">
      <use height="0.3" transform="matrix(2.0, 0.0, 0.0, 2.3333, 0.0, 0.0)" width="0.8" xlink:href="#shape3"/>
    </g>
    <g id="shape3" transform="matrix(1.0, 0.0, 0.0, 1.0, 0.0, 0.0)">
      <path d="M0.8 0.15 Q0.8 0.3 0.4 0.3 L0.0 0.15 Q0.0 0.0 0.4 0.0 0.8 0.0 0.8 0.15" fill="#757d7d" fill-rule="evenodd" stroke="none"/>
    </g>
    <g id="sprite3" transform="matrix(1.0, 0.0, 0.0, 1.0, 0.0, 0.0)">
      <use height="0.3" transform="matrix(1.25, 0.0, 0.0, 1.5, 0.0, 0.0)" width="0.8" xlink:href="#shape3"/>
    </g>
    <g id="sprite4" transform="matrix(1.0, 0.0, 0.0, 1.0, 0.0, 0.0)">
      <use height="0.3" transform="matrix(1.8125, 0.0, 0.0, 1.6667, 0.0, 0.0)" width="0.8" xlink:href="#shape3"/>
    </g>
    <g id="sprite5" transform="matrix(1.0, 0.0, 0.0, 1.0, 0.0, 0.0)">
      <use height="0.3" transform="matrix(1.0, 0.0, 0.0, 1.0, 0.0, 0.0)" width="0.8" xlink:href="#shape3"/>
    </g>
    <g id="sprite6" transform="matrix(1.0, 0.0, 0.0, 1.0, 0.0, 0.0)">
      <use height="0.3" transform="matrix(1.3125, 0.0, 0.0, 1.5, 0.0, 0.0)" width="0.8" xlink:href="#shape3"/>
    </g>
    <g id="sprite7" transform="matrix(1.0, 0.0, 0.0, 1.0, 0.0, 0.0)">
      <use height="0.3" transform="matrix(0.5625, 0.0, 0.0, 0.8333, 0.0, 0.0)" width="0.8" xlink:href="#shape3"/>
    </g>
    <g id="sprite8" transform="matrix(1.0, 0.0, 0.0, 1.0, 0.0, 0.05)">
      <use height="0.3" transform="matrix(0.8125, 0.0, 0.0, 1.5, 0.0, -0.05)" width="0.8" xlink:href="#shape3"/>
    </g>
  </defs>
</svg>
