<?xml version="1.0" encoding="UTF-8" standalone="no"?>
<svg xmlns:xlink="http://www.w3.org/1999/xlink" height="28.85px" width="118.0px" xmlns="http://www.w3.org/2000/svg">
  <g transform="matrix(1.0, 0.0, 0.0, 1.0, 0.0, 0.0)">
    <use height="28.85" transform="matrix(1.0, 0.0, 0.0, 1.0, 0.0, 0.0)" width="118.0" xlink:href="#shape0"/>
  </g>
  <defs>
    <g id="shape0" transform="matrix(1.0, 0.0, 0.0, 1.0, 0.0, 0.0)">
      <path d="M97.35 15.95 L84.3 17.8 Q71.2 14.5 62.1 9.8 54.8 6.0 46.45 6.55 40.3 6.9 30.05 10.2 20.3 13.3 12.4 17.3 L9.7 16.8 7.45 16.45 Q-3.45 16.55 1.65 14.7 L15.25 9.6 Q23.8 6.4 30.5 4.25 41.1 0.9 48.55 0.2 58.6 -0.7 66.2 2.55 L81.1 8.9 Q88.05 11.6 94.1 12.95 101.25 14.5 100.0 15.4 L97.35 15.95" fill="url(#gradient0)" fill-rule="evenodd" stroke="none"/>
      <path d="M46.45 6.55 Q54.8 6.0 62.1 9.8 71.2 14.5 84.3 17.8 77.25 18.45 73.85 19.45 64.7 22.25 57.8 23.3 46.1 25.0 37.1 22.65 20.45 18.3 12.4 17.3 20.3 13.3 30.05 10.2 40.3 6.9 46.45 6.55" fill="url(#gradient1)" fill-rule="evenodd" stroke="none"/>
      <path d="M46.45 6.55 Q54.8 6.0 62.1 9.8 71.2 14.5 84.3 17.8 L78.7 18.6 73.85 19.45 54.45 23.45 Q45.75 24.9 37.1 22.65 20.45 18.3 12.4 17.3 20.3 13.3 30.05 10.2 40.3 6.9 46.45 6.55" fill="url(#gradient2)" fill-rule="evenodd" stroke="none"/>
      <path d="M116.5 26.25 Q117.9 26.8 118.0 27.1 118.1 27.45 116.55 27.4 L104.1 28.6 Q97.95 29.45 88.45 27.25 L82.05 26.55 78.05 26.35 77.15 26.0 Q76.8 25.6 79.85 25.25 88.95 24.2 93.25 22.85 96.35 21.9 99.9 22.15 L106.85 23.35 Q111.7 24.5 116.5 26.25" fill="url(#gradient3)" fill-rule="evenodd" stroke="none"/>
    </g>
    <linearGradient gradientTransform="matrix(0.0019, 0.1538, 0.1908, -0.0023, 50.5, 36.8)" gradientUnits="userSpaceOnUse" id="gradient0" spreadMethod="pad" x1="-819.2" x2="819.2">
      <stop offset="0.0" stop-color="#00140c"/>
      <stop offset="0.40784313725490196" stop-color="#217387"/>
      <stop offset="0.792156862745098" stop-color="#4baba7"/>
      <stop offset="1.0" stop-color="#52c482"/>
    </linearGradient>
    <linearGradient gradientTransform="matrix(0.002, 0.1585, 0.1966, -0.0024, 48.75, 37.35)" gradientUnits="userSpaceOnUse" id="gradient1" spreadMethod="pad" x1="-819.2" x2="819.2">
      <stop offset="0.0" stop-color="#52c482"/>
      <stop offset="0.20784313725490197" stop-color="#4baba7"/>
      <stop offset="0.592156862745098" stop-color="#217387"/>
      <stop offset="1.0" stop-color="#00140c"/>
    </linearGradient>
    <linearGradient gradientTransform="matrix(0.0011, 0.0909, 0.1128, -0.0014, 47.85, -6.8)" gradientUnits="userSpaceOnUse" id="gradient2" spreadMethod="pad" x1="-819.2" x2="819.2">
      <stop offset="0.0" stop-color="#00140c"/>
      <stop offset="0.40784313725490196" stop-color="#217387"/>
      <stop offset="0.792156862745098" stop-color="#4baba7"/>
      <stop offset="1.0" stop-color="#52c482"/>
    </linearGradient>
    <linearGradient gradientTransform="matrix(0.0084, -0.081, 0.0642, 0.0077, 97.55, 26.5)" gradientUnits="userSpaceOnUse" id="gradient3" spreadMethod="pad" x1="-819.2" x2="819.2">
      <stop offset="0.0" stop-color="#00140c"/>
      <stop offset="0.40784313725490196" stop-color="#217387"/>
      <stop offset="0.792156862745098" stop-color="#4baba7"/>
      <stop offset="1.0" stop-color="#52c482"/>
    </linearGradient>
  </defs>
</svg>
