<?xml version="1.0" encoding="UTF-8" standalone="no"?>
<svg xmlns:xlink="http://www.w3.org/1999/xlink" height="50.3px" width="66.65px" xmlns="http://www.w3.org/2000/svg">
  <g transform="matrix(1.0, 0.0, 0.0, 1.0, 0.0, 0.0)">
    <use height="14.6" transform="matrix(1.0, 0.0, 0.0, 1.0, 16.5, 28.2)" width="33.6" xlink:href="#shape0"/>
    <use height="4.1" transform="matrix(0.75, 0.0, 0.0, 0.75, 32.4125, 35.15)" width="7.35" xlink:href="#sprite0"/>
    <use height="3.7" transform="matrix(1.0, 0.0, 0.0, 1.0, 37.35, 36.2)" width="2.85" xlink:href="#shape2"/>
    <use height="2.1" transform="matrix(0.75, 0.0, 0.0, 0.75, 33.3, 35.35)" width="4.2" xlink:href="#sprite1"/>
    <use height="8.45" transform="matrix(1.0, 0.0, 0.0, 1.0, 24.2, 27.25)" width="9.25" xlink:href="#shape4"/>
    <use height="4.75" transform="matrix(0.75, 0.0, 0.0, 0.75, 24.9, 27.6)" width="7.65" xlink:href="#sprite2"/>
    <use height="2.6" transform="matrix(0.75, 0.0, 0.0, 0.75, 25.65, 27.85)" width="4.35" xlink:href="#sprite3"/>
    <use height="12.85" transform="matrix(1.0, 0.0, 0.0, 1.0, 26.95, 27.55)" width="21.85" xlink:href="#shape7"/>
    <use height="4.1" transform="matrix(0.75, 0.0, 0.0, 0.75, 41.25, 32.75)" width="7.35" xlink:href="#sprite4"/>
    <use height="3.6" transform="matrix(1.0, 0.0, 0.0, 1.0, 40.35, 35.85)" width="2.8" xlink:href="#shape9"/>
    <use height="2.15" transform="matrix(0.75, 0.0, 0.0, 0.75, 41.95, 32.95)" width="4.2" xlink:href="#sprite5"/>
    <use height="8.0" transform="matrix(1.0, 0.0, 0.0, 1.0, 25.35, 34.5)" width="8.2" xlink:href="#shape10"/>
    <use height="1.7" transform="matrix(0.75, 0.0, 0.0, 0.75, 26.7625, 37.9)" width="1.0" xlink:href="#sprite6"/>
    <use height="1.55" transform="matrix(0.75, 0.0, 0.0, 0.75, 25.675, 36.6)" width="1.2" xlink:href="#sprite7"/>
    <use height="1.7" transform="matrix(0.75, 0.0, 0.0, 0.75, 25.65, 39.4625)" width="0.75" xlink:href="#sprite8"/>
    <use height="1.15" transform="matrix(0.75, 0.0, 0.0, 0.75, 27.0, 34.75)" width="1.35" xlink:href="#sprite9"/>
    <use height="1.4" transform="matrix(0.75, 0.0, 0.0, 0.75, 27.5, 35.8375)" width="1.4" xlink:href="#sprite10"/>
    <use height="1.7" transform="matrix(0.75, 0.0, 0.0, 0.75, 29.4, 37.5)" width="0.95" xlink:href="#sprite11"/>
    <use height="1.5" transform="matrix(0.75, 0.0, 0.0, 0.75, 26.85, 40.6)" width="0.7" xlink:href="#sprite12"/>
    <use height="1.85" transform="matrix(0.75, 0.0, 0.0, 0.75, 28.9, 40.3125)" width="1.2" xlink:href="#sprite13"/>
    <use height="0.65" transform="matrix(0.75, 0.0, 0.0, 0.75, 29.7125, 34.8625)" width="1.05" xlink:href="#sprite14"/>
    <use height="1.05" transform="matrix(0.75, 0.0, 0.0, 0.75, 30.9625, 36.25)" width="1.3" xlink:href="#sprite15"/>
    <use height="1.5" transform="matrix(0.75, 0.0, 0.0, 0.75, 31.45, 39.7)" width="0.9" xlink:href="#sprite16"/>
    <use height="8.25" transform="matrix(1.0, 0.0, 0.0, 1.0, 38.55, 35.1)" width="8.05" xlink:href="#shape14"/>
    <use height="1.5" transform="matrix(0.75, 0.0, 0.0, 0.75, 40.35, 38.05)" width="1.25" xlink:href="#sprite17"/>
    <use height="1.35" transform="matrix(0.75, 0.0, 0.0, 0.75, 39.75, 36.35)" width="1.5" xlink:href="#sprite18"/>
    <use height="1.55" transform="matrix(0.75, 0.0, 0.0, 0.75, 38.6625, 38.95)" width="0.95" xlink:href="#sprite19"/>
    <use height="0.75" transform="matrix(0.75, 0.0, 0.0, 0.75, 41.75, 35.25)" width="1.55" xlink:href="#sprite20"/>
    <use height="1.15" transform="matrix(0.75, 0.0, 0.0, 0.75, 41.85, 36.3875)" width="1.6" xlink:href="#sprite21"/>
    <use height="1.6" transform="matrix(0.75, 0.0, 0.0, 0.75, 42.9875, 38.5875)" width="1.1" xlink:href="#sprite22"/>
    <use height="1.5" transform="matrix(0.75, 0.0, 0.0, 0.75, 39.55, 40.45)" width="0.8" xlink:href="#sprite23"/>
    <use height="1.8" transform="matrix(0.75, 0.0, 0.0, 0.75, 41.4, 41.05)" width="1.25" xlink:href="#sprite24"/>
    <use height="0.8" transform="matrix(0.75, 0.0, 0.0, 0.75, 44.4125, 36.25)" width="0.9" xlink:href="#sprite25"/>
    <use height="1.25" transform="matrix(0.75, 0.0, 0.0, 0.75, 45.1, 37.95)" width="1.1" xlink:href="#sprite26"/>
    <use height="1.65" transform="matrix(0.75, 0.0, 0.0, 0.75, 44.25, 41.25)" width="0.55" xlink:href="#sprite27"/>
    <use height="8.6" transform="matrix(1.0, 0.0, 0.0, 1.0, 18.55, 32.4)" width="9.4" xlink:href="#shape16"/>
    <use height="4.8" transform="matrix(0.75, 0.0, 0.0, 0.75, 19.25, 32.7875)" width="7.8" xlink:href="#sprite28"/>
    <use height="3.9" transform="matrix(1.0, 0.0, 0.0, 1.0, 19.35, 36.65)" width="4.0" xlink:href="#shape17"/>
    <use height="2.6" transform="matrix(0.75, 0.0, 0.0, 0.75, 20.05, 33.05)" width="4.4" xlink:href="#sprite29"/>
    <use height="9.05" transform="matrix(1.0, 0.0, 0.0, 1.0, 30.2, 24.95)" width="8.9" xlink:href="#shape18"/>
    <use height="1.6" transform="matrix(0.75, 0.0, 0.0, 0.75, 32.45, 27.9)" width="1.5" xlink:href="#sprite30"/>
    <use height="1.4" transform="matrix(0.75, 0.0, 0.0, 0.75, 32.05, 26.0)" width="1.7" xlink:href="#sprite31"/>
    <use height="1.7" transform="matrix(0.75, 0.0, 0.0, 0.75, 30.5, 28.65)" width="1.2" xlink:href="#sprite32"/>
    <use height="0.7" transform="matrix(0.75, 0.0, 0.0, 0.75, 34.4125, 25.1)" width="1.8" xlink:href="#sprite33"/>
    <use height="1.2" transform="matrix(0.75, 0.0, 0.0, 0.75, 34.3, 26.3)" width="1.85" xlink:href="#sprite34"/>
    <use height="1.8" transform="matrix(0.75, 0.0, 0.0, 0.75, 35.2, 28.9)" width="1.3" xlink:href="#sprite35"/>
    <use height="1.65" transform="matrix(0.75, 0.0, 0.0, 0.75, 31.1625, 30.4)" width="0.9" xlink:href="#sprite36"/>
    <use height="2.0" transform="matrix(0.75, 0.0, 0.0, 0.75, 33.15, 31.3625)" width="1.45" xlink:href="#sprite37"/>
    <use height="0.9" transform="matrix(0.75, 0.0, 0.0, 0.75, 37.3, 26.5)" width="0.95" xlink:href="#sprite38"/>
    <use height="1.5" transform="matrix(0.75, 0.0, 0.0, 0.75, 37.75, 28.45)" width="1.05" xlink:href="#sprite39"/>
    <use height="1.85" transform="matrix(0.75, 0.0, 0.0, 0.75, 36.3375, 31.95)" width="0.5" xlink:href="#sprite40"/>
    <use height="17.2" transform="matrix(1.0, 0.0, 0.0, 1.0, 16.55, 33.1)" width="33.5" xlink:href="#shape20"/>
    <use height="13.6" transform="matrix(0.75, 0.0, 0.0, 0.75, 19.6, 40.1)" width="23.65" xlink:href="#sprite41"/>
    <use height="13.45" transform="matrix(0.75, 0.0, 0.0, 0.75, 16.5, 38.7)" width="12.45" xlink:href="#sprite42"/>
    <use height="3.25" transform="matrix(1.0, 0.0, 0.0, 1.0, 16.5, 38.45)" width="33.65" xlink:href="#shape23"/>
  </g>
  <defs>
    <g id="shape0" transform="matrix(1.0, 0.0, 0.0, 1.0, -16.5, -28.2)">
      <path d="M45.2 36.45 Q50.05 37.4 50.05 38.7 50.05 40.0 45.2 40.9 L33.4 41.85 21.55 40.9 Q16.7 40.0 16.7 38.7 16.7 37.4 21.55 36.45 L33.4 35.55 45.2 36.45" fill="url(#gradient0)" fill-rule="evenodd" stroke="none"/>
      <path d="M50.1 38.45 L49.4 38.45 Q49.35 37.35 44.7 36.6 L33.4 35.85 22.15 36.6 Q17.45 37.4 17.45 38.45 L16.5 38.45 Q16.85 37.2 21.7 36.35 L33.3 35.5 44.95 36.35 Q49.75 37.2 50.1 38.45" fill="#c9e5f2" fill-rule="evenodd" stroke="none"/>
      <path d="M38.65 28.7 L45.4 33.95 44.95 34.95 44.6 35.45 44.45 35.55 Q42.8 34.8 41.4 34.5 38.65 33.75 38.0 32.6 37.55 31.85 37.55 31.35 37.55 30.9 37.9 29.9 38.2 29.1 38.65 28.7" fill="#aa0504" fill-rule="evenodd" stroke="none"/>
      <path d="M41.4 28.5 Q43.0 28.95 44.05 30.75 44.95 32.35 45.25 33.5 45.4 34.05 45.15 34.2 L44.45 34.05 40.6 32.45 38.95 31.35 Q38.35 30.75 38.3 30.25 L38.35 29.25 38.65 28.7 41.4 28.5" fill="#ed372a" fill-rule="evenodd" stroke="none"/>
      <path d="M40.15 28.55 Q41.8 28.55 43.0 29.7 L43.75 30.8 44.55 32.55 Q45.1 33.6 44.75 33.7 44.5 33.75 43.9 33.4 L40.75 32.1 Q39.7 31.65 39.25 31.2 L38.8 30.45 Q38.5 29.5 38.9 29.1 L39.25 28.75 40.15 28.55" fill="#ff8c8c" fill-rule="evenodd" stroke="none"/>
      <path d="M42.55 30.6 Q42.05 30.4 42.4 30.4 L43.3 30.5 43.15 30.65 42.55 30.6" fill="#ffbfbf" fill-rule="evenodd" stroke="none"/>
      <path d="M40.85 29.0 Q41.05 28.7 41.2 29.0 L41.2 29.55 41.55 29.9 42.25 29.8 42.85 29.8 42.75 29.95 42.25 30.15 41.9 30.3 42.3 30.75 43.6 31.2 42.5 31.0 42.8 31.35 Q43.6 31.5 44.0 31.8 L43.15 31.7 43.45 32.1 44.4 32.55 43.65 32.4 43.8 32.55 44.8 33.45 Q44.9 33.65 44.35 33.3 L43.6 32.7 43.4 32.55 43.75 33.3 43.45 33.0 43.15 32.4 42.55 31.95 42.7 32.8 42.45 32.55 42.25 31.8 41.5 31.35 Q42.0 32.4 41.8 32.45 L41.45 31.95 41.2 31.15 40.8 30.9 40.85 31.6 40.6 31.95 40.45 31.9 Q40.35 31.75 40.4 31.6 L40.6 30.75 40.05 30.35 40.0 30.4 39.25 31.25 39.2 30.95 Q39.1 30.5 39.9 30.2 L39.55 29.85 38.95 29.9 Q38.8 29.85 39.0 29.75 L39.45 29.65 39.45 29.35 Q39.7 28.95 40.55 29.2 L40.85 29.3 40.85 29.0" fill="#ffbfbf" fill-rule="evenodd" stroke="none"/>
      <path d="M39.7 29.3 L40.55 29.25 41.65 30.25 43.3 32.1 41.0 30.6 Q39.5 29.65 39.7 29.3" fill="#e38672" fill-rule="evenodd" stroke="none"/>
      <path d="M41.05 33.3 L41.5 33.65 41.3 33.85 40.7 33.45 Q40.45 33.15 41.05 33.3" fill="#c2570d" fill-rule="evenodd" stroke="none"/>
      <path d="M38.55 31.35 L38.95 31.8 Q39.0 32.1 38.7 31.95 L38.3 31.5 Q38.2 31.15 38.55 31.35" fill="#c2570d" fill-rule="evenodd" stroke="none"/>
      <path d="M39.2 32.75 L39.6 33.15 39.4 33.35 38.9 32.95 Q38.75 32.6 39.2 32.75" fill="#c2570d" fill-rule="evenodd" stroke="none"/>
      <path d="M43.15 33.8 Q43.6 33.9 43.65 34.2 43.75 34.45 43.35 34.3 L42.85 33.95 Q42.8 33.75 43.15 33.8" fill="#c2570d" fill-rule="evenodd" stroke="none"/>
      <path d="M26.05 28.2 L26.55 28.35 27.7 28.95 29.05 30.3 29.35 31.9 Q29.35 33.6 26.7 36.0 25.3 37.2 23.95 39.0 L22.95 38.65 21.85 37.8 22.0 37.35 26.05 28.2" fill="#aa0504" fill-rule="evenodd" stroke="none"/>
      <path d="M26.25 33.35 L23.0 37.4 22.25 37.95 Q21.85 37.95 21.7 37.3 21.3 35.85 21.3 33.6 21.3 31.05 22.85 29.6 24.3 28.3 26.05 28.2 26.35 28.15 26.8 28.6 L27.5 29.55 Q27.75 30.15 27.45 31.2 27.1 32.4 26.25 33.35" fill="#ed372a" fill-rule="evenodd" stroke="none"/>
      <path d="M26.05 28.7 Q26.8 29.0 27.05 30.1 L27.05 31.2 25.9 33.05 24.25 35.05 23.2 36.3 22.4 37.2 Q21.95 37.3 21.9 35.85 L21.7 33.45 Q21.65 32.55 21.85 31.85 22.1 31.0 22.75 30.2 23.4 29.4 24.25 28.95 25.0 28.55 25.45 28.55 L26.05 28.7" fill="#ff8c8c" fill-rule="evenodd" stroke="none"/>
      <path d="M22.9 32.55 L22.3 33.0 Q21.85 33.15 22.0 32.9 22.15 32.6 22.9 32.25 23.35 32.05 22.9 32.55" fill="#ffbfbf" fill-rule="evenodd" stroke="none"/>
      <path d="M27.05 31.2 L25.6 30.8 25.55 30.75 25.45 31.0 25.2 31.5 26.0 32.25 26.15 32.65 25.95 32.8 Q25.25 32.65 25.05 31.8 L24.8 32.25 25.05 33.3 24.95 34.05 Q24.85 34.1 24.7 33.6 L24.55 32.7 24.0 33.6 24.25 34.55 24.1 35.0 Q23.9 34.85 23.8 34.0 L23.35 34.8 23.45 35.65 23.25 36.1 Q23.15 36.0 23.2 35.1 L23.05 35.4 22.6 36.55 22.2 36.9 Q22.2 36.5 22.75 35.4 L22.75 35.1 22.05 35.7 22.85 34.65 22.95 34.05 22.3 34.65 22.0 34.7 23.05 33.5 23.2 32.9 22.05 33.85 23.3 32.55 23.45 31.8 23.0 31.85 22.25 32.0 Q21.85 32.0 22.05 31.85 L22.75 31.5 23.6 31.2 23.8 30.65 Q23.45 30.45 23.4 30.0 23.35 29.6 23.8 29.85 L24.0 30.15 24.25 29.85 Q25.1 29.1 25.6 29.3 25.8 29.4 25.8 29.65 L26.35 29.5 26.5 29.65 25.8 29.9 25.65 30.5 Q26.8 30.45 26.95 30.9 L27.05 31.2" fill="#ffbfbf" fill-rule="evenodd" stroke="none"/>
      <path d="M25.3 29.5 Q25.5 29.55 25.3 30.3 L24.65 31.6 23.65 33.45 23.05 34.55 23.7 31.65 Q23.9 30.55 24.3 29.95 24.75 29.3 25.3 29.5" fill="#e38672" fill-rule="evenodd" stroke="none"/>
      <path d="M26.3 34.5 Q26.9 33.9 26.85 34.45 26.8 34.95 26.4 35.25 26.1 35.5 26.05 35.15 26.0 34.8 26.3 34.5" fill="#c2570d" fill-rule="evenodd" stroke="none"/>
      <path d="M27.9 30.9 Q28.25 30.45 28.3 30.9 L28.1 31.65 27.8 31.6 Q27.65 31.2 27.9 30.9" fill="#c2570d" fill-rule="evenodd" stroke="none"/>
      <path d="M28.1 32.8 Q28.45 32.4 28.55 32.85 L28.2 33.6 Q27.85 33.8 27.85 33.45 27.85 33.0 28.1 32.8" fill="#c2570d" fill-rule="evenodd" stroke="none"/>
      <path d="M24.25 36.3 Q24.65 36.0 24.7 36.3 L24.4 36.95 23.95 37.0 Q23.85 36.6 24.25 36.3" fill="#c2570d" fill-rule="evenodd" stroke="none"/>
      <path d="M37.45 38.65 L37.6 39.15 36.5 39.95 35.8 40.2 35.5 40.25 32.8 37.25 Q30.1 34.8 30.1 33.15 30.1 32.15 30.4 31.65 30.7 31.15 31.75 30.3 32.65 29.55 33.4 29.45 L37.45 38.65" fill="#aa0504" fill-rule="evenodd" stroke="none"/>
      <path d="M33.4 29.45 Q35.2 29.55 36.6 30.9 38.25 32.4 38.15 34.85 38.15 37.2 37.75 38.55 37.6 39.25 37.2 39.25 L36.5 38.7 33.2 34.65 Q32.35 33.65 32.05 32.5 31.75 31.4 32.0 30.9 L32.7 29.9 Q33.1 29.4 33.4 29.45" fill="#ed372a" fill-rule="evenodd" stroke="none"/>
      <path d="M33.4 30.0 L34.0 29.85 35.2 30.25 Q37.0 31.2 37.6 33.15 L37.75 34.75 37.6 37.15 Q37.5 38.55 37.05 38.45 L36.25 37.6 35.2 36.3 33.55 34.35 Q32.65 33.25 32.45 32.55 32.25 31.95 32.4 31.4 32.65 30.3 33.4 30.0" fill="#ff8c8c" fill-rule="evenodd" stroke="none"/>
      <path d="M36.55 33.8 L36.35 33.5 36.55 33.55 Q37.3 33.9 37.45 34.2 L37.15 34.25 36.55 33.8" fill="#ffbfbf" fill-rule="evenodd" stroke="none"/>
      <path d="M33.85 31.8 L33.65 31.2 32.95 30.9 Q32.8 30.75 33.1 30.8 L33.65 30.95 33.85 30.6 Q34.4 30.35 35.2 31.1 L35.45 31.4 35.65 31.1 Q36.1 30.9 36.05 31.35 L35.7 31.95 35.9 32.5 36.75 32.75 37.45 33.15 Q37.6 33.3 37.25 33.3 L36.5 33.15 Q36.25 33.0 36.05 33.15 L36.2 33.8 37.4 35.15 36.25 34.2 36.4 34.8 Q37.2 35.4 37.45 36.0 L36.5 35.35 36.65 36.0 37.4 37.0 Q37.6 37.3 36.7 36.4 L36.7 36.7 37.3 38.2 Q37.3 38.5 36.9 37.8 L36.4 36.65 36.25 36.4 36.2 37.35 Q36.1 37.5 36.05 36.95 35.95 36.4 36.1 36.05 L35.65 35.25 35.35 36.3 Q35.2 36.35 35.2 35.85 35.25 35.3 35.45 34.95 L34.9 33.95 Q34.75 35.4 34.5 35.35 34.35 35.3 34.45 34.65 34.5 33.95 34.7 33.6 L34.4 33.05 34.0 33.85 33.55 34.05 33.35 33.9 33.5 33.55 34.3 32.8 33.9 32.05 33.85 32.1 32.4 32.55 32.55 32.15 Q32.7 31.65 33.85 31.8" fill="#ffbfbf" fill-rule="evenodd" stroke="none"/>
      <path d="M34.2 30.75 Q34.75 30.6 35.2 31.2 35.6 31.8 35.8 32.9 L36.4 35.85 35.8 34.75 34.8 32.85 Q33.7 30.9 34.2 30.75" fill="#e38672" fill-rule="evenodd" stroke="none"/>
      <path d="M33.15 35.85 L33.4 36.45 Q33.4 36.8 33.05 36.55 32.65 36.25 32.65 35.7 32.55 35.25 33.15 35.85" fill="#c2570d" fill-rule="evenodd" stroke="none"/>
      <path d="M31.55 32.15 L31.7 32.9 31.35 32.95 31.2 32.15 Q31.25 31.75 31.55 32.15" fill="#c2570d" fill-rule="evenodd" stroke="none"/>
      <path d="M31.4 34.1 L31.6 34.7 Q31.6 35.1 31.25 34.9 30.85 34.65 30.9 34.15 31.0 33.65 31.4 34.1" fill="#c2570d" fill-rule="evenodd" stroke="none"/>
      <path d="M35.2 37.65 L35.5 38.25 Q35.45 38.6 35.1 38.25 L34.8 37.6 35.2 37.65" fill="#c2570d" fill-rule="evenodd" stroke="none"/>
      <path d="M36.55 34.95 Q39.45 35.6 39.85 38.25 40.25 40.65 38.7 41.85 36.85 43.35 34.35 42.5 31.9 41.65 31.6 39.65 31.2 37.35 32.75 35.9 34.3 34.5 36.55 34.95" fill="url(#gradient1)" fill-rule="evenodd" stroke="none"/>
      <path d="M38.7 41.85 Q36.95 43.3 34.5 42.55 32.15 41.8 31.65 39.9 33.0 41.9 35.1 42.15 37.0 42.3 37.95 41.25 40.05 39.15 39.4 36.85 40.15 38.1 39.85 39.65 39.65 41.15 38.7 41.85" fill="#48498f" fill-rule="evenodd" stroke="none"/>
    </g>
    <linearGradient gradientTransform="matrix(0.0204, 0.0, 0.0, -0.0204, 33.4, 38.7)" gradientUnits="userSpaceOnUse" id="gradient0" spreadMethod="pad" x1="-819.2" x2="819.2">
      <stop offset="0.0" stop-color="#557c8c"/>
      <stop offset="1.0" stop-color="#86a7b5"/>
    </linearGradient>
    <radialGradient cx="0" cy="0" gradientTransform="matrix(0.0042, 0.0065, 0.006, -0.0052, 34.55, 37.35)" gradientUnits="userSpaceOnUse" id="gradient1" r="819.2" spreadMethod="pad">
      <stop offset="0.0" stop-color="#8589ff"/>
      <stop offset="1.0" stop-color="#404082"/>
    </radialGradient>
    <g id="sprite0" transform="matrix(1.0, 0.0, 0.0, 1.0, 0.05, 0.0)">
      <use height="3.7" transform="matrix(1.097, 0.0, 0.0, 1.1081, -0.05, 0.0)" width="6.7" xlink:href="#shape1"/>
    </g>
    <g id="shape1" transform="matrix(1.0, 0.0, 0.0, 1.0, 0.0, 0.0)">
      <path d="M3.45 0.0 Q6.7 0.2 6.7 1.9 6.7 2.7 5.85 3.2 4.7 3.8 2.45 3.65 -0.9 3.35 0.35 1.4 0.85 0.7 1.85 0.3 L3.45 0.0" fill="#ffffff" fill-rule="evenodd" stroke="none"/>
    </g>
    <g id="shape2" transform="matrix(1.0, 0.0, 0.0, 1.0, -37.35, -36.2)">
      <path d="M38.65 36.3 Q38.8 36.15 39.1 36.3 39.5 36.65 39.25 37.05 L39.4 36.9 Q39.6 36.85 39.85 37.2 40.2 37.7 39.8 37.85 L40.0 37.8 40.2 38.1 Q40.25 38.45 39.9 38.5 40.25 38.6 40.1 39.0 39.95 39.35 39.7 39.15 39.9 39.5 39.7 39.7 L39.4 39.65 39.25 39.5 Q39.45 39.8 39.0 39.9 38.75 40.0 38.55 39.7 L38.45 39.4 37.9 39.35 Q37.75 39.15 37.9 38.85 L38.05 38.6 37.75 38.7 37.45 38.5 37.4 37.95 37.75 37.65 37.95 37.65 37.65 37.3 Q37.45 36.8 37.9 36.6 38.2 36.5 38.55 36.9 L38.5 36.7 Q38.5 36.45 38.65 36.3" fill="url(#gradient2)" fill-rule="evenodd" stroke="none"/>
      <path d="M38.3 37.55 Q38.5 36.7 39.2 37.3 39.85 37.85 39.6 38.7 39.35 39.6 38.65 39.2 38.0 38.8 38.3 37.55" fill="url(#gradient3)" fill-rule="evenodd" stroke="none"/>
    </g>
    <linearGradient gradientTransform="matrix(-0.0015, -8.0E-4, 0.0011, -0.002, 38.8, 38.15)" gradientUnits="userSpaceOnUse" id="gradient2" spreadMethod="pad" x1="-819.2" x2="819.2">
      <stop offset="0.0" stop-color="#4f52a8"/>
      <stop offset="1.0" stop-color="#363670"/>
    </linearGradient>
    <linearGradient gradientTransform="matrix(6.0E-4, 9.0E-4, -0.0012, 9.0E-4, 38.95, 38.25)" gradientUnits="userSpaceOnUse" id="gradient3" spreadMethod="pad" x1="-819.2" x2="819.2">
      <stop offset="0.0" stop-color="#4f52a8"/>
      <stop offset="1.0" stop-color="#363670"/>
    </linearGradient>
    <g id="sprite1" transform="matrix(1.0, 0.0, 0.0, 1.0, 0.0, 0.0)">
      <use height="1.95" transform="matrix(1.1053, 0.0, 0.0, 1.0769, 0.0, 0.0)" width="3.8" xlink:href="#shape3"/>
    </g>
    <g id="shape3" transform="matrix(1.0, 0.0, 0.0, 1.0, 0.0, 0.0)">
      <path d="M1.75 0.0 Q3.5 0.0 3.75 0.6 4.0 1.1 3.1 1.6 L1.2 1.9 Q0.05 1.75 0.0 1.15 -0.05 0.85 0.5 0.45 1.1 0.0 1.75 0.0" fill="#ffffff" fill-rule="evenodd" stroke="none"/>
    </g>
    <g id="shape4" transform="matrix(1.0, 0.0, 0.0, 1.0, -24.2, -27.25)">
      <path d="M28.75 27.25 Q31.9 27.2 33.0 29.85 34.0 32.25 32.65 33.95 31.05 35.95 28.25 35.65 25.45 35.35 24.65 33.3 23.65 30.95 24.95 29.1 26.2 27.3 28.75 27.25" fill="url(#gradient4)" fill-rule="evenodd" stroke="none"/>
      <path d="M32.65 33.95 Q31.15 35.85 28.4 35.65 25.75 35.45 24.75 33.6 26.65 35.35 28.9 35.1 30.9 34.8 31.75 33.45 33.4 30.75 32.15 28.5 33.25 29.65 33.35 31.35 33.4 32.95 32.65 33.95" fill="#48498f" fill-rule="evenodd" stroke="none"/>
    </g>
    <radialGradient cx="0" cy="0" gradientTransform="matrix(0.006, 0.0058, 0.0051, -0.0069, 27.2, 30.15)" gradientUnits="userSpaceOnUse" id="gradient4" r="819.2" spreadMethod="pad">
      <stop offset="0.0" stop-color="#8589ff"/>
      <stop offset="1.0" stop-color="#404082"/>
    </radialGradient>
    <g id="sprite2" transform="matrix(1.0, 0.0, 0.0, 1.0, 0.0, 0.0)">
      <use height="4.3" transform="matrix(1.1007, 0.0, 0.0, 1.1046, 0.0, -0.0052)" width="6.95" xlink:href="#shape5"/>
    </g>
    <g id="shape5" transform="matrix(1.0, 0.0, 0.0, 1.0, 0.0, 0.05)">
      <path d="M6.9 1.35 Q7.15 2.2 6.35 2.95 5.3 3.85 2.9 4.2 0.9 4.45 0.25 3.8 -0.2 3.3 0.15 2.35 0.45 1.45 1.45 0.8 2.25 0.25 3.05 0.1 6.5 -0.45 6.9 1.35" fill="#ffffff" fill-rule="evenodd" stroke="none"/>
    </g>
    <g id="sprite3" transform="matrix(1.0, 0.0, 0.0, 1.0, 0.0, 0.0)">
      <use height="2.35" transform="matrix(1.1013, 0.0, 0.0, 1.1064, 0.0051, 0.0)" width="3.95" xlink:href="#shape6"/>
    </g>
    <g id="shape6" transform="matrix(1.0, 0.0, 0.0, 1.0, -0.05, 0.0)">
      <path d="M3.85 0.3 Q4.25 0.75 3.45 1.5 2.75 2.15 1.5 2.3 0.25 2.45 0.05 1.85 -0.05 1.5 0.4 0.95 0.95 0.35 1.65 0.2 L3.85 0.3" fill="#ffffff" fill-rule="evenodd" stroke="none"/>
    </g>
    <g id="shape7" transform="matrix(1.0, 0.0, 0.0, 1.0, -26.95, -27.55)">
      <path d="M28.6 27.55 Q29.8 27.5 30.35 27.95 30.8 28.35 30.35 28.6 L28.9 28.95 27.25 28.7 Q26.7 28.4 27.25 27.95 27.85 27.55 28.6 27.55" fill="url(#gradient5)" fill-rule="evenodd" stroke="none"/>
      <path d="M27.95 28.15 L29.65 28.1 30.05 28.5 29.65 28.8 Q28.75 29.1 27.65 28.8 27.25 28.65 27.35 28.5 L27.95 28.15" fill="#664f35" fill-rule="evenodd" stroke="none"/>
      <path d="M28.7 28.2 L29.55 28.35 29.4 28.7 28.05 28.65 Q27.7 28.5 28.0 28.35 L28.7 28.2" fill="url(#gradient6)" fill-rule="evenodd" stroke="none"/>
      <path d="M48.7 35.85 Q49.1 38.25 47.55 39.45 45.7 40.95 43.2 40.1 40.75 39.3 40.4 37.25 40.0 34.95 41.55 33.5 43.1 32.1 45.4 32.55 48.3 33.15 48.7 35.85" fill="url(#gradient7)" fill-rule="evenodd" stroke="none"/>
      <path d="M48.2 34.45 Q48.95 35.7 48.7 37.25 48.45 38.7 47.55 39.45 45.8 40.9 43.35 40.15 41.0 39.45 40.45 37.5 41.8 39.5 43.95 39.75 45.85 39.9 46.8 38.85 48.9 36.65 48.2 34.45" fill="#48498f" fill-rule="evenodd" stroke="none"/>
    </g>
    <linearGradient gradientTransform="matrix(-0.0046, -4.0E-4, -4.0E-4, 0.0046, 27.15, 28.1)" gradientUnits="userSpaceOnUse" id="gradient5" spreadMethod="pad" x1="-819.2" x2="819.2">
      <stop offset="0.0" stop-color="#4f52a8"/>
      <stop offset="1.0" stop-color="#363670"/>
    </linearGradient>
    <linearGradient gradientTransform="matrix(-0.0018, 0.0, 0.0, 0.0018, 28.6, 28.5)" gradientUnits="userSpaceOnUse" id="gradient6" spreadMethod="pad" x1="-819.2" x2="819.2">
      <stop offset="0.0" stop-color="#5c4820"/>
      <stop offset="1.0" stop-color="#473819"/>
    </linearGradient>
    <radialGradient cx="0" cy="0" gradientTransform="matrix(0.0042, 0.0065, 0.006, -0.0052, 43.4, 34.95)" gradientUnits="userSpaceOnUse" id="gradient7" r="819.2" spreadMethod="pad">
      <stop offset="0.0" stop-color="#8589ff"/>
      <stop offset="1.0" stop-color="#404082"/>
    </radialGradient>
    <g id="sprite4" transform="matrix(1.0, 0.0, 0.0, 1.0, 0.0, 0.0)">
      <use height="3.7" transform="matrix(1.1053, 0.0, 0.0, 1.1081, 0.0, 0.0)" width="6.65" xlink:href="#shape8"/>
    </g>
    <g id="shape8" transform="matrix(1.0, 0.0, 0.0, 1.0, 0.0, 0.0)">
      <path d="M3.4 0.0 Q6.65 0.2 6.65 1.9 6.65 2.7 5.8 3.2 L2.45 3.65 Q0.55 3.5 0.1 2.75 -0.2 2.2 0.3 1.4 0.8 0.7 1.8 0.3 L3.4 0.0" fill="#ffffff" fill-rule="evenodd" stroke="none"/>
    </g>
    <g id="shape9" transform="matrix(1.0, 0.0, 0.0, 1.0, -40.35, -35.85)">
      <path d="M42.3 36.35 L42.25 36.8 42.45 36.7 42.85 36.75 43.1 37.2 42.95 37.6 42.7 37.65 42.95 37.8 43.15 38.25 Q43.1 38.7 42.75 38.55 42.95 39.15 42.55 39.3 L42.15 39.2 42.1 39.05 41.8 39.45 41.55 39.2 41.5 39.0 Q41.45 39.3 41.1 39.0 L40.9 38.7 41.0 38.55 Q40.75 38.7 40.55 38.35 40.45 38.1 40.6 38.0 L40.8 37.95 Q40.3 38.0 40.35 37.35 40.4 36.95 40.6 36.9 L40.85 36.95 Q40.4 36.75 40.6 36.25 L40.95 36.0 41.25 36.3 41.35 36.45 41.4 36.15 Q41.5 35.9 41.75 35.85 42.25 35.8 42.3 36.35" fill="url(#gradient8)" fill-rule="evenodd" stroke="none"/>
      <path d="M41.9 36.9 Q42.8 37.75 42.4 38.45 42.05 39.15 41.35 38.55 40.7 37.95 41.0 37.1 41.25 36.25 41.9 36.9" fill="url(#gradient9)" fill-rule="evenodd" stroke="none"/>
    </g>
    <linearGradient gradientTransform="matrix(0.001, 0.0014, 0.0019, -0.0013, 41.8, 37.65)" gradientUnits="userSpaceOnUse" id="gradient8" spreadMethod="pad" x1="-819.2" x2="819.2">
      <stop offset="0.0" stop-color="#4f52a8"/>
      <stop offset="1.0" stop-color="#363670"/>
    </linearGradient>
    <linearGradient gradientTransform="matrix(-1.0E-4, -0.0011, -0.0015, 2.0E-4, 41.7, 37.8)" gradientUnits="userSpaceOnUse" id="gradient9" spreadMethod="pad" x1="-819.2" x2="819.2">
      <stop offset="0.0" stop-color="#4f52a8"/>
      <stop offset="1.0" stop-color="#363670"/>
    </linearGradient>
    <g id="sprite5" transform="matrix(1.0, 0.0, 0.0, 1.0, 0.0, 0.0)">
      <use height="1.95" transform="matrix(1.1053, 0.0, 0.0, 1.1026, 0.0, 0.0)" width="3.8" xlink:href="#shape3"/>
    </g>
    <g id="shape10" transform="matrix(1.0, 0.0, 0.0, 1.0, -25.35, -34.5)">
      <path d="M26.25 38.85 Q27.1 38.75 27.7 39.6 28.2 40.45 27.95 40.85 26.95 42.45 25.95 41.3 25.3 40.55 25.5 39.7 25.75 38.9 26.25 38.85" fill="url(#gradient10)" fill-rule="evenodd" stroke="none"/>
      <path d="M32.3 37.65 Q32.65 37.5 33.1 37.95 33.55 38.45 33.55 39.15 33.55 40.9 32.1 40.4 31.3 40.1 31.35 39.1 31.4 38.05 32.3 37.65" fill="url(#gradient11)" fill-rule="evenodd" stroke="none"/>
      <path d="M28.75 35.15 Q29.05 34.75 29.95 34.7 31.0 34.65 31.3 35.55 31.6 36.45 30.95 36.9 L29.65 37.05 Q29.05 36.95 28.75 36.3 28.45 35.7 28.75 35.15" fill="url(#gradient12)" fill-rule="evenodd" stroke="none"/>
      <path d="M27.65 36.3 Q28.7 36.5 28.5 37.7 28.3 38.9 27.35 39.25 26.45 39.55 25.8 38.85 25.15 38.25 25.4 37.35 25.8 35.85 27.65 36.3" fill="url(#gradient13)" fill-rule="evenodd" stroke="none"/>
      <path d="M27.4 37.2 Q26.85 37.0 26.75 36.1 26.6 35.1 27.45 34.75 L29.05 34.8 Q29.5 35.25 29.5 36.0 29.5 36.65 29.0 37.05 L27.4 37.2" fill="url(#gradient14)" fill-rule="evenodd" stroke="none"/>
      <path d="M30.7 36.05 L31.9 36.15 Q32.6 36.55 32.65 37.2 32.75 37.95 32.45 38.45 32.05 39.0 31.3 39.05 30.35 39.15 29.85 38.1 29.35 36.9 30.7 36.05" fill="url(#gradient15)" fill-rule="evenodd" stroke="none"/>
      <path d="M27.95 39.25 Q29.1 39.4 29.4 39.85 29.65 40.2 29.45 41.25 29.2 42.15 28.35 42.3 27.5 42.45 26.95 41.75 26.35 40.95 26.75 40.05 27.1 39.15 27.95 39.25" fill="url(#gradient16)" fill-rule="evenodd" stroke="none"/>
      <path d="M31.45 38.55 Q32.65 38.7 32.9 39.85 33.05 40.95 32.15 41.45 31.4 41.9 31.0 41.25 L30.55 40.0 Q30.4 39.5 30.7 39.0 31.0 38.55 31.45 38.55" fill="url(#gradient17)" fill-rule="evenodd" stroke="none"/>
      <path d="M30.8 39.6 Q32.2 41.05 31.05 42.0 29.95 42.9 29.0 42.2 28.25 41.7 28.25 40.85 28.25 40.0 28.75 39.7 L30.8 39.6" fill="url(#gradient18)" fill-rule="evenodd" stroke="none"/>
      <path d="M30.25 36.65 Q30.2 37.1 29.9 37.15 29.65 37.2 29.15 37.55 L28.7 37.9 27.9 37.8 27.25 37.55 Q27.0 37.2 27.1 36.65 27.25 36.0 27.9 35.55 29.1 34.9 29.95 35.9 L30.25 36.65" fill="url(#gradient19)" fill-rule="evenodd" stroke="none"/>
      <path d="M26.75 37.8 Q27.1 37.45 27.7 37.4 28.3 37.35 28.75 37.65 29.05 37.9 29.2 39.35 L29.2 39.75 28.75 40.3 28.15 40.8 27.1 40.25 Q26.5 39.75 26.4 38.9 26.35 38.1 26.75 37.8" fill="url(#gradient20)" fill-rule="evenodd" stroke="none"/>
      <path d="M30.5 37.0 Q31.3 37.25 31.4 38.75 31.45 39.75 30.85 39.9 L30.0 39.9 29.35 39.7 Q29.05 39.5 28.8 37.95 28.75 37.5 29.25 37.2 30.05 36.85 30.5 37.0" fill="url(#gradient21)" fill-rule="evenodd" stroke="none"/>
    </g>
    <radialGradient cx="0" cy="0" gradientTransform="matrix(0.0015, 0.0018, 0.0018, -0.0015, 26.35, 39.9)" gradientUnits="userSpaceOnUse" id="gradient10" r="819.2" spreadMethod="pad">
      <stop offset="0.0" stop-color="#ffa34d"/>
      <stop offset="1.0" stop-color="#cc4b14"/>
    </radialGradient>
    <radialGradient cx="0" cy="0" gradientTransform="matrix(0.0014, 0.0017, 0.0017, -0.0014, 32.05, 38.7)" gradientUnits="userSpaceOnUse" id="gradient11" r="819.2" spreadMethod="pad">
      <stop offset="0.0" stop-color="#ffa34d"/>
      <stop offset="1.0" stop-color="#cc4b14"/>
    </radialGradient>
    <radialGradient cx="0" cy="0" gradientTransform="matrix(0.0014, 0.0017, 0.0017, -0.0014, 29.6, 35.55)" gradientUnits="userSpaceOnUse" id="gradient12" r="819.2" spreadMethod="pad">
      <stop offset="0.0" stop-color="#ffa34d"/>
      <stop offset="1.0" stop-color="#cc4b14"/>
    </radialGradient>
    <radialGradient cx="0" cy="0" gradientTransform="matrix(0.0018, 0.0021, 0.0021, -0.0018, 26.45, 37.3)" gradientUnits="userSpaceOnUse" id="gradient13" r="819.2" spreadMethod="pad">
      <stop offset="0.0" stop-color="#ffa34d"/>
      <stop offset="1.0" stop-color="#cc4b14"/>
    </radialGradient>
    <radialGradient cx="0" cy="0" gradientTransform="matrix(0.0015, 0.0018, 0.0018, -0.0015, 27.7, 35.55)" gradientUnits="userSpaceOnUse" id="gradient14" r="819.2" spreadMethod="pad">
      <stop offset="0.0" stop-color="#ffa34d"/>
      <stop offset="1.0" stop-color="#cc4b14"/>
    </radialGradient>
    <radialGradient cx="0" cy="0" gradientTransform="matrix(0.0017, 0.002, 0.002, -0.0017, 30.75, 37.05)" gradientUnits="userSpaceOnUse" id="gradient15" r="819.2" spreadMethod="pad">
      <stop offset="0.0" stop-color="#ffa34d"/>
      <stop offset="1.0" stop-color="#cc4b14"/>
    </radialGradient>
    <radialGradient cx="0" cy="0" gradientTransform="matrix(0.0017, 0.002, 0.002, -0.0017, 27.7, 40.35)" gradientUnits="userSpaceOnUse" id="gradient16" r="819.2" spreadMethod="pad">
      <stop offset="0.0" stop-color="#ffa34d"/>
      <stop offset="1.0" stop-color="#cc4b14"/>
    </radialGradient>
    <radialGradient cx="0" cy="0" gradientTransform="matrix(0.0015, 0.0018, 0.0018, -0.0015, 31.35, 39.6)" gradientUnits="userSpaceOnUse" id="gradient17" r="819.2" spreadMethod="pad">
      <stop offset="0.0" stop-color="#ffa34d"/>
      <stop offset="1.0" stop-color="#cc4b14"/>
    </radialGradient>
    <radialGradient cx="0" cy="0" gradientTransform="matrix(0.0018, 0.0021, 0.0021, -0.0018, 29.35, 40.45)" gradientUnits="userSpaceOnUse" id="gradient18" r="819.2" spreadMethod="pad">
      <stop offset="0.0" stop-color="#ffa34d"/>
      <stop offset="1.0" stop-color="#cc4b14"/>
    </radialGradient>
    <radialGradient cx="0" cy="0" gradientTransform="matrix(0.0016, 0.0019, 0.0019, -0.0016, 28.15, 36.3)" gradientUnits="userSpaceOnUse" id="gradient19" r="819.2" spreadMethod="pad">
      <stop offset="0.0" stop-color="#ffa34d"/>
      <stop offset="1.0" stop-color="#cc4b14"/>
    </radialGradient>
    <radialGradient cx="0" cy="0" gradientTransform="matrix(0.0017, 0.002, 0.002, -0.0017, 27.35, 38.65)" gradientUnits="userSpaceOnUse" id="gradient20" r="819.2" spreadMethod="pad">
      <stop offset="0.0" stop-color="#ffa34d"/>
      <stop offset="1.0" stop-color="#cc4b14"/>
    </radialGradient>
    <radialGradient cx="0" cy="0" gradientTransform="matrix(0.0015, 0.0018, 0.0018, -0.0015, 29.75, 38.1)" gradientUnits="userSpaceOnUse" id="gradient21" r="819.2" spreadMethod="pad">
      <stop offset="0.0" stop-color="#ffa34d"/>
      <stop offset="1.0" stop-color="#cc4b14"/>
    </radialGradient>
    <g id="sprite6" transform="matrix(1.0, 0.0, 0.0, 1.0, 0.05, 0.0)">
      <use height="1.65" transform="matrix(0.8696, 0.0, 0.0, 1.0303, -0.0435, 0.0)" width="1.15" xlink:href="#shape11"/>
    </g>
    <g id="shape11" transform="matrix(1.0, 0.0, 0.0, 1.0, 0.05, 0.0)">
      <path d="M1.05 0.65 Q1.25 1.7 0.7 1.65 0.2 1.6 0.0 1.1 -0.15 0.55 0.2 0.2 0.8 -0.4 1.05 0.65" fill="#fff59e" fill-rule="evenodd" stroke="none"/>
    </g>
    <g id="sprite7" transform="matrix(1.0, 0.0, 0.0, 1.0, -0.1, 0.0)">
      <use height="1.65" transform="matrix(1.0435, 0.0, 0.0, 0.9394, 0.0978, 0.0)" width="1.15" xlink:href="#shape11"/>
    </g>
    <g id="sprite8" transform="matrix(1.0, 0.0, 0.0, 1.0, 0.0, 0.05)">
      <use height="1.65" transform="matrix(0.6522, 0.0, 0.0, 1.0303, 0.0174, -0.05)" width="1.15" xlink:href="#shape11"/>
    </g>
    <g id="sprite9" transform="matrix(1.0, 0.0, 0.0, 1.0, 0.0, 0.0)">
      <use height="1.3" transform="matrix(1.08, 0.0, 0.0, 0.8846, 0.0, -0.0058)" width="1.25" xlink:href="#shape12"/>
    </g>
    <g id="shape12" transform="matrix(1.0, 0.0, 0.0, 1.0, 0.0, -0.05)">
      <path d="M0.95 0.05 Q1.6 0.2 0.9 0.9 0.2 1.6 0.05 1.15 -0.1 0.7 0.25 0.3 0.55 -0.05 0.95 0.05" fill="#fff59e" fill-rule="evenodd" stroke="none"/>
    </g>
    <g id="sprite10" transform="matrix(1.0, 0.0, 0.0, 1.0, 0.0, -0.05)">
      <use height="1.3" transform="matrix(1.12, 0.0, 0.0, 1.0769, 0.0, 0.0538)" width="1.25" xlink:href="#shape12"/>
    </g>
    <g id="sprite11" transform="matrix(1.0, 0.0, 0.0, 1.0, 0.0, 0.0)">
      <use height="1.65" transform="matrix(0.8261, 0.0, 0.0, 1.0303, 0.0087, 0.0)" width="1.15" xlink:href="#shape11"/>
    </g>
    <g id="sprite12" transform="matrix(1.0, 0.0, 0.0, 1.0, 0.0, 0.0)">
      <use height="1.65" transform="matrix(0.6087, 0.0, 0.0, 0.9091, 0.0196, 0.0)" width="1.15" xlink:href="#shape11"/>
    </g>
    <g id="sprite13" transform="matrix(1.0, 0.0, 0.0, 1.0, 0.0, 0.05)">
      <use height="1.65" transform="matrix(1.0435, 0.0, 0.0, 1.1212, -0.0022, -0.05)" width="1.15" xlink:href="#shape11"/>
    </g>
    <g id="sprite14" transform="matrix(1.0, 0.0, 0.0, 1.0, 0.05, 0.05)">
      <use height="1.65" transform="matrix(0.913, 0.0, 0.0, 0.3939, -0.0457, -0.05)" width="1.15" xlink:href="#shape11"/>
    </g>
    <g id="sprite15" transform="matrix(1.0, 0.0, 0.0, 1.0, 0.05, 0.0)">
      <use height="1.35" transform="matrix(1.625, 0.0, 0.0, 0.7778, -0.05, 0.0)" width="0.8" xlink:href="#shape13"/>
    </g>
    <g id="shape13" transform="matrix(1.0, 0.0, 0.0, 1.0, 0.0, 0.0)">
      <path d="M0.3 0.8 Q-0.2 0.0 0.1 0.0 L0.55 0.4 0.8 1.2 Q0.8 1.65 0.3 0.8" fill="#fff59e" fill-rule="evenodd" stroke="none"/>
    </g>
    <g id="sprite16" transform="matrix(1.0, 0.0, 0.0, 1.0, 0.0, 0.0)">
      <use height="1.35" transform="matrix(1.125, 0.0, 0.0, 1.1111, 0.0, 0.0)" width="0.8" xlink:href="#shape13"/>
    </g>
    <g id="shape14" transform="matrix(1.0, 0.0, 0.0, 1.0, -38.55, -35.1)">
      <path d="M39.85 38.45 Q40.7 38.7 40.9 39.75 41.05 40.7 40.65 41.0 39.15 42.15 38.65 40.65 38.35 39.75 38.85 39.0 39.35 38.3 39.85 38.45" fill="url(#gradient22)" fill-rule="evenodd" stroke="none"/>
      <path d="M45.85 39.65 Q46.3 39.6 46.5 40.25 46.75 40.9 46.5 41.55 45.85 43.2 44.65 42.15 44.05 41.55 44.5 40.65 44.95 39.75 45.85 39.65" fill="url(#gradient23)" fill-rule="evenodd" stroke="none"/>
      <path d="M43.55 36.0 Q43.95 35.7 44.8 36.0 45.8 36.4 45.75 37.35 45.7 38.3 44.95 38.4 L43.65 38.1 Q43.15 37.8 43.1 37.05 43.05 36.35 43.55 36.0" fill="url(#gradient24)" fill-rule="evenodd" stroke="none"/>
      <path d="M42.1 36.65 Q43.0 37.25 42.35 38.3 41.7 39.3 40.75 39.25 39.8 39.2 39.45 38.35 39.1 37.5 39.6 36.75 L42.1 36.65" fill="url(#gradient25)" fill-rule="evenodd" stroke="none"/>
      <path d="M41.55 37.35 Q41.1 37.05 41.35 36.15 41.55 35.15 42.55 35.1 43.6 35.1 43.9 35.85 44.2 36.4 43.9 37.1 43.75 37.7 43.1 37.85 42.35 38.0 41.55 37.35" fill="url(#gradient26)" fill-rule="evenodd" stroke="none"/>
      <path d="M44.95 37.55 Q45.6 37.45 46.1 38.1 46.6 38.7 46.4 39.4 L45.7 40.45 44.45 40.55 Q43.5 40.3 43.45 39.15 43.45 37.9 44.95 37.55" fill="url(#gradient27)" fill-rule="evenodd" stroke="none"/>
      <path d="M41.25 39.45 Q42.3 40.05 42.4 40.6 42.5 41.05 41.9 41.9 41.35 42.7 40.5 42.5 39.65 42.3 39.4 41.45 39.2 40.5 39.85 39.75 40.55 39.05 41.25 39.45" fill="url(#gradient28)" fill-rule="evenodd" stroke="none"/>
      <path d="M44.8 40.2 Q45.85 40.75 45.6 41.85 45.4 42.95 44.35 43.1 43.5 43.25 43.35 42.45 L43.4 41.15 Q43.45 40.65 43.9 40.35 44.4 39.95 44.8 40.2" fill="url(#gradient29)" fill-rule="evenodd" stroke="none"/>
      <path d="M43.75 40.9 Q44.5 42.8 43.15 43.2 41.8 43.65 41.1 42.65 40.6 41.9 40.9 41.1 41.2 40.3 41.8 40.2 43.4 39.95 43.75 40.9" fill="url(#gradient30)" fill-rule="evenodd" stroke="none"/>
      <path d="M44.35 37.95 Q44.15 38.35 43.85 38.25 L43.0 38.4 42.5 38.55 41.8 38.1 41.25 37.65 Q41.15 37.25 41.45 36.75 41.8 36.2 42.6 36.1 43.95 35.9 44.4 37.2 L44.35 37.95" fill="url(#gradient31)" fill-rule="evenodd" stroke="none"/>
      <path d="M42.55 38.3 L42.35 40.05 Q42.25 40.5 41.65 40.8 L40.9 41.0 40.15 40.1 Q39.7 39.45 40.0 38.6 40.2 37.85 40.7 37.7 41.2 37.5 41.75 37.7 L42.55 38.3" fill="url(#gradient32)" fill-rule="evenodd" stroke="none"/>
      <path d="M44.5 38.35 Q45.15 39.0 44.65 40.35 L44.2 41.1 43.7 41.2 Q43.4 41.15 42.95 40.9 L42.4 40.4 42.4 39.5 42.55 38.55 Q42.65 38.15 43.25 38.1 44.1 38.05 44.5 38.35" fill="url(#gradient33)" fill-rule="evenodd" stroke="none"/>
    </g>
    <radialGradient cx="0" cy="0" gradientTransform="matrix(7.0E-4, 0.0022, 0.0022, -7.0E-4, 39.55, 39.45)" gradientUnits="userSpaceOnUse" id="gradient22" r="819.2" spreadMethod="pad">
      <stop offset="0.0" stop-color="#ffa34d"/>
      <stop offset="1.0" stop-color="#cc4b14"/>
    </radialGradient>
    <radialGradient cx="0" cy="0" gradientTransform="matrix(7.0E-4, 0.0021, 0.0021, -7.0E-4, 45.3, 40.5)" gradientUnits="userSpaceOnUse" id="gradient23" r="819.2" spreadMethod="pad">
      <stop offset="0.0" stop-color="#ffa34d"/>
      <stop offset="1.0" stop-color="#cc4b14"/>
    </radialGradient>
    <radialGradient cx="0" cy="0" gradientTransform="matrix(7.0E-4, 0.0021, 0.0021, -7.0E-4, 44.2, 36.75)" gradientUnits="userSpaceOnUse" id="gradient24" r="819.2" spreadMethod="pad">
      <stop offset="0.0" stop-color="#ffa34d"/>
      <stop offset="1.0" stop-color="#cc4b14"/>
    </radialGradient>
    <radialGradient cx="0" cy="0" gradientTransform="matrix(9.0E-4, 0.0026, 0.0026, -9.0E-4, 40.6, 37.15)" gradientUnits="userSpaceOnUse" id="gradient25" r="819.2" spreadMethod="pad">
      <stop offset="0.0" stop-color="#ffa34d"/>
      <stop offset="1.0" stop-color="#cc4b14"/>
    </radialGradient>
    <radialGradient cx="0" cy="0" gradientTransform="matrix(7.0E-4, 0.0022, 0.0022, -7.0E-4, 42.4, 36.0)" gradientUnits="userSpaceOnUse" id="gradient26" r="819.2" spreadMethod="pad">
      <stop offset="0.0" stop-color="#ffa34d"/>
      <stop offset="1.0" stop-color="#cc4b14"/>
    </radialGradient>
    <radialGradient cx="0" cy="0" gradientTransform="matrix(8.0E-4, 0.0025, 0.0025, -8.0E-4, 44.65, 38.55)" gradientUnits="userSpaceOnUse" id="gradient27" r="819.2" spreadMethod="pad">
      <stop offset="0.0" stop-color="#ffa34d"/>
      <stop offset="1.0" stop-color="#cc4b14"/>
    </radialGradient>
    <radialGradient cx="0" cy="0" gradientTransform="matrix(8.0E-4, 0.0025, 0.0025, -8.0E-4, 40.6, 40.4)" gradientUnits="userSpaceOnUse" id="gradient28" r="819.2" spreadMethod="pad">
      <stop offset="0.0" stop-color="#ffa34d"/>
      <stop offset="1.0" stop-color="#cc4b14"/>
    </radialGradient>
    <radialGradient cx="0" cy="0" gradientTransform="matrix(7.0E-4, 0.0022, 0.0022, -7.0E-4, 44.3, 41.1)" gradientUnits="userSpaceOnUse" id="gradient29" r="819.2" spreadMethod="pad">
      <stop offset="0.0" stop-color="#ffa34d"/>
      <stop offset="1.0" stop-color="#cc4b14"/>
    </radialGradient>
    <radialGradient cx="0" cy="0" gradientTransform="matrix(9.0E-4, 0.0026, 0.0026, -9.0E-4, 42.15, 41.1)" gradientUnits="userSpaceOnUse" id="gradient30" r="819.2" spreadMethod="pad">
      <stop offset="0.0" stop-color="#ffa34d"/>
      <stop offset="1.0" stop-color="#cc4b14"/>
    </radialGradient>
    <radialGradient cx="0" cy="0" gradientTransform="matrix(8.0E-4, 0.0023, 0.0023, -8.0E-4, 42.55, 36.85)" gradientUnits="userSpaceOnUse" id="gradient31" r="819.2" spreadMethod="pad">
      <stop offset="0.0" stop-color="#ffa34d"/>
      <stop offset="1.0" stop-color="#cc4b14"/>
    </radialGradient>
    <radialGradient cx="0" cy="0" gradientTransform="matrix(8.0E-4, 0.0025, 0.0025, -8.0E-4, 40.95, 38.7)" gradientUnits="userSpaceOnUse" id="gradient32" r="819.2" spreadMethod="pad">
      <stop offset="0.0" stop-color="#ffa34d"/>
      <stop offset="1.0" stop-color="#cc4b14"/>
    </radialGradient>
    <radialGradient cx="0" cy="0" gradientTransform="matrix(8.0E-4, 0.0023, 0.0023, -7.0E-4, 43.4, 39.1)" gradientUnits="userSpaceOnUse" id="gradient33" r="819.2" spreadMethod="pad">
      <stop offset="0.0" stop-color="#ffa34d"/>
      <stop offset="1.0" stop-color="#cc4b14"/>
    </radialGradient>
    <g id="sprite17" transform="matrix(1.0, 0.0, 0.0, 1.0, 0.0, 0.0)">
      <use height="1.65" transform="matrix(1.087, 0.0, 0.0, 0.9091, -0.0043, 0.0)" width="1.15" xlink:href="#shape11"/>
    </g>
    <g id="sprite18" transform="matrix(1.0, 0.0, 0.0, 1.0, 0.0, 0.0)">
      <use height="1.3" transform="matrix(1.2, 0.0, 0.0, 1.0385, 0.0, 0.0019)" width="1.25" xlink:href="#shape12"/>
    </g>
    <g id="sprite19" transform="matrix(1.0, 0.0, 0.0, 1.0, 0.05, 0.0)">
      <use height="1.65" transform="matrix(0.8261, 0.0, 0.0, 0.9394, -0.0413, 0.0)" width="1.15" xlink:href="#shape11"/>
    </g>
    <g id="sprite20" transform="matrix(1.0, 0.0, 0.0, 1.0, 0.0, 0.0)">
      <use height="1.0" transform="matrix(1.069, 0.0, 0.0, 0.75, 0.0, 0.0)" width="1.45" xlink:href="#shape15"/>
    </g>
    <g id="shape15" transform="matrix(1.0, 0.0, 0.0, 1.0, 0.0, 0.0)">
      <path d="M1.35 0.05 Q1.7 0.3 0.8 0.75 L0.0 0.8 0.65 0.15 1.35 0.05" fill="#fff59e" fill-rule="evenodd" stroke="none"/>
    </g>
    <g id="sprite21" transform="matrix(1.0, 0.0, 0.0, 1.0, 0.0, -0.05)">
      <use height="1.0" transform="matrix(1.1035, 0.0, 0.0, 1.15, 0.0, 0.05)" width="1.45" xlink:href="#shape15"/>
    </g>
    <g id="sprite22" transform="matrix(1.0, 0.0, 0.0, 1.0, -0.05, -0.05)">
      <use height="1.65" transform="matrix(0.9565, 0.0, 0.0, 0.9697, 0.0522, 0.05)" width="1.15" xlink:href="#shape11"/>
    </g>
    <g id="sprite23" transform="matrix(1.0, 0.0, 0.0, 1.0, 0.0, 0.0)">
      <use height="1.65" transform="matrix(0.6957, 0.0, 0.0, 0.9091, 0.0152, 0.0)" width="1.15" xlink:href="#shape11"/>
    </g>
    <g id="sprite24" transform="matrix(1.0, 0.0, 0.0, 1.0, 0.0, 0.0)">
      <use height="1.65" transform="matrix(1.087, 0.0, 0.0, 1.0909, -0.0043, 0.0)" width="1.15" xlink:href="#shape11"/>
    </g>
    <g id="sprite25" transform="matrix(1.0, 0.0, 0.0, 1.0, 0.05, 0.0)">
      <use height="1.65" transform="matrix(0.7826, 0.0, 0.0, 0.4848, -0.0391, 0.0)" width="1.15" xlink:href="#shape11"/>
    </g>
    <g id="sprite26" transform="matrix(1.0, 0.0, 0.0, 1.0, 0.0, 0.0)">
      <use height="1.35" transform="matrix(1.375, 0.0, 0.0, 0.9259, 0.0, 0.0)" width="0.8" xlink:href="#shape13"/>
    </g>
    <g id="sprite27" transform="matrix(1.0, 0.0, 0.0, 1.0, 0.0, 0.0)">
      <use height="1.35" transform="matrix(0.6875, 0.0, 0.0, 1.2222, 0.0, 0.0)" width="0.8" xlink:href="#shape13"/>
    </g>
    <g id="shape16" transform="matrix(1.0, 0.0, 0.0, 1.0, -18.55, -32.4)">
      <path d="M23.2 32.4 Q26.4 32.35 27.55 35.05 28.5 37.5 27.15 39.25 25.55 41.25 22.65 40.95 19.8 40.65 19.0 38.6 17.95 36.2 19.3 34.3 20.6 32.45 23.2 32.4" fill="url(#gradient34)" fill-rule="evenodd" stroke="none"/>
      <path d="M27.15 39.25 Q25.6 41.2 22.8 40.95 20.1 40.75 19.15 38.85 21.05 40.7 23.35 40.4 25.4 40.15 26.2 38.75 27.9 35.85 26.65 33.7 27.75 34.8 27.85 36.6 28.0 38.25 27.15 39.25" fill="#48498f" fill-rule="evenodd" stroke="none"/>
    </g>
    <radialGradient cx="0" cy="0" gradientTransform="matrix(0.0061, 0.006, 0.0052, -0.007, 21.6, 35.4)" gradientUnits="userSpaceOnUse" id="gradient34" r="819.2" spreadMethod="pad">
      <stop offset="0.0" stop-color="#8589ff"/>
      <stop offset="1.0" stop-color="#404082"/>
    </radialGradient>
    <g id="sprite28" transform="matrix(1.0, 0.0, 0.0, 1.0, 0.0, -0.05)">
      <use height="4.3" transform="matrix(1.1223, 0.0, 0.0, 1.1163, 0.0, 0.0442)" width="6.95" xlink:href="#shape5"/>
    </g>
    <g id="shape17" transform="matrix(1.0, 0.0, 0.0, 1.0, -19.35, -36.65)">
      <path d="M22.1 37.7 L22.4 37.6 23.0 37.65 Q23.3 37.9 23.25 38.25 L23.05 38.6 22.65 38.65 23.05 38.8 Q23.45 39.0 23.35 39.3 23.2 39.8 22.7 39.6 23.0 40.3 22.35 40.4 L21.8 40.35 21.7 40.2 21.3 40.55 20.95 40.3 20.9 40.05 20.35 40.1 20.1 39.75 20.2 39.55 Q19.75 39.7 19.55 39.3 19.4 39.1 19.6 38.95 L19.9 38.85 Q19.25 38.95 19.35 38.25 19.4 37.8 19.75 37.8 L20.0 37.85 Q19.4 37.55 19.75 37.05 19.9 36.7 20.25 36.8 L20.65 37.1 20.8 37.3 20.95 37.0 Q21.1 36.7 21.4 36.65 22.1 36.6 22.15 37.2 L22.1 37.7" fill="url(#gradient35)" fill-rule="evenodd" stroke="none"/>
      <path d="M21.55 37.8 Q22.85 38.8 22.3 39.55 21.7 40.3 20.7 39.55 19.75 38.9 20.25 38.0 20.7 37.05 21.55 37.8" fill="url(#gradient36)" fill-rule="evenodd" stroke="none"/>
    </g>
    <linearGradient gradientTransform="matrix(0.0013, 0.0021, 0.0021, -0.0013, 21.4, 38.6)" gradientUnits="userSpaceOnUse" id="gradient35" spreadMethod="pad" x1="-819.2" x2="819.2">
      <stop offset="0.0" stop-color="#4f52a8"/>
      <stop offset="1.0" stop-color="#363670"/>
    </linearGradient>
    <linearGradient gradientTransform="matrix(-2.0E-4, -0.0016, -0.0016, 2.0E-4, 21.25, 38.75)" gradientUnits="userSpaceOnUse" id="gradient36" spreadMethod="pad" x1="-819.2" x2="819.2">
      <stop offset="0.0" stop-color="#4f52a8"/>
      <stop offset="1.0" stop-color="#363670"/>
    </linearGradient>
    <g id="sprite29" transform="matrix(1.0, 0.0, 0.0, 1.0, 0.0, 0.0)">
      <use height="2.35" transform="matrix(1.1139, 0.0, 0.0, 1.1064, 0.0057, 0.0)" width="3.95" xlink:href="#shape6"/>
    </g>
    <g id="shape18" transform="matrix(1.0, 0.0, 0.0, 1.0, -30.2, -24.95)">
      <path d="M31.9 28.2 Q32.8 28.65 32.85 29.8 32.95 30.85 32.4 31.1 30.65 32.1 30.25 30.45 30.1 29.35 30.75 28.65 31.4 28.0 31.9 28.2" fill="url(#gradient37)" fill-rule="evenodd" stroke="none"/>
      <path d="M38.35 30.45 Q38.8 30.45 38.95 31.2 39.15 31.95 38.8 32.55 37.85 34.25 36.7 32.95 36.05 32.25 36.7 31.3 37.3 30.35 38.35 30.45" fill="url(#gradient38)" fill-rule="evenodd" stroke="none"/>
      <path d="M36.35 26.1 L37.75 26.3 Q38.75 26.85 38.55 27.85 38.35 28.9 37.55 28.95 36.85 28.95 36.15 28.4 35.65 27.95 35.7 27.15 35.8 26.4 36.35 26.1" fill="url(#gradient39)" fill-rule="evenodd" stroke="none"/>
      <path d="M34.7 26.55 Q35.5 27.35 34.7 28.4 33.85 29.4 32.75 29.2 31.75 29.0 31.45 28.0 31.25 27.0 31.9 26.3 32.65 25.55 33.5 25.8 34.0 25.95 34.7 26.55" fill="url(#gradient40)" fill-rule="evenodd" stroke="none"/>
      <path d="M33.95 27.3 Q33.55 26.8 33.9 25.85 34.3 24.85 35.35 24.95 36.55 25.05 36.8 25.95 37.0 26.6 36.6 27.3 36.25 27.95 35.55 28.05 34.7 28.1 33.95 27.3" fill="url(#gradient41)" fill-rule="evenodd" stroke="none"/>
      <path d="M37.7 28.0 Q38.4 27.95 38.85 28.75 39.25 29.55 38.95 30.2 L38.05 31.25 36.7 31.2 Q35.7 30.75 35.8 29.5 35.95 28.1 37.7 28.0" fill="url(#gradient42)" fill-rule="evenodd" stroke="none"/>
      <path d="M33.3 29.55 Q34.35 30.35 34.4 30.9 34.45 31.45 33.65 32.3 32.95 33.1 32.0 32.7 31.15 32.4 31.0 31.45 30.85 30.35 31.75 29.65 L33.3 29.55" fill="url(#gradient43)" fill-rule="evenodd" stroke="none"/>
      <path d="M37.05 30.85 Q38.2 31.65 37.75 32.85 37.3 34.0 36.1 34.0 35.2 34.05 35.15 33.15 L35.4 31.7 Q35.55 31.15 36.1 30.85 36.7 30.55 37.05 30.85" fill="url(#gradient44)" fill-rule="evenodd" stroke="none"/>
      <path d="M35.85 31.5 Q36.4 33.65 34.8 33.9 33.25 34.15 32.65 33.0 32.25 32.1 32.75 31.25 33.15 30.45 33.85 30.45 35.5 30.3 35.85 31.5" fill="url(#gradient45)" fill-rule="evenodd" stroke="none"/>
      <path d="M37.1 27.5 L36.95 28.35 Q36.7 28.7 36.35 28.65 L35.4 28.6 34.8 28.65 Q34.75 28.55 34.1 28.15 L33.55 27.55 Q33.55 27.1 33.95 26.6 34.45 26.0 35.3 26.0 36.15 26.05 36.65 26.6 L37.1 27.5" fill="url(#gradient46)" fill-rule="evenodd" stroke="none"/>
      <path d="M34.9 28.5 Q35.05 28.7 34.8 29.45 L34.45 30.35 34.2 30.75 33.55 31.05 32.7 31.2 32.0 30.05 Q31.6 29.25 32.05 28.4 32.4 27.65 32.95 27.5 L34.1 27.65 Q34.7 27.95 34.9 28.5" fill="url(#gradient47)" fill-rule="evenodd" stroke="none"/>
      <path d="M37.0 28.8 Q37.7 29.55 36.9 31.0 36.35 32.0 35.75 31.8 L34.95 31.35 34.4 30.75 34.9 28.75 Q35.1 28.35 35.65 28.35 36.7 28.4 37.0 28.8" fill="url(#gradient48)" fill-rule="evenodd" stroke="none"/>
    </g>
    <radialGradient cx="0" cy="0" gradientTransform="matrix(5.0E-4, 0.0026, 0.0026, -5.0E-4, 31.45, 29.25)" gradientUnits="userSpaceOnUse" id="gradient37" r="819.2" spreadMethod="pad">
      <stop offset="0.0" stop-color="#ffa34d"/>
      <stop offset="1.0" stop-color="#cc4b14"/>
    </radialGradient>
    <radialGradient cx="0" cy="0" gradientTransform="matrix(5.0E-4, 0.0024, 0.0024, -5.0E-4, 37.6, 31.3)" gradientUnits="userSpaceOnUse" id="gradient38" r="819.2" spreadMethod="pad">
      <stop offset="0.0" stop-color="#ffa34d"/>
      <stop offset="1.0" stop-color="#cc4b14"/>
    </radialGradient>
    <radialGradient cx="0" cy="0" gradientTransform="matrix(4.0E-4, 0.0024, 0.0024, -4.0E-4, 36.9, 26.95)" gradientUnits="userSpaceOnUse" id="gradient39" r="819.2" spreadMethod="pad">
      <stop offset="0.0" stop-color="#ffa34d"/>
      <stop offset="1.0" stop-color="#cc4b14"/>
    </radialGradient>
    <radialGradient cx="0" cy="0" gradientTransform="matrix(6.0E-4, 0.003, 0.003, -6.0E-4, 32.95, 26.85)" gradientUnits="userSpaceOnUse" id="gradient40" r="819.2" spreadMethod="pad">
      <stop offset="0.0" stop-color="#ffa34d"/>
      <stop offset="1.0" stop-color="#cc4b14"/>
    </radialGradient>
    <radialGradient cx="0" cy="0" gradientTransform="matrix(5.0E-4, 0.0026, 0.0026, -5.0E-4, 35.1, 25.9)" gradientUnits="userSpaceOnUse" id="gradient41" r="819.2" spreadMethod="pad">
      <stop offset="0.0" stop-color="#ffa34d"/>
      <stop offset="1.0" stop-color="#cc4b14"/>
    </radialGradient>
    <radialGradient cx="0" cy="0" gradientTransform="matrix(5.0E-4, 0.0029, 0.0029, -5.0E-4, 37.2, 29.0)" gradientUnits="userSpaceOnUse" id="gradient42" r="819.2" spreadMethod="pad">
      <stop offset="0.0" stop-color="#ffa34d"/>
      <stop offset="1.0" stop-color="#cc4b14"/>
    </radialGradient>
    <radialGradient cx="0" cy="0" gradientTransform="matrix(5.0E-4, 0.0029, 0.0029, -5.0E-4, 32.45, 30.45)" gradientUnits="userSpaceOnUse" id="gradient43" r="819.2" spreadMethod="pad">
      <stop offset="0.0" stop-color="#ffa34d"/>
      <stop offset="1.0" stop-color="#cc4b14"/>
    </radialGradient>
    <radialGradient cx="0" cy="0" gradientTransform="matrix(5.0E-4, 0.0026, 0.0026, -5.0E-4, 36.4, 31.8)" gradientUnits="userSpaceOnUse" id="gradient44" r="819.2" spreadMethod="pad">
      <stop offset="0.0" stop-color="#ffa34d"/>
      <stop offset="1.0" stop-color="#cc4b14"/>
    </radialGradient>
    <radialGradient cx="0" cy="0" gradientTransform="matrix(6.0E-4, 0.003, 0.003, -6.0E-4, 34.0, 31.5)" gradientUnits="userSpaceOnUse" id="gradient45" r="819.2" spreadMethod="pad">
      <stop offset="0.0" stop-color="#ffa34d"/>
      <stop offset="1.0" stop-color="#cc4b14"/>
    </radialGradient>
    <radialGradient cx="0" cy="0" gradientTransform="matrix(5.0E-4, 0.0027, 0.0027, -5.0E-4, 35.15, 26.85)" gradientUnits="userSpaceOnUse" id="gradient46" r="819.2" spreadMethod="pad">
      <stop offset="0.0" stop-color="#ffa34d"/>
      <stop offset="1.0" stop-color="#cc4b14"/>
    </radialGradient>
    <radialGradient cx="0" cy="0" gradientTransform="matrix(5.0E-4, 0.0029, 0.0029, -5.0E-4, 33.1, 28.65)" gradientUnits="userSpaceOnUse" id="gradient47" r="819.2" spreadMethod="pad">
      <stop offset="0.0" stop-color="#ffa34d"/>
      <stop offset="1.0" stop-color="#cc4b14"/>
    </radialGradient>
    <radialGradient cx="0" cy="0" gradientTransform="matrix(5.0E-4, 0.0026, 0.0026, -5.0E-4, 35.7, 29.45)" gradientUnits="userSpaceOnUse" id="gradient48" r="819.2" spreadMethod="pad">
      <stop offset="0.0" stop-color="#ffa34d"/>
      <stop offset="1.0" stop-color="#cc4b14"/>
    </radialGradient>
    <g id="sprite30" transform="matrix(1.0, 0.0, 0.0, 1.0, 0.0, 0.0)">
      <use height="1.3" transform="matrix(1.2, 0.0, 0.0, 1.2308, 0.0, 0.0115)" width="1.25" xlink:href="#shape12"/>
    </g>
    <g id="sprite31" transform="matrix(1.0, 0.0, 0.0, 1.0, 0.0, 0.0)">
      <use height="1.3" transform="matrix(1.36, 0.0, 0.0, 1.0769, 0.0, 0.0038)" width="1.25" xlink:href="#shape12"/>
    </g>
    <g id="sprite32" transform="matrix(1.0, 0.0, 0.0, 1.0, 0.0, 0.0)">
      <use height="1.3" transform="matrix(0.96, 0.0, 0.0, 1.3077, 0.0, 0.0154)" width="1.25" xlink:href="#shape12"/>
    </g>
    <g id="sprite33" transform="matrix(1.0, 0.0, 0.0, 1.0, 0.05, 0.0)">
      <use height="1.65" transform="matrix(1.5652, 0.0, 0.0, 0.4242, -0.0283, 0.0)" width="1.15" xlink:href="#shape11"/>
    </g>
    <g id="sprite34" transform="matrix(1.0, 0.0, 0.0, 1.0, 0.0, 0.0)">
      <use height="1.0" transform="matrix(1.2759, 0.0, 0.0, 1.2, 0.0, 0.0)" width="1.45" xlink:href="#shape15"/>
    </g>
    <g id="sprite35" transform="matrix(1.0, 0.0, 0.0, 1.0, 0.0, 0.0)">
      <use height="1.65" transform="matrix(1.1304, 0.0, 0.0, 1.0909, -0.0065, 0.0)" width="1.15" xlink:href="#shape11"/>
    </g>
    <g id="sprite36" transform="matrix(1.0, 0.0, 0.0, 1.0, 0.05, 0.0)">
      <use height="1.65" transform="matrix(0.7826, 0.0, 0.0, 1.0, -0.0391, 0.0)" width="1.15" xlink:href="#shape11"/>
    </g>
    <g id="sprite37" transform="matrix(1.0, 0.0, 0.0, 1.0, 0.0, 0.05)">
      <use height="1.65" transform="matrix(1.2609, 0.0, 0.0, 1.2121, -0.013, -0.05)" width="1.15" xlink:href="#shape11"/>
    </g>
    <g id="sprite38" transform="matrix(1.0, 0.0, 0.0, 1.0, 0.0, 0.0)">
      <use height="1.35" transform="matrix(1.1875, 0.0, 0.0, 0.6667, 0.0, 0.0)" width="0.8" xlink:href="#shape13"/>
    </g>
    <g id="sprite39" transform="matrix(1.0, 0.0, 0.0, 1.0, 0.0, 0.0)">
      <use height="1.35" transform="matrix(1.3125, 0.0, 0.0, 1.1111, 0.0, 0.0)" width="0.8" xlink:href="#shape13"/>
    </g>
    <g id="sprite40" transform="matrix(1.0, 0.0, 0.0, 1.0, -0.05, 0.0)">
      <use height="1.85" transform="matrix(0.9091, 0.0, 0.0, 1.0, 0.05, 0.0)" width="0.55" xlink:href="#shape19"/>
    </g>
    <g id="shape19" transform="matrix(1.0, 0.0, 0.0, 1.0, 0.0, 0.0)">
      <path d="M0.0 1.0 Q-0.05 -0.15 0.3 0.05 L0.55 0.75 0.3 1.75 Q0.05 2.2 0.0 1.0" fill="#fff59e" fill-rule="evenodd" stroke="none"/>
    </g>
    <g id="shape20" transform="matrix(1.0, 0.0, 0.0, 1.0, -16.55, -33.1)">
      <path d="M40.15 33.45 L40.6 33.75 41.35 34.8 42.0 36.6 Q42.1 37.2 41.65 38.15 40.95 39.7 37.55 40.8 36.45 41.1 35.0 41.8 L33.8 42.4 33.05 41.7 32.35 40.5 32.7 40.1 40.15 33.45" fill="#aa0504" fill-rule="evenodd" stroke="none"/>
      <path d="M40.65 34.1 L40.9 35.25 Q40.9 35.85 40.2 36.75 L38.2 38.2 Q35.15 39.6 33.55 40.55 L32.65 40.8 Q32.35 40.65 32.45 39.9 32.65 38.55 33.6 36.4 34.6 34.1 36.65 33.45 38.6 32.75 40.15 33.45 L40.65 34.1" fill="#ed372a" fill-rule="evenodd" stroke="none"/>
      <path d="M39.95 33.9 Q40.45 34.45 40.3 35.55 L39.8 36.6 Q39.25 37.2 38.05 37.8 34.9 39.25 34.2 39.65 33.4 40.15 33.15 40.1 32.7 40.05 33.25 38.7 L34.0 36.45 Q34.35 35.55 34.8 35.0 36.15 33.5 38.2 33.4 L39.45 33.5 39.95 33.9" fill="#ff8c8c" fill-rule="evenodd" stroke="none"/>
      <path d="M35.5 36.1 L34.75 36.25 Q34.3 36.25 34.5 36.05 L35.65 35.85 Q36.05 35.85 35.5 36.1" fill="#ffbfbf" fill-rule="evenodd" stroke="none"/>
      <path d="M37.45 34.0 L37.5 34.35 37.85 34.2 39.25 34.25 39.35 34.65 39.9 34.75 40.0 34.95 39.25 34.9 38.8 35.4 Q39.85 35.75 39.85 36.25 L39.85 36.6 38.65 35.6 38.65 35.55 38.5 35.7 38.0 36.1 38.4 37.1 38.4 37.5 Q38.3 37.65 38.15 37.6 37.6 37.2 37.75 36.3 L37.3 36.6 37.1 37.7 36.7 38.3 Q36.5 38.3 36.95 36.9 L36.1 37.55 35.9 38.45 35.6 38.85 Q35.4 38.7 35.75 37.8 L35.0 38.35 34.7 39.15 34.35 39.45 Q34.3 39.3 34.75 38.55 L34.45 38.75 33.55 39.6 Q32.95 40.05 33.05 39.8 33.25 39.35 34.2 38.65 L34.3 38.4 33.4 38.6 Q34.0 38.25 34.55 38.0 L34.9 37.5 33.8 37.7 Q34.3 37.25 35.25 37.05 L35.6 36.6 34.6 36.9 34.2 36.95 35.85 36.25 36.25 35.7 35.85 35.5 35.1 35.3 Q34.75 35.15 35.0 35.1 L35.8 35.05 36.7 35.15 37.05 34.7 Q36.85 34.45 37.0 34.05 L37.45 34.0" fill="#ffbfbf" fill-rule="evenodd" stroke="none"/>
      <path d="M38.9 34.3 Q39.1 34.45 38.6 35.0 L37.45 35.95 34.8 37.95 36.6 35.55 Q37.2 34.7 37.85 34.35 L38.9 34.3" fill="#e38672" fill-rule="evenodd" stroke="none"/>
      <path d="M37.75 39.3 Q38.55 39.0 38.3 39.45 L37.6 40.0 Q37.2 40.1 37.3 39.75 37.4 39.45 37.75 39.3" fill="#c2570d" fill-rule="evenodd" stroke="none"/>
      <path d="M40.75 36.65 Q41.2 36.4 41.05 36.8 L40.6 37.4 Q40.25 37.65 40.3 37.25 40.4 36.85 40.75 36.65" fill="#c2570d" fill-rule="evenodd" stroke="none"/>
      <path d="M40.1 38.45 Q40.65 38.25 40.5 38.7 L39.9 39.25 Q39.5 39.3 39.7 38.95 L40.1 38.45" fill="#c2570d" fill-rule="evenodd" stroke="none"/>
      <path d="M35.2 40.1 Q35.65 39.95 35.55 40.25 L35.05 40.7 Q34.6 40.95 34.6 40.6 34.7 40.2 35.2 40.1" fill="#c2570d" fill-rule="evenodd" stroke="none"/>
      <path d="M49.9 38.9 L50.05 38.85 Q48.65 43.85 44.05 47.05 39.3 50.3 33.3 50.3 27.25 50.3 22.55 47.0 17.9 43.75 16.55 38.7 L16.85 38.8 Q18.25 40.0 22.85 40.8 L33.45 41.55 43.8 40.8 Q48.3 40.05 49.9 38.9" fill="#a0daf2" fill-rule="evenodd" stroke="none"/>
      <path d="M48.55 39.6 L47.5 41.95 Q46.15 44.35 43.3 46.75 41.15 48.6 37.75 49.8 L36.05 50.1 Q40.45 48.25 42.25 45.05 43.1 43.6 43.3 42.3 L43.45 40.8 Q46.9 40.3 48.55 39.6" fill="#8cc7de" fill-rule="evenodd" stroke="none"/>
    </g>
    <g id="sprite41" transform="matrix(1.0, 0.0, 0.0, 1.0, 0.0, 0.0)">
      <use height="13.6" transform="matrix(1.0, 0.0, 0.0, 1.0, 0.0, 0.0)" width="23.65" xlink:href="#shape21"/>
    </g>
    <g id="shape21" transform="matrix(1.0, 0.0, 0.0, 1.0, 0.0, 0.0)">
      <path d="M23.65 1.8 L20.55 13.5 18.25 13.6 15.55 13.45 Q13.9 13.2 11.95 12.35 9.85 11.5 8.45 10.5 3.9 7.3 1.5 3.3 0.3 1.35 0.0 0.0 L2.6 0.55 Q9.0 1.95 18.45 1.95 L23.65 1.8" fill="url(#gradient49)" fill-rule="evenodd" stroke="none"/>
    </g>
    <linearGradient gradientTransform="matrix(0.0093, 0.0, 0.0, -0.0093, 11.05, 6.8)" gradientUnits="userSpaceOnUse" id="gradient49" spreadMethod="pad" x1="-819.2" x2="819.2">
      <stop offset="0.0" stop-color="#ffffff"/>
      <stop offset="1.0" stop-color="#a0daf2"/>
    </linearGradient>
    <g id="sprite42" transform="matrix(1.0, 0.0, 0.0, 1.0, 0.0, 0.0)">
      <use height="12.0" transform="matrix(1.1267, 0.0, 0.0, 1.1208, 0.0, 0.0)" width="11.05" xlink:href="#shape22"/>
    </g>
    <g id="shape22" transform="matrix(1.0, 0.0, 0.0, 1.0, 0.0, 0.0)">
      <path d="M11.05 12.0 Q6.9 10.25 4.0 7.15 1.05 3.95 0.0 0.0 L0.3 0.05 0.95 0.5 Q1.95 3.2 3.25 5.2 6.25 9.85 11.05 12.0" fill="#000000" fill-rule="evenodd" stroke="none"/>
    </g>
    <g id="shape23" transform="matrix(1.0, 0.0, 0.0, 1.0, -16.4, -38.4)">
      <path d="M49.3 38.4 L50.05 38.4 50.05 38.55 Q50.05 39.85 45.15 40.75 L33.25 41.65 21.35 40.75 Q16.4 39.85 16.4 38.55 L16.45 38.4 17.35 38.4 Q17.35 39.45 22.05 40.2 L33.3 40.95 44.6 40.2 Q49.3 39.45 49.3 38.4" fill="#c9e5f2" fill-rule="evenodd" stroke="none"/>
    </g>
  </defs>
</svg>
