<?xml version="1.0" encoding="UTF-8" standalone="no"?>
<svg xmlns:xlink="http://www.w3.org/1999/xlink" height="59.35px" width="52.85px" xmlns="http://www.w3.org/2000/svg">
  <g transform="matrix(1.0, 0.0, 0.0, 1.0, 0.0, 0.0)">
    <use height="37.6" transform="matrix(1.0, 0.0, 0.0, 1.0, 0.0, 0.0)" width="38.15" xlink:href="#shape0"/>
  </g>
  <defs>
    <g id="shape0" transform="matrix(1.0, 0.0, 0.0, 1.0, 0.0, 0.0)">
      <path d="M31.6 0.75 L32.35 1.0 34.95 2.7 Q36.25 3.8 37.2 5.05 L37.85 6.2 38.15 7.0 34.1 10.45 Q34.4 11.65 33.8 12.25 L33.1 12.55 32.15 12.5 21.25 23.0 Q22.8 26.85 21.2 30.75 19.5 34.85 15.45 36.7 11.35 38.4 7.2 36.85 3.05 35.3 1.3 31.25 -0.45 27.3 1.2 23.15 2.9 19.05 6.95 17.3 11.05 15.5 15.25 17.1 L15.6 17.25 26.55 6.6 26.45 5.7 26.85 5.0 26.9 4.95 Q27.4 4.45 28.4 4.75 L31.6 0.75" fill="url(#gradient0)" fill-rule="evenodd" stroke="none"/>
      <path d="M10.1 26.5 Q12.5 29.0 14.85 30.55 17.2 32.1 18.75 32.25 L17.4 33.8 Q14.4 36.7 10.2 36.6 6.05 36.45 3.1 33.4 0.2 30.4 0.35 26.15 0.5 22.0 3.5 19.1 L4.95 18.05 Q5.45 21.45 10.1 26.5" fill="url(#gradient1)" fill-rule="evenodd" stroke="none"/>
      <path d="M10.6 29.6 Q10.15 29.95 9.65 29.95 9.0 29.9 8.7 29.5 8.25 29.05 8.2 28.5 8.2 27.9 8.65 27.55 9.05 27.15 9.6 27.2 10.2 27.2 10.55 27.65 11.0 28.1 11.0 28.6 11.0 29.2 10.6 29.6" fill="url(#gradient2)" fill-rule="evenodd" stroke="none"/>
      <path d="M4.95 21.95 L3.8 21.9 Q3.55 21.65 3.6 21.3 3.55 20.95 3.85 20.75 4.35 20.25 4.95 20.85 5.5 21.4 4.95 21.95" fill="url(#gradient3)" fill-rule="evenodd" stroke="none"/>
      <path d="M7.9 24.3 L6.75 24.25 Q6.2 23.7 6.75 23.15 L7.9 23.2 Q8.45 23.75 7.9 24.3" fill="url(#gradient4)" fill-rule="evenodd" stroke="none"/>
      <path d="M13.5 27.3 L12.95 27.45 Q12.65 27.45 12.4 27.2 11.85 26.55 12.35 26.05 12.6 25.8 12.95 25.85 L13.5 26.1 Q14.05 26.75 13.5 27.3" fill="url(#gradient5)" fill-rule="evenodd" stroke="none"/>
      <path d="M5.35 27.85 Q4.95 28.25 4.35 28.25 3.8 28.2 3.4 27.8 3.05 27.35 3.05 26.75 3.0 26.2 3.4 25.9 3.8 25.5 4.4 25.5 5.0 25.5 5.35 25.95 5.75 26.35 5.75 26.95 5.75 27.55 5.35 27.85" fill="url(#gradient6)" fill-rule="evenodd" stroke="none"/>
      <path d="M14.05 33.35 L12.85 33.25 12.65 32.75 Q12.65 32.35 12.9 32.1 L13.45 31.95 14.05 32.15 Q14.65 32.75 14.05 33.35" fill="url(#gradient7)" fill-rule="evenodd" stroke="none"/>
      <path d="M19.0 32.0 Q18.2 32.7 15.6 31.1 13.05 29.45 10.25 26.45 7.4 23.5 5.95 20.85 4.45 18.15 5.25 17.45 6.0 16.7 8.6 18.3 11.15 19.95 13.95 22.95 16.85 25.95 18.3 28.6 19.75 31.25 19.0 32.0" fill="url(#gradient8)" fill-rule="evenodd" stroke="none"/>
      <path d="M15.6 31.1 Q18.15 32.65 18.95 32.05 18.1 32.7 15.9 31.6 13.35 30.25 10.1 26.8 6.75 23.35 5.5 20.6 4.4 18.3 5.2 17.5 4.45 18.25 5.95 20.85 7.4 23.5 10.25 26.45 13.05 29.45 15.6 31.1" fill="#e3efd6" fill-rule="evenodd" stroke="none"/>
      <path d="M7.95 19.15 Q7.35 18.45 7.3 18.0 8.3 17.3 8.95 18.15 9.75 18.95 9.05 19.95 L7.95 19.15" fill="url(#gradient9)" fill-rule="evenodd" stroke="none"/>
      <path d="M12.95 26.65 L12.45 25.75 13.75 25.85 Q14.4 26.5 13.8 27.3 L12.95 26.65" fill="url(#gradient10)" fill-rule="evenodd" stroke="none"/>
      <path d="M9.65 24.95 Q9.0 24.3 8.8 23.6 10.0 22.9 10.9 23.8 L11.25 24.75 Q11.25 25.45 10.85 25.85 10.3 25.7 9.65 24.95" fill="url(#gradient11)" fill-rule="evenodd" stroke="none"/>
      <path d="M17.25 28.15 L16.55 26.95 Q17.4 26.6 18.1 27.3 18.9 28.2 18.3 29.0 L17.25 28.15" fill="url(#gradient12)" fill-rule="evenodd" stroke="none"/>
      <path d="M28.8 8.8 L29.7 9.7 Q30.6 10.7 30.45 11.45 L27.45 11.55 26.3 11.4 Q25.15 11.55 25.15 13.05 L25.55 14.35 Q25.8 15.5 25.25 15.85 24.85 16.25 23.9 16.5 23.2 16.7 22.9 17.0 L21.55 17.25 Q20.5 17.4 20.05 18.15 L19.3 19.9 Q19.0 20.7 18.7 20.7 18.3 20.7 19.0 21.8 L20.0 23.7 Q20.6 26.2 19.8 28.8 L19.0 31.7 Q19.15 33.05 17.05 32.15 14.6 31.1 11.0 27.3 7.55 23.65 6.25 20.65 5.15 18.25 5.95 18.25 L8.45 17.65 11.7 17.3 Q12.5 17.5 13.1 18.7 13.65 19.75 14.25 19.85 14.95 19.85 15.25 18.85 L15.6 17.5 Q17.05 16.05 18.75 15.55 L20.45 15.25 21.5 14.3 22.6 11.8 Q23.15 10.15 23.65 9.55 24.3 8.9 25.95 9.35 L28.15 9.95 Q28.95 10.15 28.8 8.8" fill="url(#gradient13)" fill-rule="evenodd" stroke="none"/>
      <path d="M15.05 35.95 Q10.95 37.75 6.8 36.2 2.7 34.6 0.9 30.6 -0.8 26.6 0.8 22.5 2.5 18.4 6.6 16.6 10.7 14.8 14.85 16.35 18.95 17.95 20.75 21.95 22.55 25.95 20.85 30.05 19.15 34.15 15.05 35.95" fill="url(#gradient14)" fill-rule="evenodd" stroke="none"/>
      <path d="M20.75 21.95 Q22.55 25.95 20.85 30.05 19.15 34.15 15.05 35.95 10.95 37.75 6.8 36.2 2.7 34.6 0.9 30.6 -0.8 26.6 0.8 22.5 2.5 18.4 6.6 16.6 10.7 14.8 14.85 16.35 18.95 17.95 20.75 21.95 M20.75 29.95 Q22.35 25.95 20.65 21.95 18.95 18.05 14.85 16.55 10.85 14.95 6.8 16.7 2.8 18.5 1.2 22.5 -0.45 26.55 1.25 30.45 3.0 34.4 7.05 35.95 11.1 37.5 15.1 35.7 19.15 33.95 20.75 29.95" fill="url(#gradient15)" fill-rule="evenodd" stroke="none"/>
      <path d="M17.3 23.6 Q18.45 25.95 16.85 28.45 L15.0 30.4 Q13.65 32.05 11.55 32.05 7.35 32.05 3.4 24.2 2.25 21.85 4.25 19.45 6.1 17.4 8.7 16.7 L11.45 16.55 Q12.65 16.75 12.9 17.0 L12.8 17.4 Q12.75 18.15 13.45 19.65 14.7 22.2 17.3 23.6" fill="url(#gradient16)" fill-rule="evenodd" stroke="none"/>
      <path d="M19.3 24.4 Q19.95 24.35 20.35 22.85 L20.9 25.0 Q21.2 27.6 20.4 29.6 19.6 31.5 17.95 33.05 L16.45 34.25 15.05 33.25 15.9 32.8 Q17.0 32.0 18.1 30.2 19.25 28.35 19.4 26.2 L19.3 24.4" fill="url(#gradient17)" fill-rule="evenodd" stroke="none"/>
      <path d="M20.05 23.25 L18.5 23.2 Q17.4 22.7 16.25 21.55 L18.45 23.15 19.9 23.2 Q20.3 22.8 19.85 21.65 19.35 20.55 18.15 19.35 16.95 18.05 15.85 17.55 L14.25 17.45 Q13.85 17.75 14.2 18.7 13.75 17.65 14.15 17.25 14.65 16.85 15.85 17.45 17.0 18.0 18.25 19.25 19.4 20.5 20.0 21.7 20.5 22.9 20.05 23.25" fill="url(#gradient18)" fill-rule="evenodd" stroke="none"/>
      <path d="M19.9 23.2 L18.25 23.05 Q17.15 22.45 15.95 21.25 14.8 20.1 14.3 18.9 13.8 17.8 14.25 17.45 L15.85 17.55 Q16.95 18.05 18.15 19.35 19.35 20.55 19.85 21.65 20.3 22.8 19.9 23.2" fill="url(#gradient19)" fill-rule="evenodd" stroke="none"/>
      <path d="M33.6 9.4 Q34.1 10.9 33.4 11.5 L31.25 11.55 Q29.75 10.95 28.25 9.45 26.85 7.95 26.35 6.45 25.8 4.9 26.45 4.25 27.2 3.6 28.65 4.25 30.15 4.85 31.6 6.3 33.05 7.85 33.6 9.4 M31.45 10.35 L33.05 10.45 Q33.5 10.0 33.0 8.9 32.55 7.75 31.4 6.5 30.3 5.3 29.1 4.8 L27.55 4.65 Q27.05 5.15 27.5 6.3 28.05 7.45 29.15 8.65 30.3 9.8 31.45 10.35" fill="url(#gradient20)" fill-rule="evenodd" stroke="none"/>
      <path d="M26.55 5.65 Q26.25 6.25 26.8 7.3 27.25 8.35 28.25 9.45 L30.4 11.1 Q31.45 11.65 32.1 11.4 L20.15 23.05 19.95 23.25 18.3 23.2 15.9 21.5 Q14.75 20.25 14.3 19.1 13.8 17.9 14.3 17.4 14.45 17.35 14.55 17.25 L26.55 5.65" fill="url(#gradient21)" fill-rule="evenodd" stroke="none"/>
      <path d="M28.35 9.35 Q29.85 11.05 31.3 11.3 L20.25 22.15 20.1 22.4 Q19.6 22.8 18.5 22.4 L16.45 21.05 Q15.45 19.95 15.1 18.9 14.7 17.8 15.2 17.4 L15.45 17.15 26.55 6.35 Q26.8 7.8 28.35 9.35" fill="url(#gradient22)" fill-rule="evenodd" stroke="none"/>
      <path d="M16.95 22.25 L16.0 21.4 14.7 19.8 14.7 19.6 16.2 21.5 16.95 22.25" fill="url(#gradient23)" fill-rule="evenodd" stroke="none"/>
      <path d="M26.55 5.55 L26.5 6.0 15.65 16.65 15.55 16.75 Q14.8 17.6 14.7 18.4 L14.5 18.4 14.3 17.9 Q14.2 17.8 14.15 18.05 L14.25 18.35 14.15 18.45 Q14.0 17.7 14.4 17.3 L14.65 17.15 26.55 5.55" fill="url(#gradient24)" fill-rule="evenodd" stroke="none"/>
      <path d="M31.2 11.8 L31.35 11.55 30.9 11.3 30.95 11.25 32.15 11.35 20.25 22.95 20.0 23.2 19.2 23.4 19.05 22.95 19.8 22.7 20.3 22.5 31.2 11.8" fill="url(#gradient25)" fill-rule="evenodd" stroke="none"/>
      <path d="M26.65 6.95 L27.35 8.15 15.4 19.8 15.2 19.8 15.2 19.9 15.15 19.95 15.0 19.4 14.85 19.35 14.7 19.6 14.25 18.35 14.5 18.4 14.75 19.05 14.7 18.4 14.9 18.5 26.65 6.95" fill="url(#gradient26)" fill-rule="evenodd" stroke="none"/>
      <path d="M14.75 19.05 L14.5 18.4 14.7 18.4 14.75 19.05" fill="url(#gradient27)" fill-rule="evenodd" stroke="none"/>
      <path d="M14.75 19.05 L14.5 18.4 14.7 18.4 14.75 19.05" fill="url(#gradient28)" fill-rule="evenodd" stroke="none"/>
      <path d="M29.8 10.6 L30.8 11.3 30.9 11.3 19.05 22.85 19.05 22.95 18.4 22.9 18.85 23.35 Q18.35 23.25 17.85 22.95 L18.2 22.8 18.1 22.7 17.55 22.45 29.8 10.6" fill="url(#gradient29)" fill-rule="evenodd" stroke="none"/>
      <path d="M19.05 22.95 L19.2 23.4 18.85 23.35 18.4 22.9 19.05 22.95" fill="url(#gradient30)" fill-rule="evenodd" stroke="none"/>
      <path d="M19.05 22.95 L19.2 23.4 18.85 23.35 18.4 22.9 19.05 22.95" fill="url(#gradient31)" fill-rule="evenodd" stroke="none"/>
      <path d="M15.2 19.8 L15.4 19.8 15.75 20.25 Q16.1 21.1 15.8 20.7 L15.2 19.9 15.2 19.8" fill="#ffffff" fill-rule="evenodd" stroke="none"/>
      <path d="M16.0 21.1 L16.1 20.9 Q16.3 20.9 16.35 21.05 L16.3 21.2 16.0 21.1" fill="#ffffff" fill-rule="evenodd" stroke="none"/>
      <path d="M33.05 10.45 L31.45 10.35 Q30.3 9.8 29.15 8.65 28.05 7.45 27.5 6.3 27.05 5.15 27.55 4.65 L29.1 4.8 Q30.3 5.3 31.4 6.5 32.55 7.75 33.0 8.9 33.5 10.0 33.05 10.45" fill="url(#gradient32)" fill-rule="evenodd" stroke="none"/>
      <path d="M33.6 9.4 Q34.1 10.9 33.4 11.5 L31.25 11.55 Q29.75 10.95 28.25 9.45 26.85 7.95 26.35 6.45 25.8 4.9 26.45 4.25 27.2 3.6 28.65 4.25 30.15 4.85 31.6 6.3 33.05 7.85 33.6 9.4 M31.35 11.15 L33.3 11.2 Q33.9 10.6 33.35 9.25 32.85 7.85 31.45 6.45 30.1 5.0 28.7 4.4 27.4 3.8 26.8 4.4 26.15 4.95 26.75 6.35 27.25 7.75 28.6 9.1 29.95 10.55 31.35 11.15" fill="url(#gradient33)" fill-rule="evenodd" stroke="none"/>
      <path d="M33.05 10.45 L31.45 10.35 Q30.3 9.8 29.15 8.65 28.05 7.45 27.5 6.3 27.05 5.15 27.55 4.65 L29.1 4.8 30.5 5.7 Q29.85 5.15 29.2 4.9 L27.7 4.8 Q27.2 5.2 27.7 6.3 28.1 7.4 29.25 8.55 30.3 9.7 31.4 10.2 L32.9 10.3 Q33.4 9.9 32.95 8.85 L32.25 7.55 33.05 8.95 Q33.5 10.0 33.05 10.45" fill="url(#gradient34)" fill-rule="evenodd" stroke="none"/>
      <path d="M33.0 8.9 Q33.5 10.0 33.05 10.45 L31.45 10.35 Q30.3 9.8 29.15 8.65 28.05 7.45 27.5 6.3 27.05 5.15 27.55 4.65 L29.1 4.8 30.5 5.7 Q29.85 5.15 29.2 4.9 L27.8 4.8 Q27.3 5.2 27.8 6.3 L29.3 8.5 Q30.35 9.65 31.45 10.15 L32.95 10.25 Q33.4 9.8 32.9 8.7 L32.5 7.9 33.0 8.9" fill="url(#gradient35)" fill-rule="evenodd" stroke="none"/>
      <path d="M37.75 6.25 L32.95 10.35 32.0 10.3 Q30.85 9.95 29.35 8.45 27.9 6.9 27.5 5.7 L27.4 4.8 31.2 0.0 32.0 0.3 34.5 2.0 Q36.15 3.35 37.1 4.9 L37.75 6.25" fill="#a78a56" fill-rule="evenodd" stroke="none"/>
      <path d="M35.4 5.8 L35.35 6.25 34.3 6.1 32.3 4.5 Q30.95 3.15 30.65 2.45 L30.25 1.35 31.2 0.0 31.4 0.5 Q31.4 0.8 31.75 1.25 L32.15 2.05 32.65 2.75 33.95 4.15 34.7 4.9 34.95 4.95 35.1 4.8 35.25 4.85 35.1 5.4 35.4 5.8" fill="#cba769" fill-rule="evenodd" stroke="none"/>
      <path d="M34.15 2.15 Q34.4 2.4 33.9 2.4 L33.4 2.1 32.6 1.3 Q32.9 0.9 33.8 1.8 L34.15 2.15" fill="url(#gradient36)" fill-rule="evenodd" stroke="none"/>
      <path d="M33.6 2.8 Q33.7 2.6 34.3 3.2 L34.65 3.55 34.25 3.65 33.95 3.35 33.6 2.8" fill="url(#gradient37)" fill-rule="evenodd" stroke="none"/>
      <path d="M35.3 3.3 L35.45 3.35 35.5 3.6 35.25 3.35 35.3 3.3" fill="url(#gradient38)" fill-rule="evenodd" stroke="none"/>
      <path d="M36.65 4.65 L36.75 4.35 37.45 5.55 37.35 5.45 36.65 4.65" fill="url(#gradient39)" fill-rule="evenodd" stroke="none"/>
      <path d="M37.1 5.7 L37.15 5.55 37.55 5.95 37.1 5.7" fill="url(#gradient40)" fill-rule="evenodd" stroke="none"/>
      <path d="M37.75 6.25 L32.95 10.35 32.0 10.3 Q30.85 9.95 29.35 8.45 27.9 6.9 27.5 5.7 L27.4 4.8 31.2 0.0 31.35 1.05 Q31.85 2.45 33.2 3.8 L35.45 6.05 35.45 5.55 Q35.45 5.15 35.65 5.15 35.95 5.15 36.5 6.2 L37.75 6.25" fill="#a58d54" fill-rule="evenodd" stroke="none"/>
      <path d="M30.55 7.15 Q30.05 7.25 30.1 7.6 L30.6 7.7 30.55 7.45 30.55 7.15 M31.9 7.3 L32.1 7.5 32.4 7.1 32.35 6.95 31.9 7.3 M33.95 5.55 L33.85 5.45 Q33.6 5.3 33.35 5.65 33.05 6.05 33.25 6.25 33.4 6.5 33.65 6.25 34.0 5.9 33.95 5.55 M35.35 5.95 Q35.2 6.1 35.3 6.3 L35.45 6.65 Q35.75 6.85 36.3 6.3 L36.45 6.15 36.55 6.25 Q35.95 6.85 35.65 6.75 L35.1 6.4 Q34.8 6.0 34.95 5.85 L34.5 5.1 33.65 4.25 34.4 5.8 34.35 6.45 34.25 7.25 Q34.05 7.45 33.6 7.5 L32.95 7.65 32.85 7.95 31.95 8.15 31.8 8.5 31.25 8.65 30.9 8.0 30.6 8.0 30.25 7.95 29.7 7.6 29.1 7.4 28.4 6.3 28.35 5.95 28.45 5.65 28.35 5.25 Q27.9 5.2 27.85 4.65 L27.9 4.3 28.5 3.6 28.4 4.0 Q28.4 4.4 28.65 4.55 L29.05 4.55 Q28.9 5.2 29.15 5.65 L29.45 6.05 Q29.65 6.35 29.45 6.55 L29.75 6.75 30.2 6.6 Q30.15 6.85 30.65 7.05 31.0 6.7 31.3 6.9 L31.65 7.05 31.9 7.0 32.35 6.45 32.35 6.15 Q32.4 5.9 32.15 6.05 32.0 5.8 32.15 5.45 L32.45 4.75 32.2 3.3 32.1 2.6 32.1 2.5 33.2 3.8 35.35 5.95" fill="#8b7347" fill-rule="evenodd" stroke="none"/>
      <path d="M35.3 6.3 L35.75 6.55 36.2 6.3 36.15 5.85 Q36.0 5.2 35.65 5.15 35.95 5.15 36.45 6.15 L36.3 6.3 Q35.75 6.85 35.45 6.65 L35.3 6.3" fill="#615031" fill-rule="evenodd" stroke="none"/>
      <path d="M33.15 7.65 Q32.95 7.85 33.05 8.05 33.2 8.4 33.5 8.2 L33.8 7.8 33.6 7.6 33.15 7.65 M35.65 6.75 Q35.95 6.85 36.55 6.25 L36.65 6.35 36.35 6.75 35.85 7.15 35.1 7.8 34.75 8.05 34.4 8.1 33.75 8.65 33.4 9.2 32.6 9.5 32.35 9.45 32.05 9.45 31.4 9.2 30.7 9.0 30.0 8.6 28.6 7.1 28.25 6.55 28.0 5.9 27.65 5.45 27.45 4.85 27.4 4.8 27.9 4.3 27.85 4.65 Q27.9 5.2 28.35 5.25 L28.45 5.65 28.35 5.95 28.4 6.3 29.1 7.4 29.7 7.6 30.25 7.95 30.6 8.0 30.9 8.0 31.25 8.65 31.8 8.5 31.95 8.15 32.85 7.95 32.95 7.65 33.6 7.5 Q34.05 7.45 34.25 7.25 L34.35 6.45 34.4 5.8 33.65 4.25 34.5 5.1 34.95 5.85 Q34.8 6.0 35.1 6.4 L35.65 6.75" fill="#735e39" fill-rule="evenodd" stroke="none"/>
      <path d="M35.85 7.15 L36.35 6.75 36.65 6.35 37.75 6.25 35.6 8.0 Q35.45 7.85 35.15 8.15 34.9 8.4 35.0 8.5 L32.95 10.35 32.0 10.3 Q30.85 9.95 29.35 8.45 28.0 7.0 27.55 5.85 27.3 5.2 27.45 4.85 L27.65 5.45 28.0 5.9 28.25 6.55 28.6 7.1 30.0 8.6 30.7 9.0 31.4 9.2 32.05 9.45 32.35 9.45 32.6 9.5 33.4 9.2 33.75 8.65 34.4 8.1 34.75 8.05 35.1 7.8 35.85 7.15" fill="#4d4027" fill-rule="evenodd" stroke="none"/>
      <path d="M30.1 3.3 Q29.65 2.95 30.15 2.35 30.65 1.75 31.0 2.0 31.4 2.3 30.95 2.95 30.55 3.55 30.1 3.3" fill="url(#gradient41)" fill-rule="evenodd" stroke="none"/>
      <path d="M30.9 5.6 Q30.1 5.3 30.4 4.4 30.7 3.6 31.5 3.8 L31.65 3.95 Q32.25 4.45 31.9 5.0 31.3 5.8 30.9 5.6" fill="url(#gradient42)" fill-rule="evenodd" stroke="none"/>
      <path d="M29.4 4.1 Q29.75 3.55 30.0 3.8 L30.15 4.05 Q30.25 4.35 29.65 4.75 29.3 4.4 29.4 4.1" fill="url(#gradient43)" fill-rule="evenodd" stroke="none"/>
      <path d="M28.9 3.1 Q29.15 3.25 28.8 3.6 L28.6 3.5 28.9 3.1" fill="url(#gradient44)" fill-rule="evenodd" stroke="none"/>
      <path d="M33.25 6.25 Q33.05 6.05 33.35 5.65 33.6 5.3 33.85 5.45 L33.95 5.55 Q34.0 5.9 33.65 6.25 33.4 6.5 33.25 6.25" fill="#705c39" fill-rule="evenodd" stroke="none"/>
      <path d="M33.25 6.25 Q33.05 6.05 33.35 5.65 33.6 5.3 33.85 5.45 L33.95 5.55 Q34.0 5.9 33.65 6.25 33.4 6.5 33.25 6.25" fill="url(#gradient45)" fill-rule="evenodd" stroke="none"/>
      <path d="M32.4 7.1 L32.1 7.5 31.9 7.3 32.35 6.95 32.4 7.1" fill="#705c39" fill-rule="evenodd" stroke="none"/>
      <path d="M32.4 7.1 L32.1 7.5 31.9 7.3 32.35 6.95 32.4 7.1" fill="url(#gradient46)" fill-rule="evenodd" stroke="none"/>
      <path d="M30.55 7.45 L30.6 7.7 30.1 7.6 Q30.05 7.25 30.55 7.15 L30.55 7.45" fill="#705c39" fill-rule="evenodd" stroke="none"/>
      <path d="M30.55 7.45 L30.6 7.7 30.1 7.6 Q30.05 7.25 30.55 7.15 L30.55 7.45" fill="url(#gradient47)" fill-rule="evenodd" stroke="none"/>
      <path d="M33.6 7.6 L33.8 7.8 33.5 8.2 Q33.2 8.4 33.05 8.05 32.95 7.85 33.15 7.65 L33.6 7.6" fill="#615031" fill-rule="evenodd" stroke="none"/>
      <path d="M33.6 7.6 L33.8 7.8 33.5 8.2 Q33.2 8.4 33.05 8.05 32.95 7.85 33.15 7.65 L33.6 7.6" fill="url(#gradient48)" fill-rule="evenodd" stroke="none"/>
      <path d="M35.15 8.15 Q35.45 7.85 35.6 8.0 L35.0 8.5 Q34.9 8.4 35.15 8.15" fill="#4d4027" fill-rule="evenodd" stroke="none"/>
      <path d="M35.15 8.15 Q35.45 7.85 35.6 8.0 L35.0 8.5 Q34.9 8.4 35.15 8.15" fill="url(#gradient49)" fill-rule="evenodd" stroke="none"/>
      <path d="M35.5 5.3 L35.55 5.15 Q35.95 5.15 36.15 5.85 L36.2 6.3 35.75 6.55 35.3 6.3 35.35 5.95 35.45 6.05 35.45 5.85 35.45 5.45 35.5 5.3" fill="#615031" fill-rule="evenodd" stroke="none"/>
      <path d="M35.5 5.3 L35.55 5.15 Q35.95 5.15 36.15 5.85 L36.2 6.3 35.75 6.55 35.3 6.3 35.35 5.95 35.45 6.05 35.45 5.85 35.45 5.45 35.5 5.3" fill="url(#gradient50)" fill-rule="evenodd" stroke="none"/>
      <path d="M12.0 24.6 Q14.25 26.75 16.4 28.3 L14.4 30.8 Q12.95 32.55 9.95 34.55 9.45 34.55 8.45 33.85 6.45 32.65 4.1 29.9 2.35 27.85 1.65 25.95 L1.25 24.35 Q1.35 22.85 2.5 21.1 3.6 19.4 5.45 18.15 L7.1 17.2 Q7.5 20.3 12.0 24.6" fill="url(#gradient51)" fill-rule="evenodd" stroke="none"/>
      <path d="M9.4 28.8 Q8.0 29.0 7.8 28.5 7.65 28.15 7.9 28.0 L8.7 27.9 10.65 28.05 Q10.5 27.7 10.6 27.1 L11.1 26.4 Q11.75 25.75 12.65 26.25 13.75 26.85 13.2 28.2 12.65 29.45 11.7 28.9 L11.5 28.8 11.6 29.5 11.95 31.05 11.75 31.45 11.45 31.25 Q11.15 30.95 11.05 30.25 L10.95 29.55 9.8 31.7 9.15 32.75 8.6 32.8 Q8.2 32.6 8.3 32.3 L8.8 31.3 9.4 30.3 7.35 31.75 Q7.1 31.8 6.7 31.5 6.3 31.2 6.6 30.9 L8.1 29.9 Q9.7 29.0 10.0 28.7 L9.4 28.8" fill="url(#gradient52)" fill-rule="evenodd" stroke="none"/>
      <path d="M5.65 24.35 L5.6 24.9 5.25 24.95 Q4.9 24.8 4.95 23.85 L5.05 23.45 3.75 25.75 Q3.5 26.0 3.25 25.75 3.0 25.5 3.05 25.25 L4.0 23.8 3.35 24.25 2.65 24.65 2.25 24.35 Q2.1 24.1 2.25 23.95 L3.05 23.55 4.45 22.75 Q3.6 22.7 3.25 22.35 L3.1 22.1 3.4 22.0 4.5 22.3 4.95 22.35 4.85 22.25 Q4.45 21.45 5.25 21.15 6.1 20.8 6.55 21.65 7.05 22.75 6.05 23.05 L5.45 23.05 5.65 24.35" fill="url(#gradient53)" fill-rule="evenodd" stroke="none"/>
      <path d="M7.1 27.3 L5.2 27.3 Q5.25 26.95 5.85 26.45 L6.75 25.65 Q7.3 25.3 7.3 25.4 L7.1 27.3" fill="url(#gradient54)" fill-rule="evenodd" stroke="none"/>
    </g>
    <linearGradient gradientTransform="matrix(0.0092, 0.0092, -0.0193, 0.0193, 19.4, 18.75)" gradientUnits="userSpaceOnUse" id="gradient0" spreadMethod="pad" x1="-819.2" x2="819.2">
      <stop offset="0.0" stop-color="#d9eeef"/>
      <stop offset="1.0" stop-color="#abd9db"/>
    </linearGradient>
    <radialGradient cx="0" cy="0" gradientTransform="matrix(-0.0059, 0.0156, 0.0156, 0.0059, 11.15, 22.55)" gradientUnits="userSpaceOnUse" id="gradient1" r="819.2" spreadMethod="pad">
      <stop offset="0.0" stop-color="#7f9f59" stop-opacity="0.6666667"/>
      <stop offset="0.9882352941176471" stop-color="#688349" stop-opacity="0.84705883"/>
    </radialGradient>
    <radialGradient cx="0" cy="0" gradientTransform="matrix(-0.0011, 0.0018, 0.0018, 0.0011, 9.75, 28.15)" gradientUnits="userSpaceOnUse" id="gradient2" r="819.2" spreadMethod="pad">
      <stop offset="0.0" stop-color="#ffffff"/>
      <stop offset="0.16470588235294117" stop-color="#b5ce99"/>
      <stop offset="0.8588235294117647" stop-color="#7f9d5c" stop-opacity="0.84705883"/>
      <stop offset="1.0" stop-color="#b6d691" stop-opacity="0.84705883"/>
    </radialGradient>
    <radialGradient cx="0" cy="0" gradientTransform="matrix(-6.0E-4, 0.0011, 0.0011, 6.0E-4, 4.5, 21.1)" gradientUnits="userSpaceOnUse" id="gradient3" r="819.2" spreadMethod="pad">
      <stop offset="0.0" stop-color="#ffffff"/>
      <stop offset="0.16470588235294117" stop-color="#b5ce99"/>
      <stop offset="0.8588235294117647" stop-color="#7f9d5c" stop-opacity="0.84705883"/>
      <stop offset="1.0" stop-color="#b6d691" stop-opacity="0.84705883"/>
    </radialGradient>
    <radialGradient cx="0" cy="0" gradientTransform="matrix(-6.0E-4, 0.0011, 0.0011, 6.0E-4, 7.4, 23.5)" gradientUnits="userSpaceOnUse" id="gradient4" r="819.2" spreadMethod="pad">
      <stop offset="0.0" stop-color="#ffffff"/>
      <stop offset="0.16470588235294117" stop-color="#b5ce99"/>
      <stop offset="0.8588235294117647" stop-color="#7f9d5c" stop-opacity="0.84705883"/>
      <stop offset="1.0" stop-color="#b6d691" stop-opacity="0.84705883"/>
    </radialGradient>
    <radialGradient cx="0" cy="0" gradientTransform="matrix(-6.0E-4, 0.0011, 0.0011, 6.0E-4, 13.1, 26.4)" gradientUnits="userSpaceOnUse" id="gradient5" r="819.2" spreadMethod="pad">
      <stop offset="0.0" stop-color="#ffffff"/>
      <stop offset="0.16470588235294117" stop-color="#b5ce99"/>
      <stop offset="0.8588235294117647" stop-color="#7f9d5c" stop-opacity="0.84705883"/>
      <stop offset="1.0" stop-color="#b6d691" stop-opacity="0.84705883"/>
    </radialGradient>
    <radialGradient cx="0" cy="0" gradientTransform="matrix(-0.0011, 0.0018, 0.0018, 0.0011, 4.55, 26.45)" gradientUnits="userSpaceOnUse" id="gradient6" r="819.2" spreadMethod="pad">
      <stop offset="0.0" stop-color="#ffffff"/>
      <stop offset="0.16470588235294117" stop-color="#b5ce99"/>
      <stop offset="0.8588235294117647" stop-color="#7f9d5c" stop-opacity="0.84705883"/>
      <stop offset="1.0" stop-color="#b6d691" stop-opacity="0.84705883"/>
    </radialGradient>
    <radialGradient cx="0" cy="0" gradientTransform="matrix(-6.0E-4, 0.0011, 0.0011, 6.0E-4, 13.6, 32.5)" gradientUnits="userSpaceOnUse" id="gradient7" r="819.2" spreadMethod="pad">
      <stop offset="0.0" stop-color="#ffffff"/>
      <stop offset="0.16470588235294117" stop-color="#b5ce99"/>
      <stop offset="0.8588235294117647" stop-color="#7f9d5c" stop-opacity="0.84705883"/>
      <stop offset="1.0" stop-color="#b6d691" stop-opacity="0.84705883"/>
    </radialGradient>
    <radialGradient cx="0" cy="0" gradientTransform="matrix(-0.0047, 0.0119, 0.0117, 0.0042, 12.7, 20.9)" gradientUnits="userSpaceOnUse" id="gradient8" r="819.2" spreadMethod="pad">
      <stop offset="0.0" stop-color="#b7d798" stop-opacity="0.6666667"/>
      <stop offset="0.9882352941176471" stop-color="#99c267" stop-opacity="0.84705883"/>
    </radialGradient>
    <radialGradient cx="0" cy="0" gradientTransform="matrix(-0.0013, 0.0011, 0.0019, 0.0022, 9.0, 18.2)" gradientUnits="userSpaceOnUse" id="gradient9" r="819.2" spreadMethod="pad">
      <stop offset="0.0" stop-color="#ffffff"/>
      <stop offset="0.16470588235294117" stop-color="#b5ce99"/>
      <stop offset="0.8588235294117647" stop-color="#7f9d5c" stop-opacity="0.84705883"/>
      <stop offset="1.0" stop-color="#b6d691" stop-opacity="0.84705883"/>
    </radialGradient>
    <radialGradient cx="0" cy="0" gradientTransform="matrix(-0.001, 9.0E-4, 0.0015, 0.0018, 13.8, 25.9)" gradientUnits="userSpaceOnUse" id="gradient10" r="819.2" spreadMethod="pad">
      <stop offset="0.0" stop-color="#ffffff"/>
      <stop offset="0.16470588235294117" stop-color="#b5ce99"/>
      <stop offset="0.8588235294117647" stop-color="#7f9d5c" stop-opacity="0.84705883"/>
      <stop offset="1.0" stop-color="#b6d691" stop-opacity="0.84705883"/>
    </radialGradient>
    <radialGradient cx="0" cy="0" gradientTransform="matrix(-0.0015, 0.0013, 0.0022, 0.0026, 10.85, 23.95)" gradientUnits="userSpaceOnUse" id="gradient11" r="819.2" spreadMethod="pad">
      <stop offset="0.0" stop-color="#ffffff"/>
      <stop offset="0.16470588235294117" stop-color="#b5ce99"/>
      <stop offset="0.8588235294117647" stop-color="#7f9d5c" stop-opacity="0.84705883"/>
      <stop offset="1.0" stop-color="#b6d691" stop-opacity="0.84705883"/>
    </radialGradient>
    <radialGradient cx="0" cy="0" gradientTransform="matrix(-0.0011, 9.0E-4, 0.002, 0.0023, 18.15, 27.35)" gradientUnits="userSpaceOnUse" id="gradient12" r="819.2" spreadMethod="pad">
      <stop offset="0.0" stop-color="#ffffff"/>
      <stop offset="0.16470588235294117" stop-color="#b5ce99"/>
      <stop offset="0.8588235294117647" stop-color="#7f9d5c" stop-opacity="0.84705883"/>
      <stop offset="1.0" stop-color="#b6d691" stop-opacity="0.84705883"/>
    </radialGradient>
    <radialGradient cx="0" cy="0" gradientTransform="matrix(-0.0166, 0.0156, 0.0305, 0.0325, 28.2, 9.6)" gradientUnits="userSpaceOnUse" id="gradient13" r="819.2" spreadMethod="pad">
      <stop offset="0.0" stop-color="#ffffff" stop-opacity="0.25882354"/>
      <stop offset="0.16470588235294117" stop-color="#ebebeb" stop-opacity="0.36862746"/>
      <stop offset="0.8588235294117647" stop-color="#e0e0e0" stop-opacity="0.45882353"/>
      <stop offset="1.0" stop-color="#d8ebba" stop-opacity="0.22745098"/>
    </radialGradient>
    <radialGradient cx="0" cy="0" gradientTransform="matrix(-0.0099, 0.0131, 0.012, 0.0091, 12.95, 23.65)" gradientUnits="userSpaceOnUse" id="gradient14" r="819.2" spreadMethod="pad">
      <stop offset="0.0" stop-color="#ffffff" stop-opacity="0.47843137"/>
      <stop offset="0.7098039215686275" stop-color="#ffffff" stop-opacity="0.08235294"/>
      <stop offset="0.8666666666666667" stop-color="#ffffff" stop-opacity="0.2"/>
      <stop offset="1.0" stop-color="#ffffff" stop-opacity="0.02745098"/>
    </radialGradient>
    <radialGradient cx="0" cy="0" gradientTransform="matrix(0.0228, 0.0017, 0.0017, -0.0228, 2.05, 25.05)" gradientUnits="userSpaceOnUse" id="gradient15" r="819.2" spreadMethod="pad">
      <stop offset="0.0" stop-color="#ffffff" stop-opacity="0.9490196"/>
      <stop offset="1.0" stop-color="#8a9b9e"/>
    </radialGradient>
    <radialGradient cx="0" cy="0" gradientTransform="matrix(-0.0065, 0.0099, 0.0108, 0.0077, 15.85, 20.65)" gradientUnits="userSpaceOnUse" id="gradient16" r="819.2" spreadMethod="pad">
      <stop offset="0.0" stop-color="#ffffff" stop-opacity="0.5882353"/>
      <stop offset="1.0" stop-color="#ffffff" stop-opacity="0.0"/>
    </radialGradient>
    <radialGradient cx="0" cy="0" gradientTransform="matrix(-0.0043, 0.0065, 0.0072, 0.0047, 21.7, 26.3)" gradientUnits="userSpaceOnUse" id="gradient17" r="819.2" spreadMethod="pad">
      <stop offset="0.0" stop-color="#ffffff" stop-opacity="0.61960787"/>
      <stop offset="1.0" stop-color="#ffffff" stop-opacity="0.02745098"/>
    </radialGradient>
    <linearGradient gradientTransform="matrix(0.0019, 0.0044, 0.0044, -0.0019, 17.1, 20.3)" gradientUnits="userSpaceOnUse" id="gradient18" spreadMethod="pad" x1="-819.2" x2="819.2">
      <stop offset="0.0" stop-color="#ffffff" stop-opacity="0.9490196"/>
      <stop offset="1.0" stop-color="#abd9db"/>
    </linearGradient>
    <linearGradient gradientTransform="matrix(0.0023, 0.0036, 0.0036, -0.0023, 17.2, 20.5)" gradientUnits="userSpaceOnUse" id="gradient19" spreadMethod="pad" x1="-819.2" x2="819.2">
      <stop offset="0.0" stop-color="#000000" stop-opacity="0.24705882"/>
      <stop offset="1.0" stop-color="#000000" stop-opacity="0.02745098"/>
    </linearGradient>
    <linearGradient gradientTransform="matrix(0.0016, -0.0027, -0.0027, -0.0016, 30.0, 7.9)" gradientUnits="userSpaceOnUse" id="gradient20" spreadMethod="pad" x1="-819.2" x2="819.2">
      <stop offset="0.0" stop-color="#ffffff" stop-opacity="0.21960784"/>
      <stop offset="1.0" stop-color="#ffffff" stop-opacity="0.02745098"/>
    </linearGradient>
    <linearGradient gradientTransform="matrix(0.0035, 0.0037, 0.0073, -0.0069, 22.7, 15.0)" gradientUnits="userSpaceOnUse" id="gradient21" spreadMethod="pad" x1="-819.2" x2="819.2">
      <stop offset="0.0" stop-color="#ffffff" stop-opacity="0.21960784"/>
      <stop offset="1.0" stop-color="#ffffff" stop-opacity="0.02745098"/>
    </linearGradient>
    <linearGradient gradientTransform="matrix(0.003, 0.0032, 0.0063, -0.006, 22.75, 14.95)" gradientUnits="userSpaceOnUse" id="gradient22" spreadMethod="pad" x1="-819.2" x2="819.2">
      <stop offset="0.0" stop-color="#ffffff" stop-opacity="0.21960784"/>
      <stop offset="1.0" stop-color="#ffffff" stop-opacity="0.02745098"/>
    </linearGradient>
    <linearGradient gradientTransform="matrix(0.0034, 0.0036, 0.0071, -0.0068, 16.1, 21.3)" gradientUnits="userSpaceOnUse" id="gradient23" spreadMethod="pad" x1="-819.2" x2="819.2">
      <stop offset="0.0" stop-color="#ffffff" stop-opacity="0.9490196"/>
      <stop offset="1.0" stop-color="#abd9db"/>
    </linearGradient>
    <linearGradient gradientTransform="matrix(0.004, 0.0042, 0.0083, -0.0078, 23.3, 15.1)" gradientUnits="userSpaceOnUse" id="gradient24" spreadMethod="pad" x1="-819.2" x2="819.2">
      <stop offset="0.0" stop-color="#ffffff" stop-opacity="0.9490196"/>
      <stop offset="1.0" stop-color="#809c89"/>
    </linearGradient>
    <linearGradient gradientTransform="matrix(0.0034, 0.0034, 0.0034, -0.0034, 22.6, 14.4)" gradientUnits="userSpaceOnUse" id="gradient25" spreadMethod="pad" x1="-819.2" x2="819.2">
      <stop offset="0.0" stop-color="#ffffff" stop-opacity="0.9490196"/>
      <stop offset="1.0" stop-color="#9aafb8"/>
    </linearGradient>
    <linearGradient gradientTransform="matrix(-0.0035, 0.0033, 0.0065, 0.0069, 21.3, 12.9)" gradientUnits="userSpaceOnUse" id="gradient26" spreadMethod="pad" x1="-819.2" x2="819.2">
      <stop offset="0.0" stop-color="#ffffff" stop-opacity="0.41960785"/>
      <stop offset="1.0" stop-color="#ffffff" stop-opacity="0.02745098"/>
    </linearGradient>
    <linearGradient gradientTransform="matrix(0.0034, 0.0036, 0.0071, -0.0067, 16.65, 20.75)" gradientUnits="userSpaceOnUse" id="gradient27" spreadMethod="pad" x1="-819.2" x2="819.2">
      <stop offset="0.0" stop-color="#ffffff" stop-opacity="0.9490196"/>
      <stop offset="1.0" stop-color="#abd9db"/>
    </linearGradient>
    <linearGradient gradientTransform="matrix(-0.0015, 0.0014, 0.0028, 0.0029, 17.15, 16.25)" gradientUnits="userSpaceOnUse" id="gradient28" spreadMethod="pad" x1="-819.2" x2="819.2">
      <stop offset="0.0" stop-color="#ffffff" stop-opacity="0.41960785"/>
      <stop offset="1.0" stop-color="#ffffff" stop-opacity="0.02745098"/>
    </linearGradient>
    <linearGradient gradientTransform="matrix(0.0035, -0.0033, 0.0065, 0.0069, 24.85, 16.45)" gradientUnits="userSpaceOnUse" id="gradient29" spreadMethod="pad" x1="-819.2" x2="819.2">
      <stop offset="0.0" stop-color="#ffffff" stop-opacity="0.13725491"/>
      <stop offset="1.0" stop-color="#ffffff" stop-opacity="0.02745098"/>
    </linearGradient>
    <linearGradient gradientTransform="matrix(0.0037, 0.0039, 0.0076, -0.0072, 16.75, 20.85)" gradientUnits="userSpaceOnUse" id="gradient30" spreadMethod="pad" x1="-819.2" x2="819.2">
      <stop offset="0.0" stop-color="#ffffff"/>
      <stop offset="1.0" stop-color="#abd9db"/>
    </linearGradient>
    <linearGradient gradientTransform="matrix(0.0015, -0.0014, 0.0028, 0.003, 21.4, 20.7)" gradientUnits="userSpaceOnUse" id="gradient31" spreadMethod="pad" x1="-819.2" x2="819.2">
      <stop offset="0.0" stop-color="#ffffff" stop-opacity="0.13725491"/>
      <stop offset="1.0" stop-color="#ffffff" stop-opacity="0.02745098"/>
    </linearGradient>
    <linearGradient gradientTransform="matrix(0.0034, 0.0035, 0.0066, -0.0063, 30.3, 7.6)" gradientUnits="userSpaceOnUse" id="gradient32" spreadMethod="pad" x1="-819.2" x2="819.2">
      <stop offset="0.0" stop-color="#000000" stop-opacity="0.08627451"/>
      <stop offset="1.0" stop-color="#bcd9db" stop-opacity="0.41960785"/>
    </linearGradient>
    <linearGradient gradientTransform="matrix(0.0016, -0.0027, -0.0027, -0.0016, 30.0, 7.9)" gradientUnits="userSpaceOnUse" id="gradient33" spreadMethod="pad" x1="-819.2" x2="819.2">
      <stop offset="0.0" stop-color="#ffffff" stop-opacity="0.9490196"/>
      <stop offset="1.0" stop-color="#9aafb8"/>
    </linearGradient>
    <linearGradient gradientTransform="matrix(0.0018, 0.0042, 0.0042, -0.0018, 30.3, 7.6)" gradientUnits="userSpaceOnUse" id="gradient34" spreadMethod="pad" x1="-819.2" x2="819.2">
      <stop offset="0.0" stop-color="#ffffff" stop-opacity="0.9490196"/>
      <stop offset="1.0" stop-color="#abd9db"/>
    </linearGradient>
    <linearGradient gradientTransform="matrix(0.0034, 0.0035, 0.0066, -0.0063, 30.3, 7.6)" gradientUnits="userSpaceOnUse" id="gradient35" spreadMethod="pad" x1="-819.2" x2="819.2">
      <stop offset="0.0" stop-color="#ffffff" stop-opacity="0.9490196"/>
      <stop offset="1.0" stop-color="#9aafb8"/>
    </linearGradient>
    <linearGradient gradientTransform="matrix(-8.0E-4, -8.0E-4, -9.0E-4, 9.0E-4, 33.55, 1.95)" gradientUnits="userSpaceOnUse" id="gradient36" spreadMethod="pad" x1="-819.2" x2="819.2">
      <stop offset="0.0" stop-color="#c1a064"/>
      <stop offset="1.0" stop-color="#706341"/>
    </linearGradient>
    <linearGradient gradientTransform="matrix(-6.0E-4, -6.0E-4, -6.0E-4, 6.0E-4, 34.2, 3.3)" gradientUnits="userSpaceOnUse" id="gradient37" spreadMethod="pad" x1="-819.2" x2="819.2">
      <stop offset="0.0" stop-color="#c1a064"/>
      <stop offset="1.0" stop-color="#706341"/>
    </linearGradient>
    <linearGradient gradientTransform="matrix(-2.0E-4, -2.0E-4, -2.0E-4, 2.0E-4, 35.45, 3.45)" gradientUnits="userSpaceOnUse" id="gradient38" spreadMethod="pad" x1="-819.2" x2="819.2">
      <stop offset="0.0" stop-color="#c1a064"/>
      <stop offset="1.0" stop-color="#706341"/>
    </linearGradient>
    <linearGradient gradientTransform="matrix(-0.0012, -0.0012, -0.0013, 0.0013, 37.85, 5.65)" gradientUnits="userSpaceOnUse" id="gradient39" spreadMethod="pad" x1="-819.2" x2="819.2">
      <stop offset="0.0" stop-color="#c1a064"/>
      <stop offset="1.0" stop-color="#706341"/>
    </linearGradient>
    <linearGradient gradientTransform="matrix(-3.0E-4, -3.0E-4, -3.0E-4, 3.0E-4, 37.35, 5.85)" gradientUnits="userSpaceOnUse" id="gradient40" spreadMethod="pad" x1="-819.2" x2="819.2">
      <stop offset="0.0" stop-color="#c1a064"/>
      <stop offset="1.0" stop-color="#706341"/>
    </linearGradient>
    <linearGradient gradientTransform="matrix(6.0E-4, -7.0E-4, -8.0E-4, -6.0E-4, 30.5, 2.7)" gradientUnits="userSpaceOnUse" id="gradient41" spreadMethod="pad" x1="-819.2" x2="819.2">
      <stop offset="0.0" stop-color="#c1a064"/>
      <stop offset="1.0" stop-color="#706341"/>
    </linearGradient>
    <linearGradient gradientTransform="matrix(7.0E-4, -9.0E-4, -9.0E-4, -7.0E-4, 31.05, 4.75)" gradientUnits="userSpaceOnUse" id="gradient42" spreadMethod="pad" x1="-819.2" x2="819.2">
      <stop offset="0.0" stop-color="#c1a064"/>
      <stop offset="1.0" stop-color="#706341"/>
    </linearGradient>
    <linearGradient gradientTransform="matrix(3.0E-4, -4.0E-4, -5.0E-4, -4.0E-4, 29.75, 4.25)" gradientUnits="userSpaceOnUse" id="gradient43" spreadMethod="pad" x1="-819.2" x2="819.2">
      <stop offset="0.0" stop-color="#c1a064"/>
      <stop offset="1.0" stop-color="#706341"/>
    </linearGradient>
    <linearGradient gradientTransform="matrix(2.0E-4, -2.0E-4, -3.0E-4, -2.0E-4, 28.85, 3.35)" gradientUnits="userSpaceOnUse" id="gradient44" spreadMethod="pad" x1="-819.2" x2="819.2">
      <stop offset="0.0" stop-color="#c1a064"/>
      <stop offset="1.0" stop-color="#706341"/>
    </linearGradient>
    <linearGradient gradientTransform="matrix(4.0E-4, -5.0E-4, -5.0E-4, -4.0E-4, 33.5, 5.9)" gradientUnits="userSpaceOnUse" id="gradient45" spreadMethod="pad" x1="-819.2" x2="819.2">
      <stop offset="0.0" stop-color="#c1a064"/>
      <stop offset="1.0" stop-color="#706341"/>
    </linearGradient>
    <linearGradient gradientTransform="matrix(2.0E-4, -3.0E-4, -3.0E-4, -2.0E-4, 32.2, 7.2)" gradientUnits="userSpaceOnUse" id="gradient46" spreadMethod="pad" x1="-819.2" x2="819.2">
      <stop offset="0.0" stop-color="#c1a064"/>
      <stop offset="1.0" stop-color="#706341"/>
    </linearGradient>
    <linearGradient gradientTransform="matrix(2.0E-4, -3.0E-4, -3.0E-4, -3.0E-4, 30.4, 7.5)" gradientUnits="userSpaceOnUse" id="gradient47" spreadMethod="pad" x1="-819.2" x2="819.2">
      <stop offset="0.0" stop-color="#c1a064"/>
      <stop offset="1.0" stop-color="#706341"/>
    </linearGradient>
    <linearGradient gradientTransform="matrix(3.0E-4, -4.0E-4, -4.0E-4, -3.0E-4, 33.4, 7.9)" gradientUnits="userSpaceOnUse" id="gradient48" spreadMethod="pad" x1="-819.2" x2="819.2">
      <stop offset="0.0" stop-color="#c1a064"/>
      <stop offset="1.0" stop-color="#706341"/>
    </linearGradient>
    <linearGradient gradientTransform="matrix(3.0E-4, -4.0E-4, -4.0E-4, -3.0E-4, 35.25, 8.25)" gradientUnits="userSpaceOnUse" id="gradient49" spreadMethod="pad" x1="-819.2" x2="819.2">
      <stop offset="0.0" stop-color="#c1a064"/>
      <stop offset="1.0" stop-color="#706341"/>
    </linearGradient>
    <linearGradient gradientTransform="matrix(4.0E-4, -6.0E-4, -6.0E-4, -5.0E-4, 35.65, 5.95)" gradientUnits="userSpaceOnUse" id="gradient50" spreadMethod="pad" x1="-819.2" x2="819.2">
      <stop offset="0.0" stop-color="#c1a064"/>
      <stop offset="1.0" stop-color="#706341"/>
    </linearGradient>
    <radialGradient cx="0" cy="0" gradientTransform="matrix(-0.0085, 0.0148, 0.0149, 0.0088, 9.35, 22.05)" gradientUnits="userSpaceOnUse" id="gradient51" r="819.2" spreadMethod="pad">
      <stop offset="0.0" stop-color="#fbf5e2"/>
      <stop offset="0.07058823529411765" stop-color="#f6f0db"/>
      <stop offset="0.43137254901960786" stop-color="#e3dcc1"/>
      <stop offset="0.7490196078431373" stop-color="#d7d0b1"/>
      <stop offset="1.0" stop-color="#d3ccac"/>
    </radialGradient>
    <radialGradient cx="0" cy="0" gradientTransform="matrix(-0.011, 0.0014, -0.0052, -0.0119, 15.1, 23.7)" gradientUnits="userSpaceOnUse" id="gradient52" r="819.2" spreadMethod="pad">
      <stop offset="0.0" stop-color="#97d94b"/>
      <stop offset="1.0" stop-color="#669134"/>
    </radialGradient>
    <radialGradient cx="0" cy="0" gradientTransform="matrix(-5.0E-4, 0.0078, 0.008, 0.004, 8.1, 19.9)" gradientUnits="userSpaceOnUse" id="gradient53" r="819.2" spreadMethod="pad">
      <stop offset="0.0" stop-color="#de6729"/>
      <stop offset="1.0" stop-color="#a2390c"/>
    </radialGradient>
    <radialGradient cx="0" cy="0" gradientTransform="matrix(-8.0E-4, 0.0034, 0.0034, 8.0E-4, 8.5, 24.9)" gradientUnits="userSpaceOnUse" id="gradient54" r="819.2" spreadMethod="pad">
      <stop offset="0.0" stop-color="#c7c7c7"/>
      <stop offset="1.0" stop-color="#878787"/>
    </radialGradient>
  </defs>
</svg>
