<?xml version="1.0" encoding="UTF-8" standalone="no"?>
<svg xmlns:xlink="http://www.w3.org/1999/xlink" height="43.05px" width="63.25px" xmlns="http://www.w3.org/2000/svg">
  <g transform="matrix(1.0, 0.0, 0.0, 1.0, 0.0, 0.0)">
    <use height="43.05" transform="matrix(1.0, 0.0, 0.0, 1.0, 0.0, 0.0)" width="63.25" xlink:href="#shape0"/>
    <use height="0.0" id="price_tag_pt" transform="matrix(1.0, 0.0, 0.0, 1.0, 31.6, 46.95)" width="0.0" xlink:href="#sprite0"/>
  </g>
  <defs>
    <g id="shape0" transform="matrix(1.0, 0.0, 0.0, 1.0, 0.0, 0.0)">
      <path d="M56.3 41.6 Q54.15 43.0 36.8 43.05 19.5 43.1 13.3 41.65 7.1 40.15 7.1 39.1 7.1 37.95 14.6 37.15 L32.75 36.5 50.85 37.15 Q58.4 37.95 58.4 39.1 58.4 40.15 56.3 41.6" fill="url(#gradient0)" fill-rule="evenodd" stroke="none"/>
      <path d="M62.8 18.85 L62.75 19.6 Q62.15 24.15 58.7 29.05 56.85 31.85 53.75 34.1 50.9 36.3 47.05 37.95 43.15 39.6 38.8 40.0 L30.6 40.25 Q26.65 40.1 22.35 39.15 18.7 38.35 15.25 36.9 7.5 33.45 4.0 28.3 0.75 23.65 0.15 19.3 L0.1 19.0 0.05 18.45 Q0.45 21.15 9.2 23.1 18.45 25.15 31.45 25.15 44.5 25.15 53.75 23.1 61.9 21.3 62.8 18.85" fill="url(#gradient1)" fill-rule="evenodd" stroke="none"/>
      <path d="M0.05 18.45 L0.0 18.2 Q0.05 15.3 9.2 13.3 18.45 11.25 31.45 11.25 44.5 11.25 53.75 13.3 62.95 15.3 62.95 18.2 L62.8 18.85 Q61.9 21.3 53.75 23.1 44.5 25.15 31.45 25.15 18.45 25.15 9.2 23.1 0.45 21.15 0.05 18.45 M60.65 18.05 L60.65 17.8 Q60.65 15.6 52.15 14.1 43.6 12.55 31.55 12.55 19.5 12.55 10.95 14.1 4.75 15.2 3.05 16.7 L2.7 17.05 Q1.4 18.4 3.05 19.4 L3.1 19.45 3.15 19.5 Q4.9 20.9 10.95 22.05 L20.1 23.15 24.3 23.4 31.55 23.55 40.05 23.35 44.4 23.05 52.15 22.05 Q60.65 20.5 60.65 18.3 L60.65 18.05" fill="url(#gradient2)" fill-rule="evenodd" stroke="none"/>
      <path d="M60.65 18.05 Q60.2 16.05 52.15 14.6 43.6 13.05 31.55 13.05 19.5 13.05 10.95 14.6 2.95 16.05 2.5 18.05 L2.45 18.3 Q2.45 18.85 3.05 19.4 1.4 18.4 2.7 17.05 L3.05 16.7 Q4.75 15.2 10.95 14.1 19.5 12.55 31.55 12.55 43.6 12.55 52.15 14.1 60.65 15.6 60.65 17.8 L60.65 18.05" fill="url(#gradient3)" fill-rule="evenodd" stroke="none"/>
      <path d="M3.05 19.4 Q2.45 18.85 2.45 18.3 L2.5 18.05 Q2.95 16.05 10.95 14.6 19.5 13.05 31.55 13.05 43.6 13.05 52.15 14.6 60.2 16.05 60.65 18.05 L60.65 18.3 Q60.65 20.5 52.15 22.05 L44.4 23.05 40.05 23.35 31.55 23.55 24.3 23.4 20.1 23.15 10.95 22.05 Q4.9 20.9 3.15 19.5 L3.1 19.45 3.05 19.4" fill="url(#gradient4)" fill-rule="evenodd" stroke="none"/>
      <path d="M62.75 19.6 Q61.6 21.85 53.75 23.65 44.5 25.7 31.45 25.7 18.45 25.7 9.2 23.65 0.95 21.8 0.15 19.3 L0.1 19.0 0.05 18.45 Q0.45 21.15 9.2 23.1 18.45 25.15 31.45 25.15 44.5 25.15 53.75 23.1 61.9 21.3 62.8 18.85 L62.75 19.6" fill="#000000" fill-opacity="0.12156863" fill-rule="evenodd" stroke="none"/>
      <path d="M33.1 24.7 L33.1 24.75 33.5 24.85 31.45 25.0 27.05 24.95 23.8 24.75 21.7 24.4 Q20.5 24.05 21.6 24.1 L23.35 23.75 Q24.15 23.3 29.35 23.75 L33.55 24.3 33.6 24.35 33.1 24.7" fill="url(#gradient5)" fill-rule="evenodd" stroke="none"/>
      <path d="M6.45 22.45 L6.3 22.35 Q3.6 21.4 3.8 21.2 L3.85 20.1 Q10.15 22.1 13.4 22.55 L19.7 23.0 Q18.3 24.05 19.65 24.65 L9.2 23.1 6.45 22.45" fill="url(#gradient6)" fill-rule="evenodd" stroke="none"/>
      <path d="M3.1 19.45 L3.05 19.4 Q2.45 18.85 2.45 18.3 L2.5 18.05 Q2.8 16.7 10.15 14.5 6.5 18.05 15.75 22.75 L10.95 22.05 Q4.9 20.9 3.15 19.5 L3.1 19.45" fill="url(#gradient7)" fill-rule="evenodd" stroke="none"/>
      <path d="M42.2 26.0 Q30.65 26.85 15.8 24.25 L31.45 25.15 Q42.3 25.15 50.5 23.75 L53.75 23.1 Q61.9 21.3 62.8 18.85 L62.75 19.6 Q62.25 23.5 59.6 27.75 L58.7 29.05 Q56.85 31.85 53.75 34.1 50.9 36.3 47.05 37.95 43.15 39.6 38.8 40.0 L37.7 40.1 30.6 40.25 25.95 39.85 26.95 39.9 30.25 40.0 35.05 39.85 40.05 39.4 42.45 38.95 Q51.35 36.2 57.6 29.05 61.1 24.35 59.45 23.3 L52.55 24.8 50.1 25.15 42.2 26.0" fill="#000000" fill-opacity="0.31764707" fill-rule="evenodd" stroke="none"/>
      <path d="M50.1 25.15 L52.55 24.8 59.45 23.3 Q61.1 24.35 57.6 29.05 51.35 36.2 42.45 38.95 L40.05 39.4 35.05 39.85 30.25 40.0 26.95 39.9 27.8 39.8 27.8 39.75 Q36.95 39.75 44.7 37.0 48.5 35.6 52.05 32.6 55.75 29.45 55.75 27.45 55.75 24.95 53.95 24.95 L50.1 25.15" fill="#000000" fill-opacity="0.19607843" fill-rule="evenodd" stroke="none"/>
      <path d="M42.2 26.0 L50.1 25.15 53.95 24.95 Q55.75 24.95 55.75 27.45 55.75 29.45 52.05 32.6 48.5 35.6 44.7 37.0 36.95 39.75 27.8 39.75 L27.8 39.8 26.95 39.9 25.95 39.85 22.95 39.3 22.35 39.15 Q18.7 38.35 15.25 36.9 12.15 35.5 9.7 33.9 L15.9 36.3 Q21.1 38.05 27.4 37.9 33.75 37.7 37.6 35.7 41.5 33.65 42.8 31.65 44.15 29.6 44.45 28.2 44.75 26.85 42.2 26.0" fill="#000000" fill-opacity="0.101960786" fill-rule="evenodd" stroke="none"/>
      <path d="M19.7 13.75 L19.7 13.7 Q19.25 13.35 19.25 12.45 L19.35 12.05 19.95 11.4 20.5 11.15 20.9 11.05 Q22.1 10.55 23.15 10.4 L28.2 9.45 32.8 9.05 33.0 9.05 33.55 9.0 34.45 9.0 35.2 8.95 36.75 8.95 44.85 9.3 47.7 9.7 51.6 10.75 Q52.7 11.15 53.65 11.65 L57.45 13.9 59.85 15.6 60.9 16.65 62.2 17.75 Q62.55 18.0 62.95 17.15 63.05 18.45 62.2 18.95 61.35 19.5 60.55 19.55 L59.7 19.3 59.6 19.25 59.1 18.7 Q58.45 17.7 57.05 16.65 55.7 15.6 52.75 14.9 L47.65 14.5 44.05 14.85 41.1 14.8 37.95 14.05 35.4 13.4 32.6 13.3 30.05 13.35 30.85 13.35 24.6 13.7 21.0 14.0 20.65 14.0 19.7 13.75" fill="#000000" fill-opacity="0.31764707" fill-rule="evenodd" stroke="none"/>
      <path d="M19.7 13.75 L20.65 14.0 21.0 14.0 24.6 13.7 30.85 13.35 30.05 13.35 32.6 13.3 35.4 13.4 37.95 14.05 41.1 14.8 44.05 14.85 47.65 14.5 52.75 14.9 Q55.7 15.6 57.05 16.65 58.45 17.7 59.1 18.7 L59.6 19.25 59.7 19.3 Q59.95 19.7 56.25 21.15 L56.2 21.2 Q46.8 14.8 22.0 21.95 L19.7 13.75" fill="url(#gradient8)" fill-rule="evenodd" stroke="none"/>
      <path d="M53.1 6.3 L54.5 7.65 59.55 11.75 59.9 12.0 60.05 12.1 61.15 13.15 61.25 13.2 62.2 14.3 Q62.95 15.3 63.0 16.2 L62.85 16.2 61.7 16.5 61.15 16.85 61.05 16.85 60.25 16.3 59.6 15.75 58.45 14.7 57.45 13.9 56.3 13.0 54.15 11.35 Q53.25 10.6 53.1 9.55 L52.95 8.05 52.95 7.9 53.0 7.65 53.1 6.3 M63.1 16.45 L63.25 17.1 62.9 17.45 Q62.4 17.9 61.9 17.9 L61.7 17.9 Q61.3 17.8 61.3 17.55 L61.35 17.35 61.4 17.3 61.55 17.2 61.65 17.1 Q62.35 16.55 63.1 16.45 M20.25 9.9 L20.4 9.8 Q21.55 9.35 24.6 9.0 28.8 8.45 32.4 6.8 L32.75 6.7 Q34.25 6.05 35.1 5.85 L35.05 5.95 34.75 6.15 34.4 6.5 Q33.75 6.9 33.1 8.65 L33.05 8.85 32.8 9.05 29.75 10.1 Q25.95 11.1 21.9 11.1 L20.9 11.05 20.55 10.95 Q20.05 10.75 20.05 10.45 L20.15 9.95 20.25 9.9 M37.45 3.05 L38.55 1.3 Q39.45 0.2 40.3 0.05 L40.45 0.15 40.55 0.35 40.0 1.2 39.6 1.7 39.2 1.85 38.65 2.2 37.45 3.05 M48.75 1.2 Q48.9 1.0 49.6 0.8 L50.9 0.6 51.35 0.65 51.6 0.7 52.5 1.25 52.55 1.8 Q52.55 2.9 51.45 3.0 L51.05 2.6 51.0 2.55 50.65 2.25 49.9 1.8 49.4 1.45 48.75 1.2" fill="#2b2b2b" fill-rule="evenodd" stroke="none"/>
      <path d="M63.0 16.2 L63.05 16.3 63.1 16.45 Q62.35 16.55 61.65 17.1 L61.55 17.2 61.4 17.3 61.35 17.35 Q60.7 17.9 60.7 18.45 L60.7 18.8 60.9 19.15 60.65 19.1 60.3 18.95 59.55 18.25 56.95 16.1 Q54.45 14.3 47.1 13.85 L48.95 12.9 Q50.3 12.1 51.25 11.15 51.0 11.4 51.0 11.95 L53.1 13.0 Q55.5 14.0 56.2 14.5 L58.7 16.45 60.65 17.75 60.65 17.5 60.2 16.95 59.6 16.45 57.5 14.85 54.25 12.4 Q52.3 11.0 52.0 11.0 L51.3 11.1 51.6 10.75 Q52.55 9.55 52.9 8.15 L52.95 8.05 53.1 9.55 Q53.25 10.6 54.15 11.35 L56.3 13.0 57.45 13.9 58.45 14.7 59.6 15.75 60.25 16.3 61.05 16.85 61.15 16.85 61.7 16.5 62.85 16.2 63.0 16.2 M38.35 13.65 L36.2 13.05 36.05 13.0 Q35.1 11.8 34.6 9.55 34.85 10.5 35.75 11.55 37.1 13.1 38.35 13.65" fill="#000000" fill-rule="evenodd" stroke="none"/>
      <path d="M63.25 17.1 L63.25 17.15 Q63.3 17.65 62.7 18.2 L61.9 18.85 61.45 19.05 60.9 19.15 60.7 18.8 60.7 18.45 Q60.7 17.9 61.35 17.35 L61.3 17.55 Q61.3 17.8 61.7 17.9 L61.9 17.9 Q62.4 17.9 62.9 17.45 L63.25 17.1 M51.3 11.1 L52.0 11.0 Q52.3 11.0 54.25 12.4 L57.5 14.85 59.6 16.45 60.2 16.95 60.65 17.5 60.65 17.75 58.7 16.45 56.2 14.5 Q55.5 14.0 53.1 13.0 L51.0 11.95 Q51.0 11.4 51.25 11.15 L51.3 11.1" fill="#0f0f0f" fill-rule="evenodd" stroke="none"/>
      <path d="M40.3 0.05 L40.5 0.0 Q40.9 0.0 41.6 0.95 40.55 1.2 39.6 1.7 L40.0 1.2 40.55 0.35 40.45 0.15 40.3 0.05 M51.6 0.7 Q52.25 0.85 52.65 1.3 53.15 1.85 53.15 2.65 53.15 3.4 52.6 3.95 L52.4 4.2 51.5 3.05 51.45 3.0 Q52.55 2.9 52.55 1.8 L52.5 1.25 51.6 0.7 M34.4 6.5 L34.05 6.95 33.8 7.85 33.7 8.2 33.65 8.35 33.55 9.0 33.45 9.5 Q33.45 10.35 33.9 10.9 L34.3 11.45 33.9 11.75 32.8 11.8 29.5 12.15 21.75 12.85 20.05 12.6 19.5 12.15 21.2 12.4 26.0 11.85 31.2 10.8 Q32.35 10.45 32.65 9.95 L33.0 9.05 33.05 8.85 33.1 8.65 Q33.75 6.9 34.4 6.5" fill="#1c1c1c" fill-rule="evenodd" stroke="none"/>
      <path d="M47.1 13.85 Q44.7 14.7 42.0 14.5 L41.1 14.4 39.45 14.05 38.35 13.65 Q37.1 13.1 35.75 11.55 34.85 10.5 34.6 9.55 L34.55 9.55 34.5 9.4 34.45 9.0 34.45 8.6 34.55 7.25 Q34.7 8.25 35.2 8.95 37.05 11.7 43.6 10.8 46.0 10.45 47.7 9.7 51.75 7.95 51.7 4.05 51.7 3.45 51.35 3.0 L51.05 2.6 51.45 3.0 51.5 3.05 52.4 4.2 Q52.95 5.2 53.1 6.3 L53.0 7.65 52.95 7.9 52.95 8.05 52.9 8.15 Q52.55 9.55 51.6 10.75 L51.3 11.1 51.25 11.15 Q50.3 12.1 48.95 12.9 L47.1 13.85" fill="url(#gradient9)" fill-rule="evenodd" stroke="none"/>
      <path d="M35.1 5.85 Q35.85 4.25 37.45 3.05 L38.65 2.2 39.2 1.85 39.6 1.7 Q40.55 1.2 41.6 0.95 L45.65 0.55 Q47.35 0.65 48.75 1.2 L49.4 1.45 49.9 1.8 50.65 2.25 51.0 2.55 51.05 2.6 51.35 3.0 Q51.7 3.45 51.7 4.05 51.75 7.95 47.7 9.7 46.0 10.45 43.6 10.8 37.05 11.7 35.2 8.95 34.7 8.25 34.55 7.25 L34.65 7.0 34.75 6.5 35.05 5.95 35.1 5.85" fill="url(#gradient10)" fill-rule="evenodd" stroke="none"/>
      <path d="M36.05 13.0 L32.7 12.65 20.8 13.6 Q20.25 13.65 19.75 13.15 L19.3 12.2 19.3 12.1 19.3 12.05 19.35 12.05 19.5 12.15 20.05 12.6 21.75 12.85 29.5 12.15 32.8 11.8 33.9 11.75 34.3 11.45 33.9 10.9 Q33.45 10.35 33.45 9.5 L33.55 9.0 33.65 8.35 33.7 8.2 33.8 7.85 34.05 6.95 34.4 6.5 34.75 6.15 35.05 5.95 34.75 6.5 34.65 7.0 34.55 7.25 34.45 8.6 34.45 9.0 34.5 9.4 34.55 9.55 34.6 9.55 Q35.1 11.8 36.05 13.0" fill="#131313" fill-rule="evenodd" stroke="none"/>
      <path d="M19.3 12.05 L19.25 11.8 19.25 11.7 19.3 11.1 19.5 10.7 19.75 10.2 Q19.9 10.0 20.25 9.9 L20.15 9.95 20.05 10.45 Q20.05 10.75 20.55 10.95 L20.9 11.05 21.9 11.1 Q25.95 11.1 29.75 10.1 L32.8 9.05 33.05 8.85 33.0 9.05 32.65 9.95 Q32.35 10.45 31.2 10.8 L26.0 11.85 21.2 12.4 19.5 12.15 19.35 12.05 19.3 12.05" fill="#262626" fill-rule="evenodd" stroke="none"/>
      <path d="M35.3 11.05 L34.5 9.3 34.45 8.6 34.55 7.25 34.6 7.1 34.7 6.95 35.1 6.0 Q35.4 8.9 40.7 8.9 44.45 8.9 48.05 7.35 51.1 6.0 51.7 4.45 L51.8 3.7 51.5 3.05 Q53.45 5.05 53.0 7.65 L52.9 8.15 52.85 8.4 Q51.5 10.1 49.15 11.35 45.9 13.05 41.8 12.8 37.65 12.6 36.0 11.55 L35.3 11.05" fill="#000000" fill-opacity="0.09411765" fill-rule="evenodd" stroke="none"/>
      <path d="M52.85 8.4 Q52.05 11.15 48.95 12.9 L47.1 13.85 Q44.7 14.7 42.0 14.5 39.95 14.4 38.35 13.65 37.1 13.1 35.75 11.55 L35.3 11.05 36.0 11.55 Q37.65 12.6 41.8 12.8 45.9 13.05 49.15 11.35 51.5 10.1 52.85 8.4" fill="#000000" fill-opacity="0.043137256" fill-rule="evenodd" stroke="none"/>
      <path d="M45.05 2.75 Q45.15 2.4 45.85 2.4 L47.65 2.8 Q48.95 3.3 48.95 4.0 L48.95 4.35 48.35 4.45 Q47.25 4.45 46.05 3.55 L45.05 2.75 M41.05 2.55 L40.45 3.0 Q39.35 3.8 38.8 3.8 L38.45 3.5 38.35 3.3 Q38.55 3.1 38.8 2.95 39.55 2.5 39.9 2.5 L41.05 2.55 M41.45 4.1 Q41.8 3.75 42.5 3.9 L43.1 4.25 42.55 4.65 42.15 4.95 42.0 5.5 Q42.0 5.85 42.65 6.05 L43.6 6.55 43.6 6.75 43.35 6.75 Q42.75 6.45 42.2 6.3 42.0 6.7 41.45 6.7 40.8 6.7 40.8 6.35 L40.8 6.3 40.35 6.35 39.7 6.55 39.35 6.45 Q39.35 6.2 40.1 5.9 L40.95 5.7 41.3 5.55 41.55 4.8 41.2 4.5 41.45 4.1" fill="#2b2b2b" fill-rule="evenodd" stroke="none"/>
      <path d="M45.05 2.75 L46.05 3.55 Q47.25 4.45 48.35 4.45 L48.95 4.35 Q48.8 5.1 47.85 5.1 46.3 5.1 45.95 4.35 L45.25 3.35 45.1 3.05 45.05 2.85 45.05 2.75 M41.05 2.55 L41.1 2.95 Q39.75 4.35 38.45 4.35 37.95 4.35 37.95 4.0 L38.35 3.3 38.45 3.5 38.8 3.8 Q39.35 3.8 40.45 3.0 L41.05 2.55" fill="#000000" fill-rule="evenodd" stroke="none"/>
      <path d="M62.8 16.75 L62.8 17.0 62.35 17.35 61.9 17.4 61.85 17.2 62.0 16.85 62.3 16.8 62.6 16.7 62.8 16.75" fill="url(#gradient11)" fill-rule="evenodd" stroke="none"/>
      <path d="M59.35 12.35 L59.6 12.5 61.35 14.35 61.95 15.5 Q62.3 15.85 61.7 15.5 L58.85 13.7 Q57.45 11.95 58.8 11.9 L59.35 12.35" fill="url(#gradient12)" fill-rule="evenodd" stroke="none"/>
      <path d="M51.0 0.85 L51.0 1.1 50.55 1.45 50.1 1.5 50.05 1.3 50.2 1.0 50.5 0.9 50.8 0.8 51.0 0.85" fill="url(#gradient13)" fill-rule="evenodd" stroke="none"/>
      <path d="M58.85 13.7 Q53.15 10.05 53.7 10.05 L54.5 10.05 Q54.95 10.05 56.5 10.8 57.75 11.25 58.8 11.9 L59.45 12.3 59.35 12.35 58.8 11.9 Q57.45 11.95 58.85 13.7" fill="url(#gradient14)" fill-rule="evenodd" stroke="none"/>
      <path d="M22.9 10.35 Q21.4 10.15 24.4 9.55 L28.2 8.75 29.35 8.45 31.3 7.65 Q33.05 6.95 33.05 7.35 33.2 8.9 28.75 9.7 L22.9 10.35" fill="url(#gradient15)" fill-rule="evenodd" stroke="none"/>
    </g>
    <radialGradient cx="0" cy="0" gradientTransform="matrix(0.0267, 0.0, 0.0, 0.0051, 32.75, 39.1)" gradientUnits="userSpaceOnUse" id="gradient0" r="819.2" spreadMethod="pad">
      <stop offset="0.6313725490196078" stop-color="#000000" stop-opacity="0.21176471"/>
      <stop offset="0.8823529411764706" stop-color="#000000" stop-opacity="0.0"/>
    </radialGradient>
    <radialGradient cx="0" cy="0" gradientTransform="matrix(0.0564, 0.0, 0.0, 0.03, 15.15, 22.5)" gradientUnits="userSpaceOnUse" id="gradient1" r="819.2" spreadMethod="pad">
      <stop offset="0.0" stop-color="#ece5d7"/>
      <stop offset="1.0" stop-color="#b49c8a"/>
    </radialGradient>
    <radialGradient cx="0" cy="0" gradientTransform="matrix(0.0958, 0.0, 0.0, 0.0369, 12.1, 15.3)" gradientUnits="userSpaceOnUse" id="gradient2" r="819.2" spreadMethod="pad">
      <stop offset="0.0" stop-color="#ffffff"/>
      <stop offset="0.13333333333333333" stop-color="#ece5d7"/>
      <stop offset="1.0" stop-color="#b49c8a"/>
    </radialGradient>
    <radialGradient cx="0" cy="0" gradientTransform="matrix(0.0958, 0.0, 0.0, 0.0369, 12.1, 15.3)" gradientUnits="userSpaceOnUse" id="gradient3" r="819.2" spreadMethod="pad">
      <stop offset="0.0" stop-color="#beb4a0"/>
      <stop offset="1.0" stop-color="#8d796b"/>
    </radialGradient>
    <radialGradient cx="0" cy="0" gradientTransform="matrix(0.0359, 0.0, 0.0, 0.0359, 29.6, 9.0)" gradientUnits="userSpaceOnUse" id="gradient4" r="819.2" spreadMethod="pad">
      <stop offset="0.0" stop-color="#ece5d7"/>
      <stop offset="0.9882352941176471" stop-color="#9a8575"/>
    </radialGradient>
    <radialGradient cx="0" cy="0" gradientTransform="matrix(0.0056, 0.0, 0.0, 0.001, 26.25, 24.45)" gradientUnits="userSpaceOnUse" id="gradient5" r="819.2" spreadMethod="pad">
      <stop offset="0.0" stop-color="#ffffff" stop-opacity="0.6627451"/>
      <stop offset="1.0" stop-color="#ffffff" stop-opacity="0.0"/>
    </radialGradient>
    <radialGradient cx="0" cy="0" gradientTransform="matrix(0.0076, 0.0019, -3.0E-4, 0.0011, 9.95, 22.9)" gradientUnits="userSpaceOnUse" id="gradient6" r="819.2" spreadMethod="pad">
      <stop offset="0.0" stop-color="#ffffff" stop-opacity="0.6627451"/>
      <stop offset="1.0" stop-color="#ffffff" stop-opacity="0.0"/>
    </radialGradient>
    <linearGradient gradientTransform="matrix(0.0038, 0.0036, -0.003, 0.0031, 3.35, 19.25)" gradientUnits="userSpaceOnUse" id="gradient7" spreadMethod="pad" x1="-819.2" x2="819.2">
      <stop offset="0.0" stop-color="#000000" stop-opacity="0.1764706"/>
      <stop offset="1.0" stop-color="#000000" stop-opacity="0.0"/>
    </linearGradient>
    <linearGradient gradientTransform="matrix(0.0, 0.0022, -0.0048, -1.0E-4, 39.9, 15.45)" gradientUnits="userSpaceOnUse" id="gradient8" spreadMethod="pad" x1="-819.2" x2="819.2">
      <stop offset="0.0" stop-color="#000000" stop-opacity="0.1764706"/>
      <stop offset="1.0" stop-color="#000000" stop-opacity="0.0"/>
    </linearGradient>
    <linearGradient gradientTransform="matrix(2.0E-4, -0.0057, 0.0073, 2.0E-4, 46.25, 11.95)" gradientUnits="userSpaceOnUse" id="gradient9" spreadMethod="pad" x1="-819.2" x2="819.2">
      <stop offset="0.0" stop-color="#ece5d7"/>
      <stop offset="1.0" stop-color="#ccb4a3"/>
    </linearGradient>
    <radialGradient cx="0" cy="0" gradientTransform="matrix(0.0306, 0.0, 0.0, 0.0306, 39.15, 3.85)" gradientUnits="userSpaceOnUse" id="gradient10" r="819.2" spreadMethod="pad">
      <stop offset="0.0" stop-color="#ece5d7"/>
      <stop offset="1.0" stop-color="#b49c8a"/>
    </radialGradient>
    <radialGradient cx="0" cy="0" gradientTransform="matrix(6.0E-4, -1.0E-4, -1.0E-4, 5.0E-4, 62.3, 17.0)" gradientUnits="userSpaceOnUse" id="gradient11" r="819.2" spreadMethod="pad">
      <stop offset="0.0" stop-color="#ffffff"/>
      <stop offset="1.0" stop-color="#ffffff" stop-opacity="0.0"/>
    </radialGradient>
    <radialGradient cx="0" cy="0" gradientTransform="matrix(0.0043, 0.0038, -0.0014, 0.0, 58.2, 12.4)" gradientUnits="userSpaceOnUse" id="gradient12" r="819.2" spreadMethod="pad">
      <stop offset="0.0" stop-color="#ffffff"/>
      <stop offset="1.0" stop-color="#ffffff" stop-opacity="0.0"/>
    </radialGradient>
    <radialGradient cx="0" cy="0" gradientTransform="matrix(6.0E-4, -1.0E-4, -1.0E-4, 5.0E-4, 50.5, 1.1)" gradientUnits="userSpaceOnUse" id="gradient13" r="819.2" spreadMethod="pad">
      <stop offset="0.0" stop-color="#ffffff"/>
      <stop offset="1.0" stop-color="#ffffff" stop-opacity="0.0"/>
    </radialGradient>
    <radialGradient cx="0" cy="0" gradientTransform="matrix(0.0049, 0.0032, -0.0014, 1.0E-4, 58.2, 12.4)" gradientUnits="userSpaceOnUse" id="gradient14" r="819.2" spreadMethod="pad">
      <stop offset="0.0" stop-color="#ffffff"/>
      <stop offset="1.0" stop-color="#ffffff" stop-opacity="0.0"/>
    </radialGradient>
    <linearGradient gradientTransform="matrix(-0.0022, 0.0018, -0.0011, -0.0012, 27.9, 9.05)" gradientUnits="userSpaceOnUse" id="gradient15" spreadMethod="pad" x1="-819.2" x2="819.2">
      <stop offset="0.0" stop-color="#ffffff" stop-opacity="0.74509805"/>
      <stop offset="1.0" stop-color="#ffffff" stop-opacity="0.0"/>
    </linearGradient>
  </defs>
</svg>
