<?xml version="1.0" encoding="UTF-8" standalone="no"?>
<svg xmlns:xlink="http://www.w3.org/1999/xlink" height="481.45px" width="481.5px" xmlns="http://www.w3.org/2000/svg">
  <g transform="matrix(1.0, 0.0, 0.0, 1.0, 0.0, 0.0)">
    <use height="481.45" transform="matrix(1.0, 0.0, 0.0, 1.0, 0.0, 0.0)" width="481.5" xlink:href="#shape0"/>
  </g>
  <defs>
    <g id="shape0" transform="matrix(1.0, 0.0, 0.0, 1.0, 0.0, 0.0)">
      <path d="M462.6 147.05 Q481.5 191.75 481.5 240.75 481.5 289.7 462.6 334.45 444.3 377.65 411.0 410.95 377.65 444.25 334.45 462.55 289.75 481.45 240.75 481.45 191.75 481.45 147.05 462.55 103.85 444.25 70.5 410.95 37.2 377.65 18.9 334.45 0.0 289.7 0.0 240.75 0.0 191.8 18.9 147.05 37.2 103.85 70.5 70.5 103.85 37.2 147.05 18.9 191.8 0.0 240.75 0.0 289.7 0.0 334.45 18.9 377.65 37.2 411.0 70.5 444.3 103.85 462.6 147.05" fill="url(#gradient0)" fill-rule="evenodd" stroke="none"/>
    </g>
    <radialGradient cx="0" cy="0" gradientTransform="matrix(0.2939, 0.0, 0.0, -0.2939, 240.75, 240.75)" gradientUnits="userSpaceOnUse" id="gradient0" r="819.2" spreadMethod="pad">
      <stop offset="0.0" stop-color="#483b2d" stop-opacity="0.69803923"/>
      <stop offset="0.24313725490196078" stop-color="#4d4030" stop-opacity="0.6313726"/>
      <stop offset="0.5490196078431373" stop-color="#5b503b" stop-opacity="0.43529412"/>
      <stop offset="0.8901960784313725" stop-color="#73694c" stop-opacity="0.11764706"/>
      <stop offset="1.0" stop-color="#7c7352" stop-opacity="0.0"/>
    </radialGradient>
  </defs>
</svg>
