<?xml version="1.0" encoding="UTF-8" standalone="no"?>
<svg xmlns:xlink="http://www.w3.org/1999/xlink" height="46.9px" width="52.05px" xmlns="http://www.w3.org/2000/svg">
  <g transform="matrix(1.0, 0.0, 0.0, 1.0, 0.0, 0.0)">
    <use height="23.6" transform="matrix(1.0, 0.0, 0.0, 1.0, 0.0, 23.3)" width="52.0" xlink:href="#shape0"/>
  </g>
  <defs>
    <g id="shape0" transform="matrix(1.0, 0.0, 0.0, 1.0, 0.0, -23.3)">
      <path d="M38.55 25.15 L45.75 23.3 45.75 23.35 46.05 23.35 Q48.1 23.45 49.8 25.15 L49.9 25.25 50.0 25.3 51.2 27.05 51.4 27.45 51.6 27.95 51.85 28.8 51.9 29.05 51.8 28.8 51.4 27.8 Q50.85 26.65 50.0 25.75 L49.1 25.0 Q48.0 24.15 47.05 23.8 L46.25 23.9 43.35 24.45 40.6 25.2 39.75 25.1 39.45 25.1 38.6 25.15 38.55 25.15 M4.05 34.25 L4.05 34.2 13.15 31.8 13.15 31.9 13.35 31.9 Q15.05 32.0 16.5 33.1 L17.15 33.65 17.75 34.35 18.1 34.8 18.4 35.3 18.65 35.8 18.75 36.0 18.9 36.35 19.0 36.6 19.25 37.8 19.35 38.55 19.35 38.65 19.35 38.75 19.35 38.85 19.35 39.15 19.35 39.35 19.1 38.35 Q18.45 36.05 17.2 34.4 15.9 32.8 14.65 32.55 12.85 32.25 8.35 33.6 L6.3 34.3 5.15 34.15 4.05 34.25 M16.65 32.7 L16.75 32.55 17.1 31.85 18.05 30.75 18.3 30.55 Q18.8 30.15 19.4 29.95 L20.55 29.75 32.5 26.55 32.5 26.6 32.7 26.6 Q34.05 26.65 35.3 27.45 L35.75 27.8 35.85 27.9 36.1 28.0 36.25 28.2 36.5 28.4 36.6 28.5 36.85 28.8 36.85 28.85 37.65 29.85 37.65 29.9 37.75 30.05 37.9 30.3 38.0 30.5 38.0 30.6 38.1 30.8 38.2 31.05 38.35 31.35 38.55 32.35 38.6 32.55 38.65 32.7 38.7 32.85 38.7 32.95 38.7 33.05 38.7 33.4 38.7 33.9 38.7 33.95 37.9 31.15 37.8 30.9 Q37.45 29.75 36.75 28.9 36.0 28.0 34.85 27.5 33.8 27.05 32.85 27.05 L31.75 27.45 28.25 28.35 22.25 30.0 21.5 29.8 Q22.25 29.95 23.05 30.4 L23.7 30.95 24.05 31.3 24.95 32.55 25.15 32.9 25.6 34.05 25.3 33.45 24.05 31.95 22.7 30.65 Q21.95 30.25 21.35 30.3 L20.3 30.2 19.55 30.3 19.15 30.4 18.85 30.6 18.2 31.0 17.65 31.75 17.3 31.85 17.2 32.0 17.0 32.25 16.65 32.7" fill="#fdf9e6" fill-rule="evenodd" stroke="none"/>
      <path d="M40.6 25.2 L43.35 24.45 46.25 23.9 47.05 23.8 Q48.0 24.15 49.1 25.0 L50.0 25.75 49.0 25.7 49.0 26.55 48.55 26.65 48.05 26.6 48.35 26.85 48.35 27.2 47.55 27.3 47.65 27.85 Q47.55 28.05 47.2 28.1 47.55 28.3 47.35 28.7 L46.8 29.35 47.55 29.25 Q48.05 29.3 48.2 29.55 L48.35 29.25 Q48.4 29.05 48.7 29.05 49.0 29.0 49.25 29.3 49.2 28.55 49.65 28.4 L50.1 28.5 Q50.1 28.1 50.55 27.85 L51.35 27.75 51.4 27.8 51.8 28.8 Q51.05 28.8 50.55 29.45 50.15 30.0 50.3 30.25 50.6 30.85 52.0 30.55 L51.95 29.55 51.95 31.75 Q51.0 31.45 50.65 32.0 50.5 32.2 50.6 32.5 L50.9 32.95 51.5 33.1 51.9 32.05 51.7 32.7 Q51.25 34.05 50.3 34.9 L50.1 34.75 49.8 34.3 49.45 34.6 49.15 34.7 Q48.8 34.7 48.55 34.25 L48.35 34.45 48.1 34.65 Q47.4 34.65 47.45 34.35 L47.3 34.6 47.1 34.7 46.2 34.7 Q46.5 35.0 46.2 35.55 L46.7 35.4 Q47.0 35.35 47.15 35.55 L47.25 36.05 44.45 36.95 44.35 36.6 45.0 35.85 45.95 33.6 46.35 33.95 47.0 33.1 47.25 33.05 47.45 33.2 47.65 32.9 47.9 32.6 Q48.25 32.45 48.55 32.85 48.75 32.2 49.25 32.05 L48.6 32.1 48.35 31.85 47.85 31.95 47.5 31.45 46.8 31.55 Q46.55 31.5 46.55 31.05 L46.0 31.25 45.95 31.05 Q45.55 28.6 43.75 26.9 42.3 25.55 40.6 25.2 M43.85 37.1 L43.65 37.15 43.85 37.05 43.85 37.1 M46.25 26.9 Q46.45 26.55 46.25 26.2 46.0 25.75 45.2 25.95 L44.7 26.45 Q44.45 26.85 44.55 27.1 44.7 27.35 45.1 27.4 L45.7 27.35 46.25 26.9" fill="url(#gradient0)" fill-rule="evenodd" stroke="none"/>
      <path d="M50.0 25.75 Q50.85 26.65 51.4 27.8 L51.35 27.75 50.55 27.85 Q50.1 28.1 50.1 28.5 L49.65 28.4 Q49.2 28.55 49.25 29.3 49.0 29.0 48.7 29.05 48.4 29.05 48.35 29.25 L48.2 29.55 Q48.05 29.3 47.55 29.25 L46.8 29.35 47.35 28.7 Q47.55 28.3 47.2 28.1 47.55 28.05 47.65 27.85 L47.55 27.3 48.35 27.2 48.35 26.85 48.05 26.6 48.55 26.65 49.0 26.55 49.0 25.7 50.0 25.75 M51.4 27.45 L51.2 27.05 51.25 27.05 51.4 27.45" fill="url(#gradient1)" fill-rule="evenodd" stroke="none"/>
      <path d="M51.8 28.8 L51.9 29.05 51.95 29.3 51.95 29.55 52.0 30.55 Q50.6 30.85 50.3 30.25 50.15 30.0 50.55 29.45 51.05 28.8 51.8 28.8" fill="url(#gradient2)" fill-rule="evenodd" stroke="none"/>
      <path d="M51.95 31.75 L51.9 32.05 51.5 33.1 50.9 32.95 50.6 32.5 Q50.5 32.2 50.65 32.0 51.0 31.45 51.95 31.75" fill="url(#gradient3)" fill-rule="evenodd" stroke="none"/>
      <path d="M46.25 26.9 L45.7 27.35 45.1 27.4 Q44.7 27.35 44.55 27.1 44.45 26.85 44.7 26.45 L45.2 25.95 Q46.0 25.75 46.25 26.2 46.45 26.55 46.25 26.9" fill="url(#gradient4)" fill-rule="evenodd" stroke="none"/>
      <path d="M38.55 25.15 L38.6 25.15 39.45 25.1 Q41.55 25.2 43.25 26.9 L44.65 28.8 45.35 31.0 45.1 30.45 45.1 30.4 45.0 30.2 44.6 29.9 43.9 29.65 43.15 29.5 Q43.65 29.0 43.15 28.7 L41.6 28.55 41.9 28.0 42.3 27.5 Q42.45 27.05 42.2 26.85 42.0 26.65 40.95 26.85 40.45 26.9 39.6 27.55 L39.6 25.95 38.5 26.55 38.2 26.85 38.2 26.15 37.55 26.25 37.2 26.8 37.1 26.95 36.95 27.0 36.65 26.5 36.4 26.4 36.3 26.6 36.3 26.7 36.25 26.75 35.85 27.75 35.75 27.8 35.3 27.45 35.85 26.6 Q36.95 25.45 38.4 25.2 L38.5 25.2 38.55 25.15 M42.5 32.85 L44.05 32.85 45.15 33.1 43.45 33.1 42.75 33.0 42.5 32.9 42.5 32.85 M43.25 33.7 L43.9 33.75 44.8 33.95 43.3 33.8 42.7 33.75 Q42.3 33.7 42.2 33.5 L43.25 33.7 M42.35 31.45 L42.95 31.25 43.7 31.1 44.55 30.9 Q43.85 31.5 43.1 31.5 L42.35 31.45 M24.8 34.15 L24.25 33.6 24.55 33.25 Q24.8 33.0 24.5 32.9 L23.75 32.9 22.7 32.95 23.15 32.55 23.6 32.25 Q23.5 32.0 22.85 32.1 L22.95 31.45 Q22.65 31.35 21.75 32.2 21.2 32.85 20.7 32.65 L20.4 32.35 20.45 31.75 20.45 30.35 20.15 30.25 19.55 30.6 19.1 31.15 18.9 31.6 18.5 31.55 18.1 31.65 Q17.9 31.85 18.0 32.45 L17.4 32.05 17.25 32.0 17.2 32.0 17.3 31.85 17.65 31.75 18.2 31.0 18.85 30.6 19.15 30.4 19.55 30.3 20.3 30.2 21.35 30.3 Q21.95 30.25 22.7 30.65 L24.05 31.95 25.3 33.45 25.6 34.05 25.65 34.2 25.95 35.3 26.15 36.35 26.15 37.45 26.15 37.8 26.1 37.95 25.65 37.85 24.05 37.5 24.4 37.45 24.55 37.45 25.4 37.35 25.95 37.15 24.95 37.05 23.9 36.95 Q23.9 36.85 24.5 36.65 L25.25 36.35 24.1 36.25 24.55 35.9 25.0 35.6 Q25.25 35.45 25.1 35.3 L24.75 35.15 24.95 34.8 24.95 34.35 24.85 34.25 24.8 34.15 M17.0 32.25 L17.0 32.75 16.6 32.85 16.65 32.7 17.0 32.25 M25.8 38.35 L26.0 38.35 25.9 38.9 25.05 38.75 24.35 38.3 25.8 38.35" fill="#e6dba7" fill-rule="evenodd" stroke="none"/>
      <path d="M40.75 37.9 L40.6 37.9 40.15 37.9 40.15 37.85 40.75 37.9 M36.3 26.6 L36.4 26.4 36.65 26.5 36.95 27.0 37.1 26.95 37.2 26.8 37.55 26.25 38.2 26.15 38.2 26.85 38.5 26.55 39.6 25.95 39.6 27.55 Q40.45 26.9 40.95 26.85 42.0 26.65 42.2 26.85 42.45 27.05 42.3 27.5 L41.9 28.0 41.6 28.55 43.15 28.7 Q43.65 29.0 43.15 29.5 L43.9 29.65 44.6 29.9 45.0 30.2 45.1 30.4 42.9 30.45 40.9 30.8 40.85 30.75 41.0 30.65 41.75 30.0 43.0 28.85 Q42.45 28.85 41.1 29.4 L41.2 29.3 40.9 29.55 39.8 30.05 40.15 29.65 41.55 27.9 Q41.85 27.55 42.0 27.5 41.3 27.55 40.25 28.5 L39.6 29.3 39.6 29.15 39.5 28.85 39.45 28.8 39.4 28.65 39.35 28.55 39.2 28.35 39.0 28.2 39.1 26.3 38.75 27.1 38.55 27.95 38.5 27.95 38.45 27.9 38.2 27.8 Q37.8 26.85 37.9 26.3 L37.7 27.3 37.75 27.8 37.3 27.95 36.85 27.25 36.75 27.35 36.7 27.3 36.3 26.6 M45.1 30.45 L45.35 31.0 45.35 31.05 Q45.85 33.8 44.45 35.85 L44.25 36.15 44.75 35.25 Q44.3 35.15 43.9 34.85 L42.35 33.7 41.85 33.35 43.25 33.35 42.75 33.0 43.45 33.1 45.15 33.1 44.05 32.85 42.5 32.85 42.45 32.8 43.9 32.8 45.45 32.45 45.45 32.0 41.25 31.7 41.2 31.45 41.3 31.45 42.4 31.3 43.45 30.9 43.4 30.9 45.1 30.45 M43.25 33.7 L42.2 33.5 Q42.3 33.7 42.7 33.75 L43.3 33.8 44.8 33.95 43.9 33.75 43.25 33.7 M42.35 31.45 L43.1 31.5 Q43.85 31.5 44.55 30.9 L43.7 31.1 42.95 31.25 42.35 31.45 M36.3 26.7 L36.25 26.85 36.35 28.2 36.1 28.0 35.85 27.9 35.75 27.8 35.85 27.75 36.25 26.75 36.3 26.7" fill="url(#gradient5)" fill-rule="evenodd" stroke="none"/>
      <path d="M40.9 30.8 L40.95 30.85 41.0 30.9 41.2 31.45 41.25 31.7 41.25 31.8 41.25 31.9 Q41.25 32.6 40.75 33.1 L40.6 33.3 40.45 33.35 40.25 33.45 40.2 33.5 39.75 33.6 39.6 33.6 39.45 33.6 38.75 33.4 38.7 33.4 38.7 33.05 38.7 32.95 38.75 32.95 39.35 32.9 39.5 32.9 40.2 32.6 40.2 32.55 40.25 32.55 40.65 31.6 40.65 31.45 40.6 31.25 40.4 30.45 40.8 30.7 40.85 30.75 40.9 30.8 M39.6 29.3 L39.6 29.5 39.45 30.2 39.3 30.25 Q38.75 30.35 38.4 30.7 L38.2 30.95 38.15 30.9 38.1 30.8 38.0 30.6 38.0 30.5 38.5 30.15 38.6 30.15 38.9 29.55 38.95 28.85 38.75 28.0 39.0 28.2 39.35 28.55 39.4 28.65 39.45 28.8 39.5 28.85 39.6 29.3 M20.7 33.45 L20.7 33.5 20.75 33.55 20.8 33.55 20.9 33.65 21.15 34.0 21.15 34.05 21.2 34.2 21.25 34.25 21.3 34.45 20.85 34.75 Q20.4 35.2 20.3 35.85 L20.3 35.9 20.3 36.05 20.3 36.2 20.3 36.25 20.35 36.5 19.55 36.65 19.3 36.65 19.0 36.6 18.9 36.35 18.75 36.0 19.15 35.95 19.2 35.9 19.25 35.9 19.35 35.9 19.95 35.7 20.15 35.55 20.2 35.55 Q20.75 35.05 20.6 34.15 L20.45 33.3 20.7 33.45 M20.5 36.95 L20.55 36.95 20.45 36.85 Q21.15 37.4 21.8 37.1 L21.85 37.1 22.45 36.95 22.75 36.75 22.8 36.7 23.2 36.1 23.25 35.75 23.2 35.35 23.0 34.45 23.25 34.65 23.35 34.7 23.4 34.7 23.5 34.8 23.6 34.9 23.8 35.25 23.9 35.55 23.95 35.7 23.95 36.0 23.95 36.05 Q23.95 36.7 23.55 37.2 L23.4 37.35 23.35 37.4 23.15 37.55 23.1 37.6 22.85 37.75 22.75 37.8 22.3 37.85 22.2 37.85 22.1 37.85 22.0 37.85 21.65 37.85 Q20.95 37.65 20.55 37.0 L20.5 36.95" fill="#641c10" fill-rule="evenodd" stroke="none"/>
      <path d="M38.15 37.35 L37.85 37.15 38.0 36.9 38.1 36.55 38.15 37.35 M45.1 30.4 L45.1 30.45 43.4 30.9 41.0 30.9 40.95 30.85 40.9 30.8 42.9 30.45 45.1 30.4 M40.85 30.75 L40.8 30.7 40.35 30.4 40.35 30.35 41.1 29.4 Q42.45 28.85 43.0 28.85 L41.75 30.0 41.0 30.65 40.85 30.75 M41.25 31.8 L41.25 31.7 45.45 32.0 45.45 32.45 43.9 32.8 42.45 32.8 42.5 32.85 42.5 32.9 42.75 33.0 43.25 33.35 41.85 33.35 42.35 33.7 43.9 34.85 Q44.3 35.15 44.75 35.25 L44.25 36.15 44.2 36.2 44.1 36.05 42.85 34.8 43.85 35.15 43.35 34.8 42.85 34.4 42.05 33.85 41.2 32.85 42.15 33.05 41.4 32.45 42.05 32.45 43.4 32.6 43.95 32.65 44.45 32.5 43.75 32.45 41.7 31.9 41.25 31.8 M40.9 29.55 L39.95 30.25 39.8 30.2 39.6 30.2 39.45 30.2 39.6 29.5 39.6 29.3 40.25 28.5 Q41.3 27.55 42.0 27.5 41.85 27.55 41.55 27.9 L40.15 29.65 39.8 30.05 40.9 29.55 M41.0 37.9 L40.95 37.85 40.75 37.1 40.7 36.45 41.6 37.8 41.6 37.85 41.3 37.85 41.0 37.9 M43.1 37.2 L43.1 36.5 43.6 36.85 43.1 37.2 M24.8 34.15 L24.85 34.25 23.6 34.9 23.5 34.8 23.4 34.7 23.35 34.7 23.85 34.35 23.5 34.3 24.65 34.15 24.8 34.15 M17.25 32.0 L17.4 32.05 18.45 33.2 18.35 33.15 17.8 32.7 18.15 33.35 18.05 33.2 17.25 32.0 M18.65 33.25 L18.55 32.65 18.45 31.75 18.55 32.05 18.9 32.75 19.15 33.05 19.05 33.1 18.95 32.95 18.65 32.55 18.8 33.2 18.65 33.25 M19.55 33.0 L19.55 32.95 20.15 30.25 20.1 32.6 20.25 33.15 19.95 33.05 19.9 32.05 19.7 33.0 19.55 33.0 M21.25 33.15 L21.5 32.8 22.35 31.95 21.4 33.6 21.25 34.15 21.15 34.05 21.15 34.0 21.45 32.95 21.25 33.15 M21.35 34.2 L21.7 33.85 21.35 34.25 21.35 34.2 M22.45 33.4 L23.6 33.05 24.0 33.0 21.9 34.25 22.4 33.45 22.45 33.4 M22.9 34.4 L23.25 34.35 23.0 34.45 22.9 34.4 M38.55 27.95 L38.75 27.1 39.1 26.3 39.0 28.2 38.75 28.0 38.55 27.95 M38.2 27.8 L38.1 27.8 37.95 27.8 37.75 27.8 37.7 27.3 37.9 26.3 Q37.8 26.85 38.2 27.8 M36.3 26.6 L36.7 27.3 36.75 27.35 Q36.65 27.5 36.7 27.95 L36.75 28.25 36.65 28.35 36.35 28.2 36.25 26.85 36.3 26.7 36.3 26.6 M23.95 35.7 L23.9 35.55 24.4 35.3 24.8 35.25 Q24.4 35.5 23.95 35.7" fill="#9d9057" fill-rule="evenodd" stroke="none"/>
      <path d="M41.0 37.9 L40.9 37.9 40.75 37.9 40.15 37.85 39.85 36.05 39.8 35.2 41.2 36.8 41.95 37.75 41.6 37.85 41.6 37.8 40.7 36.45 40.75 37.1 40.95 37.85 41.0 37.9 M22.15 42.4 L21.8 42.4 Q21.7 41.45 22.0 40.6 L22.15 40.2 22.25 40.5 Q22.7 41.25 23.55 41.6 L24.0 41.85 23.8 41.9 23.75 41.9 23.3 41.7 23.2 41.65 Q23.05 41.55 23.0 41.85 L23.05 42.25 22.15 42.4 M19.45 41.65 L19.0 41.35 19.05 41.2 19.1 41.0 19.65 40.05 20.25 39.1 20.45 39.15 20.0 40.25 19.45 41.65 M41.0 30.9 L43.4 30.9 43.45 30.9 42.4 31.3 41.3 31.45 41.2 31.45 41.0 30.9 M41.1 29.4 L40.35 30.35 40.35 30.4 40.2 30.35 40.15 30.3 39.95 30.25 40.9 29.55 41.2 29.3 41.1 29.4 M40.6 33.3 L40.75 33.1 Q41.25 32.6 41.25 31.9 L41.25 31.8 41.7 31.9 43.75 32.45 44.45 32.5 43.95 32.65 43.4 32.6 42.05 32.45 41.4 32.45 42.15 33.05 41.2 32.85 42.05 33.85 42.85 34.4 43.35 34.8 43.85 35.15 42.85 34.8 41.6 33.95 40.75 33.4 40.6 33.3 M24.55 37.45 L24.4 37.45 23.6 37.4 23.35 37.4 23.4 37.35 23.55 37.2 24.65 37.4 24.55 37.45 M18.45 33.2 L18.6 33.3 Q18.4 33.35 18.25 33.5 L18.15 33.35 17.8 32.7 18.35 33.15 18.45 33.2 M20.8 33.55 Q20.9 33.35 21.25 33.15 L21.45 32.95 21.15 34.0 20.9 33.65 20.8 33.55 M21.7 33.85 L21.7 33.8 Q22.15 33.35 22.6 33.25 L22.45 33.4 22.4 33.45 21.9 34.25 21.45 34.35 21.35 34.25 21.7 33.85 M23.25 34.35 L23.5 34.3 23.85 34.35 23.35 34.7 23.25 34.65 23.0 34.45 23.25 34.35 M18.8 33.2 L18.65 32.55 18.95 32.95 19.05 33.1 18.8 33.2 M36.75 28.25 L36.7 27.95 Q36.65 27.5 36.75 27.35 L36.85 27.25 37.3 27.95 36.75 28.25 M23.9 35.55 L23.8 35.25 24.4 35.3 23.9 35.55 M25.75 39.45 L24.45 39.15 23.3 38.75 22.9 37.9 22.85 37.75 23.15 37.7 23.55 38.15 24.2 38.55 24.6 38.85 24.0 38.6 23.7 38.4 Q24.1 39.15 25.4 39.2 L25.8 39.25 25.75 39.45" fill="#605835" fill-rule="evenodd" stroke="none"/>
      <path d="M39.45 25.1 L39.75 25.1 40.6 25.2 Q42.3 25.55 43.75 26.9 45.55 28.6 45.95 31.05 L46.0 31.25 45.95 33.6 45.0 35.85 44.35 36.6 44.2 36.2 44.25 36.15 44.45 35.85 Q45.85 33.8 45.35 31.05 L45.35 31.0 44.65 28.8 43.25 26.9 Q41.55 25.2 39.45 25.1 M43.65 37.15 L43.1 37.45 43.1 37.3 43.1 37.2 43.6 36.85 43.85 37.05 43.65 37.15 M42.0 37.85 L41.0 37.9 41.3 37.85 41.6 37.85 41.95 37.75 42.0 37.85" fill="url(#gradient6)" fill-rule="evenodd" stroke="none"/>
      <path d="M40.35 30.4 L40.8 30.7 40.4 30.45 40.6 31.25 40.65 31.45 40.65 31.6 40.25 32.55 40.2 32.55 40.2 32.6 39.5 32.9 39.35 32.9 38.75 32.95 38.7 32.95 38.7 32.85 38.65 32.7 38.6 32.55 38.55 32.35 38.95 32.4 Q39.65 32.4 39.95 31.85 L40.1 31.55 40.15 31.55 40.15 31.45 40.2 31.05 40.1 30.75 39.85 30.3 39.8 30.2 39.95 30.25 40.15 30.3 40.2 30.35 40.35 30.4 M20.25 33.15 L20.7 33.45 20.45 33.3 20.6 34.15 Q20.75 35.05 20.2 35.55 L20.15 35.55 19.95 35.7 19.35 35.9 19.25 35.9 19.2 35.9 19.15 35.95 18.75 36.0 18.65 35.8 18.4 35.3 18.85 35.35 Q19.8 35.35 20.05 34.45 20.25 33.8 19.95 33.35 L19.7 33.0 19.9 33.05 19.95 33.05 20.25 33.15 M22.35 34.25 L22.9 34.4 23.0 34.45 23.2 35.35 23.25 35.75 23.2 36.1 22.8 36.7 22.75 36.75 22.45 36.95 21.85 37.1 21.8 37.1 Q21.15 37.4 20.45 36.85 L20.55 36.95 20.5 36.95 20.45 36.85 20.4 36.65 20.35 36.5 20.3 36.25 20.3 36.2 20.3 36.05 20.3 35.9 20.75 36.4 21.2 36.5 21.45 36.5 Q22.4 36.5 22.7 35.65 L22.7 35.55 22.75 35.3 22.7 35.05 22.55 34.55 22.5 34.45 22.35 34.25 M38.55 27.95 L38.75 28.0 38.95 28.85 38.9 29.55 38.6 30.15 38.5 30.15 38.0 30.5 37.9 30.3 37.75 30.05 37.65 29.9 37.7 29.9 38.4 29.3 38.45 29.15 38.45 28.4 38.25 27.95 38.1 27.8 38.2 27.8 38.45 27.9 38.5 27.95 38.55 27.95 M39.0 28.2 L39.2 28.35 39.35 28.55 39.0 28.2 M39.5 28.85 L39.6 29.15 39.6 29.3 39.5 28.85" fill="#8b2817" fill-rule="evenodd" stroke="none"/>
      <path d="M44.45 36.95 L44.45 37.2 44.35 37.65 44.15 37.35 43.85 37.1 43.85 37.05 43.6 36.85 43.1 36.5 43.1 37.2 43.1 37.3 43.1 37.45 42.55 39.2 42.4 38.65 42.0 37.85 41.95 37.75 41.2 36.8 39.8 35.2 39.65 35.1 Q39.0 34.4 38.85 33.9 L38.75 33.4 39.45 33.6 39.6 33.6 39.75 33.6 40.2 33.5 40.25 33.45 40.45 33.35 40.6 33.3 40.75 33.4 41.6 33.95 42.85 34.8 44.1 36.05 44.2 36.2 44.35 36.6 44.45 36.95" fill="url(#gradient7)" fill-rule="evenodd" stroke="none"/>
      <path d="M46.0 31.25 L46.55 31.05 Q46.55 31.5 46.8 31.55 L47.5 31.45 47.85 31.95 48.35 31.85 48.6 32.1 49.25 32.05 Q48.75 32.2 48.55 32.85 48.25 32.45 47.9 32.6 L47.65 32.9 47.45 33.2 47.25 33.05 47.0 33.1 46.35 33.95 45.95 33.6 46.0 31.25" fill="url(#gradient8)" fill-rule="evenodd" stroke="none"/>
      <path d="M50.3 34.9 L49.95 35.2 47.25 36.05 47.15 35.55 Q47.0 35.35 46.7 35.4 L46.2 35.55 Q46.5 35.0 46.2 34.7 L47.1 34.7 47.3 34.6 47.45 34.35 Q47.4 34.65 48.1 34.65 L48.35 34.45 48.55 34.25 Q48.8 34.7 49.15 34.7 L49.45 34.6 49.8 34.3 50.1 34.75 50.3 34.9" fill="url(#gradient9)" fill-rule="evenodd" stroke="none"/>
      <path d="M24.05 41.85 L24.05 41.9 Q23.2 42.35 22.15 42.4 L23.05 42.25 23.0 41.85 Q23.05 41.55 23.2 41.65 L23.3 41.7 23.6 42.05 23.75 41.9 23.8 41.9 24.0 41.85 24.05 41.85 M16.5 33.1 L16.65 32.7 16.6 32.85 17.0 32.75 17.0 32.25 17.2 32.0 17.25 32.0 18.05 33.2 18.15 33.35 18.25 33.5 18.2 33.55 18.15 33.7 16.5 33.1 M17.4 32.05 L18.0 32.45 Q17.9 31.85 18.1 31.65 L18.5 31.55 18.9 31.6 19.1 31.15 19.55 30.6 20.15 30.25 20.45 30.35 20.45 31.75 20.4 32.35 20.7 32.65 Q21.2 32.85 21.75 32.2 22.65 31.35 22.95 31.45 L22.85 32.1 Q23.5 32.0 23.6 32.25 L23.15 32.55 22.7 32.95 23.75 32.9 24.5 32.9 Q24.8 33.0 24.55 33.25 L24.25 33.6 24.8 34.15 24.65 34.15 23.5 34.3 23.25 34.35 22.9 34.4 22.35 34.25 22.3 34.25 22.1 34.25 21.9 34.25 24.0 33.0 23.6 33.05 22.45 33.4 22.6 33.25 Q22.15 33.35 21.7 33.8 L21.7 33.85 21.35 34.2 21.25 34.15 21.4 33.6 22.35 31.95 21.5 32.8 21.25 33.15 Q20.9 33.35 20.8 33.55 L20.75 33.55 20.7 33.5 20.7 33.45 20.25 33.15 20.1 32.6 20.15 30.25 19.55 32.95 19.55 33.0 19.15 33.05 18.9 32.75 18.55 32.05 18.45 31.75 18.55 32.65 18.65 33.25 18.6 33.3 18.45 33.2 17.4 32.05 M24.85 34.25 L24.95 34.35 24.95 34.8 24.75 35.15 25.1 35.3 Q25.25 35.45 25.0 35.6 L24.55 35.9 24.1 36.25 25.25 36.35 24.5 36.65 Q23.9 36.85 23.9 36.95 L24.95 37.05 25.95 37.15 25.4 37.35 24.55 37.45 24.65 37.4 23.55 37.2 Q23.95 36.7 23.95 36.05 L23.95 36.0 23.95 35.7 Q24.4 35.5 24.8 35.25 L24.4 35.3 23.8 35.25 23.6 34.9 24.85 34.25 M24.4 37.45 L24.05 37.5 25.65 37.85 26.1 37.95 26.05 38.3 25.8 39.45 25.75 39.45 25.8 39.25 25.4 39.2 Q24.1 39.15 23.7 38.4 L24.0 38.6 24.6 38.85 24.2 38.55 23.55 38.15 23.15 37.7 22.85 37.75 23.1 37.6 24.6 38.15 25.8 38.35 24.35 38.3 25.05 38.75 25.9 38.9 26.0 38.35 26.05 38.3 24.9 38.15 23.25 37.6 23.15 37.55 23.35 37.4 23.6 37.4 24.4 37.45 M25.95 35.3 L25.65 34.2 25.6 34.05 25.15 32.9 25.95 35.3 M19.7 33.0 L19.9 32.05 19.95 33.05 19.9 33.05 19.7 33.0 M22.25 30.0 L23.05 30.4 Q22.25 29.95 21.5 29.8 L22.25 30.0" fill="url(#gradient10)" fill-rule="evenodd" stroke="none"/>
      <path d="M19.0 41.35 Q18.45 42.85 17.3 43.7 L8.3 46.45 Q9.3 45.95 10.1 44.85 L10.2 44.65 10.75 45.05 12.1 44.6 Q12.8 44.1 12.75 43.7 12.6 43.0 10.9 43.4 11.2 42.25 11.1 41.0 L11.25 41.0 11.35 40.05 11.65 39.2 12.05 39.1 12.55 39.2 Q12.45 38.35 12.6 38.05 12.7 37.85 13.05 37.85 L13.6 37.9 13.7 37.25 14.3 37.1 14.15 36.5 14.4 36.05 14.65 35.65 13.4 35.5 Q13.4 36.1 12.95 36.35 L11.7 36.2 11.5 36.85 10.7 36.65 Q10.5 37.4 10.1 37.4 L8.9 35.9 Q7.7 34.7 6.3 34.3 L8.35 33.6 Q12.85 32.25 14.65 32.55 15.9 32.8 17.2 34.4 18.45 36.05 19.1 38.35 L18.95 38.05 18.65 38.3 18.35 38.5 Q17.95 38.5 17.8 37.85 L17.55 38.1 17.3 38.3 Q16.85 38.3 16.7 37.45 16.55 37.4 16.5 37.75 L16.4 38.15 15.6 38.2 16.0 38.5 16.0 39.2 16.3 39.05 16.55 39.05 Q16.85 39.15 16.85 40.05 L17.15 39.8 17.55 39.8 17.7 40.75 Q17.75 40.6 18.05 40.55 L18.45 40.55 Q18.65 40.7 18.65 41.2 L18.65 41.95 19.05 41.2 19.0 41.35 M15.05 36.05 L15.8 35.7 16.1 35.15 Q16.35 34.6 15.95 34.4 L15.3 34.45 15.45 35.3 15.1 35.95 15.05 36.05 M15.6 42.35 Q15.25 42.9 15.7 43.25 L16.8 43.35 17.6 42.8 Q17.75 42.4 17.5 42.05 17.25 41.65 16.6 41.7 15.95 41.8 15.6 42.35 M13.85 39.85 Q12.95 40.0 12.8 40.8 12.6 41.5 13.05 41.85 L14.3 41.9 Q15.15 41.65 15.2 41.15 15.25 40.55 14.9 40.15 14.55 39.7 13.85 39.85" fill="url(#gradient11)" fill-rule="evenodd" stroke="none"/>
      <path d="M10.1 37.4 Q10.5 37.4 10.7 36.65 L11.5 36.85 11.7 36.2 12.95 36.35 Q13.4 36.1 13.4 35.5 L14.65 35.65 14.4 36.05 14.15 36.5 14.3 37.1 13.7 37.25 13.6 37.9 13.05 37.85 Q12.7 37.85 12.6 38.05 12.45 38.35 12.55 39.2 L12.05 39.1 11.65 39.2 11.35 40.05 11.25 41.0 11.1 41.0 11.0 40.05 Q10.8 38.55 10.1 37.4" fill="url(#gradient12)" fill-rule="evenodd" stroke="none"/>
      <path d="M15.05 36.05 L15.1 35.95 15.45 35.3 15.3 34.45 15.95 34.4 Q16.35 34.6 16.1 35.15 L15.8 35.7 15.05 36.05" fill="url(#gradient13)" fill-rule="evenodd" stroke="none"/>
      <path d="M39.45 30.2 L39.6 30.2 39.8 30.2 39.85 30.3 40.1 30.75 40.2 31.05 40.15 31.45 40.15 31.55 40.1 31.55 39.95 31.85 Q39.65 32.4 38.95 32.4 L38.55 32.35 38.35 31.35 38.2 31.0 38.2 30.95 38.4 30.7 Q38.75 30.35 39.3 30.25 L39.45 30.2 M18.6 33.3 L18.65 33.25 18.8 33.2 19.05 33.1 19.15 33.05 19.55 33.0 19.7 33.0 19.95 33.35 Q20.25 33.8 20.05 34.45 19.8 35.35 18.85 35.35 L18.4 35.3 18.1 34.8 17.75 34.35 18.15 33.7 18.2 33.55 18.25 33.5 Q18.4 33.35 18.6 33.3 M21.9 34.25 L22.1 34.25 22.3 34.25 22.35 34.25 22.5 34.45 22.55 34.55 22.7 35.05 22.75 35.3 22.7 35.55 22.7 35.65 Q22.4 36.5 21.45 36.5 L21.2 36.5 20.75 36.4 20.3 35.9 20.3 35.85 Q20.4 35.2 20.85 34.75 L21.3 34.45 21.4 34.4 21.45 34.35 21.9 34.25 M18.45 33.8 L18.4 33.85 Q18.3 34.1 18.35 34.3 L18.6 34.6 Q19.05 34.8 19.3 34.25 19.5 33.85 19.25 33.65 L19.1 33.5 18.7 33.5 18.45 33.8 M38.1 27.8 L38.25 27.95 38.45 28.4 38.45 29.15 38.4 29.3 37.7 29.9 37.65 29.9 37.65 29.85 37.3 29.3 37.45 29.3 37.7 28.95 37.75 28.9 Q37.9 28.55 37.7 28.4 L37.65 28.4 37.55 28.3 37.15 28.3 36.95 28.45 36.9 28.55 36.85 28.8 36.6 28.5 36.65 28.35 36.75 28.25 37.3 27.95 37.75 27.8 37.95 27.8 38.1 27.8 M38.55 31.0 Q38.3 31.5 38.75 31.65 39.1 31.9 39.35 31.4 39.6 30.9 39.2 30.65 38.75 30.5 38.55 31.0 M21.7 34.7 L21.6 34.7 21.4 34.7 21.0 35.05 Q20.8 35.6 21.2 35.8 21.65 35.95 21.85 35.6 L21.9 35.5 21.9 35.45 Q22.15 34.95 21.7 34.7" fill="#ac331c" fill-rule="evenodd" stroke="none"/>
      <path d="M18.45 33.8 L18.7 33.5 19.1 33.5 19.25 33.65 Q19.5 33.85 19.3 34.25 19.05 34.8 18.6 34.6 L18.35 34.3 Q18.3 34.1 18.4 33.85 L18.45 33.8 M36.85 28.8 L36.9 28.55 36.95 28.45 37.15 28.3 37.55 28.3 37.65 28.4 37.7 28.4 Q37.9 28.55 37.75 28.9 L37.7 28.95 37.45 29.3 37.3 29.3 36.85 28.8 M38.55 31.0 Q38.75 30.5 39.2 30.65 39.6 30.9 39.35 31.4 39.1 31.9 38.75 31.65 38.3 31.5 38.55 31.0 M21.7 34.7 Q22.15 34.95 21.9 35.45 L21.9 35.5 21.85 35.6 Q21.65 35.95 21.2 35.8 20.8 35.6 21.0 35.05 L21.4 34.7 21.6 34.7 21.7 34.7" fill="#e0786f" fill-rule="evenodd" stroke="none"/>
      <path d="M17.75 34.35 L17.15 33.65 16.5 33.1 18.15 33.7 17.75 34.35 M19.0 36.6 L19.3 36.65 19.55 36.65 20.35 36.5 20.4 36.65 20.45 36.85 20.5 36.95 20.55 37.0 20.45 37.25 20.6 37.95 20.6 38.3 20.55 38.45 20.5 38.5 20.2 39.1 20.25 39.1 19.65 40.05 19.1 41.0 19.35 39.35 19.35 39.15 19.35 38.85 19.35 38.75 19.35 38.65 19.35 38.55 19.25 37.8 19.0 36.6" fill="url(#gradient14)" fill-rule="evenodd" stroke="none"/>
      <path d="M8.3 46.45 L6.2 46.9 Q3.7 46.9 1.85 44.75 0.0 42.6 0.0 39.75 0.0 37.25 1.55 35.6 2.6 34.45 4.05 34.25 L5.15 34.15 6.3 34.3 Q7.7 34.7 8.9 35.9 L10.1 37.4 Q10.8 38.55 11.0 40.05 L11.1 41.0 Q11.2 42.25 10.9 43.4 L10.85 43.4 10.85 43.45 10.8 43.45 10.2 44.65 10.1 44.85 Q9.3 45.95 8.3 46.45" fill="url(#gradient15)" fill-rule="evenodd" stroke="none"/>
      <path d="M19.1 38.35 L19.35 39.35 19.1 41.0 19.05 41.2 18.65 41.95 18.65 41.2 Q18.65 40.7 18.45 40.55 L18.05 40.55 Q17.75 40.6 17.7 40.75 L17.55 39.8 17.15 39.8 16.85 40.05 Q16.85 39.15 16.55 39.05 L16.3 39.05 16.0 39.2 16.0 38.5 15.6 38.2 16.4 38.15 16.5 37.75 Q16.55 37.4 16.7 37.45 16.85 38.3 17.3 38.3 L17.55 38.1 17.8 37.85 Q17.95 38.5 18.35 38.5 L18.65 38.3 18.95 38.05 19.1 38.35" fill="url(#gradient16)" fill-rule="evenodd" stroke="none"/>
      <path d="M15.6 42.35 Q15.95 41.8 16.6 41.7 17.25 41.65 17.5 42.05 17.75 42.4 17.6 42.8 L16.8 43.35 15.7 43.25 Q15.25 42.9 15.6 42.35" fill="url(#gradient17)" fill-rule="evenodd" stroke="none"/>
      <path d="M21.8 42.4 Q21.95 43.3 22.45 44.35 L21.55 44.15 Q20.95 43.85 20.5 42.95 L20.4 43.25 19.5 44.05 18.7 44.55 Q18.9 43.1 19.45 41.65 L20.0 40.25 20.45 39.15 20.55 38.5 20.55 38.45 20.6 38.3 20.6 37.95 20.45 37.25 20.55 37.0 Q20.95 37.65 21.65 37.85 L22.0 37.85 22.1 37.85 22.2 37.85 22.25 38.1 22.25 38.3 Q22.4 39.2 22.15 40.2 L22.0 40.6 Q21.7 41.45 21.8 42.4" fill="url(#gradient18)" fill-rule="evenodd" stroke="none"/>
      <path d="M13.85 39.85 Q14.55 39.7 14.9 40.15 15.25 40.55 15.2 41.15 15.15 41.65 14.3 41.9 L13.05 41.85 Q12.6 41.5 12.8 40.8 12.95 40.0 13.85 39.85" fill="url(#gradient19)" fill-rule="evenodd" stroke="none"/>
      <path d="M10.9 43.4 Q12.6 43.0 12.75 43.7 12.8 44.1 12.1 44.6 L10.75 45.05 10.2 44.65 10.8 43.45 10.85 43.45 10.85 43.4 10.9 43.4" fill="url(#gradient20)" fill-rule="evenodd" stroke="none"/>
      <path d="M37.3 29.3 L37.65 29.85 36.85 28.85 36.85 28.8 37.3 29.3 M37.9 31.15 L37.65 31.15 37.25 31.1 37.1 30.8 36.65 30.45 Q36.1 30.3 36.0 30.6 L35.85 30.1 35.2 30.2 34.7 30.0 34.3 29.85 35.05 29.8 35.3 29.45 35.65 29.45 35.95 29.45 36.15 29.0 36.75 28.9 Q37.45 29.75 37.8 30.9 L37.9 31.15 M38.1 30.8 L38.15 30.9 38.2 30.95 38.2 31.0 38.2 31.05 38.1 30.8" fill="url(#gradient21)" fill-rule="evenodd" stroke="none"/>
      <path d="M36.35 28.2 L36.65 28.35 36.6 28.5 36.5 28.4 36.25 28.2 36.1 28.0 36.35 28.2" fill="url(#gradient22)" fill-rule="evenodd" stroke="none"/>
      <path d="M37.8 37.25 L36.65 38.45 36.2 38.6 Q36.3 38.05 35.95 37.75 L34.85 37.65 Q34.35 37.85 34.15 38.3 34.0 38.75 34.3 39.1 L32.6 39.55 Q32.9 39.05 32.6 38.75 32.25 38.35 31.45 38.5 30.8 38.65 30.5 39.2 30.3 39.7 30.6 40.1 L27.85 40.85 Q27.15 39.9 26.35 39.65 L26.05 39.55 26.7 39.25 Q27.65 39.25 27.9 39.7 L28.1 39.1 28.55 38.6 29.4 38.45 30.2 38.55 30.25 37.95 30.35 37.4 Q30.45 37.15 30.85 37.2 L31.5 37.15 Q31.25 36.5 31.4 36.0 31.6 35.35 32.2 35.2 L31.85 34.75 31.9 34.15 32.05 33.0 31.3 34.2 30.8 34.35 30.25 34.35 30.15 34.8 30.15 35.15 30.0 35.5 29.05 35.55 29.0 36.1 28.65 36.5 Q28.2 36.75 27.75 36.3 27.6 37.7 26.15 37.8 L26.15 37.45 26.15 36.35 25.95 35.3 25.15 32.9 24.95 32.55 24.05 31.3 23.7 30.95 23.05 30.4 22.25 30.0 28.25 28.35 31.75 27.45 32.85 27.05 Q33.8 27.05 34.85 27.5 36.0 28.0 36.75 28.9 L36.15 29.0 35.95 29.45 35.65 29.45 35.3 29.45 35.05 29.8 34.3 29.85 34.7 30.0 35.2 30.2 35.85 30.1 36.0 30.6 Q36.1 30.3 36.65 30.45 L37.1 30.8 37.25 31.1 37.65 31.15 37.9 31.15 38.7 33.95 38.7 33.9 38.7 33.4 38.7 34.7 38.7 34.0 38.7 33.95 38.35 33.95 38.1 33.8 37.9 33.5 37.55 33.45 37.3 33.6 37.0 33.6 Q36.65 33.35 36.65 32.9 36.15 33.35 35.4 32.6 L35.45 33.2 35.3 33.95 35.5 34.05 35.75 34.1 36.0 34.5 36.0 34.95 35.7 35.45 36.5 35.5 36.5 36.0 36.25 36.45 37.0 36.5 37.55 37.05 37.65 37.4 37.8 37.25 M26.3 41.25 L26.15 41.3 26.15 41.2 26.3 41.25 M33.3 32.95 L32.6 32.9 Q32.3 33.15 32.6 33.6 L33.2 34.05 Q33.9 34.25 34.1 34.9 L34.15 34.1 33.95 33.35 33.3 32.95 M33.15 35.3 Q32.3 35.4 32.3 36.55 32.3 37.7 33.3 37.5 34.3 37.35 34.25 36.3 34.25 35.2 33.15 35.3 M38.35 31.35 L38.2 31.05 38.2 31.0 38.35 31.35 M29.25 32.4 Q29.35 33.3 30.35 33.1 31.6 32.85 31.35 31.85 31.2 30.8 29.9 31.25 29.15 31.55 29.25 32.4" fill="url(#gradient23)" fill-rule="evenodd" stroke="none"/>
      <path d="M33.3 32.95 L33.95 33.35 34.15 34.1 34.1 34.9 Q33.9 34.25 33.2 34.05 L32.6 33.6 Q32.3 33.15 32.6 32.9 L33.3 32.95" fill="url(#gradient24)" fill-rule="evenodd" stroke="none"/>
      <path d="M26.1 37.95 L26.15 37.8 Q27.6 37.7 27.75 36.3 28.2 36.75 28.65 36.5 L29.0 36.1 29.05 35.55 30.0 35.5 30.15 35.15 30.15 34.8 30.25 34.35 30.8 34.35 31.3 34.2 32.05 33.0 31.9 34.15 31.85 34.75 32.2 35.2 Q31.6 35.35 31.4 36.0 31.25 36.5 31.5 37.15 L30.85 37.2 Q30.45 37.15 30.35 37.4 L30.25 37.95 30.2 38.55 29.4 38.45 28.55 38.6 28.1 39.1 27.9 39.7 Q27.65 39.25 26.7 39.25 L26.05 39.55 25.8 39.45 26.05 38.3 26.1 37.95" fill="url(#gradient25)" fill-rule="evenodd" stroke="none"/>
      <path d="M33.15 35.3 Q34.25 35.2 34.25 36.3 34.3 37.35 33.3 37.5 32.3 37.7 32.3 36.55 32.3 35.4 33.15 35.3" fill="url(#gradient26)" fill-rule="evenodd" stroke="none"/>
      <path d="M37.85 37.15 L37.85 37.2 37.8 37.25 37.65 37.4 37.55 37.05 37.0 36.5 36.25 36.45 36.5 36.0 36.5 35.5 35.7 35.45 36.0 34.95 36.0 34.5 35.75 34.1 35.5 34.05 35.3 33.95 35.45 33.2 35.4 32.6 Q36.15 33.35 36.65 32.9 36.65 33.35 37.0 33.6 L37.3 33.6 37.55 33.45 37.9 33.5 38.1 33.8 38.35 33.95 38.7 33.95 38.7 34.0 38.7 34.7 38.45 35.95 38.4 36.0 38.1 36.55 38.0 36.9 37.85 37.15" fill="url(#gradient27)" fill-rule="evenodd" stroke="none"/>
      <path d="M40.15 37.9 L40.25 38.5 Q40.45 40.1 40.25 40.8 39.9 41.9 38.7 42.25 L38.7 42.05 38.85 41.55 38.9 40.95 38.8 40.6 38.4 40.9 36.5 41.2 Q36.75 40.7 37.35 40.15 38.0 39.4 38.15 37.95 L38.15 37.35 38.1 36.55 38.4 36.0 38.45 35.95 38.7 34.7 38.7 33.4 38.75 33.4 38.85 33.9 Q39.0 34.4 39.65 35.1 L39.8 35.2 39.85 36.05 40.15 37.85 40.15 37.9" fill="url(#gradient28)" fill-rule="evenodd" stroke="none"/>
      <path d="M21.25 34.15 L21.35 34.2 21.35 34.25 21.45 34.35 21.4 34.4 21.3 34.45 21.25 34.25 21.2 34.2 21.15 34.05 21.25 34.15 M20.55 38.45 L20.55 38.5 20.45 39.15 20.25 39.1 20.2 39.1 20.5 38.5 20.55 38.45" fill="#5d9022" fill-rule="evenodd" stroke="none"/>
      <path d="M29.25 32.4 Q29.15 31.55 29.9 31.25 31.2 30.8 31.35 31.85 31.6 32.85 30.35 33.1 29.35 33.3 29.25 32.4" fill="url(#gradient29)" fill-rule="evenodd" stroke="none"/>
      <path d="M23.1 37.6 L23.15 37.55 23.25 37.6 24.9 38.15 26.05 38.3 26.0 38.35 25.8 38.35 24.6 38.15 23.1 37.6 M23.3 41.7 L23.75 41.9 23.6 42.05 23.3 41.7" fill="#857a4a" fill-rule="evenodd" stroke="none"/>
      <path d="M27.85 40.85 L28.0 41.0 28.6 42.0 28.15 41.8 Q27.75 41.55 26.3 41.25 L26.15 41.2 26.15 41.3 26.15 43.3 25.0 42.35 24.05 41.85 24.0 41.85 23.55 41.6 Q22.7 41.25 22.25 40.5 L22.15 40.2 Q22.4 39.2 22.25 38.3 L22.25 38.1 22.2 37.85 22.3 37.85 22.75 37.8 22.85 37.75 22.9 37.9 23.3 38.75 24.45 39.15 25.75 39.45 25.8 39.45 26.05 39.55 26.35 39.65 Q27.15 39.9 27.85 40.85" fill="url(#gradient30)" fill-rule="evenodd" stroke="none"/>
      <path d="M36.2 38.6 L34.3 39.1 Q34.0 38.75 34.15 38.3 34.35 37.85 34.85 37.65 L35.95 37.75 Q36.3 38.05 36.2 38.6" fill="url(#gradient31)" fill-rule="evenodd" stroke="none"/>
      <path d="M32.6 39.55 L30.6 40.1 Q30.3 39.7 30.5 39.2 30.8 38.65 31.45 38.5 32.25 38.35 32.6 38.75 32.9 39.05 32.6 39.55" fill="url(#gradient32)" fill-rule="evenodd" stroke="none"/>
    </g>
    <linearGradient gradientTransform="matrix(0.0024, 0.0075, 0.0075, -0.0024, 45.9, 29.9)" gradientUnits="userSpaceOnUse" id="gradient0" spreadMethod="pad" x1="-819.2" x2="819.2">
      <stop offset="0.10588235294117647" stop-color="#d8cda7"/>
      <stop offset="0.2196078431372549" stop-color="#fbf3d7"/>
      <stop offset="0.3176470588235294" stop-color="#e7ddb1"/>
      <stop offset="0.8392156862745098" stop-color="#93854d"/>
      <stop offset="1.0" stop-color="#bdaf78"/>
    </linearGradient>
    <linearGradient gradientTransform="matrix(0.003, 0.0071, 0.0071, -0.003, 49.1, 28.4)" gradientUnits="userSpaceOnUse" id="gradient1" spreadMethod="pad" x1="-819.2" x2="819.2">
      <stop offset="0.03137254901960784" stop-color="#91b94c"/>
      <stop offset="0.792156862745098" stop-color="#52692b"/>
      <stop offset="1.0" stop-color="#81a544"/>
    </linearGradient>
    <linearGradient gradientTransform="matrix(0.003, 0.0074, 0.0074, -0.003, 50.45, 28.0)" gradientUnits="userSpaceOnUse" id="gradient2" spreadMethod="pad" x1="-819.2" x2="819.2">
      <stop offset="0.03137254901960784" stop-color="#c66258"/>
      <stop offset="0.792156862745098" stop-color="#5d2e2a"/>
      <stop offset="1.0" stop-color="#934941"/>
    </linearGradient>
    <linearGradient gradientTransform="matrix(0.003, 0.0074, 0.0074, -0.003, 49.7, 28.35)" gradientUnits="userSpaceOnUse" id="gradient3" spreadMethod="pad" x1="-819.2" x2="819.2">
      <stop offset="0.03137254901960784" stop-color="#c66258"/>
      <stop offset="0.792156862745098" stop-color="#5d2e2a"/>
      <stop offset="1.0" stop-color="#934941"/>
    </linearGradient>
    <linearGradient gradientTransform="matrix(0.003, 0.0074, 0.0074, -0.003, 46.6, 29.6)" gradientUnits="userSpaceOnUse" id="gradient4" spreadMethod="pad" x1="-819.2" x2="819.2">
      <stop offset="0.03137254901960784" stop-color="#c66258"/>
      <stop offset="0.792156862745098" stop-color="#5d2e2a"/>
      <stop offset="1.0" stop-color="#934941"/>
    </linearGradient>
    <linearGradient gradientTransform="matrix(-0.0024, -0.0078, -0.0078, 0.0024, 39.85, 31.35)" gradientUnits="userSpaceOnUse" id="gradient5" spreadMethod="pad" x1="-819.2" x2="819.2">
      <stop offset="0.0" stop-color="#93854d"/>
      <stop offset="1.0" stop-color="#d4c99a"/>
    </linearGradient>
    <linearGradient gradientTransform="matrix(0.0023, 0.0073, 0.0073, -0.0023, 40.25, 31.65)" gradientUnits="userSpaceOnUse" id="gradient6" spreadMethod="pad" x1="-819.2" x2="819.2">
      <stop offset="0.0" stop-color="#dcd8cc"/>
      <stop offset="0.25098039215686274" stop-color="#ffffff"/>
      <stop offset="0.4588235294117647" stop-color="#f7eab7"/>
      <stop offset="1.0" stop-color="#bdaf78"/>
    </linearGradient>
    <linearGradient gradientTransform="matrix(0.0018, 0.0025, 0.0025, -0.0018, 41.65, 35.4)" gradientUnits="userSpaceOnUse" id="gradient7" spreadMethod="pad" x1="-819.2" x2="819.2">
      <stop offset="0.0" stop-color="#304b11"/>
      <stop offset="0.27450980392156865" stop-color="#659d26"/>
      <stop offset="0.43529411764705883" stop-color="#49721b"/>
      <stop offset="0.7803921568627451" stop-color="#3d6017"/>
      <stop offset="1.0" stop-color="#558224"/>
    </linearGradient>
    <linearGradient gradientTransform="matrix(0.003, 0.0071, 0.0071, -0.003, 45.55, 29.85)" gradientUnits="userSpaceOnUse" id="gradient8" spreadMethod="pad" x1="-819.2" x2="819.2">
      <stop offset="0.03137254901960784" stop-color="#91b94c"/>
      <stop offset="0.792156862745098" stop-color="#52692b"/>
      <stop offset="1.0" stop-color="#81a544"/>
    </linearGradient>
    <linearGradient gradientTransform="matrix(0.0033, 0.0072, 0.0072, -0.0033, 45.7, 29.7)" gradientUnits="userSpaceOnUse" id="gradient9" spreadMethod="pad" x1="-819.2" x2="819.2">
      <stop offset="0.03137254901960784" stop-color="#91b94c"/>
      <stop offset="0.792156862745098" stop-color="#52692b"/>
      <stop offset="1.0" stop-color="#81a544"/>
    </linearGradient>
    <linearGradient gradientTransform="matrix(-0.0024, -0.0072, -0.0072, 0.0024, 21.15, 36.05)" gradientUnits="userSpaceOnUse" id="gradient10" spreadMethod="pad" x1="-819.2" x2="819.2">
      <stop offset="0.0" stop-color="#93854d"/>
      <stop offset="1.0" stop-color="#d4c99a"/>
    </linearGradient>
    <linearGradient gradientTransform="matrix(0.0024, 0.0075, 0.0075, -0.0024, 12.4, 38.7)" gradientUnits="userSpaceOnUse" id="gradient11" spreadMethod="pad" x1="-819.2" x2="819.2">
      <stop offset="0.10588235294117647" stop-color="#d8cda7"/>
      <stop offset="0.2196078431372549" stop-color="#fbf3d7"/>
      <stop offset="0.3176470588235294" stop-color="#e7ddb1"/>
      <stop offset="0.8392156862745098" stop-color="#93854d"/>
      <stop offset="1.0" stop-color="#bdaf78"/>
    </linearGradient>
    <linearGradient gradientTransform="matrix(0.0027, 0.0072, 0.0072, -0.0027, 12.4, 38.7)" gradientUnits="userSpaceOnUse" id="gradient12" spreadMethod="pad" x1="-819.2" x2="819.2">
      <stop offset="0.03137254901960784" stop-color="#91b94c"/>
      <stop offset="0.792156862745098" stop-color="#52692b"/>
      <stop offset="1.0" stop-color="#81a544"/>
    </linearGradient>
    <linearGradient gradientTransform="matrix(0.0027, 0.0072, 0.0072, -0.0027, 16.3, 37.2)" gradientUnits="userSpaceOnUse" id="gradient13" spreadMethod="pad" x1="-819.2" x2="819.2">
      <stop offset="0.03137254901960784" stop-color="#91b94c"/>
      <stop offset="0.792156862745098" stop-color="#52692b"/>
      <stop offset="1.0" stop-color="#81a544"/>
    </linearGradient>
    <linearGradient gradientTransform="matrix(-0.0011, -0.0032, -0.0032, 0.0011, 17.85, 37.25)" gradientUnits="userSpaceOnUse" id="gradient14" spreadMethod="pad" x1="-819.2" x2="819.2">
      <stop offset="0.0" stop-color="#93854d"/>
      <stop offset="1.0" stop-color="#d4c99a"/>
    </linearGradient>
    <linearGradient gradientTransform="matrix(-0.0039, 0.0041, 0.0041, 0.0039, 5.35, 40.75)" gradientUnits="userSpaceOnUse" id="gradient15" spreadMethod="pad" x1="-819.2" x2="819.2">
      <stop offset="0.0" stop-color="#564d3f"/>
      <stop offset="1.0" stop-color="#9f957b"/>
    </linearGradient>
    <linearGradient gradientTransform="matrix(0.0027, 0.0072, 0.0072, -0.0027, 16.9, 36.95)" gradientUnits="userSpaceOnUse" id="gradient16" spreadMethod="pad" x1="-819.2" x2="819.2">
      <stop offset="0.03137254901960784" stop-color="#91b94c"/>
      <stop offset="0.792156862745098" stop-color="#52692b"/>
      <stop offset="1.0" stop-color="#81a544"/>
    </linearGradient>
    <linearGradient gradientTransform="matrix(0.0023, 0.0073, 0.0073, -0.0023, 15.05, 37.75)" gradientUnits="userSpaceOnUse" id="gradient17" spreadMethod="pad" x1="-819.2" x2="819.2">
      <stop offset="0.03137254901960784" stop-color="#c66258"/>
      <stop offset="0.792156862745098" stop-color="#5d2e2a"/>
      <stop offset="1.0" stop-color="#934941"/>
    </linearGradient>
    <linearGradient gradientTransform="matrix(-4.0E-4, 0.0035, 0.0035, 4.0E-4, 21.15, 40.0)" gradientUnits="userSpaceOnUse" id="gradient18" spreadMethod="pad" x1="-819.2" x2="819.2">
      <stop offset="0.0" stop-color="#304b11"/>
      <stop offset="0.27450980392156865" stop-color="#659d26"/>
      <stop offset="0.43529411764705883" stop-color="#49721b"/>
      <stop offset="0.7803921568627451" stop-color="#3d6017"/>
      <stop offset="1.0" stop-color="#558224"/>
    </linearGradient>
    <linearGradient gradientTransform="matrix(0.0023, 0.0073, 0.0073, -0.0023, 13.1, 38.3)" gradientUnits="userSpaceOnUse" id="gradient19" spreadMethod="pad" x1="-819.2" x2="819.2">
      <stop offset="0.03137254901960784" stop-color="#c66258"/>
      <stop offset="0.792156862745098" stop-color="#5d2e2a"/>
      <stop offset="1.0" stop-color="#934941"/>
    </linearGradient>
    <linearGradient gradientTransform="matrix(0.0023, 0.0073, 0.0073, -0.0023, 9.95, 39.35)" gradientUnits="userSpaceOnUse" id="gradient20" spreadMethod="pad" x1="-819.2" x2="819.2">
      <stop offset="0.03137254901960784" stop-color="#c66258"/>
      <stop offset="0.792156862745098" stop-color="#5d2e2a"/>
      <stop offset="1.0" stop-color="#934941"/>
    </linearGradient>
    <linearGradient gradientTransform="matrix(0.0023, 0.0069, 0.0069, -0.0023, 36.55, 31.65)" gradientUnits="userSpaceOnUse" id="gradient21" spreadMethod="pad" x1="-819.2" x2="819.2">
      <stop offset="0.03137254901960784" stop-color="#91b94c"/>
      <stop offset="0.792156862745098" stop-color="#52692b"/>
      <stop offset="1.0" stop-color="#81a544"/>
    </linearGradient>
    <linearGradient gradientTransform="matrix(-0.0021, -0.0068, -0.0068, 0.0021, 36.5, 32.2)" gradientUnits="userSpaceOnUse" id="gradient22" spreadMethod="pad" x1="-819.2" x2="819.2">
      <stop offset="0.0" stop-color="#9f997b"/>
      <stop offset="1.0" stop-color="#e1ddcb"/>
    </linearGradient>
    <linearGradient gradientTransform="matrix(0.0024, 0.0076, 0.0076, -0.0024, 30.05, 33.9)" gradientUnits="userSpaceOnUse" id="gradient23" spreadMethod="pad" x1="-819.2" x2="819.2">
      <stop offset="0.10588235294117647" stop-color="#d8cda7"/>
      <stop offset="0.2196078431372549" stop-color="#fbf3d7"/>
      <stop offset="0.3176470588235294" stop-color="#e7ddb1"/>
      <stop offset="0.8392156862745098" stop-color="#93854d"/>
      <stop offset="1.0" stop-color="#bdaf78"/>
    </linearGradient>
    <linearGradient gradientTransform="matrix(0.0023, 0.0069, 0.0069, -0.0023, 33.05, 32.85)" gradientUnits="userSpaceOnUse" id="gradient24" spreadMethod="pad" x1="-819.2" x2="819.2">
      <stop offset="0.03137254901960784" stop-color="#91b94c"/>
      <stop offset="0.792156862745098" stop-color="#52692b"/>
      <stop offset="1.0" stop-color="#81a544"/>
    </linearGradient>
    <linearGradient gradientTransform="matrix(0.0023, 0.0069, 0.0069, -0.0023, 27.95, 34.5)" gradientUnits="userSpaceOnUse" id="gradient25" spreadMethod="pad" x1="-819.2" x2="819.2">
      <stop offset="0.03137254901960784" stop-color="#91b94c"/>
      <stop offset="0.792156862745098" stop-color="#52692b"/>
      <stop offset="1.0" stop-color="#81a544"/>
    </linearGradient>
    <linearGradient gradientTransform="matrix(0.0017, 0.0066, 0.0066, -0.0017, 32.55, 33.55)" gradientUnits="userSpaceOnUse" id="gradient26" spreadMethod="pad" x1="-819.2" x2="819.2">
      <stop offset="0.03137254901960784" stop-color="#c66258"/>
      <stop offset="0.792156862745098" stop-color="#5d2e2a"/>
      <stop offset="1.0" stop-color="#934941"/>
    </linearGradient>
    <linearGradient gradientTransform="matrix(0.0023, 0.0069, 0.0069, -0.0023, 36.2, 31.75)" gradientUnits="userSpaceOnUse" id="gradient27" spreadMethod="pad" x1="-819.2" x2="819.2">
      <stop offset="0.03137254901960784" stop-color="#91b94c"/>
      <stop offset="0.792156862745098" stop-color="#52692b"/>
      <stop offset="1.0" stop-color="#81a544"/>
    </linearGradient>
    <linearGradient gradientTransform="matrix(-7.0E-4, 0.004, 0.004, 7.0E-4, 39.0, 37.35)" gradientUnits="userSpaceOnUse" id="gradient28" spreadMethod="pad" x1="-819.2" x2="819.2">
      <stop offset="0.0" stop-color="#29400e"/>
      <stop offset="0.3803921568627451" stop-color="#49721b"/>
      <stop offset="0.7803921568627451" stop-color="#3d6017"/>
      <stop offset="1.0" stop-color="#558224"/>
    </linearGradient>
    <linearGradient gradientTransform="matrix(0.0017, 0.0066, 0.0066, -0.0017, 30.8, 34.05)" gradientUnits="userSpaceOnUse" id="gradient29" spreadMethod="pad" x1="-819.2" x2="819.2">
      <stop offset="0.03137254901960784" stop-color="#c66258"/>
      <stop offset="0.792156862745098" stop-color="#5d2e2a"/>
      <stop offset="1.0" stop-color="#934941"/>
    </linearGradient>
    <linearGradient gradientTransform="matrix(0.0027, 0.0022, 0.0022, -0.0027, 24.05, 39.8)" gradientUnits="userSpaceOnUse" id="gradient30" spreadMethod="pad" x1="-819.2" x2="819.2">
      <stop offset="0.0" stop-color="#29400e"/>
      <stop offset="0.3803921568627451" stop-color="#49721b"/>
      <stop offset="0.7803921568627451" stop-color="#3d6017"/>
      <stop offset="1.0" stop-color="#558224"/>
    </linearGradient>
    <linearGradient gradientTransform="matrix(0.0017, 0.0066, 0.0066, -0.0017, 33.8, 33.25)" gradientUnits="userSpaceOnUse" id="gradient31" spreadMethod="pad" x1="-819.2" x2="819.2">
      <stop offset="0.03137254901960784" stop-color="#c66258"/>
      <stop offset="0.792156862745098" stop-color="#5d2e2a"/>
      <stop offset="1.0" stop-color="#934941"/>
    </linearGradient>
    <linearGradient gradientTransform="matrix(0.0017, 0.0067, 0.0067, -0.0017, 30.25, 34.2)" gradientUnits="userSpaceOnUse" id="gradient32" spreadMethod="pad" x1="-819.2" x2="819.2">
      <stop offset="0.03137254901960784" stop-color="#c66258"/>
      <stop offset="0.792156862745098" stop-color="#5d2e2a"/>
      <stop offset="1.0" stop-color="#934941"/>
    </linearGradient>
  </defs>
</svg>
