<?xml version="1.0" encoding="UTF-8" standalone="no"?>
<svg xmlns:xlink="http://www.w3.org/1999/xlink" height="66.65px" width="66.65px" xmlns="http://www.w3.org/2000/svg">
  <g transform="matrix(1.0, 0.0, 0.0, 1.0, 0.0, 0.0)">
    <use height="5.05" transform="matrix(1.1833, 8.0E-4, -7.0E-4, 1.2213, 2.5044, 42.2279)" width="20.65" xlink:href="#shape0"/>
    <use height="18.8" transform="matrix(1.1824, 0.0, 1.0E-4, 1.2177, 24.3808, 42.404)" width="28.95" xlink:href="#shape1"/>
    <use height="12.0" transform="matrix(0.8856, -0.8038, 0.7805, 0.9121, 39.2, 54.4)" width="18.4" xlink:href="#sprite0"/>
    <use height="17.3" transform="matrix(1.1824, 0.0, 1.0E-4, 1.2177, 26.6864, 41.6125)" width="27.1" xlink:href="#shape3"/>
    <use height="20.9" transform="matrix(1.1824, 0.0, 0.0, 1.2151, 23.8691, 31.752)" width="29.4" xlink:href="#shape4"/>
  </g>
  <defs>
    <g id="shape0" transform="matrix(1.0, 0.0, 0.0, 1.0, 10.35, 2.55)">
      <path d="M-8.4 0.55 L-7.35 0.6 -6.65 2.2 -7.0 2.5 Q-7.7 1.9 -8.3 1.65 -9.0 1.4 -9.95 2.0 L-10.25 1.6 -9.75 1.0 -8.4 0.55" fill="#666666" fill-rule="evenodd" stroke="none"/>
      <path d="M-9.4 1.0 Q-10.05 0.4 -9.65 -0.1 -9.1 -0.75 -8.1 -0.9 -7.75 -1.0 -8.05 -0.55 L-8.85 -0.2 Q-9.55 0.1 -9.4 1.0" fill="url(#gradient0)" fill-rule="evenodd" stroke="none"/>
      <path d="M-9.05 -0.45 L-9.55 0.1 Q-9.5 0.35 -9.1 0.3 -8.3 0.2 -8.2 -0.4 L-9.05 -0.45 M-6.8 -1.3 Q-6.0 -1.4 -6.45 -0.2 -7.0 1.0 -7.6 1.0 L-8.85 1.05 -9.95 1.45 -10.35 1.55 Q-10.4 0.9 -9.9 0.1 L-8.55 -0.9 Q-7.65 -1.3 -6.8 -1.3" fill="#cfcfcf" fill-rule="evenodd" stroke="none"/>
      <path d="M1.45 -1.55 L3.65 -1.95 4.6 0.65 3.85 1.9 1.7 0.45 Q1.25 0.15 1.3 -0.7 L1.45 -1.55" fill="#614122" fill-rule="evenodd" stroke="none"/>
      <path d="M2.45 -0.35 L2.5 -0.05 2.95 0.8 Q3.65 1.9 3.9 1.85 L1.7 1.8 -1.7 1.05 Q-3.55 0.75 -5.25 1.45 -6.55 1.95 -6.65 2.4 -7.65 2.05 -8.05 1.05 L-4.15 -2.0 2.45 -0.35" fill="#805223" fill-rule="evenodd" stroke="none"/>
      <path d="M2.7 0.4 L2.75 0.55 2.45 0.55 0.85 -0.05 Q0.0 -0.25 -1.85 0.5 L-3.35 0.4 -4.75 0.1 Q-5.1 0.1 -5.65 0.5 -6.7 1.0 -6.7 1.05 -7.3 1.3 -7.95 1.05 L-7.75 0.75 -7.2 1.0 Q-6.85 1.15 -6.05 0.55 -5.3 -0.15 -4.65 -0.1 L-2.3 0.35 Q-1.8 0.45 -0.25 -0.35 L1.75 0.0 Q2.25 0.3 2.7 0.4" fill="#613f1d" fill-rule="evenodd" stroke="none"/>
      <path d="M-3.15 -0.2 L-1.95 -0.05 -1.1 -0.55 -0.8 -0.75 1.15 -0.6 -0.35 -0.55 -1.35 -0.15 Q-1.45 0.0 -2.05 0.1 L-2.95 0.05 -4.4 -0.3 -5.3 -0.15 Q-5.95 0.05 -6.15 0.3 -6.5 0.85 -7.85 0.7 L-7.8 0.5 -6.75 0.35 Q-6.0 0.15 -5.45 -0.3 L-3.15 -0.2" fill="#613f1d" fill-rule="evenodd" stroke="none"/>
      <path d="M2.85 0.7 L2.95 0.8 2.45 0.7 -0.5 0.4 -2.95 0.7 -5.0 0.55 -5.75 0.9 -6.45 1.3 -7.75 1.5 -7.9 1.3 -6.35 1.1 -5.7 0.65 Q-5.25 0.35 -4.75 0.35 L-3.45 0.5 -1.95 0.55 -0.4 0.3 1.1 0.3 2.85 0.7" fill="#613f1d" fill-rule="evenodd" stroke="none"/>
      <path d="M-6.3 2.0 L-6.5 2.2 -6.8 2.35 -6.95 2.3 Q-6.8 2.0 -6.3 2.0" fill="#613f1d" fill-rule="evenodd" stroke="none"/>
      <path d="M-6.2 1.65 L-7.15 2.15 -7.35 2.0 Q-6.35 1.5 -5.35 1.45 L-5.25 1.45 -5.65 1.6 -6.2 1.65" fill="#613f1d" fill-rule="evenodd" stroke="none"/>
      <path d="M3.05 1.0 L3.15 1.15 2.7 1.15 0.4 1.25 -2.6 0.9 -2.95 0.9 -4.45 1.15 -5.5 1.3 Q-6.7 1.45 -7.4 1.9 L-7.45 1.85 -7.65 1.6 -6.15 1.35 -4.15 0.9 -1.6 0.85 -0.05 1.05 1.9 1.1 3.05 1.0" fill="#613f1d" fill-rule="evenodd" stroke="none"/>
      <path d="M3.3 1.35 L3.4 1.45 2.15 1.65 0.1 1.45 -0.4 1.35 1.0 1.4 3.3 1.35" fill="#613f1d" fill-rule="evenodd" stroke="none"/>
      <path d="M-0.6 0.7 L-0.15 0.55 0.8 0.55 1.55 0.7 1.4 1.0 0.6 1.0 -0.05 0.9 Q-0.1 0.8 0.2 0.8 L0.65 0.7 Q0.9 0.75 0.55 0.85 L0.45 0.75 Q0.1 0.85 0.4 0.9 L1.1 0.8 Q1.15 0.55 0.2 0.6 L-0.6 0.7" fill="#613f1d" fill-rule="evenodd" stroke="none"/>
      <path d="M2.5 -0.05 Q-0.25 -0.9 -3.0 -0.65 -5.3 -0.45 -6.9 0.4 L-8.0 1.15 Q-8.05 0.4 -7.6 -0.35 -6.9 -1.45 -6.25 -1.75 -5.15 -2.45 -1.3 -2.55 1.8 -2.65 3.65 -1.95 L2.5 -0.05" fill="#cf8740" fill-rule="evenodd" stroke="none"/>
      <path d="M-6.55 -1.55 Q-5.75 -1.7 -5.2 -2.15 L-4.05 -2.35 -5.3 -1.8 -6.8 -1.3 -6.55 -1.55" fill="#ab6f34" fill-rule="evenodd" stroke="none"/>
      <path d="M-4.3 -0.65 L-3.55 -0.6 -4.45 -0.45 -5.2 -0.3 -5.7 -0.15 -4.3 -0.65" fill="#ab6f34" fill-rule="evenodd" stroke="none"/>
      <path d="M-4.0 -1.95 Q-5.85 -1.1 -6.6 -0.95 L-7.2 -0.85 -6.95 -1.1 Q-5.75 -1.15 -5.15 -1.55 -4.25 -1.9 -3.5 -2.35 L-2.65 -2.55 -4.0 -1.95" fill="#ab6f34" fill-rule="evenodd" stroke="none"/>
      <path d="M2.7 -0.35 L2.55 -0.2 1.95 -0.45 -0.45 -0.65 -1.2 -0.7 -0.15 -1.0 Q1.0 -1.25 2.25 -0.6 L2.7 -0.35" fill="#ab6f34" fill-rule="evenodd" stroke="none"/>
      <path d="M0.85 -2.5 L3.35 -1.45 3.3 -1.4 2.65 -1.55 0.2 -2.4 -3.3 -1.9 -7.25 -0.5 -7.45 -0.45 -7.35 -0.75 -7.05 -0.8 -5.65 -1.1 -3.75 -1.8 Q-2.75 -2.35 -1.2 -2.5 L-1.05 -2.55 0.85 -2.5" fill="#ab6f34" fill-rule="evenodd" stroke="none"/>
      <path d="M0.9 -1.95 Q2.1 -1.4 3.2 -1.2 L3.15 -1.05 2.55 -1.2 0.5 -2.0 -0.75 -2.1 -2.2 -1.9 -6.2 -0.6 -7.6 -0.2 -7.6 -0.35 -7.55 -0.35 -6.05 -0.75 -1.85 -2.1 -0.5 -2.3 0.9 -1.95" fill="#ab6f34" fill-rule="evenodd" stroke="none"/>
      <path d="M3.05 -2.1 L3.6 -1.85 3.45 -1.65 3.0 -1.85 2.4 -2.25 3.05 -2.1" fill="#ab6f34" fill-rule="evenodd" stroke="none"/>
      <path d="M-8.0 0.95 L-8.0 0.8 -7.25 0.5 -7.75 0.9 -8.0 0.95" fill="#ab6f34" fill-rule="evenodd" stroke="none"/>
      <path d="M2.65 -0.95 L3.0 -0.85 2.9 -0.65 1.85 -1.05 Q0.65 -1.35 -1.55 -1.0 L-3.1 -0.9 -4.3 -0.9 -6.0 -0.3 -7.6 0.3 -7.9 0.4 -7.8 0.1 -7.0 -0.1 -5.4 -0.75 -3.7 -1.1 -0.7 -1.2 2.65 -0.95" fill="#ab6f34" fill-rule="evenodd" stroke="none"/>
      <path d="M-1.1 -1.65 L-1.2 -1.6 -1.1 -1.55 -1.45 -1.6 -1.35 -1.75 -0.75 -1.8 -0.05 -1.7 Q0.2 -1.6 -0.1 -1.45 L-1.4 -1.35 -2.55 -1.45 Q-2.75 -1.65 -1.15 -1.95 L0.2 -1.85 -1.7 -1.8 Q-2.3 -1.55 -1.9 -1.45 L-1.1 -1.5 -0.55 -1.65 -0.75 -1.65 -1.1 -1.65" fill="#ab6f34" fill-rule="evenodd" stroke="none"/>
      <path d="M6.35 1.0 L4.15 1.2 4.0 1.7 3.4 1.1 2.9 0.4 2.8 0.1 4.3 -0.85 8.95 0.8 9.5 1.3 6.35 1.0" fill="#4d4d4d" fill-rule="evenodd" stroke="none"/>
      <path d="M9.3 0.85 L2.7 0.2 3.75 -1.5 8.55 -1.0 9.3 0.85" fill="#a8a8a8" fill-rule="evenodd" stroke="none"/>
      <path d="M10.2 0.95 L3.8 0.25 4.8 -0.55 Q5.35 -1.0 6.3 -1.2 L10.3 -0.9 10.2 0.95" fill="url(#gradient1)" fill-rule="evenodd" stroke="none"/>
    </g>
    <linearGradient gradientTransform="matrix(-0.0016, 0.0013, 0.0013, 0.0016, -8.75, -0.2)" gradientUnits="userSpaceOnUse" id="gradient0" spreadMethod="pad" x1="-819.2" x2="819.2">
      <stop offset="0.0" stop-color="#ffffff"/>
      <stop offset="1.0" stop-color="#000000"/>
    </linearGradient>
    <linearGradient gradientTransform="matrix(0.0034, 3.0E-4, 3.0E-4, -0.0034, 7.0, -0.3)" gradientUnits="userSpaceOnUse" id="gradient1" spreadMethod="pad" x1="-819.2" x2="819.2">
      <stop offset="0.0" stop-color="#ffffff"/>
      <stop offset="1.0" stop-color="#000000"/>
    </linearGradient>
    <g id="shape1" transform="matrix(1.0, 0.0, 0.0, 1.0, 17.1, 8.25)">
      <path d="M-16.5 1.8 L-17.1 -5.55 -17.05 -8.25 -16.15 -8.1 9.7 -7.25 11.85 -7.45 11.85 -6.35 10.0 4.25 8.3 6.2 Q5.85 8.4 1.85 9.95 L-4.15 10.5 Q-7.45 10.25 -10.15 9.05 L-12.2 7.6 Q-14.55 5.6 -15.75 3.45 L-16.5 1.8" fill="url(#gradient2)" fill-rule="evenodd" stroke="none"/>
    </g>
    <linearGradient gradientTransform="matrix(0.0129, -0.0114, -0.0114, -0.0129, -2.6, -2.6)" gradientUnits="userSpaceOnUse" id="gradient2" spreadMethod="pad" x1="-819.2" x2="819.2">
      <stop offset="0.0" stop-color="#ab0b00"/>
      <stop offset="1.0" stop-color="#820900"/>
    </linearGradient>
    <g id="sprite0" transform="matrix(1.0, 0.0, 0.0, 1.0, 0.0, 0.0)">
      <use height="12.0" transform="matrix(1.0, 0.0, 0.0, 1.0, 0.0, 0.0)" width="18.4" xlink:href="#shape2"/>
    </g>
    <g id="shape2" transform="matrix(1.0, 0.0, 0.0, 1.0, 0.0, 0.0)">
      <path d="M13.65 0.0 L16.6 2.8 18.4 4.15 17.95 4.6 9.15 11.65 6.85 12.0 Q3.8 12.1 0.0 10.8 2.15 10.9 4.65 9.2 L6.75 7.5 13.65 0.0" fill="url(#gradient3)" fill-rule="evenodd" stroke="none"/>
    </g>
    <linearGradient gradientTransform="matrix(0.0112, 0.0, 0.0, -0.0112, 9.2, 6.0)" gradientUnits="userSpaceOnUse" id="gradient3" spreadMethod="pad" x1="-819.2" x2="819.2">
      <stop offset="0.0" stop-color="#e6493e"/>
      <stop offset="0.9921568627450981" stop-color="#ad2115"/>
      <stop offset="1.0" stop-color="#ad2115"/>
    </linearGradient>
    <g id="shape3" transform="matrix(1.0, 0.0, 0.0, 1.0, 15.15, 8.9)">
      <path d="M9.6 0.85 Q10.1 -2.85 10.0 -4.45 L9.15 -5.65 Q8.3 -6.7 8.25 -8.9 L10.0 -8.0 Q11.55 -7.25 11.95 -7.35 L11.95 -6.8 10.0 4.25 8.6 5.95 Q9.1 4.5 9.6 0.85" fill="#7d0000" fill-rule="evenodd" stroke="none"/>
      <path d="M-12.2 7.6 Q-13.95 6.15 -15.15 4.45 L-14.9 -8.05 -10.8 -7.95 -11.15 8.4 -12.2 7.6" fill="url(#gradient4)" fill-rule="evenodd" stroke="none"/>
    </g>
    <linearGradient gradientTransform="matrix(0.0053, -0.0046, -0.0046, -0.0053, -12.1, -0.65)" gradientUnits="userSpaceOnUse" id="gradient4" spreadMethod="pad" x1="-819.2" x2="819.2">
      <stop offset="0.0" stop-color="#e6493e"/>
      <stop offset="0.9921568627450981" stop-color="#ad2115"/>
      <stop offset="1.0" stop-color="#ad2115"/>
    </linearGradient>
    <g id="shape4" transform="matrix(1.0, 0.0, 0.0, 1.0, 14.7, 10.45)">
      <path d="M12.1 -1.45 L10.65 -3.95 Q9.2 -6.5 9.55 -6.85 L12.35 -9.05 Q12.75 -4.2 12.1 -1.45" fill="url(#gradient5)" fill-rule="evenodd" stroke="none"/>
      <path d="M8.4 -8.2 L10.15 -8.85 11.75 -9.15 Q11.95 -9.05 11.55 -7.9 11.15 -6.75 11.25 -6.65 14.85 -3.5 14.7 0.35 14.65 4.65 10.3 7.6 5.95 10.55 -0.2 10.45 -6.25 10.35 -10.55 7.2 -14.75 4.0 -14.7 -0.25 -14.6 -4.6 -10.2 -7.6 -5.8 -10.55 0.25 -10.45 2.05 -10.4 5.1 -9.15 7.8 -8.0 8.4 -8.2" fill="url(#gradient6)" fill-rule="evenodd" stroke="none"/>
      <path d="M1.25 0.85 Q4.75 1.2 7.7 2.55 10.6 3.8 12.35 5.8 10.3 8.0 7.05 9.25 3.7 10.5 -0.2 10.45 -3.9 10.35 -7.1 9.05 -10.3 7.75 -12.3 5.6 -10.55 3.15 -6.9 1.8 -3.2 0.45 1.25 0.85" fill="url(#gradient7)" fill-rule="evenodd" stroke="none"/>
      <path d="M12.0 -8.8 L11.55 -7.75 11.0 -7.0 10.0 -3.8 Q9.2 -1.55 8.75 -3.35 8.35 -4.45 8.1 -6.15 7.75 -7.95 7.9 -8.2 L10.95 -9.15 11.85 -9.45 Q12.1 -9.5 12.0 -8.8" fill="url(#gradient8)" fill-rule="evenodd" stroke="none"/>
      <path d="M0.25 -10.45 Q4.5 -10.35 8.1 -8.65 L10.2 -9.1 Q12.0 -9.7 12.3 -9.5 12.55 -9.4 11.9 -8.0 11.2 -6.65 11.5 -6.45 14.85 -3.4 14.7 0.35 14.65 4.65 10.3 7.6 5.95 10.55 -0.2 10.45 -6.25 10.35 -10.55 7.2 -14.75 4.0 -14.7 -0.25 -14.6 -4.6 -10.2 -7.6 -5.8 -10.55 0.25 -10.45 M7.55 -8.0 L4.35 -9.2 0.75 -9.75 Q-5.05 -9.9 -9.4 -7.1 -13.75 -4.45 -13.8 -0.65 -13.95 3.2 -9.85 6.2 -5.8 9.3 -0.05 9.45 5.65 9.65 9.9 6.7 14.0 3.8 14.1 -0.1 14.15 -3.45 10.95 -6.05 10.7 -6.25 11.3 -7.5 12.0 -8.9 11.65 -9.05 L9.65 -8.55 Q7.85 -7.9 7.55 -8.0" fill="#919191" fill-rule="evenodd" stroke="none"/>
    </g>
    <linearGradient gradientTransform="matrix(0.0024, -0.0021, -0.0021, -0.0024, 12.1, -5.3)" gradientUnits="userSpaceOnUse" id="gradient5" spreadMethod="pad" x1="-819.2" x2="819.2">
      <stop offset="0.0" stop-color="#ab0b00"/>
      <stop offset="1.0" stop-color="#820900"/>
    </linearGradient>
    <linearGradient gradientTransform="matrix(0.0177, 0.0028, 0.0065, -0.0414, 1.8, -0.2)" gradientUnits="userSpaceOnUse" id="gradient6" spreadMethod="pad" x1="-819.2" x2="819.2">
      <stop offset="0.0" stop-color="#383838"/>
      <stop offset="0.3686274509803922" stop-color="#595959"/>
      <stop offset="0.5764705882352941" stop-color="#525252"/>
      <stop offset="0.7647058823529411" stop-color="#5e5e5e"/>
      <stop offset="1.0" stop-color="#525252"/>
    </linearGradient>
    <linearGradient gradientTransform="matrix(0.0116, 0.0014, 0.0014, -0.0116, 1.4, 5.8)" gradientUnits="userSpaceOnUse" id="gradient7" spreadMethod="pad" x1="-819.2" x2="819.2">
      <stop offset="0.0196078431372549" stop-color="#424242"/>
      <stop offset="1.0" stop-color="#545454"/>
    </linearGradient>
    <linearGradient gradientTransform="matrix(0.0025, 0.0, 1.0E-4, -0.0059, 9.9, -6.0)" gradientUnits="userSpaceOnUse" id="gradient8" spreadMethod="pad" x1="-819.2" x2="819.2">
      <stop offset="0.0" stop-color="#4d4d4d"/>
      <stop offset="1.0" stop-color="#696969"/>
    </linearGradient>
  </defs>
</svg>
