<?xml version="1.0" encoding="UTF-8" standalone="no"?>
<svg xmlns:xlink="http://www.w3.org/1999/xlink" height="84.5px" width="65.75px" xmlns="http://www.w3.org/2000/svg">
  <g transform="matrix(1.0, 0.0, 0.0, 1.0, 0.0, 0.0)">
    <use height="31.4" transform="matrix(1.0, 0.0, 0.0, 1.0, 19.2, 38.3)" width="28.15" xlink:href="#shape0"/>
    <use height="17.8" transform="matrix(1.0, 0.0, 0.0, 1.0, 24.25, 51.3)" width="22.35" xlink:href="#shape1"/>
    <use height="34.4" transform="matrix(0.9428, 0.3333, -0.3333, 0.9428, 33.5023, 25.2843)" width="14.7" xlink:href="#shape2"/>
    <use height="28.05" transform="matrix(1.0, 0.0, 0.0, 1.0, 18.8, 42.0)" width="28.6" xlink:href="#shape3"/>
  </g>
  <defs>
    <g id="shape0" transform="matrix(1.0, 0.0, 0.0, 1.0, 14.05, 31.4)">
      <path d="M-11.85 -27.35 L-9.3 -27.75 -9.1 -23.6 -9.2 -20.6 Q-10.65 -20.85 -11.75 -22.25 -12.45 -23.1 -13.2 -24.65 L-13.8 -26.0 -13.25 -26.5 -11.85 -27.35" fill="url(#gradient0)" fill-rule="evenodd" stroke="none"/>
      <path d="M10.3 -6.6 Q6.9 -7.7 2.15 -7.7 -2.55 -7.7 -5.95 -6.6 -9.3 -5.55 -9.4 -4.0 L-10.35 -4.0 -9.5 -5.55 -9.5 -20.1 -8.0 -7.15 -5.55 -7.9 1.7 -8.7 9.25 -7.85 12.0 -7.05 13.5 -26.25 14.0 -5.2 13.9 -3.5 13.6 -3.5 13.7 -3.95 Q13.7 -5.5 10.3 -6.6" fill="url(#gradient1)" fill-rule="evenodd" stroke="none"/>
      <path d="M10.3 -6.6 Q13.7 -5.5 13.7 -3.95 13.7 -2.4 10.3 -1.25 6.9 -0.15 2.15 -0.15 -2.65 -0.15 -6.0 -1.25 -9.4 -2.35 -9.4 -3.95 -9.4 -5.5 -6.0 -6.6 -2.65 -7.7 2.15 -7.7 6.9 -7.7 10.3 -6.6" fill="url(#gradient2)" fill-rule="evenodd" stroke="none"/>
      <path d="M12.2 -29.4 Q13.35 -28.8 13.8 -27.0 L14.0 -25.3 14.0 -5.2 13.9 -3.5 Q13.05 -2.25 11.5 -1.45 8.1 0.35 2.1 -0.05 -4.05 -0.45 -6.6 -1.15 -7.6 -1.45 -8.7 -2.3 L-9.55 -3.1 -9.8 -3.5 -10.1 -4.25 Q-10.35 -5.0 -10.0 -5.05 L-9.5 -5.05 -9.5 -20.1 -12.35 -23.5 -13.8 -26.0 -13.35 -26.5 -11.85 -27.35 -9.3 -27.75 -8.4 -29.15 Q-6.7 -30.6 -2.7 -31.0 L1.95 -31.15 3.85 -31.05 4.4 -31.0 5.15 -30.95 6.5 -30.8 Q10.7 -30.25 12.2 -29.4" fill="url(#gradient3)" fill-rule="evenodd" stroke="none"/>
      <path d="M10.0 -30.05 Q6.7 -31.0 2.0 -31.0 -2.65 -31.0 -5.95 -30.05 -7.4 -29.65 -8.25 -29.1 -9.25 -28.5 -9.3 -27.75 L-9.3 -27.7 -9.5 -27.65 -9.7 -27.6 -11.5 -26.95 Q-12.4 -26.6 -12.3 -26.45 L-14.05 -26.45 Q-13.4 -26.9 -11.45 -27.6 L-11.35 -27.65 -9.8 -28.2 Q-9.4 -28.95 -8.25 -29.5 L-5.75 -30.45 Q-2.4 -31.4 2.0 -31.4 6.75 -31.4 10.25 -30.35 13.7 -29.3 14.05 -27.75 L14.1 -27.75 14.1 -27.6 13.3 -27.6 13.3 -27.7 Q13.3 -29.1 10.0 -30.05" fill="url(#gradient4)" fill-rule="evenodd" stroke="none"/>
    </g>
    <linearGradient gradientTransform="matrix(0.0029, 0.0, 0.0, -0.0029, -11.45, -24.15)" gradientUnits="userSpaceOnUse" id="gradient0" spreadMethod="pad" x1="-819.2" x2="819.2">
      <stop offset="0.5686274509803921" stop-color="#000000" stop-opacity="0.2"/>
      <stop offset="1.0" stop-color="#ffffff" stop-opacity="0.2"/>
    </linearGradient>
    <linearGradient gradientTransform="matrix(0.0148, 0.0, 0.0, -0.0148, 1.8, -14.9)" gradientUnits="userSpaceOnUse" id="gradient1" spreadMethod="pad" x1="-819.2" x2="819.2">
      <stop offset="0.3254901960784314" stop-color="#000000" stop-opacity="0.34901962"/>
      <stop offset="0.8941176470588236" stop-color="#000000" stop-opacity="0.34901962"/>
    </linearGradient>
    <radialGradient cx="0" cy="0" gradientTransform="matrix(0.014, 0.0, 0.0, -0.0044, 2.15, -3.95)" gradientUnits="userSpaceOnUse" id="gradient2" r="819.2" spreadMethod="pad">
      <stop offset="0.0" stop-color="#c7ebed" stop-opacity="0.22745098"/>
      <stop offset="1.0" stop-color="#ffffff" stop-opacity="0.29803923"/>
    </radialGradient>
    <linearGradient gradientTransform="matrix(0.014, 0.0, 0.0, -0.014, 1.75, -15.55)" gradientUnits="userSpaceOnUse" id="gradient3" spreadMethod="pad" x1="-819.2" x2="819.2">
      <stop offset="0.0" stop-color="#627475" stop-opacity="0.2"/>
      <stop offset="1.0" stop-color="#ffffff" stop-opacity="0.2"/>
    </linearGradient>
    <linearGradient gradientTransform="matrix(0.0175, 0.0, 0.0, -0.0175, -0.05, -15.45)" gradientUnits="userSpaceOnUse" id="gradient4" spreadMethod="pad" x1="-819.2" x2="819.2">
      <stop offset="0.0" stop-color="#ffffff" stop-opacity="0.65882355"/>
      <stop offset="1.0" stop-color="#c3cec6"/>
    </linearGradient>
    <g id="shape1" transform="matrix(1.0, 0.0, 0.0, 1.0, 11.15, 17.8)">
      <path d="M10.95 -14.0 L10.85 -4.25 Q10.85 -2.2 7.6 -1.05 4.35 0.1 -0.3 0.0 -4.95 -0.05 -8.05 -1.2 -11.2 -2.4 -11.15 -4.35 L-10.95 -14.25 Q-9.5 -13.15 -6.65 -12.45 -3.8 -11.6 -0.3 -11.55 L6.55 -12.15 Q9.6 -12.9 10.95 -14.0" fill="url(#gradient5)" fill-rule="evenodd" stroke="none"/>
      <path d="M7.95 -16.75 Q11.15 -15.8 11.15 -14.55 11.15 -13.3 7.9 -12.5 4.6 -11.7 0.05 -11.8 -4.55 -11.9 -7.7 -12.85 -10.9 -13.8 -10.9 -15.05 -10.9 -16.35 -7.6 -17.15 L0.15 -17.8 Q4.75 -17.65 7.95 -16.75" fill="url(#gradient6)" fill-rule="evenodd" stroke="none"/>
      <path d="M11.2 -14.4 Q11.05 -13.1 8.45 -12.25 5.45 -11.25 0.15 -11.35 -5.15 -11.55 -8.2 -12.7 -10.7 -13.65 -10.85 -14.8 -10.65 -13.8 -7.7 -12.85 -4.55 -11.9 0.05 -11.8 4.6 -11.7 7.9 -12.5 11.0 -13.3 11.2 -14.4" fill="url(#gradient7)" fill-rule="evenodd" stroke="none"/>
    </g>
    <radialGradient cx="0" cy="0" gradientTransform="matrix(0.0076, 0.0178, 0.0167, -0.0081, -2.55, -15.6)" gradientUnits="userSpaceOnUse" id="gradient5" r="819.2" spreadMethod="pad">
      <stop offset="0.0" stop-color="#d0a657" stop-opacity="0.7490196"/>
      <stop offset="1.0" stop-color="#4d3915" stop-opacity="0.7490196"/>
    </radialGradient>
    <radialGradient cx="0" cy="0" gradientTransform="matrix(0.0056, 0.0138, 0.0123, -0.0063, -2.4, -18.4)" gradientUnits="userSpaceOnUse" id="gradient6" r="819.2" spreadMethod="pad">
      <stop offset="0.0" stop-color="#d0a657" stop-opacity="0.7490196"/>
      <stop offset="1.0" stop-color="#4d3915" stop-opacity="0.7490196"/>
    </radialGradient>
    <radialGradient cx="0" cy="0" gradientTransform="matrix(0.0053, 0.0125, 0.0117, -0.0056, -2.4, -15.15)" gradientUnits="userSpaceOnUse" id="gradient7" r="819.2" spreadMethod="pad">
      <stop offset="0.0" stop-color="#f0e2c8" stop-opacity="0.7490196"/>
      <stop offset="1.0" stop-color="#be8e34" stop-opacity="0.7490196"/>
    </radialGradient>
    <g id="shape2" transform="matrix(1.0, 0.0, 0.0, 1.0, 7.35, 17.2)">
      <path d="M-0.95 1.05 L-5.5 -11.95 -5.65 -13.35 -5.65 -13.7 Q-6.65 -14.25 -6.85 -15.0 -6.95 -15.55 -6.55 -16.05 L-5.5 -16.7 -5.2 -16.7 Q-4.55 -16.7 -4.05 -16.3 L-3.65 -15.9 -3.55 -15.75 -3.5 -15.25 Q-3.6 -14.25 -3.85 -13.85 L-3.15 -13.45 1.95 1.55 0.7 1.3 Q-4.7 -12.75 -5.0 -12.65 -5.25 -12.55 -0.05 1.2 L-0.9 1.05 -0.95 1.05 M-5.6 -16.2 L-6.1 -15.95 -6.35 -15.45 -6.1 -14.9 -5.6 -14.7 Q-4.85 -14.7 -4.85 -15.45 -4.85 -16.2 -5.6 -16.2" fill="url(#gradient8)" fill-rule="evenodd" stroke="none"/>
      <path d="M1.95 1.55 L2.55 3.4 2.6 3.4 6.85 16.0 6.75 16.2 6.35 16.55 Q5.65 16.95 4.5 16.15 L-0.9 1.05 -0.05 1.2 0.15 1.7 Q5.55 15.95 5.9 15.85 6.15 15.7 0.75 1.45 L0.7 1.3 1.95 1.55" fill="url(#gradient9)" fill-rule="evenodd" stroke="none"/>
      <path d="M-0.85 2.5 L-0.9 2.55 -6.0 -11.75 -6.0 -11.85 -6.15 -13.35 -6.15 -13.4 Q-7.15 -14.15 -7.35 -14.9 -7.45 -15.7 -7.05 -16.2 -6.6 -16.95 -5.6 -17.2 L-5.2 -17.2 Q-4.05 -17.2 -3.45 -16.5 -2.95 -15.9 -3.0 -15.25 L-3.2 -14.05 -2.9 -13.85 -2.7 -13.6 2.45 1.65 1.95 1.55 2.6 3.4 2.55 3.4 1.95 1.55 -3.15 -13.45 -3.85 -13.85 Q-3.6 -14.25 -3.5 -15.25 L-3.55 -15.75 -3.65 -15.9 -4.05 -16.3 Q-4.55 -16.7 -5.2 -16.7 L-5.5 -16.7 -6.55 -16.05 Q-6.95 -15.55 -6.85 -15.0 -6.65 -14.25 -5.65 -13.7 L-5.65 -13.35 -5.5 -11.95 -0.95 1.05 -1.45 0.85 -0.85 2.5" fill="url(#gradient10)" fill-rule="evenodd" stroke="none"/>
      <path d="M-0.85 2.5 L-1.45 0.85 -0.95 1.05 -0.9 1.05 4.5 16.15 Q5.25 16.7 5.85 16.7 L6.75 16.2 6.85 16.0 2.6 3.4 1.95 1.55 2.45 1.65 2.5 1.65 7.3 15.8 7.3 16.15 Q6.9 17.2 5.85 17.2 5.05 17.2 4.2 16.55 L4.0 16.3 -0.85 2.5" fill="url(#gradient11)" fill-rule="evenodd" stroke="none"/>
      <path d="M-5.6 -16.2 Q-4.85 -16.2 -4.85 -15.45 -4.85 -14.7 -5.6 -14.7 L-6.1 -14.9 -6.35 -15.45 -6.1 -15.95 -5.6 -16.2 M0.7 1.3 L0.75 1.45 Q6.15 15.7 5.9 15.85 5.55 15.95 0.15 1.7 L-0.05 1.2 Q-5.25 -12.55 -5.0 -12.65 -4.7 -12.75 0.7 1.3" fill="#ffffff" fill-rule="evenodd" stroke="none"/>
    </g>
    <linearGradient gradientTransform="matrix(0.0069, 0.0, 0.0, -0.0069, 0.8, -8.75)" gradientUnits="userSpaceOnUse" id="gradient8" spreadMethod="pad" x1="-819.2" x2="819.2">
      <stop offset="0.0" stop-color="#ffffff" stop-opacity="0.34901962"/>
      <stop offset="1.0" stop-color="#abd9db" stop-opacity="0.34901962"/>
    </linearGradient>
    <linearGradient gradientTransform="matrix(0.0069, 0.0, 0.0, -0.0069, 0.8, 8.85)" gradientUnits="userSpaceOnUse" id="gradient9" spreadMethod="pad" x1="-819.2" x2="819.2">
      <stop offset="0.0" stop-color="#ffffff" stop-opacity="0.34901962"/>
      <stop offset="1.0" stop-color="#abd9db" stop-opacity="0.34901962"/>
    </linearGradient>
    <linearGradient gradientTransform="matrix(0.009, 0.0, 0.0, -0.009, 0.0, -8.95)" gradientUnits="userSpaceOnUse" id="gradient10" spreadMethod="pad" x1="-819.2" x2="819.2">
      <stop offset="0.0" stop-color="#ffffff" stop-opacity="0.65882355"/>
      <stop offset="1.0" stop-color="#828984"/>
    </linearGradient>
    <linearGradient gradientTransform="matrix(0.009, 0.0, 0.0, -0.009, 0.0, 9.05)" gradientUnits="userSpaceOnUse" id="gradient11" spreadMethod="pad" x1="-819.2" x2="819.2">
      <stop offset="0.0" stop-color="#ffffff" stop-opacity="0.65882355"/>
      <stop offset="1.0" stop-color="#828984"/>
    </linearGradient>
    <g id="shape3" transform="matrix(1.0, 0.0, 0.0, 1.0, 14.3, 28.05)">
      <path d="M14.15 -5.2 L14.3 -4.45 Q14.3 -2.6 10.7 -1.3 7.1 0.0 2.0 0.0 -3.1 0.0 -6.7 -1.3 -10.3 -2.6 -10.3 -4.45 L-9.95 -5.45 -9.45 -20.2 -13.75 -26.45 -11.15 -26.2 -8.55 -26.2 -7.75 -26.5 -7.6 -26.45 Q-7.05 -25.75 -6.15 -25.75 L-5.9 -25.8 -5.4 -25.5 -2.75 -24.95 0.5 -24.7 7.85 -25.05 Q12.25 -25.75 13.65 -28.0 L14.15 -28.0 14.15 -5.2" fill="url(#gradient12)" fill-rule="evenodd" stroke="none"/>
      <path d="M7.6 -22.45 L7.8 -2.9 7.4 -2.85 7.15 -22.4 7.6 -22.45" fill="#a8642c" fill-rule="evenodd" stroke="none"/>
      <path d="M0.05 -17.35 L0.05 -17.9 3.25 -17.8 Q8.5 -17.85 12.55 -19.55 L12.55 -19.25 Q8.3 -17.3 2.7 -17.25 L0.05 -17.35" fill="#a8642c" fill-rule="evenodd" stroke="none"/>
      <path d="M0.1 -12.8 L0.1 -13.4 3.3 -13.25 Q8.6 -13.3 12.6 -15.05 L12.6 -14.7 Q8.35 -12.75 2.75 -12.7 L0.1 -12.8" fill="#a8642c" fill-rule="evenodd" stroke="none"/>
      <path d="M4.25 -15.25 L2.1 -15.3 2.1 -15.75 4.7 -15.7 Q9.1 -15.85 12.3 -17.3 L12.3 -17.05 Q8.9 -15.4 4.25 -15.25" fill="#a8642c" fill-rule="evenodd" stroke="none"/>
      <path d="M0.15 -8.25 L0.15 -8.85 3.35 -8.7 Q8.65 -8.75 12.65 -10.5 L12.65 -10.2 Q8.4 -8.25 2.8 -8.2 L0.15 -8.25" fill="#a8642c" fill-rule="evenodd" stroke="none"/>
      <path d="M2.15 -11.25 L4.8 -11.15 Q9.15 -11.3 12.35 -12.7 L12.35 -12.45 Q8.85 -10.8 4.3 -10.75 L2.15 -10.8 2.15 -11.25" fill="#a8642c" fill-rule="evenodd" stroke="none"/>
      <path d="M0.2 -3.7 L0.2 -4.35 3.4 -4.2 Q8.65 -4.25 12.7 -5.95 L12.7 -5.65 Q8.55 -3.7 2.85 -3.65 L0.2 -3.7" fill="#a8642c" fill-rule="evenodd" stroke="none"/>
      <path d="M2.2 -6.65 L4.85 -6.6 Q9.15 -6.75 12.4 -8.25 L12.4 -8.0 Q9.1 -6.4 4.35 -6.15 L2.2 -6.2 2.2 -6.65" fill="#a8642c" fill-rule="evenodd" stroke="none"/>
      <path d="M-2.75 -24.95 L-2.1 -24.9 -2.1 -0.25 Q-5.2 -0.6 -7.5 -1.6 -7.75 -18.85 -7.4 -26.25 -6.9 -25.75 -6.15 -25.75 L-5.9 -25.8 -5.4 -25.5 -2.75 -24.95" fill="url(#gradient13)" fill-rule="evenodd" stroke="none"/>
      <path d="M10.6 -25.75 Q11.3 -25.75 11.9 -26.25 12.2 -18.75 11.95 -1.6 9.65 -0.6 6.55 -0.25 L6.55 -24.9 7.2 -24.95 9.85 -25.5 10.35 -25.8 10.6 -25.75" fill="url(#gradient14)" fill-rule="evenodd" stroke="none"/>
      <path d="M-12.7 -24.25 L-13.75 -26.45 -9.25 -26.15 Q-8.65 -26.15 -7.95 -25.75 L-8.15 -24.3 -8.65 -21.7 -9.05 -20.25 Q-11.8 -22.7 -12.7 -24.25" fill="url(#gradient15)" fill-rule="evenodd" stroke="none"/>
      <path d="M10.35 -1.8 Q13.75 -3.1 13.75 -4.9 L13.55 -5.65 13.55 -26.7 Q12.35 -25.5 9.2 -24.75 6.0 -24.0 2.05 -24.0 -4.35 -24.0 -7.95 -25.75 L-12.8 -26.15 Q-12.7 -25.1 -11.55 -23.6 -10.5 -22.1 -9.1 -21.1 L-9.15 -21.05 -9.15 -5.9 -9.45 -4.9 Q-9.45 -3.1 -6.05 -1.8 -2.65 -0.5 2.15 -0.5 6.95 -0.5 10.35 -1.8 M13.35 -28.05 L14.15 -28.05 14.15 -5.25 14.3 -4.45 Q14.3 -2.6 10.7 -1.3 7.1 0.0 2.0 0.0 -3.1 0.0 -6.7 -1.3 -10.3 -2.6 -10.3 -4.45 L-9.95 -5.5 -9.95 -20.45 -12.2 -22.65 Q-12.95 -23.45 -14.25 -26.45 L-14.0 -26.9 -12.25 -26.9 -11.1 -26.65 Q-9.8 -26.5 -7.8 -26.6 L-7.75 -26.55 Q-4.55 -24.9 2.05 -24.9 6.75 -24.9 10.05 -25.85 13.25 -26.75 13.35 -28.05" fill="url(#gradient16)" fill-rule="evenodd" stroke="none"/>
    </g>
    <linearGradient gradientTransform="matrix(0.0171, 0.0, 0.0, -0.0171, 0.3, -14.0)" gradientUnits="userSpaceOnUse" id="gradient12" spreadMethod="pad" x1="-819.2" x2="819.2">
      <stop offset="0.0" stop-color="#ffffff" stop-opacity="0.34901962"/>
      <stop offset="1.0" stop-color="#abd9db" stop-opacity="0.34901962"/>
    </linearGradient>
    <linearGradient gradientTransform="matrix(0.0, 0.0088, 0.0088, 0.0, -4.85, -18.25)" gradientUnits="userSpaceOnUse" id="gradient13" spreadMethod="pad" x1="-819.2" x2="819.2">
      <stop offset="0.0" stop-color="#ffffff" stop-opacity="0.6392157"/>
      <stop offset="1.0" stop-color="#ffffff" stop-opacity="0.0"/>
    </linearGradient>
    <linearGradient gradientTransform="matrix(0.0, 0.0253, 0.0253, 0.0, 9.3, -5.95)" gradientUnits="userSpaceOnUse" id="gradient14" spreadMethod="pad" x1="-819.2" x2="819.2">
      <stop offset="0.0" stop-color="#ffffff" stop-opacity="0.6392157"/>
      <stop offset="1.0" stop-color="#ffffff" stop-opacity="0.0"/>
    </linearGradient>
    <linearGradient gradientTransform="matrix(0.0, 0.006, 0.006, 0.0, -10.85, -21.6)" gradientUnits="userSpaceOnUse" id="gradient15" spreadMethod="pad" x1="-819.2" x2="819.2">
      <stop offset="0.0" stop-color="#ffffff" stop-opacity="0.34901962"/>
      <stop offset="1.0" stop-color="#abd9db" stop-opacity="0.34901962"/>
    </linearGradient>
    <linearGradient gradientTransform="matrix(0.0175, 0.0, 0.0, -0.0175, 0.0, -15.9)" gradientUnits="userSpaceOnUse" id="gradient16" spreadMethod="pad" x1="-819.2" x2="819.2">
      <stop offset="0.0" stop-color="#ffffff" stop-opacity="0.65882355"/>
      <stop offset="1.0" stop-color="#c3cec6"/>
    </linearGradient>
  </defs>
</svg>
