<?xml version="1.0" encoding="UTF-8" standalone="no"?>
<svg xmlns:xlink="http://www.w3.org/1999/xlink" height="57.45px" width="49.75px" xmlns="http://www.w3.org/2000/svg">
  <g transform="matrix(1.0, 0.0, 0.0, 1.0, 0.0, 0.0)">
    <use height="57.45" transform="matrix(1.0, 0.0, 0.0, 1.0, 0.0, 0.0)" width="49.75" xlink:href="#sprite0"/>
    <use height="0.0" transform="matrix(1.0, 0.0, 0.0, 1.0, 15.9, 5.7)" width="0.0" xlink:href="#sprite1"/>
    <use height="47.55" transform="matrix(1.0, 0.0, 0.0, 1.0, 1.9, 5.7)" width="45.85" xlink:href="#sprite2"/>
    <use height="0.0" transform="matrix(1.0, 0.0, 0.0, 1.0, 6.4, 5.7)" width="0.0" xlink:href="#sprite3"/>
    <use height="47.55" transform="matrix(1.0, 0.0, 0.0, 1.0, 5.9, 5.7)" width="37.4" xlink:href="#sprite4"/>
    <use height="0.0" transform="matrix(1.0, 0.0, 0.0, 1.0, 2.15, 5.7)" width="0.0" xlink:href="#sprite5"/>
  </g>
  <defs>
    <g id="sprite0" transform="matrix(1.0, 0.0, 0.0, 1.0, 0.0, 0.0)">
      <use height="57.45" transform="matrix(1.0, 0.0, 0.0, 1.0, 0.0, 0.0)" width="49.75" xlink:href="#shape0"/>
    </g>
    <g id="shape0" transform="matrix(1.0, 0.0, 0.0, 1.0, 0.0, 0.0)">
      <path d="M0.0 28.7 Q0.0 17.6 9.15 8.25 17.5 -0.35 24.85 0.0 31.85 0.3 40.2 8.55 49.7 17.9 49.7 28.7 49.7 39.55 40.2 48.9 31.85 57.15 24.85 57.45 17.95 57.8 9.4 49.2 0.0 39.7 0.0 28.7" fill="#433120" fill-rule="evenodd" stroke="none"/>
      <path d="M0.05 28.7 Q0.05 17.6 9.2 8.25 17.55 -0.35 24.9 0.0 31.9 0.3 40.25 8.55 49.75 17.9 49.75 28.7 49.75 39.55 40.25 48.9 31.9 57.15 24.9 57.45 18.0 57.8 9.45 49.2 0.05 39.7 0.05 28.7" fill="url(#gradient0)" fill-rule="evenodd" stroke="none"/>
    </g>
    <radialGradient cx="0" cy="0" gradientTransform="matrix(0.0303, 0.0, 0.0, -0.0351, 24.9, 28.75)" gradientUnits="userSpaceOnUse" id="gradient0" r="819.2" spreadMethod="pad">
      <stop offset="0.5764705882352941" stop-color="#000000" stop-opacity="0.0"/>
      <stop offset="1.0" stop-color="#000000" stop-opacity="0.5803922"/>
    </radialGradient>
    <g id="sprite2" transform="matrix(1.0, 0.0, 0.0, 1.0, 0.25, 0.0)">
      <use height="47.55" transform="matrix(1.0, 0.0, 0.0, 1.0, -0.25, 0.0)" width="45.85" xlink:href="#shape1"/>
    </g>
    <g id="shape1" transform="matrix(1.0, 0.0, 0.0, 1.0, 0.25, 0.0)">
      <path d="M22.7 0.0 Q32.2 0.0 38.9 6.95 45.6 13.9 45.6 23.75 45.6 33.6 38.9 40.6 32.2 47.55 22.7 47.55 13.2 47.55 6.5 40.6 -0.25 33.6 -0.25 23.75 -0.25 13.95 6.5 6.95 13.2 0.0 22.7 0.0" fill="url(#gradient1)" fill-rule="evenodd" stroke="none"/>
    </g>
    <radialGradient cx="0" cy="0" gradientTransform="matrix(0.028, 0.0, 0.0, -0.029, 22.7, 23.8)" gradientUnits="userSpaceOnUse" id="gradient1" r="819.2" spreadMethod="pad">
      <stop offset="0.5764705882352941" stop-color="#000000" stop-opacity="0.0"/>
      <stop offset="1.0" stop-color="#000000" stop-opacity="0.74509805"/>
    </radialGradient>
    <g id="sprite4" transform="matrix(1.0, 0.0, 0.0, 1.0, 0.5, 0.0)">
      <use height="47.55" transform="matrix(1.0, 0.0, 0.0, 1.0, -0.5, 0.0)" width="37.4" xlink:href="#shape2"/>
    </g>
    <g id="shape2" transform="matrix(1.0, 0.0, 0.0, 1.0, 0.5, 0.0)">
      <path d="M18.2 0.0 Q25.95 0.0 31.4 6.95 36.9 13.95 36.9 23.75 36.9 33.6 31.4 40.6 25.95 47.55 18.2 47.55 10.45 47.55 4.95 40.6 -0.5 33.6 -0.5 23.75 -0.5 13.9 4.95 6.95 10.45 0.0 18.2 0.0" fill="url(#gradient2)" fill-rule="evenodd" stroke="none"/>
    </g>
    <radialGradient cx="0" cy="0" gradientTransform="matrix(0.0228, 0.0, 0.0, -0.029, 19.75, 35.65)" gradientUnits="userSpaceOnUse" id="gradient2" r="819.2" spreadMethod="pad">
      <stop offset="0.027450980392156862" stop-color="#000000" stop-opacity="0.38039216"/>
      <stop offset="1.0" stop-color="#000000" stop-opacity="0.9882353"/>
    </radialGradient>
  </defs>
</svg>
