<?xml version="1.0" encoding="UTF-8" standalone="no"?>
<svg xmlns:xlink="http://www.w3.org/1999/xlink" height="26.3px" width="39.1px" xmlns="http://www.w3.org/2000/svg">
  <g transform="matrix(1.0, 0.0, 0.0, 1.0, 0.0, 0.0)">
    <use height="18.35" transform="matrix(1.0, 0.0, 0.0, 1.0, 5.7, 7.7)" width="28.5" xlink:href="#shape0"/>
  </g>
  <defs>
    <g id="shape0" transform="matrix(1.0, 0.0, 0.0, 1.0, -5.7, -7.7)">
      <path d="M5.7 14.85 L19.65 10.35 33.9 14.2 21.05 19.35 5.7 14.85" fill="#ccc8ab" fill-rule="evenodd" stroke="none"/>
      <path d="M33.4 14.35 L19.7 10.7 6.55 15.7 5.7 14.85 19.55 9.7 33.9 13.55 Q34.2 14.85 33.9 15.05 L33.5 14.75 33.4 14.35" fill="#f5f5f5" fill-rule="evenodd" stroke="none"/>
      <path d="M5.7 14.85 L22.2 18.7 34.2 13.55 30.4 22.2 22.05 26.05 9.4 23.15 5.7 14.85" fill="#dbdbdb" fill-rule="evenodd" stroke="none"/>
      <path d="M33.9 15.05 L30.4 22.2 22.05 26.05 22.7 19.85 33.9 15.05" fill="#b2b2b2" fill-rule="evenodd" stroke="none"/>
      <path d="M5.9 16.2 L5.7 14.85 23.05 18.55 34.2 13.55 33.7 15.2 22.7 19.85 5.9 16.2" fill="#f5f5f5" fill-rule="evenodd" stroke="none"/>
      <path d="M25.4 16.95 L23.65 17.85 22.2 18.7 14.05 16.7 21.05 13.6 28.4 13.7 25.4 16.95" fill="#586436" fill-rule="evenodd" stroke="none"/>
      <path d="M9.85 16.75 L19.4 19.15 15.75 23.7 10.5 22.95 9.85 16.75" fill="#e4e4e4" fill-rule="evenodd" stroke="none"/>
      <path d="M33.05 15.85 L30.55 21.85 22.05 26.05 27.9 20.85 33.05 15.85" fill="#949494" fill-rule="evenodd" stroke="none"/>
      <path d="M12.4 7.95 Q15.8 10.2 17.55 11.1 18.95 11.8 21.8 14.45 17.05 13.95 15.55 13.1 L13.7 11.05 12.4 9.35 12.4 7.95" fill="#90a701" fill-rule="evenodd" stroke="none"/>
      <path d="M10.05 11.35 L11.4 10.7 13.0 11.4 15.3 12.2 Q16.35 12.35 20.3 14.2 L14.9 14.45 Q13.05 14.1 10.05 11.35" fill="#c7c902" fill-rule="evenodd" stroke="none"/>
      <path d="M16.15 16.95 Q12.4 16.45 11.8 15.85 L9.05 14.9 6.55 14.2 8.9 12.85 13.15 14.35 Q14.55 14.85 16.15 16.95" fill="#586436" fill-rule="evenodd" stroke="none"/>
      <path d="M31.9 11.85 Q32.9 12.85 32.05 13.6 31.15 14.35 24.3 17.45 L24.85 16.2 Q25.5 14.9 26.3 14.35 27.2 13.7 29.35 12.75 31.45 11.85 31.9 11.85" fill="#586436" fill-rule="evenodd" stroke="none"/>
      <path d="M19.55 12.6 L21.0 11.75 Q22.65 10.9 23.65 10.85 25.3 10.7 27.65 10.85 25.8 12.45 23.9 12.6 L19.55 12.6" fill="#586436" fill-rule="evenodd" stroke="none"/>
      <path d="M30.4 10.6 Q28.4 13.35 27.05 14.45 25.65 15.6 21.05 17.1 L23.65 14.35 Q25.05 13.1 30.4 10.6" fill="#90a701" fill-rule="evenodd" stroke="none"/>
      <path d="M18.15 11.95 Q19.8 10.7 22.55 9.35 24.35 8.4 27.3 7.7 L28.3 8.7 22.8 10.85 20.4 11.9 19.15 12.6 18.15 11.95" fill="#c7c902" fill-rule="evenodd" stroke="none"/>
      <path d="M19.55 12.6 L20.2 11.8 Q21.05 10.9 22.15 10.6 L26.15 9.2 27.3 10.35 25.05 11.1 Q19.9 12.2 19.55 12.6" fill="#90a701" fill-rule="evenodd" stroke="none"/>
      <path d="M20.15 10.45 L18.4 11.85 15.05 9.6 16.55 8.45 20.15 10.45" fill="#586436" fill-rule="evenodd" stroke="none"/>
      <path d="M27.65 11.95 L24.9 13.6 Q23.65 14.35 21.55 14.7 20.35 14.9 17.95 15.7 L15.8 16.45 15.05 15.45 20.9 13.35 Q23.55 12.35 27.65 11.95" fill="#c7c902" fill-rule="evenodd" stroke="none"/>
      <path d="M19.55 12.6 L21.9 12.45 15.15 15.95 13.55 14.85 19.55 12.6" fill="#586436" fill-rule="evenodd" stroke="none"/>
      <path d="M22.9 14.45 L21.65 15.85 13.15 15.7 15.65 14.6 22.9 14.45" fill="#90a701" fill-rule="evenodd" stroke="none"/>
      <path d="M24.4 17.45 L22.65 18.7 17.9 17.1 18.3 15.6 19.15 16.05 21.15 16.6 Q22.8 16.7 24.4 17.45" fill="#c7c902" fill-rule="evenodd" stroke="none"/>
    </g>
  </defs>
</svg>
