<?xml version="1.0" encoding="UTF-8" standalone="no"?>
<svg xmlns:xlink="http://www.w3.org/1999/xlink" height="193.6px" width="122.6px" xmlns="http://www.w3.org/2000/svg">
  <g transform="matrix(1.0, 0.0, 0.0, 1.0, 0.0, 0.0)">
    <use height="193.6" transform="matrix(1.0, 0.0, 0.0, 1.0, 0.0, 0.0)" width="122.6" xlink:href="#shape0"/>
  </g>
  <defs>
    <g id="shape0" transform="matrix(1.0, 0.0, 0.0, 1.0, 0.0, 0.0)">
      <path d="M75.0 139.8 Q84.8 150.05 85.5 156.35 86.05 161.4 78.6 174.2 75.2 180.05 74.25 182.45 72.75 186.35 74.25 187.85 L78.75 192.35 66.35 191.2 Q63.55 191.2 60.1 192.4 L57.25 193.6 Q57.9 192.25 57.3 190.85 56.1 188.1 49.75 188.1 52.25 187.2 55.2 185.7 61.1 182.7 63.25 179.6 L71.8 166.25 77.75 156.6 59.25 131.6 65.35 130.85 75.0 139.8" fill="#8f7d5c" fill-rule="evenodd" stroke="none"/>
      <path d="M59.25 131.6 L63.2 131.1 74.8 144.25 Q82.8 153.65 82.65 155.6 82.55 157.35 75.7 169.95 68.8 182.7 68.4 185.6 68.0 188.8 69.9 190.45 70.95 191.4 72.35 191.6 L66.35 191.2 Q63.55 191.2 60.1 192.4 L57.25 193.6 Q57.9 192.25 57.3 190.85 56.1 188.1 49.75 188.1 52.25 187.2 55.2 185.7 61.1 182.7 63.25 179.6 L71.8 166.25 77.75 156.6 59.25 131.6" fill="#806e4d" fill-rule="evenodd" stroke="none"/>
      <path d="M80.9 155.35 L74.25 169.05 Q67.45 183.4 66.65 186.35 65.9 189.3 66.2 191.25 63.4 191.3 60.05 192.45 L57.25 193.6 Q57.9 192.25 57.3 190.85 56.1 188.1 49.75 188.1 L53.4 187.2 Q57.85 185.75 61.9 183.1 65.95 180.45 72.95 167.65 L79.15 155.35 62.9 132.85 80.9 155.35" fill="#6c5e3f" fill-rule="evenodd" stroke="none"/>
      <path d="M79.85 6.45 Q64.65 15.45 61.85 28.1 59.05 40.75 65.8 60.45 69.15 70.3 73.1 77.6 L54.0 70.85 62.7 82.1 76.5 100.1 Q80.7 105.75 102.1 113.05 112.75 116.7 122.6 119.25 121.2 121.8 117.15 124.75 109.0 130.65 95.6 132.75 82.25 134.85 71.65 134.0 L63.75 132.7 62.8 134.25 Q61.5 136.25 59.45 138.35 52.85 145.15 41.6 150.75 30.35 156.4 14.05 160.9 5.9 163.15 0.0 164.25 4.5 159.45 9.7 152.55 20.1 138.8 23.6 128.25 27.15 117.7 29.1 102.2 L30.35 88.85 16.85 96.75 30.35 70.85 22.5 73.1 Q30.35 57.35 43.85 31.5 52.3 15.3 74.25 6.05 85.2 1.4 94.5 0.0 87.45 1.95 79.85 6.45" fill="#b36940" fill-rule="evenodd" stroke="none"/>
      <path d="M43.85 31.5 Q51.15 17.45 68.8 8.55 L69.4 8.35 Q65.3 10.35 60.05 14.8 49.6 23.65 44.15 35.85 37.2 51.35 32.9 63.35 L42.15 59.6 30.4 80.85 39.15 77.85 36.6 103.5 Q33.7 130.05 31.65 134.6 29.6 139.15 26.55 143.05 L23.9 146.1 29.6 143.15 Q35.7 139.7 37.9 137.35 40.1 135.0 41.85 131.3 L43.15 128.1 42.4 137.35 47.75 136.0 Q53.7 134.25 56.65 132.35 59.6 130.5 62.55 126.6 L64.9 123.1 66.55 126.8 Q69.0 130.55 72.9 130.85 L98.15 129.6 96.15 127.6 101.55 127.2 110.65 125.85 Q113.8 125.05 118.5 122.1 L122.6 119.25 Q121.2 121.8 117.15 124.75 109.0 130.65 95.6 132.75 82.25 134.85 71.65 134.0 L63.75 132.7 62.8 134.25 Q61.5 136.25 59.45 138.35 52.85 145.15 41.6 150.75 30.35 156.4 14.05 160.9 5.9 163.15 0.0 164.25 4.5 159.45 9.7 152.55 20.1 138.8 23.6 128.25 27.15 117.7 29.1 102.2 L30.35 88.85 16.85 96.75 30.35 70.85 22.5 73.1 Q30.35 57.35 43.85 31.5" fill="#9b5e3a" fill-rule="evenodd" stroke="none"/>
      <path d="M50.15 102.05 Q47.55 106.85 46.75 113.85 45.0 106.65 45.6 100.9 45.7 105.95 46.75 109.55 47.7 106.0 50.15 102.05" fill="#9b5e3a" fill-rule="evenodd" stroke="none"/>
      <path d="M74.95 105.85 L78.25 119.05 70.5 108.1 76.35 114.9 74.95 105.85" fill="#9b5e3a" fill-rule="evenodd" stroke="none"/>
      <path d="M54.65 82.9 L56.5 94.3 50.75 84.55 55.25 90.65 54.65 82.9" fill="#9b5e3a" fill-rule="evenodd" stroke="none"/>
      <path d="M56.35 52.05 Q53.1 56.3 52.0 62.35 50.8 56.15 52.4 50.4 51.65 54.95 52.35 58.45 53.5 55.45 56.35 52.05" fill="#9b5e3a" fill-rule="evenodd" stroke="none"/>
      <path d="M58.4 26.2 Q54.95 31.6 52.5 36.15 53.35 29.8 54.4 24.75 L53.8 32.45 Q55.2 30.25 58.4 26.2" fill="#9b5e3a" fill-rule="evenodd" stroke="none"/>
      <path d="M39.75 123.7 L42.3 119.8 Q39.3 125.9 35.25 131.65 36.85 125.4 37.45 118.65 L37.4 123.05 37.05 127.45 39.75 123.7" fill="#9b5e3a" fill-rule="evenodd" stroke="none"/>
      <path d="M92.95 112.55 L100.45 120.3 Q95.8 118.4 90.6 115.8 L97.45 118.25 95.15 115.4 92.95 112.55" fill="#9b5e3a" fill-rule="evenodd" stroke="none"/>
      <path d="M47.0 44.05 Q44.5 47.75 42.5 52.1 42.8 47.2 43.8 42.8 L43.5 46.0 43.4 49.1 Q44.0 48.05 45.15 46.5 L47.0 44.05" fill="#9b5e3a" fill-rule="evenodd" stroke="none"/>
      <path d="M45.0 67.05 Q42.1 71.2 41.0 75.35 40.5 71.0 41.75 65.8 41.3 69.9 41.5 72.2 42.45 70.35 45.0 67.05" fill="#9b5e3a" fill-rule="evenodd" stroke="none"/>
      <path d="M63.6 62.7 Q64.15 66.25 63.7 69.6 63.05 66.8 61.3 63.6 L62.5 65.4 63.5 67.35 63.65 65.05 63.6 62.7" fill="#9b5e3a" fill-rule="evenodd" stroke="none"/>
      <path d="M59.25 33.4 Q58.8 37.3 60.0 45.2 60.6 49.15 61.3 52.35 L58.1 45.95 53.6 51.4 Q54.0 49.9 55.5 46.7 57.0 43.55 59.25 33.4" fill="#c58b64" fill-rule="evenodd" stroke="none"/>
      <path d="M60.15 81.6 L72.75 97.7 69.55 95.65 73.5 106.35 69.35 98.85 63.85 88.65 60.15 81.6" fill="#c58b64" fill-rule="evenodd" stroke="none"/>
    </g>
  </defs>
</svg>
