<?xml version="1.0" encoding="UTF-8" standalone="no"?>
<svg xmlns:xlink="http://www.w3.org/1999/xlink" height="336.65px" width="26.9px" xmlns="http://www.w3.org/2000/svg">
  <g transform="matrix(1.0, 0.0, 0.0, 1.0, 0.0, 0.0)">
    <use height="336.65" transform="matrix(1.0, 0.0, 0.0, 1.0, 0.0, 0.0)" width="26.9" xlink:href="#shape0"/>
  </g>
  <defs>
    <g id="shape0" transform="matrix(1.0, 0.0, 0.0, 1.0, 0.0, 0.0)">
      <path d="M7.4 3.7 L7.4 0.0 7.7 0.0 Q9.95 1.25 12.35 1.25 L18.0 1.35 18.25 1.65 18.5 3.2 Q18.85 5.45 18.7 9.4 L18.5 15.55 18.5 41.55 Q18.5 73.6 17.75 137.65 17.0 201.65 17.0 233.65 L17.0 295.05 17.45 313.05 Q17.65 322.25 17.4 328.7 L17.3 331.0 Q17.15 333.55 16.1 334.4 L15.85 334.6 15.2 334.85 13.4 335.05 13.45 328.05 Q13.55 278.55 14.5 189.5 15.55 90.75 15.7 43.9 L15.7 43.3 15.7 31.25 15.7 22.3 Q15.7 19.35 14.5 17.35 13.65 12.2 12.0 7.7 11.25 5.6 9.95 4.55 8.8 3.6 7.4 3.7" fill="#2e2b28" fill-rule="evenodd" stroke="none"/>
      <path d="M7.4 3.7 Q8.8 3.6 9.95 4.55 11.25 5.6 12.0 7.7 13.65 12.2 14.5 17.35 15.7 19.35 15.7 22.3 L15.7 31.25 15.7 43.3 15.7 43.9 Q15.55 90.75 14.5 189.5 13.55 278.55 13.45 328.05 L13.4 335.05 12.4 335.05 Q13.0 331.95 13.2 328.0 13.4 323.95 13.2 319.05 L12.3 303.1 Q11.5 281.3 12.1 254.4 12.5 237.05 13.9 205.75 14.75 186.65 14.3 157.75 L13.65 109.7 13.95 63.65 Q14.0 50.45 13.4 42.6 12.5 31.55 9.95 22.2 9.2 19.3 7.4 17.9 L7.35 17.9 7.4 3.7" fill="#47423d" fill-rule="evenodd" stroke="none"/>
      <path d="M15.2 334.85 L15.85 334.6 15.6 334.7 15.2 334.85 M3.2 330.95 Q2.7 327.6 3.05 322.1 L3.6 312.3 Q3.6 296.45 3.9 285.9 4.9 252.55 5.05 215.25 5.1 201.85 6.65 166.65 8.0 135.95 7.6 118.0 7.05 94.05 7.15 59.0 L7.4 17.9 Q9.2 19.3 9.95 22.2 12.5 31.55 13.4 42.6 14.0 50.45 13.95 63.65 L13.65 109.7 14.3 157.75 Q14.75 186.65 13.9 205.75 12.5 237.05 12.1 254.4 11.5 281.3 12.3 303.1 L13.2 319.05 Q13.4 323.95 13.2 328.0 13.0 331.95 12.4 335.05 L11.85 335.05 6.8 335.1 Q4.1 334.65 3.4 332.25 L3.3 331.8 3.2 330.95 M9.15 87.1 L9.75 130.45 8.45 166.6 Q7.1 198.0 7.1 205.5 L6.5 254.25 Q5.95 292.65 6.2 293.35 6.55 294.3 8.8 242.3 11.05 189.8 11.05 178.05 11.05 32.25 9.3 45.65 8.65 50.4 9.15 87.1 M5.7 331.1 L6.1 313.75 6.2 296.4 5.35 315.9 3.75 324.75 Q2.95 331.7 5.7 331.1" fill="#605952" fill-rule="evenodd" stroke="none"/>
      <path d="M5.7 331.1 Q2.95 331.7 3.75 324.75 L5.35 315.9 6.2 296.4 6.1 313.75 5.7 331.1 M9.15 87.1 Q8.65 50.4 9.3 45.65 11.05 32.25 11.05 178.05 11.05 189.8 8.8 242.3 6.55 294.3 6.2 293.35 5.95 292.65 6.5 254.25 L7.1 205.5 Q7.1 198.0 8.45 166.6 L9.75 130.45 9.15 87.1" fill="#8e837b" fill-rule="evenodd" stroke="none"/>
      <path d="M13.4 335.05 L15.2 334.85 15.6 334.7 15.85 334.6 16.1 334.4 Q17.15 333.55 17.3 331.0 L17.4 328.7 Q18.75 329.1 19.5 329.75 20.8 330.9 20.1 332.65 19.7 333.8 18.1 334.65 L15.4 335.8 10.85 336.65 10.5 336.65 7.55 336.5 Q1.8 335.9 2.75 332.65 L3.4 332.25 Q4.1 334.65 6.8 335.1 L11.85 335.05 12.4 335.05 13.4 335.05" fill="#453c34" fill-rule="evenodd" stroke="none"/>
      <path d="M19.5 329.75 L19.65 329.75 Q24.4 329.8 26.9 330.9 26.25 332.75 25.05 333.3 L22.1 334.1 17.85 335.65 13.3 336.6 10.85 336.65 15.4 335.8 18.1 334.65 Q19.7 333.8 20.1 332.65 20.8 330.9 19.5 329.75 M7.55 336.5 L4.85 336.15 Q-0.7 335.05 0.1 331.3 L3.2 330.95 3.3 331.8 3.4 332.25 2.75 332.65 Q1.8 335.9 7.55 336.5" fill="#5e5246" fill-rule="evenodd" stroke="none"/>
    </g>
  </defs>
</svg>
