<?xml version="1.0" encoding="UTF-8" standalone="no"?>
<svg xmlns:xlink="http://www.w3.org/1999/xlink" height="300.0px" width="150.0px" xmlns="http://www.w3.org/2000/svg">
  <g transform="matrix(1.0, 0.0, 0.0, 1.0, 0.0, 0.0)">
    <use height="320.05" transform="matrix(1.0, 0.0, 0.0, 1.0, -9.65, -10.0)" width="172.0" xlink:href="#sprite0"/>
  </g>
  <defs>
    <g id="sprite0" transform="matrix(1.0, 0.0, 0.0, 1.0, 9.65, 10.0)">
      <clipPath id="clipPath0" transform="matrix(1.0, 0.0, 0.0, 1.0, 9.65, 10.0)">
        <use height="300.0" transform="matrix(1.0, 0.0, 0.0, 1.0, 0.0, 0.0)" width="150.0" xlink:href="#shape0"/>
      </clipPath>
      <g clip-path="url(#clipPath0)">
        <use height="320.05" transform="matrix(1.0, 0.0, 0.0, 1.0, -8.5, -10.0)" width="167.0" xlink:href="#shape1"/>
        <use height="289.8" transform="matrix(1.0, 0.0, 0.0, 1.0, -9.65, 19.2)" width="172.0" xlink:href="#sprite1"/>
        <use height="249.35" transform="matrix(1.0, 0.0, 0.0, 1.0, -5.15, 0.4)" width="160.45" xlink:href="#shape3"/>
      </g>
    </g>
    <g id="shape0" transform="matrix(1.0, 0.0, 0.0, 1.0, 0.0, 0.0)">
      <path d="M150.0 0.0 L150.0 300.0 0.0 300.0 0.0 0.0 150.0 0.0" fill="#c8ecf7" fill-rule="evenodd" stroke="none"/>
    </g>
    <g id="shape1" transform="matrix(1.0, 0.0, 0.0, 1.0, 8.5, 10.0)">
      <path d="M156.8 175.4 Q157.05 242.3 158.5 310.05 L-8.5 310.05 -8.5 -10.0 158.5 -10.0 Q156.7 70.9 156.75 153.0 L156.8 175.4" fill="url(#gradient0)" fill-rule="evenodd" stroke="none"/>
    </g>
    <linearGradient gradientTransform="matrix(0.0, -0.1196, 1.0, -4.0E-4, -153.2, 169.05)" gradientUnits="userSpaceOnUse" id="gradient0" spreadMethod="pad" x1="-819.2" x2="819.2">
      <stop offset="0.0" stop-color="#932201"/>
      <stop offset="1.0" stop-color="#f4511a"/>
    </linearGradient>
    <g id="sprite1" transform="matrix(1.0, 0.0, 0.0, 1.0, 0.0, 0.0)">
      <use height="289.8" transform="matrix(1.0, 0.0, 0.0, 1.0, 0.0, 0.0)" width="172.0" xlink:href="#shape2"/>
    </g>
    <g id="shape2" transform="matrix(1.0, 0.0, 0.0, 1.0, 0.0, 0.0)">
      <path d="M41.75 39.8 Q39.35 24.8 36.95 20.75 34.65 16.85 34.65 13.55 34.65 11.75 35.75 8.2 36.9 4.6 37.95 3.3 38.1 3.1 41.65 0.45 L42.2 0.0 41.5 2.35 Q40.1 6.75 40.1 11.55 39.8 18.8 41.75 21.3 L41.75 39.8" fill="url(#gradient1)" fill-rule="evenodd" stroke="none"/>
      <path d="M41.8 190.15 Q42.65 193.75 42.65 195.05 42.65 198.15 42.3 199.8 L41.9 202.4 Q41.9 204.65 44.4 207.9 L49.9 214.2 Q56.7 221.85 57.75 228.3 71.5 220.1 72.95 160.8 77.5 175.95 80.7 198.05 L80.75 198.45 80.9 199.6 81.4 202.9 81.45 203.45 81.5 203.6 81.65 204.9 83.7 221.7 Q88.0 218.75 90.3 216.4 100.9 203.4 101.5 175.0 101.9 155.9 101.45 148.35 L105.75 168.3 110.2 190.4 Q110.7 193.55 112.1 200.35 113.45 207.15 111.85 216.75 110.2 226.3 109.25 227.4 L108.15 228.8 Q112.55 225.65 114.7 222.4 L115.85 220.15 Q117.2 216.6 117.55 208.6 L123.2 218.75 Q124.35 221.45 124.85 224.15 125.25 226.4 125.2 228.7 L129.3 226.45 Q136.9 222.3 136.9 215.65 136.9 212.25 136.05 209.65 135.15 207.05 135.15 206.3 139.9 209.9 144.45 219.1 148.95 228.3 149.05 233.25 150.8 226.65 151.05 216.65 158.05 222.05 165.75 232.85 169.75 238.35 171.85 242.2 L172.0 283.8 170.45 283.8 166.2 276.85 165.65 275.95 43.15 283.4 22.55 274.75 22.55 283.8 21.0 283.8 16.75 276.85 16.2 275.95 5.0 276.65 5.0 267.35 0.15 265.3 0.0 265.45 0.0 237.3 2.95 233.8 5.0 231.3 5.0 230.2 Q6.95 220.65 7.95 217.8 8.75 219.55 11.15 223.35 L13.0 220.8 Q17.0 215.35 17.55 210.8 17.35 214.65 19.65 221.8 L20.15 221.75 Q22.75 221.3 24.1 217.4 26.9 209.45 27.4 208.55 29.15 205.4 31.75 202.2 L35.9 197.3 Q40.2 191.75 40.9 184.05 40.9 186.5 41.8 190.15" fill="url(#gradient2)" fill-rule="evenodd" stroke="none"/>
      <path d="M133.2 222.05 Q133.3 223.2 133.8 224.55 L134.1 225.8 134.15 226.1 134.4 229.3 133.5 240.9 Q131.55 253.8 126.4 262.05 L134.3 256.2 Q136.5 254.3 139.1 248.45 141.65 242.5 142.8 232.6 148.4 238.15 149.7 241.25 L154.25 252.55 155.15 255.75 Q156.9 261.95 158.15 262.75 L160.2 264.1 169.05 265.7 165.7 284.3 160.2 283.8 116.35 283.8 116.3 283.7 103.2 283.6 103.15 283.8 91.9 283.8 91.85 283.5 18.85 282.9 15.0 283.8 5.95 283.8 5.6 279.05 8.15 276.3 9.1 261.6 33.1 224.4 45.7 250.8 47.45 248.15 46.5 246.15 Q45.85 244.7 45.85 242.8 L45.9 236.3 Q45.9 223.7 50.6 214.15 56.1 204.75 60.6 195.5 L60.4 201.8 Q60.4 206.1 60.9 209.85 61.55 214.85 63.15 218.8 65.4 224.4 70.25 229.25 L75.45 233.8 79.85 237.7 Q85.5 242.65 89.35 247.7 L89.2 247.2 89.15 244.8 Q89.15 242.55 92.5 237.5 97.25 230.4 99.65 225.05 L99.4 226.1 Q99.15 227.0 99.15 228.3 99.15 230.9 100.6 234.05 102.3 237.9 102.9 241.3 L103.4 246.25 103.4 249.55 Q103.7 249.2 108.35 248.15 113.2 247.05 117.4 243.3 L118.2 242.75 120.15 241.25 Q124.35 237.9 126.75 235.4 132.4 229.55 133.2 222.05 M89.35 247.7 Q89.55 248.35 90.15 249.05 L90.15 248.8 89.35 247.7" fill="#ff5815" fill-rule="evenodd" stroke="none"/>
      <path d="M141.5 289.8 Q136.5 282.8 136.4 252.8 145.8 281.75 163.95 289.8 L141.5 289.8 M93.5 265.8 L97.75 289.8 84.0 289.8 93.5 265.8 M76.75 284.9 L77.2 289.8 6.95 289.8 Q30.45 277.2 42.1 252.8 37.0 268.35 46.3 279.15 52.2 276.65 52.2 263.5 53.9 275.45 58.95 279.1 68.1 271.25 73.15 259.4 71.45 273.65 76.75 284.9" fill="#ff7914" fill-rule="evenodd" stroke="none"/>
    </g>
    <linearGradient gradientTransform="matrix(0.0015, 0.0516, 0.0615, -0.0015, 93.7, 256.45)" gradientUnits="userSpaceOnUse" id="gradient1" spreadMethod="pad" x1="-819.2" x2="819.2">
      <stop offset="0.15294117647058825" stop-color="#e93d00" stop-opacity="0.75686276"/>
      <stop offset="1.0" stop-color="#992d07"/>
    </linearGradient>
    <linearGradient gradientTransform="matrix(-0.0015, 0.0516, -0.0615, -0.0015, 83.9, 260.45)" gradientUnits="userSpaceOnUse" id="gradient2" spreadMethod="pad" x1="-819.2" x2="819.2">
      <stop offset="0.15294117647058825" stop-color="#e93d00"/>
      <stop offset="1.0" stop-color="#992d07"/>
    </linearGradient>
    <g id="shape3" transform="matrix(1.0, 0.0, 0.0, 1.0, 5.15, -0.4)">
      <path d="M62.85 103.7 L62.9 102.05 63.4 102.05 62.85 103.7" fill="#fb7725" fill-rule="evenodd" stroke="none"/>
      <path d="M90.45 19.35 L88.7 16.1 Q89.35 16.6 91.4 17.15 91.5 17.05 91.55 17.05 L91.75 16.9 94.35 14.25 94.15 18.35 97.15 17.9 97.3 17.9 94.8 19.7 95.7 22.75 93.45 20.85 93.2 21.4 92.0 24.8 92.05 21.5 91.25 21.2 88.85 21.05 90.45 19.35 M152.6 60.25 Q152.65 60.8 154.7 64.15 L150.9 62.1 Q149.25 64.7 148.85 66.5 L148.3 61.15 144.85 62.0 Q145.7 60.85 147.55 59.25 L147.6 59.25 Q145.6 57.3 144.95 56.05 L149.0 58.35 151.75 53.8 151.55 58.45 155.1 58.2 155.3 58.2 Q154.25 58.7 153.7 58.95 152.75 59.4 152.6 60.25 M1.55 58.6 L5.1 58.35 5.3 58.35 Q4.25 58.85 3.7 59.1 2.75 59.55 2.6 60.4 2.65 60.95 4.7 64.3 L0.9 62.25 Q-0.75 64.85 -1.15 66.65 L-1.7 61.3 -5.15 62.15 Q-4.3 61.0 -2.45 59.4 L-2.4 59.4 Q-4.4 57.45 -5.05 56.2 L-1.0 58.5 1.75 53.95 1.55 58.6 M17.15 98.45 L19.4 98.3 19.55 98.3 18.5 98.75 Q17.9 99.05 17.8 99.6 L19.15 102.1 16.75 100.8 Q15.65 102.45 15.4 103.6 L15.05 100.2 12.85 100.75 14.6 98.95 12.9 96.9 15.5 98.4 17.25 95.45 17.15 98.45 M65.7 119.25 L65.55 122.5 68.0 122.3 68.15 122.3 67.05 122.8 Q66.4 123.15 66.3 123.7 66.35 124.1 67.75 126.4 L65.1 125.0 Q64.0 126.8 63.7 128.0 L63.35 124.35 60.95 124.9 62.8 123.05 62.85 123.05 Q61.45 121.7 61.05 120.8 L63.8 122.4 65.7 119.25 M72.35 146.2 Q73.2 145.05 75.05 143.45 L75.1 143.45 Q73.1 141.5 72.45 140.25 L76.5 142.55 79.25 138.0 79.05 142.65 82.6 142.4 82.8 142.4 81.2 143.15 Q80.25 143.6 80.1 144.45 80.15 145.0 82.2 148.35 L78.4 146.3 Q76.75 148.9 76.35 150.7 L75.8 145.35 72.35 146.2 M22.3 163.55 L26.35 161.25 Q25.7 162.5 23.7 164.45 L23.75 164.45 Q25.6 166.05 26.45 167.2 L23.0 166.35 22.45 171.7 Q22.05 169.9 20.4 167.3 L16.6 169.35 Q18.65 166.0 18.7 165.45 18.55 164.6 17.6 164.15 L16.0 163.4 16.2 163.4 19.75 163.65 19.55 159.0 22.3 163.55 M22.85 187.6 L23.55 190.2 26.45 189.7 23.6 191.35 25.4 194.65 22.65 192.9 21.55 195.1 21.5 195.25 21.6 194.0 Q21.65 193.3 21.2 192.9 L18.1 192.8 20.7 191.2 18.7 188.4 22.15 190.0 Q22.5 188.25 22.85 187.6 M122.35 146.2 Q123.2 145.05 125.05 143.45 L125.1 143.45 Q123.1 141.5 122.45 140.25 L126.5 142.55 129.25 138.0 129.05 142.65 140.15 140.9 132.8 142.4 Q131.75 142.9 131.2 143.15 130.25 143.6 130.1 144.45 130.15 145.0 132.2 148.35 L128.4 146.3 Q126.75 148.9 126.35 150.7 L125.8 145.35 122.35 146.2 M121.0 224.1 L121.05 224.1 Q122.9 225.7 123.75 226.85 122.7 226.8 120.3 226.0 L119.75 231.35 Q119.35 229.55 117.7 226.95 L113.9 229.0 Q115.95 225.65 116.0 225.1 115.85 224.25 114.9 223.8 L113.3 223.05 113.5 223.05 117.05 223.3 116.85 218.65 119.6 223.2 123.65 220.9 Q123.0 222.15 121.0 224.1" fill="#be2f00" fill-rule="evenodd" stroke="none"/>
      <path d="M144.85 213.35 L143.85 213.85 Q143.2 214.15 143.1 214.7 L144.45 217.2 142.05 215.85 Q141.0 217.55 140.7 218.7 L140.35 215.25 138.15 215.8 Q138.7 215.05 139.9 214.05 L138.2 212.0 140.8 213.45 142.6 210.55 142.45 213.55 144.75 213.35 144.85 213.35" fill="#ae2b00" fill-rule="evenodd" stroke="none"/>
      <path d="M132.5 190.55 L132.65 190.5 134.2 188.9 134.1 191.35 135.9 191.1 136.0 191.1 134.5 192.15 135.0 194.0 133.65 192.85 133.5 193.2 132.8 195.25 132.8 193.25 132.35 193.1 130.9 193.0 131.85 191.95 130.8 190.0 Q131.2 190.3 132.4 190.65 L132.5 190.55" fill="url(#gradient3)" fill-rule="evenodd" stroke="none"/>
      <path d="M85.55 245.7 L85.65 245.65 87.0 244.25 86.9 246.4 88.45 246.15 88.5 246.15 87.25 247.1 87.7 248.65 86.55 247.7 86.4 247.95 85.95 249.25 85.8 249.75 85.8 248.0 85.4 247.85 84.15 247.8 85.0 246.9 84.05 245.2 85.45 245.75 85.55 245.7" fill="url(#gradient4)" fill-rule="evenodd" stroke="none"/>
      <path d="M126.65 14.65 L127.2 14.85 127.2 11.85 128.95 14.55 131.95 13.85 131.85 13.95 Q130.15 15.1 129.55 15.95 L132.8 18.45 129.1 18.7 128.8 18.75 128.65 18.8 Q127.7 20.75 127.7 21.5 126.7 19.25 126.4 18.1 L124.05 18.2 125.5 16.3 125.8 15.5 123.25 13.35 Q125.2 14.2 126.65 14.65 M113.0 60.35 L114.25 57.1 113.9 61.8 116.8 62.6 114.45 63.25 113.55 66.65 112.5 63.7 108.35 65.8 111.95 62.5 110.8 61.05 112.1 61.95 112.35 59.0 113.0 60.35 M82.1 96.3 L86.25 98.4 87.3 95.45 88.2 98.85 90.55 99.5 87.65 100.3 88.0 105.0 86.75 101.75 86.1 103.1 85.85 100.15 84.55 101.05 85.7 99.6 82.1 96.3 M116.95 85.35 L118.55 83.65 116.8 80.4 Q117.45 80.9 119.5 81.45 L119.65 81.35 119.85 81.2 122.45 78.55 122.25 82.65 125.25 82.2 125.4 82.2 Q124.4 82.75 122.9 84.0 L123.8 87.05 121.55 85.15 121.3 85.7 120.1 89.1 120.15 85.8 119.35 85.5 116.95 85.35 M56.35 16.4 L57.25 19.45 55.0 17.55 54.75 18.1 53.55 21.5 53.6 18.2 52.8 17.9 50.4 17.75 52.0 16.05 50.25 12.8 Q50.9 13.3 52.95 13.85 53.05 13.75 53.1 13.75 L53.3 13.6 Q55.45 11.8 55.9 10.95 L55.7 15.05 58.7 14.6 58.85 14.6 56.35 16.4 M26.45 4.05 L23.95 5.85 24.85 8.9 22.6 7.0 22.35 7.55 21.15 10.95 21.2 7.65 20.4 7.35 18.0 7.2 19.6 5.5 17.85 2.25 Q18.5 2.75 20.55 3.3 20.65 3.2 20.7 3.2 L20.9 3.05 Q23.05 1.25 23.5 0.4 L23.3 4.5 26.3 4.05 26.45 4.05 M30.7 36.25 L30.9 36.1 33.5 33.45 33.3 37.55 36.3 37.1 36.45 37.1 33.95 38.9 34.85 41.95 32.6 40.05 32.35 40.6 31.15 44.0 31.2 40.7 30.4 40.4 28.0 40.25 29.6 38.55 27.85 35.3 Q28.5 35.8 30.55 36.35 L30.7 36.25 M80.8 51.85 L80.95 51.85 Q79.95 52.4 78.45 53.65 L79.35 56.7 77.1 54.8 76.85 55.35 76.2 57.1 75.7 57.1 75.7 55.45 74.9 55.15 72.5 55.0 74.1 53.3 72.35 50.05 Q73.0 50.55 75.05 51.1 75.15 51.0 75.2 51.0 L75.4 50.85 78.0 48.2 77.8 52.3 80.8 51.85 M45.55 84.4 L45.8 81.45 46.45 82.8 47.7 79.55 47.35 84.25 50.25 85.05 47.9 85.7 47.0 89.1 45.95 86.15 41.8 88.25 45.4 84.95 44.25 83.5 45.55 84.4 M39.25 126.2 Q37.95 126.95 36.0 128.55 L35.95 128.6 38.65 132.7 Q35.1 130.9 34.25 130.05 L33.95 130.8 Q33.1 132.6 32.3 135.2 L31.7 129.4 27.85 130.35 30.45 128.8 30.7 128.6 28.0 123.85 32.4 126.8 35.4 121.4 34.9 126.45 39.1 126.2 39.25 126.2 M37.8 191.65 L38.85 188.7 39.75 192.1 42.1 192.75 39.2 193.55 39.55 198.25 38.3 195.0 37.65 196.35 37.4 193.4 36.1 194.3 37.25 192.85 33.65 189.55 37.8 191.65 M68.15 188.35 L65.65 190.15 66.55 193.2 64.3 191.3 64.05 191.85 62.85 195.25 62.9 191.95 62.1 191.65 59.7 191.5 61.3 189.8 59.55 186.55 Q60.2 187.05 62.25 187.6 62.35 187.5 62.4 187.5 L62.6 187.35 65.2 184.7 65.0 188.8 68.0 188.35 68.15 188.35 M118.8 128.3 L116.3 130.1 117.2 133.15 114.95 131.25 114.7 131.8 113.5 135.2 113.55 131.9 112.75 131.6 110.35 131.45 111.95 129.75 110.2 126.5 Q110.85 127.0 112.9 127.55 L113.05 127.45 113.25 127.3 115.85 124.65 115.65 128.75 118.65 128.3 118.8 128.3 M93.4 157.55 L93.6 157.4 96.2 154.75 96.0 158.85 99.0 158.4 99.15 158.4 Q98.15 158.95 96.65 160.2 L97.55 163.25 95.3 161.35 95.05 161.9 93.85 165.3 93.9 162.0 93.1 161.7 90.7 161.55 92.3 159.85 90.55 156.6 Q91.2 157.1 93.25 157.65 L93.4 157.55 M138.9 240.1 L139.8 243.15 137.55 241.25 137.3 241.8 136.1 245.2 136.15 241.9 135.35 241.6 132.95 241.45 134.55 239.75 132.8 236.5 Q133.45 237.0 135.5 237.55 135.6 237.45 135.65 237.45 L135.85 237.3 138.45 234.65 138.25 238.75 141.25 238.3 141.4 238.3 138.9 240.1 M86.4 215.15 L86.4 212.15 88.15 214.85 91.15 214.15 91.05 214.25 Q89.35 215.4 88.75 216.25 L92.0 218.75 88.3 219.0 88.0 219.05 87.85 219.1 Q86.9 221.05 86.9 221.8 85.9 219.55 85.6 218.4 L83.25 218.5 84.7 216.6 85.0 215.8 82.45 213.65 Q84.4 214.5 85.85 214.95 L86.4 215.15 M53.2 225.15 L54.05 224.55 53.3 225.5 55.6 227.55 52.95 226.25 52.3 228.1 51.7 225.95 50.25 225.55 52.05 225.05 51.85 222.05 52.65 224.1 53.05 223.25 53.2 225.15 M12.75 227.8 L16.45 228.05 13.2 230.55 Q13.8 231.4 15.5 232.55 L15.6 232.65 12.6 231.95 10.85 234.65 10.85 231.65 10.3 231.85 6.9 233.15 9.45 231.0 9.15 230.2 7.7 228.3 10.05 228.4 Q10.35 227.25 11.35 225.0 11.35 225.75 12.3 227.7 L12.45 227.75 12.75 227.8" fill="url(#gradient5)" fill-rule="evenodd" stroke="none"/>
    </g>
    <linearGradient gradientTransform="matrix(0.0032, 0.0, 0.0, 0.0039, 133.4, 192.05)" gradientUnits="userSpaceOnUse" id="gradient3" spreadMethod="pad" x1="-819.2" x2="819.2">
      <stop offset="0.0" stop-color="#fb7725" stop-opacity="0.5686275"/>
      <stop offset="0.984313725490196" stop-color="#fb7725" stop-opacity="0.16078432"/>
    </linearGradient>
    <linearGradient gradientTransform="matrix(0.0027, 0.0, 0.0, 0.0034, 86.25, 247.0)" gradientUnits="userSpaceOnUse" id="gradient4" spreadMethod="pad" x1="-819.2" x2="819.2">
      <stop offset="0.0" stop-color="#fb7725" stop-opacity="0.5686275"/>
      <stop offset="0.984313725490196" stop-color="#fb7725" stop-opacity="0.16078432"/>
    </linearGradient>
    <linearGradient gradientTransform="matrix(0.0, 0.1388, -0.0084, 0.0, 31.6, 134.5)" gradientUnits="userSpaceOnUse" id="gradient5" spreadMethod="pad" x1="-819.2" x2="819.2">
      <stop offset="0.0" stop-color="#fb7725" stop-opacity="0.5686275"/>
      <stop offset="0.984313725490196" stop-color="#fb7725" stop-opacity="0.16078432"/>
    </linearGradient>
  </defs>
</svg>
