<?xml version="1.0" encoding="UTF-8" standalone="no"?>
<svg xmlns:xlink="http://www.w3.org/1999/xlink" height="37.0px" width="37.0px" xmlns="http://www.w3.org/2000/svg">
  <g transform="matrix(1.0, 0.0, 0.0, 1.0, 0.0, 0.0)">
    <use height="37.0" transform="matrix(1.0, 0.0, 0.0, 1.0, 0.0, 0.0)" width="37.0" xlink:href="#shape0"/>
  </g>
  <defs>
    <g id="shape0" transform="matrix(1.0, 0.0, 0.0, 1.0, 0.0, 0.0)">
      <path d="M37.0 10.2 L36.95 27.85 Q36.85 32.8 33.5 35.05 30.5 37.1 24.65 37.0 L9.5 31.15 Q7.05 30.4 6.2 28.9 5.25 27.25 5.25 23.2 L1.0 5.9 Q0.5 2.65 4.0 1.3 6.6 0.25 11.9 0.1 L29.75 1.15 Q33.95 1.75 35.65 4.25 37.05 6.3 37.0 10.2" fill="url(#gradient0)" fill-rule="evenodd" stroke="none"/>
      <path d="M29.75 1.15 L32.55 1.85 Q33.35 2.2 33.45 2.65 33.6 3.05 32.75 3.25 L29.45 3.65 26.6 2.95 Q24.9 2.3 14.3 1.8 L8.2 1.5 3.7 1.4 Q5.2 0.65 7.6 0.4 L11.9 0.1 29.75 1.15" fill="url(#gradient1)" fill-rule="evenodd" stroke="none"/>
      <path d="M31.75 11.7 L31.7 29.35 Q31.6 34.25 29.5 35.9 27.75 37.3 23.55 36.85 L4.25 32.65 Q1.8 31.9 0.95 30.4 0.0 28.75 0.0 24.7 L0.05 8.9 Q0.05 0.7 6.05 1.35 L23.65 2.35 Q27.75 2.75 29.9 5.5 31.8 7.95 31.75 11.7" fill="#b07219" fill-rule="evenodd" stroke="none"/>
      <path d="M21.65 15.85 Q21.65 11.55 21.95 8.5 L22.3 2.25 22.9 2.3 22.8 6.7 22.55 15.5 22.55 20.35 22.55 24.5 22.95 27.4 23.45 31.05 23.95 36.9 23.3 36.85 Q22.8 31.9 22.8 30.3 22.8 28.35 22.1 26.8 21.4 25.3 21.4 24.3 L21.55 22.7 21.65 15.85" fill="#9b6212" fill-rule="evenodd" stroke="none"/>
      <path d="M15.25 10.65 Q14.4 6.7 14.15 1.8 L14.8 1.85 14.9 3.5 Q15.1 6.85 15.8 9.7 L16.1 1.9 16.85 1.95 16.85 2.0 Q16.55 10.0 16.25 12.1 L16.05 13.6 15.25 10.65" fill="#9b6212" fill-rule="evenodd" stroke="none"/>
      <path d="M10.85 12.15 L10.75 2.35 10.75 1.6 11.85 1.7 12.5 34.45 11.45 34.25 11.2 23.35 10.85 12.15" fill="#9b6212" fill-rule="evenodd" stroke="none"/>
      <path d="M1.1 7.05 L1.25 3.4 1.85 2.6 Q1.5 9.8 1.5 14.95 L1.25 30.95 0.85 30.3 0.9 26.95 Q0.75 17.8 1.1 7.05" fill="#9b6212" fill-rule="evenodd" stroke="none"/>
      <path d="M6.2 3.85 L6.2 1.4 6.85 1.4 6.85 4.25 Q6.85 12.95 7.4 33.35 L6.65 33.2 6.5 28.6 6.2 3.85" fill="#9b6212" fill-rule="evenodd" stroke="none"/>
      <path d="M26.7 10.05 Q26.15 6.25 26.05 2.85 L26.75 3.1 Q26.9 7.75 27.85 14.35 L28.85 23.65 Q29.3 30.2 29.35 36.0 L28.15 36.6 28.1 28.25 Q28.0 21.95 27.6 18.15 L26.7 10.05" fill="#9b6212" fill-rule="evenodd" stroke="none"/>
      <path d="M2.3 3.85 L2.35 2.2 2.6 2.0 2.75 8.0 2.5 30.7 2.45 31.9 2.0 31.6 2.05 28.05 Q2.05 9.5 2.3 3.85" fill="#9b6212" fill-rule="evenodd" stroke="none"/>
      <path d="M4.55 1.35 L5.2 1.3 5.4 3.7 5.4 14.05 5.4 25.25 5.5 32.95 5.0 32.8 5.0 22.8 4.7 4.25 4.55 1.35" fill="#9b6212" fill-rule="evenodd" stroke="none"/>
      <path d="M30.95 19.0 Q30.6 16.45 30.7 14.55 L30.9 12.1 30.95 7.35 Q31.75 9.25 31.75 11.7 L31.7 24.55 30.95 19.0" fill="#9b6212" fill-rule="evenodd" stroke="none"/>
      <path d="M8.0 10.5 Q7.7 4.65 7.7 1.45 L8.3 1.5 8.8 17.55 Q8.9 22.15 9.65 33.85 L8.95 33.7 8.7 27.5 8.0 10.5" fill="#9b6212" fill-rule="evenodd" stroke="none"/>
      <path d="M3.35 1.65 L3.95 1.45 4.1 32.6 3.45 32.35 3.35 1.65" fill="#9b6212" fill-rule="evenodd" stroke="none"/>
      <path d="M29.75 14.9 Q29.2 10.75 29.2 5.55 L29.2 4.75 30.2 6.0 30.25 11.55 30.55 20.15 30.8 27.5 31.25 32.9 30.55 34.65 30.15 31.45 30.15 24.5 Q30.2 18.85 29.75 14.9" fill="#9b6212" fill-rule="evenodd" stroke="none"/>
      <path d="M12.7 1.75 L13.25 1.75 Q13.1 9.45 13.4 11.75 L14.15 16.55 Q14.6 19.25 14.65 21.5 L14.9 26.5 15.1 30.3 15.05 35.05 14.05 34.8 14.0 31.25 Q14.0 29.6 14.4 28.4 14.6 27.8 14.0 23.2 13.15 17.4 12.9 13.6 L12.7 4.6 12.7 1.75" fill="#9b6212" fill-rule="evenodd" stroke="none"/>
      <path d="M24.5 2.45 L25.1 2.6 25.1 7.05 Q25.1 9.55 25.85 14.4 26.6 19.2 26.6 22.45 L26.4 36.95 25.7 37.0 25.8 26.0 25.7 21.55 25.2 17.35 24.65 9.8 24.5 2.45" fill="#9b6212" fill-rule="evenodd" stroke="none"/>
      <path d="M17.4 7.8 L17.8 2.0 18.35 2.05 Q17.75 12.9 16.85 19.8 16.4 23.2 16.5 25.0 L16.7 28.8 Q16.75 30.45 18.05 35.65 L17.05 35.5 15.9 29.5 Q15.45 26.5 15.5 24.1 15.5 21.4 16.25 17.35 17.1 12.85 17.4 7.8" fill="#9b6212" fill-rule="evenodd" stroke="none"/>
      <path d="M18.35 19.25 L19.25 15.3 Q19.7 13.45 19.7 6.85 L19.75 2.1 20.8 2.2 20.75 11.75 20.75 15.25 20.5 18.1 19.85 21.25 19.45 24.5 19.4 26.8 Q19.4 28.0 19.85 28.25 L21.45 29.55 Q22.55 31.4 22.55 35.95 L22.55 36.7 21.9 36.55 21.5 33.5 Q21.1 30.8 20.6 30.25 L19.7 29.75 18.75 29.5 Q18.35 29.15 18.35 26.35 L18.05 22.95 Q17.95 22.0 18.35 19.25" fill="#9b6212" fill-rule="evenodd" stroke="none"/>
      <path d="M31.75 11.7 L31.7 29.35 Q31.6 34.25 29.5 35.9 27.75 37.3 23.55 36.85 L4.25 32.65 Q1.8 31.9 0.95 30.4 0.0 28.75 0.0 24.7 L0.05 8.9 Q0.05 0.7 6.05 1.35 L23.65 2.35 Q27.75 2.75 29.9 5.5 31.8 7.95 31.75 11.7" fill="url(#gradient2)" fill-rule="evenodd" stroke="none"/>
      <path d="M31.7 29.35 Q31.6 34.25 29.5 35.9 27.75 37.3 23.55 36.85 L11.15 34.15 21.85 36.1 Q29.4 37.35 30.75 31.4 31.35 28.75 31.35 21.95 31.35 14.5 31.75 11.7 L31.7 29.35" fill="#ac711c" fill-rule="evenodd" stroke="none"/>
      <path d="M12.25 1.7 L11.2 1.65 Q5.5 1.5 3.4 2.75 0.95 4.15 0.45 8.0 0.2 9.8 0.05 13.15 L0.05 8.9 Q0.05 0.7 6.05 1.35 L12.25 1.7" fill="#d48f2a" fill-rule="evenodd" stroke="none"/>
      <path d="M10.05 0.3 Q6.7 0.55 4.8 1.4 L2.9 2.2 2.3 2.95 1.35 3.25 2.15 2.3 Q3.3 1.2 5.0 0.6 6.8 -0.05 10.1 0.0 L13.05 0.2 10.05 0.3" fill="#d48f2a" fill-rule="evenodd" stroke="none"/>
      <path d="M29.6 11.75 L29.6 24.1 Q29.5 27.35 27.65 28.45 26.15 29.35 22.45 29.1 L5.6 26.6 Q3.45 26.1 2.7 25.1 1.85 24.0 1.85 21.35 L1.95 9.9 Q1.95 4.45 7.2 4.9 L22.55 5.55 Q26.15 5.85 28.0 7.65 29.65 9.25 29.6 11.75" fill="#b5781d" fill-rule="evenodd" stroke="none"/>
      <path d="M29.25 11.5 L29.2 23.65 Q29.15 26.85 27.3 27.95 25.75 28.85 22.1 28.6 L5.4 26.1 Q3.2 25.6 2.45 24.65 1.7 23.55 1.7 20.95 L1.75 9.65 Q1.75 4.3 6.95 4.75 L22.25 5.35 Q25.8 5.65 27.65 7.45 29.3 9.05 29.25 11.5" fill="url(#gradient3)" fill-rule="evenodd" stroke="none"/>
      <path d="M22.25 5.65 Q25.8 5.95 27.65 7.7 29.3 9.3 29.25 11.75 L29.2 23.95 Q29.15 26.2 28.25 27.3 L23.75 27.7 7.05 25.2 Q4.85 24.7 4.1 23.75 3.35 22.65 3.35 20.05 L3.35 8.75 Q3.45 6.5 4.3 5.25 L6.95 5.0 22.25 5.65" fill="#956115" fill-rule="evenodd" stroke="none"/>
      <path d="M22.25 5.35 Q25.8 5.65 27.65 7.45 29.3 9.05 29.25 11.5 L29.2 23.65 Q29.15 25.95 28.25 27.05 L23.75 27.4 7.05 24.9 Q4.85 24.45 4.1 23.5 3.35 22.4 3.35 19.75 L3.35 8.45 Q3.45 6.2 4.3 5.0 L6.95 4.75 22.25 5.35" fill="#b07219" fill-rule="evenodd" stroke="none"/>
      <path d="M22.25 5.35 Q25.8 5.65 27.65 7.45 29.3 9.05 29.25 11.5 L29.2 23.65 Q29.15 25.95 28.25 27.05 L23.75 27.4 7.05 24.9 Q4.85 24.45 4.1 23.5 3.35 22.4 3.35 19.75 L3.35 8.45 Q3.45 6.2 4.3 5.0 L6.95 4.75 22.25 5.35" fill="#fcf5e4" fill-rule="evenodd" stroke="none"/>
      <path d="M22.25 5.35 Q25.8 5.65 27.65 7.45 29.3 9.05 29.25 11.5 L29.2 23.65 Q29.15 25.95 28.25 27.05 L23.75 27.4 7.05 24.9 Q4.85 24.45 4.1 23.5 3.35 22.4 3.35 19.75 L3.35 8.45 Q3.45 6.2 4.3 5.0 L6.95 4.75 22.25 5.35" fill="url(#gradient4)" fill-rule="evenodd" stroke="none"/>
      <path d="M7.05 24.9 Q4.85 24.45 4.1 23.5 3.35 22.45 3.35 19.8 L29.25 19.8 29.2 23.65 Q29.15 25.95 28.25 27.05 L23.75 27.4 7.05 24.9" fill="url(#gradient5)" fill-rule="evenodd" stroke="none"/>
      <path d="M6.75 29.45 Q6.95 30.65 6.5 31.6 6.05 32.5 5.15 32.65 4.3 32.75 3.65 32.0 2.9 31.25 2.75 30.05 2.6 28.9 3.05 27.95 3.5 27.0 4.3 26.9 5.15 26.75 5.9 27.5 6.6 28.25 6.75 29.45" fill="#503411" fill-rule="evenodd" stroke="none"/>
      <path d="M6.2 29.55 Q6.2 30.65 5.65 31.45 5.05 32.2 4.25 32.2 3.35 32.2 2.55 31.4 1.65 30.55 1.65 29.5 1.65 28.45 2.55 27.65 3.35 26.9 4.25 26.9 5.05 26.9 5.65 27.7 6.2 28.45 6.2 29.55" fill="url(#gradient6)" fill-rule="evenodd" stroke="none"/>
      <path d="M5.0 29.55 Q5.0 30.45 4.55 31.1 4.1 31.7 3.5 31.7 2.85 31.7 2.4 31.1 1.95 30.45 1.95 29.55 1.95 28.7 2.4 28.05 2.85 27.45 3.5 27.45 4.1 27.45 4.55 28.05 5.0 28.7 5.0 29.55" fill="#faf3b1" fill-rule="evenodd" stroke="none"/>
      <path d="M4.75 29.5 L4.3 31.0 Q3.8 31.65 3.2 31.65 2.55 31.65 2.1 31.0 1.65 30.4 1.65 29.5 1.65 28.65 2.1 28.0 2.55 27.4 3.2 27.4 L4.3 28.0 4.75 29.5" fill="url(#gradient7)" fill-rule="evenodd" stroke="none"/>
      <path d="M27.15 32.55 Q27.35 33.85 26.85 34.9 26.3 35.9 25.3 36.05 24.35 36.2 23.5 35.35 22.7 34.55 22.5 33.25 22.3 31.9 22.85 30.9 23.35 29.9 24.35 29.75 25.3 29.6 26.15 30.4 26.95 31.3 27.15 32.55" fill="#503411" fill-rule="evenodd" stroke="none"/>
      <path d="M26.55 32.65 Q26.55 33.85 25.85 34.75 25.2 35.55 24.2 35.55 23.2 35.55 22.25 34.7 21.25 33.8 21.25 32.65 21.25 31.5 22.25 30.6 23.2 29.75 24.2 29.75 25.2 29.75 25.85 30.6 26.55 31.45 26.55 32.65" fill="url(#gradient8)" fill-rule="evenodd" stroke="none"/>
      <path d="M25.15 32.7 Q25.15 33.7 24.65 34.35 24.1 35.05 23.4 35.05 22.65 35.05 22.1 34.35 21.6 33.7 21.6 32.7 21.6 31.75 22.1 31.05 22.65 30.4 23.4 30.4 24.1 30.4 24.65 31.05 25.15 31.75 25.15 32.7" fill="#faf3b1" fill-rule="evenodd" stroke="none"/>
      <path d="M24.8 32.65 Q24.8 33.6 24.3 34.3 23.75 34.95 23.05 34.95 22.3 34.95 21.8 34.3 21.25 33.6 21.25 32.65 21.25 31.65 21.8 31.0 22.3 30.3 23.05 30.3 23.75 30.3 24.3 31.0 24.8 31.65 24.8 32.65" fill="url(#gradient9)" fill-rule="evenodd" stroke="none"/>
      <path d="M22.4 15.5 L22.4 16.45 21.4 16.3 21.4 15.4 22.4 15.5 M23.5 15.65 L23.5 16.55 22.55 16.45 22.55 15.55 23.5 15.65 M23.5 17.6 L22.55 17.5 22.55 16.6 23.5 16.7 23.5 17.6 M24.8 15.75 L25.75 15.85 25.75 16.75 24.8 16.65 24.8 15.75 M23.65 16.55 L23.65 15.65 24.65 15.75 24.65 16.65 23.65 16.55 M22.4 17.65 L22.4 18.55 21.4 18.45 21.4 17.55 22.4 17.65 M21.4 16.45 L22.4 16.6 22.4 17.5 21.4 17.4 21.4 16.45 M22.55 18.7 L23.5 18.85 23.5 19.75 22.55 19.6 22.55 18.7 M22.4 19.75 L22.4 20.65 21.4 20.6 21.4 19.65 22.4 19.75 M21.4 18.6 L22.4 18.7 22.4 19.6 21.4 19.5 21.4 18.6 M24.65 20.0 L24.65 20.95 23.65 20.8 23.65 19.9 24.65 20.0 M23.5 19.9 L23.5 20.8 22.55 20.7 22.55 19.75 23.5 19.9 M22.55 17.65 L23.5 17.75 23.5 18.7 22.55 18.55 22.55 17.65 M28.0 17.15 L28.0 18.1 27.05 17.95 27.05 17.05 28.0 17.15 M25.9 15.85 L26.9 16.0 26.9 16.9 25.9 16.75 25.9 15.85 M25.9 16.9 L26.9 17.05 26.9 17.95 25.9 17.85 25.9 16.9 M26.9 20.2 L26.9 21.15 25.9 21.05 25.9 20.15 26.9 20.2 M25.9 19.05 L26.9 19.15 26.9 20.05 25.9 20.0 25.9 19.05 M25.9 18.9 L25.9 18.0 26.9 18.1 26.9 19.0 25.9 18.9 M27.05 19.15 L28.0 19.3 28.0 20.2 27.05 20.1 27.05 19.15 M27.05 18.1 L28.0 18.25 28.0 19.15 27.05 19.0 27.05 18.1 M25.75 20.1 L25.75 21.05 24.8 20.95 24.8 20.05 25.75 20.1 M27.05 21.3 L28.0 21.4 28.0 22.3 27.05 22.2 27.05 21.3 M28.0 22.45 L28.0 23.35 27.05 23.3 27.05 22.35 28.0 22.45 M26.9 22.35 L26.9 23.25 25.9 23.2 25.9 22.25 26.9 22.35 M25.9 21.2 L26.9 21.3 26.9 22.2 25.9 22.1 25.9 21.2 M26.9 24.5 L26.9 25.4 25.9 25.3 25.9 24.4 26.9 24.5 M25.9 23.35 L26.9 23.4 26.9 24.35 25.9 24.25 25.9 23.35 M27.05 23.45 L28.0 23.5 28.0 24.45 27.05 24.35 27.05 23.45 M23.5 21.85 L22.55 21.75 22.55 20.85 23.5 20.95 23.5 21.85 M22.4 21.9 L22.4 22.8 21.4 22.75 21.4 21.8 22.4 21.9 M21.4 20.75 L22.4 20.8 22.4 21.75 21.4 21.65 21.4 20.75 M21.4 22.9 L22.4 22.95 22.4 23.9 21.4 23.8 21.4 22.9 M21.4 23.95 L22.4 24.05 22.4 24.95 21.4 24.85 21.4 23.95 M22.55 24.05 L23.5 24.15 23.5 25.05 22.55 24.95 22.55 24.05 M22.55 23.0 L23.5 23.05 23.5 24.0 22.55 23.9 22.55 23.0 M24.65 24.25 L24.65 25.15 23.65 25.05 23.65 24.15 24.65 24.25 M22.55 21.9 L23.5 22.0 23.5 22.9 22.55 22.85 22.55 21.9 M24.8 24.25 L25.75 24.4 25.75 25.3 24.8 25.2 24.8 24.25" fill="url(#gradient10)" fill-rule="evenodd" stroke="none"/>
      <path d="M14.95 9.55 L13.6 9.4 13.6 7.85 14.95 8.05 14.95 9.55 M15.2 9.6 L15.2 8.05 16.55 8.2 16.55 9.75 15.2 9.6 M16.8 8.25 L18.15 8.45 18.15 10.0 16.8 9.8 16.8 8.25 M19.75 10.45 L19.75 11.95 18.35 11.8 18.35 10.25 19.75 10.45 M18.15 10.2 L18.15 11.75 16.8 11.6 16.8 10.05 18.15 10.2 M13.4 7.85 L13.4 9.35 12.0 9.2 12.0 7.65 13.4 7.85 M10.4 9.25 L11.75 9.4 11.75 10.95 10.4 10.75 10.4 9.25 M12.0 9.4 L13.4 9.6 13.4 11.15 12.0 10.95 12.0 9.4 M13.6 18.55 L14.95 18.7 14.95 20.25 13.6 20.05 13.6 18.55 M13.6 16.75 L14.95 16.95 14.95 18.45 13.6 18.3 13.6 16.75 M13.4 20.3 L13.4 21.85 12.0 21.65 12.0 20.15 13.4 20.3 M12.0 18.35 L13.4 18.55 13.4 20.05 12.0 19.9 12.0 18.35 M11.75 20.1 L11.75 21.65 10.4 21.45 10.4 19.9 11.75 20.1 M18.15 15.3 L16.8 15.15 16.8 13.6 18.15 13.75 18.15 15.3 M18.35 13.8 L19.75 14.0 19.75 15.55 18.35 15.35 18.35 13.8 M18.35 12.05 L19.75 12.2 19.75 13.75 18.35 13.6 18.35 12.05 M18.15 13.55 L16.8 13.35 16.8 11.8 18.15 12.0 18.15 13.55 M16.55 15.35 L16.55 16.9 15.2 16.75 15.2 15.2 16.55 15.35 M15.2 16.95 L16.55 17.15 16.55 18.7 15.2 18.5 15.2 16.95 M16.8 15.4 L18.15 15.55 18.15 17.1 16.8 16.9 16.8 15.4 M18.35 22.75 L19.75 22.9 19.75 24.4 18.35 24.25 18.35 22.75 M18.15 24.25 L16.8 24.05 16.8 22.5 18.15 22.7 18.15 24.25 M15.2 22.3 L16.55 22.5 16.55 24.05 15.2 23.85 15.2 22.3 M14.95 23.8 L13.6 23.65 13.6 22.15 14.95 22.3 14.95 23.8 M13.4 22.1 L13.4 23.65 12.0 23.45 12.0 21.9 13.4 22.1 M11.75 21.85 L11.75 23.4 10.4 23.25 10.4 21.7 11.75 21.85" fill="#3e423c" fill-rule="evenodd" stroke="none"/>
      <path d="M5.75 18.7 L3.8 18.55 3.8 15.45 5.75 15.7 5.75 13.3 8.35 13.55 8.35 15.9 10.3 16.15 10.3 19.15 8.35 19.0 8.35 21.35 5.75 21.1 5.75 18.7" fill="url(#gradient11)" fill-rule="evenodd" stroke="none"/>
    </g>
    <linearGradient gradientTransform="matrix(0.0, 0.0206, 0.0206, 0.0, 18.95, 18.6)" gradientUnits="userSpaceOnUse" id="gradient0" spreadMethod="pad" x1="-819.2" x2="819.2">
      <stop offset="0.0" stop-color="#7b4e10"/>
      <stop offset="0.796078431372549" stop-color="#67410c"/>
      <stop offset="1.0" stop-color="#5b3a0a"/>
    </linearGradient>
    <linearGradient gradientTransform="matrix(0.0182, 0.0, 0.0, -0.0182, 18.6, 1.9)" gradientUnits="userSpaceOnUse" id="gradient1" spreadMethod="pad" x1="-819.2" x2="819.2">
      <stop offset="0.0" stop-color="#bd761b"/>
      <stop offset="1.0" stop-color="#965f15"/>
    </linearGradient>
    <linearGradient gradientTransform="matrix(0.012, 0.0204, 0.0204, -0.012, 16.8, 20.25)" gradientUnits="userSpaceOnUse" id="gradient2" spreadMethod="pad" x1="-819.2" x2="819.2">
      <stop offset="0.0" stop-color="#110c0e" stop-opacity="0.0"/>
      <stop offset="1.0" stop-color="#110c0e" stop-opacity="0.36862746"/>
    </linearGradient>
    <linearGradient gradientTransform="matrix(0.0, -0.0123, -0.0123, 0.0, 15.5, 14.55)" gradientUnits="userSpaceOnUse" id="gradient3" spreadMethod="pad" x1="-819.2" x2="819.2">
      <stop offset="0.0" stop-color="#774a0f"/>
      <stop offset="1.0" stop-color="#492e08"/>
    </linearGradient>
    <radialGradient cx="0" cy="0" gradientTransform="matrix(0.0237, 0.0018, 0.0016, -0.0213, 14.8, 15.3)" gradientUnits="userSpaceOnUse" id="gradient4" r="819.2" spreadMethod="pad">
      <stop offset="0.0" stop-color="#110c0e" stop-opacity="0.0"/>
      <stop offset="0.9137254901960784" stop-color="#110c0e" stop-opacity="0.2784314"/>
      <stop offset="1.0" stop-color="#110c0e" stop-opacity="0.34901962"/>
    </radialGradient>
    <linearGradient gradientTransform="matrix(4.0E-4, -0.0039, -0.0039, -4.0E-4, 15.75, 26.5)" gradientUnits="userSpaceOnUse" id="gradient5" spreadMethod="pad" x1="-819.2" x2="819.2">
      <stop offset="0.0" stop-color="#000000" stop-opacity="0.23921569"/>
      <stop offset="1.0" stop-color="#000000" stop-opacity="0.0"/>
    </linearGradient>
    <radialGradient cx="0" cy="0" gradientTransform="matrix(-0.0052, 2.0E-4, 1.0E-4, 0.0038, 6.35, 29.2)" gradientUnits="userSpaceOnUse" id="gradient6" r="819.2" spreadMethod="pad">
      <stop offset="0.19607843137254902" stop-color="#ecd723"/>
      <stop offset="0.6549019607843137" stop-color="#a38012"/>
      <stop offset="0.8156862745098039" stop-color="#c4a119"/>
      <stop offset="1.0" stop-color="#b8991c"/>
    </radialGradient>
    <linearGradient gradientTransform="matrix(6.0E-4, 0.002, 0.002, -6.0E-4, 3.2, 29.45)" gradientUnits="userSpaceOnUse" id="gradient7" spreadMethod="pad" x1="-819.2" x2="819.2">
      <stop offset="0.0" stop-color="#e9d32a"/>
      <stop offset="1.0" stop-color="#b79316"/>
    </linearGradient>
    <radialGradient cx="0" cy="0" gradientTransform="matrix(-0.006, 2.0E-4, 1.0E-4, 0.0041, 26.6, 31.25)" gradientUnits="userSpaceOnUse" id="gradient8" r="819.2" spreadMethod="pad">
      <stop offset="0.19607843137254902" stop-color="#ecd723"/>
      <stop offset="0.6549019607843137" stop-color="#a38012"/>
      <stop offset="0.8156862745098039" stop-color="#c4a119"/>
      <stop offset="1.0" stop-color="#b8991c"/>
    </radialGradient>
    <linearGradient gradientTransform="matrix(7.0E-4, 0.0022, 0.0022, -7.0E-4, 23.0, 32.55)" gradientUnits="userSpaceOnUse" id="gradient9" spreadMethod="pad" x1="-819.2" x2="819.2">
      <stop offset="0.0" stop-color="#e9d32a"/>
      <stop offset="1.0" stop-color="#b79316"/>
    </linearGradient>
    <radialGradient cx="0" cy="0" gradientTransform="matrix(0.0137, 0.0224, 0.0224, -0.0137, 15.65, 6.35)" gradientUnits="userSpaceOnUse" id="gradient10" r="819.2" spreadMethod="pad">
      <stop offset="0.0" stop-color="#6ea42e"/>
      <stop offset="0.3137254901960784" stop-color="#6ca12d"/>
      <stop offset="0.5686274509803921" stop-color="#66972a"/>
      <stop offset="0.803921568627451" stop-color="#5a8626"/>
      <stop offset="1.0" stop-color="#4d7220"/>
    </radialGradient>
    <radialGradient cx="0" cy="0" gradientTransform="matrix(6.0E-4, 0.0203, 0.0169, 9.0E-4, 15.45, 9.3)" gradientUnits="userSpaceOnUse" id="gradient11" r="819.2" spreadMethod="pad">
      <stop offset="0.0" stop-color="#dda11c"/>
      <stop offset="0.23529411764705882" stop-color="#da9f1b"/>
      <stop offset="0.42745098039215684" stop-color="#d1981a"/>
      <stop offset="0.6039215686274509" stop-color="#c18d17"/>
      <stop offset="0.7686274509803922" stop-color="#ab7d13"/>
      <stop offset="0.9254901960784314" stop-color="#90680e"/>
      <stop offset="1.0" stop-color="#805d0b"/>
    </radialGradient>
  </defs>
</svg>
