<?xml version="1.0" encoding="UTF-8" standalone="no"?>
<svg xmlns:xlink="http://www.w3.org/1999/xlink" height="297.85px" width="84.45px" xmlns="http://www.w3.org/2000/svg">
  <g transform="matrix(1.0, 0.0, 0.0, 1.0, 0.0, 0.0)">
    <use height="297.85" transform="matrix(1.0, 0.0, 0.0, 1.0, 0.0, 0.0)" width="84.45" xlink:href="#shape0"/>
  </g>
  <defs>
    <g id="shape0" transform="matrix(1.0, 0.0, 0.0, 1.0, 0.0, 0.0)">
      <path d="M52.4 12.65 Q54.0 17.2 54.25 18.9 L54.2 20.6 54.25 22.95 Q54.0 30.8 54.5 34.3 54.75 36.2 55.55 37.7 L54.8 38.6 53.8 37.55 53.3 37.1 Q52.15 43.15 52.05 45.45 L52.4 12.65 M77.05 81.95 Q77.6 83.45 78.75 90.15 80.0 97.45 79.9 100.1 79.75 106.55 79.3 108.0 L79.0 107.85 Q78.35 106.95 77.75 103.0 L77.65 103.4 75.95 125.5 74.25 152.05 74.1 127.5 Q74.1 110.9 74.55 101.65 75.1 89.15 76.65 83.25 L76.65 85.75 76.85 82.65 77.05 81.95 M83.0 155.5 L83.45 161.4 83.4 201.95 83.25 202.5 82.5 169.5 Q82.5 162.9 83.0 155.5 M81.45 209.3 L81.3 225.55 80.95 226.95 79.8 229.9 79.55 215.15 79.8 204.15 80.0 199.05 81.4 147.2 81.6 185.4 81.45 209.3 M39.85 291.05 L39.8 290.45 Q39.25 285.6 36.4 282.65 L36.1 266.9 Q36.5 251.05 37.05 246.1 L38.4 253.7 38.95 247.35 39.6 258.7 39.9 266.55 39.85 291.05 M32.6 282.2 L29.85 281.7 Q29.8 279.55 30.8 277.05 31.8 274.6 32.95 273.8 L33.15 276.2 32.6 282.2 M10.75 246.25 L10.0 246.0 9.1 245.4 9.1 245.1 Q9.4 231.9 9.45 179.65 L10.2 206.15 10.8 229.05 10.75 246.25 M0.7 212.8 Q0.5 211.75 0.4 207.5 L0.45 208.35 0.7 212.8 M0.25 204.2 L0.15 201.05 0.0 190.55 1.1 180.6 Q2.15 169.3 1.9 154.15 L1.45 110.6 1.55 109.7 1.9 109.5 Q2.0 110.15 5.3 117.8 8.3 126.85 7.15 135.05 6.75 138.15 7.15 142.7 L8.0 151.6 6.25 168.85 Q4.85 183.4 4.9 185.35 5.05 189.5 2.65 195.4 0.5 200.7 0.25 204.2 M6.15 72.4 Q10.85 72.1 11.1 70.2 10.75 66.55 11.6 62.9 L11.7 62.7 Q11.7 101.75 11.1 112.85 10.85 108.3 9.85 105.25 L7.85 100.25 Q5.4 92.9 6.15 72.4 M18.0 39.0 L19.2 37.55 18.3 38.85 18.0 39.35 18.0 39.0 M19.55 37.5 L21.2 37.1 21.2 37.3 19.55 37.5 M30.55 18.45 L31.75 17.15 31.9 55.6 Q31.9 56.8 31.3 58.05 L30.35 60.1 30.1 55.4 29.75 32.6 30.1 25.45 30.55 18.45 M36.3 0.35 L37.5 0.05 39.35 0.0 40.4 0.1 40.4 0.15 Q40.0 17.8 38.3 29.65 36.8 40.05 36.8 55.3 36.8 68.4 37.05 73.65 37.3 78.6 38.0 80.75 L38.7 76.95 Q39.1 73.65 39.0 71.9 L39.25 73.05 39.4 76.05 Q39.4 84.0 37.8 84.15 36.9 84.2 36.65 84.65 36.15 85.6 36.15 89.1 L36.2 94.35 35.1 90.2 33.6 93.6 33.4 93.7 32.5 92.45 32.0 91.6 Q32.0 82.85 32.8 72.5 33.7 61.35 33.8 51.2 L33.85 33.05 33.85 18.75 35.5 1.45 Q35.5 0.85 36.1 0.45 L36.3 0.35 M31.55 110.1 L31.9 97.95 32.9 98.4 33.25 98.6 Q33.9 99.05 37.6 100.4 39.9 101.2 41.15 103.85 L39.1 103.15 36.4 102.55 34.85 104.2 33.5 104.05 32.8 103.9 Q31.4 143.2 31.1 157.0 L31.0 133.0 31.15 121.2 31.45 105.6 31.5 112.4 31.55 110.1 M25.1 165.8 L24.8 165.9 Q23.8 162.35 22.65 154.45 21.6 147.25 21.6 145.45 L21.85 138.25 Q22.9 125.65 22.8 120.05 L22.1 102.0 22.05 99.7 Q22.25 88.65 23.95 63.15 24.4 83.5 24.7 123.65 24.7 140.15 24.15 154.35 24.0 158.2 25.1 165.8 M17.1 231.2 L16.35 205.55 Q16.35 188.25 17.1 183.65 17.45 181.65 19.5 178.75 L18.25 200.2 Q17.9 210.6 17.95 240.35 L17.1 231.2 M20.85 177.9 Q23.35 177.65 26.05 175.65 L28.65 173.7 29.75 173.95 30.5 174.5 Q26.05 179.85 26.1 187.5 L26.35 196.85 Q26.4 203.8 25.65 211.1 L24.75 191.2 Q24.35 182.85 24.0 181.0 L23.1 182.5 21.85 184.0 Q21.1 181.5 20.85 177.9 M28.05 95.45 L29.75 82.2 Q30.3 76.35 30.4 65.95 L31.3 70.65 Q31.9 75.55 31.45 82.2 L31.35 85.1 Q30.4 95.7 29.9 96.8 29.75 97.2 29.35 96.9 L28.6 96.7 28.05 95.45 M21.85 114.05 Q22.2 120.35 21.85 128.05 L21.85 114.85 21.85 114.05 M35.65 161.35 L35.6 149.9 Q36.1 118.15 36.55 116.95 L37.2 139.5 Q37.2 145.05 35.65 161.35 M34.55 220.0 Q35.25 205.35 35.25 177.4 L35.7 177.0 Q37.15 177.6 39.6 181.65 41.25 184.35 42.75 187.6 L41.95 189.4 Q41.5 190.25 40.85 190.25 L39.75 189.8 Q39.1 189.35 38.6 189.35 L37.95 189.5 37.9 189.65 Q36.75 197.85 36.5 215.5 L36.0 237.4 Q35.4 231.35 35.25 226.95 35.15 224.35 34.85 223.3 L34.5 223.8 34.55 220.0 M51.75 193.15 L52.05 191.25 51.75 194.45 52.5 188.25 53.4 182.2 Q53.8 181.15 55.6 181.15 57.3 181.15 59.0 181.7 L61.1 182.5 Q62.6 183.0 63.55 185.7 64.25 187.8 64.25 189.45 L63.05 188.7 61.25 187.85 61.05 191.5 Q61.0 187.7 60.05 185.35 L59.05 183.65 58.5 184.45 Q56.35 190.4 56.15 205.6 55.95 223.1 55.4 226.3 L54.8 221.35 Q54.4 217.5 52.9 216.2 L52.65 216.95 Q51.9 222.15 50.75 247.4 L49.5 274.05 48.6 274.95 48.15 271.2 48.15 246.85 48.9 232.45 49.2 234.95 49.5 233.15 49.9 228.75 Q50.5 227.2 50.95 222.55 51.55 216.35 51.25 208.8 L51.75 194.45 51.75 193.15 M52.7 82.15 L53.85 76.25 Q54.4 76.15 54.95 76.55 55.4 81.3 55.8 83.35 56.1 88.05 55.7 93.6 55.7 95.65 57.7 98.1 59.95 100.8 60.3 102.7 60.5 103.9 62.45 105.35 64.2 106.65 64.7 106.65 L65.7 105.65 Q66.6 104.4 67.45 103.8 L68.0 104.0 Q68.6 104.45 68.8 105.4 63.65 107.85 63.05 114.4 62.75 117.6 62.85 124.95 62.6 118.2 61.25 112.95 59.3 105.1 55.55 103.85 L55.55 116.55 Q55.7 131.15 53.75 168.65 L53.85 134.8 53.45 109.35 52.7 82.15 M77.15 191.95 Q77.15 186.15 76.1 180.6 74.5 172.15 74.5 162.75 74.5 145.95 75.35 139.7 76.9 131.1 78.35 118.6 L78.55 141.8 Q78.55 153.3 77.8 159.9 77.15 165.85 77.35 188.75 L77.3 187.2 77.15 191.95 M60.4 207.5 L61.05 191.5 60.6 254.45 Q60.05 226.5 60.05 218.15 L60.4 207.5 M44.4 279.7 Q44.4 280.7 43.8 283.05 L43.6 283.05 43.25 270.15 44.4 279.7 M44.9 295.05 L43.6 295.15 43.8 283.05 44.9 295.05" fill="#a1978b" fill-rule="evenodd" stroke="none"/>
      <path d="M40.4 0.1 L40.95 0.25 Q41.45 1.0 41.85 3.85 L42.4 7.85 42.4 7.9 Q42.55 63.2 42.9 76.05 43.7 83.55 41.7 91.0 40.0 97.45 38.7 97.45 37.6 97.45 36.2 94.35 L36.15 89.1 Q36.15 85.6 36.65 84.65 36.9 84.2 37.8 84.15 39.4 84.0 39.4 76.05 L39.25 73.05 39.0 71.9 Q39.1 73.65 38.7 76.95 L38.0 80.75 Q37.3 78.6 37.05 73.65 36.8 68.4 36.8 55.3 36.8 40.05 38.3 29.65 40.0 17.8 40.4 0.15 L40.4 0.1 M43.6 8.9 L47.0 9.0 46.75 69.25 46.65 69.25 44.85 46.6 Q43.6 29.4 43.5 8.85 L43.6 8.9 M47.2 9.0 L48.0 9.15 48.0 9.25 Q48.0 15.15 47.55 18.3 L47.2 9.0 M55.55 37.7 Q56.25 38.2 57.6 38.7 L59.15 39.1 59.2 40.2 58.4 46.55 57.85 47.05 Q57.2 46.7 56.9 44.1 L56.8 43.7 55.7 46.55 54.1 49.75 Q53.3 51.0 53.15 54.45 53.0 57.75 52.15 58.75 L52.05 45.85 52.05 45.75 52.05 45.45 Q52.15 43.15 53.3 37.1 L53.8 37.55 54.8 38.6 55.55 37.7 M60.05 39.1 L61.55 39.15 61.5 59.2 61.3 66.9 Q61.15 66.9 60.75 67.95 L60.45 68.3 60.05 39.1 M74.55 72.15 L75.7 75.75 76.45 79.2 76.65 80.25 76.65 83.25 Q75.1 89.15 74.55 101.65 74.1 110.9 74.1 127.5 L74.25 152.05 75.95 125.5 77.65 103.4 77.75 103.0 Q78.35 106.95 79.0 107.85 L79.3 108.0 Q79.75 106.55 79.9 100.1 82.45 112.9 82.35 115.7 L81.6 129.9 Q81.6 137.1 83.0 155.5 82.5 162.9 82.5 169.5 L83.25 202.5 81.45 209.3 81.6 185.4 81.4 147.2 80.0 199.05 79.8 204.15 79.55 215.15 79.8 229.9 78.55 232.25 76.6 236.15 Q76.6 237.65 75.65 238.7 74.7 239.75 73.35 239.75 L72.75 240.05 Q70.95 242.0 70.9 242.45 L70.15 244.6 Q69.6 247.9 69.95 256.15 L69.95 256.55 69.9 259.15 69.4 262.9 Q69.2 260.1 68.6 256.65 L68.15 254.7 68.1 258.75 68.2 267.65 66.6 268.6 66.6 267.0 68.15 254.65 Q67.55 255.8 67.0 258.0 66.5 259.8 66.45 261.2 L66.55 243.75 66.85 246.9 Q67.15 209.8 66.5 189.7 69.05 196.2 69.35 205.3 69.7 215.25 71.15 220.05 71.8 211.35 72.6 188.0 L73.45 157.0 72.45 90.25 72.7 88.0 71.35 90.05 Q71.7 86.45 73.0 85.2 74.35 83.85 74.45 83.1 L74.6 78.45 74.55 72.15 M76.9 81.35 L77.05 81.95 76.85 82.65 76.9 81.35 M83.45 161.4 Q84.45 184.15 84.45 189.5 L84.4 194.85 Q84.2 198.35 83.4 201.95 L83.45 161.4 M56.25 271.5 L55.95 271.5 55.75 271.9 55.05 272.45 54.8 272.95 57.35 246.75 Q59.75 222.95 59.75 220.3 L59.15 199.9 58.35 215.7 Q58.05 221.7 57.85 232.9 L57.8 232.05 Q56.8 246.2 56.6 246.4 55.9 245.95 55.6 244.85 55.1 243.1 54.6 234.8 L54.2 236.9 53.95 239.45 54.15 259.55 56.3 252.3 54.95 263.55 Q54.05 271.15 50.7 273.05 L49.5 274.05 50.75 247.4 Q51.9 222.15 52.65 216.95 L52.9 216.2 Q54.4 217.5 54.8 221.35 L55.4 226.3 Q55.95 223.1 56.15 205.6 56.35 190.4 58.5 184.45 L59.05 183.65 60.05 185.35 Q61.0 187.7 61.05 191.5 L61.25 187.85 63.05 188.7 64.25 189.45 Q65.05 192.35 65.2 194.5 L65.75 209.5 65.15 198.05 63.8 248.4 64.05 253.85 64.15 258.7 64.0 261.8 Q63.8 264.25 63.45 264.9 L62.1 265.95 60.6 267.1 59.95 269.6 Q59.4 270.75 57.85 271.2 L57.55 271.3 56.7 271.5 56.25 271.5 M51.75 278.15 L49.75 280.45 Q48.2 282.5 48.15 284.5 L48.15 277.7 Q48.6 278.0 49.75 278.15 L51.75 278.15 M39.9 295.6 L39.85 295.45 39.85 291.1 39.85 291.05 39.9 266.55 39.6 258.7 38.95 247.35 38.4 253.7 36.3 239.95 37.05 246.1 Q36.5 251.05 36.1 266.9 L36.4 282.65 34.5 282.35 33.85 275.9 33.85 282.3 32.6 282.2 33.15 276.2 32.95 273.8 Q31.8 274.6 30.8 277.05 29.8 279.55 29.85 281.7 28.25 280.7 27.2 277.1 L25.75 270.8 27.55 271.25 Q30.8 269.6 32.0 249.5 33.3 226.85 34.5 223.8 L34.85 223.3 Q35.15 224.35 35.25 226.95 35.4 231.35 36.0 237.4 L36.5 215.5 Q36.75 197.85 37.9 189.65 L37.95 189.5 38.6 189.35 Q39.1 189.35 39.75 189.8 L40.85 190.25 Q41.5 190.25 41.95 189.4 L42.75 187.6 42.25 237.75 43.15 243.2 45.05 215.45 Q45.7 218.75 47.3 219.25 48.5 221.75 48.15 237.15 L48.75 230.05 48.9 232.45 48.15 246.85 48.15 237.15 Q46.3 249.15 46.0 268.95 45.65 289.45 44.9 295.05 L43.8 283.05 43.6 295.15 41.75 295.4 39.9 295.6 M24.8 267.7 Q24.65 267.1 22.95 264.65 21.1 261.85 20.3 261.4 L18.15 260.15 Q17.25 259.05 16.65 254.15 L15.85 248.5 13.5 246.9 10.75 246.25 10.8 229.05 10.2 206.15 9.45 179.65 Q9.4 231.9 9.1 245.1 L9.1 245.4 Q8.35 244.6 8.1 243.45 L8.05 243.1 Q7.85 242.3 7.8 241.3 L7.45 230.0 7.1 221.15 Q6.35 217.65 3.1 216.45 L1.15 213.95 0.7 212.8 0.45 208.35 0.4 207.5 0.4 207.45 0.35 206.8 0.2 205.1 0.25 204.2 Q0.5 200.7 2.65 195.4 5.05 189.5 4.9 185.35 4.85 183.4 6.25 168.85 L8.0 151.6 7.9 154.3 Q7.9 155.6 10.2 160.2 12.5 164.9 12.6 168.55 L12.5 189.2 Q12.5 196.8 14.0 219.5 15.15 237.7 15.8 244.7 L15.85 241.45 15.75 218.55 15.95 219.2 16.5 228.05 17.3 235.4 17.95 240.35 Q17.9 210.6 18.25 200.2 L19.5 178.75 Q20.2 178.35 20.85 177.9 21.1 181.5 21.85 184.0 L23.1 182.5 24.0 181.0 Q24.35 182.85 24.75 191.2 L25.65 211.1 Q26.4 203.8 26.35 196.85 L26.1 187.5 Q26.05 179.85 30.5 174.5 31.05 174.85 32.5 175.05 33.45 175.15 33.45 175.85 L31.0 214.35 29.75 247.1 Q28.95 264.6 27.55 268.15 26.4 266.95 25.6 264.7 24.8 262.5 24.7 260.1 L24.8 267.7 M0.9 82.2 Q0.9 78.15 2.45 75.3 4.0 72.4 6.15 72.4 5.4 92.9 7.85 100.25 L9.85 105.25 Q10.85 108.3 11.1 112.85 11.7 101.75 11.7 62.7 L12.05 61.65 14.95 57.2 Q16.7 54.5 16.7 52.05 L16.65 45.1 17.05 57.6 17.55 40.05 17.6 40.0 18.0 39.0 18.0 39.35 18.75 79.95 Q18.9 68.55 19.8 58.55 21.15 43.75 21.2 37.3 L21.2 37.1 24.15 37.2 25.3 37.2 25.1 48.95 25.9 108.35 26.25 105.5 Q26.5 102.55 27.45 101.25 27.9 100.65 28.8 99.95 L30.55 98.2 31.45 98.5 31.5 103.65 31.45 105.6 31.15 121.2 31.0 133.0 31.1 157.0 Q31.4 143.2 32.8 103.9 L33.5 104.05 34.85 104.2 36.4 102.55 39.1 103.15 41.15 103.85 42.95 105.85 Q43.0 127.6 42.55 155.0 42.5 159.05 41.5 163.9 40.4 169.1 39.15 170.25 L37.5 167.85 Q37.35 167.85 36.9 168.2 L36.25 168.6 Q35.75 168.25 35.65 162.6 L35.65 161.35 Q37.2 145.05 37.2 139.5 L36.55 116.95 Q36.1 118.15 35.6 149.9 L35.55 151.75 35.35 147.35 35.15 140.35 35.15 140.85 35.0 137.35 34.0 152.25 33.15 168.05 33.1 168.15 Q30.1 168.3 30.3 152.5 30.65 123.0 30.45 119.2 29.7 141.25 28.45 152.4 27.15 163.85 25.1 165.8 24.0 158.2 24.15 154.35 24.7 140.15 24.7 123.65 24.4 83.5 23.95 63.15 22.25 88.65 22.05 99.7 L22.05 102.05 21.85 114.05 21.85 114.85 21.85 128.05 Q21.6 130.1 21.5 134.0 21.45 136.1 20.8 137.95 L20.15 138.15 Q20.55 136.05 20.75 133.05 L20.7 131.55 19.9 133.45 Q19.05 135.1 18.1 135.85 L16.9 134.35 Q16.75 134.1 16.85 131.05 17.6 114.0 17.35 79.0 L16.75 108.3 Q15.75 127.3 12.25 134.6 10.6 117.4 6.45 110.2 5.35 108.3 4.9 105.7 4.45 103.15 4.75 100.7 L4.75 94.45 Q4.75 87.55 4.55 87.1 3.2 85.9 0.9 82.2 M29.05 20.3 L29.2 20.1 29.2 21.45 29.4 19.85 29.7 19.4 30.55 18.45 30.1 25.45 29.75 32.6 30.1 55.4 29.8 50.65 Q29.45 44.1 29.05 20.3 M28.6 96.7 L28.2 96.35 Q28.05 95.95 28.05 95.45 L28.6 96.7 M53.85 76.25 L52.7 82.15 Q52.15 79.05 52.85 77.55 L53.85 76.25 M53.75 168.65 Q55.7 131.15 55.55 116.55 L55.55 103.85 Q59.3 105.1 61.25 112.95 62.6 118.2 62.85 124.95 62.75 117.6 63.05 114.4 63.65 107.85 68.8 105.4 L68.65 116.6 Q68.65 130.45 70.05 149.05 71.15 163.75 67.35 171.55 64.85 176.75 62.45 176.75 61.7 176.75 60.15 175.7 58.6 174.6 57.95 173.55 57.1 172.25 55.85 171.9 L53.75 171.45 53.8 170.15 53.75 169.4 53.75 168.65 M55.8 83.35 Q55.4 81.3 54.95 76.55 55.7 78.65 55.8 83.35 M77.35 188.75 Q77.15 165.85 77.8 159.9 78.55 153.3 78.55 141.8 L78.35 118.6 Q76.9 131.1 75.35 139.7 74.5 145.95 74.5 162.75 74.5 172.15 76.1 180.6 77.15 186.15 77.15 191.95 L77.0 195.6 Q76.45 210.15 76.4 220.5 L76.9 219.1 Q77.55 217.5 78.35 216.75 L78.4 216.75 Q78.75 216.6 79.05 222.1 L77.35 188.75 M67.45 178.3 L66.5 182.15 66.6 181.0 Q66.85 179.6 67.45 178.3 M60.4 207.5 L60.05 218.15 Q60.05 226.5 60.6 254.45 L61.05 191.5 60.4 207.5 M48.15 271.2 L48.6 274.95 48.15 275.6 48.15 271.2 M44.4 279.7 L43.25 270.15 43.6 283.05 43.8 283.05 Q44.4 280.7 44.4 279.7 M66.45 264.65 L66.45 262.2 66.5 262.75 66.45 264.65" fill="#8b8178" fill-rule="evenodd" stroke="none"/>
      <path d="M42.4 7.85 L42.55 8.05 42.4 7.9 42.4 7.85 M43.15 8.6 L43.6 8.9 43.5 8.85 43.15 8.6 M73.55 69.4 L74.05 70.7 73.7 69.85 73.55 69.4 M76.45 79.2 L76.75 80.6 76.7 82.6 76.65 80.25 76.45 79.2 M78.55 232.25 L77.4 234.6 76.6 236.15 78.55 232.25 M69.95 256.55 L70.2 261.8 Q70.25 264.9 69.4 266.2 L69.8 264.95 69.95 258.9 69.9 259.15 69.95 256.55 M57.15 271.55 L56.25 271.5 56.7 271.5 57.15 271.55 M1.45 110.6 L1.45 109.8 1.55 109.7 1.45 110.6 M1.15 87.75 L0.95 84.15 1.1 85.95 1.15 87.75 M11.6 62.9 L12.05 61.65 11.7 62.7 11.6 62.9 M19.2 37.55 L19.3 37.55 19.45 37.55 19.55 37.5 21.2 37.3 Q21.15 43.75 19.8 58.55 18.9 68.55 18.75 79.95 L18.0 39.35 18.3 38.85 19.2 37.55 M24.15 37.2 L26.2 37.15 25.8 37.2 25.3 37.2 24.15 37.2 M29.2 20.1 L29.7 19.4 29.4 19.85 29.2 20.1 M35.05 0.75 L36.3 0.35 36.1 0.45 Q35.5 0.85 35.5 1.45 L35.05 0.75 M27.6 32.05 L27.55 29.9 27.6 27.6 27.6 32.05 M27.5 31.85 L27.5 27.05 27.55 29.9 27.5 31.85 M31.5 103.65 L31.55 110.1 31.5 112.4 31.45 105.6 31.5 103.65 M35.65 162.6 L35.35 147.35 35.55 151.75 35.6 149.9 35.65 161.35 35.65 162.6 M35.15 140.85 L34.9 148.4 35.0 137.35 35.15 140.85 M2.1 103.95 L1.85 107.8 1.85 108.3 1.75 108.0 1.85 107.8 1.9 106.15 1.7 107.9 2.0 103.85 2.1 103.95 M17.3 235.4 L17.1 231.2 17.95 240.35 17.3 235.4 M22.1 102.0 L22.05 101.2 22.05 102.05 22.05 99.7 22.1 102.0 M18.15 148.5 L17.65 149.75 18.4 147.7 18.15 148.5 M48.9 79.85 L49.0 76.75 49.0 79.7 48.9 79.85 M52.05 191.25 L52.5 188.25 51.75 194.45 52.05 191.25 M53.75 171.45 L53.75 169.4 53.8 170.15 53.75 171.45 M49.2 234.95 L48.9 232.45 48.75 230.05 49.2 234.95 M48.6 274.95 L49.5 274.05 50.7 273.05 48.6 274.95 M44.9 295.05 L41.75 295.4 43.6 295.15 44.9 295.05 M66.5 262.75 L66.6 267.0 66.6 268.6 66.45 264.65 66.5 262.75 M38.4 253.7 L37.05 246.1 36.3 239.95 38.4 253.7" fill="#898074" fill-rule="evenodd" stroke="none"/>
      <path d="M42.55 8.05 L42.75 8.25 42.95 8.4 43.15 8.6 43.5 8.85 Q43.6 29.4 44.85 46.6 L46.65 69.25 46.4 69.1 Q46.4 70.45 45.6 72.6 44.8 74.75 44.8 76.85 L45.05 80.4 47.2 80.05 48.9 79.85 Q48.0 122.95 47.15 134.5 46.6 142.35 46.6 147.45 L47.4 165.2 Q48.2 180.7 48.2 194.4 L48.1 196.85 47.45 196.65 Q46.8 196.65 46.6 202.15 L46.5 208.4 47.85 216.6 Q49.1 225.6 48.75 230.05 L48.15 237.15 Q48.5 221.75 47.3 219.25 45.7 218.75 45.05 215.45 L43.15 243.2 42.25 237.75 42.75 187.6 Q41.25 184.35 39.6 181.65 37.15 177.6 35.7 177.0 L35.25 177.4 Q35.25 205.35 34.55 220.0 L34.85 179.85 Q31.95 208.2 31.95 209.2 L30.65 250.9 Q30.75 256.4 30.0 261.35 29.0 268.1 26.75 269.9 L27.55 271.25 25.75 270.8 24.8 267.7 24.7 260.1 Q24.8 262.5 25.6 264.7 26.4 266.95 27.55 268.15 28.95 264.6 29.75 247.1 L31.0 214.35 33.45 175.85 Q33.45 175.15 32.5 175.05 31.05 174.85 30.5 174.5 L29.75 173.95 28.65 173.7 26.05 175.65 Q23.35 177.65 20.85 177.9 20.2 178.35 19.5 178.75 17.45 181.65 17.1 183.65 16.35 188.25 16.35 205.55 L17.1 231.2 17.3 235.4 16.5 228.05 15.45 197.55 15.1 216.3 15.25 227.1 Q15.45 237.8 15.85 241.45 L15.8 244.7 Q15.15 237.7 14.0 219.5 12.5 196.8 12.5 189.2 L12.6 168.55 Q12.5 164.9 10.2 160.2 7.9 155.6 7.9 154.3 L8.0 151.6 7.15 142.7 Q6.75 138.15 7.15 135.05 8.3 126.85 5.3 117.8 2.0 110.15 1.9 109.5 L1.95 108.9 1.85 108.3 1.85 107.8 2.1 103.95 Q2.7 98.3 2.7 94.65 L2.5 88.3 Q2.25 86.5 1.7 85.85 L0.95 84.15 0.9 82.2 Q3.2 85.9 4.55 87.1 4.75 87.55 4.75 94.45 L4.75 100.7 Q4.45 103.15 4.9 105.7 5.35 108.3 6.45 110.2 10.6 117.4 12.25 134.6 L11.35 138.75 10.35 132.0 10.55 126.45 Q10.55 125.15 9.85 123.8 L7.25 118.9 6.45 117.6 Q7.3 121.05 7.95 130.55 L9.15 150.65 Q9.6 150.65 10.15 151.9 L10.4 147.05 10.35 136.8 10.9 139.65 11.35 138.75 13.75 151.8 13.65 151.75 13.95 152.85 14.4 155.2 14.75 158.0 14.25 164.0 Q13.7 168.65 13.7 171.9 L13.8 178.3 Q14.35 169.95 16.4 159.65 19.05 146.15 21.85 138.25 L21.6 145.45 Q21.6 147.25 22.65 154.45 23.8 162.35 24.8 165.9 L25.1 165.8 Q27.15 163.85 28.45 152.4 29.7 141.25 30.45 119.2 30.65 123.0 30.3 152.5 30.1 168.3 33.1 168.15 L33.15 168.05 34.0 152.25 35.0 137.35 34.9 148.4 35.15 140.85 35.15 140.35 35.35 147.35 35.65 162.6 Q35.75 168.25 36.25 168.6 L36.9 168.2 Q37.35 167.85 37.5 167.85 L39.15 170.25 Q40.4 169.1 41.5 163.9 42.5 159.05 42.55 155.0 43.0 127.6 42.95 105.85 L41.15 103.85 Q39.9 101.2 37.6 100.4 33.9 99.05 33.25 98.6 L32.9 98.4 31.9 97.95 31.55 110.1 31.5 103.65 31.45 98.5 30.55 98.2 28.8 99.95 Q27.9 100.65 27.45 101.25 26.5 102.55 26.25 105.5 L25.9 108.35 25.1 48.95 25.3 37.2 25.8 37.2 Q25.85 52.4 26.15 56.95 L26.75 45.45 27.3 37.05 27.65 38.35 27.6 32.05 27.6 27.6 27.6 23.7 29.05 20.3 Q29.45 44.1 29.8 50.65 L30.1 55.4 30.35 60.1 31.3 58.05 Q31.9 56.8 31.9 55.6 L31.75 17.15 33.05 12.55 33.45 10.4 33.4 26.1 33.85 18.75 33.85 33.05 33.8 51.2 Q33.7 61.35 32.8 72.5 32.0 82.85 32.0 91.6 L32.5 92.45 33.4 93.7 33.6 93.6 35.1 90.2 36.2 94.35 Q37.6 97.45 38.7 97.45 40.0 97.45 41.7 91.0 43.7 83.55 42.9 76.05 42.55 63.2 42.4 7.9 L42.55 8.05 M47.0 9.0 L47.2 9.0 47.55 18.3 Q48.0 15.15 48.0 9.25 L48.0 9.15 48.7 9.35 48.7 9.5 49.0 52.35 50.3 10.3 50.3 10.2 50.75 10.55 52.4 12.65 52.05 45.45 52.05 45.75 52.05 45.85 52.15 58.75 Q53.0 57.75 53.15 54.45 53.3 51.0 54.1 49.75 L55.7 46.55 56.8 43.7 56.9 44.1 Q57.2 46.7 57.85 47.05 L58.4 46.55 59.2 40.2 59.15 39.1 60.05 39.1 60.45 68.3 60.75 67.95 Q61.15 66.9 61.3 66.9 L61.5 59.2 61.55 39.15 65.7 39.85 Q65.25 49.2 65.2 64.0 65.2 66.35 64.9 66.95 64.7 67.35 63.5 67.95 L63.3 69.8 63.45 71.0 66.15 70.95 Q66.95 70.95 67.25 71.55 L67.75 73.0 Q68.75 75.4 72.85 76.65 L73.2 73.15 73.7 69.85 74.05 70.7 74.55 72.15 74.6 78.45 74.45 83.1 Q74.35 83.85 73.0 85.2 71.7 86.45 71.35 90.05 L72.7 88.0 72.45 90.25 73.45 157.0 72.6 188.0 Q71.8 211.35 71.15 220.05 69.7 215.25 69.35 205.3 69.05 196.2 66.5 189.7 67.15 209.8 66.85 246.9 L66.55 243.75 66.45 261.2 Q66.5 259.8 67.0 258.0 67.55 255.8 68.15 254.65 L66.6 267.0 66.5 262.75 66.45 262.2 66.45 264.65 66.6 268.6 66.05 268.9 Q64.2 269.9 58.9 271.45 L57.15 271.55 56.7 271.5 57.55 271.3 57.85 271.2 Q59.4 270.75 59.95 269.6 L60.6 267.1 62.1 265.95 63.45 264.9 Q63.8 264.25 64.0 261.8 L64.15 258.7 64.05 253.85 63.8 248.4 65.15 198.05 65.75 209.5 65.2 194.5 Q65.05 192.35 64.25 189.45 64.25 187.8 63.55 185.7 62.6 183.0 61.1 182.5 L59.0 181.7 Q57.3 181.15 55.6 181.15 53.8 181.15 53.4 182.2 L52.5 188.25 52.05 191.25 51.75 193.15 Q51.8 163.65 51.2 145.05 L49.0 79.7 Q49.45 77.55 49.85 76.15 50.7 73.45 52.5 73.45 54.75 73.45 55.65 77.35 L56.75 82.6 59.35 84.2 Q61.25 85.2 61.7 88.05 L62.35 86.15 Q62.6 85.05 63.05 84.35 L64.9 86.9 Q66.35 88.7 68.0 88.65 L68.8 88.85 Q65.45 86.95 63.9 83.65 61.85 79.3 62.05 71.8 L61.7 81.15 60.45 81.3 Q57.4 81.3 56.25 73.2 55.45 67.9 55.05 52.95 L55.0 52.4 Q54.6 54.55 54.6 60.8 54.65 65.25 53.0 68.35 51.95 70.3 51.55 70.45 L49.85 70.75 Q49.65 70.85 49.1 72.1 L48.3 73.8 47.9 74.0 48.45 68.4 48.75 63.9 48.6 34.9 Q47.65 60.5 47.65 67.25 L47.35 68.6 46.75 69.25 47.0 9.0 M68.9 40.95 L69.2 41.1 Q71.3 42.95 72.55 55.25 73.35 63.55 73.35 68.35 L71.4 70.45 70.15 71.2 Q68.5 69.8 67.8 63.05 67.2 57.5 67.2 47.3 L67.3 43.5 68.05 44.35 Q68.5 44.15 68.9 40.95 M76.75 80.6 L76.9 81.35 76.85 82.65 76.65 85.75 76.65 83.25 76.65 80.25 76.7 82.6 76.75 80.6 M68.95 266.9 L68.2 267.65 68.1 258.75 68.15 254.7 68.6 256.65 Q69.2 260.1 69.4 262.9 L68.95 266.9 M55.75 271.9 L54.2 274.6 51.75 278.15 49.75 278.15 Q48.6 278.0 48.15 277.7 L48.15 284.5 48.15 284.6 Q47.55 286.85 47.6 289.8 L47.7 294.0 Q47.5 297.85 42.75 297.85 40.65 297.85 39.9 295.6 L41.75 295.4 44.9 295.05 Q45.65 289.45 46.0 268.95 46.3 249.15 48.15 237.15 L48.15 246.85 48.15 271.2 48.15 275.6 48.6 274.95 50.7 273.05 Q54.05 271.15 54.95 263.55 L56.3 252.3 54.15 259.55 53.95 239.45 54.2 236.9 54.6 234.8 Q55.1 243.1 55.6 244.85 55.9 245.95 56.6 246.4 56.8 246.2 57.8 232.05 L57.85 232.9 Q58.05 221.7 58.35 215.7 L59.15 199.9 59.75 220.3 Q59.75 222.95 57.35 246.75 L54.8 272.95 55.05 272.45 55.75 271.9 M16.65 45.1 Q17.05 42.0 17.55 40.05 L17.05 57.6 16.65 45.1 M29.4 19.85 L29.2 21.45 29.2 20.1 29.4 19.85 M28.6 96.7 L29.35 96.9 Q29.75 97.2 29.9 96.8 30.4 95.7 31.35 85.1 L31.45 82.2 Q31.9 75.55 31.3 70.65 L30.4 65.95 Q30.3 76.35 29.75 82.2 L28.05 95.45 Q28.05 95.95 28.2 96.35 L28.6 96.7 M27.2 77.55 Q26.5 84.15 26.5 90.25 L26.6 92.45 26.85 92.85 Q27.65 91.8 28.25 88.5 29.1 83.7 29.1 75.75 28.2 38.3 27.65 38.35 L27.9 64.9 Q27.9 70.95 27.2 77.55 M20.8 137.95 Q20.15 139.55 19.35 143.6 18.55 147.6 18.15 148.5 L18.4 147.7 20.15 138.15 20.8 137.95 M17.65 149.75 Q17.65 150.95 17.0 151.85 16.35 152.7 15.45 152.7 L16.75 151.1 17.65 149.75 M1.7 107.9 L1.9 106.15 1.85 107.8 1.75 108.0 1.7 107.9 M13.95 192.0 L14.05 192.55 13.95 191.9 13.95 192.0 M52.7 82.15 L53.45 109.35 53.85 134.8 53.75 168.65 53.75 169.4 53.75 171.45 55.85 171.9 Q57.1 172.25 57.95 173.55 58.6 174.6 60.15 175.7 61.7 176.75 62.45 176.75 64.85 176.75 67.35 171.55 71.15 163.75 70.05 149.05 68.65 130.45 68.65 116.6 L68.8 105.4 Q68.6 104.45 68.0 104.0 L67.45 103.8 Q66.6 104.4 65.7 105.65 L64.7 106.65 Q64.2 106.65 62.45 105.35 60.5 103.9 60.3 102.7 59.95 100.8 57.7 98.1 55.7 95.65 55.7 93.6 56.1 88.05 55.8 83.35 55.7 78.65 54.95 76.55 54.4 76.15 53.85 76.25 L52.85 77.55 Q52.15 79.05 52.7 82.15 M77.15 191.95 L77.3 187.2 77.35 188.75 79.05 222.1 Q78.75 216.6 78.4 216.75 L78.35 216.75 Q77.55 217.5 76.9 219.1 L76.4 220.5 Q76.45 210.15 77.0 195.6 L77.15 191.95 M67.45 178.3 Q66.85 179.6 66.6 181.0 L66.5 182.15 67.45 178.3 M70.5 178.3 Q69.55 181.15 69.55 185.2 69.55 190.65 70.7 201.6 L70.8 202.5 72.0 191.5 Q73.15 178.4 73.15 164.15 73.15 141.75 71.85 106.15 71.8 153.65 71.45 172.9 71.45 175.45 70.5 178.3 M49.9 228.75 Q50.75 221.0 51.25 208.8 51.55 216.35 50.95 222.55 50.5 227.2 49.9 228.75" fill="#726a60" fill-rule="evenodd" stroke="none"/>
      <path d="M48.7 9.35 L50.3 10.2 50.3 10.3 49.0 52.35 48.7 9.5 48.7 9.35 M65.7 39.85 L68.5 40.75 68.9 40.95 Q68.5 44.15 68.05 44.35 L67.3 43.5 67.2 47.3 Q67.2 57.5 67.8 63.05 68.5 69.8 70.15 71.2 L71.4 70.45 73.35 68.35 73.35 68.85 73.55 69.4 73.7 69.85 73.2 73.15 72.85 76.65 Q68.75 75.4 67.75 73.0 L67.25 71.55 Q66.95 70.95 66.15 70.95 L63.45 71.0 63.3 69.8 63.5 67.95 Q64.7 67.35 64.9 66.95 65.2 66.35 65.2 64.0 65.25 49.2 65.7 39.85 M69.4 266.2 L68.95 266.9 69.4 262.9 69.9 259.15 69.95 258.9 69.8 264.95 69.4 266.2 M34.5 282.35 L33.85 282.3 33.85 275.9 34.5 282.35 M1.45 109.8 L1.4 109.8 1.4 107.55 1.7 107.9 1.75 108.0 1.85 108.3 1.95 108.9 1.9 109.5 1.55 109.7 1.45 109.8 M26.2 37.15 L26.25 37.15 27.0 26.95 27.6 23.7 27.6 27.6 27.55 29.9 27.6 32.05 27.65 38.35 27.3 37.05 26.75 45.45 26.15 56.95 Q25.85 52.4 25.8 37.2 L26.2 37.15 M33.45 10.4 L34.0 5.1 Q34.25 1.65 35.05 0.75 L35.5 1.45 33.85 18.75 33.4 26.1 33.45 10.4 M27.5 31.85 L27.55 29.9 27.5 27.05 27.5 31.85 M21.85 138.25 Q19.05 146.15 16.4 159.65 14.35 169.95 13.8 178.3 L13.7 171.9 Q13.7 168.65 14.25 164.0 L14.75 158.0 14.4 155.2 13.95 152.85 13.65 151.75 13.75 151.8 15.45 152.7 Q16.35 152.7 17.0 151.85 17.65 150.95 17.65 149.75 L18.15 148.5 Q18.55 147.6 19.35 143.6 20.15 139.55 20.8 137.95 21.45 136.1 21.5 134.0 21.6 130.1 21.85 128.05 22.2 120.35 21.85 114.05 L22.05 102.05 22.05 101.2 22.1 102.0 22.8 120.05 Q22.9 125.65 21.85 138.25 M10.35 136.8 L10.4 147.05 10.15 151.9 Q9.6 150.65 9.15 150.65 L7.95 130.55 Q7.3 121.05 6.45 117.6 L7.25 118.9 9.85 123.8 Q10.55 125.15 10.55 126.45 L10.35 132.0 10.35 136.8 M1.1 85.95 L0.95 84.15 1.7 85.85 1.1 85.95 M15.85 241.45 Q15.45 237.8 15.25 227.1 L15.1 216.3 15.45 197.55 16.5 228.05 15.95 219.2 15.75 218.55 15.85 241.45 M27.2 77.55 Q27.9 70.95 27.9 64.9 L27.65 38.35 Q28.2 38.3 29.1 75.75 29.1 83.7 28.25 88.5 27.65 91.8 26.85 92.85 L26.6 92.45 26.5 90.25 Q26.5 84.15 27.2 77.55 M34.55 220.0 L34.5 223.8 Q33.3 226.85 32.0 249.5 30.8 269.6 27.55 271.25 L26.75 269.9 Q29.0 268.1 30.0 261.35 30.75 256.4 30.65 250.9 L31.95 209.2 Q31.95 208.2 34.85 179.85 L34.55 220.0 M48.75 230.05 Q49.1 225.6 47.85 216.6 L46.5 208.4 46.6 202.15 Q46.8 196.65 47.45 196.65 L48.1 196.85 48.2 194.4 Q48.2 180.7 47.4 165.2 L46.6 147.45 Q46.6 142.35 47.15 134.5 48.0 122.95 48.9 79.85 L47.2 80.05 45.05 80.4 44.8 76.85 Q44.8 74.75 45.6 72.6 46.4 70.45 46.4 69.1 L46.65 69.25 46.75 69.25 47.35 68.6 47.65 67.25 Q47.65 60.5 48.6 34.9 L48.75 63.9 48.45 68.4 47.9 74.0 48.3 73.8 49.1 72.1 Q49.65 70.85 49.85 70.75 L51.55 70.45 Q51.95 70.3 53.0 68.35 54.65 65.25 54.6 60.8 54.6 54.55 55.0 52.4 L55.05 52.95 Q55.45 67.9 56.25 73.2 57.4 81.3 60.45 81.3 L61.7 81.15 62.05 71.8 Q61.85 79.3 63.9 83.65 65.45 86.95 68.8 88.85 L68.0 88.65 Q66.35 88.7 64.9 86.9 L63.05 84.35 Q62.6 85.05 62.35 86.15 L61.7 88.05 Q61.25 85.2 59.35 84.2 L56.75 82.6 55.65 77.35 Q54.75 73.45 52.5 73.45 50.7 73.45 49.85 76.15 49.45 77.55 49.0 79.7 L49.0 76.75 48.9 79.85 49.0 79.7 51.2 145.05 Q51.8 163.65 51.75 193.15 L51.75 194.45 51.25 208.8 Q50.75 221.0 49.9 228.75 L49.5 233.15 49.2 234.95 48.75 230.05 M13.95 192.0 L13.95 191.9 14.05 192.55 13.95 192.0 M70.5 178.3 Q71.45 175.45 71.45 172.9 71.8 153.65 71.85 106.15 73.15 141.75 73.15 164.15 73.15 178.4 72.0 191.5 L70.8 202.5 70.7 201.6 Q69.55 190.65 69.55 185.2 69.55 181.15 70.5 178.3" fill="#625952" fill-rule="evenodd" stroke="none"/>
      <path d="M1.4 107.55 L1.15 87.75 1.1 85.95 1.7 85.85 Q2.25 86.5 2.5 88.3 L2.7 94.65 Q2.7 98.3 2.1 103.95 L2.0 103.85 1.7 107.9 1.4 107.55 M13.75 151.8 L11.35 138.75 10.9 139.65 10.35 136.8 10.35 132.0 11.35 138.75 12.25 134.6 Q15.75 127.3 16.75 108.3 L17.35 79.0 Q17.6 114.0 16.85 131.05 16.75 134.1 16.9 134.35 L18.1 135.85 Q19.05 135.1 19.9 133.45 L20.7 131.55 20.75 133.05 Q20.55 136.05 20.15 138.15 L18.4 147.7 17.65 149.75 16.75 151.1 15.45 152.7 13.75 151.8" fill="#625954" fill-rule="evenodd" stroke="none"/>
    </g>
  </defs>
</svg>
