<?xml version="1.0" encoding="UTF-8" standalone="no"?>
<svg xmlns:xlink="http://www.w3.org/1999/xlink" height="69.65px" width="62.65px" xmlns="http://www.w3.org/2000/svg">
  <g transform="matrix(1.0, 0.0, 0.0, 1.0, 0.0, 0.0)">
    <use height="53.65" transform="matrix(0.2982, 0.0, 0.0, 0.7237, 2.3517, 51.491)" width="182.6" xlink:href="#sprite0"/>
    <use height="53.65" transform="matrix(0.2078, 0.0, 0.0, -0.0621, 12.8695, 5.8105)" width="182.6" xlink:href="#sprite0"/>
    <use height="69.65" transform="matrix(1.0, 0.0, 0.0, 1.0, 0.0, 4.0)" width="62.65" xlink:href="#shape1"/>
    <use height="43.1" transform="matrix(1.0, 0.0, 0.0, 1.0, 9.15, 20.55)" width="47.3" xlink:href="#sprite1"/>
    <use height="7.8" transform="matrix(1.0, 0.0, 0.0, 1.0, 7.15, 17.4)" width="48.9" xlink:href="#sprite68"/>
    <use height="7.05" transform="matrix(1.0, 0.0, 0.0, 1.0, 8.0, 17.4)" width="48.0" xlink:href="#sprite69"/>
    <use height="56.65" transform="matrix(1.0, 0.0, 0.0, 1.0, 3.0, 14.4)" width="56.65" xlink:href="#shape14"/>
    <use height="0.0" id="price_tag_pt" transform="matrix(1.0, 0.0, 0.0, 1.0, 31.3, 84.8)" width="0.0" xlink:href="#sprite70"/>
  </g>
  <defs>
    <g id="sprite0" transform="matrix(1.0, 0.0, 0.0, 1.0, 9.05, 42.85)">
      <use height="53.65" transform="matrix(1.0, 0.0, 0.0, 1.0, -9.05, -42.85)" width="182.6" xlink:href="#shape0"/>
    </g>
    <g id="shape0" transform="matrix(1.0, 0.0, 0.0, 1.0, 9.05, 42.85)">
      <path d="M-9.0 -16.05 L15.7 -42.85 154.6 -42.85 173.5 -16.05 173.55 -16.0 Q82.25 -26.5 -9.0 -16.0 L-9.0 -16.05" fill="url(#gradient0)" fill-rule="evenodd" stroke="none"/>
      <path d="M-9.0 -16.05 L-9.0 -16.0 Q82.25 -26.5 173.55 -16.0 L173.5 -16.05 173.55 -16.05 173.55 -16.0 154.6 10.8 15.7 10.8 -9.0 -16.0 -9.05 -16.05 -9.0 -16.05" fill="url(#gradient1)" fill-rule="evenodd" stroke="none"/>
    </g>
    <linearGradient gradientTransform="matrix(0.0, 0.0255, -0.0519, 0.0, 82.2, -19.15)" gradientUnits="userSpaceOnUse" id="gradient0" spreadMethod="pad" x1="-819.2" x2="819.2">
      <stop offset="0.0" stop-color="#000000" stop-opacity="0.0"/>
      <stop offset="0.5333333333333333" stop-color="#000000" stop-opacity="0.44705883"/>
      <stop offset="0.7843137254901961" stop-color="#000000"/>
    </linearGradient>
    <linearGradient gradientTransform="matrix(0.0, -0.0255, -0.0519, 0.0, 81.8, -17.25)" gradientUnits="userSpaceOnUse" id="gradient1" spreadMethod="pad" x1="-819.2" x2="819.2">
      <stop offset="0.0" stop-color="#000000" stop-opacity="0.0"/>
      <stop offset="0.5333333333333333" stop-color="#000000" stop-opacity="0.44705883"/>
      <stop offset="0.7843137254901961" stop-color="#000000"/>
    </linearGradient>
    <g id="shape1" transform="matrix(1.0, 0.0, 0.0, 1.0, 0.0, -4.0)">
      <path d="M57.6 10.6 L60.65 14.45 2.4 14.2 6.25 10.2 Q10.5 6.05 12.8 5.25 15.85 4.15 31.7 4.0 48.05 3.85 51.2 5.25 53.95 6.45 57.6 10.6" fill="#486670" fill-rule="evenodd" stroke="none"/>
      <path d="M57.6 10.6 L60.65 14.45 2.4 14.2 6.25 10.2 Q10.5 6.05 12.8 5.25 15.85 4.15 31.7 4.0 48.05 3.85 51.2 5.25 53.95 6.45 57.6 10.6" fill="url(#gradient2)" fill-rule="evenodd" stroke="none"/>
      <path d="M31.55 11.15 L31.55 11.1 31.7 11.15 32.25 11.1 Q43.55 11.05 53.05 12.55 57.8 13.25 60.3 14.0 L61.5 22.75 Q62.65 33.55 62.65 43.75 62.65 53.95 61.5 63.9 L60.3 71.75 60.2 71.75 60.3 71.8 53.05 72.75 32.25 73.65 10.45 72.7 2.3 71.8 2.45 71.75 2.3 71.75 Q1.75 68.85 1.15 63.9 0.0 53.95 0.0 43.75 0.0 33.55 1.15 22.75 L2.3 14.0 10.25 12.6 Q20.45 11.2 31.55 11.15" fill="#33484f" fill-rule="evenodd" stroke="none"/>
      <path d="M31.55 11.15 L31.55 11.1 31.7 11.15 32.25 11.1 Q43.55 11.05 53.05 12.55 57.8 13.25 60.3 14.0 L61.5 22.75 Q62.65 33.55 62.65 43.75 62.65 53.95 61.5 63.9 L60.3 71.75 60.2 71.75 60.3 71.8 53.05 72.75 32.25 73.65 10.45 72.7 2.3 71.8 2.45 71.75 2.3 71.75 Q1.75 68.85 1.15 63.9 0.0 53.95 0.0 43.75 0.0 33.55 1.15 22.75 L2.3 14.0 10.25 12.6 Q20.45 11.2 31.55 11.15" fill="url(#gradient3)" fill-rule="evenodd" stroke="none"/>
      <path d="M33.2 16.9 L55.3 18.6 56.65 28.45 Q58.0 39.45 58.0 45.5 58.0 51.55 56.4 59.5 L54.75 66.25 30.65 65.9 Q25.1 65.8 15.7 66.0 L7.4 66.25 6.0 58.55 Q4.5 49.3 4.15 41.6 3.85 34.25 5.85 25.7 L7.9 18.6 33.2 16.9" fill="#0d1214" fill-rule="evenodd" stroke="none"/>
      <path d="M33.1 16.9 L54.1 18.55 55.4 28.25 Q56.65 39.1 56.65 45.0 56.65 50.9 55.1 58.7 L53.55 65.35 30.8 66.7 16.55 65.95 8.55 65.35 Q7.9 62.35 7.2 57.8 5.8 48.7 5.5 41.15 5.2 33.9 7.1 25.5 L9.05 18.55 33.1 16.9" fill="#212e33" fill-rule="evenodd" stroke="none"/>
      <path d="M32.55 19.15 Q40.15 19.3 46.0 20.8 52.2 22.4 53.6 24.8 55.35 27.9 55.6 41.85 55.8 56.5 53.25 59.5 49.95 63.4 44.05 64.8 39.8 65.8 31.95 65.8 23.55 65.8 19.25 64.7 13.7 63.25 10.3 59.2 6.75 55.0 6.75 41.85 6.7 29.1 9.55 25.2 14.15 18.75 32.55 19.15" fill="#caffff" fill-rule="evenodd" stroke="none"/>
      <path d="M32.9 14.6 Q41.3 14.8 47.8 16.55 54.7 18.45 56.2 21.3 58.15 24.95 58.4 41.55 58.7 58.95 55.85 62.5 52.15 67.15 45.6 68.8 40.9 70.0 32.2 70.0 22.9 70.0 18.1 68.7 11.95 67.0 8.15 62.15 4.25 57.15 4.2 41.55 4.2 26.45 7.3 21.8 9.85 18.0 17.4 16.1 24.1 14.4 32.9 14.6" fill="url(#gradient4)" fill-rule="evenodd" stroke="none"/>
      <path d="M32.35 21.8 Q39.25 21.95 44.55 23.3 50.15 24.7 51.4 26.8 53.05 29.5 53.25 41.85 53.45 54.75 51.15 57.4 48.15 60.85 42.8 62.1 L31.75 63.0 Q24.2 63.0 20.25 62.0 15.25 60.75 12.1 57.15 8.9 53.45 8.85 41.85 8.85 30.65 11.4 27.15 15.6 21.5 32.35 21.8" fill="#426e71" fill-rule="evenodd" stroke="none"/>
      <path d="M32.35 21.8 Q39.25 21.95 44.55 23.3 50.15 24.7 51.4 26.8 53.05 29.5 53.25 41.85 53.45 54.75 51.15 57.4 48.15 60.85 42.8 62.1 L31.75 63.0 Q24.2 63.0 20.25 62.0 15.25 60.75 12.1 57.15 8.9 53.45 8.85 41.85 8.85 30.65 11.4 27.15 15.6 21.5 32.35 21.8" fill="url(#gradient5)" fill-rule="evenodd" stroke="none"/>
      <path d="M33.9 11.1 Q45.6 11.3 54.15 12.65 58.4 13.35 60.3 14.0 L52.6 13.4 32.55 12.75 10.2 13.4 2.3 14.0 10.35 12.4 Q21.0 10.9 33.9 11.1" fill="#5d8491" fill-rule="evenodd" stroke="none"/>
    </g>
    <linearGradient gradientTransform="matrix(0.0379, 0.0, 0.0, -0.0379, 30.45, 9.25)" gradientUnits="userSpaceOnUse" id="gradient2" spreadMethod="pad" x1="-819.2" x2="819.2">
      <stop offset="0.054901960784313725" stop-color="#231f20" stop-opacity="0.0"/>
      <stop offset="0.07450980392156863" stop-color="#2e2d2e" stop-opacity="0.003921569"/>
      <stop offset="0.1450980392156863" stop-color="#576465" stop-opacity="0.02745098"/>
      <stop offset="0.21568627450980393" stop-color="#7a9494" stop-opacity="0.050980393"/>
      <stop offset="0.28627450980392155" stop-color="#97babb" stop-opacity="0.06666667"/>
      <stop offset="0.3568627450980392" stop-color="#add8d8" stop-opacity="0.08235294"/>
      <stop offset="0.4235294117647059" stop-color="#bdeeee" stop-opacity="0.09019608"/>
      <stop offset="0.49019607843137253" stop-color="#c7fbfb" stop-opacity="0.09803922"/>
      <stop offset="0.5529411764705883" stop-color="#caffff" stop-opacity="0.09803922"/>
      <stop offset="1.0" stop-color="#231f20" stop-opacity="0.0"/>
    </linearGradient>
    <linearGradient gradientTransform="matrix(0.0, -0.0394, -0.0394, 0.0, 31.3, 45.25)" gradientUnits="userSpaceOnUse" id="gradient3" spreadMethod="pad" x1="-819.2" x2="819.2">
      <stop offset="0.03137254901960784" stop-color="#231f20" stop-opacity="0.0"/>
      <stop offset="0.043137254901960784" stop-color="#272526" stop-opacity="0.0"/>
      <stop offset="0.13725490196078433" stop-color="#4d5858" stop-opacity="0.023529412"/>
      <stop offset="0.24313725490196078" stop-color="#6f8485" stop-opacity="0.043137256"/>
      <stop offset="0.34509803921568627" stop-color="#8baaab" stop-opacity="0.05882353"/>
      <stop offset="0.4549019607843137" stop-color="#a2c9c9" stop-opacity="0.07450981"/>
      <stop offset="0.5686274509803921" stop-color="#b4e1e1" stop-opacity="0.08627451"/>
      <stop offset="0.6862745098039216" stop-color="#c0f2f2" stop-opacity="0.09019608"/>
      <stop offset="0.8156862745098039" stop-color="#c8fcfc" stop-opacity="0.09803922"/>
      <stop offset="0.9803921568627451" stop-color="#caffff" stop-opacity="0.09803922"/>
    </linearGradient>
    <radialGradient cx="0" cy="0" gradientTransform="matrix(0.0334, 0.0, 0.0, -0.0426, 30.8, 42.3)" gradientUnits="userSpaceOnUse" id="gradient4" r="819.2" spreadMethod="pad">
      <stop offset="0.0" stop-color="#caffff" stop-opacity="0.84705883"/>
      <stop offset="0.4588235294117647" stop-color="#c8fcfc" stop-opacity="0.76862746"/>
      <stop offset="0.7372549019607844" stop-color="#c1f4f4" stop-opacity="0.5137255"/>
      <stop offset="0.9686274509803922" stop-color="#b6e6e6" stop-opacity="0.078431375"/>
      <stop offset="1.0" stop-color="#b4e3e3" stop-opacity="0.0"/>
    </radialGradient>
    <radialGradient cx="0" cy="0" gradientTransform="matrix(0.0315, 0.0, 0.0, -0.0388, 31.05, 42.4)" gradientUnits="userSpaceOnUse" id="gradient5" r="819.2" spreadMethod="pad">
      <stop offset="0.0" stop-color="#b4e3e3" stop-opacity="0.0"/>
      <stop offset="0.44313725490196076" stop-color="#b6e6e6" stop-opacity="0.078431375"/>
      <stop offset="0.7333333333333333" stop-color="#bdeeee" stop-opacity="0.34509805"/>
      <stop offset="0.9803921568627451" stop-color="#c9fdfd" stop-opacity="0.8"/>
      <stop offset="1.0" stop-color="#caffff" stop-opacity="0.84705883"/>
    </radialGradient>
    <g id="sprite1" transform="matrix(1.0, 0.0, 0.0, 1.0, 0.05, 0.0)">
      <clipPath id="clipPath0" transform="matrix(1.0, 0.0, 0.0, 1.0, 0.05, 0.0)">
        <use height="41.2" transform="matrix(1.0, 0.0, 0.0, 1.0, -0.05, 1.3)" width="44.4" xlink:href="#shape2"/>
      </clipPath>
      <g clip-path="url(#clipPath0)">
        <use height="4.95" transform="matrix(1.0, 0.0, 0.0, 1.0, 0.25, 4.3)" width="5.25" xlink:href="#sprite2"/>
        <use height="4.9" transform="matrix(1.0, 0.0, 0.0, 1.0, 4.5, 7.4)" width="5.2" xlink:href="#sprite3"/>
        <use height="4.95" transform="matrix(1.0, 0.0, 0.0, 1.0, 0.15, 10.15)" width="5.25" xlink:href="#sprite4"/>
        <use height="4.95" transform="matrix(1.0, 0.0, 0.0, 1.0, 4.6, 12.95)" width="5.25" xlink:href="#sprite5"/>
        <use height="4.9" transform="matrix(1.0, 0.0, 0.0, 1.0, 0.25, 15.9)" width="5.25" xlink:href="#sprite6"/>
        <use height="4.95" transform="matrix(1.0, 0.0, 0.0, 1.0, 4.7, 18.8)" width="5.25" xlink:href="#sprite7"/>
        <use height="4.9" transform="matrix(1.0, 0.0, 0.0, 1.0, 0.05, 21.75)" width="5.2" xlink:href="#sprite8"/>
        <use height="4.9" transform="matrix(1.0, 0.0, 0.0, 1.0, 4.7, 1.4)" width="5.25" xlink:href="#sprite9"/>
        <use height="4.9" transform="matrix(1.0, 0.0, 0.0, 1.0, 4.6, 24.55)" width="5.25" xlink:href="#sprite10"/>
        <use height="4.9" transform="matrix(1.0, 0.0, 0.0, 1.0, 4.6, 24.55)" width="5.25" xlink:href="#sprite11"/>
        <use height="4.9" transform="matrix(1.0, 0.0, 0.0, 1.0, 27.75, 5.85)" width="5.2" xlink:href="#sprite12"/>
        <use height="4.9" transform="matrix(1.0, 0.0, 0.0, 1.0, 27.6, 11.7)" width="5.25" xlink:href="#sprite13"/>
        <use height="4.95" transform="matrix(1.0, 0.0, 0.0, 1.0, 27.75, 17.4)" width="5.2" xlink:href="#sprite14"/>
        <use height="4.95" transform="matrix(1.0, 0.0, 0.0, 1.0, 27.5, 23.25)" width="5.25" xlink:href="#sprite15"/>
        <use height="4.9" transform="matrix(1.0, 0.0, 0.0, 1.0, 23.05, 19.95)" width="5.2" xlink:href="#sprite16"/>
        <use height="4.9" transform="matrix(1.0, 0.0, 0.0, 1.0, 22.9, 14.5)" width="5.25" xlink:href="#sprite17"/>
        <use height="4.95" transform="matrix(1.0, 0.0, 0.0, 1.0, 23.05, 8.5)" width="5.2" xlink:href="#sprite18"/>
        <use height="4.95" transform="matrix(1.0, 0.0, 0.0, 1.0, 23.05, 2.65)" width="5.2" xlink:href="#sprite19"/>
        <use height="4.9" transform="matrix(1.0, 0.0, 0.0, 1.0, 23.05, 25.8)" width="5.2" xlink:href="#sprite20"/>
        <use height="4.9" transform="matrix(1.0, 0.0, 0.0, 1.0, 14.0, 7.9)" width="5.25" xlink:href="#sprite21"/>
        <use height="4.9" transform="matrix(1.0, 0.0, 0.0, 1.0, 18.2, 10.95)" width="5.25" xlink:href="#sprite22"/>
        <use height="4.9" transform="matrix(1.0, 0.0, 0.0, 1.0, 13.9, 13.75)" width="5.2" xlink:href="#sprite23"/>
        <use height="4.9" transform="matrix(1.0, 0.0, 0.0, 1.0, 18.35, 16.55)" width="5.2" xlink:href="#sprite24"/>
        <use height="4.9" transform="matrix(1.0, 0.0, 0.0, 1.0, 14.0, 19.45)" width="5.25" xlink:href="#sprite25"/>
        <use height="4.9" transform="matrix(1.0, 0.0, 0.0, 1.0, 18.45, 22.4)" width="5.25" xlink:href="#sprite26"/>
        <use height="4.9" transform="matrix(1.0, 0.0, 0.0, 1.0, 13.75, 25.3)" width="5.25" xlink:href="#sprite27"/>
        <use height="4.9" transform="matrix(1.0, 0.0, 0.0, 1.0, 9.3, 22.0)" width="5.25" xlink:href="#sprite28"/>
        <use height="4.9" transform="matrix(1.0, 0.0, 0.0, 1.0, 9.2, 16.55)" width="5.2" xlink:href="#sprite29"/>
        <use height="4.9" transform="matrix(1.0, 0.0, 0.0, 1.0, 9.3, 10.55)" width="5.25" xlink:href="#sprite30"/>
        <use height="4.9" transform="matrix(1.0, 0.0, 0.0, 1.0, 9.3, 4.7)" width="5.25" xlink:href="#sprite31"/>
        <use height="4.9" transform="matrix(1.0, 0.0, 0.0, 1.0, 13.75, 2.15)" width="5.25" xlink:href="#sprite32"/>
        <use height="4.9" transform="matrix(1.0, 0.0, 0.0, 1.0, 18.45, 4.95)" width="5.25" xlink:href="#sprite33"/>
        <use height="4.9" transform="matrix(1.0, 0.0, 0.0, 1.0, 18.35, 28.1)" width="5.2" xlink:href="#sprite34"/>
        <use height="4.9" transform="matrix(1.0, 0.0, 0.0, 1.0, 0.0, 33.55)" width="5.2" xlink:href="#sprite35"/>
        <use height="4.95" transform="matrix(1.0, 0.0, 0.0, 1.0, 0.2, 27.55)" width="5.25" xlink:href="#sprite36"/>
        <use height="4.95" transform="matrix(1.0, 0.0, 0.0, 1.0, 23.25, 32.0)" width="5.2" xlink:href="#sprite37"/>
        <use height="4.95" transform="matrix(1.0, 0.0, 0.0, 1.0, 23.1, 37.85)" width="5.25" xlink:href="#sprite38"/>
        <use height="4.9" transform="matrix(1.0, 0.0, 0.0, 1.0, 32.75, 38.2)" width="5.2" xlink:href="#sprite39"/>
        <use height="4.9" transform="matrix(1.0, 0.0, 0.0, 1.0, 18.55, 34.7)" width="5.2" xlink:href="#sprite40"/>
        <use height="4.9" transform="matrix(1.0, 0.0, 0.0, 1.0, 27.7, 29.4)" width="5.25" xlink:href="#sprite41"/>
        <use height="4.9" transform="matrix(1.0, 0.0, 0.0, 1.0, 28.0, 35.5)" width="5.25" xlink:href="#sprite42"/>
        <use height="4.9" transform="matrix(1.0, 0.0, 0.0, 1.0, 9.5, 34.05)" width="5.25" xlink:href="#sprite43"/>
        <use height="4.9" transform="matrix(1.0, 0.0, 0.0, 1.0, 13.7, 37.1)" width="5.25" xlink:href="#sprite44"/>
        <use height="4.9" transform="matrix(1.0, 0.0, 0.0, 1.0, 4.8, 36.75)" width="5.25" xlink:href="#sprite45"/>
        <use height="4.9" transform="matrix(1.0, 0.0, 0.0, 1.0, 4.8, 30.9)" width="5.25" xlink:href="#sprite46"/>
        <use height="4.9" transform="matrix(1.0, 0.0, 0.0, 1.0, 9.25, 28.35)" width="5.25" xlink:href="#sprite47"/>
        <use height="4.9" transform="matrix(1.0, 0.0, 0.0, 1.0, 13.95, 31.15)" width="5.25" xlink:href="#sprite48"/>
        <use height="4.95" transform="matrix(1.0, 0.0, 0.0, 1.0, 37.5, 5.7)" width="5.25" xlink:href="#sprite49"/>
        <use height="4.95" transform="matrix(1.0, 0.0, 0.0, 1.0, 41.7, 8.75)" width="5.25" xlink:href="#sprite50"/>
        <use height="4.95" transform="matrix(1.0, 0.0, 0.0, 1.0, 37.4, 11.55)" width="5.2" xlink:href="#sprite51"/>
        <use height="4.9" transform="matrix(1.0, 0.0, 0.0, 1.0, 41.85, 14.35)" width="5.2" xlink:href="#sprite52"/>
        <use height="4.9" transform="matrix(1.0, 0.0, 0.0, 1.0, 37.5, 17.3)" width="5.25" xlink:href="#sprite53"/>
        <use height="4.9" transform="matrix(1.0, 0.0, 0.0, 1.0, 41.95, 20.2)" width="5.25" xlink:href="#sprite54"/>
        <use height="4.9" transform="matrix(1.0, 0.0, 0.0, 1.0, 37.25, 23.15)" width="5.25" xlink:href="#sprite55"/>
        <use height="4.9" transform="matrix(1.0, 0.0, 0.0, 1.0, 32.8, 19.85)" width="5.25" xlink:href="#sprite56"/>
        <use height="4.9" transform="matrix(1.0, 0.0, 0.0, 1.0, 32.7, 14.35)" width="5.2" xlink:href="#sprite57"/>
        <use height="4.9" transform="matrix(1.0, 0.0, 0.0, 1.0, 32.8, 8.4)" width="5.25" xlink:href="#sprite58"/>
        <use height="4.9" transform="matrix(1.0, 0.0, 0.0, 1.0, 32.8, 2.55)" width="5.25" xlink:href="#sprite59"/>
        <use height="4.9" transform="matrix(1.0, 0.0, 0.0, 1.0, 37.25, 0.0)" width="5.25" xlink:href="#sprite60"/>
        <use height="4.9" transform="matrix(1.0, 0.0, 0.0, 1.0, 41.95, 2.8)" width="5.25" xlink:href="#sprite61"/>
        <use height="4.9" transform="matrix(1.0, 0.0, 0.0, 1.0, 41.85, 25.95)" width="5.2" xlink:href="#sprite62"/>
        <use height="4.95" transform="matrix(1.0, 0.0, 0.0, 1.0, 42.05, 32.5)" width="5.2" xlink:href="#sprite63"/>
        <use height="4.9" transform="matrix(1.0, 0.0, 0.0, 1.0, 33.0, 31.9)" width="5.25" xlink:href="#sprite64"/>
        <use height="4.9" transform="matrix(1.0, 0.0, 0.0, 1.0, 37.2, 34.95)" width="5.25" xlink:href="#sprite65"/>
        <use height="4.95" transform="matrix(1.0, 0.0, 0.0, 1.0, 32.75, 26.15)" width="5.25" xlink:href="#sprite66"/>
        <use height="4.95" transform="matrix(1.0, 0.0, 0.0, 1.0, 37.45, 28.95)" width="5.25" xlink:href="#sprite67"/>
      </g>
    </g>
    <g id="shape2" transform="matrix(1.0, 0.0, 0.0, 1.0, 0.05, -1.3)">
      <path d="M42.5 6.3 Q44.15 9.0 44.35 21.35 44.55 34.25 42.25 36.9 39.25 40.35 33.9 41.6 L22.85 42.5 Q15.3 42.5 11.35 41.5 6.35 40.25 3.2 36.65 0.0 32.95 -0.05 21.35 -0.05 10.15 2.5 6.65 6.7 1.0 23.45 1.3 30.35 1.45 35.65 2.8 41.25 4.2 42.5 6.3" fill="#ff0000" fill-rule="evenodd" stroke="none"/>
    </g>
    <g id="sprite2" transform="matrix(1.0, 0.0, 0.0, 1.0, 0.0, 0.0)">
      <use height="4.95" transform="matrix(1.0, 0.0, 0.0, 1.0, 0.0, 0.0)" width="5.25" xlink:href="#shape3"/>
    </g>
    <g id="shape3" transform="matrix(1.0, 0.0, 0.0, 1.0, 0.0, 0.0)">
      <path d="M1.3 4.95 L0.0 2.5 1.3 0.0 3.95 0.0 5.25 2.5 3.95 4.95 1.3 4.95" fill="url(#gradient6)" fill-rule="evenodd" stroke="none"/>
    </g>
    <radialGradient cx="0" cy="0" gradientTransform="matrix(0.0028, 0.0, 0.0, -0.0031, 2.65, 2.5)" gradientUnits="userSpaceOnUse" id="gradient6" r="819.2" spreadMethod="pad">
      <stop offset="0.0" stop-color="#b4e3e3" stop-opacity="0.0"/>
      <stop offset="0.44313725490196076" stop-color="#b6e6e6" stop-opacity="0.078431375"/>
      <stop offset="0.7333333333333333" stop-color="#bdeeee" stop-opacity="0.34509805"/>
      <stop offset="0.9803921568627451" stop-color="#c9fdfd" stop-opacity="0.8"/>
      <stop offset="1.0" stop-color="#caffff" stop-opacity="0.84705883"/>
    </radialGradient>
    <g id="sprite3" transform="matrix(1.0, 0.0, 0.0, 1.0, 0.0, 0.0)">
      <use height="4.9" transform="matrix(1.0, 0.0, 0.0, 1.0, 0.0, 0.0)" width="5.2" xlink:href="#shape4"/>
    </g>
    <g id="shape4" transform="matrix(1.0, 0.0, 0.0, 1.0, 0.0, 0.0)">
      <path d="M1.3 4.9 L0.0 2.45 1.3 0.0 3.9 0.0 5.2 2.45 3.9 4.9 1.3 4.9" fill="url(#gradient7)" fill-rule="evenodd" stroke="none"/>
    </g>
    <radialGradient cx="0" cy="0" gradientTransform="matrix(0.0028, 0.0, 0.0, -0.0031, 2.6, 2.45)" gradientUnits="userSpaceOnUse" id="gradient7" r="819.2" spreadMethod="pad">
      <stop offset="0.0" stop-color="#b4e3e3" stop-opacity="0.0"/>
      <stop offset="0.44313725490196076" stop-color="#b6e6e6" stop-opacity="0.078431375"/>
      <stop offset="0.7333333333333333" stop-color="#bdeeee" stop-opacity="0.34509805"/>
      <stop offset="0.9803921568627451" stop-color="#c9fdfd" stop-opacity="0.8"/>
      <stop offset="1.0" stop-color="#caffff" stop-opacity="0.84705883"/>
    </radialGradient>
    <g id="sprite4" transform="matrix(1.0, 0.0, 0.0, 1.0, 0.0, 0.0)">
      <use height="4.95" transform="matrix(1.0, 0.0, 0.0, 1.0, 0.0, 0.0)" width="5.25" xlink:href="#shape5"/>
    </g>
    <g id="shape5" transform="matrix(1.0, 0.0, 0.0, 1.0, 0.0, 0.0)">
      <path d="M1.3 4.95 L0.0 2.5 1.3 0.0 3.9 0.0 5.25 2.5 3.9 4.95 1.3 4.95" fill="url(#gradient8)" fill-rule="evenodd" stroke="none"/>
    </g>
    <radialGradient cx="0" cy="0" gradientTransform="matrix(0.0028, 0.0, 0.0, -0.0031, 2.6, 2.5)" gradientUnits="userSpaceOnUse" id="gradient8" r="819.2" spreadMethod="pad">
      <stop offset="0.0" stop-color="#b4e3e3" stop-opacity="0.0"/>
      <stop offset="0.44313725490196076" stop-color="#b6e6e6" stop-opacity="0.078431375"/>
      <stop offset="0.7333333333333333" stop-color="#bdeeee" stop-opacity="0.34509805"/>
      <stop offset="0.9803921568627451" stop-color="#c9fdfd" stop-opacity="0.8"/>
      <stop offset="1.0" stop-color="#caffff" stop-opacity="0.84705883"/>
    </radialGradient>
    <g id="sprite5" transform="matrix(1.0, 0.0, 0.0, 1.0, 0.0, 0.0)">
      <use height="4.95" transform="matrix(1.0, 0.0, 0.0, 1.0, 0.0, 0.0)" width="5.25" xlink:href="#shape6"/>
    </g>
    <g id="shape6" transform="matrix(1.0, 0.0, 0.0, 1.0, 0.0, 0.0)">
      <path d="M1.3 4.95 L0.0 2.45 1.3 0.0 3.95 0.0 5.25 2.45 3.95 4.95 1.3 4.95" fill="url(#gradient9)" fill-rule="evenodd" stroke="none"/>
    </g>
    <radialGradient cx="0" cy="0" gradientTransform="matrix(0.0028, 0.0, 0.0, -0.0031, 2.6, 2.45)" gradientUnits="userSpaceOnUse" id="gradient9" r="819.2" spreadMethod="pad">
      <stop offset="0.0" stop-color="#b4e3e3" stop-opacity="0.0"/>
      <stop offset="0.44313725490196076" stop-color="#b6e6e6" stop-opacity="0.078431375"/>
      <stop offset="0.7333333333333333" stop-color="#bdeeee" stop-opacity="0.34509805"/>
      <stop offset="0.9803921568627451" stop-color="#c9fdfd" stop-opacity="0.8"/>
      <stop offset="1.0" stop-color="#caffff" stop-opacity="0.84705883"/>
    </radialGradient>
    <g id="sprite6" transform="matrix(1.0, 0.0, 0.0, 1.0, 0.0, 0.0)">
      <use height="4.9" transform="matrix(1.0, 0.0, 0.0, 1.0, 0.0, 0.0)" width="5.25" xlink:href="#shape7"/>
    </g>
    <g id="shape7" transform="matrix(1.0, 0.0, 0.0, 1.0, 0.0, 0.0)">
      <path d="M1.35 4.9 L0.0 2.45 1.35 0.0 3.95 0.0 5.25 2.45 3.95 4.9 1.35 4.9" fill="url(#gradient10)" fill-rule="evenodd" stroke="none"/>
    </g>
    <radialGradient cx="0" cy="0" gradientTransform="matrix(0.0028, 0.0, 0.0, -0.0031, 2.65, 2.45)" gradientUnits="userSpaceOnUse" id="gradient10" r="819.2" spreadMethod="pad">
      <stop offset="0.0" stop-color="#b4e3e3" stop-opacity="0.0"/>
      <stop offset="0.44313725490196076" stop-color="#b6e6e6" stop-opacity="0.078431375"/>
      <stop offset="0.7333333333333333" stop-color="#bdeeee" stop-opacity="0.34509805"/>
      <stop offset="0.9803921568627451" stop-color="#c9fdfd" stop-opacity="0.8"/>
      <stop offset="1.0" stop-color="#caffff" stop-opacity="0.84705883"/>
    </radialGradient>
    <g id="sprite7" transform="matrix(1.0, 0.0, 0.0, 1.0, 0.0, 0.0)">
      <use height="4.95" transform="matrix(1.0, 0.0, 0.0, 1.0, 0.0, 0.0)" width="5.25" xlink:href="#shape8"/>
    </g>
    <g id="shape8" transform="matrix(1.0, 0.0, 0.0, 1.0, 0.0, 0.0)">
      <path d="M1.3 4.95 L0.0 2.45 1.3 0.0 3.95 0.0 5.25 2.45 3.95 4.95 1.3 4.95" fill="url(#gradient11)" fill-rule="evenodd" stroke="none"/>
    </g>
    <radialGradient cx="0" cy="0" gradientTransform="matrix(0.0028, 0.0, 0.0, -0.0031, 2.65, 2.45)" gradientUnits="userSpaceOnUse" id="gradient11" r="819.2" spreadMethod="pad">
      <stop offset="0.0" stop-color="#b4e3e3" stop-opacity="0.0"/>
      <stop offset="0.44313725490196076" stop-color="#b6e6e6" stop-opacity="0.078431375"/>
      <stop offset="0.7333333333333333" stop-color="#bdeeee" stop-opacity="0.34509805"/>
      <stop offset="0.9803921568627451" stop-color="#c9fdfd" stop-opacity="0.8"/>
      <stop offset="1.0" stop-color="#caffff" stop-opacity="0.84705883"/>
    </radialGradient>
    <g id="sprite8" transform="matrix(1.0, 0.0, 0.0, 1.0, 0.0, 0.0)">
      <use height="4.9" transform="matrix(1.0, 0.0, 0.0, 1.0, 0.0, 0.0)" width="5.2" xlink:href="#shape4"/>
    </g>
    <g id="sprite9" transform="matrix(1.0, 0.0, 0.0, 1.0, 0.0, 0.0)">
      <use height="4.9" transform="matrix(1.0, 0.0, 0.0, 1.0, 0.0, 0.0)" width="5.25" xlink:href="#shape7"/>
    </g>
    <g id="sprite10" transform="matrix(1.0, 0.0, 0.0, 1.0, 0.0, 0.0)">
      <use height="4.9" transform="matrix(1.0, 0.0, 0.0, 1.0, 0.0, 0.0)" width="5.25" xlink:href="#shape9"/>
    </g>
    <g id="shape9" transform="matrix(1.0, 0.0, 0.0, 1.0, 0.0, 0.0)">
      <path d="M1.3 4.9 L0.0 2.45 1.3 0.0 3.9 0.0 5.25 2.45 3.9 4.9 1.3 4.9" fill="url(#gradient12)" fill-rule="evenodd" stroke="none"/>
    </g>
    <radialGradient cx="0" cy="0" gradientTransform="matrix(0.0028, 0.0, 0.0, -0.0031, 2.6, 2.45)" gradientUnits="userSpaceOnUse" id="gradient12" r="819.2" spreadMethod="pad">
      <stop offset="0.0" stop-color="#b4e3e3" stop-opacity="0.0"/>
      <stop offset="0.44313725490196076" stop-color="#b6e6e6" stop-opacity="0.078431375"/>
      <stop offset="0.7333333333333333" stop-color="#bdeeee" stop-opacity="0.34509805"/>
      <stop offset="0.9803921568627451" stop-color="#c9fdfd" stop-opacity="0.8"/>
      <stop offset="1.0" stop-color="#caffff" stop-opacity="0.84705883"/>
    </radialGradient>
    <g id="sprite11" transform="matrix(1.0, 0.0, 0.0, 1.0, 0.0, 0.0)">
      <use height="4.9" transform="matrix(1.0, 0.0, 0.0, 1.0, 0.0, 0.0)" width="5.25" xlink:href="#shape9"/>
    </g>
    <g id="sprite12" transform="matrix(1.0, 0.0, 0.0, 1.0, 0.0, 0.0)">
      <use height="4.9" transform="matrix(1.0, 0.0, 0.0, 1.0, 0.0, 0.0)" width="5.2" xlink:href="#shape4"/>
    </g>
    <g id="sprite13" transform="matrix(1.0, 0.0, 0.0, 1.0, 0.0, 0.0)">
      <use height="4.9" transform="matrix(1.0, 0.0, 0.0, 1.0, 0.0, 0.0)" width="5.25" xlink:href="#shape7"/>
    </g>
    <g id="sprite14" transform="matrix(1.0, 0.0, 0.0, 1.0, 0.0, 0.0)">
      <use height="4.95" transform="matrix(1.0, 0.0, 0.0, 1.0, 0.0, 0.0)" width="5.2" xlink:href="#shape10"/>
    </g>
    <g id="shape10" transform="matrix(1.0, 0.0, 0.0, 1.0, 0.0, 0.0)">
      <path d="M1.3 4.95 L0.0 2.45 1.3 0.0 3.9 0.0 5.2 2.45 3.9 4.95 1.3 4.95" fill="url(#gradient13)" fill-rule="evenodd" stroke="none"/>
    </g>
    <radialGradient cx="0" cy="0" gradientTransform="matrix(0.0028, 0.0, 0.0, -0.0031, 2.6, 2.45)" gradientUnits="userSpaceOnUse" id="gradient13" r="819.2" spreadMethod="pad">
      <stop offset="0.0" stop-color="#b4e3e3" stop-opacity="0.0"/>
      <stop offset="0.44313725490196076" stop-color="#b6e6e6" stop-opacity="0.078431375"/>
      <stop offset="0.7333333333333333" stop-color="#bdeeee" stop-opacity="0.34509805"/>
      <stop offset="0.9803921568627451" stop-color="#c9fdfd" stop-opacity="0.8"/>
      <stop offset="1.0" stop-color="#caffff" stop-opacity="0.84705883"/>
    </radialGradient>
    <g id="sprite15" transform="matrix(1.0, 0.0, 0.0, 1.0, 0.0, 0.0)">
      <use height="4.95" transform="matrix(1.0, 0.0, 0.0, 1.0, 0.0, 0.0)" width="5.25" xlink:href="#shape6"/>
    </g>
    <g id="sprite16" transform="matrix(1.0, 0.0, 0.0, 1.0, 0.0, 0.0)">
      <use height="4.9" transform="matrix(1.0, 0.0, 0.0, 1.0, 0.0, 0.0)" width="5.2" xlink:href="#shape4"/>
    </g>
    <g id="sprite17" transform="matrix(1.0, 0.0, 0.0, 1.0, 0.0, 0.0)">
      <use height="4.9" transform="matrix(1.0, 0.0, 0.0, 1.0, 0.0, 0.0)" width="5.25" xlink:href="#shape7"/>
    </g>
    <g id="sprite18" transform="matrix(1.0, 0.0, 0.0, 1.0, 0.0, 0.0)">
      <use height="4.95" transform="matrix(1.0, 0.0, 0.0, 1.0, 0.0, 0.0)" width="5.2" xlink:href="#shape10"/>
    </g>
    <g id="sprite19" transform="matrix(1.0, 0.0, 0.0, 1.0, 0.0, 0.0)">
      <use height="4.95" transform="matrix(1.0, 0.0, 0.0, 1.0, 0.0, 0.0)" width="5.2" xlink:href="#shape11"/>
    </g>
    <g id="shape11" transform="matrix(1.0, 0.0, 0.0, 1.0, 0.0, 0.0)">
      <path d="M1.3 4.95 L0.0 2.5 1.3 0.0 3.9 0.0 5.2 2.5 3.9 4.95 1.3 4.95" fill="url(#gradient14)" fill-rule="evenodd" stroke="none"/>
    </g>
    <radialGradient cx="0" cy="0" gradientTransform="matrix(0.0028, 0.0, 0.0, -0.0031, 2.6, 2.5)" gradientUnits="userSpaceOnUse" id="gradient14" r="819.2" spreadMethod="pad">
      <stop offset="0.0" stop-color="#b4e3e3" stop-opacity="0.0"/>
      <stop offset="0.44313725490196076" stop-color="#b6e6e6" stop-opacity="0.078431375"/>
      <stop offset="0.7333333333333333" stop-color="#bdeeee" stop-opacity="0.34509805"/>
      <stop offset="0.9803921568627451" stop-color="#c9fdfd" stop-opacity="0.8"/>
      <stop offset="1.0" stop-color="#caffff" stop-opacity="0.84705883"/>
    </radialGradient>
    <g id="sprite20" transform="matrix(1.0, 0.0, 0.0, 1.0, 0.0, 0.0)">
      <use height="4.9" transform="matrix(1.0, 0.0, 0.0, 1.0, 0.0, 0.0)" width="5.2" xlink:href="#shape4"/>
    </g>
    <g id="sprite21" transform="matrix(1.0, 0.0, 0.0, 1.0, 0.0, 0.0)">
      <use height="4.9" transform="matrix(1.0, 0.0, 0.0, 1.0, 0.0, 0.0)" width="5.25" xlink:href="#shape9"/>
    </g>
    <g id="sprite22" transform="matrix(1.0, 0.0, 0.0, 1.0, 0.0, 0.0)">
      <use height="4.9" transform="matrix(1.0, 0.0, 0.0, 1.0, 0.0, 0.0)" width="5.25" xlink:href="#shape7"/>
    </g>
    <g id="sprite23" transform="matrix(1.0, 0.0, 0.0, 1.0, 0.0, 0.0)">
      <use height="4.9" transform="matrix(1.0, 0.0, 0.0, 1.0, 0.0, 0.0)" width="5.2" xlink:href="#shape4"/>
    </g>
    <g id="sprite24" transform="matrix(1.0, 0.0, 0.0, 1.0, 0.0, 0.0)">
      <use height="4.9" transform="matrix(1.0, 0.0, 0.0, 1.0, 0.0, 0.0)" width="5.2" xlink:href="#shape4"/>
    </g>
    <g id="sprite25" transform="matrix(1.0, 0.0, 0.0, 1.0, 0.0, 0.0)">
      <use height="4.9" transform="matrix(1.0, 0.0, 0.0, 1.0, 0.0, 0.0)" width="5.25" xlink:href="#shape9"/>
    </g>
    <g id="sprite26" transform="matrix(1.0, 0.0, 0.0, 1.0, 0.0, 0.0)">
      <use height="4.9" transform="matrix(1.0, 0.0, 0.0, 1.0, 0.0, 0.0)" width="5.25" xlink:href="#shape9"/>
    </g>
    <g id="sprite27" transform="matrix(1.0, 0.0, 0.0, 1.0, 0.0, 0.0)">
      <use height="4.9" transform="matrix(1.0, 0.0, 0.0, 1.0, 0.0, 0.0)" width="5.25" xlink:href="#shape7"/>
    </g>
    <g id="sprite28" transform="matrix(1.0, 0.0, 0.0, 1.0, 0.0, 0.0)">
      <use height="4.9" transform="matrix(1.0, 0.0, 0.0, 1.0, 0.0, 0.0)" width="5.25" xlink:href="#shape9"/>
    </g>
    <g id="sprite29" transform="matrix(1.0, 0.0, 0.0, 1.0, 0.0, 0.0)">
      <use height="4.9" transform="matrix(1.0, 0.0, 0.0, 1.0, 0.0, 0.0)" width="5.2" xlink:href="#shape4"/>
    </g>
    <g id="sprite30" transform="matrix(1.0, 0.0, 0.0, 1.0, 0.0, 0.0)">
      <use height="4.9" transform="matrix(1.0, 0.0, 0.0, 1.0, 0.0, 0.0)" width="5.25" xlink:href="#shape9"/>
    </g>
    <g id="sprite31" transform="matrix(1.0, 0.0, 0.0, 1.0, 0.0, 0.0)">
      <use height="4.9" transform="matrix(1.0, 0.0, 0.0, 1.0, 0.0, 0.0)" width="5.25" xlink:href="#shape9"/>
    </g>
    <g id="sprite32" transform="matrix(1.0, 0.0, 0.0, 1.0, 0.0, 0.0)">
      <use height="4.9" transform="matrix(1.0, 0.0, 0.0, 1.0, 0.0, 0.0)" width="5.25" xlink:href="#shape7"/>
    </g>
    <g id="sprite33" transform="matrix(1.0, 0.0, 0.0, 1.0, 0.0, 0.0)">
      <use height="4.9" transform="matrix(1.0, 0.0, 0.0, 1.0, 0.0, 0.0)" width="5.25" xlink:href="#shape9"/>
    </g>
    <g id="sprite34" transform="matrix(1.0, 0.0, 0.0, 1.0, 0.0, 0.0)">
      <use height="4.9" transform="matrix(1.0, 0.0, 0.0, 1.0, 0.0, 0.0)" width="5.2" xlink:href="#shape4"/>
    </g>
    <g id="sprite35" transform="matrix(1.0, 0.0, 0.0, 1.0, 0.0, 0.0)">
      <use height="4.9" transform="matrix(1.0, 0.0, 0.0, 1.0, 0.0, 0.0)" width="5.2" xlink:href="#shape4"/>
    </g>
    <g id="sprite36" transform="matrix(1.0, 0.0, 0.0, 1.0, 0.0, 0.0)">
      <use height="4.95" transform="matrix(1.0, 0.0, 0.0, 1.0, 0.0, 0.0)" width="5.25" xlink:href="#shape3"/>
    </g>
    <g id="sprite37" transform="matrix(1.0, 0.0, 0.0, 1.0, 0.0, 0.0)">
      <use height="4.95" transform="matrix(1.0, 0.0, 0.0, 1.0, 0.0, 0.0)" width="5.2" xlink:href="#shape11"/>
    </g>
    <g id="sprite38" transform="matrix(1.0, 0.0, 0.0, 1.0, 0.0, 0.0)">
      <use height="4.95" transform="matrix(1.0, 0.0, 0.0, 1.0, 0.0, 0.0)" width="5.25" xlink:href="#shape3"/>
    </g>
    <g id="sprite39" transform="matrix(1.0, 0.0, 0.0, 1.0, 0.0, 0.0)">
      <use height="4.9" transform="matrix(1.0, 0.0, 0.0, 1.0, 0.0, 0.0)" width="5.2" xlink:href="#shape4"/>
    </g>
    <g id="sprite40" transform="matrix(1.0, 0.0, 0.0, 1.0, 0.0, 0.0)">
      <use height="4.9" transform="matrix(1.0, 0.0, 0.0, 1.0, 0.0, 0.0)" width="5.2" xlink:href="#shape4"/>
    </g>
    <g id="sprite41" transform="matrix(1.0, 0.0, 0.0, 1.0, 0.0, 0.0)">
      <use height="4.9" transform="matrix(1.0, 0.0, 0.0, 1.0, 0.0, 0.0)" width="5.25" xlink:href="#shape9"/>
    </g>
    <g id="sprite42" transform="matrix(1.0, 0.0, 0.0, 1.0, 0.0, 0.0)">
      <use height="4.9" transform="matrix(1.0, 0.0, 0.0, 1.0, 0.0, 0.0)" width="5.25" xlink:href="#shape9"/>
    </g>
    <g id="sprite43" transform="matrix(1.0, 0.0, 0.0, 1.0, 0.0, 0.0)">
      <use height="4.9" transform="matrix(1.0, 0.0, 0.0, 1.0, 0.0, 0.0)" width="5.25" xlink:href="#shape9"/>
    </g>
    <g id="sprite44" transform="matrix(1.0, 0.0, 0.0, 1.0, 0.0, 0.0)">
      <use height="4.9" transform="matrix(1.0, 0.0, 0.0, 1.0, 0.0, 0.0)" width="5.25" xlink:href="#shape7"/>
    </g>
    <g id="sprite45" transform="matrix(1.0, 0.0, 0.0, 1.0, 0.0, 0.0)">
      <use height="4.9" transform="matrix(1.0, 0.0, 0.0, 1.0, 0.0, 0.0)" width="5.25" xlink:href="#shape9"/>
    </g>
    <g id="sprite46" transform="matrix(1.0, 0.0, 0.0, 1.0, 0.0, 0.0)">
      <use height="4.9" transform="matrix(1.0, 0.0, 0.0, 1.0, 0.0, 0.0)" width="5.25" xlink:href="#shape9"/>
    </g>
    <g id="sprite47" transform="matrix(1.0, 0.0, 0.0, 1.0, 0.0, 0.0)">
      <use height="4.9" transform="matrix(1.0, 0.0, 0.0, 1.0, 0.0, 0.0)" width="5.25" xlink:href="#shape7"/>
    </g>
    <g id="sprite48" transform="matrix(1.0, 0.0, 0.0, 1.0, 0.0, 0.0)">
      <use height="4.9" transform="matrix(1.0, 0.0, 0.0, 1.0, 0.0, 0.0)" width="5.25" xlink:href="#shape9"/>
    </g>
    <g id="sprite49" transform="matrix(1.0, 0.0, 0.0, 1.0, 0.0, 0.0)">
      <use height="4.95" transform="matrix(1.0, 0.0, 0.0, 1.0, 0.0, 0.0)" width="5.25" xlink:href="#shape6"/>
    </g>
    <g id="sprite50" transform="matrix(1.0, 0.0, 0.0, 1.0, 0.0, 0.0)">
      <use height="4.95" transform="matrix(1.0, 0.0, 0.0, 1.0, 0.0, 0.0)" width="5.25" xlink:href="#shape8"/>
    </g>
    <g id="sprite51" transform="matrix(1.0, 0.0, 0.0, 1.0, 0.0, 0.0)">
      <use height="4.95" transform="matrix(1.0, 0.0, 0.0, 1.0, 0.0, 0.0)" width="5.2" xlink:href="#shape10"/>
    </g>
    <g id="sprite52" transform="matrix(1.0, 0.0, 0.0, 1.0, 0.0, 0.0)">
      <use height="4.9" transform="matrix(1.0, 0.0, 0.0, 1.0, 0.0, 0.0)" width="5.2" xlink:href="#shape4"/>
    </g>
    <g id="sprite53" transform="matrix(1.0, 0.0, 0.0, 1.0, 0.0, 0.0)">
      <use height="4.9" transform="matrix(1.0, 0.0, 0.0, 1.0, 0.0, 0.0)" width="5.25" xlink:href="#shape9"/>
    </g>
    <g id="sprite54" transform="matrix(1.0, 0.0, 0.0, 1.0, 0.0, 0.0)">
      <use height="4.9" transform="matrix(1.0, 0.0, 0.0, 1.0, 0.0, 0.0)" width="5.25" xlink:href="#shape9"/>
    </g>
    <g id="sprite55" transform="matrix(1.0, 0.0, 0.0, 1.0, 0.0, 0.0)">
      <use height="4.9" transform="matrix(1.0, 0.0, 0.0, 1.0, 0.0, 0.0)" width="5.25" xlink:href="#shape7"/>
    </g>
    <g id="sprite56" transform="matrix(1.0, 0.0, 0.0, 1.0, 0.0, 0.0)">
      <use height="4.9" transform="matrix(1.0, 0.0, 0.0, 1.0, 0.0, 0.0)" width="5.25" xlink:href="#shape9"/>
    </g>
    <g id="sprite57" transform="matrix(1.0, 0.0, 0.0, 1.0, 0.0, 0.0)">
      <use height="4.9" transform="matrix(1.0, 0.0, 0.0, 1.0, 0.0, 0.0)" width="5.2" xlink:href="#shape4"/>
    </g>
    <g id="sprite58" transform="matrix(1.0, 0.0, 0.0, 1.0, 0.0, 0.0)">
      <use height="4.9" transform="matrix(1.0, 0.0, 0.0, 1.0, 0.0, 0.0)" width="5.25" xlink:href="#shape9"/>
    </g>
    <g id="sprite59" transform="matrix(1.0, 0.0, 0.0, 1.0, 0.0, 0.0)">
      <use height="4.9" transform="matrix(1.0, 0.0, 0.0, 1.0, 0.0, 0.0)" width="5.25" xlink:href="#shape9"/>
    </g>
    <g id="sprite60" transform="matrix(1.0, 0.0, 0.0, 1.0, 0.0, 0.0)">
      <use height="4.9" transform="matrix(1.0, 0.0, 0.0, 1.0, 0.0, 0.0)" width="5.25" xlink:href="#shape7"/>
    </g>
    <g id="sprite61" transform="matrix(1.0, 0.0, 0.0, 1.0, 0.0, 0.0)">
      <use height="4.9" transform="matrix(1.0, 0.0, 0.0, 1.0, 0.0, 0.0)" width="5.25" xlink:href="#shape9"/>
    </g>
    <g id="sprite62" transform="matrix(1.0, 0.0, 0.0, 1.0, 0.0, 0.0)">
      <use height="4.9" transform="matrix(1.0, 0.0, 0.0, 1.0, 0.0, 0.0)" width="5.2" xlink:href="#shape4"/>
    </g>
    <g id="sprite63" transform="matrix(1.0, 0.0, 0.0, 1.0, 0.0, 0.0)">
      <use height="4.95" transform="matrix(1.0, 0.0, 0.0, 1.0, 0.0, 0.0)" width="5.2" xlink:href="#shape11"/>
    </g>
    <g id="sprite64" transform="matrix(1.0, 0.0, 0.0, 1.0, 0.0, 0.0)">
      <use height="4.9" transform="matrix(1.0, 0.0, 0.0, 1.0, 0.0, 0.0)" width="5.25" xlink:href="#shape9"/>
    </g>
    <g id="sprite65" transform="matrix(1.0, 0.0, 0.0, 1.0, 0.0, 0.0)">
      <use height="4.9" transform="matrix(1.0, 0.0, 0.0, 1.0, 0.0, 0.0)" width="5.25" xlink:href="#shape7"/>
    </g>
    <g id="sprite66" transform="matrix(1.0, 0.0, 0.0, 1.0, 0.0, 0.0)">
      <use height="4.95" transform="matrix(1.0, 0.0, 0.0, 1.0, 0.0, 0.0)" width="5.25" xlink:href="#shape8"/>
    </g>
    <g id="sprite67" transform="matrix(1.0, 0.0, 0.0, 1.0, 0.0, 0.0)">
      <use height="4.95" transform="matrix(1.0, 0.0, 0.0, 1.0, 0.0, 0.0)" width="5.25" xlink:href="#shape6"/>
    </g>
    <g id="sprite68" transform="matrix(1.0, 0.0, 0.0, 1.0, 0.0, 0.0)">
      <use height="7.8" transform="matrix(1.0, 0.0, 0.0, 1.0, 0.0, 0.0)" width="48.9" xlink:href="#shape12"/>
    </g>
    <g id="shape12" transform="matrix(1.0, 0.0, 0.0, 1.0, 0.0, 0.0)">
      <path d="M48.9 0.8 L48.0 3.6 42.65 2.55 38.15 7.6 10.5 7.8 7.15 3.25 0.0 3.25 0.9 1.35 Q10.65 0.0 23.0 0.0 L48.9 0.8" fill="#0d1214" fill-rule="evenodd" stroke="none"/>
    </g>
    <g id="sprite69" transform="matrix(1.0, 0.0, 0.0, 1.0, 0.0, 0.0)">
      <use height="7.05" transform="matrix(1.0, 0.0, 0.0, 1.0, 0.0, 0.0)" width="48.0" xlink:href="#shape13"/>
    </g>
    <g id="shape13" transform="matrix(1.0, 0.0, 0.0, 1.0, 0.0, 0.0)">
      <path d="M48.0 0.8 L47.25 2.35 41.4 1.8 36.9 6.7 10.4 7.05 6.75 2.0 0.25 2.35 0.0 1.35 Q9.75 0.0 22.1 0.0 L48.0 0.8" fill="#0d1214" fill-rule="evenodd" stroke="none"/>
    </g>
    <g id="shape14" transform="matrix(1.0, 0.0, 0.0, 1.0, -3.0, -14.4)">
      <path d="M52.65 70.35 L12.0 71.05 18.65 61.65 44.65 61.65 52.65 70.35" fill="#33484f" fill-rule="evenodd" stroke="none"/>
      <path d="M52.15 14.4 L44.15 23.05 18.15 23.05 12.5 14.4 52.15 14.4" fill="#33484f" fill-rule="evenodd" stroke="none"/>
      <path d="M52.15 14.4 L44.15 23.05 18.15 23.05 12.5 14.4 52.15 14.4" fill="url(#gradient15)" fill-rule="evenodd" stroke="none"/>
      <path d="M59.2 68.2 Q59.2 69.15 58.6 69.85 58.05 70.5 57.2 70.5 56.4 70.5 55.8 69.85 55.25 69.2 55.25 68.2 55.25 67.2 55.8 66.55 56.4 65.85 57.2 65.85 58.05 65.85 58.6 66.55 59.2 67.25 59.2 68.2" fill="#4a6973" fill-rule="evenodd" stroke="none"/>
      <path d="M59.2 68.0 Q59.2 68.85 58.65 69.5 58.1 70.1 57.35 70.1 56.55 70.1 56.0 69.5 55.45 68.85 55.45 68.0 55.45 67.1 56.0 66.5 56.55 65.85 57.35 65.85 58.1 65.85 58.65 66.5 59.2 67.1 59.2 68.0" fill="#141e20" fill-rule="evenodd" stroke="none"/>
      <path d="M58.55 68.4 Q58.55 69.1 58.15 69.6 57.7 70.1 57.1 70.1 56.5 70.1 56.1 69.6 55.65 69.1 55.65 68.4 55.65 67.7 56.1 67.2 56.5 66.7 57.1 66.7 57.7 66.7 58.15 67.2 58.55 67.7 58.55 68.4" fill="#182528" fill-rule="evenodd" stroke="none"/>
      <path d="M58.1 68.75 L57.8 69.7 Q57.45 70.1 57.0 70.1 L56.25 69.7 Q55.9 69.3 55.9 68.75 55.9 68.2 56.25 67.85 56.55 67.45 57.0 67.45 57.45 67.45 57.8 67.85 L58.1 68.75" fill="#23353a" fill-rule="evenodd" stroke="none"/>
      <path d="M57.8 68.9 L57.5 69.6 56.85 69.85 Q55.9 69.85 55.9 68.9 55.9 67.95 56.85 67.95 57.25 67.95 57.5 68.2 L57.8 68.9" fill="#2e4147" fill-rule="evenodd" stroke="none"/>
      <path d="M59.65 18.25 Q59.65 19.25 59.1 19.9 58.55 20.55 57.7 20.55 56.85 20.55 56.3 19.9 55.7 19.2 55.7 18.25 55.7 17.3 56.3 16.6 56.9 15.9 57.7 15.9 58.5 15.9 59.1 16.6 59.65 17.25 59.65 18.25" fill="#527580" fill-rule="evenodd" stroke="none"/>
      <path d="M59.65 18.05 Q59.65 18.9 59.1 19.55 58.6 20.15 57.8 20.15 57.0 20.15 56.45 19.55 55.9 18.9 55.9 18.05 55.9 17.15 56.45 16.55 57.0 15.9 57.8 15.9 58.6 15.9 59.1 16.55 59.65 17.15 59.65 18.05" fill="#1c2a2d" fill-rule="evenodd" stroke="none"/>
      <path d="M59.05 18.45 Q59.05 19.15 58.65 19.65 58.2 20.15 57.6 20.15 57.0 20.15 56.6 19.65 56.15 19.15 56.15 18.45 56.15 17.75 56.6 17.25 57.0 16.75 57.6 16.75 58.2 16.75 58.65 17.25 59.05 17.75 59.05 18.45" fill="#203135" fill-rule="evenodd" stroke="none"/>
      <path d="M58.55 18.8 L58.25 19.75 Q57.9 20.15 57.45 20.15 L56.7 19.75 Q56.35 19.35 56.35 18.8 56.35 18.25 56.7 17.9 57.0 17.5 57.45 17.5 57.9 17.5 58.25 17.9 L58.55 18.8" fill="#2b4147" fill-rule="evenodd" stroke="none"/>
      <path d="M58.25 18.95 Q58.25 19.9 57.3 19.9 56.9 19.9 56.65 19.65 56.35 19.35 56.35 18.95 56.35 18.55 56.65 18.25 56.9 18.0 57.3 18.0 58.25 18.0 58.25 18.95" fill="#364d54" fill-rule="evenodd" stroke="none"/>
      <path d="M44.65 61.65 L48.65 64.8 53.8 64.9 54.8 66.35 47.9 66.2 44.4 62.95 19.65 62.95 14.65 66.7 7.3 66.7 8.15 65.45 14.4 65.65 18.65 61.65 44.65 61.65" fill="#6d8e93" fill-rule="evenodd" stroke="none"/>
      <path d="M6.95 68.75 Q6.95 69.7 6.4 70.35 5.8 71.05 5.0 71.05 4.2 71.05 3.6 70.35 3.0 69.7 3.0 68.75 3.0 67.8 3.6 67.1 4.2 66.4 5.0 66.4 5.8 66.4 6.4 67.1 6.95 67.75 6.95 68.75" fill="#4a6973" fill-rule="evenodd" stroke="none"/>
      <path d="M6.95 68.5 Q6.95 69.4 6.4 70.05 5.9 70.65 5.1 70.65 4.3 70.65 3.75 70.05 3.2 69.4 3.2 68.5 3.2 67.65 3.75 67.0 4.3 66.4 5.1 66.4 5.9 66.4 6.4 67.0 6.95 67.65 6.95 68.5" fill="#141e20" fill-rule="evenodd" stroke="none"/>
      <path d="M6.35 68.95 Q6.35 69.65 5.95 70.15 5.5 70.65 4.9 70.65 4.3 70.65 3.9 70.15 3.45 69.65 3.45 68.95 3.45 68.25 3.9 67.75 4.3 67.25 4.9 67.25 5.5 67.25 5.95 67.75 6.35 68.25 6.35 68.95" fill="#182528" fill-rule="evenodd" stroke="none"/>
      <path d="M5.85 69.3 L5.55 70.25 Q5.2 70.65 4.75 70.65 4.3 70.65 4.0 70.25 3.65 69.85 3.65 69.3 3.65 68.75 4.0 68.4 4.3 68.0 4.75 68.0 5.2 68.0 5.55 68.4 L5.85 69.3" fill="#23353a" fill-rule="evenodd" stroke="none"/>
      <path d="M5.55 69.45 L5.3 70.1 Q5.0 70.4 4.6 70.4 L3.95 70.1 Q3.65 69.85 3.65 69.45 3.65 69.05 3.95 68.75 L4.6 68.5 Q5.55 68.5 5.55 69.45" fill="#2e4147" fill-rule="evenodd" stroke="none"/>
      <path d="M7.0 17.9 Q7.0 18.85 6.4 19.5 5.8 20.2 5.0 20.2 4.2 20.2 3.6 19.5 3.05 18.85 3.05 17.9 3.05 16.9 3.6 16.25 4.2 15.55 5.0 15.55 5.85 15.55 6.4 16.25 7.0 16.95 7.0 17.9" fill="#527580" fill-rule="evenodd" stroke="none"/>
      <path d="M7.0 17.65 Q7.0 18.55 6.45 19.2 5.9 19.8 5.15 19.8 4.35 19.8 3.8 19.2 3.25 18.55 3.25 17.65 3.25 16.8 3.8 16.15 4.35 15.55 5.15 15.55 5.9 15.55 6.45 16.15 7.0 16.8 7.0 17.65" fill="#1c2a2d" fill-rule="evenodd" stroke="none"/>
      <path d="M6.35 18.1 Q6.35 18.8 5.95 19.3 5.5 19.8 4.9 19.8 4.3 19.8 3.9 19.3 3.45 18.8 3.45 18.1 3.45 17.4 3.9 16.85 4.3 16.35 4.9 16.35 5.5 16.35 5.95 16.85 6.35 17.4 6.35 18.1" fill="#203135" fill-rule="evenodd" stroke="none"/>
      <path d="M5.9 18.45 L5.6 19.4 Q5.25 19.8 4.8 19.8 4.35 19.8 4.05 19.4 3.7 19.0 3.7 18.45 3.7 17.9 4.05 17.5 4.35 17.15 4.8 17.15 5.25 17.15 5.6 17.5 L5.9 18.45" fill="#2b4147" fill-rule="evenodd" stroke="none"/>
      <path d="M5.6 18.6 L5.3 19.25 4.65 19.55 3.95 19.25 3.7 18.6 Q3.7 18.2 3.95 17.9 4.25 17.6 4.65 17.6 5.05 17.6 5.3 17.9 L5.6 18.6" fill="#364d54" fill-rule="evenodd" stroke="none"/>
    </g>
    <linearGradient gradientTransform="matrix(0.0, -0.0216, -0.0216, 0.0, 32.3, 26.8)" gradientUnits="userSpaceOnUse" id="gradient15" spreadMethod="pad" x1="-819.2" x2="819.2">
      <stop offset="0.03137254901960784" stop-color="#231f20" stop-opacity="0.0"/>
      <stop offset="0.043137254901960784" stop-color="#272526" stop-opacity="0.0"/>
      <stop offset="0.13725490196078433" stop-color="#4d5858" stop-opacity="0.023529412"/>
      <stop offset="0.24313725490196078" stop-color="#6f8485" stop-opacity="0.043137256"/>
      <stop offset="0.34509803921568627" stop-color="#8baaab" stop-opacity="0.05882353"/>
      <stop offset="0.4549019607843137" stop-color="#a2c9c9" stop-opacity="0.07450981"/>
      <stop offset="0.5686274509803921" stop-color="#b4e1e1" stop-opacity="0.08627451"/>
      <stop offset="0.6862745098039216" stop-color="#c0f2f2" stop-opacity="0.09019608"/>
      <stop offset="0.8156862745098039" stop-color="#c8fcfc" stop-opacity="0.09803922"/>
      <stop offset="0.9803921568627451" stop-color="#caffff" stop-opacity="0.09803922"/>
    </linearGradient>
  </defs>
</svg>
