<?xml version="1.0" encoding="UTF-8" standalone="no"?>
<svg xmlns:xlink="http://www.w3.org/1999/xlink" height="333.4px" width="547.0px" xmlns="http://www.w3.org/2000/svg">
  <g transform="matrix(1.0, 0.0, 0.0, 1.0, 0.0, 0.0)">
    <use height="333.4" transform="matrix(1.0, 0.0, 0.0, 1.0, 0.0, 0.0)" width="547.0" xlink:href="#shape0"/>
  </g>
  <defs>
    <g id="shape0" transform="matrix(1.0, 0.0, 0.0, 1.0, 0.0, 0.0)">
      <path d="M339.8 71.9 L345.6 71.7 364.85 71.5 547.0 71.5 256.45 263.25 256.25 289.05 54.8 288.8 1.0 265.95 339.8 71.9" fill="url(#gradient0)" fill-rule="evenodd" stroke="none"/>
      <path d="M0.5 266.4 Q0.5 267.15 0.8 266.5 1.25 265.4 1.5 265.4 L256.45 268.15 256.5 332.9 2.0 333.4 Q1.65 333.4 0.8 331.55 L0.0 329.35 0.5 266.4" fill="#efecdb" fill-rule="evenodd" stroke="none"/>
      <path d="M256.5 266.9 L256.45 267.4 0.5 267.6 0.5 266.35 Q0.5 267.15 0.8 266.5 1.25 265.4 1.5 265.4 L256.5 266.9" fill="#ffffff" fill-rule="evenodd" stroke="none"/>
      <path d="M458.25 79.3 Q458.25 80.85 453.45 81.9 448.65 83.0 441.85 83.0 435.9 83.0 434.55 81.9 434.05 81.5 434.05 79.3 434.05 77.05 434.55 76.65 435.9 75.55 441.85 75.55 448.65 75.55 453.45 76.65 458.25 77.75 458.25 79.3" fill="url(#gradient1)" fill-rule="evenodd" stroke="none"/>
      <path d="M436.15 21.3 L436.15 31.7 Q436.15 32.4 435.45 32.4 L428.7 32.4 Q428.0 32.4 428.0 31.7 L428.0 21.3 Q428.0 20.55 428.7 20.55 L435.45 20.55 435.95 20.8 436.15 21.3" fill="url(#gradient2)" fill-rule="evenodd" stroke="none"/>
      <path d="M436.15 21.3 L436.15 31.7 Q436.15 32.4 435.45 32.4 L428.7 32.4 Q428.0 32.4 428.0 31.7 L428.0 21.3 Q428.0 20.55 428.7 20.55 L435.45 20.55 435.95 20.8 436.15 21.3" fill="url(#gradient3)" fill-rule="evenodd" stroke="none"/>
      <path d="M435.65 20.9 L428.9 20.9 Q428.25 20.9 428.25 21.65 L428.25 32.25 428.0 31.7 428.0 21.3 Q428.0 20.55 428.7 20.55 L435.45 20.55 Q435.9 20.55 436.1 21.1 L435.65 20.9" fill="#e3e1d2" fill-rule="evenodd" stroke="none"/>
      <path d="M435.95 20.85 L435.9 20.65 436.2 21.2 436.2 31.65 Q436.2 32.35 435.5 32.35 L428.75 32.35 Q428.25 32.35 428.1 31.85 L428.5 32.0 435.25 32.0 Q435.95 32.0 435.95 31.25 L435.95 20.85" fill="#a2a394" fill-rule="evenodd" stroke="none"/>
      <path d="M428.7 20.85 L435.5 20.9 430.3 21.05 428.7 20.85" fill="#fffeed" fill-rule="evenodd" stroke="none"/>
      <path d="M431.1 24.7 Q432.15 24.6 433.85 25.9 435.9 27.5 435.95 29.75 436.0 32.05 434.4 32.05 433.0 32.05 431.5 30.65 430.4 29.65 430.1 27.55 429.85 26.0 430.0 25.2 430.05 24.9 430.6 24.75 L431.1 24.7" fill="#959687" fill-rule="evenodd" stroke="none"/>
      <path d="M436.15 52.0 L436.15 62.4 Q436.15 63.1 435.45 63.1 L428.7 63.1 Q428.0 63.1 428.0 62.4 L428.0 52.0 Q428.0 51.25 428.7 51.25 L435.45 51.25 435.95 51.5 436.15 52.0" fill="url(#gradient4)" fill-rule="evenodd" stroke="none"/>
      <path d="M436.15 52.0 L436.15 62.4 Q436.15 63.1 435.45 63.1 L428.7 63.1 Q428.0 63.1 428.0 62.4 L428.0 52.0 Q428.0 51.25 428.7 51.25 L435.45 51.25 435.95 51.5 436.15 52.0" fill="url(#gradient5)" fill-rule="evenodd" stroke="none"/>
      <path d="M435.65 51.6 L428.9 51.6 Q428.25 51.6 428.25 52.35 L428.25 62.95 428.0 62.4 428.0 52.0 Q428.0 51.25 428.7 51.25 L435.45 51.25 Q435.9 51.25 436.1 51.8 L435.65 51.6" fill="#e3e1d2" fill-rule="evenodd" stroke="none"/>
      <path d="M435.95 51.55 L435.9 51.35 436.2 51.9 436.2 62.35 Q436.2 63.05 435.5 63.05 L428.75 63.05 Q428.25 63.05 428.1 62.55 L428.5 62.7 435.25 62.7 Q435.95 62.7 435.95 62.0 L435.95 51.55" fill="#a2a394" fill-rule="evenodd" stroke="none"/>
      <path d="M428.7 51.55 L435.5 51.6 430.3 51.75 428.7 51.55" fill="#fffeed" fill-rule="evenodd" stroke="none"/>
      <path d="M431.1 55.4 Q432.15 55.3 433.85 56.6 435.9 58.2 435.95 60.45 436.0 62.75 434.4 62.75 433.0 62.75 431.5 61.35 430.4 60.35 430.1 58.25 429.85 56.7 430.0 55.9 430.05 55.6 430.6 55.45 L431.1 55.4" fill="#959687" fill-rule="evenodd" stroke="none"/>
      <path d="M460.2 21.3 L460.2 31.7 Q460.2 32.4 459.5 32.4 L452.75 32.4 Q452.05 32.4 452.05 31.7 L452.05 21.3 452.25 20.8 452.75 20.55 459.5 20.55 Q460.2 20.55 460.2 21.3" fill="url(#gradient6)" fill-rule="evenodd" stroke="none"/>
      <path d="M460.2 21.3 L460.2 31.7 Q460.2 32.4 459.5 32.4 L452.75 32.4 Q452.05 32.4 452.05 31.7 L452.05 21.3 452.25 20.8 452.75 20.55 459.5 20.55 Q460.2 20.55 460.2 21.3" fill="url(#gradient7)" fill-rule="evenodd" stroke="none"/>
      <path d="M459.5 20.55 Q459.95 20.55 460.15 21.1 L459.75 20.9 453.0 20.9 Q452.3 20.9 452.3 21.65 L452.3 32.05 452.35 32.25 452.05 31.7 452.05 21.3 452.25 20.8 452.75 20.55 459.5 20.55" fill="#e3e1d2" fill-rule="evenodd" stroke="none"/>
      <path d="M460.0 20.65 L460.25 21.2 460.25 31.65 Q460.25 32.35 459.55 32.35 L452.8 32.35 Q452.3 32.35 452.15 31.85 L452.6 32.0 459.35 32.0 Q460.0 32.0 460.0 31.25 L460.0 20.65" fill="#a2a394" fill-rule="evenodd" stroke="none"/>
      <path d="M452.75 20.85 L459.55 20.9 454.35 21.05 452.75 20.85" fill="#fffeed" fill-rule="evenodd" stroke="none"/>
      <path d="M455.15 24.7 Q456.2 24.6 457.9 25.9 459.95 27.5 460.0 29.75 460.05 32.05 458.45 32.05 457.05 32.05 455.55 30.65 454.45 29.65 454.15 27.55 453.9 26.0 454.05 25.2 454.1 24.9 454.65 24.75 L455.15 24.7" fill="#959687" fill-rule="evenodd" stroke="none"/>
      <path d="M460.2 52.0 L460.2 62.4 Q460.2 63.1 459.5 63.1 L452.75 63.1 Q452.05 63.1 452.05 62.4 L452.05 52.0 452.25 51.5 452.75 51.25 459.5 51.25 Q460.2 51.25 460.2 52.0" fill="url(#gradient8)" fill-rule="evenodd" stroke="none"/>
      <path d="M460.2 52.0 L460.2 62.4 Q460.2 63.1 459.5 63.1 L452.75 63.1 Q452.05 63.1 452.05 62.4 L452.05 52.0 452.25 51.5 452.75 51.25 459.5 51.25 Q460.2 51.25 460.2 52.0" fill="url(#gradient9)" fill-rule="evenodd" stroke="none"/>
      <path d="M459.5 51.25 Q459.95 51.25 460.15 51.8 L459.75 51.6 453.0 51.6 Q452.3 51.6 452.3 52.35 L452.3 62.75 452.35 62.95 452.05 62.4 452.05 52.0 452.25 51.5 452.75 51.25 459.5 51.25" fill="#e3e1d2" fill-rule="evenodd" stroke="none"/>
      <path d="M460.0 51.35 L460.25 51.9 460.25 62.35 Q460.25 63.05 459.55 63.05 L452.8 63.05 Q452.3 63.05 452.15 62.55 L452.6 62.7 459.35 62.7 Q460.0 62.7 460.0 62.0 L460.0 51.35" fill="#a2a394" fill-rule="evenodd" stroke="none"/>
      <path d="M452.75 51.55 L459.55 51.6 454.35 51.75 452.75 51.55" fill="#fffeed" fill-rule="evenodd" stroke="none"/>
      <path d="M455.15 55.4 Q456.2 55.3 457.9 56.6 459.95 58.2 460.0 60.45 460.05 62.75 458.45 62.75 457.05 62.75 455.55 61.35 454.45 60.35 454.15 58.25 453.9 56.7 454.05 55.9 454.1 55.6 454.65 55.45 L455.15 55.4" fill="#959687" fill-rule="evenodd" stroke="none"/>
      <path d="M543.35 9.0 L543.35 74.75 449.35 74.75 449.35 9.85 450.35 9.0 543.35 9.0" fill="url(#gradient10)" fill-rule="evenodd" stroke="none"/>
      <path d="M450.15 8.9 L450.15 73.95 449.35 74.6 449.35 9.95 450.15 8.9" fill="url(#gradient11)" fill-rule="evenodd" stroke="none"/>
      <path d="M543.35 73.85 L543.35 74.75 449.35 74.75 450.35 73.85 543.35 73.85" fill="url(#gradient12)" fill-rule="evenodd" stroke="none"/>
      <path d="M543.35 9.0 L543.35 9.85 449.35 9.85 450.35 9.0 543.35 9.0" fill="url(#gradient13)" fill-rule="evenodd" stroke="none"/>
      <path d="M542.55 9.95 L543.35 9.1 543.35 74.75 542.55 74.75 542.55 9.95" fill="url(#gradient14)" fill-rule="evenodd" stroke="none"/>
      <path d="M342.55 9.85 L343.55 9.0 436.55 9.0 436.55 74.75 342.55 74.75 342.55 9.85" fill="url(#gradient15)" fill-rule="evenodd" stroke="none"/>
      <path d="M343.35 8.9 L343.35 73.95 342.55 74.6 342.55 9.95 343.35 8.9" fill="url(#gradient16)" fill-rule="evenodd" stroke="none"/>
      <path d="M342.55 74.75 L343.5 73.85 436.55 73.85 436.55 74.75 342.55 74.75" fill="url(#gradient17)" fill-rule="evenodd" stroke="none"/>
      <path d="M342.55 9.85 L343.5 9.0 436.55 9.0 436.55 9.85 342.55 9.85" fill="url(#gradient18)" fill-rule="evenodd" stroke="none"/>
      <path d="M435.75 9.95 L436.55 9.1 436.55 74.75 435.75 74.75 435.75 9.95" fill="url(#gradient19)" fill-rule="evenodd" stroke="none"/>
      <path d="M426.7 23.05 Q426.7 22.35 427.4 22.35 L434.2 22.35 Q434.9 22.35 434.9 23.05 L434.9 33.6 Q434.9 34.3 434.2 34.3 L427.4 34.3 Q426.7 34.3 426.7 33.6 L426.7 23.05" fill="url(#gradient20)" fill-rule="evenodd" stroke="none"/>
      <path d="M426.7 23.05 Q426.7 22.35 427.4 22.35 L434.2 22.35 Q434.9 22.35 434.9 23.05 L434.9 33.6 Q434.9 34.3 434.2 34.3 L427.4 34.3 Q426.7 34.3 426.7 33.6 L426.7 23.05" fill="url(#gradient21)" fill-rule="evenodd" stroke="none"/>
      <path d="M426.7 33.6 L426.7 23.05 Q426.7 22.35 427.4 22.35 L434.2 22.35 Q434.75 22.35 434.9 22.85 L434.45 22.7 427.65 22.7 Q426.95 22.7 426.95 23.45 L426.95 33.95 427.0 34.15 Q426.7 33.95 426.7 33.6" fill="#e3e1d2" fill-rule="evenodd" stroke="none"/>
      <path d="M434.75 22.65 L434.7 22.45 434.95 23.0 434.95 33.55 Q434.95 34.25 434.3 34.25 L427.45 34.25 Q426.95 34.25 426.8 33.75 L427.25 33.9 434.05 33.9 Q434.75 33.9 434.75 33.15 L434.75 22.65" fill="#a2a394" fill-rule="evenodd" stroke="none"/>
      <path d="M427.4 22.65 L434.3 22.7 429.05 22.85 427.4 22.65" fill="#fffeed" fill-rule="evenodd" stroke="none"/>
      <path d="M430.4 27.25 Q430.75 27.2 431.1 27.5 L433.1 29.2 Q434.35 30.15 432.9 30.9 L430.55 30.85 Q429.8 30.25 429.7 29.15 L429.8 27.9 430.1 27.45 430.4 27.25" fill="#959687" fill-rule="evenodd" stroke="none"/>
      <path d="M441.85 27.4 L441.85 30.05 430.95 29.85 Q430.4 29.85 430.0 29.45 429.6 29.05 429.6 28.5 429.6 27.95 430.0 27.6 430.4 27.2 430.95 27.2 L441.85 27.4" fill="url(#gradient22)" fill-rule="evenodd" stroke="none"/>
      <path d="M426.7 53.6 Q426.7 52.85 427.4 52.85 L434.2 52.85 Q434.9 52.85 434.9 53.6 L434.9 64.1 Q434.9 64.85 434.2 64.85 L427.4 64.85 Q426.7 64.85 426.7 64.1 L426.7 53.6" fill="url(#gradient23)" fill-rule="evenodd" stroke="none"/>
      <path d="M426.7 53.6 Q426.7 52.85 427.4 52.85 L434.2 52.85 Q434.9 52.85 434.9 53.6 L434.9 64.1 Q434.9 64.85 434.2 64.85 L427.4 64.85 Q426.7 64.85 426.7 64.1 L426.7 53.6" fill="url(#gradient24)" fill-rule="evenodd" stroke="none"/>
      <path d="M426.7 64.1 L426.7 53.6 Q426.7 52.85 427.4 52.85 L434.2 52.85 Q434.7 52.85 434.9 53.4 L434.45 53.2 427.65 53.2 Q426.95 53.2 426.95 53.95 L426.95 64.5 427.0 64.7 Q426.7 64.5 426.7 64.1" fill="#e3e1d2" fill-rule="evenodd" stroke="none"/>
      <path d="M434.75 53.15 L434.7 52.95 434.95 53.5 434.95 64.05 Q434.95 64.8 434.3 64.8 L427.45 64.8 Q427.0 64.8 426.8 64.25 L427.25 64.4 434.05 64.4 Q434.75 64.4 434.75 63.7 L434.75 53.15" fill="#a2a394" fill-rule="evenodd" stroke="none"/>
      <path d="M427.4 53.15 L434.3 53.2 429.05 53.35 427.4 53.15" fill="#fffeed" fill-rule="evenodd" stroke="none"/>
      <path d="M430.4 57.85 Q430.75 57.8 431.1 58.1 L433.1 59.8 Q434.35 60.75 432.9 61.5 L430.55 61.4 Q429.8 60.8 429.7 59.7 L429.8 58.5 430.1 58.05 430.4 57.85" fill="#959687" fill-rule="evenodd" stroke="none"/>
      <path d="M441.85 58.0 L441.85 60.65 430.95 60.45 Q430.4 60.45 430.0 60.05 429.6 59.65 429.6 59.1 429.6 58.55 430.0 58.15 430.4 57.75 430.95 57.75 L441.85 58.0" fill="url(#gradient25)" fill-rule="evenodd" stroke="none"/>
      <path d="M459.45 23.05 L459.45 33.6 Q459.45 34.3 458.8 34.3 L451.95 34.3 Q451.25 34.3 451.25 33.6 L451.25 23.05 451.45 22.55 Q451.7 22.35 451.95 22.35 L458.8 22.35 Q459.45 22.35 459.45 23.05" fill="url(#gradient26)" fill-rule="evenodd" stroke="none"/>
      <path d="M459.45 23.05 L459.45 33.6 Q459.45 34.3 458.8 34.3 L451.95 34.3 Q451.25 34.3 451.25 33.6 L451.25 23.05 451.45 22.55 Q451.7 22.35 451.95 22.35 L458.8 22.35 Q459.45 22.35 459.45 23.05" fill="url(#gradient27)" fill-rule="evenodd" stroke="none"/>
      <path d="M458.8 22.35 Q459.3 22.35 459.45 22.85 L459.0 22.7 452.2 22.7 Q451.5 22.7 451.5 23.45 L451.5 33.95 451.55 34.15 451.25 33.6 451.25 23.05 451.45 22.55 Q451.7 22.35 451.95 22.35 L458.8 22.35" fill="#e3e1d2" fill-rule="evenodd" stroke="none"/>
      <path d="M459.3 22.65 L459.25 22.45 459.55 23.0 459.55 33.55 Q459.55 34.25 458.85 34.25 L452.0 34.25 Q451.5 34.25 451.35 33.75 L451.8 33.9 458.6 33.9 Q459.3 33.9 459.3 33.15 L459.3 22.65" fill="#a2a394" fill-rule="evenodd" stroke="none"/>
      <path d="M451.95 22.65 L458.85 22.7 453.6 22.85 451.95 22.65" fill="#fffeed" fill-rule="evenodd" stroke="none"/>
      <path d="M455.1 27.25 L455.4 27.45 455.7 27.9 Q456.05 29.95 454.95 30.85 L452.6 30.9 Q451.15 30.15 452.4 29.2 L454.45 27.5 Q454.75 27.2 455.1 27.25" fill="#959687" fill-rule="evenodd" stroke="none"/>
      <path d="M443.6 27.4 L454.55 27.2 Q455.1 27.2 455.45 27.6 455.85 28.0 455.85 28.5 455.85 29.05 455.45 29.45 455.1 29.85 454.55 29.85 L443.6 30.05 443.6 27.4" fill="url(#gradient28)" fill-rule="evenodd" stroke="none"/>
      <path d="M459.45 53.6 L459.45 64.1 Q459.45 64.85 458.8 64.85 L451.95 64.85 Q451.7 64.85 451.45 64.65 L451.25 64.1 451.25 53.6 451.45 53.1 451.95 52.85 458.8 52.85 Q459.45 52.85 459.45 53.6" fill="url(#gradient29)" fill-rule="evenodd" stroke="none"/>
      <path d="M459.45 53.6 L459.45 64.1 Q459.45 64.85 458.8 64.85 L451.95 64.85 Q451.7 64.85 451.45 64.65 L451.25 64.1 451.25 53.6 451.45 53.1 451.95 52.85 458.8 52.85 Q459.45 52.85 459.45 53.6" fill="url(#gradient30)" fill-rule="evenodd" stroke="none"/>
      <path d="M458.8 52.85 Q459.25 52.85 459.45 53.4 L459.0 53.2 452.2 53.2 Q451.5 53.2 451.5 53.95 L451.5 64.5 451.55 64.7 Q451.25 64.4 451.25 64.1 L451.25 53.6 451.45 53.1 451.95 52.85 458.8 52.85" fill="#e3e1d2" fill-rule="evenodd" stroke="none"/>
      <path d="M459.3 53.15 L459.25 52.95 459.55 53.5 459.55 64.05 459.35 64.6 458.85 64.8 452.0 64.8 Q451.55 64.8 451.35 64.25 L451.8 64.4 458.6 64.4 Q459.3 64.4 459.3 63.7 L459.3 53.15" fill="#a2a394" fill-rule="evenodd" stroke="none"/>
      <path d="M451.95 53.15 L458.85 53.2 453.6 53.35 451.95 53.15" fill="#fffeed" fill-rule="evenodd" stroke="none"/>
      <path d="M455.1 57.85 L455.4 58.05 455.7 58.5 Q456.05 60.5 454.95 61.4 L452.6 61.5 Q451.15 60.75 452.4 59.8 L454.45 58.1 Q454.75 57.8 455.1 57.85" fill="#959687" fill-rule="evenodd" stroke="none"/>
      <path d="M443.6 58.0 L454.55 57.75 Q455.1 57.75 455.45 58.15 455.85 58.55 455.85 59.1 455.85 59.65 455.45 60.05 455.1 60.45 454.55 60.45 L443.6 60.65 443.6 58.0" fill="url(#gradient31)" fill-rule="evenodd" stroke="none"/>
      <path d="M440.3 6.45 L445.55 6.45 445.55 78.2 445.2 79.05 Q444.5 79.85 442.85 79.85 441.2 79.85 440.6 79.05 L440.3 78.2 440.3 6.45" fill="url(#gradient32)" fill-rule="evenodd" stroke="none"/>
      <path d="M335.9 7.0 Q335.45 7.15 335.0 6.8 334.05 6.2 334.05 4.0 334.05 1.8 335.0 0.7 L335.9 0.0 544.25 0.0 544.25 7.0 335.9 7.0" fill="url(#gradient33)" fill-rule="evenodd" stroke="none"/>
    </g>
    <linearGradient gradientTransform="matrix(0.0, 0.1302, 0.1302, 0.0, 274.0, 164.6)" gradientUnits="userSpaceOnUse" id="gradient0" spreadMethod="pad" x1="-819.2" x2="819.2">
      <stop offset="0.0" stop-color="#e8e3d9"/>
      <stop offset="1.0" stop-color="#fbf6ed"/>
    </linearGradient>
    <radialGradient cx="0" cy="0" gradientTransform="matrix(0.0176, 0.0, 0.0, -0.004, 446.1, 79.3)" gradientUnits="userSpaceOnUse" id="gradient1" r="819.2" spreadMethod="pad">
      <stop offset="0.050980392156862744" stop-color="#000000" stop-opacity="0.34509805"/>
      <stop offset="1.0" stop-color="#000000" stop-opacity="0.0"/>
    </radialGradient>
    <linearGradient gradientTransform="matrix(0.0046, 0.0, 0.0, -0.0046, 432.05, 26.5)" gradientUnits="userSpaceOnUse" id="gradient2" spreadMethod="pad" x1="-819.2" x2="819.2">
      <stop offset="0.0" stop-color="#d1cec2"/>
      <stop offset="1.0" stop-color="#acad9c"/>
    </linearGradient>
    <linearGradient gradientTransform="matrix(0.005, 0.0061, 0.0061, -0.005, 431.65, 25.95)" gradientUnits="userSpaceOnUse" id="gradient3" spreadMethod="pad" x1="-819.2" x2="819.2">
      <stop offset="0.0" stop-color="#d1cec2"/>
      <stop offset="0.15294117647058825" stop-color="#eceadb"/>
      <stop offset="1.0" stop-color="#acad9c"/>
    </linearGradient>
    <linearGradient gradientTransform="matrix(0.0046, 0.0, 0.0, -0.0046, 432.05, 57.2)" gradientUnits="userSpaceOnUse" id="gradient4" spreadMethod="pad" x1="-819.2" x2="819.2">
      <stop offset="0.0" stop-color="#d1cec2"/>
      <stop offset="1.0" stop-color="#acad9c"/>
    </linearGradient>
    <linearGradient gradientTransform="matrix(0.005, 0.0061, 0.0061, -0.005, 431.65, 56.65)" gradientUnits="userSpaceOnUse" id="gradient5" spreadMethod="pad" x1="-819.2" x2="819.2">
      <stop offset="0.0" stop-color="#d1cec2"/>
      <stop offset="0.15294117647058825" stop-color="#eceadb"/>
      <stop offset="1.0" stop-color="#acad9c"/>
    </linearGradient>
    <linearGradient gradientTransform="matrix(0.0046, 0.0, 0.0, -0.0046, 456.1, 26.5)" gradientUnits="userSpaceOnUse" id="gradient6" spreadMethod="pad" x1="-819.2" x2="819.2">
      <stop offset="0.0" stop-color="#d1cec2"/>
      <stop offset="1.0" stop-color="#acad9c"/>
    </linearGradient>
    <linearGradient gradientTransform="matrix(0.005, 0.0061, 0.0061, -0.005, 455.7, 25.95)" gradientUnits="userSpaceOnUse" id="gradient7" spreadMethod="pad" x1="-819.2" x2="819.2">
      <stop offset="0.0" stop-color="#d1cec2"/>
      <stop offset="0.15294117647058825" stop-color="#eceadb"/>
      <stop offset="1.0" stop-color="#acad9c"/>
    </linearGradient>
    <linearGradient gradientTransform="matrix(0.0046, 0.0, 0.0, -0.0046, 456.1, 57.2)" gradientUnits="userSpaceOnUse" id="gradient8" spreadMethod="pad" x1="-819.2" x2="819.2">
      <stop offset="0.0" stop-color="#d1cec2"/>
      <stop offset="1.0" stop-color="#acad9c"/>
    </linearGradient>
    <linearGradient gradientTransform="matrix(0.005, 0.0061, 0.0061, -0.005, 455.7, 56.65)" gradientUnits="userSpaceOnUse" id="gradient9" spreadMethod="pad" x1="-819.2" x2="819.2">
      <stop offset="0.0" stop-color="#d1cec2"/>
      <stop offset="0.15294117647058825" stop-color="#eceadb"/>
      <stop offset="1.0" stop-color="#acad9c"/>
    </linearGradient>
    <linearGradient gradientTransform="matrix(0.0544, 0.0317, 0.0317, -0.0544, 497.95, 42.8)" gradientUnits="userSpaceOnUse" id="gradient10" spreadMethod="pad" x1="-819.2" x2="819.2">
      <stop offset="0.0" stop-color="#c3cec0" stop-opacity="0.29803923"/>
      <stop offset="0.17647058823529413" stop-color="#ffffff" stop-opacity="0.2"/>
      <stop offset="0.8274509803921568" stop-color="#99aaa8" stop-opacity="0.29803923"/>
      <stop offset="1.0" stop-color="#99aaa8" stop-opacity="0.49803922"/>
    </linearGradient>
    <linearGradient gradientTransform="matrix(0.0157, 0.0091, 0.0091, -0.0157, 450.3, 42.05)" gradientUnits="userSpaceOnUse" id="gradient11" spreadMethod="pad" x1="-819.2" x2="819.2">
      <stop offset="0.0" stop-color="#c3cec0" stop-opacity="0.29803923"/>
      <stop offset="0.17647058823529413" stop-color="#ffffff" stop-opacity="0.2"/>
      <stop offset="0.8274509803921568" stop-color="#99aaa8" stop-opacity="0.29803923"/>
      <stop offset="1.0" stop-color="#99aaa8" stop-opacity="0.49803922"/>
    </linearGradient>
    <linearGradient gradientTransform="matrix(0.0387, 0.0225, 0.0225, -0.0387, 497.65, 75.05)" gradientUnits="userSpaceOnUse" id="gradient12" spreadMethod="pad" x1="-819.2" x2="819.2">
      <stop offset="0.0" stop-color="#668c78" stop-opacity="0.29803923"/>
      <stop offset="0.8274509803921568" stop-color="#99aaa8" stop-opacity="0.29803923"/>
      <stop offset="1.0" stop-color="#99aaa8" stop-opacity="0.49803922"/>
    </linearGradient>
    <linearGradient gradientTransform="matrix(0.0387, 0.0225, 0.0225, -0.0387, 497.65, 10.2)" gradientUnits="userSpaceOnUse" id="gradient13" spreadMethod="pad" x1="-819.2" x2="819.2">
      <stop offset="0.0" stop-color="#ffffff" stop-opacity="0.29803923"/>
      <stop offset="0.6078431372549019" stop-color="#b9cdcc" stop-opacity="0.29803923"/>
      <stop offset="1.0" stop-color="#ffffff" stop-opacity="0.49803922"/>
    </linearGradient>
    <linearGradient gradientTransform="matrix(0.0158, 0.0092, 0.0092, -0.0158, 543.6, 42.3)" gradientUnits="userSpaceOnUse" id="gradient14" spreadMethod="pad" x1="-819.2" x2="819.2">
      <stop offset="0.0" stop-color="#6a817e" stop-opacity="0.29803923"/>
      <stop offset="1.0" stop-color="#889896" stop-opacity="0.49803922"/>
    </linearGradient>
    <linearGradient gradientTransform="matrix(0.0544, 0.0317, 0.0317, -0.0544, 391.15, 42.8)" gradientUnits="userSpaceOnUse" id="gradient15" spreadMethod="pad" x1="-819.2" x2="819.2">
      <stop offset="0.0" stop-color="#c3cec0" stop-opacity="0.29803923"/>
      <stop offset="0.17647058823529413" stop-color="#ffffff" stop-opacity="0.2"/>
      <stop offset="0.8274509803921568" stop-color="#99aaa8" stop-opacity="0.29803923"/>
      <stop offset="1.0" stop-color="#99aaa8" stop-opacity="0.49803922"/>
    </linearGradient>
    <linearGradient gradientTransform="matrix(0.0157, 0.0091, 0.0091, -0.0157, 343.5, 42.05)" gradientUnits="userSpaceOnUse" id="gradient16" spreadMethod="pad" x1="-819.2" x2="819.2">
      <stop offset="0.0" stop-color="#c3cec0" stop-opacity="0.29803923"/>
      <stop offset="0.17647058823529413" stop-color="#ffffff" stop-opacity="0.2"/>
      <stop offset="0.8274509803921568" stop-color="#99aaa8" stop-opacity="0.29803923"/>
      <stop offset="1.0" stop-color="#99aaa8" stop-opacity="0.49803922"/>
    </linearGradient>
    <linearGradient gradientTransform="matrix(0.0387, 0.0225, 0.0225, -0.0387, 390.85, 75.05)" gradientUnits="userSpaceOnUse" id="gradient17" spreadMethod="pad" x1="-819.2" x2="819.2">
      <stop offset="0.0" stop-color="#668c78" stop-opacity="0.29803923"/>
      <stop offset="0.8274509803921568" stop-color="#99aaa8" stop-opacity="0.29803923"/>
      <stop offset="1.0" stop-color="#99aaa8" stop-opacity="0.49803922"/>
    </linearGradient>
    <linearGradient gradientTransform="matrix(0.0387, 0.0225, 0.0225, -0.0387, 390.85, 10.2)" gradientUnits="userSpaceOnUse" id="gradient18" spreadMethod="pad" x1="-819.2" x2="819.2">
      <stop offset="0.0" stop-color="#ffffff" stop-opacity="0.29803923"/>
      <stop offset="0.6078431372549019" stop-color="#b9cdcc" stop-opacity="0.29803923"/>
      <stop offset="1.0" stop-color="#ffffff" stop-opacity="0.49803922"/>
    </linearGradient>
    <linearGradient gradientTransform="matrix(0.0158, 0.0092, 0.0092, -0.0158, 436.8, 42.3)" gradientUnits="userSpaceOnUse" id="gradient19" spreadMethod="pad" x1="-819.2" x2="819.2">
      <stop offset="0.0" stop-color="#6a817e" stop-opacity="0.29803923"/>
      <stop offset="1.0" stop-color="#889896" stop-opacity="0.49803922"/>
    </linearGradient>
    <linearGradient gradientTransform="matrix(0.0046, 0.0, 0.0, -0.0046, 430.8, 28.35)" gradientUnits="userSpaceOnUse" id="gradient20" spreadMethod="pad" x1="-819.2" x2="819.2">
      <stop offset="0.0" stop-color="#d1cec2"/>
      <stop offset="1.0" stop-color="#acad9c"/>
    </linearGradient>
    <linearGradient gradientTransform="matrix(0.0051, 0.0062, 0.0062, -0.0051, 430.4, 27.8)" gradientUnits="userSpaceOnUse" id="gradient21" spreadMethod="pad" x1="-819.2" x2="819.2">
      <stop offset="0.0" stop-color="#d1cec2"/>
      <stop offset="0.15294117647058825" stop-color="#eceadb"/>
      <stop offset="1.0" stop-color="#acad9c"/>
    </linearGradient>
    <radialGradient cx="0" cy="0" gradientTransform="matrix(4.0E-4, 0.0036, 0.0169, -0.0017, 439.65, 25.85)" gradientUnits="userSpaceOnUse" id="gradient22" r="819.2" spreadMethod="pad">
      <stop offset="0.2823529411764706" stop-color="#83837a"/>
      <stop offset="0.6941176470588235" stop-color="#eceadb"/>
      <stop offset="0.9921568627450981" stop-color="#a4a595"/>
    </radialGradient>
    <linearGradient gradientTransform="matrix(0.0046, 0.0, 0.0, -0.0046, 430.8, 58.85)" gradientUnits="userSpaceOnUse" id="gradient23" spreadMethod="pad" x1="-819.2" x2="819.2">
      <stop offset="0.0" stop-color="#d1cec2"/>
      <stop offset="1.0" stop-color="#acad9c"/>
    </linearGradient>
    <linearGradient gradientTransform="matrix(0.0051, 0.0062, 0.0062, -0.0051, 430.4, 58.3)" gradientUnits="userSpaceOnUse" id="gradient24" spreadMethod="pad" x1="-819.2" x2="819.2">
      <stop offset="0.0" stop-color="#d1cec2"/>
      <stop offset="0.15294117647058825" stop-color="#eceadb"/>
      <stop offset="1.0" stop-color="#acad9c"/>
    </linearGradient>
    <radialGradient cx="0" cy="0" gradientTransform="matrix(4.0E-4, 0.0036, 0.017, -0.0017, 439.65, 56.45)" gradientUnits="userSpaceOnUse" id="gradient25" r="819.2" spreadMethod="pad">
      <stop offset="0.2823529411764706" stop-color="#83837a"/>
      <stop offset="0.6941176470588235" stop-color="#eceadb"/>
      <stop offset="0.9921568627450981" stop-color="#a4a595"/>
    </radialGradient>
    <linearGradient gradientTransform="matrix(0.0046, 0.0, 0.0, -0.0046, 455.35, 28.35)" gradientUnits="userSpaceOnUse" id="gradient26" spreadMethod="pad" x1="-819.2" x2="819.2">
      <stop offset="0.0" stop-color="#d1cec2"/>
      <stop offset="1.0" stop-color="#acad9c"/>
    </linearGradient>
    <linearGradient gradientTransform="matrix(0.0051, 0.0062, 0.0062, -0.0051, 454.95, 27.8)" gradientUnits="userSpaceOnUse" id="gradient27" spreadMethod="pad" x1="-819.2" x2="819.2">
      <stop offset="0.0" stop-color="#d1cec2"/>
      <stop offset="0.15294117647058825" stop-color="#eceadb"/>
      <stop offset="1.0" stop-color="#acad9c"/>
    </linearGradient>
    <radialGradient cx="0" cy="0" gradientTransform="matrix(-4.0E-4, 0.0036, -0.0169, -0.0017, 445.8, 25.85)" gradientUnits="userSpaceOnUse" id="gradient28" r="819.2" spreadMethod="pad">
      <stop offset="0.2823529411764706" stop-color="#83837a"/>
      <stop offset="0.6941176470588235" stop-color="#eceadb"/>
      <stop offset="0.9921568627450981" stop-color="#a4a595"/>
    </radialGradient>
    <linearGradient gradientTransform="matrix(0.0046, 0.0, 0.0, -0.0046, 455.35, 58.85)" gradientUnits="userSpaceOnUse" id="gradient29" spreadMethod="pad" x1="-819.2" x2="819.2">
      <stop offset="0.0" stop-color="#d1cec2"/>
      <stop offset="1.0" stop-color="#acad9c"/>
    </linearGradient>
    <linearGradient gradientTransform="matrix(0.0051, 0.0062, 0.0062, -0.0051, 454.95, 58.3)" gradientUnits="userSpaceOnUse" id="gradient30" spreadMethod="pad" x1="-819.2" x2="819.2">
      <stop offset="0.0" stop-color="#d1cec2"/>
      <stop offset="0.15294117647058825" stop-color="#eceadb"/>
      <stop offset="1.0" stop-color="#acad9c"/>
    </linearGradient>
    <radialGradient cx="0" cy="0" gradientTransform="matrix(-4.0E-4, 0.0036, -0.017, -0.0017, 445.8, 56.45)" gradientUnits="userSpaceOnUse" id="gradient31" r="819.2" spreadMethod="pad">
      <stop offset="0.2823529411764706" stop-color="#83837a"/>
      <stop offset="0.6941176470588235" stop-color="#eceadb"/>
      <stop offset="0.9921568627450981" stop-color="#a4a595"/>
    </radialGradient>
    <linearGradient gradientTransform="matrix(0.003, 0.0, 0.0, -0.003, 442.9, 43.15)" gradientUnits="userSpaceOnUse" id="gradient32" spreadMethod="pad" x1="-819.2" x2="819.2">
      <stop offset="0.0" stop-color="#cecac0"/>
      <stop offset="0.17647058823529413" stop-color="#e9e6d8"/>
      <stop offset="0.8274509803921568" stop-color="#8d8d7f"/>
      <stop offset="1.0" stop-color="#c3c3af"/>
    </linearGradient>
    <linearGradient gradientTransform="matrix(0.0, 0.004, 0.004, 0.0, 439.15, 3.5)" gradientUnits="userSpaceOnUse" id="gradient33" spreadMethod="pad" x1="-819.2" x2="819.2">
      <stop offset="0.0" stop-color="#cecac0"/>
      <stop offset="0.17647058823529413" stop-color="#e9e6d8"/>
      <stop offset="0.8274509803921568" stop-color="#a9aa9a"/>
      <stop offset="1.0" stop-color="#c3c3af"/>
    </linearGradient>
  </defs>
</svg>
