<?xml version="1.0" encoding="UTF-8" standalone="no"?>
<svg xmlns:xlink="http://www.w3.org/1999/xlink" height="76.25px" width="26.75px" xmlns="http://www.w3.org/2000/svg">
  <g transform="matrix(1.0, 0.0, 0.0, 1.0, 0.0, 0.0)">
    <use height="76.25" transform="matrix(1.0, 0.0, 0.0, 1.0, 0.0, 0.0)" width="26.75" xlink:href="#shape0"/>
  </g>
  <defs>
    <g id="shape0" transform="matrix(1.0, 0.0, 0.0, 1.0, 0.0, 0.0)">
      <path d="M25.2 74.1 Q26.7 74.5 26.75 74.95 L25.35 75.9 22.75 75.9 22.55 75.75 16.05 75.8 15.1 76.15 13.7 76.25 12.2 76.1 11.6 75.95 10.85 75.95 10.6 76.25 4.25 76.25 3.55 76.0 1.0 76.0 0.75 75.85 Q0.9 75.15 2.6 74.7 L4.7 74.15 6.5 73.45 6.6 73.45 6.6 73.4 6.65 73.4 8.05 72.95 10.6 72.65 15.25 72.65 15.45 72.8 16.75 72.75 18.9 73.0 19.0 73.0 19.0 73.05 20.15 73.15 23.45 73.7 25.2 74.1" fill="#000000" fill-opacity="0.29803923" fill-rule="evenodd" stroke="none"/>
      <path d="M15.8 7.45 L15.15 27.35 Q14.75 61.25 17.0 66.7 19.0 71.6 21.45 74.85 17.8 73.4 16.15 73.6 15.15 73.75 14.25 74.7 L13.5 75.65 Q12.3 74.45 10.65 74.45 L8.05 74.85 6.6 75.25 Q11.3 59.15 11.3 56.1 L10.9 48.45 10.45 43.05 6.4 43.7 Q2.1 43.65 0.7 40.2 -0.7 36.75 0.75 24.4 1.5 18.2 2.5 12.7 3.75 12.25 4.8 12.35 6.95 12.55 6.2 15.35 5.1 19.3 4.6 26.0 4.05 33.5 5.15 36.3 6.2 38.85 8.4 38.45 9.55 38.25 10.45 37.55 10.05 28.4 10.2 19.1 10.45 0.55 13.1 0.05 15.8 -0.45 15.8 7.45" fill="#81836f" fill-rule="evenodd" stroke="none"/>
    </g>
  </defs>
</svg>
