<?xml version="1.0" encoding="UTF-8" standalone="no"?>
<svg xmlns:xlink="http://www.w3.org/1999/xlink" height="400.0px" width="190.0px" xmlns="http://www.w3.org/2000/svg">
  <g transform="matrix(1.0, 0.0, 0.0, 1.0, 0.0, 0.0)">
    <clipPath id="clipPath0" transform="matrix(1.0, 0.0, 0.0, 1.0, 0.0, 0.0)">
      <use height="420.85" transform="matrix(1.0, 0.0, 0.0, 1.0, -2.35, -33.0)" width="195.25" xlink:href="#shape0"/>
    </clipPath>
    <g clip-path="url(#clipPath0)">
      <use height="462.25" transform="matrix(1.0, 0.0, 0.0, 1.0, 40.7, 59.4)" width="123.25" xlink:href="#sprite0"/>
    </g>
  </g>
  <defs>
    <g id="shape0" transform="matrix(1.0, 0.0, 0.0, 1.0, 2.35, 33.0)">
      <path d="M12.0 -9.0 Q15.3 -9.0 41.75 -17.85 70.25 -27.35 78.5 -32.5 L145.5 -32.75 132.55 -32.9 144.75 -33.0 Q180.3 -32.4 189.55 -18.6 192.65 -13.95 192.9 -7.4 L192.5 1.4 191.55 12.65 Q190.55 23.5 190.5 28.75 190.4 34.15 190.95 44.5 L191.5 55.4 Q189.55 82.75 187.55 101.45 191.4 96.5 189.9 149.55 187.8 222.2 188.0 262.2 188.15 291.9 183.85 304.55 L183.8 304.7 183.75 304.85 Q182.8 307.5 181.65 309.4 L180.6 311.7 Q173.85 326.8 174.7 326.95 175.5 327.3 175.5 328.85 L175.45 329.7 Q175.0 333.7 170.5 342.25 L167.0 348.5 Q163.95 357.4 159.3 364.05 152.3 374.1 157.65 377.95 130.05 388.35 105.8 387.85 L76.55 385.1 Q53.05 382.45 47.65 371.15 42.25 359.8 42.55 356.95 40.5 355.7 38.65 353.7 34.2 349.85 36.1 350.6 29.8 341.75 25.5 323.9 16.55 286.85 14.7 265.75 12.85 244.55 5.3 203.85 -2.35 163.1 -2.35 143.3 -2.35 123.5 -1.7 107.75 -1.05 91.95 -0.7 74.75 -0.35 57.55 -0.35 26.15 -0.35 21.95 -1.35 12.85 -2.35 3.75 -2.35 1.0 -2.35 -2.85 -1.35 -8.0 0.1 -15.5 2.65 -15.5 4.3 -15.5 7.0 -12.25 9.7 -9.0 12.0 -9.0 M72.85 345.3 L75.0 342.0 Q71.7 344.85 72.85 345.3" fill="#cc0000" fill-rule="evenodd" stroke="none"/>
    </g>
    <g id="sprite0" transform="matrix(1.0, 0.0, 0.0, 1.0, 83.8, 331.85)">
      <use height="462.25" transform="matrix(1.0, 0.0, 0.0, 1.0, -83.8, -331.85)" width="123.25" xlink:href="#morphshape0"/>
    </g>
    <g id="morphshape0" transform="matrix(1.0, 0.0, 0.0, 1.0, 83.8, 331.85)">
      <path d="M-46.5 16.25 L-46.45 16.45 Q-46.3 17.5 -46.2 18.55 L-46.15 18.7 -45.4 21.4 Q-44.9 23.25 -44.45 25.05 L-44.4 25.65 -44.4 26.75 Q-44.45 28.95 -44.5 31.15 L-44.3 31.65 -44.3 31.75 -43.85 33.05 -43.75 33.35 Q-42.5 37.25 -41.65 42.05 -41.15 45.05 -40.8 48.4 -40.45 51.55 -40.25 55.0 L-40.15 55.4 -39.45 57.4 Q-37.4 63.75 -36.75 70.15 -36.45 73.05 -36.45 75.95 -36.35 77.3 -36.25 78.6 -36.05 79.85 -35.9 81.05 L-35.65 82.45 Q-35.2 85.45 -35.1 89.0 L-35.1 89.6 Q-35.05 93.0 -35.0 96.35 L-34.9 98.45 -34.75 101.75 Q-34.5 102.55 -34.55 103.75 L-34.4 105.85 -34.1 109.9 -33.95 111.65 -33.85 112.55 Q-33.4 113.55 -33.05 115.2 L-32.95 116.25 -32.9 118.65 Q-32.85 120.05 -32.95 121.45 L-33.0 122.0 -32.85 126.5 -32.8 127.1 -32.55 128.8 -32.5 129.9 -32.5 130.0 Q-32.45 130.65 -32.15 130.2 L-31.7 129.15 -31.5 128.2 -31.4 127.65 -31.3 126.15 Q-31.25 124.95 -31.25 123.75 L-31.0 121.55 -30.95 120.9 -30.85 120.45 Q-30.6 119.5 -30.2 119.5 -29.25 119.5 -28.95 117.35 -28.9 116.25 -28.85 115.2 -28.85 113.25 -28.85 111.3 L-28.85 109.9 -28.8 109.35 -28.2 105.0 -28.15 104.35 -28.15 102.8 Q-28.2 101.3 -28.25 99.85 -28.25 95.7 -27.3 91.5 -26.4 87.7 -24.75 83.8 L-23.45 81.0 Q-22.0 78.4 -20.6 75.8 L-20.2 75.2 Q-16.85 59.3 -15.0 54.1 -13.95 51.9 -12.9 49.75 L-12.9 49.75 Q-12.5 47.95 -12.15 46.2 -11.9 44.95 -11.65 43.75 L-11.75 43.35 Q-12.8 39.5 -12.35 36.95 L-12.25 36.65 -11.4 33.85 -10.85 30.1 Q-10.3 27.35 -10.3 26.25 -10.7 23.9 -11.05 21.55 L-11.15 20.95 Q-11.9 17.8 -12.8 16.55 -13.35 15.75 -14.0 15.75 -14.75 15.75 -15.7 14.6 L-16.5 14.75 -16.25 13.95 -17.3 12.1 Q-17.85 11.0 -18.4 9.9 -19.05 8.3 -19.7 6.75 L-20.4 4.8 -20.95 4.15 -21.05 4.2 -23.25 4.05 -23.45 3.8 -23.55 3.75 -24.3 3.45 -25.25 3.05 -25.9 4.4 Q-26.5 5.55 -27.1 5.55 L-27.35 7.35 Q-27.75 9.1 -28.4 9.4 L-29.4 9.05 -29.8 8.35 -30.15 6.8 Q-30.35 3.9 -30.5 1.05 -30.5 0.55 -30.65 0.15 L-30.7 0.05 Q-31.3 -1.55 -32.5 -0.65 L-32.65 -0.5 -32.8 -0.4 -33.3 -0.35 Q-34.4 -0.5 -35.05 -3.85 -37.6 -3.7 -40.4 -0.85 L-41.6 0.45 Q-42.35 1.45 -43.05 2.45 -44.7 5.0 -45.55 8.25 -46.5 11.85 -46.5 16.25" fill="#e2e2e2" fill-opacity="0.07058824" fill-rule="evenodd" stroke="none"/>
      <path d="M-46.5 16.25 Q-46.5 11.85 -45.55 8.25 -44.7 5.0 -43.05 2.45 -42.35 1.45 -41.6 0.45 L-40.4 -0.85 Q-37.6 -3.7 -35.05 -3.85 -34.4 -0.5 -33.3 -0.35 L-32.8 -0.4 -32.65 -0.5 -32.5 -0.65 Q-31.3 -1.55 -30.7 0.05 L-30.65 0.15 Q-30.5 0.55 -30.5 1.05 -30.35 3.9 -30.15 6.8 L-29.8 8.35 -29.4 9.05 -28.4 9.4 Q-27.75 9.1 -27.35 7.35 L-27.1 5.55 Q-26.5 5.55 -25.9 4.4 L-25.25 3.05 -24.3 3.45 -23.55 3.75 -23.45 3.8 -23.25 4.05 -21.05 4.2 -20.95 4.15 -20.4 4.8 -19.7 6.75 Q-19.05 8.3 -18.4 9.9 -17.85 11.0 -17.3 12.1 L-16.25 13.95 -16.5 14.75 -15.7 14.6 Q-14.75 15.75 -14.0 15.75 -13.35 15.75 -12.8 16.55 -11.9 17.8 -11.15 20.95 L-11.05 21.55 Q-10.7 23.9 -10.3 26.25 -10.3 27.35 -10.85 30.1 L-11.4 33.85 -12.25 36.65 -12.35 36.95 Q-12.8 39.5 -11.75 43.35 L-11.65 43.75 Q-11.9 44.95 -12.15 46.2 -12.5 47.95 -12.9 49.75 L-12.9 49.75 Q-13.95 51.9 -15.0 54.1 -16.85 59.3 -20.2 75.2 L-20.6 75.8 Q-22.0 78.4 -23.45 81.0 L-24.75 83.8 Q-26.4 87.7 -27.3 91.5 -28.25 95.7 -28.25 99.85 -28.2 101.3 -28.15 102.8 L-28.15 104.35 -28.2 105.0 -28.8 109.35 -28.85 109.9 -28.85 111.3 Q-28.85 113.25 -28.85 115.2 -28.9 116.25 -28.95 117.35 -29.25 119.5 -30.2 119.5 -30.6 119.5 -30.85 120.45 L-30.95 120.9 -31.0 121.55 -31.25 123.75 Q-31.25 124.95 -31.3 126.15 L-31.4 127.65 -31.5 128.2 -31.7 129.15 -32.15 130.2 Q-32.45 130.65 -32.5 130.0 L-32.5 129.9 -32.55 128.8 -32.8 127.1 -32.85 126.5 -33.0 122.0 -32.95 121.45 Q-32.85 120.05 -32.9 118.65 L-32.95 116.25 -33.05 115.2 Q-33.4 113.55 -33.85 112.55 L-33.95 111.65 -34.1 109.9 -34.4 105.85 -34.55 103.75 Q-34.5 102.55 -34.75 101.75 L-34.9 98.45 -35.0 96.35 Q-35.05 93.0 -35.1 89.6 L-35.1 89.0 Q-35.2 85.45 -35.65 82.45 L-35.9 81.05 Q-36.05 79.85 -36.25 78.6 -36.35 77.3 -36.45 75.95 -36.45 73.05 -36.75 70.15 -37.4 63.75 -39.45 57.4 L-40.15 55.4 -40.25 55.0 Q-40.45 51.55 -40.8 48.4 -41.15 45.05 -41.65 42.05 -42.5 37.25 -43.75 33.35 L-43.85 33.05 -44.3 31.75 -44.3 31.65 -44.5 31.15 Q-44.45 28.95 -44.4 26.75 L-44.4 25.65 -44.45 25.05 Q-44.9 23.25 -45.4 21.4 L-46.15 18.7 -46.2 18.55 Q-46.3 17.5 -46.45 16.45 L-46.5 16.25 Z" fill="none" stroke="#000000" stroke-linecap="round" stroke-linejoin="round" stroke-opacity="0.0" stroke-width="1.0"/>
    </g>
  </defs>
</svg>
