<?xml version="1.0" encoding="UTF-8" standalone="no"?>
<svg xmlns:xlink="http://www.w3.org/1999/xlink" height="73.25px" width="56.85px" xmlns="http://www.w3.org/2000/svg">
  <g transform="matrix(1.0, 0.0, 0.0, 1.0, 0.0, 0.0)">
    <use height="73.25" transform="matrix(1.0, 0.0, 0.0, 1.0, 0.0, 0.0)" width="56.85" xlink:href="#shape0"/>
  </g>
  <defs>
    <g id="shape0" transform="matrix(1.0, 0.0, 0.0, 1.0, 0.0, 0.0)">
      <path d="M13.65 53.55 Q12.25 52.45 12.15 52.05 L20.95 48.75 Q23.45 49.7 24.3 50.2 26.0 51.3 26.15 53.05 26.25 54.5 25.7 55.5 25.15 56.5 24.35 56.9 L24.3 57.05 23.5 58.9 Q22.85 59.95 22.95 60.9 23.05 61.45 23.45 61.75 L24.3 62.25 Q25.75 63.25 24.55 63.55 L23.3 63.55 22.35 63.9 20.35 64.25 18.3 64.5 14.5 65.7 Q13.9 65.8 13.15 66.15 L11.8 66.7 9.15 66.9 8.1 66.95 7.15 66.85 Q7.0 66.65 7.25 65.95 L7.65 65.05 8.95 64.05 9.5 63.5 8.65 63.25 4.7 62.75 6.35 62.1 8.0 61.45 10.55 61.1 13.1 61.05 15.2 60.75 Q16.25 60.45 16.75 59.55 17.9 57.5 17.95 56.05 L17.8 55.85 17.15 55.6 16.5 55.4 15.95 55.0 15.5 54.55 14.6 54.05 Q13.95 53.8 13.65 53.55" fill="#764d2f" fill-rule="evenodd" stroke="none"/>
      <path d="M18.9 56.0 L19.4 56.6 19.75 57.5 19.75 57.85 19.5 58.1 19.4 58.15 19.4 57.25 19.35 56.5 Q19.25 56.3 18.8 56.1 L18.2 55.85 18.25 55.85 18.9 56.0" fill="#684429" fill-rule="evenodd" stroke="none"/>
      <path d="M12.55 62.25 L12.6 62.25 9.3 62.6 9.25 62.1 8.1 62.75 7.15 62.7 Q6.45 62.25 6.0 62.25 L5.95 62.25 7.35 61.7 7.8 61.8 Q10.65 62.45 13.6 61.8 L13.25 62.15 12.55 62.25" fill="#684429" fill-rule="evenodd" stroke="none"/>
      <path d="M19.65 58.8 Q19.9 58.7 20.05 58.9 L20.4 59.35 20.95 59.55 21.25 59.75 21.65 60.5 21.65 60.65 21.4 61.25 21.1 61.6 Q20.05 61.9 19.75 60.75 L19.65 58.8 Q19.35 59.0 19.25 59.75 L19.1 60.9 19.05 62.1 Q18.85 62.95 17.65 63.6 L16.45 63.8 16.0 62.9 15.9 63.6 Q15.5 63.65 14.65 64.4 L13.85 64.95 12.5 65.0 12.1 65.05 11.85 65.05 11.95 64.55 11.9 64.0 Q13.05 63.8 13.25 64.55 L13.9 63.9 14.65 63.6 Q15.15 63.3 15.15 62.7 L15.55 62.5 16.45 62.55 16.6 62.6 17.0 62.9 17.5 62.6 17.5 62.55 17.9 62.25 Q18.75 61.7 18.65 61.15 L18.3 60.4 Q18.9 60.35 19.0 59.9 L19.05 60.05 19.25 59.4 Q19.35 58.95 19.55 58.85 L19.65 58.8" fill="#684429" fill-rule="evenodd" stroke="none"/>
      <path d="M9.4 63.45 L11.35 62.6 10.0 63.35 9.9 63.35 9.5 63.5 9.4 63.45" fill="#684429" fill-rule="evenodd" stroke="none"/>
      <path d="M11.15 65.8 L10.65 66.0 10.5 66.35 9.4 66.35 Q8.55 66.35 8.6 66.0 L8.95 65.75 9.35 65.65 9.1 65.6 9.8 65.6 9.7 65.7 10.75 65.75 11.15 65.75 11.15 65.8" fill="#684429" fill-rule="evenodd" stroke="none"/>
      <path d="M8.95 65.75 L8.6 66.0 Q8.55 66.35 9.4 66.35 L10.5 66.35 10.45 66.4 7.55 66.35 Q7.4 66.0 7.9 65.85 L8.6 65.55 9.1 65.6 9.35 65.65 8.95 65.75" fill="#5d3e27" fill-rule="evenodd" stroke="none"/>
      <path d="M15.75 64.1 L15.4 64.1 14.8 64.3 15.9 63.6 15.75 64.1" fill="#5d3e27" fill-rule="evenodd" stroke="none"/>
      <path d="M12.55 65.6 L12.1 65.05 12.5 65.0 13.85 64.95 Q13.05 65.55 12.55 65.6" fill="#5d3e27" fill-rule="evenodd" stroke="none"/>
      <path d="M19.25 59.75 Q19.35 59.0 19.65 58.8 L19.75 60.75 Q20.05 61.9 21.1 61.6 L20.15 62.35 Q19.5 62.5 19.35 61.75 L19.25 60.5 19.15 61.95 19.2 62.75 19.15 63.5 19.05 63.6 17.65 63.6 Q18.85 62.95 19.05 62.1 L19.1 60.9 19.25 59.75" fill="#5d3e27" fill-rule="evenodd" stroke="none"/>
      <path d="M21.55 59.5 Q21.8 60.0 21.65 60.65 L21.65 60.5 21.25 59.75 20.95 59.55 21.55 59.5" fill="#5d3e27" fill-rule="evenodd" stroke="none"/>
      <path d="M18.25 55.85 L17.8 55.85 17.15 55.6 16.5 55.4 16.55 55.1 17.55 55.0 Q19.65 54.85 20.05 55.35 L20.25 55.8 20.65 55.95 21.0 56.15 Q21.25 56.5 21.1 57.45 20.75 57.55 20.55 57.75 L21.0 58.65 21.55 59.5 20.95 59.55 20.4 59.35 20.05 58.9 19.55 58.85 Q19.35 58.95 19.25 59.4 L19.05 60.05 19.0 59.9 19.0 58.7 19.4 58.15 19.5 58.1 19.75 57.85 19.75 57.5 19.4 56.6 18.9 56.0 18.25 55.85" fill="#5d3e27" fill-rule="evenodd" stroke="none"/>
      <path d="M12.2 52.25 L12.15 52.05 20.95 48.75 Q23.05 49.5 23.75 49.9 25.3 50.7 25.85 51.85 22.55 51.75 19.95 51.9 L12.2 52.25" fill="#493322" fill-rule="evenodd" stroke="none"/>
      <path d="M17.55 55.0 L16.55 55.1 Q16.7 54.55 17.85 54.55 L19.45 54.6 20.8 54.65 21.15 55.0 21.5 55.35 21.95 55.35 22.35 55.4 22.65 55.85 22.65 56.45 22.55 57.35 22.15 57.45 22.0 57.95 22.0 60.0 22.5 61.6 Q22.55 62.25 21.4 63.15 L20.5 63.45 20.1 63.0 19.8 62.4 19.8 63.25 19.05 63.6 19.15 63.5 19.2 62.75 19.15 61.95 19.25 60.5 19.35 61.75 Q19.5 62.5 20.15 62.35 L21.1 61.6 21.4 61.25 21.65 60.65 Q21.8 60.0 21.55 59.5 L21.0 58.65 20.55 57.75 Q20.75 57.55 21.1 57.45 21.25 56.5 21.0 56.15 L20.65 55.95 20.25 55.8 20.05 55.35 Q19.65 54.85 17.55 55.0" fill="#493322" fill-rule="evenodd" stroke="none"/>
      <path d="M10.75 65.75 L9.7 65.7 9.8 65.6 Q10.55 64.95 11.85 65.05 L12.1 65.05 12.55 65.6 Q13.05 65.55 13.85 64.95 L14.65 64.4 14.65 64.35 Q15.0 64.15 15.4 64.1 L15.6 64.2 15.6 64.25 13.9 65.5 13.25 65.85 12.15 66.2 11.65 66.4 11.7 66.1 Q11.55 65.9 11.25 65.8 L11.25 65.75 10.75 65.75" fill="#493322" fill-rule="evenodd" stroke="none"/>
      <path d="M8.6 65.55 L7.9 65.85 Q7.4 66.0 7.55 66.35 L10.45 66.4 10.2 66.6 9.0 66.7 7.8 66.6 7.1 66.55 Q7.1 66.0 7.5 65.3 L8.65 65.4 8.6 65.55" fill="#493322" fill-rule="evenodd" stroke="none"/>
      <path d="M15.75 64.1 L15.9 63.6 16.0 62.9 16.45 63.8 Q16.15 63.9 15.9 64.05 L15.75 64.1" fill="#493322" fill-rule="evenodd" stroke="none"/>
      <path d="M11.35 62.6 L9.4 63.45 8.65 63.25 4.7 62.75 Q5.0 62.45 5.95 62.25 L6.0 62.25 Q6.45 62.25 7.15 62.7 L8.1 62.75 9.25 62.1 9.3 62.6 12.4 62.3 11.35 62.6" fill="#493322" fill-rule="evenodd" stroke="none"/>
      <path d="M12.55 62.25 L13.75 62.1 14.75 61.85 17.15 61.85 17.5 62.1 17.5 62.55 17.5 62.6 16.45 62.55 15.55 62.5 15.15 62.7 15.0 62.75 14.3 62.85 13.25 63.5 Q12.6 63.6 12.65 63.1 11.4 63.3 10.55 63.85 L9.4 64.95 Q8.75 65.45 7.55 65.25 L7.65 65.05 8.95 64.05 9.4 63.75 11.35 62.6 12.55 62.25" fill="#805432" fill-rule="evenodd" stroke="none"/>
      <path d="M17.5 60.85 Q17.3 61.05 16.2 60.25 L16.75 59.55 16.8 59.55 Q17.65 60.75 17.5 60.85" fill="#805432" fill-rule="evenodd" stroke="none"/>
      <path d="M16.0 60.4 L16.0 60.85 15.3 60.75 16.0 60.4" fill="#805432" fill-rule="evenodd" stroke="none"/>
      <path d="M17.85 59.4 L17.05 59.0 17.8 57.15 18.25 57.55 18.75 57.65 18.7 58.5 18.5 59.3 17.85 59.4" fill="#805432" fill-rule="evenodd" stroke="none"/>
      <path d="M9.25 61.15 L12.0 61.15 11.75 61.6 11.4 61.95 10.85 61.95 10.0 61.6 9.25 61.15" fill="#805432" fill-rule="evenodd" stroke="none"/>
      <path d="M13.65 53.55 L12.2 52.25 19.95 51.9 Q22.55 51.75 25.85 51.85 L26.15 53.05 Q26.25 54.5 25.7 55.5 25.15 56.5 24.35 56.9 L24.3 57.05 23.5 58.9 Q22.85 59.95 22.95 60.9 23.05 61.45 23.45 61.75 L24.3 62.25 Q25.75 63.25 24.55 63.55 L23.3 63.55 22.35 63.9 20.35 64.25 18.3 64.5 14.5 65.7 Q13.9 65.8 13.15 66.15 L11.8 66.7 9.15 66.9 8.1 66.95 7.15 66.85 7.1 66.55 7.8 66.6 9.0 66.7 10.2 66.6 10.45 66.4 10.5 66.35 10.65 66.0 11.15 65.8 11.25 65.8 Q11.55 65.9 11.7 66.1 L11.65 66.4 12.15 66.2 13.25 65.85 13.9 65.5 15.6 64.25 15.6 64.2 15.75 64.1 15.9 64.05 Q16.15 63.9 16.45 63.8 L17.65 63.6 19.05 63.6 19.8 63.25 19.8 62.4 20.1 63.0 20.5 63.45 21.4 63.15 Q22.55 62.25 22.5 61.6 L22.0 60.0 22.0 57.95 22.15 57.45 22.55 57.35 22.65 56.45 22.65 55.85 22.35 55.4 21.95 55.35 21.5 55.35 21.15 55.0 20.8 54.65 19.45 54.6 17.85 54.55 Q16.7 54.55 16.55 55.1 L16.5 55.4 15.95 55.0 15.5 54.55 14.6 54.05 Q13.95 53.8 13.65 53.55" fill="#3e2a1c" fill-rule="evenodd" stroke="none"/>
      <path d="M15.45 6.6 Q16.3 6.7 16.75 7.4 L17.8 8.6 19.9 10.8 21.65 13.3 Q22.55 14.95 22.8 16.45 L23.05 17.45 23.45 18.3 23.95 20.45 24.15 22.45 24.15 23.55 Q24.6 23.55 24.6 23.75 L25.8 24.25 26.8 24.7 28.2 25.05 Q28.95 25.35 29.15 26.1 L30.2 26.45 Q30.8 26.65 31.1 27.05 L31.3 27.55 31.6 28.0 32.3 28.4 32.95 29.3 33.45 29.5 34.9 30.1 35.75 30.05 36.65 29.9 Q36.95 29.9 37.45 30.25 L38.85 30.0 39.0 29.9 39.8 29.7 41.15 29.65 Q41.55 29.2 42.45 28.6 L44.65 27.5 Q45.5 26.95 46.15 26.8 L49.8 26.9 50.15 27.6 51.4 28.1 52.7 28.4 Q53.55 28.65 53.85 29.0 L54.0 29.6 54.15 30.2 54.75 30.7 55.35 31.7 56.15 32.65 56.8 33.55 56.7 34.7 55.95 38.45 Q54.2 37.4 51.4 37.4 49.5 37.4 46.8 38.5 L44.2 40.1 44.2 40.5 43.9 41.55 42.75 43.05 40.75 45.25 38.25 47.75 36.3 49.2 36.3 49.25 Q36.3 50.2 35.75 51.45 L34.75 53.55 Q33.9 55.0 33.8 55.9 33.7 57.2 32.8 57.7 L31.7 57.9 31.1 59.1 30.85 60.2 30.5 61.25 30.0 62.1 Q29.75 62.6 29.8 63.05 L30.0 64.45 30.85 65.35 31.85 66.1 32.7 67.2 33.35 67.55 33.8 68.05 30.5 68.4 Q28.5 68.55 27.3 69.25 L26.35 70.0 25.45 70.85 Q24.85 71.35 22.65 72.25 19.5 73.45 17.7 73.2 L18.15 72.55 18.7 71.9 20.1 70.1 21.3 69.1 Q22.0 68.4 21.8 67.75 L19.45 67.65 17.1 67.75 12.8 67.35 Q13.1 67.15 13.7 66.95 L14.75 66.7 16.95 66.0 19.45 65.55 21.85 64.75 Q23.45 63.9 25.2 61.6 L26.15 60.45 26.95 59.25 27.25 57.85 26.05 56.8 25.7 55.8 25.15 54.9 24.15 54.1 24.1 54.05 22.9 54.05 20.95 54.0 19.45 53.75 17.8 53.7 16.05 53.75 Q11.85 53.85 10.0 52.8 L7.9 51.35 Q6.55 50.4 5.2 49.8 2.45 48.65 1.1 46.35 0.6 45.5 0.45 44.0 0.2 43.05 0.05 40.25 -0.1 37.3 0.15 36.35 L0.5 34.7 Q0.65 33.8 0.95 33.0 2.4 28.85 2.95 28.05 L2.95 26.6 2.75 25.15 Q2.55 24.1 2.65 23.8 L2.65 22.45 2.5 22.05 2.3 21.1 2.15 20.0 1.95 18.8 1.95 12.95 Q1.95 12.3 2.8 10.8 L3.2 10.25 Q3.4 10.4 3.95 9.95 L5.2 8.8 5.95 8.1 7.8 6.8 Q9.25 5.75 11.95 6.0 L15.45 6.6" fill="#8b5b37" fill-rule="evenodd" stroke="none"/>
      <path d="M45.9 34.0 L45.8 33.6 44.85 33.55 Q46.65 32.75 48.1 32.75 47.3 32.95 47.15 33.35 L48.15 33.6 49.15 33.55 50.35 33.7 51.0 33.9 46.5 33.9 45.9 34.0" fill="#805432" fill-rule="evenodd" stroke="none"/>
      <path d="M33.15 38.0 L32.8 38.25 33.0 37.3 33.15 37.75 33.15 38.0" fill="#805432" fill-rule="evenodd" stroke="none"/>
      <path d="M18.0 43.5 L17.85 43.05 Q17.6 42.15 17.6 40.15 L18.6 41.75 Q18.7 43.35 19.65 44.05 L20.65 44.65 21.5 45.35 22.15 46.35 22.95 47.2 24.15 47.55 25.3 47.9 26.5 48.6 24.65 48.9 Q22.2 48.9 20.85 47.75 20.35 47.35 20.35 46.35 20.3 45.3 19.85 44.9 L19.05 44.4 Q18.45 44.1 18.2 43.8 L18.0 43.5" fill="#805432" fill-rule="evenodd" stroke="none"/>
      <path d="M25.3 40.2 L26.05 40.7 26.65 41.8 24.5 40.35 24.25 40.15 24.45 39.25 25.3 40.2" fill="#805432" fill-rule="evenodd" stroke="none"/>
      <path d="M15.95 41.2 L15.7 40.4 15.65 39.55 Q15.55 38.6 15.6 37.25 L15.65 35.15 Q15.65 36.35 16.15 37.6 L17.5 39.95 17.25 42.15 16.8 40.3 17.0 42.6 17.15 43.1 16.95 45.05 16.95 45.2 15.65 45.5 Q16.15 45.0 16.15 44.2 L16.15 43.9 16.6 43.55 Q17.05 42.95 16.7 42.1 L16.8 42.0 15.95 41.2" fill="#805432" fill-rule="evenodd" stroke="none"/>
      <path d="M21.95 37.4 Q22.0 37.0 21.55 36.9 L21.1 35.6 21.9 35.9 23.3 37.3 Q23.8 38.45 24.4 39.2 L23.9 39.8 22.3 38.1 21.95 37.4" fill="#805432" fill-rule="evenodd" stroke="none"/>
      <path d="M51.3 33.35 L51.0 32.75 Q52.95 32.4 56.2 33.4 L51.3 33.35" fill="#805432" fill-rule="evenodd" stroke="none"/>
      <path d="M25.05 44.15 L27.7 43.9 27.95 43.9 Q27.85 43.5 28.1 43.35 L30.3 45.0 30.1 45.55 28.6 45.6 27.2 44.9 25.75 44.4 23.9 44.45 22.15 44.2 21.25 43.7 21.8 43.85 25.05 44.15" fill="#805432" fill-rule="evenodd" stroke="none"/>
      <path d="M35.45 43.45 Q35.35 43.85 34.9 44.05 L34.5 44.15 32.15 43.75 Q31.85 44.3 29.65 43.45 L28.85 43.0 30.6 43.1 27.8 42.25 26.6 41.0 Q28.3 41.8 30.2 41.9 31.1 41.95 31.65 41.35 L32.35 39.85 33.55 39.9 Q35.1 40.05 35.45 40.75 L35.55 41.65 35.45 42.55 35.45 43.45" fill="#805432" fill-rule="evenodd" stroke="none"/>
      <path d="M31.75 55.75 L31.2 56.9 30.75 56.85 30.45 55.55 Q29.95 54.5 28.0 54.6 L28.85 53.9 30.0 53.9 Q30.6 53.9 31.0 54.2 31.55 54.6 31.75 55.75" fill="#805432" fill-rule="evenodd" stroke="none"/>
      <path d="M36.9 30.95 L37.15 33.2 37.15 33.25 Q36.45 32.55 36.65 31.55 L36.9 30.95" fill="#805432" fill-rule="evenodd" stroke="none"/>
      <path d="M13.95 48.3 Q12.3 48.1 11.65 47.05 L11.6 46.85 13.3 46.75 Q13.95 46.7 14.65 46.25 L15.35 45.8 16.55 46.05 16.35 46.3 17.2 46.9 17.15 47.4 17.05 48.0 16.5 48.3 15.05 48.4 14.95 47.75 14.5 47.4 Q14.15 47.35 14.0 47.65 13.85 47.95 13.95 48.3" fill="#805432" fill-rule="evenodd" stroke="none"/>
      <path d="M47.95 35.25 L52.45 35.25 54.45 35.4 54.5 35.1 55.25 35.2 Q55.65 35.45 55.45 35.9 L53.8 36.1 55.0 36.5 55.45 36.75 55.45 36.9 54.25 36.95 53.3 36.55 51.45 36.25 49.7 36.2 49.75 36.25 47.15 36.2 47.1 35.85 47.95 35.25" fill="#805432" fill-rule="evenodd" stroke="none"/>
      <path d="M8.3 46.9 L6.65 46.55 8.3 46.7 8.3 46.9" fill="#805432" fill-rule="evenodd" stroke="none"/>
      <path d="M46.25 35.25 L47.4 35.2 Q47.1 35.5 47.1 35.85 L44.15 38.0 Q44.3 37.45 44.8 37.05 L45.6 36.7 46.15 36.1 46.05 35.65 46.25 35.25" fill="#805432" fill-rule="evenodd" stroke="none"/>
      <path d="M24.95 67.05 L24.8 66.9 Q24.35 67.0 24.5 67.4 L24.95 67.05 M27.45 65.9 L27.15 65.75 Q26.85 65.9 27.0 66.2 L27.45 65.9 M26.45 60.05 L26.95 59.25 27.1 58.7 Q28.1 58.6 28.45 58.95 L28.7 59.95 28.65 61.1 28.6 62.7 28.25 63.6 27.4 64.4 Q28.35 64.2 28.65 64.95 L28.85 66.4 30.2 66.55 Q30.8 66.75 30.95 67.55 L29.05 67.25 27.15 67.05 26.15 67.7 25.6 68.75 24.9 70.2 24.65 70.3 24.0 69.75 23.55 70.5 22.7 70.55 21.55 71.45 20.35 71.45 20.35 72.0 20.15 72.5 19.6 72.65 19.65 72.4 19.35 71.95 18.85 71.65 19.2 71.25 20.5 71.3 21.85 70.95 22.4 70.35 22.65 69.55 Q22.8 69.05 23.1 68.9 L23.85 68.45 Q24.3 68.0 24.0 66.9 23.9 66.3 24.05 66.15 L24.8 65.95 25.35 65.9 Q25.45 66.25 25.7 66.25 L26.15 65.9 26.1 65.75 Q27.2 65.5 27.6 64.8 L26.4 64.45 Q25.6 64.3 25.85 63.6 27.2 63.5 27.65 62.7 L27.9 61.65 27.8 60.55 Q27.55 60.05 26.45 60.05" fill="#805432" fill-rule="evenodd" stroke="none"/>
      <path d="M31.2 56.9 Q30.75 57.4 29.8 57.55 L27.2 57.8 26.7 57.45 Q27.4 57.1 28.55 56.9 L30.75 56.85 31.2 56.9" fill="#805432" fill-rule="evenodd" stroke="none"/>
      <path d="M24.05 65.3 L22.45 66.25 20.8 66.9 19.15 66.9 16.5 66.75 14.75 66.7 16.35 66.2 17.7 66.4 20.8 66.4 22.3 66.2 23.45 65.4 Q24.15 64.85 24.7 64.7 L24.5 65.05 24.05 65.3" fill="#805432" fill-rule="evenodd" stroke="none"/>
      <path d="M22.95 66.35 L24.05 65.3 24.5 65.1 22.95 66.35" fill="#805432" fill-rule="evenodd" stroke="none"/>
      <path d="M15.95 19.3 L15.6 19.75 15.4 18.9 Q15.95 19.1 15.95 19.3" fill="#805432" fill-rule="evenodd" stroke="none"/>
      <path d="M14.8 16.0 Q14.45 16.75 14.75 17.9 L15.0 18.5 14.85 18.4 13.7 18.15 Q13.35 18.0 13.3 17.15 13.3 14.55 11.75 13.5 11.15 13.05 9.65 12.65 L8.85 12.65 Q8.6 12.75 8.3 13.2 L8.0 13.6 7.65 13.6 Q8.0 12.6 8.95 12.4 9.9 12.2 10.95 12.8 12.2 13.5 13.0 14.25 L13.8 15.2 14.8 16.0" fill="#805432" fill-rule="evenodd" stroke="none"/>
      <path d="M7.65 21.3 L7.7 21.3 8.8 21.6 9.1 21.75 9.1 21.6 9.15 21.6 10.0 22.85 11.3 23.75 11.3 22.45 Q11.25 21.6 11.35 21.1 11.9 21.15 12.15 21.6 L12.5 22.55 Q12.75 22.05 12.65 21.0 L14.25 20.9 Q14.6 20.6 14.2 20.25 L13.2 19.55 Q14.1 19.6 14.75 20.5 L14.15 21.3 Q13.45 22.25 13.65 23.3 L13.85 23.8 13.65 24.25 12.6 24.45 10.8 24.4 10.8 24.1 10.35 24.35 9.5 24.15 Q8.6 23.95 8.0 23.3 L8.0 22.95 7.9 22.7 8.4 22.5 7.7 22.0 Q7.25 21.6 7.65 21.3" fill="#805432" fill-rule="evenodd" stroke="none"/>
      <path d="M17.65 22.9 L17.95 22.5 17.65 23.35 17.65 22.9" fill="#805432" fill-rule="evenodd" stroke="none"/>
      <path d="M17.15 12.8 L17.1 14.45 Q16.8 13.35 16.8 12.6 16.8 11.7 16.45 11.3 16.15 10.95 15.2 10.6 L13.4 9.6 Q15.1 10.05 15.8 10.6 17.05 11.65 17.15 12.8" fill="#805432" fill-rule="evenodd" stroke="none"/>
      <path d="M21.45 28.95 L21.7 27.95 22.0 26.9 22.4 26.35 Q22.95 26.05 23.65 26.05 24.25 26.55 23.85 27.05 23.15 27.3 22.95 28.1 L22.8 29.55 22.8 29.6 Q22.0 30.55 21.8 31.15 L21.55 31.3 21.8 28.8 20.85 31.55 20.2 31.65 20.75 31.25 Q21.25 30.7 21.45 28.95" fill="#805432" fill-rule="evenodd" stroke="none"/>
      <path d="M20.3 12.95 L20.6 13.8 20.7 14.0 20.75 14.8 20.8 16.3 20.95 17.6 20.0 17.6 19.75 16.6 19.15 15.8 Q18.95 16.7 19.7 18.1 L20.2 19.05 20.3 20.1 Q19.6 20.2 19.15 19.65 18.9 20.4 19.8 20.85 L20.65 20.9 21.45 20.8 Q22.2 20.95 22.5 22.4 22.8 23.7 22.5 24.45 L21.95 24.9 21.25 25.25 Q20.95 25.5 20.95 26.7 L20.8 27.1 20.55 28.05 20.0 28.85 Q19.55 29.25 18.7 29.4 L18.55 29.3 18.7 28.0 18.65 26.65 18.3 28.1 Q17.9 29.1 17.3 29.15 16.6 29.2 16.9 28.0 L17.45 26.45 Q18.4 23.9 18.35 21.85 L18.3 19.3 17.8 16.95 17.45 15.5 17.45 15.45 17.8 13.6 17.8 13.45 17.85 13.3 17.85 12.95 17.95 12.0 18.2 11.1 Q18.8 12.05 19.45 12.5 L20.3 12.95" fill="#805432" fill-rule="evenodd" stroke="none"/>
      <path d="M15.5 27.95 L15.0 28.6 Q14.8 28.95 14.9 29.2 L15.1 29.7 14.85 29.8 Q14.5 30.0 14.7 30.9 L14.95 30.75 15.8 30.7 15.8 30.55 16.8 30.55 18.15 31.55 17.1 31.85 Q16.8 32.6 16.35 32.55 16.35 31.7 16.15 31.4 L15.8 31.1 15.3 31.05 13.85 31.3 12.95 31.75 Q11.9 31.95 11.2 31.4 L12.45 31.75 13.55 31.45 14.45 30.75 12.65 30.75 Q11.65 30.75 11.15 30.35 L10.7 29.8 10.3 29.25 10.35 28.45 10.65 29.15 10.95 29.95 11.45 30.5 12.25 30.55 Q13.4 30.55 13.85 29.9 14.2 29.5 14.15 28.7 L14.15 27.3 Q14.85 27.95 15.5 27.95" fill="#805432" fill-rule="evenodd" stroke="none"/>
      <path d="M7.65 30.2 L8.0 30.4 8.45 30.55 8.45 30.05 9.4 31.05 8.15 31.25 7.15 30.9 7.3 30.8 7.4 30.45 Q7.45 30.25 7.65 30.2" fill="#805432" fill-rule="evenodd" stroke="none"/>
      <path d="M4.15 30.6 Q3.7 30.45 3.5 29.9 L3.15 28.95 2.7 28.45 2.8 28.3 3.3 28.45 4.05 29.25 Q4.5 29.7 5.1 29.6 L5.6 29.3 5.95 29.25 6.7 28.4 7.15 27.2 7.15 27.95 7.0 28.9 6.65 29.8 Q6.35 30.2 5.55 30.4 L4.25 30.25 4.65 30.65 4.15 30.6" fill="#805432" fill-rule="evenodd" stroke="none"/>
      <path d="M10.1 38.6 L10.4 38.2 9.95 39.05 9.95 38.9 10.1 38.6" fill="#805432" fill-rule="evenodd" stroke="none"/>
      <path d="M10.8 37.75 Q10.7 39.3 10.0 39.9 L9.65 40.1 9.85 39.55 10.45 38.1 10.55 37.95 10.8 37.75" fill="#805432" fill-rule="evenodd" stroke="none"/>
      <path d="M5.95 38.8 Q6.15 39.15 7.2 39.35 L8.65 39.4 8.8 39.35 8.75 39.95 7.25 40.05 6.6 39.45 5.95 38.8" fill="#805432" fill-rule="evenodd" stroke="none"/>
      <path d="M9.3 39.2 L10.0 38.65 9.95 38.9 9.8 39.1 9.3 39.2" fill="#805432" fill-rule="evenodd" stroke="none"/>
      <path d="M8.8 42.35 L8.95 42.15 Q9.25 42.6 9.95 42.7 L11.3 42.6 12.4 42.15 Q13.1 42.35 13.35 41.7 L13.65 41.6 Q13.15 42.8 11.0 42.9 L12.0 43.05 11.35 43.25 12.65 43.15 13.7 43.05 15.0 42.9 15.0 41.65 15.75 42.3 14.85 43.55 13.6 44.1 11.65 44.25 Q11.9 45.15 13.5 45.25 L14.45 45.25 14.85 44.95 15.15 44.5 16.15 43.9 16.15 44.2 Q16.15 45.0 15.65 45.5 L15.15 45.6 15.35 45.8 14.65 46.25 Q13.95 46.7 13.3 46.75 L11.6 46.85 Q11.45 45.5 11.0 45.05 L9.9 44.45 8.95 43.6 Q8.7 43.1 8.8 42.35" fill="#805432" fill-rule="evenodd" stroke="none"/>
      <path d="M1.95 44.25 L1.85 43.05 1.35 42.55 0.65 42.6 Q0.05 43.1 0.6 43.75 L1.65 44.55 1.95 44.25 M5.65 44.05 L4.95 43.55 4.4 43.75 Q4.05 43.95 4.15 44.25 4.3 44.65 5.0 44.6 5.7 44.6 5.65 44.05 M5.65 41.4 Q6.05 41.35 6.45 41.0 6.95 40.6 7.2 40.55 L7.3 40.75 7.3 40.9 6.95 40.95 7.3 41.25 7.2 41.7 Q6.9 42.6 7.1 43.4 7.25 44.6 7.5 45.1 L8.05 45.85 8.3 46.7 6.65 46.55 Q5.25 45.45 4.45 45.25 L3.7 45.1 3.45 44.6 2.65 44.55 1.95 44.9 2.1 45.0 1.7 44.9 0.55 44.35 0.45 44.0 0.1 41.25 0.0 37.6 0.15 37.0 Q0.25 37.65 0.5 38.15 0.85 38.85 1.3 38.7 L1.35 37.45 1.6 36.55 1.8 35.7 Q1.8 38.1 2.8 39.7 L2.85 40.05 3.05 40.05 3.65 40.75 4.35 41.25 3.6 41.25 3.2 41.0 2.85 40.65 2.15 39.75 Q2.3 38.9 1.95 38.6 1.7 38.9 1.75 39.85 L1.95 41.25 Q2.35 42.05 3.4 42.3 L5.3 42.4 5.65 41.4" fill="#805432" fill-rule="evenodd" stroke="none"/>
      <path d="M37.15 33.2 L36.9 30.95 37.45 30.25 38.85 30.0 39.0 29.9 39.8 29.7 39.85 29.7 40.75 29.65 Q39.85 29.95 39.5 31.25 39.25 32.3 40.35 32.95 41.2 33.45 42.55 33.55 L44.85 33.55 45.8 33.6 45.9 34.0 45.45 34.15 45.4 34.2 45.45 34.1 45.35 34.2 43.9 34.25 44.75 34.05 42.9 34.1 40.85 34.35 38.3 33.9 37.8 33.85 37.15 33.25 37.15 33.2" fill="#805432" fill-rule="evenodd" stroke="none"/>
      <path d="M27.1 39.65 Q26.85 40.1 27.0 40.4 L27.7 40.65 28.5 40.55 28.65 39.55 27.65 39.05 Q27.3 39.2 27.1 39.65 M26.8 34.4 L25.8 34.55 25.8 36.25 26.05 37.05 Q26.35 37.45 26.8 37.25 27.35 37.05 27.2 35.9 L26.8 34.4 M21.65 32.05 Q21.65 31.55 21.8 31.15 22.0 30.55 22.8 29.6 L22.8 29.55 22.85 29.5 22.95 30.3 Q21.8 34.3 24.3 36.85 L24.25 35.0 Q24.35 36.0 24.7 36.55 25.05 36.15 24.95 35.0 24.85 33.9 25.45 33.4 L24.95 32.75 24.45 33.3 Q24.8 32.1 25.65 31.75 L27.75 31.6 28.2 31.75 28.35 32.05 28.15 32.4 Q27.5 32.3 27.25 33.2 L27.15 34.6 Q27.25 36.3 28.6 36.85 28.15 36.45 28.05 36.05 L27.95 35.1 27.95 34.05 Q28.0 33.35 28.5 32.15 L28.7 32.25 28.8 32.25 29.8 34.1 31.45 36.05 32.3 36.65 33.0 37.3 32.8 38.25 31.5 38.7 Q29.9 38.25 28.8 37.45 28.8 38.25 30.65 39.35 L32.35 39.85 31.65 41.35 Q31.1 41.95 30.2 41.9 28.3 41.8 26.6 41.0 L25.95 40.1 26.05 40.7 25.3 40.2 24.45 39.25 24.45 39.05 24.4 39.2 Q23.8 38.45 23.3 37.3 L22.8 36.25 Q21.65 33.65 21.65 32.05" fill="#805432" fill-rule="evenodd" stroke="none"/>
      <path d="M47.4 35.2 L46.25 35.25 46.05 35.65 46.15 36.1 45.6 36.7 44.8 37.05 Q44.3 37.45 44.15 38.0 L43.05 38.8 42.65 37.35 44.8 34.7 48.75 34.6 Q47.75 34.05 45.45 34.15 L45.9 34.0 46.5 33.9 51.0 33.9 52.45 33.9 55.45 34.6 55.45 36.75 55.0 36.5 53.8 36.1 55.45 35.9 Q55.65 35.45 55.25 35.2 L54.5 35.1 54.45 35.4 52.45 35.25 47.95 35.25 48.65 34.75 Q47.85 34.85 47.4 35.2" fill="#704a2d" fill-rule="evenodd" stroke="none"/>
      <path d="M56.75 33.4 L56.85 33.75 52.4 33.4 56.75 33.4" fill="#704a2d" fill-rule="evenodd" stroke="none"/>
      <path d="M47.4 35.2 Q47.85 34.85 48.65 34.75 L47.1 35.85 Q47.1 35.5 47.4 35.2" fill="#704a2d" fill-rule="evenodd" stroke="none"/>
      <path d="M47.15 36.2 L49.75 36.25 49.9 36.75 49.2 37.1 47.45 37.05 Q46.15 37.25 45.65 37.75 L43.8 39.05 43.1 38.85 43.05 38.8 47.1 35.85 47.15 36.2" fill="#704a2d" fill-rule="evenodd" stroke="none"/>
      <path d="M51.45 36.25 L53.3 36.55 54.25 36.95 53.0 36.75 52.25 36.45 51.45 36.25" fill="#704a2d" fill-rule="evenodd" stroke="none"/>
      <path d="M6.15 9.3 Q5.85 9.2 6.15 8.0 L7.15 7.3 6.4 10.25 6.15 9.3" fill="#704a2d" fill-rule="evenodd" stroke="none"/>
      <path d="M9.95 8.95 L10.8 9.0 Q10.7 9.1 10.55 9.15 L8.8 10.3 6.65 11.1 6.55 10.8 6.55 10.75 6.5 10.55 8.05 9.3 Q9.1 8.5 9.5 8.3 L9.95 8.95" fill="#704a2d" fill-rule="evenodd" stroke="none"/>
      <path d="M17.95 22.5 L18.0 22.45 18.0 21.65 Q17.95 21.15 18.3 20.95 L18.35 21.85 Q18.4 23.9 17.45 26.45 L16.9 28.0 Q16.6 29.2 17.3 29.15 17.9 29.1 18.3 28.1 L18.65 26.65 18.7 28.0 18.55 29.3 18.7 29.4 17.95 29.5 17.95 29.45 16.65 29.35 16.35 28.7 Q16.2 29.0 16.45 29.3 L16.15 29.3 15.7 29.75 15.1 29.7 14.9 29.2 Q14.8 28.95 15.0 28.6 L15.5 27.95 16.6 26.45 17.0 25.1 17.45 23.75 17.65 23.35 17.95 22.5" fill="#704a2d" fill-rule="evenodd" stroke="none"/>
      <path d="M15.8 30.7 L14.95 30.75 15.8 30.55 15.8 30.7" fill="#704a2d" fill-rule="evenodd" stroke="none"/>
      <path d="M20.75 14.8 L20.7 14.0 21.3 15.1 21.45 15.45 22.2 18.0 22.55 19.4 Q22.35 19.7 21.85 19.65 L21.15 19.35 22.2 20.3 22.2 20.35 22.25 20.35 22.5 20.5 23.0 21.3 23.15 22.3 Q23.3 23.7 22.85 24.55 L22.15 25.25 Q21.5 25.5 21.5 25.95 L21.6 25.95 20.95 26.7 Q20.95 25.5 21.25 25.25 L21.95 24.9 22.5 24.45 Q22.8 23.7 22.5 22.4 22.2 20.95 21.45 20.8 L20.65 20.9 19.8 20.85 Q18.9 20.4 19.15 19.65 19.6 20.2 20.3 20.1 L20.2 19.05 19.7 18.1 Q18.95 16.7 19.15 15.8 L19.75 16.6 20.0 17.6 20.95 17.6 20.8 16.3 20.75 14.8" fill="#704a2d" fill-rule="evenodd" stroke="none"/>
      <path d="M17.9 30.05 L18.3 30.05 Q18.8 30.15 19.8 31.05 L20.05 30.55 20.5 30.2 21.25 29.3 21.45 28.95 Q21.25 30.7 20.75 31.25 L20.2 31.65 18.15 31.6 18.15 31.55 16.8 30.55 Q17.65 30.65 17.9 30.05" fill="#704a2d" fill-rule="evenodd" stroke="none"/>
      <path d="M18.3 11.0 Q19.3 10.3 20.3 12.95 L19.45 12.5 Q18.8 12.05 18.2 11.1 L18.3 11.0" fill="#704a2d" fill-rule="evenodd" stroke="none"/>
      <path d="M16.45 9.75 L16.85 10.45 16.95 11.3 17.3 13.0 17.45 14.85 17.8 13.45 17.8 13.6 17.45 15.45 17.45 15.75 Q17.1 15.45 17.1 14.45 L17.15 12.8 Q17.05 11.65 15.8 10.6 15.1 10.05 13.4 9.6 L13.3 9.6 11.2 9.05 10.8 9.0 9.95 8.95 9.5 8.3 9.6 8.3 11.35 8.15 13.15 8.3 15.15 8.65 16.45 9.75" fill="#704a2d" fill-rule="evenodd" stroke="none"/>
      <path d="M24.8 27.3 L24.05 27.45 24.2 27.2 24.8 27.3" fill="#704a2d" fill-rule="evenodd" stroke="none"/>
      <path d="M36.0 30.95 L36.05 30.0 36.65 29.9 Q36.95 29.9 37.45 30.25 L36.9 30.95 36.65 31.55 Q36.45 32.55 37.15 33.25 L37.8 33.85 Q36.75 33.65 36.5 32.55 L36.0 30.95" fill="#704a2d" fill-rule="evenodd" stroke="none"/>
      <path d="M25.95 40.1 L26.6 41.0 27.8 42.25 28.85 43.0 29.65 43.45 28.95 43.1 Q28.3 43.7 30.15 44.4 30.4 44.65 30.3 45.0 L28.1 43.35 26.65 41.8 26.05 40.7 25.95 40.1" fill="#704a2d" fill-rule="evenodd" stroke="none"/>
      <path d="M29.65 31.55 Q29.55 32.75 30.4 32.6 L30.85 32.15 30.8 31.4 29.65 31.55 M23.8 31.05 Q23.1 31.15 23.35 31.7 23.85 31.85 24.15 31.05 L23.8 31.05 M24.45 28.8 L24.05 28.8 24.25 28.65 Q24.4 28.55 25.2 28.2 L25.95 27.65 26.6 26.7 Q27.0 26.25 27.65 26.3 28.05 26.3 28.5 26.6 L29.2 27.0 Q29.3 28.2 28.05 29.0 L30.8 29.1 Q31.55 29.4 32.95 30.2 L33.95 30.45 Q35.0 30.8 35.25 32.2 35.4 33.9 35.65 34.55 L36.2 35.5 36.75 36.4 Q37.75 38.75 37.65 39.6 L37.15 42.1 Q37.0 43.25 35.9 44.55 L36.05 44.7 35.15 45.5 34.6 45.8 33.95 45.3 33.1 44.9 35.15 44.25 34.5 44.15 34.9 44.05 Q35.35 43.85 35.45 43.45 L35.45 42.55 35.55 41.65 35.45 40.75 Q35.1 40.05 33.55 39.9 L32.35 39.85 30.65 39.35 Q28.8 38.25 28.8 37.45 29.9 38.25 31.5 38.7 L30.15 38.7 32.65 39.05 Q33.55 39.2 34.95 40.0 35.1 39.55 34.65 38.55 L34.6 37.75 34.3 37.05 33.05 35.95 31.6 34.9 32.3 35.9 Q33.0 36.05 33.3 36.7 33.55 37.4 33.2 37.95 L33.15 38.0 33.15 37.75 33.0 37.3 32.3 36.65 31.45 36.05 29.8 34.1 28.8 32.25 Q29.5 32.25 29.55 31.35 29.55 30.5 28.95 30.4 L28.65 30.4 Q28.3 30.45 28.2 30.95 28.05 31.35 28.2 31.75 L27.75 31.6 25.65 31.75 Q24.8 32.1 24.45 33.3 24.15 33.95 24.25 35.0 L24.3 36.85 Q21.8 34.3 22.95 30.3 L23.15 30.85 23.65 29.4 23.7 29.65 Q24.1 30.3 24.55 29.75 L24.95 28.8 24.45 28.8" fill="#704a2d" fill-rule="evenodd" stroke="none"/>
      <path d="M42.65 37.35 L43.05 38.8 43.1 38.85 Q42.45 38.6 42.35 37.7 L42.65 37.35" fill="#704a2d" fill-rule="evenodd" stroke="none"/>
      <path d="M42.65 35.1 L44.8 34.7 42.35 37.7 42.3 37.25 42.25 36.25 Q42.3 35.65 42.5 35.25 L42.65 35.1" fill="#704a2d" fill-rule="evenodd" stroke="none"/>
      <path d="M25.75 44.4 L27.2 44.9 28.6 45.6 30.1 45.55 30.3 45.0 Q30.4 44.65 30.15 44.4 L30.5 44.55 33.1 44.9 33.95 45.3 34.6 45.8 34.2 45.95 30.55 46.4 27.3 46.4 24.7 45.85 Q23.5 45.5 22.3 44.55 L20.45 43.4 Q19.5 42.8 19.0 41.6 L19.95 42.55 21.25 43.7 22.15 44.2 23.9 44.45 25.75 44.4" fill="#704a2d" fill-rule="evenodd" stroke="none"/>
      <path d="M10.5 38.0 L10.45 38.1 9.85 39.55 9.95 39.05 10.4 38.2 10.45 38.05 10.5 38.0" fill="#704a2d" fill-rule="evenodd" stroke="none"/>
      <path d="M16.8 40.3 L17.25 42.15 17.15 43.1 17.0 42.6 16.8 40.3" fill="#704a2d" fill-rule="evenodd" stroke="none"/>
      <path d="M16.95 45.2 L16.55 46.05 15.35 45.8 15.15 45.6 15.65 45.5 16.95 45.2" fill="#704a2d" fill-rule="evenodd" stroke="none"/>
      <path d="M18.55 47.1 Q18.2 46.6 18.15 46.05 L18.15 44.25 18.0 43.5 18.2 43.8 Q18.45 44.1 19.05 44.4 L19.85 44.9 Q20.3 45.3 20.35 46.35 20.35 47.35 20.85 47.75 22.2 48.9 24.65 48.9 L26.5 48.6 Q27.2 49.2 26.8 49.9 26.6 50.4 25.7 50.45 L24.35 50.4 22.55 50.25 Q20.65 49.65 20.0 48.95 L20.15 49.25 19.2 48.05 18.55 47.1" fill="#704a2d" fill-rule="evenodd" stroke="none"/>
      <path d="M24.0 51.95 L21.8 52.05 21.2 51.9 20.05 51.15 Q19.4 50.65 18.8 50.75 L16.9 51.1 14.6 50.75 16.45 50.55 Q17.6 50.25 18.1 49.75 L18.5 49.2 19.2 49.05 20.05 49.45 20.9 49.85 22.8 50.85 Q24.75 51.75 25.45 51.75 L24.75 51.95 24.0 51.95" fill="#704a2d" fill-rule="evenodd" stroke="none"/>
      <path d="M8.8 42.35 Q8.7 43.1 8.95 43.6 L9.9 44.45 11.0 45.05 Q11.45 45.5 11.6 46.85 L11.65 47.05 Q12.3 48.1 13.95 48.3 14.05 48.75 14.4 48.7 L14.45 48.55 14.65 48.9 15.05 48.4 16.5 48.3 17.05 48.0 17.15 47.4 17.2 46.9 Q17.75 47.45 17.8 47.9 17.95 48.5 17.6 48.9 L16.65 49.45 15.35 49.9 Q14.3 50.3 14.0 50.65 L12.15 50.25 12.45 50.8 12.6 51.4 10.7 51.2 9.95 50.75 Q9.85 49.65 10.05 49.05 L10.3 48.5 10.5 47.9 10.45 46.75 10.8 47.35 10.65 46.05 10.2 45.65 9.6 45.4 8.5 44.2 Q8.1 43.4 8.5 42.6 L8.8 42.35" fill="#704a2d" fill-rule="evenodd" stroke="none"/>
      <path d="M4.45 48.4 L4.65 47.75 3.8 47.55 Q3.7 47.9 3.9 48.2 4.1 48.45 4.45 48.4 M7.3 41.25 L7.95 41.45 7.8 43.25 Q7.85 44.1 8.5 44.9 L10.2 46.45 9.15 47.05 8.6 46.95 7.95 47.2 6.2 47.1 Q6.5 47.5 7.85 47.75 8.85 47.95 8.8 48.9 L8.7 49.55 8.5 49.4 7.25 49.25 5.85 49.4 4.1 49.25 Q2.05 48.05 1.1 46.35 L0.75 45.4 0.55 44.35 1.7 44.9 2.1 45.0 2.6 45.4 2.0 45.25 Q1.8 46.15 1.95 46.4 2.15 46.8 2.5 46.7 L3.15 46.4 3.8 46.4 2.85 45.6 3.65 46.25 3.7 45.1 4.45 45.25 Q5.25 45.45 6.65 46.55 L8.3 46.9 8.3 46.7 8.05 45.85 7.5 45.1 Q7.25 44.6 7.1 43.4 6.9 42.6 7.2 41.7 L7.3 41.25" fill="#704a2d" fill-rule="evenodd" stroke="none"/>
      <path d="M30.5 53.05 Q31.15 52.9 31.6 53.05 32.45 53.3 32.55 54.8 L31.8 55.05 31.75 55.75 Q31.55 54.6 31.0 54.2 30.6 53.9 30.0 53.9 L28.85 53.9 29.5 53.45 Q29.85 53.2 30.5 53.05" fill="#704a2d" fill-rule="evenodd" stroke="none"/>
      <path d="M8.8 40.9 L8.15 40.55 Q7.85 40.9 7.3 40.9 L7.3 40.75 7.2 40.55 Q6.9 40.25 7.0 39.95 L7.25 40.05 8.75 39.95 8.8 40.9" fill="#704a2d" fill-rule="evenodd" stroke="none"/>
      <path d="M28.45 58.95 Q28.1 58.6 27.1 58.7 L27.25 57.85 27.2 57.8 29.8 57.55 Q30.75 57.4 31.2 56.9 L31.75 55.75 31.8 55.05 32.55 54.8 32.55 55.3 32.2 55.6 32.55 55.55 32.45 56.25 31.2 57.75 30.05 58.2 28.5 57.75 29.25 58.25 28.65 58.25 Q29.85 58.45 30.1 59.15 L29.25 60.9 28.6 62.7 28.65 61.1 28.7 59.95 28.45 58.95" fill="#704a2d" fill-rule="evenodd" stroke="none"/>
      <path d="M28.0 64.2 L29.35 65.55 30.2 66.05 Q30.95 66.25 31.2 66.4 L32.6 67.55 32.55 67.55 31.1 68.35 30.05 68.45 29.3 68.05 27.65 67.9 27.65 68.05 27.55 68.05 Q26.95 68.1 26.6 68.5 L26.0 69.35 25.0 70.15 24.9 70.2 25.6 68.75 26.15 67.7 27.15 67.05 29.05 67.25 30.95 67.55 Q30.8 66.75 30.2 66.55 L28.85 66.4 28.65 64.95 Q28.35 64.2 27.4 64.4 L28.25 63.6 28.0 64.2" fill="#704a2d" fill-rule="evenodd" stroke="none"/>
      <path d="M20.35 71.45 L21.55 71.45 21.0 72.05 Q20.65 72.35 20.15 72.5 L20.35 72.0 20.35 71.45" fill="#704a2d" fill-rule="evenodd" stroke="none"/>
      <path d="M24.0 69.75 L24.65 70.3 24.2 70.45 23.55 70.5 24.0 69.75" fill="#704a2d" fill-rule="evenodd" stroke="none"/>
      <path d="M12.8 67.35 Q13.1 67.15 13.7 66.95 L14.75 66.7 16.5 66.75 19.15 66.9 20.8 66.9 22.45 66.25 23.95 65.4 22.95 66.35 22.65 66.75 21.75 67.75 19.45 67.65 17.1 67.75 12.8 67.35" fill="#704a2d" fill-rule="evenodd" stroke="none"/>
      <path d="M20.8 66.4 L20.15 66.4 Q20.0 65.95 20.45 65.55 L21.3 65.25 21.3 66.05 Q21.2 66.3 20.8 66.4" fill="#704a2d" fill-rule="evenodd" stroke="none"/>
      <path d="M23.6 67.2 L22.9 67.05 Q22.55 66.8 22.95 66.55 L23.65 66.9 23.6 67.2" fill="#704a2d" fill-rule="evenodd" stroke="none"/>
      <path d="M24.95 67.05 L24.5 67.4 Q24.35 67.0 24.8 66.9 L24.95 67.05" fill="#704a2d" fill-rule="evenodd" stroke="none"/>
      <path d="M25.95 65.4 L26.15 65.9 25.7 66.25 Q25.45 66.25 25.35 65.9 L25.35 65.45 25.95 65.4" fill="#704a2d" fill-rule="evenodd" stroke="none"/>
      <path d="M27.45 65.9 L27.0 66.2 Q26.85 65.9 27.15 65.75 L27.45 65.9" fill="#704a2d" fill-rule="evenodd" stroke="none"/>
      <path d="M5.6 41.4 L5.65 41.4 5.3 42.4 3.4 42.3 Q2.35 42.05 1.95 41.25 L1.75 39.85 Q1.7 38.9 1.95 38.6 2.3 38.9 2.15 39.75 L2.85 40.65 2.65 40.55 Q2.55 41.7 4.0 42.05 5.0 42.25 5.6 41.4" fill="#704a2d" fill-rule="evenodd" stroke="none"/>
      <path d="M5.65 44.05 Q5.7 44.6 5.0 44.6 4.3 44.65 4.15 44.25 4.05 43.95 4.4 43.75 L4.95 43.55 5.65 44.05" fill="#704a2d" fill-rule="evenodd" stroke="none"/>
      <path d="M1.65 44.55 L0.6 43.75 Q0.05 43.1 0.65 42.6 L1.35 42.55 1.85 43.05 1.95 44.25 1.65 44.55" fill="#704a2d" fill-rule="evenodd" stroke="none"/>
      <path d="M3.65 46.25 L2.1 45.0 1.95 44.9 2.65 44.55 3.45 44.6 3.7 45.1 3.65 46.25" fill="#704a2d" fill-rule="evenodd" stroke="none"/>
      <path d="M14.4 48.7 Q14.05 48.75 13.95 48.3 13.85 47.95 14.0 47.65 14.15 47.35 14.5 47.4 L14.95 47.75 15.05 48.4 14.65 48.9 14.45 48.55 14.4 48.7" fill="#704a2d" fill-rule="evenodd" stroke="none"/>
      <path d="M13.75 41.05 L13.95 36.9 14.4 38.4 13.8 40.75 13.75 41.05" fill="#704a2d" fill-rule="evenodd" stroke="none"/>
      <path d="M13.7 43.05 L14.1 42.85 Q14.55 42.45 14.65 41.55 L14.6 40.4 14.5 38.75 14.95 41.4 15.0 41.65 15.0 42.9 13.7 43.05" fill="#704a2d" fill-rule="evenodd" stroke="none"/>
      <path d="M13.55 31.45 L12.45 31.75 11.2 31.4 11.15 31.35 Q10.0 30.6 10.15 29.15 L10.3 29.25 10.7 29.8 11.15 30.35 Q11.65 30.75 12.65 30.75 L14.45 30.75 13.55 31.45" fill="#704a2d" fill-rule="evenodd" stroke="none"/>
      <path d="M7.0 28.9 L7.15 27.95 7.3 26.3 Q7.35 25.9 7.55 25.4 L7.95 24.6 8.45 24.45 8.1 26.3 Q7.4 27.25 7.35 27.8 7.25 28.3 7.75 29.15 L8.45 30.05 8.45 30.55 8.0 30.4 7.65 30.2 Q7.45 30.25 7.4 30.45 L7.3 30.8 7.15 30.9 Q6.7 31.5 5.95 31.35 5.35 31.3 4.65 30.65 L4.25 30.25 5.55 30.4 Q6.35 30.2 6.65 29.8 L7.0 28.9" fill="#704a2d" fill-rule="evenodd" stroke="none"/>
      <path d="M10.0 22.85 L9.15 21.6 9.6 21.55 10.2 22.25 Q10.5 22.2 10.6 21.6 10.65 21.05 11.3 21.1 L11.35 21.1 Q11.25 21.6 11.3 22.45 L11.3 23.75 10.0 22.85" fill="#704a2d" fill-rule="evenodd" stroke="none"/>
      <path d="M15.25 25.15 L15.05 25.25 Q14.1 25.9 14.1 26.75 13.9 26.65 14.05 26.15 L14.4 25.45 15.15 25.15 15.25 25.15 M15.6 19.75 L16.0 22.3 16.1 23.3 Q16.25 23.95 16.6 24.05 L15.5 24.95 15.65 24.65 Q15.75 24.25 15.45 23.8 L15.45 22.75 15.15 21.3 14.75 20.5 Q14.1 19.6 13.2 19.55 12.75 19.3 12.65 18.9 12.45 18.05 12.65 16.1 12.5 14.3 10.8 13.5 L9.5 13.1 Q8.9 13.1 8.0 13.6 L8.3 13.2 Q8.6 12.75 8.85 12.65 L9.65 12.65 Q11.15 13.05 11.75 13.5 13.3 14.55 13.3 17.15 13.35 18.0 13.7 18.15 L14.85 18.4 15.0 18.5 15.4 18.9 15.6 19.75" fill="#704a2d" fill-rule="evenodd" stroke="none"/>
      <path d="M49.2 37.1 Q48.65 37.35 48.5 37.9 L46.8 38.5 Q46.3 38.65 45.55 39.1 L45.15 39.05 45.2 39.0 43.8 39.05 45.65 37.75 Q46.15 37.25 47.45 37.05 L49.2 37.1" fill="#5d3e27" fill-rule="evenodd" stroke="none"/>
      <path d="M30.55 27.5 Q30.45 27.95 30.6 28.1 L31.45 28.3 32.05 28.25 32.3 28.4 32.75 28.9 32.85 29.25 33.3 29.5 34.1 29.95 34.8 30.95 Q35.45 31.6 36.0 33.15 L36.0 30.95 36.5 32.55 Q36.75 33.65 37.8 33.85 L38.3 33.9 40.85 34.35 Q39.85 34.7 39.45 35.35 L39.6 34.9 37.5 35.1 Q36.9 34.85 36.55 33.85 L36.65 35.75 Q37.0 37.3 37.65 38.3 L38.8 39.95 38.95 41.7 Q39.05 42.85 38.5 43.75 L36.85 45.3 36.65 44.4 35.15 45.5 36.05 44.7 35.9 44.55 Q37.0 43.25 37.15 42.1 L37.65 39.6 Q37.75 38.75 36.75 36.4 L36.2 35.5 35.65 34.55 Q35.4 33.9 35.25 32.2 35.0 30.8 33.95 30.45 L32.95 30.2 Q31.55 29.4 30.8 29.1 L28.05 29.0 Q29.3 28.2 29.2 27.0 L29.3 27.05 29.55 26.65 29.85 26.95 30.55 27.5" fill="#5d3e27" fill-rule="evenodd" stroke="none"/>
      <path d="M44.8 34.7 L42.65 35.1 Q43.05 34.65 43.9 34.25 L45.4 34.2 45.45 34.15 Q47.75 34.05 48.75 34.6 L44.8 34.7" fill="#5d3e27" fill-rule="evenodd" stroke="none"/>
      <path d="M9.8 51.9 L9.8 52.7 7.8 51.3 5.2 49.8 4.1 49.25 5.85 49.4 7.25 49.25 8.5 49.4 8.7 49.55 8.65 50.25 Q8.65 50.85 9.15 51.1 L10.1 51.55 9.95 50.75 10.7 51.2 12.6 51.4 12.45 50.8 12.15 50.25 14.0 50.65 Q13.65 51.0 14.45 51.35 L14.6 50.75 16.9 51.1 18.8 50.75 Q19.4 50.65 20.05 51.15 L21.2 51.9 21.8 52.05 21.45 52.1 21.85 52.6 21.15 52.55 18.15 52.25 Q16.35 51.55 15.3 51.7 L12.55 51.8 9.8 51.9" fill="#5d3e27" fill-rule="evenodd" stroke="none"/>
      <path d="M31.6 53.05 Q31.15 52.9 30.5 53.05 29.85 53.2 29.5 53.45 L28.0 54.6 Q26.9 55.4 26.0 55.7 L25.7 55.8 25.15 54.9 24.95 54.75 25.05 54.75 Q27.5 53.7 28.65 52.55 L29.45 51.85 31.05 50.8 Q32.65 50.15 33.45 50.55 33.95 50.75 34.0 51.55 L34.0 52.75 33.75 54.6 32.55 55.3 32.55 54.8 Q32.45 53.3 31.6 53.05" fill="#5d3e27" fill-rule="evenodd" stroke="none"/>
      <path d="M33.25 55.55 L32.45 56.25 32.55 55.55 33.25 55.55" fill="#5d3e27" fill-rule="evenodd" stroke="none"/>
      <path d="M52.45 33.9 L51.0 33.9 50.35 33.7 50.15 33.45 51.3 33.35 56.85 33.75 56.05 37.9 Q55.5 37.15 54.0 37.05 L51.2 37.4 48.5 37.9 Q48.65 37.35 49.2 37.1 L49.9 36.75 49.75 36.25 49.7 36.2 51.45 36.25 52.25 36.45 53.0 36.75 54.25 36.95 55.45 36.9 55.45 36.75 55.45 34.6 52.45 33.9" fill="#5d3e27" fill-rule="evenodd" stroke="none"/>
      <path d="M35.15 45.5 L36.65 44.4 36.85 45.3 35.9 45.75 Q35.0 45.85 34.8 46.2 L34.7 46.8 34.6 47.4 Q34.35 47.8 33.45 48.2 L32.1 48.75 28.85 48.9 Q29.0 50.55 28.6 51.25 27.95 52.45 25.85 52.55 L21.85 52.6 21.45 52.1 21.8 52.05 24.0 51.95 24.75 51.95 25.45 51.75 Q24.75 51.75 22.8 50.85 L20.9 49.85 21.25 49.9 20.15 49.25 20.0 48.95 Q20.65 49.65 22.55 50.25 L24.35 50.4 25.7 50.45 Q26.6 50.4 26.8 49.9 27.2 49.2 26.5 48.6 L25.3 47.9 24.15 47.55 22.95 47.2 22.15 46.35 21.5 45.35 20.65 44.65 19.65 44.05 Q18.7 43.35 18.6 41.75 L18.6 40.8 18.8 41.05 19.0 41.6 Q19.5 42.8 20.45 43.4 L22.3 44.55 Q23.5 45.5 24.7 45.85 L27.3 46.4 30.55 46.4 34.2 45.95 34.6 45.8 35.15 45.5" fill="#5d3e27" fill-rule="evenodd" stroke="none"/>
      <path d="M16.35 28.7 L16.65 29.35 16.45 29.3 Q16.2 29.0 16.35 28.7" fill="#5d3e27" fill-rule="evenodd" stroke="none"/>
      <path d="M22.45 25.9 L23.3 25.9 Q22.65 26.15 22.4 26.35 L22.0 26.9 21.7 27.95 21.45 28.95 21.25 29.3 20.5 30.2 20.05 30.55 19.8 31.05 Q18.8 30.15 18.3 30.05 L17.9 30.05 17.95 29.5 18.7 29.4 Q19.55 29.25 20.0 28.85 L20.55 28.05 20.8 27.1 20.95 26.7 21.6 25.95 22.45 25.9" fill="#5d3e27" fill-rule="evenodd" stroke="none"/>
      <path d="M23.15 22.3 L23.0 21.3 22.5 20.5 22.25 20.35 Q22.8 20.35 23.0 20.75 L23.45 21.75 23.7 22.15 Q23.8 23.4 23.5 23.95 L22.85 24.55 Q23.3 23.7 23.15 22.3" fill="#5d3e27" fill-rule="evenodd" stroke="none"/>
      <path d="M21.15 19.35 L21.85 19.65 Q22.35 19.7 22.55 19.4 22.65 20.1 22.2 20.3 L21.15 19.35" fill="#5d3e27" fill-rule="evenodd" stroke="none"/>
      <path d="M16.45 9.75 L15.15 8.65 16.0 9.1 16.35 9.55 16.8 9.9 17.45 9.9 18.15 9.75 Q18.7 9.8 19.4 10.65 L20.2 11.95 21.3 15.1 20.6 13.8 20.3 12.95 Q19.3 10.3 18.3 11.0 L18.2 11.1 17.95 12.0 17.85 12.95 17.85 13.3 17.8 13.45 17.45 14.85 17.3 13.0 16.95 11.3 16.85 10.45 16.45 9.75" fill="#5d3e27" fill-rule="evenodd" stroke="none"/>
      <path d="M25.65 24.95 L25.1 24.95 25.3 24.75 25.65 24.95" fill="#5d3e27" fill-rule="evenodd" stroke="none"/>
      <path d="M21.95 71.4 L21.2 72.0 20.55 72.8 20.2 73.05 17.7 73.2 18.0 72.7 18.7 72.75 19.6 72.65 20.15 72.5 Q20.65 72.35 21.0 72.05 L21.55 71.45 22.7 70.55 23.55 70.5 24.2 70.45 23.4 70.55 23.75 70.75 Q23.65 71.25 23.0 71.3 L21.95 71.4" fill="#5d3e27" fill-rule="evenodd" stroke="none"/>
      <path d="M30.1 59.15 L30.15 59.75 29.4 61.45 Q28.8 62.6 28.7 63.25 28.55 64.1 29.1 64.45 L30.35 64.95 31.1 65.55 31.85 66.1 32.7 67.2 33.1 67.45 32.6 67.55 31.2 66.4 Q30.95 66.25 30.2 66.05 L29.35 65.55 28.0 64.2 29.25 60.9 30.1 59.15" fill="#5d3e27" fill-rule="evenodd" stroke="none"/>
      <path d="M29.25 58.25 L28.5 57.75 30.05 58.2 29.25 58.25" fill="#5d3e27" fill-rule="evenodd" stroke="none"/>
      <path d="M27.55 68.05 L27.65 68.05 27.35 69.2 27.3 69.25 26.0 70.4 25.5 70.55 25.45 69.95 25.0 70.15 26.0 69.35 26.6 68.5 Q26.95 68.1 27.55 68.05" fill="#5d3e27" fill-rule="evenodd" stroke="none"/>
      <path d="M12.1 15.3 Q11.8 14.15 11.1 13.8 L8.1 13.6 8.0 13.6 Q8.9 13.1 9.5 13.1 L10.8 13.5 Q12.5 14.3 12.65 16.1 12.45 18.05 12.65 18.9 12.75 19.3 13.2 19.55 L14.2 20.25 Q14.6 20.6 14.25 20.9 L12.65 21.0 Q12.75 22.05 12.5 22.55 L12.15 21.6 Q11.9 21.15 11.35 21.1 L11.3 21.1 Q10.65 21.05 10.6 21.6 10.5 22.2 10.2 22.25 L9.6 21.55 9.85 21.5 10.6 21.05 11.3 20.95 11.9 20.35 11.95 19.3 Q12.45 16.45 12.1 15.3" fill="#5d3e27" fill-rule="evenodd" stroke="none"/>
      <path d="M33.2 37.95 Q33.55 37.4 33.3 36.7 33.0 36.05 32.3 35.9 L31.6 34.9 33.05 35.95 34.3 37.05 34.6 37.75 34.65 38.55 Q35.1 39.55 34.95 40.0 33.55 39.2 32.65 39.05 L30.15 38.7 31.5 38.7 32.8 38.25 33.15 38.0 33.2 37.95" fill="#5d3e27" fill-rule="evenodd" stroke="none"/>
      <path d="M28.65 30.4 L28.95 30.4 Q29.55 30.5 29.55 31.35 29.5 32.25 28.8 32.25 L28.7 32.25 28.5 32.15 28.65 31.55 28.35 32.05 28.2 31.75 Q28.05 31.35 28.2 30.95 28.3 30.45 28.65 30.4" fill="#5d3e27" fill-rule="evenodd" stroke="none"/>
      <path d="M29.65 31.55 L30.8 31.4 30.85 32.15 30.4 32.6 Q29.55 32.75 29.65 31.55" fill="#5d3e27" fill-rule="evenodd" stroke="none"/>
      <path d="M23.4 25.0 L23.75 24.95 24.1 25.05 24.5 25.1 25.1 24.95 25.65 24.95 26.45 25.45 27.25 25.8 Q28.85 26.05 29.55 26.65 L29.3 27.05 29.2 27.0 28.5 26.6 Q28.05 26.3 27.65 26.3 27.0 26.25 26.6 26.7 L25.95 27.65 25.2 28.2 Q24.4 28.55 24.25 28.65 L24.05 28.8 Q23.65 28.95 23.65 29.4 L23.15 30.85 22.95 30.3 22.85 29.5 Q22.95 27.9 24.05 27.45 L24.8 27.3 23.8 27.1 23.85 27.05 Q24.25 26.55 23.65 26.05 L23.45 25.95 23.3 25.9 22.45 25.9 21.6 25.95 21.5 25.95 Q21.5 25.5 22.15 25.25 L22.0 25.9 Q22.95 25.1 23.4 25.0" fill="#5d3e27" fill-rule="evenodd" stroke="none"/>
      <path d="M24.95 28.8 L24.55 29.75 Q24.1 30.3 23.7 29.65 L23.65 29.4 Q23.65 28.95 24.05 28.8 L24.45 28.8 24.95 28.8" fill="#5d3e27" fill-rule="evenodd" stroke="none"/>
      <path d="M23.35 31.7 Q23.1 31.15 23.8 31.05 L24.15 31.05 Q23.85 31.85 23.35 31.7" fill="#5d3e27" fill-rule="evenodd" stroke="none"/>
      <path d="M32.15 43.75 L35.15 44.25 33.1 44.9 30.5 44.55 30.15 44.4 Q28.3 43.7 28.95 43.1 L29.65 43.45 Q31.85 44.3 32.15 43.75" fill="#5d3e27" fill-rule="evenodd" stroke="none"/>
      <path d="M13.75 41.2 L13.75 41.05 13.8 40.75 14.65 37.4 14.5 38.75 14.6 40.4 14.65 41.55 Q14.55 42.45 14.1 42.85 L13.7 43.05 12.65 43.15 12.0 43.05 11.0 42.9 Q13.15 42.8 13.65 41.6 L13.7 41.45 13.75 41.2" fill="#5d3e27" fill-rule="evenodd" stroke="none"/>
      <path d="M17.65 38.4 L17.6 40.15 Q17.6 42.15 17.85 43.05 L18.0 43.5 18.15 44.25 18.15 46.05 Q18.2 46.6 18.55 47.1 L19.2 48.05 20.15 49.25 21.25 49.9 20.9 49.85 20.05 49.45 19.2 49.05 18.5 49.2 18.1 49.75 Q17.6 50.25 16.45 50.55 L14.6 50.75 14.45 51.35 Q13.65 51.0 14.0 50.65 14.3 50.3 15.35 49.9 L16.65 49.45 17.6 48.9 Q17.95 48.5 17.8 47.9 17.75 47.45 17.2 46.9 L16.35 46.3 16.55 46.05 16.95 45.2 16.95 45.05 17.65 38.4" fill="#5d3e27" fill-rule="evenodd" stroke="none"/>
      <path d="M9.85 39.55 L9.6 40.25 8.95 41.4 9.0 42.05 8.95 42.15 8.8 42.35 8.5 42.6 Q8.1 43.4 8.5 44.2 L9.6 45.4 10.2 45.65 10.65 46.05 10.8 47.35 10.45 46.75 10.3 46.4 10.2 46.45 8.5 44.9 Q7.85 44.1 7.8 43.25 L7.95 41.45 7.3 41.25 6.95 40.95 7.3 40.9 Q7.85 40.9 8.15 40.55 L8.8 40.9 8.75 39.95 8.8 39.35 8.85 39.3 9.3 39.2 9.8 39.1 9.95 38.9 9.95 39.05 9.85 39.55" fill="#5d3e27" fill-rule="evenodd" stroke="none"/>
      <path d="M9.15 47.05 L10.3 46.4 10.45 46.75 10.5 47.9 10.3 48.5 10.05 49.05 Q9.85 49.65 9.95 50.75 L10.1 51.55 9.15 51.1 Q8.65 50.85 8.65 50.25 L8.8 48.9 Q8.85 47.95 7.85 47.75 6.5 47.5 6.2 47.1 L7.95 47.2 8.6 46.95 9.15 47.05" fill="#5d3e27" fill-rule="evenodd" stroke="none"/>
      <path d="M6.6 39.45 L5.65 41.4 5.6 41.4 Q5.0 42.25 4.0 42.05 2.55 41.7 2.65 40.55 L2.85 40.65 3.2 41.0 3.6 41.25 4.45 41.25 6.6 39.45" fill="#5d3e27" fill-rule="evenodd" stroke="none"/>
      <path d="M25.8 34.55 L26.8 34.4 27.2 35.9 Q27.35 37.05 26.8 37.25 26.35 37.45 26.05 37.05 L25.8 36.25 25.8 34.55" fill="#704a2d" fill-rule="evenodd" stroke="none"/>
      <path d="M27.65 39.05 L28.65 39.55 28.5 40.55 27.7 40.65 27.0 40.4 Q26.85 40.1 27.1 39.65 27.3 39.2 27.65 39.05" fill="#704a2d" fill-rule="evenodd" stroke="none"/>
      <path d="M8.65 34.55 Q9.3 33.85 9.8 33.9 L10.25 33.8 11.25 34.55 11.55 34.9 11.5 36.3 Q11.35 37.1 10.8 37.75 L10.55 37.95 10.45 38.05 10.25 38.2 9.65 38.5 9.75 37.4 9.65 36.4 Q9.5 36.1 8.95 36.05 8.35 36.0 8.2 35.75 7.9 35.25 8.65 34.55 M10.45 34.4 Q9.75 34.25 9.6 34.85 9.5 35.4 9.95 35.75 11.1 36.5 10.95 34.55 L10.45 34.4" fill="#805432" fill-rule="evenodd" stroke="none"/>
      <path d="M2.85 33.4 Q3.45 33.5 3.3 32.4 L3.15 32.9 2.85 32.95 2.85 33.4 M3.65 32.05 L3.8 32.25 Q3.85 32.8 3.35 33.45 2.8 34.15 2.35 33.55 2.0 33.05 2.55 32.5 3.1 32.0 3.65 32.05" fill="#805432" fill-rule="evenodd" stroke="none"/>
      <path d="M2.1 34.85 Q2.15 34.15 2.65 34.05 L2.9 34.45 2.65 34.75 Q2.45 35.0 2.45 35.6 2.05 35.5 2.1 34.85" fill="#805432" fill-rule="evenodd" stroke="none"/>
      <path d="M12.15 24.6 L11.95 26.05 11.7 26.5 11.25 26.55 Q10.9 26.4 10.95 25.9 L11.15 25.1 12.15 24.6" fill="#805432" fill-rule="evenodd" stroke="none"/>
      <path d="M17.95 31.9 Q18.25 32.4 18.1 33.55 L16.95 33.4 Q16.45 33.4 16.3 33.85 16.75 34.05 16.85 34.65 16.95 35.2 16.65 35.55 17.35 35.75 17.8 34.95 17.2 36.6 16.15 36.05 15.5 35.7 15.9 34.1 16.25 32.45 16.95 32.55 L17.95 31.9" fill="#805432" fill-rule="evenodd" stroke="none"/>
      <path d="M20.3 32.4 Q20.45 33.6 19.3 33.4 18.9 33.35 18.7 33.15 18.45 32.85 18.8 32.55 L20.3 32.4" fill="#805432" fill-rule="evenodd" stroke="none"/>
      <path d="M21.95 37.4 L22.65 38.9 Q22.8 39.4 22.4 39.55 L21.55 39.55 Q20.7 39.25 20.8 38.1 20.8 36.85 21.45 36.9 L21.55 36.9 Q22.0 37.0 21.95 37.4" fill="#805432" fill-rule="evenodd" stroke="none"/>
      <path d="M23.45 40.4 L24.4 39.2 24.45 39.05 24.45 39.25 24.25 40.15 Q23.95 41.35 23.2 41.05 L23.45 40.4" fill="#805432" fill-rule="evenodd" stroke="none"/>
      <path d="M14.5 13.65 L15.95 13.6 16.45 14.1 15.85 15.3 15.65 14.95 Q15.05 15.15 15.0 15.45 14.15 15.45 13.95 14.8 13.75 13.85 14.5 13.65" fill="#805432" fill-rule="evenodd" stroke="none"/>
      <path d="M16.45 16.3 Q16.3 16.6 16.3 16.95 L15.85 16.95 Q15.7 16.4 16.3 16.3 L16.45 16.3" fill="#805432" fill-rule="evenodd" stroke="none"/>
      <path d="M4.85 12.95 L4.55 13.5 3.45 13.4 3.5 12.8 3.8 12.8 4.95 12.45 4.85 12.95" fill="#805432" fill-rule="evenodd" stroke="none"/>
      <path d="M4.55 13.5 L4.85 12.95 5.15 12.8 5.8 12.75 6.4 12.8 Q6.75 13.1 6.65 13.65 L6.35 14.35 5.8 14.95 5.45 15.45 4.5 15.55 3.5 15.8 2.15 15.65 2.05 14.75 2.0 13.75 1.95 13.75 1.95 13.65 Q2.5 14.1 3.2 14.2 3.95 14.25 4.35 13.8 L4.55 13.5" fill="#805432" fill-rule="evenodd" stroke="none"/>
      <path d="M7.9 22.7 L8.0 22.95 8.0 23.3 7.8 24.15 7.3 25.4 6.45 25.95 6.15 26.25 6.0 26.65 5.4 27.25 5.8 26.1 5.7 25.4 4.9 25.3 Q5.85 24.9 4.5 23.9 3.6 23.25 2.9 23.25 L2.7 23.3 2.65 22.45 2.35 21.6 3.65 21.6 4.25 22.05 4.85 22.6 7.9 22.7" fill="#805432" fill-rule="evenodd" stroke="none"/>
      <path d="M4.5 15.55 L5.45 15.45 6.15 15.65 6.6 15.95 5.65 20.6 Q5.9 20.9 6.35 21.0 L7.15 21.1 7.7 21.3 7.65 21.3 Q7.25 21.6 7.7 22.0 L8.4 22.5 7.9 22.7 4.85 22.6 4.25 22.05 3.65 21.6 2.35 21.6 2.2 20.4 2.5 19.95 2.95 19.65 2.95 19.6 2.0 18.95 1.95 18.8 1.95 13.75 2.0 13.75 2.05 14.75 2.15 15.65 3.5 15.8 4.5 15.55" fill="#704a2d" fill-rule="evenodd" stroke="none"/>
      <path d="M9.6 34.85 Q9.75 34.25 10.45 34.4 L10.95 34.55 Q11.1 36.5 9.95 35.75 9.5 35.4 9.6 34.85" fill="#5d3e27" fill-rule="evenodd" stroke="none"/>
      <path d="M16.3 33.85 Q16.45 33.4 16.95 33.4 L18.1 33.55 18.15 33.55 17.8 34.95 Q17.35 35.75 16.65 35.55 16.95 35.2 16.85 34.65 16.75 34.05 16.3 33.85" fill="#5d3e27" fill-rule="evenodd" stroke="none"/>
      <path d="M17.95 29.45 L17.95 29.5 17.9 30.05 Q17.65 30.65 16.8 30.55 L15.8 30.55 14.95 30.75 14.7 30.9 Q14.5 30.0 14.85 29.8 L15.1 29.7 15.7 29.75 16.15 29.3 16.45 29.3 16.65 29.35 17.95 29.45" fill="#5d3e27" fill-rule="evenodd" stroke="none"/>
      <path d="M3.15 32.9 L3.3 32.4 Q3.45 33.5 2.85 33.4 L2.85 32.95 3.15 32.9" fill="#5d3e27" fill-rule="evenodd" stroke="none"/>
      <path d="M2.9 34.45 L3.15 34.25 Q3.45 34.75 3.35 35.45 3.2 36.15 2.5 35.85 L2.45 35.6 Q2.45 35.0 2.65 34.75 L2.9 34.45" fill="#5d3e27" fill-rule="evenodd" stroke="none"/>
      <path d="M2.0 45.25 L2.6 45.4 2.85 45.6 3.8 46.4 3.15 46.4 2.5 46.7 Q2.15 46.8 1.95 46.4 1.8 46.15 2.0 45.25" fill="#5d3e27" fill-rule="evenodd" stroke="none"/>
      <path d="M4.45 48.4 Q4.1 48.45 3.9 48.2 3.7 47.9 3.8 47.55 L4.65 47.75 4.45 48.4" fill="#5d3e27" fill-rule="evenodd" stroke="none"/>
      <path d="M3.2 10.25 Q3.4 10.4 3.95 9.95 L5.2 8.8 5.45 9.1 Q5.65 9.5 5.5 10.4 L5.35 11.75 Q5.85 11.85 6.0 12.1 L3.45 12.45 2.8 12.1 2.15 12.15 2.8 10.8 3.2 10.25" fill="#9d663e" fill-rule="evenodd" stroke="none"/>
      <path d="M10.05 10.15 L12.8 9.95 14.15 10.8 Q14.8 11.2 14.6 11.95 L13.8 11.95 12.95 12.1 Q12.45 12.7 12.0 12.6 L11.55 12.25 11.1 11.8 10.45 11.8 7.85 11.75 Q8.5 10.5 10.05 10.15" fill="#9d663e" fill-rule="evenodd" stroke="none"/>
      <path d="M15.65 14.95 L16.15 15.8 15.25 15.95 Q14.9 15.8 15.0 15.45 15.05 15.15 15.65 14.95" fill="#9d663e" fill-rule="evenodd" stroke="none"/>
      <path d="M42.9 34.1 L44.75 34.05 43.9 34.25 Q43.05 34.65 42.65 35.1 L42.5 35.25 Q42.3 35.65 42.25 36.25 L42.3 37.25 42.35 37.7 Q42.45 38.6 43.1 38.85 L43.8 39.05 45.2 39.0 45.15 39.05 45.55 39.1 44.2 40.1 44.2 40.5 43.9 41.55 42.75 43.05 40.75 45.25 38.25 47.75 36.3 49.2 36.3 49.25 Q36.3 50.2 35.75 51.45 L34.75 53.55 34.25 54.6 33.8 54.55 33.75 54.6 34.0 52.75 34.0 51.55 Q33.95 50.75 33.45 50.55 32.65 50.15 31.05 50.8 L30.5 51.05 29.45 51.85 28.65 52.55 Q27.5 53.7 25.05 54.75 L24.95 54.75 24.15 54.1 24.1 54.05 22.9 54.05 20.95 54.0 19.45 53.75 17.8 53.7 16.05 53.75 Q11.85 53.85 10.0 52.8 L9.8 52.7 9.8 51.9 12.55 51.8 15.3 51.7 Q16.35 51.55 18.15 52.25 L21.15 52.55 21.85 52.6 25.85 52.55 Q27.95 52.45 28.6 51.25 29.0 50.55 28.85 48.9 L32.1 48.75 33.45 48.2 Q34.35 47.8 34.6 47.4 L34.7 46.8 34.8 46.2 Q35.0 45.85 35.9 45.75 L36.85 45.3 38.5 43.75 Q39.05 42.85 38.95 41.7 L38.8 39.95 37.65 38.3 Q37.0 37.3 36.65 35.75 L36.55 33.85 Q36.9 34.85 37.5 35.1 L39.6 34.9 39.45 35.35 Q39.85 34.7 40.85 34.35 L42.9 34.1" fill="#493322" fill-rule="evenodd" stroke="none"/>
      <path d="M51.4 37.4 L51.2 37.4 54.0 37.05 Q55.5 37.15 56.05 37.9 L55.95 38.45 Q54.2 37.4 51.4 37.4" fill="#493322" fill-rule="evenodd" stroke="none"/>
      <path d="M32.55 67.55 L32.6 67.55 33.1 67.45 33.8 68.05 31.1 68.35 32.55 67.55" fill="#493322" fill-rule="evenodd" stroke="none"/>
      <path d="M27.65 67.9 L29.3 68.05 30.05 68.45 Q28.5 68.55 27.35 69.2 L27.65 68.05 27.65 67.9" fill="#493322" fill-rule="evenodd" stroke="none"/>
      <path d="M25.45 69.95 L25.5 70.55 26.0 70.4 25.45 70.85 Q24.85 71.35 22.65 72.25 L20.2 73.05 20.55 72.8 21.2 72.0 21.95 71.4 23.0 71.3 Q23.65 71.25 23.75 70.75 L23.4 70.55 24.2 70.45 25.45 69.95" fill="#493322" fill-rule="evenodd" stroke="none"/>
      <path d="M28.65 58.25 L29.25 58.25 30.05 58.2 31.2 57.75 32.45 56.25 33.25 55.55 32.55 55.55 32.2 55.6 32.55 55.3 33.75 54.6 33.8 54.55 34.25 54.6 Q33.85 55.4 33.8 55.9 33.7 57.2 32.8 57.7 L31.7 57.9 31.1 59.1 30.85 60.2 30.5 61.25 30.0 62.1 Q29.75 62.6 29.8 63.05 L30.0 64.45 30.35 64.95 29.1 64.45 Q28.55 64.1 28.7 63.25 28.8 62.6 29.4 61.45 L30.15 59.75 30.1 59.15 Q29.85 58.45 28.65 58.25" fill="#493322" fill-rule="evenodd" stroke="none"/>
      <path d="M32.85 29.25 L32.75 28.9 32.95 29.3 33.45 29.5 34.9 30.1 35.75 30.05 36.05 30.0 36.0 30.95 36.0 33.15 Q35.45 31.6 34.8 30.95 L34.1 29.95 33.3 29.5 32.85 29.25" fill="#493322" fill-rule="evenodd" stroke="none"/>
      <path d="M30.55 27.5 L31.35 27.55 31.6 28.0 32.05 28.25 31.45 28.3 30.6 28.1 Q30.45 27.95 30.55 27.5" fill="#493322" fill-rule="evenodd" stroke="none"/>
      <path d="M24.1 23.3 L24.15 23.55 Q24.25 24.4 24.55 24.55 L24.45 24.6 25.3 24.75 25.1 24.95 24.5 25.1 24.1 25.05 23.75 24.95 23.45 24.95 23.4 25.0 Q22.95 25.1 22.0 25.9 L22.15 25.25 22.85 24.55 23.5 23.95 Q23.8 23.4 23.7 22.15 L24.1 23.3" fill="#493322" fill-rule="evenodd" stroke="none"/>
      <path d="M30.2 26.45 Q30.8 26.65 31.1 27.05 L31.35 27.55 30.55 27.5 29.85 26.95 29.55 26.65 Q28.85 26.05 27.25 25.8 L26.45 25.45 25.65 24.95 25.3 24.75 25.0 24.65 Q25.5 24.65 25.8 24.25 L26.8 24.7 28.2 25.05 Q28.95 25.35 29.15 26.1 L30.2 26.45" fill="#493322" fill-rule="evenodd" stroke="none"/>
      <path d="M15.45 6.6 Q16.3 6.7 16.75 7.4 L17.8 8.6 19.9 10.8 21.65 13.3 Q22.55 14.95 22.8 16.45 L23.05 17.45 23.45 18.3 23.95 20.45 24.15 22.45 24.15 23.55 24.1 23.3 23.7 22.15 23.45 21.75 23.0 20.75 Q22.8 20.35 22.25 20.35 L22.2 20.35 22.2 20.3 Q22.65 20.1 22.55 19.4 L22.2 18.0 21.45 15.45 21.3 15.1 20.2 11.95 19.4 10.65 Q18.7 9.8 18.15 9.75 L17.45 9.9 16.8 9.9 16.35 9.55 16.0 9.1 15.15 8.65 13.15 8.3 11.35 8.15 9.6 8.3 9.45 8.3 8.05 9.3 6.5 10.55 6.3 10.6 7.15 7.3 7.8 6.8 Q9.25 5.75 11.95 6.0 L15.45 6.6" fill="#493322" fill-rule="evenodd" stroke="none"/>
      <path d="M24.55 24.55 Q24.25 24.4 24.15 23.55 24.6 23.55 24.6 23.75 L25.8 24.25 Q25.5 24.65 24.95 24.65 L24.55 24.55" fill="#493322" fill-rule="evenodd" stroke="none"/>
      <path d="M11.1 13.8 Q11.8 14.15 12.1 15.3 12.45 16.45 11.95 19.3 L11.9 20.35 11.3 20.95 10.6 21.05 9.85 21.5 9.15 21.6 8.8 21.6 8.35 21.5 7.15 21.1 6.35 21.0 Q5.9 20.9 5.65 20.6 L6.95 13.95 Q7.15 13.6 7.65 13.6 L8.1 13.6 11.1 13.8" fill="#493322" fill-rule="evenodd" stroke="none"/>
      <path d="M4.1 32.3 L4.0 31.9 4.0 31.25 5.6 31.5 7.3 31.4 10.15 31.4 12.2 31.95 Q13.3 32.4 13.45 33.4 L13.45 34.35 13.3 35.25 13.3 37.7 13.5 39.7 Q13.6 41.0 13.35 41.7 13.1 42.35 12.4 42.15 L11.45 41.85 Q9.6 41.2 10.7 39.5 L11.5 38.15 11.95 36.7 12.0 35.65 11.55 34.9 11.25 34.55 10.25 33.8 8.4 33.7 Q7.1 34.2 6.65 35.9 L6.45 37.7 Q6.15 38.9 5.45 37.75 L5.45 37.7 6.15 35.55 5.95 35.75 5.3 36.0 5.3 35.45 5.25 33.8 4.45 32.5 4.1 32.3" fill="#9d663e" fill-rule="evenodd" stroke="none"/>
      <path d="M11.7 26.5 L11.95 26.05 Q12.4 25.45 12.8 25.3 L14.3 24.6 Q13.75 25.2 13.9 27.15 14.05 29.05 13.3 29.65 12.9 29.95 12.15 29.95 11.35 29.95 11.0 29.6 10.6 29.2 11.15 27.75 L11.7 26.5" fill="#9d663e" fill-rule="evenodd" stroke="none"/>
      <path d="M16.85 23.25 Q16.1 23.6 16.05 21.65 L16.15 19.3 17.3 18.45 17.6 20.95 Q17.55 22.9 16.85 23.25" fill="#9d663e" fill-rule="evenodd" stroke="none"/>
      <path d="M10.85 26.2 Q10.75 27.2 10.3 27.8 10.0 28.25 9.4 28.5 8.65 28.75 8.3 28.3 8.2 28.1 8.25 27.3 L8.3 26.25 Q8.3 25.3 8.8 25.1 L10.8 24.1 10.8 24.4 10.85 26.2" fill="#9d663e" fill-rule="evenodd" stroke="none"/>
      <path d="M4.05 29.25 L3.3 28.45 2.8 28.3 2.95 28.05 2.95 26.6 2.75 25.15 Q2.55 24.1 2.65 23.8 L2.7 23.3 Q4.05 23.7 4.3 24.2 L4.55 25.2 4.45 26.3 4.55 27.05 Q4.7 27.35 5.2 27.3 L5.4 27.25 6.0 26.65 6.4 26.0 6.45 25.95 Q6.6 26.65 6.35 27.65 L5.6 29.3 5.1 29.6 Q4.5 29.7 4.05 29.25" fill="#9d663e" fill-rule="evenodd" stroke="none"/>
      <path d="M2.25 29.35 L3.1 30.3 Q3.55 30.75 4.0 30.75 2.95 30.85 2.3 32.15 L1.8 33.25 Q0.95 33.95 0.65 34.4 L0.4 35.05 0.95 33.0 2.25 29.35" fill="#9d663e" fill-rule="evenodd" stroke="none"/>
      <path d="M6.15 35.55 L4.95 38.85 4.3 40.05 3.05 40.05 2.85 40.05 2.8 39.7 2.35 37.85 Q2.2 36.75 2.85 36.35 L4.05 36.05 5.3 36.0 5.95 35.75 6.15 35.55" fill="#9d663e" fill-rule="evenodd" stroke="none"/>
      <path d="M18.95 33.75 L20.3 33.55 20.65 35.5 Q20.8 36.7 20.3 37.35 L19.1 38.45 Q18.25 39.3 18.65 39.85 L18.65 39.9 18.75 40.0 20.25 40.2 21.9 40.25 22.75 40.9 24.05 41.35 24.4 41.45 24.6 41.85 24.65 42.45 24.65 43.1 24.75 43.7 Q24.85 43.9 25.15 43.9 22.45 44.0 21.35 43.3 L19.85 42.0 18.8 41.05 18.6 40.8 Q17.85 39.9 17.8 39.2 L17.8 38.4 17.65 37.65 17.15 37.2 Q16.75 36.95 16.8 36.7 16.8 36.2 18.05 35.55 18.9 34.6 18.95 33.75" fill="#9d663e" fill-rule="evenodd" stroke="none"/>
      <path d="M20.65 32.25 L21.8 28.8 21.55 31.3 Q21.45 33.4 21.75 34.7 L21.95 35.3 21.9 35.9 21.1 35.6 Q20.7 35.15 20.65 33.9 L20.65 32.25" fill="#9d663e" fill-rule="evenodd" stroke="none"/>
      <path d="M28.15 32.4 L28.65 31.55 28.5 32.15 Q28.0 33.35 27.95 34.05 L27.95 35.1 28.05 36.05 Q28.15 36.45 28.6 36.85 27.25 36.3 27.15 34.6 L27.25 33.2 Q27.5 32.3 28.15 32.4" fill="#9d663e" fill-rule="evenodd" stroke="none"/>
      <path d="M25.45 33.4 Q24.85 33.9 24.95 35.0 25.05 36.15 24.7 36.55 24.35 36.0 24.25 35.0 24.15 33.95 24.45 33.3 L24.95 32.75 25.45 33.4" fill="#9d663e" fill-rule="evenodd" stroke="none"/>
      <path d="M13.5 45.25 Q11.9 45.15 11.65 44.25 L13.6 44.1 14.85 43.55 13.5 44.25 15.6 43.85 Q16.45 43.3 16.45 42.05 L16.25 42.05 16.45 41.75 16.7 42.1 Q17.05 42.95 16.6 43.55 L16.15 43.9 15.15 44.5 14.85 44.95 14.45 45.25 13.5 45.25" fill="#8b5b37" fill-rule="evenodd" stroke="none"/>
      <path d="M15.8 42.05 L16.45 42.05 Q16.45 43.3 15.6 43.85 L13.5 44.25 14.85 43.55 15.75 42.3 15.8 42.05" fill="#9d663e" fill-rule="evenodd" stroke="none"/>
      <path d="M48.1 27.4 L49.2 26.6 Q49.6 26.7 49.8 26.9 L50.0 27.35 49.65 27.45 48.5 27.75 47.35 28.3 47.1 28.3 44.65 29.1 Q44.95 28.65 45.55 28.5 L46.6 28.25 48.1 27.4" fill="#805432" fill-rule="evenodd" stroke="none"/>
      <path d="M47.1 30.1 L49.5 30.05 51.5 30.25 52.7 29.8 53.25 29.8 54.05 29.7 54.05 29.75 53.95 29.8 Q53.5 30.8 51.95 30.9 L51.5 30.9 47.55 30.95 Q45.4 31.1 43.7 31.75 44.1 31.35 44.9 31.05 L46.2 30.55 47.1 30.1" fill="#805432" fill-rule="evenodd" stroke="none"/>
      <path d="M54.15 30.2 L54.75 30.7 55.35 31.7 55.95 32.4 55.15 32.3 54.3 32.15 54.3 31.6 Q53.85 31.35 53.55 31.6 L52.8 32.05 51.25 31.8 Q48.6 30.85 47.2 31.4 48.15 30.9 50.0 30.9 L51.95 30.9 Q53.5 30.8 53.95 29.8 L54.05 29.75 54.15 30.2" fill="#5d3e27" fill-rule="evenodd" stroke="none"/>
      <path d="M50.15 27.6 L50.25 27.65 Q49.65 28.0 49.0 28.3 L47.35 28.3 48.5 27.75 49.65 27.45 50.0 27.35 50.15 27.6" fill="#5d3e27" fill-rule="evenodd" stroke="none"/>
      <path d="M41.3 29.55 L42.45 28.6 44.65 27.5 Q45.5 26.95 46.15 26.8 L48.05 26.5 Q47.1 27.6 46.45 27.8 L45.65 27.95 44.45 28.3 43.9 29.0 43.25 29.65 42.3 29.65 41.3 29.55" fill="#9d663e" fill-rule="evenodd" stroke="none"/>
      <path d="M50.25 27.65 L51.4 28.1 52.7 28.4 Q53.55 28.65 53.85 29.0 L54.05 29.7 53.25 29.8 52.7 29.8 51.5 29.65 51.3 28.95 Q50.95 28.45 50.45 28.65 50.1 28.8 50.05 29.25 L49.8 29.9 49.5 30.05 47.1 30.1 Q44.45 30.1 42.55 30.75 44.5 29.3 45.45 29.1 L46.85 29.1 48.2 28.8 50.25 27.65" fill="#9d663e" fill-rule="evenodd" stroke="none"/>
      <path d="M9.8 12.8 Q9.75 13.15 10.05 13.3 L10.65 13.45 11.05 13.65 11.3 14.1 11.45 15.95 11.45 18.15 Q11.35 19.55 10.6 20.1 L8.45 20.55 6.15 20.45 3.8 20.45 Q3.2 20.5 2.45 20.95 L1.15 21.7 Q1.05 21.2 1.7 19.15 2.05 17.75 3.35 16.0 4.9 13.9 6.55 13.15 L7.75 12.6 8.95 12.3 9.8 12.8" fill="#945f3a" fill-rule="evenodd" stroke="none"/>
      <path d="M15.9 2.0 L16.0 3.6 Q17.45 3.85 17.65 4.95 L17.85 6.1 17.9 7.3 18.25 8.55 18.15 9.15 16.75 8.8 16.0 8.25 13.95 7.8 10.3 7.7 8.7 8.15 Q8.4 8.15 8.3 8.3 L8.2 8.4 8.1 8.55 8.05 8.6 8.05 8.65 7.8 9.3 7.7 9.5 6.25 10.85 5.75 10.8 5.6 11.0 5.55 10.75 5.55 10.45 5.4 9.4 5.4 8.1 4.9 6.9 Q4.05 5.75 3.9 4.1 L3.85 3.8 3.75 3.65 Q3.6 2.7 4.7 2.4 L6.5 2.3 6.95 2.3 7.2 1.6 8.05 0.7 Q8.7 0.15 9.3 0.1 L9.4 0.05 Q9.85 -0.1 10.9 0.5 L11.65 0.95 11.7 0.95 13.3 0.55 14.25 0.75 14.4 0.8 Q15.6 1.25 15.9 2.0" fill="#945f3a" fill-rule="evenodd" stroke="none"/>
      <path d="M5.4 9.45 L5.4 9.1 6.9 9.15 6.75 9.35 5.4 9.45" fill="#805432" fill-rule="evenodd" stroke="none"/>
      <path d="M16.0 3.3 L16.0 3.6 Q16.8 3.75 17.25 4.15 L17.1 5.9 16.9 5.9 16.45 5.6 16.4 5.0 16.25 5.25 15.9 5.3 15.9 5.05 15.7 5.25 Q15.45 5.2 15.45 4.8 L15.6 4.75 16.0 3.3" fill="#805432" fill-rule="evenodd" stroke="none"/>
      <path d="M12.5 5.7 L12.0 5.9 11.2 6.4 12.0 6.3 12.2 6.5 11.45 6.6 10.9 6.1 10.9 5.3 11.9 5.65 12.5 5.7" fill="#805432" fill-rule="evenodd" stroke="none"/>
      <path d="M11.35 1.6 L11.4 1.6 11.15 1.8 10.55 2.15 10.4 2.15 10.2 2.25 10.05 2.3 9.9 2.3 Q10.3 1.55 10.9 1.55 L11.35 1.6" fill="#805432" fill-rule="evenodd" stroke="none"/>
      <path d="M8.2 3.35 L8.4 4.4 9.95 4.95 9.8 5.8 9.45 6.25 9.05 5.25 Q8.6 4.4 7.9 4.55 L8.0 3.7 7.8 4.55 Q7.8 3.55 8.05 3.35 L8.2 3.35" fill="#805432" fill-rule="evenodd" stroke="none"/>
      <path d="M15.05 1.5 L15.5 2.55 Q15.65 3.2 15.3 3.85 L15.25 3.8 15.25 2.8 Q13.95 2.9 13.35 2.0 L14.25 1.55 15.05 1.5" fill="#805432" fill-rule="evenodd" stroke="none"/>
      <path d="M7.15 4.4 L7.1 4.85 Q7.0 4.25 7.2 3.85 L7.4 3.7 7.4 3.55 Q7.7 3.3 8.05 3.35 7.3 3.85 7.15 4.4" fill="#805432" fill-rule="evenodd" stroke="none"/>
      <path d="M15.25 2.8 L15.25 3.8 14.95 3.5 13.9 2.95 13.4 2.75 13.3 2.25 12.65 1.95 12.35 1.45 12.05 1.05 12.05 1.1 11.85 0.9 12.35 0.65 12.6 0.85 12.6 1.0 12.55 1.2 12.65 1.4 13.15 1.65 13.35 2.0 Q13.95 2.9 15.25 2.8" fill="#805432" fill-rule="evenodd" stroke="none"/>
      <path d="M9.1 3.2 L8.4 2.9 7.7 2.55 6.95 2.2 7.0 2.1 9.9 2.3 10.05 2.3 Q9.35 2.55 9.1 3.2" fill="#805432" fill-rule="evenodd" stroke="none"/>
      <path d="M9.95 4.95 L8.4 4.4 8.2 3.35 7.95 2.85 Q8.5 3.1 8.55 3.75 8.95 3.6 9.35 3.75 L9.9 4.3 9.95 4.95" fill="#805432" fill-rule="evenodd" stroke="none"/>
      <path d="M11.4 1.6 L11.4 1.9 10.9 1.95 11.15 1.8 11.4 1.6" fill="#805432" fill-rule="evenodd" stroke="none"/>
      <path d="M11.9 2.9 Q12.5 3.05 12.6 3.55 L12.65 4.65 12.5 5.7 11.9 5.65 10.9 5.3 10.9 5.2 10.65 4.55 10.3 4.05 Q10.1 3.6 10.4 2.95 L11.25 2.75 11.9 2.9" fill="#805432" fill-rule="evenodd" stroke="none"/>
      <path d="M7.3 6.25 L7.5 6.7 7.75 7.1 7.8 8.2 7.7 8.3 7.1 8.85 6.65 9.05 5.4 9.05 5.3 7.85 Q6.05 8.3 6.5 8.15 6.6 7.7 6.25 7.4 5.8 7.1 5.8 6.8 L6.3 6.85 6.75 6.75 7.3 6.25" fill="#805432" fill-rule="evenodd" stroke="none"/>
      <path d="M7.1 4.85 L7.15 5.4 5.9 5.3 7.1 4.85" fill="#805432" fill-rule="evenodd" stroke="none"/>
      <path d="M7.9 5.25 L7.9 4.55 Q8.6 4.4 9.05 5.25 L9.45 6.25 9.2 6.45 8.65 6.05 8.4 5.5 Q8.1 5.65 7.9 5.25" fill="#805432" fill-rule="evenodd" stroke="none"/>
      <path d="M17.1 5.9 L17.05 6.3 16.6 6.9 15.85 6.9 15.75 6.8 Q15.75 6.05 15.9 5.3 L16.25 5.25 16.4 5.0 16.45 5.6 16.9 5.9 17.1 5.9" fill="#805432" fill-rule="evenodd" stroke="none"/>
      <path d="M10.4 3.05 Q10.1 3.6 10.3 4.05 L10.65 4.55 10.9 5.2 10.9 5.3 10.9 6.1 11.45 6.6 Q10.65 6.5 10.75 6.05 L10.15 6.55 9.2 6.45 9.45 6.25 9.8 5.8 9.95 4.95 9.9 4.3 9.35 3.75 Q8.95 3.6 8.55 3.75 8.5 3.1 7.95 2.85 L7.3 2.55 7.7 2.55 8.4 2.9 9.1 3.2 8.95 3.65 10.4 3.05" fill="#805432" fill-rule="evenodd" stroke="none"/>
      <path d="M14.95 3.5 L15.3 3.85 14.25 3.95 Q14.3 4.8 15.45 4.8 15.45 5.2 15.7 5.25 L15.0 5.45 14.3 5.35 14.1 5.15 14.0 4.35 14.0 4.15 14.0 3.55 13.9 2.95 14.95 3.5" fill="#805432" fill-rule="evenodd" stroke="none"/>
      <path d="M7.75 7.1 L8.05 7.5 8.1 7.75 7.8 8.2 7.75 7.1" fill="#805432" fill-rule="evenodd" stroke="none"/>
      <path d="M13.0 6.25 L12.8 6.8 12.75 6.3 13.0 6.05 13.0 6.25" fill="#704a2d" fill-rule="evenodd" stroke="none"/>
      <path d="M6.6 9.65 L5.4 9.65 5.4 9.45 6.75 9.35 6.6 9.65" fill="#704a2d" fill-rule="evenodd" stroke="none"/>
      <path d="M11.3 0.75 L11.65 0.95 11.7 0.95 11.85 0.9 12.05 1.1 12.0 1.55 11.65 1.9 11.4 1.9 11.4 1.6 11.35 1.6 11.3 0.75" fill="#704a2d" fill-rule="evenodd" stroke="none"/>
      <path d="M13.4 3.4 L13.4 2.75 13.9 2.95 14.0 3.55 14.0 4.35 14.1 5.15 13.75 4.8 Q13.4 4.3 13.4 3.4" fill="#704a2d" fill-rule="evenodd" stroke="none"/>
      <path d="M10.05 2.3 L10.55 2.15 10.4 2.65 11.35 2.5 12.25 2.65 Q12.95 2.95 13.0 3.8 L13.0 4.3 13.0 4.35 12.75 5.4 12.5 5.7 12.65 4.65 12.6 3.55 Q12.5 3.05 11.9 2.9 L11.25 2.75 10.4 2.95 10.4 3.0 8.95 3.65 9.1 3.2 Q9.35 2.55 10.05 2.3" fill="#704a2d" fill-rule="evenodd" stroke="none"/>
      <path d="M15.9 5.05 L15.9 5.3 Q15.75 6.05 15.75 6.8 L15.45 6.1 15.4 5.65 15.4 5.6 15.05 6.3 15.0 7.15 Q13.2 7.5 13.0 6.4 L13.0 6.25 13.05 6.0 13.4 4.8 13.55 5.2 13.65 5.55 14.5 5.65 14.3 5.35 15.0 5.45 15.7 5.25 15.9 5.05" fill="#704a2d" fill-rule="evenodd" stroke="none"/>
      <path d="M7.85 5.55 L7.8 4.55 8.0 3.7 7.9 4.55 7.9 5.25 Q8.1 5.65 8.4 5.5 L8.65 6.05 9.2 6.45 10.15 6.55 10.75 6.05 Q10.65 6.5 11.45 6.6 L12.2 6.5 12.3 6.85 12.75 6.3 12.4 7.1 11.4 7.15 10.75 7.0 Q10.6 7.0 10.3 7.15 L9.8 7.25 9.35 6.95 8.65 6.8 8.1 6.6 7.9 6.1 7.9 5.65 7.85 5.55" fill="#704a2d" fill-rule="evenodd" stroke="none"/>
      <path d="M17.05 6.3 L17.1 5.9 17.25 4.15 17.65 4.95 17.85 6.1 17.9 7.3 18.1 7.9 18.0 8.05 17.5 8.75 17.25 8.8 Q16.85 8.75 16.7 8.15 16.6 7.65 16.8 7.3 L16.0 7.4 15.85 6.95 15.85 6.9 16.6 6.9 17.05 6.3" fill="#704a2d" fill-rule="evenodd" stroke="none"/>
      <path d="M15.5 2.55 L15.05 1.5 14.9 1.4 14.15 1.4 13.6 1.55 Q14.2 1.1 14.85 1.05 L14.95 1.05 Q15.7 1.4 15.9 2.0 L16.0 3.3 15.6 4.75 15.45 4.8 Q14.3 4.8 14.25 3.95 L15.3 3.85 Q15.65 3.2 15.5 2.55" fill="#5d3e27" fill-rule="evenodd" stroke="none"/>
      <path d="M7.15 4.4 Q7.3 3.85 8.05 3.35 7.8 3.55 7.8 4.55 L7.85 5.8 7.9 6.05 7.9 6.1 8.1 6.6 8.65 6.8 9.35 6.95 9.8 7.25 10.3 7.15 Q10.6 7.0 10.75 7.0 L11.4 7.15 12.4 7.1 10.65 7.4 9.3 7.4 8.15 7.15 8.1 7.75 8.05 7.5 7.5 6.7 7.3 6.25 7.15 5.55 7.15 5.4 7.1 4.85 7.15 4.4" fill="#5d3e27" fill-rule="evenodd" stroke="none"/>
      <path d="M17.5 8.75 L18.0 8.05 18.1 7.9 18.25 8.55 18.25 8.85 18.15 8.75 17.5 8.75" fill="#5d3e27" fill-rule="evenodd" stroke="none"/>
      <path d="M16.0 7.45 L16.0 7.4 16.8 7.3 Q16.6 7.65 16.7 8.15 16.85 8.75 17.25 8.8 L16.75 8.8 16.6 8.7 16.55 8.65 16.2 8.4 15.9 7.9 16.0 7.45" fill="#5d3e27" fill-rule="evenodd" stroke="none"/>
      <path d="M15.4 5.65 Q15.3 6.6 15.5 6.95 L15.1 7.55 14.9 7.7 14.65 7.65 13.4 7.25 12.8 6.8 13.0 6.25 13.0 6.4 Q13.2 7.5 15.0 7.15 L15.05 6.3 15.4 5.6 15.4 5.65" fill="#5d3e27" fill-rule="evenodd" stroke="none"/>
      <path d="M12.05 1.1 L12.05 1.05 12.35 1.45 12.65 1.95 13.3 2.25 13.4 2.75 13.4 3.4 Q13.4 4.3 13.75 4.8 L14.3 5.35 14.5 5.65 13.65 5.55 13.55 5.2 13.4 4.8 13.05 6.0 12.75 6.3 12.3 6.85 12.2 6.5 12.0 6.3 11.2 6.4 12.0 5.9 12.5 5.7 12.75 5.4 13.0 4.35 13.0 4.3 13.0 3.8 Q12.95 2.95 12.25 2.65 L11.35 2.5 10.4 2.65 10.55 2.15 10.9 1.95 11.4 1.9 11.65 1.9 12.0 1.55 12.05 1.1" fill="#5d3e27" fill-rule="evenodd" stroke="none"/>
      <path d="M6.5 9.8 L5.45 9.9 5.4 9.65 6.6 9.65 6.5 9.8" fill="#5d3e27" fill-rule="evenodd" stroke="none"/>
      <path d="M17.5 8.75 L18.15 8.75 18.25 8.85 18.15 9.15 16.75 8.8 17.25 8.8 17.5 8.75" fill="#493322" fill-rule="evenodd" stroke="none"/>
      <path d="M15.5 6.95 L15.5 6.9 15.45 6.1 15.75 6.8 15.85 6.9 15.85 6.95 16.0 7.4 16.0 7.45 15.9 7.9 16.2 8.4 16.0 8.25 13.95 7.8 10.3 7.7 8.7 8.15 Q8.4 8.15 8.3 8.3 L8.2 8.4 8.1 8.55 8.05 8.6 8.05 8.65 7.8 9.3 7.7 9.5 6.25 10.85 5.75 10.8 5.6 11.0 5.55 10.75 5.55 10.45 5.45 9.9 6.5 9.8 6.6 9.65 6.75 9.35 7.1 8.85 7.7 8.3 7.8 8.2 8.1 7.75 8.15 7.15 9.3 7.4 10.65 7.4 12.4 7.1 12.75 6.3 12.8 6.8 13.4 7.25 14.65 7.65 14.9 7.7 15.1 7.55 15.5 6.95" fill="#493322" fill-rule="evenodd" stroke="none"/>
      <path d="M9.4 0.05 L10.75 0.4 10.6 0.95 10.25 1.4 9.75 1.65 9.1 1.65 9.5 1.25 9.75 0.8 8.9 0.65 Q8.55 0.65 7.95 1.05 L7.35 1.35 Q8.25 0.25 9.3 0.1 L9.4 0.05" fill="#9d663e" fill-rule="evenodd" stroke="none"/>
      <path d="M12.55 1.2 L12.6 1.0 12.6 0.85 12.65 0.6 13.3 0.55 14.25 0.75 14.4 0.8 14.85 1.0 13.55 1.4 13.4 1.65 13.15 1.65 12.65 1.4 12.55 1.2" fill="#9d663e" fill-rule="evenodd" stroke="none"/>
      <path d="M4.15 3.8 L4.25 5.0 4.6 6.15 4.35 6.0 Q3.95 5.15 3.9 4.1 L3.85 3.8 3.75 3.65 Q3.6 2.7 4.65 2.45 L6.45 2.3 6.95 2.5 7.4 2.9 7.4 3.7 7.2 3.85 6.95 3.9 6.65 3.9 5.9 4.05 5.6 3.9 5.35 3.65 4.75 3.6 4.15 3.8" fill="#9d663e" fill-rule="evenodd" stroke="none"/>
      <path d="M8.0 13.25 Q8.4 12.85 8.3 12.35 L8.95 12.3 9.4 12.55 Q9.2 12.55 8.9 12.85 8.4 12.95 8.05 13.25 L8.0 13.25" fill="#805432" fill-rule="evenodd" stroke="none"/>
      <path d="M6.35 15.65 L7.15 15.2 7.6 15.3 7.7 15.5 7.9 15.65 8.4 15.65 9.6 15.7 9.75 17.8 Q9.7 18.7 8.4 18.5 L8.35 17.3 7.4 18.35 Q6.8 18.95 6.3 18.95 L6.5 19.25 6.75 19.55 Q6.9 19.9 6.5 20.1 L6.15 20.15 6.05 20.2 5.5 20.15 5.35 19.8 5.15 19.4 Q4.7 19.05 3.85 19.6 L4.1 19.4 4.5 18.5 4.9 17.5 5.25 17.15 5.4 16.9 6.35 15.65" fill="#805432" fill-rule="evenodd" stroke="none"/>
      <path d="M1.7 20.15 L1.65 19.7 3.8 19.6 2.4 20.3 1.7 20.15" fill="#805432" fill-rule="evenodd" stroke="none"/>
      <path d="M9.75 12.8 L8.9 12.85 Q9.2 12.55 9.4 12.55 L9.8 12.8 9.75 12.8" fill="#704a2d" fill-rule="evenodd" stroke="none"/>
      <path d="M9.9 13.85 L10.5 14.7 10.6 16.85 Q10.5 18.55 10.05 18.5 L10.0 17.65 9.5 18.4 8.85 18.65 8.15 18.7 9.05 18.8 Q9.45 18.8 9.4 19.35 L9.25 19.9 8.35 20.15 6.5 20.1 Q6.9 19.9 6.75 19.55 L6.5 19.25 6.3 18.95 Q6.8 18.95 7.4 18.35 L8.35 17.3 8.4 18.5 Q9.7 18.7 9.75 17.8 L9.6 15.7 8.4 15.65 7.9 15.65 7.7 15.5 7.6 15.3 7.15 15.2 8.2 14.4 8.9 13.85 Q9.4 13.6 9.9 13.85" fill="#704a2d" fill-rule="evenodd" stroke="none"/>
      <path d="M6.05 20.2 L5.75 20.45 4.8 20.4 4.8 20.0 4.6 19.7 3.95 19.75 3.35 20.1 2.7 20.5 2.0 20.45 1.7 20.15 2.4 20.3 3.8 19.6 3.85 19.6 Q4.7 19.05 5.15 19.4 L5.35 19.8 5.5 20.15 6.05 20.2" fill="#704a2d" fill-rule="evenodd" stroke="none"/>
      <path d="M9.75 12.8 L9.8 12.8 Q9.75 13.2 10.2 13.3 10.2 13.65 10.65 14.1 11.1 14.6 11.0 16.05 10.85 18.4 10.4 19.05 L9.25 19.9 9.4 19.35 Q9.45 18.8 9.05 18.8 L8.15 18.7 8.85 18.65 9.5 18.4 10.0 17.65 10.05 18.5 Q10.5 18.55 10.6 16.85 L10.5 14.7 9.9 13.85 Q9.4 13.6 8.9 13.85 L8.2 14.4 7.15 15.2 Q6.6 15.55 6.0 15.85 L6.3 15.25 8.05 13.25 Q8.4 12.95 8.9 12.85 L9.75 12.8" fill="#5d3e27" fill-rule="evenodd" stroke="none"/>
      <path d="M4.6 19.7 L4.8 20.0 4.8 20.4 3.8 20.45 Q3.2 20.5 2.45 20.95 L1.15 21.7 1.65 19.3 1.7 20.15 2.0 20.45 2.7 20.5 3.35 20.1 3.95 19.75 4.6 19.7" fill="#5d3e27" fill-rule="evenodd" stroke="none"/>
      <path d="M11.0 16.05 Q11.1 14.6 10.65 14.1 10.2 13.65 10.2 13.3 L10.65 13.45 11.05 13.65 11.3 14.1 11.45 15.95 11.45 18.15 Q11.35 19.55 10.6 20.1 L8.45 20.55 6.15 20.45 5.75 20.45 6.05 20.2 6.15 20.15 6.5 20.1 8.35 20.15 9.25 19.9 10.4 19.05 Q10.85 18.4 11.0 16.05" fill="#493322" fill-rule="evenodd" stroke="none"/>
      <path d="M6.3 15.25 L5.75 16.4 5.25 17.15 4.9 17.5 Q4.1 18.4 3.75 19.15 L3.9 17.9 4.4 16.75 Q4.7 15.9 4.6 15.55 3.2 16.35 2.8 16.95 L2.1 18.05 3.35 16.0 Q4.9 13.9 6.55 13.15 L8.3 12.35 Q8.4 12.85 8.0 13.25 L7.0 14.2 6.3 15.25" fill="#9d663e" fill-rule="evenodd" stroke="none"/>
      <path d="M32.95 34.4 L32.45 33.9 Q33.45 33.85 34.2 34.45 35.0 35.1 34.8 36.05 L34.3 36.7 33.35 36.7 33.3 35.5 32.95 34.4" fill="#493322" fill-rule="evenodd" stroke="none"/>
      <path d="M35.15 37.9 L35.45 37.55 Q35.95 37.7 35.8 38.7 L34.9 38.6 Q34.5 38.3 34.65 37.75 L35.15 37.9" fill="#493322" fill-rule="evenodd" stroke="none"/>
      <path d="M32.65 40.05 L33.45 40.55 Q33.6 41.35 33.05 41.6 L32.4 41.6 31.8 41.4 Q31.35 40.8 32.65 40.05" fill="#493322" fill-rule="evenodd" stroke="none"/>
      <path d="M34.8 41.25 L34.95 41.25 Q35.15 41.9 34.6 41.8 34.05 41.7 34.65 41.1 L34.8 41.25" fill="#493322" fill-rule="evenodd" stroke="none"/>
      <path d="M31.95 45.05 L31.8 45.55 Q31.25 46.6 29.95 45.85 28.65 45.1 29.8 44.3 30.25 43.95 30.9 44.5 31.6 45.1 31.95 45.05" fill="#493322" fill-rule="evenodd" stroke="none"/>
      <path d="M27.15 47.1 L27.15 45.9 27.85 46.0 28.45 46.25 29.9 46.65 31.3 47.05 30.95 47.9 Q30.55 48.5 29.5 48.5 28.5 48.45 27.85 48.0 27.25 47.65 27.15 47.1" fill="#493322" fill-rule="evenodd" stroke="none"/>
      <path d="M25.15 44.25 L25.95 45.05 Q26.05 45.85 25.8 46.05 L24.75 46.1 Q24.0 45.9 23.85 45.55 23.55 44.9 24.05 44.5 L25.15 44.25" fill="#493322" fill-rule="evenodd" stroke="none"/>
      <path d="M21.45 44.05 Q21.55 44.45 21.25 44.85 L20.55 44.9 Q20.05 44.4 20.7 44.2 L21.45 44.05" fill="#493322" fill-rule="evenodd" stroke="none"/>
      <path d="M21.65 46.05 L22.3 46.4 22.3 46.9 Q21.9 47.0 21.85 46.7 L21.65 46.05" fill="#493322" fill-rule="evenodd" stroke="none"/>
      <path d="M26.15 49.9 L26.3 49.75 26.35 50.5 26.25 51.25 24.75 51.1 Q23.65 50.9 23.8 50.45 L25.0 50.35 26.15 49.9" fill="#493322" fill-rule="evenodd" stroke="none"/>
      <path d="M26.15 51.9 L26.95 51.55 26.95 52.25 Q26.15 52.35 26.15 51.9" fill="#493322" fill-rule="evenodd" stroke="none"/>
      <path d="M18.15 48.6 L17.95 44.05 Q19.7 47.0 19.3 48.75 L18.75 49.5 Q18.3 49.7 17.8 49.5 L18.15 48.6" fill="#493322" fill-rule="evenodd" stroke="none"/>
      <path d="M11.95 47.4 L13.45 47.75 Q12.8 48.5 11.65 48.15 10.45 47.85 10.65 46.75 11.0 46.7 11.35 47.05 L11.95 47.4" fill="#493322" fill-rule="evenodd" stroke="none"/>
      <path d="M10.45 48.05 L10.15 48.75 Q10.15 49.5 9.15 49.25 8.15 49.0 8.85 48.2 9.1 47.85 9.6 47.9 L10.45 48.05" fill="#493322" fill-rule="evenodd" stroke="none"/>
      <path d="M9.15 49.9 L9.45 50.75 Q9.45 51.25 8.9 51.1 8.3 50.9 8.3 50.45 8.25 49.8 9.15 49.9" fill="#493322" fill-rule="evenodd" stroke="none"/>
      <path d="M7.3 48.75 L7.8 47.75 Q7.8 49.45 7.25 49.3 6.8 49.15 7.0 48.75 L7.3 48.75" fill="#493322" fill-rule="evenodd" stroke="none"/>
      <path d="M16.15 50.25 L16.3 50.25 Q16.25 51.55 15.4 50.8 14.5 50.0 16.15 50.25" fill="#493322" fill-rule="evenodd" stroke="none"/>
      <path d="M20.15 49.75 L21.65 49.4 Q22.25 50.25 21.6 50.95 21.1 51.5 20.15 51.6 L20.55 52.1 21.1 52.55 19.15 52.55 18.3 51.75 Q17.35 51.1 16.6 50.95 L18.25 50.8 Q19.8 50.5 20.15 49.75" fill="#493322" fill-rule="evenodd" stroke="none"/>
      <path d="M19.8 47.25 L20.15 46.55 Q20.65 47.05 20.45 48.05 19.7 48.35 19.8 47.25" fill="#493322" fill-rule="evenodd" stroke="none"/>
      <path d="M32.65 36.25 L34.15 37.25 33.95 38.65 33.15 39.75 31.8 39.9 Q30.1 39.9 29.1 39.4 27.0 38.45 27.0 37.75 27.6 37.9 29.15 38.6 L31.45 38.9 Q32.25 38.6 32.65 37.8 33.1 36.95 32.65 36.25" fill="#493322" fill-rule="evenodd" stroke="none"/>
      <path d="M32.3 33.4 L33.15 33.55 33.1 34.2 32.2 34.2 Q31.95 33.8 32.3 33.4" fill="#493322" fill-rule="evenodd" stroke="none"/>
      <path d="M30.65 28.3 L30.95 27.1 31.7 27.9 32.45 28.65 33.05 28.8 33.65 29.1 33.9 29.7 34.15 30.25 Q34.4 30.55 35.0 30.65 35.65 30.75 35.8 31.0 36.3 31.9 35.3 32.05 34.25 32.15 33.75 31.55 L32.7 30.55 Q32.2 30.35 31.3 30.85 L31.55 30.1 30.95 29.75 30.65 29.1 29.7 28.45 Q29.9 28.2 30.65 28.3" fill="#493322" fill-rule="evenodd" stroke="none"/>
      <path d="M28.65 27.45 L29.15 27.1 29.1 27.9 Q29.0 28.2 28.45 28.15 27.85 28.05 28.0 27.75 28.1 27.4 28.65 27.45" fill="#493322" fill-rule="evenodd" stroke="none"/>
      <path d="M24.8 28.1 L25.45 27.1 Q25.7 29.25 25.0 29.3 24.5 29.35 24.45 28.85 24.45 28.35 24.8 28.1" fill="#493322" fill-rule="evenodd" stroke="none"/>
      <path d="M24.8 26.1 L25.45 25.95 Q25.7 26.9 24.65 26.6 24.55 26.35 24.8 26.1" fill="#493322" fill-rule="evenodd" stroke="none"/>
      <path d="M23.3 24.3 L23.15 24.8 22.95 24.65 Q23.0 24.35 23.3 24.3" fill="#493322" fill-rule="evenodd" stroke="none"/>
      <path d="M36.65 42.55 L37.8 42.05 Q37.8 44.35 36.8 43.7 L36.6 43.2 36.65 42.55" fill="#493322" fill-rule="evenodd" stroke="none"/>
      <path d="M22.15 37.9 L23.95 37.75 23.95 38.75 23.2 38.8 22.45 38.7 22.3 38.3 22.15 37.9" fill="#493322" fill-rule="evenodd" stroke="none"/>
      <path d="M20.3 22.8 L20.65 23.1 Q19.8 25.05 19.35 23.8 19.15 23.35 19.55 22.85 L20.3 22.8" fill="#493322" fill-rule="evenodd" stroke="none"/>
      <path d="M21.15 22.95 L21.95 23.1 21.55 23.65 20.85 23.6 21.15 22.95" fill="#493322" fill-rule="evenodd" stroke="none"/>
      <path d="M21.45 20.8 L21.15 21.1 21.15 20.8 21.45 20.8" fill="#493322" fill-rule="evenodd" stroke="none"/>
      <path d="M19.45 16.95 L19.65 18.95 Q19.75 19.55 18.95 19.45 18.6 19.4 18.55 19.15 L18.45 18.65 Q18.2 16.65 19.45 16.95" fill="#493322" fill-rule="evenodd" stroke="none"/>
      <path d="M18.15 13.95 Q18.0 14.05 17.8 14.1 17.95 14.55 17.65 14.8 17.35 14.5 17.55 14.2 17.75 13.9 18.15 13.95" fill="#493322" fill-rule="evenodd" stroke="none"/>
      <path d="M18.45 14.95 L18.95 14.6 18.95 15.6 18.35 15.6 Q18.25 15.4 18.45 14.95" fill="#493322" fill-rule="evenodd" stroke="none"/>
      <path d="M17.65 11.8 L17.95 12.1 17.5 12.25 Q17.4 11.95 17.65 11.8" fill="#493322" fill-rule="evenodd" stroke="none"/>
      <path d="M19.65 13.8 L20.3 13.95 20.05 14.6 19.4 14.75 Q18.95 14.55 19.15 13.8 L19.65 13.8" fill="#493322" fill-rule="evenodd" stroke="none"/>
      <path d="M21.4 15.5 L21.3 13.95 22.8 16.6 22.75 18.05 22.1 17.85 21.7 17.3 21.3 16.55 Q21.2 16.35 21.0 16.3 21.35 16.15 21.4 15.5" fill="#493322" fill-rule="evenodd" stroke="none"/>
      <path d="M21.8 17.95 L21.95 17.8 21.85 18.95 Q21.6 19.5 20.95 19.65 20.15 19.75 19.95 19.15 19.55 17.95 21.8 17.95" fill="#493322" fill-rule="evenodd" stroke="none"/>
      <path d="M21.95 20.8 L22.65 20.6 22.4 21.4 21.7 21.45 Q21.5 21.25 21.6 21.0 21.7 20.75 21.95 20.8" fill="#493322" fill-rule="evenodd" stroke="none"/>
      <path d="M19.45 25.3 L19.3 25.8 18.95 26.4 Q18.5 26.65 18.3 26.25 18.15 25.85 18.65 25.5 L19.45 25.3" fill="#493322" fill-rule="evenodd" stroke="none"/>
      <path d="M21.45 25.6 L22.45 25.6 Q21.5 26.95 21.35 28.45 L21.25 29.25 21.0 29.9 20.25 30.4 19.35 30.6 Q19.25 31.25 18.25 31.35 L16.8 31.3 13.0 31.55 14.4 30.5 15.1 29.8 16.1 29.65 16.65 29.9 17.55 29.9 Q19.55 29.9 20.0 28.6 L20.35 27.45 21.45 25.6" fill="#493322" fill-rule="evenodd" stroke="none"/>
      <path d="M19.8 30.55 L20.15 31.25 19.75 32.35 18.8 32.4 Q18.45 31.9 19.8 30.55" fill="#493322" fill-rule="evenodd" stroke="none"/>
      <path d="M16.15 31.25 L16.45 31.4 Q16.45 32.55 16.0 32.1 15.5 31.65 16.15 31.25" fill="#493322" fill-rule="evenodd" stroke="none"/>
      <path d="M15.65 28.6 L16.65 28.45 Q16.85 29.3 15.85 29.2 14.75 29.05 15.0 28.45 15.35 28.35 15.65 28.6" fill="#493322" fill-rule="evenodd" stroke="none"/>
      <path d="M12.95 28.3 L13.15 28.45 Q13.25 28.9 12.9 29.15 12.5 29.35 12.3 28.95 12.1 28.65 12.4 28.4 L12.95 28.3" fill="#493322" fill-rule="evenodd" stroke="none"/>
      <path d="M14.8 25.1 L15.45 25.1 Q15.75 26.0 14.85 25.75 13.95 25.55 14.65 25.0 L14.8 25.1" fill="#493322" fill-rule="evenodd" stroke="none"/>
      <path d="M15.3 26.45 L15.95 27.1 Q16.1 28.0 15.4 27.5 14.7 27.05 15.3 26.45" fill="#493322" fill-rule="evenodd" stroke="none"/>
      <path d="M15.95 24.95 L16.45 24.95 Q16.35 25.45 15.85 25.25 L15.8 25.05 15.95 24.95" fill="#493322" fill-rule="evenodd" stroke="none"/>
      <path d="M13.45 20.1 L13.95 20.6 Q14.1 21.55 13.2 21.05 12.4 20.55 13.45 20.1" fill="#493322" fill-rule="evenodd" stroke="none"/>
      <path d="M12.95 17.95 L13.15 18.45 Q13.25 18.95 12.85 18.95 12.65 18.3 12.95 17.95" fill="#493322" fill-rule="evenodd" stroke="none"/>
      <path d="M6.3 32.25 L7.3 32.25 6.55 33.05 Q5.9 33.45 5.65 32.9 5.5 32.6 5.75 32.4 6.0 32.15 6.3 32.25" fill="#ba8760" fill-rule="evenodd" stroke="none"/>
      <path d="M5.65 34.55 L5.95 34.9 5.95 35.2 Q5.35 35.4 5.2 34.95 5.05 34.45 5.65 34.55" fill="#ba8760" fill-rule="evenodd" stroke="none"/>
      <path d="M4.65 36.05 L4.3 37.05 3.85 37.05 Q3.7 36.65 4.0 36.4 4.2 36.25 4.65 36.05" fill="#ba8760" fill-rule="evenodd" stroke="none"/>
      <path d="M12.15 37.55 L12.3 37.75 12.15 38.2 11.65 38.2 Q11.55 37.95 11.7 37.75 11.8 37.5 12.15 37.55" fill="#ba8760" fill-rule="evenodd" stroke="none"/>
      <path d="M11.15 38.55 L11.65 38.9 Q11.05 39.45 10.95 40.7 9.85 41.0 10.15 39.8 10.4 38.65 11.15 38.55" fill="#ba8760" fill-rule="evenodd" stroke="none"/>
      <path d="M12.45 36.05 L12.95 35.75 12.95 36.7 Q12.65 36.9 12.3 36.7 L12.45 36.05" fill="#ba8760" fill-rule="evenodd" stroke="none"/>
      <path d="M14.45 40.9 L15.3 42.4 14.9 42.75 14.35 42.6 14.5 41.8 14.45 40.9" fill="#ba8760" fill-rule="evenodd" stroke="none"/>
      <path d="M14.8 37.05 L15.15 36.9 Q15.35 37.7 14.65 37.55 14.55 37.25 14.8 37.05" fill="#ba8760" fill-rule="evenodd" stroke="none"/>
      <path d="M11.8 39.55 L12.65 39.75 Q12.75 40.45 12.0 40.25 11.3 40.1 11.8 39.55" fill="#ba8760" fill-rule="evenodd" stroke="none"/>
      <path d="M13.45 33.75 L13.65 34.4 Q13.25 34.55 13.15 34.2 13.05 33.85 13.45 33.75" fill="#ba8760" fill-rule="evenodd" stroke="none"/>
      <path d="M10.95 33.05 L11.3 33.4 10.8 33.55 Q10.75 33.25 10.95 33.05" fill="#ba8760" fill-rule="evenodd" stroke="none"/>
      <path d="M12.45 25.3 L12.95 26.1 12.0 26.25 Q11.75 25.55 12.45 25.3" fill="#ba8760" fill-rule="evenodd" stroke="none"/>
      <path d="M11.8 27.1 L12.8 27.45 Q12.4 27.9 12.05 27.85 11.7 27.8 11.8 27.1" fill="#ba8760" fill-rule="evenodd" stroke="none"/>
      <path d="M8.8 24.3 L9.45 25.1 8.0 25.25 Q7.8 24.5 8.8 24.3" fill="#ba8760" fill-rule="evenodd" stroke="none"/>
      <path d="M9.15 10.1 L10.8 10.6 Q10.65 11.2 9.95 11.5 9.25 11.75 8.95 11.0 8.85 10.7 9.15 10.1" fill="#ba8760" fill-rule="evenodd" stroke="none"/>
      <path d="M11.8 10.6 L12.15 11.3 11.5 11.2 11.8 10.6" fill="#ba8760" fill-rule="evenodd" stroke="none"/>
      <path d="M22.45 41.75 L22.95 41.9 Q23.1 42.35 22.6 42.6 L21.85 42.55 Q21.6 42.25 21.85 41.95 22.15 41.65 22.45 41.75" fill="#ba8760" fill-rule="evenodd" stroke="none"/>
      <path d="M20.45 39.9 L20.65 40.4 19.85 40.55 Q19.7 40.0 20.45 39.9" fill="#ba8760" fill-rule="evenodd" stroke="none"/>
      <path d="M19.95 41.9 L20.3 42.05 19.8 42.2 19.95 41.9" fill="#ba8760" fill-rule="evenodd" stroke="none"/>
      <path d="M23.95 41.9 L24.3 42.05 23.8 42.2 23.95 41.9" fill="#ba8760" fill-rule="evenodd" stroke="none"/>
      <path d="M20.45 45.75 L20.65 46.9 Q20.35 48.0 19.85 46.8 19.45 45.7 20.45 45.75" fill="#ba8760" fill-rule="evenodd" stroke="none"/>
    </g>
  </defs>
</svg>
