<?xml version="1.0" encoding="UTF-8" standalone="no"?>
<svg xmlns:xlink="http://www.w3.org/1999/xlink" height="189.7px" width="188.45px" xmlns="http://www.w3.org/2000/svg">
  <g transform="matrix(1.0, 0.0, 0.0, 1.0, 0.0, 0.0)">
    <use height="189.7" transform="matrix(1.0, 0.0, 0.0, 1.0, 0.0, 0.0)" width="188.45" xlink:href="#shape0"/>
  </g>
  <defs>
    <g id="shape0" transform="matrix(1.0, 0.0, 0.0, 1.0, 0.0, 0.0)">
      <path d="M165.95 170.35 Q158.75 178.15 154.9 179.4 151.35 180.55 146.95 179.4 142.4 178.25 138.9 175.1 130.25 167.3 133.9 154.6 134.6 152.1 140.8 147.2 L152.8 137.75 Q168.1 124.8 161.05 116.05 156.05 109.8 142.6 95.45 127.4 79.25 112.6 64.75 71.7 24.7 63.2 26.1 58.9 26.8 53.7 31.8 51.1 34.25 44.6 41.95 39.0 48.6 35.85 51.1 31.1 54.75 27.3 53.55 12.95 48.95 10.5 44.3 8.1 39.7 13.55 27.55 23.25 17.65 36.25 9.7 62.25 -6.15 78.7 3.9 97.15 15.15 133.1 51.25 166.2 84.4 182.65 106.1 195.6 123.15 179.75 151.4 173.95 161.7 165.95 170.35" fill="#dedfa2" fill-rule="evenodd" stroke="none"/>
      <path d="M73.25 8.6 Q70.15 7.8 66.45 7.9 58.45 8.1 51.05 12.65 43.35 17.3 31.0 28.9 L20.15 39.6 11.85 31.65 13.55 27.55 Q21.45 19.5 32.5 12.1 54.65 -2.65 70.55 0.7 67.4 1.1 65.7 2.6 63.85 4.2 68.25 6.5 70.9 7.9 73.25 8.6" fill="#bdbf71" fill-rule="evenodd" stroke="none"/>
      <path d="M142.6 95.45 Q127.4 79.25 112.6 64.75 73.0 25.95 63.8 26.05 L65.0 25.95 70.3 26.65 Q79.45 28.95 90.0 37.4 110.05 53.55 135.7 78.35 168.95 110.55 170.4 120.0 171.8 129.05 160.95 147.65 155.5 156.95 149.8 164.45 140.95 159.4 133.8 155.0 L133.9 154.6 Q134.6 152.1 140.8 147.2 L152.8 137.75 Q168.1 124.8 161.05 116.05 156.05 109.8 142.6 95.45" fill="#bdbf71" fill-rule="evenodd" stroke="none"/>
      <path d="M19.95 21.65 L19.5 23.1 Q19.0 24.95 19.0 27.0 19.0 33.55 23.65 39.6 28.3 45.65 33.95 47.8 36.75 48.9 38.65 48.8 35.65 55.9 33.15 58.2 28.7 62.25 25.15 64.15 23.4 65.1 22.5 65.2 19.2 65.0 15.1 63.2 6.8 59.55 2.6 51.45 -1.2 44.05 0.55 35.5 1.1 32.85 2.1 30.4 L3.05 28.45 Q5.8 26.8 9.2 25.05 12.75 23.25 16.7 22.25 L19.95 21.65" fill="#a2a550" fill-rule="evenodd" stroke="none"/>
      <path d="M168.65 167.5 L167.9 171.0 Q166.8 175.05 165.15 177.8 163.55 180.5 158.25 185.35 L153.3 189.65 Q150.2 189.95 145.75 188.65 136.8 186.05 129.9 178.0 123.6 170.8 124.6 161.1 124.9 158.05 125.85 155.15 L126.8 152.85 Q128.05 151.5 132.7 148.9 135.25 147.5 138.6 146.95 L141.5 146.7 142.15 151.1 Q143.85 156.45 148.95 161.4 153.7 166.0 161.65 167.2 L168.65 167.5" fill="#a2a550" fill-rule="evenodd" stroke="none"/>
      <path d="M183.95 135.75 Q181.85 144.55 174.8 155.7 171.3 161.3 168.2 165.1 L165.75 165.55 Q163.1 165.75 162.3 164.65 166.05 160.75 170.3 154.9 178.8 143.2 181.15 133.55 183.35 124.65 183.85 118.25 L183.95 113.65 185.2 119.55 Q186.0 127.15 183.95 135.75" fill="#e5e5b5" fill-rule="evenodd" stroke="none"/>
      <path d="M179.6 104.65 L175.45 102.0 Q174.2 101.35 174.6 103.25 L175.2 105.3 Q168.1 96.65 159.2 86.35 141.5 65.7 132.7 57.35 L105.9 31.2 89.6 15.05 104.7 28.1 Q121.55 42.85 130.3 51.2 139.1 59.55 160.2 82.95 L179.6 104.65" fill="#ececcb" fill-rule="evenodd" stroke="none"/>
      <path d="M56.95 4.1 Q39.65 13.75 35.9 16.8 32.2 19.9 22.75 29.95 L22.1 26.8 Q21.65 23.4 22.75 22.3 36.15 12.65 42.05 9.15 45.75 6.95 51.7 5.3 L56.95 4.1" fill="#a9ac5d" fill-rule="evenodd" stroke="none"/>
      <path d="M163.4 116.7 L143.55 94.85 Q124.05 73.25 119.8 69.4 115.25 65.3 98.7 49.65 L83.0 34.8 100.05 49.8 125.95 72.9 Q133.5 79.75 148.2 94.85 L163.4 110.8 Q165.15 112.7 165.05 115.4 164.9 118.05 163.4 116.7" fill="#a9ac5d" fill-rule="evenodd" stroke="none"/>
      <path d="M164.9 125.0 L164.1 129.7 Q163.0 135.2 161.2 139.05 158.35 145.15 148.5 157.85 147.6 157.2 145.65 154.35 144.4 152.55 144.25 150.1 L144.35 148.0 158.15 135.3 Q160.2 133.4 162.75 129.0 L164.9 125.0" fill="#a9ac5d" fill-rule="evenodd" stroke="none"/>
      <path d="M16.7 22.25 L19.95 21.65 19.05 26.3 Q18.8 32.0 22.15 37.45 L22.1 37.65 Q19.05 39.55 15.9 42.45 9.7 48.25 9.4 53.2 9.15 57.8 12.5 61.1 14.3 62.8 16.7 63.85 7.3 60.4 2.6 51.45 -1.2 44.05 0.55 35.5 1.1 32.85 2.1 30.4 L3.05 28.45 Q5.8 26.8 9.2 25.05 12.75 23.25 16.7 22.25" fill="#8e9344" fill-rule="evenodd" stroke="none"/>
      <path d="M138.6 146.95 L141.5 146.7 142.15 151.1 Q143.85 156.45 148.95 161.4 L150.85 163.0 150.7 163.35 Q147.4 165.45 144.3 168.45 138.05 174.45 138.85 179.1 139.55 183.05 142.55 185.95 144.4 187.8 146.75 188.9 137.2 186.5 129.9 178.0 123.6 170.8 124.6 161.1 124.9 158.05 125.85 155.15 L126.8 152.85 Q128.05 151.5 132.7 148.9 135.25 147.5 138.6 146.95" fill="#8e9344" fill-rule="evenodd" stroke="none"/>
      <path d="M15.75 25.35 L15.1 29.3 Q13.15 29.95 9.85 31.95 7.8 33.15 4.8 36.75 L2.2 40.05 3.05 31.05 Q5.05 28.85 7.65 27.75 10.3 26.7 15.75 25.35" fill="#696d37" fill-rule="evenodd" stroke="none"/>
      <path d="M139.1 150.2 Q138.4 151.95 139.5 155.25 137.3 156.1 134.05 157.85 132.0 158.95 128.95 161.5 L126.35 163.8 Q125.5 162.45 125.7 160.95 125.85 160.0 126.9 156.95 L127.9 154.15 129.8 153.05 Q132.0 151.8 133.8 151.1 136.65 150.0 139.1 150.2" fill="#696d37" fill-rule="evenodd" stroke="none"/>
      <path d="M161.2 177.6 Q159.55 180.6 156.15 183.15 L153.1 185.05 150.25 181.95 Q151.2 181.65 152.35 180.9 154.7 179.4 155.95 177.35 L158.2 172.75 159.0 170.6 Q161.05 170.0 162.0 172.0 163.05 174.25 161.2 177.6" fill="#c2c47c" fill-rule="evenodd" stroke="none"/>
      <path d="M30.2 49.65 Q32.65 49.65 32.0 53.6 31.4 57.3 29.35 59.3 27.0 61.65 24.55 63.05 20.75 62.95 19.7 62.4 L15.1 59.75 Q20.15 57.35 22.55 55.6 L30.2 49.65" fill="#c2c47c" fill-rule="evenodd" stroke="none"/>
    </g>
  </defs>
</svg>
