<?xml version="1.0" encoding="UTF-8" standalone="no"?>
<svg xmlns:xlink="http://www.w3.org/1999/xlink" height="59.3px" width="52.85px" xmlns="http://www.w3.org/2000/svg">
  <g transform="matrix(1.0, 0.0, 0.0, 1.0, 0.0, 0.0)">
    <use height="37.9" transform="matrix(1.0, 0.0, 0.0, 1.0, 0.0, 0.0)" width="36.65" xlink:href="#shape0"/>
  </g>
  <defs>
    <g id="shape0" transform="matrix(1.0, 0.0, 0.0, 1.0, 0.0, 0.0)">
      <path d="M29.85 0.0 L30.65 0.25 Q31.75 0.7 33.25 1.8 L34.1 2.45 34.35 2.65 34.85 3.15 35.4 3.85 35.6 4.0 35.6 4.05 36.0 4.65 36.1 4.75 36.5 5.5 36.6 5.8 36.65 5.85 36.65 5.95 32.75 9.55 Q33.2 10.85 32.6 11.35 32.1 11.9 30.95 11.65 L20.6 22.8 Q22.35 26.7 20.85 30.7 19.4 34.75 15.5 36.7 11.5 38.7 7.25 37.3 3.05 35.95 1.1 32.05 -0.85 28.1 0.6 23.95 2.05 19.75 6.05 17.75 10.3 15.65 14.7 17.3 L25.1 6.1 Q24.8 5.05 25.3 4.45 25.75 4.0 26.9 4.15 L27.3 3.7 27.35 3.6 28.4 2.15 28.6 1.8 28.75 1.6 28.8 1.5 28.95 1.35 29.85 0.0" fill="url(#gradient0)" fill-rule="evenodd" stroke="none"/>
      <path d="M4.45 19.3 Q4.8 20.85 6.3 23.05 7.8 25.3 10.1 27.45 12.55 29.8 15.0 31.3 17.45 32.75 19.0 32.8 L17.75 34.45 Q14.8 37.45 10.65 37.55 6.45 37.65 3.4 34.75 0.4 31.85 0.3 27.7 0.2 23.5 3.1 20.45 3.6 19.9 4.45 19.3" fill="url(#gradient1)" fill-rule="evenodd" stroke="none"/>
      <path d="M19.2 32.5 Q18.5 33.3 15.85 31.8 13.2 30.3 10.2 27.45 7.2 24.6 5.6 22.05 4.0 19.45 4.75 18.7 5.45 17.9 8.1 19.4 10.75 20.9 13.75 23.75 16.75 26.6 18.35 29.2 19.95 31.75 19.2 32.5" fill="url(#gradient2)" fill-rule="evenodd" stroke="none"/>
      <path d="M4.65 18.8 Q4.1 19.6 5.6 22.05 7.2 24.6 10.2 27.45 13.2 30.3 15.85 31.8 18.4 33.25 19.15 32.55 18.35 33.35 16.15 32.35 13.5 31.15 10.05 27.8 6.55 24.5 5.15 21.85 4.0 19.7 4.65 18.8" fill="#866a36" fill-rule="evenodd" stroke="none"/>
      <path d="M10.7 30.55 Q10.35 30.95 9.75 30.95 9.15 30.95 8.75 30.55 8.35 30.15 8.3 29.6 8.3 29.0 8.65 28.6 9.0 28.2 9.6 28.2 10.15 28.2 10.6 28.6 11.0 29.0 11.05 29.6 L10.7 30.55" fill="url(#gradient3)" fill-rule="evenodd" stroke="none"/>
      <path d="M4.7 23.2 L4.15 23.45 3.55 23.2 3.3 22.65 Q3.25 22.3 3.5 22.05 4.05 21.5 4.65 22.05 5.2 22.7 4.7 23.2" fill="url(#gradient4)" fill-rule="evenodd" stroke="none"/>
      <path d="M7.75 25.45 Q7.2 26.0 6.6 25.45 6.0 24.85 6.55 24.3 7.1 23.75 7.7 24.3 L7.95 24.9 7.75 25.45" fill="url(#gradient5)" fill-rule="evenodd" stroke="none"/>
      <path d="M13.5 28.1 L12.95 28.3 12.4 28.05 12.1 27.5 12.3 26.95 Q12.55 26.7 12.9 26.7 13.25 26.7 13.45 26.95 14.05 27.45 13.5 28.1" fill="url(#gradient6)" fill-rule="evenodd" stroke="none"/>
      <path d="M5.35 29.1 Q5.0 29.5 4.4 29.5 3.85 29.5 3.45 29.1 3.0 28.7 3.0 28.15 2.95 27.55 3.35 27.15 3.75 26.75 4.3 26.8 4.85 26.8 5.25 27.2 5.7 27.6 5.75 28.15 5.75 28.75 5.35 29.1" fill="url(#gradient7)" fill-rule="evenodd" stroke="none"/>
      <path d="M14.35 34.15 Q14.15 34.4 13.8 34.4 L13.2 34.15 Q12.6 33.55 13.1 32.95 L14.3 33.0 14.55 33.6 14.35 34.15" fill="url(#gradient8)" fill-rule="evenodd" stroke="none"/>
      <path d="M7.55 20.25 Q6.85 19.55 6.85 19.1 L8.55 19.2 Q9.35 19.95 8.65 21.0 8.2 20.9 7.55 20.25" fill="url(#gradient9)" fill-rule="evenodd" stroke="none"/>
      <path d="M12.95 27.5 L12.35 26.6 13.7 26.65 Q14.3 27.25 13.8 28.05 L12.95 27.5" fill="url(#gradient10)" fill-rule="evenodd" stroke="none"/>
      <path d="M9.5 26.0 Q8.8 25.3 8.65 24.65 L9.7 24.35 Q10.3 24.35 10.7 24.75 L11.15 25.75 10.8 26.85 Q10.2 26.7 9.5 26.0" fill="url(#gradient11)" fill-rule="evenodd" stroke="none"/>
      <path d="M17.3 28.75 L16.5 27.65 Q17.3 27.15 18.15 27.9 19.0 28.75 18.45 29.6 L17.3 28.75" fill="url(#gradient12)" fill-rule="evenodd" stroke="none"/>
      <path d="M27.85 8.9 L28.8 9.7 Q29.7 10.7 29.65 11.4 29.55 12.55 26.65 11.65 L25.5 11.55 Q24.35 11.75 24.45 13.3 L24.9 14.55 Q25.2 15.65 24.7 16.1 L23.4 16.8 Q22.55 17.05 22.3 17.35 L21.05 17.7 Q20.0 17.85 19.6 18.6 L18.95 20.45 18.35 21.25 Q18.0 21.3 18.75 22.35 L19.8 24.2 Q20.5 26.7 19.85 29.3 19.15 32.05 19.2 32.25 19.45 33.6 17.3 32.8 14.75 31.9 11.0 28.25 7.35 24.75 5.9 21.85 4.75 19.45 5.5 19.45 L8.0 18.75 Q10.3 18.05 11.2 18.25 12.05 18.4 12.7 19.55 13.3 20.6 13.85 20.6 14.6 20.65 14.8 19.55 L15.1 18.2 Q16.7 16.6 18.15 16.15 L19.8 15.75 20.9 14.75 21.8 12.2 Q22.25 10.45 22.8 9.9 23.35 9.25 25.05 9.55 L27.25 10.05 Q28.05 10.15 27.85 8.9" fill="url(#gradient13)" fill-rule="evenodd" stroke="none"/>
      <path d="M15.5 36.7 Q11.5 38.7 7.25 37.3 3.05 35.95 1.1 32.05 -0.85 28.1 0.6 23.95 2.05 19.75 6.05 17.75 10.05 15.75 14.3 17.15 18.5 18.5 20.45 22.4 22.4 26.35 20.95 30.55 19.5 34.7 15.5 36.7" fill="url(#gradient14)" fill-rule="evenodd" stroke="none"/>
      <path d="M20.35 22.45 Q18.45 18.6 14.3 17.25 10.2 15.9 6.25 17.85 2.35 19.8 0.95 23.9 -0.45 28.05 1.45 31.9 3.35 35.75 7.5 37.05 11.6 38.4 15.55 36.45 19.45 34.5 20.85 30.4 22.25 26.3 20.35 22.45 M14.3 17.15 Q18.5 18.5 20.45 22.4 22.4 26.35 20.95 30.55 19.5 34.7 15.5 36.7 11.5 38.7 7.25 37.3 3.05 35.95 1.1 32.05 -0.85 28.1 0.6 23.95 2.05 19.75 6.05 17.75 10.05 15.75 14.3 17.15" fill="url(#gradient15)" fill-rule="evenodd" stroke="none"/>
      <path d="M13.1 20.45 Q14.45 22.9 17.1 24.2 18.4 26.5 16.9 29.05 L15.15 31.15 Q13.9 32.85 11.8 32.95 7.55 33.2 3.25 25.5 2.0 23.25 3.9 20.75 5.6 18.6 8.2 17.75 L10.9 17.5 12.4 17.85 12.35 18.3 Q12.3 19.0 13.1 20.45" fill="url(#gradient16)" fill-rule="evenodd" stroke="none"/>
      <path d="M19.15 24.9 Q19.8 24.85 20.15 23.3 L20.75 25.5 Q21.2 28.05 20.5 30.05 19.8 32.05 18.25 33.7 L16.8 34.9 15.3 34.0 16.15 33.55 Q17.2 32.7 18.25 30.8 19.3 28.9 19.35 26.7 L19.15 24.9" fill="url(#gradient17)" fill-rule="evenodd" stroke="none"/>
      <path d="M19.65 23.7 L18.05 23.65 Q16.9 23.15 15.65 22.0 L13.9 19.75 Q13.3 18.6 13.75 18.2 L15.35 18.25 17.75 19.9 Q18.95 21.1 19.55 22.2 20.1 23.3 19.65 23.7" fill="url(#gradient18)" fill-rule="evenodd" stroke="none"/>
      <path d="M25.3 4.45 L27.5 4.35 Q29.05 4.85 30.55 6.3 32.05 7.75 32.65 9.2 33.25 10.7 32.6 11.35 L30.45 11.5 Q28.9 10.95 27.4 9.55 25.9 8.15 25.25 6.65 24.65 5.15 25.3 4.45 M30.35 6.5 Q29.15 5.35 28.0 4.85 26.8 4.35 26.4 4.85 25.95 5.3 26.5 6.4 27.0 7.55 28.2 8.7 L30.6 10.3 32.2 10.35 Q32.65 9.85 32.1 8.75 31.55 7.65 30.35 6.5" fill="url(#gradient19)" fill-rule="evenodd" stroke="none"/>
      <path d="M25.4 5.8 Q25.15 6.4 25.75 7.45 26.3 8.55 27.4 9.55 L29.6 11.1 31.3 11.3 19.95 23.55 19.8 23.8 18.1 23.85 15.6 22.2 Q14.35 21.05 13.85 19.85 13.3 18.7 13.8 18.2 L14.05 18.0 25.4 5.8" fill="url(#gradient20)" fill-rule="evenodd" stroke="none"/>
      <path d="M27.4 9.5 Q29.0 10.95 30.5 11.3 L20.0 22.65 19.8 22.9 18.25 23.05 Q17.2 22.65 16.1 21.65 15.05 20.65 14.65 19.65 14.2 18.6 14.7 18.1 L14.95 17.9 25.45 6.55 Q25.8 7.95 27.4 9.5" fill="url(#gradient21)" fill-rule="evenodd" stroke="none"/>
      <path d="M16.65 22.95 L15.65 22.1 14.3 20.55 14.35 20.35 15.9 22.2 16.65 22.95" fill="url(#gradient22)" fill-rule="evenodd" stroke="none"/>
      <path d="M25.45 5.75 L25.4 6.2 15.15 17.35 15.0 17.5 Q14.25 18.4 14.25 19.2 L14.05 19.15 Q13.8 18.25 13.7 18.85 L13.75 19.15 13.7 19.25 Q13.55 18.4 13.85 18.1 L14.1 17.95 25.45 5.75" fill="url(#gradient23)" fill-rule="evenodd" stroke="none"/>
      <path d="M30.4 11.8 L30.55 11.5 30.05 11.3 30.15 11.2 31.35 11.25 20.0 23.45 19.85 23.7 Q19.55 24.0 18.95 23.95 L18.9 23.5 19.6 23.25 20.05 23.0 30.4 11.8" fill="url(#gradient24)" fill-rule="evenodd" stroke="none"/>
      <path d="M25.65 7.15 L26.35 8.3 15.05 20.5 14.8 20.5 14.85 20.65 14.8 20.7 14.6 20.2 14.45 20.1 Q14.35 20.0 14.35 20.35 L13.75 19.15 14.05 19.15 14.1 19.35 14.3 19.8 14.25 19.2 14.4 19.25 25.65 7.15" fill="url(#gradient25)" fill-rule="evenodd" stroke="none"/>
      <path d="M13.75 19.15 L14.35 20.35 14.3 20.55 Q13.85 19.9 13.7 19.25 L13.75 19.15" fill="url(#gradient26)" fill-rule="evenodd" stroke="none"/>
      <path d="M13.75 19.15 L14.35 20.35 14.3 20.55 Q13.85 19.9 13.7 19.25 L13.75 19.15" fill="url(#gradient27)" fill-rule="evenodd" stroke="none"/>
      <path d="M14.1 19.35 L14.05 19.15 14.25 19.2 14.3 19.8 14.1 19.35" fill="url(#gradient28)" fill-rule="evenodd" stroke="none"/>
      <path d="M14.1 19.35 L14.05 19.15 14.25 19.2 14.3 19.8 14.1 19.35" fill="url(#gradient29)" fill-rule="evenodd" stroke="none"/>
      <path d="M28.9 10.6 L29.35 10.85 30.0 11.25 30.05 11.3 18.85 23.4 18.9 23.5 18.2 23.5 18.65 23.9 17.65 23.55 17.95 23.4 17.85 23.25 17.35 23.05 28.9 10.6" fill="url(#gradient30)" fill-rule="evenodd" stroke="none"/>
      <path d="M30.0 11.25 L29.35 10.85 30.15 11.2 30.05 11.3 30.0 11.25" fill="url(#gradient31)" fill-rule="evenodd" stroke="none"/>
      <path d="M30.0 11.25 L29.35 10.85 30.15 11.2 30.05 11.3 30.0 11.25" fill="url(#gradient32)" fill-rule="evenodd" stroke="none"/>
      <path d="M18.9 23.5 L18.95 23.95 18.65 23.9 18.2 23.5 18.9 23.5" fill="url(#gradient33)" fill-rule="evenodd" stroke="none"/>
      <path d="M18.9 23.5 L18.95 23.95 18.65 23.9 18.2 23.5 18.9 23.5" fill="url(#gradient34)" fill-rule="evenodd" stroke="none"/>
      <path d="M14.8 20.5 L15.05 20.5 15.4 20.95 15.45 21.4 14.85 20.65 14.8 20.5" fill="#ffffff" fill-rule="evenodd" stroke="none"/>
      <path d="M15.7 21.8 L15.8 21.65 16.0 21.75 15.95 21.9 Q15.75 21.95 15.7 21.8" fill="#ffffff" fill-rule="evenodd" stroke="none"/>
      <path d="M32.2 10.35 L30.6 10.3 28.2 8.7 Q27.0 7.55 26.5 6.4 25.95 5.3 26.4 4.85 26.8 4.35 28.0 4.85 29.15 5.35 30.35 6.5 31.55 7.65 32.1 8.75 32.65 9.85 32.2 10.35" fill="url(#gradient35)" fill-rule="evenodd" stroke="none"/>
      <path d="M25.3 4.45 L27.5 4.35 Q29.05 4.85 30.55 6.3 32.05 7.75 32.65 9.2 33.25 10.7 32.6 11.35 L30.45 11.5 Q28.9 10.95 27.4 9.55 25.9 8.15 25.25 6.65 24.65 5.15 25.3 4.45 M27.6 4.5 L25.6 4.55 Q25.05 5.15 25.65 6.5 26.25 7.85 27.65 9.2 29.1 10.55 30.5 11.1 L32.5 11.05 Q33.05 10.45 32.45 9.1 31.85 7.7 30.45 6.35 29.05 5.0 27.6 4.5" fill="url(#gradient36)" fill-rule="evenodd" stroke="none"/>
      <path d="M28.0 4.85 Q28.75 5.15 29.5 5.8 28.8 5.25 28.1 4.95 27.0 4.5 26.55 4.95 26.15 5.4 26.65 6.5 27.15 7.55 28.3 8.65 L30.55 10.15 32.1 10.2 Q32.5 9.75 32.05 8.7 L32.1 8.8 Q32.6 9.9 32.2 10.35 L30.6 10.3 28.2 8.7 Q27.0 7.55 26.5 6.4 25.95 5.3 26.4 4.85 26.8 4.35 28.0 4.85" fill="url(#gradient37)" fill-rule="evenodd" stroke="none"/>
      <path d="M28.0 4.85 Q28.45 5.05 28.95 5.4 28.55 5.1 28.15 4.95 27.05 4.5 26.65 4.95 26.25 5.35 26.75 6.45 27.25 7.5 28.35 8.55 L30.55 10.1 Q31.65 10.5 32.05 10.1 32.5 9.65 32.0 8.6 L31.8 8.2 32.1 8.75 Q32.65 9.85 32.2 10.35 L30.6 10.3 28.2 8.7 Q27.0 7.55 26.5 6.4 25.95 5.3 26.4 4.85 26.8 4.35 28.0 4.85" fill="url(#gradient38)" fill-rule="evenodd" stroke="none"/>
      <path d="M29.85 0.0 L30.65 0.25 Q31.75 0.7 33.25 1.8 36.0 3.8 36.65 5.95 L32.1 10.25 31.15 10.2 Q29.95 9.9 28.4 8.5 26.85 7.05 26.4 5.85 L26.3 4.95 28.4 2.15 29.85 0.0" fill="#a78a56" fill-rule="evenodd" stroke="none"/>
      <path d="M31.15 4.4 Q29.8 3.25 29.4 2.5 29.1 2.0 28.95 1.35 L29.85 0.0 30.45 1.2 30.9 2.0 31.4 2.7 Q31.6 2.95 32.75 4.0 L33.4 4.6 33.55 4.7 33.75 4.75 33.95 4.65 34.15 4.65 34.0 5.15 34.3 5.6 34.25 6.0 33.2 5.9 Q32.4 5.55 31.15 4.4" fill="#cba769" fill-rule="evenodd" stroke="none"/>
      <path d="M32.6 2.25 L32.2 1.95 31.3 1.15 31.95 1.2 32.5 1.65 32.8 1.95 Q33.2 2.25 32.6 2.25" fill="url(#gradient39)" fill-rule="evenodd" stroke="none"/>
      <path d="M32.75 3.15 L32.35 2.7 Q32.45 2.4 33.05 3.0 L33.4 3.35 Q33.15 3.45 32.75 3.15" fill="url(#gradient40)" fill-rule="evenodd" stroke="none"/>
      <path d="M34.1 3.0 L34.25 3.1 34.35 3.35 34.05 3.1 34.1 3.0" fill="url(#gradient41)" fill-rule="evenodd" stroke="none"/>
      <path d="M35.5 4.3 Q35.4 4.05 35.6 4.05 L36.35 5.15 36.25 5.1 35.5 4.3" fill="url(#gradient42)" fill-rule="evenodd" stroke="none"/>
      <path d="M35.95 5.3 L36.05 5.2 36.5 5.6 Q36.3 5.65 35.95 5.3" fill="url(#gradient43)" fill-rule="evenodd" stroke="none"/>
      <path d="M26.3 4.95 L28.4 2.15 29.85 0.0 30.05 1.05 Q30.55 2.35 32.0 3.65 L34.35 5.75 34.3 5.3 Q34.3 4.85 34.5 4.9 L35.4 5.9 Q36.05 6.2 36.65 5.9 L36.65 5.95 32.1 10.25 31.15 10.2 Q29.95 9.9 28.4 8.5 26.85 7.05 26.4 5.85 L26.3 4.95" fill="#a58d54" fill-rule="evenodd" stroke="none"/>
      <path d="M29.6 7.75 L29.5 7.45 29.5 7.2 Q29.0 7.35 29.05 7.6 L29.6 7.75 M31.15 7.4 Q31.5 7.25 31.35 7.05 L31.3 6.85 30.9 7.25 31.15 7.4 M32.7 5.3 Q32.5 5.1 32.25 5.5 32.0 5.9 32.15 6.15 L32.55 6.1 Q32.9 5.75 32.85 5.4 L32.7 5.3 M30.85 2.55 L30.85 2.4 32.0 3.65 34.3 5.7 Q34.15 5.85 34.25 6.05 L34.45 6.4 Q34.7 6.6 35.25 6.05 L35.35 5.85 35.45 5.95 Q34.95 6.6 34.55 6.5 34.3 6.5 34.0 6.15 33.7 5.8 33.9 5.6 L33.35 4.95 32.45 4.1 33.3 5.6 33.3 6.25 33.2 7.1 32.55 7.3 Q32.1 7.3 31.95 7.5 L31.85 7.8 31.35 8.0 31.0 8.1 30.8 8.4 30.35 8.6 29.95 8.0 29.6 8.0 29.4 7.95 29.25 7.95 28.7 7.65 28.1 7.45 27.35 6.4 27.25 6.1 27.35 5.8 27.25 5.35 Q26.8 5.25 26.7 4.8 L26.7 4.45 27.3 3.7 27.25 4.1 Q27.25 4.55 27.5 4.65 L27.85 4.65 Q27.75 5.25 28.05 5.75 L28.4 6.15 28.4 6.6 28.75 6.8 29.15 6.65 29.55 7.05 Q29.9 6.7 30.3 6.85 L30.85 6.95 31.3 6.4 Q31.45 5.75 31.1 5.95 30.9 5.75 31.05 5.3 L31.3 4.65 Q31.45 4.05 31.05 3.25 L30.85 2.55" fill="#8b7347" fill-rule="evenodd" stroke="none"/>
      <path d="M35.1 6.0 L35.1 5.55 Q34.8 4.9 34.5 4.9 34.9 4.9 35.35 5.85 L35.25 6.05 Q34.7 6.6 34.45 6.4 L34.25 6.05 Q34.45 6.3 34.75 6.25 L35.1 6.0" fill="#615031" fill-rule="evenodd" stroke="none"/>
      <path d="M32.2 7.55 Q32.0 7.75 32.1 7.95 32.25 8.25 32.55 8.1 L32.85 7.65 32.65 7.45 32.2 7.55 M26.7 4.45 L26.7 4.8 Q26.8 5.25 27.25 5.35 L27.35 5.8 27.25 6.1 27.35 6.4 28.1 7.45 28.7 7.65 29.25 7.95 29.4 7.95 29.6 8.0 29.95 8.0 30.35 8.6 30.8 8.4 31.0 8.1 31.35 8.0 31.85 7.8 31.95 7.5 Q32.1 7.3 32.55 7.3 L33.2 7.1 33.3 6.25 33.3 5.6 32.45 4.1 33.35 4.95 33.9 5.6 Q33.7 5.8 34.0 6.15 34.3 6.5 34.55 6.5 34.95 6.6 35.45 5.95 L35.6 6.0 35.35 6.45 34.8 6.9 34.1 7.55 33.75 7.8 33.4 7.85 32.85 8.45 32.45 9.05 31.7 9.4 31.15 9.35 30.45 9.1 29.75 9.0 28.45 8.0 27.55 7.15 27.2 6.7 26.9 6.05 26.55 5.55 26.3 5.0 26.3 4.95 26.7 4.45" fill="#735e39" fill-rule="evenodd" stroke="none"/>
      <path d="M26.45 6.0 Q26.2 5.35 26.3 5.0 L26.55 5.55 26.9 6.05 27.2 6.7 27.55 7.15 28.45 8.0 29.75 9.0 30.45 9.1 31.15 9.35 31.7 9.4 32.45 9.05 32.85 8.45 33.4 7.85 33.75 7.8 34.1 7.55 34.8 6.9 35.35 6.45 35.6 6.0 36.65 5.9 36.65 5.95 34.6 7.75 Q34.45 7.6 34.15 7.95 L34.05 8.3 32.1 10.25 31.15 10.2 Q29.95 9.9 28.4 8.5 26.9 7.1 26.45 6.0" fill="#4d4027" fill-rule="evenodd" stroke="none"/>
      <path d="M28.85 3.3 Q28.5 3.05 28.85 2.4 29.3 1.7 29.75 2.0 30.15 2.3 29.7 2.9 29.35 3.6 28.85 3.3" fill="url(#gradient44)" fill-rule="evenodd" stroke="none"/>
      <path d="M29.75 5.6 Q28.95 5.35 29.25 4.45 29.5 3.55 30.3 3.75 L30.45 3.9 30.85 4.35 30.75 4.9 Q30.15 5.8 29.75 5.6" fill="url(#gradient45)" fill-rule="evenodd" stroke="none"/>
      <path d="M28.2 4.2 Q28.5 3.6 28.75 3.85 L28.95 4.05 Q29.05 4.3 28.55 4.8 28.1 4.45 28.2 4.2" fill="url(#gradient46)" fill-rule="evenodd" stroke="none"/>
      <path d="M27.65 3.15 Q28.05 3.4 27.55 3.65 L27.35 3.6 27.65 3.15" fill="url(#gradient47)" fill-rule="evenodd" stroke="none"/>
      <path d="M32.15 6.15 Q32.0 5.9 32.25 5.5 32.5 5.1 32.7 5.3 L32.85 5.4 Q32.9 5.75 32.55 6.1 L32.15 6.15" fill="#705c39" fill-rule="evenodd" stroke="none"/>
      <path d="M32.15 6.15 Q32.0 5.9 32.25 5.5 32.5 5.1 32.7 5.3 L32.85 5.4 Q32.9 5.75 32.55 6.1 L32.15 6.15" fill="url(#gradient48)" fill-rule="evenodd" stroke="none"/>
      <path d="M31.35 7.05 Q31.5 7.25 31.15 7.4 L30.9 7.25 31.3 6.85 31.35 7.05" fill="#705c39" fill-rule="evenodd" stroke="none"/>
      <path d="M31.35 7.05 Q31.5 7.25 31.15 7.4 L30.9 7.25 31.3 6.85 31.35 7.05" fill="url(#gradient49)" fill-rule="evenodd" stroke="none"/>
      <path d="M29.5 7.45 L29.6 7.75 29.05 7.6 Q29.0 7.35 29.5 7.2 L29.5 7.45" fill="#705c39" fill-rule="evenodd" stroke="none"/>
      <path d="M29.5 7.45 L29.6 7.75 29.05 7.6 Q29.0 7.35 29.5 7.2 L29.5 7.45" fill="url(#gradient50)" fill-rule="evenodd" stroke="none"/>
      <path d="M32.65 7.45 L32.85 7.65 32.55 8.1 Q32.25 8.25 32.1 7.95 32.0 7.75 32.2 7.55 L32.65 7.45" fill="#615031" fill-rule="evenodd" stroke="none"/>
      <path d="M32.65 7.45 L32.85 7.65 32.55 8.1 Q32.25 8.25 32.1 7.95 32.0 7.75 32.2 7.55 L32.65 7.45" fill="url(#gradient51)" fill-rule="evenodd" stroke="none"/>
      <path d="M34.15 7.95 Q34.45 7.6 34.6 7.75 L34.05 8.3 34.15 7.95" fill="#4d4027" fill-rule="evenodd" stroke="none"/>
      <path d="M34.15 7.95 Q34.45 7.6 34.6 7.75 L34.05 8.3 34.15 7.95" fill="url(#gradient52)" fill-rule="evenodd" stroke="none"/>
      <path d="M34.35 5.05 L34.45 4.9 Q34.75 4.85 35.1 5.55 L35.1 6.0 34.75 6.25 Q34.45 6.3 34.25 6.05 L34.3 5.7 34.35 5.75 34.35 5.05" fill="#615031" fill-rule="evenodd" stroke="none"/>
      <path d="M34.35 5.05 L34.45 4.9 Q34.75 4.85 35.1 5.55 L35.1 6.0 34.75 6.25 Q34.45 6.3 34.25 6.05 L34.3 5.7 34.35 5.75 34.35 5.05" fill="url(#gradient53)" fill-rule="evenodd" stroke="none"/>
      <path d="M6.05 18.8 L8.0 17.9 Q8.95 20.85 13.25 24.9 L17.35 28.3 14.6 31.6 Q13.25 33.35 10.3 35.55 L8.8 34.95 Q6.75 33.8 4.2 31.15 2.35 29.25 1.55 27.35 L1.15 25.8 Q1.0 24.25 2.15 22.5 3.8 20.15 6.05 18.8" fill="url(#gradient54)" fill-rule="evenodd" stroke="none"/>
      <path d="M6.75 28.45 L6.7 28.75 Q6.8 28.85 6.95 28.6 L7.0 28.25 Q6.85 28.3 6.75 28.45 M6.85 28.0 L6.8 28.0 Q6.65 27.85 6.45 28.0 6.25 28.15 6.35 28.3 L6.7 28.35 6.85 28.0 M9.7 28.1 L9.15 27.45 Q8.65 26.8 7.95 27.35 L7.25 28.2 7.4 28.55 7.9 29.05 Q8.15 29.4 8.65 29.35 9.15 29.35 9.55 28.9 9.95 28.5 9.7 28.1 M6.05 24.7 Q6.45 23.95 6.9 23.6 7.75 22.9 8.7 23.4 9.5 23.9 10.1 24.75 10.85 25.6 11.2 26.45 11.65 27.5 10.9 28.5 L9.9 29.4 8.75 29.8 8.05 29.75 8.45 29.9 8.5 30.15 8.2 30.35 7.4 30.15 7.0 29.55 6.95 29.8 6.35 30.15 6.0 30.5 5.6 30.15 5.6 30.1 5.05 29.5 5.05 29.45 4.75 29.0 5.05 28.6 5.4 27.95 5.65 27.95 5.4 27.75 5.15 27.4 Q4.95 27.05 5.05 26.5 5.05 26.25 5.2 26.15 L5.45 26.25 5.6 26.7 5.6 25.9 Q5.6 25.4 6.05 24.7 M7.15 25.05 L6.45 25.1 Q6.0 25.6 5.95 26.15 5.9 26.65 6.2 27.0 L6.6 27.6 6.9 27.75 Q8.5 26.55 7.7 25.7 L7.15 25.05" fill="url(#gradient55)" fill-rule="evenodd" stroke="none"/>
      <path d="M10.25 28.1 L11.7 28.4 12.1 27.9 12.85 27.45 Q13.95 27.55 13.8 28.2 13.7 28.75 12.85 29.1 L13.0 29.4 Q13.1 29.8 12.8 30.1 12.35 30.65 11.25 30.45 10.95 30.4 11.05 29.85 L11.25 29.3 9.75 28.95 10.25 28.1" fill="url(#gradient56)" fill-rule="evenodd" stroke="none"/>
      <path d="M6.4 21.25 L6.6 20.75 7.2 20.1 Q7.7 20.0 7.8 21.3 7.85 21.9 6.95 22.6 L7.2 24.55 7.05 24.6 Q6.7 24.7 6.45 25.0 L6.2 23.15 5.25 23.1 Q5.05 21.9 5.55 21.25 5.85 20.95 6.15 21.1 L6.4 21.25" fill="url(#gradient57)" fill-rule="evenodd" stroke="none"/>
      <path d="M3.5 23.65 Q4.0 23.1 4.65 23.75 4.95 24.05 4.4 25.25 L5.6 26.1 Q5.35 26.8 5.65 27.3 L5.2 27.1 3.85 26.2 Q3.15 27.3 2.8 27.1 2.05 26.55 2.25 25.85 L2.8 25.2 3.15 25.05 Q3.05 24.15 3.5 23.65" fill="url(#gradient58)" fill-rule="evenodd" stroke="none"/>
      <path d="M10.0 31.1 Q10.55 30.9 10.7 31.1 11.2 31.95 10.75 32.5 10.3 33.0 9.6 32.85 9.5 33.65 8.9 33.9 8.3 34.2 7.85 33.25 7.75 32.95 8.15 32.5 L8.6 32.05 7.6 29.5 8.55 29.5 9.45 31.4 10.0 31.1" fill="url(#gradient59)" fill-rule="evenodd" stroke="none"/>
    </g>
    <linearGradient gradientTransform="matrix(0.0096, 0.0087, 0.0087, -0.0096, 18.55, 18.6)" gradientUnits="userSpaceOnUse" id="gradient0" spreadMethod="pad" x1="-819.2" x2="819.2">
      <stop offset="0.0" stop-color="#d9eeef"/>
      <stop offset="1.0" stop-color="#abd9db"/>
    </linearGradient>
    <radialGradient cx="0" cy="0" gradientTransform="matrix(-0.0051, 0.0158, 0.0158, 0.0051, 10.9, 23.55)" gradientUnits="userSpaceOnUse" id="gradient1" r="819.2" spreadMethod="pad">
      <stop offset="0.0" stop-color="#5a4412" stop-opacity="0.6666667"/>
      <stop offset="0.9882352941176471" stop-color="#3e2f0b" stop-opacity="0.84705883"/>
    </radialGradient>
    <radialGradient cx="0" cy="0" gradientTransform="matrix(-0.0042, 0.0121, 0.0119, 0.0036, 12.4, 21.8)" gradientUnits="userSpaceOnUse" id="gradient2" r="819.2" spreadMethod="pad">
      <stop offset="0.0" stop-color="#6b5116" stop-opacity="0.6666667"/>
      <stop offset="0.9882352941176471" stop-color="#46340d" stop-opacity="0.84705883"/>
    </radialGradient>
    <radialGradient cx="0" cy="0" gradientTransform="matrix(-0.001, 0.0019, 0.0019, 0.001, 9.85, 29.15)" gradientUnits="userSpaceOnUse" id="gradient3" r="819.2" spreadMethod="pad">
      <stop offset="0.0" stop-color="#ffffff"/>
      <stop offset="0.16470588235294117" stop-color="#b9914a"/>
      <stop offset="0.8588235294117647" stop-color="#523e10" stop-opacity="0.84705883"/>
      <stop offset="1.0" stop-color="#775b19" stop-opacity="0.84705883"/>
    </radialGradient>
    <radialGradient cx="0" cy="0" gradientTransform="matrix(-6.0E-4, 0.0011, 0.0011, 6.0E-4, 4.2, 22.4)" gradientUnits="userSpaceOnUse" id="gradient4" r="819.2" spreadMethod="pad">
      <stop offset="0.0" stop-color="#ffffff"/>
      <stop offset="0.16470588235294117" stop-color="#b9914a"/>
      <stop offset="0.8588235294117647" stop-color="#523e10" stop-opacity="0.84705883"/>
      <stop offset="1.0" stop-color="#775b19" stop-opacity="0.84705883"/>
    </radialGradient>
    <radialGradient cx="0" cy="0" gradientTransform="matrix(-6.0E-4, 0.0011, 0.0011, 6.0E-4, 7.25, 24.6)" gradientUnits="userSpaceOnUse" id="gradient5" r="819.2" spreadMethod="pad">
      <stop offset="0.0" stop-color="#ffffff"/>
      <stop offset="0.16470588235294117" stop-color="#b9914a"/>
      <stop offset="0.8588235294117647" stop-color="#523e10" stop-opacity="0.84705883"/>
      <stop offset="1.0" stop-color="#775b19" stop-opacity="0.84705883"/>
    </radialGradient>
    <radialGradient cx="0" cy="0" gradientTransform="matrix(-6.0E-4, 0.0011, 0.0011, 6.0E-4, 13.0, 27.25)" gradientUnits="userSpaceOnUse" id="gradient6" r="819.2" spreadMethod="pad">
      <stop offset="0.0" stop-color="#ffffff"/>
      <stop offset="0.16470588235294117" stop-color="#b9914a"/>
      <stop offset="0.8588235294117647" stop-color="#523e10" stop-opacity="0.84705883"/>
      <stop offset="1.0" stop-color="#775b19" stop-opacity="0.84705883"/>
    </radialGradient>
    <radialGradient cx="0" cy="0" gradientTransform="matrix(-0.001, 0.0019, 0.0019, 0.001, 4.5, 27.7)" gradientUnits="userSpaceOnUse" id="gradient7" r="819.2" spreadMethod="pad">
      <stop offset="0.0" stop-color="#ffffff"/>
      <stop offset="0.16470588235294117" stop-color="#b9914a"/>
      <stop offset="0.8588235294117647" stop-color="#523e10" stop-opacity="0.84705883"/>
      <stop offset="1.0" stop-color="#775b19" stop-opacity="0.84705883"/>
    </radialGradient>
    <radialGradient cx="0" cy="0" gradientTransform="matrix(-6.0E-4, 0.0011, 0.0011, 6.0E-4, 13.85, 33.3)" gradientUnits="userSpaceOnUse" id="gradient8" r="819.2" spreadMethod="pad">
      <stop offset="0.0" stop-color="#ffffff"/>
      <stop offset="0.16470588235294117" stop-color="#b9914a"/>
      <stop offset="0.8588235294117647" stop-color="#523e10" stop-opacity="0.84705883"/>
      <stop offset="1.0" stop-color="#775b19" stop-opacity="0.84705883"/>
    </radialGradient>
    <radialGradient cx="0" cy="0" gradientTransform="matrix(-0.0013, 0.0012, 0.002, 0.0022, 8.55, 19.25)" gradientUnits="userSpaceOnUse" id="gradient9" r="819.2" spreadMethod="pad">
      <stop offset="0.0" stop-color="#ffffff"/>
      <stop offset="0.16470588235294117" stop-color="#b9914a"/>
      <stop offset="0.8588235294117647" stop-color="#523e10" stop-opacity="0.84705883"/>
      <stop offset="1.0" stop-color="#775b19" stop-opacity="0.84705883"/>
    </radialGradient>
    <radialGradient cx="0" cy="0" gradientTransform="matrix(-0.001, 9.0E-4, 0.0016, 0.0017, 13.7, 26.7)" gradientUnits="userSpaceOnUse" id="gradient10" r="819.2" spreadMethod="pad">
      <stop offset="0.0" stop-color="#ffffff"/>
      <stop offset="0.16470588235294117" stop-color="#b9914a"/>
      <stop offset="0.8588235294117647" stop-color="#523e10" stop-opacity="0.84705883"/>
      <stop offset="1.0" stop-color="#775b19" stop-opacity="0.84705883"/>
    </radialGradient>
    <radialGradient cx="0" cy="0" gradientTransform="matrix(-0.0015, 0.0014, 0.0023, 0.0025, 10.7, 24.85)" gradientUnits="userSpaceOnUse" id="gradient11" r="819.2" spreadMethod="pad">
      <stop offset="0.0" stop-color="#ffffff"/>
      <stop offset="0.16470588235294117" stop-color="#b9914a"/>
      <stop offset="0.8588235294117647" stop-color="#523e10" stop-opacity="0.84705883"/>
      <stop offset="1.0" stop-color="#775b19" stop-opacity="0.84705883"/>
    </radialGradient>
    <radialGradient cx="0" cy="0" gradientTransform="matrix(-0.001, 0.001, 0.0021, 0.0022, 18.15, 27.95)" gradientUnits="userSpaceOnUse" id="gradient12" r="819.2" spreadMethod="pad">
      <stop offset="0.0" stop-color="#ffffff"/>
      <stop offset="0.16470588235294117" stop-color="#b9914a"/>
      <stop offset="0.8588235294117647" stop-color="#523e10" stop-opacity="0.84705883"/>
      <stop offset="1.0" stop-color="#775b19" stop-opacity="0.84705883"/>
    </radialGradient>
    <radialGradient cx="0" cy="0" gradientTransform="matrix(-0.0158, 0.0164, 0.0321, 0.0309, 27.3, 9.7)" gradientUnits="userSpaceOnUse" id="gradient13" r="819.2" spreadMethod="pad">
      <stop offset="0.0" stop-color="#ffffff" stop-opacity="0.25882354"/>
      <stop offset="0.16470588235294117" stop-color="#ebebeb" stop-opacity="0.36862746"/>
      <stop offset="0.8588235294117647" stop-color="#e0e0e0" stop-opacity="0.45882353"/>
      <stop offset="1.0" stop-color="#ededed" stop-opacity="0.22745098"/>
    </radialGradient>
    <radialGradient cx="0" cy="0" gradientTransform="matrix(-0.0093, 0.0136, 0.0125, 0.0085, 12.7, 24.5)" gradientUnits="userSpaceOnUse" id="gradient14" r="819.2" spreadMethod="pad">
      <stop offset="0.0" stop-color="#ffffff" stop-opacity="0.47843137"/>
      <stop offset="0.7098039215686275" stop-color="#ffffff" stop-opacity="0.08235294"/>
      <stop offset="0.8666666666666667" stop-color="#ffffff" stop-opacity="0.2"/>
      <stop offset="1.0" stop-color="#ffffff" stop-opacity="0.02745098"/>
    </radialGradient>
    <radialGradient cx="0" cy="0" gradientTransform="matrix(0.0229, 6.0E-4, 6.0E-4, -0.0229, 1.95, 26.45)" gradientUnits="userSpaceOnUse" id="gradient15" r="819.2" spreadMethod="pad">
      <stop offset="0.0" stop-color="#ffffff" stop-opacity="0.9490196"/>
      <stop offset="1.0" stop-color="#8a9b9e"/>
    </radialGradient>
    <radialGradient cx="0" cy="0" gradientTransform="matrix(-0.006, 0.0102, 0.0112, 0.0072, 15.5, 21.35)" gradientUnits="userSpaceOnUse" id="gradient16" r="819.2" spreadMethod="pad">
      <stop offset="0.0" stop-color="#ffffff" stop-opacity="0.5882353"/>
      <stop offset="1.0" stop-color="#ffffff" stop-opacity="0.0"/>
    </radialGradient>
    <radialGradient cx="0" cy="0" gradientTransform="matrix(-0.0039, 0.0067, 0.0074, 0.0043, 21.65, 26.65)" gradientUnits="userSpaceOnUse" id="gradient17" r="819.2" spreadMethod="pad">
      <stop offset="0.0" stop-color="#ffffff" stop-opacity="0.61960787"/>
      <stop offset="1.0" stop-color="#ffffff" stop-opacity="0.02745098"/>
    </radialGradient>
    <linearGradient gradientTransform="matrix(0.0025, 0.0035, 0.0035, -0.0025, 16.8, 21.15)" gradientUnits="userSpaceOnUse" id="gradient18" spreadMethod="pad" x1="-819.2" x2="819.2">
      <stop offset="0.0" stop-color="#000000" stop-opacity="0.24705882"/>
      <stop offset="1.0" stop-color="#000000" stop-opacity="0.02745098"/>
    </linearGradient>
    <linearGradient gradientTransform="matrix(0.0014, -0.0028, -0.0028, -0.0014, 28.95, 7.9)" gradientUnits="userSpaceOnUse" id="gradient19" spreadMethod="pad" x1="-819.2" x2="819.2">
      <stop offset="0.0" stop-color="#ffffff" stop-opacity="0.21960784"/>
      <stop offset="1.0" stop-color="#ffffff" stop-opacity="0.02745098"/>
    </linearGradient>
    <linearGradient gradientTransform="matrix(0.0037, 0.0035, 0.0069, -0.0072, 22.05, 15.4)" gradientUnits="userSpaceOnUse" id="gradient20" spreadMethod="pad" x1="-819.2" x2="819.2">
      <stop offset="0.0" stop-color="#ffffff" stop-opacity="0.21960784"/>
      <stop offset="1.0" stop-color="#ffffff" stop-opacity="0.02745098"/>
    </linearGradient>
    <linearGradient gradientTransform="matrix(0.0032, 0.003, 0.006, -0.0063, 22.1, 15.3)" gradientUnits="userSpaceOnUse" id="gradient21" spreadMethod="pad" x1="-819.2" x2="819.2">
      <stop offset="0.0" stop-color="#ffffff" stop-opacity="0.21960784"/>
      <stop offset="1.0" stop-color="#ffffff" stop-opacity="0.02745098"/>
    </linearGradient>
    <linearGradient gradientTransform="matrix(0.0036, 0.0034, 0.0068, -0.0071, 15.8, 22.0)" gradientUnits="userSpaceOnUse" id="gradient22" spreadMethod="pad" x1="-819.2" x2="819.2">
      <stop offset="0.0" stop-color="#ffffff" stop-opacity="0.9490196"/>
      <stop offset="1.0" stop-color="#abd9db"/>
    </linearGradient>
    <linearGradient gradientTransform="matrix(0.0042, 0.004, 0.0079, -0.0082, 22.7, 15.45)" gradientUnits="userSpaceOnUse" id="gradient23" spreadMethod="pad" x1="-819.2" x2="819.2">
      <stop offset="0.0" stop-color="#b7c6c7" stop-opacity="0.9490196"/>
      <stop offset="1.0" stop-color="#95bdbf"/>
    </linearGradient>
    <linearGradient gradientTransform="matrix(0.0036, 0.0032, 0.0032, -0.0036, 21.95, 14.75)" gradientUnits="userSpaceOnUse" id="gradient24" spreadMethod="pad" x1="-819.2" x2="819.2">
      <stop offset="0.0" stop-color="#b7c6c7" stop-opacity="0.9490196"/>
      <stop offset="1.0" stop-color="#95bdbf"/>
    </linearGradient>
    <linearGradient gradientTransform="matrix(-0.0033, 0.0035, 0.0069, 0.0066, 20.6, 13.35)" gradientUnits="userSpaceOnUse" id="gradient25" spreadMethod="pad" x1="-819.2" x2="819.2">
      <stop offset="0.0" stop-color="#ffffff" stop-opacity="0.41960785"/>
      <stop offset="1.0" stop-color="#ffffff" stop-opacity="0.02745098"/>
    </linearGradient>
    <linearGradient gradientTransform="matrix(0.0036, 0.0034, 0.0068, -0.0071, 16.0, 21.75)" gradientUnits="userSpaceOnUse" id="gradient26" spreadMethod="pad" x1="-819.2" x2="819.2">
      <stop offset="0.0" stop-color="#ffffff" stop-opacity="0.9490196"/>
      <stop offset="1.0" stop-color="#abd9db"/>
    </linearGradient>
    <linearGradient gradientTransform="matrix(-0.0014, 0.0015, 0.0029, 0.0028, 16.65, 17.1)" gradientUnits="userSpaceOnUse" id="gradient27" spreadMethod="pad" x1="-819.2" x2="819.2">
      <stop offset="0.0" stop-color="#ffffff" stop-opacity="0.41960785"/>
      <stop offset="1.0" stop-color="#ffffff" stop-opacity="0.02745098"/>
    </linearGradient>
    <linearGradient gradientTransform="matrix(0.0036, 0.0034, 0.0068, -0.0071, 16.3, 21.45)" gradientUnits="userSpaceOnUse" id="gradient28" spreadMethod="pad" x1="-819.2" x2="819.2">
      <stop offset="0.0" stop-color="#ffffff" stop-opacity="0.9490196"/>
      <stop offset="1.0" stop-color="#abd9db"/>
    </linearGradient>
    <linearGradient gradientTransform="matrix(-0.0014, 0.0015, 0.0029, 0.0028, 16.6, 16.95)" gradientUnits="userSpaceOnUse" id="gradient29" spreadMethod="pad" x1="-819.2" x2="819.2">
      <stop offset="0.0" stop-color="#ffffff" stop-opacity="0.41960785"/>
      <stop offset="1.0" stop-color="#ffffff" stop-opacity="0.02745098"/>
    </linearGradient>
    <linearGradient gradientTransform="matrix(0.0033, -0.0035, 0.0069, 0.0065, 24.3, 16.75)" gradientUnits="userSpaceOnUse" id="gradient30" spreadMethod="pad" x1="-819.2" x2="819.2">
      <stop offset="0.0" stop-color="#ffffff" stop-opacity="0.13725491"/>
      <stop offset="1.0" stop-color="#ffffff" stop-opacity="0.02745098"/>
    </linearGradient>
    <linearGradient gradientTransform="matrix(0.0039, 0.0037, 0.0073, -0.0076, 27.85, 9.2)" gradientUnits="userSpaceOnUse" id="gradient31" spreadMethod="pad" x1="-819.2" x2="819.2">
      <stop offset="0.0" stop-color="#ffffff"/>
      <stop offset="1.0" stop-color="#abd9db"/>
    </linearGradient>
    <linearGradient gradientTransform="matrix(0.0014, -0.0015, 0.003, 0.0029, 27.4, 13.5)" gradientUnits="userSpaceOnUse" id="gradient32" spreadMethod="pad" x1="-819.2" x2="819.2">
      <stop offset="0.0" stop-color="#ffffff" stop-opacity="0.13725491"/>
      <stop offset="1.0" stop-color="#ffffff" stop-opacity="0.02745098"/>
    </linearGradient>
    <linearGradient gradientTransform="matrix(0.0038, 0.0037, 0.0072, -0.0076, 16.45, 21.5)" gradientUnits="userSpaceOnUse" id="gradient33" spreadMethod="pad" x1="-819.2" x2="819.2">
      <stop offset="0.0" stop-color="#ffffff"/>
      <stop offset="1.0" stop-color="#abd9db"/>
    </linearGradient>
    <linearGradient gradientTransform="matrix(0.0014, -0.0015, 0.003, 0.0028, 21.05, 21.15)" gradientUnits="userSpaceOnUse" id="gradient34" spreadMethod="pad" x1="-819.2" x2="819.2">
      <stop offset="0.0" stop-color="#ffffff" stop-opacity="0.13725491"/>
      <stop offset="1.0" stop-color="#ffffff" stop-opacity="0.02745098"/>
    </linearGradient>
    <linearGradient gradientTransform="matrix(0.0035, 0.0034, 0.0063, -0.0066, 29.3, 7.6)" gradientUnits="userSpaceOnUse" id="gradient35" spreadMethod="pad" x1="-819.2" x2="819.2">
      <stop offset="0.0" stop-color="#000000" stop-opacity="0.08627451"/>
      <stop offset="1.0" stop-color="#bcd9db" stop-opacity="0.41960785"/>
    </linearGradient>
    <linearGradient gradientTransform="matrix(0.0014, -0.0028, -0.0028, -0.0014, 28.95, 7.9)" gradientUnits="userSpaceOnUse" id="gradient36" spreadMethod="pad" x1="-819.2" x2="819.2">
      <stop offset="0.0" stop-color="#b7c6c7" stop-opacity="0.9490196"/>
      <stop offset="1.0" stop-color="#95bdbf"/>
    </linearGradient>
    <linearGradient gradientTransform="matrix(0.0021, 0.0041, 0.0041, -0.0021, 29.3, 7.6)" gradientUnits="userSpaceOnUse" id="gradient37" spreadMethod="pad" x1="-819.2" x2="819.2">
      <stop offset="0.0" stop-color="#ffffff" stop-opacity="0.9490196"/>
      <stop offset="1.0" stop-color="#abd9db"/>
    </linearGradient>
    <linearGradient gradientTransform="matrix(0.0035, 0.0034, 0.0063, -0.0066, 29.3, 7.6)" gradientUnits="userSpaceOnUse" id="gradient38" spreadMethod="pad" x1="-819.2" x2="819.2">
      <stop offset="0.0" stop-color="#b7c6c7" stop-opacity="0.9490196"/>
      <stop offset="1.0" stop-color="#95bdbf"/>
    </linearGradient>
    <linearGradient gradientTransform="matrix(-9.0E-4, -8.0E-4, -8.0E-4, 9.0E-4, 32.25, 1.75)" gradientUnits="userSpaceOnUse" id="gradient39" spreadMethod="pad" x1="-819.2" x2="819.2">
      <stop offset="0.0" stop-color="#c1a064"/>
      <stop offset="1.0" stop-color="#706341"/>
    </linearGradient>
    <linearGradient gradientTransform="matrix(-6.0E-4, -5.0E-4, -6.0E-4, 6.0E-4, 32.95, 3.1)" gradientUnits="userSpaceOnUse" id="gradient40" spreadMethod="pad" x1="-819.2" x2="819.2">
      <stop offset="0.0" stop-color="#c1a064"/>
      <stop offset="1.0" stop-color="#706341"/>
    </linearGradient>
    <linearGradient gradientTransform="matrix(-2.0E-4, -2.0E-4, -2.0E-4, 2.0E-4, 34.25, 3.2)" gradientUnits="userSpaceOnUse" id="gradient41" spreadMethod="pad" x1="-819.2" x2="819.2">
      <stop offset="0.0" stop-color="#c1a064"/>
      <stop offset="1.0" stop-color="#706341"/>
    </linearGradient>
    <linearGradient gradientTransform="matrix(-0.0013, -0.0011, -0.0012, 0.0014, 36.7, 5.25)" gradientUnits="userSpaceOnUse" id="gradient42" spreadMethod="pad" x1="-819.2" x2="819.2">
      <stop offset="0.0" stop-color="#c1a064"/>
      <stop offset="1.0" stop-color="#706341"/>
    </linearGradient>
    <linearGradient gradientTransform="matrix(-3.0E-4, -3.0E-4, -3.0E-4, 3.0E-4, 36.25, 5.5)" gradientUnits="userSpaceOnUse" id="gradient43" spreadMethod="pad" x1="-819.2" x2="819.2">
      <stop offset="0.0" stop-color="#c1a064"/>
      <stop offset="1.0" stop-color="#706341"/>
    </linearGradient>
    <linearGradient gradientTransform="matrix(5.0E-4, -8.0E-4, -8.0E-4, -6.0E-4, 29.25, 2.7)" gradientUnits="userSpaceOnUse" id="gradient44" spreadMethod="pad" x1="-819.2" x2="819.2">
      <stop offset="0.0" stop-color="#c1a064"/>
      <stop offset="1.0" stop-color="#706341"/>
    </linearGradient>
    <linearGradient gradientTransform="matrix(7.0E-4, -9.0E-4, -0.001, -7.0E-4, 29.95, 4.7)" gradientUnits="userSpaceOnUse" id="gradient45" spreadMethod="pad" x1="-819.2" x2="819.2">
      <stop offset="0.0" stop-color="#c1a064"/>
      <stop offset="1.0" stop-color="#706341"/>
    </linearGradient>
    <linearGradient gradientTransform="matrix(3.0E-4, -4.0E-4, -5.0E-4, -3.0E-4, 28.55, 4.3)" gradientUnits="userSpaceOnUse" id="gradient46" spreadMethod="pad" x1="-819.2" x2="819.2">
      <stop offset="0.0" stop-color="#c1a064"/>
      <stop offset="1.0" stop-color="#706341"/>
    </linearGradient>
    <linearGradient gradientTransform="matrix(2.0E-4, -2.0E-4, -3.0E-4, -2.0E-4, 27.6, 3.45)" gradientUnits="userSpaceOnUse" id="gradient47" spreadMethod="pad" x1="-819.2" x2="819.2">
      <stop offset="0.0" stop-color="#c1a064"/>
      <stop offset="1.0" stop-color="#706341"/>
    </linearGradient>
    <linearGradient gradientTransform="matrix(4.0E-4, -5.0E-4, -5.0E-4, -4.0E-4, 32.45, 5.75)" gradientUnits="userSpaceOnUse" id="gradient48" spreadMethod="pad" x1="-819.2" x2="819.2">
      <stop offset="0.0" stop-color="#c1a064"/>
      <stop offset="1.0" stop-color="#706341"/>
    </linearGradient>
    <linearGradient gradientTransform="matrix(2.0E-4, -3.0E-4, -3.0E-4, -2.0E-4, 31.2, 7.15)" gradientUnits="userSpaceOnUse" id="gradient49" spreadMethod="pad" x1="-819.2" x2="819.2">
      <stop offset="0.0" stop-color="#c1a064"/>
      <stop offset="1.0" stop-color="#706341"/>
    </linearGradient>
    <linearGradient gradientTransform="matrix(2.0E-4, -3.0E-4, -4.0E-4, -2.0E-4, 29.35, 7.5)" gradientUnits="userSpaceOnUse" id="gradient50" spreadMethod="pad" x1="-819.2" x2="819.2">
      <stop offset="0.0" stop-color="#c1a064"/>
      <stop offset="1.0" stop-color="#706341"/>
    </linearGradient>
    <linearGradient gradientTransform="matrix(3.0E-4, -4.0E-4, -4.0E-4, -3.0E-4, 32.4, 7.8)" gradientUnits="userSpaceOnUse" id="gradient51" spreadMethod="pad" x1="-819.2" x2="819.2">
      <stop offset="0.0" stop-color="#c1a064"/>
      <stop offset="1.0" stop-color="#706341"/>
    </linearGradient>
    <linearGradient gradientTransform="matrix(3.0E-4, -4.0E-4, -4.0E-4, -3.0E-4, 34.25, 8.05)" gradientUnits="userSpaceOnUse" id="gradient52" spreadMethod="pad" x1="-819.2" x2="819.2">
      <stop offset="0.0" stop-color="#c1a064"/>
      <stop offset="1.0" stop-color="#706341"/>
    </linearGradient>
    <linearGradient gradientTransform="matrix(4.0E-4, -6.0E-4, -6.0E-4, -4.0E-4, 34.6, 5.7)" gradientUnits="userSpaceOnUse" id="gradient53" spreadMethod="pad" x1="-819.2" x2="819.2">
      <stop offset="0.0" stop-color="#c1a064"/>
      <stop offset="1.0" stop-color="#706341"/>
    </linearGradient>
    <radialGradient cx="0" cy="0" gradientTransform="matrix(-0.0082, 0.016, 0.0162, 0.0085, 9.8, 22.35)" gradientUnits="userSpaceOnUse" id="gradient54" r="819.2" spreadMethod="pad">
      <stop offset="0.0" stop-color="#fbf5e2"/>
      <stop offset="0.07058823529411765" stop-color="#f6f0db"/>
      <stop offset="0.43137254901960786" stop-color="#e3dcc1"/>
      <stop offset="0.7490196078431373" stop-color="#d7d0b1"/>
      <stop offset="1.0" stop-color="#d3ccac"/>
    </radialGradient>
    <radialGradient cx="0" cy="0" gradientTransform="matrix(-0.0036, 0.0076, 0.0076, 0.0036, 9.05, 23.55)" gradientUnits="userSpaceOnUse" id="gradient55" r="819.2" spreadMethod="pad">
      <stop offset="0.0" stop-color="#745c30"/>
      <stop offset="0.7725490196078432" stop-color="#4a3611"/>
      <stop offset="1.0" stop-color="#3d2a07"/>
    </radialGradient>
    <radialGradient cx="0" cy="0" gradientTransform="matrix(-0.0036, 0.0076, 0.0076, 0.0036, 9.05, 23.55)" gradientUnits="userSpaceOnUse" id="gradient56" r="819.2" spreadMethod="pad">
      <stop offset="0.0" stop-color="#745c30"/>
      <stop offset="0.7725490196078432" stop-color="#4a3611"/>
      <stop offset="1.0" stop-color="#3d2a07"/>
    </radialGradient>
    <radialGradient cx="0" cy="0" gradientTransform="matrix(-0.0036, 0.0076, 0.0076, 0.0036, 9.05, 23.55)" gradientUnits="userSpaceOnUse" id="gradient57" r="819.2" spreadMethod="pad">
      <stop offset="0.0" stop-color="#745c30"/>
      <stop offset="0.7725490196078432" stop-color="#4a3611"/>
      <stop offset="1.0" stop-color="#3d2a07"/>
    </radialGradient>
    <radialGradient cx="0" cy="0" gradientTransform="matrix(-0.0036, 0.0076, 0.0076, 0.0036, 9.05, 23.55)" gradientUnits="userSpaceOnUse" id="gradient58" r="819.2" spreadMethod="pad">
      <stop offset="0.0" stop-color="#745c30"/>
      <stop offset="0.7725490196078432" stop-color="#4a3611"/>
      <stop offset="1.0" stop-color="#3d2a07"/>
    </radialGradient>
    <radialGradient cx="0" cy="0" gradientTransform="matrix(-0.0036, 0.0076, 0.0076, 0.0036, 9.05, 23.55)" gradientUnits="userSpaceOnUse" id="gradient59" r="819.2" spreadMethod="pad">
      <stop offset="0.0" stop-color="#745c30"/>
      <stop offset="0.7725490196078432" stop-color="#4a3611"/>
      <stop offset="1.0" stop-color="#3d2a07"/>
    </radialGradient>
  </defs>
</svg>
