<?xml version="1.0" encoding="UTF-8" standalone="no"?>
<svg xmlns:xlink="http://www.w3.org/1999/xlink" height="270.65px" width="108.55px" xmlns="http://www.w3.org/2000/svg">
  <g transform="matrix(1.0, 0.0, 0.0, 1.0, 0.0, 0.0)">
    <use height="270.65" transform="matrix(1.0, 0.0, 0.0, 1.0, 0.0, 0.0)" width="108.55" xlink:href="#shape0"/>
  </g>
  <defs>
    <g id="shape0" transform="matrix(1.0, 0.0, 0.0, 1.0, 0.0, 0.0)">
      <path d="M72.4 193.85 Q75.75 210.05 75.5 239.3 75.4 253.9 74.6 265.3 L57.45 266.75 Q47.8 190.7 45.6 175.55 44.2 166.05 40.3 150.65 L36.65 137.1 Q50.5 134.0 51.4 133.1 L59.9 153.75 Q69.05 177.65 72.4 193.85" fill="#fce5bc" fill-rule="evenodd" stroke="none"/>
      <path d="M108.55 8.95 Q103.2 17.35 97.4 28.25 85.75 50.15 83.55 62.95 81.3 75.8 79.3 101.95 78.3 115.0 77.75 125.5 L71.05 127.3 Q69.5 115.9 68.7 101.4 67.15 72.35 71.05 56.7 74.95 41.1 88.75 19.05 95.65 8.0 101.75 0.1 L108.55 8.95" fill="#fce5bc" fill-rule="evenodd" stroke="none"/>
      <path d="M89.9 23.5 Q77.6 49.6 75.05 62.95 72.55 76.35 71.55 103.15 71.05 116.6 71.05 127.3 L42.9 140.7 51.1 161.3 Q59.5 185.1 60.3 201.0 61.15 216.9 59.4 243.4 58.5 256.7 57.45 266.75 L0.0 270.65 Q5.7 269.0 12.6 262.3 26.35 248.9 32.2 223.75 38.05 198.65 32.35 181.25 30.6 175.8 27.85 171.8 L25.5 168.85 21.45 117.9 45.6 112.55 76.4 0.0 101.75 0.1 Q96.1 10.45 89.9 23.5" fill="url(#gradient0)" fill-rule="evenodd" stroke="none"/>
      <path d="M59.65 239.65 L59.65 240.95 40.35 241.1 38.05 268.05 36.3 268.05 39.0 241.1 26.55 241.2 27.1 239.85 59.65 239.65" fill="#ceb071" fill-rule="evenodd" stroke="none"/>
      <path d="M59.55 196.1 L59.75 197.4 47.8 198.95 48.35 220.55 60.25 219.75 60.35 221.1 32.35 222.95 32.65 221.55 47.0 220.65 46.5 199.1 35.1 200.6 35.1 199.25 59.55 196.1" fill="#ceb071" fill-rule="evenodd" stroke="none"/>
      <path d="M31.85 179.8 L31.35 178.55 41.75 177.25 38.8 158.55 24.9 161.25 24.75 159.95 48.8 155.25 49.05 156.55 40.1 158.3 43.1 177.1 55.55 175.55 55.7 176.85 31.85 179.8" fill="#ceb071" fill-rule="evenodd" stroke="none"/>
      <path d="M43.6 130.8 L70.95 126.65 71.05 127.3 69.0 128.25 49.25 131.1 22.9 136.0 22.8 134.7 42.25 131.05 42.8 113.15 44.15 112.85 43.6 130.8" fill="#ceb071" fill-rule="evenodd" stroke="none"/>
      <path d="M71.45 101.6 L71.5 102.95 48.0 103.65 48.4 102.3 71.45 101.6" fill="#ceb071" fill-rule="evenodd" stroke="none"/>
      <path d="M77.55 53.45 L68.15 55.45 66.2 77.85 72.7 76.85 72.95 78.15 54.2 81.0 54.6 79.6 64.85 78.05 66.8 55.75 60.8 57.0 61.2 55.55 77.8 52.05 77.9 52.45 77.55 53.45" fill="#ceb071" fill-rule="evenodd" stroke="none"/>
      <path d="M85.75 32.65 L85.25 33.8 66.55 36.0 66.9 34.6 78.4 33.25 85.8 0.15 87.45 0.15 79.8 33.1 85.7 32.4 85.75 32.65" fill="#ceb071" fill-rule="evenodd" stroke="none"/>
      <path d="M59.5 197.4 L59.8 196.1 73.4 199.65 73.6 201.1 59.5 197.4" fill="#e0cca6" fill-rule="evenodd" stroke="none"/>
      <path d="M81.45 78.4 L81.3 79.75 72.7 78.15 72.95 76.85 81.45 78.4" fill="#e0cca6" fill-rule="evenodd" stroke="none"/>
      <path d="M55.55 176.85 L55.7 175.55 67.85 176.7 68.3 178.1 55.55 176.85" fill="#e0cca6" fill-rule="evenodd" stroke="none"/>
      <path d="M48.8 156.55 L49.05 155.2 61.2 157.25 61.75 158.7 48.8 156.55" fill="#e0cca6" fill-rule="evenodd" stroke="none"/>
      <path d="M60.25 221.1 L60.4 219.75 75.25 221.75 75.3 223.1 60.25 221.1" fill="#e0cca6" fill-rule="evenodd" stroke="none"/>
      <path d="M59.6 240.95 L59.65 239.65 75.5 240.15 75.5 241.5 59.6 240.95" fill="#e0cca6" fill-rule="evenodd" stroke="none"/>
      <path d="M85.95 53.8 L85.55 55.1 77.8 53.35 78.1 52.05 85.95 53.8" fill="#e0cca6" fill-rule="evenodd" stroke="none"/>
      <path d="M85.75 33.7 L85.8 32.4 94.95 32.95 94.3 34.25 85.75 33.7" fill="#e0cca6" fill-rule="evenodd" stroke="none"/>
      <path d="M71.4 102.95 L71.6 101.6 79.25 102.7 79.15 104.05 71.4 102.95" fill="#e0cca6" fill-rule="evenodd" stroke="none"/>
    </g>
    <linearGradient gradientTransform="matrix(0.0261, 0.0016, 0.0016, -0.0261, 44.4, 134.95)" gradientUnits="userSpaceOnUse" id="gradient0" spreadMethod="pad" x1="-819.2" x2="819.2">
      <stop offset="0.0" stop-color="#fad898"/>
      <stop offset="1.0" stop-color="#f7c568"/>
    </linearGradient>
  </defs>
</svg>
