<?xml version="1.0" encoding="UTF-8" standalone="no"?>
<svg xmlns:xlink="http://www.w3.org/1999/xlink" height="52.5px" width="500.0px" xmlns="http://www.w3.org/2000/svg">
  <g transform="matrix(1.0, 0.0, 0.0, 1.0, 0.0, 0.0)">
    <use height="52.5" transform="matrix(1.0, 0.0, 0.0, 1.0, 0.0, 0.0)" width="500.0" xlink:href="#shape0"/>
  </g>
  <defs>
    <g id="shape0" transform="matrix(1.0, 0.0, 0.0, 1.0, 0.0, 0.0)">
      <path d="M394.25 43.7 L500.0 52.5 0.0 52.5 Q9.85 48.05 21.0 43.45 43.2 34.25 49.45 33.4 57.4 32.35 75.55 19.75 84.65 13.5 92.15 7.4 L161.15 4.4 235.5 0.05 Q237.8 -0.5 242.65 4.8 L252.65 16.85 Q267.55 34.9 276.5 34.9 286.55 34.9 394.25 43.7" fill="#895d60" fill-rule="evenodd" stroke="none"/>
      <path d="M121.7 32.35 Q120.6 30.2 122.8 28.5 124.3 27.3 127.45 26.85 L130.25 26.55 126.3 27.85 Q122.6 29.35 123.75 30.85 125.3 33.1 131.8 32.4 138.65 31.6 143.1 27.75 141.45 29.95 138.7 32.05 133.2 36.25 128.25 35.55 123.0 34.75 121.7 32.35" fill="#7f5257" fill-rule="evenodd" stroke="none"/>
      <path d="M44.9 46.75 Q41.7 49.8 38.35 49.65 34.65 49.3 33.85 47.65 33.2 46.25 34.75 45.2 36.25 44.1 39.15 43.85 L36.85 44.85 Q34.6 45.85 35.25 46.75 36.3 48.4 40.45 47.45 44.7 46.5 47.45 43.75 46.5 45.25 44.9 46.75" fill="#7f5257" fill-rule="evenodd" stroke="none"/>
      <path d="M163.2 37.0 Q167.3 35.6 172.2 34.75 170.4 35.1 168.2 36.0 163.55 37.8 161.6 40.6 159.75 43.1 177.45 44.5 L195.45 45.65 Q187.85 46.0 179.4 45.95 162.45 45.9 158.6 43.1 154.7 39.95 163.2 37.0" fill="#7f5257" fill-rule="evenodd" stroke="none"/>
      <path d="M218.6 17.3 L214.7 18.25 Q210.35 19.65 208.35 22.0 206.3 24.4 222.7 26.5 L239.45 28.15 Q232.25 28.4 224.4 28.0 208.7 27.2 205.4 24.05 202.1 20.95 210.0 18.8 214.0 17.75 218.6 17.3" fill="#7f5257" fill-rule="evenodd" stroke="none"/>
      <path d="M65.3 36.5 Q63.85 37.25 62.2 38.55 59.0 41.15 58.1 43.85 57.65 45.25 61.9 44.8 L71.45 43.15 Q78.5 41.7 85.55 41.6 79.75 42.2 73.25 43.95 L63.55 46.3 56.35 46.55 Q52.5 45.05 58.45 40.6 64.3 36.25 65.3 36.5" fill="#7f5257" fill-rule="evenodd" stroke="none"/>
      <path d="M320.7 46.4 Q325.65 45.8 328.3 42.9 323.75 49.5 318.3 48.65 314.85 48.25 313.8 46.7 312.9 45.25 314.2 43.95 315.85 42.4 319.55 42.35 318.1 42.75 316.75 43.35 314.1 44.55 315.05 45.55 316.25 46.9 320.7 46.4" fill="#7f5257" fill-rule="evenodd" stroke="none"/>
      <path d="M366.05 48.05 Q362.75 50.2 360.15 50.0 357.3 49.75 356.45 48.45 355.65 47.3 356.75 46.2 358.05 44.9 361.1 44.8 359.85 45.15 358.8 45.65 356.65 46.7 357.45 47.5 358.5 48.55 362.05 48.1 365.85 47.65 368.8 45.85 L366.05 48.05" fill="#7f5257" fill-rule="evenodd" stroke="none"/>
      <path d="M246.45 46.25 Q241.1 49.35 236.8 48.15 232.2 46.7 231.4 44.4 230.75 42.4 232.9 41.2 234.4 40.4 237.15 40.4 L239.6 40.45 236.05 41.15 Q232.65 42.0 233.4 43.4 234.45 45.65 240.25 45.75 246.4 45.85 250.8 43.0 249.1 44.75 246.45 46.25" fill="#7f5257" fill-rule="evenodd" stroke="none"/>
      <path d="M183.5 13.7 Q181.9 14.75 180.7 14.6 179.35 14.5 178.95 13.9 178.55 13.35 179.1 12.85 179.7 12.2 181.15 12.15 L180.05 12.6 Q179.05 13.1 179.4 13.45 L181.6 13.75 Q183.4 13.5 184.8 12.65 L183.5 13.7" fill="#7f5257" fill-rule="evenodd" stroke="none"/>
      <path d="M238.4 12.8 L243.85 12.3 241.35 13.4 Q238.55 14.45 236.75 13.95 234.6 13.2 234.15 12.3 233.75 11.45 234.75 10.65 235.85 9.85 238.2 10.2 L236.35 10.5 Q234.6 11.0 235.1 11.7 235.7 12.6 238.4 12.8" fill="#7f5257" fill-rule="evenodd" stroke="none"/>
      <path d="M131.8 46.0 Q130.85 44.65 132.2 43.3 133.2 42.3 135.45 41.8 L137.45 41.5 Q135.95 42.0 134.65 42.6 132.1 43.9 133.05 44.85 134.3 46.15 138.7 45.5 143.4 44.75 146.55 42.2 145.4 43.7 143.5 45.2 139.7 48.1 136.4 47.85 132.85 47.55 131.8 46.0" fill="#7f5257" fill-rule="evenodd" stroke="none"/>
      <path d="M103.8 17.6 Q100.85 19.1 98.85 18.95 96.45 18.7 95.7 17.6 95.05 16.6 96.0 15.7 97.05 14.6 99.75 14.55 L97.75 15.25 Q95.9 16.1 96.6 16.8 97.45 17.65 100.45 17.4 103.35 17.15 106.4 16.1 L103.8 17.6" fill="#7f5257" fill-rule="evenodd" stroke="none"/>
      <path d="M97.45 31.65 L95.5 33.15 Q93.15 34.6 91.1 34.05 88.9 33.25 88.7 32.15 88.45 31.2 89.55 30.8 L92.45 30.6 90.9 30.85 Q89.4 31.15 89.65 31.8 90.0 32.95 92.7 32.95 95.45 33.0 97.45 31.65" fill="#7f5257" fill-rule="evenodd" stroke="none"/>
      <path d="M111.3 45.9 L116.85 46.45 114.1 46.8 109.8 47.2 Q107.95 47.05 107.15 46.2 106.4 45.35 107.1 44.45 107.65 43.65 109.35 43.35 L110.85 43.25 Q110.7 42.95 108.8 43.85 107.0 44.75 107.8 45.35 L111.3 45.9" fill="#7f5257" fill-rule="evenodd" stroke="none"/>
      <path d="M158.15 11.4 Q161.05 10.85 163.45 9.5 L161.25 11.25 Q158.7 13.0 156.8 13.0 154.7 13.05 153.85 12.2 153.05 11.4 153.75 10.4 154.6 9.25 156.85 8.9 L155.4 9.7 Q153.7 10.75 154.5 11.3 L158.15 11.4" fill="#7f5257" fill-rule="evenodd" stroke="none"/>
      <path d="M193.2 23.95 Q191.45 26.9 189.0 26.75 187.4 26.65 186.95 25.95 186.55 25.35 187.1 24.75 187.8 24.1 189.35 23.95 L188.2 24.45 Q187.05 25.0 187.5 25.45 188.05 26.05 190.0 25.7 192.1 25.3 193.2 23.95" fill="#7f5257" fill-rule="evenodd" stroke="none"/>
      <path d="M286.55 48.5 Q283.75 50.0 281.6 49.35 279.35 48.75 278.85 47.6 278.4 46.6 279.45 45.9 280.7 45.1 283.05 45.4 L281.15 45.75 Q279.3 46.25 279.8 47.0 280.45 48.05 283.35 48.15 286.55 48.25 288.8 46.85 L286.55 48.5" fill="#7f5257" fill-rule="evenodd" stroke="none"/>
    </g>
  </defs>
</svg>
