<?xml version="1.0" encoding="UTF-8" standalone="no"?>
<svg xmlns:xlink="http://www.w3.org/1999/xlink" height="129.75px" width="154.55px" xmlns="http://www.w3.org/2000/svg">
  <g transform="matrix(1.0, 0.0, 0.0, 1.0, 0.0, 0.0)">
    <use height="40.6" transform="matrix(1.0, 0.0, 0.0, 1.0, 0.0, 89.75)" width="154.5" xlink:href="#sprite0"/>
    <use height="30.6" transform="matrix(1.0, 0.0, 0.0, 1.0, 17.95, 93.65)" width="116.6" xlink:href="#sprite1"/>
    <use height="3.65" transform="matrix(1.0, 0.0, 0.0, 1.0, 20.8, 115.1)" width="17.5" xlink:href="#sprite2"/>
    <use height="5.2" transform="matrix(1.0, 0.0, 0.0, 1.0, 42.45, 122.75)" width="12.6" xlink:href="#sprite3"/>
    <use height="2.55" transform="matrix(1.0, 0.0, 0.0, 1.0, 15.7, 102.6)" width="7.3" xlink:href="#sprite4"/>
    <use height="1.9" transform="matrix(1.0, 0.0, 0.0, 1.0, 116.95, 115.25)" width="7.75" xlink:href="#sprite5"/>
    <use height="3.2" transform="matrix(1.0, 0.0, 0.0, 1.0, 123.15, 108.6)" width="4.9" xlink:href="#sprite6"/>
    <use height="3.0" transform="matrix(1.0, 0.0, 0.0, 1.0, 132.95, 100.45)" width="7.75" xlink:href="#sprite7"/>
    <use height="37.35" transform="matrix(1.0, 0.0, 0.0, 1.0, 28.55, 84.8)" width="100.1" xlink:href="#shape8"/>
    <use height="35.7" transform="matrix(1.0, 0.0, 0.0, 1.0, 87.65, 78.6)" width="40.45" xlink:href="#sprite8"/>
    <use height="25.8" transform="matrix(1.0, 0.0, 0.0, 1.0, 25.65, 92.0)" width="65.0" xlink:href="#sprite9"/>
    <use height="28.45" transform="matrix(1.0, 0.0, 0.0, 1.0, 15.5, 98.6)" width="123.15" xlink:href="#shape11"/>
  </g>
  <defs>
    <g id="sprite0" transform="matrix(1.0, 0.0, 0.0, 1.0, 0.0, -0.1)">
      <use height="40.6" transform="matrix(1.0, 0.0, 0.0, 1.0, 0.0, 0.1)" width="154.5" xlink:href="#shape0"/>
    </g>
    <g id="shape0" transform="matrix(1.0, 0.0, 0.0, 1.0, 0.0, -0.1)">
      <path d="M124.2 0.55 Q138.3 3.7 146.25 8.25 154.5 13.0 154.5 18.35 154.5 27.6 131.9 34.15 109.25 40.7 77.25 40.7 45.25 40.7 22.65 34.15 0.0 27.6 0.0 18.35 0.0 14.8 3.75 11.45 7.35 8.25 14.1 5.45 L16.15 5.8 Q21.2 5.2 24.75 4.25 24.65 5.75 25.4 6.9 26.25 8.15 27.95 8.6 30.25 9.2 34.45 11.0 38.75 12.8 40.95 13.4 L48.45 14.35 Q53.2 14.65 55.85 15.65 64.5 18.8 68.2 19.3 74.55 20.2 80.8 17.5 82.95 16.6 85.0 14.6 L88.45 10.65 Q91.15 9.7 92.95 8.2 95.35 6.25 96.2 3.0 97.2 2.5 97.75 2.35 98.5 2.1 100.6 3.05 L103.45 4.35 Q106.4 5.35 109.8 4.35 111.65 3.75 114.4 1.6 L115.95 0.3 Q116.25 0.05 116.3 0.15 116.35 0.7 116.95 1.45 118.05 2.85 120.1 2.75 122.05 2.7 123.3 1.45 L124.2 0.55" fill="url(#gradient0)" fill-rule="evenodd" stroke="none"/>
    </g>
    <radialGradient cx="0" cy="0" gradientTransform="matrix(0.0813, 0.0, 0.0, -0.0229, 77.05, 18.6)" gradientUnits="userSpaceOnUse" id="gradient0" r="819.2" spreadMethod="pad">
      <stop offset="0.0" stop-color="#000000" stop-opacity="0.61960787"/>
      <stop offset="1.0" stop-color="#000000" stop-opacity="0.0"/>
    </radialGradient>
    <g id="sprite1" transform="matrix(1.0, 0.0, 0.0, 1.0, -0.05, 0.0)">
      <use height="30.6" transform="matrix(1.0, 0.0, 0.0, 1.0, 0.05, 0.0)" width="116.6" xlink:href="#shape1"/>
    </g>
    <g id="shape1" transform="matrix(1.0, 0.0, 0.0, 1.0, -0.05, 0.0)">
      <path d="M115.05 2.7 Q115.7 3.2 114.0 4.6 L114.7 5.1 115.55 6.3 116.4 7.5 Q116.95 7.9 116.25 8.7 115.5 9.55 114.0 10.05 112.95 10.4 112.45 10.65 L110.9 11.25 Q109.6 11.65 110.3 12.75 L111.25 13.8 Q110.4 14.45 105.75 15.65 102.85 16.4 103.0 17.05 L103.7 17.55 102.7 18.2 101.45 19.25 100.4 20.75 Q100.75 21.8 99.9 22.45 L98.3 23.2 95.25 23.85 92.45 24.1 87.55 24.85 84.2 25.65 82.9 26.05 Q81.2 26.5 80.9 26.8 L81.0 27.05 74.15 27.4 Q70.85 27.75 69.3 28.6 68.45 29.1 67.1 29.25 L64.15 29.8 61.0 30.35 57.3 30.5 54.15 30.6 51.1 30.3 46.8 29.65 44.4 29.6 42.5 29.65 41.1 28.95 38.75 27.75 36.95 27.05 35.15 26.75 Q34.05 26.65 32.6 25.75 L31.35 24.85 Q29.8 24.15 27.4 24.0 L24.7 23.6 22.4 23.15 Q21.2 23.05 20.85 22.65 L20.7 22.3 Q20.25 21.8 19.45 21.3 17.9 20.25 16.4 20.25 L14.15 20.0 11.4 18.55 Q9.6 17.65 8.8 17.75 L7.65 17.7 Q5.6 16.85 5.4 16.0 5.25 15.25 1.8 14.65 -0.7 14.15 0.4 13.95 5.15 13.15 6.25 12.6 L6.9 11.45 Q7.25 10.5 8.0 10.35 8.6 10.25 8.4 9.3 8.2 8.0 8.3 7.8 8.5 7.4 10.0 7.3 L12.6 7.15 15.55 6.55 Q20.75 8.8 23.05 9.4 L30.55 10.35 Q35.3 10.65 37.95 11.65 46.6 14.8 50.3 15.3 56.65 16.2 62.9 13.5 65.05 12.6 67.1 10.6 L70.55 6.65 Q73.25 5.7 75.05 4.2 L76.0 3.3 77.05 3.2 94.2 1.1 103.85 0.0 Q107.65 0.0 110.05 0.8 L112.3 1.85 113.65 2.2 115.05 2.7" fill="#000000" fill-rule="evenodd" stroke="none"/>
    </g>
    <g id="sprite2" transform="matrix(1.0, 0.0, 0.0, 1.0, 0.0, 0.0)">
      <use height="3.65" transform="matrix(1.0, 0.0, 0.0, 1.0, 0.0, 0.0)" width="17.5" xlink:href="#shape2"/>
    </g>
    <g id="shape2" transform="matrix(1.0, 0.0, 0.0, 1.0, 0.0, 0.0)">
      <path d="M14.85 0.5 Q16.5 0.5 17.5 1.0 16.85 2.65 15.35 3.15 L10.5 3.65 Q8.35 3.65 7.85 2.85 L4.5 3.15 Q3.3 3.3 1.9 2.7 0.55 2.1 0.15 1.35 -0.2 0.6 0.25 0.35 0.7 0.1 2.5 0.0 L14.85 0.5" fill="#000000" fill-rule="evenodd" stroke="none"/>
    </g>
    <g id="sprite3" transform="matrix(1.0, 0.0, 0.0, 1.0, 0.0, 0.0)">
      <use height="5.2" transform="matrix(1.0, 0.0, 0.0, 1.0, 0.0, 0.0)" width="12.6" xlink:href="#shape3"/>
    </g>
    <g id="shape3" transform="matrix(1.0, 0.0, 0.0, 1.0, 0.0, 0.0)">
      <path d="M10.5 0.3 Q11.4 0.55 12.2 1.2 12.85 1.75 12.45 2.45 L11.2 3.7 9.55 4.7 6.5 5.2 Q4.55 5.3 2.05 3.9 0.85 3.2 0.0 2.5 1.0 1.5 1.7 1.5 L3.85 0.75 Q5.95 0.0 7.5 0.0 L10.5 0.3" fill="#000000" fill-rule="evenodd" stroke="none"/>
    </g>
    <g id="sprite4" transform="matrix(1.0, 0.0, 0.0, 1.0, 0.05, 0.0)">
      <use height="2.55" transform="matrix(1.0, 0.0, 0.0, 1.0, -0.05, 0.0)" width="7.3" xlink:href="#shape4"/>
    </g>
    <g id="shape4" transform="matrix(1.0, 0.0, 0.0, 1.0, 0.05, 0.0)">
      <path d="M2.9 0.0 L6.4 0.15 7.05 0.65 Q7.4 0.9 7.15 0.95 6.55 1.1 6.05 1.5 4.5 2.85 2.05 2.5 0.4 2.3 0.05 1.55 L0.05 0.85 2.9 0.0" fill="#000000" fill-rule="evenodd" stroke="none"/>
    </g>
    <g id="sprite5" transform="matrix(1.0, 0.0, 0.0, 1.0, 0.0, 0.0)">
      <use height="1.9" transform="matrix(1.0, 0.0, 0.0, 1.0, 0.0, 0.0)" width="7.75" xlink:href="#shape5"/>
    </g>
    <g id="shape5" transform="matrix(1.0, 0.0, 0.0, 1.0, 0.0, 0.0)">
      <path d="M0.0 1.5 L1.5 0.35 5.2 0.0 6.6 0.15 7.5 0.7 Q8.0 1.05 7.5 1.4 L5.7 1.85 2.7 1.85 0.0 1.5" fill="#000000" fill-rule="evenodd" stroke="none"/>
    </g>
    <g id="sprite6" transform="matrix(1.0, 0.0, 0.0, 1.0, 0.0, 0.0)">
      <use height="3.2" transform="matrix(1.0, 0.0, 0.0, 1.0, 0.0, 0.0)" width="4.9" xlink:href="#shape6"/>
    </g>
    <g id="shape6" transform="matrix(1.0, 0.0, 0.0, 1.0, 0.0, 0.0)">
      <path d="M0.05 2.65 L0.5 1.85 1.6 0.85 Q2.95 -0.1 4.0 0.0 5.1 0.1 4.85 1.05 4.65 1.85 4.0 2.35 L2.9 2.8 0.8 3.15 Q-0.25 3.35 0.05 2.65" fill="#000000" fill-rule="evenodd" stroke="none"/>
    </g>
    <g id="sprite7" transform="matrix(1.0, 0.0, 0.0, 1.0, 0.0, 0.0)">
      <use height="3.0" transform="matrix(1.0, 0.0, 0.0, 1.0, 0.0, 0.0)" width="7.75" xlink:href="#shape7"/>
    </g>
    <g id="shape7" transform="matrix(1.0, 0.0, 0.0, 1.0, 0.0, 0.0)">
      <path d="M6.6 3.0 L0.0 2.15 Q2.35 0.0 3.35 0.0 6.8 0.0 7.35 1.3 L7.75 2.6 Q7.65 3.05 6.6 3.0" fill="#000000" fill-rule="evenodd" stroke="none"/>
    </g>
    <g id="shape8" transform="matrix(1.0, 0.0, 0.0, 1.0, -28.55, -84.8)">
      <path d="M123.65 93.95 L121.05 96.9 Q117.8 100.0 114.65 100.95 111.9 101.8 105.3 105.45 98.25 109.35 96.65 109.95 L89.4 112.25 Q84.95 113.45 81.5 113.85 L73.8 113.5 65.65 112.8 Q59.0 113.0 47.65 108.45 L37.55 104.7 31.15 102.45 31.9 99.55 36.65 97.95 37.7 98.65 Q39.5 98.85 43.15 96.45 45.95 94.6 49.35 93.6 L52.15 92.95 56.65 88.45 60.3 88.7 Q64.05 89.2 64.65 90.45 65.05 91.25 70.9 89.95 L76.65 88.45 94.65 88.95 101.15 87.95 103.1 87.25 106.15 86.95 113.15 87.45 114.7 87.95 118.15 88.45 126.5 87.5 123.65 93.95" fill="#e3f3ff" fill-rule="evenodd" stroke="none"/>
      <path d="M126.75 88.3 L128.65 99.3 Q126.1 101.95 120.75 105.95 110.85 113.3 109.35 113.3 L103.45 115.2 Q97.45 117.25 95.1 117.65 L86.95 119.95 Q80.9 121.8 78.05 121.95 72.65 122.3 68.95 121.95 62.9 121.3 57.45 118.65 L49.55 114.95 Q47.65 114.2 44.5 113.95 40.8 113.7 36.85 111.95 32.3 109.9 29.65 106.65 31.05 102.95 31.9 99.55 L36.35 101.45 Q39.0 102.55 40.95 103.05 L48.45 104.0 Q53.2 104.3 55.85 105.3 64.5 108.45 68.2 108.95 74.55 109.85 80.8 107.15 82.95 106.25 85.0 104.25 L88.45 100.3 Q91.15 99.35 92.95 97.85 95.35 95.9 96.2 92.65 97.2 92.15 97.75 92.0 98.5 91.75 100.6 92.7 L103.45 94.0 Q106.4 95.0 109.8 94.0 111.65 93.4 114.4 91.25 L115.95 89.95 Q116.25 89.7 116.3 89.8 116.35 90.35 116.95 91.1 118.05 92.5 120.1 92.4 122.05 92.35 123.3 91.1 125.1 89.45 126.5 87.5 L126.75 88.3" fill="url(#gradient1)" fill-rule="evenodd" stroke="none"/>
      <path d="M126.5 87.5 L126.75 88.3 128.65 99.3 Q126.1 101.95 120.75 105.95 110.85 113.3 109.35 113.3 L103.45 115.2 Q97.45 117.25 95.1 117.65 L86.95 119.95 Q80.9 121.8 78.05 121.95 72.65 122.3 68.95 121.95 62.9 121.3 57.45 118.65 L49.55 114.95 Q47.65 114.2 44.5 113.95 39.1 113.6 34.05 110.45 L39.6 110.65 42.75 110.1 47.25 109.75 Q49.5 109.7 51.15 110.6 52.05 111.1 55.15 114.0 57.85 116.55 59.75 116.95 L64.4 117.15 70.5 115.45 Q73.8 114.4 78.35 114.0 L88.75 113.2 Q94.75 112.6 100.45 109.9 105.35 107.55 106.75 105.45 109.35 101.8 109.0 97.35 108.9 96.0 108.4 94.3 L109.8 94.0 Q111.65 93.4 114.4 91.25 L115.95 89.95 Q116.25 89.7 116.3 89.8 116.35 90.35 116.95 91.1 118.05 92.5 120.1 92.4 122.05 92.35 123.3 91.1 125.1 89.45 126.5 87.5" fill="#97b4c4" fill-rule="evenodd" stroke="none"/>
      <path d="M40.6 113.25 L46.4 112.45 49.15 112.3 50.65 112.85 52.45 114.6 55.4 117.6 Q50.55 115.25 49.15 114.75 47.4 114.15 44.5 113.95 L40.6 113.25" fill="#7d9aab" fill-rule="evenodd" stroke="none"/>
      <path d="M124.4 97.1 Q125.3 96.45 126.55 96.95 127.7 97.45 128.5 98.5 L128.65 99.3 Q126.1 101.95 120.75 105.95 110.85 113.3 109.35 113.3 L103.45 115.2 Q97.45 117.25 95.1 117.65 L86.95 119.95 Q80.9 121.8 78.05 121.95 L71.25 122.1 Q66.9 121.9 62.95 120.75 67.9 121.45 71.15 120.85 L75.2 119.85 80.15 118.2 Q82.8 117.4 85.0 116.45 86.65 115.9 89.75 115.85 92.95 115.75 95.2 115.0 L100.0 113.2 105.2 111.55 Q107.3 110.6 109.0 108.45 110.05 107.15 111.1 104.85 111.8 103.35 113.4 102.45 116.25 100.85 118.65 100.1 L121.85 98.65 124.4 97.1" fill="#7d9aab" fill-rule="evenodd" stroke="none"/>
      <path d="M65.65 112.8 L67.1 108.8 68.5 109.0 66.5 111.6 65.65 112.8" fill="#9fc0d4" fill-rule="evenodd" stroke="none"/>
      <path d="M96.9 96.6 L98.65 101.45 98.65 102.75 98.5 104.6 Q98.5 106.8 99.4 108.2 L100.65 109.85 Q99.0 110.7 98.4 111.1 L95.95 111.85 94.0 112.35 91.5 112.95 81.5 113.85 Q82.15 113.55 82.75 113.2 L85.15 113.1 90.25 111.7 95.15 108.2 95.65 106.7 96.9 96.6" fill="#97b4c4" fill-rule="evenodd" stroke="none"/>
      <path d="M34.9 102.7 Q35.9 102.7 35.9 103.7 35.9 104.7 34.9 104.7 33.95 104.7 33.95 103.7 33.95 102.7 34.9 102.7" fill="#ffffff" fill-rule="evenodd" stroke="none"/>
      <path d="M36.0 105.95 Q36.0 105.0 37.0 105.0 38.0 105.0 38.0 105.95 L38.0 106.1 Q38.0 107.1 37.0 107.1 36.0 107.1 36.0 106.1 L36.0 105.95" fill="#ffffff" fill-rule="evenodd" stroke="none"/>
      <path d="M40.4 106.1 Q39.45 106.1 39.45 105.1 39.45 104.1 40.4 104.1 41.4 104.1 41.4 105.1 41.4 106.1 40.4 106.1" fill="#ffffff" fill-rule="evenodd" stroke="none"/>
      <path d="M40.7 102.95 L40.95 103.05 43.65 103.55 Q44.0 104.0 43.8 104.6 43.6 105.2 42.9 105.2 42.4 105.2 42.15 104.85 41.9 104.55 41.95 104.15 L41.65 104.2 Q41.1 104.2 40.85 103.8 40.6 103.45 40.7 102.95" fill="#ffffff" fill-rule="evenodd" stroke="none"/>
      <path d="M44.4 104.95 Q45.4 104.95 45.4 105.95 45.4 106.95 44.4 106.95 43.45 106.95 43.45 105.95 43.45 104.95 44.4 104.95" fill="#ffffff" fill-rule="evenodd" stroke="none"/>
      <path d="M39.4 108.2 Q40.4 108.2 40.4 109.2 40.4 110.2 39.4 110.2 38.45 110.2 38.45 109.2 38.45 108.2 39.4 108.2" fill="#ffffff" fill-rule="evenodd" stroke="none"/>
      <path d="M35.5 108.45 Q36.5 108.45 36.5 109.45 36.5 110.45 35.5 110.45 34.55 110.45 34.55 109.45 34.55 108.45 35.5 108.45" fill="#ffffff" fill-rule="evenodd" stroke="none"/>
      <path d="M51.5 107.1 Q52.5 107.1 52.5 108.1 52.5 109.1 51.5 109.1 50.55 109.1 50.55 108.1 50.55 107.1 51.5 107.1" fill="#ffffff" fill-rule="evenodd" stroke="none"/>
      <path d="M59.65 110.45 Q60.65 110.45 60.65 111.45 60.65 112.45 59.65 112.45 58.7 112.45 58.7 111.45 58.7 110.45 59.65 110.45" fill="#ffffff" fill-rule="evenodd" stroke="none"/>
      <path d="M64.25 113.1 Q65.25 113.1 65.25 114.1 65.25 115.1 64.25 115.1 63.3 115.1 63.3 114.1 63.3 113.1 64.25 113.1" fill="#ffffff" fill-rule="evenodd" stroke="none"/>
      <path d="M102.55 95.95 L102.55 96.05 103.15 98.15 103.15 99.35 103.65 99.5 104.1 100.1 104.0 100.8 104.0 100.85 Q104.0 101.7 103.1 101.8 L103.25 101.85 103.75 102.45 103.65 103.2 103.65 103.1 Q103.6 103.7 103.1 103.95 102.65 104.15 102.15 103.95 L101.7 104.65 101.55 104.15 101.45 101.3 101.6 100.2 101.9 98.95 Q101.2 98.95 101.0 98.3 100.8 97.7 101.2 97.25 L100.8 96.4 100.8 94.9 100.9 94.1 101.1 92.95 102.8 93.75 102.85 93.95 102.9 93.95 103.1 94.25 Q103.55 94.7 103.3 95.3 L102.55 95.95" fill="#b7d5e8" fill-rule="evenodd" stroke="none"/>
      <path d="M120.7 95.3 Q119.75 94.8 119.9 93.85 120.0 92.95 120.95 93.45 121.85 94.0 121.75 94.9 121.65 95.85 120.7 95.3" fill="#c1dae8" fill-rule="evenodd" stroke="none"/>
      <path d="M117.4 93.7 Q116.9 94.25 116.15 93.3 115.35 92.35 115.85 91.8 L116.3 91.5 Q117.05 91.25 117.65 92.3 118.25 93.35 117.5 93.6 L117.4 93.7" fill="#c1dae8" fill-rule="evenodd" stroke="none"/>
      <path d="M113.9 93.05 Q114.85 93.6 114.75 94.5 114.65 95.45 113.7 94.9 112.75 94.4 112.85 93.45 112.95 92.55 113.9 93.05" fill="#c1dae8" fill-rule="evenodd" stroke="none"/>
      <path d="M111.55 96.65 Q112.5 97.2 112.4 98.1 112.3 99.05 111.35 98.5 110.4 98.0 110.5 97.05 110.6 96.15 111.55 96.65" fill="#c1dae8" fill-rule="evenodd" stroke="none"/>
      <path d="M117.8 96.15 Q118.75 96.7 118.6 97.6 118.5 98.55 117.55 98.0 116.65 97.45 116.75 96.55 116.85 95.6 117.8 96.15" fill="#c1dae8" fill-rule="evenodd" stroke="none"/>
      <path d="M124.75 100.6 Q125.65 101.15 125.55 102.05 125.45 102.95 124.5 102.45 123.55 101.95 123.7 101.0 123.8 100.05 124.75 100.6" fill="#c1dae8" fill-rule="evenodd" stroke="none"/>
      <path d="M104.95 94.45 L101.1 92.95 98.95 93.25 96.95 92.45 96.25 93.15 Q95.5 93.9 95.3 94.45 L94.25 96.85 Q93.4 98.75 92.95 98.95 L88.45 100.3 Q85.65 104.45 84.45 104.95 83.75 105.25 82.2 106.25 L80.8 107.15 Q79.45 108.45 76.8 108.95 L73.75 109.4 72.65 109.45 67.8 109.6 63.95 108.75 Q61.8 107.1 61.15 106.95 L59.15 106.7 57.65 106.6 Q54.45 104.95 52.95 104.75 L43.65 103.55 45.5 103.4 49.3 103.25 53.3 103.55 55.65 103.95 58.0 104.85 60.45 105.6 64.7 105.85 69.15 106.1 72.15 105.85 74.8 105.25 Q75.05 105.0 76.25 104.5 77.45 103.95 77.8 103.6 L80.65 101.45 82.15 100.1 Q79.8 98.75 78.8 98.6 L73.8 97.95 66.75 97.05 61.65 96.25 65.0 96.2 Q68.7 96.15 70.45 96.25 L73.6 96.55 77.65 96.45 85.0 96.95 89.95 97.45 93.45 95.1 Q94.8 93.45 93.95 93.1 92.55 92.5 89.3 92.25 L83.95 91.75 79.95 91.1 76.45 89.95 71.95 89.75 77.3 88.25 83.8 88.25 89.05 88.7 94.65 88.95 98.3 88.1 100.15 88.6 103.45 89.25 105.5 89.5 107.8 89.6 115.95 89.95 111.65 93.1 108.95 94.45 Q106.3 94.95 104.95 94.45" fill="#ffffff" fill-rule="evenodd" stroke="none"/>
      <path d="M123.15 87.75 L126.5 87.5 125.95 89.25 123.3 91.1 Q122.15 92.45 120.45 92.45 L118.1 91.8 116.95 91.1 117.95 91.45 119.3 91.75 Q120.0 91.75 120.65 91.1 L121.65 89.6 119.8 89.25 114.15 88.6 110.0 88.3 102.8 87.6 99.15 88.95 96.8 88.6 99.45 88.1 100.95 87.45 Q102.6 86.75 103.3 86.75 L106.15 86.95 113.15 87.45 Q114.65 87.45 114.45 87.75 L117.45 88.1 123.15 87.75" fill="#ffffff" fill-rule="evenodd" stroke="none"/>
      <path d="M66.8 98.1 Q67.45 98.75 66.8 99.35 L64.45 99.25 Q62.6 98.4 64.15 97.7 65.7 97.0 66.8 98.1" fill="#ffffff" fill-rule="evenodd" stroke="none"/>
      <path d="M57.3 96.45 Q59.5 97.0 58.3 98.05 57.1 99.1 55.3 98.95 53.5 98.8 54.15 97.25 54.85 95.8 57.3 96.45" fill="#ffffff" fill-rule="evenodd" stroke="none"/>
      <path d="M50.15 95.45 L50.9 96.15 49.15 96.25 Q47.8 96.4 48.6 95.65 49.3 94.95 50.15 95.45" fill="#ffffff" fill-rule="evenodd" stroke="none"/>
      <path d="M59.95 99.25 Q61.2 99.55 61.05 100.35 L59.15 100.45 Q57.4 99.75 57.9 99.35 L59.95 99.25" fill="#ffffff" fill-rule="evenodd" stroke="none"/>
      <path d="M70.65 99.75 Q72.1 99.9 72.4 101.05 72.7 102.25 70.95 102.6 69.15 102.95 69.1 101.3 69.05 99.65 70.65 99.75" fill="#ffffff" fill-rule="evenodd" stroke="none"/>
      <path d="M61.65 102.25 Q62.75 102.25 62.6 102.95 62.5 103.6 60.95 103.6 59.45 103.6 60.0 102.95 60.55 102.25 61.65 102.25" fill="#ffffff" fill-rule="evenodd" stroke="none"/>
      <path d="M41.65 99.6 Q44.65 100.75 43.15 100.45 L38.65 100.25 Q37.9 100.25 36.6 99.5 L35.45 98.75 36.65 97.95 38.2 98.65 41.65 99.6" fill="#ffffff" fill-rule="evenodd" stroke="none"/>
      <path d="M76.45 92.95 Q77.4 93.05 76.95 93.4 76.5 93.75 75.3 93.75 74.05 93.75 74.65 93.25 75.25 92.75 76.45 92.95" fill="#ffffff" fill-rule="evenodd" stroke="none"/>
      <path d="M56.65 88.45 L61.8 88.6 Q63.45 88.6 63.95 89.25 L64.65 90.45 63.15 91.25 59.45 90.95 Q58.35 90.65 57.4 89.5 L56.65 88.45" fill="#ffffff" fill-rule="evenodd" stroke="none"/>
      <path d="M68.3 93.25 Q68.95 93.25 68.6 93.85 68.25 94.45 67.15 94.1 66.0 93.75 66.65 93.5 L68.3 93.25" fill="#ffffff" fill-rule="evenodd" stroke="none"/>
      <path d="M85.95 93.95 Q87.3 94.4 86.55 94.75 L83.95 95.1 Q82.05 95.1 83.15 94.15 84.2 93.3 85.95 93.95" fill="#ffffff" fill-rule="evenodd" stroke="none"/>
      <path d="M31.5 103.3 L28.55 105.15 30.4 102.2 28.55 99.2 31.5 101.05 34.5 99.2 32.65 102.2 34.5 105.15 31.5 103.3" fill="#ffffff" fill-rule="evenodd" stroke="none"/>
      <path d="M77.3 90.65 L73.05 93.25 75.7 89.05 73.05 84.8 77.3 87.45 81.5 84.8 78.9 89.05 81.5 93.25 77.3 90.65" fill="#ffffff" fill-rule="evenodd" stroke="none"/>
      <path d="M96.1 94.7 L92.1 97.2 94.6 93.2 92.1 89.15 96.1 91.65 100.15 89.15 97.65 93.2 100.15 97.2 96.1 94.7" fill="#ffffff" fill-rule="evenodd" stroke="none"/>
      <path d="M62.65 97.6 L60.05 99.2 61.65 96.65 60.05 94.1 62.65 95.7 65.2 94.1 63.6 96.65 65.2 99.2 62.65 97.6" fill="#ffffff" fill-rule="evenodd" stroke="none"/>
    </g>
    <radialGradient cx="0" cy="0" gradientTransform="matrix(0.0016, -0.0949, -0.0775, -0.0013, 69.15, 65.9)" gradientUnits="userSpaceOnUse" id="gradient1" r="819.2" spreadMethod="pad">
      <stop offset="0.0" stop-color="#e5f1f7"/>
      <stop offset="1.0" stop-color="#89adc4"/>
    </radialGradient>
    <g id="sprite8" transform="matrix(1.0, 0.0, 0.0, 1.0, 0.05, 0.05)">
      <use height="35.7" transform="matrix(1.0, 0.0, 0.0, 1.0, -0.05, -0.05)" width="40.45" xlink:href="#shape9"/>
    </g>
    <g id="shape9" transform="matrix(1.0, 0.0, 0.0, 1.0, 0.05, 0.05)">
      <path d="M38.4 6.0 Q41.95 11.55 39.2 18.9 36.4 26.3 28.85 31.15 21.3 36.05 13.45 35.6 5.55 35.15 1.95 29.6 -1.6 24.1 1.2 16.7 3.95 9.3 11.5 4.45 19.05 -0.45 26.9 0.0 34.8 0.45 38.4 6.0" fill="url(#gradient2)" fill-rule="evenodd" stroke="none"/>
    </g>
    <radialGradient cx="0" cy="0" gradientTransform="matrix(0.0222, -0.0144, -0.0106, -0.0163, 20.2, 17.8)" gradientUnits="userSpaceOnUse" id="gradient2" r="819.2" spreadMethod="pad">
      <stop offset="0.0" stop-color="#ffffff"/>
      <stop offset="1.0" stop-color="#ffffff" stop-opacity="0.0"/>
    </radialGradient>
    <g id="sprite9" transform="matrix(1.0, 0.0, 0.0, 1.0, 0.0, 0.0)">
      <use height="25.8" transform="matrix(1.0, 0.0, 0.0, 1.0, 0.0, 0.0)" width="65.0" xlink:href="#shape10"/>
    </g>
    <g id="shape10" transform="matrix(1.0, 0.0, 0.0, 1.0, 0.0, 0.0)">
      <path d="M65.0 11.45 Q65.25 16.75 55.85 20.9 46.5 25.1 33.05 25.7 19.6 26.3 9.9 22.95 0.25 19.65 0.0 14.35 -0.2 9.05 9.1 4.85 18.45 0.7 31.9 0.1 45.35 -0.5 55.05 2.8 64.75 6.15 65.0 11.45" fill="url(#gradient3)" fill-rule="evenodd" stroke="none"/>
    </g>
    <radialGradient cx="0" cy="0" gradientTransform="matrix(0.0397, -0.0018, -7.0E-4, -0.0156, 32.5, 12.9)" gradientUnits="userSpaceOnUse" id="gradient3" r="819.2" spreadMethod="pad">
      <stop offset="0.0" stop-color="#ffffff"/>
      <stop offset="1.0" stop-color="#ffffff" stop-opacity="0.0"/>
    </radialGradient>
    <g id="shape11" transform="matrix(1.0, 0.0, 0.0, 1.0, -15.5, -98.6)">
      <path d="M32.65 106.75 Q33.85 106.75 35.55 109.25 L37.95 112.75 Q38.8 113.6 38.65 114.95 L38.3 116.1 Q35.3 117.75 32.65 117.75 30.95 117.75 28.8 116.45 L26.95 115.1 27.65 112.1 Q27.55 110.25 28.0 109.05 28.9 106.75 32.65 106.75" fill="url(#gradient4)" fill-rule="evenodd" stroke="none"/>
      <path d="M60.95 117.1 Q62.9 117.1 63.0 119.7 63.1 122.3 60.3 122.75 57.85 123.2 57.2 121.85 56.8 120.1 56.3 119.45 55.65 118.55 57.65 117.75 59.35 117.1 60.95 117.1" fill="url(#gradient5)" fill-rule="evenodd" stroke="none"/>
      <path d="M48.3 120.75 Q51.0 121.0 51.85 123.05 52.6 124.85 51.65 126.1 50.9 127.15 48.25 127.05 45.5 127.0 43.3 125.75 41.25 124.65 43.95 122.6 46.45 120.6 48.3 120.75" fill="url(#gradient6)" fill-rule="evenodd" stroke="none"/>
      <path d="M23.65 107.75 Q26.6 107.75 26.05 109.4 25.55 111.0 22.95 110.75 20.6 110.55 21.2 109.15 21.75 107.75 23.65 107.75" fill="url(#gradient7)" fill-rule="evenodd" stroke="none"/>
      <path d="M19.3 101.45 Q20.15 102.25 20.0 102.75 L19.65 103.1 19.55 103.75 Q19.05 104.3 16.95 104.1 14.5 103.85 16.2 101.95 17.9 100.05 19.3 101.45" fill="url(#gradient8)" fill-rule="evenodd" stroke="none"/>
      <path d="M118.65 114.1 Q120.2 114.1 121.45 115.05 122.7 116.0 121.95 116.75 121.3 117.4 119.1 117.25 L114.95 116.75 Q113.1 116.55 115.15 115.3 117.2 114.1 118.65 114.1" fill="url(#gradient9)" fill-rule="evenodd" stroke="none"/>
      <path d="M124.65 108.45 Q126.75 108.9 125.8 110.0 124.85 111.1 122.95 111.1 121.3 111.1 122.45 109.65 123.6 108.2 124.65 108.45" fill="url(#gradient10)" fill-rule="evenodd" stroke="none"/>
      <path d="M135.65 98.75 Q139.95 100.8 138.1 102.45 136.3 104.0 133.3 103.1 130.95 102.4 132.55 100.25 134.15 98.05 135.65 98.75" fill="url(#gradient11)" fill-rule="evenodd" stroke="none"/>
      <path d="M27.95 99.45 Q30.25 100.35 29.1 101.25 28.05 102.1 25.95 102.1 24.2 102.1 25.35 100.5 26.5 98.85 27.95 99.45" fill="url(#gradient12)" fill-rule="evenodd" stroke="none"/>
      <path d="M23.65 113.45 Q26.35 113.45 26.7 114.6 26.95 115.45 25.95 116.75 25.3 117.65 24.2 117.5 L20.95 116.45 Q18.85 115.75 20.15 114.6 21.4 113.45 23.65 113.45" fill="url(#gradient13)" fill-rule="evenodd" stroke="none"/>
      <path d="M86.3 120.1 Q89.25 120.6 87.65 122.0 86.0 123.35 82.95 123.1 80.15 122.85 82.4 121.35 84.6 119.8 86.3 120.1" fill="url(#gradient14)" fill-rule="evenodd" stroke="none"/>
      <path d="M31.7 106.55 L33.1 106.8 34.7 107.8 34.85 109.05 33.7 108.8 30.35 109.05 27.7 109.7 28.45 107.3 30.1 107.2 31.7 106.55" fill="#ffffff" fill-rule="evenodd" stroke="none"/>
      <path d="M21.1 109.3 L21.9 108.55 Q22.85 107.8 23.65 107.75 24.95 107.7 25.7 108.45 L24.7 108.45 23.2 108.95 21.1 109.3" fill="#ffffff" fill-rule="evenodd" stroke="none"/>
      <path d="M17.95 101.7 Q18.4 101.7 18.3 102.0 L17.7 102.7 Q17.1 103.2 17.95 101.7" fill="#ffffff" fill-rule="evenodd" stroke="none"/>
      <path d="M22.6 114.3 Q23.65 114.65 23.0 114.95 L21.6 115.2 Q20.9 115.2 21.4 114.65 21.9 114.1 22.6 114.3" fill="#ffffff" fill-rule="evenodd" stroke="none"/>
      <path d="M30.35 110.55 Q30.95 110.55 30.5 110.9 L29.45 111.2 Q28.75 111.2 29.1 110.9 29.45 110.55 30.35 110.55" fill="#ffffff" fill-rule="evenodd" stroke="none"/>
      <path d="M46.7 122.8 Q47.7 123.0 47.25 123.4 46.85 123.8 45.85 123.8 44.9 123.8 45.45 123.25 45.95 122.65 46.7 122.8" fill="#ffffff" fill-rule="evenodd" stroke="none"/>
      <path d="M48.85 123.7 Q50.25 123.75 49.75 124.6 49.2 125.45 48.35 125.3 47.6 125.25 47.85 124.45 48.05 123.65 48.85 123.7" fill="#ffffff" fill-rule="evenodd" stroke="none"/>
      <path d="M45.7 124.8 Q47.6 124.75 47.55 125.3 47.5 125.8 46.6 125.95 45.95 126.0 45.55 125.45 45.1 124.85 45.7 124.8" fill="#ffffff" fill-rule="evenodd" stroke="none"/>
      <path d="M59.2 118.95 Q60.1 119.35 59.5 119.9 58.9 120.5 57.7 120.3 56.45 120.1 57.2 119.25 58.0 118.4 59.2 118.95" fill="#ffffff" fill-rule="evenodd" stroke="none"/>
      <path d="M59.95 120.2 Q61.55 120.55 61.05 121.05 60.65 121.45 59.6 121.55 58.85 121.65 59.1 120.85 59.35 120.05 59.95 120.2" fill="#ffffff" fill-rule="evenodd" stroke="none"/>
      <path d="M84.6 120.95 Q86.2 120.75 85.65 121.4 85.05 122.05 83.95 121.95 83.0 121.85 83.4 121.45 83.75 121.05 84.6 120.95" fill="#ffffff" fill-rule="evenodd" stroke="none"/>
    </g>
    <radialGradient cx="0" cy="0" gradientTransform="matrix(0.0069, 0.0, 0.0, -0.0069, 32.8, 112.25)" gradientUnits="userSpaceOnUse" id="gradient4" r="819.2" spreadMethod="pad">
      <stop offset="0.0" stop-color="#e5f1f7"/>
      <stop offset="1.0" stop-color="#96bdd6"/>
    </radialGradient>
    <radialGradient cx="0" cy="0" gradientTransform="matrix(0.0039, 0.0, 0.0, -0.0039, 59.6, 120.0)" gradientUnits="userSpaceOnUse" id="gradient5" r="819.2" spreadMethod="pad">
      <stop offset="0.0" stop-color="#e5f1f7"/>
      <stop offset="1.0" stop-color="#96bdd6"/>
    </radialGradient>
    <radialGradient cx="0" cy="0" gradientTransform="matrix(0.005, 0.0, 0.0, -0.005, 47.3, 123.9)" gradientUnits="userSpaceOnUse" id="gradient6" r="819.2" spreadMethod="pad">
      <stop offset="0.0" stop-color="#e5f1f7"/>
      <stop offset="1.0" stop-color="#96bdd6"/>
    </radialGradient>
    <radialGradient cx="0" cy="0" gradientTransform="matrix(0.0025, 0.0, 0.0, -0.0025, 23.6, 109.25)" gradientUnits="userSpaceOnUse" id="gradient7" r="819.2" spreadMethod="pad">
      <stop offset="0.0" stop-color="#e5f1f7"/>
      <stop offset="1.0" stop-color="#96bdd6"/>
    </radialGradient>
    <radialGradient cx="0" cy="0" gradientTransform="matrix(0.0023, 0.0, 0.0, -0.0023, 17.8, 102.55)" gradientUnits="userSpaceOnUse" id="gradient8" r="819.2" spreadMethod="pad">
      <stop offset="0.0" stop-color="#e5f1f7"/>
      <stop offset="1.0" stop-color="#96bdd6"/>
    </radialGradient>
    <radialGradient cx="0" cy="0" gradientTransform="matrix(0.0037, 0.0, 0.0, -0.0037, 118.2, 115.7)" gradientUnits="userSpaceOnUse" id="gradient9" r="819.2" spreadMethod="pad">
      <stop offset="0.0" stop-color="#e5f1f7"/>
      <stop offset="1.0" stop-color="#96bdd6"/>
    </radialGradient>
    <radialGradient cx="0" cy="0" gradientTransform="matrix(0.0021, 0.0, 0.0, -0.0021, 124.05, 109.75)" gradientUnits="userSpaceOnUse" id="gradient10" r="819.2" spreadMethod="pad">
      <stop offset="0.0" stop-color="#e5f1f7"/>
      <stop offset="1.0" stop-color="#96bdd6"/>
    </radialGradient>
    <radialGradient cx="0" cy="0" gradientTransform="matrix(0.0035, 0.0, 0.0, -0.0035, 135.3, 101.0)" gradientUnits="userSpaceOnUse" id="gradient11" r="819.2" spreadMethod="pad">
      <stop offset="0.0" stop-color="#e5f1f7"/>
      <stop offset="1.0" stop-color="#96bdd6"/>
    </radialGradient>
    <radialGradient cx="0" cy="0" gradientTransform="matrix(0.0023, 0.0, 0.0, -0.0023, 27.25, 100.7)" gradientUnits="userSpaceOnUse" id="gradient12" r="819.2" spreadMethod="pad">
      <stop offset="0.0" stop-color="#e5f1f7"/>
      <stop offset="1.0" stop-color="#96bdd6"/>
    </radialGradient>
    <radialGradient cx="0" cy="0" gradientTransform="matrix(0.0035, 0.0, 0.0, -0.0035, 23.2, 115.45)" gradientUnits="userSpaceOnUse" id="gradient13" r="819.2" spreadMethod="pad">
      <stop offset="0.0" stop-color="#e5f1f7"/>
      <stop offset="1.0" stop-color="#96bdd6"/>
    </radialGradient>
    <radialGradient cx="0" cy="0" gradientTransform="matrix(0.0031, 0.0, 0.0, -0.0031, 84.8, 121.6)" gradientUnits="userSpaceOnUse" id="gradient14" r="819.2" spreadMethod="pad">
      <stop offset="0.0" stop-color="#e5f1f7"/>
      <stop offset="1.0" stop-color="#96bdd6"/>
    </radialGradient>
  </defs>
</svg>
