<?xml version="1.0" encoding="UTF-8" standalone="no"?>
<svg xmlns:xlink="http://www.w3.org/1999/xlink" height="205.35px" width="34.05px" xmlns="http://www.w3.org/2000/svg">
  <g transform="matrix(1.0, 0.0, 0.0, 1.0, 0.0, 0.0)">
    <use height="205.35" transform="matrix(1.0, 0.0, 0.0, 1.0, 0.0, 0.0)" width="34.05" xlink:href="#shape0"/>
  </g>
  <defs>
    <g id="shape0" transform="matrix(1.0, 0.0, 0.0, 1.0, 0.0, 0.0)">
      <path d="M9.5 36.2 Q12.05 31.35 12.3 29.0 12.7 25.45 11.4 14.5 10.3 5.25 12.1 0.2 13.15 5.15 16.8 14.1 20.55 23.45 21.65 28.0 23.25 34.55 24.0 45.85 24.2 48.75 25.3 56.85 26.15 63.65 26.25 68.0 L26.75 87.65 27.2 107.85 Q27.05 119.45 24.6 127.85 L22.55 133.4 20.2 138.9 Q19.55 140.35 19.05 142.65 L18.0 146.45 Q17.4 148.2 13.8 154.3 10.95 159.15 10.75 162.45 9.65 160.5 9.2 156.6 8.7 152.05 8.2 150.6 7.35 148.05 6.55 144.35 L5.2 138.0 Q1.55 121.45 1.2 107.25 0.75 89.95 2.5 77.25 2.9 74.35 4.8 68.5 6.65 62.7 7.05 59.6 7.5 56.3 7.35 51.55 L7.15 43.5 Q7.15 40.75 9.5 36.2" fill="#4b330f" fill-rule="evenodd" stroke="none"/>
      <path d="M11.1 0.0 L12.6 1.0 12.6 1.6 Q12.4 4.75 14.75 15.55 16.65 24.35 14.6 28.95 11.7 35.45 10.2 42.25 9.1 47.05 8.0 56.1 3.3 93.35 4.1 129.7 L3.7 128.85 Q2.35 128.45 1.15 124.2 0.3 120.9 0.1 118.35 L0.0 114.2 0.1 110.0 Q0.1 100.0 0.6 96.0 L1.45 80.35 Q1.9 70.7 3.7 64.95 5.05 60.8 4.9 54.1 4.75 45.6 5.05 43.05 5.45 40.2 8.05 35.65 10.7 31.1 11.05 28.45 11.45 25.9 11.05 21.75 L10.6 15.0 10.85 7.5 11.1 0.0" fill="#5c3f1a" fill-rule="evenodd" stroke="none"/>
      <path d="M19.5 47.1 L20.95 57.1 22.65 70.65 Q23.6 78.55 23.6 84.25 23.6 90.0 24.25 101.85 24.35 112.25 21.95 119.05 17.8 130.7 8.55 143.7 9.35 137.65 14.05 124.95 18.5 112.9 19.05 105.85 19.6 99.55 19.65 90.9 L19.6 75.85 20.0 60.75 Q20.0 51.7 18.1 46.0 L18.6 37.0 Q18.6 41.05 19.5 47.1" fill="#5c3f1a" fill-rule="evenodd" stroke="none"/>
      <path d="M21.85 37.3 L23.0 42.7 Q23.7 47.35 26.15 55.0 28.9 63.55 29.65 67.2 33.1 83.5 33.1 103.7 33.1 121.5 32.6 127.25 31.5 140.5 27.1 149.85 L24.45 154.75 Q23.0 157.5 22.6 159.85 L20.6 172.2 Q20.55 170.1 19.95 167.4 19.15 163.8 18.1 163.5 16.4 163.1 15.65 165.9 15.3 167.05 15.05 170.0 14.65 176.05 14.15 187.85 13.35 198.0 10.55 205.35 L10.1 181.95 Q9.65 167.4 10.65 158.6 11.15 154.25 13.35 149.95 16.2 145.0 17.65 141.85 18.25 140.6 17.6 141.4 L15.5 144.05 Q11.7 148.6 10.9 145.8 9.4 147.15 12.55 141.45 16.05 135.1 13.8 136.3 14.5 130.85 17.8 119.85 21.05 109.1 21.7 103.3 22.25 98.45 22.25 91.65 L22.1 79.95 Q22.05 77.3 21.4 72.9 L20.55 65.85 Q20.35 63.3 20.55 57.7 20.75 52.35 20.45 49.55 20.15 49.45 20.05 49.8 19.9 47.85 20.2 44.1 L20.45 38.35 20.45 31.75 Q20.25 30.6 20.0 26.8 19.8 23.65 19.35 22.3 20.25 24.7 20.4 29.95 L20.45 31.75 20.45 31.9 21.85 37.3" fill="#402c08" fill-rule="evenodd" stroke="none"/>
      <path d="M26.35 88.35 Q25.85 85.1 26.05 80.5 L26.35 72.65 Q26.35 70.5 24.75 59.95 23.35 50.9 24.0 49.5 23.95 54.35 26.75 62.0 29.75 70.4 30.1 74.1 30.55 79.2 30.6 86.3 L30.6 98.5 Q30.55 107.6 29.75 112.65 28.6 119.75 25.2 126.1 L16.7 140.15 Q11.55 148.6 9.55 154.9 8.95 148.85 11.5 143.0 13.55 138.35 18.2 132.6 27.2 121.5 26.55 102.25 L26.65 95.25 Q26.7 90.8 26.35 88.35" fill="#34240c" fill-rule="evenodd" stroke="none"/>
      <path d="M14.1 51.0 Q13.25 52.5 14.35 55.5 L16.2 60.05 Q17.65 64.45 17.95 69.35 18.3 74.5 18.0 82.45 L17.6 95.6 Q17.5 99.9 15.35 106.35 12.7 114.3 12.2 117.0 11.75 119.35 10.4 122.5 9.35 124.95 8.95 128.65 10.55 112.0 8.9 102.65 6.9 91.4 7.25 82.15 7.4 78.15 9.25 72.6 11.15 66.8 11.6 59.15 11.8 55.4 12.75 49.1 13.6 43.7 13.6 39.0 L14.1 51.0" fill="#34240c" fill-rule="evenodd" stroke="none"/>
      <path d="M11.55 59.4 Q13.35 60.5 13.5 63.35 13.6 65.45 12.75 68.15 L10.1 75.45 Q8.55 79.75 8.6 82.95 L8.7 89.15 Q8.85 92.5 9.55 95.25 11.55 102.85 11.6 107.75 11.6 109.05 11.2 111.0 L10.6 114.25 9.75 117.55 Q10.05 108.8 8.5 100.4 6.9 91.95 7.25 82.15 7.4 78.15 9.2 72.65 11.1 66.9 11.55 59.4" fill="#402c08" fill-rule="evenodd" stroke="none"/>
      <path d="M23.85 131.75 L27.35 126.0 Q27.4 127.0 27.05 128.7 L26.55 131.4 26.55 134.45 26.25 137.45 Q25.35 141.65 20.55 148.65 15.65 155.8 14.6 159.85 14.3 154.6 15.0 150.45 15.8 145.9 18.05 141.65 L20.55 136.4 Q22.25 133.0 23.85 131.75" fill="#34240c" fill-rule="evenodd" stroke="none"/>
      <path d="M31.6 73.25 L31.85 74.5 32.85 77.35 Q33.65 79.2 33.85 80.3 34.1 81.75 34.0 84.15 L33.85 88.0 34.0 97.1 Q33.75 102.55 31.85 105.8 31.65 103.15 31.95 98.5 L32.3 91.15 31.95 82.2 Q31.6 76.2 31.6 73.25" fill="#34240c" fill-rule="evenodd" stroke="none"/>
      <path d="M32.6 116.5 L32.85 117.75 Q32.45 118.55 32.3 120.45 32.15 122.25 31.55 123.25 L29.1 126.45 26.35 129.45 Q27.8 125.25 29.55 122.7 L31.55 119.8 Q32.6 118.1 32.6 116.5" fill="#34240c" fill-rule="evenodd" stroke="none"/>
    </g>
  </defs>
</svg>
