<?xml version="1.0" encoding="UTF-8" standalone="no"?>
<svg xmlns:xlink="http://www.w3.org/1999/xlink" height="40.3px" width="50.15px" xmlns="http://www.w3.org/2000/svg">
  <g transform="matrix(1.0, 0.0, 0.0, 1.0, 0.0, 0.0)">
    <use height="3.85" transform="matrix(1.0, 0.0, 0.0, 1.0, 17.35, 0.4)" width="3.55" xlink:href="#sprite0"/>
    <use height="5.2" transform="matrix(1.0, 0.0, 0.0, 1.0, 2.4, 0.3)" width="18.3" xlink:href="#sprite1"/>
    <use height="24.7" transform="matrix(1.0, 0.0, 0.0, 1.0, 14.85, 2.1)" width="7.65" xlink:href="#sprite2"/>
    <use height="24.0" transform="matrix(1.0, 0.0, 0.0, 1.0, 20.15, 2.15)" width="2.35" xlink:href="#sprite3"/>
    <use height="3.1" transform="matrix(1.0, 0.0, 0.0, 1.0, 19.05, 23.7)" width="3.45" xlink:href="#sprite4"/>
    <use height="24.65" transform="matrix(1.0, 0.0, 0.0, 1.0, 0.6, 2.1)" width="20.25" xlink:href="#sprite5"/>
    <use height="2.0" transform="matrix(1.0, 0.0, 0.0, 1.0, 2.05, 5.15)" width="18.55" xlink:href="#sprite6"/>
    <use height="1.35" transform="matrix(1.0, 0.0, 0.0, 1.0, 2.2, 4.15)" width="18.45" xlink:href="#sprite7"/>
    <use height="24.65" transform="matrix(1.0, 0.0, 0.0, 1.0, 2.4, 2.1)" width="18.45" xlink:href="#sprite8"/>
    <use height="24.6" transform="matrix(1.0, 0.0, 0.0, 1.0, 0.6, 2.1)" width="4.45" xlink:href="#sprite9"/>
    <use height="9.65" transform="matrix(1.0, 0.0, 0.0, 1.0, 3.95, 12.55)" width="12.45" xlink:href="#sprite10"/>
    <use height="9.5" transform="matrix(1.0, 0.0, 0.0, 1.0, 3.95, 12.55)" width="5.25" xlink:href="#sprite11"/>
    <use height="9.45" transform="matrix(1.0, 0.0, 0.0, 1.0, 8.5, 12.75)" width="7.9" xlink:href="#sprite12"/>
    <use height="3.55" transform="matrix(1.0, 0.0, 0.0, 1.0, 6.75, 11.95)" width="7.35" xlink:href="#sprite13"/>
    <use height="3.7" transform="matrix(1.0, 0.0, 0.0, 1.0, 10.25, 9.3)" width="2.1" xlink:href="#sprite14"/>
    <use height="1.15" transform="matrix(1.0, 0.0, 0.0, 1.0, 11.1, 9.35)" width="1.25" xlink:href="#sprite15"/>
    <use height="6.8" transform="matrix(1.0, 0.0, 0.0, 1.0, 4.75, 13.85)" width="2.4" xlink:href="#sprite16"/>
    <use height="26.3" transform="matrix(1.0, 0.0, 0.0, 1.0, 0.0, 0.0)" width="21.75" xlink:href="#shape17"/>
    <use height="24.5" transform="matrix(1.0, 0.0, 0.0, 1.0, 1.8, 1.75)" width="18.3" xlink:href="#sprite17"/>
    <use height="24.45" transform="matrix(1.0, 0.0, 0.0, 1.0, 0.0, 1.75)" width="4.4" xlink:href="#sprite18"/>
    <use height="12.45" transform="matrix(1.0, 0.0, 0.0, 1.0, 3.5, 9.1)" width="11.3" xlink:href="#shape19"/>
    <use height="9.85" transform="matrix(1.0, 0.0, 0.0, 1.0, 3.45, 9.1)" width="6.05" xlink:href="#sprite19"/>
    <use height="6.55" transform="matrix(1.0, 0.0, 0.0, 1.0, 11.35, 12.55)" width="3.45" xlink:href="#sprite20"/>
    <use height="13.85" transform="matrix(1.0, 0.0, 0.0, 1.0, 3.5, 9.85)" width="10.75" xlink:href="#shape22"/>
    <use height="11.95" transform="matrix(1.0, 0.0, 0.0, 1.0, 3.5, 11.75)" width="9.45" xlink:href="#sprite21"/>
    <use height="9.35" transform="matrix(1.0, 0.0, 0.0, 1.0, 5.05, 14.25)" width="8.35" xlink:href="#shape24"/>
    <use height="13.45" transform="matrix(1.0, 0.0, 0.0, 1.0, 10.95, 9.9)" width="3.25" xlink:href="#sprite22"/>
    <use height="5.3" transform="matrix(1.0, 0.0, 0.0, 1.0, 4.2, 12.4)" width="3.0" xlink:href="#sprite23"/>
  </g>
  <defs>
    <g id="sprite0" transform="matrix(1.0, 0.0, 0.0, 1.0, 0.0, 0.0)">
      <use height="3.85" transform="matrix(1.0, 0.0, 0.0, 1.0, 0.0, 0.0)" width="3.55" xlink:href="#shape0"/>
    </g>
    <g id="shape0" transform="matrix(1.0, 0.0, 0.0, 1.0, 0.0, 0.0)">
      <path d="M0.0 3.2 L3.35 0.0 3.55 0.1 3.5 3.35 0.2 3.85 0.0 3.2" fill="url(#gradient0)" fill-rule="evenodd" stroke="none"/>
    </g>
    <linearGradient gradientTransform="matrix(0.0019, 0.0, 0.0, -0.0019, 2.0, 1.9)" gradientUnits="userSpaceOnUse" id="gradient0" spreadMethod="pad" x1="-819.2" x2="819.2">
      <stop offset="0.0" stop-color="#fff6e8"/>
      <stop offset="1.0" stop-color="#b09a74"/>
    </linearGradient>
    <g id="sprite1" transform="matrix(1.0, 0.0, 0.0, 1.0, 0.0, 0.0)">
      <use height="5.2" transform="matrix(1.0, 0.0, 0.0, 1.0, 0.0, 0.0)" width="18.3" xlink:href="#shape1"/>
    </g>
    <g id="shape1" transform="matrix(1.0, 0.0, 0.0, 1.0, 0.0, 0.0)">
      <path d="M18.1 5.2 L0.0 4.9 0.25 0.0 18.3 0.1 18.1 5.2" fill="url(#gradient1)" fill-rule="evenodd" stroke="none"/>
    </g>
    <linearGradient gradientTransform="matrix(0.0096, 0.0, 0.0, -0.0096, 10.25, 2.6)" gradientUnits="userSpaceOnUse" id="gradient1" spreadMethod="pad" x1="-819.2" x2="819.2">
      <stop offset="0.0" stop-color="#fff6e8"/>
      <stop offset="1.0" stop-color="#dec8a4"/>
    </linearGradient>
    <g id="sprite2" transform="matrix(1.0, 0.0, 0.0, 1.0, 0.0, 0.0)">
      <use height="24.7" transform="matrix(1.0, 0.0, 0.0, 1.0, 0.0, 0.0)" width="7.65" xlink:href="#shape2"/>
    </g>
    <g id="shape2" transform="matrix(1.0, 0.0, 0.0, 1.0, 0.0, 0.0)">
      <path d="M0.0 5.25 L6.05 0.0 7.65 22.65 4.15 24.7 0.0 5.25" fill="url(#gradient2)" fill-rule="evenodd" stroke="none"/>
    </g>
    <linearGradient gradientTransform="matrix(-3.0E-4, 0.0133, 0.0133, 3.0E-4, 3.85, 11.6)" gradientUnits="userSpaceOnUse" id="gradient2" spreadMethod="pad" x1="-819.2" x2="819.2">
      <stop offset="0.0" stop-color="#876533"/>
      <stop offset="1.0" stop-color="#dbbc8e"/>
    </linearGradient>
    <g id="sprite3" transform="matrix(1.0, 0.0, 0.0, 1.0, 0.0, 0.0)">
      <use height="24.0" transform="matrix(1.0, 0.0, 0.0, 1.0, 0.0, 0.0)" width="2.35" xlink:href="#shape3"/>
    </g>
    <g id="shape3" transform="matrix(1.0, 0.0, 0.0, 1.0, 0.0, 0.0)">
      <path d="M0.0 24.0 L0.7 0.0 0.75 0.0 2.35 22.6 0.0 24.0" fill="url(#gradient3)" fill-rule="evenodd" stroke="none"/>
    </g>
    <linearGradient gradientTransform="matrix(0.0038, 9.0E-4, 9.0E-4, -0.0038, 0.75, 12.05)" gradientUnits="userSpaceOnUse" id="gradient3" spreadMethod="pad" x1="-819.2" x2="819.2">
      <stop offset="0.0" stop-color="#7d5b2a"/>
      <stop offset="1.0" stop-color="#d4b68a"/>
    </linearGradient>
    <g id="sprite4" transform="matrix(1.0, 0.0, 0.0, 1.0, 0.0, 0.0)">
      <use height="3.1" transform="matrix(1.0, 0.0, 0.0, 1.0, 0.0, 0.0)" width="3.45" xlink:href="#shape4"/>
    </g>
    <g id="shape4" transform="matrix(1.0, 0.0, 0.0, 1.0, 0.0, 0.0)">
      <path d="M0.0 3.1 Q0.4 1.7 1.15 0.0 L3.45 1.05 0.0 3.1" fill="url(#gradient4)" fill-rule="evenodd" stroke="none"/>
    </g>
    <linearGradient gradientTransform="matrix(0.0024, 0.0015, 0.0015, -0.0024, 0.4, 1.25)" gradientUnits="userSpaceOnUse" id="gradient4" spreadMethod="pad" x1="-819.2" x2="819.2">
      <stop offset="0.0" stop-color="#87622d"/>
      <stop offset="1.0" stop-color="#d4b68a"/>
    </linearGradient>
    <g id="sprite5" transform="matrix(1.0, 0.0, 0.0, 1.0, 0.0, 0.0)">
      <use height="24.65" transform="matrix(1.0, 0.0, 0.0, 1.0, 0.0, 0.0)" width="20.25" xlink:href="#shape5"/>
    </g>
    <g id="shape5" transform="matrix(1.0, 0.0, 0.0, 1.0, 0.0, 0.0)">
      <path d="M18.4 24.65 L0.0 24.55 1.85 0.0 20.25 0.05 18.4 24.65" fill="url(#gradient5)" fill-rule="evenodd" stroke="none"/>
    </g>
    <linearGradient gradientTransform="matrix(0.0101, 0.012, 0.012, -0.0101, 9.55, 11.6)" gradientUnits="userSpaceOnUse" id="gradient5" spreadMethod="pad" x1="-819.2" x2="819.2">
      <stop offset="0.0" stop-color="#fff6e8"/>
      <stop offset="1.0" stop-color="#dec8a4"/>
    </linearGradient>
    <g id="sprite6" transform="matrix(1.0, 0.0, 0.0, 1.0, 0.0, 0.0)">
      <use height="2.0" transform="matrix(1.0, 0.0, 0.0, 1.0, 0.0, 0.0)" width="18.55" xlink:href="#shape6"/>
    </g>
    <g id="shape6" transform="matrix(1.0, 0.0, 0.0, 1.0, 0.0, 0.0)">
      <path d="M0.15 0.05 Q2.85 -0.05 18.55 0.2 L18.4 2.0 Q9.75 1.65 0.0 1.65 L0.15 0.05" fill="url(#gradient6)" fill-rule="evenodd" stroke="none"/>
    </g>
    <linearGradient gradientTransform="matrix(0.0097, 0.0, 0.0, -0.0097, 10.4, 1.0)" gradientUnits="userSpaceOnUse" id="gradient6" spreadMethod="pad" x1="-819.2" x2="819.2">
      <stop offset="0.0" stop-color="#ed4c3b"/>
      <stop offset="1.0" stop-color="#c2210c"/>
    </linearGradient>
    <g id="sprite7" transform="matrix(1.0, 0.0, 0.0, 1.0, 0.0, 0.05)">
      <use height="1.35" transform="matrix(1.0, 0.0, 0.0, 1.0, 0.0, -0.05)" width="18.45" xlink:href="#shape7"/>
    </g>
    <g id="shape7" transform="matrix(1.0, 0.0, 0.0, 1.0, 0.0, 0.05)">
      <path d="M18.45 0.2 L18.35 1.3 Q11.95 0.95 0.0 0.95 L0.05 0.0 Q8.7 -0.1 18.45 0.2" fill="url(#gradient7)" fill-rule="evenodd" stroke="none"/>
    </g>
    <linearGradient gradientTransform="matrix(0.0097, 0.0, 0.0, -0.0097, 10.35, 0.65)" gradientUnits="userSpaceOnUse" id="gradient7" spreadMethod="pad" x1="-819.2" x2="819.2">
      <stop offset="0.0" stop-color="#9ade3e"/>
      <stop offset="1.0" stop-color="#7ac914"/>
    </linearGradient>
    <g id="sprite8" transform="matrix(1.0, 0.0, 0.0, 1.0, 0.0, 0.0)">
      <use height="25.3" transform="matrix(0.9736, 0.0, 0.0, 0.9743, 0.0, 0.0)" width="18.95" xlink:href="#shape8"/>
    </g>
    <g id="shape8" transform="matrix(1.0, 0.0, 0.0, 1.0, 0.0, 0.0)">
      <path d="M15.3 23.95 L16.25 22.75 17.95 3.65 18.0 1.15 Q17.8 0.45 16.45 0.5 L0.0 0.3 0.05 0.0 18.95 0.05 17.1 25.3 10.6 25.3 Q13.75 25.2 15.3 23.95" fill="#ffffff" fill-rule="evenodd" stroke="none"/>
    </g>
    <g id="sprite9" transform="matrix(1.0, 0.0, 0.0, 1.0, 0.0, 0.0)">
      <use height="25.25" transform="matrix(0.978, 0.0, 0.0, 0.9743, 0.0, 0.0)" width="4.55" xlink:href="#shape9"/>
    </g>
    <g id="shape9" transform="matrix(1.0, 0.0, 0.0, 1.0, 0.0, 0.0)">
      <path d="M1.9 0.0 L2.95 0.0 2.15 12.05 1.65 22.4 2.2 23.8 Q2.9 24.85 4.55 25.25 L0.0 25.25 1.9 0.0" fill="#b57416" fill-rule="evenodd" stroke="none"/>
    </g>
    <g id="sprite10" transform="matrix(1.0, 0.0, 0.0, 1.0, 0.05, 0.0)">
      <use height="9.65" transform="matrix(1.0, 0.0, 0.0, 1.0, -0.05, 0.0)" width="12.45" xlink:href="#shape10"/>
    </g>
    <g id="shape10" transform="matrix(1.0, 0.0, 0.0, 1.0, 0.05, 0.0)">
      <path d="M9.9 0.5 Q12.25 1.35 12.4 4.2 12.55 7.1 9.95 8.75 8.15 9.85 5.75 9.6 L3.8 9.3 Q2.5 8.85 1.65 8.05 -0.5 6.0 0.1 3.4 0.65 0.85 3.15 0.2 5.15 -0.3 6.5 0.5 8.0 -0.2 9.9 0.5" fill="url(#gradient8)" fill-rule="evenodd" stroke="none"/>
    </g>
    <linearGradient gradientTransform="matrix(0.0076, 0.0, 0.0, -0.0076, 6.2, 4.85)" gradientUnits="userSpaceOnUse" id="gradient8" spreadMethod="pad" x1="-819.2" x2="819.2">
      <stop offset="0.0" stop-color="#ed2e1a"/>
      <stop offset="1.0" stop-color="#911909"/>
    </linearGradient>
    <g id="sprite11" transform="matrix(1.0, 0.0, 0.0, 1.0, 0.05, 0.0)">
      <use height="9.5" transform="matrix(1.0606, 0.0, 0.0, 1.0, -0.05, 0.0)" width="4.95" xlink:href="#shape11"/>
    </g>
    <g id="shape11" transform="matrix(1.0, 0.0, 0.0, 1.0, 0.0, 0.0)">
      <path d="M0.15 3.2 Q0.75 0.7 3.05 0.15 L4.95 0.1 4.95 0.2 Q2.7 0.45 1.55 1.8 0.65 2.85 0.7 4.6 0.75 6.45 1.8 7.7 2.7 8.8 4.0 9.5 2.4 9.1 1.4 7.95 -0.5 5.8 0.15 3.2" fill="#000000" fill-rule="evenodd" stroke="none"/>
    </g>
    <g id="sprite12" transform="matrix(1.0, 0.0, 0.0, 1.0, 0.0, 0.0)">
      <use height="9.5" transform="matrix(1.0676, 0.0, 0.0, 0.9947, 0.0, 0.0)" width="7.4" xlink:href="#shape12"/>
    </g>
    <g id="shape12" transform="matrix(1.0, 0.0, 0.0, 1.0, 0.0, 0.0)">
      <path d="M5.25 0.4 Q7.4 1.35 7.4 4.2 7.45 7.15 5.0 8.7 3.25 9.8 1.1 9.4 L0.0 9.2 0.2 9.25 Q3.05 9.8 5.35 7.85 6.75 6.65 6.8 4.5 6.9 2.65 6.05 1.6 4.95 0.3 3.25 0.3 L2.8 0.05 Q4.1 -0.15 5.25 0.4" fill="#ffffff" fill-rule="evenodd" stroke="none"/>
    </g>
    <g id="sprite13" transform="matrix(1.0, 0.0, 0.0, 1.0, 0.0, 0.0)">
      <use height="3.55" transform="matrix(1.0, 0.0, 0.0, 1.0, 0.0, 0.0)" width="7.35" xlink:href="#shape13"/>
    </g>
    <g id="shape13" transform="matrix(1.0, 0.0, 0.0, 1.0, 0.0, 0.0)">
      <path d="M5.25 1.05 L5.95 1.55 Q6.45 2.0 6.4 2.55 L5.5 2.35 4.7 1.85 4.25 1.45 3.95 2.6 3.5 3.5 3.45 3.55 3.45 3.5 3.1 2.55 3.05 1.4 1.65 2.2 0.7 2.3 Q0.75 1.75 1.3 1.35 1.9 0.9 2.45 0.8 L0.5 0.75 0.0 0.55 Q0.7 0.1 1.8 0.0 2.9 -0.05 3.7 0.55 4.7 0.05 5.65 0.2 6.75 0.35 7.35 0.9 L6.85 1.0 4.9 0.9 5.25 1.05" fill="url(#gradient9)" fill-rule="evenodd" stroke="none"/>
    </g>
    <linearGradient gradientTransform="matrix(0.0045, 0.0, 0.0, -0.0045, 3.7, 1.75)" gradientUnits="userSpaceOnUse" id="gradient9" spreadMethod="pad" x1="-819.2" x2="819.2">
      <stop offset="0.0" stop-color="#79ba21"/>
      <stop offset="1.0" stop-color="#4d800d"/>
    </linearGradient>
    <g id="sprite14" transform="matrix(1.0, 0.0, 0.0, 1.0, 0.0, 0.05)">
      <use height="3.8" transform="matrix(0.9767, 0.0, 0.0, 0.9737, 0.0, -0.0487)" width="2.15" xlink:href="#shape14"/>
    </g>
    <g id="shape14" transform="matrix(1.0, 0.0, 0.0, 1.0, 0.0, 0.05)">
      <path d="M0.05 3.65 L0.1 1.85 Q0.3 0.6 0.8 0.1 L1.75 0.2 Q2.3 0.65 2.1 1.15 1.45 1.3 1.1 1.75 0.75 2.25 0.4 3.6 L0.05 3.65" fill="url(#gradient10)" fill-rule="evenodd" stroke="none"/>
    </g>
    <linearGradient gradientTransform="matrix(0.0013, 0.0, 0.0, -0.0013, 1.1, 1.85)" gradientUnits="userSpaceOnUse" id="gradient10" spreadMethod="pad" x1="-819.2" x2="819.2">
      <stop offset="0.0" stop-color="#79ba21"/>
      <stop offset="1.0" stop-color="#4d800d"/>
    </linearGradient>
    <g id="sprite15" transform="matrix(1.0, 0.0, 0.0, 1.0, -0.05, 0.0)">
      <use height="1.2" transform="matrix(0.9259, 0.0, 0.0, 0.9583, 0.05, 0.0)" width="1.35" xlink:href="#shape15"/>
    </g>
    <g id="shape15" transform="matrix(1.0, 0.0, 0.0, 1.0, 0.0, 0.0)">
      <path d="M0.95 0.25 Q1.45 0.65 1.3 1.2 L1.2 1.2 0.35 0.8 Q0.0 0.45 0.0 0.1 L0.95 0.25" fill="#618c27" fill-rule="evenodd" stroke="none"/>
    </g>
    <g id="sprite16" transform="matrix(1.0, 0.0, 0.0, 1.0, 0.0, 0.0)">
      <use height="7.0" transform="matrix(0.9796, 0.0, 0.0, 0.9714, 0.0, 0.0)" width="2.45" xlink:href="#shape16"/>
    </g>
    <g id="shape16" transform="matrix(1.0, 0.0, 0.0, 1.0, 0.0, 0.0)">
      <path d="M1.55 0.0 L1.85 0.5 2.45 1.1 Q1.4 1.9 1.1 4.05 0.85 5.8 1.7 7.0 0.25 5.6 0.0 3.35 -0.1 1.9 0.7 0.8 L1.55 0.0" fill="#ffe2c7" fill-rule="evenodd" stroke="none"/>
    </g>
    <g id="shape17" transform="matrix(1.0, 0.0, 0.0, 1.0, 0.0, 0.0)">
      <path d="M16.65 3.25 L19.95 0.1 20.2 0.2 20.15 3.45 16.85 3.9 16.65 3.25" fill="url(#gradient11)" fill-rule="evenodd" stroke="none"/>
      <path d="M19.8 5.15 L1.8 4.85 2.05 0.0 19.95 0.1 19.8 5.15" fill="url(#gradient12)" fill-rule="evenodd" stroke="none"/>
      <path d="M14.15 6.95 L20.15 1.8 21.75 24.3 18.3 26.3 14.15 6.95" fill="url(#gradient13)" fill-rule="evenodd" stroke="none"/>
      <path d="M19.45 25.65 L20.1 1.8 20.2 1.8 21.75 24.3 19.45 25.65" fill="url(#gradient14)" fill-rule="evenodd" stroke="none"/>
      <path d="M18.3 26.3 L19.05 24.25 19.5 23.25 21.75 24.3 18.3 26.3" fill="url(#gradient15)" fill-rule="evenodd" stroke="none"/>
      <path d="M18.3 26.25 L0.0 26.2 1.85 1.75 20.1 1.8 18.3 26.25" fill="url(#gradient16)" fill-rule="evenodd" stroke="none"/>
      <path d="M1.6 4.85 Q4.25 4.75 19.9 5.0 L19.75 6.8 Q11.25 6.45 1.5 6.45 L1.6 4.85" fill="url(#gradient17)" fill-rule="evenodd" stroke="none"/>
      <path d="M1.65 3.9 Q10.25 3.8 19.95 4.1 L19.85 5.15 Q12.25 4.75 1.6 4.85 L1.65 3.9" fill="url(#gradient18)" fill-rule="evenodd" stroke="none"/>
    </g>
    <linearGradient gradientTransform="matrix(0.0019, 0.0, 0.0, -0.0019, 18.65, 2.0)" gradientUnits="userSpaceOnUse" id="gradient11" spreadMethod="pad" x1="-819.2" x2="819.2">
      <stop offset="0.0" stop-color="#fff6e8"/>
      <stop offset="1.0" stop-color="#b09a74"/>
    </linearGradient>
    <linearGradient gradientTransform="matrix(0.0096, 0.0, 0.0, -0.0096, 12.0, 2.6)" gradientUnits="userSpaceOnUse" id="gradient12" spreadMethod="pad" x1="-819.2" x2="819.2">
      <stop offset="0.0" stop-color="#fff6e8"/>
      <stop offset="1.0" stop-color="#dec8a4"/>
    </linearGradient>
    <linearGradient gradientTransform="matrix(-3.0E-4, 0.0132, 0.0132, 3.0E-4, 18.0, 13.35)" gradientUnits="userSpaceOnUse" id="gradient13" spreadMethod="pad" x1="-819.2" x2="819.2">
      <stop offset="0.0" stop-color="#876533"/>
      <stop offset="1.0" stop-color="#dbbc8e"/>
    </linearGradient>
    <linearGradient gradientTransform="matrix(0.0038, 9.0E-4, 9.0E-4, -0.0038, 20.2, 13.8)" gradientUnits="userSpaceOnUse" id="gradient14" spreadMethod="pad" x1="-819.2" x2="819.2">
      <stop offset="0.0" stop-color="#7d5b2a"/>
      <stop offset="1.0" stop-color="#d4b68a"/>
    </linearGradient>
    <linearGradient gradientTransform="matrix(0.0023, 0.0015, 0.0015, -0.0023, 18.75, 24.5)" gradientUnits="userSpaceOnUse" id="gradient15" spreadMethod="pad" x1="-819.2" x2="819.2">
      <stop offset="0.0" stop-color="#87622d"/>
      <stop offset="1.0" stop-color="#d4b68a"/>
    </linearGradient>
    <linearGradient gradientTransform="matrix(0.01, 0.0119, 0.0119, -0.01, 9.5, 13.3)" gradientUnits="userSpaceOnUse" id="gradient16" spreadMethod="pad" x1="-819.2" x2="819.2">
      <stop offset="0.0" stop-color="#fff6e8"/>
      <stop offset="1.0" stop-color="#dec8a4"/>
    </linearGradient>
    <linearGradient gradientTransform="matrix(0.0097, 0.0, 0.0, -0.0097, 11.8, 5.8)" gradientUnits="userSpaceOnUse" id="gradient17" spreadMethod="pad" x1="-819.2" x2="819.2">
      <stop offset="0.0" stop-color="#fff48f"/>
      <stop offset="1.0" stop-color="#ffda1f"/>
    </linearGradient>
    <linearGradient gradientTransform="matrix(0.0096, 0.0, 0.0, -0.0096, 11.85, 4.5)" gradientUnits="userSpaceOnUse" id="gradient18" spreadMethod="pad" x1="-819.2" x2="819.2">
      <stop offset="0.0" stop-color="#9ade3e"/>
      <stop offset="1.0" stop-color="#7ac914"/>
    </linearGradient>
    <g id="sprite17" transform="matrix(1.0, 0.0, 0.0, 1.0, 0.0, 0.0)">
      <use height="25.3" transform="matrix(0.9657, 0.0, 0.0, 0.9684, 0.0, 0.0)" width="18.95" xlink:href="#shape8"/>
    </g>
    <g id="sprite18" transform="matrix(1.0, 0.0, 0.0, 1.0, 0.0, 0.0)">
      <use height="24.4" transform="matrix(1.0, 0.0, 0.0, 1.002, 0.0, 0.0)" width="4.4" xlink:href="#shape18"/>
    </g>
    <g id="shape18" transform="matrix(1.0, 0.0, 0.0, 1.0, 0.0, 0.0)">
      <path d="M1.8 0.0 L2.8 0.0 2.05 11.65 1.55 21.6 Q1.75 22.55 2.1 23.0 2.75 24.0 4.4 24.4 L0.0 24.4 1.8 0.0" fill="#d18619" fill-rule="evenodd" stroke="none"/>
    </g>
    <g id="shape19" transform="matrix(1.0, 0.0, 0.0, 1.0, -3.5, -9.1)">
      <path d="M5.45 10.6 Q6.3 9.0 8.05 9.1 10.1 9.2 10.85 11.75 L11.25 14.1 12.4 13.05 Q13.5 12.3 14.25 12.65 15.1 13.0 14.65 13.8 14.25 14.55 12.85 15.45 10.5 16.95 12.7 20.15 13.65 21.5 12.3 21.55 10.95 21.55 10.65 20.85 10.05 19.3 9.3 18.9 L6.65 18.8 Q3.2 19.35 3.5 17.6 3.7 16.45 5.65 16.95 L8.65 17.95 5.65 13.55 Q4.65 12.15 5.45 10.6" fill="url(#gradient19)" fill-rule="evenodd" stroke="none"/>
    </g>
    <linearGradient gradientTransform="matrix(0.0035, 0.0068, 0.0068, -0.0035, 9.25, 15.9)" gradientUnits="userSpaceOnUse" id="gradient19" spreadMethod="pad" x1="-819.2" x2="819.2">
      <stop offset="0.00784313725490196" stop-color="#559107"/>
      <stop offset="1.0" stop-color="#64991c"/>
    </linearGradient>
    <g id="sprite19" transform="matrix(1.0, 0.0, 0.0, 1.0, 0.0, 0.0)">
      <use height="9.85" transform="matrix(1.0, 0.0, 0.0, 1.0, 0.0, 0.0)" width="6.05" xlink:href="#shape20"/>
    </g>
    <g id="shape20" transform="matrix(1.0, 0.0, 0.0, 1.0, 0.0, 0.0)">
      <path d="M0.05 8.5 Q0.25 7.2 3.35 8.2 L3.3 8.3 2.4 8.15 1.05 8.3 Q0.6 8.65 0.75 9.05 0.95 9.5 2.05 9.85 -0.25 9.95 0.05 8.5" fill="#000000" fill-rule="evenodd" stroke="none"/>
      <path d="M4.6 0.0 Q5.4 0.05 6.05 0.55 L4.2 0.5 Q3.3 0.75 2.85 1.45 2.2 2.6 2.55 3.9 L3.1 5.75 2.2 4.5 Q1.2 3.05 2.0 1.5 2.8 -0.05 4.6 0.0" fill="#000000" fill-rule="evenodd" stroke="none"/>
    </g>
    <g id="sprite20" transform="matrix(1.0, 0.0, 0.0, 1.0, 0.0, 0.0)">
      <use height="6.6" transform="matrix(0.9857, 0.0, 0.0, 0.9924, 0.0, 0.0)" width="3.5" xlink:href="#shape21"/>
    </g>
    <g id="shape21" transform="matrix(1.0, 0.0, 0.0, 1.0, 0.0, 0.0)">
      <path d="M2.45 0.0 L2.95 0.1 Q3.8 0.5 3.35 1.3 L1.5 2.95 Q-0.35 4.15 0.7 6.5 L0.6 6.6 0.4 6.35 Q-0.15 5.6 0.05 4.3 0.25 3.05 1.4 2.2 L2.8 1.05 Q3.15 0.45 2.45 0.0" fill="#ffffff" fill-rule="evenodd" stroke="none"/>
    </g>
    <g id="shape22" transform="matrix(1.0, 0.0, 0.0, 1.0, -3.5, -9.85)">
      <path d="M13.1 10.75 Q13.75 12.2 12.95 13.6 11.75 15.7 11.65 16.15 L11.45 17.55 Q11.45 17.95 12.25 18.65 13.5 19.8 14.05 21.3 14.7 23.15 12.95 23.6 11.15 24.05 10.6 22.45 10.2 20.35 9.7 19.4 9.35 18.75 7.75 18.2 5.8 17.6 4.7 16.5 3.45 15.25 3.5 14.05 3.55 12.95 4.75 12.2 5.9 11.5 6.85 11.95 7.75 12.35 8.75 13.9 L9.8 16.2 12.6 21.8 Q11.1 18.6 10.1 15.85 8.9 12.65 9.1 11.5 9.35 10.1 11.0 9.9 12.6 9.7 13.1 10.75" fill="url(#gradient20)" fill-rule="evenodd" stroke="none"/>
    </g>
    <linearGradient gradientTransform="matrix(0.0036, 0.007, 0.007, -0.0036, 10.65, 17.25)" gradientUnits="userSpaceOnUse" id="gradient20" spreadMethod="pad" x1="-819.2" x2="819.2">
      <stop offset="0.0" stop-color="#62a808"/>
      <stop offset="0.48627450980392156" stop-color="#90d831"/>
      <stop offset="1.0" stop-color="#f3ffad"/>
    </linearGradient>
    <g id="sprite21" transform="matrix(1.0, 0.0, 0.0, 1.0, 0.0, 0.0)">
      <use height="11.9" transform="matrix(1.0, 0.0, 0.0, 1.0042, 0.0, 0.0)" width="9.45" xlink:href="#shape23"/>
    </g>
    <g id="shape23" transform="matrix(1.0, 0.0, 0.0, 1.0, 0.0, 0.0)">
      <path d="M1.35 4.3 Q2.25 5.4 4.0 6.0 L6.3 6.9 Q6.9 7.25 7.0 8.2 7.45 11.4 9.45 11.8 7.65 12.25 7.1 10.65 L6.25 7.6 Q5.9 6.95 4.25 6.4 2.3 5.8 1.2 4.7 -0.05 3.45 0.0 2.3 0.05 1.15 1.25 0.4 2.3 -0.2 3.1 0.1 1.2 0.25 0.8 1.75 0.4 3.1 1.35 4.3" fill="#000000" fill-rule="evenodd" stroke="none"/>
    </g>
    <g id="shape24" transform="matrix(1.0, 0.0, 0.0, 1.0, -5.05, -14.25)">
      <path d="M9.55 18.75 L7.25 17.35 Q6.1 16.55 5.45 15.35 L5.05 14.25 6.2 15.7 Q7.7 17.35 9.45 18.15 10.55 18.7 10.95 19.65 L11.5 21.75 Q11.9 22.95 13.4 23.45 L12.95 23.6 12.8 23.6 Q11.15 23.2 10.65 20.3 10.5 19.35 9.55 18.75" fill="url(#gradient21)" fill-rule="evenodd" stroke="none"/>
    </g>
    <linearGradient gradientTransform="matrix(0.0031, 0.006, 0.006, -0.0031, 9.25, 19.05)" gradientUnits="userSpaceOnUse" id="gradient21" spreadMethod="pad" x1="-819.2" x2="819.2">
      <stop offset="0.00784313725490196" stop-color="#93c900"/>
      <stop offset="1.0" stop-color="#b9f56c"/>
    </linearGradient>
    <g id="sprite22" transform="matrix(1.0, 0.0, 0.0, 1.0, 0.0, 0.0)">
      <use height="13.45" transform="matrix(1.0156, 0.0, 0.0, 1.0, 8.0E-4, 0.0)" width="3.2" xlink:href="#shape25"/>
    </g>
    <g id="shape25" transform="matrix(1.0, 0.0, 0.0, 1.0, -0.05, 0.0)">
      <path d="M2.15 0.8 Q2.8 2.25 2.0 3.7 0.8 5.75 0.7 6.25 L0.5 7.65 Q0.5 8.0 1.3 8.75 2.4 9.75 2.95 11.1 3.7 12.8 2.6 13.45 L2.7 13.2 Q3.4 11.65 0.55 8.65 -0.45 7.6 0.5 5.3 L1.25 3.85 1.8 2.0 Q1.95 0.7 0.75 0.0 1.75 0.1 2.15 0.8" fill="#ffffff" fill-rule="evenodd" stroke="none"/>
    </g>
    <g id="sprite23" transform="matrix(1.0, 0.0, 0.0, 1.0, 0.0, 0.0)">
      <use height="5.25" transform="matrix(1.0, 0.0, 0.0, 1.0095, 0.0, 0.0)" width="3.0" xlink:href="#shape26"/>
    </g>
    <g id="shape26" transform="matrix(1.0, 0.0, 0.0, 1.0, 0.0, 0.0)">
      <path d="M0.1 1.1 Q0.3 0.4 0.8 0.0 L1.35 0.15 1.75 0.25 Q1.05 0.9 1.2 2.4 1.45 4.35 3.0 5.25 1.4 4.65 0.6 3.55 -0.25 2.35 0.1 1.1" fill="#ffffff" fill-rule="evenodd" stroke="none"/>
    </g>
  </defs>
</svg>
