<?xml version="1.0" encoding="UTF-8" standalone="no"?>
<svg xmlns:xlink="http://www.w3.org/1999/xlink" height="73.0px" width="69.2px" xmlns="http://www.w3.org/2000/svg">
  <g transform="matrix(1.0, 0.0, 0.0, 1.0, 0.0, 0.0)">
    <use height="20.55" transform="matrix(1.0, 0.0, 0.0, 1.0, 26.8, 43.6)" width="32.0" xlink:href="#shape0"/>
    <use height="1.6" transform="matrix(1.0, 0.0, 0.0, 1.0, 30.5, 61.25)" width="2.55" xlink:href="#sprite0"/>
    <use height="6.0" transform="matrix(1.0, 0.0, 0.0, 1.0, 20.45, 57.7)" width="7.1" xlink:href="#shape2"/>
    <use height="1.65" transform="matrix(1.0, 0.0, 0.0, 1.0, 24.15, 61.6)" width="2.55" xlink:href="#sprite1"/>
    <use height="6.0" transform="matrix(1.0, 0.0, 0.0, 1.0, 29.9, 52.55)" width="7.1" xlink:href="#shape3"/>
    <use height="1.6" transform="matrix(1.0, 0.0, 0.0, 1.0, 33.55, 56.5)" width="2.55" xlink:href="#sprite2"/>
    <use height="6.05" transform="matrix(1.0, 0.0, 0.0, 1.0, 20.9, 66.85)" width="7.1" xlink:href="#shape4"/>
    <use height="1.6" transform="matrix(1.0, 0.0, 0.0, 1.0, 24.6, 70.85)" width="2.55" xlink:href="#sprite3"/>
    <use height="6.0" transform="matrix(1.0, 0.0, 0.0, 1.0, 14.35, 61.35)" width="7.1" xlink:href="#shape5"/>
    <use height="1.65" transform="matrix(1.0, 0.0, 0.0, 1.0, 18.1, 65.25)" width="2.55" xlink:href="#sprite4"/>
    <use height="6.1" transform="matrix(1.0, 0.0, 0.0, 1.0, 15.45, 64.85)" width="7.1" xlink:href="#shape6"/>
    <use height="2.05" transform="matrix(1.0, 0.0, 0.0, 1.0, 19.6, 68.3)" width="2.25" xlink:href="#sprite5"/>
    <use height="5.95" transform="matrix(1.0, 0.0, 0.0, 1.0, 10.2, 65.8)" width="7.05" xlink:href="#shape7"/>
    <use height="1.7" transform="matrix(1.0, 0.0, 0.0, 1.0, 13.95, 69.6)" width="2.55" xlink:href="#sprite6"/>
    <use height="6.0" transform="matrix(1.0, 0.0, 0.0, 1.0, 28.2, 64.45)" width="7.1" xlink:href="#shape8"/>
    <use height="1.6" transform="matrix(1.0, 0.0, 0.0, 1.0, 31.85, 68.45)" width="2.55" xlink:href="#sprite7"/>
    <use height="6.1" transform="matrix(1.0, 0.0, 0.0, 1.0, 41.75, 54.0)" width="7.1" xlink:href="#shape9"/>
    <use height="2.1" transform="matrix(1.0, 0.0, 0.0, 1.0, 45.95, 57.4)" width="2.15" xlink:href="#sprite8"/>
    <use height="5.95" transform="matrix(1.0, 0.0, 0.0, 1.0, 37.8, 50.15)" width="7.1" xlink:href="#shape10"/>
    <use height="1.3" transform="matrix(1.0, 0.0, 0.0, 1.0, 41.15, 54.5)" width="2.65" xlink:href="#sprite9"/>
    <use height="6.2" transform="matrix(1.0, 0.0, 0.0, 1.0, 42.9, 58.55)" width="7.0" xlink:href="#shape12"/>
    <use height="2.25" transform="matrix(1.0, 0.0, 0.0, 1.0, 47.4, 61.7)" width="1.85" xlink:href="#sprite10"/>
    <use height="6.05" transform="matrix(1.0, 0.0, 0.0, 1.0, 43.0, 63.0)" width="7.15" xlink:href="#shape13"/>
    <use height="1.8" transform="matrix(1.0, 0.0, 0.0, 1.0, 47.0, 66.7)" width="2.35" xlink:href="#sprite11"/>
    <use height="6.15" transform="matrix(1.0, 0.0, 0.0, 1.0, 38.25, 62.85)" width="7.05" xlink:href="#shape14"/>
    <use height="2.25" transform="matrix(1.0, 0.0, 0.0, 1.0, 42.65, 66.05)" width="2.0" xlink:href="#sprite12"/>
    <use height="6.85" transform="matrix(1.0, 0.0, 0.0, 1.0, 33.3, 65.75)" width="7.45" xlink:href="#shape15"/>
    <use height="2.25" transform="matrix(1.0, 0.0, 0.0, 1.0, 37.8, 69.45)" width="2.2" xlink:href="#sprite13"/>
    <use height="6.7" transform="matrix(1.0, 0.0, 0.0, 1.0, 29.5, 57.1)" width="7.5" xlink:href="#shape16"/>
    <use height="2.0" transform="matrix(1.0, 0.0, 0.0, 1.0, 33.75, 61.05)" width="2.45" xlink:href="#sprite14"/>
    <use height="6.55" transform="matrix(1.0, 0.0, 0.0, 1.0, 38.7, 55.1)" width="7.5" xlink:href="#shape17"/>
    <use height="1.65" transform="matrix(1.0, 0.0, 0.0, 1.0, 42.55, 59.35)" width="2.7" xlink:href="#sprite15"/>
    <use height="6.55" transform="matrix(1.0, 0.0, 0.0, 1.0, 36.4, 59.45)" width="7.5" xlink:href="#shape18"/>
    <use height="1.65" transform="matrix(1.0, 0.0, 0.0, 1.0, 40.3, 63.7)" width="2.7" xlink:href="#sprite16"/>
    <use height="6.55" transform="matrix(1.0, 0.0, 0.0, 1.0, 34.15, 54.55)" width="7.5" xlink:href="#shape19"/>
    <use height="1.65" transform="matrix(1.0, 0.0, 0.0, 1.0, 38.0, 58.8)" width="2.7" xlink:href="#sprite17"/>
    <use height="6.55" transform="matrix(1.0, 0.0, 0.0, 1.0, 30.95, 62.0)" width="7.5" xlink:href="#shape19"/>
    <use height="1.65" transform="matrix(1.0, 0.0, 0.0, 1.0, 34.85, 66.25)" width="2.65" xlink:href="#sprite18"/>
    <use height="6.85" transform="matrix(1.0, 0.0, 0.0, 1.0, 24.8, 62.4)" width="7.45" xlink:href="#shape20"/>
    <use height="2.3" transform="matrix(1.0, 0.0, 0.0, 1.0, 29.3, 66.05)" width="2.2" xlink:href="#sprite19"/>
    <use height="6.85" transform="matrix(1.0, 0.0, 0.0, 1.0, 23.9, 57.6)" width="7.45" xlink:href="#shape21"/>
    <use height="2.3" transform="matrix(1.0, 0.0, 0.0, 1.0, 28.4, 61.25)" width="2.2" xlink:href="#sprite20"/>
    <use height="6.85" transform="matrix(1.0, 0.0, 0.0, 1.0, 18.9, 61.15)" width="7.45" xlink:href="#shape21"/>
    <use height="2.3" transform="matrix(1.0, 0.0, 0.0, 1.0, 23.4, 64.8)" width="2.2" xlink:href="#sprite21"/>
  </g>
  <defs>
    <g id="shape0" transform="matrix(1.0, 0.0, 0.0, 1.0, -26.8, -43.6)">
      <path d="M58.6 54.95 L55.9 57.75 Q54.95 58.8 52.65 60.05 50.2 61.45 49.7 61.9 L48.25 63.5 47.8 64.15 47.8 61.8 51.2 60.05 53.5 58.2 51.0 57.5 50.35 57.45 Q49.1 58.6 47.6 59.0 L46.15 59.4 46.0 58.4 46.95 58.3 Q48.45 57.85 49.35 57.15 48.3 57.2 47.25 56.65 L45.85 55.55 45.15 54.9 46.6 55.55 Q48.3 56.25 49.55 56.35 L52.9 57.1 54.2 57.45 54.8 57.0 56.15 55.5 57.2 53.65 57.5 53.65 Q57.95 53.7 58.4 54.1 59.1 54.7 58.6 54.95" fill="#b9ba4e" fill-rule="evenodd" stroke="none"/>
      <path d="M49.2 57.15 Q48.15 57.15 47.25 56.65 L46.95 56.45 47.95 56.0 48.65 56.2 49.0 56.85 49.45 57.0 49.2 57.15" fill="#999640" fill-rule="evenodd" stroke="none"/>
      <path d="M58.4 54.1 Q59.1 54.7 58.6 54.95 L55.9 57.75 Q54.95 58.8 52.65 60.05 50.2 61.45 49.7 61.9 L48.25 63.5 47.8 64.15 47.8 61.8 49.8 60.8 Q50.5 60.95 50.2 61.15 L52.2 59.9 Q54.1 59.05 55.5 57.65 L56.95 56.35 58.1 54.85 58.2 53.95 58.4 54.1" fill="#999640" fill-rule="evenodd" stroke="none"/>
      <path d="M52.4 57.6 L53.65 58.05 53.45 58.2 51.0 57.5 50.35 57.45 Q49.1 58.6 47.6 59.0 L46.15 59.4 46.0 58.35 46.95 58.3 47.7 58.0 47.7 58.5 48.2 58.3 49.15 57.75 50.05 57.1 52.4 57.6" fill="#999640" fill-rule="evenodd" stroke="none"/>
      <path d="M54.05 58.25 L52.8 59.4 49.9 61.2 49.8 60.8 52.25 59.55 54.05 58.25" fill="#999640" fill-rule="evenodd" stroke="none"/>
      <path d="M57.75 54.35 L56.9 55.75 55.1 57.55 Q54.6 57.9 55.4 56.9 L57.2 54.3 Q57.75 53.75 57.75 54.35" fill="#e0dd77" fill-rule="evenodd" stroke="none"/>
      <path d="M51.4 57.15 L49.7 56.65 50.55 56.7 52.3 57.15 Q53.95 57.45 53.4 57.55 L51.4 57.15" fill="#e0dd77" fill-rule="evenodd" stroke="none"/>
      <path d="M47.1 48.6 L46.85 49.2 46.55 50.55 Q46.5 51.65 47.05 52.65 L47.65 51.75 47.65 52.4 Q47.75 53.25 48.3 53.95 49.15 55.15 49.1 56.2 L49.1 56.4 47.15 57.6 44.25 57.45 Q43.55 57.2 43.0 56.1 42.55 55.1 42.5 54.25 42.35 51.3 41.3 49.7 40.6 48.55 40.9 47.8 L41.05 47.55 41.25 48.0 Q41.5 48.5 42.25 48.75 L41.6 47.7 Q41.35 47.25 41.35 46.3 L41.4 45.4 41.4 45.8 Q41.4 46.2 42.45 47.05 L42.3 46.05 Q42.1 45.25 40.55 43.6 L41.15 43.75 42.6 44.45 Q43.8 45.2 43.85 46.25 L43.95 46.0 44.05 44.55 Q44.8 46.3 44.6 47.9 44.45 49.5 45.45 50.85 L45.7 50.3 46.5 49.25 47.1 48.6" fill="#81b848" fill-rule="evenodd" stroke="none"/>
      <path d="M47.1 48.6 L46.85 49.2 46.55 50.55 Q46.5 51.65 47.05 52.65 L47.05 53.45 Q47.1 53.85 47.45 53.9 L47.9 54.05 Q47.45 53.45 47.65 52.4 47.75 53.3 48.3 53.95 49.15 55.15 49.1 56.2 L49.1 56.4 47.15 57.6 44.25 57.45 Q43.55 57.2 43.0 56.1 42.55 55.1 42.5 54.25 42.35 51.3 41.3 49.7 40.8 48.9 40.8 48.35 L41.6 49.35 Q42.25 49.9 42.85 50.05 42.7 49.9 42.9 48.95 L43.2 47.1 43.25 48.15 Q43.4 49.35 43.75 49.95 L44.4 50.9 Q44.9 50.75 44.95 50.4 L45.0 50.05 45.1 50.3 45.45 50.85 45.8 51.25 46.1 50.55 Q46.4 49.55 47.1 48.6" fill="#6c993c" fill-rule="evenodd" stroke="none"/>
      <path d="M43.55 46.05 L42.8 45.2 41.85 44.35 42.2 44.45 42.85 44.85 43.55 46.05" fill="#a2e65a" fill-rule="evenodd" stroke="none"/>
      <path d="M44.5 49.9 L44.7 50.4 44.45 50.4 44.15 49.45 44.0 47.85 Q44.0 47.0 44.3 46.15 L44.25 47.65 Q44.2 48.65 44.5 49.9" fill="#a2e65a" fill-rule="evenodd" stroke="none"/>
      <path d="M33.9 60.15 Q33.95 61.4 32.95 62.3 31.9 63.25 30.45 63.3 29.0 63.35 27.9 62.5 26.85 61.65 26.8 60.4 26.75 59.15 27.75 58.25 28.75 57.35 30.25 57.25 31.7 57.2 32.8 58.05 33.85 58.9 33.9 60.15" fill="url(#gradient0)" fill-rule="evenodd" stroke="none"/>
      <path d="M30.25 57.75 Q31.9 57.95 30.45 58.8 28.9 59.65 28.45 59.15 28.05 58.75 28.75 58.2 29.5 57.65 30.25 57.75" fill="#ad5d80" fill-rule="evenodd" stroke="none"/>
    </g>
    <radialGradient cx="0" cy="0" gradientTransform="matrix(0.004, 0.0, 0.0, -0.004, 30.35, 60.25)" gradientUnits="userSpaceOnUse" id="gradient0" r="819.2" spreadMethod="pad">
      <stop offset="0.0" stop-color="#701420"/>
      <stop offset="1.0" stop-color="#3d0d16"/>
    </radialGradient>
    <g id="sprite0" transform="matrix(1.0, 0.0, 0.0, 1.0, -0.1, 0.25)">
      <use height="2.25" transform="matrix(1.1591, 0.0, 0.0, 0.7111, 0.1159, -0.2633)" width="2.2" xlink:href="#shape1"/>
    </g>
    <g id="shape1" transform="matrix(1.0, 0.0, 0.0, 1.0, -0.1, 0.3)">
      <path d="M2.05 0.5 Q1.6 1.65 0.4 1.9 -0.15 2.05 0.25 1.75 L1.6 0.4 Q2.7 -1.05 2.05 0.5" fill="#ffffff" fill-rule="evenodd" stroke="none"/>
    </g>
    <g id="shape2" transform="matrix(1.0, 0.0, 0.0, 1.0, -20.45, -57.7)">
      <path d="M27.55 60.55 Q27.6 61.8 26.6 62.7 25.55 63.65 24.1 63.7 22.65 63.75 21.55 62.9 20.5 62.05 20.45 60.8 20.4 59.55 21.4 58.65 22.4 57.75 23.9 57.7 25.35 57.65 26.45 58.45 27.5 59.3 27.55 60.55" fill="url(#gradient1)" fill-rule="evenodd" stroke="none"/>
      <path d="M23.9 58.15 Q25.55 58.4 24.1 59.25 22.55 60.1 22.1 59.6 21.7 59.15 22.4 58.6 23.15 58.05 23.9 58.15" fill="#ad5d80" fill-rule="evenodd" stroke="none"/>
    </g>
    <radialGradient cx="0" cy="0" gradientTransform="matrix(9.0E-4, 0.005, 0.005, -9.0E-4, 24.0, 59.05)" gradientUnits="userSpaceOnUse" id="gradient1" r="819.2" spreadMethod="pad">
      <stop offset="0.0" stop-color="#701420"/>
      <stop offset="1.0" stop-color="#3d0d16"/>
    </radialGradient>
    <g id="sprite1" transform="matrix(1.0, 0.0, 0.0, 1.0, -0.1, 0.3)">
      <use height="2.25" transform="matrix(1.1591, 0.0, 0.0, 0.7333, 0.1159, -0.32)" width="2.2" xlink:href="#shape1"/>
    </g>
    <g id="shape3" transform="matrix(1.0, 0.0, 0.0, 1.0, -29.9, -52.55)">
      <path d="M37.0 55.4 Q37.05 56.65 36.05 57.55 35.0 58.5 33.55 58.55 32.1 58.6 31.0 57.75 29.95 56.95 29.9 55.7 29.85 54.45 30.85 53.5 31.85 52.6 33.3 52.55 34.8 52.5 35.85 53.3 36.95 54.15 37.0 55.4" fill="url(#gradient2)" fill-rule="evenodd" stroke="none"/>
      <path d="M33.3 53.05 Q35.0 53.25 33.55 54.1 31.95 54.95 31.5 54.45 31.15 54.0 31.85 53.45 32.55 52.95 33.3 53.05" fill="#ad5d80" fill-rule="evenodd" stroke="none"/>
    </g>
    <radialGradient cx="0" cy="0" gradientTransform="matrix(9.0E-4, 0.005, 0.005, -9.0E-4, 33.45, 53.95)" gradientUnits="userSpaceOnUse" id="gradient2" r="819.2" spreadMethod="pad">
      <stop offset="0.0" stop-color="#701420"/>
      <stop offset="1.0" stop-color="#3d0d16"/>
    </radialGradient>
    <g id="sprite2" transform="matrix(1.0, 0.0, 0.0, 1.0, -0.05, 0.25)">
      <use height="2.25" transform="matrix(1.1591, 0.0, 0.0, 0.7111, 0.0659, -0.2633)" width="2.2" xlink:href="#shape1"/>
    </g>
    <g id="shape4" transform="matrix(1.0, 0.0, 0.0, 1.0, -20.9, -66.85)">
      <path d="M28.0 69.75 Q28.05 71.0 27.05 71.9 26.05 72.85 24.55 72.9 23.1 72.95 22.0 72.1 20.95 71.25 20.9 70.0 20.85 68.75 21.85 67.85 22.85 66.95 24.35 66.85 25.8 66.8 26.9 67.65 27.95 68.5 28.0 69.75" fill="url(#gradient3)" fill-rule="evenodd" stroke="none"/>
      <path d="M24.35 67.35 Q26.05 67.55 24.6 68.4 23.0 69.25 22.55 68.75 22.15 68.35 22.85 67.8 23.6 67.25 24.35 67.35" fill="#ad5d80" fill-rule="evenodd" stroke="none"/>
    </g>
    <radialGradient cx="0" cy="0" gradientTransform="matrix(9.0E-4, 0.005, 0.005, -9.0E-4, 24.45, 68.25)" gradientUnits="userSpaceOnUse" id="gradient3" r="819.2" spreadMethod="pad">
      <stop offset="0.0" stop-color="#701420"/>
      <stop offset="1.0" stop-color="#3d0d16"/>
    </radialGradient>
    <g id="sprite3" transform="matrix(1.0, 0.0, 0.0, 1.0, -0.1, 0.25)">
      <use height="2.25" transform="matrix(1.1591, 0.0, 0.0, 0.7111, 0.1159, -0.2633)" width="2.2" xlink:href="#shape1"/>
    </g>
    <g id="shape5" transform="matrix(1.0, 0.0, 0.0, 1.0, -14.35, -61.35)">
      <path d="M21.45 64.15 Q21.55 65.4 20.55 66.35 19.55 67.3 18.1 67.35 16.6 67.45 15.55 66.65 14.45 65.8 14.35 64.55 14.3 63.3 15.25 62.35 16.25 61.45 17.75 61.35 19.2 61.3 20.3 62.1 21.4 62.9 21.45 64.15" fill="url(#gradient4)" fill-rule="evenodd" stroke="none"/>
      <path d="M17.75 61.85 Q19.45 62.05 18.0 62.9 16.45 63.8 15.95 63.3 15.55 62.85 16.25 62.3 17.0 61.75 17.75 61.85" fill="#ad5d80" fill-rule="evenodd" stroke="none"/>
    </g>
    <radialGradient cx="0" cy="0" gradientTransform="matrix(0.001, 0.005, 0.005, -0.001, 17.85, 62.75)" gradientUnits="userSpaceOnUse" id="gradient4" r="819.2" spreadMethod="pad">
      <stop offset="0.0" stop-color="#701420"/>
      <stop offset="1.0" stop-color="#3d0d16"/>
    </radialGradient>
    <g id="sprite4" transform="matrix(1.0, 0.0, 0.0, 1.0, -0.05, 0.25)">
      <use height="2.25" transform="matrix(1.1591, 0.0, 0.0, 0.7333, 0.0659, -0.27)" width="2.2" xlink:href="#shape1"/>
    </g>
    <g id="shape6" transform="matrix(1.0, 0.0, 0.0, 1.0, -15.45, -64.85)">
      <path d="M22.45 67.1 Q22.75 68.3 21.95 69.4 21.15 70.5 19.7 70.85 18.25 71.15 17.05 70.55 15.8 69.9 15.55 68.7 15.25 67.5 16.05 66.4 16.9 65.3 18.35 64.95 19.8 64.65 21.0 65.3 22.2 65.9 22.45 67.1" fill="url(#gradient5)" fill-rule="evenodd" stroke="none"/>
      <path d="M18.4 65.45 Q20.1 65.35 18.85 66.45 17.45 67.6 16.9 67.2 16.45 66.85 17.05 66.15 17.65 65.5 18.4 65.45" fill="#ad5d80" fill-rule="evenodd" stroke="none"/>
    </g>
    <radialGradient cx="0" cy="0" gradientTransform="matrix(0.0018, 0.0048, 0.0048, -0.0018, 18.7, 66.3)" gradientUnits="userSpaceOnUse" id="gradient5" r="819.2" spreadMethod="pad">
      <stop offset="0.0" stop-color="#701420"/>
      <stop offset="1.0" stop-color="#3d0d16"/>
    </radialGradient>
    <g id="sprite5" transform="matrix(1.0, 0.0, 0.0, 1.0, -0.05, 0.35)">
      <use height="2.25" transform="matrix(1.0227, 0.0, 0.0, 0.9111, 0.0523, -0.3733)" width="2.2" xlink:href="#shape1"/>
    </g>
    <g id="shape7" transform="matrix(1.0, 0.0, 0.0, 1.0, -10.2, -65.8)">
      <path d="M17.25 68.5 Q17.35 69.75 16.4 70.7 15.45 71.65 13.95 71.75 12.5 71.9 11.4 71.1 10.3 70.3 10.2 69.05 10.1 67.8 11.05 66.85 12.05 65.9 13.5 65.8 14.95 65.65 16.05 66.45 17.2 67.25 17.25 68.5" fill="url(#gradient6)" fill-rule="evenodd" stroke="none"/>
      <path d="M13.5 66.25 Q15.2 66.4 13.75 67.3 12.25 68.25 11.75 67.75 11.35 67.35 12.05 66.8 12.75 66.2 13.5 66.25" fill="#ad5d80" fill-rule="evenodd" stroke="none"/>
    </g>
    <radialGradient cx="0" cy="0" gradientTransform="matrix(0.0011, 0.005, 0.005, -0.0011, 13.65, 67.15)" gradientUnits="userSpaceOnUse" id="gradient6" r="819.2" spreadMethod="pad">
      <stop offset="0.0" stop-color="#701420"/>
      <stop offset="1.0" stop-color="#3d0d16"/>
    </radialGradient>
    <g id="sprite6" transform="matrix(1.0, 0.0, 0.0, 1.0, -0.05, 0.3)">
      <use height="2.25" transform="matrix(1.1591, 0.0, 0.0, 0.7556, 0.0659, -0.2767)" width="2.2" xlink:href="#shape1"/>
    </g>
    <g id="shape8" transform="matrix(1.0, 0.0, 0.0, 1.0, -28.2, -64.45)">
      <path d="M35.3 67.35 Q35.35 68.6 34.35 69.5 33.3 70.4 31.85 70.45 30.4 70.55 29.3 69.7 28.25 68.85 28.2 67.6 28.15 66.35 29.15 65.45 30.15 64.55 31.6 64.45 33.1 64.4 34.2 65.25 35.25 66.1 35.3 67.35" fill="url(#gradient7)" fill-rule="evenodd" stroke="none"/>
      <path d="M31.6 64.95 Q33.3 65.15 31.85 66.0 30.25 66.85 29.8 66.35 29.45 65.9 30.15 65.4 30.85 64.85 31.6 64.95" fill="#ffffff" fill-rule="evenodd" stroke="none"/>
    </g>
    <radialGradient cx="0" cy="0" gradientTransform="matrix(9.0E-4, 0.005, 0.005, -9.0E-4, 31.75, 65.85)" gradientUnits="userSpaceOnUse" id="gradient7" r="819.2" spreadMethod="pad">
      <stop offset="0.0" stop-color="#701420"/>
      <stop offset="1.0" stop-color="#3d0d16"/>
    </radialGradient>
    <g id="sprite7" transform="matrix(1.0, 0.0, 0.0, 1.0, -0.05, 0.25)">
      <use height="2.25" transform="matrix(1.1591, 0.0, 0.0, 0.7111, 0.0659, -0.2633)" width="2.2" xlink:href="#shape1"/>
    </g>
    <g id="shape9" transform="matrix(1.0, 0.0, 0.0, 1.0, -41.75, -54.0)">
      <path d="M48.75 56.2 Q49.05 57.4 48.25 58.5 47.45 59.6 46.0 59.95 L43.35 59.7 Q42.15 59.1 41.85 57.9 41.55 56.7 42.35 55.6 43.15 54.5 44.55 54.15 46.0 53.8 47.25 54.4 48.45 55.0 48.75 56.2" fill="url(#gradient8)" fill-rule="evenodd" stroke="none"/>
      <path d="M44.7 54.6 Q46.4 54.45 45.1 55.6 43.75 56.8 43.2 56.35 42.75 56.0 43.35 55.35 43.95 54.7 44.7 54.6" fill="#ad5d80" fill-rule="evenodd" stroke="none"/>
    </g>
    <radialGradient cx="0" cy="0" gradientTransform="matrix(0.0019, 0.0047, 0.0047, -0.0019, 44.95, 55.45)" gradientUnits="userSpaceOnUse" id="gradient8" r="819.2" spreadMethod="pad">
      <stop offset="0.0" stop-color="#701420"/>
      <stop offset="1.0" stop-color="#3d0d16"/>
    </radialGradient>
    <g id="sprite8" transform="matrix(1.0, 0.0, 0.0, 1.0, -0.1, 0.35)">
      <use height="2.25" transform="matrix(0.9773, 0.0, 0.0, 0.9333, 0.0977, -0.33)" width="2.2" xlink:href="#shape1"/>
    </g>
    <g id="shape10" transform="matrix(1.0, 0.0, 0.0, 1.0, -37.8, -50.15)">
      <path d="M44.9 53.5 Q44.75 54.75 43.65 55.5 42.5 56.25 41.05 56.1 39.6 55.95 38.65 54.95 37.7 54.0 37.8 52.75 37.95 51.5 39.05 50.75 40.2 50.0 41.65 50.15 43.1 50.3 44.05 51.3 45.0 52.25 44.9 53.5" fill="url(#gradient9)" fill-rule="evenodd" stroke="none"/>
      <path d="M41.6 50.65 Q43.25 51.05 41.65 51.7 L39.6 51.8 Q39.25 51.3 40.1 50.85 L41.6 50.65" fill="#ad5d80" fill-rule="evenodd" stroke="none"/>
    </g>
    <radialGradient cx="0" cy="0" gradientTransform="matrix(2.0E-4, 0.0051, 0.0051, -2.0E-4, 41.55, 51.55)" gradientUnits="userSpaceOnUse" id="gradient9" r="819.2" spreadMethod="pad">
      <stop offset="0.0" stop-color="#701420"/>
      <stop offset="1.0" stop-color="#3d0d16"/>
    </radialGradient>
    <g id="sprite9" transform="matrix(1.0, 0.0, 0.0, 1.0, -0.1, 0.15)">
      <use height="1.3" transform="matrix(0.9815, 0.0, 0.0, 1.0, 0.0981, -0.15)" width="2.7" xlink:href="#shape11"/>
    </g>
    <g id="shape11" transform="matrix(1.0, 0.0, 0.0, 1.0, -0.1, 0.2)">
      <path d="M2.3 0.45 Q1.5 1.3 0.35 1.05 -0.15 0.95 0.3 0.85 L1.95 0.2 Q3.45 -0.75 2.3 0.45" fill="#ffffff" fill-rule="evenodd" stroke="none"/>
    </g>
    <g id="shape12" transform="matrix(1.0, 0.0, 0.0, 1.0, -42.9, -58.55)">
      <path d="M49.7 60.3 Q50.15 61.45 49.5 62.7 48.9 63.9 47.5 64.45 L44.85 64.55 Q43.55 64.1 43.1 62.95 42.65 61.8 43.3 60.6 43.9 59.4 45.3 58.85 L47.95 58.75 Q49.25 59.15 49.7 60.3" fill="url(#gradient10)" fill-rule="evenodd" stroke="none"/>
    </g>
    <radialGradient cx="0" cy="0" gradientTransform="matrix(0.0025, 0.0044, 0.0044, -0.0025, 45.85, 60.1)" gradientUnits="userSpaceOnUse" id="gradient10" r="819.2" spreadMethod="pad">
      <stop offset="0.0" stop-color="#701420"/>
      <stop offset="1.0" stop-color="#3d0d16"/>
    </radialGradient>
    <g id="sprite10" transform="matrix(1.0, 0.0, 0.0, 1.0, -0.1, 0.3)">
      <use height="2.25" transform="matrix(0.8409, 0.0, 0.0, 1.0, 0.0841, -0.3)" width="2.2" xlink:href="#shape1"/>
    </g>
    <g id="shape13" transform="matrix(1.0, 0.0, 0.0, 1.0, -43.0, -63.0)">
      <path d="M50.1 65.45 Q50.3 66.7 49.4 67.75 48.5 68.8 47.05 69.0 45.6 69.25 44.4 68.5 43.25 67.8 43.05 66.55 42.85 65.35 43.75 64.3 44.65 63.3 46.1 63.05 47.55 62.85 48.75 63.55 49.9 64.25 50.1 65.45" fill="url(#gradient11)" fill-rule="evenodd" stroke="none"/>
      <path d="M46.15 63.55 Q47.9 63.55 46.5 64.55 45.05 65.6 44.55 65.15 44.1 64.75 44.75 64.15 45.4 63.55 46.15 63.55" fill="#ad5d80" fill-rule="evenodd" stroke="none"/>
    </g>
    <radialGradient cx="0" cy="0" gradientTransform="matrix(0.0033, 0.004, 0.004, -0.0033, 45.85, 64.45)" gradientUnits="userSpaceOnUse" id="gradient11" r="819.2" spreadMethod="pad">
      <stop offset="0.0" stop-color="#701420"/>
      <stop offset="1.0" stop-color="#3d0d16"/>
    </radialGradient>
    <g id="sprite11" transform="matrix(1.0, 0.0, 0.0, 1.0, -0.1, 0.25)">
      <use height="2.25" transform="matrix(1.0682, 0.0, 0.0, 0.8, 0.1068, -0.24)" width="2.2" xlink:href="#shape1"/>
    </g>
    <g id="shape14" transform="matrix(1.0, 0.0, 0.0, 1.0, -38.25, -62.85)">
      <path d="M45.15 64.75 Q45.55 65.95 44.85 67.1 44.15 68.25 42.75 68.75 41.35 69.25 40.1 68.75 38.8 68.25 38.4 67.05 38.0 65.9 38.7 64.7 39.4 63.55 40.8 63.1 42.2 62.6 43.45 63.1 44.75 63.6 45.15 64.75" fill="url(#gradient12)" fill-rule="evenodd" stroke="none"/>
      <path d="M40.95 63.55 Q42.6 63.25 41.45 64.5 40.2 65.8 39.6 65.4 39.1 65.1 39.7 64.4 40.2 63.65 40.95 63.55" fill="#ffffff" fill-rule="evenodd" stroke="none"/>
    </g>
    <radialGradient cx="0" cy="0" gradientTransform="matrix(0.0023, 0.0046, 0.0046, -0.0023, 41.3, 64.4)" gradientUnits="userSpaceOnUse" id="gradient12" r="819.2" spreadMethod="pad">
      <stop offset="0.0" stop-color="#701420"/>
      <stop offset="1.0" stop-color="#3d0d16"/>
    </radialGradient>
    <g id="sprite12" transform="matrix(1.0, 0.0, 0.0, 1.0, -0.1, 0.35)">
      <use height="2.25" transform="matrix(0.9091, 0.0, 0.0, 1.0, 0.0909, -0.35)" width="2.2" xlink:href="#shape1"/>
    </g>
    <g id="shape15" transform="matrix(1.0, 0.0, 0.0, 1.0, -33.3, -65.75)">
      <path d="M40.55 68.05 Q40.95 69.3 40.45 70.4 39.9 71.5 38.5 72.15 L35.2 72.25 Q33.8 71.65 33.4 70.25 33.05 69.0 33.8 67.8 34.6 66.65 36.05 66.1 39.6 64.85 40.55 68.05" fill="url(#gradient13)" fill-rule="evenodd" stroke="none"/>
    </g>
    <radialGradient cx="0" cy="0" gradientTransform="matrix(0.0023, 0.0051, 0.0051, -0.0023, 36.55, 67.4)" gradientUnits="userSpaceOnUse" id="gradient13" r="819.2" spreadMethod="pad">
      <stop offset="0.0" stop-color="#701420"/>
      <stop offset="1.0" stop-color="#3d0d16"/>
    </radialGradient>
    <g id="sprite13" transform="matrix(1.0, 0.0, 0.0, 1.0, -0.1, 0.3)">
      <use height="2.25" transform="matrix(1.0, 0.0, 0.0, 1.0, 0.1, -0.3)" width="2.2" xlink:href="#shape1"/>
    </g>
    <g id="shape16" transform="matrix(1.0, 0.0, 0.0, 1.0, -29.5, -57.1)">
      <path d="M36.95 59.8 Q37.2 61.15 36.5 62.15 35.85 63.15 34.35 63.6 32.5 64.15 31.1 63.25 29.8 62.45 29.55 61.0 29.35 59.7 30.3 58.65 31.2 57.6 32.75 57.25 36.5 56.5 36.95 59.8" fill="url(#gradient14)" fill-rule="evenodd" stroke="none"/>
      <path d="M32.8 57.8 Q34.6 57.8 33.15 58.85 31.65 59.95 31.1 59.5 30.65 59.1 31.35 58.45 32.0 57.8 32.8 57.8" fill="#ad5d80" fill-rule="evenodd" stroke="none"/>
    </g>
    <radialGradient cx="0" cy="0" gradientTransform="matrix(0.0016, 0.0053, 0.0053, -0.0016, 33.1, 58.65)" gradientUnits="userSpaceOnUse" id="gradient14" r="819.2" spreadMethod="pad">
      <stop offset="0.0" stop-color="#701420"/>
      <stop offset="1.0" stop-color="#3d0d16"/>
    </radialGradient>
    <g id="sprite14" transform="matrix(1.0, 0.0, 0.0, 1.0, -0.1, 0.3)">
      <use height="2.25" transform="matrix(1.1136, 0.0, 0.0, 0.8889, 0.1114, -0.3167)" width="2.2" xlink:href="#shape1"/>
    </g>
    <g id="shape17" transform="matrix(1.0, 0.0, 0.0, 1.0, -38.7, -55.1)">
      <path d="M46.2 58.2 Q46.25 59.55 45.45 60.45 44.6 61.4 43.1 61.6 41.2 61.85 39.9 60.75 38.75 59.8 38.7 58.35 38.65 57.05 39.75 56.15 40.8 55.2 42.35 55.1 46.1 54.85 46.2 58.2" fill="url(#gradient15)" fill-rule="evenodd" stroke="none"/>
      <path d="M42.35 55.6 Q44.15 55.9 42.6 56.75 40.95 57.65 40.45 57.1 40.0 56.65 40.8 56.05 41.55 55.5 42.35 55.6" fill="#ad5d80" fill-rule="evenodd" stroke="none"/>
    </g>
    <radialGradient cx="0" cy="0" gradientTransform="matrix(9.0E-4, 0.0055, 0.0055, -9.0E-4, 42.5, 56.5)" gradientUnits="userSpaceOnUse" id="gradient15" r="819.2" spreadMethod="pad">
      <stop offset="0.0" stop-color="#701420"/>
      <stop offset="1.0" stop-color="#3d0d16"/>
    </radialGradient>
    <g id="sprite15" transform="matrix(1.0, 0.0, 0.0, 1.0, -0.1, 0.25)">
      <use height="2.25" transform="matrix(1.2273, 0.0, 0.0, 0.7333, 0.1227, -0.27)" width="2.2" xlink:href="#shape1"/>
    </g>
    <g id="shape18" transform="matrix(1.0, 0.0, 0.0, 1.0, -36.4, -59.45)">
      <path d="M43.9 62.55 Q43.95 63.9 43.15 64.8 42.3 65.75 40.8 65.95 38.95 66.25 37.65 65.15 36.45 64.2 36.4 62.75 36.35 61.45 37.45 60.5 38.5 59.55 40.1 59.45 43.9 59.2 43.9 62.55" fill="url(#gradient16)" fill-rule="evenodd" stroke="none"/>
      <path d="M40.1 60.0 Q41.85 60.25 40.3 61.1 38.65 62.0 38.15 61.45 37.75 61.0 38.55 60.45 39.3 59.9 40.1 60.0" fill="#ad5d80" fill-rule="evenodd" stroke="none"/>
    </g>
    <radialGradient cx="0" cy="0" gradientTransform="matrix(9.0E-4, 0.0055, 0.0055, -9.0E-4, 40.25, 60.85)" gradientUnits="userSpaceOnUse" id="gradient16" r="819.2" spreadMethod="pad">
      <stop offset="0.0" stop-color="#701420"/>
      <stop offset="1.0" stop-color="#3d0d16"/>
    </radialGradient>
    <g id="sprite16" transform="matrix(1.0, 0.0, 0.0, 1.0, -0.1, 0.25)">
      <use height="1.3" transform="matrix(1.0, 0.0, 0.0, 1.2692, 0.1, -0.2538)" width="2.7" xlink:href="#shape11"/>
    </g>
    <g id="shape19" transform="matrix(1.0, 0.0, 0.0, 1.0, -30.95, -62.0)">
      <path d="M38.45 65.1 Q38.5 66.45 37.7 67.35 36.85 68.3 35.35 68.5 33.45 68.75 32.2 67.65 31.0 66.65 30.95 65.25 30.9 63.95 32.0 63.05 33.05 62.1 34.65 62.0 38.35 61.75 38.45 65.1" fill="url(#gradient17)" fill-rule="evenodd" stroke="none"/>
      <path d="M34.6 62.55 Q36.4 62.8 34.85 63.65 33.15 64.55 32.7 64.0 32.3 63.55 33.05 63.0 33.85 62.45 34.6 62.55" fill="#ad5d80" fill-rule="evenodd" stroke="none"/>
    </g>
    <radialGradient cx="0" cy="0" gradientTransform="matrix(9.0E-4, 0.0055, 0.0055, -9.0E-4, 34.75, 63.4)" gradientUnits="userSpaceOnUse" id="gradient17" r="819.2" spreadMethod="pad">
      <stop offset="0.0" stop-color="#701420"/>
      <stop offset="1.0" stop-color="#3d0d16"/>
    </radialGradient>
    <g id="sprite17" transform="matrix(1.0, 0.0, 0.0, 1.0, -0.1, 0.25)">
      <use height="2.25" transform="matrix(1.2273, 0.0, 0.0, 0.7333, 0.1227, -0.27)" width="2.2" xlink:href="#shape1"/>
    </g>
    <g id="sprite18" transform="matrix(1.0, 0.0, 0.0, 1.0, -0.15, 0.25)">
      <use height="2.25" transform="matrix(1.2045, 0.0, 0.0, 0.7333, 0.1705, -0.27)" width="2.2" xlink:href="#shape1"/>
    </g>
    <g id="shape20" transform="matrix(1.0, 0.0, 0.0, 1.0, -24.8, -62.4)">
      <path d="M32.1 64.7 Q32.5 65.95 31.95 67.05 31.4 68.2 30.0 68.8 L26.7 68.9 Q25.3 68.25 24.9 66.9 24.55 65.65 25.3 64.45 26.05 63.3 27.55 62.75 31.05 61.5 32.1 64.7" fill="url(#gradient18)" fill-rule="evenodd" stroke="none"/>
    </g>
    <radialGradient cx="0" cy="0" gradientTransform="matrix(0.0023, 0.0051, 0.0051, -0.0023, 28.1, 64.05)" gradientUnits="userSpaceOnUse" id="gradient18" r="819.2" spreadMethod="pad">
      <stop offset="0.0" stop-color="#701420"/>
      <stop offset="1.0" stop-color="#3d0d16"/>
    </radialGradient>
    <g id="sprite19" transform="matrix(1.0, 0.0, 0.0, 1.0, -0.05, 0.35)">
      <use height="2.25" transform="matrix(1.0, 0.0, 0.0, 1.0222, 0.05, -0.3567)" width="2.2" xlink:href="#shape1"/>
    </g>
    <g id="shape21" transform="matrix(1.0, 0.0, 0.0, 1.0, -18.9, -61.15)">
      <path d="M26.15 63.4 Q26.55 64.7 26.05 65.8 25.5 66.9 24.1 67.55 L20.8 67.65 Q19.4 67.0 19.0 65.65 18.65 64.4 19.4 63.2 20.15 62.05 21.65 61.5 25.2 60.25 26.15 63.4" fill="url(#gradient19)" fill-rule="evenodd" stroke="none"/>
      <path d="M21.8 62.0 Q23.55 61.75 22.3 63.0 20.95 64.35 20.35 63.9 19.8 63.55 20.4 62.85 21.0 62.1 21.8 62.0" fill="#ad5d80" fill-rule="evenodd" stroke="none"/>
    </g>
    <radialGradient cx="0" cy="0" gradientTransform="matrix(0.0023, 0.0051, 0.0051, -0.0023, 22.15, 62.8)" gradientUnits="userSpaceOnUse" id="gradient19" r="819.2" spreadMethod="pad">
      <stop offset="0.0" stop-color="#701420"/>
      <stop offset="1.0" stop-color="#3d0d16"/>
    </radialGradient>
    <g id="sprite20" transform="matrix(1.0, 0.0, 0.0, 1.0, -0.05, 0.35)">
      <use height="2.25" transform="matrix(1.0, 0.0, 0.0, 1.0222, 0.05, -0.3567)" width="2.2" xlink:href="#shape1"/>
    </g>
    <g id="sprite21" transform="matrix(1.0, 0.0, 0.0, 1.0, -0.1, 0.35)">
      <use height="2.25" transform="matrix(1.0, 0.0, 0.0, 1.0222, 0.1, -0.3567)" width="2.2" xlink:href="#shape1"/>
    </g>
  </defs>
</svg>
