<?xml version="1.0" encoding="UTF-8" standalone="no"?>
<svg xmlns:xlink="http://www.w3.org/1999/xlink" height="120.4px" width="83.35px" xmlns="http://www.w3.org/2000/svg">
  <g transform="matrix(1.0, 0.0, 0.0, 1.0, 0.0, 0.0)">
    <use height="20.6" transform="matrix(1.2574, 0.0, 0.0, 1.0, 0.5, 100.95)" width="65.95" xlink:href="#sprite0"/>
    <use height="106.0" transform="matrix(1.0, 0.0, 0.0, 1.0, 0.0, 0.5)" width="83.35" xlink:href="#shape1"/>
    <use height="12.7" transform="matrix(1.0, 0.0, 0.0, 1.0, 19.45, 6.95)" width="10.15" xlink:href="#shape2"/>
    <use height="12.7" transform="matrix(1.0, 0.0, 0.0, 1.0, 30.45, 6.95)" width="10.15" xlink:href="#shape3"/>
    <use height="12.7" transform="matrix(1.0, 0.0, 0.0, 1.0, 40.45, 6.95)" width="10.15" xlink:href="#shape4"/>
    <use height="12.75" transform="matrix(1.0, 0.0, 0.0, 1.0, 19.2, 83.6)" width="10.15" xlink:href="#shape5"/>
    <use height="12.75" transform="matrix(1.0, 0.0, 0.0, 1.0, 30.2, 83.6)" width="10.15" xlink:href="#shape6"/>
    <use height="12.75" transform="matrix(1.0, 0.0, 0.0, 1.0, 40.2, 83.6)" width="10.15" xlink:href="#shape7"/>
    <use height="101.0" transform="matrix(1.0, 0.0, 0.0, 1.0, 54.25, 0.0)" width="16.75" xlink:href="#shape8"/>
    <use height="0.0" id="price_tag_pt" transform="matrix(1.0, 0.0, 0.0, 1.0, 43.75, 114.45)" width="0.0" xlink:href="#sprite1"/>
  </g>
  <defs>
    <g id="sprite0" transform="matrix(1.0, 0.0, 0.0, 1.0, 0.0, 0.0)">
      <use height="20.6" transform="matrix(1.0, 0.0, 0.0, 1.0, 0.0, 0.0)" width="65.95" xlink:href="#shape0"/>
    </g>
    <g id="shape0" transform="matrix(1.0, 0.0, 0.0, 1.0, 0.0, 0.0)">
      <path d="M65.95 20.6 L0.0 20.6 0.0 0.0 65.95 0.0 65.95 20.6" fill="url(#gradient0)" fill-rule="evenodd" stroke="none"/>
    </g>
    <linearGradient gradientTransform="matrix(0.0, -0.0093, -0.0093, 0.0, 32.95, 12.1)" gradientUnits="userSpaceOnUse" id="gradient0" spreadMethod="pad" x1="-819.2" x2="819.2">
      <stop offset="0.09019607843137255" stop-color="#000000" stop-opacity="0.0"/>
      <stop offset="0.7803921568627451" stop-color="#000000" stop-opacity="0.3529412"/>
      <stop offset="1.0" stop-color="#000000" stop-opacity="0.52156866"/>
    </linearGradient>
    <g id="shape1" transform="matrix(1.0, 0.0, 0.0, 1.0, 0.0, -0.5)">
      <path d="M83.35 106.5 L0.0 106.5 0.0 2.5 83.35 2.5 83.35 106.5" fill="#253335" fill-rule="evenodd" stroke="none"/>
      <path d="M83.35 2.5 L83.35 106.5 82.1 106.5 82.1 2.5 83.35 2.5" fill="#182426" fill-rule="evenodd" stroke="none"/>
      <path d="M1.2 2.5 L1.2 106.5 0.0 106.5 0.0 2.5 1.2 2.5" fill="#182426" fill-rule="evenodd" stroke="none"/>
      <path d="M83.35 0.5 L83.35 2.5 0.0 2.5 0.0 0.5 83.35 0.5" fill="#3a5151" fill-rule="evenodd" stroke="none"/>
      <path d="M4.5 5.0 L4.5 99.65 2.5 99.65 2.5 5.0 4.5 5.0" fill="#172223" fill-rule="evenodd" stroke="none"/>
      <path d="M80.0 7.15 L4.0 7.15 4.0 5.2 80.0 5.2 80.0 7.15" fill="#6d8e93" fill-rule="evenodd" stroke="none"/>
      <path d="M80.95 99.7 L4.2 99.7 4.2 97.65 80.95 97.65 80.95 99.7" fill="#111819" fill-rule="evenodd" stroke="none"/>
      <path d="M80.6 6.15 L80.6 98.5 77.8 98.5 77.8 6.15 80.6 6.15" fill="#111819" fill-rule="evenodd" stroke="none"/>
      <path d="M78.85 97.5 L4.55 97.5 4.55 6.75 78.85 6.75 78.85 97.5" fill="#33484f" fill-rule="evenodd" stroke="none"/>
      <path d="M78.85 97.5 L4.55 97.5 4.55 6.75 78.85 6.75 78.85 97.5" fill="url(#gradient1)" fill-rule="evenodd" stroke="none"/>
      <path d="M56.5 94.25 L56.5 97.55 4.35 97.5 4.5 89.75 5.35 91.8 Q6.35 93.85 6.95 93.85 L8.85 93.15 10.25 93.0 10.75 94.25 Q11.2 94.9 12.0 94.75 13.25 94.5 14.5 93.75 L14.6 94.9 Q14.9 96.0 16.0 96.0 L24.25 96.35 28.65 96.25 Q32.0 96.0 32.5 96.25 33.5 96.75 36.0 95.0 L36.65 95.65 Q37.4 96.25 38.0 96.25 L44.0 96.25 53.25 97.25 56.5 94.25" fill="#30393b" fill-rule="evenodd" stroke="none"/>
      <path d="M29.75 78.5 L26.0 78.95 22.25 79.25 19.6 79.2 Q18.1 79.2 18.25 78.75 L18.95 77.35 19.5 75.75 19.9 73.65 20.25 72.25 20.65 77.75 50.0 77.75 50.5 79.5 Q48.75 78.25 46.75 78.5 L40.75 78.75 39.0 78.55 37.25 78.5 Q36.75 78.6 35.55 79.3 34.55 79.9 34.0 79.75 33.4 79.6 33.5 79.05 L33.75 78.5 29.75 78.5" fill="#30393b" fill-rule="evenodd" stroke="none"/>
      <path d="M63.65 73.15 L56.5 73.15 56.65 72.75 Q56.95 72.15 57.75 71.25 58.5 70.45 57.7 68.9 57.1 67.7 57.25 67.75 L59.3 68.2 Q60.85 68.4 61.0 67.75 61.15 67.15 61.85 65.75 L62.5 64.5 63.75 61.0 63.65 73.15" fill="#30393b" fill-rule="evenodd" stroke="none"/>
      <path d="M38.5 59.75 L40.85 56.25 40.55 58.65 Q40.3 61.05 40.85 61.15 41.45 61.25 43.5 60.5 L46.5 59.25 Q47.3 58.85 47.85 59.75 L48.75 61.0 50.5 60.7 52.25 60.0 Q52.7 59.85 52.15 62.15 L51.5 65.0 Q51.5 65.75 50.0 67.75 L50.0 63.05 24.5 63.25 28.3 62.1 Q32.3 60.95 33.25 60.85 L38.5 59.75" fill="#30393b" fill-rule="evenodd" stroke="none"/>
      <path d="M56.05 29.8 L63.65 29.8 63.75 56.0 63.05 51.1 Q62.45 46.05 62.75 45.25 63.05 44.5 62.95 41.85 L62.75 38.25 62.45 35.05 Q62.2 32.85 62.5 32.25 62.75 31.75 61.9 32.0 L59.65 32.25 Q58.6 32.1 57.25 30.95 L56.05 29.8" fill="#30393b" fill-rule="evenodd" stroke="none"/>
      <path d="M56.05 6.35 L56.0 22.25 Q55.25 18.5 55.25 17.5 L54.8 14.8 54.0 12.25 Q53.7 11.8 53.7 9.85 L53.75 8.0 46.75 6.5 56.05 6.35" fill="#30393b" fill-rule="evenodd" stroke="none"/>
      <path d="M4.35 6.75 L24.55 6.95 16.75 8.0 13.4 7.95 10.75 8.25 Q9.65 8.55 8.0 9.55 L6.55 10.5 4.25 13.5 4.35 6.75" fill="#30393b" fill-rule="evenodd" stroke="none"/>
      <path d="M26.3 13.8 Q27.2 14.05 27.5 15.0 27.75 15.8 28.9 16.15 29.7 16.4 29.5 16.75 29.35 16.95 29.3 17.9 29.25 18.5 28.5 18.5 L26.9 18.95 25.5 19.5 23.2 19.45 Q21.65 19.25 22.0 18.75 L25.5 13.75 26.3 13.8" fill="#30393b" fill-rule="evenodd" stroke="none"/>
      <path d="M38.25 21.25 Q41.0 20.25 41.5 19.0 41.95 17.85 42.95 17.0 44.1 15.95 45.0 16.5 46.35 17.3 47.5 19.5 L49.75 21.25 38.25 21.25" fill="#30393b" fill-rule="evenodd" stroke="none"/>
      <path d="M78.95 20.25 L78.85 97.5 71.9 97.75 72.95 96.4 Q74.25 95.05 75.55 95.15 76.95 95.2 77.65 93.95 78.15 93.0 78.15 91.75 L77.7 85.4 Q77.3 79.75 77.65 79.0 78.15 77.75 76.85 76.5 77.9 72.25 77.65 71.25 77.45 70.65 77.55 60.3 L77.65 49.0 Q77.1 42.75 77.35 41.75 L77.9 35.75 75.8 34.0 77.35 33.0 Q78.15 27.75 78.15 26.5 L78.55 22.9 78.95 20.25" fill="#30393b" fill-rule="evenodd" stroke="none"/>
      <path d="M83.35 106.5 L0.0 106.5 0.0 101.45 83.35 101.45 83.35 106.5" fill="#111819" fill-rule="evenodd" stroke="none"/>
      <path d="M83.35 103.25 L0.0 103.25 0.0 101.45 83.35 101.45 83.35 103.25" fill="#182426" fill-rule="evenodd" stroke="none"/>
      <path d="M56.05 29.8 L56.05 6.35 60.7 6.65 60.5 24.35 67.85 24.5 68.35 78.85 61.2 79.0 61.0 97.65 56.5 97.55 56.5 73.15 63.65 73.15 63.65 29.8 56.05 29.8" fill="#253538" fill-rule="evenodd" stroke="none"/>
      <path d="M5.7 12.7 L6.6 14.6 7.85 13.8 9.95 14.2 12.35 14.75 14.5 14.3 14.4 35.1 14.25 36.8 13.1 35.55 12.2 36.15 12.1 34.75 Q11.85 34.65 10.95 35.0 L10.05 35.4 Q8.9 34.9 7.75 34.9 L6.3 35.15 5.7 35.4 Q5.55 34.3 5.55 33.05 L5.35 31.35 5.15 30.55 5.45 28.5 5.35 26.7 5.15 24.45 Q5.15 21.45 5.45 18.65 L5.7 12.7" fill="#30393b" fill-rule="evenodd" stroke="none"/>
      <path d="M13.95 33.35 L6.05 33.35 6.05 16.3 13.95 16.3 13.95 33.35" fill="#364d54" fill-rule="evenodd" stroke="none"/>
      <path d="M13.95 16.6 L6.05 16.6 6.05 15.95 13.95 15.95 13.95 16.6" fill="#527580" fill-rule="evenodd" stroke="none"/>
      <path d="M13.95 33.4 L6.05 33.4 6.05 32.85 13.95 32.85 13.95 33.4" fill="#223033" fill-rule="evenodd" stroke="none"/>
      <path d="M6.25 32.6 L5.95 33.35 5.95 16.3 6.25 16.45 6.25 32.6" fill="#263638" fill-rule="evenodd" stroke="none"/>
      <path d="M14.05 33.35 L13.8 32.6 13.8 16.45 14.05 16.3 14.05 33.35" fill="#263638" fill-rule="evenodd" stroke="none"/>
      <path d="M13.1 27.9 L13.1 30.55 6.95 30.55 6.95 27.9 13.1 27.9" fill="#263a3f" fill-rule="evenodd" stroke="none"/>
      <path d="M13.1 27.9 L13.1 29.6 6.95 29.6 6.95 27.9 13.1 27.9" fill="#1c2a2e" fill-rule="evenodd" stroke="none"/>
      <path d="M13.1 23.1 L13.1 25.8 6.95 25.8 6.95 23.1 13.1 23.1" fill="#263a3f" fill-rule="evenodd" stroke="none"/>
      <path d="M13.1 23.1 L13.1 24.8 6.95 24.8 6.95 23.1 13.1 23.1" fill="#1c2a2e" fill-rule="evenodd" stroke="none"/>
      <path d="M13.1 18.3 L13.1 21.0 6.95 21.0 6.95 18.3 13.1 18.3" fill="#263a3f" fill-rule="evenodd" stroke="none"/>
      <path d="M13.1 18.3 L13.1 20.05 6.95 20.05 6.95 18.3 13.1 18.3" fill="#1c2a2e" fill-rule="evenodd" stroke="none"/>
      <path d="M13.2 21.5 L6.95 21.5 6.95 21.05 13.2 21.05 13.2 21.5" fill="#527580" fill-rule="evenodd" stroke="none"/>
      <path d="M13.2 26.3 L6.95 26.3 6.95 25.85 13.2 25.85 13.2 26.3" fill="#527580" fill-rule="evenodd" stroke="none"/>
      <path d="M13.2 31.1 L6.95 31.1 6.95 30.65 13.2 30.65 13.2 31.1" fill="#527580" fill-rule="evenodd" stroke="none"/>
      <path d="M9.75 68.15 L12.1 68.7 14.3 68.2 14.05 90.75 12.9 89.5 12.0 90.1 11.85 88.7 10.7 88.95 9.8 89.35 Q8.65 88.85 7.5 88.85 L6.05 89.1 5.45 89.35 5.35 87.0 5.15 85.3 4.95 84.5 5.2 82.45 5.15 80.65 4.95 78.4 Q4.95 74.95 5.2 72.6 L5.45 66.65 6.35 68.55 7.65 67.75 9.75 68.15" fill="#30393b" fill-rule="evenodd" stroke="none"/>
      <path d="M13.75 87.3 L5.8 87.3 5.8 70.2 13.75 70.2 13.75 87.3" fill="#364d54" fill-rule="evenodd" stroke="none"/>
      <path d="M13.75 70.55 L5.8 70.55 5.8 69.9 13.75 69.9 13.75 70.55" fill="#527580" fill-rule="evenodd" stroke="none"/>
      <path d="M13.75 87.35 L5.8 87.35 5.8 86.8 13.75 86.8 13.75 87.35" fill="#223033" fill-rule="evenodd" stroke="none"/>
      <path d="M6.0 86.55 L5.7 87.3 5.7 70.2 6.0 70.4 6.0 86.55" fill="#263638" fill-rule="evenodd" stroke="none"/>
      <path d="M13.85 87.3 L13.55 86.55 13.55 70.4 13.85 70.2 13.85 87.3" fill="#263638" fill-rule="evenodd" stroke="none"/>
      <path d="M12.9 81.8 L12.9 84.5 6.75 84.5 6.75 81.8 12.9 81.8" fill="#263a3f" fill-rule="evenodd" stroke="none"/>
      <path d="M12.9 81.8 L12.9 83.55 6.75 83.55 6.75 81.8 12.9 81.8" fill="#1c2a2e" fill-rule="evenodd" stroke="none"/>
      <path d="M12.9 77.0 L12.9 79.7 6.75 79.7 6.75 77.0 12.9 77.0" fill="#263a3f" fill-rule="evenodd" stroke="none"/>
      <path d="M12.9 77.0 L12.9 78.75 6.75 78.75 6.75 77.0 12.9 77.0" fill="#1c2a2e" fill-rule="evenodd" stroke="none"/>
      <path d="M12.9 72.25 L12.9 74.9 6.75 74.9 6.75 72.25 12.9 72.25" fill="#263a3f" fill-rule="evenodd" stroke="none"/>
      <path d="M12.9 72.25 L12.9 73.95 6.75 73.95 6.75 72.25 12.9 72.25" fill="#1c2a2e" fill-rule="evenodd" stroke="none"/>
      <path d="M12.95 75.45 L6.75 75.45 6.75 75.0 12.95 75.0 12.95 75.45" fill="#527580" fill-rule="evenodd" stroke="none"/>
      <path d="M12.95 80.2 L6.75 80.2 6.75 79.8 12.95 79.8 12.95 80.2" fill="#527580" fill-rule="evenodd" stroke="none"/>
      <path d="M12.95 85.0 L6.75 85.0 6.75 84.6 12.95 84.6 12.95 85.0" fill="#527580" fill-rule="evenodd" stroke="none"/>
      <path d="M59.2 6.35 L60.7 6.65 60.5 24.35 67.85 24.5 66.35 26.15 59.2 26.35 59.2 6.35" fill="#1a2526" fill-rule="evenodd" stroke="none"/>
      <path d="M63.65 73.15 L64.65 75.15 58.5 75.15 56.85 73.65 63.65 73.15" fill="#1a2526" fill-rule="evenodd" stroke="none"/>
      <path d="M60.7 6.65 L61.2 6.65 61.35 24.15 60.5 24.35 60.7 6.65" fill="#65858c" fill-rule="evenodd" stroke="none"/>
      <path d="M67.9 24.5 L68.45 24.35 68.45 78.85 67.9 78.85 67.9 24.5" fill="#65858c" fill-rule="evenodd" stroke="none"/>
      <path d="M68.45 78.85 L68.5 79.85 62.0 79.85 62.0 97.65 61.0 97.65 61.2 79.0 68.45 78.85" fill="#65858c" fill-rule="evenodd" stroke="none"/>
      <path d="M58.35 32.15 Q58.95 31.5 59.75 31.5 60.6 31.5 61.15 32.15 61.75 32.75 61.75 33.65 61.75 34.55 61.15 35.2 60.6 35.8 59.75 35.8 58.95 35.8 58.35 35.2 57.8 34.55 57.8 33.65 57.8 32.75 58.35 32.15" fill="#527580" fill-rule="evenodd" stroke="none"/>
      <path d="M61.75 33.45 Q61.75 34.25 61.2 34.85 60.65 35.45 59.9 35.45 59.1 35.45 58.55 34.85 58.0 34.3 58.0 33.45 58.0 32.65 58.55 32.1 59.1 31.5 59.9 31.5 60.65 31.5 61.2 32.1 61.75 32.65 61.75 33.45" fill="#1c2a2d" fill-rule="evenodd" stroke="none"/>
      <path d="M61.1 33.85 Q61.1 34.5 60.7 34.95 60.25 35.45 59.65 35.45 59.05 35.45 58.65 34.95 58.2 34.5 58.2 33.85 58.2 33.2 58.65 32.75 59.05 32.25 59.65 32.25 60.25 32.25 60.7 32.75 61.1 33.2 61.1 33.85" fill="#203135" fill-rule="evenodd" stroke="none"/>
      <path d="M60.65 34.2 L60.35 35.1 59.55 35.45 Q59.1 35.45 58.8 35.1 58.45 34.7 58.45 34.2 58.45 33.7 58.8 33.3 59.1 32.95 59.55 32.95 60.0 32.95 60.35 33.3 L60.65 34.2" fill="#2b4147" fill-rule="evenodd" stroke="none"/>
      <path d="M60.35 34.3 L60.05 34.95 59.4 35.2 Q58.45 35.2 58.45 34.3 58.45 33.45 59.4 33.45 59.8 33.45 60.05 33.7 L60.35 34.3" fill="#364d54" fill-rule="evenodd" stroke="none"/>
      <path d="M74.6 10.5 Q74.6 11.35 74.0 12.0 73.4 12.65 72.6 12.65 71.8 12.65 71.2 12.0 70.65 11.35 70.65 10.5 70.65 9.6 71.2 8.95 71.8 8.3 72.6 8.3 73.4 8.3 74.0 8.95 74.6 9.6 74.6 10.5" fill="#527580" fill-rule="evenodd" stroke="none"/>
      <path d="M74.6 10.3 Q74.6 11.1 74.05 11.65 73.5 12.25 72.75 12.25 71.95 12.25 71.4 11.65 70.85 11.1 70.85 10.3 70.85 9.5 71.4 8.9 71.95 8.3 72.75 8.3 73.5 8.3 74.05 8.9 74.6 9.5 74.6 10.3" fill="#1c2a2d" fill-rule="evenodd" stroke="none"/>
      <path d="M73.95 10.65 Q73.95 11.3 73.55 11.8 73.1 12.25 72.5 12.25 71.9 12.25 71.5 11.8 71.05 11.3 71.05 10.65 71.05 10.0 71.5 9.55 71.9 9.1 72.5 9.1 73.1 9.1 73.55 9.55 73.95 10.0 73.95 10.65" fill="#203135" fill-rule="evenodd" stroke="none"/>
      <path d="M73.5 11.0 L73.2 11.9 Q72.85 12.25 72.4 12.25 71.95 12.25 71.65 11.9 71.3 11.5 71.3 11.0 71.3 10.5 71.65 10.15 71.95 9.8 72.4 9.8 72.85 9.8 73.2 10.15 L73.5 11.0" fill="#2b4147" fill-rule="evenodd" stroke="none"/>
      <path d="M73.2 11.15 L72.9 11.75 72.25 12.0 71.55 11.75 71.3 11.15 Q71.3 10.25 72.25 10.25 72.65 10.25 72.9 10.5 L73.2 11.15" fill="#364d54" fill-rule="evenodd" stroke="none"/>
      <path d="M77.85 93.35 Q77.85 94.25 77.25 94.9 76.65 95.5 75.8 95.5 74.95 95.5 74.3 94.9 73.7 94.25 73.7 93.35 73.7 92.45 74.3 91.85 74.95 91.2 75.8 91.2 76.65 91.2 77.25 91.85 77.85 92.45 77.85 93.35" fill="#527580" fill-rule="evenodd" stroke="none"/>
      <path d="M77.85 93.15 Q77.85 94.0 77.3 94.55 76.7 95.15 75.9 95.15 75.1 95.15 74.5 94.55 73.95 94.0 73.95 93.15 73.95 92.35 74.5 91.8 75.1 91.2 75.9 91.2 76.7 91.2 77.3 91.8 77.85 92.35 77.85 93.15" fill="#1c2a2d" fill-rule="evenodd" stroke="none"/>
      <path d="M77.2 93.55 L76.75 94.7 Q76.3 95.15 75.7 95.15 75.05 95.15 74.6 94.7 74.15 94.2 74.15 93.55 74.15 92.9 74.6 92.45 75.05 91.95 75.7 91.95 76.3 91.95 76.75 92.45 77.2 92.9 77.2 93.55" fill="#203135" fill-rule="evenodd" stroke="none"/>
      <path d="M76.7 93.9 L76.35 94.8 Q76.05 95.15 75.55 95.15 75.05 95.15 74.75 94.8 74.4 94.45 74.4 93.9 74.4 93.4 74.75 93.0 75.05 92.65 75.55 92.65 76.05 92.65 76.35 93.0 L76.7 93.9" fill="#2b4147" fill-rule="evenodd" stroke="none"/>
      <path d="M76.4 94.0 L76.1 94.65 75.4 94.9 74.7 94.65 Q74.4 94.4 74.4 94.0 74.4 93.65 74.7 93.4 75.0 93.15 75.4 93.15 L76.1 93.4 76.4 94.0" fill="#364d54" fill-rule="evenodd" stroke="none"/>
      <path d="M10.1 10.3 Q10.1 11.2 9.5 11.85 8.95 12.45 8.1 12.45 7.3 12.45 6.7 11.85 6.15 11.2 6.15 10.3 6.15 9.4 6.7 8.8 7.3 8.15 8.1 8.15 8.95 8.15 9.5 8.8 10.1 9.4 10.1 10.3" fill="#527580" fill-rule="evenodd" stroke="none"/>
      <path d="M10.1 10.1 Q10.1 10.9 9.55 11.5 9.0 12.1 8.25 12.1 7.45 12.1 6.9 11.5 6.35 10.95 6.35 10.1 6.35 9.3 6.9 8.75 7.45 8.15 8.25 8.15 9.0 8.15 9.55 8.75 10.1 9.3 10.1 10.1" fill="#1c2a2d" fill-rule="evenodd" stroke="none"/>
      <path d="M9.45 10.5 Q9.45 11.15 9.05 11.6 8.6 12.1 8.0 12.1 7.4 12.1 7.0 11.6 6.55 11.15 6.55 10.5 6.55 9.85 7.0 9.4 7.4 8.9 8.0 8.9 8.6 8.9 9.05 9.4 9.45 9.85 9.45 10.5" fill="#203135" fill-rule="evenodd" stroke="none"/>
      <path d="M9.0 10.85 L8.7 11.75 Q8.35 12.1 7.9 12.1 7.45 12.1 7.15 11.75 6.8 11.35 6.8 10.85 6.8 10.35 7.15 9.95 7.45 9.6 7.9 9.6 8.35 9.6 8.7 9.95 L9.0 10.85" fill="#2b4147" fill-rule="evenodd" stroke="none"/>
      <path d="M8.7 10.95 L8.4 11.6 7.75 11.85 Q6.8 11.85 6.8 10.95 6.8 10.1 7.75 10.1 8.15 10.1 8.4 10.35 L8.7 10.95" fill="#364d54" fill-rule="evenodd" stroke="none"/>
      <path d="M10.25 93.2 Q10.25 94.1 9.65 94.75 9.1 95.35 8.25 95.35 7.4 95.35 6.85 94.75 6.25 94.1 6.25 93.2 6.25 92.3 6.85 91.7 7.4 91.05 8.25 91.05 9.1 91.05 9.65 91.7 10.25 92.3 10.25 93.2" fill="#527580" fill-rule="evenodd" stroke="none"/>
      <path d="M10.25 93.0 Q10.25 93.8 9.7 94.4 9.15 94.95 8.35 94.95 7.6 94.95 7.05 94.4 6.5 93.8 6.5 93.0 6.5 92.2 7.05 91.6 7.6 91.05 8.35 91.05 9.15 91.05 9.7 91.6 10.25 92.2 10.25 93.0" fill="#1c2a2d" fill-rule="evenodd" stroke="none"/>
      <path d="M9.6 93.4 Q9.6 94.05 9.2 94.5 8.75 94.95 8.15 94.95 7.55 94.95 7.15 94.5 6.7 94.05 6.7 93.4 6.7 92.75 7.15 92.25 7.55 91.8 8.15 91.8 8.75 91.8 9.2 92.25 9.6 92.75 9.6 93.4" fill="#203135" fill-rule="evenodd" stroke="none"/>
      <path d="M9.1 93.75 L8.8 94.6 Q8.5 94.95 8.0 94.95 7.55 94.95 7.25 94.6 6.95 94.25 6.95 93.75 6.95 93.2 7.25 92.85 7.55 92.5 8.0 92.5 8.5 92.5 8.8 92.85 L9.1 93.75" fill="#2b4147" fill-rule="evenodd" stroke="none"/>
      <path d="M8.8 93.85 L8.55 94.5 7.9 94.75 7.2 94.5 6.95 93.85 Q6.95 92.95 7.9 92.95 L8.55 93.2 8.8 93.85" fill="#364d54" fill-rule="evenodd" stroke="none"/>
      <path d="M61.4 69.2 Q61.4 70.1 60.8 70.75 60.25 71.35 59.4 71.35 58.55 71.35 58.0 70.75 57.4 70.1 57.4 69.2 57.4 68.3 58.0 67.7 58.55 67.05 59.4 67.05 60.25 67.05 60.8 67.7 61.4 68.3 61.4 69.2" fill="#527580" fill-rule="evenodd" stroke="none"/>
      <path d="M61.4 69.0 Q61.4 69.8 60.85 70.4 60.3 70.95 59.5 70.95 58.75 70.95 58.2 70.4 57.65 69.8 57.65 69.0 57.65 68.2 58.2 67.6 58.75 67.05 59.5 67.05 60.3 67.05 60.85 67.6 61.4 68.2 61.4 69.0" fill="#1c2a2d" fill-rule="evenodd" stroke="none"/>
      <path d="M60.75 69.4 Q60.75 70.05 60.35 70.5 59.9 70.95 59.3 70.95 58.7 70.95 58.3 70.5 57.85 70.05 57.85 69.4 57.85 68.75 58.3 68.25 58.7 67.8 59.3 67.8 59.9 67.8 60.35 68.25 60.75 68.75 60.75 69.4" fill="#203135" fill-rule="evenodd" stroke="none"/>
      <path d="M60.3 69.75 L60.0 70.6 59.2 70.95 Q58.75 70.95 58.45 70.6 58.1 70.25 58.1 69.75 58.1 69.25 58.45 68.85 58.75 68.5 59.2 68.5 59.65 68.5 60.0 68.85 L60.3 69.75" fill="#2b4147" fill-rule="evenodd" stroke="none"/>
      <path d="M60.0 69.85 L59.7 70.5 59.05 70.75 Q58.1 70.75 58.1 69.85 58.1 69.45 58.35 69.2 58.65 68.95 59.05 68.95 59.45 68.95 59.7 69.2 L60.0 69.85" fill="#364d54" fill-rule="evenodd" stroke="none"/>
      <path d="M29.95 62.15 L23.95 62.15 23.95 56.05 29.95 56.05 29.95 62.15" fill="#253538" fill-rule="evenodd" stroke="none"/>
      <path d="M29.95 61.3 L24.5 61.3 24.5 56.4 29.95 56.4 29.95 61.3" fill="#1a2526" fill-rule="evenodd" stroke="none"/>
      <path d="M25.65 56.5 L28.45 56.35 29.25 57.7 29.35 58.7 Q29.45 59.65 29.0 60.9 L25.3 60.9 25.05 58.55 Q25.05 58.0 25.35 57.2 L25.65 56.5" fill="#525e5e" fill-rule="evenodd" stroke="none"/>
      <path d="M25.85 56.75 L28.3 56.65 29.0 57.7 29.1 58.45 Q29.2 59.15 28.8 60.1 L25.55 60.1 25.35 58.35 25.6 57.3 25.85 56.75" fill="#5e6c6d" fill-rule="evenodd" stroke="none"/>
      <path d="M25.8 57.6 L25.2 54.0 25.8 53.7 27.05 53.35 Q27.7 53.35 28.75 53.85 L28.25 57.45 25.8 57.6" fill="#829393" fill-rule="evenodd" stroke="none"/>
      <path d="M25.8 57.6 L25.3 54.75 25.8 54.4 Q26.45 54.0 27.0 54.0 27.6 54.0 28.75 54.55 L28.25 57.45 25.8 57.6" fill="#5e6c6d" fill-rule="evenodd" stroke="none"/>
      <path d="M25.3 54.75 L26.0 55.55 Q26.8 56.3 27.35 56.15 28.2 55.95 28.75 54.55 L28.25 57.45 25.8 57.6 25.3 54.75" fill="#525e5e" fill-rule="evenodd" stroke="none"/>
      <path d="M27.5 58.55 L27.5 57.85 27.9 58.35 28.1 57.8 28.25 58.05 28.5 58.3 29.0 57.7 29.15 58.9 28.85 59.75 28.55 59.2 28.35 58.95 28.1 58.85 27.5 59.45 26.85 58.85 26.55 59.25 Q26.35 58.95 26.15 58.95 L25.9 59.3 25.8 59.65 25.7 58.7 25.75 57.85 25.9 58.15 26.15 58.4 26.7 57.85 27.5 58.55" fill="#829393" fill-rule="evenodd" stroke="none"/>
      <path d="M25.55 55.8 L25.95 56.4 Q26.45 56.95 27.0 56.95 27.85 56.95 28.55 56.05 L28.25 57.45 25.8 57.6 25.55 55.8" fill="#3f4747" fill-rule="evenodd" stroke="none"/>
      <path d="M25.3 60.9 L25.55 60.1 28.8 60.1 29.0 60.9 25.3 60.9" fill="#3f4747" fill-rule="evenodd" stroke="none"/>
      <path d="M25.35 54.45 L25.8 54.25 27.0 54.0 28.65 54.4 27.2 54.25 25.35 54.45" fill="#a5b7b6" fill-rule="evenodd" stroke="none"/>
      <path d="M25.6 56.75 L26.05 57.0 26.95 57.25 Q27.55 57.25 28.5 56.65 L28.25 57.45 25.8 57.6 25.6 56.75" fill="#292d2d" fill-rule="evenodd" stroke="none"/>
      <path d="M37.9 62.1 L31.9 62.1 31.9 55.95 37.9 55.95 37.9 62.1" fill="#253538" fill-rule="evenodd" stroke="none"/>
      <path d="M37.9 61.25 L32.45 61.25 32.45 56.35 37.9 56.35 37.9 61.25" fill="#1a2526" fill-rule="evenodd" stroke="none"/>
      <path d="M33.6 56.4 L36.35 56.25 37.2 57.65 37.3 58.6 Q37.4 59.6 36.95 60.85 L33.25 60.85 33.0 58.5 Q33.0 57.95 33.3 57.15 L33.6 56.4" fill="#525e5e" fill-rule="evenodd" stroke="none"/>
      <path d="M33.8 56.7 L36.25 56.6 36.95 57.65 37.05 58.35 Q37.15 59.1 36.75 60.05 L33.5 60.05 33.3 58.25 33.55 57.25 33.8 56.7" fill="#5e6c6d" fill-rule="evenodd" stroke="none"/>
      <path d="M33.75 57.5 L33.15 53.9 33.75 53.6 Q34.45 53.3 35.0 53.3 L36.7 53.8 36.15 57.4 33.75 57.5" fill="#829393" fill-rule="evenodd" stroke="none"/>
      <path d="M33.75 57.5 L33.25 54.7 33.75 54.3 Q34.4 53.9 34.95 53.9 L36.7 54.5 36.15 57.4 33.75 57.5" fill="#5e6c6d" fill-rule="evenodd" stroke="none"/>
      <path d="M33.25 54.7 L33.95 55.5 Q34.75 56.25 35.3 56.1 36.1 55.9 36.7 54.5 L36.15 57.4 33.75 57.5 33.25 54.7" fill="#525e5e" fill-rule="evenodd" stroke="none"/>
      <path d="M35.45 58.5 L35.45 57.8 35.85 58.3 36.0 57.7 36.15 57.95 36.45 58.2 36.95 57.65 37.05 58.85 36.8 59.65 36.5 59.1 36.25 58.85 36.0 58.75 35.45 59.4 34.8 58.75 34.5 59.2 Q34.3 58.9 34.1 58.9 34.0 58.9 33.85 59.25 L33.75 59.6 33.65 58.6 33.7 57.8 33.85 58.1 34.1 58.35 34.65 57.8 35.45 58.5" fill="#829393" fill-rule="evenodd" stroke="none"/>
      <path d="M33.5 55.7 L33.9 56.3 Q34.4 56.9 34.95 56.9 35.8 56.9 36.45 56.0 L36.15 57.4 33.75 57.5 33.5 55.7" fill="#3f4747" fill-rule="evenodd" stroke="none"/>
      <path d="M33.25 60.85 L33.5 60.05 36.75 60.05 36.95 60.85 33.25 60.85" fill="#3f4747" fill-rule="evenodd" stroke="none"/>
      <path d="M33.3 54.4 L33.75 54.15 34.95 53.9 Q35.95 53.9 36.6 54.35 L35.15 54.2 33.3 54.4" fill="#a5b7b6" fill-rule="evenodd" stroke="none"/>
      <path d="M33.55 56.7 L34.0 56.95 34.9 57.15 36.45 56.6 36.15 57.4 33.75 57.5 33.55 56.7" fill="#292d2d" fill-rule="evenodd" stroke="none"/>
      <path d="M46.3 62.0 L40.3 62.0 40.3 55.85 46.3 55.85 46.3 62.0" fill="#253538" fill-rule="evenodd" stroke="none"/>
      <path d="M46.3 61.15 L40.85 61.15 40.85 56.25 46.3 56.25 46.3 61.15" fill="#1a2526" fill-rule="evenodd" stroke="none"/>
      <path d="M42.0 56.3 L44.8 56.15 45.6 57.55 45.7 58.5 Q45.85 59.5 45.35 60.75 L41.65 60.75 41.4 58.4 Q41.4 57.85 41.7 57.05 L42.0 56.3" fill="#525e5e" fill-rule="evenodd" stroke="none"/>
      <path d="M42.2 56.6 L44.65 56.5 45.35 57.55 45.45 58.25 Q45.55 59.0 45.15 59.95 L41.9 59.95 41.7 58.15 41.95 57.15 42.2 56.6" fill="#5e6c6d" fill-rule="evenodd" stroke="none"/>
      <path d="M42.15 57.4 L41.55 53.8 42.15 53.5 43.4 53.2 45.1 53.65 44.6 57.25 42.15 57.4" fill="#829393" fill-rule="evenodd" stroke="none"/>
      <path d="M42.15 57.4 L41.65 54.6 42.15 54.2 Q42.8 53.8 43.35 53.8 43.95 53.8 45.1 54.35 L44.6 57.3 42.15 57.4" fill="#5e6c6d" fill-rule="evenodd" stroke="none"/>
      <path d="M41.65 54.6 L42.35 55.4 Q43.15 56.15 43.7 56.0 44.55 55.8 45.1 54.35 L44.6 57.3 42.15 57.4 41.65 54.6" fill="#525e5e" fill-rule="evenodd" stroke="none"/>
      <path d="M44.85 58.1 L45.35 57.55 45.5 58.75 45.2 59.55 44.9 59.0 44.7 58.75 44.45 58.65 43.85 59.3 43.2 58.65 42.95 59.05 Q42.7 58.8 42.5 58.8 42.4 58.8 42.25 59.15 L42.15 59.5 42.05 58.5 42.1 57.7 42.25 58.0 42.5 58.25 43.05 57.7 43.85 58.4 43.85 57.7 44.25 58.15 44.45 57.6 44.6 57.85 44.85 58.1" fill="#829393" fill-rule="evenodd" stroke="none"/>
      <path d="M41.9 55.6 L42.3 56.2 Q42.8 56.8 43.35 56.8 44.25 56.8 44.9 55.9 L44.6 57.3 42.15 57.4 41.9 55.6" fill="#3f4747" fill-rule="evenodd" stroke="none"/>
      <path d="M41.65 60.75 L41.9 59.95 45.15 59.95 45.35 60.75 41.65 60.75" fill="#3f4747" fill-rule="evenodd" stroke="none"/>
      <path d="M41.7 54.3 L42.15 54.05 43.35 53.8 Q44.4 53.8 45.0 54.25 L43.55 54.1 41.7 54.3" fill="#a5b7b6" fill-rule="evenodd" stroke="none"/>
      <path d="M41.95 56.6 L42.4 56.85 43.3 57.05 Q43.9 57.05 44.85 56.5 L44.6 57.3 42.15 57.4 41.95 56.6" fill="#292d2d" fill-rule="evenodd" stroke="none"/>
      <path d="M44.25 49.75 L40.45 49.55 36.5 49.75 32.25 51.0 29.75 49.75 23.5 50.75 Q22.0 48.75 21.0 48.5 20.2 48.3 19.35 47.55 18.45 46.75 18.25 46.0 L17.8 43.2 22.4 48.65 47.75 48.75 Q45.5 49.75 44.25 49.75" fill="#30393b" fill-rule="evenodd" stroke="none"/>
      <path d="M75.1 39.9 L75.1 67.25 72.1 67.25 72.1 39.9 75.1 39.9" fill="#172223" fill-rule="evenodd" stroke="none"/>
      <path d="M74.45 41.15 L74.45 65.8 72.1 65.8 72.1 41.15 74.45 41.15" fill="#243435" fill-rule="evenodd" stroke="none"/>
      <path d="M74.45 41.2 L74.45 55.45 72.1 55.45 72.1 41.2 74.45 41.2" fill="#2b3d3d" fill-rule="evenodd" stroke="none"/>
      <path d="M74.45 41.2 L74.45 47.65 72.1 47.65 72.1 41.2 74.45 41.2" fill="#364948" fill-rule="evenodd" stroke="none"/>
      <path d="M74.45 41.65 L74.45 42.9 72.1 42.9 72.1 41.65 74.45 41.65" fill="#5c7f7f" fill-rule="evenodd" stroke="none"/>
      <path d="M75.1 39.9 L74.45 41.15 72.1 41.15 72.1 39.9 75.1 39.9" fill="#27393a" fill-rule="evenodd" stroke="none"/>
      <path d="M75.1 67.25 L72.1 67.25 72.1 65.8 74.45 65.8 75.1 67.25" fill="#000000" fill-rule="evenodd" stroke="none"/>
      <path d="M72.1 39.9 L72.0 44.6 71.65 44.45 71.65 38.9 75.9 39.05 75.9 44.7 75.1 44.6 75.1 39.9 72.1 39.9" fill="#1c2828" fill-rule="evenodd" stroke="none"/>
      <path d="M74.95 63.7 L75.75 63.8 75.75 68.15 71.75 68.3 71.75 63.7 72.1 63.95 72.1 67.25 74.95 67.25 74.95 63.7" fill="#1c2828" fill-rule="evenodd" stroke="none"/>
      <path d="M74.95 63.7 L75.4 63.6 75.3 67.25 74.95 67.25 74.95 63.7" fill="#000000" fill-rule="evenodd" stroke="none"/>
      <path d="M75.4 40.1 L75.45 44.7 75.1 44.6 75.1 39.9 75.4 40.1" fill="#000000" fill-rule="evenodd" stroke="none"/>
      <path d="M71.75 68.3 L75.75 68.15 76.05 64.5 76.15 69.7 74.65 69.4 74.25 70.0 73.9 70.5 73.15 70.05 72.15 69.85 Q71.8 69.95 71.75 69.15 L71.75 68.3" fill="#30393b" fill-rule="evenodd" stroke="none"/>
      <path d="M4.0 36.5 L4.6 38.7 Q5.3 40.95 5.75 41.25 6.2 41.55 5.8 44.15 L5.25 47.25 Q5.25 48.0 6.0 50.0 L6.0 55.0 5.4 57.95 Q4.75 60.3 4.75 61.25 L4.0 69.25 4.0 36.5" fill="#30393b" fill-rule="evenodd" stroke="none"/>
      <path d="M50.0 77.75 L20.65 77.75 20.65 63.05 50.0 63.05 50.0 77.75" fill="#253538" fill-rule="evenodd" stroke="none"/>
      <path d="M48.9 76.95 L21.5 76.95 21.5 63.65 48.9 63.65 48.9 76.95" fill="#4f5656" fill-rule="evenodd" stroke="none"/>
      <path d="M48.5 76.45 L22.0 76.45 22.0 64.05 48.5 64.05 48.5 76.45" fill="#5e6c6d" fill-rule="evenodd" stroke="none"/>
      <path d="M27.3 73.85 Q27.3 74.8 26.6 75.45 25.85 76.15 24.85 76.15 23.85 76.15 23.1 75.45 22.4 74.8 22.4 73.85 22.4 72.9 23.1 72.2 23.85 71.5 24.85 71.5 25.85 71.5 26.6 72.2 27.3 72.9 27.3 73.85" fill="#424949" fill-rule="evenodd" stroke="none"/>
      <path d="M27.1 73.65 Q27.1 74.55 26.45 75.2 25.75 75.8 24.8 75.8 23.85 75.8 23.2 75.2 22.55 74.55 22.55 73.65 22.55 72.8 23.2 72.15 23.85 71.5 24.8 71.5 25.75 71.5 26.45 72.15 27.1 72.8 27.1 73.65" fill="#a3b7b6" fill-rule="evenodd" stroke="none"/>
      <path d="M27.0 73.8 Q27.0 74.65 26.35 75.25 25.7 75.85 24.8 75.85 23.95 75.85 23.3 75.25 22.65 74.65 22.65 73.8 22.65 72.95 23.3 72.35 23.95 71.75 24.8 71.75 25.7 71.75 26.35 72.35 27.0 72.95 27.0 73.8" fill="#5e6c6d" fill-rule="evenodd" stroke="none"/>
      <path d="M26.55 73.75 Q26.55 74.45 26.05 74.95 25.5 75.45 24.8 75.45 24.1 75.45 23.55 74.95 23.05 74.45 23.05 73.75 23.05 73.05 23.55 72.55 24.1 72.05 24.8 72.05 25.5 72.05 26.05 72.55 26.55 73.05 26.55 73.75" fill="#363d3d" fill-rule="evenodd" stroke="none"/>
      <path d="M26.4 73.75 L25.95 74.8 Q25.5 75.25 24.85 75.25 24.2 75.25 23.7 74.8 23.25 74.35 23.25 73.75 23.25 73.1 23.7 72.7 24.2 72.25 24.85 72.25 25.5 72.25 25.95 72.7 26.4 73.1 26.4 73.75" fill="#cc4040" fill-rule="evenodd" stroke="none"/>
      <path d="M26.4 73.75 L25.95 74.8 Q25.5 75.25 24.85 75.25 24.2 75.25 23.7 74.8 23.25 74.35 23.25 73.75 23.25 73.1 23.7 72.7 24.2 72.25 24.85 72.25 25.5 72.25 25.95 72.7 26.4 73.1 26.4 73.75" fill="url(#gradient2)" fill-rule="evenodd" stroke="none"/>
      <path d="M25.85 73.5 Q25.85 74.0 25.35 74.0 24.9 74.0 24.9 73.5 24.9 73.0 25.35 73.0 25.85 73.0 25.85 73.5" fill="#ea5959" fill-rule="evenodd" stroke="none"/>
      <path d="M34.15 73.65 Q34.15 74.65 33.45 75.3 32.7 76.0 31.7 76.0 30.7 76.0 29.95 75.3 29.25 74.65 29.25 73.65 29.25 72.7 29.95 72.0 30.7 71.35 31.7 71.35 32.7 71.35 33.45 72.0 34.15 72.7 34.15 73.65" fill="#424949" fill-rule="evenodd" stroke="none"/>
      <path d="M33.95 73.5 Q33.95 74.35 33.3 75.0 32.65 75.65 31.7 75.65 30.75 75.65 30.05 75.0 29.4 74.4 29.4 73.5 29.4 72.6 30.05 72.0 30.75 71.35 31.7 71.35 32.65 71.35 33.3 72.0 33.95 72.6 33.95 73.5" fill="#a3b7b6" fill-rule="evenodd" stroke="none"/>
      <path d="M33.85 73.6 Q33.85 74.45 33.2 75.1 32.55 75.7 31.7 75.7 30.8 75.7 30.15 75.1 29.5 74.45 29.5 73.6 29.5 72.75 30.15 72.15 30.8 71.55 31.7 71.55 32.55 71.55 33.2 72.15 33.85 72.8 33.85 73.6" fill="#5e6c6d" fill-rule="evenodd" stroke="none"/>
      <path d="M33.4 73.55 Q33.4 74.25 32.9 74.75 32.35 75.25 31.65 75.25 30.95 75.25 30.45 74.75 29.95 74.25 29.95 73.55 29.95 72.85 30.45 72.4 30.95 71.9 31.65 71.9 32.35 71.9 32.9 72.4 33.4 72.9 33.4 73.55" fill="#363d3d" fill-rule="evenodd" stroke="none"/>
      <path d="M33.25 73.55 L32.8 74.6 Q32.35 75.05 31.7 75.05 L30.6 74.6 Q30.15 74.2 30.15 73.55 30.15 72.95 30.6 72.5 31.05 72.05 31.7 72.05 32.35 72.05 32.8 72.5 33.25 72.95 33.25 73.55" fill="#cc4040" fill-rule="evenodd" stroke="none"/>
      <path d="M33.25 73.55 L32.8 74.6 Q32.35 75.05 31.7 75.05 L30.6 74.6 Q30.15 74.2 30.15 73.55 30.15 72.95 30.6 72.5 31.05 72.05 31.7 72.05 32.35 72.05 32.8 72.5 33.25 72.95 33.25 73.55" fill="url(#gradient3)" fill-rule="evenodd" stroke="none"/>
      <path d="M32.7 73.3 Q32.7 73.8 32.25 73.8 31.75 73.8 31.75 73.3 31.75 72.8 32.25 72.8 32.7 72.8 32.7 73.3" fill="#ea5959" fill-rule="evenodd" stroke="none"/>
      <path d="M40.85 73.7 Q40.85 74.7 40.15 75.35 39.4 76.05 38.4 76.05 37.4 76.05 36.65 75.35 35.95 74.7 35.95 73.7 35.95 72.75 36.65 72.1 37.4 71.4 38.4 71.4 39.4 71.4 40.15 72.1 40.85 72.75 40.85 73.7" fill="#424949" fill-rule="evenodd" stroke="none"/>
      <path d="M40.65 73.55 Q40.65 74.45 40.0 75.1 39.3 75.7 38.35 75.7 37.4 75.7 36.75 75.1 36.1 74.45 36.1 73.55 36.1 72.65 36.75 72.05 37.4 71.4 38.35 71.4 39.3 71.4 40.0 72.05 40.65 72.65 40.65 73.55" fill="#a3b7b6" fill-rule="evenodd" stroke="none"/>
      <path d="M40.55 73.7 Q40.55 74.55 39.9 75.15 39.25 75.75 38.4 75.75 37.5 75.75 36.85 75.15 36.2 74.55 36.2 73.7 36.2 72.85 36.85 72.2 37.5 71.6 38.4 71.6 39.25 71.6 39.9 72.2 40.55 72.85 40.55 73.7" fill="#5e6c6d" fill-rule="evenodd" stroke="none"/>
      <path d="M40.1 73.65 Q40.1 74.35 39.6 74.8 39.05 75.3 38.35 75.3 37.65 75.3 37.1 74.8 36.6 74.35 36.6 73.65 36.6 72.95 37.1 72.45 37.65 71.95 38.35 71.95 39.05 71.95 39.6 72.45 40.1 72.95 40.1 73.65" fill="#363d3d" fill-rule="evenodd" stroke="none"/>
      <path d="M39.95 73.6 Q39.95 74.25 39.5 74.65 39.05 75.1 38.4 75.1 37.75 75.1 37.25 74.65 36.8 74.25 36.8 73.6 36.8 73.0 37.25 72.6 37.75 72.15 38.4 72.15 39.05 72.15 39.5 72.6 39.95 73.0 39.95 73.6" fill="#cc4040" fill-rule="evenodd" stroke="none"/>
      <path d="M39.95 73.6 Q39.95 74.25 39.5 74.65 39.05 75.1 38.4 75.1 37.75 75.1 37.25 74.65 36.8 74.25 36.8 73.6 36.8 73.0 37.25 72.6 37.75 72.15 38.4 72.15 39.05 72.15 39.5 72.6 39.95 73.0 39.95 73.6" fill="url(#gradient4)" fill-rule="evenodd" stroke="none"/>
      <path d="M39.4 73.35 Q39.4 73.85 38.9 73.85 38.45 73.85 38.45 73.35 38.45 72.9 38.9 72.9 39.4 72.9 39.4 73.35" fill="#ea5959" fill-rule="evenodd" stroke="none"/>
      <path d="M27.4 67.7 Q27.4 68.7 26.7 69.35 25.95 70.05 24.95 70.05 23.9 70.05 23.2 69.35 22.45 68.7 22.45 67.7 22.45 66.75 23.2 66.1 23.9 65.4 24.95 65.4 25.95 65.4 26.7 66.1 27.4 66.75 27.4 67.7" fill="#424949" fill-rule="evenodd" stroke="none"/>
      <path d="M27.2 67.55 Q27.2 68.45 26.5 69.1 25.85 69.7 24.9 69.7 23.95 69.7 23.3 69.1 22.6 68.45 22.6 67.55 22.6 66.65 23.3 66.05 23.95 65.4 24.9 65.4 25.85 65.4 26.5 66.05 27.2 66.65 27.2 67.55" fill="#a3b7b6" fill-rule="evenodd" stroke="none"/>
      <path d="M27.05 67.7 Q27.05 68.55 26.45 69.15 25.8 69.75 24.9 69.75 24.0 69.75 23.4 69.15 22.75 68.55 22.75 67.7 22.75 66.85 23.4 66.2 24.0 65.6 24.9 65.6 25.8 65.6 26.45 66.2 27.05 66.85 27.05 67.7" fill="#5e6c6d" fill-rule="evenodd" stroke="none"/>
      <path d="M26.6 67.65 Q26.6 68.35 26.1 68.8 25.6 69.3 24.9 69.3 24.2 69.3 23.65 68.8 23.15 68.35 23.15 67.65 23.15 66.95 23.65 66.45 24.2 65.95 24.9 65.95 25.6 65.95 26.1 66.45 26.6 66.95 26.6 67.65" fill="#363d3d" fill-rule="evenodd" stroke="none"/>
      <path d="M26.45 67.6 Q26.45 68.25 26.0 68.65 L24.9 69.1 Q24.25 69.1 23.8 68.65 23.35 68.25 23.35 67.6 23.35 67.0 23.8 66.6 24.25 66.15 24.9 66.15 25.55 66.15 26.0 66.6 L26.45 67.6" fill="#cc4040" fill-rule="evenodd" stroke="none"/>
      <path d="M26.45 67.6 Q26.45 68.25 26.0 68.65 L24.9 69.1 Q24.25 69.1 23.8 68.65 23.35 68.25 23.35 67.6 23.35 67.0 23.8 66.6 24.25 66.15 24.9 66.15 25.55 66.15 26.0 66.6 L26.45 67.6" fill="url(#gradient5)" fill-rule="evenodd" stroke="none"/>
      <path d="M25.9 67.35 Q25.9 67.85 25.45 67.85 25.0 67.85 25.0 67.35 25.0 66.9 25.45 66.9 25.9 66.9 25.9 67.35" fill="#ea5959" fill-rule="evenodd" stroke="none"/>
      <path d="M34.25 67.55 Q34.25 68.5 33.55 69.15 32.8 69.85 31.8 69.85 30.75 69.85 30.05 69.15 29.3 68.5 29.3 67.55 29.3 66.55 30.05 65.9 30.75 65.2 31.8 65.2 32.8 65.2 33.55 65.9 34.25 66.6 34.25 67.55" fill="#424949" fill-rule="evenodd" stroke="none"/>
      <path d="M34.05 67.35 Q34.05 68.25 33.35 68.9 32.7 69.5 31.75 69.5 30.8 69.5 30.15 68.9 29.45 68.25 29.45 67.35 29.45 66.45 30.15 65.85 30.8 65.2 31.75 65.2 32.7 65.2 33.35 65.85 34.05 66.45 34.05 67.35" fill="#a3b7b6" fill-rule="evenodd" stroke="none"/>
      <path d="M33.9 67.5 Q33.9 68.35 33.3 68.95 32.65 69.55 31.75 69.55 30.85 69.55 30.25 68.95 29.6 68.35 29.6 67.5 29.6 66.65 30.25 66.05 30.85 65.45 31.75 65.45 32.65 65.45 33.3 66.05 33.9 66.65 33.9 67.5" fill="#5e6c6d" fill-rule="evenodd" stroke="none"/>
      <path d="M33.5 67.45 Q33.5 68.15 33.0 68.65 32.45 69.15 31.75 69.15 31.05 69.15 30.5 68.65 30.0 68.15 30.0 67.45 30.0 66.75 30.5 66.25 31.05 65.75 31.75 65.75 32.45 65.75 33.0 66.25 33.5 66.75 33.5 67.45" fill="#363d3d" fill-rule="evenodd" stroke="none"/>
      <path d="M33.35 67.45 L32.9 68.5 Q32.4 68.9 31.75 68.9 31.1 68.9 30.65 68.5 30.2 68.05 30.2 67.45 30.2 66.8 30.65 66.4 31.1 65.95 31.75 65.95 32.45 65.95 32.9 66.4 33.35 66.8 33.35 67.45" fill="#cc4040" fill-rule="evenodd" stroke="none"/>
      <path d="M33.35 67.45 L32.9 68.5 Q32.4 68.9 31.75 68.9 31.1 68.9 30.65 68.5 30.2 68.05 30.2 67.45 30.2 66.8 30.65 66.4 31.1 65.95 31.75 65.95 32.45 65.95 32.9 66.4 33.35 66.8 33.35 67.45" fill="url(#gradient6)" fill-rule="evenodd" stroke="none"/>
      <path d="M32.75 67.2 Q32.75 67.7 32.3 67.7 31.85 67.7 31.85 67.2 31.85 66.7 32.3 66.7 32.75 66.7 32.75 67.2" fill="#ea5959" fill-rule="evenodd" stroke="none"/>
      <path d="M40.95 67.6 Q40.95 68.55 40.25 69.25 39.5 69.9 38.5 69.9 37.45 69.9 36.75 69.25 36.0 68.55 36.0 67.6 36.0 66.6 36.75 65.95 37.45 65.25 38.5 65.25 39.5 65.25 40.25 65.95 40.95 66.65 40.95 67.6" fill="#424949" fill-rule="evenodd" stroke="none"/>
      <path d="M40.75 67.4 Q40.75 68.3 40.05 68.95 39.4 69.55 38.45 69.55 37.5 69.55 36.85 68.95 36.15 68.3 36.15 67.4 36.15 66.55 36.85 65.9 37.5 65.25 38.45 65.25 39.4 65.25 40.05 65.9 40.75 66.55 40.75 67.4" fill="#a3b7b6" fill-rule="evenodd" stroke="none"/>
      <path d="M40.6 67.55 Q40.6 68.4 40.0 69.05 39.35 69.65 38.45 69.65 37.55 69.65 36.95 69.05 36.3 68.4 36.3 67.55 36.3 66.7 36.95 66.1 37.55 65.5 38.45 65.5 39.35 65.5 40.0 66.1 40.6 66.7 40.6 67.55" fill="#5e6c6d" fill-rule="evenodd" stroke="none"/>
      <path d="M40.15 67.5 Q40.15 68.2 39.65 68.7 39.15 69.2 38.45 69.2 37.75 69.2 37.2 68.7 36.7 68.2 36.7 67.5 36.7 66.8 37.2 66.3 37.75 65.8 38.45 65.8 39.15 65.8 39.65 66.3 40.15 66.8 40.15 67.5" fill="#363d3d" fill-rule="evenodd" stroke="none"/>
      <path d="M40.0 67.5 L39.55 68.55 Q39.1 69.0 38.45 69.0 37.8 69.0 37.35 68.55 36.9 68.1 36.9 67.5 36.9 66.9 37.35 66.45 37.8 66.0 38.45 66.0 39.1 66.0 39.55 66.45 40.0 66.9 40.0 67.5" fill="#cc4040" fill-rule="evenodd" stroke="none"/>
      <path d="M40.0 67.5 L39.55 68.55 Q39.1 69.0 38.45 69.0 37.8 69.0 37.35 68.55 36.9 68.1 36.9 67.5 36.9 66.9 37.35 66.45 37.8 66.0 38.45 66.0 39.1 66.0 39.55 66.45 40.0 66.9 40.0 67.5" fill="url(#gradient7)" fill-rule="evenodd" stroke="none"/>
      <path d="M39.45 67.25 Q39.45 67.75 39.0 67.75 38.55 67.75 38.55 67.25 38.55 66.75 39.0 66.75 39.45 66.75 39.45 67.25" fill="#ea5959" fill-rule="evenodd" stroke="none"/>
      <path d="M47.55 73.6 Q47.55 74.6 46.85 75.25 46.1 75.95 45.1 75.95 44.1 75.95 43.35 75.25 42.65 74.6 42.65 73.6 42.65 72.65 43.35 72.0 44.1 71.3 45.1 71.3 46.1 71.3 46.85 72.0 47.55 72.65 47.55 73.6" fill="#424949" fill-rule="evenodd" stroke="none"/>
      <path d="M47.35 73.45 Q47.35 74.3 46.65 74.95 46.0 75.6 45.05 75.6 44.1 75.6 43.45 74.95 42.75 74.3 42.75 73.45 42.75 72.55 43.45 71.95 44.1 71.3 45.05 71.3 46.0 71.3 46.65 71.95 47.35 72.55 47.35 73.45" fill="#a3b7b6" fill-rule="evenodd" stroke="none"/>
      <path d="M47.2 73.6 Q47.2 74.45 46.6 75.05 45.95 75.65 45.05 75.65 44.15 75.65 43.55 75.05 42.9 74.45 42.9 73.6 42.9 72.75 43.55 72.1 44.15 71.5 45.05 71.5 45.95 71.5 46.6 72.1 47.2 72.75 47.2 73.6" fill="#5e6c6d" fill-rule="evenodd" stroke="none"/>
      <path d="M46.8 73.5 Q46.8 74.2 46.3 74.7 45.75 75.2 45.05 75.2 44.35 75.2 43.8 74.7 43.3 74.2 43.3 73.5 43.3 72.85 43.8 72.35 44.35 71.85 45.05 71.85 45.75 71.85 46.3 72.35 46.8 72.85 46.8 73.5" fill="#363d3d" fill-rule="evenodd" stroke="none"/>
      <path d="M46.65 73.5 L46.2 74.55 Q45.75 75.0 45.05 75.0 44.4 75.0 43.95 74.55 43.5 74.15 43.5 73.5 43.5 72.9 43.95 72.5 44.4 72.05 45.05 72.05 45.7 72.05 46.2 72.5 46.65 72.9 46.65 73.5" fill="#cc4040" fill-rule="evenodd" stroke="none"/>
      <path d="M46.65 73.5 L46.2 74.55 Q45.75 75.0 45.05 75.0 44.4 75.0 43.95 74.55 43.5 74.15 43.5 73.5 43.5 72.9 43.95 72.5 44.4 72.05 45.05 72.05 45.7 72.05 46.2 72.5 46.65 72.9 46.65 73.5" fill="url(#gradient8)" fill-rule="evenodd" stroke="none"/>
      <path d="M46.05 73.25 Q46.05 73.75 45.6 73.75 45.15 73.75 45.15 73.25 45.15 72.8 45.6 72.8 46.05 72.8 46.05 73.25" fill="#ea5959" fill-rule="evenodd" stroke="none"/>
      <path d="M47.5 67.8 Q47.5 68.8 46.8 69.45 46.05 70.15 45.05 70.15 44.05 70.15 43.3 69.45 42.6 68.8 42.6 67.8 42.6 66.85 43.3 66.15 44.05 65.5 45.05 65.5 46.05 65.5 46.8 66.15 47.5 66.85 47.5 67.8" fill="#424949" fill-rule="evenodd" stroke="none"/>
      <path d="M47.3 67.65 Q47.3 68.5 46.65 69.15 46.0 69.8 45.05 69.8 44.1 69.8 43.4 69.15 42.75 68.55 42.75 67.65 42.75 66.75 43.4 66.15 44.1 65.5 45.05 65.5 46.0 65.5 46.65 66.15 47.3 66.75 47.3 67.65" fill="#a3b7b6" fill-rule="evenodd" stroke="none"/>
      <path d="M47.2 67.75 Q47.2 68.6 46.55 69.25 45.9 69.85 45.05 69.85 44.15 69.85 43.5 69.25 42.85 68.6 42.85 67.75 42.85 66.9 43.5 66.3 44.15 65.7 45.05 65.7 45.9 65.7 46.55 66.3 47.2 66.95 47.2 67.75" fill="#5e6c6d" fill-rule="evenodd" stroke="none"/>
      <path d="M46.75 67.7 Q46.75 68.4 46.25 68.9 45.7 69.4 45.0 69.4 44.3 69.4 43.75 68.9 43.25 68.4 43.25 67.7 43.25 67.05 43.75 66.55 44.3 66.05 45.0 66.05 45.7 66.05 46.25 66.55 46.75 67.05 46.75 67.7" fill="#363d3d" fill-rule="evenodd" stroke="none"/>
      <path d="M46.6 67.7 L46.15 68.75 45.05 69.2 Q44.4 69.2 43.95 68.75 43.5 68.35 43.5 67.7 43.5 67.1 43.95 66.65 44.4 66.2 45.05 66.2 45.7 66.2 46.15 66.65 46.6 67.1 46.6 67.7" fill="#cc4040" fill-rule="evenodd" stroke="none"/>
      <path d="M46.6 67.7 L46.15 68.75 45.05 69.2 Q44.4 69.2 43.95 68.75 43.5 68.35 43.5 67.7 43.5 67.1 43.95 66.65 44.4 66.2 45.05 66.2 45.7 66.2 46.15 66.65 46.6 67.1 46.6 67.7" fill="url(#gradient9)" fill-rule="evenodd" stroke="none"/>
      <path d="M46.05 67.45 Q46.05 67.95 45.6 67.95 45.1 67.95 45.1 67.45 45.1 66.95 45.6 66.95 46.05 66.95 46.05 67.45" fill="#ea5959" fill-rule="evenodd" stroke="none"/>
      <path d="M21.1 63.05 L50.0 63.05 48.9 63.65 21.5 63.65 21.1 63.05" fill="#1e2d30" fill-rule="evenodd" stroke="none"/>
      <path d="M50.0 77.75 L20.65 77.75 21.5 76.95 48.9 76.95 50.0 77.75" fill="#2d4145" fill-rule="evenodd" stroke="none"/>
      <path d="M21.5 63.6 L48.9 63.6 48.5 64.05 22.0 64.05 21.5 63.6" fill="#697777" fill-rule="evenodd" stroke="none"/>
      <path d="M48.9 76.95 L21.5 76.95 22.0 76.45 48.5 76.45 48.9 76.95" fill="#363d3d" fill-rule="evenodd" stroke="none"/>
      <path d="M22.0 64.05 L48.5 64.05 48.5 64.3 22.0 64.3 22.0 64.05" fill="#829293" fill-rule="evenodd" stroke="none"/>
      <path d="M22.45 21.7 L48.6 21.55 52.5 26.75 52.5 44.55 49.05 48.3 22.5 48.3 17.8 43.2 17.8 26.75 22.45 21.7" fill="#505b5b" fill-rule="evenodd" stroke="none"/>
      <path d="M23.3 22.3 L47.8 22.15 51.4 27.1 51.4 44.05 48.15 47.65 23.35 47.65 19.0 42.8 19.0 27.1 23.3 22.3" fill="#5e6c6d" fill-rule="evenodd" stroke="none"/>
      <path d="M23.5 23.9 L47.25 23.95 50.3 27.95 50.3 42.8 47.25 45.95 23.95 45.95 19.8 41.7 19.8 27.95 23.5 23.9" fill="#3f4949" fill-rule="evenodd" stroke="none"/>
      <path d="M24.0 24.05 L47.2 24.15 50.1 27.6 50.1 41.95 47.15 45.0 24.55 45.0 20.6 40.9 20.7 27.8 24.0 24.05" fill="#000000" fill-rule="evenodd" stroke="none"/>
      <path d="M22.45 21.7 L48.6 21.55 47.7 22.4 22.8 22.4 22.45 21.7" fill="#829393" fill-rule="evenodd" stroke="none"/>
      <path d="M47.7 22.4 L48.6 21.55 52.5 26.75 51.3 26.9 47.7 22.4" fill="#748687" fill-rule="evenodd" stroke="none"/>
      <path d="M22.45 21.7 L23.1 22.45 19.0 27.1 17.8 26.75 17.85 26.45 22.45 21.7" fill="#748687" fill-rule="evenodd" stroke="none"/>
      <path d="M22.4 48.65 L23.35 47.65 48.15 47.65 48.95 48.65 22.4 48.65" fill="#363d3d" fill-rule="evenodd" stroke="none"/>
      <path d="M51.4 44.05 L52.5 44.55 48.95 48.65 48.15 47.65 51.4 44.05" fill="#444c4c" fill-rule="evenodd" stroke="none"/>
      <path d="M22.4 48.65 L17.8 43.2 19.0 42.8 23.35 47.65 22.4 48.65" fill="#444c4c" fill-rule="evenodd" stroke="none"/>
      <path d="M23.3 22.3 L47.8 22.15 47.7 22.4 23.1 22.45 23.3 22.3" fill="#a3b7b6" fill-rule="evenodd" stroke="none"/>
      <path d="M23.7 46.4 L19.8 41.7 23.95 45.95 47.25 45.95 50.3 42.8 47.45 46.2 23.7 46.4" fill="#a3b7b6" fill-rule="evenodd" stroke="none"/>
      <path d="M24.7 30.85 L24.7 42.5 23.45 42.5 23.45 30.85 24.7 30.85" fill="#ffe783" fill-rule="evenodd" stroke="none"/>
      <path d="M28.25 30.9 L28.25 42.6 27.05 42.6 27.05 30.9 28.25 30.9" fill="#ffe783" fill-rule="evenodd" stroke="none"/>
      <path d="M41.25 32.9 L31.25 32.9 31.25 31.4 41.25 31.4 41.25 32.9" fill="#b9e07c" fill-rule="evenodd" stroke="none"/>
      <path d="M47.75 28.9 L22.75 28.9 22.75 27.4 47.75 27.4 47.75 28.9" fill="#ffe783" fill-rule="evenodd" stroke="none"/>
      <path d="M41.25 36.9 L31.25 36.9 31.25 35.4 41.25 35.4 41.25 36.9" fill="#b9e07c" fill-rule="evenodd" stroke="none"/>
      <path d="M41.25 40.4 L41.25 41.9 31.25 41.9 31.25 40.4 41.25 40.4" fill="#b9e07c" fill-rule="evenodd" stroke="none"/>
      <path d="M47.15 36.0 Q47.15 37.0 46.55 37.7 45.9 38.4 45.0 38.4 44.15 38.4 43.5 37.7 42.9 37.0 42.9 36.0 42.9 35.05 43.5 34.35 44.15 33.65 45.0 33.65 45.9 33.65 46.55 34.35 47.15 35.0 47.15 36.0" fill="#ffbd6e" fill-rule="evenodd" stroke="none"/>
      <path d="M27.5 35.65 Q27.5 39.95 26.35 43.05 25.25 46.1 23.65 46.1 22.05 46.1 20.95 43.05 19.8 39.95 19.8 35.65 19.8 31.3 20.95 28.25 22.05 25.15 23.65 25.15 25.25 25.15 26.35 28.25 27.5 31.3 27.5 35.65" fill="url(#gradient10)" fill-rule="evenodd" stroke="none"/>
      <path d="M31.5 35.65 Q31.5 39.95 30.35 43.05 29.25 46.1 27.65 46.1 26.05 46.1 24.95 43.05 23.8 39.95 23.8 35.65 23.8 31.3 24.95 28.25 26.05 25.15 27.65 25.15 29.25 25.15 30.35 28.25 31.5 31.3 31.5 35.65" fill="url(#gradient11)" fill-rule="evenodd" stroke="none"/>
      <path d="M35.25 31.7 Q29.05 31.7 24.65 30.6 20.25 29.45 20.25 27.9 20.25 26.3 24.65 25.15 29.05 24.05 35.25 24.05 41.5 24.05 45.85 25.15 50.25 26.3 50.25 27.9 50.25 29.5 45.85 30.6 41.45 31.7 35.25 31.7" fill="url(#gradient12)" fill-rule="evenodd" stroke="none"/>
      <path d="M49.6 36.1 Q49.6 38.25 48.3 39.75 47.0 41.25 45.15 41.25 43.3 41.25 42.0 39.75 40.7 38.25 40.7 36.1 40.7 34.0 42.0 32.5 43.3 30.95 45.15 30.95 47.0 30.95 48.3 32.5 49.6 34.0 49.6 36.1" fill="url(#gradient13)" fill-rule="evenodd" stroke="none"/>
      <path d="M43.25 32.0 Q43.25 33.3 41.25 34.25 39.25 35.15 36.4 35.15 33.6 35.15 31.55 34.25 29.55 33.3 29.55 32.0 29.55 30.7 31.55 29.75 33.6 28.85 36.4 28.85 39.25 28.85 41.25 29.75 43.25 30.7 43.25 32.0" fill="url(#gradient14)" fill-rule="evenodd" stroke="none"/>
      <path d="M42.5 35.75 Q42.5 37.05 40.5 38.0 38.5 38.9 35.65 38.9 32.85 38.9 30.8 38.0 28.8 37.05 28.8 35.75 28.8 34.45 30.8 33.5 32.85 32.6 35.65 32.6 38.5 32.6 40.5 33.5 42.5 34.45 42.5 35.75" fill="url(#gradient15)" fill-rule="evenodd" stroke="none"/>
      <path d="M42.75 41.0 Q42.75 42.3 40.75 43.25 38.75 44.15 35.9 44.15 33.1 44.15 31.05 43.25 29.05 42.3 29.05 41.0 29.05 39.7 31.05 38.75 33.1 37.85 35.9 37.85 38.75 37.85 40.75 38.75 42.75 39.7 42.75 41.0" fill="url(#gradient16)" fill-rule="evenodd" stroke="none"/>
    </g>
    <linearGradient gradientTransform="matrix(0.0, -0.0771, -0.0771, 0.0, 41.7, 35.0)" gradientUnits="userSpaceOnUse" id="gradient1" spreadMethod="pad" x1="-819.2" x2="819.2">
      <stop offset="0.03137254901960784" stop-color="#231f20" stop-opacity="0.0"/>
      <stop offset="0.043137254901960784" stop-color="#272526" stop-opacity="0.0"/>
      <stop offset="0.13725490196078433" stop-color="#4d5858" stop-opacity="0.023529412"/>
      <stop offset="0.24313725490196078" stop-color="#6f8485" stop-opacity="0.043137256"/>
      <stop offset="0.34509803921568627" stop-color="#8baaab" stop-opacity="0.05882353"/>
      <stop offset="0.4549019607843137" stop-color="#a2c9c9" stop-opacity="0.07450981"/>
      <stop offset="0.5686274509803921" stop-color="#b4e1e1" stop-opacity="0.08627451"/>
      <stop offset="0.6862745098039216" stop-color="#c0f2f2" stop-opacity="0.09019608"/>
      <stop offset="0.8156862745098039" stop-color="#c8fcfc" stop-opacity="0.09803922"/>
      <stop offset="0.9803921568627451" stop-color="#caffff" stop-opacity="0.09803922"/>
    </linearGradient>
    <radialGradient cx="0" cy="0" gradientTransform="matrix(0.0045, 0.0, 0.0, -0.0044, 24.85, 73.75)" gradientUnits="userSpaceOnUse" id="gradient2" r="819.2" spreadMethod="pad">
      <stop offset="0.1450980392156863" stop-color="#130c0e" stop-opacity="0.0"/>
      <stop offset="0.4980392156862745" stop-color="#130c0e" stop-opacity="0.6509804"/>
      <stop offset="0.6235294117647059" stop-color="#130c0e" stop-opacity="0.9490196"/>
    </radialGradient>
    <radialGradient cx="0" cy="0" gradientTransform="matrix(0.0045, 0.0, 0.0, -0.0044, 31.7, 73.55)" gradientUnits="userSpaceOnUse" id="gradient3" r="819.2" spreadMethod="pad">
      <stop offset="0.1450980392156863" stop-color="#130c0e" stop-opacity="0.0"/>
      <stop offset="0.4980392156862745" stop-color="#130c0e" stop-opacity="0.6509804"/>
      <stop offset="0.6235294117647059" stop-color="#130c0e" stop-opacity="0.9490196"/>
    </radialGradient>
    <radialGradient cx="0" cy="0" gradientTransform="matrix(0.0045, 0.0, 0.0, -0.0044, 38.4, 73.6)" gradientUnits="userSpaceOnUse" id="gradient4" r="819.2" spreadMethod="pad">
      <stop offset="0.1450980392156863" stop-color="#130c0e" stop-opacity="0.0"/>
      <stop offset="0.4980392156862745" stop-color="#130c0e" stop-opacity="0.6509804"/>
      <stop offset="0.6235294117647059" stop-color="#130c0e" stop-opacity="0.9490196"/>
    </radialGradient>
    <radialGradient cx="0" cy="0" gradientTransform="matrix(0.0045, 0.0, 0.0, -0.0044, 24.9, 67.6)" gradientUnits="userSpaceOnUse" id="gradient5" r="819.2" spreadMethod="pad">
      <stop offset="0.1450980392156863" stop-color="#130c0e" stop-opacity="0.0"/>
      <stop offset="0.4980392156862745" stop-color="#130c0e" stop-opacity="0.6509804"/>
      <stop offset="0.6235294117647059" stop-color="#130c0e" stop-opacity="0.9490196"/>
    </radialGradient>
    <radialGradient cx="0" cy="0" gradientTransform="matrix(0.0045, 0.0, 0.0, -0.0044, 31.75, 67.45)" gradientUnits="userSpaceOnUse" id="gradient6" r="819.2" spreadMethod="pad">
      <stop offset="0.1450980392156863" stop-color="#130c0e" stop-opacity="0.0"/>
      <stop offset="0.4980392156862745" stop-color="#130c0e" stop-opacity="0.6509804"/>
      <stop offset="0.6235294117647059" stop-color="#130c0e" stop-opacity="0.9490196"/>
    </radialGradient>
    <radialGradient cx="0" cy="0" gradientTransform="matrix(0.0045, 0.0, 0.0, -0.0044, 38.45, 67.5)" gradientUnits="userSpaceOnUse" id="gradient7" r="819.2" spreadMethod="pad">
      <stop offset="0.1450980392156863" stop-color="#130c0e" stop-opacity="0.0"/>
      <stop offset="0.4980392156862745" stop-color="#130c0e" stop-opacity="0.6509804"/>
      <stop offset="0.6235294117647059" stop-color="#130c0e" stop-opacity="0.9490196"/>
    </radialGradient>
    <radialGradient cx="0" cy="0" gradientTransform="matrix(0.0045, 0.0, 0.0, -0.0044, 45.05, 73.5)" gradientUnits="userSpaceOnUse" id="gradient8" r="819.2" spreadMethod="pad">
      <stop offset="0.1450980392156863" stop-color="#130c0e" stop-opacity="0.0"/>
      <stop offset="0.4980392156862745" stop-color="#130c0e" stop-opacity="0.6509804"/>
      <stop offset="0.6235294117647059" stop-color="#130c0e" stop-opacity="0.9490196"/>
    </radialGradient>
    <radialGradient cx="0" cy="0" gradientTransform="matrix(0.0045, 0.0, 0.0, -0.0044, 45.05, 67.7)" gradientUnits="userSpaceOnUse" id="gradient9" r="819.2" spreadMethod="pad">
      <stop offset="0.1450980392156863" stop-color="#130c0e" stop-opacity="0.0"/>
      <stop offset="0.4980392156862745" stop-color="#130c0e" stop-opacity="0.6509804"/>
      <stop offset="0.6235294117647059" stop-color="#130c0e" stop-opacity="0.9490196"/>
    </radialGradient>
    <radialGradient cx="0" cy="0" gradientTransform="matrix(0.009, 0.0, 0.0, -0.0299, 23.65, 35.65)" gradientUnits="userSpaceOnUse" id="gradient10" r="819.2" spreadMethod="pad">
      <stop offset="0.03529411764705882" stop-color="#fff3c0" stop-opacity="0.49803922"/>
      <stop offset="0.0392156862745098" stop-color="#fdf1be" stop-opacity="0.49411765"/>
      <stop offset="0.13725490196078433" stop-color="#cac09a" stop-opacity="0.3764706"/>
      <stop offset="0.23921568627450981" stop-color="#9e9579" stop-opacity="0.2784314"/>
      <stop offset="0.34509803921568627" stop-color="#78715e" stop-opacity="0.19215687"/>
      <stop offset="0.4588235294117647" stop-color="#595347" stop-opacity="0.12156863"/>
      <stop offset="0.5725490196078431" stop-color="#413c36" stop-opacity="0.06666667"/>
      <stop offset="0.6941176470588235" stop-color="#302c2a" stop-opacity="0.02745098"/>
      <stop offset="0.8274509803921568" stop-color="#262222" stop-opacity="0.003921569"/>
      <stop offset="0.9921568627450981" stop-color="#231f20" stop-opacity="0.0"/>
    </radialGradient>
    <radialGradient cx="0" cy="0" gradientTransform="matrix(0.009, 0.0, 0.0, -0.0299, 27.65, 35.65)" gradientUnits="userSpaceOnUse" id="gradient11" r="819.2" spreadMethod="pad">
      <stop offset="0.03529411764705882" stop-color="#fff3c0" stop-opacity="0.49803922"/>
      <stop offset="0.0392156862745098" stop-color="#fdf1be" stop-opacity="0.49411765"/>
      <stop offset="0.13725490196078433" stop-color="#cac09a" stop-opacity="0.3764706"/>
      <stop offset="0.23921568627450981" stop-color="#9e9579" stop-opacity="0.2784314"/>
      <stop offset="0.34509803921568627" stop-color="#78715e" stop-opacity="0.19215687"/>
      <stop offset="0.4588235294117647" stop-color="#595347" stop-opacity="0.12156863"/>
      <stop offset="0.5725490196078431" stop-color="#413c36" stop-opacity="0.06666667"/>
      <stop offset="0.6941176470588235" stop-color="#302c2a" stop-opacity="0.02745098"/>
      <stop offset="0.8274509803921568" stop-color="#262222" stop-opacity="0.003921569"/>
      <stop offset="0.9921568627450981" stop-color="#231f20" stop-opacity="0.0"/>
    </radialGradient>
    <radialGradient cx="0" cy="0" gradientTransform="matrix(0.0, 0.009, 0.0428, 0.0, 35.25, 27.9)" gradientUnits="userSpaceOnUse" id="gradient12" r="819.2" spreadMethod="pad">
      <stop offset="0.03529411764705882" stop-color="#fff3c0" stop-opacity="0.49803922"/>
      <stop offset="0.0392156862745098" stop-color="#fdf1be" stop-opacity="0.49411765"/>
      <stop offset="0.13725490196078433" stop-color="#cac09a" stop-opacity="0.3764706"/>
      <stop offset="0.23921568627450981" stop-color="#9e9579" stop-opacity="0.2784314"/>
      <stop offset="0.34509803921568627" stop-color="#78715e" stop-opacity="0.19215687"/>
      <stop offset="0.4588235294117647" stop-color="#595347" stop-opacity="0.12156863"/>
      <stop offset="0.5725490196078431" stop-color="#413c36" stop-opacity="0.06666667"/>
      <stop offset="0.6941176470588235" stop-color="#302c2a" stop-opacity="0.02745098"/>
      <stop offset="0.8274509803921568" stop-color="#262222" stop-opacity="0.003921569"/>
      <stop offset="0.9921568627450981" stop-color="#231f20" stop-opacity="0.0"/>
    </radialGradient>
    <radialGradient cx="0" cy="0" gradientTransform="matrix(0.0147, 0.0, 0.0, -0.0206, 45.15, 36.1)" gradientUnits="userSpaceOnUse" id="gradient13" r="819.2" spreadMethod="pad">
      <stop offset="0.0" stop-color="#ffb966" stop-opacity="0.49803922"/>
      <stop offset="0.00392156862745098" stop-color="#fdb765" stop-opacity="0.49411765"/>
      <stop offset="0.10588235294117647" stop-color="#ca9455" stop-opacity="0.3764706"/>
      <stop offset="0.21176470588235294" stop-color="#9e7547" stop-opacity="0.2784314"/>
      <stop offset="0.3254901960784314" stop-color="#785a3b" stop-opacity="0.19215687"/>
      <stop offset="0.4392156862745098" stop-color="#594531" stop-opacity="0.12156863"/>
      <stop offset="0.5568627450980392" stop-color="#41342a" stop-opacity="0.06666667"/>
      <stop offset="0.6823529411764706" stop-color="#302824" stop-opacity="0.02745098"/>
      <stop offset="0.8196078431372549" stop-color="#262121" stop-opacity="0.003921569"/>
      <stop offset="0.9921568627450981" stop-color="#231f20" stop-opacity="0.0"/>
    </radialGradient>
    <radialGradient cx="0" cy="0" gradientTransform="matrix(0.0226, 0.0, 0.0, -0.0127, 36.4, 32.0)" gradientUnits="userSpaceOnUse" id="gradient14" r="819.2" spreadMethod="pad">
      <stop offset="0.0" stop-color="#b9e07c" stop-opacity="0.49803922"/>
      <stop offset="0.058823529411764705" stop-color="#a4c56f" stop-opacity="0.42745098"/>
      <stop offset="0.16862745098039217" stop-color="#829a5a" stop-opacity="0.3137255"/>
      <stop offset="0.28627450980392155" stop-color="#657448" stop-opacity="0.21568628"/>
      <stop offset="0.40784313725490196" stop-color="#4d553a" stop-opacity="0.13725491"/>
      <stop offset="0.5333333333333333" stop-color="#3a3d2e" stop-opacity="0.07450981"/>
      <stop offset="0.6666666666666666" stop-color="#2d2c26" stop-opacity="0.03137255"/>
      <stop offset="0.8117647058823529" stop-color="#252222" stop-opacity="0.007843138"/>
      <stop offset="0.9921568627450981" stop-color="#231f20" stop-opacity="0.0"/>
    </radialGradient>
    <radialGradient cx="0" cy="0" gradientTransform="matrix(0.0226, 0.0, 0.0, -0.0127, 35.65, 35.75)" gradientUnits="userSpaceOnUse" id="gradient15" r="819.2" spreadMethod="pad">
      <stop offset="0.0" stop-color="#b9e07c" stop-opacity="0.49803922"/>
      <stop offset="0.058823529411764705" stop-color="#a4c56f" stop-opacity="0.42745098"/>
      <stop offset="0.16862745098039217" stop-color="#829a5a" stop-opacity="0.3137255"/>
      <stop offset="0.28627450980392155" stop-color="#657448" stop-opacity="0.21568628"/>
      <stop offset="0.40784313725490196" stop-color="#4d553a" stop-opacity="0.13725491"/>
      <stop offset="0.5333333333333333" stop-color="#3a3d2e" stop-opacity="0.07450981"/>
      <stop offset="0.6666666666666666" stop-color="#2d2c26" stop-opacity="0.03137255"/>
      <stop offset="0.8117647058823529" stop-color="#252222" stop-opacity="0.007843138"/>
      <stop offset="0.9921568627450981" stop-color="#231f20" stop-opacity="0.0"/>
    </radialGradient>
    <radialGradient cx="0" cy="0" gradientTransform="matrix(0.0226, 0.0, 0.0, -0.0127, 35.9, 41.0)" gradientUnits="userSpaceOnUse" id="gradient16" r="819.2" spreadMethod="pad">
      <stop offset="0.0" stop-color="#b9e07c" stop-opacity="0.49803922"/>
      <stop offset="0.058823529411764705" stop-color="#a4c56f" stop-opacity="0.42745098"/>
      <stop offset="0.16862745098039217" stop-color="#829a5a" stop-opacity="0.3137255"/>
      <stop offset="0.28627450980392155" stop-color="#657448" stop-opacity="0.21568628"/>
      <stop offset="0.40784313725490196" stop-color="#4d553a" stop-opacity="0.13725491"/>
      <stop offset="0.5333333333333333" stop-color="#3a3d2e" stop-opacity="0.07450981"/>
      <stop offset="0.6666666666666666" stop-color="#2d2c26" stop-opacity="0.03137255"/>
      <stop offset="0.8117647058823529" stop-color="#252222" stop-opacity="0.007843138"/>
      <stop offset="0.9921568627450981" stop-color="#231f20" stop-opacity="0.0"/>
    </radialGradient>
    <g id="shape2" transform="matrix(1.0, 0.0, 0.0, 1.0, 5.05, 6.35)">
      <path d="M-1.4 5.2 L-1.4 -4.25 1.65 -4.25 1.65 5.2 -1.4 5.2" fill="#1c2a2e" fill-rule="evenodd" stroke="none"/>
      <path d="M-0.6 4.0 L-0.6 -3.05 0.85 -3.05 0.85 4.0 -0.6 4.0" fill="#caffff" fill-rule="evenodd" stroke="none"/>
      <path d="M-5.05 0.0 Q-5.05 -2.6 -3.55 -4.5 -2.05 -6.35 0.05 -6.35 2.15 -6.35 3.65 -4.5 5.1 -2.65 5.1 0.0 5.1 2.65 3.65 4.5 2.15 6.35 0.05 6.35 -2.05 6.35 -3.55 4.5 -5.05 2.6 -5.05 0.0" fill="url(#gradient17)" fill-rule="evenodd" stroke="none"/>
    </g>
    <radialGradient cx="0" cy="0" gradientTransform="matrix(-0.0119, 0.0, 0.0, -0.0181, 0.05, 0.0)" gradientUnits="userSpaceOnUse" id="gradient17" r="819.2" spreadMethod="pad">
      <stop offset="0.03137254901960784" stop-color="#caffff" stop-opacity="0.49803922"/>
      <stop offset="0.043137254901960784" stop-color="#c6f9f9" stop-opacity="0.4862745"/>
      <stop offset="0.1411764705882353" stop-color="#a0c6c7" stop-opacity="0.37254903"/>
      <stop offset="0.24313725490196078" stop-color="#7e9a9a" stop-opacity="0.27058825"/>
      <stop offset="0.34901960784313724" stop-color="#627474" stop-opacity="0.1882353"/>
      <stop offset="0.4588235294117647" stop-color="#4b5556" stop-opacity="0.11764706"/>
      <stop offset="0.5725490196078431" stop-color="#393d3e" stop-opacity="0.06666667"/>
      <stop offset="0.6941176470588235" stop-color="#2d2c2d" stop-opacity="0.02745098"/>
      <stop offset="0.8274509803921568" stop-color="#252223" stop-opacity="0.003921569"/>
      <stop offset="0.9921568627450981" stop-color="#231f20" stop-opacity="0.0"/>
    </radialGradient>
    <g id="shape3" transform="matrix(1.0, 0.0, 0.0, 1.0, 5.05, 6.35)">
      <path d="M-1.4 5.2 L-1.4 -4.25 1.65 -4.25 1.65 5.2 -1.4 5.2" fill="#1c2a2e" fill-rule="evenodd" stroke="none"/>
      <path d="M-0.6 4.0 L-0.6 -3.05 0.85 -3.05 0.85 4.0 -0.6 4.0" fill="#caffff" fill-rule="evenodd" stroke="none"/>
      <path d="M-5.05 0.0 Q-5.05 -2.6 -3.55 -4.5 -2.05 -6.35 0.05 -6.35 2.15 -6.35 3.65 -4.5 5.1 -2.65 5.1 0.0 5.1 2.65 3.65 4.5 2.15 6.35 0.05 6.35 -2.05 6.35 -3.55 4.5 -5.05 2.6 -5.05 0.0" fill="url(#gradient18)" fill-rule="evenodd" stroke="none"/>
    </g>
    <radialGradient cx="0" cy="0" gradientTransform="matrix(-0.0119, 0.0, 0.0, -0.0181, 0.05, 0.0)" gradientUnits="userSpaceOnUse" id="gradient18" r="819.2" spreadMethod="pad">
      <stop offset="0.03137254901960784" stop-color="#caffff" stop-opacity="0.49803922"/>
      <stop offset="0.043137254901960784" stop-color="#c6f9f9" stop-opacity="0.4862745"/>
      <stop offset="0.1411764705882353" stop-color="#a0c6c7" stop-opacity="0.37254903"/>
      <stop offset="0.24313725490196078" stop-color="#7e9a9a" stop-opacity="0.27058825"/>
      <stop offset="0.34901960784313724" stop-color="#627474" stop-opacity="0.1882353"/>
      <stop offset="0.4588235294117647" stop-color="#4b5556" stop-opacity="0.11764706"/>
      <stop offset="0.5725490196078431" stop-color="#393d3e" stop-opacity="0.06666667"/>
      <stop offset="0.6941176470588235" stop-color="#2d2c2d" stop-opacity="0.02745098"/>
      <stop offset="0.8274509803921568" stop-color="#252223" stop-opacity="0.003921569"/>
      <stop offset="0.9921568627450981" stop-color="#231f20" stop-opacity="0.0"/>
    </radialGradient>
    <g id="shape4" transform="matrix(1.0, 0.0, 0.0, 1.0, 5.05, 6.35)">
      <path d="M-1.4 5.2 L-1.4 -4.25 1.65 -4.25 1.65 5.2 -1.4 5.2" fill="#1c2a2e" fill-opacity="0.5254902" fill-rule="evenodd" stroke="none"/>
      <path d="M-0.6 4.0 L-0.6 -3.05 0.85 -3.05 0.85 4.0 -0.6 4.0" fill="#caffff" fill-opacity="0.5254902" fill-rule="evenodd" stroke="none"/>
      <path d="M-5.05 0.0 Q-5.05 -2.6 -3.55 -4.5 -2.05 -6.35 0.05 -6.35 2.15 -6.35 3.65 -4.5 5.1 -2.65 5.1 0.0 5.1 2.65 3.65 4.5 2.15 6.35 0.05 6.35 -2.05 6.35 -3.55 4.5 -5.05 2.6 -5.05 0.0" fill="url(#gradient19)" fill-rule="evenodd" stroke="none"/>
    </g>
    <radialGradient cx="0" cy="0" gradientTransform="matrix(-0.0119, 0.0, 0.0, -0.0181, 0.05, 0.0)" gradientUnits="userSpaceOnUse" id="gradient19" r="819.2" spreadMethod="pad">
      <stop offset="0.03137254901960784" stop-color="#caffff" stop-opacity="0.25882354"/>
      <stop offset="0.043137254901960784" stop-color="#c6f9f9" stop-opacity="0.25490198"/>
      <stop offset="0.1411764705882353" stop-color="#a0c6c7" stop-opacity="0.19607843"/>
      <stop offset="0.24313725490196078" stop-color="#7e9a9a" stop-opacity="0.14117648"/>
      <stop offset="0.34901960784313724" stop-color="#627474" stop-opacity="0.09803922"/>
      <stop offset="0.4588235294117647" stop-color="#4b5556" stop-opacity="0.05882353"/>
      <stop offset="0.5725490196078431" stop-color="#393d3e" stop-opacity="0.03137255"/>
      <stop offset="0.6941176470588235" stop-color="#2d2c2d" stop-opacity="0.011764706"/>
      <stop offset="0.8274509803921568" stop-color="#252223" stop-opacity="0.0"/>
      <stop offset="0.9921568627450981" stop-color="#231f20" stop-opacity="0.0"/>
    </radialGradient>
    <g id="shape5" transform="matrix(1.0, 0.0, 0.0, 1.0, 5.05, 6.35)">
      <path d="M-1.4 -4.2 L1.6 -4.2 1.6 5.25 -1.4 5.25 -1.4 -4.2" fill="#1c2a2e" fill-rule="evenodd" stroke="none"/>
      <path d="M-0.65 -3.05 L0.85 -3.05 0.85 4.05 -0.65 4.05 -0.65 -3.05" fill="#caffff" fill-rule="evenodd" stroke="none"/>
      <path d="M-5.05 0.05 Q-5.05 -2.6 -3.55 -4.5 -2.1 -6.35 0.0 -6.35 2.15 -6.35 3.6 -4.5 5.1 -2.6 5.1 0.05 5.1 2.7 3.6 4.55 2.15 6.4 0.0 6.4 -2.1 6.4 -3.55 4.55 -5.05 2.7 -5.05 0.05" fill="url(#gradient20)" fill-rule="evenodd" stroke="none"/>
    </g>
    <radialGradient cx="0" cy="0" gradientTransform="matrix(-0.0119, 0.0, 0.0, -0.0181, 0.0, 0.05)" gradientUnits="userSpaceOnUse" id="gradient20" r="819.2" spreadMethod="pad">
      <stop offset="0.03137254901960784" stop-color="#caffff" stop-opacity="0.49803922"/>
      <stop offset="0.043137254901960784" stop-color="#c6f9f9" stop-opacity="0.4862745"/>
      <stop offset="0.1411764705882353" stop-color="#a0c6c7" stop-opacity="0.37254903"/>
      <stop offset="0.24313725490196078" stop-color="#7e9a9a" stop-opacity="0.27058825"/>
      <stop offset="0.34901960784313724" stop-color="#627474" stop-opacity="0.1882353"/>
      <stop offset="0.4588235294117647" stop-color="#4b5556" stop-opacity="0.11764706"/>
      <stop offset="0.5725490196078431" stop-color="#393d3e" stop-opacity="0.06666667"/>
      <stop offset="0.6941176470588235" stop-color="#2d2c2d" stop-opacity="0.02745098"/>
      <stop offset="0.8274509803921568" stop-color="#252223" stop-opacity="0.003921569"/>
      <stop offset="0.9921568627450981" stop-color="#231f20" stop-opacity="0.0"/>
    </radialGradient>
    <g id="shape6" transform="matrix(1.0, 0.0, 0.0, 1.0, 5.05, 6.35)">
      <path d="M-1.4 -4.2 L1.6 -4.2 1.6 5.25 -1.4 5.25 -1.4 -4.2" fill="#1c2a2e" fill-rule="evenodd" stroke="none"/>
      <path d="M-0.65 -3.05 L0.85 -3.05 0.85 4.05 -0.65 4.05 -0.65 -3.05" fill="#caffff" fill-rule="evenodd" stroke="none"/>
      <path d="M-5.05 0.05 Q-5.05 -2.6 -3.55 -4.5 -2.1 -6.35 0.0 -6.35 2.15 -6.35 3.6 -4.5 5.1 -2.6 5.1 0.05 5.1 2.7 3.6 4.55 2.15 6.4 0.0 6.4 -2.1 6.4 -3.55 4.55 -5.05 2.7 -5.05 0.05" fill="url(#gradient21)" fill-rule="evenodd" stroke="none"/>
    </g>
    <radialGradient cx="0" cy="0" gradientTransform="matrix(-0.0119, 0.0, 0.0, -0.0181, 0.0, 0.05)" gradientUnits="userSpaceOnUse" id="gradient21" r="819.2" spreadMethod="pad">
      <stop offset="0.03137254901960784" stop-color="#caffff" stop-opacity="0.49803922"/>
      <stop offset="0.043137254901960784" stop-color="#c6f9f9" stop-opacity="0.4862745"/>
      <stop offset="0.1411764705882353" stop-color="#a0c6c7" stop-opacity="0.37254903"/>
      <stop offset="0.24313725490196078" stop-color="#7e9a9a" stop-opacity="0.27058825"/>
      <stop offset="0.34901960784313724" stop-color="#627474" stop-opacity="0.1882353"/>
      <stop offset="0.4588235294117647" stop-color="#4b5556" stop-opacity="0.11764706"/>
      <stop offset="0.5725490196078431" stop-color="#393d3e" stop-opacity="0.06666667"/>
      <stop offset="0.6941176470588235" stop-color="#2d2c2d" stop-opacity="0.02745098"/>
      <stop offset="0.8274509803921568" stop-color="#252223" stop-opacity="0.003921569"/>
      <stop offset="0.9921568627450981" stop-color="#231f20" stop-opacity="0.0"/>
    </radialGradient>
    <g id="shape7" transform="matrix(1.0, 0.0, 0.0, 1.0, 5.05, 6.35)">
      <path d="M-1.4 -4.2 L1.6 -4.2 1.6 5.25 -1.4 5.25 -1.4 -4.2" fill="#1c2a2e" fill-opacity="0.5254902" fill-rule="evenodd" stroke="none"/>
      <path d="M-0.65 -3.05 L0.85 -3.05 0.85 4.05 -0.65 4.05 -0.65 -3.05" fill="#caffff" fill-opacity="0.5254902" fill-rule="evenodd" stroke="none"/>
      <path d="M-5.05 0.05 Q-5.05 -2.6 -3.55 -4.5 -2.1 -6.35 0.0 -6.35 2.15 -6.35 3.6 -4.5 5.1 -2.6 5.1 0.05 5.1 2.7 3.6 4.55 2.15 6.4 0.0 6.4 -2.1 6.4 -3.55 4.55 -5.05 2.7 -5.05 0.05" fill="url(#gradient22)" fill-rule="evenodd" stroke="none"/>
    </g>
    <radialGradient cx="0" cy="0" gradientTransform="matrix(-0.0119, 0.0, 0.0, -0.0181, 0.0, 0.05)" gradientUnits="userSpaceOnUse" id="gradient22" r="819.2" spreadMethod="pad">
      <stop offset="0.03137254901960784" stop-color="#caffff" stop-opacity="0.25882354"/>
      <stop offset="0.043137254901960784" stop-color="#c6f9f9" stop-opacity="0.25490198"/>
      <stop offset="0.1411764705882353" stop-color="#a0c6c7" stop-opacity="0.19607843"/>
      <stop offset="0.24313725490196078" stop-color="#7e9a9a" stop-opacity="0.14117648"/>
      <stop offset="0.34901960784313724" stop-color="#627474" stop-opacity="0.09803922"/>
      <stop offset="0.4588235294117647" stop-color="#4b5556" stop-opacity="0.05882353"/>
      <stop offset="0.5725490196078431" stop-color="#393d3e" stop-opacity="0.03137255"/>
      <stop offset="0.6941176470588235" stop-color="#2d2c2d" stop-opacity="0.011764706"/>
      <stop offset="0.8274509803921568" stop-color="#252223" stop-opacity="0.0"/>
      <stop offset="0.9921568627450981" stop-color="#231f20" stop-opacity="0.0"/>
    </radialGradient>
    <g id="shape8" transform="matrix(1.0, 0.0, 0.0, 1.0, 8.35, 50.5)">
      <path d="M-4.55 -22.7 L-4.55 -44.15 -3.4 -44.15 -3.4 -24.15 3.75 -24.35 3.75 26.7 -2.95 26.7 -2.95 47.05 -4.1 47.05 -4.1 24.65 2.05 24.65 2.05 -22.7 -4.55 -22.7" fill="#caffff" fill-opacity="0.8352941" fill-rule="evenodd" stroke="none"/>
      <path d="M-5.9 -20.9 Q-8.35 -22.1 -8.35 -23.75 -8.35 -25.45 -5.9 -26.65 -3.45 -27.85 0.05 -27.85 3.5 -27.85 5.95 -26.65 8.4 -25.45 8.4 -23.75 8.4 -22.1 5.95 -20.9 3.5 -19.7 0.05 -19.7 -3.4 -19.7 -5.9 -20.9" fill="url(#gradient23)" fill-rule="evenodd" stroke="none"/>
      <path d="M-7.55 -33.9 Q-7.55 -40.8 -6.45 -45.65 -5.35 -50.5 -3.8 -50.5 -2.25 -50.5 -1.15 -45.65 -0.05 -40.75 -0.05 -33.9 -0.05 -27.05 -1.15 -22.2 -2.25 -17.35 -3.8 -17.35 -5.35 -17.35 -6.45 -22.2 -7.55 -27.0 -7.55 -33.9" fill="url(#gradient24)" fill-rule="evenodd" stroke="none"/>
      <path d="M0.05 -18.35 Q1.3 -26.5 3.1 -26.5 4.9 -26.5 6.2 -18.35 7.45 -10.2 7.45 1.35 7.45 12.85 6.2 21.0 4.9 29.15 3.1 29.15 1.3 29.15 0.05 21.0 -1.25 12.85 -1.25 1.35 -1.25 -10.2 0.05 -18.35" fill="url(#gradient25)" fill-rule="evenodd" stroke="none"/>
      <path d="M-3.25 21.65 Q-1.95 21.65 -1.0 25.9 -0.1 30.1 -0.1 36.1 -0.1 42.05 -1.0 46.3 -1.95 50.5 -3.25 50.5 -4.55 50.5 -5.5 46.3 -6.4 42.05 -6.4 36.1 -6.4 30.1 -5.5 25.9 -4.55 21.65 -3.25 21.65" fill="url(#gradient26)" fill-rule="evenodd" stroke="none"/>
      <path d="M-0.1 21.15 Q3.2 21.15 5.55 22.45 7.9 23.7 7.9 25.5 7.9 27.3 5.55 28.6 3.2 29.85 -0.1 29.85 -3.45 29.85 -5.8 28.6 -8.15 27.3 -8.15 25.5 -8.15 23.7 -5.8 22.45 -3.45 21.15 -0.1 21.15" fill="url(#gradient27)" fill-rule="evenodd" stroke="none"/>
    </g>
    <radialGradient cx="0" cy="0" gradientTransform="matrix(0.0, 0.0043, -0.0108, 0.0, 0.05, -23.75)" gradientUnits="userSpaceOnUse" id="gradient23" r="819.2" spreadMethod="pad">
      <stop offset="0.0" stop-color="#caffff" stop-opacity="0.7058824"/>
      <stop offset="0.26666666666666666" stop-color="#bef0f0" stop-opacity="0.33333334"/>
      <stop offset="0.592156862745098" stop-color="#b7e6e6" stop-opacity="0.078431375"/>
      <stop offset="1.0" stop-color="#b4e3e3" stop-opacity="0.0"/>
    </radialGradient>
    <radialGradient cx="0" cy="0" gradientTransform="matrix(-0.0046, 0.0, 0.0, -0.0248, -3.8, -33.9)" gradientUnits="userSpaceOnUse" id="gradient24" r="819.2" spreadMethod="pad">
      <stop offset="0.0" stop-color="#caffff" stop-opacity="0.7058824"/>
      <stop offset="0.26666666666666666" stop-color="#bef0f0" stop-opacity="0.33333334"/>
      <stop offset="0.592156862745098" stop-color="#b7e6e6" stop-opacity="0.078431375"/>
      <stop offset="1.0" stop-color="#b4e3e3" stop-opacity="0.0"/>
    </radialGradient>
    <radialGradient cx="0" cy="0" gradientTransform="matrix(-0.0053, 0.0, 0.0, -0.0417, 3.1, 1.35)" gradientUnits="userSpaceOnUse" id="gradient25" r="819.2" spreadMethod="pad">
      <stop offset="0.0" stop-color="#caffff" stop-opacity="0.7058824"/>
      <stop offset="0.26666666666666666" stop-color="#bef0f0" stop-opacity="0.33333334"/>
      <stop offset="0.592156862745098" stop-color="#b7e6e6" stop-opacity="0.078431375"/>
      <stop offset="1.0" stop-color="#b4e3e3" stop-opacity="0.0"/>
    </radialGradient>
    <radialGradient cx="0" cy="0" gradientTransform="matrix(-0.0039, 0.0, 0.0, -0.0216, -3.25, 36.1)" gradientUnits="userSpaceOnUse" id="gradient26" r="819.2" spreadMethod="pad">
      <stop offset="0.0" stop-color="#caffff" stop-opacity="0.7058824"/>
      <stop offset="0.26666666666666666" stop-color="#bef0f0" stop-opacity="0.33333334"/>
      <stop offset="0.592156862745098" stop-color="#b7e6e6" stop-opacity="0.078431375"/>
      <stop offset="1.0" stop-color="#b4e3e3" stop-opacity="0.0"/>
    </radialGradient>
    <radialGradient cx="0" cy="0" gradientTransform="matrix(0.0, -0.0053, 0.012, 0.0, -0.1, 25.5)" gradientUnits="userSpaceOnUse" id="gradient27" r="819.2" spreadMethod="pad">
      <stop offset="0.0" stop-color="#caffff" stop-opacity="0.7058824"/>
      <stop offset="0.26666666666666666" stop-color="#bef0f0" stop-opacity="0.33333334"/>
      <stop offset="0.592156862745098" stop-color="#b7e6e6" stop-opacity="0.078431375"/>
      <stop offset="1.0" stop-color="#b4e3e3" stop-opacity="0.0"/>
    </radialGradient>
  </defs>
</svg>
