<?xml version="1.0" encoding="UTF-8" standalone="no"?>
<svg xmlns:xlink="http://www.w3.org/1999/xlink" height="40.25px" width="43.35px" xmlns="http://www.w3.org/2000/svg">
  <g transform="matrix(1.0, 0.0, 0.0, 1.0, 0.0, 0.0)">
    <use height="10.8" transform="matrix(1.0, 0.0, 0.0, 1.0, 3.95, 29.45)" width="34.45" xlink:href="#shape0"/>
    <use height="12.7" transform="matrix(0.75, 0.0, 0.0, 0.75, 7.15, 30.7)" width="24.3" xlink:href="#sprite0"/>
    <use height="13.1" transform="matrix(0.75, 0.0, 0.0, 0.75, 24.0, 30.2)" width="17.2" xlink:href="#sprite1"/>
    <use height="12.3" transform="matrix(0.75, 0.0, 0.0, 0.75, 4.0, 29.45)" width="12.15" xlink:href="#sprite2"/>
    <use height="12.85" transform="matrix(1.0, 0.0, 0.0, 1.0, 3.8, 21.6)" width="34.95" xlink:href="#shape4"/>
    <use height="10.3" transform="matrix(0.75, 0.0, 0.0, 0.75, 5.4, 24.35)" width="41.8" xlink:href="#sprite3"/>
    <use height="2.6" transform="matrix(0.75, 0.0, 0.0, 0.75, 10.35, 26.7)" width="4.1" xlink:href="#sprite4"/>
    <use height="5.5" transform="matrix(1.0, 0.0, 0.0, 1.0, 8.1, 24.85)" width="27.25" xlink:href="#shape7"/>
    <use height="2.1" transform="matrix(0.75, 0.0, 0.0, 0.75, 29.8, 26.65)" width="3.35" xlink:href="#sprite5"/>
    <use height="8.3" transform="matrix(1.0, 0.0, 0.0, 1.0, 8.5, 25.2)" width="26.95" xlink:href="#shape9"/>
    <use height="10.45" transform="matrix(0.75, 0.0, 0.0, 0.75, 9.4, 25.2)" width="33.5" xlink:href="#sprite6"/>
    <use height="2.95" transform="matrix(0.75, 0.0, 0.0, 0.75, 11.55, 29.75)" width="4.85" xlink:href="#sprite7"/>
    <use height="2.95" transform="matrix(1.0, 0.0, 0.0, 1.0, 12.05, 29.95)" width="18.35" xlink:href="#shape12"/>
    <use height="2.75" transform="matrix(0.75, 0.0, 0.0, 0.75, 20.2, 30.5)" width="4.7" xlink:href="#sprite8"/>
    <use height="9.45" transform="matrix(1.0, 0.0, 0.0, 1.0, 3.7, 25.3)" width="35.1" xlink:href="#shape14"/>
    <use height="26.05" transform="matrix(0.7475, -0.0617, 0.0617, 0.7475, 4.3972, 16.0662)" width="47.0" xlink:href="#sprite9"/>
    <use height="26.05" transform="matrix(0.7499, 0.0072, -0.0072, 0.7499, 2.4643, 8.0622)" width="47.0" xlink:href="#sprite9"/>
    <use height="10.7" transform="matrix(1.0, 0.0, 0.0, 1.0, 7.7, 19.75)" width="18.65" xlink:href="#shape21"/>
  </g>
  <defs>
    <g id="shape0" transform="matrix(1.0, 0.0, 0.0, 1.0, -3.95, -29.45)">
      <path d="M38.25 29.6 L38.4 29.55 Q36.95 34.2 32.2 37.2 27.35 40.25 21.2 40.25 14.95 40.25 10.1 37.15 5.3 34.15 3.95 29.45 L4.25 29.5 Q5.7 30.6 10.4 31.35 L21.35 32.05 32.0 31.35 Q36.65 30.7 38.25 29.6" fill="#d9d9d9" fill-rule="evenodd" stroke="none"/>
    </g>
    <g id="sprite0" transform="matrix(1.0, 0.0, 0.0, 1.0, 0.0, 0.0)">
      <use height="12.7" transform="matrix(1.0, 0.0, 0.0, 1.0, 0.0, 0.0)" width="24.3" xlink:href="#shape1"/>
    </g>
    <g id="shape1" transform="matrix(1.0, 0.0, 0.0, 1.0, 0.0, 0.0)">
      <path d="M24.3 1.7 L21.1 12.6 18.75 12.7 16.0 12.55 12.25 11.55 Q10.1 10.75 8.65 9.8 4.05 6.75 1.55 3.1 0.3 1.25 0.0 0.0 L2.65 0.55 18.95 1.8 24.3 1.7" fill="url(#gradient0)" fill-rule="evenodd" stroke="none"/>
    </g>
    <linearGradient gradientTransform="matrix(0.0096, 0.0, 0.0, -0.0096, 11.35, 6.35)" gradientUnits="userSpaceOnUse" id="gradient0" spreadMethod="pad" x1="-819.2" x2="819.2">
      <stop offset="0.0" stop-color="#ffffff"/>
      <stop offset="1.0" stop-color="#000000"/>
    </linearGradient>
    <g id="sprite1" transform="matrix(1.0, 0.0, 0.0, 1.0, 0.0, 0.0)">
      <use height="13.1" transform="matrix(1.0, 0.0, 0.0, 1.0, 0.0, 0.0)" width="17.2" xlink:href="#shape2"/>
    </g>
    <g id="shape2" transform="matrix(1.0, 0.0, 0.0, 1.0, 0.0, 0.0)">
      <path d="M10.15 1.55 L17.2 0.0 15.8 2.95 Q13.9 5.9 10.0 8.9 6.85 11.35 2.35 12.7 L0.0 13.1 Q6.1 10.75 8.5 6.85 9.65 5.0 10.0 3.45 L10.15 1.55" fill="#595959" fill-rule="evenodd" stroke="none"/>
    </g>
    <g id="sprite2" transform="matrix(1.0, 0.0, 0.0, 1.0, 0.0, 0.0)">
      <use height="12.3" transform="matrix(1.0, 0.0, 0.0, 1.0, 0.0, 0.0)" width="12.15" xlink:href="#shape3"/>
    </g>
    <g id="shape3" transform="matrix(1.0, 0.0, 0.0, 1.0, 0.0, 0.0)">
      <path d="M3.7 5.4 Q7.0 10.05 12.15 12.3 7.75 10.5 4.6 7.45 1.2 4.1 0.0 0.0 L0.35 0.05 1.1 0.5 Q1.9 2.9 3.7 5.4" fill="#595959" fill-rule="evenodd" stroke="none"/>
    </g>
    <g id="shape4" transform="matrix(1.0, 0.0, 0.0, 1.0, -3.8, -21.6)">
      <path d="M33.25 23.6 Q38.25 25.45 38.25 28.1 38.25 30.75 33.25 32.6 28.3 34.45 21.25 34.45 14.25 34.45 9.25 32.6 4.3 30.75 4.3 28.1 4.3 25.45 9.25 23.6 14.25 21.7 21.25 21.7 28.3 21.7 33.25 23.6" fill="url(#gradient1)" fill-rule="evenodd" stroke="none"/>
      <path d="M38.75 27.6 L37.65 27.6 Q37.3 25.3 32.6 23.65 27.85 22.05 21.35 22.05 14.85 22.05 10.1 23.65 5.4 25.3 5.05 27.6 L3.8 27.6 Q4.4 25.1 9.35 23.35 14.45 21.6 21.25 21.6 28.1 21.6 33.15 23.35 38.15 25.1 38.75 27.6" fill="#f5f5f5" fill-rule="evenodd" stroke="none"/>
      <path d="M7.25 27.7 Q7.0 27.7 7.0 27.9 L7.25 28.1 7.55 27.9 7.25 27.7 M10.8 25.25 Q10.25 25.25 10.25 25.75 10.25 26.3 10.8 26.3 11.3 26.3 11.3 25.75 11.3 25.25 10.8 25.25 M9.45 25.8 Q9.15 25.8 9.15 26.1 9.15 26.4 9.45 26.4 L9.8 26.1 Q9.8 25.8 9.45 25.8 M8.55 25.95 L8.15 26.15 7.95 26.5 Q7.95 27.1 8.55 27.1 9.2 27.1 9.2 26.5 9.2 25.95 8.55 25.95 M11.75 25.75 L11.95 25.55 11.75 25.35 11.6 25.55 11.75 25.75 M15.2 25.15 L15.4 24.95 15.2 24.75 15.0 24.95 15.2 25.15 M15.7 24.85 Q15.7 25.2 16.25 25.2 16.75 25.2 16.75 24.85 16.75 24.45 16.25 24.45 15.7 24.45 15.7 24.85 M19.1 24.75 L19.4 24.5 19.1 24.25 Q18.8 24.25 18.8 24.5 18.8 24.75 19.1 24.75 M21.5 24.7 Q22.1 24.7 22.1 24.2 22.1 23.65 21.5 23.65 20.95 23.65 20.95 24.2 20.95 24.7 21.5 24.7 M25.2 24.95 L25.55 24.6 Q25.55 24.25 25.2 24.25 24.8 24.25 24.8 24.6 24.8 24.95 25.2 24.95 M26.15 24.3 Q25.85 24.3 25.85 24.55 25.85 24.85 26.15 24.85 L26.45 24.55 26.15 24.3 M22.75 24.7 Q23.15 24.7 23.15 24.3 23.15 23.95 22.75 23.95 22.3 23.95 22.3 24.3 22.3 24.7 22.75 24.7 M31.7 26.0 Q32.0 26.0 32.0 25.75 L31.7 25.45 Q31.35 25.45 31.35 25.75 31.35 26.0 31.7 26.0 M30.75 25.4 L30.5 25.15 30.3 25.4 30.5 25.6 30.75 25.4 M34.9 27.35 Q35.3 27.35 35.3 26.95 35.3 26.5 34.9 26.5 34.45 26.5 34.45 26.95 34.45 27.35 34.9 27.35 M37.15 27.65 Q37.55 27.9 37.55 28.25 L37.25 29.6 Q32.0 33.35 28.95 33.55 L22.95 34.15 Q18.35 34.45 13.9 33.4 9.45 32.35 7.25 31.3 L6.0 30.5 Q5.45 30.2 5.7 29.2 L6.4 28.0 7.25 26.95 Q7.9 25.6 8.6 25.6 L9.75 25.65 9.95 25.25 Q10.25 24.85 10.85 24.85 L12.25 25.05 15.05 24.4 17.2 24.1 19.45 23.8 22.7 23.6 23.9 23.8 25.25 24.0 29.05 24.5 30.8 25.0 32.05 25.25 32.95 25.05 34.1 25.15 Q35.05 25.6 35.6 26.95 L35.7 27.2 Q35.85 27.4 36.25 27.4 36.8 27.4 37.15 27.65 M37.25 28.45 Q37.25 28.0 36.9 28.0 36.5 28.0 36.5 28.45 36.5 28.8 36.9 28.8 L37.25 28.45 M34.4 26.0 L34.2 25.5 33.75 25.3 33.25 25.5 33.05 26.0 Q33.05 26.7 33.75 26.7 L34.2 26.5 34.4 26.0" fill="#fff2de" fill-rule="evenodd" stroke="none"/>
      <path d="M35.9 31.2 Q34.85 31.95 31.05 33.05 25.65 34.55 20.6 34.35 15.3 34.15 10.15 32.5 5.7 31.1 5.4 30.2 L6.25 30.65 Q5.6 28.7 9.1 26.7 10.45 25.9 14.25 25.15 L21.35 24.4 Q27.1 24.35 31.45 25.8 36.75 27.55 36.75 29.35 36.75 30.55 35.9 31.2" fill="url(#gradient2)" fill-rule="evenodd" stroke="none"/>
    </g>
    <linearGradient gradientTransform="matrix(0.0207, 0.0, 0.0, -0.0207, 21.25, 28.1)" gradientUnits="userSpaceOnUse" id="gradient1" spreadMethod="pad" x1="-819.2" x2="819.2">
      <stop offset="0.0" stop-color="#7d7d7d"/>
      <stop offset="1.0" stop-color="#d4d4d4"/>
    </linearGradient>
    <linearGradient gradientTransform="matrix(0.0191, 0.0, 0.0, -0.0191, 21.05, 29.35)" gradientUnits="userSpaceOnUse" id="gradient2" spreadMethod="pad" x1="-819.2" x2="819.2">
      <stop offset="0.0" stop-color="#eddf9f"/>
      <stop offset="1.0" stop-color="#bfb36b"/>
    </linearGradient>
    <g id="sprite3" transform="matrix(1.0, 0.0, 0.0, 1.0, 0.0, 0.0)">
      <use height="10.3" transform="matrix(1.0, 0.0, 0.0, 1.0, 0.0, 0.0)" width="41.8" xlink:href="#shape5"/>
    </g>
    <g id="shape5" transform="matrix(1.0, 0.0, 0.0, 1.0, 0.0, 0.0)">
      <path d="M41.8 6.6 Q41.8 8.25 40.7 9.1 L40.15 9.1 Q41.2 7.35 40.6 6.35 40.0 5.3 34.3 3.35 32.45 2.7 27.7 2.05 L20.5 1.55 16.3 2.0 12.2 2.7 Q7.0 4.05 5.25 6.4 4.55 7.35 4.3 8.35 4.15 9.05 4.15 10.3 L1.35 8.85 0.0 7.75 1.15 8.35 Q0.3 5.75 4.95 3.1 6.75 2.0 11.8 1.05 17.0 0.05 21.3 0.0 28.95 -0.05 34.75 1.9 41.8 4.2 41.8 6.6" fill="#000000" fill-rule="evenodd" stroke="none"/>
    </g>
    <g id="sprite4" transform="matrix(1.0, 0.0, 0.0, 1.0, 0.0, 0.0)">
      <use height="2.6" transform="matrix(1.0, 0.0, 0.0, 1.0, 0.0, 0.0)" width="4.1" xlink:href="#shape6"/>
    </g>
    <g id="shape6" transform="matrix(1.0, 0.0, 0.0, 1.0, 0.0, 0.0)">
      <path d="M0.0 2.0 Q0.1 1.15 0.65 0.6 1.25 0.0 2.05 0.0 2.85 0.0 3.4 0.5 3.95 1.0 4.1 1.75 3.4 2.6 1.95 2.6 0.75 2.6 0.0 2.0" fill="url(#gradient3)" fill-rule="evenodd" stroke="none"/>
    </g>
    <linearGradient gradientTransform="matrix(0.0025, 0.0, 0.0, -0.0025, 2.05, 1.3)" gradientUnits="userSpaceOnUse" id="gradient3" spreadMethod="pad" x1="-819.2" x2="819.2">
      <stop offset="0.0" stop-color="#fffced"/>
      <stop offset="1.0" stop-color="#e3d998"/>
    </linearGradient>
    <g id="shape7" transform="matrix(1.0, 0.0, 0.0, 1.0, -8.1, -24.85)">
      <path d="M12.95 27.3 L13.25 28.0 12.8 28.25 Q13.0 27.6 12.65 27.25 L12.2 26.95 12.3 26.95 Q12.65 27.05 12.95 27.3" fill="#fdfae8" fill-rule="evenodd" stroke="none"/>
      <path d="M18.15 26.1 Q18.2 25.6 18.55 25.25 18.95 24.85 19.4 24.85 19.9 24.85 20.25 25.2 L20.7 25.95 Q20.25 26.5 19.35 26.5 18.65 26.5 18.15 26.1" fill="url(#gradient4)" fill-rule="evenodd" stroke="none"/>
      <path d="M20.15 26.15 Q20.35 25.6 20.0 25.3 L19.65 25.05 19.5 25.0 19.75 25.05 Q20.05 25.15 20.3 25.35 L20.55 25.95 20.15 26.15" fill="#fdfae8" fill-rule="evenodd" stroke="none"/>
      <path d="M8.1 29.95 Q8.15 29.4 8.5 29.05 8.9 28.65 9.4 28.65 10.5 28.65 10.75 29.8 10.25 30.35 9.35 30.35 8.6 30.35 8.1 29.95" fill="url(#gradient5)" fill-rule="evenodd" stroke="none"/>
      <path d="M10.2 29.95 Q10.4 29.45 10.05 29.1 L9.65 28.8 9.8 28.85 10.3 29.2 10.6 29.8 Q10.5 29.95 10.2 29.95" fill="#fdfae8" fill-rule="evenodd" stroke="none"/>
      <path d="M15.65 27.85 L15.95 27.15 Q16.25 26.9 16.65 26.9 L17.25 27.15 17.6 27.7 Q17.25 28.15 16.55 28.15 L15.65 27.85" fill="url(#gradient6)" fill-rule="evenodd" stroke="none"/>
      <path d="M17.2 27.85 L17.1 27.25 16.7 27.0 16.85 27.05 17.3 27.25 17.45 27.7 17.2 27.85" fill="#fdfae8" fill-rule="evenodd" stroke="none"/>
      <path d="M34.9 27.85 Q35.3 28.15 35.35 28.65 34.9 29.2 33.9 29.2 33.05 29.2 32.6 28.8 32.65 28.3 33.05 27.9 33.45 27.55 33.95 27.55 34.5 27.55 34.9 27.85" fill="url(#gradient7)" fill-rule="evenodd" stroke="none"/>
      <path d="M34.8 28.85 Q35.0 28.3 34.65 28.0 L34.3 27.7 34.35 27.7 34.9 28.05 35.2 28.65 34.8 28.85" fill="#fdfae8" fill-rule="evenodd" stroke="none"/>
      <path d="M29.85 29.7 Q29.9 29.2 30.25 28.9 30.65 28.55 31.1 28.55 L31.95 28.85 32.4 29.55 Q31.85 30.1 31.05 30.1 30.3 30.1 29.85 29.7" fill="url(#gradient8)" fill-rule="evenodd" stroke="none"/>
    </g>
    <linearGradient gradientTransform="matrix(0.0015, 0.0, 0.0, -0.0015, 19.4, 25.7)" gradientUnits="userSpaceOnUse" id="gradient4" spreadMethod="pad" x1="-819.2" x2="819.2">
      <stop offset="0.0" stop-color="#e3dbb6"/>
      <stop offset="1.0" stop-color="#cfc482"/>
    </linearGradient>
    <linearGradient gradientTransform="matrix(0.0016, 0.0, 0.0, -0.0016, 9.4, 29.5)" gradientUnits="userSpaceOnUse" id="gradient5" spreadMethod="pad" x1="-819.2" x2="819.2">
      <stop offset="0.0" stop-color="#fffced"/>
      <stop offset="1.0" stop-color="#e3d998"/>
    </linearGradient>
    <linearGradient gradientTransform="matrix(0.0012, 0.0, 0.0, -0.0012, 16.65, 27.55)" gradientUnits="userSpaceOnUse" id="gradient6" spreadMethod="pad" x1="-819.2" x2="819.2">
      <stop offset="0.0" stop-color="#fffced"/>
      <stop offset="1.0" stop-color="#e3d998"/>
    </linearGradient>
    <linearGradient gradientTransform="matrix(0.0017, 0.0, 0.0, -0.0017, 33.95, 28.35)" gradientUnits="userSpaceOnUse" id="gradient7" spreadMethod="pad" x1="-819.2" x2="819.2">
      <stop offset="0.0" stop-color="#fffced"/>
      <stop offset="1.0" stop-color="#e3d998"/>
    </linearGradient>
    <linearGradient gradientTransform="matrix(0.0015, 0.0, 0.0, -0.0015, 31.1, 29.3)" gradientUnits="userSpaceOnUse" id="gradient8" spreadMethod="pad" x1="-819.2" x2="819.2">
      <stop offset="0.0" stop-color="#fffced"/>
      <stop offset="1.0" stop-color="#e3d998"/>
    </linearGradient>
    <g id="sprite5" transform="matrix(1.0, 0.0, 0.0, 1.0, 0.0, 0.0)">
      <use height="2.1" transform="matrix(1.0, 0.0, 0.0, 1.0, 0.0, 0.0)" width="3.35" xlink:href="#shape8"/>
    </g>
    <g id="shape8" transform="matrix(1.0, 0.0, 0.0, 1.0, 0.0, 0.0)">
      <path d="M0.0 1.6 Q0.1 0.9 0.55 0.45 1.05 0.0 1.7 0.0 2.3 0.0 2.75 0.4 L3.35 1.4 Q2.8 2.1 1.55 2.1 0.6 2.1 0.0 1.6" fill="url(#gradient9)" fill-rule="evenodd" stroke="none"/>
    </g>
    <linearGradient gradientTransform="matrix(0.002, 0.0, 0.0, -0.002, 1.65, 1.05)" gradientUnits="userSpaceOnUse" id="gradient9" spreadMethod="pad" x1="-819.2" x2="819.2">
      <stop offset="0.0" stop-color="#fffced"/>
      <stop offset="1.0" stop-color="#e3d998"/>
    </linearGradient>
    <g id="shape9" transform="matrix(1.0, 0.0, 0.0, 1.0, -8.5, -25.2)">
      <path d="M31.75 27.9 Q31.9 27.4 31.6 27.1 L31.25 26.85 31.1 26.8 31.35 26.85 31.85 27.15 32.15 27.7 31.75 27.9" fill="#fdfae8" fill-rule="evenodd" stroke="none"/>
      <path d="M31.85 29.75 Q32.0 29.25 31.7 28.95 L31.2 28.65 31.45 28.75 31.95 29.05 Q32.3 29.35 32.25 29.55 L31.85 29.75" fill="#fdfae8" fill-rule="evenodd" stroke="none"/>
      <path d="M8.9 29.05 Q9.3 29.05 9.1 29.4 8.9 29.8 8.6 29.7 8.4 29.65 8.55 29.35 L8.9 29.05" fill="#ffffff" fill-rule="evenodd" stroke="none"/>
      <path d="M30.65 27.05 Q31.05 27.2 30.8 27.55 30.5 27.95 30.25 27.8 30.0 27.7 30.2 27.3 30.45 26.95 30.65 27.05" fill="#ffffff" fill-rule="evenodd" stroke="none"/>
      <path d="M11.35 27.15 Q11.9 27.3 11.65 27.75 11.45 28.2 11.0 28.0 10.6 27.85 10.85 27.45 11.1 27.1 11.35 27.15" fill="#ffffff" fill-rule="evenodd" stroke="none"/>
      <path d="M16.35 27.25 L16.55 27.6 16.2 27.85 Q15.9 27.8 16.05 27.5 16.15 27.2 16.35 27.25" fill="#ffffff" fill-rule="evenodd" stroke="none"/>
      <path d="M19.05 25.25 Q19.4 25.4 19.2 25.85 18.95 26.25 18.65 26.0 18.35 25.75 18.55 25.45 18.8 25.15 19.05 25.25" fill="#ffffff" fill-rule="evenodd" stroke="none"/>
      <path d="M30.8 28.9 Q31.0 29.05 30.8 29.4 30.65 29.8 30.35 29.65 30.1 29.5 30.35 29.15 30.5 28.75 30.8 28.9" fill="#ffffff" fill-rule="evenodd" stroke="none"/>
      <path d="M33.5 27.85 Q34.1 27.85 33.7 28.55 L33.35 28.7 33.0 28.5 Q32.85 28.35 33.05 28.1 33.2 27.85 33.5 27.85" fill="#ffffff" fill-rule="evenodd" stroke="none"/>
      <path d="M14.6 26.7 Q16.05 26.75 15.5 27.2 L13.9 27.4 Q13.45 27.25 13.85 27.0 14.25 26.7 14.6 26.7" fill="#ffffff" fill-rule="evenodd" stroke="none"/>
      <path d="M14.45 27.85 Q15.15 27.9 14.8 28.15 L14.0 28.3 Q13.55 28.25 13.75 28.0 L14.45 27.85" fill="#ffffff" fill-rule="evenodd" stroke="none"/>
      <path d="M10.5 30.95 Q11.25 31.0 10.55 31.4 L9.2 31.5 Q8.55 31.25 9.1 31.05 L10.5 30.95" fill="#ffffff" fill-rule="evenodd" stroke="none"/>
      <path d="M16.4 30.0 Q17.85 30.05 17.3 30.55 16.7 31.0 15.95 30.8 15.3 30.6 15.5 30.3 15.65 30.0 16.4 30.0" fill="#ffffff" fill-rule="evenodd" stroke="none"/>
      <path d="M18.65 28.45 Q19.8 28.45 19.4 28.85 19.1 29.3 18.4 29.2 17.8 29.15 17.9 28.8 17.95 28.45 18.65 28.45" fill="#ffffff" fill-rule="evenodd" stroke="none"/>
      <path d="M22.2 26.75 Q22.55 26.8 22.4 27.0 L21.95 27.15 Q21.7 27.15 21.8 26.95 21.9 26.75 22.2 26.75" fill="#ffffff" fill-rule="evenodd" stroke="none"/>
      <path d="M21.8 28.85 Q22.5 28.9 22.0 29.05 L21.2 29.2 Q20.95 29.1 21.2 28.95 L21.8 28.85" fill="#ffffff" fill-rule="evenodd" stroke="none"/>
      <path d="M24.15 29.65 Q24.7 29.8 24.5 30.1 L23.7 30.25 Q23.15 30.1 23.4 29.8 23.65 29.55 24.15 29.65" fill="#ffffff" fill-rule="evenodd" stroke="none"/>
      <path d="M26.9 28.55 Q27.5 28.5 27.35 28.8 27.15 29.1 26.6 29.05 26.05 29.05 26.3 28.8 26.45 28.6 26.9 28.55" fill="#ffffff" fill-rule="evenodd" stroke="none"/>
      <path d="M27.1 30.45 Q28.25 30.55 27.4 31.0 L25.65 31.35 Q24.8 31.25 25.55 30.8 26.25 30.4 27.1 30.45" fill="#ffffff" fill-rule="evenodd" stroke="none"/>
      <path d="M24.1 32.7 Q25.5 32.7 24.9 33.15 24.25 33.65 23.2 33.45 22.25 33.3 22.75 33.0 23.2 32.7 24.1 32.7" fill="#ffffff" fill-rule="evenodd" stroke="none"/>
      <path d="M21.55 32.9 Q22.4 32.95 21.9 33.2 L20.95 33.25 Q20.6 33.2 20.9 33.0 L21.55 32.9" fill="#ffffff" fill-rule="evenodd" stroke="none"/>
      <path d="M29.45 28.15 Q30.35 28.2 30.05 28.55 29.75 28.9 29.15 28.85 28.65 28.8 28.85 28.45 29.0 28.15 29.45 28.15" fill="#ffffff" fill-rule="evenodd" stroke="none"/>
      <path d="M34.65 29.95 Q35.8 30.1 35.3 30.5 L33.85 30.75 Q33.15 30.65 33.65 30.25 34.1 29.85 34.65 29.95" fill="#ffffff" fill-rule="evenodd" stroke="none"/>
    </g>
    <g id="sprite6" transform="matrix(1.0, 0.0, 0.0, 1.0, 0.0, 0.0)">
      <use height="10.45" transform="matrix(1.0, 0.0, 0.0, 1.0, 0.0, 0.0)" width="33.5" xlink:href="#shape10"/>
    </g>
    <g id="shape10" transform="matrix(1.0, 0.0, 0.0, 1.0, 0.0, 0.0)">
      <path d="M30.55 5.35 Q31.5 4.8 32.4 4.6 33.5 4.4 33.5 5.05 33.5 5.55 32.45 6.25 L30.85 7.55 Q30.4 8.25 31.7 8.4 L33.1 8.45 Q31.55 9.4 29.75 8.95 28.65 8.7 30.2 7.1 L32.0 5.55 29.75 6.65 25.55 8.9 Q23.6 9.9 21.75 10.3 L19.1 10.15 Q18.5 9.65 20.2 7.7 L22.8 5.2 26.05 2.25 Q24.15 2.55 22.45 3.4 21.5 3.85 19.85 5.05 L16.55 7.25 Q14.25 8.7 11.85 9.6 9.0 10.6 7.7 10.2 6.15 9.75 9.25 7.45 L18.15 2.15 19.05 1.2 Q19.35 0.65 18.95 0.7 17.7 0.75 14.6 2.25 L9.8 4.6 4.6 6.5 Q1.0 7.6 0.4 7.25 -0.6 6.65 0.95 5.35 L3.9 3.0 Q5.0 1.95 6.8 1.35 L9.0 1.2 Q7.95 1.05 6.0 2.0 4.0 3.05 2.35 5.65 6.55 4.8 8.55 3.95 L12.35 2.25 Q14.95 1.1 16.3 0.7 L19.3 0.0 Q20.6 -0.1 20.55 0.35 L19.2 2.0 16.4 4.2 Q10.85 7.5 9.45 8.5 8.55 9.15 9.75 9.05 L11.55 8.65 16.0 6.15 19.85 3.6 Q21.45 2.55 23.85 1.85 26.2 1.2 27.05 1.45 27.8 1.65 27.15 2.65 L25.0 4.7 Q23.8 5.7 22.55 7.15 L21.4 8.75 Q21.25 9.0 22.25 8.95 23.35 8.85 24.05 8.4 24.6 8.05 27.3 6.9 L30.55 5.35" fill="#ff5c2b" fill-rule="evenodd" stroke="none"/>
    </g>
    <g id="sprite7" transform="matrix(1.0, 0.0, 0.0, 1.0, 0.0, 0.0)">
      <use height="2.95" transform="matrix(1.0, 0.0, 0.0, 1.0, 0.0, 0.0)" width="4.85" xlink:href="#shape11"/>
    </g>
    <g id="shape11" transform="matrix(1.0, 0.0, 0.0, 1.0, 0.0, 0.0)">
      <path d="M0.0 2.2 Q0.1 1.3 0.8 0.65 1.5 0.0 2.45 0.0 3.3 0.0 4.0 0.55 4.65 1.1 4.85 1.95 4.0 2.95 2.25 2.95 0.85 2.95 0.0 2.2" fill="url(#gradient10)" fill-rule="evenodd" stroke="none"/>
    </g>
    <linearGradient gradientTransform="matrix(0.003, 0.0, 0.0, -0.003, 2.4, 1.45)" gradientUnits="userSpaceOnUse" id="gradient10" spreadMethod="pad" x1="-819.2" x2="819.2">
      <stop offset="0.0" stop-color="#fffced"/>
      <stop offset="1.0" stop-color="#e3d998"/>
    </linearGradient>
    <g id="shape12" transform="matrix(1.0, 0.0, 0.0, 1.0, -12.05, -29.95)">
      <path d="M14.45 31.5 Q14.65 30.8 14.2 30.4 L13.7 30.0 13.45 29.95 13.85 30.0 Q14.3 30.15 14.6 30.45 15.05 30.95 14.95 31.25 14.85 31.45 14.45 31.5" fill="#fdfae8" fill-rule="evenodd" stroke="none"/>
      <path d="M12.65 30.25 Q13.25 30.3 13.0 30.85 12.75 31.35 12.3 31.2 11.9 31.1 12.15 30.65 L12.65 30.25" fill="#ffffff" fill-rule="evenodd" stroke="none"/>
      <path d="M28.1 32.55 Q28.15 32.1 28.45 31.8 28.8 31.45 29.25 31.45 29.65 31.45 30.0 31.75 L30.4 32.45 Q29.95 32.9 29.15 32.9 28.5 32.9 28.1 32.55" fill="url(#gradient11)" fill-rule="evenodd" stroke="none"/>
      <path d="M29.9 32.6 Q30.05 32.15 29.75 31.85 L29.3 31.6 29.6 31.6 30.05 31.9 Q30.35 32.2 30.25 32.45 L29.9 32.6" fill="#fdfae8" fill-rule="evenodd" stroke="none"/>
      <path d="M28.85 31.8 Q29.15 31.75 29.1 32.2 L28.7 32.6 Q28.4 32.55 28.5 32.2 L28.85 31.8" fill="#ffffff" fill-rule="evenodd" stroke="none"/>
    </g>
    <linearGradient gradientTransform="matrix(0.0014, 0.0, 0.0, -0.0014, 29.25, 32.2)" gradientUnits="userSpaceOnUse" id="gradient11" spreadMethod="pad" x1="-819.2" x2="819.2">
      <stop offset="0.0" stop-color="#fffced"/>
      <stop offset="1.0" stop-color="#e3d998"/>
    </linearGradient>
    <g id="sprite8" transform="matrix(1.0, 0.0, 0.0, 1.0, 0.0, 0.0)">
      <use height="2.75" transform="matrix(1.0, 0.0, 0.0, 1.0, 0.0, 0.0)" width="4.7" xlink:href="#shape13"/>
    </g>
    <g id="shape13" transform="matrix(1.0, 0.0, 0.0, 1.0, 0.0, 0.0)">
      <path d="M0.0 2.1 Q0.1 1.2 0.75 0.6 1.4 0.0 2.35 0.0 3.2 0.0 3.85 0.55 4.5 1.05 4.7 1.85 3.9 2.75 2.2 2.75 0.8 2.75 0.0 2.1" fill="url(#gradient12)" fill-rule="evenodd" stroke="none"/>
    </g>
    <linearGradient gradientTransform="matrix(0.0029, 0.0, 0.0, -0.0029, 2.35, 1.4)" gradientUnits="userSpaceOnUse" id="gradient12" spreadMethod="pad" x1="-819.2" x2="819.2">
      <stop offset="0.0" stop-color="#fffced"/>
      <stop offset="1.0" stop-color="#e3d998"/>
    </linearGradient>
    <g id="shape14" transform="matrix(1.0, 0.0, 0.0, 1.0, -3.7, -25.3)">
      <path d="M23.0 32.1 Q23.2 31.45 22.8 31.05 L22.25 30.7 22.45 30.7 23.15 31.15 Q23.6 31.6 23.5 31.9 L23.0 32.1" fill="#fdfae8" fill-rule="evenodd" stroke="none"/>
      <path d="M21.55 30.9 L21.75 31.4 21.5 31.9 21.05 32.2 Q20.75 32.2 20.65 31.85 20.55 31.5 20.95 31.15 21.3 30.85 21.55 30.9" fill="#ffffff" fill-rule="evenodd" stroke="none"/>
      <path d="M25.05 26.05 Q25.45 26.1 25.2 26.5 24.95 26.95 24.6 26.8 24.3 26.7 24.55 26.35 L25.05 26.05" fill="#ffffff" fill-rule="evenodd" stroke="none"/>
      <path d="M24.15 26.8 Q24.2 26.35 24.5 26.05 24.8 25.75 25.25 25.75 26.2 25.75 26.4 26.65 26.0 27.15 25.2 27.15 24.65 27.15 24.15 26.8" fill="url(#gradient13)" fill-rule="evenodd" stroke="none"/>
      <path d="M25.95 26.85 Q26.05 26.4 25.8 26.1 L25.35 25.85 25.55 25.9 26.0 26.2 26.25 26.65 25.95 26.85" fill="#fdfae8" fill-rule="evenodd" stroke="none"/>
      <path d="M10.15 29.45 L10.4 29.4 10.3 29.7 10.7 29.95 10.2 29.95 Q9.85 30.0 9.9 29.8 L10.15 29.45" fill="#fff2de" fill-rule="evenodd" stroke="none"/>
      <path d="M20.9 26.2 L15.45 28.65 Q13.95 29.35 12.2 29.4 L13.95 28.95 15.95 28.25 20.9 26.2" fill="#fff2de" fill-rule="evenodd" stroke="none"/>
      <path d="M24.2 25.3 L24.35 25.45 24.05 25.75 23.9 25.6 23.85 25.35 23.8 25.3 24.2 25.3" fill="#fff2de" fill-rule="evenodd" stroke="none"/>
      <path d="M20.95 28.25 Q21.65 27.95 20.85 28.45 L19.25 29.4 16.45 31.0 17.85 30.0 20.95 28.25" fill="#fff2de" fill-rule="evenodd" stroke="none"/>
      <path d="M15.45 32.05 L15.7 32.0 15.85 32.25 16.85 32.5 15.95 32.5 Q15.05 32.5 15.45 32.05" fill="#fff2de" fill-rule="evenodd" stroke="none"/>
      <path d="M24.7 27.85 Q25.6 27.5 24.35 28.3 L22.0 29.8 20.3 30.85 19.6 31.2 20.85 30.4 22.7 29.05 24.7 27.85" fill="#fff2de" fill-rule="evenodd" stroke="none"/>
      <path d="M28.95 26.45 L29.3 26.5 29.35 26.7 29.15 26.95 29.15 26.8 29.0 26.65 28.55 26.65 Q28.3 26.65 28.55 26.55 L28.95 26.45" fill="#fff2de" fill-rule="evenodd" stroke="none"/>
      <path d="M27.15 28.8 Q28.55 27.75 27.45 28.65 L26.05 30.1 24.65 31.75 Q24.35 32.25 24.65 32.35 L24.75 32.4 24.6 32.4 Q24.25 32.4 24.2 32.25 24.15 32.05 24.45 31.55 24.75 31.0 25.8 30.0 L27.15 28.8" fill="#fff2de" fill-rule="evenodd" stroke="none"/>
      <path d="M30.0 30.4 L30.35 30.35 29.85 30.65 27.05 31.9 Q26.85 31.85 28.15 31.4 L30.0 30.4" fill="#fff2de" fill-rule="evenodd" stroke="none"/>
      <path d="M33.75 29.05 Q34.2 29.05 33.4 29.6 33.7 29.2 33.4 29.2 33.2 29.2 33.35 29.1 L33.75 29.05" fill="#fff2de" fill-rule="evenodd" stroke="none"/>
      <path d="M37.65 27.6 L38.75 27.6 38.8 28.15 Q38.8 30.9 33.65 32.8 28.55 34.75 21.25 34.75 14.0 34.75 8.85 32.8 3.7 30.9 3.7 28.15 L3.8 27.6 5.05 27.6 5.05 27.9 Q5.05 30.35 9.8 32.05 14.6 33.75 21.35 33.75 28.1 33.75 32.9 32.05 37.65 30.35 37.65 27.9 L37.65 27.6" fill="#f5f5f5" fill-rule="evenodd" stroke="none"/>
    </g>
    <linearGradient gradientTransform="matrix(0.0014, 0.0, 0.0, -0.0014, 25.25, 26.45)" gradientUnits="userSpaceOnUse" id="gradient13" spreadMethod="pad" x1="-819.2" x2="819.2">
      <stop offset="0.0" stop-color="#fffced"/>
      <stop offset="1.0" stop-color="#e3d998"/>
    </linearGradient>
    <g id="sprite9" transform="matrix(1.0, 0.0, 0.0, 1.0, 0.05, 0.25)">
      <clipPath id="clipPath0" transform="matrix(1.0, 0.0, 0.0, 1.0, 0.05, 0.25)">
        <use height="24.35" transform="matrix(1.0, 0.0, 0.0, 1.0, -0.05, -0.25)" width="47.0" xlink:href="#shape15"/>
      </clipPath>
      <g clip-path="url(#clipPath0)">
        <use height="10.8" transform="matrix(1.3324, 0.0, 0.0, 1.3333, 0.3628, 10.4665)" width="34.45" xlink:href="#shape0"/>
        <use height="12.7" transform="matrix(1.0, 0.0, 0.0, 1.0, 4.55, 12.15)" width="24.3" xlink:href="#sprite0"/>
        <use height="13.1" transform="matrix(1.0, 0.0, 0.0, 1.0, 27.05, 11.5)" width="17.2" xlink:href="#sprite1"/>
        <use height="12.3" transform="matrix(1.0, 0.0, 0.0, 1.0, 0.35, 10.45)" width="12.15" xlink:href="#sprite2"/>
        <use height="17.15" transform="matrix(1.0, 0.0, 0.0, 1.0, 0.1, 0.0)" width="46.6" xlink:href="#shape16"/>
        <use height="10.3" transform="matrix(1.0, 0.0, 0.0, 1.0, 2.25, 3.7)" width="41.8" xlink:href="#sprite3"/>
        <use height="2.6" transform="matrix(1.0, 0.0, 0.0, 1.0, 8.85, 6.8)" width="4.1" xlink:href="#sprite4"/>
        <use height="7.3" transform="matrix(1.0, 0.0, 0.0, 1.0, 5.85, 4.35)" width="36.35" xlink:href="#shape17"/>
        <use height="2.1" transform="matrix(1.0, 0.0, 0.0, 1.0, 34.75, 6.75)" width="3.35" xlink:href="#sprite5"/>
        <use height="11.0" transform="matrix(1.0, 0.0, 0.0, 1.0, 6.35, 4.85)" width="35.95" xlink:href="#shape18"/>
        <use height="10.45" transform="matrix(1.0, 0.0, 0.0, 1.0, 7.55, 4.8)" width="33.5" xlink:href="#sprite6"/>
        <use height="2.95" transform="matrix(1.0, 0.0, 0.0, 1.0, 10.45, 10.9)" width="4.85" xlink:href="#sprite7"/>
        <use height="3.95" transform="matrix(1.0, 0.0, 0.0, 1.0, 11.1, 11.1)" width="24.5" xlink:href="#shape19"/>
        <use height="2.75" transform="matrix(1.0, 0.0, 0.0, 1.0, 22.0, 11.85)" width="4.7" xlink:href="#sprite8"/>
        <use height="20.9" transform="matrix(1.0, 0.0, 0.0, 1.0, 0.0, 4.9)" width="46.8" xlink:href="#shape20"/>
      </g>
    </g>
    <g id="shape15" transform="matrix(1.0, 0.0, 0.0, 1.0, 0.05, 0.25)">
      <path d="M27.9 -0.25 L28.65 -0.2 33.25 0.45 37.6 1.4 39.7 1.85 Q42.15 2.45 44.0 4.05 45.6 5.3 46.65 7.35 47.1 8.25 46.9 9.15 46.45 11.55 45.15 13.55 L42.45 17.1 39.1 20.15 Q37.25 21.5 36.1 21.5 34.95 21.5 31.9 22.7 28.8 23.9 27.75 23.55 L26.05 23.6 Q25.4 24.05 24.7 24.1 L23.6 24.0 22.25 23.35 19.35 23.2 16.2 23.35 Q14.95 23.05 14.1 22.4 13.25 21.75 11.85 21.75 L9.7 21.4 Q7.45 20.35 5.75 18.75 L2.55 15.15 Q1.3 13.35 0.5 11.35 0.0 10.05 -0.05 8.9 -0.15 7.6 0.55 6.65 1.7 5.15 3.45 4.05 4.9 3.0 6.6 2.4 8.5 1.75 10.35 1.35 L14.55 0.6 19.3 0.05 22.7 -0.25 27.9 -0.25" fill="#ff0000" fill-opacity="0.5294118" fill-rule="evenodd" stroke="none"/>
    </g>
    <g id="shape16" transform="matrix(1.0, 0.0, 0.0, 1.0, -0.1, 0.0)">
      <path d="M39.4 2.65 Q46.05 5.15 46.05 8.65 46.05 12.2 39.4 14.65 32.8 17.15 23.4 17.15 14.05 17.15 7.4 14.65 0.8 12.2 0.8 8.65 0.8 5.15 7.4 2.65 14.05 0.15 23.4 0.15 32.8 0.15 39.4 2.65" fill="url(#gradient14)" fill-rule="evenodd" stroke="none"/>
      <path d="M46.7 8.0 L45.25 8.0 Q44.8 4.9 38.5 2.75 32.2 0.6 23.5 0.6 14.85 0.6 8.55 2.75 2.25 4.9 1.8 8.0 L0.1 8.0 Q0.9 4.65 7.55 2.35 14.3 0.0 23.4 0.0 32.55 0.0 39.25 2.35 45.9 4.65 46.7 8.0" fill="#f5f5f5" fill-rule="evenodd" stroke="none"/>
      <path d="M4.75 8.1 Q4.4 8.1 4.4 8.4 L4.75 8.65 5.1 8.4 Q5.1 8.1 4.75 8.1 M6.45 5.8 Q6.1 5.8 5.9 6.05 5.65 6.25 5.65 6.55 5.65 7.35 6.45 7.35 7.3 7.35 7.3 6.55 7.3 5.8 6.45 5.8 M7.65 5.6 Q7.25 5.6 7.25 6.0 7.25 6.4 7.65 6.4 8.1 6.4 8.1 6.0 8.1 5.6 7.65 5.6 M9.45 4.85 Q8.7 4.85 8.7 5.55 8.7 6.25 9.45 6.25 10.15 6.25 10.15 5.55 10.15 4.85 9.45 4.85 M10.75 5.5 L11.0 5.25 10.75 5.0 Q10.5 5.0 10.5 5.25 L10.75 5.5 M16.7 3.8 Q16.0 3.8 16.0 4.3 16.0 4.8 16.7 4.8 17.4 4.8 17.4 4.3 17.4 3.8 16.7 3.8 M15.3 4.7 L15.6 4.45 15.3 4.2 Q15.05 4.2 15.05 4.45 L15.3 4.7 M23.75 4.15 Q24.5 4.15 24.5 3.45 24.5 2.75 23.75 2.75 23.0 2.75 23.0 3.45 23.0 4.15 23.75 4.15 M20.55 4.2 Q20.95 4.2 20.95 3.85 20.95 3.5 20.55 3.5 20.15 3.5 20.15 3.85 20.15 4.2 20.55 4.2 M29.95 4.35 Q30.35 4.35 30.35 3.95 30.35 3.6 29.95 3.6 29.55 3.6 29.55 3.95 29.55 4.35 29.95 4.35 M28.65 4.45 Q29.15 4.45 29.15 4.0 29.15 3.55 28.65 3.55 28.15 3.55 28.15 4.0 28.15 4.45 28.65 4.45 M25.4 4.1 Q25.95 4.1 25.95 3.6 25.95 3.1 25.4 3.1 24.8 3.1 24.8 3.6 24.8 4.1 25.4 4.1 M36.85 5.5 L37.3 5.85 37.75 5.5 Q37.75 5.1 37.3 5.1 36.85 5.1 36.85 5.5 M36.05 5.05 L35.75 4.75 Q35.45 4.75 35.45 5.05 35.45 5.35 35.75 5.35 L36.05 5.05 M41.6 7.65 Q42.15 7.65 42.15 7.1 42.15 6.5 41.6 6.5 41.0 6.5 41.0 7.1 41.0 7.65 41.6 7.65 M44.75 9.1 Q44.75 8.55 44.25 8.55 43.75 8.55 43.75 9.1 43.75 9.6 44.25 9.6 44.75 9.6 44.75 9.1 M43.4 7.75 Q44.1 7.75 44.6 8.05 45.1 8.4 45.1 8.85 45.1 9.95 44.75 10.65 37.75 15.65 33.65 15.9 L25.65 16.7 Q19.55 17.1 13.6 15.7 7.65 14.35 4.75 12.95 L3.05 11.85 Q2.35 11.45 2.65 10.1 2.85 9.3 3.6 8.5 L4.75 7.15 Q5.6 5.35 6.55 5.35 L8.05 5.4 8.3 4.85 Q8.75 4.3 9.55 4.35 L11.4 4.6 15.15 3.75 18.0 3.3 21.0 2.95 25.3 2.65 26.95 2.95 28.75 3.2 33.8 3.85 36.1 4.55 37.8 4.85 39.0 4.6 40.5 4.75 Q41.8 5.35 42.55 7.15 L42.65 7.45 Q42.85 7.75 43.4 7.75 M40.9 5.85 L40.65 5.2 40.05 4.95 39.4 5.2 Q39.15 5.5 39.15 5.85 39.15 6.8 40.05 6.8 L40.65 6.55 40.9 5.85" fill="#fff2de" fill-rule="evenodd" stroke="none"/>
      <path d="M42.95 12.8 Q41.55 13.8 36.45 15.25 29.25 17.25 22.55 17.0 15.45 16.75 8.6 14.55 2.65 12.65 2.25 11.45 L3.4 12.05 Q2.55 9.45 7.2 6.8 9.0 5.7 14.05 4.75 19.25 3.75 23.55 3.7 31.2 3.65 37.0 5.6 44.05 7.9 44.05 10.3 44.05 11.95 42.95 12.8" fill="url(#gradient15)" fill-rule="evenodd" stroke="none"/>
    </g>
    <linearGradient gradientTransform="matrix(0.0276, 0.0, 0.0, -0.0276, 23.4, 8.65)" gradientUnits="userSpaceOnUse" id="gradient14" spreadMethod="pad" x1="-819.2" x2="819.2">
      <stop offset="0.0" stop-color="#7d7d7d"/>
      <stop offset="1.0" stop-color="#d4d4d4"/>
    </linearGradient>
    <linearGradient gradientTransform="matrix(0.0255, 0.0, 0.0, -0.0255, 23.15, 10.35)" gradientUnits="userSpaceOnUse" id="gradient15" spreadMethod="pad" x1="-819.2" x2="819.2">
      <stop offset="0.0" stop-color="#eddf9f"/>
      <stop offset="1.0" stop-color="#bfb36b"/>
    </linearGradient>
    <g id="shape17" transform="matrix(1.0, 0.0, 0.0, 1.0, -5.85, -4.35)">
      <path d="M12.3 7.6 Q12.85 8.2 12.75 8.55 12.6 8.8 12.15 8.85 12.4 8.0 11.9 7.5 L11.35 7.1 11.45 7.1 12.3 7.6" fill="#fdfae8" fill-rule="evenodd" stroke="none"/>
      <path d="M19.25 6.0 Q19.35 5.3 19.8 4.85 20.3 4.35 20.95 4.35 21.6 4.35 22.05 4.8 22.55 5.2 22.65 5.8 22.05 6.5 20.85 6.5 19.9 6.5 19.25 6.0" fill="url(#gradient16)" fill-rule="evenodd" stroke="none"/>
      <path d="M21.95 6.05 Q22.2 5.35 21.75 4.95 L21.25 4.6 21.05 4.55 21.4 4.6 22.1 5.0 Q22.55 5.5 22.45 5.8 22.35 6.0 21.95 6.05" fill="#fdfae8" fill-rule="evenodd" stroke="none"/>
      <path d="M5.85 11.1 Q5.9 10.4 6.4 9.9 6.9 9.4 7.6 9.4 9.05 9.4 9.4 10.9 8.75 11.65 7.5 11.65 6.5 11.65 5.85 11.1" fill="url(#gradient17)" fill-rule="evenodd" stroke="none"/>
      <path d="M8.65 11.15 Q8.9 10.45 8.45 10.0 L7.9 9.6 8.1 9.65 Q8.5 9.8 8.8 10.1 L9.2 10.9 8.65 11.15" fill="#fdfae8" fill-rule="evenodd" stroke="none"/>
      <path d="M15.95 8.3 Q16.0 7.75 16.35 7.4 16.75 7.05 17.25 7.05 17.7 7.05 18.05 7.4 18.45 7.7 18.5 8.15 18.05 8.7 17.15 8.7 16.45 8.7 15.95 8.3" fill="url(#gradient18)" fill-rule="evenodd" stroke="none"/>
      <path d="M18.0 8.35 Q18.15 7.8 17.85 7.5 L17.3 7.2 17.55 7.25 18.1 7.55 18.35 8.15 18.0 8.35" fill="#fdfae8" fill-rule="evenodd" stroke="none"/>
      <path d="M41.6 8.35 Q42.1 8.75 42.2 9.4 41.6 10.15 40.25 10.15 39.15 10.15 38.5 9.6 38.6 8.9 39.1 8.4 39.65 7.9 40.35 7.9 41.05 7.9 41.6 8.35" fill="url(#gradient19)" fill-rule="evenodd" stroke="none"/>
      <path d="M41.45 9.65 Q41.7 8.95 41.25 8.5 L40.8 8.15 40.85 8.15 Q41.3 8.3 41.6 8.6 42.1 9.05 42.0 9.4 L41.45 9.65" fill="#fdfae8" fill-rule="evenodd" stroke="none"/>
      <path d="M34.85 10.8 Q34.9 10.15 35.4 9.7 35.9 9.25 36.55 9.25 L37.65 9.65 Q38.1 10.05 38.25 10.6 37.55 11.3 36.45 11.3 35.45 11.3 34.85 10.8" fill="url(#gradient20)" fill-rule="evenodd" stroke="none"/>
    </g>
    <linearGradient gradientTransform="matrix(0.0021, 0.0, 0.0, -0.0021, 20.95, 5.45)" gradientUnits="userSpaceOnUse" id="gradient16" spreadMethod="pad" x1="-819.2" x2="819.2">
      <stop offset="0.0" stop-color="#e3dbb6"/>
      <stop offset="1.0" stop-color="#cfc482"/>
    </linearGradient>
    <linearGradient gradientTransform="matrix(0.0022, 0.0, 0.0, -0.0022, 7.6, 10.5)" gradientUnits="userSpaceOnUse" id="gradient17" spreadMethod="pad" x1="-819.2" x2="819.2">
      <stop offset="0.0" stop-color="#fffced"/>
      <stop offset="1.0" stop-color="#e3d998"/>
    </linearGradient>
    <linearGradient gradientTransform="matrix(0.0016, 0.0, 0.0, -0.0016, 17.25, 7.9)" gradientUnits="userSpaceOnUse" id="gradient18" spreadMethod="pad" x1="-819.2" x2="819.2">
      <stop offset="0.0" stop-color="#fffced"/>
      <stop offset="1.0" stop-color="#e3d998"/>
    </linearGradient>
    <linearGradient gradientTransform="matrix(0.0023, 0.0, 0.0, -0.0023, 40.35, 9.0)" gradientUnits="userSpaceOnUse" id="gradient19" spreadMethod="pad" x1="-819.2" x2="819.2">
      <stop offset="0.0" stop-color="#fffced"/>
      <stop offset="1.0" stop-color="#e3d998"/>
    </linearGradient>
    <linearGradient gradientTransform="matrix(0.0021, 0.0, 0.0, -0.0021, 36.55, 10.25)" gradientUnits="userSpaceOnUse" id="gradient20" spreadMethod="pad" x1="-819.2" x2="819.2">
      <stop offset="0.0" stop-color="#fffced"/>
      <stop offset="1.0" stop-color="#e3d998"/>
    </linearGradient>
    <g id="shape18" transform="matrix(1.0, 0.0, 0.0, 1.0, -6.35, -4.85)">
      <path d="M37.4 8.4 Q37.6 7.75 37.2 7.35 L36.7 7.0 36.5 6.95 36.85 7.0 37.55 7.4 37.9 8.15 37.4 8.4" fill="#fdfae8" fill-rule="evenodd" stroke="none"/>
      <path d="M37.55 10.85 Q37.75 10.2 37.35 9.8 L36.65 9.4 37.0 9.5 Q37.4 9.6 37.65 9.9 L38.05 10.6 Q37.9 10.8 37.55 10.85" fill="#fdfae8" fill-rule="evenodd" stroke="none"/>
      <path d="M6.9 9.9 Q7.45 9.9 7.2 10.4 6.9 10.9 6.55 10.8 6.25 10.7 6.45 10.3 6.65 9.9 6.9 9.9" fill="#ffffff" fill-rule="evenodd" stroke="none"/>
      <path d="M35.95 7.25 Q36.45 7.45 36.1 7.95 35.75 8.45 35.4 8.25 35.05 8.1 35.35 7.6 35.65 7.15 35.95 7.25" fill="#ffffff" fill-rule="evenodd" stroke="none"/>
      <path d="M10.2 7.4 Q10.9 7.6 10.6 8.2 10.3 8.8 9.7 8.55 9.2 8.3 9.55 7.8 9.85 7.3 10.2 7.4" fill="#ffffff" fill-rule="evenodd" stroke="none"/>
      <path d="M16.85 7.55 Q17.2 7.65 17.1 8.0 L16.65 8.3 Q16.25 8.25 16.45 7.85 16.6 7.45 16.85 7.55" fill="#ffffff" fill-rule="evenodd" stroke="none"/>
      <path d="M20.45 4.85 Q20.95 5.05 20.65 5.65 20.3 6.2 19.9 5.85 19.5 5.55 19.8 5.15 20.1 4.75 20.45 4.85" fill="#ffffff" fill-rule="evenodd" stroke="none"/>
      <path d="M36.1 9.75 Q36.4 9.9 36.15 10.4 35.9 10.9 35.55 10.7 35.2 10.5 35.5 10.05 35.75 9.55 36.1 9.75" fill="#ffffff" fill-rule="evenodd" stroke="none"/>
      <path d="M39.75 8.3 Q40.5 8.3 40.0 9.25 L39.55 9.45 Q39.2 9.4 39.05 9.2 38.85 9.0 39.1 8.65 39.35 8.3 39.75 8.3" fill="#ffffff" fill-rule="evenodd" stroke="none"/>
      <path d="M14.55 6.8 Q16.45 6.85 15.7 7.45 14.95 8.05 13.6 7.7 13.0 7.55 13.55 7.2 L14.55 6.8" fill="#ffffff" fill-rule="evenodd" stroke="none"/>
      <path d="M14.3 8.35 Q15.25 8.4 14.8 8.7 L13.7 8.9 Q13.15 8.85 13.4 8.55 13.65 8.3 14.3 8.35" fill="#ffffff" fill-rule="evenodd" stroke="none"/>
      <path d="M9.05 12.45 Q10.05 12.55 9.15 13.05 L7.35 13.2 Q6.45 12.85 7.2 12.6 L9.05 12.45" fill="#ffffff" fill-rule="evenodd" stroke="none"/>
      <path d="M16.95 11.2 Q18.85 11.25 18.1 11.9 17.35 12.55 16.35 12.25 15.45 12.0 15.7 11.6 15.95 11.2 16.95 11.2" fill="#ffffff" fill-rule="evenodd" stroke="none"/>
      <path d="M19.9 9.15 Q21.45 9.1 20.95 9.65 20.5 10.25 19.6 10.1 18.8 10.05 18.9 9.6 19.0 9.15 19.9 9.15" fill="#ffffff" fill-rule="evenodd" stroke="none"/>
      <path d="M24.65 6.85 Q25.15 6.9 24.9 7.2 L24.35 7.4 Q24.0 7.4 24.15 7.15 24.25 6.85 24.65 6.85" fill="#ffffff" fill-rule="evenodd" stroke="none"/>
      <path d="M24.1 9.65 Q25.05 9.7 24.4 9.95 L23.35 10.1 Q23.0 10.0 23.3 9.8 L24.1 9.65" fill="#ffffff" fill-rule="evenodd" stroke="none"/>
      <path d="M27.25 10.75 Q28.0 10.9 27.7 11.3 27.45 11.7 26.65 11.5 25.9 11.3 26.25 10.95 26.6 10.6 27.25 10.75" fill="#ffffff" fill-rule="evenodd" stroke="none"/>
      <path d="M30.95 9.25 Q31.75 9.2 31.5 9.6 31.25 10.0 30.5 9.95 29.8 9.9 30.1 9.6 30.35 9.3 30.95 9.25" fill="#ffffff" fill-rule="evenodd" stroke="none"/>
      <path d="M31.2 11.8 Q32.7 11.95 31.6 12.55 30.45 13.15 29.25 13.0 28.15 12.85 29.1 12.25 30.05 11.7 31.2 11.8" fill="#ffffff" fill-rule="evenodd" stroke="none"/>
      <path d="M27.2 14.8 Q29.05 14.8 28.25 15.4 27.4 16.05 26.0 15.8 24.75 15.6 25.4 15.2 L27.2 14.8" fill="#ffffff" fill-rule="evenodd" stroke="none"/>
      <path d="M23.8 15.05 Q24.9 15.15 24.25 15.45 L23.0 15.55 Q22.5 15.45 22.9 15.2 L23.8 15.05" fill="#ffffff" fill-rule="evenodd" stroke="none"/>
      <path d="M34.35 8.75 Q35.55 8.8 35.15 9.25 34.7 9.75 33.95 9.65 33.25 9.6 33.5 9.15 33.75 8.7 34.35 8.75" fill="#ffffff" fill-rule="evenodd" stroke="none"/>
      <path d="M41.25 11.1 Q42.8 11.3 42.1 11.85 41.35 12.4 40.2 12.2 39.25 12.05 39.9 11.5 40.55 11.0 41.25 11.1" fill="#ffffff" fill-rule="evenodd" stroke="none"/>
    </g>
    <g id="shape19" transform="matrix(1.0, 0.0, 0.0, 1.0, -11.1, -11.1)">
      <path d="M14.3 13.2 Q14.6 12.25 14.0 11.7 L13.3 11.2 13.0 11.1 13.5 11.2 14.5 11.8 Q15.15 12.45 15.0 12.85 14.85 13.1 14.3 13.2" fill="#fdfae8" fill-rule="evenodd" stroke="none"/>
      <path d="M11.95 11.5 Q12.75 11.6 12.4 12.3 12.05 13.0 11.45 12.8 10.9 12.65 11.25 12.05 11.6 11.45 11.95 11.5" fill="#ffffff" fill-rule="evenodd" stroke="none"/>
      <path d="M32.5 14.6 Q32.6 14.0 33.0 13.6 33.45 13.15 34.05 13.15 34.6 13.15 35.05 13.5 35.5 13.9 35.6 14.45 35.0 15.05 33.95 15.05 33.05 15.05 32.5 14.6" fill="url(#gradient21)" fill-rule="evenodd" stroke="none"/>
      <path d="M34.95 14.65 Q35.15 14.05 34.75 13.65 L34.15 13.3 34.5 13.35 35.1 13.75 Q35.5 14.15 35.4 14.45 L34.95 14.65" fill="#fdfae8" fill-rule="evenodd" stroke="none"/>
      <path d="M33.5 13.6 Q33.9 13.55 33.85 14.15 33.8 14.7 33.35 14.65 32.9 14.6 33.05 14.1 33.15 13.65 33.5 13.6" fill="#ffffff" fill-rule="evenodd" stroke="none"/>
    </g>
    <linearGradient gradientTransform="matrix(0.0019, 0.0, 0.0, -0.0019, 34.05, 14.1)" gradientUnits="userSpaceOnUse" id="gradient21" spreadMethod="pad" x1="-819.2" x2="819.2">
      <stop offset="0.0" stop-color="#fffced"/>
      <stop offset="1.0" stop-color="#e3d998"/>
    </linearGradient>
    <g id="shape20" transform="matrix(1.0, 0.0, 0.0, 1.0, 0.0, -4.9)">
      <path d="M25.75 14.0 Q26.0 13.15 25.45 12.6 L24.75 12.1 25.0 12.15 Q25.55 12.35 25.9 12.7 26.55 13.3 26.4 13.7 26.25 13.95 25.75 14.0" fill="#fdfae8" fill-rule="evenodd" stroke="none"/>
      <path d="M23.8 12.4 Q24.1 12.6 24.05 13.05 L23.7 13.75 23.1 14.1 22.6 13.65 Q22.45 13.2 23.0 12.75 23.45 12.3 23.8 12.4" fill="#ffffff" fill-rule="evenodd" stroke="none"/>
      <path d="M28.45 5.95 Q29.0 6.0 28.65 6.55 28.3 7.15 27.85 6.95 27.45 6.8 27.8 6.35 28.15 5.9 28.45 5.95" fill="#ffffff" fill-rule="evenodd" stroke="none"/>
      <path d="M27.25 6.95 Q27.3 6.35 27.7 5.95 28.15 5.5 28.75 5.5 30.0 5.5 30.25 6.75 29.7 7.4 28.65 7.4 L27.25 6.95" fill="url(#gradient22)" fill-rule="evenodd" stroke="none"/>
      <path d="M29.65 7.0 Q29.8 6.4 29.45 6.0 L28.85 5.65 29.15 5.75 Q29.5 5.85 29.75 6.1 L30.05 6.75 29.65 7.0" fill="#fdfae8" fill-rule="evenodd" stroke="none"/>
      <path d="M8.6 10.45 L8.95 10.4 8.8 10.8 Q8.85 11.05 9.35 11.1 L8.65 11.15 Q8.2 11.2 8.25 10.9 L8.6 10.45" fill="#fff2de" fill-rule="evenodd" stroke="none"/>
      <path d="M22.9 6.1 L15.65 9.4 Q13.65 10.3 11.3 10.4 L13.65 9.8 16.3 8.85 22.9 6.1" fill="#fff2de" fill-rule="evenodd" stroke="none"/>
      <path d="M27.35 4.9 Q27.65 4.9 27.55 5.15 L27.15 5.5 26.95 5.35 26.85 5.0 26.8 4.9 27.35 4.9" fill="#fff2de" fill-rule="evenodd" stroke="none"/>
      <path d="M23.0 8.85 Q23.9 8.45 22.85 9.15 L20.7 10.4 17.0 12.55 18.85 11.2 23.0 8.85" fill="#fff2de" fill-rule="evenodd" stroke="none"/>
      <path d="M15.65 13.95 L16.0 13.85 16.2 14.2 Q16.4 14.45 17.5 14.5 L16.35 14.5 Q15.1 14.5 15.65 13.95" fill="#fff2de" fill-rule="evenodd" stroke="none"/>
      <path d="M28.0 8.35 Q29.2 7.85 27.55 8.9 L24.4 10.95 22.15 12.35 21.2 12.8 22.85 11.7 25.35 9.95 28.0 8.35" fill="#fff2de" fill-rule="evenodd" stroke="none"/>
      <path d="M33.65 6.45 L34.1 6.5 34.2 6.8 33.95 7.15 Q33.8 7.2 33.95 6.9 34.1 6.65 33.75 6.7 L33.1 6.75 Q32.8 6.75 33.1 6.6 33.4 6.45 33.65 6.45" fill="#fff2de" fill-rule="evenodd" stroke="none"/>
      <path d="M31.25 9.6 Q33.1 8.2 31.65 9.4 L29.8 11.3 27.9 13.55 Q27.55 14.2 27.9 14.35 L28.05 14.4 27.85 14.4 Q27.4 14.4 27.35 14.2 27.25 13.95 27.65 13.25 28.05 12.55 29.45 11.2 L31.25 9.6" fill="#fff2de" fill-rule="evenodd" stroke="none"/>
      <path d="M35.05 11.75 L35.5 11.65 34.85 12.05 Q31.55 13.85 31.15 13.75 30.85 13.65 32.6 13.05 L35.05 11.75" fill="#fff2de" fill-rule="evenodd" stroke="none"/>
      <path d="M40.05 9.9 Q40.65 9.95 39.6 10.65 40.0 10.15 39.6 10.15 39.35 10.15 39.55 10.0 L40.05 9.9" fill="#fff2de" fill-rule="evenodd" stroke="none"/>
      <path d="M45.25 8.0 L46.7 8.0 46.8 8.75 Q46.8 12.4 39.95 14.95 33.1 17.5 23.4 17.5 13.7 17.5 6.85 14.95 0.0 12.4 0.0 8.75 L0.1 8.0 1.8 8.0 1.8 8.4 Q1.8 11.65 8.15 13.9 14.5 16.2 23.5 16.2 32.55 16.2 38.9 13.9 45.25 11.65 45.25 8.4 L45.25 8.0" fill="#f5f5f5" fill-rule="evenodd" stroke="none"/>
      <path d="M24.25 23.15 L25.4 22.95 27.35 22.4 29.9 22.45 Q31.4 22.85 36.35 20.6 41.3 18.35 37.45 22.35 33.6 26.3 21.65 25.7 9.7 25.05 8.65 21.0 L11.4 21.05 Q13.5 21.85 14.45 21.9 15.4 21.9 16.7 22.55 L19.1 22.75 Q20.25 22.35 21.5 22.75 L23.4 23.15 24.25 23.15" fill="#818181" fill-rule="evenodd" stroke="none"/>
    </g>
    <linearGradient gradientTransform="matrix(0.0018, 0.0, 0.0, -0.0018, 28.75, 6.45)" gradientUnits="userSpaceOnUse" id="gradient22" spreadMethod="pad" x1="-819.2" x2="819.2">
      <stop offset="0.0" stop-color="#fffced"/>
      <stop offset="1.0" stop-color="#e3d998"/>
    </linearGradient>
    <g id="shape21" transform="matrix(1.0, 0.0, 0.0, 1.0, -7.7, -19.75)">
      <path d="M24.5 19.95 L24.55 19.95 25.6 19.75 26.2 19.8 26.35 19.95 26.3 20.15 26.15 20.75 25.6 21.8 Q25.25 22.45 24.55 22.0 L23.6 21.5 23.3 21.4 Q22.85 21.5 22.75 21.65 L22.75 21.9 23.0 22.6 23.1 23.3 22.85 23.8 22.5 23.9 22.15 23.7 22.05 23.5 22.15 22.8 22.15 21.7 22.3 21.3 Q22.5 21.0 22.95 20.85 L23.65 20.75 24.15 20.55 24.25 20.3 24.25 20.1 Q24.25 20.05 24.5 19.95 M12.05 28.95 L12.25 28.5 12.2 28.15 11.4 28.25 11.35 28.7 Q11.35 29.3 11.75 29.4 L12.05 28.95 M11.05 26.5 L11.3 26.45 11.35 26.25 10.3 25.5 9.05 25.15 8.95 25.5 9.7 26.0 Q10.5 26.5 11.05 26.5 M22.6 22.7 L22.5 23.15 22.3 23.5 22.4 23.65 22.7 23.7 Q23.0 23.65 22.9 23.15 L22.85 22.85 22.6 22.7 M24.35 21.2 L25.05 21.05 25.45 20.75 25.6 20.4 24.7 20.75 Q24.1 20.9 24.15 21.05 L24.35 21.2 M7.75 25.1 Q8.15 24.4 11.2 25.1 14.2 25.7 13.4 27.35 L11.95 30.2 11.6 30.4 11.6 30.35 Q12.0 29.95 11.45 30.45 L11.35 30.4 11.1 28.7 11.0 27.2 Q10.6 26.3 9.1 25.85 8.2 25.6 7.75 25.1" fill="#cabe82" fill-rule="evenodd" stroke="none"/>
      <path d="M22.5 23.9 Q21.8 23.9 21.55 23.55 21.4 23.4 21.4 23.05 L21.4 22.4 21.5 22.0 Q21.8 21.2 21.05 20.8 20.25 20.4 21.35 19.8 L24.45 19.9 24.65 19.85 24.5 19.95 Q24.25 20.05 24.25 20.1 L24.25 20.3 24.15 20.55 23.65 20.75 22.95 20.85 Q22.5 21.0 22.3 21.3 L22.15 21.7 22.15 22.8 22.05 23.5 22.15 23.7 22.5 23.9 M7.75 25.1 Q8.2 25.6 9.1 25.85 10.6 26.3 11.0 27.2 L11.1 28.7 11.35 30.4 Q10.95 30.2 10.45 28.7 9.65 26.65 9.1 26.45 L8.2 26.0 7.75 25.55 7.7 25.35 7.75 25.1" fill="#b6ab7a" fill-rule="evenodd" stroke="none"/>
      <path d="M24.35 21.2 L24.15 21.05 Q24.1 20.9 24.7 20.75 L25.6 20.4 25.45 20.75 25.05 21.05 24.35 21.2 M22.6 22.7 L22.85 22.85 22.9 23.15 Q23.0 23.65 22.7 23.7 L22.4 23.65 22.3 23.5 22.5 23.15 22.6 22.7 M11.05 26.5 Q10.5 26.5 9.7 26.0 L8.95 25.5 9.05 25.15 10.3 25.5 11.35 26.25 11.3 26.45 11.05 26.5 M12.05 28.95 L11.75 29.4 Q11.35 29.3 11.35 28.7 L11.4 28.25 12.2 28.15 12.25 28.5 12.05 28.95" fill="#e8dea7" fill-rule="evenodd" stroke="none"/>
      <path d="M11.45 30.45 Q12.0 29.95 11.6 30.35 L11.6 30.4 11.45 30.45" fill="#d2c58b" fill-rule="evenodd" stroke="none"/>
    </g>
  </defs>
</svg>
