<?xml version="1.0" encoding="UTF-8" standalone="no"?>
<svg xmlns:xlink="http://www.w3.org/1999/xlink" height="36.85px" width="37.2px" xmlns="http://www.w3.org/2000/svg">
  <g transform="matrix(1.0, 0.0, 0.0, 1.0, 0.0, 0.0)">
    <use height="16.3" transform="matrix(1.0, 0.0, 0.0, 1.0, 7.05, 20.55)" width="23.1" xlink:href="#shape0"/>
    <use height="5.45" transform="matrix(0.8, 0.0, 0.0, 0.8, 21.3, 24.05)" width="2.45" xlink:href="#sprite0"/>
    <use height="8.85" transform="matrix(0.8, 0.0, 0.0, 0.8, 9.1, 29.79)" width="17.35" xlink:href="#sprite1"/>
    <use height="6.45" transform="matrix(0.8, 0.0, 0.0, 0.8, 22.9, 26.65)" width="9.1" xlink:href="#sprite2"/>
  </g>
  <defs>
    <g id="shape0" transform="matrix(1.0, 0.0, 0.0, 1.0, -7.05, -20.55)">
      <path d="M24.6 20.65 Q26.95 20.65 28.55 22.3 30.15 23.95 30.15 26.25 30.15 28.55 28.55 30.2 26.95 31.85 24.6 31.85 L22.85 31.5 Q22.0 33.85 19.95 35.35 17.8 36.85 15.2 36.85 11.8 36.85 9.45 34.45 7.05 32.1 7.05 28.7 7.05 25.3 9.45 22.95 11.8 20.55 15.2 20.55 18.3 20.55 20.5 22.5 22.2 20.65 24.6 20.65" fill="url(#gradient0)" fill-rule="evenodd" stroke="none"/>
      <path d="M11.55 23.6 Q13.75 23.55 12.2 25.65 10.6 27.85 9.95 27.2 9.35 26.6 9.95 25.1 10.55 23.65 11.55 23.6" fill="#fad4ad" fill-rule="evenodd" stroke="none"/>
      <path d="M9.45 28.25 Q10.0 28.35 9.85 29.05 9.65 29.8 9.25 29.55 8.9 29.3 8.95 28.75 9.1 28.2 9.45 28.25" fill="#fad4ad" fill-rule="evenodd" stroke="none"/>
      <path d="M23.15 21.75 Q24.15 21.8 23.15 22.35 L22.1 22.45 Q22.1 21.65 23.15 21.75" fill="#cf9c64" fill-rule="evenodd" stroke="none"/>
    </g>
    <radialGradient cx="0" cy="0" gradientTransform="matrix(0.024, 0.0116, 0.0116, -0.024, 11.0, 24.9)" gradientUnits="userSpaceOnUse" id="gradient0" r="819.2" spreadMethod="pad">
      <stop offset="0.0" stop-color="#e0aa6e"/>
      <stop offset="0.3843137254901961" stop-color="#b88857"/>
      <stop offset="1.0" stop-color="#7a5433"/>
    </radialGradient>
    <g id="sprite0" transform="matrix(1.0, 0.0, 0.0, 1.0, 0.0, 0.0)">
      <use height="5.45" transform="matrix(1.0, 0.0, 0.0, 1.0, 0.0, 0.0)" width="2.45" xlink:href="#shape1"/>
    </g>
    <g id="shape1" transform="matrix(1.0, 0.0, 0.0, 1.0, 0.0, 0.0)">
      <path d="M0.0 0.0 L0.9 0.4 Q1.9 1.05 2.3 2.35 2.7 3.8 2.15 4.75 L1.55 5.45 Q2.05 3.95 1.55 2.45 0.9 0.45 0.0 0.0" fill="#54371e" fill-rule="evenodd" stroke="none"/>
    </g>
    <g id="sprite1" transform="matrix(1.0, 0.0, 0.0, 1.0, 0.0, -0.3)">
      <use height="8.85" transform="matrix(1.0, 0.0, 0.0, 1.0, 0.0, 0.3)" width="17.35" xlink:href="#shape2"/>
    </g>
    <g id="shape2" transform="matrix(1.0, 0.0, 0.0, 1.0, 0.0, -0.3)">
      <path d="M10.75 6.6 Q15.1 4.8 16.65 2.25 17.35 1.15 17.35 0.3 L17.25 2.45 17.2 2.45 Q16.15 5.4 13.55 7.25 10.9 9.15 7.65 9.15 3.1 9.15 0.0 5.7 2.1 7.25 5.2 7.5 8.2 7.7 10.75 6.6" fill="#54371e" fill-rule="evenodd" stroke="none"/>
    </g>
    <g id="sprite2" transform="matrix(1.0, 0.0, 0.0, 1.0, 0.0, 0.0)">
      <use height="6.45" transform="matrix(1.0, 0.0, 0.0, 1.0, 0.0, 0.0)" width="9.1" xlink:href="#shape3"/>
    </g>
    <g id="shape3" transform="matrix(1.0, 0.0, 0.0, 1.0, 0.0, 0.0)">
      <path d="M5.15 4.55 Q7.9 3.7 9.1 0.0 8.9 2.7 6.9 4.6 4.9 6.45 2.15 6.45 L0.0 6.05 0.1 4.35 0.15 4.3 Q0.6 4.65 1.4 4.85 L5.15 4.55" fill="#54371e" fill-rule="evenodd" stroke="none"/>
    </g>
  </defs>
</svg>
