<?xml version="1.0" encoding="UTF-8" standalone="no"?>
<svg xmlns:xlink="http://www.w3.org/1999/xlink" height="105.1px" width="388.05px" xmlns="http://www.w3.org/2000/svg">
  <g transform="matrix(1.0, 0.0, 0.0, 1.0, 0.0, 0.0)">
    <use height="105.1" transform="matrix(1.0, 0.0, 0.0, 1.0, 0.0, 0.0)" width="388.05" xlink:href="#shape0"/>
  </g>
  <defs>
    <g id="shape0" transform="matrix(1.0, 0.0, 0.0, 1.0, 0.0, 0.0)">
      <path d="M41.2 33.75 L44.7 32.75 24.7 41.5 Q22.5 42.5 20.65 43.9 18.65 45.35 18.45 46.25 L18.35 48.5 18.95 48.25 22.45 46.25 25.95 44.75 Q23.45 48.75 21.95 49.75 L17.65 52.75 12.95 55.75 Q11.7 56.4 10.2 58.4 L8.95 60.25 11.4 60.75 16.45 61.25 39.4 62.65 43.45 62.75 54.6 61.9 Q62.8 60.65 68.2 58.75 74.35 56.55 79.95 54.9 86.0 53.1 88.7 52.75 L99.05 52.05 109.95 51.75 123.75 50.6 Q135.2 49.15 143.2 47.0 151.25 44.8 159.6 42.95 L169.65 40.85 154.2 45.1 138.7 49.05 Q129.45 51.05 118.55 51.85 L98.2 52.55 91.3 52.75 Q92.25 52.8 84.75 54.45 L77.2 56.95 75.3 57.45 Q68.75 59.3 68.05 60.15 59.75 63.1 48.65 63.4 L28.95 63.25 15.65 63.15 Q8.45 62.8 2.8 61.5 8.25 55.1 11.2 52.8 L11.7 52.45 11.9 52.15 13.2 50.25 16.95 45.0 Q17.55 44.05 20.75 42.05 24.0 40.0 26.2 39.25 L32.75 36.55 Q37.55 34.55 38.95 34.25 L41.2 33.75 M169.8 40.85 L175.95 38.95 Q180.7 37.5 185.2 37.5 L194.5 38.0 201.95 38.5 209.1 38.75 217.0 38.25 225.95 37.55 232.7 37.0 240.55 34.85 Q246.35 33.35 247.45 33.6 253.35 34.95 258.2 35.25 260.7 35.4 264.1 33.85 L266.95 32.25 268.7 30.0 269.95 27.8 270.45 26.75 270.45 31.75 271.1 32.7 Q271.95 33.8 273.2 34.25 L275.95 35.4 271.2 34.0 268.35 33.0 266.5 33.9 Q262.25 35.65 257.75 35.7 252.45 35.8 247.45 33.6 L236.3 36.3 Q226.05 38.75 217.35 39.5 L204.55 39.5 203.25 39.5 194.65 38.55 Q187.15 37.95 180.3 38.65 L177.4 39.15 169.8 40.85 M289.4 8.4 L289.95 8.0 291.2 8.75 290.95 12.75 Q290.8 14.3 289.75 15.7 L288.7 16.75 287.45 14.5 287.7 12.25 Q287.7 11.0 288.45 9.5 288.75 8.9 289.4 8.4 M276.45 6.75 L277.35 8.1 278.2 10.0 Q278.2 10.75 275.95 10.0 L274.95 6.75 276.45 6.75 M248.35 23.0 L247.95 23.0 248.85 23.2 248.95 23.25 Q243.7 23.5 241.7 23.25 240.45 23.1 239.6 22.3 L236.95 19.25 Q236.45 17.75 236.45 17.0 236.45 16.55 237.35 15.1 L238.2 13.75 240.2 19.25 241.5 20.05 Q242.9 20.95 243.7 21.25 L248.35 23.0 M278.7 51.1 Q280.4 51.95 279.8 53.3 279.25 54.5 278.3 54.55 276.45 54.65 275.35 55.15 273.55 55.95 273.6 58.55 L273.6 58.75 Q273.1 56.45 273.1 55.75 273.1 55.2 273.75 53.4 L274.35 51.75 276.6 50.2 278.7 51.1 M254.85 60.7 L257.75 58.85 Q258.8 58.05 259.45 58.0 L260.95 58.25 Q262.55 58.55 266.7 60.4 L263.2 60.7 260.8 61.25 258.4 61.6 Q257.2 61.6 256.7 62.1 L256.45 62.55 255.2 64.1 253.6 65.65 252.0 68.7 252.6 64.4 Q252.8 63.45 253.85 61.95 L254.85 60.7 M284.9 91.65 Q285.35 91.15 285.65 87.75 L285.9 83.2 286.1 81.4 286.5 79.8 Q286.7 79.05 288.15 76.95 L290.05 74.25 291.2 72.6 292.6 71.2 Q293.2 70.8 292.95 70.2 L292.6 69.65 Q295.15 65.0 296.45 63.8 297.25 63.0 298.0 61.0 L298.65 59.15 Q299.5 57.95 301.65 58.4 303.15 58.7 304.45 59.45 305.4 60.1 304.45 61.3 L303.8 63.8 Q303.1 65.55 303.45 66.85 303.8 68.1 303.45 70.55 L300.25 68.4 298.05 68.4 Q296.95 68.4 297.0 68.75 297.25 69.8 296.45 71.2 295.75 72.4 295.2 74.0 294.75 75.1 293.9 76.1 292.95 77.2 293.3 77.55 L293.9 78.25 Q293.9 78.9 292.85 79.7 L290.35 81.35 Q289.2 82.1 289.65 82.85 L290.35 84.1 289.65 88.15 288.45 93.05 Q287.95 94.65 286.85 95.25 L285.55 95.3 285.2 94.35 Q284.9 93.2 284.9 91.65 M164.25 20.0 L162.95 19.75 Q159.7 18.75 157.95 17.5 L160.95 16.75 165.45 16.25 166.45 18.5 169.2 20.25 166.45 20.25 164.25 20.0 M188.7 17.75 Q189.95 17.0 190.45 16.25 190.75 15.8 192.75 14.7 L194.7 13.75 197.95 13.25 201.2 13.5 199.7 15.35 Q199.2 16.05 199.2 16.5 L199.2 18.25 203.7 22.25 199.95 21.75 195.95 21.5 194.45 22.0 194.45 24.75 Q194.2 25.75 193.2 26.25 L192.1 26.95 191.2 27.5 190.05 27.65 189.45 27.25 Q189.45 27.05 188.65 26.8 L187.45 26.0 186.4 24.4 Q185.7 23.45 185.7 23.0 185.7 22.0 185.2 20.5 184.75 19.2 186.2 18.5 L187.85 17.95 188.7 17.75 M131.8 34.45 L130.45 35.75 129.45 36.25 Q128.2 35.25 127.45 35.0 125.2 34.25 123.45 34.25 L120.15 33.9 117.95 33.5 121.2 31.25 Q121.7 30.75 121.95 29.65 122.2 28.65 122.7 28.25 L124.1 27.25 Q124.7 26.75 124.7 26.25 124.7 25.65 124.85 25.4 L125.95 24.5 130.05 22.7 133.2 21.5 131.1 23.05 Q128.95 24.7 128.95 25.5 L128.95 26.75 129.2 28.75 Q129.2 29.75 128.7 30.75 L128.25 31.55 Q127.9 32.35 128.7 32.5 L132.45 33.25 131.8 34.45 M165.6 35.2 Q166.4 34.55 167.2 34.25 L167.85 34.95 168.45 36.25 Q168.45 37.0 170.7 38.0 L167.45 38.0 Q167.0 38.0 165.9 36.9 L164.95 35.75 165.6 35.2 M176.95 30.0 L181.2 32.0 176.95 32.0 173.7 31.0 173.2 29.5 175.2 28.0 176.95 30.0 M169.75 74.15 L169.25 72.85 Q170.75 72.3 170.75 70.85 170.75 68.45 173.05 67.25 174.6 66.45 180.35 64.4 L181.1 68.8 Q181.1 73.9 177.45 77.35 L174.9 79.65 Q174.55 79.85 174.45 79.1 174.1 75.95 170.75 74.55 L169.75 74.15 M118.0 98.15 Q117.4 98.4 116.5 98.8 114.7 99.6 113.2 100.45 L106.95 97.2 110.3 88.45 Q111.05 86.35 112.15 85.3 113.2 84.3 116.05 82.9 118.45 81.75 118.0 79.45 L117.05 77.35 117.05 71.8 118.5 75.15 Q119.9 79.1 119.9 81.95 119.9 84.3 120.15 84.15 120.9 83.8 121.85 85.65 123.05 87.95 121.6 89.35 L121.2 89.7 119.9 90.3 119.9 93.5 Q119.9 95.55 118.95 97.05 L118.0 98.15 M83.95 99.05 L75.8 98.15 73.85 97.65 73.85 95.85 Q73.85 94.0 74.35 93.9 75.8 93.55 77.7 91.2 L81.65 87.3 Q82.95 86.2 83.45 84.75 L91.15 85.65 91.15 94.9 88.1 96.1 Q84.85 97.6 83.95 99.05 M128.7 43.25 L130.45 45.75 133.2 47.25 128.2 46.75 Q127.25 46.6 126.95 46.15 L126.45 45.0 Q126.1 44.35 126.85 43.95 L128.7 43.25 M140.45 37.75 Q142.7 37.5 143.45 36.5 L144.35 35.35 Q144.8 34.9 145.45 34.75 L149.45 33.25 151.45 32.75 150.45 34.75 150.1 35.8 Q149.9 36.85 150.7 37.0 L155.95 37.5 158.7 38.25 153.95 39.0 Q151.7 40.0 150.2 40.0 L146.4 39.45 142.95 38.5 141.35 37.95 140.45 37.75 M101.95 23.75 L99.95 25.75 100.25 26.0 100.95 27.0 Q101.45 28.0 101.45 29.0 L96.45 28.5 91.7 27.75 Q93.2 27.25 94.2 26.5 L96.7 24.5 Q98.6 23.25 99.7 23.25 L105.2 23.0 101.95 23.75 M83.2 29.25 L85.7 30.25 81.2 30.25 76.95 30.75 73.75 30.85 71.7 30.75 72.95 29.75 Q76.2 28.5 77.7 27.5 78.65 26.9 79.9 26.9 L80.95 27.0 83.2 29.25 M95.7 35.3 L94.7 36.25 92.7 37.5 91.7 38.75 91.7 40.5 91.95 42.75 88.7 44.25 86.75 44.8 83.7 45.5 81.1 46.4 79.2 46.75 76.15 46.9 74.45 47.0 76.7 45.0 80.45 41.5 Q84.45 40.0 85.95 39.0 L89.2 36.75 95.95 33.75 100.35 33.35 99.7 33.45 97.45 34.0 Q96.85 34.3 95.7 35.3 M113.7 23.75 L115.95 22.5 114.7 25.25 113.95 26.25 112.95 25.75 113.7 23.75 M85.75 72.8 Q88.1 70.25 87.6 72.1 87.45 72.7 88.75 74.6 90.0 76.55 89.85 77.35 89.65 78.3 88.55 79.2 L86.0 81.05 Q84.75 82.05 84.0 81.35 83.45 80.8 83.45 79.8 L83.15 78.6 Q82.95 77.8 83.15 76.75 83.4 75.3 85.75 72.8 M127.65 88.25 L127.8 88.05 Q130.05 84.85 132.05 83.2 133.3 82.15 135.7 82.0 L140.7 81.35 Q142.3 80.9 143.25 82.2 144.15 83.5 142.6 83.5 L140.45 83.75 137.8 84.45 Q136.5 84.75 135.2 85.45 133.5 86.45 131.4 87.2 128.8 88.15 129.05 90.7 129.15 91.9 129.7 92.9 L127.25 88.75 127.65 88.25 M38.6 53.1 Q39.95 52.25 40.95 51.0 L42.75 49.2 44.2 47.75 44.85 47.05 Q45.9 46.15 48.2 45.0 L49.75 43.85 50.7 42.5 51.75 41.4 52.95 40.25 Q53.5 39.7 54.35 39.55 L55.95 39.0 Q56.95 38.4 59.15 37.45 61.4 36.5 61.95 36.5 62.95 34.5 63.7 33.75 64.15 33.3 66.0 33.2 L67.7 33.25 67.1 33.45 Q66.4 33.8 65.95 34.25 L63.2 37.25 61.1 39.0 58.95 40.75 57.25 42.3 Q56.25 43.3 55.95 44.25 55.65 45.1 53.45 46.65 L50.2 49.0 Q49.15 50.05 47.75 50.5 L44.2 51.25 Q42.4 51.55 40.45 52.3 L40.3 52.35 38.6 53.1 M60.55 34.3 L58.2 34.8 57.2 34.75 58.1 33.7 58.8 33.1 59.95 32.65 Q61.2 32.75 60.55 34.3 M36.95 40.25 L37.9 40.05 39.95 39.5 39.9 40.25 Q39.65 41.0 38.7 41.0 L37.25 40.65 36.95 40.25 M25.45 47.9 Q26.95 46.65 28.2 46.0 29.45 45.4 32.2 45.4 L34.7 45.5 39.2 46.25 33.7 50.25 Q32.75 50.9 31.5 51.0 L29.45 51.0 27.75 50.7 26.2 50.25 24.85 49.55 24.2 49.0 25.45 47.9 M61.35 49.05 L62.95 48.25 62.2 49.9 Q61.45 51.65 61.45 52.25 61.45 53.25 63.7 53.75 L59.7 54.25 57.2 54.25 Q56.4 54.25 56.0 53.65 L55.7 53.0 56.7 52.25 58.3 51.35 59.7 50.25 Q60.15 49.65 61.35 49.05 M44.95 34.75 L47.2 36.5 Q45.2 37.25 43.7 37.25 L42.1 37.3 39.95 37.75 37.25 38.2 36.2 38.25 39.95 35.5 Q41.2 34.55 43.2 34.55 L44.95 34.75 M33.15 58.95 Q33.0 59.5 32.45 59.5 L29.35 59.35 26.45 59.0 24.7 58.75 26.45 58.0 Q27.55 57.55 29.5 57.45 L31.2 57.5 35.95 57.0 35.1 57.3 Q34.15 57.7 33.7 58.0 33.4 58.2 33.15 58.95 M36.45 50.75 L35.45 53.0 Q35.25 53.55 33.9 54.05 L31.2 54.5 28.15 54.0 26.45 53.5 27.3 53.3 29.45 52.5 Q30.55 52.05 32.6 51.7 L34.45 51.5 36.45 50.75 M19.15 101.35 Q18.0 100.1 15.85 98.65 L15.8 98.6 15.75 98.6 Q14.95 97.95 14.6 95.05 L14.4 92.15 Q15.6 90.4 21.9 91.7 L26.4 92.85 26.6 92.9 27.95 93.35 26.95 94.75 25.75 96.3 Q23.1 99.5 20.8 100.75 19.85 101.25 19.15 101.35 M41.6 91.0 L41.7 90.4 42.5 87.8 Q42.5 86.65 42.65 86.0 42.85 84.95 43.5 83.5 L44.45 85.3 Q45.4 87.25 45.4 87.8 45.4 88.5 44.95 89.0 L42.7 90.75 Q42.1 90.55 41.6 91.0 M51.7 57.25 Q51.2 57.75 51.45 59.25 L47.95 59.25 Q46.85 59.25 46.9 58.75 L47.2 58.25 49.85 57.35 51.7 57.25" fill="#6d4126" fill-rule="evenodd" stroke="none"/>
      <path d="M41.2 33.75 Q54.15 29.5 73.45 25.5 L74.45 25.0 79.45 23.0 80.65 22.55 82.95 22.5 85.85 22.65 88.45 22.6 89.2 22.45 93.5 21.35 96.95 20.5 101.45 20.0 103.6 20.0 122.9 17.05 Q125.85 16.25 127.7 16.25 129.55 16.25 135.35 14.6 141.45 12.85 143.2 12.75 L150.7 12.5 154.0 12.55 158.15 12.55 169.6 11.3 174.75 10.35 179.45 9.5 189.2 8.25 Q191.35 8.05 201.75 8.1 L241.55 4.85 252.2 3.5 260.4 3.3 265.45 2.75 269.65 1.45 275.2 0.75 291.45 1.0 298.65 1.2 305.7 1.0 315.95 0.0 325.2 0.75 335.7 1.75 337.65 1.4 340.95 1.75 344.35 2.1 Q345.35 2.05 347.7 3.0 L352.4 4.65 356.95 5.5 Q363.35 6.7 364.95 7.5 366.9 8.5 367.75 8.7 L376.75 8.35 Q377.85 8.6 379.15 11.25 L380.15 13.6 380.0 13.3 377.1 16.95 Q372.05 22.2 365.3 25.05 358.55 27.9 351.25 27.75 L349.05 27.85 342.25 32.35 Q338.9 34.25 335.35 35.75 L320.05 38.05 307.65 38.95 Q306.55 38.2 305.4 38.5 L303.5 38.2 Q302.5 37.95 302.5 38.8 L296.6 38.05 300.25 39.2 293.25 38.65 Q284.15 37.65 275.95 35.4 L273.2 34.25 Q271.95 33.8 271.1 32.7 L270.45 31.75 270.45 26.75 269.95 27.8 268.7 30.0 266.95 32.25 264.1 33.85 Q260.7 35.4 258.2 35.25 253.35 34.95 247.45 33.6 246.35 33.35 240.55 34.85 L232.7 37.0 225.95 37.55 217.0 38.25 209.1 38.75 201.95 38.5 194.5 38.0 185.2 37.5 Q180.7 37.5 175.95 38.95 L169.8 40.85 169.65 40.85 159.6 42.95 Q151.25 44.8 143.2 47.0 135.2 49.15 123.75 50.6 L109.95 51.75 99.05 52.05 88.7 52.75 Q86.0 53.1 79.95 54.9 74.35 56.55 68.2 58.75 62.8 60.65 54.6 61.9 L43.45 62.75 39.4 62.65 16.45 61.25 11.4 60.75 8.95 60.25 10.2 58.4 Q11.7 56.4 12.95 55.75 L17.65 52.75 21.95 49.75 Q23.45 48.75 25.95 44.75 L22.45 46.25 18.95 48.25 18.35 48.5 18.45 46.25 Q18.65 45.35 20.65 43.9 22.5 42.5 24.7 41.5 L44.7 32.75 41.2 33.75 M356.55 98.25 L356.25 98.25 353.1 98.55 354.2 98.25 353.75 97.55 354.95 96.3 Q355.15 95.45 356.3 92.45 357.05 90.5 357.35 87.5 357.65 84.6 355.95 81.8 353.5 77.8 353.05 76.4 353.5 76.2 353.8 74.3 354.2 71.85 354.95 70.4 L356.4 67.65 357.65 67.3 Q358.95 67.3 359.25 69.0 359.55 70.7 360.25 72.5 L358.3 72.05 356.65 72.45 356.25 72.75 356.05 73.0 355.9 73.2 355.75 73.5 Q355.35 74.4 355.7 75.7 355.9 76.55 356.4 77.15 356.75 78.55 358.05 79.35 359.45 80.25 361.2 79.9 362.6 79.6 362.75 78.1 L363.0 78.5 Q363.6 79.65 363.6 81.05 L363.6 87.5 363.9 90.05 Q364.0 91.75 363.1 92.6 359.25 96.3 356.85 96.3 355.9 96.3 355.8 96.9 355.7 97.5 356.55 98.25 M313.5 104.25 L310.8 104.3 309.4 103.85 Q306.95 103.85 294.35 101.45 L290.3 101.0 288.35 100.9 285.9 96.3 285.55 95.3 286.85 95.25 Q287.95 94.65 288.45 93.05 L289.65 88.15 290.35 84.1 289.65 82.85 Q289.2 82.1 290.35 81.35 L292.85 79.7 Q293.9 78.9 293.9 78.25 L293.3 77.55 Q292.95 77.2 293.9 76.1 294.75 75.1 295.2 74.0 295.75 72.4 296.45 71.2 297.25 69.8 297.0 68.75 296.95 68.4 298.05 68.4 L300.25 68.4 303.45 70.55 Q303.8 68.1 303.45 66.85 303.1 65.55 303.8 63.8 L304.45 61.3 Q305.4 60.1 304.45 59.45 303.15 58.7 301.65 58.4 299.5 57.95 298.65 59.15 L298.0 61.0 Q297.25 63.0 296.45 63.8 295.15 65.0 292.6 69.65 L292.95 70.2 Q293.2 70.8 292.6 71.2 L291.2 72.6 290.05 74.25 288.15 76.95 Q286.7 79.05 286.5 79.8 L286.1 81.4 285.9 83.2 285.65 87.75 Q285.35 91.15 284.9 91.65 284.9 90.2 284.45 89.85 L283.95 89.8 280.8 88.2 Q277.55 86.35 277.25 85.2 L275.8 79.65 272.95 72.25 270.3 67.95 267.65 63.95 Q267.05 62.8 265.85 63.0 L264.8 63.45 263.35 68.1 263.15 72.8 Q263.05 77.75 263.35 79.2 263.8 81.5 263.8 90.75 263.8 92.1 262.55 95.1 L260.7 99.6 261.75 99.6 257.55 99.85 253.5 100.05 248.8 100.25 248.45 100.3 248.0 99.55 Q246.6 97.45 245.8 94.5 L244.65 91.2 243.65 89.8 243.25 90.5 Q242.9 90.3 243.2 85.65 243.35 83.3 244.2 80.0 244.7 78.1 244.15 72.25 243.7 67.3 243.85 62.95 243.95 60.95 243.2 60.25 242.5 59.55 242.3 60.75 242.25 61.15 241.75 58.85 241.2 56.25 241.1 54.35 L240.8 51.9 239.3 51.85 Q238.9 52.15 240.3 50.05 241.75 48.0 242.3 47.65 L243.2 45.9 244.7 42.7 246.55 39.9 Q248.65 40.15 249.5 41.2 250.3 42.2 251.35 42.2 252.65 42.2 253.75 41.2 255.65 39.55 257.6 38.5 L262.4 35.75 Q263.3 35.15 267.7 36.3 L271.95 37.6 277.75 40.8 280.5 42.55 283.95 45.0 Q285.35 46.1 284.85 47.1 283.95 48.8 283.95 49.15 283.95 50.35 286.7 51.05 L291.65 51.9 Q293.6 52.25 297.2 54.25 300.15 55.85 303.15 57.95 305.1 59.25 305.3 60.35 305.6 61.65 306.05 62.1 307.1 63.1 308.25 67.15 309.4 71.2 309.4 73.65 L309.4 79.65 Q309.4 82.9 309.85 87.95 310.15 91.0 311.0 93.1 L313.2 98.6 Q314.0 100.8 314.0 102.05 314.05 103.05 313.5 104.25 M205.4 102.15 L203.25 101.75 202.4 99.1 Q201.95 97.5 201.95 94.9 201.95 93.75 201.15 90.75 200.6 88.65 201.45 83.8 202.1 80.1 202.4 75.7 202.6 73.3 203.35 71.8 L204.65 65.45 Q205.4 62.0 207.7 65.3 L211.3 70.7 Q212.0 72.0 212.0 73.65 L212.0 80.6 Q212.0 83.6 212.95 87.5 213.45 89.35 213.45 92.15 213.45 92.6 214.35 93.5 214.85 93.95 213.45 95.85 212.25 97.45 212.45 97.95 L211.05 99.05 208.15 100.9 206.05 101.05 Q204.2 101.35 205.4 102.15 M62.8 100.5 L61.7 100.7 62.55 100.15 Q63.35 99.5 64.75 97.2 L65.35 96.55 64.95 97.85 62.8 100.5 M57.6 100.95 L54.3 100.85 47.25 100.65 48.65 100.7 Q48.15 100.65 48.65 100.3 49.55 99.65 48.45 98.6 47.05 97.3 46.55 96.4 L44.6 93.5 Q44.1 91.2 42.7 90.75 L44.95 89.0 Q45.4 88.5 45.4 87.8 45.4 87.25 44.45 85.3 L43.5 83.5 Q42.85 84.95 42.65 86.0 42.5 86.65 42.5 87.8 L41.7 90.4 41.6 91.0 41.2 91.5 40.75 92.6 Q39.6 90.6 39.05 88.65 L38.35 86.15 Q38.05 85.3 35.8 87.0 L33.55 88.9 Q33.55 90.7 33.75 90.9 L33.55 92.6 Q33.25 94.65 32.1 95.45 31.5 95.85 30.95 95.85 32.3 94.85 31.65 93.5 L31.15 92.85 30.95 92.1 Q30.3 90.8 28.75 91.0 L28.35 91.1 Q27.3 91.3 26.75 92.0 L26.4 92.85 21.9 91.7 Q15.6 90.4 14.4 92.15 L14.6 95.05 Q14.95 97.95 15.75 98.6 L12.65 96.5 13.4 97.2 10.55 95.35 8.15 97.2 6.7 99.05 Q6.0 100.0 5.9 99.75 5.75 99.05 4.8 99.05 L0.85 98.85 0.85 99.05 0.7 97.15 0.65 96.4 0.45 91.15 0.5 91.6 0.5 92.75 0.55 93.2 0.65 96.4 0.7 96.55 0.7 97.15 Q1.7 95.95 1.9 94.45 L2.15 90.6 Q2.15 88.65 2.4 87.5 2.75 85.65 4.3 83.4 5.9 81.15 6.2 82.45 L7.2 87.5 7.2 92.6 10.45 93.25 Q13.8 93.6 14.4 92.15 14.9 91.0 14.15 90.8 13.9 90.75 15.35 89.8 16.95 88.8 18.45 87.2 L19.05 86.6 Q19.25 86.95 19.75 87.2 19.25 88.4 21.35 88.9 22.3 89.15 23.75 89.75 24.9 90.05 25.65 89.35 26.6 88.45 26.65 86.85 26.7 85.4 25.9 84.7 25.7 83.6 24.95 83.1 L23.85 82.75 23.8 82.6 23.15 82.8 22.85 82.9 23.8 81.55 Q24.45 80.6 26.35 80.6 28.05 80.6 28.05 81.1 L29.75 80.6 Q31.45 79.9 30.9 79.55 L33.1 79.2 37.75 78.3 Q39.2 77.95 40.3 78.75 40.8 79.1 43.65 80.15 45.55 80.9 45.55 81.95 45.55 82.9 44.5 83.25 44.15 83.35 45.55 83.8 47.0 84.3 47.0 84.65 L48.45 84.75 Q49.9 84.75 50.05 85.8 L51.3 84.75 Q53.15 82.6 56.45 81.9 59.85 81.2 60.9 82.9 61.65 84.05 61.25 86.45 61.2 87.05 61.3 86.9 L62.35 85.2 62.45 85.0 Q63.6 89.6 62.85 90.3 62.1 91.0 61.65 92.2 L60.45 94.45 57.55 98.15 52.75 99.55 54.25 100.15 57.6 100.95 M33.15 101.9 L32.45 102.0 32.75 101.9 31.15 101.85 Q29.8 102.1 29.2 102.4 L29.1 102.4 25.95 102.65 21.75 102.2 19.0 101.5 19.3 101.55 19.15 101.35 Q19.85 101.25 20.8 100.75 23.1 99.5 25.75 96.3 L26.95 94.75 27.05 94.8 27.1 95.15 Q27.3 96.15 28.4 96.45 29.6 96.8 30.95 95.85 L29.7 96.85 Q28.7 97.85 30.2 98.15 L34.95 99.3 37.1 99.55 33.15 101.9 M11.2 52.8 L11.9 52.15 11.7 52.45 11.2 52.8 M347.95 18.75 L345.45 18.75 345.4 20.8 Q345.5 22.95 346.45 23.25 L351.45 24.25 353.95 24.75 356.45 21.75 Q356.2 21.5 356.2 21.15 356.2 20.4 357.45 19.75 L362.45 17.25 360.55 12.45 358.45 14.25 Q356.6 15.8 352.1 17.45 L347.95 18.75 M338.95 11.25 L344.45 11.25 338.95 8.25 331.95 6.25 Q329.45 7.25 327.95 7.25 L320.45 7.25 324.2 9.0 Q328.2 10.75 329.45 10.75 L334.45 10.75 336.15 11.0 338.95 11.25 M328.45 21.25 L332.95 19.25 320.45 19.25 Q318.25 19.25 315.9 20.0 L313.95 20.75 307.95 24.25 Q305.95 27.25 304.45 27.25 L300.95 27.25 Q300.45 26.9 299.4 26.55 L294.45 26.25 Q293.4 26.35 292.2 27.25 L289.45 29.25 287.2 30.4 284.95 30.75 279.95 31.75 272.45 32.25 273.5 32.2 Q275.15 32.3 277.95 33.25 L281.6 34.55 284.45 34.75 288.1 35.0 290.95 35.25 293.45 35.25 Q295.95 33.7 298.2 33.3 L299.95 33.25 300.7 33.45 302.95 33.25 Q304.95 32.75 309.45 30.25 312.45 29.25 313.95 28.25 L315.95 26.95 317.95 25.25 Q318.7 24.5 318.15 24.5 317.95 24.5 319.45 23.75 321.35 22.8 325.1 21.95 L328.45 21.25 M293.95 10.0 L294.2 10.95 294.45 12.5 294.2 15.5 Q294.2 16.1 295.15 17.1 L296.45 18.5 296.45 22.25 297.9 22.75 299.95 23.25 302.2 23.25 Q302.2 22.25 301.7 21.5 L298.95 17.5 Q297.2 16.25 296.45 14.75 L295.7 13.0 294.55 10.85 293.95 10.0 M289.4 8.4 Q288.75 8.9 288.45 9.5 287.7 11.0 287.7 12.25 L287.45 14.5 288.7 16.75 289.75 15.7 Q290.8 14.3 290.95 12.75 L291.2 8.75 289.95 8.0 289.4 8.4 M276.45 6.75 L274.95 6.75 275.95 10.0 Q278.2 10.75 278.2 10.0 L277.35 8.1 276.45 6.75 M248.85 23.2 L251.15 23.75 255.45 24.5 Q259.7 24.5 260.7 23.5 L261.85 22.3 262.95 21.25 Q266.45 18.65 266.45 17.0 266.45 15.05 264.2 14.5 L262.45 13.4 261.45 12.5 257.2 11.25 259.4 12.9 Q261.5 14.65 261.2 15.25 L261.35 16.7 Q261.4 18.3 260.95 18.75 L260.4 19.45 259.45 20.5 Q258.2 21.75 256.7 22.5 L253.45 23.0 248.35 23.0 243.7 21.25 Q242.9 20.95 241.5 20.05 L240.2 19.25 238.2 13.75 237.35 15.1 Q236.45 16.55 236.45 17.0 236.45 17.75 236.95 19.25 L239.6 22.3 Q240.45 23.1 241.7 23.25 243.7 23.5 248.95 23.25 L248.85 23.2 M252.3 47.5 L251.65 47.05 Q250.55 46.45 249.25 46.7 246.5 47.15 246.25 49.45 246.15 50.25 246.35 50.9 L247.15 52.45 Q247.4 53.5 248.3 54.3 249.6 55.45 251.6 55.6 L254.65 56.2 Q255.7 56.3 256.15 54.7 256.65 52.85 255.75 51.3 L255.45 50.85 255.05 49.9 Q254.2 48.45 252.3 47.5 M204.75 39.65 L203.25 39.5 204.55 39.5 204.75 39.65 M278.7 51.1 L276.6 50.2 274.35 51.75 273.75 53.4 Q273.1 55.2 273.1 55.75 273.1 56.45 273.6 58.75 L273.6 58.55 Q273.55 55.95 275.35 55.15 276.45 54.65 278.3 54.55 279.25 54.5 279.8 53.3 280.4 51.95 278.7 51.1 M281.75 72.1 L281.7 72.25 281.8 72.2 281.8 72.25 282.4 73.05 282.5 73.65 Q282.85 74.65 284.5 75.1 L286.85 75.05 Q287.75 74.4 287.55 73.1 287.45 72.3 286.85 71.8 L286.85 71.7 Q286.7 70.6 285.75 70.1 L284.7 69.7 Q283.05 69.3 282.2 70.25 281.45 71.05 281.75 72.1 M254.85 60.7 L253.85 61.95 Q252.8 63.45 252.6 64.4 L252.0 68.7 253.6 65.65 255.2 64.1 256.45 62.55 256.7 62.1 Q257.2 61.6 258.4 61.6 L260.8 61.25 263.2 60.7 266.7 60.4 Q262.55 58.55 260.95 58.25 L259.45 58.0 Q258.8 58.05 257.75 58.85 L254.85 60.7 M261.45 67.15 Q261.4 65.05 261.6 63.8 261.85 61.95 261.05 63.95 260.25 66.05 259.35 69.95 258.4 74.0 258.65 80.25 258.8 85.6 258.05 87.2 L255.2 92.45 255.25 92.75 256.8 93.05 259.2 92.85 Q260.2 92.2 260.6 88.75 261.6 80.65 261.6 73.05 L261.45 67.15 M255.8 80.4 Q255.8 82.9 253.95 86.05 L251.35 90.0 Q250.4 91.85 250.4 93.05 L251.65 92.65 Q253.25 91.8 254.85 89.65 258.05 85.45 258.05 81.65 L258.05 73.05 256.95 75.35 Q255.8 78.1 255.8 80.4 M256.45 98.3 Q258.0 97.45 256.7 95.8 255.4 94.1 254.55 94.9 252.7 96.7 250.7 97.05 251.05 97.15 254.2 98.6 255.1 99.05 256.45 98.3 M286.8 58.4 L286.6 58.4 Q285.0 58.45 283.9 59.9 282.85 61.3 283.25 62.55 283.4 63.15 283.9 63.75 L283.95 63.95 Q284.4 65.4 286.75 66.85 289.3 68.4 290.45 67.15 292.4 65.0 292.3 62.7 292.25 61.6 291.6 60.9 291.3 59.2 289.3 58.65 L288.9 58.4 Q288.1 57.95 286.8 58.4 M302.85 82.9 L303.8 84.85 304.75 86.6 306.25 89.4 Q307.0 91.1 307.0 93.05 307.0 95.0 305.4 96.05 304.6 96.6 303.8 96.75 L305.35 97.7 Q307.05 98.6 307.65 98.6 310.55 98.6 309.85 95.55 L308.05 90.2 Q306.65 86.55 306.65 85.35 306.65 83.0 305.55 78.4 304.3 73.35 303.45 75.2 302.25 77.85 302.15 79.6 302.05 81.2 302.85 82.9 M304.6 88.15 Q304.05 87.6 303.15 87.5 L302.95 87.5 301.55 87.2 300.55 87.5 300.3 87.6 300.0 87.9 299.65 88.15 299.75 88.35 Q299.45 89.0 299.55 90.3 299.7 92.1 300.5 93.05 300.9 94.25 301.75 94.9 302.95 95.75 304.85 95.35 306.7 95.0 306.35 92.05 306.15 90.45 305.4 89.65 L304.6 88.15 M226.95 23.25 Q225.85 23.2 225.3 23.85 L224.95 24.5 225.55 25.15 Q226.25 25.65 226.7 25.0 L228.7 23.85 Q229.5 23.4 226.95 23.25 M209.15 16.75 Q207.85 17.1 207.7 17.75 207.45 18.75 207.95 21.75 L207.95 22.5 208.1 24.05 Q208.15 24.65 207.7 25.25 L206.85 26.4 205.95 27.0 203.7 27.5 205.1 27.7 207.95 27.75 209.95 27.35 211.2 26.75 212.55 26.15 213.7 25.0 214.4 23.95 214.7 22.5 215.2 19.25 215.3 18.25 215.2 17.25 Q215.0 16.65 214.3 16.3 213.55 15.95 213.2 16.5 212.7 17.25 210.95 16.5 L209.15 16.75 M217.2 31.25 L217.3 31.9 Q217.6 32.5 218.7 32.5 L221.25 32.7 223.2 32.5 224.7 31.85 Q225.45 31.45 225.45 31.0 225.45 30.45 223.65 30.3 L220.2 30.5 217.2 31.25 M188.7 17.75 L187.85 17.95 186.2 18.5 Q184.75 19.2 185.2 20.5 185.7 22.0 185.7 23.0 185.7 23.45 186.4 24.4 L187.45 26.0 188.65 26.8 Q189.45 27.05 189.45 27.25 L190.05 27.65 191.2 27.5 192.1 26.95 193.2 26.25 Q194.2 25.75 194.45 24.75 L194.45 22.0 195.95 21.5 199.95 21.75 203.7 22.25 199.2 18.25 199.2 16.5 Q199.2 16.05 199.7 15.35 L201.2 13.5 197.95 13.25 194.7 13.75 192.75 14.7 Q190.75 15.8 190.45 16.25 189.95 17.0 188.7 17.75 M164.25 20.0 L166.45 20.25 169.2 20.25 166.45 18.5 165.45 16.25 160.95 16.75 157.95 17.5 Q159.7 18.75 162.95 19.75 L164.25 20.0 M130.45 35.75 L131.45 35.7 133.95 35.25 138.65 33.75 142.95 32.25 Q143.75 32.0 144.75 30.65 146.0 28.95 146.95 28.25 L149.95 26.2 151.45 25.25 156.85 24.25 164.45 23.25 170.95 23.25 155.45 22.25 152.45 22.25 149.95 19.75 148.95 22.05 Q147.2 24.45 143.45 24.75 142.35 24.85 140.55 26.55 L138.95 28.25 138.25 29.45 136.45 31.75 Q135.7 32.5 134.2 33.0 132.7 33.5 131.95 34.25 L131.8 34.45 132.45 33.25 128.7 32.5 Q127.9 32.35 128.25 31.55 L128.7 30.75 Q129.2 29.75 129.2 28.75 L128.95 26.75 128.95 25.5 Q128.95 24.7 131.1 23.05 L133.2 21.5 130.05 22.7 125.95 24.5 124.85 25.4 Q124.7 25.65 124.7 26.25 124.7 26.75 124.1 27.25 L122.7 28.25 Q122.2 28.65 121.95 29.65 121.7 30.75 121.2 31.25 L117.95 33.5 120.15 33.9 123.45 34.25 Q125.2 34.25 127.45 35.0 128.2 35.25 129.45 36.25 L130.45 35.75 M176.95 30.0 L175.2 28.0 173.2 29.5 173.7 31.0 176.95 32.0 181.2 32.0 176.95 30.0 M165.6 35.2 L164.95 35.75 165.9 36.9 Q167.0 38.0 167.45 38.0 L170.7 38.0 Q168.45 37.0 168.45 36.25 L167.85 34.95 167.2 34.25 Q166.4 34.55 165.6 35.2 M169.25 72.85 L166.95 67.0 160.05 50.2 163.55 50.35 Q164.5 50.3 164.5 49.6 164.5 48.9 163.1 49.05 162.6 49.15 164.5 48.2 L167.95 46.6 170.3 46.35 Q171.75 46.35 173.3 48.6 L175.55 51.9 Q177.0 53.3 179.85 54.7 L186.1 58.4 186.65 58.8 Q187.25 59.4 187.55 60.25 187.75 60.85 188.75 61.65 189.7 62.45 189.95 63.45 L190.95 65.35 Q191.45 66.25 190.9 67.65 189.95 69.95 189.45 72.7 L189.95 76.4 191.15 79.45 Q192.35 82.85 192.35 84.3 L192.35 86.6 Q192.35 88.2 193.05 88.9 193.3 89.15 192.35 89.8 191.4 90.5 191.4 89.8 L190.4 91.2 Q189.45 92.85 190.0 93.2 L188.5 94.45 185.45 96.35 182.75 97.2 179.8 98.45 177.95 98.6 175.75 97.7 Q174.7 93.9 173.15 86.15 172.05 80.7 169.75 74.15 L170.75 74.55 Q174.1 75.95 174.45 79.1 174.55 79.85 174.9 79.65 L177.45 77.35 Q181.1 73.9 181.1 68.8 L180.35 64.4 Q174.6 66.45 173.05 67.25 170.75 68.45 170.75 70.85 170.75 72.3 169.25 72.85 M196.5 34.4 L198.95 34.5 200.2 33.5 199.5 32.15 198.7 32.5 196.0 33.4 194.95 33.5 196.5 34.4 M199.5 32.15 L199.6 32.0 199.45 32.0 199.5 32.15 M172.1 57.05 Q171.15 54.55 169.3 54.9 L166.8 55.4 Q165.2 56.0 165.5 57.45 165.75 58.85 166.4 59.55 166.8 60.8 167.55 61.3 168.65 61.95 171.25 61.6 173.8 61.3 172.9 58.6 L172.1 57.05 M185.4 81.25 Q184.35 79.65 183.25 79.65 L181.3 79.9 Q180.6 80.15 180.05 80.8 178.4 81.9 178.2 83.35 L177.7 85.85 Q177.75 86.6 178.5 86.95 L178.45 87.25 Q178.55 88.5 180.85 88.65 183.8 88.85 184.75 88.65 185.95 88.35 186.1 87.05 L186.5 84.5 Q186.6 83.25 186.1 82.65 L185.75 82.25 185.4 81.25 M131.5 102.75 L131.4 102.75 Q129.9 102.75 128.6 101.85 L127.6 100.9 Q124.25 100.45 121.85 99.55 120.65 99.1 120.9 99.0 121.6 98.85 121.35 98.15 121.05 97.3 119.5 97.65 L118.0 98.15 118.95 97.05 Q119.9 95.55 119.9 93.5 L119.9 90.3 121.2 89.7 120.85 90.75 119.9 93.5 121.35 96.3 121.85 99.55 123.35 99.5 Q124.9 99.15 125.2 97.7 125.4 96.6 126.1 94.8 126.65 93.35 126.65 92.6 L126.65 88.45 Q126.65 87.65 127.65 88.25 L127.25 88.75 129.7 92.9 Q129.15 91.9 129.05 90.7 128.8 88.15 131.4 87.2 133.5 86.45 135.2 85.45 136.5 84.75 137.8 84.45 L140.45 83.75 142.6 83.5 Q144.15 83.5 143.25 82.2 142.3 80.9 140.7 81.35 L135.7 82.0 Q133.3 82.15 132.05 83.2 130.05 84.85 127.8 88.05 L126.65 86.6 123.25 82.45 121.85 85.65 Q120.9 83.8 120.15 84.15 119.9 84.3 119.9 81.95 119.9 79.1 118.5 75.15 L117.05 71.8 117.05 77.35 118.0 79.45 Q118.45 81.75 116.05 82.9 113.2 84.3 112.15 85.3 111.05 86.35 110.3 88.45 L106.95 97.2 113.2 100.45 110.7 101.7 107.45 101.85 105.8 101.8 104.1 101.4 102.15 101.2 98.8 101.4 96.25 101.35 Q96.4 101.15 94.0 100.9 L102.15 100.0 105.5 98.15 Q106.25 97.7 106.75 98.55 106.95 98.85 106.95 97.2 106.95 96.2 106.5 96.0 L105.7 95.95 Q105.0 95.75 106.95 91.2 L109.35 85.4 110.3 83.35 Q111.05 82.0 111.05 82.5 L111.75 80.6 Q112.65 78.0 113.0 75.35 L113.2 73.2 Q112.25 75.5 110.8 76.4 110.2 76.8 109.3 79.15 108.5 81.25 107.45 81.5 L105.5 81.95 101.2 87.05 Q101.3 87.6 102.35 89.25 102.8 90.0 101.7 92.15 L100.3 96.35 Q99.85 97.9 97.85 98.15 L94.0 98.4 91.6 98.6 88.25 99.55 88.5 99.95 83.95 99.05 Q84.85 97.6 88.1 96.1 L91.15 94.9 91.15 85.65 83.45 84.75 Q82.95 86.2 81.65 87.3 L77.7 91.2 Q75.8 93.55 74.35 93.9 73.85 94.0 73.85 95.85 L73.85 97.65 73.25 97.35 Q72.45 96.55 71.45 95.85 L69.75 94.25 69.05 92.6 Q68.7 91.5 67.8 91.2 L67.3 91.1 67.5 90.3 Q67.7 89.75 67.15 86.6 66.7 83.8 65.25 81.05 64.8 80.2 64.7 79.55 64.5 78.75 64.75 78.25 L65.6 75.65 65.7 72.7 65.45 71.25 65.6 70.7 Q65.7 70.4 67.15 69.0 67.9 68.35 67.15 68.15 L68.6 67.65 72.3 67.05 75.3 67.15 77.95 66.85 80.6 66.25 87.7 65.5 94.5 65.8 100.5 66.15 105.05 65.8 104.75 66.05 106.95 66.25 109.9 65.65 113.2 65.8 118.9 67.0 Q121.9 67.7 122.8 68.55 123.55 69.25 124.0 70.55 124.8 71.5 128.05 71.8 L132.8 72.1 135.75 72.7 138.9 72.85 Q140.45 72.85 142.45 75.05 144.15 76.9 144.85 77.05 L145.8 78.75 Q146.45 80.15 146.6 81.8 146.7 82.8 147.75 83.8 L151.55 87.05 148.2 92.15 148.1 93.5 Q147.85 95.0 147.25 95.85 L145.65 97.95 Q144.5 99.05 142.95 99.05 L139.65 99.05 Q137.75 99.25 135.25 100.45 133.75 101.2 131.55 102.7 L131.5 102.75 M204.55 71.15 Q204.0 72.35 204.0 73.95 L204.0 77.95 Q205.3 74.55 206.25 73.65 207.05 72.85 207.2 71.55 207.35 70.15 206.25 69.95 205.2 69.75 204.55 71.15 M208.9 82.85 Q208.15 82.25 207.2 82.25 L205.15 82.2 204.45 82.5 Q204.1 82.7 203.9 83.1 L203.7 83.5 Q203.2 84.65 203.75 86.35 L203.8 86.45 204.35 87.8 204.45 87.55 Q204.65 88.3 205.15 88.85 L207.95 88.9 Q210.5 87.35 210.7 85.8 210.85 84.95 210.0 84.45 L210.0 84.4 Q210.15 83.4 208.9 82.85 M203.2 92.75 Q203.4 96.75 204.35 97.7 205.6 98.9 206.9 98.6 207.85 98.0 207.85 96.45 207.85 95.65 206.4 94.15 204.65 92.25 204.0 90.9 203.0 88.75 203.2 92.75 M311.45 101.7 Q312.4 101.4 311.45 98.9 L309.85 100.15 Q310.5 102.0 311.45 101.7 M128.7 43.25 L126.85 43.95 Q126.1 44.35 126.45 45.0 L126.95 46.15 Q127.25 46.6 128.2 46.75 L133.2 47.25 130.45 45.75 128.7 43.25 M140.45 37.75 L141.35 37.95 142.95 38.5 146.4 39.45 150.2 40.0 Q151.7 40.0 153.95 39.0 L158.7 38.25 155.95 37.5 150.7 37.0 Q149.9 36.85 150.1 35.8 L150.45 34.75 151.45 32.75 149.45 33.25 145.45 34.75 Q144.8 34.9 144.35 35.35 L143.45 36.5 Q142.7 37.5 140.45 37.75 M77.2 56.95 L68.05 60.15 Q68.75 59.3 75.3 57.45 L77.2 56.95 M101.95 23.75 L105.2 23.0 99.7 23.25 Q98.6 23.25 96.7 24.5 L94.2 26.5 Q93.2 27.25 91.7 27.75 L96.45 28.5 101.45 29.0 Q101.45 28.0 100.95 27.0 L100.25 26.0 99.95 25.75 101.95 23.75 M113.7 23.75 L112.95 25.75 113.95 26.25 114.7 25.25 115.95 22.5 113.7 23.75 M95.7 35.3 Q96.85 34.3 97.45 34.0 L99.7 33.45 100.35 33.35 95.95 33.75 89.2 36.75 85.95 39.0 Q84.45 40.0 80.45 41.5 L76.7 45.0 74.45 47.0 76.15 46.9 79.2 46.75 81.1 46.4 83.7 45.5 86.75 44.8 88.7 44.25 91.95 42.75 91.7 40.5 91.7 38.75 92.7 37.5 94.7 36.25 95.7 35.3 M83.2 29.25 L80.95 27.0 79.9 26.9 Q78.65 26.9 77.7 27.5 76.2 28.5 72.95 29.75 L71.7 30.75 73.75 30.85 76.95 30.75 81.2 30.25 85.7 30.25 83.2 29.25 M82.15 47.55 L79.45 47.75 74.95 49.75 82.95 48.5 93.95 47.25 97.95 47.45 100.45 47.25 104.95 45.75 109.95 43.75 114.1 44.05 120.45 44.75 123.45 45.25 Q118.95 41.75 115.95 41.25 L112.25 40.65 Q110.8 40.25 110.45 39.25 110.15 38.3 110.0 36.95 L109.95 35.75 108.35 37.7 105.95 40.75 103.9 42.8 Q102.55 43.75 101.45 43.75 L95.45 43.75 Q90.95 44.75 87.45 46.25 85.25 47.2 82.15 47.55 M96.3 75.55 L96.5 76.3 Q97.15 77.65 99.5 77.8 101.3 77.95 104.15 78.85 106.1 79.25 106.25 77.1 106.45 74.2 105.4 73.05 L105.35 73.0 Q105.1 72.15 104.65 71.65 103.5 70.4 100.3 70.25 L99.3 70.2 96.55 70.35 Q95.45 70.65 95.45 72.05 L95.45 72.45 95.25 72.85 Q95.1 73.55 95.55 74.05 L95.8 74.9 96.3 75.55 M85.75 72.8 Q83.4 75.3 83.15 76.75 82.95 77.8 83.15 78.6 L83.45 79.8 Q83.45 80.8 84.0 81.35 84.75 82.05 86.0 81.05 L88.55 79.2 Q89.65 78.3 89.85 77.35 90.0 76.55 88.75 74.6 87.45 72.7 87.6 72.1 88.1 70.25 85.75 72.8 M96.25 79.45 L95.95 79.8 95.75 81.35 96.05 81.2 96.65 82.0 96.65 82.2 Q97.0 84.2 100.0 83.8 101.45 83.65 101.45 81.85 101.45 80.6 100.75 80.15 100.6 78.7 99.3 78.5 97.6 78.3 96.65 79.0 L96.25 79.45 M128.1 78.25 Q128.5 79.45 129.15 79.85 L131.65 80.1 Q133.25 79.95 132.7 78.35 L131.95 76.95 Q131.45 75.55 130.45 74.8 129.15 73.6 128.25 74.7 L128.25 74.75 Q127.0 75.4 127.35 76.65 127.6 77.75 128.1 78.25 M140.6 91.7 L140.1 91.2 137.4 91.0 Q136.05 91.0 135.3 91.5 L134.75 91.65 Q134.2 91.8 134.3 92.9 L134.45 94.6 134.65 94.4 135.1 94.95 135.25 95.6 Q135.6 96.6 137.45 96.95 L140.55 96.75 Q142.25 96.05 142.05 94.3 141.95 93.5 141.35 93.05 L141.3 92.95 Q141.2 92.15 140.6 91.7 M58.8 33.1 L55.7 33.5 53.9 34.7 51.2 36.75 50.2 38.2 48.7 39.6 46.9 41.15 Q46.15 41.85 44.75 42.1 L42.6 42.3 40.75 42.5 Q39.55 42.75 36.55 43.9 L33.8 44.95 36.3 44.85 Q39.0 44.85 39.95 45.35 40.9 45.85 40.65 47.3 L40.2 48.6 38.35 51.5 33.85 54.75 35.65 54.1 Q37.6 53.35 38.6 53.1 L40.45 52.3 Q42.4 51.55 44.2 51.25 L47.75 50.5 Q49.15 50.05 50.2 49.0 L53.45 46.65 Q55.65 45.1 55.95 44.25 56.25 43.3 57.25 42.3 L58.95 40.75 61.1 39.0 63.2 37.25 65.95 34.25 Q66.4 33.8 67.1 33.45 L67.7 33.25 66.0 33.2 Q64.15 33.3 63.7 33.75 62.95 34.5 61.95 36.5 61.4 36.5 59.15 37.45 56.95 38.4 55.95 39.0 L54.35 39.55 Q53.5 39.7 52.95 40.25 L51.75 41.4 50.7 42.5 49.75 43.85 48.2 45.0 Q45.9 46.15 44.85 47.05 L45.0 46.85 46.0 45.35 48.95 42.9 50.8 40.8 Q51.75 39.6 53.9 38.4 L57.8 36.05 60.55 34.3 Q61.65 33.7 62.85 33.4 63.25 33.3 62.7 33.1 L61.65 32.4 Q61.1 32.15 59.95 32.65 L58.8 33.1 M44.95 34.75 L43.2 34.55 Q41.2 34.55 39.95 35.5 L36.2 38.25 37.25 38.2 39.95 37.75 42.1 37.3 43.7 37.25 Q45.2 37.25 47.2 36.5 L44.95 34.75 M61.35 49.05 Q60.15 49.65 59.7 50.25 L58.3 51.35 56.7 52.25 55.7 53.0 56.0 53.65 Q56.4 54.25 57.2 54.25 L59.7 54.25 63.7 53.75 Q61.45 53.25 61.45 52.25 61.45 51.65 62.2 49.9 L62.95 48.25 61.35 49.05 M25.45 47.9 L24.2 49.0 24.85 49.55 26.2 50.25 27.75 50.7 29.45 51.0 31.5 51.0 Q32.75 50.9 33.7 50.25 L39.2 46.25 34.7 45.5 32.2 45.4 Q29.45 45.4 28.2 46.0 26.95 46.65 25.45 47.9 M36.95 40.25 L37.25 40.65 38.7 41.0 Q39.65 41.0 39.9 40.25 L39.95 39.5 37.9 40.05 36.95 40.25 M36.45 50.75 L34.45 51.5 32.6 51.7 Q30.55 52.05 29.45 52.5 L27.3 53.3 26.45 53.5 28.15 54.0 31.2 54.5 33.9 54.05 Q35.25 53.55 35.45 53.0 L36.45 50.75 M33.15 58.95 Q33.4 58.2 33.7 58.0 34.15 57.7 35.1 57.3 L35.95 57.0 31.2 57.5 29.5 57.45 Q27.55 57.55 26.45 58.0 L24.7 58.75 26.45 59.0 29.35 59.35 32.45 59.5 Q33.0 59.5 33.15 58.95 M51.7 57.25 L49.85 57.35 47.2 58.25 46.9 58.75 Q46.85 59.25 47.95 59.25 L51.45 59.25 Q51.2 57.75 51.7 57.25 M69.2 84.2 L69.3 84.5 Q71.1 88.5 74.35 86.8 76.8 85.55 77.2 83.2 77.4 81.85 76.5 81.05 76.35 79.15 73.15 78.75 70.95 78.45 69.4 80.0 67.85 81.55 68.6 83.1 L69.2 84.2" fill="#613a22" fill-rule="evenodd" stroke="none"/>
      <path d="M169.65 40.85 L169.8 40.85 177.4 39.15 180.3 38.65 Q187.15 37.95 194.65 38.55 L203.25 39.5 204.75 39.65 205.9 39.75 214.55 39.7 217.35 39.5 Q226.05 38.75 236.3 36.3 L247.45 33.6 Q252.45 35.8 257.75 35.7 262.25 35.65 266.5 33.9 L268.35 33.0 271.2 34.0 275.95 35.4 Q284.15 37.65 293.25 38.65 L300.25 39.2 301.45 39.5 305.55 40.15 306.4 39.75 307.25 39.65 Q308.4 40.05 310.1 41.75 310.65 42.3 311.6 44.2 L312.75 46.5 Q313.45 47.75 313.45 48.45 L313.15 50.1 Q312.95 51.55 313.2 53.05 313.7 55.6 315.4 60.25 L315.85 52.4 Q315.85 51.1 316.6 49.7 L317.55 48.0 319.0 45.45 319.45 43.85 323.05 42.65 Q324.75 42.2 328.1 42.65 L329.55 43.15 331.0 43.85 332.65 44.05 334.1 43.85 334.3 43.1 Q334.7 42.5 335.75 43.35 336.3 43.8 337.7 43.85 338.8 43.85 340.3 45.7 L342.55 48.0 342.95 49.85 Q343.3 53.45 344.15 56.55 344.65 58.15 345.6 59.55 346.3 56.55 346.3 50.55 L346.15 44.9 346.0 43.75 346.4 43.35 Q346.9 42.9 347.5 42.9 L348.4 43.2 350.15 43.15 353.05 42.5 Q354.5 42.3 355.45 42.9 L358.05 44.95 359.75 46.85 361.35 49.9 361.9 48.7 Q362.65 47.25 363.8 46.65 L364.8 46.35 366.0 47.3 Q367.3 48.55 367.9 49.85 L369.55 52.75 368.85 53.75 366.95 56.55 369.85 68.55 Q371.6 76.0 371.15 78.1 370.9 79.2 370.3 79.65 L370.1 83.15 369.85 87.95 Q369.85 90.0 367.95 93.1 L366.0 95.85 363.1 98.25 356.55 98.25 Q355.7 97.5 355.8 96.9 355.9 96.3 356.85 96.3 359.25 96.3 363.1 92.6 364.0 91.75 363.9 90.05 L363.6 87.5 363.6 81.05 Q363.6 79.65 363.0 78.5 L362.75 78.1 Q362.6 79.6 361.2 79.9 359.45 80.25 358.05 79.35 356.75 78.55 356.4 77.15 L357.35 77.95 Q358.7 78.85 360.45 78.5 361.85 78.25 362.05 76.75 L361.65 75.95 360.3 72.65 360.25 72.5 Q359.55 70.7 359.25 69.0 358.95 67.3 357.65 67.3 L356.4 67.65 354.95 70.4 Q354.2 71.85 353.8 74.3 353.5 76.2 353.05 76.4 353.5 77.8 355.95 81.8 357.65 84.6 357.35 87.5 357.05 90.5 356.3 92.45 355.15 95.45 354.95 96.3 L353.75 97.55 354.2 98.25 353.1 98.55 353.4 98.35 353.75 97.55 Q354.45 95.85 353.6 92.45 352.55 89.15 352.55 88.45 352.55 87.3 351.6 83.8 L350.1 79.7 348.25 74.55 Q347.8 72.95 347.6 73.2 347.05 73.9 345.85 73.2 344.65 72.5 344.9 72.9 345.6 74.15 345.35 75.05 345.0 76.45 343.75 77.2 342.45 77.9 339.6 78.25 L330.0 70.85 328.55 71.35 Q327.55 71.65 326.85 73.6 326.15 75.35 326.15 76.9 326.15 80.6 325.2 85.65 L324.65 87.85 Q324.5 86.8 323.8 87.95 322.35 90.3 322.8 90.75 L322.35 93.55 Q321.85 96.55 321.85 97.7 321.85 98.85 320.9 99.05 L319.95 99.05 317.5 100.75 Q314.8 102.75 313.5 104.25 314.05 103.05 314.0 102.05 314.0 100.8 313.2 98.6 L311.0 93.1 Q310.15 91.0 309.85 87.95 309.4 82.9 309.4 79.65 L309.4 73.65 Q309.4 71.2 308.25 67.15 307.1 63.1 306.05 62.1 305.6 61.65 305.3 60.35 305.1 59.25 303.15 57.95 300.15 55.85 297.2 54.25 293.6 52.25 291.65 51.9 L286.7 51.05 Q283.95 50.35 283.95 49.15 283.95 48.8 284.85 47.1 285.35 46.1 283.95 45.0 L280.5 42.55 277.75 40.8 271.95 37.6 267.7 36.3 Q263.3 35.15 262.4 35.75 L257.6 38.5 Q255.65 39.55 253.75 41.2 252.65 42.2 251.35 42.2 250.3 42.2 249.5 41.2 248.65 40.15 246.55 39.9 L244.7 42.7 243.2 45.9 242.3 47.65 Q241.75 48.0 240.3 50.05 238.9 52.15 239.3 51.85 L240.8 51.9 241.1 54.35 Q241.2 56.25 241.75 58.85 242.25 61.15 242.3 60.75 242.5 59.55 243.2 60.25 243.95 60.95 243.85 62.95 243.7 67.3 244.15 72.25 244.7 78.1 244.2 80.0 243.35 83.3 243.2 85.65 242.9 90.3 243.25 90.5 L243.65 89.8 244.65 91.2 245.8 94.5 Q246.6 97.45 248.0 99.55 L248.45 100.3 247.8 100.4 247.15 100.55 Q246.2 100.8 245.6 101.25 L244.35 101.7 242.2 101.85 242.1 101.85 Q238.15 99.45 239.3 99.35 241.4 99.2 241.25 98.6 L240.55 96.65 238.4 94.0 Q237.2 92.6 236.95 92.9 236.25 93.75 234.05 93.5 231.35 93.2 231.95 91.5 L233.1 89.8 232.15 87.5 Q231.7 86.35 231.5 86.55 L229.75 86.6 Q228.25 86.0 228.45 84.85 L229.3 82.45 229.9 80.35 Q230.2 79.5 231.2 78.25 232.0 77.2 231.8 75.95 231.5 74.3 231.7 73.65 L232.2 71.25 Q232.5 69.95 233.1 68.55 233.65 67.2 233.45 66.6 L233.1 65.3 232.7 63.0 231.2 57.95 230.5 55.85 Q230.5 57.25 229.75 56.55 L228.0 54.65 225.9 52.4 Q224.75 51.25 223.7 50.9 L221.1 50.05 211.55 45.9 213.7 47.35 Q216.1 49.1 217.3 50.55 L221.9 54.65 Q225.15 57.35 225.45 58.4 225.7 59.5 225.6 60.65 L225.45 62.55 224.95 69.95 224.55 74.35 224.5 77.35 224.2 80.95 223.5 83.8 Q222.75 88.35 223.5 93.5 223.8 95.45 223.7 96.35 L223.5 98.15 Q223.5 99.3 222.75 100.05 L220.15 102.3 219.2 103.4 219.15 103.4 218.25 103.45 Q215.1 103.7 213.35 103.35 L209.05 102.65 205.4 102.15 Q204.2 101.35 206.05 101.05 L208.15 100.9 211.05 99.05 212.45 97.95 Q212.25 97.45 213.45 95.85 214.85 93.95 214.35 93.5 213.45 92.6 213.45 92.15 213.45 89.35 212.95 87.5 212.0 83.6 212.0 80.6 L212.0 73.65 Q212.0 72.0 211.3 70.7 L207.7 65.3 Q205.4 62.0 204.65 65.45 L203.35 71.8 Q202.6 73.3 202.4 75.7 202.1 80.1 201.45 83.8 200.6 88.65 201.15 90.75 201.95 93.75 201.95 94.9 201.95 97.5 202.4 99.1 L203.25 101.75 202.1 101.55 193.6 99.85 198.7 100.8 198.1 99.05 197.75 97.5 Q198.1 97.7 198.1 96.3 L198.1 94.0 196.2 89.35 196.2 94.0 Q196.2 95.4 196.0 95.25 195.5 94.95 194.75 95.85 193.9 96.95 193.05 97.05 L191.4 97.2 188.4 98.6 Q185.85 99.65 183.15 99.85 L180.7 100.25 179.35 100.5 180.1 100.35 182.1 99.9 175.85 100.65 173.75 100.8 Q171.75 99.95 169.8 97.7 L169.8 93.5 169.5 91.2 168.85 87.5 168.5 85.55 Q168.15 85.2 167.4 82.9 L166.75 81.0 Q166.95 82.2 166.45 81.5 L165.3 79.7 163.1 76.9 Q161.65 75.2 159.45 70.8 L158.3 68.55 Q159.25 70.85 159.25 75.5 159.25 76.9 159.7 78.25 L159.85 80.1 Q160.1 82.45 160.7 84.75 L161.05 86.7 Q160.7 87.05 160.7 89.35 160.7 92.2 158.15 95.25 L153.5 100.45 Q151.85 102.6 150.75 102.5 149.25 102.35 148.7 102.75 147.6 103.55 146.3 103.3 L142.45 102.75 131.5 102.75 131.55 102.7 Q133.75 101.2 135.25 100.45 137.75 99.25 139.65 99.05 L142.95 99.05 Q144.5 99.05 145.65 97.95 L147.25 95.85 Q147.85 95.0 148.1 93.5 L148.2 92.15 151.55 87.05 147.75 83.8 Q146.7 82.8 146.6 81.8 146.45 80.15 145.8 78.75 L144.85 77.05 Q144.15 76.9 142.45 75.05 140.45 72.85 138.9 72.85 L135.75 72.7 132.8 72.1 128.05 71.8 Q124.8 71.5 124.0 70.55 123.55 69.25 122.8 68.55 121.9 67.7 118.9 67.0 L113.2 65.8 109.9 65.65 106.95 66.25 104.75 66.05 105.05 65.8 100.5 66.15 94.5 65.8 87.7 65.5 80.6 66.25 77.95 66.85 75.3 67.15 72.3 67.05 68.6 67.65 67.15 68.15 Q67.9 68.35 67.15 69.0 65.7 70.4 65.6 70.7 L65.45 71.25 65.7 72.7 65.6 75.65 64.75 78.25 Q64.5 78.75 64.7 79.55 64.8 80.2 65.25 81.05 66.7 83.8 67.15 86.6 67.7 89.75 67.5 90.3 L67.3 91.1 64.75 91.2 64.8 92.4 65.25 95.35 65.35 96.55 64.75 97.2 Q63.35 99.5 62.55 100.15 L61.7 100.7 58.7 101.05 58.55 101.05 57.6 100.95 54.25 100.15 52.75 99.55 57.55 98.15 60.45 94.45 61.65 92.2 Q62.1 91.0 62.85 90.3 63.6 89.6 62.45 85.0 L62.35 85.2 61.3 86.9 Q61.2 87.05 61.25 86.45 61.65 84.05 60.9 82.9 59.85 81.2 56.45 81.9 53.15 82.6 51.3 84.75 L50.05 85.8 Q49.9 84.75 48.45 84.75 L47.0 84.65 Q47.0 84.3 45.55 83.8 44.15 83.35 44.5 83.25 45.55 82.9 45.55 81.95 45.55 80.9 43.65 80.15 40.8 79.1 40.3 78.75 39.2 77.95 37.75 78.3 L33.1 79.2 30.9 79.55 Q31.45 79.9 29.75 80.6 L28.05 81.1 Q28.05 80.6 26.35 80.6 24.45 80.6 23.8 81.55 L22.85 82.9 21.55 84.3 19.3 86.4 19.05 86.6 18.45 87.2 Q16.95 88.8 15.35 89.8 13.9 90.75 14.15 90.8 14.9 91.0 14.4 92.15 13.8 93.6 10.45 93.25 L7.2 92.6 7.2 87.5 6.2 82.45 Q5.9 81.15 4.3 83.4 2.75 85.65 2.4 87.5 2.15 88.65 2.15 90.6 L1.9 94.45 Q1.7 95.95 0.7 97.15 L0.7 96.55 0.65 96.4 0.55 93.2 0.5 92.75 0.5 91.6 0.45 91.15 0.4 86.55 0.2 76.05 0.0 71.25 0.2 72.05 0.1 68.5 Q0.1 66.55 0.4 65.2 L1.45 63.3 2.8 61.5 Q8.45 62.8 15.65 63.15 L28.95 63.25 48.65 63.4 Q59.75 63.1 68.05 60.15 L77.2 56.95 84.75 54.45 Q92.25 52.8 91.3 52.75 L98.2 52.55 118.55 51.85 Q129.45 51.05 138.7 49.05 L154.2 45.1 169.65 40.85 M335.35 35.75 Q338.9 34.25 342.25 32.35 L349.05 27.85 351.25 27.75 Q358.55 27.9 365.3 25.05 372.05 22.2 377.1 16.95 L380.0 13.3 380.15 13.6 380.45 14.5 380.9 15.9 380.45 14.55 Q377.75 20.3 373.05 24.45 367.35 29.5 359.55 31.6 L343.95 34.25 335.35 35.75 M381.05 17.9 L381.05 18.1 380.9 18.65 381.05 17.9 M385.4 68.25 L386.15 71.25 386.15 71.35 386.15 71.5 385.4 68.25 M386.75 74.05 L386.8 74.1 387.3 76.2 387.0 75.1 386.75 74.05 M288.35 100.9 L286.7 100.75 284.85 100.5 284.9 100.5 281.55 95.85 Q279.9 93.3 279.95 93.8 280.15 95.4 278.7 94.9 276.95 94.35 276.85 92.9 277.0 91.0 276.75 89.8 276.45 88.35 274.9 89.2 L273.4 90.3 273.1 91.85 272.45 94.45 Q271.85 96.4 269.85 99.45 L261.75 99.6 260.7 99.6 262.55 95.1 Q263.8 92.1 263.8 90.75 263.8 81.5 263.35 79.2 263.05 77.75 263.15 72.8 L263.35 68.1 264.8 63.45 265.85 63.0 Q267.05 62.8 267.65 63.95 L270.3 67.95 272.95 72.25 275.8 79.65 277.25 85.2 Q277.55 86.35 280.8 88.2 L283.95 89.8 284.45 89.85 Q284.9 90.2 284.9 91.65 284.9 93.2 285.2 94.35 L285.55 95.3 285.9 96.3 288.35 100.9 M171.75 101.2 L167.75 102.65 167.2 102.85 169.65 101.9 171.75 101.2 M373.3 36.5 L373.25 34.85 374.45 35.75 375.95 36.3 Q377.45 37.05 377.65 38.2 L377.85 40.1 Q377.85 40.85 378.0 41.3 L377.65 44.05 Q377.25 46.5 378.0 47.75 L379.8 50.55 380.85 52.4 Q381.2 53.3 381.8 57.95 L381.8 58.6 381.6 60.65 381.55 61.05 Q380.95 59.8 380.65 58.45 380.55 57.95 380.2 58.55 379.85 59.35 379.85 60.65 L379.9 63.15 379.85 64.1 379.7 64.3 Q378.95 62.4 378.95 61.15 378.95 59.85 378.15 57.1 378.4 56.6 377.5 55.15 L376.65 52.7 375.1 50.55 374.65 46.55 375.1 43.6 375.0 41.65 Q374.65 41.3 374.15 38.95 373.85 37.4 373.3 36.5 M328.45 21.25 L325.1 21.95 Q321.35 22.8 319.45 23.75 317.95 24.5 318.15 24.5 318.7 24.5 317.95 25.25 L315.95 26.95 313.95 28.25 Q312.45 29.25 309.45 30.25 304.95 32.75 302.95 33.25 L300.7 33.45 299.95 33.25 298.2 33.3 Q295.95 33.7 293.45 35.25 L290.95 35.25 288.1 35.0 284.45 34.75 281.6 34.55 277.95 33.25 Q275.15 32.3 273.5 32.2 L272.45 32.25 279.95 31.75 284.95 30.75 287.2 30.4 289.45 29.25 292.2 27.25 Q293.4 26.35 294.45 26.25 L299.4 26.55 Q300.45 26.9 300.95 27.25 L304.45 27.25 Q305.95 27.25 307.95 24.25 L313.95 20.75 315.9 20.0 Q318.25 19.25 320.45 19.25 L332.95 19.25 328.45 21.25 M338.95 11.25 L336.15 11.0 334.45 10.75 329.45 10.75 Q328.2 10.75 324.2 9.0 L320.45 7.25 327.95 7.25 Q329.45 7.25 331.95 6.25 L338.95 8.25 344.45 11.25 338.95 11.25 M347.95 18.75 L352.1 17.45 Q356.6 15.8 358.45 14.25 L360.55 12.45 362.45 17.25 357.45 19.75 Q356.2 20.4 356.2 21.15 356.2 21.5 356.45 21.75 L353.95 24.75 351.45 24.25 346.45 23.25 Q345.5 22.95 345.4 20.8 L345.45 18.75 347.95 18.75 M361.35 49.9 Q361.05 50.6 361.45 50.05 L361.35 49.9 M293.95 10.0 L294.55 10.85 295.7 13.0 296.45 14.75 Q297.2 16.25 298.95 17.5 L301.7 21.5 Q302.2 22.25 302.2 23.25 L299.95 23.25 297.9 22.75 296.45 22.25 296.45 18.5 295.15 17.1 Q294.2 16.1 294.2 15.5 L294.45 12.5 294.2 10.95 293.95 10.0 M248.35 23.0 L253.45 23.0 256.7 22.5 Q258.2 21.75 259.45 20.5 L260.4 19.45 260.95 18.75 Q261.4 18.3 261.35 16.7 L261.2 15.25 Q261.5 14.65 259.4 12.9 L257.2 11.25 261.45 12.5 262.45 13.4 264.2 14.5 Q266.45 15.05 266.45 17.0 266.45 18.65 262.95 21.25 L261.85 22.3 260.7 23.5 Q259.7 24.5 255.45 24.5 L251.15 23.75 248.85 23.2 247.95 23.0 248.35 23.0 M255.45 50.85 L255.75 51.3 Q256.65 52.85 256.15 54.7 255.7 56.3 254.65 56.2 L251.6 55.6 Q249.6 55.45 248.3 54.3 247.4 53.5 247.15 52.45 L247.6 52.9 Q248.85 54.1 250.85 54.25 L253.95 54.8 Q254.95 54.9 255.4 53.3 255.75 52.1 255.5 51.0 L255.45 50.85 M282.4 73.05 Q282.9 73.5 283.8 73.75 L286.1 73.65 Q287.0 73.0 286.85 71.8 287.45 72.3 287.55 73.1 287.75 74.4 286.85 75.05 L284.5 75.1 Q282.85 74.65 282.5 73.65 L282.4 73.05 M256.45 98.3 Q255.1 99.05 254.2 98.6 251.05 97.15 250.7 97.05 252.7 96.7 254.55 94.9 255.4 94.1 256.7 95.8 258.0 97.45 256.45 98.3 M255.8 80.4 Q255.8 78.1 256.95 75.35 L258.05 73.05 258.05 81.65 Q258.05 85.45 254.85 89.65 253.25 91.8 251.65 92.65 L250.4 93.05 Q250.4 91.85 251.35 90.0 L253.95 86.05 Q255.8 82.9 255.8 80.4 M261.45 67.15 L261.6 73.05 Q261.6 80.65 260.6 88.75 260.2 92.2 259.2 92.85 L256.8 93.05 255.25 92.75 255.2 92.45 258.05 87.2 Q258.8 85.6 258.65 80.25 258.4 74.0 259.35 69.95 260.25 66.05 261.05 63.95 261.85 61.95 261.6 63.8 261.4 65.05 261.45 67.15 M283.9 63.75 Q284.6 64.6 286.05 65.45 288.6 67.05 289.7 65.8 291.65 63.65 291.6 61.3 L291.6 60.9 Q292.25 61.6 292.3 62.7 292.4 65.0 290.45 67.15 289.3 68.4 286.75 66.85 284.4 65.4 283.95 63.95 L283.9 63.75 M302.85 82.9 Q302.05 81.2 302.15 79.6 302.25 77.85 303.45 75.2 304.3 73.35 305.55 78.4 306.65 83.0 306.65 85.35 306.65 86.55 308.05 90.2 L309.85 95.55 Q310.55 98.6 307.65 98.6 307.05 98.6 305.35 97.7 L303.8 96.75 Q304.6 96.6 305.4 96.05 307.0 95.0 307.0 93.05 307.0 91.1 306.25 89.4 L304.75 86.6 303.8 84.85 302.85 82.9 M305.4 89.65 Q306.15 90.45 306.35 92.05 306.7 95.0 304.85 95.35 302.95 95.75 301.75 94.9 300.9 94.25 300.5 93.05 L301.0 93.5 Q302.2 94.35 304.1 94.0 305.95 93.6 305.6 90.65 L305.4 89.65 M217.2 31.25 L220.2 30.5 223.65 30.3 Q225.45 30.45 225.45 31.0 225.45 31.45 224.7 31.85 L223.2 32.5 221.25 32.7 218.7 32.5 Q217.6 32.5 217.3 31.9 L217.2 31.25 M209.15 16.75 L210.95 16.5 Q212.7 17.25 213.2 16.5 213.55 15.95 214.3 16.3 215.0 16.65 215.2 17.25 L215.3 18.25 215.2 19.25 214.7 22.5 214.4 23.95 213.7 25.0 212.55 26.15 211.2 26.75 209.95 27.35 207.95 27.75 205.1 27.7 203.7 27.5 205.95 27.0 206.85 26.4 207.7 25.25 Q208.15 24.65 208.1 24.05 L207.95 22.5 207.95 21.75 Q207.45 18.75 207.7 17.75 207.85 17.1 209.15 16.75 M226.95 23.25 Q229.5 23.4 228.7 23.85 L226.7 25.0 Q226.25 25.65 225.55 25.15 L224.95 24.5 225.3 23.85 Q225.85 23.2 226.95 23.25 M131.8 34.45 L131.95 34.25 Q132.7 33.5 134.2 33.0 135.7 32.5 136.45 31.75 L138.25 29.45 138.95 28.25 140.55 26.55 Q142.35 24.85 143.45 24.75 147.2 24.45 148.95 22.05 L149.95 19.75 152.45 22.25 155.45 22.25 170.95 23.25 164.45 23.25 156.85 24.25 151.45 25.25 149.95 26.2 146.95 28.25 Q146.0 28.95 144.75 30.65 143.75 32.0 142.95 32.25 L138.65 33.75 133.95 35.25 131.45 35.7 130.45 35.75 131.8 34.45 M169.75 74.15 Q172.05 80.7 173.15 86.15 174.7 93.9 175.75 97.7 L177.95 98.6 179.8 98.45 182.75 97.2 185.45 96.35 188.5 94.45 190.0 93.2 Q189.45 92.85 190.4 91.2 L191.4 89.8 Q191.4 90.5 192.35 89.8 193.3 89.15 193.05 88.9 192.35 88.2 192.35 86.6 L192.35 84.3 Q192.35 82.85 191.15 79.45 L189.95 76.4 189.45 72.7 Q189.95 69.95 190.9 67.65 191.45 66.25 190.95 65.35 L189.95 63.45 Q189.7 62.45 188.75 61.65 187.75 60.85 187.55 60.25 187.25 59.4 186.65 58.8 L186.1 58.4 179.85 54.7 Q177.0 53.3 175.55 51.9 L173.3 48.6 Q171.75 46.35 170.3 46.35 L167.95 46.6 164.5 48.2 Q162.6 49.15 163.1 49.05 164.5 48.9 164.5 49.6 164.5 50.3 163.55 50.35 L160.05 50.2 166.95 67.0 169.25 72.85 169.75 74.15 M196.5 34.4 L194.95 33.5 196.0 33.4 198.7 32.5 199.5 32.15 200.2 33.5 198.95 34.5 196.5 34.4 M199.5 32.15 L199.45 32.0 199.6 32.0 199.5 32.15 M166.4 59.55 L166.8 59.9 Q167.9 60.6 170.5 60.25 173.05 59.95 172.15 57.25 L172.1 57.05 172.9 58.6 Q173.8 61.3 171.25 61.6 168.65 61.95 167.55 61.3 166.8 60.8 166.4 59.55 M178.5 86.95 L180.1 87.3 Q183.1 87.45 184.0 87.25 185.25 86.95 185.4 85.65 L185.75 83.1 185.75 82.25 186.1 82.65 Q186.6 83.25 186.5 84.5 L186.1 87.05 Q185.95 88.35 184.75 88.65 183.8 88.85 180.85 88.65 178.55 88.5 178.45 87.25 L178.5 86.95 M94.0 100.9 L88.8 100.0 88.5 99.95 88.25 99.55 91.6 98.6 94.0 98.4 97.85 98.15 Q99.85 97.9 100.3 96.35 L101.7 92.15 Q102.8 90.0 102.35 89.25 101.3 87.6 101.2 87.05 L105.5 81.95 107.45 81.5 Q108.5 81.25 109.3 79.15 110.2 76.8 110.8 76.4 112.25 75.5 113.2 73.2 L113.0 75.35 Q112.65 78.0 111.75 80.6 L111.05 82.5 Q111.05 82.0 110.3 83.35 L109.35 85.4 106.95 91.2 Q105.0 95.75 105.7 95.95 L106.5 96.0 Q106.95 96.2 106.95 97.2 106.95 98.85 106.75 98.55 106.25 97.7 105.5 98.15 L102.15 100.0 94.0 100.9 M204.55 71.15 Q205.2 69.75 206.25 69.95 207.35 70.15 207.2 71.55 207.05 72.85 206.25 73.65 205.3 74.55 204.0 77.95 L204.0 73.95 Q204.0 72.35 204.55 71.15 M204.45 87.55 L207.2 87.5 Q209.8 85.95 210.0 84.45 210.85 84.95 210.7 85.8 210.5 87.35 207.95 88.9 L205.15 88.85 Q204.65 88.3 204.45 87.55 M203.2 92.75 Q203.0 88.75 204.0 90.9 204.65 92.25 206.4 94.15 207.85 95.65 207.85 96.45 207.85 98.0 206.9 98.6 205.6 98.9 204.35 97.7 203.4 96.75 203.2 92.75 M311.45 101.7 Q310.5 102.0 309.85 100.15 L311.45 98.9 Q312.4 101.4 311.45 101.7 M105.35 73.0 L105.4 73.05 Q106.45 74.2 106.25 77.1 106.1 79.25 104.15 78.85 101.3 77.95 99.5 77.8 97.15 77.65 96.5 76.3 L96.3 75.55 Q97.1 76.3 98.8 76.4 100.6 76.55 103.45 77.45 105.4 77.85 105.5 75.7 105.6 74.05 105.35 73.0 M82.15 47.55 Q85.25 47.2 87.45 46.25 90.95 44.75 95.45 43.75 L101.45 43.75 Q102.55 43.75 103.9 42.8 L105.95 40.75 108.35 37.7 109.95 35.75 110.0 36.95 Q110.15 38.3 110.45 39.25 110.8 40.25 112.25 40.65 L115.95 41.25 Q118.95 41.75 123.45 45.25 L120.45 44.75 114.1 44.05 109.95 43.75 104.95 45.75 100.45 47.25 97.95 47.45 93.95 47.25 82.95 48.5 74.95 49.75 79.45 47.75 82.15 47.55 M96.65 82.0 Q97.45 82.65 99.3 82.45 100.75 82.25 100.75 80.5 L100.75 80.15 Q101.45 80.6 101.45 81.85 101.45 83.65 100.0 83.8 97.0 84.2 96.65 82.2 L96.65 82.0 M127.65 88.25 Q126.65 87.65 126.65 88.45 L126.65 92.6 Q126.65 93.35 126.1 94.8 125.4 96.6 125.2 97.7 124.9 99.15 123.35 99.5 L121.85 99.55 121.35 96.3 119.9 93.5 120.85 90.75 121.2 89.7 121.6 89.35 Q123.05 87.95 121.85 85.65 L123.25 82.45 126.65 86.6 127.8 88.05 127.65 88.25 M131.95 76.95 L132.7 78.35 Q133.25 79.95 131.65 80.1 L129.15 79.85 Q128.5 79.45 128.1 78.25 L128.4 78.45 130.95 78.75 Q132.55 78.6 131.95 76.95 M135.1 94.95 Q135.65 95.35 136.75 95.55 L139.8 95.35 Q141.5 94.7 141.35 93.05 141.95 93.5 142.05 94.3 142.25 96.05 140.55 96.75 L137.45 96.95 Q135.6 96.6 135.25 95.6 L135.1 94.95 M38.6 53.1 Q37.6 53.35 35.65 54.1 L33.85 54.75 38.35 51.5 40.2 48.6 40.65 47.3 Q40.9 45.85 39.95 45.35 39.0 44.85 36.3 44.85 L33.8 44.95 36.55 43.9 Q39.55 42.75 40.75 42.5 L42.6 42.3 44.75 42.1 Q46.15 41.85 46.9 41.15 L48.7 39.6 50.2 38.2 51.2 36.75 53.9 34.7 55.7 33.5 58.8 33.1 58.1 33.7 57.2 34.75 58.2 34.8 60.55 34.3 57.8 36.05 53.9 38.4 Q51.75 39.6 50.8 40.8 L48.95 42.9 46.0 45.35 45.0 46.85 44.85 47.05 44.2 47.75 42.75 49.2 40.95 51.0 Q39.95 52.25 38.6 53.1 L40.3 52.35 40.45 52.3 38.6 53.1 M59.95 32.65 Q61.1 32.15 61.65 32.4 L62.7 33.1 Q63.25 33.3 62.85 33.4 61.65 33.7 60.55 34.3 61.2 32.75 59.95 32.65 M19.75 87.2 L20.6 87.5 23.05 88.35 Q24.2 88.7 24.95 87.95 25.9 87.05 25.95 85.45 L25.9 84.7 Q26.7 85.4 26.65 86.85 26.6 88.45 25.65 89.35 24.9 90.05 23.75 89.75 22.3 89.15 21.35 88.9 19.25 88.4 19.75 87.2 M31.15 92.85 L31.65 93.5 Q32.3 94.85 30.95 95.85 31.5 95.85 32.1 95.45 33.25 94.65 33.55 92.6 L33.75 90.9 Q33.55 90.7 33.55 88.9 L35.8 87.0 Q38.05 85.3 38.35 86.15 L39.05 88.65 Q39.6 90.6 40.75 92.6 L40.1 94.45 Q39.65 94.7 39.8 95.35 L38.75 97.85 Q37.9 98.6 37.9 99.05 37.9 99.5 37.1 99.55 L34.95 99.3 30.2 98.15 Q28.7 97.85 29.7 96.85 L30.95 95.85 Q29.6 96.8 28.4 96.45 27.3 96.15 27.1 95.15 L27.05 94.8 27.65 95.05 Q28.9 95.4 30.2 94.45 31.2 93.75 31.15 92.85 M76.5 81.05 Q77.4 81.85 77.2 83.2 76.8 85.55 74.35 86.8 71.1 88.5 69.3 84.5 L69.2 84.2 Q70.9 86.85 73.6 85.45 76.05 84.15 76.45 81.8 L76.5 81.05" fill="#55351e" fill-rule="evenodd" stroke="none"/>
      <path d="M355.75 73.5 L355.9 73.2 356.05 73.0 356.25 72.75 356.65 72.45 358.3 72.05 Q359.6 72.1 359.95 72.8 L360.05 73.5 359.05 73.4 358.8 73.4 Q358.35 73.45 358.05 73.95 L357.85 74.55 355.75 73.5 M246.35 50.9 Q246.15 50.25 246.25 49.45 246.5 47.15 249.25 46.7 250.55 46.45 251.65 47.05 L252.3 47.5 253.25 48.35 255.5 51.0 254.7 50.4 253.3 49.4 250.55 49.0 Q248.95 49.1 248.25 49.75 247.9 50.1 247.85 50.4 L247.05 51.9 246.35 50.9 M281.75 72.1 L282.05 70.85 Q282.25 69.95 282.95 69.75 L284.7 69.7 285.75 70.1 286.5 71.35 285.25 71.1 284.05 70.8 Q283.55 70.75 283.3 71.2 L281.8 72.2 281.7 72.25 281.75 72.1 M289.3 58.65 Q289.7 59.0 289.5 59.4 289.15 59.9 287.8 59.8 287.2 59.75 286.1 60.75 285.15 61.6 284.9 61.3 L283.95 60.8 Q283.55 60.55 284.45 59.8 285.6 58.8 286.8 58.4 288.1 57.95 288.9 58.4 L289.3 58.65 M302.95 87.5 L304.6 88.15 Q304.9 88.75 303.85 88.9 L301.4 89.35 300.65 89.35 300.0 88.85 299.75 88.35 299.65 88.15 300.0 87.9 300.25 87.7 300.55 87.5 301.55 87.2 302.95 87.5 M169.8 55.3 Q170.1 57.0 169.5 57.0 L168.5 56.85 Q167.35 56.85 166.75 57.3 L165.8 58.1 Q165.3 57.0 166.45 56.1 167.15 55.5 168.55 55.35 L169.8 55.3 M185.4 81.25 L182.6 81.95 181.4 82.1 Q180.6 82.15 180.05 82.6 179.05 83.35 179.55 85.05 177.95 86.1 178.15 84.7 178.3 83.55 179.4 81.65 L180.05 80.8 Q180.6 80.15 181.3 79.9 L183.25 79.65 Q184.35 79.65 185.4 81.25 M208.9 82.85 L209.75 83.8 206.1 84.1 Q204.9 84.5 204.8 85.2 L204.95 85.8 204.45 87.55 204.35 87.8 203.8 86.45 203.75 86.35 Q203.2 84.65 203.7 83.5 L203.9 83.1 Q204.1 82.7 204.45 82.5 L205.15 82.2 207.2 82.25 Q208.15 82.25 208.9 82.85 M95.55 74.05 Q95.1 73.55 95.25 72.85 L95.45 72.45 96.1 70.85 Q96.2 70.45 96.9 70.4 L99.3 70.2 100.3 70.25 Q101.05 70.35 101.6 70.85 L102.8 72.25 Q103.35 72.8 102.8 73.85 102.3 74.8 101.35 75.35 100.7 75.7 99.45 75.35 L97.35 74.7 Q96.05 74.55 95.55 74.05 M96.25 79.45 Q96.55 79.15 97.35 78.9 L98.65 78.6 99.3 78.8 Q99.95 79.2 100.0 79.9 100.1 81.05 98.15 80.25 L96.05 81.2 95.75 81.35 95.95 79.8 96.25 79.45 M128.25 74.75 L128.25 74.7 Q129.15 73.6 130.45 74.8 L131.1 75.5 Q131.75 76.25 131.6 77.35 L130.6 77.05 129.55 76.85 128.4 76.55 Q127.45 76.25 127.45 75.95 L128.25 74.75 M140.6 91.7 L140.7 92.0 138.95 92.15 136.85 92.6 136.05 92.9 135.0 93.85 134.65 94.4 134.45 94.6 134.3 92.9 Q134.2 91.8 134.75 91.65 L135.3 91.5 Q136.05 91.0 137.4 91.0 L140.1 91.2 140.6 91.7 M19.3 86.4 L21.55 84.3 22.85 82.9 23.15 82.8 23.8 82.6 23.85 82.75 24.0 83.65 Q24.15 84.8 23.95 85.35 23.65 86.3 22.55 85.65 21.6 86.7 20.15 86.6 L19.3 86.4 M27.95 93.35 L26.6 92.9 26.8 92.45 Q27.45 91.3 28.35 91.1 L28.75 91.0 Q29.65 90.95 29.95 91.4 L30.05 91.85 29.95 92.25 29.25 93.05 Q28.45 93.7 27.95 93.35 M74.6 81.2 Q75.05 82.65 74.35 83.2 73.15 84.1 71.8 83.65 71.15 83.45 71.05 82.65 L71.0 81.35 Q71.0 80.35 72.75 79.95 74.15 79.65 74.6 81.2" fill="#5b554d" fill-rule="evenodd" stroke="none"/>
      <path d="M360.25 72.5 L360.3 72.65 361.65 75.95 362.05 76.75 Q361.85 78.25 360.45 78.5 358.7 78.85 357.35 77.95 L356.4 77.15 Q355.9 76.55 355.7 75.7 355.35 74.4 355.75 73.5 L357.85 74.55 358.05 73.95 Q358.35 73.45 358.8 73.4 L359.05 73.4 360.05 73.5 359.95 72.8 Q359.6 72.1 358.3 72.05 L360.25 72.5 M246.35 50.9 L247.05 51.9 247.85 50.4 Q247.9 50.1 248.25 49.75 248.95 49.1 250.55 49.0 L253.3 49.4 254.7 50.4 255.5 51.0 253.25 48.35 252.3 47.5 Q254.2 48.45 255.05 49.9 L255.45 50.85 255.5 51.0 Q255.75 52.1 255.4 53.3 254.95 54.9 253.95 54.8 L250.85 54.25 Q248.85 54.1 247.6 52.9 L247.15 52.45 246.35 50.9 M284.7 69.7 L282.95 69.75 Q282.25 69.95 282.05 70.85 L281.75 72.1 Q281.45 71.05 282.2 70.25 283.05 69.3 284.7 69.7 M281.8 72.2 L283.3 71.2 Q283.55 70.75 284.05 70.8 L285.25 71.1 286.5 71.35 285.75 70.1 Q286.7 70.6 286.85 71.7 L286.85 71.8 Q287.0 73.0 286.1 73.65 L283.8 73.75 Q282.9 73.5 282.4 73.05 L281.8 72.25 281.8 72.2 M286.8 58.4 Q285.6 58.8 284.45 59.8 283.55 60.55 283.95 60.8 L284.9 61.3 Q285.15 61.6 286.1 60.75 287.2 59.75 287.8 59.8 289.15 59.9 289.5 59.4 289.7 59.0 289.3 58.65 291.3 59.2 291.6 60.9 L291.6 61.3 Q291.65 63.65 289.7 65.8 288.6 67.05 286.05 65.45 284.6 64.6 283.9 63.75 283.4 63.15 283.25 62.55 282.85 61.3 283.9 59.9 285.0 58.45 286.6 58.4 L286.8 58.4 M302.95 87.5 L303.15 87.5 Q304.05 87.6 304.6 88.15 L302.95 87.5 M304.6 88.15 L305.4 89.65 305.6 90.65 Q305.95 93.6 304.1 94.0 302.2 94.35 301.0 93.5 L300.5 93.05 Q299.7 92.1 299.55 90.3 299.45 89.0 299.75 88.35 L300.0 88.85 300.65 89.35 301.4 89.35 303.85 88.9 Q304.9 88.75 304.6 88.15 M300.0 87.9 L300.3 87.6 300.55 87.5 300.25 87.7 300.0 87.9 M169.8 55.3 L168.55 55.35 Q167.15 55.5 166.45 56.1 165.3 57.0 165.8 58.1 L166.75 57.3 Q167.35 56.85 168.5 56.85 L169.5 57.0 Q170.1 57.0 169.8 55.3 M166.4 59.55 Q165.75 58.85 165.5 57.45 165.2 56.0 166.8 55.4 L169.3 54.9 Q171.15 54.55 172.1 57.05 L172.15 57.25 Q173.05 59.95 170.5 60.25 167.9 60.6 166.8 59.9 L166.4 59.55 M180.05 80.8 L179.4 81.65 Q178.3 83.55 178.15 84.7 177.95 86.1 179.55 85.05 179.05 83.35 180.05 82.6 180.6 82.15 181.4 82.1 L182.6 81.95 185.4 81.25 185.75 82.25 185.75 83.1 185.4 85.65 Q185.25 86.95 184.0 87.25 183.1 87.45 180.1 87.3 L178.5 86.95 Q177.75 86.6 177.7 85.85 L178.2 83.35 Q178.4 81.9 180.05 80.8 M204.45 87.55 L204.95 85.8 204.8 85.2 Q204.9 84.5 206.1 84.1 L209.75 83.8 208.9 82.85 Q210.15 83.4 210.0 84.4 L210.0 84.45 Q209.8 85.95 207.2 87.5 L204.45 87.55 M105.35 73.0 Q105.6 74.05 105.5 75.7 105.4 77.85 103.45 77.45 100.6 76.55 98.8 76.4 97.1 76.3 96.3 75.55 L95.8 74.9 95.55 74.05 Q96.05 74.55 97.35 74.7 L99.45 75.35 Q100.7 75.7 101.35 75.35 102.3 74.8 102.8 73.85 103.35 72.8 102.8 72.25 L101.6 70.85 Q101.05 70.35 100.3 70.25 103.5 70.4 104.65 71.65 105.1 72.15 105.35 73.0 M95.45 72.45 L95.45 72.05 Q95.45 70.65 96.55 70.35 L99.3 70.2 96.9 70.4 Q96.2 70.45 96.1 70.85 L95.45 72.45 M96.05 81.2 L98.15 80.25 Q100.1 81.05 100.0 79.9 99.95 79.2 99.3 78.8 L98.65 78.6 97.35 78.9 Q96.55 79.15 96.25 79.45 L96.65 79.0 Q97.6 78.3 99.3 78.5 100.6 78.7 100.75 80.15 L100.75 80.5 Q100.75 82.25 99.3 82.45 97.45 82.65 96.65 82.0 L96.05 81.2 M131.95 76.95 Q132.55 78.6 130.95 78.75 L128.4 78.45 128.1 78.25 Q127.6 77.75 127.35 76.65 127.0 75.4 128.25 74.75 L127.45 75.95 Q127.45 76.25 128.4 76.55 L129.55 76.85 130.6 77.05 131.6 77.35 Q131.75 76.25 131.1 75.5 L130.45 74.8 Q131.45 75.55 131.95 76.95 M134.65 94.4 L135.0 93.85 136.05 92.9 136.85 92.6 138.95 92.15 140.7 92.0 140.6 91.7 Q141.2 92.15 141.3 92.95 L141.35 93.05 Q141.5 94.7 139.8 95.35 L136.75 95.55 Q135.65 95.35 135.1 94.95 L134.65 94.4 M19.05 86.6 L19.3 86.4 20.15 86.6 Q21.6 86.7 22.55 85.65 23.65 86.3 23.95 85.35 24.15 84.8 24.0 83.65 L23.85 82.75 24.95 83.1 Q25.7 83.6 25.9 84.7 L25.95 85.45 Q25.9 87.05 24.95 87.95 24.2 88.7 23.05 88.35 L20.6 87.5 19.75 87.2 Q19.25 86.95 19.05 86.6 M26.95 94.75 L27.95 93.35 Q28.45 93.7 29.25 93.05 L29.95 92.25 30.05 91.85 29.95 91.4 Q29.65 90.95 28.75 91.0 30.3 90.8 30.95 92.1 L31.15 92.85 Q31.2 93.75 30.2 94.45 28.9 95.4 27.65 95.05 L27.05 94.8 26.95 94.75 M26.6 92.9 L26.4 92.85 26.75 92.0 Q27.3 91.3 28.35 91.1 27.45 91.3 26.8 92.45 L26.6 92.9 M74.6 81.2 Q74.15 79.65 72.75 79.95 71.0 80.35 71.0 81.35 L71.05 82.65 Q71.15 83.45 71.8 83.65 73.15 84.1 74.35 83.2 75.05 82.65 74.6 81.2 M76.5 81.05 L76.45 81.8 Q76.05 84.15 73.6 85.45 70.9 86.85 69.2 84.2 L68.6 83.1 Q67.85 81.55 69.4 80.0 70.95 78.45 73.15 78.75 76.35 79.15 76.5 81.05" fill="#514c45" fill-rule="evenodd" stroke="none"/>
      <path d="M302.5 38.8 Q302.5 37.95 303.5 38.2 L305.4 38.5 Q306.55 38.2 307.65 38.95 L302.5 38.8 M387.3 76.2 L387.55 77.55 387.0 75.1 387.3 76.2 M382.15 92.6 L380.25 93.85 380.3 90.55 380.2 88.45 Q380.2 87.0 381.2 86.5 382.15 86.05 382.15 87.8 L382.4 90.95 Q382.55 92.3 382.15 92.6 M375.75 95.45 Q374.8 95.75 371.55 97.15 369.0 98.25 366.3 98.25 L363.1 98.25 366.0 95.85 367.95 93.1 Q369.85 90.0 369.85 87.95 L370.1 83.15 370.3 79.65 Q370.9 79.2 371.15 78.1 371.6 76.0 369.85 68.55 L366.95 56.55 368.85 53.75 369.55 52.75 369.95 53.4 Q371.25 55.75 371.25 57.0 L371.0 58.9 Q370.85 59.55 371.25 60.45 L374.05 63.8 Q376.3 66.2 376.3 66.95 376.3 71.55 376.8 73.9 L377.05 77.3 377.05 77.75 377.25 76.2 Q377.9 71.55 377.25 64.65 L377.0 60.45 Q376.9 57.9 378.0 57.2 L378.15 57.1 Q378.95 59.85 378.95 61.15 378.95 62.4 379.7 64.3 L378.6 66.25 Q377.7 68.1 378.25 70.25 378.85 72.8 378.6 74.25 L377.75 79.75 Q377.2 82.7 376.4 82.9 375.75 83.05 375.6 84.1 375.6 84.45 375.1 83.2 374.6 81.9 374.5 80.3 L374.15 78.25 373.45 77.25 Q373.3 76.95 373.5 75.8 373.7 74.5 373.15 73.45 372.55 72.4 372.55 73.65 L372.7 74.55 372.85 77.05 Q372.85 78.9 373.1 79.35 L372.85 80.75 372.3 82.1 372.2 85.05 Q372.2 87.1 372.75 89.65 373.05 91.3 372.55 92.45 L370.3 95.3 Q368.95 96.8 369.65 97.7 L369.75 97.75 372.8 96.55 375.75 95.45 M353.1 98.55 L353.05 98.6 Q352.9 98.65 352.8 98.8 L352.75 98.85 352.75 98.9 352.7 98.95 351.2 100.1 350.8 100.25 Q348.4 101.3 344.5 101.45 L333.25 101.45 327.25 102.2 316.5 103.85 314.1 104.2 313.5 104.25 Q314.8 102.75 317.5 100.75 L319.95 99.05 320.9 99.05 Q321.85 98.85 321.85 97.7 321.85 96.55 322.35 93.55 L322.8 90.75 Q322.35 90.3 323.8 87.95 324.5 86.8 324.65 87.85 L325.2 85.65 Q326.15 80.6 326.15 76.9 326.15 75.35 326.85 73.6 327.55 71.65 328.55 71.35 L330.0 70.85 339.6 78.25 Q342.45 77.9 343.75 77.2 345.0 76.45 345.35 75.05 345.6 74.15 344.9 72.9 344.65 72.5 345.85 73.2 347.05 73.9 347.6 73.2 347.8 72.95 348.25 74.55 L350.1 79.7 351.6 83.8 Q352.55 87.3 352.55 88.45 352.55 89.15 353.6 92.45 354.45 95.85 353.75 97.55 L353.4 98.35 353.1 98.55 M284.85 100.5 L284.6 100.5 284.4 100.45 283.05 100.25 272.85 99.5 271.65 99.45 269.85 99.45 Q271.85 96.4 272.45 94.45 L273.1 91.85 273.4 90.3 274.9 89.2 Q276.45 88.35 276.75 89.8 277.0 91.0 276.85 92.9 276.95 94.35 278.7 94.9 280.15 95.4 279.95 93.8 279.9 93.3 281.55 95.85 L284.9 100.5 284.85 100.5 M242.1 101.85 Q231.25 101.85 226.65 102.25 L226.55 102.3 224.15 102.6 222.9 102.85 219.2 103.4 220.15 102.3 222.75 100.05 Q223.5 99.3 223.5 98.15 L223.7 96.35 Q223.8 95.45 223.5 93.5 222.75 88.35 223.5 83.8 L224.2 80.95 224.5 77.35 224.55 74.35 224.95 69.95 225.45 62.55 225.6 60.65 Q225.7 59.5 225.45 58.4 225.15 57.35 221.9 54.65 L217.3 50.55 Q216.1 49.1 213.7 47.35 L211.55 45.9 221.1 50.05 223.7 50.9 Q224.75 51.25 225.9 52.4 L228.0 54.65 229.75 56.55 Q230.5 57.25 230.5 55.85 L231.2 57.95 232.7 63.0 233.1 65.3 233.45 66.6 Q233.65 67.2 233.1 68.55 232.5 69.95 232.2 71.25 L231.7 73.65 Q231.5 74.3 231.8 75.95 232.0 77.2 231.2 78.25 230.2 79.5 229.9 80.35 L229.3 82.45 228.45 84.85 Q228.25 86.0 229.75 86.6 L231.5 86.55 Q231.7 86.35 232.15 87.5 L233.1 89.8 231.95 91.5 Q231.35 93.2 234.05 93.5 236.25 93.75 236.95 92.9 237.2 92.6 238.4 94.0 L240.55 96.65 241.25 98.6 Q241.4 99.2 239.3 99.35 238.15 99.45 242.1 101.85 M193.6 99.85 L187.9 99.7 183.15 99.85 Q185.85 99.65 188.4 98.6 L191.4 97.2 193.05 97.05 Q193.9 96.95 194.75 95.85 195.5 94.95 196.0 95.25 196.2 95.4 196.2 94.0 L196.2 89.35 198.1 94.0 198.1 96.3 Q198.1 97.7 197.75 97.5 L198.1 99.05 198.7 100.8 193.6 99.85 M179.35 100.5 L177.0 100.65 176.8 100.65 176.5 100.65 176.3 100.65 176.05 100.65 175.85 100.65 182.1 99.9 180.1 100.35 179.35 100.5 M173.75 100.8 L173.3 100.85 172.8 100.95 172.65 101.0 172.25 101.1 171.75 101.2 169.65 101.9 167.2 102.85 165.7 103.3 165.4 103.4 165.15 103.45 160.15 104.75 153.85 105.1 133.8 105.1 Q111.25 105.1 97.85 104.25 L90.55 103.8 85.7 103.05 79.15 102.15 70.65 100.65 67.45 100.15 64.3 100.25 62.8 100.5 64.95 97.85 65.35 96.55 65.25 95.35 64.8 92.4 64.75 91.2 67.3 91.1 67.8 91.2 Q68.7 91.5 69.05 92.6 L69.75 94.25 71.45 95.85 Q72.45 96.55 73.25 97.35 L73.85 97.65 75.8 98.15 83.95 99.05 88.5 99.95 88.8 100.0 94.0 100.9 Q96.4 101.15 96.25 101.35 L98.8 101.4 102.15 101.2 104.1 101.4 105.8 101.8 107.45 101.85 110.7 101.7 113.2 100.45 Q114.7 99.6 116.5 98.8 117.4 98.4 118.0 98.15 L119.5 97.65 Q121.05 97.3 121.35 98.15 121.6 98.85 120.9 99.0 120.65 99.1 121.85 99.55 124.25 100.45 127.6 100.9 L128.6 101.85 Q129.9 102.75 131.4 102.75 L131.5 102.75 142.45 102.75 146.3 103.3 Q147.6 103.55 148.7 102.75 149.25 102.35 150.75 102.5 151.85 102.6 153.5 100.45 L158.15 95.25 Q160.7 92.2 160.7 89.35 160.7 87.05 161.05 86.7 L160.7 84.75 Q160.1 82.45 159.85 80.1 L159.7 78.25 Q159.25 76.9 159.25 75.5 159.25 70.85 158.3 68.55 L159.45 70.8 Q161.65 75.2 163.1 76.9 L165.3 79.7 166.45 81.5 Q166.95 82.2 166.75 81.0 L167.4 82.9 Q168.15 85.2 168.5 85.55 L168.85 87.5 169.5 91.2 169.8 93.5 169.8 97.7 Q171.75 99.95 173.75 100.8 M47.25 100.65 L40.2 101.1 34.7 101.85 33.15 101.9 37.1 99.55 Q37.9 99.5 37.9 99.05 37.9 98.6 38.75 97.85 L39.8 95.35 Q39.65 94.7 40.1 94.45 L40.75 92.6 41.2 91.5 41.6 91.0 Q42.1 90.55 42.7 90.75 44.1 91.2 44.6 93.5 L46.55 96.4 Q47.05 97.3 48.45 98.6 49.55 99.65 48.65 100.3 48.15 100.65 48.65 100.7 L47.25 100.65 M32.45 102.0 L32.3 102.0 29.2 102.4 Q29.8 102.1 31.15 101.85 L32.75 101.9 32.45 102.0 M19.0 101.5 L12.15 100.25 7.1 99.85 3.05 99.6 0.85 99.05 0.85 98.85 4.8 99.05 Q5.75 99.05 5.9 99.75 6.0 100.0 6.7 99.05 L8.15 97.2 10.55 95.35 13.4 97.2 12.65 96.5 15.75 98.6 15.8 98.6 15.85 98.65 Q18.0 100.1 19.15 101.35 L19.3 101.55 19.0 101.5 M381.8 58.6 L381.8 61.6 381.55 61.05 381.6 60.65 381.8 58.6 M374.65 46.55 L374.35 43.45 374.15 41.05 374.05 40.7 374.05 41.0 373.4 37.6 373.3 36.5 Q373.85 37.4 374.15 38.95 374.65 41.3 375.0 41.65 L375.1 43.6 374.65 46.55 M375.1 50.55 L376.65 52.7 377.5 55.15 Q376.55 53.65 375.85 54.5 375.6 54.8 375.1 50.55 M217.35 39.5 L214.55 39.7 205.9 39.75 204.75 39.65 204.55 39.5 217.35 39.5" fill="#4b2e1e" fill-rule="evenodd" stroke="none"/>
      <path d="M387.15 80.2 L387.2 80.5 Q387.35 84.5 385.35 85.65 L384.6 86.25 Q383.7 86.6 383.1 85.05 L382.9 84.55 382.6 83.7 382.8 83.3 Q385.1 82.05 385.1 81.3 L387.15 80.2" fill="#3c2617" fill-rule="evenodd" stroke="none"/>
      <path d="M300.25 39.2 L296.6 38.05 302.5 38.8 307.65 38.95 320.05 38.05 335.35 35.75 343.95 34.25 359.55 31.6 Q367.35 29.5 373.05 24.45 377.75 20.3 380.45 14.55 L380.9 15.9 Q381.2 16.8 381.05 17.9 L380.9 18.65 380.85 18.85 380.6 19.65 Q379.7 22.15 379.65 22.85 L379.65 27.7 380.1 30.25 380.5 33.35 380.35 35.7 Q380.25 36.85 380.5 37.8 L381.9 44.8 382.8 50.4 383.0 52.7 Q383.0 55.25 383.85 60.35 L384.25 63.25 384.7 65.2 385.4 68.25 386.15 71.5 386.75 74.0 386.75 74.05 387.0 75.1 387.55 77.55 388.05 79.7 387.15 80.2 385.1 81.3 Q385.1 82.05 382.8 83.3 L382.6 83.7 382.9 84.55 383.55 86.65 Q384.4 89.85 383.85 91.4 L383.3 92.45 Q383.0 92.0 382.15 92.6 382.55 92.3 382.4 90.95 L382.15 87.8 Q382.15 86.05 381.2 86.5 380.2 87.0 380.2 88.45 L380.3 90.55 380.25 93.85 379.75 94.1 379.65 94.15 375.9 95.4 375.75 95.45 372.8 96.55 369.75 97.75 369.65 97.7 Q368.95 96.8 370.3 95.3 L372.55 92.45 Q373.05 91.3 372.75 89.65 372.2 87.1 372.2 85.05 L372.3 82.1 372.85 80.75 373.1 79.35 Q372.85 78.9 372.85 77.05 L372.7 74.55 372.55 73.65 Q372.55 72.4 373.15 73.45 373.7 74.5 373.5 75.8 373.3 76.95 373.45 77.25 L374.15 78.25 374.5 80.3 Q374.6 81.9 375.1 83.2 375.6 84.45 375.6 84.1 375.75 83.05 376.4 82.9 377.2 82.7 377.75 79.75 L378.6 74.25 Q378.85 72.8 378.25 70.25 377.7 68.1 378.6 66.25 L379.7 64.3 379.85 64.1 379.9 63.15 379.85 60.65 Q379.85 59.35 380.2 58.55 380.55 57.95 380.65 58.45 380.95 59.8 381.55 61.05 L381.8 61.6 381.8 58.6 381.8 57.95 Q381.2 53.3 380.85 52.4 L379.8 50.55 378.0 47.75 Q377.25 46.5 377.65 44.05 L378.0 41.3 Q377.85 40.85 377.85 40.1 L377.65 38.2 Q377.45 37.05 375.95 36.3 L374.45 35.75 373.25 34.85 373.3 36.5 373.4 37.6 374.05 41.0 374.05 40.7 374.15 41.05 374.35 43.45 374.65 46.55 375.1 50.55 Q375.6 54.8 375.85 54.5 376.55 53.65 377.5 55.15 378.4 56.6 378.15 57.1 L378.0 57.2 Q376.9 57.9 377.0 60.45 L377.25 64.65 Q377.9 71.55 377.25 76.2 L377.05 77.75 377.05 77.3 376.8 73.9 Q376.3 71.55 376.3 66.95 376.3 66.2 374.05 63.8 L371.25 60.45 Q370.85 59.55 371.0 58.9 L371.25 57.0 Q371.25 55.75 369.95 53.4 L369.55 52.75 367.9 49.85 Q367.3 48.55 366.0 47.3 L364.8 46.35 363.8 46.65 Q362.65 47.25 361.9 48.7 L361.35 49.9 359.75 46.85 358.05 44.95 355.45 42.9 Q354.5 42.3 353.05 42.5 L350.15 43.15 348.4 43.2 347.5 42.9 Q346.9 42.9 346.4 43.35 L346.0 43.75 346.15 44.9 346.3 50.55 Q346.3 56.55 345.6 59.55 344.65 58.15 344.15 56.55 343.3 53.45 342.95 49.85 L342.55 48.0 340.3 45.7 Q338.8 43.85 337.7 43.85 336.3 43.8 335.75 43.35 334.7 42.5 334.3 43.1 L334.1 43.85 332.65 44.05 331.0 43.85 329.55 43.15 328.1 42.65 Q324.75 42.2 323.05 42.65 L319.45 43.85 319.0 45.45 317.55 48.0 316.6 49.7 Q315.85 51.1 315.85 52.4 L315.4 60.25 Q313.7 55.6 313.2 53.05 312.95 51.55 313.15 50.1 L313.45 48.45 Q313.45 47.75 312.75 46.5 L311.6 44.2 Q310.65 42.3 310.1 41.75 308.4 40.05 307.25 39.65 L306.4 39.75 305.55 40.15 301.45 39.5 300.25 39.2 M361.35 49.9 L361.45 50.05 Q361.05 50.6 361.35 49.9" fill="#452b19" fill-rule="evenodd" stroke="none"/>
    </g>
  </defs>
</svg>
