<?xml version="1.0" encoding="UTF-8" standalone="no"?>
<svg xmlns:xlink="http://www.w3.org/1999/xlink" height="95.8px" width="48.2px" xmlns="http://www.w3.org/2000/svg">
  <g transform="matrix(1.0, 0.0, 0.0, 1.0, 0.0, 0.0)">
    <use height="95.8" transform="matrix(1.0, 0.0, 0.0, 1.0, 0.0, 0.0)" width="48.2" xlink:href="#shape0"/>
  </g>
  <defs>
    <g id="shape0" transform="matrix(1.0, 0.0, 0.0, 1.0, 0.0, 0.0)">
      <path d="M16.1 86.05 L16.1 85.75 33.2 85.75 Q34.8 86.8 39.55 88.0 L47.4 89.65 48.2 89.95 47.1 90.25 Q42.7 90.3 41.85 91.0 41.45 91.4 41.15 92.15 34.3 92.65 32.3 93.4 L31.2 94.25 Q30.65 94.65 30.6 95.0 L30.1 95.75 27.35 95.75 25.85 95.15 22.2 94.85 14.05 94.8 Q12.4 94.3 11.35 94.3 L10.1 94.25 Q9.65 92.85 9.15 92.5 8.45 91.95 3.35 91.9 L0.0 91.4 1.35 91.1 2.45 90.8 Q6.6 90.3 10.65 89.0 16.1 87.25 16.1 86.05" fill="#000000" fill-opacity="0.24705882" fill-rule="evenodd" stroke="none"/>
      <path d="M25.35 6.8 Q29.0 6.6 29.85 15.25 30.4 20.3 30.6 32.35 31.35 35.45 32.55 37.5 34.3 40.7 36.6 40.55 39.4 40.4 41.05 38.35 41.85 37.3 42.1 36.3 42.05 37.85 41.3 39.35 39.8 42.25 36.35 41.8 33.7 41.5 31.3 38.55 31.85 41.4 32.85 42.8 35.8 47.35 41.15 48.0 L45.85 47.8 Q42.35 48.95 38.4 48.95 30.55 48.95 28.35 43.3 27.3 40.55 26.65 34.65 L25.75 24.7 Q24.4 13.45 19.35 15.8 13.1 18.75 11.1 24.95 9.15 30.9 11.85 37.8 13.1 40.95 20.3 52.95 26.65 63.5 28.35 70.3 30.25 77.8 36.75 85.8 40.0 89.8 42.85 92.3 40.75 91.3 38.15 90.55 L30.85 90.3 Q28.65 91.55 29.3 93.8 29.6 94.95 30.35 95.8 28.85 94.45 26.8 93.2 22.65 90.7 19.85 91.3 15.35 92.3 11.85 93.8 12.1 92.55 11.65 91.5 10.8 89.35 7.35 90.3 8.85 89.3 10.55 86.85 13.9 82.0 14.85 74.8 15.25 71.65 14.1 67.6 10.55 59.2 7.35 58.3 5.0 57.7 4.7 61.45 4.55 63.3 4.85 65.3 4.3 63.55 4.05 61.6 3.55 57.75 5.1 56.8 6.9 55.75 10.3 58.5 6.65 50.9 5.45 47.4 3.15 40.75 3.35 34.8 3.55 27.5 7.05 21.05 10.1 15.45 15.05 11.5 20.85 3.95 18.85 2.3 17.3 1.05 14.9 1.2 L12.85 1.55 16.75 0.2 Q20.7 -0.6 20.85 2.05 20.95 4.65 19.55 8.6 22.6 7.05 25.35 6.8" fill="#a2bda2" fill-rule="evenodd" stroke="none"/>
      <path d="M27.6 7.8 Q25.85 7.35 24.15 8.15 23.45 8.45 20.1 10.55 16.9 12.6 13.6 17.0 9.55 22.35 7.85 28.3 6.25 34.0 8.95 42.0 10.35 46.1 14.35 53.8 16.6 58.1 19.2 66.85 21.5 74.55 22.35 79.55 22.85 82.6 25.65 87.85 L29.65 94.75 30.35 95.8 Q28.95 94.5 26.95 93.3 22.95 90.85 20.15 91.3 21.15 87.0 20.6 81.8 19.85 75.1 17.4 66.65 14.85 57.95 12.1 52.8 9.1 47.2 7.25 41.7 5.15 35.7 5.35 32.3 5.5 29.05 7.4 24.65 9.05 20.8 10.6 19.05 L14.85 14.05 Q12.9 15.5 10.75 17.75 6.35 22.25 5.1 26.3 3.6 31.15 4.4 37.8 5.2 44.35 7.85 50.05 L14.3 63.25 Q17.85 71.6 16.6 75.55 15.25 79.7 11.95 84.4 14.1 80.35 14.85 74.8 15.25 71.65 14.1 67.6 10.55 59.2 7.35 58.3 5.0 57.7 4.7 61.45 4.55 63.3 4.85 65.3 4.3 63.55 4.05 61.6 3.55 57.75 5.1 56.8 6.9 55.75 10.3 58.5 6.65 50.9 5.45 47.4 3.15 40.75 3.35 34.8 3.55 27.5 7.05 21.05 10.1 15.45 15.05 11.5 20.85 3.95 18.85 2.3 17.8 1.5 16.3 1.25 21.2 0.6 20.0 5.25 19.4 7.6 17.85 10.05 L19.55 8.6 Q22.6 7.05 25.35 6.8 26.7 6.75 27.6 7.8" fill="#89aa8b" fill-rule="evenodd" stroke="none"/>
      <path d="M4.4 37.8 Q3.6 31.15 5.1 26.3 6.35 22.25 10.75 17.75 12.9 15.5 14.85 14.05 L10.6 19.05 Q9.05 20.8 7.4 24.65 5.5 29.05 5.35 32.3 5.15 35.7 7.25 41.7 9.1 47.2 12.1 52.8 14.85 57.95 17.4 66.65 19.85 75.1 20.6 81.8 21.15 87.0 20.15 91.3 L19.85 91.3 Q15.35 92.3 11.85 93.8 12.1 92.55 11.65 91.5 10.8 89.35 7.35 90.3 L8.85 88.95 Q10.6 87.05 11.95 84.4 15.25 79.7 16.6 75.55 17.85 71.6 14.3 63.25 L7.85 50.05 Q5.2 44.35 4.4 37.8" fill="#6b8b6f" fill-rule="evenodd" stroke="none"/>
      <path d="M31.85 45.3 Q34.35 48.95 43.35 48.45 38.7 49.35 35.25 48.65 30.05 47.65 28.35 43.3 27.3 40.55 26.65 34.65 L25.75 24.7 Q24.4 13.45 19.35 15.8 23.3 13.05 25.55 17.45 27.4 21.0 27.85 28.3 28.25 34.95 29.05 38.5 29.95 42.65 31.85 45.3" fill="#89aa8b" fill-rule="evenodd" stroke="none"/>
      <path d="M38.35 41.05 Q40.25 40.95 41.35 38.6 L42.1 36.3 Q42.05 37.85 41.3 39.35 39.8 42.25 36.35 41.8 33.7 41.5 31.3 38.55 L33.5 39.9 Q36.15 41.2 38.35 41.05" fill="#89aa8b" fill-rule="evenodd" stroke="none"/>
    </g>
  </defs>
</svg>
