<?xml version="1.0" encoding="UTF-8" standalone="no"?>
<svg xmlns:xlink="http://www.w3.org/1999/xlink" height="20.3px" width="75.4px" xmlns="http://www.w3.org/2000/svg">
  <g transform="matrix(1.0, 0.0, 0.0, 1.0, 0.0, 0.0)">
    <use height="20.3" transform="matrix(1.0, 0.0, 0.0, 1.0, 0.0, 0.0)" width="75.4" xlink:href="#shape0"/>
  </g>
  <defs>
    <g id="shape0" transform="matrix(1.0, 0.0, 0.0, 1.0, 0.0, 0.0)">
      <path d="M72.0 9.7 L71.45 9.4 Q70.15 8.85 69.8 8.2 L69.95 8.05 Q71.0 7.35 71.8 7.3 72.4 8.0 72.0 9.7 M62.6 14.95 L63.55 15.2 64.3 15.25 64.1 15.7 64.0 16.6 65.75 15.35 65.85 15.3 66.65 15.85 66.9 16.05 Q65.55 16.6 64.15 17.85 L63.5 18.5 61.7 20.3 Q61.6 16.85 62.6 14.95 M72.6 15.9 L72.6 15.35 73.35 15.25 Q73.15 14.9 72.7 14.7 L72.9 14.1 73.65 14.45 73.95 14.6 Q75.25 15.15 75.4 15.95 L73.95 16.0 72.9 15.95 72.6 15.9 M40.55 10.25 L41.15 10.35 42.25 10.05 Q42.45 9.45 42.0 9.2 L41.95 9.2 42.4 8.3 43.05 8.95 Q43.95 10.0 43.65 10.65 L43.1 11.1 42.2 10.95 Q40.95 10.45 40.6 10.65 40.15 10.95 40.2 11.9 L40.25 13.3 Q39.35 13.0 38.75 12.55 L39.05 11.45 Q39.1 10.7 39.45 10.35 L40.55 10.25 M38.05 11.95 L37.65 11.4 Q36.95 10.35 37.05 8.9 L36.45 8.95 34.2 8.75 Q35.35 8.0 36.3 7.65 L37.05 7.5 Q37.1 8.75 37.6 9.45 37.55 10.9 38.05 11.95 M16.4 12.95 L17.15 15.5 Q15.95 16.1 14.15 14.9 L13.8 14.65 Q12.85 13.95 12.4 13.25 L12.8 13.05 Q13.25 13.5 13.9 13.55 L15.85 14.9 16.25 14.6 15.45 13.2 16.3 12.6 16.4 12.95 M9.8 15.15 L8.55 16.5 Q7.85 15.85 7.6 14.4 L7.5 12.8 7.35 12.05 4.95 11.9 3.3 11.5 1.6 10.75 Q0.0 10.0 0.0 9.5 0.1 8.65 2.25 7.8 L3.9 7.2 3.9 8.35 3.9 8.45 2.45 9.55 Q3.2 10.7 3.65 10.9 L4.7 11.15 5.2 11.9 Q6.4 10.8 6.95 11.35 L8.1 12.7 8.1 13.1 Q8.1 14.3 8.65 14.7 9.35 14.4 9.5 13.45 L10.9 13.6 9.8 15.15 M5.85 4.15 L5.1 2.9 Q4.1 1.1 4.5 0.5 5.35 -0.8 7.1 1.35 L7.25 1.55 6.85 2.15 6.35 3.4 5.85 4.15 M19.8 5.45 L22.65 6.05 23.4 6.25 23.95 6.8 Q22.95 7.55 21.6 8.0 L19.9 8.4 17.4 8.85 17.4 8.7 17.55 7.65 18.6 7.15 Q19.6 6.75 21.05 6.3 20.75 5.4 18.8 5.9 L17.6 6.25 17.55 6.1 17.15 5.4 17.6 5.35 19.8 5.45" fill="#3a4d0d" fill-rule="evenodd" stroke="none"/>
      <path d="M66.9 16.05 L67.6 16.5 69.2 17.1 Q71.0 17.5 71.75 17.1 72.45 16.8 72.55 16.25 L72.6 15.9 72.9 15.95 72.65 16.2 Q72.25 16.75 72.8 17.95 L71.0 17.6 69.2 17.75 67.4 17.7 65.4 18.5 63.5 18.95 63.5 18.5 64.15 17.85 Q65.55 16.6 66.9 16.05 M72.9 14.1 L73.15 13.05 73.3 12.15 Q74.4 13.5 73.95 14.6 L73.65 14.45 72.9 14.1 M38.75 12.55 Q39.35 13.0 40.25 13.3 L40.2 11.9 Q40.15 10.95 40.6 10.65 40.95 10.45 42.2 10.95 L43.1 11.1 43.05 12.1 41.45 12.3 41.45 13.75 Q40.05 13.8 39.25 13.3 L38.65 12.6 38.75 12.55 M37.65 11.4 L37.2 11.35 36.3 11.4 Q36.2 10.1 36.45 8.95 L37.05 8.9 Q36.95 10.35 37.65 11.4 M21.6 8.0 Q23.3 9.15 25.05 9.2 23.1 10.9 18.5 12.3 L16.4 12.95 16.3 12.6 16.75 12.0 Q17.1 11.4 17.4 8.85 L19.9 8.4 21.6 8.0 M14.15 14.9 L13.65 15.25 Q13.05 14.3 11.9 16.65 10.95 18.7 10.0 15.75 L9.8 15.15 10.9 13.6 12.4 13.25 Q12.85 13.95 13.8 14.65 L14.15 14.9 M7.5 12.8 L6.85 12.7 4.85 12.45 4.95 11.9 7.35 12.05 7.5 12.8 M15.35 3.3 L17.95 3.6 Q19.2 4.05 19.8 5.45 L17.6 5.35 17.15 5.4 15.8 3.75 15.35 3.3" fill="#222d06" fill-rule="evenodd" stroke="none"/>
      <path d="M64.3 15.25 L64.75 15.15 65.8 15.25 65.85 15.3 65.75 15.35 64.0 16.6 64.1 15.7 64.3 15.25 M72.6 15.35 L72.6 15.1 72.7 14.7 Q73.15 14.9 73.35 15.25 L72.6 15.35 M41.95 9.2 L42.0 9.2 Q42.45 9.45 42.25 10.05 L41.15 10.35 40.55 10.25 40.7 10.2 Q41.35 10.05 41.7 9.7 L41.95 9.2 M39.45 10.35 Q39.1 10.7 39.05 11.45 L38.75 12.55 38.65 12.6 38.5 12.7 38.05 11.95 Q37.55 10.9 37.6 9.45 38.2 10.3 39.45 10.35 M17.6 6.25 L18.8 5.9 Q20.75 5.4 21.05 6.3 19.6 6.75 18.6 7.15 L17.55 7.65 17.6 6.25 M4.7 11.15 L3.65 10.9 Q3.2 10.7 2.45 9.55 L3.9 8.45 Q4.0 9.9 4.7 11.15 M8.1 12.7 L8.25 12.85 Q8.8 13.25 9.5 13.45 9.35 14.4 8.65 14.7 8.1 14.3 8.1 13.1 L8.1 12.7 M13.9 13.55 L14.95 13.4 15.45 13.2 16.25 14.6 15.85 14.9 13.9 13.55" fill="#2f3f09" fill-rule="evenodd" stroke="none"/>
      <path d="M69.8 8.2 Q70.15 8.85 71.45 9.4 L72.0 9.7 Q72.95 10.25 73.1 10.85 L73.3 12.15 73.15 13.05 72.9 14.1 72.7 14.7 72.6 15.1 72.6 15.35 72.6 15.9 72.55 16.25 Q72.45 16.8 71.75 17.1 71.0 17.5 69.2 17.1 L67.6 16.5 66.9 16.05 66.65 15.85 65.85 15.3 65.8 15.25 64.75 15.15 64.3 15.25 63.55 15.2 62.6 14.95 Q61.45 14.3 61.4 12.4 61.35 9.85 63.55 9.45 L63.85 10.2 Q63.85 7.1 64.5 5.95 65.5 4.25 68.25 5.0 69.65 5.3 69.65 6.2 L69.75 8.1 69.8 8.2 M66.95 6.0 Q66.5 5.05 65.9 5.9 L65.45 5.3 Q64.45 5.6 64.15 7.15 63.95 8.6 64.3 9.55 L65.2 8.1 65.2 10.45 65.65 8.65 Q66.05 7.45 66.5 7.0 L67.05 7.7 Q67.35 7.0 66.95 6.0 M64.65 11.8 L65.05 11.85 Q64.55 12.15 64.35 12.75 64.95 12.95 65.65 12.55 L65.65 13.1 66.1 13.0 Q66.95 14.5 68.0 14.75 L67.75 12.95 Q68.55 13.8 69.35 13.65 L69.1 13.3 Q69.6 13.8 70.4 13.8 L69.95 13.1 69.3 12.55 70.1 11.2 69.35 11.2 69.25 10.65 Q68.85 10.5 68.55 10.65 L67.95 10.65 Q68.15 10.3 68.0 9.55 L67.8 8.4 Q67.05 8.95 67.05 10.45 L66.2 8.7 66.2 10.3 65.95 11.8 64.65 11.8 M40.55 10.25 L39.45 10.35 Q38.2 10.3 37.6 9.45 37.1 8.75 37.05 7.5 L37.0 7.25 35.75 7.15 Q35.5 6.9 35.5 6.05 35.6 4.7 36.35 4.4 L38.2 4.3 Q39.5 2.45 41.65 3.65 43.8 4.7 43.1 6.85 L42.4 8.3 41.95 9.2 41.7 9.7 Q41.35 10.05 40.7 10.2 L40.55 10.25 M40.3 7.95 Q40.45 7.1 40.15 6.35 L39.3 5.9 Q38.6 6.5 39.05 7.25 39.45 7.85 40.3 7.95 M3.9 7.2 L3.9 4.45 3.95 4.95 Q4.1 4.5 4.65 4.4 L5.6 4.3 5.85 4.15 6.35 3.4 6.85 2.15 7.25 1.55 8.0 0.8 Q9.05 0.15 9.75 0.1 10.7 0.1 11.2 1.15 11.75 2.3 12.45 2.55 L14.0 2.55 Q14.75 2.75 15.35 3.3 L15.8 3.75 17.15 5.4 17.55 6.1 17.6 6.25 17.55 7.65 17.4 8.7 17.4 8.85 Q17.1 11.4 16.75 12.0 L16.3 12.6 15.45 13.2 14.95 13.4 13.9 13.55 Q13.25 13.5 12.8 13.05 L12.4 13.25 10.9 13.6 9.5 13.45 Q8.8 13.25 8.25 12.85 L8.1 12.7 6.95 11.35 Q6.4 10.8 5.2 11.9 L4.7 11.15 Q4.0 9.9 3.9 8.45 L3.9 8.35 3.9 7.2 M12.4 10.65 L13.4 11.95 Q14.2 12.9 14.85 12.9 14.85 12.3 14.3 11.6 L13.55 10.7 14.35 10.75 13.5 9.05 Q14.05 8.6 15.45 8.15 15.0 7.75 14.6 7.65 L15.0 6.9 15.3 6.2 Q14.75 6.35 13.95 7.0 L12.55 7.95 12.95 7.0 13.3 6.0 11.8 7.15 Q11.5 6.75 11.25 5.6 11.1 4.35 10.65 4.0 10.6 4.95 10.05 5.25 L9.45 4.5 10.4 7.1 10.1 6.8 Q10.0 6.9 10.05 7.05 L10.05 7.2 9.85 6.45 8.55 6.2 8.25 4.35 8.9 5.25 9.55 6.2 9.15 4.15 Q9.0 2.85 9.55 2.3 L9.05 1.5 Q8.5 1.55 7.75 2.1 L6.9 2.85 7.45 5.15 7.9 6.15 7.5 6.1 Q7.9 6.85 8.6 7.4 L7.25 7.2 8.5 8.35 7.35 8.55 7.45 8.45 6.0 5.95 5.3 6.05 4.0 6.0 Q4.55 9.0 5.6 10.0 L5.0 8.45 6.3 8.65 7.2 8.65 6.65 9.0 Q7.4 9.95 9.4 9.6 L8.4 11.0 9.15 10.55 9.35 11.25 Q10.0 11.1 10.05 10.35 10.3 11.5 10.7 12.05 11.25 11.55 11.4 10.55 L11.45 10.6 Q11.8 11.85 12.3 12.3 12.55 11.65 12.35 10.65 L12.4 10.65 M13.25 5.5 L13.65 4.7 13.9 3.8 Q13.95 4.85 14.15 5.3 14.85 4.55 14.05 3.85 L14.05 3.3 Q13.4 3.65 13.15 4.3 12.85 5.0 13.25 5.5" fill="#cb824a" fill-rule="evenodd" stroke="none"/>
      <path d="M64.65 11.8 L65.95 11.8 66.2 10.3 66.2 8.7 67.05 10.45 Q67.05 8.95 67.8 8.4 L68.0 9.55 Q68.15 10.3 67.95 10.65 L68.55 10.65 Q68.85 10.5 69.25 10.65 L69.35 11.2 70.1 11.2 69.3 12.55 69.95 13.1 70.4 13.8 Q69.6 13.8 69.1 13.3 L69.35 13.65 Q68.55 13.8 67.75 12.95 L68.0 14.75 Q66.95 14.5 66.1 13.0 L65.65 13.1 65.65 12.55 Q64.95 12.95 64.35 12.75 64.55 12.15 65.05 11.85 L64.65 11.8 M67.15 11.5 L66.95 10.85 Q66.0 11.5 66.35 12.7 67.4 12.95 67.85 12.2 68.3 11.4 67.15 11.5 M8.55 6.2 L9.85 6.45 10.05 7.2 10.05 7.05 Q10.0 6.9 10.1 6.8 L10.4 7.1 9.45 4.5 10.05 5.25 Q10.6 4.95 10.65 4.0 11.1 4.35 11.25 5.6 11.5 6.75 11.8 7.15 L13.3 6.0 12.95 7.0 12.55 7.95 13.95 7.0 Q14.75 6.35 15.3 6.2 L15.0 6.9 14.6 7.65 Q15.0 7.75 15.45 8.15 14.05 8.6 13.5 9.05 L14.35 10.75 13.55 10.7 14.3 11.6 Q14.85 12.3 14.85 12.9 14.2 12.9 13.4 11.95 L12.4 10.65 12.95 10.0 Q13.1 9.3 12.3 8.95 L11.15 8.25 Q10.85 8.6 10.55 8.6 L10.35 8.5 9.95 7.95 10.0 8.35 10.35 8.5 10.7 9.05 Q11.3 9.75 11.75 9.75 11.3 10.3 11.4 10.55 11.25 11.55 10.7 12.05 10.3 11.5 10.05 10.35 10.0 11.1 9.35 11.25 L9.15 10.55 8.4 11.0 9.4 9.6 Q7.4 9.95 6.65 9.0 L7.2 8.65 7.35 8.55 8.5 8.35 7.25 7.2 8.6 7.4 Q7.9 6.85 7.5 6.1 L7.9 6.15 Q8.3 6.95 8.8 7.25 L8.55 6.2 M12.35 10.65 Q12.55 11.65 12.3 12.3 11.8 11.85 11.45 10.6 L11.85 10.7 12.35 10.65" fill="#966037" fill-rule="evenodd" stroke="none"/>
      <path d="M67.15 11.5 Q68.3 11.4 67.85 12.2 67.4 12.95 66.35 12.7 66.0 11.5 66.95 10.85 L67.15 11.5 M40.3 7.95 Q39.45 7.85 39.05 7.25 38.6 6.5 39.3 5.9 L40.15 6.35 Q40.45 7.1 40.3 7.95 M12.4 10.65 L12.35 10.65 11.85 10.7 11.45 10.6 11.4 10.55 Q11.3 10.3 11.75 9.75 11.3 9.75 10.7 9.05 L10.35 8.5 10.0 8.35 9.95 7.95 10.35 8.5 10.55 8.6 Q10.85 8.6 11.15 8.25 L12.3 8.95 Q13.1 9.3 12.95 10.0 L12.4 10.65" fill="#e3c02e" fill-rule="evenodd" stroke="none"/>
      <path d="M66.95 6.0 Q67.35 7.0 67.05 7.7 L66.5 7.0 Q66.05 7.45 65.65 8.65 L65.2 10.45 65.2 8.1 64.3 9.55 Q63.95 8.6 64.15 7.15 64.45 5.6 65.45 5.3 L65.9 5.9 Q66.5 5.05 66.95 6.0 M7.2 8.65 L6.3 8.65 5.0 8.45 5.6 10.0 Q4.55 9.0 4.0 6.0 L5.3 6.05 6.0 5.95 7.45 8.45 7.35 8.55 7.2 8.65 M7.9 6.15 L7.45 5.15 6.9 2.85 7.75 2.1 Q8.5 1.55 9.05 1.5 L9.55 2.3 Q9.0 2.85 9.15 4.15 L9.55 6.2 8.9 5.25 8.25 4.35 8.55 6.2 8.8 7.25 Q8.3 6.95 7.9 6.15 M13.25 5.5 Q12.85 5.0 13.15 4.3 13.4 3.65 14.05 3.3 L14.05 3.85 Q14.85 4.55 14.15 5.3 13.95 4.85 13.9 3.8 L13.65 4.7 13.25 5.5" fill="#df9e6a" fill-rule="evenodd" stroke="none"/>
    </g>
  </defs>
</svg>
