<?xml version="1.0" encoding="UTF-8" standalone="no"?>
<svg xmlns:xlink="http://www.w3.org/1999/xlink" height="19.55px" width="64.35px" xmlns="http://www.w3.org/2000/svg">
  <g transform="matrix(1.0, 0.0, 0.0, 1.0, 0.0, 0.0)">
    <use height="16.4" transform="matrix(1.0, 0.0, 0.0, 1.0, 8.55, 3.15)" width="47.25" xlink:href="#shape0"/>
  </g>
  <defs>
    <g id="shape0" transform="matrix(1.0, 0.0, 0.0, 1.0, -8.55, -3.15)">
      <path d="M45.4 6.55 Q46.0 7.6 47.1 7.55 L48.9 7.15 Q51.05 6.7 52.2 8.0 52.95 8.95 52.85 9.6 L52.45 8.95 51.45 8.0 Q50.45 7.5 49.2 7.75 L46.7 7.85 Q45.6 7.55 44.55 6.35 43.55 5.15 42.65 5.2 L40.2 5.85 37.8 5.8 37.1 5.25 36.3 4.0 35.9 3.15 37.15 4.65 Q37.75 5.3 39.35 5.15 L41.7 4.7 43.65 4.9 Q44.75 5.4 45.4 6.55" fill="url(#gradient0)" fill-rule="evenodd" stroke="none"/>
      <path d="M45.05 8.55 Q46.65 8.55 48.1 9.6 48.75 10.05 49.05 10.65 L48.55 11.8 Q48.15 12.8 44.0 12.8 L42.2 12.7 42.5 12.55 43.6 12.55 46.05 12.35 Q47.55 12.05 48.1 11.5 48.7 11.0 47.75 10.05 46.85 9.1 45.85 9.15 L43.85 9.55 41.15 9.5 Q39.8 9.2 39.1 8.45 L37.65 7.1 Q36.8 6.55 35.15 6.7 L32.15 6.95 Q30.8 6.95 29.95 6.35 L29.4 5.75 30.1 5.9 31.4 6.3 Q31.85 6.5 33.2 6.3 L35.15 6.0 37.0 6.25 Q38.15 6.55 38.55 7.1 39.15 7.9 41.2 8.7 L43.0 8.75 45.05 8.55" fill="url(#gradient1)" fill-rule="evenodd" stroke="none"/>
      <path d="M45.65 9.15 Q44.6 8.6 42.75 8.4 L39.6 8.5 37.45 8.85 33.9 8.6 32.45 8.1 Q31.65 7.9 31.5 8.3 L31.3 9.0 31.7 9.65 30.65 8.6 Q29.95 7.5 31.65 7.6 L34.4 8.15 36.3 8.4 39.5 8.05 42.95 7.95 Q47.4 8.4 48.1 10.0 48.5 11.0 49.75 11.7 51.05 12.4 52.25 12.15 53.9 11.85 55.05 12.9 L53.6 12.6 51.9 12.5 51.35 12.7 Q48.8 11.6 47.55 10.5 L45.65 9.15" fill="url(#gradient2)" fill-rule="evenodd" stroke="none"/>
      <path d="M45.65 12.45 L46.15 13.25 Q45.15 12.1 43.9 11.85 L42.05 12.0 39.55 12.55 Q38.3 12.75 37.1 11.75 L34.55 9.7 31.4 9.5 29.9 10.2 Q30.0 9.75 30.55 9.35 31.25 8.75 32.25 8.65 33.9 8.35 35.9 9.8 L39.3 11.9 40.65 11.75 43.15 11.45 Q44.85 11.65 45.65 12.45" fill="url(#gradient3)" fill-rule="evenodd" stroke="none"/>
      <path d="M45.15 6.75 Q45.0 7.25 43.05 7.4 42.35 7.4 41.25 8.05 L39.75 9.0 Q37.95 9.95 36.9 9.75 L33.9 9.8 32.55 10.25 31.95 10.35 31.25 10.1 31.95 10.1 33.2 9.65 Q34.3 8.95 36.65 9.25 L37.35 9.3 Q38.15 9.2 39.0 8.45 39.95 7.6 40.95 7.25 L43.05 6.95 44.6 6.85 44.45 6.7 Q44.4 6.45 44.9 5.85 45.7 4.95 46.05 4.95 L47.85 5.05 49.7 5.25 46.45 5.35 Q45.95 5.4 45.55 6.0 L45.15 6.75" fill="url(#gradient4)" fill-rule="evenodd" stroke="none"/>
      <path d="M46.75 8.3 Q47.8 8.8 48.65 8.7 L50.2 8.3 52.4 8.05 54.2 8.1 Q55.1 8.3 55.2 8.75 L51.65 8.45 49.3 9.0 47.2 8.95 44.65 7.85 Q43.05 7.05 42.3 6.95 L40.75 6.55 39.1 5.6 Q38.1 5.0 36.15 5.25 L34.55 5.6 34.95 5.15 Q35.55 4.5 37.55 4.6 L39.0 4.85 40.15 5.55 Q41.5 6.5 42.55 6.6 43.75 6.85 46.75 8.3" fill="url(#gradient5)" fill-rule="evenodd" stroke="none"/>
      <path d="M45.95 6.5 L44.15 6.6 42.35 7.15 40.7 7.3 38.45 6.5 36.5 5.85 Q34.2 6.0 32.7 7.25 L31.0 8.3 29.35 8.3 Q27.8 8.1 26.0 7.2 L26.25 7.25 27.2 7.25 28.6 7.5 Q30.35 7.65 31.8 7.0 L34.35 5.75 Q35.3 5.2 36.2 5.2 36.8 5.2 38.55 5.85 L41.6 6.5 44.35 5.85 46.95 5.75 Q48.2 6.2 49.8 7.6 L52.15 9.6 53.55 10.5 53.3 10.8 Q52.85 11.0 52.0 10.3 L49.85 8.5 Q48.5 7.4 47.65 6.95 46.6 6.5 45.95 6.5" fill="url(#gradient6)" fill-rule="evenodd" stroke="none"/>
      <path d="M46.2 11.0 Q46.85 11.0 48.5 10.2 50.25 9.35 50.8 9.3 52.2 9.15 53.75 10.65 54.75 11.5 52.95 11.0 52.35 9.65 51.05 9.75 L48.85 10.65 Q47.2 11.45 45.55 11.45 43.7 11.45 42.3 10.8 L40.25 9.4 Q39.55 8.85 38.4 8.8 L35.1 8.5 Q33.1 8.15 31.95 7.2 L31.25 6.35 32.65 6.7 32.95 7.15 Q33.25 7.45 33.75 7.55 L34.95 7.85 36.85 8.25 39.0 8.45 40.7 8.9 Q41.35 9.2 42.5 10.05 43.55 10.8 44.5 11.0 L46.2 11.0" fill="url(#gradient7)" fill-rule="evenodd" stroke="none"/>
      <path d="M45.7 7.75 L46.4 6.95 47.95 5.6 49.3 6.05 Q50.6 6.5 53.35 8.3 54.45 9.0 55.8 9.3 55.4 9.5 53.75 8.85 53.0 8.6 51.35 7.55 49.8 6.55 48.95 6.35 48.05 6.1 47.45 6.8 L45.65 8.3 43.6 8.55 42.0 8.05 Q39.8 8.05 37.05 10.25 35.85 11.25 34.3 11.45 L32.1 11.5 Q31.45 11.5 31.25 10.9 L31.25 10.75 31.95 11.0 33.85 10.85 35.8 10.55 Q36.25 10.55 37.55 9.55 L39.4 8.15 Q41.35 7.1 43.45 7.8 L45.7 7.75" fill="url(#gradient8)" fill-rule="evenodd" stroke="none"/>
      <path d="M45.25 11.0 L41.15 11.4 36.5 10.35 Q33.95 9.7 31.95 9.75 L30.55 9.95 29.35 10.15 27.9 10.15 27.35 10.1 28.3 10.1 30.2 9.9 33.45 9.65 39.1 10.75 42.5 11.25 44.0 11.05 45.55 10.75 48.4 10.5 49.55 10.55 47.85 10.6 45.25 11.0" fill="url(#gradient9)" fill-rule="evenodd" stroke="none"/>
      <path d="M46.75 8.1 Q44.1 5.9 42.25 5.85 39.15 5.85 36.25 7.15 L33.75 8.05 32.2 8.2 29.45 7.85 31.4 7.95 Q33.65 7.9 35.35 7.1 39.8 5.1 42.5 5.6 45.15 6.05 47.2 8.0 L48.6 9.1 49.85 9.45 50.9 9.5 49.3 9.5 47.9 8.95 46.75 8.1" fill="url(#gradient10)" fill-rule="evenodd" stroke="none"/>
      <path d="M28.4 14.0 Q29.8 14.15 30.55 13.25 L31.5 11.6 Q32.0 10.8 32.75 10.3 33.65 9.65 34.65 9.65 36.1 9.65 36.5 10.15 L35.75 10.05 34.1 10.25 Q32.95 10.7 32.2 11.85 L30.5 13.8 Q29.45 14.5 27.6 14.5 25.85 14.5 25.15 15.25 L23.95 17.6 Q23.2 18.9 22.15 19.35 L21.2 19.55 19.45 19.35 18.4 19.1 20.65 19.1 Q21.7 19.1 22.7 17.75 L24.0 15.6 Q24.5 14.7 25.65 14.25 L28.4 14.0" fill="url(#gradient11)" fill-rule="evenodd" stroke="none"/>
      <path d="M32.55 15.45 L33.6 16.5 33.05 17.65 Q32.6 18.65 27.8 18.65 L25.75 18.55 26.0 18.4 27.3 18.4 30.1 18.2 Q31.9 17.9 32.55 17.35 33.2 16.85 32.15 15.9 31.1 14.95 29.9 15.0 L27.65 15.4 24.5 15.35 Q22.95 15.05 22.1 14.3 L20.45 12.95 Q19.5 12.4 17.6 12.55 L14.1 12.8 Q12.55 12.8 11.6 12.2 L10.95 11.6 11.8 11.75 13.25 12.15 Q13.8 12.35 15.35 12.15 L17.55 11.85 19.7 12.1 Q21.05 12.4 21.5 12.95 22.2 13.75 24.55 14.55 L26.6 14.6 29.0 14.4 Q30.85 14.4 32.55 15.45" fill="url(#gradient12)" fill-rule="evenodd" stroke="none"/>
      <path d="M28.4 14.0 Q26.6 14.3 24.95 15.05 L22.7 16.0 18.75 16.85 17.0 16.85 Q16.0 16.9 16.0 17.3 L16.05 18.0 16.7 18.55 15.2 17.8 Q14.05 17.0 15.95 16.55 L19.1 16.25 21.35 15.95 24.75 14.6 Q27.05 13.7 28.55 13.45 33.55 12.5 34.85 13.85 35.75 14.8 37.45 15.45 L40.5 15.55 Q42.05 14.8 42.25 14.3 L41.65 15.5 Q40.85 16.8 39.7 16.4 L37.85 15.95 Q36.2 15.15 34.4 14.5 32.9 13.85 31.9 13.75 L28.4 14.0" fill="url(#gradient13)" fill-rule="evenodd" stroke="none"/>
      <path d="M30.25 19.1 Q29.05 17.95 27.65 17.7 L25.55 17.85 22.65 18.4 Q21.2 18.6 19.8 17.6 L16.9 15.55 13.25 15.35 Q12.2 15.6 11.45 16.05 L12.25 15.2 Q13.0 14.6 14.2 14.5 16.1 14.2 18.45 15.65 20.9 17.3 22.3 17.75 L23.9 17.6 26.75 17.3 Q28.75 17.5 29.7 18.3 L30.25 19.1" fill="url(#gradient14)" fill-rule="evenodd" stroke="none"/>
      <path d="M29.05 12.6 Q29.0 13.1 26.7 13.25 25.85 13.25 24.65 13.9 L22.85 14.85 Q20.7 15.8 19.55 15.6 17.3 15.25 16.1 15.65 L13.85 16.2 13.0 15.95 15.35 15.5 Q16.55 14.8 19.35 15.1 20.45 15.5 22.0 14.3 23.9 12.85 26.7 12.8 L28.5 12.7 28.3 12.55 Q28.2 12.3 28.85 11.7 L30.15 10.8 32.2 10.9 34.4 11.1 30.6 11.2 Q30.05 11.25 29.55 11.85 L29.05 12.6" fill="url(#gradient15)" fill-rule="evenodd" stroke="none"/>
      <path d="M41.05 11.9 Q38.95 11.45 36.6 12.3 L33.8 13.7 Q32.45 14.35 31.2 14.15 30.25 14.05 27.75 13.15 25.6 12.35 24.65 12.35 L22.7 12.25 20.45 11.3 Q19.1 10.6 16.85 10.6 L14.95 10.7 Q13.15 10.6 15.05 10.35 L19.3 10.1 20.7 10.3 21.7 10.9 Q23.5 11.9 24.95 11.9 26.7 11.9 30.45 13.3 L32.9 13.4 34.75 12.35 37.35 11.45 39.7 11.1 Q40.75 11.1 41.05 11.9" fill="url(#gradient16)" fill-rule="evenodd" stroke="none"/>
      <path d="M39.75 12.45 L41.5 13.15 41.25 13.5 Q40.8 13.75 39.75 13.25 L37.0 11.75 Q35.3 10.9 34.2 10.6 L32.15 10.35 30.15 10.8 28.15 11.55 26.3 11.95 23.55 11.5 21.25 11.2 Q18.65 11.7 17.2 13.15 L15.4 14.45 13.5 14.75 9.55 14.15 9.8 14.15 10.9 14.0 Q13.6 14.4 16.15 13.05 L18.75 11.45 Q19.8 10.8 20.75 10.6 L23.6 10.9 27.2 11.0 Q28.2 10.9 30.25 9.95 31.7 9.25 33.15 9.55 34.65 9.75 36.75 10.9 L39.75 12.45" fill="url(#gradient17)" fill-rule="evenodd" stroke="none"/>
      <path d="M33.4 16.5 Q31.4 17.3 29.5 17.3 L25.85 16.65 23.45 15.25 Q22.6 14.7 21.3 14.65 L17.5 14.35 Q15.2 14.0 13.85 13.05 L13.0 12.2 14.65 12.55 15.0 13.0 Q15.4 13.3 15.95 13.4 L17.35 13.7 19.55 14.1 22.0 14.3 23.95 14.75 Q24.7 15.05 26.0 15.9 27.25 16.65 28.35 16.85 L30.35 16.85 Q31.05 16.85 33.0 16.05 L35.65 15.15 Q37.15 15.05 39.05 16.5 40.25 17.35 38.1 16.85 L37.55 16.15 Q36.85 15.5 35.9 15.6 L33.4 16.5" fill="url(#gradient18)" fill-rule="evenodd" stroke="none"/>
      <path d="M27.15 13.65 L29.8 13.6 30.55 12.8 32.35 11.45 33.9 11.9 Q35.3 12.3 38.6 14.15 39.85 14.85 41.4 15.15 L39.0 14.7 Q38.15 14.45 36.25 13.4 34.5 12.4 33.5 12.2 32.4 11.95 31.7 12.65 L29.7 14.15 27.3 14.4 25.4 13.9 Q22.95 13.9 19.75 16.1 18.35 17.1 16.55 17.3 L14.05 17.35 Q13.25 17.35 13.0 16.75 12.9 16.55 13.05 16.6 L13.85 16.85 16.0 16.7 18.3 16.4 Q18.9 16.4 20.35 15.4 22.15 14.15 22.5 14.0 24.7 12.95 27.15 13.65" fill="url(#gradient19)" fill-rule="evenodd" stroke="none"/>
      <path d="M29.25 10.65 Q29.8 11.1 32.2 12.15 33.15 12.5 34.75 12.15 L32.9 12.5 Q31.35 12.65 29.5 11.7 L27.8 10.55 Q27.0 10.0 26.0 10.0 L24.05 10.3 22.15 11.6 Q20.85 12.65 18.95 13.7 L15.55 15.15 13.55 15.4 11.85 14.5 Q10.4 13.55 8.55 13.75 L10.9 13.65 Q11.45 13.75 12.25 14.35 12.95 14.85 13.85 14.95 16.25 15.05 19.1 13.0 L22.0 10.85 Q23.65 9.6 24.5 9.5 27.15 9.05 29.25 10.65" fill="url(#gradient20)" fill-rule="evenodd" stroke="none"/>
      <path d="M39.75 13.25 Q41.2 13.2 41.6 13.6 L40.4 13.45 Q39.5 13.35 38.9 13.7 38.35 14.1 37.1 15.3 34.35 18.1 31.3 18.35 29.55 18.5 27.55 17.3 25.8 16.35 23.45 14.1 21.6 12.35 19.05 11.8 L16.85 11.55 18.6 11.45 20.0 11.55 21.75 12.15 24.5 14.2 Q27.65 17.15 31.15 17.75 32.35 18.0 34.2 16.85 L36.65 15.05 38.0 13.8 Q38.8 13.25 39.75 13.25" fill="url(#gradient21)" fill-rule="evenodd" stroke="none"/>
    </g>
    <linearGradient gradientTransform="matrix(0.0061, 0.0074, 0.0074, -0.0061, 44.4, 6.35)" gradientUnits="userSpaceOnUse" id="gradient0" spreadMethod="pad" x1="-819.2" x2="819.2">
      <stop offset="0.0" stop-color="#e02900"/>
      <stop offset="0.9921568627450981" stop-color="#b80000"/>
    </linearGradient>
    <linearGradient gradientTransform="matrix(0.012, 0.0, 0.0, -0.012, 39.25, 9.3)" gradientUnits="userSpaceOnUse" id="gradient1" spreadMethod="pad" x1="-819.2" x2="819.2">
      <stop offset="0.0" stop-color="#e02900"/>
      <stop offset="0.9921568627450981" stop-color="#b80000"/>
    </linearGradient>
    <linearGradient gradientTransform="matrix(0.0145, 0.0046, 0.0046, -0.0145, 42.8, 10.35)" gradientUnits="userSpaceOnUse" id="gradient2" spreadMethod="pad" x1="-819.2" x2="819.2">
      <stop offset="0.0" stop-color="#e02900"/>
      <stop offset="0.9921568627450981" stop-color="#b80000"/>
    </linearGradient>
    <linearGradient gradientTransform="matrix(0.0099, 0.0, 0.0, -0.0099, 38.0, 10.95)" gradientUnits="userSpaceOnUse" id="gradient3" spreadMethod="pad" x1="-819.2" x2="819.2">
      <stop offset="0.0" stop-color="#e02900"/>
      <stop offset="0.9921568627450981" stop-color="#b80000"/>
    </linearGradient>
    <linearGradient gradientTransform="matrix(0.0113, 0.0, 0.0, -0.0113, 40.45, 7.65)" gradientUnits="userSpaceOnUse" id="gradient4" spreadMethod="pad" x1="-819.2" x2="819.2">
      <stop offset="0.0" stop-color="#e02900"/>
      <stop offset="0.9921568627450981" stop-color="#b80000"/>
    </linearGradient>
    <linearGradient gradientTransform="matrix(0.0133, 0.0023, 0.0016, -0.0095, 44.3, 7.05)" gradientUnits="userSpaceOnUse" id="gradient5" spreadMethod="pad" x1="-819.2" x2="819.2">
      <stop offset="0.0" stop-color="#ff3c00"/>
      <stop offset="1.0" stop-color="#bd2c00"/>
    </linearGradient>
    <linearGradient gradientTransform="matrix(0.0167, 0.0026, 0.0026, -0.0167, 40.0, 7.3)" gradientUnits="userSpaceOnUse" id="gradient6" spreadMethod="pad" x1="-819.2" x2="819.2">
      <stop offset="0.0" stop-color="#ff3c00"/>
      <stop offset="1.0" stop-color="#bd2c00"/>
    </linearGradient>
    <linearGradient gradientTransform="matrix(0.0139, 0.0, 0.0, -0.0139, 42.65, 8.9)" gradientUnits="userSpaceOnUse" id="gradient7" spreadMethod="pad" x1="-819.2" x2="819.2">
      <stop offset="0.0" stop-color="#ff3c00"/>
      <stop offset="1.0" stop-color="#bd2c00"/>
    </linearGradient>
    <linearGradient gradientTransform="matrix(0.015, 0.0, 0.0, -0.015, 43.45, 8.6)" gradientUnits="userSpaceOnUse" id="gradient8" spreadMethod="pad" x1="-819.2" x2="819.2">
      <stop offset="0.0" stop-color="#ff3c00"/>
      <stop offset="1.0" stop-color="#bd2c00"/>
    </linearGradient>
    <linearGradient gradientTransform="matrix(0.0138, 0.0, 0.0, 0.0041, 38.7, 10.55)" gradientUnits="userSpaceOnUse" id="gradient9" spreadMethod="pad" x1="-819.2" x2="819.2">
      <stop offset="0.0" stop-color="#ff7b00"/>
      <stop offset="0.9921568627450981" stop-color="#db6a00"/>
    </linearGradient>
    <linearGradient gradientTransform="matrix(0.013, 0.0017, -0.0015, 0.0114, 40.35, 7.3)" gradientUnits="userSpaceOnUse" id="gradient10" spreadMethod="pad" x1="-819.2" x2="819.2">
      <stop offset="0.0" stop-color="#ff7b00"/>
      <stop offset="0.9921568627450981" stop-color="#db6a00"/>
    </linearGradient>
    <linearGradient gradientTransform="matrix(0.011, 0.0, 0.0, -0.011, 27.45, 14.6)" gradientUnits="userSpaceOnUse" id="gradient11" spreadMethod="pad" x1="-819.2" x2="819.2">
      <stop offset="0.0" stop-color="#e02900"/>
      <stop offset="0.9921568627450981" stop-color="#b80000"/>
    </linearGradient>
    <linearGradient gradientTransform="matrix(0.0138, 0.0, 0.0, -0.0138, 22.25, 15.15)" gradientUnits="userSpaceOnUse" id="gradient12" spreadMethod="pad" x1="-819.2" x2="819.2">
      <stop offset="0.0" stop-color="#e02900"/>
      <stop offset="0.9921568627450981" stop-color="#b80000"/>
    </linearGradient>
    <linearGradient gradientTransform="matrix(0.0168, 0.0, 0.0, -0.0168, 28.55, 15.8)" gradientUnits="userSpaceOnUse" id="gradient13" spreadMethod="pad" x1="-819.2" x2="819.2">
      <stop offset="0.0" stop-color="#e02900"/>
      <stop offset="0.9921568627450981" stop-color="#b80000"/>
    </linearGradient>
    <linearGradient gradientTransform="matrix(0.0115, 0.0, 0.0, -0.0115, 20.9, 16.8)" gradientUnits="userSpaceOnUse" id="gradient14" spreadMethod="pad" x1="-819.2" x2="819.2">
      <stop offset="0.0" stop-color="#e02900"/>
      <stop offset="0.9921568627450981" stop-color="#b80000"/>
    </linearGradient>
    <linearGradient gradientTransform="matrix(0.013, 0.0, 0.0, -0.013, 23.7, 13.5)" gradientUnits="userSpaceOnUse" id="gradient15" spreadMethod="pad" x1="-819.2" x2="819.2">
      <stop offset="0.0" stop-color="#e02900"/>
      <stop offset="0.9921568627450981" stop-color="#b80000"/>
    </linearGradient>
    <linearGradient gradientTransform="matrix(0.0164, 0.0, 0.0, -0.0164, 27.6, 12.15)" gradientUnits="userSpaceOnUse" id="gradient16" spreadMethod="pad" x1="-819.2" x2="819.2">
      <stop offset="0.0" stop-color="#ff3c00"/>
      <stop offset="1.0" stop-color="#bd2c00"/>
    </linearGradient>
    <linearGradient gradientTransform="matrix(0.0195, 0.0, 0.0, -0.0195, 25.45, 12.1)" gradientUnits="userSpaceOnUse" id="gradient17" spreadMethod="pad" x1="-819.2" x2="819.2">
      <stop offset="0.0" stop-color="#ff3c00"/>
      <stop offset="1.0" stop-color="#bd2c00"/>
    </linearGradient>
    <linearGradient gradientTransform="matrix(0.0161, 0.0, 0.0, -0.0161, 26.25, 14.75)" gradientUnits="userSpaceOnUse" id="gradient18" spreadMethod="pad" x1="-819.2" x2="819.2">
      <stop offset="0.0" stop-color="#ff3c00"/>
      <stop offset="1.0" stop-color="#bd2c00"/>
    </linearGradient>
    <linearGradient gradientTransform="matrix(0.0174, 0.0, 0.0, -0.0174, 27.2, 14.45)" gradientUnits="userSpaceOnUse" id="gradient19" spreadMethod="pad" x1="-819.2" x2="819.2">
      <stop offset="0.0" stop-color="#ff3c00"/>
      <stop offset="1.0" stop-color="#bd2c00"/>
    </linearGradient>
    <linearGradient gradientTransform="matrix(0.016, 0.0, 0.0, -0.016, 21.65, 12.4)" gradientUnits="userSpaceOnUse" id="gradient20" spreadMethod="pad" x1="-819.2" x2="819.2">
      <stop offset="0.0" stop-color="#ff7b00"/>
      <stop offset="0.9921568627450981" stop-color="#db6a00"/>
    </linearGradient>
    <linearGradient gradientTransform="matrix(0.0151, 0.0, 0.0, -0.0151, 29.2, 14.9)" gradientUnits="userSpaceOnUse" id="gradient21" spreadMethod="pad" x1="-819.2" x2="819.2">
      <stop offset="0.0" stop-color="#ff7b00"/>
      <stop offset="0.9921568627450981" stop-color="#db6a00"/>
    </linearGradient>
  </defs>
</svg>
