<?xml version="1.0" encoding="UTF-8" standalone="no"?>
<svg xmlns:xlink="http://www.w3.org/1999/xlink" height="209.4px" width="128.35px" xmlns="http://www.w3.org/2000/svg">
  <g transform="matrix(1.0, 0.0, 0.0, 1.0, 0.0, 0.0)">
    <use height="13.0" transform="matrix(1.0, 0.0, 0.0, 1.0, 0.5, 196.4)" width="63.9" xlink:href="#sprite0"/>
    <use height="208.15" transform="matrix(1.0, 0.0, 0.0, 1.0, 0.0, 0.0)" width="128.35" xlink:href="#shape1"/>
  </g>
  <defs>
    <g id="sprite0" transform="matrix(1.0, 0.0, 0.0, 1.0, 0.0, 0.0)">
      <use height="13.0" transform="matrix(1.0, 0.0, 0.0, 1.0, 0.0, 0.0)" width="63.9" xlink:href="#shape0"/>
    </g>
    <g id="shape0" transform="matrix(1.0, 0.0, 0.0, 1.0, 0.0, 0.0)">
      <path d="M63.9 3.85 Q61.15 6.7 57.1 7.5 53.95 8.1 49.15 7.5 51.5 8.65 53.15 11.1 50.9 10.25 48.8 10.05 L44.4 10.1 39.95 10.9 35.65 12.0 28.45 12.25 22.65 11.2 Q19.8 11.0 17.75 13.0 17.75 11.5 18.05 10.7 18.35 9.9 19.25 8.85 L12.75 8.35 6.2 9.55 Q3.0 9.85 0.0 8.35 L2.5 8.1 4.85 7.15 Q7.8 5.7 15.35 3.6 14.5 2.95 12.9 2.8 L10.25 2.6 Q7.6 2.25 5.45 0.85 L9.05 0.65 12.2 0.05 15.35 0.3 19.85 1.85 21.8 2.25 23.85 2.15 Q27.4 2.0 34.6 2.3 L52.75 3.15 58.15 4.25 Q60.95 4.85 63.9 3.85" fill="#0d5069" fill-rule="evenodd" stroke="none"/>
    </g>
    <g id="shape1" transform="matrix(1.0, 0.0, 0.0, 1.0, 0.0, 0.0)">
      <path d="M84.0 36.2 Q91.75 31.25 100.25 34.45 107.45 37.15 110.15 42.7 114.2 50.8 123.3 61.0 L126.25 64.3 Q127.35 65.85 127.55 68.4 127.8 71.5 126.15 73.4 124.3 75.5 121.65 73.9 121.1 73.55 121.3 72.7 121.4 72.0 120.65 72.1 119.5 72.25 118.5 73.85 117.5 75.55 115.75 75.85 114.8 76.0 113.65 74.45 112.8 73.2 111.45 74.55 L109.0 77.5 Q107.75 78.7 105.45 78.15 104.8 78.0 102.2 76.25 100.25 74.9 98.75 75.4 97.6 75.75 96.7 78.05 L95.3 81.45 Q93.35 84.25 91.7 83.6 L88.0 80.8 Q85.1 78.75 83.5 81.3 L79.7 87.85 Q77.05 91.1 74.35 88.95 73.3 88.1 69.85 83.15 L68.25 80.6 Q67.2 78.95 66.2 78.6 64.5 77.9 62.25 79.75 59.85 81.75 58.25 81.5 57.4 81.4 56.15 80.3 55.3 79.6 53.95 80.3 53.55 80.5 51.05 84.3 49.25 87.05 47.0 85.7 45.8 85.05 45.0 82.05 44.3 79.35 42.2 78.95 L40.0 79.35 37.85 79.15 Q37.0 78.5 36.85 76.9 L36.8 74.35 Q36.3 69.0 33.45 71.25 31.85 72.5 28.55 76.25 23.55 80.3 21.5 77.05 19.95 74.55 20.4 68.7 20.95 62.65 16.15 63.9 L11.85 65.25 7.85 65.45 Q3.75 63.85 6.6 58.7 L11.9 51.5 Q15.55 46.45 19.1 39.65 L25.1 27.1 Q28.35 19.85 35.35 13.15 39.2 9.5 45.75 4.15 47.45 2.55 52.35 8.1 L62.6 21.1 Q69.55 29.95 73.95 33.6 80.15 38.65 84.0 36.2" fill="url(#gradient0)" fill-rule="evenodd" stroke="none"/>
      <path d="M79.3 71.75 Q79.6 75.1 78.3 79.7 77.5 82.65 75.25 85.35 L71.15 90.2 Q69.35 92.7 69.3 96.55 69.25 98.1 69.85 103.25 70.65 109.5 70.75 118.3 L70.5 129.35 Q70.25 134.45 70.35 134.4 73.4 133.7 76.8 130.95 80.2 128.15 82.2 124.65 85.35 119.0 84.5 114.5 L83.7 111.05 83.35 109.95 Q84.1 109.35 85.15 108.8 87.25 107.65 88.65 107.95 90.1 108.25 89.9 111.3 L88.5 119.55 Q87.35 125.75 85.8 129.1 83.65 133.8 78.9 138.25 L72.45 143.1 Q68.2 146.05 66.7 148.3 L57.3 162.15 Q52.45 170.45 51.7 177.8 L51.4 185.1 Q51.3 189.55 50.5 192.4 L49.65 195.25 Q49.0 196.9 47.95 197.9 L51.95 198.3 55.9 199.65 Q58.5 200.4 60.1 200.55 L64.45 200.25 61.7 201.5 58.9 202.35 Q56.55 202.65 52.9 202.35 L47.1 202.15 45.0 202.3 Q44.45 202.4 43.35 203.0 45.3 202.55 47.35 203.65 L50.7 205.8 46.25 205.05 42.75 204.95 Q36.15 205.7 31.7 206.6 29.75 207.0 24.05 206.65 20.2 206.4 19.05 208.15 19.1 207.05 19.45 206.55 L20.85 205.3 Q22.1 204.4 25.8 203.95 L19.2 203.45 12.35 202.85 Q11.75 202.9 6.2 204.85 2.35 206.2 0.0 204.35 2.95 205.05 5.1 203.7 7.45 201.75 9.4 200.85 11.3 199.95 14.2 200.05 L18.6 200.1 Q17.7 199.2 16.35 198.4 14.9 197.55 13.75 197.35 L9.4 197.8 Q6.45 198.2 5.75 197.2 7.05 197.5 8.95 196.5 11.7 195.0 12.25 194.85 L16.05 194.75 18.9 194.7 Q17.9 190.1 17.75 188.0 17.45 184.7 18.25 181.3 20.5 171.65 30.75 160.45 L38.95 152.1 46.85 144.05 Q62.55 126.65 59.8 94.55 59.5 91.0 57.85 88.45 56.8 86.9 54.05 84.35 47.85 78.6 45.7 71.65 L44.6 68.3 Q44.4 66.55 46.6 66.25 46.25 66.3 48.6 70.8 L51.45 75.8 Q56.0 81.25 61.15 82.9 62.3 83.65 62.15 79.8 61.95 74.25 62.1 73.45 62.55 70.9 64.5 69.25 66.75 67.3 68.4 70.0 69.25 71.3 68.55 73.55 L67.3 77.1 Q66.45 81.4 67.45 84.45 68.15 86.55 70.55 85.05 72.55 83.8 73.95 81.55 77.25 76.15 77.4 71.55 L79.3 71.75" fill="url(#gradient1)" fill-rule="evenodd" stroke="none"/>
      <path d="M83.8 34.05 Q91.55 29.05 100.05 32.25 107.25 34.95 109.95 40.5 113.9 48.45 123.1 58.85 127.0 63.25 128.05 68.55 129.2 74.1 125.95 75.4 123.0 76.6 120.8 74.65 119.4 73.5 117.95 70.55 L116.55 68.15 Q116.2 67.95 115.3 69.5 114.55 70.95 112.7 70.45 L110.25 69.25 Q110.0 69.1 109.85 71.95 109.65 75.35 107.75 76.05 105.55 76.85 102.25 74.45 99.35 72.3 97.95 69.75 96.55 67.2 96.15 67.15 95.5 67.15 94.5 71.15 93.5 75.1 90.8 76.55 L86.75 76.65 83.75 73.95 Q82.2 72.55 81.95 73.5 81.75 74.35 81.9 77.45 81.65 80.45 79.4 81.95 75.05 84.8 68.75 76.85 66.9 74.45 65.4 75.0 64.7 75.25 62.3 77.6 60.7 79.2 59.3 78.0 58.55 77.3 57.3 74.85 56.3 73.0 53.55 75.2 50.25 77.85 48.6 77.15 L48.05 76.2 Q47.85 75.5 47.0 75.45 46.65 75.45 46.1 76.35 L45.05 77.4 Q42.45 77.8 40.85 73.15 L39.95 68.1 Q39.15 64.45 37.7 64.1 36.4 63.75 33.35 68.15 30.1 72.85 28.0 73.1 24.9 73.45 25.0 68.55 25.05 66.95 26.1 61.1 26.65 58.25 25.75 57.4 24.65 56.35 21.7 58.75 16.55 62.95 14.0 64.3 9.1 67.0 6.1 65.2 3.0 63.35 5.15 58.35 6.85 54.4 10.3 51.0 12.8 48.45 16.95 40.95 20.9 33.85 24.9 24.9 28.15 17.7 35.15 11.0 39.0 7.35 45.55 2.0 47.25 0.4 52.15 5.95 L62.4 18.95 Q69.35 27.8 73.75 31.45 79.95 36.5 83.8 34.05" fill="url(#gradient2)" fill-rule="evenodd" stroke="none"/>
      <path d="M113.3 44.0 Q115.0 46.95 117.45 50.25 119.15 52.55 119.35 53.45 119.6 54.8 118.5 55.6 117.45 56.35 116.45 55.95 114.8 55.35 115.2 58.65 115.3 59.9 114.45 59.7 113.6 59.45 112.35 58.0 L109.7 55.2 Q108.15 54.0 107.05 54.8 103.9 57.2 100.95 54.3 98.95 52.45 98.1 52.25 96.9 52.0 96.85 54.25 96.8 56.9 94.75 58.25 92.6 59.6 90.45 57.75 L85.6 53.7 Q83.35 52.3 82.55 54.35 81.95 55.75 81.75 57.35 L81.25 61.4 Q80.3 67.05 76.65 67.2 74.65 67.3 71.1 63.7 L65.95 58.75 Q63.85 57.5 61.85 58.05 59.95 58.5 57.55 60.75 55.1 63.05 52.5 62.7 49.75 62.3 49.2 59.0 L48.35 54.25 Q48.0 53.1 47.0 53.95 45.15 55.55 42.85 55.95 39.65 56.5 39.0 53.2 38.6 51.1 38.75 45.8 38.85 42.0 37.9 41.7 34.75 40.7 28.05 46.0 L21.45 51.15 Q17.55 53.7 16.15 52.35 14.9 51.15 16.15 48.5 17.85 44.95 17.85 43.8 17.85 43.35 15.9 45.35 13.9 47.35 13.85 46.15 13.8 44.35 16.15 40.35 L20.65 32.75 Q24.1 25.4 26.95 20.35 32.2 10.9 38.1 5.35 44.9 -1.05 52.1 0.2 58.15 1.3 65.05 7.95 66.65 9.5 70.45 15.8 74.75 23.0 76.3 25.0 79.0 28.4 80.75 29.0 82.35 29.55 84.25 27.8 88.05 24.3 90.4 23.35 95.6 21.2 100.85 24.85 105.35 28.0 108.95 34.8 L113.3 44.0" fill="url(#gradient3)" fill-rule="evenodd" stroke="none"/>
      <path d="M79.75 114.65 Q78.25 115.8 76.65 115.25 73.35 114.15 77.15 107.4 78.9 104.2 87.6 105.45 96.05 106.7 98.1 109.7 99.9 112.3 100.05 114.05 100.2 115.5 99.15 115.8 98.3 116.1 96.25 114.75 94.75 113.8 94.7 115.05 94.7 116.7 93.3 117.2 91.9 117.7 90.55 116.45 L88.2 114.25 Q87.15 113.4 86.75 113.95 L85.3 115.15 Q84.25 115.7 83.7 115.15 L82.95 113.2 Q82.65 112.05 81.9 112.65 L79.75 114.65" fill="url(#gradient4)" fill-rule="evenodd" stroke="none"/>
      <path d="M85.8 89.0 Q90.65 87.65 92.8 93.7 93.95 96.95 94.95 102.95 95.5 104.65 97.1 107.4 98.35 109.5 98.2 109.9 97.95 110.6 97.4 110.6 96.85 110.55 95.8 109.8 L94.1 108.3 Q93.3 107.75 92.65 108.5 92.2 109.05 91.25 108.5 90.5 108.15 89.85 107.45 89.45 107.05 88.7 107.6 L86.8 109.3 Q85.9 110.1 84.8 109.45 83.95 109.0 83.2 107.8 82.75 107.1 81.35 107.8 L78.95 108.9 Q77.65 109.05 77.3 108.45 76.8 107.75 77.55 105.85 79.7 101.35 80.95 97.65 L82.8 92.25 Q84.05 89.5 85.8 89.0" fill="url(#gradient5)" fill-rule="evenodd" stroke="none"/>
      <path d="M43.35 2.3 Q45.9 1.4 47.35 2.0 48.8 2.6 47.55 3.55 L44.15 5.65 Q41.6 6.85 39.5 6.95 37.3 7.05 39.25 5.05 41.15 3.1 43.35 2.3" fill="#9ef0e3" fill-rule="evenodd" stroke="none"/>
      <path d="M53.5 4.6 Q53.3 3.15 56.65 4.2 60.05 5.25 59.35 6.35 L56.15 6.5 Q53.6 5.6 53.5 4.6" fill="#9ef0e3" fill-rule="evenodd" stroke="none"/>
      <path d="M49.2 1.6 L52.1 1.8 Q53.8 2.7 52.0 2.85 50.65 2.95 49.8 2.3 L49.2 1.6" fill="#9ef0e3" fill-rule="evenodd" stroke="none"/>
      <path d="M62.05 8.4 L62.65 8.85 63.85 10.25 Q64.6 11.35 64.75 12.3 64.9 13.35 63.8 12.65 62.6 11.9 61.9 10.1 61.15 8.25 62.05 8.4" fill="#9ef0e3" fill-rule="evenodd" stroke="none"/>
      <path d="M41.1 9.65 Q42.65 10.3 41.05 11.1 39.4 11.9 38.0 11.7 36.5 11.45 38.0 10.3 39.55 9.05 41.1 9.65" fill="#9ef0e3" fill-rule="evenodd" stroke="none"/>
      <path d="M47.3 6.7 Q49.4 6.25 51.7 6.75 53.75 7.2 54.7 8.1 55.5 8.9 54.05 9.45 L50.95 9.8 Q49.15 9.65 47.4 8.4 45.55 7.1 47.3 6.7" fill="#9ef0e3" fill-rule="evenodd" stroke="none"/>
      <path d="M91.35 24.7 Q93.25 24.4 92.2 25.3 91.15 26.2 89.55 26.5 88.0 26.75 88.95 25.85 89.9 24.9 91.35 24.7" fill="#cff0ed" fill-rule="evenodd" stroke="none"/>
      <path d="M96.0 23.5 Q98.35 24.05 99.4 24.9 L100.85 26.4 Q101.65 27.2 100.45 27.1 99.2 27.0 97.2 25.95 95.3 24.95 95.1 24.1 94.95 23.25 96.0 23.5" fill="#cff0ed" fill-rule="evenodd" stroke="none"/>
      <path d="M94.15 27.35 Q98.65 27.95 98.2 29.1 97.7 30.35 95.15 29.8 93.15 29.35 93.0 28.25 92.8 27.2 94.15 27.35" fill="#cff0ed" fill-rule="evenodd" stroke="none"/>
      <path d="M102.8 29.65 Q104.95 30.6 105.3 31.9 105.6 33.1 104.6 33.1 103.85 33.1 102.85 31.15 101.85 29.25 102.8 29.65" fill="#cff0ed" fill-rule="evenodd" stroke="none"/>
      <path d="M36.7 30.2 Q36.6 30.85 35.95 30.75 35.7 30.75 35.5 30.55 L35.35 30.05 35.55 29.65 36.05 29.5 Q36.7 29.5 36.7 30.2" fill="#9ef0e3" fill-rule="evenodd" stroke="none"/>
      <path d="M37.1 34.25 Q37.0 35.2 36.05 35.1 35.65 35.1 35.4 34.8 35.1 34.5 35.15 34.1 35.15 33.75 35.45 33.45 35.8 33.2 36.2 33.25 36.6 33.3 36.9 33.6 L37.1 34.25" fill="#9ef0e3" fill-rule="evenodd" stroke="none"/>
      <path d="M32.45 35.5 Q32.35 36.3 31.5 36.3 31.15 36.25 30.9 36.0 30.65 35.75 30.7 35.4 30.7 35.05 31.0 34.85 31.25 34.6 31.6 34.6 32.45 34.7 32.45 35.5" fill="#9ef0e3" fill-rule="evenodd" stroke="none"/>
      <path d="M34.2 37.9 Q34.2 38.45 33.5 38.45 32.9 38.35 32.9 37.8 33.0 37.15 33.6 37.25 L34.05 37.45 34.2 37.9" fill="#9ef0e3" fill-rule="evenodd" stroke="none"/>
      <path d="M29.45 39.95 Q29.35 40.95 28.3 40.95 L27.6 40.55 Q27.3 40.2 27.35 39.8 27.35 39.35 27.7 39.05 28.05 38.75 28.45 38.8 28.9 38.85 29.2 39.15 29.5 39.5 29.45 39.95" fill="#9ef0e3" fill-rule="evenodd" stroke="none"/>
      <path d="M40.4 37.15 L40.1 37.75 39.45 37.95 Q38.65 37.85 38.65 37.0 L39.0 36.4 Q39.25 36.15 39.6 36.2 40.5 36.3 40.4 37.15" fill="#9ef0e3" fill-rule="evenodd" stroke="none"/>
      <path d="M100.65 48.05 L100.3 48.75 99.55 49.0 Q99.15 48.95 98.85 48.65 98.55 48.3 98.6 47.9 98.65 47.5 98.95 47.2 99.3 46.9 99.7 46.95 100.1 47.0 100.4 47.3 L100.65 48.05" fill="#9ef0e3" fill-rule="evenodd" stroke="none"/>
      <path d="M104.2 45.3 Q104.2 45.8 103.65 45.8 103.15 45.7 103.15 45.2 103.25 44.65 103.75 44.75 104.3 44.75 104.2 45.3" fill="#9ef0e3" fill-rule="evenodd" stroke="none"/>
      <path d="M105.9 43.45 L105.6 43.7 Q105.3 43.7 105.3 43.4 105.3 43.1 105.65 43.1 105.9 43.1 105.9 43.45" fill="#c4f0e3" fill-rule="evenodd" stroke="none"/>
      <path d="M109.4 49.45 L109.0 50.25 108.15 50.5 Q107.65 50.45 107.35 50.1 107.0 49.75 107.05 49.25 107.1 48.75 107.45 48.45 107.8 48.1 108.3 48.15 108.8 48.2 109.1 48.6 109.45 48.95 109.4 49.45" fill="#c4f0e3" fill-rule="evenodd" stroke="none"/>
      <path d="M112.05 48.45 Q111.95 49.25 111.25 49.15 110.45 49.05 110.55 48.35 110.55 48.0 110.8 47.8 L111.35 47.65 111.85 47.9 112.05 48.45" fill="#c4f0e3" fill-rule="evenodd" stroke="none"/>
      <path d="M109.3 46.0 L108.85 46.4 108.45 45.95 Q108.45 45.55 108.9 45.55 109.3 45.55 109.3 46.0" fill="#c4f0e3" fill-rule="evenodd" stroke="none"/>
      <path d="M104.4 48.45 Q104.3 49.25 103.55 49.15 L103.0 48.9 Q102.75 48.65 102.8 48.3 102.9 47.5 103.65 47.6 104.4 47.6 104.4 48.45" fill="#9ef0e3" fill-rule="evenodd" stroke="none"/>
      <path d="M109.55 42.3 Q109.55 42.65 109.15 42.65 108.75 42.65 108.75 42.25 108.75 41.9 109.15 41.9 109.55 41.9 109.55 42.3" fill="#c4f0e3" fill-rule="evenodd" stroke="none"/>
      <path d="M105.85 40.05 L105.65 40.55 105.1 40.7 Q104.4 40.7 104.4 39.95 104.5 39.25 105.2 39.25 105.95 39.35 105.85 40.05" fill="#c4f0e3" fill-rule="evenodd" stroke="none"/>
    </g>
    <radialGradient cx="0" cy="0" gradientTransform="matrix(0.0887, 0.001, 0.001, -0.0887, 73.95, 21.4)" gradientUnits="userSpaceOnUse" id="gradient0" r="819.2" spreadMethod="pad">
      <stop offset="0.0" stop-color="#2a1624"/>
      <stop offset="1.0" stop-color="#18b0b5"/>
    </radialGradient>
    <linearGradient gradientTransform="matrix(0.0537, -0.1554, -0.1554, -0.0537, 59.6, 119.3)" gradientUnits="userSpaceOnUse" id="gradient1" spreadMethod="pad" x1="-819.2" x2="819.2">
      <stop offset="0.0" stop-color="#242224"/>
      <stop offset="0.23921568627450981" stop-color="#27252e"/>
      <stop offset="0.6392156862745098" stop-color="#302e49"/>
      <stop offset="1.0" stop-color="#3a3866"/>
    </linearGradient>
    <radialGradient cx="0" cy="0" gradientTransform="matrix(0.0861, 9.0E-4, 9.0E-4, -0.0861, 74.3, 13.1)" gradientUnits="userSpaceOnUse" id="gradient2" r="819.2" spreadMethod="pad">
      <stop offset="0.0" stop-color="#2a1624"/>
      <stop offset="1.0" stop-color="#006986"/>
    </radialGradient>
    <radialGradient cx="0" cy="0" gradientTransform="matrix(0.1135, 0.0012, 0.0012, -0.1135, 94.7, -1.95)" gradientUnits="userSpaceOnUse" id="gradient3" r="819.2" spreadMethod="pad">
      <stop offset="0.0" stop-color="#9ef0e3"/>
      <stop offset="0.043137254901960784" stop-color="#93ece3"/>
      <stop offset="0.21568627450980393" stop-color="#6bdfe3"/>
      <stop offset="0.30196078431372547" stop-color="#5cdae3"/>
      <stop offset="0.4666666666666667" stop-color="#3ec7dd"/>
      <stop offset="0.6901960784313725" stop-color="#1cb1d5"/>
      <stop offset="0.8784313725490196" stop-color="#08a3d1"/>
      <stop offset="1.0" stop-color="#009ecf"/>
    </radialGradient>
    <radialGradient cx="0" cy="0" gradientTransform="matrix(0.0262, 3.0E-4, 3.0E-4, -0.0262, 84.5, 98.75)" gradientUnits="userSpaceOnUse" id="gradient4" r="819.2" spreadMethod="pad">
      <stop offset="0.0" stop-color="#2a1624"/>
      <stop offset="1.0" stop-color="#006986"/>
    </radialGradient>
    <radialGradient cx="0" cy="0" gradientTransform="matrix(0.0287, 3.0E-4, 3.0E-4, -0.0287, 94.25, 94.0)" gradientUnits="userSpaceOnUse" id="gradient5" r="819.2" spreadMethod="pad">
      <stop offset="0.0" stop-color="#9ef0e3"/>
      <stop offset="0.043137254901960784" stop-color="#93ece3"/>
      <stop offset="0.21568627450980393" stop-color="#6bdfe3"/>
      <stop offset="0.30196078431372547" stop-color="#5cdae3"/>
      <stop offset="0.4666666666666667" stop-color="#3ec7dd"/>
      <stop offset="0.6901960784313725" stop-color="#1cb1d5"/>
      <stop offset="0.8784313725490196" stop-color="#08a3d1"/>
      <stop offset="1.0" stop-color="#009ecf"/>
    </radialGradient>
  </defs>
</svg>
