<?xml version="1.0" encoding="UTF-8" standalone="no"?>
<svg xmlns:xlink="http://www.w3.org/1999/xlink" height="35.55px" width="63.35px" xmlns="http://www.w3.org/2000/svg">
  <g transform="matrix(1.0, 0.0, 0.0, 1.0, 0.0, 0.0)">
    <use height="35.55" transform="matrix(1.0, 0.0, 0.0, 1.0, 0.0, 0.0)" width="63.35" xlink:href="#shape0"/>
  </g>
  <defs>
    <g id="shape0" transform="matrix(1.0, 0.0, 0.0, 1.0, 0.0, 0.0)">
      <path d="M20.4 24.05 L19.5 23.7 Q17.6 22.9 16.65 22.35 13.7 20.6 10.45 17.75 L10.3 17.6 11.4 17.45 11.4 16.95 Q12.35 16.7 13.8 17.55 L16.15 18.8 17.75 18.75 20.15 19.25 21.75 19.65 Q22.65 19.9 23.15 20.35 L25.45 22.9 27.25 24.4 27.25 24.45 Q27.95 26.3 29.85 26.75 28.8 24.65 28.5 23.65 L28.0 21.5 27.65 20.65 28.45 21.35 30.05 23.1 30.95 24.8 Q31.45 25.65 32.15 25.85 L32.75 27.35 33.4 28.35 33.35 28.6 Q31.15 28.65 28.55 26.95 25.35 24.85 24.05 24.45 L24.2 24.9 Q20.35 22.35 18.25 22.0 L18.85 22.75 19.3 23.55 19.3 23.6 20.4 24.05 M26.75 20.1 L26.85 19.95 26.85 20.5 26.75 20.1 M23.6 22.4 L22.2 21.1 22.55 20.95 Q21.45 21.15 22.3 22.7 23.15 24.25 24.2 24.1 24.4 23.15 23.6 22.4 M32.4 25.05 L32.4 23.35 33.2 24.65 34.35 25.8 35.1 26.15 35.5 27.9 Q35.8 28.8 36.85 28.75 L36.25 27.4 36.05 26.4 37.35 26.45 37.45 27.1 38.75 27.05 Q39.1 28.35 38.5 28.95 L39.55 29.15 Q39.2 29.65 38.25 29.7 L36.75 29.45 35.85 28.8 35.25 28.8 34.65 28.8 34.35 28.65 33.75 26.85 Q33.1 25.4 33.2 24.65 L32.4 25.05 M12.35 18.8 L13.75 19.85 Q14.95 20.7 15.35 20.75 L15.7 20.6 16.0 20.4 17.75 21.0 19.9 21.4 18.4 19.8 Q17.65 19.1 16.55 18.95 L14.65 18.7 Q13.4 18.55 13.2 18.95 L12.35 18.8" fill="#a68a52" fill-rule="evenodd" stroke="none"/>
      <path d="M21.25 24.4 L21.2 24.4 20.4 24.05 19.3 23.6 19.3 23.55 18.85 22.75 18.25 22.0 Q20.35 22.35 24.2 24.9 L24.05 24.45 Q25.35 24.85 28.55 26.95 31.15 28.65 33.35 28.6 L33.4 28.35 Q33.9 29.05 34.35 29.25 L34.35 28.65 34.65 28.8 35.25 28.8 35.85 28.8 36.75 29.45 38.25 29.7 Q39.2 29.65 39.55 29.15 L38.5 28.95 Q39.1 28.35 38.75 27.05 L37.45 27.1 37.35 26.45 36.05 26.4 36.05 25.95 35.05 26.1 35.1 26.15 34.35 25.8 33.2 24.65 32.4 23.35 32.4 25.05 32.2 25.1 Q32.05 25.35 32.15 25.85 31.45 25.65 30.95 24.8 L30.05 23.1 28.45 21.35 27.65 20.65 26.95 19.85 26.95 19.75 27.35 19.25 Q27.9 18.95 28.9 19.25 L30.35 19.8 32.25 20.35 Q33.15 20.65 34.0 21.5 L36.8 24.75 38.05 25.65 38.65 25.8 Q38.9 25.9 38.75 26.5 L41.65 26.05 44.4 25.75 44.4 26.9 45.75 26.75 47.1 26.65 Q47.15 27.5 46.85 28.2 L46.15 29.6 48.4 29.35 49.5 28.9 47.65 29.7 44.55 30.15 40.85 30.7 37.3 30.4 33.2 29.6 Q30.2 29.2 29.05 28.7 L25.8 27.0 22.65 25.1 21.25 24.4 M10.3 17.6 L9.95 17.25 6.9 14.45 7.7 14.25 7.8 14.25 7.75 14.3 Q8.15 14.4 8.8 15.7 9.35 16.8 10.25 16.5 L11.45 15.6 Q12.05 15.05 12.9 15.25 L13.8 15.8 Q14.35 16.25 14.65 16.35 L16.65 16.65 18.65 16.75 Q19.55 16.9 20.5 17.45 L21.3 18.05 22.15 18.5 Q22.4 18.55 22.7 18.2 23.05 17.9 23.25 17.9 23.8 17.85 25.1 18.8 L26.6 20.25 26.75 20.1 26.85 20.5 26.85 20.8 Q26.8 23.15 27.25 24.4 L25.45 22.9 23.15 20.35 Q22.65 19.9 21.75 19.65 L20.15 19.25 17.75 18.75 16.15 18.8 13.8 17.55 Q12.35 16.7 11.4 16.95 L11.4 17.45 10.3 17.6" fill="#907847" fill-rule="evenodd" stroke="none"/>
      <path d="M55.05 23.5 Q53.3 26.35 50.45 28.3 L49.5 28.9 48.4 29.35 46.15 29.6 46.85 28.2 Q47.15 27.5 47.1 26.65 L45.75 26.75 44.4 26.9 44.4 25.75 41.65 26.05 38.75 26.5 Q38.9 25.9 38.65 25.8 L38.05 25.65 36.8 24.75 34.0 21.5 Q33.15 20.65 32.25 20.35 L30.35 19.8 28.9 19.25 Q27.9 18.95 27.35 19.25 L26.95 19.75 26.95 19.85 26.85 19.95 26.75 20.1 26.6 20.25 25.1 18.8 Q23.8 17.85 23.25 17.9 23.05 17.9 22.7 18.2 22.4 18.55 22.15 18.5 L21.3 18.05 20.5 17.45 Q19.55 16.9 18.65 16.75 L16.65 16.65 14.65 16.35 Q14.35 16.25 13.8 15.8 L12.9 15.25 Q12.05 15.05 11.45 15.6 L10.25 16.5 Q9.35 16.8 8.8 15.7 8.15 14.4 7.75 14.3 L7.8 14.25 Q8.9 14.25 9.3 15.85 L10.85 15.4 12.2 14.65 13.25 14.2 13.4 14.15 13.55 14.1 13.7 14.05 14.45 14.05 14.8 14.3 15.0 14.55 15.0 14.6 15.55 15.25 17.0 15.65 18.5 15.3 Q21.2 14.2 22.3 14.45 23.55 14.7 25.5 16.9 26.8 18.4 28.95 18.1 L31.15 17.85 31.15 17.95 33.65 18.05 Q35.05 18.65 35.95 20.3 37.45 23.05 38.2 23.7 39.1 24.45 41.25 24.2 43.75 23.85 44.65 24.15 L47.9 25.55 Q49.5 26.15 51.45 25.5 52.1 25.3 53.05 24.7 L54.6 23.7 54.75 23.65 55.05 23.5" fill="#675633" fill-rule="evenodd" stroke="none"/>
      <path d="M3.2 11.85 L2.5 11.25 3.05 11.1 3.2 11.85 M6.9 2.15 L8.65 1.05 Q9.35 0.65 10.1 0.4 L11.3 0.4 11.05 0.15 11.45 0.1 14.65 0.25 11.3 0.4 11.25 1.1 Q12.3 1.0 11.9 1.45 L11.05 2.15 9.9 3.25 8.75 4.3 10.45 4.2 10.2 4.45 Q6.65 5.8 5.4 7.9 L7.2 7.45 7.1 8.4 Q8.3 8.75 11.1 6.65 13.9 4.6 14.35 3.15 L14.25 3.15 14.85 3.15 Q15.35 3.85 14.45 4.45 L15.5 4.15 Q16.05 5.8 11.7 8.65 L10.15 9.3 8.55 9.8 6.8 10.6 6.7 10.6 6.6 10.6 6.45 10.55 6.2 10.45 6.15 10.4 Q5.7 10.05 4.85 7.25 L4.2 7.35 3.55 7.45 Q3.1 5.95 4.55 4.35 L6.9 2.15 M15.75 0.55 L20.85 2.25 21.0 2.3 20.9 2.3 20.85 2.25 20.8 2.25 19.05 1.75 19.1 1.75 17.0 1.0 16.55 0.85 16.0 0.65 15.75 0.55 M44.2 1.4 L44.45 1.35 44.95 1.35 44.2 1.4 M55.2 17.2 Q54.65 17.55 54.0 18.2 L53.85 18.35 53.1 19.05 53.6 17.2 54.85 13.9 55.4 11.35 55.5 12.7 55.55 14.9 55.25 16.6 55.2 17.2 M40.55 3.45 Q40.3 4.3 38.2 5.3 L35.15 6.75 32.6 8.4 Q31.25 9.35 30.5 10.45 L32.0 9.65 Q32.95 9.05 33.55 9.1 L33.65 9.5 35.3 8.55 Q36.35 7.9 37.0 7.95 37.1 9.1 39.95 7.05 42.65 5.1 43.2 4.1 L41.9 3.7 40.7 3.8 40.55 3.45 M30.35 7.65 L29.9 8.6 28.9 10.4 Q29.65 10.5 31.05 9.5 32.55 8.3 33.1 7.95 L37.05 5.5 39.25 4.25 40.5 3.1 41.15 3.05 Q42.0 3.05 42.25 3.4 L44.7 3.45 Q44.9 4.3 43.9 5.35 L42.4 6.95 45.2 6.65 45.05 8.3 43.7 8.3 42.65 10.9 41.6 13.6 Q42.6 12.9 43.55 10.95 44.3 9.3 44.95 8.6 L44.5 10.55 45.7 10.65 Q45.75 12.25 45.2 13.1 L43.05 14.55 43.0 13.1 41.55 14.25 Q41.55 13.5 41.85 12.1 L42.15 10.0 Q39.75 11.6 38.55 11.95 L36.8 12.25 35.25 12.6 34.5 12.3 32.75 12.35 31.05 12.7 30.9 12.75 Q29.2 12.9 26.55 11.25 24.9 10.25 23.55 10.15 L23.2 10.15 Q24.35 9.85 25.5 8.4 27.9 5.3 28.35 5.1 L25.7 5.8 24.9 6.85 23.75 7.8 21.7 10.0 22.65 10.2 22.1 10.35 20.6 11.25 Q19.65 11.75 18.9 11.65 L18.75 11.65 Q18.15 11.5 17.45 11.0 L17.1 10.75 Q16.65 10.4 16.25 10.2 L16.2 10.15 Q15.7 9.85 15.3 9.8 14.65 9.7 13.75 10.1 L14.55 8.8 15.05 8.05 14.5 9.25 Q15.1 8.35 16.2 7.9 L18.2 7.2 21.7 4.8 21.85 4.8 Q20.5 4.7 18.1 5.45 20.05 4.45 22.2 4.65 L22.1 4.95 22.5 4.95 Q22.7 5.8 21.35 7.05 L19.55 8.8 Q21.25 9.05 23.3 7.45 L26.7 5.05 27.8 4.8 28.9 4.95 Q29.75 5.75 28.05 7.75 L28.45 7.6 27.4 8.7 Q26.35 9.8 26.2 10.6 27.5 10.3 28.7 9.3 L30.35 7.65 M14.45 14.05 L13.7 14.05 14.25 14.0 14.35 14.0 14.45 14.05 M29.5 7.1 L30.5 6.65 30.45 7.25 29.5 7.1 M9.7 1.1 L7.2 2.45 Q6.4 2.9 5.45 4.15 4.5 5.4 4.35 6.25 4.95 5.65 6.1 4.85 L7.9 3.6 8.9 2.15 Q9.3 1.3 9.7 1.1" fill="#dbb25f" fill-rule="evenodd" stroke="none"/>
      <path d="M26.85 19.95 L26.95 19.85 27.65 20.65 28.0 21.5 28.5 23.65 Q28.8 24.65 29.85 26.75 27.95 26.3 27.25 24.45 L27.25 24.4 Q26.8 23.15 26.85 20.8 L26.85 20.5 26.85 19.95 M23.6 22.4 Q24.4 23.15 24.2 24.1 23.15 24.25 22.3 22.7 21.45 21.15 22.55 20.95 L22.2 21.1 23.6 22.4 M32.15 25.85 Q32.05 25.35 32.2 25.1 L32.4 25.05 33.2 24.65 Q33.1 25.4 33.75 26.85 L34.35 28.65 34.35 29.25 Q33.9 29.05 33.4 28.35 L32.75 27.35 32.15 25.85 M35.1 26.15 L35.05 26.1 36.05 25.95 36.05 26.4 36.25 27.4 36.85 28.75 Q35.8 28.8 35.5 27.9 L35.1 26.15 M12.35 18.8 L13.2 18.95 Q13.4 18.55 14.65 18.7 L16.55 18.95 Q17.65 19.1 18.4 19.8 L19.9 21.4 17.75 21.0 16.0 20.4 15.7 20.6 15.35 20.75 Q14.95 20.7 13.75 19.85 L12.35 18.8" fill="#bb9c5c" fill-rule="evenodd" stroke="none"/>
      <path d="M10.1 0.4 L10.05 0.4 10.35 0.35 11.0 0.15 11.05 0.15 11.3 0.4 10.1 0.4 M14.65 0.25 L14.7 0.25 15.75 0.55 16.0 0.65 15.2 0.4 15.2 1.1 13.15 2.0 Q11.9 2.55 11.25 3.1 L12.5 2.95 13.65 2.55 14.55 2.5 15.4 2.45 16.2 2.15 17.0 1.8 19.05 1.75 20.8 2.25 20.85 2.25 20.9 2.3 Q21.3 2.7 20.45 3.1 L18.85 3.6 Q15.7 4.95 14.0 7.45 13.0 8.95 11.4 9.9 L10.85 10.25 10.65 10.15 10.55 10.15 9.1 10.4 8.9 10.45 8.2 10.55 7.45 10.65 7.25 10.65 6.8 10.6 8.55 9.8 10.15 9.3 11.7 8.65 Q16.05 5.8 15.5 4.15 L14.45 4.45 Q15.35 3.85 14.85 3.15 L14.25 3.15 Q11.9 2.9 11.05 3.6 L10.45 4.2 8.75 4.3 9.9 3.25 11.05 2.15 11.9 1.45 Q12.3 1.0 11.25 1.1 L11.3 0.4 14.65 0.25 M38.1 2.15 L41.15 1.75 41.15 1.8 44.2 1.4 44.95 1.35 45.2 1.3 45.4 1.3 45.6 1.3 48.25 1.7 Q48.4 2.15 47.65 3.1 L46.45 4.3 48.05 4.3 47.75 6.3 Q47.35 7.55 47.4 8.25 L48.15 7.55 48.85 6.75 50.7 5.55 50.5 8.95 Q50.35 11.15 50.0 12.3 49.65 13.4 48.8 14.05 L46.95 15.15 49.2 14.7 Q50.4 14.4 51.2 13.65 L52.35 12.0 Q52.95 11.05 53.85 10.75 55.7 10.15 56.1 12.25 L56.05 15.8 55.9 16.75 Q55.65 16.85 55.4 17.05 L55.2 17.2 55.25 16.6 55.55 14.9 55.5 12.7 55.4 11.35 54.85 13.9 53.6 17.2 53.1 19.05 51.85 20.15 51.45 20.55 51.85 19.1 52.5 17.1 53.25 15.9 53.9 14.65 52.8 16.15 51.7 17.6 Q50.85 18.55 48.85 19.25 L47.7 19.7 46.55 18.75 45.05 17.45 Q43.9 16.6 41.45 16.7 L41.1 16.7 40.6 16.7 41.05 16.0 Q41.3 15.25 41.2 13.7 L41.05 11.35 39.1 13.6 37.3 14.7 36.55 13.75 35.25 12.6 36.8 12.25 38.55 11.95 Q39.75 11.6 42.15 10.0 L41.85 12.1 Q41.55 13.5 41.55 14.25 L43.0 13.1 43.05 14.55 45.2 13.1 Q45.75 12.25 45.7 10.65 L44.5 10.55 44.95 8.6 45.0 8.55 45.2 8.3 45.05 8.3 45.2 6.65 42.4 6.95 43.9 5.35 Q44.9 4.3 44.7 3.45 L42.25 3.4 Q42.0 3.05 41.15 3.05 L40.5 3.1 39.25 4.25 37.05 5.5 33.1 7.95 Q32.55 8.3 31.05 9.5 29.65 10.5 28.9 10.4 L29.9 8.6 30.35 7.65 30.7 7.3 30.45 7.25 30.5 6.65 29.5 7.1 28.85 6.95 28.45 7.6 28.05 7.75 Q29.75 5.75 28.9 4.95 L27.8 4.8 26.7 5.05 23.3 7.45 Q21.25 9.05 19.55 8.8 L21.35 7.05 Q22.7 5.8 22.5 4.95 L22.1 4.95 22.2 4.65 Q20.05 4.45 18.1 5.45 L17.9 5.5 Q16.5 5.9 15.75 6.85 L15.05 8.05 14.55 8.8 13.75 10.1 13.4 10.25 12.3 10.75 12.2 10.8 12.7 9.95 14.4 7.6 Q15.45 6.2 16.35 5.55 17.3 4.95 18.9 4.45 L21.6 3.65 24.55 3.2 Q26.55 3.15 27.35 3.8 L23.2 6.2 25.25 5.5 27.2 4.8 29.3 3.6 Q30.85 2.95 31.05 4.25 L32.2 3.8 33.35 3.35 Q33.55 4.55 32.75 6.0 L31.45 8.05 Q32.4 6.7 34.55 5.65 L38.3 3.6 Q39.35 2.7 39.5 2.0 L38.1 2.15 M54.8 6.3 L54.9 6.55 Q55.0 8.4 54.05 9.35 53.95 7.35 54.8 6.3 M53.65 4.7 L53.7 4.95 53.5 8.15 Q53.15 9.9 51.95 10.9 L52.2 8.4 Q52.2 5.3 53.65 4.7" fill="#c79e4c" fill-rule="evenodd" stroke="none"/>
      <path d="M21.0 2.3 L29.2 2.85 38.1 2.15 39.5 2.0 Q39.35 2.7 38.3 3.6 L34.55 5.65 Q32.4 6.7 31.45 8.05 L32.75 6.0 Q33.55 4.55 33.35 3.35 L32.2 3.8 31.05 4.25 Q30.85 2.95 29.3 3.6 L27.2 4.8 25.25 5.5 23.2 6.2 27.35 3.8 Q26.55 3.15 24.55 3.2 L21.6 3.65 18.9 4.45 Q17.3 4.95 16.35 5.55 15.45 6.2 14.4 7.6 L12.7 9.95 12.2 10.8 12.1 10.8 11.65 10.85 11.15 10.5 11.05 10.4 11.0 10.35 10.85 10.25 11.4 9.9 Q13.0 8.95 14.0 7.45 15.7 4.95 18.85 3.6 L20.45 3.1 Q21.3 2.7 20.9 2.3 L21.0 2.3 M48.25 1.7 L48.2 1.6 48.0 1.35 Q49.55 1.5 50.75 2.05 L53.2 3.25 55.15 4.4 Q56.55 5.25 57.45 6.0 L57.3 6.05 Q58.1 6.4 58.25 7.0 L58.4 8.35 59.1 11.2 Q59.65 12.85 59.7 14.35 59.85 16.45 58.95 17.25 58.25 17.9 57.6 17.35 56.7 16.6 56.2 16.65 L56.15 16.65 55.9 16.75 56.05 15.8 56.1 12.25 Q55.7 10.15 53.85 10.75 52.95 11.05 52.35 12.0 L51.2 13.65 Q50.4 14.4 49.2 14.7 L46.95 15.15 48.8 14.05 Q49.65 13.4 50.0 12.3 50.35 11.15 50.5 8.95 L50.7 5.55 48.85 6.75 48.15 7.55 47.4 8.25 Q47.35 7.55 47.75 6.3 L48.05 4.3 46.45 4.3 47.65 3.1 Q48.4 2.15 48.25 1.7 M53.65 4.7 Q52.2 5.3 52.2 8.4 L51.95 10.9 Q53.15 9.9 53.5 8.15 L53.7 4.95 53.65 4.7 M54.8 6.3 Q53.95 7.35 54.05 9.35 55.0 8.4 54.9 6.55 L54.8 6.3 M51.45 20.55 L51.1 20.9 50.5 21.1 50.15 21.05 50.1 21.05 50.0 21.05 Q49.4 21.0 48.1 20.0 L47.7 19.7 48.85 19.25 Q50.85 18.55 51.7 17.6 L52.8 16.15 53.9 14.65 53.25 15.9 52.5 17.1 51.85 19.1 51.45 20.55 M37.3 14.7 L39.1 13.6 41.05 11.35 41.2 13.7 Q41.3 15.25 41.05 16.0 L40.6 16.7 Q38.95 16.6 38.1 15.75 L37.3 14.7 M33.65 18.05 L31.15 17.95 31.15 17.85 32.85 17.8 33.65 18.05 M19.05 1.75 L17.0 1.8 16.2 2.15 15.4 2.45 14.55 2.5 13.65 2.55 12.5 2.95 11.25 3.1 Q11.9 2.55 13.15 2.0 L15.2 1.1 15.2 0.4 16.0 0.65 16.55 0.85 17.0 1.0 19.1 1.75 19.05 1.75" fill="#9f7f3d" fill-rule="evenodd" stroke="none"/>
      <path d="M40.55 3.45 L40.7 3.8 41.9 3.7 43.2 4.1 Q42.65 5.1 39.95 7.05 37.1 9.1 37.0 7.95 36.35 7.9 35.3 8.55 L33.65 9.5 33.55 9.1 Q32.95 9.05 32.0 9.65 L30.5 10.45 Q31.25 9.35 32.6 8.4 L35.15 6.75 38.2 5.3 Q40.3 4.3 40.55 3.45 M45.05 8.3 L45.2 8.3 45.0 8.55 44.95 8.6 Q44.3 9.3 43.55 10.95 42.6 12.9 41.6 13.6 L42.65 10.9 43.7 8.3 45.05 8.3 M30.45 7.25 L30.7 7.3 30.35 7.65 28.7 9.3 Q27.5 10.3 26.2 10.6 26.35 9.8 27.4 8.7 L28.45 7.6 28.85 6.95 29.5 7.1 30.45 7.25 M18.1 5.45 Q20.5 4.7 21.85 4.8 L21.7 4.8 18.2 7.2 16.2 7.9 Q15.1 8.35 14.5 9.25 L15.05 8.05 15.75 6.85 Q16.5 5.9 17.9 5.5 L18.1 5.45 M22.65 10.2 L21.7 10.0 23.75 7.8 24.9 6.85 25.7 5.8 28.35 5.1 Q27.9 5.3 25.5 8.4 24.35 9.85 23.2 10.15 L22.8 10.2 22.65 10.2 M10.45 4.2 L11.05 3.6 Q11.9 2.9 14.25 3.15 L14.35 3.15 Q13.9 4.6 11.1 6.65 8.3 8.75 7.1 8.4 L7.2 7.45 5.4 7.9 Q6.65 5.8 10.2 4.45 L10.45 4.2 M9.7 1.1 Q9.3 1.3 8.9 2.15 L7.9 3.6 6.1 4.85 Q4.95 5.65 4.35 6.25 4.5 5.4 5.45 4.15 6.4 2.9 7.2 2.45 L9.7 1.1" fill="#e9c67c" fill-rule="evenodd" stroke="none"/>
      <path d="M0.35 8.45 L1.65 6.1 1.95 4.85 Q2.1 4.1 2.45 3.7 2.75 3.35 3.8 3.25 2.55 4.55 2.3 6.2 2.0 8.0 3.75 7.5 L4.3 9.65 Q4.65 11.25 5.0 11.65 5.5 12.3 7.25 11.9 8.9 11.5 9.6 10.8 L10.15 11.6 Q10.5 12.0 11.05 11.95 11.55 11.9 12.45 11.2 L13.65 10.25 12.3 10.75 13.4 10.25 13.75 10.1 Q14.65 9.7 15.3 9.8 15.7 9.85 16.2 10.15 L16.25 10.2 16.35 10.3 Q16.6 10.7 16.7 11.8 16.75 12.75 17.2 13.1 18.4 14.0 20.35 12.5 L23.55 10.15 Q24.9 10.25 26.55 11.25 29.2 12.9 30.9 12.75 29.6 12.9 28.3 12.25 L28.2 13.2 28.05 14.25 Q29.4 14.4 31.4 13.6 L34.6 12.35 34.5 12.3 35.25 12.6 36.55 13.75 37.3 14.7 38.1 15.75 38.05 15.7 38.05 16.15 37.75 17.35 Q37.6 18.05 37.9 18.45 L39.55 17.7 41.1 16.7 41.45 16.7 Q43.9 16.6 45.05 17.45 L46.55 18.75 47.7 19.7 48.1 20.0 Q49.4 21.0 50.0 21.05 L50.1 21.05 50.15 21.05 Q51.0 21.85 52.35 21.5 L55.0 20.45 55.3 20.45 55.6 20.5 56.0 19.95 56.4 19.4 Q57.3 18.6 58.2 18.8 58.2 20.5 58.0 20.95 57.7 21.65 56.95 21.85 L55.6 22.1 Q55.1 22.25 52.95 23.15 51.45 23.8 50.0 23.75 L48.2 23.45 46.65 22.45 45.45 21.7 44.05 21.8 41.6 22.5 39.05 22.25 Q37.65 21.7 35.25 17.95 33.4 15.05 30.35 15.8 L28.05 16.4 Q26.75 16.6 25.9 15.9 L24.2 14.35 Q23.35 13.75 21.85 13.95 L19.95 14.35 18.0 14.6 Q16.65 14.6 16.15 14.05 L14.9 12.6 13.1 12.7 11.2 14.25 9.55 15.0 Q9.05 14.9 9.0 13.45 L6.6 13.7 Q5.0 13.85 4.35 13.3 3.9 12.95 3.8 12.05 L3.5 10.8 Q3.15 10.25 2.1 10.25 L0.4 10.25 0.35 8.45 M14.8 14.3 L14.45 14.05 Q14.6 14.1 14.8 14.3 M22.1 10.35 L22.65 10.2 22.8 10.2 22.1 10.35 M6.8 10.6 L7.25 10.65 6.7 10.6 6.8 10.6" fill="#f5db85" fill-rule="evenodd" stroke="none"/>
      <path d="M6.9 14.45 L5.35 14.65 Q3.85 14.65 3.55 13.8 L3.2 11.85 3.05 11.1 2.5 11.25 0.2 11.3 Q-0.15 10.35 0.05 9.4 L0.15 9.05 0.35 8.4 0.35 8.45 0.4 10.25 2.1 10.25 Q3.15 10.25 3.5 10.8 L3.8 12.05 Q3.9 12.95 4.35 13.3 5.0 13.85 6.6 13.7 L9.0 13.45 Q9.05 14.9 9.55 15.0 L11.2 14.25 13.1 12.7 14.9 12.6 16.15 14.05 Q16.65 14.6 18.0 14.6 L19.95 14.35 21.85 13.95 Q23.35 13.75 24.2 14.35 L25.9 15.9 Q26.75 16.6 28.05 16.4 L30.35 15.8 Q33.4 15.05 35.25 17.95 37.65 21.7 39.05 22.25 L41.6 22.5 44.05 21.8 45.45 21.7 46.65 22.45 48.2 23.45 50.0 23.75 Q51.45 23.8 52.95 23.15 55.1 22.25 55.6 22.1 L56.95 21.85 Q57.7 21.65 58.0 20.95 58.2 20.5 58.2 18.8 57.3 18.6 56.4 19.4 L56.0 19.95 55.6 20.5 55.3 20.45 55.0 20.45 52.35 21.5 Q51.0 21.85 50.15 21.05 L50.5 21.1 51.1 20.9 51.45 20.55 51.85 20.15 53.1 19.05 53.85 18.35 54.0 18.2 Q54.65 17.55 55.2 17.2 L55.4 17.05 Q55.65 16.85 55.9 16.75 L56.15 16.65 56.2 16.65 Q56.7 16.6 57.6 17.35 58.25 17.9 58.95 17.25 59.85 16.45 59.7 14.35 59.65 12.85 59.1 11.2 L58.4 8.35 58.25 7.0 Q58.1 6.4 57.3 6.05 L57.45 6.0 Q58.85 5.65 59.65 7.1 L60.1 8.45 60.55 9.9 61.55 12.9 62.2 16.0 61.4 16.2 60.6 16.4 Q61.0 19.5 60.6 20.8 60.05 22.75 57.65 23.0 L56.1 23.1 55.05 23.5 54.75 23.65 54.6 23.7 53.05 24.7 Q52.1 25.3 51.45 25.5 49.5 26.15 47.9 25.55 L44.65 24.15 Q43.75 23.85 41.25 24.2 39.1 24.45 38.2 23.7 37.45 23.05 35.95 20.3 35.05 18.65 33.65 18.05 L32.85 17.8 31.15 17.85 28.95 18.1 Q26.8 18.4 25.5 16.9 23.55 14.7 22.3 14.45 21.2 14.2 18.5 15.3 L17.0 15.65 15.55 15.25 15.0 14.6 15.0 14.55 14.8 14.3 Q14.6 14.1 14.45 14.05 L14.35 14.0 14.25 14.0 13.7 14.05 13.55 14.1 13.4 14.15 13.25 14.2 12.2 14.65 10.85 15.4 9.3 15.85 Q8.9 14.25 7.8 14.25 L7.7 14.25 6.9 14.45 M3.8 3.25 L3.85 3.2 5.3 3.05 6.9 2.15 4.55 4.35 Q3.1 5.95 3.55 7.45 L4.2 7.35 4.85 7.25 Q5.7 10.05 6.15 10.4 L6.2 10.45 6.45 10.55 6.6 10.6 6.7 10.6 7.25 10.65 7.45 10.65 8.2 10.55 8.9 10.45 9.1 10.4 10.55 10.15 10.65 10.15 10.85 10.25 11.0 10.35 11.05 10.4 11.15 10.5 11.65 10.85 12.1 10.8 12.2 10.8 12.3 10.75 13.65 10.25 12.45 11.2 Q11.55 11.9 11.05 11.95 10.5 12.0 10.15 11.6 L9.6 10.8 Q8.9 11.5 7.25 11.9 5.5 12.3 5.0 11.65 4.65 11.25 4.3 9.65 L3.75 7.5 Q2.0 8.0 2.3 6.2 2.55 4.55 3.8 3.25 M40.6 16.7 L41.1 16.7 39.55 17.7 37.9 18.45 Q37.6 18.05 37.75 17.35 L38.05 16.15 38.05 15.7 38.1 15.75 Q38.95 16.6 40.6 16.7 M16.25 10.2 Q16.65 10.4 17.1 10.75 L17.45 11.0 Q18.15 11.5 18.75 11.65 L18.9 11.65 Q19.65 11.75 20.6 11.25 L22.1 10.35 22.8 10.2 23.2 10.15 23.55 10.15 20.35 12.5 Q18.4 14.0 17.2 13.1 16.75 12.75 16.7 11.8 16.6 10.7 16.35 10.3 L16.25 10.2 M30.9 12.75 L31.05 12.7 32.75 12.35 34.5 12.3 34.6 12.35 31.4 13.6 Q29.4 14.4 28.05 14.25 L28.2 13.2 28.3 12.25 Q29.6 12.9 30.9 12.75" fill="#cab262" fill-rule="evenodd" stroke="none"/>
      <path d="M60.1 8.45 L60.3 8.55 61.85 9.8 62.55 11.4 62.9 13.1 Q63.7 15.75 63.05 17.75 L62.4 19.2 Q62.1 19.95 62.05 20.75 L62.05 22.55 Q62.0 23.55 61.55 24.25 60.95 25.1 59.6 25.1 L57.45 25.45 Q57.15 25.6 56.3 27.0 L55.3 28.1 54.35 29.25 52.05 33.4 51.15 35.15 Q50.75 35.6 49.55 35.55 47.7 35.55 46.7 34.9 L45.55 34.15 44.4 34.3 41.25 33.9 38.05 33.75 35.85 34.15 Q34.3 34.4 34.0 34.95 32.45 33.25 30.35 32.75 L29.15 32.45 28.2 31.45 26.4 29.25 24.85 28.15 23.2 27.25 Q22.3 26.55 21.4 24.9 L21.25 24.4 22.65 25.1 25.8 27.0 29.05 28.7 Q30.2 29.2 33.2 29.6 L37.3 30.4 40.85 30.7 44.55 30.15 47.65 29.7 49.5 28.9 50.45 28.3 Q53.3 26.35 55.05 23.5 L56.1 23.1 57.65 23.0 Q60.05 22.75 60.6 20.8 61.0 19.5 60.6 16.4 L61.4 16.2 62.2 16.0 61.55 12.9 60.55 9.9 60.1 8.45" fill="url(#gradient0)" fill-rule="evenodd" stroke="none"/>
    </g>
    <linearGradient gradientTransform="matrix(0.0298, 0.0, 0.0, -0.0298, 38.9, 21.35)" gradientUnits="userSpaceOnUse" id="gradient0" spreadMethod="pad" x1="-819.2" x2="819.2">
      <stop offset="0.0" stop-color="#000000" stop-opacity="0.32941177"/>
      <stop offset="1.0" stop-color="#000000" stop-opacity="0.32941177"/>
    </linearGradient>
  </defs>
</svg>
