<?xml version="1.0" encoding="UTF-8" standalone="no"?>
<svg xmlns:xlink="http://www.w3.org/1999/xlink" height="64.75px" width="55.7px" xmlns="http://www.w3.org/2000/svg">
  <g transform="matrix(1.0, 0.0, 0.0, 1.0, 0.0, 0.0)">
    <use height="64.75" transform="matrix(1.0, 0.0, 0.0, 1.0, 0.0, 4.5)" width="55.7" xlink:href="#shape0"/>
  </g>
  <defs>
    <g id="shape0" transform="matrix(1.0, 0.0, 0.0, 1.0, 0.0, -4.5)">
      <path d="M15.5 61.85 Q21.35 60.6 29.6 60.6 37.9 60.6 43.7 61.85 49.55 63.1 49.55 64.9 49.55 66.7 43.7 68.0 37.9 69.25 29.6 69.25 21.35 69.25 15.5 68.0 9.65 66.7 9.65 64.9 9.65 63.1 15.5 61.85" fill="url(#gradient0)" fill-rule="evenodd" stroke="none"/>
      <path d="M38.35 21.2 L29.15 23.7 26.4 23.95 Q23.25 23.25 21.3 18.8 19.2 13.9 22.4 9.65 25.15 6.0 29.7 4.8 33.3 3.9 36.25 5.9 38.75 7.55 40.25 10.85 41.5 13.55 40.55 17.25 39.7 20.6 38.35 21.2" fill="url(#gradient1)" fill-rule="evenodd" stroke="none"/>
      <path d="M35.95 20.8 L43.25 21.2 Q44.75 20.65 46.2 20.65 47.7 20.65 48.0 21.25 48.3 21.95 46.05 22.9 43.7 23.95 41.4 23.9 L36.5 23.2 33.4 22.3 Q32.6 21.95 35.95 20.8" fill="url(#gradient2)" fill-rule="evenodd" stroke="none"/>
      <path d="M21.55 22.25 L19.3 22.6 16.9 22.15 Q15.85 21.45 16.1 20.45 16.3 19.45 17.95 19.95 21.6 21.15 22.6 20.9 L23.55 21.05 23.85 21.35 21.55 22.25" fill="url(#gradient3)" fill-rule="evenodd" stroke="none"/>
      <path d="M31.75 19.8 Q36.0 17.9 37.85 16.0 39.4 14.45 41.2 13.8 43.3 13.05 44.95 13.8 46.95 14.75 47.4 16.45 47.85 18.35 45.7 19.55 41.7 21.8 35.35 22.4 L27.9 22.05 31.75 19.8" fill="url(#gradient4)" fill-rule="evenodd" stroke="none"/>
      <path d="M24.0 21.65 L19.3 21.05 Q16.65 20.35 15.15 17.65 13.45 14.7 17.75 13.95 18.45 13.85 19.25 14.65 L21.6 16.8 25.75 19.65 Q27.95 21.2 27.45 21.45 L24.0 21.65" fill="url(#gradient5)" fill-rule="evenodd" stroke="none"/>
      <path d="M34.15 11.05 Q36.4 11.4 36.75 13.3 37.15 15.1 34.75 18.05 32.75 20.55 31.8 20.95 L29.0 21.1 Q26.0 21.0 24.95 20.0 23.65 18.85 23.05 16.1 22.5 13.35 23.35 12.45 24.0 11.75 25.6 11.7 L29.45 11.35 34.15 11.05" fill="url(#gradient6)" fill-rule="evenodd" stroke="none"/>
      <path d="M48.2 24.65 Q53.7 29.75 55.3 41.4 57.05 54.15 51.1 60.65 45.25 67.05 30.55 67.5 16.7 67.95 7.0 63.2 4.75 62.1 2.7 57.4 0.6 52.45 0.15 46.7 -1.0 31.5 9.8 25.15 21.05 18.55 32.65 19.1 42.7 19.55 48.2 24.65" fill="#75ad89" fill-rule="evenodd" stroke="none"/>
      <path d="M20.4 20.6 Q14.5 24.4 12.4 28.6 10.6 32.3 9.7 36.8 8.75 41.7 9.1 46.4 9.5 51.45 13.0 58.05 16.55 64.75 19.75 66.15 L22.3 67.2 18.15 66.6 Q15.3 65.35 14.6 64.4 L12.2 60.8 Q10.3 57.7 9.1 55.2 7.8 52.5 7.3 48.15 6.8 44.2 7.1 40.15 7.35 36.45 9.1 31.9 10.85 27.45 12.75 25.3 14.45 23.45 17.8 21.45 L20.4 20.6" fill="#5a8779" fill-rule="evenodd" stroke="none"/>
      <path d="M7.4 33.75 Q8.8 28.85 10.4 26.9 11.9 25.15 15.25 22.4 16.95 21.7 17.8 21.45 14.45 23.45 12.75 25.3 10.85 27.45 9.1 31.9 7.35 36.45 7.1 40.15 6.8 44.2 7.3 48.15 7.8 52.5 9.1 55.2 10.3 57.7 12.2 60.8 L14.6 64.4 Q15.3 65.35 18.15 66.6 L16.95 66.4 Q14.0 64.95 11.5 62.5 9.4 60.45 8.25 58.35 7.0 56.1 6.25 51.45 5.5 46.8 5.75 42.7 6.0 38.55 7.4 33.75" fill="#a89a69" fill-rule="evenodd" stroke="none"/>
      <path d="M5.9 32.6 Q7.35 29.15 9.15 27.05 L12.1 23.9 15.25 22.4 Q11.9 25.15 10.4 26.9 8.8 28.85 7.4 33.75 6.0 38.55 5.75 42.7 5.5 46.8 6.25 51.45 7.0 56.1 8.25 58.35 9.4 60.45 11.5 62.5 14.0 64.95 16.95 66.4 L15.6 66.1 Q9.85 63.45 7.65 59.6 5.95 56.65 4.8 50.0 3.6 43.5 4.0 39.75 4.35 36.25 5.9 32.6" fill="#5a8779" fill-rule="evenodd" stroke="none"/>
      <path d="M8.35 26.1 L12.1 23.9 9.15 27.05 Q7.35 29.15 5.9 32.6 4.35 36.25 4.0 39.75 3.6 43.5 4.8 50.0 5.95 56.65 7.65 59.6 9.85 63.45 15.6 66.1 L12.25 65.2 Q8.35 63.0 6.85 61.45 5.5 60.1 3.9 55.5 2.6 51.55 2.0 48.2 0.95 42.15 2.35 35.35 3.1 31.55 8.35 26.1" fill="#b5cdc7" fill-rule="evenodd" stroke="none"/>
      <path d="M8.35 26.1 Q3.1 31.55 2.35 35.35 0.95 42.15 2.0 48.2 2.6 51.55 3.9 55.5 5.5 60.1 6.85 61.45 8.35 63.0 12.25 65.2 9.7 64.45 7.0 63.2 4.85 62.15 2.85 57.65 0.75 53.0 0.2 47.4 -1.2 32.85 8.35 26.1" fill="#75ad89" fill-rule="evenodd" stroke="none"/>
      <path d="M13.5 31.95 Q15.6 25.9 17.4 24.2 L20.4 21.9 23.8 19.8 26.25 19.4 22.75 21.6 Q20.75 23.0 19.65 24.0 17.85 25.75 15.75 31.95 13.3 39.25 13.55 45.05 13.8 51.0 15.45 55.4 16.75 58.85 19.4 62.45 L21.65 65.35 23.65 67.3 22.6 67.25 Q21.1 66.5 19.85 65.1 L17.15 61.75 Q14.5 58.2 13.2 54.9 11.55 50.6 11.3 44.75 11.05 39.1 13.5 31.95" fill="#3d5c53" fill-rule="evenodd" stroke="none"/>
      <path d="M26.25 19.4 L26.65 19.35 Q23.45 21.55 22.2 22.9 20.5 24.65 18.45 31.05 16.05 38.45 16.3 44.4 16.55 50.5 18.15 55.05 19.4 58.55 21.95 62.25 L24.25 65.4 Q25.3 66.75 26.4 67.5 L23.65 67.3 21.65 65.35 19.4 62.45 Q16.75 58.85 15.45 55.4 13.8 51.0 13.55 45.05 13.3 39.25 15.75 31.95 17.85 25.75 19.65 24.0 20.75 23.0 22.75 21.6 L26.25 19.4" fill="#5a8779" fill-rule="evenodd" stroke="none"/>
      <path d="M26.65 19.35 L27.6 19.25 Q25.0 21.5 23.9 22.9 22.55 24.65 20.9 31.05 19.0 38.45 19.15 44.4 19.35 50.5 20.65 55.05 21.65 58.55 23.7 62.25 L25.55 65.45 27.35 67.5 26.4 67.5 Q25.3 66.75 24.25 65.4 L21.95 62.25 Q19.4 58.55 18.15 55.05 16.55 50.5 16.3 44.4 16.05 38.45 18.45 31.05 20.5 24.65 22.2 22.9 23.45 21.55 26.65 19.35" fill="#a89a69" fill-rule="evenodd" stroke="none"/>
      <path d="M27.6 19.25 L28.05 19.2 Q26.2 21.2 25.25 22.9 24.2 24.65 22.95 31.05 21.5 38.45 21.65 44.4 21.85 50.55 22.8 55.05 23.55 58.6 25.1 62.25 L26.5 65.45 27.8 67.5 27.35 67.5 25.55 65.45 23.7 62.25 Q21.65 58.55 20.65 55.05 19.35 50.5 19.15 44.4 19.0 38.45 20.9 31.05 22.55 24.65 23.9 22.9 25.0 21.5 27.6 19.25" fill="#b5cdc7" fill-rule="evenodd" stroke="none"/>
      <path d="M25.25 22.9 Q26.2 21.2 28.05 19.2 L29.3 19.1 27.3 22.9 Q26.6 24.7 25.8 31.05 24.8 38.5 24.9 44.4 25.05 54.65 27.2 62.25 28.4 66.4 29.05 67.55 L27.8 67.5 26.5 65.45 25.1 62.25 Q23.55 58.6 22.8 55.05 21.85 50.55 21.65 44.4 21.5 38.45 22.95 31.05 24.2 24.65 25.25 22.9" fill="#75ad89" fill-rule="evenodd" stroke="none"/>
      <path d="M25.8 31.05 Q26.6 24.7 27.3 22.9 L29.3 19.1 30.1 19.1 29.4 20.7 28.0 25.65 Q26.9 30.35 26.9 33.35 L26.65 42.8 Q26.5 49.75 27.05 54.45 27.45 58.1 28.3 62.4 29.0 66.05 29.45 67.55 L29.05 67.55 Q28.4 66.4 27.2 62.25 25.05 54.65 24.9 44.4 24.8 38.5 25.8 31.05" fill="#3d5c53" fill-rule="evenodd" stroke="none"/>
      <path d="M26.9 33.35 Q26.9 30.35 28.0 25.65 L29.4 20.7 30.1 19.1 30.65 19.1 30.55 20.8 30.05 24.4 Q29.55 26.8 29.55 28.3 L28.95 39.1 28.3 50.0 Q28.3 51.8 28.8 56.8 L29.3 62.45 29.5 65.0 29.65 67.5 29.45 67.55 Q29.0 66.05 28.3 62.4 27.45 58.1 27.05 54.45 26.5 49.75 26.65 42.8 L26.9 33.35" fill="#a89a69" fill-rule="evenodd" stroke="none"/>
      <path d="M29.55 28.3 Q29.55 26.8 30.05 24.4 L30.55 20.8 30.65 19.1 31.25 19.05 31.6 23.4 31.9 29.6 Q32.1 32.85 31.8 52.35 L31.55 61.35 Q31.25 66.15 30.3 67.5 L29.65 67.5 29.5 65.0 29.3 62.45 28.8 56.8 Q28.3 51.8 28.3 50.0 L28.95 39.1 29.55 28.3" fill="#5a8779" fill-rule="evenodd" stroke="none"/>
      <path d="M31.9 29.6 L31.6 23.4 31.25 19.05 32.8 19.1 Q33.65 19.75 34.3 20.8 35.15 22.2 36.2 26.1 37.4 30.5 37.65 34.05 38.45 44.6 37.15 52.35 L36.1 59.35 Q35.3 63.0 33.4 65.05 L30.85 67.5 30.3 67.5 Q31.25 66.15 31.55 61.35 L31.8 52.35 Q32.1 32.85 31.9 29.6" fill="#75ad89" fill-rule="evenodd" stroke="none"/>
      <path d="M34.3 20.8 Q33.65 19.75 32.8 19.1 L34.5 19.25 36.05 20.8 Q37.05 22.2 38.25 26.1 39.65 30.5 39.95 34.05 40.85 44.6 39.35 52.35 L38.15 59.35 Q37.25 63.0 35.05 65.05 L32.15 67.45 30.85 67.5 33.4 65.05 Q35.3 63.0 36.1 59.35 L37.15 52.35 Q38.45 44.6 37.65 34.05 37.4 30.5 36.2 26.1 35.15 22.2 34.3 20.8" fill="#5a8779" fill-rule="evenodd" stroke="none"/>
      <path d="M36.05 20.8 L34.5 19.25 35.3 19.35 36.95 20.8 Q38.1 22.2 39.5 26.1 41.1 30.5 41.45 34.05 42.5 44.8 40.75 52.35 L39.35 59.35 Q38.3 63.0 35.8 65.05 L32.5 67.4 32.15 67.45 35.05 65.05 Q37.25 63.0 38.15 59.35 L39.35 52.35 Q40.85 44.6 39.95 34.05 39.65 30.5 38.25 26.1 37.05 22.2 36.05 20.8" fill="#3d5c53" fill-rule="evenodd" stroke="none"/>
      <path d="M36.95 20.8 L35.3 19.35 38.9 20.0 39.9 20.8 Q41.35 22.25 43.1 26.1 45.1 30.5 45.5 34.05 46.85 44.75 44.7 52.35 L42.9 59.35 Q41.6 63.0 38.4 65.05 L34.65 67.2 32.5 67.4 35.8 65.05 Q38.3 63.0 39.35 59.35 L40.75 52.35 Q42.5 44.8 41.45 34.05 41.1 30.5 39.5 26.1 38.1 22.2 36.95 20.8" fill="#a89a69" fill-rule="evenodd" stroke="none"/>
      <path d="M45.5 34.05 Q45.1 30.5 43.1 26.1 41.35 22.25 39.9 20.8 L38.9 20.0 39.65 20.2 40.4 20.8 Q41.95 22.2 43.9 26.1 46.05 30.45 46.55 34.05 48.0 44.7 45.65 52.35 L43.75 59.35 Q42.3 63.0 38.8 65.05 L34.75 67.2 34.65 67.2 38.4 65.05 Q41.6 63.0 42.9 59.35 L44.7 52.35 Q46.85 44.75 45.5 34.05" fill="#5a8779" fill-rule="evenodd" stroke="none"/>
      <path d="M46.55 34.05 Q46.05 30.45 43.9 26.1 41.95 22.2 40.4 20.8 L39.65 20.2 40.95 20.6 41.2 20.8 Q42.9 22.25 45.0 26.1 47.35 30.5 47.85 34.05 48.5 38.5 48.35 42.95 48.2 48.3 46.85 52.35 L44.75 59.35 Q43.25 63.0 39.45 65.05 36.7 66.5 35.15 67.15 L34.75 67.2 38.8 65.05 Q42.3 63.0 43.75 59.35 L45.65 52.35 Q48.0 44.7 46.55 34.05" fill="#b5cdc7" fill-rule="evenodd" stroke="none"/>
      <path d="M47.85 34.05 Q47.35 30.5 45.0 26.1 42.9 22.25 41.2 20.8 L40.95 20.6 43.7 21.7 Q45.75 23.8 47.65 27.15 49.8 30.95 50.3 34.05 51.05 38.6 50.9 42.95 50.75 48.35 49.2 52.35 48.25 54.8 46.8 59.35 45.05 63.0 40.75 65.05 L36.1 67.05 35.15 67.15 Q36.7 66.5 39.45 65.05 43.25 63.0 44.75 59.35 L46.85 52.35 Q48.2 48.3 48.35 42.95 48.5 38.5 47.85 34.05" fill="#75ad89" fill-rule="evenodd" stroke="none"/>
      <path d="M50.3 34.05 Q49.8 30.95 47.65 27.15 45.75 23.8 43.7 21.7 L47.1 23.75 Q49.0 26.05 50.45 28.65 52.1 31.6 52.55 34.05 53.55 39.45 53.65 43.25 53.85 49.1 52.15 52.95 L49.05 59.6 Q46.8 62.95 41.85 65.05 L37.15 66.9 36.1 67.05 40.75 65.05 Q45.05 63.0 46.8 59.35 48.25 54.8 49.2 52.35 50.75 48.35 50.9 42.95 51.05 38.6 50.3 34.05" fill="#5a8779" fill-rule="evenodd" stroke="none"/>
      <path d="M52.55 34.05 Q52.1 31.6 50.45 28.65 49.0 26.05 47.1 23.75 L48.2 24.65 Q53.7 29.75 55.3 41.4 57.05 54.15 51.1 60.65 46.85 65.35 37.15 66.9 L41.85 65.05 Q46.8 62.95 49.05 59.6 L52.15 52.95 Q53.85 49.1 53.65 43.25 53.55 39.45 52.55 34.05" fill="#3d5c53" fill-rule="evenodd" stroke="none"/>
      <path d="M37.7 20.9 L39.3 21.55 Q40.25 21.95 40.75 22.4 L41.6 23.65 42.4 24.85 43.2 25.15 44.1 26.0 44.8 27.05 45.25 26.8 45.9 27.9 46.35 29.1 47.65 33.15 Q48.0 33.2 48.0 34.15 L47.95 35.3 47.9 37.4 48.25 37.9 Q48.95 39.4 47.5 42.7 L48.45 42.45 Q49.0 43.1 48.15 44.45 L46.9 46.35 49.45 45.5 Q49.5 46.6 47.9 48.35 L46.1 49.9 Q44.85 50.85 44.4 51.55 46.35 50.75 47.95 50.4 L47.95 51.2 Q47.9 51.7 48.25 51.9 L47.45 53.6 46.3 55.15 45.35 56.05 44.3 56.8 Q40.15 59.75 36.1 60.5 L36.3 60.5 Q36.2 61.05 34.85 61.6 L32.95 62.15 30.7 62.25 28.4 62.15 26.05 62.3 23.65 62.55 21.25 62.45 21.9 62.15 18.65 62.3 15.45 62.15 14.2 62.05 12.95 61.9 11.25 61.3 10.4 60.95 10.1 61.15 Q9.1 61.15 7.0 60.35 L7.45 61.0 Q5.7 61.05 4.05 59.95 2.3 57.0 1.3 53.35 2.05 54.45 3.45 54.9 5.3 55.6 8.15 55.5 L9.35 55.55 Q9.35 56.05 8.3 56.05 L6.9 56.0 Q8.65 57.3 12.05 57.6 L13.5 57.6 14.9 57.7 10.95 57.8 Q15.75 59.25 20.75 59.35 L23.2 59.45 Q24.8 59.45 25.35 58.85 L24.65 58.8 29.35 58.05 34.05 57.1 35.65 56.1 37.15 55.1 29.4 55.35 29.85 55.15 32.75 54.3 31.9 54.35 33.25 53.8 35.05 53.2 36.8 52.3 33.65 52.3 Q34.05 51.95 35.2 51.75 L36.75 51.5 39.85 50.65 37.75 50.45 Q38.35 49.8 40.15 49.25 41.95 48.65 42.55 48.0 43.55 46.9 42.1 46.8 L42.95 45.3 43.95 43.8 Q44.6 42.35 44.45 40.95 L44.45 40.0 44.6 38.55 44.25 37.7 43.9 36.85 43.8 35.2 43.55 33.5 42.95 33.45 42.8 30.95 Q42.45 29.1 41.4 27.4 L39.85 24.9 Q38.85 23.6 36.6 22.75 L30.65 20.35 27.3 19.25 32.55 19.1 Q34.6 19.45 37.7 20.9" fill="url(#gradient7)" fill-rule="evenodd" stroke="none"/>
      <path d="M1.05 52.45 L1.05 52.3 2.1 52.7 1.05 52.45" fill="url(#gradient8)" fill-rule="evenodd" stroke="none"/>
      <path d="M40.75 22.4 Q40.25 21.95 39.3 21.55 L37.7 20.9 Q34.6 19.45 32.55 19.1 37.5 19.3 41.7 20.85 45.7 22.3 48.2 24.65 51.8 27.95 54.05 35.55 L54.1 36.7 54.05 43.75 Q53.6 48.4 49.4 53.65 L48.1 55.7 46.85 57.85 Q46.05 58.95 44.0 59.95 40.15 61.75 37.85 62.15 L36.95 62.3 36.25 62.6 34.9 63.65 32.75 64.0 27.7 64.15 Q24.85 64.4 22.9 65.5 L21.45 65.85 14.65 65.85 Q9.95 64.7 7.0 63.2 5.5 62.4 4.05 59.95 5.7 61.05 7.45 61.0 L7.0 60.35 Q9.1 61.15 10.1 61.15 L10.4 60.95 11.25 61.3 12.95 61.9 14.2 62.05 15.45 62.15 18.65 62.3 21.9 62.15 21.25 62.45 23.65 62.55 26.05 62.3 28.4 62.15 30.7 62.25 32.95 62.15 34.85 61.6 Q36.2 61.05 36.3 60.5 L36.1 60.5 Q40.15 59.75 44.3 56.8 L45.35 56.05 46.3 55.15 47.45 53.6 48.25 51.9 Q47.9 51.7 47.95 51.2 L47.95 50.4 Q46.35 50.75 44.4 51.55 44.85 50.85 46.1 49.9 L47.9 48.35 Q49.5 46.6 49.45 45.5 L46.9 46.35 48.15 44.45 Q49.0 43.1 48.45 42.45 L47.5 42.7 Q48.95 39.4 48.25 37.9 L47.9 37.4 47.95 35.3 48.0 34.15 Q48.0 33.2 47.65 33.15 L46.35 29.1 45.9 27.9 45.25 26.8 44.8 27.05 44.1 26.0 43.2 25.15 42.4 24.85 41.6 23.65 40.75 22.4" fill="url(#gradient9)" fill-rule="evenodd" stroke="none"/>
      <path d="M40.75 22.4 Q40.25 21.95 39.3 21.55 L37.7 20.9 Q34.6 19.45 32.55 19.1 37.5 19.3 41.7 20.85 45.7 22.3 48.2 24.65 51.8 27.95 54.05 35.55 L54.1 36.7 54.05 43.75 Q53.6 48.4 49.4 53.65 L48.1 55.7 46.85 57.85 Q46.05 58.95 44.0 59.95 40.15 61.75 37.85 62.15 L36.95 62.3 36.25 62.6 34.9 63.65 32.75 64.0 27.7 64.15 Q24.85 64.4 22.9 65.5 L21.45 65.85 14.65 65.85 Q9.95 64.7 7.0 63.2 5.5 62.4 4.05 59.95 5.7 61.05 7.45 61.0 L7.0 60.35 Q9.1 61.15 10.1 61.15 L10.4 60.95 11.25 61.3 12.95 61.9 14.2 62.05 15.45 62.15 18.65 62.3 21.9 62.15 21.25 62.45 23.65 62.55 26.05 62.3 28.4 62.15 30.7 62.25 32.95 62.15 34.85 61.6 Q36.2 61.05 36.3 60.5 L36.1 60.5 Q40.15 59.75 44.3 56.8 L45.35 56.05 46.3 55.15 47.45 53.6 48.25 51.9 Q47.9 51.7 47.95 51.2 L47.95 50.4 Q46.35 50.75 44.4 51.55 44.85 50.85 46.1 49.9 L47.9 48.35 Q49.5 46.6 49.45 45.5 L46.9 46.35 48.15 44.45 Q49.0 43.1 48.45 42.45 L47.5 42.7 Q48.95 39.4 48.25 37.9 L47.9 37.4 47.95 35.3 48.0 34.15 Q48.0 33.2 47.65 33.15 L46.35 29.1 45.9 27.9 45.25 26.8 44.8 27.05 44.1 26.0 43.2 25.15 42.4 24.85 41.6 23.65 40.75 22.4" fill="url(#gradient10)" fill-rule="evenodd" stroke="none"/>
      <path d="M14.65 65.85 L21.45 65.85 22.9 65.5 Q24.85 64.4 27.7 64.15 L32.75 64.0 34.9 63.65 36.25 62.6 36.95 62.3 37.85 62.15 Q40.15 61.75 44.0 59.95 46.05 58.95 46.85 57.85 L48.1 55.7 49.4 53.65 Q53.6 48.4 54.05 43.75 L54.1 36.7 54.05 35.55 Q56.05 42.55 55.55 49.0 54.95 56.45 51.1 60.65 46.3 65.85 35.1 67.15 24.8 68.4 14.65 65.85" fill="url(#gradient11)" fill-rule="evenodd" stroke="none"/>
      <path d="M14.65 65.85 L21.45 65.85 22.9 65.5 Q24.85 64.4 27.7 64.15 L32.75 64.0 34.9 63.65 36.25 62.6 36.95 62.3 37.85 62.15 Q40.15 61.75 44.0 59.95 46.05 58.95 46.85 57.85 L48.1 55.7 49.4 53.65 Q53.6 48.4 54.05 43.75 L54.1 36.7 54.05 35.55 Q56.05 42.55 55.55 49.0 54.95 56.45 51.1 60.65 46.3 65.85 35.1 67.15 24.8 68.4 14.65 65.85" fill="url(#gradient12)" fill-rule="evenodd" stroke="none"/>
      <path d="M14.65 65.85 L21.45 65.85 22.9 65.5 Q24.85 64.4 27.7 64.15 L32.75 64.0 34.9 63.65 36.25 62.6 36.95 62.3 37.85 62.15 Q40.15 61.75 44.0 59.95 46.05 58.95 46.85 57.85 L48.1 55.7 49.4 53.65 Q53.6 48.4 54.05 43.75 L54.1 36.7 54.05 35.55 Q56.05 42.55 55.55 49.0 54.95 56.45 51.1 60.65 46.3 65.85 35.1 67.15 24.8 68.4 14.65 65.85" fill="url(#gradient13)" fill-rule="evenodd" stroke="none"/>
      <path d="M24.6 24.55 L27.35 24.5 28.5 24.45 30.15 24.6 29.65 24.65 Q32.05 25.35 35.1 26.7 L32.85 26.45 Q35.0 27.15 34.95 27.95 L33.05 27.35 33.75 28.0 30.0 27.5 30.6 27.35 24.9 27.05 22.15 27.45 19.5 28.2 13.85 29.8 12.45 30.15 12.55 30.05 7.65 31.75 3.9 33.5 Q3.75 33.2 4.2 32.5 L3.4 33.0 Q3.35 32.6 4.4 31.75 L5.7 30.8 7.3 29.6 Q5.35 30.6 4.8 30.15 7.45 27.35 10.0 26.45 L7.6 26.7 9.85 25.95 11.9 25.0 16.25 22.5 18.1 21.95 20.0 21.5 21.55 21.5 20.4 21.75 Q19.45 22.1 19.3 22.65 20.25 22.15 21.7 22.0 L24.25 21.85 Q21.85 22.2 21.15 22.95 L28.35 23.15 25.05 23.5 Q23.1 23.8 21.85 24.5 L24.6 24.55" fill="url(#gradient14)" fill-rule="evenodd" stroke="none"/>
      <path d="M19.75 53.85 L16.85 53.7 24.0 52.65 26.5 52.1 26.6 52.05 28.9 51.5 27.5 51.6 28.45 50.7 Q23.65 52.05 15.9 51.8 14.2 51.75 11.55 50.95 L8.95 49.9 Q7.3 49.25 6.3 49.15 L14.65 49.7 22.8 49.8 23.55 49.85 24.25 50.0 24.6 49.3 31.45 48.45 Q35.6 47.95 38.25 47.15 37.1 49.05 33.35 49.7 L30.3 50.1 30.1 50.15 30.3 50.2 30.25 50.3 31.25 50.4 31.1 51.1 30.9 51.8 32.4 52.2 Q31.8 53.3 30.15 53.65 L27.35 53.8 19.75 53.85" fill="url(#gradient15)" fill-rule="evenodd" stroke="none"/>
      <path d="M12.4 53.65 Q11.35 53.55 10.15 52.9 8.65 52.1 8.6 51.2 10.9 51.95 13.85 52.3 L17.25 52.5 27.5 51.6 26.6 52.05 24.0 52.65 20.65 52.7 17.3 52.95 17.4 53.1 16.25 53.35 Q16.4 53.6 16.85 53.7 14.5 53.85 12.4 53.65" fill="url(#gradient16)" fill-rule="evenodd" stroke="none"/>
      <path d="M28.9 51.5 L26.6 52.05 27.5 51.6 28.9 51.5" fill="url(#gradient17)" fill-rule="evenodd" stroke="none"/>
      <path d="M28.9 51.5 L26.6 52.05 27.5 51.6 28.9 51.5" fill="url(#gradient18)" fill-rule="evenodd" stroke="none"/>
      <path d="M17.3 52.95 L20.65 52.7 24.0 52.65 16.85 53.7 Q16.4 53.6 16.25 53.35 L17.4 53.1 17.3 52.95" fill="url(#gradient19)" fill-rule="evenodd" stroke="none"/>
      <path d="M17.3 52.95 L20.65 52.7 24.0 52.65 16.85 53.7 Q16.4 53.6 16.25 53.35 L17.4 53.1 17.3 52.95" fill="url(#gradient20)" fill-rule="evenodd" stroke="none"/>
      <path d="M17.05 55.65 L15.6 55.25 Q14.65 54.95 14.4 54.5 L17.05 54.7 19.75 54.85 22.25 54.65 31.9 54.35 29.85 55.15 Q22.75 56.95 17.05 55.65" fill="url(#gradient21)" fill-rule="evenodd" stroke="none"/>
      <path d="M31.9 54.35 L32.75 54.3 29.85 55.15 31.9 54.35" fill="url(#gradient22)" fill-rule="evenodd" stroke="none"/>
      <path d="M31.9 54.35 L32.75 54.3 29.85 55.15 31.9 54.35" fill="url(#gradient23)" fill-rule="evenodd" stroke="none"/>
      <path d="M30.3 50.2 L30.3 50.1 33.35 49.7 34.4 49.65 40.75 47.15 38.65 49.1 Q37.5 49.95 36.05 50.2 L33.55 50.35 31.25 50.4 31.25 50.35 30.3 50.2" fill="url(#gradient24)" fill-rule="evenodd" stroke="none"/>
      <path d="M30.3 50.2 L31.25 50.35 31.25 50.4 30.25 50.3 30.3 50.2" fill="url(#gradient25)" fill-rule="evenodd" stroke="none"/>
      <path d="M30.3 50.2 L31.25 50.35 31.25 50.4 30.25 50.3 30.3 50.2" fill="url(#gradient26)" fill-rule="evenodd" stroke="none"/>
      <path d="M30.15 29.05 Q34.85 28.8 38.45 30.8 42.25 32.95 42.2 38.65 42.2 43.7 40.25 45.5 39.05 46.6 31.35 47.3 L20.95 48.15 Q10.35 50.0 5.75 47.8 3.05 46.5 2.9 43.55 2.85 42.2 3.75 38.15 4.45 35.25 8.25 33.1 12.55 30.6 19.25 30.15 L30.15 29.05" fill="url(#gradient27)" fill-rule="evenodd" stroke="none"/>
      <path d="M5.75 47.8 Q5.05 47.55 4.45 47.0 L4.2 46.15 5.2 47.05 6.4 48.1 5.75 47.8" fill="#b0aa7c" fill-rule="evenodd" stroke="none"/>
      <path d="M41.8 35.4 Q40.1 33.05 38.05 32.3 L34.4 31.75 27.35 32.3 19.15 33.25 Q13.6 33.6 8.15 36.75 6.0 38.0 5.2 39.4 4.5 40.55 3.9 43.5 L3.85 43.95 Q3.8 42.5 4.15 40.5 4.7 37.95 5.6 36.65 6.4 35.45 8.15 34.5 10.8 33.0 11.6 32.7 13.8 31.75 16.9 31.25 L25.75 30.2 32.9 29.75 Q35.85 29.75 40.3 32.4 41.3 33.65 41.8 35.4" fill="#8f8965" fill-rule="evenodd" stroke="none"/>
      <path d="M30.15 29.05 Q34.85 28.8 38.45 30.8 L40.3 32.4 Q35.85 29.75 32.9 29.75 L25.75 30.2 16.9 31.25 Q13.8 31.75 11.6 32.7 10.8 33.0 8.15 34.5 6.4 35.45 5.6 36.65 4.7 37.95 4.15 40.5 3.8 42.5 3.85 43.95 3.95 45.15 4.2 46.15 L4.45 47.0 Q2.8 45.55 2.9 42.9 2.9 41.8 3.75 38.15 4.45 35.25 8.25 33.1 12.55 30.6 19.25 30.15 L30.15 29.05" fill="#3c5547" fill-rule="evenodd" stroke="none"/>
      <path d="M20.2 31.5 Q20.7 31.6 20.6 32.1 L20.45 33.05 Q20.35 33.45 19.95 33.45 L19.85 33.45 Q19.35 33.35 19.45 32.85 L19.65 31.9 Q19.75 31.4 20.2 31.5" fill="#7e7959" fill-rule="evenodd" stroke="none"/>
      <path d="M19.0 35.75 L19.15 34.8 Q19.15 34.25 19.7 34.35 20.2 34.45 20.1 34.95 L20.0 35.85 19.5 36.3 19.45 36.3 Q18.9 36.2 19.0 35.75" fill="#7e7959" fill-rule="evenodd" stroke="none"/>
      <path d="M19.25 39.2 Q18.75 39.2 18.75 38.65 L18.8 37.7 Q18.9 37.15 19.35 37.25 L19.7 37.4 19.8 37.75 19.75 38.7 Q19.75 39.2 19.25 39.2" fill="#7e7959" fill-rule="evenodd" stroke="none"/>
      <path d="M20.05 47.8 Q19.65 47.8 19.55 47.4 L19.35 46.45 Q19.35 45.95 19.8 45.85 20.25 45.75 20.35 46.3 L20.55 47.2 Q20.65 47.7 20.1 47.8 L20.05 47.8" fill="#7e7959" fill-rule="evenodd" stroke="none"/>
      <path d="M20.4 30.6 Q20.05 30.5 20.05 30.1 L21.1 30.0 21.0 30.25 20.55 30.65 20.4 30.6" fill="#7e7959" fill-rule="evenodd" stroke="none"/>
      <path d="M19.6 44.95 Q19.1 44.95 19.1 44.5 L19.0 43.55 Q18.9 43.1 19.45 43.0 19.95 43.0 20.0 43.45 L20.1 44.4 Q20.1 44.9 19.65 44.95 L19.6 44.95" fill="#7e7959" fill-rule="evenodd" stroke="none"/>
      <path d="M19.35 42.1 L19.3 42.1 Q18.9 42.1 18.8 41.6 L18.75 40.65 Q18.75 40.2 19.25 40.1 19.75 40.1 19.75 40.6 L19.8 41.55 Q19.9 42.0 19.35 42.1" fill="#7e7959" fill-rule="evenodd" stroke="none"/>
      <path d="M29.35 28.0 L28.45 28.05 28.4 28.05 Q27.95 28.05 27.85 27.55 27.85 27.0 28.3 27.0 L29.35 26.95 29.7 27.05 29.85 27.45 Q29.85 27.9 29.35 28.0 M31.4 26.9 L32.4 26.95 Q32.9 26.95 32.9 27.45 32.9 27.95 32.4 27.95 L31.35 27.95 Q30.85 27.95 30.85 27.45 30.85 26.9 31.35 26.9 L31.4 26.9 M26.3 27.05 Q26.75 27.05 26.85 27.55 26.85 28.1 26.3 28.1 L25.3 28.1 Q24.8 28.1 24.8 27.6 24.8 27.05 25.3 27.05 L26.3 27.05 M41.75 29.25 L41.3 29.55 41.1 29.5 40.2 29.1 Q39.75 28.9 39.9 28.45 40.1 28.0 40.55 28.15 L41.5 28.55 Q42.0 28.85 41.75 29.25 M34.35 28.05 Q33.9 28.05 33.9 27.5 33.9 27.0 34.45 27.0 L35.45 27.1 Q35.95 27.2 35.95 27.65 35.85 28.15 35.4 28.15 L35.35 28.15 34.35 28.05 M38.4 28.6 L38.3 28.6 37.35 28.4 Q36.9 28.35 36.9 27.8 37.0 27.3 37.5 27.4 L38.55 27.6 Q39.05 27.7 38.9 28.2 38.8 28.6 38.4 28.6 M43.95 32.6 L44.25 32.35 Q44.7 32.15 44.9 32.7 L45.15 33.75 Q45.25 34.25 44.75 34.35 L44.65 34.35 Q44.15 34.35 44.15 33.95 L43.9 32.95 Q43.85 32.75 43.95 32.6 M43.6 31.45 L43.2 31.2 42.65 30.5 Q42.3 30.15 42.6 29.8 L43.35 29.75 44.05 30.7 Q44.35 31.1 43.9 31.4 L43.6 31.45 M45.4 35.8 L45.5 36.85 Q45.5 37.4 45.0 37.4 44.55 37.4 44.45 36.9 L44.4 35.9 Q44.4 35.35 44.85 35.35 L45.25 35.45 45.4 35.8 M12.8 28.9 Q12.6 28.45 13.1 28.2 13.6 28.05 14.05 27.85 14.5 27.7 14.7 28.15 14.85 28.6 14.4 28.8 L13.5 29.15 13.3 29.2 Q12.95 29.2 12.8 28.9 M11.9 29.3 Q12.1 29.8 11.65 30.0 L10.75 30.45 10.5 30.5 10.05 30.2 Q9.85 29.75 10.3 29.5 L11.2 29.05 Q11.7 28.85 11.9 29.3 M7.85 32.0 L7.45 31.75 Q7.2 31.3 7.6 31.05 L8.45 30.5 8.85 30.45 Q9.1 30.45 9.15 30.65 9.4 31.1 9.0 31.4 L8.15 31.9 7.85 32.0 M6.75 32.7 L6.55 33.05 5.85 33.75 5.5 33.9 5.1 33.75 Q4.8 33.35 5.15 33.0 L5.9 32.3 6.6 32.35 6.75 32.7 M4.6 35.25 L4.15 36.05 3.7 36.35 3.45 36.3 Q3.0 36.05 3.25 35.6 L3.8 34.65 Q4.05 34.25 4.5 34.5 4.95 34.85 4.6 35.25 M19.25 28.15 Q18.8 28.15 18.7 27.65 18.7 27.15 19.2 27.15 L20.25 27.1 Q20.75 27.1 20.75 27.6 20.75 28.15 20.25 28.15 L19.25 28.15 M22.25 28.1 Q21.75 28.1 21.75 27.6 21.75 27.1 22.25 27.1 L23.3 27.1 Q23.8 27.1 23.8 27.6 23.8 28.1 23.3 28.1 L22.25 28.1 M15.7 27.95 L15.8 27.6 Q15.95 27.4 16.15 27.4 L17.15 27.25 Q17.7 27.25 17.7 27.75 17.8 28.2 17.25 28.3 L16.25 28.4 16.2 28.4 Q15.8 28.4 15.7 27.95 M13.5 51.0 Q14.05 51.0 14.05 51.5 14.05 52.05 13.55 52.05 L12.55 52.1 Q12.1 52.1 12.0 51.6 12.0 51.1 12.5 51.1 L13.5 51.0 M10.5 51.15 Q11.0 51.15 11.0 51.65 11.0 52.15 10.5 52.15 L10.15 52.2 9.5 52.15 Q9.0 52.15 9.0 51.65 9.0 51.15 9.5 51.15 L10.5 51.15 M7.55 51.0 Q8.1 51.1 8.0 51.6 L7.5 52.0 7.4 52.0 6.35 51.75 Q5.8 51.55 6.0 51.1 6.15 50.6 6.65 50.75 L6.7 50.8 7.55 51.0 M4.35 50.7 L3.55 49.95 Q3.2 49.6 3.6 49.2 L4.3 49.25 5.0 49.85 Q5.35 50.2 5.1 50.6 L4.7 50.8 4.35 50.7 M22.6 50.35 Q23.15 50.35 23.15 50.85 23.15 51.35 22.65 51.35 L21.65 51.4 21.6 51.4 Q21.1 51.4 21.1 50.9 21.1 50.4 21.6 50.4 L22.6 50.35 M20.1 51.0 L20.0 51.4 19.65 51.55 18.65 51.65 18.6 51.65 Q18.1 51.65 18.1 51.2 18.0 50.7 18.55 50.6 L19.55 50.5 Q20.1 50.5 20.1 51.0 M17.1 51.25 Q17.1 51.8 16.6 51.8 L15.6 51.9 15.55 51.9 Q15.15 51.9 15.05 51.45 15.05 50.9 15.5 50.9 L16.55 50.8 Q17.0 50.7 17.1 51.25 M3.1 37.25 Q3.6 37.35 3.5 37.85 L3.3 38.85 Q3.2 39.25 2.8 39.25 L2.7 39.25 Q2.2 39.15 2.3 38.65 L2.5 37.65 Q2.6 37.15 3.1 37.25 M2.85 41.85 Q2.85 42.3 2.35 42.3 L2.3 42.3 Q1.75 42.3 1.85 41.75 L2.0 40.7 Q2.0 40.25 2.55 40.25 3.1 40.35 3.0 40.85 L2.85 41.85 M2.25 43.35 Q2.75 43.35 2.75 43.85 L2.75 44.85 Q2.75 45.3 2.3 45.4 L2.25 45.4 Q1.75 45.4 1.75 44.9 L1.7 43.85 Q1.7 43.25 2.25 43.35 M3.35 47.65 Q3.5 48.15 3.05 48.35 L2.85 48.4 2.4 48.05 2.05 47.0 Q1.95 46.5 2.4 46.4 2.85 46.25 3.05 46.75 L3.35 47.65 M45.05 38.4 Q45.55 38.4 45.55 38.95 L45.5 40.0 Q45.5 40.45 45.0 40.45 L44.95 40.45 44.6 40.3 44.5 39.95 44.5 38.9 Q44.5 38.4 45.05 38.4 M44.9 41.5 Q45.35 41.5 45.35 42.05 L45.2 43.1 44.7 43.55 44.65 43.55 Q44.1 43.45 44.2 42.95 L44.35 41.95 Q44.35 41.4 44.9 41.5 M44.55 46.2 L44.05 46.55 43.9 46.5 Q43.45 46.3 43.6 45.85 L43.85 44.9 44.1 44.6 44.45 44.55 Q44.95 44.65 44.85 45.15 L44.55 46.2 M43.55 48.15 L42.75 48.95 42.45 49.05 42.05 48.9 Q41.75 48.5 42.1 48.15 L42.75 47.5 Q43.05 47.1 43.45 47.4 43.8 47.75 43.55 48.15 M33.75 50.4 L34.75 50.35 Q35.2 50.35 35.3 50.85 35.3 51.3 34.8 51.4 L33.75 51.4 Q33.25 51.4 33.25 50.9 33.25 50.4 33.75 50.4 M32.25 50.95 Q32.25 51.45 31.75 51.45 L30.7 51.45 Q30.2 51.45 30.2 50.9 L30.35 50.55 Q30.55 50.35 30.75 50.4 L31.75 50.4 Q32.25 50.4 32.25 50.95 M28.7 50.35 Q29.2 50.45 29.2 50.9 29.2 51.4 28.7 51.4 L27.7 51.4 Q27.1 51.4 27.2 50.85 27.2 50.35 27.7 50.35 L28.7 50.35 M26.15 50.85 Q26.15 51.35 25.65 51.35 L24.65 51.35 Q24.15 51.35 24.15 50.85 24.15 50.3 24.65 50.3 L25.65 50.3 Q26.15 50.4 26.15 50.85 M39.7 50.4 L39.25 50.05 Q39.05 49.5 39.55 49.4 L40.5 49.05 Q40.95 48.85 41.15 49.35 41.3 49.85 40.85 50.05 L39.7 50.4 M36.85 51.15 L36.8 51.2 Q36.3 51.2 36.3 50.75 36.2 50.25 36.7 50.15 L37.65 49.95 38.05 50.0 38.25 50.3 Q38.45 50.75 37.9 50.95 L36.85 51.15" fill="#3d5c53" fill-rule="evenodd" stroke="none"/>
      <path d="M30.85 26.9 L31.85 26.95 Q32.35 26.95 32.35 27.45 L31.85 27.95 31.8 27.95 30.85 27.9 Q30.35 27.9 30.35 27.4 30.35 26.9 30.85 26.9 M29.35 27.45 Q29.35 27.95 28.85 27.95 L27.95 28.0 27.9 28.0 Q27.4 28.0 27.4 27.5 27.3 27.0 27.8 27.0 L28.85 26.95 29.2 27.05 29.35 27.45 M33.85 27.0 L34.85 27.1 Q35.3 27.2 35.3 27.65 L34.8 28.1 34.75 28.1 33.8 28.0 Q33.3 28.0 33.3 27.5 33.4 27.0 33.85 27.0 M24.85 28.05 Q24.45 28.05 24.35 27.55 24.35 27.05 24.85 27.05 L25.85 27.05 Q26.35 27.05 26.35 27.55 L25.9 28.05 24.85 28.05 M40.55 29.45 L40.35 29.4 39.5 29.05 Q39.0 28.85 39.2 28.4 39.4 27.95 39.8 28.1 L40.8 28.5 Q41.25 28.7 41.05 29.15 L40.55 29.45 M36.5 27.45 L36.85 27.35 37.85 27.55 Q38.35 27.65 38.25 28.15 L37.75 28.55 37.65 28.55 36.7 28.35 Q36.2 28.25 36.3 27.75 L36.5 27.45 M44.1 32.5 L44.3 33.5 Q44.45 34.0 43.95 34.1 L43.85 34.1 Q43.45 34.1 43.35 33.7 L43.1 32.8 Q43.0 32.3 43.45 32.15 43.95 32.05 44.1 32.5 M43.25 30.55 Q43.5 31.0 43.1 31.25 L42.85 31.3 Q42.55 31.3 42.4 31.1 L41.9 30.4 Q41.55 30.05 41.85 29.7 42.2 29.35 42.55 29.7 L43.25 30.55 M44.05 35.1 Q44.6 35.0 44.6 35.55 L44.7 36.55 Q44.7 37.05 44.2 37.05 43.7 37.05 43.7 36.6 L43.6 35.6 Q43.6 35.1 44.05 35.1 M13.3 29.1 L13.1 29.15 12.6 28.85 Q12.4 28.4 12.9 28.2 L13.2 28.05 13.85 27.8 Q14.3 27.6 14.5 28.1 14.6 28.6 14.15 28.75 L13.6 28.95 13.3 29.1 M11.7 29.25 Q11.95 29.7 11.45 29.9 L10.6 30.3 10.35 30.35 Q10.05 30.35 9.9 30.1 9.7 29.65 10.15 29.4 L11.05 29.0 Q11.55 28.8 11.7 29.25 M8.35 30.35 Q8.8 30.15 9.05 30.55 9.3 31.0 8.85 31.25 L8.05 31.75 7.75 31.8 Q7.5 31.8 7.35 31.6 7.1 31.15 7.5 30.9 L8.35 30.35 M4.1 35.8 L3.65 36.05 3.45 36.0 Q3.0 35.75 3.2 35.3 L3.75 34.4 Q4.05 34.0 4.45 34.3 4.9 34.55 4.6 34.95 L4.1 35.8 M5.45 33.65 Q5.2 33.65 5.1 33.5 4.75 33.15 5.1 32.8 L5.85 32.1 6.55 32.15 Q6.8 32.6 6.5 32.9 L5.8 33.5 5.45 33.65 M18.9 28.15 Q18.4 28.15 18.4 27.65 18.4 27.15 18.9 27.15 L19.9 27.1 Q20.4 27.1 20.4 27.6 20.4 28.1 19.9 28.1 L18.95 28.15 18.9 28.15 M21.9 28.05 Q21.4 28.05 21.4 27.6 21.4 27.05 21.9 27.05 L22.9 27.05 Q23.4 27.05 23.4 27.55 23.4 28.05 22.9 28.05 L21.9 28.05 M15.45 27.95 Q15.35 27.45 15.9 27.35 L16.9 27.25 Q17.35 27.15 17.45 27.7 L17.0 28.25 16.0 28.35 15.95 28.35 Q15.55 28.35 15.45 27.95 M11.85 50.85 Q11.85 50.4 12.3 50.3 L13.3 50.25 Q13.75 50.25 13.85 50.75 13.85 51.25 13.35 51.25 L12.35 51.3 Q11.85 51.3 11.85 50.85 M10.35 50.4 Q10.85 50.4 10.85 50.85 L10.35 51.4 9.35 51.35 Q8.85 51.35 8.85 50.85 8.85 50.35 9.4 50.35 L10.35 50.4 M7.9 50.8 Q7.8 51.2 7.4 51.2 L7.3 51.2 6.25 50.95 Q5.75 50.75 5.95 50.3 6.15 49.85 6.55 50.0 L6.6 50.05 7.45 50.25 7.8 50.45 7.9 50.8 M4.35 49.95 L3.55 49.2 Q3.2 48.85 3.55 48.5 L4.3 48.55 4.95 49.15 Q5.35 49.45 5.05 49.85 4.9 50.05 4.65 50.05 L4.35 49.95 M22.75 50.1 Q22.75 50.6 22.25 50.6 L21.3 50.65 21.25 50.65 Q20.75 50.65 20.75 50.15 20.75 49.65 21.25 49.65 L22.25 49.6 Q22.75 49.7 22.75 50.1 M19.75 50.25 Q19.85 50.7 19.3 50.8 L18.35 50.85 18.3 50.85 Q17.8 50.85 17.8 50.4 17.7 49.95 18.25 49.85 L19.25 49.8 Q19.75 49.7 19.75 50.25 M15.3 51.1 L14.8 50.65 Q14.8 50.2 15.3 50.1 L16.25 50.05 Q16.8 49.95 16.8 50.5 16.9 50.95 16.35 51.05 L15.35 51.1 15.3 51.1 M3.1 36.9 Q3.6 37.05 3.5 37.5 L3.4 37.85 3.3 38.45 2.8 38.9 2.7 38.9 Q2.2 38.8 2.3 38.3 L2.5 37.3 Q2.6 36.8 3.1 36.9 M2.35 41.85 L2.3 41.85 Q1.85 41.75 1.85 41.3 L2.0 40.25 Q2.1 39.8 2.55 39.85 3.0 39.95 3.0 40.4 L2.85 41.4 Q2.85 41.85 2.35 41.85 M1.75 43.3 Q1.75 42.8 2.25 42.8 2.75 42.8 2.75 43.3 L2.75 44.3 Q2.75 44.8 2.3 44.8 L2.25 44.8 Q1.75 44.8 1.75 44.35 L1.75 43.3 M2.85 47.7 L2.4 47.4 2.05 46.4 Q1.95 45.9 2.4 45.8 2.9 45.65 3.05 46.15 L3.3 47.0 Q3.55 47.45 3.05 47.65 L2.85 47.7 M44.4 42.6 Q44.4 43.0 43.9 43.0 L43.85 43.0 Q43.4 42.9 43.4 42.45 L43.55 41.45 Q43.55 40.95 44.1 41.05 44.55 41.05 44.55 41.6 L44.4 42.6 M44.2 40.05 L44.15 40.05 43.8 39.9 43.7 39.5 43.7 38.55 Q43.7 38.05 44.25 38.05 44.7 38.05 44.7 38.55 L44.7 39.55 44.2 40.05 M43.7 44.0 Q44.15 44.1 44.05 44.6 L43.75 45.6 43.3 45.9 43.15 45.9 Q42.7 45.75 42.8 45.25 L43.1 44.35 Q43.2 43.85 43.7 44.0 M41.35 47.5 L42.0 46.85 42.7 46.8 Q43.1 47.1 42.75 47.5 L42.0 48.25 41.7 48.4 41.3 48.2 41.2 47.85 Q41.2 47.6 41.35 47.5 M32.65 50.15 Q32.65 49.65 33.15 49.65 L34.15 49.6 Q34.65 49.6 34.65 50.1 L34.55 50.45 34.2 50.6 33.2 50.65 33.15 50.65 Q32.75 50.65 32.65 50.15 M30.2 50.65 Q29.7 50.65 29.7 50.15 29.7 49.55 30.2 49.65 L31.2 49.65 Q31.7 49.65 31.7 50.15 31.7 50.65 31.2 50.65 L30.2 50.65 M28.2 50.65 L27.2 50.6 Q26.7 50.6 26.7 50.1 26.7 49.6 27.2 49.6 L28.2 49.65 Q28.7 49.65 28.7 50.15 28.7 50.65 28.2 50.65 M24.25 50.6 Q23.75 50.6 23.75 50.1 23.75 49.6 24.25 49.6 L25.25 49.6 Q25.75 49.6 25.75 50.1 L25.25 50.6 24.25 50.6 M40.4 48.65 Q40.6 49.15 40.15 49.3 L39.15 49.65 39.0 49.65 38.55 49.3 Q38.35 48.85 38.85 48.65 L39.8 48.35 Q40.2 48.2 40.4 48.65 M36.95 49.2 Q37.45 49.1 37.6 49.55 37.7 50.05 37.25 50.15 L36.2 50.4 36.15 50.4 Q35.75 50.4 35.65 50.0 35.55 49.5 36.05 49.4 L36.8 49.25 36.95 49.2" fill="#f3efc2" fill-rule="evenodd" stroke="none"/>
      <path d="M27.7 38.2 L35.8 37.2 Q36.6 38.5 36.6 39.65 36.6 41.1 36.2 42.0 35.6 43.3 33.9 44.3 32.0 45.45 30.0 44.6 27.9 43.75 27.4 41.5 27.1 39.8 27.7 38.2" fill="#413f2e" fill-rule="evenodd" stroke="none"/>
      <path d="M13.75 40.0 L14.15 41.55 Q14.45 43.3 13.95 44.15 L12.95 45.7 9.25 46.15 Q6.45 46.05 6.05 43.1 L6.25 40.15 7.1 40.0 13.75 40.0" fill="#413f2e" fill-rule="evenodd" stroke="none"/>
      <path d="M35.8 37.2 Q36.6 38.5 36.6 39.65 36.6 41.1 36.2 42.0 35.6 43.3 33.9 44.3 32.5 45.2 30.9 44.85 29.3 44.55 28.3 43.25 L30.1 43.65 Q31.65 43.65 32.9 42.65 34.05 41.7 34.45 40.2 35.0 38.8 34.6 37.4 L35.8 37.2" fill="#2a291e" fill-rule="evenodd" stroke="none"/>
      <path d="M14.15 41.55 Q14.45 43.3 13.95 44.15 L12.95 45.7 9.25 46.15 Q7.4 46.1 6.6 44.7 L8.1 45.0 8.4 45.0 Q10.25 45.0 11.6 43.65 12.9 42.35 12.9 40.5 L12.85 40.0 13.75 40.0 14.15 41.55" fill="#2a291e" fill-rule="evenodd" stroke="none"/>
      <path d="M32.1 38.8 L32.15 39.45 Q32.05 40.2 31.4 40.5 L29.4 41.0 28.9 39.15 32.1 38.8" fill="#a6a176" fill-rule="evenodd" stroke="none"/>
      <path d="M9.75 41.15 L9.9 42.0 7.6 42.65 Q7.25 41.65 7.4 41.15 7.55 40.85 8.65 40.95 L9.75 41.15" fill="#a6a176" fill-rule="evenodd" stroke="none"/>
      <path d="M8.1 43.5 L8.6 43.5 8.55 44.15 Q7.7 44.3 7.6 43.95 7.45 43.5 8.1 43.5" fill="#a6a176" fill-rule="evenodd" stroke="none"/>
      <path d="M29.75 41.65 L30.6 41.8 Q30.75 42.85 29.75 42.65 28.7 42.35 29.75 41.65" fill="#a6a176" fill-rule="evenodd" stroke="none"/>
    </g>
    <radialGradient cx="0" cy="0" gradientTransform="matrix(0.0244, 0.0, 0.0, -0.0053, 29.6, 64.9)" gradientUnits="userSpaceOnUse" id="gradient0" r="819.2" spreadMethod="pad">
      <stop offset="0.611764705882353" stop-color="#000000" stop-opacity="0.4392157"/>
      <stop offset="1.0" stop-color="#121212" stop-opacity="0.0"/>
    </radialGradient>
    <radialGradient cx="0" cy="0" gradientTransform="matrix(0.0052, 0.017, -0.017, 0.0052, 28.7, 8.15)" gradientUnits="userSpaceOnUse" id="gradient1" r="819.2" spreadMethod="pad">
      <stop offset="0.0" stop-color="#c5a536"/>
      <stop offset="0.9137254901960784" stop-color="#815a51"/>
    </radialGradient>
    <linearGradient gradientTransform="matrix(-0.0032, 0.0045, -0.0045, -0.0032, 43.9, 21.9)" gradientUnits="userSpaceOnUse" id="gradient2" spreadMethod="pad" x1="-819.2" x2="819.2">
      <stop offset="0.0" stop-color="#dfe1c4"/>
      <stop offset="1.0" stop-color="#71673c"/>
    </linearGradient>
    <linearGradient gradientTransform="matrix(0.0013, -0.0034, 0.0034, 0.0013, 18.9, 21.4)" gradientUnits="userSpaceOnUse" id="gradient3" spreadMethod="pad" x1="-819.2" x2="819.2">
      <stop offset="0.0" stop-color="#dfe1c4"/>
      <stop offset="1.0" stop-color="#71673c"/>
    </linearGradient>
    <linearGradient gradientTransform="matrix(-0.0081, 0.0014, -0.0014, -0.0081, 39.7, 17.55)" gradientUnits="userSpaceOnUse" id="gradient4" spreadMethod="pad" x1="-819.2" x2="819.2">
      <stop offset="0.27058823529411763" stop-color="#f8fee8"/>
      <stop offset="1.0" stop-color="#8a7e49"/>
    </linearGradient>
    <linearGradient gradientTransform="matrix(0.0028, 0.0048, -0.0048, 0.0028, 22.1, 17.7)" gradientUnits="userSpaceOnUse" id="gradient5" spreadMethod="pad" x1="-819.2" x2="819.2">
      <stop offset="0.27058823529411763" stop-color="#f8fee8"/>
      <stop offset="1.0" stop-color="#8a7e49"/>
    </linearGradient>
    <linearGradient gradientTransform="matrix(0.0, 0.0058, -0.0058, 0.0, 31.05, 15.75)" gradientUnits="userSpaceOnUse" id="gradient6" spreadMethod="pad" x1="-819.2" x2="819.2">
      <stop offset="0.27058823529411763" stop-color="#f8fee8"/>
      <stop offset="1.0" stop-color="#8a7e49"/>
    </linearGradient>
    <linearGradient gradientTransform="matrix(0.0453, 0.0, 0.0, -0.0453, 33.75, 40.85)" gradientUnits="userSpaceOnUse" id="gradient7" spreadMethod="pad" x1="-819.2" x2="819.2">
      <stop offset="0.7490196078431373" stop-color="#121212" stop-opacity="0.23921569"/>
      <stop offset="0.9098039215686274" stop-color="#121212" stop-opacity="0.23921569"/>
    </linearGradient>
    <linearGradient gradientTransform="matrix(0.0453, 0.0, 0.0, -0.0453, 33.75, 52.5)" gradientUnits="userSpaceOnUse" id="gradient8" spreadMethod="pad" x1="-819.2" x2="819.2">
      <stop offset="0.7490196078431373" stop-color="#121212" stop-opacity="0.23921569"/>
      <stop offset="0.9098039215686274" stop-color="#121212" stop-opacity="0.23921569"/>
    </linearGradient>
    <linearGradient gradientTransform="matrix(0.0453, 0.0, 0.0, -0.0453, 33.75, 42.5)" gradientUnits="userSpaceOnUse" id="gradient9" spreadMethod="pad" x1="-819.2" x2="819.2">
      <stop offset="0.7490196078431373" stop-color="#121212" stop-opacity="0.23921569"/>
      <stop offset="0.9098039215686274" stop-color="#121212" stop-opacity="0.23921569"/>
    </linearGradient>
    <linearGradient gradientTransform="matrix(0.0495, 0.0, 0.0, -0.0495, 39.45, 42.5)" gradientUnits="userSpaceOnUse" id="gradient10" spreadMethod="pad" x1="-819.2" x2="819.2">
      <stop offset="0.43529411764705883" stop-color="#121212" stop-opacity="0.34901962"/>
      <stop offset="0.7490196078431373" stop-color="#121212" stop-opacity="0.34901962"/>
    </linearGradient>
    <linearGradient gradientTransform="matrix(0.0453, 0.0, 0.0, -0.0453, 33.75, 51.55)" gradientUnits="userSpaceOnUse" id="gradient11" spreadMethod="pad" x1="-819.2" x2="819.2">
      <stop offset="0.7490196078431373" stop-color="#121212" stop-opacity="0.23921569"/>
      <stop offset="0.9098039215686274" stop-color="#121212" stop-opacity="0.23921569"/>
    </linearGradient>
    <linearGradient gradientTransform="matrix(0.0495, 0.0, 0.0, -0.0495, 39.45, 51.55)" gradientUnits="userSpaceOnUse" id="gradient12" spreadMethod="pad" x1="-819.2" x2="819.2">
      <stop offset="0.43529411764705883" stop-color="#121212" stop-opacity="0.34901962"/>
      <stop offset="0.7490196078431373" stop-color="#121212" stop-opacity="0.34901962"/>
    </linearGradient>
    <linearGradient gradientTransform="matrix(0.0416, 0.0, 0.0, -0.0416, 41.3, 51.55)" gradientUnits="userSpaceOnUse" id="gradient13" spreadMethod="pad" x1="-819.2" x2="819.2">
      <stop offset="0.08627450980392157" stop-color="#121212" stop-opacity="0.44705883"/>
      <stop offset="0.27450980392156865" stop-color="#121212" stop-opacity="0.44705883"/>
    </linearGradient>
    <linearGradient gradientTransform="matrix(0.0193, 0.0, 0.0, -0.0193, 19.25, 27.5)" gradientUnits="userSpaceOnUse" id="gradient14" spreadMethod="pad" x1="-819.2" x2="819.2">
      <stop offset="0.20392156862745098" stop-color="#ffffff" stop-opacity="0.14901961"/>
      <stop offset="0.4470588235294118" stop-color="#ffffff" stop-opacity="0.14901961"/>
    </linearGradient>
    <linearGradient gradientTransform="matrix(0.0195, 0.0, 0.0, -0.0195, 22.25, 50.5)" gradientUnits="userSpaceOnUse" id="gradient15" spreadMethod="pad" x1="-819.2" x2="819.2">
      <stop offset="0.20392156862745098" stop-color="#ffffff" stop-opacity="0.14901961"/>
      <stop offset="0.4470588235294118" stop-color="#ffffff" stop-opacity="0.14901961"/>
    </linearGradient>
    <linearGradient gradientTransform="matrix(0.0124, 0.0, 0.0, -0.0124, 18.75, 52.5)" gradientUnits="userSpaceOnUse" id="gradient16" spreadMethod="pad" x1="-819.2" x2="819.2">
      <stop offset="0.7490196078431373" stop-color="#121212" stop-opacity="0.23921569"/>
      <stop offset="0.9098039215686274" stop-color="#121212" stop-opacity="0.23921569"/>
    </linearGradient>
    <linearGradient gradientTransform="matrix(0.0195, 0.0, 0.0, -0.0195, 22.25, 51.75)" gradientUnits="userSpaceOnUse" id="gradient17" spreadMethod="pad" x1="-819.2" x2="819.2">
      <stop offset="0.20392156862745098" stop-color="#ffffff" stop-opacity="0.14901961"/>
      <stop offset="0.4470588235294118" stop-color="#ffffff" stop-opacity="0.14901961"/>
    </linearGradient>
    <linearGradient gradientTransform="matrix(0.0124, 0.0, 0.0, -0.0124, 18.75, 51.75)" gradientUnits="userSpaceOnUse" id="gradient18" spreadMethod="pad" x1="-819.2" x2="819.2">
      <stop offset="0.7490196078431373" stop-color="#121212" stop-opacity="0.23921569"/>
      <stop offset="0.9098039215686274" stop-color="#121212" stop-opacity="0.23921569"/>
    </linearGradient>
    <linearGradient gradientTransform="matrix(0.0195, 0.0, 0.0, -0.0195, 22.25, 53.15)" gradientUnits="userSpaceOnUse" id="gradient19" spreadMethod="pad" x1="-819.2" x2="819.2">
      <stop offset="0.20392156862745098" stop-color="#ffffff" stop-opacity="0.14901961"/>
      <stop offset="0.4470588235294118" stop-color="#ffffff" stop-opacity="0.14901961"/>
    </linearGradient>
    <linearGradient gradientTransform="matrix(0.0124, 0.0, 0.0, -0.0124, 18.75, 53.15)" gradientUnits="userSpaceOnUse" id="gradient20" spreadMethod="pad" x1="-819.2" x2="819.2">
      <stop offset="0.7490196078431373" stop-color="#121212" stop-opacity="0.23921569"/>
      <stop offset="0.9098039215686274" stop-color="#121212" stop-opacity="0.23921569"/>
    </linearGradient>
    <linearGradient gradientTransform="matrix(0.0112, 0.0, 0.0, -0.0112, 23.55, 55.25)" gradientUnits="userSpaceOnUse" id="gradient21" spreadMethod="pad" x1="-819.2" x2="819.2">
      <stop offset="0.7490196078431373" stop-color="#121212" stop-opacity="0.23921569"/>
      <stop offset="0.9098039215686274" stop-color="#121212" stop-opacity="0.23921569"/>
    </linearGradient>
    <linearGradient gradientTransform="matrix(0.0453, 0.0, 0.0, -0.0453, 33.75, 54.75)" gradientUnits="userSpaceOnUse" id="gradient22" spreadMethod="pad" x1="-819.2" x2="819.2">
      <stop offset="0.7490196078431373" stop-color="#121212" stop-opacity="0.23921569"/>
      <stop offset="0.9098039215686274" stop-color="#121212" stop-opacity="0.23921569"/>
    </linearGradient>
    <linearGradient gradientTransform="matrix(0.0112, 0.0, 0.0, -0.0112, 23.55, 54.75)" gradientUnits="userSpaceOnUse" id="gradient23" spreadMethod="pad" x1="-819.2" x2="819.2">
      <stop offset="0.7490196078431373" stop-color="#121212" stop-opacity="0.23921569"/>
      <stop offset="0.9098039215686274" stop-color="#121212" stop-opacity="0.23921569"/>
    </linearGradient>
    <linearGradient gradientTransform="matrix(0.0064, 0.0, 0.0, -0.0064, 35.5, 48.75)" gradientUnits="userSpaceOnUse" id="gradient24" spreadMethod="pad" x1="-819.2" x2="819.2">
      <stop offset="0.7490196078431373" stop-color="#121212" stop-opacity="0.23921569"/>
      <stop offset="0.9098039215686274" stop-color="#121212" stop-opacity="0.23921569"/>
    </linearGradient>
    <linearGradient gradientTransform="matrix(0.0195, 0.0, 0.0, -0.0195, 22.25, 50.3)" gradientUnits="userSpaceOnUse" id="gradient25" spreadMethod="pad" x1="-819.2" x2="819.2">
      <stop offset="0.20392156862745098" stop-color="#ffffff" stop-opacity="0.14901961"/>
      <stop offset="0.4470588235294118" stop-color="#ffffff" stop-opacity="0.14901961"/>
    </linearGradient>
    <linearGradient gradientTransform="matrix(0.0064, 0.0, 0.0, -0.0064, 35.5, 50.3)" gradientUnits="userSpaceOnUse" id="gradient26" spreadMethod="pad" x1="-819.2" x2="819.2">
      <stop offset="0.7490196078431373" stop-color="#121212" stop-opacity="0.23921569"/>
      <stop offset="0.9098039215686274" stop-color="#121212" stop-opacity="0.23921569"/>
    </linearGradient>
    <radialGradient cx="0" cy="0" gradientTransform="matrix(0.0232, 0.0238, 0.0238, -0.0232, 18.25, 34.5)" gradientUnits="userSpaceOnUse" id="gradient27" r="819.2" spreadMethod="pad">
      <stop offset="0.0" stop-color="#d8d099"/>
      <stop offset="0.1803921568627451" stop-color="#d2ca95"/>
      <stop offset="0.41568627450980394" stop-color="#c3bb8a"/>
      <stop offset="0.6705882352941176" stop-color="#a9a278"/>
      <stop offset="0.9490196078431372" stop-color="#857f5e"/>
      <stop offset="1.0" stop-color="#7e7859"/>
    </radialGradient>
  </defs>
</svg>
