<?xml version="1.0" encoding="UTF-8" standalone="no"?>
<svg xmlns:xlink="http://www.w3.org/1999/xlink" height="146.35px" width="100.45px" xmlns="http://www.w3.org/2000/svg">
  <g transform="matrix(1.0, 0.0, 0.0, 1.0, 0.0, 0.0)">
    <use height="146.35" id="mailboxContainer_mc" transform="matrix(1.0, 0.0, 0.0, 1.0, -0.05, 0.0)" width="100.45" xlink:href="#sprite0"/>
  </g>
  <defs>
    <g id="sprite0" transform="matrix(1.0, 0.0, 0.0, 1.0, 50.25, 78.4)">
      <use height="146.35" id="mailbox" transform="matrix(1.0, 0.0, 0.0, 1.0, -50.25, -78.4)" width="100.45" xlink:href="#sprite1"/>
    </g>
    <g id="sprite1" transform="matrix(1.0, 0.0, 0.0, 1.0, 50.25, 78.4)">
      <use height="36.55" transform="matrix(-1.0, 0.0, 0.0, 1.0, 50.2, 31.4)" width="100.45" xlink:href="#shape0"/>
      <use height="12.55" transform="matrix(1.0, 0.0, 0.0, 1.0, -5.45, 45.5)" width="22.15" xlink:href="#shape1"/>
      <use height="73.65" transform="matrix(1.0, 0.0, 0.0, 1.0, -3.9, -37.3)" width="6.65" xlink:href="#shape2"/>
      <use height="42.15" transform="matrix(-1.0, 0.0, 0.0, 1.0, 28.6, -67.95)" width="44.35" xlink:href="#shape3"/>
      <use height="35.7" transform="matrix(-1.0, 0.0, 0.0, 1.0, 29.05, -62.0)" width="26.25" xlink:href="#shape4"/>
      <use height="12.85" transform="matrix(0.6026, -0.7981, -0.7981, -0.6026, 0.7433, -42.132)" width="7.05" xlink:href="#shape5"/>
    </g>
    <g id="shape0" transform="matrix(1.0, 0.0, 0.0, 1.0, 50.2, 18.25)">
      <path d="M-22.9 10.45 Q-23.75 10.65 -24.65 10.05 L-26.0 9.1 -25.3 8.75 -24.65 8.55 4.6 3.55 Q7.05 3.7 11.75 5.45 13.9 6.3 14.85 6.2 L15.2 6.05 16.25 6.0 17.25 5.7 17.95 5.1 18.6 4.45 19.65 3.35 19.8 1.8 19.9 0.2 20.3 -0.6 21.0 -0.8 23.1 -0.9 Q24.25 -1.2 24.4 -2.3 L24.45 -3.15 23.95 -3.9 23.05 -4.25 Q22.4 -4.5 22.25 -4.85 21.85 -5.65 23.25 -5.9 L25.1 -5.95 27.85 -5.5 28.7 -5.2 Q29.1 -5.0 28.95 -4.5 28.85 -4.15 28.05 -3.9 27.3 -3.7 27.2 -3.3 L27.35 -2.45 27.35 -1.7 26.85 -0.75 Q26.4 -0.15 26.45 0.2 L27.05 0.9 Q27.55 1.3 27.45 1.7 L25.85 3.3 23.45 4.8 22.1 5.3 Q21.3 5.6 20.85 5.95 L19.25 6.9 19.0 7.25 19.05 7.7 Q19.45 10.45 18.0 11.6 L17.75 11.45 Q17.6 11.75 16.6 12.25 L15.6 12.95 13.3 13.05 Q12.85 13.6 11.4 13.5 L9.35 13.15 7.25 12.55 5.2 12.45 3.1 12.6 1.95 12.45 Q1.45 12.25 1.2 11.7 L1.0 11.3 0.6 11.1 Q-0.55 10.45 -1.9 10.85 L-3.85 11.7 Q-5.05 12.3 -5.9 12.1 L-6.4 11.65 -6.8 11.05 -8.95 10.8 -13.3 10.8 Q-13.9 10.85 -15.55 11.75 L-17.75 11.9 -18.25 11.4 -18.25 10.55 Q-18.35 9.95 -19.1 9.9 L-20.4 9.95 -21.55 9.95 -22.2 10.15 -22.9 10.45" fill="url(#gradient0)" fill-rule="evenodd" stroke="none"/>
      <path d="M-25.25 5.2 L-24.65 5.45 Q-24.65 6.3 -25.0 6.8 -25.85 7.95 -26.25 7.95 -26.35 8.7 -26.6 9.0 -26.85 9.25 -27.6 9.5 L-30.0 9.7 Q-30.25 8.25 -28.0 7.1 -27.3 6.95 -27.15 6.7 L-27.15 6.15 -26.35 5.55 -25.25 5.2" fill="url(#gradient1)" fill-rule="evenodd" stroke="none"/>
      <path d="M-25.25 3.3 L-24.75 3.3 -24.8 4.0 -25.25 4.35 -26.65 4.45 Q-26.8 3.9 -26.25 3.6 L-25.25 3.3" fill="url(#gradient2)" fill-rule="evenodd" stroke="none"/>
      <path d="M-22.9 11.3 L-23.9 11.3 Q-23.75 10.55 -22.4 10.2 L-20.4 9.95 -18.4 9.8 Q-18.4 12.1 -20.4 11.55 -21.25 11.0 -21.9 11.1 L-22.9 11.3" fill="url(#gradient3)" fill-rule="evenodd" stroke="none"/>
      <path d="M-13.25 12.2 L-13.85 12.0 -13.55 11.45 Q-13.2 11.1 -12.3 10.75 L-11.0 10.7 -7.9 10.45 -7.35 10.7 Q-7.15 10.8 -7.15 11.2 -7.15 11.8 -7.45 12.05 L-8.85 12.45 -10.3 12.85 -11.8 12.7 -13.25 12.2" fill="url(#gradient4)" fill-rule="evenodd" stroke="none"/>
      <path d="M-1.0 11.05 L0.35 11.3 0.1 12.25 -0.5 12.9 -3.4 12.85 -3.9 12.3 Q-4.05 11.85 -3.75 11.55 L-3.0 11.3 -2.2 11.15 -1.0 11.05" fill="url(#gradient5)" fill-rule="evenodd" stroke="none"/>
      <path d="M5.75 12.7 L6.35 12.7 5.95 13.2 5.4 13.7 4.5 13.7 3.6 13.55 Q3.45 13.05 4.45 12.75 L5.75 12.7" fill="url(#gradient6)" fill-rule="evenodd" stroke="none"/>
      <path d="M13.35 13.8 L13.75 13.8 13.65 14.15 13.25 14.2 13.35 13.8" fill="url(#gradient7)" fill-rule="evenodd" stroke="none"/>
      <path d="M23.0 -3.95 Q23.05 -3.4 22.5 -2.4 22.15 -1.75 21.85 -1.65 21.3 -1.5 20.85 -1.95 20.4 -2.4 20.5 -2.95 L23.0 -3.95" fill="url(#gradient8)" fill-rule="evenodd" stroke="none"/>
      <path d="M15.5 4.05 L18.85 2.95 Q19.0 4.0 17.35 4.45 15.65 4.9 15.5 4.05" fill="url(#gradient9)" fill-rule="evenodd" stroke="none"/>
      <path d="M16.95 6.1 Q17.45 6.1 18.0 5.6 L18.85 4.8 18.65 6.1 17.95 7.65 16.3 9.6 16.05 10.3 Q15.05 12.0 13.2 12.15 L11.85 12.15 10.25 11.9 9.8 5.55 14.45 5.55 15.55 5.65 16.95 6.1" fill="url(#gradient10)" fill-rule="evenodd" stroke="none"/>
      <path d="M19.65 -0.8 Q19.7 -0.5 20.4 -0.45 L21.45 -0.5 24.15 -0.6 24.7 -0.75 23.8 0.0 22.55 0.55 21.3 1.05 20.5 1.8 19.5 2.05 19.65 -0.8" fill="url(#gradient11)" fill-rule="evenodd" stroke="none"/>
      <path d="M23.65 -5.45 L24.45 -5.25 25.75 -4.95 24.95 -4.7 24.65 -4.45 24.2 -4.15 21.75 -4.35 19.4 -4.85 23.65 -5.45" fill="url(#gradient12)" fill-rule="evenodd" stroke="none"/>
      <path d="M-17.45 10.0 L-11.25 9.15 Q-11.8 10.5 -13.45 11.15 L-15.45 11.35 -16.7 11.15 -17.1 10.6 -17.45 10.0" fill="url(#gradient13)" fill-rule="evenodd" stroke="none"/>
      <path d="M-23.3 10.05 Q-23.55 9.9 -23.35 9.55 -23.2 9.15 -22.95 9.3 L-18.65 8.85 Q-18.95 8.9 -19.3 9.1 L-20.05 9.55 -21.95 10.05 -23.3 10.05" fill="url(#gradient14)" fill-rule="evenodd" stroke="none"/>
      <path d="M-4.45 10.75 L-1.5 9.75 -3.15 11.15 Q-4.2 12.0 -5.1 11.8 L-5.0 11.1 Q-4.75 10.65 -4.45 10.75" fill="url(#gradient15)" fill-rule="evenodd" stroke="none"/>
      <path d="M3.05 11.3 L7.5 11.55 Q7.0 12.1 6.05 12.25 L3.8 12.45 2.9 12.3 Q2.75 12.0 3.05 11.3" fill="url(#gradient16)" fill-rule="evenodd" stroke="none"/>
      <path d="M10.4 11.9 L12.55 9.8 Q12.55 12.05 12.0 12.4 L11.1 12.45 10.25 12.15 10.4 11.9" fill="url(#gradient17)" fill-rule="evenodd" stroke="none"/>
      <path d="M35.55 -9.85 Q50.25 -5.05 50.25 1.8 50.25 8.65 35.55 13.5 20.85 18.3 0.0 18.3 -20.8 18.3 -35.5 13.5 -50.2 8.65 -50.2 1.8 -50.2 -5.0 -35.5 -9.85 -20.75 -14.7 0.0 -14.7 20.8 -14.7 35.55 -9.85" fill="url(#gradient18)" fill-rule="evenodd" stroke="none"/>
      <path d="M-7.45 -6.05 L-19.95 -9.0 -9.5 -18.2 20.4 -17.2 16.05 -8.45 9.05 -2.85 -7.45 -6.05" fill="url(#gradient19)" fill-rule="evenodd" stroke="none"/>
      <path d="M20.4 -17.35 L21.05 -15.5 22.25 -11.25 23.75 -4.2 23.7 -4.15 Q22.15 -3.1 21.65 -1.35 L21.45 -0.55 19.45 2.55 18.0 3.7 Q15.1 6.7 12.75 12.05 L0.25 7.65 -5.7 -5.15 9.65 -4.85 20.4 -17.35" fill="url(#gradient20)" fill-rule="evenodd" stroke="none"/>
      <path d="M18.0 3.7 Q15.55 6.2 13.3 10.8 L13.25 10.75 13.4 10.5 Q14.2 8.95 14.45 7.05 15.0 5.0 15.8 4.05 L17.55 1.55 18.4 1.5 18.8 0.75 18.9 0.15 18.9 0.0 19.05 -0.15 19.35 -1.8 Q19.65 -2.9 20.3 -2.7 L20.6 -2.45 21.0 -2.8 21.95 -3.85 Q22.5 -4.3 23.7 -4.2 L23.7 -4.15 Q22.15 -3.1 21.65 -1.35 L21.45 -0.55 19.45 2.55 18.0 3.7" fill="#5d5651" fill-rule="evenodd" stroke="none"/>
      <path d="M-22.25 9.7 L-24.8 8.9 Q-22.7 2.35 -21.95 -1.8 L-20.7 -6.9 -19.95 -9.0 -17.3 -8.7 -7.5 -8.0 10.6 -6.65 Q11.1 -6.7 11.4 -5.6 11.9 -3.85 12.5 1.85 13.1 7.4 12.7 12.05 L10.7 12.15 -3.2 11.1 -4.9 10.9 -13.15 10.5 -22.25 9.7" fill="url(#gradient21)" fill-rule="evenodd" stroke="none"/>
      <path d="M7.05 -13.85 Q7.05 -13.15 5.6 -12.7 L2.1 -12.2 Q0.1 -12.2 -1.35 -12.7 -2.8 -13.15 -2.8 -13.85 -2.8 -14.55 -1.35 -15.05 L2.1 -15.55 5.6 -15.05 Q7.05 -14.55 7.05 -13.85" fill="url(#gradient22)" fill-rule="evenodd" stroke="none"/>
      <path d="M-24.8 8.9 L-24.9 8.85 -24.25 5.75 -22.0 -2.85 -20.25 -9.2 -9.25 -18.25 -13.75 -14.15 -18.45 -9.7 Q-18.55 -9.3 -15.6 -9.0 L11.0 -6.6 -19.35 -8.6 -19.5 -8.25 -24.8 8.9" fill="#f0f0f0" fill-rule="evenodd" stroke="none"/>
      <path d="M8.25 -4.7 L9.1 -4.1 9.25 -1.6 9.2 8.2 9.15 10.3 8.45 10.5 9.7 10.45 10.5 9.65 10.55 8.75 10.55 7.65 10.65 1.7 10.65 0.8 10.5 -4.15 10.45 -4.6 10.65 -4.4 11.3 8.85 11.4 11.15 Q11.3 11.6 10.4 11.55 L-12.45 9.85 -20.35 8.9 -20.0 7.9 -20.9 7.65 Q-21.15 7.35 -20.3 1.4 -19.45 -4.8 -18.75 -6.3 L-18.55 -6.6 -15.1 -6.55 -18.25 -6.6 -5.2 -5.6 8.25 -4.7 M5.2 -5.25 L5.95 -5.2 7.95 -4.8 5.2 -5.25" fill="url(#gradient23)" fill-rule="evenodd" stroke="none"/>
      <path d="M7.95 -4.8 L8.55 -4.7 8.25 -4.7 -5.2 -5.6 -18.25 -6.6 -15.1 -6.55 -15.0 -6.55 -14.05 -6.5 -6.05 -6.2 5.2 -5.25 7.95 -4.8" fill="url(#gradient24)" fill-rule="evenodd" stroke="none"/>
      <path d="M8.25 -4.7 L8.55 -4.7 7.95 -4.8 5.95 -5.2 5.2 -5.25 -6.05 -6.2 -14.05 -6.5 -15.0 -6.55 -15.1 -6.55 -18.55 -6.6 Q-18.2 -7.0 -17.25 -7.2 L7.25 -5.8 Q10.15 -5.45 10.4 -4.7 L10.45 -4.6 10.5 -4.15 10.45 -4.1 10.05 6.25 9.9 8.85 9.5 -0.1 9.25 -1.6 9.1 -4.1 8.25 -4.7" fill="url(#gradient25)" fill-rule="evenodd" stroke="none"/>
      <path d="M9.25 -1.6 L9.5 -0.1 9.9 8.85 10.05 6.25 10.45 -4.1 10.5 -4.15 10.65 0.8 10.65 1.7 10.55 7.65 10.55 8.75 10.5 9.65 9.7 10.45 8.45 10.5 9.15 10.3 9.2 8.2 9.25 -1.6" fill="#003e58" fill-rule="evenodd" stroke="none"/>
    </g>
    <linearGradient gradientTransform="matrix(0.0336, 0.0, 0.0, -0.0336, 1.5, 3.8)" gradientUnits="userSpaceOnUse" id="gradient0" spreadMethod="pad" x1="-819.2" x2="819.2">
      <stop offset="0.3607843137254902" stop-color="#000000" stop-opacity="0.12156863"/>
      <stop offset="0.7490196078431373" stop-color="#000000" stop-opacity="0.12156863"/>
    </linearGradient>
    <linearGradient gradientTransform="matrix(0.0033, 0.0, 0.0, -0.0033, -27.35, 7.45)" gradientUnits="userSpaceOnUse" id="gradient1" spreadMethod="pad" x1="-819.2" x2="819.2">
      <stop offset="0.3607843137254902" stop-color="#fffefe" stop-opacity="0.12156863"/>
      <stop offset="0.7490196078431373" stop-color="#fffefe" stop-opacity="0.12156863"/>
    </linearGradient>
    <linearGradient gradientTransform="matrix(0.0011, 0.0, 0.0, -0.0011, -25.7, 3.9)" gradientUnits="userSpaceOnUse" id="gradient2" spreadMethod="pad" x1="-819.2" x2="819.2">
      <stop offset="0.3607843137254902" stop-color="#fffefe" stop-opacity="0.12156863"/>
      <stop offset="0.7490196078431373" stop-color="#fffefe" stop-opacity="0.12156863"/>
    </linearGradient>
    <linearGradient gradientTransform="matrix(0.0033, 0.0, 0.0, -0.0033, -21.15, 10.75)" gradientUnits="userSpaceOnUse" id="gradient3" spreadMethod="pad" x1="-819.2" x2="819.2">
      <stop offset="0.3607843137254902" stop-color="#fffefe" stop-opacity="0.12156863"/>
      <stop offset="0.7490196078431373" stop-color="#fffefe" stop-opacity="0.12156863"/>
    </linearGradient>
    <linearGradient gradientTransform="matrix(0.0041, 0.0, 0.0, -0.0041, -10.5, 11.7)" gradientUnits="userSpaceOnUse" id="gradient4" spreadMethod="pad" x1="-819.2" x2="819.2">
      <stop offset="0.3607843137254902" stop-color="#fffefe" stop-opacity="0.12156863"/>
      <stop offset="0.7490196078431373" stop-color="#fffefe" stop-opacity="0.12156863"/>
    </linearGradient>
    <linearGradient gradientTransform="matrix(0.0026, 0.0, 0.0, -0.0026, -1.8, 12.1)" gradientUnits="userSpaceOnUse" id="gradient5" spreadMethod="pad" x1="-819.2" x2="819.2">
      <stop offset="0.3607843137254902" stop-color="#fffefe" stop-opacity="0.12156863"/>
      <stop offset="0.7490196078431373" stop-color="#fffefe" stop-opacity="0.12156863"/>
    </linearGradient>
    <linearGradient gradientTransform="matrix(0.0017, 0.0, 0.0, -0.0017, 4.95, 13.2)" gradientUnits="userSpaceOnUse" id="gradient6" spreadMethod="pad" x1="-819.2" x2="819.2">
      <stop offset="0.3607843137254902" stop-color="#fffefe" stop-opacity="0.12156863"/>
      <stop offset="0.7490196078431373" stop-color="#fffefe" stop-opacity="0.12156863"/>
    </linearGradient>
    <linearGradient gradientTransform="matrix(3.0E-4, 0.0, 0.0, -3.0E-4, 13.5, 14.0)" gradientUnits="userSpaceOnUse" id="gradient7" spreadMethod="pad" x1="-819.2" x2="819.2">
      <stop offset="0.3607843137254902" stop-color="#fffefe" stop-opacity="0.12156863"/>
      <stop offset="0.7490196078431373" stop-color="#fffefe" stop-opacity="0.12156863"/>
    </linearGradient>
    <linearGradient gradientTransform="matrix(0.0015, 0.0, 0.0, -0.0015, 21.75, -2.8)" gradientUnits="userSpaceOnUse" id="gradient8" spreadMethod="pad" x1="-819.2" x2="819.2">
      <stop offset="0.3607843137254902" stop-color="#fffefe" stop-opacity="0.12156863"/>
      <stop offset="0.7490196078431373" stop-color="#fffefe" stop-opacity="0.12156863"/>
    </linearGradient>
    <linearGradient gradientTransform="matrix(0.0021, 0.0, 0.0, -0.0021, 17.15, 3.75)" gradientUnits="userSpaceOnUse" id="gradient9" spreadMethod="pad" x1="-819.2" x2="819.2">
      <stop offset="0.3607843137254902" stop-color="#fffefe" stop-opacity="0.12156863"/>
      <stop offset="0.7490196078431373" stop-color="#fffefe" stop-opacity="0.12156863"/>
    </linearGradient>
    <linearGradient gradientTransform="matrix(0.0055, 0.0, 0.0, -0.0055, 14.35, 8.5)" gradientUnits="userSpaceOnUse" id="gradient10" spreadMethod="pad" x1="-819.2" x2="819.2">
      <stop offset="0.3607843137254902" stop-color="#000000" stop-opacity="0.12156863"/>
      <stop offset="0.7490196078431373" stop-color="#000000" stop-opacity="0.12156863"/>
    </linearGradient>
    <linearGradient gradientTransform="matrix(0.0032, 0.0, 0.0, -0.0032, 22.1, 0.6)" gradientUnits="userSpaceOnUse" id="gradient11" spreadMethod="pad" x1="-819.2" x2="819.2">
      <stop offset="0.3607843137254902" stop-color="#000000" stop-opacity="0.12156863"/>
      <stop offset="0.7490196078431373" stop-color="#000000" stop-opacity="0.12156863"/>
    </linearGradient>
    <linearGradient gradientTransform="matrix(0.0039, 0.0, 0.0, -0.0039, 22.6, -4.8)" gradientUnits="userSpaceOnUse" id="gradient12" spreadMethod="pad" x1="-819.2" x2="819.2">
      <stop offset="0.3607843137254902" stop-color="#000000" stop-opacity="0.12156863"/>
      <stop offset="0.7490196078431373" stop-color="#000000" stop-opacity="0.12156863"/>
    </linearGradient>
    <linearGradient gradientTransform="matrix(0.0038, 0.0, 0.0, -0.0038, -14.35, 10.25)" gradientUnits="userSpaceOnUse" id="gradient13" spreadMethod="pad" x1="-819.2" x2="819.2">
      <stop offset="0.3607843137254902" stop-color="#000000" stop-opacity="0.12156863"/>
      <stop offset="0.7490196078431373" stop-color="#000000" stop-opacity="0.12156863"/>
    </linearGradient>
    <linearGradient gradientTransform="matrix(0.003, 0.0, 0.0, -0.003, -20.95, 9.45)" gradientUnits="userSpaceOnUse" id="gradient14" spreadMethod="pad" x1="-819.2" x2="819.2">
      <stop offset="0.3607843137254902" stop-color="#000000" stop-opacity="0.12156863"/>
      <stop offset="0.7490196078431373" stop-color="#000000" stop-opacity="0.12156863"/>
    </linearGradient>
    <linearGradient gradientTransform="matrix(0.0022, 0.0, 0.0, -0.0022, -3.3, 10.8)" gradientUnits="userSpaceOnUse" id="gradient15" spreadMethod="pad" x1="-819.2" x2="819.2">
      <stop offset="0.3607843137254902" stop-color="#000000" stop-opacity="0.12156863"/>
      <stop offset="0.7490196078431373" stop-color="#000000" stop-opacity="0.12156863"/>
    </linearGradient>
    <linearGradient gradientTransform="matrix(0.0028, 0.0, 0.0, -0.0028, 5.15, 11.9)" gradientUnits="userSpaceOnUse" id="gradient16" spreadMethod="pad" x1="-819.2" x2="819.2">
      <stop offset="0.3607843137254902" stop-color="#000000" stop-opacity="0.12156863"/>
      <stop offset="0.7490196078431373" stop-color="#000000" stop-opacity="0.12156863"/>
    </linearGradient>
    <linearGradient gradientTransform="matrix(0.0014, 0.0, 0.0, -0.0014, 11.4, 11.15)" gradientUnits="userSpaceOnUse" id="gradient17" spreadMethod="pad" x1="-819.2" x2="819.2">
      <stop offset="0.3607843137254902" stop-color="#000000" stop-opacity="0.12156863"/>
      <stop offset="0.7490196078431373" stop-color="#000000" stop-opacity="0.12156863"/>
    </linearGradient>
    <radialGradient cx="0" cy="0" gradientTransform="matrix(0.0613, 0.0, 0.0, -0.0201, 0.0, 1.8)" gradientUnits="userSpaceOnUse" id="gradient18" r="819.2" spreadMethod="pad">
      <stop offset="0.1843137254901961" stop-color="#000000" stop-opacity="0.24705882"/>
      <stop offset="0.9882352941176471" stop-color="#000000" stop-opacity="0.0"/>
    </radialGradient>
    <linearGradient gradientTransform="matrix(0.0246, 0.0, 0.0, -0.0246, 0.25, -10.5)" gradientUnits="userSpaceOnUse" id="gradient19" spreadMethod="pad" x1="-819.2" x2="819.2">
      <stop offset="0.0" stop-color="#dfdfdf"/>
      <stop offset="1.0" stop-color="#a59b96"/>
    </linearGradient>
    <linearGradient gradientTransform="matrix(0.007, -0.0026, -0.0026, -0.007, 15.3, -2.15)" gradientUnits="userSpaceOnUse" id="gradient20" spreadMethod="pad" x1="-819.2" x2="819.2">
      <stop offset="0.0" stop-color="#636363"/>
      <stop offset="1.0" stop-color="#5f5a55"/>
      <stop offset="1.0" stop-color="#6b6b6b"/>
    </linearGradient>
    <linearGradient gradientTransform="matrix(0.0208, 0.0, 0.0, -0.0208, -5.9, 1.55)" gradientUnits="userSpaceOnUse" id="gradient21" spreadMethod="pad" x1="-819.2" x2="819.2">
      <stop offset="0.0" stop-color="#dfdfdf"/>
      <stop offset="0.14901960784313725" stop-color="#8c8886"/>
      <stop offset="0.5686274509803921" stop-color="#68625e"/>
      <stop offset="1.0" stop-color="#a59b96"/>
    </linearGradient>
    <linearGradient gradientTransform="matrix(0.006, 0.0, 0.0, -0.006, 2.1, -13.85)" gradientUnits="userSpaceOnUse" id="gradient22" spreadMethod="pad" x1="-819.2" x2="819.2">
      <stop offset="0.0" stop-color="#817a76"/>
      <stop offset="1.0" stop-color="#a59b96"/>
    </linearGradient>
    <radialGradient cx="0" cy="0" gradientTransform="matrix(0.0212, 0.0198, 0.0198, -0.0212, -14.2, -7.65)" gradientUnits="userSpaceOnUse" id="gradient23" r="819.2" spreadMethod="pad">
      <stop offset="0.0" stop-color="#39a2e3"/>
      <stop offset="1.0" stop-color="#226892"/>
    </radialGradient>
    <radialGradient cx="0" cy="0" gradientTransform="matrix(0.0095, 0.0134, 0.0134, -0.0095, -6.9, -6.7)" gradientUnits="userSpaceOnUse" id="gradient24" r="819.2" spreadMethod="pad">
      <stop offset="0.0" stop-color="#acdcfe"/>
      <stop offset="1.0" stop-color="#006b98"/>
    </radialGradient>
    <radialGradient cx="0" cy="0" gradientTransform="matrix(0.0157, 0.0221, 0.0221, -0.0157, -7.55, -7.8)" gradientUnits="userSpaceOnUse" id="gradient25" r="819.2" spreadMethod="pad">
      <stop offset="0.0" stop-color="#318cc4"/>
      <stop offset="1.0" stop-color="#154662"/>
    </radialGradient>
    <g id="shape1" transform="matrix(1.0, 0.0, 0.0, 1.0, 5.45, -45.5)">
      <path d="M15.45 48.45 L16.7 48.6 14.7 51.25 14.65 51.0 14.2 51.75 14.25 51.9 14.1 52.05 13.9 50.5 13.45 51.2 13.65 52.4 12.8 52.05 12.9 51.9 12.0 51.65 12.15 51.4 -1.45 47.35 1.1 47.4 6.0 48.65 13.4 51.1 15.45 48.45 M14.9 52.55 L15.05 52.3 15.85 58.05 Q15.05 57.95 14.45 57.45 L12.7 56.85 11.45 56.7 12.35 55.6 Q13.6 55.85 14.0 56.15 L15.1 56.65 15.15 56.8 15.15 56.7 15.45 56.7 14.9 52.55 M11.7 55.5 L9.85 58.05 Q3.35 54.15 1.15 52.25 L-4.3 47.9 -2.55 48.45 0.0 50.45 1.55 51.7 1.85 51.9 5.1 54.05 9.4 56.7 10.7 54.95 11.3 55.05 11.0 55.35 11.7 55.5 M-3.85 47.4 L-4.3 47.3 -4.0 47.35 -3.85 47.4" fill="#419cbb" fill-rule="evenodd" stroke="none"/>
      <path d="M15.3 47.25 L16.25 47.35 15.45 48.45 13.4 51.1 6.0 48.65 1.1 47.4 -0.65 46.95 -4.75 46.05 -3.15 46.1 3.1 46.2 15.3 47.25 M14.7 51.25 L14.9 52.55 15.45 56.7 15.15 56.7 15.1 56.65 14.0 56.15 Q13.6 55.85 12.35 55.6 L12.25 55.55 11.7 55.5 11.0 55.35 11.3 55.05 12.9 53.0 13.2 52.6 13.85 53.8 14.55 55.1 14.75 55.5 14.25 51.9 14.2 51.75 14.65 51.0 14.7 51.25 M12.8 52.05 L12.6 52.4 10.7 54.95 9.4 56.7 5.1 54.05 1.85 51.9 1.55 51.7 0.75 51.0 -4.75 46.65 12.0 51.65 12.9 51.9 12.8 52.05" fill="url(#gradient26)" fill-rule="evenodd" stroke="none"/>
      <path d="M-3.15 46.1 L-5.45 45.5 2.4 45.65 15.55 46.85 15.3 47.25 3.1 46.2 -3.15 46.1 M-2.55 48.45 L-3.85 47.4 -4.0 47.35 -5.45 46.15 -1.45 47.35 12.15 51.4 12.0 51.65 -4.75 46.65 0.75 51.0 1.55 51.7 0.0 50.45 -2.55 48.45 M13.65 52.4 L13.45 51.2 13.9 50.5 14.1 52.05 14.55 55.1 13.85 53.8 13.65 52.4 M12.6 52.4 L12.9 53.0 11.3 55.05 10.7 54.95 12.6 52.4" fill="#005072" fill-rule="evenodd" stroke="none"/>
      <path d="M13.65 52.4 L13.85 53.8 13.2 52.6 12.9 53.0 12.6 52.4 12.8 52.05 13.65 52.4 M14.55 55.1 L14.1 52.05 14.25 51.9 14.75 55.5 14.55 55.1 M15.1 56.65 L15.15 56.7 15.15 56.8 15.1 56.65" fill="url(#gradient27)" fill-rule="evenodd" stroke="none"/>
    </g>
    <radialGradient cx="0" cy="0" gradientTransform="matrix(0.0163, 0.018, 0.0194, -0.018, 2.3, 44.2)" gradientUnits="userSpaceOnUse" id="gradient26" r="819.2" spreadMethod="pad">
      <stop offset="0.0" stop-color="#dbe9f2"/>
      <stop offset="1.0" stop-color="#b1bdc5"/>
    </radialGradient>
    <radialGradient cx="0" cy="0" gradientTransform="matrix(0.0212, 0.0179, 0.0198, -0.023, -2.95, 42.8)" gradientUnits="userSpaceOnUse" id="gradient27" r="819.2" spreadMethod="pad">
      <stop offset="0.0" stop-color="#39a2e3"/>
      <stop offset="1.0" stop-color="#226892"/>
    </radialGradient>
    <g id="shape2" transform="matrix(1.0, 0.0, 0.0, 1.0, 3.9, 37.3)">
      <path d="M0.75 36.25 L1.05 36.2 1.3 11.35 1.55 -7.7 Q1.8 -22.75 1.2 -37.3 L2.7 -37.3 2.7 -35.2 Q2.2 -17.7 2.2 -0.15 L2.2 35.9 1.8 36.1 0.75 36.25 M-1.15 -37.3 L-1.0 -34.7 Q-0.85 -33.65 -0.85 -32.4 L-0.7 5.7 Q-0.6 20.95 -1.05 36.35 L-2.0 36.3 -1.8 12.2 -1.8 -26.2 Q-1.8 -31.0 -2.35 -35.75 L-2.45 -37.3 -1.15 -37.3" fill="#8f8f8f" fill-rule="evenodd" stroke="none"/>
      <path d="M2.2 35.9 L2.2 -0.15 Q2.2 -17.7 2.7 -35.2 L2.7 34.95 2.75 35.1 Q2.75 35.6 2.2 35.9 M-2.45 -37.3 L-2.35 -35.75 Q-1.8 -31.0 -1.8 -26.2 L-1.8 12.2 -2.0 36.3 Q-3.9 36.05 -3.9 35.1 L-3.85 34.75 -3.85 -37.3 -2.45 -37.3" fill="#787878" fill-rule="evenodd" stroke="none"/>
      <path d="M1.2 -37.3 Q1.8 -22.75 1.55 -7.7 L1.3 11.35 1.05 36.2 0.75 36.25 -0.05 36.35 -0.6 36.35 -1.05 36.35 Q-0.6 20.95 -0.7 5.7 L-0.85 -32.4 Q-0.85 -33.65 -1.0 -34.7 L-1.15 -37.3 1.2 -37.3" fill="#b2b2b2" fill-rule="evenodd" stroke="none"/>
    </g>
    <g id="shape3" transform="matrix(1.0, 0.0, 0.0, 1.0, 22.2, 21.1)">
      <path d="M22.15 5.1 L4.25 19.95 -22.0 18.7 -22.2 17.9 3.0 1.35 22.05 4.0 22.15 5.1" fill="#474a4f" fill-rule="evenodd" stroke="none"/>
      <path d="M22.05 4.0 L22.15 5.1 2.85 21.05 2.9 19.9 22.05 4.0" fill="#5e5d5b" fill-rule="evenodd" stroke="none"/>
      <path d="M9.5 11.7 L21.35 3.9 21.7 4.1 4.8 17.7 9.5 11.7" fill="#2d2e33" fill-rule="evenodd" stroke="none"/>
      <path d="M21.75 4.3 Q17.35 8.6 5.65 17.7 L21.75 4.3" fill="#d7d7d7" fill-rule="evenodd" stroke="none"/>
      <path d="M18.5 0.8 L2.8 18.15 2.1 -4.95 0.75 -7.9 Q-1.05 -11.1 -3.2 -12.55 -5.5 -14.05 -10.55 -13.65 L-15.15 -12.95 -1.2 -20.1 5.8 -21.1 Q13.65 -21.15 18.2 -16.3 20.2 -14.15 20.0 -11.8 19.85 -10.65 19.35 -9.9 L18.5 0.8" fill="#cbc9c7" fill-rule="evenodd" stroke="none"/>
      <path d="M3.15 -12.6 Q5.2 -11.7 4.15 -4.85 3.6 -1.4 2.65 1.85 L-21.35 17.8 -21.55 -2.35 Q-21.5 -4.35 -20.0 -6.9 -18.45 -9.55 -16.05 -11.5 -13.65 -13.5 -7.05 -13.85 -0.5 -14.2 3.15 -12.6" fill="url(#gradient28)" fill-rule="evenodd" stroke="none"/>
      <path d="M4.55 9.9 L3.2 18.7 1.4 18.5 0.7 -4.3 Q-2.45 -13.5 -10.4 -13.0 -16.55 -12.6 -19.4 -7.6 -20.8 -5.1 -21.0 -2.7 L-20.45 17.95 -21.3 17.85 -21.9 -2.9 Q-21.85 -5.6 -20.15 -8.35 -16.7 -13.9 -8.3 -14.3 -4.1 -14.5 0.15 -11.9 5.1 -8.95 5.45 -4.25 5.8 0.2 4.55 9.9" fill="#c8c5c1" fill-rule="evenodd" stroke="none"/>
      <path d="M20.45 -12.3 L21.0 -10.1 21.35 3.9 3.25 18.6 2.55 -4.5 1.25 -7.45 Q-0.5 -10.65 -2.6 -12.1 -4.85 -13.6 -8.45 -13.9 L-11.6 -13.95 -1.1 -19.65 0.8 -20.2 5.55 -20.75 Q13.25 -20.9 18.35 -16.0 19.65 -14.8 20.45 -12.3" fill="url(#gradient29)" fill-rule="evenodd" stroke="none"/>
      <path d="M5.9 9.3 Q17.1 7.05 21.2 -2.85 L21.35 3.9 3.25 18.6 2.95 9.2 5.9 9.3" fill="#706b68" fill-rule="evenodd" stroke="none"/>
      <path d="M-7.65 -13.15 Q-6.6 -13.2 -7.2 -12.9 L-7.65 -13.15" fill="url(#gradient30)" fill-rule="evenodd" stroke="none"/>
      <path d="M6.45 15.25 Q6.45 15.9 6.1 16.35 5.7 16.8 5.2 16.8 4.7 16.8 4.3 16.35 3.95 15.9 3.95 15.25 3.95 14.65 4.35 14.2 4.7 13.75 5.2 13.75 5.7 13.75 6.1 14.2 6.45 14.65 6.45 15.25" fill="#494747" fill-rule="evenodd" stroke="none"/>
      <path d="M6.35 14.55 Q6.35 15.2 6.0 15.65 L5.15 16.1 Q4.65 16.1 4.25 15.65 3.9 15.2 3.9 14.55 3.9 13.9 4.25 13.45 4.65 13.0 5.15 13.05 5.65 13.05 6.05 13.5 6.4 13.95 6.35 14.55" fill="url(#gradient31)" fill-rule="evenodd" stroke="none"/>
      <path d="M11.15 11.45 L10.8 12.5 Q10.5 12.9 10.0 12.9 9.5 12.9 9.2 12.5 8.85 12.05 8.85 11.45 8.9 10.8 9.25 10.4 9.55 9.95 10.05 10.0 L10.85 10.45 Q11.2 10.85 11.15 11.45" fill="#494747" fill-rule="evenodd" stroke="none"/>
      <path d="M11.1 10.8 Q11.1 11.4 10.75 11.85 10.45 12.25 9.95 12.25 9.45 12.25 9.15 11.8 8.8 11.35 8.8 10.75 8.85 10.15 9.2 9.75 L10.0 9.3 Q10.5 9.3 10.8 9.75 11.15 10.2 11.1 10.8" fill="url(#gradient32)" fill-rule="evenodd" stroke="none"/>
      <path d="M15.05 8.25 L14.75 9.1 Q14.45 9.45 14.05 9.45 13.65 9.45 13.4 9.1 13.1 8.7 13.15 8.2 13.15 7.7 13.45 7.3 13.75 6.95 14.15 6.95 L14.8 7.35 Q15.1 7.75 15.05 8.25" fill="#494747" fill-rule="evenodd" stroke="none"/>
      <path d="M15.05 7.65 L14.7 8.55 Q14.45 8.9 14.05 8.9 13.1 8.8 13.1 7.6 13.1 7.1 13.4 6.7 13.7 6.35 14.1 6.35 15.05 6.45 15.05 7.65" fill="url(#gradient33)" fill-rule="evenodd" stroke="none"/>
      <path d="M18.6 5.2 L18.35 5.95 Q18.1 6.3 17.75 6.25 16.9 6.25 16.9 5.15 L17.2 4.35 Q17.45 4.0 17.8 4.05 18.15 4.05 18.4 4.4 L18.6 5.2" fill="#494747" fill-rule="evenodd" stroke="none"/>
      <path d="M18.6 4.7 Q18.5 5.75 17.7 5.75 17.35 5.75 17.1 5.4 16.85 5.1 16.9 4.6 16.9 4.15 17.15 3.85 17.45 3.5 17.8 3.5 18.6 3.6 18.6 4.7" fill="url(#gradient34)" fill-rule="evenodd" stroke="none"/>
      <path d="M21.3 2.9 Q21.2 3.8 20.65 3.8 20.0 3.7 20.1 2.8 L20.3 2.15 20.75 1.95 Q21.3 1.95 21.3 2.9" fill="#494747" fill-rule="evenodd" stroke="none"/>
      <path d="M21.3 2.45 Q21.2 3.35 20.65 3.35 20.05 3.35 20.05 2.4 20.15 1.4 20.75 1.5 21.3 1.5 21.3 2.45" fill="url(#gradient35)" fill-rule="evenodd" stroke="none"/>
      <path d="M14.45 -0.55 Q13.2 0.25 12.05 -0.7 10.9 -1.7 10.85 -3.95 10.85 -6.0 12.2 -7.05 13.55 -8.1 14.65 -6.85 16.3 -5.0 15.95 -3.0 15.7 -1.35 14.45 -0.55" fill="#333335" fill-rule="evenodd" stroke="none"/>
      <path d="M14.2 -1.4 L11.9 -1.45 Q10.75 -2.35 10.8 -4.45 10.9 -6.35 12.2 -7.4 L14.6 -7.3 Q16.15 -5.6 15.75 -3.75 15.45 -2.2 14.2 -1.4" fill="url(#gradient36)" fill-rule="evenodd" stroke="none"/>
      <path d="M14.55 -1.6 Q13.45 -0.9 12.45 -1.75 11.35 -2.65 11.5 -4.65 11.6 -6.45 12.7 -7.4 13.8 -8.35 14.75 -7.05 16.05 -5.3 15.8 -3.65 15.55 -2.25 14.55 -1.6" fill="#ffffff" fill-rule="evenodd" stroke="none"/>
      <path d="M14.55 -1.6 Q13.45 -0.9 12.55 -1.75 11.6 -2.65 11.75 -4.6 11.85 -6.35 12.8 -7.25 13.85 -8.15 14.75 -7.05 16.1 -5.4 15.8 -3.65 15.6 -2.25 14.55 -1.6" fill="url(#gradient37)" fill-rule="evenodd" stroke="none"/>
      <path d="M15.5 -3.3 Q15.5 -2.65 15.15 -2.2 14.85 -1.7 14.35 -1.7 13.9 -1.7 13.6 -2.2 13.25 -2.65 13.25 -3.3 13.25 -3.95 13.6 -4.45 13.9 -4.9 14.35 -4.9 14.85 -4.9 15.15 -4.45 L15.5 -3.3" fill="#373838" fill-rule="evenodd" stroke="none"/>
    </g>
    <linearGradient gradientTransform="matrix(0.0163, -0.0011, -6.0E-4, -0.0162, -8.5, 1.6)" gradientUnits="userSpaceOnUse" id="gradient28" spreadMethod="pad" x1="-819.2" x2="819.2">
      <stop offset="0.0" stop-color="#929292"/>
      <stop offset="1.0" stop-color="#545454"/>
    </linearGradient>
    <linearGradient gradientTransform="matrix(0.0117, 0.021, 0.0212, -0.011, 8.7, -3.05)" gradientUnits="userSpaceOnUse" id="gradient29" spreadMethod="pad" x1="-819.2" x2="819.2">
      <stop offset="0.043137254901960784" stop-color="#b3b2ad"/>
      <stop offset="0.0784313725490196" stop-color="#74726f"/>
      <stop offset="0.29411764705882354" stop-color="#dcdbd5"/>
      <stop offset="0.6392156862745098" stop-color="#7e7e7e"/>
      <stop offset="1.0" stop-color="#68625e"/>
    </linearGradient>
    <linearGradient gradientTransform="matrix(-9.0E-4, -0.0186, -0.0186, 4.0E-4, -7.0, 2.2)" gradientUnits="userSpaceOnUse" id="gradient30" spreadMethod="pad" x1="-819.2" x2="819.2">
      <stop offset="0.0" stop-color="#929292"/>
      <stop offset="1.0" stop-color="#545454"/>
    </linearGradient>
    <radialGradient cx="0" cy="0" gradientTransform="matrix(0.0015, 0.0, 0.0, -0.0018, 4.65, 13.8)" gradientUnits="userSpaceOnUse" id="gradient31" r="819.2" spreadMethod="pad">
      <stop offset="0.043137254901960784" stop-color="#b3b2ad"/>
      <stop offset="1.0" stop-color="#58524f"/>
    </radialGradient>
    <radialGradient cx="0" cy="0" gradientTransform="matrix(0.0015, 0.0, 0.0, -0.0017, 9.5, 10.05)" gradientUnits="userSpaceOnUse" id="gradient32" r="819.2" spreadMethod="pad">
      <stop offset="0.043137254901960784" stop-color="#b3b2ad"/>
      <stop offset="1.0" stop-color="#58524f"/>
    </radialGradient>
    <radialGradient cx="0" cy="0" gradientTransform="matrix(0.0013, 0.0, 0.0, -0.0014, 13.7, 7.0)" gradientUnits="userSpaceOnUse" id="gradient33" r="819.2" spreadMethod="pad">
      <stop offset="0.043137254901960784" stop-color="#b3b2ad"/>
      <stop offset="1.0" stop-color="#58524f"/>
    </radialGradient>
    <radialGradient cx="0" cy="0" gradientTransform="matrix(0.0011, 0.0, 0.0, -0.0013, 17.4, 4.1)" gradientUnits="userSpaceOnUse" id="gradient34" r="819.2" spreadMethod="pad">
      <stop offset="0.043137254901960784" stop-color="#b3b2ad"/>
      <stop offset="1.0" stop-color="#58524f"/>
    </radialGradient>
    <radialGradient cx="0" cy="0" gradientTransform="matrix(8.0E-4, 0.0, 0.0, -0.0011, 20.45, 1.95)" gradientUnits="userSpaceOnUse" id="gradient35" r="819.2" spreadMethod="pad">
      <stop offset="0.043137254901960784" stop-color="#b3b2ad"/>
      <stop offset="1.0" stop-color="#58524f"/>
    </radialGradient>
    <linearGradient gradientTransform="matrix(0.0014, 0.0044, 0.004, -8.0E-4, 13.25, -4.65)" gradientUnits="userSpaceOnUse" id="gradient36" spreadMethod="pad" x1="-819.2" x2="819.2">
      <stop offset="0.0" stop-color="#767676"/>
      <stop offset="1.0" stop-color="#101010"/>
    </linearGradient>
    <linearGradient gradientTransform="matrix(0.0023, 0.0027, 0.0027, -0.0023, 13.7, -4.35)" gradientUnits="userSpaceOnUse" id="gradient37" spreadMethod="pad" x1="-819.2" x2="819.2">
      <stop offset="0.0" stop-color="#dfdfdf"/>
      <stop offset="0.6862745098039216" stop-color="#7c7873"/>
      <stop offset="1.0" stop-color="#aaa09a"/>
    </linearGradient>
    <g id="shape4" transform="matrix(1.0, 0.0, 0.0, 1.0, 13.15, 34.7)">
      <path d="M10.75 -26.45 L10.4 -27.0 8.85 -29.2 7.3 -30.75 5.5 -31.95 Q2.15 -33.85 -2.45 -33.5 -6.5 -33.2 -9.75 -30.1 -12.6 -27.4 -12.8 -25.0 L-12.9 -23.15 -12.9 -22.55 -12.9 -22.35 -12.9 -22.0 -12.95 -21.65 -13.1 -15.5 Q-13.2 -21.65 -12.95 -25.35 -12.85 -26.75 -11.8 -28.25 L-9.95 -30.45 Q-6.65 -33.55 -2.65 -33.85 4.8 -34.4 8.9 -29.25 L10.75 -26.45 M-3.05 -21.25 Q-2.55 -21.35 -2.05 -21.8 -1.2 -22.65 -1.85 -24.15 -2.45 -25.7 -3.65 -25.45 L-4.55 -25.0 Q-4.15 -25.55 -3.5 -25.65 L-3.3 -25.65 Q-2.25 -25.75 -1.65 -24.3 -0.95 -22.7 -1.85 -21.85 L-2.05 -21.6 Q-2.55 -21.25 -3.05 -21.25" fill="#ffffff" fill-rule="evenodd" stroke="none"/>
      <path d="M-12.95 -21.65 L-12.9 -22.0 -12.9 -22.35 -12.9 -22.55 -12.9 -23.15 -12.8 -25.0 Q-12.6 -27.4 -9.75 -30.1 -6.5 -33.2 -2.45 -33.5 2.15 -33.85 5.5 -31.95 L7.3 -30.75 8.85 -29.2 10.4 -27.0 10.75 -26.45 10.75 -26.4 11.0 -25.8 11.1 -25.6 11.65 -23.95 11.7 -23.75 Q9.75 -25.95 6.8 -26.85 L-0.75 -27.55 Q-4.95 -27.5 -8.2 -25.45 -11.15 -23.65 -12.95 -20.5 L-12.95 -21.65" fill="url(#gradient38)" fill-rule="evenodd" stroke="none"/>
      <path d="M10.75 -26.45 L8.9 -29.25 Q4.8 -34.4 -2.65 -33.85 -6.65 -33.55 -9.95 -30.45 L-11.8 -28.25 -9.2 -31.2 Q-5.55 -34.35 -1.45 -34.65 5.95 -35.2 10.05 -30.05 12.15 -27.5 12.7 -24.85 L13.1 -0.45 12.1 0.25 11.7 -23.75 11.65 -23.95 11.1 -25.6 11.0 -25.8 10.75 -26.4 10.75 -26.45" fill="url(#gradient39)" fill-rule="evenodd" stroke="none"/>
      <path d="M-12.85 -5.55 Q-4.55 -4.45 1.6 -7.2 9.1 -10.5 11.8 -15.6 L12.1 0.65 11.2 1.0 -12.75 -0.45 -12.9 -5.55 -12.85 -5.55" fill="url(#gradient40)" fill-rule="evenodd" stroke="none"/>
      <path d="M-13.1 -15.5 L-12.95 -21.65 -12.95 -20.5 Q-11.15 -23.65 -8.2 -25.45 -4.95 -27.5 -0.75 -27.55 L6.8 -26.85 Q9.75 -25.95 11.7 -23.75 L12.1 0.25 12.1 0.65 11.8 -15.6 Q9.1 -10.5 1.6 -7.2 -4.55 -4.45 -12.85 -5.55 L-13.1 -15.5 M-4.55 -25.0 L-5.15 -24.15 Q-5.6 -23.05 -5.1 -22.3 -4.55 -21.45 -3.75 -21.25 L-3.4 -21.2 -2.4 -20.55 Q-1.35 -20.25 -0.5 -21.25 0.45 -22.3 -0.25 -24.2 -0.95 -26.15 -2.3 -25.85 L-2.8 -25.85 -3.3 -25.65 -3.5 -25.65 Q-4.15 -25.55 -4.55 -25.0" fill="url(#gradient41)" fill-rule="evenodd" stroke="none"/>
      <path d="M-4.55 -25.0 L-3.65 -25.45 Q-2.45 -25.7 -1.85 -24.15 -1.2 -22.65 -2.05 -21.8 -2.55 -21.35 -3.05 -21.25 L-3.4 -21.2 -3.75 -21.25 Q-4.55 -21.45 -5.1 -22.3 -5.6 -23.05 -5.15 -24.15 L-4.55 -25.0" fill="url(#gradient42)" fill-rule="evenodd" stroke="none"/>
      <path d="M-2.05 -21.6 L-1.85 -21.85 Q-0.95 -22.7 -1.65 -24.3 -2.25 -25.75 -3.3 -25.65 L-2.8 -25.85 -2.3 -25.85 Q-1.45 -25.7 -0.95 -24.55 -0.35 -23.0 -1.2 -22.15 -1.6 -21.75 -2.05 -21.6" fill="url(#gradient43)" fill-rule="evenodd" stroke="none"/>
      <path d="M-3.4 -21.2 L-3.05 -21.25 Q-2.55 -21.25 -2.05 -21.6 -1.6 -21.75 -1.2 -22.15 -0.35 -23.0 -0.95 -24.55 -1.45 -25.7 -2.3 -25.85 -0.95 -26.15 -0.25 -24.2 0.45 -22.3 -0.5 -21.25 -1.35 -20.25 -2.4 -20.55 L-3.4 -21.2" fill="#746b67" fill-rule="evenodd" stroke="none"/>
    </g>
    <linearGradient gradientTransform="matrix(0.0029, 0.0196, 0.0196, -0.0029, 0.05, -17.3)" gradientUnits="userSpaceOnUse" id="gradient38" spreadMethod="pad" x1="-819.2" x2="819.2">
      <stop offset="0.0" stop-color="#f5f5f5"/>
      <stop offset="1.0" stop-color="#88807b"/>
    </linearGradient>
    <linearGradient gradientTransform="matrix(0.0097, 0.0198, 0.0198, -0.0097, -0.3, -15.55)" gradientUnits="userSpaceOnUse" id="gradient39" spreadMethod="pad" x1="-819.2" x2="819.2">
      <stop offset="0.0" stop-color="#e0e0e0"/>
      <stop offset="0.0392156862745098" stop-color="#c3c2c1"/>
      <stop offset="0.08627450980392157" stop-color="#a8a6a5"/>
      <stop offset="0.1411764705882353" stop-color="#928f8c"/>
      <stop offset="0.2" stop-color="#807d7a"/>
      <stop offset="0.27058823529411763" stop-color="#74706c"/>
      <stop offset="0.36470588235294116" stop-color="#6c6864"/>
      <stop offset="0.5568627450980392" stop-color="#6a6662"/>
      <stop offset="0.7529411764705882" stop-color="#8f8983"/>
      <stop offset="1.0" stop-color="#5a5551"/>
    </linearGradient>
    <linearGradient gradientTransform="matrix(0.0033, 0.0214, 0.0214, -0.0033, 0.4, -2.2)" gradientUnits="userSpaceOnUse" id="gradient40" spreadMethod="pad" x1="-819.2" x2="819.2">
      <stop offset="0.0" stop-color="#cacaca"/>
      <stop offset="1.0" stop-color="#2b2727"/>
    </linearGradient>
    <linearGradient gradientTransform="matrix(0.0034, 0.0221, 0.0221, -0.0034, -1.05, -15.4)" gradientUnits="userSpaceOnUse" id="gradient41" spreadMethod="pad" x1="-819.2" x2="819.2">
      <stop offset="0.0" stop-color="#f5f5f5"/>
      <stop offset="1.0" stop-color="#68625e"/>
    </linearGradient>
    <linearGradient gradientTransform="matrix(0.0, 0.0025, 0.0025, 0.0, -3.5, -23.4)" gradientUnits="userSpaceOnUse" id="gradient42" spreadMethod="pad" x1="-819.2" x2="819.2">
      <stop offset="0.0" stop-color="#dfdfdf"/>
      <stop offset="0.792156862745098" stop-color="#88807b"/>
      <stop offset="1.0" stop-color="#a59b96"/>
    </linearGradient>
    <linearGradient gradientTransform="matrix(0.0, 0.0025, 0.0025, 0.0, -2.6, -23.8)" gradientUnits="userSpaceOnUse" id="gradient43" spreadMethod="pad" x1="-819.2" x2="819.2">
      <stop offset="0.0" stop-color="#c7c4c3"/>
      <stop offset="1.0" stop-color="#7a7571"/>
    </linearGradient>
    <g id="shape5" transform="matrix(1.0, 0.0, 0.0, 1.0, 1.4, 11.95)">
      <path d="M5.6 -7.9 L5.55 -7.0 Q5.35 -6.5 4.25 -6.2 L3.2 -7.8 2.1 -8.5 1.85 -8.65 1.5 -6.35 Q1.15 -3.9 1.15 -2.9 L0.95 -0.5 Q0.7 1.1 0.05 0.85 -0.65 0.6 -0.3 -0.3 L-0.4 -1.15 -0.6 -8.75 -1.0 -11.95 0.35 -11.85 Q1.1 -11.7 2.55 -10.75 L5.5 -8.3 5.6 -7.9" fill="url(#gradient44)" fill-rule="evenodd" stroke="none"/>
      <path d="M4.95 -8.0 L5.05 -7.6 5.0 -6.7 4.35 -6.2 2.65 -7.5 1.55 -8.25 1.3 -8.35 0.95 -6.2 Q0.6 -3.75 0.6 -2.8 L0.6 -0.3 Q0.55 1.1 -0.05 0.8 -0.6 0.6 -0.85 -0.3 L-0.95 -1.1 -1.15 -8.5 -0.95 -11.9 -0.35 -11.7 2.0 -10.45 4.95 -8.0" fill="#ff948b" fill-rule="evenodd" stroke="none"/>
      <path d="M4.75 -8.0 L4.85 -7.6 4.8 -6.75 Q4.6 -6.3 4.15 -6.2 L2.45 -7.55 1.35 -8.3 1.1 -8.4 0.75 -6.25 Q0.4 -3.85 0.4 -2.9 L0.4 -0.4 Q0.35 0.95 -0.25 0.65 -0.8 0.45 -1.05 -0.45 L-1.15 -1.25 -1.35 -8.6 -1.15 -11.9 -0.55 -11.7 1.8 -10.45 4.75 -8.0" fill="url(#gradient45)" fill-rule="evenodd" stroke="none"/>
    </g>
    <linearGradient gradientTransform="matrix(-7.0E-4, 0.0081, 0.012, 0.0082, 2.2, -4.7)" gradientUnits="userSpaceOnUse" id="gradient44" spreadMethod="pad" x1="-819.2" x2="819.2">
      <stop offset="0.0" stop-color="#fa0928"/>
      <stop offset="1.0" stop-color="#a81621"/>
    </linearGradient>
    <linearGradient gradientTransform="matrix(-7.0E-4, 0.0077, 0.012, 0.0082, 1.45, -4.6)" gradientUnits="userSpaceOnUse" id="gradient45" spreadMethod="pad" x1="-819.2" x2="819.2">
      <stop offset="0.0" stop-color="#ff4a3f"/>
      <stop offset="1.0" stop-color="#ab1f1a"/>
    </linearGradient>
  </defs>
</svg>
