<?xml version="1.0" encoding="UTF-8" standalone="no"?>
<svg xmlns:xlink="http://www.w3.org/1999/xlink" height="62.15px" width="27.15px" xmlns="http://www.w3.org/2000/svg">
  <g transform="matrix(1.0, 0.0, 0.0, 1.0, 0.0, 0.0)">
    <use height="62.15" transform="matrix(1.0, 0.0, 0.0, 1.0, 0.0, 0.0)" width="27.15" xlink:href="#shape0"/>
  </g>
  <defs>
    <g id="shape0" transform="matrix(1.0, 0.0, 0.0, 1.0, 0.0, 0.0)">
      <path d="M10.45 17.9 L12.35 17.85 Q13.65 18.65 13.0 19.35 L11.05 19.45 Q9.8 18.85 10.45 17.9" fill="#5f2c31" fill-rule="evenodd" stroke="none"/>
      <path d="M15.3 9.7 Q14.55 8.05 14.55 6.1 14.6 2.15 18.3 0.55 22.0 -1.1 25.2 2.2 28.4 5.45 26.4 8.6 24.75 11.2 22.2 11.9 L20.0 12.05 15.3 9.7" fill="#5f7968" fill-rule="evenodd" stroke="none"/>
      <path d="M22.7 0.5 Q21.75 0.7 20.7 1.2 18.7 2.2 18.5 4.0 18.3 5.85 19.5 9.15 L20.8 12.05 20.6 12.1 20.0 12.05 15.3 9.7 Q14.55 8.05 14.55 6.1 14.6 2.15 18.3 0.55 20.4 -0.35 22.7 0.5" fill="#4c6154" fill-rule="evenodd" stroke="none"/>
      <path d="M1.55 56.2 Q2.05 54.9 3.65 53.5 6.9 50.7 12.5 50.4 18.15 50.1 21.75 53.25 23.55 54.85 24.25 56.5 L21.4 58.7 Q17.5 60.9 12.5 60.9 7.5 60.9 4.05 58.55 L1.55 56.2" fill="#d54d5c" fill-rule="evenodd" stroke="none"/>
      <path d="M11.1 51.6 Q11.6 50.85 13.4 51.0 15.15 51.1 15.2 51.7 L14.4 52.15 12.95 52.45 Q12.35 52.45 11.65 52.1 L11.1 51.6" fill="#672e35" fill-rule="evenodd" stroke="none"/>
      <path d="M9.5 41.3 Q7.75 29.95 8.15 25.35 8.55 20.75 11.8 16.35 13.45 14.15 15.0 12.85 L17.5 14.2 Q15.15 15.8 13.1 18.95 8.9 25.3 10.15 33.2 11.2 39.85 13.2 46.45 L15.0 51.7 Q13.5 52.35 12.65 52.2 L11.65 51.9 11.3 51.7 Q10.35 46.95 9.5 41.3" fill="#a2b2a7" fill-rule="evenodd" stroke="none"/>
      <path d="M12.75 17.4 L10.7 20.0 Q8.7 23.55 8.8 28.35 8.9 35.05 13.15 52.2 L12.65 52.2 11.65 51.9 11.3 51.7 Q10.35 46.95 9.5 41.3 7.75 29.95 8.15 25.35 8.6 20.4 12.3 15.7 L12.75 17.4" fill="#809788" fill-rule="evenodd" stroke="none"/>
      <path d="M10.45 17.9 L15.3 9.7 16.35 9.55 18.5 9.85 Q20.0 10.55 20.8 12.05 L13.0 19.35 12.6 18.5 Q11.9 17.7 10.45 17.9" fill="#d54d5c" fill-rule="evenodd" stroke="none"/>
      <path d="M25.3 59.2 L22.15 60.45 Q17.95 61.75 12.8 62.05 7.7 62.35 3.35 60.8 1.15 60.05 0.0 59.2 L1.75 55.85 3.95 57.2 Q7.2 58.55 12.3 58.55 17.45 58.55 21.25 57.35 23.15 56.75 24.05 56.15 L25.3 59.2" fill="#9f3e49" fill-rule="evenodd" stroke="none"/>
      <path d="M10.65 21.4 L10.9 21.75 9.8 26.1 Q9.05 29.0 9.5 32.15 9.05 30.25 9.15 27.6 9.25 25.9 9.95 23.5 L10.65 21.4" fill="#c1d3c5" fill-rule="evenodd" stroke="none"/>
      <path d="M14.15 51.4 L13.4 51.7 10.85 39.6 14.15 51.4" fill="#c1d3c5" fill-rule="evenodd" stroke="none"/>
      <path d="M15.3 9.7 L16.35 9.55 18.5 9.85 11.85 18.0 10.45 17.9 15.3 9.7" fill="#9f3e49" fill-rule="evenodd" stroke="none"/>
      <path d="M19.05 11.35 L17.8 13.6 20.25 11.9 13.8 18.0 14.85 16.4 Q13.9 17.1 12.9 17.75 L19.05 11.35" fill="#de7a7a" fill-rule="evenodd" stroke="none"/>
      <path d="M13.25 57.5 Q16.25 57.3 17.75 56.15 18.75 55.35 17.75 53.45 L16.5 51.7 19.35 52.45 Q22.2 53.5 22.25 55.2 22.3 56.9 17.45 57.35 L13.25 57.5" fill="#de7a7a" fill-rule="evenodd" stroke="none"/>
      <path d="M8.35 51.5 L6.6 52.7 Q4.9 54.15 5.0 55.4 5.05 56.65 7.3 57.3 L9.55 57.7 6.4 57.4 Q4.35 57.1 2.25 55.7 L4.4 53.7 Q5.35 52.9 6.95 52.15 7.65 51.85 8.35 51.5" fill="#a9414d" fill-rule="evenodd" stroke="none"/>
      <path d="M8.25 58.35 L7.85 59.35 Q7.6 60.45 8.4 60.9 L15.6 61.25 21.9 60.45 Q17.15 61.9 13.4 62.1 7.7 62.35 3.3 60.8 1.1 60.05 0.0 59.2 L1.75 55.85 3.35 56.8 Q5.45 57.9 8.25 58.35" fill="#6a2f36" fill-rule="evenodd" stroke="none"/>
    </g>
  </defs>
</svg>
