<?xml version="1.0" encoding="UTF-8" standalone="no"?>
<svg xmlns:xlink="http://www.w3.org/1999/xlink" height="17.6px" width="51.65px" xmlns="http://www.w3.org/2000/svg">
  <g transform="matrix(1.0, 0.0, 0.0, 1.0, 0.0, 0.0)">
    <use height="15.15" transform="matrix(1.0, 0.0, 0.0, 1.0, 2.75, 2.45)" width="46.1" xlink:href="#shape0"/>
  </g>
  <defs>
    <g id="shape0" transform="matrix(1.0, 0.0, 0.0, 1.0, -2.75, -2.45)">
      <path d="M43.45 11.05 Q39.45 12.25 34.1 12.45 27.45 12.7 23.0 11.3 L19.9 9.9 Q21.75 9.25 23.9 7.65 L27.95 4.95 31.0 3.1 Q32.55 2.3 33.15 2.45 34.05 2.65 37.45 4.75 L44.35 8.7 46.25 9.9 Q45.35 10.45 43.45 11.05" fill="url(#gradient0)" fill-rule="evenodd" stroke="none"/>
      <path d="M44.15 8.9 Q45.15 9.5 44.25 9.75 43.35 10.0 43.1 9.5 42.95 9.05 43.3 8.85 L44.15 8.9" fill="#592e04" fill-rule="evenodd" stroke="none"/>
      <path d="M39.9 6.6 Q40.75 7.15 39.85 7.4 38.85 7.6 38.8 7.1 38.75 6.7 39.1 6.55 L39.9 6.6" fill="#592e04" fill-rule="evenodd" stroke="none"/>
      <path d="M42.55 8.65 Q43.1 9.3 42.2 9.45 41.25 9.7 41.25 9.1 41.2 8.55 41.65 8.45 42.1 8.25 42.55 8.65" fill="#592e04" fill-rule="evenodd" stroke="none"/>
      <path d="M39.4 8.1 Q39.9 8.75 39.3 8.95 L38.4 8.85 Q38.15 8.5 38.6 8.15 L39.4 8.1" fill="#592e04" fill-rule="evenodd" stroke="none"/>
      <path d="M37.35 5.25 Q38.1 5.4 38.15 5.85 38.3 6.35 37.8 6.35 37.35 6.35 37.15 5.75 36.9 5.15 37.35 5.25" fill="#592e04" fill-rule="evenodd" stroke="none"/>
      <path d="M35.45 3.95 Q36.15 4.2 36.1 4.75 36.0 5.3 35.65 5.1 L35.35 4.4 Q35.25 3.95 35.45 3.95" fill="#592e04" fill-rule="evenodd" stroke="none"/>
      <path d="M37.0 6.75 Q37.8 7.45 37.2 7.8 36.5 8.2 36.3 7.65 36.1 7.2 36.4 6.85 L37.0 6.75" fill="#592e04" fill-rule="evenodd" stroke="none"/>
      <path d="M39.25 10.15 Q39.95 10.5 39.45 10.85 L38.55 10.8 Q38.25 10.4 38.55 10.2 L39.25 10.15" fill="#592e04" fill-rule="evenodd" stroke="none"/>
      <path d="M41.65 10.25 Q42.3 10.35 41.85 10.65 L41.1 10.85 Q40.85 10.7 41.05 10.45 41.25 10.2 41.65 10.25" fill="#592e04" fill-rule="evenodd" stroke="none"/>
      <path d="M21.15 8.9 L21.45 9.6 21.0 9.75 19.7 9.55 Q19.1 9.35 19.4 8.9 19.7 8.55 20.35 8.55 21.0 8.55 21.15 8.9" fill="url(#gradient1)" fill-rule="evenodd" stroke="none"/>
      <path d="M19.2 9.5 Q19.65 9.8 18.6 10.1 17.55 10.35 17.45 9.95 17.4 9.55 18.0 9.35 L19.2 9.5" fill="url(#gradient2)" fill-rule="evenodd" stroke="none"/>
      <path d="M25.3 9.8 Q26.75 9.9 26.2 10.55 25.6 11.2 24.85 10.95 24.2 10.75 24.45 10.25 24.7 9.75 25.3 9.8" fill="url(#gradient3)" fill-rule="evenodd" stroke="none"/>
      <path d="M22.8 10.4 Q23.5 10.25 23.2 10.8 22.9 11.35 22.5 11.15 22.1 10.95 22.2 10.7 22.3 10.5 22.8 10.4" fill="url(#gradient4)" fill-rule="evenodd" stroke="none"/>
      <path d="M34.1 11.6 Q34.5 12.05 34.2 12.35 33.85 12.8 32.65 12.65 31.4 12.5 31.35 12.2 31.25 12.05 31.8 11.5 32.2 11.05 32.95 11.1 33.65 11.15 34.1 11.6" fill="url(#gradient5)" fill-rule="evenodd" stroke="none"/>
      <path d="M40.35 12.25 Q40.25 12.7 39.55 12.8 L38.3 12.6 Q37.7 12.4 38.0 12.0 38.2 11.6 38.8 11.5 39.45 11.3 39.9 11.5 40.5 11.7 40.35 12.25" fill="url(#gradient6)" fill-rule="evenodd" stroke="none"/>
      <path d="M37.2 12.75 Q37.8 13.05 37.2 13.3 L36.1 13.4 Q35.5 13.3 36.1 12.9 L37.2 12.75" fill="url(#gradient7)" fill-rule="evenodd" stroke="none"/>
      <path d="M29.7 12.25 Q30.3 12.5 29.7 12.9 L28.45 12.95 Q27.8 12.6 28.45 12.35 L29.7 12.25" fill="url(#gradient8)" fill-rule="evenodd" stroke="none"/>
      <path d="M23.55 11.4 Q24.15 11.5 24.15 11.8 24.2 12.05 23.7 12.05 23.25 12.05 23.25 11.7 23.15 11.35 23.55 11.4" fill="url(#gradient9)" fill-rule="evenodd" stroke="none"/>
      <path d="M46.65 11.5 Q47.35 11.7 47.0 12.05 L45.9 12.2 Q45.25 12.05 45.75 11.65 46.2 11.3 46.65 11.5" fill="url(#gradient10)" fill-rule="evenodd" stroke="none"/>
      <path d="M46.65 9.5 Q47.1 9.55 47.15 10.0 L46.8 10.65 45.75 10.7 45.15 10.25 Q45.15 9.95 45.45 9.7 45.9 9.35 46.65 9.5" fill="url(#gradient11)" fill-rule="evenodd" stroke="none"/>
      <path d="M42.85 11.15 Q44.35 11.4 43.65 12.3 L42.8 12.5 Q42.1 12.4 41.7 12.05 41.25 11.65 41.75 11.35 L42.85 11.15" fill="url(#gradient12)" fill-rule="evenodd" stroke="none"/>
      <path d="M41.85 12.0 Q42.5 12.0 42.75 12.4 43.05 12.75 42.8 12.95 L42.35 13.1 41.55 12.95 Q41.1 12.95 41.3 12.45 41.6 12.0 41.85 12.0" fill="url(#gradient13)" fill-rule="evenodd" stroke="none"/>
      <path d="M48.4 10.0 Q49.15 10.25 48.7 10.7 48.25 11.15 47.8 10.9 47.45 10.7 47.7 10.25 47.95 9.85 48.4 10.0" fill="url(#gradient14)" fill-rule="evenodd" stroke="none"/>
      <path d="M19.9 10.15 Q20.35 10.35 20.1 10.75 L19.2 10.8 Q18.45 10.5 19.0 10.25 L19.9 10.15" fill="url(#gradient15)" fill-rule="evenodd" stroke="none"/>
      <path d="M16.25 9.55 Q17.0 9.85 16.6 10.15 16.2 10.35 15.6 10.15 15.0 9.9 15.45 9.65 L16.25 9.55" fill="url(#gradient16)" fill-rule="evenodd" stroke="none"/>
      <path d="M23.3 8.15 Q24.1 8.15 23.7 8.55 23.3 8.95 22.8 8.9 22.4 8.85 22.75 8.45 23.05 8.15 23.3 8.15" fill="#ba6414" fill-rule="evenodd" stroke="none"/>
      <path d="M25.2 7.1 Q26.0 7.05 25.85 7.5 L25.05 7.95 Q24.45 7.95 24.6 7.55 24.75 7.2 25.2 7.1" fill="#ba6414" fill-rule="evenodd" stroke="none"/>
      <path d="M25.25 8.35 Q25.8 8.4 25.6 9.1 25.4 9.8 24.75 9.45 24.15 9.1 24.5 8.7 24.8 8.3 25.25 8.35" fill="#ba6414" fill-rule="evenodd" stroke="none"/>
      <path d="M27.35 8.4 Q27.7 8.7 27.4 9.15 27.15 9.65 26.85 9.35 26.65 9.15 26.85 8.65 27.1 8.1 27.35 8.4" fill="#ba6414" fill-rule="evenodd" stroke="none"/>
      <path d="M29.15 9.1 Q29.55 9.25 29.3 9.7 29.1 10.1 28.65 9.9 28.15 9.7 28.45 9.35 28.7 8.9 29.15 9.1" fill="#ba6414" fill-rule="evenodd" stroke="none"/>
      <path d="M31.6 8.45 Q32.25 8.75 31.9 9.2 31.6 9.65 30.95 9.35 30.4 9.15 30.85 8.7 31.25 8.25 31.6 8.45" fill="#ba6414" fill-rule="evenodd" stroke="none"/>
      <path d="M28.35 7.35 Q29.2 7.45 28.75 8.05 28.35 8.75 27.95 8.45 27.65 8.3 27.8 7.8 28.0 7.35 28.35 7.35" fill="#ba6414" fill-rule="evenodd" stroke="none"/>
      <path d="M26.65 6.85 Q27.5 6.85 27.25 7.4 26.95 8.0 26.45 7.8 26.1 7.7 26.25 7.25 26.4 6.85 26.65 6.85" fill="#ba6414" fill-rule="evenodd" stroke="none"/>
      <path d="M27.6 5.65 Q28.05 5.5 27.9 5.8 L27.45 6.2 Q27.15 6.2 27.3 5.95 L27.6 5.65" fill="#ba6414" fill-rule="evenodd" stroke="none"/>
      <path d="M30.0 5.2 Q30.45 5.35 30.1 5.7 L29.4 5.85 Q29.05 5.75 29.35 5.4 29.65 5.1 30.0 5.2" fill="#ba6414" fill-rule="evenodd" stroke="none"/>
      <path d="M29.7 4.4 Q30.2 4.4 30.0 4.7 L29.5 4.85 Q29.15 4.85 29.35 4.6 L29.7 4.4" fill="#ba6414" fill-rule="evenodd" stroke="none"/>
      <path d="M30.85 5.85 Q31.6 5.85 31.1 6.5 30.6 7.1 30.25 6.9 30.0 6.7 30.2 6.25 30.45 5.85 30.85 5.85" fill="#ba6414" fill-rule="evenodd" stroke="none"/>
      <path d="M28.85 6.3 Q29.05 6.65 28.7 6.85 L28.2 6.8 Q27.95 6.65 28.35 6.3 28.7 5.95 28.85 6.3" fill="#ba6414" fill-rule="evenodd" stroke="none"/>
      <path d="M30.0 7.45 Q30.5 7.45 30.3 8.0 L29.95 8.1 29.4 7.95 Q29.2 7.75 29.45 7.6 L30.0 7.45" fill="#ba6414" fill-rule="evenodd" stroke="none"/>
      <path d="M32.2 6.45 Q32.9 6.6 32.55 7.1 32.2 7.55 31.8 7.45 31.6 7.3 31.75 6.85 31.85 6.4 32.2 6.45" fill="#ba6414" fill-rule="evenodd" stroke="none"/>
      <path d="M33.3 9.7 Q33.85 9.75 33.55 10.25 33.2 10.75 32.9 10.65 32.6 10.5 32.7 10.05 L33.3 9.7" fill="#ba6414" fill-rule="evenodd" stroke="none"/>
      <path d="M25.05 9.95 Q25.5 10.0 25.3 10.3 L24.8 10.6 Q24.55 10.6 24.7 10.25 L25.05 9.95" fill="#ba6414" fill-rule="evenodd" stroke="none"/>
      <path d="M32.45 11.4 Q32.9 11.5 32.5 11.95 32.1 12.45 31.75 12.3 31.35 12.2 31.75 11.8 32.1 11.4 32.45 11.4" fill="#ba6414" fill-rule="evenodd" stroke="none"/>
      <path d="M29.1 12.4 L29.05 12.65 28.65 12.7 Q28.45 12.55 28.65 12.4 28.9 12.2 29.1 12.4" fill="#ba6414" fill-rule="evenodd" stroke="none"/>
      <path d="M39.15 11.6 Q39.4 11.7 39.0 12.05 38.55 12.4 38.35 12.2 38.15 12.05 38.5 11.75 L39.15 11.6" fill="#ba6414" fill-rule="evenodd" stroke="none"/>
      <path d="M46.0 9.75 Q46.6 9.7 46.35 10.05 46.15 10.45 45.75 10.35 45.45 10.25 45.55 10.0 45.65 9.8 46.0 9.75" fill="#ba6414" fill-rule="evenodd" stroke="none"/>
      <path d="M42.85 11.15 Q43.5 11.2 43.0 11.6 42.55 12.05 42.15 11.95 41.85 11.8 42.05 11.45 42.25 11.1 42.85 11.15" fill="#ba6414" fill-rule="evenodd" stroke="none"/>
      <path d="M42.1 12.2 Q42.45 12.35 42.2 12.6 L41.7 12.7 Q41.3 12.5 41.55 12.3 L42.1 12.2" fill="#ba6414" fill-rule="evenodd" stroke="none"/>
      <path d="M20.4 8.85 Q20.65 8.95 20.55 9.2 L20.15 9.3 Q19.8 9.15 19.95 8.9 L20.4 8.85" fill="#ba6414" fill-rule="evenodd" stroke="none"/>
      <path d="M25.05 8.6 Q27.3 9.9 31.8 12.0 33.0 12.5 33.65 12.95 32.8 13.45 30.9 13.95 27.05 14.95 21.75 15.15 15.2 15.3 10.85 14.2 8.7 13.6 7.8 12.95 9.6 12.45 11.75 11.1 18.4 6.8 20.1 6.2 20.8 5.95 21.85 6.6 L25.05 8.6" fill="url(#gradient17)" fill-rule="evenodd" stroke="none"/>
      <path d="M31.15 12.2 Q32.2 12.85 31.3 13.05 30.4 13.35 30.15 12.85 30.0 12.4 30.35 12.15 L31.15 12.2" fill="#592e04" fill-rule="evenodd" stroke="none"/>
      <path d="M27.6 10.5 Q28.45 11.1 27.55 11.3 26.6 11.55 26.55 11.1 26.45 10.7 26.85 10.45 L27.6 10.5" fill="#592e04" fill-rule="evenodd" stroke="none"/>
      <path d="M29.25 12.05 Q29.85 12.65 28.95 12.85 28.0 13.05 27.95 12.5 27.9 11.95 28.35 11.8 28.8 11.6 29.25 12.05" fill="#592e04" fill-rule="evenodd" stroke="none"/>
      <path d="M26.55 12.05 Q27.1 12.65 26.45 12.9 L25.55 12.75 Q25.35 12.5 25.8 12.05 26.25 11.7 26.55 12.05" fill="#592e04" fill-rule="evenodd" stroke="none"/>
      <path d="M24.6 8.9 Q25.35 9.1 25.5 9.55 25.6 10.05 25.05 10.05 24.6 10.05 24.4 9.45 24.2 8.85 24.6 8.9" fill="#592e04" fill-rule="evenodd" stroke="none"/>
      <path d="M22.85 8.0 Q23.55 8.2 23.5 8.75 23.4 9.35 23.05 9.1 L22.75 8.45 Q22.65 7.95 22.85 8.0" fill="#592e04" fill-rule="evenodd" stroke="none"/>
      <path d="M24.55 10.45 Q25.35 11.15 24.7 11.55 24.05 11.9 23.75 11.35 23.6 10.9 23.9 10.6 24.25 10.25 24.55 10.45" fill="#592e04" fill-rule="evenodd" stroke="none"/>
      <path d="M25.45 13.5 Q26.15 13.9 25.65 14.25 L24.75 14.2 Q24.45 13.8 24.75 13.55 L25.45 13.5" fill="#592e04" fill-rule="evenodd" stroke="none"/>
      <path d="M27.7 13.5 Q28.35 13.6 27.9 13.9 L27.15 14.1 Q26.9 14.0 27.1 13.75 27.3 13.45 27.7 13.5" fill="#592e04" fill-rule="evenodd" stroke="none"/>
      <path d="M8.65 13.05 L9.0 13.75 8.45 13.85 7.2 13.75 Q6.6 13.45 6.9 13.1 7.2 12.7 7.9 12.75 8.5 12.75 8.65 13.05" fill="url(#gradient18)" fill-rule="evenodd" stroke="none"/>
      <path d="M6.65 13.65 Q7.1 13.95 6.1 14.25 L5.0 14.1 Q4.95 13.7 5.55 13.5 L6.65 13.65" fill="url(#gradient19)" fill-rule="evenodd" stroke="none"/>
      <path d="M12.85 13.95 Q14.25 14.05 13.75 14.7 13.15 15.35 12.4 15.15 11.7 14.95 12.0 14.4 12.2 13.85 12.85 13.95" fill="url(#gradient20)" fill-rule="evenodd" stroke="none"/>
      <path d="M10.25 14.55 Q11.0 14.45 10.7 15.0 10.4 15.55 10.0 15.3 9.65 15.1 9.75 14.85 9.8 14.65 10.25 14.55" fill="url(#gradient21)" fill-rule="evenodd" stroke="none"/>
      <path d="M18.55 14.4 Q19.4 14.4 19.8 14.95 20.2 15.5 19.65 15.8 L18.15 16.15 Q17.25 16.15 16.9 15.65 16.5 15.2 17.05 14.75 17.6 14.4 18.55 14.4" fill="url(#gradient22)" fill-rule="evenodd" stroke="none"/>
      <path d="M21.65 15.8 Q21.95 16.2 21.7 16.55 L20.1 16.8 Q18.9 16.7 18.8 16.4 18.75 16.2 19.25 15.65 19.7 15.2 20.5 15.2 21.2 15.3 21.65 15.8" fill="url(#gradient23)" fill-rule="evenodd" stroke="none"/>
      <path d="M27.55 16.1 L26.55 15.95 Q26.0 15.65 26.15 15.3 L26.75 14.35 Q27.2 13.9 27.8 13.95 28.45 14.0 29.1 14.65 29.8 15.2 29.7 15.65 29.55 16.1 27.55 16.1" fill="url(#gradient24)" fill-rule="evenodd" stroke="none"/>
      <path d="M27.9 16.45 Q27.65 17.4 25.8 16.75 25.25 16.55 25.5 16.15 25.75 15.75 26.35 15.65 26.95 15.45 27.45 15.65 28.05 15.85 27.9 16.45" fill="url(#gradient25)" fill-rule="evenodd" stroke="none"/>
      <path d="M24.75 16.95 Q25.3 17.25 24.75 17.45 L23.65 17.55 Q23.0 17.45 23.6 17.0 L24.75 16.95" fill="url(#gradient26)" fill-rule="evenodd" stroke="none"/>
      <path d="M17.2 16.45 Q17.85 16.65 17.2 17.05 L16.0 17.1 Q15.35 16.8 16.0 16.5 L17.2 16.45" fill="url(#gradient27)" fill-rule="evenodd" stroke="none"/>
      <path d="M11.1 15.6 Q11.7 15.65 11.7 15.95 L11.25 16.25 Q10.8 16.25 10.75 15.9 10.65 15.5 11.1 15.6" fill="url(#gradient28)" fill-rule="evenodd" stroke="none"/>
      <path d="M24.75 14.2 Q25.95 14.35 25.4 15.0 24.8 15.6 24.1 15.55 23.5 15.5 23.9 14.8 24.3 14.1 24.75 14.2" fill="url(#gradient29)" fill-rule="evenodd" stroke="none"/>
      <path d="M31.2 14.45 Q31.8 14.65 32.2 15.1 32.55 15.5 32.45 16.0 32.3 16.6 30.25 16.55 L29.15 16.35 Q29.0 16.2 29.1 15.75 29.25 15.2 29.9 14.75 30.55 14.3 31.2 14.45" fill="url(#gradient30)" fill-rule="evenodd" stroke="none"/>
      <path d="M34.2 15.65 Q34.9 15.9 34.5 16.25 L33.4 16.35 Q32.7 16.15 33.25 15.8 L34.2 15.65" fill="url(#gradient31)" fill-rule="evenodd" stroke="none"/>
      <path d="M32.75 13.05 Q33.2 13.1 33.25 13.55 L32.9 14.2 31.9 14.25 31.3 13.85 Q31.3 13.45 31.6 13.25 L32.75 13.05" fill="url(#gradient32)" fill-rule="evenodd" stroke="none"/>
      <path d="M35.35 14.05 Q36.75 14.3 36.1 15.2 L35.25 15.4 34.1 14.95 Q33.7 14.6 34.2 14.3 34.7 13.95 35.35 14.05" fill="url(#gradient33)" fill-rule="evenodd" stroke="none"/>
      <path d="M34.0 12.25 Q34.6 12.25 34.9 12.7 35.15 13.05 34.95 13.3 L34.5 13.4 33.65 13.3 Q33.2 13.2 33.45 12.7 L34.0 12.25" fill="url(#gradient34)" fill-rule="evenodd" stroke="none"/>
      <path d="M36.45 12.9 Q37.2 13.1 36.75 13.55 36.3 14.0 35.85 13.8 35.5 13.55 35.8 13.15 36.0 12.75 36.45 12.9" fill="url(#gradient35)" fill-rule="evenodd" stroke="none"/>
      <path d="M39.25 13.6 Q40.0 13.7 39.6 14.05 L38.55 14.25 Q38.05 14.1 38.35 13.85 38.65 13.55 39.25 13.6" fill="url(#gradient36)" fill-rule="evenodd" stroke="none"/>
      <path d="M7.45 14.3 Q7.9 14.5 7.65 14.9 L6.65 14.95 Q5.95 14.65 6.55 14.35 L7.45 14.3" fill="url(#gradient37)" fill-rule="evenodd" stroke="none"/>
      <path d="M3.75 13.75 Q4.5 14.05 4.1 14.3 3.75 14.5 3.05 14.3 2.55 14.1 2.95 13.85 L3.75 13.75" fill="url(#gradient38)" fill-rule="evenodd" stroke="none"/>
      <path d="M10.85 12.3 Q11.6 12.3 11.2 12.7 10.85 13.15 10.35 13.05 9.95 12.95 10.25 12.6 10.6 12.3 10.85 12.3" fill="#ba6414" fill-rule="evenodd" stroke="none"/>
      <path d="M12.7 11.3 Q13.5 11.15 13.35 11.6 13.15 12.05 12.5 12.05 12.0 12.05 12.15 11.7 L12.7 11.3" fill="#ba6414" fill-rule="evenodd" stroke="none"/>
      <path d="M12.75 12.5 Q13.3 12.5 13.1 13.25 12.9 13.95 12.25 13.6 11.65 13.3 12.0 12.85 12.3 12.45 12.75 12.5" fill="#ba6414" fill-rule="evenodd" stroke="none"/>
      <path d="M14.55 12.85 Q14.85 13.15 14.6 13.6 14.3 14.05 14.05 13.85 13.8 13.6 14.05 13.1 14.25 12.55 14.55 12.85" fill="#ba6414" fill-rule="evenodd" stroke="none"/>
      <path d="M16.65 13.6 Q17.0 13.75 16.8 14.2 16.55 14.6 16.05 14.4 15.6 14.2 15.9 13.85 16.2 13.4 16.65 13.6" fill="#ba6414" fill-rule="evenodd" stroke="none"/>
      <path d="M18.1 12.15 Q18.75 12.45 18.45 12.9 18.2 13.35 17.55 13.1 16.95 12.85 17.35 12.45 17.75 12.0 18.1 12.15" fill="#ba6414" fill-rule="evenodd" stroke="none"/>
      <path d="M15.85 11.55 Q16.7 11.6 16.3 12.25 15.85 12.9 15.45 12.65 15.15 12.5 15.3 12.0 15.55 11.5 15.85 11.55" fill="#ba6414" fill-rule="evenodd" stroke="none"/>
      <path d="M14.25 10.85 Q15.15 10.85 14.85 11.4 14.6 12.0 14.1 11.8 13.75 11.65 13.85 11.25 14.0 10.85 14.25 10.85" fill="#ba6414" fill-rule="evenodd" stroke="none"/>
      <path d="M15.15 9.8 Q15.55 9.65 15.4 9.95 L14.95 10.35 Q14.65 10.4 14.75 10.15 L15.15 9.8" fill="#ba6414" fill-rule="evenodd" stroke="none"/>
      <path d="M16.95 8.45 Q17.45 8.6 17.15 8.95 16.85 9.35 16.45 9.25 16.05 9.15 16.35 8.8 16.6 8.4 16.95 8.45" fill="#ba6414" fill-rule="evenodd" stroke="none"/>
      <path d="M18.3 7.65 Q18.75 7.7 18.6 8.0 L18.05 8.15 Q17.75 8.05 17.9 7.85 18.05 7.6 18.3 7.65" fill="#ba6414" fill-rule="evenodd" stroke="none"/>
      <path d="M18.35 8.9 Q19.15 9.05 18.55 9.6 17.95 10.15 17.65 9.8 17.4 9.6 17.7 9.25 L18.35 8.9" fill="#ba6414" fill-rule="evenodd" stroke="none"/>
      <path d="M16.65 9.95 Q16.85 10.3 16.5 10.55 L15.9 10.6 Q15.65 10.4 16.05 10.0 L16.65 9.95" fill="#ba6414" fill-rule="evenodd" stroke="none"/>
      <path d="M17.8 10.5 Q18.2 10.5 18.05 11.1 L17.7 11.2 17.15 11.05 Q16.95 10.85 17.2 10.7 17.4 10.5 17.8 10.5" fill="#ba6414" fill-rule="evenodd" stroke="none"/>
      <path d="M19.4 10.65 Q20.1 10.75 19.75 11.25 19.35 11.75 19.05 11.6 18.8 11.45 18.95 11.05 19.1 10.6 19.4 10.65" fill="#ba6414" fill-rule="evenodd" stroke="none"/>
      <path d="M19.7 12.95 Q20.25 13.0 20.0 13.5 19.65 14.0 19.35 13.85 19.05 13.8 19.2 13.35 19.3 12.9 19.7 12.95" fill="#ba6414" fill-rule="evenodd" stroke="none"/>
      <path d="M21.75 13.35 Q23.1 13.85 21.0 14.2 20.85 14.0 21.1 13.6 21.4 13.2 21.75 13.35" fill="#ba6414" fill-rule="evenodd" stroke="none"/>
      <path d="M12.6 14.1 Q12.95 14.2 12.8 14.45 L12.3 14.75 Q12.0 14.75 12.25 14.4 12.45 14.1 12.6 14.1" fill="#ba6414" fill-rule="evenodd" stroke="none"/>
      <path d="M18.0 14.75 Q18.55 14.9 18.2 15.3 17.85 15.7 17.4 15.55 17.0 15.35 17.35 15.0 17.6 14.65 18.0 14.75" fill="#ba6414" fill-rule="evenodd" stroke="none"/>
      <path d="M19.95 15.6 Q20.4 15.65 20.0 16.1 19.6 16.6 19.2 16.5 18.85 16.35 19.2 15.95 19.6 15.55 19.95 15.6" fill="#ba6414" fill-rule="evenodd" stroke="none"/>
      <path d="M16.55 16.55 L16.5 16.85 16.1 16.9 Q15.95 16.75 16.15 16.55 16.45 16.4 16.55 16.55" fill="#ba6414" fill-rule="evenodd" stroke="none"/>
      <path d="M30.45 14.95 Q30.9 15.2 30.4 15.8 29.8 16.4 29.55 16.2 29.25 16.05 29.65 15.4 30.05 14.75 30.45 14.95" fill="#ba6414" fill-rule="evenodd" stroke="none"/>
      <path d="M27.6 14.3 Q27.85 14.4 27.5 14.95 27.1 15.5 26.7 15.3 26.3 15.15 26.7 14.6 27.15 14.0 27.6 14.3" fill="#ba6414" fill-rule="evenodd" stroke="none"/>
      <path d="M26.65 15.8 Q26.85 15.9 26.45 16.2 26.05 16.55 25.9 16.35 25.65 16.15 26.0 15.95 26.4 15.7 26.65 15.8" fill="#ba6414" fill-rule="evenodd" stroke="none"/>
      <path d="M24.6 14.5 Q24.9 14.6 24.6 14.9 L24.1 15.1 Q23.85 14.95 24.15 14.75 L24.6 14.5" fill="#ba6414" fill-rule="evenodd" stroke="none"/>
      <path d="M32.1 13.3 Q32.7 13.25 32.45 13.6 32.25 13.95 31.85 13.85 31.55 13.85 31.65 13.55 31.75 13.3 32.1 13.3" fill="#ba6414" fill-rule="evenodd" stroke="none"/>
      <path d="M35.35 14.05 Q35.95 14.15 35.45 14.55 34.95 15.0 34.65 14.85 34.35 14.75 34.5 14.35 34.75 14.0 35.35 14.05" fill="#ba6414" fill-rule="evenodd" stroke="none"/>
      <path d="M34.2 12.5 Q34.55 12.6 34.35 12.95 34.15 13.2 33.8 12.95 33.45 12.8 33.65 12.6 L34.2 12.5" fill="#ba6414" fill-rule="evenodd" stroke="none"/>
      <path d="M7.95 12.95 Q8.2 13.1 8.1 13.35 L7.7 13.4 Q7.35 13.35 7.5 13.05 L7.95 12.95" fill="#ba6414" fill-rule="evenodd" stroke="none"/>
    </g>
    <linearGradient gradientTransform="matrix(0.0161, 0.0, 0.0, -0.0161, 33.1, 7.45)" gradientUnits="userSpaceOnUse" id="gradient0" spreadMethod="pad" x1="-819.2" x2="819.2">
      <stop offset="0.0" stop-color="#a1530b"/>
      <stop offset="0.9882352941176471" stop-color="#5e350e"/>
    </linearGradient>
    <linearGradient gradientTransform="matrix(0.0013, 0.0, 0.0, -0.0013, 20.4, 9.15)" gradientUnits="userSpaceOnUse" id="gradient1" spreadMethod="pad" x1="-819.2" x2="819.2">
      <stop offset="0.0" stop-color="#a1530b"/>
      <stop offset="0.9882352941176471" stop-color="#5e350e"/>
    </linearGradient>
    <linearGradient gradientTransform="matrix(0.0011, 0.0, 0.0, -0.0011, 18.35, 9.75)" gradientUnits="userSpaceOnUse" id="gradient2" spreadMethod="pad" x1="-819.2" x2="819.2">
      <stop offset="0.0" stop-color="#a1530b"/>
      <stop offset="0.9882352941176471" stop-color="#5e350e"/>
    </linearGradient>
    <linearGradient gradientTransform="matrix(0.0012, 0.0, 0.0, -0.0012, 25.35, 10.4)" gradientUnits="userSpaceOnUse" id="gradient3" spreadMethod="pad" x1="-819.2" x2="819.2">
      <stop offset="0.0" stop-color="#a1530b"/>
      <stop offset="0.9882352941176471" stop-color="#5e350e"/>
    </linearGradient>
    <linearGradient gradientTransform="matrix(6.0E-4, 0.0, 0.0, -6.0E-4, 22.75, 10.75)" gradientUnits="userSpaceOnUse" id="gradient4" spreadMethod="pad" x1="-819.2" x2="819.2">
      <stop offset="0.0" stop-color="#a1530b"/>
      <stop offset="0.9882352941176471" stop-color="#5e350e"/>
    </linearGradient>
    <linearGradient gradientTransform="matrix(0.0018, 0.0, 0.0, -0.0018, 32.8, 11.9)" gradientUnits="userSpaceOnUse" id="gradient5" spreadMethod="pad" x1="-819.2" x2="819.2">
      <stop offset="0.0" stop-color="#a1530b"/>
      <stop offset="0.9882352941176471" stop-color="#5e350e"/>
    </linearGradient>
    <linearGradient gradientTransform="matrix(0.0015, 0.0, 0.0, -0.0015, 39.15, 12.1)" gradientUnits="userSpaceOnUse" id="gradient6" spreadMethod="pad" x1="-819.2" x2="819.2">
      <stop offset="0.0" stop-color="#a1530b"/>
      <stop offset="0.9882352941176471" stop-color="#5e350e"/>
    </linearGradient>
    <linearGradient gradientTransform="matrix(0.001, 0.0, 0.0, -0.001, 36.7, 13.0)" gradientUnits="userSpaceOnUse" id="gradient7" spreadMethod="pad" x1="-819.2" x2="819.2">
      <stop offset="0.0" stop-color="#a1530b"/>
      <stop offset="0.9882352941176471" stop-color="#5e350e"/>
    </linearGradient>
    <linearGradient gradientTransform="matrix(0.0011, 0.0, 0.0, -0.0011, 29.1, 12.6)" gradientUnits="userSpaceOnUse" id="gradient8" spreadMethod="pad" x1="-819.2" x2="819.2">
      <stop offset="0.0" stop-color="#a1530b"/>
      <stop offset="0.9882352941176471" stop-color="#5e350e"/>
    </linearGradient>
    <linearGradient gradientTransform="matrix(6.0E-4, 0.0, 0.0, -6.0E-4, 23.7, 11.75)" gradientUnits="userSpaceOnUse" id="gradient9" spreadMethod="pad" x1="-819.2" x2="819.2">
      <stop offset="0.0" stop-color="#a1530b"/>
      <stop offset="0.9882352941176471" stop-color="#5e350e"/>
    </linearGradient>
    <linearGradient gradientTransform="matrix(9.0E-4, 0.0, 0.0, -9.0E-4, 46.3, 11.85)" gradientUnits="userSpaceOnUse" id="gradient10" spreadMethod="pad" x1="-819.2" x2="819.2">
      <stop offset="0.0" stop-color="#a1530b"/>
      <stop offset="0.9882352941176471" stop-color="#5e350e"/>
    </linearGradient>
    <linearGradient gradientTransform="matrix(0.0012, 0.0, 0.0, -0.0012, 46.15, 10.1)" gradientUnits="userSpaceOnUse" id="gradient11" spreadMethod="pad" x1="-819.2" x2="819.2">
      <stop offset="0.0" stop-color="#a1530b"/>
      <stop offset="0.9882352941176471" stop-color="#5e350e"/>
    </linearGradient>
    <linearGradient gradientTransform="matrix(0.0014, 0.0, 0.0, -0.0014, 42.65, 11.8)" gradientUnits="userSpaceOnUse" id="gradient12" spreadMethod="pad" x1="-819.2" x2="819.2">
      <stop offset="0.0" stop-color="#a1530b"/>
      <stop offset="0.9882352941176471" stop-color="#5e350e"/>
    </linearGradient>
    <linearGradient gradientTransform="matrix(0.001, 0.0, 0.0, -0.001, 42.1, 12.55)" gradientUnits="userSpaceOnUse" id="gradient13" spreadMethod="pad" x1="-819.2" x2="819.2">
      <stop offset="0.0" stop-color="#a1530b"/>
      <stop offset="0.9882352941176471" stop-color="#5e350e"/>
    </linearGradient>
    <linearGradient gradientTransform="matrix(7.0E-4, 0.0, 0.0, -7.0E-4, 48.2, 10.5)" gradientUnits="userSpaceOnUse" id="gradient14" spreadMethod="pad" x1="-819.2" x2="819.2">
      <stop offset="0.0" stop-color="#a1530b"/>
      <stop offset="0.9882352941176471" stop-color="#5e350e"/>
    </linearGradient>
    <linearGradient gradientTransform="matrix(9.0E-4, 0.0, 0.0, -9.0E-4, 19.5, 10.5)" gradientUnits="userSpaceOnUse" id="gradient15" spreadMethod="pad" x1="-819.2" x2="819.2">
      <stop offset="0.0" stop-color="#a1530b"/>
      <stop offset="0.9882352941176471" stop-color="#5e350e"/>
    </linearGradient>
    <linearGradient gradientTransform="matrix(9.0E-4, 0.0, 0.0, -9.0E-4, 16.0, 9.85)" gradientUnits="userSpaceOnUse" id="gradient16" spreadMethod="pad" x1="-819.2" x2="819.2">
      <stop offset="0.0" stop-color="#a1530b"/>
      <stop offset="0.9882352941176471" stop-color="#5e350e"/>
    </linearGradient>
    <linearGradient gradientTransform="matrix(0.0142, -1.0E-4, -1.0E-4, -0.0142, 20.9, 10.65)" gradientUnits="userSpaceOnUse" id="gradient17" spreadMethod="pad" x1="-819.2" x2="819.2">
      <stop offset="0.0" stop-color="#a1530b"/>
      <stop offset="0.9882352941176471" stop-color="#5e350e"/>
    </linearGradient>
    <linearGradient gradientTransform="matrix(0.0013, 0.0, 0.0, -0.0013, 7.95, 13.35)" gradientUnits="userSpaceOnUse" id="gradient18" spreadMethod="pad" x1="-819.2" x2="819.2">
      <stop offset="0.0" stop-color="#a15a18"/>
      <stop offset="0.9882352941176471" stop-color="#5e350e"/>
    </linearGradient>
    <linearGradient gradientTransform="matrix(0.0011, 0.0, 0.0, -0.0011, 5.9, 13.85)" gradientUnits="userSpaceOnUse" id="gradient19" spreadMethod="pad" x1="-819.2" x2="819.2">
      <stop offset="0.0" stop-color="#a15a18"/>
      <stop offset="0.9882352941176471" stop-color="#5e350e"/>
    </linearGradient>
    <linearGradient gradientTransform="matrix(0.0012, 0.0, 0.0, -0.0012, 12.9, 14.55)" gradientUnits="userSpaceOnUse" id="gradient20" spreadMethod="pad" x1="-819.2" x2="819.2">
      <stop offset="0.0" stop-color="#a15a18"/>
      <stop offset="0.9882352941176471" stop-color="#5e350e"/>
    </linearGradient>
    <linearGradient gradientTransform="matrix(6.0E-4, 0.0, 0.0, -6.0E-4, 10.2, 14.95)" gradientUnits="userSpaceOnUse" id="gradient21" spreadMethod="pad" x1="-819.2" x2="819.2">
      <stop offset="0.0" stop-color="#a15a18"/>
      <stop offset="0.9882352941176471" stop-color="#5e350e"/>
    </linearGradient>
    <linearGradient gradientTransform="matrix(0.002, 0.0, 0.0, -0.002, 18.3, 15.25)" gradientUnits="userSpaceOnUse" id="gradient22" spreadMethod="pad" x1="-819.2" x2="819.2">
      <stop offset="0.0" stop-color="#a15a18"/>
      <stop offset="0.9882352941176471" stop-color="#5e350e"/>
    </linearGradient>
    <linearGradient gradientTransform="matrix(0.0018, 0.0, 0.0, -0.0018, 20.3, 16.05)" gradientUnits="userSpaceOnUse" id="gradient23" spreadMethod="pad" x1="-819.2" x2="819.2">
      <stop offset="0.0" stop-color="#a15a18"/>
      <stop offset="0.9882352941176471" stop-color="#5e350e"/>
    </linearGradient>
    <linearGradient gradientTransform="matrix(0.0022, 0.0, 0.0, -0.0022, 27.9, 15.05)" gradientUnits="userSpaceOnUse" id="gradient24" spreadMethod="pad" x1="-819.2" x2="819.2">
      <stop offset="0.0" stop-color="#a15a18"/>
      <stop offset="0.9882352941176471" stop-color="#5e350e"/>
    </linearGradient>
    <linearGradient gradientTransform="matrix(0.0015, 0.0, 0.0, -0.0015, 26.7, 16.25)" gradientUnits="userSpaceOnUse" id="gradient25" spreadMethod="pad" x1="-819.2" x2="819.2">
      <stop offset="0.0" stop-color="#a15a18"/>
      <stop offset="0.9882352941176471" stop-color="#5e350e"/>
    </linearGradient>
    <linearGradient gradientTransform="matrix(0.001, 0.0, 0.0, -0.001, 24.15, 17.2)" gradientUnits="userSpaceOnUse" id="gradient26" spreadMethod="pad" x1="-819.2" x2="819.2">
      <stop offset="0.0" stop-color="#a15a18"/>
      <stop offset="0.9882352941176471" stop-color="#5e350e"/>
    </linearGradient>
    <linearGradient gradientTransform="matrix(0.0011, 0.0, 0.0, -0.0011, 16.55, 16.8)" gradientUnits="userSpaceOnUse" id="gradient27" spreadMethod="pad" x1="-819.2" x2="819.2">
      <stop offset="0.0" stop-color="#a15a18"/>
      <stop offset="0.9882352941176471" stop-color="#5e350e"/>
    </linearGradient>
    <linearGradient gradientTransform="matrix(6.0E-4, 0.0, 0.0, -6.0E-4, 11.2, 15.9)" gradientUnits="userSpaceOnUse" id="gradient28" spreadMethod="pad" x1="-819.2" x2="819.2">
      <stop offset="0.0" stop-color="#a15a18"/>
      <stop offset="0.9882352941176471" stop-color="#5e350e"/>
    </linearGradient>
    <linearGradient gradientTransform="matrix(0.0011, 0.0, 0.0, -0.0011, 24.6, 14.85)" gradientUnits="userSpaceOnUse" id="gradient29" spreadMethod="pad" x1="-819.2" x2="819.2">
      <stop offset="0.0" stop-color="#a15a18"/>
      <stop offset="0.9882352941176471" stop-color="#5e350e"/>
    </linearGradient>
    <linearGradient gradientTransform="matrix(0.0021, 0.0, 0.0, -0.0021, 30.75, 15.5)" gradientUnits="userSpaceOnUse" id="gradient30" spreadMethod="pad" x1="-819.2" x2="819.2">
      <stop offset="0.0" stop-color="#a15a18"/>
      <stop offset="0.9882352941176471" stop-color="#5e350e"/>
    </linearGradient>
    <linearGradient gradientTransform="matrix(9.0E-4, 0.0, 0.0, -9.0E-4, 33.8, 16.05)" gradientUnits="userSpaceOnUse" id="gradient31" spreadMethod="pad" x1="-819.2" x2="819.2">
      <stop offset="0.0" stop-color="#a15a18"/>
      <stop offset="0.9882352941176471" stop-color="#5e350e"/>
    </linearGradient>
    <linearGradient gradientTransform="matrix(0.0012, 0.0, 0.0, -0.0012, 32.25, 13.65)" gradientUnits="userSpaceOnUse" id="gradient32" spreadMethod="pad" x1="-819.2" x2="819.2">
      <stop offset="0.0" stop-color="#a15a18"/>
      <stop offset="0.9882352941176471" stop-color="#5e350e"/>
    </linearGradient>
    <linearGradient gradientTransform="matrix(0.0014, 0.0, 0.0, -0.0014, 35.1, 14.75)" gradientUnits="userSpaceOnUse" id="gradient33" spreadMethod="pad" x1="-819.2" x2="819.2">
      <stop offset="0.0" stop-color="#a15a18"/>
      <stop offset="0.9882352941176471" stop-color="#5e350e"/>
    </linearGradient>
    <linearGradient gradientTransform="matrix(0.001, 0.0, 0.0, -0.001, 34.2, 12.85)" gradientUnits="userSpaceOnUse" id="gradient34" spreadMethod="pad" x1="-819.2" x2="819.2">
      <stop offset="0.0" stop-color="#a15a18"/>
      <stop offset="0.9882352941176471" stop-color="#5e350e"/>
    </linearGradient>
    <linearGradient gradientTransform="matrix(7.0E-4, 0.0, 0.0, -7.0E-4, 36.3, 13.35)" gradientUnits="userSpaceOnUse" id="gradient35" spreadMethod="pad" x1="-819.2" x2="819.2">
      <stop offset="0.0" stop-color="#a15a18"/>
      <stop offset="0.9882352941176471" stop-color="#5e350e"/>
    </linearGradient>
    <linearGradient gradientTransform="matrix(9.0E-4, 0.0, 0.0, -9.0E-4, 39.0, 13.9)" gradientUnits="userSpaceOnUse" id="gradient36" spreadMethod="pad" x1="-819.2" x2="819.2">
      <stop offset="0.0" stop-color="#a15a18"/>
      <stop offset="0.9882352941176471" stop-color="#5e350e"/>
    </linearGradient>
    <linearGradient gradientTransform="matrix(9.0E-4, 0.0, 0.0, -9.0E-4, 7.0, 14.7)" gradientUnits="userSpaceOnUse" id="gradient37" spreadMethod="pad" x1="-819.2" x2="819.2">
      <stop offset="0.0" stop-color="#a15a18"/>
      <stop offset="0.9882352941176471" stop-color="#5e350e"/>
    </linearGradient>
    <linearGradient gradientTransform="matrix(9.0E-4, 0.0, 0.0, -9.0E-4, 3.5, 14.05)" gradientUnits="userSpaceOnUse" id="gradient38" spreadMethod="pad" x1="-819.2" x2="819.2">
      <stop offset="0.0" stop-color="#a15a18"/>
      <stop offset="0.9882352941176471" stop-color="#5e350e"/>
    </linearGradient>
  </defs>
</svg>
