<?xml version="1.0" encoding="UTF-8" standalone="no"?>
<svg xmlns:xlink="http://www.w3.org/1999/xlink" height="63.0px" width="115.0px" xmlns="http://www.w3.org/2000/svg">
  <g transform="matrix(1.0, 0.0, 0.0, 1.0, 0.0, 0.0)">
    <use height="42.85" transform="matrix(0.9947, 0.0501, -0.0501, 0.9947, 34.9953, 12.313)" width="44.05" xlink:href="#shape0"/>
    <use height="37.85" transform="matrix(1.0, 0.0, 0.0, 1.0, 57.5, 18.6)" width="45.75" xlink:href="#shape1"/>
  </g>
  <defs>
    <g id="shape0" transform="matrix(1.0, 0.0, 0.0, 1.0, 2.9, 39.55)">
      <path d="M27.75 -34.05 Q28.95 -34.25 29.65 -32.7 L30.15 -31.1 Q28.55 -29.65 26.55 -26.2 L21.7 -17.45 Q18.6 -12.7 13.5 -8.7 9.45 -5.5 1.9 3.3 L0.5 3.1 Q-1.05 2.65 -2.0 1.55 -2.85 0.6 -2.9 -0.95 L-2.75 -2.3 1.05 -4.9 6.75 -8.6 Q11.0 -11.65 14.4 -15.35 17.65 -18.9 19.95 -22.35 L23.5 -28.35 Q25.6 -32.15 27.75 -34.05" fill="#ab7f27" fill-rule="evenodd" stroke="none"/>
      <path d="M27.75 -34.05 Q28.95 -34.25 29.65 -32.7 L30.15 -31.1 Q28.55 -29.65 26.55 -26.2 L21.7 -17.45 Q18.6 -12.7 13.5 -8.7 9.45 -5.5 1.9 3.3 L0.5 3.1 Q-1.05 2.65 -2.0 1.55 -3.15 0.25 -2.8 -2.05 -2.25 -1.35 -1.4 -1.9 -2.75 -0.9 -2.0 -0.1 -1.5 0.45 -1.05 0.15 L0.5 -1.0 2.15 -2.2 4.0 -3.75 7.0 -5.85 8.65 -6.85 7.6 -6.1 5.55 -4.35 3.65 -2.15 Q2.5 -0.9 1.4 -0.35 -0.35 0.45 -0.75 0.8 -0.35 1.55 1.3 1.15 2.4 0.85 3.7 -0.6 L5.75 -3.2 Q6.75 -4.4 10.4 -7.35 13.25 -9.6 14.15 -10.95 L14.8 -11.95 Q14.5 -11.2 15.15 -11.75 L19.15 -15.85 19.95 -17.0 Q20.25 -17.55 19.75 -17.1 L16.65 -14.25 18.25 -16.35 Q18.9 -17.3 22.0 -20.1 22.85 -20.9 23.7 -22.35 24.5 -23.75 24.75 -24.75 24.9 -25.5 25.95 -26.9 L26.9 -28.35 Q26.9 -28.75 26.45 -28.45 L25.3 -27.2 23.55 -24.0 21.8 -21.1 Q20.9 -20.1 19.5 -19.2 L21.0 -20.75 Q21.75 -21.5 22.95 -23.8 L24.5 -26.95 Q25.25 -28.25 25.5 -30.35 L25.2 -31.05 Q26.6 -33.05 27.75 -34.05" fill="#82621d" fill-rule="evenodd" stroke="none"/>
      <path d="M-1.2 -2.0 L4.2 -5.4 Q5.75 -6.35 7.85 -8.2 L11.0 -11.1 15.3 -14.8 Q12.05 -10.75 10.8 -9.7 L6.7 -6.6 0.55 -2.65 Q-0.3 -2.0 -1.2 -2.0" fill="#d4a444" fill-rule="evenodd" stroke="none"/>
      <path d="M25.0 -28.6 Q24.3 -26.2 23.15 -24.35 L20.75 -20.85 21.55 -22.1 19.9 -20.65 17.2 -17.85 19.0 -20.35 22.2 -24.35 23.3 -26.35 24.25 -28.35 Q25.1 -29.8 25.0 -28.6" fill="#d4a444" fill-rule="evenodd" stroke="none"/>
      <path d="M2.3 -0.7 L3.8 -1.85 3.3 -1.0 Q2.95 -0.45 1.9 0.0 L0.45 0.4 Q0.2 0.4 0.8 0.1 L2.3 -0.7" fill="#d4a444" fill-rule="evenodd" stroke="none"/>
      <path d="M37.9 -16.25 L39.0 -17.8 41.15 -15.35 40.3 -15.0 39.4 -15.6 37.9 -16.25" fill="#7e9084" fill-rule="evenodd" stroke="none"/>
      <path d="M39.45 -23.65 Q41.0 -19.15 41.15 -15.35 40.0 -16.25 38.65 -16.8 L34.35 -27.05 28.55 -34.25 19.55 -38.1 19.6 -38.55 Q19.85 -39.0 20.6 -39.05 22.95 -39.35 29.7 -36.0 36.4 -32.65 39.45 -23.65" fill="url(#gradient0)" fill-rule="evenodd" stroke="none"/>
      <path d="M37.9 -16.25 Q37.4 -18.7 36.15 -21.8 33.6 -28.05 29.75 -31.25 24.35 -35.7 18.3 -36.6 L13.1 -36.6 Q12.9 -36.6 12.8 -37.65 L12.9 -38.9 Q13.75 -39.75 18.75 -39.5 25.45 -39.2 30.5 -35.1 35.55 -31.05 37.6 -23.5 38.65 -19.75 38.65 -16.8 L37.9 -16.25" fill="url(#gradient1)" fill-rule="evenodd" stroke="none"/>
      <path d="M38.65 -16.8 L39.3 -16.65 40.5 -16.05 41.15 -15.35 38.65 -16.8" fill="#a5b5a8" fill-rule="evenodd" stroke="none"/>
      <path d="M38.1 -21.5 L38.7 -17.65 38.05 -21.35 Q36.8 -26.85 34.1 -30.75 31.8 -34.1 28.65 -36.3 L26.0 -37.85 29.05 -36.4 Q32.6 -34.15 35.1 -30.2 37.05 -27.05 38.1 -21.5" fill="#a5b5a8" fill-rule="evenodd" stroke="none"/>
      <path d="M32.45 -36.55 Q33.65 -35.35 33.8 -34.65 L33.65 -34.2 Q33.05 -34.0 32.2 -34.8 L31.15 -36.1 30.75 -36.8 30.9 -37.3 31.4 -37.2 32.45 -36.55" fill="#d4a444" fill-rule="evenodd" stroke="none"/>
      <path d="M33.15 -33.75 L32.8 -33.5 32.4 -33.6 29.7 -36.05 30.7 -37.15 30.9 -37.3 31.05 -36.8 Q31.25 -36.2 31.8 -35.6 32.7 -34.6 33.6 -34.25 L33.15 -33.75" fill="#ab7f27" fill-rule="evenodd" stroke="none"/>
      <path d="M33.15 -33.75 L32.8 -33.5 32.4 -33.6 31.1 -34.9 31.6 -34.75 Q31.8 -34.65 31.95 -34.85 L31.95 -35.45 Q32.8 -34.55 33.6 -34.25 L33.15 -33.75" fill="#82621d" fill-rule="evenodd" stroke="none"/>
      <path d="M30.65 -36.75 L30.75 -36.8 30.95 -36.4 Q31.05 -36.25 30.65 -36.25 L30.5 -36.35 30.0 -36.05 30.65 -36.75" fill="#d4a444" fill-rule="evenodd" stroke="none"/>
    </g>
    <linearGradient gradientTransform="matrix(0.009, 0.0129, 0.0129, -0.009, 32.5, -27.55)" gradientUnits="userSpaceOnUse" id="gradient0" spreadMethod="pad" x1="-819.2" x2="819.2">
      <stop offset="0.0" stop-color="#98ad9e"/>
      <stop offset="1.0" stop-color="#6d8175"/>
    </linearGradient>
    <linearGradient gradientTransform="matrix(0.0156, 0.0134, 0.0134, -0.0156, 27.65, -30.9)" gradientUnits="userSpaceOnUse" id="gradient1" spreadMethod="pad" x1="-819.2" x2="819.2">
      <stop offset="0.0" stop-color="#585c4b"/>
      <stop offset="1.0" stop-color="#697864"/>
    </linearGradient>
    <g id="shape1" transform="matrix(1.0, 0.0, 0.0, 1.0, -57.5, -18.6)">
      <path d="M85.15 19.35 L84.7 19.8 84.5 19.8 83.35 21.6 Q82.4 22.95 81.8 24.45 L80.95 26.35 Q81.05 25.15 81.75 23.65 82.45 22.1 83.45 20.7 L84.25 19.7 84.05 19.45 84.0 19.2 84.0 19.1 84.05 18.85 84.15 18.7 84.45 18.6 84.8 18.75 85.05 19.0 85.15 19.35 M100.45 28.65 L100.75 28.95 100.9 29.1 101.2 29.35 101.0 29.55 100.35 29.8 100.1 29.8 99.95 29.5 Q98.7 30.5 96.9 31.15 95.6 31.6 94.35 32.15 L94.65 32.45 94.8 32.7 94.75 32.95 94.7 33.05 94.05 33.15 93.9 33.4 93.85 33.55 93.4 33.5 89.75 35.45 Q87.45 36.4 85.95 37.35 L83.05 38.95 87.25 36.35 92.05 33.75 93.1 33.25 92.85 32.95 92.75 32.75 92.5 32.85 89.95 33.9 Q91.5 32.95 93.95 31.9 L97.8 30.2 99.9 29.2 99.85 29.1 99.8 28.75 99.85 28.55 100.1 28.5 100.45 28.65 M100.6 35.55 L100.75 35.7 100.7 35.9 100.65 36.0 100.35 36.45 99.9 36.8 99.75 36.55 99.7 36.4 99.65 36.15 95.3 37.35 90.8 38.3 87.75 38.95 Q89.85 38.2 92.35 37.6 L96.6 36.6 99.6 36.05 99.55 35.95 Q99.4 35.65 99.6 35.45 L99.7 35.4 100.05 35.45 100.6 35.55 M91.3 43.25 L91.15 43.2 92.2 43.25 99.6 43.95 100.2 44.0 100.55 44.0 101.75 44.2 101.9 44.2 102.0 44.0 102.1 43.95 102.2 43.9 102.35 43.9 102.4 43.95 102.5 44.2 102.5 44.25 102.65 44.05 102.9 43.9 103.1 43.85 103.15 43.8 Q103.4 44.25 102.95 44.55 L102.95 44.8 102.7 44.8 102.4 44.85 102.25 44.9 102.0 44.95 Q101.55 45.05 101.55 44.75 L96.7 44.15 91.3 43.25 M57.8 41.25 L57.85 41.25 57.95 41.25 58.0 41.25 58.55 41.7 Q58.3 41.8 58.2 42.05 L58.3 42.0 59.6 41.9 61.3 41.95 61.35 42.0 61.4 42.0 62.4 42.15 62.5 42.25 58.45 42.45 58.1 42.35 58.05 42.55 Q57.5 42.75 57.5 42.3 L57.5 42.15 57.5 41.75 57.5 41.65 57.6 41.5 57.75 41.35 57.8 41.25 M67.35 37.1 L67.45 37.4 67.5 37.65 67.5 37.9 67.5 38.05 70.3 38.7 70.8 39.05 70.8 39.15 Q70.75 38.85 69.2 38.8 L66.35 38.4 66.6 37.8 66.95 37.35 67.15 37.15 67.3 37.1 67.35 37.1 M61.7 41.95 L64.75 42.0 62.75 42.15 61.7 41.95 M69.15 51.45 L67.95 54.2 67.2 55.6 67.5 55.7 Q67.75 55.85 67.45 56.05 L66.75 56.45 66.6 56.45 66.3 56.2 66.25 56.2 66.2 56.1 66.1 55.8 66.1 55.55 66.2 55.5 Q66.4 55.5 66.55 55.65 L66.6 55.6 67.7 53.7 68.85 51.85 69.25 51.25 69.15 51.45" fill="#ff9933" fill-opacity="0.49803922" fill-rule="evenodd" stroke="none"/>
    </g>
  </defs>
</svg>
