<?xml version="1.0" encoding="UTF-8" standalone="no"?>
<svg xmlns:xlink="http://www.w3.org/1999/xlink" height="43.05px" width="46.6px" xmlns="http://www.w3.org/2000/svg">
  <g transform="matrix(1.0, 0.0, 0.0, 1.0, 0.0, 0.0)">
    <use height="43.05" transform="matrix(1.0, 0.0, 0.0, 1.0, 0.0, 0.0)" width="46.6" xlink:href="#shape0"/>
  </g>
  <defs>
    <g id="shape0" transform="matrix(1.0, 0.0, 0.0, 1.0, 0.0, 0.0)">
      <path d="M39.0 18.7 L38.85 20.0 38.2 21.35 38.05 21.65 37.4 22.95 37.65 22.3 39.0 18.7 M34.45 23.15 L34.5 22.95 Q34.85 21.75 34.65 19.75 34.5 18.1 35.0 17.45 L35.6 16.95 Q35.35 17.2 35.35 17.65 L35.5 19.75 35.2 22.0 Q34.9 23.4 35.0 24.2 35.0 23.5 35.6 22.55 L36.35 20.95 36.3 19.1 Q36.25 17.9 36.95 17.8 36.4 17.6 36.4 17.45 L36.85 16.95 36.7 16.65 37.4 16.75 Q38.6 17.15 38.95 18.3 L38.3 17.3 37.7 16.95 37.85 17.6 Q38.15 18.8 36.85 22.45 L35.55 26.0 35.35 26.45 34.45 23.15" fill="url(#gradient0)" fill-rule="evenodd" stroke="none"/>
      <path d="M38.95 18.3 L39.0 18.7 37.65 22.3 37.4 22.95 37.15 23.65 Q36.3 26.05 35.9 28.7 L35.35 26.45 35.55 26.0 36.85 22.45 Q38.15 18.8 37.85 17.6 L37.7 16.95 38.3 17.3 38.95 18.3" fill="url(#gradient1)" fill-rule="evenodd" stroke="none"/>
      <path d="M39.0 18.7 L38.95 18.3 Q38.6 17.15 37.4 16.75 L36.7 16.65 36.7 16.6 Q35.9 16.5 35.6 16.95 L35.0 17.45 Q34.5 18.1 34.65 19.75 34.85 21.75 34.5 22.95 L34.45 23.15 33.8 20.95 Q32.35 16.15 30.8 16.05 29.4 15.95 27.3 20.9 L27.25 21.1 26.4 20.35 Q24.2 18.15 23.45 15.35 22.95 13.75 22.95 11.95 L23.05 10.6 Q23.45 6.5 26.4 3.5 29.85 0.0 34.75 0.0 39.65 0.0 43.15 3.5 46.6 7.0 46.6 11.95 46.6 16.85 43.15 20.35 40.55 22.95 37.15 23.65 L37.4 22.95 38.05 21.65 Q39.25 21.7 39.8 20.8 40.45 19.8 39.55 18.65 39.3 19.65 38.85 20.0 L39.0 18.7" fill="url(#gradient2)" fill-rule="evenodd" stroke="none"/>
      <path d="M35.6 16.95 Q35.9 16.5 36.7 16.6 L36.7 16.65 36.85 16.95 36.4 17.45 Q36.4 17.6 36.95 17.8 36.25 17.9 36.3 19.1 L36.35 20.95 35.6 22.55 Q35.0 23.5 35.0 24.2 34.9 23.4 35.2 22.0 L35.5 19.75 35.35 17.65 Q35.35 17.2 35.6 16.95" fill="url(#gradient3)" fill-rule="evenodd" stroke="none"/>
      <path d="M38.85 20.0 Q39.3 19.65 39.55 18.65 40.45 19.8 39.8 20.8 39.25 21.7 38.05 21.65 L38.2 21.35 38.85 20.0" fill="#a26733" fill-rule="evenodd" stroke="none"/>
      <path d="M27.25 21.1 L27.3 20.9 Q29.4 15.95 30.8 16.05 32.35 16.15 33.8 20.95 L34.45 23.15 35.35 26.45 35.9 28.7 35.4 27.15 Q30.75 31.55 23.75 29.95 L25.65 25.1 Q31.35 26.7 34.45 23.5 L33.65 20.55 Q30.75 22.35 27.05 21.6 L27.25 21.1 M36.95 31.9 L37.95 35.15 Q34.95 38.6 29.65 39.0 25.65 39.3 21.3 37.9 L21.4 38.75 Q21.2 38.05 21.3 37.15 21.45 35.9 22.3 33.55 26.85 35.05 31.0 34.35 34.3 33.75 36.95 31.9" fill="url(#gradient4)" fill-rule="evenodd" stroke="none"/>
      <path d="M35.9 28.7 L35.95 28.85 36.95 31.9 Q34.3 33.75 31.0 34.35 26.85 35.05 22.3 33.55 L22.25 33.55 23.7 30.0 23.7 29.95 23.75 29.95 Q30.75 31.55 35.4 27.15 L35.9 28.7" fill="url(#gradient5)" fill-rule="evenodd" stroke="none"/>
      <path d="M37.95 35.15 L38.15 35.85 38.35 36.7 38.45 37.5 Q38.75 40.05 37.7 40.8 34.5 43.2 30.55 43.05 27.8 42.95 23.8 41.45 21.9 40.7 21.45 39.0 L21.4 38.75 21.3 37.9 Q25.65 39.3 29.65 39.0 34.95 38.6 37.95 35.15 M25.65 25.1 L25.9 24.5 27.0 21.6 27.05 21.6 Q30.75 22.35 33.65 20.55 L34.45 23.5 Q31.35 26.7 25.65 25.1" fill="url(#gradient6)" fill-rule="evenodd" stroke="none"/>
      <path d="M9.8 12.5 L10.5 14.05 10.35 13.8 Q6.95 17.6 1.25 17.05 L2.25 13.2 Q6.95 13.85 9.2 11.15 L8.25 9.0 Q6.25 10.65 3.0 10.45 L3.15 9.95 Q4.4 6.0 5.55 5.9 6.8 5.85 8.4 9.3 L9.8 12.5 M12.05 17.25 L12.65 18.45 13.15 19.55 Q11.1 22.45 6.85 23.25 3.65 23.9 0.05 23.25 L0.0 22.7 Q-0.05 21.7 0.4 19.9 7.35 21.15 12.05 17.25" fill="url(#gradient7)" fill-rule="evenodd" stroke="none"/>
      <path d="M23.05 10.6 L22.95 11.95 Q22.95 13.75 23.45 15.35 L21.6 15.1 Q18.75 14.9 16.2 15.75 13.6 16.65 12.9 17.65 L12.7 18.5 12.65 18.45 12.05 17.25 12.05 17.2 10.5 14.05 9.8 12.5 10.85 12.9 Q13.05 13.6 15.7 13.75 20.45 14.05 22.7 11.0 L23.05 10.6" fill="url(#gradient8)" fill-rule="evenodd" stroke="none"/>
      <path d="M3.0 10.45 Q6.25 10.65 8.25 9.0 L9.2 11.15 Q6.95 13.85 2.25 13.2 L3.0 10.45 M1.25 17.05 Q6.95 17.6 10.35 13.8 L10.5 14.05 12.05 17.2 12.05 17.25 Q7.35 21.15 0.4 19.9 L1.2 17.1 1.2 17.05 1.25 17.05 M13.15 19.55 L13.2 19.7 13.35 20.05 Q14.3 22.5 13.75 23.5 L13.5 23.8 Q11.2 25.95 7.95 26.25 L2.4 25.65 Q0.35 25.2 0.05 23.25 3.65 23.9 6.85 23.25 11.1 22.45 13.15 19.55" fill="url(#gradient9)" fill-rule="evenodd" stroke="none"/>
      <path d="M38.9 2.1 L37.7 3.45 Q40.0 3.9 40.15 5.0 L38.25 5.0 36.45 5.25 Q38.05 7.45 35.7 8.0 L36.9 9.6 Q37.45 10.4 36.55 11.3 35.75 12.1 33.2 11.7 34.0 8.7 30.4 10.4 26.8 12.05 26.2 14.2 26.1 12.85 26.35 9.15 L24.95 9.75 Q25.25 6.75 27.9 3.75 30.75 0.5 33.7 0.75 L36.45 1.25 Q37.65 1.5 38.9 2.1" fill="url(#gradient10)" fill-rule="evenodd" stroke="none"/>
      <path d="M27.6 22.35 Q28.95 18.55 29.8 17.75 L31.05 17.0 Q29.3 18.15 29.3 22.35 L29.5 28.5 29.0 27.8 28.8 26.85 28.8 30.45 Q28.7 32.3 28.0 33.7 L27.3 34.45 Q26.75 34.85 26.55 35.35 26.25 36.0 26.4 37.6 L26.4 39.85 Q24.4 38.6 24.2 36.75 L23.55 37.3 22.85 37.95 Q22.55 35.65 23.65 32.55 L25.8 27.5 27.6 22.35" fill="url(#gradient11)" fill-rule="evenodd" stroke="none"/>
      <path d="M1.75 19.0 Q1.65 18.15 2.3 16.2 L3.15 13.3 Q3.65 10.65 5.2 7.5 L5.7 6.75 Q4.75 10.05 4.8 15.05 L4.9 23.5 Q3.8 23.1 2.95 22.0 2.05 22.55 1.45 24.2 1.3 23.1 1.7 21.35 L2.2 18.6 1.75 19.0" fill="url(#gradient12)" fill-rule="evenodd" stroke="none"/>
    </g>
    <linearGradient gradientTransform="matrix(0.0018, -0.0067, -0.0067, -0.0018, 34.65, 24.15)" gradientUnits="userSpaceOnUse" id="gradient0" spreadMethod="pad" x1="-819.2" x2="819.2">
      <stop offset="0.0" stop-color="#875498"/>
      <stop offset="1.0" stop-color="#de9469"/>
    </linearGradient>
    <linearGradient gradientTransform="matrix(0.0014, -0.0052, -0.0052, -0.0014, 36.55, 23.0)" gradientUnits="userSpaceOnUse" id="gradient1" spreadMethod="pad" x1="-819.2" x2="819.2">
      <stop offset="0.0" stop-color="#875498"/>
      <stop offset="1.0" stop-color="#c27f47"/>
    </linearGradient>
    <radialGradient cx="0" cy="0" gradientTransform="matrix(0.0055, 0.0212, 0.0208, -0.0056, 32.7, 6.8)" gradientUnits="userSpaceOnUse" id="gradient2" r="819.2" spreadMethod="pad">
      <stop offset="0.0" stop-color="#fdf889"/>
      <stop offset="1.0" stop-color="#ce796a"/>
    </radialGradient>
    <radialGradient cx="0" cy="0" gradientTransform="matrix(0.0064, 0.0, 0.0, -0.0064, 34.15, 17.9)" gradientUnits="userSpaceOnUse" id="gradient3" r="819.2" spreadMethod="pad">
      <stop offset="0.0" stop-color="#fefec4"/>
      <stop offset="1.0" stop-color="#eefc7d" stop-opacity="0.25882354"/>
    </radialGradient>
    <radialGradient cx="0" cy="0" gradientTransform="matrix(0.0222, 0.0013, 0.0018, -0.0307, 30.75, 17.05)" gradientUnits="userSpaceOnUse" id="gradient4" r="819.2" spreadMethod="pad">
      <stop offset="0.0" stop-color="#e490f0"/>
      <stop offset="1.0" stop-color="#bf5b47"/>
    </radialGradient>
    <radialGradient cx="0" cy="0" gradientTransform="matrix(0.0263, 0.0016, 0.0027, -0.0457, 25.65, 15.6)" gradientUnits="userSpaceOnUse" id="gradient5" r="819.2" spreadMethod="pad">
      <stop offset="0.0" stop-color="#a970fd"/>
      <stop offset="1.0" stop-color="#8a324a"/>
    </radialGradient>
    <radialGradient cx="0" cy="0" gradientTransform="matrix(0.0263, 0.0016, 0.0027, -0.0457, 25.65, 15.6)" gradientUnits="userSpaceOnUse" id="gradient6" r="819.2" spreadMethod="pad">
      <stop offset="0.0" stop-color="#a970fd"/>
      <stop offset="1.0" stop-color="#8a324a"/>
    </radialGradient>
    <radialGradient cx="0" cy="0" gradientTransform="matrix(0.0179, -0.0012, -0.0016, -0.0232, 5.6, 6.65)" gradientUnits="userSpaceOnUse" id="gradient7" r="819.2" spreadMethod="pad">
      <stop offset="0.0" stop-color="#e490f0"/>
      <stop offset="1.0" stop-color="#bf5b47"/>
    </radialGradient>
    <linearGradient gradientTransform="matrix(0.0116, 0.0, 0.0, -0.0116, 15.95, 13.65)" gradientUnits="userSpaceOnUse" id="gradient8" spreadMethod="pad" x1="-819.2" x2="819.2">
      <stop offset="0.0" stop-color="#875498"/>
      <stop offset="1.0" stop-color="#ce796a"/>
    </linearGradient>
    <radialGradient cx="0" cy="0" gradientTransform="matrix(0.0213, -0.0014, -0.0023, -0.0345, 1.3, 6.1)" gradientUnits="userSpaceOnUse" id="gradient9" r="819.2" spreadMethod="pad">
      <stop offset="0.0" stop-color="#a970fd"/>
      <stop offset="1.0" stop-color="#8a324a"/>
    </radialGradient>
    <radialGradient cx="0" cy="0" gradientTransform="matrix(0.0033, 0.0126, 0.0126, -0.0033, 31.2, 4.6)" gradientUnits="userSpaceOnUse" id="gradient10" r="819.2" spreadMethod="pad">
      <stop offset="0.0" stop-color="#fefec4"/>
      <stop offset="1.0" stop-color="#eefc7d" stop-opacity="0.25882354"/>
    </radialGradient>
    <radialGradient cx="0" cy="0" gradientTransform="matrix(0.0248, 0.0, 0.0, -0.0248, 17.85, 22.2)" gradientUnits="userSpaceOnUse" id="gradient11" r="819.2" spreadMethod="pad">
      <stop offset="0.0" stop-color="#ffffff"/>
      <stop offset="1.0" stop-color="#ffffff" stop-opacity="0.0"/>
    </radialGradient>
    <radialGradient cx="0" cy="0" gradientTransform="matrix(0.0163, 0.0, 0.0, -0.0163, -2.95, 10.75)" gradientUnits="userSpaceOnUse" id="gradient12" r="819.2" spreadMethod="pad">
      <stop offset="0.0" stop-color="#ffffff"/>
      <stop offset="1.0" stop-color="#ffffff" stop-opacity="0.0"/>
    </radialGradient>
  </defs>
</svg>
