<?xml version="1.0" encoding="UTF-8" standalone="no"?>
<svg xmlns:xlink="http://www.w3.org/1999/xlink" height="203.65px" width="180.75px" xmlns="http://www.w3.org/2000/svg">
  <g transform="matrix(1.0, 0.0, 0.0, 1.0, 0.0, 0.0)">
    <use height="203.65" transform="matrix(1.0, 0.0, 0.0, 1.0, 0.0, 0.0)" width="180.75" xlink:href="#shape0"/>
  </g>
  <defs>
    <g id="shape0" transform="matrix(1.0, 0.0, 0.0, 1.0, 0.0, 0.0)">
      <path d="M139.2 169.85 L139.2 176.35 Q139.2 184.7 118.85 190.65 98.5 196.55 69.7 196.55 41.55 196.55 21.35 190.85 1.2 185.15 0.3 177.05 L0.0 177.05 0.0 169.35 4.6 169.35 Q12.05 163.5 29.65 159.9 47.6 156.2 69.7 156.2 91.8 156.2 109.8 159.9 127.35 163.5 134.85 169.35 L138.95 169.35 139.2 169.85" fill="url(#gradient0)" fill-rule="evenodd" stroke="none"/>
      <path d="M118.85 156.6 Q139.2 162.5 139.2 170.85 139.2 179.2 118.85 185.1 98.5 191.0 69.7 191.0 54.6 191.0 41.0 189.2 27.85 187.45 18.1 184.3 18.4 183.5 17.7 183.15 L15.75 182.65 Q8.85 181.25 4.85 178.1 -0.95 173.55 2.0 166.65 L1.95 166.4 Q7.25 159.6 26.05 155.2 45.1 150.7 69.7 150.7 98.5 150.7 118.85 156.6" fill="#d9fb3a" fill-rule="evenodd" stroke="none"/>
      <path d="M139.2 169.85 Q139.2 178.2 118.85 184.1 98.5 190.0 69.7 190.0 40.9 190.0 20.6 184.1 0.25 178.2 0.25 169.85 0.25 161.5 20.6 155.6 40.9 149.7 69.7 149.7 98.5 149.7 118.85 155.6 139.2 161.5 139.2 169.85" fill="url(#gradient1)" fill-rule="evenodd" stroke="none"/>
      <path d="M131.5 167.65 Q131.5 173.55 113.5 177.7 95.45 181.9 69.95 181.9 44.5 181.9 26.5 177.7 8.5 173.55 8.5 167.65 8.5 161.75 26.5 157.55 44.45 153.4 69.95 153.4 95.45 153.4 113.5 157.55 131.5 161.75 131.5 167.65" fill="#6e8311" fill-rule="evenodd" stroke="none"/>
      <path d="M123.0 183.4 L123.0 189.4 15.05 189.2 15.05 183.05 28.25 171.9 70.5 172.4 109.5 175.4 123.0 183.4" fill="url(#gradient2)" fill-rule="evenodd" stroke="none"/>
      <path d="M125.0 190.65 L125.0 193.9 Q121.95 196.35 113.15 198.8 95.6 203.65 67.0 203.65 38.4 203.65 21.6 199.3 16.35 197.9 12.9 196.25 L10.5 194.9 10.5 191.65 Q13.85 190.1 20.15 184.35 L25.75 178.9 125.0 190.65" fill="url(#gradient3)" fill-rule="evenodd" stroke="none"/>
      <path d="M108.0 174.4 Q110.65 178.8 118.1 184.75 121.8 187.7 125.0 189.8 121.95 192.65 113.15 195.5 95.6 201.15 67.0 201.15 38.4 201.15 21.6 196.4 16.35 194.9 12.9 193.15 L10.5 191.65 12.65 190.05 17.5 185.9 Q21.7 182.0 25.05 177.8 L27.5 174.4 108.0 174.4" fill="url(#gradient4)" fill-rule="evenodd" stroke="none"/>
      <path d="M108.0 174.4 Q110.65 178.55 118.1 184.6 121.8 187.6 125.0 189.8 121.95 192.3 113.15 194.8 95.6 199.8 67.0 199.8 38.4 199.8 21.6 195.3 16.35 193.85 12.9 192.15 L10.5 190.75 12.65 189.25 17.5 185.3 Q21.7 181.6 25.05 177.6 L27.5 174.4 108.0 174.4" fill="url(#gradient5)" fill-rule="evenodd" stroke="none"/>
      <path d="M110.6 176.1 Q105.85 178.85 96.6 180.75 82.45 183.75 63.5 183.15 47.65 182.65 37.45 180.1 30.5 178.4 25.25 175.4 L68.15 108.95 Q109.55 174.9 110.6 176.1" fill="url(#gradient6)" fill-rule="evenodd" stroke="none"/>
      <path d="M42.05 17.8 Q54.2 7.4 67.15 7.4 80.1 7.4 92.4 17.8 103.85 27.5 113.1 44.75 122.05 61.5 127.1 81.95 132.25 102.75 132.25 123.0 132.25 135.95 130.2 148.0 128.1 160.3 124.4 168.3 124.45 168.8 122.0 170.45 118.7 172.65 113.45 174.5 97.35 180.2 70.55 180.2 43.95 180.2 24.45 174.0 18.25 172.05 13.45 169.65 L9.6 167.5 Q6.65 160.0 4.75 147.1 2.9 134.55 2.9 123.0 2.9 102.75 7.9 81.95 12.85 61.45 21.65 44.75 30.7 27.5 42.05 17.8" fill="url(#gradient7)" fill-rule="evenodd" stroke="none"/>
      <path d="M104.7 150.95 Q104.7 165.95 101.9 177.6 89.05 181.05 70.75 181.05 L48.1 180.1 Q38.65 179.05 32.3 176.4 30.65 167.55 30.15 164.1 28.9 156.05 28.9 150.95 28.9 120.0 40.0 92.3 45.4 78.9 52.05 71.3 59.25 63.05 66.8 63.05 74.35 63.05 81.55 71.3 88.2 78.9 93.6 92.3 104.7 119.95 104.7 150.95" fill="#b9a93f" fill-rule="evenodd" stroke="none"/>
      <path d="M103.2 152.0 Q103.2 158.65 102.4 164.85 101.7 169.95 100.25 176.15 93.45 178.0 87.75 178.9 L70.55 180.2 Q44.35 180.2 31.8 174.85 29.9 164.15 29.9 152.0 29.9 121.2 40.65 93.7 45.85 80.35 52.3 72.8 59.25 64.6 66.55 64.6 73.85 64.6 80.8 72.8 87.25 80.35 92.45 93.7 103.2 121.2 103.2 152.0" fill="#f9ea86" fill-rule="evenodd" stroke="none"/>
      <path d="M103.7 152.6 L103.45 165.7 Q103.05 172.25 101.85 177.25 L92.05 179.75 Q82.35 181.55 69.5 181.55 57.3 181.55 47.85 179.75 39.8 178.25 32.8 175.25 30.9 165.15 30.9 152.6 30.9 122.0 41.55 94.75 46.75 81.45 53.15 73.95 60.05 65.85 67.3 65.85 74.55 65.85 81.45 73.95 87.85 81.45 93.05 94.75 103.7 122.0 103.7 152.6" fill="url(#gradient8)" fill-rule="evenodd" stroke="none"/>
      <path d="M48.45 27.85 Q47.7 26.9 48.3 25.35 49.8 21.4 54.1 21.1 55.75 21.0 56.6 22.0 57.35 22.95 57.05 24.4 56.3 27.9 51.6 28.55 49.3 28.9 48.45 27.85" fill="#f7f3cd" fill-rule="evenodd" stroke="none"/>
      <path d="M85.7 101.4 Q85.7 109.55 80.25 115.3 74.8 121.05 67.05 121.05 59.35 121.05 53.9 115.3 48.45 109.55 48.45 101.4 48.45 93.2 53.9 87.45 59.35 81.7 67.05 81.7 74.8 81.7 80.25 87.45 85.7 93.25 85.7 101.4" fill="url(#gradient9)" fill-rule="evenodd" stroke="none"/>
      <path d="M85.0 100.65 Q85.0 108.55 79.75 114.05 74.5 119.6 67.05 119.6 59.6 119.6 54.35 114.05 49.1 108.5 49.1 100.65 49.1 92.8 54.35 87.25 59.65 81.7 67.05 81.7 74.5 81.7 79.75 87.25 85.0 92.8 85.0 100.65" fill="url(#gradient10)" fill-rule="evenodd" stroke="none"/>
      <path d="M82.45 99.1 Q82.45 105.8 77.95 110.6 73.4 115.35 67.05 115.35 60.7 115.35 56.15 110.6 51.65 105.8 51.65 99.1 51.65 92.35 56.15 87.6 60.65 82.85 67.05 82.85 73.45 82.85 77.95 87.6 82.45 92.35 82.45 99.1" fill="url(#gradient11)" fill-rule="evenodd" stroke="none"/>
      <path d="M81.25 99.95 Q81.25 106.0 77.1 110.25 72.95 114.5 67.05 114.5 61.2 114.5 57.05 110.25 52.9 106.0 52.9 99.95 52.9 93.9 57.05 89.65 61.2 85.4 67.05 85.4 72.95 85.4 77.1 89.65 81.25 93.9 81.25 99.95" fill="url(#gradient12)" fill-rule="evenodd" stroke="none"/>
      <path d="M123.6 69.15 Q124.6 72.5 124.8 74.85 125.05 78.15 123.25 78.2 121.3 78.25 118.95 73.5 116.0 67.5 117.0 63.3 116.15 67.5 118.35 68.5 119.85 69.15 121.35 69.15 L123.6 69.15 M117.25 62.55 L117.25 62.45 117.4 62.25 117.25 62.55" fill="url(#gradient13)" fill-rule="evenodd" stroke="none"/>
      <path d="M118.55 61.15 L118.75 61.05 Q119.5 60.7 120.15 60.65 L119.0 60.95 118.55 61.15 M124.3 60.5 L126.6 60.55 Q126.0 60.95 125.6 61.7 125.2 62.5 125.35 63.1 L127.65 63.15 Q127.95 62.05 128.5 61.7 129.2 61.25 131.25 61.0 L130.45 61.35 Q129.95 61.55 129.65 61.8 128.75 62.5 128.55 63.0 128.2 63.6 128.2 64.55 L124.65 64.35 124.65 64.3 Q124.55 63.25 124.8 62.25 125.15 61.0 125.95 60.65 123.45 60.55 122.9 64.3 L119.75 64.2 119.65 63.5 Q119.7 62.6 120.35 61.8 L121.55 60.5 121.0 61.15 Q120.4 62.0 120.2 63.3 L121.3 63.3 122.4 63.4 122.8 62.3 Q123.0 61.6 123.35 61.25 123.65 60.9 124.3 60.5 M133.65 60.75 L136.15 60.8 Q137.8 60.8 141.95 61.95 L141.95 62.0 139.8 61.45 Q139.0 61.7 138.4 62.35 137.8 63.1 138.0 63.8 L139.95 63.8 Q139.75 62.6 141.95 62.2 L141.95 62.95 141.8 63.05 Q140.4 63.9 139.85 65.2 139.7 65.65 139.7 66.1 L137.3 65.5 137.3 63.95 Q137.4 62.45 139.1 61.65 137.9 61.6 136.75 62.25 135.45 62.9 135.1 64.0 L135.05 65.0 134.95 65.15 132.35 65.0 130.35 64.75 130.35 64.0 Q130.35 61.85 131.35 61.0 L131.7 60.95 Q130.85 62.0 130.7 63.3 L132.35 63.3 133.15 63.4 133.95 63.45 134.2 63.35 134.35 63.15 134.7 62.25 Q135.05 61.5 135.95 61.15 L136.8 60.85 133.65 60.75 M141.95 64.05 L141.95 65.2 141.15 66.45 Q141.0 65.65 141.3 64.75 L141.45 64.5 141.95 64.05" fill="#7d9436" fill-rule="evenodd" stroke="none"/>
      <path d="M120.15 60.65 L121.55 60.5 120.35 61.8 Q119.7 62.6 119.65 63.5 L119.75 64.2 122.9 64.3 Q123.45 60.55 125.95 60.65 125.15 61.0 124.8 62.25 124.55 63.25 124.65 64.3 L124.65 64.35 128.2 64.55 Q128.2 63.6 128.55 63.0 128.75 62.5 129.65 61.8 129.95 61.55 130.45 61.35 L131.25 61.0 131.35 61.0 Q130.35 61.85 130.35 64.0 L130.35 64.75 132.35 65.0 134.95 65.15 134.35 66.15 134.1 67.2 134.05 67.45 133.2 67.3 131.85 67.35 130.5 67.2 Q129.55 66.85 129.45 65.5 L129.3 63.35 Q128.7 63.75 128.5 65.0 128.35 66.2 128.65 66.95 125.15 67.4 124.3 66.5 123.85 66.0 123.85 64.6 L124.0 62.55 Q123.35 63.45 123.2 64.15 L123.15 65.55 123.0 65.95 122.65 66.0 120.0 65.7 Q118.95 65.35 118.6 64.5 117.9 62.65 119.0 60.95 L120.15 60.65 M141.95 65.2 L141.95 67.2 141.85 67.75 141.8 68.15 Q140.95 68.35 140.65 67.25 140.45 66.45 140.55 65.5 L139.7 66.45 139.1 67.3 138.8 68.3 137.0 68.05 Q135.65 67.7 135.5 67.15 L135.55 66.4 135.65 65.65 Q135.75 64.8 136.15 64.25 L135.2 65.1 135.45 64.6 135.05 65.0 135.1 64.0 Q135.45 62.9 136.75 62.25 137.9 61.6 139.1 61.65 137.4 62.45 137.3 63.95 L137.3 65.5 139.7 66.1 Q139.7 65.65 139.85 65.2 140.4 63.9 141.8 63.05 141.15 63.65 141.35 64.55 L141.45 64.5 141.3 64.75 Q141.0 65.65 141.15 66.45 L141.95 65.2" fill="#6a7e2e" fill-rule="evenodd" stroke="none"/>
      <path d="M141.95 67.2 L141.9 68.85 Q141.65 69.5 141.65 70.15 L140.05 69.7 Q139.25 69.3 139.35 68.55 L139.05 69.4 137.45 69.0 Q135.8 68.7 135.15 68.2 134.7 67.85 134.75 66.85 134.8 65.9 135.2 65.1 L136.15 64.25 Q135.75 64.8 135.65 65.65 L135.55 66.4 135.5 67.15 Q135.65 67.7 137.0 68.05 L138.8 68.3 139.1 67.3 139.7 66.45 140.55 65.5 Q140.45 66.45 140.65 67.25 140.95 68.35 141.8 68.15 L141.85 67.75 141.95 67.2 M119.0 60.95 Q117.9 62.65 118.6 64.5 118.95 65.35 120.0 65.7 L122.65 66.0 123.0 65.95 122.9 66.9 122.7 67.6 121.0 67.8 Q119.0 67.8 117.95 66.8 117.3 66.2 117.2 65.5 L117.3 64.0 Q117.5 61.75 118.65 61.15 L118.55 61.15 119.0 60.95 M123.15 65.55 L123.2 64.15 Q123.35 63.45 124.0 62.55 L123.85 64.6 Q123.85 66.0 124.3 66.5 125.15 67.4 128.65 66.95 128.35 66.2 128.5 65.0 128.7 63.75 129.3 63.35 L129.45 65.5 Q129.55 66.85 130.5 67.2 L131.85 67.35 133.2 67.3 134.05 67.45 133.8 68.8 Q129.75 69.3 128.8 67.2 L128.8 68.45 128.05 68.45 127.3 68.3 125.95 68.2 124.65 67.95 Q123.05 67.45 123.15 65.55" fill="#556424" fill-rule="evenodd" stroke="none"/>
      <path d="M141.9 70.45 L136.35 69.3 132.8 69.05 130.35 69.15 123.6 69.15 121.35 69.15 Q119.85 69.15 118.35 68.5 116.15 67.5 117.0 63.3 L117.25 62.55 117.4 62.25 118.2 61.4 118.55 61.15 118.65 61.15 Q117.5 61.75 117.3 64.0 L117.2 65.5 Q117.3 66.2 117.95 66.8 119.0 67.8 121.0 67.8 L122.7 67.6 122.9 66.9 123.0 65.95 123.15 65.55 Q123.05 67.45 124.65 67.95 L125.95 68.2 127.3 68.3 128.05 68.45 128.8 68.45 128.8 67.2 Q129.75 69.3 133.8 68.8 L134.05 67.45 134.1 67.2 134.35 66.15 134.95 65.15 135.05 65.0 135.45 64.6 135.2 65.1 Q134.8 65.9 134.75 66.85 134.7 67.85 135.15 68.2 135.8 68.7 137.45 69.0 L139.05 69.4 139.35 68.55 Q139.25 69.3 140.05 69.7 L141.65 70.15 Q141.65 69.5 141.9 68.85 L141.9 70.45" fill="#3b4619" fill-rule="evenodd" stroke="none"/>
      <path d="M121.55 60.5 L123.2 60.5 124.35 60.45 124.3 60.5 Q123.65 60.9 123.35 61.25 123.0 61.6 122.8 62.3 L122.4 63.4 121.3 63.3 120.2 63.3 Q120.4 62.0 121.0 61.15 L121.55 60.5 M126.6 60.55 L126.6 60.5 127.8 60.55 128.15 60.6 133.65 60.75 136.8 60.85 135.95 61.15 Q135.05 61.5 134.7 62.25 L134.35 63.15 134.2 63.35 133.95 63.45 133.15 63.4 132.35 63.3 130.7 63.3 Q130.85 62.0 131.7 60.95 L131.35 61.0 131.25 61.0 Q129.2 61.25 128.5 61.7 127.95 62.05 127.65 63.15 L125.35 63.1 Q125.2 62.5 125.6 61.7 126.0 60.95 126.6 60.55 M141.95 62.0 L141.95 62.2 Q139.75 62.6 139.95 63.8 L138.0 63.8 Q137.8 63.1 138.4 62.35 139.0 61.7 139.8 61.45 L141.95 62.0 M141.95 62.95 L141.95 64.05 141.45 64.5 141.35 64.55 Q141.15 63.65 141.8 63.05 L141.95 62.95" fill="#a3c147" fill-rule="evenodd" stroke="none"/>
      <path d="M132.2 125.95 L131.95 127.65 Q130.7 132.25 126.55 132.8 122.25 133.35 118.05 129.75 115.45 127.55 111.4 121.95 108.6 118.1 105.9 111.35 L104.2 106.7 105.05 107.65 Q106.95 111.25 118.3 118.65 129.55 125.95 131.8 125.95 L132.2 125.95" fill="url(#gradient14)" fill-rule="evenodd" stroke="none"/>
      <path d="M155.95 18.7 L159.15 10.35 Q157.3 8.8 157.2 6.0 157.15 3.85 158.3 2.25 159.3 0.9 160.7 0.65 L158.85 0.6 Q157.1 0.7 155.9 2.3 154.75 3.9 154.8 6.1 154.9 8.85 156.75 10.4 L154.65 15.85 154.1 14.65 155.95 9.8 Q154.05 8.2 153.95 5.45 153.9 3.3 155.1 1.7 156.25 0.1 158.0 0.0 L161.9 0.3 Q162.9 0.6 163.5 1.25 L162.25 1.05 Q160.5 1.15 159.3 2.75 158.15 4.3 158.2 6.5 158.3 9.25 160.2 10.85 L156.6 20.15 155.95 18.7 M143.2 10.75 L141.8 9.45 Q140.8 8.0 140.75 6.05 140.75 3.85 141.95 2.25 143.2 0.65 144.95 0.55 L148.7 0.65 Q149.75 0.9 150.25 1.55 L149.5 1.3 149.4 1.3 Q149.85 1.45 150.3 1.75 L149.2 1.6 Q147.45 1.7 146.2 3.3 144.95 4.9 145.0 7.1 145.05 9.05 146.05 10.5 L147.15 11.6 Q145.9 11.25 145.0 10.0 144.0 8.55 144.0 6.6 143.95 4.4 145.2 2.8 146.2 1.45 147.65 1.2 L145.75 1.2 Q144.0 1.3 142.8 2.85 141.55 4.45 141.6 6.65 141.6 8.6 142.6 10.05 L143.2 10.75 M172.15 35.5 L172.5 35.7 172.1 35.65 172.15 35.5 M103.05 104.3 L102.9 104.15 102.85 103.6 Q102.8 103.35 102.9 103.05 L103.05 102.9 Q104.65 99.3 116.45 91.6 127.7 84.3 129.95 84.3 131.6 84.3 133.0 86.65 133.75 87.75 134.1 88.9 133.2 87.3 131.8 87.3 129.55 87.3 118.3 94.6 111.0 99.35 107.6 102.55 105.5 104.55 104.9 105.9 L104.75 106.05 Q104.65 106.35 104.7 106.6 L104.7 107.0 104.45 106.5 104.35 106.35 104.25 105.8 104.35 105.2 104.45 105.05 105.75 103.15 Q108.8 99.65 117.9 93.75 129.1 86.45 131.35 86.45 132.2 86.45 132.9 87.0 131.6 85.1 130.1 85.1 127.85 85.1 116.6 92.4 104.8 100.1 103.2 103.7 L103.05 103.9 103.05 104.3 M134.95 93.5 Q140.2 92.8 140.95 90.75 141.7 88.75 141.9 70.45 L141.9 68.85 141.95 67.2 141.95 65.2 141.95 64.05 141.95 62.95 141.95 62.2 141.95 62.0 141.95 61.95 141.95 45.15 142.75 45.1 142.8 62.45 Q142.7 88.9 141.8 91.35 141.0 93.55 134.95 94.2 L134.95 93.5 M136.6 43.15 L135.75 42.45 Q135.0 41.6 134.95 40.05 134.95 38.5 135.75 37.35 136.6 36.15 137.75 36.05 L133.05 20.2 133.75 20.3 138.6 36.65 Q137.4 36.8 136.6 37.95 135.8 39.1 135.8 40.7 135.8 42.25 136.55 43.1 L136.6 43.15 M132.05 19.55 L132.0 19.5 131.55 19.25 131.9 19.25 132.05 19.55 M129.8 18.4 L128.55 17.3 Q127.65 16.0 127.7 13.85 127.7 11.8 128.85 10.3 130.0 8.85 131.6 8.75 137.0 8.5 137.9 10.45 137.0 9.75 135.85 9.8 134.25 9.9 133.1 11.35 131.95 12.85 131.9 14.9 131.9 16.95 133.05 18.35 L133.85 19.1 Q132.8 18.85 132.05 17.85 130.9 16.45 130.9 14.4 130.9 12.35 132.05 10.85 132.9 9.8 134.0 9.45 L132.45 9.35 Q130.85 9.45 129.7 10.9 128.55 12.4 128.5 14.45 128.5 16.6 129.4 17.9 L129.8 18.4 M138.95 17.6 L142.95 19.4 144.2 11.5 145.1 11.8 143.85 19.8 146.05 20.8 147.5 11.85 148.5 12.2 147.05 21.3 138.95 17.6 M177.6 8.15 L176.55 8.0 Q174.95 8.1 173.9 9.55 172.85 11.05 172.95 13.05 173.1 14.75 173.95 16.0 L166.15 20.45 165.95 19.5 172.9 15.5 Q172.05 14.25 171.95 12.55 171.85 10.55 172.9 9.05 173.8 7.75 175.15 7.55 L173.15 7.55 Q171.55 7.65 170.5 9.1 169.45 10.6 169.55 12.6 169.6 14.15 170.55 15.6 L165.7 18.35 165.45 17.4 Q167.6 16.15 169.7 14.95 168.8 13.7 168.75 12.0 168.65 10.0 169.7 8.5 170.7 7.05 172.3 6.95 L175.9 7.15 Q176.95 7.4 177.5 8.05 L177.25 7.9 177.6 8.15 M140.6 44.45 Q139.75 44.25 139.1 43.4 138.2 42.25 138.2 40.6 138.2 39.05 139.0 37.9 139.8 36.7 140.95 36.55 L135.8 19.7 136.6 19.55 142.0 37.1 Q140.85 37.25 140.0 38.4 139.2 39.6 139.2 41.15 139.2 42.8 140.1 43.9 L140.6 44.45 M144.8 44.85 L145.85 44.8 Q146.0 89.65 144.85 92.8 143.95 95.25 136.6 95.75 L134.95 95.75 134.95 95.2 135.6 95.2 Q142.95 94.75 143.85 92.3 145.1 88.85 144.8 44.85" fill="#fbf0a8" fill-rule="evenodd" stroke="none"/>
      <path d="M154.65 15.85 L156.75 10.4 Q154.9 8.85 154.8 6.1 154.75 3.9 155.9 2.3 157.1 0.7 158.85 0.6 L160.7 0.65 Q159.3 0.9 158.3 2.25 157.15 3.85 157.2 6.0 157.3 8.8 159.15 10.35 L155.95 18.7 154.65 15.85 M143.2 10.75 L142.6 10.05 Q141.6 8.6 141.6 6.65 141.55 4.45 142.8 2.85 144.0 1.3 145.75 1.2 L147.65 1.2 Q146.2 1.45 145.2 2.8 143.95 4.4 144.0 6.6 144.0 8.55 145.0 10.0 145.9 11.25 147.15 11.6 L147.5 11.85 146.05 20.8 143.85 19.8 145.1 11.8 144.2 11.5 143.2 10.75 M150.3 1.75 Q149.85 1.45 149.4 1.3 L149.5 1.3 150.25 1.55 150.95 2.0 150.3 1.75 M168.15 87.05 L168.45 89.5 Q168.55 91.75 168.2 93.9 L168.25 90.95 168.15 87.05 M104.2 106.7 L103.2 105.15 103.05 105.0 103.0 104.45 103.05 104.3 103.05 103.9 103.2 103.7 Q104.8 100.1 116.6 92.4 127.85 85.1 130.1 85.1 131.6 85.1 132.9 87.0 132.2 86.45 131.35 86.45 129.1 86.45 117.9 93.75 108.8 99.65 105.75 103.15 L104.45 105.05 104.35 105.2 104.25 105.8 104.35 106.35 104.45 106.5 104.7 107.0 104.75 107.15 104.9 107.35 105.05 107.65 104.2 106.7 M141.95 45.15 L140.75 45.25 138.8 44.5 136.6 43.15 136.55 43.1 Q135.8 42.25 135.8 40.7 135.8 39.1 136.6 37.95 137.4 36.8 138.6 36.65 L133.75 20.3 133.05 20.2 132.85 20.1 Q132.3 19.9 132.05 19.55 L131.9 19.25 131.55 19.25 Q130.5 19.15 129.8 18.4 L129.4 17.9 Q128.5 16.6 128.5 14.45 128.55 12.4 129.7 10.9 130.85 9.45 132.45 9.35 L134.0 9.45 Q132.9 9.8 132.05 10.85 130.9 12.35 130.9 14.4 130.9 16.45 132.05 17.85 132.8 18.85 133.85 19.1 134.7 19.75 135.8 19.7 L140.95 36.55 Q139.8 36.7 139.0 37.9 138.2 39.05 138.2 40.6 138.2 42.25 139.1 43.4 139.75 44.25 140.6 44.45 141.35 45.0 142.25 44.95 L144.8 44.85 Q145.1 88.85 143.85 92.3 142.95 94.75 135.6 95.2 L134.95 95.2 134.95 94.2 Q141.0 93.55 141.8 91.35 142.7 88.9 142.8 62.45 L142.75 45.1 141.95 45.15 M177.6 8.15 L177.25 7.9 177.5 8.05 177.8 8.2 177.6 8.15 M165.7 18.35 L170.55 15.6 Q169.6 14.15 169.55 12.6 169.45 10.6 170.5 9.1 171.55 7.65 173.15 7.55 L175.15 7.55 Q173.8 7.75 172.9 9.05 171.85 10.55 171.95 12.55 172.05 14.25 172.9 15.5 L165.95 19.5 165.7 18.35 M169.5 41.9 L169.6 41.85 Q170.75 41.25 170.95 40.1 L171.0 39.2 Q171.0 38.2 170.25 37.5 L170.1 37.35 Q170.85 37.45 171.4 38.0 172.15 38.7 172.15 39.7 L172.15 40.1 Q172.15 41.15 171.4 41.9 170.65 42.6 169.6 42.65 L164.95 42.8 Q164.65 78.9 164.95 91.15 165.2 100.35 160.65 105.95 155.1 112.75 142.4 113.8 L134.95 114.05 134.95 113.9 134.25 113.95 134.25 114.0 134.2 116.55 Q133.95 118.4 133.25 119.5 L132.75 120.85 132.7 121.05 Q132.45 121.45 131.85 121.4 131.25 121.35 129.7 120.55 L131.0 120.7 Q132.6 120.35 132.65 116.2 L132.7 112.35 136.6 112.8 Q151.55 111.75 158.4 105.15 L160.5 102.75 160.1 103.45 Q162.6 100.1 163.35 97.3 163.85 95.35 163.85 92.1 L163.85 91.15 163.85 90.65 Q163.65 83.6 163.8 44.55 L163.8 42.25 168.45 42.15 169.5 41.9 M169.55 37.0 L168.8 36.8 168.7 36.8 168.45 36.8 168.3 36.8 173.9 18.75 175.1 17.95 169.55 37.0 M165.4 23.0 L164.45 23.45 161.9 11.55 162.4 10.15 165.4 23.0 M140.7 20.2 L139.25 19.5 139.2 19.45 140.7 20.2 M144.3 42.8 L144.85 42.8 149.0 42.7 149.0 43.25 146.0 43.35 Q145.0 43.35 144.3 42.8 M150.2 11.7 L150.2 11.65 156.75 22.2 156.4 22.9 150.2 11.7" fill="#c8b74c" fill-rule="evenodd" stroke="none"/>
      <path d="M155.95 18.7 L156.6 20.15 160.2 10.85 Q158.3 9.25 158.2 6.5 158.15 4.3 159.3 2.75 160.5 1.15 162.25 1.05 L163.5 1.25 Q164.45 1.55 165.3 2.45 166.6 3.95 166.7 6.15 166.8 7.85 166.05 9.3 165.35 10.7 164.1 11.3 L165.45 17.4 165.7 18.35 165.95 19.5 166.15 20.45 173.95 16.0 Q173.1 14.75 172.95 13.05 172.85 11.05 173.9 9.55 174.95 8.1 176.55 8.0 L177.6 8.15 177.8 8.2 Q178.65 8.5 179.35 9.3 180.6 10.7 180.75 12.7 180.85 14.75 179.8 16.25 178.75 17.8 177.15 17.85 L176.4 17.75 172.15 35.5 172.1 35.65 172.5 35.7 Q173.4 35.9 174.15 36.8 175.0 37.9 175.1 39.45 175.2 41.05 174.35 42.25 173.55 43.5 172.3 43.55 L168.2 43.7 Q167.95 75.35 168.15 87.05 L168.25 90.95 168.2 93.9 Q167.55 100.45 163.1 105.95 157.45 112.95 148.25 114.8 140.7 116.3 134.95 116.55 L134.95 121.65 134.35 123.8 Q133.55 125.7 132.2 125.95 L131.8 125.95 Q129.55 125.95 118.3 118.65 106.95 111.25 105.05 107.65 L104.9 107.35 104.75 107.15 104.7 107.0 104.7 106.6 Q104.65 106.35 104.75 106.05 L104.9 105.9 Q105.5 104.55 107.6 102.55 111.0 99.35 118.3 94.6 129.55 87.3 131.8 87.3 133.2 87.3 134.1 88.9 L134.35 89.45 Q134.85 90.5 134.95 91.55 L134.95 93.5 134.95 94.2 134.95 95.2 134.95 95.75 136.6 95.75 Q143.95 95.25 144.85 92.8 146.0 89.65 145.85 44.8 L144.8 44.85 142.25 44.95 Q141.35 45.0 140.6 44.45 L140.1 43.9 Q139.2 42.8 139.2 41.15 139.2 39.6 140.0 38.4 140.85 37.25 142.0 37.1 L136.6 19.55 135.8 19.7 Q134.7 19.75 133.85 19.1 L133.05 18.35 Q131.9 16.95 131.9 14.9 131.95 12.85 133.1 11.35 134.25 9.9 135.85 9.8 137.0 9.75 137.9 10.45 L138.6 11.1 Q139.75 12.5 139.75 14.55 139.75 16.25 138.95 17.6 L147.05 21.3 148.5 12.2 147.5 11.85 147.15 11.6 146.05 10.5 Q145.05 9.05 145.0 7.1 144.95 4.9 146.2 3.3 147.45 1.7 149.2 1.6 L150.3 1.75 150.95 2.0 Q151.65 2.35 152.2 3.05 153.5 4.55 153.55 6.75 153.65 8.95 152.3 10.7 L154.1 14.65 154.65 15.85 155.95 18.7 M161.9 11.55 L161.85 11.4 160.45 14.3 160.45 14.35 156.75 22.2 150.2 11.65 150.2 11.7 150.1 11.55 149.4 15.35 147.9 23.6 140.7 20.2 139.2 19.45 139.25 19.5 138.75 19.3 138.05 18.95 139.3 22.1 145.2 37.45 144.85 37.5 Q143.85 37.5 143.1 38.2 L143.05 38.25 Q142.3 39.0 142.3 40.0 L142.3 40.05 142.3 40.4 Q142.3 41.45 143.05 42.15 143.6 42.65 144.3 42.8 145.0 43.35 146.0 43.35 L149.0 43.25 Q148.8 89.5 148.35 92.5 147.85 95.45 141.9 96.95 L132.85 98.05 Q132.65 92.3 130.45 92.6 127.85 92.95 116.3 101.05 L113.7 103.0 113.1 103.45 Q112.3 104.0 112.25 104.05 L111.75 104.55 111.65 104.65 Q109.65 106.9 112.0 109.0 114.4 111.2 120.0 114.95 L127.35 119.5 129.7 120.55 Q131.25 121.35 131.85 121.4 132.45 121.45 132.7 121.05 L132.75 120.85 133.25 119.5 Q133.95 118.4 134.2 116.55 L134.25 114.0 134.25 113.95 134.95 113.9 134.95 114.05 142.4 113.8 Q155.1 112.75 160.65 105.95 165.2 100.35 164.95 91.15 164.65 78.9 164.95 42.8 L169.6 42.65 Q170.65 42.6 171.4 41.9 172.15 41.15 172.15 40.1 L172.15 39.7 Q172.15 38.7 171.4 38.0 170.85 37.45 170.1 37.35 L169.55 37.0 175.1 17.95 173.9 18.75 173.9 18.65 165.4 23.0 162.4 10.15 161.9 11.55 M155.85 32.5 L155.95 31.15 156.6 28.15 156.7 27.8 157.05 27.2 Q157.25 27.05 157.5 27.05 157.8 27.0 158.15 27.35 L158.55 27.9 159.3 28.85 159.7 28.3 160.5 27.4 160.75 27.2 161.25 27.0 Q162.05 27.0 162.2 28.15 L162.25 28.25 162.85 32.35 162.8 32.7 162.7 32.85 162.1 33.0 Q161.55 33.1 161.35 32.55 L161.3 32.5 161.0 30.95 160.8 29.2 160.75 29.0 159.75 30.35 159.65 30.4 159.1 30.7 158.7 30.55 158.35 30.1 157.75 29.3 157.6 30.3 157.15 32.65 Q157.05 33.2 156.5 33.2 155.85 33.2 155.85 32.5 M154.9 30.0 L155.45 31.9 155.55 32.45 155.5 32.85 155.4 33.05 154.9 33.2 Q154.4 33.2 154.1 32.7 L154.0 32.45 153.75 31.75 152.65 31.85 152.4 31.85 152.3 32.4 Q152.3 33.1 151.6 33.15 150.95 33.15 150.9 32.6 L150.9 32.45 Q150.9 31.3 152.05 27.95 152.25 27.3 152.55 27.0 L153.05 26.75 Q153.55 26.75 153.9 27.55 L154.9 30.0 M150.0 30.3 Q150.7 30.5 150.7 31.05 150.7 31.85 150.1 32.55 L149.95 32.7 Q149.3 33.3 148.4 33.3 L147.2 32.95 146.7 32.55 Q145.9 31.7 145.9 30.3 145.9 28.95 146.8 27.95 147.75 26.95 149.05 26.9 L149.1 26.9 Q150.5 26.9 150.5 27.75 L150.3 28.3 149.9 28.35 149.1 28.2 Q148.4 28.2 147.9 28.8 147.55 29.25 147.5 29.8 L147.45 30.25 Q147.45 30.8 147.7 31.25 L147.8 31.4 147.8 31.45 148.55 31.9 149.2 31.6 148.75 31.6 Q148.0 31.6 148.0 30.9 148.0 30.15 148.95 30.15 L149.15 30.2 149.9 30.25 150.0 30.3 M153.0 29.5 L152.7 30.6 153.35 30.55 153.0 29.5 M154.4 34.5 Q155.65 34.55 156.45 35.6 L156.5 35.65 Q157.15 36.55 157.15 37.75 157.15 38.85 156.6 39.65 L156.25 40.0 Q155.4 40.85 154.15 40.85 L152.8 40.55 152.1 39.95 Q151.4 39.1 151.4 37.75 151.4 36.35 152.25 35.4 153.1 34.55 154.3 34.5 L154.4 34.5 M160.1 34.25 L160.8 34.25 Q161.4 34.25 161.4 34.8 L161.15 35.3 160.4 35.55 159.05 35.65 159.15 36.6 159.15 37.15 159.15 37.35 159.3 37.35 160.05 37.4 Q160.6 37.45 160.6 37.95 L160.3 38.5 159.85 38.6 159.25 38.65 159.3 39.55 159.3 39.75 159.2 40.35 Q159.0 40.7 158.55 40.7 157.95 40.7 157.85 40.15 L157.65 37.9 157.75 35.25 157.8 34.95 Q157.9 34.25 159.45 34.25 L160.1 34.25 M153.95 36.1 L153.4 36.55 Q153.0 37.1 153.0 38.0 L153.0 38.15 153.3 39.05 153.35 39.1 Q153.7 39.55 154.15 39.5 154.85 39.5 155.25 38.95 155.65 38.45 155.65 37.65 155.65 37.0 155.3 36.55 154.95 35.95 154.35 36.0 L153.95 36.1 M158.4 45.35 L159.45 45.6 Q160.0 45.85 160.0 46.25 L159.8 46.7 159.7 46.8 159.25 46.95 158.1 46.8 Q157.25 46.8 156.6 47.5 155.95 48.2 155.95 49.0 L156.0 49.3 Q156.05 50.0 156.5 50.55 157.1 51.2 158.2 51.4 159.0 51.55 159.0 52.0 L158.7 52.6 157.85 52.8 156.0 52.45 155.05 51.8 Q153.85 50.75 153.85 49.3 153.85 47.65 155.3 46.45 156.55 45.4 158.05 45.35 L158.4 45.35 M165.6 27.0 L165.9 26.95 166.7 27.1 166.9 27.6 166.6 28.1 165.35 28.3 164.85 28.35 164.9 29.25 164.9 29.65 164.9 29.85 165.05 29.85 165.8 29.9 Q166.3 29.9 166.3 30.4 L166.05 30.95 165.55 31.05 164.95 31.1 165.0 31.45 165.05 31.8 165.4 31.8 165.95 31.75 166.1 31.75 Q166.75 31.8 166.75 32.35 L166.45 32.9 165.1 33.1 164.5 33.1 Q163.95 33.15 163.7 32.75 L163.6 32.5 163.35 30.1 163.6 27.65 Q163.65 27.1 164.3 27.05 L165.6 27.0 M157.1 54.5 Q157.95 54.55 158.65 55.05 159.5 55.65 159.5 56.6 L159.4 57.3 158.3 58.55 158.7 59.1 159.25 59.8 159.75 60.8 159.55 61.35 158.95 61.5 Q158.55 61.5 158.1 61.1 L157.85 60.9 156.85 59.8 156.85 60.75 156.85 60.85 156.8 61.2 156.75 61.55 155.9 62.0 Q155.35 62.0 155.1 61.6 L154.9 61.2 154.8 59.75 Q154.8 57.85 155.15 56.6 L154.9 56.65 Q154.1 56.65 154.1 56.0 154.1 55.5 154.95 55.0 155.75 54.55 156.75 54.5 L157.1 54.5 M157.6 63.7 Q158.95 63.8 159.85 64.8 160.75 65.85 160.75 67.25 L160.65 68.1 Q160.4 69.1 159.55 69.85 158.4 70.85 156.75 70.9 L154.9 70.55 Q154.4 70.3 154.0 69.85 153.1 68.9 153.1 67.4 153.1 65.75 154.25 64.7 155.35 63.7 156.95 63.65 L157.6 63.7 M160.35 73.0 L160.75 72.9 Q161.6 72.9 161.6 73.5 L161.5 74.25 161.35 74.65 160.45 76.85 159.55 78.85 Q159.0 79.8 158.35 79.85 157.85 79.85 157.5 79.4 L157.0 78.5 156.65 77.7 156.15 78.9 155.85 79.35 Q155.5 79.95 154.85 79.95 154.25 80.05 153.95 79.55 153.5 78.95 152.95 77.05 L152.35 74.65 152.25 73.6 Q152.25 72.75 152.8 72.55 L153.2 72.45 Q154.05 72.35 154.2 73.4 L154.65 75.25 155.05 77.15 155.75 75.75 Q156.05 75.2 156.55 75.1 L156.85 75.05 Q157.35 75.0 157.75 75.4 L158.05 75.85 158.55 76.85 159.8 73.5 160.35 73.0 M157.45 56.8 Q157.45 56.2 157.0 56.05 L156.85 57.8 Q157.45 57.35 157.45 56.8 M155.75 69.0 Q156.2 69.4 156.8 69.35 157.7 69.3 158.25 68.65 158.8 68.05 158.8 67.2 158.8 66.45 158.35 65.9 157.85 65.25 157.05 65.3 L156.85 65.35 Q156.25 65.4 155.8 65.95 155.25 66.6 155.25 67.65 L155.25 67.8 Q155.3 68.4 155.65 68.85 L155.75 69.0 M154.0 88.8 L153.85 88.4 153.65 85.95 153.75 83.85 Q153.85 83.15 154.05 82.9 154.15 82.75 154.35 82.7 L154.75 82.6 Q155.25 82.6 155.5 82.9 L157.0 84.65 158.3 86.3 158.15 82.95 Q158.15 82.4 158.6 82.25 L159.0 82.15 Q159.65 82.15 159.85 82.65 160.2 83.7 160.2 86.25 L160.1 88.15 160.0 88.45 Q159.75 89.15 159.05 89.2 L158.25 88.9 158.1 88.8 Q157.25 88.15 155.55 86.05 L155.65 87.3 155.65 88.05 155.55 88.75 154.7 89.3 154.1 89.1 154.0 88.8 M157.25 91.3 Q158.05 91.25 158.55 91.7 159.05 92.2 159.05 93.0 L158.95 93.65 Q158.7 94.05 158.15 94.1 157.55 94.1 157.4 93.65 L157.3 93.15 Q157.3 92.8 157.1 92.8 156.8 92.8 156.8 93.35 L156.9 93.75 156.9 93.8 157.2 94.2 157.65 94.7 158.0 95.05 Q158.85 95.95 158.85 96.65 L158.75 97.4 158.3 98.15 Q157.7 98.85 156.5 98.9 155.65 98.9 155.35 98.55 L155.1 97.95 Q155.1 97.2 155.75 97.2 L156.8 97.3 157.05 97.05 Q157.05 96.55 156.15 95.85 L155.25 94.95 Q154.8 94.4 154.8 93.7 154.8 92.8 155.5 92.05 156.25 91.35 157.2 91.3 L157.25 91.3" fill="#f7e25e" fill-rule="evenodd" stroke="none"/>
      <path d="M160.45 14.35 L162.95 25.8 172.4 21.0 166.8 39.15 166.95 39.1 Q168.0 39.1 168.75 39.8 169.5 40.5 169.5 41.5 L169.5 41.9 168.45 42.15 163.8 42.25 163.8 44.55 162.3 44.6 Q162.15 85.7 162.35 92.95 162.45 96.75 162.15 98.35 161.8 100.3 160.5 102.75 L158.4 105.15 Q151.55 111.75 136.6 112.8 L132.7 112.35 132.65 116.2 Q132.6 120.35 131.0 120.7 L129.7 120.55 127.35 119.5 120.0 114.95 Q114.4 111.2 112.0 109.0 109.65 106.9 111.65 104.65 L111.75 104.55 Q110.35 106.05 110.9 107.5 117.6 102.5 121.1 100.45 126.35 97.3 127.85 96.65 130.8 95.3 130.95 96.95 L131.1 100.45 133.25 100.3 140.6 98.95 Q144.95 97.9 146.75 96.25 148.3 94.85 148.35 92.5 148.8 89.5 149.0 43.25 L149.0 42.7 144.85 42.8 144.3 42.8 Q143.6 42.65 143.05 42.15 142.3 41.45 142.3 40.4 L142.3 40.05 143.35 39.8 143.7 39.8 143.1 38.2 Q143.85 37.5 144.85 37.5 L145.2 37.45 139.3 22.1 139.5 22.65 146.4 25.9 146.9 23.15 138.75 19.3 139.25 19.5 140.7 20.2 147.9 23.6 149.4 15.35 154.9 25.25 156.15 22.55 150.1 11.55 150.2 11.7 156.4 22.9 156.75 22.2 160.45 14.35 M157.05 27.2 L156.9 27.0 Q156.6 26.7 156.25 26.7 155.6 26.7 155.45 27.45 L155.35 27.8 154.9 30.0 153.9 27.55 Q153.55 26.75 153.05 26.75 L152.55 27.0 Q152.25 26.4 151.8 26.4 151.2 26.4 150.8 27.6 L150.6 28.25 150.4 28.8 150.4 28.7 150.3 28.3 150.5 27.75 Q150.5 26.9 149.1 26.9 148.75 26.55 147.8 26.55 146.5 26.6 145.55 27.6 144.6 28.65 144.6 29.95 144.6 31.35 145.4 32.2 L145.5 32.3 145.55 32.35 146.05 32.7 146.55 33.45 Q147.3 34.25 148.3 34.25 149.3 34.25 149.95 33.5 L150.4 32.8 Q150.75 32.8 150.9 32.6 L150.8 33.4 Q150.8 34.15 151.5 34.05 L152.05 33.75 152.2 33.35 152.3 32.8 153.2 32.75 153.6 32.85 153.7 32.85 153.9 33.4 Q154.2 34.15 154.75 34.15 155.4 34.15 155.4 33.4 L155.4 33.05 155.5 32.85 155.8 32.6 155.7 33.45 Q155.7 34.15 156.4 34.15 L157.05 33.6 157.65 30.35 157.75 30.35 158.6 31.45 159.0 31.65 159.55 31.35 159.8 31.05 160.05 32.2 Q160.3 32.7 160.85 32.7 L161.05 32.7 161.2 33.45 Q161.4 33.95 162.0 33.95 162.75 33.95 162.75 33.3 L162.7 32.85 162.8 32.7 163.25 32.75 163.4 32.75 163.5 33.45 Q163.65 34.05 164.35 34.05 L164.95 34.05 Q166.6 34.05 166.6 33.3 L166.45 32.9 166.75 32.35 Q166.75 31.8 166.1 31.75 L166.2 31.35 166.05 30.95 166.3 30.4 Q166.3 29.9 165.8 29.9 L165.05 29.85 164.9 29.65 164.9 29.25 165.25 29.25 Q166.8 29.25 166.8 28.55 L166.6 28.1 166.9 27.6 166.7 27.1 165.9 26.95 165.6 27.0 Q165.4 26.6 164.65 26.6 L163.05 26.7 Q162.4 26.75 162.35 27.3 L162.25 28.25 162.2 28.15 Q162.05 27.0 161.25 27.0 L160.75 27.2 Q160.5 26.65 160.0 26.65 159.55 26.65 158.55 27.9 L158.15 27.35 Q157.8 27.0 157.5 27.05 157.25 27.05 157.05 27.2 M150.3 29.1 L150.0 30.3 149.9 30.25 149.15 30.2 148.65 29.9 147.75 29.8 147.8 29.75 Q148.3 29.15 149.0 29.15 L149.45 29.2 149.75 29.3 150.3 29.1 M154.4 34.5 L153.05 34.2 Q151.85 34.2 151.0 35.05 150.15 36.0 150.15 37.4 150.15 38.75 150.85 39.6 L151.1 39.9 151.55 40.25 151.95 40.9 Q152.75 41.85 154.05 41.8 155.3 41.8 156.15 40.95 L156.75 40.15 157.3 40.35 157.65 40.3 157.75 41.1 Q157.85 41.65 158.45 41.65 159.2 41.65 159.2 40.65 L159.2 40.35 159.3 39.75 159.3 39.55 159.75 39.55 Q160.5 39.45 160.5 38.9 L160.3 38.5 160.6 37.95 Q160.6 37.45 160.05 37.4 L159.3 37.35 159.15 37.15 159.15 36.6 160.3 36.5 Q161.3 36.35 161.3 35.75 L161.15 35.3 161.4 34.8 Q161.4 34.25 160.8 34.25 L160.1 34.25 159.55 33.9 158.2 33.9 Q156.65 33.9 156.55 34.6 L156.5 34.9 156.5 35.65 156.45 35.6 Q155.65 34.55 154.4 34.5 M153.0 38.15 L153.3 37.5 Q153.65 36.95 154.25 36.9 L154.35 36.9 154.4 37.3 Q154.4 38.05 154.0 38.6 L153.35 39.1 153.3 39.05 153.0 38.15 M147.8 31.4 L147.7 31.25 147.95 31.25 147.8 31.4 M158.4 45.35 L158.2 45.25 156.8 45.05 Q155.3 45.1 154.0 46.15 152.6 47.3 152.6 48.95 152.6 50.45 153.75 51.45 L153.85 51.55 154.1 51.75 154.9 52.75 Q156.05 53.8 157.7 53.75 158.85 53.75 158.85 52.95 L158.7 52.6 159.0 52.0 Q159.0 51.55 158.2 51.4 157.1 51.2 156.5 50.55 156.05 50.0 156.0 49.3 L156.45 48.45 Q157.1 47.75 157.95 47.75 L159.15 47.9 Q159.85 47.9 159.85 47.2 L159.7 46.8 159.8 46.7 160.0 46.25 Q160.0 45.85 159.45 45.6 L158.4 45.35 M159.4 57.3 L159.5 56.6 Q159.5 55.65 158.65 55.05 157.95 54.55 157.1 54.5 156.4 54.15 155.5 54.15 154.5 54.2 153.7 54.65 152.85 55.15 152.85 55.65 152.85 56.3 153.6 56.3 L153.9 56.25 Q153.5 57.5 153.5 59.4 153.5 60.25 153.65 60.85 153.9 61.75 154.65 61.65 L154.7 61.65 154.8 62.15 Q155.0 62.95 155.8 62.95 156.65 62.95 156.7 62.15 L156.75 61.55 156.8 61.2 156.85 60.85 157.75 61.85 Q158.3 62.45 158.85 62.45 159.65 62.45 159.65 61.75 L159.55 61.35 159.75 60.8 159.25 59.8 158.7 59.1 Q159.4 58.4 159.4 57.55 L159.4 57.3 M160.65 68.1 L160.75 67.25 Q160.75 65.85 159.85 64.8 158.95 63.8 157.6 63.7 L155.7 63.3 Q154.1 63.35 153.0 64.35 151.85 65.4 151.85 67.05 151.85 68.55 152.75 69.5 L152.9 69.65 153.35 70.05 153.9 70.8 Q154.9 71.9 156.65 71.85 158.3 71.8 159.45 70.8 160.65 69.75 160.65 68.2 L160.65 68.1 M161.5 74.25 L161.6 73.5 Q161.6 72.9 160.75 72.9 L160.35 73.0 Q160.25 72.55 159.5 72.55 158.9 72.65 158.55 73.15 L157.75 75.4 Q157.35 75.0 156.85 75.05 L156.55 75.1 Q156.15 74.65 155.6 74.7 155.0 74.7 154.65 75.25 L154.2 73.4 Q154.05 72.35 153.2 72.45 L152.8 72.55 Q152.55 72.05 151.95 72.1 151.0 72.1 151.0 73.25 L151.1 74.3 151.7 76.7 Q152.25 78.6 152.7 79.2 152.95 79.55 153.4 79.6 L153.85 80.5 Q154.1 80.9 154.75 80.9 155.35 80.9 155.75 80.3 L156.35 79.15 156.95 79.5 157.4 80.35 Q157.75 80.8 158.25 80.75 158.9 80.75 159.45 79.75 L160.35 77.75 161.2 75.6 161.5 74.45 161.5 74.25 M157.45 66.3 L157.5 66.85 Q157.5 67.7 156.95 68.3 L155.75 69.0 155.65 68.85 Q155.3 68.4 155.25 67.8 155.4 67.25 155.7 66.9 156.2 66.25 156.95 66.25 L157.45 66.3 M154.35 82.7 L154.25 82.55 Q154.0 82.25 153.5 82.25 152.65 82.25 152.5 83.5 L152.4 85.6 152.6 88.05 152.85 88.75 153.45 88.95 153.65 88.95 153.7 89.35 154.0 90.0 Q154.15 90.25 154.6 90.2 155.55 90.2 155.55 89.0 L155.55 88.75 155.65 88.05 155.65 87.3 156.05 87.75 Q157.3 89.35 158.1 89.85 L158.95 90.15 Q159.65 90.1 159.9 89.4 L160.1 88.15 160.2 86.25 Q160.2 83.7 159.85 82.65 159.65 82.15 159.0 82.15 L158.6 82.25 Q158.35 81.8 157.75 81.8 156.9 81.8 156.9 82.6 L156.9 82.7 157.0 84.65 155.5 82.9 Q155.25 82.6 154.75 82.6 L154.35 82.7 M157.25 91.3 Q156.75 90.9 155.95 90.95 155.0 91.0 154.25 91.7 153.55 92.45 153.55 93.35 153.55 94.05 154.0 94.6 L154.9 95.5 154.95 95.55 155.05 95.6 155.8 96.6 155.8 96.7 155.55 96.95 154.5 96.85 Q153.85 96.85 153.85 97.6 153.85 98.5 155.05 98.55 L155.0 98.9 Q155.0 99.85 156.35 99.8 157.55 99.75 158.2 99.05 158.75 98.45 158.75 97.6 L158.75 97.4 158.85 96.65 Q158.85 95.95 158.0 95.05 L158.05 95.05 Q158.95 94.95 158.95 93.95 L158.95 93.65 159.05 93.0 Q159.05 92.2 158.55 91.7 158.05 91.25 157.25 91.3 M157.0 93.75 L157.05 93.75 157.15 93.75 157.2 94.1 157.2 94.2 156.9 93.8 157.0 93.75" fill="url(#gradient15)" fill-rule="evenodd" stroke="none"/>
      <path d="M160.45 14.35 L160.45 14.3 161.85 11.4 161.9 11.55 164.45 23.45 165.4 23.0 173.9 18.65 173.9 18.75 168.3 36.8 168.45 36.8 168.7 36.8 168.8 36.8 169.55 37.0 170.1 37.35 170.25 37.5 Q171.0 38.2 171.0 39.2 L170.95 40.1 Q170.75 41.25 169.6 41.85 L169.5 41.9 169.5 41.5 Q169.5 40.5 168.75 39.8 168.0 39.1 166.95 39.1 L166.8 39.15 172.4 21.0 162.95 25.8 160.45 14.35 M150.1 11.55 L156.15 22.55 154.9 25.25 149.4 15.35 150.1 11.55 M143.1 38.2 L143.7 39.8 143.35 39.8 142.3 40.05 142.3 40.0 Q142.3 39.0 143.05 38.25 L143.1 38.2 M160.5 102.75 Q161.8 100.3 162.15 98.35 162.45 96.75 162.35 92.95 162.15 85.7 162.3 44.6 L163.8 44.55 Q163.65 83.6 163.85 90.65 L163.85 91.15 163.85 92.1 Q163.85 95.35 163.35 97.3 162.6 100.1 160.1 103.45 L160.5 102.75" fill="#8a2d09" fill-rule="evenodd" stroke="none"/>
      <path d="M157.05 27.2 L156.7 27.8 156.6 28.15 155.95 31.15 155.85 32.5 155.8 32.6 155.5 32.85 155.55 32.45 155.45 31.9 154.9 30.0 155.35 27.8 155.45 27.45 Q155.6 26.7 156.25 26.7 156.6 26.7 156.9 27.0 L157.05 27.2 M157.6 30.3 L157.75 29.3 158.35 30.1 157.85 30.35 157.75 30.35 157.65 30.35 157.6 30.3 M159.75 30.35 L160.75 29.0 160.8 29.2 161.0 30.95 161.3 32.5 161.35 32.55 161.05 32.7 160.85 32.7 Q160.3 32.7 160.05 32.2 L159.8 31.05 159.75 30.6 159.75 30.35 M162.8 32.7 L162.85 32.35 162.25 28.25 162.35 27.3 Q162.4 26.75 163.05 26.7 L164.65 26.6 Q165.4 26.6 165.6 27.0 L164.3 27.05 Q163.65 27.1 163.6 27.65 L163.35 30.1 163.6 32.5 163.7 32.75 163.4 32.75 163.25 32.75 162.8 32.7 M160.75 27.2 L160.5 27.4 159.7 28.3 159.3 28.85 158.55 27.9 Q159.55 26.65 160.0 26.65 160.5 26.65 160.75 27.2 M152.55 27.0 Q152.25 27.3 152.05 27.95 150.9 31.3 150.9 32.45 L150.9 32.6 Q150.75 32.8 150.4 32.8 L150.35 32.8 149.95 32.7 150.1 32.55 Q150.7 31.85 150.7 31.05 150.7 30.5 150.0 30.3 L150.3 29.1 150.4 28.8 150.6 28.25 150.8 27.6 Q151.2 26.4 151.8 26.4 152.25 26.4 152.55 27.0 M152.65 31.85 L153.75 31.75 154.0 32.45 154.1 32.7 153.7 32.85 153.6 32.85 153.2 32.75 152.75 32.1 152.65 31.85 M149.1 26.9 L149.05 26.9 Q147.75 26.95 146.8 27.95 145.9 28.95 145.9 30.3 145.9 31.7 146.7 32.55 L147.2 32.95 147.15 32.95 146.05 32.7 145.55 32.35 145.5 32.3 145.4 32.2 Q144.6 31.35 144.6 29.95 144.6 28.65 145.55 27.6 146.5 26.6 147.8 26.55 148.75 26.55 149.1 26.9 M147.5 29.8 L147.7 29.8 147.75 29.8 148.65 29.9 149.15 30.2 148.95 30.15 Q148.0 30.15 148.0 30.9 148.0 31.6 148.75 31.6 L149.2 31.6 148.55 31.9 147.8 31.45 147.8 31.4 147.95 31.25 147.7 31.25 Q147.45 30.8 147.45 30.25 L147.5 29.8 M153.0 29.5 L153.35 30.55 152.7 30.6 153.0 29.5 M151.55 40.25 L151.1 39.9 150.85 39.6 Q150.15 38.75 150.15 37.4 150.15 36.0 151.0 35.05 151.85 34.2 153.05 34.2 L154.4 34.5 154.3 34.5 Q153.1 34.55 152.25 35.4 151.4 36.35 151.4 37.75 151.4 39.1 152.1 39.95 L152.8 40.55 151.55 40.25 M156.5 35.65 L156.5 34.9 156.55 34.6 Q156.65 33.9 158.2 33.9 L159.55 33.9 160.1 34.25 159.45 34.25 Q157.9 34.25 157.8 34.95 L157.75 35.25 157.65 37.9 157.85 40.15 157.65 40.3 157.3 40.35 156.75 40.15 156.6 39.8 156.6 39.65 Q157.15 38.85 157.15 37.75 157.15 36.55 156.5 35.65 M159.15 37.15 L159.3 37.35 159.15 37.35 159.15 37.15 M154.35 36.9 L154.05 36.2 153.95 36.1 154.35 36.0 Q154.95 35.95 155.3 36.55 155.65 37.0 155.65 37.65 155.65 38.45 155.25 38.95 154.85 39.5 154.15 39.5 153.7 39.55 153.35 39.1 L154.0 38.6 Q154.4 38.05 154.4 37.3 L154.35 36.9 M154.1 51.75 L153.85 51.55 153.75 51.45 Q152.6 50.45 152.6 48.95 152.6 47.3 154.0 46.15 155.3 45.1 156.8 45.05 L158.2 45.25 158.4 45.35 158.05 45.35 Q156.55 45.4 155.3 46.45 153.85 47.65 153.85 49.3 153.85 50.75 155.05 51.8 L156.0 52.45 Q154.95 52.35 154.1 51.75 M164.9 29.65 L165.05 29.85 164.9 29.85 164.9 29.65 M165.0 31.45 L165.4 31.8 165.05 31.8 165.0 31.45 M154.7 61.65 L154.65 61.65 Q153.9 61.75 153.65 60.85 153.5 60.25 153.5 59.4 153.5 57.5 153.9 56.25 L153.6 56.3 Q152.85 56.3 152.85 55.65 152.85 55.15 153.7 54.65 154.5 54.2 155.5 54.15 156.4 54.15 157.1 54.5 L156.75 54.5 Q155.75 54.55 154.95 55.0 154.1 55.5 154.1 56.0 154.1 56.65 154.9 56.65 L155.15 56.6 Q154.8 57.85 154.8 59.75 L154.9 61.2 155.1 61.6 154.7 61.65 M153.35 70.05 L152.9 69.65 152.75 69.5 Q151.85 68.55 151.85 67.05 151.85 65.4 153.0 64.35 154.1 63.35 155.7 63.3 L157.6 63.7 156.95 63.65 Q155.35 63.7 154.25 64.7 153.1 65.75 153.1 67.4 153.1 68.9 154.0 69.85 154.4 70.3 154.9 70.55 154.0 70.45 153.35 70.0 L153.35 70.05 M156.95 79.5 L156.35 79.15 156.25 79.05 156.15 78.9 156.65 77.7 157.0 78.5 157.5 79.4 157.1 79.5 156.95 79.5 M153.4 79.6 Q152.95 79.55 152.7 79.2 152.25 78.6 151.7 76.7 L151.1 74.3 151.0 73.25 Q151.0 72.1 151.95 72.1 152.55 72.05 152.8 72.55 152.25 72.75 152.25 73.6 L152.35 74.65 152.95 77.05 Q153.5 78.95 153.95 79.55 L153.6 79.6 153.4 79.6 M154.65 75.25 Q155.0 74.7 155.6 74.7 156.15 74.65 156.55 75.1 156.05 75.2 155.75 75.75 L155.05 77.15 154.65 75.25 M157.75 75.4 L158.55 73.15 Q158.9 72.65 159.5 72.55 160.25 72.55 160.35 73.0 L159.8 73.5 158.55 76.85 158.05 75.85 157.75 75.4 M157.45 56.8 Q157.45 57.35 156.85 57.8 L157.0 56.05 Q157.45 56.2 157.45 56.8 M156.85 60.75 L156.85 59.8 157.85 60.9 158.1 61.1 157.7 61.15 Q157.25 61.15 156.85 60.75 M156.85 65.35 L157.05 65.3 Q157.85 65.25 158.35 65.9 158.8 66.45 158.8 67.2 158.8 68.05 158.25 68.65 157.7 69.3 156.8 69.35 156.2 69.4 155.75 69.0 L156.95 68.3 Q157.5 67.7 157.5 66.85 L157.45 66.3 157.05 65.55 156.85 65.35 M154.35 82.7 Q154.15 82.75 154.05 82.9 153.85 83.15 153.75 83.85 L153.65 85.95 153.85 88.4 154.0 88.8 153.65 88.95 153.45 88.95 152.85 88.75 152.6 88.05 152.4 85.6 152.5 83.5 Q152.65 82.25 153.5 82.25 154.0 82.25 154.25 82.55 L154.35 82.7 M155.65 87.3 L155.55 86.05 Q157.25 88.15 158.1 88.8 L157.8 88.85 156.95 88.55 156.05 87.75 155.65 87.3 M158.6 82.25 Q158.15 82.4 158.15 82.95 L158.3 86.3 157.0 84.65 156.9 82.7 156.9 82.6 Q156.9 81.8 157.75 81.8 158.35 81.8 158.6 82.25 M155.05 98.55 Q153.85 98.5 153.85 97.6 153.85 96.85 154.5 96.85 L155.55 96.95 155.8 96.7 155.8 96.6 155.05 95.6 154.95 95.55 154.9 95.5 154.0 94.6 Q153.55 94.05 153.55 93.35 153.55 92.45 154.25 91.7 155.0 91.0 155.95 90.95 156.75 90.9 157.25 91.3 L157.2 91.3 Q156.25 91.35 155.5 92.05 154.8 92.8 154.8 93.7 154.8 94.4 155.25 94.95 L156.15 95.85 Q157.05 96.55 157.05 97.05 L156.8 97.3 155.75 97.2 Q155.1 97.2 155.1 97.95 L155.35 98.55 155.25 98.55 155.05 98.55 M156.9 93.75 L156.8 93.35 Q156.8 92.8 157.1 92.8 157.3 92.8 157.3 93.15 L157.4 93.65 157.15 93.75 157.05 93.75 157.0 93.75 156.9 93.75" fill="#aa9a34" fill-rule="evenodd" stroke="none"/>
      <path d="M148.35 92.5 Q148.3 94.85 146.75 96.25 144.95 97.9 140.6 98.95 L133.25 100.3 131.1 100.45 130.95 96.95 Q130.8 95.3 127.85 96.65 126.35 97.3 121.1 100.45 117.6 102.5 110.9 107.5 110.35 106.05 111.75 104.55 L112.25 104.05 Q112.3 104.0 113.1 103.45 L113.7 103.0 116.3 101.05 Q127.85 92.95 130.45 92.6 132.65 92.3 132.85 98.05 L141.9 96.95 Q147.85 95.45 148.35 92.5" fill="#642004" fill-rule="evenodd" stroke="none"/>
      <path d="M155.8 32.6 L155.85 32.5 Q155.85 33.2 156.5 33.2 157.05 33.2 157.15 32.65 L157.6 30.3 157.65 30.35 157.05 33.6 156.4 34.15 Q155.7 34.15 155.7 33.45 L155.8 32.6 M158.35 30.1 L158.7 30.55 159.1 30.7 159.65 30.4 159.75 30.35 159.75 30.6 159.8 31.05 159.55 31.35 159.0 31.65 158.6 31.45 157.75 30.35 157.85 30.35 158.35 30.1 M161.35 32.55 Q161.55 33.1 162.1 33.0 L162.7 32.85 162.75 33.3 Q162.75 33.95 162.0 33.95 161.4 33.95 161.2 33.45 L161.05 32.7 161.35 32.55 M150.4 28.8 L150.3 29.1 149.75 29.3 149.45 29.2 149.0 29.15 Q148.3 29.15 147.8 29.75 L147.75 29.8 147.7 29.8 147.5 29.8 Q147.55 29.25 147.9 28.8 148.4 28.2 149.1 28.2 L149.9 28.35 150.3 28.3 150.4 28.7 150.4 28.8 M149.95 32.7 L150.35 32.8 150.4 32.8 149.95 33.5 Q149.3 34.25 148.3 34.25 147.3 34.25 146.55 33.45 L146.05 32.7 147.15 32.95 147.2 32.95 148.4 33.3 Q149.3 33.3 149.95 32.7 M150.9 32.6 Q150.95 33.15 151.6 33.15 152.3 33.1 152.3 32.4 L152.4 31.85 152.65 31.85 152.75 32.1 153.2 32.75 152.3 32.8 152.2 33.35 152.05 33.75 151.5 34.05 Q150.8 34.15 150.8 33.4 L150.9 32.6 M154.1 32.7 Q154.4 33.2 154.9 33.2 L155.4 33.05 155.4 33.4 Q155.4 34.15 154.75 34.15 154.2 34.15 153.9 33.4 L153.7 32.85 154.1 32.7 M161.15 35.3 L161.3 35.75 Q161.3 36.35 160.3 36.5 L159.15 36.6 159.05 35.65 160.4 35.55 161.15 35.3 M160.3 38.5 L160.5 38.9 Q160.5 39.45 159.75 39.55 L159.3 39.55 159.25 38.65 159.85 38.6 160.3 38.5 M159.2 40.35 L159.2 40.65 Q159.2 41.65 158.45 41.65 157.85 41.65 157.75 41.1 L157.65 40.3 157.85 40.15 Q157.95 40.7 158.55 40.7 159.0 40.7 159.2 40.35 M156.75 40.15 L156.15 40.95 Q155.3 41.8 154.05 41.8 152.75 41.85 151.95 40.9 L151.55 40.25 152.8 40.55 154.15 40.85 Q155.4 40.85 156.25 40.0 L156.6 39.65 156.6 39.8 156.75 40.15 M153.0 38.15 L153.0 38.0 Q153.0 37.1 153.4 36.55 L153.95 36.1 154.05 36.2 154.35 36.9 154.25 36.9 Q153.65 36.95 153.3 37.5 L153.0 38.15 M159.7 46.8 L159.85 47.2 Q159.85 47.9 159.15 47.9 L157.95 47.75 Q157.1 47.75 156.45 48.45 L156.0 49.3 155.95 49.0 Q155.95 48.2 156.6 47.5 157.25 46.8 158.1 46.8 L159.25 46.95 159.7 46.8 M158.7 52.6 L158.85 52.95 Q158.85 53.75 157.7 53.75 156.05 53.8 154.9 52.75 L154.1 51.75 Q154.95 52.35 156.0 52.45 L157.85 52.8 158.7 52.6 M166.6 28.1 L166.8 28.55 Q166.8 29.25 165.25 29.25 L164.9 29.25 164.85 28.35 165.35 28.3 166.6 28.1 M166.05 30.95 L166.2 31.35 166.1 31.75 165.95 31.75 165.4 31.8 165.0 31.45 164.95 31.1 165.55 31.05 166.05 30.95 M166.45 32.9 L166.6 33.3 Q166.6 34.05 164.95 34.05 L164.35 34.05 Q163.65 34.05 163.5 33.45 L163.4 32.75 163.7 32.75 Q163.95 33.15 164.5 33.1 L165.1 33.1 166.45 32.9 M159.4 57.3 L159.4 57.55 Q159.4 58.4 158.7 59.1 L158.3 58.55 159.4 57.3 M159.55 61.35 L159.65 61.75 Q159.65 62.45 158.85 62.45 158.3 62.45 157.75 61.85 L156.85 60.85 156.85 60.75 Q157.25 61.15 157.7 61.15 L158.1 61.1 Q158.55 61.5 158.95 61.5 L159.55 61.35 M156.75 61.55 L156.7 62.15 Q156.65 62.95 155.8 62.95 155.0 62.95 154.8 62.15 L154.7 61.65 155.1 61.6 Q155.35 62.0 155.9 62.0 L156.75 61.55 M160.65 68.1 L160.65 68.2 Q160.65 69.75 159.45 70.8 158.3 71.8 156.65 71.85 154.9 71.9 153.9 70.8 L153.35 70.05 153.35 70.0 Q154.0 70.45 154.9 70.55 L156.75 70.9 Q158.4 70.85 159.55 69.85 160.4 69.1 160.65 68.1 M161.5 74.25 L161.5 74.45 161.2 75.6 160.35 77.75 159.45 79.75 Q158.9 80.75 158.25 80.75 157.75 80.8 157.4 80.35 L156.95 79.5 157.1 79.5 157.5 79.4 Q157.85 79.85 158.35 79.85 159.0 79.8 159.55 78.85 L160.45 76.85 161.35 74.65 161.5 74.25 M156.35 79.15 L155.75 80.3 Q155.35 80.9 154.75 80.9 154.1 80.9 153.85 80.5 L153.4 79.6 153.6 79.6 153.95 79.55 Q154.25 80.05 154.85 79.95 155.5 79.95 155.85 79.35 L156.15 78.9 156.25 79.05 156.35 79.15 M156.85 65.35 L157.05 65.55 157.45 66.3 156.95 66.25 Q156.2 66.25 155.7 66.9 155.4 67.25 155.25 67.8 L155.25 67.65 Q155.25 66.6 155.8 65.95 156.25 65.4 156.85 65.35 M153.65 88.95 L154.0 88.8 154.1 89.1 154.7 89.3 155.55 88.75 155.55 89.0 Q155.55 90.2 154.6 90.2 154.15 90.25 154.0 90.0 L153.7 89.35 153.65 88.95 M158.1 88.8 L158.25 88.9 159.05 89.2 Q159.75 89.15 160.0 88.45 L160.1 88.15 159.9 89.4 Q159.65 90.1 158.95 90.15 L158.1 89.85 Q157.3 89.35 156.05 87.75 L156.95 88.55 157.8 88.85 158.1 88.8 M158.95 93.65 L158.95 93.95 Q158.95 94.95 158.05 95.05 L158.0 95.05 157.65 94.7 157.2 94.2 157.2 94.1 157.15 93.75 157.4 93.65 Q157.55 94.1 158.15 94.1 158.7 94.05 158.95 93.65 M158.75 97.4 L158.75 97.6 Q158.75 98.45 158.2 99.05 157.55 99.75 156.35 99.8 155.0 99.85 155.0 98.9 L155.05 98.55 155.25 98.55 155.35 98.55 Q155.65 98.9 156.5 98.9 157.7 98.85 158.3 98.15 L158.75 97.4 M156.9 93.75 L157.0 93.75 156.9 93.8 156.9 93.75" fill="#621f04" fill-rule="evenodd" stroke="none"/>
      <path d="M79.55 153.7 Q81.5 156.9 81.5 160.6 81.5 166.3 77.3 170.35 73.05 174.35 67.05 174.35 61.05 174.35 56.85 170.35 52.6 166.3 52.6 160.6 52.6 156.35 55.1 152.85 57.55 149.45 61.6 147.9 61.8 149.65 62.85 151.25 59.7 152.45 57.7 155.15 55.7 157.9 55.7 161.25 55.7 165.7 59.05 168.85 62.35 172.0 67.05 172.0 71.75 172.0 75.05 168.85 78.4 165.7 78.4 161.25 78.4 158.4 76.9 155.95 L77.3 155.7 79.55 153.7" fill="url(#gradient16)" fill-rule="evenodd" stroke="none"/>
      <path d="M69.55 131.1 Q70.4 131.15 70.95 131.7 71.55 132.25 71.5 133.0 71.5 133.9 70.65 134.5 L72.4 137.55 74.3 134.2 Q73.7 133.7 73.7 132.9 73.7 132.1 74.3 131.55 74.85 131.0 75.7 130.9 76.5 130.85 77.05 131.3 77.65 131.8 77.6 132.55 L77.15 133.75 76.05 134.5 76.7 137.45 80.3 135.55 Q79.95 135.1 79.95 134.6 79.95 133.95 80.45 133.35 81.0 132.8 81.7 132.65 82.4 132.5 82.9 132.85 83.35 133.2 83.35 133.9 83.35 134.55 82.85 135.2 82.35 135.8 81.65 135.95 L81.3 135.95 80.0 139.4 Q81.4 139.65 81.4 141.1 81.4 141.95 80.65 142.8 L80.85 143.8 Q81.1 149.75 79.6 151.75 77.1 155.05 74.6 155.65 L71.7 155.6 71.45 157.0 71.9 157.4 Q73.05 158.55 73.25 159.3 L74.55 159.6 75.05 159.7 75.8 159.4 Q76.05 158.9 76.3 158.95 L76.6 159.2 76.4 159.6 76.3 159.75 76.45 159.85 76.95 159.9 77.25 159.95 77.5 160.15 Q77.5 160.7 76.9 160.75 L77.2 160.9 77.25 161.25 76.9 161.5 76.55 161.55 76.65 161.65 Q76.85 161.95 76.35 162.15 L75.3 161.95 75.1 161.9 74.55 161.6 74.0 161.6 Q72.55 161.3 71.7 160.65 71.15 160.25 71.1 159.85 L71.0 159.75 70.85 160.1 Q69.85 162.45 68.9 163.5 L69.05 163.55 69.7 163.8 70.3 164.3 71.1 164.95 Q71.8 164.5 72.25 164.3 L72.9 164.1 73.4 163.7 Q73.9 163.5 74.05 163.95 L73.9 164.3 74.2 164.25 Q74.45 164.4 74.35 164.65 L74.15 164.95 74.25 165.05 74.3 165.35 73.95 165.85 73.7 165.95 73.6 166.05 73.0 166.7 Q72.2 167.1 71.9 167.35 71.15 167.95 70.65 167.9 L70.15 167.55 69.8 167.15 69.8 167.0 Q69.25 166.9 68.55 166.3 L67.75 165.75 Q67.25 165.75 66.7 165.4 L64.75 164.35 62.5 164.9 Q61.4 164.95 61.1 164.4 L61.0 164.4 59.85 164.2 59.45 164.65 58.6 165.1 58.45 165.2 58.4 165.65 58.05 165.8 57.8 165.65 57.65 165.2 57.35 165.1 57.15 164.6 57.2 164.35 57.0 164.1 Q56.9 163.75 57.2 163.6 L58.0 162.85 Q58.3 162.6 58.9 162.4 59.5 161.95 59.85 162.1 L60.15 162.35 61.05 162.5 62.1 162.6 62.5 162.8 63.3 162.65 62.8 161.55 Q62.7 160.8 63.85 159.65 L66.05 157.35 64.1 157.65 62.55 158.55 62.9 159.05 62.45 159.35 62.05 159.1 61.95 159.0 61.8 159.1 61.5 159.55 61.35 159.85 61.0 160.0 60.65 159.85 60.5 159.35 60.2 159.65 59.8 159.6 59.65 159.25 59.7 158.95 59.6 159.0 59.3 159.05 Q59.05 159.0 59.1 158.7 59.2 158.1 59.7 157.75 L59.9 157.55 Q60.55 156.9 61.2 156.65 L61.25 156.65 Q62.2 156.15 63.8 155.75 L66.45 155.2 68.2 155.15 68.8 154.7 66.8 153.6 Q62.95 150.7 62.95 146.7 62.9 145.25 63.2 143.95 62.15 143.1 62.15 142.0 62.15 141.15 62.85 140.55 63.5 140.0 64.45 140.0 L63.15 136.75 62.8 136.75 Q62.0 136.65 61.45 136.05 60.9 135.45 60.9 134.75 60.9 134.05 61.45 133.65 62.0 133.25 62.8 133.3 63.55 133.4 64.1 133.95 64.65 134.55 64.65 135.2 64.65 135.8 64.25 136.2 L68.05 137.85 68.8 134.7 Q67.5 134.25 67.5 132.9 67.5 132.1 68.1 131.6 68.7 131.1 69.55 131.1" fill="url(#gradient17)" fill-rule="evenodd" stroke="none"/>
      <path d="M26.5 145.75 Q27.0 156.0 27.6 162.4 L24.15 161.9 Q20.05 161.05 16.75 159.25 13.45 157.45 10.8 140.55 L8.75 124.0 26.8 121.45 26.45 129.75 Q26.2 139.35 26.5 145.75" fill="#93872b" fill-rule="evenodd" stroke="none"/>
    </g>
    <radialGradient cx="0" cy="0" gradientTransform="matrix(0.0807, 0.0, 0.0, -0.0807, 69.65, 176.35)" gradientUnits="userSpaceOnUse" id="gradient0" r="819.2" spreadMethod="pad">
      <stop offset="0.0" stop-color="#688519"/>
      <stop offset="1.0" stop-color="#82a921"/>
    </radialGradient>
    <radialGradient cx="0" cy="0" gradientTransform="matrix(0.0845, 0.0, 0.0, -0.025, 69.7, 169.85)" gradientUnits="userSpaceOnUse" id="gradient1" r="819.2" spreadMethod="pad">
      <stop offset="0.0" stop-color="#5c7616"/>
      <stop offset="0.3764705882352941" stop-color="#5e7816"/>
      <stop offset="0.5568627450980392" stop-color="#647f17"/>
      <stop offset="0.6941176470588235" stop-color="#6e8c18"/>
      <stop offset="0.8117647058823529" stop-color="#7c9e1a"/>
      <stop offset="0.9137254901960784" stop-color="#8eb51e"/>
      <stop offset="1.0" stop-color="#a3d022"/>
    </radialGradient>
    <linearGradient gradientTransform="matrix(0.0659, 0.0, 0.0, -0.0659, 69.0, 180.65)" gradientUnits="userSpaceOnUse" id="gradient2" spreadMethod="pad" x1="-819.2" x2="819.2">
      <stop offset="0.0" stop-color="#485c11"/>
      <stop offset="1.0" stop-color="#4d6113"/>
    </linearGradient>
    <radialGradient cx="0" cy="0" gradientTransform="matrix(0.0695, 0.0, 0.0, -0.0695, 67.75, 191.25)" gradientUnits="userSpaceOnUse" id="gradient3" r="819.2" spreadMethod="pad">
      <stop offset="0.023529411764705882" stop-color="#665d21"/>
      <stop offset="1.0" stop-color="#9f8e26"/>
    </radialGradient>
    <radialGradient cx="0" cy="0" gradientTransform="matrix(-0.0647, 0.0, 0.0, -0.0647, 67.75, 187.75)" gradientUnits="userSpaceOnUse" id="gradient4" r="819.2" spreadMethod="pad">
      <stop offset="0.00784313725490196" stop-color="#f9ec8e"/>
      <stop offset="0.20392156862745098" stop-color="#f6e786"/>
      <stop offset="0.5019607843137255" stop-color="#ebdb72"/>
      <stop offset="0.8627450980392157" stop-color="#dbc852"/>
      <stop offset="1.0" stop-color="#d3c045"/>
    </radialGradient>
    <radialGradient cx="0" cy="0" gradientTransform="matrix(0.0814, 0.0, 0.0, -0.0285, 68.05, 175.05)" gradientUnits="userSpaceOnUse" id="gradient5" r="819.2" spreadMethod="pad">
      <stop offset="0.00784313725490196" stop-color="#f9ec8e"/>
      <stop offset="0.20392156862745098" stop-color="#f6e786"/>
      <stop offset="0.5019607843137255" stop-color="#ebdb72"/>
      <stop offset="0.8627450980392157" stop-color="#dbc852"/>
      <stop offset="1.0" stop-color="#d3c045"/>
    </radialGradient>
    <radialGradient cx="0" cy="0" gradientTransform="matrix(0.1424, 0.0, 0.0, -0.1424, 17.6, 77.05)" gradientUnits="userSpaceOnUse" id="gradient6" r="819.2" spreadMethod="pad">
      <stop offset="0.023529411764705882" stop-color="#665d21"/>
      <stop offset="1.0" stop-color="#9f8e26"/>
    </radialGradient>
    <radialGradient cx="0" cy="0" gradientTransform="matrix(0.1226, -0.021, -0.0198, -0.1303, 60.35, 27.15)" gradientUnits="userSpaceOnUse" id="gradient7" r="819.2" spreadMethod="pad">
      <stop offset="0.00784313725490196" stop-color="#f9ec8e"/>
      <stop offset="0.29411764705882354" stop-color="#f7e363"/>
      <stop offset="1.0" stop-color="#d3c045"/>
    </radialGradient>
    <radialGradient cx="0" cy="0" gradientTransform="matrix(0.0248, 0.1069, 0.0865, -0.0306, 62.0, 55.3)" gradientUnits="userSpaceOnUse" id="gradient8" r="819.2" spreadMethod="pad">
      <stop offset="0.00784313725490196" stop-color="#f9ec8e"/>
      <stop offset="0.29411764705882354" stop-color="#f7e363"/>
      <stop offset="1.0" stop-color="#d3c045"/>
    </radialGradient>
    <radialGradient cx="0" cy="0" gradientTransform="matrix(0.0102, 0.0377, 0.0377, -0.0102, 64.35, 78.1)" gradientUnits="userSpaceOnUse" id="gradient9" r="819.2" spreadMethod="pad">
      <stop offset="0.0" stop-color="#7b7028"/>
      <stop offset="1.0" stop-color="#f4e885"/>
    </radialGradient>
    <radialGradient cx="0" cy="0" gradientTransform="matrix(0.0099, 0.0363, 0.0363, -0.0099, 64.45, 78.25)" gradientUnits="userSpaceOnUse" id="gradient10" r="819.2" spreadMethod="pad">
      <stop offset="0.0" stop-color="#7b7028"/>
      <stop offset="1.0" stop-color="#bba838"/>
    </radialGradient>
    <radialGradient cx="0" cy="0" gradientTransform="matrix(0.0084, 0.0311, 0.0311, -0.0084, 64.8, 79.9)" gradientUnits="userSpaceOnUse" id="gradient11" r="819.2" spreadMethod="pad">
      <stop offset="0.00784313725490196" stop-color="#4c4a3b"/>
      <stop offset="1.0" stop-color="#6b6541"/>
    </radialGradient>
    <radialGradient cx="0" cy="0" gradientTransform="matrix(0.0078, 0.0279, 0.0287, -0.0076, 65.0, 82.75)" gradientUnits="userSpaceOnUse" id="gradient12" r="819.2" spreadMethod="pad">
      <stop offset="0.00784313725490196" stop-color="#a9a586"/>
      <stop offset="1.0" stop-color="#8e8656"/>
    </radialGradient>
    <radialGradient cx="0" cy="0" gradientTransform="matrix(0.0047, 0.0296, 0.019, -0.005, 123.8, 52.95)" gradientUnits="userSpaceOnUse" id="gradient13" r="819.2" spreadMethod="pad">
      <stop offset="0.2901960784313726" stop-color="#695d17"/>
      <stop offset="1.0" stop-color="#d3c045"/>
    </radialGradient>
    <radialGradient cx="0" cy="0" gradientTransform="matrix(0.0104, 0.0574, 0.0486, -0.0088, 130.7, 84.15)" gradientUnits="userSpaceOnUse" id="gradient14" r="819.2" spreadMethod="pad">
      <stop offset="0.2901960784313726" stop-color="#695d17"/>
      <stop offset="1.0" stop-color="#d3c045"/>
    </radialGradient>
    <linearGradient gradientTransform="matrix(-0.0152, 0.0588, 0.0588, 0.0152, 146.55, 64.45)" gradientUnits="userSpaceOnUse" id="gradient15" spreadMethod="pad" x1="-819.2" x2="819.2">
      <stop offset="0.0" stop-color="#af2f14"/>
      <stop offset="0.27058823529411763" stop-color="#ab2e13"/>
      <stop offset="0.5803921568627451" stop-color="#9f2a12"/>
      <stop offset="0.9058823529411765" stop-color="#8c240f"/>
      <stop offset="1.0" stop-color="#85220e"/>
    </linearGradient>
    <radialGradient cx="0" cy="0" gradientTransform="matrix(0.0526, 0.1331, 0.1331, -0.0526, 49.45, 64.3)" gradientUnits="userSpaceOnUse" id="gradient16" r="819.2" spreadMethod="pad">
      <stop offset="0.21568627450980393" stop-color="#c1b141"/>
      <stop offset="1.0" stop-color="#7b6f28"/>
    </radialGradient>
    <radialGradient cx="0" cy="0" gradientTransform="matrix(0.0526, 0.1331, 0.1331, -0.0526, 49.45, 64.3)" gradientUnits="userSpaceOnUse" id="gradient17" r="819.2" spreadMethod="pad">
      <stop offset="0.21568627450980393" stop-color="#c1b141"/>
      <stop offset="1.0" stop-color="#7b6f28"/>
    </radialGradient>
  </defs>
</svg>
