<?xml version="1.0" encoding="UTF-8" standalone="no"?>
<svg xmlns:xlink="http://www.w3.org/1999/xlink" height="48.0px" width="136.0px" xmlns="http://www.w3.org/2000/svg">
  <g transform="matrix(1.0, 0.0, 0.0, 1.0, 0.0, 0.0)">
    <use height="30.1" transform="matrix(1.0, 0.0, 0.0, 1.0, 33.95, 17.9)" width="69.1" xlink:href="#shape0"/>
  </g>
  <defs>
    <g id="shape0" transform="matrix(1.0, 0.0, 0.0, 1.0, -33.95, -17.9)">
      <path d="M102.95 30.15 L103.05 33.85 87.1 41.65 72.5 48.0 68.95 43.9 60.1 29.75 102.95 30.15" fill="#a37f24" fill-rule="evenodd" stroke="none"/>
      <path d="M95.1 30.05 L102.95 30.15 103.05 33.85 101.75 34.5 101.6 31.9 101.45 30.75 100.85 30.55 99.8 30.25 Q98.8 30.0 98.75 30.55 98.55 31.85 98.85 36.0 L96.1 37.35 Q96.15 34.15 95.5 31.8 L95.1 30.05" fill="#b38b27" fill-rule="evenodd" stroke="none"/>
      <path d="M86.85 30.0 Q85.3 32.75 86.05 34.75 86.65 36.65 85.9 42.2 L83.4 43.35 Q83.7 40.45 83.1 38.55 L82.0 36.1 Q81.4 34.95 80.35 35.85 79.25 36.7 79.45 38.85 L79.95 44.85 79.15 45.2 Q79.3 41.5 78.3 39.95 L77.3 39.1 76.6 41.05 76.4 46.4 74.95 47.0 74.8 41.75 Q72.65 34.45 71.75 29.85 L86.85 30.0" fill="#b38b27" fill-rule="evenodd" stroke="none"/>
      <path d="M93.0 38.85 L90.85 39.9 Q91.35 34.8 90.25 30.65 L89.95 30.0 93.05 30.05 93.05 31.55 Q93.35 32.8 93.0 38.85" fill="#b38b27" fill-rule="evenodd" stroke="none"/>
      <path d="M63.6 33.5 Q73.1 36.9 72.7 38.9 72.1 42.05 72.5 48.0 L51.85 42.6 34.7 37.75 34.3 36.65 34.0 34.65 33.95 33.5 54.0 30.5 63.6 33.5" fill="#ba9129" fill-rule="evenodd" stroke="none"/>
      <path d="M75.95 41.3 L72.4 42.65 49.5 37.05 33.95 33.5 51.25 27.8 66.65 23.2 102.95 30.15 Q88.2 36.1 83.25 38.3 L75.95 41.3" fill="#d6a731" fill-rule="evenodd" stroke="none"/>
      <path d="M76.6 41.05 L74.8 41.75 65.25 40.05 58.8 39.3 41.15 35.15 37.25 32.35 40.8 31.2 42.9 33.0 46.15 35.6 Q48.1 37.0 54.4 37.6 L67.0 39.1 76.6 41.05" fill="#e3b236" fill-rule="evenodd" stroke="none"/>
      <path d="M86.3 37.0 L83.15 38.35 Q78.95 37.8 72.75 36.15 L63.9 33.75 Q61.6 33.15 58.85 31.05 57.3 29.9 54.1 26.9 L55.4 26.5 57.15 28.2 Q61.35 32.45 77.55 35.7 L86.3 37.0" fill="#e3b236" fill-rule="evenodd" stroke="none"/>
      <path d="M100.85 30.55 L95.65 28.75 102.95 30.15 101.45 30.75 100.85 30.55" fill="#e3b236" fill-rule="evenodd" stroke="none"/>
      <path d="M80.35 39.55 L78.5 40.3 Q75.9 39.35 72.0 38.4 64.95 36.6 50.05 35.4 47.2 35.15 44.9 33.6 L41.95 30.8 44.2 30.05 Q46.85 34.05 54.45 34.9 L61.35 35.45 68.55 36.4 Q74.85 37.85 80.35 39.55" fill="#e3b236" fill-rule="evenodd" stroke="none"/>
      <path d="M70.35 25.1 Q65.3 25.1 62.75 24.3 L66.65 23.2 74.9 24.75 70.35 25.1" fill="#e3b236" fill-rule="evenodd" stroke="none"/>
      <path d="M93.2 30.45 L98.85 31.8 95.95 33.0 91.45 31.55 Q88.05 30.5 81.1 29.75 L69.05 28.45 Q65.7 28.0 63.25 27.05 61.65 26.4 59.8 25.2 L62.45 24.4 Q65.95 26.3 68.0 26.9 L78.5 28.4 93.2 30.45" fill="#e3b236" fill-rule="evenodd" stroke="none"/>
      <path d="M50.8 27.95 L52.7 27.35 Q57.0 29.35 58.15 31.3 59.6 33.6 53.85 33.35 47.65 33.0 45.75 29.55 L47.25 29.1 Q48.85 30.3 51.05 30.75 L54.25 30.85 Q56.2 30.55 50.8 27.95" fill="#e3b236" fill-rule="evenodd" stroke="none"/>
      <path d="M81.25 31.65 L93.2 34.1 90.95 35.05 84.75 33.95 74.0 32.5 Q67.85 31.65 64.9 30.65 62.4 29.85 60.45 28.5 L57.3 25.95 58.25 25.65 58.7 26.0 Q60.65 27.5 67.75 29.1 L81.25 31.65" fill="#e3b236" fill-rule="evenodd" stroke="none"/>
      <path d="M94.8 28.9 Q95.75 29.35 94.95 29.7 L91.95 31.1 91.95 31.6 Q91.95 32.15 90.75 33.0 89.2 34.05 86.7 34.4 84.3 34.75 81.95 34.4 L80.1 34.0 81.35 34.9 Q82.75 35.95 83.2 36.75 83.95 38.1 80.05 38.85 79.3 38.95 78.35 39.6 L76.8 40.55 74.65 40.85 73.4 40.8 71.6 40.3 70.2 39.5 69.5 39.0 66.2 39.8 60.65 39.4 57.0 38.0 53.75 36.4 52.0 35.4 50.9 34.85 57.4 32.55 Q58.15 32.2 57.35 31.95 L55.5 31.75 52.35 32.35 50.2 32.65 47.7 32.4 43.8 31.55 45.45 31.25 48.15 30.9 Q48.75 30.9 47.75 30.8 L45.7 30.55 Q45.2 30.35 45.95 30.05 L48.35 29.3 70.45 24.95 93.05 28.35 Q94.0 28.45 94.8 28.9" fill="#a37f24" fill-rule="evenodd" stroke="none"/>
      <path d="M54.7 25.0 L59.55 23.5 61.05 22.8 63.85 22.45 69.4 22.7 70.25 22.8 Q70.65 22.85 70.0 23.3 63.95 26.7 61.95 27.95 60.15 29.15 56.95 29.7 L53.55 30.2 52.1 30.25 50.15 29.8 45.7 29.15 Q42.9 28.8 43.95 28.85 L46.4 28.3 49.45 27.25 Q52.9 25.45 54.7 25.0" fill="url(#gradient0)" fill-rule="evenodd" stroke="none"/>
      <path d="M68.95 23.6 L70.4 22.75 Q70.75 22.9 69.85 23.45 L67.35 24.85 64.9 26.65 Q62.7 28.2 61.65 28.45 L55.25 29.6 51.55 29.25 48.85 28.65 48.15 27.55 Q47.7 26.6 47.85 26.25 L48.2 25.4 Q48.95 24.8 51.0 24.35 L50.6 24.75 50.0 25.6 Q49.85 26.05 50.05 26.9 50.25 27.8 50.75 28.25 51.25 28.65 52.4 28.9 L54.35 29.15 57.15 29.05 60.25 28.5 Q61.15 28.25 63.95 26.5 L67.0 24.6 Q68.05 24.2 68.95 23.6" fill="#c45631" fill-rule="evenodd" stroke="none"/>
      <path d="M45.15 25.45 Q47.0 24.25 51.0 24.35 50.65 24.45 50.15 24.85 49.7 25.2 49.55 26.2 49.35 27.35 50.0 28.1 50.7 29.0 53.6 29.35 L59.2 29.0 Q54.75 30.3 52.85 30.3 50.65 30.5 47.8 30.35 L45.55 30.05 Q44.65 29.85 43.85 29.3 43.15 28.8 43.5 27.55 43.85 26.3 45.15 25.45" fill="url(#gradient1)" fill-rule="evenodd" stroke="none"/>
      <path d="M74.8 21.75 Q75.15 22.35 74.5 23.7 73.7 25.4 71.7 26.0 L69.3 25.9 67.7 24.85 64.4 24.05 62.15 24.15 64.55 23.9 Q67.1 23.5 67.85 23.0 69.45 21.9 69.55 21.9 L71.1 21.85 74.8 21.75" fill="url(#gradient2)" fill-rule="evenodd" stroke="none"/>
      <path d="M62.0 24.1 L63.15 24.0 64.85 24.0 67.5 24.5 Q68.45 24.9 69.15 25.7 70.1 26.85 69.85 27.0 L67.35 27.0 Q65.7 26.9 64.55 25.75 63.8 25.05 62.0 24.1" fill="url(#gradient3)" fill-rule="evenodd" stroke="none"/>
      <path d="M58.3 24.6 Q59.55 23.65 60.85 23.45 L65.7 23.9 65.05 24.15 Q63.9 24.65 63.4 25.75 62.8 27.15 60.6 28.5 58.4 29.9 56.45 30.05 L52.6 30.8 49.45 31.7 47.25 31.85 45.15 31.6 43.65 31.55 Q47.35 31.15 49.75 30.0 L51.8 29.45 Q54.15 28.6 55.5 27.2 L58.3 24.6" fill="url(#gradient4)" fill-rule="evenodd" stroke="none"/>
      <path d="M74.95 22.45 Q74.8 23.55 74.3 24.3 L73.1 25.55 Q72.0 26.35 71.25 26.2 L69.0 25.8 Q68.3 25.25 67.8 24.95 66.85 24.3 66.2 24.25 L64.8 24.35 Q64.2 24.55 63.75 25.45 62.85 27.2 60.8 28.3 56.75 30.4 54.8 30.55 L51.35 31.2 48.75 31.85 47.2 31.9 45.85 31.6 46.65 31.75 48.65 31.7 51.35 30.9 53.8 30.2 57.6 29.1 Q60.45 28.15 61.2 27.6 62.5 26.7 63.45 25.25 64.35 23.9 65.7 23.9 67.1 23.9 68.35 24.85 L69.2 25.55 70.7 25.8 Q71.85 25.85 72.9 25.3 73.8 24.8 74.1 24.15 L74.75 22.15 74.65 21.55 Q75.05 21.7 74.95 22.45" fill="#c45631" fill-rule="evenodd" stroke="none"/>
      <path d="M63.85 23.5 L64.85 23.75 63.15 23.6 Q61.35 23.35 59.75 24.2 L58.75 24.95 57.65 25.85 55.15 27.75 54.5 28.15 58.75 24.6 Q60.25 23.1 61.6 23.3 L63.85 23.5" fill="#f79d72" fill-rule="evenodd" stroke="none"/>
      <path d="M65.75 26.4 L63.8 27.45 62.2 27.75 60.4 27.5 58.2 25.65 57.65 23.2 57.6 22.45 58.45 23.55 60.3 25.35 Q61.8 26.35 63.75 26.35 L65.35 26.15 65.75 26.4" fill="#fcfac0" fill-rule="evenodd" stroke="none"/>
      <path d="M65.75 26.4 Q65.7 27.6 64.45 28.35 63.4 28.9 62.25 28.9 L60.6 28.8 Q59.85 28.6 59.1 27.95 58.3 27.25 57.75 25.9 57.15 24.45 57.35 23.55 L57.6 22.45 57.6 22.85 59.4 25.15 Q60.9 26.75 63.5 26.75 L65.75 26.4" fill="#ebeb81" fill-rule="evenodd" stroke="none"/>
      <path d="M58.1 24.1 L58.85 25.15 Q59.9 26.25 61.3 26.8 62.45 27.25 63.4 27.3 L61.15 27.1 59.45 26.2 58.75 25.7 59.25 26.55 Q59.85 27.4 60.6 27.65 61.8 28.05 64.3 27.65 L61.1 28.0 Q59.35 27.55 58.55 26.0 L58.3 25.5 58.6 26.45 Q59.05 27.5 59.9 27.95 L61.6 28.5 60.25 28.35 58.75 27.0 Q57.8 25.8 57.7 25.0 L57.55 23.95 Q57.5 23.75 57.7 23.85 L58.0 23.9 58.1 24.1" fill="#fcfac0" fill-rule="evenodd" stroke="none"/>
      <path d="M75.45 24.05 Q73.4 22.75 71.8 22.5 69.95 22.15 68.25 23.0 L66.85 23.85 66.4 23.8 67.75 22.0 Q69.95 20.35 70.8 20.6 L72.35 20.9 73.55 21.35 75.1 23.35 75.45 24.05" fill="#fcfac0" fill-rule="evenodd" stroke="none"/>
      <path d="M75.2 22.9 L75.4 23.75 Q74.95 23.3 72.7 22.35 L68.35 22.55 66.4 23.8 Q65.95 22.65 66.8 21.5 67.5 20.5 68.6 20.05 L70.1 19.5 71.8 19.65 Q72.8 19.95 73.9 21.0 75.0 22.05 75.2 22.9" fill="#ebeb81" fill-rule="evenodd" stroke="none"/>
      <path d="M74.75 22.8 L74.3 22.75 Q72.65 21.45 70.3 21.55 69.05 21.65 68.05 22.1 69.35 21.3 70.3 21.25 L73.05 21.55 Q71.85 20.4 70.6 20.5 69.8 20.6 68.45 21.3 L67.2 22.0 68.05 21.3 Q69.1 20.55 69.95 20.4 L71.9 20.55 Q72.7 20.8 73.15 21.15 L73.55 21.55 Q72.65 20.05 71.05 19.95 70.05 19.9 69.05 20.3 L69.15 20.25 70.6 19.75 Q71.2 19.65 72.5 20.35 73.85 21.05 74.3 21.75 L74.85 22.65 74.75 22.8" fill="#fcfac0" fill-rule="evenodd" stroke="none"/>
      <path d="M73.1 20.75 L72.7 20.7 72.75 20.0 Q72.6 19.3 71.65 19.0 L69.45 19.05 Q68.75 19.25 67.4 19.95 66.05 20.6 65.0 22.1 L64.35 22.85 63.85 22.45 64.0 22.1 65.4 20.4 66.8 19.15 Q67.75 18.5 69.05 18.15 71.45 17.55 72.55 18.45 73.7 19.35 73.55 20.05 L73.1 20.75" fill="#ebeb81" fill-rule="evenodd" stroke="none"/>
      <path d="M73.1 20.75 L72.95 20.0 Q72.55 19.25 71.35 19.05 70.05 18.8 68.25 19.65 66.75 20.3 65.8 21.25 L64.95 22.35 64.7 22.8 64.3 22.85 64.4 22.4 65.95 20.7 Q68.45 18.45 71.05 18.55 72.1 18.55 72.9 19.0 73.6 19.4 73.65 19.85 L73.7 20.6 73.1 20.75" fill="#fcfac0" fill-rule="evenodd" stroke="none"/>
      <path d="M78.15 23.6 Q80.05 23.6 83.05 24.35 86.05 25.1 85.1 25.2 84.55 25.25 82.8 26.45 80.85 27.7 79.4 28.05 L75.4 28.4 Q73.1 28.55 71.85 29.55 69.2 31.7 66.0 33.0 64.45 33.65 63.05 33.5 L62.0 33.25 Q60.05 33.15 57.35 31.5 L55.65 30.3 58.35 29.65 Q61.6 28.6 63.4 28.45 65.4 28.3 66.95 27.0 68.8 25.5 69.6 25.3 76.0 23.6 78.15 23.6" fill="url(#gradient5)" fill-rule="evenodd" stroke="none"/>
      <path d="M78.15 23.6 L75.75 24.1 73.1 24.7 70.45 25.3 Q69.35 25.65 69.0 25.9 68.4 26.2 68.35 26.75 68.3 27.55 69.95 28.2 L68.5 27.85 66.8 27.55 66.0 27.8 64.45 28.45 61.35 28.8 63.4 28.45 Q65.4 28.3 66.95 27.0 68.8 25.5 69.6 25.3 76.0 23.6 78.15 23.6" fill="#f79d72" fill-rule="evenodd" stroke="none"/>
      <path d="M84.8 26.35 L69.75 31.2 Q67.05 32.9 66.15 33.1 L64.45 33.45 Q63.25 33.45 62.2 32.3 L59.9 29.45 58.8 27.85 60.7 25.7 61.55 25.75 61.25 27.55 Q61.1 29.55 62.0 30.75 L63.5 32.6 65.25 32.65 Q67.35 32.15 70.1 30.55 70.9 30.05 75.4 28.6 L80.75 26.75 Q83.4 25.35 84.65 25.45 85.25 25.5 85.35 25.75 85.45 26.05 84.8 26.35" fill="#c45631" fill-rule="evenodd" stroke="none"/>
      <path d="M57.55 37.85 L51.2 35.0 Q50.65 34.7 50.85 34.55 L51.4 34.3 Q53.3 33.35 54.85 32.9 L56.7 32.7 Q57.1 32.75 57.85 33.1 L61.35 33.5 Q62.5 33.6 65.3 34.6 L67.55 35.0 69.25 35.05 68.25 35.7 65.55 37.2 64.5 38.05 63.55 38.3 61.25 38.5 Q59.05 38.6 57.55 37.85" fill="url(#gradient6)" fill-rule="evenodd" stroke="none"/>
      <path d="M62.3 38.05 L57.9 38.25 Q57.15 38.2 55.35 37.2 L53.3 35.95 51.3 35.1 50.8 34.7 50.8 34.55 53.45 35.65 55.9 36.85 58.8 38.0 60.9 37.95 62.7 37.45 Q64.5 36.5 64.75 35.85 L64.85 34.4 64.5 33.15 63.9 32.45 63.5 32.15 64.3 32.2 65.6 32.55 66.05 33.35 Q66.25 33.65 66.25 34.6 L66.1 35.85 64.55 36.95 62.3 38.05" fill="#f79d72" fill-rule="evenodd" stroke="none"/>
      <path d="M63.25 37.5 Q65.0 36.6 65.2 35.55 65.4 34.65 65.0 33.6 64.6 32.7 64.2 32.4 L63.5 32.15 64.95 31.8 67.55 32.0 Q68.6 32.55 69.2 33.7 69.75 34.8 69.45 35.45 L68.55 36.55 67.2 37.25 65.4 37.85 64.0 38.25 61.35 38.45 59.7 38.3 Q61.5 38.4 63.25 37.5" fill="url(#gradient7)" fill-rule="evenodd" stroke="none"/>
      <path d="M57.2 32.4 L64.25 32.9 64.65 33.4 Q64.85 33.95 63.7 34.05 60.75 34.25 57.9 33.95 56.65 33.8 56.55 33.15 56.45 32.5 57.2 32.4" fill="#c45631" fill-rule="evenodd" stroke="none"/>
      <path d="M54.3 28.85 L56.15 27.65 Q57.35 26.8 58.5 26.15 59.8 25.45 60.8 25.5 61.3 25.55 61.55 25.75 60.85 26.05 60.75 28.4 60.7 29.85 61.75 31.35 L62.75 32.6 Q63.3 33.3 64.0 33.4 L61.3 33.7 57.75 33.35 Q55.4 32.9 54.35 32.1 53.25 31.2 53.25 30.3 53.25 29.4 54.3 28.85" fill="url(#gradient8)" fill-rule="evenodd" stroke="none"/>
      <path d="M55.15 28.9 L54.45 29.4 Q53.9 29.8 53.85 30.4 53.8 31.15 55.05 32.5 L54.35 32.1 Q53.25 31.2 53.25 30.3 53.25 29.4 54.3 28.85 L56.15 27.65 Q57.35 26.8 58.5 26.15 59.8 25.45 60.8 25.5 61.3 25.55 61.55 25.75 L61.45 25.8 Q60.2 25.15 57.5 27.2 56.55 27.9 55.9 29.0 L55.5 29.9 55.55 29.4 55.85 28.55 Q55.45 28.55 55.15 28.9" fill="#f79d72" fill-rule="evenodd" stroke="none"/>
      <path d="M69.85 22.85 Q70.85 23.75 71.3 25.65 71.6 27.0 71.55 28.35 71.5 29.6 70.45 29.4 70.4 26.1 69.85 25.05 68.85 23.1 66.8 22.35 L64.0 22.25 62.4 22.6 61.15 22.7 61.1 22.25 61.7 21.85 Q62.55 21.4 63.95 21.0 66.7 20.2 69.85 22.85" fill="#ebd981" fill-rule="evenodd" stroke="none"/>
      <path d="M65.45 21.85 L62.35 22.25 61.15 22.7 60.65 22.15 63.0 21.15 Q65.7 20.4 67.65 21.65 69.8 23.05 70.6 25.45 71.3 27.5 70.75 29.1 70.1 30.95 70.2 31.55 L69.1 31.3 69.75 29.25 Q70.3 26.9 69.5 25.45 68.5 23.6 67.6 22.75 66.65 21.9 65.45 21.85" fill="#fcfac0" fill-rule="evenodd" stroke="none"/>
      <path d="M85.95 24.7 L91.65 24.5 Q93.7 24.5 94.2 25.45 94.85 26.6 93.45 28.5 91.95 30.5 89.4 31.1 L85.85 31.5 83.65 30.85 81.45 30.7 Q79.0 30.35 77.7 29.35 76.4 28.3 77.1 28.15 L79.5 28.0 Q80.35 27.85 82.5 26.25 84.6 24.75 85.95 24.7" fill="url(#gradient9)" fill-rule="evenodd" stroke="none"/>
      <path d="M77.5 32.2 L73.0 32.6 Q71.65 32.7 71.65 31.8 71.65 30.9 72.85 28.9 L74.0 27.05 Q76.9 25.2 78.35 25.55 79.2 25.75 81.15 27.45 L83.85 29.85 Q85.05 30.75 87.45 31.5 L77.5 32.2" fill="url(#gradient10)" fill-rule="evenodd" stroke="none"/>
      <path d="M78.25 25.55 L76.45 25.9 Q74.55 26.65 74.45 28.45 74.35 30.15 75.8 32.7 L77.75 36.3 Q78.15 37.65 77.1 38.65 L75.35 39.85 Q72.9 41.6 73.1 40.65 L73.15 39.8 Q73.0 39.55 72.45 39.55 L71.65 39.75 Q71.25 39.85 70.8 39.4 L69.7 38.25 Q69.05 37.65 68.55 37.55 68.2 37.5 68.2 37.7 L67.8 37.4 66.7 36.75 Q66.1 36.5 66.0 35.85 65.85 35.0 67.5 33.15 L69.9 30.0 Q70.55 28.45 72.65 26.95 74.6 25.55 75.8 25.55 L78.25 25.55" fill="url(#gradient11)" fill-rule="evenodd" stroke="none"/>
      <path d="M95.7 25.3 L94.9 26.85 Q94.2 28.5 91.7 29.85 92.4 28.9 92.5 27.3 L92.4 24.8 Q91.95 23.5 90.1 22.85 88.3 22.3 87.0 23.9 L86.05 25.65 Q85.6 24.7 87.0 23.35 88.2 22.25 89.4 21.85 L90.95 21.15 92.9 21.0 Q94.15 21.2 95.05 22.2 95.8 23.1 95.9 24.1 L95.7 25.3" fill="url(#gradient12)" fill-rule="evenodd" stroke="none"/>
      <path d="M75.55 26.25 Q74.45 26.15 73.2 26.75 L71.4 28.05 70.3 29.55 Q69.55 31.95 69.55 32.75 L69.55 34.15 Q69.3 33.75 69.3 32.9 L69.35 31.4 68.25 32.75 Q66.8 34.0 66.45 34.85 L66.0 36.1 66.0 35.55 Q66.1 34.85 66.65 34.1 L68.2 32.35 69.5 30.6 Q70.5 28.45 71.85 27.35 72.8 26.55 74.5 25.9 76.5 25.1 77.5 25.35 L78.25 25.55 77.0 25.65 76.05 25.95 75.55 26.25" fill="#f79d72" fill-rule="evenodd" stroke="none"/>
      <path d="M92.3 23.9 Q92.95 24.75 92.95 25.6 93.0 27.05 92.6 28.25 L92.15 29.5 91.05 30.45 Q89.4 31.35 87.65 31.45 85.95 31.6 84.5 30.35 82.2 28.8 81.45 27.9 80.9 27.2 79.65 26.45 78.4 25.7 77.8 25.7 76.5 25.7 75.6 26.55 74.45 27.75 74.65 29.4 L75.3 31.45 Q75.9 33.05 76.3 33.45 L77.35 35.15 Q78.0 36.6 77.85 37.45 L77.35 38.8 Q77.05 39.2 76.45 39.3 75.6 39.5 74.8 40.25 L73.75 40.85 73.25 40.95 76.0 38.85 76.9 38.1 77.25 37.15 77.0 35.6 76.25 34.25 Q75.75 33.75 74.9 31.75 74.0 29.5 74.1 28.45 74.2 27.6 74.65 26.8 75.2 25.95 75.9 25.7 L77.35 25.4 78.8 25.7 Q80.9 26.65 81.7 27.75 82.35 28.6 84.55 29.95 L86.05 30.85 88.2 31.05 90.35 30.65 91.55 29.7 Q92.2 28.6 92.55 27.1 92.95 25.2 92.2 24.45 L90.7 23.15 Q89.95 22.7 89.05 22.8 L87.75 23.1 Q87.45 23.3 87.1 23.85 L86.05 25.65 86.2 25.05 Q86.4 24.35 86.85 23.8 87.8 22.5 88.9 22.5 90.2 22.5 91.0 22.85 L92.3 23.9" fill="#c45631" fill-rule="evenodd" stroke="none"/>
      <path d="M75.1 26.55 Q75.9 25.65 77.4 25.5 78.15 25.5 80.05 26.45 L81.75 28.15 Q81.25 27.65 79.6 27.1 L77.65 26.75 Q76.75 26.7 76.7 26.95 76.65 27.3 78.6 27.6 L81.25 28.8 Q80.45 28.75 79.25 28.2 77.3 27.3 77.05 28.0 76.95 28.25 77.75 28.5 79.15 28.95 79.6 29.15 L82.75 30.4 Q82.25 30.4 80.4 29.8 L78.25 29.1 77.05 28.85 Q76.7 28.9 76.95 29.8 L77.3 30.7 75.95 29.25 Q75.5 28.85 75.15 29.35 74.8 29.8 74.8 30.45 L74.35 28.55 Q74.25 27.6 75.1 26.55" fill="#c45631" fill-rule="evenodd" stroke="none"/>
      <path d="M71.05 29.8 L69.6 31.45 69.45 31.85 Q69.35 32.25 69.55 32.1 L70.35 31.4 Q71.1 30.85 72.15 30.8 L74.3 30.85 71.5 31.15 Q70.25 31.6 69.9 32.0 L69.55 32.75 69.4 33.2 70.15 32.75 Q71.05 32.3 71.75 32.35 73.45 32.35 74.3 32.9 L74.95 33.3 Q73.65 32.55 72.15 32.65 70.95 32.7 69.75 33.2 L69.4 33.4 69.45 33.75 69.75 34.0 Q70.7 33.6 72.7 34.4 74.1 35.0 74.75 35.85 73.95 35.1 72.85 34.75 71.25 34.2 70.55 34.2 L69.55 34.15 69.9 34.95 70.8 36.15 71.95 36.95 72.95 37.85 73.55 38.85 Q72.55 37.6 71.85 37.25 L70.15 35.85 69.55 34.9 69.3 34.35 69.15 36.15 69.1 37.25 68.95 35.95 69.2 34.0 69.15 33.65 69.15 33.45 68.75 33.8 68.2 34.55 Q67.75 35.55 67.75 36.15 L67.75 36.6 Q67.5 36.0 67.75 35.0 68.15 33.65 68.65 33.45 L69.1 33.0 69.15 32.55 Q68.2 33.05 67.75 33.7 L67.0 35.35 66.9 35.1 Q66.9 34.7 67.2 34.25 67.65 33.5 68.85 32.4 L69.15 31.8 69.5 31.2 70.1 30.45 71.6 29.15 Q72.85 28.45 73.6 28.4 71.55 29.3 71.05 29.8" fill="#f79d72" fill-rule="evenodd" stroke="none"/>
      <path d="M61.2 35.65 Q61.65 35.45 61.9 34.75 L62.1 34.35 61.95 35.3 61.6 36.0 62.3 36.15 63.25 36.2 63.3 35.5 63.2 34.4 63.65 35.8 63.7 36.3 64.55 36.2 64.75 36.2 64.5 36.4 63.9 36.65 63.1 36.95 61.55 37.15 58.5 37.15 63.0 36.65 61.3 36.25 58.95 36.25 57.0 36.1 56.35 35.9 59.0 36.05 60.65 35.95 58.6 35.7 55.45 35.35 54.65 35.2 57.05 35.35 59.45 35.5 56.95 34.55 55.75 34.0 56.35 34.25 57.35 34.55 60.05 35.4 Q60.3 35.4 60.25 34.45 L60.5 35.25 60.5 35.4 60.65 35.6 61.2 35.65" fill="#f79d72" fill-rule="evenodd" stroke="none"/>
      <path d="M46.75 26.1 L47.4 25.4 48.15 24.8 47.7 25.2 47.15 26.1 49.3 25.3 46.85 26.75 46.75 27.2 46.75 28.25 48.1 27.45 49.05 26.6 47.7 28.15 46.7 28.8 46.8 29.45 Q46.9 29.85 47.35 30.05 L48.1 30.05 Q48.65 29.9 49.2 29.35 L49.8 28.35 Q49.7 29.15 49.15 29.65 L48.25 30.3 45.85 30.15 Q44.35 29.9 43.55 29.05 43.05 28.55 43.45 27.45 L44.3 26.0 Q45.15 25.0 47.05 24.6 L50.8 24.35 47.35 24.75 Q45.4 25.3 44.7 25.9 L43.9 27.05 Q43.6 27.7 43.65 28.2 43.7 28.65 44.1 29.0 L45.0 29.6 46.45 30.0 46.3 29.5 46.2 28.6 45.25 27.7 44.9 26.85 44.85 26.4 44.95 26.8 45.4 27.5 46.3 28.1 46.35 27.4 46.6 26.65 46.3 26.15 45.95 25.3 46.3 25.75 46.75 26.1" fill="#f79d72" fill-rule="evenodd" stroke="none"/>
      <path d="M57.55 25.2 L57.25 25.65 57.1 26.05 56.55 26.5 56.55 26.15 56.4 25.9 54.35 27.0 54.15 27.9 53.85 28.45 53.4 28.8 53.65 27.9 53.65 27.45 51.8 28.05 51.2 28.2 50.65 28.15 51.15 28.1 52.15 27.8 Q52.95 27.45 53.7 27.05 L50.3 27.1 52.7 26.85 53.9 26.7 56.05 25.65 53.55 25.8 52.55 25.8 56.55 25.3 57.45 25.0 57.55 25.2" fill="#f79d72" fill-rule="evenodd" stroke="none"/>
      <path d="M88.05 27.7 L89.2 28.15 Q90.0 28.8 89.6 30.65 89.45 31.4 88.55 32.15 87.6 32.95 86.1 33.4 L82.8 33.8 80.1 33.3 77.05 32.35 76.6 32.05 76.75 31.3 78.1 31.7 80.05 32.3 82.65 32.5 85.7 32.1 Q87.25 31.7 88.1 30.65 88.9 29.7 88.35 28.7 L87.65 27.95 88.05 27.7" fill="#ebeb81" fill-rule="evenodd" stroke="none"/>
      <path d="M88.05 27.7 Q88.2 27.75 88.85 27.4 L89.45 28.3 Q89.8 28.8 89.45 29.8 89.0 30.85 87.9 31.6 85.1 33.45 80.45 32.65 78.2 32.3 77.25 31.8 L76.7 31.35 77.15 31.15 77.85 31.5 79.75 32.1 83.9 32.25 Q86.55 31.95 87.75 30.8 88.9 29.75 88.6 28.65 L88.05 27.7" fill="#fcfac0" fill-rule="evenodd" stroke="none"/>
      <path d="M64.7 28.1 Q65.45 26.9 66.9 25.8 68.2 24.9 69.5 24.45 L71.45 24.2 Q73.5 24.55 73.7 25.4 L73.55 26.4 73.05 26.6 72.7 25.8 Q72.05 25.1 70.65 25.3 69.2 25.55 67.95 26.55 L65.9 28.7 Q64.65 30.15 64.2 32.35 L63.8 33.5 63.0 33.35 62.95 32.9 Q62.85 32.4 63.7 30.3 64.25 28.8 64.7 28.1" fill="#ebeb81" fill-rule="evenodd" stroke="none"/>
      <path d="M73.55 26.4 Q73.4 26.0 72.9 25.7 71.95 25.05 70.35 25.5 68.55 26.0 66.8 27.9 65.3 29.45 64.7 31.0 64.15 32.35 64.2 33.25 L63.75 33.5 63.65 32.95 Q63.7 32.1 64.55 30.3 66.35 26.55 69.65 25.15 71.0 24.6 72.25 24.65 73.4 24.7 73.7 25.15 L74.25 25.9 73.55 26.4" fill="#fcfac0" fill-rule="evenodd" stroke="none"/>
    </g>
    <linearGradient gradientTransform="matrix(0.0165, -6.0E-4, -5.0E-4, -0.0132, 57.0, 26.45)" gradientUnits="userSpaceOnUse" id="gradient0" spreadMethod="pad" x1="-819.2" x2="819.2">
      <stop offset="0.0" stop-color="#de6231"/>
      <stop offset="1.0" stop-color="#e98352"/>
    </linearGradient>
    <linearGradient gradientTransform="matrix(-4.0E-4, -0.0042, -0.0033, 3.0E-4, 51.15, 27.45)" gradientUnits="userSpaceOnUse" id="gradient1" spreadMethod="pad" x1="-819.2" x2="819.2">
      <stop offset="0.0" stop-color="#de6231"/>
      <stop offset="1.0" stop-color="#e98352"/>
    </linearGradient>
    <linearGradient gradientTransform="matrix(0.0078, 0.0, 0.0, -0.0078, 68.5, 23.85)" gradientUnits="userSpaceOnUse" id="gradient2" spreadMethod="pad" x1="-819.2" x2="819.2">
      <stop offset="0.0" stop-color="#de6231"/>
      <stop offset="1.0" stop-color="#e98352"/>
    </linearGradient>
    <linearGradient gradientTransform="matrix(0.0048, 0.0, 0.0, -0.0048, 65.95, 25.55)" gradientUnits="userSpaceOnUse" id="gradient3" spreadMethod="pad" x1="-819.2" x2="819.2">
      <stop offset="0.0" stop-color="#de6231"/>
      <stop offset="1.0" stop-color="#e98352"/>
    </linearGradient>
    <linearGradient gradientTransform="matrix(0.0135, 0.0, 0.0, -0.0135, 54.7, 27.65)" gradientUnits="userSpaceOnUse" id="gradient4" spreadMethod="pad" x1="-819.2" x2="819.2">
      <stop offset="0.0" stop-color="#de6231"/>
      <stop offset="1.0" stop-color="#e98352"/>
    </linearGradient>
    <linearGradient gradientTransform="matrix(0.0182, 0.0, 0.0, -0.0182, 70.35, 28.55)" gradientUnits="userSpaceOnUse" id="gradient5" spreadMethod="pad" x1="-819.2" x2="819.2">
      <stop offset="0.0" stop-color="#de6231"/>
      <stop offset="1.0" stop-color="#e98352"/>
    </linearGradient>
    <linearGradient gradientTransform="matrix(-0.0107, 0.0028, -0.0033, -0.0128, 60.3, 35.35)" gradientUnits="userSpaceOnUse" id="gradient6" spreadMethod="pad" x1="-819.2" x2="819.2">
      <stop offset="0.0" stop-color="#de6231"/>
      <stop offset="1.0" stop-color="#e98352"/>
    </linearGradient>
    <linearGradient gradientTransform="matrix(8.0E-4, 0.0027, -0.0032, 0.001, 64.3, 35.15)" gradientUnits="userSpaceOnUse" id="gradient7" spreadMethod="pad" x1="-819.2" x2="819.2">
      <stop offset="0.0" stop-color="#de6231"/>
      <stop offset="1.0" stop-color="#e98352"/>
    </linearGradient>
    <linearGradient gradientTransform="matrix(-4.0E-4, -0.0037, -0.0037, 4.0E-4, 58.7, 29.95)" gradientUnits="userSpaceOnUse" id="gradient8" spreadMethod="pad" x1="-819.2" x2="819.2">
      <stop offset="0.0" stop-color="#de6231"/>
      <stop offset="1.0" stop-color="#e98352"/>
    </linearGradient>
    <linearGradient gradientTransform="matrix(0.0041, -0.0028, -0.0028, -0.0041, 86.5, 27.65)" gradientUnits="userSpaceOnUse" id="gradient9" spreadMethod="pad" x1="-819.2" x2="819.2">
      <stop offset="0.0" stop-color="#de6231"/>
      <stop offset="1.0" stop-color="#e98352"/>
    </linearGradient>
    <linearGradient gradientTransform="matrix(0.0034, -0.0023, -0.0023, -0.0034, 79.05, 30.45)" gradientUnits="userSpaceOnUse" id="gradient10" spreadMethod="pad" x1="-819.2" x2="819.2">
      <stop offset="0.0" stop-color="#eb6031"/>
      <stop offset="1.0" stop-color="#e98352"/>
    </linearGradient>
    <linearGradient gradientTransform="matrix(0.004, -0.0044, -0.0044, -0.004, 73.05, 34.6)" gradientUnits="userSpaceOnUse" id="gradient11" spreadMethod="pad" x1="-819.2" x2="819.2">
      <stop offset="0.0" stop-color="#eb6031"/>
      <stop offset="1.0" stop-color="#e98352"/>
    </linearGradient>
    <linearGradient gradientTransform="matrix(-0.0025, -0.0035, -0.0035, 0.0025, 91.55, 25.25)" gradientUnits="userSpaceOnUse" id="gradient12" spreadMethod="pad" x1="-819.2" x2="819.2">
      <stop offset="0.0" stop-color="#eb6031"/>
      <stop offset="1.0" stop-color="#e98352"/>
    </linearGradient>
  </defs>
</svg>
