<?xml version="1.0" encoding="UTF-8" standalone="no"?>
<svg xmlns:xlink="http://www.w3.org/1999/xlink" height="34.15px" width="30.0px" xmlns="http://www.w3.org/2000/svg">
  <g transform="matrix(1.0, 0.0, 0.0, 1.0, 0.0, 0.0)">
    <use height="34.15" transform="matrix(1.0, 0.0, 0.0, 1.0, 0.0, 0.0)" width="29.75" xlink:href="#shape0"/>
  </g>
  <defs>
    <g id="shape0" transform="matrix(1.0, 0.0, 0.0, 1.0, 0.0, 0.0)">
      <path d="M7.65 16.3 L7.0 16.2 7.0 13.6 9.1 13.95 9.1 13.6 Q9.1 10.3 10.5 9.2 11.85 8.0 14.1 8.45 L16.35 9.05 16.35 9.4 14.7 8.9 Q12.55 8.55 11.1 9.65 9.7 10.9 9.7 14.05 L9.7 14.45 7.65 14.05 7.65 16.3 M12.7 14.6 L16.2 15.2 16.2 15.6 12.7 14.95 12.7 14.6 M9.7 29.05 L9.1 28.95 9.1 16.95 9.7 17.05 9.7 29.05" fill="#6d1805" fill-rule="evenodd" stroke="none"/>
      <path d="M16.35 9.4 L16.35 9.05 14.1 8.45 Q11.85 8.0 10.5 9.2 9.1 10.3 9.1 13.6 L9.1 13.95 7.0 13.6 7.0 16.2 7.65 16.3 7.65 16.7 9.1 16.95 9.1 28.95 9.7 29.05 9.7 29.45 12.7 30.0 12.7 17.6 16.8 18.3 16.8 15.7 16.2 15.6 16.2 15.2 12.7 14.6 12.7 14.15 Q12.7 12.15 13.35 11.8 L15.15 11.6 17.0 12.15 17.0 9.55 16.35 9.4 M22.75 30.0 L22.7 34.05 0.0 29.65 0.0 3.45 22.25 7.6 22.55 21.0 22.7 27.55 22.75 30.0" fill="url(#gradient0)" fill-rule="evenodd" stroke="none"/>
      <path d="M7.65 16.3 L7.65 14.05 9.7 14.45 9.7 14.05 Q9.7 10.9 11.1 9.65 12.55 8.55 14.7 8.9 L16.35 9.4 17.0 9.55 17.0 12.15 15.15 11.6 13.35 11.8 Q12.7 12.15 12.7 14.15 L12.7 14.6 12.7 14.95 16.2 15.6 16.8 15.7 16.8 18.3 12.7 17.6 12.7 30.0 9.7 29.45 9.7 29.05 9.7 17.05 9.1 16.95 7.65 16.7 7.65 16.3" fill="url(#gradient1)" fill-rule="evenodd" stroke="none"/>
      <path d="M22.75 30.0 L23.0 8.15 23.2 7.25 29.75 3.05 29.2 29.9 22.7 34.15 22.7 34.05 22.75 30.0" fill="url(#gradient2)" fill-rule="evenodd" stroke="none"/>
      <path d="M29.75 3.05 L23.2 7.25 23.0 8.15 22.75 30.0 22.7 27.55 22.55 21.0 22.25 7.6 0.0 3.45 22.7 6.95 29.75 3.05" fill="#ffffff" fill-rule="evenodd" stroke="none"/>
      <path d="M0.0 3.45 L8.15 0.0 29.75 3.05 22.7 6.95 0.0 3.45" fill="url(#gradient3)" fill-rule="evenodd" stroke="none"/>
    </g>
    <linearGradient gradientTransform="matrix(0.0073, 0.0192, 0.0174, -0.0106, 11.35, 18.3)" gradientUnits="userSpaceOnUse" id="gradient0" spreadMethod="pad" x1="-819.2" x2="819.2">
      <stop offset="0.0" stop-color="#e7e3e3"/>
      <stop offset="1.0" stop-color="#bbb6b6"/>
    </linearGradient>
    <linearGradient gradientTransform="matrix(-0.0025, 0.0142, 0.0145, 0.0, 12.35, 19.6)" gradientUnits="userSpaceOnUse" id="gradient1" spreadMethod="pad" x1="-819.2" x2="819.2">
      <stop offset="0.0" stop-color="#b9300f"/>
      <stop offset="1.0" stop-color="#9b2c17"/>
    </linearGradient>
    <linearGradient gradientTransform="matrix(0.0051, 0.0134, 0.0121, -0.0074, 26.1, 18.35)" gradientUnits="userSpaceOnUse" id="gradient2" spreadMethod="pad" x1="-819.2" x2="819.2">
      <stop offset="0.0" stop-color="#b6acab"/>
      <stop offset="1.0" stop-color="#867d7c"/>
    </linearGradient>
    <linearGradient gradientTransform="matrix(0.0056, 0.0103, 0.0103, -0.0056, 16.2, 5.7)" gradientUnits="userSpaceOnUse" id="gradient3" spreadMethod="pad" x1="-819.2" x2="819.2">
      <stop offset="0.0" stop-color="#ffffff"/>
      <stop offset="1.0" stop-color="#efe2e1"/>
    </linearGradient>
  </defs>
</svg>
