<?xml version="1.0" encoding="UTF-8" standalone="no"?>
<svg xmlns:xlink="http://www.w3.org/1999/xlink" height="53.15px" width="62.9px" xmlns="http://www.w3.org/2000/svg">
  <g transform="matrix(1.0, 0.0, 0.0, 1.0, 0.0, 0.0)">
    <use height="53.15" transform="matrix(1.0, 0.0, 0.0, 1.0, 0.0, 0.0)" width="62.9" xlink:href="#shape0"/>
  </g>
  <defs>
    <g id="shape0" transform="matrix(1.0, 0.0, 0.0, 1.0, 0.0, 0.0)">
      <path d="M34.5 40.25 Q34.5 43.4 29.45 45.65 24.4 47.85 17.25 47.85 10.1 47.85 5.05 45.65 0.0 43.4 0.0 40.25 0.0 37.05 5.05 34.85 10.1 32.6 17.25 32.6 24.4 32.6 29.45 34.85 34.5 37.05 34.5 40.25" fill="#4e3b2c" fill-rule="evenodd" stroke="none"/>
      <path d="M59.05 41.05 Q59.05 44.25 54.0 46.45 48.95 48.7 41.8 48.7 34.65 48.7 29.6 46.45 24.55 44.25 24.55 41.05 24.55 37.9 29.6 35.7 34.65 33.45 41.8 33.45 48.95 33.45 54.0 35.7 59.05 37.9 59.05 41.05" fill="#4e3b2c" fill-rule="evenodd" stroke="none"/>
      <path d="M40.6 40.1 Q45.65 42.35 45.65 45.5 45.65 48.7 40.6 50.9 35.55 53.15 28.4 53.15 21.25 53.15 16.15 50.9 11.1 48.7 11.1 45.5 11.1 42.35 16.15 40.1 21.25 37.85 28.4 37.85 35.5 37.85 40.6 40.1" fill="#4e3b2c" fill-rule="evenodd" stroke="none"/>
      <path d="M24.85 20.5 Q22.9 28.45 16.05 40.3 L11.1 36.5 Q11.55 35.6 14.3 31.65 16.3 28.75 17.95 24.3 19.75 19.6 22.65 10.3 L25.25 2.0 Q26.8 12.35 24.85 20.5" fill="url(#gradient0)" fill-rule="evenodd" stroke="none"/>
      <path d="M34.2 18.45 Q32.25 26.4 25.4 38.25 L20.45 34.5 Q20.9 33.6 23.65 29.65 25.65 26.75 27.3 22.3 L32.0 8.3 34.6 0.0 Q36.15 10.35 34.2 18.45" fill="url(#gradient1)" fill-rule="evenodd" stroke="none"/>
      <path d="M53.7 22.0 Q51.8 28.8 44.95 38.85 L40.0 35.6 43.2 31.5 Q45.15 29.05 46.85 25.25 L51.55 13.3 54.15 6.2 Q55.7 15.05 53.7 22.0" fill="url(#gradient2)" fill-rule="evenodd" stroke="none"/>
      <path d="M49.3 10.45 L46.3 17.35 Q43.45 25.2 44.1 30.0 44.1 32.4 45.5 37.1 L47.8 45.15 41.65 46.7 Q38.0 32.2 39.75 24.3 41.45 16.65 49.3 10.45" fill="url(#gradient3)" fill-rule="evenodd" stroke="none"/>
      <path d="M52.95 27.65 Q56.2 24.6 62.9 23.85 61.05 24.8 59.05 26.25 54.95 29.1 54.0 31.5 53.35 32.65 52.8 35.25 L51.9 39.6 47.65 38.65 Q49.55 30.85 52.95 27.65" fill="url(#gradient4)" fill-rule="evenodd" stroke="none"/>
      <path d="M41.0 13.75 Q37.15 22.6 36.7 27.2 36.3 31.55 37.1 34.65 L38.35 39.85 30.0 41.15 Q28.4 29.9 32.55 21.45 35.5 15.35 44.7 5.85 L41.0 13.75" fill="url(#gradient5)" fill-rule="evenodd" stroke="none"/>
      <path d="M23.15 28.55 Q24.5 25.8 32.75 14.4 L30.35 21.8 Q27.95 30.1 27.75 34.45 27.55 38.6 28.25 41.6 L29.35 46.65 20.55 47.2 Q19.1 36.85 23.15 28.55" fill="url(#gradient6)" fill-rule="evenodd" stroke="none"/>
      <path d="M14.9 32.55 Q16.05 30.4 22.9 21.75 L20.9 27.4 Q18.9 33.7 18.75 37.0 18.6 40.15 19.15 42.45 L20.0 46.3 12.75 46.75 Q11.55 38.85 14.9 32.55" fill="url(#gradient7)" fill-rule="evenodd" stroke="none"/>
      <path d="M30.15 32.25 Q31.35 29.85 38.75 19.7 L36.6 26.25 Q34.45 33.55 34.3 37.4 34.15 41.05 34.75 43.7 L35.7 48.2 27.85 48.7 Q26.55 39.55 30.15 32.25" fill="url(#gradient8)" fill-rule="evenodd" stroke="none"/>
      <path d="M7.9 26.65 Q9.4 23.0 16.3 18.85 L13.6 24.3 Q10.85 30.55 10.7 34.8 L10.65 39.55 10.15 42.7 5.3 41.35 Q7.3 28.1 7.9 26.65" fill="url(#gradient9)" fill-rule="evenodd" stroke="none"/>
    </g>
    <linearGradient gradientTransform="matrix(0.0114, -0.015, -0.015, -0.0114, 20.75, 21.0)" gradientUnits="userSpaceOnUse" id="gradient0" spreadMethod="pad" x1="-819.2" x2="819.2">
      <stop offset="0.09019607843137255" stop-color="#4e3b2c"/>
      <stop offset="0.25882352941176473" stop-color="#645c3c"/>
      <stop offset="0.43529411764705883" stop-color="#747749"/>
      <stop offset="0.6196078431372549" stop-color="#808a52"/>
      <stop offset="0.803921568627451" stop-color="#889558"/>
      <stop offset="1.0" stop-color="#8a995a"/>
    </linearGradient>
    <linearGradient gradientTransform="matrix(0.0131, -0.0149, -0.0149, -0.0131, 30.35, 18.75)" gradientUnits="userSpaceOnUse" id="gradient1" spreadMethod="pad" x1="-819.2" x2="819.2">
      <stop offset="0.09019607843137255" stop-color="#4e3b2c"/>
      <stop offset="0.25882352941176473" stop-color="#645c3c"/>
      <stop offset="0.43529411764705883" stop-color="#747749"/>
      <stop offset="0.6196078431372549" stop-color="#808a52"/>
      <stop offset="0.803921568627451" stop-color="#889558"/>
      <stop offset="1.0" stop-color="#8a995a"/>
    </linearGradient>
    <linearGradient gradientTransform="matrix(0.0053, -0.0126, -0.0126, -0.0053, 48.85, 24.35)" gradientUnits="userSpaceOnUse" id="gradient2" spreadMethod="pad" x1="-819.2" x2="819.2">
      <stop offset="0.09019607843137255" stop-color="#4e3b2c"/>
      <stop offset="0.25882352941176473" stop-color="#645c3c"/>
      <stop offset="0.43529411764705883" stop-color="#747749"/>
      <stop offset="0.6196078431372549" stop-color="#808a52"/>
      <stop offset="0.803921568627451" stop-color="#889558"/>
      <stop offset="1.0" stop-color="#8a995a"/>
    </linearGradient>
    <linearGradient gradientTransform="matrix(-0.0027, -0.0194, -0.0194, 0.0027, 45.1, 28.15)" gradientUnits="userSpaceOnUse" id="gradient3" spreadMethod="pad" x1="-819.2" x2="819.2">
      <stop offset="0.09019607843137255" stop-color="#4e3b2c"/>
      <stop offset="0.25882352941176473" stop-color="#645c3c"/>
      <stop offset="0.43529411764705883" stop-color="#747749"/>
      <stop offset="0.6196078431372549" stop-color="#808a52"/>
      <stop offset="0.803921568627451" stop-color="#889558"/>
      <stop offset="1.0" stop-color="#8a995a"/>
    </linearGradient>
    <linearGradient gradientTransform="matrix(0.0032, -0.0073, -0.0073, -0.0032, 54.05, 33.25)" gradientUnits="userSpaceOnUse" id="gradient4" spreadMethod="pad" x1="-819.2" x2="819.2">
      <stop offset="0.09019607843137255" stop-color="#4e3b2c"/>
      <stop offset="0.25882352941176473" stop-color="#645c3c"/>
      <stop offset="0.43529411764705883" stop-color="#747749"/>
      <stop offset="0.6196078431372549" stop-color="#808a52"/>
      <stop offset="0.803921568627451" stop-color="#889558"/>
      <stop offset="1.0" stop-color="#8a995a"/>
    </linearGradient>
    <linearGradient gradientTransform="matrix(-0.0018, -0.0154, -0.0154, 0.0018, 36.75, 18.35)" gradientUnits="userSpaceOnUse" id="gradient5" spreadMethod="pad" x1="-819.2" x2="819.2">
      <stop offset="0.09019607843137255" stop-color="#4e3b2c"/>
      <stop offset="0.25882352941176473" stop-color="#645c3c"/>
      <stop offset="0.43529411764705883" stop-color="#747749"/>
      <stop offset="0.6196078431372549" stop-color="#808a52"/>
      <stop offset="0.803921568627451" stop-color="#889558"/>
      <stop offset="1.0" stop-color="#8a995a"/>
    </linearGradient>
    <linearGradient gradientTransform="matrix(5.0E-4, -0.0172, -0.0172, -5.0E-4, 26.25, 34.2)" gradientUnits="userSpaceOnUse" id="gradient6" spreadMethod="pad" x1="-819.2" x2="819.2">
      <stop offset="0.09019607843137255" stop-color="#4e3b2c"/>
      <stop offset="0.25882352941176473" stop-color="#645c3c"/>
      <stop offset="0.43529411764705883" stop-color="#747749"/>
      <stop offset="0.6196078431372549" stop-color="#808a52"/>
      <stop offset="0.803921568627451" stop-color="#889558"/>
      <stop offset="1.0" stop-color="#8a995a"/>
    </linearGradient>
    <linearGradient gradientTransform="matrix(0.0041, -0.0146, -0.0146, -0.0041, 19.05, 32.8)" gradientUnits="userSpaceOnUse" id="gradient7" spreadMethod="pad" x1="-819.2" x2="819.2">
      <stop offset="0.09019607843137255" stop-color="#4e3b2c"/>
      <stop offset="0.25882352941176473" stop-color="#645c3c"/>
      <stop offset="0.43529411764705883" stop-color="#747749"/>
      <stop offset="0.6196078431372549" stop-color="#808a52"/>
      <stop offset="0.803921568627451" stop-color="#889558"/>
      <stop offset="1.0" stop-color="#8a995a"/>
    </linearGradient>
    <linearGradient gradientTransform="matrix(-0.0017, -0.0159, -0.0159, 0.0017, 33.4, 35.3)" gradientUnits="userSpaceOnUse" id="gradient8" spreadMethod="pad" x1="-819.2" x2="819.2">
      <stop offset="0.09019607843137255" stop-color="#4e3b2c"/>
      <stop offset="0.25882352941176473" stop-color="#645c3c"/>
      <stop offset="0.43529411764705883" stop-color="#747749"/>
      <stop offset="0.6196078431372549" stop-color="#808a52"/>
      <stop offset="0.803921568627451" stop-color="#889558"/>
      <stop offset="1.0" stop-color="#8a995a"/>
    </linearGradient>
    <linearGradient gradientTransform="matrix(0.0032, -0.015, -0.015, -0.0032, 10.7, 28.8)" gradientUnits="userSpaceOnUse" id="gradient9" spreadMethod="pad" x1="-819.2" x2="819.2">
      <stop offset="0.09019607843137255" stop-color="#4e3b2c"/>
      <stop offset="0.25882352941176473" stop-color="#645c3c"/>
      <stop offset="0.43529411764705883" stop-color="#747749"/>
      <stop offset="0.6196078431372549" stop-color="#808a52"/>
      <stop offset="0.803921568627451" stop-color="#889558"/>
      <stop offset="1.0" stop-color="#8a995a"/>
    </linearGradient>
  </defs>
</svg>
