<?xml version="1.0" encoding="UTF-8" standalone="no"?>
<svg xmlns:xlink="http://www.w3.org/1999/xlink" height="39.45px" width="50.65px" xmlns="http://www.w3.org/2000/svg">
  <g transform="matrix(1.0, 0.0, 0.0, 1.0, 0.0, 0.0)">
    <use height="27.6" transform="matrix(1.0, 0.0, 0.0, 1.0, 25.75, 8.0)" width="21.9" xlink:href="#shape0"/>
    <use height="25.75" transform="matrix(1.0, 0.0, 0.0, 1.0, 25.95, 9.75)" width="18.15" xlink:href="#sprite0"/>
    <use height="24.75" transform="matrix(1.0, 0.0, 0.0, 1.0, 43.05, 9.75)" width="4.6" xlink:href="#sprite1"/>
    <use height="13.4" transform="matrix(1.0, 0.0, 0.0, 1.0, 31.1, 17.45)" width="12.3" xlink:href="#shape3"/>
    <use height="2.05" transform="matrix(1.0, 0.0, 0.0, 1.0, 39.05, 28.8)" width="4.35" xlink:href="#sprite2"/>
    <use height="4.6" transform="matrix(1.0, 0.0, 0.0, 1.0, 31.05, 17.45)" width="4.1" xlink:href="#sprite3"/>
    <use height="3.4" transform="matrix(1.0, 0.0, 0.0, 1.0, 31.6, 17.85)" width="3.15" xlink:href="#sprite4"/>
    <use height="1.65" transform="matrix(1.0, 0.0, 0.0, 1.0, 34.6, 23.1)" width="1.95" xlink:href="#sprite5"/>
    <use height="1.25" transform="matrix(1.0, 0.0, 0.0, 1.0, 37.6, 26.05)" width="1.4" xlink:href="#sprite6"/>
    <use height="1.15" transform="matrix(1.0, 0.0, 0.0, 1.0, 38.3, 24.75)" width="1.25" xlink:href="#sprite7"/>
    <use height="1.0" transform="matrix(1.0, 0.0, 0.0, 1.0, 39.7, 28.35)" width="1.5" xlink:href="#sprite8"/>
    <use height="27.15" transform="matrix(1.0, 0.0, 0.0, 1.0, 4.85, 12.3)" width="22.4" xlink:href="#shape11"/>
    <use height="25.2" transform="matrix(1.0, 0.0, 0.0, 1.0, 6.7, 14.15)" width="18.85" xlink:href="#sprite9"/>
    <use height="25.15" transform="matrix(1.0, 0.0, 0.0, 1.0, 4.85, 14.15)" width="4.5" xlink:href="#sprite10"/>
    <use height="15.05" transform="matrix(1.0, 0.0, 0.0, 1.0, 8.9, 21.3)" width="11.8" xlink:href="#shape14"/>
    <use height="1.6" transform="matrix(1.0, 0.0, 0.0, 1.0, 16.9, 34.75)" width="3.8" xlink:href="#sprite11"/>
    <use height="6.45" transform="matrix(1.0, 0.0, 0.0, 1.0, 8.9, 21.3)" width="3.3" xlink:href="#sprite12"/>
    <use height="5.15" transform="matrix(1.0, 0.0, 0.0, 1.0, 9.4, 21.7)" width="2.5" xlink:href="#sprite13"/>
    <use height="1.95" transform="matrix(1.0, 0.0, 0.0, 1.0, 12.5, 28.3)" width="1.75" xlink:href="#sprite14"/>
    <use height="1.45" transform="matrix(1.0, 0.0, 0.0, 1.0, 15.35, 31.4)" width="1.25" xlink:href="#sprite15"/>
    <use height="1.3" transform="matrix(1.0, 0.0, 0.0, 1.0, 15.75, 29.4)" width="1.1" xlink:href="#sprite16"/>
    <use height="1.15" transform="matrix(1.0, 0.0, 0.0, 1.0, 17.4, 33.7)" width="1.3" xlink:href="#sprite17"/>
  </g>
  <defs>
    <g id="shape0" transform="matrix(1.0, 0.0, 0.0, 1.0, -25.75, -8.0)">
      <path d="M29.45 12.3 L29.35 13.0 26.0 12.75 25.75 9.5 25.95 9.35 29.45 12.3" fill="url(#gradient0)" fill-rule="evenodd" stroke="none"/>
      <path d="M26.5 14.45 L25.95 9.35 43.75 8.0 44.3 12.85 26.5 14.45" fill="url(#gradient1)" fill-rule="evenodd" stroke="none"/>
      <path d="M32.2 15.85 L29.55 35.6 25.95 33.8 25.9 11.1 32.2 15.85" fill="url(#gradient2)" fill-rule="evenodd" stroke="none"/>
      <path d="M28.35 35.0 L25.95 33.8 25.9 11.1 25.95 11.1 28.35 35.0" fill="url(#gradient3)" fill-rule="evenodd" stroke="none"/>
      <path d="M29.55 35.6 L25.95 33.8 28.15 32.6 28.65 33.6 29.55 35.6" fill="url(#gradient4)" fill-rule="evenodd" stroke="none"/>
      <path d="M29.55 35.5 L25.95 11.1 44.05 9.75 47.65 34.15 29.55 35.5" fill="url(#gradient5)" fill-rule="evenodd" stroke="none"/>
      <path d="M44.55 12.85 L44.75 14.45 26.7 16.1 26.4 14.3 44.55 12.85" fill="url(#gradient6)" fill-rule="evenodd" stroke="none"/>
      <path d="M44.4 11.9 L44.5 12.85 26.45 14.45 26.3 13.35 44.4 11.9" fill="url(#gradient7)" fill-rule="evenodd" stroke="none"/>
    </g>
    <linearGradient gradientTransform="matrix(-0.0018, 1.0E-4, -1.0E-4, -0.0018, 27.4, 11.2)" gradientUnits="userSpaceOnUse" id="gradient0" spreadMethod="pad" x1="-819.2" x2="819.2">
      <stop offset="0.0" stop-color="#fff6e8"/>
      <stop offset="1.0" stop-color="#b09a74"/>
    </linearGradient>
    <linearGradient gradientTransform="matrix(0.0109, -0.001, -0.001, -0.0109, 35.15, 11.1)" gradientUnits="userSpaceOnUse" id="gradient1" spreadMethod="pad" x1="-819.2" x2="819.2">
      <stop offset="0.0" stop-color="#fff6e8"/>
      <stop offset="1.0" stop-color="#dec8a4"/>
    </linearGradient>
    <linearGradient gradientTransform="matrix(-7.0E-4, -0.0133, 0.0133, -7.0E-4, 28.9, 22.5)" gradientUnits="userSpaceOnUse" id="gradient2" spreadMethod="pad" x1="-819.2" x2="819.2">
      <stop offset="0.0" stop-color="#876533"/>
      <stop offset="1.0" stop-color="#dbbc8e"/>
    </linearGradient>
    <linearGradient gradientTransform="matrix(-0.0039, -6.0E-4, 6.0E-4, -0.0039, 26.75, 23.15)" gradientUnits="userSpaceOnUse" id="gradient3" spreadMethod="pad" x1="-819.2" x2="819.2">
      <stop offset="0.0" stop-color="#7d5b2a"/>
      <stop offset="1.0" stop-color="#d4b68a"/>
    </linearGradient>
    <linearGradient gradientTransform="matrix(-0.0025, -0.0013, 0.0013, -0.0025, 29.0, 33.8)" gradientUnits="userSpaceOnUse" id="gradient4" spreadMethod="pad" x1="-819.2" x2="819.2">
      <stop offset="0.0" stop-color="#87622d"/>
      <stop offset="1.0" stop-color="#d4b68a"/>
    </linearGradient>
    <linearGradient gradientTransform="matrix(0.0119, 0.0109, 0.0109, -0.0119, 36.25, 22.1)" gradientUnits="userSpaceOnUse" id="gradient5" spreadMethod="pad" x1="-819.2" x2="819.2">
      <stop offset="0.0" stop-color="#fff6e8"/>
      <stop offset="1.0" stop-color="#dec8a4"/>
    </linearGradient>
    <linearGradient gradientTransform="matrix(0.0103, -9.0E-4, -9.0E-4, -0.0103, 35.7, 14.4)" gradientUnits="userSpaceOnUse" id="gradient6" spreadMethod="pad" x1="-819.2" x2="819.2">
      <stop offset="0.0" stop-color="#deff96"/>
      <stop offset="1.0" stop-color="#ace663"/>
    </linearGradient>
    <linearGradient gradientTransform="matrix(0.0106, -9.0E-4, -9.0E-4, -0.0106, 35.75, 13.05)" gradientUnits="userSpaceOnUse" id="gradient7" spreadMethod="pad" x1="-819.2" x2="819.2">
      <stop offset="0.0" stop-color="#9ade3e"/>
      <stop offset="1.0" stop-color="#7ac914"/>
    </linearGradient>
    <g id="sprite0" transform="matrix(1.0, 0.0, 0.0, 1.0, 0.0, 0.0)">
      <use height="25.75" transform="matrix(1.0, 0.0, 0.0, 1.0, 0.0, 0.0)" width="18.15" xlink:href="#shape1"/>
    </g>
    <g id="shape1" transform="matrix(1.0, 0.0, 0.0, 1.0, 0.0, 0.0)">
      <path d="M5.2 24.3 Q6.8 25.4 9.8 25.3 L10.6 25.25 3.6 25.75 0.0 1.35 18.1 0.0 18.15 0.3 2.4 1.6 Q1.1 1.65 1.0 2.3 0.85 3.0 1.2 4.8 L4.2 23.2 5.2 24.3" fill="#d18619" fill-rule="evenodd" stroke="none"/>
    </g>
    <g id="sprite1" transform="matrix(1.0, 0.0, 0.0, 1.0, 0.0, 0.0)">
      <use height="24.75" transform="matrix(1.0, 0.0, 0.0, 1.0, 0.0, 0.0)" width="4.6" xlink:href="#shape2"/>
    </g>
    <g id="shape2" transform="matrix(1.0, 0.0, 0.0, 1.0, 0.0, 0.0)">
      <path d="M1.0 0.0 L4.6 24.4 0.25 24.75 Q1.85 24.2 2.45 23.15 L2.85 21.7 1.6 11.75 0.0 0.1 1.0 0.0" fill="#ffffff" fill-rule="evenodd" stroke="none"/>
    </g>
    <g id="shape3" transform="matrix(1.0, 0.0, 0.0, 1.0, -31.1, -17.45)">
      <path d="M32.5 17.45 Q34.4 17.25 36.85 19.7 L39.9 23.45 Q41.75 25.85 42.75 28.05 44.05 30.75 42.8 30.85 40.25 31.15 32.95 22.45 31.25 20.4 31.1 19.0 30.95 17.6 32.5 17.45" fill="url(#gradient8)" fill-rule="evenodd" stroke="none"/>
    </g>
    <linearGradient gradientTransform="matrix(0.008, 0.0024, 0.0011, -0.0098, 37.3, 24.0)" gradientUnits="userSpaceOnUse" id="gradient8" spreadMethod="pad" x1="-819.2" x2="819.2">
      <stop offset="0.0" stop-color="#6db50c"/>
      <stop offset="1.0" stop-color="#629e00"/>
    </linearGradient>
    <g id="sprite2" transform="matrix(1.0, 0.0, 0.0, 1.0, 0.0, 0.0)">
      <use height="2.05" transform="matrix(1.0, 0.0, 0.0, 1.0, 0.0, 0.0)" width="4.35" xlink:href="#shape4"/>
    </g>
    <g id="shape4" transform="matrix(1.0, 0.0, 0.0, 1.0, 0.0, 0.0)">
      <path d="M3.75 2.05 Q2.5 2.2 0.0 0.0 1.65 1.3 2.5 1.5 4.05 2.0 4.35 1.2 4.45 2.0 3.75 2.05" fill="#ffffff" fill-rule="evenodd" stroke="none"/>
    </g>
    <g id="sprite3" transform="matrix(1.0, 0.0, 0.0, 1.0, 0.0, 0.0)">
      <use height="4.6" transform="matrix(1.0, 0.0, 0.0, 1.0, 0.0, 0.0)" width="4.1" xlink:href="#shape5"/>
    </g>
    <g id="shape5" transform="matrix(1.0, 0.0, 0.0, 1.0, 0.0, 0.0)">
      <path d="M4.1 0.85 Q1.65 -0.2 0.7 1.2 0.2 2.0 1.55 4.6 0.05 2.65 0.0 1.4 -0.05 0.15 1.45 0.0 2.6 -0.15 4.1 0.85" fill="#000000" fill-rule="evenodd" stroke="none"/>
    </g>
    <g id="sprite4" transform="matrix(1.0, 0.0, 0.0, 1.0, 0.0, 0.05)">
      <use height="3.4" transform="matrix(1.0, 0.0, 0.0, 1.0, 0.0, -0.05)" width="3.15" xlink:href="#shape6"/>
    </g>
    <g id="shape6" transform="matrix(1.0, 0.0, 0.0, 1.0, 0.0, 0.05)">
      <path d="M2.7 0.1 L3.15 0.6 2.3 0.8 1.1 1.15 Q0.2 2.05 0.65 3.35 -0.3 1.35 0.15 0.75 0.8 -0.35 2.7 0.1" fill="#ffffff" fill-rule="evenodd" stroke="none"/>
    </g>
    <g id="sprite5" transform="matrix(1.0, 0.0, 0.0, 1.0, 0.05, 0.0)">
      <use height="1.65" transform="matrix(1.0, 0.0, 0.0, 1.0, -0.05, 0.0)" width="1.95" xlink:href="#shape7"/>
    </g>
    <g id="shape7" transform="matrix(1.0, 0.0, 0.0, 1.0, 0.05, 0.0)">
      <path d="M1.6 0.8 Q2.25 1.7 1.45 1.65 0.65 1.6 0.2 0.8 -0.3 0.05 0.25 0.0 0.95 -0.05 1.6 0.8" fill="url(#gradient9)" fill-rule="evenodd" stroke="none"/>
    </g>
    <linearGradient gradientTransform="matrix(0.0029, -0.001, -0.0018, -0.0032, 2.25, 0.1)" gradientUnits="userSpaceOnUse" id="gradient9" spreadMethod="pad" x1="-819.2" x2="819.2">
      <stop offset="0.0" stop-color="#83db0f"/>
      <stop offset="1.0" stop-color="#7ac400"/>
    </linearGradient>
    <g id="sprite6" transform="matrix(1.0, 0.0, 0.0, 1.0, 0.0, 0.0)">
      <use height="1.25" transform="matrix(1.0, 0.0, 0.0, 1.0, 0.0, 0.0)" width="1.4" xlink:href="#shape8"/>
    </g>
    <g id="shape8" transform="matrix(1.0, 0.0, 0.0, 1.0, 0.0, 0.0)">
      <path d="M0.65 0.15 Q1.6 0.7 1.35 1.05 1.1 1.45 0.5 1.05 -0.05 0.65 0.0 0.25 0.05 -0.2 0.65 0.15" fill="url(#gradient10)" fill-rule="evenodd" stroke="none"/>
    </g>
    <linearGradient gradientTransform="matrix(0.0029, -0.001, -0.0018, -0.0031, 1.5, 0.15)" gradientUnits="userSpaceOnUse" id="gradient10" spreadMethod="pad" x1="-819.2" x2="819.2">
      <stop offset="0.0" stop-color="#83db0f"/>
      <stop offset="1.0" stop-color="#7ac400"/>
    </linearGradient>
    <g id="sprite7" transform="matrix(1.0, 0.0, 0.0, 1.0, 0.0, 0.05)">
      <use height="1.15" transform="matrix(1.0, 0.0, 0.0, 1.0, 0.0, -0.05)" width="1.25" xlink:href="#shape9"/>
    </g>
    <g id="shape9" transform="matrix(1.0, 0.0, 0.0, 1.0, 0.0, 0.05)">
      <path d="M1.05 0.45 Q1.45 1.05 0.95 1.1 0.6 1.15 0.2 0.65 -0.2 0.15 0.2 0.0 0.65 -0.15 1.05 0.45" fill="url(#gradient11)" fill-rule="evenodd" stroke="none"/>
    </g>
    <linearGradient gradientTransform="matrix(0.0028, -0.001, -0.0017, -0.003, 0.0, 0.85)" gradientUnits="userSpaceOnUse" id="gradient11" spreadMethod="pad" x1="-819.2" x2="819.2">
      <stop offset="0.0" stop-color="#83db0f"/>
      <stop offset="1.0" stop-color="#7ac400"/>
    </linearGradient>
    <g id="sprite8" transform="matrix(1.0, 0.0, 0.0, 1.0, 0.0, -0.05)">
      <use height="1.0" transform="matrix(1.0, 0.0, 0.0, 1.0, 0.0, 0.05)" width="1.5" xlink:href="#shape10"/>
    </g>
    <g id="shape10" transform="matrix(1.0, 0.0, 0.0, 1.0, 0.0, -0.05)">
      <path d="M0.6 0.1 Q1.2 0.25 1.45 0.75 1.7 1.25 0.95 0.95 0.2 0.7 0.05 0.3 -0.15 -0.1 0.6 0.1" fill="url(#gradient12)" fill-rule="evenodd" stroke="none"/>
    </g>
    <linearGradient gradientTransform="matrix(0.0032, -0.0011, -0.002, -0.0034, 1.25, 0.3)" gradientUnits="userSpaceOnUse" id="gradient12" spreadMethod="pad" x1="-819.2" x2="819.2">
      <stop offset="0.0" stop-color="#83db0f"/>
      <stop offset="1.0" stop-color="#7ac400"/>
    </linearGradient>
    <g id="shape11" transform="matrix(1.0, 0.0, 0.0, 1.0, -4.85, -12.3)">
      <path d="M22.0 15.7 L25.4 12.4 25.65 12.55 25.6 15.85 22.15 16.35 22.0 15.7" fill="url(#gradient13)" fill-rule="evenodd" stroke="none"/>
      <path d="M25.2 17.65 L6.7 17.3 6.9 12.3 25.4 12.4 25.2 17.65" fill="url(#gradient14)" fill-rule="evenodd" stroke="none"/>
      <path d="M19.4 19.5 L25.6 14.15 27.25 37.35 23.7 39.45 19.4 19.5" fill="url(#gradient15)" fill-rule="evenodd" stroke="none"/>
      <path d="M24.85 38.75 L25.55 14.2 25.6 14.2 27.25 37.35 24.85 38.75" fill="url(#gradient16)" fill-rule="evenodd" stroke="none"/>
      <path d="M23.7 39.45 L24.45 37.35 24.9 36.3 27.25 37.35 23.7 39.45" fill="url(#gradient17)" fill-rule="evenodd" stroke="none"/>
      <path d="M23.7 39.35 L4.85 39.3 6.7 14.15 25.55 14.2 23.7 39.35" fill="url(#gradient18)" fill-rule="evenodd" stroke="none"/>
      <path d="M6.45 17.3 Q13.45 17.15 25.3 17.5 L25.15 19.35 Q14.25 18.9 6.35 19.0 L6.45 17.3" fill="url(#gradient19)" fill-rule="evenodd" stroke="none"/>
      <path d="M6.5 16.3 L25.35 16.5 25.25 17.6 Q17.75 17.3 6.45 17.3 L6.5 16.3" fill="url(#gradient20)" fill-rule="evenodd" stroke="none"/>
    </g>
    <linearGradient gradientTransform="matrix(0.0019, 0.0, 0.0, -0.0019, 24.05, 14.4)" gradientUnits="userSpaceOnUse" id="gradient13" spreadMethod="pad" x1="-819.2" x2="819.2">
      <stop offset="0.0" stop-color="#fff6e8"/>
      <stop offset="1.0" stop-color="#b09a74"/>
    </linearGradient>
    <linearGradient gradientTransform="matrix(0.0098, 0.0, 0.0, -0.0098, 17.15, 14.95)" gradientUnits="userSpaceOnUse" id="gradient14" spreadMethod="pad" x1="-819.2" x2="819.2">
      <stop offset="0.0" stop-color="#fff6e8"/>
      <stop offset="1.0" stop-color="#dec8a4"/>
    </linearGradient>
    <linearGradient gradientTransform="matrix(-3.0E-4, 0.0137, 0.0137, 3.0E-4, 23.4, 26.05)" gradientUnits="userSpaceOnUse" id="gradient15" spreadMethod="pad" x1="-819.2" x2="819.2">
      <stop offset="0.0" stop-color="#876533"/>
      <stop offset="1.0" stop-color="#dbbc8e"/>
    </linearGradient>
    <linearGradient gradientTransform="matrix(0.0039, 9.0E-4, 9.0E-4, -0.0039, 25.6, 26.55)" gradientUnits="userSpaceOnUse" id="gradient16" spreadMethod="pad" x1="-819.2" x2="819.2">
      <stop offset="0.0" stop-color="#7d5b2a"/>
      <stop offset="1.0" stop-color="#d4b68a"/>
    </linearGradient>
    <linearGradient gradientTransform="matrix(0.0024, 0.0015, 0.0015, -0.0024, 24.15, 37.55)" gradientUnits="userSpaceOnUse" id="gradient17" spreadMethod="pad" x1="-819.2" x2="819.2">
      <stop offset="0.0" stop-color="#87622d"/>
      <stop offset="1.0" stop-color="#d4b68a"/>
    </linearGradient>
    <linearGradient gradientTransform="matrix(0.0103, 0.0123, 0.0123, -0.0103, 14.6, 26.05)" gradientUnits="userSpaceOnUse" id="gradient18" spreadMethod="pad" x1="-819.2" x2="819.2">
      <stop offset="0.0" stop-color="#fff6e8"/>
      <stop offset="1.0" stop-color="#dec8a4"/>
    </linearGradient>
    <linearGradient gradientTransform="matrix(0.01, 0.0, 0.0, -0.01, 16.95, 18.3)" gradientUnits="userSpaceOnUse" id="gradient19" spreadMethod="pad" x1="-819.2" x2="819.2">
      <stop offset="0.0" stop-color="#deff96"/>
      <stop offset="1.0" stop-color="#ace663"/>
    </linearGradient>
    <linearGradient gradientTransform="matrix(0.0099, 0.0, 0.0, -0.0099, 17.05, 16.95)" gradientUnits="userSpaceOnUse" id="gradient20" spreadMethod="pad" x1="-819.2" x2="819.2">
      <stop offset="0.0" stop-color="#9ade3e"/>
      <stop offset="1.0" stop-color="#7ac914"/>
    </linearGradient>
    <g id="sprite9" transform="matrix(1.0, 0.0, 0.0, 1.0, 0.0, 0.0)">
      <use height="25.2" transform="matrix(1.0, 0.0, 0.0, 1.0, 0.0, 0.0)" width="18.85" xlink:href="#shape12"/>
    </g>
    <g id="shape12" transform="matrix(1.0, 0.0, 0.0, 1.0, 0.0, 0.0)">
      <path d="M15.2 23.85 Q16.0 23.25 16.15 22.65 L17.85 3.65 17.9 1.1 Q17.7 0.4 16.4 0.5 L0.0 0.25 0.0 0.0 18.85 0.05 17.0 25.2 9.95 25.2 10.55 25.15 Q13.65 25.05 15.2 23.85" fill="#ffffff" fill-rule="evenodd" stroke="none"/>
    </g>
    <g id="sprite10" transform="matrix(1.0, 0.0, 0.0, 1.0, 0.0, 0.0)">
      <use height="25.15" transform="matrix(1.0, 0.0, 0.0, 1.0, 0.0, 0.0)" width="4.5" xlink:href="#shape13"/>
    </g>
    <g id="shape13" transform="matrix(1.0, 0.0, 0.0, 1.0, 0.0, 0.0)">
      <path d="M1.85 0.0 L2.9 0.0 2.1 12.0 1.6 22.3 2.15 23.7 Q2.85 24.75 4.5 25.15 L0.0 25.15 1.85 0.0" fill="#d18619" fill-rule="evenodd" stroke="none"/>
    </g>
    <g id="shape14" transform="matrix(1.0, 0.0, 0.0, 1.0, -8.9, -21.3)">
      <path d="M9.9 21.55 Q11.45 20.6 13.8 23.1 L16.85 27.15 Q18.65 29.7 19.85 32.35 21.3 35.65 20.3 36.2 19.15 36.9 16.05 33.95 13.8 31.8 11.05 28.2 9.3 26.0 9.0 24.15 8.65 22.3 9.9 21.55" fill="url(#gradient21)" fill-rule="evenodd" stroke="none"/>
    </g>
    <linearGradient gradientTransform="matrix(0.0072, 0.0, 0.0, -0.0072, 14.8, 28.85)" gradientUnits="userSpaceOnUse" id="gradient21" spreadMethod="pad" x1="-819.2" x2="819.2">
      <stop offset="0.0" stop-color="#6db50c"/>
      <stop offset="1.0" stop-color="#629e00"/>
    </linearGradient>
    <g id="sprite11" transform="matrix(1.0, 0.0, 0.0, 1.0, 0.0, 0.0)">
      <use height="1.6" transform="matrix(1.0, 0.0, 0.0, 1.0, 0.0, 0.0)" width="3.8" xlink:href="#shape15"/>
    </g>
    <g id="shape15" transform="matrix(1.0, 0.0, 0.0, 1.0, 0.0, 0.0)">
      <path d="M3.4 1.45 Q2.4 2.05 0.0 0.0 L1.05 0.7 2.3 1.2 Q3.6 1.25 3.75 0.05 3.9 1.15 3.4 1.45" fill="#ffffff" fill-rule="evenodd" stroke="none"/>
    </g>
    <g id="sprite12" transform="matrix(1.0, 0.0, 0.0, 1.0, 0.0, 0.0)">
      <use height="6.45" transform="matrix(1.0, 0.0, 0.0, 1.0, 0.0, 0.0)" width="3.3" xlink:href="#shape16"/>
    </g>
    <g id="shape16" transform="matrix(1.0, 0.0, 0.0, 1.0, 0.0, 0.0)">
      <path d="M3.3 0.45 Q1.2 -0.1 0.55 2.15 0.25 3.3 1.75 6.45 0.25 4.35 0.05 2.7 -0.2 0.95 1.0 0.25 1.9 -0.35 3.3 0.45" fill="#000000" fill-rule="evenodd" stroke="none"/>
    </g>
    <g id="sprite13" transform="matrix(1.0, 0.0, 0.0, 1.0, 0.0, 0.0)">
      <use height="5.15" transform="matrix(1.0, 0.0, 0.0, 1.0, 0.0, 0.0)" width="2.5" xlink:href="#shape17"/>
    </g>
    <g id="shape17" transform="matrix(1.0, 0.0, 0.0, 1.0, 0.0, 0.0)">
      <path d="M2.05 0.0 Q2.55 0.1 2.5 0.45 L1.85 1.05 0.9 1.95 Q0.35 3.35 0.85 5.15 -0.2 2.65 0.05 1.75 0.5 -0.05 2.05 0.0" fill="#ffffff" fill-rule="evenodd" stroke="none"/>
    </g>
    <g id="sprite14" transform="matrix(1.0, 0.0, 0.0, 1.0, 0.0, 0.0)">
      <use height="1.95" transform="matrix(1.0, 0.0, 0.0, 1.0, 0.0, 0.0)" width="1.75" xlink:href="#shape18"/>
    </g>
    <g id="shape18" transform="matrix(1.0, 0.0, 0.0, 1.0, 0.0, 0.0)">
      <path d="M0.2 0.1 Q0.8 -0.25 1.45 0.75 2.1 1.7 1.4 1.9 0.75 2.1 0.25 1.25 -0.25 0.35 0.2 0.1" fill="url(#gradient22)" fill-rule="evenodd" stroke="none"/>
    </g>
    <linearGradient gradientTransform="matrix(0.0022, -0.0016, -0.0016, -0.0022, 1.9, 0.2)" gradientUnits="userSpaceOnUse" id="gradient22" spreadMethod="pad" x1="-819.2" x2="819.2">
      <stop offset="0.0" stop-color="#83db0f"/>
      <stop offset="1.0" stop-color="#7ac400"/>
    </linearGradient>
    <g id="sprite15" transform="matrix(1.0, 0.0, 0.0, 1.0, 0.0, 0.0)">
      <use height="1.45" transform="matrix(1.0, 0.0, 0.0, 1.0, 0.0, 0.0)" width="1.25" xlink:href="#shape19"/>
    </g>
    <g id="shape19" transform="matrix(1.0, 0.0, 0.0, 1.0, 0.0, 0.0)">
      <path d="M0.55 0.05 Q1.4 0.45 1.25 1.05 1.05 1.7 0.55 1.3 0.05 1.0 0.0 0.4 -0.05 -0.2 0.55 0.05" fill="url(#gradient23)" fill-rule="evenodd" stroke="none"/>
    </g>
    <linearGradient gradientTransform="matrix(0.0022, -0.0016, -0.0016, -0.0022, 1.3, 0.15)" gradientUnits="userSpaceOnUse" id="gradient23" spreadMethod="pad" x1="-819.2" x2="819.2">
      <stop offset="0.0" stop-color="#83db0f"/>
      <stop offset="1.0" stop-color="#7ac400"/>
    </linearGradient>
    <g id="sprite16" transform="matrix(1.0, 0.0, 0.0, 1.0, 0.0, 0.0)">
      <use height="1.3" transform="matrix(1.0, 0.0, 0.0, 1.0, 0.0, 0.0)" width="1.1" xlink:href="#shape20"/>
    </g>
    <g id="shape20" transform="matrix(1.0, 0.0, 0.0, 1.0, 0.0, 0.0)">
      <path d="M0.9 0.4 Q1.3 1.0 0.9 1.25 0.6 1.45 0.2 0.95 -0.2 0.4 0.15 0.1 0.5 -0.25 0.9 0.4" fill="url(#gradient24)" fill-rule="evenodd" stroke="none"/>
    </g>
    <linearGradient gradientTransform="matrix(0.0022, -0.0016, -0.0016, -0.0022, 0.05, 1.0)" gradientUnits="userSpaceOnUse" id="gradient24" spreadMethod="pad" x1="-819.2" x2="819.2">
      <stop offset="0.0" stop-color="#83db0f"/>
      <stop offset="1.0" stop-color="#7ac400"/>
    </linearGradient>
    <g id="sprite17" transform="matrix(1.0, 0.0, 0.0, 1.0, 0.0, 0.0)">
      <use height="1.15" transform="matrix(1.0, 0.0, 0.0, 1.0, 0.0, 0.0)" width="1.3" xlink:href="#shape21"/>
    </g>
    <g id="shape21" transform="matrix(1.0, 0.0, 0.0, 1.0, 0.0, 0.0)">
      <path d="M0.5 0.0 Q1.0 0.05 1.25 0.65 1.5 1.25 0.9 1.1 0.25 1.0 0.05 0.5 -0.15 -0.05 0.5 0.0" fill="url(#gradient25)" fill-rule="evenodd" stroke="none"/>
    </g>
    <linearGradient gradientTransform="matrix(0.0022, -0.0016, -0.0016, -0.0022, 1.05, 0.3)" gradientUnits="userSpaceOnUse" id="gradient25" spreadMethod="pad" x1="-819.2" x2="819.2">
      <stop offset="0.0" stop-color="#83db0f"/>
      <stop offset="1.0" stop-color="#7ac400"/>
    </linearGradient>
  </defs>
</svg>
