<?xml version="1.0" encoding="UTF-8" standalone="no"?>
<svg xmlns:xlink="http://www.w3.org/1999/xlink" height="104.55px" width="392.45px" xmlns="http://www.w3.org/2000/svg">
  <g transform="matrix(1.0, 0.0, 0.0, 1.0, 0.0, 0.0)">
    <use height="104.55" transform="matrix(1.0, 0.0, 0.0, 1.0, 0.0, 0.0)" width="392.45" xlink:href="#shape0"/>
  </g>
  <defs>
    <g id="shape0" transform="matrix(1.0, 0.0, 0.0, 1.0, 0.0, 0.0)">
      <path d="M375.8 22.7 Q387.2 27.75 392.1 34.65 393.85 37.15 387.15 38.85 379.0 40.95 378.15 42.15 377.05 43.75 378.75 47.55 380.65 51.8 379.8 54.55 378.65 58.35 375.7 59.15 373.4 59.8 365.3 59.35 L349.25 58.85 331.85 58.3 319.4 57.3 307.35 55.05 Q300.6 53.75 292.85 54.0 L276.7 54.55 251.65 55.35 Q232.55 56.15 222.05 56.15 206.8 56.15 193.05 56.95 178.4 57.8 169.1 59.35 163.4 60.3 148.2 66.8 133.7 73.0 125.6 73.85 L110.2 75.9 99.4 77.1 Q67.45 79.1 54.25 85.15 43.7 90.0 28.05 94.5 11.1 99.35 5.2 98.6 -0.1 97.9 1.3 93.75 4.35 87.85 5.75 84.1 7.6 79.0 13.8 71.8 18.25 66.65 26.9 58.3 33.2 52.25 44.7 47.05 50.05 44.6 68.2 37.85 73.4 35.95 83.8 30.35 93.7 25.0 99.4 21.2 104.45 17.85 125.75 13.8 145.75 9.95 154.6 9.95 167.85 9.95 205.9 1.85 217.85 -0.65 236.8 0.25 250.15 0.9 269.45 3.5 L311.75 8.3 Q341.35 11.8 351.95 14.75 368.1 19.3 375.8 22.7" fill="#706520" fill-rule="evenodd" stroke="none"/>
      <path d="M380.65 35.2 L381.2 33.55 381.75 35.3 Q382.45 37.1 383.15 37.6 L384.3 38.4 386.35 38.2 389.85 37.35 389.9 37.3 390.3 40.95 388.3 43.65 388.05 42.7 Q387.9 43.5 386.95 44.3 L385.95 45.15 385.95 42.55 385.25 44.2 384.85 44.6 384.15 42.7 383.85 43.0 383.45 43.9 383.3 44.7 381.75 43.25 Q381.55 43.3 381.3 43.55 380.75 43.95 380.4 44.7 L379.8 45.95 Q379.7 45.4 379.25 45.0 379.0 44.75 378.4 44.65 L377.85 44.6 378.25 46.05 379.25 48.9 379.55 49.55 378.3 48.2 Q377.15 45.45 377.3 44.3 L377.7 42.3 377.85 40.85 377.6 38.7 377.3 37.35 380.65 38.95 Q380.1 36.8 380.65 35.2" fill="#645a1d" fill-rule="evenodd" stroke="none"/>
      <path d="M364.35 61.75 L356.3 62.3 Q349.95 63.0 345.25 65.95 340.75 68.8 336.6 65.05 L333.55 61.9 Q331.85 60.25 330.55 60.05 L313.05 57.5 308.2 56.85 299.9 55.7 Q296.3 55.05 293.8 57.4 290.4 60.55 287.1 61.45 283.55 62.4 276.9 58.65 270.95 55.3 267.75 57.45 265.7 58.8 259.25 58.5 L246.05 57.1 Q227.3 54.9 223.2 57.85 218.9 61.0 216.0 59.65 214.75 58.85 214.15 58.7 213.15 58.5 212.05 59.45 210.1 61.2 203.35 60.05 L187.2 57.55 Q179.6 56.95 176.35 59.9 L174.0 62.15 Q172.6 63.3 170.5 63.45 165.85 63.75 163.3 64.65 161.25 65.35 158.95 67.05 155.9 69.4 148.4 69.25 146.85 69.25 142.15 74.0 137.15 79.0 135.4 79.45 132.75 80.15 127.65 78.45 L121.25 76.25 Q119.6 76.0 114.9 76.25 L108.9 76.8 Q107.8 77.0 104.6 80.2 L99.9 84.8 Q98.35 86.05 94.3 85.25 91.3 84.7 89.2 83.65 L79.6 82.7 68.7 82.4 Q64.2 82.4 63.05 83.0 L60.05 84.8 Q58.6 85.45 55.2 88.15 51.95 90.75 48.4 92.1 31.8 98.65 21.6 101.65 5.7 106.3 1.75 103.55 0.35 102.6 0.15 100.5 L0.1 97.15 Q-0.15 94.55 0.4 93.45 0.75 92.7 1.95 92.1 2.6 91.8 6.8 95.7 12.2 99.0 18.6 95.8 26.9 91.65 39.25 86.6 52.25 81.25 56.9 80.3 L82.3 73.9 Q103.8 68.35 107.05 68.0 L126.15 64.55 Q141.95 61.65 145.05 61.65 147.95 61.65 159.15 58.05 171.0 54.25 173.5 53.95 177.05 53.55 186.7 53.7 L199.1 53.95 218.35 52.95 239.0 51.95 262.25 51.45 285.05 50.95 319.9 53.95 352.9 57.15 Q356.6 57.35 367.7 55.6 379.9 53.65 380.1 51.95 380.2 50.95 380.6 51.65 381.0 52.35 381.05 53.85 381.3 58.1 378.5 60.65 375.85 63.05 371.15 62.45 L364.35 61.75" fill="#645a1d" fill-rule="evenodd" stroke="none"/>
      <path d="M368.55 46.4 Q371.4 47.05 373.3 48.55 375.4 50.2 373.95 51.15 372.45 52.1 370.75 51.85 369.35 51.65 366.2 50.25 363.4 48.95 364.75 47.35 366.05 45.8 368.55 46.4" fill="#645a1d" fill-rule="evenodd" stroke="none"/>
      <path d="M357.15 44.25 Q359.65 45.0 359.6 46.1 359.6 47.1 357.4 47.7 355.5 48.25 354.3 47.7 L351.5 45.65 Q349.7 44.3 352.05 43.85 L357.15 44.25" fill="#645a1d" fill-rule="evenodd" stroke="none"/>
      <path d="M368.9 43.5 Q371.35 45.0 370.15 45.1 L366.15 45.2 Q362.8 45.15 360.75 44.25 358.4 43.2 359.75 42.05 361.1 40.9 363.7 41.4 366.4 41.95 368.9 43.5" fill="#645a1d" fill-rule="evenodd" stroke="none"/>
      <path d="M376.4 25.2 Q377.85 25.65 378.35 26.6 378.8 27.5 378.1 27.85 377.5 28.15 375.5 27.45 373.6 26.75 373.05 26.25 372.55 25.75 373.7 25.3 L376.4 25.2" fill="#645a1d" fill-rule="evenodd" stroke="none"/>
      <path d="M348.6 16.55 Q354.2 18.25 350.05 18.8 L346.25 18.35 Q343.85 17.7 343.4 16.95 342.9 16.2 344.75 16.1 346.6 15.95 348.6 16.55" fill="#645a1d" fill-rule="evenodd" stroke="none"/>
      <path d="M333.15 19.4 Q336.45 20.5 336.65 21.55 336.8 22.45 334.8 22.8 L330.9 22.55 Q328.75 22.0 328.1 21.2 327.45 20.4 329.3 19.55 L333.15 19.4" fill="#645a1d" fill-rule="evenodd" stroke="none"/>
      <path d="M326.05 21.6 Q328.05 22.3 327.45 23.8 326.8 25.25 325.2 25.4 L321.15 25.05 Q318.45 24.35 317.9 23.0 317.25 21.45 319.8 20.9 322.45 20.35 326.05 21.6" fill="#645a1d" fill-rule="evenodd" stroke="none"/>
      <path d="M360.1 27.55 Q362.2 27.55 363.95 28.8 365.65 30.05 364.3 30.8 363.0 31.5 360.95 30.8 359.3 30.25 357.6 29.0 356.35 28.05 357.5 27.75 L360.1 27.55" fill="#645a1d" fill-rule="evenodd" stroke="none"/>
      <path d="M319.15 37.1 Q321.75 37.1 323.85 39.0 325.75 40.75 325.4 41.95 325.1 43.0 322.5 43.05 319.9 43.05 317.05 42.15 314.0 41.2 314.5 39.2 314.95 37.1 319.15 37.1" fill="#645a1d" fill-rule="evenodd" stroke="none"/>
      <path d="M331.9 44.55 Q337.65 45.2 337.4 46.4 337.25 47.15 335.25 47.8 334.3 48.1 332.0 47.75 329.6 47.35 328.55 46.6 327.5 45.85 328.75 45.1 330.0 44.35 331.9 44.55" fill="#645a1d" fill-rule="evenodd" stroke="none"/>
      <path d="M303.65 10.3 Q308.45 11.6 307.95 12.6 307.6 13.2 305.75 13.55 L302.75 13.45 Q300.25 13.1 298.0 12.15 295.5 11.05 298.0 10.25 300.5 9.45 303.65 10.3" fill="#645a1d" fill-rule="evenodd" stroke="none"/>
      <path d="M267.5 5.9 Q269.9 6.45 270.35 7.25 270.75 7.9 269.6 8.1 L266.85 8.0 263.5 7.1 Q262.0 6.5 263.9 6.0 L267.5 5.9" fill="#645a1d" fill-rule="evenodd" stroke="none"/>
      <path d="M273.55 10.1 Q275.7 10.7 275.35 11.7 274.95 12.65 272.7 12.95 270.8 13.2 269.75 12.4 268.95 11.75 268.95 10.9 268.95 10.15 269.9 9.85 L273.55 10.1" fill="#645a1d" fill-rule="evenodd" stroke="none"/>
      <path d="M290.3 23.35 Q295.05 23.7 295.6 25.95 296.1 28.05 293.95 28.6 L290.25 28.4 Q288.1 27.8 286.1 26.15 284.2 24.55 285.85 23.8 287.25 23.1 290.3 23.35" fill="#645a1d" fill-rule="evenodd" stroke="none"/>
      <path d="M300.3 28.4 Q304.95 29.3 304.25 30.55 303.75 31.45 301.2 32.1 299.7 32.45 298.25 31.7 296.95 31.05 296.65 30.15 296.4 29.35 297.6 28.75 298.85 28.15 300.3 28.4" fill="#645a1d" fill-rule="evenodd" stroke="none"/>
      <path d="M258.8 26.4 Q260.6 26.65 261.4 28.45 262.2 30.15 261.15 30.8 L257.7 31.0 Q255.25 30.55 253.35 29.35 251.5 28.1 253.5 27.05 255.5 26.0 258.8 26.4" fill="#645a1d" fill-rule="evenodd" stroke="none"/>
      <path d="M251.2 31.15 Q254.3 31.0 255.45 32.5 256.55 33.95 254.9 34.4 L251.0 34.5 Q248.45 34.25 247.8 33.75 247.15 33.25 248.35 32.25 249.6 31.2 251.2 31.15" fill="#645a1d" fill-rule="evenodd" stroke="none"/>
      <path d="M285.45 40.75 Q287.85 40.75 288.75 42.0 289.65 43.25 287.75 44.15 L283.5 44.4 Q281.2 43.85 280.45 42.95 279.85 42.25 281.85 41.5 283.75 40.75 285.45 40.75" fill="#645a1d" fill-rule="evenodd" stroke="none"/>
      <path d="M277.1 43.35 Q279.0 44.1 279.05 45.9 279.15 47.7 277.1 48.0 272.1 48.75 270.4 45.55 269.4 43.7 271.55 42.85 273.75 42.0 277.1 43.35" fill="#645a1d" fill-rule="evenodd" stroke="none"/>
      <path d="M245.05 4.55 Q246.5 5.5 244.5 5.5 235.65 5.5 234.9 4.45 234.4 3.85 236.75 3.5 239.1 3.15 242.0 3.45 243.6 3.6 245.05 4.55" fill="#645a1d" fill-rule="evenodd" stroke="none"/>
      <path d="M232.35 8.1 Q236.25 8.55 236.0 9.8 235.8 11.0 232.6 11.3 229.8 11.6 228.4 11.25 227.25 10.95 226.75 10.1 226.2 9.25 227.85 8.55 229.6 7.8 232.35 8.1" fill="#645a1d" fill-rule="evenodd" stroke="none"/>
      <path d="M214.8 16.35 Q220.7 16.65 220.5 18.55 220.35 20.2 216.5 21.8 213.55 23.0 211.2 22.3 209.6 21.8 207.9 20.2 206.55 18.85 208.35 17.55 210.4 16.15 214.8 16.35" fill="#645a1d" fill-rule="evenodd" stroke="none"/>
      <path d="M227.75 21.2 Q231.35 22.0 229.45 23.5 227.65 24.8 224.65 25.0 222.35 25.15 221.1 24.35 220.1 23.65 220.25 22.6 220.45 21.5 222.1 21.0 L227.75 21.2" fill="#645a1d" fill-rule="evenodd" stroke="none"/>
      <path d="M207.05 23.6 Q211.2 23.6 211.35 25.35 211.5 26.95 209.15 27.85 L205.05 27.95 Q203.25 27.55 202.05 26.85 201.1 26.3 202.7 25.0 204.35 23.6 207.05 23.6" fill="#645a1d" fill-rule="evenodd" stroke="none"/>
      <path d="M224.7 37.7 Q233.4 38.5 231.4 40.0 L226.4 41.95 222.2 42.15 Q219.3 41.6 218.7 40.5 218.15 39.35 220.05 38.4 222.0 37.45 224.7 37.7" fill="#645a1d" fill-rule="evenodd" stroke="none"/>
      <path d="M233.15 40.85 L238.8 41.0 Q239.85 41.6 238.7 43.8 237.6 45.9 234.7 46.35 232.15 46.75 229.1 45.85 226.45 45.05 228.15 43.1 229.85 41.15 233.15 40.85" fill="#645a1d" fill-rule="evenodd" stroke="none"/>
      <path d="M216.6 42.15 Q220.7 42.0 220.25 44.35 219.8 46.65 217.0 46.8 L213.05 46.55 Q211.6 46.2 211.05 45.1 210.4 43.95 211.8 43.15 213.3 42.25 216.6 42.15" fill="#645a1d" fill-rule="evenodd" stroke="none"/>
      <path d="M195.8 7.5 Q199.15 7.1 199.8 8.0 200.45 8.8 198.5 9.5 L194.95 10.2 Q193.05 10.3 192.45 9.7 191.85 9.15 193.25 8.4 194.5 7.7 195.8 7.5" fill="#645a1d" fill-rule="evenodd" stroke="none"/>
      <path d="M171.95 15.95 Q175.6 15.65 176.35 17.15 177.05 18.5 174.9 19.4 173.0 20.15 169.75 20.15 166.5 20.15 165.05 19.4 163.65 18.6 166.1 17.4 168.55 16.2 171.95 15.95" fill="#645a1d" fill-rule="evenodd" stroke="none"/>
      <path d="M155.85 13.55 Q160.95 13.4 160.8 14.95 160.7 16.35 157.95 16.75 L153.75 16.85 Q151.75 16.65 151.25 16.15 150.7 15.6 152.05 14.65 153.55 13.6 155.85 13.55" fill="#645a1d" fill-rule="evenodd" stroke="none"/>
      <path d="M146.35 28.4 Q149.5 27.65 150.2 28.95 150.9 30.35 146.5 32.15 142.4 33.8 141.65 33.6 L140.9 32.45 Q140.1 31.7 141.35 30.6 142.8 29.3 146.35 28.4" fill="#645a1d" fill-rule="evenodd" stroke="none"/>
      <path d="M184.8 31.65 Q186.3 31.65 186.85 32.4 187.4 33.15 186.85 34.05 185.45 36.45 180.65 36.2 175.5 35.95 177.45 33.8 179.35 31.65 184.8 31.65" fill="#645a1d" fill-rule="evenodd" stroke="none"/>
      <path d="M188.4 35.5 Q192.25 35.25 193.1 37.1 193.95 38.95 191.3 39.5 L186.9 39.8 183.0 39.15 Q181.2 38.8 183.6 37.2 186.05 35.65 188.4 35.5" fill="#645a1d" fill-rule="evenodd" stroke="none"/>
      <path d="M176.3 37.4 Q179.0 37.55 178.15 39.45 177.25 41.4 172.9 41.75 168.85 42.1 168.75 40.9 168.7 40.25 170.0 38.95 171.9 37.15 176.3 37.4" fill="#645a1d" fill-rule="evenodd" stroke="none"/>
      <path d="M165.6 51.35 Q168.55 50.3 171.5 51.3 174.3 52.3 173.15 53.5 172.05 54.6 168.55 55.25 L162.85 55.6 Q160.8 55.35 162.15 53.7 163.45 52.1 165.6 51.35" fill="#645a1d" fill-rule="evenodd" stroke="none"/>
      <path d="M127.4 18.35 Q129.6 18.2 129.2 19.75 128.8 21.3 126.6 21.6 L122.0 21.75 Q119.6 21.6 118.85 21.0 118.1 20.4 121.1 19.5 124.1 18.6 127.4 18.35" fill="#645a1d" fill-rule="evenodd" stroke="none"/>
      <path d="M124.95 24.85 Q129.5 24.4 129.1 25.6 128.8 26.35 126.6 27.65 125.3 28.45 122.55 28.35 119.85 28.3 119.45 27.55 119.1 26.8 120.95 25.95 122.75 25.1 124.95 24.85" fill="#645a1d" fill-rule="evenodd" stroke="none"/>
      <path d="M134.55 55.7 Q138.1 55.5 137.85 56.95 137.65 58.35 134.15 59.35 131.05 60.25 129.85 59.95 129.15 59.8 128.25 58.75 127.55 57.85 129.25 56.9 131.05 55.9 134.55 55.7" fill="#645a1d" fill-rule="evenodd" stroke="none"/>
      <path d="M139.05 49.55 Q139.9 50.8 138.05 51.65 L134.6 52.7 130.65 52.95 Q128.8 52.7 129.8 51.45 130.85 50.2 133.6 49.45 138.2 48.2 139.05 49.55" fill="#645a1d" fill-rule="evenodd" stroke="none"/>
      <path d="M118.3 58.3 Q118.15 57.5 119.75 56.7 121.4 55.85 124.0 55.55 127.0 55.2 126.65 57.0 126.3 58.75 123.45 59.2 118.6 60.0 118.3 58.3" fill="#645a1d" fill-rule="evenodd" stroke="none"/>
      <path d="M103.4 66.2 Q105.25 65.7 107.85 66.85 110.5 68.0 107.0 68.9 L97.45 69.15 Q95.2 68.15 103.4 66.2" fill="#645a1d" fill-rule="evenodd" stroke="none"/>
      <path d="M92.15 65.3 L95.7 65.55 Q97.05 66.0 96.05 66.9 94.95 67.85 91.55 68.5 L86.4 68.7 Q84.9 68.25 87.55 66.85 90.15 65.5 92.15 65.3" fill="#645a1d" fill-rule="evenodd" stroke="none"/>
      <path d="M88.75 70.4 Q91.7 70.4 93.65 71.5 95.75 72.7 92.05 73.6 L85.05 74.2 Q82.25 73.85 82.15 72.9 82.05 72.0 83.9 71.25 85.85 70.45 88.75 70.4" fill="#645a1d" fill-rule="evenodd" stroke="none"/>
      <path d="M94.6 31.25 Q96.1 30.95 97.2 31.75 98.3 32.6 97.1 33.5 95.5 34.65 93.3 35.3 L89.15 35.1 Q87.7 34.15 89.75 32.95 91.45 31.95 94.6 31.25" fill="#645a1d" fill-rule="evenodd" stroke="none"/>
      <path d="M90.9 36.45 Q94.75 35.95 94.5 37.8 94.25 39.55 90.9 40.9 88.05 42.0 86.8 41.4 86.05 41.0 85.7 39.6 85.45 38.75 87.55 37.65 89.45 36.65 90.9 36.45" fill="#645a1d" fill-rule="evenodd" stroke="none"/>
      <path d="M101.7 31.65 Q103.45 31.2 103.95 32.9 104.45 34.55 102.75 35.3 101.05 36.05 99.85 36.05 98.7 36.05 97.75 35.3 96.85 34.55 98.1 33.4 99.35 32.3 101.7 31.65" fill="#645a1d" fill-rule="evenodd" stroke="none"/>
      <path d="M86.05 50.45 Q89.55 50.15 89.15 51.1 88.8 51.85 86.55 52.85 84.75 53.65 82.8 53.9 L80.25 53.65 Q79.55 53.05 81.3 51.95 83.25 50.75 86.05 50.45" fill="#645a1d" fill-rule="evenodd" stroke="none"/>
      <path d="M62.2 43.55 Q63.5 43.4 64.15 44.85 64.75 46.3 63.25 46.6 62.7 46.7 59.0 48.5 55.9 49.95 54.45 49.6 52.65 49.15 56.15 46.5 59.7 43.85 62.2 43.55" fill="#645a1d" fill-rule="evenodd" stroke="none"/>
      <path d="M35.45 56.05 Q37.05 55.2 37.85 55.8 38.65 56.35 37.75 57.05 36.85 57.75 34.6 58.75 32.15 59.85 31.45 59.7 30.65 59.5 31.9 58.4 33.15 57.25 35.45 56.05" fill="#645a1d" fill-rule="evenodd" stroke="none"/>
      <path d="M37.3 63.1 Q39.85 62.35 39.75 64.85 39.65 67.35 36.9 68.55 34.35 69.65 32.8 69.05 31.6 68.6 31.25 67.15 30.75 65.1 37.3 63.1" fill="#645a1d" fill-rule="evenodd" stroke="none"/>
      <path d="M54.6 58.1 Q57.4 56.95 58.65 57.9 59.95 58.9 56.0 61.3 52.2 63.55 50.65 63.45 L48.65 62.4 Q46.85 61.45 54.6 58.1" fill="#645a1d" fill-rule="evenodd" stroke="none"/>
      <path d="M49.45 64.8 Q51.5 64.1 51.7 64.1 53.05 63.9 53.1 65.25 53.15 66.7 50.1 68.35 47.15 69.9 45.95 69.5 44.8 69.05 45.85 67.45 46.95 65.7 49.45 64.8" fill="#645a1d" fill-rule="evenodd" stroke="none"/>
      <path d="M16.5 82.05 Q19.05 81.1 18.55 83.4 18.05 85.55 16.5 86.65 15.25 87.55 13.8 87.75 12.4 87.9 11.45 87.3 10.55 86.7 12.55 84.7 14.5 82.8 16.5 82.05" fill="#645a1d" fill-rule="evenodd" stroke="none"/>
      <path d="M34.8 85.05 Q37.65 84.25 37.15 86.0 36.7 87.65 34.8 88.9 33.4 89.85 31.2 89.75 29.3 89.65 28.55 89.1 27.85 88.6 29.65 87.35 31.55 86.0 34.8 85.05" fill="#645a1d" fill-rule="evenodd" stroke="none"/>
      <path d="M29.35 90.7 Q32.3 90.85 31.4 91.95 30.5 92.95 27.9 93.3 L25.25 93.45 Q25.0 93.35 25.0 92.5 25.0 91.7 26.15 91.15 27.4 90.6 29.35 90.7" fill="#645a1d" fill-rule="evenodd" stroke="none"/>
      <path d="M67.2 72.6 Q71.0 72.2 72.0 73.35 72.95 74.35 71.0 75.45 69.45 76.35 67.9 76.1 L64.3 75.05 Q62.35 74.45 63.95 73.55 65.35 72.8 67.2 72.6" fill="#645a1d" fill-rule="evenodd" stroke="none"/>
    </g>
  </defs>
</svg>
