<?xml version="1.0" encoding="UTF-8" standalone="no"?>
<svg xmlns:xlink="http://www.w3.org/1999/xlink" height="98.0px" width="88.0px" xmlns="http://www.w3.org/2000/svg">
  <g transform="matrix(1.0, 0.0, 0.0, 1.0, 0.0, 0.0)">
    <use height="75.4" id="namasteFrogContainer_mc" transform="matrix(1.0, 0.0, 0.0, 1.0, 14.7, -7.8)" width="55.55" xlink:href="#sprite0"/>
  </g>
  <defs>
    <g id="sprite0" transform="matrix(1.0, 0.0, 0.0, 1.0, 28.35, 41.75)">
      <use height="11.55" transform="matrix(1.0, 0.0, 0.0, 3.2078, 0.05, -23.0446)" width="1.3" xlink:href="#shape0"/>
      <use height="8.05" transform="matrix(1.0, 0.0, 0.0, 1.0, -12.95, -27.45)" width="26.35" xlink:href="#shape1"/>
      <use height="2.15" transform="matrix(1.0, 0.0, 0.0, 1.0, 1.7, -25.3)" width="11.7" xlink:href="#shape2"/>
      <use height="4.1" transform="matrix(1.0, 0.0, 0.0, 1.0, -1.6, -26.35)" width="4.4" xlink:href="#shape3"/>
      <use height="2.4" transform="matrix(1.0, 0.0, 0.0, 1.0, -13.25, -24.7)" width="13.25" xlink:href="#shape4"/>
      <use height="8.35" transform="matrix(0.9987, 0.0518, 0.008, 1.0018, 5.0973, 4.6973)" width="4.4" xlink:href="#shape5"/>
      <use height="4.35" transform="matrix(0.9987, 0.0518, -0.0518, 0.9987, 7.0501, 9.0793)" width="4.65" xlink:href="#shape6"/>
      <use height="8.35" transform="matrix(0.9987, 0.0518, -0.1176, 0.9952, -8.9366, 3.9762)" width="4.4" xlink:href="#shape7"/>
      <use height="4.35" transform="matrix(0.9987, 0.0518, -0.0518, 0.9987, -11.745, 8.0902)" width="4.65" xlink:href="#shape8"/>
      <use height="9.5" transform="matrix(0.9986, 0.0523, -0.0523, 0.9986, -7.4908, 3.7035)" width="15.45" xlink:href="#shape9"/>
      <use height="19.15" transform="matrix(0.9987, 0.0518, -0.0518, 0.9987, -7.145, 0.0665)" width="15.35" xlink:href="#shape10"/>
      <use height="11.45" transform="matrix(0.9987, 0.0518, -0.0518, 0.9987, -2.7247, 10.7661)" width="17.65" xlink:href="#shape11"/>
      <use height="8.2" transform="matrix(0.9995, -0.0305, 0.0305, 0.9995, -12.9243, 19.8242)" width="13.0" xlink:href="#shape12"/>
      <use height="11.4" transform="matrix(0.9987, 0.0518, -0.0518, 0.9987, -14.6444, 10.175)" width="17.65" xlink:href="#shape13"/>
      <use height="8.35" transform="matrix(1.0, -0.0045, 0.0045, 1.0, -1.3558, 19.3045)" width="13.5" xlink:href="#shape14"/>
      <use height="12.4" transform="matrix(1.0, 0.0, 0.0, 1.0, -18.5001, -5.1497)" width="37.5" xlink:href="#shape15"/>
      <use height="14.1" transform="matrix(1.0, 0.0, 0.0, 1.0, -18.6001, -14.6497)" width="37.6" xlink:href="#shape16"/>
      <use height="7.85" transform="matrix(1.0, 0.0, 0.0, 1.0, -17.9001, -13.35)" width="6.05" xlink:href="#shape17"/>
      <use height="7.65" transform="matrix(1.0, 0.0, 0.0, 1.0, 11.9499, -12.0)" width="5.4" xlink:href="#shape18"/>
      <use height="6.75" transform="matrix(0.9979, -0.0652, 0.0652, 0.9979, -20.5648, 5.59)" width="9.4" xlink:href="#shape19"/>
      <use height="6.8" transform="matrix(0.9992, -0.039, 0.039, 0.9992, 10.379, 6.1728)" width="9.4" xlink:href="#shape20"/>
      <use height="15.25" transform="matrix(0.9988, 0.0478, -0.0478, 0.9988, -22.5, -18.2)" width="45.0" xlink:href="#sprite1"/>
    </g>
    <g id="shape0" transform="matrix(1.0, 0.0, 0.0, 1.0, 0.65, 5.75)">
      <path d="M0.65 -5.75 L0.65 5.8 -0.65 5.8 -0.65 -5.75 0.65 -5.75" fill="url(#gradient0)" fill-rule="evenodd" stroke="none"/>
    </g>
    <radialGradient cx="0" cy="0" gradientTransform="matrix(0.0012, 0.0, 0.0, -0.0054, -0.15, -0.15)" gradientUnits="userSpaceOnUse" id="gradient0" r="819.2" spreadMethod="pad">
      <stop offset="0.27450980392156865" stop-color="#c0c0c0"/>
      <stop offset="1.0" stop-color="#636363"/>
    </radialGradient>
    <g id="shape1" transform="matrix(1.0, 0.0, 0.0, 1.0, 13.6, 41.45)">
      <path d="M12.75 -38.55 L10.95 -38.85 Q8.7 -39.2 5.6 -38.95 L0.4 -38.2 0.55 -38.65 Q0.45 -39.2 -0.5 -39.55 L-4.9 -40.05 -7.95 -40.1 -4.55 -40.3 4.45 -39.8 Q2.25 -40.6 -3.7 -40.8 L-10.5 -40.15 -12.85 -39.4 -10.6 -40.5 Q-7.05 -41.6 -0.25 -41.4 6.5 -41.2 10.3 -39.85 12.2 -39.15 12.75 -38.55" fill="url(#gradient1)" fill-rule="evenodd" stroke="none"/>
      <path d="M7.6 -35.2 L4.1 -34.95 -1.8 -35.15 -5.1 -35.55 -3.2 -35.0 3.2 -34.25 Q7.0 -34.1 10.15 -35.1 11.75 -35.55 12.6 -36.1 12.15 -35.3 10.3 -34.6 6.6 -33.15 -0.3 -33.45 -7.2 -33.7 -11.1 -35.5 L-13.6 -37.3 -11.75 -36.85 Q-9.4 -36.4 -6.3 -36.75 -3.9 -37.0 -1.0 -37.75 L-1.1 -37.15 Q-1.05 -36.4 -0.05 -35.95 1.75 -35.05 7.6 -35.2" fill="url(#gradient2)" fill-rule="evenodd" stroke="none"/>
    </g>
    <radialGradient cx="0" cy="0" gradientTransform="matrix(-0.0176, 0.0, 0.0, 0.0132, 6.15, -34.95)" gradientUnits="userSpaceOnUse" id="gradient1" r="819.2" spreadMethod="pad">
      <stop offset="0.0" stop-color="#ffffff" stop-opacity="0.24705882"/>
      <stop offset="1.0" stop-color="#ffffff" stop-opacity="0.0"/>
    </radialGradient>
    <radialGradient cx="0" cy="0" gradientTransform="matrix(0.018, 0.0, 0.0, -0.018, -6.85, -42.15)" gradientUnits="userSpaceOnUse" id="gradient2" r="819.2" spreadMethod="pad">
      <stop offset="0.0" stop-color="#969696" stop-opacity="0.49803922"/>
      <stop offset="1.0" stop-color="#ffffff" stop-opacity="0.0"/>
    </radialGradient>
    <g id="shape2" transform="matrix(1.0, 0.0, 0.0, 1.0, 0.35, 1.3)">
      <path d="M10.7 0.0 L7.65 0.75 Q5.65 1.0 3.8 0.75 L0.9 0.5 -0.2 0.5 -0.35 -0.1 0.2 -0.4 0.7 -0.45 0.75 -0.4 1.2 0.05 2.05 0.25 3.5 0.35 7.65 0.55 10.7 0.0" fill="url(#gradient3)" fill-rule="evenodd" stroke="none"/>
      <path d="M0.75 -0.4 L0.95 -0.45 2.55 -0.7 5.6 -1.2 9.2 -1.25 11.15 -0.85 11.35 -0.55 11.3 -0.5 11.0 -0.2 10.85 -0.05 10.8 -0.05 10.7 0.0 7.65 0.55 3.5 0.35 2.05 0.25 1.2 0.05 0.75 -0.4" fill="url(#gradient4)" fill-rule="evenodd" stroke="none"/>
    </g>
    <radialGradient cx="0" cy="0" gradientTransform="matrix(0.0051, 0.0, 0.0, -0.0046, 5.5, 0.1)" gradientUnits="userSpaceOnUse" id="gradient3" r="819.2" spreadMethod="pad">
      <stop offset="0.0" stop-color="#f0f0f0"/>
      <stop offset="1.0" stop-color="#565656"/>
    </radialGradient>
    <linearGradient gradientTransform="matrix(0.0059, 0.0, 0.0, -0.0059, 5.55, -0.25)" gradientUnits="userSpaceOnUse" id="gradient4" spreadMethod="pad" x1="-819.2" x2="819.2">
      <stop offset="0.0" stop-color="#6e6e6e"/>
      <stop offset="1.0" stop-color="#b9b9b9"/>
    </linearGradient>
    <g id="shape3" transform="matrix(1.0, 0.0, 0.0, 1.0, 2.2, 2.05)">
      <path d="M-1.65 0.05 L-1.25 -0.55 0.1 -2.05 1.4 -0.55 Q2.3 0.95 2.2 1.15 L1.7 1.7 0.15 2.05 -0.15 2.05 Q-1.65 2.0 -2.2 1.15 L-2.05 0.7 Q0.55 2.2 1.95 0.55 L1.6 -0.1 Q1.2 0.65 0.35 0.65 L-1.1 0.45 -1.65 0.05" fill="url(#gradient5)" fill-rule="evenodd" stroke="none"/>
      <path d="M-1.65 0.05 L-1.1 0.45 0.35 0.65 Q1.2 0.65 1.6 -0.1 L1.95 0.55 Q0.55 2.2 -2.05 0.7 L-2.1 0.7 -2.0 0.65 -1.9 0.5 -1.9 0.45 -1.7 0.05 -1.65 0.05" fill="#2a2a2a" fill-rule="evenodd" stroke="none"/>
    </g>
    <radialGradient cx="0" cy="0" gradientTransform="matrix(0.0031, 2.0E-4, 6.0E-4, -0.0086, -0.35, 3.8)" gradientUnits="userSpaceOnUse" id="gradient5" r="819.2" spreadMethod="pad">
      <stop offset="0.0" stop-color="#f0f0f0"/>
      <stop offset="0.7803921568627451" stop-color="#565656"/>
      <stop offset="1.0" stop-color="#797979"/>
    </radialGradient>
    <g id="shape4" transform="matrix(1.0, 0.0, 0.0, 1.0, 12.65, 1.2)">
      <path d="M-11.9 0.45 Q-13.0 -0.1 -12.5 -0.45 L-10.25 -1.05 -6.15 -1.15 -2.7 -0.85 -0.05 -0.65 0.6 -0.35 0.6 -0.3 -4.2 0.6 Q-8.2 1.25 -11.05 0.6 L-12.55 0.0 -11.9 0.45" fill="url(#gradient6)" fill-rule="evenodd" stroke="none"/>
      <path d="M-11.9 0.45 L-12.55 0.0 -11.05 0.6 Q-8.2 1.25 -4.2 0.6 L0.6 -0.3 0.5 0.4 -4.05 0.9 -8.4 1.15 -11.9 0.45" fill="url(#gradient7)" fill-rule="evenodd" stroke="none"/>
    </g>
    <linearGradient gradientTransform="matrix(-0.0072, 3.0E-4, 3.0E-4, 0.0072, -6.1, -0.1)" gradientUnits="userSpaceOnUse" id="gradient6" spreadMethod="pad" x1="-819.2" x2="819.2">
      <stop offset="0.0" stop-color="#818181"/>
      <stop offset="1.0" stop-color="#efefef"/>
    </linearGradient>
    <radialGradient cx="0" cy="0" gradientTransform="matrix(0.0057, 0.0, 0.0, -0.0057, -5.95, 0.4)" gradientUnits="userSpaceOnUse" id="gradient7" r="819.2" spreadMethod="pad">
      <stop offset="0.0" stop-color="#f0f0f0"/>
      <stop offset="1.0" stop-color="#565656"/>
    </radialGradient>
    <g id="shape5" transform="matrix(1.0, 0.0, 0.0, 1.0, 1.0, 0.5)">
      <path d="M1.2 6.7 L0.3 6.75 Q0.0 6.75 -0.15 6.55 L-0.25 6.1 0.0 4.95 Q0.35 4.5 1.4 4.3 2.4 4.1 3.25 4.85 L3.3 4.85 3.3 5.2 2.95 5.7 2.45 6.15 1.2 6.7" fill="#1c324c" fill-rule="evenodd" stroke="none"/>
      <path d="M1.85 7.0 L0.85 7.85 0.75 6.75 0.85 5.3 0.9 5.15 0.9 5.05 0.95 4.7 1.0 4.5 1.05 4.1 1.65 4.15 2.0 5.45 Q1.25 5.85 1.25 6.25 1.2 6.95 1.85 6.95 L1.85 7.0" fill="#6a7400" fill-rule="evenodd" stroke="none"/>
      <path d="M2.0 5.45 L2.25 5.95 2.45 6.15 2.6 6.35 1.85 7.0 1.85 6.95 Q1.2 6.95 1.25 6.25 1.25 5.85 2.0 5.45" fill="url(#gradient8)" fill-rule="evenodd" stroke="none"/>
      <path d="M2.15 5.1 L0.9 5.6 0.1 5.75 Q-0.45 5.9 -0.65 5.55 L-1.0 4.7 -0.3 -0.5 0.5 -0.4 1.25 0.15 1.7 0.8 Q2.1 1.25 2.2 2.2 L2.65 3.6 3.4 4.85 Q2.85 4.8 2.15 5.1" fill="#4d80b5" fill-rule="evenodd" stroke="none"/>
      <path d="M1.5 1.25 L1.7 1.8 1.85 2.35 1.55 2.3 1.8 2.75 2.15 3.15 1.8 3.1 2.05 3.6 2.85 4.05 2.95 4.3 Q2.2 4.15 2.05 4.3 L3.05 4.4 2.4 4.6 1.85 5.05 1.6 4.85 1.8 4.65 1.95 4.4 1.5 4.4 Q1.55 4.2 2.15 4.1 L1.7 4.0 1.65 4.0 1.25 2.6 1.2 2.8 1.05 1.8 0.85 0.65 0.4 -0.4 1.0 -0.2 1.1 0.15 1.2 0.7 1.65 1.3 1.5 1.25" fill="#3e6896" fill-rule="evenodd" stroke="none"/>
      <path d="M2.15 4.1 Q1.55 4.2 1.5 4.4 L1.95 4.4 1.8 4.65 1.6 4.85 1.85 5.05 1.85 5.1 2.1 5.15 0.9 5.6 0.1 5.75 Q-0.45 5.9 -0.65 5.55 L-1.0 4.7 -0.3 -0.5 0.4 -0.4 0.85 0.65 1.05 1.8 1.2 2.8 1.25 2.6 1.65 4.0 1.7 4.0 2.15 4.1" fill="#2b4a6c" fill-rule="evenodd" stroke="none"/>
    </g>
    <linearGradient gradientTransform="matrix(-5.0E-4, -7.0E-4, 7.0E-4, -5.0E-4, 1.1, 6.15)" gradientUnits="userSpaceOnUse" id="gradient8" spreadMethod="pad" x1="-819.2" x2="819.2">
      <stop offset="0.0" stop-color="#bacf25"/>
      <stop offset="1.0" stop-color="#849219"/>
    </linearGradient>
    <g id="shape6" transform="matrix(1.0, 0.0, 0.0, 1.0, 0.5, 3.85)">
      <path d="M3.3 -3.4 L3.55 -3.75 Q3.75 -4.0 3.95 -3.45 L4.0 -2.55 3.95 -3.35 3.5 -3.65 3.3 -3.4 M-0.35 0.45 L-0.5 0.15 -0.45 0.0 -0.45 0.25 -0.35 0.45 M-0.4 -0.35 L-0.4 -0.65 Q-0.25 -1.35 1.45 -1.9 2.15 -2.05 3.1 -3.15 L2.9 -2.0 2.4 -1.6 0.85 -0.75 Q-0.05 -0.1 -0.4 -0.35" fill="url(#gradient9)" fill-rule="evenodd" stroke="none"/>
      <path d="M3.1 -3.15 L3.1 -3.2 3.3 -3.4 3.5 -3.65 3.95 -3.35 4.0 -2.55 4.15 -2.15 3.75 -1.9 2.8 -1.0 Q1.55 0.35 0.05 0.5 L-0.35 0.45 -0.45 0.25 -0.45 0.0 -0.45 -0.4 -0.4 -0.35 Q-0.05 -0.1 0.85 -0.75 L2.4 -1.6 2.9 -2.0 3.1 -3.15" fill="#6a7400" fill-rule="evenodd" stroke="none"/>
    </g>
    <linearGradient gradientTransform="matrix(0.0, -8.0E-4, 8.0E-4, 0.0, 1.85, -1.05)" gradientUnits="userSpaceOnUse" id="gradient9" spreadMethod="pad" x1="-819.2" x2="819.2">
      <stop offset="0.0" stop-color="#bacf25"/>
      <stop offset="1.0" stop-color="#849219"/>
    </linearGradient>
    <g id="shape7" transform="matrix(1.0, 0.0, 0.0, 1.0, 3.4, 0.5)">
      <path d="M0.2 6.1 L0.1 6.55 -0.5 6.75 -0.75 6.75 -0.75 6.7 -1.75 6.5 -2.45 6.2 -3.0 5.7 -3.35 5.2 -3.35 4.85 -3.3 4.85 Q-3.1 4.1 -0.55 4.4 L-0.55 4.45 -0.4 4.4 -0.05 4.95 0.2 6.1" fill="#1c324c" fill-rule="evenodd" stroke="none"/>
      <path d="M-2.05 5.45 L-1.8 4.65 -1.7 4.15 -1.1 4.1 -1.0 4.5 -0.85 5.3 -0.75 6.75 -0.9 7.85 -1.9 7.0 -1.85 7.0 -1.85 6.95 Q-1.25 6.95 -1.3 6.25 -1.3 5.85 -2.05 5.45" fill="#6a7400" fill-rule="evenodd" stroke="none"/>
      <path d="M-2.05 5.45 Q-1.3 5.85 -1.3 6.25 -1.25 6.95 -1.85 6.95 L-1.85 7.0 -2.6 6.35 -2.45 6.2 -2.3 5.95 -2.05 5.45" fill="url(#gradient10)" fill-rule="evenodd" stroke="none"/>
      <path d="M-2.65 3.6 L-2.2 2.2 Q-2.1 1.25 -1.7 0.8 L-1.25 0.15 -0.5 -0.4 0.3 -0.5 1.0 4.7 0.7 5.55 Q0.45 5.9 -0.1 5.75 L-0.9 5.6 Q-2.45 4.8 -3.4 4.85 L-2.65 3.6" fill="#4d80b5" fill-rule="evenodd" stroke="none"/>
      <path d="M-2.85 4.05 L-2.05 3.6 -1.8 3.1 -2.15 3.15 -1.75 2.75 -1.55 2.3 -1.85 2.35 -1.65 1.8 -1.5 1.25 -1.65 1.3 -1.2 0.7 -1.1 0.15 -1.0 -0.2 -0.4 -0.4 -0.85 0.65 -1.05 1.8 -1.2 2.8 -1.25 2.6 -1.65 4.0 -1.7 4.0 -2.15 4.1 Q-1.55 4.2 -1.5 4.4 L-1.95 4.4 -1.75 4.65 -1.6 4.85 -1.85 5.05 -2.4 4.6 -3.05 4.4 -2.05 4.3 Q-2.2 4.15 -2.95 4.3 L-2.85 4.05" fill="#3e6896" fill-rule="evenodd" stroke="none"/>
      <path d="M-2.15 4.1 L-1.7 4.0 -1.65 4.0 -1.25 2.6 -1.2 2.8 -1.05 1.8 -0.85 0.65 -0.4 -0.4 0.3 -0.5 1.0 4.7 0.7 5.55 Q0.45 5.9 -0.1 5.75 L-0.9 5.6 -2.1 5.15 -1.85 5.1 -1.85 5.05 -1.6 4.85 -1.75 4.65 -1.95 4.4 -1.5 4.4 Q-1.55 4.2 -2.15 4.1" fill="#2b4a6c" fill-rule="evenodd" stroke="none"/>
    </g>
    <linearGradient gradientTransform="matrix(5.0E-4, 7.0E-4, 7.0E-4, -5.0E-4, -1.15, 6.15)" gradientUnits="userSpaceOnUse" id="gradient10" spreadMethod="pad" x1="-819.2" x2="819.2">
      <stop offset="0.0" stop-color="#bacf25"/>
      <stop offset="1.0" stop-color="#849219"/>
    </linearGradient>
    <g id="shape8" transform="matrix(1.0, 0.0, 0.0, 1.0, 4.15, 3.85)">
      <path d="M0.45 -0.4 Q0.1 -0.05 -0.85 -0.75 L-2.35 -1.6 -2.85 -2.0 -3.1 -3.2 -3.45 -3.65 -3.85 -3.35 -3.85 -3.45 Q-3.7 -4.0 -3.5 -3.75 -2.25 -2.1 -1.45 -1.9 0.35 -1.35 0.4 -0.65 L0.45 -0.4" fill="url(#gradient11)" fill-rule="evenodd" stroke="none"/>
      <path d="M0.45 -0.4 L0.45 -0.35 0.5 -0.25 0.5 0.15 0.0 0.5 Q-1.6 0.3 -2.75 -1.0 L-3.75 -1.9 -4.15 -2.15 -3.95 -2.55 -3.9 -3.2 -3.9 -3.35 -3.85 -3.35 -3.45 -3.65 -3.1 -3.2 -2.85 -2.0 -2.35 -1.6 -0.85 -0.75 Q0.1 -0.05 0.45 -0.4" fill="#6a7400" fill-rule="evenodd" stroke="none"/>
    </g>
    <linearGradient gradientTransform="matrix(0.0, 8.0E-4, 8.0E-4, 0.0, -1.8, -1.05)" gradientUnits="userSpaceOnUse" id="gradient11" spreadMethod="pad" x1="-819.2" x2="819.2">
      <stop offset="0.0" stop-color="#bacf25"/>
      <stop offset="1.0" stop-color="#849219"/>
    </linearGradient>
    <g id="shape9" transform="matrix(1.0, 0.0, 0.0, 1.0, 7.7, 4.75)">
      <path d="M7.65 -1.35 Q7.9 0.05 7.4 2.3 L6.5 4.5 -5.55 4.75 -6.9 3.45 Q-7.8 2.2 -7.7 -0.7 -7.6 -2.7 -6.9 -3.85 L-6.1 -4.5 -5.5 -4.75 -4.8 -3.65 -4.75 -0.35 Q-4.85 -0.05 -1.1 1.15 L3.0 1.15 Q3.45 1.15 5.5 -2.5 L5.6 -4.75 6.3 -4.35 7.0 -3.25 7.65 -1.35" fill="#9d7643" fill-rule="evenodd" stroke="none"/>
      <path d="M5.5 -2.5 L5.6 -4.75 6.3 -4.35 6.7 -3.8 Q6.2 -3.8 6.3 -3.3 L7.0 -0.15 Q7.4 1.75 7.05 2.15 L6.9 2.75 7.1 3.15 6.5 4.5 -5.55 4.75 -6.9 3.45 -7.25 2.8 Q-6.85 2.15 -7.05 0.95 -7.4 -0.85 -6.95 -2.25 L-6.65 -3.0 -6.4 -3.5 Q-6.25 -3.7 -6.35 -3.85 L-6.65 -4.1 -5.5 -4.75 -4.8 -3.65 -4.75 -0.35 Q-4.85 -0.05 -1.1 1.15 L3.0 1.15 Q3.45 1.15 5.5 -2.5" fill="#7d5e34" fill-rule="evenodd" stroke="none"/>
      <path d="M-7.4 -1.3 L-7.7 0.15 -7.7 -0.7 Q-7.6 -2.7 -6.9 -3.85 L-6.45 -4.25 Q-7.35 -2.9 -7.4 -1.3" fill="#cc9b59" fill-rule="evenodd" stroke="none"/>
      <path d="M7.4 0.6 L7.4 0.65 7.3 1.45 7.2 1.6 5.9 4.55 -5.35 4.75 -4.7 -0.25 -2.85 0.6 -1.1 1.15 3.0 1.15 Q3.45 1.15 5.5 -2.5 L5.6 -4.25 6.15 -3.65 6.35 -3.55 6.75 -2.85 6.75 -2.7 7.4 0.6" fill="#cc9b59" fill-rule="evenodd" stroke="none"/>
    </g>
    <g id="shape10" transform="matrix(1.0, 0.0, 0.0, 1.0, 7.65, 9.55)">
      <path d="M0.0 -6.8 L4.45 -7.3 5.7 -4.95 Q6.75 -2.95 6.85 -1.55 7.1 1.1 5.7 3.8 3.85 7.4 0.0 7.4 -3.85 7.4 -5.7 3.8 -7.05 1.15 -6.85 -1.55 -6.75 -2.95 -5.7 -4.95 L-4.4 -7.3 0.0 -6.8" fill="#d9d89e" fill-rule="evenodd" stroke="none"/>
      <path d="M-1.6 -1.6 L-0.7 -1.7 0.7 -1.6 -0.45 -1.35 -1.6 -1.1 Q-2.05 -0.8 -1.55 -0.6 L0.05 0.2 2.65 0.7 6.8 0.15 5.95 3.25 Q2.9 3.15 -0.4 2.2 -2.5 1.6 -2.3 0.0 L-1.6 -1.6" fill="#c2c18e" fill-rule="evenodd" stroke="none"/>
      <path d="M2.1 -2.5 L1.35 -1.95 2.15 -2.85 1.85 -3.0 0.05 -3.1 -2.6 -2.7 -3.8 -2.2 -6.4 -3.3 -5.9 -4.55 -3.7 -3.45 -2.55 -3.75 0.15 -3.45 1.45 -3.55 2.85 -4.0 3.75 -4.55 Q4.05 -4.8 3.9 -4.45 3.45 -3.5 2.1 -2.5" fill="#c2c18e" fill-rule="evenodd" stroke="none"/>
      <path d="M0.7 -1.6 L1.35 -1.95 2.1 -2.5 Q3.45 -3.5 3.9 -4.45 4.05 -4.8 3.75 -4.55 L2.85 -4.0 1.45 -3.55 0.15 -3.45 -2.55 -3.75 -3.7 -3.45 -5.9 -4.55 -4.75 -6.85 Q-5.1 -9.0 0.35 -9.3 5.4 -8.85 5.25 -7.6 5.1 -6.4 5.95 -4.65 6.75 -2.95 6.85 -1.55 L6.8 0.15 2.65 0.7 0.05 0.2 -1.55 -0.6 Q-2.05 -0.8 -1.6 -1.1 L-0.45 -1.35 0.7 -1.6" fill="#94936e" fill-rule="evenodd" stroke="none"/>
      <path d="M1.35 -1.65 L1.4 -1.6 2.05 -0.45 2.05 0.7 2.45 -0.05 2.7 0.45 2.75 1.4 2.15 2.4 Q2.65 2.55 3.6 1.1 L4.95 -0.95 4.85 -0.6 5.45 -1.55 6.0 -3.4 6.05 -4.0 6.2 -3.8 6.3 -3.25 6.4 -2.55 6.5 -3.45 6.55 -3.3 6.6 -3.15 6.7 -2.9 6.7 -2.85 6.6 -2.55 6.2 -1.8 6.05 -2.6 5.9 -2.3 5.1 -0.65 3.95 1.2 Q2.5 2.8 1.6 3.05 L1.6 3.95 1.55 4.25 1.05 4.3 1.15 4.15 1.35 3.6 1.25 2.9 1.25 2.35 1.15 1.5 1.2 0.5 1.15 -0.7 0.75 -1.3 0.7 -1.35 1.35 -1.65 M-0.2 -1.35 L0.15 -1.2 0.6 -1.35 0.55 -1.25 0.4 -1.15 -0.1 -1.05 -0.3 -1.25 -0.2 -1.25 -0.2 -1.35 M1.35 -0.9 L1.45 -0.6 1.55 0.05 1.6 1.25 1.55 -0.6 1.05 -1.4 1.35 -0.9 M6.15 3.7 L6.1 4.15 5.8 4.4 5.45 4.95 5.25 5.1 5.15 5.0 4.95 4.5 4.7 4.3 3.25 4.75 2.4 5.05 1.15 5.15 -0.35 5.2 -0.95 5.1 -0.55 5.25 0.2 5.4 -0.25 5.55 -1.95 4.9 -4.05 3.5 -5.35 2.4 Q-5.45 2.3 -5.1 2.5 L-3.55 3.45 -4.1 3.0 -5.05 2.0 Q-5.2 1.75 -5.6 1.55 L-5.95 1.05 -6.25 0.25 Q-6.25 -0.15 -5.15 0.65 L-4.35 1.25 -5.95 -0.6 -5.45 -0.5 -5.5 -0.8 -5.45 -1.25 -4.85 -1.5 -4.45 -1.2 -3.25 1.15 -1.85 3.0 -2.4 1.55 -2.15 0.9 -1.85 0.2 -1.45 -0.4 -1.55 -0.15 -2.3 1.3 -1.5 2.95 -1.0 3.8 -1.1 1.85 -1.05 -0.65 -0.95 0.15 -1.0 0.35 -1.0 0.7 Q-1.0 1.75 -0.7 1.95 L-0.65 2.25 -0.75 2.45 -0.85 2.5 -0.8 2.5 -0.85 2.65 -0.85 2.8 -0.9 3.0 -0.9 3.5 -0.7 3.7 Q-0.9 3.2 -0.7 2.9 L-0.7 2.8 -0.5 2.85 -0.6 3.15 -0.55 3.25 -0.6 3.3 -0.45 3.7 Q-0.15 4.0 0.15 4.0 0.75 4.0 0.85 3.5 0.85 4.1 0.4 4.15 -0.2 4.15 -0.4 3.8 L-0.95 3.8 -0.95 3.85 Q-1.7 3.5 -2.5 2.55 L-3.6 1.0 -3.55 1.65 -3.3 2.5 -3.0 2.75 -4.45 1.9 -4.75 1.75 -4.95 1.95 Q-4.95 2.35 -3.05 3.8 -2.25 4.45 -0.95 4.85 L-0.4 4.75 0.85 4.8 1.6 4.7 1.35 4.95 1.75 4.9 2.75 4.6 4.1 3.85 6.4 2.5 6.5 1.3 6.1 1.9 3.8 3.7 4.35 3.0 5.0 1.75 5.15 1.55 5.5 0.95 5.05 2.35 4.9 2.7 6.35 1.35 6.65 0.65 6.75 1.45 Q6.8 2.35 6.4 2.8 L6.3 2.9 Q5.6 3.7 5.95 3.7 L6.15 3.65 6.15 3.7 M7.0 -0.45 L6.85 -0.45 6.15 0.05 5.5 0.45 5.85 0.1 7.05 -0.8 7.0 -0.45 M4.6 1.2 L3.75 2.4 3.55 2.6 4.45 1.9 4.25 2.1 2.65 3.3 3.1 2.85 4.4 1.3 4.6 1.2 M4.95 1.4 L4.6 2.15 4.35 2.4 4.6 1.8 4.95 1.4 M2.25 1.25 L1.6 1.5 1.6 2.85 2.35 2.05 2.4 1.55 2.25 1.25" fill="#3e6896" fill-rule="evenodd" stroke="none"/>
      <path d="M6.5 -3.45 L6.4 -2.55 6.3 -3.25 6.2 -3.8 6.05 -4.0 6.0 -3.4 5.45 -1.55 4.85 -0.6 4.95 -0.95 3.6 1.1 Q2.65 2.55 2.15 2.4 L2.75 1.4 2.7 0.45 2.45 -0.05 2.05 0.7 2.05 -0.45 1.4 -1.6 1.35 -1.65 2.55 -2.35 3.15 -2.9 Q4.1 -3.75 4.75 -5.1 L5.15 -6.3 6.0 -4.8 6.5 -3.45 M1.05 4.3 L1.55 4.25 2.1 4.1 3.0 4.0 2.1 4.3 2.05 4.3 1.4 4.45 -0.3 4.5 -1.45 4.25 1.05 4.3 M6.85 0.5 L6.85 1.3 6.9 1.7 6.55 2.65 6.2 3.6 6.15 3.65 5.95 3.7 Q5.6 3.7 6.3 2.9 L6.4 2.8 Q6.8 2.35 6.75 1.45 L6.65 0.65 6.35 1.35 4.9 2.7 5.05 2.35 5.5 0.95 5.15 1.55 5.0 1.75 4.6 2.15 4.95 1.4 3.55 2.6 3.75 2.4 4.6 1.2 Q4.65 1.0 5.5 0.45 L6.15 0.05 6.85 -0.45 7.0 -0.45 6.85 0.5 M6.1 4.15 L6.45 4.1 Q6.85 4.1 7.3 4.55 L7.7 5.05 Q7.7 5.75 4.7 7.65 1.6 9.6 0.25 9.6 -2.3 9.6 -5.15 7.9 -7.65 6.4 -7.65 5.75 -7.65 5.3 -6.95 4.7 -6.55 4.35 -6.15 4.25 L-6.45 3.55 Q-7.0 1.15 -7.0 -0.15 L-7.2 -1.45 -7.05 -2.45 -6.55 -3.8 -5.6 -5.9 -4.7 -6.65 -4.65 -6.65 -4.55 -6.65 -4.15 -5.2 -3.9 -4.7 -3.85 -4.55 Q-3.5 -3.7 -2.95 -3.15 L-2.35 -2.6 -0.2 -1.35 -0.2 -1.25 -0.3 -1.25 -1.2 -0.65 -1.45 -0.4 -1.85 0.2 -2.15 0.9 -2.4 1.55 -1.85 3.0 -3.25 1.15 -4.45 -1.2 -4.85 -1.5 -5.45 -1.25 -5.5 -0.8 -5.45 -0.5 -5.95 -0.6 -4.35 1.25 -5.15 0.65 Q-6.25 -0.15 -6.25 0.25 L-5.95 1.05 -5.6 1.55 Q-5.2 1.75 -5.05 2.0 L-4.1 3.0 -3.55 3.45 -5.1 2.5 Q-5.45 2.3 -5.35 2.4 L-4.05 3.5 -1.95 4.9 -0.25 5.55 0.2 5.4 -0.55 5.25 -0.95 5.1 -0.35 5.2 1.15 5.15 2.4 5.05 3.25 4.75 4.7 4.3 4.95 4.5 5.15 5.0 5.25 5.1 5.45 4.95 5.8 4.4 6.1 4.15 M0.55 0.45 Q0.55 0.9 0.05 0.9 L-0.4 0.45 Q-0.4 0.0 0.05 0.0 0.55 0.0 0.55 0.45 M0.2 3.75 Q-0.3 3.75 -0.3 3.3 -0.3 2.9 0.2 2.9 0.65 2.9 0.65 3.3 L0.2 3.75 M4.75 5.9 L2.55 7.15 Q3.6 6.8 4.85 5.9 L4.75 5.9" fill="#2b4a6c" fill-rule="evenodd" stroke="none"/>
      <path d="M0.75 -1.3 L1.15 -0.7 1.2 0.5 1.15 1.5 1.25 2.35 1.25 2.9 1.35 3.6 1.15 4.15 1.05 4.3 -1.45 4.25 -2.6 4.0 -2.1 4.3 -0.4 4.75 -0.95 4.85 Q-2.25 4.45 -3.05 3.8 -4.95 2.35 -4.95 1.95 L-4.75 1.75 -4.45 1.9 -3.0 2.75 -3.3 2.5 -3.55 1.65 -3.6 1.0 -2.5 2.55 Q-1.7 3.5 -0.95 3.85 L-0.95 3.8 -0.4 3.8 Q-0.2 4.15 0.4 4.15 0.85 4.1 0.85 3.5 L0.9 3.3 0.9 3.25 0.9 3.15 0.8 2.8 0.65 2.6 0.55 2.6 0.15 2.45 -0.4 2.7 -0.5 2.85 -0.7 2.8 -0.65 2.7 -0.65 2.6 -0.6 2.1 -0.65 2.25 -0.7 1.95 -0.6 2.0 -0.8 1.65 -0.85 1.4 -0.8 -0.85 -0.9 -0.25 -0.9 0.0 -1.0 0.35 -0.95 0.15 -1.05 -0.65 -1.1 1.85 -1.0 3.8 -1.5 2.95 -2.3 1.3 -1.55 -0.15 -1.45 -0.4 -1.2 -0.65 -0.3 -1.25 -0.1 -1.05 0.4 -1.15 0.55 -1.25 0.75 -1.3 M1.55 4.25 L1.6 3.95 1.6 3.05 Q2.5 2.8 3.95 1.2 L5.1 -0.65 5.9 -2.3 6.05 -2.6 6.2 -1.8 6.6 -2.55 6.7 -2.85 7.05 -1.5 7.05 -0.8 6.85 0.5 7.0 -0.45 7.05 -0.8 5.85 0.1 5.5 0.45 Q4.65 1.0 4.6 1.2 L4.4 1.3 3.1 2.85 2.65 3.3 4.25 2.1 4.45 1.9 3.55 2.6 4.95 1.4 4.6 1.8 4.35 2.4 4.6 2.15 5.0 1.75 4.35 3.0 3.8 3.7 6.1 1.9 6.5 1.3 6.4 2.5 4.1 3.85 2.75 4.6 1.75 4.9 1.35 4.95 1.6 4.7 Q3.05 4.55 3.05 4.1 L2.1 4.3 3.0 4.0 2.1 4.1 1.55 4.25 M1.35 -0.9 L1.05 -1.4 1.55 -0.6 1.6 1.25 1.55 0.05 1.45 -0.6 1.35 -0.9 M6.2 3.6 L6.15 3.7 6.15 3.65 6.2 3.6 M-4.65 -6.65 L-4.55 -6.75 -4.2 -5.45 -3.9 -4.7 -4.15 -5.2 -4.55 -6.65 -4.65 -6.65 M2.25 1.25 L2.4 1.55 2.35 2.05 1.6 2.85 1.6 1.5 2.25 1.25 M0.75 0.35 L0.8 0.3 Q0.8 -0.4 0.05 -0.4 L-0.05 -0.4 Q-0.7 -0.3 -0.7 0.3 L-0.7 0.35 -0.7 0.45 Q-0.7 1.15 0.05 1.15 L0.45 1.0 0.8 0.45 0.75 0.35 M1.4 4.45 L0.9 4.5 -0.3 4.5 1.4 4.45 M4.75 5.9 L4.85 5.9 Q3.6 6.8 2.55 7.15 L4.75 5.9 M-0.75 2.45 L-0.8 2.5 -0.85 2.5 -0.75 2.45" fill="#4d80b5" fill-rule="evenodd" stroke="none"/>
      <path d="M0.9 3.25 L0.9 3.3 0.85 3.5 Q0.75 4.0 0.15 4.0 -0.15 4.0 -0.45 3.7 L-0.6 3.3 -0.55 3.25 Q-0.45 2.6 0.15 2.6 0.8 2.6 0.9 3.25 M0.55 0.45 Q0.55 0.0 0.05 0.0 -0.4 0.0 -0.4 0.45 L0.05 0.9 Q0.55 0.9 0.55 0.45 M-0.7 0.35 Q-0.6 -0.25 0.05 -0.25 0.65 -0.25 0.75 0.35 L0.8 0.45 0.45 1.0 0.05 1.15 Q-0.7 1.15 -0.7 0.45 L-0.7 0.35 M0.2 3.75 L0.65 3.3 Q0.65 2.9 0.2 2.9 -0.3 2.9 -0.3 3.3 -0.3 3.75 0.2 3.75" fill="#5389c1" fill-rule="evenodd" stroke="none"/>
      <path d="M-1.0 0.35 L-0.9 0.0 -0.9 -0.25 -0.8 -0.85 -0.85 1.4 -0.8 1.65 -0.6 2.0 -0.7 1.95 Q-1.0 1.75 -1.0 0.7 L-1.0 0.35 M-0.65 2.25 L-0.6 2.1 -0.65 2.6 -0.65 2.7 -0.7 2.8 -0.7 2.9 Q-0.9 3.2 -0.7 3.7 L-0.9 3.5 -0.9 3.0 -0.85 2.8 -0.85 2.65 -0.8 2.5 -0.75 2.45 -0.65 2.25 M-0.5 2.85 L-0.4 2.7 0.15 2.45 0.55 2.6 0.65 2.6 0.8 2.8 0.9 3.15 0.9 3.25 Q0.8 2.6 0.15 2.6 -0.45 2.6 -0.55 3.25 L-0.6 3.15 -0.5 2.85 M-0.4 4.75 L-2.1 4.3 -2.6 4.0 -1.45 4.25 -0.3 4.5 0.9 4.5 1.4 4.45 2.05 4.3 2.1 4.3 3.05 4.1 Q3.05 4.55 1.6 4.7 L0.85 4.8 -0.4 4.75 M-0.7 0.35 L-0.7 0.3 Q-0.7 -0.3 -0.05 -0.4 L0.05 -0.4 Q0.8 -0.4 0.8 0.3 L0.75 0.35 Q0.65 -0.25 0.05 -0.25 -0.6 -0.25 -0.7 0.35" fill="#7ea4c9" fill-rule="evenodd" stroke="none"/>
      <path d="M5.0 1.7 L4.8 1.65 Q4.4 1.4 4.6 0.55 L5.9 -0.4 6.45 -0.55 6.65 -0.55 6.9 -0.15 Q7.05 0.45 6.65 0.95 5.95 1.8 5.1 1.7 L5.0 1.7 M6.4 -0.3 L6.0 -0.15 Q5.0 0.45 4.95 0.65 4.7 1.4 5.25 1.45 6.0 1.55 6.6 0.85 L6.75 0.0 6.4 -0.3 M6.45 0.1 L6.55 0.25 6.45 0.45 Q6.35 0.65 6.25 0.45 L6.15 0.35 6.05 0.45 5.75 0.65 5.6 0.55 5.5 0.95 5.55 1.15 5.45 1.25 5.3 1.15 Q5.2 0.55 5.45 0.35 L5.85 0.4 5.85 0.1 6.05 0.0 6.35 0.15 6.45 0.1" fill="#cfab44" fill-rule="evenodd" stroke="none"/>
      <path d="M5.0 1.7 L4.6 1.7 Q3.85 1.6 4.2 0.5 L4.85 -0.1 5.65 -0.55 Q6.35 -0.9 6.65 -0.55 L6.45 -0.55 5.8 -0.45 Q4.65 0.1 4.5 0.55 4.3 1.45 4.8 1.65 L5.0 1.7 M5.25 1.45 Q4.7 1.4 4.95 0.65 5.0 0.45 6.0 -0.15 L6.4 -0.3 6.65 0.0 Q6.75 0.45 6.45 0.8 6.0 1.4 5.25 1.45 M6.45 0.1 L6.35 0.15 6.05 0.0 5.85 0.1 5.85 0.4 5.45 0.35 Q5.2 0.55 5.3 1.15 L5.45 1.25 5.55 1.15 5.5 0.95 5.6 0.55 5.75 0.65 6.05 0.45 6.15 0.35 6.25 0.45 Q6.35 0.65 6.45 0.45 L6.55 0.25 6.45 0.1" fill="#562b19" fill-rule="evenodd" stroke="none"/>
      <path d="M4.8 1.65 Q4.3 1.45 4.5 0.55 4.65 0.1 5.8 -0.45 L6.45 -0.55 5.9 -0.4 4.6 0.55 Q4.4 1.4 4.8 1.65 M6.4 -0.3 L6.75 0.0 6.6 0.85 Q6.0 1.55 5.25 1.45 6.0 1.4 6.45 0.8 6.75 0.45 6.65 0.0 L6.4 -0.3" fill="#8d742c" fill-rule="evenodd" stroke="none"/>
      <path d="M4.7 -5.2 L4.65 -5.2 5.15 -6.65 5.15 -6.75 5.2 -7.25 5.2 -7.35 4.9 -7.55 4.65 -7.95 4.1 -8.3 5.05 -8.35 5.1 -8.35 5.35 -7.95 5.4 -7.8 5.3 -7.35 5.35 -7.25 5.75 -5.05 5.65 -3.25 5.65 -4.7 5.55 -5.15 5.4 -4.65 5.4 -5.1 5.4 -5.25 5.25 -4.9 5.2 -5.3 4.95 -5.3 4.7 -5.2 M-1.6 -9.05 L-2.65 -8.8 -4.25 -8.1 -4.65 -7.35 -4.65 -7.25 -4.7 -7.2 -4.7 -6.75 -4.55 -6.15 -4.35 -5.65 -4.5 -5.5 Q-4.7 -5.1 -4.5 -4.0 L-4.35 -3.05 -4.7 -4.05 -4.75 -4.55 -4.75 -4.0 -4.45 -2.55 -4.05 -1.45 -5.2 -3.75 -5.25 -4.05 -5.3 -4.55 -5.25 -5.05 -5.15 -5.55 -5.0 -6.65 -4.9 -7.05 -4.95 -7.05 -4.75 -7.55 Q-4.1 -8.9 -1.6 -9.05" fill="#2b4a6c" fill-rule="evenodd" stroke="none"/>
      <path d="M5.1 -8.35 L5.05 -8.35 4.1 -8.3 3.1 -8.7 2.85 -8.75 2.55 -9.3 2.55 -9.35 2.8 -9.3 4.1 -8.9 4.75 -8.55 5.1 -8.35 M-4.35 -5.65 L-4.25 -5.35 -4.05 -4.8 -4.2 -4.45 -3.7 -3.45 -2.5 -2.1 -3.7 -3.05 -4.15 -3.5 -3.15 -1.2 -4.1 -2.55 -4.2 -2.7 -3.35 -0.55 -3.15 -0.05 Q-3.05 0.15 -2.95 0.05 L-2.0 -0.95 -2.15 -0.6 -1.8 -1.1 -1.15 -1.65 -1.65 -1.95 -3.3 -3.45 -3.8 -4.2 -4.0 -4.7 Q-3.6 -3.9 -1.4 -2.2 L-0.2 -1.25 -0.65 -1.2 -1.55 -0.6 Q-2.25 0.15 -2.85 1.65 L-2.95 1.55 -2.7 0.6 -2.45 -0.1 -2.75 0.4 -3.05 1.1 -4.25 -1.2 -5.1 -2.85 -5.25 -4.05 -5.2 -3.75 -4.05 -1.45 -4.45 -2.55 -4.75 -4.0 -4.75 -4.55 -4.7 -4.05 -4.35 -3.05 -4.5 -4.0 Q-4.7 -5.1 -4.5 -5.5 L-4.35 -5.65" fill="#3e6896" fill-rule="evenodd" stroke="none"/>
      <path d="M4.7 -5.2 L4.95 -5.3 4.9 -4.7 3.55 -2.7 2.7 -1.95 Q3.75 -2.35 4.15 -2.95 L4.6 -3.55 4.5 -3.25 3.95 -2.45 3.0 -1.4 3.75 -1.9 4.65 -2.95 5.1 -4.05 4.55 -2.2 3.8 -0.95 Q4.85 -1.95 5.15 -2.95 L5.4 -3.65 5.25 -2.3 4.95 -1.7 5.35 -2.0 4.65 -0.6 4.05 0.6 3.7 1.25 2.5 -0.6 1.6 -1.45 Q3.1 -2.25 4.0 -3.6 4.9 -4.95 4.6 -5.0 L4.7 -5.2 M5.2 -5.3 L5.25 -4.9 5.4 -5.25 5.4 -5.1 5.25 -4.55 4.95 -3.9 5.2 -5.3 M5.65 -3.25 L5.75 -5.05 Q5.9 -3.8 5.55 -2.6 L5.65 -3.25 M2.85 -8.75 L1.05 -9.05 -0.8 -9.15 -1.6 -9.05 Q-4.1 -8.9 -4.75 -7.55 L-4.95 -7.05 -4.9 -7.25 -4.85 -7.85 -3.95 -8.55 -3.7 -8.7 -3.2 -8.95 -2.2 -9.25 -1.65 -9.5 -1.1 -9.55 1.65 -9.45 2.55 -9.3 2.85 -8.75 M-4.05 -4.8 L-4.0 -4.7 -3.8 -4.2 -3.3 -3.45 -1.65 -1.95 -1.15 -1.65 -1.8 -1.1 -2.15 -0.6 -2.0 -0.95 -2.95 0.05 Q-3.05 0.15 -3.15 -0.05 L-3.35 -0.55 -4.2 -2.7 -4.1 -2.55 -3.15 -1.2 -4.15 -3.5 -3.7 -3.05 -2.5 -2.1 -3.7 -3.45 -4.2 -4.45 -4.05 -4.8 M-2.95 1.55 L-3.55 0.6 -4.15 -0.6 -4.95 -2.2 Q-5.35 -3.4 -5.3 -4.55 L-5.25 -4.05 -5.1 -2.85 -4.25 -1.2 -3.05 1.1 -2.75 0.4 -2.45 -0.1 -2.7 0.6 -2.95 1.55 M0.85 -1.45 L0.85 -1.35 0.75 -1.4 0.85 -1.45" fill="#5389c1" fill-rule="evenodd" stroke="none"/>
      <path d="M4.6 -5.0 Q4.9 -4.95 4.0 -3.6 3.1 -2.25 1.6 -1.45 L2.5 -0.6 3.7 1.25 3.35 1.65 Q2.75 0.15 2.05 -0.6 L1.6 -1.0 0.85 -1.35 0.85 -1.45 0.9 -1.45 1.05 -1.55 1.15 -1.6 1.9 -2.2 Q4.1 -3.9 4.45 -4.7 L4.6 -5.0" fill="#7ea4c9" fill-rule="evenodd" stroke="none"/>
    </g>
    <g id="shape11" transform="matrix(1.0, 0.0, 0.0, 1.0, 16.15, 2.0)">
      <path d="M-16.1 8.05 L-16.05 7.2 -15.5 6.7 -15.4 6.65 -15.3 6.6 -15.25 6.6 -13.25 5.55 -12.1 4.9 -8.9 2.95 -5.0 -0.3 Q-2.95 -2.1 -1.95 -2.0 1.3 -1.75 1.5 0.55 1.65 2.6 0.05 3.75 0.85 3.1 1.25 2.0 1.75 0.7 1.25 -0.3 L1.2 1.1 0.3 2.35 -2.7 4.3 Q-4.9 5.5 -6.65 6.2 L-9.0 6.9 -9.9 7.05 -11.65 7.25 -12.3 7.3 -16.1 8.05" fill="url(#gradient12)" fill-rule="evenodd" stroke="none"/>
      <path d="M-16.1 8.05 L-12.3 7.3 -11.65 7.25 -9.9 7.05 -9.0 6.9 -6.65 6.2 Q-4.9 5.5 -2.7 4.3 L0.3 2.35 1.2 1.1 1.25 -0.3 Q1.75 0.7 1.25 2.0 0.85 3.1 0.05 3.75 L-0.05 3.8 -0.15 3.85 Q-1.65 4.85 -5.35 6.45 L-8.7 7.8 -9.65 8.1 -10.15 8.3 -11.2 8.55 -12.75 9.15 -12.8 9.2 -14.9 9.25 -15.05 9.1 -16.1 8.15 -16.1 8.05" fill="#849219" fill-rule="evenodd" stroke="none"/>
    </g>
    <linearGradient gradientTransform="matrix(0.0013, 0.0023, 0.0023, -0.0013, -11.0, 6.85)" gradientUnits="userSpaceOnUse" id="gradient12" spreadMethod="pad" x1="-819.2" x2="819.2">
      <stop offset="0.0" stop-color="#bacf25"/>
      <stop offset="1.0" stop-color="#849219"/>
    </linearGradient>
    <g id="shape12" transform="matrix(1.0, 0.0, 0.0, 1.0, 12.25, 1.0)">
      <path d="M-6.7 -0.45 L-3.3 -0.75 -1.75 -1.0 -1.7 -1.0 Q-0.55 -1.0 0.35 -0.45 L0.65 -0.15 -2.65 0.45 -1.5 1.5 Q-1.05 1.85 -1.3 1.95 L-1.9 1.9 -1.95 2.2 -2.0 3.9 Q-1.85 4.7 -2.4 4.7 L-1.85 5.0 Q-1.25 5.6 -2.0 6.5 -2.55 7.15 -3.65 6.5 L-3.8 6.2 -4.05 5.8 -3.95 5.9 -3.7 4.9 -3.7 3.45 -3.55 1.95 -3.0 0.35 -2.95 0.25 -2.95 0.1 -3.2 0.6 -3.4 0.95 -3.5 1.1 -3.5 1.2 -3.55 1.25 -5.05 3.25 Q-5.7 4.2 -6.55 4.6 L-6.4 4.9 Q-6.3 5.25 -6.5 5.6 L-7.4 6.2 -8.35 6.15 -8.85 5.8 -8.6 4.65 -8.3 3.95 Q-6.75 3.0 -6.35 2.25 L-5.5 1.15 -3.85 -0.5 -8.5 1.2 -9.35 1.15 -9.55 0.85 -9.55 1.4 -10.05 1.75 -11.3 1.75 -12.2 1.4 -12.2 1.0 Q-12.15 0.55 -10.7 0.5 L-12.0 0.8 -11.95 1.0 -11.1 1.25 Q-10.45 1.25 -10.1 0.9 L-9.85 0.45 -8.65 0.15 Q-9.15 0.5 -8.7 0.5 L-4.75 -0.3 Q-4.25 -0.4 -4.55 -0.7 L-6.7 -0.45" fill="url(#gradient13)" fill-rule="evenodd" stroke="none"/>
      <path d="M-10.7 0.5 L-10.0 0.45 -9.85 0.4 -9.85 0.45 -10.1 0.9 Q-10.45 1.25 -11.1 1.25 L-11.95 1.0 -12.0 0.8 -10.7 0.5 M-8.65 0.15 L-8.55 0.05 -6.7 -0.45 -4.55 -0.7 Q-4.25 -0.4 -4.75 -0.3 L-8.7 0.5 Q-9.15 0.5 -8.65 0.15" fill="#cee335" fill-rule="evenodd" stroke="none"/>
      <path d="M0.65 -0.15 L0.75 0.3 0.7 1.05 0.4 1.65 0.05 1.9 0.0 1.95 Q-1.35 2.65 -1.35 3.0 L-1.55 3.95 Q-1.6 4.75 -1.05 5.65 -0.65 6.3 -1.6 7.0 L-2.55 7.15 -3.4 6.8 -3.65 6.5 Q-2.55 7.15 -2.0 6.5 -1.25 5.6 -1.85 5.0 L-2.4 4.7 Q-1.85 4.7 -2.0 3.9 L-1.95 2.2 -1.9 1.9 -1.3 1.95 Q-1.05 1.85 -1.5 1.5 L-2.65 0.45 0.65 -0.15 M-5.85 5.8 L-5.95 5.85 -6.65 6.6 Q-7.05 7.0 -7.55 7.0 L-8.5 6.65 -7.05 6.4 -6.05 5.45 -5.5 4.45 -4.25 2.45 -3.55 1.25 -3.5 1.2 -3.5 1.1 -3.4 0.95 -3.2 0.6 -2.95 0.1 -2.95 0.25 -3.0 0.35 -3.55 1.95 -3.55 1.85 -3.9 2.15 -4.2 2.85 -5.9 5.8 -5.85 5.8 M-9.3 2.45 L-11.3 2.55 -11.6 2.55 -12.15 2.2 -11.7 2.3 -11.3 2.35 -11.25 2.35 -9.2 1.9 -5.7 0.6 Q-5.05 0.4 -3.85 -0.5 L-5.5 1.15 -5.45 1.05 -5.55 1.0 -7.4 1.6 Q-8.95 2.15 -9.3 2.45" fill="#849219" fill-rule="evenodd" stroke="none"/>
      <path d="M-5.15 5.5 L-5.25 5.5 -5.35 5.55 -5.4 5.55 -5.6 5.65 -5.8 5.75 -5.85 5.8 -5.9 5.8 -4.2 2.85 -3.9 2.15 -3.55 1.85 -3.6 2.25 -4.35 3.2 -4.8 4.35 -5.05 5.4 -5.15 5.5 M-8.9 2.6 L-9.3 2.45 Q-8.95 2.15 -7.4 1.6 L-5.55 1.0 -5.45 1.05 -5.5 1.15 -5.55 1.2 -5.85 1.25 -7.0 1.65 -7.9 1.85 -8.35 2.1 -8.75 2.4 -8.9 2.6" fill="#9b941b" fill-rule="evenodd" stroke="none"/>
      <path d="M-4.05 5.8 L-4.25 5.6 -4.55 5.5 -4.7 5.45 -4.35 4.7 -4.1 3.9 -3.7 3.35 -3.6 2.25 -3.55 1.85 -3.55 1.95 -3.7 3.45 -3.7 4.9 -3.95 5.9 -4.05 5.8 M-8.3 3.95 L-8.35 3.95 -8.25 3.55 Q-8.25 3.15 -8.5 2.9 L-8.6 2.8 -8.35 2.45 -8.0 2.15 -7.4 1.85 -6.2 1.6 -5.9 1.65 -5.55 1.2 -5.5 1.15 -6.35 2.25 Q-6.75 3.0 -8.3 3.95" fill="#e7de2a" fill-rule="evenodd" stroke="none"/>
      <path d="M-8.5 6.65 L-8.8 6.0 -8.8 5.95 -8.85 5.8 -8.35 6.15 -7.4 6.2 -6.5 5.6 Q-6.3 5.25 -6.4 4.9 L-6.55 4.6 Q-5.7 4.2 -5.05 3.25 L-3.55 1.25 -4.25 2.45 -5.5 4.45 -6.05 5.45 -7.05 6.4 -8.5 6.65" fill="#8e9d1b" fill-rule="evenodd" stroke="none"/>
      <path d="M-4.55 5.5 L-5.15 5.5 -5.05 5.4 -4.8 4.35 -4.35 3.2 -3.6 2.25 -3.7 3.35 -4.1 3.9 -4.35 4.7 -4.7 5.45 -4.55 5.5 M-8.6 2.8 L-8.9 2.6 -8.75 2.4 -8.35 2.1 -7.9 1.85 -7.0 1.65 -5.85 1.25 -5.55 1.2 -5.9 1.65 -6.2 1.6 -7.4 1.85 -8.0 2.15 -8.35 2.45 -8.6 2.8" fill="#c1b922" fill-rule="evenodd" stroke="none"/>
      <path d="M-12.15 2.2 L-12.25 1.35 -12.2 1.4 -11.3 1.75 -10.05 1.75 -9.55 1.4 -9.55 0.85 -9.35 1.15 -8.5 1.2 -3.85 -0.5 Q-5.05 0.4 -5.7 0.6 L-9.2 1.9 -11.25 2.35 -11.3 2.35 -11.7 2.3 -12.15 2.2" fill="#a8ba21" fill-rule="evenodd" stroke="none"/>
    </g>
    <linearGradient gradientTransform="matrix(0.0013, 0.0023, 0.0023, -0.0013, 2.55, -0.75)" gradientUnits="userSpaceOnUse" id="gradient13" spreadMethod="pad" x1="-819.2" x2="819.2">
      <stop offset="0.0" stop-color="#bacf25"/>
      <stop offset="1.0" stop-color="#849219"/>
    </linearGradient>
    <g id="shape13" transform="matrix(1.0, 0.0, 0.0, 1.0, 1.5, 2.0)">
      <path d="M-1.25 -0.3 Q-0.6 -1.8 1.95 -2.0 2.95 -2.1 5.0 -0.3 L8.9 2.95 12.6 5.15 14.3 6.1 14.65 6.25 15.15 6.55 15.75 6.85 15.8 6.9 16.15 7.85 16.05 8.05 13.7 7.55 12.5 7.35 12.3 7.3 9.95 7.05 9.6 7.0 6.65 6.2 2.75 4.3 Q0.45 3.05 -0.3 2.35 L-1.2 1.1 -1.25 -0.3 M-0.1 3.7 Q-1.1 2.95 -1.35 1.95 L-1.3 2.0 Q-0.9 3.05 -0.1 3.7" fill="url(#gradient14)" fill-rule="evenodd" stroke="none"/>
      <path d="M-1.25 -0.3 L-1.2 1.1 -0.3 2.35 Q0.45 3.05 2.75 4.3 L6.65 6.2 9.6 7.0 9.95 7.05 12.3 7.3 12.5 7.35 13.7 7.55 16.05 8.05 16.0 8.25 15.1 9.05 13.35 9.4 12.65 9.1 11.75 8.75 11.2 8.55 10.0 8.25 Q8.1 7.65 5.3 6.45 1.6 4.8 0.15 3.85 L-0.1 3.7 Q-0.9 3.05 -1.3 2.0 L-1.35 1.95 -1.35 1.9 -1.4 1.55 -1.45 1.2 -1.5 0.95 -1.5 0.9 -1.5 0.55 -1.45 0.35 -1.45 0.25 -1.35 0.0 -1.3 -0.1 -1.25 -0.3" fill="#849219" fill-rule="evenodd" stroke="none"/>
    </g>
    <linearGradient gradientTransform="matrix(-0.001, 0.0025, -0.0025, -0.001, 14.2, 6.65)" gradientUnits="userSpaceOnUse" id="gradient14" spreadMethod="pad" x1="-819.2" x2="819.2">
      <stop offset="0.0" stop-color="#bacf25"/>
      <stop offset="1.0" stop-color="#849219"/>
    </linearGradient>
    <g id="shape14" transform="matrix(1.0, 0.0, 0.0, 1.0, 1.0, 1.3)">
      <path d="M4.1 -0.65 L4.8 -0.15 5.95 0.45 9.45 1.75 11.5 2.2 11.55 2.2 12.0 2.15 12.4 2.05 11.9 2.4 11.55 2.4 9.5 2.3 Q9.25 2.0 7.65 1.45 L5.8 0.85 5.75 0.9 5.75 1.05 5.05 0.35 4.1 -0.65 M-0.8 -0.4 L-0.65 -0.4 0.4 -0.2 2.85 0.3 2.9 0.3 1.75 1.35 Q1.05 1.95 2.15 1.75 L2.2 2.05 2.25 3.75 Q2.1 4.55 2.65 4.55 L2.1 4.85 Q1.55 5.45 2.25 6.35 2.8 7.0 3.9 6.35 L3.65 6.65 2.8 7.0 1.85 6.85 Q0.9 6.15 1.3 5.5 1.85 4.6 1.75 3.8 L1.55 2.85 Q1.55 2.55 0.6 2.0 L0.2 1.75 0.15 1.75 -0.55 1.2 -0.9 0.65 -1.0 0.05 -0.8 -0.4 M3.8 1.8 L3.25 0.2 3.2 0.1 3.15 -0.05 3.45 0.45 3.7 0.85 4.5 2.3 5.75 4.3 6.3 5.3 7.3 6.25 8.7 6.5 8.25 6.8 8.1 6.85 7.9 6.85 7.8 6.85 Q7.35 6.85 6.9 6.45 L6.2 5.7 6.15 5.65 5.6 5.4 5.6 5.35 6.15 5.65 5.3 4.25 4.45 2.7 4.15 2.0 3.8 1.7 3.8 1.8" fill="#849219" fill-rule="evenodd" stroke="none"/>
      <path d="M12.4 2.05 L12.0 2.15 11.55 2.2 11.5 2.2 9.45 1.75 5.95 0.45 4.8 -0.15 4.1 -0.65 8.7 1.05 Q9.65 1.35 9.8 0.7 L9.8 1.25 10.3 1.6 11.55 1.6 12.5 1.25 12.4 2.05" fill="#a8ba21" fill-rule="evenodd" stroke="none"/>
      <path d="M4.1 -0.65 L5.05 0.35 5.75 1.05 6.6 2.1 Q6.9 2.8 8.6 3.8 L8.85 4.5 9.1 5.65 8.6 6.0 7.65 6.05 6.75 5.45 Q6.5 5.1 6.65 4.75 L6.8 4.45 5.3 3.1 3.7 0.85 3.45 0.45 3.15 -0.05 3.2 0.1 3.25 0.2 3.8 1.8 3.8 2.1 3.9 2.65 3.95 3.3 3.95 4.75 4.2 5.75 4.4 5.6 4.1 6.05 3.65 6.65 3.9 6.35 Q2.8 7.0 2.25 6.35 1.55 5.45 2.1 4.85 L2.65 4.55 Q2.1 4.55 2.25 3.75 L2.2 2.05 2.15 1.75 Q1.05 1.95 1.75 1.35 L2.9 0.3 2.85 0.3 0.4 -0.2 -0.65 -0.4 -0.8 -0.4 -0.75 -0.5 -0.35 -0.75 1.85 -1.2 1.7 -1.3 2.0 -1.15 3.55 -0.9 7.0 -0.6 4.8 -0.85 Q4.5 -0.55 5.0 -0.45 L8.95 0.35 Q9.45 0.35 8.8 -0.1 L8.5 -0.2 10.1 0.25 10.35 0.75 11.35 1.1 12.2 0.85 12.25 0.65 11.0 0.35 Q12.4 0.4 12.45 0.85 L12.5 1.25 11.55 1.6 10.3 1.6 9.8 1.25 9.8 0.7 Q9.65 1.35 8.7 1.05 L4.1 -0.65 M9.1 5.85 Q8.9 6.65 8.25 6.8 L8.7 6.5 9.1 5.85" fill="url(#gradient15)" fill-rule="evenodd" stroke="none"/>
      <path d="M8.5 -0.2 L8.8 -0.1 Q9.45 0.35 8.95 0.35 L5.0 -0.45 Q4.5 -0.55 4.8 -0.85 L7.0 -0.6 8.5 -0.2 M10.1 0.25 L10.25 0.3 11.0 0.35 12.25 0.65 12.2 0.85 11.35 1.1 10.35 0.75 10.1 0.25" fill="#cee335" fill-rule="evenodd" stroke="none"/>
      <path d="M5.75 1.05 L5.75 0.9 5.8 1.05 6.15 1.5 6.45 1.45 7.65 1.7 8.25 2.0 8.6 2.3 8.85 2.65 Q8.5 2.95 8.5 3.4 L8.6 3.8 Q6.9 2.8 6.6 2.1 L5.75 1.05 M4.4 5.6 L4.2 5.75 3.95 4.75 3.95 3.3 3.9 2.65 3.95 3.2 4.35 3.75 4.6 4.55 4.95 5.3 4.8 5.35 4.5 5.45 4.4 5.6" fill="#e7de2a" fill-rule="evenodd" stroke="none"/>
      <path d="M3.9 2.65 L3.8 2.1 4.0 2.3 4.4 2.8 4.55 3.05 5.05 4.2 5.3 5.25 5.35 5.3 5.3 5.3 4.95 5.3 4.6 4.55 4.35 3.75 3.95 3.2 3.9 2.65 M8.85 2.65 L8.6 2.3 8.25 2.0 7.65 1.7 6.45 1.45 6.15 1.5 5.8 1.05 6.1 1.1 7.25 1.5 8.15 1.7 8.6 1.95 9.0 2.25 9.15 2.45 8.85 2.65" fill="#c1b922" fill-rule="evenodd" stroke="none"/>
      <path d="M5.75 0.9 L5.8 0.85 7.65 1.45 Q9.25 2.0 9.5 2.3 L9.15 2.45 9.0 2.25 8.6 1.95 8.15 1.7 7.25 1.5 6.1 1.1 5.8 1.05 5.75 0.9 M3.8 2.1 L3.8 1.8 3.8 1.7 4.15 2.0 4.45 2.7 5.3 4.25 6.15 5.65 5.6 5.35 5.55 5.35 5.35 5.3 5.3 5.25 5.05 4.2 4.55 3.05 4.4 2.8 4.0 2.3 3.8 2.1" fill="#9b941b" fill-rule="evenodd" stroke="none"/>
      <path d="M3.7 0.85 L5.3 3.1 6.8 4.45 6.65 4.75 Q6.5 5.1 6.75 5.45 L7.65 6.05 8.6 6.0 9.1 5.65 9.1 5.85 8.7 6.5 7.3 6.25 6.3 5.3 5.75 4.3 4.5 2.3 3.7 0.85 M5.6 5.4 L4.8 5.35 4.95 5.3 5.3 5.3 5.35 5.3 5.55 5.35 5.6 5.35 5.6 5.4" fill="#8e9d1b" fill-rule="evenodd" stroke="none"/>
    </g>
    <linearGradient gradientTransform="matrix(-0.001, 0.0025, -0.0025, -0.001, 0.9, -1.1)" gradientUnits="userSpaceOnUse" id="gradient15" spreadMethod="pad" x1="-819.2" x2="819.2">
      <stop offset="0.0" stop-color="#bacf25"/>
      <stop offset="1.0" stop-color="#849219"/>
    </linearGradient>
    <g id="shape15" transform="matrix(1.0, 0.0, 0.0, 1.0, 18.75, 6.2)">
      <path d="M18.35 -2.2 L15.6 -1.9 Q9.3 -2.3 6.65 -1.8 L-1.75 -1.4 Q-3.7 -1.5 -8.25 -2.6 L-14.05 -3.95 -16.25 -4.5 -18.6 -5.5 -18.2 -6.2 7.85 -5.9 12.4 -5.05 13.7 -4.7 18.35 -2.2" fill="#5c5c44" fill-rule="evenodd" stroke="none"/>
      <path d="M2.85 1.95 L7.85 0.55 11.35 -0.5 Q12.75 -1.15 12.2 -1.3 10.1 -1.9 6.65 -1.2 L-2.25 -0.9 -7.2 -2.1 -12.6 -3.35 Q-14.55 -3.6 -16.25 -4.5 L-14.05 -3.95 -8.25 -2.6 Q-3.7 -1.5 -1.75 -1.4 L6.65 -1.8 Q9.3 -2.3 15.6 -1.9 L18.35 -2.2 18.45 -2.05 Q19.5 -0.25 16.65 0.25 L14.75 0.4 11.1 0.45 8.75 0.7 8.35 0.8 7.05 1.05 4.15 1.7 2.45 2.05 2.85 1.95" fill="#c0bf8c" fill-rule="evenodd" stroke="none"/>
      <path d="M-16.25 -4.5 Q-14.55 -3.6 -12.6 -3.35 L-7.2 -2.1 -2.25 -0.9 6.65 -1.2 Q10.1 -1.9 12.2 -1.3 12.75 -1.15 11.35 -0.5 L7.85 0.55 2.85 1.95 -1.4 2.5 Q-3.25 2.45 -7.5 0.75 L-9.9 -0.2 -10.15 -0.3 -10.8 -0.5 -10.95 -0.55 -13.55 -1.5 -14.5 -1.7 Q-16.15 -2.05 -16.95 -2.5 -17.95 -3.0 -18.5 -3.95 -18.95 -4.65 -18.6 -5.5 L-16.25 -4.5 M-17.25 -4.6 Q-17.9 -4.95 -18.2 -4.6 -18.45 -4.35 -17.85 -3.65 -17.3 -2.85 -16.6 -2.85 -16.0 -2.85 -16.1 -3.15 L-16.5 -3.85 -17.25 -4.6 M-8.45 -1.1 Q-8.5 -0.5 -7.85 0.0 -7.2 0.55 -5.15 1.25 L-2.35 1.95 Q-1.7 1.95 -1.5 1.5 -1.35 1.15 -1.6 0.55 L-2.25 -0.25 -3.6 -0.8 -5.7 -1.3 -7.85 -1.65 Q-8.45 -1.65 -8.45 -1.1" fill="#d9d89e" fill-rule="evenodd" stroke="none"/>
      <path d="M-17.25 -4.6 L-16.5 -3.85 -16.1 -3.15 Q-16.0 -2.85 -16.6 -2.85 -17.3 -2.85 -17.85 -3.65 -18.45 -4.35 -18.2 -4.6 -17.9 -4.95 -17.25 -4.6 M-8.45 -1.1 Q-8.45 -1.65 -7.85 -1.65 L-5.7 -1.3 -3.6 -0.8 -2.25 -0.25 -1.6 0.55 Q-1.35 1.15 -1.5 1.5 -1.7 1.95 -2.35 1.95 L-5.15 1.25 Q-7.2 0.55 -7.85 0.0 -8.5 -0.5 -8.45 -1.1" fill="#f5f4b2" fill-rule="evenodd" stroke="none"/>
      <path d="M4.15 1.7 L7.05 1.05 8.35 0.8 8.75 0.7 11.1 0.45 14.75 0.4 13.85 0.75 10.7 1.75 7.2 3.0 3.05 5.05 Q0.5 6.3 -0.95 6.2 -2.0 6.15 -3.2 5.5 L-3.45 5.35 -3.65 5.25 -6.0 3.7 -5.75 3.75 Q-3.15 4.65 -1.3 4.65 0.45 4.65 2.7 3.75 4.95 2.9 4.75 2.15 4.65 1.8 4.15 1.7 M-14.5 -1.7 L-13.55 -1.5 -10.95 -0.55 -13.25 -0.75 -14.25 -1.5 -14.5 -1.7" fill="#94936e" fill-rule="evenodd" stroke="none"/>
      <path d="M2.85 1.95 L2.45 2.05 4.15 1.7 Q4.65 1.8 4.75 2.15 4.95 2.9 2.7 3.75 0.45 4.65 -1.3 4.65 -3.15 4.65 -5.75 3.75 L-6.0 3.7 -3.65 5.25 -3.45 5.35 -4.1 5.0 Q-6.6 3.3 -6.85 3.2 L-13.05 -0.6 -13.25 -0.75 -10.95 -0.55 -10.8 -0.5 -10.15 -0.3 -9.9 -0.2 -7.5 0.75 Q-3.25 2.45 -1.4 2.5 L2.85 1.95" fill="#c2c18e" fill-rule="evenodd" stroke="none"/>
    </g>
    <g id="shape16" transform="matrix(1.0, 0.0, 0.0, 1.0, 18.8, 7.05)">
      <path d="M0.45 -3.6 L0.5 -3.55 Q1.1 -3.45 0.8 -3.05 L0.2 -2.9 -0.15 -3.2 0.15 -3.45 Q0.4 -3.55 0.45 -3.6 M0.35 -5.0 L0.7 -4.7 0.35 -4.5 0.05 -4.55 -0.15 -4.7 0.35 -4.95 0.35 -5.0 M3.55 -4.1 L3.8 -4.1 4.1 -4.0 4.1 -3.8 3.5 -3.75 Q3.05 -3.75 3.05 -3.95 L3.55 -4.1 M2.8 -4.85 Q3.05 -4.75 2.8 -4.5 L2.35 -4.5 2.15 -4.75 2.35 -5.0 2.8 -4.85 M-4.15 -1.95 L-3.9 -1.9 -3.4 -1.7 Q-3.3 -1.2 -3.75 -0.95 L-4.2 -0.85 -4.55 -1.1 -4.6 -1.45 -4.35 -1.7 -4.15 -1.95 M-4.15 -3.35 Q-4.3 -3.35 -4.65 -3.6 -4.85 -3.7 -4.65 -3.85 L-4.2 -4.1 -4.15 -4.2 -3.6 -4.0 Q-3.45 -3.7 -3.8 -3.5 -3.9 -3.4 -4.15 -3.35 M-3.9 -4.6 L-4.3 -4.5 -4.0 -4.75 -3.65 -4.9 Q-3.6 -4.75 -3.9 -4.6 M-0.75 -4.0 Q-0.75 -3.75 -0.95 -3.7 -1.3 -3.7 -1.35 -3.9 L-1.25 -4.25 -0.95 -4.25 -0.75 -4.0 M-2.4 -3.3 L-1.9 -3.7 -1.8 -3.75 -1.4 -3.45 -1.25 -3.0 -1.7 -2.6 Q-2.45 -2.6 -2.5 -3.05 L-2.4 -3.3 M-2.2 -5.2 L-1.85 -5.1 Q-1.8 -4.75 -2.2 -4.65 L-3.2 -4.5 Q-3.45 -4.65 -3.3 -4.75 L-2.95 -4.95 -2.2 -5.2 M-6.7 -1.05 L-7.1 -1.0 -7.4 -1.25 Q-7.4 -1.6 -6.9 -1.5 L-6.65 -1.5 -6.7 -1.05 M-5.4 -3.1 L-5.15 -3.1 -4.8 -2.8 Q-4.8 -2.4 -5.3 -2.25 L-6.15 -2.3 -6.05 -2.6 -5.6 -2.9 -5.4 -3.1 M-6.5 -3.35 L-5.8 -3.7 -4.95 -4.05 Q-5.75 -3.25 -6.5 -3.35" fill="#cade1d" fill-rule="evenodd" stroke="none"/>
      <path d="M2.8 -4.85 L2.35 -5.0 2.15 -4.75 2.35 -4.5 2.8 -4.5 Q3.05 -4.75 2.8 -4.85 M3.55 -4.1 L3.05 -3.95 Q3.05 -3.75 3.5 -3.75 L4.1 -3.8 4.1 -4.0 3.8 -4.1 3.55 -4.1 M0.35 -5.0 L0.35 -4.95 -0.15 -4.7 0.05 -4.55 0.35 -4.5 0.7 -4.7 0.35 -5.0 M0.45 -3.6 Q0.4 -3.55 0.15 -3.45 L-0.15 -3.2 0.2 -2.9 0.8 -3.05 Q1.1 -3.45 0.5 -3.55 L0.45 -3.6 M0.45 -2.65 L0.0 -2.65 0.2 -2.5 0.75 -2.5 Q1.2 -2.65 0.9 -3.0 0.95 -2.65 0.45 -2.65 M4.15 -1.65 L3.6 -1.5 3.3 -1.25 Q3.3 -1.15 3.6 -1.0 L4.2 -1.15 4.35 -1.6 4.15 -1.65 M4.9 -1.3 Q4.95 -0.8 4.3 -0.6 L3.55 -0.6 4.8 -0.25 Q5.35 -0.45 5.4 -0.7 L5.25 -1.05 4.95 -1.3 4.9 -1.3 M6.35 -3.0 Q6.05 -2.95 6.2 -2.7 L6.5 -2.3 Q7.2 -1.85 7.5 -1.85 7.75 -1.85 7.75 -2.4 L7.3 -2.65 6.95 -2.9 6.35 -3.0 M6.6 -1.6 L6.35 -1.5 Q6.25 -1.25 6.5 -1.15 L6.95 -1.1 7.1 -1.3 7.05 -1.5 6.85 -1.55 6.6 -1.6 M7.55 -0.75 L7.7 -0.75 7.8 -0.95 Q7.75 -1.1 7.55 -1.05 L7.45 -1.1 7.35 -0.8 7.55 -0.75 M8.35 -2.8 Q8.5 -1.05 9.35 -0.2 9.8 0.25 10.2 0.35 L10.4 -2.4 10.9 -4.6 12.2 -5.6 Q14.05 -7.05 14.9 -5.8 15.35 -5.1 15.7 -2.9 L15.9 -1.55 15.7 -2.7 15.3 -3.5 15.4 -4.1 Q14.7 -5.05 13.8 -4.8 13.0 -4.65 12.25 -3.6 11.35 -2.4 11.4 -1.15 L11.5 1.2 Q11.6 2.15 12.0 2.2 L14.55 2.75 17.05 3.25 17.15 3.25 16.95 2.9 17.25 3.35 14.2 3.25 12.1 2.7 12.05 2.65 Q11.35 2.4 11.05 2.15 L10.55 1.75 10.6 1.85 10.0 1.5 10.05 1.65 Q10.4 2.45 9.9 2.9 L9.4 3.05 8.85 3.05 9.5 3.25 9.8 3.25 10.05 3.3 Q10.55 3.25 10.65 2.55 L10.7 2.2 10.75 2.1 10.95 2.5 Q11.5 3.35 12.3 3.7 L13.6 4.6 Q14.0 5.2 12.9 5.35 L10.6 5.15 7.9 4.9 4.4 5.25 0.25 5.4 -4.8 4.65 -8.15 3.75 -11.9 3.1 -13.45 3.05 -18.8 2.5 -18.75 2.4 -17.45 1.45 Q-17.6 1.95 -16.0 2.2 L-13.5 2.25 Q-12.65 2.1 -11.9 0.65 -11.1 -0.85 -11.2 -2.2 -11.35 -3.4 -12.0 -4.45 -12.6 -5.4 -13.2 -5.6 -13.65 -5.75 -13.75 -4.8 L-13.7 -3.85 -14.2 -3.1 -14.3 -2.75 -14.1 -4.05 Q-14.0 -5.5 -14.45 -5.65 L-13.9 -6.25 -13.0 -7.0 -11.85 -6.85 Q-10.45 -4.75 -10.35 -2.8 L-10.2 -0.05 Q-9.75 -0.1 -9.3 -0.55 -8.4 -1.45 -8.3 -3.3 L-8.1 -3.1 Q-5.95 -3.9 -4.45 -4.8 -1.9 -6.25 1.45 -5.65 3.6 -5.3 7.65 -3.1 L8.35 -2.8 M8.8 -0.1 L8.2 -0.05 7.75 0.3 8.15 0.25 8.95 0.25 9.0 -0.05 8.8 -0.1 M-7.5 5.55 L-13.4 4.45 -15.95 4.0 -11.6 4.7 -7.5 5.55 M11.55 4.6 Q11.2 4.6 11.2 4.9 L11.5 5.1 11.8 4.9 11.65 4.55 11.55 4.6 M10.2 3.7 Q10.1 4.05 10.55 4.2 L11.2 4.15 Q11.45 4.05 11.35 3.55 L11.05 3.45 10.85 3.45 10.2 3.7 M9.35 1.1 L9.35 0.65 9.1 0.45 8.7 0.5 Q8.5 0.5 8.45 0.75 8.35 1.25 8.9 1.25 L9.35 1.1 M7.0 1.75 Q6.8 1.7 6.7 1.85 L6.65 2.1 7.2 2.45 Q7.6 2.55 7.7 2.15 7.75 1.75 7.3 1.75 L7.0 1.75 M6.05 4.65 L8.8 4.6 10.15 4.75 9.8 4.25 9.3 4.0 Q9.3 4.4 8.8 4.3 7.9 4.2 7.95 3.8 L7.7 3.4 7.4 3.25 7.6 3.4 Q7.75 3.6 7.35 3.9 L6.05 4.65 M2.9 0.6 Q2.9 1.25 2.2 1.15 L0.95 1.0 2.05 1.4 Q2.35 1.8 1.75 2.0 L1.1 2.05 1.3 2.25 1.75 2.55 Q2.5 2.9 2.6 2.3 L2.6 1.95 3.2 1.65 3.35 1.15 Q3.3 0.75 2.9 0.6 M2.3 0.55 Q2.65 0.55 2.45 0.35 L2.05 0.25 1.85 0.25 1.35 0.4 0.95 0.7 1.6 0.55 2.3 0.55 M0.5 1.25 Q0.25 1.4 0.45 1.6 0.6 1.8 0.9 1.8 L1.2 1.75 1.55 1.45 1.15 1.25 0.5 1.25 M0.95 4.4 L-0.2 4.15 Q-0.85 4.0 -0.85 3.55 L-0.9 3.85 -1.15 4.25 Q-1.5 4.55 -2.3 4.65 L-4.05 4.6 -4.5 4.5 -3.35 4.75 -1.65 4.8 Q-1.3 4.8 -0.65 4.45 L0.15 4.45 0.95 4.4 M4.8 3.65 L3.95 4.3 3.45 4.8 Q3.1 5.15 2.5 5.1 L4.1 5.0 4.6 4.4 4.8 3.65 M-6.5 -3.35 Q-5.75 -3.25 -4.95 -4.05 L-5.8 -3.7 -6.5 -3.35 M-5.4 -3.1 L-5.6 -2.9 -6.05 -2.6 -6.15 -2.3 -5.3 -2.25 Q-4.8 -2.4 -4.8 -2.8 L-5.15 -3.1 -5.4 -3.1 M-6.7 -1.05 L-6.65 -1.5 -6.9 -1.5 Q-7.4 -1.6 -7.4 -1.25 L-7.1 -1.0 -6.7 -1.05 M-2.2 -5.2 L-2.95 -4.95 -3.3 -4.75 Q-3.45 -4.65 -3.2 -4.5 L-2.2 -4.65 Q-1.8 -4.75 -1.85 -5.1 L-2.2 -5.2 M-2.4 -3.3 L-2.5 -3.05 Q-2.45 -2.6 -1.7 -2.6 L-1.25 -3.0 -1.4 -3.45 -1.8 -3.75 -1.9 -3.7 -2.4 -3.3 M-0.75 -4.0 L-0.95 -4.25 -1.25 -4.25 -1.35 -3.9 Q-1.3 -3.7 -0.95 -3.7 -0.75 -3.75 -0.75 -4.0 M-3.9 -4.6 Q-3.6 -4.75 -3.65 -4.9 L-4.0 -4.75 -4.3 -4.5 -3.9 -4.6 M-4.15 -3.35 Q-3.9 -3.4 -3.8 -3.5 -3.45 -3.7 -3.6 -4.0 L-4.15 -4.2 -4.2 -4.1 -4.65 -3.85 Q-4.85 -3.7 -4.65 -3.6 -4.3 -3.35 -4.15 -3.35 M-4.15 -1.95 L-4.35 -1.7 -4.6 -1.45 -4.55 -1.1 -4.2 -0.85 -3.75 -0.95 Q-3.3 -1.2 -3.4 -1.7 L-3.9 -1.9 -4.15 -1.95 M-4.25 -0.1 L-3.45 0.0 Q-2.7 -0.15 -3.1 -0.9 -3.45 -0.4 -3.95 -0.4 L-4.45 -0.4 -4.25 -0.1 M-0.65 -0.2 L-0.05 -0.4 0.1 -0.75 -0.45 -0.8 Q-1.05 -0.8 -1.05 -0.45 L-0.65 -0.2 M-5.15 -0.15 L-5.45 0.05 -5.5 0.3 -4.95 0.55 Q-4.35 0.55 -4.5 0.15 L-4.7 0.0 -4.9 -0.1 -5.15 -0.15 M-4.95 0.95 L-5.2 0.8 -5.45 0.7 -5.2 0.95 -5.0 1.15 -5.1 1.15 -5.3 1.5 -5.65 1.7 -6.75 1.75 -5.55 2.0 Q-5.15 1.95 -4.95 1.3 -4.2 1.3 -4.25 0.95 L-4.95 0.95 M-5.85 1.25 L-5.75 1.0 -5.9 0.9 -6.45 1.1 Q-6.85 1.35 -6.55 1.45 L-6.0 1.35 -5.85 1.25 M-7.8 1.05 Q-8.15 1.55 -8.4 1.55 L-8.9 1.5 -9.3 1.7 -9.75 2.05 -10.3 2.05 -10.2 2.2 -9.65 2.3 -8.85 2.05 -8.7 1.75 -8.15 1.8 -7.85 1.3 -7.8 1.05 M-7.8 3.1 L-8.05 3.4 -8.4 3.5 -9.65 3.25 -7.8 3.65 -7.2 3.7 -6.7 3.8 -6.3 3.8 Q-6.05 3.65 -6.3 3.2 -6.7 3.6 -7.0 3.55 L-7.25 3.45 -7.65 3.2 Q-7.75 3.1 -7.8 3.1 M-11.65 2.65 Q-11.2 2.35 -11.05 1.25 L-12.5 2.55 -12.75 2.7 -11.65 2.65" fill="url(#gradient16)" fill-rule="evenodd" stroke="none"/>
      <path d="M0.45 -2.65 Q0.95 -2.65 0.9 -3.0 1.2 -2.65 0.75 -2.5 L0.2 -2.5 0.0 -2.65 0.45 -2.65 M-4.25 -0.1 L-4.45 -0.4 -3.95 -0.4 Q-3.45 -0.4 -3.1 -0.9 -2.7 -0.15 -3.45 0.0 L-4.25 -0.1" fill="#a3b402" fill-rule="evenodd" stroke="none"/>
      <path d="M4.15 -1.65 L4.35 -1.6 4.2 -1.15 3.6 -1.0 Q3.3 -1.15 3.3 -1.25 L3.6 -1.5 4.15 -1.65 M0.5 1.25 L1.15 1.25 1.55 1.45 1.2 1.75 0.9 1.8 Q0.6 1.8 0.45 1.6 0.25 1.4 0.5 1.25 M2.3 0.55 L1.6 0.55 0.95 0.7 1.35 0.4 1.85 0.25 2.05 0.25 2.45 0.35 Q2.65 0.55 2.3 0.55" fill="#b8ca00" fill-rule="evenodd" stroke="none"/>
      <path d="M4.9 -1.3 L4.95 -1.3 5.25 -1.05 5.4 -0.7 Q5.35 -0.45 4.8 -0.25 L3.55 -0.6 4.3 -0.6 Q4.95 -0.8 4.9 -1.3 M2.9 0.6 Q3.3 0.75 3.35 1.15 L3.2 1.65 2.6 1.95 2.6 2.3 Q2.5 2.9 1.75 2.55 L1.3 2.25 1.1 2.05 1.75 2.0 Q2.35 1.8 2.05 1.4 L0.95 1.0 2.2 1.15 Q2.9 1.25 2.9 0.6" fill="#91a003" fill-rule="evenodd" stroke="none"/>
      <path d="M7.55 -0.75 L7.35 -0.8 7.45 -1.1 7.55 -1.05 Q7.75 -1.1 7.8 -0.95 L7.7 -0.75 7.55 -0.75 M6.6 -1.6 L6.85 -1.55 7.05 -1.5 7.1 -1.3 6.95 -1.1 6.5 -1.15 Q6.25 -1.25 6.35 -1.5 L6.6 -1.6 M6.35 -3.0 L6.95 -2.9 7.3 -2.65 7.75 -2.4 Q7.75 -1.85 7.5 -1.85 7.2 -1.85 6.5 -2.3 L6.2 -2.7 Q6.05 -2.95 6.35 -3.0 M8.8 -0.1 L9.0 -0.05 8.95 0.25 8.15 0.25 7.75 0.3 8.2 -0.05 8.8 -0.1 M4.8 3.65 L4.6 4.4 4.1 5.0 2.5 5.1 Q3.1 5.15 3.45 4.8 L3.95 4.3 4.8 3.65 M0.95 4.4 L0.15 4.45 -0.65 4.45 Q-1.3 4.8 -1.65 4.8 L-3.35 4.75 -4.5 4.5 -4.05 4.6 -2.3 4.65 Q-1.5 4.55 -1.15 4.25 L-0.9 3.85 -0.85 3.55 Q-0.85 4.0 -0.2 4.15 L0.95 4.4 M-7.8 3.1 Q-7.75 3.1 -7.65 3.2 L-7.25 3.45 -7.0 3.55 Q-6.7 3.6 -6.3 3.2 -6.05 3.65 -6.3 3.8 L-6.7 3.8 -7.2 3.7 -7.8 3.65 -9.65 3.25 -8.4 3.5 -8.05 3.4 -7.8 3.1 M-7.8 1.05 L-7.85 1.3 -8.15 1.8 -8.7 1.75 -8.85 2.05 -9.65 2.3 -10.2 2.2 -10.3 2.05 -9.75 2.05 -9.3 1.7 -8.9 1.5 -8.4 1.55 Q-8.15 1.55 -7.8 1.05" fill="#879502" fill-rule="evenodd" stroke="none"/>
      <path d="M10.9 -4.6 L10.4 -2.4 10.2 0.35 Q9.8 0.25 9.35 -0.2 8.5 -1.05 8.35 -2.8 L8.35 -2.85 8.4 -2.8 10.9 -4.6" fill="#9eaf1e" fill-rule="evenodd" stroke="none"/>
      <path d="M-14.3 -2.75 L-14.2 -3.1 -13.7 -3.85 -13.75 -4.8 Q-13.65 -5.75 -13.2 -5.6 -12.6 -5.4 -12.0 -4.45 -11.35 -3.4 -11.2 -2.2 -11.1 -0.85 -11.9 0.65 -12.65 2.1 -13.5 2.25 L-16.0 2.2 Q-17.6 1.95 -17.45 1.45 L-15.6 0.1 Q-14.85 -0.6 -14.6 -1.55 L-14.3 -2.75 M16.95 2.9 L17.15 3.25 17.05 3.25 14.55 2.75 12.0 2.2 Q11.6 2.15 11.5 1.2 L11.4 -1.15 Q11.35 -2.4 12.25 -3.6 13.0 -4.65 13.8 -4.8 14.7 -5.05 15.4 -4.1 L15.3 -3.5 15.7 -2.7 15.9 -1.55 16.05 -0.1 Q16.3 1.8 16.95 2.85 L16.95 2.9" fill="#727e15" fill-rule="evenodd" stroke="none"/>
      <path d="M12.9 5.35 Q14.0 5.2 13.6 4.6 L12.3 3.7 Q11.5 3.35 10.95 2.5 L10.75 2.1 10.7 2.2 10.65 2.55 Q10.55 3.25 10.05 3.3 L9.8 3.25 9.5 3.25 8.85 3.05 9.4 3.05 9.9 2.9 Q10.4 2.45 10.05 1.65 L10.0 1.5 10.6 1.85 10.55 1.75 11.05 2.15 Q11.35 2.4 12.05 2.65 L12.1 2.7 13.6 3.5 Q15.35 4.35 16.2 4.4 17.8 4.5 17.8 5.15 17.8 5.55 16.85 5.55 L17.5 5.65 Q18.3 5.8 18.1 6.15 L18.0 6.3 16.9 6.2 13.7 5.75 5.4 6.45 4.9 6.55 Q9.7 5.35 11.7 5.4 L12.9 5.35 M6.05 4.65 L7.35 3.9 Q7.75 3.6 7.6 3.4 L7.4 3.25 7.7 3.4 7.95 3.8 Q7.9 4.2 8.8 4.3 9.3 4.4 9.3 4.0 L9.8 4.25 10.15 4.75 8.8 4.6 6.05 4.65" fill="#6a7400" fill-rule="evenodd" stroke="none"/>
      <path d="M12.1 2.7 L14.2 3.25 17.25 3.35 18.65 5.9 18.7 6.1 18.75 6.2 18.75 6.25 18.0 6.3 18.1 6.15 Q18.3 5.8 17.5 5.65 L16.85 5.55 Q17.8 5.55 17.8 5.15 17.8 4.5 16.2 4.4 15.35 4.35 13.6 3.5 L12.1 2.7" fill="#5f6800" fill-rule="evenodd" stroke="none"/>
      <path d="M11.55 4.6 L11.65 4.55 11.8 4.9 11.5 5.1 11.2 4.9 Q11.2 4.6 11.55 4.6" fill="#656f00" fill-rule="evenodd" stroke="none"/>
      <path d="M10.2 3.7 L10.85 3.45 11.05 3.45 11.35 3.55 Q11.45 4.05 11.2 4.15 L10.55 4.2 Q10.1 4.05 10.2 3.7 M7.0 1.75 L7.3 1.75 Q7.75 1.75 7.7 2.15 7.6 2.55 7.2 2.45 L6.65 2.1 6.7 1.85 Q6.8 1.7 7.0 1.75 M9.35 1.1 L8.9 1.25 Q8.35 1.25 8.45 0.75 8.5 0.5 8.7 0.5 L9.1 0.45 9.35 0.65 9.35 1.1" fill="#798400" fill-rule="evenodd" stroke="none"/>
      <path d="M-18.8 2.5 L-13.45 3.05 -8.5 4.25 -2.65 5.7 2.7 6.1 7.0 5.45 10.6 5.15 12.9 5.35 11.7 5.4 Q9.7 5.35 4.9 6.55 L-0.5 6.75 -4.2 6.35 -7.0 5.5 -10.85 4.4 -16.75 3.8 -16.85 3.8 -17.9 3.5 Q-18.35 3.35 -18.45 3.2 L-18.8 2.5" fill="#778416" fill-rule="evenodd" stroke="none"/>
      <path d="M18.75 6.2 L18.75 6.6 17.75 6.6 17.5 6.6 16.05 6.45 15.75 6.4 11.7 6.05 7.8 6.4 3.45 6.95 -1.45 6.9 Q-4.7 6.6 -6.7 5.8 L-7.5 5.55 -11.6 4.7 -15.95 4.0 -16.85 3.8 -16.75 3.8 -10.85 4.4 -7.0 5.5 -4.2 6.35 -0.5 6.75 4.9 6.55 5.4 6.45 13.7 5.75 16.9 6.2 18.0 6.3 18.75 6.25 18.75 6.2" fill="#58620f" fill-rule="evenodd" stroke="none"/>
      <path d="M-13.45 3.05 L-11.9 3.1 -8.15 3.75 -4.8 4.65 0.25 5.4 4.4 5.25 7.9 4.9 10.6 5.15 7.0 5.45 2.7 6.1 -2.65 5.7 -8.5 4.25 -13.45 3.05" fill="#bacd2c" fill-rule="evenodd" stroke="none"/>
      <path d="M-8.3 -3.3 Q-8.4 -1.45 -9.3 -0.55 -9.75 -0.1 -10.2 -0.05 L-10.35 -2.8 Q-10.45 -4.75 -11.85 -6.85 L-10.6 -5.75 -8.95 -3.95 -8.3 -3.35 -8.3 -3.3" fill="#b0c322" fill-rule="evenodd" stroke="none"/>
      <path d="M-5.15 -0.15 L-4.9 -0.1 -4.7 0.0 -4.5 0.15 Q-4.35 0.55 -4.95 0.55 L-5.5 0.3 -5.45 0.05 -5.15 -0.15 M-0.65 -0.2 L-1.05 -0.45 Q-1.05 -0.8 -0.45 -0.8 L0.1 -0.75 -0.05 -0.4 -0.65 -0.2 M-5.85 1.25 L-6.0 1.35 -6.55 1.45 Q-6.85 1.35 -6.45 1.1 L-5.9 0.9 -5.75 1.0 -5.85 1.25" fill="#c1d400" fill-rule="evenodd" stroke="none"/>
      <path d="M-4.95 0.95 L-4.25 0.95 Q-4.2 1.3 -4.95 1.3 -5.15 1.95 -5.55 2.0 L-6.75 1.75 -5.65 1.7 -5.3 1.5 -5.1 1.15 -5.0 1.15 -5.2 0.95 -5.45 0.7 -5.2 0.8 -4.95 0.95" fill="#98a702" fill-rule="evenodd" stroke="none"/>
      <path d="M-11.65 2.65 L-12.75 2.7 -12.5 2.55 -11.05 1.25 Q-11.2 2.35 -11.65 2.65" fill="#7f8e19" fill-rule="evenodd" stroke="none"/>
    </g>
    <radialGradient cx="0" cy="0" gradientTransform="matrix(0.0163, 0.0158, 0.0158, -0.0163, -2.75, -3.55)" gradientUnits="userSpaceOnUse" id="gradient16" r="819.2" spreadMethod="pad">
      <stop offset="0.0" stop-color="#bacf25"/>
      <stop offset="1.0" stop-color="#737f15"/>
    </radialGradient>
    <g id="shape17" transform="matrix(1.0, 0.0, 0.0, 1.0, 3.05, 3.9)">
      <path d="M0.45 -3.75 Q1.35 -4.05 1.85 -3.75 2.9 -3.0 3.0 -1.1 3.1 0.7 2.35 2.15 1.6 3.55 0.15 3.85 -1.2 4.15 -2.4 3.3 -3.45 2.55 -2.85 0.45 -2.3 -1.4 -1.0 -2.85 -0.4 -3.5 0.45 -3.75 M-1.25 2.5 L-0.35 -0.2 0.35 -3.0 Q-1.3 -2.45 -1.75 -0.25 -2.05 1.15 -1.25 2.5" fill="url(#gradient17)" fill-rule="evenodd" stroke="none"/>
      <path d="M-1.25 2.5 Q-2.05 1.15 -1.75 -0.25 -1.3 -2.45 0.35 -3.0 L-0.35 -0.2 -1.25 2.5" fill="url(#gradient18)" fill-rule="evenodd" stroke="none"/>
    </g>
    <radialGradient cx="0" cy="0" gradientTransform="matrix(0.0026, 0.0061, 0.0061, -0.0026, -0.7, -2.5)" gradientUnits="userSpaceOnUse" id="gradient17" r="819.2" spreadMethod="pad">
      <stop offset="0.0" stop-color="#ea6418"/>
      <stop offset="1.0" stop-color="#9d4311"/>
    </radialGradient>
    <radialGradient cx="0" cy="0" gradientTransform="matrix(0.0017, 0.0038, 0.0038, -0.0017, -1.0, -2.0)" gradientUnits="userSpaceOnUse" id="gradient18" r="819.2" spreadMethod="pad">
      <stop offset="0.03529411764705882" stop-color="#5e4630"/>
      <stop offset="1.0" stop-color="#261c11"/>
    </radialGradient>
    <g id="shape18" transform="matrix(1.0, 0.0, 0.0, 1.0, 2.7, 3.85)">
      <path d="M0.05 -3.2 L0.75 -0.4 1.65 2.3 Q2.45 0.95 2.15 -0.45 1.75 -2.65 0.05 -3.2 M2.6 0.0 Q2.85 1.9 2.6 3.8 1.35 3.2 0.45 3.1 L-2.25 2.5 Q-2.9 0.55 -2.65 -1.05 -2.45 -2.3 -1.75 -3.05 -1.05 -3.85 -0.05 -3.85 2.15 -3.85 2.6 0.0" fill="url(#gradient19)" fill-rule="evenodd" stroke="none"/>
      <path d="M0.05 -3.2 Q1.75 -2.65 2.15 -0.45 2.45 0.95 1.65 2.3 L0.75 -0.4 0.05 -3.2" fill="url(#gradient20)" fill-rule="evenodd" stroke="none"/>
    </g>
    <radialGradient cx="0" cy="0" gradientTransform="matrix(0.0029, 0.0042, 0.0042, -0.0029, -0.45, -1.85)" gradientUnits="userSpaceOnUse" id="gradient19" r="819.2" spreadMethod="pad">
      <stop offset="0.0" stop-color="#ea6418"/>
      <stop offset="1.0" stop-color="#9d4311"/>
    </radialGradient>
    <radialGradient cx="0" cy="0" gradientTransform="matrix(-0.0017, 0.0038, -0.0038, -0.0017, 1.35, -2.2)" gradientUnits="userSpaceOnUse" id="gradient20" r="819.2" spreadMethod="pad">
      <stop offset="0.03529411764705882" stop-color="#5e4630"/>
      <stop offset="1.0" stop-color="#261c11"/>
    </radialGradient>
    <g id="shape19" transform="matrix(1.0, 0.0, 0.0, 1.0, 8.9, 4.35)">
      <path d="M0.25 -0.9 L-0.15 -0.5 Q-0.7 -0.45 -1.25 -1.05 L-1.35 -1.35 -1.3 -1.55 -1.05 -1.95 Q-0.9 -2.0 -0.8 -2.1 L-0.8 -2.2 -1.25 -2.6 -1.45 -3.05 -1.45 -3.35 -1.55 -2.9 Q-1.7 -2.5 -2.5 -2.45 L-2.15 -2.65 Q-1.8 -2.95 -1.95 -3.55 L-2.3 -4.2 -2.15 -4.25 -1.6 -4.1 -0.85 -3.65 Q0.1 -3.1 0.2 -2.2 L0.25 -0.9 M-2.65 -2.4 L-2.6 -2.4 -2.4 -2.35 -2.65 -2.4" fill="url(#gradient21)" fill-rule="evenodd" stroke="none"/>
      <path d="M0.3 -0.7 L0.3 -0.65 -0.15 -0.5 0.25 -0.9 0.3 -1.15 0.3 -0.7 M-1.3 -1.55 L-1.35 -1.55 -1.3 -1.6 -1.05 -2.15 -1.3 -2.5 -1.8 -2.6 Q-1.95 -2.4 -2.2 -2.35 L-2.4 -2.35 -2.6 -2.4 -2.65 -2.4 -3.1 -2.45 Q-4.0 -2.3 -4.05 -1.75 L-3.8 -1.35 -3.55 -1.3 -3.65 -1.3 -3.7 -1.3 -4.15 -1.5 -4.4 -1.75 -3.55 -2.4 -2.55 -2.85 Q-2.2 -2.95 -2.5 -3.65 L-2.3 -3.3 -2.15 -2.65 -2.5 -2.45 Q-1.7 -2.5 -1.55 -2.9 L-1.45 -3.35 -1.45 -3.05 -1.25 -2.6 -0.8 -2.2 -0.8 -2.1 Q-0.9 -2.0 -1.05 -1.95 L-1.3 -1.55 M-2.45 -1.3 L-2.7 -1.0 Q-2.85 -0.85 -3.5 -0.65 L-4.95 -0.55 -5.3 -1.35 -4.75 -1.0 -3.2 -1.1 -3.15 -1.2 -2.75 -1.2 -2.65 -1.2 -2.45 -1.3 M-8.75 -0.75 L-8.85 -1.05 -8.55 -0.7 Q-8.15 -0.35 -7.5 -0.35 -6.9 -0.35 -6.8 -0.55 L-6.7 -0.75 -6.7 -0.5 -6.55 -0.1 -5.3 0.2 -3.75 0.2 -2.4 -0.05 -3.7 0.55 -4.2 0.55 -6.65 0.2 Q-7.45 0.2 -8.3 -0.3 L-8.75 -0.75 M-8.15 1.7 Q-7.4 2.3 -6.55 2.05 L-5.85 1.65 -4.8 1.8 -2.25 1.6 0.1 1.0 0.45 0.75 0.4 0.9 0.3 1.1 -0.35 1.55 -1.4 1.8 -5.55 2.2 -7.25 2.35 Q-7.7 2.25 -7.95 2.0 L-8.2 1.65 -8.15 1.7 M0.45 0.1 L0.45 0.45 -0.15 -0.1 -1.2 -0.2 -1.9 -0.05 -1.65 -0.2 -0.8 -0.4 Q0.0 -0.5 0.45 0.1 M-8.45 -1.6 L-8.4 -1.75 -8.05 -1.95 Q-7.6 -2.05 -7.15 -1.65 -6.75 -1.4 -7.35 -1.15 -7.3 -1.5 -7.65 -1.65 L-8.15 -1.7 -8.45 -1.6 M-7.45 0.7 L-6.8 0.75 -6.55 0.95 Q-6.2 1.25 -6.8 1.6 -6.7 1.2 -7.05 1.05 L-7.65 1.05 -7.95 1.2 -7.9 1.05 -7.45 0.7" fill="#6a7400" fill-rule="evenodd" stroke="none"/>
      <path d="M-0.15 -0.5 L0.3 -0.65 0.3 -0.7 Q0.6 0.0 0.45 0.75 L0.1 1.0 -2.25 1.6 -4.8 1.8 -5.85 1.65 -6.55 2.05 Q-7.4 2.3 -8.15 1.7 -8.35 1.25 -8.2 0.8 -8.05 0.45 -7.5 0.35 L-6.65 0.45 Q-5.9 1.0 -5.4 1.0 -4.2 1.0 -3.8 0.65 L-3.65 0.6 -3.7 0.55 -2.4 -0.05 -3.75 0.2 -5.3 0.2 -6.55 -0.1 -6.7 -0.5 -6.7 -0.75 -6.8 -0.55 Q-6.9 -0.35 -7.5 -0.35 -8.15 -0.35 -8.55 -0.7 L-8.85 -1.05 -8.75 -0.75 -8.9 -1.25 Q-8.95 -1.75 -8.6 -2.1 L-7.75 -2.2 Q-7.25 -2.1 -7.05 -1.8 L-6.6 -1.3 -6.05 -0.9 -4.95 -0.55 -3.5 -0.65 Q-2.85 -0.85 -2.7 -1.0 L-2.45 -1.3 -1.6 -1.55 -1.55 -1.55 -1.35 -1.55 -1.3 -1.55 -1.35 -1.35 -1.25 -1.05 Q-0.7 -0.45 -0.15 -0.5 M0.45 0.1 Q0.0 -0.5 -0.8 -0.4 L-1.65 -0.2 -1.9 -0.05 -1.2 -0.2 -0.15 -0.1 0.45 0.45 0.45 0.1 M-8.45 -1.6 L-8.15 -1.7 -7.65 -1.65 Q-7.3 -1.5 -7.35 -1.15 -6.75 -1.4 -7.15 -1.65 -7.6 -2.05 -8.05 -1.95 L-8.4 -1.75 -8.45 -1.6 M-5.3 -1.35 L-5.45 -2.1 -5.25 -2.8 -4.6 -3.75 Q-3.95 -4.25 -3.2 -4.25 L-2.85 -4.35 -2.45 -4.3 -2.3 -4.2 -1.95 -3.55 Q-1.8 -2.95 -2.15 -2.65 L-2.3 -3.3 -2.5 -3.65 Q-2.2 -2.95 -2.55 -2.85 L-3.55 -2.4 -4.4 -1.75 -4.15 -1.5 -3.7 -1.3 -3.65 -1.3 -3.15 -1.2 -3.2 -1.1 -4.75 -1.0 -5.3 -1.35 M-7.45 0.7 L-7.9 1.05 -7.95 1.2 -7.65 1.05 -7.05 1.05 Q-6.7 1.2 -6.8 1.6 -6.2 1.25 -6.55 0.95 L-6.8 0.75 -7.45 0.7" fill="url(#gradient22)" fill-rule="evenodd" stroke="none"/>
    </g>
    <linearGradient gradientTransform="matrix(2.0E-4, 0.0011, 0.0011, -2.0E-4, -1.2, -1.95)" gradientUnits="userSpaceOnUse" id="gradient21" spreadMethod="pad" x1="-819.2" x2="819.2">
      <stop offset="0.0" stop-color="#bacf25"/>
      <stop offset="1.0" stop-color="#849219"/>
    </linearGradient>
    <linearGradient gradientTransform="matrix(0.002, 0.0038, 0.0038, -0.002, -4.35, -0.3)" gradientUnits="userSpaceOnUse" id="gradient22" spreadMethod="pad" x1="-819.2" x2="819.2">
      <stop offset="0.0" stop-color="#bacf25"/>
      <stop offset="1.0" stop-color="#849219"/>
    </linearGradient>
    <g id="shape20" transform="matrix(1.0, 0.0, 0.0, 1.0, 0.5, 4.4)">
      <path d="M2.3 -4.2 L2.45 -4.3 3.2 -4.25 Q3.95 -4.25 4.6 -3.75 L5.25 -2.8 5.45 -2.1 5.3 -1.35 4.8 -1.0 3.2 -1.1 3.15 -1.2 3.65 -1.25 4.4 -1.75 3.55 -2.4 2.55 -2.85 Q2.35 -2.9 2.4 -3.3 L2.5 -3.65 2.3 -3.3 2.15 -2.65 Q1.8 -2.95 1.95 -3.55 L2.3 -4.2 M4.95 -0.55 Q5.55 -0.6 6.1 -0.9 L7.05 -1.8 Q7.25 -2.1 7.75 -2.2 L8.6 -2.1 Q8.95 -1.75 8.9 -1.25 L8.75 -0.75 8.85 -1.05 8.55 -0.7 Q8.15 -0.35 7.5 -0.35 6.95 -0.35 6.8 -0.55 L6.7 -0.75 Q6.8 -0.25 6.55 -0.1 L5.35 0.2 3.75 0.2 2.4 -0.05 3.7 0.55 3.65 0.6 3.8 0.65 Q4.2 1.0 5.4 1.0 5.9 1.0 6.65 0.45 L7.5 0.35 Q8.05 0.45 8.2 0.8 8.4 1.25 8.2 1.7 L7.35 2.35 8.2 1.65 Q7.4 2.3 6.55 2.05 L5.85 1.65 4.8 1.8 2.3 1.6 Q0.55 1.3 -0.05 1.0 L-0.4 0.75 Q-0.6 0.0 -0.3 -0.7 L-0.25 -0.65 0.2 -0.5 Q0.7 -0.5 1.25 -1.05 L1.35 -1.4 1.3 -1.55 1.35 -1.55 1.55 -1.55 1.65 -1.55 Q2.1 -1.6 2.45 -1.3 L2.7 -1.0 Q2.85 -0.85 3.5 -0.65 L4.95 -0.55 M0.15 -0.1 L1.2 -0.2 1.9 -0.05 Q1.65 -0.3 0.8 -0.4 0.0 -0.5 -0.45 0.1 L-0.45 0.45 Q-0.45 0.35 0.15 -0.1 M7.65 1.05 L7.95 1.2 7.45 0.7 6.8 0.75 6.55 0.95 Q6.2 1.25 6.8 1.6 L6.8 1.4 Q6.85 1.15 7.05 1.05 L7.65 1.05 M7.45 -1.85 L7.15 -1.65 Q6.8 -1.4 7.35 -1.15 L7.35 -1.35 7.65 -1.65 8.15 -1.7 8.45 -1.6 8.05 -1.95 7.45 -1.85" fill="url(#gradient23)" fill-rule="evenodd" stroke="none"/>
      <path d="M5.3 -1.35 L4.95 -0.55 3.5 -0.65 Q2.85 -0.85 2.7 -1.0 L2.45 -1.3 2.65 -1.2 3.15 -1.2 3.2 -1.1 4.8 -1.0 5.3 -1.35 M8.75 -0.75 L8.3 -0.3 Q7.45 0.2 6.65 0.2 L4.2 0.55 3.7 0.55 2.4 -0.05 3.75 0.2 5.35 0.2 6.55 -0.1 Q6.8 -0.25 6.7 -0.75 L6.8 -0.55 Q6.95 -0.35 7.5 -0.35 8.15 -0.35 8.55 -0.7 L8.85 -1.05 8.75 -0.75 M7.35 2.35 L7.25 2.35 6.25 2.35 5.55 2.2 3.5 2.05 1.4 1.8 0.35 1.55 -0.3 1.1 -0.35 0.9 -0.45 0.7 -0.4 0.75 -0.05 1.0 Q0.55 1.3 2.3 1.6 L4.8 1.8 5.85 1.65 6.55 2.05 Q7.4 2.3 8.2 1.65 L7.35 2.35 M-0.25 -0.65 L-0.25 -1.1 Q-0.2 -0.65 0.2 -0.5 L-0.25 -0.65 M2.15 -2.65 L2.3 -3.3 2.5 -3.65 2.4 -3.3 Q2.35 -2.9 2.55 -2.85 L3.55 -2.4 4.4 -1.75 3.65 -1.25 3.55 -1.3 3.85 -1.35 4.05 -1.75 Q4.0 -2.3 3.1 -2.45 L2.7 -2.4 2.65 -2.4 2.5 -2.35 2.45 -2.35 2.25 -2.35 Q1.95 -2.4 1.8 -2.6 L1.3 -2.5 1.05 -2.15 1.3 -1.6 1.35 -1.55 1.3 -1.55 1.05 -1.95 Q0.95 -2.0 0.8 -2.1 L0.8 -2.2 1.25 -2.6 Q1.5 -2.75 1.45 -3.35 L1.6 -2.9 Q1.7 -2.5 2.5 -2.45 L2.55 -2.45 2.35 -2.5 2.15 -2.65 M0.15 -0.1 Q-0.45 0.35 -0.45 0.45 L-0.45 0.1 Q0.0 -0.5 0.8 -0.4 1.65 -0.3 1.9 -0.05 L1.2 -0.2 0.15 -0.1 M7.45 -1.85 L8.05 -1.95 8.45 -1.6 8.15 -1.7 7.65 -1.65 7.35 -1.35 7.35 -1.15 Q6.8 -1.4 7.15 -1.65 L7.45 -1.85 M7.65 1.05 L7.05 1.05 Q6.85 1.15 6.8 1.4 L6.8 1.6 Q6.2 1.25 6.55 0.95 L6.8 0.75 7.45 0.7 7.95 1.2 7.65 1.05" fill="#6a7400" fill-rule="evenodd" stroke="none"/>
      <path d="M-0.25 -1.1 L-0.25 -1.15 -0.15 -2.2 Q-0.1 -3.1 0.85 -3.65 L1.6 -4.1 2.15 -4.25 2.3 -4.2 1.95 -3.55 Q1.8 -2.95 2.15 -2.65 L2.35 -2.5 2.55 -2.45 2.5 -2.45 Q1.7 -2.5 1.6 -2.9 L1.45 -3.35 Q1.5 -2.75 1.25 -2.6 L0.8 -2.2 0.8 -2.1 Q0.95 -2.0 1.05 -1.95 L1.3 -1.55 1.35 -1.4 1.25 -1.05 Q0.7 -0.5 0.2 -0.5 -0.2 -0.65 -0.25 -1.1 M2.5 -2.35 L2.65 -2.4 2.7 -2.4 2.5 -2.35" fill="url(#gradient24)" fill-rule="evenodd" stroke="none"/>
    </g>
    <linearGradient gradientTransform="matrix(-0.004, -0.0014, 0.0014, -0.004, 4.35, -0.3)" gradientUnits="userSpaceOnUse" id="gradient23" spreadMethod="pad" x1="-819.2" x2="819.2">
      <stop offset="0.0" stop-color="#bacf25"/>
      <stop offset="1.0" stop-color="#849219"/>
    </linearGradient>
    <linearGradient gradientTransform="matrix(-8.0E-4, -7.0E-4, 7.0E-4, -8.0E-4, 1.2, -1.95)" gradientUnits="userSpaceOnUse" id="gradient24" spreadMethod="pad" x1="-819.2" x2="819.2">
      <stop offset="0.0" stop-color="#bacf25"/>
      <stop offset="1.0" stop-color="#849219"/>
    </linearGradient>
    <g id="sprite1" transform="matrix(1.0, 0.0, 0.0, 1.0, 0.0, 0.0)">
      <use height="15.25" transform="matrix(1.0, 0.0, 0.0, 1.0, 0.0, 0.0)" width="45.0" xlink:href="#shape21"/>
    </g>
    <g id="shape21" transform="matrix(1.0, 0.0, 0.0, 1.0, 0.0, 0.0)">
      <path d="M16.05 7.0 L16.95 6.25 21.4 5.95 26.25 6.5 Q30.8 7.7 31.1 8.2 L31.6 10.3 Q32.0 12.3 32.3 12.9 32.65 13.65 34.75 13.8 L37.95 13.95 40.3 13.85 40.55 14.8 39.6 15.15 37.75 14.95 35.8 14.35 31.6 14.25 28.75 14.4 26.9 14.65 28.05 14.1 Q28.55 13.95 28.7 13.6 L29.05 12.75 Q29.3 12.2 28.9 10.65 28.55 9.1 28.1 8.7 27.7 8.25 26.25 7.9 L23.3 7.5 20.0 7.95 Q18.3 8.4 17.7 8.85 17.2 9.25 17.05 10.55 L17.05 12.5 Q17.1 13.45 18.7 14.25 L16.6 14.2 11.6 14.5 12.2 14.0 Q12.95 13.45 13.55 13.25 14.45 12.95 16.05 7.0" fill="#58620f" fill-rule="evenodd" stroke="none"/>
      <path d="M41.05 2.3 L43.3 2.65 43.55 8.05 42.95 12.9 Q39.25 14.3 37.2 14.3 35.3 14.3 32.85 13.6 L31.25 12.7 Q30.8 12.5 31.2 12.35 31.6 12.15 33.2 12.7 34.8 13.3 37.9 12.75 L41.25 11.85 Q41.95 11.45 41.7 4.75 L41.35 3.0 41.05 2.3" fill="#2f2c2a" fill-rule="evenodd" stroke="none"/>
      <path d="M41.05 2.3 L41.55 3.0 Q42.05 3.85 42.05 4.85 L42.2 8.85 Q42.2 11.75 41.25 12.2 39.55 13.0 37.65 13.3 35.0 13.75 33.5 12.95 32.0 12.2 31.3 8.95 30.7 6.45 30.9 5.5 31.15 3.05 31.5 2.65 31.85 2.3 35.1 2.0 L41.05 2.3" fill="url(#gradient25)" fill-rule="evenodd" stroke="none"/>
      <path d="M31.5 2.65 L33.1 2.25 Q34.85 3.8 37.45 5.2 L42.15 7.5 Q42.35 11.65 41.25 12.2 L40.6 12.45 37.2 10.5 Q35.85 9.6 34.05 7.45 L31.1 4.2 Q31.3 2.85 31.5 2.65" fill="url(#gradient26)" fill-rule="evenodd" stroke="none"/>
      <path d="M34.8 0.5 L41.65 0.7 43.55 1.0 Q44.35 1.3 44.65 1.75 45.0 2.2 45.0 2.9 45.0 3.6 44.6 4.35 43.85 5.95 44.0 8.4 L43.95 11.3 Q43.7 13.15 42.4 13.7 L38.7 14.8 34.35 14.95 Q30.85 14.45 29.85 13.55 L29.4 12.6 29.15 10.45 Q28.3 1.8 29.35 1.35 31.4 0.55 34.8 0.5 M31.95 5.95 Q31.8 8.45 32.0 9.7 32.25 12.05 33.5 12.95 35.35 14.35 40.7 13.05 42.8 12.5 42.6 10.4 L42.5 4.55 Q42.35 2.7 38.15 2.6 L33.3 2.95 Q32.6 3.1 32.35 3.8 32.05 4.45 31.95 5.95" fill="url(#gradient27)" fill-rule="evenodd" stroke="none"/>
      <path d="M32.7 1.4 L37.25 1.0 Q41.3 0.85 43.6 1.05 L43.9 1.15 Q40.85 1.0 37.55 1.15 L33.05 1.5 Q31.05 1.95 30.8 3.25 30.6 4.5 30.7 7.25 L30.95 11.05 Q31.15 13.6 33.05 14.45 30.85 13.65 30.65 10.95 30.15 5.05 30.5 3.1 30.7 1.8 32.7 1.4" fill="#817574" fill-rule="evenodd" stroke="none"/>
      <path d="M30.5 3.1 Q30.15 5.05 30.65 10.95 30.85 13.65 33.05 14.45 L34.8 14.75 39.15 14.45 Q41.6 14.0 43.1 13.25 L42.4 13.7 38.7 14.8 34.35 14.95 Q30.85 14.45 29.85 13.55 L29.4 12.6 29.15 10.45 Q28.3 1.8 29.35 1.35 31.4 0.55 34.8 0.5 L41.65 0.7 43.6 1.05 Q41.3 0.85 37.25 1.0 L32.7 1.4 Q30.7 1.8 30.5 3.1" fill="#514a4a" fill-rule="evenodd" stroke="none"/>
      <path d="M31.35 1.9 Q30.65 2.3 30.5 3.1 30.15 5.05 30.65 10.95 30.85 13.65 33.05 14.45 L34.8 14.75 39.15 14.45 Q41.6 14.0 43.1 13.25 L42.4 13.7 38.7 14.8 34.35 14.95 Q30.85 14.45 29.85 13.55 L29.4 12.6 29.15 10.45 Q28.35 2.85 29.15 1.55 L31.35 1.9" fill="#353030" fill-rule="evenodd" stroke="none"/>
      <path d="M8.55 14.3 L4.95 13.6 2.85 12.9 2.2 8.05 2.5 2.65 4.7 2.3 4.45 3.0 Q4.15 3.9 4.1 4.75 4.0 6.5 4.05 8.7 4.15 11.6 4.55 11.85 5.35 12.3 7.85 12.75 11.0 13.3 12.6 12.7 15.1 11.85 14.55 12.7 13.7 13.4 12.95 13.6 L8.55 14.3" fill="#2f2c2a" fill-rule="evenodd" stroke="none"/>
      <path d="M10.65 2.0 L14.3 2.65 14.9 5.5 Q14.65 11.75 12.3 12.95 10.75 13.75 8.1 13.3 6.2 12.95 4.55 12.2 3.6 11.75 3.55 8.85 L3.75 4.85 Q3.75 3.85 4.25 3.0 L4.7 2.3 10.65 2.0" fill="url(#gradient28)" fill-rule="evenodd" stroke="none"/>
      <path d="M14.0 6.2 Q12.4 5.1 9.6 1.95 L12.8 2.3 14.3 2.65 14.9 5.5 14.85 6.75 14.0 6.2" fill="url(#gradient29)" fill-rule="evenodd" stroke="none"/>
      <path d="M11.25 9.1 L13.95 10.85 Q13.25 12.45 12.3 12.95 L7.5 13.2 Q4.95 9.8 3.75 4.55 3.85 3.35 4.65 2.35 L4.95 2.75 8.0 6.1 Q9.75 8.0 11.25 9.1" fill="url(#gradient30)" fill-rule="evenodd" stroke="none"/>
      <path d="M12.5 2.95 L7.6 2.6 Q3.4 2.7 3.25 4.55 L3.15 10.4 Q3.05 12.55 5.1 13.05 10.4 14.35 12.3 12.95 14.25 11.55 13.8 5.95 L13.45 3.8 Q13.2 3.1 12.5 2.95 M6.35 0.6 L11.0 0.5 14.4 0.85 16.45 1.35 Q17.5 1.8 16.65 10.45 L16.4 12.6 15.9 13.55 Q14.9 14.45 11.45 14.95 L7.15 14.8 3.4 13.7 Q2.1 13.15 1.8 11.3 1.65 10.45 1.8 8.4 1.9 5.9 1.15 4.35 0.35 2.75 1.1 1.75 1.4 1.3 2.25 1.0 L4.15 0.7 6.35 0.6" fill="url(#gradient31)" fill-rule="evenodd" stroke="none"/>
      <path d="M15.1 10.95 Q14.9 13.65 12.75 14.45 14.6 13.6 14.8 11.05 15.3 5.2 15.0 3.25 14.75 1.95 12.75 1.5 L8.25 1.15 Q4.95 1.0 1.9 1.15 L2.2 1.05 Q4.5 0.85 8.55 1.0 L13.05 1.4 Q15.05 1.8 15.3 3.1 15.6 5.05 15.1 10.95" fill="#817574" fill-rule="evenodd" stroke="none"/>
      <path d="M14.4 0.85 L16.45 1.35 Q17.5 1.8 16.65 10.45 L16.4 12.6 15.9 13.55 Q14.9 14.45 11.45 14.95 L7.15 14.8 3.4 13.7 2.7 13.25 Q4.2 14.0 6.6 14.45 L10.95 14.75 12.75 14.45 Q14.9 13.65 15.1 10.95 15.6 5.05 15.3 3.1 15.05 1.8 13.05 1.4 L8.55 1.0 Q4.5 0.85 2.2 1.05 L4.15 0.7 6.35 0.6 11.0 0.5 14.4 0.85" fill="#514a4a" fill-rule="evenodd" stroke="none"/>
      <path d="M14.45 1.9 L16.6 1.55 Q17.25 2.6 16.65 10.45 L16.4 12.6 15.9 13.55 Q14.9 14.45 11.45 14.95 L7.15 14.8 3.4 13.7 2.7 13.25 Q4.2 14.0 6.6 14.45 L10.95 14.75 12.75 14.45 Q14.9 13.65 15.1 10.95 15.6 5.05 15.3 3.1 15.15 2.3 14.45 1.9" fill="#353030" fill-rule="evenodd" stroke="none"/>
      <path d="M26.65 5.2 L27.25 5.4 26.95 5.75 26.2 5.8 22.8 5.35 19.2 5.55 Q19.05 5.45 19.25 5.2 L19.25 5.15 21.35 4.8 23.1 4.7 23.65 4.75 26.45 5.15 26.65 5.2" fill="#817574" fill-rule="evenodd" stroke="none"/>
      <path d="M19.25 5.2 Q19.05 5.45 19.2 5.55 L22.8 5.35 26.2 5.8 26.95 5.75 27.25 5.4 26.65 5.2 Q28.15 5.6 29.55 6.3 L29.1 6.1 29.1 6.35 29.45 7.2 Q29.2 7.65 26.25 6.5 24.85 5.95 22.9 6.0 L20.15 6.35 18.15 6.75 16.6 6.65 16.35 6.25 Q17.75 5.55 19.25 5.2" fill="#403c39" fill-rule="evenodd" stroke="none"/>
      <path d="M16.35 6.25 L16.6 6.65 18.15 6.75 20.15 6.35 22.9 6.0 Q24.85 5.95 26.25 6.5 29.2 7.65 29.45 7.2 L29.1 6.35 29.1 6.1 29.55 6.3 29.85 6.55 30.35 7.35 Q30.55 7.9 30.35 8.3 30.15 8.65 29.75 8.6 L28.75 8.5 Q26.3 7.1 22.9 7.0 20.8 7.05 18.7 7.8 L17.05 8.5 16.05 8.6 Q15.65 8.65 15.45 8.3 15.25 7.9 15.45 7.35 L15.95 6.55 16.25 6.3 16.35 6.25" fill="#353030" fill-rule="evenodd" stroke="none"/>
      <path d="M7.4 0.15 L7.45 0.15 Q7.8 0.2 8.05 0.4 L8.15 0.5 7.4 0.55 6.15 0.85 Q5.8 1.1 5.8 1.9 L5.85 2.6 4.3 3.0 Q3.6 3.05 3.3 2.3 L4.1 2.4 5.6 2.25 5.6 1.55 Q5.65 0.8 5.8 0.65 6.35 0.3 7.4 0.15 M2.95 6.6 L1.7 6.65 Q1.1 6.65 1.05 6.25 L1.0 6.05 1.05 6.05 Q2.65 6.55 2.75 5.6 2.6 3.55 2.85 2.85 L3.25 2.35 3.55 3.85 3.35 5.9 Q3.3 6.5 2.95 6.6" fill="#9d9885" fill-rule="evenodd" stroke="none"/>
      <path d="M3.3 2.3 Q3.6 3.05 4.3 3.0 L5.85 2.6 5.8 1.9 Q5.8 1.1 6.15 0.85 L7.4 0.55 8.15 0.5 6.65 0.85 6.4 1.0 6.15 1.9 6.1 2.65 6.8 2.6 Q6.4 3.15 5.65 3.15 L4.6 3.4 Q4.15 3.65 4.05 4.0 3.9 4.4 3.9 6.35 L3.0 6.6 2.95 6.6 Q3.3 6.5 3.35 5.9 L3.55 3.85 3.25 2.35 3.25 2.15 3.3 2.3" fill="#696658" fill-rule="evenodd" stroke="none"/>
      <path d="M7.4 0.15 Q6.35 0.3 5.8 0.65 5.65 0.8 5.6 1.55 L5.6 2.25 4.1 2.4 3.3 2.3 3.25 2.15 3.25 2.35 2.85 2.85 Q2.6 3.55 2.75 5.6 2.65 6.55 1.05 6.05 0.9 4.6 0.35 3.75 -0.05 3.05 0.0 2.25 0.05 1.35 0.55 1.0 1.8 0.1 3.0 0.1 L5.6 0.0 7.4 0.15" fill="url(#gradient32)" fill-rule="evenodd" stroke="none"/>
    </g>
    <radialGradient cx="0" cy="0" gradientTransform="matrix(0.0115, 0.0114, 0.0114, -0.0115, 34.7, 4.5)" gradientUnits="userSpaceOnUse" id="gradient25" r="819.2" spreadMethod="pad">
      <stop offset="0.0" stop-color="#ffffff" stop-opacity="0.40784314"/>
      <stop offset="1.0" stop-color="#ffffff" stop-opacity="0.0"/>
    </radialGradient>
    <radialGradient cx="0" cy="0" gradientTransform="matrix(0.0115, 0.0114, 0.0114, -0.0115, 34.7, 4.5)" gradientUnits="userSpaceOnUse" id="gradient26" r="819.2" spreadMethod="pad">
      <stop offset="0.0" stop-color="#ffffff" stop-opacity="0.28627452"/>
      <stop offset="1.0" stop-color="#ffffff" stop-opacity="0.0"/>
    </radialGradient>
    <radialGradient cx="0" cy="0" gradientTransform="matrix(-0.0127, 0.0164, -0.0164, -0.0127, 43.5, 1.1)" gradientUnits="userSpaceOnUse" id="gradient27" r="819.2" spreadMethod="pad">
      <stop offset="0.0" stop-color="#585350"/>
      <stop offset="1.0" stop-color="#403c39"/>
    </radialGradient>
    <radialGradient cx="0" cy="0" gradientTransform="matrix(0.007, 0.0093, 0.0094, -0.0069, 6.4, 4.35)" gradientUnits="userSpaceOnUse" id="gradient28" r="819.2" spreadMethod="pad">
      <stop offset="0.0" stop-color="#ffffff" stop-opacity="0.40784314"/>
      <stop offset="1.0" stop-color="#ffffff" stop-opacity="0.0"/>
    </radialGradient>
    <radialGradient cx="0" cy="0" gradientTransform="matrix(0.007, 0.0093, 0.0094, -0.0069, 6.4, 4.35)" gradientUnits="userSpaceOnUse" id="gradient29" r="819.2" spreadMethod="pad">
      <stop offset="0.0" stop-color="#ffffff" stop-opacity="0.28627452"/>
      <stop offset="1.0" stop-color="#ffffff" stop-opacity="0.0"/>
    </radialGradient>
    <radialGradient cx="0" cy="0" gradientTransform="matrix(0.007, 0.0093, 0.0094, -0.0069, 6.4, 4.35)" gradientUnits="userSpaceOnUse" id="gradient30" r="819.2" spreadMethod="pad">
      <stop offset="0.0" stop-color="#ffffff" stop-opacity="0.28627452"/>
      <stop offset="1.0" stop-color="#ffffff" stop-opacity="0.0"/>
    </radialGradient>
    <radialGradient cx="0" cy="0" gradientTransform="matrix(0.0127, 0.0164, 0.0164, -0.0127, 2.3, 1.1)" gradientUnits="userSpaceOnUse" id="gradient31" r="819.2" spreadMethod="pad">
      <stop offset="0.0" stop-color="#585350"/>
      <stop offset="1.0" stop-color="#403c39"/>
    </radialGradient>
    <radialGradient cx="0" cy="0" gradientTransform="matrix(0.0062, 0.008, 0.008, -0.0062, 0.75, 0.3)" gradientUnits="userSpaceOnUse" id="gradient32" r="819.2" spreadMethod="pad">
      <stop offset="0.0" stop-color="#faf1d3"/>
      <stop offset="1.0" stop-color="#979281"/>
    </radialGradient>
  </defs>
</svg>
