<?xml version="1.0" encoding="UTF-8" standalone="no"?>
<svg xmlns:xlink="http://www.w3.org/1999/xlink" height="77.05px" width="29.05px" xmlns="http://www.w3.org/2000/svg">
  <g transform="matrix(1.0, 0.0, 0.0, 1.0, 0.0, 0.0)">
    <use height="6.95" transform="matrix(1.0, 0.0, 0.0, 1.0, 0.0, 70.1)" width="28.95" xlink:href="#sprite0"/>
    <use height="74.35" transform="matrix(1.0, 0.0, 0.0, 1.0, 0.6, 0.0)" width="28.45" xlink:href="#shape1"/>
  </g>
  <defs>
    <g id="sprite0" transform="matrix(1.0, 0.0, 0.0, 1.0, 0.0, 0.0)">
      <use height="6.95" transform="matrix(1.0, 0.0, 0.0, 1.0, 0.0, 0.0)" width="28.95" xlink:href="#shape0"/>
    </g>
    <g id="shape0" transform="matrix(1.0, 0.0, 0.0, 1.0, 0.0, 0.0)">
      <path d="M28.95 4.2 Q28.95 5.8 24.55 6.45 L14.15 6.95 4.1 6.45 Q0.0 5.8 0.0 4.2 0.0 2.45 4.25 1.25 8.5 0.0 14.45 0.0 20.45 0.0 24.7 1.25 28.95 2.45 28.95 4.2" fill="#0d5069" fill-rule="evenodd" stroke="none"/>
    </g>
    <g id="shape1" transform="matrix(1.0, 0.0, 0.0, 1.0, -0.6, 0.0)">
      <path d="M24.6 47.15 Q26.45 40.7 28.2 36.95 24.75 45.35 23.95 60.3 23.55 67.8 23.8 73.6 22.45 74.3 21.35 74.15 L20.5 73.8 Q20.9 60.1 24.6 47.15" fill="url(#gradient0)" fill-rule="evenodd" stroke="none"/>
      <path d="M15.0 41.2 Q19.35 56.85 19.8 73.6 19.5 73.9 18.85 74.1 L15.6 73.8 Q15.95 66.65 15.5 57.45 14.65 39.05 10.7 28.85 12.8 33.35 15.0 41.2" fill="url(#gradient1)" fill-rule="evenodd" stroke="none"/>
      <path d="M29.0 14.4 Q29.3 21.15 26.8 27.2 22.85 38.0 21.7 50.25 20.75 60.3 21.65 72.7 L21.4 73.25 Q20.85 73.8 19.55 74.0 18.35 74.2 17.25 74.0 L16.4 73.75 Q16.0 68.7 16.55 59.9 17.6 42.0 23.75 25.45 29.1 11.25 21.65 4.95 19.6 3.05 16.9 2.8 13.95 2.6 12.3 4.7 10.85 6.3 10.65 8.5 10.45 10.2 11.0 13.4 12.2 16.6 14.35 18.35 16.65 20.25 18.75 19.25 20.8 18.25 21.65 15.8 22.45 13.45 21.6 11.45 21.0 10.1 19.8 9.15 18.55 8.2 17.1 8.05 13.8 7.55 13.65 10.7 13.6 13.55 16.15 15.4 17.6 16.4 19.0 15.2 20.15 14.25 20.45 12.7 L20.55 13.8 Q20.35 15.5 18.55 16.5 L15.9 16.4 Q14.4 15.8 13.55 14.6 12.35 13.0 12.15 11.05 11.95 8.85 13.3 7.05 14.8 5.6 17.05 5.7 19.35 5.8 21.0 7.6 22.6 9.4 23.25 11.2 24.05 13.25 23.85 15.75 23.55 18.6 21.75 20.4 19.7 22.3 16.75 21.9 13.6 21.35 11.65 19.45 9.95 17.8 8.85 14.7 7.85 11.75 7.95 9.55 8.0 6.8 9.7 3.55 10.75 1.85 12.85 0.85 15.15 -0.25 17.4 0.05 20.9 0.35 23.95 2.8 28.65 6.7 29.0 14.4" fill="url(#gradient2)" fill-rule="evenodd" stroke="none"/>
      <path d="M23.7 27.85 Q24.7 26.65 24.75 28.35 24.75 30.05 23.85 31.1 22.95 32.05 22.9 30.5 22.85 28.95 23.7 27.85" fill="#158434" fill-rule="evenodd" stroke="none"/>
      <path d="M26.35 24.5 Q27.25 23.8 27.0 25.6 26.7 27.45 26.1 27.5 25.5 27.6 25.55 26.35 25.6 25.1 26.35 24.5" fill="#158434" fill-rule="evenodd" stroke="none"/>
      <path d="M26.1 22.0 L27.0 22.05 Q27.3 22.9 26.7 23.35 26.15 23.75 25.95 23.05 25.75 22.4 26.1 22.0" fill="#158434" fill-rule="evenodd" stroke="none"/>
      <path d="M24.05 25.45 Q24.4 25.05 24.4 25.65 24.4 26.2 23.95 26.65 23.55 27.05 23.65 26.4 L24.05 25.45" fill="#158434" fill-rule="evenodd" stroke="none"/>
      <path d="M24.1 31.65 Q24.8 31.15 24.8 32.2 24.85 33.25 24.25 33.45 23.75 33.65 23.7 32.8 23.65 31.95 24.1 31.65" fill="#158434" fill-rule="evenodd" stroke="none"/>
      <path d="M25.55 29.15 Q25.8 28.8 25.75 29.35 L25.35 30.4 Q25.05 31.05 25.15 30.3 25.2 29.55 25.55 29.15" fill="#158434" fill-rule="evenodd" stroke="none"/>
      <path d="M21.9 31.75 Q22.35 31.3 21.8 33.25 21.25 35.15 20.95 35.25 20.6 35.35 21.05 33.75 21.5 32.15 21.9 31.75" fill="#158434" fill-rule="evenodd" stroke="none"/>
      <path d="M22.7 32.7 Q23.45 32.15 23.25 33.35 23.1 34.55 22.55 34.4 22.1 34.3 22.2 33.6 22.35 32.95 22.7 32.7" fill="#158434" fill-rule="evenodd" stroke="none"/>
      <path d="M23.45 35.6 Q23.8 35.25 23.95 35.5 L23.85 36.35 23.4 38.15 Q23.2 38.85 22.95 38.4 22.6 37.9 22.8 36.95 22.95 36.0 23.45 35.6" fill="#158434" fill-rule="evenodd" stroke="none"/>
      <path d="M21.55 37.6 Q21.85 37.3 22.1 37.6 22.4 37.95 22.35 38.7 L21.95 40.05 Q21.55 40.6 21.2 40.35 20.75 40.05 20.85 39.05 21.0 38.1 21.55 37.6" fill="#158434" fill-rule="evenodd" stroke="none"/>
      <path d="M21.5 35.15 Q21.75 34.75 21.95 35.0 22.2 35.3 21.9 35.75 21.65 36.25 21.45 35.85 21.25 35.5 21.5 35.15" fill="#158434" fill-rule="evenodd" stroke="none"/>
      <path d="M20.25 38.4 Q20.9 37.85 20.5 39.55 20.1 41.35 19.7 41.3 19.4 41.25 19.65 40.0 19.9 38.75 20.25 38.4" fill="#158434" fill-rule="evenodd" stroke="none"/>
      <path d="M20.5 36.35 Q20.75 35.8 20.85 36.1 L20.7 37.05 Q20.4 37.7 20.35 37.25 20.25 36.85 20.5 36.35" fill="#158434" fill-rule="evenodd" stroke="none"/>
      <path d="M21.9 41.1 Q22.55 40.65 22.35 42.0 22.15 43.3 21.7 43.15 21.3 43.0 21.4 42.2 21.5 41.35 21.9 41.1" fill="#158434" fill-rule="evenodd" stroke="none"/>
      <path d="M18.05 74.05 Q18.35 66.7 23.3 59.0 L28.2 52.8 Q22.75 60.0 22.0 67.6 21.65 71.4 22.4 73.75 20.4 74.75 18.05 74.05" fill="url(#gradient3)" fill-rule="evenodd" stroke="none"/>
      <path d="M8.75 73.55 L7.65 73.95 4.5 73.75 Q4.85 68.9 4.45 62.65 3.65 51.9 0.6 45.3 L3.9 51.65 Q8.3 62.25 8.75 73.55" fill="url(#gradient4)" fill-rule="evenodd" stroke="none"/>
    </g>
    <linearGradient gradientTransform="matrix(0.0, -0.0208, -0.0208, 0.0, 24.35, 53.2)" gradientUnits="userSpaceOnUse" id="gradient0" spreadMethod="pad" x1="-819.2" x2="819.2">
      <stop offset="0.0" stop-color="#242224"/>
      <stop offset="0.5411764705882353" stop-color="#31324a"/>
      <stop offset="1.0" stop-color="#3b3d66"/>
    </linearGradient>
    <linearGradient gradientTransform="matrix(0.0, 0.0282, -0.0254, 0.0, 15.25, 48.65)" gradientUnits="userSpaceOnUse" id="gradient1" spreadMethod="pad" x1="-819.2" x2="819.2">
      <stop offset="0.0" stop-color="#365387"/>
      <stop offset="0.3176470588235294" stop-color="#31456b"/>
      <stop offset="1.0" stop-color="#242224"/>
    </linearGradient>
    <linearGradient gradientTransform="matrix(0.0019, -0.0352, -0.0352, -0.0019, 17.15, 37.0)" gradientUnits="userSpaceOnUse" id="gradient2" spreadMethod="pad" x1="-819.2" x2="819.2">
      <stop offset="0.0" stop-color="#242224"/>
      <stop offset="0.13333333333333333" stop-color="#222c26"/>
      <stop offset="0.3607843137254902" stop-color="#1e472a"/>
      <stop offset="0.6509803921568628" stop-color="#187231"/>
      <stop offset="0.7568627450980392" stop-color="#158434"/>
      <stop offset="1.0" stop-color="#70a834"/>
    </linearGradient>
    <linearGradient gradientTransform="matrix(0.0, -0.012, -0.012, 0.0, 23.1, 62.2)" gradientUnits="userSpaceOnUse" id="gradient3" spreadMethod="pad" x1="-819.2" x2="819.2">
      <stop offset="0.0" stop-color="#242224"/>
      <stop offset="0.043137254901960784" stop-color="#242629"/>
      <stop offset="0.6980392156862745" stop-color="#225f70"/>
      <stop offset="1.0" stop-color="#21758c"/>
    </linearGradient>
    <linearGradient gradientTransform="matrix(0.0, 0.0178, -0.0172, 0.0, 4.15, 58.7)" gradientUnits="userSpaceOnUse" id="gradient4" spreadMethod="pad" x1="-819.2" x2="819.2">
      <stop offset="0.0" stop-color="#21758c"/>
      <stop offset="0.30196078431372547" stop-color="#225f70"/>
      <stop offset="0.9568627450980393" stop-color="#242629"/>
      <stop offset="1.0" stop-color="#242224"/>
    </linearGradient>
  </defs>
</svg>
