<?xml version="1.0" encoding="UTF-8" standalone="no"?>
<svg xmlns:xlink="http://www.w3.org/1999/xlink" height="132.05px" width="154.5px" xmlns="http://www.w3.org/2000/svg">
  <g transform="matrix(1.0, 0.0, 0.0, 1.0, 0.0, 0.0)">
    <use height="44.75" transform="matrix(1.0, 0.0, 0.0, 1.0, 0.0, 88.65)" width="154.5" xlink:href="#sprite0"/>
    <use height="25.55" transform="matrix(1.0, 0.0, 0.0, 1.0, 26.15, 100.4)" width="115.0" xlink:href="#sprite1"/>
    <use height="1.25" transform="matrix(1.0, 0.0, 0.0, 1.0, 22.7, 112.15)" width="2.45" xlink:href="#sprite2"/>
    <use height="1.45" transform="matrix(1.0, 0.0, 0.0, 1.0, 30.0, 111.45)" width="5.05" xlink:href="#sprite3"/>
    <use height="1.95" transform="matrix(1.0, 0.0, 0.0, 1.0, 25.9, 115.75)" width="6.9" xlink:href="#sprite4"/>
    <use height="1.85" transform="matrix(1.0, 0.0, 0.0, 1.0, 27.95, 119.4)" width="5.2" xlink:href="#sprite5"/>
    <use height="1.85" transform="matrix(1.0, 0.0, 0.0, 1.0, 34.9, 117.5)" width="4.55" xlink:href="#sprite6"/>
    <use height="4.1" transform="matrix(1.0, 0.0, 0.0, 1.0, 44.9, 121.15)" width="12.2" xlink:href="#sprite7"/>
    <use height="4.4" transform="matrix(1.0, 0.0, 0.0, 1.0, 62.45, 125.65)" width="14.95" xlink:href="#sprite8"/>
    <use height="2.7" transform="matrix(1.0, 0.0, 0.0, 1.0, 89.45, 123.15)" width="6.55" xlink:href="#sprite9"/>
    <use height="2.95" transform="matrix(1.0, 0.0, 0.0, 1.0, 117.65, 117.15)" width="11.05" xlink:href="#sprite10"/>
    <use height="1.3" transform="matrix(1.0, 0.0, 0.0, 1.0, 132.7, 116.1)" width="3.8" xlink:href="#sprite11"/>
    <use height="1.35" transform="matrix(1.0, 0.0, 0.0, 1.0, 136.4, 107.4)" width="4.05" xlink:href="#sprite12"/>
    <use height="0.85" transform="matrix(1.0, 0.0, 0.0, 1.0, 129.15, 101.25)" width="2.15" xlink:href="#sprite13"/>
    <use height="62.0" transform="matrix(1.0, 0.0, 0.0, 1.0, 22.55, 67.5)" width="116.7" xlink:href="#shape14"/>
  </g>
  <defs>
    <g id="sprite0" transform="matrix(1.0, 0.0, 0.0, 1.0, 0.0, 0.0)">
      <use height="44.75" transform="matrix(1.0, 0.0, 0.0, 1.0, 0.0, 0.0)" width="154.5" xlink:href="#shape0"/>
    </g>
    <g id="shape0" transform="matrix(1.0, 0.0, 0.0, 1.0, 0.0, 0.0)">
      <path d="M154.5 22.4 Q154.5 31.65 131.85 38.2 109.25 44.75 77.25 44.75 45.25 44.75 22.65 38.2 0.0 31.65 0.0 22.4 0.0 13.15 22.65 6.55 45.25 0.0 77.25 0.0 109.25 0.0 131.85 6.55 154.5 13.15 154.5 22.4" fill="url(#gradient0)" fill-rule="evenodd" stroke="none"/>
    </g>
    <radialGradient cx="0" cy="0" gradientTransform="matrix(0.0813, 0.0, 0.0, -0.0229, 77.0, 22.65)" gradientUnits="userSpaceOnUse" id="gradient0" r="819.2" spreadMethod="pad">
      <stop offset="0.0" stop-color="#000000" stop-opacity="0.61960787"/>
      <stop offset="1.0" stop-color="#000000" stop-opacity="0.0"/>
    </radialGradient>
    <g id="sprite1" transform="matrix(1.0, 0.0, 0.0, 1.0, 0.0, 0.0)">
      <use height="25.55" transform="matrix(1.0, 0.0, 0.0, 1.0, 0.0, 0.0)" width="115.0" xlink:href="#shape1"/>
    </g>
    <g id="shape1" transform="matrix(1.0, 0.0, 0.0, 1.0, 0.0, 0.0)">
      <path d="M114.95 10.8 L114.45 10.8 110.5 10.5 106.2 10.75 102.25 11.0 99.8 11.35 97.0 12.25 Q95.45 12.7 94.2 13.8 L93.25 14.75 96.0 16.25 89.5 17.25 Q86.85 17.7 85.85 18.6 L84.25 19.75 81.4 19.95 78.75 19.75 72.75 20.25 Q70.95 20.4 70.55 21.2 70.2 22.0 68.75 22.0 L65.8 22.35 63.0 22.5 Q62.2 22.45 59.9 24.25 57.7 26.0 53.85 25.35 52.45 25.15 52.55 23.95 52.6 23.05 52.0 23.25 L45.6 24.35 37.7 24.85 36.55 24.5 36.95 23.9 Q37.65 22.8 34.5 22.0 L29.0 20.9 29.75 21.25 26.75 20.75 22.75 20.5 Q22.15 20.35 22.75 19.9 L23.5 19.5 25.75 17.75 Q21.0 20.1 18.0 20.1 16.45 20.1 14.5 18.65 12.45 17.1 11.0 17.0 8.0 16.75 12.25 16.0 L12.25 14.5 9.0 14.25 Q6.75 13.5 7.75 13.25 L10.75 12.25 Q11.5 12.0 9.75 11.75 7.0 10.5 6.25 10.5 L1.5 10.5 Q-0.6 10.5 0.25 9.5 1.15 8.5 2.0 8.5 L3.25 8.15 4.5 7.75 Q5.25 7.75 5.75 7.0 L8.0 6.25 8.0 4.25 8.4 3.7 Q9.2 3.15 11.25 3.0 L13.0 2.5 16.25 2.0 95.75 0.0 Q98.0 0.0 100.25 1.5 101.0 2.0 101.9 2.2 L106.5 2.5 109.1 2.8 Q108.75 3.6 109.25 4.0 L109.8 4.55 109.15 4.65 104.0 5.25 Q103.55 5.4 105.7 6.2 L108.0 7.0 106.75 8.75 108.1 9.35 113.0 10.5 114.95 10.8" fill="#000000" fill-rule="evenodd" stroke="none"/>
    </g>
    <g id="sprite2" transform="matrix(1.0, 0.0, 0.0, 1.0, 0.0, 0.0)">
      <use height="1.25" transform="matrix(1.0, 0.0, 0.0, 1.0, 0.0, 0.0)" width="2.45" xlink:href="#shape2"/>
    </g>
    <g id="shape2" transform="matrix(1.0, 0.0, 0.0, 1.0, 0.0, 0.0)">
      <path d="M1.5 1.25 Q0.85 1.25 0.0 0.7 0.1 0.0 1.5 0.0 2.55 0.0 2.45 0.65 2.35 1.25 1.5 1.25" fill="#000000" fill-rule="evenodd" stroke="none"/>
    </g>
    <g id="sprite3" transform="matrix(1.0, 0.0, 0.0, 1.0, 0.0, 0.05)">
      <use height="1.45" transform="matrix(1.0, 0.0, 0.0, 1.0, 0.0, -0.05)" width="5.05" xlink:href="#shape3"/>
    </g>
    <g id="shape3" transform="matrix(1.0, 0.0, 0.0, 1.0, 0.0, 0.05)">
      <path d="M1.05 1.4 Q0.45 1.4 0.0 0.9 1.7 0.1 2.45 0.0 L4.65 0.3 Q5.7 0.7 3.95 1.1 L1.05 1.4" fill="#000000" fill-rule="evenodd" stroke="none"/>
    </g>
    <g id="sprite4" transform="matrix(1.0, 0.0, 0.0, 1.0, 0.0, 0.0)">
      <use height="1.95" transform="matrix(1.0, 0.0, 0.0, 1.0, 0.0, 0.0)" width="6.9" xlink:href="#shape4"/>
    </g>
    <g id="shape4" transform="matrix(1.0, 0.0, 0.0, 1.0, 0.0, 0.0)">
      <path d="M2.55 1.9 Q1.5 2.15 0.0 1.4 0.3 1.15 1.5 0.9 L3.45 0.3 5.8 0.0 Q7.0 0.1 6.9 0.5 6.8 0.9 5.8 1.1 4.65 1.35 4.05 1.1 3.7 1.65 2.55 1.9" fill="#000000" fill-rule="evenodd" stroke="none"/>
    </g>
    <g id="sprite5" transform="matrix(1.0, 0.0, 0.0, 1.0, 0.0, 0.0)">
      <use height="1.85" transform="matrix(1.0, 0.0, 0.0, 1.0, 0.0, 0.0)" width="5.2" xlink:href="#shape5"/>
    </g>
    <g id="shape5" transform="matrix(1.0, 0.0, 0.0, 1.0, 0.0, 0.0)">
      <path d="M5.0 1.0 Q3.0 1.85 1.85 1.85 0.95 1.85 0.0 0.5 L2.45 0.0 3.35 0.2 Q5.85 0.7 5.0 1.0" fill="#000000" fill-rule="evenodd" stroke="none"/>
    </g>
    <g id="sprite6" transform="matrix(1.0, 0.0, 0.0, 1.0, 0.0, 0.0)">
      <use height="1.85" transform="matrix(1.0, 0.0, 0.0, 1.0, 0.0, 0.0)" width="4.55" xlink:href="#shape6"/>
    </g>
    <g id="shape6" transform="matrix(1.0, 0.0, 0.0, 1.0, 0.0, 0.0)">
      <path d="M0.75 1.6 L0.0 1.05 Q0.05 0.65 0.5 0.35 L3.05 0.15 Q4.95 0.6 4.45 1.25 4.0 1.85 2.9 1.85 L0.75 1.6" fill="#000000" fill-rule="evenodd" stroke="none"/>
    </g>
    <g id="sprite7" transform="matrix(1.0, 0.0, 0.0, 1.0, 0.0, 0.0)">
      <use height="4.1" transform="matrix(1.0, 0.0, 0.0, 1.0, 0.0, 0.0)" width="12.2" xlink:href="#shape7"/>
    </g>
    <g id="shape7" transform="matrix(1.0, 0.0, 0.0, 1.0, 0.0, 0.0)">
      <path d="M10.15 0.0 Q11.45 0.0 12.0 0.75 12.5 1.4 11.75 1.75 10.65 2.35 10.0 2.7 L8.0 3.45 4.65 3.2 Q4.65 3.75 3.65 4.0 L2.45 4.1 1.75 3.95 Q0.55 3.7 0.0 2.85 0.9 2.75 1.65 2.2 L4.25 2.0 5.15 1.75 Q8.3 0.0 10.15 0.0" fill="#000000" fill-rule="evenodd" stroke="none"/>
    </g>
    <g id="sprite8" transform="matrix(1.0, 0.0, 0.0, 1.0, 0.0, 0.0)">
      <use height="4.4" transform="matrix(1.0, 0.0, 0.0, 1.0, 0.0, 0.0)" width="14.95" xlink:href="#shape8"/>
    </g>
    <g id="shape8" transform="matrix(1.0, 0.0, 0.0, 1.0, 0.0, 0.0)">
      <path d="M5.45 4.25 Q2.25 3.95 0.0 2.6 L3.75 1.7 6.15 0.85 Q7.95 0.1 10.45 0.0 13.45 -0.1 14.55 1.2 15.6 2.45 13.95 3.35 12.6 4.1 9.7 4.3 7.25 4.5 5.45 4.25" fill="#000000" fill-rule="evenodd" stroke="none"/>
    </g>
    <g id="sprite9" transform="matrix(1.0, 0.0, 0.0, 1.0, 0.0, 0.0)">
      <use height="2.7" transform="matrix(1.0, 0.0, 0.0, 1.0, 0.0, 0.0)" width="6.55" xlink:href="#shape9"/>
    </g>
    <g id="shape9" transform="matrix(1.0, 0.0, 0.0, 1.0, 0.0, 0.0)">
      <path d="M3.7 2.7 Q1.7 2.7 0.65 2.05 L0.0 1.35 Q1.45 0.2 3.5 0.0 4.95 -0.1 5.95 0.7 6.95 1.5 6.35 1.75 4.6 2.7 3.7 2.7" fill="#000000" fill-rule="evenodd" stroke="none"/>
    </g>
    <g id="sprite10" transform="matrix(1.0, 0.0, 0.0, 1.0, 0.0, 0.05)">
      <use height="2.95" transform="matrix(1.0, 0.0, 0.0, 1.0, 0.0, -0.05)" width="11.05" xlink:href="#shape10"/>
    </g>
    <g id="shape10" transform="matrix(1.0, 0.0, 0.0, 1.0, 0.0, 0.05)">
      <path d="M3.25 2.9 Q1.25 2.9 0.0 1.9 2.0 0.95 3.05 0.95 L4.95 0.65 8.75 0.05 11.05 0.2 Q11.05 0.5 10.05 0.8 L8.15 1.15 7.15 2.3 Q6.65 2.8 5.95 2.9 L3.25 2.9" fill="#000000" fill-rule="evenodd" stroke="none"/>
    </g>
    <g id="sprite11" transform="matrix(1.0, 0.0, 0.0, 1.0, 0.0, 0.0)">
      <use height="1.3" transform="matrix(1.0, 0.0, 0.0, 1.0, 0.0, 0.0)" width="3.8" xlink:href="#shape11"/>
    </g>
    <g id="shape11" transform="matrix(1.0, 0.0, 0.0, 1.0, 0.0, 0.0)">
      <path d="M1.5 1.3 Q0.75 1.3 0.0 0.8 -0.05 0.3 1.5 0.05 L3.3 0.1 Q3.95 0.25 3.75 0.5 3.65 0.7 2.8 1.0 L1.5 1.3" fill="#000000" fill-rule="evenodd" stroke="none"/>
    </g>
    <g id="sprite12" transform="matrix(1.0, 0.0, 0.0, 1.0, 0.0, 0.0)">
      <use height="1.35" transform="matrix(1.0, 0.0, 0.0, 1.0, 0.0, 0.0)" width="4.05" xlink:href="#shape12"/>
    </g>
    <g id="shape12" transform="matrix(1.0, 0.0, 0.0, 1.0, 0.0, 0.0)">
      <path d="M2.25 1.35 Q1.4 1.45 0.0 0.0 L2.75 0.0 Q4.55 0.0 3.85 0.65 3.2 1.25 2.25 1.35" fill="#000000" fill-rule="evenodd" stroke="none"/>
    </g>
    <g id="sprite13" transform="matrix(1.0, 0.0, 0.0, 1.0, 0.0, 0.0)">
      <use height="0.85" transform="matrix(1.0, 0.0, 0.0, 1.0, 0.0, 0.0)" width="2.15" xlink:href="#shape13"/>
    </g>
    <g id="shape13" transform="matrix(1.0, 0.0, 0.0, 1.0, 0.0, 0.0)">
      <path d="M1.8 0.65 L0.0 0.55 Q0.05 0.0 1.05 0.0 1.8 0.0 2.05 0.25 2.35 0.55 1.8 0.65" fill="#000000" fill-rule="evenodd" stroke="none"/>
    </g>
    <g id="shape14" transform="matrix(1.0, 0.0, 0.0, 1.0, -22.55, -67.5)">
      <path d="M89.45 103.8 Q82.4 107.35 76.45 107.15 70.2 106.95 62.3 105.15 55.55 103.6 54.65 102.85 54.1 102.4 53.25 99.8 L52.45 97.3 57.8 94.15 58.7 93.9 62.95 93.85 67.65 93.6 69.95 93.15 Q70.9 93.1 72.7 94.2 74.9 95.55 76.45 95.85 L79.35 96.25 80.45 96.5 81.3 97.0 83.6 97.45 88.15 98.15 Q91.15 98.5 95.3 100.15 92.95 102.0 89.45 103.8" fill="#e3e4e6" fill-rule="evenodd" stroke="none"/>
      <path d="M81.35 101.25 L83.95 100.0 Q85.0 99.55 83.6 100.8 82.2 102.05 80.8 102.5 80.35 102.65 77.9 104.05 75.7 105.35 72.95 106.0 L67.95 106.6 65.95 106.35 62.45 105.65 Q61.2 105.4 57.35 105.7 L52.95 105.85 Q52.15 105.65 50.95 104.3 L49.95 103.0 52.45 97.3 54.65 95.65 Q56.3 94.5 57.95 93.5 L63.95 93.35 69.95 93.15 Q67.8 94.35 64.95 94.5 L61.15 94.5 59.45 94.35 Q57.65 95.65 56.45 97.0 L52.3 101.85 58.65 96.8 60.15 96.65 63.65 96.5 69.15 96.15 Q68.45 96.85 66.95 96.85 L65.25 97.15 62.8 97.85 Q61.35 98.15 61.85 98.5 L63.3 99.65 Q63.7 100.4 64.65 100.8 L66.3 101.35 69.8 102.15 71.45 102.05 73.8 101.15 Q75.45 100.35 78.15 99.35 L75.8 101.0 Q74.8 101.55 75.5 101.75 L77.95 102.0 Q79.35 102.1 81.35 101.25" fill="#f7f8fa" fill-rule="evenodd" stroke="none"/>
      <path d="M70.15 96.0 L74.45 96.0 70.45 97.5 Q69.75 97.7 68.45 98.55 L67.3 99.35 69.15 100.15 Q71.45 100.0 70.95 100.15 L70.05 100.65 68.3 101.0 65.95 101.25 Q64.7 101.4 64.3 101.0 L63.55 100.1 63.3 99.65 61.65 97.65 62.5 97.3 65.3 96.65 68.15 96.2 70.15 96.0" fill="#d3d4d6" fill-rule="evenodd" stroke="none"/>
      <path d="M82.15 99.35 L80.45 101.05 Q79.4 102.2 77.95 102.0 L75.25 101.35 74.45 101.0 Q75.6 100.2 76.55 99.9 L78.15 99.35 Q79.45 98.65 80.95 98.5 L84.3 98.5 Q83.65 98.7 82.15 99.35" fill="#d3d4d6" fill-rule="evenodd" stroke="none"/>
      <path d="M122.2 86.05 L121.5 88.65 Q120.9 91.15 120.9 92.35 120.9 94.35 123.9 104.65 114.9 111.35 111.55 113.35 L107.5 115.95 Q105.35 117.15 102.2 117.35 L95.2 117.1 91.9 116.65 Q88.2 120.7 87.2 121.0 L85.55 121.55 81.9 121.35 70.35 120.4 61.55 120.0 Q56.55 119.35 55.55 118.35 54.65 117.45 53.25 116.6 51.55 115.55 50.2 115.35 L46.95 115.25 Q45.0 115.25 44.2 114.65 42.95 113.75 37.95 110.95 39.75 110.5 42.4 108.75 46.45 106.15 50.15 101.05 L52.45 97.3 Q56.25 97.75 58.65 96.8 L58.9 96.7 59.55 97.4 60.85 98.4 Q61.45 99.75 62.4 100.85 64.45 103.15 69.3 103.15 71.0 103.2 72.55 102.15 L72.8 102.15 74.8 101.8 Q79.9 102.1 85.15 97.7 89.45 94.1 92.75 87.3 94.15 86.9 95.05 85.9 96.6 84.3 99.0 80.7 99.95 79.25 99.8 77.4 99.7 75.6 98.6 74.15 100.6 70.2 102.55 67.65 L106.8 67.65 107.45 67.6 107.7 67.85 111.05 70.0 111.15 70.1 Q112.5 71.65 114.95 72.95 L119.1 80.2 122.2 86.05" fill="#c9cacc" fill-rule="evenodd" stroke="none"/>
      <path d="M107.0 85.8 Q107.55 86.9 107.2 87.85 L106.75 88.55 Q103.0 86.55 101.5 87.05 100.0 87.55 101.15 93.3 101.4 94.6 102.0 96.05 L103.25 98.65 Q104.15 100.4 104.65 106.4 101.5 104.15 101.5 103.05 101.5 101.95 100.0 100.05 98.4 98.05 97.9 99.4 L96.55 102.2 94.4 106.4 Q93.3 108.85 93.9 112.5 94.25 114.3 94.75 115.65 L93.15 114.55 Q91.9 112.55 91.5 110.65 91.3 109.55 91.8 106.85 L92.4 103.8 Q92.4 103.45 93.35 100.55 L94.4 96.4 94.25 92.2 Q93.95 89.5 93.5 88.55 L92.7 87.4 92.75 87.3 Q94.15 86.9 95.05 85.9 96.6 84.3 99.0 80.7 100.6 78.2 99.25 75.3 L99.15 73.1 Q100.65 70.2 102.25 68.05 L102.65 68.4 Q103.35 69.1 104.25 73.0 105.05 76.75 105.25 79.8 105.4 82.3 105.9 83.6 L107.0 85.8" fill="#b2b3b5" fill-rule="evenodd" stroke="none"/>
      <path d="M48.3 103.4 L49.4 104.15 Q51.4 105.4 52.3 105.65 L54.65 105.55 Q56.5 105.05 58.65 104.9 L57.05 106.55 Q55.05 108.2 53.15 108.3 L48.35 108.1 45.75 107.8 Q44.8 108.25 44.3 107.35 46.45 105.65 48.3 103.4" fill="#b2b3b5" fill-rule="evenodd" stroke="none"/>
      <path d="M50.2 115.35 L46.95 115.25 Q45.0 115.25 44.2 114.65 42.95 113.75 37.95 110.95 39.9 110.4 42.2 108.85 L43.1 110.05 45.65 109.9 49.7 109.55 52.15 109.05 Q53.4 108.55 57.65 105.55 L58.65 104.9 58.95 108.75 59.15 113.9 Q59.0 115.55 55.55 118.35 54.65 117.45 53.25 116.6 51.55 115.55 50.2 115.35" fill="#a4a4a8" fill-rule="evenodd" stroke="none"/>
      <path d="M58.3 96.95 L58.9 96.7 59.55 97.4 60.85 98.4 61.15 99.05 60.65 100.05 Q59.4 102.55 58.9 107.8 L58.65 104.9 58.3 96.95" fill="#d7dce0" fill-rule="evenodd" stroke="none"/>
      <path d="M66.75 113.25 Q66.65 114.8 65.7 115.85 64.8 116.9 63.6 116.8 62.45 116.75 61.65 115.55 60.9 114.4 61.0 112.85 61.1 111.3 62.05 110.25 62.95 109.25 64.15 109.3 65.35 109.4 66.1 110.55 66.85 111.7 66.75 113.25" fill="url(#gradient1)" fill-rule="evenodd" stroke="none"/>
      <path d="M72.55 102.15 L73.1 102.15 Q72.0 104.1 70.2 104.0 69.25 103.95 68.45 103.15 L69.3 103.15 Q71.0 103.2 72.55 102.15" fill="url(#gradient2)" fill-rule="evenodd" stroke="none"/>
      <path d="M81.8 114.1 Q81.7 115.4 80.95 116.25 80.25 117.1 79.3 117.0 78.35 116.95 77.75 116.0 77.15 115.05 77.2 113.75 77.3 112.45 78.05 111.65 78.75 110.8 79.7 110.85 80.65 110.95 81.3 111.9 81.9 112.8 81.8 114.1" fill="url(#gradient3)" fill-rule="evenodd" stroke="none"/>
      <path d="M122.2 86.05 L121.5 88.65 Q120.9 91.15 120.9 92.35 120.9 94.35 123.9 104.65 114.9 111.35 111.55 113.35 L107.5 115.95 Q105.35 117.15 102.2 117.35 L95.2 117.1 91.9 116.65 Q88.2 120.7 87.2 121.0 L85.55 121.55 81.9 121.35 70.35 120.4 61.55 120.0 Q56.55 119.35 55.55 118.35 54.15 116.95 52.2 116.05 L52.9 115.65 Q54.6 114.8 56.85 112.1 L58.75 109.55 59.1 111.95 59.4 115.8 Q59.4 117.15 60.65 117.85 L64.4 119.05 72.05 119.75 79.65 119.05 Q81.8 118.4 82.5 117.15 L83.5 114.15 Q84.0 112.4 85.25 109.5 L86.9 105.9 89.4 100.25 Q91.6 95.05 92.15 94.05 93.1 92.2 93.9 86.8 L94.65 94.65 Q94.95 97.85 93.9 101.85 L92.4 106.9 Q91.7 110.15 93.15 114.55 93.55 115.95 97.1 115.65 100.35 115.4 102.5 114.3 104.15 113.45 104.45 110.75 104.65 109.05 104.25 105.4 104.05 103.15 103.25 100.4 L102.5 98.05 103.9 93.65 Q105.35 89.15 105.65 88.9 106.35 88.4 106.0 83.55 L105.0 67.8 105.05 67.65 107.45 67.6 107.7 67.85 111.05 70.0 111.15 70.1 Q112.5 71.65 114.95 72.95 L119.1 80.2 122.2 86.05" fill="#83888c" fill-rule="evenodd" stroke="none"/>
      <path d="M122.2 86.05 L121.5 88.65 Q120.9 91.15 120.9 92.35 120.9 94.35 123.9 104.65 L118.75 108.4 119.5 105.6 119.7 104.2 119.95 100.9 120.05 97.7 119.25 95.6 Q118.5 93.6 118.7 92.7 L118.95 89.55 118.9 87.5 118.55 83.85 Q118.55 83.3 117.3 83.3 L116.05 83.35 116.7 82.0 Q117.5 80.5 118.55 79.7 L118.75 79.5 122.2 86.05" fill="#8d9296" fill-rule="evenodd" stroke="none"/>
      <path d="M116.7 88.35 L118.35 88.3 121.65 88.1 Q120.9 90.75 120.9 92.35 120.9 94.35 123.9 104.65 114.9 111.35 111.55 113.35 L107.5 115.95 Q105.35 117.15 102.2 117.35 L93.9 117.0 94.9 115.6 98.85 115.4 Q101.15 115.0 102.5 114.3 104.15 113.45 104.45 110.75 104.65 109.05 104.25 105.4 103.9 102.3 102.75 98.7 L104.7 92.35 105.5 93.45 Q106.6 94.45 108.05 94.0 109.5 93.6 110.25 92.7 L110.7 91.85 111.4 92.4 Q112.3 92.75 113.55 91.7 115.55 90.0 116.7 88.35" fill="#73777a" fill-rule="evenodd" stroke="none"/>
      <path d="M107.05 76.5 L115.9 74.4 117.0 76.35 Q115.3 80.25 113.4 80.35 111.7 80.45 109.2 78.5 L107.05 76.5" fill="#8d9296" fill-rule="evenodd" stroke="none"/>
      <path d="M116.7 88.35 L116.7 90.95 Q116.4 93.65 115.05 94.2 113.7 94.7 112.35 93.65 L110.7 91.85 Q110.4 91.45 110.65 91.5 111.45 91.7 112.2 91.5 114.35 91.05 116.7 88.35" fill="#8d9296" fill-rule="evenodd" stroke="none"/>
      <path d="M106.05 94.7 L109.2 96.85 Q109.55 97.5 109.2 98.35 109.0 98.9 109.0 100.6 L109.05 102.2 110.2 104.85 111.9 106.35 113.4 107.5 Q109.9 107.5 108.9 106.5 L107.1 104.75 Q105.95 103.5 105.55 102.35 105.15 101.2 105.55 97.85 L106.05 94.7" fill="#8d9296" fill-rule="evenodd" stroke="none"/>
      <path d="M118.55 100.85 L118.55 101.75 Q118.35 102.7 117.2 103.0 L115.55 102.95 115.2 102.5 118.55 100.85" fill="#8d9296" fill-rule="evenodd" stroke="none"/>
      <path d="M116.55 105.0 Q116.9 105.85 115.9 106.85 115.3 107.5 114.95 106.75 L114.7 105.85 116.55 105.0" fill="#8d9296" fill-rule="evenodd" stroke="none"/>
      <path d="M108.9 109.7 Q108.9 113.0 107.7 113.5 106.9 113.85 106.65 113.15 106.45 112.55 106.7 111.5 106.9 110.8 107.95 110.15 108.45 109.85 108.9 109.7" fill="#8d9296" fill-rule="evenodd" stroke="none"/>
      <path d="M106.5 67.65 L107.45 67.6 107.7 67.85 109.75 69.35 108.45 69.6 107.9 69.5 106.5 67.65" fill="#73777a" fill-rule="evenodd" stroke="none"/>
      <path d="M116.9 77.5 L116.55 79.7 Q116.2 81.85 113.55 84.2 L111.2 85.5 Q110.2 86.0 109.5 87.15 L108.7 88.5 108.0 88.55 106.4 86.5 Q105.35 85.05 105.35 81.5 L105.55 78.2 107.05 76.5 108.15 77.4 Q109.55 78.4 110.9 79.0 L112.7 80.0 113.4 80.35 Q114.05 80.5 116.9 77.5" fill="#73777a" fill-rule="evenodd" stroke="none"/>
      <path d="M102.55 67.65 L104.45 67.5 107.45 67.6 105.3 69.0 Q104.8 69.85 104.45 71.65 104.25 72.8 102.75 73.35 L98.6 74.15 98.85 73.2 Q99.25 72.05 99.95 71.0 L102.55 67.65" fill="#e3e4e6" fill-rule="evenodd" stroke="none"/>
      <path d="M32.5 109.05 Q33.55 109.25 34.2 110.55 L34.65 111.8 33.25 112.4 Q31.9 113.05 30.0 112.4 L30.65 110.8 31.2 109.85 Q31.9 108.95 32.5 109.05" fill="#a4a4a8" fill-rule="evenodd" stroke="none"/>
      <path d="M44.0 116.3 L46.25 116.9 48.4 118.55 46.15 119.8 44.5 120.15 41.75 119.65 Q40.2 119.3 40.3 118.9 L40.75 118.55 41.75 117.2 Q42.95 115.95 44.0 116.3" fill="#a4a4a8" fill-rule="evenodd" stroke="none"/>
      <path d="M38.65 117.05 Q38.9 118.4 38.25 118.8 L34.9 118.55 35.3 117.8 Q35.8 116.95 36.5 116.65 37.65 116.15 38.65 117.05" fill="#a4a4a8" fill-rule="evenodd" stroke="none"/>
      <path d="M30.15 114.65 L31.15 116.3 28.65 116.3 28.25 115.4 Q28.05 114.85 29.05 114.7 L30.15 114.65" fill="#a4a4a8" fill-rule="evenodd" stroke="none"/>
      <path d="M67.9 120.1 L68.65 121.55 Q69.25 123.4 68.75 123.4 L67.55 124.1 66.75 124.8 63.15 124.9 Q62.2 124.85 61.0 123.95 L60.0 123.05 64.65 118.3 66.25 118.8 Q67.25 119.1 67.9 120.1" fill="#a4a4a8" fill-rule="evenodd" stroke="none"/>
      <path d="M82.0 123.0 L84.4 124.9 80.75 125.55 Q79.65 125.65 78.65 124.65 78.05 124.05 79.1 122.85 L80.25 121.8 82.0 123.0" fill="#a4a4a8" fill-rule="evenodd" stroke="none"/>
      <path d="M117.25 119.3 L117.75 118.15 Q118.4 116.95 119.0 116.55 120.0 115.9 121.65 115.8 L122.9 118.3 Q123.25 118.9 122.5 119.3 L120.0 119.8 118.3 119.55 117.25 119.3" fill="#a4a4a8" fill-rule="evenodd" stroke="none"/>
      <path d="M124.1 116.4 L124.65 115.65 Q126.0 115.55 127.15 117.4 L126.5 117.8 124.9 117.95 123.75 117.8 123.65 117.4 Q123.55 117.2 124.1 116.4" fill="#a4a4a8" fill-rule="evenodd" stroke="none"/>
      <path d="M128.5 108.4 Q129.5 108.15 130.25 109.15 L131.15 110.3 130.15 110.9 128.55 111.15 127.65 110.9 Q127.0 110.8 126.5 110.4 126.2 110.2 127.3 109.25 L128.5 108.4" fill="#83888c" fill-rule="evenodd" stroke="none"/>
      <path d="M137.75 106.55 Q138.7 106.6 139.05 107.2 L139.25 107.8 138.5 108.3 137.7 108.4 137.5 108.15 136.25 107.8 Q135.95 107.65 136.8 107.1 L137.75 106.55" fill="#a4a4a8" fill-rule="evenodd" stroke="none"/>
      <path d="M127.25 104.05 Q127.9 103.9 128.75 104.55 L129.5 105.8 128.75 106.15 127.35 106.3 126.5 106.15 126.25 105.65 Q126.1 105.35 126.65 104.65 L127.25 104.05" fill="#83888c" fill-rule="evenodd" stroke="none"/>
      <path d="M129.9 100.65 Q130.4 100.55 130.5 101.4 L129.9 102.15 129.15 101.8 Q128.7 101.55 129.25 101.1 L129.9 100.65" fill="#a4a4a8" fill-rule="evenodd" stroke="none"/>
      <path d="M30.5 111.4 Q30.4 110.3 30.9 109.8 31.2 109.5 31.9 109.25 L32.5 109.05 33.65 109.55 Q33.75 110.05 32.75 111.05 31.75 112.05 30.5 111.4" fill="#c9cacc" fill-rule="evenodd" stroke="none"/>
      <path d="M28.25 115.4 L28.15 115.05 Q28.2 114.7 28.65 114.55 L30.15 114.65 Q30.4 115.4 29.5 115.65 L28.55 115.6 28.25 115.4" fill="#c9cacc" fill-rule="evenodd" stroke="none"/>
      <path d="M36.5 116.65 L38.4 116.7 38.65 117.05 37.15 118.05 Q36.15 118.55 35.0 117.8 L34.95 117.4 Q35.2 116.9 36.5 116.65" fill="#c9cacc" fill-rule="evenodd" stroke="none"/>
      <path d="M42.25 116.55 Q43.25 116.05 44.0 116.3 L43.5 116.9 45.4 116.9 46.75 117.3 45.75 117.8 43.4 117.9 41.75 117.8 41.4 117.65 Q41.35 117.5 41.45 117.3 41.65 116.85 42.25 116.55" fill="#c9cacc" fill-rule="evenodd" stroke="none"/>
      <path d="M67.65 119.55 L66.65 120.4 Q66.0 120.65 65.15 121.4 L64.0 122.05 62.25 122.15 61.15 122.0 61.25 121.8 64.9 118.3 66.25 118.8 Q67.65 119.3 67.65 119.55" fill="#c9cacc" fill-rule="evenodd" stroke="none"/>
      <path d="M78.4 123.4 L80.25 121.8 81.15 124.15 79.75 124.3 Q78.9 124.35 78.55 123.9 L78.4 123.4" fill="#c9cacc" fill-rule="evenodd" stroke="none"/>
      <path d="M118.65 117.4 Q120.4 118.15 119.65 118.65 119.1 119.0 118.6 118.35 118.1 117.7 118.65 117.4" fill="#c9cacc" fill-rule="evenodd" stroke="none"/>
      <path d="M64.65 118.3 Q65.2 118.15 67.95 119.4 L66.95 120.25 Q65.4 121.65 64.4 122.1 L62.3 122.2 60.95 122.0 64.45 121.15 Q65.55 120.85 65.9 119.85 66.15 119.15 64.65 118.3" fill="#e3e4e6" fill-rule="evenodd" stroke="none"/>
      <path d="M55.45 121.5 Q54.15 124.0 52.8 124.15 51.95 124.3 50.55 123.5 L49.3 122.65 Q49.45 122.2 49.95 121.7 50.9 120.65 52.45 120.35 54.0 120.05 54.9 120.75 55.35 121.1 55.45 121.5" fill="#a4a4a8" fill-rule="evenodd" stroke="none"/>
      <path d="M48.15 122.85 Q48.3 124.65 47.3 124.65 L45.6 124.4 44.65 124.15 45.4 123.3 Q46.45 122.55 48.15 122.85" fill="#a4a4a8" fill-rule="evenodd" stroke="none"/>
      <path d="M32.15 118.85 Q30.95 121.0 29.3 121.0 28.25 121.0 27.85 120.0 L27.65 119.0 29.25 118.65 32.15 118.85" fill="#a4a4a8" fill-rule="evenodd" stroke="none"/>
      <path d="M28.25 115.4 Q29.8 116.05 29.0 116.9 28.25 117.65 27.15 117.65 26.4 117.65 25.7 117.15 L25.15 116.65 26.4 115.95 Q27.8 115.25 28.25 115.4" fill="#a4a4a8" fill-rule="evenodd" stroke="none"/>
      <path d="M24.3 111.65 L24.4 112.45 Q24.35 113.2 23.3 113.0 22.15 112.75 22.75 112.15 23.35 111.55 24.3 111.65" fill="#a4a4a8" fill-rule="evenodd" stroke="none"/>
      <path d="M73.65 125.0 Q74.95 127.65 74.3 128.35 73.15 129.5 67.95 129.5 L63.55 128.85 62.15 128.15 65.75 123.65 Q66.6 122.7 67.65 122.5 68.85 122.25 70.8 123.1 72.7 123.95 73.65 125.0" fill="#a4a4a8" fill-rule="evenodd" stroke="none"/>
      <path d="M92.95 123.15 L93.5 124.15 Q93.85 125.2 92.8 125.5 91.75 125.8 90.5 125.2 L89.45 124.5 90.8 121.65 91.45 121.95 92.95 123.15" fill="#a4a4a8" fill-rule="evenodd" stroke="none"/>
      <path d="M134.65 115.5 L134.75 116.4 Q134.6 117.3 133.45 117.15 132.15 117.05 132.95 116.15 133.7 115.25 134.65 115.5" fill="#a4a4a8" fill-rule="evenodd" stroke="none"/>
      <path d="M71.3 123.15 Q72.45 123.6 72.9 124.4 L72.2 124.65 Q73.45 125.15 73.2 125.4 L72.0 125.65 70.65 125.75 Q70.15 125.85 69.4 126.75 L68.55 126.9 66.9 126.6 Q66.0 126.4 65.2 125.85 L64.55 125.35 65.8 123.6 Q66.3 123.0 68.05 122.35 L71.3 123.15" fill="#c9cacc" fill-rule="evenodd" stroke="none"/>
      <path d="M49.3 122.65 L50.1 121.6 Q51.15 120.5 52.45 120.35 54.55 120.1 55.2 120.75 L53.9 121.1 Q53.55 121.15 53.1 121.55 L51.9 122.35 49.3 122.65" fill="#c9cacc" fill-rule="evenodd" stroke="none"/>
      <path d="M44.9 124.0 L44.65 124.15 44.8 123.75 45.9 122.9 48.15 122.85 Q47.3 123.6 46.55 123.75 L44.9 124.0" fill="#c9cacc" fill-rule="evenodd" stroke="none"/>
      <path d="M27.65 119.0 L29.65 118.6 32.15 118.85 30.4 119.4 Q29.8 120.0 29.2 120.0 28.85 120.0 28.2 119.5 L27.65 119.0" fill="#c9cacc" fill-rule="evenodd" stroke="none"/>
      <path d="M28.8 115.6 L28.9 115.8 28.65 116.3 27.9 116.6 26.7 116.85 25.55 116.9 25.15 116.65 25.55 116.3 Q26.1 115.95 26.8 115.65 L28.8 115.6" fill="#c9cacc" fill-rule="evenodd" stroke="none"/>
      <path d="M22.55 112.4 Q22.7 111.75 23.5 111.65 L24.3 111.65 24.25 111.9 23.8 112.4 Q23.3 112.85 22.55 112.4" fill="#c9cacc" fill-rule="evenodd" stroke="none"/>
    </g>
    <linearGradient gradientTransform="matrix(9.0E-4, 0.0053, 0.0053, -9.0E-4, 63.85, 112.85)" gradientUnits="userSpaceOnUse" id="gradient1" spreadMethod="pad" x1="-819.2" x2="819.2">
      <stop offset="0.0" stop-color="#92979c"/>
      <stop offset="1.0" stop-color="#e3e4e6"/>
    </linearGradient>
    <linearGradient gradientTransform="matrix(0.0011, 0.0063, 0.0065, -0.0011, 70.2, 99.2)" gradientUnits="userSpaceOnUse" id="gradient2" spreadMethod="pad" x1="-819.2" x2="819.2">
      <stop offset="0.0" stop-color="#92979c"/>
      <stop offset="1.0" stop-color="#e3e4e6"/>
    </linearGradient>
    <linearGradient gradientTransform="matrix(7.0E-4, 0.0043, 0.0044, -7.0E-4, 79.45, 113.75)" gradientUnits="userSpaceOnUse" id="gradient3" spreadMethod="pad" x1="-819.2" x2="819.2">
      <stop offset="0.0" stop-color="#92979c"/>
      <stop offset="1.0" stop-color="#e3e4e6"/>
    </linearGradient>
  </defs>
</svg>
