<?xml version="1.0" encoding="UTF-8" standalone="no"?>
<svg xmlns:xlink="http://www.w3.org/1999/xlink" height="217.05px" width="215.9px" xmlns="http://www.w3.org/2000/svg">
  <g transform="matrix(1.0, 0.0, 0.0, 1.0, 0.0, 0.0)">
    <use height="217.05" transform="matrix(1.0, 0.0, 0.0, 1.0, 0.0, 0.0)" width="215.9" xlink:href="#shape0"/>
  </g>
  <defs>
    <g id="shape0" transform="matrix(1.0, 0.0, 0.0, 1.0, 0.0, 0.0)">
      <path d="M168.95 205.15 Q169.05 203.15 172.35 201.75 175.75 200.3 177.8 201.5 179.5 202.5 177.8 204.0 L174.3 206.85 Q172.75 208.45 170.8 207.9 168.85 207.4 168.95 205.15" fill="#1f2433" fill-rule="evenodd" stroke="none"/>
      <path d="M148.0 48.95 Q148.1 46.95 151.4 45.55 154.75 44.1 156.8 45.3 158.5 46.3 156.85 47.8 L153.35 50.65 Q151.8 52.25 149.85 51.7 147.9 51.2 148.0 48.95" fill="#1f2433" fill-rule="evenodd" stroke="none"/>
      <path d="M139.95 119.55 Q140.5 116.55 142.75 113.95 145.1 111.3 147.35 111.3 149.35 111.35 150.75 112.7 L153.7 116.45 Q156.85 120.35 151.45 123.15 L142.4 127.05 Q139.15 128.4 139.0 125.75 139.0 125.25 139.95 119.55" fill="#1f2433" fill-rule="evenodd" stroke="none"/>
      <path d="M185.25 60.1 Q186.05 58.0 189.85 57.8 193.55 57.65 195.45 59.45 197.15 61.05 196.8 62.35 196.6 63.25 195.15 64.45 L192.95 66.45 Q191.4 67.7 189.15 68.75 187.05 69.7 187.1 68.65 L187.1 66.15 185.6 63.45 Q184.7 61.6 185.25 60.1" fill="#1f2433" fill-rule="evenodd" stroke="none"/>
      <path d="M169.0 64.85 Q170.7 62.45 174.35 61.75 L178.2 61.6 Q178.6 61.7 179.5 63.35 L181.55 67.0 Q183.5 70.15 180.6 77.05 178.75 81.55 175.3 86.15 174.1 87.75 172.8 85.6 L170.0 80.45 167.5 76.85 Q166.4 75.35 165.55 73.5 164.6 71.5 165.95 69.1 166.7 67.7 169.0 64.85" fill="#1f2433" fill-rule="evenodd" stroke="none"/>
      <path d="M81.4 27.0 Q82.4 24.15 84.05 21.5 86.05 18.4 86.7 20.05 89.45 26.75 90.5 31.75 91.1 34.3 88.55 36.7 L84.25 39.75 Q83.0 40.6 82.3 39.5 81.15 37.75 80.1 37.3 78.45 36.65 79.4 32.85 L81.4 27.0" fill="#1f2433" fill-rule="evenodd" stroke="none"/>
      <path d="M69.4 35.0 Q70.85 32.05 73.65 33.85 75.9 35.3 76.55 36.95 76.85 37.7 76.35 39.15 L75.1 41.4 73.2 43.15 70.85 43.3 Q69.55 42.4 69.0 39.85 68.4 37.05 69.4 35.0" fill="#1f2433" fill-rule="evenodd" stroke="none"/>
      <path d="M163.85 29.95 Q164.1 30.7 163.6 32.15 163.15 33.6 162.4 34.4 L160.5 36.15 158.15 36.3 Q156.85 35.4 156.3 32.85 155.7 30.1 156.7 28.0 158.15 25.05 160.95 26.85 163.2 28.3 163.85 29.95" fill="#1f2433" fill-rule="evenodd" stroke="none"/>
      <path d="M100.0 180.3 Q101.6 178.9 104.4 178.2 107.35 177.45 108.55 178.5 110.4 180.15 112.3 189.5 112.85 192.3 109.55 197.5 107.05 201.45 103.2 205.6 100.55 208.45 98.7 208.05 97.65 207.8 96.35 206.1 95.7 205.25 94.8 202.9 L92.9 198.0 Q91.85 195.7 92.45 194.2 L94.35 190.25 96.65 184.75 Q98.05 182.0 100.0 180.3" fill="#1f2433" fill-rule="evenodd" stroke="none"/>
      <path d="M101.95 63.8 Q102.7 65.9 102.9 68.6 L103.0 74.6 Q103.0 79.55 100.55 84.15 99.2 86.75 98.05 87.9 95.25 90.6 89.1 89.95 L83.55 88.8 82.15 88.95 Q79.4 89.4 76.75 86.25 L73.3 81.6 73.3 81.5 72.9 81.2 Q71.8 80.55 70.5 78.4 L68.55 75.4 Q67.7 74.45 67.5 72.9 L67.4 69.55 Q67.45 67.95 66.35 65.9 L64.15 62.2 63.45 60.3 Q63.25 59.1 63.65 57.4 L64.75 53.8 Q65.55 51.25 67.4 49.05 L67.75 48.65 Q70.55 45.65 74.75 43.95 78.5 42.45 80.55 42.9 L81.1 43.05 Q84.7 44.05 91.85 49.85 L93.35 51.2 Q96.05 53.8 100.25 60.3 101.35 61.95 102.0 63.75 L101.95 63.8" fill="#1f2433" fill-rule="evenodd" stroke="none"/>
      <path d="M69.5 85.15 Q69.95 82.75 71.65 83.15 73.0 83.45 73.75 84.65 L75.65 87.8 Q77.05 90.45 76.95 91.85 76.9 93.2 75.05 92.1 72.6 90.4 71.45 89.9 69.95 89.3 69.5 87.7 69.2 86.5 69.5 85.15" fill="#1f2433" fill-rule="evenodd" stroke="none"/>
      <path d="M103.0 143.65 Q103.9 143.1 108.1 143.55 112.7 144.0 114.6 145.35 116.6 146.8 117.65 150.3 118.65 153.55 118.35 156.55 117.85 162.1 114.7 164.55 113.6 165.35 112.1 163.4 110.25 161.05 109.2 160.9 107.75 160.65 106.85 159.8 L105.15 157.85 Q103.1 156.1 101.9 154.8 99.75 152.35 99.55 149.75 99.35 147.55 100.0 146.35 100.75 144.9 103.0 143.65" fill="#1f2433" fill-rule="evenodd" stroke="none"/>
      <path d="M93.75 147.15 Q94.3 145.7 96.1 147.4 96.7 147.9 97.0 148.8 L97.85 152.15 Q98.45 154.55 97.85 155.1 97.25 155.6 96.0 154.25 94.55 152.7 93.9 151.0 93.1 148.95 93.75 147.15" fill="#1f2433" fill-rule="evenodd" stroke="none"/>
      <path d="M137.55 0.9 Q138.15 1.4 138.45 2.3 L139.35 5.65 Q139.95 8.05 139.3 8.6 138.7 9.1 137.45 7.75 136.0 6.2 135.35 4.5 134.55 2.45 135.2 0.65 135.75 -0.8 137.55 0.9" fill="#1f2433" fill-rule="evenodd" stroke="none"/>
      <path d="M143.3 64.35 Q143.65 63.75 145.2 65.4 146.7 67.05 146.9 68.2 147.1 69.5 146.65 70.4 146.05 71.45 145.0 70.95 143.85 70.4 143.25 68.0 142.65 65.6 143.3 64.35" fill="#1f2433" fill-rule="evenodd" stroke="none"/>
      <path d="M62.9 66.45 Q63.25 65.5 64.1 66.15 65.0 66.75 64.85 68.2 64.65 69.7 63.55 68.7 62.45 67.65 62.9 66.45" fill="#1f2433" fill-rule="evenodd" stroke="none"/>
      <path d="M188.35 98.85 Q190.3 101.15 191.15 102.9 192.5 105.5 192.4 109.05 L192.2 115.3 Q193.35 128.85 188.35 129.7 185.7 130.1 182.05 128.55 178.9 127.2 176.55 125.15 172.8 121.9 168.9 116.15 167.4 113.8 167.8 111.05 L168.5 107.95 169.5 104.9 170.6 100.05 Q171.25 97.1 172.25 95.4 172.8 94.4 173.75 93.7 L175.55 92.4 177.8 90.25 Q179.2 89.0 180.5 89.15 182.05 89.35 183.4 91.55 L185.25 95.05 188.35 98.85" fill="#1f2433" fill-rule="evenodd" stroke="none"/>
      <path d="M105.95 66.7 Q106.8 65.4 108.45 67.35 110.1 69.25 108.15 70.95 106.15 72.65 105.45 70.55 104.75 68.45 105.95 66.7" fill="#1f2433" fill-rule="evenodd" stroke="none"/>
      <path d="M182.8 163.9 Q184.4 164.8 184.0 169.0 183.65 172.75 182.35 175.1 181.25 177.1 178.95 179.15 176.35 181.35 174.9 181.05 173.25 180.65 171.4 177.05 169.45 173.2 169.55 169.8 169.6 166.8 173.1 163.0 175.0 160.95 178.45 157.65 179.85 156.05 180.7 159.2 181.8 163.35 182.8 163.9" fill="#1f2433" fill-rule="evenodd" stroke="none"/>
      <path d="M200.9 85.75 Q199.0 86.15 197.55 84.85 195.45 82.95 198.6 76.8 199.8 74.35 204.3 76.15 205.65 76.7 205.5 79.25 205.35 81.7 203.95 83.7 202.75 85.4 200.9 85.75" fill="#1f2433" fill-rule="evenodd" stroke="none"/>
      <path d="M36.2 163.6 Q35.8 165.65 34.25 166.7 32.65 167.85 30.8 167.2 28.1 166.35 28.55 159.45 28.75 156.65 33.55 156.55 35.0 156.5 35.85 158.9 36.7 161.25 36.2 163.6" fill="#1f2433" fill-rule="evenodd" stroke="none"/>
      <path d="M75.95 114.35 Q76.65 111.95 79.75 108.85 82.4 106.2 83.25 106.0 83.8 105.9 88.05 110.15 92.7 114.75 95.1 118.2 97.5 121.6 97.45 125.85 97.45 128.1 96.2 135.15 95.25 140.4 91.9 144.35 88.8 148.0 84.45 149.45 81.25 150.5 80.65 146.35 79.6 138.85 78.95 137.45 L76.4 131.2 Q75.4 128.6 74.05 126.3 72.55 123.8 73.55 120.8 75.2 117.05 75.95 114.35" fill="#1f2433" fill-rule="evenodd" stroke="none"/>
      <path d="M147.4 17.3 L148.4 23.35 Q148.95 25.45 148.15 29.6 147.45 33.0 147.0 33.7 146.7 34.1 142.2 33.75 137.3 33.4 134.35 32.45 131.4 31.5 129.7 28.5 128.85 27.0 126.85 21.2 125.35 16.9 125.95 12.1 126.55 7.55 128.8 3.9 130.45 1.2 132.5 3.75 136.2 8.35 137.2 8.95 138.65 9.85 141.35 11.8 143.05 13.0 144.85 13.75 146.85 14.6 147.4 17.3" fill="#1f2433" fill-rule="evenodd" stroke="none"/>
      <path d="M148.9 146.7 Q147.8 146.25 148.65 144.35 149.45 142.3 151.5 141.65 L154.3 141.6 Q154.9 142.1 155.05 143.65 155.15 145.0 152.85 146.2 150.5 147.4 148.9 146.7" fill="#1f2433" fill-rule="evenodd" stroke="none"/>
      <path d="M178.65 144.1 Q177.65 140.6 178.55 137.9 179.45 135.05 181.8 136.5 183.6 137.65 184.65 140.6 185.55 143.2 186.25 143.35 187.25 143.55 188.55 145.3 L191.55 149.55 Q193.7 152.35 193.8 154.35 193.9 156.65 191.6 159.5 190.7 160.6 187.7 158.85 L183.2 156.05 Q181.85 155.35 180.55 151.3 L178.65 144.1" fill="#1f2433" fill-rule="evenodd" stroke="none"/>
      <path d="M174.05 186.65 Q174.4 185.0 176.4 183.85 L180.9 181.85 Q183.1 180.9 183.65 182.0 L185.0 185.9 Q186.15 188.3 183.9 191.8 181.95 194.8 179.05 196.6 176.5 198.3 175.8 196.1 L174.55 191.65 Q173.7 188.25 174.05 186.65" fill="#1f2433" fill-rule="evenodd" stroke="none"/>
      <path d="M135.35 176.25 Q134.45 176.9 133.8 174.45 133.2 172.0 134.5 171.5 136.0 170.9 136.55 172.9 137.1 174.95 135.35 176.25" fill="#1f2433" fill-rule="evenodd" stroke="none"/>
      <path d="M129.25 195.3 Q128.7 189.1 131.8 184.3 134.4 180.3 137.05 179.9 138.6 179.7 140.95 184.6 143.95 190.8 145.2 192.1 147.15 194.2 147.4 197.8 L147.65 203.55 Q149.15 212.65 145.75 215.75 142.85 218.35 138.55 215.8 134.95 213.75 132.4 207.95 129.85 202.3 129.25 195.3" fill="#1f2433" fill-rule="evenodd" stroke="none"/>
      <path d="M200.05 188.65 Q197.8 186.5 195.6 187.2 192.45 188.15 191.75 174.8 191.6 172.2 193.9 166.3 196.45 159.7 199.55 156.7 202.35 153.95 203.95 156.7 204.85 158.35 206.45 162.7 L209.7 169.7 Q211.8 174.6 212.4 175.6 213.15 176.9 211.5 181.4 L208.45 189.4 Q206.75 194.8 205.05 195.8 203.5 196.7 202.85 193.65 202.2 190.65 200.05 188.65" fill="#1f2433" fill-rule="evenodd" stroke="none"/>
      <path d="M169.1 164.85 Q168.65 166.6 166.55 168.75 164.3 171.0 163.55 169.7 L161.2 165.65 Q159.75 162.7 160.5 161.1 161.25 159.4 162.8 158.7 163.65 158.25 165.6 157.95 167.1 157.65 168.4 159.7 169.75 161.95 169.1 164.85" fill="#1f2433" fill-rule="evenodd" stroke="none"/>
      <path d="M29.55 112.3 Q29.1 114.1 27.0 116.25 24.75 118.45 24.0 117.15 L21.65 113.1 Q20.2 110.15 20.95 108.55 21.7 106.9 23.25 106.15 24.0 105.8 26.05 105.4 27.6 105.15 28.85 107.2 30.25 109.4 29.55 112.3" fill="#1f2433" fill-rule="evenodd" stroke="none"/>
      <path d="M197.7 98.3 Q198.3 94.75 200.15 91.8 202.05 88.8 204.85 85.6 208.25 81.75 210.0 81.35 211.5 81.0 212.55 84.5 214.15 89.85 214.65 90.75 216.05 93.25 215.9 96.8 215.75 99.55 214.55 103.75 212.65 110.4 206.55 110.8 200.75 111.15 198.65 106.55 196.95 102.75 197.7 98.3" fill="#1f2433" fill-rule="evenodd" stroke="none"/>
      <path d="M54.75 96.3 Q54.8 93.3 58.3 89.5 L63.65 84.15 Q65.05 82.55 65.9 85.7 67.0 89.85 68.0 90.4 69.6 91.3 69.25 95.5 68.9 99.25 67.55 101.6 66.45 103.6 64.15 105.65 61.55 107.85 60.15 107.55 58.5 107.15 56.65 103.55 54.7 99.75 54.75 96.3" fill="#1f2433" fill-rule="evenodd" stroke="none"/>
      <path d="M47.8 140.8 Q49.0 138.35 53.5 140.15 54.85 140.7 54.7 143.25 54.55 145.7 53.2 147.7 52.0 149.4 50.15 149.75 48.2 150.15 46.75 148.85 44.65 146.95 47.8 140.8" fill="#1f2433" fill-rule="evenodd" stroke="none"/>
      <path d="M165.5 80.6 Q166.9 83.85 168.8 86.6 170.9 89.65 169.65 93.75 L166.55 102.6 Q165.7 105.85 161.55 110.4 158.0 114.25 156.9 114.6 156.15 114.85 150.2 109.95 143.85 104.65 140.45 100.45 137.15 96.35 137.05 90.75 137.0 87.95 138.55 78.45 139.7 71.4 144.1 65.75 148.3 60.45 154.1 57.95 158.45 56.1 159.35 61.45 L160.1 66.95 Q160.65 70.55 161.85 72.8 L165.5 80.6" fill="#1f2433" fill-rule="evenodd" stroke="none"/>
      <path d="M38.25 76.2 Q36.45 74.45 36.35 72.15 36.3 69.85 37.15 69.35 L39.45 69.5 Q40.85 70.0 41.4 72.85 41.9 75.7 40.7 77.05 39.95 77.9 38.25 76.2" fill="#1f2433" fill-rule="evenodd" stroke="none"/>
      <path d="M125.65 33.55 Q124.9 34.4 123.2 32.7 121.4 30.95 121.35 28.65 121.25 26.35 122.15 25.85 L124.4 26.0 Q125.8 26.5 126.35 29.35 126.85 32.2 125.65 33.55" fill="#1f2433" fill-rule="evenodd" stroke="none"/>
      <path d="M90.5 209.45 Q90.7 210.45 86.8 210.8 L80.85 211.1 Q79.15 211.3 74.65 209.4 L66.95 205.95 Q63.2 204.3 61.65 202.3 59.95 200.2 63.05 200.05 65.5 199.95 68.8 201.2 71.8 202.35 72.45 202.15 L75.95 202.3 82.0 203.5 Q86.05 204.2 87.85 205.35 89.95 206.7 90.5 209.45" fill="#1f2433" fill-rule="evenodd" stroke="none"/>
      <path d="M126.2 97.65 Q129.6 94.45 131.35 96.15 L136.7 102.7 Q140.65 106.45 138.9 114.6 137.4 121.6 133.25 127.0 129.65 131.8 126.9 128.15 L121.3 120.6 Q117.35 114.65 116.85 111.4 116.35 108.0 119.2 104.5 L126.2 97.65" fill="#1f2433" fill-rule="evenodd" stroke="none"/>
      <path d="M80.4 164.75 Q79.5 165.4 78.85 162.95 78.25 160.5 79.55 160.0 81.05 159.4 81.6 161.4 82.15 163.45 80.4 164.75" fill="#1f2433" fill-rule="evenodd" stroke="none"/>
      <path d="M19.35 134.6 Q18.65 135.85 16.75 133.3 14.9 130.75 16.15 129.5 17.6 128.0 19.2 130.05 20.75 132.15 19.35 134.6" fill="#1f2433" fill-rule="evenodd" stroke="none"/>
      <path d="M144.85 11.25 Q143.95 11.9 143.3 9.45 142.7 7.0 144.0 6.5 145.5 5.9 146.05 7.9 146.6 9.95 144.85 11.25" fill="#1f2433" fill-rule="evenodd" stroke="none"/>
      <path d="M0.4 134.4 Q1.5 129.2 3.95 127.5 5.35 126.55 9.4 130.25 14.5 134.9 16.2 135.6 18.85 136.65 20.4 140.15 L22.65 145.7 Q27.35 153.95 25.1 158.65 23.25 162.65 18.15 162.25 13.95 161.9 9.4 157.45 4.95 153.1 1.85 146.5 -0.9 140.65 0.4 134.4" fill="#1f2433" fill-rule="evenodd" stroke="none"/>
      <path d="M20.3 88.8 Q20.15 86.2 22.45 80.3 25.0 73.7 28.1 70.7 30.9 67.95 32.5 70.7 L35.0 76.7 38.25 83.7 Q40.35 88.6 40.95 89.6 41.7 90.9 40.05 95.4 L37.0 103.4 Q35.3 108.8 33.6 109.8 32.05 110.7 31.35 107.65 30.7 104.65 28.6 102.65 26.35 100.5 24.15 101.2 21.0 102.15 20.3 88.8" fill="#1f2433" fill-rule="evenodd" stroke="none"/>
      <path d="M70.85 122.3 Q70.45 124.1 68.35 126.25 66.1 128.45 65.35 127.15 L63.0 123.1 Q61.55 120.15 62.3 118.55 63.05 116.9 64.6 116.15 65.35 115.8 67.4 115.4 68.95 115.15 70.2 117.2 71.55 119.4 70.85 122.3" fill="#1f2433" fill-rule="evenodd" stroke="none"/>
      <path d="M171.35 192.2 Q172.2 198.3 171.75 198.7 169.95 200.05 167.3 203.2 164.9 205.3 161.55 203.65 157.7 201.7 153.95 198.1 150.6 194.9 148.0 191.05 146.2 188.35 143.75 182.9 L140.6 176.2 Q139.25 174.1 139.25 170.35 139.3 166.55 140.75 164.2 142.05 162.15 146.85 164.65 L155.65 170.0 163.05 174.0 Q166.65 176.3 168.45 180.75 170.35 185.35 171.35 192.2" fill="#1f2433" fill-rule="evenodd" stroke="none"/>
      <path d="M106.0 91.5 Q105.35 93.75 103.3 93.9 101.35 94.0 100.65 92.45 99.6 90.1 101.15 87.5 L102.75 85.4 Q103.9 84.15 104.45 84.0 104.95 83.9 105.35 85.05 L106.05 87.15 Q106.8 88.6 106.0 91.5" fill="#1f2433" fill-rule="evenodd" stroke="none"/>
      <path d="M58.45 141.55 Q60.1 134.9 61.3 133.6 62.25 132.6 64.85 133.05 L69.85 134.1 Q72.25 134.55 73.75 137.8 74.85 140.25 75.35 143.9 76.2 149.65 74.35 155.45 73.6 157.7 71.1 157.3 L64.65 156.5 Q61.0 156.65 59.65 155.1 59.05 154.4 57.5 150.25 56.75 148.4 58.45 141.55" fill="#1f2433" fill-rule="evenodd" stroke="none"/>
      <path d="M49.0 192.1 Q47.15 191.45 46.75 187.85 46.3 184.25 48.05 182.6 49.5 181.25 50.45 183.3 L52.2 187.5 Q53.3 189.45 52.2 191.15 51.1 192.85 49.0 192.1" fill="#1f2433" fill-rule="evenodd" stroke="none"/>
      <path d="M41.3 163.3 Q40.6 160.35 41.65 157.05 42.75 153.7 44.85 152.85 L48.5 152.75 52.7 155.05 Q57.15 157.45 53.25 162.1 L46.5 169.25 Q44.05 171.75 42.85 169.35 L41.3 163.3" fill="#1f2433" fill-rule="evenodd" stroke="none"/>
      <path d="M122.95 38.7 Q123.85 33.25 131.7 34.9 L136.95 36.1 144.2 38.1 Q148.6 39.35 146.1 41.6 L139.1 45.95 Q135.65 48.0 130.9 48.5 126.05 49.0 123.95 47.4 122.1 45.95 122.1 43.9 L122.95 38.7" fill="#1f2433" fill-rule="evenodd" stroke="none"/>
      <path d="M83.05 167.2 Q84.35 163.65 90.7 163.35 96.95 163.05 100.15 166.05 102.95 168.7 102.4 170.95 102.05 172.45 99.65 174.5 L95.95 177.9 Q93.4 179.95 89.6 181.65 86.05 183.25 86.1 181.5 L86.35 179.5 Q86.5 178.15 86.15 177.35 L83.6 172.8 Q82.1 169.7 83.05 167.2" fill="#1f2433" fill-rule="evenodd" stroke="none"/>
      <path d="M52.6 165.9 Q56.25 155.75 66.15 159.1 74.35 161.85 79.1 169.15 82.25 173.95 83.15 180.35 83.85 185.35 83.1 188.4 82.9 189.25 82.8 194.35 82.75 198.3 81.6 199.15 80.4 200.05 76.9 199.5 L69.35 198.15 Q64.1 197.45 60.65 195.6 56.1 193.15 55.1 188.9 54.15 185.0 52.95 182.65 L49.85 177.15 Q48.2 173.95 49.6 171.2 51.85 168.1 52.6 165.9" fill="#1f2433" fill-rule="evenodd" stroke="none"/>
    </g>
  </defs>
</svg>
