<?xml version="1.0" encoding="UTF-8" standalone="no"?>
<svg xmlns:xlink="http://www.w3.org/1999/xlink" height="80.0px" width="85.0px" xmlns="http://www.w3.org/2000/svg">
  <g transform="matrix(1.0, 0.0, 0.0, 1.0, 0.0, 0.0)">
    <use height="42.55" transform="matrix(1.0, 0.0, 0.0, 1.0, 0.7, 0.3)" width="43.4" xlink:href="#shape0"/>
  </g>
  <defs>
    <g id="shape0" transform="matrix(1.0, 0.0, 0.0, 1.0, -0.7, -0.3)">
      <path d="M31.85 13.85 L32.6 13.45 36.85 8.7 Q38.3 6.95 40.55 3.0 L40.85 2.45 40.5 2.2 Q41.25 2.6 41.85 3.1 L43.1 4.4 Q43.8 5.45 43.9 6.4 L43.55 8.1 43.4 8.3 43.55 8.05 43.8 6.85 40.95 10.55 40.9 10.6 40.75 10.65 39.85 11.1 39.6 11.2 39.25 11.35 37.85 11.85 37.65 11.95 34.75 12.85 32.8 13.55 32.5 13.65 31.85 13.85 M39.6 11.2 L40.15 10.6 43.4 6.6 43.75 6.0 43.55 5.3 43.2 5.95 43.15 6.05 41.05 8.9 37.85 11.8 39.6 11.2 M41.85 3.1 L41.7 3.3 41.5 3.65 41.45 3.65 36.75 9.7 33.9 13.05 35.2 12.6 42.1 4.2 42.5 3.7 41.85 3.1 M40.2 2.1 L39.85 2.6 39.8 2.65 38.6 4.6 36.4 8.25 34.35 11.0 34.0 11.35 33.4 12.0 31.3 14.05 31.25 14.1 31.8 13.85 28.8 15.45 28.15 15.95 33.4 9.6 34.05 8.85 34.3 8.5 35.25 8.15 Q36.15 7.8 36.65 7.3 L37.2 6.05 36.95 5.15 37.55 4.35 39.05 2.25 39.35 1.7 40.2 2.1 M39.15 1.6 L38.8 1.5 36.1 5.5 Q36.4 4.85 35.95 4.2 L35.65 3.85 35.6 3.8 37.25 1.75 37.3 1.7 37.7 1.15 39.15 1.6 M35.45 6.35 L34.95 6.95 34.35 7.6 32.25 8.05 32.5 7.7 32.65 7.6 34.0 7.25 34.1 7.2 35.45 6.35 M35.45 7.1 L36.6 5.7 36.65 5.6 36.9 5.25 36.75 5.85 36.3 6.45 35.45 7.1 M35.65 0.7 L35.85 0.7 37.05 1.0 35.05 3.4 34.05 3.05 33.9 3.0 35.25 1.35 35.3 1.3 35.65 0.7 M34.85 0.55 L34.5 1.2 33.65 2.6 30.9 2.3 30.55 2.3 32.15 0.35 31.1 0.3 30.7 0.95 29.7 2.35 28.6 2.6 27.15 3.1 26.35 3.5 28.8 0.45 28.15 0.5 31.1 0.3 34.85 0.55 M33.6 2.65 L33.45 2.85 33.4 2.85 33.1 2.8 Q31.8 2.65 30.5 2.8 L30.1 2.85 30.35 2.6 30.7 2.6 31.2 2.55 33.6 2.65 M33.45 8.65 L33.15 9.0 30.75 11.75 29.25 13.55 26.9 16.05 26.4 15.95 26.3 15.95 25.65 15.8 28.05 13.05 31.45 9.0 31.7 8.65 33.45 8.65 M31.2 7.9 L30.9 8.15 29.95 8.3 30.7 8.45 24.45 15.5 24.55 15.55 25.5 15.75 25.6 15.8 24.55 15.55 24.5 15.55 22.7 15.2 22.65 15.2 22.15 15.1 22.1 15.05 20.0 14.6 20.05 14.6 26.1 7.35 26.3 7.5 26.5 7.6 26.35 7.45 26.25 7.25 26.65 6.75 Q27.25 7.4 28.6 7.75 L28.4 8.0 26.0 10.6 22.05 15.0 22.2 15.05 22.65 15.15 22.7 15.15 25.55 12.15 29.35 8.15 29.5 7.95 29.6 7.85 31.2 7.9 M29.45 2.75 L29.25 3.0 29.1 3.1 Q27.5 3.55 26.7 4.35 L26.65 4.4 Q26.0 5.1 26.1 5.75 L26.35 6.4 26.3 6.35 26.0 6.75 25.85 6.4 25.75 5.85 Q25.6 4.8 26.45 4.05 L27.25 3.5 Q28.15 3.0 29.45 2.75 M26.15 0.9 L25.45 1.1 19.0 8.65 19.05 9.65 19.15 9.6 19.25 9.5 25.55 1.7 25.55 1.65 26.15 0.9 26.4 0.85 28.15 0.5 27.65 1.25 23.9 5.8 19.25 11.25 19.05 11.45 18.95 11.75 19.0 11.15 18.95 7.5 19.0 7.2 23.4 1.8 26.15 0.9 M25.0 5.15 L25.0 5.4 25.25 6.05 25.8 6.95 19.05 14.35 18.75 14.3 18.0 14.15 18.7 12.55 18.75 12.4 19.1 12.0 25.0 5.15 M23.4 1.8 L22.6 2.25 20.9 4.1 20.45 4.65 19.25 5.9 Q19.65 4.7 20.75 3.6 21.8 2.55 23.4 1.8" fill="url(#gradient0)" fill-rule="evenodd" stroke="none"/>
      <path d="M40.5 2.2 L40.85 2.45 40.55 3.0 Q38.3 6.95 36.85 8.7 L32.6 13.45 31.85 13.85 31.8 13.85 31.25 14.1 31.3 14.05 33.4 12.0 34.0 11.35 34.35 11.0 36.4 8.25 38.6 4.6 39.8 2.65 39.85 2.6 40.2 2.1 40.2 2.05 40.5 2.2 M39.6 11.2 L37.85 11.8 41.05 8.9 43.15 6.05 43.2 5.95 43.55 5.3 43.75 6.0 43.4 6.6 40.15 10.6 39.6 11.2 M40.95 10.55 L43.8 6.85 43.55 8.05 43.4 8.3 43.15 8.65 42.85 9.05 42.45 9.45 42.2 9.7 42.15 9.7 42.1 9.75 42.05 9.75 41.95 9.85 41.05 10.45 40.95 10.55 M41.85 3.1 L42.5 3.7 42.1 4.2 35.2 12.6 33.9 13.05 36.75 9.7 41.45 3.65 41.5 3.65 41.7 3.3 41.85 3.1" fill="#684a1b" fill-rule="evenodd" stroke="none"/>
      <path d="M31.85 13.85 L32.5 13.65 32.8 13.55 32.6 13.65 Q29.85 15.9 30.1 17.05 30.25 17.75 30.65 18.1 30.95 18.45 31.45 18.45 32.25 18.5 34.4 17.6 L39.0 16.1 Q42.1 14.85 42.75 12.85 43.55 10.4 42.45 9.45 L42.85 9.05 43.15 8.65 43.4 8.3 43.55 8.1 43.9 6.4 44.1 12.1 44.05 12.15 Q43.9 13.2 43.2 14.0 41.6 15.9 38.05 17.0 L32.0 19.05 30.7 19.75 30.2 20.0 29.95 20.15 29.1 20.65 28.0 21.4 27.95 21.4 27.95 21.2 27.95 21.15 27.7 17.5 27.7 17.4 27.7 17.15 27.7 17.1 27.7 16.25 28.1 15.95 28.15 15.95 28.8 15.45 31.8 13.85 31.85 13.85 M36.1 5.5 L36.05 5.6 35.9 5.85 35.85 5.9 35.75 6.05 35.45 6.35 34.1 7.2 34.25 5.4 33.7 3.55 33.7 3.5 33.55 3.25 33.55 3.2 33.5 3.2 33.45 3.1 33.1 2.8 33.4 2.85 33.45 2.85 33.85 3.0 33.9 3.0 34.05 3.05 35.05 3.4 35.0 3.4 35.6 3.8 35.65 3.85 35.95 4.2 Q36.4 4.85 36.1 5.5 M29.1 3.1 L29.6 3.0 29.4 3.25 29.2 3.6 Q28.7 4.4 28.6 5.2 L28.6 6.25 Q28.8 7.4 29.25 7.8 L28.95 7.8 28.8 7.75 28.6 7.65 28.6 7.75 Q27.25 7.4 26.65 6.75 L26.35 6.4 26.1 5.75 Q26.0 5.1 26.65 4.4 L26.7 4.35 Q27.5 3.55 29.1 3.1" fill="#35260d" fill-rule="evenodd" stroke="none"/>
      <path d="M32.8 13.55 L34.75 12.85 37.65 11.95 37.85 11.85 39.25 11.35 39.6 11.2 39.85 11.1 40.75 10.65 40.9 10.6 40.95 10.55 41.05 10.45 41.95 9.85 42.05 9.75 42.1 9.75 42.15 9.7 42.2 9.7 42.45 9.45 Q43.55 10.4 42.75 12.85 42.1 14.85 39.0 16.1 L34.4 17.6 Q32.25 18.5 31.45 18.45 30.95 18.45 30.65 18.1 30.25 17.75 30.1 17.05 29.85 15.9 32.6 13.65 L32.8 13.55 M30.1 2.85 L30.5 2.8 Q31.8 2.65 33.1 2.8 L33.45 3.1 33.5 3.2 33.55 3.2 33.55 3.25 33.7 3.5 33.7 3.55 34.25 5.4 34.1 7.2 34.0 7.25 32.65 7.6 32.5 7.7 32.5 7.65 32.4 7.75 32.35 7.75 31.2 7.85 31.2 7.9 29.6 7.85 29.25 7.8 Q28.8 7.4 28.6 6.25 L28.6 5.2 Q28.7 4.4 29.2 3.6 L29.4 3.25 29.6 3.0 30.1 2.85" fill="#402e11" fill-rule="evenodd" stroke="none"/>
      <path d="M41.3 30.2 L40.55 30.7 39.55 30.55 39.55 30.5 Q39.5 30.0 39.8 29.9 40.05 29.8 40.4 30.1 L41.35 30.1 41.3 30.2" fill="url(#gradient1)" fill-rule="evenodd" stroke="none"/>
      <path d="M41.3 30.2 L41.45 30.2 Q41.2 30.85 40.6 30.9 L39.55 30.75 39.55 30.55 40.55 30.7 41.3 30.2 M36.3 19.5 L38.6 19.65 38.5 19.25 38.55 19.35 38.7 19.4 39.15 20.0 39.0 19.95 38.85 19.75 39.0 20.3 36.15 20.1 Q36.1 19.75 36.3 19.5 M30.75 23.7 L31.75 24.25 33.65 23.75 32.9 22.2 32.95 22.15 33.8 24.05 31.8 24.7 30.5 23.85 30.75 23.7 M39.05 24.75 L39.5 25.0 Q39.25 25.8 38.1 25.9 L37.1 25.85 37.5 26.35 37.35 26.3 37.25 26.1 37.35 26.65 34.7 26.45 34.55 26.35 34.5 26.35 Q34.5 26.05 34.65 25.85 L36.95 26.0 36.8 25.5 36.95 25.7 37.1 25.75 36.7 25.25 37.75 25.25 Q38.65 25.2 39.05 24.75 M9.8 18.3 L9.15 17.7 8.95 17.45 9.9 18.25 9.8 18.3 M12.7 16.85 L12.85 17.0 Q13.15 17.4 12.95 17.7 L12.45 18.1 12.0 17.9 11.3 17.95 12.6 17.0 12.7 16.85 M4.25 18.9 L5.2 19.05 5.95 18.55 6.15 18.55 Q5.85 19.2 5.3 19.25 L4.25 19.1 4.25 18.9 M3.75 19.45 L4.2 19.7 Q3.9 20.5 2.75 20.6 1.7 20.7 1.1 20.25 L1.25 19.95 2.4 20.0 Q3.35 19.9 3.75 19.45 M16.3 15.7 L16.4 16.55 Q15.7 17.2 15.05 16.95 14.4 16.65 14.1 15.55 L16.3 15.7 M17.5 19.1 L16.7 18.95 Q16.95 18.1 17.65 17.9 L17.65 18.6 17.5 19.1 M32.4 35.35 L33.4 35.9 35.3 35.4 34.55 33.85 34.6 33.8 35.45 35.7 33.45 36.35 32.15 35.5 32.4 35.35" fill="#513a15" fill-rule="evenodd" stroke="none"/>
      <path d="M36.1 5.5 L38.8 1.5 39.15 1.6 39.35 1.65 39.35 1.7 39.05 2.25 37.55 4.35 36.95 5.15 36.9 4.85 36.9 5.25 36.65 5.6 36.6 5.7 35.45 7.1 35.4 7.1 35.35 7.2 35.35 7.25 34.5 7.55 34.35 7.6 34.95 6.95 35.45 6.35 35.75 6.05 35.85 5.9 35.9 5.85 36.05 5.6 36.1 5.5 M37.7 1.15 L37.3 1.7 37.25 1.75 35.6 3.8 35.0 3.4 35.05 3.4 37.05 1.0 37.05 0.95 37.7 1.1 37.7 1.15 M35.65 0.7 L35.3 1.3 35.25 1.35 33.9 3.0 33.85 3.0 33.45 2.85 33.6 2.65 33.8 2.65 33.65 2.6 34.5 1.2 34.85 0.55 35.05 0.6 35.25 0.6 35.65 0.65 35.65 0.7 M32.5 7.7 L32.25 8.05 32.2 8.05 32.1 8.05 32.05 8.05 30.9 8.15 31.2 7.9 31.2 7.85 32.35 7.75 32.4 7.75 32.5 7.65 32.5 7.7 M26.9 16.05 L29.25 13.55 30.75 11.75 33.15 9.0 33.45 8.65 34.3 8.5 34.05 8.85 33.4 9.6 28.15 15.95 28.1 15.95 27.7 16.25 27.65 16.25 26.9 16.05 M31.7 8.65 L31.45 9.0 28.05 13.05 25.65 15.8 25.6 15.8 25.5 15.75 24.55 15.55 24.45 15.5 30.7 8.45 30.8 8.5 31.6 8.65 31.7 8.65 M29.25 7.8 L29.6 7.85 29.5 7.95 29.35 8.15 25.55 12.15 22.7 15.15 22.65 15.15 22.2 15.05 22.05 15.0 26.0 10.6 28.4 8.0 28.6 7.75 28.6 7.65 28.8 7.75 28.95 7.8 29.25 7.8" fill="#74521f" fill-rule="evenodd" stroke="none"/>
      <path d="M34.35 7.6 L34.5 7.55 35.35 7.25 35.35 7.2 35.4 7.1 35.45 7.1 36.3 6.45 36.75 5.85 36.9 5.25 36.9 4.85 36.95 5.15 37.2 6.05 36.65 7.3 Q36.15 7.8 35.25 8.15 L34.3 8.5 33.45 8.65 31.7 8.65 31.6 8.65 30.8 8.5 30.7 8.45 29.95 8.3 30.9 8.15 32.05 8.05 32.1 8.05 32.2 8.05 32.25 8.05 34.35 7.6" fill="url(#gradient2)" fill-rule="evenodd" stroke="none"/>
      <path d="M33.65 2.6 L33.8 2.65 33.6 2.65 31.2 2.55 30.7 2.6 30.35 2.6 29.8 2.7 29.45 2.75 Q28.15 3.0 27.25 3.5 L26.45 4.05 Q25.6 4.8 25.75 5.85 L25.85 6.4 26.0 6.75 26.1 6.95 26.25 7.25 26.35 7.45 26.5 7.6 26.3 7.5 26.1 7.35 25.8 6.95 25.25 6.05 25.0 5.4 25.0 5.15 25.0 5.0 Q25.05 4.55 25.55 4.05 L26.2 3.6 26.35 3.5 27.15 3.1 28.6 2.6 29.7 2.35 30.1 2.35 30.55 2.3 30.9 2.3 33.65 2.6" fill="#a47b3e" fill-rule="evenodd" stroke="none"/>
      <path d="M29.7 2.35 L30.7 0.95 31.1 0.3 32.15 0.35 30.55 2.3 30.1 2.35 29.7 2.35 M30.35 2.6 L30.1 2.85 29.6 3.0 29.1 3.1 29.25 3.0 29.45 2.75 29.8 2.7 30.35 2.6 M28.15 0.5 L28.8 0.45 26.35 3.5 26.2 3.6 25.55 4.05 Q25.05 4.55 25.0 5.0 L25.0 5.15 19.1 12.0 18.75 12.4 18.95 11.75 19.05 11.45 19.25 11.25 23.9 5.8 27.65 1.25 28.15 0.5 M25.8 6.95 L26.1 7.35 20.05 14.6 20.0 14.6 19.95 14.6 19.9 14.55 19.8 14.5 19.05 14.35 25.8 6.95 M26.25 7.25 L26.1 6.95 26.0 6.75 26.3 6.35 26.35 6.4 26.65 6.75 26.25 7.25" fill="#876128" fill-rule="evenodd" stroke="none"/>
      <path d="M26.15 0.9 L25.55 1.65 25.55 1.7 19.25 9.5 19.15 9.6 19.05 9.65 19.0 8.65 25.45 1.1 26.15 0.9 M23.4 1.8 L19.0 7.2 18.95 7.2 Q19.0 6.45 19.2 6.0 L19.25 5.9 20.45 4.65 20.9 4.1 22.6 2.25 23.4 1.8" fill="#8c652a" fill-rule="evenodd" stroke="none"/>
      <path d="M26.4 15.95 L26.9 16.05 27.65 16.25 27.7 16.25 27.7 17.1 27.7 17.15 27.3 17.15 27.25 17.15 27.1 17.0 27.0 16.9 26.6 16.6 26.4 16.25 26.4 16.0 26.4 15.95 M25.6 15.8 L25.5 16.05 25.5 16.1 25.15 16.2 25.0 16.2 24.25 16.0 24.2 15.95 22.6 15.5 21.95 15.3 20.0 14.8 19.25 14.6 19.05 14.5 18.8 14.35 18.75 14.3 19.05 14.35 19.8 14.5 19.9 14.55 19.95 14.6 20.0 14.6 22.1 15.05 22.15 15.1 22.65 15.2 22.7 15.2 24.5 15.55 24.55 15.55 25.6 15.8" fill="#bd9453" fill-rule="evenodd" stroke="none"/>
      <path d="M26.3 15.95 L26.4 15.95 26.4 16.0 26.3 15.95 M26.6 16.6 L27.0 16.9 27.1 17.0 27.25 17.15 27.3 17.5 27.25 17.4 27.1 17.0 26.95 16.95 26.9 16.9 27.3 21.1 27.3 21.3 27.45 21.35 25.7 21.0 26.55 21.15 26.55 21.0 26.55 20.45 26.35 19.15 26.3 18.95 26.0 18.25 25.8 17.9 25.6 17.4 25.55 16.35 25.0 16.2 25.15 16.2 25.5 16.1 25.5 16.05 25.6 15.8 25.6 15.85 25.55 16.35 25.6 16.4 26.55 16.6 26.6 16.6 M20.0 14.8 L21.95 15.3 21.75 15.8 22.3 15.95 22.8 16.05 22.8 16.0 22.6 15.5 24.2 15.95 24.0 17.25 24.0 17.3 23.3 17.15 22.8 17.0 21.9 16.85 21.7 16.75 21.35 16.6 20.8 16.4 20.55 16.35 20.25 16.4 20.15 16.55 19.95 17.15 19.95 18.2 19.95 18.25 20.0 18.45 19.65 18.2 19.45 18.1 19.35 19.45 19.3 19.5 19.3 19.6 18.25 19.4 18.0 14.15 18.55 14.5 19.05 14.7 19.05 15.55 19.95 15.55 20.0 14.95 20.0 14.9 20.0 14.8 M28.0 21.4 L29.1 20.65 29.95 20.15 29.1 20.7 27.9 21.5 28.0 21.4 M23.5 20.55 L20.3 19.8 21.95 20.05 22.9 20.2 23.55 20.25 23.55 20.35 23.5 20.55 M24.75 20.1 Q25.8 19.9 25.75 18.95 L25.8 19.0 25.9 19.35 Q26.0 20.2 25.45 20.35 L24.1 20.3 24.05 20.3 23.65 20.15 23.6 20.15 23.25 20.05 23.6 20.1 23.65 20.1 23.9 20.1 24.15 20.1 24.65 20.1 24.75 20.1" fill="#543b16" fill-rule="evenodd" stroke="none"/>
      <path d="M27.45 21.35 L27.3 21.3 27.3 21.1 26.9 16.9 26.95 16.95 27.1 17.0 27.25 17.4 27.3 17.5 27.35 20.1 27.45 21.15 27.45 21.35 M21.95 15.3 L22.6 15.5 22.8 16.0 22.8 16.05 22.3 15.95 21.75 15.8 21.95 15.3 M24.2 15.95 L24.25 16.0 25.0 16.2 25.55 16.35 25.6 17.4 25.8 17.9 26.0 18.25 26.3 18.95 26.35 19.15 26.55 20.45 26.55 21.0 26.55 21.15 25.7 21.0 23.5 20.55 23.55 20.35 23.55 20.25 22.9 20.2 21.95 20.05 20.3 19.8 19.25 19.7 19.3 19.6 19.3 19.5 19.35 19.45 19.45 18.1 19.65 18.2 20.0 18.45 Q20.1 18.95 20.65 19.15 L22.1 19.45 23.65 19.9 23.9 19.95 24.65 20.05 24.75 20.1 24.65 20.1 24.15 20.1 23.9 20.1 23.65 20.1 23.6 20.1 23.25 20.05 23.6 20.15 23.65 20.15 24.05 20.3 24.1 20.3 25.45 20.35 Q26.0 20.2 25.9 19.35 L25.8 19.0 25.75 18.95 25.75 18.9 25.75 18.75 25.55 18.0 25.0 17.55 24.8 17.5 24.25 17.35 24.2 17.35 24.0 17.3 24.0 17.25 24.2 15.95 M19.05 14.7 L20.0 14.9 20.0 14.95 19.95 15.55 19.05 15.55 19.05 14.7" fill="#463111" fill-rule="evenodd" stroke="none"/>
      <path d="M25.65 15.8 L26.3 15.95 26.4 16.0 26.4 16.25 26.6 16.6 26.55 16.6 25.6 16.4 25.55 16.35 25.6 15.85 25.6 15.8 25.65 15.8 M27.25 17.15 L27.3 17.15 27.7 17.15 27.7 17.4 27.7 17.5 27.45 17.7 27.4 17.65 27.3 17.5 27.25 17.15 M18.75 14.3 L18.8 14.35 19.05 14.5 19.25 14.6 20.0 14.8 20.0 14.9 19.05 14.7 18.55 14.5 18.0 14.15 18.75 14.3" fill="#845e22" fill-rule="evenodd" stroke="none"/>
      <path d="M27.45 21.35 L27.45 21.15 27.35 20.1 27.3 17.5 27.4 17.65 27.45 17.7 27.7 17.5 27.95 21.15 27.95 21.2 27.95 21.4 28.0 21.4 27.9 21.5 27.45 21.35" fill="#6a4c1b" fill-rule="evenodd" stroke="none"/>
      <path d="M20.15 16.55 L20.25 16.4 20.55 16.35 20.8 16.4 21.35 16.6 21.7 16.75 21.9 16.85 20.9 16.55 20.4 16.45 20.25 16.45 20.15 16.55 M19.95 18.25 L20.15 18.55 20.4 18.95 20.5 18.95 20.85 18.65 21.1 18.35 21.85 17.7 23.35 17.65 24.0 17.65 24.8 17.55 24.65 17.5 24.2 17.35 24.25 17.35 24.8 17.5 25.0 17.55 25.55 18.0 25.75 18.75 25.75 18.9 25.75 18.95 Q25.8 19.9 24.75 20.1 L24.65 20.05 23.9 19.95 23.65 19.9 22.1 19.45 20.65 19.15 Q20.1 18.95 20.0 18.45 L19.95 18.25" fill="#33240c" fill-rule="evenodd" stroke="none"/>
      <path d="M20.15 16.55 L20.25 16.45 20.4 16.45 20.9 16.55 21.9 16.85 22.8 17.0 23.3 17.15 24.0 17.3 24.2 17.35 24.65 17.5 24.8 17.55 24.0 17.65 23.35 17.65 21.85 17.7 21.1 18.35 20.85 18.65 20.5 18.95 20.4 18.95 20.15 18.55 19.95 18.25 19.95 18.2 19.95 17.15 20.15 16.55" fill="#291d0a" fill-rule="evenodd" stroke="none"/>
      <path d="M36.3 19.5 L35.75 19.45 Q35.65 18.8 36.25 18.45 L37.35 18.25 38.1 18.6 38.7 19.4 38.55 19.35 38.5 19.25 38.6 19.65 36.3 19.5" fill="url(#gradient3)" fill-rule="evenodd" stroke="none"/>
      <path d="M30.75 23.7 L30.5 23.55 32.85 22.15 32.9 22.2 33.65 23.75 31.75 24.25 30.75 23.7" fill="url(#gradient4)" fill-rule="evenodd" stroke="none"/>
      <path d="M36.1 24.75 Q36.45 24.1 37.75 23.75 L37.9 23.9 39.25 24.4 39.05 24.75 Q38.65 25.2 37.75 25.25 L36.7 25.25 36.1 24.75" fill="url(#gradient5)" fill-rule="evenodd" stroke="none"/>
      <path d="M4.45 21.85 L4.8 21.25 Q5.5 20.35 7.5 19.25 8.75 18.6 9.8 18.3 L9.9 18.25 10.9 18.0 11.3 17.95 12.0 17.9 12.45 18.1 13.75 18.6 19.0 20.2 Q22.25 21.05 26.05 22.45 29.45 23.65 31.5 24.65 L30.3 24.95 Q28.55 25.1 24.8 26.85 23.85 27.25 22.8 27.8 L22.25 27.5 21.45 27.1 19.8 26.8 17.95 26.4 16.55 25.95 17.65 26.55 18.85 26.9 20.15 27.05 21.7 27.45 22.35 27.85 22.5 27.95 21.85 28.25 Q15.85 31.3 14.15 33.0 L11.05 35.6 10.85 35.25 Q10.25 34.25 9.25 31.05 L7.65 26.15 Q6.7 23.7 5.4 23.0 L4.45 21.85" fill="url(#gradient6)" fill-rule="evenodd" stroke="none"/>
      <path d="M4.25 18.9 L4.25 18.85 Q4.2 18.35 4.5 18.25 4.75 18.15 5.05 18.45 L6.0 18.45 5.95 18.55 5.2 19.05 4.25 18.9" fill="url(#gradient7)" fill-rule="evenodd" stroke="none"/>
      <path d="M8.95 17.45 L8.5 17.0 7.3 15.55 6.7 14.75 9.45 15.45 12.05 15.8 12.5 16.2 12.7 16.85 12.6 17.0 11.3 17.95 10.9 18.0 9.9 18.25 8.95 17.45" fill="url(#gradient8)" fill-rule="evenodd" stroke="none"/>
      <path d="M3.75 19.45 Q3.35 19.9 2.4 20.0 L1.25 19.95 0.7 19.65 Q0.9 18.85 2.45 18.45 L2.6 18.6 Q3.1 18.65 3.9 19.15 L3.75 19.45" fill="url(#gradient9)" fill-rule="evenodd" stroke="none"/>
      <path d="M37.85 28.8 L37.85 28.85 37.8 29.15 37.4 28.95 37.85 28.8 M13.8 42.0 L13.7 42.5 13.2 41.85 11.65 39.85 10.25 37.5 Q9.0 34.6 7.95 31.3 L6.55 28.1 5.6 26.1 4.7 24.45 Q4.5 23.8 4.45 22.75 L4.45 21.85 5.4 23.0 Q6.5 24.55 7.2 26.5 L8.95 31.9 10.45 36.15 10.4 36.15 10.5 36.25 10.5 36.3 10.55 36.45 10.7 36.85 10.95 37.4 11.2 37.9 Q12.1 39.6 13.85 41.8 L13.9 41.8 13.8 42.0 M14.0 41.6 L14.1 41.45 14.2 41.35 14.1 41.5 14.0 41.6" fill="#655c52" fill-rule="evenodd" stroke="none"/>
      <path d="M15.9 17.9 Q16.05 17.05 16.85 16.85 L16.85 17.55 16.65 18.05 15.9 17.9" fill="url(#gradient10)" fill-rule="evenodd" stroke="none"/>
      <path d="M36.95 28.8 L37.8 29.25 37.8 29.75 36.7 29.7 35.55 29.5 Q34.6 29.55 33.6 30.55 32.65 31.45 31.35 31.7 L28.9 31.9 28.85 32.8 Q27.05 32.85 24.8 35.0 L22.85 36.5 21.75 36.6 20.65 36.8 Q19.8 37.25 18.9 38.65 L17.3 40.75 13.95 42.85 13.8 42.0 13.9 41.8 14.0 41.6 14.1 41.5 14.2 41.35 14.5 41.05 14.95 40.8 15.9 40.2 17.15 39.0 18.25 37.5 18.2 36.9 17.75 36.2 17.2 35.9 16.65 35.55 Q15.55 34.45 15.35 33.6 L15.05 32.5 Q16.0 34.75 17.75 35.6 L19.75 36.15 Q20.15 35.95 20.7 35.8 22.6 35.3 24.3 34.2 L26.3 32.9 28.3 31.75 28.0 31.4 Q27.05 30.95 25.6 29.15 25.05 28.45 24.5 28.3 L22.95 28.1 22.5 27.95 22.35 27.85 21.7 27.45 20.15 27.05 18.85 26.9 17.65 26.55 16.55 25.95 17.95 26.4 19.8 26.8 21.45 27.1 22.25 27.5 22.8 27.8 23.0 27.85 24.3 27.95 25.15 28.2 Q25.15 27.4 24.8 26.85 L25.75 28.55 25.95 29.0 28.25 31.05 Q30.65 30.95 33.6 29.7 L34.0 29.5 35.7 28.85 35.9 28.8 36.45 28.75 36.95 28.8" fill="#534940" fill-rule="evenodd" stroke="none"/>
      <path d="M10.5 36.25 L10.45 36.15 8.95 31.9 7.2 26.5 Q6.5 24.55 5.4 23.0 6.7 23.7 7.65 26.15 L9.25 31.05 Q10.25 34.25 10.85 35.25 L11.05 35.6 14.95 40.8 14.5 41.05 14.2 41.35 14.1 41.45 14.0 41.6 13.9 41.8 11.2 37.9 10.95 37.4 10.7 36.85 10.55 36.45 10.5 36.3 10.5 36.25" fill="#b5a89a" fill-rule="evenodd" stroke="none"/>
      <path d="M34.7 26.45 L35.45 27.0 37.85 28.8 37.4 28.95 36.95 28.8 36.45 28.75 35.9 28.8 35.7 28.85 34.0 29.5 33.6 29.7 Q30.65 30.95 28.25 31.05 L25.95 29.0 25.75 28.55 24.8 26.85 Q25.15 27.4 25.15 28.2 L24.3 27.95 23.0 27.85 22.8 27.8 Q23.85 27.25 24.8 26.85 28.55 25.1 30.3 24.95 L31.5 24.65 32.0 24.9 32.1 24.95 32.2 25.0 34.2 26.15 34.5 26.35 34.55 26.35 34.7 26.45 M10.45 36.15 L10.5 36.25 10.4 36.15 10.45 36.15 M11.2 37.9 L13.9 41.8 13.85 41.8 Q12.1 39.6 11.2 37.9 M14.95 40.8 L11.05 35.6 14.15 33.0 Q15.85 31.3 21.85 28.25 L22.5 27.95 22.95 28.1 24.5 28.3 Q25.05 28.45 25.6 29.15 27.05 30.95 28.0 31.4 L28.3 31.75 26.3 32.9 24.3 34.2 Q22.6 35.3 20.7 35.8 20.15 35.95 19.75 36.15 L17.75 35.6 Q16.0 34.75 15.05 32.5 L15.35 33.6 Q15.55 34.45 16.65 35.55 L17.2 35.9 17.75 36.2 18.2 36.9 18.25 37.5 17.15 39.0 15.9 40.2 14.95 40.8" fill="url(#gradient11)" fill-rule="evenodd" stroke="none"/>
      <path d="M34.65 25.85 L34.1 25.8 Q34.0 25.15 34.6 24.8 L35.7 24.6 36.1 24.75 36.7 25.25 37.1 25.75 36.95 25.7 36.8 25.5 36.95 26.0 34.65 25.85" fill="url(#gradient12)" fill-rule="evenodd" stroke="none"/>
      <path d="M32.4 35.35 L32.15 35.2 34.5 33.8 34.55 33.85 35.3 35.4 33.4 35.9 32.4 35.35" fill="url(#gradient13)" fill-rule="evenodd" stroke="none"/>
    </g>
    <linearGradient gradientTransform="matrix(0.0085, 0.0063, 0.0049, -0.0112, 31.45, 9.7)" gradientUnits="userSpaceOnUse" id="gradient0" spreadMethod="pad" x1="-819.2" x2="819.2">
      <stop offset="0.0" stop-color="#a67a38"/>
      <stop offset="1.0" stop-color="#745220"/>
    </linearGradient>
    <linearGradient gradientTransform="matrix(0.0011, 0.0, 0.0, -0.0011, 40.45, 30.3)" gradientUnits="userSpaceOnUse" id="gradient1" spreadMethod="pad" x1="-819.2" x2="819.2">
      <stop offset="0.0" stop-color="#a67a38"/>
      <stop offset="1.0" stop-color="#745220"/>
    </linearGradient>
    <linearGradient gradientTransform="matrix(0.8447, 0.0, 0.0, 1.1042, -42.1, -67.2)" gradientUnits="userSpaceOnUse" id="gradient2" spreadMethod="pad" x1="-819.2" x2="819.2">
      <stop offset="0.00784313725490196" stop-color="#a67a38"/>
      <stop offset="0.12941176470588237" stop-color="#a67a38"/>
    </linearGradient>
    <linearGradient gradientTransform="matrix(0.0018, 0.0, 0.0, -0.0018, 37.25, 18.95)" gradientUnits="userSpaceOnUse" id="gradient3" spreadMethod="pad" x1="-819.2" x2="819.2">
      <stop offset="0.0" stop-color="#a67a38"/>
      <stop offset="1.0" stop-color="#745220"/>
    </linearGradient>
    <linearGradient gradientTransform="matrix(0.0019, 0.0, 0.0, -0.0019, 32.1, 23.2)" gradientUnits="userSpaceOnUse" id="gradient4" spreadMethod="pad" x1="-819.2" x2="819.2">
      <stop offset="0.0" stop-color="#a67a38"/>
      <stop offset="1.0" stop-color="#745220"/>
    </linearGradient>
    <linearGradient gradientTransform="matrix(0.002, 0.0, 0.0, -0.002, 37.6, 24.5)" gradientUnits="userSpaceOnUse" id="gradient5" spreadMethod="pad" x1="-819.2" x2="819.2">
      <stop offset="0.0" stop-color="#a67a38"/>
      <stop offset="1.0" stop-color="#745220"/>
    </linearGradient>
    <linearGradient gradientTransform="matrix(0.0096, 4.0E-4, 4.0E-4, -0.0096, 14.7, 29.95)" gradientUnits="userSpaceOnUse" id="gradient6" spreadMethod="pad" x1="-819.2" x2="819.2">
      <stop offset="0.0" stop-color="#8a796d"/>
      <stop offset="1.0" stop-color="#6e6055"/>
    </linearGradient>
    <linearGradient gradientTransform="matrix(0.0011, 0.0, 0.0, -0.0011, 5.15, 18.65)" gradientUnits="userSpaceOnUse" id="gradient7" spreadMethod="pad" x1="-819.2" x2="819.2">
      <stop offset="0.0" stop-color="#a67a38"/>
      <stop offset="1.0" stop-color="#745220"/>
    </linearGradient>
    <linearGradient gradientTransform="matrix(0.0036, 0.0, 0.0, -0.0036, 9.7, 16.6)" gradientUnits="userSpaceOnUse" id="gradient8" spreadMethod="pad" x1="-819.2" x2="819.2">
      <stop offset="0.0" stop-color="#a67a38"/>
      <stop offset="1.0" stop-color="#745220"/>
    </linearGradient>
    <linearGradient gradientTransform="matrix(0.002, 0.0, 0.0, -0.002, 2.3, 19.2)" gradientUnits="userSpaceOnUse" id="gradient9" spreadMethod="pad" x1="-819.2" x2="819.2">
      <stop offset="0.0" stop-color="#a67a38"/>
      <stop offset="1.0" stop-color="#745220"/>
    </linearGradient>
    <linearGradient gradientTransform="matrix(6.0E-4, 0.0, 0.0, -6.0E-4, 16.35, 17.45)" gradientUnits="userSpaceOnUse" id="gradient10" spreadMethod="pad" x1="-819.2" x2="819.2">
      <stop offset="0.0" stop-color="#a67a38"/>
      <stop offset="1.0" stop-color="#745220"/>
    </linearGradient>
    <linearGradient gradientTransform="matrix(0.0147, -0.0028, -0.0028, -0.0147, 23.4, 33.1)" gradientUnits="userSpaceOnUse" id="gradient11" spreadMethod="pad" x1="-819.2" x2="819.2">
      <stop offset="0.0" stop-color="#bfab9f"/>
      <stop offset="1.0" stop-color="#8d7b6e"/>
    </linearGradient>
    <linearGradient gradientTransform="matrix(0.0018, 0.0, 0.0, -0.0018, 35.6, 25.3)" gradientUnits="userSpaceOnUse" id="gradient12" spreadMethod="pad" x1="-819.2" x2="819.2">
      <stop offset="0.0" stop-color="#a67a38"/>
      <stop offset="1.0" stop-color="#745220"/>
    </linearGradient>
    <linearGradient gradientTransform="matrix(0.0019, 0.0, 0.0, -0.0019, 33.75, 34.85)" gradientUnits="userSpaceOnUse" id="gradient13" spreadMethod="pad" x1="-819.2" x2="819.2">
      <stop offset="0.0" stop-color="#a67a38"/>
      <stop offset="1.0" stop-color="#745220"/>
    </linearGradient>
  </defs>
</svg>
