<?xml version="1.0" encoding="UTF-8" standalone="no"?>
<svg xmlns:xlink="http://www.w3.org/1999/xlink" height="62.75px" width="68.6px" xmlns="http://www.w3.org/2000/svg">
  <g transform="matrix(1.0, 0.0, 0.0, 1.0, 0.0, 0.0)">
    <use height="62.75" transform="matrix(1.0, 0.0, 0.0, 1.0, 0.0, 0.0)" width="68.6" xlink:href="#shape0"/>
  </g>
  <defs>
    <g id="shape0" transform="matrix(1.0, 0.0, 0.0, 1.0, 0.0, 0.0)">
      <path d="M17.85 11.95 L17.55 11.7 17.5 11.65 17.2 11.4 16.3 11.2 Q16.15 11.8 16.25 12.5 16.35 13.2 16.65 13.5 L16.1 13.5 16.2 13.75 Q15.25 13.9 14.7 14.35 L14.75 15.1 14.55 14.6 14.6 14.65 14.7 14.9 Q14.6 13.9 15.0 13.3 13.45 11.5 14.9 10.95 16.4 10.35 17.85 11.95 M14.5 14.55 Q14.25 14.8 14.3 15.0 L16.25 15.15 Q15.45 16.15 15.65 16.7 15.85 17.25 16.4 16.9 L17.1 16.15 17.1 17.4 Q17.1 18.2 17.6 18.3 18.15 18.45 18.3 17.75 L18.45 16.7 Q18.8 16.95 19.45 17.0 L20.4 16.85 20.35 15.95 Q20.25 15.7 19.6 15.55 L21.05 15.4 Q22.0 15.4 21.9 14.6 21.8 14.1 21.15 14.0 L19.9 14.0 20.1 13.6 Q20.4 12.85 19.45 12.3 18.5 11.75 17.95 11.7 18.4 10.25 19.65 11.0 20.9 11.8 20.8 13.25 21.4 12.3 22.95 12.95 L24.05 15.0 Q24.8 16.45 23.95 16.45 L23.95 17.55 22.5 17.3 22.8 18.05 Q22.95 18.65 22.75 18.8 22.55 19.0 22.3 18.8 L22.2 18.7 22.15 20.65 20.95 20.4 Q20.25 20.1 20.05 19.65 20.5 21.6 18.95 21.4 17.95 21.2 17.9 20.15 L17.5 20.9 16.4 21.0 Q16.05 20.8 16.1 20.35 L16.1 19.55 15.35 19.5 15.2 18.7 Q15.05 19.15 14.35 19.15 13.65 19.15 13.4 18.7 L13.55 19.85 13.5 20.5 12.9 20.65 Q12.45 20.75 12.35 20.95 L11.95 21.35 11.25 21.3 10.75 20.85 10.55 21.3 10.2 21.65 Q9.75 21.7 9.3 20.65 9.3 21.2 8.9 21.4 L7.9 21.35 Q7.5 21.15 7.5 20.85 7.3 21.8 5.55 21.6 3.6 21.4 4.4 20.65 L3.9 20.6 Q3.75 21.3 4.55 21.85 3.0 20.9 4.45 19.8 5.9 18.7 6.55 19.55 L6.45 19.1 6.45 19.0 6.4 18.6 6.5 17.55 Q11.45 17.15 12.95 18.0 L13.05 16.05 13.85 15.9 Q13.65 14.8 14.3 14.25 L14.5 14.55 M40.1 2.3 L38.9 2.35 Q39.0 3.1 37.7 3.75 L38.9 4.05 Q39.6 4.3 39.5 4.85 39.45 5.3 39.0 5.35 L38.2 5.55 39.4 5.8 40.55 6.2 40.95 6.65 41.0 6.95 41.55 8.1 41.65 9.65 Q41.65 10.85 41.3 10.95 41.75 12.55 41.15 13.05 L40.05 13.15 38.9 12.95 38.3 13.65 37.35 13.75 36.95 13.65 36.65 13.35 36.0 14.5 Q35.5 15.15 34.85 14.75 34.55 14.6 34.55 14.2 L34.45 13.45 Q34.15 12.85 33.6 13.45 L32.75 14.3 Q32.1 14.55 32.05 14.05 L32.05 13.0 Q31.75 12.9 31.35 13.25 L30.8 13.8 29.45 14.2 Q29.15 13.8 29.2 12.85 L29.3 11.45 Q27.75 12.45 26.55 12.15 26.3 11.75 26.45 11.0 L26.6 9.8 25.9 10.1 25.15 10.05 Q24.8 9.85 25.15 8.65 L24.35 9.0 24.4 8.1 Q25.35 8.2 25.6 9.0 25.4 7.3 26.5 6.95 27.3 6.7 28.0 7.2 28.6 7.55 28.75 8.2 28.5 6.95 28.95 6.2 L28.8 5.7 28.8 5.15 29.55 5.25 27.75 3.5 Q26.7 2.25 27.45 1.35 28.25 0.4 30.5 1.6 29.8 -0.2 31.4 0.0 32.95 0.2 33.55 1.5 33.45 1.25 33.5 0.9 L33.5 0.25 Q35.6 0.1 38.25 1.6 L38.65 1.05 39.05 0.6 40.1 2.3 M0.0 23.7 Q0.75 24.1 2.35 24.35 L3.3 24.5 Q1.1 24.35 0.0 23.7 M20.95 24.8 L21.8 24.8 20.85 24.9 20.95 24.8 M22.8 24.15 L22.75 23.75 22.8 24.1 22.8 24.15 M54.45 11.45 L53.8 11.5 Q52.1 11.65 51.45 12.2 L52.35 13.6 52.55 14.1 53.2 14.55 Q54.0 15.85 51.55 15.7 51.8 15.9 53.0 16.5 54.0 17.15 53.5 17.7 L51.05 17.55 Q52.35 18.35 52.1 19.35 L50.7 19.4 Q51.15 19.5 51.4 20.1 51.6 20.7 51.2 21.0 L50.15 21.1 49.15 20.75 Q48.95 20.8 48.9 21.25 L48.75 21.9 Q48.35 22.45 47.3 22.15 45.85 21.9 45.85 20.25 45.5 20.4 45.4 20.85 44.95 21.7 44.05 21.75 L42.25 21.6 Q42.15 21.4 42.7 20.45 L43.35 19.4 44.1 18.55 43.2 19.0 41.9 19.1 Q41.65 18.35 42.35 17.5 L43.65 16.3 41.25 16.55 41.35 16.35 42.15 16.15 42.45 15.8 42.7 15.4 43.2 15.3 43.65 15.3 44.1 14.35 44.55 14.3 44.85 14.0 45.4 13.75 45.1 14.45 46.1 14.6 Q45.4 14.8 44.8 15.2 44.15 15.65 44.25 16.0 L45.05 16.15 44.7 16.9 Q44.6 17.25 45.1 17.5 L46.7 17.35 47.8 16.45 Q47.65 16.75 47.65 17.4 L47.7 17.95 48.2 18.1 Q48.95 18.25 49.15 17.8 L49.25 16.75 49.65 16.9 50.0 16.75 Q50.5 16.2 49.2 15.15 L47.45 14.0 48.9 14.15 Q49.55 14.05 49.55 13.15 49.55 12.6 49.1 12.4 48.7 12.25 48.1 12.4 L48.3 12.1 48.5 11.95 49.55 11.5 49.45 11.5 49.2 11.45 50.15 11.5 51.4 11.7 Q51.95 10.8 54.4 11.15 L54.45 11.45 M44.85 8.4 L44.95 8.25 45.1 8.1 44.85 8.4 M45.35 6.7 L45.35 6.5 45.25 7.85 45.3 7.5 45.1 7.4 45.3 7.4 45.35 6.7 M37.35 3.35 L36.55 3.2 35.45 3.35 35.35 1.6 Q34.85 1.0 34.1 1.95 33.5 2.7 33.4 3.35 L33.15 2.65 32.7 2.15 Q32.2 2.05 31.25 3.4 L30.75 2.0 Q30.3 1.1 29.75 1.9 L29.6 2.45 Q29.25 2.85 29.7 3.4 L30.55 4.15 Q30.85 4.2 30.95 4.6 L30.95 4.9 31.05 5.15 30.6 5.55 30.25 6.0 Q30.2 6.4 30.45 6.7 L31.15 6.8 30.45 7.8 29.75 7.85 29.75 8.95 27.35 8.65 Q27.1 9.5 28.7 9.65 30.3 9.75 30.5 9.25 L30.5 10.05 Q31.7 10.3 31.95 9.3 31.8 10.4 33.15 10.95 L35.65 11.2 35.65 10.25 35.5 9.25 37.75 9.35 37.75 8.8 Q37.6 8.25 36.9 7.9 L35.65 7.45 Q35.65 7.2 36.5 7.0 37.25 6.8 37.15 6.1 L36.75 5.6 37.5 5.3 37.65 4.3 Q37.6 3.55 37.35 3.35 M43.05 13.6 L43.1 13.6 42.95 14.3 43.05 13.6 M48.1 10.35 L47.8 10.35 47.55 10.35 48.1 10.25 48.1 10.2 48.3 10.2 48.9 9.9 47.8 10.35 Q49.1 10.2 48.85 11.35 49.0 10.45 48.1 10.35 M46.0 11.5 L45.9 11.6 45.9 11.5 46.0 11.5 M47.75 12.55 L47.65 12.6 47.5 13.05 47.1 13.05 47.4 12.9 Q47.15 12.8 47.45 12.55 L47.75 12.55 M38.65 26.85 L39.15 26.95 38.2 26.75 38.65 26.85 M66.0 23.9 L63.95 23.9 Q63.0 23.8 63.1 23.0 63.0 24.05 65.1 23.9 L66.0 23.9 M65.15 20.95 Q64.6 20.15 62.2 18.65 65.6 20.65 65.35 21.6 L65.15 20.95 M25.35 25.2 L25.25 25.15 25.3 25.15 25.35 25.2 M7.45 30.6 L7.3 31.35 8.4 31.65 8.95 31.8 7.3 31.35 Q7.2 30.5 8.05 29.95 L7.45 30.6 M11.25 31.15 L11.25 31.45 11.3 31.75 Q11.2 31.5 11.25 31.15 M13.75 31.95 L15.6 31.35 13.5 32.05 13.75 31.95 M16.0 31.55 Q16.55 31.9 16.55 32.85 L16.5 32.45 Q16.45 31.85 16.0 31.55 M9.3 17.45 L8.4 17.7 7.45 17.75 Q6.75 17.9 6.75 18.25 6.7 18.6 7.4 18.7 6.7 18.95 6.9 19.5 7.1 20.0 8.55 19.95 10.0 19.9 9.85 19.15 10.1 19.9 11.5 19.8 11.6 19.05 11.25 18.85 L12.55 18.8 Q12.8 18.35 12.1 17.7 L9.3 17.45 M10.95 24.2 L10.85 24.7 10.85 24.95 11.0 25.35 Q10.65 24.85 10.95 24.2 M11.25 25.55 L11.45 25.7 11.35 25.65 11.25 25.55 M13.65 26.85 L14.65 27.0 15.9 27.2 16.4 27.55 Q17.4 28.65 15.25 28.25 15.3 28.75 14.5 28.75 L13.3 28.7 Q13.3 29.3 12.5 29.3 L11.25 29.1 10.1 29.25 Q9.4 29.25 9.05 28.75 L7.8 28.8 Q7.7 28.35 8.05 27.9 L7.35 27.65 8.1 27.9 8.15 27.8 8.55 27.4 8.25 27.45 8.25 27.35 9.0 27.2 9.05 26.7 9.15 26.2 10.8 26.15 Q11.6 26.35 12.1 26.85 L10.65 26.85 Q9.55 26.85 9.25 27.25 9.0 27.6 10.0 27.8 L11.75 27.95 13.1 28.15 14.2 28.05 Q14.2 27.3 13.65 26.85 M12.4 26.35 L12.2 26.65 12.25 26.85 12.1 26.85 12.4 26.35 M18.1 26.65 L18.25 26.25 18.2 26.7 18.1 26.65" fill="#6d7247" fill-rule="evenodd" stroke="none"/>
      <path d="M14.55 14.6 L14.75 15.1 14.7 14.35 Q15.25 13.9 16.2 13.75 L16.1 13.5 16.65 13.5 Q16.35 13.2 16.25 12.5 16.15 11.8 16.3 11.2 L17.2 11.4 17.5 11.65 17.55 11.7 17.85 11.95 17.9 11.7 17.95 11.7 Q18.5 11.75 19.45 12.3 20.4 12.85 20.1 13.6 L19.9 14.0 21.15 14.0 Q21.8 14.1 21.9 14.6 22.0 15.4 21.05 15.4 L19.6 15.55 Q20.25 15.7 20.35 15.95 L20.4 16.85 19.45 17.0 Q18.8 16.95 18.45 16.7 L18.3 17.75 Q18.15 18.45 17.6 18.3 17.1 18.2 17.1 17.4 L17.1 16.15 16.4 16.9 Q15.85 17.25 15.65 16.7 15.45 16.15 16.25 15.15 L14.3 15.0 Q14.25 14.8 14.5 14.55 L14.5 14.5 14.55 14.6 M37.35 3.35 Q37.6 3.55 37.65 4.3 L37.5 5.3 36.75 5.6 37.15 6.1 Q37.25 6.8 36.5 7.0 35.65 7.2 35.65 7.45 L36.9 7.9 Q37.6 8.25 37.75 8.8 L37.75 9.35 35.5 9.25 35.65 10.25 35.65 11.2 33.15 10.95 Q31.8 10.4 31.95 9.3 31.7 10.3 30.5 10.05 L30.5 9.25 Q30.3 9.75 28.7 9.65 27.1 9.5 27.35 8.65 L29.75 8.95 29.75 7.85 30.45 7.8 31.15 6.8 30.45 6.7 Q30.2 6.4 30.25 6.0 L30.6 5.55 31.05 5.15 30.95 4.9 30.95 4.6 Q30.85 4.2 30.55 4.15 L29.7 3.4 Q29.25 2.85 29.6 2.45 L29.75 1.9 Q30.3 1.1 30.75 2.0 L31.25 3.4 Q32.2 2.05 32.7 2.15 L33.15 2.65 33.4 3.35 Q33.5 2.7 34.1 1.95 34.85 1.0 35.35 1.6 L35.45 3.35 36.55 3.2 37.35 3.35 M45.4 13.75 L45.8 13.45 Q46.35 13.05 47.1 13.05 L47.5 13.05 47.65 12.6 47.75 12.55 48.1 12.4 Q48.7 12.25 49.1 12.4 49.55 12.6 49.55 13.15 49.55 14.05 48.9 14.15 L47.45 14.0 49.2 15.15 Q50.5 16.2 50.0 16.75 L49.65 16.9 49.25 16.75 49.15 17.8 Q48.95 18.25 48.2 18.1 L47.7 17.95 47.65 17.4 Q47.65 16.75 47.8 16.45 L46.7 17.35 45.1 17.5 Q44.6 17.25 44.7 16.9 L45.05 16.15 44.25 16.0 Q44.15 15.65 44.8 15.2 45.4 14.8 46.1 14.6 L45.1 14.45 45.4 13.75 M9.3 17.45 L12.1 17.7 Q12.8 18.35 12.55 18.8 L11.25 18.85 Q11.6 19.05 11.5 19.8 10.1 19.9 9.85 19.15 10.0 19.9 8.55 19.95 7.1 20.0 6.9 19.5 6.7 18.95 7.4 18.7 6.7 18.6 6.75 18.25 6.75 17.9 7.45 17.75 L8.4 17.7 9.3 17.45 M12.4 26.35 Q13.2 26.45 13.65 26.85 14.2 27.3 14.2 28.05 L13.1 28.15 11.75 27.95 10.0 27.8 Q9.0 27.6 9.25 27.25 9.55 26.85 10.65 26.85 L12.1 26.85 12.25 26.85 12.2 26.65 12.4 26.35 M12.45 27.3 L12.6 27.8 Q12.7 27.5 12.95 27.45 L12.45 27.3" fill="#848958" fill-rule="evenodd" stroke="none"/>
      <path d="M24.35 9.0 L25.15 8.65 Q24.8 9.85 25.15 10.05 L25.9 10.1 26.6 9.8 26.45 11.0 Q26.3 11.75 26.55 12.15 27.75 12.45 29.3 11.45 L29.2 12.85 Q29.15 13.8 29.45 14.2 L30.8 13.8 31.35 13.25 Q31.75 12.9 32.05 13.0 L32.05 14.05 Q32.1 14.55 32.75 14.3 L33.6 13.45 Q34.15 12.85 34.45 13.45 L34.55 14.2 Q34.55 14.6 34.85 14.75 35.5 15.15 36.0 14.5 L36.65 13.35 36.95 13.65 37.35 13.75 38.3 13.65 38.9 12.95 40.05 13.15 41.15 13.05 Q41.75 12.55 41.3 10.95 41.65 10.85 41.65 9.65 L41.55 8.1 41.0 6.95 40.95 6.65 40.55 6.2 39.4 5.8 38.2 5.55 39.0 5.35 Q39.45 5.3 39.5 4.85 39.6 4.3 38.9 4.05 L37.7 3.75 Q39.0 3.1 38.9 2.35 L40.1 2.3 40.5 3.2 43.55 4.7 Q44.3 4.55 44.7 5.0 45.0 5.4 44.9 5.95 L45.2 5.65 45.35 6.5 45.35 6.7 44.55 7.95 44.95 8.25 44.85 8.4 45.05 8.4 45.05 8.45 45.1 9.3 43.85 9.4 44.45 10.1 44.5 10.6 43.1 10.65 43.55 11.75 43.4 11.8 43.55 11.9 43.5 12.2 43.0 12.6 42.35 12.65 42.15 13.85 41.85 13.9 41.85 14.0 41.9 14.15 Q41.35 14.55 40.05 14.55 L38.15 14.2 38.15 15.1 37.95 15.05 38.15 15.3 38.15 15.4 Q36.45 15.7 35.95 15.05 36.05 15.6 35.65 15.85 L35.05 15.9 34.6 15.6 34.65 16.55 35.35 16.75 36.1 16.5 36.25 16.95 36.5 17.4 Q36.95 17.65 37.35 17.4 L37.9 16.7 38.35 17.4 Q38.6 17.75 39.05 17.7 39.8 17.65 39.95 16.0 L40.05 16.0 Q40.4 16.35 41.35 16.35 L41.25 16.55 43.65 16.3 42.35 17.5 Q41.65 18.35 41.9 19.1 L43.2 19.0 44.1 18.55 43.35 19.4 42.7 20.45 Q42.15 21.4 42.25 21.6 L44.05 21.75 Q44.95 21.7 45.4 20.85 45.5 20.4 45.85 20.25 45.85 21.9 47.3 22.15 48.35 22.45 48.75 21.9 L48.9 21.25 Q48.95 20.8 49.15 20.75 L50.15 21.1 51.2 21.0 Q51.6 20.7 51.4 20.1 51.15 19.5 50.7 19.4 L52.1 19.35 Q52.35 18.35 51.05 17.55 L53.5 17.7 Q54.0 17.15 53.0 16.5 51.8 15.9 51.55 15.7 54.0 15.85 53.2 14.55 L52.55 14.1 52.35 13.6 51.45 12.2 Q52.1 11.65 53.8 11.5 L54.45 11.45 54.6 11.8 54.9 11.8 54.8 11.85 Q53.65 13.45 54.0 14.3 L54.45 14.75 54.5 15.35 54.45 15.95 55.95 16.35 Q56.95 16.7 57.0 17.25 57.1 17.65 56.65 17.9 56.2 18.1 56.2 18.35 L57.2 18.8 57.9 19.5 57.85 20.65 56.45 20.55 55.1 20.6 56.0 21.35 Q56.45 21.9 56.1 22.35 L54.7 22.4 53.3 21.85 53.3 22.85 53.0 23.65 51.9 23.5 50.9 23.4 50.8 23.95 50.4 24.35 Q49.75 24.45 49.15 23.95 49.75 24.75 49.55 25.85 48.5 25.95 48.1 25.55 48.0 26.0 47.05 25.95 L45.7 25.75 Q44.7 25.45 44.7 24.6 L44.3 25.3 43.3 25.45 42.8 25.25 42.75 24.65 41.15 24.95 Q40.0 25.0 39.6 24.6 39.85 24.05 40.5 23.75 L41.55 23.35 Q40.2 23.7 38.25 23.3 L37.15 22.65 Q36.75 22.2 36.8 21.55 L36.55 22.1 36.05 22.45 35.35 22.55 34.6 22.45 Q34.2 22.25 34.15 21.75 L34.15 20.85 Q33.5 22.1 32.8 21.65 32.55 21.45 32.7 20.75 L32.9 19.75 31.6 19.65 30.3 19.45 30.75 18.75 Q30.3 18.5 29.45 18.4 L28.1 18.2 Q30.6 21.2 28.95 21.05 30.1 21.25 29.9 22.2 29.8 22.65 29.25 22.65 L28.2 22.6 28.25 23.55 28.4 24.45 28.3 24.45 27.5 23.95 27.3 24.45 26.75 24.4 25.3 24.05 25.1 24.45 25.15 24.9 25.15 25.0 25.1 25.0 25.05 24.95 24.85 24.5 Q24.95 24.95 24.35 25.05 23.35 24.95 22.9 24.35 L22.8 24.05 22.8 24.1 22.75 23.75 22.8 24.15 Q22.6 24.55 21.8 24.8 L20.95 24.8 21.4 24.45 20.5 24.25 19.45 24.0 Q19.2 23.75 19.2 22.9 L17.5 23.15 Q16.25 23.15 15.95 22.75 15.8 22.5 15.9 21.85 15.95 21.1 16.25 21.05 L13.75 19.95 Q14.8 20.6 14.65 21.35 L14.5 21.65 14.45 21.65 14.45 21.7 14.15 21.75 13.75 21.9 Q13.55 22.1 13.65 22.3 L13.55 22.65 12.95 22.7 12.6 23.0 Q10.9 23.1 10.65 22.15 L10.6 22.6 9.05 22.6 Q8.8 22.55 8.5 22.3 L8.0 22.05 Q7.95 22.85 7.1 23.05 L5.45 23.2 3.85 23.1 3.5 23.5 3.15 24.05 2.35 24.35 Q0.75 24.1 0.0 23.7 L0.55 23.5 0.3 23.5 Q0.3 22.2 2.05 22.0 L4.95 22.05 4.55 21.85 Q3.75 21.3 3.9 20.6 L4.4 20.65 Q3.6 21.4 5.55 21.6 7.3 21.8 7.5 20.85 7.5 21.15 7.9 21.35 L8.9 21.4 Q9.3 21.2 9.3 20.65 9.75 21.7 10.2 21.65 L10.55 21.3 10.75 20.85 11.25 21.3 11.95 21.35 12.35 20.95 Q12.45 20.75 12.9 20.65 L13.5 20.5 13.55 19.85 13.4 18.7 Q13.65 19.15 14.35 19.15 15.05 19.15 15.2 18.7 L15.35 19.5 16.1 19.55 16.1 20.35 Q16.05 20.8 16.4 21.0 L17.5 20.9 17.9 20.15 Q17.95 21.2 18.95 21.4 20.5 21.6 20.05 19.65 20.25 20.1 20.95 20.4 L22.15 20.65 22.2 18.7 22.3 18.8 Q22.55 19.0 22.75 18.8 22.95 18.65 22.8 18.05 L22.5 17.3 23.95 17.55 23.95 16.45 Q24.8 16.45 24.05 15.0 L22.95 12.95 22.95 12.9 Q24.45 13.5 24.85 14.4 L24.85 14.3 24.8 14.05 24.85 13.5 25.0 13.15 25.15 12.95 25.2 12.9 25.25 12.8 Q25.45 12.15 25.25 11.5 L24.7 10.25 24.3 9.0 24.35 9.0 M44.95 13.75 L45.4 13.75 44.85 14.0 44.95 13.75 M45.8 13.45 L45.9 11.95 47.45 12.55 Q47.15 12.8 47.4 12.9 L47.1 13.05 Q46.35 13.05 45.8 13.45 M48.35 11.7 L49.45 11.5 49.55 11.5 48.5 11.95 48.3 12.1 48.35 11.7 M10.85 24.95 L10.95 24.95 11.3 24.9 11.5 25.25 12.7 25.6 Q13.2 25.5 13.7 25.0 14.2 24.45 14.6 24.4 L15.7 24.4 Q15.55 24.65 15.65 25.0 L16.95 25.05 Q17.85 25.1 17.9 25.55 L19.5 25.45 19.65 25.6 Q20.05 25.95 20.85 26.0 L22.15 26.0 Q22.05 27.0 23.65 27.0 L25.75 27.05 25.85 27.95 25.75 28.85 25.65 29.25 25.25 29.4 Q24.5 29.65 23.7 28.95 23.7 29.7 22.95 30.45 22.15 31.2 21.6 30.45 21.55 31.15 20.45 31.45 19.45 31.75 18.8 31.45 18.55 31.3 18.45 30.95 L18.2 30.45 17.25 30.65 Q16.6 30.65 16.65 30.25 16.3 30.85 14.1 30.75 L11.5 30.35 Q11.5 30.15 11.65 30.0 L9.55 30.4 7.45 30.6 8.05 29.95 5.55 29.15 4.2 28.8 Q3.55 28.55 3.9 27.7 L4.1 27.65 4.7 27.6 Q5.15 27.7 5.15 28.3 5.2 27.55 6.35 27.55 L6.6 27.55 7.35 27.65 8.05 27.9 Q7.7 28.35 7.8 28.8 L9.05 28.75 Q9.4 29.25 10.1 29.25 L11.25 29.1 12.5 29.3 Q13.3 29.3 13.3 28.7 L14.5 28.75 Q15.3 28.75 15.25 28.25 17.4 28.65 16.4 27.55 L15.9 27.2 14.65 27.0 13.65 26.85 Q13.2 26.45 12.4 26.35 L12.6 26.15 13.35 25.5 12.6 25.8 12.2 25.85 11.75 25.8 11.65 25.75 11.45 25.7 11.25 25.55 11.0 25.35 10.85 24.95 M8.25 27.45 L8.55 27.4 8.15 27.8 8.25 27.45 M18.1 26.65 L18.2 26.7 18.25 26.25 18.1 26.65" fill="#585d3b" fill-rule="evenodd" stroke="none"/>
      <path d="M2.35 24.35 L3.15 24.05 3.5 23.5 3.85 23.1 5.45 23.2 7.1 23.05 Q7.95 22.85 8.0 22.05 L8.5 22.3 Q8.8 22.55 9.05 22.6 L10.6 22.6 10.65 22.15 Q10.9 23.1 12.6 23.0 L11.7 23.45 10.9 23.35 10.35 22.9 Q10.35 23.55 9.0 23.65 7.65 23.8 7.3 23.35 7.1 23.55 7.0 24.1 L6.75 24.2 3.3 24.5 2.35 24.35 M13.55 22.65 L13.65 22.3 Q13.55 22.1 13.75 21.9 L14.15 21.75 14.45 21.7 Q14.55 22.5 14.3 22.65 L13.55 22.65 M14.5 21.65 L14.65 21.35 Q14.8 20.6 13.75 19.95 L16.25 21.05 Q15.95 21.1 15.9 21.85 15.8 22.5 15.95 22.75 16.25 23.15 17.5 23.15 L19.2 22.9 Q19.2 23.75 19.45 24.0 L20.5 24.25 21.4 24.45 20.95 24.8 20.85 24.9 18.75 24.6 18.3 24.25 18.3 23.75 17.9 23.9 Q17.9 24.7 18.25 24.95 L19.5 25.25 20.0 25.3 20.85 25.3 21.7 25.1 22.45 25.05 22.55 25.35 22.7 25.7 23.25 25.75 24.3 25.4 Q25.0 25.05 25.25 25.15 L25.35 25.2 26.0 26.3 Q26.7 26.85 27.6 26.75 L28.1 26.55 28.4 26.05 28.8 26.6 29.15 27.25 29.1 27.95 Q27.8 28.25 27.7 27.75 27.75 28.9 27.2 29.8 26.5 30.95 25.25 31.0 25.05 30.75 25.15 30.35 24.9 31.25 23.8 32.35 22.55 33.55 21.45 33.3 L21.4 32.65 20.6 33.6 Q20.0 34.05 19.4 33.9 18.9 33.8 18.8 33.15 L18.6 32.05 17.85 32.7 16.9 32.95 16.55 32.85 Q16.55 31.9 16.0 31.55 L15.85 31.2 15.85 31.3 15.7 31.4 15.6 31.35 13.75 31.95 13.75 31.05 13.4 30.75 12.8 31.05 11.25 31.45 11.25 31.15 11.05 31.45 10.5 31.5 9.75 31.5 9.55 31.2 9.1 31.2 8.65 31.5 8.4 31.65 7.3 31.35 7.45 30.6 9.55 30.4 11.65 30.0 Q11.5 30.15 11.5 30.35 L14.1 30.75 Q16.3 30.85 16.65 30.25 16.6 30.65 17.25 30.65 L18.2 30.45 18.45 30.95 Q18.55 31.3 18.8 31.45 19.45 31.75 20.45 31.45 21.55 31.15 21.6 30.45 22.15 31.2 22.95 30.45 23.7 29.7 23.7 28.95 24.5 29.65 25.25 29.4 L25.65 29.25 25.75 28.85 25.85 27.95 25.75 27.05 23.65 27.0 Q22.05 27.0 22.15 26.0 L20.85 26.0 Q20.05 25.95 19.65 25.6 L19.5 25.45 17.9 25.55 Q17.85 25.1 16.95 25.05 L15.65 25.0 Q15.55 24.65 15.7 24.4 L14.6 24.4 Q14.2 24.45 13.7 25.0 13.2 25.5 12.7 25.6 L11.5 25.25 11.3 24.9 10.95 24.95 10.85 24.95 10.85 24.7 Q12.05 24.4 12.95 23.4 12.9 23.8 13.5 23.8 L14.3 23.6 Q14.7 23.25 15.05 21.8 L14.5 21.65 M22.9 24.35 Q23.35 24.95 24.35 25.05 23.5 25.25 23.15 24.85 L22.9 24.35 M25.1 25.0 L25.15 25.0 25.15 24.9 25.1 24.45 25.3 24.05 26.75 24.4 27.3 24.45 Q27.2 25.05 26.75 25.3 L25.35 25.2 25.3 25.15 25.25 25.15 25.1 25.0 M28.3 24.45 L28.4 24.45 28.25 23.55 28.2 22.6 29.25 22.65 Q29.8 22.65 29.9 22.2 30.1 21.25 28.95 21.05 30.6 21.2 28.1 18.2 L29.45 18.4 Q30.3 18.5 30.75 18.75 L30.3 19.45 31.6 19.65 32.9 19.75 32.7 20.75 Q32.55 21.45 32.8 21.65 33.5 22.1 34.15 20.85 L34.15 21.75 Q34.2 22.25 34.6 22.45 L35.35 22.55 36.05 22.45 36.55 22.1 36.8 21.55 Q36.75 22.2 37.15 22.65 L38.25 23.3 Q40.2 23.7 41.55 23.35 L40.5 23.75 Q39.85 24.05 39.6 24.6 40.0 25.0 41.15 24.95 L42.75 24.65 42.8 25.25 43.3 25.45 44.3 25.3 44.7 24.6 Q44.7 25.45 45.7 25.75 L47.05 25.95 Q48.0 26.0 48.1 25.55 48.5 25.95 49.55 25.85 49.75 24.75 49.15 23.95 49.75 24.45 50.4 24.35 L50.8 23.95 50.9 23.4 51.9 23.5 53.0 23.65 53.3 22.85 53.3 21.85 54.7 22.4 56.1 22.35 Q56.45 21.9 56.0 21.35 L55.1 20.6 56.45 20.55 57.85 20.65 57.9 19.5 57.2 18.8 56.2 18.35 Q56.2 18.1 56.65 17.9 57.1 17.65 57.0 17.25 56.95 16.7 55.95 16.35 L54.45 15.95 54.5 15.35 54.45 14.75 54.0 14.3 Q53.65 13.45 54.8 11.85 L54.9 11.8 Q56.35 11.85 56.65 12.75 L56.7 12.9 56.7 12.95 56.75 13.2 Q56.7 14.0 55.9 15.25 57.8 16.0 62.2 18.65 64.6 20.15 65.15 20.95 L64.85 21.1 63.05 20.95 Q60.3 20.55 58.5 19.25 57.85 20.45 62.25 21.95 L62.4 22.7 63.1 22.85 63.1 23.0 Q63.0 23.8 63.95 23.9 L63.95 25.0 62.0 25.0 60.2 24.45 Q59.85 24.15 59.95 23.65 L59.5 24.5 58.45 24.55 Q58.1 24.4 58.15 23.8 L58.1 22.85 Q57.8 22.8 57.75 23.65 L57.65 24.75 55.9 25.0 54.1 24.6 Q54.6 25.45 55.95 25.55 L56.65 25.55 Q57.1 25.6 57.15 25.85 57.4 26.55 55.6 26.6 L53.4 26.45 53.15 27.25 52.3 27.7 Q49.95 28.05 50.15 26.95 L49.6 27.45 48.85 27.8 47.35 27.95 Q46.35 27.85 45.95 27.45 L46.35 26.3 43.5 26.35 43.6 25.85 43.35 25.55 42.8 25.65 42.25 25.85 39.05 25.7 Q37.25 25.15 36.95 23.7 L36.9 25.0 Q36.95 25.85 37.25 26.3 L36.65 26.5 Q36.95 25.45 36.65 24.7 36.35 23.85 35.55 24.05 35.45 25.05 34.1 25.15 33.05 25.25 32.8 24.85 L32.7 23.5 32.2 24.2 31.35 24.45 Q30.5 24.5 30.25 24.1 L29.7 23.0 29.6 23.95 Q29.6 24.5 29.1 24.6 L28.3 24.45 M41.35 16.35 Q40.4 16.35 40.05 16.0 L41.55 16.05 Q42.4 16.0 42.7 15.15 L42.75 15.1 42.75 15.05 42.8 15.0 42.95 14.3 43.1 13.6 43.05 13.6 42.15 13.85 42.35 12.65 43.0 12.6 43.5 12.2 43.55 11.9 Q44.05 12.35 43.85 12.85 L43.1 13.6 Q43.8 14.3 44.1 14.35 L43.65 15.3 43.2 15.3 42.7 15.4 42.45 15.8 42.15 16.15 41.35 16.35 M39.95 16.0 Q39.8 17.65 39.05 17.7 38.6 17.75 38.35 17.4 L37.9 16.7 37.35 17.4 Q36.95 17.65 36.5 17.4 L36.25 16.95 36.1 16.5 35.35 16.75 34.65 16.55 34.6 15.6 35.05 15.9 35.65 15.85 Q36.05 15.6 35.95 15.05 36.45 15.7 38.15 15.4 L38.15 15.3 Q38.75 15.85 39.95 16.0 M38.15 15.1 L38.15 14.2 40.05 14.55 Q41.35 14.55 41.9 14.15 42.0 15.45 38.15 15.1 M43.55 11.75 L43.1 10.65 44.5 10.6 44.45 10.1 43.85 9.4 45.1 9.3 45.05 8.45 45.05 8.4 47.05 8.65 47.2 9.05 Q47.35 9.75 46.2 9.95 L44.45 10.1 Q46.4 10.1 46.35 10.95 L46.0 11.5 45.9 11.5 45.9 11.6 44.7 11.8 43.55 11.75 M44.95 8.25 L44.55 7.95 45.35 6.7 45.3 7.4 45.1 7.4 45.3 7.5 45.25 7.85 45.2 7.85 45.1 8.1 44.95 8.25 M45.4 13.75 L44.95 13.75 Q45.45 12.65 45.45 11.75 L45.9 11.95 45.8 13.45 45.4 13.75 M49.45 11.5 L48.35 11.7 48.1 10.35 Q49.0 10.45 48.85 11.35 L49.2 11.45 49.45 11.5 M38.2 26.75 L38.75 26.7 38.65 26.85 38.2 26.75" fill="#4e512f" fill-rule="evenodd" stroke="none"/>
      <path d="M12.6 23.0 L12.95 22.7 13.55 22.65 14.3 22.65 Q14.55 22.5 14.45 21.7 L14.45 21.65 14.5 21.65 15.05 21.8 Q14.7 23.25 14.3 23.6 L13.5 23.8 Q12.9 23.8 12.95 23.4 12.05 24.4 10.85 24.7 L10.95 24.2 10.95 24.1 10.95 24.0 9.15 24.35 Q8.05 24.35 7.65 23.65 L7.0 24.1 Q7.1 23.55 7.3 23.35 7.65 23.8 9.0 23.65 10.35 23.55 10.35 22.9 L10.9 23.35 11.7 23.45 12.6 23.0 M21.8 24.8 Q22.6 24.55 22.8 24.15 L22.8 24.1 22.8 24.05 22.9 24.35 23.15 24.85 Q23.5 25.25 24.35 25.05 24.95 24.95 24.85 24.5 L25.05 24.95 25.1 25.0 25.25 25.15 Q25.0 25.05 24.3 25.4 L23.25 25.75 22.7 25.7 22.55 25.35 22.45 25.05 21.7 25.1 20.85 25.3 20.0 25.3 19.5 25.25 18.25 24.95 Q17.9 24.7 17.9 23.9 L18.3 23.75 18.3 24.25 18.75 24.6 20.85 24.9 21.8 24.8 M27.3 24.45 L27.5 23.95 28.3 24.45 29.1 24.6 Q29.6 24.5 29.6 23.95 L29.7 23.0 30.25 24.1 Q30.5 24.5 31.35 24.45 L32.2 24.2 32.7 23.5 32.8 24.85 Q33.05 25.25 34.1 25.15 35.45 25.05 35.55 24.05 36.35 23.85 36.65 24.7 36.95 25.45 36.65 26.5 L36.35 26.6 35.8 26.75 35.3 26.85 35.1 26.85 34.75 26.9 33.45 26.85 33.4 27.2 33.25 27.75 33.15 27.95 Q32.85 28.65 32.0 28.8 L31.75 28.85 31.15 28.85 31.0 28.85 30.95 28.85 30.9 30.1 30.8 31.35 30.0 31.4 28.9 31.4 28.35 31.3 28.0 31.2 27.9 31.15 27.55 32.0 26.7 32.95 26.6 33.0 26.55 33.0 24.35 33.7 24.05 33.85 23.5 34.15 23.2 34.3 23.05 34.35 21.55 34.8 18.7 34.75 18.6 34.1 16.55 34.0 16.55 32.85 16.9 32.95 17.85 32.7 18.6 32.05 18.8 33.15 Q18.9 33.8 19.4 33.9 20.0 34.05 20.6 33.6 L21.4 32.65 21.45 33.3 Q22.55 33.55 23.8 32.35 24.9 31.25 25.15 30.35 25.05 30.75 25.25 31.0 26.5 30.95 27.2 29.8 27.75 28.9 27.7 27.75 27.8 28.25 29.1 27.95 L29.15 27.25 28.8 26.6 28.4 26.05 28.1 26.55 27.6 26.75 Q26.7 26.85 26.0 26.3 L25.35 25.2 26.75 25.3 Q27.2 25.05 27.3 24.45 M40.05 16.0 L39.95 16.0 Q38.75 15.85 38.15 15.3 L37.95 15.05 38.15 15.1 Q42.0 15.45 41.9 14.15 L41.85 14.0 41.85 13.9 42.15 13.85 43.05 13.6 42.95 14.3 42.8 15.0 42.75 15.05 42.75 15.1 42.7 15.15 Q42.4 16.0 41.55 16.05 L40.05 16.0 M43.55 11.9 L43.4 11.8 43.55 11.75 44.7 11.8 45.9 11.6 46.0 11.5 46.35 10.95 Q46.4 10.1 44.45 10.1 L46.2 9.95 Q47.35 9.75 47.2 9.05 L47.05 8.65 49.25 8.9 Q49.35 9.5 48.9 9.9 L48.3 10.2 48.1 10.2 48.1 10.25 47.55 10.35 47.8 10.35 48.1 10.35 48.35 11.7 48.3 12.1 48.1 12.4 47.75 12.55 47.45 12.55 45.9 11.95 45.45 11.75 Q45.45 12.65 44.95 13.75 L44.85 14.0 44.55 14.3 44.1 14.35 Q43.8 14.3 43.1 13.6 L43.85 12.85 Q44.05 12.35 43.55 11.9 M37.25 26.3 Q36.95 25.85 36.9 25.0 L36.95 23.7 Q37.25 25.15 39.05 25.7 L42.25 25.85 42.8 25.65 43.35 25.55 43.6 25.85 43.5 26.35 46.35 26.3 45.95 27.45 Q46.35 27.85 47.35 27.95 L48.85 27.8 49.6 27.45 50.15 26.95 Q49.95 28.05 52.3 27.7 L53.15 27.25 53.4 26.45 55.6 26.6 Q57.4 26.55 57.15 25.85 57.1 25.6 56.65 25.55 L55.95 25.55 Q54.6 25.45 54.1 24.6 L55.9 25.0 57.65 24.75 57.75 23.65 Q57.8 22.8 58.1 22.85 L58.15 23.8 Q58.1 24.4 58.45 24.55 L59.5 24.5 59.95 23.65 Q59.85 24.15 60.2 24.45 L62.0 25.0 63.95 25.0 63.95 23.9 66.0 23.9 66.2 23.9 Q67.35 24.0 67.55 24.8 L67.55 24.95 67.85 24.95 68.35 25.35 68.6 25.5 66.6 26.05 65.2 26.1 65.15 26.05 Q64.15 25.85 63.55 26.55 L63.2 26.6 63.15 27.2 61.15 27.3 59.25 27.05 Q58.8 27.85 57.9 27.65 57.05 28.25 55.85 27.95 L55.15 28.1 54.0 28.95 53.1 29.35 52.05 29.65 Q49.9 30.1 50.0 28.5 49.25 29.5 47.6 29.85 L47.25 29.9 46.5 29.7 Q46.3 29.35 46.65 28.55 L44.75 28.9 Q43.45 28.9 43.0 28.45 43.15 27.85 43.7 27.55 L41.45 27.6 39.3 26.9 39.15 26.95 38.65 26.85 38.75 26.7 38.2 26.75 37.75 26.4 37.7 26.35 37.55 26.15 37.25 26.3 M62.25 21.95 Q57.85 20.45 58.5 19.25 60.3 20.55 63.05 20.95 L64.85 21.1 65.15 20.95 65.35 21.6 62.2 21.8 62.25 21.95 M8.4 31.65 L8.65 31.5 9.1 31.2 9.55 31.2 9.75 31.5 10.5 31.5 11.05 31.45 10.5 31.8 10.3 31.85 8.95 31.8 8.4 31.65 M11.25 31.45 L12.8 31.05 13.4 30.75 13.75 31.05 13.75 31.95 13.5 32.05 13.2 32.1 Q11.6 32.5 11.3 31.75 L11.25 31.45 M15.7 31.4 L15.85 31.3 15.85 31.2 16.0 31.55 15.7 31.4" fill="#414428" fill-rule="evenodd" stroke="none"/>
      <path d="M46.5 29.7 L47.25 29.9 47.25 30.0 47.2 30.6 46.5 30.45 46.5 30.35 46.5 29.7 M53.1 29.35 L54.0 28.95 53.35 29.9 Q52.45 31.35 51.35 31.7 L50.0 31.85 48.6 31.95 Q48.05 32.05 46.7 33.1 46.2 33.0 45.2 34.1 44.7 34.6 43.5 34.8 L44.25 34.4 46.0 32.9 Q46.95 31.95 47.9 31.7 L49.85 31.6 51.05 31.6 Q51.5 31.35 51.4 30.55 L52.0 30.4 53.1 29.35 M35.8 26.75 L36.7 28.4 37.0 30.55 37.4 32.55 37.45 33.45 36.05 34.5 Q35.85 32.6 35.95 31.4 L36.05 30.9 36.05 30.7 36.1 30.5 Q36.2 31.2 36.5 31.25 37.0 29.2 36.05 28.4 L35.2 27.95 35.15 28.1 35.1 28.15 35.0 27.75 34.85 27.4 35.0 27.65 35.05 26.95 35.1 26.85 35.3 26.85 35.8 26.75 M27.9 36.4 L30.2 36.6 32.5 36.85 32.7 36.85 Q33.25 37.0 33.65 37.4 34.05 37.85 34.05 38.35 L34.05 38.4 33.8 38.45 33.45 38.1 Q32.75 37.6 31.3 37.6 L29.1 37.35 28.45 36.9 27.9 36.4 M31.85 36.3 L31.85 36.35 29.35 36.4 Q28.7 36.35 28.5 36.0 L28.4 35.1 28.4 35.0 28.4 34.8 28.55 35.25 29.15 35.8 30.7 36.25 31.85 36.25 31.85 36.3 M38.05 52.7 L37.6 52.35 Q36.9 52.05 36.55 51.75 L36.35 51.5 36.4 50.95 Q37.2 51.5 37.5 51.4 L37.55 50.8 38.7 51.8 40.0 51.9 Q40.4 51.5 40.35 50.55 L40.2 48.9 Q40.1 48.25 40.35 47.8 L40.6 48.45 40.9 50.55 40.9 49.2 41.0 49.7 41.05 51.75 42.0 51.7 42.0 50.95 41.5 50.25 Q41.6 49.75 42.85 49.85 L43.85 49.9 45.3 48.75 Q46.2 47.7 46.35 47.05 L46.4 48.25 46.4 48.3 46.05 48.6 45.05 49.55 43.9 50.25 Q44.4 50.25 44.95 49.8 45.0 50.3 44.25 50.65 L43.0 51.55 Q42.1 52.65 41.2 52.75 L40.05 52.7 38.85 52.55 38.15 52.7 38.05 52.7 M43.25 45.15 L43.9 44.65 44.45 44.15 44.75 44.3 44.05 44.95 43.45 45.35 42.4 45.75 43.25 45.15 M44.45 45.45 L45.55 45.25 Q45.6 45.8 44.95 46.5 L43.9 47.55 45.45 46.8 46.25 46.45 46.3 46.8 45.25 47.7 45.2 47.5 45.35 46.95 Q44.2 48.05 43.05 48.25 L42.85 48.3 42.05 48.2 42.75 47.45 43.5 46.75 44.0 46.25 44.45 45.45 M36.8 40.05 L36.8 40.15 Q36.6 40.45 36.8 40.75 L37.2 41.35 38.2 43.25 38.65 44.75 39.2 45.55 40.1 47.2 39.9 48.25 Q39.55 48.1 39.35 47.55 L38.9 46.75 38.85 47.45 Q38.85 46.8 38.5 46.25 L38.0 45.2 37.15 44.55 Q36.6 44.1 36.55 43.75 L37.5 44.65 38.5 45.55 38.0 43.85 Q37.6 42.8 37.05 42.3 L36.4 41.6 36.2 40.7 36.25 39.75 Q36.2 39.15 35.7 39.2 L36.2 38.2 36.55 39.4 36.6 39.45 36.6 39.5 36.8 40.05" fill="#655a4c" fill-rule="evenodd" stroke="none"/>
      <path d="M47.25 31.4 L48.3 31.25 49.25 30.75 49.9 30.65 51.4 30.55 Q51.5 31.35 51.05 31.6 L49.85 31.6 47.9 31.7 Q46.95 31.95 46.0 32.9 L44.25 34.4 43.5 34.8 43.0 34.8 43.25 34.75 44.85 33.8 45.95 32.8 46.0 32.7 46.1 32.6 46.3 32.35 46.4 32.25 46.55 31.65 46.5 30.45 47.2 30.6 47.25 31.4 M35.1 26.85 L35.05 26.95 35.0 27.65 34.85 27.4 34.85 27.35 34.8 27.25 34.75 26.9 35.1 26.85 M35.2 27.95 L36.05 28.4 Q37.0 29.2 36.5 31.25 36.2 31.2 36.1 30.5 L36.05 30.7 35.8 29.4 35.7 29.25 35.4 28.65 35.25 28.5 35.1 28.15 35.15 28.15 35.2 27.95 M23.8 35.0 Q24.45 35.8 25.6 35.9 L27.7 35.9 29.05 36.45 27.9 36.4 27.2 36.35 26.5 36.4 25.55 36.25 Q24.35 36.1 23.8 35.0 M32.5 36.85 L33.5 36.9 Q34.15 37.1 34.05 38.35 34.05 37.85 33.65 37.4 33.25 37.0 32.7 36.85 L32.5 36.85 M28.4 35.0 Q28.05 34.8 28.05 33.75 L28.0 33.0 28.05 33.05 28.4 34.4 28.4 34.5 28.4 34.55 28.4 34.8 28.4 35.0 M36.2 50.45 L36.4 50.4 36.85 50.1 36.7 49.45 Q36.6 48.5 36.75 47.75 L37.8 49.75 Q38.45 51.25 39.4 51.1 39.95 51.0 39.9 50.25 L39.75 48.95 Q39.4 48.95 39.55 49.7 L39.15 48.7 38.9 47.6 38.85 47.55 37.2 45.15 Q35.95 43.65 35.9 42.6 36.9 42.75 35.9 40.7 34.95 38.65 35.25 37.75 L36.45 35.95 Q37.65 34.6 38.15 35.0 36.95 35.2 36.5 36.2 36.2 36.8 36.2 38.1 L36.2 38.2 35.7 39.2 Q36.2 39.15 36.25 39.75 L36.2 40.7 36.4 41.6 37.05 42.3 Q37.6 42.8 38.0 43.85 L38.5 45.55 37.5 44.65 36.55 43.75 Q36.6 44.1 37.15 44.55 L38.0 45.2 38.5 46.25 Q38.85 46.8 38.85 47.45 L38.9 46.75 39.35 47.55 Q39.55 48.1 39.9 48.25 L40.1 47.2 40.35 47.8 Q40.1 48.25 40.2 48.9 L40.35 50.55 Q40.4 51.5 40.0 51.9 L38.7 51.8 37.55 50.8 37.5 51.4 Q37.2 51.5 36.4 50.95 L36.35 51.5 36.25 50.85 36.2 50.45 M43.0 44.1 L44.25 44.3 43.9 44.65 43.25 45.15 42.6 44.45 42.55 44.4 42.9 44.05 43.0 44.1 M44.45 44.15 L44.25 44.3 43.3 44.1 43.4 43.9 44.45 44.15 M44.05 44.95 L43.7 45.55 44.05 45.55 44.45 45.45 44.0 46.25 43.5 46.75 43.9 46.1 43.5 46.25 43.4 45.7 42.45 46.65 41.75 47.65 Q41.7 47.25 42.25 46.55 L43.45 45.5 43.55 45.4 43.5 45.35 43.45 45.35 44.05 44.95 M40.9 49.2 L40.9 47.1 41.5 47.75 Q41.7 48.15 41.5 48.55 L41.45 48.7 41.7 48.45 42.05 47.65 Q42.25 47.1 42.7 47.1 L42.75 47.45 42.05 48.2 42.85 48.3 42.85 48.5 43.05 48.25 Q44.2 48.05 45.35 46.95 L45.2 47.5 45.25 47.7 46.3 46.8 46.35 47.05 Q46.2 47.7 45.3 48.75 L43.85 49.9 42.85 49.85 Q41.6 49.75 41.5 50.25 L42.0 50.95 42.0 51.7 41.05 51.75 41.0 49.7 40.9 49.2 M41.5 49.75 L42.35 49.7 43.45 49.2 44.55 48.4 43.55 48.4 42.6 48.9 Q41.35 49.3 41.5 49.75" fill="#786c5c" fill-rule="evenodd" stroke="none"/>
      <path d="M36.05 30.7 L36.05 30.9 35.95 31.4 35.75 31.75 35.7 30.75 35.7 30.65 35.65 29.55 35.55 29.1 35.45 28.75 35.4 28.65 35.7 29.25 35.8 29.4 36.05 30.7 M34.05 38.4 L34.25 38.25 34.4 37.5 34.4 36.7 Q34.65 35.9 35.65 35.4 35.35 35.7 35.25 36.35 L35.1 37.4 Q34.85 38.45 34.9 39.1 L34.8 42.5 34.35 41.4 Q34.2 41.0 34.2 39.1 L34.2 39.0 33.8 38.45 34.05 38.4 M36.55 34.15 L36.95 33.9 37.55 33.65 39.65 33.7 40.5 33.9 39.15 33.9 Q38.65 33.95 37.45 34.65 36.35 35.2 35.7 35.05 L36.55 34.15 M35.05 43.6 L35.05 43.45 35.25 43.3 35.55 44.45 Q35.75 45.15 36.1 45.55 L36.9 46.25 37.55 47.1 Q38.5 49.05 38.35 50.15 37.95 49.1 37.2 48.2 L36.5 47.6 Q36.2 47.65 36.2 48.05 L36.2 48.6 36.0 49.0 35.7 47.75 35.1 43.85 35.05 43.6 M41.5 49.75 Q41.35 49.3 42.6 48.9 L43.55 48.4 44.55 48.4 43.45 49.2 42.35 49.7 41.5 49.75" fill="#93846f" fill-rule="evenodd" stroke="none"/>
      <path d="M47.25 31.4 L47.2 30.6 47.25 30.0 47.25 31.4 M46.5 30.45 L46.55 31.65 46.4 32.25 46.5 31.15 46.5 30.45 M46.0 32.7 L45.95 32.8 44.85 33.8 43.25 34.75 43.0 34.8 40.9 34.75 38.6 34.95 38.15 35.0 Q37.65 34.6 36.45 35.95 L35.25 37.75 Q34.95 38.65 35.9 40.7 36.9 42.75 35.9 42.6 35.95 43.65 37.2 45.15 L38.85 47.55 38.9 47.6 39.15 48.7 39.55 49.7 Q39.4 48.95 39.75 48.95 L39.9 50.25 Q39.95 51.0 39.4 51.1 38.45 51.25 37.8 49.75 L36.75 47.75 Q36.6 48.5 36.7 49.45 L36.85 50.1 36.4 50.4 36.2 50.45 35.7 47.75 36.0 49.0 36.2 48.6 36.2 48.05 Q36.2 47.65 36.5 47.6 L37.2 48.2 Q37.95 49.1 38.35 50.15 38.5 49.05 37.55 47.1 L36.9 46.25 36.1 45.55 Q35.75 45.15 35.55 44.45 L35.25 43.3 35.05 43.45 35.05 43.6 35.0 43.25 34.7 42.3 34.35 41.4 34.8 42.5 34.9 39.1 Q34.85 38.45 35.1 37.4 L35.25 36.35 Q35.35 35.7 35.65 35.4 34.65 35.9 34.4 36.7 L34.8 35.9 35.25 35.1 Q35.7 34.25 35.75 32.95 L35.7 30.75 35.75 31.75 35.95 31.4 Q35.85 32.6 36.05 34.5 L37.45 33.45 37.45 33.65 39.65 33.7 41.75 34.1 Q43.35 34.3 43.9 34.1 44.9 33.8 46.0 32.7 M35.15 28.1 L35.2 27.95 35.15 28.15 35.15 28.1 M28.35 31.3 L28.45 32.45 28.4 34.4 28.05 33.05 28.0 33.0 28.05 33.75 Q28.05 34.8 28.4 35.0 L28.4 35.1 28.5 36.0 Q28.7 36.35 29.35 36.4 L31.85 36.35 31.85 36.3 34.2 36.6 34.4 36.7 34.4 37.5 34.25 38.25 34.05 38.4 34.05 38.35 Q34.15 37.1 33.5 36.9 L32.5 36.85 30.2 36.6 27.9 36.4 29.05 36.45 27.7 35.9 25.6 35.9 Q24.45 35.8 23.8 35.0 L23.5 34.15 24.05 33.85 24.1 34.05 Q24.4 34.9 24.85 35.1 L26.1 35.45 27.4 35.4 Q27.75 35.25 27.8 34.2 L27.7 32.75 27.55 32.0 27.9 31.15 28.0 31.2 28.35 31.3 M36.55 34.15 L35.7 35.05 Q36.35 35.2 37.45 34.65 38.65 33.95 39.15 33.9 L40.5 33.9 39.65 33.7 37.55 33.65 36.95 33.9 36.55 34.15 M46.25 33.45 L46.7 33.1 Q48.05 32.05 48.6 31.95 48.1 32.1 47.4 32.6 L46.25 33.45 M36.35 51.5 L36.25 51.15 36.25 50.85 36.35 51.5 M43.9 44.65 L44.25 44.3 43.0 44.1 43.4 43.9 43.3 44.1 44.25 44.3 44.45 44.15 43.9 44.65 M42.6 44.45 L43.25 45.15 42.4 45.75 43.45 45.35 43.5 45.35 43.55 45.4 43.45 45.5 42.25 46.55 Q41.7 47.25 41.75 47.65 L42.45 46.65 43.4 45.7 43.5 46.25 43.9 46.1 43.5 46.75 42.75 47.45 42.7 47.1 Q42.25 47.1 42.05 47.65 L41.7 48.45 41.45 48.7 41.5 48.55 Q41.7 48.15 41.5 47.75 L40.9 47.1 40.9 47.05 40.85 47.05 41.1 46.85 41.4 46.35 41.75 45.55 42.6 44.45 M45.2 44.6 L44.75 44.3 44.45 44.15 43.4 43.9 Q44.35 43.8 45.2 44.6 M46.25 46.45 L45.9 45.45 46.25 46.25 46.3 46.35 46.35 47.05 46.3 46.8 46.25 46.45 M42.85 48.3 L43.05 48.25 42.85 48.5 42.85 48.3 M46.4 48.3 L46.2 49.4 45.95 49.8 46.4 48.3" fill="#867966" fill-rule="evenodd" stroke="none"/>
      <path d="M43.0 34.8 L43.5 34.8 Q44.7 34.6 45.2 34.1 46.2 33.0 46.7 33.1 L46.25 33.45 45.25 34.3 44.25 35.1 41.7 35.25 38.85 35.2 Q38.4 35.3 37.9 35.6 L37.05 36.15 36.7 36.9 Q36.3 38.05 36.6 39.45 L36.55 39.4 36.2 38.2 36.2 38.1 Q36.2 36.8 36.5 36.2 36.95 35.2 38.15 35.0 L38.6 34.95 40.9 34.75 43.0 34.8 M45.25 44.65 L45.35 44.75 45.9 45.45 46.25 46.45 45.45 46.8 43.9 47.55 44.95 46.5 Q45.6 45.8 45.55 45.25 L44.45 45.45 44.05 45.55 43.7 45.55 44.05 44.95 44.75 44.3 45.2 44.6 45.25 44.65 M42.85 52.65 L42.75 52.7 42.35 52.95 42.05 53.15 41.95 53.2 Q41.5 53.4 41.2 53.55 L40.4 53.75 39.95 53.75 39.5 53.6 39.3 53.5 38.05 52.7 38.15 52.7 38.85 52.55 40.05 52.7 41.2 52.75 Q42.1 52.65 43.0 51.55 L44.25 50.65 Q45.0 50.3 44.95 49.8 44.4 50.25 43.9 50.25 L45.05 49.55 46.05 48.6 46.4 48.3 45.95 49.8 45.55 50.35 45.15 51.25 44.7 52.1 43.8 52.45 42.9 52.6 42.85 52.65 M40.1 47.2 L39.2 45.55 38.65 44.75 38.2 43.25 37.2 41.35 36.8 40.75 Q36.6 40.45 36.8 40.15 L36.8 40.05 37.2 41.0 37.25 41.05 39.35 44.9 39.85 46.3 Q40.25 47.25 40.85 47.05 L40.9 47.05 40.9 47.1 40.9 49.2 40.9 50.55 40.6 48.45 40.35 47.8 40.1 47.2" fill="#473e36" fill-rule="evenodd" stroke="none"/>
      <path d="M45.2 35.8 L45.3 38.45 45.2 41.1 Q44.9 41.0 44.9 40.5 L44.95 39.65 45.2 35.8 M43.5 43.45 L43.45 42.3 43.35 36.45 43.8 40.05 43.95 43.65 43.95 43.75 43.5 43.75 43.5 43.45 M45.35 44.75 L45.35 44.05 46.1 37.9 Q46.35 38.65 46.25 40.0 L46.25 42.15 46.6 43.8 47.5 47.15 Q47.9 48.45 47.8 50.75 L47.7 54.5 Q46.7 52.6 46.7 51.4 L46.7 50.3 46.7 49.05 46.45 46.8 46.3 46.35 46.25 46.25 45.9 45.45 45.35 44.75 M46.2 51.55 L46.1 57.05 45.75 59.7 45.75 61.25 45.7 62.75 Q45.5 62.45 45.55 61.85 L45.6 60.95 45.7 54.55 46.2 51.4 46.2 51.55 M44.1 53.0 L44.2 55.95 44.2 57.9 Q43.75 57.0 43.7 55.5 L43.7 53.05 44.05 52.85 44.1 52.8 44.1 53.0 M42.35 52.95 L42.2 55.0 41.95 53.2 42.05 53.15 42.35 52.95 M41.95 42.8 L41.35 43.6 Q40.85 44.1 40.85 44.5 40.75 44.15 41.1 43.65 L41.55 42.9 41.6 41.05 42.1 37.55 42.1 41.15 41.95 42.8" fill="#b3aa9e" fill-rule="evenodd" stroke="none"/>
      <path d="M43.95 43.65 L44.2 43.5 Q44.55 43.3 44.55 42.3 44.5 40.55 44.6 39.7 44.95 40.25 44.95 42.8 L45.25 44.65 45.2 44.6 Q44.35 43.8 43.4 43.9 L43.0 44.1 42.9 44.05 42.55 44.4 42.6 44.45 41.75 45.55 41.4 46.35 41.1 46.85 41.1 45.8 42.2 44.25 43.1 43.05 43.2 42.1 Q43.2 43.0 43.5 43.45 L43.5 43.75 43.95 43.75 43.95 43.65 M46.7 50.3 L46.6 50.55 Q46.5 50.75 46.55 51.6 L46.35 52.5 46.2 51.55 46.2 51.4 46.05 50.55 45.85 51.45 45.8 52.35 45.6 55.25 Q45.5 58.0 45.2 58.7 45.3 55.25 44.1 53.0 L44.1 52.8 44.05 52.85 43.8 52.45 Q43.5 52.8 43.55 53.7 43.3 53.7 42.85 52.65 L42.9 52.6 43.8 52.45 44.7 52.1 45.15 51.25 45.55 50.35 45.95 49.8 46.2 49.4 46.4 48.3 46.4 48.25 46.35 47.05 46.3 46.35 46.45 46.8 46.7 49.05 46.7 50.3" fill="#635b52" fill-rule="evenodd" stroke="none"/>
    </g>
  </defs>
</svg>
