<?xml version="1.0" encoding="UTF-8" standalone="no"?>
<svg xmlns:xlink="http://www.w3.org/1999/xlink" height="43.8px" width="73.15px" xmlns="http://www.w3.org/2000/svg">
  <g transform="matrix(1.0, 0.0, 0.0, 1.0, 0.0, 0.0)">
    <use height="43.8" transform="matrix(1.0, 0.0, 0.0, 1.0, 0.0, 0.0)" width="73.15" xlink:href="#shape0"/>
  </g>
  <defs>
    <g id="shape0" transform="matrix(1.0, 0.0, 0.0, 1.0, 0.0, 0.0)">
      <path d="M35.65 6.55 L24.1 11.45 23.8 10.1 23.6 9.75 Q23.65 8.9 23.0 8.65 22.6 8.5 22.45 8.65 L22.6 7.65 Q23.5 5.9 26.9 4.75 29.15 4.05 30.65 4.7 L32.35 5.5 33.4 5.5 35.65 6.55" fill="#f5c925" fill-rule="evenodd" stroke="none"/>
      <path d="M38.85 5.1 Q33.95 7.85 32.25 7.8 30.75 7.75 30.1 7.3 L29.8 6.85 33.15 3.2 Q35.3 1.1 36.9 0.9 L39.95 1.15 Q40.7 1.4 41.4 0.55 42.1 -0.35 42.95 0.2 43.85 0.8 43.6 1.8 43.45 2.45 38.85 5.1" fill="#f0c116" fill-rule="evenodd" stroke="none"/>
      <path d="M53.25 22.6 L53.3 23.4 47.9 22.9 44.9 22.15 42.65 21.65 37.5 20.85 31.65 20.0 23.35 18.15 Q23.7 13.55 23.05 12.3 22.5 11.3 22.3 9.65 22.15 8.0 22.7 7.95 23.15 7.9 23.7 8.55 L24.45 9.8 Q24.65 10.3 38.95 16.5 L53.25 22.6" fill="#d9b127" fill-rule="evenodd" stroke="none"/>
      <path d="M29.0 4.8 Q30.35 4.75 29.9 5.15 29.5 5.55 28.55 5.8 L26.7 6.5 24.7 6.95 Q24.1 6.85 24.3 6.5 L25.05 5.85 Q25.65 5.55 27.05 5.2 L29.0 4.8" fill="#f5d55d" fill-rule="evenodd" stroke="none"/>
      <path d="M38.35 1.55 Q40.0 1.55 38.85 2.25 L35.7 3.5 33.7 4.05 Q33.5 3.95 34.4 2.95 35.95 1.4 38.35 1.55" fill="#f5d55d" fill-rule="evenodd" stroke="none"/>
      <path d="M42.5 0.35 Q43.0 0.5 42.65 0.9 L41.8 1.1 Q41.35 0.9 41.7 0.55 42.05 0.2 42.5 0.35" fill="#f5d55d" fill-rule="evenodd" stroke="none"/>
      <path d="M53.3 16.05 L53.25 22.6 Q48.35 22.8 46.3 21.85 L42.7 21.1 38.55 20.4 35.1 19.7 30.8 18.85 26.35 17.85 24.9 17.7 Q24.5 15.95 24.4 13.6 L24.0 9.4 24.75 9.5 26.65 9.4 32.15 9.05 41.2 9.5 Q44.3 10.15 49.1 13.2 L53.3 16.05" fill="#fff492" fill-rule="evenodd" stroke="none"/>
      <path d="M44.15 20.55 Q42.25 20.35 41.5 19.7 40.2 18.6 37.6 18.65 35.05 18.85 33.95 18.0 L32.15 16.85 29.6 16.65 27.0 17.3 24.85 17.4 24.55 15.8 Q25.25 16.35 26.75 16.1 L29.05 15.65 Q30.55 15.45 31.5 15.95 L33.6 17.3 Q34.85 18.05 35.75 18.1 L38.05 18.0 40.0 18.2 41.75 19.3 Q43.1 20.05 44.25 20.25 L49.25 19.6 53.25 19.9 53.25 20.9 Q52.55 20.4 51.7 20.25 L46.6 20.55 Q45.7 20.75 44.15 20.55" fill="#d9b63f" fill-rule="evenodd" stroke="none"/>
      <path d="M37.35 9.05 L41.6 9.6 Q44.65 10.4 49.25 13.3 L53.3 16.05 53.3 16.95 52.0 16.7 49.85 16.35 48.3 15.95 46.55 15.5 42.1 15.05 39.65 14.65 37.3 14.0 30.85 12.45 26.5 11.5 Q25.25 11.0 24.05 10.15 L24.0 9.4 24.75 9.5 26.65 9.4 30.15 9.15 Q34.3 8.9 37.35 9.05" fill="#e3bb32" fill-rule="evenodd" stroke="none"/>
      <path d="M42.85 18.4 L40.25 17.65 37.75 17.4 35.45 16.95 Q32.25 15.4 31.15 15.2 L26.9 15.05 24.5 14.9 24.3 12.25 25.25 13.25 27.35 13.35 31.0 13.65 Q32.55 14.05 33.95 15.05 35.35 16.1 37.2 16.65 L39.95 17.1 Q40.75 17.05 42.15 17.75 L44.4 18.65 Q45.2 18.85 46.6 18.65 L48.9 18.35 51.15 17.95 53.3 17.7 53.25 17.9 53.2 19.0 51.7 18.8 50.1 18.9 47.85 19.05 45.65 19.15 42.85 18.4" fill="#628f00" fill-rule="evenodd" stroke="none"/>
      <path d="M26.3 12.2 Q27.3 12.35 27.2 12.75 L26.75 13.15 Q25.85 13.5 25.4 12.9 25.1 12.6 25.4 12.35 25.65 12.1 26.3 12.2" fill="#d9b63f" fill-rule="evenodd" stroke="none"/>
      <path d="M34.2 13.75 L34.75 14.35 Q34.85 14.9 34.4 14.95 34.05 15.0 33.7 14.65 L33.0 13.9 Q32.65 13.6 32.95 13.6 L34.2 13.75" fill="#d9b63f" fill-rule="evenodd" stroke="none"/>
      <path d="M41.6 15.7 Q42.2 15.85 42.7 16.35 43.15 16.85 42.5 17.05 L41.2 16.95 40.45 16.4 Q40.3 16.1 40.65 15.9 L41.6 15.7" fill="#d9b63f" fill-rule="evenodd" stroke="none"/>
      <path d="M46.05 16.75 Q47.45 17.15 47.4 17.75 47.25 18.25 46.0 18.55 L44.4 18.35 43.75 17.5 Q43.4 17.05 44.15 16.8 L46.05 16.75" fill="#d9b63f" fill-rule="evenodd" stroke="none"/>
      <path d="M31.7 17.25 Q32.6 17.5 32.7 18.05 32.8 18.6 32.05 18.65 31.35 18.7 30.75 18.35 L30.0 17.55 Q29.9 17.2 30.5 17.15 L31.7 17.25" fill="#d9b63f" fill-rule="evenodd" stroke="none"/>
      <path d="M28.65 12.5 Q29.4 12.5 29.35 12.8 L29.0 13.15 27.9 13.05 Q27.65 12.85 27.85 12.7 L28.65 12.5" fill="#d9b63f" fill-rule="evenodd" stroke="none"/>
      <path d="M38.45 19.0 Q39.35 19.1 39.45 19.55 39.6 19.85 39.2 20.05 38.5 20.5 37.5 19.85 37.0 19.5 37.45 19.2 L38.45 19.0" fill="#d9b63f" fill-rule="evenodd" stroke="none"/>
      <path d="M40.7 19.75 Q41.75 20.05 41.25 20.45 41.15 20.65 40.7 20.45 L40.25 20.15 40.25 19.85 Q40.4 19.65 40.7 19.75" fill="#d9b63f" fill-rule="evenodd" stroke="none"/>
      <path d="M50.5 20.7 Q51.9 20.95 51.5 21.35 51.25 21.75 50.3 21.85 L48.95 21.8 Q48.3 21.55 48.2 21.15 48.15 20.75 48.8 20.65 L50.5 20.7" fill="#d9b63f" fill-rule="evenodd" stroke="none"/>
      <path d="M37.55 3.55 L43.6 1.8 47.2 6.95 50.65 12.05 53.3 16.05 50.15 15.35 45.3 14.3 42.2 14.05 38.65 13.35 Q35.85 12.0 31.0 11.6 L27.9 11.0 26.15 10.3 24.0 9.4 25.65 8.75 29.5 6.95 33.45 5.0 Q35.35 4.2 37.55 3.55" fill="#ffcf1f" fill-rule="evenodd" stroke="none"/>
      <path d="M35.65 6.85 L34.85 6.9 34.2 6.25 Q33.6 5.85 33.95 5.5 34.25 5.15 35.05 5.15 36.55 5.3 36.5 6.0 36.5 6.6 35.65 6.85" fill="#fffa75" fill-rule="evenodd" stroke="none"/>
      <path d="M27.75 8.75 Q28.7 8.75 29.0 9.3 29.15 9.75 28.85 10.05 L26.3 9.75 Q25.4 9.45 26.2 9.05 26.95 8.65 27.75 8.75" fill="#fffa75" fill-rule="evenodd" stroke="none"/>
      <path d="M30.5 9.85 Q31.25 10.0 31.6 10.4 31.9 10.7 31.8 11.0 L31.3 11.2 29.9 11.1 Q28.85 11.0 29.25 10.35 29.6 9.7 30.5 9.85" fill="#fffa75" fill-rule="evenodd" stroke="none"/>
      <path d="M37.4 10.8 Q37.55 11.1 37.1 11.45 36.5 11.95 35.2 11.45 34.7 11.25 35.15 10.95 35.55 10.6 36.25 10.55 37.15 10.45 37.4 10.8" fill="#fffa75" fill-rule="evenodd" stroke="none"/>
      <path d="M39.15 9.45 L40.55 9.3 Q41.4 9.45 40.7 9.8 L39.15 10.6 38.3 10.7 37.4 10.35 Q36.9 10.2 37.4 10.05 L39.15 9.45" fill="#fffa75" fill-rule="evenodd" stroke="none"/>
      <path d="M41.15 6.0 Q42.0 6.15 42.3 6.75 42.55 7.35 42.1 7.6 L39.8 7.45 Q39.3 7.3 39.45 6.85 L40.05 5.75 Q40.25 5.3 40.35 5.5 L41.15 6.0" fill="#fffa75" fill-rule="evenodd" stroke="none"/>
      <path d="M45.2 6.4 Q45.65 5.8 45.65 6.55 45.75 7.35 45.45 7.45 L44.75 7.4 44.1 7.0 Q44.0 6.95 44.45 6.8 L45.2 6.4" fill="#fffa75" fill-rule="evenodd" stroke="none"/>
      <path d="M46.6 8.2 Q47.45 8.15 47.55 8.75 47.65 9.2 47.35 9.5 47.0 9.9 46.25 9.9 45.65 9.9 44.65 9.1 44.3 8.8 44.95 8.55 L46.6 8.2" fill="#fffa75" fill-rule="evenodd" stroke="none"/>
      <path d="M42.4 10.25 Q42.95 10.05 42.95 10.45 L42.6 11.0 42.1 11.1 41.4 10.9 Q41.15 10.75 41.5 10.6 L42.4 10.25" fill="#fffa75" fill-rule="evenodd" stroke="none"/>
      <path d="M41.1 11.9 Q41.8 11.95 40.95 12.65 L40.75 12.3 Q40.7 11.9 41.1 11.9" fill="#fffa75" fill-rule="evenodd" stroke="none"/>
      <path d="M48.6 12.8 Q49.8 12.8 50.25 13.3 50.6 13.8 50.25 14.2 50.05 14.55 49.75 14.55 L49.05 14.5 Q48.75 14.45 48.15 14.05 L47.15 13.45 Q46.6 13.25 47.1 13.05 L48.6 12.8" fill="#fffa75" fill-rule="evenodd" stroke="none"/>
      <path d="M42.95 14.55 L41.7 14.4 41.1 14.2 41.05 14.3 40.65 14.75 Q40.35 15.25 40.35 15.75 40.35 16.3 39.95 16.5 L39.05 16.6 Q38.6 16.45 38.55 15.9 38.55 15.45 38.85 14.95 39.1 14.55 38.25 13.85 37.35 13.15 36.55 13.3 36.05 13.4 36.6 16.0 36.85 17.25 36.5 17.75 36.2 18.2 35.55 18.05 34.75 17.75 35.5 15.6 36.1 13.8 35.3 12.8 34.95 12.35 33.0 11.95 L30.5 11.6 Q30.0 11.6 29.7 12.0 29.35 12.35 29.45 12.8 L29.45 13.5 28.65 13.75 Q27.9 13.9 27.85 13.25 L28.0 12.05 Q28.15 11.3 26.95 10.45 L27.55 10.35 Q28.25 10.3 28.9 10.8 30.05 11.6 32.6 11.15 L34.4 11.55 37.7 12.2 42.1 13.15 48.4 14.7 49.85 14.95 53.3 15.9 53.65 16.3 Q53.85 16.45 53.85 17.2 L53.65 18.3 Q53.45 18.65 53.25 18.45 L52.95 17.85 53.05 17.0 Q53.15 16.4 52.9 16.25 L51.6 16.0 50.3 16.05 50.05 16.4 49.65 17.2 48.8 17.35 48.3 16.7 47.15 15.6 45.8 14.8 42.95 14.55" fill="#ffcf1f" fill-rule="evenodd" stroke="none"/>
      <path d="M41.15 3.9 Q43.35 4.05 43.8 4.9 44.2 5.6 43.3 6.25 L41.6 6.5 Q40.9 6.35 39.7 5.8 38.8 5.4 39.5 4.6 40.2 3.8 41.15 3.9" fill="#2a6300" fill-rule="evenodd" stroke="none"/>
      <path d="M33.05 6.85 Q33.6 6.85 34.4 7.35 35.1 7.8 35.0 8.1 L34.4 8.55 32.8 8.95 31.35 8.75 30.75 7.75 Q30.45 7.3 31.45 7.0 L33.05 6.85" fill="#2a6300" fill-rule="evenodd" stroke="none"/>
      <path d="M38.2 10.1 L39.35 10.35 40.2 11.0 42.05 11.15 43.85 11.35 Q44.05 11.7 43.4 12.2 L41.6 13.25 39.55 13.2 37.65 11.9 Q36.8 11.4 37.15 10.7 37.5 10.1 38.2 10.1" fill="#2a6300" fill-rule="evenodd" stroke="none"/>
      <path d="M47.45 11.0 Q49.0 11.0 49.25 11.55 49.55 12.0 48.9 12.4 L48.1 12.65 47.05 12.4 Q46.3 12.3 46.45 11.6 46.55 10.95 47.45 11.0" fill="#2a6300" fill-rule="evenodd" stroke="none"/>
      <path d="M41.15 3.9 L43.05 4.3 Q43.75 4.6 43.7 4.8 L43.1 5.25 42.25 5.6 41.15 5.45 39.8 4.95 Q39.3 4.7 39.9 4.25 40.5 3.85 41.15 3.9" fill="#388200" fill-rule="evenodd" stroke="none"/>
      <path d="M30.9 7.2 Q30.85 7.0 31.25 7.05 L32.2 6.95 33.5 6.85 Q34.0 6.85 34.4 7.2 34.7 7.5 34.6 7.85 L33.95 8.1 32.8 8.05 31.3 7.6 30.9 7.2" fill="#388200" fill-rule="evenodd" stroke="none"/>
      <path d="M39.25 10.3 Q40.65 11.15 39.65 11.45 L38.3 11.05 37.7 10.55 Q37.5 10.25 37.75 10.1 L38.4 9.95 39.25 10.3" fill="#388200" fill-rule="evenodd" stroke="none"/>
      <path d="M41.65 11.1 L43.05 11.0 43.85 11.35 43.55 11.55 42.35 11.8 40.35 11.75 Q40.05 11.5 40.6 11.3 L41.65 11.1" fill="#388200" fill-rule="evenodd" stroke="none"/>
      <path d="M46.9 11.0 L48.05 10.95 49.1 11.3 Q49.5 11.45 49.25 11.6 L48.65 11.9 47.9 11.9 47.15 11.7 46.7 11.4 Q46.55 11.15 46.9 11.0" fill="#388200" fill-rule="evenodd" stroke="none"/>
      <path d="M36.95 5.7 Q38.75 5.8 38.1 6.45 37.5 7.1 36.6 6.8 35.85 6.55 36.05 6.1 36.2 5.65 36.95 5.7" fill="#967e2b" fill-rule="evenodd" stroke="none"/>
      <path d="M43.7 3.0 Q44.5 3.1 44.7 3.5 44.85 3.95 43.95 3.85 43.1 3.8 43.15 3.4 43.15 3.0 43.7 3.0" fill="#967e2b" fill-rule="evenodd" stroke="none"/>
      <path d="M46.1 7.4 Q47.0 7.4 46.6 8.15 46.2 8.8 45.35 8.5 44.6 8.2 45.0 7.75 45.4 7.35 46.1 7.4" fill="#967e2b" fill-rule="evenodd" stroke="none"/>
      <path d="M36.3 9.7 Q35.45 9.75 35.4 9.25 35.35 8.75 35.9 8.75 36.75 8.65 37.0 9.2 37.2 9.65 36.3 9.7" fill="#967e2b" fill-rule="evenodd" stroke="none"/>
      <path d="M30.0 8.75 Q30.8 8.9 30.45 9.45 30.1 10.0 29.15 9.7 28.2 9.45 28.65 9.05 29.1 8.65 30.0 8.75" fill="#967e2b" fill-rule="evenodd" stroke="none"/>
      <path d="M44.8 12.65 Q45.1 12.6 45.65 13.0 46.1 13.45 45.85 13.7 L45.2 13.85 44.15 13.6 Q43.4 13.4 43.75 13.1 44.0 12.8 44.8 12.65" fill="#967e2b" fill-rule="evenodd" stroke="none"/>
      <path d="M50.05 13.55 Q50.55 13.55 50.8 13.95 L50.95 14.6 Q50.7 14.95 49.35 14.6 48.65 14.45 49.0 14.0 49.35 13.55 50.05 13.55" fill="#967e2b" fill-rule="evenodd" stroke="none"/>
      <path d="M43.15 9.1 Q44.1 9.2 43.8 9.75 43.5 10.35 42.4 10.25 41.3 10.15 41.75 9.6 42.25 9.0 43.15 9.1" fill="#967e2b" fill-rule="evenodd" stroke="none"/>
      <path d="M52.4 14.95 Q53.05 15.0 52.95 15.3 L52.45 15.6 52.05 15.35 Q51.95 14.95 52.4 14.95" fill="#967e2b" fill-rule="evenodd" stroke="none"/>
      <path d="M33.9 11.45 Q34.4 11.5 34.35 12.05 34.3 12.6 33.55 12.35 32.8 12.05 33.05 11.7 33.2 11.4 33.9 11.45" fill="#967e2b" fill-rule="evenodd" stroke="none"/>
      <path d="M18.2 16.35 L20.45 15.25 21.5 15.25 Q22.05 15.25 23.2 14.45 L26.9 14.6 Q30.35 15.7 31.25 17.4 31.7 18.25 31.5 18.9 31.7 18.1 30.85 18.4 30.4 18.6 30.3 19.1 L30.2 19.55 30.0 19.9 29.75 21.3 18.2 16.35" fill="#f5c925" fill-rule="evenodd" stroke="none"/>
      <path d="M24.65 17.3 L24.05 16.6 23.7 17.05 Q23.1 17.5 21.55 17.55 19.9 17.6 15.05 14.85 10.35 12.2 10.2 11.55 10.05 10.55 10.9 10.0 11.75 9.45 12.45 10.3 13.2 11.15 13.9 10.95 L16.95 10.65 Q18.6 10.85 20.7 13.0 L24.65 17.3" fill="#f0c116" fill-rule="evenodd" stroke="none"/>
      <path d="M29.4 19.6 Q29.65 18.9 30.15 18.35 30.7 17.7 31.2 17.75 31.7 17.75 31.55 19.45 31.35 21.05 30.8 22.05 30.1 23.3 30.5 27.9 L29.05 28.3 22.2 29.75 16.4 30.6 11.15 31.4 8.95 31.9 6.0 32.65 0.55 33.15 0.65 32.35 Q29.05 20.4 29.4 19.6" fill="#d9b127" fill-rule="evenodd" stroke="none"/>
      <path d="M24.85 14.6 L26.8 15.0 28.75 15.6 Q29.45 15.95 29.55 16.25 29.75 16.6 29.1 16.75 L27.2 16.3 25.25 15.55 Q24.35 15.25 23.95 14.95 23.45 14.55 24.85 14.6" fill="#f5d55d" fill-rule="evenodd" stroke="none"/>
      <path d="M15.5 11.3 Q17.95 11.15 19.45 12.8 L20.15 13.8 18.15 13.25 15.05 12.0 Q13.9 11.35 15.5 11.3" fill="#f5d55d" fill-rule="evenodd" stroke="none"/>
      <path d="M11.35 10.1 L12.15 10.3 Q12.5 10.65 12.05 10.85 11.6 11.0 11.2 10.65 10.85 10.25 11.35 10.1" fill="#f5d55d" fill-rule="evenodd" stroke="none"/>
      <path d="M27.2 19.15 Q28.65 19.4 29.9 19.15 L29.7 20.4 Q29.5 21.9 29.45 23.35 29.4 25.7 29.0 27.45 L23.05 28.6 18.75 29.45 15.3 30.15 11.1 30.85 Q8.7 31.15 7.55 31.65 5.5 32.6 0.65 32.35 L0.5 25.85 4.7 22.95 Q9.6 19.95 12.6 19.25 L21.75 18.8 27.2 19.15" fill="#fff492" fill-rule="evenodd" stroke="none"/>
      <path d="M18.1 27.85 Q19.0 27.8 20.2 27.05 L22.3 25.7 Q23.25 25.2 24.8 25.4 L27.15 25.85 28.45 25.95 29.3 25.55 29.0 27.2 26.85 27.1 24.25 26.4 Q22.9 26.1 21.7 26.65 21.05 26.9 19.95 27.75 18.85 28.6 16.2 28.45 13.7 28.35 12.35 29.45 11.55 30.1 9.7 30.35 L7.25 30.35 2.15 30.0 Q1.3 30.15 0.65 30.65 L0.65 29.65 4.6 29.45 7.1 29.8 9.6 30.0 Q10.75 29.85 12.1 29.05 13.35 28.15 13.8 27.95 L15.75 27.75 18.1 27.85" fill="#d9b63f" fill-rule="evenodd" stroke="none"/>
      <path d="M29.9 19.15 L29.75 19.95 27.3 21.3 25.4 21.8 22.95 22.25 16.55 23.75 14.2 24.45 11.75 24.85 7.35 25.25 5.6 25.7 3.95 26.1 1.85 26.45 0.55 26.75 0.5 25.85 Q2.2 24.5 4.55 23.1 9.2 20.15 12.25 19.35 L16.5 18.8 27.2 19.15 Q28.65 19.4 29.9 19.15" fill="#e3bb32" fill-rule="evenodd" stroke="none"/>
      <path d="M16.65 26.4 Q18.5 25.85 19.9 24.85 21.35 23.8 22.85 23.4 L26.45 23.15 28.6 23.05 29.55 22.0 29.4 24.65 26.9 24.85 22.7 24.95 Q22.05 25.05 20.45 25.8 L18.4 26.75 13.6 27.4 Q13.15 27.4 11.0 28.15 L8.2 28.95 6.05 28.8 3.75 28.65 2.1 28.55 0.65 28.75 0.65 27.65 0.6 27.45 2.65 27.7 4.95 28.1 7.25 28.4 9.45 28.45 11.7 27.5 Q13.1 26.8 13.85 26.85 L16.65 26.4" fill="#628f00" fill-rule="evenodd" stroke="none"/>
      <path d="M27.6 21.95 L28.5 22.15 28.45 22.7 Q28.1 23.15 27.15 22.95 L26.65 22.5 Q26.55 22.15 27.6 21.95" fill="#d9b63f" fill-rule="evenodd" stroke="none"/>
      <path d="M19.65 23.55 L20.9 23.35 Q21.2 23.35 20.9 23.65 L20.15 24.45 19.4 24.7 Q19.0 24.65 19.1 24.1 19.25 23.6 19.65 23.55" fill="#d9b63f" fill-rule="evenodd" stroke="none"/>
      <path d="M12.25 25.45 L13.25 25.65 Q13.55 25.85 13.4 26.2 L12.65 26.75 11.3 26.8 Q10.65 26.7 11.15 26.1 11.6 25.6 12.25 25.45" fill="#d9b63f" fill-rule="evenodd" stroke="none"/>
      <path d="M7.85 26.5 L9.7 26.55 Q10.4 26.85 10.1 27.3 L9.5 28.1 7.85 28.3 Q6.55 28.05 6.5 27.5 6.35 26.9 7.85 26.5" fill="#d9b63f" fill-rule="evenodd" stroke="none"/>
      <path d="M22.2 27.0 L23.35 26.9 Q23.95 26.95 23.8 27.3 L23.15 28.1 21.8 28.45 Q21.0 28.35 21.1 27.8 21.25 27.25 22.2 27.0" fill="#d9b63f" fill-rule="evenodd" stroke="none"/>
      <path d="M25.15 22.25 L25.95 22.45 Q26.2 22.65 25.9 22.8 L24.9 22.9 24.5 22.55 Q24.5 22.25 25.15 22.25" fill="#d9b63f" fill-rule="evenodd" stroke="none"/>
      <path d="M15.35 28.75 Q15.95 28.65 16.4 29.0 16.85 29.25 16.35 29.6 15.3 30.35 14.65 29.85 14.25 29.6 14.4 29.3 14.55 28.9 15.35 28.75" fill="#d9b63f" fill-rule="evenodd" stroke="none"/>
      <path d="M13.2 29.5 L13.6 29.6 13.6 29.9 13.1 30.3 12.55 30.25 Q12.15 29.85 13.2 29.5" fill="#d9b63f" fill-rule="evenodd" stroke="none"/>
      <path d="M3.35 30.45 Q5.75 30.05 5.6 30.9 5.6 31.3 4.9 31.55 L3.5 31.65 Q2.6 31.5 2.35 31.15 2.0 30.75 3.35 30.45" fill="#d9b63f" fill-rule="evenodd" stroke="none"/>
      <path d="M27.65 20.05 L25.9 20.75 Q24.5 21.25 22.8 21.35 18.0 21.8 15.2 23.15 L11.65 23.8 8.55 24.05 3.7 25.1 0.5 25.85 3.2 21.8 6.65 16.7 10.2 11.55 16.3 13.3 20.45 14.8 24.3 16.7 Q27.25 18.2 29.9 19.15 L27.65 20.05" fill="#ffcf1f" fill-rule="evenodd" stroke="none"/>
      <path d="M18.8 15.0 Q19.55 14.9 19.9 15.25 20.2 15.6 19.65 16.0 L19.05 16.65 18.2 16.6 Q17.3 16.4 17.3 15.75 17.3 15.1 18.8 15.0" fill="#fffa75" fill-rule="evenodd" stroke="none"/>
      <path d="M26.05 18.5 L27.65 18.8 Q28.45 19.2 27.5 19.55 L24.95 19.8 Q24.65 19.55 24.85 19.1 25.1 18.6 26.05 18.5" fill="#fffa75" fill-rule="evenodd" stroke="none"/>
      <path d="M23.3 19.6 Q24.2 19.5 24.6 20.1 24.95 20.75 23.95 20.9 L22.5 20.95 Q22.1 20.9 22.05 20.75 21.9 20.5 22.25 20.15 22.6 19.75 23.3 19.6" fill="#fffa75" fill-rule="evenodd" stroke="none"/>
      <path d="M17.55 20.3 L18.7 20.7 Q19.1 21.0 18.65 21.2 L16.75 21.3 Q16.25 20.9 16.45 20.55 16.7 20.2 17.55 20.3" fill="#fffa75" fill-rule="evenodd" stroke="none"/>
      <path d="M14.65 19.2 L16.45 19.8 Q16.95 20.0 16.4 20.1 L15.55 20.45 14.65 20.4 13.15 19.55 Q12.45 19.2 13.3 19.1 L14.65 19.2" fill="#fffa75" fill-rule="evenodd" stroke="none"/>
      <path d="M12.7 15.75 L13.5 15.25 Q13.65 15.05 13.8 15.5 L14.4 16.6 Q14.6 17.05 14.0 17.25 L11.75 17.35 Q11.25 17.1 11.55 16.5 11.85 15.95 12.7 15.75" fill="#fffa75" fill-rule="evenodd" stroke="none"/>
      <path d="M8.65 16.15 Q8.8 16.4 9.4 16.55 L9.7 16.8 9.1 17.15 8.35 17.25 Q8.05 17.1 8.15 16.35 8.2 15.6 8.65 16.15" fill="#fffa75" fill-rule="evenodd" stroke="none"/>
      <path d="M7.2 17.95 L8.9 18.3 Q9.55 18.6 9.2 18.85 8.25 19.65 7.55 19.65 6.9 19.65 6.5 19.25 6.15 18.95 6.3 18.5 6.4 17.9 7.2 17.95" fill="#fffa75" fill-rule="evenodd" stroke="none"/>
      <path d="M11.45 20.0 L12.35 20.4 Q12.75 20.5 12.45 20.65 L11.2 20.8 10.95 20.2 Q10.9 19.8 11.45 20.0" fill="#fffa75" fill-rule="evenodd" stroke="none"/>
      <path d="M12.8 21.7 Q13.15 21.7 13.1 22.05 L12.85 22.4 12.5 22.05 Q12.35 21.75 12.8 21.7" fill="#fffa75" fill-rule="evenodd" stroke="none"/>
      <path d="M5.25 22.6 L6.75 22.8 Q7.25 23.0 6.7 23.2 L5.7 23.8 4.75 24.25 4.1 24.3 3.6 24.0 Q3.3 23.6 3.65 23.1 4.05 22.55 5.25 22.6" fill="#fffa75" fill-rule="evenodd" stroke="none"/>
      <path d="M26.9 20.2 Q25.7 21.1 25.85 21.8 L26.0 23.0 Q25.9 23.65 25.2 23.55 L24.4 23.25 24.4 22.6 Q24.5 22.15 24.15 21.8 23.8 21.35 23.3 21.35 L20.9 21.75 Q18.9 22.15 18.55 22.6 17.75 23.55 18.35 25.4 19.05 27.6 18.25 27.8 17.65 28.0 17.35 27.55 16.95 27.0 17.25 25.8 17.75 23.15 17.3 23.1 16.5 22.9 15.6 23.6 14.7 24.3 15.0 24.7 L15.25 25.65 Q15.25 26.25 14.8 26.35 L13.85 26.3 Q13.45 26.05 13.45 25.5 L13.2 24.5 12.8 24.05 12.8 24.0 10.95 24.3 8.05 24.55 Q7.65 24.7 6.65 25.4 5.6 26.1 5.55 26.45 5.45 26.9 5.05 27.15 4.55 27.35 4.25 26.95 L3.8 26.2 Q3.75 25.85 3.55 25.85 L0.95 26.0 Q0.7 26.2 0.8 26.75 L0.85 27.65 0.6 28.2 Q0.35 28.45 0.2 28.1 L0.0 26.95 Q0.0 26.25 0.2 26.05 L0.6 25.65 3.95 24.7 5.4 24.5 11.75 22.95 16.1 21.95 19.5 21.35 21.2 20.9 Q23.8 21.35 24.95 20.55 26.0 19.8 26.9 20.2" fill="#ffcf1f" fill-rule="evenodd" stroke="none"/>
      <path d="M12.6 13.65 Q15.95 12.8 15.7 15.35 L15.1 16.25 Q14.55 16.85 13.95 16.9 L11.85 17.05 9.7 16.8 Q8.7 16.3 10.1 14.85 L11.15 14.1 12.6 13.65" fill="#2a6300" fill-rule="evenodd" stroke="none"/>
      <path d="M9.1 19.1 Q10.1 18.65 10.5 19.5 10.9 20.3 10.3 20.65 9.65 21.1 7.85 21.35 L6.7 21.05 Q6.25 20.8 6.25 20.4 6.25 20.05 7.15 19.75 L9.1 19.1" fill="#2a6300" fill-rule="evenodd" stroke="none"/>
      <path d="M18.65 18.6 Q18.1 18.75 18.0 18.2 17.9 17.55 18.85 17.3 L21.5 16.85 Q22.2 16.7 22.95 17.4 23.7 18.15 23.35 18.4 L21.4 18.4 18.65 18.6" fill="#2a6300" fill-rule="evenodd" stroke="none"/>
      <path d="M13.4 21.15 Q15.15 20.7 15.5 21.55 15.9 22.3 15.15 22.75 L12.05 22.95 Q11.25 22.75 11.9 22.05 12.5 21.35 13.4 21.15" fill="#2a6300" fill-rule="evenodd" stroke="none"/>
      <path d="M2.55 23.65 Q3.35 23.6 3.25 24.15 L2.45 25.1 Q1.9 25.4 1.5 25.3 L0.9 24.9 Q0.65 24.6 1.2 24.2 1.8 23.75 2.55 23.65" fill="#388200" fill-rule="evenodd" stroke="none"/>
      <path d="M9.35 16.15 Q8.8 16.15 9.55 15.3 10.55 14.15 12.15 13.7 L15.2 13.65 Q15.5 13.8 15.05 14.45 L14.15 15.3 Q12.9 16.25 12.35 16.25 L9.35 16.15" fill="#388200" fill-rule="evenodd" stroke="none"/>
      <path d="M18.2 17.75 Q18.6 17.25 20.0 16.95 L21.8 16.8 Q22.6 16.8 22.8 17.45 22.9 17.85 21.8 17.7 L19.55 17.75 18.65 17.9 Q18.05 17.9 18.2 17.75" fill="#388200" fill-rule="evenodd" stroke="none"/>
      <path d="M13.05 21.3 Q14.15 20.95 14.6 20.95 15.4 20.95 15.05 21.6 14.75 22.15 14.1 22.3 L13.0 22.4 11.9 22.25 Q11.6 22.2 12.05 21.8 L13.05 21.3" fill="#388200" fill-rule="evenodd" stroke="none"/>
      <path d="M6.7 19.95 L8.0 19.5 Q9.5 18.95 9.85 18.95 L10.05 19.1 9.65 19.55 9.35 19.95 8.75 20.15 6.6 20.4 Q6.05 20.2 6.7 19.95" fill="#388200" fill-rule="evenodd" stroke="none"/>
      <path d="M2.15 23.75 Q2.85 23.6 2.9 23.75 L2.45 24.2 1.6 24.5 0.9 24.55 Q0.65 24.45 1.15 24.1 L2.15 23.75" fill="#388200" fill-rule="evenodd" stroke="none"/>
      <path d="M18.2 15.35 Q18.75 15.35 18.95 15.75 19.1 16.05 18.85 16.4 L17.9 16.8 16.75 16.6 Q16.4 16.3 17.0 15.8 17.6 15.35 18.2 15.35" fill="#967e2b" fill-rule="evenodd" stroke="none"/>
      <path d="M10.75 12.2 Q11.35 12.6 10.2 13.0 9.0 13.45 9.15 13.0 9.2 12.65 9.8 12.35 10.45 12.0 10.75 12.2" fill="#967e2b" fill-rule="evenodd" stroke="none"/>
      <path d="M7.35 17.05 Q8.45 17.15 8.45 17.7 L8.0 18.2 6.95 18.45 Q6.45 18.4 6.65 17.7 6.9 17.0 7.35 17.05" fill="#967e2b" fill-rule="evenodd" stroke="none"/>
      <path d="M15.9 18.65 Q17.7 18.95 16.65 19.4 L14.95 19.75 Q14.45 19.65 14.85 19.1 15.2 18.5 15.9 18.65" fill="#967e2b" fill-rule="evenodd" stroke="none"/>
      <path d="M9.15 22.2 Q10.4 22.05 10.3 22.6 L9.85 23.3 9.15 23.4 8.3 23.15 Q7.9 22.95 8.2 22.65 8.5 22.25 9.15 22.2" fill="#967e2b" fill-rule="evenodd" stroke="none"/>
      <path d="M3.8 21.05 Q5.1 20.7 4.6 21.45 4.1 22.3 3.5 22.25 3.05 22.15 3.2 21.65 3.3 21.15 3.8 21.05" fill="#967e2b" fill-rule="evenodd" stroke="none"/>
      <path d="M19.9 19.4 Q21.1 19.4 20.85 20.0 20.55 20.55 19.7 20.45 19.0 20.3 19.15 19.85 19.4 19.4 19.9 19.4" fill="#967e2b" fill-rule="evenodd" stroke="none"/>
      <path d="M26.3 17.45 Q27.35 17.85 26.65 18.05 25.95 18.25 25.4 18.05 25.0 17.85 25.35 17.5 L26.3 17.45" fill="#967e2b" fill-rule="evenodd" stroke="none"/>
      <path d="M72.9 18.15 L73.05 19.2 Q73.25 18.35 72.4 18.7 L71.8 19.35 71.75 19.8 71.6 20.15 71.3 21.55 59.75 16.65 62.0 15.5 63.05 15.5 65.5 15.4 69.95 16.15 Q72.25 16.9 72.9 18.15" fill="#f5c925" fill-rule="evenodd" stroke="none"/>
      <path d="M63.1 17.8 Q61.4 17.85 56.55 15.1 51.95 12.5 51.8 11.85 51.55 10.85 52.4 10.25 53.3 9.7 54.0 10.55 54.65 11.45 55.8 11.3 L59.1 11.45 Q61.8 12.35 63.4 14.0 64.3 14.9 65.0 15.95 L66.1 17.45 65.6 16.85 65.3 17.3 Q64.65 17.75 63.1 17.8" fill="#f0c116" fill-rule="evenodd" stroke="none"/>
      <path d="M70.9 19.9 Q71.8 17.95 72.7 18.0 73.25 18.05 73.1 19.75 72.9 21.35 72.35 22.35 71.9 23.15 71.95 25.8 L72.05 28.2 63.75 30.05 60.8 30.55 57.9 30.9 52.75 31.7 50.5 32.2 47.5 33.0 43.85 33.45 42.05 33.45 42.15 32.65 Q70.6 20.7 70.9 19.9" fill="#d9b127" fill-rule="evenodd" stroke="none"/>
      <path d="M66.65 16.0 L68.6 16.4 Q69.95 16.75 70.55 17.05 L71.35 17.7 Q71.5 18.05 70.9 18.15 L68.95 17.75 67.0 17.0 65.75 16.4 Q65.25 15.95 66.65 16.0" fill="#f5d55d" fill-rule="evenodd" stroke="none"/>
      <path d="M57.05 11.55 Q57.9 11.5 59.4 12.0 61.1 12.65 61.95 13.55 L62.65 14.5 60.6 13.8 Q58.25 13.1 57.05 12.45 55.45 11.65 57.05 11.55" fill="#f5d55d" fill-rule="evenodd" stroke="none"/>
      <path d="M52.85 10.45 L53.7 10.6 Q54.05 10.95 53.6 11.15 L52.75 11.0 Q52.4 10.55 52.85 10.45" fill="#f5d55d" fill-rule="evenodd" stroke="none"/>
      <path d="M68.75 19.45 Q70.25 19.65 71.4 19.45 L71.0 23.65 70.5 27.75 64.55 28.95 60.3 29.75 56.85 30.4 52.65 31.15 Q50.2 31.45 49.1 31.95 L44.85 32.65 42.15 32.65 42.05 26.1 46.3 23.2 Q51.15 20.2 54.2 19.55 L63.3 19.1 68.75 19.45" fill="#fff492" fill-rule="evenodd" stroke="none"/>
      <path d="M50.15 30.05 Q51.7 29.85 55.4 28.25 L57.3 28.05 59.65 28.1 Q60.55 28.1 61.8 27.35 L63.9 26.0 66.35 25.75 68.65 26.2 Q70.15 26.4 70.85 25.85 L70.55 27.5 68.4 27.4 65.8 26.7 Q63.65 26.3 61.45 28.1 60.35 28.95 57.8 28.75 55.3 28.55 53.9 29.75 53.15 30.4 51.25 30.65 L48.8 30.65 43.7 30.35 Q42.75 30.45 42.15 30.95 L42.15 29.95 Q43.6 29.05 44.95 29.25 L47.6 29.75 50.15 30.05" fill="#d9b63f" fill-rule="evenodd" stroke="none"/>
      <path d="M68.75 19.45 Q70.25 19.65 71.4 19.45 L71.3 20.25 Q69.95 21.2 68.9 21.6 L66.9 22.05 64.55 22.55 58.1 24.05 55.75 24.75 53.3 25.15 48.85 25.55 47.15 26.0 45.55 26.35 43.4 26.75 42.05 27.0 42.05 26.1 46.1 23.35 Q50.75 20.45 53.75 19.65 L58.05 19.1 68.75 19.45" fill="#e3bb32" fill-rule="evenodd" stroke="none"/>
      <path d="M52.75 27.6 L55.4 27.2 58.2 26.75 Q60.05 26.15 61.4 25.15 62.85 24.1 64.4 23.7 L68.05 23.45 70.2 23.3 71.1 22.3 70.9 24.95 68.5 25.15 64.25 25.3 Q63.65 25.4 59.95 27.05 58.8 27.55 55.15 27.7 L52.55 28.5 49.7 29.25 46.9 28.8 43.9 28.35 Q43.1 28.35 42.2 29.05 L42.15 28.0 42.1 27.7 43.45 27.5 46.8 28.05 50.05 28.3 52.75 27.6" fill="#628f00" fill-rule="evenodd" stroke="none"/>
      <path d="M69.1 22.25 Q69.75 22.15 70.0 22.4 70.3 22.7 70.0 23.0 69.55 23.6 68.65 23.2 L68.15 22.8 Q68.1 22.45 69.1 22.25" fill="#d9b63f" fill-rule="evenodd" stroke="none"/>
      <path d="M61.2 23.85 L62.45 23.65 Q62.75 23.65 62.4 24.0 L61.7 24.7 60.95 25.0 Q60.55 24.95 60.7 24.45 60.8 23.9 61.2 23.85" fill="#d9b63f" fill-rule="evenodd" stroke="none"/>
      <path d="M55.5 25.55 L56.45 25.75 Q56.8 25.95 56.65 26.3 L55.9 26.75 54.6 26.85 Q53.95 26.75 54.45 26.2 54.9 25.7 55.5 25.55" fill="#d9b63f" fill-rule="evenodd" stroke="none"/>
      <path d="M48.8 26.45 L50.15 26.5 Q50.7 26.75 50.5 27.05 L50.0 27.65 48.8 27.8 Q47.9 27.6 47.8 27.2 47.7 26.75 48.8 26.45" fill="#d9b63f" fill-rule="evenodd" stroke="none"/>
      <path d="M63.7 27.3 L64.9 27.2 Q65.45 27.25 65.4 27.65 L64.65 28.4 63.35 28.7 Q62.6 28.6 62.7 28.1 62.75 27.6 63.7 27.3" fill="#d9b63f" fill-rule="evenodd" stroke="none"/>
      <path d="M66.75 22.6 L67.55 22.75 67.5 23.15 Q66.95 23.5 66.4 23.15 66.05 23.05 66.05 22.8 L66.75 22.6" fill="#d9b63f" fill-rule="evenodd" stroke="none"/>
      <path d="M56.9 29.05 L57.95 29.25 Q58.4 29.55 57.9 29.9 56.9 30.55 56.2 30.15 55.8 29.9 55.95 29.55 56.05 29.2 56.9 29.05" fill="#d9b63f" fill-rule="evenodd" stroke="none"/>
      <path d="M54.7 29.85 L55.15 29.9 55.15 30.25 54.65 30.55 54.15 30.55 Q53.65 30.15 54.7 29.85" fill="#d9b63f" fill-rule="evenodd" stroke="none"/>
      <path d="M44.9 30.8 L46.6 30.7 Q47.3 30.8 47.2 31.25 L46.45 31.85 45.05 31.95 Q44.15 31.8 43.85 31.45 43.5 31.05 44.9 30.8" fill="#d9b63f" fill-rule="evenodd" stroke="none"/>
      <path d="M69.25 20.4 L67.5 21.05 64.4 21.7 Q59.55 22.1 56.75 23.45 L53.2 24.1 50.1 24.35 45.2 25.4 42.05 26.1 44.75 22.15 48.2 17.0 51.8 11.85 57.8 13.6 61.95 15.05 65.9 17.0 Q68.85 18.55 71.4 19.45 L69.25 20.4" fill="#ffcf1f" fill-rule="evenodd" stroke="none"/>
      <path d="M60.35 15.25 Q61.15 15.2 61.45 15.55 61.8 15.95 61.2 16.35 L60.55 16.9 Q60.35 17.1 59.75 16.9 58.9 16.7 58.9 16.05 58.85 15.4 60.35 15.25" fill="#fffa75" fill-rule="evenodd" stroke="none"/>
      <path d="M67.65 18.8 Q68.45 18.7 69.2 19.1 70.0 19.55 69.05 19.8 L66.55 20.1 Q66.25 19.8 66.4 19.4 66.7 18.85 67.65 18.8" fill="#fffa75" fill-rule="evenodd" stroke="none"/>
      <path d="M64.9 19.95 Q65.75 19.75 66.15 20.45 66.55 21.05 65.5 21.15 L63.6 21.05 Q63.45 20.8 63.75 20.45 64.15 20.05 64.9 19.95" fill="#fffa75" fill-rule="evenodd" stroke="none"/>
      <path d="M59.15 20.6 Q59.85 20.7 60.25 20.95 60.7 21.3 60.2 21.45 L58.25 21.55 Q57.8 21.2 58.05 20.9 58.25 20.5 59.15 20.6" fill="#fffa75" fill-rule="evenodd" stroke="none"/>
      <path d="M56.25 19.5 L58.0 20.1 Q58.5 20.25 58.0 20.45 L57.1 20.8 56.25 20.7 54.65 19.85 Q54.0 19.5 54.85 19.4 L56.25 19.5" fill="#fffa75" fill-rule="evenodd" stroke="none"/>
      <path d="M54.2 16.05 L55.05 15.55 55.35 15.85 55.95 16.85 Q56.1 17.3 55.55 17.5 L53.3 17.7 Q52.85 17.4 53.1 16.85 53.4 16.25 54.2 16.05" fill="#fffa75" fill-rule="evenodd" stroke="none"/>
      <path d="M50.15 16.45 Q50.35 16.7 50.95 16.85 L51.3 17.1 50.6 17.45 49.9 17.5 Q49.65 17.35 49.7 16.65 49.75 15.95 50.15 16.45" fill="#fffa75" fill-rule="evenodd" stroke="none"/>
      <path d="M48.8 18.25 L50.45 18.65 Q51.05 18.9 50.75 19.1 49.7 20.0 49.15 20.0 48.45 20.0 48.05 19.55 47.75 19.25 47.85 18.75 47.95 18.2 48.8 18.25" fill="#fffa75" fill-rule="evenodd" stroke="none"/>
      <path d="M53.0 20.35 Q53.35 20.45 53.9 20.7 54.25 20.85 54.0 20.95 L52.8 21.1 52.45 20.5 Q52.4 20.1 53.0 20.35" fill="#fffa75" fill-rule="evenodd" stroke="none"/>
      <path d="M54.3 22.0 Q54.65 21.95 54.65 22.35 L54.45 22.7 54.05 22.35 Q53.8 22.05 54.3 22.0" fill="#fffa75" fill-rule="evenodd" stroke="none"/>
      <path d="M46.8 22.85 Q49.25 23.05 48.25 23.5 L47.25 24.1 Q46.65 24.5 46.35 24.5 L45.65 24.6 45.15 24.3 Q44.8 23.85 45.2 23.4 45.6 22.8 46.8 22.85" fill="#fffa75" fill-rule="evenodd" stroke="none"/>
      <path d="M68.45 20.45 Q67.25 21.35 67.35 22.15 L67.55 23.3 Q67.5 24.0 66.75 23.85 L65.9 23.55 65.9 22.9 Q66.05 22.45 65.7 22.1 65.4 21.7 64.9 21.7 L62.4 22.05 Q60.45 22.45 60.05 22.9 59.3 23.9 59.9 25.7 60.65 27.8 59.85 28.1 59.25 28.3 58.95 27.85 58.55 27.3 58.8 26.1 59.35 23.5 58.8 23.4 58.05 23.2 57.15 23.9 56.3 24.55 56.55 25.0 L56.85 25.95 Q56.8 26.5 56.35 26.7 L55.45 26.6 Q55.05 26.35 55.05 25.8 L54.75 24.8 54.35 24.35 54.3 24.3 52.45 24.6 49.6 24.85 Q49.05 25.05 48.2 25.65 47.1 26.4 47.05 26.75 47.0 27.2 46.55 27.45 46.1 27.65 45.75 27.25 L45.35 26.5 45.1 26.1 42.5 26.3 Q42.25 26.5 42.35 27.1 L42.45 27.95 42.15 28.55 41.75 28.4 41.55 27.25 Q41.55 26.55 41.7 26.35 L42.1 25.95 45.55 25.0 47.0 24.8 53.3 23.2 57.7 22.25 61.0 21.65 62.75 21.25 Q65.4 21.7 66.5 20.85 67.55 20.1 68.45 20.45" fill="#ffcf1f" fill-rule="evenodd" stroke="none"/>
      <path d="M53.85 14.25 Q55.3 14.3 56.05 15.05 56.8 15.8 56.4 16.4 56.1 16.8 55.35 16.95 L53.75 17.3 Q52.9 17.5 52.05 17.3 51.15 17.15 50.7 16.65 50.0 15.9 51.15 15.05 52.25 14.15 53.85 14.25" fill="#2a6300" fill-rule="evenodd" stroke="none"/>
      <path d="M62.9 17.55 L61.45 17.75 60.05 17.75 Q59.6 17.75 59.5 17.35 59.35 17.0 59.7 16.4 60.0 15.9 60.6 15.55 L61.55 15.3 Q63.35 15.4 63.85 15.95 L64.1 16.95 Q64.15 17.35 63.8 17.4 L62.9 17.55" fill="#2a6300" fill-rule="evenodd" stroke="none"/>
      <path d="M59.55 20.45 Q60.4 20.15 60.2 20.9 60.05 21.7 59.4 22.25 58.9 22.65 57.8 22.7 L55.45 22.6 Q54.3 22.55 54.3 22.0 L54.65 21.0 Q54.8 20.65 56.85 20.6 L59.55 20.45" fill="#2a6300" fill-rule="evenodd" stroke="none"/>
      <path d="M46.55 23.25 Q47.75 23.2 47.0 24.0 46.35 24.75 45.3 25.05 43.75 25.5 43.5 24.5 43.4 24.05 44.45 23.65 L46.55 23.25" fill="#2a6300" fill-rule="evenodd" stroke="none"/>
      <path d="M60.25 15.95 Q61.7 15.7 62.1 16.55 L62.15 16.8 61.9 16.9 61.2 17.15 60.25 17.2 59.6 16.95 Q59.5 16.7 59.7 16.4 59.95 16.0 60.25 15.95" fill="#388200" fill-rule="evenodd" stroke="none"/>
      <path d="M61.85 15.35 L63.3 15.7 Q63.65 15.95 63.4 16.2 L62.9 16.25 Q62.55 16.1 62.4 16.1 61.4 16.0 60.95 15.5 L61.85 15.35" fill="#388200" fill-rule="evenodd" stroke="none"/>
      <path d="M52.3 16.5 L51.45 16.55 50.7 16.15 Q50.05 15.7 50.85 15.2 L53.1 14.85 Q53.75 14.8 53.85 15.1 L53.95 15.65 53.85 15.85 53.65 16.0 53.15 16.25 52.3 16.5" fill="#388200" fill-rule="evenodd" stroke="none"/>
      <path d="M53.6 14.2 Q54.35 14.1 55.9 14.85 56.25 15.05 56.05 15.4 L55.55 15.75 55.05 15.6 54.55 15.1 Q54.15 14.7 52.95 14.6 52.45 14.45 53.6 14.2" fill="#388200" fill-rule="evenodd" stroke="none"/>
      <path d="M54.75 20.85 Q54.9 20.7 55.2 20.65 L55.8 20.55 59.05 20.45 60.15 20.4 60.1 20.55 59.25 21.15 58.25 21.55 57.55 21.7 56.8 21.6 55.0 21.55 54.55 21.3 Q54.5 21.05 54.75 20.85" fill="#388200" fill-rule="evenodd" stroke="none"/>
      <path d="M44.5 23.6 L45.95 23.3 47.1 23.45 47.3 23.6 47.05 23.6 45.55 24.05 43.85 24.4 Q42.95 24.15 44.5 23.6" fill="#388200" fill-rule="evenodd" stroke="none"/>
      <path d="M52.95 13.15 Q54.2 13.25 53.85 13.7 53.55 14.05 52.7 14.05 52.0 14.05 52.2 13.55 52.4 13.05 52.95 13.15" fill="#967e2b" fill-rule="evenodd" stroke="none"/>
      <path d="M51.85 18.75 Q52.3 18.7 52.2 19.25 L51.6 19.95 50.3 19.75 Q50.05 19.55 50.6 19.15 51.2 18.8 51.85 18.75" fill="#967e2b" fill-rule="evenodd" stroke="none"/>
      <path d="M47.1 21.3 Q48.2 21.05 48.35 21.5 L48.0 22.25 47.5 22.55 46.6 22.4 Q46.05 22.25 46.3 21.8 46.55 21.35 47.1 21.3" fill="#967e2b" fill-rule="evenodd" stroke="none"/>
      <path d="M50.95 23.0 Q51.55 23.05 51.4 23.5 51.15 23.9 50.65 23.8 50.15 23.75 50.25 23.35 50.35 22.95 50.95 23.0" fill="#967e2b" fill-rule="evenodd" stroke="none"/>
      <path d="M58.35 18.55 Q59.45 18.65 58.9 19.1 58.3 19.6 57.35 19.5 56.45 19.35 56.9 18.9 57.35 18.45 58.35 18.55" fill="#967e2b" fill-rule="evenodd" stroke="none"/>
      <path d="M64.1 18.7 Q65.45 18.4 65.35 19.0 65.25 19.55 64.45 19.6 63.8 19.65 63.7 19.25 63.65 18.8 64.1 18.7" fill="#967e2b" fill-rule="evenodd" stroke="none"/>
      <path d="M61.4 20.7 Q62.3 20.85 62.0 21.3 61.7 21.75 61.0 21.65 60.45 21.55 60.7 21.1 60.95 20.6 61.4 20.7" fill="#967e2b" fill-rule="evenodd" stroke="none"/>
      <path d="M58.05 14.35 Q58.7 14.45 58.55 14.8 58.4 15.1 57.8 15.1 57.15 15.1 57.25 14.65 57.35 14.2 58.05 14.35" fill="#967e2b" fill-rule="evenodd" stroke="none"/>
      <path d="M17.7 29.35 L17.5 28.95 Q17.55 28.0 16.8 27.7 16.2 27.5 16.1 27.85 L16.1 28.25 Q15.95 27.75 16.3 27.1 16.9 25.8 19.4 24.95 21.9 24.15 24.25 24.1 L26.9 24.25 28.05 24.25 30.45 25.45 18.0 30.8 17.7 29.35" fill="#f5c925" fill-rule="evenodd" stroke="none"/>
      <path d="M36.7 18.85 Q37.5 17.9 38.45 18.55 39.35 19.15 39.1 20.25 38.95 20.95 33.95 23.85 28.65 26.8 26.85 26.75 25.2 26.75 24.5 26.25 L24.15 25.75 23.55 26.45 24.75 24.75 26.55 22.55 Q28.4 20.65 31.25 19.85 L34.8 19.6 Q35.95 19.8 36.7 18.85" fill="#f0c116" fill-rule="evenodd" stroke="none"/>
      <path d="M38.05 41.9 L32.45 41.05 26.15 40.1 18.7 38.5 17.2 38.05 Q17.6 33.05 16.85 31.7 16.25 30.65 16.05 28.85 15.9 27.0 16.4 26.95 16.95 26.9 17.6 27.65 L18.35 29.0 Q18.6 29.55 34.05 36.3 L49.5 42.95 49.55 43.8 43.7 43.3 40.5 42.45 38.05 41.9" fill="#d9b127" fill-rule="evenodd" stroke="none"/>
      <path d="M23.05 24.8 Q24.55 24.7 24.05 25.15 23.6 25.5 22.6 25.85 L20.5 26.7 18.4 27.15 Q17.75 27.0 17.95 26.6 18.1 26.25 18.8 25.9 L20.9 25.2 23.05 24.8" fill="#f5d55d" fill-rule="evenodd" stroke="none"/>
      <path d="M33.4 19.95 Q35.15 20.0 33.4 20.9 L29.5 22.4 27.35 23.15 Q27.2 23.15 28.1 22.1 29.0 21.1 30.85 20.45 32.5 19.9 33.4 19.95" fill="#f5d55d" fill-rule="evenodd" stroke="none"/>
      <path d="M37.9 18.65 Q38.45 18.85 38.05 19.25 37.6 19.7 37.1 19.5 36.65 19.25 37.05 18.9 37.4 18.55 37.9 18.65" fill="#f5d55d" fill-rule="evenodd" stroke="none"/>
      <path d="M49.6 35.75 L49.5 42.95 Q44.25 43.15 42.0 42.15 40.75 41.6 38.1 41.25 L33.6 40.5 29.9 39.8 25.25 38.85 Q22.6 38.1 20.45 37.8 L18.8 37.55 Q18.4 35.65 18.25 33.1 L18.05 29.9 17.85 28.55 18.7 28.6 20.75 28.55 26.7 28.15 36.55 28.65 Q39.8 29.4 45.05 32.6 L49.6 35.75" fill="#fff492" fill-rule="evenodd" stroke="none"/>
      <path d="M44.4 40.45 L41.9 40.9 Q38.9 41.55 37.45 40.25 36.55 39.45 35.1 39.05 L32.6 38.65 Q29.8 38.85 28.6 37.9 27.4 37.0 26.7 36.65 L23.95 36.4 21.1 37.2 18.75 37.3 18.5 35.5 Q19.2 36.1 20.85 35.85 L23.35 35.35 Q24.95 35.15 26.0 35.65 L28.3 37.1 Q29.6 37.95 30.6 38.0 L33.1 37.9 35.2 38.1 37.8 39.55 Q39.8 40.6 40.6 40.55 L43.5 39.9 46.5 39.2 Q47.9 39.0 49.5 40.0 L49.5 41.05 Q48.75 40.55 47.85 40.35 L44.4 40.45" fill="#d9b63f" fill-rule="evenodd" stroke="none"/>
      <path d="M36.95 28.75 Q40.25 29.6 45.2 32.75 47.75 34.4 49.6 35.75 L49.6 36.75 48.2 36.5 45.85 36.1 44.1 35.7 42.25 35.2 37.45 34.75 34.8 34.3 32.25 33.5 29.1 32.7 25.35 31.9 20.6 30.85 Q19.4 30.4 18.0 29.4 L17.85 28.55 18.7 28.6 20.75 28.55 24.55 28.25 Q29.0 28.05 32.3 28.15 L36.95 28.75" fill="#e3bb32" fill-rule="evenodd" stroke="none"/>
      <path d="M44.35 38.7 L41.3 39.2 38.25 38.4 Q35.95 37.55 35.45 37.55 L32.8 37.3 30.3 36.8 28.95 35.75 27.3 34.85 21.05 34.75 19.65 34.75 18.4 34.5 18.2 31.65 Q18.6 32.65 18.95 32.9 L21.25 33.2 25.15 33.05 Q27.0 33.15 28.4 34.15 29.95 35.3 32.05 36.2 34.05 37.05 35.15 36.95 L38.0 37.4 41.0 38.15 44.45 37.85 48.05 37.25 49.55 37.55 49.5 37.85 49.45 39.0 Q48.45 38.2 47.55 38.2 L44.35 38.7" fill="#628f00" fill-rule="evenodd" stroke="none"/>
      <path d="M20.35 31.6 Q21.45 31.8 21.35 32.2 L20.85 32.65 Q19.8 32.9 19.4 32.4 19.1 32.0 19.4 31.7 L20.35 31.6" fill="#d9b63f" fill-rule="evenodd" stroke="none"/>
      <path d="M30.4 33.8 L31.0 34.4 Q31.15 35.0 30.7 35.05 30.35 35.1 29.9 34.75 L29.1 33.95 Q28.75 33.55 29.05 33.6 L30.4 33.8" fill="#d9b63f" fill-rule="evenodd" stroke="none"/>
      <path d="M32.9 34.75 Q33.5 34.85 34.0 35.4 34.55 36.0 33.9 36.2 L32.45 36.05 31.65 35.5 Q31.5 35.15 31.8 34.9 L32.9 34.75" fill="#d9b63f" fill-rule="evenodd" stroke="none"/>
      <path d="M41.35 36.3 Q42.5 36.6 42.45 37.1 42.35 37.55 41.3 37.75 L40.05 37.6 39.5 36.95 Q39.3 36.55 39.85 36.3 40.45 36.05 41.35 36.3" fill="#d9b63f" fill-rule="evenodd" stroke="none"/>
      <path d="M26.2 37.1 Q27.2 37.4 27.3 38.0 27.45 38.55 26.6 38.65 L25.15 38.3 Q24.5 37.9 24.4 37.45 24.25 37.1 24.9 37.0 L26.2 37.1" fill="#d9b63f" fill-rule="evenodd" stroke="none"/>
      <path d="M22.95 31.9 Q23.7 31.9 23.65 32.2 L23.25 32.6 22.1 32.55 Q21.8 32.3 22.05 32.15 L22.95 31.9" fill="#d9b63f" fill-rule="evenodd" stroke="none"/>
      <path d="M33.95 39.1 Q34.85 39.25 34.85 39.75 34.95 40.15 34.5 40.4 L33.95 40.35 Q33.5 39.95 33.05 39.7 32.55 39.35 32.9 39.15 L33.95 39.1" fill="#d9b63f" fill-rule="evenodd" stroke="none"/>
      <path d="M36.0 40.65 L35.45 40.25 Q35.35 40.1 35.5 39.9 L35.9 39.8 Q37.0 40.2 36.55 40.65 L36.0 40.65" fill="#d9b63f" fill-rule="evenodd" stroke="none"/>
      <path d="M46.55 40.85 Q48.0 41.15 47.65 41.6 47.35 42.0 46.35 42.15 L44.85 42.05 Q44.15 41.8 44.05 41.35 44.0 40.9 44.75 40.75 L46.55 40.85" fill="#d9b63f" fill-rule="evenodd" stroke="none"/>
      <path d="M39.1 20.25 L42.95 25.85 46.7 31.45 49.6 35.75 46.15 35.0 40.9 33.9 37.55 33.6 33.75 32.85 Q30.5 31.35 25.45 30.95 L22.1 30.3 20.2 29.55 17.85 28.55 Q20.65 27.5 23.85 25.85 26.9 24.3 28.1 23.75 30.15 22.85 32.55 22.2 L39.1 20.25" fill="#ffcf1f" fill-rule="evenodd" stroke="none"/>
      <path d="M29.85 24.0 Q31.4 24.1 31.4 24.85 31.4 25.5 30.45 25.8 L29.6 25.8 28.95 25.1 Q28.3 24.65 28.65 24.3 29.0 23.9 29.85 24.0" fill="#fffa75" fill-rule="evenodd" stroke="none"/>
      <path d="M21.95 27.8 Q23.0 27.9 23.25 28.5 23.5 28.95 23.15 29.25 L20.45 28.95 Q19.4 28.6 20.25 28.15 21.05 27.7 21.95 27.8" fill="#fffa75" fill-rule="evenodd" stroke="none"/>
      <path d="M24.95 29.05 Q25.75 29.2 26.1 29.65 26.45 30.0 26.3 30.3 L25.85 30.5 24.25 30.4 Q23.15 30.3 23.55 29.6 24.0 28.9 24.95 29.05" fill="#fffa75" fill-rule="evenodd" stroke="none"/>
      <path d="M31.2 29.8 Q32.1 29.65 32.35 30.05 32.6 30.45 32.1 30.8 L30.0 30.75 Q29.45 30.55 29.9 30.2 L31.2 29.8" fill="#fffa75" fill-rule="evenodd" stroke="none"/>
      <path d="M34.3 28.55 L35.75 28.45 Q36.65 28.55 35.95 29.0 L34.3 29.9 33.35 30.0 32.35 29.55 Q31.8 29.45 32.3 29.25 L34.3 28.55" fill="#fffa75" fill-rule="evenodd" stroke="none"/>
      <path d="M36.45 24.85 Q37.7 25.05 37.9 25.75 38.0 26.25 37.5 26.6 L35.0 26.4 Q34.4 26.25 34.6 25.75 L35.25 24.55 Q35.4 24.05 35.6 24.25 35.95 24.75 36.45 24.85" fill="#fffa75" fill-rule="evenodd" stroke="none"/>
      <path d="M40.85 25.25 Q41.3 24.65 41.35 25.4 41.45 26.3 41.1 26.4 L40.3 26.3 Q39.85 26.2 39.65 25.95 39.5 25.85 40.0 25.7 L40.85 25.25" fill="#fffa75" fill-rule="evenodd" stroke="none"/>
      <path d="M42.35 27.2 Q43.25 27.2 43.35 27.8 L43.1 28.65 42.0 29.1 Q41.45 29.1 40.2 28.2 39.85 27.95 40.55 27.65 41.15 27.35 42.35 27.2" fill="#fffa75" fill-rule="evenodd" stroke="none"/>
      <path d="M37.75 29.45 Q38.45 29.25 38.35 29.7 L38.0 30.35 36.65 30.2 Q36.4 30.05 36.75 29.9 L37.75 29.45" fill="#fffa75" fill-rule="evenodd" stroke="none"/>
      <path d="M36.2 32.1 Q36.0 32.15 36.0 31.7 35.95 31.25 36.35 31.3 37.1 31.35 36.2 32.1" fill="#fffa75" fill-rule="evenodd" stroke="none"/>
      <path d="M44.45 32.25 Q45.75 32.2 46.25 32.85 46.6 33.35 46.3 33.8 L45.75 34.15 45.0 34.05 44.0 33.6 42.95 32.95 Q42.35 32.65 42.9 32.5 L44.45 32.25" fill="#fffa75" fill-rule="evenodd" stroke="none"/>
      <path d="M44.75 37.2 Q44.25 37.0 44.2 36.5 L42.95 35.3 41.45 34.4 39.2 34.05 36.65 33.85 35.05 33.5 34.0 33.1 33.9 33.15 Q33.65 33.25 33.65 34.85 33.65 35.45 33.35 35.55 L32.45 35.35 Q31.5 35.0 32.3 33.7 32.55 33.3 32.15 33.0 L31.45 32.8 Q30.95 33.0 31.5 35.75 31.75 37.1 31.4 37.65 31.05 38.15 30.35 38.0 29.6 37.7 30.3 35.3 30.95 33.35 30.15 32.3 29.75 31.8 27.6 31.35 L24.95 30.95 Q24.45 30.95 24.05 31.35 23.65 31.8 23.75 32.3 L23.9 33.25 Q23.75 33.7 22.95 33.7 22.15 33.65 22.05 32.8 L22.25 31.45 Q22.35 30.65 21.05 29.65 L21.7 29.55 Q22.45 29.55 23.15 30.05 24.4 30.95 27.2 30.45 27.95 30.4 29.1 30.9 L32.7 31.6 37.5 32.6 44.3 34.35 45.85 34.6 49.55 35.65 49.95 36.05 Q50.15 36.2 50.15 37.1 L49.9 38.25 Q49.7 38.6 49.5 38.4 49.3 38.2 49.25 37.8 L49.3 36.85 49.15 36.0 47.7 35.75 46.3 35.8 Q46.1 35.8 46.05 36.2 L45.6 37.05 Q45.25 37.5 44.75 37.2" fill="#ffcf1f" fill-rule="evenodd" stroke="none"/>
      <path d="M26.65 26.5 Q28.3 26.55 29.8 27.3 31.15 27.95 30.9 28.35 L30.05 29.0 28.55 29.2 26.25 28.45 Q24.7 27.85 24.65 27.65 24.6 27.35 25.1 26.95 25.75 26.45 26.65 26.5" fill="#2a6300" fill-rule="evenodd" stroke="none"/>
      <path d="M25.4 27.4 Q25.05 26.75 26.05 26.6 L27.85 26.65 Q29.9 27.15 30.6 27.85 L30.75 28.2 30.3 28.4 28.75 28.55 27.0 28.1 Q25.6 27.65 25.4 27.4" fill="#388200" fill-rule="evenodd" stroke="none"/>
      <path d="M37.55 22.45 Q38.75 22.3 39.75 23.3 40.45 24.05 40.6 24.7 40.7 25.35 38.35 25.35 37.15 25.4 35.9 23.25 35.6 22.7 37.55 22.45" fill="#2a6300" fill-rule="evenodd" stroke="none"/>
      <path d="M37.0 22.55 L38.25 22.45 Q38.8 22.5 39.85 23.45 40.45 24.05 40.35 24.45 40.35 24.65 39.05 24.85 38.2 24.95 37.45 24.35 36.45 23.6 36.2 23.0 36.15 22.7 37.0 22.55" fill="#388200" fill-rule="evenodd" stroke="none"/>
      <path d="M39.6 30.35 Q41.5 30.25 42.0 31.05 42.35 31.65 42.0 32.1 L41.1 32.55 38.35 32.35 Q38.0 32.3 37.8 31.75 L37.65 30.95 38.4 30.5 39.6 30.35" fill="#2a6300" fill-rule="evenodd" stroke="none"/>
      <path d="M38.0 31.25 L37.95 30.85 Q38.0 30.6 38.6 30.45 39.95 30.15 41.15 30.45 41.9 30.6 42.0 31.15 42.05 31.55 41.7 31.8 L40.35 31.85 38.45 31.8 Q38.0 31.7 38.0 31.25" fill="#388200" fill-rule="evenodd" stroke="none"/>
      <path d="M32.75 23.2 Q34.25 23.2 33.7 23.85 33.1 24.5 32.5 24.25 31.95 24.05 32.05 23.6 32.15 23.2 32.75 23.2" fill="#967e2b" fill-rule="evenodd" stroke="none"/>
      <path d="M31.4 26.15 Q32.45 26.3 31.95 26.8 31.4 27.3 30.9 27.05 30.45 26.8 30.8 26.45 31.05 26.05 31.4 26.15" fill="#967e2b" fill-rule="evenodd" stroke="none"/>
      <path d="M38.5 27.85 Q39.8 28.0 39.35 28.55 38.9 29.2 38.15 29.0 37.45 28.85 37.55 28.3 37.65 27.8 38.5 27.85" fill="#967e2b" fill-rule="evenodd" stroke="none"/>
      <path d="M45.3 30.05 Q46.25 30.2 46.0 30.7 45.7 31.15 45.15 31.05 44.65 31.0 44.75 30.5 44.9 30.0 45.3 30.05" fill="#967e2b" fill-rule="evenodd" stroke="none"/>
      <path d="M33.4 31.2 L34.45 31.25 Q34.8 31.5 34.65 31.85 34.4 32.4 33.35 32.2 32.9 32.15 33.0 31.7 33.05 31.25 33.4 31.2" fill="#967e2b" fill-rule="evenodd" stroke="none"/>
      <path d="M23.9 26.75 Q24.9 26.7 24.6 27.2 L24.2 27.6 23.5 27.5 Q23.2 27.2 23.35 27.0 23.55 26.8 23.9 26.75" fill="#967e2b" fill-rule="evenodd" stroke="none"/>
      <path d="M38.0 26.0 Q39.2 26.1 38.75 26.55 38.3 27.05 37.75 26.75 37.4 26.6 37.6 26.3 L38.0 26.0" fill="#967e2b" fill-rule="evenodd" stroke="none"/>
      <path d="M32.65 23.3 Q33.5 23.35 33.45 23.5 33.0 23.9 32.6 23.8 L32.35 23.5 Q32.45 23.25 32.65 23.3" fill="#9e883e" fill-rule="evenodd" stroke="none"/>
    </g>
  </defs>
</svg>
