<?xml version="1.0" encoding="UTF-8" standalone="no"?>
<svg xmlns:xlink="http://www.w3.org/1999/xlink" height="74.15px" width="49.25px" xmlns="http://www.w3.org/2000/svg">
  <g transform="matrix(1.0, 0.0, 0.0, 1.0, 0.0, 0.0)">
    <use height="74.15" transform="matrix(1.0, 0.0, 0.0, 1.0, 0.0, 0.0)" width="49.25" xlink:href="#shape0"/>
  </g>
  <defs>
    <g id="shape0" transform="matrix(1.0, 0.0, 0.0, 1.0, 0.0, 0.0)">
      <path d="M16.0 48.25 L17.5 55.35 Q19.3 62.95 20.95 65.6 22.65 68.25 24.9 70.1 L26.85 71.45 23.2 70.7 18.3 70.4 Q17.3 70.75 15.05 72.5 L12.95 74.15 Q13.25 72.95 12.7 71.95 11.65 69.95 7.65 70.95 L9.65 68.95 Q11.75 66.55 12.45 64.55 12.85 63.3 12.05 55.6 11.25 48.25 12.45 45.85 13.75 43.2 18.3 40.25 20.55 38.8 22.55 37.85 L27.6 41.85 16.0 48.25" fill="#a79777" fill-rule="evenodd" stroke="none"/>
      <path d="M43.6 19.05 L43.2 27.85 40.8 25.45 40.4 36.65 38.0 31.05 36.35 36.05 Q34.65 41.65 34.4 44.65 34.0 49.45 32.4 58.25 L29.95 55.4 Q27.25 51.9 26.0 48.65 L22.8 39.85 Q18.3 39.95 13.2 38.75 3.0 36.35 0.0 29.85 L7.2 29.95 Q15.2 29.75 19.2 28.25 23.2 26.75 26.4 24.35 L28.8 22.25 24.0 19.45 29.1 19.05 Q35.1 17.85 39.6 13.85 44.1 9.85 47.3 4.05 L49.25 0.0 Q43.6 15.95 43.6 19.05" fill="#ba764e" fill-rule="evenodd" stroke="none"/>
    </g>
  </defs>
</svg>
