<?xml version="1.0" encoding="UTF-8" standalone="no"?>
<svg xmlns:xlink="http://www.w3.org/1999/xlink" height="153.45px" width="234.25px" xmlns="http://www.w3.org/2000/svg">
  <g transform="matrix(1.0, 0.0, 0.0, 1.0, 0.0, 0.0)">
    <use height="63.45" transform="matrix(1.0, 0.0, 0.0, 1.0, 88.0, 14.8)" width="71.2" xlink:href="#shape0"/>
    <use height="18.25" transform="matrix(1.0, 0.0, 0.0, 1.0, 0.0, 135.2)" width="68.6" xlink:href="#sprite0"/>
    <use height="96.45" transform="matrix(1.0, 0.0, 0.0, 1.0, 4.1, 53.35)" width="179.65" xlink:href="#shape2"/>
    <use height="98.15" transform="matrix(1.0, 0.0, 0.0, 1.0, 4.1, 53.35)" width="179.65" xlink:href="#sprite1"/>
    <use height="149.85" transform="matrix(1.0, 0.0, 0.0, 1.0, 16.75, 0.0)" width="217.5" xlink:href="#shape21"/>
  </g>
  <defs>
    <g id="shape0" transform="matrix(1.0, 0.0, 0.0, 1.0, -88.0, -14.8)">
      <path d="M123.65 14.8 Q133.45 14.8 140.0 24.5 144.95 31.85 147.7 44.1 149.45 52.0 141.65 58.25 134.2 64.25 124.0 64.25 113.95 64.25 106.65 58.3 99.15 52.15 100.35 44.1 102.35 31.1 106.9 24.05 112.9 14.8 123.65 14.8" fill="url(#gradient0)" fill-rule="evenodd" stroke="none"/>
      <path d="M135.1 59.4 L133.7 65.45 Q132.35 70.2 128.95 74.3 126.05 77.85 125.1 77.6 L125.95 74.6 Q127.15 70.8 126.6 67.55 125.9 63.6 123.3 59.2 121.05 55.4 121.2 54.6 122.0 50.7 128.55 52.25 131.05 52.85 133.05 53.95 135.1 55.15 135.15 56.0 135.3 58.05 135.1 59.4" fill="url(#gradient1)" fill-rule="evenodd" stroke="none"/>
      <path d="M101.55 40.95 Q104.7 38.45 108.35 43.95 111.95 49.35 110.6 51.15 L108.35 53.7 103.35 57.45 Q99.2 60.25 94.0 61.25 89.45 62.05 88.85 61.2 L91.5 59.5 Q94.85 57.4 96.55 54.5 98.55 51.1 99.8 45.9 100.9 41.5 101.55 40.95" fill="url(#gradient2)" fill-rule="evenodd" stroke="none"/>
      <path d="M145.2 73.25 Q144.75 69.95 143.05 67.25 141.0 64.0 137.2 60.55 133.95 57.6 133.75 56.9 132.9 53.5 138.85 54.05 144.7 54.55 145.7 56.45 L146.9 59.3 Q147.45 60.95 148.05 64.6 148.8 68.8 147.6 72.7 146.55 76.05 145.6 75.95 L145.2 73.25" fill="url(#gradient3)" fill-rule="evenodd" stroke="none"/>
      <path d="M143.15 33.35 Q142.85 32.55 144.7 35.45 L148.45 41.5 Q150.75 45.3 154.45 46.85 155.45 47.3 157.7 47.8 159.15 48.15 159.0 48.5 158.35 49.95 155.3 50.55 152.05 51.25 149.8 49.85 147.95 48.7 147.0 46.1 L145.9 43.2 Q145.5 42.8 144.8 39.55 L143.15 33.35" fill="url(#gradient4)" fill-rule="evenodd" stroke="none"/>
      <path d="M103.1 35.1 Q102.0 38.05 102.55 41.75 L102.8 45.2 102.2 48.25 Q101.65 51.0 99.7 52.35 97.25 54.0 93.1 53.6 89.3 53.25 88.05 51.85 87.75 51.55 89.5 51.05 L93.25 49.75 Q95.45 48.7 97.35 46.95 99.65 44.85 100.45 42.6 L102.05 37.4 Q102.5 35.9 103.1 35.1" fill="url(#gradient5)" fill-rule="evenodd" stroke="none"/>
      <path d="M146.3 42.1 L149.15 44.75 Q151.05 46.7 152.95 47.85 157.8 50.95 158.95 54.1 159.35 55.2 159.1 55.1 L158.45 54.5 157.1 53.5 Q155.85 52.75 154.2 52.6 L151.1 52.65 Q149.65 52.55 147.95 50.75 146.05 48.75 145.55 44.95 145.05 41.25 146.3 42.1" fill="url(#gradient6)" fill-rule="evenodd" stroke="none"/>
      <path d="M129.75 53.1 Q129.75 54.35 128.95 57.5 128.2 60.55 128.2 63.05 128.2 66.35 127.5 69.0 126.85 71.35 125.8 72.7 L124.95 73.45 125.1 72.45 125.25 70.55 Q125.2 68.85 124.35 67.15 L122.45 64.1 Q121.7 62.6 122.4 59.85 123.15 56.8 126.5 54.05 129.8 51.35 129.75 53.1" fill="url(#gradient7)" fill-rule="evenodd" stroke="none"/>
      <path d="M146.95 45.65 Q147.85 46.65 149.6 50.85 151.65 55.8 153.25 58.4 154.65 60.65 157.15 63.95 158.65 65.9 158.45 66.35 L154.7 66.2 Q151.55 65.15 148.15 63.1 144.2 60.65 142.05 57.5 L139.7 53.1 Q138.65 51.05 141.45 46.95 144.35 42.75 146.95 45.65" fill="url(#gradient8)" fill-rule="evenodd" stroke="none"/>
      <path d="M112.3 55.95 L110.3 60.5 Q108.3 63.9 104.25 66.85 100.8 69.35 97.4 70.85 93.9 72.4 93.2 71.6 92.9 71.25 94.35 69.1 L97.9 63.15 Q99.35 60.4 100.95 55.4 102.35 51.1 103.2 50.0 105.65 46.85 109.5 50.4 113.2 53.85 112.3 55.95" fill="url(#gradient9)" fill-rule="evenodd" stroke="none"/>
      <path d="M142.5 31.6 Q145.75 34.6 148.2 42.35 149.15 45.4 150.7 47.6 L154.2 52.25 Q155.25 53.7 157.25 55.6 158.65 56.9 158.45 57.25 L153.75 57.4 Q149.15 56.4 146.85 53.6 144.75 51.0 143.5 47.85 L142.15 44.1 Q142.0 43.7 142.75 42.9 L144.25 40.95 Q146.05 37.55 142.5 31.6" fill="url(#gradient10)" fill-rule="evenodd" stroke="none"/>
      <path d="M144.65 61.95 Q144.35 65.05 143.05 68.2 141.75 71.25 140.55 71.8 140.4 71.85 140.3 70.3 L139.8 66.55 Q138.6 61.75 135.5 57.5 L133.05 54.05 Q132.65 53.3 132.55 52.15 132.25 49.3 137.1 49.6 141.95 49.95 143.15 53.45 L144.25 56.3 Q144.95 58.85 144.65 61.95" fill="url(#gradient11)" fill-rule="evenodd" stroke="none"/>
      <path d="M117.25 57.4 Q118.25 53.15 123.85 52.1 L127.7 52.3 Q129.45 52.95 129.45 54.45 129.45 55.8 129.05 56.7 L126.6 61.05 Q123.45 66.45 122.7 72.1 122.45 74.0 122.5 76.55 122.55 78.3 122.4 78.25 121.0 77.85 119.1 74.45 117.2 71.0 116.5 67.4 115.8 63.85 116.3 60.8 L117.25 57.4" fill="url(#gradient12)" fill-rule="evenodd" stroke="none"/>
      <path d="M144.05 37.75 Q144.3 35.75 145.6 36.05 L147.0 38.6 Q147.75 39.6 149.3 40.55 L150.7 41.2 151.25 41.55 150.1 41.85 148.1 41.9 Q145.4 41.45 144.3 40.2 143.85 39.6 144.05 37.75" fill="url(#gradient13)" fill-rule="evenodd" stroke="none"/>
      <path d="M138.35 57.65 Q139.45 60.55 139.65 64.5 139.9 69.65 138.3 74.65 L137.75 76.3 Q137.45 76.9 136.85 76.95 136.6 76.95 135.3 74.35 133.95 71.65 132.95 69.05 131.7 65.85 130.9 62.45 L129.85 58.75 Q129.5 58.05 130.4 56.75 131.3 55.5 132.65 54.75 136.4 52.85 138.35 57.65" fill="url(#gradient14)" fill-rule="evenodd" stroke="none"/>
      <path d="M143.3 47.3 Q143.95 48.1 144.1 50.45 144.35 53.8 145.2 56.8 L146.1 59.25 Q146.45 60.05 146.1 59.9 142.9 58.45 140.2 55.3 138.25 53.0 137.6 51.55 L136.9 49.45 Q136.4 48.05 138.75 46.35 141.2 44.6 143.3 47.3" fill="url(#gradient15)" fill-rule="evenodd" stroke="none"/>
      <path d="M135.2 47.9 Q136.15 48.7 136.55 49.85 136.9 50.85 136.65 52.0 L136.05 54.1 Q135.65 55.4 135.35 57.25 L134.85 60.4 Q134.55 61.95 134.55 64.45 134.55 66.1 134.2 66.2 133.35 66.4 131.15 63.35 128.75 60.05 128.0 56.75 L127.6 54.3 Q127.55 53.5 127.9 52.35 128.05 51.8 129.6 50.35 L131.45 48.45 Q132.15 47.3 133.25 47.25 134.2 47.15 135.2 47.9" fill="url(#gradient16)" fill-rule="evenodd" stroke="none"/>
      <path d="M115.5 59.45 Q114.15 63.45 112.95 65.4 110.35 69.65 105.6 72.1 L104.0 72.7 103.2 72.7 103.95 70.8 105.75 66.5 109.15 55.55 Q109.3 54.85 110.65 54.4 L113.35 54.2 Q117.0 54.9 115.5 59.45" fill="url(#gradient17)" fill-rule="evenodd" stroke="none"/>
      <path d="M110.0 46.9 Q113.45 49.65 111.45 51.3 L109.9 52.15 106.05 52.85 Q101.3 53.65 97.45 55.95 96.15 56.75 94.7 58.0 L93.65 58.8 Q93.15 57.75 94.25 55.0 95.3 52.25 97.1 50.05 98.85 47.9 100.95 46.75 102.05 46.1 103.45 45.6 106.55 44.15 110.0 46.9" fill="url(#gradient18)" fill-rule="evenodd" stroke="none"/>
      <path d="M107.8 49.2 Q108.05 48.5 108.75 47.8 110.55 46.1 112.85 49.5 115.25 52.9 113.5 55.6 L112.2 57.85 Q110.85 59.7 108.65 61.1 106.4 62.55 103.6 63.35 L99.85 63.6 Q99.75 63.55 100.75 62.65 L102.95 60.3 Q105.55 56.95 106.75 52.65 L107.8 49.2" fill="url(#gradient19)" fill-rule="evenodd" stroke="none"/>
      <path d="M136.4 48.4 Q136.9 49.45 136.85 50.75 L136.4 55.9 136.3 57.55 Q136.3 58.15 136.0 58.15 L134.65 56.75 132.75 54.1 Q130.55 50.25 131.15 48.6 131.5 47.45 133.25 46.85 135.35 46.15 136.4 48.4" fill="url(#gradient20)" fill-rule="evenodd" stroke="none"/>
      <path d="M144.65 41.05 Q145.55 41.75 146.15 42.9 L148.15 47.7 148.8 49.2 Q149.05 49.75 148.8 49.9 L146.95 49.25 Q145.1 48.5 144.0 47.8 140.45 45.45 140.05 43.65 139.85 42.45 141.15 41.1 142.65 39.55 144.65 41.05" fill="url(#gradient21)" fill-rule="evenodd" stroke="none"/>
      <path d="M105.5 45.25 Q107.25 43.4 109.25 44.7 111.0 45.75 111.1 47.0 111.2 48.85 107.95 51.8 107.0 52.7 105.25 53.8 L103.4 54.8 Q103.1 54.7 103.2 54.1 L103.55 52.5 Q104.1 48.5 104.4 47.35 104.75 46.05 105.5 45.25" fill="url(#gradient22)" fill-rule="evenodd" stroke="none"/>
      <path d="M95.8 46.85 L97.45 45.75 Q100.35 43.4 101.1 40.35 101.75 37.75 102.0 37.65 103.6 37.0 104.0 40.5 104.4 43.7 103.9 44.65 102.9 46.65 99.6 47.55 L96.9 47.7 95.25 47.45 Q95.1 47.3 95.8 46.85" fill="url(#gradient23)" fill-rule="evenodd" stroke="none"/>
      <path d="M120.85 62.6 Q119.7 63.8 119.2 65.15 L118.8 66.75 118.7 67.65 Q118.6 67.9 118.2 66.8 117.7 65.45 117.8 63.3 117.9 60.9 118.8 58.25 119.45 56.15 119.65 53.45 119.85 50.65 120.15 49.65 120.55 48.2 122.6 51.3 124.65 54.4 124.45 57.15 124.25 59.6 123.25 60.65 121.8 61.65 120.85 62.6" fill="url(#gradient24)" fill-rule="evenodd" stroke="none"/>
      <path d="M117.2 47.0 Q121.15 47.55 121.15 49.15 L121.25 51.45 Q121.1 53.1 119.65 56.2 117.6 60.5 114.1 63.25 113.7 63.55 113.75 62.6 L113.7 59.85 Q113.4 56.55 112.05 53.25 111.1 50.95 111.55 49.9 113.0 46.35 117.2 47.0" fill="url(#gradient25)" fill-rule="evenodd" stroke="none"/>
      <path d="M125.85 43.85 Q129.85 45.05 129.85 47.1 L129.6 50.15 128.2 55.3 Q126.95 59.3 124.1 62.15 121.7 64.6 120.9 64.15 L121.75 61.65 Q122.85 58.55 122.6 55.4 122.3 51.8 121.4 48.8 120.8 46.75 121.0 45.95 121.8 42.6 125.85 43.85" fill="url(#gradient26)" fill-rule="evenodd" stroke="none"/>
      <path d="M119.85 48.5 Q119.9 49.55 119.45 50.65 L117.35 54.85 116.75 56.2 116.3 56.6 115.7 55.0 115.1 52.15 Q114.7 48.4 115.7 47.0 116.35 46.15 117.95 46.2 119.75 46.3 119.85 48.5" fill="url(#gradient27)" fill-rule="evenodd" stroke="none"/>
      <path d="M139.1 40.6 L139.3 44.35 139.4 45.55 139.2 46.05 138.15 45.1 136.55 43.35 Q134.75 40.85 134.95 39.5 135.05 38.65 136.25 38.1 137.6 37.4 138.55 38.95 139.0 39.65 139.1 40.6" fill="url(#gradient28)" fill-rule="evenodd" stroke="none"/>
      <path d="M108.2 39.05 Q109.35 40.15 109.15 41.1 109.05 42.6 106.05 44.8 L103.7 46.2 102.15 46.85 Q101.95 46.75 102.1 46.25 L102.65 44.95 Q103.6 41.85 104.1 40.85 104.55 39.85 105.25 39.2 106.85 37.85 108.2 39.05" fill="url(#gradient29)" fill-rule="evenodd" stroke="none"/>
      <path d="M114.0 48.7 L113.05 49.5 Q112.0 50.05 111.2 50.95 L110.5 52.05 110.1 52.4 109.8 51.25 Q109.6 50.0 109.75 49.3 110.25 47.0 111.6 46.45 112.15 46.2 113.2 46.85 114.35 47.6 114.0 48.7" fill="url(#gradient30)" fill-rule="evenodd" stroke="none"/>
      <path d="M134.55 44.95 Q134.7 45.35 134.3 46.15 133.8 47.2 133.7 48.4 L133.8 49.7 133.7 50.25 Q132.05 48.95 131.6 48.0 130.6 45.9 131.3 44.6 131.55 44.05 132.8 43.95 134.2 43.85 134.55 44.95" fill="url(#gradient31)" fill-rule="evenodd" stroke="none"/>
    </g>
    <radialGradient cx="0" cy="0" gradientTransform="matrix(-0.0435, 0.0, 0.0, -0.0319, 122.45, 11.85)" gradientUnits="userSpaceOnUse" id="gradient0" r="819.2" spreadMethod="pad">
      <stop offset="0.0" stop-color="#8c80b3"/>
      <stop offset="0.16470588235294117" stop-color="#7463a1"/>
      <stop offset="0.3686274509803922" stop-color="#5b468e"/>
      <stop offset="0.48627450980392156" stop-color="#523b87"/>
      <stop offset="1.0" stop-color="#471a54"/>
    </radialGradient>
    <radialGradient cx="0" cy="0" gradientTransform="matrix(0.0137, -0.0092, -0.0072, -0.0107, 124.95, 76.85)" gradientUnits="userSpaceOnUse" id="gradient1" r="819.2" spreadMethod="pad">
      <stop offset="0.0" stop-color="#9b80a7"/>
      <stop offset="0.16470588235294117" stop-color="#846396"/>
      <stop offset="0.3686274509803922" stop-color="#6c4684"/>
      <stop offset="0.48627450980392156" stop-color="#633b7d"/>
      <stop offset="1.0" stop-color="#471a54"/>
    </radialGradient>
    <radialGradient cx="0" cy="0" gradientTransform="matrix(0.0165, 0.0019, 0.0015, -0.0129, 89.25, 60.5)" gradientUnits="userSpaceOnUse" id="gradient2" r="819.2" spreadMethod="pad">
      <stop offset="0.0" stop-color="#9b80a7"/>
      <stop offset="0.16470588235294117" stop-color="#846396"/>
      <stop offset="0.3686274509803922" stop-color="#6c4684"/>
      <stop offset="0.48627450980392156" stop-color="#633b7d"/>
      <stop offset="1.0" stop-color="#471a54"/>
    </radialGradient>
    <radialGradient cx="0" cy="0" gradientTransform="matrix(0.0149, -0.0179, -0.0152, -0.0126, 145.2, 75.3)" gradientUnits="userSpaceOnUse" id="gradient3" r="819.2" spreadMethod="pad">
      <stop offset="0.0" stop-color="#9b80a7"/>
      <stop offset="0.16470588235294117" stop-color="#846396"/>
      <stop offset="0.3686274509803922" stop-color="#6c4684"/>
      <stop offset="0.48627450980392156" stop-color="#633b7d"/>
      <stop offset="1.0" stop-color="#471a54"/>
    </radialGradient>
    <radialGradient cx="0" cy="0" gradientTransform="matrix(-0.0172, 0.0071, -0.0057, -0.0137, 159.7, 48.55)" gradientUnits="userSpaceOnUse" id="gradient4" r="819.2" spreadMethod="pad">
      <stop offset="0.0" stop-color="#9b80a7"/>
      <stop offset="0.16470588235294117" stop-color="#846396"/>
      <stop offset="0.3686274509803922" stop-color="#6c4684"/>
      <stop offset="0.48627450980392156" stop-color="#633b7d"/>
      <stop offset="1.0" stop-color="#471a54"/>
    </radialGradient>
    <radialGradient cx="0" cy="0" gradientTransform="matrix(0.0229, 0.0055, 0.0035, -0.0145, 87.25, 52.0)" gradientUnits="userSpaceOnUse" id="gradient5" r="819.2" spreadMethod="pad">
      <stop offset="0.0" stop-color="#9b80a7"/>
      <stop offset="0.16470588235294117" stop-color="#846396"/>
      <stop offset="0.3686274509803922" stop-color="#6c4684"/>
      <stop offset="0.48627450980392156" stop-color="#633b7d"/>
      <stop offset="1.0" stop-color="#471a54"/>
    </radialGradient>
    <radialGradient cx="0" cy="0" gradientTransform="matrix(-0.0249, 0.0, 0.0, -0.0183, 159.9, 54.9)" gradientUnits="userSpaceOnUse" id="gradient6" r="819.2" spreadMethod="pad">
      <stop offset="0.0" stop-color="#9b80a7"/>
      <stop offset="0.16470588235294117" stop-color="#846396"/>
      <stop offset="0.3686274509803922" stop-color="#6c4684"/>
      <stop offset="0.48627450980392156" stop-color="#633b7d"/>
      <stop offset="1.0" stop-color="#471a54"/>
    </radialGradient>
    <radialGradient cx="0" cy="0" gradientTransform="matrix(-0.009, -0.0146, 0.0106, -0.0065, 125.65, 74.15)" gradientUnits="userSpaceOnUse" id="gradient7" r="819.2" spreadMethod="pad">
      <stop offset="0.0" stop-color="#9b80a7"/>
      <stop offset="0.16470588235294117" stop-color="#846396"/>
      <stop offset="0.3686274509803922" stop-color="#6c4684"/>
      <stop offset="0.48627450980392156" stop-color="#633b7d"/>
      <stop offset="1.0" stop-color="#471a54"/>
    </radialGradient>
    <radialGradient cx="0" cy="0" gradientTransform="matrix(-0.0291, 0.0, 0.0, -0.0211, 159.55, 68.15)" gradientUnits="userSpaceOnUse" id="gradient8" r="819.2" spreadMethod="pad">
      <stop offset="0.0" stop-color="#9b80a7"/>
      <stop offset="0.16470588235294117" stop-color="#84639b"/>
      <stop offset="0.3686274509803922" stop-color="#6c468f"/>
      <stop offset="0.48627450980392156" stop-color="#633b8a"/>
      <stop offset="1.0" stop-color="#471a54"/>
    </radialGradient>
    <radialGradient cx="0" cy="0" gradientTransform="matrix(0.0325, -0.0047, -0.0029, -0.0201, 92.25, 73.5)" gradientUnits="userSpaceOnUse" id="gradient9" r="819.2" spreadMethod="pad">
      <stop offset="0.0" stop-color="#9b80a7"/>
      <stop offset="0.16470588235294117" stop-color="#846396"/>
      <stop offset="0.3686274509803922" stop-color="#6c4684"/>
      <stop offset="0.48627450980392156" stop-color="#633b7d"/>
      <stop offset="1.0" stop-color="#471a54"/>
    </radialGradient>
    <radialGradient cx="0" cy="0" gradientTransform="matrix(-0.0217, 0.0, 0.0, -0.0159, 159.35, 57.25)" gradientUnits="userSpaceOnUse" id="gradient10" r="819.2" spreadMethod="pad">
      <stop offset="0.0" stop-color="#9b80a7"/>
      <stop offset="0.16470588235294117" stop-color="#846396"/>
      <stop offset="0.3686274509803922" stop-color="#6c4684"/>
      <stop offset="0.48627450980392156" stop-color="#633b7d"/>
      <stop offset="1.0" stop-color="#471a54"/>
    </radialGradient>
    <radialGradient cx="0" cy="0" gradientTransform="matrix(0.013, -0.0196, -0.0122, -0.0081, 140.05, 72.6)" gradientUnits="userSpaceOnUse" id="gradient11" r="819.2" spreadMethod="pad">
      <stop offset="0.0" stop-color="#9b80a7"/>
      <stop offset="0.16470588235294117" stop-color="#846396"/>
      <stop offset="0.3686274509803922" stop-color="#6c4684"/>
      <stop offset="0.48627450980392156" stop-color="#633b7d"/>
      <stop offset="1.0" stop-color="#471a54"/>
    </radialGradient>
    <radialGradient cx="0" cy="0" gradientTransform="matrix(-0.0174, -0.021, 0.0133, -0.011, 123.1, 79.1)" gradientUnits="userSpaceOnUse" id="gradient12" r="819.2" spreadMethod="pad">
      <stop offset="0.0" stop-color="#9b80a7"/>
      <stop offset="0.16470588235294117" stop-color="#84639b"/>
      <stop offset="0.3686274509803922" stop-color="#6c468f"/>
      <stop offset="0.48627450980392156" stop-color="#633b8a"/>
      <stop offset="1.0" stop-color="#471a54"/>
    </radialGradient>
    <radialGradient cx="0" cy="0" gradientTransform="matrix(-0.0049, 0.0081, -0.0091, -0.0055, 152.25, 41.5)" gradientUnits="userSpaceOnUse" id="gradient13" r="819.2" spreadMethod="pad">
      <stop offset="0.0" stop-color="#9b80a7"/>
      <stop offset="0.16470588235294117" stop-color="#84639b"/>
      <stop offset="0.3686274509803922" stop-color="#6c468f"/>
      <stop offset="0.48627450980392156" stop-color="#633b8a"/>
      <stop offset="1.0" stop-color="#471a54"/>
    </radialGradient>
    <radialGradient cx="0" cy="0" gradientTransform="matrix(-0.02, 0.0012, -0.0011, -0.0195, 137.6, 77.5)" gradientUnits="userSpaceOnUse" id="gradient14" r="819.2" spreadMethod="pad">
      <stop offset="0.0" stop-color="#9b80a7"/>
      <stop offset="0.16470588235294117" stop-color="#84639b"/>
      <stop offset="0.3686274509803922" stop-color="#6c468f"/>
      <stop offset="0.48627450980392156" stop-color="#633b8a"/>
      <stop offset="1.0" stop-color="#471a54"/>
    </radialGradient>
    <radialGradient cx="0" cy="0" gradientTransform="matrix(-0.0141, 0.0039, -0.0046, -0.0165, 146.5, 61.65)" gradientUnits="userSpaceOnUse" id="gradient15" r="819.2" spreadMethod="pad">
      <stop offset="0.0" stop-color="#9b80a7"/>
      <stop offset="0.16470588235294117" stop-color="#84639b"/>
      <stop offset="0.3686274509803922" stop-color="#6c468f"/>
      <stop offset="0.48627450980392156" stop-color="#633b8a"/>
      <stop offset="1.0" stop-color="#471a54"/>
    </radialGradient>
    <radialGradient cx="0" cy="0" gradientTransform="matrix(-0.0136, -0.0142, 0.0107, -0.0102, 134.65, 66.9)" gradientUnits="userSpaceOnUse" id="gradient16" r="819.2" spreadMethod="pad">
      <stop offset="0.0" stop-color="#9b80a7"/>
      <stop offset="0.16470588235294117" stop-color="#846396"/>
      <stop offset="0.3686274509803922" stop-color="#6c4684"/>
      <stop offset="0.48627450980392156" stop-color="#633b7d"/>
      <stop offset="1.0" stop-color="#471a54"/>
    </radialGradient>
    <radialGradient cx="0" cy="0" gradientTransform="matrix(-0.0153, -0.0109, 0.0115, -0.016, 103.8, 73.75)" gradientUnits="userSpaceOnUse" id="gradient17" r="819.2" spreadMethod="pad">
      <stop offset="0.0" stop-color="#9b80a7"/>
      <stop offset="0.16470588235294117" stop-color="#846396"/>
      <stop offset="0.3686274509803922" stop-color="#6c4684"/>
      <stop offset="0.48627450980392156" stop-color="#633b7d"/>
      <stop offset="1.0" stop-color="#471a54"/>
    </radialGradient>
    <radialGradient cx="0" cy="0" gradientTransform="matrix(0.0027, -0.0154, 0.0233, 0.0042, 93.45, 59.6)" gradientUnits="userSpaceOnUse" id="gradient18" r="819.2" spreadMethod="pad">
      <stop offset="0.0" stop-color="#9b80a7"/>
      <stop offset="0.16470588235294117" stop-color="#846396"/>
      <stop offset="0.3686274509803922" stop-color="#6c4684"/>
      <stop offset="0.48627450980392156" stop-color="#633b7d"/>
      <stop offset="1.0" stop-color="#471a54"/>
    </radialGradient>
    <radialGradient cx="0" cy="0" gradientTransform="matrix(0.02, -0.0017, -0.0011, -0.0125, 99.05, 63.7)" gradientUnits="userSpaceOnUse" id="gradient19" r="819.2" spreadMethod="pad">
      <stop offset="0.0" stop-color="#9b80a7"/>
      <stop offset="0.16470588235294117" stop-color="#84639b"/>
      <stop offset="0.3686274509803922" stop-color="#6c468f"/>
      <stop offset="0.48627450980392156" stop-color="#633b8a"/>
      <stop offset="1.0" stop-color="#471a54"/>
    </radialGradient>
    <radialGradient cx="0" cy="0" gradientTransform="matrix(-0.0122, 7.0E-4, -0.0012, -0.0202, 137.4, 65.75)" gradientUnits="userSpaceOnUse" id="gradient20" r="819.2" spreadMethod="pad">
      <stop offset="0.0" stop-color="#9b80a7"/>
      <stop offset="0.16470588235294117" stop-color="#84639b"/>
      <stop offset="0.3686274509803922" stop-color="#6c468f"/>
      <stop offset="0.48627450980392156" stop-color="#633b8a"/>
      <stop offset="1.0" stop-color="#471a54"/>
    </radialGradient>
    <radialGradient cx="0" cy="0" gradientTransform="matrix(-0.0105, 0.0062, -0.0104, -0.0174, 153.55, 55.95)" gradientUnits="userSpaceOnUse" id="gradient21" r="819.2" spreadMethod="pad">
      <stop offset="0.0" stop-color="#9b80a7"/>
      <stop offset="0.16470588235294117" stop-color="#84639b"/>
      <stop offset="0.3686274509803922" stop-color="#6c468f"/>
      <stop offset="0.48627450980392156" stop-color="#633b8a"/>
      <stop offset="1.0" stop-color="#471a54"/>
    </radialGradient>
    <radialGradient cx="0" cy="0" gradientTransform="matrix(0.0129, 0.0043, 0.0065, -0.0192, 99.95, 61.65)" gradientUnits="userSpaceOnUse" id="gradient22" r="819.2" spreadMethod="pad">
      <stop offset="0.0" stop-color="#9b80a7"/>
      <stop offset="0.16470588235294117" stop-color="#84639b"/>
      <stop offset="0.3686274509803922" stop-color="#6c468f"/>
      <stop offset="0.48627450980392156" stop-color="#633b8a"/>
      <stop offset="1.0" stop-color="#471a54"/>
    </radialGradient>
    <radialGradient cx="0" cy="0" gradientTransform="matrix(0.009, 0.0101, 0.0165, -0.0147, 87.6, 51.0)" gradientUnits="userSpaceOnUse" id="gradient23" r="819.2" spreadMethod="pad">
      <stop offset="0.0" stop-color="#9b80a7"/>
      <stop offset="0.16470588235294117" stop-color="#84639b"/>
      <stop offset="0.3686274509803922" stop-color="#6c468f"/>
      <stop offset="0.48627450980392156" stop-color="#633b8a"/>
      <stop offset="1.0" stop-color="#471a54"/>
    </radialGradient>
    <radialGradient cx="0" cy="0" gradientTransform="matrix(0.0135, -0.0115, -0.0083, -0.0097, 116.05, 71.45)" gradientUnits="userSpaceOnUse" id="gradient24" r="819.2" spreadMethod="pad">
      <stop offset="0.0" stop-color="#9b80a7"/>
      <stop offset="0.16470588235294117" stop-color="#846396"/>
      <stop offset="0.3686274509803922" stop-color="#6c4684"/>
      <stop offset="0.48627450980392156" stop-color="#633b7d"/>
      <stop offset="1.0" stop-color="#471a54"/>
    </radialGradient>
    <radialGradient cx="0" cy="0" gradientTransform="matrix(0.0208, -0.0024, -0.0021, -0.0179, 114.4, 65.1)" gradientUnits="userSpaceOnUse" id="gradient25" r="819.2" spreadMethod="pad">
      <stop offset="0.0" stop-color="#9b80a7"/>
      <stop offset="0.16470588235294117" stop-color="#84639b"/>
      <stop offset="0.3686274509803922" stop-color="#6c468f"/>
      <stop offset="0.48627450980392156" stop-color="#633b8a"/>
      <stop offset="1.0" stop-color="#471a54"/>
    </radialGradient>
    <radialGradient cx="0" cy="0" gradientTransform="matrix(0.0213, -0.0092, -0.0077, -0.0177, 121.65, 64.4)" gradientUnits="userSpaceOnUse" id="gradient26" r="819.2" spreadMethod="pad">
      <stop offset="0.0" stop-color="#9b80a7"/>
      <stop offset="0.16470588235294117" stop-color="#846396"/>
      <stop offset="0.3686274509803922" stop-color="#6c4684"/>
      <stop offset="0.48627450980392156" stop-color="#633b7d"/>
      <stop offset="1.0" stop-color="#471a54"/>
    </radialGradient>
    <radialGradient cx="0" cy="0" gradientTransform="matrix(-0.0097, -0.0032, 0.0058, -0.0174, 114.85, 63.4)" gradientUnits="userSpaceOnUse" id="gradient27" r="819.2" spreadMethod="pad">
      <stop offset="0.0" stop-color="#9b80a7"/>
      <stop offset="0.16470588235294117" stop-color="#84639b"/>
      <stop offset="0.3686274509803922" stop-color="#6c468f"/>
      <stop offset="0.48627450980392156" stop-color="#633b8a"/>
      <stop offset="1.0" stop-color="#471a54"/>
    </radialGradient>
    <radialGradient cx="0" cy="0" gradientTransform="matrix(-0.0084, 0.0016, -0.0028, -0.0145, 140.4, 50.4)" gradientUnits="userSpaceOnUse" id="gradient28" r="819.2" spreadMethod="pad">
      <stop offset="0.0" stop-color="#9b80a7"/>
      <stop offset="0.16470588235294117" stop-color="#84639b"/>
      <stop offset="0.3686274509803922" stop-color="#6c468f"/>
      <stop offset="0.48627450980392156" stop-color="#633b8a"/>
      <stop offset="1.0" stop-color="#471a54" stop-opacity="0.0"/>
    </radialGradient>
    <radialGradient cx="0" cy="0" gradientTransform="matrix(0.009, 0.0047, 0.0079, -0.0152, 99.35, 51.25)" gradientUnits="userSpaceOnUse" id="gradient29" r="819.2" spreadMethod="pad">
      <stop offset="0.0" stop-color="#9b80a7"/>
      <stop offset="0.16470588235294117" stop-color="#84639b"/>
      <stop offset="0.3686274509803922" stop-color="#6c468f"/>
      <stop offset="0.48627450980392156" stop-color="#633b8a"/>
      <stop offset="1.0" stop-color="#471a54" stop-opacity="0.0"/>
    </radialGradient>
    <radialGradient cx="0" cy="0" gradientTransform="matrix(-0.0058, -0.0052, 0.0072, -0.008, 107.6, 55.65)" gradientUnits="userSpaceOnUse" id="gradient30" r="819.2" spreadMethod="pad">
      <stop offset="0.0" stop-color="#9b80a7"/>
      <stop offset="0.16470588235294117" stop-color="#84639b"/>
      <stop offset="0.3686274509803922" stop-color="#6c468f"/>
      <stop offset="0.48627450980392156" stop-color="#633b8a"/>
      <stop offset="1.0" stop-color="#471a54"/>
    </radialGradient>
    <radialGradient cx="0" cy="0" gradientTransform="matrix(-0.0078, -6.0E-4, 8.0E-4, -0.0107, 133.7, 54.35)" gradientUnits="userSpaceOnUse" id="gradient31" r="819.2" spreadMethod="pad">
      <stop offset="0.0" stop-color="#9b80a7"/>
      <stop offset="0.16470588235294117" stop-color="#84639b"/>
      <stop offset="0.3686274509803922" stop-color="#6c468f"/>
      <stop offset="0.48627450980392156" stop-color="#633b8a"/>
      <stop offset="1.0" stop-color="#471a54"/>
    </radialGradient>
    <g id="sprite0" transform="matrix(1.0, 0.0, 0.0, 1.0, 0.0, 0.0)">
      <use height="18.25" transform="matrix(1.0, 0.0, 0.0, 1.0, 0.0, 0.0)" width="68.6" xlink:href="#shape1"/>
    </g>
    <g id="shape1" transform="matrix(1.0, 0.0, 0.0, 1.0, 0.0, 0.0)">
      <path d="M65.7 10.2 L61.65 9.95 Q59.35 9.75 60.0 10.2 L62.9 11.35 64.25 11.65 Q65.15 11.9 65.35 12.3 65.9 13.2 62.1 13.75 L59.95 14.05 60.9 14.35 Q61.45 14.5 61.75 14.8 61.95 15.15 60.1 15.25 L57.35 15.35 Q53.1 15.25 50.95 15.4 49.35 15.5 44.6 17.2 40.7 18.6 37.6 18.1 36.1 17.65 38.35 17.45 41.6 17.15 42.05 16.6 L35.0 17.0 Q30.55 17.4 27.95 16.85 L20.45 15.1 14.2 14.4 Q9.7 13.9 9.8 13.3 10.05 12.15 14.95 11.7 L9.65 11.1 4.35 10.65 1.35 10.45 Q-0.65 10.15 0.35 9.15 1.2 8.35 4.55 7.55 10.5 6.15 12.85 5.15 13.85 4.75 16.15 3.2 18.2 1.85 19.6 1.45 22.55 0.6 26.55 0.3 L33.55 0.0 Q39.2 -0.1 44.55 0.95 48.7 1.75 55.3 3.85 L59.7 5.6 64.1 7.5 Q68.4 9.2 68.6 9.55 68.75 10.05 65.7 10.2" fill="#0d5069" fill-rule="evenodd" stroke="none"/>
    </g>
    <g id="shape2" transform="matrix(1.0, 0.0, 0.0, 1.0, -4.1, -53.35)">
      <path d="M153.05 66.7 Q153.45 68.35 153.2 71.85 152.95 75.45 152.1 79.55 150.6 86.85 147.65 91.2 145.55 94.35 141.6 96.05 135.8 98.45 130.25 97.6 L125.85 96.3 123.35 90.5 Q126.6 92.55 129.55 93.25 132.95 94.05 136.6 93.15 140.1 91.65 140.85 88.5 141.45 86.0 140.4 83.2 139.65 81.05 137.4 77.65 134.15 72.6 132.95 69.9 131.75 67.35 131.75 65.45 L131.9 65.3 132.45 66.6 Q133.7 71.2 137.25 75.4 145.55 85.4 143.8 90.7 146.35 88.65 147.1 85.45 148.4 79.8 147.2 73.5 145.6 67.45 145.3 65.65 L146.15 66.85 Q147.3 69.05 148.65 74.3 149.7 78.35 149.7 81.95 150.4 80.4 151.3 76.95 152.4 72.45 152.55 69.8 152.7 67.85 152.3 65.45 L152.5 65.25 Q152.75 65.35 153.05 66.7" fill="url(#gradient32)" fill-rule="evenodd" stroke="none"/>
      <path d="M120.4 71.5 Q121.4 67.1 121.35 64.15 L122.4 63.75 122.25 68.9 Q121.25 76.05 116.85 86.15 111.75 97.95 104.35 99.1 97.25 100.2 90.35 91.4 83.3 82.4 78.75 79.65 72.8 76.05 65.35 78.55 L72.15 75.6 Q79.2 72.75 80.7 73.15 82.85 73.8 85.65 76.5 89.1 79.85 91.75 84.95 95.9 92.85 100.4 94.85 105.4 97.1 110.5 91.9 L113.3 88.45 Q114.65 84.35 114.95 78.35 115.2 74.3 114.9 68.15 L114.5 62.8 115.7 62.05 115.95 63.9 116.3 68.5 116.95 74.6 Q117.2 78.35 116.65 82.05 119.1 77.1 120.4 71.5" fill="url(#gradient33)" fill-rule="evenodd" stroke="none"/>
      <path d="M183.55 66.75 L183.7 67.3 183.7 69.05 183.5 74.15 Q182.95 78.9 180.4 83.25 176.7 89.7 169.15 98.8 166.95 102.0 164.3 104.2 161.3 106.65 157.25 108.25 137.8 115.75 110.8 96.8 L99.85 88.35 Q93.25 83.1 89.4 80.7 77.55 73.5 67.6 78.25 59.6 82.05 56.25 90.6 52.6 100.0 53.3 117.95 53.65 127.15 55.05 132.25 57.5 141.0 63.4 143.15 64.45 144.15 59.1 143.5 53.4 142.8 54.15 144.25 L57.8 145.65 Q60.25 146.5 58.95 146.9 L46.3 146.75 Q51.35 146.95 54.15 147.9 55.15 148.4 52.1 148.45 L47.0 148.55 39.85 149.35 29.15 149.8 22.75 148.95 16.45 148.0 Q14.9 147.25 19.0 146.55 24.55 145.7 25.75 144.8 L23.7 144.7 15.75 144.3 Q10.85 143.5 4.65 144.05 3.35 144.2 5.1 143.1 5.75 142.7 7.0 142.45 L9.0 142.0 Q12.3 141.0 13.15 140.0 13.95 139.05 14.05 137.25 L14.15 134.3 14.6 128.1 Q15.45 116.55 15.85 112.9 16.8 104.35 18.55 97.95 22.8 82.0 31.0 71.75 39.1 61.7 51.4 56.75 64.35 51.5 76.85 54.3 87.75 56.75 97.25 65.0 102.8 69.85 114.7 82.5 126.45 93.85 137.85 98.65 149.85 103.7 159.1 99.3 166.3 95.85 169.1 88.9 171.3 83.3 171.15 78.1 L170.15 71.2 Q169.6 68.2 170.05 68.7 170.5 69.3 171.75 73.7 L172.65 78.1 Q173.1 75.9 173.7 74.25 174.4 72.45 174.7 69.9 L174.85 67.65 175.5 67.65 175.55 70.0 Q175.45 72.9 174.6 75.5 174.25 76.55 173.05 82.3 173.2 86.05 172.6 89.45 L177.45 84.0 Q179.8 81.4 181.1 77.0 182.3 72.8 182.2 68.4 182.15 64.95 182.85 65.5 183.2 65.8 183.55 66.75" fill="url(#gradient34)" fill-rule="evenodd" stroke="none"/>
    </g>
    <linearGradient gradientTransform="matrix(-0.0168, 0.0505, 0.0498, 0.0166, 130.6, 106.45)" gradientUnits="userSpaceOnUse" id="gradient32" spreadMethod="pad" x1="-819.2" x2="819.2">
      <stop offset="0.0" stop-color="#242224"/>
      <stop offset="0.23921568627450981" stop-color="#27252e"/>
      <stop offset="0.6392156862745098" stop-color="#302e49"/>
      <stop offset="1.0" stop-color="#3a3866"/>
    </linearGradient>
    <linearGradient gradientTransform="matrix(-0.0273, 0.0512, 0.0512, 0.0273, 82.0, 99.6)" gradientUnits="userSpaceOnUse" id="gradient33" spreadMethod="pad" x1="-819.2" x2="819.2">
      <stop offset="0.0" stop-color="#242224"/>
      <stop offset="0.23921568627450981" stop-color="#27252e"/>
      <stop offset="0.6392156862745098" stop-color="#302e49"/>
      <stop offset="1.0" stop-color="#3a3866"/>
    </linearGradient>
    <linearGradient gradientTransform="matrix(-0.0327, 0.0527, 0.0527, 0.0327, 99.95, 86.45)" gradientUnits="userSpaceOnUse" id="gradient34" spreadMethod="pad" x1="-819.2" x2="819.2">
      <stop offset="0.0" stop-color="#242224"/>
      <stop offset="0.23921568627450981" stop-color="#27252e"/>
      <stop offset="0.6392156862745098" stop-color="#302e49"/>
      <stop offset="1.0" stop-color="#3a3866"/>
    </linearGradient>
    <g id="sprite1" transform="matrix(1.0, 0.0, 0.0, 1.0, 0.05, 0.0)">
      <clipPath id="clipPath0" transform="matrix(1.0, 0.0, 0.0, 1.0, 0.05, 0.0)">
        <use height="96.45" transform="matrix(1.0, 0.0, 0.0, 1.0, -0.05, 0.0)" width="179.65" xlink:href="#shape3"/>
      </clipPath>
      <g clip-path="url(#clipPath0)">
        <use height="97.2" transform="matrix(1.0, 0.0, 0.0, 1.0, 7.25, 0.95)" width="159.4" xlink:href="#sprite2"/>
      </g>
    </g>
    <g id="shape3" transform="matrix(1.0, 0.0, 0.0, 1.0, 0.05, 0.0)">
      <path d="M170.7 14.3 L171.35 14.3 Q171.8 17.95 170.45 22.15 170.1 23.2 168.9 28.95 169.05 32.7 168.45 36.1 L173.3 30.65 Q175.65 28.05 176.95 23.65 178.15 19.45 178.05 15.05 178.0 11.6 178.7 12.15 179.05 12.45 179.4 13.4 L179.55 13.95 179.55 15.7 179.35 20.8 Q178.8 25.55 176.25 29.9 172.55 36.35 165.0 45.45 162.8 48.65 160.15 50.85 157.15 53.3 153.1 54.9 133.65 62.4 106.65 43.45 L95.7 35.0 Q89.1 29.75 85.25 27.35 73.4 20.15 63.45 24.9 55.45 28.7 52.1 37.25 48.45 46.65 49.15 64.6 49.5 73.8 50.9 78.9 53.35 87.65 59.25 89.8 60.3 90.8 54.95 90.15 49.25 89.45 50.0 90.9 L53.65 92.3 Q56.1 93.15 54.8 93.55 L42.15 93.4 Q47.2 93.6 50.0 94.55 51.0 95.05 47.95 95.1 L42.85 95.2 35.7 96.0 25.0 96.45 18.6 95.6 12.3 94.65 Q10.75 93.9 14.85 93.2 20.4 92.35 21.6 91.45 L19.55 91.35 11.6 90.95 Q6.7 90.15 0.5 90.7 -0.8 90.85 0.95 89.75 1.6 89.35 2.85 89.1 L4.85 88.65 7.1 87.9 9.0 86.65 Q9.8 85.7 9.9 83.9 L10.0 80.95 10.45 74.75 Q11.3 63.2 11.7 59.55 12.65 51.0 14.4 44.6 18.65 28.65 26.85 18.4 34.95 8.35 47.25 3.4 60.2 -1.85 72.7 0.95 83.6 3.4 93.1 11.65 98.65 16.5 110.55 29.15 122.3 40.5 133.7 45.3 145.7 50.35 154.95 45.95 162.15 42.5 164.95 35.55 167.15 29.95 167.0 24.75 166.95 23.0 166.0 17.85 165.45 14.85 165.9 15.35 166.35 15.95 167.6 20.35 L168.5 24.75 Q168.95 22.55 169.55 20.9 170.65 18.05 170.7 14.3" fill="#ff0000" fill-rule="evenodd" stroke="none"/>
    </g>
    <g id="sprite2" transform="matrix(1.0, 0.0, 0.0, 1.0, 0.0, 0.0)">
      <use height="47.95" transform="matrix(1.0, 0.0, 0.0, 1.0, 4.0, 5.9)" width="84.1" xlink:href="#sprite3"/>
      <use height="20.65" transform="matrix(1.0, 0.0, 0.0, 1.0, 14.35, 3.55)" width="66.8" xlink:href="#sprite4"/>
      <use height="3.2" transform="matrix(1.0, 0.0, 0.0, 1.0, 38.8, 0.0)" width="28.75" xlink:href="#sprite5"/>
      <use height="55.1" transform="matrix(1.0, 0.0, 0.0, 1.0, 2.65, 12.35)" width="100.8" xlink:href="#sprite6"/>
      <use height="34.7" transform="matrix(1.0, 0.0, 0.0, 1.0, 2.75, 26.55)" width="23.1" xlink:href="#sprite7"/>
      <use height="40.9" transform="matrix(1.0, 0.0, 0.0, 1.0, 90.25, 13.9)" width="28.25" xlink:href="#sprite8"/>
      <use height="35.0" transform="matrix(1.0, 0.0, 0.0, 1.0, 99.2, 21.7)" width="24.2" xlink:href="#sprite9"/>
      <use height="26.75" transform="matrix(1.0, 0.0, 0.0, 1.0, 108.3, 31.5)" width="22.0" xlink:href="#sprite10"/>
      <use height="19.5" transform="matrix(1.0, 0.0, 0.0, 1.0, 115.0, 35.5)" width="36.55" xlink:href="#sprite11"/>
      <use height="9.8" transform="matrix(1.0, 0.0, 0.0, 1.0, 122.2, 41.2)" width="36.6" xlink:href="#sprite12"/>
      <use height="3.3" transform="matrix(1.0, 0.0, 0.0, 1.0, 134.75, 43.0)" width="24.65" xlink:href="#sprite13"/>
      <use height="56.65" transform="matrix(1.0, 0.0, 0.0, 1.0, 0.95, 34.2)" width="45.5" xlink:href="#sprite14"/>
      <use height="17.25" transform="matrix(1.0, 0.0, 0.0, 1.0, 52.0, 17.4)" width="36.5" xlink:href="#sprite15"/>
      <use height="34.85" transform="matrix(1.0, 0.0, 0.0, 1.0, 6.6, 56.4)" width="36.95" xlink:href="#sprite16"/>
      <use height="60.95" transform="matrix(1.0, 0.0, 0.0, 1.0, 0.0, 24.6)" width="51.65" xlink:href="#sprite17"/>
      <use height="18.05" transform="matrix(1.0, 0.0, 0.0, 1.0, 9.05, 77.8)" width="36.65" xlink:href="#sprite18"/>
      <use height="9.45" transform="matrix(1.0, 0.0, 0.0, 1.0, 17.4, 87.75)" width="19.85" xlink:href="#sprite19"/>
    </g>
    <g id="sprite3" transform="matrix(1.0, 0.0, 0.0, 1.0, 0.0, 0.0)">
      <use height="47.95" transform="matrix(1.0, 0.0, 0.0, 1.0, 0.0, 0.0)" width="84.1" xlink:href="#shape4"/>
    </g>
    <g id="shape4" transform="matrix(1.0, 0.0, 0.0, 1.0, 0.0, 0.0)">
      <path d="M83.75 5.8 Q81.35 3.95 77.2 2.5 68.95 -0.5 60.05 1.1 52.4 2.45 45.45 8.65 41.35 12.35 34.7 20.95 L30.05 26.75 Q26.95 30.4 25.4 29.5 23.75 28.55 24.6 22.75 25.3 17.65 27.2 12.5 28.3 9.7 27.55 9.15 26.55 8.55 22.6 11.7 18.65 14.85 14.25 19.75 9.75 24.85 4.7 36.85 2.2 42.85 0.55 47.95 L0.0 47.8 Q1.65 42.65 4.2 36.6 9.3 24.55 13.85 19.4 17.9 14.85 21.7 11.7 26.4 7.8 27.8 8.7 28.95 9.35 27.75 12.7 25.8 17.8 25.1 22.9 24.35 28.25 25.7 29.05 26.8 29.75 29.65 26.4 L34.25 20.6 Q41.05 11.9 45.15 8.2 52.15 1.95 59.95 0.55 69.05 -1.05 77.45 2.0 81.65 3.5 84.1 5.4 L83.75 5.8" fill="#5c5a98" fill-rule="evenodd" stroke="none"/>
    </g>
    <g id="sprite4" transform="matrix(1.0, 0.0, 0.0, 1.0, 0.0, 0.0)">
      <use height="20.65" transform="matrix(1.0, 0.0, 0.0, 1.0, 0.0, 0.0)" width="66.8" xlink:href="#shape5"/>
    </g>
    <g id="shape5" transform="matrix(1.0, 0.0, 0.0, 1.0, 0.0, 0.0)">
      <path d="M50.85 0.5 Q43.2 1.5 37.15 5.7 28.65 11.5 27.05 10.2 26.4 9.65 27.0 8.0 27.7 6.25 26.75 5.3 25.65 4.3 23.1 4.65 20.5 4.95 17.25 6.5 12.75 8.7 6.95 13.8 2.1 18.05 0.25 20.65 L0.0 20.5 Q1.95 17.9 6.75 13.6 12.6 8.45 17.15 6.25 20.45 4.7 23.1 4.35 25.8 4.05 26.9 5.1 28.05 6.15 27.25 8.1 26.7 9.5 27.2 9.95 27.9 10.5 30.5 9.35 L37.0 5.45 Q43.1 1.25 50.8 0.25 59.5 -0.9 66.8 2.8 L66.65 3.05 Q59.45 -0.6 50.85 0.5" fill="#5c5a98" fill-rule="evenodd" stroke="none"/>
    </g>
    <g id="sprite5" transform="matrix(1.0, 0.0, 0.0, 1.0, 0.0, 0.0)">
      <use height="3.2" transform="matrix(1.0, 0.0, 0.0, 1.0, 0.0, 0.0)" width="28.75" xlink:href="#shape6"/>
    </g>
    <g id="shape6" transform="matrix(1.0, 0.0, 0.0, 1.0, 0.0, 0.0)">
      <path d="M28.75 0.3 Q26.65 0.15 19.8 1.6 12.7 3.2 9.7 3.2 L3.65 2.5 0.1 2.35 0.0 2.1 1.7 1.85 3.7 2.2 9.7 2.9 Q12.4 2.9 19.75 1.35 26.65 -0.1 28.75 0.0 L28.75 0.3" fill="#5c5a98" fill-rule="evenodd" stroke="none"/>
    </g>
    <g id="sprite6" transform="matrix(1.0, 0.0, 0.0, 1.0, 0.0, 0.05)">
      <use height="55.1" transform="matrix(1.0, 0.0, 0.0, 1.0, 0.0, -0.05)" width="100.8" xlink:href="#shape7"/>
    </g>
    <g id="shape7" transform="matrix(1.0, 0.0, 0.0, 1.0, 0.0, 0.05)">
      <path d="M87.65 18.55 Q82.2 11.4 79.35 8.35 74.55 3.25 70.3 1.6 61.95 -1.65 53.15 2.9 44.4 7.45 37.2 18.85 33.15 25.2 28.0 29.15 24.85 31.5 18.7 34.5 15.3 36.15 13.65 37.1 4.45 42.35 0.25 55.05 L0.0 54.95 Q4.15 42.2 13.5 36.85 15.75 35.6 18.6 34.25 24.8 31.2 27.85 28.9 33.0 25.0 37.0 18.7 44.25 7.15 53.1 2.55 61.9 -1.95 70.4 1.35 74.7 3.05 79.5 8.15 82.4 11.2 87.85 18.35 L94.15 26.3 Q97.75 30.5 100.8 32.8 L100.6 33.05 Q97.55 30.7 93.95 26.5 L87.65 18.55" fill="#5c5a98" fill-rule="evenodd" stroke="none"/>
    </g>
    <g id="sprite7" transform="matrix(1.0, 0.0, 0.0, 1.0, 0.0, 0.0)">
      <use height="34.7" transform="matrix(1.0, 0.0, 0.0, 1.0, 0.0, 0.0)" width="23.1" xlink:href="#shape8"/>
    </g>
    <g id="shape8" transform="matrix(1.0, 0.0, 0.0, 1.0, 0.0, 0.0)">
      <path d="M22.45 7.15 Q21.0 12.05 17.15 15.3 13.45 18.45 7.55 25.35 1.8 32.1 0.45 34.7 L0.0 34.45 Q1.3 31.8 7.05 25.05 13.0 18.1 16.8 14.9 20.5 11.75 21.95 7.1 23.15 3.05 22.05 1.15 21.55 0.35 20.75 0.65 18.55 1.5 15.85 5.3 13.15 9.15 10.4 15.2 7.05 22.7 1.2 30.9 L0.75 30.55 4.3 25.3 Q7.75 19.75 9.9 15.0 15.8 1.95 20.55 0.15 21.8 -0.3 22.5 0.85 23.7 2.9 22.45 7.15" fill="#5c5a98" fill-rule="evenodd" stroke="none"/>
    </g>
    <g id="sprite8" transform="matrix(1.0, 0.0, 0.0, 1.0, 0.0, 0.0)">
      <use height="40.9" transform="matrix(1.0, 0.0, 0.0, 1.0, 0.0, 0.0)" width="28.25" xlink:href="#shape9"/>
    </g>
    <g id="shape9" transform="matrix(1.0, 0.0, 0.0, 1.0, 0.0, 0.0)">
      <path d="M4.45 6.85 Q2.05 2.75 0.0 0.35 L0.45 0.0 Q2.55 2.5 4.9 6.55 8.3 12.35 10.05 17.95 12.55 25.95 15.95 30.95 20.9 38.2 28.25 40.35 L28.1 40.9 Q20.55 38.65 15.55 31.3 12.1 26.3 9.55 18.1 7.8 12.55 4.45 6.85" fill="#5c5a98" fill-rule="evenodd" stroke="none"/>
    </g>
    <g id="sprite9" transform="matrix(1.0, 0.0, 0.0, 1.0, 0.0, 0.0)">
      <use height="35.0" transform="matrix(1.0, 0.0, 0.0, 1.0, 0.0, 0.0)" width="24.2" xlink:href="#shape10"/>
    </g>
    <g id="shape10" transform="matrix(1.0, 0.0, 0.0, 1.0, 0.0, 0.0)">
      <path d="M4.2 12.75 L2.1 4.7 Q0.95 1.05 0.0 0.2 L0.2 0.0 Q1.2 0.85 2.35 4.55 L4.45 12.65 4.45 12.75 Q6.35 20.5 10.35 25.75 15.65 32.65 24.2 34.7 L24.15 35.0 Q14.95 32.8 9.45 24.95 5.95 19.9 4.2 12.8 L4.2 12.75" fill="#5c5a98" fill-rule="evenodd" stroke="none"/>
    </g>
    <g id="sprite10" transform="matrix(1.0, 0.0, 0.0, 1.0, 0.0, 0.0)">
      <use height="26.75" transform="matrix(1.0, 0.0, 0.0, 1.0, 0.0, 0.0)" width="22.0" xlink:href="#shape11"/>
    </g>
    <g id="shape11" transform="matrix(1.0, 0.0, 0.0, 1.0, 0.0, 0.0)">
      <path d="M5.8 5.75 Q9.4 10.05 10.55 12.6 11.75 15.25 11.0 16.0 10.15 16.8 7.05 15.2 5.2 14.15 4.8 14.9 4.45 15.45 5.5 16.8 6.75 18.3 9.35 20.05 12.95 22.4 15.55 23.65 L19.95 25.5 22.0 26.25 21.8 26.75 19.75 26.0 15.3 24.15 9.05 20.5 Q6.15 18.6 4.95 16.9 3.85 15.45 4.35 14.6 L7.3 14.7 Q10.05 16.15 10.6 15.6 11.1 15.2 10.05 12.85 8.9 10.35 5.35 6.1 2.2 2.3 0.0 0.45 L0.4 0.0 Q2.7 2.0 5.8 5.75" fill="#5c5a98" fill-rule="evenodd" stroke="none"/>
    </g>
    <g id="sprite11" transform="matrix(1.0, 0.0, 0.0, 1.0, 0.0, 0.0)">
      <use height="19.5" transform="matrix(1.0, 0.0, 0.0, 1.0, 0.0, 0.0)" width="36.55" xlink:href="#shape12"/>
    </g>
    <g id="shape12" transform="matrix(1.0, 0.0, 0.0, 1.0, 0.0, 0.0)">
      <path d="M26.35 19.5 Q22.9 19.5 19.45 18.5 12.8 16.5 7.9 11.2 6.15 9.25 2.6 3.95 L0.0 0.15 0.25 0.0 2.85 3.8 Q6.0 8.7 8.15 11.0 12.0 15.3 17.5 17.5 26.45 21.1 36.45 17.25 L36.55 17.5 Q31.45 19.5 26.35 19.5" fill="#5c5a98" fill-rule="evenodd" stroke="none"/>
    </g>
    <g id="sprite12" transform="matrix(1.0, 0.0, 0.0, 1.0, 0.0, 0.0)">
      <use height="9.8" transform="matrix(1.0, 0.0, 0.0, 1.0, 0.0, 0.0)" width="36.6" xlink:href="#shape13"/>
    </g>
    <g id="shape13" transform="matrix(1.0, 0.0, 0.0, 1.0, 0.0, 0.0)">
      <path d="M21.8 9.8 Q13.85 9.8 6.15 5.0 2.3 2.65 0.0 0.2 L0.2 0.0 Q2.5 2.45 6.3 4.8 13.9 9.5 21.8 9.5 28.8 9.5 33.25 7.8 35.5 6.95 36.4 6.05 L36.6 6.25 Q35.65 7.2 33.4 8.1 28.9 9.8 21.8 9.8" fill="#5c5a98" fill-rule="evenodd" stroke="none"/>
    </g>
    <g id="sprite13" transform="matrix(1.0, 0.0, 0.0, 1.0, 0.0, 0.0)">
      <use height="3.3" transform="matrix(1.0, 0.0, 0.0, 1.0, 0.0, 0.0)" width="24.65" xlink:href="#shape14"/>
    </g>
    <g id="shape14" transform="matrix(1.0, 0.0, 0.0, 1.0, 0.0, 0.0)">
      <path d="M7.15 3.3 Q3.85 3.3 0.0 2.3 L0.05 2.0 Q7.65 4.05 14.35 1.85 19.8 0.0 24.65 0.0 L24.65 0.25 Q20.0 0.25 14.4 2.1 10.8 3.3 7.15 3.3" fill="#5c5a98" fill-rule="evenodd" stroke="none"/>
    </g>
    <g id="sprite14" transform="matrix(1.0, 0.0, 0.0, 1.0, 0.0, 0.0)">
      <use height="56.65" transform="matrix(1.0, 0.0, 0.0, 1.0, 0.0, 0.0)" width="45.5" xlink:href="#shape15"/>
    </g>
    <g id="shape15" transform="matrix(1.0, 0.0, 0.0, 1.0, 0.0, 0.0)">
      <path d="M45.5 0.2 Q43.5 4.85 40.4 7.95 38.4 10.0 33.0 13.8 L28.5 17.05 Q23.95 20.45 20.25 27.2 17.95 31.35 14.65 39.7 L12.2 45.6 Q9.4 52.0 5.55 54.8 3.0 56.65 0.4 56.65 L0.0 56.65 0.0 56.1 Q2.5 56.2 4.95 54.55 8.85 51.9 11.7 45.4 L14.15 39.5 Q17.55 30.95 19.8 26.9 23.55 20.05 28.15 16.6 L32.7 13.35 Q38.05 9.55 40.0 7.6 43.1 4.5 45.0 0.0 L45.5 0.2" fill="#5c5a98" fill-rule="evenodd" stroke="none"/>
    </g>
    <g id="sprite15" transform="matrix(1.0, 0.0, 0.0, 1.0, 0.0, 0.0)">
      <use height="17.25" transform="matrix(1.0, 0.0, 0.0, 1.0, 0.0, 0.0)" width="36.5" xlink:href="#shape16"/>
    </g>
    <g id="shape16" transform="matrix(1.0, 0.0, 0.0, 1.0, 0.0, 0.0)">
      <path d="M36.05 17.25 Q28.25 6.9 22.95 3.2 17.65 -0.45 12.65 1.0 8.9 2.1 5.65 4.95 3.25 7.05 0.45 10.8 L0.0 10.5 Q2.85 6.65 5.3 4.5 8.65 1.6 12.5 0.45 17.7 -1.05 23.1 2.7 28.55 6.4 36.5 16.9 L36.05 17.25" fill="#5c5a98" fill-rule="evenodd" stroke="none"/>
    </g>
    <g id="sprite16" transform="matrix(1.0, 0.0, 0.0, 1.0, 0.0, 0.0)">
      <use height="34.85" transform="matrix(1.0, 0.0, 0.0, 1.0, 0.0, 0.0)" width="36.95" xlink:href="#shape17"/>
    </g>
    <g id="shape17" transform="matrix(1.0, 0.0, 0.0, 1.0, 0.0, 0.0)">
      <path d="M36.95 9.9 Q35.9 14.3 33.35 17.65 31.1 20.6 28.55 21.8 L24.6 21.95 Q23.8 21.5 23.6 20.75 23.35 19.7 24.35 17.9 L26.7 14.25 Q29.1 11.0 29.9 9.1 30.95 6.65 31.1 4.35 31.3 1.85 30.25 0.85 L26.05 1.0 Q22.55 2.65 19.95 6.8 18.4 9.25 15.85 15.3 L13.4 20.8 Q10.95 25.85 6.25 30.35 2.35 34.05 0.1 34.85 L0.0 34.55 Q2.15 33.85 6.05 30.1 10.75 25.6 13.15 20.65 L15.55 15.2 Q18.15 9.1 19.7 6.6 22.35 2.4 25.9 0.75 L30.45 0.65 Q31.6 1.75 31.4 4.4 31.2 6.75 30.15 9.2 L26.95 14.45 24.65 17.95 Q23.65 19.75 23.9 20.7 24.05 21.3 24.75 21.7 L28.45 21.55 Q30.95 20.4 33.15 17.5 35.65 14.2 36.7 9.85 L36.95 9.9" fill="#5c5a98" fill-rule="evenodd" stroke="none"/>
    </g>
    <g id="sprite17" transform="matrix(1.0, 0.0, 0.0, 1.0, 0.0, 0.0)">
      <use height="60.95" transform="matrix(1.0, 0.0, 0.0, 1.0, 0.0, 0.0)" width="51.65" xlink:href="#shape18"/>
    </g>
    <g id="shape18" transform="matrix(1.0, 0.0, 0.0, 1.0, 0.0, 0.0)">
      <path d="M50.75 0.4 Q49.95 -0.05 48.4 1.0 46.7 2.15 45.0 4.65 L42.1 9.1 37.4 16.0 Q34.45 19.55 31.15 21.2 L27.1 23.2 Q22.6 25.3 20.6 26.6 17.3 28.75 15.2 31.85 13.75 34.0 12.85 37.75 12.35 39.9 11.7 44.7 10.85 51.8 9.55 54.45 8.15 57.25 6.0 58.65 4.75 59.5 2.25 60.2 L0.1 60.95 0.0 60.7 2.15 59.95 Q4.65 59.25 5.9 58.45 7.9 57.1 9.3 54.3 10.1 52.7 10.65 50.0 L11.45 44.7 Q12.05 39.95 12.6 37.65 13.45 33.9 15.0 31.7 17.15 28.6 20.4 26.4 22.45 25.05 27.0 22.95 L31.05 20.95 Q34.3 19.3 37.15 15.85 38.85 13.8 41.9 8.95 L44.8 4.45 Q46.5 2.0 48.2 0.8 49.85 -0.4 50.85 0.15 52.6 1.1 50.55 5.9 L50.3 5.8 Q51.2 3.7 51.3 2.2 51.45 0.8 50.75 0.4" fill="#5c5a98" fill-rule="evenodd" stroke="none"/>
    </g>
    <g id="sprite18" transform="matrix(1.0, 0.0, 0.0, 1.0, 0.0, 0.0)">
      <use height="18.05" transform="matrix(1.0, 0.0, 0.0, 1.0, 0.0, 0.0)" width="36.65" xlink:href="#shape19"/>
    </g>
    <g id="shape19" transform="matrix(1.0, 0.0, 0.0, 1.0, 0.0, 0.0)">
      <path d="M31.45 6.5 L28.35 5.3 Q25.1 3.75 20.4 6.6 17.0 8.6 12.3 13.3 9.6 16.05 7.2 17.2 5.35 18.05 3.3 18.05 L0.0 17.8 0.0 17.25 1.35 17.35 5.8 17.15 Q8.6 16.3 11.95 12.95 16.75 8.15 20.25 6.05 25.15 3.15 28.6 4.8 L31.45 5.95 33.45 5.85 Q35.1 5.0 36.1 0.0 L36.65 0.15 Q35.6 5.4 33.7 6.3 L31.45 6.5" fill="#5c5a98" fill-rule="evenodd" stroke="none"/>
    </g>
    <g id="sprite19" transform="matrix(1.0, 0.0, 0.0, 1.0, 0.0, 0.0)">
      <use height="9.45" transform="matrix(1.0, 0.0, 0.0, 1.0, 0.0, 0.0)" width="19.85" xlink:href="#shape20"/>
    </g>
    <g id="shape20" transform="matrix(1.0, 0.0, 0.0, 1.0, 0.0, 0.0)">
      <path d="M14.7 0.9 Q12.1 1.85 9.35 3.85 L6.1 6.25 2.7 8.6 Q1.3 9.4 0.0 9.45 L0.0 9.2 Q1.25 9.15 2.6 8.4 L5.95 6.05 9.2 3.6 Q12.15 1.5 14.7 0.6 L18.95 0.4 Q20.4 1.4 19.55 4.5 L19.25 4.4 Q20.1 1.5 18.8 0.65 17.6 -0.2 14.7 0.9" fill="#5c5a98" fill-rule="evenodd" stroke="none"/>
    </g>
    <g id="shape21" transform="matrix(1.0, 0.0, 0.0, 1.0, -16.75, 0.0)">
      <path d="M215.6 36.0 Q217.3 48.2 206.6 56.65 196.3 64.8 181.0 64.8 165.45 64.8 154.2 56.65 142.25 48.05 144.0 36.0 146.15 20.7 155.95 10.45 166.05 -0.2 179.4 0.0 194.25 0.2 204.3 11.1 213.55 21.05 215.6 36.0" fill="url(#gradient35)" fill-rule="evenodd" stroke="none"/>
      <path d="M163.0 59.2 Q162.75 57.1 162.95 54.05 163.05 52.7 166.1 50.95 169.1 49.25 172.9 48.35 182.85 46.0 184.0 51.9 184.25 53.15 180.85 58.9 176.95 65.65 175.9 71.55 175.05 76.5 176.85 82.2 L178.2 86.8 Q176.7 87.2 172.3 81.85 167.15 75.6 165.15 68.35 163.4 62.05 163.0 59.2" fill="url(#gradient36)" fill-rule="evenodd" stroke="none"/>
      <path d="M214.85 31.35 Q215.8 32.1 216.95 38.75 218.3 46.5 221.35 51.75 223.9 56.1 229.0 59.3 233.05 61.85 233.0 61.95 232.1 63.2 225.25 61.95 217.3 60.5 211.1 56.25 205.65 52.5 203.5 50.6 201.95 49.15 200.15 46.7 199.35 45.6 200.55 42.3 201.75 39.0 204.05 35.8 210.15 27.55 214.85 31.35" fill="url(#gradient37)" fill-rule="evenodd" stroke="none"/>
      <path d="M145.15 59.1 Q145.65 57.4 147.0 54.75 147.6 53.6 150.75 52.5 153.9 51.4 157.35 51.05 166.4 50.25 165.1 55.4 164.85 56.45 159.85 60.95 154.1 66.15 151.0 71.1 148.4 75.2 147.75 80.25 L147.1 84.25 Q145.75 84.4 144.15 79.35 142.3 73.45 143.4 67.1 144.35 61.6 145.15 59.1" fill="url(#gradient38)" fill-rule="evenodd" stroke="none"/>
      <path d="M148.5 22.9 Q151.25 18.5 150.8 19.7 149.7 22.85 148.35 29.1 147.3 34.0 146.7 34.6 L145.05 39.05 Q143.6 43.0 140.75 44.75 137.35 46.85 132.45 45.8 127.9 44.85 126.8 42.65 126.55 42.15 128.8 41.6 L133.75 40.2 Q136.45 39.05 138.55 37.25 140.85 35.25 142.85 32.05 L148.5 22.9" fill="url(#gradient39)" fill-rule="evenodd" stroke="none"/>
      <path d="M211.45 22.4 Q214.4 29.2 216.4 34.55 218.85 40.95 226.35 44.6 228.0 45.35 232.05 46.5 234.65 47.25 234.2 47.75 232.35 49.85 226.55 50.4 220.3 50.95 216.6 48.5 213.6 46.45 212.8 42.3 L211.9 37.65 Q211.45 37.1 211.85 32.05 212.35 26.15 211.45 22.4" fill="url(#gradient40)" fill-rule="evenodd" stroke="none"/>
      <path d="M146.05 33.0 Q148.0 31.7 147.25 37.3 146.5 43.0 143.6 46.05 141.0 48.75 138.8 49.0 L134.1 48.9 Q131.6 49.15 129.7 50.25 L127.7 51.75 126.65 52.7 Q126.3 52.85 126.9 51.2 127.65 49.1 129.9 46.7 132.35 44.05 136.0 41.7 138.85 39.9 141.75 36.95 144.8 33.85 146.05 33.0" fill="url(#gradient41)" fill-rule="evenodd" stroke="none"/>
      <path d="M172.3 56.3 Q171.15 51.5 171.1 49.65 171.0 47.0 176.0 51.05 181.05 55.2 182.25 59.85 183.3 64.05 182.15 66.35 L179.25 70.9 Q178.0 73.5 177.9 76.05 177.85 77.45 178.1 78.95 L178.4 80.5 Q178.35 80.95 177.1 79.35 175.5 77.35 174.55 73.7 173.45 69.7 173.45 64.75 173.45 60.9 172.3 56.3" fill="url(#gradient42)" fill-rule="evenodd" stroke="none"/>
      <path d="M145.1 38.35 Q149.0 33.95 153.4 40.35 155.05 42.75 155.9 45.6 156.7 48.45 156.1 49.65 L152.55 56.3 Q149.2 61.1 143.25 64.8 138.1 67.95 133.4 69.5 128.4 71.15 127.7 69.7 127.35 69.05 129.65 66.05 133.5 61.05 135.55 57.65 138.0 53.7 141.1 46.2 143.8 39.85 145.1 38.35" fill="url(#gradient43)" fill-rule="evenodd" stroke="none"/>
      <path d="M198.3 50.15 Q199.6 47.55 201.8 45.5 207.55 40.15 211.3 44.95 212.6 46.6 214.7 53.1 217.15 60.75 219.3 64.9 221.15 68.45 224.75 73.85 226.9 77.1 226.4 77.65 225.4 78.9 220.05 76.55 215.0 74.3 209.75 70.5 203.6 66.05 200.55 60.9 199.9 59.8 197.5 53.95 197.0 52.7 198.3 50.15" fill="url(#gradient44)" fill-rule="evenodd" stroke="none"/>
      <path d="M151.8 17.0 Q146.5 26.05 149.15 31.2 149.75 32.35 151.45 34.15 152.6 35.35 152.3 35.95 L150.3 41.65 Q148.4 46.4 145.25 50.35 141.75 54.65 134.85 56.1 L127.7 55.9 Q127.4 55.4 129.45 53.45 L134.1 48.35 139.45 41.35 Q141.75 38.0 143.2 33.35 145.2 27.15 147.75 22.6 149.8 18.9 151.8 17.0" fill="url(#gradient45)" fill-rule="evenodd" stroke="none"/>
      <path d="M166.9 48.2 Q166.75 49.95 166.1 51.05 L162.4 56.35 Q157.7 62.8 155.9 70.05 155.3 72.5 155.1 75.75 L154.75 77.95 Q153.0 77.2 151.0 72.55 149.0 67.75 148.55 63.05 148.1 58.4 149.2 54.5 L150.8 50.2 Q152.65 44.8 160.0 44.35 163.0 44.15 164.95 45.15 167.1 46.2 166.9 48.2" fill="url(#gradient46)" fill-rule="evenodd" stroke="none"/>
      <path d="M178.65 48.1 L184.5 47.85 Q193.0 49.35 194.55 55.8 L195.95 61.0 Q196.75 65.65 195.7 71.0 194.6 76.45 191.7 81.65 188.85 86.8 186.7 87.45 186.45 87.55 186.55 84.85 186.7 81.05 186.3 78.15 185.0 69.4 180.35 61.4 L176.65 54.8 Q176.05 53.45 176.05 51.4 176.05 49.1 178.65 48.1" fill="url(#gradient47)" fill-rule="evenodd" stroke="none"/>
      <path d="M138.6 32.15 Q138.5 31.95 139.4 31.6 L141.55 30.6 Q143.9 29.15 145.0 27.6 L147.1 23.8 Q149.1 23.3 149.45 26.35 149.8 29.2 149.05 30.05 147.35 32.05 143.4 32.65 L140.35 32.55 138.6 32.15" fill="url(#gradient48)" fill-rule="evenodd" stroke="none"/>
      <path d="M166.7 52.15 Q168.8 53.2 170.15 55.2 171.5 57.1 171.0 58.15 170.5 59.25 169.4 63.85 168.2 69.05 166.3 73.85 L162.7 81.9 Q160.7 85.8 160.35 85.8 159.5 85.75 159.05 84.85 L158.15 82.35 Q155.8 74.7 156.15 66.9 156.4 60.75 158.1 56.55 161.0 49.25 166.7 52.15" fill="url(#gradient49)" fill-rule="evenodd" stroke="none"/>
      <path d="M150.65 40.85 Q153.8 36.75 157.5 39.4 158.9 40.4 159.7 41.9 160.55 43.35 160.25 44.1 L159.2 47.25 Q158.2 49.45 155.3 52.95 151.1 57.85 146.4 59.95 145.9 60.2 146.35 58.95 L147.7 55.2 Q149.05 50.65 149.4 45.65 149.7 42.1 150.65 40.85" fill="url(#gradient50)" fill-rule="evenodd" stroke="none"/>
      <path d="M162.9 41.75 Q164.35 40.6 165.8 40.7 167.5 40.85 168.55 42.6 L171.4 45.5 Q173.7 47.7 173.9 48.55 174.4 50.25 174.35 51.45 174.35 52.5 173.75 55.15 172.6 60.15 169.0 65.2 165.7 69.8 164.4 69.55 163.9 69.4 163.85 66.85 163.8 63.0 163.4 60.7 L162.65 55.9 Q162.2 53.1 161.6 51.2 L160.7 47.95 Q160.35 46.25 160.85 44.7 161.4 42.95 162.9 41.75" fill="url(#gradient51)" fill-rule="evenodd" stroke="none"/>
      <path d="M192.7 59.25 Q190.4 52.35 195.95 51.35 L200.0 51.65 Q202.05 52.3 202.3 53.35 204.3 60.65 207.45 69.95 208.45 72.85 210.15 76.5 L211.3 79.35 Q211.1 79.55 210.05 79.35 208.9 79.1 207.65 78.45 200.45 74.7 196.55 68.25 194.8 65.45 192.7 59.25" fill="url(#gradient52)" fill-rule="evenodd" stroke="none"/>
      <path d="M210.9 38.3 L214.75 40.0 Q217.9 41.75 220.55 45.0 223.25 48.25 224.9 52.55 226.5 56.7 225.8 58.25 225.7 58.45 224.15 57.1 221.95 55.1 220.0 53.95 214.35 50.5 207.0 49.25 L201.2 48.2 Q200.0 47.9 198.85 46.9 197.5 45.75 198.2 43.8 198.9 41.95 201.05 40.25 206.25 36.05 210.9 38.3" fill="url(#gradient53)" fill-rule="evenodd" stroke="none"/>
      <path d="M205.95 48.95 Q207.7 55.4 211.65 60.55 212.95 62.25 215.05 64.1 216.5 65.45 216.35 65.55 214.9 66.3 210.75 65.15 206.5 64.0 203.05 61.8 199.7 59.65 197.7 56.8 L195.7 53.45 Q193.1 49.35 196.65 44.15 198.1 42.05 199.8 41.3 201.65 40.45 202.85 41.6 L204.4 43.7 205.95 48.95" fill="url(#gradient54)" fill-rule="evenodd" stroke="none"/>
      <path d="M165.8 40.15 Q168.45 41.05 169.0 42.8 169.8 45.4 166.6 51.1 165.65 52.8 163.7 55.15 L161.65 57.3 Q161.25 57.25 161.2 56.4 L161.05 53.9 Q160.35 47.95 160.3 46.05 160.3 44.05 161.05 42.5 162.7 39.1 165.8 40.15" fill="url(#gradient55)" fill-rule="evenodd" stroke="none"/>
      <path d="M153.85 31.45 Q155.8 33.45 155.5 35.25 155.0 38.0 149.5 41.55 147.9 42.6 145.1 43.8 142.5 44.9 142.3 44.8 141.9 44.55 142.3 43.75 L143.3 41.45 Q145.45 35.8 146.3 34.2 147.2 32.4 148.6 31.35 151.6 29.05 153.85 31.45" fill="url(#gradient56)" fill-rule="evenodd" stroke="none"/>
      <path d="M210.75 48.7 L211.25 51.15 Q211.45 52.05 210.95 52.2 210.7 52.25 208.25 50.7 205.55 49.0 204.1 47.7 199.15 43.15 199.35 40.35 199.45 38.5 202.1 36.85 205.2 34.9 207.8 37.7 209.0 39.0 209.5 40.9 210.0 42.75 210.75 48.7" fill="url(#gradient57)" fill-rule="evenodd" stroke="none"/>
      <path d="M220.0 38.45 Q220.8 39.2 222.5 40.2 223.5 40.8 223.3 41.05 L220.85 41.4 216.75 41.2 Q211.7 39.85 210.25 36.8 209.6 35.6 210.85 33.55 212.25 31.2 214.7 32.2 215.55 32.5 216.55 34.25 217.9 36.55 220.0 38.45" fill="url(#gradient58)" fill-rule="evenodd" stroke="none"/>
      <path d="M188.0 46.1 Q188.45 47.6 188.75 51.85 189.1 55.95 190.1 59.1 191.4 63.2 191.6 66.8 191.75 70.0 191.0 72.1 190.4 73.75 190.25 73.4 L190.05 72.0 189.5 69.6 Q188.75 67.55 186.95 65.7 L183.35 62.75 Q181.8 61.15 181.55 57.45 181.25 53.3 184.35 48.55 187.35 43.85 188.0 46.1" fill="url(#gradient59)" fill-rule="evenodd" stroke="none"/>
      <path d="M198.65 44.75 Q199.35 46.35 197.9 49.9 195.9 54.9 195.4 59.9 195.3 61.05 195.35 64.05 195.35 65.45 194.8 65.0 189.4 60.8 186.4 54.35 184.2 49.7 183.95 47.15 L184.1 43.65 Q184.1 42.85 185.9 41.8 187.8 40.7 190.1 40.35 196.45 39.4 198.65 44.75" fill="url(#gradient60)" fill-rule="evenodd" stroke="none"/>
      <path d="M184.4 38.8 Q184.65 39.95 183.75 43.15 182.45 47.65 181.95 53.15 181.55 57.9 183.25 62.55 L184.5 66.35 Q183.35 67.15 179.65 63.35 175.35 59.0 173.45 52.95 171.8 47.65 171.35 45.15 171.0 43.35 171.0 40.55 171.0 39.3 172.8 37.8 174.65 36.3 177.0 35.6 183.2 33.7 184.4 38.8" fill="url(#gradient61)" fill-rule="evenodd" stroke="none"/>
      <path d="M186.15 42.7 Q186.25 39.3 189.0 39.2 191.35 39.1 192.4 40.4 193.9 42.4 193.3 48.2 L192.35 52.5 191.5 54.95 Q191.15 55.05 190.85 54.35 L189.9 52.3 186.75 45.95 Q186.1 44.25 186.15 42.7" fill="url(#gradient62)" fill-rule="evenodd" stroke="none"/>
      <path d="M157.8 28.15 Q159.25 25.85 161.3 26.9 163.05 27.75 163.25 29.05 163.65 30.95 160.8 34.85 L158.4 37.55 156.8 38.9 Q156.5 38.85 156.55 38.2 L156.65 36.4 Q156.75 32.0 156.95 30.65 157.15 29.2 157.8 28.15" fill="url(#gradient63)" fill-rule="evenodd" stroke="none"/>
      <path d="M208.15 28.55 Q209.25 29.5 209.95 31.05 210.65 32.55 212.15 37.3 L212.9 39.25 Q213.2 39.95 212.85 40.15 212.7 40.25 210.6 39.2 208.25 38.0 207.0 37.05 202.55 33.75 202.25 31.5 202.05 29.95 203.75 28.35 205.75 26.5 208.15 28.55" fill="url(#gradient64)" fill-rule="evenodd" stroke="none"/>
      <path d="M194.95 43.0 Q194.4 41.3 196.15 40.15 197.75 39.15 198.6 39.55 200.65 40.45 201.35 43.9 201.55 44.95 201.25 46.8 L200.85 48.55 Q200.65 48.7 200.3 48.0 L199.2 46.35 Q197.95 44.95 196.35 44.15 195.15 43.55 194.95 43.0" fill="url(#gradient65)" fill-rule="evenodd" stroke="none"/>
      <path d="M163.85 37.3 Q164.4 35.6 166.5 35.75 168.3 35.95 168.8 36.75 169.85 38.7 168.35 41.85 167.6 43.35 165.15 45.3 164.9 45.3 165.0 44.5 L165.15 42.55 Q165.0 40.7 164.2 39.1 163.65 37.9 163.85 37.3" fill="url(#gradient66)" fill-rule="evenodd" stroke="none"/>
      <path d="M41.3 141.85 Q41.8 141.85 42.15 142.2 L42.5 143.05 42.15 143.95 Q41.85 144.35 41.35 144.35 40.85 144.4 40.5 144.05 40.15 143.7 40.15 143.15 40.1 142.65 40.45 142.25 40.8 141.9 41.3 141.85" fill="#5c5a98" fill-rule="evenodd" stroke="none"/>
      <path d="M43.5 147.8 L43.6 148.0 Q43.35 145.4 42.05 144.2 L42.15 143.9 Q43.8 144.95 44.15 147.5 45.05 145.75 46.6 146.0 47.35 146.1 47.95 146.55 45.95 145.5 45.15 147.45 44.7 148.45 44.7 149.6 L43.75 149.85 42.9 149.7 Q43.05 147.45 42.2 147.0 L41.3 147.0 42.85 147.05 43.5 147.8" fill="#5c5a98" fill-rule="evenodd" stroke="none"/>
      <path d="M41.2 141.95 L42.15 141.15 44.6 141.05 43.9 141.2 Q43.2 141.45 43.0 142.0 L42.4 143.4 41.85 143.55 41.4 142.7 41.2 141.95" fill="#5c5a98" fill-rule="evenodd" stroke="none"/>
      <path d="M41.25 143.05 Q40.9 143.45 40.5 143.3 40.1 143.1 40.0 142.55 39.9 141.85 40.3 141.15 L40.7 140.6 Q40.6 141.3 40.85 141.5 L41.3 141.9 41.25 143.05" fill="#5c5a98" fill-rule="evenodd" stroke="none"/>
      <path d="M41.15 142.75 L41.25 143.05 41.2 143.8 Q40.9 144.75 39.05 144.55 38.65 144.5 38.2 144.8 L37.8 145.1 Q38.15 144.4 38.75 143.9 L39.35 143.4 Q39.85 142.7 40.35 142.65 L41.15 142.75" fill="#5c5a98" fill-rule="evenodd" stroke="none"/>
      <path d="M42.0 142.35 Q42.9 142.5 43.8 143.0 L44.75 143.95 44.2 143.65 43.0 143.8 Q41.55 144.8 40.95 144.15 40.6 143.75 41.05 143.0 41.5 142.25 42.0 142.35" fill="#5c5a98" fill-rule="evenodd" stroke="none"/>
      <path d="M40.65 143.5 L41.2 143.5 Q41.8 143.6 41.85 144.1 41.9 144.65 41.4 145.0 L40.45 145.55 Q40.1 145.75 40.0 146.45 L40.0 147.05 39.8 145.6 Q39.7 144.1 40.65 143.5" fill="#5c5a98" fill-rule="evenodd" stroke="none"/>
      <path d="M41.2 143.2 Q40.45 143.9 40.25 143.5 40.05 143.15 40.75 142.45 41.2 142.05 41.55 142.3 41.9 142.6 41.2 143.2" fill="#7573a8" fill-rule="evenodd" stroke="none"/>
      <path d="M55.0 133.45 L55.8 132.45 Q54.05 135.55 53.7 140.45 53.4 144.05 53.85 147.0 L51.25 147.0 50.25 146.85 Q50.7 143.95 49.95 142.1 L49.1 140.85 Q50.8 141.85 51.15 144.45 51.3 145.75 51.1 146.85 51.65 144.2 51.0 139.85 L50.25 136.05 Q51.6 138.6 52.15 143.0 L52.4 146.3 Q52.4 138.35 55.0 133.45" fill="#5c5a98" fill-rule="evenodd" stroke="none"/>
      <path d="M58.85 141.6 Q58.55 139.25 57.3 138.2 L58.25 138.95 Q59.4 140.4 59.6 142.95 59.5 141.7 59.75 140.15 60.3 136.7 62.25 134.75 L61.05 137.0 Q59.9 140.0 60.45 144.05 L58.95 143.95 58.85 141.6" fill="#5c5a98" fill-rule="evenodd" stroke="none"/>
      <path d="M18.3 142.6 Q17.95 140.5 16.75 139.6 L17.75 140.3 Q18.75 141.5 18.95 143.6 L19.1 141.35 Q19.6 138.4 21.35 136.7 L20.25 138.65 Q19.25 141.25 19.7 144.75 L18.4 144.65 18.3 142.6" fill="#5c5a98" fill-rule="evenodd" stroke="none"/>
      <path d="M59.2 143.8 Q59.0 142.35 59.15 140.45 59.45 136.6 61.05 134.15 62.8 131.5 63.2 130.2 L63.35 128.15 63.5 129.0 Q63.5 130.15 62.8 131.7 L60.8 135.5 Q59.75 138.3 60.05 143.8 L59.2 143.8" fill="#5c5a98" fill-rule="evenodd" stroke="none"/>
      <path d="M57.25 134.9 L55.2 138.7 Q54.15 141.45 54.45 146.95 L53.65 147.0 Q53.45 145.55 53.6 143.65 53.85 139.75 55.45 137.3 57.2 134.7 57.6 133.35 L57.75 131.35 57.9 132.2 Q57.9 133.35 57.25 134.9" fill="#5c5a98" fill-rule="evenodd" stroke="none"/>
    </g>
    <radialGradient cx="0" cy="0" gradientTransform="matrix(0.0583, 0.0, 0.0, -0.0428, 182.3, -3.8)" gradientUnits="userSpaceOnUse" id="gradient35" r="819.2" spreadMethod="pad">
      <stop offset="0.0" stop-color="#8c80b3"/>
      <stop offset="0.16470588235294117" stop-color="#7463a1"/>
      <stop offset="0.3686274509803922" stop-color="#5b468e"/>
      <stop offset="0.48627450980392156" stop-color="#523b87"/>
      <stop offset="1.0" stop-color="#471a54"/>
    </radialGradient>
    <radialGradient cx="0" cy="0" gradientTransform="matrix(-0.0208, -0.0139, 0.0109, -0.0162, 178.4, 85.65)" gradientUnits="userSpaceOnUse" id="gradient36" r="819.2" spreadMethod="pad">
      <stop offset="0.0" stop-color="#9b80a7"/>
      <stop offset="0.16470588235294117" stop-color="#846396"/>
      <stop offset="0.3686274509803922" stop-color="#6c4684"/>
      <stop offset="0.48627450980392156" stop-color="#633b7d"/>
      <stop offset="1.0" stop-color="#471a54"/>
    </radialGradient>
    <radialGradient cx="0" cy="0" gradientTransform="matrix(-0.0249, 0.0028, -0.0022, -0.0195, 232.4, 60.9)" gradientUnits="userSpaceOnUse" id="gradient37" r="819.2" spreadMethod="pad">
      <stop offset="0.0" stop-color="#9b80a7"/>
      <stop offset="0.16470588235294117" stop-color="#846396"/>
      <stop offset="0.3686274509803922" stop-color="#6c4684"/>
      <stop offset="0.48627450980392156" stop-color="#633b7d"/>
      <stop offset="1.0" stop-color="#471a54"/>
    </radialGradient>
    <radialGradient cx="0" cy="0" gradientTransform="matrix(-0.0225, -0.0272, 0.023, -0.0191, 147.75, 83.3)" gradientUnits="userSpaceOnUse" id="gradient38" r="819.2" spreadMethod="pad">
      <stop offset="0.0" stop-color="#9b80a7"/>
      <stop offset="0.16470588235294117" stop-color="#846396"/>
      <stop offset="0.3686274509803922" stop-color="#6c4684"/>
      <stop offset="0.48627450980392156" stop-color="#633b7d"/>
      <stop offset="1.0" stop-color="#471a54"/>
    </radialGradient>
    <radialGradient cx="0" cy="0" gradientTransform="matrix(0.026, 0.0108, 0.0087, -0.0208, 125.8, 42.7)" gradientUnits="userSpaceOnUse" id="gradient39" r="819.2" spreadMethod="pad">
      <stop offset="0.0" stop-color="#9b80a7"/>
      <stop offset="0.16470588235294117" stop-color="#846396"/>
      <stop offset="0.3686274509803922" stop-color="#6c4684"/>
      <stop offset="0.48627450980392156" stop-color="#633b7d"/>
      <stop offset="1.0" stop-color="#471a54"/>
    </radialGradient>
    <radialGradient cx="0" cy="0" gradientTransform="matrix(-0.0346, 0.0083, -0.0053, -0.0219, 235.45, 47.95)" gradientUnits="userSpaceOnUse" id="gradient40" r="819.2" spreadMethod="pad">
      <stop offset="0.0" stop-color="#9b80a7"/>
      <stop offset="0.16470588235294117" stop-color="#846396"/>
      <stop offset="0.3686274509803922" stop-color="#6c4684"/>
      <stop offset="0.48627450980392156" stop-color="#633b7d"/>
      <stop offset="1.0" stop-color="#471a54"/>
    </radialGradient>
    <radialGradient cx="0" cy="0" gradientTransform="matrix(0.0377, 0.0, 0.0, -0.0277, 125.45, 52.35)" gradientUnits="userSpaceOnUse" id="gradient41" r="819.2" spreadMethod="pad">
      <stop offset="0.0" stop-color="#9b80a7"/>
      <stop offset="0.16470588235294117" stop-color="#846396"/>
      <stop offset="0.3686274509803922" stop-color="#6c4684"/>
      <stop offset="0.48627450980392156" stop-color="#633b7d"/>
      <stop offset="1.0" stop-color="#471a54"/>
    </radialGradient>
    <radialGradient cx="0" cy="0" gradientTransform="matrix(0.0136, -0.0222, -0.016, -0.0098, 177.35, 81.5)" gradientUnits="userSpaceOnUse" id="gradient42" r="819.2" spreadMethod="pad">
      <stop offset="0.0" stop-color="#9b80a7"/>
      <stop offset="0.16470588235294117" stop-color="#846396"/>
      <stop offset="0.3686274509803922" stop-color="#6c4684"/>
      <stop offset="0.48627450980392156" stop-color="#633b7d"/>
      <stop offset="1.0" stop-color="#471a54"/>
    </radialGradient>
    <radialGradient cx="0" cy="0" gradientTransform="matrix(0.0441, 0.0, 0.0, -0.032, 126.0, 72.45)" gradientUnits="userSpaceOnUse" id="gradient43" r="819.2" spreadMethod="pad">
      <stop offset="0.0" stop-color="#9b80a7"/>
      <stop offset="0.16470588235294117" stop-color="#84639b"/>
      <stop offset="0.3686274509803922" stop-color="#6c468f"/>
      <stop offset="0.48627450980392156" stop-color="#633b8a"/>
      <stop offset="1.0" stop-color="#471a54"/>
    </radialGradient>
    <radialGradient cx="0" cy="0" gradientTransform="matrix(-0.0492, -0.0071, 0.0044, -0.0305, 227.9, 80.55)" gradientUnits="userSpaceOnUse" id="gradient44" r="819.2" spreadMethod="pad">
      <stop offset="0.0" stop-color="#9b80a7"/>
      <stop offset="0.16470588235294117" stop-color="#846396"/>
      <stop offset="0.3686274509803922" stop-color="#6c4684"/>
      <stop offset="0.48627450980392156" stop-color="#633b7d"/>
      <stop offset="1.0" stop-color="#471a54"/>
    </radialGradient>
    <radialGradient cx="0" cy="0" gradientTransform="matrix(0.0328, 0.0, 0.0, -0.0241, 126.35, 55.9)" gradientUnits="userSpaceOnUse" id="gradient45" r="819.2" spreadMethod="pad">
      <stop offset="0.0" stop-color="#9b80a7"/>
      <stop offset="0.16470588235294117" stop-color="#846396"/>
      <stop offset="0.3686274509803922" stop-color="#6c4684"/>
      <stop offset="0.48627450980392156" stop-color="#633b7d"/>
      <stop offset="1.0" stop-color="#471a54"/>
    </radialGradient>
    <radialGradient cx="0" cy="0" gradientTransform="matrix(-0.0197, -0.0297, 0.0185, -0.0123, 155.5, 79.2)" gradientUnits="userSpaceOnUse" id="gradient46" r="819.2" spreadMethod="pad">
      <stop offset="0.0" stop-color="#9b80a7"/>
      <stop offset="0.16470588235294117" stop-color="#846396"/>
      <stop offset="0.3686274509803922" stop-color="#6c4684"/>
      <stop offset="0.48627450980392156" stop-color="#633b7d"/>
      <stop offset="1.0" stop-color="#471a54"/>
    </radialGradient>
    <radialGradient cx="0" cy="0" gradientTransform="matrix(0.0264, -0.0318, -0.0201, -0.0166, 185.7, 88.8)" gradientUnits="userSpaceOnUse" id="gradient47" r="819.2" spreadMethod="pad">
      <stop offset="0.0" stop-color="#9b80a7"/>
      <stop offset="0.16470588235294117" stop-color="#84639b"/>
      <stop offset="0.3686274509803922" stop-color="#6c468f"/>
      <stop offset="0.48627450980392156" stop-color="#633b8a"/>
      <stop offset="1.0" stop-color="#471a54"/>
    </radialGradient>
    <radialGradient cx="0" cy="0" gradientTransform="matrix(0.0075, 0.0124, 0.0137, -0.0083, 137.1, 32.05)" gradientUnits="userSpaceOnUse" id="gradient48" r="819.2" spreadMethod="pad">
      <stop offset="0.0" stop-color="#9b80a7"/>
      <stop offset="0.16470588235294117" stop-color="#84639b"/>
      <stop offset="0.3686274509803922" stop-color="#6c468f"/>
      <stop offset="0.48627450980392156" stop-color="#633b8a"/>
      <stop offset="1.0" stop-color="#471a54"/>
    </radialGradient>
    <radialGradient cx="0" cy="0" gradientTransform="matrix(0.0303, 0.0018, 0.0017, -0.0296, 159.25, 86.6)" gradientUnits="userSpaceOnUse" id="gradient49" r="819.2" spreadMethod="pad">
      <stop offset="0.0" stop-color="#9b80a7"/>
      <stop offset="0.16470588235294117" stop-color="#84639b"/>
      <stop offset="0.3686274509803922" stop-color="#6c468f"/>
      <stop offset="0.48627450980392156" stop-color="#633b8a"/>
      <stop offset="1.0" stop-color="#471a54"/>
    </radialGradient>
    <radialGradient cx="0" cy="0" gradientTransform="matrix(0.0213, 0.0059, 0.007, -0.025, 145.75, 62.6)" gradientUnits="userSpaceOnUse" id="gradient50" r="819.2" spreadMethod="pad">
      <stop offset="0.0" stop-color="#9b80a7"/>
      <stop offset="0.16470588235294117" stop-color="#84639b"/>
      <stop offset="0.3686274509803922" stop-color="#6c468f"/>
      <stop offset="0.48627450980392156" stop-color="#633b8a"/>
      <stop offset="1.0" stop-color="#471a54"/>
    </radialGradient>
    <radialGradient cx="0" cy="0" gradientTransform="matrix(0.0207, -0.0215, -0.0161, -0.0155, 163.7, 70.55)" gradientUnits="userSpaceOnUse" id="gradient51" r="819.2" spreadMethod="pad">
      <stop offset="0.0" stop-color="#9b80a7"/>
      <stop offset="0.16470588235294117" stop-color="#846396"/>
      <stop offset="0.3686274509803922" stop-color="#6c4684"/>
      <stop offset="0.48627450980392156" stop-color="#633b7d"/>
      <stop offset="1.0" stop-color="#471a54"/>
    </radialGradient>
    <radialGradient cx="0" cy="0" gradientTransform="matrix(0.0232, -0.0166, -0.0174, -0.0243, 210.45, 80.95)" gradientUnits="userSpaceOnUse" id="gradient52" r="819.2" spreadMethod="pad">
      <stop offset="0.0" stop-color="#9b80a7"/>
      <stop offset="0.16470588235294117" stop-color="#846396"/>
      <stop offset="0.3686274509803922" stop-color="#6c4684"/>
      <stop offset="0.48627450980392156" stop-color="#633b7d"/>
      <stop offset="1.0" stop-color="#471a54"/>
    </radialGradient>
    <radialGradient cx="0" cy="0" gradientTransform="matrix(-0.0042, -0.0233, -0.0353, 0.0063, 226.05, 59.5)" gradientUnits="userSpaceOnUse" id="gradient53" r="819.2" spreadMethod="pad">
      <stop offset="0.0" stop-color="#9b80a7"/>
      <stop offset="0.16470588235294117" stop-color="#846396"/>
      <stop offset="0.3686274509803922" stop-color="#6c4684"/>
      <stop offset="0.48627450980392156" stop-color="#633b7d"/>
      <stop offset="1.0" stop-color="#471a54"/>
    </radialGradient>
    <radialGradient cx="0" cy="0" gradientTransform="matrix(-0.0303, -0.0026, 0.0016, -0.0189, 217.55, 65.65)" gradientUnits="userSpaceOnUse" id="gradient54" r="819.2" spreadMethod="pad">
      <stop offset="0.0" stop-color="#9b80a7"/>
      <stop offset="0.16470588235294117" stop-color="#84639b"/>
      <stop offset="0.3686274509803922" stop-color="#6c468f"/>
      <stop offset="0.48627450980392156" stop-color="#633b8a"/>
      <stop offset="1.0" stop-color="#471a54"/>
    </radialGradient>
    <radialGradient cx="0" cy="0" gradientTransform="matrix(0.0184, 0.0011, 0.0018, -0.0307, 159.55, 68.8)" gradientUnits="userSpaceOnUse" id="gradient55" r="819.2" spreadMethod="pad">
      <stop offset="0.0" stop-color="#9b80a7"/>
      <stop offset="0.16470588235294117" stop-color="#84639b"/>
      <stop offset="0.3686274509803922" stop-color="#6c468f"/>
      <stop offset="0.48627450980392156" stop-color="#633b8a"/>
      <stop offset="1.0" stop-color="#471a54"/>
    </radialGradient>
    <radialGradient cx="0" cy="0" gradientTransform="matrix(0.0158, 0.0094, 0.0157, -0.0264, 135.1, 54.0)" gradientUnits="userSpaceOnUse" id="gradient56" r="819.2" spreadMethod="pad">
      <stop offset="0.0" stop-color="#9b80a7"/>
      <stop offset="0.16470588235294117" stop-color="#84639b"/>
      <stop offset="0.3686274509803922" stop-color="#6c468f"/>
      <stop offset="0.48627450980392156" stop-color="#633b8a"/>
      <stop offset="1.0" stop-color="#471a54"/>
    </radialGradient>
    <radialGradient cx="0" cy="0" gradientTransform="matrix(-0.0195, 0.0066, -0.0099, -0.0291, 216.2, 62.65)" gradientUnits="userSpaceOnUse" id="gradient57" r="819.2" spreadMethod="pad">
      <stop offset="0.0" stop-color="#9b80a7"/>
      <stop offset="0.16470588235294117" stop-color="#84639b"/>
      <stop offset="0.3686274509803922" stop-color="#6c468f"/>
      <stop offset="0.48627450980392156" stop-color="#633b8a"/>
      <stop offset="1.0" stop-color="#471a54"/>
    </radialGradient>
    <radialGradient cx="0" cy="0" gradientTransform="matrix(-0.0101, 0.0114, -0.0186, -0.0166, 230.8, 46.95)" gradientUnits="userSpaceOnUse" id="gradient58" r="819.2" spreadMethod="pad">
      <stop offset="0.0" stop-color="#9b80a7"/>
      <stop offset="0.16470588235294117" stop-color="#84639b"/>
      <stop offset="0.3686274509803922" stop-color="#6c468f"/>
      <stop offset="0.48627450980392156" stop-color="#633b8a"/>
      <stop offset="1.0" stop-color="#471a54"/>
    </radialGradient>
    <radialGradient cx="0" cy="0" gradientTransform="matrix(-0.0204, -0.0174, 0.0126, -0.0147, 194.25, 79.15)" gradientUnits="userSpaceOnUse" id="gradient59" r="819.2" spreadMethod="pad">
      <stop offset="0.0" stop-color="#9b80a7"/>
      <stop offset="0.16470588235294117" stop-color="#846396"/>
      <stop offset="0.3686274509803922" stop-color="#6c4684"/>
      <stop offset="0.48627450980392156" stop-color="#633b7d"/>
      <stop offset="1.0" stop-color="#471a54"/>
    </radialGradient>
    <radialGradient cx="0" cy="0" gradientTransform="matrix(-0.0316, -0.0036, 0.0031, -0.0271, 194.35, 67.85)" gradientUnits="userSpaceOnUse" id="gradient60" r="819.2" spreadMethod="pad">
      <stop offset="0.0" stop-color="#9b80a7"/>
      <stop offset="0.16470588235294117" stop-color="#84639b"/>
      <stop offset="0.3686274509803922" stop-color="#6c468f"/>
      <stop offset="0.48627450980392156" stop-color="#633b8a"/>
      <stop offset="1.0" stop-color="#471a54"/>
    </radialGradient>
    <radialGradient cx="0" cy="0" gradientTransform="matrix(-0.0322, -0.014, 0.0117, -0.0268, 183.4, 66.8)" gradientUnits="userSpaceOnUse" id="gradient61" r="819.2" spreadMethod="pad">
      <stop offset="0.0" stop-color="#9b80a7"/>
      <stop offset="0.16470588235294117" stop-color="#846396"/>
      <stop offset="0.3686274509803922" stop-color="#6c4684"/>
      <stop offset="0.48627450980392156" stop-color="#633b7d"/>
      <stop offset="1.0" stop-color="#471a54"/>
    </radialGradient>
    <radialGradient cx="0" cy="0" gradientTransform="matrix(0.0146, -0.0049, -0.0088, -0.0264, 193.65, 65.3)" gradientUnits="userSpaceOnUse" id="gradient62" r="819.2" spreadMethod="pad">
      <stop offset="0.0" stop-color="#9b80a7"/>
      <stop offset="0.16470588235294117" stop-color="#84639b"/>
      <stop offset="0.3686274509803922" stop-color="#6c468f"/>
      <stop offset="0.48627450980392156" stop-color="#633b8a"/>
      <stop offset="1.0" stop-color="#471a54"/>
    </radialGradient>
    <radialGradient cx="0" cy="0" gradientTransform="matrix(0.0127, 0.0024, 0.0042, -0.0221, 154.95, 45.55)" gradientUnits="userSpaceOnUse" id="gradient63" r="819.2" spreadMethod="pad">
      <stop offset="0.0" stop-color="#9b80a7"/>
      <stop offset="0.16470588235294117" stop-color="#84639b"/>
      <stop offset="0.3686274509803922" stop-color="#6c468f"/>
      <stop offset="0.48627450980392156" stop-color="#633b8a"/>
      <stop offset="1.0" stop-color="#471a54" stop-opacity="0.0"/>
    </radialGradient>
    <radialGradient cx="0" cy="0" gradientTransform="matrix(-0.0136, 0.0071, -0.0121, -0.023, 217.1, 46.8)" gradientUnits="userSpaceOnUse" id="gradient64" r="819.2" spreadMethod="pad">
      <stop offset="0.0" stop-color="#9b80a7"/>
      <stop offset="0.16470588235294117" stop-color="#84639b"/>
      <stop offset="0.3686274509803922" stop-color="#6c468f"/>
      <stop offset="0.48627450980392156" stop-color="#633b8a"/>
      <stop offset="1.0" stop-color="#471a54" stop-opacity="0.0"/>
    </radialGradient>
    <radialGradient cx="0" cy="0" gradientTransform="matrix(0.0088, -0.0079, -0.0109, -0.0122, 204.65, 53.5)" gradientUnits="userSpaceOnUse" id="gradient65" r="819.2" spreadMethod="pad">
      <stop offset="0.0" stop-color="#9b80a7"/>
      <stop offset="0.16470588235294117" stop-color="#84639b"/>
      <stop offset="0.3686274509803922" stop-color="#6c468f"/>
      <stop offset="0.48627450980392156" stop-color="#633b8a"/>
      <stop offset="1.0" stop-color="#471a54"/>
    </radialGradient>
    <radialGradient cx="0" cy="0" gradientTransform="matrix(0.0118, -9.0E-4, -0.0013, -0.0163, 165.15, 51.5)" gradientUnits="userSpaceOnUse" id="gradient66" r="819.2" spreadMethod="pad">
      <stop offset="0.0" stop-color="#9b80a7"/>
      <stop offset="0.16470588235294117" stop-color="#84639b"/>
      <stop offset="0.3686274509803922" stop-color="#6c468f"/>
      <stop offset="0.48627450980392156" stop-color="#633b8a"/>
      <stop offset="1.0" stop-color="#471a54"/>
    </radialGradient>
  </defs>
</svg>
