<?xml version="1.0" encoding="UTF-8" standalone="no"?>
<svg xmlns:xlink="http://www.w3.org/1999/xlink" height="101.55px" width="82.85px" xmlns="http://www.w3.org/2000/svg">
  <g transform="matrix(1.0, 0.0, 0.0, 1.0, 0.0, 0.0)">
    <use height="101.55" transform="matrix(1.0, 0.0, 0.0, 1.0, 0.0, 0.0)" width="82.85" xlink:href="#shape0"/>
  </g>
  <defs>
    <g id="shape0" transform="matrix(1.0, 0.0, 0.0, 1.0, 0.0, 0.0)">
      <path d="M77.3 49.7 Q82.85 75.45 82.85 101.55 L0.35 101.05 Q-1.0 76.55 3.1 51.7 11.35 1.95 38.85 0.05 66.3 -1.8 77.3 49.7" fill="#554d3d" fill-rule="evenodd" stroke="none"/>
      <path d="M12.0 94.7 Q11.0 74.45 13.5 53.9 18.55 12.8 36.0 11.35 61.4 9.3 69.25 52.8 73.15 74.55 72.0 96.7 L12.0 94.7" fill="url(#gradient0)" fill-rule="evenodd" stroke="none"/>
    </g>
    <linearGradient gradientTransform="matrix(8.0E-4, 0.1883, 0.1883, -8.0E-4, 41.85, 59.55)" gradientUnits="userSpaceOnUse" id="gradient0" spreadMethod="pad" x1="-819.2" x2="819.2">
      <stop offset="0.0" stop-color="#deb96b"/>
      <stop offset="1.0" stop-color="#d8e8d9"/>
    </linearGradient>
  </defs>
</svg>
