<?xml version="1.0" encoding="UTF-8" standalone="no"?>
<svg xmlns:xlink="http://www.w3.org/1999/xlink" height="61.75px" width="64.7px" xmlns="http://www.w3.org/2000/svg">
  <g transform="matrix(1.0, 0.0, 0.0, 1.0, 0.0, 0.0)">
    <use height="16.0" transform="matrix(-0.963, -0.0264, 0.0246, -1.0549, 64.3, 83.25)" width="66.75" xlink:href="#sprite0"/>
    <use height="8.65" transform="matrix(-0.5426, -0.0149, 0.0108, -0.4648, 54.85, 76.1)" width="20.35" xlink:href="#sprite1"/>
    <use height="8.65" transform="matrix(-0.5426, -0.0149, 0.0108, -0.4648, 45.8, 78.85)" width="20.35" xlink:href="#sprite1"/>
    <use height="8.65" transform="matrix(-0.5417, 0.036, -0.0262, -0.4641, 33.75, 77.55)" width="20.35" xlink:href="#sprite1"/>
    <use height="8.65" transform="matrix(-0.5417, 0.036, -0.0262, -0.4641, 24.4, 75.9)" width="20.35" xlink:href="#sprite1"/>
    <use height="56.15" transform="matrix(1.0, 0.0, 0.0, 1.0, 2.8, 21.5)" width="61.0" xlink:href="#shape2"/>
    <use height="6.35" transform="matrix(1.0, 0.0, 0.0, 1.0, 15.25, 49.1)" width="6.0" xlink:href="#sprite2"/>
    <use height="6.35" transform="matrix(1.0, 0.0, 0.0, 1.0, 43.3, 49.3)" width="5.95" xlink:href="#sprite3"/>
    <use height="27.55" transform="matrix(1.0, 0.0, 0.0, 1.0, 9.3, 31.95)" width="44.0" xlink:href="#shape6"/>
    <use height="0.0" id="price_tag_pt" transform="matrix(1.0, 0.0, 0.0, 1.0, 32.45, 77.65)" width="0.0" xlink:href="#sprite4"/>
  </g>
  <defs>
    <g id="sprite0" transform="matrix(1.0, 0.0, 0.0, 1.0, 0.0, 0.0)">
      <use height="16.0" transform="matrix(1.0, 0.0, 0.0, 1.0, 0.0, 0.0)" width="66.75" xlink:href="#shape0"/>
    </g>
    <g id="shape0" transform="matrix(1.0, 0.0, 0.0, 1.0, 0.0, 0.0)">
      <path d="M66.75 8.0 Q66.75 11.3 57.0 13.65 47.2 16.0 33.4 16.0 19.6 16.0 9.8 13.65 0.0 11.3 0.0 8.0 0.0 4.65 9.8 2.35 19.55 0.0 33.4 0.0 47.25 0.0 57.0 2.35 66.75 4.65 66.75 8.0" fill="url(#gradient0)" fill-rule="evenodd" stroke="none"/>
    </g>
    <radialGradient cx="0" cy="0" gradientTransform="matrix(0.0305, 0.0, 0.0, -0.0102, 33.4, 8.0)" gradientUnits="userSpaceOnUse" id="gradient0" r="819.2" spreadMethod="pad">
      <stop offset="0.0" stop-color="#231f20"/>
      <stop offset="0.09019607843137255" stop-color="#231f20" stop-opacity="0.79607844"/>
      <stop offset="1.0" stop-color="#231f20" stop-opacity="0.0"/>
    </radialGradient>
    <g id="sprite1" transform="matrix(1.0, 0.0, 0.0, 1.0, 0.0, 0.0)">
      <use height="8.65" transform="matrix(1.0, 0.0, 0.0, 1.0, 0.0, 0.0)" width="20.35" xlink:href="#shape1"/>
    </g>
    <g id="shape1" transform="matrix(1.0, 0.0, 0.0, 1.0, 0.0, 0.0)">
      <path d="M20.35 4.3 Q20.35 6.1 17.35 7.4 14.4 8.65 10.15 8.65 5.95 8.65 3.0 7.4 0.0 6.1 0.0 4.3 0.0 2.55 3.0 1.25 5.95 0.0 10.15 0.0 14.4 0.0 17.35 1.25 20.35 2.55 20.35 4.3" fill="#4f4f4f" fill-rule="evenodd" stroke="none"/>
    </g>
    <g id="shape2" transform="matrix(1.0, 0.0, 0.0, 1.0, -2.8, -21.5)">
      <path d="M41.3 62.25 L39.85 67.15 Q40.0 70.0 40.6 71.25 41.75 73.6 45.65 76.35 L42.7 77.15 37.75 76.85 Q36.05 76.0 35.4 74.95 L35.05 74.1 Q33.25 71.1 33.0 68.05 L32.65 64.3 31.75 68.7 Q31.45 71.7 29.5 75.0 28.25 76.0 25.5 77.25 23.8 78.05 21.75 77.2 L20.05 76.15 Q21.05 75.8 22.2 75.05 24.55 73.45 25.35 71.25 25.9 69.65 25.25 65.65 L24.95 65.2 24.1 67.0 23.35 68.3 21.6 71.45 Q21.05 73.35 19.2 74.45 L12.8 74.35 Q11.1 74.3 9.55 71.1 L8.35 67.9 10.8 68.95 15.05 69.05 Q16.6 68.25 15.9 64.7 L14.9 61.35 17.85 61.6 13.85 53.35 46.0 57.0 46.35 60.75 51.05 61.1 50.55 65.6 Q50.4 70.3 52.1 71.15 53.8 72.0 56.15 70.2 L58.2 68.25 57.5 71.25 Q56.55 74.3 55.4 74.7 L53.15 75.15 52.3 75.15 46.55 74.7 46.35 74.15 Q43.75 71.8 42.25 66.8 L41.3 62.25" fill="#a6ab57" fill-rule="evenodd" stroke="none"/>
      <path d="M50.3 65.2 L50.6 65.3 Q50.3 70.2 52.1 71.15 53.8 72.0 56.15 70.2 L58.2 68.25 57.5 71.25 Q56.55 74.3 55.4 74.7 L53.15 75.15 52.3 75.15 46.55 74.7 46.35 74.15 Q42.95 70.95 41.6 64.2 L50.3 65.2" fill="#91914e" fill-rule="evenodd" stroke="none"/>
      <path d="M45.05 75.9 L45.5 76.45 Q44.5 76.95 42.2 77.25 39.3 77.65 37.75 76.85 36.05 76.0 35.4 74.95 L35.05 74.1 Q33.25 71.1 33.0 68.05 L32.8 65.85 40.3 65.45 39.85 67.15 Q40.0 70.0 40.6 71.25 41.5 73.15 45.05 75.9" fill="#9c9e51" fill-rule="evenodd" stroke="none"/>
      <path d="M41.3 62.25 L39.85 67.15 Q40.0 70.0 40.6 71.25 41.75 73.6 45.65 76.35 L42.7 77.15 37.75 76.85 Q36.05 76.0 35.4 74.95 L35.05 74.1 Q33.25 71.1 33.0 68.05 L32.65 64.3 31.75 68.7 Q31.45 71.7 29.5 75.0 28.25 76.0 25.5 77.25 23.8 78.05 21.75 77.2 L20.05 76.15 Q21.1 75.8 22.25 75.05 24.65 73.45 25.35 71.25 25.9 69.5 25.25 65.65 L24.95 65.2 Q24.75 66.1 24.05 67.0 L23.25 68.3 Q22.8 69.75 21.6 71.6 21.05 73.5 19.2 74.45 L12.8 74.35 Q11.1 74.3 9.55 71.1 L8.35 67.9 10.8 68.95 15.05 69.05 Q16.6 68.25 15.9 64.7 L14.9 61.35 17.85 61.6 13.85 53.35 46.0 57.0 46.35 60.75 51.05 61.1 50.55 65.6 Q50.4 70.3 52.1 71.15 53.8 72.0 56.15 70.2 L58.2 68.25 57.5 71.25 Q56.55 74.3 55.4 74.7 L53.15 75.15 52.3 75.15 46.55 74.7 46.35 74.15 Q43.75 71.8 42.25 66.8 L41.3 62.25" fill="url(#gradient1)" fill-rule="evenodd" stroke="none"/>
      <path d="M22.05 65.0 L25.25 65.65 23.05 69.7 Q20.65 73.85 19.35 74.4 L16.8 74.7 12.8 74.35 Q11.15 74.0 10.45 72.75 L10.05 71.55 14.05 71.85 Q18.25 72.0 19.4 71.2 20.55 70.45 21.4 67.65 L22.05 65.0" fill="#87893e" fill-rule="evenodd" stroke="none"/>
      <path d="M30.25 65.0 L32.65 64.3 31.15 75.7 Q31.0 77.1 27.15 77.45 L23.35 77.55 25.9 75.95 Q28.55 74.05 29.15 72.65 29.8 71.3 30.1 68.0 L30.25 65.0" fill="#7f843c" fill-rule="evenodd" stroke="none"/>
      <path d="M32.85 65.85 L35.65 65.7 Q34.95 66.7 34.95 69.8 L35.15 72.2 35.25 74.35 35.05 74.1 Q33.25 71.1 33.0 68.05 L32.8 65.9 32.85 65.85" fill="#6c7424" fill-rule="evenodd" stroke="none"/>
      <path d="M50.3 65.2 L50.6 65.3 Q50.5 67.0 50.9 67.8 51.25 68.45 52.3 69.2 L55.5 69.05 58.15 68.35 Q56.7 69.85 54.35 71.35 51.35 73.25 50.1 72.6 48.55 71.8 47.45 68.45 L46.65 65.25 48.45 65.0 50.3 65.2" fill="#6c7424" fill-rule="evenodd" stroke="none"/>
      <path d="M38.15 75.75 L45.5 76.45 Q44.5 76.95 42.2 77.25 39.3 77.65 37.75 76.85 36.05 76.0 35.4 74.95 L34.35 72.7 34.4 72.5 35.6 74.05 Q37.05 75.6 38.15 75.75" fill="#6c7424" fill-rule="evenodd" stroke="none"/>
      <path d="M53.15 75.15 L47.9 75.05 Q46.45 74.5 46.35 74.15 45.15 73.0 42.85 68.6 L45.05 70.6 Q46.75 72.05 48.1 72.7 49.7 73.55 52.55 73.95 L56.2 74.15 55.7 74.55 55.3 74.7 53.15 75.15" fill="#6c7424" fill-rule="evenodd" stroke="none"/>
      <path d="M16.1 65.65 L16.15 64.4 25.05 64.6 24.55 65.75 19.95 65.35 17.5 65.45 16.1 65.65" fill="#6f7639" fill-rule="evenodd" stroke="none"/>
      <path d="M24.55 65.75 L25.05 64.6 32.75 63.75 32.05 65.9 29.05 66.35 26.2 66.05 24.55 65.75" fill="#6f7639" fill-rule="evenodd" stroke="none"/>
      <path d="M40.65 64.1 L40.05 65.75 Q39.8 66.55 37.5 66.5 L34.35 66.2 32.75 65.95 32.75 63.75 40.65 64.1" fill="#6f7639" fill-rule="evenodd" stroke="none"/>
      <path d="M42.1 65.35 L41.45 64.05 50.55 64.1 50.3 65.2 Q48.7 66.1 47.3 66.05 L44.2 65.7 42.1 65.35" fill="#6f7639" fill-rule="evenodd" stroke="none"/>
      <path d="M8.35 67.9 L10.95 69.6 Q13.75 71.3 15.0 71.55 L19.4 71.2 Q15.25 73.4 13.6 73.35 L11.5 73.2 Q10.65 73.05 10.25 72.45 L9.1 69.85 8.35 67.9" fill="#c2c460" fill-rule="evenodd" stroke="none"/>
      <path d="M49.05 71.75 Q52.85 72.3 54.65 71.35 56.5 70.4 58.2 68.25 L57.6 71.05 Q56.7 73.95 55.5 74.3 54.65 74.55 54.45 74.3 54.15 73.9 53.1 73.8 51.75 73.7 50.25 72.7 L49.05 71.75" fill="#a5a553" fill-rule="evenodd" stroke="none"/>
      <path d="M40.6 71.25 Q41.2 72.45 42.75 73.9 L45.5 76.45 41.2 75.85 Q38.65 75.2 38.05 74.5 35.7 71.95 37.55 69.85 L39.85 68.2 40.0 68.65 Q40.15 70.4 40.6 71.25" fill="#adab59" fill-rule="evenodd" stroke="none"/>
      <path d="M28.15 74.0 Q27.35 75.4 26.4 76.05 25.5 76.65 24.15 76.9 23.1 77.1 21.85 76.5 L20.85 75.85 Q23.75 74.4 24.7 72.55 L25.7 70.0 26.0 68.75 27.5 70.65 Q28.85 72.75 28.15 74.0" fill="#c2c460" fill-rule="evenodd" stroke="none"/>
      <path d="M21.9 76.5 L23.35 76.15 25.8 75.45 Q27.2 75.0 29.2 72.4 28.15 75.05 26.6 75.85 25.05 76.65 21.9 76.5" fill="#ffff91" fill-rule="evenodd" stroke="none"/>
      <path d="M9.3 68.9 L12.9 70.6 19.4 71.2 18.95 71.25 Q15.35 71.6 13.7 71.35 12.35 71.15 10.7 70.0 L9.3 68.9" fill="#ffff91" fill-rule="evenodd" stroke="none"/>
      <path d="M37.7 73.4 L39.4 75.0 41.25 75.85 38.75 75.4 Q37.45 75.05 37.0 73.65 L36.8 72.3 37.7 73.4" fill="#c2c460" fill-rule="evenodd" stroke="none"/>
      <path d="M49.5 71.9 L50.75 72.05 53.6 71.4 Q54.65 71.15 58.35 68.2 56.9 70.5 54.7 71.45 52.95 72.15 50.75 72.05 L49.95 72.2 49.5 71.9" fill="#c2c460" fill-rule="evenodd" stroke="none"/>
      <path d="M19.35 65.15 L18.65 66.8 Q17.75 68.6 16.85 69.4 16.2 70.05 14.95 69.9 L13.15 69.4 Q14.2 69.5 15.05 69.05 15.85 68.6 16.0 67.9 L16.0 65.8 16.1 65.65 19.35 65.15" fill="#939345" fill-rule="evenodd" stroke="none"/>
      <path d="M14.75 22.5 Q16.55 21.35 32.45 21.55 L50.35 22.2 Q52.4 22.5 56.45 27.05 60.2 31.35 60.7 33.2 61.05 34.55 58.65 49.5 L56.15 64.2 10.0 64.25 Q5.65 36.3 6.3 32.4 6.75 29.85 10.0 26.5 12.35 24.05 14.75 22.5" fill="#a6ab57" fill-rule="evenodd" stroke="none"/>
      <path d="M14.75 22.5 Q16.55 21.35 32.45 21.55 L50.35 22.2 Q52.4 22.5 56.45 27.05 60.2 31.35 60.7 33.2 61.05 34.55 58.65 49.5 L56.15 64.2 10.05 63.6 7.95 49.45 Q5.9 34.85 6.3 32.4 6.75 29.85 10.0 26.5 12.35 24.05 14.75 22.5" fill="url(#gradient2)" fill-rule="evenodd" stroke="none"/>
      <path d="M14.75 22.5 L33.0 21.6 50.35 22.2 Q51.85 22.45 57.2 26.45 L63.15 31.15 Q64.0 31.9 63.75 33.6 63.55 35.1 62.75 36.5 61.8 38.15 4.5 37.3 3.05 37.25 2.85 34.75 2.65 32.55 3.3 30.95 3.7 29.9 9.25 26.1 L14.75 22.5" fill="#c0c55e" fill-rule="evenodd" stroke="none"/>
      <path d="M14.75 22.5 L33.0 21.6 50.35 22.2 Q51.85 22.45 57.2 26.45 L63.15 31.15 Q64.0 31.9 63.75 33.6 63.55 35.1 62.75 36.5 61.8 38.15 4.5 37.3 3.05 37.25 2.85 34.75 2.65 32.55 3.3 30.95 3.7 29.9 9.25 26.1 L14.75 22.5" fill="url(#gradient3)" fill-rule="evenodd" stroke="none"/>
      <path d="M6.65 37.35 L34.85 36.75 60.3 36.8 59.9 39.7 34.4 38.7 Q25.55 38.7 21.2 38.85 L6.9 39.7 6.65 37.35" fill="#6f7639" fill-rule="evenodd" stroke="none"/>
      <path d="M4.5 37.3 Q3.3 37.25 2.95 35.25 2.65 33.5 3.05 31.85 L6.65 31.35 Q10.2 31.15 32.8 31.15 56.15 31.15 63.4 31.45 64.0 32.3 63.7 33.85 63.5 35.2 62.75 36.5 61.8 38.15 4.5 37.3" fill="#b7bb64" fill-rule="evenodd" stroke="none"/>
      <path d="M34.0 37.85 L4.5 37.3 Q3.3 37.25 2.95 35.25 2.65 33.5 3.05 31.85 L6.65 31.35 Q10.2 31.15 32.8 31.15 56.15 31.15 63.4 31.45 64.0 32.3 63.6 34.2 63.3 35.85 62.55 37.2 61.95 38.2 34.0 37.85" fill="url(#gradient4)" fill-rule="evenodd" stroke="none"/>
      <path d="M4.1 30.35 L5.8 30.75 12.65 31.3 Q19.45 31.45 21.6 32.25 L8.05 31.65 3.05 31.85 3.3 30.95 4.1 30.35" fill="#ffff91" fill-rule="evenodd" stroke="none"/>
      <path d="M51.3 32.25 Q57.9 31.9 59.75 31.25 60.9 30.9 60.5 30.0 L59.9 29.2 Q64.3 32.0 62.45 32.0 L51.3 32.25" fill="#ffff91" fill-rule="evenodd" stroke="none"/>
      <path d="M54.25 44.8 Q55.65 44.85 54.7 52.5 53.75 59.85 52.85 61.1 52.25 61.95 33.25 61.4 L13.05 60.45 Q11.75 60.1 10.75 52.35 9.8 44.6 11.05 44.45 L19.3 44.35 Q27.2 44.35 31.15 44.5 43.5 44.85 54.25 44.8" fill="#6c7424" fill-rule="evenodd" stroke="none"/>
      <path d="M53.2 46.25 Q54.55 46.3 53.65 53.0 52.8 59.4 51.9 60.5 51.3 61.25 33.15 60.75 L13.85 59.85 Q12.6 59.6 11.6 52.8 10.65 46.05 11.85 45.9 14.7 45.6 53.2 46.25" fill="url(#gradient5)" fill-rule="evenodd" stroke="none"/>
      <path d="M54.25 44.8 Q54.0 46.15 53.2 46.25 L45.95 46.05 38.75 45.7 31.1 45.3 11.85 45.9 11.05 44.45 12.35 44.5 21.3 44.5 31.15 44.5 Q43.5 44.85 54.25 44.8" fill="#646834" fill-rule="evenodd" stroke="none"/>
      <path d="M43.7 46.6 L25.25 46.8 16.6 46.45 12.95 46.05 11.25 45.8 25.6 46.1 31.2 45.8 37.05 45.6 42.75 45.85 47.85 46.1 Q49.55 46.3 53.45 46.15 L43.7 46.6" fill="#b1b758" fill-rule="evenodd" stroke="none"/>
      <path d="M52.15 59.9 L53.1 60.45 53.1 60.5 33.5 61.4 Q15.1 61.4 13.3 61.0 L13.0 60.8 13.5 60.35 30.7 60.05 39.0 60.3 47.45 60.4 52.15 59.9" fill="#898930" fill-rule="evenodd" stroke="none"/>
      <path d="M40.7 61.55 L34.8 61.8 Q29.4 62.1 27.45 61.9 L19.15 61.55 13.3 61.45 20.15 61.4 Q27.35 61.35 29.05 61.45 L42.3 61.3 Q45.05 61.2 53.1 61.25 L40.7 61.55" fill="#ffff91" fill-rule="evenodd" stroke="none"/>
      <path d="M23.0 54.95 Q23.05 56.85 21.8 58.25 20.55 59.6 18.8 59.65 17.05 59.7 15.8 58.35 14.55 57.0 14.5 55.1 14.45 53.2 15.7 51.8 16.95 50.45 18.7 50.4 20.45 50.35 21.7 51.7 22.95 53.05 23.0 54.95" fill="url(#gradient6)" fill-rule="evenodd" stroke="none"/>
    </g>
    <linearGradient gradientTransform="matrix(-0.0024, 0.0083, 0.0083, 0.0024, 33.75, 66.8)" gradientUnits="userSpaceOnUse" id="gradient1" spreadMethod="pad" x1="-819.2" x2="819.2">
      <stop offset="0.0" stop-color="#7d8040"/>
      <stop offset="0.2627450980392157" stop-color="#868a44" stop-opacity="0.8235294"/>
      <stop offset="0.7019607843137254" stop-color="#9ea34f" stop-opacity="0.36078432"/>
      <stop offset="0.984313725490196" stop-color="#b1b758" stop-opacity="0.0"/>
    </linearGradient>
    <linearGradient gradientTransform="matrix(-3.0E-4, 0.0158, 0.0158, 3.0E-4, 33.15, 50.5)" gradientUnits="userSpaceOnUse" id="gradient2" spreadMethod="pad" x1="-819.2" x2="819.2">
      <stop offset="0.0" stop-color="#898c46"/>
      <stop offset="0.3215686274509804" stop-color="#92964a"/>
      <stop offset="0.8549019607843137" stop-color="#aaaf55"/>
      <stop offset="0.9921568627450981" stop-color="#b1b758"/>
    </linearGradient>
    <radialGradient cx="0" cy="0" gradientTransform="matrix(0.0643, 0.0013, 5.0E-4, -0.0238, 31.05, 27.0)" gradientUnits="userSpaceOnUse" id="gradient3" r="819.2" spreadMethod="pad">
      <stop offset="0.0" stop-color="#d8de6a"/>
      <stop offset="1.0" stop-color="#898c46"/>
    </radialGradient>
    <linearGradient gradientTransform="matrix(1.0E-4, -0.0047, -0.0047, -1.0E-4, 33.2, 36.6)" gradientUnits="userSpaceOnUse" id="gradient4" spreadMethod="pad" x1="-819.2" x2="819.2">
      <stop offset="0.0" stop-color="#898c46"/>
      <stop offset="0.23137254901960785" stop-color="#92964a"/>
      <stop offset="0.615686274509804" stop-color="#aaaf55"/>
      <stop offset="1.0" stop-color="#c8cf63"/>
    </linearGradient>
    <linearGradient gradientTransform="matrix(-8.0E-4, 0.0153, 0.0153, 8.0E-4, 32.55, 50.0)" gradientUnits="userSpaceOnUse" id="gradient5" spreadMethod="pad" x1="-819.2" x2="819.2">
      <stop offset="0.0" stop-color="#898c46"/>
      <stop offset="0.3215686274509804" stop-color="#92964a"/>
      <stop offset="0.8549019607843137" stop-color="#aaaf55"/>
      <stop offset="0.9921568627450981" stop-color="#b1b758"/>
    </linearGradient>
    <radialGradient cx="0" cy="0" gradientTransform="matrix(0.0054, -1.0E-4, -1.0E-4, -0.0054, 18.75, 55.0)" gradientUnits="userSpaceOnUse" id="gradient6" r="819.2" spreadMethod="pad">
      <stop offset="0.0" stop-color="#231f20"/>
      <stop offset="1.0" stop-color="#231f20" stop-opacity="0.0"/>
    </radialGradient>
    <g id="sprite2" transform="matrix(1.0, 0.0, 0.0, 1.0, 0.05, 0.0)">
      <clipPath id="clipPath0" transform="matrix(1.0, 0.0, 0.0, 1.0, 0.05, 0.0)">
        <use height="5.85" transform="matrix(1.0, 0.0, 0.0, 1.0, 0.3, 0.45)" width="5.5" xlink:href="#shape3"/>
      </clipPath>
      <g clip-path="url(#clipPath0)">
        <use height="6.35" transform="matrix(1.0, 0.0, 0.0, 1.0, -0.05, 0.0)" width="6.0" xlink:href="#shape4"/>
      </g>
    </g>
    <g id="shape3" transform="matrix(1.0, 0.0, 0.0, 1.0, -0.3, -0.45)">
      <path d="M0.3 3.45 Q0.3 2.2 1.1 1.35 1.85 0.5 3.0 0.45 4.15 0.45 5.0 1.3 5.8 2.15 5.8 3.35 5.85 4.55 5.05 5.45 4.25 6.3 3.1 6.3 2.0 6.35 1.15 5.5 0.35 4.65 0.3 3.45" fill="#ff0000" fill-rule="evenodd" stroke="none"/>
    </g>
    <g id="shape4" transform="matrix(1.0, 0.0, 0.0, 1.0, 0.05, 0.0)">
      <path d="M0.25 0.5 L5.75 0.45 5.85 6.25 0.35 6.35 0.25 0.5" fill="#444a34" fill-rule="evenodd" stroke="none"/>
      <path d="M0.0 2.35 Q0.25 1.15 1.25 0.45 2.3 -0.2 3.5 0.1 4.75 0.4 5.45 1.5 6.15 2.6 5.9 3.85 5.7 5.05 4.65 5.7 3.65 6.35 2.45 6.05 1.2 5.75 0.5 4.65 -0.2 3.55 0.0 2.35" fill="#444a34" fill-rule="evenodd" stroke="none"/>
      <path d="M0.05 2.35 Q0.25 1.1 1.25 0.45 2.3 -0.2 3.5 0.1 4.75 0.4 5.45 1.5 6.15 2.6 5.9 3.85 5.65 5.05 4.65 5.7 3.65 6.35 2.45 6.05 1.2 5.75 0.5 4.65 -0.2 3.55 0.05 2.35" fill="#434933" fill-rule="evenodd" stroke="none"/>
      <path d="M0.05 2.35 Q0.25 1.1 1.3 0.45 2.3 -0.2 3.5 0.1 4.75 0.4 5.4 1.5 6.1 2.6 5.9 3.85 5.65 5.05 4.65 5.7 3.65 6.35 2.45 6.05 1.2 5.75 0.5 4.65 -0.2 3.55 0.05 2.35" fill="#424833" fill-rule="evenodd" stroke="none"/>
      <path d="M0.05 2.35 Q0.25 1.1 1.3 0.45 2.3 -0.2 3.5 0.1 4.75 0.4 5.4 1.5 6.1 2.6 5.9 3.8 5.65 5.0 4.65 5.7 3.65 6.35 2.45 6.05 1.2 5.75 0.5 4.65 -0.2 3.55 0.05 2.35" fill="#414732" fill-rule="evenodd" stroke="none"/>
      <path d="M0.05 2.35 Q0.25 1.1 1.3 0.45 2.3 -0.2 3.5 0.1 4.75 0.4 5.4 1.5 6.1 2.6 5.9 3.8 5.65 5.0 4.65 5.7 3.65 6.35 2.45 6.05 1.2 5.75 0.5 4.65 -0.2 3.55 0.05 2.35" fill="#404631" fill-rule="evenodd" stroke="none"/>
      <path d="M0.5 4.65 Q-0.15 3.55 0.05 2.35 0.3 1.15 1.3 0.45 2.3 -0.2 3.5 0.1 4.75 0.4 5.4 1.5 6.1 2.6 5.9 3.8 5.65 5.0 4.65 5.7 3.65 6.35 2.45 6.05 1.2 5.75 0.5 4.65" fill="#3f4530" fill-rule="evenodd" stroke="none"/>
      <path d="M0.5 4.65 Q-0.15 3.55 0.05 2.35 0.3 1.15 1.3 0.45 2.3 -0.2 3.5 0.1 4.75 0.4 5.4 1.5 6.1 2.6 5.9 3.8 5.65 5.0 4.65 5.7 3.65 6.35 2.45 6.05 1.2 5.75 0.5 4.65" fill="#3e4430" fill-rule="evenodd" stroke="none"/>
      <path d="M0.5 4.65 Q-0.15 3.55 0.05 2.35 0.3 1.15 1.3 0.45 2.3 -0.2 3.5 0.1 4.75 0.4 5.4 1.5 6.1 2.6 5.9 3.8 5.65 5.0 4.65 5.7 3.65 6.35 2.45 6.05 1.2 5.75 0.5 4.65" fill="#3d432f" fill-rule="evenodd" stroke="none"/>
      <path d="M0.55 4.65 Q-0.15 3.55 0.05 2.35 0.3 1.15 1.3 0.45 2.3 -0.2 3.5 0.1 4.7 0.4 5.4 1.5 6.1 2.6 5.9 3.8 5.65 5.0 4.65 5.7 3.65 6.35 2.45 6.05 1.2 5.75 0.55 4.65" fill="#3c422e" fill-rule="evenodd" stroke="none"/>
      <path d="M0.55 4.65 Q-0.15 3.55 0.05 2.35 0.3 1.15 1.3 0.45 2.3 -0.2 3.5 0.1 4.7 0.4 5.4 1.5 6.1 2.6 5.9 3.8 5.65 5.0 4.65 5.65 3.65 6.35 2.45 6.05 1.25 5.75 0.55 4.65" fill="#3b412d" fill-rule="evenodd" stroke="none"/>
      <path d="M0.55 4.65 Q-0.15 3.55 0.05 2.35 0.3 1.15 1.3 0.45 2.3 -0.2 3.5 0.1 4.7 0.4 5.4 1.5 6.1 2.6 5.85 3.8 5.65 5.0 4.65 5.65 3.65 6.35 2.45 6.05 1.25 5.75 0.55 4.65" fill="#3a3f2d" fill-rule="evenodd" stroke="none"/>
      <path d="M0.55 4.65 Q-0.15 3.55 0.05 2.35 0.3 1.15 1.3 0.45 2.3 -0.2 3.5 0.1 4.7 0.4 5.4 1.5 6.1 2.6 5.85 3.8 5.65 5.0 4.65 5.65 3.65 6.35 2.45 6.05 1.25 5.75 0.55 4.65" fill="#393e2c" fill-rule="evenodd" stroke="none"/>
      <path d="M0.55 4.65 Q-0.15 3.55 0.05 2.35 0.3 1.15 1.3 0.45 2.3 -0.2 3.5 0.1 4.7 0.4 5.4 1.5 6.1 2.6 5.85 3.8 5.65 5.0 4.65 5.65 3.65 6.3 2.45 6.0 1.25 5.7 0.55 4.65" fill="#383d2b" fill-rule="evenodd" stroke="none"/>
      <path d="M0.55 4.65 Q-0.15 3.55 0.05 2.35 0.3 1.15 1.3 0.5 2.3 -0.15 3.5 0.1 4.7 0.4 5.4 1.5 6.05 2.6 5.85 3.8 5.65 5.0 4.65 5.65 3.65 6.3 2.45 6.0 1.25 5.7 0.55 4.65" fill="#373c2a" fill-rule="evenodd" stroke="none"/>
      <path d="M0.55 4.65 Q-0.15 3.55 0.05 2.35 0.3 1.15 1.3 0.5 2.3 -0.15 3.5 0.1 4.7 0.4 5.4 1.5 6.05 2.6 5.85 3.8 5.65 5.0 4.65 5.65 3.65 6.3 2.45 6.0 1.25 5.7 0.55 4.65" fill="#363b2a" fill-rule="evenodd" stroke="none"/>
      <path d="M0.55 4.65 Q-0.15 3.55 0.05 2.35 0.3 1.15 1.3 0.5 2.3 -0.15 3.5 0.1 4.7 0.4 5.4 1.5 6.05 2.6 5.85 3.8 5.65 5.0 4.65 5.65 3.65 6.3 2.45 6.0 1.25 5.7 0.55 4.65" fill="#353a29" fill-rule="evenodd" stroke="none"/>
      <path d="M0.55 4.65 Q-0.15 3.55 0.05 2.35 0.3 1.15 1.3 0.5 2.3 -0.15 3.5 0.15 4.7 0.45 5.4 1.5 6.05 2.6 5.85 3.8 5.65 5.0 4.65 5.65 3.65 6.3 2.45 6.0 1.25 5.7 0.55 4.65" fill="#343928" fill-rule="evenodd" stroke="none"/>
      <path d="M0.55 4.6 Q-0.15 3.55 0.05 2.35 0.3 1.15 1.3 0.5 2.25 -0.15 3.5 0.15 4.65 0.45 5.35 1.5 6.05 2.6 5.85 3.8 5.65 5.0 4.65 5.65 3.65 6.3 2.45 6.0 1.2 5.7 0.55 4.6" fill="#333827" fill-rule="evenodd" stroke="none"/>
      <path d="M0.55 4.6 Q-0.15 3.55 0.05 2.35 0.3 1.15 1.3 0.5 2.3 -0.15 3.5 0.15 4.65 0.45 5.35 1.5 6.05 2.6 5.85 3.8 5.6 5.0 4.6 5.65 3.6 6.3 2.45 6.0 1.2 5.7 0.55 4.6" fill="#323727" fill-rule="evenodd" stroke="none"/>
      <path d="M0.55 4.6 Q-0.15 3.55 0.1 2.35 0.3 1.15 1.3 0.5 2.3 -0.15 3.5 0.15 4.7 0.45 5.35 1.5 6.05 2.6 5.85 3.8 5.6 5.0 4.6 5.65 3.6 6.3 2.45 6.0 1.2 5.7 0.55 4.6" fill="#313626" fill-rule="evenodd" stroke="none"/>
      <path d="M0.55 4.6 Q-0.15 3.55 0.1 2.35 0.3 1.15 1.3 0.5 2.3 -0.15 3.5 0.15 4.7 0.45 5.35 1.5 6.05 2.6 5.85 3.8 5.6 5.0 4.6 5.65 3.6 6.3 2.45 6.0 1.2 5.7 0.55 4.6" fill="#313626" fill-rule="evenodd" stroke="none"/>
      <path d="M0.6 4.6 Q-0.1 3.55 0.1 2.35 0.3 1.15 1.3 0.5 2.3 -0.15 3.45 0.15 4.65 0.45 5.3 1.5 6.0 2.55 5.8 3.75 5.55 4.95 4.6 5.6 3.6 6.2 2.45 5.95 1.25 5.65 0.6 4.6" fill="#323727" fill-rule="evenodd" stroke="none"/>
      <path d="M0.6 4.55 Q-0.05 3.5 0.15 2.35 0.35 1.15 1.35 0.55 2.3 -0.1 3.45 0.2 4.6 0.5 5.25 1.55 5.95 2.55 5.75 3.75 5.5 4.9 4.55 5.5 3.6 6.15 2.45 5.85 1.3 5.55 0.6 4.55" fill="#333827" fill-rule="evenodd" stroke="none"/>
      <path d="M0.65 4.5 Q0.0 3.5 0.2 2.35 0.4 1.2 1.35 0.55 2.3 -0.05 3.45 0.25 4.55 0.55 5.2 1.55 5.85 2.55 5.65 3.7 5.45 4.85 4.5 5.45 3.55 6.1 2.45 5.8 1.3 5.5 0.65 4.5" fill="#343928" fill-rule="evenodd" stroke="none"/>
      <path d="M0.65 4.45 Q0.0 3.45 0.2 2.35 0.4 1.2 1.35 0.6 2.3 0.0 3.4 0.25 4.5 0.55 5.15 1.55 5.8 2.5 5.6 3.65 5.4 4.8 4.45 5.4 3.5 6.0 2.4 5.75 1.3 5.45 0.65 4.45" fill="#353a29" fill-rule="evenodd" stroke="none"/>
      <path d="M0.7 4.4 Q0.05 3.45 0.25 2.3 0.45 1.2 1.35 0.6 2.3 0.05 3.4 0.3 4.5 0.6 5.1 1.55 5.75 2.5 5.55 3.65 5.35 4.75 4.45 5.35 3.5 5.95 2.45 5.7 1.35 5.4 0.7 4.4" fill="#363b2a" fill-rule="evenodd" stroke="none"/>
      <path d="M0.7 4.4 Q0.1 3.4 0.3 2.3 0.5 1.2 1.4 0.65 2.3 0.05 3.4 0.35 4.45 0.6 5.05 1.55 5.7 2.5 5.5 3.6 5.3 4.7 4.4 5.3 3.5 5.9 2.4 5.6 1.35 5.35 0.7 4.4" fill="#373c2a" fill-rule="evenodd" stroke="none"/>
      <path d="M0.75 4.35 Q0.1 3.4 0.3 2.35 0.5 1.25 1.4 0.65 2.3 0.1 3.35 0.35 4.4 0.6 5.0 1.55 5.65 2.5 5.45 3.6 5.25 4.7 4.35 5.25 3.5 5.8 2.4 5.55 1.35 5.3 0.75 4.35" fill="#383d2b" fill-rule="evenodd" stroke="none"/>
      <path d="M0.75 4.3 Q0.15 3.35 0.35 2.3 0.55 1.25 1.4 0.7 2.3 0.15 3.35 0.4 4.35 0.65 5.0 1.6 5.6 2.55 5.4 3.6 5.2 4.65 4.3 5.2 3.45 5.75 2.4 5.5 1.35 5.25 0.75 4.3" fill="#393e2c" fill-rule="evenodd" stroke="none"/>
      <path d="M0.8 4.25 Q0.2 3.35 0.4 2.3 0.6 1.25 1.45 0.7 2.3 0.15 3.35 0.4 4.35 0.65 4.95 1.6 5.5 2.5 5.35 3.55 5.15 4.6 4.3 5.15 3.45 5.7 2.4 5.45 1.4 5.2 0.8 4.25" fill="#3a3f2d" fill-rule="evenodd" stroke="none"/>
      <path d="M0.8 4.2 Q0.25 3.35 0.45 2.3 0.65 1.3 1.45 0.75 2.25 0.2 3.3 0.45 4.3 0.7 4.9 1.6 5.45 2.5 5.25 3.5 5.1 4.55 4.25 5.1 3.45 5.65 2.4 5.35 1.4 5.1 0.8 4.2" fill="#3b412d" fill-rule="evenodd" stroke="none"/>
      <path d="M0.85 4.2 Q0.3 3.3 0.45 2.3 0.65 1.3 1.45 0.75 2.25 0.25 3.25 0.5 4.25 0.75 4.85 1.6 5.4 2.5 5.2 3.5 5.05 4.45 4.2 5.0 3.4 5.55 2.4 5.3 1.4 5.05 0.85 4.2" fill="#3c422e" fill-rule="evenodd" stroke="none"/>
      <path d="M0.9 4.15 Q0.35 3.3 0.5 2.3 0.7 1.3 1.5 0.8 2.3 0.25 3.25 0.5 4.25 0.75 4.8 1.6 5.35 2.45 5.2 3.45 5.0 4.4 4.2 4.95 3.35 5.5 2.4 5.25 1.4 5.0 0.9 4.15" fill="#3d432f" fill-rule="evenodd" stroke="none"/>
      <path d="M0.9 4.1 Q0.35 3.25 0.55 2.3 0.7 1.3 1.5 0.8 2.3 0.3 3.25 0.55 4.2 0.8 4.75 1.65 5.3 2.5 5.1 3.45 4.95 4.4 4.15 4.9 3.35 5.45 2.4 5.2 1.45 4.95 0.9 4.1" fill="#3e4430" fill-rule="evenodd" stroke="none"/>
      <path d="M0.95 4.05 Q0.4 3.25 0.55 2.3 0.75 1.35 1.5 0.85 2.3 0.35 3.2 0.6 4.15 0.85 4.7 1.65 5.25 2.5 5.05 3.4 4.9 4.35 4.1 4.85 3.3 5.35 2.4 5.15 1.5 4.9 0.95 4.05" fill="#3f4530" fill-rule="evenodd" stroke="none"/>
      <path d="M0.95 4.05 Q0.4 3.2 0.6 2.3 0.75 1.35 1.55 0.85 2.3 0.35 3.2 0.6 4.15 0.85 4.65 1.65 5.2 2.5 5.0 3.4 4.85 4.3 4.05 4.8 3.3 5.3 2.4 5.05 1.5 4.85 0.95 4.05" fill="#404631" fill-rule="evenodd" stroke="none"/>
      <path d="M1.0 4.0 Q0.5 3.2 0.65 2.3 0.8 1.4 1.55 0.9 2.3 0.4 3.2 0.65 4.05 0.85 4.6 1.65 5.1 2.45 4.95 3.35 4.75 4.25 4.05 4.75 3.3 5.25 2.4 5.0 1.5 4.8 1.0 4.0" fill="#414732" fill-rule="evenodd" stroke="none"/>
      <path d="M1.0 3.95 Q0.5 3.15 0.7 2.3 0.85 1.4 1.55 0.9 2.3 0.45 3.15 0.7 4.0 0.9 4.55 1.65 5.05 2.45 4.9 3.35 4.7 4.2 4.0 4.7 L2.4 4.95 Q1.5 4.75 1.0 3.95" fill="#424833" fill-rule="evenodd" stroke="none"/>
      <path d="M1.05 3.9 Q0.55 3.15 0.7 2.3 0.85 1.4 1.6 0.95 2.3 0.5 3.15 0.7 4.0 0.9 4.5 1.7 5.0 2.45 4.85 3.3 4.65 4.15 3.95 4.65 L2.4 4.9 Q1.55 4.65 1.05 3.9" fill="#434933" fill-rule="evenodd" stroke="none"/>
      <path d="M1.05 3.85 Q0.6 3.1 0.75 2.3 0.9 1.45 1.6 1.0 2.25 0.5 3.1 0.75 3.95 0.95 4.45 1.7 4.95 2.45 4.8 3.3 4.6 4.15 3.9 4.6 L2.4 4.85 Q1.55 4.6 1.05 3.85" fill="#444a34" fill-rule="evenodd" stroke="none"/>
      <path d="M1.1 3.85 Q0.65 3.1 0.8 2.3 0.95 1.45 1.6 1.0 L3.15 0.8 Q3.95 1.0 4.4 1.7 4.9 2.45 4.75 3.3 4.6 4.1 3.9 4.55 L2.4 4.8 Q1.6 4.55 1.1 3.85" fill="#444a34" fill-rule="evenodd" stroke="none"/>
      <path d="M1.1 3.8 Q0.65 3.1 0.8 2.3 1.0 1.45 1.65 1.05 2.3 0.6 3.1 0.8 3.9 1.0 4.4 1.7 4.85 2.45 4.7 3.25 4.55 4.1 3.85 4.5 3.2 4.95 2.4 4.75 1.6 4.55 1.1 3.8" fill="#454b35" fill-rule="evenodd" stroke="none"/>
      <path d="M1.15 3.8 Q0.65 3.1 0.8 2.3 0.95 1.45 1.65 1.05 2.3 0.6 3.1 0.8 3.9 1.0 4.35 1.7 4.8 2.4 4.65 3.25 4.5 4.05 3.85 4.5 L2.4 4.7 Q1.6 4.5 1.15 3.8" fill="#464c35" fill-rule="evenodd" stroke="none"/>
      <path d="M1.15 3.8 Q0.7 3.1 0.85 2.3 1.0 1.45 1.65 1.05 L3.1 0.85 Q3.85 1.05 4.35 1.75 4.8 2.4 4.65 3.25 4.5 4.05 3.85 4.45 L2.4 4.65 Q1.6 4.5 1.15 3.8" fill="#474c36" fill-rule="evenodd" stroke="none"/>
      <path d="M1.15 3.75 Q0.7 3.1 0.85 2.3 1.0 1.5 1.65 1.05 L3.05 0.85 Q3.85 1.05 4.3 1.75 4.75 2.45 4.6 3.2 4.45 4.0 3.8 4.45 L2.4 4.65 Q1.6 4.45 1.15 3.75" fill="#484d37" fill-rule="evenodd" stroke="none"/>
      <path d="M1.2 3.75 Q0.75 3.1 0.9 2.3 1.0 1.5 1.65 1.1 2.3 0.7 3.05 0.85 3.85 1.05 4.3 1.75 4.75 2.4 4.6 3.2 4.45 4.0 3.8 4.4 L2.4 4.6 Q1.6 4.45 1.2 3.75" fill="#494e37" fill-rule="evenodd" stroke="none"/>
      <path d="M1.2 3.75 Q0.75 3.05 0.9 2.3 1.0 1.5 1.65 1.1 L3.05 0.9 Q3.8 1.05 4.25 1.75 4.7 2.45 4.55 3.2 4.45 4.0 3.8 4.35 L2.4 4.6 1.2 3.75" fill="#4a4f38" fill-rule="evenodd" stroke="none"/>
      <path d="M1.2 3.7 Q0.75 3.05 0.9 2.25 1.05 1.5 1.65 1.1 L3.05 0.9 Q3.8 1.05 4.25 1.75 4.65 2.45 4.55 3.2 4.4 3.95 3.75 4.35 3.15 4.75 2.4 4.55 1.65 4.4 1.2 3.7" fill="#4b5039" fill-rule="evenodd" stroke="none"/>
      <path d="M1.2 3.7 Q0.8 3.0 0.95 2.25 1.05 1.5 1.7 1.1 L3.05 0.9 Q3.8 1.1 4.2 1.75 4.65 2.4 4.5 3.2 4.35 3.9 3.75 4.3 L2.4 4.55 1.2 3.7" fill="#4c5039" fill-rule="evenodd" stroke="none"/>
      <path d="M1.25 3.65 Q0.8 3.0 0.95 2.25 1.05 1.55 1.7 1.15 L3.05 0.95 Q3.75 1.1 4.2 1.75 4.6 2.45 4.5 3.15 4.35 3.9 3.75 4.3 L2.4 4.5 1.25 3.65" fill="#4d513a" fill-rule="evenodd" stroke="none"/>
      <path d="M1.25 3.65 Q0.85 3.0 0.95 2.25 1.1 1.55 1.7 1.15 L3.0 0.95 Q3.75 1.1 4.15 1.75 4.55 2.4 4.45 3.15 4.3 3.9 3.7 4.25 3.1 4.65 2.4 4.5 L1.25 3.65" fill="#4e523b" fill-rule="evenodd" stroke="none"/>
      <path d="M1.25 3.65 Q0.85 3.0 0.95 2.25 1.1 1.55 1.7 1.15 L3.0 0.95 Q3.75 1.1 4.15 1.75 4.55 2.4 4.45 3.1 4.3 3.85 3.7 4.25 3.1 4.65 2.4 4.45 1.65 4.3 1.25 3.65" fill="#4f533b" fill-rule="evenodd" stroke="none"/>
      <path d="M1.25 3.6 Q0.9 2.95 1.0 2.25 1.15 1.55 1.7 1.15 L3.0 0.95 4.1 1.75 Q4.5 2.4 4.4 3.1 4.25 3.8 3.7 4.2 3.1 4.6 2.4 4.4 1.65 4.25 1.25 3.6" fill="#50543c" fill-rule="evenodd" stroke="none"/>
      <path d="M1.3 3.6 Q0.9 2.95 1.0 2.25 1.15 1.6 1.7 1.2 L3.0 1.0 Q3.7 1.15 4.1 1.8 4.5 2.4 4.4 3.1 4.25 3.85 3.65 4.2 L2.4 4.4 Q1.7 4.2 1.3 3.6" fill="#52543d" fill-rule="evenodd" stroke="none"/>
      <path d="M1.3 3.55 Q0.9 2.95 1.0 2.25 1.15 1.6 1.75 1.2 L3.0 1.0 Q3.7 1.15 4.05 1.8 4.45 2.4 4.35 3.1 4.2 3.75 3.65 4.15 L2.4 4.35 Q1.7 4.2 1.3 3.55" fill="#53553e" fill-rule="evenodd" stroke="none"/>
      <path d="M1.3 3.55 Q0.95 2.95 1.05 2.25 1.2 1.6 1.75 1.2 L3.0 1.0 4.05 1.8 Q4.45 2.4 4.3 3.1 4.2 3.8 3.6 4.15 L2.4 4.3 Q1.7 4.15 1.3 3.55" fill="#54563e" fill-rule="evenodd" stroke="none"/>
      <path d="M1.3 3.55 Q0.95 2.95 1.05 2.25 1.2 1.6 1.75 1.2 L2.95 1.05 Q3.65 1.2 4.0 1.8 4.4 2.4 4.3 3.05 4.15 3.7 3.6 4.1 L2.4 4.3 Q1.7 4.15 1.3 3.55" fill="#55573f" fill-rule="evenodd" stroke="none"/>
      <path d="M1.35 3.5 Q0.95 2.95 1.1 2.25 1.2 1.6 1.75 1.25 2.3 0.9 2.95 1.05 3.65 1.2 4.0 1.8 L4.25 3.05 3.6 4.05 2.4 4.25 Q1.75 4.1 1.35 3.5" fill="#565840" fill-rule="evenodd" stroke="none"/>
      <path d="M1.35 3.5 Q1.0 2.9 1.1 2.25 1.2 1.6 1.75 1.25 L2.95 1.1 3.95 1.8 Q4.35 2.35 4.2 3.05 4.1 3.7 3.55 4.05 L2.4 4.25 Q1.75 4.05 1.35 3.5" fill="#575840" fill-rule="evenodd" stroke="none"/>
      <path d="M1.35 3.45 Q1.0 2.9 1.1 2.25 1.2 1.6 1.75 1.25 L2.95 1.1 3.95 1.8 Q4.3 2.35 4.2 3.0 4.1 3.65 3.55 4.0 3.05 4.4 2.4 4.2 1.75 4.05 1.35 3.45" fill="#585941" fill-rule="evenodd" stroke="none"/>
      <path d="M1.4 3.45 Q1.05 2.9 1.15 2.25 1.25 1.65 1.75 1.25 L2.95 1.1 Q3.55 1.25 3.9 1.8 4.3 2.35 4.2 3.0 4.05 3.65 3.55 4.0 L2.4 4.2 1.4 3.45" fill="#595a42" fill-rule="evenodd" stroke="none"/>
      <path d="M1.4 3.45 Q1.05 2.9 1.15 2.25 1.25 1.65 1.8 1.3 2.3 0.95 2.9 1.1 3.5 1.25 3.9 1.8 4.25 2.35 4.15 3.0 4.05 3.6 3.5 3.95 L2.35 4.15 Q1.75 4.0 1.4 3.45" fill="#5a5b42" fill-rule="evenodd" stroke="none"/>
      <path d="M1.4 3.4 Q1.05 2.85 1.15 2.25 1.3 1.65 1.8 1.3 2.3 0.95 2.9 1.1 3.5 1.25 3.9 1.8 4.25 2.35 4.15 3.0 4.0 3.6 3.5 3.95 L2.4 4.15 Q1.8 3.95 1.4 3.4" fill="#5b5c43" fill-rule="evenodd" stroke="none"/>
      <path d="M1.4 3.4 Q1.05 2.9 1.2 2.25 1.3 1.65 1.8 1.3 L2.9 1.15 3.85 1.8 Q4.2 2.35 4.1 3.0 4.0 3.6 3.5 3.9 L2.4 4.1 Q1.8 3.95 1.4 3.4" fill="#5c5c44" fill-rule="evenodd" stroke="none"/>
      <path d="M1.45 3.4 Q1.1 2.85 1.2 2.25 1.3 1.65 1.8 1.3 L2.9 1.15 3.85 1.85 Q4.2 2.35 4.05 2.95 3.95 3.55 3.45 3.9 L2.4 4.05 Q1.8 3.9 1.45 3.4" fill="#5d5d44" fill-rule="evenodd" stroke="none"/>
      <path d="M1.45 3.35 Q1.1 2.8 1.2 2.25 1.3 1.65 1.8 1.35 2.3 1.0 2.9 1.15 3.45 1.3 3.8 1.85 4.15 2.4 4.05 2.95 3.95 3.55 3.45 3.85 L2.4 4.05 Q1.8 3.9 1.45 3.35" fill="#5e5e45" fill-rule="evenodd" stroke="none"/>
      <path d="M1.45 3.35 Q1.1 2.85 1.25 2.25 1.35 1.65 1.85 1.35 L2.9 1.2 Q3.45 1.35 3.8 1.85 4.15 2.35 4.0 2.95 3.9 3.5 3.45 3.85 L2.4 4.0 Q1.8 3.85 1.45 3.35" fill="#5e5e45" fill-rule="evenodd" stroke="none"/>
      <path d="M1.5 3.35 Q1.15 2.8 1.25 2.25 1.35 1.65 1.85 1.35 L2.9 1.2 Q3.45 1.35 3.75 1.85 L4.0 2.95 Q3.9 3.5 3.4 3.8 L2.4 3.95 Q1.8 3.85 1.5 3.35" fill="#5f5f46" fill-rule="evenodd" stroke="none"/>
      <path d="M1.5 3.3 Q1.15 2.8 1.25 2.25 1.35 1.7 1.85 1.4 2.3 1.05 2.85 1.2 3.4 1.35 3.75 1.85 4.1 2.35 3.95 2.9 3.85 3.5 3.4 3.8 L2.35 3.95 Q1.8 3.8 1.5 3.3" fill="#606046" fill-rule="evenodd" stroke="none"/>
      <path d="M1.5 3.3 Q1.2 2.8 1.3 2.25 1.4 1.7 1.85 1.4 2.3 1.1 2.85 1.25 3.4 1.35 3.75 1.85 4.05 2.35 3.95 2.9 L3.4 3.75 2.35 3.9 Q1.8 3.8 1.5 3.3" fill="#616147" fill-rule="evenodd" stroke="none"/>
      <path d="M1.5 3.3 Q1.2 2.8 1.3 2.25 1.4 1.7 1.85 1.4 2.3 1.1 2.85 1.25 3.4 1.35 3.7 1.85 4.05 2.35 3.9 2.9 L3.35 3.75 2.35 3.9 Q1.85 3.8 1.5 3.3" fill="#626247" fill-rule="evenodd" stroke="none"/>
      <path d="M1.5 3.25 Q1.2 2.8 1.3 2.25 1.4 1.7 1.85 1.4 2.3 1.1 2.85 1.25 3.35 1.4 3.7 1.85 4.0 2.35 3.9 2.9 3.8 3.45 3.35 3.7 L2.35 3.85 Q1.85 3.75 1.5 3.25" fill="#636348" fill-rule="evenodd" stroke="none"/>
      <path d="M1.55 3.25 Q1.25 2.75 1.35 2.25 1.45 1.7 1.85 1.4 2.3 1.15 2.85 1.25 L3.65 1.85 3.9 2.85 3.35 3.7 2.4 3.85 Q1.85 3.75 1.55 3.25" fill="#646449" fill-rule="evenodd" stroke="none"/>
      <path d="M1.55 3.25 Q1.25 2.75 1.35 2.25 1.45 1.7 1.85 1.45 2.3 1.15 2.85 1.3 3.35 1.4 3.65 1.85 3.95 2.35 3.85 2.85 L3.3 3.7 2.35 3.85 1.55 3.25" fill="#656549" fill-rule="evenodd" stroke="none"/>
      <path d="M1.55 3.2 Q1.25 2.75 1.35 2.25 1.45 1.7 1.9 1.45 L2.85 1.3 3.65 1.9 3.85 2.85 Q3.75 3.4 3.3 3.65 L2.35 3.8 1.55 3.2" fill="#66664a" fill-rule="evenodd" stroke="none"/>
      <path d="M1.55 3.2 Q1.3 2.75 1.35 2.25 1.45 1.7 1.9 1.45 L2.8 1.3 Q3.3 1.45 3.6 1.9 3.9 2.35 3.8 2.85 L3.3 3.65 2.35 3.8 1.55 3.2" fill="#67664a" fill-rule="evenodd" stroke="none"/>
      <path d="M1.6 3.2 Q1.3 2.75 1.4 2.25 1.5 1.7 1.9 1.45 L2.8 1.3 Q3.3 1.45 3.6 1.9 L3.8 2.85 3.3 3.6 2.35 3.75 1.6 3.2" fill="#68674b" fill-rule="evenodd" stroke="none"/>
      <path d="M1.6 3.15 Q1.3 2.75 1.4 2.25 1.5 1.75 1.9 1.5 L2.8 1.35 Q3.3 1.45 3.55 1.9 3.85 2.3 3.75 2.85 L3.25 3.6 2.35 3.75 Q1.85 3.6 1.6 3.15" fill="#69684c" fill-rule="evenodd" stroke="none"/>
      <path d="M1.6 3.15 Q1.35 2.75 1.4 2.25 1.5 1.75 1.9 1.5 L2.8 1.35 Q3.3 1.45 3.55 1.9 L3.75 2.8 3.25 3.55 2.35 3.7 1.6 3.15" fill="#6a694c" fill-rule="evenodd" stroke="none"/>
      <path d="M1.6 3.15 Q1.35 2.7 1.45 2.25 1.5 1.75 1.9 1.5 L2.8 1.35 3.55 1.9 Q3.8 2.3 3.7 2.8 L3.25 3.55 2.35 3.7 1.6 3.15" fill="#6b6a4d" fill-rule="evenodd" stroke="none"/>
      <path d="M1.65 3.1 Q1.35 2.7 1.45 2.25 1.5 1.75 1.9 1.5 L2.8 1.35 3.5 1.9 3.7 2.8 3.2 3.5 2.35 3.65 1.65 3.1" fill="#6c6b4d" fill-rule="evenodd" stroke="none"/>
      <path d="M1.65 3.1 Q1.4 2.7 1.45 2.25 1.55 1.75 1.9 1.5 L2.8 1.4 Q3.25 1.5 3.5 1.9 3.75 2.3 3.65 2.8 L3.2 3.5 2.35 3.65 1.65 3.1" fill="#6d6c4e" fill-rule="evenodd" stroke="none"/>
      <path d="M1.65 3.1 Q1.4 2.7 1.5 2.25 1.55 1.8 1.95 1.55 L2.75 1.4 Q3.2 1.5 3.45 1.9 L3.65 2.75 3.2 3.45 2.35 3.6 1.65 3.1" fill="#6e6d4f" fill-rule="evenodd" stroke="none"/>
      <path d="M1.65 3.05 Q1.4 2.7 1.5 2.25 1.55 1.8 1.95 1.55 L2.75 1.4 Q3.2 1.5 3.45 1.9 L3.6 2.75 Q3.55 3.2 3.15 3.45 L2.35 3.55 1.65 3.05" fill="#6f6e4f" fill-rule="evenodd" stroke="none"/>
      <path d="M1.65 3.05 Q1.4 2.65 1.5 2.25 1.6 1.75 1.95 1.55 L2.75 1.45 Q3.2 1.55 3.45 1.9 4.0 2.85 3.15 3.45 L2.35 3.55 1.65 3.05" fill="#706f50" fill-rule="evenodd" stroke="none"/>
      <path d="M1.7 3.05 Q1.45 2.65 1.5 2.25 1.6 1.75 1.95 1.55 L2.75 1.45 Q3.2 1.55 3.4 1.9 L3.6 2.75 3.15 3.4 2.35 3.55 1.7 3.05" fill="#717050" fill-rule="evenodd" stroke="none"/>
      <path d="M1.7 3.0 Q1.45 2.65 1.55 2.2 1.6 1.8 1.95 1.55 2.8 1.05 3.4 1.95 L3.55 2.75 3.15 3.4 2.35 3.5 1.7 3.0" fill="#727151" fill-rule="evenodd" stroke="none"/>
      <path d="M1.7 3.0 Q1.15 2.1 1.95 1.6 L2.7 1.5 3.35 1.95 3.55 2.7 3.1 3.35 2.35 3.5 1.7 3.0" fill="#737252" fill-rule="evenodd" stroke="none"/>
      <path d="M1.7 3.0 Q1.15 2.1 1.95 1.6 L2.7 1.5 3.35 1.95 Q3.6 2.3 3.5 2.7 L3.1 3.35 Q2.35 3.85 1.7 3.0" fill="#747352" fill-rule="evenodd" stroke="none"/>
      <path d="M1.75 3.0 Q1.5 2.65 1.6 2.25 1.65 1.85 2.0 1.6 L2.7 1.5 3.35 1.95 3.5 2.7 3.1 3.3 2.35 3.45 1.75 3.0" fill="#757453" fill-rule="evenodd" stroke="none"/>
      <path d="M1.75 2.95 L1.6 2.2 Q1.65 1.85 2.0 1.6 L2.7 1.5 3.3 1.95 3.45 2.7 3.05 3.3 2.35 3.4 1.75 2.95" fill="#767553" fill-rule="evenodd" stroke="none"/>
      <path d="M1.75 2.95 L1.6 2.2 Q1.65 1.85 2.0 1.6 L2.7 1.5 3.3 1.95 3.45 2.7 3.05 3.25 2.35 3.4 1.75 2.95" fill="#787654" fill-rule="evenodd" stroke="none"/>
      <path d="M1.75 2.95 Q1.55 2.6 1.65 2.25 1.7 1.85 2.0 1.65 2.3 1.45 2.7 1.5 L3.25 1.95 3.4 2.7 3.05 3.25 Q2.3 3.65 1.75 2.95" fill="#797655" fill-rule="evenodd" stroke="none"/>
      <path d="M1.75 2.9 Q1.55 2.6 1.65 2.2 1.7 1.85 2.0 1.65 2.75 1.2 3.25 1.95 L3.4 2.65 3.0 3.2 2.35 3.35 1.75 2.9" fill="#7a7755" fill-rule="evenodd" stroke="none"/>
      <path d="M1.8 2.9 L1.65 2.2 Q1.7 1.85 2.0 1.65 2.7 1.2 3.25 1.95 3.7 2.75 3.0 3.2 L2.35 3.3 1.8 2.9" fill="#7b7856" fill-rule="evenodd" stroke="none"/>
      <path d="M1.8 2.9 Q1.35 2.1 2.0 1.65 L2.65 1.55 3.2 1.95 3.35 2.65 3.0 3.2 2.35 3.3 1.8 2.9" fill="#7c7956" fill-rule="evenodd" stroke="none"/>
      <path d="M1.8 2.85 Q1.6 2.55 1.7 2.2 L2.0 1.7 2.65 1.6 Q3.0 1.65 3.2 1.95 3.6 2.7 3.0 3.15 L2.35 3.25 1.8 2.85" fill="#7d7a57" fill-rule="evenodd" stroke="none"/>
      <path d="M1.8 2.85 Q1.35 2.15 2.05 1.7 L2.65 1.6 Q2.95 1.7 3.15 1.95 3.4 2.25 3.3 2.6 L2.95 3.15 Q2.3 3.5 1.8 2.85" fill="#7e7b58" fill-rule="evenodd" stroke="none"/>
      <path d="M1.85 2.85 Q1.4 2.1 2.05 1.7 L2.65 1.6 3.15 2.0 3.3 2.6 2.95 3.1 Q2.35 3.55 1.85 2.85" fill="#7f7c58" fill-rule="evenodd" stroke="none"/>
      <path d="M1.85 2.8 Q1.65 2.55 1.75 2.2 L2.05 1.7 Q2.7 1.3 3.15 2.0 L3.3 2.6 2.95 3.1 Q2.3 3.5 1.85 2.8" fill="#807d59" fill-rule="evenodd" stroke="none"/>
      <path d="M1.85 2.8 Q1.65 2.55 1.75 2.2 L2.05 1.7 Q2.7 1.35 3.1 2.0 L3.25 2.6 2.9 3.05 Q2.3 3.45 1.85 2.8" fill="#817e59" fill-rule="evenodd" stroke="none"/>
      <path d="M1.85 2.8 Q1.5 2.05 2.05 1.75 2.65 1.35 3.1 2.0 3.55 2.6 2.9 3.05 2.3 3.4 1.85 2.8" fill="#827f5a" fill-rule="evenodd" stroke="none"/>
      <path d="M1.9 2.75 L1.75 2.2 2.05 1.75 Q2.7 1.4 3.05 2.0 3.5 2.6 2.9 3.0 L2.35 3.1 1.9 2.75" fill="#83805b" fill-rule="evenodd" stroke="none"/>
      <path d="M1.9 2.75 L1.75 2.2 2.05 1.75 Q2.7 1.4 3.05 2.0 3.45 2.65 2.85 3.0 L2.35 3.1 1.9 2.75" fill="#84815b" fill-rule="evenodd" stroke="none"/>
      <path d="M1.9 2.75 Q1.55 2.1 2.05 1.75 2.65 1.4 3.05 2.0 3.4 2.6 2.85 2.95 L2.35 3.05 1.9 2.75" fill="#85825c" fill-rule="evenodd" stroke="none"/>
      <path d="M1.9 2.7 L1.8 2.2 2.1 1.8 Q2.65 1.45 3.0 2.0 3.35 2.6 2.85 2.95 L2.35 3.05 1.9 2.7" fill="#86835c" fill-rule="evenodd" stroke="none"/>
      <path d="M1.9 2.7 Q1.55 2.15 2.1 1.8 2.65 1.45 3.0 2.0 3.35 2.55 2.85 2.95 2.35 3.2 1.9 2.7" fill="#87845d" fill-rule="evenodd" stroke="none"/>
      <path d="M1.95 2.7 Q1.6 2.15 2.1 1.8 2.6 1.45 2.95 2.0 3.3 2.55 2.8 2.9 2.3 3.25 1.95 2.7" fill="#88855e" fill-rule="evenodd" stroke="none"/>
      <path d="M1.95 2.65 Q1.6 2.15 2.1 1.8 2.65 1.55 2.95 2.0 3.3 2.55 2.8 2.9 2.3 3.15 1.95 2.65" fill="#89855e" fill-rule="evenodd" stroke="none"/>
      <path d="M1.95 2.65 Q1.65 2.2 2.1 1.8 2.6 1.55 2.95 2.05 3.25 2.55 2.8 2.85 2.3 3.2 1.95 2.65" fill="#8a865f" fill-rule="evenodd" stroke="none"/>
      <path d="M1.95 2.65 Q1.7 2.1 2.1 1.85 2.65 1.5 2.9 2.05 3.25 2.5 2.75 2.85 2.3 3.1 1.95 2.65" fill="#8b875f" fill-rule="evenodd" stroke="none"/>
      <path d="M2.0 2.6 Q1.65 2.15 2.1 1.85 2.6 1.55 2.9 2.05 3.2 2.55 2.75 2.8 2.3 3.15 2.0 2.6" fill="#8c8860" fill-rule="evenodd" stroke="none"/>
      <path d="M2.0 2.6 Q1.65 2.15 2.15 1.85 2.55 1.55 2.85 2.05 3.2 2.5 2.75 2.8 2.3 3.1 2.0 2.6" fill="#8d8961" fill-rule="evenodd" stroke="none"/>
      <path d="M2.0 2.6 Q1.7 2.1 2.15 1.85 2.55 1.55 2.85 2.05 3.1 2.5 2.7 2.75 2.3 3.05 2.0 2.6" fill="#8e8a61" fill-rule="evenodd" stroke="none"/>
      <path d="M2.0 2.6 Q1.7 2.1 2.15 1.85 2.6 1.65 2.85 2.05 3.1 2.5 2.7 2.75 2.35 3.05 2.0 2.6" fill="#8f8b62" fill-rule="evenodd" stroke="none"/>
      <path d="M2.0 2.55 L1.95 2.2 2.15 1.9 Q2.55 1.6 2.8 2.05 3.05 2.5 2.7 2.75 2.25 2.95 2.0 2.55" fill="#908c62" fill-rule="evenodd" stroke="none"/>
      <path d="M2.05 2.55 Q1.8 2.15 2.15 1.9 2.5 1.65 2.8 2.05 3.05 2.45 2.7 2.7 2.35 2.9 2.05 2.55" fill="#918d63" fill-rule="evenodd" stroke="none"/>
      <path d="M2.05 2.55 Q1.8 2.15 2.15 1.9 2.55 1.7 2.8 2.05 L2.65 2.7 Q2.3 2.9 2.05 2.55" fill="#918d63" fill-rule="evenodd" stroke="none"/>
      <path d="M2.05 2.55 Q1.8 2.15 2.15 1.9 2.55 1.7 2.75 2.05 3.0 2.45 2.65 2.7 2.3 2.9 2.05 2.55" fill="#928e64" fill-rule="evenodd" stroke="none"/>
      <path d="M2.05 2.5 Q1.8 2.15 2.15 1.9 2.55 1.7 2.75 2.05 3.0 2.45 2.65 2.65 2.3 2.9 2.05 2.5" fill="#938f64" fill-rule="evenodd" stroke="none"/>
      <path d="M2.05 2.5 Q1.9 2.15 2.15 1.9 2.55 1.7 2.75 2.05 3.05 2.45 2.65 2.65 2.35 2.9 2.05 2.5" fill="#949065" fill-rule="evenodd" stroke="none"/>
      <path d="M2.05 2.5 Q1.9 2.15 2.15 1.9 2.5 1.7 2.75 2.05 3.05 2.45 2.65 2.65 2.35 2.9 2.05 2.5" fill="#959166" fill-rule="evenodd" stroke="none"/>
      <path d="M2.05 2.5 Q1.85 2.15 2.15 1.95 2.5 1.7 2.75 2.05 2.95 2.5 2.65 2.65 2.3 2.85 2.05 2.5" fill="#969266" fill-rule="evenodd" stroke="none"/>
      <path d="M2.05 2.5 Q1.85 2.1 2.2 1.95 L2.75 2.05 Q2.9 2.4 2.65 2.65 2.3 2.85 2.05 2.5" fill="#979367" fill-rule="evenodd" stroke="none"/>
      <path d="M2.1 2.5 Q1.85 2.15 2.2 1.95 L2.75 2.05 Q2.9 2.4 2.65 2.65 2.25 2.85 2.1 2.5" fill="#989468" fill-rule="evenodd" stroke="none"/>
      <path d="M2.1 2.5 Q1.85 2.15 2.2 1.95 L2.75 2.05 Q2.9 2.4 2.65 2.65 2.25 2.85 2.1 2.5" fill="#999468" fill-rule="evenodd" stroke="none"/>
      <path d="M2.1 2.5 Q1.85 2.15 2.2 1.95 2.5 1.75 2.7 2.1 3.0 2.4 2.6 2.6 2.35 2.85 2.1 2.5" fill="#9a9569" fill-rule="evenodd" stroke="none"/>
      <path d="M2.1 2.5 Q1.85 2.15 2.2 1.95 2.5 1.75 2.7 2.1 3.0 2.4 2.6 2.6 L2.1 2.5" fill="#9b9669" fill-rule="evenodd" stroke="none"/>
      <path d="M2.1 2.5 Q1.85 2.15 2.2 1.95 2.5 1.75 2.7 2.1 3.0 2.4 2.6 2.6 L2.1 2.5" fill="#9c976a" fill-rule="evenodd" stroke="none"/>
      <path d="M2.1 2.45 Q1.9 2.1 2.2 1.95 2.5 1.75 2.7 2.1 2.9 2.4 2.6 2.6 2.3 2.8 2.1 2.45" fill="#9d986b" fill-rule="evenodd" stroke="none"/>
      <path d="M2.1 2.45 Q1.9 2.15 2.2 1.95 2.5 1.75 2.7 2.1 2.9 2.4 2.6 2.6 2.3 2.8 2.1 2.45" fill="#9e996b" fill-rule="evenodd" stroke="none"/>
      <path d="M2.1 2.45 Q1.9 2.15 2.2 1.95 2.5 1.75 2.7 2.1 2.9 2.4 2.6 2.6 2.3 2.8 2.1 2.45" fill="#9f9a6c" fill-rule="evenodd" stroke="none"/>
      <path d="M2.1 2.45 Q1.9 2.15 2.2 1.95 2.45 1.8 2.7 2.1 2.85 2.35 2.6 2.6 2.3 2.8 2.1 2.45" fill="#a09b6d" fill-rule="evenodd" stroke="none"/>
      <path d="M2.1 2.45 Q1.9 2.15 2.2 1.95 2.45 1.8 2.7 2.1 2.9 2.35 2.6 2.55 L2.1 2.45" fill="#a19c6d" fill-rule="evenodd" stroke="none"/>
      <path d="M2.1 2.45 Q1.9 2.15 2.2 1.95 2.5 1.75 2.65 2.1 2.9 2.35 2.6 2.55 L2.1 2.45" fill="#a29d6e" fill-rule="evenodd" stroke="none"/>
      <path d="M2.1 2.45 Q1.9 2.15 2.2 1.95 2.45 1.8 2.65 2.1 2.85 2.4 2.6 2.55 L2.1 2.45" fill="#a39e6f" fill-rule="evenodd" stroke="none"/>
      <path d="M2.1 2.45 L2.05 2.2 2.2 2.0 Q2.45 1.8 2.65 2.1 2.85 2.35 2.55 2.55 2.3 2.8 2.1 2.45" fill="#a49f6f" fill-rule="evenodd" stroke="none"/>
      <path d="M2.15 2.45 Q1.95 2.1 2.2 2.0 2.45 1.8 2.65 2.1 2.85 2.35 2.55 2.55 2.3 2.7 2.15 2.45" fill="#a5a070" fill-rule="evenodd" stroke="none"/>
      <path d="M2.15 2.4 Q2.0 2.15 2.2 2.0 2.45 1.8 2.65 2.1 2.85 2.35 2.55 2.55 2.25 2.65 2.15 2.4" fill="#a6a171" fill-rule="evenodd" stroke="none"/>
      <path d="M2.15 2.4 Q2.0 2.15 2.2 2.0 2.45 1.8 2.65 2.1 2.85 2.35 2.55 2.55 2.3 2.65 2.15 2.4" fill="#a7a171" fill-rule="evenodd" stroke="none"/>
      <path d="M2.15 2.4 Q2.0 2.2 2.2 2.0 2.45 1.8 2.65 2.1 2.85 2.4 2.55 2.5 2.3 2.65 2.15 2.4" fill="#a8a272" fill-rule="evenodd" stroke="none"/>
      <path d="M2.15 2.4 Q2.0 2.2 2.2 2.0 2.45 1.8 2.65 2.1 L2.55 2.5 Q2.3 2.65 2.15 2.4" fill="#a9a373" fill-rule="evenodd" stroke="none"/>
      <path d="M2.15 2.4 Q2.0 2.2 2.2 2.0 2.5 1.8 2.6 2.1 L2.55 2.5 Q2.3 2.65 2.15 2.4" fill="#aaa473" fill-rule="evenodd" stroke="none"/>
      <path d="M2.15 2.4 Q2.0 2.2 2.2 2.0 L2.6 2.1 2.55 2.5 Q2.3 2.65 2.15 2.4" fill="#aba574" fill-rule="evenodd" stroke="none"/>
      <path d="M2.15 2.4 Q2.0 2.2 2.2 2.0 L2.6 2.1 2.55 2.5 2.15 2.4" fill="#aca674" fill-rule="evenodd" stroke="none"/>
      <path d="M2.15 2.4 Q2.0 2.2 2.2 2.0 L2.6 2.1 2.55 2.5 2.15 2.4" fill="#ada775" fill-rule="evenodd" stroke="none"/>
      <path d="M2.15 2.4 Q2.05 2.15 2.25 2.0 L2.6 2.1 2.55 2.45 2.15 2.4" fill="#aea876" fill-rule="evenodd" stroke="none"/>
      <path d="M2.15 2.4 Q2.05 2.15 2.25 2.0 L2.6 2.1 2.5 2.45 2.15 2.4" fill="#afa976" fill-rule="evenodd" stroke="none"/>
      <path d="M2.15 2.35 Q2.05 2.15 2.25 2.0 L2.6 2.1 2.5 2.45 2.15 2.35" fill="#b0aa77" fill-rule="evenodd" stroke="none"/>
      <path d="M2.15 2.35 Q2.05 2.15 2.25 2.0 2.45 1.9 2.55 2.1 2.7 2.35 2.5 2.45 L2.15 2.35" fill="#b1ab78" fill-rule="evenodd" stroke="none"/>
      <path d="M2.15 2.35 Q2.05 2.2 2.25 2.0 2.45 1.9 2.55 2.1 L2.5 2.45 2.15 2.35" fill="#b2ac78" fill-rule="evenodd" stroke="none"/>
      <path d="M2.2 2.35 Q2.0 2.15 2.25 2.05 L2.55 2.1 2.5 2.45 Q2.3 2.55 2.2 2.35" fill="#b3ad79" fill-rule="evenodd" stroke="none"/>
      <path d="M2.2 2.35 Q2.0 2.15 2.25 2.05 L2.55 2.1 2.5 2.45 Q2.3 2.55 2.2 2.35" fill="#b4ae7a" fill-rule="evenodd" stroke="none"/>
      <path d="M2.2 2.35 Q2.0 2.15 2.25 2.05 L2.55 2.1 2.5 2.4 2.2 2.35" fill="#b6ae7a" fill-rule="evenodd" stroke="none"/>
      <path d="M2.2 2.35 Q2.0 2.15 2.25 2.05 L2.55 2.1 2.5 2.4 2.2 2.35" fill="#b7af7b" fill-rule="evenodd" stroke="none"/>
      <path d="M2.2 2.35 Q2.1 2.15 2.25 2.05 L2.55 2.1 2.5 2.4 2.2 2.35" fill="#b8b07c" fill-rule="evenodd" stroke="none"/>
      <path d="M2.2 2.35 Q2.1 2.15 2.25 2.05 L2.55 2.1 2.5 2.4 2.2 2.35" fill="#b9b17c" fill-rule="evenodd" stroke="none"/>
      <path d="M2.2 2.35 Q2.1 2.15 2.25 2.05 L2.5 2.1 2.45 2.4 2.2 2.35" fill="#bab27d" fill-rule="evenodd" stroke="none"/>
      <path d="M2.2 2.3 Q2.05 2.15 2.25 2.05 L2.5 2.1 2.45 2.4 Q2.3 2.55 2.2 2.3" fill="#bbb37e" fill-rule="evenodd" stroke="none"/>
      <path d="M2.2 2.3 Q2.05 2.15 2.25 2.05 L2.5 2.1 2.45 2.4 Q2.3 2.55 2.2 2.3" fill="#bcb47e" fill-rule="evenodd" stroke="none"/>
      <path d="M2.2 2.3 Q2.15 2.15 2.25 2.05 L2.5 2.1 2.45 2.35 2.2 2.3" fill="#bdb57f" fill-rule="evenodd" stroke="none"/>
      <path d="M2.2 2.3 Q2.15 2.15 2.25 2.05 L2.5 2.1 2.45 2.35 2.2 2.3" fill="#beb680" fill-rule="evenodd" stroke="none"/>
      <path d="M2.2 2.3 Q2.15 2.15 2.25 2.05 L2.5 2.1 2.45 2.35 2.2 2.3" fill="#bfb780" fill-rule="evenodd" stroke="none"/>
      <path d="M2.2 2.3 Q2.15 2.15 2.25 2.05 L2.5 2.15 2.45 2.35 2.2 2.3" fill="#c0b881" fill-rule="evenodd" stroke="none"/>
      <path d="M2.25 2.3 L2.25 2.05 2.5 2.15 2.45 2.35 2.25 2.3" fill="#c1b981" fill-rule="evenodd" stroke="none"/>
      <path d="M2.25 2.3 L2.25 2.1 2.45 2.15 2.45 2.35 2.25 2.3" fill="#c2ba82" fill-rule="evenodd" stroke="none"/>
      <path d="M2.25 2.3 L2.25 2.1 2.45 2.15 2.45 2.35 2.25 2.3" fill="#c3bb83" fill-rule="evenodd" stroke="none"/>
      <path d="M2.25 2.25 Q2.1 2.1 2.25 2.1 L2.45 2.15 2.4 2.3 2.25 2.25" fill="#c4bb83" fill-rule="evenodd" stroke="none"/>
      <path d="M2.25 2.25 L2.25 2.1 2.45 2.15 2.4 2.3 2.25 2.25" fill="#c5bc84" fill-rule="evenodd" stroke="none"/>
      <path d="M2.25 2.25 Q2.15 2.15 2.3 2.1 L2.45 2.15 2.4 2.3 2.25 2.25" fill="#c6bd85" fill-rule="evenodd" stroke="none"/>
      <path d="M2.25 2.25 Q2.15 2.15 2.3 2.1 L2.45 2.15 2.4 2.3 2.25 2.25" fill="#c7be85" fill-rule="evenodd" stroke="none"/>
      <path d="M2.25 2.25 Q2.2 2.2 2.3 2.1 L2.45 2.15 2.4 2.3 2.25 2.25" fill="#c8bf86" fill-rule="evenodd" stroke="none"/>
      <path d="M2.25 2.25 Q2.2 2.2 2.3 2.1 L2.45 2.15 2.4 2.3 2.25 2.25" fill="#c9c087" fill-rule="evenodd" stroke="none"/>
      <path d="M2.25 2.25 L2.3 2.1 2.4 2.15 2.4 2.3 2.25 2.25" fill="#cac187" fill-rule="evenodd" stroke="none"/>
      <path d="M2.25 2.25 L2.3 2.1 2.4 2.15 2.4 2.25 2.25 2.25" fill="#cbc288" fill-rule="evenodd" stroke="none"/>
      <path d="M2.25 2.25 L2.3 2.1 2.4 2.15 2.4 2.25 2.25 2.25" fill="#ccc389" fill-rule="evenodd" stroke="none"/>
      <path d="M2.25 2.25 L2.3 2.1 2.4 2.15 2.4 2.25 2.25 2.25" fill="#cdc489" fill-rule="evenodd" stroke="none"/>
      <path d="M2.3 2.2 L2.3 2.15 2.4 2.15 2.35 2.25 2.3 2.2" fill="#d1c88c" fill-rule="evenodd" stroke="none"/>
    </g>
    <g id="sprite3" transform="matrix(1.0, 0.0, 0.0, 1.0, 0.0, 0.0)">
      <clipPath id="clipPath1" transform="matrix(1.0, 0.0, 0.0, 1.0, 0.0, 0.0)">
        <use height="5.85" transform="matrix(1.0, 0.0, 0.0, 1.0, 0.3, 0.45)" width="5.5" xlink:href="#shape3"/>
      </clipPath>
      <g clip-path="url(#clipPath1)">
        <use height="6.35" transform="matrix(1.0, 0.0, 0.0, 1.0, 0.0, 0.0)" width="5.95" xlink:href="#shape5"/>
      </g>
    </g>
    <g id="shape5" transform="matrix(1.0, 0.0, 0.0, 1.0, 0.0, 0.0)">
      <path d="M0.25 0.5 L5.75 0.45 5.85 6.25 0.35 6.35 0.25 0.5" fill="#444a34" fill-rule="evenodd" stroke="none"/>
      <path d="M0.05 2.35 Q0.25 1.1 1.3 0.45 2.3 -0.2 3.55 0.1 4.75 0.4 5.45 1.5 6.15 2.6 5.9 3.85 5.7 5.05 4.65 5.7 3.65 6.4 2.45 6.1 1.2 5.8 0.5 4.7 -0.2 3.55 0.05 2.35" fill="#444a34" fill-rule="evenodd" stroke="none"/>
      <path d="M0.05 2.35 Q0.25 1.1 1.3 0.45 2.3 -0.2 3.55 0.1 4.75 0.4 5.45 1.5 6.15 2.6 5.9 3.85 5.7 5.05 4.65 5.7 3.65 6.35 2.45 6.05 1.2 5.75 0.5 4.65 -0.2 3.55 0.05 2.35" fill="#434933" fill-rule="evenodd" stroke="none"/>
      <path d="M0.5 4.65 Q-0.15 3.55 0.05 2.35 0.3 1.15 1.3 0.45 2.3 -0.2 3.55 0.1 4.75 0.4 5.45 1.5 6.15 2.6 5.9 3.85 5.65 5.05 4.65 5.7 3.65 6.35 2.45 6.05 1.2 5.75 0.5 4.65" fill="#424833" fill-rule="evenodd" stroke="none"/>
      <path d="M0.5 4.65 Q-0.15 3.55 0.05 2.35 0.3 1.15 1.3 0.45 2.3 -0.2 3.55 0.1 4.75 0.4 5.45 1.5 6.15 2.6 5.9 3.85 5.65 5.05 4.65 5.7 3.65 6.35 2.45 6.05 1.2 5.75 0.5 4.65" fill="#414732" fill-rule="evenodd" stroke="none"/>
      <path d="M0.5 4.65 Q-0.15 3.55 0.05 2.35 0.3 1.15 1.3 0.45 2.3 -0.2 3.5 0.1 4.75 0.4 5.4 1.5 6.1 2.6 5.9 3.85 5.65 5.05 4.65 5.7 3.65 6.35 2.45 6.05 1.2 5.75 0.5 4.65" fill="#404631" fill-rule="evenodd" stroke="none"/>
      <path d="M0.55 4.65 Q-0.15 3.55 0.05 2.35 0.3 1.15 1.3 0.45 2.3 -0.2 3.5 0.1 4.75 0.4 5.4 1.5 6.1 2.6 5.9 3.8 5.65 5.0 4.65 5.7 3.65 6.35 2.45 6.05 1.2 5.75 0.55 4.65" fill="#3f4530" fill-rule="evenodd" stroke="none"/>
      <path d="M0.55 4.65 Q-0.15 3.55 0.05 2.35 0.3 1.15 1.3 0.45 2.3 -0.2 3.5 0.1 4.75 0.4 5.4 1.5 6.1 2.6 5.9 3.8 5.65 5.0 4.65 5.7 3.65 6.35 2.45 6.05 1.2 5.75 0.55 4.65" fill="#3e4430" fill-rule="evenodd" stroke="none"/>
      <path d="M0.55 4.65 Q-0.15 3.55 0.05 2.35 0.3 1.15 1.3 0.45 2.3 -0.2 3.5 0.1 4.75 0.4 5.4 1.5 6.1 2.6 5.9 3.8 5.65 5.0 4.65 5.7 3.65 6.35 2.45 6.05 1.2 5.75 0.55 4.65" fill="#3d432f" fill-rule="evenodd" stroke="none"/>
      <path d="M0.55 4.65 Q-0.15 3.55 0.05 2.35 0.3 1.15 1.3 0.45 2.3 -0.2 3.5 0.1 4.75 0.4 5.4 1.5 6.1 2.6 5.9 3.8 5.65 5.0 4.65 5.7 3.65 6.35 2.45 6.05 1.2 5.75 0.55 4.65" fill="#3c422e" fill-rule="evenodd" stroke="none"/>
      <path d="M0.55 4.65 Q-0.15 3.55 0.05 2.35 0.3 1.15 1.3 0.45 2.3 -0.2 3.5 0.1 4.75 0.4 5.4 1.5 6.1 2.6 5.9 3.8 5.65 5.0 4.65 5.7 3.65 6.35 2.45 6.05 1.2 5.75 0.55 4.65" fill="#3b412d" fill-rule="evenodd" stroke="none"/>
      <path d="M0.55 4.65 Q-0.15 3.55 0.05 2.35 0.3 1.15 1.3 0.5 2.3 -0.15 3.5 0.1 4.75 0.4 5.4 1.5 6.1 2.6 5.9 3.8 5.65 5.0 4.65 5.7 3.65 6.35 2.45 6.05 1.2 5.75 0.55 4.65" fill="#3a3f2d" fill-rule="evenodd" stroke="none"/>
      <path d="M0.55 4.65 Q-0.15 3.55 0.05 2.35 0.3 1.15 1.3 0.5 2.3 -0.15 3.5 0.1 4.7 0.4 5.4 1.5 6.1 2.6 5.9 3.8 5.65 5.0 4.65 5.65 3.65 6.35 2.45 6.05 1.25 5.75 0.55 4.65" fill="#393e2c" fill-rule="evenodd" stroke="none"/>
      <path d="M0.55 4.65 Q-0.15 3.55 0.05 2.35 0.3 1.15 1.3 0.5 2.3 -0.15 3.5 0.1 4.7 0.4 5.4 1.5 6.1 2.6 5.85 3.8 5.65 5.0 4.65 5.65 3.65 6.35 2.45 6.05 1.25 5.75 0.55 4.65" fill="#383d2b" fill-rule="evenodd" stroke="none"/>
      <path d="M0.55 4.65 Q-0.15 3.55 0.05 2.35 0.3 1.15 1.3 0.5 2.3 -0.15 3.5 0.15 4.7 0.45 5.4 1.5 6.1 2.6 5.85 3.8 5.65 5.0 4.65 5.65 3.65 6.3 2.45 6.0 1.25 5.7 0.55 4.65" fill="#373c2a" fill-rule="evenodd" stroke="none"/>
      <path d="M0.55 4.65 Q-0.15 3.55 0.05 2.35 0.3 1.15 1.3 0.5 2.3 -0.15 3.5 0.15 4.7 0.45 5.4 1.5 6.1 2.6 5.85 3.8 5.65 5.0 4.65 5.65 3.65 6.3 2.45 6.0 1.25 5.7 0.55 4.65" fill="#363b2a" fill-rule="evenodd" stroke="none"/>
      <path d="M0.55 4.65 Q-0.15 3.55 0.05 2.35 0.3 1.15 1.3 0.5 2.3 -0.15 3.5 0.15 4.7 0.45 5.4 1.5 6.05 2.6 5.85 3.8 5.65 5.0 4.65 5.65 3.65 6.3 2.45 6.0 1.25 5.7 0.55 4.65" fill="#353a29" fill-rule="evenodd" stroke="none"/>
      <path d="M0.55 4.65 Q-0.15 3.55 0.05 2.35 0.3 1.15 1.3 0.5 2.3 -0.15 3.5 0.15 4.7 0.45 5.4 1.5 6.05 2.6 5.85 3.8 5.65 5.0 4.65 5.65 3.65 6.3 2.45 6.0 1.25 5.7 0.55 4.65" fill="#343928" fill-rule="evenodd" stroke="none"/>
      <path d="M0.55 4.65 Q-0.15 3.55 0.1 2.35 0.3 1.15 1.3 0.5 2.3 -0.15 3.5 0.15 4.7 0.45 5.4 1.5 6.05 2.6 5.85 3.8 5.65 5.0 4.65 5.65 3.65 6.3 2.45 6.0 1.25 5.7 0.55 4.65" fill="#333827" fill-rule="evenodd" stroke="none"/>
      <path d="M0.55 4.65 Q-0.15 3.55 0.1 2.35 0.3 1.15 1.3 0.5 2.3 -0.15 3.5 0.15 4.7 0.45 5.4 1.5 6.05 2.6 5.85 3.8 5.65 5.0 4.65 5.65 3.65 6.3 2.45 6.0 1.25 5.7 0.55 4.65" fill="#323727" fill-rule="evenodd" stroke="none"/>
      <path d="M0.55 4.65 Q-0.15 3.55 0.1 2.35 0.3 1.15 1.3 0.5 2.3 -0.15 3.5 0.15 4.7 0.45 5.35 1.5 6.05 2.6 5.85 3.8 5.65 5.0 4.65 5.65 3.65 6.3 2.45 6.0 1.25 5.7 0.55 4.65" fill="#313626" fill-rule="evenodd" stroke="none"/>
      <path d="M0.55 4.6 Q-0.15 3.55 0.1 2.35 0.3 1.15 1.3 0.5 2.3 -0.15 3.5 0.15 4.7 0.45 5.35 1.5 6.05 2.6 5.85 3.8 5.6 5.0 4.6 5.65 3.6 6.3 2.45 6.0 1.2 5.7 0.55 4.6" fill="#313626" fill-rule="evenodd" stroke="none"/>
      <path d="M0.6 4.6 Q-0.1 3.55 0.15 2.35 0.35 1.15 1.3 0.5 2.3 -0.1 3.45 0.2 4.65 0.45 5.3 1.5 6.0 2.55 5.8 3.75 5.6 4.95 4.6 5.6 3.65 6.25 2.45 5.95 1.3 5.65 0.6 4.6" fill="#323727" fill-rule="evenodd" stroke="none"/>
      <path d="M0.6 4.55 Q-0.05 3.5 0.15 2.35 0.35 1.2 1.35 0.55 2.3 -0.1 3.45 0.2 4.6 0.5 5.25 1.55 5.95 2.55 5.75 3.75 5.5 4.9 4.55 5.55 3.6 6.15 2.45 5.85 1.3 5.55 0.6 4.55" fill="#333827" fill-rule="evenodd" stroke="none"/>
      <path d="M0.65 4.5 Q0.0 3.5 0.2 2.35 0.4 1.2 1.35 0.55 2.3 -0.05 3.45 0.25 4.55 0.55 5.2 1.55 5.9 2.55 5.7 3.7 5.45 4.85 4.5 5.45 3.55 6.1 2.45 5.8 1.3 5.5 0.65 4.5" fill="#343928" fill-rule="evenodd" stroke="none"/>
      <path d="M0.65 4.45 Q0.0 3.45 0.2 2.35 0.4 1.2 1.35 0.6 2.3 0.0 3.4 0.25 4.55 0.55 5.2 1.55 5.85 2.55 5.6 3.7 5.4 4.8 4.5 5.4 3.55 6.0 2.45 5.75 1.3 5.45 0.65 4.45" fill="#353a29" fill-rule="evenodd" stroke="none"/>
      <path d="M0.7 4.4 Q0.05 3.4 0.25 2.3 0.45 1.2 1.4 0.6 2.3 0.05 3.4 0.3 4.5 0.6 5.15 1.55 5.75 2.55 5.55 3.65 5.35 4.75 4.45 5.35 3.5 5.95 2.45 5.7 1.35 5.4 0.7 4.4" fill="#363b2a" fill-rule="evenodd" stroke="none"/>
      <path d="M0.7 4.4 Q0.1 3.4 0.3 2.35 0.5 1.25 1.4 0.65 2.3 0.05 3.4 0.35 4.45 0.6 5.1 1.55 5.7 2.55 5.5 3.65 5.3 4.75 4.4 5.3 3.5 5.9 2.4 5.6 1.35 5.35 0.7 4.4" fill="#373c2a" fill-rule="evenodd" stroke="none"/>
      <path d="M0.75 4.35 Q0.15 3.4 0.35 2.35 0.55 1.25 1.4 0.65 2.3 0.1 3.35 0.35 4.4 0.65 5.05 1.6 5.65 2.55 5.45 3.6 5.25 4.7 4.35 5.25 3.5 5.8 2.4 5.55 1.35 5.3 0.75 4.35" fill="#383d2b" fill-rule="evenodd" stroke="none"/>
      <path d="M0.75 4.3 Q0.15 3.35 0.35 2.3 0.55 1.25 1.45 0.7 2.3 0.15 3.35 0.4 4.4 0.65 5.0 1.6 5.6 2.55 5.4 3.6 5.2 4.65 4.35 5.2 3.45 5.75 2.4 5.5 1.4 5.25 0.75 4.3" fill="#393e2c" fill-rule="evenodd" stroke="none"/>
      <path d="M0.8 4.25 Q0.2 3.35 0.4 2.3 0.6 1.3 1.45 0.75 2.3 0.2 3.35 0.45 4.35 0.7 4.95 1.6 5.5 2.5 5.35 3.55 5.15 4.6 4.3 5.15 3.45 5.7 2.4 5.45 1.4 5.2 0.8 4.25" fill="#3a3f2d" fill-rule="evenodd" stroke="none"/>
      <path d="M0.85 4.25 Q0.25 3.35 0.45 2.35 0.6 1.3 1.45 0.75 2.3 0.2 3.3 0.45 4.3 0.7 4.9 1.6 5.45 2.5 5.3 3.5 5.1 4.55 4.25 5.1 3.45 5.65 2.4 5.35 1.4 5.1 0.85 4.25" fill="#3b412d" fill-rule="evenodd" stroke="none"/>
      <path d="M0.85 4.2 Q0.3 3.3 0.45 2.3 0.65 1.3 1.45 0.8 2.25 0.25 3.3 0.5 4.3 0.75 4.85 1.6 5.4 2.5 5.2 3.5 5.05 4.5 4.2 5.05 3.4 5.55 2.4 5.3 1.4 5.05 0.85 4.2" fill="#3c422e" fill-rule="evenodd" stroke="none"/>
      <path d="M0.9 4.15 Q0.35 3.3 0.5 2.3 0.7 1.3 1.5 0.8 2.3 0.3 3.25 0.55 4.25 0.8 4.8 1.65 5.35 2.5 5.2 3.5 5.0 4.45 4.2 4.95 3.4 5.5 2.4 5.25 1.45 5.0 0.9 4.15" fill="#3d432f" fill-rule="evenodd" stroke="none"/>
      <path d="M0.9 4.1 Q0.35 3.25 0.55 2.3 0.7 1.35 1.5 0.85 2.3 0.35 3.25 0.55 4.2 0.8 4.75 1.65 5.3 2.5 5.1 3.45 4.95 4.4 4.15 4.9 3.35 5.45 2.4 5.2 1.45 4.95 0.9 4.1" fill="#3e4430" fill-rule="evenodd" stroke="none"/>
      <path d="M0.95 4.05 Q0.4 3.25 0.55 2.3 0.75 1.35 1.5 0.85 2.3 0.35 3.25 0.6 4.2 0.85 4.7 1.65 5.25 2.5 5.05 3.4 4.9 4.35 4.1 4.85 3.3 5.4 2.4 5.15 1.5 4.9 0.95 4.05" fill="#3f4530" fill-rule="evenodd" stroke="none"/>
      <path d="M0.95 4.05 Q0.4 3.2 0.6 2.3 0.75 1.4 1.55 0.9 2.3 0.4 3.2 0.6 4.15 0.8 4.65 1.65 5.2 2.5 5.0 3.4 4.85 4.3 4.05 4.8 3.3 5.3 2.4 5.05 1.5 4.85 0.95 4.05" fill="#404631" fill-rule="evenodd" stroke="none"/>
      <path d="M1.0 4.0 Q0.5 3.2 0.65 2.3 0.8 1.4 1.55 0.9 2.3 0.4 3.2 0.65 4.05 0.85 4.6 1.65 5.15 2.45 4.95 3.35 4.8 4.25 4.05 4.75 3.3 5.25 2.4 5.0 1.55 4.8 1.0 4.0" fill="#414732" fill-rule="evenodd" stroke="none"/>
      <path d="M1.0 3.95 Q0.5 3.15 0.7 2.3 0.85 1.4 1.55 0.95 2.3 0.45 3.15 0.7 4.0 0.9 4.55 1.7 5.05 2.45 4.9 3.35 4.7 4.2 4.0 4.7 3.3 5.2 2.4 4.95 1.55 4.75 1.0 3.95" fill="#424833" fill-rule="evenodd" stroke="none"/>
      <path d="M1.05 3.9 Q0.55 3.15 0.75 2.3 0.9 1.4 1.6 0.95 2.3 0.5 3.15 0.7 4.0 0.9 4.5 1.7 5.0 2.45 4.85 3.35 4.65 4.2 3.95 4.65 L2.4 4.9 Q1.55 4.7 1.05 3.9" fill="#434933" fill-rule="evenodd" stroke="none"/>
      <path d="M1.1 3.85 Q0.6 3.15 0.75 2.3 0.9 1.45 1.6 1.0 2.3 0.55 3.15 0.75 3.95 0.95 4.45 1.7 4.95 2.45 4.8 3.3 4.65 4.15 3.95 4.6 L2.4 4.85 Q1.55 4.6 1.1 3.85" fill="#444a34" fill-rule="evenodd" stroke="none"/>
      <path d="M1.1 3.85 Q0.65 3.15 0.8 2.3 0.95 1.45 1.6 1.0 L3.15 0.8 Q3.95 1.0 4.4 1.7 4.9 2.45 4.75 3.3 4.6 4.1 3.9 4.55 L2.4 4.8 Q1.6 4.55 1.1 3.85" fill="#444a34" fill-rule="evenodd" stroke="none"/>
      <path d="M1.15 3.85 Q0.65 3.1 0.8 2.3 0.95 1.45 1.65 1.05 2.3 0.6 3.1 0.8 3.9 1.0 4.4 1.7 4.85 2.45 4.7 3.25 4.55 4.1 3.9 4.5 L2.4 4.75 Q1.6 4.55 1.15 3.85" fill="#454b35" fill-rule="evenodd" stroke="none"/>
      <path d="M1.15 3.8 Q0.7 3.1 0.85 2.3 1.0 1.45 1.65 1.05 2.3 0.6 3.1 0.8 3.9 1.05 4.35 1.75 4.85 2.45 4.7 3.25 4.55 4.05 3.85 4.5 L2.4 4.7 Q1.6 4.5 1.15 3.8" fill="#464c35" fill-rule="evenodd" stroke="none"/>
      <path d="M1.15 3.8 Q0.7 3.1 0.85 2.3 1.0 1.5 1.65 1.05 2.35 0.65 3.1 0.85 3.9 1.05 4.35 1.75 4.8 2.4 4.65 3.25 4.5 4.05 3.85 4.45 3.2 4.9 2.4 4.7 1.6 4.5 1.15 3.8" fill="#474c36" fill-rule="evenodd" stroke="none"/>
      <path d="M1.15 3.75 Q0.7 3.1 0.85 2.3 1.0 1.5 1.65 1.1 2.3 0.65 3.05 0.85 3.85 1.05 4.3 1.75 4.75 2.45 4.6 3.2 4.5 4.0 3.85 4.45 L2.4 4.65 Q1.6 4.45 1.15 3.75" fill="#484d37" fill-rule="evenodd" stroke="none"/>
      <path d="M1.2 3.75 Q0.75 3.1 0.9 2.3 1.0 1.5 1.65 1.1 L3.05 0.9 Q3.85 1.1 4.3 1.75 4.75 2.4 4.6 3.2 4.45 4.0 3.8 4.4 L2.4 4.6 Q1.6 4.45 1.2 3.75" fill="#494e37" fill-rule="evenodd" stroke="none"/>
      <path d="M1.2 3.75 Q0.75 3.1 0.9 2.3 1.0 1.5 1.65 1.1 L3.05 0.9 Q3.85 1.1 4.25 1.75 4.7 2.45 4.55 3.2 4.45 4.0 3.8 4.4 L2.4 4.6 Q1.65 4.45 1.2 3.75" fill="#4a4f38" fill-rule="evenodd" stroke="none"/>
      <path d="M1.2 3.7 Q0.8 3.0 0.95 2.25 1.05 1.5 1.7 1.1 L3.05 0.9 Q3.8 1.1 4.25 1.75 4.65 2.45 4.55 3.2 4.4 3.95 3.75 4.35 3.15 4.75 2.4 4.55 1.65 4.4 1.2 3.7" fill="#4b5039" fill-rule="evenodd" stroke="none"/>
      <path d="M1.2 3.7 Q0.8 3.0 0.95 2.3 1.05 1.5 1.7 1.15 L3.05 0.95 Q3.8 1.1 4.2 1.75 4.65 2.45 4.5 3.2 4.4 3.95 3.75 4.35 3.15 4.75 2.4 4.55 L1.2 3.7" fill="#4c5039" fill-rule="evenodd" stroke="none"/>
      <path d="M1.25 3.65 Q0.8 3.0 0.95 2.25 1.1 1.55 1.7 1.15 L3.05 0.95 Q3.8 1.1 4.2 1.75 4.6 2.45 4.5 3.15 4.35 3.9 3.75 4.3 L2.4 4.5 Q1.65 4.35 1.25 3.65" fill="#4d513a" fill-rule="evenodd" stroke="none"/>
      <path d="M1.25 3.65 Q0.85 3.0 0.95 2.25 1.1 1.55 1.7 1.15 L3.0 0.95 Q3.75 1.1 4.15 1.75 4.6 2.4 4.45 3.15 L3.7 4.25 Q3.1 4.65 2.4 4.5 L1.25 3.65" fill="#4e523b" fill-rule="evenodd" stroke="none"/>
      <path d="M1.25 3.65 Q0.85 3.0 0.95 2.3 1.1 1.55 1.7 1.15 L3.0 0.95 Q3.75 1.1 4.15 1.75 4.55 2.4 4.45 3.15 4.3 3.9 3.7 4.25 3.1 4.65 2.4 4.45 1.65 4.3 1.25 3.65" fill="#4f533b" fill-rule="evenodd" stroke="none"/>
      <path d="M1.3 3.6 Q0.9 3.0 1.0 2.3 1.15 1.6 1.7 1.2 L3.0 1.0 Q3.7 1.15 4.1 1.8 4.5 2.4 4.4 3.1 4.25 3.8 3.7 4.2 3.1 4.6 2.4 4.4 1.65 4.25 1.3 3.6" fill="#50543c" fill-rule="evenodd" stroke="none"/>
      <path d="M1.3 3.6 Q0.9 2.95 1.0 2.25 1.15 1.6 1.75 1.2 L3.0 1.0 Q3.7 1.15 4.1 1.8 4.5 2.4 4.4 3.1 4.25 3.85 3.65 4.2 L2.4 4.4 Q1.7 4.2 1.3 3.6" fill="#52543d" fill-rule="evenodd" stroke="none"/>
      <path d="M1.3 3.6 Q0.9 2.95 1.05 2.25 1.15 1.55 1.75 1.2 L3.0 1.0 Q3.7 1.15 4.05 1.8 4.45 2.4 4.35 3.1 4.2 3.75 3.65 4.15 L2.4 4.35 Q1.7 4.2 1.3 3.6" fill="#53553e" fill-rule="evenodd" stroke="none"/>
      <path d="M1.3 3.55 Q0.95 2.95 1.05 2.25 1.2 1.6 1.75 1.2 L3.0 1.05 Q3.7 1.2 4.05 1.8 4.45 2.4 4.3 3.1 4.2 3.8 3.65 4.15 L2.4 4.3 Q1.7 4.15 1.3 3.55" fill="#54563e" fill-rule="evenodd" stroke="none"/>
      <path d="M1.35 3.55 Q0.95 2.95 1.05 2.25 1.2 1.6 1.75 1.25 L3.0 1.05 4.05 1.8 Q4.45 2.4 4.3 3.1 4.15 3.75 3.6 4.1 L2.4 4.3 Q1.75 4.15 1.35 3.55" fill="#55573f" fill-rule="evenodd" stroke="none"/>
      <path d="M1.35 3.5 Q0.95 2.95 1.1 2.25 1.2 1.6 1.75 1.25 2.3 0.9 2.95 1.05 3.65 1.2 4.0 1.8 L4.25 3.05 3.6 4.1 2.4 4.25 1.35 3.5" fill="#565840" fill-rule="evenodd" stroke="none"/>
      <path d="M1.35 3.5 Q1.0 2.95 1.1 2.25 1.2 1.6 1.75 1.25 L2.95 1.1 Q3.65 1.25 4.0 1.8 4.4 2.4 4.25 3.05 4.1 3.7 3.55 4.05 L2.4 4.25 Q1.75 4.05 1.35 3.5" fill="#575840" fill-rule="evenodd" stroke="none"/>
      <path d="M1.35 3.5 Q1.0 2.9 1.1 2.25 1.25 1.6 1.75 1.25 L2.95 1.1 3.95 1.8 Q4.3 2.35 4.2 3.0 L3.55 4.05 2.4 4.25 Q1.75 4.05 1.35 3.5" fill="#585941" fill-rule="evenodd" stroke="none"/>
      <path d="M1.4 3.45 Q1.05 2.9 1.15 2.25 1.25 1.65 1.8 1.3 L2.95 1.1 3.95 1.8 Q4.3 2.35 4.2 3.0 4.05 3.65 3.55 4.0 L2.4 4.2 1.4 3.45" fill="#595a42" fill-rule="evenodd" stroke="none"/>
      <path d="M1.4 3.45 Q1.05 2.9 1.15 2.25 1.25 1.65 1.8 1.3 L2.95 1.1 Q3.55 1.25 3.9 1.8 4.25 2.35 4.15 3.0 4.05 3.6 3.5 3.95 L2.4 4.15 Q1.75 4.0 1.4 3.45" fill="#5a5b42" fill-rule="evenodd" stroke="none"/>
      <path d="M1.4 3.4 Q1.05 2.85 1.15 2.25 1.3 1.65 1.8 1.3 2.3 0.95 2.95 1.15 3.5 1.3 3.9 1.85 L4.15 3.0 Q4.0 3.6 3.5 3.95 L2.4 4.15 Q1.8 3.95 1.4 3.4" fill="#5b5c43" fill-rule="evenodd" stroke="none"/>
      <path d="M1.45 3.4 Q1.1 2.9 1.2 2.25 1.3 1.65 1.8 1.3 L2.9 1.15 3.85 1.85 4.1 3.0 Q4.0 3.6 3.5 3.9 L2.4 4.1 Q1.8 3.95 1.45 3.4" fill="#5c5c44" fill-rule="evenodd" stroke="none"/>
      <path d="M1.45 3.4 Q1.1 2.85 1.2 2.25 1.3 1.65 1.8 1.35 2.3 1.0 2.9 1.15 L3.85 1.85 4.1 2.95 3.45 3.9 2.4 4.05 Q1.8 3.9 1.45 3.4" fill="#5d5d44" fill-rule="evenodd" stroke="none"/>
      <path d="M1.45 3.35 Q1.1 2.8 1.2 2.25 1.3 1.65 1.8 1.35 2.3 1.0 2.9 1.15 3.45 1.3 3.8 1.85 4.15 2.4 4.05 2.95 3.95 3.55 3.45 3.85 L2.4 4.05 Q1.8 3.9 1.45 3.35" fill="#5e5e45" fill-rule="evenodd" stroke="none"/>
      <path d="M1.45 3.35 Q1.15 2.8 1.25 2.25 L1.85 1.35 2.9 1.2 Q3.45 1.35 3.8 1.85 4.15 2.35 4.0 2.95 3.9 3.55 3.45 3.85 L2.4 4.0 Q1.8 3.85 1.45 3.35" fill="#5e5e45" fill-rule="evenodd" stroke="none"/>
      <path d="M1.5 3.35 Q1.15 2.85 1.25 2.25 L1.85 1.35 2.9 1.2 Q3.45 1.35 3.75 1.85 L4.0 2.95 Q3.9 3.5 3.4 3.8 L2.4 4.0 Q1.8 3.85 1.5 3.35" fill="#5f5f46" fill-rule="evenodd" stroke="none"/>
      <path d="M1.5 3.3 Q1.15 2.8 1.25 2.25 1.35 1.7 1.85 1.4 2.3 1.1 2.85 1.25 3.4 1.35 3.75 1.85 L4.0 2.95 Q3.9 3.5 3.4 3.8 L2.4 3.95 1.5 3.3" fill="#606046" fill-rule="evenodd" stroke="none"/>
      <path d="M1.5 3.3 Q1.2 2.8 1.3 2.25 1.4 1.7 1.85 1.4 2.3 1.1 2.85 1.25 3.4 1.35 3.75 1.85 4.05 2.35 3.95 2.9 3.85 3.5 3.4 3.75 L2.4 3.9 1.5 3.3" fill="#616147" fill-rule="evenodd" stroke="none"/>
      <path d="M1.5 3.3 Q1.2 2.8 1.3 2.25 1.4 1.7 1.85 1.4 2.3 1.1 2.85 1.25 3.4 1.35 3.7 1.85 L3.95 2.9 Q3.85 3.45 3.35 3.75 L2.35 3.9 Q1.85 3.8 1.5 3.3" fill="#626247" fill-rule="evenodd" stroke="none"/>
      <path d="M1.55 3.25 Q1.2 2.8 1.3 2.25 1.4 1.7 1.85 1.4 2.3 1.15 2.85 1.25 3.4 1.4 3.7 1.85 4.0 2.35 3.9 2.9 L3.35 3.75 2.4 3.9 Q1.85 3.75 1.55 3.25" fill="#636348" fill-rule="evenodd" stroke="none"/>
      <path d="M1.55 3.25 Q1.25 2.8 1.35 2.25 1.45 1.7 1.85 1.45 2.3 1.15 2.85 1.3 L3.65 1.9 Q4.0 2.35 3.9 2.9 3.8 3.45 3.35 3.7 L2.4 3.85 Q1.85 3.75 1.55 3.25" fill="#646449" fill-rule="evenodd" stroke="none"/>
      <path d="M1.55 3.25 Q1.25 2.75 1.35 2.25 1.45 1.7 1.9 1.45 L2.85 1.3 3.65 1.9 Q3.95 2.35 3.85 2.9 L3.35 3.7 2.4 3.85 1.55 3.25" fill="#656549" fill-rule="evenodd" stroke="none"/>
      <path d="M1.55 3.2 Q1.25 2.75 1.35 2.25 1.45 1.7 1.9 1.45 L2.85 1.3 3.65 1.9 Q3.95 2.35 3.85 2.85 3.75 3.4 3.3 3.65 L2.35 3.8 1.55 3.2" fill="#66664a" fill-rule="evenodd" stroke="none"/>
      <path d="M1.55 3.2 Q1.3 2.75 1.4 2.25 1.5 1.7 1.9 1.45 L2.85 1.3 3.6 1.9 Q3.9 2.35 3.8 2.85 L3.3 3.65 2.35 3.8 1.55 3.2" fill="#67664a" fill-rule="evenodd" stroke="none"/>
      <path d="M1.6 3.2 Q1.3 2.75 1.4 2.25 1.5 1.75 1.9 1.45 L2.8 1.3 Q3.3 1.45 3.6 1.9 3.9 2.35 3.8 2.85 L3.3 3.6 2.4 3.75 Q1.85 3.65 1.6 3.2" fill="#68674b" fill-rule="evenodd" stroke="none"/>
      <path d="M1.6 3.15 Q1.3 2.75 1.4 2.25 1.5 1.75 1.9 1.5 L2.8 1.35 Q3.3 1.45 3.55 1.9 3.85 2.35 3.75 2.85 L3.25 3.6 2.35 3.75 Q1.85 3.6 1.6 3.15" fill="#69684c" fill-rule="evenodd" stroke="none"/>
      <path d="M1.6 3.15 Q1.35 2.75 1.4 2.25 1.5 1.75 1.9 1.5 L2.8 1.35 3.55 1.9 3.75 2.8 3.25 3.55 2.35 3.7 1.6 3.15" fill="#6a694c" fill-rule="evenodd" stroke="none"/>
      <path d="M1.6 3.15 Q1.35 2.75 1.45 2.25 1.5 1.75 1.9 1.5 L2.8 1.35 3.55 1.9 Q3.8 2.3 3.7 2.8 L3.25 3.55 2.35 3.7 1.6 3.15" fill="#6b6a4d" fill-rule="evenodd" stroke="none"/>
      <path d="M1.65 3.15 Q1.35 2.7 1.45 2.25 1.5 1.75 1.9 1.5 L2.8 1.4 Q3.25 1.5 3.5 1.9 L3.7 2.8 3.2 3.5 2.35 3.65 1.65 3.15" fill="#6c6b4d" fill-rule="evenodd" stroke="none"/>
      <path d="M1.65 3.1 Q1.4 2.7 1.45 2.25 1.55 1.75 1.95 1.5 L2.8 1.4 Q3.25 1.5 3.5 1.9 3.75 2.3 3.65 2.8 L3.2 3.5 2.35 3.65 1.65 3.1" fill="#6d6c4e" fill-rule="evenodd" stroke="none"/>
      <path d="M1.65 3.1 Q1.4 2.7 1.5 2.25 1.55 1.8 1.95 1.55 2.3 1.3 2.8 1.4 3.25 1.5 3.5 1.9 3.75 2.3 3.65 2.8 L3.2 3.5 2.35 3.6 1.65 3.1" fill="#6e6d4f" fill-rule="evenodd" stroke="none"/>
      <path d="M1.65 3.1 Q1.4 2.7 1.5 2.25 1.6 1.75 1.95 1.55 L2.75 1.45 Q3.2 1.55 3.45 1.9 L3.65 2.75 3.2 3.45 2.35 3.6 1.65 3.1" fill="#6f6e4f" fill-rule="evenodd" stroke="none"/>
      <path d="M1.7 3.05 Q1.45 2.65 1.5 2.25 1.6 1.75 1.95 1.55 L2.75 1.45 Q3.2 1.55 3.45 1.95 L3.6 2.75 3.15 3.45 2.35 3.55 1.7 3.05" fill="#706f50" fill-rule="evenodd" stroke="none"/>
      <path d="M1.7 3.05 Q1.45 2.7 1.55 2.25 1.6 1.8 1.95 1.55 L2.75 1.45 Q3.2 1.55 3.4 1.95 L3.6 2.75 3.15 3.4 2.35 3.55 1.7 3.05" fill="#717050" fill-rule="evenodd" stroke="none"/>
      <path d="M1.7 3.05 Q1.45 2.65 1.55 2.25 1.6 1.8 1.95 1.6 2.75 1.05 3.4 1.95 L3.55 2.75 3.15 3.4 2.35 3.55 1.7 3.05" fill="#727151" fill-rule="evenodd" stroke="none"/>
      <path d="M1.7 3.0 Q1.15 2.1 1.95 1.6 2.8 1.1 3.4 1.95 3.95 2.85 3.1 3.35 2.3 3.9 1.7 3.0" fill="#737252" fill-rule="evenodd" stroke="none"/>
      <path d="M1.7 3.0 L1.55 2.25 Q1.65 1.85 2.0 1.6 L2.75 1.5 Q3.15 1.6 3.35 1.95 3.9 2.85 3.1 3.35 2.3 3.9 1.7 3.0" fill="#747352" fill-rule="evenodd" stroke="none"/>
      <path d="M1.75 3.0 Q1.2 2.1 2.0 1.6 L2.7 1.5 3.35 1.95 Q3.6 2.3 3.5 2.7 L3.1 3.3 2.35 3.45 1.75 3.0" fill="#757453" fill-rule="evenodd" stroke="none"/>
      <path d="M1.75 2.95 L1.6 2.2 Q1.65 1.85 2.0 1.6 L2.7 1.5 3.3 1.95 3.45 2.7 3.05 3.3 2.35 3.45 1.75 2.95" fill="#767553" fill-rule="evenodd" stroke="none"/>
      <path d="M1.75 2.95 Q1.5 2.6 1.6 2.25 1.65 1.85 2.0 1.65 2.3 1.45 2.7 1.5 L3.3 1.95 3.45 2.7 3.05 3.3 2.35 3.4 1.75 2.95" fill="#787654" fill-rule="evenodd" stroke="none"/>
      <path d="M1.75 2.95 Q1.55 2.6 1.65 2.25 1.7 1.85 2.0 1.65 2.3 1.45 2.7 1.5 L3.3 1.95 3.4 2.7 3.05 3.25 2.35 3.35 1.75 2.95" fill="#797655" fill-rule="evenodd" stroke="none"/>
      <path d="M1.8 2.9 L1.65 2.2 Q1.7 1.85 2.0 1.65 2.7 1.2 3.25 1.95 3.75 2.7 3.05 3.25 2.25 3.7 1.8 2.9" fill="#7a7755" fill-rule="evenodd" stroke="none"/>
      <path d="M1.8 2.9 L1.65 2.2 Q1.7 1.85 2.0 1.65 2.7 1.2 3.25 1.95 3.7 2.75 3.0 3.2 L2.35 3.3 1.8 2.9" fill="#7b7856" fill-rule="evenodd" stroke="none"/>
      <path d="M1.8 2.9 Q1.4 2.15 2.0 1.65 L2.65 1.55 3.2 1.95 3.35 2.65 3.0 3.2 2.35 3.3 1.8 2.9" fill="#7c7956" fill-rule="evenodd" stroke="none"/>
      <path d="M1.8 2.85 Q1.35 2.15 2.05 1.7 L2.65 1.6 3.2 2.0 Q3.65 2.7 3.0 3.15 2.3 3.6 1.8 2.85" fill="#7d7a57" fill-rule="evenodd" stroke="none"/>
      <path d="M1.85 2.85 L1.7 2.2 Q1.75 1.9 2.05 1.7 2.65 1.25 3.2 2.0 3.65 2.7 2.95 3.15 L2.35 3.25 1.85 2.85" fill="#7e7b58" fill-rule="evenodd" stroke="none"/>
      <path d="M1.85 2.85 Q1.4 2.15 2.05 1.7 L2.65 1.6 3.15 2.0 3.3 2.6 2.95 3.1 Q2.3 3.55 1.85 2.85" fill="#7f7c58" fill-rule="evenodd" stroke="none"/>
      <path d="M1.85 2.8 Q1.65 2.55 1.75 2.2 L2.05 1.7 Q2.7 1.3 3.15 2.0 L3.3 2.6 2.95 3.1 Q2.3 3.5 1.85 2.8" fill="#807d59" fill-rule="evenodd" stroke="none"/>
      <path d="M1.85 2.8 Q1.65 2.55 1.75 2.2 L2.05 1.75 2.65 1.65 Q2.95 1.7 3.1 2.0 L3.25 2.6 2.9 3.05 2.35 3.15 1.85 2.8" fill="#817e59" fill-rule="evenodd" stroke="none"/>
      <path d="M1.85 2.8 L1.75 2.2 2.05 1.75 Q2.65 1.35 3.1 2.0 L3.25 2.6 2.9 3.05 Q2.3 3.4 1.85 2.8" fill="#827f5a" fill-rule="evenodd" stroke="none"/>
      <path d="M1.9 2.75 L1.75 2.2 2.05 1.75 Q2.65 1.4 3.1 2.0 3.45 2.6 2.9 3.05 2.25 3.45 1.9 2.75" fill="#83805b" fill-rule="evenodd" stroke="none"/>
      <path d="M1.9 2.75 L1.75 2.2 2.05 1.75 Q2.7 1.4 3.05 2.0 3.5 2.6 2.9 3.0 2.25 3.35 1.9 2.75" fill="#84815b" fill-rule="evenodd" stroke="none"/>
      <path d="M1.9 2.75 Q1.5 2.1 2.1 1.75 2.6 1.4 3.05 2.0 3.45 2.65 2.85 3.0 L2.35 3.1 1.9 2.75" fill="#85825c" fill-rule="evenodd" stroke="none"/>
      <path d="M1.9 2.7 Q1.55 2.15 2.1 1.8 2.65 1.45 3.0 2.0 3.4 2.6 2.85 2.95 2.35 3.3 1.9 2.7" fill="#86835c" fill-rule="evenodd" stroke="none"/>
      <path d="M1.95 2.7 Q1.5 2.2 2.1 1.8 2.65 1.45 3.0 2.0 3.35 2.6 2.85 2.95 2.35 3.3 1.95 2.7" fill="#87845d" fill-rule="evenodd" stroke="none"/>
      <path d="M1.95 2.7 Q1.6 2.15 2.1 1.8 2.65 1.45 3.0 2.0 3.35 2.6 2.8 2.9 2.35 3.3 1.95 2.7" fill="#88855e" fill-rule="evenodd" stroke="none"/>
      <path d="M1.95 2.7 Q1.6 2.2 2.1 1.8 2.6 1.55 2.95 2.05 3.35 2.55 2.8 2.9 2.35 3.2 1.95 2.7" fill="#89855e" fill-rule="evenodd" stroke="none"/>
      <path d="M1.95 2.65 Q1.7 2.1 2.1 1.85 2.6 1.5 2.95 2.05 L3.05 2.5 2.8 2.85 Q2.3 3.2 1.95 2.65" fill="#8a865f" fill-rule="evenodd" stroke="none"/>
      <path d="M1.95 2.65 Q1.7 2.1 2.1 1.85 2.65 1.5 2.9 2.05 L3.0 2.5 2.75 2.85 Q2.3 3.1 1.95 2.65" fill="#8b875f" fill-rule="evenodd" stroke="none"/>
      <path d="M2.0 2.65 Q1.65 2.1 2.15 1.85 2.6 1.6 2.9 2.05 3.2 2.55 2.75 2.8 2.3 3.15 2.0 2.65" fill="#8c8860" fill-rule="evenodd" stroke="none"/>
      <path d="M2.0 2.6 Q1.7 2.1 2.15 1.85 2.55 1.6 2.9 2.05 3.2 2.55 2.75 2.8 2.3 3.1 2.0 2.6" fill="#8d8961" fill-rule="evenodd" stroke="none"/>
      <path d="M2.0 2.6 Q1.7 2.1 2.15 1.85 2.6 1.6 2.85 2.05 3.15 2.5 2.75 2.8 2.3 3.1 2.0 2.6" fill="#8e8a61" fill-rule="evenodd" stroke="none"/>
      <path d="M2.0 2.6 Q1.7 2.1 2.15 1.9 L2.5 1.85 2.85 2.05 Q3.1 2.5 2.7 2.75 2.4 3.0 2.0 2.6" fill="#8f8b62" fill-rule="evenodd" stroke="none"/>
      <path d="M2.05 2.55 Q1.8 2.2 2.15 1.9 2.55 1.6 2.8 2.05 3.05 2.5 2.7 2.75 2.3 2.95 2.05 2.55" fill="#908c62" fill-rule="evenodd" stroke="none"/>
      <path d="M2.05 2.55 Q1.8 2.2 2.15 1.9 2.5 1.65 2.8 2.05 3.05 2.45 2.7 2.7 2.35 2.9 2.05 2.55" fill="#918d63" fill-rule="evenodd" stroke="none"/>
      <path d="M2.05 2.55 Q1.8 2.15 2.15 1.9 2.55 1.7 2.8 2.05 L2.65 2.7 Q2.3 2.9 2.05 2.55" fill="#918d63" fill-rule="evenodd" stroke="none"/>
      <path d="M2.05 2.55 Q1.85 2.2 2.15 1.9 2.55 1.7 2.8 2.05 L2.65 2.7 Q2.3 2.9 2.05 2.55" fill="#928e64" fill-rule="evenodd" stroke="none"/>
      <path d="M2.05 2.55 Q1.9 2.15 2.15 1.9 2.55 1.7 2.75 2.05 3.0 2.45 2.65 2.7 2.3 2.9 2.05 2.55" fill="#938f64" fill-rule="evenodd" stroke="none"/>
      <path d="M2.05 2.5 Q1.85 2.1 2.2 1.95 2.3 1.85 2.5 1.85 L2.75 2.05 Q3.0 2.45 2.65 2.65 2.3 2.9 2.05 2.5" fill="#949065" fill-rule="evenodd" stroke="none"/>
      <path d="M2.05 2.5 Q1.85 2.1 2.2 1.95 2.3 1.85 2.5 1.85 L2.75 2.05 Q3.0 2.45 2.65 2.65 2.35 2.9 2.05 2.5" fill="#959166" fill-rule="evenodd" stroke="none"/>
      <path d="M2.1 2.5 Q1.85 2.15 2.2 1.95 2.45 1.7 2.75 2.1 3.0 2.45 2.65 2.65 2.3 2.9 2.1 2.5" fill="#969266" fill-rule="evenodd" stroke="none"/>
      <path d="M2.1 2.5 Q1.85 2.15 2.2 1.95 2.45 1.7 2.75 2.1 3.0 2.5 2.65 2.65 2.25 2.85 2.1 2.5" fill="#979367" fill-rule="evenodd" stroke="none"/>
      <path d="M2.1 2.5 Q1.85 2.15 2.2 1.95 2.45 1.7 2.75 2.1 2.95 2.35 2.65 2.65 2.25 2.85 2.1 2.5" fill="#989468" fill-rule="evenodd" stroke="none"/>
      <path d="M2.1 2.5 Q1.85 2.15 2.2 1.95 2.5 1.75 2.75 2.1 2.95 2.35 2.65 2.65 2.25 2.85 2.1 2.5" fill="#999468" fill-rule="evenodd" stroke="none"/>
      <path d="M2.1 2.5 Q1.85 2.15 2.2 1.95 2.5 1.75 2.75 2.1 2.95 2.35 2.65 2.65 2.25 2.85 2.1 2.5" fill="#9a9569" fill-rule="evenodd" stroke="none"/>
      <path d="M2.1 2.5 Q1.9 2.1 2.2 1.95 2.5 1.75 2.7 2.1 3.0 2.4 2.6 2.6 2.35 2.85 2.1 2.5" fill="#9b9669" fill-rule="evenodd" stroke="none"/>
      <path d="M2.1 2.5 Q1.9 2.1 2.2 1.95 2.5 1.75 2.7 2.1 3.0 2.4 2.6 2.6 L2.1 2.5" fill="#9c976a" fill-rule="evenodd" stroke="none"/>
      <path d="M2.1 2.5 Q1.9 2.15 2.2 1.95 2.5 1.75 2.7 2.1 2.95 2.45 2.6 2.6 L2.1 2.5" fill="#9d986b" fill-rule="evenodd" stroke="none"/>
      <path d="M2.1 2.45 Q1.9 2.15 2.2 1.95 2.5 1.75 2.7 2.1 2.9 2.4 2.6 2.6 2.3 2.8 2.1 2.45" fill="#9e996b" fill-rule="evenodd" stroke="none"/>
      <path d="M2.1 2.45 Q1.9 2.15 2.2 1.95 2.5 1.75 2.7 2.1 2.9 2.4 2.6 2.6 2.3 2.8 2.1 2.45" fill="#9f9a6c" fill-rule="evenodd" stroke="none"/>
      <path d="M2.1 2.45 Q1.9 2.15 2.2 1.95 2.5 1.75 2.7 2.1 2.9 2.4 2.6 2.6 2.3 2.8 2.1 2.45" fill="#a09b6d" fill-rule="evenodd" stroke="none"/>
      <path d="M2.1 2.45 Q1.9 2.15 2.2 1.95 2.45 1.8 2.7 2.1 2.85 2.35 2.6 2.6 2.3 2.8 2.1 2.45" fill="#a19c6d" fill-rule="evenodd" stroke="none"/>
      <path d="M2.1 2.45 Q1.9 2.2 2.2 2.0 L2.7 2.1 Q2.9 2.35 2.6 2.55 L2.1 2.45" fill="#a29d6e" fill-rule="evenodd" stroke="none"/>
      <path d="M2.1 2.45 Q1.9 2.2 2.2 2.0 2.45 1.8 2.65 2.1 2.85 2.4 2.6 2.55 L2.1 2.45" fill="#a39e6f" fill-rule="evenodd" stroke="none"/>
      <path d="M2.15 2.45 Q1.95 2.15 2.2 2.0 2.45 1.8 2.65 2.1 2.85 2.4 2.6 2.55 2.35 2.75 2.15 2.45" fill="#a49f6f" fill-rule="evenodd" stroke="none"/>
      <path d="M2.15 2.45 Q1.95 2.15 2.2 2.0 2.45 1.8 2.65 2.1 L2.6 2.55 Q2.35 2.75 2.15 2.45" fill="#a5a070" fill-rule="evenodd" stroke="none"/>
      <path d="M2.15 2.45 Q1.95 2.15 2.2 2.0 2.45 1.8 2.65 2.1 2.85 2.35 2.55 2.55 2.35 2.75 2.15 2.45" fill="#a6a171" fill-rule="evenodd" stroke="none"/>
      <path d="M2.15 2.4 Q2.0 2.25 2.2 2.0 2.45 1.8 2.65 2.1 2.85 2.35 2.55 2.55 L2.15 2.4" fill="#a7a171" fill-rule="evenodd" stroke="none"/>
      <path d="M2.15 2.4 Q2.0 2.2 2.2 2.0 2.45 1.8 2.65 2.1 2.85 2.4 2.55 2.5 2.3 2.65 2.15 2.4" fill="#a8a272" fill-rule="evenodd" stroke="none"/>
      <path d="M2.15 2.4 Q2.0 2.2 2.2 2.0 2.45 1.8 2.65 2.1 L2.55 2.5 Q2.3 2.65 2.15 2.4" fill="#a9a373" fill-rule="evenodd" stroke="none"/>
      <path d="M2.15 2.4 Q2.0 2.2 2.2 2.0 2.5 1.8 2.6 2.1 L2.55 2.5 Q2.3 2.65 2.15 2.4" fill="#aaa473" fill-rule="evenodd" stroke="none"/>
      <path d="M2.15 2.4 Q2.0 2.15 2.25 2.0 2.5 1.75 2.6 2.1 L2.55 2.5 Q2.3 2.65 2.15 2.4" fill="#aba574" fill-rule="evenodd" stroke="none"/>
      <path d="M2.15 2.4 Q2.0 2.15 2.25 2.0 L2.6 2.1 2.55 2.5 Q2.3 2.65 2.15 2.4" fill="#aca674" fill-rule="evenodd" stroke="none"/>
      <path d="M2.15 2.4 Q2.05 2.15 2.25 2.0 L2.6 2.1 2.55 2.5 2.15 2.4" fill="#ada775" fill-rule="evenodd" stroke="none"/>
      <path d="M2.15 2.4 Q2.05 2.15 2.25 2.0 L2.6 2.1 2.55 2.5 2.15 2.4" fill="#aea876" fill-rule="evenodd" stroke="none"/>
      <path d="M2.15 2.4 Q2.05 2.15 2.25 2.0 L2.6 2.1 2.55 2.45 2.15 2.4" fill="#afa976" fill-rule="evenodd" stroke="none"/>
      <path d="M2.15 2.4 Q2.05 2.15 2.25 2.0 L2.6 2.1 2.5 2.45 2.15 2.4" fill="#b0aa77" fill-rule="evenodd" stroke="none"/>
      <path d="M2.2 2.35 Q2.0 2.15 2.25 2.05 L2.6 2.1 2.5 2.45 Q2.3 2.65 2.2 2.35" fill="#b1ab78" fill-rule="evenodd" stroke="none"/>
      <path d="M2.2 2.35 Q2.0 2.15 2.25 2.05 L2.55 2.1 Q2.7 2.35 2.5 2.45 2.25 2.55 2.2 2.35" fill="#b2ac78" fill-rule="evenodd" stroke="none"/>
      <path d="M2.2 2.35 Q2.0 2.15 2.25 2.05 L2.55 2.1 Q2.7 2.35 2.5 2.45 2.25 2.55 2.2 2.35" fill="#b3ad79" fill-rule="evenodd" stroke="none"/>
      <path d="M2.2 2.35 Q2.0 2.15 2.25 2.05 L2.55 2.1 2.5 2.45 Q2.3 2.55 2.2 2.35" fill="#b4ae7a" fill-rule="evenodd" stroke="none"/>
      <path d="M2.2 2.35 Q2.0 2.15 2.25 2.05 L2.55 2.1 2.5 2.45 Q2.3 2.55 2.2 2.35" fill="#b6ae7a" fill-rule="evenodd" stroke="none"/>
      <path d="M2.2 2.35 Q2.1 2.15 2.25 2.05 L2.55 2.1 2.5 2.4 2.2 2.35" fill="#b7af7b" fill-rule="evenodd" stroke="none"/>
      <path d="M2.2 2.35 Q2.1 2.15 2.25 2.05 L2.55 2.1 2.5 2.4 2.2 2.35" fill="#b8b07c" fill-rule="evenodd" stroke="none"/>
      <path d="M2.2 2.35 Q2.1 2.15 2.25 2.05 L2.55 2.1 2.5 2.4 2.2 2.35" fill="#b9b17c" fill-rule="evenodd" stroke="none"/>
      <path d="M2.2 2.35 Q2.1 2.15 2.25 2.05 L2.55 2.1 2.5 2.4 2.2 2.35" fill="#bab27d" fill-rule="evenodd" stroke="none"/>
      <path d="M2.2 2.35 Q2.1 2.15 2.25 2.05 L2.5 2.1 2.45 2.4 2.2 2.35" fill="#bbb37e" fill-rule="evenodd" stroke="none"/>
      <path d="M2.2 2.3 Q2.1 2.2 2.25 2.05 L2.5 2.15 2.45 2.4 Q2.3 2.55 2.2 2.3" fill="#bcb47e" fill-rule="evenodd" stroke="none"/>
      <path d="M2.2 2.3 Q2.1 2.2 2.25 2.05 L2.5 2.15 2.45 2.4 Q2.3 2.55 2.2 2.3" fill="#bdb57f" fill-rule="evenodd" stroke="none"/>
      <path d="M2.2 2.3 Q2.1 2.2 2.25 2.05 L2.5 2.15 2.45 2.35 2.2 2.3" fill="#beb680" fill-rule="evenodd" stroke="none"/>
      <path d="M2.2 2.3 Q2.1 2.2 2.25 2.05 L2.5 2.15 2.45 2.35 2.2 2.3" fill="#bfb780" fill-rule="evenodd" stroke="none"/>
      <path d="M2.25 2.3 L2.25 2.1 2.5 2.15 2.45 2.35 2.25 2.3" fill="#c0b881" fill-rule="evenodd" stroke="none"/>
      <path d="M2.25 2.3 L2.25 2.1 2.5 2.15 2.45 2.35 2.25 2.3" fill="#c1b981" fill-rule="evenodd" stroke="none"/>
      <path d="M2.25 2.3 L2.25 2.1 2.5 2.15 2.45 2.35 2.25 2.3" fill="#c2ba82" fill-rule="evenodd" stroke="none"/>
      <path d="M2.25 2.3 Q2.2 2.15 2.3 2.1 2.45 1.95 2.45 2.15 L2.45 2.35 2.25 2.3" fill="#c3bb83" fill-rule="evenodd" stroke="none"/>
      <path d="M2.25 2.3 Q2.2 2.15 2.3 2.1 L2.45 2.15 2.45 2.35 2.25 2.3" fill="#c4bb83" fill-rule="evenodd" stroke="none"/>
      <path d="M2.25 2.3 Q2.2 2.15 2.3 2.1 L2.45 2.15 2.45 2.3 2.25 2.3" fill="#c5bc84" fill-rule="evenodd" stroke="none"/>
      <path d="M2.25 2.25 Q2.2 2.2 2.3 2.1 L2.45 2.15 2.4 2.3 2.25 2.25" fill="#c6bd85" fill-rule="evenodd" stroke="none"/>
      <path d="M2.25 2.25 Q2.2 2.2 2.3 2.1 L2.45 2.15 2.4 2.3 2.25 2.25" fill="#c7be85" fill-rule="evenodd" stroke="none"/>
      <path d="M2.25 2.25 Q2.2 2.2 2.3 2.1 L2.45 2.15 2.4 2.3 2.25 2.25" fill="#c8bf86" fill-rule="evenodd" stroke="none"/>
      <path d="M2.25 2.25 L2.3 2.1 2.45 2.15 2.4 2.3 2.25 2.25" fill="#c9c087" fill-rule="evenodd" stroke="none"/>
      <path d="M2.25 2.25 L2.3 2.1 2.45 2.15 2.4 2.3 2.25 2.25" fill="#cac187" fill-rule="evenodd" stroke="none"/>
      <path d="M2.25 2.25 L2.3 2.1 2.4 2.15 2.4 2.3 2.25 2.25" fill="#cbc288" fill-rule="evenodd" stroke="none"/>
      <path d="M2.25 2.25 L2.3 2.1 2.4 2.15 2.4 2.25 2.25 2.25" fill="#ccc389" fill-rule="evenodd" stroke="none"/>
      <path d="M2.3 2.25 L2.3 2.1 2.4 2.15 2.4 2.25 2.3 2.25" fill="#cdc489" fill-rule="evenodd" stroke="none"/>
      <path d="M2.3 2.25 L2.3 2.15 2.4 2.15 2.4 2.25 2.3 2.25" fill="#cec58a" fill-rule="evenodd" stroke="none"/>
      <path d="M2.3 2.2 L2.3 2.15 2.4 2.15 2.35 2.25 2.3 2.2" fill="#d0c78b" fill-rule="evenodd" stroke="none"/>
      <path d="M2.3 2.2 L2.3 2.15 2.35 2.15 2.35 2.25 2.3 2.2" fill="#d2c88c" fill-rule="evenodd" stroke="none"/>
    </g>
    <g id="shape6" transform="matrix(1.0, 0.0, 0.0, 1.0, -9.3, -31.95)">
      <path d="M51.35 54.85 Q51.35 56.75 50.15 58.15 48.9 59.5 47.15 59.5 45.4 59.55 44.15 58.2 42.9 56.85 42.85 54.95 42.8 53.05 44.05 51.65 45.25 50.3 47.0 50.25 48.75 50.25 50.05 51.6 51.3 52.9 51.35 54.85" fill="url(#gradient7)" fill-rule="evenodd" stroke="none"/>
      <path d="M30.05 32.95 L17.35 32.45 9.3 31.95 53.3 31.95 30.05 32.95" fill="#ffff91" fill-rule="evenodd" stroke="none"/>
    </g>
    <radialGradient cx="0" cy="0" gradientTransform="matrix(0.0054, -1.0E-4, -1.0E-4, -0.0054, 47.1, 54.9)" gradientUnits="userSpaceOnUse" id="gradient7" r="819.2" spreadMethod="pad">
      <stop offset="0.0" stop-color="#231f20"/>
      <stop offset="1.0" stop-color="#231f20" stop-opacity="0.0"/>
    </radialGradient>
  </defs>
</svg>
