<?xml version="1.0" encoding="UTF-8" standalone="no"?>
<svg xmlns:xlink="http://www.w3.org/1999/xlink" height="59.3px" width="52.9px" xmlns="http://www.w3.org/2000/svg">
  <g transform="matrix(1.0, 0.0, 0.0, 1.0, 0.0, 0.0)">
    <use height="46.15" transform="matrix(-0.5556, 0.8296, -0.8296, -0.5556, 39.7304, 25.8177)" width="24.7" xlink:href="#shape0"/>
    <use height="17.0" transform="matrix(0.9151, -0.3954, 0.3954, 0.9151, -7.7261, 17.209)" width="23.5" xlink:href="#shape1"/>
    <use height="20.4" transform="matrix(-0.5556, 0.8296, -0.8296, -0.5556, 31.1879, 31.9331)" width="7.1" xlink:href="#shape2"/>
    <use height="46.1" transform="matrix(-0.5556, 0.8296, -0.8296, -0.5556, 39.7719, 25.8455)" width="24.75" xlink:href="#shape3"/>
  </g>
  <defs>
    <g id="shape0" transform="matrix(1.0, 0.0, 0.0, 1.0, 12.35, 19.55)">
      <path d="M5.2 -18.6 Q6.55 -17.75 6.5 -16.9 6.45 -16.0 5.35 -15.3 L5.1 2.4 Q9.6 4.4 11.45 9.0 13.3 13.7 11.45 18.45 9.55 23.3 4.9 25.45 0.2 27.6 -4.6 25.7 -9.35 23.85 -11.35 19.15 -13.3 14.4 -11.45 9.45 -10.45 6.95 -8.55 5.05 -6.7 3.25 -4.35 2.35 L-4.2 -9.7 -4.15 -9.85 -4.05 -15.45 Q-5.15 -16.15 -5.15 -17.15 -5.15 -17.95 -4.0 -18.6 0.45 -20.5 5.2 -18.6" fill="url(#gradient0)" fill-rule="evenodd" stroke="none"/>
    </g>
    <linearGradient gradientTransform="matrix(0.0108, 0.0014, 0.0014, -0.0109, 1.2, 0.5)" gradientUnits="userSpaceOnUse" id="gradient0" spreadMethod="pad" x1="-819.2" x2="819.2">
      <stop offset="0.00784313725490196" stop-color="#d9eaee" stop-opacity="0.54901963"/>
      <stop offset="1.0" stop-color="#93bac2" stop-opacity="0.69803923"/>
    </linearGradient>
    <g id="shape1" transform="matrix(1.0, 0.0, 0.0, 1.0, 11.85, -9.15)">
      <path d="M-8.3 22.9 Q-11.75 19.6 -11.85 14.8 L-11.65 12.75 Q-10.05 13.8 -7.05 14.4 L-0.35 15.05 6.85 14.25 Q10.0 13.55 11.3 12.35 L11.65 14.75 Q11.65 19.4 8.3 22.75 4.9 26.15 0.0 26.15 -4.85 26.15 -8.3 22.9" fill="url(#gradient1)" fill-rule="evenodd" stroke="none"/>
      <path d="M7.9 9.9 Q11.25 10.75 11.3 12.0 11.3 13.15 7.95 14.05 4.5 14.9 -0.3 14.95 L-8.4 14.1 Q-11.85 13.25 -11.85 12.05 -11.9 10.85 -8.5 10.0 -5.15 9.1 -0.3 9.15 4.5 9.1 7.9 9.9" fill="url(#gradient2)" fill-rule="evenodd" stroke="none"/>
      <path d="M-11.8 12.1 Q-11.75 13.2 -8.4 14.1 L-0.3 14.95 Q4.5 14.9 7.95 14.05 11.15 13.2 11.3 12.1 11.25 13.3 8.6 14.25 5.4 15.3 -0.1 15.3 -5.6 15.35 -8.95 14.3 -11.75 13.45 -11.8 12.1" fill="#b1df79" fill-rule="evenodd" stroke="none"/>
      <path d="M2.65 17.05 Q2.7 17.7 2.2 18.15 1.75 18.6 1.0 18.6 0.4 18.6 -0.1 18.2 -0.6 17.7 -0.6 17.05 -0.65 16.45 -0.2 16.0 0.3 15.55 1.0 15.55 1.65 15.55 2.15 16.05 2.65 16.45 2.65 17.05" fill="url(#gradient3)" fill-rule="evenodd" stroke="none"/>
      <path d="M-2.9 20.05 Q-2.9 20.65 -3.4 21.1 -3.9 21.55 -4.55 21.6 -5.2 21.55 -5.65 21.15 L-6.2 20.05 Q-6.15 19.45 -5.7 19.0 -5.2 18.6 -4.6 18.55 -3.9 18.5 -3.4 19.0 -2.95 19.4 -2.9 20.05" fill="url(#gradient4)" fill-rule="evenodd" stroke="none"/>
      <path d="M8.55 17.15 Q8.55 18.05 7.6 18.05 6.65 18.0 6.6 17.1 6.6 16.2 7.55 16.2 8.55 16.2 8.55 17.15" fill="url(#gradient5)" fill-rule="evenodd" stroke="none"/>
    </g>
    <radialGradient cx="0" cy="0" gradientTransform="matrix(0.0085, 0.0169, 0.0173, -0.0082, -2.85, 11.2)" gradientUnits="userSpaceOnUse" id="gradient1" r="819.2" spreadMethod="pad">
      <stop offset="0.0" stop-color="#b6ee8d" stop-opacity="0.6666667"/>
      <stop offset="0.9882352941176471" stop-color="#74a414" stop-opacity="0.84705883"/>
    </radialGradient>
    <radialGradient cx="0" cy="0" gradientTransform="matrix(0.0063, 0.0131, 0.0127, -0.0064, -3.0, 8.65)" gradientUnits="userSpaceOnUse" id="gradient2" r="819.2" spreadMethod="pad">
      <stop offset="0.0" stop-color="#92d42e" stop-opacity="0.6666667"/>
      <stop offset="0.9882352941176471" stop-color="#98cb2c" stop-opacity="0.84705883"/>
    </radialGradient>
    <radialGradient cx="0" cy="0" gradientTransform="matrix(7.0E-4, 0.0023, 0.0023, -7.0E-4, 0.8, 16.55)" gradientUnits="userSpaceOnUse" id="gradient3" r="819.2" spreadMethod="pad">
      <stop offset="0.0" stop-color="#ffffff"/>
      <stop offset="0.16470588235294117" stop-color="#dcf3ad"/>
      <stop offset="0.8588235294117647" stop-color="#778d1e" stop-opacity="0.84705883"/>
      <stop offset="1.0" stop-color="#8ba83f" stop-opacity="0.84705883"/>
    </radialGradient>
    <radialGradient cx="0" cy="0" gradientTransform="matrix(7.0E-4, 0.0023, 0.0023, -7.0E-4, -4.75, 19.55)" gradientUnits="userSpaceOnUse" id="gradient4" r="819.2" spreadMethod="pad">
      <stop offset="0.0" stop-color="#ffffff"/>
      <stop offset="0.16470588235294117" stop-color="#dcf3ad"/>
      <stop offset="0.8588235294117647" stop-color="#778d1e" stop-opacity="0.84705883"/>
      <stop offset="1.0" stop-color="#8ba83f" stop-opacity="0.84705883"/>
    </radialGradient>
    <radialGradient cx="0" cy="0" gradientTransform="matrix(4.0E-4, 0.0014, 0.0014, -4.0E-4, 7.5, 16.85)" gradientUnits="userSpaceOnUse" id="gradient5" r="819.2" spreadMethod="pad">
      <stop offset="0.0" stop-color="#ffffff"/>
      <stop offset="0.16470588235294117" stop-color="#dcf3ad"/>
      <stop offset="0.8588235294117647" stop-color="#778d1e" stop-opacity="0.84705883"/>
      <stop offset="1.0" stop-color="#8ba83f" stop-opacity="0.84705883"/>
    </radialGradient>
    <g id="shape2" transform="matrix(1.0, 0.0, 0.0, 1.0, 2.5, 15.85)">
      <path d="M2.4 -15.5 L2.4 -15.55 2.5 -15.7 2.7 -15.85 2.4 -15.5" fill="url(#gradient6)" fill-rule="evenodd" stroke="none"/>
      <path d="M3.75 -14.55 Q4.55 -14.55 4.4 -10.05 4.2 -5.6 4.3 -4.9 5.05 -0.35 3.9 3.85 3.8 4.3 3.25 4.4 0.35 4.85 -2.5 3.75 -2.35 1.8 -0.5 0.3 0.05 -0.15 0.2 -0.8 1.35 -5.2 1.7 -9.0 2.05 -12.8 2.5 -13.65 2.9 -14.55 3.75 -14.55" fill="url(#gradient7)" fill-rule="evenodd" stroke="none"/>
    </g>
    <radialGradient cx="0" cy="0" gradientTransform="matrix(0.0155, 0.0, 0.0, 0.0155, 0.2, -5.3)" gradientUnits="userSpaceOnUse" id="gradient6" r="819.2" spreadMethod="pad">
      <stop offset="0.0" stop-color="#a8d582" stop-opacity="0.6666667"/>
      <stop offset="0.9882352941176471" stop-color="#89b43e" stop-opacity="0.84705883"/>
    </radialGradient>
    <radialGradient cx="0" cy="0" gradientTransform="matrix(0.0034, -0.0058, 0.0058, 0.0034, 1.7, -4.1)" gradientUnits="userSpaceOnUse" id="gradient7" r="819.2" spreadMethod="pad">
      <stop offset="0.0" stop-color="#a8d582" stop-opacity="0.6666667"/>
      <stop offset="0.9882352941176471" stop-color="#89b43e" stop-opacity="0.84705883"/>
    </radialGradient>
    <g id="shape3" transform="matrix(1.0, 0.0, 0.0, 1.0, 12.35, 19.6)">
      <path d="M11.35 8.8 Q13.4 13.55 11.5 18.35 9.6 23.2 4.95 25.35 0.25 27.45 -4.5 25.65 -9.25 23.75 -11.3 19.05 -13.3 14.3 -11.45 9.45 -9.55 4.6 -4.85 2.5 -0.15 0.35 4.6 2.2 9.35 4.1 11.35 8.8" fill="url(#gradient8)" fill-rule="evenodd" stroke="none"/>
      <path d="M11.5 18.35 Q9.6 23.2 4.95 25.35 0.25 27.45 -4.5 25.65 -9.25 23.75 -11.3 19.05 -13.3 14.3 -11.45 9.45 -9.55 4.6 -4.85 2.5 -0.15 0.35 4.6 2.2 9.35 4.1 11.35 8.8 13.4 13.55 11.5 18.35 M11.4 18.15 Q13.25 13.4 11.25 8.75 9.25 4.1 4.6 2.3 -0.1 0.5 -4.7 2.5 -9.25 4.6 -11.1 9.4 -13.0 14.1 -10.95 18.75 -8.95 23.45 -4.35 25.25 0.35 27.0 4.9 24.95 9.5 22.85 11.4 18.15" fill="url(#gradient9)" fill-rule="evenodd" stroke="none"/>
      <path d="M6.8 10.65 Q7.15 12.35 6.95 13.8 7.2 16.25 5.4 18.05 2.0 21.5 -7.8 18.25 -10.65 17.35 -10.95 13.7 -11.2 10.6 -9.6 7.75 -8.9 6.45 -7.45 5.4 -6.35 4.6 -5.85 4.55 -5.7 4.5 -5.6 5.0 -5.1 5.65 -3.25 6.3 L1.15 6.7 3.2 6.35 Q6.1 7.3 6.8 10.65" fill="url(#gradient10)" fill-rule="evenodd" stroke="none"/>
      <path d="M9.3 11.1 Q8.65 8.65 7.0 6.8 L5.4 5.35 Q5.95 4.85 5.05 3.15 L7.2 4.55 Q9.7 6.4 10.6 8.7 11.55 10.95 11.5 13.6 L11.25 15.85 9.25 16.2 9.6 15.15 Q9.8 13.55 9.3 11.1" fill="url(#gradient11)" fill-rule="evenodd" stroke="none"/>
      <path d="M3.75 2.65 Q5.2 3.1 5.15 3.85 5.1 4.55 3.8 5.05 L2.8 5.35 3.65 5.0 Q4.9 4.6 4.95 3.9 4.95 3.2 3.6 2.75 2.25 2.2 0.3 2.15 -1.65 2.15 -3.0 2.65 -4.45 3.05 -4.5 3.8 -4.5 4.45 -3.35 4.95 L-1.95 5.4 -3.4 5.0 Q-4.7 4.45 -4.65 3.75 -4.6 3.05 -3.1 2.55 L0.3 2.05 Q2.3 2.05 3.75 2.65" fill="url(#gradient12)" fill-rule="evenodd" stroke="none"/>
      <path d="M3.5 5.1 L0.2 5.55 Q-1.8 5.55 -3.15 5.0 -4.5 4.5 -4.5 3.8 -4.45 3.05 -3.0 2.65 -1.65 2.15 0.3 2.15 2.25 2.2 3.6 2.75 4.95 3.2 4.95 3.9 4.95 4.6 3.5 5.1" fill="url(#gradient13)" fill-rule="evenodd" stroke="none"/>
      <path d="M4.65 -15.0 Q2.85 -14.2 0.5 -14.3 -1.9 -14.4 -3.6 -15.15 -5.3 -15.95 -5.3 -17.1 -5.2 -18.15 -3.5 -18.9 -1.8 -19.65 0.6 -19.6 3.05 -19.55 4.75 -18.75 6.4 -17.95 6.4 -16.85 6.35 -15.8 4.65 -15.0 M3.85 -16.15 Q5.2 -16.65 5.25 -17.35 5.2 -18.1 3.9 -18.7 L0.6 -19.3 -2.65 -18.8 Q-4.1 -18.3 -4.1 -17.6 -4.1 -16.85 -2.75 -16.25 -1.4 -15.75 0.55 -15.7 L3.85 -16.15" fill="url(#gradient14)" fill-rule="evenodd" stroke="none"/>
      <path d="M0.5 -14.3 L3.6 -14.75 Q4.9 -15.15 5.2 -15.85 L5.05 3.55 5.1 3.9 Q5.1 4.7 3.65 5.25 L0.3 5.8 Q-1.7 5.75 -3.0 5.15 -4.4 4.55 -4.4 3.75 L-4.35 3.4 -4.15 -16.0 Q-3.8 -15.3 -2.55 -14.85 -1.25 -14.3 0.5 -14.3" fill="url(#gradient15)" fill-rule="evenodd" stroke="none"/>
      <path d="M0.45 -14.4 Q3.2 -14.45 4.55 -15.25 L4.4 3.1 Q4.4 3.9 3.15 4.45 L0.3 4.95 Q-1.4 4.95 -2.6 4.35 -3.75 3.8 -3.75 3.0 L-3.65 2.65 -3.5 -15.4 Q-2.15 -14.5 0.45 -14.4" fill="url(#gradient16)" fill-rule="evenodd" stroke="none"/>
      <path d="M0.55 5.55 L1.7 5.6 0.3 5.65 -2.15 5.35 -2.25 5.25 0.55 5.55" fill="url(#gradient17)" fill-rule="evenodd" stroke="none"/>
      <path d="M-4.15 -16.1 L-3.85 -15.65 -3.9 2.0 -3.9 2.2 Q-3.9 3.4 -3.25 4.25 L-3.45 4.4 Q-3.8 4.1 -4.05 4.15 L-4.0 4.4 -3.7 4.65 -3.7 4.75 Q-4.45 4.15 -4.45 3.65 L-4.35 3.35 -4.15 -16.1" fill="url(#gradient18)" fill-rule="evenodd" stroke="none"/>
      <path d="M4.8 -14.75 L4.75 -15.1 4.15 -14.95 4.2 -15.05 5.2 -15.95 5.05 3.4 5.1 3.8 4.55 4.65 4.1 4.35 4.5 3.55 4.7 2.95 4.8 -14.75" fill="url(#gradient19)" fill-rule="evenodd" stroke="none"/>
      <path d="M-2.9 -15.0 L-1.4 -14.6 -1.6 4.8 -1.7 5.0 -1.6 5.1 -1.6 5.15 -2.2 4.85 -2.35 4.85 -2.25 5.25 -3.7 4.65 -3.45 4.4 -2.75 4.75 -3.25 4.25 -3.05 4.2 -2.9 -15.0" fill="url(#gradient20)" fill-rule="evenodd" stroke="none"/>
      <path d="M-3.45 4.4 L-3.25 4.25 -2.75 4.75 -3.45 4.4" fill="url(#gradient21)" fill-rule="evenodd" stroke="none"/>
      <path d="M-3.45 4.4 L-3.25 4.25 -2.75 4.75 -3.45 4.4" fill="url(#gradient22)" fill-rule="evenodd" stroke="none"/>
      <path d="M4.1 -14.9 L4.15 -14.95 4.0 4.25 4.1 4.35 3.5 4.85 4.2 4.85 3.05 5.35 3.2 4.95 3.05 4.9 2.4 5.15 2.65 -14.6 3.2 -14.7 4.1 -14.9" fill="url(#gradient23)" fill-rule="evenodd" stroke="none"/>
      <path d="M4.15 -14.95 L4.1 -14.9 3.2 -14.7 4.2 -15.05 4.15 -14.95" fill="url(#gradient24)" fill-rule="evenodd" stroke="none"/>
      <path d="M4.15 -14.95 L4.1 -14.9 3.2 -14.7 4.2 -15.05 4.15 -14.95" fill="url(#gradient25)" fill-rule="evenodd" stroke="none"/>
      <path d="M3.5 4.85 L4.1 4.35 4.55 4.65 4.2 4.85 3.5 4.85" fill="url(#gradient26)" fill-rule="evenodd" stroke="none"/>
      <path d="M3.5 4.85 L4.1 4.35 4.55 4.65 4.2 4.85 3.5 4.85" fill="url(#gradient27)" fill-rule="evenodd" stroke="none"/>
      <path d="M-0.5 5.25 L-1.6 5.1 -1.7 5.0 -1.6 4.8 -0.9 4.9 Q0.05 5.2 -0.5 5.25" fill="#ffffff" fill-rule="evenodd" stroke="none"/>
      <path d="M0.35 5.3 L0.05 5.35 -0.05 5.2 0.2 5.05 Q0.5 5.1 0.35 5.3" fill="#ffffff" fill-rule="evenodd" stroke="none"/>
      <path d="M3.85 -16.15 L0.55 -15.7 Q-1.4 -15.75 -2.75 -16.25 -4.1 -16.85 -4.1 -17.6 -4.1 -18.3 -2.65 -18.8 L0.6 -19.3 3.9 -18.7 Q5.2 -18.1 5.25 -17.35 5.2 -16.65 3.85 -16.15" fill="url(#gradient28)" fill-rule="evenodd" stroke="none"/>
      <path d="M4.65 -15.0 Q2.85 -14.2 0.5 -14.3 -1.9 -14.4 -3.6 -15.15 -5.3 -15.95 -5.3 -17.1 -5.2 -18.15 -3.5 -18.9 -1.8 -19.65 0.6 -19.6 3.05 -19.55 4.75 -18.75 6.4 -17.95 6.4 -16.85 6.35 -15.8 4.65 -15.0 M6.0 -17.05 Q6.05 -17.95 4.5 -18.7 2.85 -19.4 0.6 -19.45 -1.7 -19.5 -3.35 -18.8 -4.9 -18.2 -5.0 -17.2 -4.95 -16.25 -3.4 -15.5 -1.8 -14.8 0.5 -14.85 2.75 -14.7 4.4 -15.45 6.0 -16.1 6.0 -17.05" fill="url(#gradient29)" fill-rule="evenodd" stroke="none"/>
      <path d="M3.85 -16.15 L0.55 -15.7 Q-1.4 -15.75 -2.75 -16.25 -4.1 -16.85 -4.1 -17.6 -4.1 -18.3 -2.65 -18.8 L-2.2 -18.9 -2.5 -18.8 Q-3.8 -18.35 -3.8 -17.65 -3.85 -16.9 -2.55 -16.4 -1.3 -15.85 0.6 -15.85 L3.7 -16.25 Q5.0 -16.75 5.0 -17.45 5.05 -18.1 4.0 -18.65 5.25 -18.05 5.25 -17.35 5.2 -16.65 3.85 -16.15" fill="url(#gradient30)" fill-rule="evenodd" stroke="none"/>
      <path d="M5.25 -17.35 Q5.2 -16.65 3.85 -16.15 L0.55 -15.7 Q-1.4 -15.75 -2.75 -16.25 -4.1 -16.85 -4.1 -17.6 -4.1 -18.3 -2.65 -18.8 L-1.8 -19.05 -2.5 -18.85 Q-3.75 -18.4 -3.75 -17.7 -3.8 -16.95 -2.55 -16.4 L0.5 -15.95 3.65 -16.35 Q4.95 -16.85 4.9 -17.5 4.95 -18.25 3.75 -18.75 L3.25 -18.9 3.9 -18.7 Q5.2 -18.1 5.25 -17.35" fill="url(#gradient31)" fill-rule="evenodd" stroke="none"/>
      <path d="M-0.4 11.3 L-0.55 10.65 2.45 11.0 Q3.85 10.85 4.2 10.2 4.5 9.65 3.65 9.3 L0.05 9.7 Q0.05 8.95 -0.95 8.95 -1.75 9.1 -1.85 9.8 L-5.7 9.5 Q-6.45 9.9 -5.95 10.55 -5.65 11.15 -4.2 11.1 L-1.4 10.55 -1.2 10.65 -1.15 11.25 -2.2 11.35 Q-4.5 11.55 -6.1 13.2 -7.8 15.15 -7.45 17.85 -7.05 20.65 -4.7 21.95 -2.5 23.2 0.5 22.7 3.2 22.25 4.55 20.55 5.9 19.0 5.65 16.5 5.4 14.05 3.5 12.7 1.9 11.5 -0.4 11.3 M7.5 7.2 L8.3 9.45 9.35 13.75 Q9.7 16.5 8.95 21.7 8.45 22.15 7.0 22.55 4.25 23.35 -0.35 23.35 -3.75 23.4 -6.1 22.4 L-7.85 21.45 Q-9.35 20.15 -9.95 17.65 -10.6 14.1 -9.4 10.2 L-8.1 7.05 Q-4.6 8.75 1.8 8.15 L7.5 7.2" fill="url(#gradient32)" fill-rule="evenodd" stroke="none"/>
      <path d="M-1.15 11.25 L-1.2 10.65 -1.4 10.55 -4.2 11.1 Q-5.65 11.15 -5.95 10.55 -6.45 9.9 -5.7 9.5 L-1.85 9.8 Q-1.75 9.1 -0.95 8.95 0.05 8.95 0.05 9.7 L3.65 9.3 Q4.5 9.65 4.2 10.2 3.85 10.85 2.45 11.0 L-0.55 10.65 -0.4 11.3 -0.45 11.5 -1.25 11.55 -1.15 11.25" fill="#b8b59e" fill-rule="evenodd" stroke="none"/>
      <path d="M1.2 17.35 Q1.15 16.35 1.6 16.0 2.9 15.0 3.35 16.6 3.7 18.2 2.4 18.35 1.3 18.5 1.2 17.35 M-5.05 16.0 Q-3.8 15.05 -3.3 16.7 -2.85 18.25 -4.25 18.35 -5.35 18.5 -5.4 17.3 -5.45 16.25 -5.05 16.0" fill="#545d1c" fill-rule="evenodd" stroke="none"/>
      <path d="M-1.15 11.25 L-1.25 11.55 -0.45 11.5 -0.4 11.3 Q1.9 11.5 3.5 12.7 5.4 14.05 5.65 16.5 5.9 19.0 4.55 20.55 3.2 22.25 0.5 22.7 -2.5 23.2 -4.7 21.95 -7.05 20.65 -7.45 17.85 -7.8 15.15 -6.1 13.2 -4.5 11.55 -2.2 11.35 L-1.15 11.25 M1.2 17.35 Q1.3 18.5 2.4 18.35 3.7 18.2 3.35 16.6 2.9 15.0 1.6 16.0 1.15 16.35 1.2 17.35 M1.85 19.55 L-4.15 19.5 -3.7 20.3 Q-2.95 21.15 -1.3 21.35 0.3 21.55 1.25 20.55 L1.85 19.55 M-5.05 16.0 Q-5.45 16.25 -5.4 17.3 -5.35 18.5 -4.25 18.35 -2.85 18.25 -3.3 16.7 -3.8 15.05 -5.05 16.0" fill="url(#gradient33)" fill-rule="evenodd" stroke="none"/>
      <path d="M1.85 19.55 L1.25 20.55 Q0.3 21.55 -1.3 21.35 -2.95 21.15 -3.7 20.3 L-4.15 19.5 1.85 19.55" fill="#ebe7c8" fill-rule="evenodd" stroke="none"/>
    </g>
    <radialGradient cx="0" cy="0" gradientTransform="matrix(0.0027, 0.019, 0.0174, -0.0025, -0.4, 10.05)" gradientUnits="userSpaceOnUse" id="gradient8" r="819.2" spreadMethod="pad">
      <stop offset="0.0" stop-color="#ffffff" stop-opacity="0.47843137"/>
      <stop offset="0.7098039215686275" stop-color="#ffffff" stop-opacity="0.08235294"/>
      <stop offset="0.8666666666666667" stop-color="#ffffff" stop-opacity="0.2"/>
      <stop offset="1.0" stop-color="#ffffff" stop-opacity="0.02745098"/>
    </radialGradient>
    <radialGradient cx="0" cy="0" gradientTransform="matrix(0.0201, -0.0174, -0.0174, -0.0201, -8.1, 20.15)" gradientUnits="userSpaceOnUse" id="gradient9" r="819.2" spreadMethod="pad">
      <stop offset="0.0" stop-color="#ffffff" stop-opacity="0.9490196"/>
      <stop offset="1.0" stop-color="#8a9b9e"/>
    </radialGradient>
    <radialGradient cx="0" cy="0" gradientTransform="matrix(0.0028, 0.0134, 0.0152, -0.0026, -0.5, 5.15)" gradientUnits="userSpaceOnUse" id="gradient10" r="819.2" spreadMethod="pad">
      <stop offset="0.0" stop-color="#ffffff" stop-opacity="0.5882353"/>
      <stop offset="1.0" stop-color="#ffffff" stop-opacity="0.0"/>
    </radialGradient>
    <radialGradient cx="0" cy="0" gradientTransform="matrix(0.0018, 0.0088, 0.0098, -0.002, 8.95, 4.9)" gradientUnits="userSpaceOnUse" id="gradient11" r="819.2" spreadMethod="pad">
      <stop offset="0.0" stop-color="#ffffff" stop-opacity="0.61960787"/>
      <stop offset="1.0" stop-color="#ffffff" stop-opacity="0.02745098"/>
    </radialGradient>
    <linearGradient gradientTransform="matrix(0.0052, 0.002, 0.002, -0.0052, 0.25, 3.8)" gradientUnits="userSpaceOnUse" id="gradient12" spreadMethod="pad" x1="-819.2" x2="819.2">
      <stop offset="0.0" stop-color="#ffffff" stop-opacity="0.9490196"/>
      <stop offset="1.0" stop-color="#abd9db"/>
    </linearGradient>
    <linearGradient gradientTransform="matrix(0.0049, 0.0011, 0.0011, -0.0049, 0.45, 3.9)" gradientUnits="userSpaceOnUse" id="gradient13" spreadMethod="pad" x1="-819.2" x2="819.2">
      <stop offset="0.0" stop-color="#000000" stop-opacity="0.24705882"/>
      <stop offset="1.0" stop-color="#000000" stop-opacity="0.02745098"/>
    </linearGradient>
    <linearGradient gradientTransform="matrix(-9.0E-4, -0.0035, -0.0035, 9.0E-4, 0.5, -16.95)" gradientUnits="userSpaceOnUse" id="gradient14" spreadMethod="pad" x1="-819.2" x2="819.2">
      <stop offset="0.0" stop-color="#ffffff" stop-opacity="0.21960784"/>
      <stop offset="1.0" stop-color="#ffffff" stop-opacity="0.02745098"/>
    </linearGradient>
    <linearGradient gradientTransform="matrix(0.0059, 1.0E-4, 3.0E-4, -0.0117, 0.45, -5.1)" gradientUnits="userSpaceOnUse" id="gradient15" spreadMethod="pad" x1="-819.2" x2="819.2">
      <stop offset="0.0" stop-color="#ffffff" stop-opacity="0.21960784"/>
      <stop offset="1.0" stop-color="#ffffff" stop-opacity="0.02745098"/>
    </linearGradient>
    <linearGradient gradientTransform="matrix(0.0051, 1.0E-4, 2.0E-4, -0.0101, 0.45, -5.2)" gradientUnits="userSpaceOnUse" id="gradient16" spreadMethod="pad" x1="-819.2" x2="819.2">
      <stop offset="0.0" stop-color="#ffffff" stop-opacity="0.21960784"/>
      <stop offset="1.0" stop-color="#ffffff" stop-opacity="0.02745098"/>
    </linearGradient>
    <linearGradient gradientTransform="matrix(0.0058, 1.0E-4, 3.0E-4, -0.0115, 0.3, 5.45)" gradientUnits="userSpaceOnUse" id="gradient17" spreadMethod="pad" x1="-819.2" x2="819.2">
      <stop offset="0.0" stop-color="#ffffff" stop-opacity="0.9490196"/>
      <stop offset="1.0" stop-color="#abd9db"/>
    </linearGradient>
    <linearGradient gradientTransform="matrix(0.0067, 2.0E-4, 3.0E-4, -0.0132, 1.1, -5.55)" gradientUnits="userSpaceOnUse" id="gradient18" spreadMethod="pad" x1="-819.2" x2="819.2">
      <stop offset="0.0" stop-color="#b7c6c7" stop-opacity="0.9490196"/>
      <stop offset="1.0" stop-color="#95bdbf"/>
    </linearGradient>
    <linearGradient gradientTransform="matrix(0.0056, 0.0, 0.0, -0.0056, -0.1, -5.6)" gradientUnits="userSpaceOnUse" id="gradient19" spreadMethod="pad" x1="-819.2" x2="819.2">
      <stop offset="0.0" stop-color="#ffffff" stop-opacity="0.9490196"/>
      <stop offset="1.0" stop-color="#9aafb8"/>
    </linearGradient>
    <linearGradient gradientTransform="matrix(-1.0E-4, 0.0056, 0.011, 3.0E-4, -2.4, -5.7)" gradientUnits="userSpaceOnUse" id="gradient20" spreadMethod="pad" x1="-819.2" x2="819.2">
      <stop offset="0.0" stop-color="#ffffff" stop-opacity="0.41960785"/>
      <stop offset="1.0" stop-color="#ffffff" stop-opacity="0.02745098"/>
    </linearGradient>
    <linearGradient gradientTransform="matrix(0.0058, 1.0E-4, 3.0E-4, -0.0114, 0.3, 4.6)" gradientUnits="userSpaceOnUse" id="gradient21" spreadMethod="pad" x1="-819.2" x2="819.2">
      <stop offset="0.0" stop-color="#ffffff" stop-opacity="0.9490196"/>
      <stop offset="1.0" stop-color="#abd9db"/>
    </linearGradient>
    <linearGradient gradientTransform="matrix(-1.0E-4, 0.0024, 0.0047, 1.0E-4, -3.0, 0.55)" gradientUnits="userSpaceOnUse" id="gradient22" spreadMethod="pad" x1="-819.2" x2="819.2">
      <stop offset="0.0" stop-color="#ffffff" stop-opacity="0.41960785"/>
      <stop offset="1.0" stop-color="#ffffff" stop-opacity="0.02745098"/>
    </linearGradient>
    <linearGradient gradientTransform="matrix(1.0E-4, -0.0056, 0.011, 3.0E-4, 3.45, -5.7)" gradientUnits="userSpaceOnUse" id="gradient23" spreadMethod="pad" x1="-819.2" x2="819.2">
      <stop offset="0.0" stop-color="#ffffff" stop-opacity="0.13725491"/>
      <stop offset="1.0" stop-color="#ffffff" stop-opacity="0.02745098"/>
    </linearGradient>
    <linearGradient gradientTransform="matrix(0.0062, 2.0E-4, 3.0E-4, -0.0123, 0.6, -14.95)" gradientUnits="userSpaceOnUse" id="gradient24" spreadMethod="pad" x1="-819.2" x2="819.2">
      <stop offset="0.0" stop-color="#ffffff"/>
      <stop offset="1.0" stop-color="#abd9db"/>
    </linearGradient>
    <linearGradient gradientTransform="matrix(1.0E-4, -0.0024, 0.0048, 1.0E-4, 3.6, -10.85)" gradientUnits="userSpaceOnUse" id="gradient25" spreadMethod="pad" x1="-819.2" x2="819.2">
      <stop offset="0.0" stop-color="#ffffff" stop-opacity="0.13725491"/>
      <stop offset="1.0" stop-color="#ffffff" stop-opacity="0.02745098"/>
    </linearGradient>
    <linearGradient gradientTransform="matrix(0.0062, 1.0E-4, 3.0E-4, -0.0122, 0.45, 4.55)" gradientUnits="userSpaceOnUse" id="gradient26" spreadMethod="pad" x1="-819.2" x2="819.2">
      <stop offset="0.0" stop-color="#ffffff"/>
      <stop offset="1.0" stop-color="#abd9db"/>
    </linearGradient>
    <linearGradient gradientTransform="matrix(0.0, -0.0024, 0.0047, 1.0E-4, 4.1, 0.6)" gradientUnits="userSpaceOnUse" id="gradient27" spreadMethod="pad" x1="-819.2" x2="819.2">
      <stop offset="0.0" stop-color="#ffffff" stop-opacity="0.13725491"/>
      <stop offset="1.0" stop-color="#ffffff" stop-opacity="0.02745098"/>
    </linearGradient>
    <linearGradient gradientTransform="matrix(0.0057, 1.0E-4, 2.0E-4, -0.0106, 0.55, -17.5)" gradientUnits="userSpaceOnUse" id="gradient28" spreadMethod="pad" x1="-819.2" x2="819.2">
      <stop offset="0.0" stop-color="#000000" stop-opacity="0.08627451"/>
      <stop offset="1.0" stop-color="#bcd9db" stop-opacity="0.41960785"/>
    </linearGradient>
    <linearGradient gradientTransform="matrix(-9.0E-4, -0.0035, -0.0035, 9.0E-4, 0.5, -16.95)" gradientUnits="userSpaceOnUse" id="gradient29" spreadMethod="pad" x1="-819.2" x2="819.2">
      <stop offset="0.0" stop-color="#ffffff" stop-opacity="0.9490196"/>
      <stop offset="1.0" stop-color="#9aafb8"/>
    </linearGradient>
    <linearGradient gradientTransform="matrix(0.005, 0.002, 0.002, -0.005, 0.55, -17.5)" gradientUnits="userSpaceOnUse" id="gradient30" spreadMethod="pad" x1="-819.2" x2="819.2">
      <stop offset="0.0" stop-color="#ffffff" stop-opacity="0.9490196"/>
      <stop offset="1.0" stop-color="#abd9db"/>
    </linearGradient>
    <linearGradient gradientTransform="matrix(0.0057, 1.0E-4, 2.0E-4, -0.0106, 0.55, -17.5)" gradientUnits="userSpaceOnUse" id="gradient31" spreadMethod="pad" x1="-819.2" x2="819.2">
      <stop offset="0.0" stop-color="#ffffff" stop-opacity="0.9490196"/>
      <stop offset="1.0" stop-color="#9aafb8"/>
    </linearGradient>
    <radialGradient cx="0" cy="0" gradientTransform="matrix(0.0076, 0.0224, 0.0228, -0.0075, -3.35, 9.55)" gradientUnits="userSpaceOnUse" id="gradient32" r="819.2" spreadMethod="pad">
      <stop offset="0.0" stop-color="#fbf5e2"/>
      <stop offset="0.07058823529411765" stop-color="#f6f0db"/>
      <stop offset="0.43137254901960786" stop-color="#e3dcc1"/>
      <stop offset="0.7490196078431373" stop-color="#d7d0b1"/>
      <stop offset="1.0" stop-color="#d3ccac"/>
    </radialGradient>
    <radialGradient cx="0" cy="0" gradientTransform="matrix(0.0073, 0.0121, 0.0121, -0.0073, -3.35, 11.85)" gradientUnits="userSpaceOnUse" id="gradient33" r="819.2" spreadMethod="pad">
      <stop offset="0.0" stop-color="#b1d351"/>
      <stop offset="1.0" stop-color="#8ca523"/>
    </radialGradient>
  </defs>
</svg>
