<?xml version="1.0" encoding="UTF-8" standalone="no"?>
<svg xmlns:xlink="http://www.w3.org/1999/xlink" height="247.9px" width="199.25px" xmlns="http://www.w3.org/2000/svg">
  <g transform="matrix(1.0, 0.0, 0.0, 1.0, 0.0, 0.0)">
    <use height="95.1" transform="matrix(1.0, 0.0, 0.0, 1.0, 39.25, 152.8)" width="121.0" xlink:href="#sprite0"/>
    <use height="11.1" transform="matrix(1.0, 0.0, 0.0, 1.0, 37.1, 234.1)" width="8.3" xlink:href="#shape1"/>
    <use height="11.1" transform="matrix(1.0, 0.0, 0.0, 1.0, 37.1, 234.1)" width="8.3" xlink:href="#sprite1"/>
    <use height="23.4" transform="matrix(1.0, 0.0, 0.0, 1.0, 37.4, 221.7)" width="8.3" xlink:href="#shape3"/>
    <use height="23.4" transform="matrix(1.0, 0.0, 0.0, 1.0, 37.4, 221.7)" width="8.3" xlink:href="#sprite2"/>
    <use height="54.35" transform="matrix(1.0, 0.0, 0.0, 1.0, 34.15, 185.05)" width="8.9" xlink:href="#shape5"/>
    <use height="54.35" transform="matrix(1.0, 0.0, 0.0, 1.0, 34.15, 185.05)" width="8.9" xlink:href="#sprite3"/>
    <use height="11.1" transform="matrix(1.0, 0.0, 0.0, 1.0, 153.55, 234.1)" width="8.25" xlink:href="#shape7"/>
    <use height="11.1" transform="matrix(1.0, 0.0, 0.0, 1.0, 153.55, 234.1)" width="8.25" xlink:href="#sprite4"/>
    <use height="23.4" transform="matrix(1.0, 0.0, 0.0, 1.0, 153.25, 221.7)" width="8.25" xlink:href="#shape9"/>
    <use height="23.4" transform="matrix(1.0, 0.0, 0.0, 1.0, 153.25, 221.7)" width="8.25" xlink:href="#sprite5"/>
    <use height="54.35" transform="matrix(1.0, 0.0, 0.0, 1.0, 155.9, 185.05)" width="8.85" xlink:href="#shape11"/>
    <use height="54.35" transform="matrix(1.0, 0.0, 0.0, 1.0, 155.9, 185.05)" width="8.85" xlink:href="#sprite6"/>
    <use height="224.25" transform="matrix(1.0, 0.0, 0.0, 1.0, 28.6, 0.0)" width="141.15" xlink:href="#shape13"/>
    <use height="6.45" transform="matrix(1.0, 0.0, 0.0, 1.0, 28.6, 0.0)" width="141.15" xlink:href="#sprite7"/>
    <use height="221.1" transform="matrix(1.0, 0.0, 0.0, 1.0, 30.95, 5.7)" width="138.8" xlink:href="#shape15"/>
    <use height="6.45" transform="matrix(1.0, 0.0, 0.0, 1.0, 30.95, 220.35)" width="135.95" xlink:href="#sprite8"/>
    <use height="12.15" transform="matrix(1.0, 0.0, 0.0, 1.0, 35.55, 19.65)" width="2.85" xlink:href="#sprite9"/>
    <use height="11.9" transform="matrix(1.0, 0.0, 0.0, 1.0, 35.0, 19.25)" width="2.85" xlink:href="#shape18"/>
    <use height="12.15" transform="matrix(1.0, 0.0, 0.0, 1.0, 160.0, 19.65)" width="2.85" xlink:href="#sprite10"/>
    <use height="11.9" transform="matrix(1.0, 0.0, 0.0, 1.0, 159.45, 19.25)" width="2.85" xlink:href="#shape18"/>
    <use height="12.15" transform="matrix(1.0, 0.0, 0.0, 1.0, 35.55, 167.05)" width="2.85" xlink:href="#sprite11"/>
    <use height="11.9" transform="matrix(1.0, 0.0, 0.0, 1.0, 35.0, 166.65)" width="2.85" xlink:href="#shape18"/>
    <use height="12.15" transform="matrix(1.0, 0.0, 0.0, 1.0, 160.0, 167.05)" width="2.85" xlink:href="#sprite12"/>
    <use height="198.85" transform="matrix(1.0, 0.0, 0.0, 1.0, 40.85, 15.8)" width="121.45" xlink:href="#shape19"/>
    <use height="200.0" transform="matrix(1.0, 0.0, 0.0, 1.005, 40.85, 15.8)" width="116.75" xlink:href="#sprite13"/>
    <use height="208.0" transform="matrix(1.0, 0.0, 0.0, 1.0, 0.0, 13.85)" width="199.25" xlink:href="#shape21"/>
    <use height="202.8" transform="matrix(1.0, 0.0, 0.0, 1.0199, 3.55, 14.95)" width="33.25" xlink:href="#sprite14"/>
    <use height="201.5" transform="matrix(1.0, 0.0, 0.0, 1.0199, 3.7, 16.3)" width="1.45" xlink:href="#sprite15"/>
    <use height="204.6" transform="matrix(1.0, 0.0, 0.0, 1.0, 160.8, 15.75)" width="34.9" xlink:href="#shape24"/>
    <use height="200.6" transform="matrix(1.0, 0.0, 0.0, 1.0199, 160.8, 15.75)" width="34.9" xlink:href="#sprite16"/>
    <use height="205.2" transform="matrix(1.0, 0.0, 0.0, 1.0, 195.7, 15.15)" width="3.55" xlink:href="#shape26"/>
    <use height="195.3" transform="matrix(1.0, 0.0, 0.0, 1.0199, 161.05, 15.75)" width="1.5" xlink:href="#sprite17"/>
    <use height="183.3" transform="matrix(1.0, 0.0, 0.0, 1.0, 3.1, 27.3)" width="193.0" xlink:href="#shape28"/>
  </g>
  <defs>
    <g id="sprite0" transform="matrix(1.0, 0.0, 0.0, 1.0, 0.0, 0.0)">
      <use height="95.1" transform="matrix(1.0, 0.0, 0.0, 1.0, 0.0, 0.0)" width="121.0" xlink:href="#shape0"/>
    </g>
    <g id="shape0" transform="matrix(1.0, 0.0, 0.0, 1.0, 0.0, 0.0)">
      <path d="M121.0 95.1 L0.0 95.1 0.0 0.0 121.0 0.0 121.0 95.1" fill="url(#gradient0)" fill-rule="evenodd" stroke="none"/>
    </g>
    <linearGradient gradientTransform="matrix(0.0, 0.0317, 0.0317, 0.0, 60.5, 55.6)" gradientUnits="userSpaceOnUse" id="gradient0" spreadMethod="pad" x1="-819.2" x2="819.2">
      <stop offset="0.0" stop-color="#000000"/>
      <stop offset="1.0" stop-color="#000000" stop-opacity="0.0"/>
    </linearGradient>
    <g id="shape1" transform="matrix(1.0, 0.0, 0.0, 1.0, -37.1, -234.1)">
      <path d="M39.8 234.1 L43.6 236.15 45.4 245.2 39.2 245.2 Q38.65 245.2 37.8 244.35 L37.1 243.45 37.1 236.45 39.8 234.1" fill="#ca913f" fill-rule="evenodd" stroke="none"/>
    </g>
    <g id="sprite1" transform="matrix(1.0, 0.0, 0.0, 1.0, 0.0, 0.0)">
      <use height="11.1" transform="matrix(1.0, 0.0, 0.0, 1.0, 0.0, 0.0)" width="8.3" xlink:href="#shape2"/>
    </g>
    <g id="shape2" transform="matrix(1.0, 0.0, 0.0, 1.0, 0.0, 0.0)">
      <path d="M2.7 0.0 L6.5 2.05 8.3 11.1 2.1 11.1 Q1.2 11.1 0.0 9.35 L0.0 2.35 2.7 0.0" fill="url(#gradient1)" fill-rule="evenodd" stroke="none"/>
    </g>
    <linearGradient gradientTransform="matrix(0.0, 0.0031, 0.0031, 0.0, 4.15, 7.7)" gradientUnits="userSpaceOnUse" id="gradient1" spreadMethod="pad" x1="-819.2" x2="819.2">
      <stop offset="0.011764705882352941" stop-color="#000000" stop-opacity="0.9098039"/>
      <stop offset="0.08235294117647059" stop-color="#000000" stop-opacity="0.4392157"/>
      <stop offset="0.5137254901960784" stop-color="#000000" stop-opacity="0.0"/>
      <stop offset="1.0" stop-color="#000000" stop-opacity="0.92156863"/>
    </linearGradient>
    <g id="shape3" transform="matrix(1.0, 0.0, 0.0, 1.0, -37.4, -221.7)">
      <path d="M45.7 245.1 L44.75 244.9 Q43.8 244.45 43.6 243.3 L43.05 239.25 37.4 236.0 38.9 229.9 45.7 221.7 45.7 245.1" fill="#9a723d" fill-rule="evenodd" stroke="none"/>
    </g>
    <g id="sprite2" transform="matrix(1.0, 0.0, 0.0, 1.0, 0.0, 0.0)">
      <use height="23.4" transform="matrix(1.0, 0.0, 0.0, 1.0, 0.0, 0.0)" width="8.3" xlink:href="#shape4"/>
    </g>
    <g id="shape4" transform="matrix(1.0, 0.0, 0.0, 1.0, 0.0, 0.0)">
      <path d="M1.5 8.2 L8.3 0.0 8.3 23.4 7.35 23.2 Q6.4 22.75 6.2 21.6 L5.65 17.55 0.0 14.3 1.5 8.2" fill="url(#gradient2)" fill-rule="evenodd" stroke="none"/>
    </g>
    <linearGradient gradientTransform="matrix(0.0, 0.0094, 0.0094, 0.0, 4.15, 12.7)" gradientUnits="userSpaceOnUse" id="gradient2" spreadMethod="pad" x1="-819.2" x2="819.2">
      <stop offset="0.0" stop-color="#000000"/>
      <stop offset="1.0" stop-color="#000000" stop-opacity="0.0"/>
    </linearGradient>
    <g id="shape5" transform="matrix(1.0, 0.0, 0.0, 1.0, -34.15, -185.05)">
      <path d="M39.8 185.05 L42.15 222.9 42.15 236.0 Q42.15 237.75 43.05 239.25 37.4 239.55 36.25 239.25 35.5 239.05 34.75 237.8 L34.15 236.6 34.15 225.5 39.8 185.05" fill="#ca913f" fill-rule="evenodd" stroke="none"/>
    </g>
    <g id="sprite3" transform="matrix(1.0, 0.0, 0.0, 1.0, 0.0, 0.0)">
      <use height="54.35" transform="matrix(1.0, 0.0, 0.0, 1.0, 0.0, 0.0)" width="8.9" xlink:href="#shape6"/>
    </g>
    <g id="shape6" transform="matrix(1.0, 0.0, 0.0, 1.0, 0.0, 0.0)">
      <path d="M5.65 0.0 L8.0 37.85 8.0 50.95 Q8.0 52.7 8.9 54.2 3.25 54.5 2.1 54.2 0.9 53.9 0.0 51.55 L0.0 40.45 5.65 0.0" fill="url(#gradient3)" fill-rule="evenodd" stroke="none"/>
    </g>
    <linearGradient gradientTransform="matrix(0.0, 0.0138, 0.0138, 0.0, 4.45, 39.8)" gradientUnits="userSpaceOnUse" id="gradient3" spreadMethod="pad" x1="-819.2" x2="819.2">
      <stop offset="0.0" stop-color="#000000" stop-opacity="0.29803923"/>
      <stop offset="0.07450980392156863" stop-color="#000000" stop-opacity="0.16078432"/>
      <stop offset="0.5137254901960784" stop-color="#000000" stop-opacity="0.0"/>
      <stop offset="1.0" stop-color="#000000" stop-opacity="0.92156863"/>
    </linearGradient>
    <g id="shape7" transform="matrix(1.0, 0.0, 0.0, 1.0, -153.55, -234.1)">
      <path d="M159.15 234.1 L161.8 236.45 161.8 243.45 Q160.6 245.2 159.75 245.2 L153.55 245.2 155.3 236.15 159.15 234.1" fill="#ca913f" fill-rule="evenodd" stroke="none"/>
    </g>
    <g id="sprite4" transform="matrix(1.0, 0.0, 0.0, 1.0, 0.0, 0.0)">
      <use height="11.1" transform="matrix(1.0, 0.0, 0.0, 1.0, 0.0, 0.0)" width="8.25" xlink:href="#shape8"/>
    </g>
    <g id="shape8" transform="matrix(1.0, 0.0, 0.0, 1.0, 0.0, 0.0)">
      <path d="M5.6 0.0 L8.25 2.35 8.25 9.35 Q7.05 11.1 6.2 11.1 L0.0 11.1 1.75 2.05 5.6 0.0" fill="url(#gradient4)" fill-rule="evenodd" stroke="none"/>
    </g>
    <linearGradient gradientTransform="matrix(0.0, -0.0031, 0.0031, 0.0, 4.1, 7.7)" gradientUnits="userSpaceOnUse" id="gradient4" spreadMethod="pad" x1="-819.2" x2="819.2">
      <stop offset="0.011764705882352941" stop-color="#000000" stop-opacity="0.9098039"/>
      <stop offset="0.08235294117647059" stop-color="#000000" stop-opacity="0.4392157"/>
      <stop offset="0.5137254901960784" stop-color="#000000" stop-opacity="0.0"/>
      <stop offset="1.0" stop-color="#000000" stop-opacity="0.92156863"/>
    </linearGradient>
    <g id="shape9" transform="matrix(1.0, 0.0, 0.0, 1.0, -153.25, -221.7)">
      <path d="M153.25 245.1 L153.25 221.7 160.05 229.9 161.5 236.0 155.9 239.25 155.3 243.3 Q155.1 244.45 154.15 244.9 L153.25 245.1" fill="#9a723d" fill-rule="evenodd" stroke="none"/>
    </g>
    <g id="sprite5" transform="matrix(1.0, 0.0, 0.0, 1.0, 0.0, 0.0)">
      <use height="23.4" transform="matrix(1.0, 0.0, 0.0, 1.0, 0.0, 0.0)" width="8.25" xlink:href="#shape10"/>
    </g>
    <g id="shape10" transform="matrix(1.0, 0.0, 0.0, 1.0, 0.0, 0.0)">
      <path d="M6.8 8.2 L8.25 14.3 2.65 17.55 2.05 21.6 Q1.85 22.75 0.9 23.2 L0.0 23.4 0.0 0.0 6.8 8.2" fill="url(#gradient5)" fill-rule="evenodd" stroke="none"/>
    </g>
    <linearGradient gradientTransform="matrix(0.0, -0.0094, 0.0094, 0.0, 4.1, 12.7)" gradientUnits="userSpaceOnUse" id="gradient5" spreadMethod="pad" x1="-819.2" x2="819.2">
      <stop offset="0.0" stop-color="#000000"/>
      <stop offset="1.0" stop-color="#000000" stop-opacity="0.0"/>
    </linearGradient>
    <g id="shape11" transform="matrix(1.0, 0.0, 0.0, 1.0, -155.9, -185.05)">
      <path d="M159.1 185.05 L164.75 225.5 164.75 236.6 Q163.85 238.95 162.7 239.25 L158.85 239.35 155.9 239.25 Q156.8 237.75 156.8 236.0 L156.8 222.9 159.1 185.05" fill="#ca913f" fill-rule="evenodd" stroke="none"/>
    </g>
    <g id="sprite6" transform="matrix(1.0, 0.0, 0.0, 1.0, 0.0, 0.0)">
      <use height="54.35" transform="matrix(1.0, 0.0, 0.0, 1.0, 0.0, 0.0)" width="8.85" xlink:href="#shape12"/>
    </g>
    <g id="shape12" transform="matrix(1.0, 0.0, 0.0, 1.0, 0.0, 0.0)">
      <path d="M3.2 0.0 L8.85 40.45 8.85 51.55 Q7.95 53.9 6.8 54.2 5.6 54.5 0.0 54.2 0.9 52.7 0.9 50.95 L0.9 37.85 3.2 0.0" fill="url(#gradient6)" fill-rule="evenodd" stroke="none"/>
    </g>
    <linearGradient gradientTransform="matrix(0.0, -0.0138, 0.0138, 0.0, 4.4, 39.8)" gradientUnits="userSpaceOnUse" id="gradient6" spreadMethod="pad" x1="-819.2" x2="819.2">
      <stop offset="0.0" stop-color="#000000" stop-opacity="0.29803923"/>
      <stop offset="0.07450980392156863" stop-color="#000000" stop-opacity="0.16078432"/>
      <stop offset="0.5137254901960784" stop-color="#000000" stop-opacity="0.0"/>
      <stop offset="1.0" stop-color="#000000" stop-opacity="0.92156863"/>
    </linearGradient>
    <g id="shape13" transform="matrix(1.0, 0.0, 0.0, 1.0, -28.6, 0.0)">
      <path d="M148.95 16.45 L133.0 18.05 99.3 14.45 65.55 18.05 49.6 16.45 Q33.7 14.35 33.9 12.1 34.1 9.8 31.65 7.95 L29.2 6.55 37.65 6.1 99.3 6.8 160.9 6.1 169.75 6.7 Q168.4 7.15 167.1 8.05 164.45 9.8 164.65 12.1 164.85 14.35 148.95 16.45" fill="#906833" fill-rule="evenodd" stroke="none"/>
      <path d="M164.8 224.25 L33.55 224.25 33.55 10.55 164.8 10.55 164.8 224.25" fill="#e6ae5b" fill-rule="evenodd" stroke="none"/>
      <path d="M169.75 6.45 L28.6 6.45 28.6 0.0 169.75 0.0 169.75 6.45" fill="#e6ae5b" fill-rule="evenodd" stroke="none"/>
    </g>
    <g id="sprite7" transform="matrix(1.0, 0.0, 0.0, 1.0, 0.0, 0.0)">
      <use height="6.45" transform="matrix(1.0, 0.0, 0.0, 1.0, 0.0, 0.0)" width="141.15" xlink:href="#shape14"/>
    </g>
    <g id="shape14" transform="matrix(1.0, 0.0, 0.0, 1.0, 0.0, 0.0)">
      <path d="M141.15 6.45 L0.0 6.45 0.0 0.0 141.15 0.0 141.15 6.45" fill="url(#gradient7)" fill-rule="evenodd" stroke="none"/>
    </g>
    <radialGradient cx="0" cy="0" gradientTransform="matrix(0.061, 0.0, 0.0, -0.0624, 70.55, 3.2)" gradientUnits="userSpaceOnUse" id="gradient7" r="819.2" spreadMethod="pad">
      <stop offset="0.21176470588235294" stop-color="#000000" stop-opacity="0.0"/>
      <stop offset="0.8117647058823529" stop-color="#000000" stop-opacity="0.6509804"/>
      <stop offset="1.0" stop-color="#000000" stop-opacity="0.92156863"/>
    </radialGradient>
    <g id="shape15" transform="matrix(1.0, 0.0, 0.0, 1.0, -30.95, -5.7)">
      <path d="M61.6 6.1 Q95.3 5.6 111.0 5.7 136.15 5.9 169.75 6.7 L101.6 6.6 39.4 6.55 61.6 6.1" fill="#f0d48a" fill-rule="evenodd" stroke="none"/>
      <path d="M166.9 225.85 L30.95 225.85 30.95 219.4 166.9 219.4 166.9 225.85" fill="#fde8b4" fill-rule="evenodd" stroke="none"/>
      <path d="M166.9 226.8 L30.95 226.8 30.95 220.35 166.9 220.35 166.9 226.8" fill="#e6ae5b" fill-rule="evenodd" stroke="none"/>
    </g>
    <g id="sprite8" transform="matrix(1.0, 0.0, 0.0, 1.0, 0.0, 0.0)">
      <use height="6.45" transform="matrix(1.0, 0.0, 0.0, 1.0, 0.0, 0.0)" width="135.95" xlink:href="#shape16"/>
    </g>
    <g id="shape16" transform="matrix(1.0, 0.0, 0.0, 1.0, 0.0, 0.0)">
      <path d="M135.95 6.45 L0.0 6.45 0.0 0.0 135.95 0.0 135.95 6.45" fill="url(#gradient8)" fill-rule="evenodd" stroke="none"/>
    </g>
    <radialGradient cx="0" cy="0" gradientTransform="matrix(0.0587, 0.0, 0.0, -0.0624, 68.0, 3.25)" gradientUnits="userSpaceOnUse" id="gradient8" r="819.2" spreadMethod="pad">
      <stop offset="0.21176470588235294" stop-color="#000000" stop-opacity="0.0"/>
      <stop offset="0.8117647058823529" stop-color="#000000" stop-opacity="0.6509804"/>
      <stop offset="1.0" stop-color="#000000" stop-opacity="0.92156863"/>
    </radialGradient>
    <g id="sprite9" transform="matrix(1.0, 0.0, 0.0, 1.0, 0.0, 0.0)">
      <use height="12.15" transform="matrix(1.0, 0.0, 0.0, 1.0, 0.0, 0.0)" width="2.85" xlink:href="#shape17"/>
    </g>
    <g id="shape17" transform="matrix(1.0, 0.0, 0.0, 1.0, 0.0, 0.0)">
      <path d="M0.55 0.3 Q1.1 0.0 1.65 0.0 L1.4 0.25 2.45 0.4 2.85 0.8 2.85 11.65 Q2.85 12.15 1.4 12.15 0.9 12.15 0.4 11.7 L0.0 11.05 0.0 0.8 0.55 0.3" fill="#000000" fill-rule="evenodd" stroke="none"/>
    </g>
    <g id="shape18" transform="matrix(1.0, 0.0, 0.0, 1.0, -35.0, -166.65)">
      <path d="M37.85 167.15 L37.85 178.0 Q37.85 178.55 36.4 178.55 35.0 178.55 35.0 178.0 L35.0 167.15 Q35.0 166.65 36.4 166.65 37.85 166.65 37.85 167.15" fill="url(#gradient9)" fill-rule="evenodd" stroke="none"/>
    </g>
    <linearGradient gradientTransform="matrix(0.0017, 0.0, 0.0, -0.0017, 36.4, 172.6)" gradientUnits="userSpaceOnUse" id="gradient9" spreadMethod="pad" x1="-819.2" x2="819.2">
      <stop offset="0.011764705882352941" stop-color="#a6a6a6"/>
      <stop offset="0.2823529411764706" stop-color="#c9c9c9"/>
      <stop offset="1.0" stop-color="#666666"/>
    </linearGradient>
    <g id="sprite10" transform="matrix(1.0, 0.0, 0.0, 1.0, 0.0, 0.0)">
      <use height="12.15" transform="matrix(1.0, 0.0, 0.0, 1.0, 0.0, 0.0)" width="2.85" xlink:href="#shape17"/>
    </g>
    <g id="sprite11" transform="matrix(1.0, 0.0, 0.0, 1.0, 0.0, 0.0)">
      <use height="12.15" transform="matrix(1.0, 0.0, 0.0, 1.0, 0.0, 0.0)" width="2.85" xlink:href="#shape17"/>
    </g>
    <g id="sprite12" transform="matrix(1.0, 0.0, 0.0, 1.0, 0.0, 0.0)">
      <use height="12.15" transform="matrix(1.0, 0.0, 0.0, 1.0, 0.0, 0.0)" width="2.85" xlink:href="#shape17"/>
    </g>
    <g id="shape19" transform="matrix(1.0, 0.0, 0.0, 1.0, -40.85, -15.8)">
      <path d="M162.3 167.15 L162.3 178.0 Q162.3 178.55 160.85 178.55 159.45 178.55 159.45 178.0 L159.45 167.15 Q159.45 166.65 160.85 166.65 162.3 166.65 162.3 167.15" fill="url(#gradient10)" fill-rule="evenodd" stroke="none"/>
      <path d="M157.6 214.65 L40.85 214.65 40.85 15.8 157.6 15.8 157.6 214.65" fill="#ae8246" fill-rule="evenodd" stroke="none"/>
    </g>
    <linearGradient gradientTransform="matrix(0.0017, 0.0, 0.0, -0.0017, 160.85, 172.6)" gradientUnits="userSpaceOnUse" id="gradient10" spreadMethod="pad" x1="-819.2" x2="819.2">
      <stop offset="0.011764705882352941" stop-color="#a6a6a6"/>
      <stop offset="0.2823529411764706" stop-color="#c9c9c9"/>
      <stop offset="1.0" stop-color="#666666"/>
    </linearGradient>
    <g id="sprite13" transform="matrix(1.0, 0.0, 0.0, 1.0, 0.0, 0.0)">
      <use height="200.0" transform="matrix(1.0, 0.0, 0.0, 1.0, 0.0, 0.0)" width="116.75" xlink:href="#shape20"/>
    </g>
    <g id="shape20" transform="matrix(1.0, 0.0, 0.0, 1.0, 0.0, 0.0)">
      <path d="M116.75 200.0 L0.0 200.0 0.0 0.0 116.75 0.0 116.75 200.0" fill="url(#gradient11)" fill-rule="evenodd" stroke="none"/>
    </g>
    <radialGradient cx="0" cy="0" gradientTransform="matrix(0.0807, 0.0, 0.0, -0.122, 58.4, 100.0)" gradientUnits="userSpaceOnUse" id="gradient11" r="819.2" spreadMethod="pad">
      <stop offset="0.0" stop-color="#000000" stop-opacity="0.36078432"/>
      <stop offset="1.0" stop-color="#000000" stop-opacity="0.9019608"/>
    </radialGradient>
    <g id="shape21" transform="matrix(1.0, 0.0, 0.0, 1.0, 0.0, -13.85)">
      <path d="M48.6 15.8 L48.6 206.75 42.45 214.45 41.95 21.95 42.45 15.8 48.6 15.8" fill="url(#gradient12)" fill-rule="evenodd" stroke="none"/>
      <path d="M155.65 15.8 L156.2 22.0 155.65 215.45 149.5 207.75 149.5 15.8 155.65 15.8" fill="url(#gradient13)" fill-rule="evenodd" stroke="none"/>
      <path d="M154.9 15.8 L157.6 15.8 157.6 216.8 40.85 216.8 40.85 15.8 42.45 15.8 42.45 214.55 154.9 214.55 154.9 15.8" fill="#c08f4d" fill-rule="evenodd" stroke="none"/>
      <path d="M165.65 14.9 L199.25 15.15 170.85 24.7 161.05 15.75 165.65 14.9" fill="#6f401f" fill-rule="evenodd" stroke="none"/>
      <path d="M36.8 15.05 L14.05 26.35 1.65 24.9 0.95 15.0 7.0 14.7 17.0 14.1 Q24.45 13.6 33.05 14.05 L36.8 15.05" fill="url(#gradient14)" fill-rule="evenodd" stroke="none"/>
      <path d="M0.95 15.0 L4.25 16.4 3.55 221.85 0.0 220.8 0.95 15.0" fill="url(#gradient15)" fill-rule="evenodd" stroke="none"/>
      <path d="M3.55 16.3 L36.8 15.05 36.8 215.45 3.55 221.85 3.55 16.3" fill="#a65f27" fill-rule="evenodd" stroke="none"/>
      <path d="M30.0 24.55 Q29.5 48.75 29.6 55.3 L30.1 79.25 30.5 104.8 31.3 145.4 31.45 163.65 31.1 172.55 30.55 183.7 Q30.1 191.4 30.1 194.5 L29.8 216.8 29.4 216.85 29.5 205.5 29.6 187.2 30.6 169.05 Q31.25 157.0 30.9 151.35 30.2 139.15 30.1 132.7 L29.75 115.95 29.7 104.85 29.8 95.0 29.7 88.05 Q28.9 59.5 28.9 39.6 28.9 26.95 29.15 23.45 L30.05 15.3 30.75 15.25 Q30.05 22.2 30.0 24.55" fill="#8d5021" fill-rule="evenodd" stroke="none"/>
      <path d="M34.05 24.35 L33.75 83.8 33.75 166.1 Q33.75 183.65 33.15 195.05 32.95 199.1 32.95 216.2 L32.0 216.4 Q32.05 207.35 32.6 194.0 33.15 181.25 33.15 173.25 L33.1 141.55 33.15 89.5 33.0 47.25 Q32.6 36.75 33.6 15.15 L34.2 15.15 34.05 24.35" fill="#8d5021" fill-rule="evenodd" stroke="none"/>
      <path d="M5.1 16.25 Q4.75 33.9 4.75 61.05 L5.2 74.55 Q5.6 83.85 5.3 90.0 L3.55 125.75 3.55 113.95 4.25 101.35 Q5.05 85.95 4.75 76.5 4.15 66.4 4.05 57.45 3.85 39.3 4.55 16.25 L5.1 16.25" fill="#8d5021" fill-rule="evenodd" stroke="none"/>
      <path d="M3.55 221.85 L3.55 177.4 3.85 191.45 4.05 221.75 3.55 221.85" fill="#8d5021" fill-rule="evenodd" stroke="none"/>
      <path d="M25.65 22.45 Q25.5 25.4 25.5 31.2 L25.6 75.3 Q25.9 103.85 26.3 107.75 27.05 114.8 27.3 142.35 27.4 154.15 26.2 172.25 L26.4 210.0 26.2 217.5 25.25 217.7 25.6 209.15 25.7 198.15 25.65 181.35 Q25.6 173.15 25.7 167.65 25.8 162.2 26.05 157.1 L26.6 142.4 Q26.9 133.0 26.5 123.1 L25.4 96.3 Q24.9 80.0 24.85 68.0 L24.9 49.9 24.9 23.7 Q24.9 19.05 25.45 15.45 L26.25 15.45 26.1 16.85 25.65 22.45" fill="#8d5021" fill-rule="evenodd" stroke="none"/>
      <path d="M32.75 15.2 Q32.2 28.0 32.2 31.6 L32.4 41.6 32.6 54.05 32.4 73.05 32.2 98.5 32.3 146.3 Q32.3 152.35 32.65 158.35 L32.9 166.9 32.2 182.25 31.4 196.8 31.0 216.55 30.15 216.75 31.9 182.4 Q32.45 170.9 32.25 167.4 31.9 161.2 31.9 158.15 L31.5 90.4 31.5 71.25 31.65 63.45 31.8 52.65 31.5 41.85 Q31.25 37.55 31.3 31.3 31.35 21.35 31.9 15.25 L32.75 15.2" fill="#8d5021" fill-rule="evenodd" stroke="none"/>
      <path d="M15.65 15.85 L16.1 42.5 15.6 63.75 14.95 86.9 Q14.85 93.95 14.9 104.0 L14.95 126.3 Q14.95 145.2 14.45 154.2 14.1 160.6 13.85 194.45 L13.65 219.95 12.65 220.15 12.8 210.7 13.1 180.65 Q13.35 160.95 13.95 152.45 14.5 144.2 14.5 126.3 L14.45 95.6 14.6 73.05 Q14.7 63.45 15.15 50.55 15.55 39.1 15.45 32.25 L15.05 15.85 15.65 15.85" fill="#8d5021" fill-rule="evenodd" stroke="none"/>
      <path d="M17.1 15.8 L17.6 34.15 17.8 45.45 17.5 56.15 Q17.3 67.0 17.3 107.65 L17.5 127.9 17.7 147.6 Q17.7 153.8 16.95 165.2 16.2 176.6 16.2 179.25 L16.3 191.55 15.85 213.75 15.65 219.55 14.7 219.75 15.25 210.65 Q15.85 201.35 15.65 197.9 L15.25 189.9 Q15.25 182.1 15.6 171.25 16.0 159.15 16.6 151.75 17.1 145.0 16.95 130.25 L16.5 98.3 Q16.3 82.95 16.55 67.25 L17.0 45.4 Q17.15 37.45 16.6 15.8 L17.1 15.8" fill="#8d5021" fill-rule="evenodd" stroke="none"/>
      <path d="M27.45 24.45 Q26.9 30.0 26.8 33.65 26.6 40.15 26.9 74.85 26.9 90.8 28.0 111.45 28.45 119.85 28.65 141.6 L28.8 174.7 Q28.9 196.35 27.95 217.2 L27.3 217.3 Q27.6 210.8 27.7 193.45 L27.8 167.35 27.9 139.75 Q27.9 129.8 27.35 117.5 26.7 102.35 26.6 97.3 26.45 90.65 26.45 80.25 L26.2 63.45 Q25.95 55.3 26.1 51.15 L26.3 40.15 Q26.3 33.05 26.6 28.4 L27.0 20.4 Q27.0 18.65 27.3 15.4 L28.25 15.35 28.1 17.15 27.45 24.45" fill="#8d5021" fill-rule="evenodd" stroke="none"/>
      <path d="M8.0 24.1 L8.2 59.0 7.75 91.95 Q7.75 94.4 8.1 102.1 L8.5 115.45 Q8.6 126.85 6.95 142.15 6.45 146.8 6.45 191.75 L6.35 221.3 5.75 221.45 5.8 190.4 6.0 156.85 Q6.0 148.65 6.8 136.1 L7.9 120.25 7.85 110.05 7.45 98.5 Q7.35 91.5 7.75 65.15 7.9 57.7 7.65 44.45 7.4 29.9 7.45 23.75 L7.5 16.15 7.95 16.1 8.0 24.1" fill="#8d5021" fill-rule="evenodd" stroke="none"/>
      <path d="M9.9 16.05 L9.75 30.55 Q9.5 53.1 9.5 89.6 L9.55 112.1 9.5 128.05 9.15 137.95 8.9 148.85 Q8.9 160.1 8.0 171.15 7.8 173.4 7.7 185.35 L7.55 202.8 7.55 221.1 7.2 221.15 7.25 212.85 7.25 193.2 7.25 176.35 Q7.3 171.3 7.75 167.8 8.2 164.55 8.2 157.65 L8.4 141.8 8.8 125.6 8.9 108.4 8.8 92.55 9.0 51.3 9.4 16.05 9.9 16.05" fill="#8d5021" fill-rule="evenodd" stroke="none"/>
      <path d="M12.0 15.95 L11.15 47.15 Q11.05 51.7 11.1 66.1 11.1 81.6 11.25 91.2 L11.35 120.8 11.15 145.3 10.4 159.9 9.5 177.05 9.1 220.8 8.4 220.95 8.6 196.05 Q8.8 175.1 9.15 168.7 L10.35 149.35 Q11.05 135.15 10.9 124.55 L10.55 92.05 10.55 52.25 10.95 38.1 11.5 16.0 12.0 15.95" fill="#8d5021" fill-rule="evenodd" stroke="none"/>
      <path d="M6.75 16.15 L6.6 44.35 Q6.55 62.6 6.75 70.0 6.95 79.2 6.6 91.35 6.3 101.65 5.8 107.75 5.4 113.2 5.1 138.1 L4.55 158.9 Q4.3 166.0 5.0 192.7 L5.15 221.55 4.6 221.65 4.55 197.9 4.3 178.35 4.15 164.05 Q4.15 158.8 4.45 152.4 L4.65 142.1 Q4.45 125.05 4.75 113.7 L5.35 105.2 Q5.9 99.75 6.1 91.75 6.35 83.3 6.05 68.4 L5.7 48.6 Q5.7 32.2 6.05 16.2 L6.75 16.15" fill="#8d5021" fill-rule="evenodd" stroke="none"/>
      <path d="M18.95 15.7 L19.55 38.0 19.55 73.7 Q19.55 81.95 19.85 94.05 L20.2 107.75 20.65 127.45 20.95 157.25 Q20.95 161.9 19.35 176.4 17.75 191.1 17.7 194.15 L17.5 204.1 Q17.4 210.15 17.8 216.65 L17.95 219.1 17.1 219.25 Q16.65 213.65 16.6 208.55 16.55 201.6 17.6 188.0 L19.85 161.35 Q20.7 150.5 20.4 142.85 19.65 125.8 19.55 113.15 L19.15 89.55 18.8 82.95 18.75 71.5 19.05 61.1 19.1 50.1 18.8 35.2 18.5 23.05 18.15 15.75 18.95 15.7" fill="#8d5021" fill-rule="evenodd" stroke="none"/>
      <path d="M13.8 15.9 L14.35 30.35 Q14.55 36.35 14.1 47.2 L13.4 62.2 Q12.95 79.25 13.2 100.45 13.4 116.35 12.7 153.75 L12.3 164.2 11.7 174.9 Q11.15 192.15 10.7 220.5 L10.2 220.6 10.55 197.9 Q10.9 177.15 11.15 172.55 L11.7 163.3 Q12.5 144.1 12.5 124.4 L12.4 81.35 Q12.4 73.25 12.7 65.7 L13.55 43.75 Q13.95 31.25 13.7 28.2 13.05 20.75 12.9 15.95 L13.8 15.9" fill="#8d5021" fill-rule="evenodd" stroke="none"/>
      <path d="M21.35 15.6 L21.35 27.85 22.0 52.1 22.65 81.55 22.65 95.2 22.85 112.05 22.95 144.45 22.85 179.6 Q22.85 188.3 21.9 192.0 21.55 193.25 20.45 194.75 20.1 195.25 20.1 200.2 L20.15 207.2 Q20.15 210.9 20.95 218.5 L19.25 218.85 19.15 217.5 Q18.75 212.05 18.9 207.8 L19.15 198.55 Q19.15 193.25 19.55 192.55 20.05 192.65 20.35 191.9 20.9 191.4 21.15 190.7 21.6 189.65 21.95 184.45 22.35 179.1 22.3 172.65 L22.15 152.35 21.65 105.7 21.6 95.75 21.85 90.55 21.75 77.35 20.85 51.25 Q20.2 27.65 20.6 15.65 L21.35 15.6" fill="#8d5021" fill-rule="evenodd" stroke="none"/>
      <path d="M23.7 20.2 L23.85 43.85 24.4 82.8 24.8 105.1 25.0 132.25 Q25.15 151.35 24.9 160.95 L24.3 173.25 23.7 188.85 Q22.95 201.65 22.85 206.65 L22.85 218.15 22.05 218.3 21.95 209.95 21.85 207.25 22.45 199.75 Q23.05 194.1 23.05 190.35 23.05 186.9 23.6 176.4 L24.4 156.75 Q24.65 147.9 24.55 138.3 L24.3 121.2 23.65 87.75 Q23.0 58.25 22.95 37.85 22.95 18.45 23.15 15.55 L23.9 15.5 23.7 20.2" fill="#8d5021" fill-rule="evenodd" stroke="none"/>
    </g>
    <radialGradient cx="0" cy="0" gradientTransform="matrix(3.0E-4, -0.117, -0.0091, 0.0, 41.3, 114.75)" gradientUnits="userSpaceOnUse" id="gradient12" r="819.2" spreadMethod="pad">
      <stop offset="0.0" stop-color="#624a2b"/>
      <stop offset="1.0" stop-color="#3c2d1b"/>
    </radialGradient>
    <radialGradient cx="0" cy="0" gradientTransform="matrix(-3.0E-4, -0.1176, 0.0091, 0.0, 156.05, 116.0)" gradientUnits="userSpaceOnUse" id="gradient13" r="819.2" spreadMethod="pad">
      <stop offset="0.0" stop-color="#624a2b"/>
      <stop offset="1.0" stop-color="#3c2d1b"/>
    </radialGradient>
    <linearGradient gradientTransform="matrix(6.0E-4, 0.0072, 0.007, -7.0E-4, 19.2, 19.75)" gradientUnits="userSpaceOnUse" id="gradient14" spreadMethod="pad" x1="-819.2" x2="819.2">
      <stop offset="0.0" stop-color="#c77a44"/>
      <stop offset="1.0" stop-color="#6d3f1f"/>
    </linearGradient>
    <linearGradient gradientTransform="matrix(0.0106, 0.1177, 0.1154, -0.0108, 2.35, 121.2)" gradientUnits="userSpaceOnUse" id="gradient15" spreadMethod="pad" x1="-819.2" x2="819.2">
      <stop offset="0.0" stop-color="#b16532"/>
      <stop offset="1.0" stop-color="#6d3f1f"/>
    </linearGradient>
    <g id="sprite14" transform="matrix(1.0, 0.0, 0.0, 1.0, 0.0, 0.0)">
      <use height="202.8" transform="matrix(1.0, 0.0, 0.0, 1.0, 0.0, 0.0)" width="33.25" xlink:href="#shape22"/>
    </g>
    <g id="shape22" transform="matrix(1.0, 0.0, 0.0, 1.0, 0.0, 0.0)">
      <path d="M0.0 1.25 L33.25 0.0 33.25 196.5 0.0 202.8 0.0 1.25" fill="url(#gradient16)" fill-rule="evenodd" stroke="none"/>
    </g>
    <radialGradient cx="0" cy="0" gradientTransform="matrix(0.0281, -3.0E-4, -7.0E-4, -0.129, 16.65, 101.4)" gradientUnits="userSpaceOnUse" id="gradient16" r="819.2" spreadMethod="pad">
      <stop offset="0.0" stop-color="#000000" stop-opacity="0.45882353"/>
      <stop offset="1.0" stop-color="#000000" stop-opacity="0.92156863"/>
    </radialGradient>
    <g id="sprite15" transform="matrix(1.0, 0.0, 0.0, 1.0, 0.0, 0.0)">
      <use height="201.5" transform="matrix(1.0, 0.0, 0.0, 1.0, 0.0, 0.0)" width="1.45" xlink:href="#shape23"/>
    </g>
    <g id="shape23" transform="matrix(1.0, 0.0, 0.0, 1.0, 0.0, 0.0)">
      <path d="M0.0 0.0 L1.45 3.8 1.45 197.8 0.0 201.5 0.0 0.0" fill="#6e3f1e" fill-rule="evenodd" stroke="none"/>
    </g>
    <g id="shape24" transform="matrix(1.0, 0.0, 0.0, 1.0, -160.8, -15.75)">
      <path d="M160.8 15.75 L195.7 15.75 195.7 220.35 160.8 214.9 160.8 15.75" fill="#a65f27" fill-rule="evenodd" stroke="none"/>
      <path d="M171.8 15.75 L172.45 33.55 Q172.5 43.9 171.8 55.25 171.15 77.3 171.6 87.2 171.9 94.15 171.8 105.15 L171.55 120.7 171.1 137.95 Q170.65 150.55 170.75 154.1 L171.7 176.65 Q171.95 182.5 171.5 195.75 L170.9 213.0 170.8 216.45 170.05 216.3 170.9 189.75 Q171.3 177.4 171.0 174.4 170.3 167.05 170.1 161.9 169.7 150.6 169.85 145.6 L170.35 137.0 Q171.15 123.0 171.25 107.15 L171.15 84.7 170.85 64.9 Q170.8 59.05 171.35 51.25 L171.85 39.95 171.25 15.75 171.8 15.75" fill="#8d5021" fill-rule="evenodd" stroke="none"/>
      <path d="M167.85 15.75 L168.25 44.3 Q168.3 51.1 167.75 71.2 167.2 91.65 167.2 97.75 L167.35 124.05 166.85 176.2 Q166.7 195.6 166.8 215.8 L166.15 215.7 166.2 196.3 166.55 143.2 166.7 106.25 167.15 75.05 Q167.65 50.3 167.6 37.2 L167.4 15.75 167.85 15.75" fill="#8d5021" fill-rule="evenodd" stroke="none"/>
      <path d="M169.55 15.75 L169.9 46.05 169.65 58.1 169.4 72.7 169.2 90.7 169.1 108.5 169.2 152.55 Q169.25 164.3 168.45 192.65 L168.45 216.05 167.8 215.95 167.8 197.6 Q167.8 193.3 168.15 183.75 168.55 173.1 168.6 162.1 168.75 144.95 168.4 115.9 168.05 86.85 169.15 63.85 169.55 54.7 169.4 40.35 L169.1 15.75 169.55 15.75" fill="#8d5021" fill-rule="evenodd" stroke="none"/>
      <path d="M166.55 15.75 L166.7 37.2 Q166.85 45.5 166.3 58.8 L165.5 73.75 Q165.1 78.85 164.7 116.8 164.65 126.05 164.95 169.65 L165.35 208.8 165.35 215.6 164.95 215.55 164.95 214.8 Q165.05 207.65 164.75 192.05 L164.45 169.25 164.3 120.0 Q164.4 90.65 164.95 74.1 L165.75 59.15 Q166.25 49.95 166.2 42.5 L166.05 15.75 166.55 15.75" fill="#8d5021" fill-rule="evenodd" stroke="none"/>
      <path d="M177.9 24.45 Q178.1 58.55 177.65 67.45 L176.65 83.35 Q175.85 95.75 175.8 99.8 175.75 104.9 175.3 103.95 174.8 103.0 174.7 97.65 L174.7 72.05 Q174.75 67.0 175.2 61.15 175.6 56.05 175.5 51.0 L174.9 15.75 175.75 15.75 176.4 52.05 175.9 61.75 Q175.4 68.1 175.3 73.9 175.1 84.95 175.45 91.95 L175.65 89.8 176.3 80.6 176.9 68.15 177.15 49.7 177.25 29.15 177.2 15.75 177.85 15.75 177.9 24.45" fill="#8d5021" fill-rule="evenodd" stroke="none"/>
      <path d="M195.1 15.75 L194.85 29.0 194.7 44.35 Q194.65 61.4 194.0 88.05 193.85 99.65 194.15 121.75 L193.8 144.95 193.4 173.55 193.3 220.0 192.55 219.85 192.3 196.65 192.2 187.55 Q192.2 175.4 193.0 160.1 193.75 145.0 193.6 128.35 193.2 109.8 193.15 99.3 193.1 89.25 193.75 74.4 194.35 60.85 194.15 50.9 194.0 40.7 194.1 15.75 L195.1 15.75" fill="#8d5021" fill-rule="evenodd" stroke="none"/>
      <path d="M164.05 25.25 Q164.5 36.0 163.95 48.6 L161.5 98.65 Q161.35 102.75 161.55 110.55 L161.95 125.9 162.4 139.25 Q162.55 145.65 162.2 153.15 161.5 167.05 161.8 210.15 L161.95 215.05 161.3 215.0 161.05 206.5 Q160.6 181.35 161.85 147.1 162.3 135.25 162.05 132.5 161.45 125.7 161.3 119.1 160.6 95.6 162.55 67.0 L163.55 47.85 Q163.8 39.55 163.65 28.4 L163.3 15.75 163.75 15.75 164.05 25.25" fill="#8d5021" fill-rule="evenodd" stroke="none"/>
      <path d="M174.05 21.7 L174.35 39.95 174.5 54.2 Q174.45 58.3 173.95 61.9 173.4 65.6 173.4 67.75 173.3 72.75 173.55 107.25 L173.15 126.25 172.75 144.95 Q172.8 151.7 173.2 168.3 L173.65 188.95 Q173.65 197.85 173.1 216.8 L172.25 216.65 172.7 196.7 Q173.1 185.0 172.9 177.6 L172.3 158.15 Q172.05 147.1 172.5 130.5 L173.0 103.65 172.75 80.8 172.5 66.0 Q172.5 63.35 173.15 59.4 173.8 55.4 173.8 44.55 L173.6 27.85 173.0 15.75 173.95 15.75 174.05 21.7" fill="#8d5021" fill-rule="evenodd" stroke="none"/>
      <path d="M165.4 15.75 L165.5 49.65 Q165.55 54.8 164.75 66.55 163.85 79.1 163.8 83.15 163.5 100.55 163.8 110.05 164.05 116.8 163.85 132.85 L163.6 156.4 163.65 184.7 Q163.65 206.4 163.8 215.35 L163.15 215.25 Q162.85 204.8 162.7 193.15 L162.8 172.75 Q162.9 158.7 163.15 151.1 163.45 142.9 163.4 129.3 163.35 115.7 162.95 108.25 162.6 101.65 162.65 96.7 L162.85 87.05 Q163.2 73.7 164.35 62.05 164.95 56.2 165.0 42.75 L164.9 22.4 164.8 15.75 165.4 15.75" fill="#8d5021" fill-rule="evenodd" stroke="none"/>
      <path d="M192.7 15.75 L192.85 31.0 193.15 70.45 Q193.2 76.05 192.65 87.4 L192.15 101.05 192.4 121.5 192.5 146.3 191.8 165.6 191.3 180.6 191.6 193.4 191.85 208.65 191.8 219.75 190.8 219.6 190.95 207.15 190.6 193.45 Q190.3 186.5 190.3 180.15 L190.6 167.55 191.5 156.4 Q192.05 149.9 191.95 142.0 L191.55 115.15 Q191.45 101.45 191.9 89.15 192.4 76.15 192.3 61.75 L191.8 15.75 192.7 15.75" fill="#8d5021" fill-rule="evenodd" stroke="none"/>
      <path d="M179.45 15.75 L179.6 38.1 179.25 62.4 Q178.8 78.3 178.85 85.9 178.9 95.2 177.6 103.15 L176.2 112.0 175.75 127.7 175.1 137.25 Q174.45 144.75 174.4 148.7 174.35 159.6 175.25 180.85 L175.5 194.65 175.25 207.85 175.15 217.15 174.25 217.0 174.65 191.9 174.4 172.25 173.8 151.85 Q173.65 144.65 174.45 134.8 175.35 124.0 175.35 119.05 175.4 112.4 176.0 107.7 L177.25 97.35 177.9 84.85 178.25 72.8 178.8 15.75 179.45 15.75" fill="#8d5021" fill-rule="evenodd" stroke="none"/>
      <path d="M190.8 15.75 L190.65 46.2 Q190.55 58.25 190.85 88.35 L191.0 142.55 Q191.05 149.1 189.95 160.15 L188.8 173.1 Q188.3 198.55 188.5 209.4 L188.8 219.25 188.05 219.1 Q187.75 208.9 187.65 188.15 187.6 174.15 188.0 170.45 L189.5 156.6 Q190.45 145.0 190.45 137.7 190.3 125.75 190.3 112.2 L190.1 71.15 190.15 42.25 190.25 15.75 190.8 15.75" fill="#8d5021" fill-rule="evenodd" stroke="none"/>
      <path d="M180.95 21.15 L180.8 52.75 Q180.55 75.2 180.6 82.75 180.65 91.75 179.75 102.25 L178.75 115.3 178.45 123.55 177.95 133.2 Q177.8 137.5 177.1 144.45 176.45 151.0 176.4 154.2 L176.8 167.55 177.35 185.0 177.5 217.5 176.8 217.4 176.9 213.05 176.9 199.6 176.55 182.1 175.95 167.05 Q175.65 161.15 175.65 156.25 175.65 152.65 176.75 143.1 177.8 133.65 177.8 123.15 177.8 113.15 178.2 111.4 178.7 109.1 178.9 102.45 L179.9 72.45 Q180.5 50.95 180.5 35.2 L180.3 15.75 180.95 15.75 180.95 21.15" fill="#8d5021" fill-rule="evenodd" stroke="none"/>
      <path d="M188.8 15.75 L188.1 48.05 Q187.8 58.45 187.9 68.65 L188.15 88.65 188.05 105.15 187.95 114.65 188.4 139.55 Q188.6 146.6 187.7 155.3 L186.65 165.35 185.95 172.65 Q185.4 178.1 185.3 181.85 185.1 188.0 185.5 218.75 L184.8 218.65 184.75 216.8 Q184.45 208.45 184.6 201.9 L184.75 188.25 Q184.7 181.15 185.05 176.5 L185.45 168.55 Q185.5 164.95 186.55 157.5 187.7 149.5 187.9 143.5 188.1 136.95 187.75 128.65 187.2 117.15 187.15 112.45 L187.0 82.85 187.6 60.75 Q188.05 41.8 188.0 28.55 L187.9 15.75 188.8 15.75" fill="#8d5021" fill-rule="evenodd" stroke="none"/>
      <path d="M182.45 15.75 L182.65 29.05 Q182.8 40.15 182.55 55.5 L182.1 74.65 Q181.85 79.85 181.55 93.45 181.25 107.7 181.3 113.6 L181.5 139.8 181.1 143.1 179.9 149.75 Q179.3 152.65 179.2 161.5 L179.25 175.15 Q179.3 180.6 180.65 218.0 L179.4 217.8 178.85 198.4 Q178.2 179.75 178.25 170.25 L178.55 158.3 Q178.65 153.35 179.0 150.8 L180.1 144.4 Q180.8 140.7 180.7 135.75 L180.45 124.0 Q180.35 98.6 181.75 68.9 182.4 55.55 182.3 39.35 L181.8 15.75 182.45 15.75" fill="#8d5021" fill-rule="evenodd" stroke="none"/>
      <path d="M186.85 24.65 Q187.0 48.6 186.05 62.1 185.7 66.5 185.75 78.95 L185.9 105.2 186.1 146.6 Q186.2 151.9 185.5 157.35 L184.4 164.85 183.95 170.35 Q183.8 173.3 183.8 179.2 L184.05 218.5 183.25 218.4 183.1 171.55 Q183.1 166.8 183.55 164.2 184.4 159.45 184.9 154.45 185.65 147.15 185.6 139.3 185.35 125.7 185.25 110.9 L185.05 78.8 Q185.05 65.45 185.75 45.55 L186.2 25.2 185.9 15.75 186.75 15.75 186.85 24.65" fill="#8d5021" fill-rule="evenodd" stroke="none"/>
      <path d="M184.3 15.75 L184.8 34.0 184.55 46.05 184.15 62.1 183.85 81.25 Q183.6 93.9 183.65 102.25 L183.65 139.25 183.4 147.4 182.7 155.0 Q181.75 165.45 181.75 167.85 L182.0 186.05 182.5 218.25 181.5 218.1 181.1 185.35 Q180.95 165.15 181.3 162.35 L182.05 153.9 Q182.25 147.55 182.7 144.5 183.0 142.35 183.05 131.3 182.95 117.65 183.0 98.6 L183.2 75.5 183.75 49.15 184.0 30.65 183.5 15.75 184.3 15.75" fill="#8d5021" fill-rule="evenodd" stroke="none"/>
    </g>
    <g id="sprite16" transform="matrix(1.0, 0.0, 0.0, 1.0, 0.0, 0.0)">
      <use height="200.6" transform="matrix(1.0, 0.0, 0.0, 1.0, 0.0, 0.0)" width="34.9" xlink:href="#shape25"/>
    </g>
    <g id="shape25" transform="matrix(1.0, 0.0, 0.0, 1.0, 0.0, 0.0)">
      <path d="M0.0 0.0 L34.9 0.0 34.9 200.6 0.0 195.25 0.0 0.0" fill="url(#gradient17)" fill-rule="evenodd" stroke="none"/>
    </g>
    <radialGradient cx="0" cy="0" gradientTransform="matrix(0.0216, -5.0E-4, -0.0015, -0.1254, 18.95, 100.3)" gradientUnits="userSpaceOnUse" id="gradient17" r="819.2" spreadMethod="pad">
      <stop offset="0.0" stop-color="#000000" stop-opacity="0.45882353"/>
      <stop offset="1.0" stop-color="#000000" stop-opacity="0.92156863"/>
    </radialGradient>
    <g id="shape26" transform="matrix(1.0, 0.0, 0.0, 1.0, -195.7, -15.15)">
      <path d="M199.25 15.15 L199.05 219.6 195.7 220.35 195.7 15.75 199.25 15.15" fill="#5b3419" fill-rule="evenodd" stroke="none"/>
    </g>
    <g id="sprite17" transform="matrix(1.0, 0.0, 0.0, 1.0, 0.0, 0.0)">
      <use height="195.3" transform="matrix(1.0, 0.0, 0.0, 1.0, 0.0, 0.0)" width="1.5" xlink:href="#shape27"/>
    </g>
    <g id="shape27" transform="matrix(1.0, 0.0, 0.0, 1.0, 0.0, 0.0)">
      <path d="M0.0 0.0 L1.5 3.75 1.5 192.15 0.0 195.3 0.0 0.0" fill="#6e3f1e" fill-rule="evenodd" stroke="none"/>
    </g>
    <g id="shape28" transform="matrix(1.0, 0.0, 0.0, 1.0, -3.1, -27.3)">
      <path d="M195.65 27.3 Q196.1 28.05 196.1 118.9 196.1 210.6 195.65 210.6 195.25 209.8 195.25 118.9 195.25 27.3 195.65 27.3" fill="#a45f2e" fill-rule="evenodd" stroke="none"/>
      <path d="M3.55 27.3 Q3.95 28.1 3.95 118.9 3.95 210.6 3.55 210.6 3.1 209.85 3.1 118.9 3.1 27.3 3.55 27.3" fill="#c57942" fill-rule="evenodd" stroke="none"/>
    </g>
  </defs>
</svg>
