<?xml version="1.0" encoding="UTF-8" standalone="no"?>
<svg xmlns:xlink="http://www.w3.org/1999/xlink" height="89.55px" width="500.0px" xmlns="http://www.w3.org/2000/svg">
  <g transform="matrix(1.0, 0.0, 0.0, 1.0, 0.0, 0.0)">
    <use height="89.55" transform="matrix(1.0, 0.0, 0.0, 1.0, 0.0, 0.0)" width="500.0" xlink:href="#shape0"/>
  </g>
  <defs>
    <g id="shape0" transform="matrix(1.0, 0.0, 0.0, 1.0, 0.0, 0.0)">
      <path d="M500.0 49.55 L500.0 89.55 0.0 89.55 0.0 49.55 Q16.45 49.55 39.7 41.9 53.0 37.5 82.9 25.05 111.9 12.9 127.15 8.05 151.65 0.25 170.15 0.05 220.55 -0.45 275.05 7.15 315.05 12.75 365.95 24.25 L441.4 41.6 Q478.85 49.55 500.0 49.55" fill="#b3ab64" fill-rule="evenodd" stroke="none"/>
      <path d="M45.45 79.5 L41.9 74.55 38.0 79.35 41.9 72.0 45.45 79.5" fill="#a49a48" fill-rule="evenodd" stroke="none"/>
      <path d="M75.35 67.35 L71.05 61.4 66.4 67.15 71.05 58.3 75.35 67.35" fill="#a49a48" fill-rule="evenodd" stroke="none"/>
      <path d="M106.2 70.75 L102.8 66.05 99.15 70.6 102.8 63.65 106.2 70.75" fill="#a49a48" fill-rule="evenodd" stroke="none"/>
      <path d="M138.6 72.6 L134.9 67.45 130.85 72.45 134.9 64.75 138.6 72.6" fill="#a49a48" fill-rule="evenodd" stroke="none"/>
      <path d="M158.75 57.6 L154.4 63.0 158.75 54.7 162.75 63.15 158.75 57.6" fill="#a49a48" fill-rule="evenodd" stroke="none"/>
      <path d="M196.7 71.5 L194.35 68.2 191.75 71.4 194.35 66.5 196.7 71.5" fill="#a49a48" fill-rule="evenodd" stroke="none"/>
      <path d="M229.4 63.15 L225.45 57.65 221.2 62.95 225.45 54.8 229.4 63.15" fill="#a49a48" fill-rule="evenodd" stroke="none"/>
      <path d="M256.05 75.9 L252.2 70.55 248.05 75.7 252.2 67.85 256.05 75.9" fill="#a49a48" fill-rule="evenodd" stroke="none"/>
      <path d="M277.75 68.4 L273.4 62.35 268.65 68.2 273.4 59.2 277.75 68.4" fill="#a49a48" fill-rule="evenodd" stroke="none"/>
      <path d="M319.45 68.55 L316.05 63.8 312.35 68.4 316.05 61.35 319.45 68.55" fill="#a49a48" fill-rule="evenodd" stroke="none"/>
      <path d="M351.85 78.75 L347.6 72.8 342.95 78.55 347.6 69.75 351.85 78.75" fill="#a49a48" fill-rule="evenodd" stroke="none"/>
      <path d="M381.9 82.65 L379.5 79.25 376.8 82.55 379.5 77.5 381.9 82.65" fill="#a49a48" fill-rule="evenodd" stroke="none"/>
      <path d="M404.5 70.25 L402.25 67.15 399.85 70.15 402.25 65.6 404.5 70.25" fill="#a49a48" fill-rule="evenodd" stroke="none"/>
      <path d="M437.4 73.85 L432.95 67.6 428.05 73.65 432.95 64.4 437.4 73.85" fill="#a49a48" fill-rule="evenodd" stroke="none"/>
      <path d="M470.45 65.6 L465.8 59.1 460.75 65.4 465.8 55.75 470.45 65.6" fill="#a49a48" fill-rule="evenodd" stroke="none"/>
      <path d="M495.55 78.65 L491.6 73.2 487.3 78.5 491.6 70.35 495.55 78.65" fill="#a49a48" fill-rule="evenodd" stroke="none"/>
      <path d="M226.9 83.05 L222.45 76.85 217.6 82.85 222.45 73.65 226.9 83.05" fill="#a49a48" fill-rule="evenodd" stroke="none"/>
      <path d="M455.8 83.3 L453.25 79.75 450.45 83.15 453.25 77.9 455.8 83.3" fill="#a49a48" fill-rule="evenodd" stroke="none"/>
      <path d="M168.75 81.9 L164.4 75.85 159.7 81.7 164.4 72.7 168.75 81.9" fill="#a49a48" fill-rule="evenodd" stroke="none"/>
      <path d="M478.4 87.15 L476.0 83.8 473.35 87.05 476.0 82.05 478.4 87.15" fill="#a49a48" fill-rule="evenodd" stroke="none"/>
      <path d="M485.65 57.6 L483.5 54.55 481.1 57.5 483.5 52.95 485.65 57.6" fill="#a49a48" fill-rule="evenodd" stroke="none"/>
      <path d="M437.65 54.1 L433.85 48.8 429.7 53.9 433.85 46.1 437.65 54.1" fill="#a49a48" fill-rule="evenodd" stroke="none"/>
      <path d="M400.15 50.35 L396.3 45.0 392.1 50.2 396.3 42.25 400.15 50.35" fill="#a49a48" fill-rule="evenodd" stroke="none"/>
      <path d="M370.65 51.65 L367.75 47.6 364.6 51.5 367.75 45.55 370.65 51.65" fill="#a49a48" fill-rule="evenodd" stroke="none"/>
      <path d="M346.65 57.3 L344.45 54.2 342.05 57.2 344.45 52.65 346.65 57.3" fill="#a49a48" fill-rule="evenodd" stroke="none"/>
      <path d="M323.55 46.9 L321.25 43.7 318.75 46.8 321.25 42.1 323.55 46.9" fill="#a49a48" fill-rule="evenodd" stroke="none"/>
      <path d="M294.1 56.85 L291.25 52.85 288.15 56.7 291.25 50.8 294.1 56.85" fill="#a49a48" fill-rule="evenodd" stroke="none"/>
      <path d="M262.1 46.15 L259.45 42.45 256.55 46.0 259.45 40.55 262.1 46.15" fill="#a49a48" fill-rule="evenodd" stroke="none"/>
      <path d="M217.1 9.2 L214.5 5.55 211.6 9.1 214.5 3.65 217.1 9.2" fill="#a49a48" fill-rule="evenodd" stroke="none"/>
      <path d="M233.2 43.45 L229.05 37.65 224.55 43.3 229.05 34.7 233.2 43.45" fill="#a49a48" fill-rule="evenodd" stroke="none"/>
      <path d="M203.55 54.05 L199.15 47.95 194.4 53.85 199.15 44.8 203.55 54.05" fill="#a49a48" fill-rule="evenodd" stroke="none"/>
      <path d="M178.55 51.9 L174.75 46.6 170.6 51.75 174.75 43.9 178.55 51.9" fill="#a49a48" fill-rule="evenodd" stroke="none"/>
      <path d="M144.95 49.5 L142.1 45.5 139.0 49.35 142.1 43.5 144.95 49.5" fill="#a49a48" fill-rule="evenodd" stroke="none"/>
      <path d="M112.3 42.3 L108.35 36.8 104.05 42.15 108.35 33.95 112.3 42.3" fill="#a49a48" fill-rule="evenodd" stroke="none"/>
      <path d="M79.25 41.3 L76.55 44.65 79.25 39.5 81.75 44.8 79.25 41.3" fill="#a49a48" fill-rule="evenodd" stroke="none"/>
      <path d="M13.15 57.15 L10.65 53.65 7.9 57.05 10.65 51.85 13.15 57.15" fill="#a49a48" fill-rule="evenodd" stroke="none"/>
      <path d="M56.9 50.85 L52.3 44.45 47.35 50.65 52.3 41.15 56.9 50.85" fill="#a49a48" fill-rule="evenodd" stroke="none"/>
      <path d="M32.45 63.4 L29.0 58.55 25.2 63.25 29.0 56.05 32.45 63.4" fill="#a49a48" fill-rule="evenodd" stroke="none"/>
      <path d="M68.75 87.15 L64.0 80.55 58.8 86.95 64.0 77.1 68.75 87.15" fill="#a49a48" fill-rule="evenodd" stroke="none"/>
      <path d="M100.55 30.35 L97.5 26.05 94.1 30.2 97.5 23.8 100.55 30.35" fill="#a49a48" fill-rule="evenodd" stroke="none"/>
      <path d="M193.65 87.8 L191.0 84.05 188.05 87.65 191.0 82.1 193.65 87.8" fill="#a49a48" fill-rule="evenodd" stroke="none"/>
      <path d="M150.65 34.45 L148.0 30.75 145.1 34.3 148.0 28.8 150.65 34.45" fill="#a49a48" fill-rule="evenodd" stroke="none"/>
      <path d="M193.5 36.85 L191.25 33.7 188.85 36.75 191.25 32.1 193.5 36.85" fill="#a49a48" fill-rule="evenodd" stroke="none"/>
      <path d="M173.45 27.8 L171.2 24.7 168.8 27.75 171.2 23.1 173.45 27.8" fill="#a49a48" fill-rule="evenodd" stroke="none"/>
      <path d="M19.7 84.35 L17.5 81.25 15.05 84.25 17.5 79.65 19.7 84.35" fill="#a49a48" fill-rule="evenodd" stroke="none"/>
      <path d="M229.35 20.05 L225.95 15.3 222.25 19.9 225.95 12.9 229.35 20.05" fill="#a49a48" fill-rule="evenodd" stroke="none"/>
      <path d="M255.7 34.0 L251.6 28.25 247.1 33.8 251.6 25.3 255.7 34.0" fill="#a49a48" fill-rule="evenodd" stroke="none"/>
      <path d="M287.85 35.85 L284.9 31.75 281.65 35.75 284.9 29.6 287.85 35.85" fill="#a49a48" fill-rule="evenodd" stroke="none"/>
      <path d="M314.6 35.4 L310.5 29.7 306.05 35.2 310.5 26.75 314.6 35.4" fill="#a49a48" fill-rule="evenodd" stroke="none"/>
      <path d="M346.65 33.6 L344.2 30.15 341.5 33.5 344.2 28.4 346.65 33.6" fill="#a49a48" fill-rule="evenodd" stroke="none"/>
      <path d="M376.4 36.5 L372.5 31.05 368.2 36.3 372.5 28.2 376.4 36.5" fill="#a49a48" fill-rule="evenodd" stroke="none"/>
      <path d="M321.3 83.05 L318.25 86.85 321.3 81.05 324.05 86.95 321.3 83.05" fill="#a49a48" fill-rule="evenodd" stroke="none"/>
      <path d="M424.25 87.2 L420.65 82.2 416.75 87.05 420.65 79.65 424.25 87.2" fill="#a49a48" fill-rule="evenodd" stroke="none"/>
      <path d="M301.5 84.55 L297.4 78.8 292.9 84.35 297.4 75.85 301.5 84.55" fill="#a49a48" fill-rule="evenodd" stroke="none"/>
      <path d="M88.8 81.3 L86.25 77.7 83.45 81.15 86.25 75.9 88.8 81.3" fill="#a49a48" fill-rule="evenodd" stroke="none"/>
      <path d="M270.3 87.5 L268.0 84.2 265.45 87.4 268.0 82.55 270.3 87.5" fill="#a49a48" fill-rule="evenodd" stroke="none"/>
      <path d="M276.6 16.0 L272.5 10.25 268.0 15.8 272.5 7.25 276.6 16.0" fill="#a49a48" fill-rule="evenodd" stroke="none"/>
      <path d="M252.4 14.4 L247.65 7.75 242.45 14.2 247.65 4.3 252.4 14.4" fill="#a49a48" fill-rule="evenodd" stroke="none"/>
      <path d="M213.15 28.9 L209.9 24.4 206.4 28.8 209.9 22.05 213.15 28.9" fill="#a49a48" fill-rule="evenodd" stroke="none"/>
      <path d="M194.1 12.4 L189.65 6.15 184.75 12.2 189.65 2.95 194.1 12.4" fill="#a49a48" fill-rule="evenodd" stroke="none"/>
      <path d="M159.65 9.35 L157.05 5.7 154.2 9.25 157.05 3.85 159.65 9.35" fill="#a49a48" fill-rule="evenodd" stroke="none"/>
      <path d="M139.55 24.35 L136.05 19.55 132.3 24.2 136.05 17.05 139.55 24.35" fill="#a49a48" fill-rule="evenodd" stroke="none"/>
      <path d="M121.3 81.8 L118.35 85.45 121.3 79.9 124.0 85.6 121.3 81.8" fill="#a49a48" fill-rule="evenodd" stroke="none"/>
    </g>
  </defs>
</svg>
