<?xml version="1.0" encoding="UTF-8" standalone="no"?>
<svg xmlns:xlink="http://www.w3.org/1999/xlink" height="85.65px" width="150.0px" xmlns="http://www.w3.org/2000/svg">
  <g transform="matrix(1.0, 0.0, 0.0, 1.0, 0.0, 0.0)">
    <use height="85.65" transform="matrix(1.0, 0.0, 0.0, 1.0, 0.0, 0.0)" width="149.1" xlink:href="#shape0"/>
    <use height="40.95" transform="matrix(1.0, 0.0, 0.0, 1.0, 75.3, 14.55)" width="40.35" xlink:href="#shape1"/>
    <clipPath id="clipPath0" transform="matrix(1.0, 0.0, 0.0, 1.0, 0.0, 0.0)">
      <use height="40.2" transform="matrix(1.0, 0.0, 0.0, 1.0, 75.65, 14.85)" width="39.55" xlink:href="#shape2"/>
    </clipPath>
    <g clip-path="url(#clipPath0)">
      <use height="41.65" transform="matrix(1.0, 0.0, 0.0, 1.0, 75.2, 14.2)" width="40.45" xlink:href="#shape3"/>
    </g>
    <use height="14.0" transform="matrix(1.0, 0.0, 0.0, 1.0, 31.2, 12.0)" width="48.5" xlink:href="#shape4"/>
    <use height="4.4" transform="matrix(1.0, 0.0, 0.0, 1.0, 48.95, 24.3)" width="25.55" xlink:href="#shape5"/>
    <use height="5.85" transform="matrix(1.0, 0.0, 0.0, 1.0, 49.1, 27.35)" width="25.35" xlink:href="#shape6"/>
    <use height="3.0" transform="matrix(1.0, 0.0, 0.0, 1.0, 49.35, 32.6)" width="24.35" xlink:href="#shape7"/>
    <use height="4.7" transform="matrix(1.0, 0.0, 0.0, 1.0, 48.25, 35.0)" width="26.2" xlink:href="#shape8"/>
    <use height="5.85" transform="matrix(1.0, 0.0, 0.0, 1.0, 47.4, 38.35)" width="28.7" xlink:href="#shape9"/>
    <use height="26.7" transform="matrix(1.0, 0.0, 0.0, 0.5223, 31.2, 54.1276)" width="7.0" xlink:href="#shape10"/>
    <use height="20.3" transform="matrix(1.0, 0.0, 0.0, 1.333, 36.7, 43.1204)" width="6.2" xlink:href="#shape11"/>
    <use height="29.7" transform="matrix(1.0, 0.0, 0.0, 0.3538, 41.3, 56.8964)" width="5.65" xlink:href="#shape12"/>
    <use height="25.5" transform="matrix(1.0, 0.0, 0.0, 1.0874, 45.5, 39.9352)" width="4.35" xlink:href="#shape13"/>
    <use height="17.0" transform="matrix(1.0, 0.0, 0.0, 0.2629, 49.3, 62.4155)" width="4.65" xlink:href="#shape14"/>
    <use height="13.05" transform="matrix(0.9693, 0.0, 0.0, 0.9693, 36.8966, 25.8497)" width="12.75" xlink:href="#shape15"/>
    <use height="13.05" transform="matrix(0.6467, 0.0, 0.0, 0.6467, 38.961, 27.9464)" width="12.75" xlink:href="#shape15"/>
    <use height="13.05" transform="matrix(0.2627, 0.0, 0.0, 0.2627, 41.4187, 30.4424)" width="12.75" xlink:href="#shape15"/>
    <use height="17.0" transform="matrix(1.0, 0.0, 0.0, 1.0, 34.55, 23.65)" width="17.15" xlink:href="#shape16"/>
    <use height="60.05" transform="matrix(1.0, 0.0, 0.0, 1.0, 21.0, 11.15)" width="110.45" xlink:href="#shape17"/>
    <use height="0.0" id="price_tag_pt" transform="matrix(1.0, 0.0, 0.0, 1.0, 75.0, 90.45)" width="0.0" xlink:href="#sprite0"/>
  </g>
  <defs>
    <g id="shape0" transform="matrix(1.0, 0.0, 0.0, 1.0, 74.55, 42.8)">
      <path d="M-49.85 -42.5 L48.85 -42.8 74.55 42.55 -74.55 42.85 -49.85 -42.5" fill="url(#gradient0)" fill-rule="evenodd" stroke="none"/>
      <path d="M-74.55 42.85 L-67.6 38.95 71.45 40.55 74.55 42.55 -74.55 42.85" fill="url(#gradient1)" fill-rule="evenodd" stroke="none"/>
      <path d="M-46.95 -40.45 L47.95 -40.45 71.45 40.55 -69.55 40.55 -46.95 -40.45" fill="#253538" fill-rule="evenodd" stroke="none"/>
      <path d="M56.9 28.05 L-53.55 28.55 -40.05 -31.45 40.3 -31.45 56.9 28.05" fill="#1a2528" fill-rule="evenodd" stroke="none"/>
      <path d="M55.45 25.4 L-50.55 25.4 -37.45 -31.45 40.7 -31.45 55.45 25.4" fill="#2d2d2d" fill-rule="evenodd" stroke="none"/>
      <path d="M47.95 -40.45 L49.0 -36.95 -44.35 -36.95 -64.35 39.05 -67.6 38.95 -69.15 39.1 -46.95 -40.45 47.95 -40.45" fill="url(#gradient2)" fill-rule="evenodd" stroke="none"/>
      <path d="M55.45 25.4 L56.9 28.05 -53.55 28.55 -49.35 25.3 55.45 25.4" fill="#223033" fill-rule="evenodd" stroke="none"/>
      <path d="M40.7 -31.45 L41.45 -31.3 57.65 28.05 56.9 28.05 40.7 -31.45" fill="#385154" fill-rule="evenodd" stroke="none"/>
      <path d="M57.95 29.05 L-51.7 29.9 -53.55 28.6 57.45 27.7 57.95 29.05" fill="#385154" fill-rule="evenodd" stroke="none"/>
      <path d="M40.3 -31.45 L41.3 -29.15 -38.05 -29.15 -40.05 -31.45 40.3 -31.45" fill="#1a282b" fill-rule="evenodd" stroke="none"/>
    </g>
    <linearGradient gradientTransform="matrix(0.091, 0.0, 0.0, -0.091, 0.0, 0.05)" gradientUnits="userSpaceOnUse" id="gradient0" spreadMethod="pad" x1="-819.2" x2="819.2">
      <stop offset="0.08627450980392157" stop-color="#000000" stop-opacity="0.32941177"/>
      <stop offset="0.22745098039215686" stop-color="#000000" stop-opacity="0.32941177"/>
    </linearGradient>
    <linearGradient gradientTransform="matrix(0.0, -0.0067, -0.0067, 0.0, 0.0, 41.0)" gradientUnits="userSpaceOnUse" id="gradient1" spreadMethod="pad" x1="-819.2" x2="819.2">
      <stop offset="0.0" stop-color="#ffffff" stop-opacity="0.5137255"/>
      <stop offset="0.6549019607843137" stop-color="#ffffff" stop-opacity="0.1764706"/>
    </linearGradient>
    <linearGradient gradientTransform="matrix(0.0721, 0.0, 0.0, -0.0721, -10.05, -0.7)" gradientUnits="userSpaceOnUse" id="gradient2" spreadMethod="pad" x1="-819.2" x2="819.2">
      <stop offset="0.08627450980392157" stop-color="#000000" stop-opacity="0.32941177"/>
      <stop offset="0.22745098039215686" stop-color="#000000" stop-opacity="0.32941177"/>
    </linearGradient>
    <g id="shape1" transform="matrix(1.0, 0.0, 0.0, 1.0, 20.7, 21.6)">
      <path d="M13.2 -21.6 Q15.9 -20.0 18.35 -17.65 L19.65 -16.3 19.65 16.4 18.35 17.7 16.5 19.35 -16.45 19.35 -18.35 17.7 -20.7 15.15 -20.7 -15.1 -18.35 -17.65 Q-15.9 -20.0 -13.15 -21.6 L13.2 -21.6" fill="url(#gradient3)" fill-rule="evenodd" stroke="none"/>
    </g>
    <radialGradient cx="0" cy="0" gradientTransform="matrix(-0.0412, 0.0, 0.0, -0.0433, 0.0, 0.0)" gradientUnits="userSpaceOnUse" id="gradient3" r="819.2" spreadMethod="pad">
      <stop offset="0.0" stop-color="#caffff" stop-opacity="0.84705883"/>
      <stop offset="0.26666666666666666" stop-color="#bef0f0" stop-opacity="0.4"/>
      <stop offset="0.592156862745098" stop-color="#b7e6e6" stop-opacity="0.09411765"/>
      <stop offset="1.0" stop-color="#b4e3e3" stop-opacity="0.0"/>
    </radialGradient>
    <g id="shape2" transform="matrix(1.0, 0.0, 0.0, 1.0, -75.65, -14.85)">
      <path d="M115.1 32.85 Q115.95 41.15 110.85 47.6 105.75 54.1 97.6 54.95 89.45 55.8 83.05 50.6 76.65 45.35 75.8 37.1 74.9 28.8 80.05 22.35 85.15 15.85 93.3 15.0 101.45 14.1 107.8 19.35 114.2 24.55 115.1 32.85" fill="#6c91a8" fill-rule="evenodd" stroke="none"/>
    </g>
    <g id="shape3" transform="matrix(1.0, 0.0, 0.0, 1.0, 20.8, 21.95)">
      <path d="M19.1 -3.3 Q19.95 5.0 14.85 11.45 9.75 17.95 1.6 18.8 -6.55 19.65 -12.95 14.45 -19.35 9.2 -20.2 0.95 -21.1 -7.35 -15.95 -13.8 -10.85 -20.3 -2.7 -21.15 5.45 -22.05 11.8 -16.8 18.2 -11.6 19.1 -3.3" fill="#6c91a8" fill-rule="evenodd" stroke="none"/>
      <path d="M-9.2 9.85 Q-8.65 9.8 -8.35 10.15 -8.05 10.5 -8.55 10.85 L-10.15 11.55 Q-11.2 11.95 -11.2 12.3 -11.15 12.8 -12.45 13.75 L-12.6 13.6 -13.25 14.2 -14.6 15.25 -15.2 15.65 -17.25 15.9 -18.1 16.05 -19.15 16.1 Q-18.95 15.85 -18.55 15.7 L-17.8 15.1 -17.65 14.4 -17.8 12.75 Q-17.9 12.3 -17.65 12.25 -16.85 12.1 -16.8 11.4 -16.85 10.85 -16.4 10.6 L-15.75 10.35 -15.5 10.3 -15.5 10.25 Q-14.55 9.7 -12.9 9.9 L-12.65 9.4 Q-12.25 8.9 -11.5 9.1 -10.3 9.4 -9.1 7.9 L-9.4 8.9 Q-9.6 9.85 -9.2 9.85 M-8.5 3.7 Q-7.35 3.9 -7.15 5.95 -7.05 6.7 -7.35 6.85 L-8.6 6.75 Q-9.3 6.55 -9.55 7.0 L-9.65 7.5 -11.8 6.85 -13.0 7.55 Q-13.9 8.15 -14.75 7.35 -15.8 6.45 -14.8 4.45 -13.9 2.6 -13.0 2.4 -11.1 1.95 -9.9 2.7 L-8.5 3.7 M-2.8 2.8 Q-2.35 2.85 -2.05 3.35 -1.8 3.8 -1.95 4.3 L-2.55 4.75 -3.5 4.7 -4.75 5.1 -6.05 5.2 Q-6.6 4.9 -6.05 4.55 L-5.3 3.85 -5.4 2.7 Q-5.55 1.95 -5.2 1.75 L-4.25 2.25 -2.8 2.8 M-2.4 5.45 L-1.5 4.95 Q-0.9 6.2 -1.4 7.2 -1.85 8.2 -3.05 8.05 L-3.4 7.75 Q-3.7 7.25 -3.5 6.7 -3.35 6.05 -2.4 5.45 M-12.75 -1.85 Q-12.6 -2.5 -12.15 -2.7 L-10.7 -1.85 -9.7 -2.5 Q-9.25 -2.85 -8.15 -1.95 L-8.8 -1.4 Q-9.3 -0.8 -8.75 -0.8 -8.05 -0.75 -8.2 -0.25 -8.35 0.3 -9.3 0.4 -9.35 1.25 -10.05 1.25 -10.8 1.25 -11.5 0.05 -11.65 -0.25 -12.1 0.3 L-12.95 1.05 Q-13.3 1.1 -13.5 0.55 L-13.65 -0.4 -13.25 -0.95 -12.8 -1.2 -12.75 -1.85 M-19.4 -13.85 L-19.3 -13.75 -18.7 -12.9 Q-18.4 -11.7 -19.25 -11.4 L-19.65 -11.2 Q-19.7 -10.3 -16.8 -8.05 L-16.8 -8.1 Q-14.95 -6.7 -14.9 -5.85 -14.75 -4.8 -16.8 -4.6 L-19.55 -4.15 -19.5 -3.15 -19.45 -3.1 -19.5 -2.4 -19.2 -1.35 -18.9 -0.45 -18.85 -0.4 -18.65 0.55 -18.6 0.85 Q-18.4 0.95 -18.35 1.2 L-18.15 1.7 Q-17.65 2.35 -17.1 3.6 L-17.65 4.85 -17.7 5.05 -17.9 5.45 -18.1 5.6 -18.95 5.9 -19.8 5.75 -20.45 5.3 -20.7 5.2 -20.7 -15.3 Q-20.05 -14.85 -19.55 -14.05 L-19.4 -13.85 M-20.7 -17.35 L-20.7 -21.6 -8.75 -21.6 -9.05 -21.35 -9.6 -21.1 -12.9 -20.7 -13.5 -20.3 Q-14.4 -19.85 -14.9 -19.05 L-14.9 -19.1 -15.2 -18.4 Q-15.25 -17.9 -15.65 -17.5 -15.95 -17.3 -16.2 -17.2 L-17.15 -16.9 -17.2 -16.9 -18.75 -16.75 -20.15 -17.0 -20.15 -17.05 -20.7 -17.35 M19.35 13.8 L19.65 13.7 19.65 14.05 19.5 14.1 19.35 14.1 19.0 14.2 18.75 14.2 18.65 14.2 18.55 14.15 18.5 14.05 18.5 13.95 18.6 13.95 18.7 13.95 18.95 13.95 19.2 13.85 19.3 13.85 19.3 13.8 19.35 13.8 M5.65 12.35 L5.7 12.35 Q7.2 11.95 8.75 13.75 L10.0 14.55 11.15 14.65 11.85 14.5 12.2 14.5 12.8 14.55 12.85 14.6 12.95 14.6 15.55 14.35 16.4 14.55 16.95 14.9 16.95 14.95 17.25 15.2 18.25 16.05 18.7 16.3 19.65 16.9 19.65 19.35 -4.85 19.35 -4.9 18.9 -4.85 18.15 -4.9 18.15 -4.8 18.05 -4.75 17.85 -4.7 17.75 -4.6 17.75 -4.55 17.75 Q-4.05 17.3 -2.75 17.75 L-0.55 18.5 1.2 18.8 Q2.1 18.95 2.15 18.4 L1.95 17.1 Q1.7 16.35 1.85 15.95 2.05 15.6 3.0 15.8 4.1 16.1 4.5 15.8 5.35 15.25 3.2 13.95 L3.9 13.3 Q4.9 12.6 5.65 12.35 M17.65 5.4 Q17.6 6.0 17.0 5.95 L16.6 5.95 16.4 5.95 Q15.8 6.0 15.3 6.65 L14.15 7.95 13.6 8.15 12.75 7.85 11.75 7.0 11.65 6.95 11.2 7.45 10.35 8.4 9.9 8.5 Q9.0 8.6 8.4 7.1 8.1 6.55 8.85 5.5 9.4 4.65 10.2 4.1 10.5 3.8 10.65 2.8 10.75 1.85 11.35 1.6 L11.45 1.65 11.5 1.6 12.2 1.8 13.4 1.95 13.5 1.9 13.55 1.9 Q14.0 1.9 14.3 2.65 14.6 3.45 15.2 3.75 16.45 4.15 17.45 4.7 L17.65 5.4 M15.2 -19.5 Q16.5 -19.85 17.4 -19.05 L19.15 -17.75 19.65 -17.35 19.65 3.1 19.4 2.85 17.15 1.9 Q16.5 1.55 17.0 0.45 L17.8 -1.15 17.3 -1.3 15.4 -1.0 11.3 -0.05 11.15 -0.05 11.0 -0.05 Q10.1 0.1 9.35 -0.5 L8.0 -1.3 7.85 -1.3 Q7.3 -1.2 6.9 -0.15 6.5 1.05 6.65 1.9 6.7 2.45 5.8 2.2 L5.1 1.95 4.1 1.65 Q3.55 1.5 3.1 0.5 L2.4 -0.8 1.15 -0.45 -0.3 -0.35 Q-1.2 -1.45 1.25 -3.35 1.7 -3.65 0.75 -4.05 -0.45 -4.6 -0.55 -4.85 -0.8 -5.25 -0.05 -5.55 L1.45 -6.3 Q2.1 -6.7 1.25 -8.1 L-0.4 -10.3 -1.5 -11.45 -3.25 -11.15 Q-4.25 -10.7 -3.7 -9.3 -3.15 -7.9 -3.35 -7.8 -3.85 -7.5 -5.25 -8.3 -6.65 -9.1 -7.1 -9.85 -7.4 -10.35 -6.45 -11.45 -5.55 -12.45 -6.0 -12.75 -6.6 -13.0 -7.4 -12.25 L-8.7 -11.1 Q-9.1 -10.95 -9.65 -11.35 -10.3 -11.85 -11.1 -11.85 -11.9 -11.85 -12.3 -10.8 -12.8 -9.55 -13.55 -9.2 -14.65 -8.75 -15.2 -9.95 L-15.5 -11.35 -14.25 -14.0 -11.9 -16.35 Q-9.3 -18.65 -5.9 -19.85 -4.5 -19.75 -3.05 -18.7 -1.75 -17.75 -1.2 -17.85 0.35 -18.1 0.8 -19.35 L2.95 -20.9 4.55 -20.65 4.6 -20.65 6.15 -20.25 6.25 -20.25 7.0 -20.0 7.8 -20.0 7.95 -20.0 10.85 -20.3 Q11.65 -20.4 12.05 -19.7 L12.45 -19.5 13.85 -19.3 13.9 -19.3 15.2 -19.5 M16.7 -20.8 L15.9 -21.1 15.15 -21.55 15.0 -21.6 19.65 -21.6 19.65 -19.5 Q19.4 -19.6 19.1 -19.85 L18.45 -20.05 17.9 -20.3 17.45 -20.5 17.45 -20.45 16.7 -20.8 M-15.8 0.45 Q-14.5 -1.1 -14.15 -0.85 -13.9 -0.7 -14.4 0.4 -15.8 3.5 -16.45 2.55 -16.3 2.75 -16.35 1.35 L-15.8 0.45 M-19.75 16.35 L-19.8 16.4 -20.4 16.55 -20.5 16.55 -20.7 16.6 -20.7 16.35 -20.65 16.3 -20.55 16.3 -20.55 16.25 -20.5 16.25 -19.8 16.15 -19.75 16.15 -19.7 16.25 -19.75 16.35 M-8.65 13.05 Q-7.75 13.4 -8.25 14.0 -8.65 14.55 -9.55 14.35 L-10.75 14.1 -10.0 13.45 Q-9.15 12.85 -8.65 13.05 M-20.7 19.35 L-20.7 18.95 -20.5 19.05 -20.5 19.15 -20.15 19.35 -20.7 19.35" fill="#72d6db" fill-rule="evenodd" stroke="none"/>
      <path d="M17.7 7.15 L0.85 6.5 Q-4.1 6.9 -9.15 8.55 L-16.3 11.15 -16.9 10.4 Q-6.5 6.3 1.85 5.75 L17.8 6.4 17.7 7.15" fill="#caffff" fill-rule="evenodd" stroke="none"/>
      <path d="M14.75 -14.1 Q6.9 -17.15 -1.3 -16.35 -7.0 -15.75 -11.55 -14.05 L-18.05 -10.9 -17.25 -12.1 Q-8.35 -16.55 -1.05 -17.1 5.5 -17.65 14.0 -14.95 L14.75 -14.1 M-13.15 17.75 Q-4.65 14.6 2.3 14.1 9.25 13.55 18.0 14.95 L18.45 15.75 Q10.95 14.3 4.1 14.9 L-5.35 16.2 -13.55 18.7 -13.15 17.75" fill="#caffff" fill-rule="evenodd" stroke="none"/>
      <path d="M19.4 -4.75 Q9.3 -6.6 -0.6 -5.75 -6.95 -5.25 -13.0 -3.15 -16.3 -2.0 -20.6 0.05 L-20.7 -0.75 Q-9.45 -6.1 0.1 -6.8 8.2 -7.35 19.0 -5.55 L19.2 -5.2 19.4 -4.75" fill="#caffff" fill-rule="evenodd" stroke="none"/>
      <path d="M-4.05 -21.6 Q-22.05 -17.25 -20.3 2.75 -16.45 17.0 -4.65 19.35" fill="none" stroke="#caffff" stroke-linecap="round" stroke-linejoin="round" stroke-width="0.75"/>
      <path d="M-3.7 -21.6 Q-17.1 -17.35 -15.3 1.95 -11.8 17.1 -1.75 19.35" fill="none" stroke="#caffff" stroke-linecap="round" stroke-linejoin="round" stroke-width="0.75"/>
      <path d="M-3.2 -21.6 Q-9.9 -17.45 -8.0 0.75 -5.15 16.8 0.85 19.35" fill="none" stroke="#caffff" stroke-linecap="round" stroke-linejoin="round" stroke-width="0.75"/>
      <path d="M-2.5 -21.6 Q-0.6 -17.8 1.55 -0.85 3.45 15.9 2.35 19.35" fill="none" stroke="#caffff" stroke-linecap="round" stroke-linejoin="round" stroke-width="0.75"/>
      <path d="M-1.4 -21.6 Q7.0 -19.1 10.2 -2.6 12.1 15.3 3.2 19.35" fill="none" stroke="#caffff" stroke-linecap="round" stroke-linejoin="round" stroke-width="0.75"/>
      <path d="M0.75 -21.6 Q12.75 -19.55 16.55 -3.9 18.45 14.85 3.65 19.35" fill="none" stroke="#caffff" stroke-linecap="round" stroke-linejoin="round" stroke-width="0.75"/>
    </g>
    <g id="shape4" transform="matrix(1.0, 0.0, 0.0, 1.0, 43.35, 30.8)">
      <path d="M-3.35 -19.8 L-35.7 -19.8 -35.7 -26.45 -3.35 -26.45 -3.35 -19.8" fill="#caffff" fill-rule="evenodd" stroke="none"/>
      <path d="M-1.95 -28.75 Q5.15 -26.7 5.15 -23.8 5.15 -20.9 -1.95 -18.85 -9.05 -16.8 -19.1 -16.8 -29.15 -16.8 -36.25 -18.85 -43.35 -20.9 -43.35 -23.8 -43.35 -26.7 -36.25 -28.75 -29.15 -30.8 -19.1 -30.8 -9.05 -30.8 -1.95 -28.75" fill="url(#gradient4)" fill-rule="evenodd" stroke="none"/>
    </g>
    <radialGradient cx="0" cy="0" gradientTransform="matrix(0.0, 0.0086, -0.0363, 0.0, -19.1, -23.8)" gradientUnits="userSpaceOnUse" id="gradient4" r="819.2" spreadMethod="pad">
      <stop offset="0.0" stop-color="#caffff" stop-opacity="0.84705883"/>
      <stop offset="0.26666666666666666" stop-color="#bef0f0" stop-opacity="0.4"/>
      <stop offset="0.592156862745098" stop-color="#b7e6e6" stop-opacity="0.09411765"/>
      <stop offset="1.0" stop-color="#b4e3e3" stop-opacity="0.0"/>
    </radialGradient>
    <g id="shape5" transform="matrix(1.0, 0.0, 0.0, 1.0, 12.8, 2.2)">
      <path d="M9.25 1.0 L-9.75 1.0 -9.75 -0.7 9.25 -0.7 9.25 1.0" fill="#b9e07c" fill-opacity="0.0" fill-rule="evenodd" stroke="none"/>
      <path d="M9.0 -1.55 Q12.75 -0.9 12.75 0.0 12.75 0.9 9.0 1.55 L-0.05 2.2 -9.05 1.55 Q-12.8 0.9 -12.8 0.0 -12.8 -0.9 -9.05 -1.55 L-0.05 -2.2 9.0 -1.55" fill="url(#gradient5)" fill-rule="evenodd" stroke="none"/>
    </g>
    <radialGradient cx="0" cy="0" gradientTransform="matrix(0.0421, 0.0, 0.0, -0.0088, -0.05, 0.0)" gradientUnits="userSpaceOnUse" id="gradient5" r="819.2" spreadMethod="pad">
      <stop offset="0.0" stop-color="#b9e07c" stop-opacity="0.0"/>
      <stop offset="0.058823529411764705" stop-color="#a4c56f" stop-opacity="0.0"/>
      <stop offset="0.16862745098039217" stop-color="#829a5a" stop-opacity="0.0"/>
      <stop offset="0.28627450980392155" stop-color="#657448" stop-opacity="0.0"/>
      <stop offset="0.40784313725490196" stop-color="#4d553a" stop-opacity="0.0"/>
      <stop offset="0.5333333333333333" stop-color="#3a3d2e" stop-opacity="0.0"/>
      <stop offset="0.6666666666666666" stop-color="#2d2c26" stop-opacity="0.0"/>
      <stop offset="0.8117647058823529" stop-color="#252222" stop-opacity="0.0"/>
      <stop offset="0.9921568627450981" stop-color="#231f20" stop-opacity="0.0"/>
    </radialGradient>
    <g id="shape6" transform="matrix(1.0, 0.0, 0.0, 1.0, 12.7, 2.95)">
      <path d="M9.2 0.8 L-9.8 0.8 -9.8 -0.4 9.2 -0.4 9.2 0.8" fill="#caffff" fill-opacity="0.0" fill-rule="evenodd" stroke="none"/>
      <path d="M-0.05 2.9 L-9.0 2.05 Q-12.7 1.2 -12.7 -0.05 -12.7 -1.25 -9.0 -2.1 L-0.05 -2.95 8.95 -2.1 Q12.65 -1.25 12.65 -0.05 12.65 1.2 8.95 2.05 L-0.05 2.9" fill="url(#gradient6)" fill-rule="evenodd" stroke="none"/>
    </g>
    <radialGradient cx="0" cy="0" gradientTransform="matrix(0.0, 0.0036, -0.019, 0.0, -0.05, -0.05)" gradientUnits="userSpaceOnUse" id="gradient6" r="819.2" spreadMethod="pad">
      <stop offset="0.0" stop-color="#caffff" stop-opacity="0.0"/>
      <stop offset="0.26666666666666666" stop-color="#bef0f0" stop-opacity="0.0"/>
      <stop offset="0.592156862745098" stop-color="#b7e6e6" stop-opacity="0.0"/>
      <stop offset="1.0" stop-color="#b4e3e3" stop-opacity="0.0"/>
    </radialGradient>
    <g id="shape7" transform="matrix(1.0, 0.0, 0.0, 1.0, 12.2, 1.5)">
      <path d="M9.45 0.3 L-9.55 0.3 -9.55 -0.5 9.45 -0.5 9.45 0.3" fill="#ffb052" fill-opacity="0.0" fill-rule="evenodd" stroke="none"/>
      <path d="M-0.05 1.5 L-8.65 1.05 Q-12.2 0.65 -12.2 0.0 -12.2 -0.6 -8.65 -1.05 L-0.05 -1.5 8.6 -1.05 Q12.15 -0.6 12.15 0.0 12.15 0.65 8.6 1.05 L-0.05 1.5" fill="url(#gradient7)" fill-rule="evenodd" stroke="none"/>
    </g>
    <radialGradient cx="0" cy="0" gradientTransform="matrix(0.0, 0.005, 0.0489, 0.0, -0.05, 0.0)" gradientUnits="userSpaceOnUse" id="gradient7" r="819.2" spreadMethod="pad">
      <stop offset="0.0" stop-color="#ffb966" stop-opacity="0.0"/>
      <stop offset="0.00392156862745098" stop-color="#fdb765" stop-opacity="0.0"/>
      <stop offset="0.10588235294117647" stop-color="#ca9455" stop-opacity="0.0"/>
      <stop offset="0.21176470588235294" stop-color="#9e7547" stop-opacity="0.0"/>
      <stop offset="0.3254901960784314" stop-color="#785a3b" stop-opacity="0.0"/>
      <stop offset="0.4392156862745098" stop-color="#594531" stop-opacity="0.0"/>
      <stop offset="0.5568627450980392" stop-color="#41342a" stop-opacity="0.0"/>
      <stop offset="0.6823529411764706" stop-color="#302824" stop-opacity="0.0"/>
      <stop offset="0.8196078431372549" stop-color="#262121" stop-opacity="0.0"/>
      <stop offset="0.9921568627450981" stop-color="#231f20" stop-opacity="0.0"/>
    </radialGradient>
    <g id="shape8" transform="matrix(1.0, 0.0, 0.0, 1.0, 13.1, 2.35)">
      <path d="M9.65 0.85 L-9.35 0.85 -9.35 -0.7 9.65 -0.7 9.65 0.85" fill="#ffe783" fill-opacity="0.0" fill-rule="evenodd" stroke="none"/>
      <path d="M0.0 2.35 L-9.25 1.65 Q-13.1 1.0 -13.1 0.0 -13.1 -0.95 -9.25 -1.65 L0.0 -2.35 9.25 -1.65 Q13.1 -0.95 13.1 0.0 13.1 1.0 9.25 1.65 L0.0 2.35" fill="url(#gradient8)" fill-rule="evenodd" stroke="none"/>
    </g>
    <radialGradient cx="0" cy="0" gradientTransform="matrix(0.0, 0.0055, 0.0373, 0.0, 0.0, 0.0)" gradientUnits="userSpaceOnUse" id="gradient8" r="819.2" spreadMethod="pad">
      <stop offset="0.03529411764705882" stop-color="#fff3c0" stop-opacity="0.0"/>
      <stop offset="0.0392156862745098" stop-color="#fdf1be" stop-opacity="0.0"/>
      <stop offset="0.13725490196078433" stop-color="#cac09a" stop-opacity="0.0"/>
      <stop offset="0.23921568627450981" stop-color="#9e9579" stop-opacity="0.0"/>
      <stop offset="0.34509803921568627" stop-color="#78715e" stop-opacity="0.0"/>
      <stop offset="0.4588235294117647" stop-color="#595347" stop-opacity="0.0"/>
      <stop offset="0.5725490196078431" stop-color="#413c36" stop-opacity="0.0"/>
      <stop offset="0.6941176470588235" stop-color="#302c2a" stop-opacity="0.0"/>
      <stop offset="0.8274509803921568" stop-color="#262222" stop-opacity="0.0"/>
      <stop offset="0.9921568627450981" stop-color="#231f20" stop-opacity="0.0"/>
    </radialGradient>
    <g id="shape9" transform="matrix(1.0, 0.0, 0.0, 1.0, 14.35, 2.95)">
      <path d="M9.25 0.8 L-9.75 0.8 -9.75 -0.4 9.25 -0.4 9.25 0.8" fill="#caffff" fill-opacity="0.007843138" fill-rule="evenodd" stroke="none"/>
      <path d="M0.0 2.9 L-10.15 2.05 Q-14.35 1.2 -14.35 -0.05 -14.35 -1.25 -10.15 -2.1 L0.0 -2.95 10.15 -2.1 Q14.35 -1.25 14.35 -0.05 14.35 1.2 10.15 2.05 L0.0 2.9" fill="url(#gradient9)" fill-rule="evenodd" stroke="none"/>
    </g>
    <radialGradient cx="0" cy="0" gradientTransform="matrix(0.0, 0.0036, -0.0215, 0.0, 0.0, -0.05)" gradientUnits="userSpaceOnUse" id="gradient9" r="819.2" spreadMethod="pad">
      <stop offset="0.0" stop-color="#caffff" stop-opacity="0.007843138"/>
      <stop offset="0.26666666666666666" stop-color="#bef0f0" stop-opacity="0.003921569"/>
      <stop offset="0.592156862745098" stop-color="#b7e6e6" stop-opacity="0.0"/>
      <stop offset="1.0" stop-color="#b4e3e3" stop-opacity="0.0"/>
    </radialGradient>
    <g id="shape10" transform="matrix(1.0, 0.0, 0.0, 1.0, 3.5, 13.35)">
      <path d="M1.45 10.0 L-1.5 10.0 -1.5 -9.25 1.45 -9.25 1.45 10.0" fill="#caffff" fill-rule="evenodd" stroke="none"/>
      <path d="M0.0 13.35 Q-1.45 13.35 -2.5 9.45 -3.5 5.55 -3.5 0.0 -3.5 -5.55 -2.5 -9.45 -1.45 -13.35 0.0 -13.35 1.45 -13.35 2.45 -9.45 3.5 -5.5 3.5 0.0 3.5 5.5 2.45 9.45 1.45 13.35 0.0 13.35" fill="url(#gradient10)" fill-rule="evenodd" stroke="none"/>
    </g>
    <radialGradient cx="0" cy="0" gradientTransform="matrix(0.0, 0.0164, -0.0052, 0.0, 0.0, 0.0)" gradientUnits="userSpaceOnUse" id="gradient10" r="819.2" spreadMethod="pad">
      <stop offset="0.0" stop-color="#caffff" stop-opacity="0.84705883"/>
      <stop offset="0.26666666666666666" stop-color="#bef0f0" stop-opacity="0.4"/>
      <stop offset="0.592156862745098" stop-color="#b7e6e6" stop-opacity="0.09411765"/>
      <stop offset="1.0" stop-color="#b4e3e3" stop-opacity="0.0"/>
    </radialGradient>
    <g id="shape11" transform="matrix(1.0, 0.0, 0.0, 1.0, 3.1, 10.15)">
      <path d="M1.55 7.65 L-1.1 7.65 -1.1 -6.3 1.55 -6.3 1.55 7.65" fill="#ffe783" fill-rule="evenodd" stroke="none"/>
      <path d="M3.1 0.0 Q3.1 4.2 2.2 7.2 1.3 10.15 0.0 10.15 -1.3 10.15 -2.2 7.2 -3.1 4.2 -3.1 0.0 -3.1 -4.2 -2.2 -7.15 -1.3 -10.15 0.0 -10.15 1.3 -10.15 2.2 -7.15 3.1 -4.2 3.1 0.0" fill="url(#gradient11)" fill-rule="evenodd" stroke="none"/>
    </g>
    <radialGradient cx="0" cy="0" gradientTransform="matrix(0.0072, 0.0, 0.0, -0.029, 0.0, 0.0)" gradientUnits="userSpaceOnUse" id="gradient11" r="819.2" spreadMethod="pad">
      <stop offset="0.03529411764705882" stop-color="#fff3c0" stop-opacity="0.49803922"/>
      <stop offset="0.0392156862745098" stop-color="#fdf1be" stop-opacity="0.49411765"/>
      <stop offset="0.13725490196078433" stop-color="#cac09a" stop-opacity="0.3764706"/>
      <stop offset="0.23921568627450981" stop-color="#9e9579" stop-opacity="0.2784314"/>
      <stop offset="0.34509803921568627" stop-color="#78715e" stop-opacity="0.19215687"/>
      <stop offset="0.4588235294117647" stop-color="#595347" stop-opacity="0.12156863"/>
      <stop offset="0.5725490196078431" stop-color="#413c36" stop-opacity="0.06666667"/>
      <stop offset="0.6941176470588235" stop-color="#302c2a" stop-opacity="0.02745098"/>
      <stop offset="0.8274509803921568" stop-color="#262222" stop-opacity="0.003921569"/>
      <stop offset="0.9921568627450981" stop-color="#231f20" stop-opacity="0.0"/>
    </radialGradient>
    <g id="shape12" transform="matrix(1.0, 0.0, 0.0, 1.0, 2.85, 14.85)">
      <path d="M0.85 12.85 L-1.15 12.85 -1.15 -10.7 0.85 -10.7 0.85 12.85" fill="#ffb052" fill-rule="evenodd" stroke="none"/>
      <path d="M2.8 0.0 Q2.8 6.15 2.0 10.5 1.15 14.85 0.0 14.85 -1.2 14.85 -2.0 10.5 -2.85 6.2 -2.85 0.0 -2.85 -6.15 -2.0 -10.5 -1.2 -14.85 0.0 -14.85 1.15 -14.85 2.0 -10.5 2.8 -6.15 2.8 0.0" fill="url(#gradient12)" fill-rule="evenodd" stroke="none"/>
    </g>
    <radialGradient cx="0" cy="0" gradientTransform="matrix(0.0094, 0.0, 0.0, -0.0596, 0.0, 0.0)" gradientUnits="userSpaceOnUse" id="gradient12" r="819.2" spreadMethod="pad">
      <stop offset="0.0" stop-color="#ffb966" stop-opacity="0.49803922"/>
      <stop offset="0.00392156862745098" stop-color="#fdb765" stop-opacity="0.49411765"/>
      <stop offset="0.10588235294117647" stop-color="#ca9455" stop-opacity="0.3764706"/>
      <stop offset="0.21176470588235294" stop-color="#9e7547" stop-opacity="0.2784314"/>
      <stop offset="0.3254901960784314" stop-color="#785a3b" stop-opacity="0.19215687"/>
      <stop offset="0.4392156862745098" stop-color="#594531" stop-opacity="0.12156863"/>
      <stop offset="0.5568627450980392" stop-color="#41342a" stop-opacity="0.06666667"/>
      <stop offset="0.6823529411764706" stop-color="#302824" stop-opacity="0.02745098"/>
      <stop offset="0.8196078431372549" stop-color="#262121" stop-opacity="0.003921569"/>
      <stop offset="0.9921568627450981" stop-color="#231f20" stop-opacity="0.0"/>
    </radialGradient>
    <g id="shape13" transform="matrix(1.0, 0.0, 0.0, 1.0, 2.2, 12.75)">
      <path d="M0.65 11.8 L-1.0 11.8 -1.0 -7.45 0.65 -7.45 0.65 11.8" fill="#b9e07c" fill-rule="evenodd" stroke="none"/>
      <path d="M0.0 -12.75 Q0.9 -12.75 1.55 -9.0 2.15 -5.3 2.15 0.0 2.15 5.3 1.55 9.0 0.9 12.75 0.0 12.75 -0.9 12.75 -1.55 9.0 -2.2 5.25 -2.2 0.0 -2.2 -5.25 -1.55 -9.0 -0.9 -12.75 0.0 -12.75" fill="url(#gradient13)" fill-rule="evenodd" stroke="none"/>
    </g>
    <radialGradient cx="0" cy="0" gradientTransform="matrix(0.0, -0.042, -0.0088, 0.0, 0.0, 0.0)" gradientUnits="userSpaceOnUse" id="gradient13" r="819.2" spreadMethod="pad">
      <stop offset="0.0" stop-color="#b9e07c" stop-opacity="0.49803922"/>
      <stop offset="0.058823529411764705" stop-color="#a4c56f" stop-opacity="0.42745098"/>
      <stop offset="0.16862745098039217" stop-color="#829a5a" stop-opacity="0.3137255"/>
      <stop offset="0.28627450980392155" stop-color="#657448" stop-opacity="0.21568628"/>
      <stop offset="0.40784313725490196" stop-color="#4d553a" stop-opacity="0.13725491"/>
      <stop offset="0.5333333333333333" stop-color="#3a3d2e" stop-opacity="0.07450981"/>
      <stop offset="0.6666666666666666" stop-color="#2d2c26" stop-opacity="0.03137255"/>
      <stop offset="0.8117647058823529" stop-color="#252222" stop-opacity="0.007843138"/>
      <stop offset="0.9921568627450981" stop-color="#231f20" stop-opacity="0.0"/>
    </radialGradient>
    <g id="shape14" transform="matrix(1.0, 0.0, 0.0, 1.0, 2.35, 8.5)">
      <path d="M0.7 6.5 L-0.95 6.5 -0.95 -4.5 0.7 -4.5 0.7 6.5" fill="#ffb052" fill-rule="evenodd" stroke="none"/>
      <path d="M2.3 0.0 Q2.3 3.5 1.6 6.0 0.95 8.5 0.0 8.5 -0.95 8.5 -1.65 6.0 -2.35 3.5 -2.35 0.0 -2.35 -3.5 -1.65 -6.0 -0.95 -8.5 0.0 -8.5 0.95 -8.5 1.6 -6.0 2.3 -3.5 2.3 0.0" fill="url(#gradient14)" fill-rule="evenodd" stroke="none"/>
    </g>
    <radialGradient cx="0" cy="0" gradientTransform="matrix(0.0077, 0.0, 0.0, -0.0341, 0.0, 0.0)" gradientUnits="userSpaceOnUse" id="gradient14" r="819.2" spreadMethod="pad">
      <stop offset="0.0" stop-color="#ffb966" stop-opacity="0.49803922"/>
      <stop offset="0.00392156862745098" stop-color="#fdb765" stop-opacity="0.49411765"/>
      <stop offset="0.10588235294117647" stop-color="#ca9455" stop-opacity="0.3764706"/>
      <stop offset="0.21176470588235294" stop-color="#9e7547" stop-opacity="0.2784314"/>
      <stop offset="0.3254901960784314" stop-color="#785a3b" stop-opacity="0.19215687"/>
      <stop offset="0.4392156862745098" stop-color="#594531" stop-opacity="0.12156863"/>
      <stop offset="0.5568627450980392" stop-color="#41342a" stop-opacity="0.06666667"/>
      <stop offset="0.6823529411764706" stop-color="#302824" stop-opacity="0.02745098"/>
      <stop offset="0.8196078431372549" stop-color="#262121" stop-opacity="0.003921569"/>
      <stop offset="0.9921568627450981" stop-color="#231f20" stop-opacity="0.0"/>
    </radialGradient>
    <g id="shape15" transform="matrix(1.0, 0.0, 0.0, 1.0, 6.4, 6.5)">
      <path d="M-0.1 5.95 Q2.25 5.95 3.95 4.2 5.6 2.45 5.6 0.0 5.6 -2.45 3.95 -4.15 2.25 -5.9 -0.1 -5.9 -2.45 -5.9 -4.15 -4.15 -5.8 -2.45 -5.8 0.0 -5.8 2.45 -4.15 4.2 -2.45 5.95 -0.1 5.95 M4.45 -4.6 Q6.35 -2.7 6.35 0.0 6.35 2.7 4.45 4.65 2.6 6.55 -0.05 6.55 -2.65 6.55 -4.55 4.65 -6.4 2.7 -6.4 0.0 -6.4 -2.7 -4.55 -4.6 -2.7 -6.5 -0.05 -6.5 2.6 -6.5 4.45 -4.6" fill="#caffff" fill-opacity="0.19607843" fill-rule="evenodd" stroke="none"/>
    </g>
    <g id="shape16" transform="matrix(1.0, 0.0, 0.0, 1.0, 8.55, 8.5)">
      <path d="M-6.05 -6.0 Q-3.55 -8.5 0.0 -8.5 3.55 -8.5 6.1 -6.0 8.6 -3.5 8.6 0.0 8.6 3.55 6.1 6.0 3.55 8.5 0.0 8.5 -3.55 8.5 -6.05 6.0 -8.55 3.5 -8.55 0.0 -8.55 -3.5 -6.05 -6.0" fill="url(#gradient15)" fill-rule="evenodd" stroke="none"/>
    </g>
    <radialGradient cx="0" cy="0" gradientTransform="matrix(0.0, 0.0104, -0.0128, 0.0, 0.0, 0.0)" gradientUnits="userSpaceOnUse" id="gradient15" r="819.2" spreadMethod="pad">
      <stop offset="0.0" stop-color="#caffff" stop-opacity="0.84705883"/>
      <stop offset="0.26666666666666666" stop-color="#bef0f0" stop-opacity="0.4"/>
      <stop offset="0.592156862745098" stop-color="#b7e6e6" stop-opacity="0.09411765"/>
      <stop offset="1.0" stop-color="#b4e3e3" stop-opacity="0.0"/>
    </radialGradient>
    <g id="shape17" transform="matrix(1.0, 0.0, 0.0, 1.0, 53.55, 31.65)">
      <path d="M46.65 22.45 L-15.35 22.45 -15.35 21.3 46.65 21.3 46.65 22.45" fill="#ffe783" fill-rule="evenodd" stroke="none"/>
      <path d="M41.05 24.95 L15.4 26.05 -10.3 24.95 Q-20.95 23.85 -20.95 22.25 -20.95 20.65 -10.3 19.5 L15.4 18.4 41.05 19.5 Q51.7 20.65 51.7 22.25 51.7 23.85 41.05 24.95" fill="url(#gradient16)" fill-rule="evenodd" stroke="none"/>
      <path d="M46.65 17.5 L46.65 18.9 -15.35 18.9 -15.35 17.5 46.65 17.5" fill="#b9e07c" fill-rule="evenodd" stroke="none"/>
      <path d="M52.8 18.05 Q52.8 18.95 42.25 19.6 31.8 20.2 16.85 20.2 1.9 20.2 -8.6 19.6 -19.15 18.95 -19.15 18.05 -19.15 17.1 -8.6 16.5 1.85 15.85 16.85 15.85 31.85 15.85 42.25 16.5 52.8 17.1 52.8 18.05" fill="url(#gradient17)" fill-rule="evenodd" stroke="none"/>
      <path d="M55.45 25.4 L-50.55 25.4 -37.45 -31.45 40.7 -31.45 55.45 25.4" fill="url(#gradient18)" fill-rule="evenodd" stroke="none"/>
      <path d="M56.9 27.9 L-53.55 28.4 -40.05 -31.65 40.3 -31.65 56.9 27.9" fill="url(#gradient19)" fill-rule="evenodd" stroke="none"/>
    </g>
    <radialGradient cx="0" cy="0" gradientTransform="matrix(0.0, 0.009, 0.1037, 0.0, 15.4, 22.25)" gradientUnits="userSpaceOnUse" id="gradient16" r="819.2" spreadMethod="pad">
      <stop offset="0.03529411764705882" stop-color="#fff3c0" stop-opacity="0.49803922"/>
      <stop offset="0.0392156862745098" stop-color="#fdf1be" stop-opacity="0.49411765"/>
      <stop offset="0.13725490196078433" stop-color="#cac09a" stop-opacity="0.3764706"/>
      <stop offset="0.23921568627450981" stop-color="#9e9579" stop-opacity="0.2784314"/>
      <stop offset="0.34509803921568627" stop-color="#78715e" stop-opacity="0.19215687"/>
      <stop offset="0.4588235294117647" stop-color="#595347" stop-opacity="0.12156863"/>
      <stop offset="0.5725490196078431" stop-color="#413c36" stop-opacity="0.06666667"/>
      <stop offset="0.6941176470588235" stop-color="#302c2a" stop-opacity="0.02745098"/>
      <stop offset="0.8274509803921568" stop-color="#262222" stop-opacity="0.003921569"/>
      <stop offset="0.9921568627450981" stop-color="#231f20" stop-opacity="0.0"/>
    </radialGradient>
    <radialGradient cx="0" cy="0" gradientTransform="matrix(0.1185, 0.0, 0.0, -0.0088, 16.85, 18.05)" gradientUnits="userSpaceOnUse" id="gradient17" r="819.2" spreadMethod="pad">
      <stop offset="0.0" stop-color="#b9e07c" stop-opacity="0.49803922"/>
      <stop offset="0.058823529411764705" stop-color="#a4c56f" stop-opacity="0.42745098"/>
      <stop offset="0.16862745098039217" stop-color="#829a5a" stop-opacity="0.3137255"/>
      <stop offset="0.28627450980392155" stop-color="#657448" stop-opacity="0.21568628"/>
      <stop offset="0.40784313725490196" stop-color="#4d553a" stop-opacity="0.13725491"/>
      <stop offset="0.5333333333333333" stop-color="#3a3d2e" stop-opacity="0.07450981"/>
      <stop offset="0.6666666666666666" stop-color="#2d2c26" stop-opacity="0.03137255"/>
      <stop offset="0.8117647058823529" stop-color="#252222" stop-opacity="0.007843138"/>
      <stop offset="0.9921568627450981" stop-color="#231f20" stop-opacity="0.0"/>
    </radialGradient>
    <radialGradient cx="0" cy="0" gradientTransform="matrix(0.0887, 0.0, 0.0, -0.0511, 2.45, -3.05)" gradientUnits="userSpaceOnUse" id="gradient18" r="819.2" spreadMethod="pad">
      <stop offset="0.5725490196078431" stop-color="#130c0e" stop-opacity="0.0"/>
      <stop offset="0.796078431372549" stop-color="#130c0e" stop-opacity="0.6509804"/>
      <stop offset="1.0" stop-color="#130c0e" stop-opacity="0.9490196"/>
    </radialGradient>
    <linearGradient gradientTransform="matrix(0.0674, 0.0, 0.0, -0.0674, 1.65, -1.6)" gradientUnits="userSpaceOnUse" id="gradient19" spreadMethod="pad" x1="-819.2" x2="819.2">
      <stop offset="0.0" stop-color="#e1e1e1" stop-opacity="0.0"/>
      <stop offset="0.30196078431372547" stop-color="#ededed" stop-opacity="0.08627451"/>
      <stop offset="0.49411764705882355" stop-color="#eaeaea" stop-opacity="0.0"/>
      <stop offset="0.7215686274509804" stop-color="#ededed" stop-opacity="0.1764706"/>
      <stop offset="0.9568627450980393" stop-color="#e1e1e1" stop-opacity="0.0"/>
    </linearGradient>
  </defs>
</svg>
