<?xml version="1.0" encoding="UTF-8" standalone="no"?>
<svg xmlns:xlink="http://www.w3.org/1999/xlink" height="85.65px" width="150.0px" xmlns="http://www.w3.org/2000/svg">
  <g transform="matrix(1.0, 0.0, 0.0, 1.0, 0.0, 0.0)">
    <use height="85.65" transform="matrix(1.0, 0.0, 0.0, 1.0, 0.0, 0.0)" width="149.1" xlink:href="#shape0"/>
    <use height="40.95" transform="matrix(1.0, 0.0, 0.0, 1.0, 75.3, 14.55)" width="40.35" xlink:href="#shape1"/>
    <clipPath id="clipPath0" transform="matrix(1.0, 0.0, 0.0, 1.0, 0.0, 0.0)">
      <use height="40.2" transform="matrix(1.0, 0.0, 0.0, 1.0, 75.65, 14.85)" width="39.55" xlink:href="#shape2"/>
    </clipPath>
    <g clip-path="url(#clipPath0)">
      <use height="41.65" transform="matrix(1.0, 0.0, 0.0, 1.0, 75.0, 14.2)" width="40.65" xlink:href="#shape3"/>
    </g>
    <use height="14.0" transform="matrix(1.0, 0.0, 0.0, 1.0, 31.2, 12.0)" width="48.5" xlink:href="#shape4"/>
    <use height="4.4" transform="matrix(1.0, 0.0, 0.0, 1.0, 48.95, 24.3)" width="25.55" xlink:href="#shape5"/>
    <use height="5.85" transform="matrix(1.0, 0.0, 0.0, 1.0, 49.1, 27.35)" width="25.35" xlink:href="#shape6"/>
    <use height="3.0" transform="matrix(1.0, 0.0, 0.0, 1.0, 49.35, 32.6)" width="24.35" xlink:href="#shape7"/>
    <use height="4.7" transform="matrix(1.0, 0.0, 0.0, 1.0, 48.25, 35.0)" width="26.2" xlink:href="#shape8"/>
    <use height="5.85" transform="matrix(1.0, 0.0, 0.0, 1.0, 47.4, 38.35)" width="28.7" xlink:href="#shape9"/>
    <use height="26.7" transform="matrix(1.0, 0.0, 0.0, 0.5026, 31.2, 54.54)" width="7.0" xlink:href="#shape10"/>
    <use height="20.3" transform="matrix(1.0, 0.0, 0.0, 1.3615, 36.7, 42.5304)" width="6.2" xlink:href="#shape11"/>
    <use height="29.7" transform="matrix(1.0, 0.0, 0.0, 0.3664, 41.3, 56.5088)" width="5.65" xlink:href="#shape12"/>
    <use height="25.5" transform="matrix(1.0, 0.0, 0.0, 1.0776, 45.5, 40.2111)" width="4.35" xlink:href="#shape13"/>
    <use height="17.0" transform="matrix(1.0, 0.0, 0.0, 0.2314, 49.3, 62.8828)" width="4.65" xlink:href="#shape14"/>
    <use height="13.05" transform="matrix(0.9846, 0.0, 0.0, 0.9846, 36.7983, 25.7499)" width="12.75" xlink:href="#shape15"/>
    <use height="13.05" transform="matrix(0.6621, 0.0, 0.0, 0.6621, 38.8628, 27.8466)" width="12.75" xlink:href="#shape15"/>
    <use height="13.05" transform="matrix(0.2781, 0.0, 0.0, 0.2781, 41.3204, 30.3426)" width="12.75" xlink:href="#shape15"/>
    <use height="17.0" transform="matrix(1.0, 0.0, 0.0, 1.0, 34.55, 23.65)" width="17.15" xlink:href="#shape16"/>
    <use height="60.05" transform="matrix(1.0, 0.0, 0.0, 1.0, 21.0, 11.15)" width="110.45" xlink:href="#shape17"/>
    <use height="0.0" id="price_tag_pt" transform="matrix(1.0, 0.0, 0.0, 1.0, 75.0, 90.45)" width="0.0" xlink:href="#sprite0"/>
  </g>
  <defs>
    <g id="shape0" transform="matrix(1.0, 0.0, 0.0, 1.0, 74.55, 42.8)">
      <path d="M-49.85 -42.5 L48.85 -42.8 74.55 42.55 -74.55 42.85 -49.85 -42.5" fill="url(#gradient0)" fill-rule="evenodd" stroke="none"/>
      <path d="M-74.55 42.85 L-67.6 38.95 71.45 40.55 74.55 42.55 -74.55 42.85" fill="url(#gradient1)" fill-rule="evenodd" stroke="none"/>
      <path d="M-46.95 -40.45 L47.95 -40.45 71.45 40.55 -69.55 40.55 -46.95 -40.45" fill="#253538" fill-rule="evenodd" stroke="none"/>
      <path d="M56.9 28.05 L-53.55 28.55 -40.05 -31.45 40.3 -31.45 56.9 28.05" fill="#1a2528" fill-rule="evenodd" stroke="none"/>
      <path d="M55.45 25.4 L-50.55 25.4 -37.45 -31.45 40.7 -31.45 55.45 25.4" fill="#2d2d2d" fill-rule="evenodd" stroke="none"/>
      <path d="M47.95 -40.45 L49.0 -36.95 -44.35 -36.95 -64.35 39.05 -67.6 38.95 -69.15 39.1 -46.95 -40.45 47.95 -40.45" fill="url(#gradient2)" fill-rule="evenodd" stroke="none"/>
      <path d="M55.45 25.4 L56.9 28.05 -53.55 28.55 -49.35 25.3 55.45 25.4" fill="#223033" fill-rule="evenodd" stroke="none"/>
      <path d="M40.7 -31.45 L41.45 -31.3 57.65 28.05 56.9 28.05 40.7 -31.45" fill="#385154" fill-rule="evenodd" stroke="none"/>
      <path d="M57.95 29.05 L-51.7 29.9 -53.55 28.6 57.45 27.7 57.95 29.05" fill="#385154" fill-rule="evenodd" stroke="none"/>
      <path d="M40.3 -31.45 L41.3 -29.15 -38.05 -29.15 -40.05 -31.45 40.3 -31.45" fill="#1a282b" fill-rule="evenodd" stroke="none"/>
    </g>
    <linearGradient gradientTransform="matrix(0.091, 0.0, 0.0, -0.091, 0.0, 0.05)" gradientUnits="userSpaceOnUse" id="gradient0" spreadMethod="pad" x1="-819.2" x2="819.2">
      <stop offset="0.08627450980392157" stop-color="#000000" stop-opacity="0.32941177"/>
      <stop offset="0.22745098039215686" stop-color="#000000" stop-opacity="0.32941177"/>
    </linearGradient>
    <linearGradient gradientTransform="matrix(0.0, -0.0067, -0.0067, 0.0, 0.0, 41.0)" gradientUnits="userSpaceOnUse" id="gradient1" spreadMethod="pad" x1="-819.2" x2="819.2">
      <stop offset="0.0" stop-color="#ffffff" stop-opacity="0.5137255"/>
      <stop offset="0.6549019607843137" stop-color="#ffffff" stop-opacity="0.1764706"/>
    </linearGradient>
    <linearGradient gradientTransform="matrix(0.0721, 0.0, 0.0, -0.0721, -10.05, -0.7)" gradientUnits="userSpaceOnUse" id="gradient2" spreadMethod="pad" x1="-819.2" x2="819.2">
      <stop offset="0.08627450980392157" stop-color="#000000" stop-opacity="0.32941177"/>
      <stop offset="0.22745098039215686" stop-color="#000000" stop-opacity="0.32941177"/>
    </linearGradient>
    <g id="shape1" transform="matrix(1.0, 0.0, 0.0, 1.0, 20.7, 21.6)">
      <path d="M13.2 -21.6 Q15.9 -20.0 18.35 -17.65 L19.65 -16.3 19.65 16.4 18.35 17.7 16.5 19.35 -16.45 19.35 -18.35 17.7 -20.7 15.15 -20.7 -15.1 -18.35 -17.65 Q-15.9 -20.0 -13.15 -21.6 L13.2 -21.6" fill="url(#gradient3)" fill-rule="evenodd" stroke="none"/>
    </g>
    <radialGradient cx="0" cy="0" gradientTransform="matrix(-0.0412, 0.0, 0.0, -0.0433, 0.0, 0.0)" gradientUnits="userSpaceOnUse" id="gradient3" r="819.2" spreadMethod="pad">
      <stop offset="0.0" stop-color="#caffff" stop-opacity="0.84705883"/>
      <stop offset="0.26666666666666666" stop-color="#bef0f0" stop-opacity="0.4"/>
      <stop offset="0.592156862745098" stop-color="#b7e6e6" stop-opacity="0.09411765"/>
      <stop offset="1.0" stop-color="#b4e3e3" stop-opacity="0.0"/>
    </radialGradient>
    <g id="shape2" transform="matrix(1.0, 0.0, 0.0, 1.0, -75.65, -14.85)">
      <path d="M115.1 32.85 Q115.95 41.15 110.85 47.6 105.75 54.1 97.6 54.95 89.45 55.8 83.05 50.6 76.65 45.35 75.8 37.1 74.9 28.8 80.05 22.35 85.15 15.85 93.3 15.0 101.45 14.1 107.8 19.35 114.2 24.55 115.1 32.85" fill="#6c91a8" fill-rule="evenodd" stroke="none"/>
    </g>
    <g id="shape3" transform="matrix(1.0, 0.0, 0.0, 1.0, 21.0, 21.95)">
      <path d="M19.1 -3.3 Q19.95 5.0 14.85 11.45 9.75 17.95 1.6 18.8 -6.55 19.65 -12.95 14.45 -19.35 9.2 -20.2 0.95 -21.1 -7.35 -15.95 -13.8 -10.85 -20.3 -2.7 -21.15 5.45 -22.05 11.8 -16.8 18.2 -11.6 19.1 -3.3" fill="#6c91a8" fill-rule="evenodd" stroke="none"/>
      <path d="M-9.5 9.9 Q-8.95 9.85 -8.65 10.2 -8.35 10.55 -8.85 10.9 L-10.45 11.6 Q-11.5 12.0 -11.5 12.35 -11.45 12.85 -12.75 13.8 L-12.9 13.65 -13.55 14.25 -14.9 15.3 -15.5 15.7 -17.55 15.95 -18.4 16.1 -19.45 16.15 Q-19.25 15.9 -18.85 15.75 L-18.1 15.15 -17.95 14.45 -18.1 12.8 Q-18.2 12.35 -17.95 12.3 -17.15 12.15 -17.1 11.45 -17.15 10.9 -16.7 10.65 -16.55 10.55 -16.05 10.4 L-15.8 10.35 -15.8 10.3 Q-14.85 9.75 -13.2 9.95 L-12.95 9.45 Q-12.55 8.95 -11.8 9.15 -10.6 9.45 -9.4 7.95 L-9.7 8.95 Q-9.9 9.9 -9.5 9.9 M-8.8 3.75 Q-7.65 3.95 -7.45 6.0 -7.35 6.75 -7.65 6.9 L-8.9 6.8 Q-9.6 6.6 -9.85 7.05 L-9.95 7.55 Q-11.35 7.05 -12.1 6.9 L-13.3 7.6 Q-14.2 8.2 -15.05 7.4 -16.1 6.5 -15.1 4.5 -14.2 2.65 -13.3 2.45 -11.4 2.0 -10.2 2.75 L-8.8 3.75 M-3.1 2.85 Q-2.65 2.9 -2.35 3.4 -2.1 3.85 -2.25 4.35 L-2.85 4.8 -3.8 4.75 -5.05 5.15 -6.35 5.25 Q-6.9 4.95 -6.35 4.6 L-5.6 3.9 -5.7 2.75 Q-5.85 2.0 -5.5 1.8 L-4.55 2.3 -3.1 2.85 M-2.7 5.5 L-1.8 5.0 Q-1.2 6.25 -1.7 7.25 -2.15 8.25 -3.35 8.1 L-3.7 7.8 Q-4.0 7.3 -3.8 6.75 -3.65 6.1 -2.7 5.5 M-13.05 -1.8 L-12.45 -2.65 -11.0 -1.8 -10.0 -2.45 Q-9.55 -2.8 -8.45 -1.9 L-9.1 -1.35 Q-9.6 -0.75 -9.05 -0.75 -8.35 -0.7 -8.5 -0.2 -8.65 0.35 -9.6 0.45 -9.65 1.3 -10.35 1.3 -11.1 1.3 -11.8 0.1 -11.95 -0.2 -12.4 0.35 L-13.25 1.1 Q-13.6 1.15 -13.8 0.6 L-13.95 -0.35 -13.55 -0.9 Q-13.35 -1.05 -13.1 -1.15 L-13.05 -1.8 M-19.7 -13.8 L-19.6 -13.7 -19.0 -12.85 Q-18.7 -11.65 -19.55 -11.35 L-19.95 -11.15 Q-20.0 -10.25 -17.1 -8.0 L-17.1 -8.05 Q-15.25 -6.65 -15.2 -5.8 -15.05 -4.75 -17.1 -4.55 L-19.85 -4.1 -19.8 -3.1 -19.75 -3.05 -19.8 -2.35 -19.5 -1.3 -19.2 -0.4 -19.15 -0.35 -18.95 0.6 -18.9 0.9 Q-18.7 1.0 -18.65 1.25 L-18.45 1.75 Q-17.95 2.4 -17.4 3.65 L-17.95 4.9 -18.0 5.1 -18.2 5.5 -18.4 5.65 -19.25 5.95 -20.1 5.8 -20.7 5.4 -20.7 -15.0 -19.85 -14.0 -19.7 -13.8 M-20.45 -17.0 L-20.7 -17.1 -20.7 -21.6 -9.05 -21.6 -9.35 -21.3 Q-9.6 -21.05 -9.9 -21.05 L-13.2 -20.65 -13.8 -20.25 Q-14.7 -19.8 -15.2 -19.0 L-15.2 -19.05 -15.5 -18.35 Q-15.55 -17.85 -15.95 -17.45 -16.25 -17.25 -16.5 -17.15 L-17.45 -16.85 -17.5 -16.85 -19.05 -16.7 -20.45 -16.95 -20.45 -17.0 M19.05 13.85 L19.65 13.75 19.65 14.05 19.2 14.15 19.05 14.15 18.7 14.25 18.45 14.25 18.35 14.25 18.25 14.2 18.2 14.1 18.2 14.0 18.3 14.0 18.4 14.0 18.65 14.0 18.9 13.9 19.0 13.9 19.0 13.85 19.05 13.85 M8.45 13.8 Q8.95 14.35 9.7 14.6 L10.85 14.7 11.55 14.55 11.9 14.55 12.5 14.6 12.55 14.65 12.65 14.65 15.25 14.4 16.1 14.6 16.65 14.95 16.65 15.0 16.95 15.25 17.95 16.1 18.4 16.35 19.65 17.1 19.65 19.35 -5.15 19.35 -5.2 18.95 -5.15 18.2 -5.2 18.2 -5.1 18.1 -5.05 17.9 -5.0 17.8 -4.9 17.8 -4.85 17.8 Q-4.35 17.35 -3.05 17.8 L-0.85 18.55 0.9 18.85 Q1.8 19.0 1.85 18.45 L1.65 17.15 Q1.4 16.4 1.55 16.0 L2.7 15.85 Q3.8 16.15 4.2 15.85 5.05 15.3 2.9 14.0 L3.6 13.35 Q4.6 12.65 5.35 12.4 L5.4 12.4 Q6.9 12.0 8.45 13.8 M16.7 6.0 L16.3 6.0 16.1 6.0 Q15.5 6.05 15.0 6.7 L13.85 8.0 13.3 8.2 12.45 7.9 11.45 7.05 11.35 7.0 10.9 7.5 10.05 8.45 9.6 8.55 Q8.7 8.65 8.1 7.15 7.8 6.6 8.55 5.55 L9.9 4.15 10.35 2.85 Q10.45 1.9 11.05 1.65 L11.15 1.7 11.2 1.65 11.9 1.85 13.1 2.0 13.2 1.95 13.25 1.95 Q13.7 1.95 14.0 2.7 14.3 3.5 14.9 3.8 16.15 4.2 17.15 4.75 L17.35 5.45 Q17.3 6.05 16.7 6.0 M11.75 -19.65 L12.15 -19.45 13.55 -19.25 13.6 -19.25 14.9 -19.45 Q16.2 -19.8 17.1 -19.0 L18.85 -17.7 19.65 -16.95 19.65 3.35 19.6 3.3 19.1 2.9 16.85 1.95 Q16.2 1.6 16.7 0.5 L17.5 -1.1 17.0 -1.25 15.1 -0.95 11.0 0.0 10.85 0.0 10.7 0.0 Q9.8 0.15 9.05 -0.45 L7.7 -1.25 7.55 -1.25 Q7.0 -1.15 6.6 -0.1 6.2 1.1 6.35 1.95 6.4 2.5 5.5 2.25 L4.8 2.0 3.8 1.7 Q3.25 1.55 2.8 0.55 L2.1 -0.75 Q1.85 -1.0 0.85 -0.4 L-0.6 -0.3 Q-1.5 -1.4 0.95 -3.3 1.4 -3.6 0.45 -4.0 -0.75 -4.55 -0.85 -4.8 -1.1 -5.2 -0.35 -5.5 L1.15 -6.25 Q1.8 -6.65 0.95 -8.05 L-0.7 -10.25 -1.8 -11.4 -3.55 -11.1 Q-4.55 -10.65 -4.0 -9.25 -3.45 -7.85 -3.65 -7.75 -4.15 -7.45 -5.55 -8.25 -6.95 -9.05 -7.4 -9.8 -7.7 -10.3 -6.75 -11.4 -5.85 -12.4 -6.3 -12.7 -6.9 -12.95 -7.7 -12.2 L-9.0 -11.05 Q-9.4 -10.9 -9.95 -11.3 -10.6 -11.8 -11.4 -11.8 -12.2 -11.8 -12.6 -10.75 -13.1 -9.5 -13.85 -9.15 -14.95 -8.7 -15.5 -9.9 L-15.8 -11.3 -14.55 -13.95 -12.2 -16.3 Q-9.6 -18.6 -6.2 -19.8 -4.8 -19.7 -3.35 -18.65 -2.05 -17.7 -1.5 -17.8 0.05 -18.05 0.5 -19.3 L2.65 -20.85 4.25 -20.6 4.3 -20.6 5.85 -20.2 5.95 -20.2 6.7 -19.95 7.5 -19.95 7.65 -19.95 10.55 -20.25 Q11.35 -20.35 11.75 -19.65 M17.6 -20.25 L17.15 -20.45 17.15 -20.4 16.4 -20.75 Q15.9 -20.85 15.6 -21.05 L14.85 -21.5 14.55 -21.6 19.65 -21.6 19.65 -19.3 19.4 -19.4 19.4 -19.45 Q19.1 -19.55 18.8 -19.8 L18.15 -20.0 17.6 -20.25 M-16.1 0.5 Q-14.8 -1.05 -14.45 -0.8 -14.2 -0.65 -14.7 0.45 -16.1 3.55 -16.75 2.6 -16.6 2.8 -16.65 1.4 L-16.1 0.5 M-10.3 13.5 Q-9.45 12.9 -8.95 13.1 -8.05 13.45 -8.55 14.05 -8.95 14.6 -9.85 14.4 L-11.05 14.15 -10.3 13.5 M-20.55 19.35 L-20.7 19.35 -20.7 19.3 -20.55 19.35 M-20.0 16.3 L-20.05 16.4 -20.1 16.45 -20.7 16.6 -20.7 16.25 -20.1 16.2 -20.05 16.2 -20.0 16.3" fill="#72d6db" fill-rule="evenodd" stroke="none"/>
      <path d="M17.7 7.15 L0.85 6.5 Q-4.1 6.9 -9.15 8.55 L-16.3 11.15 -16.9 10.4 Q-6.5 6.3 1.85 5.75 L17.8 6.4 17.7 7.15" fill="#caffff" fill-rule="evenodd" stroke="none"/>
      <path d="M14.75 -14.1 Q6.9 -17.15 -1.3 -16.35 -7.0 -15.75 -11.55 -14.05 L-18.05 -10.9 -17.25 -12.1 Q-8.35 -16.55 -1.05 -17.1 5.5 -17.65 14.0 -14.95 L14.75 -14.1 M-13.15 17.75 Q-4.65 14.6 2.3 14.1 9.25 13.55 18.0 14.95 L18.45 15.75 Q10.95 14.3 4.1 14.9 L-5.35 16.2 -13.55 18.7 -13.15 17.75" fill="#caffff" fill-rule="evenodd" stroke="none"/>
      <path d="M19.4 -4.75 Q9.3 -6.6 -0.6 -5.75 -6.95 -5.25 -13.0 -3.15 -16.3 -2.0 -20.6 0.05 L-20.7 -0.75 Q-9.45 -6.1 0.1 -6.8 8.2 -7.35 19.0 -5.55 L19.2 -5.2 19.4 -4.75" fill="#caffff" fill-rule="evenodd" stroke="none"/>
      <path d="M-4.05 -21.6 Q-22.25 -17.25 -20.5 2.8 -16.65 17.0 -4.8 19.35" fill="none" stroke="#caffff" stroke-linecap="round" stroke-linejoin="round" stroke-width="0.75"/>
      <path d="M-3.75 -21.6 Q-17.45 -17.3 -15.6 2.0 -12.05 17.1 -1.9 19.35" fill="none" stroke="#caffff" stroke-linecap="round" stroke-linejoin="round" stroke-width="0.75"/>
      <path d="M-3.25 -21.6 Q-10.3 -17.45 -8.4 0.85 -5.55 16.85 0.75 19.35" fill="none" stroke="#caffff" stroke-linecap="round" stroke-linejoin="round" stroke-width="0.75"/>
      <path d="M-2.55 -21.6 Q-1.05 -17.75 1.05 -0.75 2.95 15.95 2.3 19.35" fill="none" stroke="#caffff" stroke-linecap="round" stroke-linejoin="round" stroke-width="0.75"/>
      <path d="M-1.45 -21.6 Q6.65 -19.05 9.8 -2.55 11.75 15.3 3.2 19.35" fill="none" stroke="#caffff" stroke-linecap="round" stroke-linejoin="round" stroke-width="0.75"/>
      <path d="M0.6 -21.6 Q12.5 -19.55 16.3 -3.85 18.2 14.85 3.65 19.35" fill="none" stroke="#caffff" stroke-linecap="round" stroke-linejoin="round" stroke-width="0.75"/>
    </g>
    <g id="shape4" transform="matrix(1.0, 0.0, 0.0, 1.0, 43.35, 30.8)">
      <path d="M-3.35 -19.8 L-35.7 -19.8 -35.7 -26.45 -3.35 -26.45 -3.35 -19.8" fill="#caffff" fill-rule="evenodd" stroke="none"/>
      <path d="M-1.95 -28.75 Q5.15 -26.7 5.15 -23.8 5.15 -20.9 -1.95 -18.85 -9.05 -16.8 -19.1 -16.8 -29.15 -16.8 -36.25 -18.85 -43.35 -20.9 -43.35 -23.8 -43.35 -26.7 -36.25 -28.75 -29.15 -30.8 -19.1 -30.8 -9.05 -30.8 -1.95 -28.75" fill="url(#gradient4)" fill-rule="evenodd" stroke="none"/>
    </g>
    <radialGradient cx="0" cy="0" gradientTransform="matrix(0.0, 0.0086, -0.0363, 0.0, -19.1, -23.8)" gradientUnits="userSpaceOnUse" id="gradient4" r="819.2" spreadMethod="pad">
      <stop offset="0.0" stop-color="#caffff" stop-opacity="0.84705883"/>
      <stop offset="0.26666666666666666" stop-color="#bef0f0" stop-opacity="0.4"/>
      <stop offset="0.592156862745098" stop-color="#b7e6e6" stop-opacity="0.09411765"/>
      <stop offset="1.0" stop-color="#b4e3e3" stop-opacity="0.0"/>
    </radialGradient>
    <g id="shape5" transform="matrix(1.0, 0.0, 0.0, 1.0, 12.8, 2.2)">
      <path d="M9.25 1.0 L-9.75 1.0 -9.75 -0.7 9.25 -0.7 9.25 1.0" fill="#b9e07c" fill-opacity="0.0" fill-rule="evenodd" stroke="none"/>
      <path d="M9.0 -1.55 Q12.75 -0.9 12.75 0.0 12.75 0.9 9.0 1.55 L-0.05 2.2 -9.05 1.55 Q-12.8 0.9 -12.8 0.0 -12.8 -0.9 -9.05 -1.55 L-0.05 -2.2 9.0 -1.55" fill="url(#gradient5)" fill-rule="evenodd" stroke="none"/>
    </g>
    <radialGradient cx="0" cy="0" gradientTransform="matrix(0.0421, 0.0, 0.0, -0.0088, -0.05, 0.0)" gradientUnits="userSpaceOnUse" id="gradient5" r="819.2" spreadMethod="pad">
      <stop offset="0.0" stop-color="#b9e07c" stop-opacity="0.0"/>
      <stop offset="0.058823529411764705" stop-color="#a4c56f" stop-opacity="0.0"/>
      <stop offset="0.16862745098039217" stop-color="#829a5a" stop-opacity="0.0"/>
      <stop offset="0.28627450980392155" stop-color="#657448" stop-opacity="0.0"/>
      <stop offset="0.40784313725490196" stop-color="#4d553a" stop-opacity="0.0"/>
      <stop offset="0.5333333333333333" stop-color="#3a3d2e" stop-opacity="0.0"/>
      <stop offset="0.6666666666666666" stop-color="#2d2c26" stop-opacity="0.0"/>
      <stop offset="0.8117647058823529" stop-color="#252222" stop-opacity="0.0"/>
      <stop offset="0.9921568627450981" stop-color="#231f20" stop-opacity="0.0"/>
    </radialGradient>
    <g id="shape6" transform="matrix(1.0, 0.0, 0.0, 1.0, 12.7, 2.95)">
      <path d="M9.2 0.8 L-9.8 0.8 -9.8 -0.4 9.2 -0.4 9.2 0.8" fill="#caffff" fill-opacity="0.0" fill-rule="evenodd" stroke="none"/>
      <path d="M-0.05 2.9 L-9.0 2.05 Q-12.7 1.2 -12.7 -0.05 -12.7 -1.25 -9.0 -2.1 L-0.05 -2.95 8.95 -2.1 Q12.65 -1.25 12.65 -0.05 12.65 1.2 8.95 2.05 L-0.05 2.9" fill="url(#gradient6)" fill-rule="evenodd" stroke="none"/>
    </g>
    <radialGradient cx="0" cy="0" gradientTransform="matrix(0.0, 0.0036, -0.019, 0.0, -0.05, -0.05)" gradientUnits="userSpaceOnUse" id="gradient6" r="819.2" spreadMethod="pad">
      <stop offset="0.0" stop-color="#caffff" stop-opacity="0.0"/>
      <stop offset="0.26666666666666666" stop-color="#bef0f0" stop-opacity="0.0"/>
      <stop offset="0.592156862745098" stop-color="#b7e6e6" stop-opacity="0.0"/>
      <stop offset="1.0" stop-color="#b4e3e3" stop-opacity="0.0"/>
    </radialGradient>
    <g id="shape7" transform="matrix(1.0, 0.0, 0.0, 1.0, 12.2, 1.5)">
      <path d="M9.45 0.3 L-9.55 0.3 -9.55 -0.5 9.45 -0.5 9.45 0.3" fill="#ffb052" fill-opacity="0.0" fill-rule="evenodd" stroke="none"/>
      <path d="M-0.05 1.5 L-8.65 1.05 Q-12.2 0.65 -12.2 0.0 -12.2 -0.6 -8.65 -1.05 L-0.05 -1.5 8.6 -1.05 Q12.15 -0.6 12.15 0.0 12.15 0.65 8.6 1.05 L-0.05 1.5" fill="url(#gradient7)" fill-rule="evenodd" stroke="none"/>
    </g>
    <radialGradient cx="0" cy="0" gradientTransform="matrix(0.0, 0.005, 0.0489, 0.0, -0.05, 0.0)" gradientUnits="userSpaceOnUse" id="gradient7" r="819.2" spreadMethod="pad">
      <stop offset="0.0" stop-color="#ffb966" stop-opacity="0.0"/>
      <stop offset="0.00392156862745098" stop-color="#fdb765" stop-opacity="0.0"/>
      <stop offset="0.10588235294117647" stop-color="#ca9455" stop-opacity="0.0"/>
      <stop offset="0.21176470588235294" stop-color="#9e7547" stop-opacity="0.0"/>
      <stop offset="0.3254901960784314" stop-color="#785a3b" stop-opacity="0.0"/>
      <stop offset="0.4392156862745098" stop-color="#594531" stop-opacity="0.0"/>
      <stop offset="0.5568627450980392" stop-color="#41342a" stop-opacity="0.0"/>
      <stop offset="0.6823529411764706" stop-color="#302824" stop-opacity="0.0"/>
      <stop offset="0.8196078431372549" stop-color="#262121" stop-opacity="0.0"/>
      <stop offset="0.9921568627450981" stop-color="#231f20" stop-opacity="0.0"/>
    </radialGradient>
    <g id="shape8" transform="matrix(1.0, 0.0, 0.0, 1.0, 13.1, 2.35)">
      <path d="M9.65 0.85 L-9.35 0.85 -9.35 -0.7 9.65 -0.7 9.65 0.85" fill="#ffe783" fill-opacity="0.0" fill-rule="evenodd" stroke="none"/>
      <path d="M0.0 2.35 L-9.25 1.65 Q-13.1 1.0 -13.1 0.0 -13.1 -0.95 -9.25 -1.65 L0.0 -2.35 9.25 -1.65 Q13.1 -0.95 13.1 0.0 13.1 1.0 9.25 1.65 L0.0 2.35" fill="url(#gradient8)" fill-rule="evenodd" stroke="none"/>
    </g>
    <radialGradient cx="0" cy="0" gradientTransform="matrix(0.0, 0.0055, 0.0373, 0.0, 0.0, 0.0)" gradientUnits="userSpaceOnUse" id="gradient8" r="819.2" spreadMethod="pad">
      <stop offset="0.03529411764705882" stop-color="#fff3c0" stop-opacity="0.0"/>
      <stop offset="0.0392156862745098" stop-color="#fdf1be" stop-opacity="0.0"/>
      <stop offset="0.13725490196078433" stop-color="#cac09a" stop-opacity="0.0"/>
      <stop offset="0.23921568627450981" stop-color="#9e9579" stop-opacity="0.0"/>
      <stop offset="0.34509803921568627" stop-color="#78715e" stop-opacity="0.0"/>
      <stop offset="0.4588235294117647" stop-color="#595347" stop-opacity="0.0"/>
      <stop offset="0.5725490196078431" stop-color="#413c36" stop-opacity="0.0"/>
      <stop offset="0.6941176470588235" stop-color="#302c2a" stop-opacity="0.0"/>
      <stop offset="0.8274509803921568" stop-color="#262222" stop-opacity="0.0"/>
      <stop offset="0.9921568627450981" stop-color="#231f20" stop-opacity="0.0"/>
    </radialGradient>
    <g id="shape9" transform="matrix(1.0, 0.0, 0.0, 1.0, 14.35, 2.95)">
      <path d="M9.25 0.8 L-9.75 0.8 -9.75 -0.4 9.25 -0.4 9.25 0.8" fill="#caffff" fill-opacity="0.0" fill-rule="evenodd" stroke="none"/>
      <path d="M0.0 2.9 L-10.15 2.05 Q-14.35 1.2 -14.35 -0.05 -14.35 -1.25 -10.15 -2.1 L0.0 -2.95 10.15 -2.1 Q14.35 -1.25 14.35 -0.05 14.35 1.2 10.15 2.05 L0.0 2.9" fill="url(#gradient9)" fill-rule="evenodd" stroke="none"/>
    </g>
    <radialGradient cx="0" cy="0" gradientTransform="matrix(0.0, 0.0036, -0.0215, 0.0, 0.0, -0.05)" gradientUnits="userSpaceOnUse" id="gradient9" r="819.2" spreadMethod="pad">
      <stop offset="0.0" stop-color="#caffff" stop-opacity="0.0"/>
      <stop offset="0.26666666666666666" stop-color="#bef0f0" stop-opacity="0.0"/>
      <stop offset="0.592156862745098" stop-color="#b7e6e6" stop-opacity="0.0"/>
      <stop offset="1.0" stop-color="#b4e3e3" stop-opacity="0.0"/>
    </radialGradient>
    <g id="shape10" transform="matrix(1.0, 0.0, 0.0, 1.0, 3.5, 13.35)">
      <path d="M1.45 10.0 L-1.5 10.0 -1.5 -9.25 1.45 -9.25 1.45 10.0" fill="#caffff" fill-rule="evenodd" stroke="none"/>
      <path d="M0.0 13.35 Q-1.45 13.35 -2.5 9.45 -3.5 5.55 -3.5 0.0 -3.5 -5.55 -2.5 -9.45 -1.45 -13.35 0.0 -13.35 1.45 -13.35 2.45 -9.45 3.5 -5.5 3.5 0.0 3.5 5.5 2.45 9.45 1.45 13.35 0.0 13.35" fill="url(#gradient10)" fill-rule="evenodd" stroke="none"/>
    </g>
    <radialGradient cx="0" cy="0" gradientTransform="matrix(0.0, 0.0164, -0.0052, 0.0, 0.0, 0.0)" gradientUnits="userSpaceOnUse" id="gradient10" r="819.2" spreadMethod="pad">
      <stop offset="0.0" stop-color="#caffff" stop-opacity="0.84705883"/>
      <stop offset="0.26666666666666666" stop-color="#bef0f0" stop-opacity="0.4"/>
      <stop offset="0.592156862745098" stop-color="#b7e6e6" stop-opacity="0.09411765"/>
      <stop offset="1.0" stop-color="#b4e3e3" stop-opacity="0.0"/>
    </radialGradient>
    <g id="shape11" transform="matrix(1.0, 0.0, 0.0, 1.0, 3.1, 10.15)">
      <path d="M1.55 7.65 L-1.1 7.65 -1.1 -6.3 1.55 -6.3 1.55 7.65" fill="#ffe783" fill-rule="evenodd" stroke="none"/>
      <path d="M3.1 0.0 Q3.1 4.2 2.2 7.2 1.3 10.15 0.0 10.15 -1.3 10.15 -2.2 7.2 -3.1 4.2 -3.1 0.0 -3.1 -4.2 -2.2 -7.15 -1.3 -10.15 0.0 -10.15 1.3 -10.15 2.2 -7.15 3.1 -4.2 3.1 0.0" fill="url(#gradient11)" fill-rule="evenodd" stroke="none"/>
    </g>
    <radialGradient cx="0" cy="0" gradientTransform="matrix(0.0072, 0.0, 0.0, -0.029, 0.0, 0.0)" gradientUnits="userSpaceOnUse" id="gradient11" r="819.2" spreadMethod="pad">
      <stop offset="0.03529411764705882" stop-color="#fff3c0" stop-opacity="0.49803922"/>
      <stop offset="0.0392156862745098" stop-color="#fdf1be" stop-opacity="0.49411765"/>
      <stop offset="0.13725490196078433" stop-color="#cac09a" stop-opacity="0.3764706"/>
      <stop offset="0.23921568627450981" stop-color="#9e9579" stop-opacity="0.2784314"/>
      <stop offset="0.34509803921568627" stop-color="#78715e" stop-opacity="0.19215687"/>
      <stop offset="0.4588235294117647" stop-color="#595347" stop-opacity="0.12156863"/>
      <stop offset="0.5725490196078431" stop-color="#413c36" stop-opacity="0.06666667"/>
      <stop offset="0.6941176470588235" stop-color="#302c2a" stop-opacity="0.02745098"/>
      <stop offset="0.8274509803921568" stop-color="#262222" stop-opacity="0.003921569"/>
      <stop offset="0.9921568627450981" stop-color="#231f20" stop-opacity="0.0"/>
    </radialGradient>
    <g id="shape12" transform="matrix(1.0, 0.0, 0.0, 1.0, 2.85, 14.85)">
      <path d="M0.85 12.85 L-1.15 12.85 -1.15 -10.7 0.85 -10.7 0.85 12.85" fill="#ffb052" fill-rule="evenodd" stroke="none"/>
      <path d="M2.8 0.0 Q2.8 6.15 2.0 10.5 1.15 14.85 0.0 14.85 -1.2 14.85 -2.0 10.5 -2.85 6.2 -2.85 0.0 -2.85 -6.15 -2.0 -10.5 -1.2 -14.85 0.0 -14.85 1.15 -14.85 2.0 -10.5 2.8 -6.15 2.8 0.0" fill="url(#gradient12)" fill-rule="evenodd" stroke="none"/>
    </g>
    <radialGradient cx="0" cy="0" gradientTransform="matrix(0.0094, 0.0, 0.0, -0.0596, 0.0, 0.0)" gradientUnits="userSpaceOnUse" id="gradient12" r="819.2" spreadMethod="pad">
      <stop offset="0.0" stop-color="#ffb966" stop-opacity="0.49803922"/>
      <stop offset="0.00392156862745098" stop-color="#fdb765" stop-opacity="0.49411765"/>
      <stop offset="0.10588235294117647" stop-color="#ca9455" stop-opacity="0.3764706"/>
      <stop offset="0.21176470588235294" stop-color="#9e7547" stop-opacity="0.2784314"/>
      <stop offset="0.3254901960784314" stop-color="#785a3b" stop-opacity="0.19215687"/>
      <stop offset="0.4392156862745098" stop-color="#594531" stop-opacity="0.12156863"/>
      <stop offset="0.5568627450980392" stop-color="#41342a" stop-opacity="0.06666667"/>
      <stop offset="0.6823529411764706" stop-color="#302824" stop-opacity="0.02745098"/>
      <stop offset="0.8196078431372549" stop-color="#262121" stop-opacity="0.003921569"/>
      <stop offset="0.9921568627450981" stop-color="#231f20" stop-opacity="0.0"/>
    </radialGradient>
    <g id="shape13" transform="matrix(1.0, 0.0, 0.0, 1.0, 2.2, 12.75)">
      <path d="M0.65 11.8 L-1.0 11.8 -1.0 -7.45 0.65 -7.45 0.65 11.8" fill="#b9e07c" fill-rule="evenodd" stroke="none"/>
      <path d="M0.0 -12.75 Q0.9 -12.75 1.55 -9.0 2.15 -5.3 2.15 0.0 2.15 5.3 1.55 9.0 0.9 12.75 0.0 12.75 -0.9 12.75 -1.55 9.0 -2.2 5.25 -2.2 0.0 -2.2 -5.25 -1.55 -9.0 -0.9 -12.75 0.0 -12.75" fill="url(#gradient13)" fill-rule="evenodd" stroke="none"/>
    </g>
    <radialGradient cx="0" cy="0" gradientTransform="matrix(0.0, -0.042, -0.0088, 0.0, 0.0, 0.0)" gradientUnits="userSpaceOnUse" id="gradient13" r="819.2" spreadMethod="pad">
      <stop offset="0.0" stop-color="#b9e07c" stop-opacity="0.49803922"/>
      <stop offset="0.058823529411764705" stop-color="#a4c56f" stop-opacity="0.42745098"/>
      <stop offset="0.16862745098039217" stop-color="#829a5a" stop-opacity="0.3137255"/>
      <stop offset="0.28627450980392155" stop-color="#657448" stop-opacity="0.21568628"/>
      <stop offset="0.40784313725490196" stop-color="#4d553a" stop-opacity="0.13725491"/>
      <stop offset="0.5333333333333333" stop-color="#3a3d2e" stop-opacity="0.07450981"/>
      <stop offset="0.6666666666666666" stop-color="#2d2c26" stop-opacity="0.03137255"/>
      <stop offset="0.8117647058823529" stop-color="#252222" stop-opacity="0.007843138"/>
      <stop offset="0.9921568627450981" stop-color="#231f20" stop-opacity="0.0"/>
    </radialGradient>
    <g id="shape14" transform="matrix(1.0, 0.0, 0.0, 1.0, 2.35, 8.5)">
      <path d="M0.7 6.5 L-0.95 6.5 -0.95 -4.5 0.7 -4.5 0.7 6.5" fill="#ffb052" fill-rule="evenodd" stroke="none"/>
      <path d="M2.3 0.0 Q2.3 3.5 1.6 6.0 0.95 8.5 0.0 8.5 -0.95 8.5 -1.65 6.0 -2.35 3.5 -2.35 0.0 -2.35 -3.5 -1.65 -6.0 -0.95 -8.5 0.0 -8.5 0.95 -8.5 1.6 -6.0 2.3 -3.5 2.3 0.0" fill="url(#gradient14)" fill-rule="evenodd" stroke="none"/>
    </g>
    <radialGradient cx="0" cy="0" gradientTransform="matrix(0.0077, 0.0, 0.0, -0.0341, 0.0, 0.0)" gradientUnits="userSpaceOnUse" id="gradient14" r="819.2" spreadMethod="pad">
      <stop offset="0.0" stop-color="#ffb966" stop-opacity="0.49803922"/>
      <stop offset="0.00392156862745098" stop-color="#fdb765" stop-opacity="0.49411765"/>
      <stop offset="0.10588235294117647" stop-color="#ca9455" stop-opacity="0.3764706"/>
      <stop offset="0.21176470588235294" stop-color="#9e7547" stop-opacity="0.2784314"/>
      <stop offset="0.3254901960784314" stop-color="#785a3b" stop-opacity="0.19215687"/>
      <stop offset="0.4392156862745098" stop-color="#594531" stop-opacity="0.12156863"/>
      <stop offset="0.5568627450980392" stop-color="#41342a" stop-opacity="0.06666667"/>
      <stop offset="0.6823529411764706" stop-color="#302824" stop-opacity="0.02745098"/>
      <stop offset="0.8196078431372549" stop-color="#262121" stop-opacity="0.003921569"/>
      <stop offset="0.9921568627450981" stop-color="#231f20" stop-opacity="0.0"/>
    </radialGradient>
    <g id="shape15" transform="matrix(1.0, 0.0, 0.0, 1.0, 6.4, 6.5)">
      <path d="M-0.1 5.95 Q2.25 5.95 3.95 4.2 5.6 2.45 5.6 0.0 5.6 -2.45 3.95 -4.15 2.25 -5.9 -0.1 -5.9 -2.45 -5.9 -4.15 -4.15 -5.8 -2.45 -5.8 0.0 -5.8 2.45 -4.15 4.2 -2.45 5.95 -0.1 5.95 M4.45 -4.6 Q6.35 -2.7 6.35 0.0 6.35 2.7 4.45 4.65 2.6 6.55 -0.05 6.55 -2.65 6.55 -4.55 4.65 -6.4 2.7 -6.4 0.0 -6.4 -2.7 -4.55 -4.6 -2.7 -6.5 -0.05 -6.5 2.6 -6.5 4.45 -4.6" fill="#caffff" fill-opacity="0.09803922" fill-rule="evenodd" stroke="none"/>
    </g>
    <g id="shape16" transform="matrix(1.0, 0.0, 0.0, 1.0, 8.55, 8.5)">
      <path d="M-6.05 -6.0 Q-3.55 -8.5 0.0 -8.5 3.55 -8.5 6.1 -6.0 8.6 -3.5 8.6 0.0 8.6 3.55 6.1 6.0 3.55 8.5 0.0 8.5 -3.55 8.5 -6.05 6.0 -8.55 3.5 -8.55 0.0 -8.55 -3.5 -6.05 -6.0" fill="url(#gradient15)" fill-rule="evenodd" stroke="none"/>
    </g>
    <radialGradient cx="0" cy="0" gradientTransform="matrix(0.0, 0.0104, -0.0128, 0.0, 0.0, 0.0)" gradientUnits="userSpaceOnUse" id="gradient15" r="819.2" spreadMethod="pad">
      <stop offset="0.0" stop-color="#caffff" stop-opacity="0.84705883"/>
      <stop offset="0.26666666666666666" stop-color="#bef0f0" stop-opacity="0.4"/>
      <stop offset="0.592156862745098" stop-color="#b7e6e6" stop-opacity="0.09411765"/>
      <stop offset="1.0" stop-color="#b4e3e3" stop-opacity="0.0"/>
    </radialGradient>
    <g id="shape17" transform="matrix(1.0, 0.0, 0.0, 1.0, 53.55, 31.65)">
      <path d="M46.65 22.45 L-15.35 22.45 -15.35 21.3 46.65 21.3 46.65 22.45" fill="#ffe783" fill-rule="evenodd" stroke="none"/>
      <path d="M41.05 24.95 L15.4 26.05 -10.3 24.95 Q-20.95 23.85 -20.95 22.25 -20.95 20.65 -10.3 19.5 L15.4 18.4 41.05 19.5 Q51.7 20.65 51.7 22.25 51.7 23.85 41.05 24.95" fill="url(#gradient16)" fill-rule="evenodd" stroke="none"/>
      <path d="M46.65 17.5 L46.65 18.9 -15.35 18.9 -15.35 17.5 46.65 17.5" fill="#b9e07c" fill-rule="evenodd" stroke="none"/>
      <path d="M52.8 18.05 Q52.8 18.95 42.25 19.6 31.8 20.2 16.85 20.2 1.9 20.2 -8.6 19.6 -19.15 18.95 -19.15 18.05 -19.15 17.1 -8.6 16.5 1.85 15.85 16.85 15.85 31.85 15.85 42.25 16.5 52.8 17.1 52.8 18.05" fill="url(#gradient17)" fill-rule="evenodd" stroke="none"/>
      <path d="M55.45 25.4 L-50.55 25.4 -37.45 -31.45 40.7 -31.45 55.45 25.4" fill="url(#gradient18)" fill-rule="evenodd" stroke="none"/>
      <path d="M56.9 27.9 L-53.55 28.4 -40.05 -31.65 40.3 -31.65 56.9 27.9" fill="url(#gradient19)" fill-rule="evenodd" stroke="none"/>
    </g>
    <radialGradient cx="0" cy="0" gradientTransform="matrix(0.0, 0.009, 0.1037, 0.0, 15.4, 22.25)" gradientUnits="userSpaceOnUse" id="gradient16" r="819.2" spreadMethod="pad">
      <stop offset="0.03529411764705882" stop-color="#fff3c0" stop-opacity="0.49803922"/>
      <stop offset="0.0392156862745098" stop-color="#fdf1be" stop-opacity="0.49411765"/>
      <stop offset="0.13725490196078433" stop-color="#cac09a" stop-opacity="0.3764706"/>
      <stop offset="0.23921568627450981" stop-color="#9e9579" stop-opacity="0.2784314"/>
      <stop offset="0.34509803921568627" stop-color="#78715e" stop-opacity="0.19215687"/>
      <stop offset="0.4588235294117647" stop-color="#595347" stop-opacity="0.12156863"/>
      <stop offset="0.5725490196078431" stop-color="#413c36" stop-opacity="0.06666667"/>
      <stop offset="0.6941176470588235" stop-color="#302c2a" stop-opacity="0.02745098"/>
      <stop offset="0.8274509803921568" stop-color="#262222" stop-opacity="0.003921569"/>
      <stop offset="0.9921568627450981" stop-color="#231f20" stop-opacity="0.0"/>
    </radialGradient>
    <radialGradient cx="0" cy="0" gradientTransform="matrix(0.1185, 0.0, 0.0, -0.0088, 16.85, 18.05)" gradientUnits="userSpaceOnUse" id="gradient17" r="819.2" spreadMethod="pad">
      <stop offset="0.0" stop-color="#b9e07c" stop-opacity="0.49803922"/>
      <stop offset="0.058823529411764705" stop-color="#a4c56f" stop-opacity="0.42745098"/>
      <stop offset="0.16862745098039217" stop-color="#829a5a" stop-opacity="0.3137255"/>
      <stop offset="0.28627450980392155" stop-color="#657448" stop-opacity="0.21568628"/>
      <stop offset="0.40784313725490196" stop-color="#4d553a" stop-opacity="0.13725491"/>
      <stop offset="0.5333333333333333" stop-color="#3a3d2e" stop-opacity="0.07450981"/>
      <stop offset="0.6666666666666666" stop-color="#2d2c26" stop-opacity="0.03137255"/>
      <stop offset="0.8117647058823529" stop-color="#252222" stop-opacity="0.007843138"/>
      <stop offset="0.9921568627450981" stop-color="#231f20" stop-opacity="0.0"/>
    </radialGradient>
    <radialGradient cx="0" cy="0" gradientTransform="matrix(0.0887, 0.0, 0.0, -0.0511, 2.45, -3.05)" gradientUnits="userSpaceOnUse" id="gradient18" r="819.2" spreadMethod="pad">
      <stop offset="0.5725490196078431" stop-color="#130c0e" stop-opacity="0.0"/>
      <stop offset="0.796078431372549" stop-color="#130c0e" stop-opacity="0.6509804"/>
      <stop offset="1.0" stop-color="#130c0e" stop-opacity="0.9490196"/>
    </radialGradient>
    <linearGradient gradientTransform="matrix(0.0674, 0.0, 0.0, -0.0674, 1.65, -1.6)" gradientUnits="userSpaceOnUse" id="gradient19" spreadMethod="pad" x1="-819.2" x2="819.2">
      <stop offset="0.0" stop-color="#e1e1e1" stop-opacity="0.0"/>
      <stop offset="0.30196078431372547" stop-color="#ededed" stop-opacity="0.08627451"/>
      <stop offset="0.49411764705882355" stop-color="#eaeaea" stop-opacity="0.0"/>
      <stop offset="0.7215686274509804" stop-color="#ededed" stop-opacity="0.1764706"/>
      <stop offset="0.9568627450980393" stop-color="#e1e1e1" stop-opacity="0.0"/>
    </linearGradient>
  </defs>
</svg>
