<?xml version="1.0" encoding="UTF-8" standalone="no"?>
<svg xmlns:xlink="http://www.w3.org/1999/xlink" height="85.65px" width="150.0px" xmlns="http://www.w3.org/2000/svg">
  <g transform="matrix(1.0, 0.0, 0.0, 1.0, 0.0, 0.0)">
    <use height="85.65" transform="matrix(1.0, 0.0, 0.0, 1.0, 0.0, 0.0)" width="149.1" xlink:href="#shape0"/>
    <use height="40.95" transform="matrix(1.0, 0.0, 0.0, 1.0, 75.3, 14.55)" width="40.35" xlink:href="#shape1"/>
    <clipPath id="clipPath0" transform="matrix(1.0, 0.0, 0.0, 1.0, 0.0, 0.0)">
      <use height="40.2" transform="matrix(1.0, 0.0, 0.0, 1.0, 75.65, 14.85)" width="39.55" xlink:href="#shape2"/>
    </clipPath>
    <g clip-path="url(#clipPath0)">
      <use height="41.65" transform="matrix(1.0, 0.0, 0.0, 1.0, 75.3, 14.2)" width="40.35" xlink:href="#shape3"/>
    </g>
    <use height="14.0" transform="matrix(1.0, 0.0, 0.0, 1.0, 31.2, 12.0)" width="48.5" xlink:href="#shape4"/>
    <use height="4.4" transform="matrix(1.0, 0.0, 0.0, 1.0, 48.95, 24.3)" width="25.55" xlink:href="#shape5"/>
    <use height="5.85" transform="matrix(1.0, 0.0, 0.0, 1.0, 49.1, 27.35)" width="25.35" xlink:href="#shape6"/>
    <use height="3.0" transform="matrix(0.9924, 0.0, 0.0, 1.0, 49.2931, 32.6)" width="24.35" xlink:href="#shape7"/>
    <use height="4.7" transform="matrix(0.9611, 0.0, 0.0, 1.0, 48.4093, 35.0)" width="26.2" xlink:href="#shape8"/>
    <use height="5.85" transform="matrix(0.9074, 0.0, 0.0, 1.0, 47.8289, 38.35)" width="28.7" xlink:href="#shape9"/>
    <use height="26.7" transform="matrix(1.0, 0.0, 0.0, 0.6269, 31.2, 51.6812)" width="7.0" xlink:href="#shape10"/>
    <use height="20.3" transform="matrix(1.0, 0.0, 0.0, 0.6771, 36.7, 54.6772)" width="6.2" xlink:href="#shape11"/>
    <use height="29.7" transform="matrix(1.0, 0.0, 0.0, 0.7075, 41.3, 47.1436)" width="5.65" xlink:href="#shape12"/>
    <use height="25.5" transform="matrix(1.0, 0.0, 0.0, 0.226, 45.5, 60.7683)" width="4.35" xlink:href="#shape13"/>
    <use height="17.0" transform="matrix(1.0, 0.0, 0.0, 1.8942, 49.3, 38.1493)" width="4.65" xlink:href="#shape14"/>
    <use height="13.05" transform="matrix(0.9078, 0.0, 0.0, 0.9078, 37.2898, 26.2491)" width="12.75" xlink:href="#shape15"/>
    <use height="13.05" transform="matrix(0.5853, 0.0, 0.0, 0.5853, 39.3543, 28.3458)" width="12.75" xlink:href="#shape15"/>
    <use height="13.05" transform="matrix(0.2013, 0.0, 0.0, 0.2013, 41.8119, 30.8418)" width="12.75" xlink:href="#shape15"/>
    <use height="17.0" transform="matrix(1.0, 0.0, 0.0, 1.0, 34.55, 23.65)" width="17.15" xlink:href="#shape16"/>
    <use height="60.05" transform="matrix(1.0, 0.0, 0.0, 1.0, 21.0, 11.15)" width="110.45" xlink:href="#shape17"/>
    <use height="0.0" id="price_tag_pt" transform="matrix(1.0, 0.0, 0.0, 1.0, 75.0, 90.45)" width="0.0" xlink:href="#sprite0"/>
  </g>
  <defs>
    <g id="shape0" transform="matrix(1.0, 0.0, 0.0, 1.0, 74.55, 42.8)">
      <path d="M-49.85 -42.5 L48.85 -42.8 74.55 42.55 -74.55 42.85 -49.85 -42.5" fill="url(#gradient0)" fill-rule="evenodd" stroke="none"/>
      <path d="M-74.55 42.85 L-67.6 38.95 71.45 40.55 74.55 42.55 -74.55 42.85" fill="url(#gradient1)" fill-rule="evenodd" stroke="none"/>
      <path d="M-46.95 -40.45 L47.95 -40.45 71.45 40.55 -69.55 40.55 -46.95 -40.45" fill="#253538" fill-rule="evenodd" stroke="none"/>
      <path d="M56.9 28.05 L-53.55 28.55 -40.05 -31.45 40.3 -31.45 56.9 28.05" fill="#1a2528" fill-rule="evenodd" stroke="none"/>
      <path d="M55.45 25.4 L-50.55 25.4 -37.45 -31.45 40.7 -31.45 55.45 25.4" fill="#2d2d2d" fill-rule="evenodd" stroke="none"/>
      <path d="M47.95 -40.45 L49.0 -36.95 -44.35 -36.95 -64.35 39.05 -67.6 38.95 -69.15 39.1 -46.95 -40.45 47.95 -40.45" fill="url(#gradient2)" fill-rule="evenodd" stroke="none"/>
      <path d="M55.45 25.4 L56.9 28.05 -53.55 28.55 -49.35 25.3 55.45 25.4" fill="#223033" fill-rule="evenodd" stroke="none"/>
      <path d="M40.7 -31.45 L41.45 -31.3 57.65 28.05 56.9 28.05 40.7 -31.45" fill="#385154" fill-rule="evenodd" stroke="none"/>
      <path d="M57.95 29.05 L-51.7 29.9 -53.55 28.6 57.45 27.7 57.95 29.05" fill="#385154" fill-rule="evenodd" stroke="none"/>
      <path d="M40.3 -31.45 L41.3 -29.15 -38.05 -29.15 -40.05 -31.45 40.3 -31.45" fill="#1a282b" fill-rule="evenodd" stroke="none"/>
    </g>
    <linearGradient gradientTransform="matrix(0.091, 0.0, 0.0, -0.091, 0.0, 0.05)" gradientUnits="userSpaceOnUse" id="gradient0" spreadMethod="pad" x1="-819.2" x2="819.2">
      <stop offset="0.08627450980392157" stop-color="#000000" stop-opacity="0.32941177"/>
      <stop offset="0.22745098039215686" stop-color="#000000" stop-opacity="0.32941177"/>
    </linearGradient>
    <linearGradient gradientTransform="matrix(0.0, -0.0067, -0.0067, 0.0, 0.0, 41.0)" gradientUnits="userSpaceOnUse" id="gradient1" spreadMethod="pad" x1="-819.2" x2="819.2">
      <stop offset="0.0" stop-color="#ffffff" stop-opacity="0.5137255"/>
      <stop offset="0.6549019607843137" stop-color="#ffffff" stop-opacity="0.1764706"/>
    </linearGradient>
    <linearGradient gradientTransform="matrix(0.0721, 0.0, 0.0, -0.0721, -10.05, -0.7)" gradientUnits="userSpaceOnUse" id="gradient2" spreadMethod="pad" x1="-819.2" x2="819.2">
      <stop offset="0.08627450980392157" stop-color="#000000" stop-opacity="0.32941177"/>
      <stop offset="0.22745098039215686" stop-color="#000000" stop-opacity="0.32941177"/>
    </linearGradient>
    <g id="shape1" transform="matrix(1.0, 0.0, 0.0, 1.0, 20.7, 21.6)">
      <path d="M13.2 -21.6 Q15.9 -20.0 18.35 -17.65 L19.65 -16.3 19.65 16.4 18.35 17.7 16.5 19.35 -16.45 19.35 -18.35 17.7 -20.7 15.15 -20.7 -15.1 -18.35 -17.65 Q-15.9 -20.0 -13.15 -21.6 L13.2 -21.6" fill="url(#gradient3)" fill-rule="evenodd" stroke="none"/>
    </g>
    <radialGradient cx="0" cy="0" gradientTransform="matrix(-0.0412, 0.0, 0.0, -0.0433, 0.0, 0.0)" gradientUnits="userSpaceOnUse" id="gradient3" r="819.2" spreadMethod="pad">
      <stop offset="0.0" stop-color="#caffff" stop-opacity="0.84705883"/>
      <stop offset="0.26666666666666666" stop-color="#bef0f0" stop-opacity="0.4"/>
      <stop offset="0.592156862745098" stop-color="#b7e6e6" stop-opacity="0.09411765"/>
      <stop offset="1.0" stop-color="#b4e3e3" stop-opacity="0.0"/>
    </radialGradient>
    <g id="shape2" transform="matrix(1.0, 0.0, 0.0, 1.0, -75.65, -14.85)">
      <path d="M115.1 32.85 Q115.95 41.15 110.85 47.6 105.75 54.1 97.6 54.95 89.45 55.8 83.05 50.6 76.65 45.35 75.8 37.1 74.9 28.8 80.05 22.35 85.15 15.85 93.3 15.0 101.45 14.1 107.8 19.35 114.2 24.55 115.1 32.85" fill="#6c91a8" fill-rule="evenodd" stroke="none"/>
    </g>
    <g id="shape3" transform="matrix(1.0, 0.0, 0.0, 1.0, 20.7, 21.95)">
      <path d="M19.1 -3.3 Q19.95 5.0 14.85 11.45 9.75 17.95 1.6 18.8 -6.55 19.65 -12.95 14.45 -19.35 9.2 -20.2 0.95 -21.1 -7.35 -15.95 -13.8 -10.85 -20.3 -2.7 -21.15 5.45 -22.05 11.8 -16.8 18.2 -11.6 19.1 -3.3" fill="#6c91a8" fill-rule="evenodd" stroke="none"/>
      <path d="M8.35 -3.25 Q8.5 -3.9 8.95 -4.1 L10.4 -3.25 11.4 -3.9 Q11.85 -4.25 12.95 -3.35 L12.3 -2.8 Q11.8 -2.2 12.35 -2.2 13.05 -2.15 12.9 -1.65 12.75 -1.1 11.8 -1.0 11.75 -0.15 11.05 -0.15 10.3 -0.15 9.6 -1.35 9.45 -1.65 9.0 -1.1 L8.15 -0.35 Q7.8 -0.3 7.6 -0.85 L7.45 -1.75 Q7.4 -2.05 7.85 -2.35 L8.3 -2.6 8.35 -3.25 M1.8 -15.15 L2.35 -14.3 Q2.7 -13.05 1.85 -12.75 L1.4 -12.6 Q1.35 -11.7 4.3 -9.45 L4.3 -9.5 Q6.15 -8.1 6.2 -7.25 6.35 -6.2 4.3 -6.0 L1.5 -5.5 1.55 -4.5 1.6 -4.45 1.55 -3.8 1.85 -2.75 2.2 -1.85 2.25 -1.8 2.45 -0.85 2.5 -0.55 2.75 -0.2 2.95 0.3 4.0 2.2 3.45 3.45 3.4 3.65 3.2 4.05 3.0 4.2 2.1 4.5 1.3 4.35 0.65 3.9 -0.3 3.55 -1.6 2.95 Q-2.25 2.6 -1.75 1.5 L-0.95 -0.1 -3.5 0.05 -7.6 1.0 Q-8.6 1.2 -9.4 0.55 L-10.75 -0.25 Q-11.35 -0.4 -11.75 0.4 L-12.0 0.95 Q-12.4 2.1 -12.25 2.95 -12.2 3.5 -13.1 3.25 L-14.8 2.7 Q-15.35 2.55 -15.8 1.55 L-16.55 0.25 Q-16.8 0.05 -17.8 0.65 L-19.25 0.75 Q-20.15 -0.35 -17.7 -2.3 -17.25 -2.6 -18.2 -3.0 -19.4 -3.55 -19.5 -3.75 -19.75 -4.15 -19.0 -4.5 L-17.5 -5.25 Q-16.85 -5.65 -17.7 -7.05 L-19.35 -9.25 Q-20.05 -10.2 -20.45 -10.4 L-20.7 -10.45 -20.7 -16.85 -20.15 -16.8 Q-18.6 -17.05 -18.15 -18.25 L-15.95 -19.85 -14.35 -19.6 -14.3 -19.6 -12.75 -19.2 -12.65 -19.2 -12.55 -19.15 -12.0 -19.0 -10.95 -18.95 -7.9 -19.25 Q-7.1 -19.35 -6.75 -18.65 L-6.3 -18.45 -4.9 -18.2 -4.85 -18.25 -3.55 -18.45 Q-2.25 -18.8 -1.35 -18.0 L0.4 -16.7 1.55 -15.45 1.7 -15.2 1.8 -15.15 M7.45 -21.6 Q6.65 -21.15 6.2 -20.45 L6.2 -20.5 5.9 -19.8 Q5.85 -19.3 5.45 -18.9 5.15 -18.7 4.85 -18.6 L3.95 -18.3 3.9 -18.3 2.35 -18.15 0.9 -18.4 0.9 -18.45 0.35 -18.8 -0.35 -19.0 -0.85 -19.25 -1.3 -19.45 -1.3 -19.4 -2.1 -19.75 -2.85 -20.05 Q-3.2 -20.4 -3.65 -20.5 L-4.25 -20.65 -4.2 -20.7 -6.7 -20.8 -8.0 -20.75 -11.3 -21.4 -11.7 -21.6 7.45 -21.6 M15.2 -21.25 Q16.6 -21.15 18.05 -20.1 19.1 -19.35 19.65 -19.25 L19.65 -12.8 19.6 -12.85 Q19.0 -13.1 17.85 -12.55 16.85 -12.15 17.4 -10.7 17.95 -9.3 17.75 -9.2 17.25 -8.9 15.85 -9.7 14.45 -10.5 14.0 -11.25 13.65 -11.8 14.65 -12.85 15.55 -13.85 15.1 -14.15 14.5 -14.4 13.7 -13.65 L12.4 -12.5 Q12.0 -12.35 11.45 -12.75 10.8 -13.25 10.0 -13.25 9.2 -13.2 8.8 -12.2 8.3 -10.95 7.5 -10.6 6.45 -10.15 5.9 -11.4 L5.6 -12.75 6.8 -15.4 9.2 -17.75 Q11.8 -20.05 15.2 -21.25 M6.95 -2.25 Q7.2 -2.1 6.7 -0.95 5.3 2.1 4.65 1.15 4.8 1.35 4.75 -0.05 L5.3 -0.95 Q6.6 -2.45 6.95 -2.25 M11.9 8.45 Q12.45 8.4 12.75 8.75 13.05 9.1 12.55 9.45 L10.95 10.15 Q9.9 10.6 9.9 10.9 9.95 11.4 8.65 12.35 L8.55 12.2 7.85 12.8 6.5 13.85 5.9 14.25 3.85 14.5 3.0 14.65 1.95 14.7 Q2.15 14.45 2.5 14.3 L3.3 13.7 3.45 13.05 3.3 11.35 Q3.25 10.95 3.5 10.9 4.25 10.75 4.35 10.0 4.25 9.45 4.75 9.2 L5.35 8.95 5.65 8.9 5.6 8.85 Q6.55 8.3 8.2 8.5 L8.45 8.0 Q8.85 7.5 9.6 7.7 10.85 8.0 12.0 6.5 L11.7 7.5 Q11.5 8.45 11.9 8.45 M12.6 2.3 Q13.75 2.5 14.0 4.55 14.05 5.3 13.75 5.45 L12.5 5.35 Q11.8 5.15 11.55 5.6 L11.45 6.1 9.3 5.45 8.1 6.15 Q7.2 6.8 6.35 6.0 5.3 5.05 6.3 3.05 7.2 1.2 8.1 1.0 10.0 0.55 11.2 1.3 L12.6 2.3 M19.65 3.65 L19.65 6.0 Q19.15 6.8 18.05 6.65 L17.7 6.35 Q17.4 5.85 17.6 5.3 17.75 4.65 18.7 4.05 L19.6 3.55 19.65 3.65 M19.05 1.95 Q19.3 2.4 19.15 2.9 18.9 3.35 18.55 3.35 L17.6 3.3 Q17.3 3.3 16.35 3.7 L15.05 3.8 Q14.5 3.5 15.05 3.15 L15.8 2.45 15.7 1.3 Q15.55 0.55 15.9 0.35 L16.85 0.85 18.3 1.35 Q18.75 1.45 19.05 1.95 M12.45 11.65 Q13.35 12.0 12.85 12.6 12.45 13.15 11.55 12.95 L10.35 12.7 11.15 12.05 Q11.95 11.45 12.45 11.65 M-20.7 6.15 L-20.45 6.0 Q-19.85 7.3 -20.3 8.25 L-20.7 8.8 -20.7 6.15 M-20.7 19.35 L-20.7 19.15 -20.1 19.35 -20.7 19.35 M-4.6 3.7 Q-4.3 4.55 -3.7 4.8 -2.45 5.2 -1.45 5.75 L-1.25 6.45 Q-1.25 7.15 -2.15 7.0 -2.95 6.9 -3.6 7.7 L-4.75 9.0 -6.0 8.9 -7.0 8.05 Q-7.35 7.9 -7.7 8.5 L-8.55 9.45 Q-9.65 9.9 -10.35 8.15 -10.65 7.65 -9.9 6.6 L-8.55 5.15 Q-8.25 4.85 -8.1 3.85 -8.0 2.9 -7.4 2.65 L-6.7 2.85 -5.35 3.0 Q-4.9 2.95 -4.6 3.7 M0.7 15.15 L0.6 15.15 0.25 15.25 -0.1 15.25 -0.25 15.25 -0.35 15.25 -0.4 15.15 -0.4 15.05 Q-0.35 14.95 -0.3 15.0 L-0.15 15.0 0.2 15.0 0.45 14.9 0.55 14.9 0.55 14.85 0.6 14.85 1.3 14.75 1.35 14.75 1.4 14.85 1.35 14.95 1.3 15.0 0.7 15.15 M6.45 18.35 L9.65 18.05 11.7 18.2 Q12.5 18.05 13.4 18.45 L13.45 18.45 14.1 18.6 15.9 18.5 16.25 18.3 16.2 17.5 Q16.1 17.05 16.25 16.75 L16.2 16.75 16.3 16.65 16.35 16.45 16.4 16.35 16.5 16.35 16.55 16.35 Q17.05 15.9 18.35 16.35 L19.65 16.8 19.65 19.35 -16.75 19.35 -17.0 18.15 -17.05 17.0 -15.95 16.9 Q-14.8 17.15 -14.35 16.9 -13.55 16.35 -15.75 15.0 L-15.0 14.35 -13.25 13.4 Q-12.1 13.1 -10.95 14.05 L-10.15 14.8 -8.9 15.6 Q-7.9 15.85 -6.85 15.6 -6.6 15.45 -6.2 15.6 L-6.15 15.55 -6.05 15.55 -5.85 15.6 -3.25 15.4 -3.2 15.4 -2.35 15.6 Q-2.2 15.6 -1.8 15.95 L-1.8 16.0 -0.4 17.05 0.6 17.7 0.6 17.8 1.5 18.2 2.4 18.55 3.1 18.65 6.45 18.35" fill="#72d6db" fill-rule="evenodd" stroke="none"/>
      <path d="M17.7 7.15 L0.85 6.5 Q-4.1 6.9 -9.15 8.55 L-16.3 11.15 -16.9 10.4 Q-6.5 6.3 1.85 5.75 L17.8 6.4 17.7 7.15" fill="#caffff" fill-rule="evenodd" stroke="none"/>
      <path d="M14.75 -14.1 Q6.9 -17.15 -1.3 -16.35 -7.0 -15.75 -11.55 -14.05 L-18.05 -10.9 -17.25 -12.1 Q-8.35 -16.55 -1.05 -17.1 5.5 -17.65 14.0 -14.95 L14.75 -14.1 M-13.15 17.75 Q-4.65 14.6 2.3 14.1 9.25 13.55 18.0 14.95 L18.45 15.75 Q10.95 14.3 4.1 14.9 L-5.35 16.2 -13.55 18.7 -13.15 17.75" fill="#caffff" fill-rule="evenodd" stroke="none"/>
      <path d="M19.4 -4.75 Q9.3 -6.6 -0.6 -5.75 -6.95 -5.25 -13.0 -3.15 -16.3 -2.0 -20.6 0.05 L-20.7 -0.75 Q-9.45 -6.1 0.1 -6.8 8.2 -7.35 19.0 -5.55 L19.2 -5.2 19.4 -4.75" fill="#caffff" fill-rule="evenodd" stroke="none"/>
      <path d="M-2.35 -21.6 Q1.05 -18.15 3.45 -1.25 5.4 15.75 2.6 19.35" fill="none" stroke="#caffff" stroke-linecap="round" stroke-linejoin="round" stroke-width="0.75"/>
      <path d="M-1.05 -21.6 Q8.3 -19.25 11.65 -2.9 13.6 15.2 3.35 19.35" fill="none" stroke="#caffff" stroke-linecap="round" stroke-linejoin="round" stroke-width="0.75"/>
      <path d="M1.2 -21.6 Q13.7 -19.6 17.55 -4.1 19.45 14.75 3.75 19.35" fill="none" stroke="#caffff" stroke-linecap="round" stroke-linejoin="round" stroke-width="0.75"/>
      <path d="M-4.0 -21.6 Q-21.25 -17.25 -19.5 2.65 -15.7 17.05 -4.1 19.35" fill="none" stroke="#caffff" stroke-linecap="round" stroke-linejoin="round" stroke-width="0.75"/>
      <path d="M-3.65 -21.6 Q-15.85 -17.35 -14.05 1.75 -10.65 17.05 -1.2 19.35" fill="none" stroke="#caffff" stroke-linecap="round" stroke-linejoin="round" stroke-width="0.75"/>
      <path d="M-3.1 -21.6 Q-8.2 -17.45 -6.25 0.5 -3.6 16.7 1.2 19.35" fill="none" stroke="#caffff" stroke-linecap="round" stroke-linejoin="round" stroke-width="0.75"/>
    </g>
    <g id="shape4" transform="matrix(1.0, 0.0, 0.0, 1.0, 43.35, 30.8)">
      <path d="M-3.35 -19.8 L-35.7 -19.8 -35.7 -26.45 -3.35 -26.45 -3.35 -19.8" fill="#caffff" fill-rule="evenodd" stroke="none"/>
      <path d="M-1.95 -28.75 Q5.15 -26.7 5.15 -23.8 5.15 -20.9 -1.95 -18.85 -9.05 -16.8 -19.1 -16.8 -29.15 -16.8 -36.25 -18.85 -43.35 -20.9 -43.35 -23.8 -43.35 -26.7 -36.25 -28.75 -29.15 -30.8 -19.1 -30.8 -9.05 -30.8 -1.95 -28.75" fill="url(#gradient4)" fill-rule="evenodd" stroke="none"/>
    </g>
    <radialGradient cx="0" cy="0" gradientTransform="matrix(0.0, 0.0086, -0.0363, 0.0, -19.1, -23.8)" gradientUnits="userSpaceOnUse" id="gradient4" r="819.2" spreadMethod="pad">
      <stop offset="0.0" stop-color="#caffff" stop-opacity="0.84705883"/>
      <stop offset="0.26666666666666666" stop-color="#bef0f0" stop-opacity="0.4"/>
      <stop offset="0.592156862745098" stop-color="#b7e6e6" stop-opacity="0.09411765"/>
      <stop offset="1.0" stop-color="#b4e3e3" stop-opacity="0.0"/>
    </radialGradient>
    <g id="shape5" transform="matrix(1.0, 0.0, 0.0, 1.0, 12.8, 2.2)">
      <path d="M9.25 1.0 L-9.75 1.0 -9.75 -0.7 9.25 -0.7 9.25 1.0" fill="#b9e07c" fill-rule="evenodd" stroke="none"/>
      <path d="M9.0 -1.55 Q12.75 -0.9 12.75 0.0 12.75 0.9 9.0 1.55 L-0.05 2.2 -9.05 1.55 Q-12.8 0.9 -12.8 0.0 -12.8 -0.9 -9.05 -1.55 L-0.05 -2.2 9.0 -1.55" fill="url(#gradient5)" fill-rule="evenodd" stroke="none"/>
    </g>
    <radialGradient cx="0" cy="0" gradientTransform="matrix(0.0421, 0.0, 0.0, -0.0088, -0.05, 0.0)" gradientUnits="userSpaceOnUse" id="gradient5" r="819.2" spreadMethod="pad">
      <stop offset="0.0" stop-color="#b9e07c" stop-opacity="0.49803922"/>
      <stop offset="0.058823529411764705" stop-color="#a4c56f" stop-opacity="0.42745098"/>
      <stop offset="0.16862745098039217" stop-color="#829a5a" stop-opacity="0.3137255"/>
      <stop offset="0.28627450980392155" stop-color="#657448" stop-opacity="0.21568628"/>
      <stop offset="0.40784313725490196" stop-color="#4d553a" stop-opacity="0.13725491"/>
      <stop offset="0.5333333333333333" stop-color="#3a3d2e" stop-opacity="0.07450981"/>
      <stop offset="0.6666666666666666" stop-color="#2d2c26" stop-opacity="0.03137255"/>
      <stop offset="0.8117647058823529" stop-color="#252222" stop-opacity="0.007843138"/>
      <stop offset="0.9921568627450981" stop-color="#231f20" stop-opacity="0.0"/>
    </radialGradient>
    <g id="shape6" transform="matrix(1.0, 0.0, 0.0, 1.0, 12.7, 2.95)">
      <path d="M9.2 0.8 L-9.8 0.8 -9.8 -0.4 9.2 -0.4 9.2 0.8" fill="#caffff" fill-rule="evenodd" stroke="none"/>
      <path d="M-0.05 2.9 L-9.0 2.05 Q-12.7 1.2 -12.7 -0.05 -12.7 -1.25 -9.0 -2.1 L-0.05 -2.95 8.95 -2.1 Q12.65 -1.25 12.65 -0.05 12.65 1.2 8.95 2.05 L-0.05 2.9" fill="url(#gradient6)" fill-rule="evenodd" stroke="none"/>
    </g>
    <radialGradient cx="0" cy="0" gradientTransform="matrix(0.0, 0.0036, -0.019, 0.0, -0.05, -0.05)" gradientUnits="userSpaceOnUse" id="gradient6" r="819.2" spreadMethod="pad">
      <stop offset="0.0" stop-color="#caffff" stop-opacity="0.84705883"/>
      <stop offset="0.26666666666666666" stop-color="#bef0f0" stop-opacity="0.4"/>
      <stop offset="0.592156862745098" stop-color="#b7e6e6" stop-opacity="0.09411765"/>
      <stop offset="1.0" stop-color="#b4e3e3" stop-opacity="0.0"/>
    </radialGradient>
    <g id="shape7" transform="matrix(1.0, 0.0, 0.0, 1.0, 12.2, 1.5)">
      <path d="M9.45 0.3 L-9.55 0.3 -9.55 -0.5 9.45 -0.5 9.45 0.3" fill="#ffb052" fill-rule="evenodd" stroke="none"/>
      <path d="M-0.05 1.5 L-8.65 1.05 Q-12.2 0.65 -12.2 0.0 -12.2 -0.6 -8.65 -1.05 L-0.05 -1.5 8.6 -1.05 Q12.15 -0.6 12.15 0.0 12.15 0.65 8.6 1.05 L-0.05 1.5" fill="url(#gradient7)" fill-rule="evenodd" stroke="none"/>
    </g>
    <radialGradient cx="0" cy="0" gradientTransform="matrix(0.0, 0.005, 0.0489, 0.0, -0.05, 0.0)" gradientUnits="userSpaceOnUse" id="gradient7" r="819.2" spreadMethod="pad">
      <stop offset="0.0" stop-color="#ffb966" stop-opacity="0.49803922"/>
      <stop offset="0.00392156862745098" stop-color="#fdb765" stop-opacity="0.49411765"/>
      <stop offset="0.10588235294117647" stop-color="#ca9455" stop-opacity="0.3764706"/>
      <stop offset="0.21176470588235294" stop-color="#9e7547" stop-opacity="0.2784314"/>
      <stop offset="0.3254901960784314" stop-color="#785a3b" stop-opacity="0.19215687"/>
      <stop offset="0.4392156862745098" stop-color="#594531" stop-opacity="0.12156863"/>
      <stop offset="0.5568627450980392" stop-color="#41342a" stop-opacity="0.06666667"/>
      <stop offset="0.6823529411764706" stop-color="#302824" stop-opacity="0.02745098"/>
      <stop offset="0.8196078431372549" stop-color="#262121" stop-opacity="0.003921569"/>
      <stop offset="0.9921568627450981" stop-color="#231f20" stop-opacity="0.0"/>
    </radialGradient>
    <g id="shape8" transform="matrix(1.0, 0.0, 0.0, 1.0, 13.1, 2.35)">
      <path d="M9.65 0.85 L-9.35 0.85 -9.35 -0.7 9.65 -0.7 9.65 0.85" fill="#ffe783" fill-rule="evenodd" stroke="none"/>
      <path d="M0.0 2.35 L-9.25 1.65 Q-13.1 1.0 -13.1 0.0 -13.1 -0.95 -9.25 -1.65 L0.0 -2.35 9.25 -1.65 Q13.1 -0.95 13.1 0.0 13.1 1.0 9.25 1.65 L0.0 2.35" fill="url(#gradient8)" fill-rule="evenodd" stroke="none"/>
    </g>
    <radialGradient cx="0" cy="0" gradientTransform="matrix(0.0, 0.0055, 0.0373, 0.0, 0.0, 0.0)" gradientUnits="userSpaceOnUse" id="gradient8" r="819.2" spreadMethod="pad">
      <stop offset="0.03529411764705882" stop-color="#fff3c0" stop-opacity="0.49803922"/>
      <stop offset="0.0392156862745098" stop-color="#fdf1be" stop-opacity="0.49411765"/>
      <stop offset="0.13725490196078433" stop-color="#cac09a" stop-opacity="0.3764706"/>
      <stop offset="0.23921568627450981" stop-color="#9e9579" stop-opacity="0.2784314"/>
      <stop offset="0.34509803921568627" stop-color="#78715e" stop-opacity="0.19215687"/>
      <stop offset="0.4588235294117647" stop-color="#595347" stop-opacity="0.12156863"/>
      <stop offset="0.5725490196078431" stop-color="#413c36" stop-opacity="0.06666667"/>
      <stop offset="0.6941176470588235" stop-color="#302c2a" stop-opacity="0.02745098"/>
      <stop offset="0.8274509803921568" stop-color="#262222" stop-opacity="0.003921569"/>
      <stop offset="0.9921568627450981" stop-color="#231f20" stop-opacity="0.0"/>
    </radialGradient>
    <g id="shape9" transform="matrix(1.0, 0.0, 0.0, 1.0, 14.35, 2.95)">
      <path d="M9.25 0.8 L-9.75 0.8 -9.75 -0.4 9.25 -0.4 9.25 0.8" fill="#caffff" fill-rule="evenodd" stroke="none"/>
      <path d="M0.0 2.9 L-10.15 2.05 Q-14.35 1.2 -14.35 -0.05 -14.35 -1.25 -10.15 -2.1 L0.0 -2.95 10.15 -2.1 Q14.35 -1.25 14.35 -0.05 14.35 1.2 10.15 2.05 L0.0 2.9" fill="url(#gradient9)" fill-rule="evenodd" stroke="none"/>
    </g>
    <radialGradient cx="0" cy="0" gradientTransform="matrix(0.0, 0.0036, -0.0215, 0.0, 0.0, -0.05)" gradientUnits="userSpaceOnUse" id="gradient9" r="819.2" spreadMethod="pad">
      <stop offset="0.0" stop-color="#caffff" stop-opacity="0.84705883"/>
      <stop offset="0.26666666666666666" stop-color="#bef0f0" stop-opacity="0.4"/>
      <stop offset="0.592156862745098" stop-color="#b7e6e6" stop-opacity="0.09411765"/>
      <stop offset="1.0" stop-color="#b4e3e3" stop-opacity="0.0"/>
    </radialGradient>
    <g id="shape10" transform="matrix(1.0, 0.0, 0.0, 1.0, 3.5, 13.35)">
      <path d="M1.45 10.0 L-1.5 10.0 -1.5 -9.25 1.45 -9.25 1.45 10.0" fill="#caffff" fill-rule="evenodd" stroke="none"/>
      <path d="M0.0 13.35 Q-1.45 13.35 -2.5 9.45 -3.5 5.55 -3.5 0.0 -3.5 -5.55 -2.5 -9.45 -1.45 -13.35 0.0 -13.35 1.45 -13.35 2.45 -9.45 3.5 -5.5 3.5 0.0 3.5 5.5 2.45 9.45 1.45 13.35 0.0 13.35" fill="url(#gradient10)" fill-rule="evenodd" stroke="none"/>
    </g>
    <radialGradient cx="0" cy="0" gradientTransform="matrix(0.0, 0.0164, -0.0052, 0.0, 0.0, 0.0)" gradientUnits="userSpaceOnUse" id="gradient10" r="819.2" spreadMethod="pad">
      <stop offset="0.0" stop-color="#caffff" stop-opacity="0.84705883"/>
      <stop offset="0.26666666666666666" stop-color="#bef0f0" stop-opacity="0.4"/>
      <stop offset="0.592156862745098" stop-color="#b7e6e6" stop-opacity="0.09411765"/>
      <stop offset="1.0" stop-color="#b4e3e3" stop-opacity="0.0"/>
    </radialGradient>
    <g id="shape11" transform="matrix(1.0, 0.0, 0.0, 1.0, 3.1, 10.15)">
      <path d="M1.55 7.65 L-1.1 7.65 -1.1 -6.3 1.55 -6.3 1.55 7.65" fill="#ffe783" fill-rule="evenodd" stroke="none"/>
      <path d="M3.1 0.0 Q3.1 4.2 2.2 7.2 1.3 10.15 0.0 10.15 -1.3 10.15 -2.2 7.2 -3.1 4.2 -3.1 0.0 -3.1 -4.2 -2.2 -7.15 -1.3 -10.15 0.0 -10.15 1.3 -10.15 2.2 -7.15 3.1 -4.2 3.1 0.0" fill="url(#gradient11)" fill-rule="evenodd" stroke="none"/>
    </g>
    <radialGradient cx="0" cy="0" gradientTransform="matrix(0.0072, 0.0, 0.0, -0.029, 0.0, 0.0)" gradientUnits="userSpaceOnUse" id="gradient11" r="819.2" spreadMethod="pad">
      <stop offset="0.03529411764705882" stop-color="#fff3c0" stop-opacity="0.49803922"/>
      <stop offset="0.0392156862745098" stop-color="#fdf1be" stop-opacity="0.49411765"/>
      <stop offset="0.13725490196078433" stop-color="#cac09a" stop-opacity="0.3764706"/>
      <stop offset="0.23921568627450981" stop-color="#9e9579" stop-opacity="0.2784314"/>
      <stop offset="0.34509803921568627" stop-color="#78715e" stop-opacity="0.19215687"/>
      <stop offset="0.4588235294117647" stop-color="#595347" stop-opacity="0.12156863"/>
      <stop offset="0.5725490196078431" stop-color="#413c36" stop-opacity="0.06666667"/>
      <stop offset="0.6941176470588235" stop-color="#302c2a" stop-opacity="0.02745098"/>
      <stop offset="0.8274509803921568" stop-color="#262222" stop-opacity="0.003921569"/>
      <stop offset="0.9921568627450981" stop-color="#231f20" stop-opacity="0.0"/>
    </radialGradient>
    <g id="shape12" transform="matrix(1.0, 0.0, 0.0, 1.0, 2.85, 14.85)">
      <path d="M0.85 12.85 L-1.15 12.85 -1.15 -10.7 0.85 -10.7 0.85 12.85" fill="#ffb052" fill-rule="evenodd" stroke="none"/>
      <path d="M2.8 0.0 Q2.8 6.15 2.0 10.5 1.15 14.85 0.0 14.85 -1.2 14.85 -2.0 10.5 -2.85 6.2 -2.85 0.0 -2.85 -6.15 -2.0 -10.5 -1.2 -14.85 0.0 -14.85 1.15 -14.85 2.0 -10.5 2.8 -6.15 2.8 0.0" fill="url(#gradient12)" fill-rule="evenodd" stroke="none"/>
    </g>
    <radialGradient cx="0" cy="0" gradientTransform="matrix(0.0094, 0.0, 0.0, -0.0596, 0.0, 0.0)" gradientUnits="userSpaceOnUse" id="gradient12" r="819.2" spreadMethod="pad">
      <stop offset="0.0" stop-color="#ffb966" stop-opacity="0.49803922"/>
      <stop offset="0.00392156862745098" stop-color="#fdb765" stop-opacity="0.49411765"/>
      <stop offset="0.10588235294117647" stop-color="#ca9455" stop-opacity="0.3764706"/>
      <stop offset="0.21176470588235294" stop-color="#9e7547" stop-opacity="0.2784314"/>
      <stop offset="0.3254901960784314" stop-color="#785a3b" stop-opacity="0.19215687"/>
      <stop offset="0.4392156862745098" stop-color="#594531" stop-opacity="0.12156863"/>
      <stop offset="0.5568627450980392" stop-color="#41342a" stop-opacity="0.06666667"/>
      <stop offset="0.6823529411764706" stop-color="#302824" stop-opacity="0.02745098"/>
      <stop offset="0.8196078431372549" stop-color="#262121" stop-opacity="0.003921569"/>
      <stop offset="0.9921568627450981" stop-color="#231f20" stop-opacity="0.0"/>
    </radialGradient>
    <g id="shape13" transform="matrix(1.0, 0.0, 0.0, 1.0, 2.2, 12.75)">
      <path d="M0.65 11.8 L-1.0 11.8 -1.0 -7.45 0.65 -7.45 0.65 11.8" fill="#b9e07c" fill-rule="evenodd" stroke="none"/>
      <path d="M0.0 -12.75 Q0.9 -12.75 1.55 -9.0 2.15 -5.3 2.15 0.0 2.15 5.3 1.55 9.0 0.9 12.75 0.0 12.75 -0.9 12.75 -1.55 9.0 -2.2 5.25 -2.2 0.0 -2.2 -5.25 -1.55 -9.0 -0.9 -12.75 0.0 -12.75" fill="url(#gradient13)" fill-rule="evenodd" stroke="none"/>
    </g>
    <radialGradient cx="0" cy="0" gradientTransform="matrix(0.0, -0.042, -0.0088, 0.0, 0.0, 0.0)" gradientUnits="userSpaceOnUse" id="gradient13" r="819.2" spreadMethod="pad">
      <stop offset="0.0" stop-color="#b9e07c" stop-opacity="0.49803922"/>
      <stop offset="0.058823529411764705" stop-color="#a4c56f" stop-opacity="0.42745098"/>
      <stop offset="0.16862745098039217" stop-color="#829a5a" stop-opacity="0.3137255"/>
      <stop offset="0.28627450980392155" stop-color="#657448" stop-opacity="0.21568628"/>
      <stop offset="0.40784313725490196" stop-color="#4d553a" stop-opacity="0.13725491"/>
      <stop offset="0.5333333333333333" stop-color="#3a3d2e" stop-opacity="0.07450981"/>
      <stop offset="0.6666666666666666" stop-color="#2d2c26" stop-opacity="0.03137255"/>
      <stop offset="0.8117647058823529" stop-color="#252222" stop-opacity="0.007843138"/>
      <stop offset="0.9921568627450981" stop-color="#231f20" stop-opacity="0.0"/>
    </radialGradient>
    <g id="shape14" transform="matrix(1.0, 0.0, 0.0, 1.0, 2.35, 8.5)">
      <path d="M0.7 6.5 L-0.95 6.5 -0.95 -4.5 0.7 -4.5 0.7 6.5" fill="#ffb052" fill-rule="evenodd" stroke="none"/>
      <path d="M2.3 0.0 Q2.3 3.5 1.6 6.0 0.95 8.5 0.0 8.5 -0.95 8.5 -1.65 6.0 -2.35 3.5 -2.35 0.0 -2.35 -3.5 -1.65 -6.0 -0.95 -8.5 0.0 -8.5 0.95 -8.5 1.6 -6.0 2.3 -3.5 2.3 0.0" fill="url(#gradient14)" fill-rule="evenodd" stroke="none"/>
    </g>
    <radialGradient cx="0" cy="0" gradientTransform="matrix(0.0077, 0.0, 0.0, -0.0341, 0.0, 0.0)" gradientUnits="userSpaceOnUse" id="gradient14" r="819.2" spreadMethod="pad">
      <stop offset="0.0" stop-color="#ffb966" stop-opacity="0.49803922"/>
      <stop offset="0.00392156862745098" stop-color="#fdb765" stop-opacity="0.49411765"/>
      <stop offset="0.10588235294117647" stop-color="#ca9455" stop-opacity="0.3764706"/>
      <stop offset="0.21176470588235294" stop-color="#9e7547" stop-opacity="0.2784314"/>
      <stop offset="0.3254901960784314" stop-color="#785a3b" stop-opacity="0.19215687"/>
      <stop offset="0.4392156862745098" stop-color="#594531" stop-opacity="0.12156863"/>
      <stop offset="0.5568627450980392" stop-color="#41342a" stop-opacity="0.06666667"/>
      <stop offset="0.6823529411764706" stop-color="#302824" stop-opacity="0.02745098"/>
      <stop offset="0.8196078431372549" stop-color="#262121" stop-opacity="0.003921569"/>
      <stop offset="0.9921568627450981" stop-color="#231f20" stop-opacity="0.0"/>
    </radialGradient>
    <g id="shape15" transform="matrix(1.0, 0.0, 0.0, 1.0, 6.4, 6.5)">
      <path d="M-0.1 5.95 Q2.25 5.95 3.95 4.2 5.6 2.45 5.6 0.0 5.6 -2.45 3.95 -4.15 2.25 -5.9 -0.1 -5.9 -2.45 -5.9 -4.15 -4.15 -5.8 -2.45 -5.8 0.0 -5.8 2.45 -4.15 4.2 -2.45 5.95 -0.1 5.95 M4.45 -4.6 Q6.35 -2.7 6.35 0.0 6.35 2.7 4.45 4.65 2.6 6.55 -0.05 6.55 -2.65 6.55 -4.55 4.65 -6.4 2.7 -6.4 0.0 -6.4 -2.7 -4.55 -4.6 -2.7 -6.5 -0.05 -6.5 2.6 -6.5 4.45 -4.6" fill="#caffff" fill-opacity="0.6" fill-rule="evenodd" stroke="none"/>
    </g>
    <g id="shape16" transform="matrix(1.0, 0.0, 0.0, 1.0, 8.55, 8.5)">
      <path d="M-6.05 -6.0 Q-3.55 -8.5 0.0 -8.5 3.55 -8.5 6.1 -6.0 8.6 -3.5 8.6 0.0 8.6 3.55 6.1 6.0 3.55 8.5 0.0 8.5 -3.55 8.5 -6.05 6.0 -8.55 3.5 -8.55 0.0 -8.55 -3.5 -6.05 -6.0" fill="url(#gradient15)" fill-rule="evenodd" stroke="none"/>
    </g>
    <radialGradient cx="0" cy="0" gradientTransform="matrix(0.0, 0.0104, -0.0128, 0.0, 0.0, 0.0)" gradientUnits="userSpaceOnUse" id="gradient15" r="819.2" spreadMethod="pad">
      <stop offset="0.0" stop-color="#caffff" stop-opacity="0.84705883"/>
      <stop offset="0.26666666666666666" stop-color="#bef0f0" stop-opacity="0.4"/>
      <stop offset="0.592156862745098" stop-color="#b7e6e6" stop-opacity="0.09411765"/>
      <stop offset="1.0" stop-color="#b4e3e3" stop-opacity="0.0"/>
    </radialGradient>
    <g id="shape17" transform="matrix(1.0, 0.0, 0.0, 1.0, 53.55, 31.65)">
      <path d="M46.65 22.45 L-15.35 22.45 -15.35 21.3 46.65 21.3 46.65 22.45" fill="#ffe783" fill-rule="evenodd" stroke="none"/>
      <path d="M41.05 24.95 L15.4 26.05 -10.3 24.95 Q-20.95 23.85 -20.95 22.25 -20.95 20.65 -10.3 19.5 L15.4 18.4 41.05 19.5 Q51.7 20.65 51.7 22.25 51.7 23.85 41.05 24.95" fill="url(#gradient16)" fill-rule="evenodd" stroke="none"/>
      <path d="M46.65 17.5 L46.65 18.9 -15.35 18.9 -15.35 17.5 46.65 17.5" fill="#b9e07c" fill-rule="evenodd" stroke="none"/>
      <path d="M52.8 18.05 Q52.8 18.95 42.25 19.6 31.8 20.2 16.85 20.2 1.9 20.2 -8.6 19.6 -19.15 18.95 -19.15 18.05 -19.15 17.1 -8.6 16.5 1.85 15.85 16.85 15.85 31.85 15.85 42.25 16.5 52.8 17.1 52.8 18.05" fill="url(#gradient17)" fill-rule="evenodd" stroke="none"/>
      <path d="M55.45 25.4 L-50.55 25.4 -37.45 -31.45 40.7 -31.45 55.45 25.4" fill="url(#gradient18)" fill-rule="evenodd" stroke="none"/>
      <path d="M56.9 27.9 L-53.55 28.4 -40.05 -31.65 40.3 -31.65 56.9 27.9" fill="url(#gradient19)" fill-rule="evenodd" stroke="none"/>
    </g>
    <radialGradient cx="0" cy="0" gradientTransform="matrix(0.0, 0.009, 0.1037, 0.0, 15.4, 22.25)" gradientUnits="userSpaceOnUse" id="gradient16" r="819.2" spreadMethod="pad">
      <stop offset="0.03529411764705882" stop-color="#fff3c0" stop-opacity="0.49803922"/>
      <stop offset="0.0392156862745098" stop-color="#fdf1be" stop-opacity="0.49411765"/>
      <stop offset="0.13725490196078433" stop-color="#cac09a" stop-opacity="0.3764706"/>
      <stop offset="0.23921568627450981" stop-color="#9e9579" stop-opacity="0.2784314"/>
      <stop offset="0.34509803921568627" stop-color="#78715e" stop-opacity="0.19215687"/>
      <stop offset="0.4588235294117647" stop-color="#595347" stop-opacity="0.12156863"/>
      <stop offset="0.5725490196078431" stop-color="#413c36" stop-opacity="0.06666667"/>
      <stop offset="0.6941176470588235" stop-color="#302c2a" stop-opacity="0.02745098"/>
      <stop offset="0.8274509803921568" stop-color="#262222" stop-opacity="0.003921569"/>
      <stop offset="0.9921568627450981" stop-color="#231f20" stop-opacity="0.0"/>
    </radialGradient>
    <radialGradient cx="0" cy="0" gradientTransform="matrix(0.1185, 0.0, 0.0, -0.0088, 16.85, 18.05)" gradientUnits="userSpaceOnUse" id="gradient17" r="819.2" spreadMethod="pad">
      <stop offset="0.0" stop-color="#b9e07c" stop-opacity="0.49803922"/>
      <stop offset="0.058823529411764705" stop-color="#a4c56f" stop-opacity="0.42745098"/>
      <stop offset="0.16862745098039217" stop-color="#829a5a" stop-opacity="0.3137255"/>
      <stop offset="0.28627450980392155" stop-color="#657448" stop-opacity="0.21568628"/>
      <stop offset="0.40784313725490196" stop-color="#4d553a" stop-opacity="0.13725491"/>
      <stop offset="0.5333333333333333" stop-color="#3a3d2e" stop-opacity="0.07450981"/>
      <stop offset="0.6666666666666666" stop-color="#2d2c26" stop-opacity="0.03137255"/>
      <stop offset="0.8117647058823529" stop-color="#252222" stop-opacity="0.007843138"/>
      <stop offset="0.9921568627450981" stop-color="#231f20" stop-opacity="0.0"/>
    </radialGradient>
    <radialGradient cx="0" cy="0" gradientTransform="matrix(0.0887, 0.0, 0.0, -0.0511, 2.45, -3.05)" gradientUnits="userSpaceOnUse" id="gradient18" r="819.2" spreadMethod="pad">
      <stop offset="0.5725490196078431" stop-color="#130c0e" stop-opacity="0.0"/>
      <stop offset="0.796078431372549" stop-color="#130c0e" stop-opacity="0.6509804"/>
      <stop offset="1.0" stop-color="#130c0e" stop-opacity="0.9490196"/>
    </radialGradient>
    <linearGradient gradientTransform="matrix(0.0674, 0.0, 0.0, -0.0674, 1.65, -1.6)" gradientUnits="userSpaceOnUse" id="gradient19" spreadMethod="pad" x1="-819.2" x2="819.2">
      <stop offset="0.0" stop-color="#e1e1e1" stop-opacity="0.0"/>
      <stop offset="0.30196078431372547" stop-color="#ededed" stop-opacity="0.08627451"/>
      <stop offset="0.49411764705882355" stop-color="#eaeaea" stop-opacity="0.0"/>
      <stop offset="0.7215686274509804" stop-color="#ededed" stop-opacity="0.1764706"/>
      <stop offset="0.9568627450980393" stop-color="#e1e1e1" stop-opacity="0.0"/>
    </linearGradient>
  </defs>
</svg>
