<?xml version="1.0" encoding="UTF-8" standalone="no"?>
<svg xmlns:xlink="http://www.w3.org/1999/xlink" height="51.25px" width="35.85px" xmlns="http://www.w3.org/2000/svg">
  <g transform="matrix(1.0, 0.0, 0.0, 1.0, 0.0, 0.0)">
    <use height="51.25" transform="matrix(1.0, 0.0, 0.0, 1.0, 0.0, 0.0)" width="35.85" xlink:href="#shape0"/>
    <use height="0.0" id="price_tag_pt" transform="matrix(1.0, 0.0, 0.0, 1.0, 17.9, 55.95)" width="0.0" xlink:href="#sprite0"/>
  </g>
  <defs>
    <g id="shape0" transform="matrix(1.0, 0.0, 0.0, 1.0, 0.0, 0.0)">
      <path d="M22.0 2.2 L21.9 2.35 21.9 2.65 22.2 3.15 Q22.35 3.15 22.5 3.3 23.2 3.7 23.2 4.15 L23.55 5.05 24.15 5.5 24.55 5.5 25.45 5.25 25.6 5.2 26.25 7.15 26.35 8.05 Q27.55 13.35 29.4 16.8 31.3 20.25 32.1 24.4 L33.25 30.55 34.0 37.0 Q34.15 39.55 33.55 41.85 L33.45 42.4 33.4 42.6 33.3 42.9 32.2 45.15 31.2 46.35 30.3 47.2 Q28.0 49.0 25.05 49.6 L22.2 49.95 19.45 50.4 20.25 49.3 20.85 47.85 Q26.4 47.4 28.8 45.85 31.2 44.1 31.75 40.15 32.1 36.0 31.75 33.0 31.3 30.1 30.75 28.95 30.3 27.9 29.25 27.9 L28.45 28.15 27.75 28.6 28.95 26.55 29.05 26.4 29.1 26.25 29.1 26.2 29.2 26.05 29.2 25.95 29.4 25.35 29.7 23.4 Q29.7 22.15 29.1 21.25 28.45 20.25 27.45 20.25 L27.0 20.5 26.25 22.35 Q25.35 23.85 23.55 25.0 L19.8 27.25 19.6 27.4 Q18.85 28.0 19.0 29.65 19.05 30.45 19.65 30.85 20.25 31.5 21.85 31.5 23.95 31.5 25.6 30.55 L26.55 29.8 25.6 30.7 24.6 31.2 Q23.2 31.8 21.7 31.8 L21.0 31.8 19.8 31.45 Q18.85 30.9 18.7 29.7 18.45 28.15 19.15 27.4 L19.2 27.4 19.35 27.25 19.5 27.1 23.4 24.6 Q25.3 23.35 26.2 21.75 25.95 21.0 25.35 20.35 24.3 19.35 22.65 19.35 L19.5 19.65 17.4 19.95 18.4 19.8 21.25 19.2 Q22.65 18.85 23.85 18.15 25.45 17.2 26.35 16.0 23.8 18.1 20.7 18.7 L14.25 19.35 9.9 18.55 14.35 18.9 Q20.55 18.9 22.35 15.9 24.6 12.1 23.7 8.25 22.9 4.35 21.45 2.85 20.05 1.35 18.1 1.2 L16.2 1.0 14.7 1.05 13.65 1.2 13.6 1.2 Q13.75 1.15 13.95 1.05 L14.05 1.05 Q15.45 0.45 18.4 0.45 20.35 0.45 22.2 1.5 L22.15 1.75 22.0 2.2 M10.95 11.4 L11.05 11.4 11.1 14.05 10.75 14.2 10.5 14.25 9.6 14.5 10.3 14.25 10.45 14.1 Q11.1 13.35 10.95 11.4 M13.2 14.7 L12.55 14.8 12.1 16.45 Q12.0 17.1 11.2 17.1 L10.65 16.9 10.45 16.7 Q10.65 16.9 10.95 16.9 12.15 16.9 12.3 14.55 L13.2 14.7 M8.85 18.25 L8.8 18.15 8.7 18.1 8.7 17.95 9.6 18.3 8.85 18.25 M15.9 42.6 Q16.15 41.25 16.95 40.75 17.8 40.3 19.8 40.05 L20.25 40.0 20.65 40.0 23.4 39.75 19.3 40.45 18.4 40.6 18.25 40.65 Q17.35 40.75 16.6 42.1 L16.5 42.1 Q15.75 43.5 15.75 45.6 L15.75 46.15 15.75 43.15 15.9 42.6 M4.65 42.7 Q7.2 46.45 10.35 47.4 13.5 48.3 15.7 48.25 L16.05 48.15 16.5 49.3 16.65 49.45 16.75 49.5 17.2 50.2 15.15 49.9 12.7 49.45 12.6 49.45 12.1 49.3 12.0 49.3 Q9.9 48.85 9.0 48.25 L7.5 47.1 6.85 46.5 Q5.4 45.0 4.65 42.7" fill="url(#gradient0)" fill-rule="evenodd" stroke="none"/>
      <path d="M25.6 5.2 L25.45 5.25 24.55 5.5 24.15 5.5 23.55 5.05 23.2 4.15 Q23.2 3.7 22.5 3.3 22.35 3.15 22.2 3.15 L21.9 2.65 21.9 2.35 22.0 2.2 22.45 2.5 23.55 2.95 23.8 3.45 24.1 4.05 Q24.25 4.6 24.9 4.6 L26.25 4.15 26.4 3.9 26.4 4.2 Q26.4 4.8 25.6 5.2 M13.6 1.2 L13.65 1.2 Q12.15 1.75 11.25 2.65 L11.35 2.2 Q11.35 0.6 9.9 0.55 L9.15 0.6 Q9.7 0.0 10.65 0.0 L11.65 0.3 12.3 1.05 12.55 1.35 12.6 1.6 13.2 1.3 13.5 1.2 13.6 1.2" fill="url(#gradient1)" fill-rule="evenodd" stroke="none"/>
      <path d="M26.4 3.9 L26.25 4.15 24.9 4.6 Q24.25 4.6 24.1 4.05 L23.8 3.45 24.6 3.6 Q25.5 3.6 25.5 2.1 L25.3 1.45 24.75 1.0 Q26.25 1.5 26.4 3.9 M9.9 0.55 Q11.35 0.6 11.35 2.2 L11.25 2.65 9.9 4.5 10.0 4.3 9.7 4.35 Q9.25 4.35 8.85 3.9 8.55 3.55 8.5 2.85 8.55 3.1 9.1 3.1 10.65 3.1 10.65 1.75 10.65 0.85 9.9 0.55" fill="url(#gradient2)" fill-rule="evenodd" stroke="none"/>
      <path d="M22.0 2.2 L22.15 1.75 22.2 1.5 Q22.2 1.3 22.5 1.2 23.05 0.85 23.7 0.85 L24.75 1.0 25.3 1.45 25.5 2.1 Q25.5 3.6 24.6 3.6 L23.8 3.45 23.55 2.95 22.45 2.5 22.0 2.2 M13.65 1.2 L14.7 1.05 16.2 1.0 Q18.75 1.5 20.65 3.9 22.6 6.3 21.9 11.25 L21.4 13.45 21.0 14.4 Q19.8 16.6 17.7 17.25 14.1 18.4 12.0 18.4 L9.6 18.3 8.7 17.95 8.1 17.65 8.1 17.35 7.65 16.2 Q7.2 15.55 7.3 14.25 L7.5 11.5 Q7.6 10.05 8.2 8.5 L8.85 6.7 8.85 7.0 8.85 7.15 8.95 7.3 9.25 7.6 9.7 7.65 Q11.05 7.65 11.05 6.55 11.05 5.95 10.65 5.55 10.5 5.25 9.9 5.25 L9.45 5.5 9.3 5.55 9.4 5.5 9.6 5.1 9.9 4.5 11.25 2.65 Q12.15 1.75 13.65 1.2 M19.35 27.25 L19.2 27.4 19.3 27.25 19.35 27.25 M29.1 26.2 L29.1 26.25 29.05 26.4 29.1 26.2 M33.3 42.9 L33.4 42.6 33.45 42.4 33.55 41.85 34.95 42.6 35.2 42.75 35.4 43.65 35.4 44.1 34.2 44.4 Q33.4 44.4 33.15 43.95 L33.15 43.9 33.3 42.9 M17.5 6.55 L17.25 6.0 16.45 5.7 16.35 5.7 15.9 5.65 15.0 5.7 Q14.4 5.85 14.4 6.45 14.4 7.5 15.25 7.65 L15.4 7.9 Q15.9 8.25 16.45 8.25 17.8 8.25 17.8 7.2 17.8 6.75 17.5 6.55 M11.55 9.7 L11.35 9.7 10.5 9.9 Q10.3 9.85 10.3 10.35 L10.35 10.8 10.45 11.05 Q10.6 11.4 10.95 11.4 11.1 13.35 10.45 14.1 L10.3 14.25 9.6 14.5 10.5 14.25 Q10.15 14.8 10.15 15.55 L10.15 15.75 10.15 15.85 10.2 16.45 10.45 16.65 10.45 16.7 10.65 16.9 11.2 17.1 Q12.0 17.1 12.1 16.45 L12.55 14.8 13.2 14.7 13.5 14.65 13.35 14.55 11.65 14.1 Q11.5 13.8 11.5 12.55 11.5 11.8 11.95 11.35 L12.3 10.65 12.25 10.35 12.25 10.3 Q12.25 9.75 11.55 9.7 M8.5 2.85 L8.5 2.65 8.55 1.9 8.95 0.85 9.15 0.6 9.9 0.55 Q10.65 0.85 10.65 1.75 10.65 3.1 9.1 3.1 8.55 3.1 8.5 2.85 M7.75 20.05 L7.5 21.0 7.45 20.95 Q5.95 22.65 5.35 23.7 4.65 24.7 4.8 25.5 4.95 26.25 5.35 26.55 5.7 26.8 5.7 27.4 5.7 28.05 5.35 28.45 4.9 28.8 4.35 28.8 L4.0 28.8 Q3.85 28.15 3.85 27.15 3.85 25.35 5.05 23.55 L7.75 20.05 M2.05 39.75 L3.75 39.4 Q3.55 40.05 3.9 41.25 L4.45 43.05 5.1 44.8 Q5.65 46.3 5.65 47.05 5.65 48.0 4.5 48.45 L3.1 48.6 3.4 47.95 Q4.15 46.5 4.15 44.5 4.15 42.55 3.4 41.1 2.95 39.75 2.05 39.75" fill="url(#gradient3)" fill-rule="evenodd" stroke="none"/>
      <path d="M16.2 1.0 L18.1 1.2 Q20.05 1.35 21.45 2.85 22.9 4.35 23.7 8.25 24.6 12.1 22.35 15.9 20.55 18.9 14.35 18.9 L9.9 18.55 9.6 18.3 12.0 18.4 Q14.1 18.4 17.7 17.25 19.8 16.6 21.0 14.4 L21.4 13.45 21.9 11.25 Q22.6 6.3 20.65 3.9 18.75 1.5 16.2 1.0 M17.4 19.95 L19.5 19.65 22.65 19.35 Q24.3 19.35 25.35 20.35 25.95 21.0 26.2 21.75 25.3 23.35 23.4 24.6 L19.5 27.1 Q21.0 25.5 21.0 24.4 21.0 21.9 15.85 21.1 10.2 20.35 8.85 18.25 9.6 19.05 11.55 19.5 L16.05 19.95 17.4 19.95 M14.95 6.75 L14.95 7.0 14.95 7.15 15.45 7.75 16.3 7.95 Q16.75 7.95 17.2 7.6 L17.55 6.85 17.5 6.55 Q17.8 6.75 17.8 7.2 17.8 8.25 16.45 8.25 15.9 8.25 15.4 7.9 L15.25 7.65 Q14.4 7.5 14.4 6.45 14.4 5.85 15.0 5.7 L15.9 5.65 16.35 5.7 Q15.45 5.7 15.0 6.4 L14.95 6.55 14.95 6.75 M8.95 7.3 L9.4 7.45 Q10.0 7.45 10.35 7.0 L10.65 5.95 10.65 5.55 Q11.05 5.95 11.05 6.55 11.05 7.65 9.7 7.65 L9.25 7.6 8.95 7.3 M11.05 11.4 L11.1 11.4 11.35 11.4 11.8 11.05 12.25 10.35 12.3 10.65 11.95 11.35 Q11.5 11.8 11.5 12.55 11.5 13.8 11.65 14.1 L13.35 14.55 13.5 14.65 13.2 14.7 12.3 14.55 11.1 14.05 11.05 11.4" fill="url(#gradient4)" fill-rule="evenodd" stroke="none"/>
      <path d="M26.55 29.8 L25.6 30.55 Q23.95 31.5 21.85 31.5 20.25 31.5 19.65 30.85 19.05 30.45 19.0 29.65 18.85 28.0 19.6 27.4 L19.8 27.25 23.55 25.0 Q25.35 23.85 26.25 22.35 L27.0 20.5 27.45 20.25 Q28.45 20.25 29.1 21.25 29.7 22.15 29.7 23.4 L29.4 25.35 29.2 25.95 29.2 26.05 29.1 26.2 29.05 26.4 28.95 26.55 27.75 28.6 27.6 28.75 26.65 29.7 26.55 29.8" fill="url(#gradient5)" fill-rule="evenodd" stroke="none"/>
      <path d="M9.9 18.55 L14.25 19.35 20.7 18.7 Q23.8 18.1 26.35 16.0 25.45 17.2 23.85 18.15 22.65 18.85 21.25 19.2 L18.4 19.8 17.4 19.95 16.05 19.95 11.55 19.5 Q9.6 19.05 8.85 18.25 L9.6 18.3 9.9 18.55" fill="url(#gradient6)" fill-rule="evenodd" stroke="none"/>
      <path d="M16.45 5.7 Q16.65 5.95 16.8 6.0 L16.9 6.15 16.95 6.4 16.45 7.05 Q16.05 7.45 15.7 7.45 L15.1 7.15 14.95 6.75 14.95 6.55 15.0 6.4 Q15.45 5.7 16.35 5.7 L16.45 5.7 M15.9 6.1 L15.7 6.15 15.6 6.4 15.7 6.55 15.9 6.6 16.05 6.55 16.15 6.4 16.05 6.15 15.9 6.1 M9.45 5.5 L9.9 5.55 10.05 6.0 Q10.05 6.45 9.7 6.7 L8.95 7.0 8.85 7.0 8.85 6.7 8.85 6.6 9.3 5.55 9.45 5.5 M11.55 9.7 L11.8 10.15 11.35 10.75 10.5 11.05 10.45 11.05 10.35 10.8 10.3 10.35 Q10.3 9.85 10.5 9.9 L11.35 9.7 11.55 9.7 M10.75 9.9 L10.6 10.0 10.5 10.2 10.6 10.35 10.75 10.45 10.95 10.35 11.05 10.2 10.95 10.0 10.75 9.9 M9.45 5.85 L9.3 5.95 9.25 6.0 9.3 6.1 9.45 6.15 9.6 6.1 9.6 5.95 9.45 5.85" fill="#1c0c0c" fill-rule="evenodd" stroke="none"/>
      <path d="M15.9 6.1 L16.05 6.15 16.15 6.4 16.05 6.55 15.9 6.6 15.7 6.55 15.6 6.4 15.7 6.15 15.9 6.1 M10.75 9.9 L10.95 10.0 11.05 10.2 10.95 10.35 10.75 10.45 10.6 10.35 10.5 10.2 10.6 10.0 10.75 9.9 M9.45 5.85 L9.6 5.95 9.6 6.1 9.45 6.15 9.3 6.1 9.25 6.0 9.3 5.95 9.45 5.85" fill="#ffffff" fill-rule="evenodd" stroke="none"/>
      <path d="M16.45 5.7 L17.25 6.0 17.5 6.55 17.55 6.85 17.2 7.6 Q16.75 7.95 16.3 7.95 L15.45 7.75 14.95 7.15 14.95 7.0 14.95 6.75 15.1 7.15 15.7 7.45 Q16.05 7.45 16.45 7.05 L16.95 6.4 16.9 6.15 16.8 6.0 Q16.65 5.95 16.45 5.7 M10.65 5.55 L10.65 5.95 10.35 7.0 Q10.0 7.45 9.4 7.45 L8.95 7.3 8.85 7.15 8.85 7.0 8.95 7.0 9.7 6.7 Q10.05 6.45 10.05 6.0 L9.9 5.55 9.45 5.5 9.9 5.25 Q10.5 5.25 10.65 5.55 M10.45 11.05 L10.5 11.05 11.35 10.75 11.8 10.15 11.55 9.7 Q12.25 9.75 12.25 10.3 L12.25 10.35 11.8 11.05 11.35 11.4 11.1 11.4 11.05 11.4 10.95 11.4 Q10.6 11.4 10.45 11.05" fill="#000000" fill-rule="evenodd" stroke="none"/>
      <path d="M19.5 27.1 L19.35 27.25 19.3 27.25 19.2 27.4 19.15 27.4 Q18.45 28.15 18.7 29.7 18.85 30.9 19.8 31.45 L21.0 31.8 23.35 32.65 Q24.15 32.95 24.1 35.7 24.0 38.55 22.75 39.3 L20.65 40.0 20.25 40.0 19.8 40.05 Q17.8 40.3 16.95 40.75 16.15 41.25 15.9 42.6 14.65 43.45 13.15 43.65 L9.3 43.8 Q7.45 43.75 5.85 42.3 4.8 41.35 3.85 39.25 3.3 35.2 4.65 30.15 L4.9 30.4 5.65 30.9 6.75 31.15 Q8.1 31.15 8.5 30.25 L8.55 29.85 8.7 29.2 Q8.7 28.2 7.95 27.25 7.3 26.1 6.55 25.8 L6.15 25.45 7.15 22.35 7.2 22.0 7.5 21.0 7.75 20.05 7.8 19.6 8.1 17.65 8.7 17.95 8.7 18.1 8.8 18.15 8.85 18.25 Q10.2 20.35 15.85 21.1 21.0 21.9 21.0 24.4 21.0 25.5 19.5 27.1" fill="url(#gradient7)" fill-rule="evenodd" stroke="none"/>
      <path d="M7.5 21.0 L7.2 22.0 7.15 22.35 6.4 23.05 Q5.65 24.0 5.65 24.4 L5.8 24.7 Q5.8 25.05 6.15 25.45 L6.55 25.8 7.05 26.25 7.9 27.4 8.2 29.05 Q8.2 30.85 6.45 30.85 L4.9 30.4 4.65 30.15 Q4.15 29.65 4.0 28.8 L4.35 28.8 Q4.9 28.8 5.35 28.45 5.7 28.05 5.7 27.4 5.7 26.8 5.35 26.55 4.95 26.25 4.8 25.5 4.65 24.7 5.35 23.7 5.95 22.65 7.45 20.95 L7.5 21.0" fill="url(#gradient8)" fill-rule="evenodd" stroke="none"/>
      <path d="M7.15 22.35 L6.15 25.45 Q5.8 25.05 5.8 24.7 L5.65 24.4 Q5.65 24.0 6.4 23.05 L7.15 22.35" fill="url(#gradient9)" fill-rule="evenodd" stroke="none"/>
      <path d="M10.15 15.85 L10.15 15.75 10.15 15.55 Q10.15 14.8 10.5 14.25 L10.75 14.2 11.05 14.25 11.1 14.8 Q11.1 15.85 10.35 15.85 L10.15 15.85" fill="#e9a7a7" fill-rule="evenodd" stroke="none"/>
      <path d="M10.45 16.7 L10.45 16.65 10.2 16.45 10.15 15.85 10.45 16.15 Q10.65 16.35 10.95 16.35 11.55 16.35 11.65 15.85 L11.7 14.8 11.05 14.25 10.75 14.2 11.1 14.05 12.3 14.55 Q12.15 16.9 10.95 16.9 10.65 16.9 10.45 16.7" fill="#b56363" fill-rule="evenodd" stroke="none"/>
      <path d="M11.05 14.25 L11.7 14.8 11.65 15.85 Q11.55 16.35 10.95 16.35 10.65 16.35 10.45 16.15 L10.15 15.85 10.35 15.85 Q11.1 15.85 11.1 14.8 L11.05 14.25" fill="#d69090" fill-rule="evenodd" stroke="none"/>
      <path d="M6.55 25.8 Q7.3 26.1 7.95 27.25 8.7 28.2 8.7 29.2 L8.55 29.85 8.5 30.25 Q8.1 31.15 6.75 31.15 L5.65 30.9 4.9 30.4 6.45 30.85 Q8.2 30.85 8.2 29.05 L7.9 27.4 7.05 26.25 6.55 25.8" fill="url(#gradient10)" fill-rule="evenodd" stroke="none"/>
      <path d="M3.75 39.4 L3.85 39.4 Q3.9 40.45 4.3 41.4 L4.65 42.7 Q5.4 45.0 6.85 46.5 L7.5 47.1 7.6 47.4 7.75 47.85 Q7.75 49.0 2.7 49.05 L3.1 48.6 4.5 48.45 Q5.65 48.0 5.65 47.05 5.65 46.3 5.1 44.8 L4.45 43.05 3.9 41.25 Q3.55 40.05 3.75 39.4" fill="url(#gradient11)" fill-rule="evenodd" stroke="none"/>
      <path d="M21.0 31.8 L21.7 31.8 Q23.2 31.8 24.6 31.2 L26.05 31.15 Q28.3 31.15 28.95 32.7 29.55 33.9 29.7 36.85 29.8 39.75 29.2 41.65 28.6 43.45 26.4 44.35 24.15 45.15 23.25 45.0 22.45 44.8 22.15 43.65 L21.55 42.25 20.65 41.25 19.3 40.45 23.4 39.75 20.65 40.0 22.75 39.3 Q24.0 38.55 24.1 35.7 24.15 32.95 23.35 32.65 L21.0 31.8 M3.85 39.25 Q4.8 41.35 5.85 42.3 7.45 43.75 9.3 43.8 L13.15 43.65 Q14.65 43.45 15.9 42.6 L15.75 43.15 15.75 46.15 16.05 48.15 15.7 48.25 Q13.5 48.3 10.35 47.4 7.2 46.45 4.65 42.7 L4.3 41.4 Q3.9 40.45 3.85 39.4 L3.85 39.25" fill="url(#gradient12)" fill-rule="evenodd" stroke="none"/>
      <path d="M2.05 49.3 Q1.3 49.3 0.6 47.95 0.0 46.5 0.0 44.5 L0.0 44.25 0.0 44.1 Q0.0 43.2 0.25 42.45 L0.6 41.1 Q1.05 40.05 1.65 39.75 L2.05 39.75 Q2.95 39.75 3.4 41.1 4.15 42.55 4.15 44.5 4.15 46.5 3.4 47.95 L3.1 48.6 2.7 49.05 2.4 49.3 2.35 49.3 2.05 49.3" fill="#7a5639" fill-rule="evenodd" stroke="none"/>
      <path d="M19.45 50.4 L22.2 49.95 25.05 49.6 Q28.0 49.0 30.3 47.2 L31.2 46.35 32.8 46.6 Q32.85 46.5 33.1 46.5 L34.3 46.3 35.4 46.5 35.85 46.9 35.4 47.2 34.3 47.4 33.45 47.35 33.45 47.5 Q33.45 48.45 27.6 49.9 22.0 51.25 19.0 51.25 L14.65 50.7 11.1 50.2 8.4 50.25 Q3.4 50.25 2.05 49.3 L2.35 49.3 3.15 49.35 3.4 49.35 4.45 49.45 6.7 49.45 8.8 49.45 10.0 49.45 12.0 49.3 12.1 49.3 12.6 49.45 12.7 49.45 15.15 49.9 17.2 50.2 17.25 50.2 17.4 50.35 Q17.85 50.7 18.4 50.7 L19.45 50.4" fill="#000000" fill-opacity="0.22745098" fill-rule="evenodd" stroke="none"/>
      <path d="M2.7 49.05 Q7.75 49.0 7.75 47.85 L7.6 47.4 8.7 48.45 Q9.45 49.3 10.0 49.45 L8.8 49.45 6.7 49.45 4.45 49.45 3.4 49.35 3.15 49.35 2.35 49.3 2.4 49.3 2.7 49.05" fill="url(#gradient13)" fill-rule="evenodd" stroke="none"/>
      <path d="M7.6 47.4 L7.5 47.1 9.0 48.25 Q9.9 48.85 12.0 49.3 L10.0 49.45 Q9.45 49.3 8.7 48.45 L7.6 47.4" fill="url(#gradient14)" fill-rule="evenodd" stroke="none"/>
      <path d="M24.6 31.2 L25.6 30.7 26.55 29.8 26.65 29.7 27.6 28.75 27.75 28.6 28.45 28.15 29.25 27.9 Q30.3 27.9 30.75 28.95 31.3 30.1 31.75 33.0 32.1 36.0 31.75 40.15 31.2 44.1 28.8 45.85 26.4 47.4 20.85 47.85 L21.15 45.6 Q21.15 43.5 20.25 42.1 19.5 40.6 18.4 40.6 L19.3 40.45 20.65 41.25 21.55 42.25 22.15 43.65 Q22.45 44.8 23.25 45.0 24.15 45.15 26.4 44.35 28.6 43.45 29.2 41.65 29.8 39.75 29.7 36.85 29.55 33.9 28.95 32.7 28.3 31.15 26.05 31.15 L24.6 31.2" fill="url(#gradient15)" fill-rule="evenodd" stroke="none"/>
      <path d="M20.85 47.85 L20.25 49.3 19.45 50.4 18.4 50.7 Q17.85 50.7 17.4 50.35 L17.25 50.2 17.2 50.2 16.75 49.5 16.65 49.45 16.5 49.3 16.05 48.15 15.75 46.15 15.75 45.6 Q15.75 43.5 16.5 42.1 L16.6 42.1 Q17.35 40.75 18.25 40.65 L18.4 40.6 Q19.5 40.6 20.25 42.1 21.15 43.5 21.15 45.6 L20.85 47.85" fill="#6c401c" fill-rule="evenodd" stroke="none"/>
      <path d="M35.4 44.1 L34.95 45.15 34.8 45.15 33.6 44.8 Q33.15 44.5 33.15 43.95 33.4 44.4 34.2 44.4 L35.4 44.1" fill="url(#gradient16)" fill-rule="evenodd" stroke="none"/>
      <path d="M32.2 45.15 L33.3 42.9 33.15 43.9 33.15 43.95 Q33.15 44.5 33.6 44.8 L34.8 45.15 34.95 45.15 Q34.45 45.75 33.4 45.75 L32.7 45.55 32.2 45.15" fill="url(#gradient17)" fill-rule="evenodd" stroke="none"/>
      <path d="M7.15 22.15 L7.05 22.45 6.3 23.2 5.65 24.45 5.7 24.75 6.15 25.5 6.55 25.9 7.0 26.35 Q7.5 26.8 7.8 27.55 8.2 28.3 8.2 29.1 8.2 30.9 6.4 30.9 5.35 30.9 4.65 30.25 L3.9 28.95 4.3 28.95 5.35 28.6 5.65 27.55 Q5.65 26.85 5.35 26.65 4.95 26.35 4.8 25.6 4.65 24.85 5.35 23.85 L7.35 21.0 7.45 21.0 7.15 22.15" fill="url(#gradient18)" fill-rule="evenodd" stroke="none"/>
      <path d="M25.6 5.25 L26.2 7.2 25.45 7.05 24.75 6.55 Q23.55 5.95 23.4 5.55 L22.8 4.2 22.2 3.25 22.45 3.4 23.2 4.15 23.55 5.1 Q23.7 5.5 24.15 5.55 L24.45 5.55 25.45 5.35 25.6 5.25" fill="url(#gradient19)" fill-rule="evenodd" stroke="none"/>
      <path d="M18.6 44.55 L18.85 44.95 Q19.3 45.6 19.3 46.65 19.35 47.7 19.05 48.45 L18.55 49.0 17.95 49.15 17.5 49.05 17.25 48.85 17.2 48.6 Q16.75 47.95 16.65 46.9 16.65 45.85 16.95 45.1 17.35 44.5 17.85 44.4 L18.25 44.4 18.45 44.55 18.6 44.55" fill="#381f1f" fill-rule="evenodd" stroke="none"/>
      <path d="M18.6 44.55 L18.85 44.8 19.15 45.1 Q19.65 45.85 19.65 46.9 19.75 47.95 19.3 48.6 L18.85 49.3 18.25 49.45 17.55 49.15 17.5 49.05 17.95 49.15 18.55 49.0 19.05 48.45 Q19.35 47.7 19.3 46.65 19.3 45.6 18.85 44.95 L18.6 44.55" fill="#1c0c0c" fill-rule="evenodd" stroke="none"/>
      <path d="M16.3 44.4 L16.15 44.35 16.15 44.25 Q15.9 44.05 15.9 43.65 15.9 43.3 16.05 43.05 L16.45 42.75 16.65 42.75 16.8 43.0 16.9 43.6 16.9 44.2 16.65 44.4 16.45 44.5 16.3 44.4" fill="#381f1f" fill-rule="evenodd" stroke="none"/>
      <path d="M16.65 42.75 L16.8 42.9 16.9 43.0 16.9 43.05 17.05 43.65 16.9 44.25 16.75 44.55 16.5 44.55 16.3 44.5 16.3 44.4 16.45 44.5 16.65 44.4 16.9 44.2 16.9 43.6 16.8 43.0 16.65 42.75" fill="#1c0c0c" fill-rule="evenodd" stroke="none"/>
      <path d="M17.55 43.45 L17.5 43.3 17.4 43.2 17.2 42.45 17.4 41.65 17.8 41.25 17.85 41.25 18.0 41.35 18.1 41.35 18.25 41.55 18.3 41.65 18.4 42.3 18.3 43.15 18.1 43.45 17.85 43.5 17.55 43.45" fill="#381f1f" fill-rule="evenodd" stroke="none"/>
      <path d="M18.1 41.35 L18.25 41.5 18.3 41.65 18.55 42.45 18.4 43.2 18.15 43.6 17.85 43.65 17.65 43.5 17.55 43.45 17.85 43.5 18.1 43.45 18.3 43.15 18.4 42.3 18.3 41.65 18.25 41.55 18.1 41.35" fill="#1c0c0c" fill-rule="evenodd" stroke="none"/>
      <path d="M19.6 44.55 L19.5 44.4 19.45 44.35 19.2 43.6 Q19.2 43.05 19.35 42.7 19.5 42.45 19.8 42.4 L19.9 42.4 20.05 42.45 20.1 42.45 20.25 42.7 20.4 43.45 Q20.5 43.95 20.25 44.25 L20.1 44.55 19.8 44.65 19.6 44.55" fill="#381f1f" fill-rule="evenodd" stroke="none"/>
      <path d="M20.1 42.45 L20.25 42.6 20.35 42.7 20.55 43.6 Q20.65 44.05 20.4 44.35 L20.2 44.65 19.9 44.7 19.65 44.65 19.6 44.55 19.8 44.65 20.1 44.55 20.25 44.25 Q20.5 43.95 20.4 43.45 L20.25 42.7 20.1 42.45" fill="#1c0c0c" fill-rule="evenodd" stroke="none"/>
      <path d="M2.4 43.75 L2.55 44.05 2.8 44.25 2.8 44.35 Q3.25 45.1 3.25 46.05 3.3 47.1 2.95 47.85 L2.5 48.45 1.95 48.6 Q1.65 48.6 1.45 48.4 L1.3 48.3 1.75 48.4 2.2 48.25 2.7 47.65 2.95 45.9 Q2.95 44.85 2.55 44.1 L2.4 43.75" fill="#1c0c0c" fill-rule="evenodd" stroke="none"/>
      <path d="M1.3 48.3 L1.0 48.0 1.0 47.85 Q0.6 47.1 0.55 46.05 0.55 45.1 0.9 44.35 1.2 43.65 1.75 43.65 L2.05 43.65 2.25 43.75 2.4 43.75 2.55 44.1 Q2.95 44.85 2.95 45.9 L2.7 47.65 2.2 48.25 1.75 48.4 1.3 48.3" fill="#381f1f" fill-rule="evenodd" stroke="none"/>
      <path d="M0.45 43.65 L0.55 43.65 0.75 43.65 1.0 43.45 1.0 42.75 1.0 42.25 1.15 42.85 1.0 43.5 0.85 43.75 0.7 43.75 0.45 43.65 M1.0 42.25 L0.85 42.0 1.0 42.15 1.0 42.25" fill="#1c0c0c" fill-rule="evenodd" stroke="none"/>
      <path d="M1.0 42.25 L1.0 42.75 1.0 43.45 0.75 43.65 0.55 43.65 0.45 43.65 0.3 43.6 0.3 43.5 0.15 42.85 0.3 42.25 0.6 42.0 0.85 42.0 1.0 42.25" fill="#381f1f" fill-rule="evenodd" stroke="none"/>
      <path d="M2.05 40.6 L2.1 40.75 2.25 41.55 2.1 42.4 1.95 42.7 1.65 42.7 1.5 42.7 1.45 42.7 1.45 42.55 1.35 42.45 1.15 41.7 1.35 40.8 1.75 40.5 1.9 40.5 1.95 40.6 2.05 40.6" fill="#381f1f" fill-rule="evenodd" stroke="none"/>
      <path d="M1.5 42.7 L1.65 42.7 1.95 42.7 2.1 42.4 2.25 41.55 2.1 40.75 2.05 40.6 2.2 40.75 2.2 40.8 2.4 41.7 2.2 42.45 1.95 42.75 1.65 42.85 1.5 42.7" fill="#1c0c0c" fill-rule="evenodd" stroke="none"/>
      <path d="M2.8 43.6 L2.7 43.45 2.65 43.35 2.4 42.6 2.7 41.7 3.1 41.4 3.25 41.4 3.3 41.5 3.4 41.5 3.4 41.65 3.4 41.7 3.6 42.45 3.4 43.3 3.25 43.6 2.95 43.65 2.8 43.6" fill="#381f1f" fill-rule="evenodd" stroke="none"/>
      <path d="M3.4 41.65 L3.55 41.7 3.7 42.6 3.55 43.35 3.25 43.65 3.0 43.75 2.8 43.65 2.8 43.6 2.95 43.65 3.25 43.6 3.4 43.3 3.6 42.45 3.4 41.7 3.4 41.65" fill="#1c0c0c" fill-rule="evenodd" stroke="none"/>
    </g>
    <linearGradient gradientTransform="matrix(-0.0256, -0.0251, 0.0213, -0.0218, 19.45, 21.0)" gradientUnits="userSpaceOnUse" id="gradient0" spreadMethod="pad" x1="-819.2" x2="819.2">
      <stop offset="0.0" stop-color="#220101"/>
      <stop offset="0.9882352941176471" stop-color="#603716"/>
    </linearGradient>
    <linearGradient gradientTransform="matrix(-0.0256, -0.0251, 0.0213, -0.0218, 19.45, 21.0)" gradientUnits="userSpaceOnUse" id="gradient1" spreadMethod="pad" x1="-819.2" x2="819.2">
      <stop offset="0.0" stop-color="#200000"/>
      <stop offset="0.9529411764705882" stop-color="#612f08"/>
    </linearGradient>
    <linearGradient gradientTransform="matrix(-0.0256, -0.0251, 0.0213, -0.0218, 19.45, 21.0)" gradientUnits="userSpaceOnUse" id="gradient2" spreadMethod="pad" x1="-819.2" x2="819.2">
      <stop offset="0.0" stop-color="#2a0000"/>
      <stop offset="0.9725490196078431" stop-color="#814c21"/>
    </linearGradient>
    <linearGradient gradientTransform="matrix(-0.0256, -0.0251, 0.0213, -0.0218, 19.45, 21.0)" gradientUnits="userSpaceOnUse" id="gradient3" spreadMethod="pad" x1="-819.2" x2="819.2">
      <stop offset="0.0" stop-color="#3a0303"/>
      <stop offset="0.9882352941176471" stop-color="#955c2d"/>
    </linearGradient>
    <linearGradient gradientTransform="matrix(-0.0256, -0.0251, 0.0213, -0.0218, 19.45, 21.0)" gradientUnits="userSpaceOnUse" id="gradient4" spreadMethod="pad" x1="-819.2" x2="819.2">
      <stop offset="0.0" stop-color="#2a0101"/>
      <stop offset="0.9882352941176471" stop-color="#8a5529"/>
    </linearGradient>
    <linearGradient gradientTransform="matrix(-0.006, 9.0E-4, -0.0012, -0.0082, 20.5, 28.6)" gradientUnits="userSpaceOnUse" id="gradient5" spreadMethod="pad" x1="-819.2" x2="819.2">
      <stop offset="0.0" stop-color="#5a240b"/>
      <stop offset="0.9882352941176471" stop-color="#815a50"/>
    </linearGradient>
    <linearGradient gradientTransform="matrix(-0.0256, -0.0251, 0.0213, -0.0218, 19.45, 21.0)" gradientUnits="userSpaceOnUse" id="gradient6" spreadMethod="pad" x1="-819.2" x2="819.2">
      <stop offset="0.0" stop-color="#220101"/>
      <stop offset="0.9882352941176471" stop-color="#4e2d12"/>
    </linearGradient>
    <linearGradient gradientTransform="matrix(-0.0256, -0.0251, 0.0213, -0.0218, 19.45, 21.0)" gradientUnits="userSpaceOnUse" id="gradient7" spreadMethod="pad" x1="-819.2" x2="819.2">
      <stop offset="0.0" stop-color="#3a0303"/>
      <stop offset="0.8980392156862745" stop-color="#955c2d"/>
      <stop offset="1.0" stop-color="#dfa87a"/>
    </linearGradient>
    <linearGradient gradientTransform="matrix(-0.0256, -0.0251, 0.0213, -0.0218, 19.45, 21.0)" gradientUnits="userSpaceOnUse" id="gradient8" spreadMethod="pad" x1="-819.2" x2="819.2">
      <stop offset="0.0" stop-color="#260101"/>
      <stop offset="0.9607843137254902" stop-color="#7f481b"/>
    </linearGradient>
    <linearGradient gradientTransform="matrix(-0.0256, -0.0251, 0.0213, -0.0218, 19.45, 21.0)" gradientUnits="userSpaceOnUse" id="gradient9" spreadMethod="pad" x1="-819.2" x2="819.2">
      <stop offset="0.0" stop-color="#240000"/>
      <stop offset="0.9607843137254902" stop-color="#451f00"/>
    </linearGradient>
    <linearGradient gradientTransform="matrix(-0.0256, -0.0251, 0.0213, -0.0218, 19.45, 21.0)" gradientUnits="userSpaceOnUse" id="gradient10" spreadMethod="pad" x1="-819.2" x2="819.2">
      <stop offset="0.0" stop-color="#250000"/>
      <stop offset="0.9921568627450981" stop-color="#573315"/>
    </linearGradient>
    <linearGradient gradientTransform="matrix(-0.0256, -0.0251, 0.0213, -0.0218, 19.45, 21.0)" gradientUnits="userSpaceOnUse" id="gradient11" spreadMethod="pad" x1="-819.2" x2="819.2">
      <stop offset="0.0" stop-color="#1f0101"/>
      <stop offset="0.9882352941176471" stop-color="#693e1b"/>
    </linearGradient>
    <linearGradient gradientTransform="matrix(-0.0256, -0.0251, 0.0213, -0.0218, 19.45, 21.0)" gradientUnits="userSpaceOnUse" id="gradient12" spreadMethod="pad" x1="-819.2" x2="819.2">
      <stop offset="0.0" stop-color="#300202"/>
      <stop offset="0.9882352941176471" stop-color="#885226"/>
    </linearGradient>
    <linearGradient gradientTransform="matrix(-0.0256, -0.0251, 0.0213, -0.0218, 19.45, 21.0)" gradientUnits="userSpaceOnUse" id="gradient13" spreadMethod="pad" x1="-819.2" x2="819.2">
      <stop offset="0.0" stop-color="#210000"/>
      <stop offset="0.9921568627450981" stop-color="#6c380e"/>
    </linearGradient>
    <linearGradient gradientTransform="matrix(-0.0256, -0.0251, 0.0213, -0.0218, 19.45, 21.0)" gradientUnits="userSpaceOnUse" id="gradient14" spreadMethod="pad" x1="-819.2" x2="819.2">
      <stop offset="0.0" stop-color="#0b0000"/>
      <stop offset="1.0" stop-color="#210f00"/>
    </linearGradient>
    <linearGradient gradientTransform="matrix(-0.0256, -0.0251, 0.0213, -0.0218, 19.45, 21.0)" gradientUnits="userSpaceOnUse" id="gradient15" spreadMethod="pad" x1="-819.2" x2="819.2">
      <stop offset="0.0" stop-color="#2a0101"/>
      <stop offset="0.9882352941176471" stop-color="#774c27"/>
    </linearGradient>
    <linearGradient gradientTransform="matrix(-0.0256, -0.0251, 0.0213, -0.0218, 19.45, 21.0)" gradientUnits="userSpaceOnUse" id="gradient16" spreadMethod="pad" x1="-819.2" x2="819.2">
      <stop offset="0.0" stop-color="#240000"/>
      <stop offset="0.9882352941176471" stop-color="#955c2d"/>
    </linearGradient>
    <linearGradient gradientTransform="matrix(-0.0256, -0.0251, 0.0213, -0.0218, 19.45, 21.0)" gradientUnits="userSpaceOnUse" id="gradient17" spreadMethod="pad" x1="-819.2" x2="819.2">
      <stop offset="0.0" stop-color="#1b0000"/>
      <stop offset="0.9882352941176471" stop-color="#955c2d"/>
    </linearGradient>
    <linearGradient gradientTransform="matrix(0.0036, 0.0012, -0.0098, 0.0288, 2.55, 36.4)" gradientUnits="userSpaceOnUse" id="gradient18" spreadMethod="pad" x1="-819.2" x2="819.2">
      <stop offset="0.0" stop-color="#260101" stop-opacity="0.0"/>
      <stop offset="1.0" stop-color="#fdbb85" stop-opacity="0.12941177"/>
    </linearGradient>
    <linearGradient gradientTransform="matrix(0.0016, 0.0013, -0.0188, 0.024, 34.0, -5.85)" gradientUnits="userSpaceOnUse" id="gradient19" spreadMethod="pad" x1="-819.2" x2="819.2">
      <stop offset="0.0" stop-color="#000000" stop-opacity="0.58431375"/>
      <stop offset="1.0" stop-color="#000000" stop-opacity="0.0"/>
    </linearGradient>
  </defs>
</svg>
