<?xml version="1.0" encoding="UTF-8" standalone="no"?>
<svg xmlns:xlink="http://www.w3.org/1999/xlink" height="58.0px" width="150.0px" xmlns="http://www.w3.org/2000/svg">
  <g transform="matrix(1.0, 0.0, 0.0, 1.0, 0.0, 0.0)">
    <use height="58.0" transform="matrix(1.0, 0.0, 0.0, 1.0, 0.0, 0.0)" width="150.0" xlink:href="#shape0"/>
  </g>
  <defs>
    <g id="shape0" transform="matrix(1.0, 0.0, 0.0, 1.0, 0.0, 0.0)">
      <path d="M0.0 38.0 L150.0 38.0 150.0 58.0 0.0 58.0 0.0 38.0" fill="#6e6355" fill-rule="evenodd" stroke="none"/>
      <path d="M149.4 2.65 L149.45 2.55 149.5 2.35 149.45 2.5 149.4 2.65 M150.0 2.0 L150.0 3.0 149.0 3.0 147.8 3.65 146.85 3.9 Q146.35 4.0 146.05 4.25 L145.6 4.8 Q145.2 5.55 145.15 5.95 L145.15 6.7 145.0 7.15 145.0 7.1 144.55 5.7 144.0 4.4 143.4 3.95 143.3 4.0 142.0 3.45 140.6 3.6 139.7 4.5 138.85 5.3 138.6 4.4 137.95 4.2 138.0 4.5 Q137.95 5.55 136.85 6.0 L136.2 6.35 135.25 6.35 133.3 6.3 Q132.75 6.6 131.95 8.15 L131.85 8.4 131.65 8.8 130.6 10.15 130.35 10.0 129.85 10.3 129.6 10.5 128.15 10.45 Q126.45 12.0 122.7 12.0 L121.2 12.0 120.15 11.75 119.6 11.3 119.55 11.25 Q118.6 10.5 118.6 10.0 L119.3 10.2 120.4 10.35 120.8 10.35 123.65 10.8 125.75 10.3 127.1 10.0 127.5 9.8 128.5 9.8 Q130.2 9.45 131.3 7.75 132.0 6.75 132.15 5.7 L132.1 4.65 Q131.8 3.7 130.4 3.6 L128.0 3.65 126.45 3.75 125.25 3.6 125.0 3.5 124.95 3.45 124.15 2.85 123.2 2.9 122.85 2.95 122.8 2.8 121.8 2.85 120.75 2.8 119.05 2.9 117.3 3.0 114.3 2.95 Q112.65 3.2 112.1 3.6 111.65 3.9 111.25 4.8 L110.3 3.95 109.15 3.65 109.1 3.7 108.5 3.8 108.5 3.75 107.3 3.8 Q104.3 3.8 103.55 4.75 L103.3 5.35 Q103.2 5.85 103.25 6.6 103.2 7.25 102.6 7.65 101.8 8.2 100.8 7.95 L101.6 7.45 102.25 6.8 Q102.4 6.45 102.15 5.3 L101.85 4.5 101.5 3.95 100.1 3.8 98.5 3.65 97.95 3.15 96.7 3.15 94.95 3.1 93.15 3.15 Q92.35 3.25 91.5 4.1 L90.6 3.4 Q90.1 3.0 89.5 2.95 L86.05 2.65 86.0 2.7 84.0 3.05 81.8 3.1 80.65 3.8 Q79.85 4.4 79.8 4.8 L80.0 6.15 80.0 7.3 80.1 8.8 79.95 10.3 Q79.75 11.15 79.15 11.8 L78.95 12.05 79.15 11.7 Q80.0 10.2 79.0 6.8 78.55 5.1 78.0 4.6 77.6 4.25 76.8 4.1 L75.5 3.75 Q74.85 3.2 74.3 3.15 L72.6 3.15 69.15 3.0 68.0 3.05 67.25 3.05 67.05 3.1 66.4 3.15 Q63.35 3.45 61.1 4.8 L61.1 4.85 Q60.9 6.05 61.0 7.7 L60.55 6.75 59.7 6.15 59.15 6.05 58.7 5.65 58.35 4.9 57.8 4.25 Q56.7 3.55 55.6 4.45 L55.1 5.0 Q54.8 5.45 54.7 6.5 L54.45 7.4 54.05 7.75 52.3 7.95 51.85 7.9 Q50.6 7.8 50.25 7.25 L52.15 7.15 Q53.55 7.15 53.35 6.1 L53.0 5.6 52.35 5.5 51.75 5.1 51.5 4.85 50.2 4.1 50.05 3.55 50.0 2.95 Q49.7 2.5 48.05 2.35 L45.85 2.3 43.55 2.35 41.55 2.8 40.2 3.0 38.25 3.5 Q37.6 3.6 37.2 3.9 L36.35 4.5 35.1 4.6 33.8 4.25 29.55 4.15 31.0 3.45 31.9 3.45 32.8 3.5 34.2 3.4 32.55 3.0 Q31.5 2.7 29.35 3.0 L26.0 3.1 23.05 3.3 Q21.55 3.3 20.5 3.95 L20.1 4.25 20.0 5.1 Q20.0 5.6 19.5 6.1 18.65 7.05 17.75 6.65 L17.45 6.5 Q18.8 6.4 18.5 5.0 17.4 4.9 16.85 4.3 L16.3 3.55 16.2 3.4 16.7 2.8 15.35 2.95 14.85 2.85 14.55 2.85 14.85 2.3 13.4 2.2 13.35 2.15 13.0 2.15 13.0 2.0 123.0 2.0 123.1 2.0 150.0 2.0 M103.5 11.55 L103.9 12.1 104.3 12.8 Q104.45 13.4 104.1 13.95 L103.7 14.4 103.3 14.8 103.3 15.4 103.2 16.0 Q102.95 16.4 101.95 16.8 L101.5 17.3 101.0 17.8 99.45 17.9 97.85 17.55 97.15 17.45 97.5 17.45 99.6 17.1 101.35 16.25 Q102.4 15.5 102.5 14.65 102.55 13.55 103.15 12.65 L103.4 11.65 103.45 11.5 103.5 11.5 103.5 11.55 M138.3 6.7 L138.25 7.1 Q138.1 7.4 137.35 7.3 136.5 7.3 136.45 7.0 136.45 6.75 136.75 6.7 L137.15 6.65 138.0 6.5 Q138.25 6.5 138.3 6.7 M144.45 10.15 L144.5 9.65 144.15 8.5 Q145.15 9.15 145.35 10.35 145.55 11.5 144.8 12.35 L144.4 12.75 143.15 13.5 141.75 13.75 140.6 13.85 140.25 13.75 Q140.4 13.5 140.9 13.4 L141.65 13.3 Q142.6 12.95 143.3 12.45 L144.25 11.45 144.45 10.15 M135.6 10.1 Q135.35 10.45 134.4 10.35 L133.2 10.0 Q133.0 9.8 133.1 9.15 133.15 8.45 133.3 8.25 L134.1 7.9 135.0 7.8 135.8 8.15 Q135.8 9.85 135.6 10.1 M126.05 5.05 L124.85 5.1 Q124.55 4.5 125.15 4.5 L126.0 4.3 Q126.65 4.85 126.05 5.05 M123.8 4.3 Q123.65 4.95 122.55 5.0 L120.85 4.95 119.35 4.85 Q118.7 4.6 118.85 3.65 123.0 3.2 123.5 4.0 L123.8 4.3 M116.15 5.3 L115.95 5.95 Q114.1 6.3 114.15 5.3 114.15 4.85 114.6 4.8 L115.5 4.8 116.15 5.3 M97.0 4.3 Q97.0 4.8 96.55 5.05 L95.65 5.3 94.3 5.1 Q93.85 4.75 94.0 3.85 L96.65 3.65 97.0 4.3 M85.45 5.05 L84.35 4.95 84.35 4.15 85.65 4.15 86.15 4.5 Q86.2 5.0 85.45 5.05 M87.65 4.0 L87.95 4.0 87.95 4.6 87.15 4.6 87.15 4.15 87.65 4.0 M59.9 9.8 L59.7 9.3 60.35 9.75 61.05 10.25 61.1 10.3 Q61.65 10.95 61.65 11.95 L61.7 13.45 61.5 14.9 61.45 15.05 Q60.75 16.2 59.6 16.8 L58.65 17.0 58.3 17.0 58.15 17.0 58.45 16.9 Q59.85 16.45 60.1 15.65 L60.2 14.1 60.15 13.45 60.1 12.2 60.3 11.15 59.9 9.8 M71.8 3.8 Q72.45 4.25 71.8 4.55 L70.6 4.8 Q69.05 4.65 69.6 4.0 70.25 3.3 71.0 3.8 L71.8 3.8 M67.0 4.45 Q66.9 4.15 67.1 3.95 L67.65 3.8 68.3 4.0 Q68.35 4.6 67.0 4.45 M63.3 6.0 L63.8 6.0 Q63.95 6.6 63.55 6.8 L62.6 6.85 62.15 6.8 Q62.05 6.05 62.5 5.8 L63.3 6.0 M17.0 8.25 L16.9 7.65 Q17.25 7.65 17.85 8.1 18.45 8.55 18.85 8.5 19.05 10.55 18.3 11.3 L17.2 12.2 16.7 12.65 17.15 11.95 Q16.6 12.5 16.0 12.65 L17.0 11.55 15.45 12.7 15.05 12.65 16.0 11.95 17.0 11.25 17.65 10.4 18.2 9.3 17.6 9.15 17.5 9.15 17.0 8.25 M45.3 12.65 L44.0 14.1 Q43.35 14.6 41.75 14.5 L40.05 14.3 41.35 14.35 Q42.7 14.25 43.5 13.6 L44.5 12.15 44.65 11.5 45.0 11.0 46.0 10.0 45.85 11.6 45.3 12.65 M42.05 5.45 L42.0 4.5 42.5 4.8 42.75 5.45 Q42.95 6.45 42.45 7.45 41.95 8.4 41.05 8.8 39.5 9.5 37.85 9.5 L35.95 9.25 Q35.4 9.05 35.55 8.5 37.35 9.25 39.85 7.8 41.4 7.1 41.8 6.45 L42.05 5.75 42.05 5.45 M24.4 5.0 L24.5 5.0 24.85 5.65 24.8 5.7 24.75 5.7 23.85 5.75 23.7 5.8 23.0 6.15 22.05 6.3 22.0 5.85 22.0 5.75 22.0 5.7 22.15 5.3 Q22.55 4.9 24.0 4.8 L24.4 5.0" fill="#482d1d" fill-rule="evenodd" stroke="none"/>
      <path d="M149.4 2.65 L149.45 2.5 149.5 2.35 149.45 2.55 149.4 2.65 M13.0 1.0 L150.0 1.0 150.0 2.0 123.1 2.0 123.0 2.0 13.0 2.0 13.0 1.0 M150.0 8.0 L150.0 20.0 149.45 20.0 149.25 20.0 Q146.65 19.5 145.75 19.0 144.4 18.15 143.9 16.0 L143.85 16.05 144.25 14.65 144.9 14.45 Q145.4 14.05 145.7 12.7 L146.2 10.8 147.2 8.7 148.1 8.0 150.0 8.0 M121.2 12.0 L123.2 12.75 125.1 13.0 Q124.8 13.0 124.5 13.3 123.9 12.85 123.05 13.0 122.6 13.1 122.35 13.5 L121.8 13.65 Q120.9 12.95 119.95 13.3 119.3 13.6 118.85 14.35 118.45 15.05 118.45 15.8 118.45 17.35 119.6 17.9 L121.5 18.25 121.95 18.25 Q124.0 18.25 124.85 17.05 L125.25 15.8 126.35 16.0 127.15 15.9 Q127.8 15.8 127.9 15.15 L127.95 13.95 127.5 13.35 127.3 13.3 127.5 13.25 128.35 12.85 Q129.65 13.55 129.45 14.85 129.2 16.15 128.3 16.45 L126.25 16.75 126.2 17.75 128.0 17.55 126.5 17.75 126.2 17.75 Q125.55 17.8 124.9 18.45 L123.85 19.7 122.4 20.1 121.25 20.6 118.9 20.95 117.0 20.7 Q117.35 19.3 118.3 18.35 L116.9 18.65 115.65 19.15 115.15 19.75 114.65 20.25 113.95 20.45 113.25 20.5 111.8 20.75 111.95 18.5 Q110.95 18.4 110.1 17.35 109.2 16.25 109.7 15.45 L110.5 14.65 111.15 13.65 Q111.35 12.95 111.15 12.6 L110.35 12.0 Q110.85 13.25 109.85 13.45 108.9 13.65 108.05 13.0 L108.1 14.35 108.1 15.7 Q107.55 16.35 106.0 16.5 L104.95 16.45 Q105.7 15.3 105.2 13.7 104.7 12.15 103.5 11.55 L103.5 11.5 103.45 11.5 103.0 11.3 103.4 11.65 103.15 12.65 Q102.55 13.55 102.5 14.65 102.4 15.5 101.35 16.25 L99.6 17.1 98.4 17.15 97.0 17.25 97.5 17.45 97.15 17.45 97.85 17.55 98.75 17.75 99.45 18.15 100.2 18.5 101.35 18.35 102.35 17.8 103.85 17.35 105.5 17.9 107.2 18.0 Q109.0 18.1 109.5 19.0 110.4 20.55 108.7 21.25 106.05 22.3 102.25 22.2 L107.65 22.55 109.0 22.8 108.95 22.85 103.6 23.15 Q102.0 22.35 98.65 22.55 L99.25 22.0 96.0 23.5 97.85 22.6 95.7 22.75 92.95 22.7 Q91.6 22.55 90.5 21.65 L90.45 21.55 90.7 21.55 91.35 21.45 Q93.1 21.15 92.95 19.15 L92.65 18.5 Q92.3 18.2 91.9 18.25 L91.8 18.25 91.7 17.7 Q92.5 17.5 92.5 16.75 L92.2 16.05 Q91.9 15.75 91.5 15.75 L90.9 15.7 88.5 15.75 Q87.1 16.0 86.5 16.8 85.8 17.75 86.35 19.05 86.7 20.0 88.1 20.8 L88.95 21.2 88.75 21.55 88.25 22.15 87.15 22.3 86.0 22.3 83.95 22.45 Q81.1 22.15 83.5 20.4 L85.2 19.2 Q85.95 18.45 85.75 17.25 85.5 15.8 84.35 14.75 83.3 13.75 81.8 13.3 81.6 13.8 81.7 14.6 L82.0 13.5 81.5 15.5 81.6 16.45 80.55 17.2 Q81.3 17.45 81.65 16.85 L81.65 17.05 Q81.65 18.35 80.15 18.7 78.9 18.95 77.45 18.7 L77.05 18.7 73.85 17.95 Q71.55 17.55 70.75 18.35 L71.5 18.7 Q70.05 19.2 69.7 20.7 L67.3 20.75 64.9 20.75 62.95 21.15 61.0 21.5 58.1 21.5 56.5 21.25 54.95 20.95 53.25 21.3 51.5 21.75 48.2 21.9 Q46.9 20.9 45.0 20.65 44.05 20.55 41.45 20.6 L41.75 20.0 Q41.9 19.65 42.3 19.45 L43.55 19.3 44.8 19.0 45.3 18.3 Q45.5 17.85 46.05 17.7 L46.95 17.65 47.85 17.55 Q48.9 17.1 49.15 15.7 L49.25 13.25 48.75 14.0 Q48.85 15.3 48.1 16.05 47.35 16.75 46.0 16.75 L44.75 16.65 Q43.95 16.65 43.55 16.95 43.3 17.2 43.0 17.8 42.75 18.1 42.25 17.4 L41.25 15.65 Q40.6 14.95 39.8 14.5 38.55 13.8 37.9 11.7 L38.25 10.15 40.25 10.25 Q42.05 10.15 43.55 8.65 L44.3 7.8 Q44.6 7.5 45.5 7.5 L48.55 7.5 49.9 7.85 51.15 8.3 Q50.1 8.7 49.45 9.55 48.6 10.55 48.8 11.9 48.95 12.85 49.45 13.3 L50.6 13.8 51.15 14.0 51.4 14.05 Q53.7 14.9 54.9 14.9 56.1 14.9 56.9 14.3 58.15 13.35 58.6 11.65 58.95 10.35 58.7 9.2 L60.0 10.25 59.9 9.8 60.3 11.15 60.1 12.2 60.15 13.45 60.2 14.1 59.85 15.1 59.65 15.7 59.35 16.25 58.45 16.9 58.15 17.0 58.3 17.0 57.95 17.25 58.65 17.0 59.6 16.8 Q60.75 16.2 61.45 15.05 60.75 16.35 59.6 17.0 L57.85 17.3 56.55 17.7 59.8 17.4 Q61.95 16.8 62.6 14.75 63.0 13.3 63.0 11.5 L63.0 9.5 62.85 8.35 61.1 10.3 62.35 8.8 62.7 8.2 62.7 8.25 62.75 8.35 63.1 7.95 63.95 7.75 64.9 7.45 66.25 6.45 Q67.0 5.9 67.75 5.8 L69.5 5.7 71.25 5.75 73.55 5.65 75.85 5.7 Q77.15 5.9 78.2 7.9 79.25 9.85 79.15 11.7 L78.95 12.05 79.15 11.8 Q78.95 13.95 77.35 14.2 78.6 14.5 79.45 13.55 80.1 12.8 80.3 11.55 L80.45 8.9 Q80.5 7.2 81.3 6.45 82.05 5.75 83.7 5.75 L86.5 5.55 89.25 5.7 Q89.65 5.8 90.25 6.4 90.7 6.8 91.5 6.7 L93.05 6.35 94.55 5.95 98.25 6.3 Q101.0 6.55 101.5 5.75 L101.55 5.65 102.05 5.7 102.0 6.4 Q101.8 7.1 101.05 7.55 L99.55 8.2 103.0 7.95 Q103.6 7.6 103.95 6.3 L103.95 5.85 111.75 6.4 114.5 6.5 Q113.6 7.45 114.0 8.45 114.55 9.45 116.25 9.45 L116.8 9.45 117.5 9.0 117.55 9.1 118.6 10.0 Q118.6 10.5 119.55 11.25 L119.6 11.3 120.15 11.75 121.2 12.0 M125.5 13.0 L126.45 13.2 126.75 13.25 126.7 13.25 Q126.4 13.3 126.2 13.6 L126.15 13.55 Q125.9 13.15 125.5 13.0 M63.6 28.2 L64.85 28.45 Q66.35 28.8 67.0 29.35 L66.85 29.4 Q66.15 28.9 64.85 28.5 L63.6 28.2 M129.1 32.5 L130.05 32.45 129.2 32.5 129.1 32.5 M137.95 7.9 Q137.1 8.45 136.9 9.9 136.75 11.25 137.45 11.95 138.1 12.6 139.15 12.6 L140.2 12.4 Q141.5 11.85 141.5 10.45 141.4 9.85 140.95 9.6 141.45 9.35 141.45 8.75 141.5 8.3 141.2 8.05 140.95 7.75 140.5 7.75 L140.1 7.7 137.95 7.9 M137.0 20.95 L137.55 20.7 133.15 21.15 130.3 20.3 Q128.7 19.55 129.3 18.3 L130.15 17.4 131.15 16.65 131.85 15.6 131.95 14.3 Q130.75 13.95 130.65 12.7 L130.8 10.75 133.0 10.9 135.15 10.85 Q135.8 10.55 136.7 9.2 137.5 7.9 138.2 7.7 L139.2 7.55 141.05 7.7 Q142.65 7.95 143.5 8.5 144.2 9.05 144.45 10.15 L144.25 11.45 143.3 12.45 Q142.6 12.95 141.65 13.3 L140.9 13.4 Q140.4 13.5 140.25 13.75 L140.6 13.85 139.0 14.0 Q138.8 14.55 139.45 15.1 L140.4 16.05 140.55 16.3 139.75 17.25 Q139.9 18.9 138.3 20.3 L137.55 20.8 137.0 20.95 M116.0 6.55 L116.15 6.55 116.0 6.6 116.0 6.55 M116.95 6.55 L118.6 6.6 Q117.9 6.8 117.6 7.4 L117.25 6.85 116.95 6.55 M121.35 6.6 L130.75 6.9 130.95 6.9 131.3 7.75 Q130.2 9.45 128.5 9.8 L127.5 9.8 127.1 10.0 125.75 10.3 123.65 10.8 120.8 10.35 121.9 9.9 Q122.65 9.25 122.75 7.75 L122.45 7.05 Q122.15 6.75 121.75 6.75 L121.65 6.75 121.35 6.6 M132.1 18.3 Q132.35 18.85 132.9 18.95 L133.05 18.95 134.0 19.05 Q135.55 19.05 136.1 17.95 L136.2 17.15 135.7 16.55 135.1 16.45 Q134.8 16.0 134.2 16.0 L133.95 16.0 Q132.65 15.9 132.15 16.65 131.65 17.35 132.1 18.3 M148.05 32.6 L148.5 33.1 148.5 33.0 148.55 33.6 148.5 33.25 148.5 33.2 148.05 32.6 M121.0 7.5 L121.35 7.6 121.75 7.75 121.0 7.5 M95.65 7.75 Q94.65 6.75 93.15 7.15 92.3 7.4 91.65 8.05 90.95 8.7 90.7 9.5 90.3 10.85 91.05 11.75 91.75 12.55 93.4 12.55 L95.1 12.45 Q96.05 12.3 95.95 11.35 L96.05 10.85 96.2 10.5 96.1 9.75 95.55 9.3 95.7 9.15 96.0 8.45 95.65 7.75 M75.5 3.75 L74.95 3.4 74.3 3.15 Q74.85 3.2 75.5 3.75 M68.0 3.05 L67.05 3.1 67.25 3.05 68.0 3.05 M55.95 8.0 L56.9 8.0 56.75 8.15 56.05 8.15 55.95 8.0 M78.45 8.9 L78.15 8.25 Q77.8 7.95 77.4 8.0 L76.55 7.85 74.6 7.75 Q73.6 8.15 73.1 9.55 72.7 10.65 73.15 11.5 73.75 12.5 75.25 12.5 L76.1 12.45 Q78.35 12.25 78.7 9.85 L78.45 9.05 78.45 8.9 M31.8 29.0 L33.85 28.95 35.25 29.0 31.8 29.0 M18.1 17.1 L17.45 16.15 17.5 16.95 Q16.15 16.5 16.25 15.25 L15.35 15.2 15.35 14.7 16.35 13.8 18.1 12.3 18.95 11.55 19.25 10.5 Q19.5 8.95 21.05 8.45 L22.1 8.1 23.0 7.4 23.3 7.05 23.85 5.75 24.75 5.7 23.85 5.85 23.3 7.1 23.8 6.95 Q25.95 6.05 27.25 5.8 24.9 6.45 23.9 8.5 23.15 10.2 23.85 11.2 L24.0 11.45 22.45 13.45 22.0 13.85 21.8 14.5 21.45 15.95 Q21.1 16.85 20.55 17.15 L18.95 17.25 18.1 17.1 M51.65 34.2 L61.2 34.5 59.65 34.5 52.5 34.25 51.65 34.2 M67.0 34.05 L67.5 33.95 69.85 33.8 72.1 33.7 72.15 33.7 69.85 33.85 67.5 34.0 67.0 34.05 M71.8 33.55 L69.45 32.4 70.35 32.85 71.8 33.55 M68.4 31.05 L68.05 30.75 67.5 30.75 67.35 30.8 66.55 30.55 66.05 30.2 65.6 29.9 Q69.05 31.15 72.8 31.45 L75.6 31.55 76.95 31.65 75.6 31.6 72.8 31.55 68.4 31.05 M30.1 14.7 L32.9 15.15 35.55 15.4 37.0 15.8 38.3 16.3 Q38.75 16.6 38.8 17.1 L38.75 18.15 Q38.05 18.35 36.95 19.05 L35.2 20.0 32.4 19.65 31.9 19.6 31.75 19.45 Q30.95 18.85 29.55 18.95 L27.25 19.0 Q26.5 18.8 25.3 17.9 L23.75 17.35 Q23.0 17.0 22.8 16.2 22.6 15.5 22.95 14.0 23.35 12.4 24.05 11.45 L24.7 12.0 24.5 12.2 Q24.0 13.2 24.75 14.25 25.35 15.1 26.75 15.1 L27.85 14.95 Q29.15 14.45 29.0 13.2 28.95 12.8 28.5 12.6 L28.5 12.5 30.5 12.6 Q33.3 12.6 34.3 11.0 35.35 9.4 34.85 7.95 34.5 6.8 33.1 6.3 L33.0 6.25 Q32.85 5.55 32.15 5.5 L38.15 5.5 41.95 5.65 41.75 5.5 42.05 5.45 42.05 5.75 41.8 6.45 Q41.4 7.1 39.85 7.8 37.35 9.25 35.55 8.5 35.4 9.05 35.95 9.25 36.6 10.0 38.1 10.15 L37.0 11.25 36.75 12.15 36.15 13.0 33.55 13.5 30.85 13.7 29.1 14.75 30.1 14.7 M13.75 7.95 L14.15 8.8 14.2 9.0 13.9 8.5 13.75 7.95 M14.25 10.6 L14.8 9.25 Q15.15 8.5 16.1 7.75 L16.3 7.75 17.0 8.25 17.5 9.15 17.6 9.15 17.65 10.4 17.0 11.25 16.0 11.95 15.05 12.65 14.85 12.6 Q14.25 12.45 14.2 11.85 L14.25 10.6 M45.85 11.6 L46.0 10.0 45.0 11.0 44.65 11.5 44.5 12.15 43.5 13.6 Q42.7 14.25 41.35 14.35 L40.05 14.3 41.75 14.5 Q43.35 14.6 44.0 14.1 L45.3 12.65 45.1 13.25 43.75 14.3 42.05 14.6 43.65 15.2 45.3 15.0 Q47.0 13.9 47.0 11.0 L46.0 11.5 45.85 11.6 M51.8 15.0 Q50.7 15.25 49.75 16.25 48.8 17.35 48.85 18.4 48.85 18.95 49.2 19.4 49.7 20.1 50.95 20.25 L51.3 20.25 Q52.35 20.25 53.1 19.65 53.55 20.75 55.1 20.75 L55.95 20.7 Q56.6 20.55 56.75 19.95 L56.75 18.75 Q56.7 18.4 56.3 18.15 L55.55 18.0 55.5 18.0 55.1 17.4 54.4 17.25 54.25 17.25 54.25 16.6 53.9 15.95 53.15 15.75 53.0 15.75 52.55 15.15 51.8 15.0 M52.5 16.3 L52.95 16.55 53.25 16.75 52.5 16.3 M55.45 18.8 L55.75 19.0 55.0 18.55 55.45 18.8 M63.25 16.45 Q62.85 16.45 62.55 16.75 L61.75 16.75 Q61.05 16.75 60.9 17.4 60.6 18.1 60.8 19.1 60.9 19.8 61.6 19.95 L62.35 20.0 Q63.15 20.0 63.6 19.6 64.2 19.1 64.2 18.3 L64.15 17.85 Q64.4 17.2 63.95 16.75 63.65 16.45 63.25 16.45 M65.2 30.0 L67.0 32.75 65.1 30.0 65.2 30.0 M22.0 5.7 Q22.0 5.45 22.15 5.25 22.6 4.75 24.0 4.65 L24.5 4.65 24.4 5.0 24.0 4.8 Q22.55 4.9 22.15 5.3 L22.0 5.7" fill="#613a22" fill-rule="evenodd" stroke="none"/>
      <path d="M13.0 0.0 L150.0 0.0 150.0 1.0 13.0 1.0 13.0 0.0 M150.0 33.0 L150.0 36.0 12.8 36.0 13.0 35.65 13.0 2.15 13.35 2.15 13.4 2.2 13.6 2.9 13.7 3.55 13.75 5.5 13.7 5.95 13.7 6.75 13.75 7.6 13.75 7.95 13.9 8.5 14.2 9.0 14.35 9.8 14.25 10.6 14.2 11.85 Q14.25 12.45 14.85 12.6 L15.05 12.65 15.45 12.7 16.0 12.65 Q16.6 12.5 17.15 11.95 L16.7 12.65 15.9 14.0 14.85 15.0 14.75 15.15 14.6 15.4 14.6 15.45 14.55 15.5 Q14.4 15.9 14.5 16.65 L14.55 17.15 14.2 17.85 13.85 18.55 15.15 18.5 Q16.0 18.35 16.2 18.8 L14.85 19.25 14.85 19.3 14.65 19.35 Q14.05 19.6 13.9 20.2 13.75 20.65 13.75 21.35 L13.75 22.0 13.85 23.85 13.85 23.95 13.85 24.45 13.9 24.95 14.15 25.7 Q14.35 26.0 14.9 26.15 L15.4 26.25 15.55 26.25 15.65 26.25 17.3 26.35 16.1 27.5 16.0 27.55 14.55 28.7 Q14.05 29.35 14.15 29.8 14.4 30.5 17.15 30.5 L17.95 30.45 21.25 30.55 24.55 30.85 28.5 31.8 33.4 32.45 37.85 32.95 38.85 33.05 38.95 33.1 45.7 33.0 Q46.9 32.95 48.7 33.45 L51.65 34.2 52.5 34.25 59.65 34.5 61.2 34.5 67.0 34.05 67.5 34.0 69.85 33.85 72.15 33.7 72.1 33.7 71.8 33.55 70.35 32.85 69.45 32.4 69.35 32.3 68.7 31.75 68.7 31.65 68.25 31.0 68.4 31.05 72.8 31.55 75.6 31.6 76.95 31.65 77.8 31.7 78.4 31.75 Q77.9 32.5 76.55 32.65 L74.4 32.75 Q74.75 33.95 79.15 33.85 L84.35 33.7 Q84.9 33.85 85.1 34.1 L89.4 33.1 91.0 32.45 92.7 32.0 94.5 31.95 96.3 32.0 101.6 32.75 Q107.35 34.15 114.75 33.05 L115.2 32.75 117.1 33.1 120.3 33.3 123.45 33.25 124.6 33.3 125.75 33.25 126.9 32.6 127.0 32.5 Q127.65 32.3 129.1 32.5 L129.2 32.5 131.45 32.75 133.2 32.45 137.05 32.25 139.05 32.1 140.7 31.8 140.8 31.8 140.9 31.75 140.05 32.5 Q141.1 33.4 145.35 32.05 L146.3 31.8 147.25 32.15 147.8 32.45 148.05 32.6 148.5 33.2 148.5 33.25 148.55 33.6 148.5 33.0 150.0 33.0 M114.2 30.5 L117.15 30.1 118.0 30.0 120.75 31.0 Q120.1 32.35 118.4 32.4 L115.3 31.85 Q114.5 31.65 114.35 31.45 114.05 31.2 114.2 30.5 M131.45 38.05 L131.45 38.0 131.5 38.0 131.45 38.05 M42.0 28.15 L45.25 27.5 44.15 28.85 42.55 30.0 Q41.0 31.2 39.3 31.25 33.7 31.35 31.8 29.0 L35.25 29.0 37.85 29.15 Q39.55 29.15 40.25 28.5 L42.0 28.15 M67.35 30.8 L67.6 30.85 67.5 30.85 67.0 30.9 66.15 30.4 66.55 30.55 67.35 30.8 M50.05 31.7 Q50.0 31.1 50.75 30.95 L52.0 30.75 54.75 32.5 Q54.75 33.3 52.4 32.85 50.1 32.4 50.05 31.7 M18.9 28.95 L20.9 28.4 Q22.3 28.2 22.95 27.85 L23.8 27.3 Q24.3 26.95 24.75 27.0 L24.95 27.1 25.75 27.75 24.65 28.9 Q23.4 30.0 22.0 30.0 L20.3 29.85 Q19.2 29.55 18.9 28.95 M25.6 29.85 L26.0 29.5 27.25 29.25 Q27.25 30.2 26.95 30.4 L25.55 30.45 25.6 29.85" fill="#3d2616" fill-rule="evenodd" stroke="none"/>
      <path d="M150.0 3.0 L150.0 8.0 148.1 8.0 147.2 8.7 146.2 10.8 145.7 12.7 Q145.4 14.05 144.9 14.45 L144.25 14.65 143.85 16.05 Q142.6 18.45 143.8 19.8 L142.8 19.75 Q142.4 19.95 141.85 20.9 L141.0 22.2 Q139.8 23.15 136.95 23.25 L135.8 23.3 134.5 23.25 135.95 24.05 Q136.85 24.6 137.5 24.75 L138.65 24.95 139.8 25.2 140.8 25.65 141.65 25.05 142.55 23.95 143.9 23.75 145.75 23.75 Q147.0 23.75 147.5 23.2 147.9 22.65 148.0 21.25 149.1 21.15 149.4 20.45 L149.45 20.0 150.0 20.0 150.0 29.0 147.15 29.0 130.85 32.35 130.05 32.45 129.1 32.5 Q127.65 32.3 127.0 32.5 L126.9 32.35 126.9 32.3 126.25 32.15 125.45 32.05 Q123.95 31.5 124.5 30.55 124.8 30.05 126.25 29.7 127.65 29.3 128.05 28.7 L128.15 28.6 Q128.8 27.4 127.3 27.75 L124.6 28.8 123.95 29.0 Q121.7 29.35 120.1 28.95 L119.05 28.5 118.15 27.45 Q117.75 27.05 117.45 27.95 L117.3 29.05 117.15 30.1 114.2 30.5 113.0 30.3 112.45 29.85 112.0 29.45 111.65 29.3 Q111.3 29.15 111.15 29.3 L110.8 29.65 110.3 30.1 109.65 30.55 107.85 31.2 106.0 31.75 101.65 31.65 99.55 31.25 98.35 31.25 Q97.6 31.25 97.25 30.9 97.35 30.35 98.7 30.2 L100.45 30.05 Q103.6 29.55 105.0 28.8 L107.7 27.35 Q109.0 27.7 110.25 26.7 112.1 25.45 114.0 25.7 119.2 26.5 120.75 23.0 L117.5 23.75 112.0 23.0 111.0 24.15 109.5 24.75 108.55 25.35 107.0 26.05 104.4 27.0 100.0 27.5 96.1 27.35 92.25 27.5 Q92.2 28.45 91.45 28.6 L90.25 28.85 Q90.85 28.2 90.15 27.5 L89.9 27.3 Q89.65 26.9 89.2 26.75 L87.85 26.8 Q87.35 26.85 87.1 27.35 86.5 28.7 87.55 29.45 L88.45 29.7 89.9 29.2 Q90.9 31.8 85.95 31.25 L83.0 30.95 82.05 30.6 81.1 30.0 78.0 28.7 77.3 28.3 76.95 28.2 76.75 28.25 Q76.55 28.3 76.0 28.65 L75.15 29.05 71.05 29.4 67.0 29.35 Q66.35 28.8 64.85 28.45 L63.6 28.2 63.2 28.15 62.85 28.15 Q63.6 27.95 64.15 27.5 64.7 27.0 65.05 26.15 L65.3 24.4 65.25 23.9 72.25 24.25 73.7 24.45 75.0 25.15 76.0 25.9 76.95 26.45 77.4 24.65 78.4 23.15 Q79.75 21.8 79.7 20.45 80.8 20.2 81.75 19.4 L82.7 18.35 83.0 16.95 82.8 15.15 Q82.65 14.35 82.0 13.5 L81.7 14.6 Q81.6 13.8 81.8 13.3 83.3 13.75 84.35 14.75 85.5 15.8 85.75 17.25 85.95 18.45 85.2 19.2 L83.5 20.4 Q81.1 22.15 83.95 22.45 L86.0 22.3 87.15 22.3 88.25 22.15 88.75 21.55 88.95 21.2 90.45 21.55 90.5 21.65 Q91.6 22.55 92.95 22.7 L95.7 22.75 97.85 22.6 96.0 23.5 94.25 23.45 92.5 23.25 90.3 22.75 Q89.1 22.6 88.25 23.3 L87.25 24.4 86.1 25.3 84.35 25.5 82.55 25.55 Q84.0 26.75 87.75 26.75 L89.25 26.5 90.25 25.7 91.2 24.95 93.1 24.9 95.0 24.8 Q96.75 24.35 98.65 22.55 102.0 22.35 103.6 23.15 L108.95 22.85 109.0 22.8 111.0 22.45 Q111.6 22.05 111.75 20.95 L111.75 18.5 110.5 19.0 Q110.55 20.5 109.5 21.25 L107.0 22.3 107.65 22.55 102.25 22.2 Q106.05 22.3 108.7 21.25 110.4 20.55 109.5 19.0 109.0 18.1 107.2 18.0 L105.5 17.9 103.85 17.35 102.35 17.8 101.35 18.35 100.2 18.5 99.45 18.15 98.75 17.75 97.85 17.55 99.45 17.9 101.0 17.8 101.5 17.3 101.95 16.8 Q102.95 16.4 103.2 16.0 L103.3 15.4 103.3 14.8 103.7 14.4 104.1 13.95 Q104.45 13.4 104.3 12.8 L103.9 12.1 103.5 11.55 Q104.7 12.15 105.2 13.7 105.7 15.3 104.95 16.45 L106.0 16.5 Q107.55 16.35 108.1 15.7 L108.1 14.35 108.05 13.0 Q108.9 13.65 109.85 13.45 110.85 13.25 110.35 12.0 L111.15 12.6 Q111.35 12.95 111.15 13.65 L110.5 14.65 109.7 15.45 Q109.2 16.25 110.1 17.35 110.95 18.4 111.95 18.5 L111.8 20.75 113.25 20.5 113.95 20.45 114.65 20.25 115.15 19.75 115.65 19.15 116.9 18.65 118.3 18.35 Q117.35 19.3 117.0 20.7 L118.9 20.95 Q118.15 21.1 117.5 21.4 118.7 21.95 120.6 22.1 122.8 22.25 123.75 21.55 L124.75 20.65 125.6 20.4 Q126.15 20.3 126.45 20.05 L127.5 18.8 128.5 17.5 128.0 17.55 126.2 17.75 126.25 16.75 128.3 16.45 Q129.2 16.15 129.45 14.85 129.65 13.55 128.35 12.85 L127.5 13.25 127.3 13.3 126.75 13.25 126.45 13.2 125.5 13.0 125.1 13.0 123.2 12.75 121.2 12.0 122.7 12.0 Q126.45 12.0 128.15 10.45 L129.6 10.5 129.85 10.3 130.35 10.0 130.6 10.15 131.65 8.8 131.85 8.4 131.95 8.15 Q132.75 6.6 133.3 6.3 L135.25 6.35 136.2 6.35 136.85 6.0 Q137.95 5.55 138.0 4.5 L137.95 4.2 138.6 4.4 138.85 5.3 139.7 4.5 140.6 3.6 142.0 3.45 143.3 4.0 143.4 3.95 144.0 4.4 144.55 5.7 145.0 7.1 145.0 7.15 145.15 6.7 145.15 5.95 Q145.2 5.55 145.6 4.8 L146.05 4.25 Q146.35 4.0 146.85 3.9 L147.8 3.65 149.0 3.0 150.0 3.0 M138.3 6.7 Q138.25 6.5 138.0 6.5 L137.15 6.65 136.75 6.7 Q136.45 6.75 136.45 7.0 136.5 7.3 137.35 7.3 138.1 7.4 138.25 7.1 L138.3 6.7 M144.45 10.15 Q144.2 9.05 143.5 8.5 142.65 7.95 141.05 7.7 L139.2 7.55 138.2 7.7 Q137.5 7.9 136.7 9.2 135.8 10.55 135.15 10.85 L133.0 10.9 130.8 10.75 130.65 12.7 Q130.75 13.95 131.95 14.3 L131.85 15.6 131.15 16.65 130.15 17.4 129.3 18.3 Q128.7 19.55 130.3 20.3 L133.15 21.15 137.55 20.7 137.0 20.95 135.15 21.1 133.3 21.2 132.65 21.45 Q132.75 22.15 134.55 22.4 L137.0 22.5 Q139.6 22.25 140.55 20.05 141.15 18.65 141.25 15.5 L140.55 16.3 140.4 16.05 139.45 15.1 Q138.8 14.55 139.0 14.0 L140.6 13.85 141.75 13.75 143.15 13.5 144.4 12.75 144.8 12.35 Q145.55 11.5 145.35 10.35 145.15 9.15 144.15 8.5 L144.5 9.65 144.45 10.15 M135.6 10.1 Q135.8 9.85 135.8 8.15 L135.0 7.8 134.1 7.9 133.3 8.25 Q133.15 8.45 133.1 9.15 133.0 9.8 133.2 10.0 L134.4 10.35 Q135.35 10.45 135.6 10.1 M79.15 11.8 Q79.75 11.15 79.95 10.3 L80.1 8.8 80.0 7.3 80.0 6.15 79.8 4.8 Q79.85 4.4 80.65 3.8 L81.8 3.1 84.0 3.05 86.0 2.7 86.05 2.65 89.5 2.95 Q90.1 3.0 90.6 3.4 L91.5 4.1 Q92.35 3.25 93.15 3.15 L94.95 3.1 96.7 3.15 97.95 3.15 98.5 3.65 100.1 3.8 101.5 3.95 101.85 4.5 102.15 5.3 Q102.4 6.45 102.25 6.8 L101.6 7.45 100.8 7.95 Q101.8 8.2 102.6 7.65 103.2 7.25 103.25 6.6 103.2 5.85 103.3 5.35 L103.55 4.75 Q104.3 3.8 107.3 3.8 L108.5 3.75 108.5 3.8 109.1 3.7 109.15 3.65 110.3 3.95 111.25 4.8 Q111.65 3.9 112.1 3.6 112.65 3.2 114.3 2.95 L117.3 3.0 119.05 2.9 120.75 2.8 121.8 2.85 122.8 2.8 122.85 2.95 123.2 2.9 124.15 2.85 124.95 3.45 125.0 3.5 125.25 3.6 126.45 3.75 128.0 3.65 130.4 3.6 Q131.8 3.7 132.1 4.65 L132.15 5.7 Q132.0 6.75 131.3 7.75 L130.95 6.9 130.75 6.9 121.35 6.6 120.45 6.45 118.6 6.6 116.95 6.55 116.15 6.55 116.0 6.55 115.95 6.5 115.25 6.25 Q114.8 6.25 114.5 6.5 L111.75 6.4 103.95 5.85 103.95 6.3 Q103.6 7.6 103.0 7.95 L99.55 8.2 101.05 7.55 Q101.8 7.1 102.0 6.4 L102.05 5.7 101.55 5.65 101.5 5.75 Q101.0 6.55 98.25 6.3 L94.55 5.95 93.05 6.35 91.5 6.7 Q90.7 6.8 90.25 6.4 89.65 5.8 89.25 5.7 L86.5 5.55 83.7 5.75 Q82.05 5.75 81.3 6.45 80.5 7.2 80.45 8.9 L80.3 11.55 Q80.1 12.8 79.45 13.55 78.6 14.5 77.35 14.2 78.95 13.95 79.15 11.8 M126.05 5.05 Q126.65 4.85 126.0 4.3 L125.15 4.5 Q124.55 4.5 124.85 5.1 L126.05 5.05 M123.85 19.7 Q123.3 20.25 122.55 20.4 L121.25 20.6 122.4 20.1 123.85 19.7 M137.2 25.45 L136.9 24.75 Q136.65 24.5 136.25 24.5 L135.65 24.45 132.65 24.75 Q130.85 25.35 130.5 27.15 129.9 29.95 132.55 30.5 L134.5 30.75 138.4 30.25 140.7 29.9 141.45 29.45 141.55 29.1 142.4 29.3 143.05 29.2 Q144.2 28.8 144.0 27.05 L144.0 26.75 143.7 26.05 143.0 25.75 142.35 25.95 Q141.55 25.35 140.95 26.1 L140.95 26.15 140.5 26.0 140.45 26.0 139.7 26.45 140.15 26.65 137.2 25.45 M116.15 5.3 L115.5 4.8 114.6 4.8 Q114.15 4.85 114.15 5.3 114.1 6.3 115.95 5.95 L116.15 5.3 M123.8 4.3 L123.5 4.0 Q123.0 3.2 118.85 3.65 118.7 4.6 119.35 4.85 L120.85 4.95 122.55 5.0 Q123.65 4.95 123.8 4.3 M97.0 4.3 L96.65 3.65 94.0 3.85 Q93.85 4.75 94.3 5.1 L95.65 5.3 96.55 5.05 Q97.0 4.8 97.0 4.3 M103.45 11.5 L103.4 11.65 103.0 11.3 103.45 11.5 M99.6 17.1 L97.5 17.45 97.0 17.25 98.4 17.15 99.6 17.1 M87.65 4.0 L87.15 4.15 87.15 4.6 87.95 4.6 87.95 4.0 87.65 4.0 M85.45 5.05 Q86.2 5.0 86.15 4.5 L85.65 4.15 84.35 4.15 84.35 4.95 85.45 5.05 M75.5 3.75 L76.8 4.1 Q77.6 4.25 78.0 4.6 78.55 5.1 79.0 6.8 80.0 10.2 79.15 11.7 79.25 9.85 78.2 7.9 77.15 5.9 75.85 5.7 L73.55 5.65 71.25 5.75 69.5 5.7 67.75 5.8 Q67.0 5.9 66.25 6.45 L64.9 7.45 63.95 7.75 63.1 7.95 62.75 8.35 62.7 8.25 62.7 8.2 62.35 8.8 61.1 10.3 61.05 10.25 60.35 9.75 59.7 9.3 59.9 9.8 60.0 10.25 58.7 9.2 58.45 8.35 57.9 7.8 Q57.55 7.65 57.15 7.8 L56.9 8.0 55.95 8.0 Q55.7 7.75 55.35 7.75 L54.05 7.75 54.45 7.4 54.7 6.5 Q54.8 5.45 55.1 5.0 L55.6 4.45 Q56.7 3.55 57.8 4.25 L58.35 4.9 58.7 5.65 59.15 6.05 59.7 6.15 60.55 6.75 61.0 7.7 Q60.9 6.05 61.1 4.85 L61.1 4.8 Q63.35 3.45 66.4 3.15 L67.05 3.1 68.0 3.05 69.15 3.0 72.6 3.15 74.3 3.15 74.95 3.4 75.5 3.75 M67.0 4.45 Q68.35 4.6 68.3 4.0 L67.65 3.8 67.1 3.95 Q66.9 4.15 67.0 4.45 M71.8 3.8 L71.0 3.8 Q70.25 3.3 69.6 4.0 69.05 4.65 70.6 4.8 L71.8 4.55 Q72.45 4.25 71.8 3.8 M71.5 18.7 L73.9 19.1 76.25 19.55 76.6 19.75 Q77.05 20.6 76.65 21.25 76.4 21.65 76.1 21.65 L75.5 21.7 73.15 21.9 70.75 21.95 67.9 23.0 65.2 23.65 Q64.95 22.8 64.3 22.4 L63.55 22.25 Q63.1 22.3 62.9 22.65 L62.9 22.7 62.15 22.8 Q61.95 22.5 61.55 22.5 58.85 22.2 58.3 24.5 58.0 25.75 58.55 26.8 59.1 27.8 60.25 28.15 L61.55 28.3 61.8 28.3 61.0 28.55 59.45 29.2 57.7 29.55 56.05 29.45 53.15 29.55 50.35 29.2 50.35 29.1 Q50.3 27.65 51.2 26.8 L51.3 27.55 Q51.7 28.8 53.05 28.8 L53.35 28.8 Q54.05 28.7 54.5 28.2 54.95 27.7 55.0 27.05 55.1 26.35 54.35 26.05 L54.45 25.8 54.45 25.05 54.9 24.8 55.75 24.05 51.85 23.95 50.15 24.05 Q48.2 24.05 47.0 23.3 47.1 23.9 48.0 24.25 48.85 24.55 48.8 25.25 48.75 25.95 48.0 26.55 47.35 27.1 46.55 27.25 L45.05 27.2 43.55 27.2 Q43.0 27.35 42.0 28.15 L40.25 28.5 Q39.55 29.15 37.85 29.15 L35.25 29.0 33.85 28.95 32.85 28.15 32.35 26.95 31.85 25.9 30.4 25.55 28.8 25.45 Q28.6 24.0 30.55 24.0 L37.2 23.75 Q39.35 23.7 39.5 21.4 L39.55 21.25 39.8 18.8 38.95 19.95 38.1 21.25 37.45 21.7 35.15 21.8 32.8 21.3 32.3 21.2 32.6 20.45 32.65 20.35 32.7 20.2 32.35 20.05 30.8 19.85 29.35 20.1 Q29.75 20.5 30.0 20.5 30.25 21.4 29.7 21.9 29.15 22.35 28.25 22.25 L28.15 22.45 26.05 21.95 Q25.8 21.0 25.35 20.55 24.95 20.15 24.0 19.9 L22.75 19.6 24.25 20.95 26.45 23.2 26.55 23.45 26.15 24.9 25.35 26.25 Q24.85 26.85 23.9 27.0 L22.2 27.25 20.35 27.95 20.05 28.0 19.75 27.95 19.1 28.2 Q17.7 28.7 17.25 28.95 L16.05 29.5 16.0 29.3 Q15.95 28.95 16.2 28.7 L16.8 28.35 18.05 27.7 19.05 27.25 20.85 26.55 22.7 25.95 20.7 25.5 19.85 25.45 Q19.3 25.4 19.05 25.15 18.85 24.9 18.9 24.2 L19.05 23.05 Q18.45 23.2 18.05 24.2 17.65 25.2 17.0 25.35 L16.45 25.4 Q15.9 25.4 15.65 25.1 L15.55 25.0 15.5 24.9 15.45 24.8 15.85 24.9 16.0 24.7 17.2 22.75 Q17.5 22.2 17.95 21.8 L16.95 22.55 18.25 21.5 Q19.15 20.65 19.3 20.0 L19.25 18.75 19.0 17.5 Q18.55 17.45 18.1 17.1 L18.95 17.25 20.55 17.15 Q21.1 16.85 21.45 15.95 L21.8 14.5 22.0 13.85 22.45 13.45 24.0 11.45 24.05 11.45 Q23.35 12.4 22.95 14.0 22.6 15.5 22.8 16.2 23.0 17.0 23.75 17.35 L25.3 17.9 Q26.5 18.8 27.25 19.0 L29.55 18.95 Q30.95 18.85 31.75 19.45 L31.9 19.6 32.4 19.65 35.2 20.0 36.95 19.05 Q38.05 18.35 38.75 18.15 L38.8 17.1 Q38.75 16.6 38.3 16.3 L37.0 15.8 35.55 15.4 32.9 15.15 30.1 14.7 34.95 14.75 36.25 14.7 37.2 13.9 37.9 11.7 Q38.55 13.8 39.8 14.5 40.6 14.95 41.25 15.65 L42.25 17.4 Q42.75 18.1 43.0 17.8 43.3 17.2 43.55 16.95 43.95 16.65 44.75 16.65 L46.0 16.75 Q47.35 16.75 48.1 16.05 48.85 15.3 48.75 14.0 L49.25 13.25 49.15 15.7 Q48.9 17.1 47.85 17.55 L46.95 17.65 46.05 17.7 Q45.5 17.85 45.3 18.3 L44.8 19.0 43.55 19.3 42.3 19.45 Q41.9 19.65 41.75 20.0 L41.45 20.6 Q44.05 20.55 45.0 20.65 46.9 20.9 48.2 21.9 L51.5 21.75 53.25 21.3 54.95 20.95 56.5 21.25 58.1 21.5 61.0 21.5 62.95 21.15 64.9 20.75 67.3 20.75 69.7 20.7 Q70.05 19.2 71.5 18.7 M17.5 16.95 L17.5 17.0 15.65 16.75 15.15 16.7 14.8 17.3 14.75 17.45 14.7 17.15 14.65 16.65 Q14.6 15.85 14.85 15.15 L14.85 15.0 15.9 14.0 16.7 12.65 17.2 12.2 18.3 11.3 Q19.05 10.55 18.85 8.5 18.45 8.55 17.85 8.1 17.25 7.65 16.9 7.65 L17.0 8.25 16.3 7.75 16.1 7.75 Q15.15 8.5 14.8 9.25 L14.25 10.6 14.35 9.8 14.2 9.0 14.15 8.8 13.75 7.95 13.75 7.6 13.7 6.75 13.7 5.95 13.75 5.5 15.2 4.2 16.2 3.4 16.3 3.55 16.85 4.3 Q17.4 4.9 18.5 5.0 18.8 6.4 17.45 6.5 L17.75 6.65 Q18.65 7.05 19.5 6.1 20.0 5.6 20.0 5.1 L20.1 4.25 20.5 3.95 Q21.55 3.3 23.05 3.3 L26.0 3.1 29.35 3.0 Q31.5 2.7 32.55 3.0 L34.2 3.4 32.8 3.5 31.9 3.45 31.0 3.45 29.55 4.15 33.8 4.25 35.1 4.6 36.35 4.5 37.2 3.9 Q37.6 3.6 38.25 3.5 L40.2 3.0 41.55 2.8 43.55 2.35 45.85 2.3 48.05 2.35 Q49.7 2.5 50.0 2.95 L50.05 3.55 50.2 4.1 51.5 4.85 51.75 5.1 52.35 5.5 53.0 5.6 53.35 6.1 Q53.55 7.15 52.15 7.15 L50.25 7.25 Q50.6 7.8 51.85 7.9 L52.3 7.95 51.15 8.3 49.9 7.85 48.55 7.5 45.5 7.5 Q44.6 7.5 44.3 7.8 L43.55 8.65 Q42.05 10.15 40.25 10.25 L38.25 10.15 38.25 10.0 38.1 10.15 Q36.6 10.0 35.95 9.25 L37.85 9.5 Q39.5 9.5 41.05 8.8 41.95 8.4 42.45 7.45 42.95 6.45 42.75 5.45 L42.5 4.8 42.0 4.5 42.05 5.45 41.75 5.5 41.95 5.65 38.15 5.5 32.15 5.5 32.0 5.5 31.35 5.45 27.25 5.8 Q25.95 6.05 23.8 6.95 L23.3 7.1 23.85 5.85 24.75 5.7 24.8 5.7 24.85 5.65 24.5 5.0 24.4 5.0 24.5 4.65 24.0 4.65 Q22.6 4.75 22.15 5.25 22.0 5.45 22.0 5.7 L22.0 5.75 22.0 5.85 22.05 6.3 23.0 6.15 23.7 5.8 23.85 5.75 23.3 7.05 23.0 7.4 22.1 8.1 21.05 8.45 Q19.5 8.95 19.25 10.5 L18.95 11.55 18.1 12.3 16.35 13.8 15.35 14.7 15.35 15.2 16.25 15.25 Q16.15 16.5 17.5 16.95 M81.6 16.45 L81.65 16.85 Q81.3 17.45 80.55 17.2 L81.6 16.45 M63.3 6.0 L62.5 5.8 Q62.05 6.05 62.15 6.8 L62.6 6.85 63.55 6.8 Q63.95 6.6 63.8 6.0 L63.3 6.0 M60.2 14.1 L60.1 15.65 Q59.85 16.45 58.45 16.9 L59.35 16.25 59.65 15.7 59.85 15.1 60.2 14.1 M58.3 17.0 L58.65 17.0 57.95 17.25 58.3 17.0 M61.45 15.05 L61.5 14.9 61.7 13.45 61.65 11.95 Q61.65 10.95 61.1 10.3 L62.85 8.35 63.0 9.5 63.0 11.5 Q63.0 13.3 62.6 14.75 61.95 16.8 59.8 17.4 L56.55 17.7 57.85 17.3 59.6 17.0 Q60.75 16.35 61.45 15.05 M45.3 12.65 L45.85 11.6 46.0 11.5 47.0 11.0 Q47.0 13.9 45.3 15.0 L43.65 15.2 42.05 14.6 43.75 14.3 45.1 13.25 45.3 12.65 M14.55 2.85 L14.85 2.85 15.35 2.95 14.45 3.05 14.55 2.85 M17.6 9.15 L18.2 9.3 17.65 10.4 17.6 9.15 M15.85 19.8 Q16.45 19.45 17.2 20.3 L17.3 21.8 16.8 22.65 15.9 23.3 15.3 23.85 15.2 22.95 15.05 21.7 Q14.9 20.55 15.55 19.95 L15.85 19.8 M22.75 19.6 L21.25 17.8 Q21.0 19.1 22.75 19.6" fill="#55351e" fill-rule="evenodd" stroke="none"/>
      <path d="M150.0 29.0 L150.0 33.0 148.5 33.0 148.5 33.1 148.05 32.6 147.8 32.45 147.25 32.15 146.3 31.8 145.35 32.05 Q141.1 33.4 140.05 32.5 L140.9 31.75 140.8 31.8 140.7 31.8 139.05 32.1 137.05 32.25 133.2 32.45 131.45 32.75 129.2 32.5 130.05 32.45 130.85 32.35 147.15 29.0 150.0 29.0 M125.1 13.0 L125.5 13.0 Q125.9 13.15 126.15 13.55 L124.9 13.4 Q124.7 13.95 125.2 14.25 125.2 14.8 125.85 14.95 L126.95 14.95 127.0 14.25 126.65 14.2 126.65 13.65 126.2 13.6 Q126.4 13.3 126.7 13.25 L126.75 13.25 127.3 13.3 127.5 13.35 127.95 13.95 127.9 15.15 Q127.8 15.8 127.15 15.9 L126.35 16.0 125.25 15.8 124.85 17.05 Q124.0 18.25 121.95 18.25 L121.5 18.25 119.6 17.9 Q118.45 17.35 118.45 15.8 118.45 15.05 118.85 14.35 119.3 13.6 119.95 13.3 120.9 12.95 121.8 13.65 L120.9 13.9 Q120.25 13.25 119.65 13.9 119.15 14.45 119.15 15.2 119.15 15.85 119.5 16.3 119.65 16.9 120.25 17.1 L121.55 17.25 Q123.5 17.25 124.0 16.5 L124.3 15.25 124.3 14.85 124.2 14.5 123.9 14.15 Q123.7 13.25 122.9 13.4 L122.35 13.5 Q122.6 13.1 123.05 13.0 123.9 12.85 124.5 13.3 124.8 13.0 125.1 13.0 M128.0 17.55 L128.5 17.5 127.5 18.8 126.45 20.05 Q126.15 20.3 125.6 20.4 L124.75 20.65 123.75 21.55 Q122.8 22.25 120.6 22.1 118.7 21.95 117.5 21.4 118.15 21.1 118.9 20.95 L121.25 20.6 122.55 20.4 Q123.3 20.25 123.85 19.7 L124.9 18.45 Q125.55 17.8 126.2 17.75 L126.5 17.75 128.0 17.55 M107.65 22.55 L107.0 22.3 109.5 21.25 Q110.55 20.5 110.5 19.0 L111.75 18.5 111.75 20.95 Q111.6 22.05 111.0 22.45 L109.0 22.8 107.65 22.55 M98.65 22.55 Q96.75 24.35 95.0 24.8 L93.1 24.9 91.2 24.95 90.25 25.7 89.25 26.5 87.75 26.75 Q84.0 26.75 82.55 25.55 L84.35 25.5 86.1 25.3 87.25 24.4 88.25 23.3 Q89.1 22.6 90.3 22.75 L92.5 23.25 94.25 23.45 96.0 23.5 99.25 22.0 98.65 22.55 M90.45 21.55 L88.95 21.2 88.1 20.8 Q86.7 20.0 86.35 19.05 85.8 17.75 86.5 16.8 87.1 16.0 88.5 15.75 L90.9 15.7 91.5 15.75 Q91.9 15.75 92.2 16.05 L92.5 16.75 Q92.5 17.5 91.7 17.7 L91.5 16.75 91.25 16.7 91.15 16.15 88.2 16.2 Q86.35 16.5 86.95 18.1 L87.25 18.55 87.25 18.65 Q87.75 19.95 89.95 20.45 92.15 21.0 92.0 19.25 L91.8 18.25 91.9 18.25 Q92.3 18.2 92.65 18.5 L92.95 19.15 Q93.1 21.15 91.35 21.45 L90.7 21.55 90.45 21.55 M82.0 13.5 Q82.65 14.35 82.8 15.15 L83.0 16.95 82.7 18.35 81.75 19.4 Q80.8 20.2 79.7 20.45 79.75 21.8 78.4 23.15 L77.4 24.65 76.95 26.45 76.0 25.9 75.0 25.15 73.7 24.45 72.25 24.25 65.25 23.9 65.3 24.4 65.05 26.15 Q64.7 27.0 64.15 27.5 63.6 27.95 62.85 28.15 L63.2 28.15 63.6 28.2 64.85 28.5 Q66.15 28.9 66.85 29.4 L67.0 29.35 71.05 29.4 75.15 29.05 76.0 28.65 Q76.55 28.3 76.75 28.25 L76.95 28.2 77.3 28.3 78.0 28.7 81.1 30.0 82.05 30.6 83.0 30.95 85.95 31.25 Q90.9 31.8 89.9 29.2 L88.45 29.7 87.55 29.45 Q86.5 28.7 87.1 27.35 87.35 26.85 87.85 26.8 L89.2 26.75 Q89.65 26.9 89.9 27.3 L90.15 27.5 Q90.85 28.2 90.25 28.85 L91.45 28.6 Q92.2 28.45 92.25 27.5 L96.1 27.35 100.0 27.5 104.4 27.0 107.0 26.05 108.55 25.35 109.5 24.75 111.0 24.15 112.0 23.0 117.5 23.75 120.75 23.0 Q119.2 26.5 114.0 25.7 112.1 25.45 110.25 26.7 109.0 27.7 107.7 27.35 L105.0 28.8 Q103.6 29.55 100.45 30.05 L98.7 30.2 Q97.35 30.35 97.25 30.9 97.6 31.25 98.35 31.25 L99.55 31.25 101.65 31.65 106.0 31.75 107.85 31.2 109.65 30.55 110.3 30.1 110.8 29.65 111.15 29.3 Q111.3 29.15 111.65 29.3 L112.0 29.45 112.45 29.85 113.0 30.3 114.2 30.5 Q114.05 31.2 114.35 31.45 114.5 31.65 115.3 31.85 L118.4 32.4 Q120.1 32.35 120.75 31.0 L118.0 30.0 117.15 30.1 117.3 29.05 117.45 27.95 Q117.75 27.05 118.15 27.45 L119.05 28.5 120.1 28.95 Q121.7 29.35 123.95 29.0 L124.6 28.8 127.3 27.75 Q128.8 27.4 128.15 28.6 L128.05 28.7 Q127.65 29.3 126.25 29.7 124.8 30.05 124.5 30.55 123.95 31.5 125.45 32.05 L126.25 32.15 126.9 32.3 126.9 32.35 127.0 32.5 126.9 32.6 125.75 33.25 124.6 33.3 123.45 33.25 120.3 33.3 117.1 33.1 115.2 32.75 114.75 33.05 Q107.35 34.15 101.6 32.75 L96.3 32.0 94.5 31.95 92.7 32.0 91.0 32.45 89.4 33.1 85.1 34.1 Q84.9 33.85 84.35 33.7 L79.15 33.85 Q74.75 33.95 74.4 32.75 L76.55 32.65 Q77.9 32.5 78.4 31.75 L77.8 31.7 76.95 31.65 75.6 31.55 72.8 31.45 Q69.05 31.15 65.6 29.9 L66.05 30.2 66.55 30.55 66.15 30.4 67.0 30.9 67.5 30.85 67.6 30.85 67.35 30.8 67.5 30.75 68.05 30.75 68.4 31.05 68.25 31.0 68.7 31.65 68.7 31.75 69.35 32.3 69.45 32.4 71.8 33.55 72.1 33.7 69.85 33.8 67.5 33.95 67.0 34.05 61.2 34.5 51.65 34.2 48.7 33.45 Q46.9 32.95 45.7 33.0 L38.95 33.1 38.85 33.05 37.85 32.95 33.4 32.45 28.5 31.8 24.55 30.85 21.25 30.55 17.95 30.45 17.15 30.5 Q14.4 30.5 14.15 29.8 14.05 29.35 14.55 28.7 L16.0 27.55 16.1 27.5 17.3 26.35 15.65 26.25 15.55 26.25 15.4 26.25 14.9 26.15 Q14.35 26.0 14.15 25.7 L13.9 24.95 13.85 24.45 13.85 23.95 13.85 23.85 13.75 22.0 13.75 21.35 Q13.75 20.65 13.9 20.2 14.05 19.6 14.65 19.35 L14.85 19.3 14.85 19.25 16.2 18.8 Q16.0 18.35 15.15 18.5 L13.85 18.55 14.2 17.85 14.55 17.15 14.5 16.65 Q14.4 15.9 14.55 15.5 L14.6 15.45 14.6 15.4 14.75 15.15 14.85 15.0 14.85 15.15 Q14.6 15.85 14.65 16.65 L14.7 17.15 14.75 17.45 14.8 17.3 15.15 16.7 15.65 16.75 17.5 17.0 17.5 16.95 17.45 16.15 18.1 17.1 Q18.55 17.45 19.0 17.5 L19.25 18.75 19.3 20.0 Q19.15 20.65 18.25 21.5 L16.95 22.55 17.95 21.8 Q17.5 22.2 17.2 22.75 L16.0 24.7 15.85 24.9 15.45 24.8 15.5 24.9 15.55 25.0 15.65 25.1 Q15.9 25.4 16.45 25.4 L17.0 25.35 Q17.65 25.2 18.05 24.2 18.45 23.2 19.05 23.05 L18.9 24.2 Q18.85 24.9 19.05 25.15 19.3 25.4 19.85 25.45 L20.7 25.5 22.7 25.95 20.85 26.55 19.05 27.25 18.05 27.7 16.8 28.35 16.2 28.7 Q15.95 28.95 16.0 29.3 L16.05 29.5 17.25 28.95 Q17.7 28.7 19.1 28.2 L19.75 27.95 20.05 28.0 20.35 27.95 22.2 27.25 23.9 27.0 Q24.85 26.85 25.35 26.25 L26.15 24.9 26.55 23.45 26.45 23.2 24.25 20.95 22.75 19.6 24.0 19.9 Q24.95 20.15 25.35 20.55 25.8 21.0 26.05 21.95 L28.15 22.45 28.25 22.25 Q29.15 22.35 29.7 21.9 30.25 21.4 30.0 20.5 29.75 20.5 29.35 20.1 L30.8 19.85 32.35 20.05 32.7 20.2 32.65 20.35 32.6 20.45 32.3 21.2 32.8 21.3 35.15 21.8 37.45 21.7 38.1 21.25 38.95 19.95 39.8 18.8 39.55 21.25 39.5 21.4 Q39.35 23.7 37.2 23.75 L30.55 24.0 Q28.6 24.0 28.8 25.45 L30.4 25.55 31.85 25.9 32.35 26.95 32.85 28.15 33.85 28.95 31.8 29.0 Q33.7 31.35 39.3 31.25 41.0 31.2 42.55 30.0 L44.15 28.85 45.25 27.5 42.0 28.15 Q43.0 27.35 43.55 27.2 L45.05 27.2 46.55 27.25 Q47.35 27.1 48.0 26.55 48.75 25.95 48.8 25.25 48.85 24.55 48.0 24.25 47.1 23.9 47.0 23.3 48.2 24.05 50.15 24.05 L51.85 23.95 55.75 24.05 54.9 24.8 54.45 25.05 54.45 25.8 54.35 26.05 Q55.1 26.35 55.0 27.05 54.95 27.7 54.5 28.2 54.05 28.7 53.35 28.8 L53.05 28.8 Q51.7 28.8 51.3 27.55 L51.2 26.8 Q50.3 27.65 50.35 29.1 L50.35 29.2 53.15 29.55 56.05 29.45 57.7 29.55 59.45 29.2 61.0 28.55 61.8 28.3 61.55 28.3 60.25 28.15 Q59.1 27.8 58.55 26.8 58.0 25.75 58.3 24.5 58.85 22.2 61.55 22.5 61.95 22.5 62.15 22.8 L61.15 22.9 Q59.25 22.75 58.95 24.15 58.7 25.2 59.35 26.0 59.7 26.9 60.55 27.2 L62.1 27.3 Q63.0 27.2 63.5 26.75 64.1 26.2 64.25 25.15 64.4 24.35 64.15 23.8 L64.0 23.5 63.9 23.4 63.4 22.65 62.9 22.7 62.9 22.65 Q63.1 22.3 63.55 22.25 L64.3 22.4 Q64.95 22.8 65.2 23.65 L67.9 23.0 70.75 21.95 73.15 21.9 75.5 21.7 76.1 21.65 Q76.4 21.65 76.65 21.25 77.05 20.6 76.6 19.75 L76.25 19.55 73.9 19.1 71.5 18.7 70.75 18.35 Q71.55 17.55 73.85 17.95 L77.05 18.7 77.45 18.7 Q78.9 18.95 80.15 18.7 81.65 18.35 81.65 17.05 L81.65 16.85 81.6 16.45 81.5 15.5 82.0 13.5 M149.45 20.0 L149.4 20.45 Q149.1 21.15 148.0 21.25 147.9 22.65 147.5 23.2 147.0 23.75 145.75 23.75 L143.9 23.75 142.55 23.95 141.65 25.05 140.8 25.65 139.8 25.2 138.65 24.95 137.5 24.75 Q136.85 24.6 135.95 24.05 L134.5 23.25 135.8 23.3 136.95 23.25 Q139.8 23.15 141.0 22.2 L141.85 20.9 Q142.4 19.95 142.8 19.75 L143.8 19.8 Q142.6 18.45 143.85 16.05 L143.9 16.0 Q144.4 18.15 145.75 19.0 146.65 19.5 149.25 20.0 L149.45 20.0 M140.15 8.7 L140.15 8.15 139.15 8.1 138.15 8.15 Q137.7 8.4 137.55 9.35 137.45 10.3 137.8 10.7 L137.9 10.75 138.15 11.25 Q138.7 11.8 139.6 11.55 140.5 11.35 140.5 10.5 L140.5 8.75 140.15 8.7 M137.95 7.9 L140.1 7.7 140.5 7.75 Q140.95 7.75 141.2 8.05 141.5 8.3 141.45 8.75 141.45 9.35 140.95 9.6 141.4 9.85 141.5 10.45 141.5 11.85 140.2 12.4 L139.15 12.6 Q138.1 12.6 137.45 11.95 136.75 11.25 136.9 9.9 137.1 8.45 137.95 7.9 M140.55 16.3 L141.25 15.5 Q141.15 18.65 140.55 20.05 139.6 22.25 137.0 22.5 L134.55 22.4 Q132.75 22.15 132.65 21.45 L133.3 21.2 135.15 21.1 137.0 20.95 137.55 20.8 138.3 20.3 Q139.9 18.9 139.75 17.25 L140.55 16.3 M114.5 6.5 Q114.8 6.25 115.25 6.25 L115.95 6.5 116.0 6.55 116.0 6.6 116.15 6.55 116.95 6.55 117.25 6.85 117.6 7.4 Q117.9 6.8 118.6 6.6 L120.45 6.45 121.35 6.6 121.65 6.75 121.75 6.75 Q122.15 6.75 122.45 7.05 L122.75 7.75 Q122.65 9.25 121.9 9.9 L120.8 10.35 120.4 10.35 119.3 10.2 118.6 10.0 117.55 9.1 117.5 9.0 116.8 9.45 116.25 9.45 Q114.55 9.45 114.0 8.45 113.6 7.45 114.5 6.5 M132.1 18.3 Q131.65 17.35 132.15 16.65 132.65 15.9 133.95 16.0 L134.2 16.0 Q134.8 16.0 135.1 16.45 L135.7 16.55 136.2 17.15 136.1 17.95 Q135.55 19.05 134.0 19.05 L133.05 18.95 132.9 18.95 Q132.35 18.85 132.1 18.3 M134.65 17.2 L134.9 16.9 133.9 16.4 132.85 16.45 Q132.4 16.65 132.7 17.35 L132.9 17.4 133.0 17.95 134.25 18.05 Q135.0 18.0 135.25 17.5 L134.65 17.2 M140.15 26.65 L139.7 26.45 140.45 26.0 140.5 26.0 140.95 26.15 140.95 26.1 Q141.55 25.35 142.35 25.95 L143.0 25.75 143.7 26.05 144.0 26.75 144.0 27.05 Q144.2 28.8 143.05 29.2 L142.4 29.3 141.55 29.1 141.45 29.45 140.7 29.9 138.4 30.25 134.5 30.75 132.55 30.5 Q129.9 29.95 130.5 27.15 130.85 25.35 132.65 24.75 L135.65 24.45 136.25 24.5 Q136.65 24.5 136.9 24.75 L137.2 25.45 135.9 24.9 133.05 25.0 Q131.4 25.35 131.15 26.75 130.85 27.95 131.4 28.5 131.6 29.25 132.75 29.55 134.3 29.9 136.7 29.55 L140.6 28.9 140.5 27.25 140.15 27.1 140.15 26.65 M141.55 27.5 Q141.85 28.55 142.7 28.25 L143.0 27.6 143.0 26.75 142.7 26.75 142.65 26.15 141.4 26.15 Q141.15 26.45 141.2 26.85 141.25 27.25 141.55 27.5 M121.35 7.6 L121.4 7.15 120.65 6.9 119.2 6.8 Q118.3 6.85 118.1 7.3 117.8 8.0 118.35 8.35 118.4 9.05 119.5 9.25 L121.2 9.15 Q121.7 8.85 121.75 7.75 L121.35 7.6 M116.4 7.45 L116.15 6.9 114.9 6.65 Q114.15 7.4 114.9 7.7 114.75 8.15 115.45 8.35 L116.7 8.45 Q116.85 7.95 116.5 7.5 L116.4 7.45 M95.65 7.75 L96.0 8.45 95.7 9.15 95.55 9.3 96.1 9.75 96.2 10.5 96.05 10.85 95.95 11.35 Q96.05 12.3 95.1 12.45 L93.4 12.55 Q91.75 12.55 91.05 11.75 90.3 10.85 90.7 9.5 90.95 8.7 91.65 8.05 92.3 7.4 93.15 7.15 94.65 6.75 95.65 7.75 M94.7 8.3 L94.65 7.9 Q93.8 7.15 92.65 7.7 91.6 8.25 91.35 9.2 91.05 10.2 91.6 10.6 91.8 11.85 94.95 11.45 L95.25 10.25 95.0 8.5 94.7 8.3 M89.0 27.75 L89.15 27.65 88.65 27.15 87.7 27.2 Q87.35 27.9 87.9 28.1 87.85 28.7 88.45 28.7 89.05 28.7 89.5 28.25 L89.0 27.75 M54.05 7.75 L55.35 7.75 Q55.7 7.75 55.95 8.0 L56.05 8.15 54.95 8.15 54.1 8.15 52.2 8.35 52.15 8.35 51.15 8.7 50.5 9.05 50.3 9.2 50.25 9.25 50.2 9.3 50.15 9.3 50.1 9.35 49.85 9.6 Q49.3 10.3 49.45 11.15 49.5 11.75 49.85 12.0 L50.35 12.7 51.5 13.05 53.9 13.8 Q55.5 14.1 56.3 13.5 57.35 12.75 57.65 11.3 58.0 9.9 57.5 8.75 L57.35 8.75 57.2 8.15 56.75 8.15 56.9 8.0 57.15 7.8 Q57.55 7.65 57.9 7.8 L58.45 8.35 58.7 9.2 Q58.95 10.35 58.6 11.65 58.15 13.35 56.9 14.3 56.1 14.9 54.9 14.9 53.7 14.9 51.4 14.05 L51.15 14.0 50.6 13.8 49.45 13.3 Q48.95 12.85 48.8 11.9 48.6 10.55 49.45 9.55 50.1 8.7 51.15 8.3 L52.3 7.95 54.05 7.75 M78.45 8.9 L78.45 9.05 78.7 9.85 Q78.35 12.25 76.1 12.45 L75.25 12.5 Q73.75 12.5 73.15 11.5 72.7 10.65 73.1 9.55 73.6 8.15 74.6 7.75 L76.55 7.85 77.4 8.0 Q77.8 7.95 78.15 8.25 L78.45 8.9 M73.9 10.65 L74.0 11.0 Q74.4 11.7 76.0 11.45 77.5 11.3 77.75 9.75 L77.5 9.0 77.35 8.95 77.15 8.4 75.8 8.2 74.6 8.1 Q74.1 8.3 73.8 9.1 73.4 9.95 73.7 10.4 L73.9 10.65 M37.9 11.7 L37.2 13.9 36.25 14.7 34.95 14.75 30.1 14.7 29.1 14.75 30.85 13.7 33.55 13.5 36.15 13.0 36.75 12.15 37.0 11.25 38.1 10.15 38.25 10.0 38.25 10.15 37.9 11.7 M24.05 11.45 L24.0 11.45 23.85 11.2 Q23.15 10.2 23.9 8.5 24.9 6.45 27.25 5.8 L31.35 5.45 32.0 5.5 32.15 5.5 Q32.85 5.55 33.0 6.25 L33.1 6.3 Q34.5 6.8 34.85 7.95 35.35 9.4 34.3 11.0 33.3 12.6 30.5 12.6 L28.5 12.5 28.5 12.6 Q28.95 12.8 29.0 13.2 29.15 14.45 27.85 14.95 L26.75 15.1 Q25.35 15.1 24.75 14.25 24.0 13.2 24.5 12.2 L24.7 12.0 24.05 11.45 M16.2 3.4 L15.2 4.2 13.75 5.5 13.7 3.55 13.6 2.9 13.4 2.2 14.85 2.3 14.55 2.85 14.45 3.05 15.35 2.95 16.7 2.8 16.2 3.4 M51.8 15.0 L52.55 15.15 53.0 15.75 53.15 15.75 53.9 15.95 54.25 16.6 54.25 17.25 54.4 17.25 55.1 17.4 55.5 18.0 55.55 18.0 56.3 18.15 Q56.7 18.4 56.75 18.75 L56.75 19.95 Q56.6 20.55 55.95 20.7 L55.1 20.75 Q53.55 20.75 53.1 19.65 52.35 20.25 51.3 20.25 L50.95 20.25 Q49.7 20.1 49.2 19.4 48.85 18.95 48.85 18.4 48.8 17.35 49.75 16.25 50.7 15.25 51.8 15.0 M52.95 16.55 L52.95 16.15 51.7 15.4 Q50.65 15.6 49.9 16.7 49.1 17.8 49.85 18.35 49.95 19.1 51.05 19.25 52.15 19.35 52.8 18.6 53.4 17.85 53.25 16.75 L52.95 16.55 M53.95 19.0 L54.0 19.25 Q54.3 19.95 55.75 19.7 L55.75 19.0 55.45 18.8 55.45 18.4 54.2 17.65 53.7 18.0 53.65 18.65 53.95 19.0 M62.9 17.7 L62.9 16.9 61.45 17.15 Q61.25 17.65 61.45 18.35 L61.7 18.4 61.75 18.95 Q63.2 19.15 63.25 18.25 L63.25 17.5 62.9 17.7 M63.25 16.45 Q63.65 16.45 63.95 16.75 64.4 17.2 64.15 17.85 L64.2 18.3 Q64.2 19.1 63.6 19.6 63.15 20.0 62.35 20.0 L61.6 19.95 Q60.9 19.8 60.8 19.1 60.6 18.1 60.9 17.4 61.05 16.75 61.75 16.75 L62.55 16.75 Q62.85 16.45 63.25 16.45 M53.45 25.6 L53.2 24.9 52.35 25.65 Q51.9 25.95 51.9 26.4 L51.9 26.6 51.9 26.65 52.2 27.05 52.25 27.25 Q52.45 27.85 53.2 27.8 53.95 27.7 54.0 27.0 L53.5 25.5 53.45 25.6 M50.05 31.7 Q50.1 32.4 52.4 32.85 54.75 33.3 54.75 32.5 L52.0 30.75 50.75 30.95 Q50.0 31.1 50.05 31.7 M65.2 30.0 L65.1 30.0 67.0 32.75 65.2 30.0 M24.55 10.3 Q24.7 11.05 25.65 11.3 L27.45 11.45 27.8 11.5 30.9 11.6 Q32.8 11.5 33.45 10.45 34.55 8.8 33.55 7.75 33.3 6.95 32.45 6.65 L31.7 5.9 27.65 6.1 Q25.35 6.55 24.5 8.35 23.8 9.75 24.55 10.3 M27.7 12.7 L27.7 12.65 27.2 11.9 25.7 12.0 Q24.7 12.25 25.25 13.1 L25.35 13.2 25.55 13.65 Q25.9 14.2 27.0 14.05 28.1 13.95 28.0 13.25 L27.7 12.7 M15.45 12.7 L17.0 11.55 16.0 12.65 15.45 12.7 M15.85 19.8 L15.55 19.95 Q14.9 20.55 15.05 21.7 L15.2 22.95 15.3 23.85 15.9 23.3 16.8 22.65 17.3 21.8 17.2 20.3 Q16.45 19.45 15.85 19.8 M22.75 19.6 Q21.0 19.1 21.25 17.8 L22.75 19.6 M18.9 28.95 Q19.2 29.55 20.3 29.85 L22.0 30.0 Q23.4 30.0 24.65 28.9 L25.75 27.75 24.95 27.1 24.75 27.0 Q24.3 26.95 23.8 27.3 L22.95 27.85 Q22.3 28.2 20.9 28.4 L18.9 28.95 M25.6 29.85 L25.55 30.45 26.95 30.4 Q27.25 30.2 27.25 29.25 L26.0 29.5 25.6 29.85" fill="#4b2e1b" fill-rule="evenodd" stroke="none"/>
      <path d="M137.9 10.75 L137.8 10.7 Q137.45 10.3 137.55 9.35 137.7 8.4 138.15 8.15 L139.15 8.1 140.15 8.15 140.15 8.7 138.45 8.75 Q138.15 8.95 138.0 9.6 137.8 10.2 137.9 10.75 M132.9 17.4 L132.7 17.35 Q132.4 16.65 132.85 16.45 L133.9 16.4 134.9 16.9 134.65 17.2 134.25 17.0 133.4 17.0 Q132.95 17.1 132.9 17.4 M126.2 13.6 L126.65 13.65 126.65 14.2 125.25 14.0 125.2 14.25 Q124.7 13.95 124.9 13.4 L126.15 13.55 126.2 13.6 M140.15 26.65 L140.15 27.1 136.25 25.5 133.35 25.6 Q131.75 25.95 131.45 27.35 131.3 27.95 131.4 28.5 130.85 27.95 131.15 26.75 131.4 25.35 133.05 25.0 L135.9 24.9 137.2 25.45 140.15 26.65 M141.55 27.5 Q141.25 27.25 141.2 26.85 141.15 26.45 141.4 26.15 L142.65 26.15 142.7 26.75 141.75 26.75 Q141.45 27.05 141.55 27.5 M121.0 7.5 L119.55 7.4 Q118.65 7.4 118.45 7.9 L118.35 8.35 Q117.8 8.0 118.1 7.3 118.3 6.85 119.2 6.8 L120.65 6.9 121.4 7.15 121.35 7.6 121.0 7.5 M114.9 7.7 Q114.15 7.4 114.9 6.65 L116.15 6.9 116.4 7.45 115.25 7.25 114.9 7.7 M122.35 13.5 L122.9 13.4 Q123.7 13.25 123.9 14.15 123.65 13.9 123.25 14.0 L121.25 14.5 Q120.6 13.85 120.0 14.5 119.45 15.05 119.45 15.8 L119.5 16.3 Q119.15 15.85 119.15 15.2 119.15 14.45 119.65 13.9 120.25 13.25 120.9 13.9 L121.8 13.65 122.35 13.5 M91.6 10.6 Q91.05 10.2 91.35 9.2 91.6 8.25 92.65 7.7 93.8 7.15 94.65 7.9 L94.7 8.3 92.85 8.4 Q91.9 8.9 91.65 9.8 L91.6 10.6 M87.25 18.55 L86.95 18.1 Q86.35 16.5 88.2 16.2 L91.15 16.15 91.25 16.7 88.45 16.8 Q86.75 17.15 87.25 18.55 M87.9 28.1 Q87.35 27.9 87.7 27.2 L88.65 27.15 89.15 27.65 89.0 27.75 88.0 27.75 87.9 28.1 M73.9 10.65 L73.7 10.4 Q73.4 9.95 73.8 9.1 74.1 8.3 74.6 8.1 L75.8 8.2 77.15 8.4 77.35 8.95 74.95 8.7 Q74.55 8.85 74.2 9.5 73.85 10.15 73.9 10.65 M62.9 22.7 L63.4 22.65 63.9 23.4 63.75 23.25 61.5 23.5 Q59.55 23.35 59.25 24.75 59.1 25.35 59.35 26.0 58.7 25.2 58.95 24.15 59.25 22.75 61.15 22.9 L62.15 22.8 62.9 22.7 M56.75 8.15 L57.2 8.15 57.35 8.75 55.25 8.75 52.55 8.95 Q50.9 9.3 50.2 10.15 49.6 10.9 49.8 11.75 L49.85 12.0 Q49.5 11.75 49.45 11.15 49.3 10.3 49.85 9.6 L50.1 9.35 50.15 9.3 50.2 9.3 50.25 9.25 50.3 9.2 50.5 9.05 51.15 8.7 52.15 8.35 52.2 8.35 54.1 8.15 54.95 8.15 56.05 8.15 56.75 8.15 M49.85 18.35 Q49.1 17.8 49.9 16.7 50.65 15.6 51.7 15.4 L52.95 16.15 52.95 16.55 52.5 16.3 52.0 16.0 Q51.25 16.15 50.55 16.9 49.8 17.7 49.85 18.35 M53.95 19.0 L53.65 18.65 53.7 18.0 54.2 17.65 55.45 18.4 55.45 18.8 55.0 18.55 54.5 18.25 Q53.95 18.25 53.95 19.0 M61.7 18.4 L61.45 18.35 Q61.25 17.65 61.45 17.15 L62.9 16.9 62.9 17.7 61.8 17.75 61.7 18.4 M52.2 27.05 L51.9 26.65 51.9 26.6 51.9 26.4 Q51.9 25.95 52.35 25.65 L53.2 24.9 53.45 25.6 52.7 26.2 Q52.15 26.6 52.2 27.05 M24.55 10.3 Q23.8 9.75 24.5 8.35 25.35 6.55 27.65 6.1 L31.7 5.9 32.45 6.65 Q33.3 6.95 33.55 7.75 L32.75 7.25 32.0 6.5 27.95 6.7 Q25.7 7.15 24.8 8.95 24.4 9.8 24.55 10.3 M25.35 13.2 L25.25 13.1 Q24.7 12.25 25.7 12.0 L27.2 11.9 27.7 12.65 27.7 12.7 27.5 12.5 Q25.25 12.5 25.35 13.2" fill="#777167" fill-rule="evenodd" stroke="none"/>
      <path d="M140.15 8.7 L140.5 8.75 140.5 10.5 Q140.5 11.35 139.6 11.55 138.7 11.8 138.15 11.25 L137.9 10.75 Q137.8 10.2 138.0 9.6 138.15 8.95 138.45 8.75 L140.15 8.7 M132.9 17.4 Q132.95 17.1 133.4 17.0 L134.25 17.0 134.65 17.2 135.25 17.5 Q135.0 18.0 134.25 18.05 L133.0 17.95 132.9 17.4 M126.65 14.2 L127.0 14.25 126.95 14.95 125.85 14.95 Q125.2 14.8 125.2 14.25 L125.25 14.0 126.65 14.2 M140.15 27.1 L140.5 27.25 140.6 28.9 136.7 29.55 Q134.3 29.9 132.75 29.55 131.6 29.25 131.4 28.5 131.3 27.95 131.45 27.35 131.75 25.95 133.35 25.6 L136.25 25.5 140.15 27.1 M142.7 26.75 L143.0 26.75 143.0 27.6 142.7 28.25 Q141.85 28.55 141.55 27.5 141.45 27.05 141.75 26.75 L142.7 26.75 M118.35 8.35 L118.45 7.9 Q118.65 7.4 119.55 7.4 L121.0 7.5 121.75 7.75 Q121.7 8.85 121.2 9.15 L119.5 9.25 Q118.4 9.05 118.35 8.35 M116.4 7.45 L116.5 7.5 Q116.85 7.95 116.7 8.45 L115.45 8.35 Q114.75 8.15 114.9 7.7 L115.25 7.25 116.4 7.45 M123.9 14.15 L124.2 14.5 124.3 14.85 124.3 15.25 124.0 16.5 Q123.5 17.25 121.55 17.25 L120.25 17.1 Q119.65 16.9 119.5 16.3 L119.45 15.8 Q119.45 15.05 120.0 14.5 120.6 13.85 121.25 14.5 L123.25 14.0 Q123.65 13.9 123.9 14.15 M94.7 8.3 L95.0 8.5 95.25 10.25 94.95 11.45 Q91.8 11.85 91.6 10.6 L91.65 9.8 Q91.9 8.9 92.85 8.4 L94.7 8.3 M91.25 16.7 L91.5 16.75 91.7 17.7 91.8 18.25 92.0 19.25 Q92.15 21.0 89.95 20.45 87.75 19.95 87.25 18.65 L87.25 18.55 Q86.75 17.15 88.45 16.8 L91.25 16.7 M87.9 28.1 L88.0 27.75 89.0 27.75 89.5 28.25 Q89.05 28.7 88.45 28.7 87.85 28.7 87.9 28.1 M77.35 8.95 L77.5 9.0 77.75 9.75 Q77.5 11.3 76.0 11.45 74.4 11.7 74.0 11.0 L73.9 10.65 Q73.85 10.15 74.2 9.5 74.55 8.85 74.95 8.7 L77.35 8.95 M63.9 23.4 L64.0 23.5 64.15 23.8 Q64.4 24.35 64.25 25.15 64.1 26.2 63.5 26.75 63.0 27.2 62.1 27.3 L60.55 27.2 Q59.7 26.9 59.35 26.0 59.1 25.35 59.25 24.75 59.55 23.35 61.5 23.5 L63.75 23.25 63.9 23.4 M57.35 8.75 L57.5 8.75 Q58.0 9.9 57.65 11.3 57.35 12.75 56.3 13.5 55.5 14.1 53.9 13.8 L51.5 13.05 50.35 12.7 49.85 12.0 49.8 11.75 Q49.6 10.9 50.2 10.15 50.9 9.3 52.55 8.95 L55.25 8.75 57.35 8.75 M49.85 18.35 Q49.8 17.7 50.55 16.9 51.25 16.15 52.0 16.0 L52.5 16.3 53.25 16.75 Q53.4 17.85 52.8 18.6 52.15 19.35 51.05 19.25 49.95 19.1 49.85 18.35 M55.75 19.0 L55.75 19.7 Q54.3 19.95 54.0 19.25 L53.95 19.0 Q53.95 18.25 54.5 18.25 L55.0 18.55 55.75 19.0 M62.9 17.7 L63.25 17.5 63.25 18.25 Q63.2 19.15 61.75 18.95 L61.7 18.4 61.8 17.75 62.9 17.7 M52.2 27.05 Q52.15 26.6 52.7 26.2 L53.45 25.6 53.5 25.5 54.0 27.0 Q53.95 27.7 53.2 27.8 52.45 27.85 52.25 27.25 L52.2 27.05 M33.55 7.75 Q34.55 8.8 33.45 10.45 32.8 11.5 30.9 11.6 L27.8 11.5 27.45 11.45 25.65 11.3 Q24.7 11.05 24.55 10.3 24.4 9.8 24.8 8.95 25.7 7.15 27.95 6.7 L32.0 6.5 32.75 7.25 33.55 7.75 M27.7 12.7 L28.0 13.25 Q28.1 13.95 27.0 14.05 25.9 14.2 25.55 13.65 L25.35 13.2 Q25.25 12.5 27.5 12.5 L27.7 12.7" fill="#615b53" fill-rule="evenodd" stroke="none"/>
      <path d="M137.65 38.0 L137.5 38.3 136.65 38.8 Q136.6 38.35 136.7 38.0 L137.15 37.3 138.0 37.3 137.85 37.6 137.65 38.0 M130.8 39.25 L130.35 39.95 129.9 38.6 129.85 38.0 Q129.9 37.6 130.3 37.3 L131.3 37.3 Q131.65 37.5 131.45 38.0 L131.45 38.05 Q130.5 38.55 130.5 39.3 L130.8 39.25 M65.5 38.0 L65.4 38.05 65.35 38.65 65.25 39.8 Q65.15 40.5 64.85 40.75 64.55 40.15 64.6 39.0 L64.65 38.0 64.65 37.2 64.15 37.45 64.15 38.0 63.7 39.3 63.6 38.0 63.7 37.35 63.65 37.3 63.7 37.25 63.8 37.0 63.9 37.05 Q64.35 36.65 64.8 36.85 L64.8 37.0 65.15 37.15 66.6 37.15 66.0 37.7 65.5 37.8 65.5 38.0 M9.9 39.5 L9.7 40.45 9.7 38.3 9.8 38.0 9.85 37.35 9.85 37.15 9.85 37.1 9.85 37.0 0.0 37.0 0.0 35.65 1.85 35.65 3.3 35.7 4.7 35.5 Q5.4 35.15 5.95 33.75 L6.7 31.65 Q6.05 34.05 6.2 35.45 L9.55 35.5 10.6 35.2 Q10.85 34.95 10.9 34.15 11.2 34.15 11.5 34.55 L12.0 35.25 12.0 36.3 12.0 36.8 12.0 36.95 12.0 37.0 11.95 37.0 10.7 37.0 Q10.1 37.35 9.95 38.0 9.75 38.6 9.9 39.5 M0.0 1.85 L0.0 0.0 12.0 0.0 12.0 2.25 11.5 2.55 10.95 3.5 10.2 4.15 10.15 2.8 Q9.4 3.15 9.15 3.85 L9.0 5.45 8.75 8.0 8.6 7.05 Q7.6 8.15 7.0 8.35 7.55 7.85 7.45 6.3 7.35 4.8 6.85 4.3 5.8 3.15 4.8 3.15 L3.95 2.95 3.65 2.0 0.0 1.85 M150.0 53.0 L150.0 58.0 0.0 58.0 0.0 53.0 1.4 53.0 Q2.8 52.5 4.7 52.35 L8.5 52.3 10.7 52.1 13.25 52.35 15.85 52.7 21.8 52.85 27.7 52.8 31.95 53.25 36.2 53.95 42.55 54.5 43.25 54.5 44.5 54.55 44.8 54.55 45.6 54.5 47.85 54.45 49.65 53.95 54.8 53.7 60.0 53.5 65.35 53.2 65.6 53.15 69.4 53.0 72.8 53.0 76.15 53.15 79.45 52.95 81.7 52.7 84.0 52.75 85.7 52.8 Q86.7 52.65 86.65 51.8 L88.9 51.8 91.1 51.95 95.8 51.85 100.45 52.0 99.75 52.55 Q99.3 52.9 99.3 53.25 100.45 53.9 102.95 54.0 L105.9 54.05 108.85 53.9 111.25 53.5 113.65 53.3 116.8 53.3 118.8 53.35 120.8 53.3 121.8 52.95 122.8 52.6 126.45 52.15 131.1 52.15 135.35 52.5 138.65 52.65 142.0 52.8 143.6 52.7 145.15 52.65 147.15 52.85 147.85 52.9 148.25 53.0 150.0 53.0 M132.0 46.3 L133.65 46.5 Q134.7 46.8 135.0 47.2 135.4 47.65 135.1 48.5 L134.35 49.4 133.15 49.65 131.5 49.5 Q130.5 49.25 130.3 48.45 130.05 47.65 132.0 46.3 M136.6 48.5 Q135.65 48.3 136.3 47.65 L137.3 47.8 Q137.5 48.7 136.6 48.5 M138.15 51.1 L137.15 51.2 136.15 51.0 Q135.2 50.55 135.75 49.85 136.3 49.2 137.15 49.15 L137.65 49.65 138.3 50.3 Q138.55 50.75 138.15 51.1 M146.65 48.3 L146.8 49.3 Q146.7 49.75 146.0 49.85 145.25 50.0 145.0 49.6 144.55 49.0 145.45 48.65 L146.65 48.3 M97.15 48.45 Q97.35 47.9 98.45 47.9 L100.15 48.0 101.15 49.0 101.0 50.2 99.5 50.4 98.0 50.0 Q96.8 49.4 97.15 48.45 M94.85 47.1 Q94.45 46.55 95.15 46.35 L96.15 46.3 96.5 46.8 Q96.65 47.3 95.85 47.4 95.05 47.45 94.85 47.1 M85.0 48.65 L85.3 48.5 86.3 48.5 86.35 49.0 86.15 49.15 Q85.65 49.2 85.0 48.65 M84.25 50.75 L83.7 51.0 84.5 50.45 84.25 50.75 M83.0 48.5 L84.25 48.65 Q84.7 48.9 84.65 49.65 L84.6 50.05 Q83.7 50.25 83.65 51.0 L83.05 51.0 81.7 50.9 Q80.8 50.75 80.6 50.25 80.55 50.1 80.85 48.85 L82.0 48.5 83.0 48.5 M6.35 11.1 L6.35 11.5 6.35 11.6 6.2 11.65 5.9 11.65 Q5.6 11.55 5.7 11.15 5.8 10.75 6.2 10.8 L6.35 11.0 6.35 11.1 M6.6 18.65 Q6.8 18.4 7.2 18.3 L7.2 19.0 Q7.0 19.5 6.35 19.3 L6.4 19.1 6.6 18.65 M8.6 17.3 L8.5 16.9 8.5 16.5 9.35 17.0 9.05 17.3 8.6 17.3 M9.2 14.3 L9.5 14.65 Q9.6 15.05 9.35 15.15 9.1 14.85 9.2 14.3 M8.5 15.0 Q8.5 15.45 8.1 15.7 L7.2 15.8 7.2 14.9 Q7.3 14.45 7.85 14.5 L8.5 15.0 M3.55 32.4 L3.5 32.4 2.05 32.3 Q1.6 31.8 2.2 31.25 2.75 30.75 3.35 30.65 L4.85 30.8 4.6 31.7 4.0 32.3 3.55 32.4 M3.5 28.5 L4.35 28.65 Q3.85 29.8 2.85 29.65 2.95 29.0 3.5 28.5 M6.85 48.15 L7.5 48.0 Q7.8 48.15 7.7 48.45 L6.9 48.45 Q6.75 48.3 6.85 48.15 M4.3 49.05 L5.85 49.15 6.0 49.0 Q6.55 49.9 5.9 50.55 5.35 51.1 4.4 51.0 2.9 50.7 3.2 49.65 3.35 49.05 4.3 49.05 M39.0 49.3 L40.2 49.0 Q41.85 49.3 40.35 49.9 39.0 50.5 39.0 49.3 M34.55 48.9 L36.2 48.65 38.2 49.65 38.4 50.65 38.15 51.65 Q37.6 52.35 36.1 52.25 34.85 52.15 34.05 51.7 L33.25 50.8 Q32.95 50.2 33.2 49.65 33.45 49.1 34.55 48.9 M28.35 49.15 Q27.95 49.5 27.5 49.05 27.2 48.7 27.45 48.3 L28.0 47.65 28.7 48.3 28.35 49.15 M2.2 9.15 Q2.0 8.7 2.4 8.1 2.8 7.45 3.2 7.8 L3.85 9.0 Q4.1 9.75 3.25 9.7 2.4 9.7 2.2 9.15 M14.85 51.8 L14.7 51.3 15.7 51.15 15.65 51.8 14.85 51.8 M13.7 50.8 Q13.6 50.4 13.75 50.1 13.95 49.8 14.35 49.8 L14.5 50.5 14.45 50.8 13.7 50.8 M18.7 50.0 L18.9 50.75 18.65 51.55 Q18.05 52.3 16.9 51.7 15.8 51.1 16.85 50.15 L17.0 49.8 17.9 49.75 18.7 50.0" fill="#5a5045" fill-rule="evenodd" stroke="none"/>
      <path d="M150.0 36.0 L150.0 38.0 137.65 38.0 137.85 37.6 137.85 37.95 Q138.3 38.0 138.65 37.15 L138.0 37.3 137.15 37.3 136.7 38.0 131.75 38.0 132.0 37.15 131.5 38.0 131.45 38.0 Q131.65 37.5 131.3 37.3 L130.3 37.3 Q129.9 37.6 129.85 38.0 L66.35 38.0 67.5 37.3 66.0 37.7 66.6 37.15 65.15 37.15 64.8 37.0 64.8 36.85 Q64.35 36.65 63.9 37.05 L63.8 37.0 63.7 37.25 63.65 37.3 63.7 37.35 63.6 38.0 10.6 38.0 10.65 37.9 11.4 37.3 11.95 37.0 12.0 37.0 12.0 36.95 12.15 36.85 12.2 37.0 12.8 36.0 150.0 36.0 M64.65 38.0 L64.15 38.0 64.15 37.45 64.65 37.2 64.65 38.0 M9.8 38.0 L0.0 38.0 0.0 37.0 9.85 37.0 9.85 37.1 9.85 37.15 9.85 37.35 9.8 38.0 M11.45 8.15 L11.5 3.35 12.0 3.1 12.0 35.1 11.55 30.45 11.35 26.9 Q11.25 20.65 11.45 8.15 M12.0 36.8 L12.0 36.3 12.15 36.8 12.0 36.8" fill="#908271" fill-rule="evenodd" stroke="none"/>
      <path d="M131.75 38.0 L130.8 39.25 130.5 39.3 Q130.5 38.55 131.45 38.05 L131.5 38.0 132.0 37.15 131.75 38.0 M66.35 38.0 L65.95 38.4 65.4 39.25 65.5 38.0 65.5 37.8 66.0 37.7 67.5 37.3 66.35 38.0 M10.6 38.0 L10.25 38.8 9.9 39.65 9.9 39.5 Q9.75 38.6 9.95 38.0 10.1 37.35 10.7 37.0 L11.95 37.0 11.4 37.3 10.65 37.9 10.6 38.0 M137.85 37.6 L138.0 37.3 138.65 37.15 Q138.3 38.0 137.85 37.95 L137.85 37.6 M12.0 36.95 L12.0 36.8 12.15 36.8 12.15 36.85 12.0 36.95" fill="#c4b099" fill-rule="evenodd" stroke="none"/>
      <path d="M0.0 35.65 L0.0 35.1 0.7 35.2 Q1.0 35.45 1.25 35.5 L2.05 35.45 3.2 34.85 2.55 34.35 Q3.2 34.1 3.5 32.4 L3.55 32.4 3.3 33.35 4.5 33.5 Q4.1 33.8 4.3 34.15 4.95 33.7 6.25 30.95 L8.05 27.15 9.55 23.4 8.7 28.8 Q8.05 31.9 6.9 33.9 L9.0 32.1 9.15 33.25 Q9.85 33.0 10.15 32.4 L10.7 31.2 11.5 30.55 11.55 30.45 12.0 35.1 12.0 35.25 11.5 34.55 Q11.2 34.15 10.9 34.15 10.85 34.95 10.6 35.2 L9.55 35.5 6.2 35.45 Q6.05 34.05 6.7 31.65 L5.95 33.75 Q5.4 35.15 4.7 35.5 L3.3 35.7 1.85 35.65 0.0 35.65 M0.0 4.0 L0.0 1.85 3.65 2.0 3.95 2.95 4.8 3.15 Q5.8 3.15 6.85 4.3 7.35 4.8 7.45 6.3 7.55 7.85 7.0 8.35 7.6 8.15 8.6 7.05 L8.75 8.0 9.0 5.45 9.15 3.85 Q9.4 3.15 10.15 2.8 L10.2 4.15 10.95 3.5 11.5 2.55 12.0 2.25 12.0 3.1 11.5 3.35 11.45 8.15 11.35 5.8 11.1 7.8 Q10.8 9.1 10.25 9.5 L9.85 8.1 9.4 6.65 Q9.25 7.6 9.4 9.1 L9.7 11.5 9.7 13.6 Q9.7 15.05 10.0 15.65 L10.35 16.0 10.0 16.65 5.85 21.95 Q5.6 20.8 6.4 19.1 L6.35 19.3 Q7.0 19.5 7.2 19.0 L7.2 18.3 Q6.8 18.4 6.6 18.65 L7.55 16.5 Q7.3 16.45 6.15 17.1 L3.4 20.55 2.2 22.45 Q1.15 23.9 0.5 24.0 1.2 22.3 4.45 17.6 L6.3 15.45 Q7.75 13.5 7.55 12.75 L5.75 14.4 3.4 16.45 Q3.6 15.85 4.5 14.85 L5.7 13.35 7.35 10.75 6.35 11.5 6.35 11.1 Q7.9 9.15 7.25 8.35 6.7 8.6 6.0 9.5 6.05 9.0 6.65 7.8 7.15 6.75 7.1 6.15 L6.25 6.6 Q5.75 6.8 5.55 7.15 5.15 7.9 4.9 10.05 L4.55 11.05 4.1 11.7 4.0 10.75 4.0 8.0 4.1 6.65 Q4.15 5.7 3.85 5.35 L3.5 5.5 3.25 4.8 2.85 4.15 2.35 4.25 1.85 4.45 Q1.75 3.8 1.0 4.15 0.15 4.55 0.0 4.0 M0.0 53.0 L0.0 48.0 3.6 48.0 12.2 42.15 Q7.9 46.1 4.45 48.0 L4.95 48.0 5.05 47.95 6.1 47.7 8.3 47.8 10.3 48.55 16.6 45.7 25.0 40.15 23.95 41.0 Q19.15 44.75 13.25 48.05 L13.05 48.1 12.0 48.8 15.25 49.3 19.55 48.85 21.05 48.8 21.7 48.45 22.3 47.95 Q23.55 47.05 25.3 46.6 24.8 46.25 25.0 45.3 25.15 44.35 25.85 44.45 L25.7 43.8 25.55 43.15 26.25 42.9 26.4 42.15 26.85 42.1 27.05 41.6 27.05 41.0 27.05 40.9 Q27.05 40.55 27.35 40.3 L27.55 41.0 27.55 41.25 27.55 42.3 27.85 43.0 27.85 43.4 28.55 42.85 31.0 41.2 27.65 43.75 27.6 43.8 28.0 43.8 27.95 44.8 27.85 45.05 28.3 44.65 27.85 45.1 27.55 45.65 Q28.35 46.05 28.9 47.0 L29.0 47.4 29.35 47.65 30.5 47.65 31.15 47.85 31.75 47.8 33.4 47.7 34.35 48.2 35.35 48.5 35.85 48.4 36.05 47.95 36.05 47.45 36.4 47.3 36.7 47.15 36.9 46.1 Q37.15 45.35 37.65 46.0 L37.65 47.05 38.3 47.45 39.2 47.5 40.55 47.7 40.8 48.05 41.1 48.55 43.2 48.95 47.1 49.45 57.7 42.3 55.7 43.85 47.2 49.45 47.5 49.5 48.85 49.8 55.75 45.4 60.55 42.65 49.15 49.9 52.15 50.45 56.5 47.8 Q55.0 49.05 52.75 50.35 L52.55 50.5 53.65 50.6 56.1 50.6 58.55 50.5 61.15 50.1 62.2 49.75 63.4 49.55 Q63.05 49.2 64.0 48.35 65.0 47.45 65.6 47.45 L67.35 47.65 69.15 47.65 70.5 47.3 71.85 47.3 73.0 46.7 73.1 46.6 73.95 45.7 74.25 46.1 75.65 45.35 Q76.75 44.65 77.4 44.3 78.5 43.65 79.3 43.5 L75.65 45.35 75.6 45.4 74.3 46.15 74.95 46.8 76.45 47.05 78.0 47.0 81.1 46.9 83.5 45.6 84.55 45.05 Q86.1 44.25 86.3 44.5 L81.85 46.9 83.6 47.0 86.65 47.05 89.4 46.75 91.1 45.5 Q92.95 44.2 93.95 43.6 95.65 42.5 97.0 42.0 L90.4 46.45 92.55 46.1 94.85 46.0 96.0 45.8 97.8 46.05 99.55 46.6 Q102.9 47.55 106.6 47.8 L108.65 47.7 115.8 43.15 112.05 45.75 109.0 47.65 109.9 47.5 113.15 47.15 113.25 47.15 117.45 43.9 113.65 47.15 116.2 47.2 124.65 42.15 116.95 47.1 116.85 47.2 123.05 47.5 125.05 47.7 125.4 47.75 137.5 40.8 137.25 41.0 Q134.85 43.0 132.1 44.65 L132.85 44.8 133.1 45.15 134.3 45.15 134.45 45.15 143.0 40.5 142.25 41.0 138.55 43.3 134.75 45.15 137.25 45.1 139.0 44.55 139.55 44.4 142.5 43.15 141.0 44.15 140.4 44.35 140.65 44.45 Q141.35 44.9 140.05 45.55 138.8 46.25 139.45 46.65 L140.5 46.8 141.3 47.15 142.3 47.1 143.05 46.9 Q143.25 46.85 143.65 47.15 L143.65 47.2 143.85 47.05 145.4 46.15 150.0 43.4 143.75 47.5 144.1 47.7 145.65 47.95 145.85 48.0 150.0 48.0 150.0 53.0 148.25 53.0 147.85 52.9 147.15 52.85 145.15 52.65 143.6 52.7 142.0 52.8 138.65 52.65 135.35 52.5 131.1 52.15 126.45 52.15 122.8 52.6 121.8 52.95 120.8 53.3 118.8 53.35 116.8 53.3 113.65 53.3 111.25 53.5 108.85 53.9 105.9 54.05 102.95 54.0 Q100.45 53.9 99.3 53.25 99.3 52.9 99.75 52.55 L100.45 52.0 95.8 51.85 91.1 51.95 88.9 51.8 86.65 51.8 Q86.7 52.65 85.7 52.8 L84.0 52.75 81.7 52.7 79.45 52.95 76.15 53.15 72.8 53.0 69.4 53.0 65.6 53.15 65.35 53.2 60.0 53.5 54.8 53.7 49.65 53.95 47.85 54.45 45.6 54.5 44.8 54.55 44.5 54.55 43.25 54.5 42.55 54.5 36.2 53.95 31.95 53.25 27.7 52.8 21.8 52.85 15.85 52.7 13.25 52.35 10.7 52.1 8.5 52.3 4.7 52.35 Q2.8 52.5 1.4 53.0 L0.0 53.0 M127.0 47.6 L128.45 47.0 129.95 46.6 Q129.9 46.1 130.35 45.6 L130.1 45.7 125.8 47.75 127.0 47.6 M132.0 46.3 Q130.05 47.65 130.3 48.45 130.5 49.25 131.5 49.5 L133.15 49.65 134.35 49.4 135.1 48.5 Q135.4 47.65 135.0 47.2 134.7 46.8 133.65 46.5 L132.0 46.3 M136.6 48.5 Q137.5 48.7 137.3 47.8 L136.3 47.65 Q135.65 48.3 136.6 48.5 M146.65 48.3 L145.45 48.65 Q144.55 49.0 145.0 49.6 145.25 50.0 146.0 49.85 146.7 49.75 146.8 49.3 L146.65 48.3 M138.15 51.1 Q138.55 50.75 138.3 50.3 L137.65 49.65 137.15 49.15 Q136.3 49.2 135.75 49.85 135.2 50.55 136.15 51.0 L137.15 51.2 138.15 51.1 M85.0 48.65 Q85.65 49.2 86.15 49.15 L86.35 49.0 86.3 48.5 85.3 48.5 85.0 48.65 M94.85 47.1 Q95.05 47.45 95.85 47.4 96.65 47.3 96.5 46.8 L96.15 46.3 95.15 46.35 Q94.45 46.55 94.85 47.1 M97.15 48.45 Q96.8 49.4 98.0 50.0 L99.5 50.4 101.0 50.2 101.15 49.0 100.15 48.0 98.45 47.9 Q97.35 47.9 97.15 48.45 M45.15 38.6 L44.35 39.55 42.7 41.0 40.0 42.8 35.2 45.3 45.15 38.6 M83.0 48.5 L82.0 48.5 80.85 48.85 Q80.55 50.1 80.6 50.25 80.8 50.75 81.7 50.9 L83.05 51.0 83.65 51.0 Q83.7 50.25 84.6 50.05 L84.65 49.65 Q84.7 48.9 84.25 48.65 L83.0 48.5 M84.25 50.75 L84.5 50.45 83.7 51.0 84.25 50.75 M5.9 11.65 L6.2 11.65 5.4 12.5 4.55 13.25 Q4.65 13.0 5.9 11.65 M8.5 15.0 L7.85 14.5 Q7.3 14.45 7.2 14.9 L7.2 15.8 8.1 15.7 Q8.5 15.45 8.5 15.0 M9.2 14.3 Q9.1 14.85 9.35 15.15 9.6 15.05 9.5 14.65 L9.2 14.3 M8.6 17.3 L9.05 17.3 9.35 17.0 8.5 16.5 8.5 16.9 8.6 17.3 M4.05 12.0 L4.0 12.3 Q3.65 12.75 3.05 12.65 L3.65 12.4 4.05 12.0 M4.3 49.05 Q3.35 49.05 3.2 49.65 2.9 50.7 4.4 51.0 5.35 51.1 5.9 50.55 6.55 49.9 6.0 49.0 L5.85 49.15 4.3 49.05 M6.85 48.15 Q6.75 48.3 6.9 48.45 L7.7 48.45 Q7.8 48.15 7.5 48.0 L6.85 48.15 M13.05 48.1 L14.8 46.9 11.95 48.0 10.35 48.55 10.85 48.65 Q11.5 48.3 13.05 48.1 M28.35 49.15 L28.7 48.3 28.0 47.65 27.45 48.3 Q27.2 48.7 27.5 49.05 27.95 49.5 28.35 49.15 M34.55 48.9 Q33.45 49.1 33.2 49.65 32.95 50.2 33.25 50.8 L34.05 51.7 Q34.85 52.15 36.1 52.25 37.6 52.35 38.15 51.65 L38.4 50.65 38.2 49.65 36.2 48.65 34.55 48.9 M39.0 49.3 Q39.0 50.5 40.35 49.9 41.85 49.3 40.2 49.0 L39.0 49.3 M18.7 50.0 L17.9 49.75 17.0 49.8 16.85 50.15 Q15.8 51.1 16.9 51.7 18.05 52.3 18.65 51.55 L18.9 50.75 18.7 50.0 M13.7 50.8 L14.45 50.8 14.5 50.5 14.35 49.8 Q13.95 49.8 13.75 50.1 13.6 50.4 13.7 50.8 M14.85 51.8 L15.65 51.8 15.7 51.15 14.7 51.3 14.85 51.8" fill="#675c50" fill-rule="evenodd" stroke="none"/>
      <path d="M13.0 0.0 L13.0 1.0 13.0 2.0 13.0 2.15 13.0 35.65 12.8 36.0 12.2 37.0 12.15 36.85 12.15 36.8 12.0 36.3 12.0 35.25 12.0 35.1 12.0 3.1 12.0 2.25 12.0 0.0 13.0 0.0" fill="#534a41" fill-rule="evenodd" stroke="none"/>
      <path d="M0.0 35.1 L0.0 4.0 Q0.15 4.55 1.0 4.15 1.75 3.8 1.85 4.45 L2.35 4.25 2.85 4.15 3.25 4.8 3.5 5.5 3.85 5.35 Q4.15 5.7 4.1 6.65 L4.0 8.0 4.0 10.75 4.1 11.7 4.55 11.05 4.9 10.05 Q5.15 7.9 5.55 7.15 5.75 6.8 6.25 6.6 L7.1 6.15 Q7.15 6.75 6.65 7.8 6.05 9.0 6.0 9.5 6.7 8.6 7.25 8.35 7.9 9.15 6.35 11.1 L6.35 11.0 6.2 10.8 Q5.8 10.75 5.7 11.15 5.6 11.55 5.9 11.65 4.65 13.0 4.55 13.25 L5.4 12.5 6.2 11.65 6.35 11.6 6.35 11.5 7.35 10.75 5.7 13.35 4.5 14.85 Q3.6 15.85 3.4 16.45 L5.75 14.4 7.55 12.75 Q7.75 13.5 6.3 15.45 L4.45 17.6 Q1.2 22.3 0.5 24.0 1.15 23.9 2.2 22.45 L3.4 20.55 6.15 17.1 Q7.3 16.45 7.55 16.5 L6.6 18.65 6.4 19.1 Q5.6 20.8 5.85 21.95 L10.0 16.65 10.35 16.0 10.0 15.65 Q9.7 15.05 9.7 13.6 L9.7 11.5 9.4 9.1 Q9.25 7.6 9.4 6.65 L9.85 8.1 10.25 9.5 Q10.8 9.1 11.1 7.8 L11.35 5.8 11.45 8.15 Q11.25 20.65 11.35 26.9 L11.55 30.45 11.5 30.55 10.7 31.2 10.15 32.4 Q9.85 33.0 9.15 33.25 L9.0 32.1 6.9 33.9 Q8.05 31.9 8.7 28.8 L9.55 23.4 8.05 27.15 6.25 30.95 Q4.95 33.7 4.3 34.15 4.1 33.8 4.5 33.5 L3.3 33.35 3.55 32.4 4.0 32.3 4.6 31.7 4.85 30.8 3.35 30.65 Q2.75 30.75 2.2 31.25 1.6 31.8 2.05 32.3 L3.5 32.4 Q3.2 34.1 2.55 34.35 L3.2 34.85 2.05 35.45 1.25 35.5 Q1.0 35.45 0.7 35.2 L0.0 35.1 M4.05 12.0 L3.65 12.4 3.05 12.65 Q3.65 12.75 4.0 12.3 L4.05 12.0 M3.5 28.5 Q2.95 29.0 2.85 29.65 3.85 29.8 4.35 28.65 L3.5 28.5 M2.2 9.15 Q2.4 9.7 3.25 9.7 4.1 9.75 3.85 9.0 L3.2 7.8 Q2.8 7.45 2.4 8.1 2.0 8.7 2.2 9.15" fill="#6e6355" fill-rule="evenodd" stroke="none"/>
    </g>
  </defs>
</svg>
