<?xml version="1.0" encoding="UTF-8" standalone="no"?>
<svg xmlns:xlink="http://www.w3.org/1999/xlink" height="21.05px" width="165.05px" xmlns="http://www.w3.org/2000/svg">
  <g transform="matrix(1.0, 0.0, 0.0, 1.0, 0.0, 0.0)">
    <use height="21.05" transform="matrix(1.0, 0.0, 0.0, 1.0, 0.0, 0.0)" width="165.05" xlink:href="#shape0"/>
  </g>
  <defs>
    <g id="shape0" transform="matrix(1.0, 0.0, 0.0, 1.0, 0.0, 0.0)">
      <path d="M160.15 15.7 L160.95 15.7 163.05 15.55 165.05 15.85 163.3 16.05 Q162.0 16.05 161.9 16.65 161.8 17.1 162.5 17.2 L163.55 17.2 163.55 17.7 163.25 18.0 161.75 18.15 160.2 18.0 158.2 18.05 Q158.45 18.8 156.95 18.9 L154.9 18.8 154.95 18.35 Q154.4 17.9 152.95 17.85 L150.75 17.8 150.7 17.2 151.6 17.0 152.75 17.4 Q153.9 17.65 156.25 17.45 159.5 17.1 160.15 15.7" fill="url(#gradient0)" fill-rule="evenodd" stroke="none"/>
      <path d="M160.15 15.7 Q159.5 17.1 156.25 17.45 153.9 17.65 152.75 17.4 L151.6 17.0 Q150.6 16.45 150.65 15.2 150.7 13.7 152.25 12.55 153.65 11.5 155.25 11.35 156.85 11.25 158.15 11.9 159.55 12.6 160.05 14.0 160.4 15.0 160.15 15.7" fill="url(#gradient1)" fill-rule="evenodd" stroke="none"/>
      <path d="M132.3 20.5 L131.75 20.0 Q130.45 17.7 135.65 16.25 140.35 14.9 142.55 15.45 145.3 16.1 144.8 18.3 144.55 19.45 143.7 20.1 L142.6 20.6 139.6 20.85 139.55 20.85 139.2 20.85 137.05 21.0 134.35 21.0 132.3 20.5" fill="url(#gradient2)" fill-rule="evenodd" stroke="none"/>
      <path d="M132.3 20.5 L134.35 21.0 132.8 21.0 131.8 21.05 130.9 20.9 131.8 20.65 132.3 20.5 M139.6 20.85 L142.6 20.6 143.7 20.1 144.05 20.2 145.55 20.25 147.0 20.5 145.95 20.75 144.7 20.8 139.95 20.9 139.6 20.85" fill="url(#gradient3)" fill-rule="evenodd" stroke="none"/>
      <path d="M128.95 6.6 Q129.4 5.95 130.4 5.45 131.4 5.05 132.55 5.0 135.55 4.9 136.45 7.05 136.85 7.95 136.55 8.5 136.1 9.2 134.3 9.25 L130.6 9.25 Q129.15 9.3 128.7 8.35 128.3 7.55 128.9 6.65 L128.95 6.6" fill="url(#gradient4)" fill-rule="evenodd" stroke="none"/>
      <path d="M128.95 6.6 L128.9 6.65 Q128.3 7.55 128.7 8.35 129.15 9.3 130.6 9.25 L134.3 9.25 Q136.1 9.2 136.55 8.5 L137.1 8.5 138.75 8.5 Q139.95 8.55 140.25 9.0 L139.35 9.25 138.35 9.2 135.2 9.2 130.0 9.4 125.65 9.35 126.75 9.15 Q127.7 8.8 127.55 7.7 L122.75 7.7 123.55 7.5 123.7 7.1 123.85 6.7 125.4 6.7 128.45 6.65 128.95 6.6" fill="url(#gradient5)" fill-rule="evenodd" stroke="none"/>
      <path d="M140.9 7.7 Q141.4 8.05 140.95 8.2 L140.2 8.35 139.45 8.35 138.7 8.2 138.25 7.7 140.9 7.7" fill="url(#gradient6)" fill-rule="evenodd" stroke="none"/>
      <path d="M127.55 5.85 Q127.3 5.85 127.25 5.7 L128.05 5.5 128.05 5.8 127.55 5.85" fill="url(#gradient7)" fill-rule="evenodd" stroke="none"/>
      <path d="M129.25 19.0 Q129.0 19.65 127.45 19.45 125.9 19.25 126.45 18.55 L128.05 18.5 129.25 19.0" fill="url(#gradient8)" fill-rule="evenodd" stroke="none"/>
      <path d="M102.95 10.05 L102.25 9.35 103.25 9.5 Q104.0 9.5 103.9 10.15 L102.95 10.05" fill="url(#gradient9)" fill-rule="evenodd" stroke="none"/>
      <path d="M100.75 16.15 L102.35 16.5 104.0 16.65 106.3 16.65 Q107.2 16.5 107.65 16.1 L108.8 16.05 113.05 16.2 Q113.35 17.3 107.75 16.85 L105.4 17.2 99.85 16.9 97.1 16.7 95.45 16.75 93.85 16.55 96.4 16.55 98.9 16.5 100.5 16.15 100.75 16.15" fill="url(#gradient10)" fill-rule="evenodd" stroke="none"/>
      <path d="M107.65 16.1 Q107.2 16.5 106.3 16.65 L104.0 16.65 102.35 16.5 100.75 16.15 Q98.75 15.45 99.7 13.9 100.65 12.45 103.1 12.55 105.15 12.6 106.75 13.55 108.35 14.4 108.1 15.4 L107.65 16.1" fill="url(#gradient11)" fill-rule="evenodd" stroke="none"/>
      <path d="M95.2 2.15 Q94.0 2.35 93.4 1.85 L92.55 1.5 94.25 1.45 Q95.5 1.5 95.2 2.15" fill="url(#gradient12)" fill-rule="evenodd" stroke="none"/>
      <path d="M91.1 2.95 L93.2 3.15 Q94.05 2.9 94.3 3.5 L93.4 3.7 92.45 3.7 89.9 3.95 89.0 4.35 87.95 4.5 85.8 3.95 84.15 3.75 82.5 3.85 80.45 3.5 Q80.75 3.15 81.95 3.2 L83.55 3.35 83.95 3.35 86.05 3.7 Q89.7 4.05 91.1 2.95" fill="url(#gradient13)" fill-rule="evenodd" stroke="none"/>
      <path d="M91.1 2.95 Q89.7 4.05 86.05 3.7 L83.95 3.35 Q82.1 2.75 82.6 1.55 83.25 -0.2 86.6 0.0 92.6 0.4 91.65 2.25 L91.1 2.95" fill="url(#gradient14)" fill-rule="evenodd" stroke="none"/>
      <path d="M92.65 9.0 L92.8 9.0 94.75 8.5 100.05 9.2 95.4 9.5 93.55 9.5 92.35 9.55 91.25 9.45 91.25 9.4 91.8 9.35 92.65 9.0" fill="url(#gradient15)" fill-rule="evenodd" stroke="none"/>
      <path d="M92.65 9.0 L91.8 9.35 91.25 9.4 89.25 9.2 Q88.9 8.15 90.0 7.8 L91.85 7.65 92.9 7.7 Q93.1 8.55 92.65 9.0" fill="url(#gradient16)" fill-rule="evenodd" stroke="none"/>
      <path d="M84.4 10.85 Q84.1 11.4 83.35 11.05 82.7 10.7 82.55 10.2 L83.75 10.2 84.3 10.3 Q84.6 10.55 84.4 10.85" fill="url(#gradient17)" fill-rule="evenodd" stroke="none"/>
      <path d="M82.95 12.05 L84.45 12.15 84.9 12.65 87.05 12.7 89.85 13.2 87.15 13.35 84.4 13.35 83.4 13.5 83.1 13.55 Q83.4 12.8 82.95 12.05" fill="url(#gradient18)" fill-rule="evenodd" stroke="none"/>
      <path d="M83.1 13.55 L82.95 13.8 Q81.8 15.35 74.85 14.55 73.4 14.35 73.1 13.45 72.85 12.6 73.75 11.55 L73.8 11.45 Q74.85 10.2 76.65 9.85 L79.55 9.9 79.8 9.95 80.0 10.0 80.3 10.1 Q81.45 10.5 82.4 11.4 L82.95 12.05 Q83.4 12.8 83.1 13.55" fill="url(#gradient19)" fill-rule="evenodd" stroke="none"/>
      <path d="M73.75 11.55 L72.1 11.75 67.75 12.25 65.55 12.45 62.65 12.05 61.75 11.7 58.05 10.1 57.3 9.8 56.75 9.6 56.55 9.55 Q54.4 8.5 56.4 7.3 58.55 6.0 64.2 5.75 72.85 5.4 77.8 7.2 80.7 8.25 80.6 9.15 L79.8 9.95 79.55 9.9 76.65 9.85 Q74.85 10.2 73.8 11.45 L73.75 11.55" fill="url(#gradient20)" fill-rule="evenodd" stroke="none"/>
      <path d="M80.6 9.15 Q82.8 9.2 82.4 10.15 L80.3 10.1 80.0 10.0 79.8 9.95 80.6 9.15" fill="url(#gradient21)" fill-rule="evenodd" stroke="none"/>
      <path d="M67.75 12.25 L68.2 12.35 68.15 13.5 66.45 13.3 64.7 12.85 Q63.2 12.65 60.6 13.65 L59.6 13.95 Q58.85 14.1 59.05 13.5 59.15 13.2 59.75 13.05 L60.6 12.65 Q60.25 12.3 59.2 12.15 L57.6 11.95 Q57.6 11.8 57.8 11.8 L56.5 11.6 55.05 11.7 54.1 11.75 Q55.35 11.35 55.6 10.55 55.7 10.1 55.4 9.65 L55.95 9.7 56.75 9.6 57.3 9.8 58.05 10.1 58.0 10.45 Q58.6 10.6 60.2 11.3 L62.35 12.0 62.65 12.05 65.55 12.45 67.75 12.25 M53.55 11.9 L53.15 12.2 52.7 12.65 Q52.15 13.1 50.75 13.0 L48.65 12.7 47.35 12.7 46.15 12.75 Q45.35 12.65 45.35 12.05 L40.75 11.7 38.8 11.75 36.9 11.65 34.9 11.35 33.15 11.45 31.65 11.2 34.45 11.1 Q36.45 11.2 36.9 10.55 L36.5 10.5 42.05 10.5 43.85 10.5 Q45.2 10.35 45.4 9.85 L45.75 9.85 Q46.0 12.15 50.15 12.15 L53.55 11.9" fill="url(#gradient22)" fill-rule="evenodd" stroke="none"/>
      <path d="M54.1 11.75 L53.55 11.9 50.15 12.15 Q46.0 12.15 45.75 9.85 L45.75 9.1 Q45.85 7.95 47.15 7.4 48.55 6.8 50.7 7.4 54.55 8.5 55.4 9.65 55.7 10.1 55.6 10.55 55.35 11.35 54.1 11.75" fill="url(#gradient23)" fill-rule="evenodd" stroke="none"/>
      <path d="M87.8 9.35 L86.3 9.35 Q85.45 9.3 85.05 8.7 L86.25 8.0 87.7 7.75 89.1 8.0 89.1 9.0 88.6 9.4 87.8 9.35" fill="url(#gradient24)" fill-rule="evenodd" stroke="none"/>
      <path d="M90.45 14.4 Q89.6 14.35 89.75 13.85 L91.25 13.85 Q91.25 14.45 90.45 14.4" fill="url(#gradient25)" fill-rule="evenodd" stroke="none"/>
      <path d="M96.9 14.85 L98.25 15.0 Q98.4 15.55 97.7 15.7 L96.6 15.7 Q96.55 15.2 96.9 14.85" fill="url(#gradient26)" fill-rule="evenodd" stroke="none"/>
      <path d="M97.05 14.55 L99.2 14.7 97.4 14.7 95.65 14.8 94.05 14.55 Q95.15 14.35 97.05 14.55" fill="url(#gradient27)" fill-rule="evenodd" stroke="none"/>
      <path d="M69.0 13.7 Q68.9 13.0 69.55 13.0 L71.4 13.2 Q71.55 14.85 69.7 14.5 69.1 14.4 69.0 13.7" fill="url(#gradient28)" fill-rule="evenodd" stroke="none"/>
      <path d="M45.05 2.8 Q44.2 3.1 43.9 2.35 L45.05 2.35 45.05 2.8" fill="url(#gradient29)" fill-rule="evenodd" stroke="none"/>
      <path d="M38.2 3.95 Q36.65 3.95 36.65 3.2 36.65 2.75 37.6 2.2 38.3 1.85 38.95 1.65 41.15 0.7 42.05 1.25 43.05 1.85 42.45 2.8 L42.15 3.2 Q41.6 3.65 40.85 3.7 L40.35 3.75 38.25 3.95 38.2 3.95" fill="url(#gradient30)" fill-rule="evenodd" stroke="none"/>
      <path d="M38.2 3.95 L38.25 3.95 40.35 3.75 40.85 3.7 Q41.6 3.65 42.15 3.2 L44.6 3.4 Q44.2 3.9 42.65 3.9 L40.45 4.15 39.8 4.55 39.1 4.7 36.75 4.7 36.0 4.7 35.2 4.55 36.95 4.3 38.2 3.95" fill="url(#gradient31)" fill-rule="evenodd" stroke="none"/>
      <path d="M40.75 11.75 Q42.45 11.7 43.25 12.2 L42.05 13.7 39.6 13.85 Q37.8 13.55 38.4 12.6 38.9 11.8 40.75 11.75" fill="url(#gradient32)" fill-rule="evenodd" stroke="none"/>
      <path d="M58.25 13.0 L57.55 13.2 Q57.8 14.05 55.35 13.85 54.0 13.7 54.7 12.9 55.1 12.45 56.5 12.65 L58.25 13.0" fill="url(#gradient33)" fill-rule="evenodd" stroke="none"/>
      <path d="M30.9 3.8 Q30.8 3.55 31.05 3.7 L31.9 3.5 31.85 3.8 30.9 3.8" fill="url(#gradient34)" fill-rule="evenodd" stroke="none"/>
      <path d="M34.1 4.5 Q33.15 4.9 33.05 4.2 L34.5 3.8 Q35.0 4.15 34.1 4.5" fill="url(#gradient35)" fill-rule="evenodd" stroke="none"/>
      <path d="M33.9 10.35 L32.9 10.3 Q32.7 9.55 34.25 9.7 L33.9 10.35" fill="url(#gradient36)" fill-rule="evenodd" stroke="none"/>
      <path d="M29.7 16.0 Q28.6 16.1 28.35 15.65 28.55 15.45 28.9 15.5 L29.75 15.2 29.7 16.0" fill="url(#gradient37)" fill-rule="evenodd" stroke="none"/>
      <path d="M27.1 16.6 L26.5 17.1 Q25.75 17.65 24.7 17.95 L22.35 18.2 22.0 18.2 18.0 17.95 15.25 18.1 12.65 17.75 Q11.7 17.3 11.85 16.4 L11.85 16.3 Q12.0 15.7 13.15 15.05 L14.9 14.2 Q16.45 13.3 19.15 12.85 L22.75 12.4 Q24.85 12.25 26.3 12.8 27.85 13.4 27.85 14.8 27.8 15.75 27.1 16.6" fill="url(#gradient38)" fill-rule="evenodd" stroke="none"/>
      <path d="M24.7 17.95 Q25.75 17.65 26.5 17.1 L27.1 16.6 27.9 16.7 Q28.85 16.8 29.1 17.15 L28.4 17.3 27.75 17.55 24.7 17.95 M11.85 16.4 Q11.7 17.3 12.65 17.75 L15.25 18.1 18.0 17.95 22.0 18.2 Q21.2 18.45 21.2 19.15 L17.75 19.5 16.55 19.65 17.05 19.35 17.55 19.0 16.75 18.8 16.7 18.2 Q15.4 18.05 15.0 18.2 L14.05 18.85 13.25 19.0 12.35 18.9 7.2 18.95 3.6 19.0 0.0 19.0 Q3.1 18.8 4.6 18.2 L5.15 17.9 5.85 17.65 8.55 17.4 11.85 16.4" fill="url(#gradient39)" fill-rule="evenodd" stroke="none"/>
      <path d="M36.85 12.8 L35.55 12.8 Q35.45 12.2 36.4 12.0 L36.9 12.5 36.85 12.8" fill="url(#gradient40)" fill-rule="evenodd" stroke="none"/>
      <path d="M15.35 9.0 L15.1 9.05 12.1 9.0 12.05 8.35 10.0 8.45 8.05 8.2 9.8 8.1 11.55 7.85 13.0 7.9 12.15 7.95 Q11.8 8.85 12.95 9.0 L14.75 9.0 15.35 9.0 M17.6 8.0 L18.8 8.0 19.5 8.15 Q19.15 8.5 18.35 8.55 L17.2 8.65 17.6 8.0" fill="url(#gradient41)" fill-rule="evenodd" stroke="none"/>
      <path d="M15.35 9.0 L14.75 9.0 12.95 9.0 Q11.8 8.85 12.15 7.95 L13.0 7.9 14.75 7.35 Q16.4 6.75 17.4 6.85 L17.7 7.4 17.6 8.0 17.2 8.65 16.75 8.9 15.35 9.0" fill="url(#gradient42)" fill-rule="evenodd" stroke="none"/>
      <path d="M10.2 8.85 L10.2 9.15 8.9 9.05 9.9 8.7 9.9 8.85 10.2 8.85" fill="url(#gradient43)" fill-rule="evenodd" stroke="none"/>
      <path d="M4.75 9.5 Q4.55 9.0 4.95 8.85 L5.75 8.7 6.25 8.85 Q6.0 9.2 6.05 9.5 L4.75 9.5" fill="url(#gradient44)" fill-rule="evenodd" stroke="none"/>
      <path d="M6.8 15.55 Q7.25 15.15 8.25 14.85 L8.4 15.2 8.85 15.35 Q9.25 16.6 7.4 16.3 6.1 16.1 6.8 15.55" fill="url(#gradient45)" fill-rule="evenodd" stroke="none"/>
      <path d="M4.4 15.65 L2.2 15.5 3.4 15.2 4.4 15.35 4.4 15.65" fill="url(#gradient46)" fill-rule="evenodd" stroke="none"/>
    </g>
    <radialGradient cx="0" cy="0" gradientTransform="matrix(0.0103, 0.0, 0.0, -0.0035, 159.05, 13.5)" gradientUnits="userSpaceOnUse" id="gradient0" r="819.2" spreadMethod="pad">
      <stop offset="0.0" stop-color="#ffffff"/>
      <stop offset="1.0" stop-color="#f4fafa"/>
    </radialGradient>
    <radialGradient cx="0" cy="0" gradientTransform="matrix(0.0084, 0.0, 0.0, -0.0028, 155.55, 12.05)" gradientUnits="userSpaceOnUse" id="gradient1" r="819.2" spreadMethod="pad">
      <stop offset="0.0" stop-color="#ffffff"/>
      <stop offset="1.0" stop-color="#f4fafa"/>
    </radialGradient>
    <radialGradient cx="0" cy="0" gradientTransform="matrix(0.0096, 0.0, 0.0, -0.0032, 138.35, 16.0)" gradientUnits="userSpaceOnUse" id="gradient2" r="819.2" spreadMethod="pad">
      <stop offset="0.0" stop-color="#ffffff"/>
      <stop offset="1.0" stop-color="#f4fafa"/>
    </radialGradient>
    <radialGradient cx="0" cy="0" gradientTransform="matrix(0.0092, 0.0, 0.0, -0.0031, 140.3, 18.6)" gradientUnits="userSpaceOnUse" id="gradient3" r="819.2" spreadMethod="pad">
      <stop offset="0.0" stop-color="#ffffff"/>
      <stop offset="1.0" stop-color="#f4fafa"/>
    </radialGradient>
    <radialGradient cx="0" cy="0" gradientTransform="matrix(0.0072, 0.0, -6.0E-4, -0.0019, 132.0, 5.5)" gradientUnits="userSpaceOnUse" id="gradient4" r="819.2" spreadMethod="pad">
      <stop offset="0.0" stop-color="#ffffff"/>
      <stop offset="1.0" stop-color="#f4fafa"/>
    </radialGradient>
    <radialGradient cx="0" cy="0" gradientTransform="matrix(0.0118, 0.0, 0.0, -0.004, 132.8, 4.0)" gradientUnits="userSpaceOnUse" id="gradient5" r="819.2" spreadMethod="pad">
      <stop offset="0.0" stop-color="#ffffff"/>
      <stop offset="1.0" stop-color="#f4fafa"/>
    </radialGradient>
    <radialGradient cx="0" cy="0" gradientTransform="matrix(0.0021, 0.0, 0.0, -7.0E-4, 139.9, 7.25)" gradientUnits="userSpaceOnUse" id="gradient6" r="819.2" spreadMethod="pad">
      <stop offset="0.0" stop-color="#ffffff"/>
      <stop offset="1.0" stop-color="#f4fafa"/>
    </radialGradient>
    <radialGradient cx="0" cy="0" gradientTransform="matrix(9.0E-4, 0.0, 0.0, -3.0E-4, 127.7, 5.3)" gradientUnits="userSpaceOnUse" id="gradient7" r="819.2" spreadMethod="pad">
      <stop offset="0.0" stop-color="#ffffff"/>
      <stop offset="1.0" stop-color="#f4fafa"/>
    </radialGradient>
    <radialGradient cx="0" cy="0" gradientTransform="matrix(0.0025, 0.0, 0.0, -8.0E-4, 128.05, 17.9)" gradientUnits="userSpaceOnUse" id="gradient8" r="819.2" spreadMethod="pad">
      <stop offset="0.0" stop-color="#ffffff"/>
      <stop offset="1.0" stop-color="#f4fafa"/>
    </radialGradient>
    <radialGradient cx="0" cy="0" gradientTransform="matrix(0.002, 0.0, 0.0, -7.0E-4, 103.2, 8.8)" gradientUnits="userSpaceOnUse" id="gradient9" r="819.2" spreadMethod="pad">
      <stop offset="0.0" stop-color="#ffffff"/>
      <stop offset="1.0" stop-color="#f4fafa"/>
    </radialGradient>
    <radialGradient cx="0" cy="0" gradientTransform="matrix(0.0105, 0.0, 0.0, -0.0035, 105.05, 15.35)" gradientUnits="userSpaceOnUse" id="gradient10" r="819.2" spreadMethod="pad">
      <stop offset="0.0" stop-color="#ffffff"/>
      <stop offset="1.0" stop-color="#f4fafa"/>
    </radialGradient>
    <radialGradient cx="0" cy="0" gradientTransform="matrix(0.0066, 0.0, 0.0, -0.0022, 103.85, 13.0)" gradientUnits="userSpaceOnUse" id="gradient11" r="819.2" spreadMethod="pad">
      <stop offset="0.0" stop-color="#ffffff"/>
      <stop offset="1.0" stop-color="#f4fafa"/>
    </radialGradient>
    <radialGradient cx="0" cy="0" gradientTransform="matrix(0.0021, 0.0, 0.0, -7.0E-4, 94.15, 0.95)" gradientUnits="userSpaceOnUse" id="gradient12" r="819.2" spreadMethod="pad">
      <stop offset="0.0" stop-color="#ffffff"/>
      <stop offset="1.0" stop-color="#f4fafa"/>
    </radialGradient>
    <radialGradient cx="0" cy="0" gradientTransform="matrix(0.0082, 0.0, 0.0, -0.0027, 88.55, 1.85)" gradientUnits="userSpaceOnUse" id="gradient13" r="819.2" spreadMethod="pad">
      <stop offset="0.0" stop-color="#ffffff"/>
      <stop offset="1.0" stop-color="#f4fafa"/>
    </radialGradient>
    <radialGradient cx="0" cy="0" gradientTransform="matrix(0.0065, 0.0, 0.0, -0.0022, 87.25, 0.4)" gradientUnits="userSpaceOnUse" id="gradient14" r="819.2" spreadMethod="pad">
      <stop offset="0.0" stop-color="#ffffff"/>
      <stop offset="1.0" stop-color="#f4fafa"/>
    </radialGradient>
    <radialGradient cx="0" cy="0" gradientTransform="matrix(0.0052, 0.0, 0.0, -0.0018, 96.4, 7.85)" gradientUnits="userSpaceOnUse" id="gradient15" r="819.2" spreadMethod="pad">
      <stop offset="0.0" stop-color="#ffffff"/>
      <stop offset="1.0" stop-color="#f4fafa"/>
    </radialGradient>
    <radialGradient cx="0" cy="0" gradientTransform="matrix(0.0028, 0.0, 0.0, -9.0E-4, 91.1, 7.85)" gradientUnits="userSpaceOnUse" id="gradient16" r="819.2" spreadMethod="pad">
      <stop offset="0.0" stop-color="#ffffff"/>
      <stop offset="1.0" stop-color="#f4fafa"/>
    </radialGradient>
    <radialGradient cx="0" cy="0" gradientTransform="matrix(0.0023, 0.0, 0.0, -8.0E-4, 83.65, 9.55)" gradientUnits="userSpaceOnUse" id="gradient17" r="819.2" spreadMethod="pad">
      <stop offset="0.0" stop-color="#ffffff"/>
      <stop offset="1.0" stop-color="#f4fafa"/>
    </radialGradient>
    <radialGradient cx="0" cy="0" gradientTransform="matrix(0.0086, 0.0, 0.0, -0.0029, 84.15, 10.0)" gradientUnits="userSpaceOnUse" id="gradient18" r="819.2" spreadMethod="pad">
      <stop offset="0.0" stop-color="#ffffff"/>
      <stop offset="1.0" stop-color="#f4fafa"/>
    </radialGradient>
    <radialGradient cx="0" cy="0" gradientTransform="matrix(0.0079, 0.0, 0.0, -0.0026, 78.25, 10.25)" gradientUnits="userSpaceOnUse" id="gradient19" r="819.2" spreadMethod="pad">
      <stop offset="0.0" stop-color="#ffffff"/>
      <stop offset="1.0" stop-color="#f4fafa"/>
    </radialGradient>
    <radialGradient cx="0" cy="0" gradientTransform="matrix(0.0155, -0.002, 0.0, -0.006, 68.2, 5.9)" gradientUnits="userSpaceOnUse" id="gradient20" r="819.2" spreadMethod="pad">
      <stop offset="0.0" stop-color="#ffffff"/>
      <stop offset="1.0" stop-color="#f4fafa"/>
    </radialGradient>
    <radialGradient cx="0" cy="0" gradientTransform="matrix(0.0031, 0.0, 0.0, -0.001, 80.8, 8.45)" gradientUnits="userSpaceOnUse" id="gradient21" r="819.2" spreadMethod="pad">
      <stop offset="0.0" stop-color="#ffffff"/>
      <stop offset="1.0" stop-color="#f4fafa"/>
    </radialGradient>
    <radialGradient cx="0" cy="0" gradientTransform="matrix(0.0216, 0.0, 0.0, -0.0073, 53.0, 6.8)" gradientUnits="userSpaceOnUse" id="gradient22" r="819.2" spreadMethod="pad">
      <stop offset="0.0" stop-color="#ffffff"/>
      <stop offset="1.0" stop-color="#f4fafa"/>
    </radialGradient>
    <radialGradient cx="0" cy="0" gradientTransform="matrix(0.0077, 0.0, 0.0, -0.0026, 50.8, 7.65)" gradientUnits="userSpaceOnUse" id="gradient23" r="819.2" spreadMethod="pad">
      <stop offset="0.0" stop-color="#ffffff"/>
      <stop offset="1.0" stop-color="#f4fafa"/>
    </radialGradient>
    <radialGradient cx="0" cy="0" gradientTransform="matrix(0.004, 0.0, 0.0, -0.0014, 87.4, 6.75)" gradientUnits="userSpaceOnUse" id="gradient24" r="819.2" spreadMethod="pad">
      <stop offset="0.0" stop-color="#ffffff"/>
      <stop offset="1.0" stop-color="#f4fafa"/>
    </radialGradient>
    <radialGradient cx="0" cy="0" gradientTransform="matrix(0.0014, 0.0, 0.0, -5.0E-4, 90.6, 13.5)" gradientUnits="userSpaceOnUse" id="gradient25" r="819.2" spreadMethod="pad">
      <stop offset="0.0" stop-color="#ffffff"/>
      <stop offset="1.0" stop-color="#f4fafa"/>
    </radialGradient>
    <radialGradient cx="0" cy="0" gradientTransform="matrix(0.002, 0.0, 0.0, -7.0E-4, 97.55, 14.3)" gradientUnits="userSpaceOnUse" id="gradient26" r="819.2" spreadMethod="pad">
      <stop offset="0.0" stop-color="#ffffff"/>
      <stop offset="1.0" stop-color="#f4fafa"/>
    </radialGradient>
    <radialGradient cx="0" cy="0" gradientTransform="matrix(0.0033, 0.0, 0.0, -0.0011, 97.55, 14.25)" gradientUnits="userSpaceOnUse" id="gradient27" r="819.2" spreadMethod="pad">
      <stop offset="0.0" stop-color="#ffffff"/>
      <stop offset="1.0" stop-color="#f4fafa"/>
    </radialGradient>
    <radialGradient cx="0" cy="0" gradientTransform="matrix(0.0034, 0.0, 0.0, -0.0011, 70.4, 12.1)" gradientUnits="userSpaceOnUse" id="gradient28" r="819.2" spreadMethod="pad">
      <stop offset="0.0" stop-color="#ffffff"/>
      <stop offset="1.0" stop-color="#f4fafa"/>
    </radialGradient>
    <radialGradient cx="0" cy="0" gradientTransform="matrix(0.0012, 0.0, 0.0, -4.0E-4, 44.6, 2.05)" gradientUnits="userSpaceOnUse" id="gradient29" r="819.2" spreadMethod="pad">
      <stop offset="0.0" stop-color="#ffffff"/>
      <stop offset="1.0" stop-color="#f4fafa"/>
    </radialGradient>
    <radialGradient cx="0" cy="0" gradientTransform="matrix(0.0045, 0.0, 0.0, -0.0015, 39.75, 1.4)" gradientUnits="userSpaceOnUse" id="gradient30" r="819.2" spreadMethod="pad">
      <stop offset="0.0" stop-color="#ffffff"/>
      <stop offset="1.0" stop-color="#f4fafa"/>
    </radialGradient>
    <radialGradient cx="0" cy="0" gradientTransform="matrix(0.0059, 0.0, 0.0, -0.002, 40.65, 2.25)" gradientUnits="userSpaceOnUse" id="gradient31" r="819.2" spreadMethod="pad">
      <stop offset="0.0" stop-color="#ffffff"/>
      <stop offset="1.0" stop-color="#f4fafa"/>
    </radialGradient>
    <radialGradient cx="0" cy="0" gradientTransform="matrix(0.0052, 0.0, 0.0, -0.0017, 41.15, 10.45)" gradientUnits="userSpaceOnUse" id="gradient32" r="819.2" spreadMethod="pad">
      <stop offset="0.0" stop-color="#ffffff"/>
      <stop offset="1.0" stop-color="#f4fafa"/>
    </radialGradient>
    <radialGradient cx="0" cy="0" gradientTransform="matrix(0.0034, 0.0, 0.0, -0.0011, 56.65, 11.8)" gradientUnits="userSpaceOnUse" id="gradient33" r="819.2" spreadMethod="pad">
      <stop offset="0.0" stop-color="#ffffff"/>
      <stop offset="1.0" stop-color="#f4fafa"/>
    </radialGradient>
    <radialGradient cx="0" cy="0" gradientTransform="matrix(9.0E-4, 0.0, 0.0, -3.0E-4, 31.5, 3.3)" gradientUnits="userSpaceOnUse" id="gradient34" r="819.2" spreadMethod="pad">
      <stop offset="0.0" stop-color="#ffffff"/>
      <stop offset="1.0" stop-color="#f4fafa"/>
    </radialGradient>
    <radialGradient cx="0" cy="0" gradientTransform="matrix(0.0022, 0.0, 0.0, -7.0E-4, 34.25, 3.1)" gradientUnits="userSpaceOnUse" id="gradient35" r="819.2" spreadMethod="pad">
      <stop offset="0.0" stop-color="#ffffff"/>
      <stop offset="1.0" stop-color="#f4fafa"/>
    </radialGradient>
    <radialGradient cx="0" cy="0" gradientTransform="matrix(0.0016, 0.0, 0.0, -5.0E-4, 33.65, 9.25)" gradientUnits="userSpaceOnUse" id="gradient36" r="819.2" spreadMethod="pad">
      <stop offset="0.0" stop-color="#ffffff"/>
      <stop offset="1.0" stop-color="#f4fafa"/>
    </radialGradient>
    <radialGradient cx="0" cy="0" gradientTransform="matrix(0.0019, 0.0, 0.0, -6.0E-4, 29.15, 14.65)" gradientUnits="userSpaceOnUse" id="gradient37" r="819.2" spreadMethod="pad">
      <stop offset="0.0" stop-color="#ffffff"/>
      <stop offset="1.0" stop-color="#f4fafa"/>
    </radialGradient>
    <radialGradient cx="0" cy="0" gradientTransform="matrix(0.0109, 0.0, 0.0, -0.0037, 20.0, 13.0)" gradientUnits="userSpaceOnUse" id="gradient38" r="819.2" spreadMethod="pad">
      <stop offset="0.0" stop-color="#ffffff"/>
      <stop offset="1.0" stop-color="#f4fafa"/>
    </radialGradient>
    <radialGradient cx="0" cy="0" gradientTransform="matrix(0.0177, 0.0, 0.0, -0.006, 16.95, 13.05)" gradientUnits="userSpaceOnUse" id="gradient39" r="819.2" spreadMethod="pad">
      <stop offset="0.0" stop-color="#ffffff"/>
      <stop offset="1.0" stop-color="#f4fafa"/>
    </radialGradient>
    <radialGradient cx="0" cy="0" gradientTransform="matrix(0.0019, 0.0, 0.0, -6.0E-4, 36.35, 11.5)" gradientUnits="userSpaceOnUse" id="gradient40" r="819.2" spreadMethod="pad">
      <stop offset="0.0" stop-color="#ffffff"/>
      <stop offset="1.0" stop-color="#f4fafa"/>
    </radialGradient>
    <radialGradient cx="0" cy="0" gradientTransform="matrix(0.0067, 0.0, 0.0, -0.0022, 14.75, 7.05)" gradientUnits="userSpaceOnUse" id="gradient41" r="819.2" spreadMethod="pad">
      <stop offset="0.0" stop-color="#ffffff"/>
      <stop offset="1.0" stop-color="#f4fafa"/>
    </radialGradient>
    <radialGradient cx="0" cy="0" gradientTransform="matrix(0.0039, 0.0, 0.0, -0.0013, 14.95, 7.1)" gradientUnits="userSpaceOnUse" id="gradient42" r="819.2" spreadMethod="pad">
      <stop offset="0.0" stop-color="#ffffff"/>
      <stop offset="1.0" stop-color="#f4fafa"/>
    </radialGradient>
    <radialGradient cx="0" cy="0" gradientTransform="matrix(0.0013, 0.0, 0.0, -4.0E-4, 9.7, 8.35)" gradientUnits="userSpaceOnUse" id="gradient43" r="819.2" spreadMethod="pad">
      <stop offset="0.0" stop-color="#ffffff"/>
      <stop offset="1.0" stop-color="#f4fafa"/>
    </radialGradient>
    <radialGradient cx="0" cy="0" gradientTransform="matrix(0.0019, 0.0, 0.0, -6.0E-4, 5.6, 8.15)" gradientUnits="userSpaceOnUse" id="gradient44" r="819.2" spreadMethod="pad">
      <stop offset="0.0" stop-color="#ffffff"/>
      <stop offset="1.0" stop-color="#f4fafa"/>
    </radialGradient>
    <radialGradient cx="0" cy="0" gradientTransform="matrix(0.0033, 0.0, 0.0, -0.0011, 7.95, 13.95)" gradientUnits="userSpaceOnUse" id="gradient45" r="819.2" spreadMethod="pad">
      <stop offset="0.0" stop-color="#ffffff"/>
      <stop offset="1.0" stop-color="#f4fafa"/>
    </radialGradient>
    <radialGradient cx="0" cy="0" gradientTransform="matrix(0.0017, 0.0, 0.0, -6.0E-4, 3.5, 14.85)" gradientUnits="userSpaceOnUse" id="gradient46" r="819.2" spreadMethod="pad">
      <stop offset="0.0" stop-color="#ffffff"/>
      <stop offset="1.0" stop-color="#f4fafa"/>
    </radialGradient>
  </defs>
</svg>
