<?xml version="1.0" encoding="UTF-8" standalone="no"?>
<svg xmlns:xlink="http://www.w3.org/1999/xlink" height="393.45px" width="150.0px" xmlns="http://www.w3.org/2000/svg">
  <g transform="matrix(1.0, 0.0, 0.0, 1.0, 0.0, 0.0)">
    <use height="393.35" transform="matrix(1.0, 0.0, 0.0, 1.0, 0.0, 0.0)" width="150.0" xlink:href="#shape0"/>
  </g>
  <defs>
    <g id="shape0" transform="matrix(1.0, 0.0, 0.0, 1.0, 0.0, 0.0)">
      <path d="M72.0 168.1 L56.0 168.1 56.0 393.1 72.0 393.1 72.0 168.1" fill="#b4ac95" fill-rule="evenodd" stroke="none"/>
      <path d="M57.15 168.1 L56.0 168.1 56.0 393.1 57.15 393.1 Q57.6 387.0 58.05 372.95 59.0 344.9 59.2 305.1 59.45 262.15 58.3 210.85 L57.15 168.1" fill="#d9cfb5" fill-rule="evenodd" stroke="none"/>
      <path d="M72.0 168.1 L56.0 168.1 56.0 393.1 72.0 393.1 72.0 168.1" fill="url(#gradient0)" fill-rule="evenodd" stroke="none"/>
      <path d="M69.3 238.45 L68.15 238.25 Q67.1 242.45 66.45 247.9 L65.7 254.2 65.1 259.65 65.05 261.15 Q69.05 261.65 71.45 260.45 72.45 259.95 72.6 259.15 L72.6 257.25 72.6 247.9 69.3 238.45" fill="url(#gradient1)" fill-rule="evenodd" stroke="none"/>
      <path d="M69.3 361.5 L68.15 361.3 Q67.1 365.5 66.45 370.95 L65.7 377.25 65.1 382.7 65.05 384.2 Q69.05 384.7 71.45 383.5 72.45 383.0 72.6 382.2 L72.6 380.3 72.6 370.95 69.3 361.5" fill="url(#gradient2)" fill-rule="evenodd" stroke="none"/>
      <path d="M74.0 239.1 L68.0 239.1 68.0 258.1 67.7 258.1 67.7 258.2 Q67.7 258.7 68.65 259.05 69.6 259.45 70.95 259.45 L73.25 259.1 Q74.25 258.7 74.25 258.25 L74.2 258.1 74.0 258.1 74.0 239.1" fill="#a7a7a7" fill-rule="evenodd" stroke="none"/>
      <path d="M67.7 238.35 Q67.7 238.85 68.65 239.2 L70.95 239.55 73.25 239.2 Q74.25 238.85 74.25 238.35 74.25 237.9 73.25 237.55 L70.95 237.2 68.65 237.55 Q67.7 237.9 67.7 238.35" fill="#a7a7a7" fill-rule="evenodd" stroke="none"/>
      <path d="M70.15 244.0 L68.85 243.85 Q68.45 244.35 68.55 246.2 L68.5 249.85 Q68.5 252.45 68.65 252.6 L68.75 252.65 70.0 252.8 Q69.8 250.45 69.9 247.1 L70.0 245.4 69.4 244.95 Q68.9 244.5 68.95 244.0 L69.15 244.0 70.15 244.05 70.15 244.0" fill="#878787" fill-rule="evenodd" stroke="none"/>
      <path d="M68.95 256.9 Q69.35 257.75 70.7 258.4 72.15 259.05 73.7 258.95 L74.25 258.3 Q71.5 258.65 70.5 255.45 L69.65 255.0 69.25 254.5 Q68.45 255.85 68.95 256.9" fill="#878787" fill-rule="evenodd" stroke="none"/>
      <path d="M71.35 240.1 L72.9 240.1 Q73.5 239.1 73.75 239.1 L73.0 239.1 72.0 239.35 70.95 239.75 Q69.6 240.0 69.0 240.65 68.5 241.2 68.75 241.75 69.3 243.1 70.35 243.1 L70.5 242.5 Q69.85 242.4 69.65 242.1 L70.8 241.9 71.3 241.05 71.15 240.95 Q70.95 240.55 71.25 240.2 L71.35 240.1" fill="#878787" fill-rule="evenodd" stroke="none"/>
      <path d="M72.35 252.65 L70.0 252.8 68.75 252.65 70.05 252.9 72.1 252.7 72.35 252.65" fill="#878787" fill-rule="evenodd" stroke="none"/>
      <path d="M70.35 243.1 L71.35 243.15 73.25 243.1 72.35 243.35 70.15 243.45 Q69.2 243.3 68.8 243.85 L70.05 244.0 Q72.4 244.1 74.0 243.35 L74.0 242.6 70.35 243.1" fill="#878787" fill-rule="evenodd" stroke="none"/>
      <path d="M69.75 253.9 L71.75 254.05 73.5 253.7 73.45 253.75 74.0 253.45 74.0 252.15 73.4 252.4 73.75 252.35 73.0 252.8 Q72.1 253.25 71.05 253.3 70.35 253.35 69.75 253.9" fill="#878787" fill-rule="evenodd" stroke="none"/>
      <path d="M72.95 239.1 L68.0 239.1 68.0 258.1 67.7 258.1 67.7 258.25 Q67.7 258.7 68.65 259.1 L70.95 259.45 Q72.8 259.45 73.7 258.95 72.15 259.05 70.7 258.4 69.35 257.75 68.95 256.9 68.45 255.85 69.25 254.5 L68.55 253.75 69.4 253.5 69.75 253.9 Q70.35 253.35 71.05 253.3 72.1 253.25 73.0 252.8 L73.75 252.35 72.1 252.7 70.05 252.9 68.75 252.65 68.65 252.6 Q68.5 252.45 68.5 249.85 L68.55 246.2 Q68.45 244.35 68.85 243.85 69.25 243.3 70.2 243.45 L72.4 243.35 73.3 243.1 71.35 243.15 70.35 243.1 Q69.2 242.9 68.75 241.75 68.5 241.25 69.0 240.65 69.65 240.0 70.95 239.75 L72.0 239.35 72.95 239.1" fill="#616161" fill-rule="evenodd" stroke="none"/>
      <path d="M73.75 241.85 L73.75 240.15 Q73.8 239.65 72.9 239.75 L72.5 239.8 72.5 242.45 Q73.55 242.35 73.75 241.85" fill="#dbdbdb" fill-rule="evenodd" stroke="none"/>
      <path d="M72.7 244.15 L72.6 244.15 72.5 248.55 72.2 250.2 72.3 250.35 72.6 250.9 72.4 251.45 Q72.45 251.75 72.9 251.65 L73.5 251.4 73.45 249.75 73.3 248.95 73.45 248.0 73.15 247.0 73.1 245.7 73.1 245.05 73.2 244.25 73.0 244.05 72.7 244.15" fill="#dbdbdb" fill-rule="evenodd" stroke="none"/>
      <path d="M72.7 257.25 Q73.5 256.4 73.1 255.35 L72.85 255.0 72.8 254.6 73.2 254.2 73.55 253.75 73.55 253.7 72.55 253.95 72.7 257.25" fill="#dbdbdb" fill-rule="evenodd" stroke="none"/>
      <path d="M67.7 238.35 Q67.7 238.85 68.65 239.2 L70.95 239.55 73.25 239.2 Q74.25 238.85 74.25 238.35 74.25 237.9 73.25 237.55 L70.95 237.2 68.65 237.55 Q67.7 237.9 67.7 238.35" fill="#b8b8b8" fill-rule="evenodd" stroke="none"/>
      <path d="M74.0 361.1 L68.0 361.1 68.0 381.1 67.7 381.1 67.7 381.15 Q67.7 381.65 68.65 382.0 L70.95 382.35 73.25 382.0 Q74.25 381.65 74.25 381.15 L74.2 381.1 74.0 381.1 74.0 361.1" fill="#a7a7a7" fill-rule="evenodd" stroke="none"/>
      <path d="M67.7 361.25 Q67.7 361.75 68.65 362.05 L70.95 362.4 73.25 362.05 Q74.25 361.75 74.25 361.25 74.25 360.75 73.25 360.45 L70.95 360.1 68.65 360.45 Q67.7 360.75 67.7 361.25" fill="#a7a7a7" fill-rule="evenodd" stroke="none"/>
      <path d="M69.9 369.95 L70.0 368.25 69.4 367.85 Q68.9 367.35 68.95 366.85 L69.15 366.85 70.15 366.95 70.15 366.85 68.85 366.7 Q68.45 367.25 68.55 369.05 L68.5 372.7 Q68.5 375.35 68.65 375.5 L68.75 375.55 70.0 375.65 Q69.8 373.35 69.9 369.95" fill="#878787" fill-rule="evenodd" stroke="none"/>
      <path d="M68.95 379.75 Q69.35 380.65 70.7 381.25 72.15 381.95 73.7 381.8 L74.25 381.2 Q71.5 381.45 70.5 378.35 L69.65 377.85 69.25 377.4 Q68.4 378.8 68.95 379.75" fill="#878787" fill-rule="evenodd" stroke="none"/>
      <path d="M71.3 363.95 L71.15 363.85 Q70.95 363.5 71.25 363.15 L71.35 363.1 72.4 363.1 72.9 362.6 Q73.5 362.1 73.75 361.1 L73.0 361.1 Q72.6 361.75 72.0 362.0 L70.95 362.2 Q69.65 362.45 69.0 363.35 68.5 364.1 68.75 364.65 L69.2 365.55 Q69.65 366.1 70.35 366.1 L70.5 365.45 Q69.9 365.35 69.65 364.95 L70.8 364.75 71.3 363.95" fill="#878787" fill-rule="evenodd" stroke="none"/>
      <path d="M72.35 375.5 L70.0 375.65 68.75 375.55 Q69.9 376.05 72.1 375.55 L72.35 375.5" fill="#878787" fill-rule="evenodd" stroke="none"/>
      <path d="M71.65 366.05 L73.25 365.95 72.35 366.25 70.15 366.3 Q69.25 366.15 68.8 366.7 L70.05 366.85 Q72.35 367.0 74.0 366.25 L74.0 365.45 71.65 366.05" fill="#878787" fill-rule="evenodd" stroke="none"/>
      <path d="M69.75 376.75 L71.75 376.9 73.5 376.6 73.45 376.65 74.0 376.3 74.0 375.0 73.4 375.25 73.75 375.2 73.0 375.65 71.05 376.2 Q70.5 376.2 69.75 376.75" fill="#878787" fill-rule="evenodd" stroke="none"/>
      <path d="M69.0 363.3 Q69.65 362.45 70.95 362.2 L72.0 361.95 73.0 361.1 68.0 361.1 68.0 381.1 67.7 381.1 67.7 381.15 Q67.7 381.65 68.65 382.0 L70.95 382.35 Q72.7 382.35 73.7 381.8 72.15 381.95 70.7 381.25 69.35 380.65 68.95 379.75 68.4 378.8 69.25 377.4 L68.55 376.65 69.4 376.35 69.75 376.75 Q70.5 376.2 71.05 376.2 L73.0 375.65 73.75 375.2 72.1 375.55 Q69.9 376.05 68.75 375.55 L68.65 375.5 Q68.5 375.35 68.5 372.7 L68.55 369.05 Q68.45 367.25 68.85 366.7 69.3 366.15 70.2 366.3 L72.4 366.25 73.3 365.95 71.35 366.05 70.35 366.0 Q69.2 365.75 68.75 364.6 68.5 364.05 69.0 363.3" fill="#616161" fill-rule="evenodd" stroke="none"/>
      <path d="M73.75 363.0 Q73.8 362.55 72.9 362.65 L72.5 362.65 72.5 365.35 Q73.6 365.15 73.75 364.7 L73.75 363.0" fill="#dbdbdb" fill-rule="evenodd" stroke="none"/>
      <path d="M72.7 367.0 L72.6 367.0 72.5 371.4 72.2 373.05 72.3 373.25 72.6 373.8 72.4 374.3 Q72.45 374.6 72.9 374.5 L73.5 374.25 73.45 372.65 73.3 371.85 73.45 370.85 73.15 369.85 73.1 368.55 73.1 367.95 73.2 367.1 73.0 366.95 72.7 367.0" fill="#dbdbdb" fill-rule="evenodd" stroke="none"/>
      <path d="M72.7 380.1 Q73.5 379.3 73.1 378.25 L72.85 377.85 72.8 377.45 73.2 377.05 73.55 376.65 73.55 376.6 72.55 376.8 72.7 380.1" fill="#dbdbdb" fill-rule="evenodd" stroke="none"/>
      <path d="M67.7 361.25 Q67.7 361.75 68.65 362.05 L70.95 362.4 73.25 362.05 Q74.25 361.75 74.25 361.25 74.25 360.75 73.25 360.45 L70.95 360.1 68.65 360.45 Q67.7 360.75 67.7 361.25" fill="#b8b8b8" fill-rule="evenodd" stroke="none"/>
      <path d="M133.0 0.0 L150.0 0.05 150.0 227.1 133.0 227.1 133.0 0.0" fill="#ffffff" fill-opacity="0.0" fill-rule="evenodd" stroke="none"/>
      <path d="M124.2 3.3 L127.5 2.05 127.5 225.95 124.2 225.2 124.2 3.3 M128.5 1.7 L133.0 0.0 133.05 227.0 132.95 227.1 128.5 226.15 128.5 1.7 M121.2 224.55 L121.15 224.55 121.15 4.45 121.2 4.45 121.2 224.55 M117.15 223.65 L113.6 222.9 113.6 7.3 117.15 5.95 117.15 223.65 M112.45 222.65 L105.5 221.1 105.5 10.35 112.45 7.75 112.45 222.65 M104.7 220.95 L98.5 219.6 98.5 12.95 104.7 10.65 104.7 220.95 M97.7 219.4 L94.25 218.65 94.25 14.55 97.7 13.25 97.7 219.4 M91.65 218.1 L91.6 218.1 91.6 15.55 91.65 15.55 91.65 218.1 M88.15 217.35 L85.0 216.65 85.0 18.05 88.15 16.85 88.15 217.35 M84.25 216.5 L78.35 215.2 78.35 20.5 84.25 18.3 84.25 216.5 M77.75 215.05 L72.25 213.85 72.25 22.8 77.75 20.75 77.75 215.05 M71.5 213.7 L68.45 213.0 68.45 24.25 71.5 23.1 71.5 213.7 M54.25 29.6 L59.55 27.6 59.55 211.05 56.0 210.3 56.0 393.35 54.25 392.0 54.25 29.6 M60.2 27.35 L62.95 26.3 62.95 211.8 60.2 211.2 60.2 27.35 M53.65 391.65 L48.35 387.55 48.35 31.8 53.65 29.8 53.65 391.65 M47.7 387.05 L45.3 385.15 45.3 32.95 47.7 32.05 47.7 387.05 M40.6 381.5 L38.1 379.6 38.1 35.65 40.6 34.7 40.6 381.5 M37.5 379.1 L32.75 375.45 32.75 37.65 37.5 35.9 37.5 379.1 M32.35 375.15 L27.65 371.5 27.65 39.6 32.35 37.8 32.35 375.15 M27.0 371.0 L25.05 369.5 25.05 40.55 27.0 39.85 27.0 371.0 M20.75 366.15 L18.55 364.45 18.55 43.0 20.75 42.15 20.75 366.15 M17.95 363.95 L13.6 360.6 13.6 44.85 17.95 43.2 17.95 363.95 M13.15 360.25 L9.3 357.3 9.3 46.45 13.15 45.0 13.15 360.25 M8.8 356.9 L6.65 355.25 6.65 47.45 8.8 46.65 8.8 356.9 M2.85 352.3 L0.9 350.75 0.9 49.65 2.85 48.9 2.85 352.3 M0.35 350.35 L0.05 350.1 0.05 350.0 0.0 349.95 0.0 49.95 0.35 49.85 0.35 350.35" fill="#c8bea9" fill-rule="evenodd" stroke="none"/>
      <path d="M127.5 2.05 L128.5 1.7 128.5 226.15 127.5 225.95 127.5 2.05 M113.6 222.9 L112.45 222.65 112.45 7.75 113.6 7.3 113.6 222.9 M98.5 219.6 L97.7 219.4 97.7 13.25 98.5 12.95 98.5 219.6 M85.0 216.65 L84.25 216.5 84.25 18.3 85.0 18.05 85.0 216.65 M72.25 213.85 L71.5 213.7 71.5 23.1 72.25 22.8 72.25 213.85 M59.55 27.6 L60.2 27.35 60.2 211.2 59.55 211.05 59.55 27.6 M48.35 387.55 L47.7 387.05 47.7 32.05 48.35 31.8 48.35 387.55 M38.1 379.6 L37.9 379.4 37.85 379.4 37.5 379.1 37.5 35.9 38.1 35.65 38.1 379.6 M27.65 371.5 L27.0 371.0 27.0 39.85 27.65 39.6 27.65 371.5 M18.55 364.45 L17.95 363.95 17.95 43.2 18.55 43.0 18.55 364.45 M9.3 357.3 L8.8 356.9 8.8 46.65 9.3 46.45 9.3 357.3 M0.9 350.75 L0.35 350.35 0.35 49.85 0.9 49.65 0.9 350.75" fill="#74674a" fill-rule="evenodd" stroke="none"/>
      <path d="M124.2 225.2 L123.25 225.0 123.25 3.65 124.2 3.3 124.2 225.2 M121.15 224.55 L120.05 224.3 120.05 4.9 121.15 4.45 121.15 224.55 M118.05 223.85 L117.15 223.65 117.15 5.95 118.05 5.65 118.05 223.85 M105.5 221.1 L104.7 220.95 104.7 10.65 105.5 10.35 105.5 221.1 M94.25 218.65 L93.45 218.5 93.45 14.85 94.25 14.55 94.25 218.65 M91.6 218.1 L90.6 217.85 90.6 15.95 91.6 15.55 91.6 218.1 M88.85 217.5 L88.15 217.35 88.15 16.85 88.85 16.6 88.85 217.5 M78.35 215.2 L77.75 215.05 77.75 20.75 78.35 20.5 78.35 215.2 M68.45 213.0 L67.7 212.85 67.7 24.5 68.45 24.25 68.45 213.0 M53.65 29.8 L54.25 29.6 54.25 392.0 54.25 392.1 53.65 391.65 53.65 29.8 M62.95 26.3 L63.15 26.25 63.7 26.05 63.7 212.0 62.95 211.8 62.95 26.3 M65.2 25.45 L66.05 25.15 66.05 212.5 65.2 212.3 65.2 25.45 M45.3 385.15 L44.7 384.7 44.7 33.2 45.3 32.95 45.3 385.15 M43.3 383.6 L42.5 383.0 42.5 34.0 43.3 33.7 43.3 383.6 M41.15 381.95 L40.6 381.5 40.6 34.7 41.15 34.5 41.15 381.95 M32.75 375.45 L32.35 375.15 32.35 37.8 32.75 37.65 32.75 375.45 M25.05 369.5 L24.45 369.0 24.45 40.8 25.05 40.55 25.05 369.5 M23.2 368.05 L22.55 367.55 22.55 41.5 23.2 41.25 23.2 368.05 M21.35 366.6 L20.75 366.15 20.75 42.15 21.35 41.95 21.35 366.6 M13.6 360.6 L13.15 360.25 13.15 45.0 13.6 44.85 13.6 360.6 M6.65 355.25 L6.15 354.85 6.15 47.65 6.65 47.45 6.65 355.25 M5.05 354.0 L4.4 353.5 4.4 48.3 5.05 48.05 5.05 354.0 M3.3 352.65 L2.85 352.3 2.85 48.9 3.3 48.7 3.3 352.65" fill="#999691" fill-rule="evenodd" stroke="none"/>
      <path d="M123.25 225.0 L121.2 224.55 121.2 4.45 123.25 3.65 123.25 225.0 M120.05 224.3 L118.05 223.85 118.05 5.65 120.05 4.9 120.05 224.3 M93.45 218.5 L91.65 218.1 91.65 15.55 93.45 14.85 93.45 218.5 M90.6 217.85 L88.85 217.5 88.85 16.6 90.6 15.95 90.6 217.85 M67.7 212.85 L66.1 212.5 66.1 25.1 67.7 24.5 67.7 212.85 M63.7 26.05 L65.2 25.45 65.2 212.3 63.7 212.0 63.7 26.05 M44.7 384.7 L43.3 383.6 43.3 33.7 44.7 33.2 44.7 384.7 M42.5 383.0 L41.15 381.95 41.15 34.5 42.5 34.0 42.5 383.0 M24.45 369.0 L23.2 368.05 23.2 41.25 24.45 40.8 24.45 369.0 M22.55 367.55 L21.35 366.6 21.35 41.95 22.55 41.5 22.55 367.55 M6.15 354.85 L5.05 354.05 5.05 354.0 5.05 48.05 6.15 47.65 6.15 354.85 M4.4 353.5 L3.3 352.65 3.3 48.7 4.4 48.3 4.4 353.5" fill="#cdc6b3" fill-rule="evenodd" stroke="none"/>
    </g>
    <linearGradient gradientTransform="matrix(0.0, 0.0725, -0.0725, 0.0, 64.0, 270.85)" gradientUnits="userSpaceOnUse" id="gradient0" spreadMethod="pad" x1="-819.2" x2="819.2">
      <stop offset="0.0" stop-color="#000000" stop-opacity="0.5176471"/>
      <stop offset="0.4588235294117647" stop-color="#000000" stop-opacity="0.0"/>
    </linearGradient>
    <linearGradient gradientTransform="matrix(-0.0063, 0.0036, -0.0036, -0.0063, 66.55, 251.25)" gradientUnits="userSpaceOnUse" id="gradient1" spreadMethod="pad" x1="-819.2" x2="819.2">
      <stop offset="0.0" stop-color="#000000" stop-opacity="0.5372549"/>
      <stop offset="1.0" stop-color="#000000" stop-opacity="0.0"/>
    </linearGradient>
    <linearGradient gradientTransform="matrix(-0.0063, 0.0036, -0.0036, -0.0063, 66.55, 374.3)" gradientUnits="userSpaceOnUse" id="gradient2" spreadMethod="pad" x1="-819.2" x2="819.2">
      <stop offset="0.0" stop-color="#000000" stop-opacity="0.5372549"/>
      <stop offset="1.0" stop-color="#000000" stop-opacity="0.0"/>
    </linearGradient>
  </defs>
</svg>
