<?xml version="1.0" encoding="UTF-8" standalone="no"?>
<svg xmlns:xlink="http://www.w3.org/1999/xlink" height="236.35px" width="338.55px" xmlns="http://www.w3.org/2000/svg">
  <g transform="matrix(1.0, 0.0, 0.0, 1.0, 0.0, 0.0)">
    <use height="236.35" transform="matrix(1.0, 0.0, 0.0, 1.0, 0.0, 0.0)" width="338.55" xlink:href="#shape0"/>
  </g>
  <defs>
    <g id="shape0" transform="matrix(1.0, 0.0, 0.0, 1.0, 0.0, 0.0)">
      <path d="M15.6 67.55 L46.0 21.15 60.4 64.35 15.6 67.55" fill="#60383e" fill-rule="evenodd" stroke="none"/>
      <path d="M121.2 68.35 L68.4 236.35 47.6 228.35 Q49.2 208.55 50.6 185.35 53.4 138.95 52.4 121.95 51.4 104.95 47.4 82.15 L43.6 62.75 84.4 7.55 121.2 68.35" fill="url(#gradient0)" fill-rule="evenodd" stroke="none"/>
      <path d="M76.2 191.15 L75.8 192.7 50.55 186.2 50.65 184.55 76.2 191.15" fill="#895e42" fill-rule="evenodd" stroke="none"/>
      <path d="M71.1 215.2 L70.5 216.7 49.1 208.25 49.2 206.6 71.1 215.2" fill="#895e42" fill-rule="evenodd" stroke="none"/>
      <path d="M78.6 171.55 L78.2 173.1 51.65 166.15 51.7 164.5 78.6 171.55" fill="#895e42" fill-rule="evenodd" stroke="none"/>
      <path d="M52.45 145.9 L52.5 144.3 82.1 147.95 81.9 149.55 52.45 145.9" fill="#895e42" fill-rule="evenodd" stroke="none"/>
      <path d="M52.55 126.4 L52.5 124.8 84.85 126.35 84.75 127.95 52.55 126.4" fill="#895e42" fill-rule="evenodd" stroke="none"/>
      <path d="M50.75 104.35 L50.55 102.75 88.5 107.15 88.3 108.75 50.75 104.35" fill="#895e42" fill-rule="evenodd" stroke="none"/>
      <path d="M91.35 90.35 L91.05 91.9 47.5 82.8 47.2 81.1 91.35 90.35" fill="#895e42" fill-rule="evenodd" stroke="none"/>
      <path d="M92.4 78.75 L46.4 75.55 43.6 62.75 94.4 64.75 92.4 78.75" fill="#955b39" fill-rule="evenodd" stroke="none"/>
      <path d="M101.55 26.8 L271.6 37.95 305.2 234.75 68.4 236.35 101.55 26.8" fill="url(#gradient1)" fill-rule="evenodd" stroke="none"/>
      <path d="M107.2 148.8 L152.4 150.35 153.15 132.95 107.6 129.6 107.2 148.8 M160.0 195.15 L125.2 194.0 125.6 215.15 171.25 216.15 172.75 194.15 160.0 195.15 M103.55 173.45 L102.8 191.7 146.0 193.1 146.4 174.15 103.55 173.45 M148.75 90.65 L103.1 91.65 102.45 105.85 109.95 105.15 148.4 106.5 148.75 90.65 M279.6 195.05 L271.9 195.15 229.2 190.2 229.6 213.7 263.6 211.95 281.5 213.25 279.6 195.05 M201.6 107.35 L226.4 107.55 258.35 105.75 258.0 88.9 201.2 89.95 201.6 107.35 M229.6 170.25 L240.5 169.55 276.8 175.15 281.55 174.55 279.2 151.2 279.3 151.2 267.55 149.15 230.0 150.55 229.6 170.25 M202.8 149.95 L203.2 149.9 203.2 132.8 155.6 133.15 154.75 133.1 154.05 150.3 202.8 149.95 M227.6 190.05 L226.8 189.95 174.35 194.0 172.85 216.2 179.2 216.35 228.0 213.8 227.6 190.05 M172.0 173.25 L173.1 151.75 151.2 151.95 124.8 151.0 125.15 172.15 172.0 173.25 M199.25 190.5 L200.65 173.8 181.25 175.15 148.0 174.2 147.6 193.15 159.95 193.55 199.25 190.5 M174.7 151.75 L173.6 173.3 181.2 173.55 228.0 170.35 228.4 150.6 202.8 151.55 174.7 151.75 M202.3 173.7 L200.85 190.35 226.8 188.35 226.9 188.35 254.7 191.55 253.2 173.1 240.35 171.15 202.3 173.7 M174.8 131.4 L174.4 108.8 126.8 107.35 127.2 129.45 155.65 131.55 174.8 131.4 M166.4 107.15 L200.0 107.35 199.6 89.95 150.35 90.6 150.0 106.55 166.4 107.15 M216.4 131.15 L228.0 130.65 227.6 109.05 226.45 109.15 176.0 108.8 176.4 131.4 216.4 131.15 M216.4 132.75 L204.8 132.8 204.8 149.85 257.2 147.9 257.6 131.05 216.4 132.75 M229.2 109.0 L229.6 130.6 274.8 128.75 274.85 128.75 281.5 129.15 278.5 106.2 229.2 109.0 M254.4 48.35 L256.0 48.3 256.75 69.2 276.95 69.45 277.25 71.05 230.8 70.45 231.55 87.8 279.95 86.9 280.2 88.5 259.6 88.85 259.95 105.65 282.95 104.35 283.2 105.95 280.1 106.1 283.1 129.25 287.2 129.5 287.5 131.1 274.8 130.35 259.2 131.0 258.8 147.85 267.75 147.55 291.0 151.65 291.3 153.3 280.85 151.45 283.1 174.35 294.65 172.95 294.9 174.55 276.8 176.75 254.85 173.35 256.3 191.75 272.05 193.55 298.1 193.3 298.4 194.9 281.25 195.05 283.15 213.35 301.75 214.75 302.05 216.35 263.6 213.55 256.0 213.95 256.3 235.05 254.7 235.1 254.4 214.0 203.15 216.7 202.55 235.45 200.95 235.45 201.55 216.75 179.25 217.95 144.35 217.05 143.7 235.85 142.1 235.85 142.75 217.0 100.3 216.75 99.35 236.15 97.7 236.15 98.7 216.75 71.5 216.75 71.75 215.15 98.8 215.15 98.8 215.1 124.0 215.15 123.6 193.95 76.0 192.75 76.0 191.15 101.2 191.65 101.95 173.45 78.4 173.15 78.65 171.55 123.55 172.15 123.2 150.95 82.1 149.55 82.35 147.95 105.6 148.75 106.0 129.5 85.55 128.0 85.8 126.4 125.6 129.35 125.2 107.3 110.0 106.75 88.6 108.7 88.85 107.1 100.85 106.0 101.5 91.7 91.25 91.95 91.5 90.35 101.6 90.1 101.6 89.9 103.2 89.95 103.2 90.05 121.15 89.65 120.8 72.35 122.4 72.3 122.75 89.6 172.0 88.65 173.2 70.7 174.8 70.8 173.65 88.6 229.95 87.85 229.2 70.45 191.2 69.95 191.2 68.35 255.15 69.15 254.4 48.35" fill="#bd7b54" fill-rule="evenodd" stroke="none"/>
      <path d="M276.8 61.95 L279.6 81.15 270.7 80.65 Q265.15 73.3 257.35 66.0 241.75 51.4 230.45 51.75 219.15 52.05 210.2 64.6 207.45 68.5 205.2 73.15 L203.55 77.05 186.45 79.95 Q167.25 82.9 156.6 83.25 L118.1 81.2 92.4 78.75 94.4 64.75 Q120.95 58.45 122.5 58.95 123.7 59.35 160.0 47.85 196.85 36.2 211.85 30.55 224.75 25.7 252.05 43.35 265.75 52.15 276.8 61.95" fill="#b36940" fill-rule="evenodd" stroke="none"/>
      <path d="M273.5 75.6 Q268.3 68.05 260.15 60.8 243.9 46.25 229.35 47.7 214.8 49.15 205.55 60.2 202.65 63.65 200.6 67.65 L199.15 70.95 Q195.1 72.1 186.65 73.3 169.8 75.6 148.0 75.6 126.2 75.6 84.35 72.0 L46.8 68.35 57.25 0.0 Q85.75 4.4 119.2 8.45 186.05 16.65 210.75 15.2 235.45 13.75 268.55 7.35 285.15 4.15 296.75 1.25 L338.55 75.6 273.5 75.6" fill="#9b535c" fill-rule="evenodd" stroke="none"/>
      <path d="M271.3 15.6 L271.85 16.9 Q272.15 18.25 270.75 18.65 268.9 18.95 269.0 17.5 L269.35 16.25 269.3 17.1 Q269.45 18.2 270.45 18.3 271.3 18.35 271.4 17.0 L271.3 15.6" fill="#7f474f" fill-rule="evenodd" stroke="none"/>
      <path d="M204.4 19.0 L171.35 20.35 Q149.35 19.65 103.2 13.8 L61.45 8.05 63.6 4.35 107.35 10.55 Q155.05 16.8 175.05 17.15 207.05 17.65 221.45 17.15 L204.4 19.0" fill="#c1787d" fill-rule="evenodd" stroke="none"/>
      <path d="M15.6 67.55 L0.0 69.95 57.25 0.0 46.8 68.35 35.6 67.95 42.0 29.55 15.6 67.55" fill="#7f474f" fill-rule="evenodd" stroke="none"/>
      <path d="M247.35 64.05 Q250.5 65.05 252.4 68.65 253.4 70.45 253.7 72.05 L255.65 71.95 Q258.05 72.2 260.4 74.2 262.7 76.2 263.4 79.95 263.75 81.8 263.6 83.25 L265.7 83.9 Q267.9 85.25 268.4 88.6 268.9 91.95 267.65 95.7 L266.25 98.75 268.65 98.5 Q271.1 98.95 271.6 102.45 272.1 105.95 269.25 109.25 L266.25 111.8 268.05 113.8 Q269.8 116.45 269.45 119.8 269.1 123.15 265.25 126.35 L261.45 128.85 262.15 130.65 Q262.4 133.05 260.4 136.05 258.4 139.05 253.75 139.75 L249.45 139.8 249.1 142.0 Q248.3 144.4 246.0 145.4 L239.25 145.6 235.35 144.6 Q235.35 145.85 234.65 147.3 233.25 150.15 229.7 151.0 226.2 151.85 222.95 148.05 L220.4 144.05 215.6 144.4 Q210.25 144.1 207.6 141.15 204.75 137.95 204.95 134.3 L205.7 131.25 Q204.25 130.35 202.85 128.55 200.05 124.95 200.4 120.6 200.7 116.25 202.85 113.2 203.9 111.65 204.9 111.0 203.7 109.0 202.75 106.3 200.9 100.9 202.25 97.4 203.6 93.9 206.0 92.65 207.2 92.0 208.1 92.05 207.85 90.65 207.9 88.8 207.95 85.05 209.45 82.75 210.95 80.4 213.45 79.35 214.65 78.8 215.6 78.75 215.4 77.15 215.6 75.05 216.05 70.9 218.25 68.6 221.45 65.25 225.1 66.05 226.9 66.5 228.1 67.55 L229.6 65.0 Q231.75 62.4 234.8 61.95 237.1 61.6 239.4 64.4 L241.2 67.25 242.35 65.05 Q244.15 63.05 247.35 64.05" fill="#f8cc77" fill-rule="evenodd" stroke="none"/>
      <path d="M219.4 77.55 Q228.2 66.1 237.15 67.2 250.05 68.8 257.7 80.85 264.75 92.0 264.4 106.55 264.05 121.45 255.9 131.25 246.8 142.3 230.95 142.1 215.25 141.95 209.45 129.75 204.5 119.25 207.9 103.3 211.1 88.35 219.4 77.55" fill="#9b535c" fill-rule="evenodd" stroke="none"/>
      <path d="M223.1 85.55 Q229.8 76.25 237.65 74.95 244.35 73.85 249.65 83.3 254.65 92.25 255.35 104.55 256.1 117.65 251.15 125.95 245.4 135.6 233.55 134.85 221.6 134.15 216.75 125.15 212.55 117.3 214.7 105.5 216.75 94.35 223.1 85.55" fill="#60383e" fill-rule="evenodd" stroke="none"/>
      <path d="M199.6 188.6 Q187.9 189.15 183.75 184.2 180.35 180.15 181.7 171.8 182.85 165.05 188.45 160.5 193.2 156.65 198.0 156.35 205.6 155.8 210.75 162.1 215.05 167.35 215.3 173.4 215.6 180.5 213.85 183.2 210.7 188.05 199.6 188.6" fill="#f8cc77" fill-rule="evenodd" stroke="none"/>
      <path d="M196.75 186.5 Q187.75 186.5 184.7 181.85 182.1 177.95 184.25 171.8 186.2 166.2 190.7 162.1 195.4 157.85 199.45 158.55 205.25 159.55 209.4 164.1 213.35 168.4 213.8 173.55 214.25 179.05 210.35 182.5 205.85 186.5 196.75 186.5" fill="#9b535c" fill-rule="evenodd" stroke="none"/>
      <path d="M188.75 197.65 Q193.35 192.65 198.8 193.15 205.2 193.7 209.3 197.95 212.7 201.5 213.2 205.95 213.8 211.95 212.55 214.95 210.35 220.25 202.5 220.6 194.05 221.0 189.3 217.0 185.1 213.55 184.65 207.8 184.25 202.45 188.75 197.65" fill="#f8cc77" fill-rule="evenodd" stroke="none"/>
      <path d="M206.85 199.55 Q210.2 203.15 210.9 207.85 211.6 212.75 208.8 215.75 205.65 219.15 198.95 218.55 192.3 217.95 189.35 214.15 186.8 210.85 187.55 206.15 188.25 201.75 191.25 198.55 194.45 195.2 198.3 195.4 203.15 195.65 206.85 199.55" fill="#9b535c" fill-rule="evenodd" stroke="none"/>
      <path d="M197.4 184.45 Q192.6 184.7 190.25 181.45 188.1 178.55 188.65 174.1 189.15 169.7 191.95 166.5 195.0 162.95 199.45 162.65 203.35 162.4 205.65 165.65 207.75 168.65 207.65 173.05 207.5 177.5 205.0 180.65 202.2 184.2 197.4 184.45" fill="#60383e" fill-rule="evenodd" stroke="none"/>
      <path d="M205.2 200.8 Q207.7 203.2 208.15 206.65 208.55 210.15 206.45 212.45 204.1 215.05 199.3 214.8 194.55 214.55 192.4 212.0 190.5 209.85 191.0 206.55 191.45 203.5 193.6 201.1 195.85 198.65 198.6 198.45 202.45 198.2 205.2 200.8" fill="#60383e" fill-rule="evenodd" stroke="none"/>
      <path d="M244.65 80.85 L247.0 85.7 Q249.6 91.25 250.8 94.75 252.15 98.8 251.4 105.05 250.65 111.15 249.2 110.75 248.2 110.45 248.5 105.85 249.0 99.0 248.65 95.55 248.15 90.7 246.35 85.3 L244.65 80.85" fill="#c1787d" fill-rule="evenodd" stroke="none"/>
      <path d="M202.5 166.2 Q205.5 166.55 205.8 171.95 206.05 177.15 204.65 177.65 203.8 178.0 203.85 176.85 203.85 176.35 204.4 173.4 204.7 171.75 203.2 168.65 202.05 166.15 202.5 166.2" fill="#c1787d" fill-rule="evenodd" stroke="none"/>
      <path d="M203.05 201.65 Q206.2 202.0 206.85 205.65 207.45 209.1 206.25 209.4 205.65 209.55 205.65 208.3 L205.45 205.4 Q205.1 204.05 204.05 202.7 L203.05 201.65" fill="#c1787d" fill-rule="evenodd" stroke="none"/>
      <path d="M82.65 32.25 L82.75 34.6 Q82.35 37.05 79.15 36.05 76.7 34.8 78.05 32.7 L79.75 30.8 78.8 32.35 Q78.05 34.15 79.15 35.25 81.45 37.1 82.65 32.25" fill="#7f474f" fill-rule="evenodd" stroke="none"/>
      <path d="M95.7 60.4 L96.1 59.2 96.15 60.45 Q96.25 62.55 95.9 64.05 94.6 69.1 88.35 67.0 82.9 64.05 86.05 59.8 L89.85 56.25 87.75 59.2 Q85.9 62.85 88.3 65.35 91.4 67.85 94.15 63.55 L95.7 60.4" fill="#7f474f" fill-rule="evenodd" stroke="none"/>
      <path d="M285.85 14.5 L285.8 17.6 Q286.4 21.6 289.95 22.05 293.85 22.1 293.35 17.05 L292.05 12.25 293.05 13.45 Q294.4 15.0 295.05 16.4 297.1 21.1 291.0 23.35 284.45 24.25 284.75 19.0 L285.85 14.5" fill="#7f474f" fill-rule="evenodd" stroke="none"/>
      <path d="M202.7 33.25 L203.0 31.35 203.4 33.25 Q204.15 36.45 204.0 38.75 203.45 46.6 193.1 44.9 187.55 43.0 186.85 39.5 186.3 36.8 188.6 34.15 191.1 31.05 194.05 28.2 194.4 28.25 191.0 33.15 188.35 38.85 192.7 42.4 198.15 45.55 201.2 38.4 202.2 36.1 202.7 33.25" fill="#7f474f" fill-rule="evenodd" stroke="none"/>
      <path d="M309.6 58.15 L309.1 59.7 Q308.8 61.65 310.25 62.45 311.8 63.15 312.7 60.9 L313.35 58.45 313.55 61.0 Q313.25 63.45 310.5 63.2 307.55 62.7 308.4 60.25 L309.6 58.15" fill="#7f474f" fill-rule="evenodd" stroke="none"/>
      <path d="M282.05 53.5 Q282.2 51.6 282.65 51.6 282.45 51.6 282.45 53.0 282.5 54.55 283.4 55.1 285.15 56.0 285.8 52.15 L285.95 54.1 Q285.75 56.0 283.55 55.7 281.85 55.4 282.05 53.5" fill="#7f474f" fill-rule="evenodd" stroke="none"/>
      <path d="M163.15 64.65 L164.65 59.1 164.95 60.85 Q165.35 63.15 165.15 64.9 164.4 70.8 157.4 69.75 150.55 67.6 153.25 62.2 154.0 60.65 155.65 58.65 L156.75 57.2 155.0 61.2 Q153.7 65.65 157.0 67.9 160.8 69.95 163.15 64.65" fill="#7f474f" fill-rule="evenodd" stroke="none"/>
      <path d="M98.0 24.25 L99.2 22.15 98.7 23.7 Q98.4 25.65 99.85 26.45 101.4 27.15 102.3 24.9 L102.95 22.45 103.15 25.0 Q102.85 27.45 100.1 27.2 97.15 26.7 98.0 24.25" fill="#7f474f" fill-rule="evenodd" stroke="none"/>
      <path d="M110.95 37.7 L110.0 39.3 Q109.2 41.35 110.65 42.55 112.15 43.65 113.7 41.35 L114.9 38.85 114.6 41.65 Q113.7 44.3 110.75 43.45 107.6 42.2 109.1 39.7 L110.95 37.7" fill="#7f474f" fill-rule="evenodd" stroke="none"/>
      <path d="M67.35 51.5 L66.45 53.05 Q65.7 54.95 67.0 56.15 68.4 57.2 69.85 55.1 L71.0 52.75 70.7 55.4 Q69.9 57.85 67.1 57.0 64.25 55.75 65.65 53.45 L67.35 51.5" fill="#7f474f" fill-rule="evenodd" stroke="none"/>
      <path d="M67.3 17.5 L66.55 18.5 Q65.95 19.65 66.7 20.5 68.3 21.8 69.05 18.6 L69.15 20.1 Q68.9 21.75 66.65 21.05 64.95 20.0 66.0 18.7 L67.3 17.5" fill="#7f474f" fill-rule="evenodd" stroke="none"/>
      <path d="M59.85 38.85 Q57.8 40.25 59.25 42.4 61.8 44.2 62.9 41.4 L63.35 38.9 64.05 41.5 Q64.1 44.55 59.25 43.45 56.8 41.65 57.25 40.1 57.6 38.85 58.9 38.7 L60.95 38.1 61.3 38.0 Q60.6 38.35 59.85 38.85" fill="#7f474f" fill-rule="evenodd" stroke="none"/>
      <path d="M130.9 63.4 L129.9 65.3 Q129.0 68.0 131.25 69.35 134.2 70.35 134.8 66.85 L134.8 63.7 136.1 66.7 Q136.75 70.25 131.65 70.45 126.9 69.05 128.8 65.85 L130.9 63.4" fill="#7f474f" fill-rule="evenodd" stroke="none"/>
      <path d="M87.15 14.55 L86.75 16.5 Q85.95 18.35 84.05 17.85 81.55 16.8 82.8 15.1 L84.1 13.95 83.45 14.85 Q82.8 16.3 83.95 17.2 85.0 17.9 86.1 16.3 L87.15 14.55" fill="#7f474f" fill-rule="evenodd" stroke="none"/>
      <path d="M126.55 22.2 L126.35 24.6 Q126.5 27.15 128.4 27.9 130.45 28.55 131.3 25.45 L131.6 22.35 132.4 25.45 Q132.55 28.7 128.8 28.85 125.3 28.75 125.6 25.45 L126.55 22.2" fill="#7f474f" fill-rule="evenodd" stroke="none"/>
      <path d="M184.45 51.7 L185.2 54.65 Q185.3 57.7 181.6 57.8 177.95 57.3 178.8 54.25 L180.15 51.5 179.6 53.55 Q179.35 55.95 181.25 56.85 183.35 57.55 184.15 54.6 L184.45 51.7" fill="#7f474f" fill-rule="evenodd" stroke="none"/>
      <path d="M221.45 23.6 L221.7 25.8 Q222.25 28.05 224.0 28.4 225.75 28.75 226.25 25.9 L226.4 23.0 227.2 25.8 Q227.4 28.7 224.45 29.15 221.5 29.6 221.2 26.65 L221.45 23.6" fill="#7f474f" fill-rule="evenodd" stroke="none"/>
      <path d="M232.55 37.3 L232.2 38.55 Q232.05 40.45 233.75 40.95 235.7 41.15 235.7 38.8 L235.3 36.65 236.5 38.55 Q237.3 40.85 234.2 41.65 230.85 41.45 231.6 39.1 L232.55 37.3" fill="#7f474f" fill-rule="evenodd" stroke="none"/>
      <path d="M116.65 52.15 L116.5 53.75 Q116.55 55.4 117.75 55.9 118.95 56.4 119.7 54.5 L120.2 52.45 120.35 54.55 Q120.1 56.65 117.95 56.5 115.8 56.4 116.0 54.25 L116.65 52.15" fill="#7f474f" fill-rule="evenodd" stroke="none"/>
      <path d="M280.1 63.6 L279.65 65.8 Q279.55 68.6 281.85 69.4 284.5 69.95 284.85 66.5 L284.75 63.2 286.05 66.3 Q286.75 69.75 282.4 70.4 277.9 70.15 278.75 66.65 L280.1 63.6" fill="#7f474f" fill-rule="evenodd" stroke="none"/>
      <path d="M268.75 48.35 L268.65 49.2 Q268.7 50.1 269.35 50.4 270.35 50.8 270.7 48.5 L270.8 49.65 Q270.65 50.75 269.45 50.7 268.3 50.65 268.4 49.5 L268.75 48.35" fill="#7f474f" fill-rule="evenodd" stroke="none"/>
      <path d="M297.9 33.75 L297.8 36.85 Q298.25 40.75 301.75 41.25 305.8 41.15 305.05 36.3 304.85 34.75 304.15 33.05 L303.75 32.05 304.5 32.85 Q305.95 34.3 306.65 35.6 308.95 40.0 302.8 42.5 296.4 43.3 296.75 38.2 L297.9 33.75" fill="#7f474f" fill-rule="evenodd" stroke="none"/>
      <path d="M327.05 71.25 Q325.55 71.75 325.2 70.3 L325.15 68.9 325.35 69.85 Q325.8 70.9 326.75 70.9 327.7 70.85 327.55 69.45 L327.25 68.0 328.05 69.25 Q328.5 70.65 327.05 71.25" fill="#7f474f" fill-rule="evenodd" stroke="none"/>
      <path d="M278.9 34.15 L278.9 35.6 Q279.2 37.55 280.9 37.7 282.7 37.65 282.5 35.25 L282.0 32.9 283.3 34.95 Q284.1 37.25 281.45 38.25 278.2 38.8 278.35 36.3 L278.9 34.15" fill="#7f474f" fill-rule="evenodd" stroke="none"/>
      <path d="M215.1 40.2 Q214.9 40.3 215.75 41.6 216.65 42.95 217.75 43.0 219.5 43.1 218.8 39.0 L219.6 40.9 Q220.0 42.95 218.1 43.5 216.55 44.1 215.6 42.25 214.65 40.45 215.1 40.2" fill="#7f474f" fill-rule="evenodd" stroke="none"/>
      <path d="M189.5 63.5 L189.75 64.35 Q190.1 65.15 190.7 65.3 191.55 65.6 191.85 63.3 192.4 65.6 190.85 65.6 190.0 65.8 189.6 64.7 189.2 63.7 189.5 63.5" fill="#7f474f" fill-rule="evenodd" stroke="none"/>
      <path d="M256.35 48.1 L256.3 49.15 Q256.35 50.2 257.2 50.5 258.9 50.75 258.2 48.1 L258.85 49.25 Q259.25 50.55 257.4 50.9 255.9 50.85 256.0 49.5 L256.35 48.1" fill="#7f474f" fill-rule="evenodd" stroke="none"/>
    </g>
    <linearGradient gradientTransform="matrix(-0.0293, -0.0011, -0.0011, 0.0293, 61.7, 121.35)" gradientUnits="userSpaceOnUse" id="gradient0" spreadMethod="pad" x1="-819.2" x2="819.2">
      <stop offset="0.0" stop-color="#cf703e"/>
      <stop offset="1.0" stop-color="#8f5837"/>
    </linearGradient>
    <linearGradient gradientTransform="matrix(-0.1406, 0.001, 0.001, 0.1406, 183.3, 130.9)" gradientUnits="userSpaceOnUse" id="gradient1" spreadMethod="pad" x1="-819.2" x2="819.2">
      <stop offset="0.0" stop-color="#e4b48b"/>
      <stop offset="1.0" stop-color="#d27948"/>
    </linearGradient>
  </defs>
</svg>
