<?xml version="1.0" encoding="UTF-8" standalone="no"?>
<svg xmlns:xlink="http://www.w3.org/1999/xlink" height="462.55px" width="357.6px" xmlns="http://www.w3.org/2000/svg">
  <g transform="matrix(1.0, 0.0, 0.0, 1.0, 0.0, 0.0)">
    <use height="462.55" transform="matrix(1.0, 0.0, 0.0, 1.0, 0.0, 0.0)" width="357.6" xlink:href="#shape0"/>
  </g>
  <defs>
    <g id="shape0" transform="matrix(1.0, 0.0, 0.0, 1.0, 0.0, 0.0)">
      <path d="M170.1 38.05 Q168.9 38.95 165.6 42.5 L162.55 45.9 149.65 46.55 139.45 54.85 130.3 53.5 103.75 56.8 89.5 43.6 106.1 46.95 119.9 31.45 138.3 22.25 151.05 31.4 161.3 28.2 170.1 38.05" fill="#93907a" fill-rule="evenodd" stroke="none"/>
      <path d="M163.05 46.85 L150.8 46.85 139.8 56.1 131.3 53.85 103.3 58.35 89.5 43.6 107.05 52.6 123.8 46.85 123.05 50.1 131.55 48.85 136.05 43.35 138.3 50.35 149.05 41.35 160.3 41.6 168.55 35.6 169.55 39.35 163.05 46.85" fill="#817f6c" fill-rule="evenodd" stroke="none"/>
      <path d="M163.15 47.35 L151.4 47.0 139.8 56.75 130.55 54.5 103.15 59.0 89.5 43.6 104.3 55.85 131.3 51.5 139.55 53.75 150.4 44.1 161.3 45.1 168.55 38.25 168.9 39.75 163.15 47.35" fill="#656458" fill-rule="evenodd" stroke="none"/>
      <path d="M155.4 34.05 L152.8 32.6 155.65 33.6 Q156.1 33.75 158.6 35.25 L155.4 34.05" fill="#817f6c" fill-rule="evenodd" stroke="none"/>
      <path d="M148.0 38.75 L144.8 39.35 142.3 39.85 144.7 38.8 Q147.25 37.8 147.9 37.75 L154.55 37.35 148.0 38.75" fill="#817f6c" fill-rule="evenodd" stroke="none"/>
      <path d="M138.25 31.3 L135.05 29.3 132.8 27.6 Q132.75 27.7 135.45 28.85 L138.8 30.25 Q139.65 30.8 145.6 32.8 141.55 32.65 138.25 31.3" fill="#817f6c" fill-rule="evenodd" stroke="none"/>
      <path d="M132.9 34.5 L130.1 33.35 Q128.0 32.45 128.05 32.35 L133.2 33.6 136.35 34.6 138.8 35.35 132.9 34.5" fill="#817f6c" fill-rule="evenodd" stroke="none"/>
      <path d="M131.55 44.25 L126.05 47.85 130.95 43.3 137.1 39.1 Q134.3 42.1 131.55 44.25" fill="#817f6c" fill-rule="evenodd" stroke="none"/>
      <path d="M124.4 35.55 L131.6 37.05 124.2 36.65 117.8 35.6 120.7 35.5 Q123.75 35.4 124.4 35.55" fill="#817f6c" fill-rule="evenodd" stroke="none"/>
      <path d="M123.0 42.1 Q126.35 40.75 126.4 40.8 L119.3 45.05 112.55 47.6 118.85 43.85 123.0 42.1" fill="#817f6c" fill-rule="evenodd" stroke="none"/>
      <path d="M116.15 41.4 L113.7 42.1 111.8 42.35 113.65 41.7 115.9 40.7 118.4 39.65 120.35 38.75 Q118.3 40.5 116.15 41.4" fill="#817f6c" fill-rule="evenodd" stroke="none"/>
      <path d="M103.0 49.25 L101.55 48.6 103.15 48.9 105.2 49.15 109.25 49.45 105.05 49.8 103.0 49.25" fill="#817f6c" fill-rule="evenodd" stroke="none"/>
      <path d="M130.9 96.1 Q144.25 95.35 150.85 96.65 155.9 97.6 161.45 109.25 167.3 121.5 165.65 130.95 164.2 139.3 157.15 154.35 153.65 161.9 150.45 167.75 L156.45 203.3 Q163.35 242.9 168.1 263.0 169.6 269.35 174.05 275.15 177.95 280.15 184.55 285.3 176.5 289.0 173.85 290.45 165.2 295.05 164.65 297.95 164.05 301.1 166.0 305.8 166.95 308.15 168.05 309.9 L163.95 315.95 Q160.35 322.65 163.15 325.85 165.95 329.05 173.2 332.75 L179.9 335.8 179.55 343.75 Q179.85 352.15 183.2 354.2 186.6 356.3 194.35 357.5 L201.45 358.25 201.95 360.85 Q202.7 363.95 203.8 366.6 207.3 375.05 213.05 375.45 218.75 375.85 226.35 373.6 230.15 372.45 232.8 371.25 L235.05 373.35 Q238.0 375.75 241.4 376.95 244.55 378.05 250.15 377.9 L256.3 377.3 Q256.75 404.85 245.4 427.8 234.0 450.9 217.8 454.75 200.0 459.0 174.9 460.3 161.0 461.05 147.6 460.75 143.95 460.7 135.25 457.85 126.55 455.0 122.95 454.9 108.85 454.6 87.45 451.2 53.3 445.8 30.55 435.5 7.85 425.2 2.8 399.35 1.1 390.8 1.35 380.1 L2.0 366.85 Q2.15 359.05 16.55 337.75 29.8 318.1 37.15 311.9 42.7 307.25 60.75 286.85 75.9 269.7 83.6 260.25 88.15 254.65 90.25 225.95 91.6 196.5 92.2 192.35 92.7 189.1 88.15 170.4 83.65 151.75 84.95 143.75 86.4 134.75 97.6 116.95 103.2 108.0 108.5 100.9 114.7 96.95 130.9 96.1" fill="#d37e42" fill-rule="evenodd" stroke="none"/>
      <path d="M147.1 215.5 Q147.8 235.5 149.6 253.35 155.5 310.6 170.8 325.6 179.85 334.45 187.5 349.5 194.95 364.15 199.0 380.4 203.2 397.25 202.5 411.05 201.8 426.0 195.3 434.1 L184.05 448.15 Q178.95 454.2 175.0 456.9 166.65 462.65 149.8 460.6 134.5 458.75 103.25 453.75 L75.05 449.1 Q85.85 437.6 96.95 418.3 119.05 379.65 120.3 340.6 L121.8 290.55 120.3 265.6 Q119.05 247.35 122.1 220.1 123.45 208.15 125.8 194.1 L125.3 199.75 Q124.6 208.25 124.6 215.4 124.75 239.45 132.8 241.6 140.95 243.8 144.7 221.65 145.85 214.75 146.45 206.25 L146.8 199.1 147.1 215.5" fill="#c3753e" fill-rule="evenodd" stroke="none"/>
      <path d="M220.8 376.1 L231.8 368.6 256.3 377.3 257.55 381.5 Q258.55 387.8 257.3 398.1 255.65 411.75 246.0 429.15 235.4 448.3 223.8 454.6 213.5 460.25 188.25 461.6 180.3 462.05 171.9 462.0 L165.05 461.85 141.8 459.85 159.8 456.45 Q180.75 451.85 195.8 446.1 215.5 438.6 220.1 406.6 221.55 396.6 221.3 385.35 L220.8 376.1" fill="#b16b3a" fill-rule="evenodd" stroke="none"/>
      <path d="M251.75 398.4 Q250.35 408.3 248.8 416.1 246.65 426.85 242.2 434.85 236.5 444.95 225.8 453.6 216.1 461.4 189.0 462.4 180.5 462.75 171.3 462.3 L155.55 461.1 178.7 456.9 Q204.3 451.55 216.8 445.6 229.3 439.65 232.8 417.05 233.9 409.95 233.95 402.1 L233.8 395.6 235.5 406.15 Q237.85 416.55 241.3 415.6 245.0 414.6 249.3 402.25 L252.8 390.1 251.75 398.4" fill="#996035" fill-rule="evenodd" stroke="none"/>
      <path d="M132.1 99.8 Q140.45 97.6 147.05 101.65 150.35 103.7 151.95 106.15 150.9 106.95 149.0 107.55 145.1 108.7 140.6 107.65 133.45 105.9 131.6 102.9 130.95 101.8 131.2 100.85 131.4 100.0 132.1 99.8" fill="#614128" fill-rule="evenodd" stroke="none"/>
      <path d="M230.3 42.45 Q234.1 45.1 239.25 47.25 L243.6 48.9 238.3 56.0 Q233.95 55.15 228.85 52.75 218.6 47.95 214.9 40.15 211.25 32.45 210.4 23.85 174.35 40.15 176.8 39.4 178.75 38.8 184.9 51.55 188.0 57.95 190.7 64.45 L150.7 105.9 Q148.35 107.15 144.85 107.2 137.9 107.3 132.2 101.4 L172.2 62.0 162.5 32.95 215.75 0.0 215.4 16.6 Q217.85 22.65 221.05 28.85 226.65 39.9 230.3 42.45" fill="#9f6237" fill-rule="evenodd" stroke="none"/>
      <path d="M162.5 32.95 L182.45 62.45 140.75 106.7 Q136.15 105.5 132.2 101.4 L172.2 62.0 162.5 32.95" fill="#7b502f" fill-rule="evenodd" stroke="none"/>
      <path d="M214.9 40.15 Q211.25 32.45 210.4 23.85 178.8 38.1 176.65 39.45 L171.1 35.8 211.8 18.45 214.7 28.15 Q218.85 38.8 225.1 43.8 231.35 48.8 236.55 50.45 239.1 51.3 240.45 51.1 L237.75 55.9 Q232.3 54.65 227.15 51.95 218.3 47.25 214.9 40.15" fill="#7b502f" fill-rule="evenodd" stroke="none"/>
      <path d="M130.25 96.15 L130.5 96.5 Q127.55 99.2 123.85 103.15 116.45 111.1 112.9 117.45 109.3 123.85 108.95 140.5 108.8 148.8 109.35 155.85 L116.8 162.2 112.25 181.8 105.5 210.1 Q103.65 217.4 106.4 233.05 107.8 240.9 109.55 247.3 102.9 270.55 101.45 272.6 99.75 275.0 90.75 297.3 81.0 321.35 80.4 327.15 79.55 336.05 79.55 368.4 L95.4 390.95 96.2 428.55 112.8 455.1 Q97.8 453.9 70.35 448.05 62.5 438.65 58.5 422.25 57.25 417.15 56.55 411.95 L56.1 407.75 46.2 386.95 47.2 337.45 69.4 293.9 94.25 254.55 98.8 200.35 96.4 184.5 100.25 164.6 Q97.95 160.25 95.9 154.65 91.8 143.4 93.25 137.0 94.6 130.85 103.1 115.35 107.55 107.15 112.45 99.1 119.05 96.75 130.25 96.15" fill="#b16b3a" fill-rule="evenodd" stroke="none"/>
      <path d="M84.95 143.75 Q86.4 134.75 97.6 116.95 103.2 108.0 108.5 100.9 110.1 99.9 112.45 99.1 107.55 107.15 103.1 115.35 94.6 130.85 93.25 137.0 91.8 143.4 95.9 154.65 97.95 160.25 100.25 164.6 L96.4 184.5 98.8 200.35 94.25 254.55 69.4 293.9 47.2 337.45 46.2 386.95 56.1 407.75 56.55 411.95 Q57.25 417.15 58.5 422.25 62.5 438.65 70.35 448.05 47.2 443.0 30.55 435.5 7.85 425.2 2.8 399.35 1.1 390.8 1.35 380.1 L2.0 366.85 Q2.15 359.05 16.55 337.75 29.8 318.1 37.15 311.9 42.7 307.25 60.75 286.85 75.9 269.7 83.6 260.25 88.15 254.65 90.25 225.95 91.6 196.5 92.2 192.35 92.7 189.1 88.15 170.4 83.65 151.75 84.95 143.75" fill="#996035" fill-rule="evenodd" stroke="none"/>
      <path d="M186.0 307.05 L186.45 310.1 Q187.5 313.7 190.8 316.35 194.1 319.0 198.7 320.35 L202.7 321.15 179.9 335.8 Q176.0 334.25 171.8 331.95 163.35 327.35 161.8 323.6 160.25 319.85 164.0 314.5 L168.05 309.9 186.0 307.05" fill="url(#gradient0)" fill-rule="evenodd" stroke="none"/>
      <path d="M184.55 285.3 L183.0 288.75 Q181.35 293.25 180.9 298.6 180.6 302.3 183.25 305.05 184.6 306.45 186.0 307.05 L168.05 309.9 Q166.85 308.25 165.8 305.8 163.8 300.95 164.9 297.1 166.0 293.3 175.4 288.9 180.1 286.75 184.55 285.3" fill="url(#gradient1)" fill-rule="evenodd" stroke="none"/>
      <path d="M202.7 321.15 L202.65 326.4 Q203.25 332.55 206.45 337.15 209.65 341.7 214.3 343.05 L218.25 343.5 201.45 358.25 193.35 358.0 Q184.65 357.0 181.6 353.45 178.55 349.9 178.95 342.5 L179.9 335.8 202.7 321.15" fill="url(#gradient2)" fill-rule="evenodd" stroke="none"/>
      <path d="M201.45 358.25 L218.25 343.5 219.4 349.8 Q221.4 356.45 225.45 358.3 229.5 360.2 233.75 359.8 235.9 359.6 237.2 359.0 L232.8 371.25 Q228.95 373.85 224.05 375.6 214.3 379.1 209.3 374.8 204.3 370.5 202.4 363.95 L201.45 358.25" fill="url(#gradient3)" fill-rule="evenodd" stroke="none"/>
      <path d="M237.2 359.0 L238.9 363.0 Q241.2 367.45 244.3 369.65 L256.3 377.3 251.0 378.3 Q244.95 379.0 241.1 377.45 237.25 375.9 234.65 373.4 L232.8 371.25 237.2 359.0" fill="url(#gradient4)" fill-rule="evenodd" stroke="none"/>
      <path d="M124.05 231.1 Q129.9 234.75 131.3 238.55 132.2 241.0 132.3 248.45 L132.25 255.45 131.35 254.65 Q131.1 250.8 130.0 246.45 127.75 237.75 123.45 235.15 120.15 233.15 115.7 231.0 L111.95 229.2 Q117.25 226.85 124.05 231.1" fill="#826e3c" fill-rule="evenodd" stroke="none"/>
      <path d="M132.7 203.45 L130.55 211.1 Q128.1 219.3 126.55 221.95 125.0 224.6 119.75 227.15 L114.8 229.15 111.95 229.2 Q119.95 223.55 124.55 219.4 127.4 216.8 129.65 210.0 L131.3 203.7 132.7 203.45" fill="#a48746" fill-rule="evenodd" stroke="none"/>
      <path d="M124.7 221.85 Q127.6 218.95 130.45 210.75 L132.75 203.1 134.25 209.3 Q136.0 216.2 137.2 219.8 138.35 223.2 142.15 226.25 L145.75 228.65 144.4 229.95 140.3 234.35 Q138.0 237.0 134.9 246.5 133.35 251.25 132.25 255.45 131.2 245.8 129.35 240.35 128.25 236.95 121.4 232.7 L114.8 229.15 Q116.1 228.5 118.0 227.25 121.75 224.8 124.7 221.85" fill="#b9a36a" fill-rule="evenodd" stroke="none"/>
      <path d="M132.45 218.2 Q135.1 218.25 137.0 221.3 138.7 224.0 138.8 227.2 138.85 230.9 137.7 233.7 136.2 237.25 133.05 237.6 129.7 237.95 127.8 234.9 126.05 232.15 125.95 227.7 125.9 223.7 127.95 220.85 129.9 218.15 132.45 218.2" fill="#2a211c" fill-rule="evenodd" stroke="none"/>
      <path d="M132.5 219.0 Q134.9 219.2 136.45 222.0 137.85 224.55 137.95 228.05 138.0 231.55 136.65 233.9 135.1 236.55 132.25 236.45 129.4 236.35 128.0 233.55 126.75 231.1 127.0 227.45 127.25 223.95 128.7 221.5 130.25 218.85 132.5 219.0" fill="#644329" fill-rule="evenodd" stroke="none"/>
      <path d="M334.55 89.05 L315.1 82.45 296.4 89.3 278.0 81.7 257.35 83.35 239.05 71.6 232.35 45.7 255.4 27.6 273.8 35.2 285.9 48.85 302.3 53.3 318.85 50.55 330.85 68.35 357.6 73.0 334.55 89.05" fill="#93907a" fill-rule="evenodd" stroke="none"/>
      <path d="M334.55 89.05 L315.1 82.45 296.8 90.35 278.3 82.6 257.3 85.1 237.3 72.1 230.8 45.1 255.4 27.6 238.55 46.35 249.05 69.1 261.8 67.1 255.8 74.35 268.8 77.35 281.55 72.35 279.55 78.1 296.55 84.85 315.8 75.6 321.05 81.6 357.6 73.0 334.55 89.05" fill="#817f6c" fill-rule="evenodd" stroke="none"/>
      <path d="M357.6 73.0 L334.55 89.05 316.6 83.95 296.8 90.35 278.3 82.6 257.3 85.95 236.45 72.45 230.8 45.1 239.45 68.95 258.1 83.3 277.6 80.3 296.45 88.1 314.8 80.95 334.3 86.3 357.6 73.0" fill="#656458" fill-rule="evenodd" stroke="none"/>
      <path d="M254.45 44.45 Q258.95 42.35 262.75 41.85 264.1 41.4 269.2 42.0 L274.05 42.9 Q274.0 42.65 269.05 43.0 L262.85 43.8 Q261.65 43.7 256.1 44.95 L251.15 46.2 254.45 44.45" fill="#817f6c" fill-rule="evenodd" stroke="none"/>
      <path d="M258.55 59.6 Q258.95 60.65 261.65 63.75 264.3 66.8 264.55 66.65 264.4 66.95 260.95 64.3 257.45 61.55 257.1 60.4 256.35 59.65 254.45 55.05 252.65 50.55 252.85 50.55 L254.65 53.6 258.55 59.6" fill="#817f6c" fill-rule="evenodd" stroke="none"/>
      <path d="M282.5 50.25 L277.4 50.35 271.85 50.2 267.35 50.3 Q267.1 50.15 270.6 49.5 L277.55 48.8 282.65 49.5 286.55 50.4 282.5 50.25" fill="#817f6c" fill-rule="evenodd" stroke="none"/>
      <path d="M275.55 61.65 Q276.4 62.7 280.55 65.2 284.6 67.6 284.8 67.4 284.75 67.75 279.95 66.0 275.05 64.2 274.25 63.15 273.1 62.6 269.2 58.3 265.4 54.1 265.6 53.95 L268.8 56.6 275.55 61.65" fill="#817f6c" fill-rule="evenodd" stroke="none"/>
      <path d="M291.75 54.35 Q293.3 54.2 300.4 55.4 L291.65 55.9 281.95 56.05 285.0 55.3 291.75 54.35" fill="#817f6c" fill-rule="evenodd" stroke="none"/>
      <path d="M291.6 69.65 Q292.15 70.65 295.55 72.95 298.8 75.15 299.05 74.9 299.0 75.25 295.0 73.6 290.95 71.85 290.4 70.75 289.4 70.2 286.85 66.05 284.35 61.95 284.6 61.85 L286.8 64.55 Q289.4 67.75 291.6 69.65" fill="#817f6c" fill-rule="evenodd" stroke="none"/>
      <path d="M311.3 55.0 Q307.1 56.2 306.1 56.65 305.0 56.7 300.55 58.75 L296.8 60.6 299.05 58.65 Q302.45 56.0 305.7 55.0 307.4 54.25 315.4 53.9 L311.3 55.0" fill="#817f6c" fill-rule="evenodd" stroke="none"/>
      <path d="M306.1 71.25 Q306.7 71.65 308.95 72.45 L311.05 73.15 Q306.4 72.75 305.6 72.1 304.95 71.95 302.7 70.05 300.45 68.2 300.55 68.05 L302.35 69.2 Q304.5 70.5 306.1 71.25" fill="#817f6c" fill-rule="evenodd" stroke="none"/>
      <path d="M316.8 59.0 Q317.85 58.65 323.05 57.65 L317.05 60.05 310.1 61.95 Q310.1 61.85 312.25 60.85 314.75 59.65 316.8 59.0" fill="#817f6c" fill-rule="evenodd" stroke="none"/>
      <path d="M319.15 69.8 L322.4 70.7 324.85 71.15 318.8 70.8 Q318.1 70.75 315.25 69.25 312.5 67.8 312.6 67.6 L314.75 68.4 319.15 69.8" fill="#817f6c" fill-rule="evenodd" stroke="none"/>
      <path d="M144.8 115.1 Q153.25 115.75 156.6 112.5 158.3 110.85 158.3 109.1 L161.1 117.35 Q163.75 126.85 162.8 133.1 161.85 139.35 151.75 152.6 146.7 159.25 141.8 164.6 147.3 146.1 149.8 134.6 151.35 127.4 148.25 120.55 L144.8 115.1" fill="#dd9f69" fill-rule="evenodd" stroke="none"/>
      <path d="M153.3 213.1 L156.6 230.15 Q160.25 249.3 161.8 259.6 163.35 269.9 169.75 277.3 172.95 281.0 175.8 282.6 172.8 283.1 168.3 285.1 165.5 286.35 161.35 289.35 159.3 290.85 157.8 292.1 153.8 259.1 153.3 243.1 153.0 233.1 153.1 222.1 L153.3 213.1" fill="#dd9f69" fill-rule="evenodd" stroke="none"/>
      <path d="M30.45 338.45 L28.15 344.35 Q25.55 351.8 23.95 359.35 18.75 383.55 25.3 400.1 31.85 416.65 44.0 427.55 50.05 433.0 54.8 435.1 L53.3 443.6 Q42.95 441.5 31.75 436.25 9.35 425.75 4.95 410.1 0.25 393.35 0.0 381.5 -0.15 374.35 1.8 362.6 3.1 354.7 15.2 337.85 24.15 325.35 33.8 314.6 39.45 308.35 51.95 297.6 L71.3 281.6 57.0 299.65 Q42.1 318.55 39.3 322.6 L30.45 338.45" fill="#724c2d" fill-rule="evenodd" stroke="none"/>
      <path d="M128.05 150.6 Q127.6 152.6 125.35 152.5 123.1 152.35 124.0 149.75 125.3 147.55 126.95 148.4 128.5 149.2 128.05 150.6" fill="#b16b3a" fill-rule="evenodd" stroke="none"/>
      <path d="M140.15 171.75 Q140.4 173.7 138.6 174.1 136.8 174.5 136.85 172.4 137.1 170.35 138.6 170.45 140.05 170.55 140.15 171.75" fill="#b16b3a" fill-rule="evenodd" stroke="none"/>
      <path d="M135.95 122.45 Q136.1 125.05 134.6 123.1 134.45 122.6 135.05 122.2 135.65 121.75 135.95 122.45" fill="#b16b3a" fill-rule="evenodd" stroke="none"/>
      <path d="M139.85 135.65 Q140.1 137.55 138.6 137.8 137.1 138.0 137.2 136.35 137.25 135.3 138.3 134.8 139.45 134.35 139.85 135.65" fill="#b16b3a" fill-rule="evenodd" stroke="none"/>
      <path d="M119.6 131.5 Q117.95 131.25 118.9 129.3 120.4 127.7 121.35 128.7 122.25 129.6 121.75 130.5 121.3 131.75 119.6 131.5" fill="#b16b3a" fill-rule="evenodd" stroke="none"/>
      <path d="M126.9 112.75 L126.15 113.15 Q125.55 113.2 125.9 112.3 126.35 111.8 126.75 112.1 127.1 112.4 126.9 112.75" fill="#b16b3a" fill-rule="evenodd" stroke="none"/>
      <path d="M120.35 185.4 Q118.2 185.85 118.25 183.4 118.45 181.2 120.25 181.15 122.0 181.1 122.15 182.6 122.5 184.95 120.35 185.4" fill="#b16b3a" fill-rule="evenodd" stroke="none"/>
      <path d="M150.0 187.2 Q150.5 189.1 148.3 190.05 146.15 190.95 145.8 188.05 146.25 184.9 148.2 185.4 150.1 185.9 150.0 187.2" fill="#b16b3a" fill-rule="evenodd" stroke="none"/>
      <path d="M148.85 165.1 Q148.65 167.1 147.25 166.8 145.85 166.5 146.35 165.3 146.5 164.3 147.65 164.15 148.8 163.95 148.85 165.1" fill="#b16b3a" fill-rule="evenodd" stroke="none"/>
      <path d="M116.05 139.45 Q116.1 140.35 115.2 140.45 114.35 140.6 114.55 139.5 114.65 138.85 115.4 138.8 116.1 138.75 116.05 139.45" fill="#b16b3a" fill-rule="evenodd" stroke="none"/>
      <path d="M116.1 199.2 Q116.25 201.6 113.7 202.1 111.15 202.55 111.4 199.5 112.2 196.65 114.2 197.1 116.2 197.5 116.1 199.2" fill="#b16b3a" fill-rule="evenodd" stroke="none"/>
      <path d="M136.45 197.25 Q136.8 195.3 138.3 195.45 139.75 195.55 139.8 196.85 139.85 199.1 138.0 199.1 136.1 199.1 136.45 197.25" fill="#b16b3a" fill-rule="evenodd" stroke="none"/>
      <path d="M115.6 277.55 Q115.4 279.65 113.65 279.5 111.85 279.3 112.45 277.55 112.9 275.95 114.3 276.1 115.7 276.25 115.6 277.55" fill="#b16b3a" fill-rule="evenodd" stroke="none"/>
      <path d="M114.05 256.75 Q114.1 257.7 113.2 257.8 112.35 257.95 112.55 256.85 112.65 256.2 113.4 256.15 114.1 256.05 114.05 256.75" fill="#b16b3a" fill-rule="evenodd" stroke="none"/>
      <path d="M112.65 216.7 Q112.95 217.6 111.55 218.4 110.2 219.15 109.85 217.05 110.35 214.9 111.65 215.4 112.9 215.9 112.65 216.7" fill="#b16b3a" fill-rule="evenodd" stroke="none"/>
      <path d="M108.85 289.9 Q108.3 294.6 104.2 294.15 102.6 293.95 101.75 292.8 100.85 291.5 101.45 289.65 102.85 285.65 106.1 286.4 109.3 287.15 108.85 289.9" fill="#b16b3a" fill-rule="evenodd" stroke="none"/>
      <path d="M113.55 357.9 Q112.95 362.6 108.9 362.15 107.3 361.95 106.45 360.8 105.55 359.45 106.15 357.65 107.55 353.65 110.75 354.4 113.95 355.15 113.55 357.9" fill="#b16b3a" fill-rule="evenodd" stroke="none"/>
      <path d="M214.7 391.25 Q215.1 393.35 213.3 393.75 211.45 394.15 211.45 392.2 211.45 390.4 212.95 390.15 214.4 389.95 214.7 391.25" fill="#b16b3a" fill-rule="evenodd" stroke="none"/>
      <path d="M212.95 412.15 Q213.15 413.85 211.6 414.1 210.05 414.4 210.25 412.6 210.4 411.3 211.65 411.15 212.9 410.95 212.95 412.15" fill="#b16b3a" fill-rule="evenodd" stroke="none"/>
      <path d="M203.4 379.15 Q203.85 379.6 203.5 380.1 203.15 380.6 202.7 379.95 202.45 379.55 202.75 379.2 L203.4 379.15" fill="#b16b3a" fill-rule="evenodd" stroke="none"/>
      <path d="M204.6 429.75 Q204.55 432.3 202.65 432.15 200.7 432.0 201.25 430.2 201.45 428.7 202.95 428.5 204.5 428.25 204.6 429.75" fill="#b16b3a" fill-rule="evenodd" stroke="none"/>
      <path d="M211.6 424.05 Q211.85 424.3 211.5 424.75 211.15 425.2 210.75 424.55 210.6 423.9 211.05 423.8 211.5 423.7 211.6 424.05" fill="#b16b3a" fill-rule="evenodd" stroke="none"/>
      <path d="M197.65 441.05 Q197.85 442.2 196.9 442.45 195.9 442.7 195.9 441.6 195.9 440.6 196.7 440.5 197.5 440.35 197.65 441.05" fill="#b16b3a" fill-rule="evenodd" stroke="none"/>
      <path d="M154.05 205.65 Q154.7 206.9 152.9 208.3 151.15 209.7 150.15 206.9 150.3 203.7 152.2 204.1 154.1 204.45 154.05 205.65" fill="#b16b3a" fill-rule="evenodd" stroke="none"/>
      <path d="M143.45 212.55 Q144.15 215.2 142.0 215.75 139.8 216.25 139.8 214.0 139.6 212.15 141.25 211.55 142.95 210.95 143.45 212.55" fill="#b16b3a" fill-rule="evenodd" stroke="none"/>
      <path d="M130.6 208.15 Q130.35 210.25 128.3 210.15 126.3 210.05 127.05 207.9 127.7 206.15 129.3 206.45 130.85 206.7 130.6 208.15" fill="#b16b3a" fill-rule="evenodd" stroke="none"/>
      <path d="M116.65 236.5 Q116.8 238.15 115.25 238.45 113.7 238.75 113.9 236.95 114.1 235.65 115.3 235.45 116.55 235.3 116.65 236.5" fill="#b16b3a" fill-rule="evenodd" stroke="none"/>
      <path d="M110.95 225.55 Q111.45 227.15 110.25 227.45 109.0 227.7 109.0 226.5 108.9 225.7 109.7 225.2 110.55 224.65 110.95 225.55" fill="#b16b3a" fill-rule="evenodd" stroke="none"/>
      <path d="M142.65 146.75 Q143.2 147.5 142.5 148.05 141.85 148.65 141.35 147.8 141.0 146.65 141.7 146.45 142.35 146.35 142.65 146.75" fill="#b16b3a" fill-rule="evenodd" stroke="none"/>
      <path d="M155.0 156.6 Q154.65 157.85 153.9 157.45 153.05 157.1 153.35 156.5 153.7 155.55 154.4 155.75 155.05 155.95 155.0 156.6" fill="#b16b3a" fill-rule="evenodd" stroke="none"/>
      <path d="M120.6 117.3 Q120.65 118.55 119.25 118.8 117.85 119.05 118.1 117.3 118.55 115.75 119.65 116.1 120.7 116.4 120.6 117.3" fill="#b16b3a" fill-rule="evenodd" stroke="none"/>
      <path d="M128.05 167.6 Q128.3 170.8 125.1 171.4 121.9 172.05 122.15 168.25 122.9 164.8 125.5 165.1 128.05 165.4 128.05 167.6" fill="#b16b3a" fill-rule="evenodd" stroke="none"/>
      <path d="M132.9 186.9 Q133.25 188.45 131.9 188.75 130.6 189.05 130.6 187.6 130.6 186.3 131.7 186.15 132.75 185.95 132.9 186.9" fill="#b16b3a" fill-rule="evenodd" stroke="none"/>
      <path d="M116.7 150.45 Q116.8 152.55 115.3 152.45 113.7 152.35 114.0 151.0 114.1 149.65 115.3 149.45 116.5 149.3 116.7 150.45" fill="#b16b3a" fill-rule="evenodd" stroke="none"/>
      <path d="M138.35 162.3 Q138.2 163.45 137.5 163.15 136.75 162.8 137.1 162.45 137.15 161.9 137.7 161.8 138.3 161.75 138.35 162.3" fill="#b16b3a" fill-rule="evenodd" stroke="none"/>
      <path d="M119.6 298.1 Q120.0 300.55 117.65 301.05 115.35 301.55 115.4 298.95 115.7 296.4 117.6 296.45 119.4 296.5 119.6 298.1" fill="#b16b3a" fill-rule="evenodd" stroke="none"/>
      <path d="M109.7 268.2 Q110.1 270.3 108.3 270.75 106.45 271.15 106.45 269.2 106.45 267.4 107.95 267.15 109.4 266.95 109.7 268.2" fill="#b16b3a" fill-rule="evenodd" stroke="none"/>
      <path d="M116.7 269.8 L116.2 270.75 Q115.55 271.45 115.1 270.05 115.35 268.9 116.05 269.1 116.65 269.3 116.7 269.8" fill="#b16b3a" fill-rule="evenodd" stroke="none"/>
      <path d="M98.1 298.05 Q98.15 299.5 96.6 299.75 95.05 300.05 95.3 298.15 95.75 296.55 97.0 296.75 98.2 296.95 98.1 298.05" fill="#b16b3a" fill-rule="evenodd" stroke="none"/>
      <path d="M93.1 278.05 Q93.05 281.35 90.1 281.45 87.1 281.55 87.8 278.35 88.5 275.65 90.85 275.75 93.2 275.9 93.1 278.05" fill="#996035" fill-rule="evenodd" stroke="none"/>
      <path d="M81.6 295.8 Q83.05 295.6 83.35 296.9 83.8 299.0 82.0 299.4 80.15 299.8 80.15 297.85 80.15 296.05 81.6 295.8" fill="#996035" fill-rule="evenodd" stroke="none"/>
      <path d="M72.25 310.95 Q72.85 313.85 70.4 314.4 67.9 314.95 67.9 312.25 67.9 309.8 69.9 309.5 71.9 309.2 72.25 310.95" fill="#996035" fill-rule="evenodd" stroke="none"/>
      <path d="M102.1 259.75 Q101.15 263.55 99.7 260.55 99.8 258.6 101.0 258.75 102.15 258.95 102.1 259.75" fill="#996035" fill-rule="evenodd" stroke="none"/>
      <path d="M64.5 331.85 Q65.5 334.35 64.6 336.5 63.8 338.4 61.9 339.25 60.05 340.05 58.45 339.3 56.65 338.45 56.15 335.9 55.35 330.65 59.35 329.55 L62.4 329.75 Q63.95 330.4 64.5 331.85" fill="#996035" fill-rule="evenodd" stroke="none"/>
      <path d="M62.3 352.2 Q63.25 354.75 61.0 355.7 58.8 356.65 58.4 354.0 58.1 351.9 59.9 351.2 61.7 350.45 62.3 352.2" fill="#996035" fill-rule="evenodd" stroke="none"/>
      <path d="M53.25 357.25 Q53.6 358.8 52.25 359.1 50.9 359.4 50.9 357.95 50.9 356.65 52.0 356.5 53.05 356.3 53.25 357.25" fill="#996035" fill-rule="evenodd" stroke="none"/>
      <path d="M54.25 374.95 Q55.05 376.0 54.2 376.7 53.35 377.45 52.8 376.35 52.3 375.35 53.05 374.85 53.75 374.35 54.25 374.95" fill="#996035" fill-rule="evenodd" stroke="none"/>
      <path d="M57.0 389.0 Q57.4 389.8 56.55 390.4 55.7 391.0 55.3 389.75 55.2 388.6 56.0 388.45 56.8 388.35 57.0 389.0" fill="#996035" fill-rule="evenodd" stroke="none"/>
      <path d="M59.4 367.0 Q59.5 367.35 59.15 367.45 58.8 367.55 58.8 367.15 58.8 366.85 59.1 366.8 59.35 366.75 59.4 367.0" fill="#996035" fill-rule="evenodd" stroke="none"/>
      <path d="M79.9 288.25 Q80.1 289.75 78.6 290.1 77.1 290.4 77.15 288.7 77.45 286.95 78.65 287.1 79.8 287.3 79.9 288.25" fill="#996035" fill-rule="evenodd" stroke="none"/>
      <path d="M90.2 288.1 Q90.3 288.7 89.85 288.8 89.35 288.9 89.35 288.35 89.35 287.85 89.75 287.8 90.1 287.75 90.2 288.1" fill="#996035" fill-rule="evenodd" stroke="none"/>
      <path d="M92.8 262.55 Q93.35 263.4 92.5 264.05 91.7 264.75 91.15 263.65 90.8 262.35 91.7 262.15 92.45 262.0 92.8 262.55" fill="#996035" fill-rule="evenodd" stroke="none"/>
      <path d="M103.4 240.85 Q103.95 242.5 102.3 243.4 100.65 244.3 100.2 242.0 100.15 240.05 101.65 239.8 103.1 239.55 103.4 240.85" fill="#996035" fill-rule="evenodd" stroke="none"/>
      <path d="M112.4 168.9 Q113.2 172.4 110.4 173.05 107.55 173.75 107.55 170.75 107.35 168.3 109.55 167.55 111.75 166.75 112.4 168.9" fill="#996035" fill-rule="evenodd" stroke="none"/>
      <path d="M105.9 182.9 Q106.25 184.45 104.9 184.75 103.6 185.05 103.6 183.6 103.6 182.3 104.7 182.15 105.75 181.95 105.9 182.9" fill="#996035" fill-rule="evenodd" stroke="none"/>
      <path d="M104.6 193.9 Q105.1 195.5 103.9 195.8 102.7 196.05 102.7 194.85 102.55 194.05 103.35 193.5 104.2 192.95 104.6 193.9" fill="#996035" fill-rule="evenodd" stroke="none"/>
      <path d="M104.45 220.8 Q105.2 223.05 103.0 224.05 100.85 225.05 100.4 222.25 100.35 219.8 102.25 219.5 104.1 219.2 104.45 220.8" fill="#996035" fill-rule="evenodd" stroke="none"/>
      <path d="M100.4 152.8 Q100.55 154.15 99.25 154.45 97.9 154.7 97.95 153.15 98.25 151.6 99.35 151.8 100.35 151.95 100.4 152.8" fill="#996035" fill-rule="evenodd" stroke="none"/>
      <path d="M106.5 159.95 Q106.7 160.9 105.85 161.1 105.05 161.3 105.05 160.4 105.05 159.6 105.7 159.5 106.4 159.4 106.5 159.95" fill="#996035" fill-rule="evenodd" stroke="none"/>
      <path d="M103.85 124.65 Q104.0 126.7 101.95 127.1 99.95 127.5 100.15 125.05 100.6 122.95 102.25 123.1 103.9 123.25 103.85 124.65" fill="#996035" fill-rule="evenodd" stroke="none"/>
      <path d="M106.4 139.1 Q106.65 141.15 105.25 141.1 103.8 141.05 104.1 139.9 104.0 138.95 105.0 138.5 106.0 138.0 106.4 139.1" fill="#996035" fill-rule="evenodd" stroke="none"/>
      <path d="M118.75 102.05 Q119.1 103.75 117.6 104.1 116.1 104.4 116.1 102.8 116.1 101.3 117.3 101.15 118.5 100.95 118.75 102.05" fill="#996035" fill-rule="evenodd" stroke="none"/>
      <path d="M175.55 385.65 Q175.25 387.35 173.6 387.15 171.95 386.95 172.55 385.2 173.45 383.55 174.65 384.1 175.85 384.6 175.55 385.65" fill="#996035" fill-rule="evenodd" stroke="none"/>
      <path d="M173.85 413.2 Q173.45 415.95 171.35 415.5 169.2 415.05 170.0 413.15 170.55 411.3 172.25 411.45 173.95 411.6 173.85 413.2" fill="#996035" fill-rule="evenodd" stroke="none"/>
      <path d="M185.0 433.6 Q184.8 438.1 180.55 438.1 178.85 438.15 177.95 437.0 176.9 435.75 177.4 433.6 178.8 429.25 182.1 430.05 185.3 430.8 185.0 433.6" fill="#996035" fill-rule="evenodd" stroke="none"/>
      <path d="M189.9 395.75 Q190.25 392.45 192.85 392.45 195.35 392.45 195.6 394.65 195.95 398.4 192.8 398.75 189.6 399.05 189.9 395.75" fill="#996035" fill-rule="evenodd" stroke="none"/>
      <path d="M195.9 415.0 Q195.95 416.85 194.6 416.8 193.2 416.7 193.5 415.45 193.6 414.3 194.65 414.15 195.75 413.95 195.9 415.0" fill="#996035" fill-rule="evenodd" stroke="none"/>
      <path d="M171.95 433.2 Q172.15 434.25 170.25 435.05 168.45 435.85 168.35 433.05 169.5 430.4 170.95 431.35 172.35 432.3 171.95 433.2" fill="#996035" fill-rule="evenodd" stroke="none"/>
      <path d="M143.5 293.3 Q143.7 296.8 141.45 296.45 140.6 296.35 140.0 295.7 139.4 295.0 139.65 294.4 139.65 292.85 141.3 292.2 142.95 291.5 143.5 293.3" fill="#996035" fill-rule="evenodd" stroke="none"/>
      <path d="M147.6 325.65 Q148.3 329.15 145.75 329.4 144.75 329.5 144.0 328.9 143.2 328.3 143.3 327.35 143.2 325.4 144.95 324.5 146.7 323.6 147.6 325.65" fill="#996035" fill-rule="evenodd" stroke="none"/>
      <path d="M161.15 367.2 Q161.6 371.8 157.85 372.1 156.4 372.2 155.4 371.3 154.35 370.25 154.6 368.55 154.8 365.25 157.8 364.8 160.75 364.4 161.15 367.2" fill="#996035" fill-rule="evenodd" stroke="none"/>
      <path d="M176.75 348.95 Q177.25 350.3 175.9 351.05 174.55 351.85 174.2 350.0 174.1 348.35 175.35 348.15 176.55 347.95 176.75 348.95" fill="#996035" fill-rule="evenodd" stroke="none"/>
      <path d="M189.25 369.4 Q189.95 371.0 188.6 371.75 187.2 372.5 186.8 370.75 186.5 369.4 187.65 368.85 188.8 368.3 189.25 369.4" fill="#996035" fill-rule="evenodd" stroke="none"/>
      <path d="M164.45 392.5 Q165.15 394.8 163.0 395.75 160.85 396.65 160.4 393.9 160.35 391.45 162.25 391.15 164.1 390.85 164.45 392.5" fill="#996035" fill-rule="evenodd" stroke="none"/>
      <path d="M161.5 341.75 Q160.05 341.9 159.1 341.0 158.0 339.95 158.25 338.25 158.45 334.95 161.45 334.5 164.45 334.05 164.8 336.85 165.25 341.45 161.5 341.75" fill="#996035" fill-rule="evenodd" stroke="none"/>
      <path d="M150.6 348.9 Q151.1 350.5 149.9 350.8 148.7 351.05 148.7 349.85 148.55 349.05 149.35 348.5 150.2 348.0 150.6 348.9" fill="#996035" fill-rule="evenodd" stroke="none"/>
      <path d="M148.9 276.4 Q149.4 279.8 146.4 280.4 143.4 281.05 143.6 277.65 143.75 274.85 146.2 274.5 148.6 274.15 148.9 276.4" fill="#996035" fill-rule="evenodd" stroke="none"/>
      <path d="M154.55 309.1 Q155.1 311.05 153.6 311.45 152.05 311.8 152.05 310.25 151.85 309.05 153.0 308.5 154.1 307.95 154.55 309.1" fill="#996035" fill-rule="evenodd" stroke="none"/>
      <path d="M136.75 308.05 Q137.3 309.8 135.95 310.1 134.55 310.4 134.55 309.05 134.3 308.0 135.35 307.5 136.35 307.0 136.75 308.05" fill="#996035" fill-rule="evenodd" stroke="none"/>
      <path d="M133.85 267.4 Q133.75 269.85 131.65 269.8 129.55 269.75 130.1 267.6 130.6 265.65 132.3 265.8 133.95 265.9 133.85 267.4" fill="#996035" fill-rule="evenodd" stroke="none"/>
      <path d="M142.8 256.95 Q142.9 259.55 141.0 259.45 139.05 259.4 139.5 257.6 139.7 256.35 141.0 255.85 142.35 255.25 142.8 256.95" fill="#996035" fill-rule="evenodd" stroke="none"/>
      <path d="M131.05 288.75 Q131.3 290.95 129.95 290.75 128.45 290.55 128.8 289.6 128.65 288.65 129.65 288.15 130.7 287.65 131.05 288.75" fill="#996035" fill-rule="evenodd" stroke="none"/>
      <path d="M137.25 278.55 Q137.8 280.15 136.6 280.45 135.35 280.7 135.35 279.5 135.2 278.75 136.0 278.2 136.85 277.65 137.25 278.55" fill="#996035" fill-rule="evenodd" stroke="none"/>
      <path d="M127.7 247.9 Q128.1 250.0 126.3 250.4 124.45 250.8 124.45 248.85 124.45 247.05 125.95 246.8 127.4 246.6 127.7 247.9" fill="#996035" fill-rule="evenodd" stroke="none"/>
      <path d="M144.5 239.3 Q144.65 240.4 143.25 240.75 141.9 241.1 141.95 239.35 142.55 237.6 143.65 238.05 144.7 238.55 144.5 239.3" fill="#996035" fill-rule="evenodd" stroke="none"/>
      <path d="M147.7 250.2 Q147.85 250.95 147.2 251.1 146.5 251.25 146.5 250.55 146.5 249.9 147.05 249.8 147.6 249.7 147.7 250.2" fill="#996035" fill-rule="evenodd" stroke="none"/>
      <path d="M127.2 241.25 Q127.6 241.9 126.85 242.4 126.15 242.9 125.8 241.9 125.65 240.9 126.35 240.8 127.05 240.7 127.2 241.25" fill="#996035" fill-rule="evenodd" stroke="none"/>
      <path d="M127.5 277.6 Q127.7 278.6 126.85 278.8 126.05 279.0 126.05 278.05 126.05 277.25 126.7 277.15 127.4 277.05 127.5 277.6" fill="#996035" fill-rule="evenodd" stroke="none"/>
      <path d="M146.7 266.85 Q147.05 267.6 146.5 267.75 145.9 267.95 145.95 267.45 145.8 267.15 146.1 266.85 146.35 266.5 146.7 266.85" fill="#996035" fill-rule="evenodd" stroke="none"/>
      <path d="M122.55 258.95 Q122.95 259.5 122.5 260.1 122.0 260.65 121.5 259.8 121.2 259.2 121.75 258.85 122.25 258.5 122.55 258.95" fill="#996035" fill-rule="evenodd" stroke="none"/>
      <path d="M197.2 382.2 Q197.5 384.55 195.95 384.45 194.3 384.35 194.65 383.1 194.55 382.05 195.65 381.5 196.8 380.95 197.2 382.2" fill="#996035" fill-rule="evenodd" stroke="none"/>
      <path d="M178.05 364.75 Q178.35 369.5 175.2 369.15 174.0 369.0 173.2 368.15 172.35 367.25 172.7 366.25 172.75 364.25 174.9 363.25 177.15 362.2 178.05 364.75" fill="#996035" fill-rule="evenodd" stroke="none"/>
      <path d="M184.85 404.65 Q185.1 406.55 183.6 406.8 182.1 407.05 182.2 405.35 182.25 404.3 183.3 403.85 184.45 403.35 184.85 404.65" fill="#996035" fill-rule="evenodd" stroke="none"/>
      <path d="M166.1 405.05 Q166.3 407.2 164.95 407.15 163.45 407.05 163.75 405.9 163.75 405.1 164.65 404.5 165.65 403.9 166.1 405.05" fill="#996035" fill-rule="evenodd" stroke="none"/>
      <path d="M174.65 441.75 Q175.05 442.9 174.2 443.1 173.3 443.3 173.3 442.5 173.1 441.9 173.7 441.5 174.3 441.1 174.65 441.75" fill="#996035" fill-rule="evenodd" stroke="none"/>
      <path d="M242.15 393.45 Q238.3 393.7 239.15 389.35 240.45 385.35 243.45 386.05 246.4 386.75 246.15 389.3 246.05 393.2 242.15 393.45" fill="#996035" fill-rule="evenodd" stroke="none"/>
      <path d="M229.5 390.1 Q229.45 392.5 227.35 392.45 225.2 392.4 225.75 390.25 226.25 388.25 227.95 388.45 229.6 388.6 229.5 390.1" fill="#996035" fill-rule="evenodd" stroke="none"/>
      <path d="M228.9 419.8 Q229.45 421.75 227.95 422.1 226.4 422.45 226.4 420.9 226.2 419.7 227.35 419.15 228.45 418.6 228.9 419.8" fill="#996035" fill-rule="evenodd" stroke="none"/>
      <path d="M220.4 438.05 Q220.4 439.7 218.3 440.1 216.2 440.5 216.55 437.75 217.65 435.25 219.25 436.05 220.85 436.85 220.4 438.05" fill="#996035" fill-rule="evenodd" stroke="none"/>
      <path d="M209.9 442.4 Q210.05 443.5 208.9 443.75 207.7 444.0 207.75 442.65 208.1 441.15 209.0 441.45 209.9 441.7 209.9 442.4" fill="#996035" fill-rule="evenodd" stroke="none"/>
      <path d="M183.75 452.65 Q183.8 453.05 183.5 453.15 183.15 453.2 183.15 452.85 183.15 452.5 183.4 452.45 183.65 452.4 183.75 452.65" fill="#996035" fill-rule="evenodd" stroke="none"/>
      <path d="M200.1 448.05 Q200.4 449.25 199.55 449.45 198.65 449.65 198.65 448.75 198.55 448.35 198.8 448.25 L199.1 447.85 Q198.8 447.4 199.45 447.5 200.05 447.6 200.1 448.05" fill="#996035" fill-rule="evenodd" stroke="none"/>
      <path d="M174.2 454.7 Q174.55 455.1 174.15 455.75 173.75 456.35 173.1 455.65 172.8 454.6 173.4 454.5 173.95 454.35 174.2 454.7" fill="#996035" fill-rule="evenodd" stroke="none"/>
      <path d="M234.2 381.85 Q234.35 384.2 232.65 384.1 230.9 384.05 231.2 382.55 231.25 381.05 232.65 380.8 233.95 380.6 234.2 381.85" fill="#996035" fill-rule="evenodd" stroke="none"/>
      <path d="M227.3 403.7 Q227.5 404.85 226.55 405.1 225.55 405.35 225.55 404.25 225.55 403.25 226.35 403.15 227.15 403.0 227.3 403.7" fill="#996035" fill-rule="evenodd" stroke="none"/>
      <path d="M245.0 400.85 Q245.2 401.6 244.5 401.8 243.85 401.95 243.85 401.2 243.85 400.55 244.4 400.5 244.9 400.4 245.0 400.85" fill="#996035" fill-rule="evenodd" stroke="none"/>
      <path d="M256.9 386.4 Q257.4 387.9 255.9 388.75 254.45 389.55 254.0 387.5 253.95 385.7 255.3 385.45 256.65 385.25 256.9 386.4" fill="#996035" fill-rule="evenodd" stroke="none"/>
      <path d="M213.25 382.9 Q213.8 384.5 212.6 384.75 211.35 385.05 211.35 383.85 211.2 383.05 212.0 382.5 212.85 382.0 213.25 382.9" fill="#b16b3a" fill-rule="evenodd" stroke="none"/>
      <path d="M200.15 367.55 Q200.4 368.15 199.55 368.75 198.65 369.35 198.3 367.95 198.55 366.55 199.35 366.8 200.1 367.0 200.15 367.55" fill="#b16b3a" fill-rule="evenodd" stroke="none"/>
      <path d="M208.95 400.25 Q209.9 402.8 207.65 403.7 205.45 404.65 205.05 402.0 204.75 399.85 206.6 399.2 208.4 398.55 208.95 400.25" fill="#b16b3a" fill-rule="evenodd" stroke="none"/>
      <path d="M39.9 392.65 Q39.95 394.5 38.6 394.45 37.2 394.4 37.5 393.15 37.55 392.0 38.65 391.8 39.75 391.65 39.9 392.65" fill="#724c2d" fill-rule="evenodd" stroke="none"/>
      <path d="M51.2 413.45 Q51.2 415.85 49.3 415.8 47.35 415.75 47.85 413.85 48.1 412.35 49.6 412.15 51.15 411.95 51.2 413.45" fill="#724c2d" fill-rule="evenodd" stroke="none"/>
      <path d="M30.1 376.3 Q30.15 379.75 27.75 379.5 26.8 379.4 26.2 378.7 25.6 378.0 25.85 377.15 26.05 375.15 27.9 374.85 29.8 374.5 30.1 376.3" fill="#724c2d" fill-rule="evenodd" stroke="none"/>
      <path d="M34.95 403.55 Q35.4 404.6 34.25 405.4 33.1 406.2 32.65 404.45 32.6 403.0 33.65 402.8 34.75 402.65 34.95 403.55" fill="#724c2d" fill-rule="evenodd" stroke="none"/>
      <path d="M38.95 353.05 Q37.1 353.3 35.8 352.2 34.4 351.0 34.55 348.9 34.6 344.45 38.4 343.85 42.1 343.25 42.75 346.65 43.6 352.45 38.95 353.05" fill="#724c2d" fill-rule="evenodd" stroke="none"/>
      <path d="M40.05 371.75 Q37.3 371.85 37.8 369.1 38.0 366.8 40.2 366.5 42.4 366.2 42.6 368.25 42.8 371.7 40.05 371.75" fill="#724c2d" fill-rule="evenodd" stroke="none"/>
      <path d="M29.85 360.55 Q30.0 362.85 28.3 362.75 26.55 362.7 26.9 361.2 26.95 359.7 28.3 359.5 29.65 359.3 29.85 360.55" fill="#724c2d" fill-rule="evenodd" stroke="none"/>
      <path d="M53.5 315.9 Q53.25 317.85 51.3 317.8 49.35 317.75 49.9 315.6 50.85 313.45 52.3 314.05 53.7 314.65 53.5 315.9" fill="#724c2d" fill-rule="evenodd" stroke="none"/>
      <path d="M79.95 271.45 Q78.5 271.3 79.0 269.95 79.2 268.95 80.35 268.8 81.45 268.65 81.5 269.8 81.35 271.6 79.95 271.45" fill="#724c2d" fill-rule="evenodd" stroke="none"/>
      <path d="M75.8 277.05 Q75.15 280.35 73.05 279.55 72.25 279.25 71.9 278.5 71.5 277.75 71.9 277.15 72.25 275.7 73.95 275.5 75.65 275.25 75.8 277.05" fill="#724c2d" fill-rule="evenodd" stroke="none"/>
      <path d="M93.6 245.0 Q93.85 247.1 92.0 247.45 90.1 247.8 90.3 245.65 90.45 244.0 91.95 243.8 93.45 243.6 93.6 245.0" fill="#724c2d" fill-rule="evenodd" stroke="none"/>
      <path d="M95.0 166.8 Q96.25 169.7 93.4 171.3 90.55 172.95 89.65 169.2 89.25 165.6 91.85 165.15 94.35 164.7 95.0 166.8" fill="#724c2d" fill-rule="evenodd" stroke="none"/>
      <path d="M90.6 153.55 Q91.1 155.15 89.9 155.45 88.7 155.7 88.7 154.5 88.55 153.7 89.35 153.2 90.2 152.65 90.6 153.55" fill="#724c2d" fill-rule="evenodd" stroke="none"/>
      <path d="M96.6 211.1 Q96.7 212.8 94.95 213.1 93.25 213.4 93.5 211.3 93.9 209.65 95.3 209.8 96.7 209.9 96.6 211.1" fill="#724c2d" fill-rule="evenodd" stroke="none"/>
      <path d="M97.45 199.75 Q97.75 200.75 96.55 201.4 95.4 202.05 95.0 200.35 95.2 198.65 96.3 198.8 97.4 198.9 97.45 199.75" fill="#724c2d" fill-rule="evenodd" stroke="none"/>
      <path d="M94.95 226.05 Q95.2 227.2 94.2 227.45 93.2 227.7 93.2 226.6 93.2 225.6 94.0 225.5 94.85 225.35 94.95 226.05" fill="#724c2d" fill-rule="evenodd" stroke="none"/>
      <path d="M90.1 142.5 Q90.4 143.85 89.25 144.1 88.05 144.4 88.05 143.1 88.05 141.95 89.0 141.8 89.95 141.65 90.1 142.5" fill="#724c2d" fill-rule="evenodd" stroke="none"/>
      <path d="M96.8 159.8 Q97.2 160.7 96.2 161.4 95.25 162.1 94.8 160.6 94.75 159.3 95.7 159.15 96.65 159.0 96.8 159.8" fill="#724c2d" fill-rule="evenodd" stroke="none"/>
      <path d="M95.4 178.25 Q95.35 180.45 93.95 180.15 92.45 179.85 92.95 178.75 93.05 177.95 94.0 177.5 95.05 177.05 95.4 178.25" fill="#724c2d" fill-rule="evenodd" stroke="none"/>
      <path d="M132.3 220.85 Q133.85 220.85 135.2 222.15 136.6 223.5 136.8 225.35 136.95 226.9 135.9 228.55 L134.8 229.85 134.8 225.85 Q134.8 224.3 133.55 222.4 L132.3 220.85" fill="#975f35" fill-rule="evenodd" stroke="none"/>
      <path d="M136.4 408.15 Q137.5 406.1 138.95 407.0 140.45 407.95 139.3 409.15 138.5 410.25 137.25 409.85 135.95 409.4 136.4 408.15" fill="#b16b3a" fill-rule="evenodd" stroke="none"/>
      <path d="M131.8 433.0 Q134.1 430.35 136.85 432.25 139.6 434.15 136.65 436.7 133.85 438.7 131.95 436.65 130.1 434.7 131.8 433.0" fill="#b16b3a" fill-rule="evenodd" stroke="none"/>
      <path d="M155.65 436.05 Q157.4 432.8 160.1 434.3 162.85 435.85 160.8 438.2 158.75 440.7 156.7 439.25 154.65 437.85 155.65 436.05" fill="#b16b3a" fill-rule="evenodd" stroke="none"/>
      <path d="M128.55 377.9 Q127.0 373.6 130.75 371.95 L133.5 371.9 Q134.9 372.65 135.3 374.8 135.8 378.5 132.75 379.7 129.7 380.9 128.55 377.9" fill="#b16b3a" fill-rule="evenodd" stroke="none"/>
      <path d="M121.85 399.95 Q124.7 399.6 124.95 401.4 125.45 402.6 125.25 404.25 125.1 405.55 124.75 406.05 117.2 410.4 117.6 404.15 118.75 400.3 121.85 399.95" fill="#b16b3a" fill-rule="evenodd" stroke="none"/>
      <path d="M103.2 324.55 Q106.2 319.75 110.05 322.2 111.55 323.15 111.8 324.75 112.1 326.5 110.6 328.0 107.95 331.05 104.75 329.3 101.6 327.6 103.2 324.55" fill="#b16b3a" fill-rule="evenodd" stroke="none"/>
      <path d="M89.1 337.6 Q89.35 336.1 91.6 335.8 93.85 335.5 93.15 338.6 91.5 341.05 89.95 339.9 88.4 338.85 89.1 337.6" fill="#b16b3a" fill-rule="evenodd" stroke="none"/>
      <path d="M92.8 310.95 Q95.35 308.0 98.8 310.25 102.15 312.5 98.5 315.7 94.6 318.15 92.65 315.45 90.7 312.75 92.8 310.95" fill="#b16b3a" fill-rule="evenodd" stroke="none"/>
      <path d="M123.65 325.75 Q124.3 324.95 125.65 325.75 127.0 326.55 125.5 327.85 123.4 328.6 123.15 327.3 122.85 325.95 123.65 325.75" fill="#b16b3a" fill-rule="evenodd" stroke="none"/>
      <path d="M80.85 321.8 L80.75 322.3 81.1 321.85 Q81.7 321.05 81.65 322.95 80.5 323.2 80.45 322.55 80.35 321.85 80.85 321.8" fill="#b16b3a" fill-rule="evenodd" stroke="none"/>
      <path d="M98.5 376.85 Q99.05 377.0 99.1 377.75 99.15 378.45 98.2 378.2 97.4 377.7 97.75 377.2 98.1 376.7 98.5 376.85" fill="#b16b3a" fill-rule="evenodd" stroke="none"/>
      <path d="M89.25 363.45 Q91.25 361.8 93.6 363.6 95.95 365.45 92.75 367.65 89.65 368.9 88.55 366.7 87.45 364.55 89.25 363.45" fill="#b16b3a" fill-rule="evenodd" stroke="none"/>
      <path d="M109.65 342.0 Q110.85 340.75 112.3 341.05 113.65 341.3 113.7 342.25 L113.55 343.8 112.75 344.75 Q111.4 345.65 109.95 344.6 108.45 343.45 109.65 342.0" fill="#b16b3a" fill-rule="evenodd" stroke="none"/>
      <path d="M130.85 356.9 Q130.95 354.7 132.5 353.75 L134.85 353.65 Q135.75 354.3 136.1 355.2 136.5 356.1 136.15 356.9 135.6 358.8 133.35 359.1 131.0 359.4 130.85 356.9" fill="#996035" fill-rule="evenodd" stroke="none"/>
      <path d="M130.4 338.15 Q131.5 336.1 132.95 337.0 134.45 337.95 133.3 339.15 132.5 340.25 131.25 339.85 129.95 339.4 130.4 338.15" fill="#996035" fill-rule="evenodd" stroke="none"/>
      <path d="M119.9 445.25 Q118.9 443.85 120.15 442.9 122.95 441.45 123.65 443.55 124.4 445.75 122.55 445.95 120.9 446.65 119.9 445.25" fill="#996035" fill-rule="evenodd" stroke="none"/>
      <path d="M144.25 446.55 Q147.7 445.85 148.35 448.8 149.05 451.8 145.8 451.8 142.85 451.8 142.5 449.4 142.1 447.0 144.25 446.55" fill="#996035" fill-rule="evenodd" stroke="none"/>
      <path d="M143.75 406.35 Q144.5 403.5 146.2 404.4 148.05 405.3 147.05 406.45 146.65 407.6 145.25 407.75 143.8 407.95 143.75 406.35" fill="#996035" fill-rule="evenodd" stroke="none"/>
      <path d="M117.8 429.15 L119.7 429.05 Q120.65 429.8 119.4 430.65 L117.85 430.5 Q117.1 429.9 117.8 429.15" fill="#996035" fill-rule="evenodd" stroke="none"/>
      <path d="M101.2 389.05 Q102.15 385.9 104.6 385.0 106.8 384.2 108.1 385.5 109.3 386.65 109.6 388.15 109.85 389.7 109.05 390.85 107.6 393.5 104.1 393.15 100.55 392.75 101.2 389.05" fill="#b16b3a" fill-rule="evenodd" stroke="none"/>
      <path d="M90.05 353.45 Q91.2 352.7 91.65 353.7 92.15 354.75 91.3 354.95 90.05 355.4 89.8 354.55 89.6 353.75 90.05 353.45" fill="#b16b3a" fill-rule="evenodd" stroke="none"/>
      <path d="M71.55 328.1 Q72.1 325.2 74.2 325.75 76.35 326.3 75.4 328.2 74.9 329.65 73.25 329.8 71.6 329.95 71.55 328.1" fill="#996035" fill-rule="evenodd" stroke="none"/>
      <path d="M82.75 407.55 Q84.0 408.35 84.3 409.8 84.6 411.3 83.4 412.45 81.6 414.85 78.75 413.9 75.85 412.9 76.9 410.0 79.45 405.4 82.75 407.55" fill="#996035" fill-rule="evenodd" stroke="none"/>
      <path d="M72.8 382.8 Q72.85 381.35 73.9 380.6 74.9 379.85 75.6 380.35 L76.55 381.45 Q76.95 382.05 76.7 382.75 76.3 384.3 74.6 384.45 72.85 384.65 72.8 382.8" fill="#996035" fill-rule="evenodd" stroke="none"/>
      <path d="M66.4 402.75 Q66.85 401.0 68.05 401.0 69.2 400.95 69.05 401.65 L69.05 402.65 68.85 403.2 67.9 403.75 Q66.75 404.4 66.4 402.75" fill="#996035" fill-rule="evenodd" stroke="none"/>
      <path d="M88.15 437.4 Q92.8 432.3 96.05 436.05 97.3 437.45 97.2 439.25 97.1 441.15 95.5 442.05 92.75 444.5 89.45 442.65 86.1 440.8 88.15 437.4" fill="#996035" fill-rule="evenodd" stroke="none"/>
      <path d="M74.2 432.05 Q75.85 430.35 77.0 431.65 78.15 433.0 76.75 433.75 L74.55 433.85 Q73.45 433.1 74.2 432.05" fill="#996035" fill-rule="evenodd" stroke="none"/>
      <path d="M67.2 358.0 Q70.2 355.0 72.85 357.55 73.9 358.55 73.8 359.8 73.75 361.25 72.25 362.2 69.3 364.2 67.35 362.0 65.35 359.9 67.2 358.0" fill="#996035" fill-rule="evenodd" stroke="none"/>
    </g>
    <linearGradient gradientTransform="matrix(0.002, 0.0148, 0.0148, -0.002, 181.95, 321.05)" gradientUnits="userSpaceOnUse" id="gradient0" spreadMethod="pad" x1="-819.2" x2="819.2">
      <stop offset="0.0" stop-color="#e2af7b"/>
      <stop offset="1.0" stop-color="#eed2b5"/>
    </linearGradient>
    <linearGradient gradientTransform="matrix(0.0, 0.0132, 0.0132, 0.0, 175.25, 296.95)" gradientUnits="userSpaceOnUse" id="gradient1" spreadMethod="pad" x1="-819.2" x2="819.2">
      <stop offset="0.0" stop-color="#e2af7b"/>
      <stop offset="1.0" stop-color="#eed2b5"/>
    </linearGradient>
    <linearGradient gradientTransform="matrix(0.0, 0.0199, 0.0199, 0.0, 198.6, 338.75)" gradientUnits="userSpaceOnUse" id="gradient2" spreadMethod="pad" x1="-819.2" x2="819.2">
      <stop offset="0.0" stop-color="#e2af7b"/>
      <stop offset="1.0" stop-color="#eed2b5"/>
    </linearGradient>
    <linearGradient gradientTransform="matrix(0.0, 0.018, 0.018, 0.0, 219.35, 359.4)" gradientUnits="userSpaceOnUse" id="gradient3" spreadMethod="pad" x1="-819.2" x2="819.2">
      <stop offset="0.0" stop-color="#e2af7b"/>
      <stop offset="1.0" stop-color="#eed2b5"/>
    </linearGradient>
    <linearGradient gradientTransform="matrix(0.0, 0.0105, 0.0105, 0.0, 244.55, 368.25)" gradientUnits="userSpaceOnUse" id="gradient4" spreadMethod="pad" x1="-819.2" x2="819.2">
      <stop offset="0.0" stop-color="#e2af7b"/>
      <stop offset="1.0" stop-color="#eed2b5"/>
    </linearGradient>
  </defs>
</svg>
