<?xml version="1.0" encoding="UTF-8" standalone="no"?>
<svg xmlns:xlink="http://www.w3.org/1999/xlink" height="50.0px" width="103.0px" xmlns="http://www.w3.org/2000/svg">
  <g transform="matrix(1.0, 0.0, 0.0, 1.0, 0.0, 0.0)">
    <use height="17.1" transform="matrix(1.0, 0.0, 0.0, 1.0, 25.2, 32.9)" width="52.5" xlink:href="#shape0"/>
    <use height="9.55" transform="matrix(0.8, 0.0, 0.0, 0.8, 40.55, 38.99)" width="27.55" xlink:href="#sprite0"/>
    <use height="10.6" transform="matrix(0.8, 0.0, 0.0, 0.8, 40.75, 37.65)" width="28.55" xlink:href="#sprite1"/>
    <use height="23.05" transform="matrix(1.0, 0.0, 0.0, 1.0, 36.95, 23.85)" width="34.05" xlink:href="#shape3"/>
    <use height="2.4" transform="matrix(0.8, 0.0, 0.0, 0.8, 39.05, 34.91)" width="3.2" xlink:href="#sprite2"/>
    <use height="1.85" transform="matrix(1.0, 0.0, 0.0, 1.0, 38.85, 36.6)" width="1.7" xlink:href="#shape5"/>
    <use height="1.2" transform="matrix(0.8, 0.0, 0.0, 0.8, 39.55, 35.01)" width="1.85" xlink:href="#sprite3"/>
    <use height="16.65" transform="matrix(1.0, 0.0, 0.0, 1.0, 40.5, 27.2)" width="23.0" xlink:href="#shape7"/>
    <use height="20.35" transform="matrix(0.8, 0.0, 0.0, 0.8, 49.65, 27.53)" width="17.3" xlink:href="#sprite4"/>
    <use height="15.05" transform="matrix(1.0, 0.0, 0.0, 1.0, 42.1, 24.15)" width="18.05" xlink:href="#shape9"/>
    <use height="14.1" transform="matrix(0.8, 0.0, 0.0, 0.8, 41.6, 31.03)" width="4.45" xlink:href="#sprite5"/>
    <use height="7.55" transform="matrix(1.0, 0.0, 0.0, 1.0, 50.5, 38.55)" width="7.75" xlink:href="#shape11"/>
    <use height="4.3" transform="matrix(0.8, 0.0, 0.0, 0.8, 51.2, 38.85)" width="6.1" xlink:href="#sprite6"/>
    <use height="3.5" transform="matrix(1.0, 0.0, 0.0, 1.0, 54.6, 41.85)" width="3.3" xlink:href="#shape13"/>
    <use height="2.2" transform="matrix(0.8, 0.0, 0.0, 0.8, 52.15, 39.01)" width="3.45" xlink:href="#sprite7"/>
  </g>
  <defs>
    <g id="shape0" transform="matrix(1.0, 0.0, 0.0, 1.0, -25.2, -32.9)">
      <path d="M76.75 40.5 L57.3 49.55 54.65 50.0 51.4 49.6 26.2 42.9 Q25.25 42.5 25.2 41.75 25.15 41.0 26.0 40.85 L26.9 40.9 27.9 40.95 43.85 35.2 48.0 33.95 50.5 33.85 76.6 38.25 Q77.65 38.55 77.7 39.3 77.75 40.1 76.75 40.5" fill="#ffffff" fill-rule="evenodd" stroke="none"/>
      <path d="M68.55 37.15 L69.8 37.15 76.6 38.25 Q77.65 38.55 77.7 39.3 77.75 40.1 76.75 40.5 L57.3 49.55 54.5 49.95 54.45 48.95 53.85 48.3 Q68.0 37.35 68.55 37.15" fill="#d4d5d6" fill-rule="evenodd" stroke="none"/>
      <path d="M76.45 39.85 L57.05 48.15 54.55 48.75 52.05 48.55 26.5 42.05 Q25.7 41.85 25.5 41.55 25.2 41.15 25.5 40.85 25.8 40.55 26.3 40.35 L43.9 34.35 Q46.85 33.35 48.0 33.1 L50.5 32.95 76.3 38.15 Q77.35 38.4 77.4 38.9 77.45 39.4 76.45 39.85" fill="url(#gradient0)" fill-rule="evenodd" stroke="none"/>
      <path d="M26.5 42.05 Q25.7 41.85 25.5 41.55 25.2 41.15 25.5 40.85 25.8 40.55 26.3 40.35 L41.5 35.15 32.05 38.75 Q27.7 40.65 28.8 41.4 29.95 42.15 35.1 43.8 L43.35 46.35 26.5 42.05" fill="#c9c9c9" fill-rule="evenodd" stroke="none"/>
      <path d="M76.3 38.15 Q77.35 38.4 77.4 38.9 77.45 39.4 76.45 39.85 L57.05 48.15 54.55 48.75 52.05 48.55 48.9 47.75 51.8 47.85 55.1 47.35 Q59.1 46.35 65.9 43.7 71.9 41.3 74.4 39.95 L76.3 38.75 Q76.55 38.35 75.45 37.95 L76.3 38.15" fill="#ffffff" fill-rule="evenodd" stroke="none"/>
      <path d="M69.2 38.6 Q73.25 40.65 68.3 42.85 65.4 44.15 60.5 45.15 58.85 45.45 58.05 45.95 57.2 46.5 56.45 46.65 L50.8 46.8 Q49.55 46.75 47.95 45.85 L44.85 44.3 Q43.7 43.85 40.4 43.15 37.6 42.5 37.1 42.05 36.6 41.55 38.0 40.95 L39.5 40.05 Q39.3 38.55 41.65 38.15 49.15 36.85 55.35 36.65 64.75 36.3 69.2 38.6" fill="url(#gradient1)" fill-rule="evenodd" stroke="none"/>
      <path d="M40.15 40.5 L40.55 41.15 41.1 42.0 40.45 41.95 38.2 41.55 Q37.9 41.35 38.8 40.95 39.6 40.55 40.15 40.5" fill="#9ca6ff" fill-rule="evenodd" stroke="none"/>
    </g>
    <linearGradient gradientTransform="matrix(0.0049, 0.0135, 0.0135, -0.0049, 52.4, 42.95)" gradientUnits="userSpaceOnUse" id="gradient0" spreadMethod="pad" x1="-819.2" x2="819.2">
      <stop offset="0.0" stop-color="#e3e3e3"/>
      <stop offset="1.0" stop-color="#ffffff"/>
    </linearGradient>
    <linearGradient gradientTransform="matrix(0.0208, 0.0, 0.0, -0.0208, 53.95, 41.75)" gradientUnits="userSpaceOnUse" id="gradient1" spreadMethod="pad" x1="-819.2" x2="819.2">
      <stop offset="0.0" stop-color="#8589ff"/>
      <stop offset="1.0" stop-color="#404082"/>
    </linearGradient>
    <g id="sprite0" transform="matrix(1.0, 0.0, 0.0, 1.0, 0.0, -0.05)">
      <use height="9.55" transform="matrix(1.0, 0.0, 0.0, 1.0, 0.0, 0.05)" width="27.55" xlink:href="#shape1"/>
    </g>
    <g id="shape1" transform="matrix(1.0, 0.0, 0.0, 1.0, 0.0, -0.05)">
      <path d="M27.3 9.4 Q25.4 8.4 23.95 8.35 L21.35 8.4 19.0 8.9 16.3 9.55 Q14.55 9.85 11.0 8.7 L5.4 6.65 0.3 5.3 0.0 1.15 1.05 0.95 14.25 0.25 Q27.45 -0.3 27.55 0.55 L27.25 5.85 27.3 9.4" fill="url(#gradient2)" fill-rule="evenodd" stroke="none"/>
    </g>
    <linearGradient gradientTransform="matrix(0.0168, 0.0, 0.0, -0.0168, 13.8, 4.8)" gradientUnits="userSpaceOnUse" id="gradient2" spreadMethod="pad" x1="-819.2" x2="819.2">
      <stop offset="0.0" stop-color="#fff6a1"/>
      <stop offset="1.0" stop-color="#cfc785"/>
    </linearGradient>
    <g id="sprite1" transform="matrix(1.0, 0.0, 0.0, 1.0, 0.0, 0.0)">
      <use height="10.6" transform="matrix(1.0, 0.0, 0.0, 1.0, 0.0, 0.0)" width="28.55" xlink:href="#shape2"/>
    </g>
    <g id="shape2" transform="matrix(1.0, 0.0, 0.0, 1.0, 0.0, 0.0)">
      <path d="M25.95 0.7 Q29.75 0.75 27.95 3.1 26.75 4.65 22.7 7.55 L22.6 8.5 Q22.35 9.5 21.1 10.1 L17.85 10.6 15.0 10.25 Q6.7 9.8 2.55 6.35 0.45 4.6 0.0 2.95 1.95 1.35 5.3 0.0 L25.95 0.7" fill="#000000" fill-rule="evenodd" stroke="none"/>
    </g>
    <g id="shape3" transform="matrix(1.0, 0.0, 0.0, 1.0, -36.95, -23.85)">
      <path d="M70.3 39.35 Q72.5 41.15 67.7 43.1 64.85 44.25 60.5 45.15 58.85 45.45 58.05 45.95 57.2 46.5 56.45 46.65 L50.8 46.8 Q49.55 46.75 47.95 45.85 L44.85 44.3 Q43.7 43.85 40.4 43.15 37.6 42.5 37.1 42.05 L36.95 41.75 Q37.45 42.2 38.5 42.35 L42.0 43.05 Q44.3 43.55 45.3 44.0 L47.8 45.25 Q49.7 46.15 51.5 46.35 L54.85 46.25 58.05 45.2 62.1 44.2 65.95 43.15 Q70.9 41.0 70.3 39.35" fill="#424386" fill-rule="evenodd" stroke="none"/>
      <path d="M60.1 27.45 L41.2 38.55 Q42.65 33.75 42.65 31.3 L42.35 26.75 44.35 25.25 Q47.15 23.75 51.0 23.85 55.1 23.95 58.0 25.75 59.5 26.6 60.1 27.45" fill="#fffbd6" fill-rule="evenodd" stroke="none"/>
      <path d="M41.1 34.95 Q42.5 35.2 42.7 36.55 42.9 37.7 42.1 38.35 41.25 39.15 40.05 38.75 38.9 38.35 38.7 37.35 38.5 36.15 39.25 35.45 39.95 34.75 41.1 34.95" fill="url(#gradient3)" fill-rule="evenodd" stroke="none"/>
      <path d="M42.1 38.35 Q41.3 39.1 40.1 38.75 38.95 38.4 38.7 37.5 39.4 38.5 40.4 38.55 41.3 38.6 41.75 38.05 42.75 37.0 42.45 35.85 42.8 36.45 42.7 37.25 42.55 38.0 42.1 38.35" fill="#48498f" fill-rule="evenodd" stroke="none"/>
    </g>
    <radialGradient cx="0" cy="0" gradientTransform="matrix(0.0021, 0.0032, 0.0029, -0.0027, 40.1, 36.15)" gradientUnits="userSpaceOnUse" id="gradient3" r="819.2" spreadMethod="pad">
      <stop offset="0.0" stop-color="#8589ff"/>
      <stop offset="1.0" stop-color="#404082"/>
    </radialGradient>
    <g id="sprite2" transform="matrix(1.0, 0.0, 0.0, 1.0, 0.0, 0.05)">
      <use height="2.4" transform="matrix(1.0, 0.0, 0.0, 1.0, 0.0, -0.05)" width="3.2" xlink:href="#shape4"/>
    </g>
    <g id="shape4" transform="matrix(1.0, 0.0, 0.0, 1.0, 0.0, 0.05)">
      <path d="M1.05 0.3 L2.75 0.2 Q3.8 0.8 2.4 1.7 0.6 2.85 0.1 1.9 -0.3 1.1 1.05 0.3" fill="#ffffff" fill-rule="evenodd" stroke="none"/>
    </g>
    <g id="shape5" transform="matrix(1.0, 0.0, 0.0, 1.0, -38.85, -36.6)">
      <path d="M39.15 37.1 Q38.95 36.95 39.15 36.75 39.35 36.4 39.55 36.8 L39.6 36.95 39.7 36.8 Q39.75 36.7 39.9 36.7 L40.2 37.0 40.1 37.2 40.25 37.2 40.5 37.3 40.55 37.55 40.45 37.7 40.3 37.7 40.5 38.05 40.2 38.15 39.95 38.45 39.7 38.35 39.7 38.3 39.5 38.45 39.35 38.3 39.35 38.15 39.1 38.15 39.1 37.95 39.1 37.9 38.85 37.75 Q38.8 37.6 38.9 37.55 L39.1 37.55 Q38.75 37.55 38.9 37.2 L39.1 37.05 39.15 37.1" fill="url(#gradient4)" fill-rule="evenodd" stroke="none"/>
      <path d="M39.9 37.2 Q40.3 37.75 40.0 38.05 L39.3 37.95 Q39.0 37.55 39.3 37.15 L39.9 37.2" fill="url(#gradient5)" fill-rule="evenodd" stroke="none"/>
    </g>
    <linearGradient gradientTransform="matrix(4.0E-4, 0.001, 0.0011, -4.0E-4, 39.7, 37.55)" gradientUnits="userSpaceOnUse" id="gradient4" spreadMethod="pad" x1="-819.2" x2="819.2">
      <stop offset="0.0" stop-color="#4f52a8"/>
      <stop offset="1.0" stop-color="#363670"/>
    </linearGradient>
    <linearGradient gradientTransform="matrix(1.0E-4, -7.0E-4, -8.0E-4, -1.0E-4, 39.65, 37.6)" gradientUnits="userSpaceOnUse" id="gradient5" spreadMethod="pad" x1="-819.2" x2="819.2">
      <stop offset="0.0" stop-color="#4f52a8"/>
      <stop offset="1.0" stop-color="#363670"/>
    </linearGradient>
    <g id="sprite3" transform="matrix(1.0, 0.0, 0.0, 1.0, 0.0, 0.05)">
      <use height="2.2" transform="matrix(0.5362, 0.0, 0.0, 0.5349, 0.0, -0.0267)" width="3.45" xlink:href="#shape6"/>
    </g>
    <g id="shape6" transform="matrix(1.0, 0.0, 0.0, 1.0, 0.0, 0.05)">
      <path d="M0.0 1.55 Q-0.05 0.95 1.4 0.2 L2.65 0.0 Q3.3 0.1 3.4 0.4 3.65 0.95 2.75 1.6 1.85 2.25 1.0 2.15 0.05 2.1 0.0 1.55" fill="#ffffff" fill-rule="evenodd" stroke="none"/>
    </g>
    <g id="shape7" transform="matrix(1.0, 0.0, 0.0, 1.0, -40.5, -27.2)">
      <path d="M59.45 28.7 L60.1 27.55 60.3 30.95 Q60.5 33.55 62.0 36.4 L63.5 38.8 Q62.9 40.15 61.1 41.4 57.4 43.95 50.95 43.85 45.8 43.75 42.65 41.9 L40.5 40.05 Q42.1 36.65 42.9 33.15 43.5 30.55 43.05 27.2 L43.6 28.0 45.5 29.65 Q49.05 31.85 54.7 30.75 58.15 30.05 59.45 28.7" fill="url(#gradient6)" fill-rule="evenodd" stroke="none"/>
      <path d="M63.5 38.8 Q62.9 40.15 61.1 41.4 57.4 43.95 50.95 43.85 45.8 43.75 42.65 41.9 L40.5 40.05 41.0 38.95 Q41.6 40.2 43.55 41.15 46.25 42.4 50.65 42.55 55.9 42.7 59.3 41.1 62.1 39.75 62.7 37.7 L63.5 38.8" fill="url(#gradient7)" fill-rule="evenodd" stroke="none"/>
    </g>
    <linearGradient gradientTransform="matrix(0.014, 0.0, 0.0, -0.014, 52.0, 35.55)" gradientUnits="userSpaceOnUse" id="gradient6" spreadMethod="pad" x1="-819.2" x2="819.2">
      <stop offset="0.0" stop-color="#fff6a1"/>
      <stop offset="1.0" stop-color="#cfc785"/>
    </linearGradient>
    <linearGradient gradientTransform="matrix(0.014, 0.0, 0.0, -0.014, 52.0, 40.75)" gradientUnits="userSpaceOnUse" id="gradient7" spreadMethod="pad" x1="-819.2" x2="819.2">
      <stop offset="0.0" stop-color="#d9a318"/>
      <stop offset="1.0" stop-color="#a86e16"/>
    </linearGradient>
    <g id="sprite4" transform="matrix(1.0, 0.0, 0.0, 1.0, 0.0, -0.1)">
      <use height="20.35" transform="matrix(1.0, 0.0, 0.0, 1.0, 0.0, 0.1)" width="17.3" xlink:href="#shape8"/>
    </g>
    <g id="shape8" transform="matrix(1.0, 0.0, 0.0, 1.0, 0.0, -0.1)">
      <path d="M12.25 1.55 Q13.05 0.75 13.05 0.1 L13.3 4.4 Q13.6 7.6 15.45 11.2 16.4 13.05 17.3 14.2 16.7 15.6 14.75 17.1 10.9 20.05 4.25 20.45 7.9 16.65 7.55 11.95 7.3 8.65 6.1 7.45 L5.45 7.0 2.55 5.75 0.0 4.45 6.35 4.1 Q10.65 3.25 12.25 1.55" fill="#000000" fill-rule="evenodd" stroke="none"/>
    </g>
    <g id="shape9" transform="matrix(1.0, 0.0, 0.0, 1.0, -42.1, -24.15)">
      <path d="M59.65 29.2 Q58.3 31.0 53.6 31.3 48.05 31.65 45.0 29.45 L43.45 27.95 43.05 27.2 44.1 26.05 Q45.95 24.75 49.85 24.25 53.95 23.75 57.45 25.55 59.15 26.45 60.1 27.45 60.3 28.3 59.65 29.2" fill="url(#gradient8)" fill-rule="evenodd" stroke="none"/>
      <path d="M45.95 31.9 Q46.4 32.2 46.55 32.95 46.7 33.75 46.5 34.55 46.2 35.3 45.3 34.9 44.35 34.5 44.35 33.55 44.35 32.5 44.8 31.95 L45.95 31.9" fill="url(#gradient9)" fill-rule="evenodd" stroke="none"/>
      <path d="M48.1 36.3 Q48.8 36.55 48.75 37.6 48.7 38.7 47.9 38.4 47.0 38.15 47.3 37.15 47.5 36.1 48.1 36.3" fill="url(#gradient10)" fill-rule="evenodd" stroke="none"/>
      <path d="M43.25 37.6 Q43.5 38.1 42.9 38.75 42.3 39.35 42.1 39.05 42.0 38.75 42.55 38.0 43.1 37.25 43.25 37.6" fill="url(#gradient11)" fill-rule="evenodd" stroke="none"/>
      <path d="M57.7 35.1 Q58.25 35.7 58.1 36.45 57.9 37.2 57.25 37.0 56.6 36.8 56.9 35.75 57.3 34.7 57.7 35.1" fill="url(#gradient12)" fill-rule="evenodd" stroke="none"/>
      <path d="M53.4 32.1 Q54.05 31.95 54.25 32.55 54.45 33.15 53.65 33.4 52.9 33.6 52.9 32.9 53.0 32.15 53.4 32.1" fill="url(#gradient13)" fill-rule="evenodd" stroke="none"/>
      <path d="M59.25 38.15 Q59.45 38.7 59.2 39.05 L58.75 39.0 Q58.55 38.6 58.8 38.15 59.1 37.6 59.25 38.15" fill="url(#gradient14)" fill-rule="evenodd" stroke="none"/>
      <path d="M46.95 26.15 Q48.15 26.25 48.0 26.75 47.8 27.25 46.75 27.15 45.85 27.05 46.1 26.55 46.4 26.1 46.95 26.15" fill="url(#gradient15)" fill-rule="evenodd" stroke="none"/>
      <path d="M51.15 24.85 Q52.3 25.05 52.3 25.45 52.35 25.8 51.2 25.8 50.1 25.8 50.3 25.3 50.45 24.75 51.15 24.85" fill="url(#gradient16)" fill-rule="evenodd" stroke="none"/>
      <path d="M53.75 25.8 Q54.1 26.05 53.85 26.15 L53.05 26.1 Q52.55 25.95 52.9 25.75 L53.75 25.8" fill="url(#gradient17)" fill-rule="evenodd" stroke="none"/>
      <path d="M54.6 28.75 Q55.85 28.9 55.75 29.35 55.7 29.75 54.85 29.75 54.1 29.75 54.0 29.2 53.9 28.7 54.6 28.75" fill="url(#gradient18)" fill-rule="evenodd" stroke="none"/>
      <path d="M48.6 29.05 L49.1 29.35 Q48.95 29.65 48.5 29.65 48.1 29.65 48.1 29.35 48.1 29.0 48.6 29.05" fill="url(#gradient19)" fill-rule="evenodd" stroke="none"/>
    </g>
    <linearGradient gradientTransform="matrix(-0.0136, -0.004, -0.004, 0.0136, 51.9, 27.8)" gradientUnits="userSpaceOnUse" id="gradient8" spreadMethod="pad" x1="-819.2" x2="819.2">
      <stop offset="0.0" stop-color="#fff6a1"/>
      <stop offset="1.0" stop-color="#cfc785"/>
    </linearGradient>
    <linearGradient gradientTransform="matrix(-1.0E-4, -0.0027, -0.0027, 1.0E-4, 45.5, 33.3)" gradientUnits="userSpaceOnUse" id="gradient9" spreadMethod="pad" x1="-819.2" x2="819.2">
      <stop offset="0.0" stop-color="#fff7ad"/>
      <stop offset="1.0" stop-color="#cfc785"/>
    </linearGradient>
    <linearGradient gradientTransform="matrix(-1.0E-4, -0.0018, -0.0018, 1.0E-4, 48.0, 37.35)" gradientUnits="userSpaceOnUse" id="gradient10" spreadMethod="pad" x1="-819.2" x2="819.2">
      <stop offset="0.0" stop-color="#fff7ad"/>
      <stop offset="1.0" stop-color="#cfc785"/>
    </linearGradient>
    <linearGradient gradientTransform="matrix(-1.0E-4, -0.0013, -0.0013, 1.0E-4, 42.7, 38.3)" gradientUnits="userSpaceOnUse" id="gradient11" spreadMethod="pad" x1="-819.2" x2="819.2">
      <stop offset="0.0" stop-color="#fff7ad"/>
      <stop offset="1.0" stop-color="#cfc785"/>
    </linearGradient>
    <linearGradient gradientTransform="matrix(-1.0E-4, -0.0016, -0.0016, 1.0E-4, 57.45, 36.0)" gradientUnits="userSpaceOnUse" id="gradient12" spreadMethod="pad" x1="-819.2" x2="819.2">
      <stop offset="0.0" stop-color="#fff7ad"/>
      <stop offset="1.0" stop-color="#cfc785"/>
    </linearGradient>
    <linearGradient gradientTransform="matrix(0.0, -0.0011, -0.0011, 0.0, 53.6, 32.75)" gradientUnits="userSpaceOnUse" id="gradient13" spreadMethod="pad" x1="-819.2" x2="819.2">
      <stop offset="0.0" stop-color="#fff7ad"/>
      <stop offset="1.0" stop-color="#cfc785"/>
    </linearGradient>
    <linearGradient gradientTransform="matrix(0.0, -0.0011, -0.0011, 0.0, 59.0, 38.55)" gradientUnits="userSpaceOnUse" id="gradient14" spreadMethod="pad" x1="-819.2" x2="819.2">
      <stop offset="0.0" stop-color="#fff7ad"/>
      <stop offset="1.0" stop-color="#cfc785"/>
    </linearGradient>
    <linearGradient gradientTransform="matrix(-9.0E-4, -5.0E-4, -5.0E-4, 9.0E-4, 47.2, 26.8)" gradientUnits="userSpaceOnUse" id="gradient15" spreadMethod="pad" x1="-819.2" x2="819.2">
      <stop offset="0.0" stop-color="#fff7ad"/>
      <stop offset="1.0" stop-color="#cfc785"/>
    </linearGradient>
    <linearGradient gradientTransform="matrix(-0.001, -5.0E-4, -5.0E-4, 0.001, 51.5, 25.5)" gradientUnits="userSpaceOnUse" id="gradient16" spreadMethod="pad" x1="-819.2" x2="819.2">
      <stop offset="0.0" stop-color="#fff7ad"/>
      <stop offset="1.0" stop-color="#cfc785"/>
    </linearGradient>
    <linearGradient gradientTransform="matrix(-6.0E-4, -3.0E-4, -3.0E-4, 6.0E-4, 53.5, 25.95)" gradientUnits="userSpaceOnUse" id="gradient17" spreadMethod="pad" x1="-819.2" x2="819.2">
      <stop offset="0.0" stop-color="#fff7ad"/>
      <stop offset="1.0" stop-color="#cfc785"/>
    </linearGradient>
    <linearGradient gradientTransform="matrix(-9.0E-4, -5.0E-4, -5.0E-4, 9.0E-4, 55.05, 29.35)" gradientUnits="userSpaceOnUse" id="gradient18" spreadMethod="pad" x1="-819.2" x2="819.2">
      <stop offset="0.0" stop-color="#fff7ad"/>
      <stop offset="1.0" stop-color="#cfc785"/>
    </linearGradient>
    <linearGradient gradientTransform="matrix(-5.0E-4, -2.0E-4, -2.0E-4, 5.0E-4, 48.7, 29.4)" gradientUnits="userSpaceOnUse" id="gradient19" spreadMethod="pad" x1="-819.2" x2="819.2">
      <stop offset="0.0" stop-color="#fff7ad"/>
      <stop offset="1.0" stop-color="#cfc785"/>
    </linearGradient>
    <g id="sprite5" transform="matrix(1.0, 0.0, 0.0, 1.0, 0.0, -0.1)">
      <use height="14.1" transform="matrix(1.0, 0.0, 0.0, 1.0, 0.0, 0.1)" width="4.45" xlink:href="#shape10"/>
    </g>
    <g id="shape10" transform="matrix(1.0, 0.0, 0.0, 1.0, 0.0, -0.1)">
      <path d="M2.3 6.75 L3.1 1.55 Q3.35 -0.6 3.9 0.4 4.65 1.85 4.35 6.2 4.0 11.1 2.35 14.2 0.95 13.55 0.0 12.75 1.25 10.9 2.3 6.75" fill="#fffcdb" fill-rule="evenodd" stroke="none"/>
    </g>
    <g id="shape11" transform="matrix(1.0, 0.0, 0.0, 1.0, -50.5, -38.55)">
      <path d="M53.65 38.65 Q55.7 38.2 57.1 39.6 58.55 40.95 58.15 43.2 57.85 45.1 55.6 45.8 53.3 46.55 51.65 45.15 50.2 43.9 50.55 41.65 50.95 39.15 53.65 38.65" fill="url(#gradient20)" fill-rule="evenodd" stroke="none"/>
      <path d="M51.65 45.15 Q50.8 44.4 50.55 43.0 50.35 41.55 51.05 40.35 50.45 42.45 52.3 44.55 53.25 45.6 54.9 45.45 56.9 45.35 58.1 43.45 57.65 45.25 55.5 45.9 53.25 46.55 51.65 45.15" fill="#48498f" fill-rule="evenodd" stroke="none"/>
    </g>
    <radialGradient cx="0" cy="0" gradientTransform="matrix(-0.0039, 0.0061, -0.0055, -0.0051, 55.5, 40.9)" gradientUnits="userSpaceOnUse" id="gradient20" r="819.2" spreadMethod="pad">
      <stop offset="0.0" stop-color="#8589ff"/>
      <stop offset="1.0" stop-color="#404082"/>
    </radialGradient>
    <g id="sprite6" transform="matrix(1.0, 0.0, 0.0, 1.0, 0.0, 0.0)">
      <use height="4.3" transform="matrix(1.0, 0.0, 0.0, 1.0, 0.0, 0.0)" width="6.1" xlink:href="#shape12"/>
    </g>
    <g id="shape12" transform="matrix(1.0, 0.0, 0.0, 1.0, 0.0, 0.0)">
      <path d="M2.0 0.5 Q2.6 0.1 3.5 0.0 4.5 -0.1 5.25 0.3 7.2 1.45 4.6 3.15 2.8 4.35 1.55 4.3 0.6 4.25 0.2 3.55 -0.6 2.05 2.0 0.5" fill="#ffffff" fill-rule="evenodd" stroke="none"/>
    </g>
    <g id="shape13" transform="matrix(1.0, 0.0, 0.0, 1.0, -54.6, -41.85)">
      <path d="M54.65 43.6 Q54.55 43.35 54.75 43.1 55.0 42.75 55.5 42.95 L55.3 42.55 Q55.25 42.05 55.85 41.95 56.25 41.95 56.45 42.4 L56.5 42.2 56.8 41.9 57.3 42.0 Q57.65 42.4 57.15 42.75 L57.4 42.65 57.8 42.95 Q58.0 43.55 57.45 43.6 58.0 43.55 57.85 43.9 57.7 44.25 57.3 44.2 57.7 44.4 57.35 44.75 L57.0 44.9 56.9 44.75 56.65 45.3 56.3 45.15 56.25 45.0 Q56.3 45.35 55.75 45.35 L55.3 45.0 55.3 44.7 Q54.95 44.95 54.75 44.55 54.65 44.3 54.9 44.1 L55.15 43.9 54.85 43.9 54.65 43.6" fill="url(#gradient21)" fill-rule="evenodd" stroke="none"/>
      <path d="M55.9 42.95 L57.05 42.9 Q57.6 43.55 56.95 44.35 56.25 45.1 55.7 44.55 55.1 44.0 55.9 42.95" fill="url(#gradient22)" fill-rule="evenodd" stroke="none"/>
    </g>
    <linearGradient gradientTransform="matrix(-0.0014, -0.0014, 0.0016, -0.0015, 56.25, 43.6)" gradientUnits="userSpaceOnUse" id="gradient21" spreadMethod="pad" x1="-819.2" x2="819.2">
      <stop offset="0.0" stop-color="#4f52a8"/>
      <stop offset="1.0" stop-color="#363670"/>
    </linearGradient>
    <linearGradient gradientTransform="matrix(4.0E-4, 0.0013, -0.0014, 4.0E-4, 56.3, 43.75)" gradientUnits="userSpaceOnUse" id="gradient22" spreadMethod="pad" x1="-819.2" x2="819.2">
      <stop offset="0.0" stop-color="#4f52a8"/>
      <stop offset="1.0" stop-color="#363670"/>
    </linearGradient>
    <g id="sprite7" transform="matrix(1.0, 0.0, 0.0, 1.0, 0.0, 0.05)">
      <use height="2.2" transform="matrix(1.0, 0.0, 0.0, 1.0, 0.0, -0.05)" width="3.45" xlink:href="#shape6"/>
    </g>
  </defs>
</svg>
