<?xml version="1.0" encoding="UTF-8" standalone="no"?>
<svg xmlns:xlink="http://www.w3.org/1999/xlink" height="144.6px" width="207.8px" xmlns="http://www.w3.org/2000/svg">
  <g transform="matrix(1.0, 0.0, 0.0, 1.0, 0.0, 0.0)">
    <use height="144.6" transform="matrix(1.0, 0.0, 0.0, 1.0, 0.0, 0.0)" width="207.8" xlink:href="#shape0"/>
  </g>
  <defs>
    <g id="shape0" transform="matrix(1.0, 0.0, 0.0, 1.0, 0.0, 0.0)">
      <path d="M197.95 0.5 L198.4 1.65 198.4 3.0 Q198.35 5.85 196.2 7.8 L195.1 8.6 193.9 8.8 193.45 8.65 192.9 8.6 192.2 9.1 191.55 9.65 Q190.2 10.45 188.4 10.6 L185.1 10.6 185.2 10.1 184.3 9.9 185.5 9.4 185.65 9.25 187.2 7.95 188.4 6.8 188.65 6.55 191.45 4.8 194.25 3.1 194.65 2.85 195.15 2.5 195.8 1.95 197.0 1.05 Q197.4 0.75 197.75 0.55 L197.95 0.45 197.95 0.5 M176.95 13.45 L176.95 13.5 176.75 14.1 176.25 14.85 Q175.25 16.15 172.85 16.6 L169.0 16.9 169.0 17.5 168.95 18.1 165.4 18.6 164.7 19.0 163.5 19.2 161.75 18.8 160.1 18.2 163.2 17.5 164.25 17.3 165.2 17.15 166.45 17.05 Q172.15 15.35 176.95 13.45 M155.3 18.5 L156.35 18.4 158.35 18.4 Q159.05 19.35 158.7 20.35 L154.55 21.2 150.55 21.6 150.45 20.75 150.45 20.7 150.5 20.7 Q151.3 20.45 152.55 19.7 153.85 18.95 154.5 18.7 L155.0 18.55 155.3 18.5 M144.65 21.15 L144.1 22.45 Q142.9 24.05 139.25 24.3 L136.0 24.25 Q134.55 24.05 133.35 23.4 L131.75 23.1 Q131.65 22.6 131.8 22.35 L131.85 22.3 131.85 22.25 136.9 21.2 142.15 21.0 143.15 21.05 144.65 21.15 M115.0 22.15 L115.45 22.2 Q115.3 23.3 114.2 23.6 113.05 23.95 111.5 23.1 L110.65 22.3 Q110.3 21.75 110.7 21.4 L111.0 21.55 113.9 22.0 115.0 22.15 M104.7 19.35 L104.85 19.4 Q104.4 20.7 102.75 21.15 L102.5 21.2 94.7 22.4 91.95 22.55 Q89.75 22.45 89.05 21.55 88.35 20.8 88.7 20.15 L88.7 20.1 96.7 19.45 99.4 19.3 101.75 19.25 104.7 19.35 M73.7 17.85 Q73.45 19.75 70.7 20.2 L66.4 19.9 Q64.2 19.05 64.2 18.15 64.25 17.3 66.1 17.1 L68.9 17.2 68.9 17.15 73.25 17.75 73.7 17.8 73.7 17.85 M62.2 15.5 Q61.65 16.3 60.4 16.7 L57.5 17.2 55.65 17.4 Q54.65 17.3 54.7 16.2 L52.05 14.75 Q52.15 15.35 51.75 15.8 51.35 16.25 50.0 16.45 L48.05 16.65 Q43.7 17.5 39.2 15.65 38.0 15.1 37.75 14.5 37.4 13.75 38.95 13.6 38.5 12.1 41.2 11.85 L42.65 12.3 45.1 12.95 47.45 13.5 51.65 14.5 52.05 14.75 52.0 14.6 54.3 14.95 56.25 15.1 59.25 15.15 62.2 15.5 M33.15 7.4 Q34.55 7.65 35.6 8.4 33.05 10.3 29.75 9.15 28.6 8.75 28.65 8.25 L29.55 7.45 31.35 7.4 32.7 7.35 33.0 7.4 33.15 7.4 M25.8 5.6 Q25.15 6.75 23.5 7.05 L20.05 6.8 Q18.45 6.3 18.8 5.45 19.15 4.75 20.5 4.15 L20.95 4.2 21.65 4.25 Q23.2 4.5 24.75 5.1 L25.8 5.55 25.8 5.6" fill="#7a6a2b" fill-rule="evenodd" stroke="none"/>
      <path d="M197.95 0.5 Q199.3 -0.25 200.0 0.1 L200.05 0.15 200.15 0.1 200.5 0.45 Q203.4 3.75 205.45 23.8 207.35 42.55 207.7 67.15 208.1 92.6 206.55 110.9 204.85 131.5 201.25 135.45 196.8 140.35 168.0 142.75 142.65 144.85 106.5 144.55 L45.5 142.0 Q17.45 139.55 13.9 136.1 5.1 127.55 2.35 109.85 0.9 100.6 0.55 77.25 L0.1 61.9 Q-0.2 49.6 0.3 40.45 1.8 12.55 10.8 6.55 13.7 4.7 19.25 3.5 L20.45 4.15 20.5 4.15 Q19.15 4.75 18.8 5.45 18.45 6.3 20.05 6.8 L23.5 7.05 Q25.15 6.75 25.8 5.6 L26.0 5.7 27.5 6.6 29.0 7.35 29.55 7.45 28.65 8.25 Q28.6 8.75 29.75 9.15 33.05 10.3 35.6 8.4 34.55 7.65 33.15 7.4 34.5 7.6 35.65 8.4 L37.8 10.05 Q39.5 11.3 42.65 12.3 L41.2 11.85 Q38.5 12.1 38.95 13.6 37.4 13.75 37.75 14.5 38.0 15.1 39.2 15.65 43.7 17.5 48.05 16.65 L50.0 16.45 Q51.35 16.25 51.75 15.8 52.15 15.35 52.05 14.75 L54.7 16.2 Q54.65 17.3 55.65 17.4 L57.5 17.2 60.4 16.7 Q61.65 16.3 62.2 15.5 L62.75 15.65 Q66.6 16.95 70.75 17.35 L73.25 17.75 68.9 17.15 68.9 17.2 66.1 17.1 Q64.25 17.3 64.2 18.15 64.2 19.05 66.4 19.9 L70.7 20.2 Q73.45 19.75 73.7 17.85 L78.75 18.9 Q83.75 20.05 86.7 20.15 L88.7 20.15 Q88.35 20.8 89.05 21.55 89.75 22.45 91.95 22.55 92.35 23.1 94.25 23.65 101.25 25.5 106.1 23.85 108.0 23.2 106.75 22.45 105.65 21.8 102.5 21.2 L102.75 21.15 Q104.4 20.7 104.85 19.4 L104.7 19.35 Q106.2 19.5 107.95 20.2 L110.7 21.4 Q110.3 21.75 110.65 22.3 L111.5 23.1 Q113.05 23.95 114.2 23.6 115.3 23.3 115.45 22.2 L115.0 22.15 123.0 23.1 127.55 22.65 131.85 22.3 131.8 22.35 Q131.65 22.6 131.75 23.1 L133.35 23.4 Q134.55 24.05 136.0 24.25 L139.25 24.3 Q142.9 24.05 144.1 22.45 L144.65 21.15 150.45 20.75 150.55 21.6 154.55 21.2 158.7 20.35 Q159.05 19.35 158.35 18.4 L156.35 18.4 155.3 18.5 156.8 18.35 159.25 18.35 162.4 17.65 164.25 17.3 163.2 17.5 160.1 18.2 161.75 18.8 163.5 19.2 164.7 19.0 165.4 18.6 168.95 18.1 169.0 17.5 169.0 16.9 172.85 16.6 Q175.25 16.15 176.25 14.85 L176.75 14.1 177.55 14.2 Q181.3 14.55 184.85 13.3 188.5 11.95 182.4 11.15 L176.95 13.5 176.95 13.45 178.2 12.95 Q180.2 11.3 181.75 10.65 L183.65 10.1 184.3 9.9 185.2 10.1 185.1 10.6 188.4 10.6 Q190.2 10.45 191.55 9.65 L192.2 9.1 192.9 8.6 193.45 8.65 193.9 8.8 195.1 8.6 196.2 7.8 Q198.35 5.85 198.4 3.0 L198.4 1.65 197.95 0.5 M21.65 4.25 L23.3 4.55 24.75 5.1 Q23.2 4.5 21.65 4.25 M198.2 12.2 L198.25 11.15 198.0 9.65 Q195.65 13.05 191.15 14.75 L182.8 17.1 Q185.15 20.05 194.2 16.3 L196.1 15.85 Q197.25 15.55 197.7 14.9 198.0 14.5 198.2 12.25 198.45 12.05 198.65 11.95 L198.2 12.2 M51.65 14.5 L54.3 14.95 52.0 14.6 52.05 14.75 51.65 14.5 M59.25 15.15 L59.5 15.15 62.2 15.5 59.25 15.15 M61.05 36.25 Q62.95 35.25 60.1 32.95 57.2 30.55 53.1 31.65 48.85 32.8 46.6 34.05 43.7 35.65 47.65 36.0 L55.8 36.75 Q59.7 37.0 61.05 36.25 M41.45 43.5 Q38.6 45.3 41.75 46.45 44.55 47.5 47.6 47.5 50.05 47.55 51.2 47.0 53.35 46.0 53.65 45.05 54.15 43.35 48.2 42.35 44.3 41.7 41.45 43.5 M42.05 20.3 Q38.6 19.55 33.9 21.45 32.1 22.15 31.75 22.75 31.35 23.45 33.1 23.5 L39.7 23.85 Q42.95 23.95 45.3 23.15 47.85 22.3 46.75 21.6 45.9 21.05 42.05 20.3 M43.35 67.95 Q42.0 68.9 42.45 69.75 42.95 70.75 44.6 71.3 46.45 71.9 48.2 71.25 51.1 70.1 51.55 69.0 52.2 67.45 46.5 67.1 44.75 67.05 43.35 67.95 M40.55 65.05 Q39.5 62.5 33.8 62.85 30.1 63.05 28.55 64.05 26.75 65.2 29.25 66.75 31.85 68.35 34.5 68.75 L38.95 68.35 Q41.5 67.4 40.55 65.05 M145.3 27.15 L144.95 27.15 140.8 27.9 136.45 28.65 131.9 28.4 127.35 28.15 121.6 28.2 Q118.2 28.0 116.25 26.9 L116.0 26.65 114.2 26.15 Q113.05 25.6 112.2 25.65 L109.6 26.1 107.05 26.7 Q108.25 26.8 109.1 27.85 L110.7 29.65 Q111.7 30.35 113.2 30.45 L115.95 30.4 Q118.1 30.4 120.8 31.95 124.2 33.85 125.4 34.2 L130.6 34.75 135.75 33.9 139.55 32.9 143.65 32.65 148.25 32.95 Q151.35 33.0 152.5 31.95 153.65 30.85 152.7 29.7 151.9 28.75 150.55 28.6 L150.6 28.4 151.35 27.5 Q151.65 26.8 151.45 25.85 L150.05 25.95 148.5 25.65 Q147.5 25.95 145.3 27.15 M98.2 42.45 Q96.0 43.05 96.65 44.15 97.35 45.2 100.35 45.7 L104.95 45.55 Q107.0 44.9 106.85 44.15 106.7 43.2 102.85 42.35 L98.2 42.45 M88.3 26.05 L88.25 25.9 84.85 25.65 Q83.0 25.5 81.75 25.65 L74.25 24.65 Q74.7 26.9 79.05 28.3 82.5 29.35 85.5 29.35 L89.9 29.2 Q92.15 28.85 93.75 27.4 L92.25 26.15 88.3 26.05 M85.7 68.35 Q84.3 69.4 85.7 70.1 87.1 70.75 89.95 70.85 L93.9 70.4 Q96.2 69.35 96.25 68.45 96.35 67.05 89.35 67.2 87.05 67.3 85.7 68.35 M79.15 54.25 Q80.05 55.35 82.7 55.75 85.45 56.2 87.35 55.35 89.7 54.35 89.35 52.95 89.0 51.3 84.85 50.25 82.4 49.65 80.25 51.4 78.15 53.1 79.15 54.25 M165.4 22.45 L163.5 23.2 160.85 23.9 Q159.15 24.3 158.5 24.8 L166.2 25.3 Q169.4 24.8 173.45 23.05 L177.05 22.4 Q179.35 21.9 179.5 20.4 179.65 19.0 178.15 18.85 L175.5 18.9 172.0 19.15 166.15 22.15 165.4 22.45 M140.9 42.0 Q141.95 41.2 141.95 40.2 141.95 37.6 136.1 37.6 130.35 37.6 126.85 38.95 123.3 40.25 126.95 41.15 L132.85 42.55 138.25 42.9 Q139.8 42.85 140.9 42.0 M138.45 33.45 Q134.45 34.5 140.3 36.45 L149.8 39.55 155.05 39.4 Q157.2 38.45 153.2 35.9 149.35 33.45 146.5 33.1 L138.45 33.45 M133.6 52.35 Q134.3 53.05 136.7 53.7 L139.85 53.8 Q140.6 53.1 139.95 51.8 139.2 50.35 137.4 50.0 135.5 49.65 134.15 50.7 132.9 51.65 133.6 52.35 M189.35 20.25 L186.65 19.9 Q182.75 20.0 180.85 20.75 178.9 21.5 181.9 22.05 185.1 22.65 188.4 21.2 189.7 20.65 189.35 20.25 M183.75 35.4 Q191.7 36.95 193.25 35.95 195.5 34.6 195.55 34.15 195.7 32.8 187.6 33.0 183.8 33.15 181.95 33.8 179.8 34.6 183.75 35.4 M173.2 68.35 L177.65 70.3 Q179.4 70.75 181.75 69.5 184.5 68.05 184.25 66.65 183.95 65.2 180.4 64.9 176.4 64.6 173.45 65.8 170.4 67.05 173.2 68.35 M188.6 86.85 Q185.65 88.25 186.65 90.6 187.55 92.65 190.9 93.15 L195.8 92.85 Q197.7 92.2 198.15 89.8 198.7 87.25 196.15 86.55 191.65 85.4 188.6 86.85 M177.95 117.05 L171.15 117.3 Q166.85 118.25 169.15 120.0 171.3 121.55 174.9 121.75 177.7 121.9 179.15 120.95 180.4 120.15 180.2 118.95 179.95 117.6 177.95 117.05 M166.2 114.3 Q167.35 113.65 165.45 112.15 163.4 110.55 160.15 110.55 155.2 110.55 155.05 112.6 154.9 114.4 157.65 115.5 159.65 116.25 162.6 115.6 164.75 115.1 166.2 114.3 M122.85 76.15 Q125.1 77.35 127.15 77.7 129.7 78.15 131.15 77.15 132.7 76.1 130.4 74.9 128.15 73.75 125.65 74.1 L122.6 74.7 Q121.25 75.25 122.85 76.15 M117.95 77.3 Q113.95 77.0 111.0 78.2 107.95 79.5 110.75 80.8 L115.2 82.75 Q116.95 83.15 119.3 81.9 122.05 80.45 121.8 79.05 121.5 77.6 117.95 77.3 M151.3 122.1 Q151.3 124.0 155.8 126.3 159.2 128.0 162.1 127.4 164.05 127.0 166.25 125.3 168.05 123.9 165.95 122.2 163.65 120.35 158.3 120.15 151.25 119.85 151.3 122.1 M101.35 92.55 Q98.95 93.85 101.2 95.25 103.45 96.65 106.45 97.15 L110.6 96.95 Q111.9 96.2 110.9 94.15 109.95 92.1 107.75 91.8 103.8 91.3 101.35 92.55 M76.35 71.55 Q71.35 72.25 71.1 74.7 70.85 77.05 74.65 77.7 78.2 78.3 81.3 77.85 84.4 77.4 84.6 76.15 84.85 74.65 82.3 72.95 79.45 71.15 76.35 71.55 M38.3 118.2 Q38.75 117.3 37.4 116.4 36.0 115.5 34.25 115.6 28.55 115.9 29.2 117.45 29.65 118.6 32.55 119.7 34.3 120.35 36.15 119.75 37.8 119.2 38.3 118.2 M47.85 110.9 Q44.1 110.8 42.7 112.55 41.4 114.2 43.35 114.75 L48.1 114.85 Q51.15 114.55 51.9 113.95 52.75 113.35 51.25 112.2 49.75 110.95 47.85 110.9 M107.05 113.45 Q103.4 112.75 100.1 114.4 96.85 116.05 98.5 117.25 99.95 118.3 104.25 118.45 L111.1 117.9 Q113.5 117.25 111.6 115.55 109.8 114.0 107.05 113.45 M40.6 95.5 Q42.3 93.8 39.0 92.15 36.0 90.7 32.0 90.55 28.4 90.45 27.1 92.95 25.75 95.5 29.95 96.4 34.65 97.45 36.6 97.35 38.9 97.2 40.6 95.5 M84.0 125.9 Q81.15 125.5 79.9 126.85 78.6 128.15 80.7 129.5 82.6 130.75 85.8 130.45 88.55 130.2 89.65 129.25 90.45 128.55 88.2 127.3 86.05 126.15 84.0 125.9 M101.2 133.9 Q102.7 131.85 100.3 130.6 97.8 129.25 93.55 130.25 91.15 130.8 90.8 132.9 90.45 134.95 92.8 135.65 98.7 137.3 101.2 133.9 M45.35 123.65 Q48.3 123.15 50.55 121.75 52.85 120.35 50.4 119.05 48.0 117.8 44.05 118.3 41.85 118.6 40.85 120.65 39.9 122.7 41.2 123.45 L45.35 123.65 M59.15 127.15 Q57.8 128.85 59.8 129.35 L64.55 129.5 Q67.55 129.2 68.35 128.6 69.2 128.0 67.7 126.85 66.2 125.6 64.3 125.55 60.55 125.4 59.15 127.15 M23.35 16.65 L28.35 17.15 32.55 17.0 Q34.05 16.35 33.4 15.5 32.75 14.65 30.3 14.0 27.6 13.3 24.25 14.95 20.75 16.65 23.35 16.65 M18.95 41.75 Q19.05 40.35 12.05 40.5 9.75 40.6 8.35 41.65 6.95 42.7 8.4 43.4 9.8 44.05 12.65 44.15 L16.55 43.7 Q18.85 42.65 18.95 41.75 M16.0 90.9 Q12.0 90.6 9.05 91.8 5.95 93.05 8.8 94.35 L13.25 96.3 Q15.0 96.75 17.35 95.5 20.1 94.05 19.85 92.65 19.55 91.2 16.0 90.9 M18.85 87.15 Q17.35 89.1 20.8 89.85 L28.3 89.65 33.7 88.3 Q35.3 87.9 31.55 86.5 27.7 85.1 23.9 85.15 20.3 85.2 18.85 87.15" fill="#6e5e25" fill-rule="evenodd" stroke="none"/>
      <path d="M198.2 12.25 Q197.45 12.7 196.15 13.65 194.6 14.8 193.3 15.05 L191.8 15.15 190.25 15.15 192.75 14.35 195.25 13.65 198.2 12.2 198.65 11.95 Q198.45 12.05 198.2 12.25 M145.3 27.15 Q147.5 25.95 148.5 25.65 L150.05 25.95 151.0 26.15 Q151.05 27.45 150.6 28.4 L150.55 28.6 Q149.35 30.8 145.45 31.3 143.8 31.55 136.75 31.2 L127.65 31.3 Q122.25 31.25 119.0 29.15 L125.95 29.8 133.0 30.15 139.55 29.45 Q141.5 29.15 144.1 27.75 L145.3 27.15 M103.0 22.9 Q102.8 24.1 100.45 24.4 98.2 24.65 97.45 23.8 96.6 22.8 98.55 22.45 L101.25 22.15 103.0 22.9 M81.75 25.65 Q83.0 25.5 84.85 25.65 L88.25 25.9 88.3 26.05 88.5 27.15 84.5 27.2 Q81.75 27.0 81.5 25.65 L81.75 25.65 M166.15 22.15 L166.7 22.0 168.75 21.55 170.7 20.1 Q171.8 19.3 173.0 19.4 L176.5 20.15 Q175.9 22.5 171.45 23.2 167.45 23.85 165.0 22.8 L165.4 22.45 166.15 22.15" fill="#4e441c" fill-rule="evenodd" stroke="none"/>
      <path d="M176.95 13.5 L182.4 11.15 Q188.5 11.95 184.85 13.3 181.3 14.55 177.55 14.2 L176.75 14.1 176.95 13.5 M102.5 21.2 Q105.65 21.8 106.75 22.45 108.0 23.2 106.1 23.85 101.25 25.5 94.25 23.65 92.35 23.1 91.95 22.55 L94.7 22.4 102.5 21.2 M198.2 12.25 Q198.0 14.5 197.7 14.9 197.25 15.55 196.1 15.85 L194.2 16.3 Q185.15 20.05 182.8 17.1 L191.15 14.75 Q195.65 13.05 198.0 9.65 L198.25 11.15 198.2 12.2 195.25 13.65 192.75 14.35 190.25 15.15 191.8 15.15 193.3 15.05 Q194.6 14.8 196.15 13.65 197.45 12.7 198.2 12.25 M40.55 65.05 Q41.5 67.4 38.95 68.35 L34.5 68.75 Q31.85 68.35 29.25 66.75 26.75 65.2 28.55 64.05 30.1 63.05 33.8 62.85 39.5 62.5 40.55 65.05 M43.35 67.95 Q44.75 67.05 46.5 67.1 52.2 67.45 51.55 69.0 51.1 70.1 48.2 71.25 46.45 71.9 44.6 71.3 42.95 70.75 42.45 69.75 42.0 68.9 43.35 67.95 M42.05 20.3 Q45.9 21.05 46.75 21.6 47.85 22.3 45.3 23.15 42.95 23.95 39.7 23.85 L33.1 23.5 Q31.35 23.45 31.75 22.75 32.1 22.15 33.9 21.45 38.6 19.55 42.05 20.3 M41.45 43.5 Q44.3 41.7 48.2 42.35 54.15 43.35 53.65 45.05 53.35 46.0 51.2 47.0 50.05 47.55 47.6 47.5 44.55 47.5 41.75 46.45 38.6 45.3 41.45 43.5 M61.05 36.25 Q59.7 37.0 55.8 36.75 L47.65 36.0 Q43.7 35.65 46.6 34.05 48.85 32.8 53.1 31.65 57.2 30.55 60.1 32.95 62.95 35.25 61.05 36.25 M150.55 28.6 Q151.9 28.75 152.7 29.7 153.65 30.85 152.5 31.95 151.35 33.0 148.25 32.95 L143.65 32.65 139.55 32.9 135.75 33.9 130.6 34.75 125.4 34.2 Q124.2 33.85 120.8 31.95 118.1 30.4 115.95 30.4 L113.2 30.45 Q111.7 30.35 110.7 29.65 L109.1 27.85 Q108.25 26.8 107.05 26.7 L109.6 26.1 112.2 25.65 Q113.05 25.6 114.2 26.15 L116.0 26.65 116.25 26.9 Q118.2 28.0 121.6 28.2 L127.35 28.15 131.9 28.4 136.45 28.65 140.8 27.9 144.95 27.15 145.3 27.15 144.1 27.75 Q141.5 29.15 139.55 29.45 L133.0 30.15 125.95 29.8 119.0 29.15 Q122.25 31.25 127.65 31.3 L136.75 31.2 Q143.8 31.55 145.45 31.3 149.35 30.8 150.55 28.6 M150.05 25.95 L151.45 25.85 Q151.65 26.8 151.35 27.5 L150.6 28.4 Q151.05 27.45 151.0 26.15 L150.05 25.95 M103.0 22.9 L101.25 22.15 98.55 22.45 Q96.6 22.8 97.45 23.8 98.2 24.65 100.45 24.4 102.8 24.1 103.0 22.9 M98.2 42.45 L102.85 42.35 Q106.7 43.2 106.85 44.15 107.0 44.9 104.95 45.55 L100.35 45.7 Q97.35 45.2 96.65 44.15 96.0 43.05 98.2 42.45 M81.75 25.65 L81.5 25.65 Q81.75 27.0 84.5 27.2 L88.5 27.15 88.3 26.05 92.25 26.15 93.75 27.4 Q92.15 28.85 89.9 29.2 L85.5 29.35 Q82.5 29.35 79.05 28.3 74.7 26.9 74.25 24.65 L81.75 25.65 M79.15 54.25 Q78.15 53.1 80.25 51.4 82.4 49.65 84.85 50.25 89.0 51.3 89.35 52.95 89.7 54.35 87.35 55.35 85.45 56.2 82.7 55.75 80.05 55.35 79.15 54.25 M85.7 68.35 Q87.05 67.3 89.35 67.2 96.35 67.05 96.25 68.45 96.2 69.35 93.9 70.4 L89.95 70.85 Q87.1 70.75 85.7 70.1 84.3 69.4 85.7 68.35 M166.15 22.15 L172.0 19.15 175.5 18.9 178.15 18.85 Q179.65 19.0 179.5 20.4 179.35 21.9 177.05 22.4 L173.45 23.05 Q169.4 24.8 166.2 25.3 L158.5 24.8 Q159.15 24.3 160.85 23.9 L163.5 23.2 165.4 22.45 165.0 22.8 Q167.45 23.85 171.45 23.2 175.9 22.5 176.5 20.15 L173.0 19.4 Q171.8 19.3 170.7 20.1 L168.75 21.55 166.7 22.0 166.15 22.15 M188.6 86.85 Q191.65 85.4 196.15 86.55 198.7 87.25 198.15 89.8 197.7 92.2 195.8 92.85 L190.9 93.15 Q187.55 92.65 186.65 90.6 185.65 88.25 188.6 86.85 M173.2 68.35 Q170.4 67.05 173.45 65.8 176.4 64.6 180.4 64.9 183.95 65.2 184.25 66.65 184.5 68.05 181.75 69.5 179.4 70.75 177.65 70.3 L173.2 68.35 M183.75 35.4 Q179.8 34.6 181.95 33.8 183.8 33.15 187.6 33.0 195.7 32.8 195.55 34.15 195.5 34.6 193.25 35.95 191.7 36.95 183.75 35.4 M189.35 20.25 Q189.7 20.65 188.4 21.2 185.1 22.65 181.9 22.05 178.9 21.5 180.85 20.75 182.75 20.0 186.65 19.9 L189.35 20.25 M133.6 52.35 Q132.9 51.65 134.15 50.7 135.5 49.65 137.4 50.0 139.2 50.35 139.95 51.8 140.6 53.1 139.85 53.8 L136.7 53.7 Q134.3 53.05 133.6 52.35 M138.45 33.45 L146.5 33.1 Q149.35 33.45 153.2 35.9 157.2 38.45 155.05 39.4 L149.8 39.55 140.3 36.45 Q134.45 34.5 138.45 33.45 M140.9 42.0 Q139.8 42.85 138.25 42.9 L132.85 42.55 126.95 41.15 Q123.3 40.25 126.85 38.95 130.35 37.6 136.1 37.6 141.95 37.6 141.95 40.2 141.95 41.2 140.9 42.0 M166.2 114.3 Q164.75 115.1 162.6 115.6 159.65 116.25 157.65 115.5 154.9 114.4 155.05 112.6 155.2 110.55 160.15 110.55 163.4 110.55 165.45 112.15 167.35 113.65 166.2 114.3 M177.95 117.05 Q179.95 117.6 180.2 118.95 180.4 120.15 179.15 120.95 177.7 121.9 174.9 121.75 171.3 121.55 169.15 120.0 166.85 118.25 171.15 117.3 L177.95 117.05 M117.95 77.3 Q121.5 77.6 121.8 79.05 122.05 80.45 119.3 81.9 116.95 83.15 115.2 82.75 L110.75 80.8 Q107.95 79.5 111.0 78.2 113.95 77.0 117.95 77.3 M122.85 76.15 Q121.25 75.25 122.6 74.7 L125.65 74.1 Q128.15 73.75 130.4 74.9 132.7 76.1 131.15 77.15 129.7 78.15 127.15 77.7 125.1 77.35 122.85 76.15 M151.3 122.1 Q151.25 119.85 158.3 120.15 163.65 120.35 165.95 122.2 168.05 123.9 166.25 125.3 164.05 127.0 162.1 127.4 159.2 128.0 155.8 126.3 151.3 124.0 151.3 122.1 M76.35 71.55 Q79.45 71.15 82.3 72.95 84.85 74.65 84.6 76.15 84.4 77.4 81.3 77.85 78.2 78.3 74.65 77.7 70.85 77.05 71.1 74.7 71.35 72.25 76.35 71.55 M101.35 92.55 Q103.8 91.3 107.75 91.8 109.95 92.1 110.9 94.15 111.9 96.2 110.6 96.95 L106.45 97.15 Q103.45 96.65 101.2 95.25 98.95 93.85 101.35 92.55 M107.05 113.45 Q109.8 114.0 111.6 115.55 113.5 117.25 111.1 117.9 L104.25 118.45 Q99.95 118.3 98.5 117.25 96.85 116.05 100.1 114.4 103.4 112.75 107.05 113.45 M47.85 110.9 Q49.75 110.95 51.25 112.2 52.75 113.35 51.9 113.95 51.15 114.55 48.1 114.85 L43.35 114.75 Q41.4 114.2 42.7 112.55 44.1 110.8 47.85 110.9 M38.3 118.2 Q37.8 119.2 36.15 119.75 34.3 120.35 32.55 119.7 29.65 118.6 29.2 117.45 28.55 115.9 34.25 115.6 36.0 115.5 37.4 116.4 38.75 117.3 38.3 118.2 M40.6 95.5 Q38.9 97.2 36.6 97.35 34.65 97.45 29.95 96.4 25.75 95.5 27.1 92.95 28.4 90.45 32.0 90.55 36.0 90.7 39.0 92.15 42.3 93.8 40.6 95.5 M59.15 127.15 Q60.55 125.4 64.3 125.55 66.2 125.6 67.7 126.85 69.2 128.0 68.35 128.6 67.55 129.2 64.55 129.5 L59.8 129.35 Q57.8 128.85 59.15 127.15 M45.35 123.65 L41.2 123.45 Q39.9 122.7 40.85 120.65 41.85 118.6 44.05 118.3 48.0 117.8 50.4 119.05 52.85 120.35 50.55 121.75 48.3 123.15 45.35 123.65 M101.2 133.9 Q98.7 137.3 92.8 135.65 90.45 134.95 90.8 132.9 91.15 130.8 93.55 130.25 97.8 129.25 100.3 130.6 102.7 131.85 101.2 133.9 M84.0 125.9 Q86.05 126.15 88.2 127.3 90.45 128.55 89.65 129.25 88.55 130.2 85.8 130.45 82.6 130.75 80.7 129.5 78.6 128.15 79.9 126.85 81.15 125.5 84.0 125.9 M23.35 16.65 Q20.75 16.65 24.25 14.95 27.6 13.3 30.3 14.0 32.75 14.65 33.4 15.5 34.05 16.35 32.55 17.0 L28.35 17.15 23.35 16.65 M18.85 87.15 Q20.3 85.2 23.9 85.15 27.7 85.1 31.55 86.5 35.3 87.9 33.7 88.3 L28.3 89.65 20.8 89.85 Q17.35 89.1 18.85 87.15 M16.0 90.9 Q19.55 91.2 19.85 92.65 20.1 94.05 17.35 95.5 15.0 96.75 13.25 96.3 L8.8 94.35 Q5.95 93.05 9.05 91.8 12.0 90.6 16.0 90.9 M18.95 41.75 Q18.85 42.65 16.55 43.7 L12.65 44.15 Q9.8 44.05 8.4 43.4 6.95 42.7 8.35 41.65 9.75 40.6 12.05 40.5 19.05 40.35 18.95 41.75" fill="#645622" fill-rule="evenodd" stroke="none"/>
    </g>
  </defs>
</svg>
