<?xml version="1.0" encoding="UTF-8" standalone="no"?>
<svg xmlns:xlink="http://www.w3.org/1999/xlink" height="46.6px" width="39.75px" xmlns="http://www.w3.org/2000/svg">
  <g transform="matrix(1.0, 0.0, 0.0, 1.0, 0.0, 0.0)">
    <use height="46.6" transform="matrix(1.0, 0.0, 0.0, 1.0, 0.0, 0.0)" width="39.75" xlink:href="#shape0"/>
  </g>
  <defs>
    <g id="shape0" transform="matrix(1.0, 0.0, 0.0, 1.0, 0.0, 0.0)">
      <path d="M36.95 9.8 L2.95 8.55 3.05 7.2 3.1 6.3 Q3.4 5.35 4.25 4.85 5.2 4.35 6.65 4.5 L7.9 4.7 8.05 4.2 Q8.35 3.6 9.0 3.4 L11.75 3.05 Q11.8 2.65 12.2 2.25 12.9 1.45 14.45 1.2 L18.65 1.05 19.3 0.5 Q20.1 -0.1 21.0 0.0 22.3 0.15 24.1 2.3 L24.9 2.0 26.8 1.95 Q28.1 2.15 28.75 4.0 L31.65 4.0 Q32.8 4.15 33.45 5.8 L34.15 5.8 35.65 6.3 Q36.8 7.05 36.95 9.8" fill="#9c9797" fill-rule="evenodd" stroke="none"/>
      <path d="M22.2 30.15 L22.2 15.9 22.7 15.9 22.8 23.4 Q22.95 28.05 22.2 30.15" fill="#e79d9c" fill-rule="evenodd" stroke="none"/>
      <path d="M25.5 18.1 L25.55 21.15 Q25.65 23.1 24.9 23.55 L24.9 20.45 Q24.75 18.5 25.5 18.1" fill="#e79d9c" fill-rule="evenodd" stroke="none"/>
      <path d="M24.45 35.0 L24.4 38.85 23.5 40.25 Q23.1 40.9 22.2 39.95 L22.2 32.3 23.25 32.25 23.8 31.75 Q24.6 32.55 24.45 35.0" fill="#d52d37" fill-rule="evenodd" stroke="none"/>
      <path d="M24.9 38.85 Q25.85 38.35 26.0 36.7 26.5 36.7 26.65 37.5 26.7 38.25 27.1 38.35 L27.1 39.95 25.5 41.6 Q24.75 41.7 24.85 40.6 L24.9 38.85" fill="#dcd5d2" fill-rule="evenodd" stroke="none"/>
      <path d="M9.8 5.45 L7.95 5.5 Q7.55 4.35 8.9 3.9 10.35 3.45 10.75 4.4 10.65 5.2 9.8 5.45" fill="#9c9797" fill-rule="evenodd" stroke="none"/>
      <path d="M31.8 5.45 Q31.75 6.5 32.0 7.2 L31.65 7.9 Q31.35 8.25 31.5 8.8 L30.55 8.4 Q30.15 8.2 29.85 8.8 29.5 8.7 29.05 8.2 28.6 7.75 28.15 7.7 28.3 7.2 28.75 7.25 29.25 7.25 29.35 7.7 L29.85 7.1 Q30.05 6.6 30.4 6.6 29.6 5.95 29.55 5.7 29.35 5.3 30.4 4.95 30.95 5.05 30.95 4.4 31.9 4.85 31.8 5.45" fill="#f2db8b" fill-rule="evenodd" stroke="none"/>
      <path d="M17.8 2.75 Q18.6 3.55 18.15 5.0 L17.25 7.2 Q16.25 7.05 16.45 6.3 16.7 5.6 16.2 5.5 L16.2 4.4 Q14.65 4.25 14.5 4.95 13.15 6.0 10.95 6.3 L7.95 6.6 7.4 6.6 7.4 5.5 7.95 5.5 9.8 5.45 Q10.65 5.2 10.75 4.4 11.15 3.4 13.7 3.35 16.6 3.25 17.25 2.75 L17.8 2.75" fill="#f2db8b" fill-rule="evenodd" stroke="none"/>
      <path d="M24.9 3.85 L26.0 3.9 26.55 4.4 Q26.35 5.2 27.15 5.8 27.9 6.3 27.65 7.2 26.7 7.25 26.45 6.5 L26.0 4.95 24.05 5.7 21.65 5.5 22.95 7.2 Q23.45 8.05 22.2 8.8 22.45 9.5 23.15 8.8 24.05 7.75 24.9 8.25 25.25 9.35 24.4 9.85 23.65 10.3 24.4 10.95 25.65 11.05 26.0 9.85 26.35 9.85 26.7 10.5 27.0 11.1 27.65 10.95 L27.35 11.85 Q27.25 12.2 27.65 12.65 28.1 12.55 28.3 11.9 L28.75 10.95 Q29.2 10.95 29.7 11.7 30.15 12.25 30.95 12.05 L30.65 12.55 30.4 13.15 27.75 13.65 Q26.5 14.15 25.5 15.3 25.4 14.75 24.3 15.15 L22.7 15.9 21.65 15.9 Q21.55 15.0 22.2 14.8 L21.25 13.85 Q20.85 13.15 21.1 12.05 20.2 11.75 19.65 12.65 19.4 13.0 19.6 13.15 18.65 13.35 18.15 14.35 17.25 15.95 18.95 16.5 L18.15 17.05 Q17.7 17.4 17.8 18.1 L17.05 18.65 16.2 19.15 15.0 18.1 Q14.45 17.4 14.5 16.5 14.0 17.0 13.4 17.0 12.7 17.2 12.9 18.1 11.75 17.7 11.8 16.5 L11.8 15.9 Q11.25 15.3 11.25 14.8 11.95 14.6 12.2 15.25 L12.35 16.5 Q13.2 15.55 14.75 15.7 15.95 15.8 16.2 14.8 17.05 15.0 16.6 15.7 15.95 16.55 16.2 17.0 17.55 16.75 17.55 15.9 17.25 14.6 17.25 13.7 16.75 14.15 16.45 14.0 16.1 13.85 16.2 13.15 L17.25 13.15 Q17.35 12.25 16.75 11.75 L15.6 10.95 Q15.65 10.5 16.2 10.15 L16.7 9.35 Q17.7 9.95 19.8 9.7 L21.65 9.95 Q20.9 9.05 21.1 7.85 21.5 5.95 20.55 4.95 19.8 5.15 20.05 6.0 19.1 5.65 19.15 5.0 19.25 4.0 18.95 3.35 19.9 4.5 20.9 4.2 L23.3 3.35 23.0 4.15 23.9 4.2 Q24.7 4.65 24.9 3.85" fill="#f2db8b" fill-rule="evenodd" stroke="none"/>
      <path d="M24.9 3.85 Q24.7 4.65 23.9 4.2 L23.0 4.15 23.3 3.35 20.9 4.2 Q19.9 4.5 18.95 3.35 19.25 4.0 19.15 5.0 19.1 5.65 20.05 6.0 19.8 5.15 20.55 4.95 21.5 5.95 21.1 7.85 20.9 9.05 21.65 9.95 L19.8 9.7 Q17.7 9.95 16.7 9.35 L16.2 10.15 Q15.65 10.5 15.6 10.95 L16.75 11.75 Q17.35 12.25 17.25 13.15 L16.2 13.15 Q16.2 12.85 15.8 12.7 L15.1 12.65 15.1 10.45 15.6 10.45 Q15.55 10.0 14.5 9.6 13.7 9.3 14.0 8.25 11.1 10.15 10.15 12.05 L8.85 11.15 6.9 10.95 Q7.4 11.6 8.5 12.05 8.5 12.4 8.1 12.5 L7.4 12.65 Q7.4 12.35 7.05 12.2 L6.3 12.05 Q6.8 10.3 6.3 9.6 L4.7 7.7 Q4.7 6.9 5.85 6.8 7.15 6.65 7.4 5.5 L7.4 6.6 Q6.9 7.4 6.9 8.25 7.9 10.45 8.65 9.3 9.3 8.1 7.95 6.6 L10.95 6.3 Q13.15 6.0 14.5 4.95 15.95 5.35 15.1 5.6 L13.4 6.0 Q13.55 6.95 15.0 6.65 16.4 6.3 16.2 5.5 16.7 5.6 16.45 6.3 16.25 7.05 17.25 7.2 L18.15 5.0 Q18.6 3.55 17.8 2.75 L17.25 2.75 17.25 1.65 Q21.05 2.3 23.3 1.65 23.8 1.75 23.95 2.9 24.1 4.0 24.9 3.85" fill="#f9eebc" fill-rule="evenodd" stroke="none"/>
      <path d="M30.4 4.95 Q29.35 5.3 29.55 5.7 29.6 5.95 30.4 6.6 30.05 6.6 29.85 7.1 L29.35 7.7 Q29.25 7.25 28.75 7.25 28.3 7.2 28.15 7.7 28.6 7.75 29.05 8.2 29.5 8.7 29.85 8.8 30.05 9.45 30.95 9.35 30.4 10.45 28.95 10.15 27.8 9.85 27.65 10.95 27.0 11.1 26.7 10.5 26.35 9.85 26.0 9.85 25.65 11.05 24.4 10.95 23.65 10.3 24.4 9.85 25.25 9.35 24.9 8.25 24.05 7.75 23.15 8.8 22.45 9.5 22.2 8.8 23.45 8.05 22.95 7.2 L21.65 5.5 24.05 5.7 26.0 4.95 26.45 6.5 Q26.7 7.25 27.65 7.2 27.9 6.3 27.15 5.8 26.35 5.2 26.55 4.4 L28.55 4.55 Q29.75 4.2 30.4 4.95" fill="#f9eebc" fill-rule="evenodd" stroke="none"/>
      <path d="M35.85 8.8 L35.85 10.45 Q35.45 10.45 34.95 11.1 34.5 11.75 33.7 11.55 33.7 10.15 32.75 10.95 31.35 12.1 30.95 12.05 30.15 12.25 29.7 11.7 29.2 10.95 28.75 10.95 L28.3 11.9 Q28.1 12.55 27.65 12.65 27.25 12.2 27.35 11.85 L27.65 10.95 Q27.8 9.85 28.95 10.15 30.4 10.45 30.95 9.35 30.05 9.45 29.85 8.8 30.15 8.2 30.55 8.4 L31.5 8.8 Q31.35 8.25 31.65 7.9 L32.0 7.2 Q32.45 7.05 32.6 7.7 L31.2 9.65 29.85 11.55 Q31.95 11.45 32.0 9.35 32.9 9.95 33.7 9.85 33.75 9.45 33.4 8.8 33.1 8.2 33.1 7.7 L34.8 7.55 35.85 8.8" fill="#dcba5d" fill-rule="evenodd" stroke="none"/>
      <path d="M6.3 12.05 Q5.15 10.5 4.7 8.8 L3.75 9.2 Q3.1 9.45 3.05 9.85 2.25 9.8 2.45 8.55 2.65 7.55 3.05 7.2 L4.7 7.7 6.3 9.6 Q6.8 10.3 6.3 12.05" fill="#dcba5d" fill-rule="evenodd" stroke="none"/>
      <path d="M7.95 6.6 Q9.3 8.1 8.65 9.3 7.9 10.45 6.9 8.25 6.9 7.4 7.4 6.6 L7.95 6.6" fill="#fefffd" fill-rule="evenodd" stroke="none"/>
      <path d="M1.6 14.6 Q2.9 18.95 3.05 21.35 3.75 21.2 3.6 20.25 4.05 20.35 4.1 20.9 L4.1 21.95 Q3.2 22.35 3.9 24.1 4.65 25.9 3.6 26.3 3.45 24.3 1.15 16.5 -0.65 10.45 0.35 7.7 0.4 10.45 1.6 14.6" fill="#9c9797" fill-rule="evenodd" stroke="none"/>
      <path d="M33.1 7.7 Q33.1 8.2 33.4 8.8 33.75 9.45 33.7 9.85 32.9 9.95 32.0 9.35 31.95 11.45 29.85 11.55 L31.2 9.65 32.6 7.7 33.1 7.7" fill="#f2db8b" fill-rule="evenodd" stroke="none"/>
      <path d="M12.9 10.45 L10.75 13.15 Q9.85 12.55 9.05 12.65 9.15 11.9 8.85 11.75 8.55 11.55 8.5 12.05 7.4 11.6 6.9 10.95 L8.85 11.15 10.15 12.05 Q11.1 10.15 14.0 8.25 13.7 9.3 14.5 9.6 15.55 10.0 15.6 10.45 L15.1 10.45 Q14.2 11.55 14.2 12.7 14.3 14.0 15.6 14.25 14.35 15.45 13.35 13.95 12.4 12.4 12.9 10.45" fill="#f2db8b" fill-rule="evenodd" stroke="none"/>
      <path d="M3.05 7.2 Q2.65 7.55 2.45 8.55 2.25 9.8 3.05 9.85 3.1 9.45 3.75 9.2 L4.7 8.8 Q5.15 10.5 6.3 12.05 L7.05 12.2 Q7.4 12.35 7.4 12.65 5.5 14.0 7.3 21.8 9.65 31.95 9.65 33.9 L9.65 36.45 Q9.5 37.7 8.5 36.7 L6.0 23.4 Q4.5 15.45 3.05 10.45 1.35 11.55 2.65 15.4 4.05 19.55 3.6 20.25 3.75 21.2 3.05 21.35 2.9 18.95 1.6 14.6 0.4 10.45 0.35 7.7 L0.7 7.3 0.85 6.6 2.25 6.6 Q2.95 6.65 3.05 7.2" fill="#b5b7b5" fill-rule="evenodd" stroke="none"/>
      <path d="M4.1 21.95 L7.95 38.85 Q7.85 39.85 7.15 39.0 6.5 38.05 6.9 37.25 L6.5 37.5 6.1 37.75 6.1 36.95 Q6.6 36.4 5.85 36.75 5.35 37.05 5.8 36.7 5.65 34.55 4.8 31.35 3.75 28.05 3.6 26.3 4.65 25.9 3.9 24.1 3.2 22.35 4.1 21.95" fill="#b5b7b5" fill-rule="evenodd" stroke="none"/>
      <path d="M9.65 36.45 L9.65 33.9 Q10.5 35.9 11.25 41.6 10.0 42.0 9.8 40.65 9.5 39.0 9.05 38.85 9.15 38.4 8.75 37.75 L8.5 36.7 Q9.5 37.7 9.65 36.45" fill="#9c9797" fill-rule="evenodd" stroke="none"/>
      <path d="M9.05 15.3 Q8.9 14.65 8.35 13.95 L7.4 12.65 8.1 12.5 Q8.5 12.4 8.5 12.05 8.55 11.55 8.85 11.75 9.15 11.9 9.05 12.65 8.5 14.0 9.7 14.15 11.15 14.35 11.25 14.8 11.25 15.3 11.8 15.9 L10.5 14.95 Q9.8 14.6 9.05 15.3" fill="#dcd5d2" fill-rule="evenodd" stroke="none"/>
      <path d="M36.95 10.95 Q35.8 15.1 34.2 24.1 33.6 29.4 32.6 31.75 L31.9 31.9 Q31.5 31.95 31.5 32.3 31.0 32.25 30.95 31.5 L30.95 30.15 30.95 28.45 Q32.9 19.3 33.1 13.15 33.55 13.05 33.6 12.55 L33.7 11.55 Q34.5 11.75 34.95 11.1 35.45 10.45 35.85 10.45 L35.85 8.8 Q36.75 7.4 37.85 8.25 38.9 9.05 39.15 8.8 40.0 9.35 39.65 11.1 39.3 12.55 38.55 13.15 L38.55 10.45 37.55 10.5 Q37.05 10.5 36.95 10.95" fill="#f2f3f1" fill-rule="evenodd" stroke="none"/>
      <path d="M32.4 33.7 Q32.8 32.75 32.6 31.75 33.6 29.4 34.2 24.1 36.25 22.5 37.35 17.95 38.4 13.15 36.95 10.95 37.05 10.5 37.55 10.5 L38.55 10.45 38.55 13.15 35.95 25.85 33.1 38.35 Q32.7 38.2 32.7 36.9 32.6 35.65 32.0 35.6 31.9 34.8 32.4 33.7" fill="#d52d37" fill-rule="evenodd" stroke="none"/>
      <path d="M36.95 10.95 Q38.4 13.15 37.35 17.95 36.25 22.5 34.2 24.1 35.8 15.1 36.95 10.95" fill="#e76d73" fill-rule="evenodd" stroke="none"/>
      <path d="M30.15 13.85 L30.4 13.15 30.65 12.55 30.95 12.05 Q31.35 12.1 32.75 10.95 33.7 10.15 33.7 11.55 L33.6 12.55 Q33.55 13.05 33.1 13.15 L33.1 12.05 Q32.1 12.1 31.45 12.85 L30.4 14.25 Q30.0 14.1 30.15 13.85" fill="#f9eebc" fill-rule="evenodd" stroke="none"/>
      <path d="M25.5 15.3 Q26.5 14.15 27.75 13.65 L30.4 13.15 30.15 13.85 Q30.0 14.1 30.4 14.25 28.8 22.3 28.75 28.45 L28.3 30.0 Q27.95 30.8 28.15 31.75 L27.8 35.2 Q27.65 37.4 27.1 38.35 26.7 38.25 26.65 37.5 26.5 36.7 26.0 36.7 25.85 38.35 24.9 38.85 L24.9 23.55 Q25.65 23.1 25.55 21.15 L25.5 18.1 25.5 16.7 Q25.4 15.95 24.9 15.9 24.85 15.45 25.5 15.3" fill="#f2f3f1" fill-rule="evenodd" stroke="none"/>
      <path d="M28.75 28.45 Q29.5 28.85 30.2 27.9 30.7 27.15 30.95 27.95 30.55 28.05 30.15 29.05 29.75 29.85 28.75 29.55 29.35 30.15 29.25 30.85 29.1 31.65 28.15 31.75 27.95 30.8 28.3 30.0 L28.75 28.45" fill="#d52d37" fill-rule="evenodd" stroke="none"/>
      <path d="M30.4 14.25 L31.45 12.85 Q32.1 12.1 33.1 12.05 L33.1 13.15 Q32.9 19.3 30.95 28.45 L30.95 27.95 Q30.7 27.15 30.2 27.9 29.5 28.85 28.75 28.45 28.8 22.3 30.4 14.25" fill="#e76d73" fill-rule="evenodd" stroke="none"/>
      <path d="M11.8 16.5 Q11.1 17.0 11.6 18.75 12.2 20.85 11.8 21.95 L11.55 23.8 Q11.15 24.7 10.15 24.6 10.15 22.85 9.05 15.3 9.8 14.6 10.5 14.95 L11.8 15.9 11.8 16.5" fill="#b5b7b5" fill-rule="evenodd" stroke="none"/>
      <path d="M25.5 18.1 Q24.75 18.5 24.9 20.45 L24.9 23.55 24.9 38.85 24.4 38.85 24.45 35.0 Q24.6 32.55 23.8 31.75 L23.25 32.25 22.2 32.3 22.2 30.15 Q22.95 28.05 22.8 23.4 L22.7 15.9 24.3 15.15 Q25.4 14.75 25.5 15.3 24.85 15.45 24.9 15.9 25.4 15.95 25.5 16.7 L25.5 18.1" fill="#e76d73" fill-rule="evenodd" stroke="none"/>
      <path d="M18.95 16.5 Q19.5 16.85 20.05 18.1 20.7 18.0 21.05 17.2 L21.65 15.9 22.2 15.9 22.2 35.0 Q21.5 34.95 21.55 36.1 L21.65 37.75 Q21.2 37.7 21.2 37.2 L21.1 36.1 Q20.7 36.15 20.6 36.75 L20.55 37.75 Q19.8 37.75 20.05 35.9 20.25 34.0 19.45 33.9 L19.45 32.85 Q19.45 24.45 18.35 18.65 18.45 18.2 17.8 18.1 17.7 17.4 18.15 17.05 L18.95 16.5" fill="#f2f3f1" fill-rule="evenodd" stroke="none"/>
      <path d="M21.25 13.85 L22.2 14.8 Q21.55 15.0 21.65 15.9 L21.05 17.2 Q20.7 18.0 20.05 18.1 19.5 16.85 18.95 16.5 17.25 15.95 18.15 14.35 18.65 13.35 19.6 13.15 19.4 13.0 19.65 12.65 20.2 11.75 21.1 12.05 20.85 13.15 21.25 13.85" fill="#dcba5d" fill-rule="evenodd" stroke="none"/>
      <path d="M16.2 19.15 L17.05 18.65 17.8 18.1 Q18.45 18.2 18.35 18.65 16.1 20.05 16.55 26.8 17.0 33.55 19.45 32.85 L19.45 33.9 Q19.3 38.25 20.05 39.95 L20.05 42.7 Q18.3 42.85 17.8 43.8 16.25 32.1 16.2 20.25 L16.2 19.15" fill="#d52d37" fill-rule="evenodd" stroke="none"/>
      <path d="M13.4 17.0 Q14.0 17.0 14.5 16.5 14.45 17.4 15.0 18.1 L16.2 19.15 16.2 20.25 Q15.4 20.85 15.25 23.15 15.1 25.65 14.5 26.3 13.85 25.25 14.0 21.65 14.15 18.1 13.4 17.0" fill="#9c9797" fill-rule="evenodd" stroke="none"/>
      <path d="M13.3 37.05 Q12.85 36.0 13.4 36.1 14.6 39.8 14.5 43.8 13.85 43.85 13.5 43.45 L12.9 42.7 12.5 40.4 Q12.1 39.0 12.35 37.75 13.7 38.05 13.3 37.05" fill="#7f7576" fill-rule="evenodd" stroke="none"/>
      <path d="M30.95 30.15 L30.95 31.5 Q31.0 32.25 31.5 32.3 31.5 31.95 31.9 31.9 L32.6 31.75 Q32.8 32.75 32.4 33.7 31.9 34.8 32.0 35.6 L31.45 37.9 Q31.15 39.5 32.0 39.95 31.9 40.75 30.7 41.1 L28.75 41.6 Q29.7 40.1 30.0 36.0 30.35 31.6 30.95 30.15" fill="#dcd5d2" fill-rule="evenodd" stroke="none"/>
      <path d="M30.95 30.15 Q30.35 31.6 30.0 36.0 29.7 40.1 28.75 41.6 28.15 42.15 27.65 42.15 27.15 42.05 27.1 41.35 L27.1 39.95 27.1 38.35 Q27.65 37.4 27.8 35.2 L28.15 31.75 Q29.1 31.65 29.25 30.85 29.35 30.15 28.75 29.55 29.75 29.85 30.15 29.05 30.55 28.05 30.95 27.95 L30.95 30.15" fill="#a90d14" fill-rule="evenodd" stroke="none"/>
      <path d="M32.0 39.95 Q31.15 39.5 31.45 37.9 L32.0 35.6 Q32.6 35.65 32.7 36.9 32.7 38.2 33.1 38.35 33.45 40.0 32.0 39.95" fill="#a90d14" fill-rule="evenodd" stroke="none"/>
      <path d="M24.85 40.6 Q24.75 41.7 25.5 41.6 L27.1 39.95 27.1 41.35 Q27.15 42.05 27.65 42.15 27.75 42.55 27.1 42.7 26.2 42.65 26.0 43.2 25.5 43.15 25.1 43.45 L24.4 43.8 24.4 38.85 24.9 38.85 24.85 40.6" fill="#9c9797" fill-rule="evenodd" stroke="none"/>
      <path d="M6.9 37.25 L8.05 38.85 7.95 38.85 Q7.85 39.85 7.15 39.0 6.5 38.05 6.9 37.25" fill="#7f7576" fill-rule="evenodd" stroke="none"/>
      <path d="M16.2 5.5 Q16.4 6.3 15.0 6.65 13.55 6.95 13.4 6.0 L15.1 5.6 Q15.95 5.35 14.5 4.95 14.65 4.25 16.2 4.4 L16.2 5.5" fill="#fefffd" fill-rule="evenodd" stroke="none"/>
      <path d="M11.25 31.25 Q11.75 35.75 12.35 37.75 12.1 39.0 12.5 40.4 L12.9 42.7 Q12.25 42.8 11.9 42.35 L11.25 41.6 Q10.5 35.9 9.65 33.9 9.65 31.95 7.3 21.8 5.5 14.0 7.4 12.65 L8.35 13.95 Q8.9 14.65 9.05 15.3 10.15 22.85 10.15 24.6 L11.25 31.25" fill="#a90d14" fill-rule="evenodd" stroke="none"/>
      <path d="M15.1 12.65 L15.8 12.7 Q16.2 12.85 16.2 13.15 16.1 13.85 16.45 14.0 16.75 14.15 17.25 13.7 17.25 14.6 17.55 15.9 17.55 16.75 16.2 17.0 15.95 16.55 16.6 15.7 17.05 15.0 16.2 14.8 15.95 15.8 14.75 15.7 13.2 15.55 12.35 16.5 L12.2 15.25 Q11.95 14.6 11.25 14.8 11.15 14.35 9.7 14.15 8.5 14.0 9.05 12.65 9.85 12.55 10.75 13.15 L12.9 10.45 Q12.4 12.4 13.35 13.95 14.35 15.45 15.6 14.25 14.3 14.0 14.2 12.7 14.2 11.55 15.1 10.45 L15.1 12.65" fill="#dcba5d" fill-rule="evenodd" stroke="none"/>
      <path d="M13.4 17.0 Q14.15 18.1 14.0 21.65 13.85 25.25 14.5 26.3 14.45 29.65 15.1 35.8 15.75 41.85 15.6 45.4 L15.1 45.4 15.0 44.4 Q14.95 43.85 14.5 43.8 14.6 39.8 13.4 36.1 13.7 33.9 13.05 29.35 L11.8 21.95 Q12.2 20.85 11.6 18.75 11.1 17.0 11.8 16.5 11.75 17.7 12.9 18.1 12.7 17.2 13.4 17.0" fill="#a90d14" fill-rule="evenodd" stroke="none"/>
      <path d="M18.35 18.65 Q19.45 24.45 19.45 32.85 17.0 33.55 16.55 26.8 16.1 20.05 18.35 18.65" fill="#e76d73" fill-rule="evenodd" stroke="none"/>
      <path d="M10.15 24.6 Q11.15 24.7 11.55 23.8 L11.8 21.95 13.05 29.35 Q13.7 33.9 13.4 36.1 12.85 36.0 13.3 37.05 13.7 38.05 12.35 37.75 11.75 35.75 11.25 31.25 L10.15 24.6" fill="#9c9797" fill-rule="evenodd" stroke="none"/>
      <path d="M16.2 20.25 Q16.25 32.1 17.8 43.8 L17.8 46.0 18.95 46.0 18.95 46.5 17.15 46.4 15.6 46.0 15.6 45.4 Q15.75 41.85 15.1 35.8 14.45 29.65 14.5 26.3 15.1 25.65 15.25 23.15 15.4 20.85 16.2 20.25" fill="#7f7576" fill-rule="evenodd" stroke="none"/>
      <path d="M22.2 35.0 L22.2 38.85 21.4 39.75 Q21.0 40.3 20.05 39.95 19.3 38.25 19.45 33.9 20.25 34.0 20.05 35.9 19.8 37.75 20.55 37.75 L20.6 36.75 Q20.7 36.15 21.1 36.1 L21.2 37.2 Q21.2 37.7 21.65 37.75 L21.55 36.1 Q21.5 34.95 22.2 35.0" fill="#dcd5d2" fill-rule="evenodd" stroke="none"/>
      <path d="M24.4 38.85 L24.4 43.8 23.5 44.0 22.7 44.3 Q22.0 44.1 22.15 42.5 L22.2 39.95 Q23.1 40.9 23.5 40.25 L24.4 38.85" fill="#a90d14" fill-rule="evenodd" stroke="none"/>
      <path d="M22.2 39.95 L22.15 42.5 Q22.0 44.1 22.7 44.3 22.45 44.8 21.55 45.1 L20.05 45.4 20.05 39.95 Q21.0 40.3 21.4 39.75 L22.2 38.85 22.2 39.95" fill="#b5b7b5" fill-rule="evenodd" stroke="none"/>
      <path d="M8.9 39.65 L9.05 38.85 Q9.5 39.0 9.8 40.65 10.0 42.0 11.25 41.6 L11.9 42.35 Q12.25 42.8 12.9 42.7 L13.5 43.45 Q13.85 43.85 14.5 43.8 14.95 43.85 15.0 44.4 L15.1 45.4 Q14.0 45.7 13.35 44.95 12.55 44.25 11.8 44.3 L8.75 39.8 8.9 39.65" fill="#6e4242" fill-rule="evenodd" stroke="none"/>
      <path d="M3.6 20.25 Q4.05 19.55 2.65 15.4 1.35 11.55 3.05 10.45 4.5 15.45 6.0 23.4 L8.5 36.7 8.75 37.75 Q9.15 38.4 9.05 38.85 L8.9 39.65 Q8.7 40.0 8.5 39.45 8.5 38.8 7.95 38.85 L4.1 21.95 4.1 20.9 Q4.05 20.35 3.6 20.25" fill="#a90d14" fill-rule="evenodd" stroke="none"/>
      <path d="M8.4 37.9 Q8.4 39.0 9.65 39.0 10.1 39.0 10.9 40.3 11.95 42.05 12.75 42.85 13.7 43.8 14.6 43.65 L16.45 43.2 Q18.05 43.2 18.35 42.15 L22.6 43.2 26.55 43.2 18.2 46.5 Q14.5 45.55 13.3 44.75 L6.75 40.55 6.25 35.9 7.3 36.6 Q8.4 37.4 8.4 37.9" fill="#a90d14" fill-rule="evenodd" stroke="none"/>
      <path d="M20.4 6.1 L20.9 6.65 Q20.4 8.55 19.15 8.25 18.75 6.0 20.4 6.1" fill="#fefffd" fill-rule="evenodd" stroke="none"/>
      <path d="M21.85 2.65 L22.2 2.8 Q22.0 4.0 20.9 3.7 20.75 3.1 20.9 2.45 L21.85 2.65" fill="#fefffd" fill-rule="evenodd" stroke="none"/>
      <path d="M26.0 6.1 L26.55 6.45 Q27.25 7.4 26.5 7.9 25.75 8.5 24.9 7.55 24.1 6.6 24.55 6.25 L26.0 6.1" fill="#fefffd" fill-rule="evenodd" stroke="none"/>
      <path d="M29.25 8.25 L29.5 8.1 Q30.05 8.5 29.75 9.85 28.9 10.1 28.7 9.35 28.55 8.65 29.25 8.25" fill="#dcba5d" fill-rule="evenodd" stroke="none"/>
      <path d="M25.25 11.75 L25.5 11.75 Q26.2 12.05 26.2 12.85 26.2 13.55 25.75 14.25 23.75 14.5 23.8 13.05 23.8 11.6 25.25 11.75" fill="#dcba5d" fill-rule="evenodd" stroke="none"/>
      <path d="M21.5 7.75 L21.5 8.1 21.25 10.8 19.95 10.75 Q19.5 9.85 20.05 8.8 20.55 7.7 21.5 7.75" fill="#dcba5d" fill-rule="evenodd" stroke="none"/>
      <path d="M12.2 7.55 L12.75 7.9 13.05 7.55 Q13.2 7.4 13.65 7.55 L13.65 9.0 12.05 9.0 Q11.9 8.1 12.2 7.55" fill="#dcba5d" fill-rule="evenodd" stroke="none"/>
      <path d="M20.75 1.35 L20.75 0.85 Q21.25 0.8 21.5 1.2 L21.5 2.15 Q21.2 2.95 19.8 3.1 18.0 3.2 18.6 1.85 19.25 0.65 20.75 1.35" fill="#fefffd" fill-rule="evenodd" stroke="none"/>
      <path d="M11.45 5.05 L11.55 5.05 Q12.25 5.45 12.1 6.4 11.9 7.3 11.1 7.4 9.45 7.45 10.0 5.8 10.6 4.05 11.45 5.05" fill="#fefffd" fill-rule="evenodd" stroke="none"/>
      <path d="M29.2 4.65 L29.55 4.35 Q30.3 4.25 30.15 5.05 30.0 5.8 29.35 5.95 28.55 6.0 28.4 5.2 28.3 4.4 29.2 4.65" fill="#fefffd" fill-rule="evenodd" stroke="none"/>
      <path d="M22.8 10.9 L22.3 10.9 Q22.85 11.4 22.5 12.5 22.05 13.65 21.25 13.0 20.9 12.7 20.85 11.75 20.75 10.8 21.1 10.45 21.55 10.0 22.2 10.15 22.85 10.25 22.8 10.9" fill="#fefffd" fill-rule="evenodd" stroke="none"/>
    </g>
  </defs>
</svg>
