<?xml version="1.0" encoding="UTF-8" standalone="no"?>
<svg xmlns:xlink="http://www.w3.org/1999/xlink" height="457.35px" width="35.6px" xmlns="http://www.w3.org/2000/svg">
  <g transform="matrix(1.0, 0.0, 0.0, 1.0, 0.0, 0.0)">
    <use height="457.35" transform="matrix(1.0, 0.0, 0.0, 1.0, 0.0, 0.0)" width="35.6" xlink:href="#shape0"/>
  </g>
  <defs>
    <g id="shape0" transform="matrix(1.0, 0.0, 0.0, 1.0, 0.0, 0.0)">
      <path d="M5.7 1.1 L10.3 0.9 Q11.8 0.9 11.8 2.3 L12.2 13.7 24.3 105.9 24.7 112.4 25.0 118.8 21.6 173.6 16.3 228.5 16.4 258.7 24.6 356.6 25.4 397.2 24.7 448.8 Q24.7 450.1 23.3 450.1 L18.7 450.2 Q18.1 450.3 17.7 449.9 17.2 449.5 17.2 449.0 L18.0 381.8 12.6 303.4 8.8 228.8 17.6 125.4 16.2 99.6 6.1 29.0 4.3 2.5 Q4.3 1.1 5.7 1.1" fill="#6c531f" fill-rule="evenodd" stroke="none"/>
      <path d="M24.0 70.5 Q24.4 71.9 23.4 72.3 L9.1 76.0 Q8.2 76.3 7.6 74.8 L6.2 69.2 Q5.8 67.6 6.8 67.4 L21.1 63.6 Q22.2 63.4 22.5 64.9 L24.0 70.5" fill="#5e541b" fill-rule="evenodd" stroke="none"/>
      <path d="M24.1 72.5 L23.2 77.6 22.7 78.5 21.9 78.4 6.9 69.2 Q5.9 68.7 6.1 67.2 L7.0 62.0 Q7.2 60.6 8.3 61.2 L23.3 70.4 Q24.3 71.1 24.1 72.5" fill="#4a4315" fill-rule="evenodd" stroke="none"/>
      <path d="M12.5 135.8 L27.5 131.8 Q27.9 131.6 28.2 132.0 28.6 132.4 28.6 133.1 L28.9 139.1 Q29.1 140.7 27.9 141.1 L12.9 145.2 Q11.8 145.4 11.8 143.8 L11.5 137.7 Q11.5 136.0 12.5 135.8" fill="#5e541b" fill-rule="evenodd" stroke="none"/>
      <path d="M15.1 129.3 L28.2 139.1 Q29.1 139.9 28.6 141.3 L26.5 147.0 Q26.0 148.6 25.1 147.9 L12.2 137.7 Q11.3 137.1 11.8 135.5 L13.7 130.1 14.3 129.3 Q14.7 129.0 15.1 129.3" fill="#4a4315" fill-rule="evenodd" stroke="none"/>
      <path d="M22.0 208.9 Q22.0 210.7 21.0 210.9 L5.8 215.1 Q5.4 215.3 5.0 214.8 4.7 214.4 4.7 213.7 L4.7 207.3 Q4.7 205.6 5.8 205.2 L21.0 200.9 Q22.1 200.7 22.1 202.4 L22.0 208.9" fill="#5e541b" fill-rule="evenodd" stroke="none"/>
      <path d="M21.6 211.2 L19.4 217.0 Q18.9 218.6 18.0 217.9 L5.4 207.4 Q4.5 206.5 5.2 205.0 L7.4 199.0 Q7.7 198.3 8.2 198.1 8.6 197.8 8.9 198.1 L21.3 208.8 Q22.2 209.5 21.6 211.2" fill="#4a4315" fill-rule="evenodd" stroke="none"/>
      <path d="M19.4 267.5 Q20.5 267.1 20.7 268.8 L21.7 274.7 Q22.0 276.3 21.0 276.6 L6.5 280.6 Q6.1 280.8 5.7 280.3 5.3 279.9 5.2 279.2 L4.1 273.3 Q4.0 272.6 4.2 272.1 4.4 271.5 4.8 271.4 L19.4 267.5" fill="#5e541b" fill-rule="evenodd" stroke="none"/>
      <path d="M6.8 265.0 L21.0 274.6 Q22.1 275.3 21.7 276.8 L20.5 282.3 20.0 283.2 Q19.6 283.5 19.2 283.2 L4.8 273.3 Q3.8 272.8 4.2 271.2 L5.4 265.8 Q5.6 265.2 6.0 265.0 6.4 264.7 6.8 265.0" fill="#4a4315" fill-rule="evenodd" stroke="none"/>
      <path d="M25.8 338.3 Q26.7 338.1 27.1 339.7 L28.1 345.6 Q28.4 347.1 27.4 347.5 L12.8 351.4 Q11.7 351.8 11.5 350.1 L10.5 344.2 Q10.1 342.5 11.2 342.3 L25.8 338.3" fill="#5e541b" fill-rule="evenodd" stroke="none"/>
      <path d="M27.4 345.5 Q28.5 346.2 28.1 347.7 L26.8 353.1 Q26.4 354.6 25.4 353.9 L11.2 344.2 Q10.1 343.7 10.5 342.0 L11.7 336.6 Q12.1 335.0 13.1 335.7 L27.4 345.5" fill="#4a4315" fill-rule="evenodd" stroke="none"/>
      <path d="M29.1 394.3 L29.6 398.2 Q29.8 399.3 28.7 399.5 L13.9 402.2 Q12.9 402.4 12.7 401.3 L12.2 397.5 Q12.0 396.4 13.1 396.2 L27.9 393.4 Q28.9 393.2 29.1 394.3" fill="#5e541b" fill-rule="evenodd" stroke="none"/>
      <path d="M15.5 391.7 L29.0 398.2 Q29.9 398.8 29.4 399.6 L27.7 403.1 Q27.2 404.1 26.3 403.7 L12.9 397.5 Q12.5 397.4 12.3 396.9 12.2 396.5 12.4 396.1 L14.1 392.3 14.7 391.7 Q15.1 391.5 15.5 391.7" fill="#4a4315" fill-rule="evenodd" stroke="none"/>
      <path d="M12.2 440.0 L27.1 437.0 Q28.1 436.8 28.3 438.0 L28.9 442.4 Q29.1 443.5 28.0 443.9 L13.2 447.1 Q12.2 447.3 12.0 446.0 L11.4 441.4 Q11.3 441.0 11.6 440.5 11.8 440.1 12.2 440.0" fill="#5e541b" fill-rule="evenodd" stroke="none"/>
      <path d="M28.2 442.3 Q29.1 442.8 28.7 444.1 L27.1 448.5 Q26.5 449.7 25.7 449.1 L12.1 441.5 Q11.0 441.0 11.6 439.8 L13.2 435.9 Q13.7 434.8 14.7 435.3 L28.2 442.3" fill="#4a4315" fill-rule="evenodd" stroke="none"/>
      <path d="M16.5 441.5 L29.5 447.7 Q30.4 448.0 29.4 449.2 L25.8 453.3 Q24.9 454.4 23.9 454.0 L10.9 447.2 Q10.5 447.0 10.5 446.6 10.6 446.1 11.0 445.7 L14.6 442.0 Q15.6 441.0 16.5 441.5" fill="#5e541b" fill-rule="evenodd" stroke="none"/>
      <path d="M21.0 438.9 Q22.4 438.4 22.6 439.2 L25.4 452.8 Q25.6 453.9 24.3 454.6 L19.5 457.1 Q18.1 457.8 17.9 456.7 L15.0 442.4 Q14.8 441.6 16.2 440.9 L21.0 438.9" fill="#4a4315" fill-rule="evenodd" stroke="none"/>
      <path d="M33.6 428.8 Q31.1 427.2 28.4 428.2 26.5 428.9 24.8 430.4 23.6 431.6 23.2 432.6 23.0 433.5 22.0 432.9 21.1 432.4 21.9 431.2 22.3 430.4 23.2 429.6 25.0 427.8 27.7 427.3 30.3 426.7 32.2 427.7 33.2 428.2 33.6 428.8" fill="#6c531f" fill-rule="evenodd" stroke="none"/>
      <path d="M26.9 368.8 Q25.6 370.6 25.4 371.8 25.2 373.0 24.2 372.2 23.3 371.4 24.0 369.8 L25.2 367.6 Q27.0 365.1 29.6 364.3 32.1 363.6 34.1 365.0 35.2 365.7 35.6 366.6 35.0 366.0 34.0 365.6 32.0 364.7 30.3 365.6 28.4 366.7 26.9 368.8" fill="#6c531f" fill-rule="evenodd" stroke="none"/>
      <path d="M18.1 300.4 L18.8 298.8 Q19.7 297.1 21.3 296.6 23.8 295.8 25.1 298.2 L24.1 297.5 Q22.8 296.9 21.8 297.5 20.7 298.2 19.8 299.6 19.1 300.9 19.0 301.7 19.0 302.5 18.3 302.0 17.7 301.4 18.1 300.4" fill="#6c531f" fill-rule="evenodd" stroke="none"/>
      <path d="M21.5 261.0 Q20.3 260.4 19.2 261.0 18.1 261.6 17.2 263.0 16.4 264.1 16.3 264.9 16.2 265.7 15.6 265.2 14.9 264.7 15.4 263.7 15.6 263.0 16.1 262.2 17.1 260.6 18.7 260.1 21.2 259.3 22.5 261.6 22.1 261.2 21.5 261.0" fill="#6c531f" fill-rule="evenodd" stroke="none"/>
      <path d="M21.3 257.0 Q20.0 256.4 19.0 257.0 17.8 257.6 16.9 259.0 16.1 260.2 16.1 260.9 16.0 261.7 15.3 261.2 14.7 260.7 15.1 259.7 L15.9 258.2 Q16.9 256.6 18.5 256.2 21.0 255.4 22.3 257.6 L21.3 257.0" fill="#6c531f" fill-rule="evenodd" stroke="none"/>
      <path d="M28.1 122.4 Q26.9 123.0 26.0 124.4 25.1 125.6 25.0 126.3 24.8 127.1 24.2 126.6 23.6 126.1 24.1 125.1 L24.9 123.7 Q26.1 122.1 27.7 121.6 30.2 120.9 31.4 123.0 L30.4 122.4 Q29.2 121.9 28.1 122.4" fill="#6c531f" fill-rule="evenodd" stroke="none"/>
      <path d="M22.5 56.1 Q21.2 55.5 20.2 56.1 19.2 56.7 18.4 58.1 17.7 59.2 17.7 60.0 17.7 60.7 17.0 60.2 16.3 59.7 16.6 58.7 L17.2 57.3 Q18.1 55.8 19.7 55.3 22.1 54.5 23.6 56.7 23.2 56.3 22.5 56.1" fill="#6c531f" fill-rule="evenodd" stroke="none"/>
      <path d="M24.8 116.7 Q25.8 115.2 27.4 114.8 29.9 114.0 31.2 116.2 30.8 115.8 30.2 115.6 29.0 115.0 27.9 115.6 26.7 116.1 25.8 117.5 25.0 118.6 24.9 119.3 24.8 120.1 24.2 119.6 23.5 119.1 24.0 118.1 L24.8 116.7" fill="#6c531f" fill-rule="evenodd" stroke="none"/>
      <path d="M14.9 413.3 L12.8 413.4 11.9 413.8 12.8 413.2 Q13.9 412.6 15.4 412.8 17.7 413.1 18.6 414.7 19.0 415.3 18.5 415.5 17.9 415.8 17.8 415.4 17.7 415.0 16.9 414.3 16.0 413.6 14.9 413.3" fill="#6c531f" fill-rule="evenodd" stroke="none"/>
      <path d="M13.5 326.4 L11.5 326.5 Q10.9 326.8 10.6 327.2 L11.3 326.2 Q12.3 325.2 13.9 325.6 16.3 326.2 17.5 328.9 18.0 329.9 17.5 330.4 17.0 330.9 16.8 330.2 16.6 329.4 15.7 328.3 14.7 327.0 13.5 326.4" fill="#6c531f" fill-rule="evenodd" stroke="none"/>
      <path d="M11.3 320.6 Q9.6 319.8 7.9 320.8 L6.5 321.9 Q6.9 320.9 7.7 320.1 9.4 318.6 11.8 319.2 14.2 319.8 16.2 322.2 17.2 323.4 17.6 324.5 18.5 326.0 17.7 326.9 16.9 327.8 16.5 326.6 16.4 325.6 14.8 323.5 13.1 321.4 11.3 320.6" fill="#6c531f" fill-rule="evenodd" stroke="none"/>
      <path d="M10.7 231.0 Q11.3 232.5 10.4 233.3 9.5 234.1 9.3 233.0 9.1 231.8 8.0 230.1 6.6 228.0 4.9 227.1 3.4 226.3 1.6 227.3 0.6 227.8 0.0 228.4 0.5 227.5 1.4 226.7 3.4 225.1 5.6 225.7 8.1 226.5 9.6 228.8 L10.7 231.0" fill="#6c531f" fill-rule="evenodd" stroke="none"/>
      <path d="M13.6 182.4 Q14.3 183.7 14.5 184.8 15.1 186.4 14.1 187.4 13.0 188.3 13.0 187.0 13.0 185.7 11.9 183.8 10.7 181.5 9.1 180.6 7.6 179.7 5.7 180.8 L4.1 182.0 Q4.6 181.0 5.6 180.1 7.6 178.5 9.9 179.1 12.2 179.9 13.6 182.4" fill="#6c531f" fill-rule="evenodd" stroke="none"/>
      <path d="M11.7 175.7 Q14.0 176.4 14.6 179.3 14.9 180.3 14.3 180.9 13.7 181.5 13.7 180.7 L13.0 178.7 Q12.2 177.2 11.2 176.6 L9.0 176.8 8.0 177.5 9.0 176.3 Q10.3 175.3 11.7 175.7" fill="#6c531f" fill-rule="evenodd" stroke="none"/>
      <path d="M10.8 84.5 Q11.8 83.6 13.4 84.0 15.9 84.5 17.2 87.0 17.8 87.9 17.3 88.4 16.8 88.9 16.5 88.2 16.3 87.5 15.4 86.5 14.3 85.3 13.1 84.8 L11.0 84.9 10.1 85.5 Q10.3 85.0 10.8 84.5" fill="#6c531f" fill-rule="evenodd" stroke="none"/>
      <path d="M16.3 46.7 Q17.8 47.7 18.0 48.9 L18.2 50.0 Q18.3 50.5 17.9 50.7 L16.9 50.6 8.3 46.3 Q6.8 45.5 6.6 44.1 L6.4 43.1 Q6.3 42.5 6.7 42.3 L7.7 42.4 16.3 46.7" fill="#4a4315" fill-rule="evenodd" stroke="none"/>
      <path d="M14.7 88.9 L23.2 93.2 Q24.7 94.0 24.9 95.3 L25.0 96.4 Q25.2 97.7 23.6 97.0 L15.2 92.7 Q13.7 91.9 13.5 90.6 L13.4 89.5 Q13.3 89.0 13.7 88.8 L14.7 88.9" fill="#4a4315" fill-rule="evenodd" stroke="none"/>
      <path d="M26.8 123.3 L26.8 124.4 Q26.8 125.7 25.4 125.0 L17.4 120.7 Q16.0 120.0 16.0 118.6 L15.9 117.5 Q15.9 116.2 17.3 116.9 L25.3 121.1 Q26.8 122.0 26.8 123.3" fill="#4a4315" fill-rule="evenodd" stroke="none"/>
      <path d="M24.8 159.4 Q24.7 160.1 24.3 160.3 23.8 160.5 23.3 160.1 L15.9 155.1 Q14.5 154.1 14.7 152.7 L14.8 151.5 Q15.0 150.0 16.3 150.8 L23.7 155.7 Q25.1 156.7 24.9 158.2 L24.8 159.4" fill="#4a4315" fill-rule="evenodd" stroke="none"/>
      <path d="M23.7 169.5 Q23.5 171.0 22.2 170.2 L14.9 165.2 Q13.6 164.3 13.8 162.7 L13.9 161.4 Q14.0 160.8 14.4 160.6 L15.4 160.7 22.7 165.8 Q24.1 166.8 23.9 168.3 L23.7 169.5" fill="#4a4315" fill-rule="evenodd" stroke="none"/>
      <path d="M12.2 189.7 Q10.9 188.8 11.1 187.2 L11.2 185.9 Q11.3 185.2 11.7 185.0 12.2 184.8 12.7 185.2 L20.0 190.3 Q21.3 191.2 21.1 192.8 L21.0 194.1 Q20.9 194.8 20.5 195.0 20.0 195.2 19.5 194.8 L12.2 189.7" fill="#4a4315" fill-rule="evenodd" stroke="none"/>
      <path d="M9.2 220.7 L16.7 225.5 Q18.0 226.2 18.0 227.8 L17.9 229.0 Q17.9 229.6 17.5 229.8 17.0 230.0 16.5 229.6 L8.9 224.9 Q7.6 224.3 7.6 222.5 L7.7 221.4 Q7.9 219.9 9.2 220.7" fill="#4a4315" fill-rule="evenodd" stroke="none"/>
      <path d="M11.1 289.7 Q9.7 289.0 9.5 287.4 L9.4 286.3 Q9.3 285.6 9.7 285.4 L10.8 285.6 19.1 290.3 Q20.5 291.0 20.7 292.6 L20.8 293.8 Q20.9 294.4 20.5 294.6 L19.5 294.5 11.1 289.7" fill="#4a4315" fill-rule="evenodd" stroke="none"/>
      <path d="M14.0 319.6 L22.3 324.3 23.4 325.3 Q23.9 326.0 23.9 326.6 L24.1 327.8 Q24.1 329.2 22.7 328.5 L14.4 323.8 Q12.9 323.0 12.7 321.4 L12.6 320.2 Q12.5 319.6 12.9 319.4 L14.0 319.6" fill="#4a4315" fill-rule="evenodd" stroke="none"/>
      <path d="M26.6 362.0 Q26.6 362.6 26.2 362.8 25.8 363.0 25.2 362.6 L17.1 358.3 Q15.7 357.4 15.5 356.0 L15.4 354.9 Q15.4 353.6 16.8 354.3 L25.0 358.7 Q26.5 359.6 26.5 360.9 L26.6 362.0" fill="#4a4315" fill-rule="evenodd" stroke="none"/>
      <path d="M26.9 370.7 Q26.9 372.0 25.5 371.3 L17.5 367.1 Q16.0 366.2 16.0 364.9 L15.9 363.8 Q15.9 362.5 17.3 363.2 L25.4 367.5 Q26.7 368.1 26.9 369.6 L26.9 370.7" fill="#4a4315" fill-rule="evenodd" stroke="none"/>
      <path d="M17.8 382.8 L25.7 386.3 Q27.2 386.9 27.2 388.0 L27.2 388.8 Q27.2 389.9 25.7 389.3 L17.8 385.9 Q16.4 385.3 16.4 384.2 L16.4 383.3 Q16.4 382.1 17.8 382.8" fill="#4a4315" fill-rule="evenodd" stroke="none"/>
      <path d="M26.8 411.0 Q26.8 411.4 26.4 411.5 L25.4 411.4 17.6 408.7 Q16.2 408.2 16.2 407.3 L16.2 406.6 Q16.2 405.7 17.6 406.2 L25.4 408.9 Q26.8 409.4 26.8 410.3 L26.8 411.0" fill="#4a4315" fill-rule="evenodd" stroke="none"/>
      <path d="M17.2 420.2 L25.1 422.9 Q26.6 423.5 26.4 424.4 L26.4 425.1 Q26.4 426.0 25.0 425.5 L17.2 422.7 Q15.8 422.2 15.8 421.3 L15.8 420.6 Q15.8 419.6 17.2 420.2" fill="#4a4315" fill-rule="evenodd" stroke="none"/>
      <path d="M17.1 425.8 L24.9 428.6 Q26.3 429.1 26.3 430.1 L26.3 430.9 Q26.3 431.8 24.9 431.3 L17.1 428.4 Q15.7 427.9 15.7 426.9 L15.7 426.2 Q15.7 425.3 17.1 425.8" fill="#4a4315" fill-rule="evenodd" stroke="none"/>
      <path d="M16.2 247.3 Q17.7 248.1 17.7 249.4 L17.7 250.5 Q17.8 251.1 17.3 251.3 L16.3 251.1 8.3 246.9 Q7.0 246.1 6.8 244.7 L6.8 243.6 Q6.8 243.1 7.3 242.9 L8.3 243.0 16.2 247.3" fill="#4a4315" fill-rule="evenodd" stroke="none"/>
      <path d="M18.1 0.0 Q19.2 0.0 19.2 1.2 L18.8 26.2 12.5 103.3 13.6 129.5 21.9 198.8 23.2 223.3 19.7 327.0 22.4 395.4 Q22.4 396.5 21.4 396.5 L17.8 396.6 Q16.7 396.6 16.7 395.5 L14.0 327.1 17.5 223.3 16.7 205.2 7.9 129.6 6.8 103.4 13.1 26.2 13.5 1.2 Q13.5 0.0 14.6 0.0 L18.1 0.0" fill="#736821" fill-rule="evenodd" stroke="none"/>
      <path d="M6.2 67.3 L7.1 62.4 Q7.3 61.0 8.1 61.2 L19.1 64.1 Q20.0 64.3 19.6 65.6 L18.7 70.5 Q18.5 71.8 17.7 71.6 L6.7 68.8 Q5.8 68.6 6.2 67.3" fill="#64671d" fill-rule="evenodd" stroke="none"/>
      <path d="M17.8 58.8 Q18.6 58.2 18.9 59.4 L19.7 63.8 Q19.9 64.9 19.1 65.7 L8.0 74.1 Q7.2 74.6 7.0 73.5 L6.1 69.0 Q5.9 67.8 6.7 67.2 L17.8 58.8" fill="#505318" fill-rule="evenodd" stroke="none"/>
      <path d="M5.3 120.6 L16.8 123.5 Q17.6 123.8 17.6 125.2 L17.6 130.5 Q17.6 131.9 16.8 131.7 L5.2 128.6 Q4.4 128.4 4.4 127.0 L4.5 121.8 Q4.5 120.4 5.3 120.6" fill="#64671d" fill-rule="evenodd" stroke="none"/>
      <path d="M14.6 118.0 Q15.3 117.4 15.7 118.7 L17.3 123.3 Q17.7 124.6 17.1 125.2 L7.6 134.4 Q6.9 135.1 6.5 133.7 L4.7 128.9 Q4.3 127.6 4.9 126.9 L14.6 118.0" fill="#505318" fill-rule="evenodd" stroke="none"/>
      <path d="M11.7 187.2 L11.5 181.7 Q11.4 181.0 11.7 180.6 11.9 180.2 12.2 180.4 L23.9 183.6 Q24.8 183.8 24.8 185.4 L25.0 190.9 Q25.0 192.4 24.2 192.2 L12.6 189.0 Q11.7 188.8 11.7 187.2" fill="#64671d" fill-rule="evenodd" stroke="none"/>
      <path d="M13.9 194.2 L12.1 189.2 Q11.6 188.0 12.2 187.2 L21.3 177.5 Q21.9 176.9 22.5 178.2 L24.4 183.3 Q24.9 184.8 24.3 185.4 L15.1 194.9 Q14.4 195.6 13.9 194.2" fill="#505318" fill-rule="evenodd" stroke="none"/>
      <path d="M15.4 238.0 L26.6 241.0 Q27.4 241.2 27.2 242.6 L26.6 247.8 Q26.4 249.2 25.6 249.0 L14.5 246.0 Q13.7 245.8 13.9 244.3 L14.5 239.2 Q14.7 237.8 15.4 238.0" fill="#64671d" fill-rule="evenodd" stroke="none"/>
      <path d="M14.4 244.3 L24.9 235.4 Q25.6 234.8 26.0 236.1 L27.1 240.7 Q27.5 242.0 26.7 242.6 L16.1 251.6 Q15.4 252.3 15.0 251.0 L14.0 246.2 Q13.6 244.9 14.4 244.3" fill="#505318" fill-rule="evenodd" stroke="none"/>
      <path d="M23.9 302.7 Q24.7 302.9 24.5 304.3 L23.9 309.4 Q23.7 310.8 22.9 310.6 L11.7 307.7 Q10.9 307.5 11.1 306.0 L11.7 300.9 Q11.9 299.4 12.7 299.7 L23.9 302.7" fill="#64671d" fill-rule="evenodd" stroke="none"/>
      <path d="M23.3 297.7 L24.4 302.4 Q24.8 303.7 23.9 304.3 L13.4 313.2 Q12.7 313.8 12.3 312.5 L11.2 307.9 Q10.8 306.6 11.6 306.0 L22.3 297.0 Q23.0 296.5 23.3 297.7" fill="#505318" fill-rule="evenodd" stroke="none"/>
      <path d="M24.0 349.5 Q24.8 349.7 24.8 350.6 L24.5 353.9 Q24.3 354.9 23.6 354.7 L12.2 352.8 11.7 352.5 Q11.4 352.2 11.5 351.8 L11.8 348.3 Q11.8 347.3 12.7 347.5 L24.0 349.5" fill="#64671d" fill-rule="evenodd" stroke="none"/>
      <path d="M22.1 345.7 Q22.7 345.1 23.1 346.1 L24.5 349.3 Q25.0 350.2 24.2 350.6 L14.2 356.4 Q13.5 356.8 13.1 356.0 L11.7 353.0 Q11.4 352.2 12.0 351.7 L22.1 345.7" fill="#505318" fill-rule="evenodd" stroke="none"/>
      <path d="M13.4 390.0 L13.7 386.2 Q13.7 385.1 14.6 385.3 L25.9 387.4 Q26.7 387.6 26.7 388.7 L26.3 392.7 Q26.3 393.8 25.4 393.6 L14.1 391.3 Q13.2 391.1 13.4 390.0" fill="#64671d" fill-rule="evenodd" stroke="none"/>
      <path d="M14.9 395.3 L13.6 391.5 Q13.3 390.5 13.9 390.0 L24.0 383.4 Q24.8 383.0 25.1 383.9 L26.5 387.3 Q26.8 388.1 26.1 388.7 L16.0 395.8 Q15.3 396.3 14.9 395.3" fill="#505318" fill-rule="evenodd" stroke="none"/>
      <path d="M13.1 394.6 L22.8 388.8 Q23.5 388.4 24.2 389.3 L27.1 392.4 Q27.8 393.3 27.2 393.7 L17.5 399.9 Q16.8 400.4 16.0 399.4 L13.2 396.0 Q12.5 395.1 13.1 394.6" fill="#64671d" fill-rule="evenodd" stroke="none"/>
      <path d="M19.2 386.7 L23.0 388.4 Q24.1 388.8 23.9 389.7 L22.1 402.1 Q21.9 403.0 21.0 402.5 L17.2 400.5 Q16.3 400.0 16.3 399.0 L18.1 387.1 Q18.1 386.3 19.2 386.7" fill="#505318" fill-rule="evenodd" stroke="none"/>
      <path d="M13.8 376.9 Q17.0 377.5 18.4 380.1 19.0 381.1 18.3 381.6 17.6 382.2 17.4 381.4 17.2 380.7 16.1 379.6 14.8 378.2 13.3 377.7 L10.5 377.8 9.3 378.4 Q9.6 377.9 10.4 377.4 11.8 376.5 13.8 376.9" fill="#736821" fill-rule="evenodd" stroke="none"/>
      <path d="M15.0 327.0 Q15.6 328.3 14.8 329.0 14.1 329.7 13.9 328.7 13.7 327.5 12.7 326.1 11.4 324.3 10.0 323.5 L7.2 323.6 6.0 324.5 Q6.4 323.7 7.1 323.1 8.6 321.7 10.6 322.3 12.4 322.9 13.9 325.0 L15.0 327.0" fill="#736821" fill-rule="evenodd" stroke="none"/>
      <path d="M14.5 264.1 L12.8 264.2 12.0 264.8 12.7 263.8 Q13.7 262.9 14.9 263.3 16.8 264.0 17.4 266.5 17.7 267.4 17.3 267.9 16.8 268.4 16.7 267.7 L16.1 265.9 Q15.4 264.6 14.5 264.1" fill="#736821" fill-rule="evenodd" stroke="none"/>
      <path d="M15.7 231.6 Q17.7 232.2 18.4 234.6 18.7 235.4 18.3 235.9 17.8 236.4 17.7 235.7 L17.0 234.1 Q16.3 232.9 15.4 232.4 14.6 231.9 13.7 232.4 L12.9 233.0 Q13.1 232.5 13.6 232.1 14.5 231.2 15.7 231.6" fill="#736821" fill-rule="evenodd" stroke="none"/>
      <path d="M18.5 231.1 Q18.8 231.9 18.4 232.4 17.9 232.9 17.8 232.2 L17.1 230.6 Q16.3 229.4 15.5 228.9 14.7 228.5 13.7 228.9 L12.9 229.5 Q13.1 229.0 13.6 228.6 14.6 227.8 15.8 228.2 17.7 228.8 18.5 231.1" fill="#736821" fill-rule="evenodd" stroke="none"/>
      <path d="M7.7 114.6 Q8.0 115.5 7.6 116.0 7.2 116.4 7.0 115.8 L6.3 114.1 4.6 112.5 Q3.7 112.1 2.8 112.5 L2.1 113.1 Q2.3 112.6 2.8 112.2 3.7 111.4 4.9 111.8 6.8 112.3 7.7 114.6" fill="#736821" fill-rule="evenodd" stroke="none"/>
      <path d="M11.2 58.2 Q10.7 58.6 10.6 58.0 10.6 57.3 10.1 56.3 9.4 55.2 8.6 54.7 7.9 54.3 6.9 54.7 L6.0 55.3 6.8 54.4 Q7.8 53.6 9.0 54.0 10.9 54.6 11.4 56.9 11.7 57.7 11.2 58.2" fill="#736821" fill-rule="evenodd" stroke="none"/>
      <path d="M4.5 106.5 Q3.7 106.1 2.8 106.5 L2.0 107.1 Q2.2 106.6 2.7 106.2 3.6 105.4 4.8 105.8 6.8 106.4 7.5 108.6 7.9 109.4 7.5 109.9 7.0 110.3 6.9 109.7 L6.2 108.1 4.5 106.5" fill="#736821" fill-rule="evenodd" stroke="none"/>
      <path d="M20.4 365.7 L20.9 365.0 Q21.7 364.2 22.8 363.9 24.6 363.5 25.5 364.7 24.3 363.9 23.1 364.3 21.3 365.0 21.0 366.3 20.9 366.7 20.5 366.4 20.1 366.2 20.4 365.7" fill="#736821" fill-rule="evenodd" stroke="none"/>
      <path d="M18.7 291.2 L19.3 290.0 Q20.2 288.6 21.4 288.2 23.2 287.6 23.9 289.6 L23.2 289.0 Q22.4 288.5 21.6 289.0 20.8 289.5 20.0 290.7 19.4 291.7 19.3 292.3 19.1 292.9 18.7 292.5 18.3 292.0 18.7 291.2" fill="#736821" fill-rule="evenodd" stroke="none"/>
      <path d="M18.5 287.4 L19.5 285.4 Q20.9 283.2 22.7 282.6 24.6 282.0 25.9 283.3 L26.8 284.8 25.7 283.9 23.1 283.8 Q22.0 284.6 20.6 286.5 19.8 287.6 19.3 289.2 19.1 290.2 18.5 289.5 17.9 288.8 18.5 287.4" fill="#736821" fill-rule="evenodd" stroke="none"/>
      <path d="M27.8 202.6 Q26.4 201.9 25.2 202.6 24.0 203.3 23.0 205.2 22.2 206.8 22.1 207.8 22.0 208.9 21.3 208.1 20.5 207.4 21.0 206.1 L21.8 204.1 Q22.9 202.0 24.7 201.4 26.5 200.8 27.9 202.1 L29.0 203.5 Q28.5 203.0 27.8 202.6" fill="#736821" fill-rule="evenodd" stroke="none"/>
      <path d="M20.7 162.3 Q19.4 163.3 18.7 165.2 17.9 167.0 17.9 168.0 17.9 169.2 17.1 168.4 16.4 167.6 16.7 166.1 17.3 162.1 20.1 161.1 21.8 160.4 23.4 161.8 24.2 162.5 24.6 163.3 L23.3 162.3 Q21.8 161.5 20.7 162.3" fill="#736821" fill-rule="evenodd" stroke="none"/>
      <path d="M20.6 159.0 Q19.7 158.5 19.0 159.0 18.2 159.6 17.7 160.8 17.2 161.9 17.2 162.6 17.2 163.3 16.7 162.8 16.2 162.3 16.5 161.4 L16.9 160.0 Q17.5 158.6 18.6 158.2 19.7 157.8 20.6 158.6 L21.4 159.6 20.6 159.0" fill="#736821" fill-rule="evenodd" stroke="none"/>
      <path d="M16.4 79.3 Q15.6 78.9 14.8 79.3 14.0 79.8 13.2 80.9 12.5 81.8 12.3 82.4 12.2 83.0 11.8 82.6 11.4 82.2 11.8 81.4 L12.5 80.2 Q13.4 79.0 14.6 78.6 16.5 78.0 17.1 79.9 L16.4 79.3" fill="#736821" fill-rule="evenodd" stroke="none"/>
      <path d="M9.9 49.3 L10.0 48.4 Q10.2 47.2 11.3 46.4 L17.7 42.4 18.5 42.3 Q18.8 42.4 18.7 42.9 L18.6 43.9 Q18.6 45.0 17.4 45.8 L11.0 49.8 Q9.9 50.4 9.9 49.3" fill="#505318" fill-rule="evenodd" stroke="none"/>
      <path d="M14.7 84.4 Q14.5 85.6 13.5 86.3 L7.2 90.3 6.4 90.5 Q6.1 90.3 6.2 89.8 L6.2 88.9 Q6.4 87.7 7.4 87.0 L13.7 83.0 Q14.8 82.4 14.8 83.5 L14.7 84.4" fill="#505318" fill-rule="evenodd" stroke="none"/>
      <path d="M13.7 108.7 Q13.7 109.9 12.6 110.6 L6.7 114.6 Q5.6 115.3 5.6 114.1 L5.6 113.2 Q5.6 112.0 6.6 111.3 L12.6 107.3 Q13.7 106.8 13.7 107.8 L13.7 108.7" fill="#505318" fill-rule="evenodd" stroke="none"/>
      <path d="M8.2 144.4 L8.1 143.4 Q7.9 141.9 8.9 141.2 L14.4 136.7 Q14.8 136.3 15.1 136.5 15.4 136.7 15.5 137.2 L15.6 138.3 Q15.8 139.5 14.8 140.5 L9.3 145.0 Q8.4 145.7 8.2 144.4" fill="#505318" fill-rule="evenodd" stroke="none"/>
      <path d="M16.5 145.9 L16.6 146.9 Q16.8 148.4 15.8 149.1 L13.1 151.4 10.4 153.7 Q10.0 154.1 9.7 153.9 L9.3 153.2 9.1 152.1 Q8.9 150.7 9.9 149.9 L15.4 145.3 Q15.8 144.9 16.1 145.1 L16.5 145.9" fill="#505318" fill-rule="evenodd" stroke="none"/>
      <path d="M12.7 171.1 L18.1 166.4 18.9 166.3 Q19.2 166.4 19.3 167.0 L19.4 168.1 Q19.6 169.5 18.6 170.3 L13.2 175.0 Q12.3 175.7 12.1 174.4 L11.9 173.3 Q11.7 171.9 12.7 171.1" fill="#505318" fill-rule="evenodd" stroke="none"/>
      <path d="M21.8 197.1 Q22.8 196.3 23.0 197.6 L23.1 198.7 Q23.1 199.9 22.2 200.8 L16.5 205.1 Q15.6 205.8 15.4 204.6 L15.3 203.6 Q15.3 202.2 16.2 201.5 L21.8 197.1" fill="#505318" fill-rule="evenodd" stroke="none"/>
      <path d="M22.5 253.5 Q23.6 252.7 23.6 254.0 L23.6 255.0 Q23.4 256.3 22.4 257.1 L16.2 261.4 Q15.8 261.8 15.4 261.6 15.1 261.4 15.1 260.9 L15.2 259.9 Q15.2 258.5 16.3 257.8 L22.5 253.5" fill="#505318" fill-rule="evenodd" stroke="none"/>
      <path d="M13.7 290.5 L13.7 289.5 Q13.9 288.1 14.9 287.4 L21.1 283.0 Q22.2 282.3 22.2 283.6 L22.1 284.6 Q22.1 285.7 20.9 286.7 L14.7 291.0 Q14.2 291.3 13.9 291.2 13.6 291.0 13.7 290.5" fill="#505318" fill-rule="evenodd" stroke="none"/>
      <path d="M21.0 313.8 L21.0 314.7 Q21.0 316.0 19.9 316.7 L13.8 320.7 Q12.8 321.4 12.8 320.3 L12.8 319.3 Q12.8 318.1 13.9 317.4 L19.9 313.3 Q21.0 312.6 21.0 313.8" fill="#505318" fill-rule="evenodd" stroke="none"/>
      <path d="M19.8 324.3 L13.9 328.3 Q12.8 328.9 12.8 327.8 L12.8 326.9 Q12.8 325.7 13.8 325.0 L19.8 321.0 Q20.9 320.3 20.9 321.5 L20.9 322.4 Q20.9 323.6 19.8 324.3" fill="#505318" fill-rule="evenodd" stroke="none"/>
      <path d="M14.1 341.3 L20.0 338.0 Q21.1 337.5 21.1 338.4 L21.1 339.2 Q21.1 340.2 20.1 340.7 L14.2 343.9 Q13.1 344.5 13.1 343.5 L13.1 342.8 Q13.1 341.8 14.1 341.3" fill="#505318" fill-rule="evenodd" stroke="none"/>
      <path d="M14.0 362.7 L14.0 362.1 Q14.0 361.4 15.0 360.9 L20.9 358.3 Q21.8 357.8 22.0 358.6 L22.0 359.2 Q22.0 360.0 21.0 360.5 L15.1 363.0 Q14.2 363.6 14.0 362.7" fill="#505318" fill-rule="evenodd" stroke="none"/>
      <path d="M14.7 375.0 L14.7 374.3 Q14.7 373.4 15.7 373.1 L21.6 370.4 Q22.5 370.0 22.7 370.7 L22.7 371.3 Q22.7 372.1 21.7 372.6 L15.8 375.3 Q14.7 375.9 14.7 375.0" fill="#505318" fill-rule="evenodd" stroke="none"/>
      <path d="M15.0 380.0 L14.9 379.3 Q14.9 378.6 16.0 378.0 L21.8 375.2 Q22.9 374.8 22.9 375.6 L23.0 376.2 Q23.0 377.0 21.9 377.5 L16.1 380.3 Q15.0 380.9 15.0 380.0" fill="#505318" fill-rule="evenodd" stroke="none"/>
      <path d="M23.2 216.5 L24.0 216.3 Q24.3 216.4 24.3 216.9 L24.3 217.9 Q24.3 219.1 23.3 219.8 L17.3 223.7 Q16.2 224.4 16.2 223.2 L16.2 222.3 Q16.2 221.1 17.3 220.4 L23.2 216.5" fill="#505318" fill-rule="evenodd" stroke="none"/>
      <path d="M23.4 76.7 Q23.4 78.0 22.5 78.0 L5.1 78.0 Q4.2 78.0 4.2 76.7 L4.2 45.0 Q4.2 43.6 5.1 43.6 L22.5 43.6 Q23.4 43.6 23.4 45.0 L23.4 76.7" fill="#5e541b" fill-rule="evenodd" stroke="none"/>
      <path d="M26.6 68.5 L26.6 73.8 25.4 74.0 3.6 74.0 2.4 73.8 2.4 68.5 3.6 68.3 25.4 68.3 26.6 68.5" fill="#503e17" fill-rule="evenodd" stroke="none"/>
      <path d="M26.6 61.3 L26.6 66.6 Q26.6 66.9 25.4 66.9 L3.6 66.9 Q2.4 66.9 2.4 66.6 L2.4 61.3 3.6 61.1 25.4 61.1 26.6 61.3" fill="#503e17" fill-rule="evenodd" stroke="none"/>
      <path d="M26.6 41.0 L26.6 46.3 25.4 46.5 3.6 46.5 2.4 46.3 2.4 41.0 3.6 40.8 25.4 40.8 26.6 41.0" fill="#503e17" fill-rule="evenodd" stroke="none"/>
    </g>
  </defs>
</svg>
