<?xml version="1.0" encoding="UTF-8" standalone="no"?>
<svg xmlns:xlink="http://www.w3.org/1999/xlink" height="30.4px" width="44.75px" xmlns="http://www.w3.org/2000/svg">
  <g transform="matrix(1.0, 0.0, 0.0, 1.0, 0.0, 0.0)">
    <use height="9.3" transform="matrix(1.0, 0.0, 0.0, 1.0, 3.8, 21.05)" width="35.05" xlink:href="#shape0"/>
    <use height="10.85" transform="matrix(0.75, 0.0, 0.0, 0.75, 7.0, 22.15)" width="24.8" xlink:href="#sprite0"/>
    <use height="16.15" transform="matrix(1.0, 0.0, 0.0, 1.0, 3.8, 12.7)" width="37.3" xlink:href="#shape2"/>
  </g>
  <defs>
    <g id="shape0" transform="matrix(1.0, 0.0, 0.0, 1.0, -3.8, -21.05)">
      <path d="M38.7 21.2 L38.85 21.15 Q37.4 25.15 32.55 27.75 27.65 30.35 21.35 30.35 15.0 30.35 10.05 27.7 5.2 25.1 3.8 21.05 L4.1 21.05 Q5.55 22.05 10.35 22.7 L21.45 23.3 32.4 22.7 Q37.1 22.1 38.7 21.2" fill="#d7eaf2" fill-rule="evenodd" stroke="none"/>
      <path d="M37.35 21.75 L36.25 23.6 Q34.8 25.55 31.8 27.5 29.45 29.0 26.0 29.95 L24.2 30.2 Q28.75 28.8 30.75 26.15 L31.8 23.95 31.95 22.7 37.35 21.75" fill="#bdd4de" fill-rule="evenodd" stroke="none"/>
    </g>
    <g id="sprite0" transform="matrix(1.0, 0.0, 0.0, 1.0, 0.0, 0.0)">
      <use height="10.85" transform="matrix(1.0, 0.0, 0.0, 1.0, 0.0, 0.0)" width="24.8" xlink:href="#shape1"/>
    </g>
    <g id="shape1" transform="matrix(1.0, 0.0, 0.0, 1.0, 0.0, 0.0)">
      <path d="M24.8 1.45 L21.55 10.85 16.3 10.8 12.5 9.95 Q10.3 9.25 8.85 8.45 4.15 5.85 1.6 2.65 0.35 1.05 0.0 0.0 L2.75 0.45 19.3 1.55 24.8 1.45" fill="url(#gradient0)" fill-rule="evenodd" stroke="none"/>
    </g>
    <linearGradient gradientTransform="matrix(0.0098, 0.0, 0.0, -0.0098, 11.6, 5.45)" gradientUnits="userSpaceOnUse" id="gradient0" spreadMethod="pad" x1="-819.2" x2="819.2">
      <stop offset="0.0" stop-color="#ffffff"/>
      <stop offset="1.0" stop-color="#000000"/>
    </linearGradient>
    <g id="shape2" transform="matrix(1.0, 0.0, 0.0, 1.0, -3.8, -12.7)">
      <path d="M6.65 24.55 Q9.0 27.35 12.65 28.85 9.6 27.7 7.35 25.85 4.75 23.75 3.8 21.05 L4.1 21.05 4.65 21.35 Q5.3 22.95 6.65 24.55" fill="#bdd4de" fill-rule="evenodd" stroke="none"/>
      <path d="M33.45 15.85 Q38.4 17.75 38.4 20.35 38.4 23.0 33.45 24.8 28.5 26.7 21.55 26.7 14.55 26.7 9.6 24.8 4.65 23.0 4.65 20.35 4.65 17.75 9.6 15.85 14.55 14.0 21.55 14.0 28.5 14.0 33.45 15.85" fill="url(#gradient1)" fill-rule="evenodd" stroke="none"/>
      <path d="M38.85 19.9 L37.75 19.9 Q37.4 17.6 32.7 15.95 28.0 14.35 21.45 14.35 14.9 14.35 10.2 15.95 5.5 17.6 5.15 19.9 L3.9 19.9 Q4.5 17.35 9.45 15.65 14.55 13.9 21.35 13.9 28.2 13.9 33.25 15.65 38.25 17.35 38.85 19.9" fill="#ffffff" fill-rule="evenodd" stroke="none"/>
      <path d="M37.5 22.5 Q35.85 23.45 32.65 24.65 28.05 26.3 24.75 26.35 L16.85 26.0 10.9 25.15 Q9.2 24.75 7.6 23.9 6.15 23.15 6.15 22.85 6.1 22.7 6.6 22.25 L7.2 21.65 Q7.8 20.0 11.95 18.8 13.05 18.5 14.15 17.0 15.2 15.55 15.9 15.5 19.45 15.25 21.7 15.6 L24.15 16.4 Q25.5 16.95 26.4 16.9 L30.3 16.6 Q33.05 16.45 33.7 17.05 L35.7 19.35 Q36.9 20.9 36.9 21.5 36.85 21.9 37.6 22.05 38.1 22.15 37.5 22.5" fill="url(#gradient2)" fill-rule="evenodd" stroke="none"/>
      <path d="M15.9 15.5 Q17.0 15.35 16.25 16.05 15.3 17.0 15.6 17.2 L16.85 17.15 17.85 16.95 Q18.0 17.35 17.25 17.65 L15.15 17.75 Q13.85 17.5 14.4 16.55 15.0 15.7 15.9 15.5" fill="url(#gradient3)" fill-rule="evenodd" stroke="none"/>
      <path d="M16.75 19.2 Q17.3 19.1 17.3 19.7 L17.15 20.7 16.75 21.6 15.9 21.95 14.55 21.95 13.65 22.05 14.05 21.6 Q14.6 21.1 15.45 21.05 16.2 21.0 16.2 20.15 16.2 19.25 16.75 19.2" fill="url(#gradient4)" fill-rule="evenodd" stroke="none"/>
      <path d="M31.65 19.55 Q33.0 19.85 32.25 20.75 31.5 21.65 30.0 21.2 28.5 20.85 29.5 20.05 30.45 19.25 31.65 19.55" fill="url(#gradient5)" fill-rule="evenodd" stroke="none"/>
      <path d="M35.35 21.35 L33.45 20.25 31.75 19.2 Q30.5 18.45 28.15 18.65 L26.2 18.9 24.15 18.75 23.4 18.05 21.95 17.75 19.2 18.3 16.75 18.8 14.75 19.1 Q13.85 19.3 13.4 20.0 L12.3 21.35 Q11.7 22.0 10.9 22.1 L9.15 22.6 Q8.2 22.95 8.15 23.2 L8.15 23.8 9.05 24.15 9.25 24.0 Q10.15 23.35 11.5 22.85 L13.65 22.5 14.7 23.55 Q15.25 24.3 16.15 24.1 L17.85 23.55 Q18.3 23.25 18.75 22.4 19.85 20.35 21.55 20.35 L22.75 19.85 Q23.3 19.4 24.25 19.7 L27.75 20.6 29.7 20.65 Q30.75 20.55 31.35 20.95 32.1 21.5 32.15 21.8 L31.95 22.7 Q31.85 23.2 32.4 24.25 32.75 25.05 32.35 25.1 L31.65 25.3 31.5 25.15 31.35 24.0 Q31.3 23.0 31.4 22.5 31.7 21.2 30.0 21.2 L28.5 21.5 26.75 21.35 24.85 20.6 Q23.95 20.3 23.4 20.6 L21.8 21.2 Q20.75 21.6 20.4 21.95 L19.3 23.3 18.0 24.45 16.15 24.7 Q14.9 24.75 14.55 24.35 L13.95 23.75 12.75 23.5 Q11.85 23.45 10.95 23.85 10.1 24.25 10.35 24.55 L11.5 24.9 15.0 25.85 16.85 25.35 18.9 24.9 20.4 24.9 21.5 24.2 Q22.1 23.45 23.45 23.1 L25.6 23.25 Q26.25 23.75 27.25 24.05 L28.5 24.35 29.55 24.5 30.3 24.8 Q30.55 24.95 30.35 25.45 30.15 25.9 29.7 25.8 L28.35 25.2 26.65 24.35 25.05 23.75 23.5 23.85 Q22.95 24.05 22.25 24.6 L21.15 25.25 19.55 25.6 18.05 25.8 17.45 26.0 16.4 26.05 15.0 25.85 14.9 25.85 12.3 25.4 10.35 24.55 9.05 24.15 8.25 24.05 8.15 23.8 7.0 23.2 Q6.05 22.4 7.3 21.95 L9.8 21.5 Q10.85 21.5 11.5 21.05 L12.4 20.1 13.25 18.95 Q13.9 18.35 15.25 18.35 L17.65 18.0 19.2 17.3 20.55 17.1 22.5 17.4 Q23.0 17.5 23.85 18.15 L26.25 18.35 29.85 18.05 Q31.15 18.05 32.15 18.95 L34.9 20.5 Q36.4 21.2 36.3 21.6 L36.0 23.15 Q35.7 24.05 35.45 23.7 35.35 23.5 35.7 22.55 36.05 21.7 35.35 21.35" fill="url(#gradient6)" fill-rule="evenodd" stroke="none"/>
      <path d="M35.5 18.75 Q34.9 17.9 33.8 17.75 L29.25 17.15 Q28.2 17.05 26.9 16.15 25.5 15.2 24.8 15.1 L22.75 14.55 Q21.55 14.3 20.25 15.1 L17.65 16.85 Q16.45 17.65 15.6 17.75 L13.1 17.5 Q11.55 17.35 10.9 17.85 L8.95 19.5 Q7.95 20.4 8.1 19.75 9.05 16.75 11.35 16.75 L12.75 16.75 Q16.1 17.15 17.25 16.15 L20.0 14.3 Q22.15 13.1 23.45 13.4 L26.1 14.9 Q27.75 16.1 29.1 16.3 L32.4 16.75 Q33.95 17.0 34.8 17.45 35.85 18.05 36.5 18.8 37.2 19.6 37.15 20.25 37.05 20.9 35.85 21.65 34.55 22.45 33.0 22.6 31.9 22.7 30.6 23.7 29.35 24.65 28.8 24.65 L27.6 24.65 27.35 24.45 28.5 23.75 32.5 22.25 Q35.25 21.2 35.7 20.45 36.15 19.6 35.5 18.75" fill="url(#gradient7)" fill-rule="evenodd" stroke="none"/>
      <path d="M35.25 18.45 Q34.6 17.6 33.55 17.45 L28.95 16.85 Q27.95 16.75 26.65 15.85 25.2 14.9 24.5 14.8 L22.45 14.25 Q21.3 14.0 19.95 14.8 L17.4 16.55 Q16.2 17.35 15.3 17.45 L12.85 17.2 Q11.25 17.05 10.65 17.55 L8.7 19.2 Q7.65 20.1 7.85 19.45 8.8 16.45 11.1 16.45 L12.5 16.45 Q15.85 16.85 16.95 15.9 18.15 14.8 19.75 14.0 21.9 12.8 23.2 13.1 24.05 13.35 25.8 14.6 27.45 15.8 28.85 16.0 L32.15 16.45 34.5 17.15 36.25 18.5 Q36.95 19.3 36.9 19.95 36.8 20.6 35.55 21.35 34.25 22.15 32.75 22.3 31.6 22.4 30.3 23.4 L28.5 24.35 27.3 24.35 28.15 23.65 Q29.2 22.85 30.3 22.4 L33.3 21.5 Q35.0 20.9 35.4 20.15 35.9 19.3 35.25 18.45" fill="url(#gradient8)" fill-rule="evenodd" stroke="none"/>
      <path d="M35.3 19.1 Q34.05 19.1 32.8 18.05 L30.95 16.1 Q30.3 15.3 28.65 15.4 27.15 15.5 26.1 16.1 L23.95 17.6 Q22.95 18.6 24.5 18.5 L27.1 17.9 Q28.2 17.6 29.2 18.5 L31.05 20.35 Q31.85 21.05 33.1 20.9 34.65 20.7 35.7 21.65 36.75 22.6 35.2 23.3 33.8 23.9 33.45 23.75 L33.45 23.5 34.35 22.95 Q35.1 22.3 34.2 21.95 L32.25 21.65 Q31.2 21.6 30.6 21.1 L29.2 19.6 Q28.35 18.7 27.5 18.65 L25.65 18.8 23.3 19.1 21.1 19.4 Q20.3 19.6 19.95 18.95 L19.05 16.85 Q18.45 15.35 18.05 15.05 17.25 14.3 16.25 14.15 14.9 14.0 14.6 15.5 14.35 17.0 15.55 18.2 L17.65 19.95 Q19.6 22.0 18.95 22.7 L18.0 23.55 15.75 23.5 12.65 22.1 10.5 20.75 8.4 20.45 Q7.05 20.6 6.85 21.1 6.7 21.65 7.45 22.1 8.1 22.5 9.3 22.7 L10.95 23.0 12.75 23.5 Q13.05 23.6 14.85 25.25 16.1 26.3 17.3 25.75 18.0 25.45 19.6 23.6 20.9 22.05 22.65 21.8 L25.45 21.5 Q26.25 21.5 27.85 22.3 L30.2 23.15 Q30.8 23.25 30.95 23.5 31.3 24.1 33.3 24.95 L31.65 25.4 31.45 24.95 Q31.05 24.45 29.85 24.0 L27.6 23.0 25.5 22.4 23.15 22.65 Q21.95 22.9 21.15 23.4 L19.75 24.75 18.75 25.85 Q17.4 27.0 15.6 26.45 L13.8 25.4 11.85 24.35 8.9 23.6 Q7.2 23.15 6.5 22.7 4.8 21.6 4.85 20.6 5.0 19.3 7.2 18.95 9.35 18.55 10.75 19.45 L13.15 21.35 Q14.7 22.4 16.75 22.7 18.9 23.0 17.65 21.35 L14.6 18.35 Q13.15 17.0 13.05 15.95 12.9 14.75 14.3 13.6 15.65 12.5 17.25 13.15 18.75 13.75 19.65 15.4 L20.3 18.0 Q20.5 18.8 21.95 17.75 L26.2 15.05 Q28.8 13.7 30.2 14.3 31.35 14.85 31.65 15.55 32.1 16.55 32.75 17.05 34.65 18.65 37.0 18.05 37.7 17.8 38.85 18.7 L40.2 19.55 41.05 19.5 41.1 19.7 Q41.1 20.65 40.5 20.65 L39.65 20.0 Q39.0 19.25 38.55 19.1 L37.3 19.0 35.3 19.1" fill="url(#gradient9)" fill-rule="evenodd" stroke="none"/>
      <path d="M35.1 18.85 Q33.85 18.85 32.55 17.8 L30.75 15.9 Q30.05 15.05 28.4 15.2 26.9 15.25 25.85 15.9 24.4 16.7 23.7 17.4 22.8 18.35 24.3 18.25 L26.9 17.65 Q28.0 17.35 28.95 18.25 L30.8 20.15 Q31.65 20.8 32.85 20.65 34.4 20.45 35.45 21.4 36.55 22.35 34.95 23.0 L33.25 23.5 33.2 23.3 34.15 22.7 Q34.85 22.1 33.95 21.7 L32.05 21.35 Q30.95 21.35 30.45 20.9 L29.0 19.35 Q28.1 18.45 27.3 18.35 L25.45 18.55 23.1 18.85 20.85 19.2 Q20.1 19.35 19.75 18.75 L18.85 16.6 17.85 14.8 Q17.05 14.05 16.05 13.95 14.7 13.7 14.4 15.3 14.1 16.75 15.3 17.9 L17.4 19.7 Q19.35 21.8 18.75 22.4 L17.8 23.3 Q16.95 23.75 15.5 23.3 L12.45 21.85 10.3 20.5 8.15 20.2 Q6.8 20.35 6.6 20.9 6.45 21.4 7.2 21.85 L9.05 22.5 10.75 22.8 12.5 23.3 14.65 24.95 Q15.9 26.1 17.1 25.55 L19.35 23.35 Q20.7 21.8 22.4 21.6 L25.2 21.25 Q25.95 21.25 27.6 22.1 28.95 22.7 30.0 22.9 30.6 23.0 30.75 23.3 31.05 23.85 33.1 24.7 L31.4 25.15 31.2 24.7 Q30.8 24.2 29.65 23.75 L27.35 22.75 25.3 22.2 22.95 22.4 Q21.75 22.7 20.95 23.15 L19.5 24.5 18.5 25.65 Q17.15 26.75 15.4 26.25 14.65 26.0 13.6 25.15 12.6 24.35 11.6 24.1 L8.7 23.35 6.3 22.4 Q4.5 21.35 4.65 20.35 4.8 19.1 6.95 18.7 9.15 18.3 10.5 19.2 L12.9 21.1 Q14.45 22.15 16.5 22.4 18.7 22.7 17.4 21.15 L14.4 18.15 Q12.9 16.75 12.8 15.65 12.7 14.5 14.1 13.4 15.45 12.3 17.05 12.95 18.5 13.55 19.4 15.15 L20.1 17.75 Q20.25 18.5 21.75 17.55 24.95 15.35 25.95 14.85 28.6 13.45 30.0 14.1 31.15 14.6 31.45 15.35 31.9 16.3 32.55 16.85 34.45 18.5 36.75 17.75 L38.4 17.9 Q39.15 18.2 39.45 18.85 39.75 19.7 40.85 19.45 40.85 20.4 40.3 20.4 L39.45 19.7 38.3 18.85 37.05 18.8 35.1 18.85" fill="url(#gradient10)" fill-rule="evenodd" stroke="none"/>
      <path d="M35.7 20.0 L37.05 20.95 Q37.55 21.6 37.25 22.55 L36.9 23.4 35.7 24.05 36.45 22.55 Q37.0 21.6 35.55 20.6 L32.85 19.15 31.25 18.05 Q30.35 17.85 27.8 19.2 25.4 20.5 22.9 20.5 L20.2 20.5 18.25 20.3 Q16.65 19.7 15.6 19.75 14.3 19.8 13.4 20.7 L12.35 22.2 11.4 23.3 Q10.95 23.95 11.25 24.75 11.6 25.55 13.2 26.1 L14.7 26.45 11.95 26.0 Q9.0 25.25 10.2 23.4 L11.0 22.55 11.9 21.35 Q12.75 19.9 14.45 19.2 L18.75 19.35 20.1 19.7 21.7 19.75 25.75 19.2 28.05 18.2 Q29.75 17.45 30.6 17.45 31.6 17.45 32.25 17.85 32.7 18.05 33.85 18.95 L35.7 20.0" fill="url(#gradient11)" fill-rule="evenodd" stroke="none"/>
      <path d="M35.5 19.6 L36.9 20.6 Q37.35 21.2 37.05 22.2 L36.65 23.0 35.45 23.7 36.25 22.2 Q36.75 21.2 35.3 20.2 L32.65 18.8 31.05 17.75 Q30.15 17.5 27.6 18.85 25.2 20.15 22.65 20.15 L19.95 20.15 18.0 19.95 Q16.35 19.4 15.4 19.4 14.1 19.4 13.2 20.35 L12.15 21.8 11.2 22.95 Q10.75 23.6 11.1 24.4 11.4 25.2 13.0 25.7 L14.5 26.15 11.7 25.65 Q8.8 24.85 10.0 23.0 L10.8 22.25 11.7 21.0 Q12.5 19.55 14.25 18.8 L18.5 18.95 Q19.2 19.3 19.85 19.35 L21.45 19.4 Q24.3 19.4 25.5 18.85 L27.8 17.85 Q29.55 17.15 30.45 17.15 L32.05 17.45 33.65 18.65 Q34.25 19.1 35.5 19.6" fill="url(#gradient12)" fill-rule="evenodd" stroke="none"/>
      <path d="M36.25 22.2 L34.05 19.35 33.0 18.35 31.65 18.5 30.0 19.8 Q29.1 20.75 29.25 21.5 L29.7 25.0 Q29.7 26.8 23.85 26.6 23.3 26.6 23.65 24.65 24.0 22.55 22.65 21.8 L20.1 21.85 17.9 23.0 Q16.5 23.3 15.3 24.05 14.25 24.65 13.8 25.35 13.35 26.15 12.6 26.0 L13.1 25.05 Q13.85 24.0 14.9 23.45 L17.55 22.4 Q19.1 21.8 19.65 21.35 20.35 20.75 21.5 20.65 22.65 20.6 23.5 21.15 25.05 22.2 25.05 24.45 L25.1 25.75 Q25.2 26.1 26.25 26.15 27.5 26.25 28.4 25.7 29.4 25.05 29.1 24.0 L28.35 22.05 Q28.05 21.05 28.65 20.15 29.65 18.65 31.2 17.9 33.3 16.85 34.4 18.5 L36.0 20.6 36.6 21.05 Q37.05 21.4 37.05 22.85 L36.55 23.3 Q36.75 22.9 36.25 22.2" fill="url(#gradient13)" fill-rule="evenodd" stroke="none"/>
      <path d="M15.4 13.25 Q15.75 13.25 15.4 13.5 L14.45 14.05 Q13.7 14.6 13.7 16.4 13.7 16.75 13.5 16.35 13.3 15.95 13.35 15.2 13.35 14.45 14.1 13.85 14.7 13.25 15.4 13.25" fill="#ffffff" fill-rule="evenodd" stroke="none"/>
      <path d="M7.1 18.95 L8.55 19.25 Q9.15 19.5 8.7 19.5 L7.45 19.8 5.9 20.0 Q5.25 20.0 5.85 19.5 6.45 18.95 7.1 18.95" fill="#ffffff" fill-rule="evenodd" stroke="none"/>
      <path d="M19.4 15.8 Q19.75 16.75 19.5 16.75 19.25 16.75 19.1 16.1 L19.1 15.4 19.4 15.8" fill="#ffffff" fill-rule="evenodd" stroke="none"/>
      <path d="M22.8 13.4 Q23.3 13.45 23.55 13.8 23.8 14.15 23.25 13.95 L22.2 13.9 21.35 13.9 Q21.05 13.85 21.7 13.6 L22.8 13.4" fill="#ffffff" fill-rule="evenodd" stroke="none"/>
      <path d="M29.45 14.15 Q29.95 14.3 29.9 14.55 L29.4 14.6 28.15 14.75 27.15 14.9 Q26.85 14.7 27.9 14.35 L29.45 14.15" fill="#ffffff" fill-rule="evenodd" stroke="none"/>
      <path d="M21.9 17.9 Q22.6 17.75 22.4 18.2 22.2 18.65 21.55 18.65 20.9 18.65 21.25 18.35 21.5 18.05 21.9 17.9" fill="#ffffff" fill-rule="evenodd" stroke="none"/>
      <path d="M37.4 18.05 Q38.35 18.05 37.8 18.35 L36.8 18.5 Q36.4 18.5 36.7 18.25 36.95 18.0 37.4 18.05" fill="#ffffff" fill-rule="evenodd" stroke="none"/>
      <path d="M16.35 18.75 Q17.1 18.9 16.7 18.95 L15.75 18.95 14.45 19.1 13.95 19.15 Q14.25 18.9 15.05 18.8 L16.35 18.75" fill="#ffffff" fill-rule="evenodd" stroke="none"/>
      <path d="M10.05 16.9 L10.7 16.85 10.4 17.1 Q10.1 17.2 9.6 17.75 9.2 18.2 9.05 18.05 8.85 17.9 9.3 17.45 L10.05 16.9" fill="#ffffff" fill-rule="evenodd" stroke="none"/>
      <path d="M23.1 21.2 L23.75 21.75 24.15 22.5 Q24.3 23.05 23.45 21.95 23.25 21.65 22.55 21.45 L21.75 21.15 Q21.6 20.95 22.05 20.95 L23.1 21.2" fill="#ffffff" fill-rule="evenodd" stroke="none"/>
      <path d="M25.9 21.5 Q26.55 21.55 26.35 21.8 L25.7 21.8 25.5 21.6 25.9 21.5" fill="#ffffff" fill-rule="evenodd" stroke="none"/>
      <path d="M20.55 22.45 Q21.15 22.1 20.4 23.05 L19.4 23.85 Q19.2 23.7 19.75 23.15 L20.55 22.45" fill="#ffffff" fill-rule="evenodd" stroke="none"/>
      <path d="M30.85 18.3 Q31.35 18.05 30.8 18.55 L29.7 19.55 Q29.35 19.9 29.15 20.45 L28.9 21.2 Q28.65 21.65 28.8 20.5 28.8 20.0 29.7 19.2 30.4 18.5 30.85 18.3" fill="#ffffff" fill-rule="evenodd" stroke="none"/>
      <path d="M34.65 21.45 L34.2 21.4 33.3 21.1 31.05 20.7 Q30.9 20.6 31.2 20.6 L32.1 20.7 33.75 20.95 34.65 21.45" fill="#ffffff" fill-rule="evenodd" stroke="none"/>
      <path d="M33.7 23.4 Q33.3 23.4 33.45 23.15 33.65 22.85 34.05 22.85 35.4 22.85 34.8 23.15 L33.7 23.4" fill="#ffffff" fill-rule="evenodd" stroke="none"/>
      <path d="M12.4 18.95 Q13.2 18.95 12.5 19.25 L11.6 19.3 Q11.15 18.85 12.4 18.95" fill="#efdfa1" fill-rule="evenodd" stroke="none"/>
      <path d="M8.85 20.6 L9.9 20.85 10.15 21.2 9.3 21.45 8.2 21.4 Q7.8 21.35 8.05 20.95 8.25 20.6 8.85 20.6" fill="#efdfa1" fill-rule="evenodd" stroke="none"/>
      <path d="M15.4 20.0 Q16.1 20.0 15.95 20.3 15.75 20.6 15.25 20.7 L14.4 21.0 13.65 21.05 Q13.2 20.9 13.95 20.45 14.7 20.05 15.4 20.0" fill="#efdfa1" fill-rule="evenodd" stroke="none"/>
      <path d="M17.85 20.65 Q18.45 21.35 18.0 21.2 L17.3 20.75 Q17.1 20.45 17.25 20.3 17.5 20.2 17.85 20.65" fill="#ffffff" fill-rule="evenodd" stroke="none"/>
      <path d="M15.35 22.25 L16.65 22.7 16.05 22.85 14.85 22.6 14.0 22.05 Q13.9 21.8 14.25 21.95 L15.35 22.25" fill="#ffffff" fill-rule="evenodd" stroke="none"/>
      <path d="M19.2 20.6 Q19.65 20.6 19.5 20.95 19.3 21.3 18.9 21.15 18.55 21.0 18.7 20.75 L19.2 20.6" fill="#ffffff" fill-rule="evenodd" stroke="none"/>
      <path d="M21.7 15.95 Q22.7 16.1 22.65 16.3 L22.1 16.55 21.15 16.4 20.4 16.15 Q20.2 15.95 20.6 15.9 L21.7 15.95" fill="#ffffff" fill-rule="evenodd" stroke="none"/>
      <path d="M25.3 17.15 Q27.4 17.15 26.5 17.4 L24.95 17.65 Q24.55 17.6 24.7 17.4 24.9 17.15 25.3 17.15" fill="#efdfa1" fill-rule="evenodd" stroke="none"/>
      <path d="M26.05 18.8 Q26.8 18.5 26.4 18.8 L25.45 19.4 23.9 19.7 22.5 19.7 Q22.2 19.7 22.95 19.45 L24.3 19.25 25.2 19.1 26.05 18.8" fill="#ffffff" fill-rule="evenodd" stroke="none"/>
      <path d="M26.45 24.6 Q26.65 24.6 26.85 24.9 27.0 25.2 26.65 25.3 L25.85 25.25 Q25.45 25.05 25.35 24.7 25.2 24.5 25.5 24.5 L26.45 24.6" fill="#efdfa1" fill-rule="evenodd" stroke="none"/>
      <path d="M23.15 24.35 Q23.8 24.0 23.05 25.35 22.9 25.6 22.35 25.65 21.9 25.7 21.6 25.4 21.45 25.25 22.0 24.95 L23.15 24.35" fill="#efdfa1" fill-rule="evenodd" stroke="none"/>
      <path d="M12.9 23.75 Q13.5 24.15 12.85 24.05 12.15 24.0 11.95 23.7 11.7 23.45 12.0 23.45 L12.9 23.75" fill="#ffffff" fill-rule="evenodd" stroke="none"/>
      <path d="M14.9 23.45 Q15.45 23.35 14.85 23.9 L13.95 24.55 Q13.6 24.65 14.05 24.1 L14.9 23.45" fill="#ffffff" fill-rule="evenodd" stroke="none"/>
      <path d="M31.6 17.35 Q33.25 17.85 33.55 18.8 33.25 18.5 32.1 18.0 L30.8 17.45 Q30.6 17.35 30.9 17.3 L31.6 17.35" fill="#ffffff" fill-rule="evenodd" stroke="none"/>
      <path d="M27.75 19.5 Q28.8 19.75 28.2 20.0 L26.9 20.15 Q26.4 20.0 26.85 19.7 L27.75 19.5" fill="#efdfa1" fill-rule="evenodd" stroke="none"/>
      <path d="M19.05 18.4 Q19.5 18.35 19.45 18.75 L19.05 19.1 Q18.7 19.05 18.7 18.75 18.7 18.5 19.05 18.4" fill="#ffffff" fill-rule="evenodd" stroke="none"/>
      <path d="M17.45 15.5 Q17.8 15.4 17.55 15.7 L16.95 16.2 Q15.9 16.8 15.35 16.7 15.05 16.65 15.45 16.45 L16.15 16.25 16.7 15.95 17.45 15.5" fill="#ffffff" fill-rule="evenodd" stroke="none"/>
      <path d="M37.75 19.9 L38.85 19.9 38.9 20.45 Q38.9 23.2 33.75 25.1 28.65 27.05 21.35 27.05 14.1 27.05 8.95 25.1 3.8 23.2 3.8 20.45 L3.9 19.9 5.15 19.9 5.15 20.2 Q5.15 22.65 9.9 24.35 14.7 26.05 21.45 26.05 28.2 26.05 33.0 24.35 37.75 22.65 37.75 20.2 L37.75 19.9" fill="#ffffff" fill-rule="evenodd" stroke="none"/>
      <path d="M14.5 16.8 L16.1 17.5 Q17.35 18.05 17.25 18.3 17.05 18.6 15.55 18.75 L13.55 18.9 Q12.6 19.1 12.1 20.05 L12.1 21.1 Q12.1 21.75 11.65 22.05 10.55 22.8 10.55 21.5 L11.15 20.2 Q11.5 19.75 10.35 19.1 L8.45 18.35 Q7.4 17.75 9.15 17.2 L11.15 17.5 12.85 17.35 12.35 15.8 Q12.1 14.85 13.1 15.35 L12.5 15.8 13.7 15.65 13.1 15.35 13.35 15.25 14.45 15.35 Q14.05 16.4 14.5 16.8" fill="#b54624" fill-rule="evenodd" stroke="none"/>
      <path d="M25.8 14.95 L24.9 14.55 Q25.7 14.95 24.3 16.2 22.9 17.4 24.6 17.9 24.0 18.8 22.25 18.35 L19.45 17.6 Q19.15 16.65 20.3 16.35 L22.4 16.05 Q21.9 14.75 23.5 14.15 25.1 13.55 25.8 14.95" fill="#b54624" fill-rule="evenodd" stroke="none"/>
      <path d="M27.95 16.75 Q27.75 15.8 29.1 15.75 L31.0 16.15 32.35 15.7 Q32.75 15.65 33.45 16.3 L34.1 17.4 34.6 17.75 Q34.85 17.85 34.6 18.3 34.15 19.25 33.25 18.75 L31.95 17.75 Q31.15 17.25 30.05 17.0 L27.95 16.75" fill="#b54624" fill-rule="evenodd" stroke="none"/>
      <path d="M21.85 21.05 L19.8 20.8 Q19.0 20.3 20.3 19.85 L22.4 19.5 24.25 19.85 25.8 19.65 26.8 18.55 28.5 18.7 27.75 18.35 Q29.45 18.75 29.0 19.35 28.25 20.5 28.3 20.8 L29.7 21.65 Q30.8 22.15 30.25 22.85 29.85 23.5 28.75 23.05 L27.0 22.35 24.75 22.3 Q23.55 22.2 24.15 21.2 L21.85 21.05" fill="#b54624" fill-rule="evenodd" stroke="none"/>
      <path d="M33.5 19.65 L34.35 20.1 34.4 20.15 33.5 19.65 M34.4 20.2 Q34.6 20.5 34.45 20.9 L32.35 20.75 Q30.9 20.45 31.1 19.8 31.3 19.15 32.65 19.55 L34.4 20.2" fill="#b54624" fill-rule="evenodd" stroke="none"/>
      <path d="M29.95 24.45 L30.1 24.75 Q29.35 25.35 27.3 25.6 L24.25 25.55 25.65 24.45 Q26.5 23.75 27.15 23.65 28.1 23.45 29.0 23.95 L29.95 24.45" fill="#b54624" fill-rule="evenodd" stroke="none"/>
      <path d="M14.35 22.75 L16.25 22.6 17.45 21.35 Q18.05 20.6 19.1 21.15 19.8 21.6 19.1 22.15 L17.65 23.05 18.4 24.15 20.05 24.35 22.2 24.45 Q23.35 24.65 23.2 25.65 L15.9 25.65 12.85 25.1 10.2 24.25 Q11.1 24.5 11.6 23.8 L12.7 22.65 14.35 22.75" fill="#b54624" fill-rule="evenodd" stroke="none"/>
      <path d="M17.85 22.95 L17.65 22.95 Q18.05 22.05 19.2 22.2 19.55 23.2 18.45 23.65 L18.8 24.0 19.25 24.35 Q18.6 24.8 17.65 24.05 16.65 23.25 17.85 22.95" fill="#782e18" fill-rule="evenodd" stroke="none"/>
      <path d="M13.9 23.8 L13.7 23.95 14.7 24.35 Q14.05 24.95 13.65 24.6 13.2 24.2 13.9 23.8" fill="#782e18" fill-rule="evenodd" stroke="none"/>
      <path d="M25.8 20.65 L25.75 20.65 Q25.85 21.15 27.0 21.85 28.05 22.5 28.9 22.75 28.1 23.05 27.05 22.75 L25.2 22.35 Q25.35 23.45 24.7 23.2 24.0 23.0 23.65 22.3 L23.2 21.15 Q23.0 20.85 21.65 20.6 21.9 19.95 23.45 20.2 L25.8 20.65" fill="#782e18" fill-rule="evenodd" stroke="none"/>
      <path d="M28.35 19.95 L27.55 19.8 Q29.4 19.85 28.45 20.55 L27.95 20.65 Q27.6 20.5 27.75 19.95 L28.35 19.95" fill="#782e18" fill-rule="evenodd" stroke="none"/>
      <path d="M29.65 17.0 L28.75 16.45 30.5 16.4 31.55 16.55 31.65 16.85 31.75 17.35 Q32.9 17.6 33.45 18.45 33.9 19.4 32.3 18.75 L31.45 18.15 30.7 17.4 29.65 17.0" fill="#782e18" fill-rule="evenodd" stroke="none"/>
      <path d="M18.7 17.15 L19.45 17.05 19.15 17.15 19.3 17.2 Q19.55 17.4 19.2 17.9 18.15 17.85 18.35 17.45 L18.6 17.2 18.45 17.2 18.7 17.15" fill="#782e18" fill-rule="evenodd" stroke="none"/>
      <path d="M16.0 17.4 L18.6 18.35 16.25 18.95 13.85 19.45 Q12.8 19.8 12.15 21.25 11.55 22.6 10.95 22.75 10.8 20.9 11.4 19.95 12.15 18.8 14.25 18.45 13.25 17.7 13.1 16.65 L13.8 16.75 14.1 15.95 Q14.75 16.85 16.0 17.4" fill="#782e18" fill-rule="evenodd" stroke="none"/>
      <path d="M17.55 14.95 L17.45 14.95 Q18.55 15.0 18.55 15.65 18.5 16.3 17.5 16.05 16.55 15.8 16.9 15.2 17.1 14.9 17.55 14.95" fill="#782e18" fill-rule="evenodd" stroke="none"/>
      <path d="M32.5 21.05 L32.15 19.95 32.95 20.8 Q33.45 21.25 33.05 21.6 L31.65 21.75 30.15 21.2 Q30.3 20.4 31.2 20.35 32.1 20.35 32.5 21.05" fill="#782e18" fill-rule="evenodd" stroke="none"/>
      <path d="M19.85 18.95 L18.85 18.8 Q19.35 18.35 20.1 18.55 20.9 18.75 20.55 19.3 20.35 19.65 19.35 19.95 L17.85 20.2 Q17.7 19.55 18.35 19.2 L19.85 18.95" fill="#782e18" fill-rule="evenodd" stroke="none"/>
      <path d="M25.85 16.8 L27.15 16.95 Q27.15 17.55 26.35 17.75 L24.8 17.6 Q24.9 16.85 25.85 16.8" fill="#782e18" fill-rule="evenodd" stroke="none"/>
      <path d="M23.0 23.2 L22.75 23.2 23.7 23.45 Q24.5 23.85 24.35 24.45 22.2 24.35 21.2 23.6 L21.95 23.15 23.0 23.2" fill="#782e18" fill-rule="evenodd" stroke="none"/>
      <path d="M14.3 21.5 L13.9 21.35 Q15.55 21.15 15.05 22.0 14.6 22.8 13.3 22.35 13.15 21.55 14.3 21.5" fill="#782e18" fill-rule="evenodd" stroke="none"/>
      <path d="M25.1 14.4 L28.1 14.5 Q28.15 15.2 26.4 15.5 24.15 15.85 23.6 16.3 23.35 15.55 23.95 14.95 24.35 14.45 25.1 14.4 L25.0 14.35 25.25 14.35 25.1 14.4" fill="#782e18" fill-rule="evenodd" stroke="none"/>
      <path d="M14.5 15.2 L14.35 15.25 14.3 15.45 16.45 15.35 Q16.7 16.2 16.0 17.05 L14.25 16.45 Q13.55 16.15 14.1 15.2 L14.5 15.2" fill="#90a701" fill-rule="evenodd" stroke="none"/>
      <path d="M20.25 13.65 L19.85 13.95 Q20.55 13.95 20.9 14.45 L21.0 15.45 Q19.55 15.6 19.15 14.8 18.8 14.0 20.25 13.65" fill="#90a701" fill-rule="evenodd" stroke="none"/>
      <path d="M27.45 15.35 L28.5 15.2 Q28.55 16.2 27.85 16.4 L26.65 16.25 Q26.05 15.95 26.25 15.6 L27.45 15.35" fill="#90a701" fill-rule="evenodd" stroke="none"/>
      <path d="M29.55 18.2 L28.95 18.65 Q29.85 19.05 29.8 19.65 L28.35 19.6 28.85 18.8 28.95 18.65 28.55 18.5 29.55 18.2" fill="#90a701" fill-rule="evenodd" stroke="none"/>
      <path d="M27.5 21.55 L27.65 21.6 Q28.05 21.8 28.1 22.25 28.3 23.15 26.8 22.65 25.55 22.25 26.2 21.8 26.55 21.6 27.0 21.55 L27.5 21.55" fill="#90a701" fill-rule="evenodd" stroke="none"/>
      <path d="M19.85 23.35 L19.25 23.65 Q20.55 23.45 20.7 24.2 20.9 24.9 19.5 24.95 17.85 24.95 18.4 24.05 18.85 23.2 19.85 23.35" fill="#90a701" fill-rule="evenodd" stroke="none"/>
      <path d="M11.35 21.25 L11.3 21.35 Q12.3 21.0 12.3 22.0 12.35 23.05 11.3 22.95 10.3 22.8 10.85 21.85 L11.3 21.35 11.15 21.35 11.35 21.25" fill="#90a701" fill-rule="evenodd" stroke="none"/>
      <path d="M8.95 18.35 L10.5 18.6 Q11.25 19.05 10.35 19.45 9.45 19.85 9.0 19.2 8.5 18.6 8.95 18.1 L8.95 18.35" fill="#90a701" fill-rule="evenodd" stroke="none"/>
      <path d="M33.1 16.8 L32.7 16.8 Q33.9 16.6 34.5 17.35 L34.25 18.2 33.9 18.05 33.65 17.8 32.7 17.75 Q32.5 17.15 33.1 16.8" fill="#90a701" fill-rule="evenodd" stroke="none"/>
    </g>
    <linearGradient gradientTransform="matrix(0.0206, 0.0, 0.0, -0.0206, 21.55, 20.35)" gradientUnits="userSpaceOnUse" id="gradient1" spreadMethod="pad" x1="-819.2" x2="819.2">
      <stop offset="0.0" stop-color="#9cadb5"/>
      <stop offset="1.0" stop-color="#e0e0e0"/>
    </linearGradient>
    <radialGradient cx="0" cy="0" gradientTransform="matrix(-0.0021, 0.0191, 0.0179, 0.0023, 19.7, 16.4)" gradientUnits="userSpaceOnUse" id="gradient2" r="819.2" spreadMethod="pad">
      <stop offset="0.0" stop-color="#f2db8a"/>
      <stop offset="1.0" stop-color="#877531"/>
    </radialGradient>
    <radialGradient cx="0" cy="0" gradientTransform="matrix(-3.0E-4, 0.0027, 0.0025, 3.0E-4, 15.8, 15.7)" gradientUnits="userSpaceOnUse" id="gradient3" r="819.2" spreadMethod="pad">
      <stop offset="0.0" stop-color="#d4c17d"/>
      <stop offset="1.0" stop-color="#b3a051"/>
    </radialGradient>
    <radialGradient cx="0" cy="0" gradientTransform="matrix(-3.0E-4, 0.003, 0.0028, 4.0E-4, 15.2, 19.45)" gradientUnits="userSpaceOnUse" id="gradient4" r="819.2" spreadMethod="pad">
      <stop offset="0.0" stop-color="#d4c17d"/>
      <stop offset="1.0" stop-color="#b3a051"/>
    </radialGradient>
    <radialGradient cx="0" cy="0" gradientTransform="matrix(-2.0E-4, 0.0023, 0.0022, 3.0E-4, 30.6, 19.65)" gradientUnits="userSpaceOnUse" id="gradient5" r="819.2" spreadMethod="pad">
      <stop offset="0.0" stop-color="#d4c17d"/>
      <stop offset="1.0" stop-color="#b3a051"/>
    </radialGradient>
    <radialGradient cx="0" cy="0" gradientTransform="matrix(-0.0019, 0.0175, 0.0163, 0.002, 19.35, 17.9)" gradientUnits="userSpaceOnUse" id="gradient6" r="819.2" spreadMethod="pad">
      <stop offset="0.0" stop-color="#d4c17d"/>
      <stop offset="1.0" stop-color="#b3a051"/>
    </radialGradient>
    <radialGradient cx="0" cy="0" gradientTransform="matrix(-0.002, 0.0179, 0.0168, 0.0021, 20.55, 14.45)" gradientUnits="userSpaceOnUse" id="gradient7" r="819.2" spreadMethod="pad">
      <stop offset="0.0" stop-color="#c7b577"/>
      <stop offset="1.0" stop-color="#bdaa57"/>
    </radialGradient>
    <radialGradient cx="0" cy="0" gradientTransform="matrix(-0.002, 0.0179, 0.0168, 0.0021, 20.25, 14.15)" gradientUnits="userSpaceOnUse" id="gradient8" r="819.2" spreadMethod="pad">
      <stop offset="0.0" stop-color="#e3d49d"/>
      <stop offset="1.0" stop-color="#e0ca70"/>
    </radialGradient>
    <radialGradient cx="0" cy="0" gradientTransform="matrix(-0.0024, 0.0222, 0.0208, 0.0026, 20.4, 14.25)" gradientUnits="userSpaceOnUse" id="gradient9" r="819.2" spreadMethod="pad">
      <stop offset="0.0" stop-color="#e6d189"/>
      <stop offset="1.0" stop-color="#bdaa57"/>
    </radialGradient>
    <radialGradient cx="0" cy="0" gradientTransform="matrix(-0.0024, 0.0222, 0.0208, 0.0026, 20.15, 14.0)" gradientUnits="userSpaceOnUse" id="gradient10" r="819.2" spreadMethod="pad">
      <stop offset="0.0" stop-color="#fff6d4"/>
      <stop offset="1.0" stop-color="#e0ca70"/>
    </radialGradient>
    <radialGradient cx="0" cy="0" gradientTransform="matrix(-0.0018, 0.0164, 0.0153, 0.0019, 21.65, 18.35)" gradientUnits="userSpaceOnUse" id="gradient11" r="819.2" spreadMethod="pad">
      <stop offset="0.0" stop-color="#d6c894"/>
      <stop offset="1.0" stop-color="#a89642"/>
    </radialGradient>
    <radialGradient cx="0" cy="0" gradientTransform="matrix(-0.0018, 0.0164, 0.0153, 0.0019, 21.45, 18.0)" gradientUnits="userSpaceOnUse" id="gradient12" r="819.2" spreadMethod="pad">
      <stop offset="0.0" stop-color="#fff6d4"/>
      <stop offset="1.0" stop-color="#e0ca70"/>
    </radialGradient>
    <radialGradient cx="0" cy="0" gradientTransform="matrix(-0.0016, 0.015, 0.014, 0.0018, 23.1, 18.35)" gradientUnits="userSpaceOnUse" id="gradient13" r="819.2" spreadMethod="pad">
      <stop offset="0.0" stop-color="#fff6d4"/>
      <stop offset="1.0" stop-color="#e0ca70"/>
    </radialGradient>
  </defs>
</svg>
