<?xml version="1.0" encoding="UTF-8" standalone="no"?>
<svg xmlns:xlink="http://www.w3.org/1999/xlink" height="35.25px" width="59.2px" xmlns="http://www.w3.org/2000/svg">
  <g transform="matrix(1.0, 0.0, 0.0, 1.0, 0.0, 0.0)">
    <use height="35.25" transform="matrix(1.0, 0.0, 0.0, 1.0, 0.0, 0.0)" width="59.2" xlink:href="#shape0"/>
  </g>
  <defs>
    <g id="shape0" transform="matrix(1.0, 0.0, 0.0, 1.0, 0.0, 0.0)">
      <path d="M56.2 3.75 L2.65 6.55 2.55 6.3 0.3 1.75 49.65 0.0 59.2 1.5 56.2 3.75" fill="url(#gradient0)" fill-rule="evenodd" stroke="none"/>
      <path d="M48.25 1.45 L48.95 1.55 45.3 1.7 44.65 1.7 43.85 1.7 41.6 1.5 40.9 1.35 Q40.7 1.3 40.85 1.3 L40.9 1.2 41.5 1.1 43.75 1.05 41.95 0.65 43.9 0.6 44.9 0.8 45.1 0.9 45.3 0.9 45.4 0.9 47.8 1.45 48.25 1.45 M43.05 1.45 L44.5 1.55 46.05 1.5 44.45 1.2 42.75 1.3 42.65 1.3 43.05 1.45" fill="#fffbeb" fill-rule="evenodd" stroke="none"/>
      <path d="M37.45 1.45 L36.7 1.5 35.95 1.5 36.1 1.5 36.3 1.5 38.05 1.7 37.45 1.45 M40.0 1.9 L38.2 1.9 30.45 1.1 31.95 1.0 34.45 1.3 37.0 1.2 36.0 0.9 37.8 0.8 40.0 1.9" fill="#fffbeb" fill-rule="evenodd" stroke="none"/>
      <path d="M34.05 2.1 L29.85 2.25 29.05 2.2 26.85 2.05 26.1 1.9 26.1 1.8 26.15 1.7 26.7 1.7 23.25 1.3 25.4 1.25 28.2 1.6 28.95 1.55 27.2 1.2 29.05 1.1 30.3 1.4 30.55 1.5 32.9 1.95 33.3 1.95 34.05 2.1 M29.65 1.7 L28.0 1.8 27.9 1.85 28.25 1.95 31.15 2.05 29.65 1.7" fill="#fffbeb" fill-rule="evenodd" stroke="none"/>
      <path d="M26.35 2.35 L24.25 2.45 23.45 2.5 21.5 2.5 20.75 2.35 22.1 2.3 18.0 1.5 20.35 1.4 24.1 2.2 25.45 2.2 26.35 2.35" fill="#fffbeb" fill-rule="evenodd" stroke="none"/>
      <path d="M17.35 2.55 L16.7 2.5 15.0 2.45 14.75 2.75 12.35 2.85 12.3 2.8 12.4 2.7 12.5 2.5 12.6 2.3 12.9 1.9 13.05 1.75 13.15 1.7 13.55 1.7 14.3 1.65 15.4 1.65 15.1 1.9 15.05 2.05 15.0 2.1 15.0 2.2 15.1 2.25 15.45 2.25 16.1 2.3 20.55 2.55 18.35 2.65 17.35 2.55" fill="#fffbeb" fill-rule="evenodd" stroke="none"/>
      <path d="M56.2 3.75 L2.65 6.55 2.55 6.3 0.3 1.75 49.65 0.0 59.2 1.5 56.2 3.75" fill="url(#gradient1)" fill-rule="evenodd" stroke="none"/>
      <path d="M5.5 3.85 L0.3 1.75 3.0 2.1 4.55 3.0 5.5 3.65 Q5.7 3.7 5.5 3.85" fill="#73726a" fill-rule="evenodd" stroke="none"/>
      <path d="M5.8 3.6 L5.35 3.65 Q3.45 2.35 1.7 1.9 L0.3 1.75 2.9 1.9 5.85 3.2 5.8 3.6" fill="#d4b28d" fill-rule="evenodd" stroke="none"/>
      <path d="M4.9 3.25 Q5.15 3.3 5.5 3.65 L5.5 33.1 5.5 35.25 4.9 3.25" fill="#fffbeb" fill-rule="evenodd" stroke="none"/>
      <path d="M7.3 4.95 L10.4 27.0 5.5 35.25 0.0 31.35 0.3 1.75 5.5 3.85 7.3 4.95" fill="url(#gradient2)" fill-rule="evenodd" stroke="none"/>
      <path d="M2.6 7.0 L2.6 7.9 2.7 8.35 2.8 8.6 2.95 8.7 3.15 8.8 3.35 8.75 3.5 8.6 3.65 8.4 3.7 8.25 3.7 7.3 2.6 7.0 M3.65 5.65 L4.1 5.7 4.15 8.45 4.05 9.35 3.8 9.7 3.25 9.95 2.7 9.75 2.5 9.5 2.35 9.25 2.2 8.6 2.1 7.55 2.1 6.8 0.85 6.4 0.8 5.0 1.9 5.4 1.95 5.45 3.65 5.95 3.65 5.65" fill="#eff2d1" fill-rule="evenodd" stroke="none"/>
      <path d="M4.15 13.7 L0.95 15.05 0.9 13.9 2.0 13.5 1.95 11.6 0.9 10.9 0.9 9.5 4.15 12.35 4.15 13.7 M2.7 13.3 L2.85 13.3 2.95 13.2 3.5 12.95 2.7 12.25 2.7 13.3" fill="#eff2d1" fill-rule="evenodd" stroke="none"/>
      <path d="M3.7 16.7 L4.2 16.75 4.2 18.45 4.2 19.0 4.25 19.45 4.1 20.3 3.9 20.7 3.3 20.9 2.8 20.7 2.45 20.2 2.3 19.55 1.0 20.35 0.95 18.75 1.1 18.7 2.2 18.35 2.2 17.8 0.95 17.45 0.9 16.05 1.85 16.4 2.0 16.45 2.1 16.5 3.7 17.0 3.7 16.7 M2.75 19.3 L2.9 19.55 3.05 19.7 3.25 19.75 3.45 19.7 3.65 19.6 3.75 19.4 3.8 19.2 3.8 18.7 3.75 18.3 2.7 18.0 2.7 18.9 2.75 19.3" fill="#eff2d1" fill-rule="evenodd" stroke="none"/>
      <path d="M1.05 24.3 L0.95 22.5 3.6 23.3 3.65 22.35 4.25 22.5 4.3 25.2 4.3 25.6 4.3 25.8 4.25 25.95 4.2 26.0 3.7 25.8 3.7 24.85 1.5 24.45 1.05 24.3" fill="#eff2d1" fill-rule="evenodd" stroke="none"/>
      <path d="M1.1 27.9 L1.1 27.6 1.1 26.25 1.95 27.6 2.55 28.5 2.75 28.75 2.85 28.85 4.3 26.8 4.3 28.3 4.3 28.35 3.85 29.0 3.35 29.6 4.35 31.1 4.35 32.9 3.8 32.15 1.25 28.2 1.1 27.9" fill="#eff2d1" fill-rule="evenodd" stroke="none"/>
      <path d="M7.3 4.95 L10.4 27.0 5.5 35.25 0.0 31.35 0.3 1.75 5.5 3.85 7.3 4.95" fill="url(#gradient3)" fill-rule="evenodd" stroke="none"/>
      <path d="M58.9 32.1 L5.5 35.25 5.5 3.85 59.2 1.5 58.9 32.1" fill="url(#gradient4)" fill-rule="evenodd" stroke="none"/>
      <path d="M56.2 3.75 Q58.0 4.1 57.95 10.3 57.9 13.6 57.45 18.3 L57.3 24.2 Q57.0 28.55 55.55 29.7 54.15 30.9 42.1 31.65 L25.95 32.5 16.6 33.2 Q11.3 33.2 9.15 31.5 7.05 29.8 7.1 20.8 L7.85 9.3 Q8.1 5.6 13.7 5.1 L39.0 3.65 Q53.7 3.3 56.2 3.75" fill="#301f0c" fill-rule="evenodd" stroke="none"/>
      <path d="M48.5 24.6 Q47.1 25.35 47.1 25.9 L47.1 26.45 47.7 27.45 Q48.7 28.45 51.1 28.4 53.4 28.35 54.65 27.0 L55.4 25.6 Q54.9 24.65 53.45 24.15 L53.4 21.1 57.4 21.5 Q57.3 28.3 55.55 29.7 54.15 30.9 42.1 31.65 L25.95 32.5 16.6 33.2 Q11.3 33.2 9.15 31.5 7.6 30.25 7.25 25.05 L11.95 25.5 11.95 27.1 Q10.65 27.8 10.65 28.4 L10.65 28.9 11.25 29.9 Q12.3 30.9 14.65 30.8 16.95 30.7 18.15 29.3 L18.9 27.9 Q18.35 26.9 16.9 26.5 L16.85 25.5 Q23.15 25.4 29.15 24.1 L38.7 22.25 48.65 21.05 48.5 24.6 M44.3 23.9 Q42.3 23.3 33.05 24.9 L24.15 26.35 Q19.35 27.5 20.75 28.9 22.1 30.3 25.8 30.6 L31.45 30.6 38.8 29.6 Q44.05 28.7 44.55 28.3 45.6 27.65 46.05 26.4 46.6 24.7 44.3 23.9" fill="#383523" fill-rule="evenodd" stroke="none"/>
      <path d="M12.45 28.25 Q13.2 28.85 14.35 28.7 15.5 28.5 16.3 27.85 L16.9 27.2 16.9 26.5 Q18.35 26.9 18.9 27.9 L18.15 29.3 Q16.95 30.7 14.65 30.8 12.3 30.9 11.25 29.9 L10.65 28.9 10.65 28.4 Q10.65 27.8 11.95 27.1 L11.95 27.6 12.45 28.25" fill="#755f23" fill-rule="evenodd" stroke="none"/>
      <path d="M12.1 19.6 L11.75 6.95 13.45 7.3 Q14.55 7.3 15.3 6.8 L15.55 6.6 16.2 6.7 16.9 27.2 16.3 27.85 Q15.5 28.5 14.35 28.7 13.2 28.85 12.45 28.25 L11.95 27.6 12.1 19.6" fill="#967f42" fill-rule="evenodd" stroke="none"/>
      <path d="M15.3 6.8 Q14.55 7.3 13.45 7.3 L11.75 6.95 11.45 6.8 Q10.85 6.4 10.45 5.85 11.5 5.35 13.7 5.1 L17.35 4.7 15.55 6.6 15.3 6.8" fill="#755f23" fill-rule="evenodd" stroke="none"/>
      <path d="M48.5 24.6 L48.5 25.1 48.95 25.75 Q49.7 26.4 50.85 26.3 52.7 26.05 53.45 24.9 L53.45 24.15 Q54.9 24.65 55.4 25.6 L54.65 27.0 Q53.4 28.35 51.1 28.4 48.7 28.45 47.7 27.45 L47.1 26.45 47.1 25.9 Q47.1 25.35 48.5 24.6" fill="#755f23" fill-rule="evenodd" stroke="none"/>
      <path d="M48.85 17.15 L48.85 4.5 50.5 4.9 52.35 4.45 52.65 4.25 53.3 4.4 53.45 24.9 Q52.7 26.05 50.85 26.3 49.7 26.4 48.95 25.75 L48.5 25.1 48.85 17.15" fill="#967f42" fill-rule="evenodd" stroke="none"/>
      <path d="M52.35 4.45 L50.5 4.9 48.85 4.5 48.5 4.3 47.7 3.5 53.4 3.55 52.65 4.25 52.35 4.45" fill="#755f23" fill-rule="evenodd" stroke="none"/>
      <path d="M22.3 10.5 L23.0 11.5 24.1 13.4 Q24.55 14.5 24.9 22.3 L23.9 22.3 19.05 22.8 Q19.15 17.8 19.5 15.3 19.7 13.8 21.0 12.0 L22.3 10.5 M22.1 14.5 L21.4 15.3 Q20.7 16.35 20.6 17.2 L20.35 21.4 22.9 21.15 23.45 21.1 23.0 16.1 22.45 15.1 22.1 14.5" fill="#472e12" fill-rule="evenodd" stroke="none"/>
      <path d="M20.6 17.2 Q20.7 16.35 21.4 15.3 L22.1 14.5 22.45 15.1 23.0 16.1 23.45 21.1 22.9 21.15 20.35 21.4 20.6 17.2" fill="#8f7a43" fill-rule="evenodd" stroke="none"/>
      <path d="M32.75 10.75 L33.85 12.7 Q34.3 13.8 34.65 21.5 L33.65 21.6 28.75 22.1 Q28.9 17.1 29.25 14.6 29.45 13.05 30.75 11.25 L32.05 9.7 32.75 10.75 M33.15 20.35 L32.7 15.4 32.15 14.35 31.8 13.75 31.15 14.6 Q30.5 15.65 30.35 16.5 30.15 17.9 30.1 20.7 L32.65 20.4 33.15 20.35" fill="#472e12" fill-rule="evenodd" stroke="none"/>
      <path d="M32.7 15.4 L33.15 20.35 32.65 20.4 30.1 20.7 Q30.15 17.9 30.35 16.5 30.5 15.65 31.15 14.6 L31.8 13.75 32.15 14.35 32.7 15.4" fill="#8f7a43" fill-rule="evenodd" stroke="none"/>
      <path d="M40.5 15.15 Q40.3 16.5 40.25 19.3 L42.75 19.1 43.3 19.05 Q43.1 14.7 42.9 14.1 L42.3 13.05 41.9 12.45 41.3 13.3 Q40.6 14.3 40.5 15.15 M42.15 8.4 L42.9 9.45 43.95 11.3 Q44.45 12.5 44.75 20.2 L43.75 20.3 38.9 20.7 Q39.05 15.7 39.35 13.3 39.55 11.7 40.9 9.9 41.55 9.0 42.15 8.4" fill="#472e12" fill-rule="evenodd" stroke="none"/>
      <path d="M40.5 15.15 Q40.6 14.3 41.3 13.3 L41.9 12.45 42.3 13.05 42.9 14.1 Q43.1 14.7 43.3 19.05 L42.75 19.1 40.25 19.3 Q40.3 16.5 40.5 15.15" fill="#8f7a43" fill-rule="evenodd" stroke="none"/>
      <path d="M44.3 23.9 Q46.6 24.7 46.05 26.4 45.6 27.65 44.55 28.3 44.05 28.7 38.8 29.6 L31.45 30.6 25.8 30.6 Q22.1 30.3 20.75 28.9 19.35 27.5 24.15 26.35 L33.05 24.9 Q42.3 23.3 44.3 23.9" fill="#663b28" fill-rule="evenodd" stroke="none"/>
      <path d="M41.3 24.9 Q42.85 25.35 42.45 26.45 L41.5 27.7 37.7 28.5 32.85 29.15 Q27.25 29.5 25.75 28.05 24.9 27.15 28.0 26.45 L33.9 25.5 41.3 24.9" fill="#806c38" fill-rule="evenodd" stroke="none"/>
      <path d="M19.8 5.1 L20.75 5.45 21.65 6.35 22.3 8.3 22.3 10.1 21.85 11.15 21.5 11.65 21.45 11.7 20.35 12.35 18.7 12.7 18.35 12.7 18.35 15.7 18.15 16.3 17.6 16.5 15.6 16.65 15.55 16.65 15.0 16.45 14.75 15.85 14.85 12.55 14.9 12.35 14.9 8.1 Q14.5 7.9 14.4 7.4 L14.35 6.05 Q14.3 5.7 14.55 5.5 14.75 5.25 15.1 5.2 L16.45 5.1 18.4 5.05 18.95 5.0 19.8 5.1 M16.25 6.75 L16.5 7.35 16.5 12.35 16.45 12.65 16.35 15.0 16.75 15.0 16.75 11.95 Q16.75 11.3 17.4 11.15 16.85 11.05 16.85 10.4 L16.75 7.2 16.95 6.7 16.2 6.7 16.25 6.75 M18.85 8.1 L18.65 7.85 18.35 7.85 18.4 9.6 18.8 9.55 19.05 9.5 19.1 9.3 19.1 8.7 19.05 8.4 18.85 8.1" fill="#261407" fill-rule="evenodd" stroke="none"/>
      <path d="M25.1 6.4 L25.0 6.9 Q25.15 6.7 25.55 6.65 L25.9 6.7 25.8 6.4 25.1 6.4 M27.1 5.3 L30.35 14.7 Q30.5 15.1 30.3 15.35 30.05 15.7 29.7 15.7 L28.1 15.9 Q27.45 16.0 27.25 15.35 L26.45 12.8 25.05 12.9 24.65 15.5 Q24.5 16.15 23.9 16.15 L22.0 16.3 21.95 16.3 Q21.6 16.3 21.3 16.0 21.1 15.7 21.15 15.3 L23.7 5.45 Q23.85 4.9 24.45 4.85 L26.3 4.75 Q26.9 4.75 27.1 5.3 M24.15 10.15 L23.8 11.55 Q24.05 11.3 24.3 11.3 L26.95 11.15 27.5 11.35 27.15 10.3 Q26.95 10.75 26.3 10.8 L24.9 10.85 24.3 10.5 24.15 10.15 M23.0 14.6 L23.15 14.6 23.45 12.95 23.0 14.6" fill="#261407" fill-rule="evenodd" stroke="none"/>
      <path d="M35.0 4.5 Q35.5 4.65 35.9 4.9 L36.7 5.8 Q37.3 6.7 37.4 7.7 L37.35 9.45 36.9 10.45 36.7 10.85 36.55 10.95 36.25 11.2 37.65 14.3 Q37.8 14.7 37.55 15.05 37.35 15.4 36.9 15.4 L34.75 15.5 34.7 15.5 Q34.1 15.5 33.75 14.6 L33.7 14.3 33.7 14.85 Q33.7 15.55 32.9 15.65 L31.05 15.75 31.0 15.75 30.45 15.5 Q30.2 15.3 30.2 14.95 L30.3 7.5 Q29.85 7.3 29.85 6.8 L29.8 5.5 Q29.75 5.15 30.0 4.9 30.2 4.7 30.5 4.65 L31.8 4.55 34.1 4.45 35.0 4.5 M33.7 7.3 L33.7 8.9 34.05 8.85 34.2 8.8 34.25 8.6 34.25 8.05 34.2 7.75 34.05 7.5 33.8 7.25 33.7 7.3 M34.05 10.45 L34.4 10.9 34.45 11.0 Q34.35 10.65 34.65 10.35 L34.3 10.45 34.05 10.45 M35.7 13.9 L34.5 11.2 35.25 13.9 35.7 13.9 M31.9 6.75 L31.8 14.1 32.1 14.1 32.1 11.2 Q32.1 10.65 32.6 10.45 32.1 10.25 32.1 9.7 L32.1 6.65 32.2 6.1 31.9 6.15 31.65 6.15 31.9 6.75" fill="#261407" fill-rule="evenodd" stroke="none"/>
      <path d="M43.6 4.5 L43.8 4.9 43.85 5.1 43.85 6.65 Q43.85 7.35 43.1 7.45 L42.6 7.45 42.95 13.9 42.9 14.55 42.25 15.1 39.85 15.35 39.75 15.35 39.2 15.15 38.95 14.55 38.9 7.65 38.35 7.6 Q37.65 7.5 37.65 6.85 L37.5 5.2 37.7 4.6 38.25 4.3 42.4 4.1 42.7 4.05 42.8 4.05 Q43.35 4.1 43.6 4.5 M42.25 5.9 L42.25 5.7 42.05 5.7 40.5 5.8 39.15 5.9 39.15 6.05 39.75 6.1 Q40.5 6.15 40.5 6.9 L40.5 13.7 41.35 13.6 40.95 6.8 Q40.9 6.5 41.15 6.2 41.35 5.95 41.7 5.9 L42.25 5.9" fill="#261407" fill-rule="evenodd" stroke="none"/>
      <path d="M48.9 7.8 L48.3 8.25 47.75 8.1 47.8 8.15 47.95 8.35 Q48.45 8.75 48.1 9.5 L47.85 10.15 46.15 13.25 46.5 13.2 50.85 5.3 50.25 5.3 48.9 7.8 M51.6 3.65 L51.7 3.65 Q52.85 3.7 52.85 4.4 L52.6 5.3 47.95 13.95 47.2 14.7 46.6 14.8 45.8 14.85 44.75 14.9 Q44.3 14.9 44.1 14.5 43.8 14.1 44.1 13.7 L46.4 9.5 46.5 9.1 43.5 5.35 Q43.15 4.95 43.35 4.55 43.55 4.1 44.0 4.1 L45.65 3.9 46.4 4.05 46.55 4.1 48.1 5.95 49.05 4.2 Q49.25 3.8 49.65 3.8 L51.6 3.65" fill="#261407" fill-rule="evenodd" stroke="none"/>
      <path d="M18.9 7.05 L18.1 7.1 17.55 7.2 17.65 10.4 18.3 10.4 18.9 10.3 19.5 10.15 19.75 9.8 19.9 9.3 19.9 8.7 19.75 8.1 19.5 7.6 19.15 7.25 18.9 7.05 M19.65 5.85 L20.3 6.1 20.95 6.8 Q21.5 7.7 21.5 8.45 L21.5 10.0 21.2 10.7 20.9 11.1 20.05 11.6 18.65 11.9 17.55 11.95 17.55 15.7 15.55 15.85 15.65 12.6 15.7 12.35 15.7 7.3 15.2 7.35 15.15 6.0 16.5 5.9 19.0 5.8 19.65 5.85" fill="#feffd6" fill-rule="evenodd" stroke="none"/>
      <path d="M26.35 5.55 L29.65 14.9 28.0 15.1 27.0 11.95 24.35 12.1 23.85 15.35 21.95 15.5 24.5 5.65 26.35 5.55 M25.6 7.45 L24.9 10.05 26.25 10.0 26.5 9.95 26.45 9.8 25.6 7.45" fill="#feffd6" fill-rule="evenodd" stroke="none"/>
      <path d="M36.05 6.25 Q36.5 6.9 36.6 7.8 L36.55 9.3 36.3 10.0 36.0 10.4 35.25 10.9 36.9 14.6 34.7 14.7 34.5 14.35 33.65 11.15 32.9 11.2 32.9 14.85 31.0 14.95 31.1 6.75 30.65 6.75 30.55 5.45 34.2 5.25 34.8 5.3 Q35.15 5.35 35.5 5.6 L36.05 6.25 M32.9 6.6 L32.9 9.7 33.15 9.7 34.1 9.65 34.7 9.45 34.9 9.1 35.05 8.65 35.05 8.05 34.95 7.5 34.7 7.0 34.35 6.65 34.1 6.45 33.75 6.45 32.9 6.6" fill="#feffd6" fill-rule="evenodd" stroke="none"/>
      <path d="M42.75 4.85 L42.95 4.95 43.05 5.1 43.05 6.65 41.7 6.7 42.15 14.3 39.75 14.55 39.7 6.9 38.4 6.8 38.3 5.1 41.3 4.9 41.95 4.9 42.75 4.85" fill="#feffd6" fill-rule="evenodd" stroke="none"/>
      <path d="M52.1 4.5 L46.95 13.95 46.5 14.0 45.8 14.05 44.75 14.1 47.35 9.2 47.45 8.9 47.2 8.7 44.1 4.85 45.65 4.7 46.05 4.7 48.2 7.45 49.75 4.6 50.9 4.5 51.7 4.45 52.1 4.5" fill="#feffd6" fill-rule="evenodd" stroke="none"/>
      <path d="M58.9 32.1 L5.5 35.25 5.5 3.85 59.2 1.5 58.9 32.1" fill="url(#gradient5)" fill-rule="evenodd" stroke="none"/>
      <path d="M5.35 3.5 L5.9 3.45 5.7 15.05 5.5 35.25 5.3 25.1 5.3 4.3 5.35 3.5" fill="#a68969" fill-rule="evenodd" stroke="none"/>
      <path d="M32.95 2.5 L57.4 1.55 58.85 1.7 5.9 3.9 5.9 3.5 8.1 3.5 32.95 2.5" fill="#301f0c" fill-rule="evenodd" stroke="none"/>
      <path d="M58.55 1.4 L32.15 2.5 5.5 3.65 5.15 3.45 5.1 3.2 7.85 3.2 57.1 1.25 58.55 1.4" fill="#d4b28d" fill-rule="evenodd" stroke="none"/>
      <path d="M26.5 16.15 L26.4 18.5 28.45 17.8 Q28.2 19.05 27.75 19.85 L30.05 19.75 28.9 21.45 31.05 21.8 30.4 22.65 Q29.65 23.2 29.3 23.15 L31.55 24.1 30.6 24.6 29.45 25.05 30.35 25.65 31.05 26.35 28.9 26.7 30.05 28.35 27.75 28.25 28.45 30.35 26.5 29.75 26.55 32.0 24.85 30.85 24.7 32.05 24.4 33.2 23.15 31.4 Q22.6 32.5 22.35 33.65 L21.75 32.6 Q21.4 31.8 21.45 31.4 L20.75 32.25 20.2 33.2 Q19.95 33.15 19.8 32.1 L19.7 30.85 18.0 32.0 18.1 29.75 16.05 30.3 16.35 29.25 16.6 28.25 14.45 28.45 Q15.05 27.4 15.6 26.7 L13.3 26.35 Q14.35 25.45 15.2 24.95 13.95 24.7 13.0 24.05 L15.2 23.2 Q14.6 22.75 13.3 22.05 13.6 21.65 14.4 21.65 L15.6 21.45 14.45 19.7 16.65 19.75 Q16.2 18.8 16.1 17.8 L18.1 18.5 18.0 16.15 18.85 16.7 Q19.45 17.3 19.6 17.35 20.0 16.25 20.0 15.15 20.35 15.15 20.75 15.75 L21.2 16.7 Q21.65 16.65 22.2 14.65 L23.2 16.85 24.4 14.95 Q24.55 16.3 24.95 17.35 L26.5 16.15" fill="#264f3d" fill-rule="evenodd" stroke="none"/>
      <path d="M26.6 15.85 L26.55 18.2 28.6 17.45 Q28.4 18.55 27.85 19.5 L30.2 19.45 29.0 21.1 31.2 21.45 Q31.2 21.8 30.5 22.35 L29.45 22.85 31.65 23.8 30.7 24.25 29.6 24.7 30.5 25.3 31.2 26.05 29.0 26.4 30.2 28.05 27.85 27.95 28.6 30.05 26.6 29.45 Q26.5 30.5 26.7 31.65 L25.0 30.5 24.8 31.75 24.5 32.85 23.25 31.05 Q22.7 32.2 22.45 33.3 L21.85 32.25 Q21.55 31.45 21.6 31.05 L20.85 31.95 20.35 32.85 Q20.05 32.85 19.95 31.8 L19.8 30.5 18.15 31.65 Q18.05 30.4 18.2 29.45 L16.2 30.0 16.5 28.95 16.7 27.95 14.6 28.1 Q15.1 27.2 15.75 26.4 L13.4 26.05 15.3 24.65 Q14.0 24.4 13.15 23.7 L15.3 22.85 13.4 21.7 Q13.7 21.35 14.55 21.3 L15.75 21.15 14.6 19.4 16.8 19.45 Q16.4 18.65 16.2 17.45 L18.2 18.2 18.15 15.85 Q18.45 15.85 19.0 16.4 L19.75 17.05 20.15 14.85 Q20.5 14.85 20.85 15.45 L21.3 16.45 Q21.8 16.35 22.35 14.35 L23.3 16.55 24.55 14.65 Q24.65 15.7 25.05 17.05 L26.6 15.85" fill="#449642" fill-rule="evenodd" stroke="none"/>
      <path d="M12.1 22.95 L11.05 23.0 10.9 27.85 Q10.9 29.05 10.2 29.05 9.7 29.05 9.5 28.75 9.25 28.2 9.25 26.3 L9.4 23.05 Q7.3 23.25 7.3 22.6 7.3 22.05 8.45 22.0 L11.95 21.9 Q13.05 21.9 13.05 22.4 13.05 22.9 12.1 22.95" fill="#ffffff" fill-rule="evenodd" stroke="none"/>
      <path d="M8.6 23.9 Q6.5 23.9 6.5 22.6 6.5 21.35 8.4 21.2 L11.0 21.1 12.0 21.1 Q13.85 21.15 13.85 22.4 13.85 23.65 12.2 23.75 L11.8 23.75 11.7 27.85 Q11.65 29.75 10.25 29.85 L10.1 29.85 Q9.2 29.85 8.8 29.05 8.45 28.45 8.45 26.3 L8.6 23.9 M8.75 23.1 L9.4 23.05 9.25 26.3 Q9.25 28.2 9.5 28.75 9.7 29.05 10.1 29.05 L10.2 29.05 Q10.9 29.05 10.9 27.85 L11.05 23.0 12.1 22.95 Q13.05 22.9 13.05 22.4 13.05 21.9 11.95 21.9 L11.0 21.9 8.45 22.0 Q7.3 22.05 7.3 22.6 7.3 23.1 8.75 23.1" fill="#449642" fill-rule="evenodd" stroke="none"/>
      <path d="M16.7 22.5 Q18.8 26.8 18.8 27.75 18.8 28.45 18.15 28.45 17.35 28.5 16.4 26.15 L14.5 26.4 14.2 27.6 Q13.9 28.65 13.35 28.65 12.6 28.75 12.6 28.1 L13.2 25.7 14.25 22.65 Q14.8 21.3 15.4 21.25 15.8 21.25 16.15 21.6 L16.7 22.5 M16.0 25.2 L15.35 23.35 14.8 25.4 16.0 25.2" fill="#ffffff" fill-rule="evenodd" stroke="none"/>
      <path d="M16.0 25.2 L14.8 25.4 15.35 23.35 16.0 25.2 M15.5 20.45 Q16.2 20.45 16.75 21.05 L17.4 22.15 Q19.6 26.7 19.6 27.75 19.6 28.4 19.2 28.8 18.8 29.2 18.2 29.25 L18.1 29.25 Q16.8 29.25 15.9 27.05 L15.15 27.1 14.95 27.75 Q14.6 29.4 13.4 29.45 L13.2 29.45 Q11.8 29.45 11.8 28.1 11.8 26.8 13.5 22.4 14.2 20.55 15.4 20.45 L15.5 20.45 M15.5 21.25 L15.4 21.25 Q14.8 21.3 14.25 22.65 L13.2 25.7 12.6 28.1 Q12.6 28.65 13.2 28.65 L13.35 28.65 Q13.9 28.65 14.2 27.6 L14.5 26.4 16.4 26.15 Q17.3 28.45 18.1 28.45 L18.15 28.45 Q18.8 28.45 18.8 27.75 18.8 26.8 16.7 22.5 16.1 21.25 15.5 21.25" fill="#449642" fill-rule="evenodd" stroke="none"/>
      <path d="M22.6 21.35 Q23.05 21.8 23.05 22.55 23.05 23.35 22.4 23.45 21.85 23.45 21.75 22.75 21.6 22.05 21.25 22.05 L20.8 22.4 20.6 23.05 Q20.6 23.7 21.75 24.65 22.85 25.65 22.85 26.45 22.85 27.25 22.35 27.85 21.7 28.6 20.55 28.65 19.3 28.75 19.3 27.95 19.3 27.45 19.85 27.4 L20.85 27.45 Q21.5 27.45 21.5 26.85 21.5 26.4 20.2 25.4 18.95 24.4 18.95 23.4 18.95 22.5 19.65 21.8 20.35 21.05 21.3 21.0 22.1 20.95 22.6 21.35" fill="#ffffff" fill-rule="evenodd" stroke="none"/>
      <path d="M21.5 21.0 L21.3 21.0 Q20.35 21.05 19.65 21.8 18.95 22.5 18.95 23.4 18.95 24.4 20.2 25.4 21.5 26.4 21.5 26.85 21.5 27.45 20.85 27.45 L20.8 27.45 20.0 27.4 19.85 27.4 Q19.3 27.45 19.3 27.95 19.3 28.65 20.4 28.65 L20.55 28.65 Q21.7 28.6 22.35 27.85 22.85 27.25 22.85 26.45 22.85 25.65 21.75 24.65 20.6 23.7 20.6 23.05 L20.8 22.4 21.25 22.05 21.3 22.05 Q21.6 22.05 21.75 22.75 21.85 23.45 22.35 23.45 L22.4 23.45 Q23.05 23.35 23.05 22.55 23.05 21.85 22.6 21.4 22.2 21.0 21.5 21.0 M23.2 20.85 Q23.85 21.5 23.85 22.55 L23.4 23.8 Q23.0 24.2 22.45 24.25 23.65 25.25 23.65 26.45 23.65 27.6 22.95 28.45 22.1 29.35 20.6 29.45 L20.4 29.45 Q19.5 29.45 19.0 29.0 18.5 28.55 18.5 27.95 18.5 27.4 18.85 27.0 19.2 26.65 19.8 26.6 L20.5 26.65 19.95 26.15 Q18.15 24.85 18.15 23.4 18.15 22.2 19.1 21.25 20.0 20.25 21.25 20.2 L21.5 20.2 Q22.55 20.2 23.2 20.85" fill="#449642" fill-rule="evenodd" stroke="none"/>
      <path d="M28.45 22.05 L27.4 22.1 27.25 26.95 Q27.25 28.1 26.55 28.15 26.05 28.2 25.9 27.85 25.6 27.25 25.6 25.4 L25.8 22.2 Q23.65 22.25 23.65 21.65 23.65 21.2 24.8 21.05 L28.3 21.0 Q29.4 21.05 29.4 21.45 29.4 22.0 28.45 22.05" fill="#ffffff" fill-rule="evenodd" stroke="none"/>
      <path d="M24.95 23.0 Q22.85 23.0 22.85 21.65 22.85 20.45 24.8 20.25 L27.35 20.2 28.35 20.2 Q30.2 20.25 30.2 21.45 30.2 22.7 28.55 22.85 L28.2 22.85 28.05 26.95 Q28.0 28.85 26.6 28.95 L26.45 28.95 Q25.6 28.95 25.15 28.2 24.8 27.5 24.8 25.4 L24.95 23.0 M25.1 22.2 L25.8 22.2 25.6 25.4 Q25.6 27.25 25.9 27.85 26.0 28.15 26.45 28.15 L26.55 28.15 Q27.25 28.1 27.25 26.95 L27.4 22.1 28.45 22.05 Q29.4 22.0 29.4 21.45 29.4 21.05 28.3 21.0 L27.35 21.0 24.8 21.05 Q23.65 21.2 23.65 21.65 23.65 22.2 25.1 22.2" fill="#449642" fill-rule="evenodd" stroke="none"/>
      <path d="M33.1 20.6 Q34.45 20.55 34.45 21.05 34.45 21.45 33.8 21.65 L32.0 21.85 31.5 21.85 31.55 24.25 31.95 24.25 33.25 24.25 Q33.6 24.3 33.6 24.65 33.6 25.05 32.95 25.15 L31.6 25.3 31.75 26.65 33.0 26.55 Q34.2 26.45 34.2 26.95 34.2 27.6 32.0 27.75 L31.3 27.8 Q30.5 27.85 30.3 27.45 29.8 26.35 29.8 24.45 29.8 23.05 30.2 21.45 30.3 20.9 30.95 20.85 L33.1 20.6" fill="#ffffff" fill-rule="evenodd" stroke="none"/>
      <path d="M33.05 19.8 L33.6 19.8 Q35.25 19.8 35.25 21.05 35.25 21.9 34.35 22.25 L32.3 22.65 32.3 23.45 32.8 23.45 Q34.4 23.45 34.4 24.65 34.4 25.45 33.65 25.75 35.0 25.85 35.0 26.95 35.0 27.85 34.0 28.25 L32.0 28.5 31.4 28.6 31.05 28.6 Q30.0 28.6 29.6 27.85 L29.6 27.8 Q29.0 26.55 29.0 24.45 29.0 22.9 29.4 21.25 29.6 20.25 30.85 20.05 L33.05 19.8 M33.6 20.6 L33.1 20.6 30.95 20.85 Q30.3 20.9 30.2 21.45 29.8 23.05 29.8 24.45 29.8 26.35 30.3 27.45 30.5 27.8 31.05 27.8 L32.0 27.75 Q34.2 27.6 34.2 26.95 34.2 26.5 33.35 26.5 L31.75 26.65 31.6 25.3 32.95 25.15 Q33.6 25.05 33.6 24.65 33.6 24.25 32.8 24.25 L31.55 24.25 31.5 21.85 32.0 21.85 33.8 21.65 Q34.45 21.45 34.45 21.05 34.45 20.6 33.6 20.6" fill="#449642" fill-rule="evenodd" stroke="none"/>
      <path d="M40.15 21.85 Q40.15 22.85 38.6 23.95 L40.35 26.4 Q40.35 26.85 39.75 26.85 39.25 26.9 38.5 26.15 L37.2 24.85 37.2 26.7 Q37.2 27.5 36.5 27.55 35.8 27.65 35.65 26.9 L35.55 25.4 Q35.55 23.05 36.0 21.5 L35.35 21.85 Q34.85 21.85 34.85 21.4 34.85 21.05 35.6 20.55 36.4 20.05 37.4 19.95 38.45 19.85 39.25 20.45 40.15 21.0 40.15 21.85 M37.4 21.05 L37.2 23.7 Q38.4 22.85 38.4 22.1 38.4 21.15 37.4 21.05" fill="#ffffff" fill-rule="evenodd" stroke="none"/>
      <path d="M38.4 22.1 Q38.4 22.85 37.2 23.7 L37.4 21.05 Q38.4 21.15 38.4 22.1 M40.0 19.95 Q40.95 20.75 40.95 21.85 40.95 23.05 39.75 24.05 L40.8 25.6 41.15 26.4 40.8 27.25 Q40.4 27.65 39.8 27.65 L39.7 27.65 Q39.0 27.65 38.0 26.8 38.0 28.25 36.55 28.35 L36.4 28.35 Q35.85 28.35 35.45 28.05 35.0 27.65 34.9 27.1 34.75 26.65 34.75 25.4 L34.95 22.55 Q34.05 22.35 34.05 21.4 34.05 20.65 35.05 19.95 36.1 19.25 37.35 19.2 L37.6 19.15 Q39.0 19.15 40.0 19.95 M40.15 21.85 Q40.15 21.05 39.4 20.45 38.6 19.95 37.6 19.95 L37.4 19.95 Q36.4 20.05 35.6 20.55 34.85 21.05 34.85 21.4 34.85 21.85 35.3 21.85 L35.35 21.85 36.0 21.5 Q35.55 23.05 35.55 25.4 L35.65 26.9 Q35.8 27.55 36.4 27.55 L36.5 27.55 Q37.2 27.5 37.2 26.7 L37.2 24.85 38.45 26.1 Q39.2 26.85 39.7 26.85 L39.75 26.85 Q40.35 26.85 40.35 26.4 L38.6 23.95 Q40.15 22.85 40.15 21.85" fill="#449642" fill-rule="evenodd" stroke="none"/>
    </g>
    <linearGradient gradientTransform="matrix(-0.0321, 0.0, 0.0, 0.0321, 30.5, 3.3)" gradientUnits="userSpaceOnUse" id="gradient0" spreadMethod="pad" x1="-819.2" x2="819.2">
      <stop offset="0.0" stop-color="#785531"/>
      <stop offset="1.0" stop-color="#9e631c"/>
    </linearGradient>
    <linearGradient gradientTransform="matrix(0.0242, 0.0178, 0.0178, -0.0242, 17.9, -5.55)" gradientUnits="userSpaceOnUse" id="gradient1" spreadMethod="pad" x1="-819.2" x2="819.2">
      <stop offset="0.0" stop-color="#000000" stop-opacity="0.61960787"/>
      <stop offset="1.0" stop-color="#000000" stop-opacity="0.0"/>
    </linearGradient>
    <radialGradient cx="0" cy="0" gradientTransform="matrix(0.0151, 0.0, 0.0, -0.0151, 5.2, 18.5)" gradientUnits="userSpaceOnUse" id="gradient2" r="819.2" spreadMethod="pad">
      <stop offset="0.0" stop-color="#66421a"/>
      <stop offset="1.0" stop-color="#301f0c"/>
    </radialGradient>
    <linearGradient gradientTransform="matrix(0.0145, -0.0171, -0.0171, -0.0145, 1.7, 19.9)" gradientUnits="userSpaceOnUse" id="gradient3" spreadMethod="pad" x1="-819.2" x2="819.2">
      <stop offset="0.0" stop-color="#000000" stop-opacity="0.61960787"/>
      <stop offset="1.0" stop-color="#000000" stop-opacity="0.36862746"/>
      <stop offset="1.0" stop-color="#000000" stop-opacity="0.0"/>
    </linearGradient>
    <radialGradient cx="0" cy="0" gradientTransform="matrix(-5.0E-4, -0.0431, -0.0431, 5.0E-4, 34.9, 42.3)" gradientUnits="userSpaceOnUse" id="gradient4" r="819.2" spreadMethod="pad">
      <stop offset="0.0" stop-color="#402d13"/>
      <stop offset="1.0" stop-color="#1c1207"/>
    </radialGradient>
    <linearGradient gradientTransform="matrix(-0.0135, 0.0201, 0.0201, 0.0135, 31.6, 18.85)" gradientUnits="userSpaceOnUse" id="gradient5" spreadMethod="pad" x1="-819.2" x2="819.2">
      <stop offset="0.0" stop-color="#ffffff" stop-opacity="0.31764707"/>
      <stop offset="1.0" stop-color="#525252" stop-opacity="0.047058824"/>
    </linearGradient>
  </defs>
</svg>
