<?xml version="1.0" encoding="UTF-8" standalone="no"?>
<svg xmlns:xlink="http://www.w3.org/1999/xlink" height="44.4px" width="54.6px" xmlns="http://www.w3.org/2000/svg">
  <g transform="matrix(1.0, 0.0, 0.0, 1.0, 0.0, 0.0)">
    <use height="28.5" transform="matrix(1.0, 0.0, 0.0, 1.0, 15.2, 15.9)" width="26.15" xlink:href="#shape0"/>
    <use height="26.6" transform="matrix(1.0, 0.0, 0.0, 1.0, 28.65, 17.75)" width="12.7" xlink:href="#sprite0"/>
    <use height="7.35" transform="matrix(0.9957, 0.0, 0.0, 1.0, 22.5335, 15.65)" width="11.5" xlink:href="#shape2"/>
  </g>
  <defs>
    <g id="shape0" transform="matrix(1.0, 0.0, 0.0, 1.0, -15.2, -15.9)">
      <path d="M41.35 38.05 L36.2 42.5 Q34.75 43.55 33.5 43.85 L28.65 44.35 20.65 43.5 15.2 38.5 15.7 35.55 16.0 31.6 16.1 28.4 18.8 24.9 Q19.85 21.5 20.6 19.9 L22.55 15.9 Q26.15 16.05 27.0 17.25 27.9 18.45 29.9 18.65 L34.0 17.65 Q33.8 18.4 34.55 21.0 35.0 22.5 35.95 23.9 L37.85 26.9 Q40.3 31.65 40.55 33.3 L41.35 38.05" fill="url(#gradient0)" fill-rule="evenodd" stroke="none"/>
      <path d="M40.55 33.3 L41.35 38.05 36.2 42.5 Q34.75 43.55 33.5 43.85 L28.65 44.35 20.65 43.5 15.2 38.5 15.3 37.95 Q16.15 39.15 17.25 39.45 L18.4 37.45 18.65 37.15 19.4 36.95 20.35 37.85 Q20.8 38.15 21.1 36.3 21.4 34.45 22.55 32.1 L23.6 30.15 24.6 30.45 Q25.65 30.85 25.75 31.15 25.9 31.65 26.75 32.15 L27.4 33.45 29.1 33.95 30.75 35.65 32.25 34.3 32.4 34.3 33.1 34.65 34.9 35.8 Q37.05 37.1 37.25 36.3 L37.65 35.8 37.9 34.8 37.9 31.95 38.75 31.8 39.45 30.2 Q40.4 32.2 40.55 33.3" fill="#74debe" fill-rule="evenodd" stroke="none"/>
      <path d="M35.6 38.3 L37.9 38.3 Q38.25 38.15 38.4 37.45 L39.25 35.65 39.1 34.7 Q39.05 33.85 39.6 34.15 L39.85 34.45 40.4 34.65 40.8 34.7 41.35 38.05 36.2 42.5 Q34.75 43.55 33.5 43.85 L28.65 44.35 20.65 43.5 17.15 40.5 17.8 40.15 18.4 39.8 19.75 39.65 20.6 39.65 21.9 39.95 22.2 40.6 Q22.55 40.95 22.75 39.3 L22.7 36.1 Q22.55 35.0 23.1 35.45 L24.1 36.3 24.45 36.1 Q24.9 35.95 25.1 36.45 L25.25 37.2 26.6 36.95 Q28.4 36.45 29.25 37.45 L29.8 37.3 Q30.5 37.2 31.1 37.65 L32.25 38.45 33.4 38.8 35.6 38.3" fill="#52c9a2" fill-rule="evenodd" stroke="none"/>
      <path d="M41.2 37.1 L41.35 38.05 36.2 42.5 Q34.75 43.55 33.5 43.85 L28.65 44.35 20.65 43.5 18.35 41.6 19.5 42.0 20.9 42.15 Q21.75 42.25 22.05 42.65 L22.6 42.3 Q23.0 41.8 22.85 41.5 L23.4 41.3 24.9 41.6 Q25.6 41.8 26.1 41.15 26.6 40.4 27.5 40.2 L28.25 40.15 30.1 40.95 30.45 40.75 31.25 40.65 32.9 40.95 34.1 40.65 Q34.4 40.5 34.5 41.3 34.65 42.1 35.6 41.8 L37.45 40.8 38.6 39.8 40.4 37.65 41.2 37.1" fill="#3eb08b" fill-rule="evenodd" stroke="none"/>
    </g>
    <radialGradient cx="0" cy="0" fx="217.60000000000002" fy="0" gradientTransform="matrix(-0.0018, 0.0262, 0.0241, 8.0E-4, 27.9, 41.15)" gradientUnits="userSpaceOnUse" id="gradient0" r="819.2" spreadMethod="pad">
      <stop offset="0.023529411764705882" stop-color="#74debe"/>
      <stop offset="0.23529411764705882" stop-color="#78e0c0"/>
      <stop offset="0.45098039215686275" stop-color="#84e5c8"/>
      <stop offset="0.6627450980392157" stop-color="#99edd3"/>
      <stop offset="0.8784313725490196" stop-color="#b5f9e4"/>
      <stop offset="0.9764705882352941" stop-color="#c4ffed"/>
    </radialGradient>
    <g id="sprite0" transform="matrix(1.0, 0.0, 0.0, 1.0, 0.0, 0.0)">
      <use height="26.6" transform="matrix(0.9961, 0.0, 0.0, 1.0, 0.0, 0.0)" width="12.75" xlink:href="#shape1"/>
    </g>
    <g id="shape1" transform="matrix(1.0, 0.0, 0.0, 1.0, 0.0, 0.0)">
      <path d="M1.6 12.25 Q1.6 8.9 1.25 6.9 1.05 5.65 0.65 5.35 L0.25 5.25 Q1.95 4.1 3.6 2.9 L5.3 0.0 Q5.3 1.15 5.9 3.25 6.35 4.75 7.3 6.15 L9.2 9.15 Q11.65 13.85 11.95 15.55 L12.75 20.3 7.55 24.75 Q6.1 25.8 4.85 26.1 L0.0 26.6 Q1.7 25.55 2.5 23.15 L2.95 20.9 Q2.6 17.25 2.25 15.9 L1.6 12.25" fill="#147352" fill-rule="evenodd" stroke="none"/>
    </g>
    <g id="shape2" transform="matrix(1.0, 0.0, 0.0, 1.0, -15.3, -15.8)">
      <path d="M20.45 17.3 L21.35 17.8 22.6 18.1 24.4 17.8 26.75 17.9 26.65 18.3 25.65 20.3 25.05 21.0 Q23.8 21.55 22.95 22.2 L21.65 23.15 Q20.05 22.8 19.15 22.1 L18.65 21.6 18.9 21.2 18.9 20.65 18.55 20.1 Q18.4 19.8 17.9 19.65 L17.35 19.35 Q17.15 18.0 16.55 17.3 L15.8 16.6 15.3 16.05 16.9 15.8 18.65 16.05 19.35 16.35 20.45 17.3" fill="#d1fff1" fill-rule="evenodd" stroke="none"/>
    </g>
  </defs>
</svg>
