<?xml version="1.0" encoding="UTF-8" standalone="no"?>
<svg xmlns:xlink="http://www.w3.org/1999/xlink" height="548.7px" width="943.05px" xmlns="http://www.w3.org/2000/svg">
  <g transform="matrix(1.0, 0.0, 0.0, 1.0, 0.0, 0.0)">
    <use height="548.7" transform="matrix(1.0, 0.0, 0.0, 1.0, 0.0, 0.0)" width="943.05" xlink:href="#shape0"/>
  </g>
  <defs>
    <g id="shape0" transform="matrix(1.0, 0.0, 0.0, 1.0, 0.0, 0.0)">
      <path d="M936.55 16.9 Q939.5 24.0 941.4 31.15 943.3 381.3 943.0 532.2 L934.0 531.9 Q929.8 531.9 926.4 528.95 L923.4 526.55 Q922.15 525.65 920.1 524.7 918.25 523.85 917.1 522.65 L916.3 521.65 Q915.45 524.6 912.6 529.2 910.8 532.1 904.35 529.95 L898.2 527.25 883.35 507.75 794.9 545.45 794.3 531.15 789.7 525.3 777.85 530.45 757.35 533.75 Q760.6 524.85 759.3 524.9 757.25 524.95 753.4 524.05 L750.0 523.1 737.35 522.4 Q732.15 522.0 724.5 517.0 717.05 512.15 715.4 512.15 712.8 512.15 701.6 514.7 L690.95 517.25 662.25 515.05 Q660.35 515.05 648.65 522.9 636.55 531.05 632.15 531.8 L617.15 533.5 608.2 534.1 603.15 531.9 601.45 527.5 591.35 523.1 585.85 524.65 Q582.4 525.65 566.9 524.95 L552.05 524.0 Q549.85 522.85 546.7 521.75 540.4 519.45 535.65 519.45 530.9 519.45 528.5 524.65 L527.0 529.85 523.0 530.2 Q518.2 531.0 514.5 533.1 510.8 535.25 500.9 534.9 L491.75 534.1 488.85 527.95 484.15 522.4 456.3 522.6 423.4 523.85 417.05 525.2 408.1 526.0 Q401.4 526.45 390.2 524.15 383.65 522.85 373.65 520.1 365.45 517.55 360.85 516.65 353.0 515.15 344.9 516.55 L339.4 517.55 Q341.95 517.3 339.0 518.0 335.3 518.9 327.5 524.0 323.6 526.6 320.4 528.95 L295.95 528.25 287.85 532.65 Q279.2 537.4 276.55 539.2 272.3 542.15 255.95 548.2 L257.45 543.95 Q258.9 539.15 258.5 536.35 258.25 534.55 258.35 531.7 L258.5 529.2 246.15 523.1 Q241.65 523.45 236.55 524.9 233.2 525.85 223.8 526.35 216.0 526.75 212.15 526.6 210.85 526.55 205.45 524.9 200.85 523.5 199.0 524.05 197.3 524.5 192.45 520.1 186.95 515.05 184.55 514.35 181.35 513.4 166.15 517.05 L151.6 520.9 Q139.8 521.65 133.3 523.35 L123.25 525.7 116.15 526.75 Q112.0 526.75 101.8 528.25 L97.2 528.0 96.35 527.25 Q92.65 525.85 88.0 524.45 78.7 521.65 73.95 521.65 69.65 521.65 58.7 527.45 46.0 534.2 43.15 535.05 38.35 536.55 31.95 535.9 L24.35 535.05 Q22.4 535.2 18.8 533.85 L15.6 532.5 11.9 527.95 0.1 522.05 0.1 0.0 9.3 0.65 21.3 1.25 43.05 4.0 75.1 7.75 90.45 9.35 100.15 9.0 143.2 5.9 189.05 3.75 271.65 3.75 Q284.5 3.75 315.15 9.0 345.8 14.2 349.25 14.2 L405.3 12.95 Q457.95 12.35 478.2 15.55 497.45 18.6 504.35 16.05 506.3 15.35 509.7 13.6 513.25 12.1 518.25 11.7 L553.8 8.6 592.15 6.5 605.6 7.15 613.4 7.8 Q622.5 7.8 625.65 8.75 628.0 9.5 639.7 15.55 649.35 20.55 689.15 23.05 L738.6 24.65 Q747.7 24.65 753.15 21.1 L757.05 18.05 Q759.3 16.3 761.1 15.55 765.75 13.65 781.75 11.35 797.7 9.1 806.2 9.1 L820.9 10.4 841.25 11.7 Q852.9 11.7 870.35 9.6 L893.8 6.5 910.4 4.05 Q919.95 2.6 925.1 2.6 930.55 2.6 936.55 16.9" fill="#361c07" fill-rule="evenodd" stroke="none"/>
      <path d="M123.9 190.3 Q128.6 184.6 129.2 180.4 L128.9 177.3 133.9 187.7 Q137.65 195.5 138.45 200.7 139.2 205.9 140.15 229.3 140.85 246.75 141.25 246.35 L141.4 252.7 141.4 282.6 Q141.4 290.2 140.6 303.95 139.75 318.8 138.9 323.35 137.35 331.5 135.45 348.45 133.1 370.0 133.9 378.45 L135.6 398.1 Q136.4 409.2 136.4 418.75 136.4 428.3 133.1 427.35 130.15 426.5 128.9 421.35 127.9 417.25 121.85 410.45 115.4 403.2 106.35 396.65 98.45 390.9 96.8 385.6 95.75 377.8 93.85 370.65 91.5 361.7 82.4 348.8 L73.8 337.65 68.8 338.95 65.85 357.1 Q62.4 376.2 60.05 381.05 58.25 384.75 56.6 391.95 54.55 400.85 51.3 409.65 L48.65 416.7 Q48.35 417.45 48.8 415.5 50.7 407.7 50.05 405.75 47.95 399.2 41.25 388.85 38.15 384.0 34.85 334.45 L31.25 272.2 Q30.45 260.4 30.95 256.3 L32.5 250.1 34.05 239.7 Q35.25 231.6 37.5 225.4 38.8 221.75 38.8 219.1 38.75 217.1 37.7 212.95 34.1 198.85 32.5 183.8 31.7 176.5 35.15 141.45 L38.75 107.85 43.95 113.05 Q51.15 119.55 61.3 126.05 71.15 132.35 70.85 153.15 L69.9 168.0 Q69.35 175.45 70.05 177.3 71.6 181.35 71.6 186.9 L71.3 191.6 Q76.35 187.7 81.35 181.2 84.5 177.15 85.75 154.45 L86.35 132.55 91.35 162.55 Q96.35 193.7 96.35 199.4 L96.35 226.7 Q96.65 224.75 98.4 221.0 101.85 213.55 108.9 204.6 115.05 196.75 117.8 195.5 120.75 194.15 123.9 190.3" fill="#341b07" fill-rule="evenodd" stroke="none"/>
      <path d="M180.25 136.45 Q179.45 125.9 190.4 122.3 195.9 120.55 201.5 120.85 L206.5 110.45 209.05 114.35 Q211.0 117.35 216.8 118.0 222.85 118.7 229.7 116.3 235.05 114.45 242.45 143.3 L247.9 165.1 Q250.85 176.1 252.85 178.6 256.65 183.3 255.5 187.05 L253.75 191.75 Q252.35 195.45 251.6 199.4 250.15 206.9 248.25 211.0 244.75 218.45 243.45 222.15 241.95 226.3 239.95 228.5 238.7 229.9 235.85 231.65 229.05 235.85 224.05 243.6 218.1 252.85 220.45 255.7 L223.15 258.15 Q224.9 259.85 225.3 262.45 227.0 273.8 244.1 279.35 250.0 281.25 246.6 286.1 L243.4 290.25 Q241.6 292.7 241.6 294.3 241.6 301.7 240.5 313.85 239.0 330.5 236.55 336.35 235.35 339.3 232.0 355.3 229.4 367.85 226.55 369.35 223.5 370.95 224.05 374.25 L225.3 381.05 225.3 400.55 Q225.3 407.85 223.45 409.5 L221.55 409.65 Q219.7 406.1 217.8 401.55 214.05 392.45 214.05 387.55 L214.7 357.1 215.3 332.45 Q214.05 324.85 211.1 314.0 205.15 292.3 196.5 276.1 188.9 261.75 184.95 260.0 182.8 259.1 182.45 258.75 181.05 257.4 179.0 252.7 175.3 244.35 176.0 237.75 L177.05 229.3 Q177.75 222.7 177.75 215.0 177.75 207.65 179.9 178.6 181.65 155.15 180.25 136.45" fill="#341b07" fill-rule="evenodd" stroke="none"/>
      <path d="M288.05 111.25 Q299.65 117.45 306.7 124.75 313.75 132.05 314.05 133.7 314.2 134.5 312.95 133.85 L313.75 157.55 Q314.65 181.85 315.45 185.1 316.9 191.2 317.5 192.25 319.8 196.5 327.95 203.3 335.75 209.8 343.9 211.1 L345.25 211.3 343.15 211.45 Q335.3 212.1 332.95 213.7 330.65 215.3 330.9 219.4 L331.7 228.0 Q331.7 235.8 345.5 235.8 L360.5 235.8 Q365.2 235.8 377.1 240.35 383.05 242.65 388.05 244.9 L389.45 250.45 Q391.0 256.3 391.8 257.9 392.6 259.55 390.4 267.35 L388.05 274.8 387.1 280.5 Q385.85 286.65 384.3 289.1 382.85 291.35 382.6 308.5 382.2 332.4 381.8 337.65 381.0 348.2 381.35 368.3 381.5 378.35 381.8 386.25 L370.5 378.45 Q366.9 375.95 365.4 370.85 L363.3 361.0 Q361.9 354.65 358.9 350.6 354.85 345.1 346.75 341.55 331.9 335.05 334.05 351.55 335.15 359.8 339.2 369.35 L333.1 369.7 Q325.9 370.35 320.45 371.95 315.15 373.55 315.9 378.6 L317.1 383.85 Q317.95 387.45 317.95 390.15 317.95 397.95 317.35 401.35 316.4 406.35 312.95 413.55 309.85 419.95 306.7 433.7 L300.4 461.65 Q297.2 474.9 296.65 465.7 L296.65 447.35 Q296.65 442.65 295.4 438.4 294.15 434.2 294.15 430.45 L293.55 419.4 Q292.9 410.95 292.9 400.55 292.9 385.05 291.2 373.15 288.95 357.9 282.9 338.95 277.8 322.95 278.75 308.25 L279.8 296.05 Q280.35 288.65 279.75 281.95 278.5 267.45 278.15 253.6 277.9 244.9 277.9 226.7 L278.0 213.4 278.5 205.9 Q278.75 201.1 276.3 190.95 274.25 182.45 276.0 176.0 277.35 171.05 277.5 150.85 277.65 132.9 280.4 128.65 283.55 123.8 281.95 118.1 279.15 111.1 277.9 106.55 L288.05 111.25 M345.25 211.3 L350.5 211.1 345.25 211.3" fill="#341b07" fill-rule="evenodd" stroke="none"/>
      <path d="M490.7 139.8 L493.2 111.75 498.5 140.15 Q504.15 170.0 505.75 177.3 508.65 190.9 509.8 198.25 512.0 212.2 512.0 224.1 512.0 235.6 513.4 247.0 514.2 253.35 515.75 263.1 L519.05 296.0 Q521.75 323.65 523.25 329.85 524.75 336.15 523.55 357.75 L522.0 383.65 Q522.0 393.1 521.55 398.45 520.7 408.0 518.25 412.25 515.75 397.95 514.5 388.85 512.65 375.25 509.5 363.9 504.2 344.8 496.95 338.95 490.05 333.35 491.5 352.85 491.85 357.55 493.25 369.35 494.45 379.2 494.45 382.35 494.45 389.65 491.95 389.35 491.15 389.25 490.25 388.4 L489.45 387.55 Q484.45 384.95 480.7 381.05 478.35 378.6 474.25 358.55 L470.65 338.95 468.3 358.7 Q464.85 379.75 459.4 386.25 453.95 392.75 454.85 401.85 455.35 406.4 456.9 409.65 L452.2 405.1 Q446.6 399.25 441.9 392.75 437.5 386.65 433.9 384.95 428.35 382.3 426.85 381.05 424.8 379.35 422.85 368.05 L419.35 343.25 Q414.25 305.8 408.1 296.25 401.3 285.7 400.4 271.45 400.55 257.9 399.3 254.0 397.3 247.8 397.9 241.65 398.6 234.5 403.05 221.5 406.5 211.5 406.5 201.85 406.5 192.8 408.1 189.0 410.45 183.25 410.75 160.45 L410.6 126.05 Q410.6 122.8 415.0 109.8 L419.35 97.45 421.85 95.5 Q425.0 94.2 428.1 97.45 429.95 99.35 435.45 106.25 439.75 111.6 441.9 113.05 445.65 115.65 450.35 116.95 L468.15 122.15 473.35 147.15 Q479.3 173.4 483.2 179.9 487.1 186.4 488.05 191.6 L488.2 192.6 488.2 174.7 Q488.2 169.0 490.7 139.8" fill="#341b07" fill-rule="evenodd" stroke="none"/>
      <path d="M614.85 90.85 Q615.2 90.4 614.95 92.6 614.05 101.35 615.9 106.55 L620.45 116.8 Q622.15 120.6 622.15 126.05 622.15 131.75 623.4 134.0 624.05 135.15 624.65 135.15 L629.65 131.25 Q635.3 126.7 638.45 123.45 643.45 118.25 654.7 109.15 L654.85 138.05 Q655.15 168.85 655.95 178.6 656.85 189.55 658.75 198.1 660.35 205.1 663.45 213.7 665.65 219.85 664.85 225.25 663.45 234.5 663.45 235.8 663.45 247.5 662.6 253.7 661.05 264.85 656.6 265.7 654.3 266.15 653.85 266.7 653.65 267.05 654.0 268.0 654.85 270.15 650.95 272.2 647.2 274.15 648.0 274.3 650.35 274.8 649.7 277.4 649.35 278.85 648.15 300.85 646.9 323.75 644.7 335.05 L640.0 358.4 Q637.55 367.65 633.4 371.95 629.6 375.9 627.8 383.0 L622.15 405.75 614.8 431.1 Q611.75 440.4 608.4 444.75 L606.25 447.25 Q606.0 447.35 606.25 445.4 607.45 437.6 606.5 430.45 605.25 421.05 605.65 412.6 605.8 409.3 607.15 396.65 608.0 388.85 607.3 385.6 L604.6 378.45 598.05 352.85 Q591.95 330.5 585.85 323.35 L582.75 346.2 Q579.6 370.8 579.6 379.75 579.6 387.55 578.35 394.05 577.1 400.55 577.1 404.45 577.1 411.4 569.1 423.15 561.0 435.05 554.55 436.95 L550.85 437.95 Q550.4 437.95 551.05 437.1 553.6 433.7 552.65 430.45 551.5 426.4 544.75 424.75 L538.25 423.95 543.1 419.4 Q548.45 413.55 550.8 407.05 553.0 400.95 552.2 395.1 550.8 384.65 550.8 381.7 550.8 372.45 548.45 358.3 546.1 344.15 543.3 336.35 540.8 329.4 540.8 308.85 540.8 293.0 542.05 277.4 542.75 268.45 542.5 262.8 542.05 252.05 542.05 246.2 542.05 233.2 542.2 230.1 L543.3 218.9 Q544.0 212.15 545.5 210.15 548.4 206.1 549.55 203.3 550.85 200.15 552.5 198.65 553.7 197.6 556.45 196.5 564.4 193.15 570.85 187.7 578.75 180.95 579.9 159.95 L580.7 142.8 Q581.35 133.1 583.35 127.35 L591.65 124.45 Q600.05 120.55 600.85 115.65 601.5 111.6 604.65 107.85 609.15 102.4 612.15 96.15 L614.85 90.85" fill="#341b07" fill-rule="evenodd" stroke="none"/>
      <path d="M833.7 137.75 Q836.0 132.2 833.4 127.35 829.35 121.5 827.45 116.95 825.1 111.25 822.3 99.9 L819.95 89.65 830.3 97.95 Q841.55 108.0 846.25 116.95 851.15 126.3 856.9 151.85 860.85 169.55 863.75 187.7 865.45 198.4 875.95 204.1 884.3 208.65 897.55 209.8 907.05 210.6 906.8 216.65 906.75 218.5 905.5 222.6 904.15 227.15 903.85 229.3 902.85 236.55 901.65 240.5 900.25 245.1 897.55 248.8 896.15 250.75 891.75 253.2 887.85 255.35 885.05 260.5 L881.6 268.3 Q881.2 268.95 880.15 268.9 L876.3 268.3 Q872.45 267.65 868.15 270.75 862.4 274.8 856.25 276.1 851.9 277.0 850.5 278.75 849.45 280.15 849.75 282.75 L850.55 288.0 Q850.75 291.4 849.35 294.3 847.8 297.55 849.55 309.65 851.15 320.8 854.95 335.4 863.8 369.75 871.3 378.45 877.55 385.75 872.55 385.45 L866.25 383.65 854.05 379.9 Q841.55 375.7 840.0 373.25 838.3 370.6 836.55 351.4 834.95 334.05 834.95 324.65 834.95 299.8 834.25 294.1 833.7 289.5 832.3 296.05 831.45 300.05 829.15 312.0 826.9 322.15 824.95 323.35 821.35 325.6 821.05 348.45 820.65 377.85 819.95 382.35 817.45 397.95 812.45 416.15 L812.45 405.75 Q812.45 402.55 809.15 372.85 805.65 341.15 804.95 319.45 804.0 292.4 803.45 287.3 803.0 283.75 800.55 278.05 799.9 276.6 798.9 272.35 798.1 269.0 797.15 268.05 794.5 265.3 784.9 276.1 775.75 286.35 777.25 331.35 777.5 339.15 779.1 367.05 780.25 387.15 779.9 395.35 L779.25 407.55 Q779.05 409.05 778.35 407.2 775.55 399.9 771.15 404.45 L767.4 408.5 Q767.0 409.1 767.7 409.5 770.5 410.95 769.85 417.45 L768.75 431.1 Q768.05 437.0 764.85 448.65 762.35 457.75 761.9 460.7 L760.45 460.0 Q758.7 459.05 756.1 459.05 L752.35 459.0 Q751.9 458.95 752.5 458.55 754.85 457.1 753.6 455.15 752.05 452.7 749.05 452.25 L739.85 451.25 Q736.65 450.8 735.05 451.75 733.6 452.65 732.6 455.3 L730.65 462.05 Q729.15 467.5 727.3 472.05 L722.15 484.25 719.8 487.65 718.7 489.2 Q718.55 489.3 718.55 488.45 718.55 485.05 717.3 482.45 713.85 475.3 712.95 468.95 711.2 457.35 716.05 444.75 720.45 433.4 718.1 433.4 L715.5 433.8 Q713.95 433.8 713.55 431.75 712.7 427.25 713.4 422.35 713.9 418.75 716.05 410.95 717.05 407.35 717.45 402.2 717.7 398.95 719.8 395.35 721.85 391.8 725.75 393.25 730.9 395.15 733.55 394.05 737.45 392.45 740.15 374.3 743.0 350.65 744.85 338.95 747.8 320.55 747.45 304.1 747.05 286.7 742.95 283.9 741.1 282.6 739.5 286.55 738.85 288.15 736.45 296.8 731.6 314.5 724.8 319.45 717.25 324.95 716.7 330.65 L716.7 335.0 Q716.8 337.4 716.05 338.95 714.5 342.2 714.5 324.1 L714.8 295.6 Q714.8 288.2 717.45 281.15 720.6 272.75 721.05 269.6 721.8 264.2 721.5 257.9 L721.05 246.2 Q721.05 240.55 719.65 239.7 716.7 239.05 713.55 237.1 709.8 234.75 708.25 236.6 706.7 239.7 704.8 241.0 702.5 242.6 702.75 251.4 L703.5 273.5 Q703.5 284.9 701.65 288.8 700.7 290.75 699.75 290.4 698.5 289.75 696.95 287.95 693.8 284.4 692.25 278.7 690.9 273.7 690.4 268.0 689.55 258.45 688.5 251.4 687.2 242.6 683.5 240.7 681.55 239.65 680.75 238.6 679.35 236.65 678.5 231.9 676.95 223.1 675.7 220.7 673.5 217.6 670.95 212.4 L668.5 207.2 673.1 203.45 Q678.55 199.25 682.85 196.8 687.3 194.3 687.55 191.3 L686.6 183.8 Q686.25 180.25 687.35 158.2 688.5 133.6 688.5 128.65 688.5 121.35 689.15 115.15 L689.75 110.45 693.8 120.7 Q698.2 131.4 699.75 133.85 701.4 136.4 702.55 158.2 703.5 175.45 703.5 186.4 703.5 192.45 707.3 193.55 709.65 194.25 714.8 192.9 717.45 192.2 719.1 167.95 720.95 140.45 722.95 135.15 725.5 128.25 722.85 123.3 L720.4 119.25 Q718.95 116.75 718.55 114.35 717.75 109.2 711.85 105.4 707.7 102.75 702.25 101.35 L714.8 83.15 718.4 84.95 728.55 89.65 Q734.15 92.1 737.95 90.65 740.5 89.65 747.35 85.75 752.55 83.45 754.4 78.75 L755.95 74.25 Q757.05 71.25 758.6 68.85 L760.8 65.65 Q761.1 65.35 761.1 66.6 761.1 71.45 763.6 74.05 767.2 77.8 773.0 91.6 778.65 105.05 778.65 109.15 778.65 112.4 784.3 113.05 787.1 113.4 789.9 113.05 L796.15 105.25 798.05 108.35 Q799.9 111.9 799.9 114.35 L802.45 149.25 Q804.95 183.65 804.95 192.9 804.95 202.6 809.15 201.85 L813.9 200.05 Q817.5 198.45 819.95 198.1 825.1 197.35 828.7 170.85 L831.2 150.85 Q832.55 140.55 833.7 137.75" fill="#341b07" fill-rule="evenodd" stroke="none"/>
      <path d="M941.4 36.3 Q937.45 36.85 934.4 38.45 929.95 40.75 928.25 44.8 926.0 50.05 926.95 52.4 L928.1 54.7 Q928.9 56.35 929.2 58.45 929.75 62.65 928.95 64.3 L924.5 73.1 922.45 77.6 Q922.15 78.1 922.15 77.1 922.15 73.1 919.8 73.1 L914.65 73.35 Q912.8 73.65 909.45 75.05 L907.45 75.95 Q907.25 76.15 907.7 76.5 909.45 78.0 909.45 80.9 909.45 84.55 906.2 85.5 L902.9 85.75 Q901.75 85.75 899.85 84.8 896.1 82.85 892.55 77.95 889.75 74.05 890.2 74.2 891.65 74.55 890.7 71.15 889.45 66.65 889.65 63.6 889.7 62.7 890.7 57.5 891.2 54.8 887.4 53.7 882.45 52.25 881.3 50.65 877.55 45.45 877.55 39.95 877.55 37.7 876.25 35.2 874.9 32.6 872.85 31.15 871.1 29.95 867.1 32.85 L863.45 36.05 859.8 35.7 Q854.9 34.95 848.45 33.1 L844.0 31.75 Q843.45 31.55 844.0 31.15 846.1 29.7 843.75 26.3 L841.65 23.4 Q841.35 23.1 841.15 23.65 840.45 25.85 837.15 25.35 L834.0 25.6 Q833.6 25.85 832.1 27.65 828.6 31.85 819.35 35.05 810.9 38.0 811.35 37.25 812.8 35.05 806.2 35.05 L799.4 35.55 Q790.45 36.5 779.9 38.95 773.55 40.4 772.7 40.8 771.8 41.15 772.85 41.9 777.1 44.8 774.25 50.65 L774.25 79.9 Q774.25 88.45 770.5 86.0 769.35 85.25 767.9 83.45 L766.75 81.85 742.35 64.3 738.6 52.6 729.2 52.6 721.2 53.1 Q720.75 53.25 716.05 56.5 712.5 58.95 709.25 58.95 L706.65 58.45 693.5 54.55 689.75 46.75 674.75 46.75 Q665.35 46.75 665.35 47.75 665.35 48.2 667.2 48.7 L659.7 54.55 650.3 48.7 646.25 46.1 Q645.75 45.65 646.1 45.3 647.5 43.85 644.7 38.95 L642.15 34.75 Q641.7 34.2 641.15 34.55 639.05 36.05 633.4 33.1 627.8 30.2 627.8 30.65 627.8 32.15 622.15 31.15 615.8 30.05 605.65 37.15 L598.65 42.1 Q595.15 44.35 593.35 44.15 L584.45 42.85 574.6 41.55 Q570.35 41.15 569.5 43.65 568.95 45.3 567.7 50.65 566.15 54.3 562.05 53.5 L558.3 51.95 541.4 49.35 Q537.05 48.55 535.15 50.1 L532.65 53.25 Q531.2 54.75 530.7 56.1 530.15 57.55 530.15 60.4 530.15 62.3 528.8 66.1 526.75 71.95 525.15 78.6 523.6 85.05 521.05 90.65 518.55 96.1 517.0 102.65 515.15 110.3 514.25 109.05 L513.4 107.5 Q512.8 106.6 512.0 107.2 510.2 108.6 505.8 100.6 501.5 92.7 501.95 89.65 502.3 87.65 501.35 80.95 500.4 74.3 500.7 72.75 501.1 70.75 499.55 69.5 497.0 67.9 495.1 66.25 492.85 64.3 491.95 62.5 L488.8 55.85 Q486.55 51.6 483.9 50.55 479.8 49.0 479.45 48.7 476.95 46.65 462.3 47.95 447.3 49.35 441.9 52.6 437.2 55.45 435.3 53.0 434.7 52.25 434.45 51.05 L434.35 50.0 430.6 48.05 Q428.75 47.1 428.25 47.5 426.85 48.7 423.1 49.35 L420.0 50.0 Q421.85 50.0 420.6 50.65 419.0 51.5 417.8 55.05 417.0 57.3 414.95 64.3 413.45 68.95 414.0 69.5 L414.6 69.8 Q414.95 70.0 414.95 70.8 414.95 72.95 412.55 78.3 410.05 83.8 408.7 83.8 L404.55 83.15 401.8 82.5 Q399.8 79.6 396.8 76.0 390.85 68.85 386.15 65.6 383.35 63.65 378.9 60.95 376.65 59.65 374.9 57.8 373.35 56.2 373.35 54.05 373.35 51.65 371.75 49.35 370.0 46.75 363.95 44.95 356.15 42.65 354.25 41.55 350.35 39.3 333.9 38.15 319.1 37.1 307.9 37.65 300.05 38.05 299.8 39.45 L300.0 40.75 Q300.1 41.6 299.15 42.2 295.4 44.55 291.35 46.65 285.3 49.8 281.65 50.65 277.6 51.6 274.35 50.25 271.85 49.25 262.85 43.5 256.45 38.95 255.3 38.55 L245.35 37.0 Q236.35 35.4 211.45 37.65 L188.35 40.25 184.3 42.45 Q179.9 44.55 178.35 44.15 L171.15 43.2 163.95 42.2 Q162.5 41.85 159.2 38.8 L152.05 32.45 Q150.1 30.85 148.3 30.75 146.95 30.7 143.85 31.55 133.8 34.45 123.9 35.05 109.75 35.9 99.0 40.15 90.75 43.45 88.2 46.75 86.55 48.85 86.7 56.9 86.85 62.95 87.6 67.55 88.0 70.3 83.7 71.85 79.7 73.3 75.1 72.75 71.35 72.3 69.7 69.25 68.85 67.75 67.55 62.35 L66.25 58.05 64.45 55.2 Q63.3 53.25 60.55 51.15 L53.8 46.1 Q50.3 43.3 50.8 41.0 52.25 38.3 52.55 36.35 52.9 34.0 49.4 33.85 45.35 34.1 44.4 33.75 43.0 33.25 40.65 32.05 L36.9 29.85 Q35.8 29.1 29.8 26.8 L19.35 22.7 Q15.55 21.15 11.3 21.75 L5.6 22.7 0.0 22.7 0.0 0.0 9.2 0.65 21.25 1.3 43.05 4.05 75.1 7.8 90.45 9.45 100.15 9.1 143.2 6.0 189.05 3.9 271.65 3.9 Q284.5 3.9 315.15 9.1 345.8 14.3 349.25 14.3 L405.3 13.0 Q457.95 12.35 478.2 15.55 497.45 18.6 504.35 16.05 506.3 15.35 509.7 13.6 513.25 12.1 518.25 11.7 L553.8 8.6 592.15 6.5 605.6 7.15 613.4 7.8 Q622.5 7.8 625.65 8.75 628.0 9.5 639.7 15.55 649.35 20.55 689.15 23.05 L738.6 24.65 Q747.7 24.65 753.15 21.1 L757.05 18.05 Q759.3 16.3 761.1 15.55 765.75 13.65 781.75 11.35 797.7 9.1 806.2 9.1 L820.9 10.4 841.25 11.7 Q852.9 11.7 870.35 9.6 L893.8 6.5 910.4 4.05 Q919.95 2.6 925.1 2.6 930.55 2.6 936.55 16.9 939.5 24.0 941.4 31.15 L941.4 36.3" fill="#311a04" fill-rule="evenodd" stroke="none"/>
      <path d="M119.85 62.25 Q119.45 66.0 117.75 68.5 115.95 71.15 113.25 71.15 108.9 71.15 108.7 67.5 L108.65 64.55 Q108.5 62.95 107.6 62.35 105.9 61.15 106.1 59.2 106.7 56.5 106.7 54.55 106.7 51.45 109.45 49.7 112.3 47.85 115.15 49.7 120.7 53.3 119.85 62.25" fill="#311a04" fill-rule="evenodd" stroke="none"/>
      <path d="M301.05 52.9 Q302.5 50.3 304.8 50.65 321.35 53.1 319.6 66.5 318.65 73.55 313.25 83.8 312.3 86.75 312.2 86.0 311.85 83.8 310.45 83.8 308.55 83.8 307.5 78.45 306.7 74.4 306.7 70.15 306.7 68.05 305.5 66.0 303.75 62.95 302.9 60.4 301.75 56.75 300.8 55.8 L300.1 55.55 301.05 52.9" fill="#311a04" fill-rule="evenodd" stroke="none"/>
      <path d="M449.3 63.0 Q451.9 66.9 453.15 77.0 454.2 85.45 451.25 97.45 450.35 101.35 450.35 116.95 L447.55 113.2 Q444.7 109.05 444.7 107.2 444.7 105.7 442.7 100.65 440.45 94.9 440.0 92.6 L438.15 86.15 Q436.75 82.1 436.25 78.95 435.65 75.3 434.5 72.85 L433.45 71.15 433.45 61.4 Q444.4 55.7 449.3 63.0" fill="#311a04" fill-rule="evenodd" stroke="none"/>
      <path d="M543.3 62.35 Q552.3 54.25 558.05 57.0 561.5 58.65 563.0 63.35 563.6 65.15 561.95 66.4 L560.2 67.25 560.45 69.8 Q560.9 72.95 562.05 76.0 563.35 79.3 563.7 83.45 L563.95 91.6 Q563.95 95.6 562.1 116.35 560.2 137.05 560.2 134.5 560.2 132.4 559.65 127.85 L558.3 116.95 Q557.75 112.85 554.9 108.55 L550.8 102.35 547.15 95.65 Q544.75 91.35 544.2 89.65 L541.75 83.6 538.6 76.0 Q537.1 72.2 537.95 69.4 538.9 66.3 543.3 62.35" fill="#311a04" fill-rule="evenodd" stroke="none"/>
      <path d="M675.65 51.65 Q681.35 48.35 682.7 53.35 683.9 57.85 681.3 62.35 L680.05 64.35 Q679.85 64.55 679.8 63.85 679.45 60.9 677.55 59.45 674.45 57.0 673.85 55.25 673.1 53.15 675.65 51.65" fill="#311a04" fill-rule="evenodd" stroke="none"/>
      <path d="M796.8 51.65 Q800.15 53.4 800.9 55.95 801.55 58.3 799.95 60.55 798.4 62.75 795.35 63.85 792.05 65.0 788.35 64.3 784.75 63.6 784.7 61.2 784.7 59.1 787.1 56.4 789.4 53.9 792.25 52.4 795.3 50.85 796.8 51.65" fill="#311a04" fill-rule="evenodd" stroke="none"/>
      <path d="M684.1 34.1 Q694.0 36.5 694.45 40.3 694.55 41.35 693.9 43.3 693.25 45.05 693.5 45.8 694.25 48.05 695.3 55.8 696.35 63.65 696.35 67.25 696.35 70.3 691.65 79.8 689.3 84.55 686.95 88.7 678.5 83.8 672.85 79.9 669.25 77.4 663.35 78.55 661.5 78.9 655.95 80.9 L649.85 82.7 Q645.05 84.3 640.95 86.75 636.4 89.45 634.6 92.85 633.3 95.25 632.5 100.4 631.55 106.25 625.9 120.85 624.95 113.05 624.95 108.2 624.95 105.5 623.3 100.4 621.05 93.25 620.25 89.65 619.25 84.8 619.0 80.65 618.8 77.2 618.4 76.0 617.8 74.15 609.7 74.55 L594.0 76.0 Q587.05 76.65 575.8 83.1 565.7 88.85 563.95 91.6 L555.7 99.3 Q548.9 105.65 548.9 109.15 L548.9 120.85 Q548.9 165.95 548.0 184.45 547.4 196.05 541.05 238.2 L534.85 278.05 534.85 234.15 Q534.85 230.35 533.65 218.55 L531.05 194.2 Q530.0 184.4 529.8 159.0 529.55 134.85 529.2 132.55 528.7 129.35 526.4 121.95 523.95 114.2 523.55 112.1 522.95 108.95 520.65 106.15 L517.0 102.65 510.2 95.3 Q503.65 88.3 499.15 84.8 494.45 81.15 492.6 82.1 492.0 82.4 491.75 83.15 L491.65 83.8 488.8 89.65 Q487.15 93.1 487.75 94.8 L488.8 98.45 Q488.8 113.05 492.6 118.9 494.95 122.55 494.95 125.85 L494.45 133.5 494.45 207.85 Q494.45 217.6 492.1 233.2 L489.75 246.85 489.75 239.05 Q489.75 225.4 487.9 216.6 487.35 214.1 486.8 201.6 L485.55 175.8 Q483.25 138.85 477.55 127.65 473.25 119.2 462.65 107.95 452.15 96.8 445.65 83.8 438.15 68.85 432.4 68.0 L428.05 68.45 424.05 68.2 Q407.55 59.75 400.55 56.5 393.2 53.1 390.8 48.65 387.8 43.15 393.05 37.0 398.15 31.05 431.4 30.2 458.65 29.5 491.65 32.15 511.55 33.75 528.15 29.6 L543.5 26.0 Q553.95 24.0 566.75 23.35 591.8 22.15 605.0 22.75 L624.95 24.35 Q635.9 25.1 654.2 28.15 671.7 31.05 684.1 34.1" fill="#311a04" fill-rule="evenodd" stroke="none"/>
      <path d="M772.4 45.8 L775.65 55.15 Q777.05 60.3 777.05 63.35 L777.15 69.7 778.0 87.7 Q778.6 100.25 776.5 119.15 L774.25 137.4 773.55 169.0 Q772.6 199.4 771.45 204.95 770.25 210.45 768.7 224.45 L768.0 230.8 Q769.15 213.1 765.2 163.75 761.4 115.75 759.25 104.3 L757.25 93.95 Q756.4 90.25 754.55 85.75 752.85 81.65 753.0 78.85 753.6 75.05 753.6 71.15 753.6 67.25 753.15 67.0 751.75 66.3 749.85 61.4 747.5 55.3 746.45 54.2 744.7 53.1 742.35 50.65 739.25 47.45 741.85 46.3 742.8 45.85 749.85 44.8 L753.35 44.45 758.3 44.8 772.4 45.8" fill="#311a04" fill-rule="evenodd" stroke="none"/>
      <path d="M866.25 24.35 Q875.75 18.8 883.3 28.75 887.15 33.85 889.75 41.9 890.45 44.1 890.45 47.15 890.45 50.2 889.75 57.5 889.3 62.4 889.05 62.15 888.35 61.4 886.9 65.3 885.3 69.7 885.75 74.8 886.35 82.15 886.0 85.75 885.4 91.85 884.2 95.75 883.65 97.7 883.15 98.45 882.25 90.65 882.25 87.7 882.25 86.1 881.65 83.45 L880.35 77.0 Q879.8 73.5 880.0 69.9 L880.35 64.3 880.45 58.6 Q880.65 55.3 881.3 50.65 881.85 46.75 876.15 43.1 869.05 38.6 868.15 37.0 865.25 32.0 864.65 29.75 863.55 25.95 866.25 24.35" fill="#311a04" fill-rule="evenodd" stroke="none"/>
      <path d="M26.25 318.65 Q26.7 325.8 27.4 330.65 L32.5 362.65 36.15 386.4 Q36.15 390.95 34.9 401.35 34.4 405.4 31.95 417.9 29.9 428.15 29.9 432.5 29.9 437.05 29.1 438.7 27.7 441.6 27.4 442.9 26.15 448.1 26.15 470.2 26.15 473.45 27.4 476.4 28.65 479.3 28.65 480.6 28.65 495.55 24.9 507.25 L23.05 513.35 22.25 514.65 Q21.05 516.25 18.0 518.95 15.3 521.4 14.5 523.65 14.1 524.8 14.25 525.45 L14.25 530.65 12.4 527.4 3.6 523.5 Q7.35 518.95 9.9 517.0 L12.3 514.75 14.25 510.5 15.1 508.45 Q14.9 509.2 15.5 507.9 15.9 507.05 16.35 503.35 16.85 499.35 18.65 494.9 20.4 490.45 20.0 489.6 19.65 488.85 20.2 487.7 21.1 485.8 20.05 481.8 18.65 476.7 18.65 475.4 L18.5 470.1 Q18.45 466.55 19.25 460.45 L20.85 448.65 Q21.55 444.0 22.4 442.25 23.2 440.65 23.15 439.65 L23.0 439.0 Q23.65 434.45 23.65 429.9 23.65 427.35 22.55 424.65 21.3 421.5 21.15 420.15 20.75 417.35 19.65 413.95 L18.65 411.1 19.9 407.2 Q20.7 404.75 20.05 400.55 L19.25 396.8 21.75 403.3 Q24.25 409.8 25.5 414.35 L25.5 408.5 25.45 403.05 Q25.6 399.45 26.8 396.15 27.8 393.3 27.55 390.85 27.15 386.7 27.4 383.15 27.95 376.05 26.25 318.65 L25.75 308.0 25.7 301.55 26.25 318.65" fill="#311a04" fill-rule="evenodd" stroke="none"/>
      <path d="M11.9 429.6 Q14.5 422.85 15.0 429.15 15.4 434.05 12.4 442.5 L9.35 449.95 9.35 440.85 Q9.35 436.2 11.9 429.6" fill="#311a04" fill-rule="evenodd" stroke="none"/>
      <path d="M78.85 328.55 L81.25 333.35 85.1 341.55 Q86.95 346.1 86.95 375.85 86.95 378.4 86.25 380.3 85.35 382.85 85.1 384.3 84.7 386.6 84.85 389.25 L85.1 394.7 Q85.1 397.55 86.05 399.65 L86.95 401.2 97.0 409.0 94.5 410.3 Q91.35 412.9 87.6 413.55 85.25 413.95 85.25 424.3 85.25 429.8 85.7 438.9 85.7 442.75 86.5 444.6 L90.1 451.25 Q92.45 455.7 94.65 454.25 L96.35 451.9 98.8 461.9 Q101.45 472.45 102.6 475.3 103.85 478.35 103.25 479.85 L100.1 484.4 Q98.15 487.25 97.3 492.85 96.85 495.95 96.35 501.3 96.1 503.35 97.85 513.55 99.5 523.2 98.85 525.3 98.25 527.25 98.05 527.0 97.6 526.3 96.35 527.25 94.9 528.4 91.65 527.9 L81.35 526.6 73.75 526.35 71.3 526.6 66.65 526.85 Q63.85 527.25 60.05 528.55 L49.5 532.55 43.15 535.05 Q52.55 527.9 54.4 525.3 55.6 523.7 56.05 522.4 L56.3 521.4 Q57.55 518.8 61.3 513.65 65.05 508.45 65.05 496.1 65.05 494.15 66.3 491.55 L69.45 485.05 Q70.95 481.55 72.35 480.1 L75.7 476.6 Q77.65 474.15 78.75 471.9 L79.45 470.1 79.45 458.4 Q79.45 454.55 78.35 449.85 77.75 447.1 76.35 442.8 75.55 440.35 75.55 438.1 L75.7 434.35 75.7 429.15 Q75.7 428.2 76.4 426.25 77.8 422.35 81.35 417.45 84.75 412.75 84.1 411.95 82.6 411.6 82.6 410.3 82.6 408.7 79.15 400.25 L75.7 392.1 Q78.2 383.0 79.45 379.1 L80.0 376.9 Q79.8 376.2 80.1 373.25 80.5 369.6 79.7 348.7 L78.85 328.55" fill="#311a04" fill-rule="evenodd" stroke="none"/>
      <path d="M54.1 437.35 L54.4 434.35 58.8 433.7 Q61.1 433.35 61.8 429.2 62.1 427.35 62.35 427.0 62.8 426.3 63.8 427.2 66.55 429.65 67.05 422.15 L66.95 414.2 67.4 416.5 68.8 424.6 Q69.75 430.65 68.9 436.05 67.95 441.7 65.7 442.15 L62.3 442.0 Q59.6 441.1 57.55 440.85 54.45 440.45 54.1 437.35" fill="#311a04" fill-rule="evenodd" stroke="none"/>
      <path d="M51.9 472.7 L52.75 476.6 Q53.25 480.5 51.3 480.5 49.35 480.5 46.65 478.55 L44.4 476.6 48.15 476.6 Q50.5 476.6 51.45 474.65 L51.9 472.7" fill="#311a04" fill-rule="evenodd" stroke="none"/>
      <path d="M160.2 227.35 L163.55 230.5 166.45 233.2 Q167.7 234.5 167.55 235.55 167.1 238.75 167.7 244.25 168.4 250.5 169.2 253.6 170.0 256.7 170.2 258.55 170.6 261.7 171.65 263.6 L173.95 267.65 Q175.15 270.15 175.3 271.65 L175.2 274.15 Q175.2 275.1 172.65 279.5 169.9 284.2 169.6 285.85 169.2 287.85 169.35 305.25 L169.6 326.6 Q169.6 330.0 170.95 334.15 L172.7 340.25 Q173.85 347.25 178.35 358.05 184.7 373.35 191.5 375.85 L196.35 377.45 194.0 400.55 Q191.5 425.9 191.5 429.15 191.5 432.3 193.55 436.8 L198.4 447.35 Q200.75 453.05 200.1 453.05 199.8 453.05 199.0 451.9 L195.25 455.8 Q192.8 458.35 191.5 466.7 191.0 469.75 189.6 484.4 188.85 492.3 190.8 499.65 L193.4 509.05 Q193.8 512.3 197.7 517.5 L201.5 522.05 186.5 521.4 178.35 521.15 170.2 521.4 161.3 522.15 155.2 523.35 148.05 523.9 143.3 524.0 136.9 523.7 133.3 523.35 149.55 512.35 150.9 511.2 Q150.2 510.7 150.8 509.05 L152.9 503.25 Q154.5 499.1 156.45 495.45 158.5 491.65 160.15 485.85 L163.35 473.35 Q164.75 467.85 164.45 465.25 164.15 462.7 164.6 461.0 165.45 457.9 169.05 450.85 172.3 444.45 173.95 442.15 175.65 439.85 177.5 429.25 179.6 417.1 179.6 405.1 179.6 394.75 169.75 363.65 157.75 325.7 157.05 322.7 154.7 312.2 155.35 297.35 L156.45 283.25 157.1 278.3 157.7 272.85 157.7 257.25 Q157.7 254.55 153.45 247.35 148.9 239.55 148.3 236.45 147.5 232.4 142.85 221.0 L138.3 210.45 Q139.7 204.9 138.0 198.45 L137.05 195.1 Q136.85 194.0 137.65 194.2 139.5 194.7 141.55 198.45 143.6 202.1 144.55 206.55 145.25 209.75 149.35 212.55 153.75 215.6 154.55 217.6 L156.9 222.95 Q158.1 225.15 160.2 227.35 M196.35 377.45 L196.5 375.85 198.0 377.3 196.35 377.45" fill="#311a04" fill-rule="evenodd" stroke="none"/>
      <path d="M265.35 403.8 L269.25 411.45 Q270.8 415.35 271.6 419.4 272.45 423.85 272.7 427.95 L272.85 436.95 272.85 440.85 Q272.85 443.05 271.55 445.65 270.0 448.7 269.75 449.95 L267.25 466.2 Q261.6 462.3 258.5 459.7 256.55 458.1 256.7 455.5 L257.25 451.25 Q257.25 449.85 255.5 447.9 253.4 445.55 252.85 444.1 252.05 442.05 249.25 440.3 L246.6 438.9 240.95 423.3 246.9 425.25 Q253.5 427.2 256.6 427.2 259.75 427.2 262.25 423.95 L264.1 420.7 Q263.75 415.85 264.5 409.35 L265.35 403.8" fill="#311a04" fill-rule="evenodd" stroke="none"/>
      <path d="M278.35 475.65 Q278.1 468.9 278.5 466.2 279.15 462.3 279.15 459.7 279.15 458.5 281.35 454.4 L283.5 450.6 283.5 458.4 Q283.5 461.05 284.3 462.15 L286.0 464.9 Q286.8 466.95 287.7 466.75 288.2 466.7 288.5 466.2 L289.15 458.4 289.0 454.35 Q288.95 451.4 289.75 447.35 290.55 443.3 293.35 432.55 L296.05 422.65 294.8 439.55 Q294.35 443.85 294.8 446.15 295.1 447.85 296.65 453.2 298.55 460.35 301.65 470.1 L303.55 484.4 Q304.7 493.15 304.25 496.35 L303.55 500.0 303.55 507.15 Q303.55 508.9 305.2 513.7 307.05 519.1 307.3 520.75 307.7 523.25 310.1 524.0 L316.7 525.3 Q320.85 526.25 320.3 527.75 319.7 529.2 315.45 529.2 L312.25 529.1 306.65 528.55 Q301.3 528.15 298.0 529.35 295.1 530.85 293.55 531.15 291.6 531.55 290.25 534.4 L287.9 539.6 Q286.7 541.65 285.6 542.45 L284.75 542.85 Q283.65 543.5 281.65 544.15 277.55 545.45 272.85 545.45 268.15 545.45 261.3 547.1 L255.35 548.7 Q269.1 538.3 270.35 536.35 271.2 535.05 271.45 532.7 L271.6 528.55 Q271.6 521.4 272.85 518.2 273.5 516.6 273.7 516.65 274.45 516.9 276.0 515.55 278.0 513.9 279.85 510.0 L282.25 503.9 Q282.9 502.25 281.5 497.75 279.6 491.55 279.15 487.0 278.6 481.35 278.35 475.65" fill="#311a04" fill-rule="evenodd" stroke="none"/>
      <path d="M254.45 489.7 L255.95 480.5 257.25 503.9 256.15 506.6 Q255.15 509.65 255.95 511.7 257.25 514.95 258.25 518.8 259.55 523.8 259.1 526.0 L258.5 529.2 Q254.1 528.55 250.35 527.25 L247.15 526.15 243.45 526.0 229.05 526.0 239.05 520.75 240.95 518.5 Q242.85 515.9 242.85 514.25 L242.45 511.7 Q242.35 510.65 243.45 509.05 244.75 507.3 246.05 503.0 247.2 499.1 247.2 497.4 247.2 497.05 248.7 499.85 250.5 503.2 251.6 501.3 252.75 499.25 254.45 489.7" fill="#311a04" fill-rule="evenodd" stroke="none"/>
      <path d="M364.4 431.95 L364.9 438.9 Q365.3 442.95 366.85 446.2 L369.25 450.6 Q370.0 452.2 370.45 455.0 L371.15 460.35 Q371.55 463.05 371.2 465.7 L369.9 472.05 369.35 474.5 Q369.6 474.0 369.25 475.95 368.65 479.85 368.65 490.25 363.0 487.65 361.75 485.7 360.45 483.7 359.35 482.6 357.6 480.95 355.5 480.5 353.55 480.1 352.1 479.3 L351.1 478.55 349.15 476.45 Q346.8 474.15 344.85 473.35 342.9 472.55 343.05 469.95 L343.6 467.5 346.35 467.75 354.25 467.5 Q358.55 467.1 359.65 463.35 L359.9 459.7 Q364.2 459.7 364.65 443.8 L364.4 431.95" fill="#311a04" fill-rule="evenodd" stroke="none"/>
      <path d="M348.6 500.0 L354.55 498.6 Q360.85 497.5 362.4 498.7 L366.3 502.1 371.15 506.5 Q372.95 508.05 373.1 510.5 373.25 512.9 375.55 514.9 378.25 517.35 379.05 519.6 379.45 520.75 379.3 521.4 376.8 521.4 373.65 520.1 L368.3 517.85 Q364.7 516.35 361.15 515.55 L356.3 515.4 Q353.95 516.25 352.35 516.25 L343.0 516.25 Q340.65 516.25 340.65 513.0 L341.1 509.75 344.25 509.75 Q346.3 509.75 347.1 507.3 L348.6 500.0" fill="#311a04" fill-rule="evenodd" stroke="none"/>
      <path d="M403.05 221.5 Q404.7 225.2 405.6 232.55 406.6 240.85 408.1 245.55 408.95 248.15 410.3 250.55 411.75 253.0 412.3 254.75 414.4 261.2 415.6 283.9 416.7 305.55 416.35 314.8 L416.2 321.4 Q416.6 323.7 416.0 326.85 L414.35 335.7 409.95 359.15 409.9 352.55 Q409.7 336.25 409.95 333.75 410.5 328.35 409.95 315.75 409.4 302.2 408.1 296.25 406.95 291.1 405.4 288.85 403.4 286.5 401.8 283.9 399.85 280.65 399.3 277.65 L398.7 272.85 Q398.35 271.2 395.95 266.6 393.0 261.05 391.8 257.9 390.3 254.0 387.5 252.6 L379.9 248.8 Q375.8 246.1 369.9 244.25 L361.75 241.65 354.8 238.3 351.1 236.45 349.85 229.3 358.0 229.3 Q361.55 229.3 362.6 226.05 L363.0 222.8 360.6 219.25 Q357.95 215.65 356.75 215.65 355.45 215.65 354.1 214.6 353.15 213.85 350.5 211.1 L347.75 207.95 347.35 207.2 351.05 206.95 Q355.25 206.45 358.0 205.25 360.75 204.05 360.3 197.05 L359.25 190.3 360.95 192.4 Q363.8 195.0 369.25 197.45 374.75 199.9 376.35 197.6 377.1 196.5 376.8 194.85 L381.25 193.45 Q386.1 192.65 388.05 195.5 390.95 199.7 395.55 207.55 400.95 216.65 403.05 221.5 M409.95 359.15 Q409.85 367.7 409.35 369.35 L405.55 380.4 409.95 359.15" fill="#311a04" fill-rule="evenodd" stroke="none"/>
      <path d="M445.0 401.85 Q450.55 408.4 450.4 409.35 L450.05 409.7 Q449.9 409.95 450.65 410.95 452.2 412.95 452.35 416.05 L453.15 432.4 Q453.9 443.15 454.0 442.65 L454.1 441.55 Q454.2 440.95 454.4 442.15 454.7 444.1 454.3 443.6 453.15 442.15 451.9 442.15 450.35 442.15 449.1 440.85 L448.15 439.55 Q439.35 433.7 437.5 433.05 434.8 432.15 431.25 433.05 429.95 433.4 430.1 435.1 430.25 437.7 429.35 439.55 428.25 441.9 426.85 440.95 425.3 439.25 424.35 438.9 L419.6 436.65 Q415.75 434.7 414.35 434.35 L411.2 434.45 409.95 435.0 401.2 435.65 Q399.65 435.65 394.3 430.45 L389.3 425.25 397.45 424.6 Q402.5 424.2 403.9 421.1 404.6 419.55 404.3 418.1 L419.35 421.35 421.95 421.6 428.75 421.35 Q432.25 420.95 434.6 415.9 L436.25 410.95 Q439.65 403.5 436.1 395.6 432.2 389.5 433.1 389.5 434.4 389.5 436.25 391.55 L445.0 401.85" fill="#311a04" fill-rule="evenodd" stroke="none"/>
      <path d="M411.8 482.45 Q409.5 482.4 407.95 477.9 L406.85 473.35 Q411.6 470.25 416.45 467.75 426.15 462.7 426.85 465.55 428.75 473.45 428.4 475.95 427.55 482.45 418.7 482.45 L411.8 482.45" fill="#311a04" fill-rule="evenodd" stroke="none"/>
      <path d="M472.55 383.65 Q473.3 385.6 473.0 387.55 L472.55 391.45 Q472.55 393.25 475.05 399.75 477.55 406.25 477.55 407.05 477.55 408.5 479.5 411.1 L485.7 418.1 Q488.55 421.05 490.3 423.8 491.4 425.0 494.45 424.6 L501.65 423.3 Q505.1 422.75 505.1 423.95 L505.35 428.85 Q505.45 432.85 505.1 435.65 504.7 438.5 501.4 440.6 L498.2 442.15 498.05 447.35 Q498.05 453.2 498.85 456.45 499.4 458.8 502.9 464.4 506.3 469.9 507.0 473.35 507.85 477.75 511.9 483.35 514.8 487.3 520.1 492.85 523.3 496.15 524.4 498.7 527.35 505.3 530.15 510.35 534.65 518.5 533.35 518.85 L532.0 518.6 Q531.2 518.5 531.4 519.5 531.75 521.3 530.5 523.1 528.7 525.8 528.25 527.25 L527.65 529.05 Q527.65 528.55 527.0 529.85 526.2 531.5 524.1 531.4 L518.85 530.5 Q516.15 530.15 514.1 531.25 L512.6 532.45 512.55 531.05 Q512.7 529.6 513.85 529.2 515.55 528.65 517.2 527.35 519.25 525.8 520.1 524.0 520.9 522.4 520.2 519.8 L518.85 515.55 Q518.35 513.45 517.55 512.6 516.5 511.5 513.85 511.05 L510.95 511.3 Q510.45 512.35 509.5 513.0 508.3 513.8 507.55 517.05 L507.0 520.1 507.0 516.85 Q507.0 514.85 504.5 511.8 L501.95 509.1 499.45 509.1 Q494.45 509.75 492.6 511.05 491.4 511.9 490.85 516.15 L490.1 524.65 Q489.7 528.3 489.25 528.5 489.0 528.6 488.85 527.95 L485.05 528.55 463.8 528.55 458.95 528.45 456.9 527.9 453.45 527.0 450.0 524.65 Q448.3 523.25 447.3 524.1 445.35 525.7 443.15 526.0 L440.55 526.25 437.5 526.0 405.55 526.0 408.0 525.9 411.85 525.3 415.35 524.35 419.35 523.35 Q420.95 522.95 422.55 521.4 L426.25 517.5 429.85 512.9 Q431.7 510.55 434.35 509.75 437.2 508.9 439.75 506.65 L443.75 502.6 Q445.3 501.0 444.7 496.1 L443.75 491.55 448.75 507.8 453.15 512.35 Q454.4 513.6 457.2 513.65 L461.3 513.0 Q464.95 511.7 469.4 511.05 472.15 510.65 474.5 505.3 L476.3 500.0 Q476.3 496.75 477.55 494.8 479.2 492.2 482.55 489.6 484.1 488.4 483.8 483.9 L483.2 477.25 Q483.2 475.45 484.15 471.9 L485.05 467.5 Q485.05 466.4 483.35 460.6 L480.7 451.25 Q480.2 449.1 478.45 445.1 477.2 442.3 477.55 440.85 L479.05 437.2 Q480.05 434.35 480.05 429.15 480.05 424.4 478.75 422.4 477.2 420.05 476.95 418.1 476.55 414.85 470.75 402.85 L465.05 391.45 Q466.5 385.3 464.95 365.05 L465.65 371.95 468.65 376.6 Q471.75 381.6 472.55 383.65" fill="#311a04" fill-rule="evenodd" stroke="none"/>
      <path d="M279.55 240.2 Q279.15 243.95 279.15 246.2 L280.65 257.75 Q281.7 271.4 279.75 281.95 277.7 293.1 276.85 305.7 277.1 324.5 276.65 321.4 276.05 317.9 276.8 306.55 L276.85 305.7 276.65 293.3 Q276.0 261.35 274.75 254.0 273.75 248.15 272.95 245.3 272.2 242.65 271.6 239.05 270.75 233.75 270.2 225.4 269.75 218.4 269.75 213.7 269.75 208.95 267.25 198.1 L265.75 190.15 Q264.4 183.6 262.85 181.2 261.8 179.6 260.75 158.9 259.65 137.85 257.25 133.2 254.35 127.6 252.4 126.7 L246.6 126.05 Q243.85 125.75 242.9 124.9 241.65 123.8 237.8 122.8 233.1 121.6 230.95 118.8 L229.7 116.3 233.05 115.55 Q236.65 114.45 237.8 112.4 238.75 110.8 238.55 111.75 L239.7 109.15 Q241.9 104.0 241.95 102.55 242.05 100.15 239.05 97.45 236.9 95.5 234.7 92.1 233.15 89.65 232.2 89.65 L223.05 90.65 215.3 91.6 212.55 84.25 Q210.2 77.25 212.15 79.25 L214.05 81.7 Q215.25 82.45 219.65 81.2 223.1 80.25 226.45 80.0 228.3 79.65 229.05 77.3 229.45 76.05 230.1 75.8 L231.25 75.6 Q232.75 75.15 233.45 69.5 L234.7 59.75 237.85 65.95 Q240.95 73.1 240.95 77.95 240.95 79.95 240.15 82.85 239.9 85.3 242.2 87.7 244.3 89.9 248.85 93.0 L254.1 96.8 Q255.05 97.8 254.1 97.05 L255.95 98.75 260.5 103.3 264.1 107.85 Q266.4 110.7 268.4 114.75 270.35 118.7 270.35 120.2 L270.05 125.1 Q270.05 129.05 271.6 131.9 273.15 134.75 274.75 155.65 L276.0 176.0 276.05 184.85 Q276.55 195.75 278.5 205.9 279.9 213.2 282.75 217.35 283.5 218.45 283.45 219.7 283.4 221.2 282.25 225.4 280.3 232.7 279.55 240.2" fill="#311a04" fill-rule="evenodd" stroke="none"/>
      <path d="M244.85 230.95 L243.45 222.15 247.35 227.25 252.2 233.85 Q253.25 235.5 254.3 239.4 255.55 243.85 255.95 248.8 256.35 253.4 258.25 257.6 259.15 259.55 261.0 262.45 261.8 263.7 261.3 265.7 L259.75 270.9 Q258.95 273.75 256.75 276.85 L254.7 279.35 251.6 277.4 250.1 280.65 Q248.4 283.9 247.2 283.9 246.05 283.9 244.95 281.65 L244.1 279.35 237.8 274.15 234.7 273.5 Q228.4 272.2 225.3 272.2 223.35 272.2 224.1 267.35 L225.3 262.45 237.8 262.45 Q240.2 262.45 242.05 255.0 L243.45 247.5 Q245.8 241.0 244.85 230.95" fill="#311a04" fill-rule="evenodd" stroke="none"/>
      <path d="M231.75 376.6 L228.45 373.25 232.35 373.15 239.05 372.6 Q241.3 372.2 243.4 353.1 245.25 336.4 245.35 337.0 246.0 341.55 249.4 361.4 252.05 379.2 249.7 380.4 247.4 381.6 245.65 381.4 L239.7 380.4 Q235.8 380.0 231.75 376.6" fill="#311a04" fill-rule="evenodd" stroke="none"/>
      <path d="M608.4 340.9 L608.4 373.9 Q608.4 375.7 607.9 378.05 L606.5 383.65 Q605.75 386.4 604.4 396.9 L602.75 409.65 Q602.35 412.0 602.5 416.5 L602.75 423.3 Q602.75 425.65 603.7 426.9 L606.5 430.45 Q607.75 432.4 607.85 431.9 608.1 430.45 609.65 430.45 611.6 430.45 614.25 426.9 L616.5 423.3 616.9 427.55 Q617.4 432.1 617.75 433.7 618.15 435.25 618.0 438.25 L617.75 442.8 Q617.75 445.4 617.35 446.85 616.7 449.3 614.65 451.9 612.45 454.6 610.9 470.45 609.55 483.85 609.0 502.6 608.65 515.6 608.0 516.4 607.6 516.45 607.35 516.65 606.9 517.1 606.5 519.5 605.7 524.35 604.65 527.2 L603.75 529.1 604.6 522.05 Q604.0 518.2 604.0 513.65 604.0 510.85 603.6 508.15 L602.75 502.6 Q602.35 499.75 601.25 497.0 L600.25 494.8 600.15 497.3 Q600.0 500.1 599.6 501.3 L595.85 509.75 Q595.45 510.6 594.65 515.65 593.95 520.15 592.5 522.0 590.95 524.05 588.25 524.55 L581.45 524.65 577.1 525.1 572.7 526.0 566.6 527.4 561.45 527.9 Q559.7 527.55 556.9 525.55 L556.05 525.0 558.8 524.1 563.3 522.05 Q564.4 521.65 565.8 517.75 L568.3 511.05 573.95 499.35 Q580.2 488.95 582.7 483.75 584.15 480.7 583.7 478.55 583.2 475.95 583.35 475.3 L583.95 470.5 Q584.25 467.25 584.6 466.2 586.3 463.45 587.55 459.95 590.0 453.15 589.6 443.45 589.2 434.0 591.95 418.25 594.95 403.15 595.25 399.9 595.85 393.15 593.75 371.8 591.25 346.65 587.1 332.45 583.35 319.5 586.15 295.3 L587.7 285.8 Q588.0 290.6 590.0 303.85 592.8 322.8 594.6 327.9 596.0 331.95 598.05 334.4 599.6 336.3 599.6 337.0 599.6 338.2 604.0 339.7 L608.4 340.9 M587.7 285.8 Q587.55 283.85 587.7 283.25 588.65 279.3 587.7 285.8" fill="#311a04" fill-rule="evenodd" stroke="none"/>
      <path d="M550.8 381.7 L553.3 390.05 Q555.8 399.0 555.8 401.85 555.8 403.95 556.1 406.9 L556.4 412.9 Q556.4 416.6 555.4 419.9 L553.9 423.95 Q553.35 425.75 552.75 429.7 554.4 430.45 554.25 430.6 L552.65 430.45 552.75 429.7 Q551.25 429.0 548.3 427.85 543.3 425.9 540.45 424.2 539.55 423.65 538.25 423.95 536.8 424.35 535.6 425.6 L533.9 427.2 Q533.05 427.65 532.1 426.25 531.35 425.15 530.75 423.3 529.35 421.7 528.45 420.15 526.65 417.2 527.0 411.6 L530.15 412.1 537.0 411.6 541.75 411.2 Q543.05 411.1 544.55 408.35 545.35 406.9 548.05 404.3 549.8 402.6 550.15 399.25 L550.7 393.9 550.8 389.5 550.8 381.7" fill="#311a04" fill-rule="evenodd" stroke="none"/>
      <path d="M656.6 265.7 Q656.6 262.45 657.4 266.1 658.6 271.8 659.1 272.85 659.75 274.25 663.1 278.8 L670.35 289.1 Q673.75 294.15 672.45 304.95 L671.15 314.0 Q670.35 319.4 670.35 322.7 670.35 368.05 672.2 383.65 673.35 393.15 671.45 394.8 668.15 395.7 665.95 398.6 663.35 402.1 665.35 406.9 L667.2 410.65 Q668.25 412.85 668.45 414.2 668.85 416.85 668.4 420.95 667.85 426.1 667.85 427.2 667.85 429.65 669.1 431.25 L670.35 432.4 672.55 434.1 Q675.05 436.2 676.6 438.25 678.25 440.4 678.8 444.65 679.1 447.2 679.1 452.55 L679.55 458.4 Q679.85 461.9 679.1 468.15 677.85 478.7 677.7 483.0 677.45 491.15 679.1 499.35 680.65 507.05 682.8 509.0 L685.55 510.95 Q687.8 512.45 689.75 514.3 694.1 518.4 688.8 521.45 687.1 522.4 684.1 523.4 681.15 524.35 680.35 524.65 678.75 525.35 672.0 524.6 L660.35 524.05 Q656.6 524.35 656.8 524.75 657.55 526.0 654.7 527.95 650.3 530.95 648.6 531.65 646.6 532.5 643.45 532.5 641.45 532.5 638.9 533.2 635.9 534.05 631.55 534.4 626.45 534.8 616.95 534.45 L608.45 534.05 618.95 526.75 Q621.55 524.9 624.05 519.5 L627.8 507.8 Q628.65 505.2 628.9 502.7 L629.05 498.05 628.75 492.6 Q628.4 488.85 628.4 487.65 L628.5 484.8 Q628.6 483.85 629.05 482.45 629.35 481.5 630.6 479.85 631.85 478.25 632.15 477.25 632.55 476.1 632.8 473.75 L633.4 468.8 Q633.8 466.35 633.65 464.1 L633.4 462.3 636.3 468.9 Q639.3 475.85 639.7 477.9 640.1 480.1 639.75 482.55 L638.4 489.6 Q637.65 493.55 637.1 494.95 L635.3 499.35 Q634.2 502.35 634.95 503.8 636.35 506.45 636.55 507.8 637.15 512.35 637.15 519.5 L642.2 515.6 Q644.7 513.65 644.3 513.55 643.15 513.35 644.05 511.05 645.95 506.5 645.95 490.9 645.95 488.15 646.75 486.7 648.05 484.15 652.2 482.45 656.4 480.7 657.35 478.3 657.85 477.15 657.85 472.7 657.85 469.95 658.3 468.9 L659.7 465.55 Q660.45 463.25 660.1 461.75 659.25 457.85 659.1 456.45 658.75 453.45 656.35 442.25 654.05 431.7 654.05 430.45 654.05 428.9 654.45 427.95 L655.35 425.9 Q655.8 424.5 656.5 418.0 L657.2 409.65 Q657.2 407.05 654.05 389.5 L657.45 362.5 Q660.7 335.75 662.2 331.15 663.6 326.75 664.1 326.3 L664.1 325.3 664.1 319.45 660.35 294.75 Q656.6 269.35 656.6 265.7" fill="#311a04" fill-rule="evenodd" stroke="none"/>
      <path d="M716.65 128.65 Q717.7 127.25 718.05 124.65 718.3 123.3 718.55 124.1 L720.75 128.65 Q722.55 132.45 722.95 135.15 723.55 139.7 723.55 181.85 L723.5 186.0 722.95 193.55 Q722.55 198.9 722.85 201.35 L724.2 209.15 Q724.75 212.9 725.75 216.2 726.65 219.15 727.3 224.75 728.0 230.6 727.75 231.65 727.3 233.85 727.3 237.1 727.3 242.9 726.7 247.85 L724.2 264.4 Q722.55 274.95 721.75 276.6 720.85 278.4 721.65 274.15 722.0 272.45 721.6 270.35 721.05 267.45 721.05 265.05 721.05 260.9 719.95 251.65 718.8 242.05 717.9 239.7 717.05 237.5 716.5 232.55 716.05 228.45 716.05 225.4 716.05 223.3 714.55 219.4 L711.65 212.4 Q710.55 209.65 707.85 207.45 704.8 205.25 703.5 203.95 701.95 202.35 699.3 198.2 L696.0 192.9 Q695.3 191.8 695.45 184.15 695.65 176.1 695.4 175.35 L701.25 178.95 Q708.0 182.5 712.3 182.5 716.4 182.5 715.25 178.85 L714.05 175.65 Q713.35 173.75 713.55 172.75 L714.65 150.45 Q715.55 130.2 716.65 128.65" fill="#311a04" fill-rule="evenodd" stroke="none"/>
      <path d="M685.45 188.85 Q686.1 182.55 686.6 183.8 L688.35 188.25 691.0 198.1 Q693.75 209.6 688.5 215.0 687.35 216.15 685.7 216.05 L679.1 215.65 Q674.8 215.65 673.15 214.5 L670.95 212.4 Q669.8 211.6 667.45 207.05 L665.35 202.65 667.7 202.9 672.85 202.65 Q678.5 201.7 680.35 194.85 L680.45 196.05 Q680.9 197.2 682.85 196.8 684.6 196.45 685.45 188.85" fill="#311a04" fill-rule="evenodd" stroke="none"/>
      <path d="M743.65 287.15 L742.95 283.9 747.25 301.5 Q751.8 319.6 752.95 322.05 754.0 324.25 756.95 347.0 760.0 370.45 760.5 371.95 761.2 374.15 760.2 377.7 758.45 383.75 758.0 386.9 757.25 391.95 757.6 393.75 L758.6 398.6 Q759.55 406.95 758.6 418.1 758.0 425.9 758.0 442.8 L756.1 435.65 756.1 429.8 Q756.1 427.85 753.85 426.45 750.15 424.6 747.35 422.65 743.95 420.3 743.2 417.7 743.0 415.2 742.35 414.2 L740.6 411.6 Q739.6 410.3 737.95 409.0 736.4 407.8 734.8 407.95 L733.55 408.35 Q726.7 406.4 724.2 404.45 722.6 403.25 720.1 399.15 L717.9 395.35 719.8 395.35 722.45 395.2 726.05 394.05 Q727.65 393.4 727.95 392.1 728.25 390.8 729.8 390.15 L732.8 388.55 Q733.5 387.6 734.8 383.0 736.0 378.95 736.45 357.55 L736.7 337.0 740.55 333.9 Q744.75 330.35 746.7 327.9 748.65 325.45 747.2 311.6 L744.85 294.3 743.65 287.15" fill="#311a04" fill-rule="evenodd" stroke="none"/>
      <path d="M747.95 451.25 L753.6 459.05 Q756.5 463.25 758.05 466.75 760.25 471.75 761.1 477.9 761.85 483.3 761.55 485.55 L761.1 490.25 Q761.1 494.3 760.3 501.65 759.5 509.25 758.6 513.0 757.35 509.75 754.85 506.5 L749.55 497.5 Q745.4 490.9 742.35 490.9 739.2 490.9 735.15 487.0 L731.7 483.1 731.05 477.25 734.4 477.15 742.95 476.6 Q746.9 476.25 746.4 471.85 L745.95 468.35 Q745.85 466.45 746.7 465.55 747.95 464.25 747.95 451.25" fill="#311a04" fill-rule="evenodd" stroke="none"/>
      <path d="M803.6 260.2 Q805.55 264.85 805.55 265.7 805.55 267.8 805.8 269.2 806.2 271.6 807.45 274.15 808.45 276.3 808.6 279.85 808.75 284.3 809.3 286.5 810.05 289.7 809.75 325.9 L809.3 368.7 Q809.3 373.65 804.6 387.45 799.9 401.3 799.9 405.75 799.9 410.55 803.2 415.85 806.85 421.65 807.45 425.9 L810.4 440.55 Q812.45 450.2 812.45 457.1 812.45 464.6 811.8 471.55 L809.3 496.75 Q807.9 511.5 807.05 509.75 L806.05 507.55 Q805.3 506.6 804.3 509.1 L800.6 517.45 797.4 523.4 Q795.75 526.35 795.35 527.65 L794.75 530.45 Q794.4 531.95 793.25 531.45 791.0 530.5 789.9 530.5 L786.15 531.15 Q783.8 531.85 781.85 531.95 776.75 532.3 773.4 533.35 L771.1 534.3 757.35 533.75 759.6 532.95 764.25 531.15 767.5 529.55 Q769.2 528.7 771.75 527.95 773.95 527.3 775.3 527.1 L777.4 525.35 Q779.6 523.1 780.75 522.25 782.5 521.05 785.5 520.15 788.0 519.4 788.5 517.8 789.45 514.55 790.55 513.0 792.35 510.35 792.5 507.65 792.8 501.1 793.05 499.35 L794.05 492.6 795.55 488.3 799.6 477.8 Q802.15 470.8 801.8 468.8 L798.6 458.4 Q795.6 449.25 794.9 446.05 794.1 442.4 791.65 438.65 L789.3 435.65 784.9 433.7 Q784.25 429.8 783.0 425.25 782.65 424.05 781.35 414.95 780.35 407.8 779.25 407.05 777.9 406.1 776.6 400.25 775.35 394.5 774.9 387.55 L774.65 383.75 774.8 384.45 Q775.55 388.85 776.15 390.15 776.95 391.8 780.05 393.4 L783.0 394.7 791.8 389.5 795.5 387.2 Q795.9 386.85 795.15 386.65 792.1 385.95 792.4 382.35 L792.8 376.6 Q792.9 375.2 793.65 371.3 794.2 368.5 794.7 351.55 795.15 335.35 796.15 331.8 796.95 329.0 797.6 314.35 798.2 298.85 799.9 291.05 801.8 282.5 801.4 281.15 L800.9 280.25 Q800.55 279.65 800.55 278.05 800.55 275.45 799.95 269.3 799.3 263.1 799.3 260.5 799.3 257.25 797.75 249.8 L796.15 242.95 798.45 246.1 Q800.8 249.85 801.15 252.7 801.5 255.15 803.6 260.2" fill="#311a04" fill-rule="evenodd" stroke="none"/>
      <path d="M849.2 287.7 Q849.45 284.25 850.0 282.6 850.3 281.65 850.3 282.2 850.3 283.9 850.6 285.2 L851.95 302.5 Q853.05 318.55 853.75 320.75 854.5 323.15 855.7 323.25 L858.15 323.35 Q859.4 323.8 865.8 322.15 871.6 320.65 874.4 319.45 876.35 318.65 876.55 303.15 L876.3 287.8 878.1 302.4 Q880.1 317.75 881.3 321.4 882.5 325.15 884.2 325.2 L893.2 324.65 900.95 324.25 906.35 321.4 Q910.5 319.45 911.25 302.65 911.35 285.55 911.95 283.9 912.75 281.85 915.25 278.15 L917.6 274.8 917.75 277.25 Q918.05 280.5 918.85 284.55 919.7 288.95 919.55 309.55 919.4 328.95 918.85 333.1 918.25 337.45 917.8 354.0 917.35 371.9 918.2 375.85 L919.65 381.3 Q920.85 385.6 921.5 389.65 923.6 402.45 922.0 420.05 920.4 437.85 922.0 442.8 922.45 444.35 924.8 448.95 927.4 454.05 929.5 459.7 934.0 471.7 933.3 473.75 L932.4 475.15 Q931.8 476.2 932.0 478.55 932.4 483.45 931.0 492.55 L929.5 500.65 928.7 504.15 925.1 518.8 Q922.9 527.55 922.15 526.35 L921.4 524.75 920.1 524.7 Q918.25 526.6 916.8 527.45 915.45 528.25 912.6 529.2 910.25 530.05 908.35 529.7 L906.95 529.2 906.95 527.25 Q906.95 523.4 907.6 521.45 908.3 519.25 909.85 515.75 912.0 511.0 914.45 507.15 L920.1 498.05 Q921.1 496.5 921.5 494.8 922.0 492.85 922.0 489.6 922.0 486.65 920.2 481.5 L916.95 473.35 915.2 468.5 Q914.65 467.6 913.85 471.4 912.85 476.0 911.8 482.3 910.7 488.85 910.7 490.25 910.7 492.85 910.1 497.4 909.05 504.6 903.2 518.75 899.75 527.05 897.7 527.85 897.1 528.05 895.7 527.85 L893.2 527.95 890.45 528.15 888.0 527.85 887.15 527.8 884.4 527.25 Q882.0 526.9 878.8 525.45 875.85 524.05 875.05 524.05 L872.0 524.2 863.75 525.35 Q859.4 526.0 859.85 526.3 861.25 527.3 858.75 529.2 856.0 531.35 854.6 530.65 851.65 529.15 848.55 529.15 844.1 529.15 842.95 531.85 L842.1 534.4 Q841.55 536.0 840.6 537.0 838.75 538.9 837.25 538.65 L834.35 538.3 830.2 538.45 821.85 537.65 816.8 537.8 Q815.45 539.85 813.7 540.9 808.8 543.75 807.3 544.2 804.65 545.1 798.95 545.05 L794.95 545.05 798.9 542.1 804.3 537.65 Q805.55 536.35 806.2 534.5 L808.05 527.95 Q809.25 523.9 814.7 521.3 817.45 520.0 819.95 519.5 L821.75 519.85 826.85 520.15 Q829.45 520.15 829.95 519.3 L831.2 517.55 Q832.3 516.8 832.85 514.3 L834.95 505.2 Q836.4 499.85 840.5 500.55 L844.05 501.45 847.5 501.3 Q850.0 500.15 850.7 497.8 851.8 493.95 852.5 492.85 853.95 490.6 850.7 480.4 847.35 469.95 847.5 469.45 L849.35 464.25 Q850.15 461.85 859.4 457.1 862.4 455.55 861.6 453.75 L860.0 449.95 Q860.0 447.9 857.85 441.25 L855.65 435.0 863.15 428.5 Q866.0 426.05 869.3 424.45 870.7 423.8 873.15 419.4 875.7 414.85 873.3 404.65 L872.05 400.1 Q871.9 399.3 873.15 401.85 878.75 413.1 882.3 411.7 883.55 411.2 884.15 409.25 884.7 407.55 884.4 406.4 877.55 375.2 875.65 372.6 874.85 371.5 872.45 354.95 870.15 339.0 868.75 338.3 L864.4 335.95 Q861.25 334.3 858.15 333.1 855.0 331.9 853.75 330.4 L853.1 329.2 Q850.0 298.2 849.35 294.3 848.95 291.6 849.2 287.7" fill="#311a04" fill-rule="evenodd" stroke="none"/>
      <path d="M899.45 96.15 Q901.3 97.3 903.65 101.7 L908.85 111.1 Q911.2 114.95 911.5 119.65 911.85 125.25 913.2 128.65 915.0 133.1 914.55 134.65 914.05 136.4 914.45 137.75 915.2 140.15 914.3 161.65 L913.2 185.1 Q913.2 190.95 912.6 199.4 L911.4 213.55 Q910.7 221.1 910.7 218.9 L910.7 209.15 Q910.7 206.3 908.85 199.95 L906.95 194.2 904.75 190.2 Q901.35 184.55 895.05 176.0 889.4 168.25 888.6 152.15 L888.1 142.1 Q887.7 137.75 886.3 137.1 870.65 129.95 868.75 129.3 867.6 128.9 866.8 124.2 L866.25 119.55 870.0 120.85 873.55 120.95 Q877.45 120.75 879.4 119.55 881.55 118.25 882.8 113.4 883.8 109.4 883.8 105.25 L887.3 106.8 Q891.25 107.95 893.2 105.9 895.15 103.85 894.05 97.2 L892.55 90.95 894.8 92.8 Q897.5 94.95 899.45 96.15" fill="#311a04" fill-rule="evenodd" stroke="none"/>
      <path d="M826.85 189.0 L832.25 189.15 Q837.7 190.15 838.1 194.2 838.5 198.05 838.35 201.6 L838.1 208.5 838.1 226.05 836.2 218.9 Q829.95 212.4 827.45 210.45 826.05 209.35 823.25 209.65 818.75 210.05 816.2 209.8 812.55 209.4 811.95 207.35 811.15 204.4 810.55 203.95 809.0 202.75 809.95 199.95 L811.2 197.45 814.4 197.8 819.95 198.1 Q821.95 198.1 823.2 196.0 L826.85 189.0" fill="#311a04" fill-rule="evenodd" stroke="none"/>
      <path d="M828.1 249.45 Q837.5 253.1 838.4 264.95 838.85 270.9 837.45 276.1 L834.35 274.15 831.2 266.35 827.45 264.4 Q824.95 263.75 822.45 262.45 820.85 261.65 821.3 259.35 L822.45 255.3 Q823.0 253.1 824.7 251.1 826.6 248.85 828.1 249.45" fill="#311a04" fill-rule="evenodd" stroke="none"/>
      <path d="M838.75 392.1 Q844.6 392.9 844.15 401.35 843.9 405.6 842.5 409.65 L838.75 408.35 834.95 402.5 Q834.7 399.75 835.05 397.05 835.7 391.7 838.75 392.1" fill="#311a04" fill-rule="evenodd" stroke="none"/>
      <path d="M138.1 199.9 Q138.5 206.4 138.3 210.45 138.1 214.35 141.15 218.75 L147.05 227.35 Q149.4 231.6 149.4 238.8 L148.95 251.7 Q148.95 257.2 144.75 261.35 142.6 263.45 140.5 264.4 140.25 261.95 140.25 259.3 140.25 253.9 141.4 252.7 142.6 251.5 139.9 245.85 L134.85 236.1 Q132.7 231.6 132.15 228.7 131.55 225.55 132.05 220.5 132.65 214.4 135.2 203.7 L137.65 194.2 138.1 199.9" fill="#3b1d07" fill-rule="evenodd" stroke="none"/>
      <path d="M74.75 327.9 L75.65 328.6 Q76.65 329.5 77.1 330.6 78.2 333.3 75.5 336.2 L77.55 349.35 Q80.75 368.35 80.1 373.25 L78.85 383.3 Q78.1 387.3 75.7 392.1 73.35 396.8 67.25 395.55 L61.6 393.4 63.5 379.75 66.2 357.95 Q69.05 341.35 73.8 337.65 L75.5 336.2 Q74.5 329.4 74.75 327.9" fill="#3b1d07" fill-rule="evenodd" stroke="none"/>
      <path d="M49.4 425.55 Q49.4 422.65 52.7 419.25 55.95 415.85 61.6 412.9 L64.3 418.5 Q66.45 425.3 63.5 431.4 60.5 437.6 56.7 438.5 L53.75 438.55 51.3 438.25 Q49.5 438.25 49.3 433.35 L49.4 425.55" fill="#3b1d07" fill-rule="evenodd" stroke="none"/>
      <path d="M47.55 464.55 Q49.25 464.2 50.6 465.85 51.85 467.4 52.2 469.75 53.05 475.7 48.15 476.6 45.7 477.05 44.3 475.45 43.05 474.0 43.05 471.55 43.05 469.1 44.2 467.15 45.45 465.0 47.55 464.55" fill="#3b1d07" fill-rule="evenodd" stroke="none"/>
      <path d="M75.7 476.6 Q74.5 479.85 68.9 485.2 L63.5 489.9 61.25 487.35 Q59.15 484.2 59.75 481.15 60.65 476.6 61.85 474.3 63.75 470.8 68.2 467.5 L77.6 471.4 75.7 476.6" fill="#3b1d07" fill-rule="evenodd" stroke="none"/>
      <path d="M259.1 398.6 Q260.65 398.6 263.15 401.2 L265.35 403.8 265.2 407.85 264.1 420.7 Q263.3 428.0 259.9 428.35 258.8 428.45 257.6 427.85 L256.6 427.2 258.4 425.0 Q260.15 422.55 259.75 421.35 259.05 419.25 245.95 422.65 242.85 423.45 241.6 421.5 L240.95 419.4 240.95 409.65 242.65 406.95 Q244.85 403.9 247.2 401.85 249.55 399.8 254.55 399.0 L259.1 398.6" fill="#3b1d07" fill-rule="evenodd" stroke="none"/>
      <path d="M240.6 226.0 Q242.25 224.8 243.75 223.95 L244.25 226.3 244.7 229.8 244.7 241.5 Q244.7 243.95 242.4 245.1 240.45 246.05 234.85 246.85 230.45 247.45 225.15 249.4 L220.75 251.25 224.05 243.6 Q225.2 241.05 226.0 240.4 L228.25 238.55 232.85 235.1 Q235.9 232.85 236.7 230.25 237.3 228.45 240.6 226.0" fill="#3b1d07" fill-rule="evenodd" stroke="none"/>
      <path d="M231.55 264.05 L225.3 262.45 226.95 262.6 229.7 262.45 Q230.45 262.2 232.2 260.9 L237.2 257.55 Q240.15 255.75 240.6 253.8 L240.5 252.2 242.35 254.15 241.85 257.7 Q241.0 261.6 239.55 263.4 238.1 265.25 231.55 264.05" fill="#3b1d07" fill-rule="evenodd" stroke="none"/>
      <path d="M240.95 336.2 L243.3 338.15 243.3 340.6 Q241.4 371.0 237.2 371.45 L231.25 372.55 228.45 373.25 Q228.75 371.0 229.2 369.5 230.4 361.45 231.75 354.1 234.4 339.55 236.7 338.65 240.5 337.15 240.95 336.2" fill="#3b1d07" fill-rule="evenodd" stroke="none"/>
      <path d="M265.85 192.25 L266.1 196.75 266.3 202.0 Q266.3 203.75 264.65 206.5 263.15 209.1 261.6 210.3 260.45 211.2 259.25 210.85 L258.3 210.3 Q257.85 206.9 258.3 201.05 L259.75 186.4 Q265.85 190.8 265.85 192.25" fill="#3b1d07" fill-rule="evenodd" stroke="none"/>
      <path d="M345.65 188.85 L359.25 190.3 358.95 194.9 Q358.35 199.9 356.9 202.0 355.35 204.25 352.45 204.5 L343.75 204.45 Q338.7 204.45 335.45 202.15 L330.6 197.6 Q328.5 195.75 329.1 194.05 L331.1 190.8 Q332.05 189.2 335.55 188.9 L345.65 188.85" fill="#3b1d07" fill-rule="evenodd" stroke="none"/>
      <path d="M371.45 182.5 Q373.35 183.0 376.9 186.15 380.85 189.65 379.9 191.3 379.0 192.8 375.9 192.1 L370.5 190.3 Q368.45 189.7 365.3 186.75 L362.55 183.95 364.95 182.7 371.45 182.5" fill="#3b1d07" fill-rule="evenodd" stroke="none"/>
      <path d="M345.15 214.65 Q348.95 213.95 352.95 215.4 356.75 216.8 357.85 219.05 358.85 221.1 358.25 222.5 L355.5 225.9 Q353.8 227.65 352.7 228.15 351.3 228.6 349.85 229.3 348.2 230.15 345.6 228.2 L340.95 224.9 Q338.9 224.0 336.2 220.7 L333.9 217.6 334.3 216.25 Q334.9 214.8 335.8 214.2 L339.6 214.3 345.15 214.65" fill="#3b1d07" fill-rule="evenodd" stroke="none"/>
      <path d="M416.55 387.05 L423.9 387.35 Q431.55 387.95 433.1 389.5 434.65 391.0 434.75 392.95 L434.85 400.7 Q435.15 406.25 434.55 409.15 L432.5 415.35 Q431.35 418.65 427.0 418.25 420.8 417.05 416.55 416.8 411.25 416.5 407.75 413.8 L402.45 409.0 Q400.1 407.2 398.2 404.25 L396.8 401.7 Q396.35 401.1 396.45 399.95 396.7 397.6 399.65 394.85 402.85 391.9 408.4 389.5 413.15 387.5 416.55 387.05" fill="#3b1d07" fill-rule="evenodd" stroke="none"/>
      <path d="M391.2 408.5 Q398.2 408.5 396.6 414.6 395.95 417.05 393.95 419.2 391.85 421.45 389.3 422.15 384.9 423.35 380.3 420.7 L376.6 417.75 Q377.3 415.45 379.5 413.15 383.85 408.5 391.2 408.5" fill="#3b1d07" fill-rule="evenodd" stroke="none"/>
      <path d="M362.05 433.85 L363.05 437.3 Q363.65 441.7 361.6 446.55 359.55 451.45 350.95 456.55 346.7 459.1 342.8 460.65 342.0 459.7 341.25 457.6 339.7 453.45 340.0 448.0 340.3 441.8 342.45 435.85 344.35 430.6 347.05 427.05 L362.05 433.85" fill="#3b1d07" fill-rule="evenodd" stroke="none"/>
      <path d="M413.25 453.35 L416.65 456.0 Q419.95 458.8 419.35 459.7 417.0 463.3 413.7 465.55 411.95 466.75 409.6 466.05 L407.6 465.05 Q407.95 463.0 408.85 460.5 410.6 455.5 413.25 453.35" fill="#3b1d07" fill-rule="evenodd" stroke="none"/>
      <path d="M464.3 403.5 Q466.55 406.4 468.65 412.9 470.45 418.55 470.0 421.85 469.7 424.0 468.15 429.0 467.3 432.95 465.3 433.05 L463.45 432.4 Q462.5 430.7 461.5 427.4 459.55 420.8 459.25 412.9 458.95 405.0 459.1 402.05 L459.25 400.7 Q462.1 400.7 464.3 403.5" fill="#3b1d07" fill-rule="evenodd" stroke="none"/>
      <path d="M531.55 375.35 Q532.15 374.45 541.3 376.3 L550.3 378.3 551.75 386.6 Q552.05 389.0 551.85 392.7 551.65 396.1 551.25 397.3 L549.75 401.55 Q548.2 405.05 546.1 406.55 L542.15 410.1 Q540.0 411.8 537.0 411.6 534.05 411.4 528.75 411.65 L523.1 411.9 Q522.25 411.9 522.1 410.2 L522.15 408.5 Q522.65 401.7 523.55 394.85 524.15 390.6 527.9 382.55 L531.55 375.35" fill="#3b1d07" fill-rule="evenodd" stroke="none"/>
      <path d="M579.45 419.25 L580.85 429.95 Q581.3 433.95 581.3 439.9 581.3 447.35 580.35 450.9 L579.15 456.1 577.55 461.65 Q574.9 469.9 572.85 478.2 571.95 481.9 571.05 489.1 570.3 494.95 569.55 496.75 568.75 498.65 568.0 506.05 L566.75 515.75 Q566.05 518.55 563.7 521.25 561.45 523.75 559.25 524.5 L555.9 524.8 552.05 524.0 548.25 523.35 547.05 523.05 549.4 514.75 554.55 500.65 Q556.0 496.5 555.45 493.05 554.55 489.9 554.55 488.45 554.55 485.8 558.05 478.0 562.1 469.1 567.25 462.1 571.55 456.25 572.35 452.55 574.1 444.15 575.65 439.7 L579.45 419.25" fill="#3b1d07" fill-rule="evenodd" stroke="none"/>
      <path d="M463.45 460.2 Q465.95 459.55 469.7 466.95 472.8 473.1 473.8 477.7 474.4 480.5 474.0 481.75 L472.4 485.05 470.6 489.35 Q469.35 491.6 466.3 494.8 463.35 497.85 461.95 501.95 461.25 504.05 461.15 505.5 461.15 495.75 462.05 491.85 462.5 490.1 464.2 487.35 465.8 484.75 466.3 482.1 466.65 480.2 463.7 469.75 461.2 460.8 463.45 460.2" fill="#3b1d07" fill-rule="evenodd" stroke="none"/>
      <path d="M434.35 482.1 Q435.4 479.45 436.6 477.05 438.95 472.3 439.55 473.8 440.25 475.7 440.8 480.35 441.4 485.15 441.4 489.4 441.4 493.45 440.95 494.55 L437.65 499.65 Q435.3 503.3 430.85 502.1 L426.85 500.15 427.35 497.7 Q427.5 496.95 429.95 492.45 432.75 487.45 434.35 482.1" fill="#3b1d07" fill-rule="evenodd" stroke="none"/>
      <path d="M159.6 416.8 Q167.1 409.05 171.85 414.6 175.85 419.25 175.25 426.55 174.85 430.95 171.7 435.9 L165.85 444.75 Q163.5 448.8 161.0 448.4 157.7 447.05 155.2 446.7 152.1 446.3 149.9 442.55 L148.3 438.9 Q148.3 437.45 148.7 435.25 149.5 430.85 151.45 427.2 153.6 423.15 154.45 422.15 L159.6 416.8" fill="#3b1d07" fill-rule="evenodd" stroke="none"/>
      <path d="M141.4 483.1 Q148.45 480.5 151.6 483.75 153.95 486.2 153.3 490.25 152.85 493.15 148.95 495.95 145.1 498.7 138.9 500.65 133.85 502.3 131.5 499.35 L130.15 496.1 Q129.7 494.05 130.85 491.4 133.2 486.1 141.4 483.1" fill="#3b1d07" fill-rule="evenodd" stroke="none"/>
      <path d="M225.95 481.8 Q231.8 481.4 238.2 488.05 241.4 491.4 243.45 494.8 L241.4 497.15 Q239.25 499.9 238.45 501.95 235.6 509.35 220.9 516.25 213.1 519.9 209.95 514.55 209.0 512.85 208.6 510.5 L208.4 508.45 Q208.4 500.65 209.05 497.4 L209.55 493.75 Q210.15 490.9 211.4 488.8 215.25 482.55 225.95 481.8" fill="#3b1d07" fill-rule="evenodd" stroke="none"/>
      <path d="M361.95 78.45 Q364.45 79.95 365.65 82.65 368.6 89.05 363.0 92.9 358.4 96.1 356.8 95.35 355.2 93.55 353.0 92.9 345.7 90.75 344.85 86.4 344.3 83.45 346.55 81.2 349.35 78.3 356.15 77.3 359.3 76.85 361.95 78.45" fill="#3b1d07" fill-rule="evenodd" stroke="none"/>
      <path d="M510.1 118.25 Q517.1 114.0 520.85 116.95 522.1 117.95 526.4 125.4 529.25 130.3 528.2 154.45 527.15 178.6 523.9 180.55 521.4 182.05 521.4 178.5 L521.45 176.25 Q521.35 175.4 520.75 176.0 519.55 177.25 517.05 176.5 L510.1 174.05 Q506.2 172.85 505.9 152.15 L506.35 127.35 Q505.9 123.0 506.15 121.9 506.45 120.5 510.1 118.25" fill="#3b1d07" fill-rule="evenodd" stroke="none"/>
      <path d="M577.1 85.75 Q584.55 81.45 591.95 87.15 594.75 89.3 596.6 92.25 598.35 95.0 598.35 96.8 598.35 100.15 596.25 103.85 594.25 107.45 590.85 110.45 587.7 113.85 586.15 114.75 583.85 116.1 577.7 115.65 571.8 115.25 570.75 111.65 570.2 105.9 568.95 101.35 567.1 94.6 568.3 92.35 569.45 90.2 577.1 85.75" fill="#3b1d07" fill-rule="evenodd" stroke="none"/>
      <path d="M672.85 115.0 Q677.3 111.25 681.45 115.4 684.5 118.45 685.35 122.15 685.8 124.0 685.9 126.45 L686.0 135.15 685.3 161.5 Q684.55 181.75 684.1 186.4 683.75 190.45 681.4 188.85 L679.1 186.4 678.1 190.85 Q676.7 195.9 674.75 198.75 672.8 201.6 669.5 200.45 L666.6 198.75 664.4 191.05 Q662.2 182.4 662.2 177.95 662.2 133.2 662.85 127.35 663.25 123.55 665.75 120.95 667.4 119.25 672.85 115.0" fill="#3b1d07" fill-rule="evenodd" stroke="none"/>
      <path d="M815.65 96.7 Q821.35 106.1 821.85 116.3 L822.3 125.15 821.85 130.6 Q821.55 134.6 820.6 156.55 L819.35 180.55 Q819.05 183.1 816.85 186.1 814.65 188.95 814.3 193.55 813.95 198.85 812.55 198.65 L811.2 197.45 Q806.2 187.05 804.3 179.9 803.15 175.5 801.65 148.35 L799.9 114.35 Q799.55 107.85 802.85 99.4 L806.2 92.25 Q809.8 87.1 815.65 96.7" fill="#3b1d07" fill-rule="evenodd" stroke="none"/>
      <path d="M868.15 75.35 L874.65 88.85 Q881.05 103.8 880.65 111.1 880.25 118.65 876.5 120.95 875.2 121.75 872.65 122.35 L868.15 123.45 Q864.25 124.65 862.35 123.55 L861.25 122.15 Q860.5 120.2 859.8 117.35 858.4 111.65 858.75 107.2 859.1 103.65 859.1 98.9 859.1 93.9 859.4 89.65 859.75 84.45 861.9 82.0 L868.15 75.35" fill="#3b1d07" fill-rule="evenodd" stroke="none"/>
      <path d="M890.05 85.1 L892.95 90.85 Q895.6 97.2 894.45 100.05 893.05 103.4 890.6 104.35 888.2 105.3 886.3 103.3 884.75 101.7 885.45 98.35 L886.9 92.9 Q887.3 90.85 888.7 87.8 L890.05 85.1" fill="#3b1d07" fill-rule="evenodd" stroke="none"/>
    </g>
  </defs>
</svg>
