<?xml version="1.0" encoding="UTF-8" standalone="no"?>
<svg xmlns:xlink="http://www.w3.org/1999/xlink" height="19.95px" width="41.05px" xmlns="http://www.w3.org/2000/svg">
  <g transform="matrix(1.0, 0.0, 0.0, 1.0, 0.0, 0.0)">
    <use height="7.75" transform="matrix(1.0, 0.0, 0.0, 1.0, 7.5, 0.85)" width="14.75" xlink:href="#sprite0"/>
    <use height="8.65" transform="matrix(1.0, 0.0, 0.0, 1.0, 23.1, 3.95)" width="14.55" xlink:href="#sprite1"/>
    <use height="7.3" transform="matrix(1.0, 0.0, 0.0, 1.0, 4.25, 7.95)" width="16.15" xlink:href="#sprite2"/>
    <use height="8.45" transform="matrix(1.0, 0.0, 0.0, 1.0, 14.55, 11.45)" width="17.4" xlink:href="#sprite3"/>
  </g>
  <defs>
    <g id="sprite0" transform="matrix(1.0, 0.0, 0.0, 1.0, 0.0, 0.0)">
      <use height="7.75" transform="matrix(1.0, 0.0, 0.0, 1.0, 0.0, 0.0)" width="14.75" xlink:href="#shape0"/>
    </g>
    <g id="shape0" transform="matrix(1.0, 0.0, 0.0, 1.0, 0.0, 0.0)">
      <path d="M12.2 0.9 L13.5 1.45 14.35 2.1 14.7 2.6 14.6 2.4 13.75 2.85 Q13.2 1.75 12.2 0.9 M10.5 6.65 L8.9 7.25 7.0 7.7 7.1 7.65 8.4 7.35 10.5 6.65 M2.2 0.95 L2.1 0.9 2.85 0.65 2.95 0.7 Q6.2 1.55 8.0 3.75 L8.75 4.75 7.45 5.1 7.25 5.1 Q7.05 4.35 6.5 3.7 5.05 2.0 2.2 0.95 M10.5 4.2 L10.5 4.1 Q10.4 3.1 9.5 2.3 7.6 0.6 6.05 0.1 L6.95 0.05 Q9.65 0.75 11.1 2.2 L12.4 3.55 10.5 4.2" fill="#d7cce1" fill-rule="evenodd" stroke="none"/>
      <path d="M14.7 2.6 Q15.05 3.6 13.4 5.0 L13.65 2.95 13.65 2.9 13.75 2.85 14.6 2.4 14.7 2.6 M11.85 6.05 L10.5 6.65 10.0 6.8 Q10.5 5.9 10.5 4.25 L10.5 4.2 12.4 3.55 12.45 3.5 Q12.45 4.65 11.95 5.95 L11.85 6.05 M7.0 7.7 L6.9 7.7 Q7.25 6.7 7.05 5.1 L7.25 5.1 7.45 5.1 8.8 4.75 8.95 4.7 8.4 7.35 7.1 7.65 7.0 7.7" fill="#908998" fill-rule="evenodd" stroke="none"/>
      <path d="M0.5 1.95 L2.2 0.95 Q5.05 2.0 6.5 3.7 7.05 4.35 7.25 5.1 L7.05 5.1 5.9 5.15 Q3.9 5.1 2.25 3.85 1.1 3.0 0.5 1.95 M2.95 0.7 Q5.55 -0.15 8.4 0.05 10.3 0.2 12.2 0.9 13.2 1.75 13.75 2.85 L13.65 2.9 13.65 2.95 12.45 3.5 12.4 3.55 11.1 2.2 Q9.65 0.75 6.95 0.05 L6.05 0.1 Q7.6 0.6 9.5 2.3 10.4 3.1 10.5 4.1 L10.5 4.2 10.5 4.25 10.15 4.35 8.95 4.7 8.8 4.75 8.75 4.75 8.0 3.75 Q6.2 1.55 2.95 0.7" fill="url(#gradient0)" fill-rule="evenodd" stroke="none"/>
      <path d="M13.4 5.0 L11.85 6.05 11.95 5.95 Q12.45 4.65 12.45 3.5 L13.65 2.95 13.4 5.0 M6.9 7.7 L6.8 7.7 6.1 7.75 Q2.85 7.8 0.65 4.8 -0.1 3.8 0.0 3.0 0.05 2.4 0.45 1.9 L0.5 1.95 Q1.1 3.0 2.25 3.85 3.9 5.1 5.9 5.15 L7.05 5.1 Q7.25 6.7 6.9 7.7 M8.95 4.7 L10.15 4.35 10.5 4.25 Q10.5 5.9 10.0 6.8 L10.5 6.65 8.4 7.35 8.95 4.7 M8.75 4.75 L8.8 4.75 7.45 5.1 8.75 4.75 M0.7 3.8 Q0.2 4.25 1.25 5.3 L2.3 6.0 Q2.9 6.25 2.85 5.65 2.8 5.0 1.9 4.3 1.0 3.55 0.7 3.8" fill="#63596c" fill-rule="evenodd" stroke="none"/>
      <path d="M0.7 3.8 Q1.0 3.55 1.9 4.3 2.8 5.0 2.85 5.65 2.9 6.25 2.3 6.0 L1.25 5.3 Q0.2 4.25 0.7 3.8 M1.85 5.2 Q2.3 5.3 2.05 4.9 L1.5 4.4 Q1.2 4.4 1.3 4.75 1.4 5.1 1.85 5.2" fill="#cab161" fill-rule="evenodd" stroke="none"/>
      <path d="M1.85 5.2 Q1.4 5.1 1.3 4.75 1.2 4.4 1.5 4.4 L2.05 4.9 Q2.3 5.3 1.85 5.2" fill="#99790f" fill-rule="evenodd" stroke="none"/>
    </g>
    <radialGradient cx="0" cy="0" gradientTransform="matrix(6.0E-4, 0.0106, 0.0085, 5.0E-4, 7.4, 0.35)" gradientUnits="userSpaceOnUse" id="gradient0" r="819.2" spreadMethod="pad">
      <stop offset="0.0" stop-color="#b8a6c6"/>
      <stop offset="1.0" stop-color="#9485a0"/>
    </radialGradient>
    <g id="sprite1" transform="matrix(1.0, 0.0, 0.0, 1.0, 0.0, 0.0)">
      <use height="8.65" transform="matrix(1.0, 0.0, 0.0, 1.0, 0.0, 0.0)" width="14.55" xlink:href="#shape1"/>
    </g>
    <g id="shape1" transform="matrix(1.0, 0.0, 0.0, 1.0, 0.0, 0.0)">
      <path d="M11.9 1.65 L11.4 1.4 Q8.05 1.8 6.25 3.9 L5.55 4.9 5.35 4.8 5.35 4.85 4.2 4.25 3.85 4.1 3.85 4.05 3.85 3.9 Q3.95 2.9 4.8 2.2 6.45 0.8 8.1 0.35 L7.2 0.2 Q4.65 0.55 3.3 1.9 L2.15 3.05 2.1 3.0 2.1 3.05 1.0 2.3 1.0 2.25 0.95 2.25 Q1.4 1.15 2.3 0.4 L5.8 0.0 Q8.8 0.15 11.85 1.6 L11.9 1.65 M7.05 5.45 Q7.2 4.65 7.75 4.1 9.15 2.5 12.15 1.75 15.2 3.35 14.35 5.4 14.8 4.2 13.95 3.1 13.45 4.15 12.1 5.0 10.4 6.1 8.4 5.8 L7.2 5.55 7.2 5.5 7.05 5.45" fill="url(#gradient1)" fill-rule="evenodd" stroke="none"/>
      <path d="M5.55 4.9 L6.25 3.9 Q8.05 1.8 11.4 1.4 L11.9 1.65 12.15 1.75 Q9.15 2.5 7.75 4.1 7.2 4.65 7.05 5.45 L5.55 4.9 M2.3 0.4 Q1.4 1.15 0.95 2.25 L0.7 2.05 0.15 1.6 0.1 1.7 0.05 1.8 0.05 1.75 0.1 1.7 0.2 1.5 0.3 1.4 1.1 0.85 2.35 0.35 2.3 0.4 M2.15 3.05 L3.3 1.9 Q4.65 0.55 7.2 0.2 L8.1 0.35 Q6.45 0.8 4.8 2.2 3.95 2.9 3.85 3.9 L3.85 4.05 2.15 3.05 M7.4 8.3 L7.5 8.35 7.15 8.25 7.4 8.3 M5.9 7.7 L5.0 7.2 4.7 7.05 5.9 7.65 5.9 7.7" fill="#d7cce1" fill-rule="evenodd" stroke="none"/>
      <path d="M1.0 2.3 L2.1 3.05 Q2.1 4.25 2.5 5.6 L4.2 6.75 3.85 6.55 2.5 5.6 1.2 4.35 1.0 2.3 M3.85 4.1 L4.2 4.25 5.35 4.85 5.9 7.65 4.7 7.05 4.35 6.85 Q3.85 5.8 3.85 4.1 M7.5 8.35 L7.4 8.3 Q7.05 7.25 7.2 5.55 L8.4 5.8 Q10.4 6.1 12.1 5.0 13.45 4.15 13.95 3.1 14.8 4.2 14.35 5.4 L13.9 6.2 13.85 6.25 13.8 6.3 Q11.55 9.2 8.25 8.55 L7.5 8.35 M12.05 7.35 Q12.55 7.25 13.15 6.75 14.35 5.75 13.7 5.15 13.4 4.85 12.45 5.5 11.55 6.2 11.5 6.85 11.45 7.5 12.05 7.35 M0.05 2.4 L0.85 3.95 0.2 2.95 0.05 2.4" fill="#63596c" fill-rule="evenodd" stroke="none"/>
      <path d="M12.05 7.35 Q11.45 7.5 11.5 6.85 11.55 6.2 12.45 5.5 13.4 4.85 13.7 5.15 14.35 5.75 13.15 6.75 12.55 7.25 12.05 7.35 M12.9 5.7 Q12.55 5.65 12.3 6.1 12.05 6.55 12.55 6.5 13.0 6.45 13.1 6.1 13.25 5.75 12.9 5.7" fill="#cab161" fill-rule="evenodd" stroke="none"/>
      <path d="M12.9 5.7 Q13.25 5.75 13.1 6.1 13.0 6.45 12.55 6.5 12.05 6.55 12.3 6.1 12.55 5.65 12.9 5.7" fill="#99790f" fill-rule="evenodd" stroke="none"/>
      <path d="M0.95 2.25 L1.0 2.25 1.0 2.3 1.2 4.35 1.2 4.4 0.95 4.1 0.85 3.95 0.05 2.4 0.0 2.3 0.0 1.95 0.05 1.8 0.1 1.7 0.15 1.6 0.7 2.05 0.95 2.25 M2.1 3.05 L2.1 3.0 2.15 3.05 3.85 4.05 3.85 4.1 Q3.85 5.8 4.35 6.85 L4.2 6.75 2.5 5.6 Q2.1 4.25 2.1 3.05 M5.35 4.85 L5.35 4.8 5.55 4.9 7.05 5.45 7.2 5.5 7.2 5.55 Q7.05 7.25 7.4 8.3 L7.15 8.25 5.9 7.7 5.9 7.65 5.35 4.85" fill="#908998" fill-rule="evenodd" stroke="none"/>
    </g>
    <radialGradient cx="0" cy="0" gradientTransform="matrix(-6.0E-4, 0.0106, -0.0085, -0.0011, 7.25, 0.55)" gradientUnits="userSpaceOnUse" id="gradient1" r="819.2" spreadMethod="pad">
      <stop offset="0.0" stop-color="#b8a6c6"/>
      <stop offset="1.0" stop-color="#9485a0"/>
    </radialGradient>
    <g id="sprite2" transform="matrix(1.0, 0.0, 0.0, 1.0, 0.0, 0.0)">
      <use height="7.3" transform="matrix(1.0, 0.0, 0.0, 1.0, 0.0, 0.0)" width="16.15" xlink:href="#shape2"/>
    </g>
    <g id="shape2" transform="matrix(1.0, 0.0, 0.0, 1.0, 0.0, 0.0)">
      <path d="M16.05 2.0 L16.1 2.15 Q16.3 2.65 15.9 3.25 L15.6 3.6 15.55 3.6 15.5 3.65 15.3 3.9 15.2 3.95 15.1 4.1 14.95 4.2 14.9 4.25 14.85 4.25 14.8 4.3 14.75 4.35 14.7 4.35 15.05 2.5 15.1 2.5 15.6 2.25 16.05 2.0 M11.7 5.95 L11.15 6.2 11.2 6.15 Q11.8 5.1 11.8 3.8 L12.5 3.55 13.75 3.1 13.8 3.05 Q13.7 4.3 13.2 5.3 L11.7 5.95 M9.45 6.75 L9.4 6.8 8.65 7.0 8.05 7.15 7.7 7.2 7.7 7.15 Q8.05 6.4 8.05 4.75 L8.25 4.7 9.95 4.35 10.15 4.3 9.45 6.75" fill="#908998" fill-rule="evenodd" stroke="none"/>
      <path d="M15.6 3.6 L15.3 3.9 15.5 3.65 15.55 3.6 15.6 3.6 M0.0 3.0 Q0.2 1.75 2.75 0.9 6.0 1.85 7.55 3.45 L8.25 4.7 8.05 4.75 6.7 4.9 Q4.5 4.95 2.65 3.8 1.3 2.95 0.7 1.95 0.1 2.45 0.0 3.0 M2.85 0.9 L3.1 0.8 Q6.4 -0.15 9.85 0.0 L13.7 0.7 14.1 0.85 13.65 0.7 Q14.6 1.4 15.1 2.5 L15.05 2.5 13.8 3.05 13.75 3.1 12.55 1.95 Q11.2 0.75 8.3 0.0 L7.3 0.1 Q9.0 0.6 10.85 2.05 11.75 2.75 11.8 3.7 L11.8 3.8 11.4 3.9 9.95 4.35 9.15 3.45 Q7.25 1.3 3.6 0.7 L2.85 0.9" fill="url(#gradient2)" fill-rule="evenodd" stroke="none"/>
      <path d="M7.7 7.2 L7.6 7.2 7.7 7.15 7.7 7.2 M2.75 0.9 L2.85 0.9 3.6 0.7 Q7.25 1.3 9.15 3.45 L9.95 4.35 8.25 4.7 7.55 3.45 Q6.0 1.85 2.75 0.9 M14.1 0.85 L14.3 0.9 Q15.7 1.4 16.05 2.0 L15.6 2.25 15.1 2.5 Q14.6 1.4 13.65 0.7 L14.1 0.85 M11.8 3.8 L11.8 3.7 Q11.75 2.75 10.85 2.05 9.0 0.6 7.3 0.1 L8.3 0.0 Q11.2 0.75 12.55 1.95 L13.75 3.1 12.5 3.55 11.8 3.8" fill="#d7cce1" fill-rule="evenodd" stroke="none"/>
      <path d="M15.2 3.95 L15.15 4.05 15.1 4.1 15.2 3.95 M14.75 4.35 L13.75 5.0 13.2 5.3 12.55 5.65 12.15 5.8 11.7 5.95 13.2 5.3 Q13.7 4.3 13.8 3.05 L15.05 2.5 14.7 4.35 14.75 4.35 M11.15 6.2 L9.7 6.7 9.45 6.75 10.15 4.3 9.95 4.35 11.4 3.9 11.8 3.8 Q11.8 5.1 11.2 6.15 L11.15 6.2 M7.6 7.2 L6.7 7.3 Q3.05 7.55 0.7 4.75 L0.65 4.7 0.25 4.1 0.25 4.05 0.2 4.0 0.2 3.95 0.15 3.9 0.0 3.4 0.0 3.0 Q0.1 2.45 0.7 1.95 1.3 2.95 2.65 3.8 4.5 4.95 6.7 4.9 L8.05 4.75 Q8.05 6.4 7.7 7.15 L7.6 7.2 M2.2 4.2 Q1.25 3.55 0.85 3.8 0.1 4.25 1.4 5.25 2.05 5.75 2.6 5.9 3.25 6.1 3.2 5.5 3.2 4.9 2.2 4.2" fill="#63596c" fill-rule="evenodd" stroke="none"/>
      <path d="M2.2 4.2 Q3.2 4.9 3.2 5.5 3.25 6.1 2.6 5.9 2.05 5.75 1.4 5.25 0.1 4.25 0.85 3.8 1.25 3.55 2.2 4.2 M1.5 4.65 Q1.55 5.0 2.1 5.1 2.65 5.15 2.4 4.75 L1.75 4.35 Q1.4 4.35 1.5 4.65" fill="#cab161" fill-rule="evenodd" stroke="none"/>
      <path d="M1.5 4.65 Q1.4 4.35 1.75 4.35 L2.4 4.75 Q2.65 5.15 2.1 5.1 1.55 5.0 1.5 4.65" fill="#99790f" fill-rule="evenodd" stroke="none"/>
    </g>
    <radialGradient cx="0" cy="0" gradientTransform="matrix(2.0E-4, 0.0095, 0.0095, -2.0E-4, 8.2, 0.35)" gradientUnits="userSpaceOnUse" id="gradient2" r="819.2" spreadMethod="pad">
      <stop offset="0.0" stop-color="#b8a6c6"/>
      <stop offset="1.0" stop-color="#9485a0"/>
    </radialGradient>
    <g id="sprite3" transform="matrix(1.0, 0.0, 0.0, 1.0, 0.0, 0.0)">
      <use height="8.45" transform="matrix(1.0, 0.0, 0.0, 1.0, 0.0, 0.0)" width="17.4" xlink:href="#shape3"/>
    </g>
    <g id="shape3" transform="matrix(1.0, 0.0, 0.0, 1.0, 0.0, 0.0)">
      <path d="M4.6 4.1 L4.6 4.0 Q4.7 2.95 5.75 2.2 7.85 0.65 9.7 0.25 L8.6 0.1 Q5.55 0.65 3.9 2.0 L2.5 3.2 2.45 3.15 1.15 2.45 Q1.75 1.25 2.8 0.5 0.7 1.05 0.15 1.85 L0.1 1.85 Q0.6 1.1 2.75 0.5 L6.95 0.0 Q10.6 0.0 14.2 1.3 19.05 3.1 16.55 5.9 18.1 4.1 16.7 2.7 16.1 3.75 14.45 4.65 12.4 5.85 10.05 5.65 L8.45 5.4 Q8.6 4.6 9.25 4.0 11.05 2.3 14.55 1.45 L13.6 1.1 Q9.6 1.6 7.5 3.9 L6.65 4.9 6.35 4.8 5.0 4.3 4.6 4.15 4.6 4.1" fill="url(#gradient3)" fill-rule="evenodd" stroke="none"/>
      <path d="M2.5 3.2 L3.9 2.0 Q5.55 0.65 8.6 0.1 L9.7 0.25 Q7.85 0.65 5.75 2.2 4.7 2.95 4.6 4.0 L4.6 4.1 4.1 3.9 3.9 3.85 2.55 3.2 2.5 3.2 M6.65 4.9 L7.5 3.9 Q9.6 1.6 13.6 1.1 L14.55 1.45 Q11.05 2.3 9.25 4.0 8.6 4.6 8.45 5.4 L7.9 5.3 6.95 5.0 6.65 4.9 M0.15 1.85 Q0.7 1.05 2.8 0.5 1.75 1.25 1.15 2.45 L0.15 1.85" fill="#d7cce1" fill-rule="evenodd" stroke="none"/>
      <path d="M15.0 6.2 Q14.45 6.25 14.7 5.8 15.0 5.35 15.45 5.35 15.8 5.4 15.7 5.75 15.55 6.15 15.0 6.2" fill="#99790f" fill-rule="evenodd" stroke="none"/>
      <path d="M15.0 6.2 Q15.55 6.15 15.7 5.75 15.8 5.4 15.45 5.35 15.0 5.35 14.7 5.8 14.45 6.25 15.0 6.2 M15.75 6.4 Q15.0 6.9 14.45 7.05 13.7 7.2 13.75 6.55 13.8 5.85 14.95 5.15 16.05 4.5 16.45 4.8 17.2 5.3 15.75 6.4" fill="#cab161" fill-rule="evenodd" stroke="none"/>
      <path d="M4.6 4.15 L5.0 4.3 6.35 4.8 Q6.45 5.8 7.05 7.65 L5.15 6.9 Q4.6 5.85 4.6 4.15 M8.45 5.4 L10.05 5.65 Q12.4 5.85 14.45 4.65 16.1 3.75 16.7 2.7 18.1 4.1 16.55 5.9 13.8 8.9 9.85 8.4 L8.95 8.25 8.3 8.1 8.85 8.2 Q8.55 7.45 8.55 5.45 L7.9 5.3 8.45 5.4 M0.1 1.85 L0.15 1.85 1.15 2.45 2.45 3.15 Q2.45 4.35 2.95 5.75 L1.25 4.45 1.2 4.4 0.15 3.1 1.45 4.6 Q1.15 3.5 1.15 2.5 L0.1 1.85 M15.75 6.4 Q17.2 5.3 16.45 4.8 16.05 4.5 14.95 5.15 13.8 5.85 13.75 6.55 13.7 7.2 14.45 7.05 15.0 6.9 15.75 6.4 M5.1 6.85 L4.6 6.65 3.05 5.8 5.1 6.85" fill="#63596c" fill-rule="evenodd" stroke="none"/>
      <path d="M4.6 4.1 L4.6 4.15 Q4.6 5.85 5.15 6.9 L5.1 6.85 3.05 5.8 2.95 5.75 Q2.45 4.35 2.45 3.15 L2.5 3.2 2.55 3.2 3.9 3.85 4.1 3.9 4.6 4.1 M6.35 4.8 L6.65 4.9 6.95 5.0 7.9 5.3 8.55 5.45 Q8.55 7.45 8.85 8.2 L8.3 8.1 7.05 7.65 Q6.45 5.8 6.35 4.8 M0.15 3.1 L0.0 2.05 0.1 1.85 1.15 2.5 Q1.15 3.5 1.45 4.6 L0.15 3.1" fill="#908998" fill-rule="evenodd" stroke="none"/>
    </g>
    <radialGradient cx="0" cy="0" gradientTransform="matrix(-7.0E-4, 0.0107, -0.0102, -7.0E-4, 8.65, 0.5)" gradientUnits="userSpaceOnUse" id="gradient3" r="819.2" spreadMethod="pad">
      <stop offset="0.0" stop-color="#b8a6c6"/>
      <stop offset="1.0" stop-color="#9485a0"/>
    </radialGradient>
  </defs>
</svg>
