<?xml version="1.0" encoding="UTF-8" standalone="no"?>
<svg xmlns:xlink="http://www.w3.org/1999/xlink" height="339.2px" width="447.8px" xmlns="http://www.w3.org/2000/svg">
  <g transform="matrix(1.0, 0.0, 0.0, 1.0, 0.0, 0.0)">
    <use height="339.2" transform="matrix(1.0, 0.0, 0.0, 1.0, 0.0, 0.0)" width="447.8" xlink:href="#shape0"/>
  </g>
  <defs>
    <g id="shape0" transform="matrix(1.0, 0.0, 0.0, 1.0, 0.0, 0.0)">
      <path d="M338.85 257.7 Q350.25 260.45 363.95 264.95 372.3 267.65 388.45 273.4 L400.05 277.95 402.75 278.75 401.0 278.8 388.7 279.1 397.15 280.95 Q402.5 282.4 403.45 285.35 L397.85 285.7 392.05 285.35 Q391.9 287.65 407.6 292.1 L428.2 297.9 Q435.6 300.7 439.05 302.45 446.35 306.15 447.8 309.7 441.25 310.95 430.1 309.55 416.3 307.85 412.3 307.9 407.3 307.95 402.15 309.45 400.2 310.0 392.7 312.85 393.1 314.7 395.65 316.85 398.7 319.4 399.4 320.6 377.7 320.25 369.35 320.65 369.25 322.75 369.3 327.05 L366.7 327.25 364.1 327.3 Q363.9 329.0 362.4 330.7 L359.6 333.4 Q361.6 335.9 364.65 337.2 359.4 337.75 350.05 336.95 L335.35 335.9 318.1 336.5 Q309.4 336.55 303.35 334.75 L303.65 334.95 Q298.8 337.2 287.65 335.25 274.55 332.9 270.8 333.35 270.5 333.85 270.6 334.5 L256.3 332.35 242.1 330.4 Q236.3 330.65 233.15 330.4 227.3 330.0 228.1 325.9 223.9 323.75 215.35 323.2 206.4 322.6 202.25 324.6 200.9 325.25 198.7 327.0 196.75 328.6 195.0 329.25 193.5 329.85 190.45 330.25 L185.75 331.1 Q181.5 332.4 176.95 332.85 L167.6 333.2 Q163.7 332.9 162.0 333.15 159.05 333.6 159.2 336.55 L141.45 335.9 Q136.45 335.95 126.05 337.7 116.15 339.4 110.65 339.2 112.15 334.05 121.25 331.75 L128.4 329.9 Q132.25 328.65 134.05 326.7 133.2 326.65 132.1 325.85 L130.7 324.9 131.95 323.25 Q130.05 322.25 126.75 321.5 L121.4 320.25 121.8 319.3 122.35 318.25 Q120.2 316.75 113.55 315.75 L104.55 315.2 Q103.25 315.4 100.2 316.7 L95.7 318.45 Q91.2 319.6 85.45 319.85 L75.0 319.9 60.55 320.65 Q51.35 321.25 46.1 320.6 L37.8 320.0 Q32.5 319.55 30.0 318.65 L34.6 313.85 39.35 309.25 Q38.2 306.95 34.15 305.95 L38.05 304.35 Q40.2 303.3 41.3 302.05 38.1 296.55 21.45 298.85 L8.9 300.75 Q2.4 301.6 0.0 300.75 3.35 300.5 8.15 298.55 L16.0 295.35 23.7 293.0 Q28.1 291.55 31.1 289.85 34.3 288.05 39.4 286.9 L48.45 284.7 Q45.65 284.5 38.9 284.6 L29.4 284.35 Q34.05 281.4 44.3 280.7 55.3 279.95 59.5 277.9 64.65 275.45 70.4 274.45 L81.95 273.1 76.65 271.75 Q78.35 270.85 81.65 270.45 L86.65 269.45 90.0 267.6 Q92.0 266.35 93.45 265.9 95.4 265.3 99.1 264.8 L104.85 263.95 111.15 263.0 117.4 261.75 Q121.15 260.55 131.75 253.35 140.45 247.45 147.35 247.25 L212.0 241.9 Q220.2 241.65 234.65 244.15 250.7 247.0 257.25 247.25 261.8 247.45 270.35 247.25 L283.4 247.2 Q295.45 247.6 311.35 251.05 L338.85 257.7 M402.75 278.75 Q409.2 278.7 413.15 279.8 408.1 280.15 402.75 278.75" fill="url(#gradient0)" fill-rule="evenodd" stroke="none"/>
      <path d="M201.35 243.9 L217.85 243.6 Q227.9 243.4 234.3 243.85 L274.15 247.05 Q295.8 249.25 313.85 252.6 L332.25 255.05 Q343.35 256.55 350.2 259.15 353.0 260.2 361.05 264.7 365.2 267.05 368.45 268.3 363.0 267.0 355.6 267.05 L339.0 268.2 Q339.8 270.15 341.9 270.95 L345.95 272.0 Q350.05 273.3 356.15 275.6 L366.2 279.35 Q370.35 280.8 381.25 283.25 391.0 285.4 396.2 287.65 395.4 288.4 393.35 288.85 391.45 289.3 390.6 290.25 393.65 292.7 400.45 294.2 408.95 296.05 410.6 296.75 L398.35 296.15 386.05 295.65 Q383.65 295.3 380.05 293.85 L374.2 291.75 Q369.7 290.65 363.05 290.4 L351.8 290.25 Q339.05 290.05 324.65 285.65 L315.25 282.65 Q310.8 281.25 308.65 281.25 310.05 281.4 323.1 286.6 L337.15 292.15 Q340.65 293.2 348.7 294.1 356.4 294.9 360.3 296.25 354.75 296.6 342.2 296.25 330.4 295.9 324.05 296.45 L331.95 297.45 Q337.05 298.05 339.45 299.55 L333.75 299.35 Q330.2 299.3 328.35 300.4 331.35 302.35 334.75 305.1 337.65 307.1 341.85 308.25 343.95 308.8 346.25 309.85 L350.05 311.6 356.8 314.15 Q360.55 315.6 363.3 317.1 362.45 318.45 360.1 318.6 L356.1 318.75 359.45 323.25 Q359.1 323.35 357.8 324.2 L356.3 325.15 359.2 327.8 362.15 329.85 Q360.0 328.8 353.85 326.7 351.8 325.95 351.4 326.3 351.2 326.5 351.65 327.55 352.6 329.75 349.35 329.25 346.8 328.85 330.8 324.15 316.4 319.95 312.0 319.9 306.5 319.85 298.75 321.6 L285.85 324.55 Q279.4 325.7 268.65 324.8 L251.35 323.85 Q255.0 323.3 260.95 320.7 L270.15 316.45 275.45 314.1 Q278.8 312.25 278.7 310.45 278.65 309.0 277.3 308.55 L273.7 308.0 Q266.75 307.2 261.35 303.25 257.15 300.15 252.0 302.2 245.6 305.8 241.45 307.75 237.2 310.35 236.75 310.45 L231.6 310.65 Q228.65 310.65 226.85 312.6 L228.6 309.1 Q229.8 306.85 230.85 305.7 231.85 304.6 235.6 302.85 238.7 301.45 239.15 299.75 237.25 299.6 231.4 297.7 228.2 296.7 224.65 298.6 L219.35 300.5 Q215.65 301.75 214.65 302.6 214.2 303.0 214.1 305.1 214.0 307.25 213.35 307.9 210.1 311.15 205.2 313.45 L196.0 317.25 Q189.65 320.0 183.0 322.1 L174.65 324.6 Q170.1 326.05 164.0 326.05 156.95 325.85 152.9 325.95 153.35 325.4 157.25 322.75 160.15 320.75 160.05 319.15 159.75 314.95 156.7 312.45 153.6 309.85 153.35 307.9 136.8 307.55 128.0 309.9 L113.85 312.95 Q103.8 314.95 99.95 316.1 L96.8 315.95 Q93.9 315.7 93.35 315.9 92.1 316.4 89.3 318.15 87.2 319.45 85.15 319.7 L78.1 320.5 Q74.05 320.75 67.05 320.6 L56.0 320.55 Q61.55 317.7 72.65 317.0 84.6 316.25 89.3 314.4 90.7 313.85 93.05 312.1 95.55 310.2 96.8 309.65 98.8 308.75 101.75 308.35 L106.75 307.6 Q108.8 307.15 111.8 306.1 L116.7 304.35 Q124.0 301.9 132.65 294.55 143.05 285.75 140.65 279.9 L127.0 282.45 Q117.15 284.5 108.0 285.25 105.0 285.5 96.9 289.5 89.45 293.2 85.35 292.8 87.15 291.3 92.3 289.0 97.9 286.55 99.45 285.45 L106.4 280.1 Q110.5 277.0 114.15 275.5 116.1 274.7 136.2 270.75 155.0 266.25 153.35 261.9 146.9 261.4 122.95 264.8 98.4 268.35 92.65 268.1 L143.35 254.0 Q148.6 253.7 155.05 250.25 163.1 245.9 165.85 245.1 172.55 243.1 183.45 243.3 L201.35 243.9" fill="url(#gradient1)" fill-rule="evenodd" stroke="none"/>
      <path d="M268.3 40.6 L268.55 41.45 Q268.4 42.2 268.55 44.35 L268.65 47.25 268.95 54.85 268.85 58.6 268.7 65.7 268.7 72.8 Q270.0 86.2 270.9 92.65 271.35 94.95 272.35 98.55 272.85 100.4 276.0 107.45 278.6 113.25 278.7 116.55 L278.45 126.05 Q278.2 131.8 278.75 135.65 279.3 139.4 279.4 149.45 279.55 158.05 280.75 163.05 283.3 173.8 286.95 180.15 288.35 182.65 289.3 186.65 L290.95 193.7 Q292.1 197.95 294.75 203.4 L299.45 212.7 303.05 219.7 304.0 220.75 306.7 224.1 308.8 227.6 Q310.4 230.15 314.25 233.5 318.45 237.15 319.95 239.2 337.1 248.75 362.05 257.25 367.15 258.95 373.2 262.35 L383.55 268.55 Q385.1 269.5 390.8 271.3 395.75 272.9 397.3 274.5 390.65 275.6 384.0 274.8 377.9 274.0 371.3 271.45 L369.7 270.75 Q368.2 270.2 366.6 269.3 362.15 267.15 359.9 266.55 L355.0 266.3 350.0 266.55 342.8 266.75 345.15 268.55 Q349.15 271.75 354.3 273.6 358.3 275.0 364.3 275.95 371.8 277.2 377.85 279.7 381.9 281.4 388.45 282.75 L399.3 285.15 Q398.55 286.3 395.25 286.8 L395.75 287.0 405.35 289.55 414.85 292.05 421.0 294.1 Q427.95 295.65 433.1 296.1 L428.15 296.2 433.5 297.1 Q417.4 297.05 408.9 296.5 395.6 295.6 384.35 293.0 381.75 292.4 376.1 290.2 370.85 288.15 367.85 287.55 L360.35 286.7 352.75 286.6 345.75 286.95 338.8 286.5 Q336.6 285.95 333.6 284.3 L328.4 281.35 322.9 280.15 317.35 279.1 312.1 278.05 306.8 276.65 302.05 276.4 Q304.7 279.4 309.95 281.95 L318.85 286.1 Q325.25 289.65 332.6 291.45 324.45 292.25 311.8 289.85 312.75 290.55 313.9 291.75 L316.1 294.0 Q317.85 295.75 321.65 297.8 L325.4 299.15 Q326.55 299.65 328.2 301.25 L330.85 303.45 Q333.2 304.75 338.1 305.85 343.35 307.05 345.45 308.05 349.35 309.85 351.45 311.15 354.95 313.2 356.45 315.3 L348.6 312.25 Q344.05 310.5 340.65 310.15 345.2 313.1 350.8 317.65 353.8 320.1 357.2 324.2 L363.1 331.15 Q349.0 330.6 330.65 323.6 323.65 320.55 319.95 319.3 313.55 317.15 308.55 317.95 L298.75 319.65 Q281.6 323.8 268.85 323.6 L258.0 322.95 247.0 322.6 254.35 317.95 Q258.75 315.0 261.85 314.6 L271.4 312.45 Q277.3 310.95 281.2 310.95 279.9 309.05 275.95 307.6 L269.6 305.3 Q263.8 302.4 260.6 298.6 L255.4 299.75 Q252.0 300.35 250.3 301.45 L245.25 305.3 Q242.3 307.5 239.45 308.3 L232.85 310.0 Q229.25 311.05 226.35 312.95 226.4 311.25 227.5 308.65 L229.2 304.45 230.45 301.45 231.75 298.65 232.55 295.3 225.55 294.85 Q223.45 296.85 219.95 298.15 L213.75 300.2 209.8 303.85 208.75 306.0 Q205.0 307.65 202.75 308.8 199.9 310.3 195.55 313.45 L188.5 318.3 Q184.95 320.45 179.55 321.8 L170.05 323.7 Q162.9 325.05 153.95 325.7 L153.45 325.3 Q151.3 323.55 151.65 321.05 150.75 319.6 151.0 317.25 L151.65 313.25 151.75 310.7 151.65 308.1 Q151.65 305.4 152.1 304.15 152.4 303.4 154.05 301.1 L153.1 301.35 Q149.55 302.0 142.9 304.0 139.85 304.95 134.35 305.6 L125.75 306.9 119.45 308.55 106.75 312.1 100.15 313.25 93.35 313.7 Q89.35 316.0 79.9 317.15 L67.85 318.6 58.9 319.5 Q52.0 320.0 48.6 321.25 L45.95 321.35 Q49.55 317.85 55.85 315.05 L59.45 314.25 63.2 313.9 Q65.45 312.8 66.2 312.55 L69.6 311.2 Q72.6 309.5 74.25 309.2 L77.4 307.65 83.0 304.25 Q86.2 302.25 89.2 301.55 L95.15 300.8 Q98.85 300.5 100.85 299.7 L107.25 296.8 Q111.3 294.9 113.85 293.95 117.4 292.6 121.85 289.6 L129.35 284.55 136.75 280.75 Q141.2 278.55 143.75 276.45 133.85 277.6 125.8 280.15 L120.7 281.8 115.5 283.05 108.35 283.6 106.95 283.8 Q106.05 283.85 105.5 284.2 104.9 284.55 103.9 286.25 L102.25 288.45 Q97.9 292.05 91.7 292.6 84.7 293.25 79.35 294.5 L75.45 294.95 71.45 295.35 Q81.65 291.45 90.35 288.45 95.05 286.85 96.15 286.25 99.5 284.4 99.3 281.75 95.35 282.95 87.15 283.85 79.0 284.75 74.95 286.0 L81.25 283.15 Q85.0 281.35 87.85 280.7 L101.5 277.7 Q104.5 277.0 109.95 273.8 115.25 270.75 118.25 270.15 L121.85 269.65 125.4 268.8 132.55 265.25 Q136.9 263.0 139.85 262.55 140.7 262.45 143.4 262.5 L146.85 262.1 Q148.5 261.5 151.2 259.2 L140.5 260.5 127.5 262.25 114.45 263.7 Q112.4 263.95 110.55 264.5 L106.75 265.75 Q102.2 267.45 97.0 268.5 L87.05 270.1 Q95.35 265.25 107.65 261.55 112.5 260.05 121.25 254.95 130.2 249.65 134.8 248.15 137.95 247.1 145.2 245.7 151.55 243.9 154.35 239.85 L157.1 235.0 Q158.9 231.45 160.0 229.75 163.45 224.55 167.5 216.15 L168.35 210.8 169.55 194.2 Q170.15 183.75 171.0 177.55 171.6 173.2 174.7 162.45 177.4 153.0 177.65 147.5 L178.9 128.15 Q179.7 116.35 179.65 108.8 L179.65 93.65 Q179.7 87.3 181.7 79.2 L185.35 65.1 Q186.25 61.35 185.75 52.85 185.3 44.4 186.25 40.6 L267.25 40.6 267.85 39.6 267.8 40.6 268.3 40.6" fill="#4d330d" fill-rule="evenodd" stroke="none"/>
      <path d="M237.05 234.1 L238.35 234.1 235.35 233.6 Q234.35 234.95 234.5 238.6 234.7 242.45 236.45 242.5 238.35 242.6 237.95 238.9 L237.05 234.1 M258.7 214.8 Q258.55 212.1 257.85 210.7 256.5 214.75 257.15 221.0 L258.35 231.4 Q259.1 248.1 266.85 249.15 266.8 240.75 264.35 230.25 263.8 227.9 261.9 224.5 259.8 220.75 259.25 218.95 258.85 217.75 258.7 214.8 M233.85 200.1 Q233.05 199.35 232.35 199.95 232.0 202.85 233.85 207.5 235.7 212.2 235.45 214.9 L234.95 219.9 Q234.75 222.75 234.9 224.95 237.1 225.3 239.15 225.0 239.65 221.8 239.8 217.3 L239.85 209.5 Q239.8 206.8 239.0 205.0 L236.95 201.1 Q235.85 198.85 234.9 195.2 L233.35 189.1 233.85 200.1 M261.85 170.1 L260.35 168.6 Q260.1 178.65 260.45 182.2 261.5 192.75 266.3 192.2 L266.55 187.8 266.35 183.45 Q266.15 182.1 263.3 176.55 260.95 171.95 261.85 170.1 M260.35 107.6 L257.85 126.6 257.85 142.45 258.0 145.45 257.8 148.45 256.45 150.6 Q255.6 151.75 256.0 153.05 259.85 154.6 261.1 149.45 261.55 147.55 261.8 141.05 262.05 135.0 261.25 124.35 260.35 112.5 260.35 107.6 M251.85 125.1 L249.85 123.6 Q247.85 127.4 247.8 133.4 247.75 139.55 249.9 143.05 252.2 141.7 252.8 134.55 253.35 127.6 251.85 125.1 M249.45 72.65 L250.35 77.6 Q250.3 82.15 250.75 87.25 249.95 89.15 250.1 94.55 L250.3 101.5 Q250.2 103.85 248.55 109.35 247.0 114.2 247.35 117.25 250.0 118.45 250.45 104.6 L250.35 89.6 250.85 88.4 252.1 99.7 Q252.8 106.45 252.85 111.05 252.9 116.05 252.1 117.65 250.85 120.15 246.35 120.65 247.0 122.9 249.55 123.25 251.9 123.55 253.8 122.2 L254.7 121.35 254.35 135.6 Q254.25 136.8 254.45 141.65 254.45 146.1 253.5 147.15 253.15 147.55 251.3 148.0 249.55 148.4 249.45 148.65 248.6 150.75 250.55 151.65 252.15 152.45 254.2 152.1 256.0 146.1 255.8 136.85 L254.95 121.0 Q256.25 119.2 256.8 115.55 L257.3 110.0 Q257.6 105.8 256.85 99.2 256.6 96.9 255.2 93.55 253.6 89.65 253.25 88.0 253.0 86.85 252.85 84.15 L252.4 80.2 251.0 76.45 249.45 72.65 M231.8 56.05 Q229.45 47.25 228.95 40.6 L251.25 40.6 251.0 43.85 250.85 47.05 Q250.75 50.0 252.45 53.75 L255.4 60.05 257.0 64.55 Q257.7 66.8 257.85 69.3 L258.2 72.9 Q258.4 75.5 257.6 76.1 L254.5 76.0 252.6 72.55 Q255.35 72.5 254.95 68.9 254.65 66.75 253.35 63.75 250.25 56.7 248.35 46.3 248.8 49.15 249.0 55.65 249.25 62.05 250.35 65.6 L252.0 71.35 251.85 71.2 Q251.65 73.85 253.4 76.8 L256.8 81.6 Q258.35 83.9 259.8 87.2 261.25 90.3 262.05 93.05 262.6 94.75 262.35 99.1 262.1 103.35 262.75 105.15 263.15 106.25 266.05 109.95 268.05 112.45 267.25 115.5 266.85 116.95 265.3 119.1 263.7 121.35 263.3 122.55 262.7 124.4 262.8 128.8 262.9 131.7 264.95 136.15 267.15 140.9 267.4 143.45 267.7 146.45 269.5 154.75 L266.4 152.5 Q264.5 151.15 262.95 150.8 261.7 152.75 263.45 158.3 265.15 163.85 267.2 164.55 267.4 165.75 268.15 167.8 L269.2 171.0 269.9 175.6 271.8 182.75 Q273.15 187.5 272.8 189.85 L272.85 191.25 272.75 192.65 Q272.6 193.05 271.75 193.05 L270.75 193.15 Q269.75 195.65 269.85 197.05 268.4 197.2 266.65 196.0 L263.8 193.95 Q263.3 198.4 266.3 200.7 269.25 203.0 273.25 201.6 273.95 204.2 276.6 206.55 L281.25 210.45 Q282.5 211.65 283.8 213.85 L285.9 217.6 Q287.5 220.25 288.9 220.3 291.3 220.35 292.75 221.15 293.9 223.9 295.2 226.05 L296.15 226.95 295.9 232.15 295.35 231.6 294.85 231.8 293.85 230.6 289.85 224.9 Q286.9 221.1 285.1 220.1 284.3 222.2 286.1 226.65 287.85 230.95 290.75 234.2 288.25 235.95 286.7 237.25 L284.35 232.5 Q282.95 230.0 280.75 228.1 L277.9 226.05 Q276.1 224.8 275.25 223.75 272.85 220.75 271.05 216.7 269.1 212.25 268.85 208.6 L268.65 210.0 Q266.55 210.65 265.0 207.55 L263.25 202.55 Q260.95 205.1 261.7 209.35 262.5 213.8 266.25 213.6 266.3 215.2 267.5 216.45 269.1 217.95 269.35 218.65 269.55 219.2 269.4 221.3 269.25 222.75 270.45 223.0 L270.3 224.15 Q269.35 226.6 270.0 230.1 270.45 244.2 280.2 257.95 L279.35 259.1 Q277.35 261.05 279.1 263.4 280.1 264.75 282.75 267.0 L283.15 267.4 Q279.45 270.8 275.2 273.8 272.85 270.35 270.85 268.85 L270.85 258.1 269.35 254.6 Q269.6 255.9 268.25 261.85 267.3 266.05 270.05 268.25 268.6 267.3 266.5 266.55 264.25 265.75 262.25 265.85 262.15 262.2 262.85 259.7 263.4 257.6 264.55 256.7 265.35 256.1 267.9 254.55 267.0 253.9 266.3 252.55 L264.95 250.55 Q264.3 249.9 261.3 248.25 258.6 246.8 257.9 245.65 257.1 244.35 257.5 242.15 258.05 239.5 257.85 238.65 257.6 237.35 256.2 235.55 254.6 233.5 254.25 232.55 253.0 229.15 253.1 222.7 253.5 215.55 253.35 212.55 253.15 208.6 251.05 200.8 248.95 193.15 248.8 189.15 L248.65 193.65 Q248.15 196.35 245.9 195.25 L245.4 193.4 245.4 195.0 245.9 195.25 Q247.05 199.8 247.8 207.95 248.7 217.25 249.3 220.55 L250.5 225.3 Q251.15 228.35 250.35 230.15 249.45 232.15 248.05 232.75 246.45 233.45 245.8 231.3 245.85 233.2 245.3 239.45 244.85 244.6 245.25 247.55 245.95 252.15 249.85 256.1 L252.15 257.6 Q254.0 258.75 254.25 259.15 255.4 260.9 255.7 264.0 L255.85 269.65 Q254.9 271.1 254.15 273.3 L239.95 253.0 231.9 240.3 Q227.55 232.75 226.0 226.55 225.4 223.9 225.3 222.55 224.85 216.95 225.95 214.85 L226.45 216.2 226.85 217.5 228.8 217.55 229.1 215.3 229.45 213.05 Q229.8 209.35 229.45 207.85 229.15 206.6 227.45 203.8 L225.6 200.05 223.65 196.45 Q223.3 195.95 221.95 195.0 221.0 194.35 220.75 193.1 217.45 193.0 217.15 185.5 216.95 179.4 218.05 175.8 L218.8 178.1 218.9 178.0 Q220.75 182.2 222.4 181.2 223.95 180.25 224.85 175.0 225.45 171.25 224.45 159.75 223.55 150.1 225.8 144.75 L227.9 153.55 229.8 162.4 232.4 171.2 Q234.0 176.45 234.4 180.1 L234.75 187.1 Q235.45 190.4 239.45 190.6 244.8 190.9 244.85 185.5 244.9 184.7 244.55 183.7 L244.05 182.05 242.5 175.4 Q241.65 171.6 241.75 168.55 L242.8 169.5 244.75 173.75 244.9 171.55 Q247.1 173.9 249.5 177.25 L253.6 183.3 Q255.0 186.0 256.2 187.5 L256.25 187.1 256.45 187.4 256.35 186.1 Q257.0 179.7 256.1 173.8 L256.35 161.2 Q253.65 160.25 250.6 158.45 246.85 156.2 246.05 154.45 245.45 153.2 245.4 149.95 L245.3 145.4 244.15 135.6 Q243.4 129.6 242.25 126.1 241.75 124.65 240.0 122.3 L237.1 118.3 Q233.95 113.35 237.15 109.75 241.3 116.35 241.75 116.75 244.25 119.15 244.85 112.1 245.2 108.65 245.05 103.15 L244.85 94.15 245.1 90.7 Q245.25 88.3 244.85 87.25 244.25 85.55 240.95 83.4 237.4 81.2 236.75 80.0 236.05 78.7 236.15 75.8 236.25 72.4 236.0 71.3 L231.8 56.05 M241.9 51.8 L238.3 47.2 Q238.2 51.4 239.65 58.65 241.15 66.5 241.3 69.95 L241.0 75.65 Q241.15 79.3 243.85 79.1 L242.35 75.1 243.3 67.2 Q244.1 60.35 243.85 57.45 243.6 54.25 241.9 51.8" fill="#422c06" fill-rule="evenodd" stroke="none"/>
      <path d="M271.35 223.1 L270.85 223.1 270.3 224.15 270.45 223.0 271.35 223.1" fill="#422c06" fill-rule="evenodd" stroke="none"/>
      <path d="M270.0 230.1 Q270.75 233.45 273.3 238.4 L277.05 245.5 278.35 249.3 Q278.2 251.0 278.9 252.5 279.0 252.9 279.45 253.5 280.05 255.55 280.8 257.0 L280.85 255.55 281.75 256.1 280.2 257.95 Q270.45 244.2 270.0 230.1" fill="#422c06" fill-rule="evenodd" stroke="none"/>
      <path d="M298.85 234.95 L298.35 234.6 295.9 232.15 296.15 226.95 297.3 227.75 298.25 228.5 301.15 232.1 298.85 234.95" fill="#422c06" fill-rule="evenodd" stroke="none"/>
      <path d="M290.9 244.8 Q290.1 243.8 289.0 241.65 L287.3 238.4 286.7 237.25 Q288.25 235.95 290.75 234.2 293.2 236.8 295.4 237.45 L292.95 237.5 295.65 238.9 290.9 244.8" fill="#422c06" fill-rule="evenodd" stroke="none"/>
      <path d="M295.35 234.1 L295.35 232.7 294.85 231.8 295.35 231.6 295.9 232.15 295.85 234.1 Q296.2 235.45 297.5 236.6 L297.05 237.15 295.35 234.1" fill="#422c06" fill-rule="evenodd" stroke="none"/>
      <path d="M278.9 252.5 Q278.2 251.0 278.35 249.3 L279.45 253.5 Q279.0 252.9 278.9 252.5" fill="#422c06" fill-rule="evenodd" stroke="none"/>
      <path d="M297.5 236.6 Q296.2 235.45 295.85 234.1 L295.9 232.15 298.35 234.6 298.85 234.95 297.5 236.6" fill="#422c06" fill-rule="evenodd" stroke="none"/>
      <path d="M270.05 277.15 Q272.3 275.9 274.4 274.4 L275.2 273.8 278.45 278.15 281.65 281.0 Q283.55 282.8 283.35 284.45 L280.8 282.3 280.85 282.6 280.35 281.75 282.45 289.75 Q283.9 295.15 281.75 297.0 283.0 298.5 285.6 299.8 L289.9 301.95 288.5 303.8 Q286.9 303.7 286.2 306.1 283.65 308.2 279.9 309.6 L278.05 308.5 279.3 306.8 Q280.05 305.8 280.85 305.25 L282.05 304.9 283.2 304.5 Q283.8 303.9 284.7 303.3 285.3 302.75 285.25 301.65 281.85 301.55 279.4 300.55 L277.0 299.1 Q275.45 298.05 274.45 297.7 L275.3 299.5 Q272.3 298.95 269.85 295.3 267.3 291.45 272.45 291.2 269.45 289.05 267.5 286.15 265.8 283.65 264.65 280.2 L270.05 277.15" fill="#422c06" fill-rule="evenodd" stroke="none"/>
      <path d="M226.35 312.95 L226.4 312.15 228.1 310.5 Q227.6 311.45 227.45 312.3 L226.35 312.95" fill="#422c06" fill-rule="evenodd" stroke="none"/>
      <path d="M320.1 264.25 L321.05 264.5 322.4 265.05 317.45 263.75 317.0 262.95 320.8 264.4 320.1 264.25" fill="#422c06" fill-rule="evenodd" stroke="none"/>
      <path d="M326.35 270.55 L318.15 271.15 Q312.95 270.9 312.8 266.65 L315.75 266.2 318.65 265.85 Q322.8 268.9 325.05 269.8 L327.3 270.55 326.35 270.55" fill="#422c06" fill-rule="evenodd" stroke="none"/>
      <path d="M311.1 253.45 Q310.1 252.4 309.35 250.65 L308.05 247.65 Q309.4 249.3 312.15 251.45 314.9 253.55 316.25 254.05 L318.95 254.15 Q322.05 256.45 326.2 258.15 L328.55 258.75 330.75 259.45 330.85 259.5 331.35 259.95 332.5 261.8 Q333.15 263.0 334.25 263.75 337.15 265.7 344.05 267.7 L345.85 269.05 339.35 268.25 332.9 266.75 327.3 262.5 Q325.25 260.6 322.6 259.35 L317.75 257.4 318.35 257.2 317.2 257.15 314.0 255.55 Q312.05 254.45 311.1 253.45" fill="#422c06" fill-rule="evenodd" stroke="none"/>
      <path d="M351.45 311.15 Q354.95 313.2 356.45 315.3 L348.6 312.25 Q344.05 310.5 340.65 310.15 345.2 313.1 350.8 317.65 353.8 320.1 357.2 324.2 L363.1 331.15 Q354.9 330.85 345.0 328.25 340.7 326.55 336.2 323.1 334.05 321.45 331.15 320.55 L325.7 319.2 320.55 317.9 315.55 316.45 Q314.3 316.0 312.7 314.6 L309.95 312.65 307.85 312.35 305.65 312.2 Q304.95 312.0 302.85 310.8 301.05 309.7 299.8 309.55 300.65 311.25 300.1 312.15 299.15 313.0 298.8 313.6 L296.3 316.6 Q294.4 317.6 290.15 318.05 L283.65 318.6 279.9 318.75 Q277.75 318.9 276.35 319.95 275.65 320.45 274.7 321.75 274.1 322.6 272.6 323.1 270.85 323.7 267.7 323.2 L262.75 322.55 258.15 323.0 248.35 322.6 247.0 322.6 Q248.55 321.85 250.55 320.5 L254.0 318.15 Q255.6 319.25 258.4 319.1 L267.3 318.95 Q273.9 318.6 273.5 317.05 276.0 316.95 280.1 315.45 L286.65 313.2 293.2 311.85 Q297.35 310.55 295.9 307.65 298.75 307.35 297.3 305.05 L303.5 306.95 Q307.25 308.15 309.8 308.55 L315.45 309.05 316.8 309.9 Q317.4 310.35 317.8 311.1 L316.7 311.4 315.35 311.5 327.6 317.5 Q335.15 321.3 339.85 323.1 345.35 325.25 351.25 325.1 L344.4 321.2 Q340.5 319.25 337.05 318.15 L341.75 318.0 Q341.65 316.3 338.8 314.8 L334.45 312.65 329.05 308.8 330.9 308.1 330.75 307.15 325.65 306.35 Q322.55 305.8 320.8 305.0 317.1 303.35 313.25 301.0 308.2 297.95 307.35 296.15 310.1 296.15 311.85 295.2 310.2 294.5 307.15 292.25 304.15 290.1 302.25 289.35 L303.5 288.75 Q304.55 288.25 305.2 288.2 303.4 287.75 301.75 284.8 300.1 281.9 297.85 281.45 L297.75 277.55 Q297.5 275.95 296.15 274.55 295.05 273.45 291.45 272.4 287.4 271.3 286.25 270.5 L284.6 269.05 283.15 267.4 285.8 264.85 Q290.65 270.15 297.15 274.95 299.0 276.25 303.55 277.9 306.1 280.15 310.9 282.4 L318.85 286.1 Q325.25 289.65 332.6 291.45 324.45 292.25 311.8 289.85 312.75 290.55 313.9 291.75 L316.1 294.0 Q317.85 295.75 321.65 297.8 L325.4 299.15 Q326.55 299.65 328.2 301.25 L330.85 303.45 Q333.2 304.75 338.1 305.85 343.35 307.05 345.45 308.05 349.35 309.85 351.45 311.15" fill="#422c06" fill-rule="evenodd" stroke="none"/>
      <path d="M305.55 242.8 L306.85 242.8 Q309.6 244.9 311.45 246.1 313.8 247.6 316.85 248.45 L312.15 247.85 Q308.55 247.4 307.7 246.9 L305.55 242.8" fill="#422c06" fill-rule="evenodd" stroke="none"/>
      <path d="M322.1 253.2 Q321.5 251.75 320.05 250.45 318.75 249.25 317.3 248.6 L326.45 249.5 330.1 250.8 331.05 251.25 Q331.45 252.1 333.2 252.25 335.75 253.35 337.4 253.7 L342.15 254.0 344.9 255.35 Q346.75 256.35 351.85 257.15 356.65 257.85 358.4 259.05 L354.75 260.1 Q356.0 260.8 359.25 260.8 L364.25 261.15 Q364.6 262.35 364.25 263.55 L358.3 263.65 Q354.9 262.5 352.25 262.45 352.9 262.75 352.55 262.95 L350.95 263.05 Q349.5 262.95 346.9 261.85 344.3 260.8 342.8 260.65 L340.95 260.65 340.45 260.2 Q338.35 258.9 334.0 258.3 L331.05 256.45 Q329.3 255.5 327.8 255.2 L328.1 256.15 Q324.05 254.0 322.1 253.2" fill="#422c06" fill-rule="evenodd" stroke="none"/>
      <path d="M254.15 273.3 L255.7 275.45 Q255.5 277.1 254.55 280.1 253.65 283.1 253.4 285.1 252.9 289.0 252.6 289.4 251.5 289.9 249.75 291.15 249.5 291.3 248.4 293.4 247.75 294.6 245.9 294.0 L245.45 292.6 Q245.15 296.55 243.6 298.85 242.3 300.8 238.9 303.1 L235.05 305.15 Q232.2 306.6 230.7 307.7 L230.75 307.65 232.9 305.4 235.0 303.2 Q235.85 302.2 237.4 299.2 239.0 296.55 240.75 296.15 L240.9 297.45 Q243.85 292.9 244.0 282.45 244.15 271.85 246.75 267.55 248.6 268.25 250.35 273.7 L252.75 281.45 Q253.0 276.95 254.15 273.3" fill="#422c06" fill-rule="evenodd" stroke="none"/>
      <path d="M255.85 272.7 L255.7 275.45 254.15 273.3 Q254.9 271.1 255.85 269.65 L255.85 272.7" fill="#422c06" fill-rule="evenodd" stroke="none"/>
      <path d="M270.3 268.25 L270.55 268.55 271.35 268.85 273.25 271.1 275.45 273.8 274.4 274.4 Q272.3 275.9 270.05 277.15 L264.65 280.2 Q264.0 278.3 263.45 275.8 262.4 271.5 262.3 265.85 264.35 265.75 266.6 266.55 268.9 267.35 270.3 268.25" fill="#422c06" fill-rule="evenodd" stroke="none"/>
      <path d="M280.2 257.95 Q282.9 261.75 285.8 264.85 L283.15 267.4 282.75 267.0 Q280.1 264.75 279.1 263.4 277.35 261.05 279.35 259.1 L280.2 257.95" fill="#422c06" fill-rule="evenodd" stroke="none"/>
      <path d="M399.3 285.15 Q398.55 286.3 395.25 286.8 L395.75 287.0 405.35 289.55 414.85 292.05 421.0 294.1 Q427.95 295.65 433.1 296.1 L428.15 296.2 430.85 296.75 425.45 296.65 420.65 296.7 404.85 295.05 401.05 294.6 Q398.75 294.25 397.4 293.5 L394.15 290.85 Q391.95 288.95 390.1 288.2 386.35 286.7 379.7 285.4 371.9 283.85 369.2 283.0 366.0 282.0 360.15 279.55 L351.1 276.05 354.6 276.15 Q351.8 275.7 341.0 272.9 332.55 270.7 327.3 270.55 L325.05 269.8 Q322.8 268.9 318.65 265.85 L319.35 265.6 Q318.25 265.2 317.45 263.75 L322.4 265.05 332.8 269.25 342.95 273.25 337.95 269.95 332.9 266.75 339.35 268.25 345.85 269.05 Q349.75 272.0 354.65 273.7 358.6 275.05 364.3 275.95 371.8 277.2 377.85 279.7 381.9 281.4 388.45 282.75 L399.3 285.15" fill="#422c06" fill-rule="evenodd" stroke="none"/>
      <path d="M316.85 248.45 Q313.8 247.6 311.45 246.1 309.6 244.9 306.85 242.8 309.1 242.65 309.45 240.6 311.4 241.45 315.45 244.45 319.3 247.35 321.3 248.05 L326.45 249.5 Q320.05 249.3 317.0 248.5 L316.85 248.45" fill="#422c06" fill-rule="evenodd" stroke="none"/>
      <path d="M334.25 263.75 Q333.15 263.0 332.5 261.8 L331.35 259.95 Q335.4 263.35 343.75 267.5 L344.05 267.7 Q337.15 265.7 334.25 263.75" fill="#422c06" fill-rule="evenodd" stroke="none"/>
      <path d="M333.2 252.25 Q331.45 252.1 331.05 251.25 L333.2 252.25" fill="#422c06" fill-rule="evenodd" stroke="none"/>
      <path d="M342.15 254.0 L343.5 253.95 343.25 253.55 343.35 253.65 352.9 255.6 Q358.55 256.65 362.25 258.55 L370.0 261.95 Q374.5 264.0 376.7 266.65 L375.45 266.55 Q376.7 267.6 380.55 268.2 383.75 268.65 384.9 271.0 L378.65 270.7 Q376.9 270.2 373.35 268.1 371.65 267.05 369.65 266.7 L365.8 266.0 362.0 264.9 358.3 263.65 364.25 263.55 Q364.6 262.35 364.25 261.15 L359.25 260.8 Q356.0 260.8 354.75 260.1 L358.4 259.05 Q356.65 257.85 351.85 257.15 346.75 256.35 344.9 255.35 L342.15 254.0" fill="#422c06" fill-rule="evenodd" stroke="none"/>
      <path d="M340.45 260.2 L340.95 260.65 338.35 260.45 Q336.8 260.05 334.0 258.3 338.35 258.9 340.45 260.2" fill="#422c06" fill-rule="evenodd" stroke="none"/>
      <path d="M318.95 254.15 Q320.25 254.0 320.9 254.15 321.85 254.4 322.5 255.45 322.55 254.4 322.1 253.2 324.05 254.0 328.1 256.15 328.95 257.8 330.85 259.5 L330.75 259.45 328.55 258.75 326.2 258.15 Q322.05 256.45 318.95 254.15" fill="#422c06" fill-rule="evenodd" stroke="none"/>
      <path d="M297.35 270.95 L299.0 273.4 Q300.05 275.05 300.8 275.6 L302.05 276.35 302.05 276.4 303.55 277.9 Q299.0 276.25 297.15 274.95 290.65 270.15 285.8 264.85 L288.3 262.35 292.95 266.55 297.35 270.95" fill="#422c06" fill-rule="evenodd" stroke="none"/>
      <path d="M301.85 237.7 L298.85 234.95 301.15 232.1 Q303.95 236.0 306.0 237.5 L301.85 237.7" fill="#422c06" fill-rule="evenodd" stroke="none"/>
      <path d="M288.3 262.35 L285.8 264.85 Q282.9 261.75 280.2 257.95 L281.75 256.1 282.2 256.4 283.3 257.3 287.5 261.6 288.3 262.35" fill="#422c06" fill-rule="evenodd" stroke="none"/>
      <path d="M321.05 264.5 L324.4 265.35 322.4 265.05 321.05 264.5" fill="#422c06" fill-rule="evenodd" stroke="none"/>
      <path d="M307.7 246.9 L307.35 246.6 308.05 247.65 309.35 250.65 Q310.1 252.4 311.1 253.45 312.05 254.45 314.0 255.55 L317.2 257.15 Q311.7 256.95 309.5 255.6 308.25 254.85 307.5 253.5 306.75 252.05 306.25 251.7 304.9 250.75 302.6 249.95 L298.3 248.65 299.0 247.35 300.5 244.2 Q301.2 242.85 302.0 241.85 L305.55 242.8 307.7 246.9" fill="#422c06" fill-rule="evenodd" stroke="none"/>
      <path d="M332.9 266.75 L331.5 266.45 326.5 265.7 320.8 264.4 317.0 262.95 315.9 260.4 314.95 258.1 317.75 257.4 322.6 259.35 Q325.25 260.6 327.3 262.5 L332.9 266.75" fill="#422c06" fill-rule="evenodd" stroke="none"/>
      <path d="M298.8 237.55 L297.3 237.5 297.05 237.15 297.5 236.6 298.8 237.55" fill="#422c06" fill-rule="evenodd" stroke="none"/>
      <path d="M298.3 248.65 Q292.95 247.1 291.15 245.1 L290.9 244.8 295.65 238.9 Q299.35 240.9 302.0 241.85 301.2 242.85 300.5 244.2 L299.0 247.35 298.3 248.65" fill="#422c06" fill-rule="evenodd" stroke="none"/>
      <path d="M342.95 273.25 L332.8 269.25 322.4 265.05 324.4 265.35 326.2 265.85 332.35 267.2 326.5 265.7 331.5 266.45 332.9 266.75 337.95 269.95 342.95 273.25" fill="#422c06" fill-rule="evenodd" stroke="none"/>
      <path d="M298.85 234.95 L301.85 237.7 298.8 237.55 297.5 236.6 298.85 234.95" fill="#422c06" fill-rule="evenodd" stroke="none"/>
      <path d="M210.55 205.5 Q210.5 201.25 209.7 195.15 L208.7 187.25 Q208.05 181.15 207.85 167.35 208.1 171.3 210.15 177.75 L213.2 188.0 214.35 195.7 Q213.95 203.25 214.7 209.5 L212.5 214.65 Q211.0 217.75 211.25 220.0 211.4 221.3 212.35 222.8 L213.75 225.45 Q214.65 228.4 214.25 234.6 213.85 241.15 214.45 243.9 214.65 244.1 215.25 244.3 217.1 242.55 218.35 239.2 L218.65 239.7 220.95 242.15 Q222.6 246.8 224.55 249.85 226.95 253.7 229.3 254.15 229.1 256.8 230.15 261.35 231.35 266.4 231.4 268.5 236.8 267.8 237.75 273.9 238.4 278.3 236.85 283.6 L235.7 287.15 Q232.65 291.35 232.0 295.15 L231.9 295.25 230.15 295.1 Q231.65 291.9 232.1 289.2 232.5 286.7 232.25 282.6 L230.75 282.7 Q231.2 277.6 229.85 272.8 229.3 273.85 228.55 277.3 227.9 280.2 226.75 281.6 L226.2 278.95 Q225.85 277.4 225.3 276.5 L222.75 273.35 Q221.25 271.55 220.9 269.4 L220.95 258.5 Q221.0 251.65 217.85 248.5 217.75 249.6 216.9 251.1 L216.85 249.65 Q216.8 248.75 216.9 248.2 216.25 251.15 214.9 253.4 213.15 249.1 212.8 241.7 212.65 239.0 212.8 229.3 L211.7 237.55 Q210.8 242.8 210.85 245.9 210.85 249.15 209.8 254.5 208.55 260.4 208.4 262.9 208.15 266.85 208.85 272.3 L210.1 281.35 Q211.4 292.2 207.45 299.6 206.7 297.65 206.45 295.4 L206.35 291.05 Q206.3 288.85 205.45 285.0 204.5 280.85 204.35 279.0 L204.6 285.8 Q204.7 289.75 204.4 292.5 204.15 294.75 202.3 298.05 200.25 301.7 199.85 303.45 L199.05 307.35 197.7 311.95 192.85 315.4 Q192.5 308.35 191.15 303.65 L190.45 309.85 Q189.7 315.8 188.55 318.25 L188.5 318.3 185.6 319.75 Q184.5 319.0 183.85 315.15 183.25 311.45 181.9 311.0 L180.5 316.7 Q179.55 319.8 177.45 321.6 L176.15 322.55 172.9 323.2 169.7 323.05 166.2 323.3 Q164.4 323.65 163.1 324.75 L162.9 324.8 162.25 323.15 Q160.55 323.35 160.15 322.55 L161.0 321.05 166.1 320.1 Q168.65 319.65 170.6 318.7 171.95 318.1 174.45 316.4 177.85 314.2 178.55 313.0 179.3 311.65 179.3 307.8 L179.9 309.55 Q185.8 308.5 187.9 304.75 189.55 299.55 190.75 296.2 191.15 295.1 192.4 293.15 L194.0 290.05 194.8 286.4 195.4 282.6 194.15 283.8 Q193.35 284.45 193.35 284.8 L193.35 284.7 193.1 284.8 Q190.85 286.4 188.95 286.05 186.7 285.6 185.85 282.5 189.45 281.95 191.3 279.15 192.6 277.2 193.45 272.95 L195.75 262.35 Q197.25 256.35 199.2 251.95 199.9 250.4 200.75 249.45 L202.4 247.4 Q204.4 244.55 204.85 242.2 L205.3 236.15 Q205.45 233.3 205.05 227.65 204.7 221.95 204.8 219.1 L205.35 220.5 Q210.85 218.5 210.55 205.5" fill="#422c06" fill-rule="evenodd" stroke="none"/>
      <path d="M196.35 116.75 Q196.5 123.35 197.6 135.35 198.8 149.45 198.3 157.55 L197.4 169.45 Q196.8 176.7 196.85 181.5 196.85 188.75 193.05 198.2 187.4 212.3 186.85 214.3 L186.85 212.9 Q186.85 210.2 187.95 207.9 L190.25 203.4 Q191.35 200.8 191.2 196.0 L190.8 188.45 Q190.8 190.15 189.3 193.85 L186.95 199.7 Q186.0 202.7 185.55 206.6 L184.85 213.8 Q184.55 216.7 184.5 222.0 184.45 227.65 184.2 230.2 183.05 243.1 177.7 248.85 175.45 251.05 174.7 252.0 173.5 253.45 172.85 255.9 172.05 258.8 170.8 264.65 169.5 269.75 167.4 272.75 166.35 274.3 162.3 277.25 158.65 279.9 157.65 282.05 157.2 283.05 156.85 285.85 156.65 287.2 154.25 288.55 151.85 289.95 150.5 291.05 L147.35 294.1 Q145.8 295.6 142.6 296.55 138.95 297.65 137.6 298.55 L133.15 301.25 Q131.2 302.1 127.95 301.95 124.25 302.1 122.0 301.85 117.85 301.4 117.7 299.1 115.9 300.35 115.35 302.6 117.15 303.4 119.3 303.15 118.55 304.05 115.95 305.45 L112.1 307.45 Q108.6 309.4 101.95 309.35 94.65 309.35 91.6 310.5 L83.95 312.55 Q82.05 313.0 80.0 313.95 L76.05 315.85 71.2 317.3 Q66.7 318.5 64.95 319.05 L56.85 319.7 Q51.6 320.15 48.6 321.25 L45.95 321.35 Q49.55 317.85 55.85 315.05 57.1 314.5 58.85 314.3 L61.95 314.05 Q66.55 314.3 74.05 310.65 81.65 307.0 85.7 307.1 L96.15 307.6 Q103.4 307.35 104.8 304.2 101.7 303.8 101.35 301.6 L105.35 301.25 Q107.95 301.2 109.2 300.6 L110.45 299.2 111.65 297.6 Q113.5 296.45 118.05 296.0 L124.85 295.6 124.25 297.1 Q129.15 299.3 133.3 294.15 L136.55 289.5 Q138.5 286.7 139.9 285.55 140.8 284.85 145.1 282.7 147.85 281.35 149.35 278.45 L150.7 275.35 Q151.55 273.45 152.5 272.55 153.2 271.9 155.95 270.4 158.1 269.25 159.0 267.65 L159.8 268.55 Q163.85 266.9 165.95 259.4 167.65 251.05 168.75 248.5 L170.4 243.9 171.85 239.45 Q172.05 238.95 172.9 238.1 L173.9 236.7 Q174.4 233.8 174.85 232.3 175.8 229.4 177.0 232.5 179.45 230.8 180.2 226.55 L180.85 219.55 Q181.3 214.4 183.1 206.25 L185.9 193.0 Q189.35 192.6 190.4 188.75 L191.4 182.0 193.9 170.95 Q195.2 164.75 195.45 159.6 196.4 138.95 196.35 116.75" fill="#422c06" fill-rule="evenodd" stroke="none"/>
      <path d="M180.65 251.65 L182.0 251.1 Q183.15 252.85 183.15 254.6 L180.65 256.85 Q179.0 258.2 178.3 259.45 177.75 260.5 177.3 262.25 L176.6 265.15 173.05 268.65 174.8 264.55 Q175.75 261.85 177.6 258.0 L180.65 251.65" fill="#422c06" fill-rule="evenodd" stroke="none"/>
      <path d="M165.3 284.35 Q162.65 286.85 161.75 288.6 161.25 289.55 161.05 291.75 L159.35 293.65 Q158.0 295.3 155.8 298.7 L152.3 303.8 154.05 301.1 152.3 301.55 152.35 301.45 157.0 292.5 Q159.85 287.2 162.45 283.85 L166.05 279.3 169.45 274.75 Q169.1 276.6 169.15 280.15 L165.3 284.35" fill="#422c06" fill-rule="evenodd" stroke="none"/>
      <path d="M173.95 299.15 L171.75 301.6 Q173.7 299.2 175.05 295.65 174.8 297.85 173.95 299.15" fill="#422c06" fill-rule="evenodd" stroke="none"/>
      <path d="M157.45 313.65 L159.45 310.5 160.85 309.0 160.9 309.4 Q161.85 307.85 164.05 306.85 L167.8 305.15 170.2 303.25 167.45 307.05 164.7 308.9 Q162.6 310.05 161.7 310.95 160.8 311.85 160.05 313.25 L158.85 315.55 156.05 318.7 152.65 322.35 151.65 322.45 151.65 321.05 151.2 320.1 153.0 318.6 155.35 316.45 157.45 313.65" fill="#422c06" fill-rule="evenodd" stroke="none"/>
      <path d="M190.6 251.6 Q191.9 247.8 193.8 245.55 193.85 247.2 193.5 249.65 191.2 252.6 190.0 256.2 189.1 259.1 188.45 263.85 L182.15 275.9 Q178.85 282.9 178.2 288.45 177.1 298.65 173.85 304.25 172.45 306.7 167.65 310.75 163.4 314.4 162.2 317.6 L160.95 321.05 160.05 321.25 Q160.4 319.85 162.05 317.25 L163.9 314.3 Q165.9 310.2 167.0 308.25 168.9 305.05 171.05 302.7 174.15 299.35 174.75 298.25 175.65 296.6 175.8 293.25 177.0 288.35 176.85 282.1 L175.85 283.6 177.5 278.4 Q178.55 274.95 176.95 274.6 L180.6 268.9 Q186.15 266.4 188.65 258.25 189.85 253.75 190.6 251.6" fill="#422c06" fill-rule="evenodd" stroke="none"/>
      <path d="M160.15 322.55 Q159.9 322.1 160.05 321.25 L160.95 321.05 160.15 322.55" fill="#422c06" fill-rule="evenodd" stroke="none"/>
      <path d="M151.65 322.45 L152.65 322.35 151.95 323.45 151.65 322.45" fill="#422c06" fill-rule="evenodd" stroke="none"/>
      <path d="M85.05 293.35 L79.35 294.5 73.85 295.1 73.65 295.1 75.85 294.1 74.85 294.1 75.4 293.85 84.75 292.7 Q90.3 291.8 93.35 289.5 L95.15 287.8 96.75 285.9 Q98.05 285.1 98.7 284.0 L99.5 283.5 Q101.65 282.3 104.4 282.05 L103.8 282.5 100.35 286.05 Q98.35 288.05 96.45 289.1 92.1 291.45 85.05 293.35" fill="#422c06" fill-rule="evenodd" stroke="none"/>
      <path d="M123.7 278.45 Q126.3 276.15 128.6 274.75 130.85 273.35 134.2 272.05 L134.7 271.85 Q131.15 275.75 127.3 278.4 122.5 281.6 118.35 282.1 L120.8 280.6 Q121.95 279.95 123.7 278.45" fill="#422c06" fill-rule="evenodd" stroke="none"/>
      <path d="M149.45 261.7 L149.7 261.25 150.05 261.2 149.45 261.7" fill="#422c06" fill-rule="evenodd" stroke="none"/>
      <path d="M148.7 269.6 L145.95 273.0 142.85 276.05 142.0 276.7 138.7 277.15 141.85 274.0 146.2 268.95 Q148.9 265.8 150.7 264.15 L152.55 262.65 150.25 266.15 148.7 269.55 148.7 269.6" fill="#422c06" fill-rule="evenodd" stroke="none"/>
      <path d="M92.6 279.65 Q94.75 279.5 97.2 279.65 97.7 281.1 96.85 282.4 L85.9 284.0 Q78.9 284.75 74.95 286.0 L79.5 284.0 83.9 281.95 92.6 279.65" fill="#422c06" fill-rule="evenodd" stroke="none"/>
      <path d="M159.25 240.7 L162.25 235.55 Q162.55 238.2 161.05 242.5 L158.35 249.1 156.6 251.8 154.75 254.45 Q154.15 255.6 153.95 256.75 L153.55 258.3 151.9 259.7 151.15 260.1 149.25 260.7 151.2 259.2 147.6 259.6 147.35 259.1 Q151.05 259.75 153.35 255.75 154.95 253.0 155.75 248.4 154.1 252.9 148.35 254.6 L138.6 256.55 Q137.3 256.9 135.55 257.8 L132.6 259.05 127.4 259.85 122.2 260.1 Q116.2 260.55 109.4 263.1 106.1 264.3 97.55 268.35 L88.9 269.85 Q91.6 269.35 94.6 267.6 L99.7 264.2 Q102.75 263.05 107.65 261.55 L112.65 259.6 118.05 259.6 123.35 259.6 Q127.95 259.4 134.85 254.75 141.95 250.0 146.35 249.6 146.25 250.35 146.4 250.95 148.0 248.95 150.55 247.55 L155.3 245.0 Q157.4 243.65 159.25 240.7" fill="#422c06" fill-rule="evenodd" stroke="none"/>
      <path d="M208.1 62.75 Q209.3 69.95 209.35 74.55 L209.35 90.05 209.6 108.35 209.85 126.65 Q209.85 130.0 210.4 141.5 210.4 151.9 207.35 154.85 206.85 146.9 207.5 131.25 208.1 115.3 207.7 107.6 206.3 79.45 206.35 62.6 L206.35 51.1 Q206.6 53.8 208.1 62.75" fill="#422c06" fill-rule="evenodd" stroke="none"/>
      <path d="M220.45 73.05 L220.85 76.95 Q221.35 79.65 223.9 86.55 226.15 92.55 226.35 96.15 226.85 103.65 226.75 107.75 226.6 114.95 224.9 119.0 223.8 121.7 222.9 122.75 221.35 124.55 219.35 123.65 218.2 123.1 217.65 122.0 217.15 121.0 217.35 119.75 221.35 120.35 221.45 112.45 221.9 112.95 223.25 111.2 224.0 110.2 224.0 107.55 L223.85 103.6 Q223.85 100.85 223.25 94.1 222.8 88.9 222.85 85.65 L222.35 96.6 Q222.35 103.4 221.95 106.2 L221.35 109.55 220.8 102.8 Q220.8 97.25 220.05 85.75 219.35 74.45 219.35 68.6 L218.45 56.95 Q218.65 59.0 219.35 62.55 L220.3 69.05 220.45 73.05" fill="#422c06" fill-rule="evenodd" stroke="none"/>
      <path d="M232.35 124.1 L232.35 113.65 Q234.3 124.0 234.3 134.95 L234.6 139.6 Q234.6 142.9 233.35 143.7 230.95 145.3 229.9 142.7 229.1 140.75 229.35 138.1 L231.35 138.1 Q232.75 135.85 232.7 131.25 232.35 126.15 232.35 124.1" fill="#422c06" fill-rule="evenodd" stroke="none"/>
      <path d="M252.45 53.75 Q250.75 50.0 250.85 47.05 L251.0 43.85 251.25 40.6 267.25 40.6 267.85 39.6 267.8 40.6 268.3 40.6 268.55 41.45 Q268.4 42.2 268.55 44.35 L268.65 47.25 268.95 54.85 268.85 58.6 268.7 65.7 268.7 72.8 Q270.0 86.2 270.9 92.65 271.35 94.95 272.35 98.55 272.85 100.4 276.0 107.45 278.6 113.25 278.7 116.55 L278.45 126.05 Q278.2 131.8 278.75 135.65 279.3 139.4 279.4 149.45 279.55 158.05 280.75 163.05 283.3 173.8 286.95 180.15 288.35 182.65 289.3 186.65 L290.95 193.7 Q291.85 197.0 293.6 200.9 L297.0 207.85 296.15 226.95 295.2 226.05 Q293.9 223.9 292.75 221.15 291.3 220.35 288.9 220.3 287.5 220.25 285.9 217.6 L283.8 213.85 Q282.5 211.65 281.25 210.45 L276.6 206.55 Q273.95 204.2 273.25 201.6 269.25 203.0 266.3 200.7 263.3 198.4 263.8 193.95 L266.65 196.0 Q268.4 197.2 269.85 197.05 269.75 195.65 270.75 193.15 L271.75 193.05 Q272.6 193.05 272.75 192.65 L272.85 191.25 272.8 189.85 Q273.15 187.5 271.8 182.75 L269.9 175.6 269.2 171.0 268.15 167.8 Q267.4 165.75 267.2 164.55 265.15 163.85 263.45 158.3 261.7 152.75 262.95 150.8 264.5 151.15 266.4 152.5 L269.5 154.75 Q267.7 146.45 267.4 143.45 267.15 140.9 264.95 136.15 262.9 131.7 262.8 128.8 262.7 124.4 263.3 122.55 263.7 121.35 265.3 119.1 266.85 116.95 267.25 115.5 268.05 112.45 266.05 109.95 263.15 106.25 262.75 105.15 262.1 103.35 262.35 99.1 262.6 94.75 262.05 93.05 261.25 90.3 259.8 87.2 258.35 83.9 256.8 81.6 L253.4 76.8 Q251.65 73.85 251.85 71.2 L252.0 71.35 252.35 72.6 252.6 72.55 254.5 76.0 257.6 76.1 Q258.4 75.5 258.2 72.9 L257.85 69.3 Q257.7 66.8 257.0 64.55 L255.4 60.05 252.45 53.75" fill="#35240b" fill-rule="evenodd" stroke="none"/>
      <path d="M304.0 220.75 Q305.9 222.75 307.1 224.75 L301.15 232.1 298.25 228.5 297.3 227.75 296.15 226.95 297.0 207.85 299.45 212.7 303.05 219.7 304.0 220.75" fill="#35240b" fill-rule="evenodd" stroke="none"/>
      <path d="M295.4 237.45 L296.65 237.65 295.65 238.9 292.95 237.5 295.4 237.45" fill="#35240b" fill-rule="evenodd" stroke="none"/>
      <path d="M350.95 263.05 L352.55 262.95 Q352.9 262.75 352.25 262.45 354.9 262.5 358.3 263.65 L352.25 263.45 347.4 263.45 Q344.25 263.35 342.7 262.6 L341.7 261.7 340.95 260.65 342.8 260.65 Q344.3 260.8 346.9 261.85 349.5 262.95 350.95 263.05" fill="#35240b" fill-rule="evenodd" stroke="none"/>
      <path d="M328.1 256.15 L327.8 255.2 Q329.3 255.5 331.05 256.45 L334.0 258.3 333.65 258.25 335.2 259.15 Q333.7 258.95 328.1 256.15" fill="#35240b" fill-rule="evenodd" stroke="none"/>
      <path d="M331.05 251.25 L330.1 250.8 326.45 249.5 330.75 249.65 Q330.75 250.75 331.05 251.25" fill="#35240b" fill-rule="evenodd" stroke="none"/>
      <path d="M342.15 254.0 L337.4 253.7 Q335.75 253.35 333.2 252.25 L335.2 252.45 Q340.1 253.15 342.15 254.0" fill="#35240b" fill-rule="evenodd" stroke="none"/>
      <path d="M306.85 242.8 L305.55 242.8 304.5 241.1 306.85 242.8" fill="#35240b" fill-rule="evenodd" stroke="none"/>
      <path d="M306.85 242.8 L304.5 241.1 303.7 240.0 303.8 239.9 Q308.8 235.15 311.95 231.4 L316.1 235.1 Q318.6 237.35 319.95 239.2 337.1 248.75 362.05 257.25 367.15 258.95 373.2 262.35 L383.55 268.55 Q385.1 269.5 390.8 271.3 395.75 272.9 397.3 274.5 390.65 275.6 384.0 274.8 377.9 274.0 371.3 271.45 L369.7 270.75 Q368.2 270.2 366.6 269.3 362.15 267.15 359.9 266.55 L355.0 266.3 350.0 266.55 342.8 266.75 343.75 267.5 Q335.4 263.35 331.35 259.95 L330.85 259.5 Q328.95 257.8 328.1 256.15 333.7 258.95 335.2 259.15 L333.65 258.25 334.0 258.3 Q336.8 260.05 338.35 260.45 L340.95 260.65 341.7 261.7 342.7 262.6 Q344.25 263.35 347.4 263.45 L352.25 263.45 358.3 263.65 362.0 264.9 365.8 266.0 369.65 266.7 Q371.65 267.05 373.35 268.1 376.9 270.2 378.65 270.7 L384.9 271.0 Q383.75 268.65 380.55 268.2 376.7 267.6 375.45 266.55 L376.7 266.65 Q374.5 264.0 370.0 261.95 L362.25 258.55 Q358.55 256.65 352.9 255.6 L343.35 253.65 343.25 253.55 343.5 253.95 342.15 254.0 Q340.1 253.15 335.2 252.45 L333.2 252.25 331.05 251.25 Q330.75 250.75 330.75 249.65 L326.45 249.5 321.3 248.05 Q319.3 247.35 315.45 244.45 311.4 241.45 309.45 240.6 309.1 242.65 306.85 242.8" fill="#35240b" fill-rule="evenodd" stroke="none"/>
      <path d="M306.0 237.5 Q303.95 236.0 301.15 232.1 L307.1 224.75 308.8 227.6 Q310.0 229.55 311.95 231.4 308.8 235.15 303.8 239.9 L303.7 240.0 301.85 237.7 306.0 237.5" fill="#35240b" fill-rule="evenodd" stroke="none"/>
      <path d="M302.0 241.85 L303.35 240.35 304.5 241.1 305.55 242.8 302.0 241.85" fill="#35240b" fill-rule="evenodd" stroke="none"/>
      <path d="M298.8 237.55 L303.35 240.35 302.0 241.85 Q299.35 240.9 295.65 238.9 L296.65 237.65 297.35 237.6 297.3 237.5 298.8 237.55" fill="#35240b" fill-rule="evenodd" stroke="none"/>
      <path d="M304.5 241.1 L303.35 240.35 303.7 240.0 304.5 241.1" fill="#35240b" fill-rule="evenodd" stroke="none"/>
      <path d="M303.35 240.35 L298.8 237.55 301.85 237.7 303.7 240.0 303.35 240.35" fill="#35240b" fill-rule="evenodd" stroke="none"/>
      <path d="M270.3 224.15 Q269.95 227.15 270.0 230.1 269.35 226.6 270.3 224.15" fill="#35240b" fill-rule="evenodd" stroke="none"/>
      <path d="M266.25 213.6 Q262.5 213.8 261.7 209.35 260.95 205.1 263.25 202.55 L265.0 207.55 Q266.55 210.65 268.65 210.0 L268.85 208.6 Q269.1 212.25 271.05 216.7 272.85 220.75 275.25 223.75 276.1 224.8 277.9 226.05 L280.75 228.1 Q282.95 230.0 284.35 232.5 L286.7 237.25 Q285.2 238.45 283.2 240.45 277.25 228.35 270.6 222.2 L270.45 223.0 Q269.25 222.75 269.4 221.3 269.55 219.2 269.35 218.65 269.1 217.95 267.5 216.45 266.3 215.2 266.25 213.6" fill="#35240b" fill-rule="evenodd" stroke="none"/>
      <path d="M281.8 256.05 L281.75 256.1 280.85 255.55 280.8 257.0 Q280.05 255.55 279.45 253.5 280.25 254.65 281.8 256.05" fill="#35240b" fill-rule="evenodd" stroke="none"/>
      <path d="M270.45 223.25 L270.6 222.2 Q277.25 228.35 283.2 240.45 278.6 245.3 278.35 249.3 L277.05 245.55 273.3 238.55 Q270.75 233.55 270.0 230.2 269.95 227.4 270.3 224.4 270.65 223.6 270.85 223.6 L271.35 223.6 Q271.15 223.0 270.85 223.05 L270.45 223.25" fill="#35240b" fill-rule="evenodd" stroke="none"/>
      <path d="M283.2 240.45 Q285.2 238.45 286.7 237.25 L287.3 238.4 289.0 241.65 Q290.1 243.8 290.9 244.8 L287.3 249.25 283.2 240.45" fill="#35240b" fill-rule="evenodd" stroke="none"/>
      <path d="M279.45 253.5 L278.35 249.3 Q278.6 245.3 283.2 240.45 L287.3 249.25 281.8 256.05 Q280.25 254.65 279.45 253.5" fill="#35240b" fill-rule="evenodd" stroke="none"/>
      <path d="M295.6 265.85 L294.5 264.0 296.5 264.8 295.6 265.85" fill="#35240b" fill-rule="evenodd" stroke="none"/>
      <path d="M337.1 275.0 L333.35 274.6 Q324.85 273.7 319.35 272.05 L316.65 271.05 313.9 270.65 313.8 272.0 Q311.65 272.0 306.65 268.2 301.4 264.3 299.25 264.0 299.0 260.9 297.5 257.1 305.5 258.75 317.0 262.95 L317.45 263.75 316.4 263.4 313.8 262.2 Q312.35 261.55 311.1 261.65 313.1 262.15 315.15 263.4 L318.65 265.85 315.75 266.2 312.8 266.65 Q312.95 270.9 318.15 271.15 L326.35 270.55 327.3 270.55 334.1 272.3 Q338.05 273.35 340.75 274.95 339.35 275.25 337.1 275.0" fill="#35240b" fill-rule="evenodd" stroke="none"/>
      <path d="M318.35 257.2 L317.75 257.4 317.2 257.15 318.35 257.2" fill="#35240b" fill-rule="evenodd" stroke="none"/>
      <path d="M430.85 296.75 L432.6 297.0 433.05 297.1 Q417.15 297.05 408.7 296.5 395.5 295.6 384.35 293.0 381.75 292.4 376.1 290.2 370.85 288.15 367.85 287.55 L360.35 286.7 352.75 286.6 345.75 286.95 338.8 286.5 Q336.6 285.95 333.6 284.3 L328.4 281.35 322.9 280.15 317.35 279.1 312.1 278.05 306.8 276.65 302.05 276.35 300.8 275.6 Q300.05 275.05 299.0 273.4 L297.35 270.95 292.95 266.55 288.3 262.35 289.25 261.3 294.5 264.0 295.6 265.85 296.5 264.8 299.3 265.55 299.25 264.0 Q301.4 264.3 306.65 268.2 311.65 272.0 313.8 272.0 L313.9 270.65 316.65 271.05 319.35 272.05 Q324.85 273.7 333.35 274.6 L337.1 275.0 Q339.35 275.25 340.75 274.95 338.05 273.35 334.1 272.3 L327.3 270.55 Q332.55 270.7 341.0 272.9 351.8 275.7 354.6 276.15 L351.1 276.05 360.15 279.55 Q366.0 282.0 369.2 283.0 371.9 283.85 379.7 285.4 386.35 286.7 390.1 288.2 391.95 288.95 394.15 290.85 L397.4 293.5 Q398.75 294.25 401.05 294.6 L404.85 295.05 420.65 296.7 425.45 296.65 430.85 296.75" fill="#35240b" fill-rule="evenodd" stroke="none"/>
      <path d="M311.1 261.65 Q312.35 261.55 313.8 262.2 L316.4 263.4 317.45 263.75 Q318.25 265.2 319.35 265.6 L318.65 265.85 315.15 263.4 Q313.1 262.15 311.1 261.65" fill="#35240b" fill-rule="evenodd" stroke="none"/>
      <path d="M287.5 261.6 L283.3 257.3 Q286.1 259.55 289.25 261.3 L288.3 262.35 287.5 261.6" fill="#35240b" fill-rule="evenodd" stroke="none"/>
      <path d="M306.25 251.7 Q306.75 252.05 307.5 253.5 308.25 254.85 309.5 255.6 311.7 256.95 317.2 257.15 L317.75 257.4 314.95 258.1 315.9 260.4 317.0 262.95 Q305.5 258.75 297.5 257.1 299.0 260.9 299.25 264.0 297.6 263.85 296.5 264.8 L294.5 264.0 291.6 258.55 Q295.45 253.9 298.3 248.65 L302.6 249.95 Q304.9 250.75 306.25 251.7" fill="#35240b" fill-rule="evenodd" stroke="none"/>
      <path d="M287.3 249.25 L290.9 244.8 291.15 245.1 Q292.95 247.1 298.3 248.65 295.45 253.9 291.6 258.55 L287.3 249.25" fill="#35240b" fill-rule="evenodd" stroke="none"/>
      <path d="M296.5 264.8 Q297.6 263.85 299.25 264.0 L299.3 265.55 296.5 264.8" fill="#35240b" fill-rule="evenodd" stroke="none"/>
      <path d="M289.25 261.3 L291.6 258.55 294.5 264.0 289.25 261.3" fill="#35240b" fill-rule="evenodd" stroke="none"/>
      <path d="M283.3 257.3 L281.8 256.05 287.3 249.25 291.6 258.55 289.25 261.3 Q286.1 259.55 283.3 257.3" fill="#35240b" fill-rule="evenodd" stroke="none"/>
      <path d="M230.7 307.7 L228.1 310.5 Q228.85 309.1 230.7 307.7" fill="#35240b" fill-rule="evenodd" stroke="none"/>
      <path d="M245.9 195.25 Q248.15 196.35 248.65 193.65 L248.8 189.15 Q248.95 193.15 251.05 200.8 253.15 208.6 253.35 212.55 253.5 215.55 253.1 222.7 253.0 229.15 254.25 232.55 254.6 233.5 256.2 235.55 257.6 237.35 257.85 238.65 258.05 239.5 257.5 242.15 257.1 244.35 257.9 245.65 258.6 246.8 261.3 248.25 264.3 249.9 264.95 250.55 L266.3 252.55 Q267.0 253.9 267.9 254.55 265.35 256.1 264.55 256.7 263.4 257.6 262.85 259.7 262.15 262.2 262.25 265.85 258.25 265.9 255.85 269.65 L255.7 264.0 Q255.4 260.9 254.25 259.15 254.0 258.75 252.15 257.6 L249.85 256.1 Q245.95 252.15 245.25 247.55 244.85 244.6 245.3 239.45 245.85 233.2 245.8 231.3 246.45 233.45 248.05 232.75 249.45 232.15 250.35 230.15 251.15 228.35 250.5 225.3 L249.3 220.55 Q248.7 217.25 247.8 207.95 247.05 199.8 245.9 195.25" fill="#35240b" fill-rule="evenodd" stroke="none"/>
      <path d="M245.4 195.0 L245.4 193.4 245.9 195.25 245.4 195.0" fill="#35240b" fill-rule="evenodd" stroke="none"/>
      <path d="M267.5 286.15 Q269.45 289.05 272.45 291.2 267.3 291.45 269.85 295.3 272.3 298.95 275.3 299.5 L274.45 297.7 Q275.45 298.05 277.0 299.1 L279.4 300.55 Q281.85 301.55 285.25 301.65 285.3 302.75 284.7 303.3 283.8 303.9 283.2 304.5 L282.05 304.9 280.85 305.25 Q280.05 305.8 279.3 306.8 L278.05 308.5 273.75 306.9 269.6 305.3 Q263.8 302.4 260.6 298.6 L255.4 299.75 Q252.0 300.35 250.3 301.45 L245.25 305.3 Q242.3 307.5 239.45 308.3 L233.35 309.9 Q229.95 310.8 227.45 312.3 227.6 311.45 228.1 310.5 L230.7 307.7 Q232.2 306.6 235.05 305.15 L238.9 303.1 Q242.3 300.8 243.6 298.85 245.15 296.55 245.45 292.6 L245.9 294.0 Q247.75 294.6 248.4 293.4 249.5 291.3 249.75 291.15 251.5 289.9 252.6 289.4 252.9 289.0 253.4 285.1 253.65 283.1 254.55 280.1 255.5 277.1 255.7 275.45 L258.5 279.3 Q259.8 282.5 262.4 281.0 263.2 281.0 264.65 280.2 265.8 283.65 267.5 286.15" fill="#35240b" fill-rule="evenodd" stroke="none"/>
      <path d="M255.85 272.7 L255.85 269.65 Q258.25 265.9 262.25 265.85 262.35 271.15 263.4 275.8 L264.65 280.2 Q263.2 281.0 262.4 281.0 259.8 282.5 258.5 279.3 L255.7 275.45 255.85 272.7" fill="#35240b" fill-rule="evenodd" stroke="none"/>
      <path d="M302.85 310.8 Q304.95 312.0 305.65 312.2 L307.85 312.35 309.95 312.65 312.7 314.6 Q314.3 316.0 315.55 316.45 L320.55 317.9 325.7 319.2 331.15 320.55 Q334.05 321.45 336.2 323.1 340.7 326.55 345.0 328.25 337.9 326.4 330.65 323.6 323.65 320.55 319.95 319.3 313.55 317.15 308.55 317.95 L298.75 319.65 Q281.6 323.8 268.85 323.6 L258.15 323.0 262.75 322.55 267.7 323.2 Q270.85 323.7 272.6 323.1 274.1 322.6 274.7 321.75 275.65 320.45 276.35 319.95 277.75 318.9 279.9 318.75 L283.65 318.6 290.15 318.05 Q294.4 317.6 296.3 316.6 L298.8 313.6 Q299.15 313.0 300.1 312.15 300.65 311.25 299.8 309.55 301.05 309.7 302.85 310.8" fill="#35240b" fill-rule="evenodd" stroke="none"/>
      <path d="M175.85 291.15 L175.8 293.25 175.05 295.65 175.85 291.15" fill="#35240b" fill-rule="evenodd" stroke="none"/>
      <path d="M163.1 324.75 Q164.4 323.65 166.2 323.3 L169.7 323.05 172.9 323.2 170.05 323.7 163.1 324.75" fill="#35240b" fill-rule="evenodd" stroke="none"/>
      <path d="M153.95 325.7 L152.95 324.85 155.2 324.85 157.25 324.5 Q159.05 324.0 160.15 322.55 160.55 323.35 162.25 323.15 L162.9 324.8 153.95 325.7" fill="#35240b" fill-rule="evenodd" stroke="none"/>
      <path d="M181.9 311.0 Q183.25 311.45 183.85 315.15 184.5 319.0 185.6 319.75 182.05 321.35 176.15 322.55 L177.45 321.6 Q179.55 319.8 180.5 316.7 L181.9 311.0" fill="#35240b" fill-rule="evenodd" stroke="none"/>
      <path d="M188.55 318.25 Q189.7 315.8 190.45 309.85 L191.15 303.65 Q192.5 308.35 192.85 315.4 L188.55 318.25" fill="#35240b" fill-rule="evenodd" stroke="none"/>
      <path d="M216.9 251.1 Q217.75 249.6 217.85 248.5 221.0 251.65 220.95 258.5 L220.9 269.4 Q221.25 271.55 222.75 273.35 L225.3 276.5 Q225.85 277.4 226.2 278.95 L226.75 281.6 Q227.9 280.2 228.55 277.3 229.3 273.85 229.85 272.8 231.2 277.6 230.75 282.7 L232.25 282.6 Q232.5 286.7 232.1 289.2 231.65 291.9 230.15 295.1 L225.55 294.85 Q223.45 296.85 219.95 298.15 L213.75 300.2 209.8 303.85 208.75 306.0 Q205.0 307.65 202.75 308.8 200.0 310.3 197.7 311.95 L199.05 307.35 199.85 303.45 Q200.25 301.7 202.3 298.05 204.15 294.75 204.4 292.5 204.7 289.75 204.6 285.8 L204.35 279.0 Q204.5 280.85 205.45 285.0 206.3 288.85 206.35 291.05 L206.45 295.4 Q206.7 297.65 207.45 299.6 211.4 292.2 210.1 281.35 L208.85 272.3 Q208.15 266.85 208.4 262.9 208.55 260.4 209.8 254.5 210.85 249.15 210.85 245.9 210.8 242.8 211.7 237.55 L212.8 229.3 Q212.65 239.0 212.8 241.7 213.15 249.1 214.9 253.4 216.25 251.15 216.9 248.2 216.8 248.75 216.85 249.65 L216.9 251.1" fill="#35240b" fill-rule="evenodd" stroke="none"/>
      <path d="M170.2 303.25 L171.75 301.6 173.95 299.15 Q174.8 297.85 175.05 295.65 L175.8 293.25 Q175.65 296.6 174.75 298.25 174.15 299.35 171.05 302.7 168.9 305.05 167.0 308.25 165.9 310.2 163.9 314.3 L162.05 317.25 Q160.4 319.85 160.05 321.25 L152.65 322.35 156.05 318.7 158.85 315.55 160.05 313.25 Q160.8 311.85 161.7 310.95 162.6 310.05 164.7 308.9 L167.45 307.05 170.2 303.25" fill="#35240b" fill-rule="evenodd" stroke="none"/>
      <path d="M157.25 324.5 L155.2 324.85 152.95 324.85 Q152.2 324.1 151.95 323.45 L152.65 322.35 160.05 321.25 Q159.9 322.1 160.15 322.55 159.05 324.0 157.25 324.5" fill="#35240b" fill-rule="evenodd" stroke="none"/>
      <path d="M169.85 273.05 Q170.55 271.3 173.05 268.65 171.6 271.6 169.45 274.75 169.5 274.05 169.85 273.05" fill="#35240b" fill-rule="evenodd" stroke="none"/>
      <path d="M186.85 214.3 L186.85 221.95 Q186.85 233.3 182.55 246.8 L180.65 251.65 180.5 251.7 Q180.95 249.4 183.1 241.15 184.85 234.6 185.2 230.45 L185.5 223.35 Q185.65 219.1 186.3 216.25 L186.85 214.3" fill="#35240b" fill-rule="evenodd" stroke="none"/>
      <path d="M186.95 199.7 L189.3 193.85 Q190.8 190.15 190.8 188.45 L191.2 196.0 Q191.35 200.8 190.25 203.4 L187.95 207.9 Q186.85 210.2 186.85 212.9 L186.85 214.3 186.3 216.25 Q185.65 219.1 185.5 223.35 L185.2 230.45 Q184.85 234.6 183.1 241.15 180.95 249.4 180.5 251.7 L180.65 251.65 177.6 258.0 Q175.75 261.85 174.8 264.55 L173.05 268.65 Q170.55 271.3 169.85 273.05 169.5 274.05 169.45 274.75 L166.05 279.3 162.45 283.85 Q159.85 287.2 157.0 292.5 L152.35 301.45 152.3 301.55 142.9 304.0 Q139.85 304.95 134.35 305.6 L125.75 306.9 119.45 308.55 106.75 312.1 100.15 313.25 93.35 313.7 Q89.35 316.0 79.9 317.15 L67.85 318.6 64.95 319.05 Q66.7 318.5 71.2 317.3 L76.05 315.85 80.0 313.95 Q82.05 313.0 83.95 312.55 L91.6 310.5 Q94.65 309.35 101.95 309.35 108.6 309.4 112.1 307.45 L115.95 305.45 Q118.55 304.05 119.3 303.15 117.15 303.4 115.35 302.6 115.9 300.35 117.7 299.1 117.85 301.4 122.0 301.85 124.25 302.1 127.95 301.95 131.2 302.1 133.15 301.25 L137.6 298.55 Q138.95 297.65 142.6 296.55 145.8 295.6 147.35 294.1 L150.5 291.05 Q151.85 289.95 154.25 288.55 156.65 287.2 156.85 285.85 157.2 283.05 157.65 282.05 158.65 279.9 162.3 277.25 166.35 274.3 167.4 272.75 169.5 269.75 170.8 264.65 172.05 258.8 172.85 255.9 173.5 253.45 174.7 252.0 175.45 251.05 177.7 248.85 183.05 243.1 184.2 230.2 184.45 227.65 184.5 222.0 184.55 216.7 184.85 213.8 L185.55 206.6 Q186.0 202.7 186.95 199.7" fill="#35240b" fill-rule="evenodd" stroke="none"/>
      <path d="M159.8 251.35 Q162.35 247.8 164.8 242.05 L168.85 232.3 Q168.1 242.65 165.25 250.5 163.85 254.25 159.55 257.6 L159.7 256.65 Q157.75 257.7 155.25 260.7 L152.55 262.65 Q154.6 259.65 155.05 257.65 L152.75 259.95 Q151.25 261.05 150.05 261.2 L151.9 259.7 153.55 258.3 Q157.75 254.35 159.8 251.35" fill="#35240b" fill-rule="evenodd" stroke="none"/>
      <path d="M146.3 263.7 L149.45 261.7 Q147.35 265.2 143.05 267.85 140.15 269.65 134.7 271.85 L134.95 271.6 Q137.3 268.95 140.25 267.05 141.75 266.1 146.3 263.7" fill="#35240b" fill-rule="evenodd" stroke="none"/>
      <path d="M112.25 280.3 L120.8 280.6 Q119.25 281.45 117.2 281.7 L111.9 282.0 108.05 282.0 Q105.7 281.95 104.4 282.05 106.95 280.35 112.25 280.3" fill="#35240b" fill-rule="evenodd" stroke="none"/>
      <path d="M149.45 261.7 L150.05 261.2 Q151.25 261.05 152.75 259.95 L155.05 257.65 Q154.6 259.65 152.55 262.65 L150.7 264.15 Q148.9 265.8 146.2 268.95 L141.85 274.0 138.7 277.15 Q131.65 278.3 125.8 280.15 L120.7 281.8 115.5 283.05 108.35 283.6 106.95 283.8 Q106.05 283.85 105.5 284.2 104.9 284.55 103.9 286.25 L102.25 288.45 Q97.9 292.05 91.7 292.6 L85.05 293.35 Q92.1 291.45 96.45 289.1 98.35 288.05 100.35 286.05 L103.8 282.5 104.4 282.05 Q105.7 281.95 108.05 282.0 L111.9 282.0 117.2 281.7 Q119.25 281.45 120.8 280.6 L118.35 282.1 Q122.5 281.6 127.3 278.4 131.15 275.75 134.7 271.85 140.15 269.65 143.05 267.85 147.35 265.2 149.45 261.7" fill="#35240b" fill-rule="evenodd" stroke="none"/>
      <path d="M148.35 254.6 Q154.1 252.9 155.75 248.4 154.95 253.0 153.35 255.75 151.05 259.75 147.35 259.1 L147.6 259.6 140.5 260.5 140.35 260.5 Q136.0 260.8 131.55 261.8 L114.45 263.7 Q112.4 263.95 110.55 264.5 L106.75 265.75 Q102.55 267.3 97.55 268.35 106.1 264.3 109.4 263.1 116.2 260.55 122.2 260.1 L127.4 259.85 132.6 259.05 135.55 257.8 Q137.3 256.9 138.6 256.55 L148.35 254.6" fill="#35240b" fill-rule="evenodd" stroke="none"/>
      <path d="M222.35 96.6 L222.85 85.65 Q222.8 88.9 223.25 94.1 223.85 100.85 223.85 103.6 L224.0 107.55 Q224.0 110.2 223.25 111.2 221.9 112.95 221.45 112.45 L221.35 109.55 221.95 106.2 Q222.35 103.4 222.35 96.6" fill="#35240b" fill-rule="evenodd" stroke="none"/>
      <path d="M251.0 76.45 L252.4 80.2 252.85 84.15 Q253.0 86.85 253.25 88.0 253.6 89.65 255.2 93.55 256.6 96.9 256.85 99.2 257.6 105.8 257.3 110.0 L256.8 115.55 Q256.25 119.2 254.95 121.0 L254.85 116.1 254.7 121.35 253.8 122.2 Q251.9 123.55 249.55 123.25 247.0 122.9 246.35 120.65 250.85 120.15 252.1 117.65 252.9 116.05 252.85 111.05 252.8 106.45 252.1 99.7 L250.85 88.4 251.85 86.1 Q251.15 86.15 250.75 87.25 250.3 82.15 250.35 77.6 L249.45 72.65 251.0 76.45" fill="#35240b" fill-rule="evenodd" stroke="none"/>
      <path d="M254.7 121.35 L254.95 121.0 255.8 136.85 Q256.0 146.1 254.2 152.1 252.15 152.45 250.55 151.65 248.6 150.75 249.45 148.65 249.55 148.4 251.3 148.0 253.15 147.55 253.5 147.15 254.45 146.1 254.45 141.65 254.25 136.8 254.35 135.6 L254.7 121.35" fill="#35240b" fill-rule="evenodd" stroke="none"/>
      <path d="M198.95 67.6 L197.0 78.05 Q195.85 84.3 195.8 88.65 L195.85 92.5 Q195.8 94.65 195.3 96.25 L193.75 99.9 Q192.8 102.0 192.75 103.75 190.2 101.85 190.2 97.6 L190.15 90.3 Q188.4 93.25 188.45 98.95 L188.85 108.1 188.5 115.6 Q188.35 120.4 189.25 122.95 L190.2 122.45 191.25 121.8 Q192.25 124.35 192.15 126.8 192.05 129.65 190.3 130.6 L187.5 130.75 Q185.85 130.5 184.9 131.6 183.75 132.9 183.95 136.9 L184.35 142.6 Q184.2 146.75 183.0 156.05 181.9 164.75 181.85 169.5 181.65 179.2 179.85 187.6 179.2 190.45 179.3 195.9 179.35 201.5 178.85 204.05 178.45 206.1 177.15 208.9 L174.95 213.6 Q173.35 217.5 171.8 222.6 171.5 223.55 170.9 228.05 170.45 231.5 169.4 232.9 L169.1 224.4 Q168.9 219.2 168.15 216.05 166.15 218.55 165.25 222.9 L163.85 230.15 Q163.1 232.85 161.0 236.25 L157.15 242.0 Q155.5 244.55 154.45 245.15 153.65 245.6 150.2 246.1 142.85 247.1 138.5 248.7 137.4 249.1 135.15 250.4 133.05 251.6 131.65 252.0 L128.55 252.4 125.45 252.5 Q131.1 249.35 134.8 248.15 137.95 247.1 145.2 245.7 151.55 243.9 154.35 239.85 L157.1 235.0 Q158.9 231.45 160.0 229.75 163.45 224.55 167.5 216.15 L168.35 210.8 169.55 194.2 Q170.15 183.75 171.0 177.55 171.6 173.2 174.7 162.45 177.4 153.0 177.65 147.5 L178.9 128.15 Q179.7 116.35 179.65 108.8 L179.65 93.65 Q179.7 87.3 181.7 79.2 L185.35 65.1 Q186.25 61.35 185.75 52.85 185.3 44.4 186.25 40.6 L201.3 40.6 Q201.1 52.2 198.95 67.6" fill="#5e3f19" fill-rule="evenodd" stroke="none"/>
      <path d="M200.35 97.1 L199.85 96.6 Q199.6 92.9 200.6 87.4 L202.25 78.3 202.5 62.15 Q202.55 52.0 205.25 46.6 206.2 65.25 206.2 76.85 206.25 94.05 204.45 106.95 203.65 112.9 203.45 120.75 L203.35 134.65 Q203.25 140.35 201.8 155.2 200.75 166.45 200.8 173.75 L199.95 155.2 Q199.35 142.4 199.35 134.55 L198.65 115.65 Q198.4 104.1 200.35 97.1" fill="#5e3f19" fill-rule="evenodd" stroke="none"/>
      <path d="M216.35 54.1 Q214.8 55.2 213.9 56.65 L213.85 49.1 216.35 54.1" fill="#5e3f19" fill-rule="evenodd" stroke="none"/>
      <path d="M210.95 104.95 Q210.25 98.9 210.3 95.1 210.35 91.4 211.15 83.1 211.9 75.4 211.85 71.1 L211.85 63.6 Q212.15 59.3 213.9 56.65 L214.45 85.65 Q214.3 102.15 211.9 114.75 L210.95 104.95" fill="#5e3f19" fill-rule="evenodd" stroke="none"/>
      <path d="M220.35 44.6 Q219.25 43.15 219.55 40.6 L220.65 40.6 220.35 44.6" fill="#5e3f19" fill-rule="evenodd" stroke="none"/>
      <path d="M222.1 40.6 Q222.35 41.85 222.15 45.15 L221.85 49.25 221.05 44.8 Q220.65 42.55 220.7 40.6 L222.1 40.6" fill="#5e3f19" fill-rule="evenodd" stroke="none"/>
      <path d="M221.35 49.6 L224.1 61.55 Q221.0 54.4 221.35 49.6" fill="#5e3f19" fill-rule="evenodd" stroke="none"/>
      <path d="M230.35 99.3 Q230.2 95.65 228.7 87.55 227.3 80.05 227.35 75.6 L224.1 61.55 228.15 70.3 Q229.35 73.2 230.45 77.0 L232.2 83.85 Q233.85 90.5 233.85 98.6 233.85 106.5 232.35 113.65 L232.35 113.7 231.9 115.55 Q232.0 114.6 231.7 113.55 L231.2 111.7 Q230.75 108.95 230.55 105.5 L230.35 99.3" fill="#5e3f19" fill-rule="evenodd" stroke="none"/>
      <path d="M240.6 98.55 L241.0 105.5 Q241.05 110.5 239.5 111.95 237.05 108.2 237.05 98.85 237.05 89.65 239.35 86.1 L239.35 85.6 Q240.6 88.15 240.75 92.0 L240.6 98.55" fill="#5e3f19" fill-rule="evenodd" stroke="none"/>
      <path d="M225.9 134.5 L225.25 124.85 Q225.15 118.9 226.35 115.6 L227.35 113.1 Q227.3 114.0 228.9 125.05 229.75 135.5 225.9 134.5" fill="#5e3f19" fill-rule="evenodd" stroke="none"/>
      <path d="M214.1 102.65 Q214.0 97.35 215.35 94.6 L214.7 111.6 Q214.15 105.7 214.1 102.65" fill="#5e3f19" fill-rule="evenodd" stroke="none"/>
      <path d="M214.85 114.5 L214.75 119.6 Q214.7 122.75 214.8 124.7 214.9 127.65 215.65 134.35 216.3 140.5 216.35 143.95 216.45 154.25 215.75 161.95 214.8 171.9 212.4 179.5 L211.55 168.65 Q211.1 162.25 211.3 157.75 212.25 146.45 212.35 140.7 L212.5 131.25 Q212.85 125.8 214.35 122.1 L214.7 111.6 214.85 114.5" fill="#5e3f19" fill-rule="evenodd" stroke="none"/>
      <path d="M217.35 150.35 Q217.15 143.0 218.35 138.6 L219.35 132.6 Q219.05 135.55 219.75 140.5 L220.75 148.35 Q221.3 158.55 220.35 168.1 L220.15 173.3 Q219.9 176.95 218.9 178.0 L218.4 176.8 Q217.65 173.95 217.7 169.6 L217.85 162.35 217.35 150.35" fill="#5e3f19" fill-rule="evenodd" stroke="none"/>
      <path d="M198.3 177.7 L198.35 175.1 199.35 174.1 Q198.65 175.5 198.3 177.7" fill="#5e3f19" fill-rule="evenodd" stroke="none"/>
      <path d="M195.05 200.3 Q197.6 191.5 198.15 182.3 L198.35 186.55 198.25 190.6 197.7 193.5 Q197.35 195.25 197.35 196.6 197.3 203.35 195.2 212.2 194.4 215.75 193.45 224.55 192.15 232.3 188.85 235.4 189.45 233.15 189.2 228.15 188.95 222.95 189.45 220.6 190.35 216.45 192.1 210.45 L195.05 200.3" fill="#5e3f19" fill-rule="evenodd" stroke="none"/>
      <path d="M190.0 147.0 L190.35 146.65 189.85 147.1 193.85 132.1 Q191.85 150.3 191.85 160.4 191.75 178.95 184.55 187.2 186.2 183.1 186.4 177.25 L186.15 166.75 Q185.6 153.35 190.0 147.0" fill="#5e3f19" fill-rule="evenodd" stroke="none"/>
      <path d="M186.5 243.6 L186.5 248.65 186.45 253.1 Q185.9 257.9 184.3 261.7 183.1 264.7 180.6 268.9 L179.4 269.4 179.25 268.7 Q177.1 271.35 176.85 274.6 L176.95 274.6 176.35 275.5 Q174.75 277.85 173.1 281.7 L170.25 288.05 Q168.65 288.05 168.2 286.85 167.85 285.95 168.25 284.6 L166.8 286.85 164.6 289.05 Q163.1 290.8 161.1 295.6 159.2 300.2 157.75 301.65 158.1 300.3 159.25 297.85 L160.75 294.0 161.05 291.75 164.35 288.5 167.35 285.15 Q168.9 283.15 169.15 280.15 L169.35 279.9 170.9 276.9 172.3 273.65 174.45 269.65 176.45 265.6 176.6 265.15 Q179.75 262.0 181.15 260.0 183.2 257.05 183.15 254.6 L183.85 253.65 Q184.55 252.45 184.95 248.5 185.3 244.9 186.5 243.6" fill="#5e3f19" fill-rule="evenodd" stroke="none"/>
      <path d="M187.85 239.6 L188.35 242.6 Q187.2 242.9 186.5 243.6 186.75 240.45 187.85 239.6" fill="#5e3f19" fill-rule="evenodd" stroke="none"/>
      <path d="M178.3 259.45 Q179.0 258.2 180.65 256.85 L183.15 254.6 Q183.2 257.05 181.15 260.0 179.75 262.0 176.6 265.15 L177.3 262.25 Q177.75 260.5 178.3 259.45" fill="#5e3f19" fill-rule="evenodd" stroke="none"/>
      <path d="M167.35 285.15 L164.35 288.5 161.05 291.75 Q161.25 289.55 161.75 288.6 162.65 286.85 165.3 284.35 L169.15 280.15 Q168.9 283.15 167.35 285.15" fill="#5e3f19" fill-rule="evenodd" stroke="none"/>
      <path d="M179.25 268.7 L179.4 269.4 180.6 268.9 176.95 274.6 176.85 274.6 Q177.1 271.35 179.25 268.7" fill="#5e3f19" fill-rule="evenodd" stroke="none"/>
      <path d="M196.85 246.1 L195.55 247.35 Q196.7 243.15 197.3 239.45 L196.85 246.1" fill="#5e3f19" fill-rule="evenodd" stroke="none"/>
      <path d="M193.5 249.65 L195.55 247.35 191.85 259.9 Q191.2 262.35 189.85 268.85 188.2 274.4 184.85 276.1 184.85 274.35 186.4 270.95 188.05 267.25 188.25 265.5 L188.45 263.85 Q192.65 255.6 193.5 249.65" fill="#5e3f19" fill-rule="evenodd" stroke="none"/>
      <path d="M188.45 263.85 Q189.1 259.1 190.0 256.2 191.2 252.6 193.5 249.65 192.65 255.6 188.45 263.85" fill="#5e3f19" fill-rule="evenodd" stroke="none"/>
      <path d="M181.5 301.5 Q183.1 299.15 183.55 296.05 183.8 294.45 183.85 290.15 L182.55 295.7 Q181.55 298.6 179.95 300.6 L177.3 304.3 174.5 307.9 170.7 310.95 Q168.25 312.7 167.25 314.0 168.45 311.95 172.65 307.1 176.3 302.8 177.45 300.1 179.0 295.2 180.1 292.25 182.2 286.8 184.6 285.7 185.1 285.5 189.3 286.65 192.6 287.6 192.85 285.3 192.75 289.65 188.55 294.1 183.45 298.85 181.5 301.5" fill="#5e3f19" fill-rule="evenodd" stroke="none"/>
      <path d="M174.35 289.1 Q173.25 290.75 171.15 295.15 169.35 298.95 167.6 301.05 L160.85 309.0 160.8 308.65 159.45 310.5 156.3 313.5 Q156.75 311.35 158.65 308.7 L161.65 304.2 163.8 298.8 Q165.05 295.5 166.35 293.55 L168.2 291.15 169.85 288.6 174.35 289.1" fill="#5e3f19" fill-rule="evenodd" stroke="none"/>
      <path d="M159.45 310.5 L160.8 308.65 160.85 309.0 159.45 310.5" fill="#5e3f19" fill-rule="evenodd" stroke="none"/>
      <path d="M159.55 257.6 Q159.2 258.65 157.85 260.4 156.3 262.4 155.9 263.2 L153.6 267.7 151.25 272.05 149.9 275.25 Q149.15 277.0 147.85 278.2 145.3 280.6 142.75 282.25 138.85 284.75 137.05 283.75 L137.4 282.75 137.8 281.75 131.2 286.4 Q127.25 289.05 124.25 290.0 L120.1 290.75 124.65 287.65 129.35 284.55 136.75 280.75 Q141.2 278.55 143.75 276.45 L142.55 276.6 Q145.6 274.8 147.2 272.5 L148.7 269.55 151.8 265.35 Q153.95 262.25 155.25 260.7 L159.55 257.6" fill="#5e3f19" fill-rule="evenodd" stroke="none"/>
      <path d="M145.95 273.0 L148.65 269.65 147.2 272.5 Q145.6 274.8 142.55 276.6 L142.0 276.7 142.85 276.05 145.95 273.0" fill="#5e3f19" fill-rule="evenodd" stroke="none"/>
      <path d="M155.25 260.7 Q157.75 257.7 159.7 256.65 L159.55 257.6 155.25 260.7" fill="#5e3f19" fill-rule="evenodd" stroke="none"/>
      <path d="M131.45 271.9 Q129.6 271.85 125.7 273.65 121.8 275.5 119.85 275.45 L119.85 273.8 Q119.7 272.65 119.85 272.15 113.8 275.9 110.2 276.6 L107.1 276.85 103.95 276.95 Q105.7 276.25 111.05 273.2 115.35 270.7 118.25 270.15 L121.85 269.65 125.4 268.8 132.55 265.25 Q136.9 263.0 139.85 262.55 140.8 262.4 143.2 262.5 L146.45 262.2 Q145.2 263.75 142.35 264.6 138.1 265.95 137.5 266.25 135.4 267.3 134.15 268.55 L131.45 271.9" fill="#5e3f19" fill-rule="evenodd" stroke="none"/>
      <path d="M215.05 205.45 L214.8 201.6 214.35 195.7 Q214.65 190.85 215.45 185.5 216.8 188.75 218.8 198.15 219.25 200.4 219.05 206.45 218.8 211.9 219.7 214.4 220.7 211.35 220.85 208.5 220.85 209.8 221.3 211.4 L222.35 215.15 Q222.9 217.75 223.0 221.9 223.1 226.9 223.3 228.6 223.65 231.3 225.25 233.85 L228.35 238.55 Q231.55 244.25 233.4 251.5 235.85 260.85 233.35 265.0 232.25 263.95 232.25 261.75 L232.15 258.15 231.1 255.1 Q230.15 252.6 229.8 252.25 229.2 251.7 227.65 251.5 226.15 251.3 225.8 250.9 225.3 250.3 225.2 248.85 225.1 247.1 224.85 246.6 224.3 245.35 223.15 244.15 L220.95 242.15 Q219.65 238.35 219.3 236.2 L218.35 239.2 Q216.85 236.65 216.8 232.8 L217.25 226.05 Q217.5 223.25 216.95 220.45 L215.7 214.95 Q215.15 212.8 214.7 209.5 L214.8 209.25 Q215.1 207.75 215.05 205.45" fill="#5e3f19" fill-rule="evenodd" stroke="none"/>
      <path d="M218.35 239.2 L219.3 236.2 Q219.65 238.35 220.95 242.15 L218.65 239.7 218.35 239.2" fill="#5e3f19" fill-rule="evenodd" stroke="none"/>
      <path d="M214.35 195.7 L214.8 201.6 215.05 205.45 Q215.1 207.75 214.8 209.25 L214.7 209.5 Q213.95 203.25 214.35 195.7" fill="#5e3f19" fill-rule="evenodd" stroke="none"/>
      <path d="M242.35 270.6 L242.85 270.1 Q242.8 277.05 240.0 284.0 237.25 290.9 232.35 296.35 L232.55 295.3 231.95 295.25 232.0 295.15 Q233.35 293.35 234.25 291.15 L235.7 287.15 237.7 284.45 Q239.7 281.7 240.75 277.75 L242.35 270.6" fill="#5e3f19" fill-rule="evenodd" stroke="none"/>
      <path d="M234.25 291.15 Q233.35 293.35 232.0 295.15 232.65 291.35 235.7 287.15 L234.25 291.15" fill="#5e3f19" fill-rule="evenodd" stroke="none"/>
      <path d="M280.85 282.6 Q281.95 284.5 283.1 285.35 L283.35 284.45 Q287.0 287.25 295.6 292.45 303.0 297.35 305.65 302.05 303.3 303.35 299.9 301.0 299.1 300.45 295.0 296.7 L286.5 290.6 Q280.95 286.4 280.85 282.6" fill="#5e3f19" fill-rule="evenodd" stroke="none"/>
      <path d="M280.85 282.6 L280.8 282.3 283.35 284.45 283.1 285.35 Q281.95 284.5 280.85 282.6" fill="#5e3f19" fill-rule="evenodd" stroke="none"/>
      <path d="M280.35 274.8 Q282.35 278.0 288.7 282.65 295.8 287.8 297.35 289.6 L296.85 289.1 287.9 282.85 Q282.55 278.65 280.35 274.8" fill="#5e3f19" fill-rule="evenodd" stroke="none"/>
      <path d="M296.35 284.1 L294.85 283.45 294.75 282.2 295.35 282.6 296.35 284.1" fill="#5e3f19" fill-rule="evenodd" stroke="none"/>
      <path d="M294.75 282.2 L289.8 278.95 Q287.15 276.85 286.0 274.5 288.7 275.25 291.3 277.3 294.25 279.7 294.75 282.2" fill="#5e3f19" fill-rule="evenodd" stroke="none"/>
      <path d="M310.1 302.8 Q312.2 301.95 316.05 303.15 318.6 303.9 319.9 304.9 L322.7 309.05 Q320.75 308.65 319.05 307.8 L316.8 306.6 313.3 304.85 Q311.2 303.75 310.1 302.8" fill="#5e3f19" fill-rule="evenodd" stroke="none"/>
      <path d="M288.5 303.8 L289.8 304.15 Q291.85 305.05 291.55 306.95 291.35 308.4 289.95 309.85 287.2 312.75 280.65 314.15 L270.25 315.6 262.65 316.8 255.0 317.5 Q257.15 316.05 258.75 315.45 261.65 314.6 268.8 313.95 275.35 313.35 278.55 312.1 283.7 310.15 285.25 308.5 L286.2 306.1 288.5 303.8" fill="#5e3f19" fill-rule="evenodd" stroke="none"/>
      <path d="M286.2 306.1 Q286.9 303.7 288.5 303.8 L286.2 306.1" fill="#5e3f19" fill-rule="evenodd" stroke="none"/>
      <path d="M237.6 138.75 L237.2 140.3 237.3 131.05 237.5 133.15 Q237.85 137.3 237.6 138.75" fill="#5e3f19" fill-rule="evenodd" stroke="none"/>
      <path d="M233.85 145.8 L235.6 143.2 Q236.75 141.6 237.2 140.3 L236.8 161.35 Q236.65 173.65 236.85 182.4 236.05 180.05 236.2 175.9 L236.25 169.25 Q236.0 166.95 234.95 163.4 L233.2 157.5 Q231.45 150.45 233.85 145.8" fill="#5e3f19" fill-rule="evenodd" stroke="none"/>
      <path d="M244.9 171.55 L242.8 169.5 Q240.95 165.1 240.75 161.95 240.55 157.95 242.75 154.2 244.8 157.15 245.15 162.45 245.35 165.5 244.9 171.55" fill="#5e3f19" fill-rule="evenodd" stroke="none"/>
      <path d="M241.85 153.1 L243.85 152.6 242.75 154.2 241.85 153.1" fill="#5e3f19" fill-rule="evenodd" stroke="none"/>
      <path d="M244.9 171.55 L244.75 173.75 242.8 169.5 244.9 171.55" fill="#5e3f19" fill-rule="evenodd" stroke="none"/>
      <path d="M256.35 186.1 L256.25 187.1 253.6 183.3 Q250.95 178.0 250.1 172.95 249.1 166.85 251.35 163.6 L253.85 167.1 Q255.35 169.2 256.1 173.8 256.0 180.7 256.35 186.1" fill="#5e3f19" fill-rule="evenodd" stroke="none"/>
      <path d="M256.25 187.1 L256.2 187.5 Q255.0 186.0 253.6 183.3 L256.25 187.1" fill="#5e3f19" fill-rule="evenodd" stroke="none"/>
      <path d="M256.35 186.1 Q256.0 180.7 256.1 173.8 257.0 179.7 256.35 186.1" fill="#5e3f19" fill-rule="evenodd" stroke="none"/>
      <path d="M237.3 131.05 Q237.15 127.25 238.05 124.55 240.4 125.9 240.4 131.6 240.4 135.85 239.35 140.0 L239.35 140.6 Q240.0 141.0 239.75 141.3 L239.1 141.55 237.5 133.15 237.35 130.2 237.3 131.05" fill="#5e3f19" fill-rule="evenodd" stroke="none"/>
      <path d="M236.95 201.1 L239.0 205.0 Q239.8 206.8 239.85 209.5 L239.8 217.3 Q239.65 221.8 239.15 225.0 237.1 225.3 234.9 224.95 234.75 222.75 234.95 219.9 L235.45 214.9 Q235.7 212.2 233.85 207.5 232.0 202.85 232.35 199.95 233.05 199.35 233.85 200.1 L233.35 189.1 234.9 195.2 Q235.85 198.85 236.95 201.1" fill="#4d330d" fill-rule="evenodd" stroke="none"/>
      <path d="M235.35 233.6 L238.35 234.1 237.05 234.1 237.95 238.9 Q238.35 242.6 236.45 242.5 234.7 242.45 234.5 238.6 234.35 234.95 235.35 233.6" fill="#4d330d" fill-rule="evenodd" stroke="none"/>
      <path d="M257.85 210.7 Q258.55 212.1 258.7 214.8 258.85 217.75 259.25 218.95 259.8 220.75 261.9 224.5 263.8 227.9 264.35 230.25 266.8 240.75 266.85 249.15 259.1 248.1 258.35 231.4 L257.15 221.0 Q256.5 214.75 257.85 210.7" fill="#4d330d" fill-rule="evenodd" stroke="none"/>
      <path d="M270.85 258.1 L270.85 268.85 270.05 268.25 Q267.3 266.05 268.25 261.85 269.6 255.9 269.35 254.6 L270.85 258.1" fill="#4d330d" fill-rule="evenodd" stroke="none"/>
      <path d="M261.85 170.1 Q260.95 171.95 263.3 176.55 266.15 182.1 266.35 183.45 L266.55 187.8 266.3 192.2 Q261.5 192.75 260.45 182.2 260.1 178.65 260.35 168.6 L261.85 170.1" fill="#4d330d" fill-rule="evenodd" stroke="none"/>
      <path d="M251.85 125.1 Q253.35 127.6 252.8 134.55 252.2 141.7 249.9 143.05 247.75 139.55 247.8 133.4 247.85 127.4 249.85 123.6 L251.85 125.1" fill="#4d330d" fill-rule="evenodd" stroke="none"/>
      <path d="M260.35 107.6 Q260.35 112.5 261.25 124.35 262.05 135.0 261.8 141.05 261.55 147.55 261.1 149.45 259.85 154.6 256.0 153.05 255.6 151.75 256.45 150.6 L257.8 148.45 258.0 145.45 257.85 142.45 257.85 126.6 260.35 107.6" fill="#4d330d" fill-rule="evenodd" stroke="none"/>
      <path d="M250.3 101.5 L250.1 94.55 Q249.95 89.15 250.75 87.25 L250.85 88.4 250.35 89.6 250.45 104.6 Q250.0 118.45 247.35 117.25 247.0 114.2 248.55 109.35 250.2 103.85 250.3 101.5" fill="#4d330d" fill-rule="evenodd" stroke="none"/>
      <path d="M250.75 87.25 Q251.15 86.15 251.85 86.1 L250.85 88.4 250.75 87.25" fill="#4d330d" fill-rule="evenodd" stroke="none"/>
      <path d="M238.3 47.2 L241.9 51.8 Q243.6 54.25 243.85 57.45 244.1 60.35 243.3 67.2 L242.35 75.1 243.85 79.1 Q241.15 79.3 241.0 75.65 L241.3 69.95 Q241.15 66.5 239.65 58.65 238.2 51.4 238.3 47.2" fill="#4d330d" fill-rule="evenodd" stroke="none"/>
      <path d="M249.0 55.65 Q248.8 49.15 248.35 46.3 250.25 56.7 253.35 63.75 254.65 66.75 254.95 68.9 255.35 72.5 252.6 72.55 L252.0 71.35 250.35 65.6 Q249.25 62.05 249.0 55.65" fill="#4d330d" fill-rule="evenodd" stroke="none"/>
      <path d="M252.6 72.55 L252.35 72.6 252.0 71.35 252.6 72.55" fill="#4d330d" fill-rule="evenodd" stroke="none"/>
      <path d="M316.25 254.05 Q314.9 253.55 312.15 251.45 309.4 249.3 308.05 247.65 L307.7 246.9 Q308.55 247.4 312.15 247.85 L316.85 248.45 317.0 248.5 317.25 248.55 Q318.75 249.25 320.05 250.45 321.5 251.75 322.1 253.2 318.15 251.55 316.85 252.35 L318.95 254.15 316.25 254.05" fill="#4d330d" fill-rule="evenodd" stroke="none"/>
      <path d="M320.9 254.15 Q320.25 254.0 318.95 254.15 L316.85 252.35 Q318.15 251.55 322.1 253.2 322.55 254.4 322.5 255.45 321.85 254.4 320.9 254.15" fill="#4d330d" fill-rule="evenodd" stroke="none"/>
      <path d="M307.35 246.6 L307.7 246.9 308.05 247.65 307.35 246.6" fill="#4d330d" fill-rule="evenodd" stroke="none"/>
      <path d="M326.2 265.85 L324.4 265.35 326.5 265.7 332.35 267.2 326.2 265.85" fill="#4d330d" fill-rule="evenodd" stroke="none"/>
      <path d="M293.85 230.6 L294.85 231.8 Q292.85 232.85 290.75 234.2 287.85 230.95 286.1 226.65 284.3 222.2 285.1 220.1 286.9 221.1 289.85 224.9 L293.85 230.6" fill="#4d330d" fill-rule="evenodd" stroke="none"/>
      <path d="M295.4 237.45 Q293.2 236.8 290.75 234.2 292.85 232.85 294.85 231.8 L295.35 232.7 295.35 234.1 297.05 237.15 296.8 237.5 295.4 237.45" fill="#4d330d" fill-rule="evenodd" stroke="none"/>
      <path d="M297.05 237.15 L297.3 237.5 296.8 237.5 297.05 237.15" fill="#4d330d" fill-rule="evenodd" stroke="none"/>
      <path d="M296.8 237.5 L296.65 237.65 295.4 237.45 296.8 237.5" fill="#4d330d" fill-rule="evenodd" stroke="none"/>
      <path d="M207.75 24.3 Q208.85 28.05 212.6 29.6 L214.9 30.35 Q216.2 30.75 217.0 31.3 L219.1 33.25 Q220.15 34.15 221.75 34.25 224.2 34.4 225.4 32.35 227.1 29.45 228.0 28.9 228.6 29.75 229.55 32.7 230.3 35.1 231.65 35.9 233.0 36.75 236.35 37.25 239.7 37.7 241.4 37.25 244.65 36.4 244.85 32.05 245.1 26.45 245.8 25.35 246.9 26.95 247.95 30.6 L249.65 36.25 251.25 39.65 Q252.1 41.9 251.0 42.85 249.75 43.9 245.4 43.55 L239.3 42.9 232.75 42.7 Q230.45 43.25 229.3 47.15 229.05 45.9 227.8 45.2 L225.3 45.05 Q224.25 45.55 224.05 47.2 223.8 49.05 223.25 49.5 221.25 51.2 216.95 47.4 211.8 42.8 210.65 42.6 209.7 42.4 208.3 42.6 L206.0 42.9 202.55 42.45 199.35 42.2 Q198.55 42.4 197.3 43.8 L195.35 45.5 193.05 45.95 190.65 45.9 186.0 41.25 Q186.3 37.3 187.0 34.65 187.3 37.95 192.05 38.75 196.55 39.5 199.0 37.5 200.75 36.1 201.5 32.7 L202.3 27.15 Q204.4 15.6 204.65 0.0 L206.65 16.7 207.75 24.3" fill="#4d330d" fill-rule="evenodd" stroke="none"/>
      <path d="M223.05 37.45 Q219.4 36.5 219.75 33.3 222.4 36.0 224.8 32.95 226.75 30.45 227.0 27.25 L228.35 19.9 Q228.35 22.05 229.2 27.95 229.7 33.3 228.25 35.8 226.7 38.4 223.05 37.45" fill="#422c06" fill-rule="evenodd" stroke="none"/>
      <path d="M246.1 28.1 Q248.05 35.45 252.65 36.55 L254.35 36.75 256.0 36.9 257.35 37.7 258.95 37.85 Q259.85 37.35 260.3 34.4 260.8 31.3 261.6 30.6 261.9 33.1 263.45 35.7 264.35 37.25 266.55 40.0 267.8 41.5 267.9 41.95 268.05 42.9 266.35 43.85 264.9 44.7 261.6 45.0 L256.55 45.25 248.45 45.35 240.4 45.55 Q237.45 45.8 236.7 48.45 235.7 51.95 234.35 52.9 L231.65 55.6 230.2 51.0 Q229.35 48.15 229.3 46.25 229.3 44.05 230.15 40.75 L231.4 35.25 Q232.3 36.85 234.45 37.35 L238.4 37.6 Q240.7 37.5 241.9 36.55 243.2 35.55 243.65 33.25 244.25 30.3 244.45 25.0 244.6 19.15 245.0 16.7 244.7 22.8 246.1 28.1" fill="#422c06" fill-rule="evenodd" stroke="none"/>
      <path d="M191.35 55.25 L185.35 50.9 Q185.6 48.9 185.5 44.6 185.4 40.35 185.65 38.25 L186.5 32.7 Q186.95 29.6 187.0 27.3 187.05 31.45 187.8 33.7 189.0 37.25 192.25 38.25 195.5 39.3 198.65 37.5 202.05 35.6 201.3 32.0 202.7 36.15 201.0 44.9 L200.5 48.15 Q200.15 50.15 199.6 51.35 198.35 54.0 196.2 54.75 L191.35 55.25" fill="#5e3f19" fill-rule="evenodd" stroke="none"/>
      <path d="M260.4 33.1 L261.0 27.3 Q262.15 32.1 263.25 34.6 265.35 39.4 268.25 39.65 L268.35 47.9 268.4 50.85 Q268.3 52.6 267.3 53.4 266.5 54.1 264.25 53.95 262.1 53.8 261.35 54.6 L251.0 49.25 Q250.4 47.95 250.65 45.3 250.95 42.25 250.65 41.15 L249.3 38.0 Q248.45 36.1 248.7 34.35 L253.1 36.4 Q256.0 37.65 257.65 37.25 260.0 36.7 260.4 33.1" fill="#35240b" fill-rule="evenodd" stroke="none"/>
      <path d="M244.65 26.9 L245.0 19.6 Q245.0 22.4 245.5 28.45 245.8 33.95 245.0 37.25 244.2 40.55 240.2 40.3 236.45 40.0 234.45 37.3 239.85 39.65 242.6 35.9 244.85 32.8 244.65 26.9" fill="#35240b" fill-rule="evenodd" stroke="none"/>
      <path d="M209.35 29.6 L211.35 31.6 Q213.05 33.85 212.15 40.2 211.25 46.15 209.45 48.4 209.0 47.4 208.95 45.85 L209.05 43.1 209.35 29.6" fill="#422c06" fill-rule="evenodd" stroke="none"/>
      <path d="M204.65 1.6 L204.65 5.25 205.2 7.2 Q206.25 10.25 206.35 11.6 206.55 15.6 206.0 21.35 205.25 29.0 204.5 31.65 202.6 38.05 198.1 38.25 201.2 35.35 203.3 26.85 204.55 21.95 204.65 14.3 L204.65 5.25 Q204.3 3.85 204.35 2.9 L204.65 1.6" fill="#422c06" fill-rule="evenodd" stroke="none"/>
    </g>
    <radialGradient cx="0" cy="0" gradientTransform="matrix(0.2202, 0.0, 0.0, -0.0663, 242.55, 275.9)" gradientUnits="userSpaceOnUse" id="gradient0" r="819.2" spreadMethod="pad">
      <stop offset="0.0" stop-color="#000000" stop-opacity="0.6862745"/>
      <stop offset="1.0" stop-color="#000000" stop-opacity="0.0"/>
    </radialGradient>
    <radialGradient cx="0" cy="0" gradientTransform="matrix(0.2083, 0.0, 0.0, -0.0724, 233.3, 278.25)" gradientUnits="userSpaceOnUse" id="gradient1" r="819.2" spreadMethod="pad">
      <stop offset="0.0" stop-color="#000000" stop-opacity="0.4"/>
      <stop offset="1.0" stop-color="#000000" stop-opacity="0.09803922"/>
    </radialGradient>
  </defs>
</svg>
