<?xml version="1.0" encoding="UTF-8" standalone="no"?>
<svg xmlns:xlink="http://www.w3.org/1999/xlink" height="109.85px" width="227.5px" xmlns="http://www.w3.org/2000/svg">
  <g transform="matrix(1.0, 0.0, 0.0, 1.0, 0.0, 0.0)">
    <use height="5.0" transform="matrix(1.0, 0.0, 0.0, 1.0, 36.3, 123.6)" width="13.5" xlink:href="#sprite0"/>
    <use height="5.0" transform="matrix(1.0, 0.0, 0.0, 1.0, 178.05, 124.85)" width="13.5" xlink:href="#sprite1"/>
    <use height="107.95" transform="matrix(1.0, 0.0, 0.0, 1.0, 0.0, 20.1)" width="227.5" xlink:href="#shape1"/>
    <use height="77.8" transform="matrix(1.0, 0.0, 0.0, 1.0, 13.5, 26.2)" width="200.5" xlink:href="#sprite2"/>
    <use height="64.45" transform="matrix(1.0, 0.0, 0.0, 1.0, 0.0, 20.35)" width="190.55" xlink:href="#shape3"/>
    <use height="8.0" transform="matrix(1.0, 0.0, 0.0, 1.0, 40.4, 72.15)" width="45.85" xlink:href="#sprite3"/>
    <use height="34.1" transform="matrix(1.0, 0.0, 0.0, 1.0, 42.65, 44.85)" width="40.4" xlink:href="#shape5"/>
    <use height="25.85" transform="matrix(1.0, 0.0, 0.0, 1.0, 48.35, 50.15)" width="34.35" xlink:href="#sprite4"/>
    <use height="35.15" transform="matrix(1.0, 0.0, 0.0, 1.0, 42.2, 45.15)" width="154.2" xlink:href="#shape7"/>
    <use height="8.0" transform="matrix(1.0, 0.0, 0.0, 1.0, 144.05, 72.15)" width="45.85" xlink:href="#sprite5"/>
    <use height="34.1" transform="matrix(1.0, 0.0, 0.0, 1.0, 147.25, 44.85)" width="40.4" xlink:href="#shape9"/>
    <use height="25.85" transform="matrix(1.0, 0.0, 0.0, 1.0, 147.6, 50.15)" width="34.35" xlink:href="#sprite6"/>
    <use height="59.05" transform="matrix(1.0, 0.0, 0.0, 1.0, 39.4, 20.0)" width="151.55" xlink:href="#shape11"/>
    <use height="20.0" transform="matrix(1.0, 0.0, 0.0, 1.0, 19.2, 105.95)" width="188.0" xlink:href="#sprite7"/>
    <use height="0.0" id="price_tag_pt" transform="matrix(1.0, 0.0, 0.0, 1.0, 113.7, 121.85)" width="0.0" xlink:href="#sprite9"/>
  </g>
  <defs>
    <g id="sprite0" transform="matrix(1.0, 0.0, 0.0, 1.0, 0.0, 0.0)">
      <use height="5.0" transform="matrix(1.0, 0.0, 0.0, 1.0, 0.0, 0.0)" width="13.5" xlink:href="#shape0"/>
    </g>
    <g id="shape0" transform="matrix(1.0, 0.0, 0.0, 1.0, 0.0, 0.0)">
      <path d="M13.5 2.5 Q13.5 3.55 11.55 4.3 9.55 5.0 6.75 5.0 3.95 5.0 2.0 4.3 0.0 3.55 0.0 2.5 0.0 1.5 2.0 0.75 4.0 0.0 6.75 0.0 9.55 0.0 11.55 0.75 13.5 1.5 13.5 2.5" fill="#141414" fill-rule="evenodd" stroke="none"/>
    </g>
    <g id="sprite1" transform="matrix(1.0, 0.0, 0.0, 1.0, 0.0, 0.0)">
      <use height="5.0" transform="matrix(1.0, 0.0, 0.0, 1.0, 0.0, 0.0)" width="13.5" xlink:href="#shape0"/>
    </g>
    <g id="shape1" transform="matrix(1.0, 0.0, 0.0, 1.0, 0.0, -20.1)">
      <path d="M34.8 108.05 L49.55 107.45 49.5 111.0 Q49.25 115.3 48.55 119.1 L46.8 127.1 43.8 127.85 40.45 127.75 39.55 127.1 37.4 120.9 Q36.1 117.05 35.3 112.15 L34.8 108.05" fill="#141414" fill-rule="evenodd" stroke="none"/>
      <path d="M37.55 108.05 L44.3 107.45 44.25 111.0 43.85 119.1 Q43.3 125.15 42.45 127.1 L39.7 127.1 38.75 120.9 Q38.15 117.05 37.8 112.15 L37.55 108.05" fill="#2b2b2b" fill-rule="evenodd" stroke="none"/>
      <path d="M39.3 108.05 L42.05 107.45 42.05 111.0 41.85 119.1 Q41.65 125.15 41.3 127.1 L40.2 127.1 39.8 120.9 39.4 112.15 39.3 108.05" fill="#4a4a4a" fill-rule="evenodd" stroke="none"/>
      <path d="M48.05 113.35 L47.55 115.85 35.8 115.85 34.8 113.35 48.05 113.35" fill="#141414" fill-rule="evenodd" stroke="none"/>
      <path d="M178.3 108.05 L193.05 107.45 193.0 111.0 Q192.75 115.3 192.05 119.1 L190.3 127.1 187.3 127.85 183.95 127.75 183.05 127.1 180.9 120.9 Q179.6 117.05 178.8 112.15 L178.3 108.05" fill="#141414" fill-rule="evenodd" stroke="none"/>
      <path d="M181.05 108.05 L187.8 107.45 187.75 111.0 187.35 119.1 Q186.8 125.15 185.95 127.1 L183.2 127.1 182.25 120.9 Q181.65 117.05 181.3 112.15 L181.05 108.05" fill="#2b2b2b" fill-rule="evenodd" stroke="none"/>
      <path d="M182.8 108.05 L185.55 107.45 185.55 111.0 185.35 119.1 Q185.15 125.15 184.8 127.1 L183.7 127.1 183.3 120.9 182.9 112.15 182.8 108.05" fill="#4a4a4a" fill-rule="evenodd" stroke="none"/>
      <path d="M191.55 113.35 L191.05 115.85 179.3 115.85 178.3 113.35 191.55 113.35" fill="#141414" fill-rule="evenodd" stroke="none"/>
      <path d="M22.45 96.65 L204.0 96.65 202.7 113.9 24.65 113.9 22.45 96.65" fill="#2b2b2b" fill-rule="evenodd" stroke="none"/>
      <path d="M22.45 96.65 L204.0 96.65 204.0 106.0 24.65 106.0 22.45 96.65" fill="#141414" fill-rule="evenodd" stroke="none"/>
      <path d="M179.0 73.8 L160.0 20.3 190.55 20.1 202.7 66.3 227.5 82.3 203.1 113.2 185.0 104.3 179.0 73.8" fill="#1e1e1e" fill-rule="evenodd" stroke="none"/>
      <path d="M44.7 74.65 L27.0 106.65 24.45 113.2 0.0 83.3 24.85 66.3 39.7 20.3 57.0 20.8 44.7 74.65" fill="#1e1e1e" fill-rule="evenodd" stroke="none"/>
      <path d="M183.75 106.55 L168.75 76.8 193.0 65.3 204.8 74.1 Q216.7 83.25 217.0 84.8 217.3 86.35 209.3 96.5 L201.25 106.3 183.75 106.55" fill="#141414" fill-rule="evenodd" stroke="none"/>
      <path d="M33.5 70.8 L45.0 23.3 182.5 24.3 195.5 70.8 33.5 70.8" fill="#141414" fill-rule="evenodd" stroke="none"/>
      <path d="M35.4 100.5 Q34.2 96.1 34.2 94.15 35.85 96.65 38.55 95.5 41.25 94.3 41.05 91.15 L41.35 92.5 42.4 96.45 Q42.95 98.15 44.9 99.15 45.75 99.6 48.85 100.45 51.55 101.2 52.6 102.1 L49.45 101.95 46.4 101.5 43.45 101.75 40.45 102.15 35.05 102.75 Q37.75 102.1 35.4 100.5" fill="#301212" fill-rule="evenodd" stroke="none"/>
      <path d="M24.25 106.15 L201.75 106.15 201.75 107.5 24.25 107.5 24.25 106.15" fill="#5e5a5b" fill-rule="evenodd" stroke="none"/>
      <path d="M30.55 107.5 L31.9 108.65 Q34.3 109.9 39.75 110.5 45.5 111.15 115.95 111.0 183.45 110.8 190.7 110.5 194.95 110.3 199.8 108.85 L203.75 107.5 202.7 113.9 25.5 113.5 Q24.9 113.9 24.4 110.4 L24.05 106.8 30.55 107.5" fill="#242424" fill-rule="evenodd" stroke="none"/>
      <path d="M24.75 110.45 L68.65 110.95 131.85 111.45 Q157.6 111.45 201.9 110.1 L203.1 113.2 24.65 113.2 24.75 110.45" fill="#1f1f1f" fill-rule="evenodd" stroke="none"/>
      <path d="M215.85 84.3 L193.5 66.0 202.7 66.3 227.5 82.3 215.85 84.3" fill="#404040" fill-rule="evenodd" stroke="none"/>
      <path d="M202.7 66.3 L205.85 70.3 Q209.25 74.55 210.5 75.8 212.5 77.8 216.0 82.8 L194.0 66.3 202.7 66.3" fill="#363636" fill-rule="evenodd" stroke="none"/>
      <path d="M202.7 66.3 Q203.0 67.8 202.0 69.3 201.4 70.25 202.0 72.0 L202.75 73.55 193.35 65.8 202.7 66.3" fill="#2b2b2b" fill-rule="evenodd" stroke="none"/>
      <path d="M226.0 81.1 L227.0 82.05 216.0 84.55 216.2 77.2 226.0 81.1" fill="#474747" fill-rule="evenodd" stroke="none"/>
      <path d="M227.2 81.65 L226.0 83.55 215.0 83.8 214.5 82.3 227.2 81.65" fill="#5e5a5b" fill-rule="evenodd" stroke="none"/>
      <path d="M216.0 84.8 L194.25 66.25 218.25 83.8 216.0 84.8" fill="#5e5a5b" fill-rule="evenodd" stroke="none"/>
      <path d="M34.5 65.3 L50.7 80.3 47.35 106.0 26.25 106.3 18.2 96.5 Q10.2 86.35 10.5 84.8 10.8 83.25 22.7 74.1 L34.5 65.3" fill="#141414" fill-rule="evenodd" stroke="none"/>
    </g>
    <g id="sprite2" transform="matrix(1.0, 0.0, 0.0, 1.0, 0.0, 0.0)">
      <use height="77.8" transform="matrix(1.0, 0.0, 0.0, 1.0, 0.0, 0.0)" width="200.5" xlink:href="#shape2"/>
    </g>
    <g id="shape2" transform="matrix(1.0, 0.0, 0.0, 1.0, 0.0, 0.0)">
      <path d="M165.5 47.6 L173.85 39.45 177.85 40.8 189.35 50.0 Q200.8 59.3 200.5 60.1 199.15 63.55 192.95 70.7 L187.0 77.1 183.0 76.65 165.5 47.6" fill="#6a2b29" fill-rule="evenodd" stroke="none"/>
      <path d="M191.0 57.6 Q192.25 59.8 188.0 62.4 L183.5 64.6 Q182.5 64.35 181.45 63.75 179.3 62.5 179.0 60.6 178.7 58.75 172.05 53.0 L165.5 47.6 174.5 42.6 182.0 48.8 Q189.75 55.4 191.0 57.6" fill="#5e2726" fill-rule="evenodd" stroke="none"/>
      <path d="M183.5 64.6 L186.9 63.3 Q190.4 61.65 191.0 60.1 191.65 58.55 196.15 59.15 L200.5 60.1 187.0 77.1 183.0 76.65 183.5 64.6" fill="#4a1e1d" fill-rule="evenodd" stroke="none"/>
      <path d="M182.4 69.6 L185.95 69.05 Q190.0 68.15 192.5 66.6 196.5 64.1 200.5 60.1 L187.0 77.1 183.0 76.65 182.4 69.6" fill="#301212" fill-rule="evenodd" stroke="none"/>
      <path d="M36.0 47.6 L18.5 76.65 14.5 77.1 8.6 70.7 Q2.4 63.55 1.0 60.1 0.7 59.3 12.15 50.0 17.9 45.3 23.7 40.8 L27.7 39.45 36.0 47.6" fill="#6a2b29" fill-rule="evenodd" stroke="none"/>
      <path d="M28.45 53.0 Q21.8 58.75 21.5 60.6 21.2 62.5 19.05 63.75 L17.0 64.6 Q14.65 63.75 12.5 62.4 8.25 59.8 9.5 57.6 10.75 55.4 18.5 48.8 L26.0 42.6 35.0 47.6 28.45 53.0" fill="#5e2726" fill-rule="evenodd" stroke="none"/>
      <path d="M17.0 64.6 L17.5 76.65 13.5 77.1 0.0 60.1 4.4 59.15 Q8.9 58.55 9.5 60.1 10.15 61.65 13.65 63.3 L17.0 64.6" fill="#4a1e1d" fill-rule="evenodd" stroke="none"/>
      <path d="M18.1 69.6 L17.5 76.65 13.5 77.1 0.0 60.1 2.5 62.4 Q5.5 65.05 8.0 66.6 10.5 68.15 14.55 69.05 L18.1 69.6" fill="#301212" fill-rule="evenodd" stroke="none"/>
      <path d="M17.5 76.3 Q16.3 70.95 16.3 66.3 16.3 63.35 25.3 55.55 29.8 51.65 34.3 48.3 L165.5 47.6 174.35 54.5 Q183.25 62.05 183.5 65.3 183.8 69.05 183.1 73.05 L182.3 76.3 17.5 76.3" fill="#4a1e1d" fill-rule="evenodd" stroke="none"/>
      <path d="M16.35 67.55 L16.3 66.3 Q16.3 63.35 25.3 55.55 29.8 51.65 34.3 48.3 L49.55 47.75 Q70.4 47.15 98.2 46.85 126.0 46.55 148.5 47.05 L165.5 47.6 174.35 54.5 Q183.25 62.05 183.5 65.3 L183.55 66.1 167.45 66.95 122.5 67.55 Q84.3 68.0 73.15 67.6 56.6 67.0 16.35 67.55" fill="#5e2726" fill-rule="evenodd" stroke="none"/>
      <path d="M16.35 67.55 L16.3 66.3 33.05 66.05 Q52.2 65.8 64.3 66.1 89.5 66.7 135.75 65.6 L183.5 64.6 183.55 66.1 Q156.15 66.8 133.2 66.8 L101.45 67.15 Q81.95 67.4 70.5 67.1 58.2 66.8 36.05 67.15 L16.35 67.55" fill="#8c3a35" fill-rule="evenodd" stroke="none"/>
      <path d="M39.5 50.1 L36.95 51.1 Q38.25 49.65 42.6 49.65 46.7 49.6 48.5 50.6 L46.5 51.45 Q45.2 51.95 44.65 52.5 L55.35 52.85 Q61.8 53.0 66.0 51.6 L57.4 51.5 Q61.2 49.65 67.15 49.4 70.5 49.2 77.3 49.65 84.85 50.1 102.65 50.1 L123.8 48.65 Q137.0 47.45 144.8 48.2 L143.8 50.0 Q147.1 51.55 155.2 50.75 162.9 50.05 166.3 52.2 165.5 54.95 167.75 56.25 169.0 56.95 171.8 57.7 171.75 60.7 167.8 60.95 L162.0 60.6 154.5 61.15 147.15 62.15 Q141.0 62.8 131.6 62.55 L116.05 62.1 94.85 61.95 73.8 62.65 61.2 63.1 48.55 63.1 36.3 64.4 Q28.45 65.2 24.6 63.15 26.3 59.85 30.5 55.25 32.35 53.2 35.05 52.05 L39.5 50.1" fill="#6a2b29" fill-rule="evenodd" stroke="none"/>
      <path d="M28.9 60.55 Q29.45 59.25 31.45 57.95 L34.45 56.15 Q41.25 51.6 46.05 53.6 L41.35 53.6 47.0 54.3 53.0 55.1 Q55.7 55.25 59.75 54.2 L66.4 52.5 Q68.3 52.1 70.85 52.45 L75.25 53.1 Q77.05 53.35 79.75 53.15 L84.45 52.75 Q88.25 52.45 97.15 52.85 105.3 53.2 109.85 52.6 121.75 51.05 131.75 52.6 134.85 53.05 144.6 52.45 152.85 51.95 157.15 53.5 156.45 53.45 155.6 53.9 L154.3 54.6 Q155.7 56.0 158.95 56.45 L164.05 57.1 Q150.5 59.7 136.0 59.6 L121.85 59.35 107.95 58.1 Q96.7 56.55 84.25 58.75 L72.3 59.7 60.3 59.6 44.6 60.3 Q34.8 60.9 28.9 60.55" fill="#74302c" fill-rule="evenodd" stroke="none"/>
      <path d="M17.5 76.3 Q16.95 73.75 16.55 70.65 18.7 71.75 23.2 71.5 L29.65 71.25 34.15 72.15 38.75 72.6 Q43.25 72.3 49.05 72.55 L59.25 73.1 Q66.35 73.55 80.9 72.5 95.4 71.45 102.55 71.95 110.3 72.5 122.45 72.1 L142.65 71.6 162.85 72.0 Q174.35 71.95 182.4 69.6 L183.55 69.3 Q183.3 73.35 182.3 76.3 L17.5 76.3" fill="#301212" fill-rule="evenodd" stroke="none"/>
      <path d="M11.2 74.6 L183.0 74.6 183.0 76.65 11.2 76.65 11.2 74.6" fill="#301212" fill-rule="evenodd" stroke="none"/>
      <path d="M21.9 58.95 L21.15 61.4 Q20.8 64.0 22.6 64.6 24.2 65.15 37.9 64.9 52.0 64.65 53.5 64.95 L65.75 65.75 Q50.0 65.55 45.7 65.95 41.45 66.35 28.45 66.35 L16.3 66.3 Q16.1 66.05 16.15 65.6 16.2 64.65 17.25 63.6 L21.9 58.95" fill="#4a1e1d" fill-rule="evenodd" stroke="none"/>
      <path d="M60.75 65.3 L73.3 64.8 Q86.65 64.3 90.9 64.3 97.7 64.3 124.7 64.95 L88.0 66.3 60.75 65.3" fill="#4a1e1d" fill-rule="evenodd" stroke="none"/>
      <path d="M16.5 66.1 L15.85 65.45 18.7 62.85 24.5 56.8 Q29.0 51.55 31.2 46.8 L73.25 46.2 61.05 46.7 Q44.35 47.55 41.85 48.8 35.15 52.15 25.15 59.45 L16.5 66.1" fill="#4d1c1b" fill-rule="evenodd" stroke="none"/>
      <path d="M139.35 44.05 L123.2 43.45 169.2 44.1 170.7 47.3 Q172.8 51.05 175.85 54.1 180.5 58.8 185.2 62.8 L183.85 63.45 Q180.2 60.45 175.2 56.8 165.2 49.5 158.5 46.1 156.0 44.85 139.35 44.05" fill="#4d1c1b" fill-rule="evenodd" stroke="none"/>
      <path d="M191.0 60.1 Q190.5 59.1 191.0 57.6 191.3 56.65 187.6 53.15 L183.85 49.8 188.6 53.8 Q193.6 57.8 194.85 57.8 L198.85 57.45 200.5 60.1 196.2 59.1 192.6 59.35 191.0 60.1" fill="#8c3a35" fill-rule="evenodd" stroke="none"/>
      <path d="M0.0 60.1 L0.2 58.8 2.35 58.7 6.5 58.1 Q8.2 57.7 11.5 54.55 L14.5 51.45 9.5 57.6 Q8.45 58.75 8.9 59.55 L9.5 60.1 4.2 59.8 0.0 60.1" fill="#8c3a35" fill-rule="evenodd" stroke="none"/>
      <path d="M154.75 46.3 L168.0 45.6 Q170.5 45.3 172.75 43.9 L172.25 44.4 Q170.25 46.55 171.5 48.1 L183.5 64.6 175.65 55.9 Q167.4 47.3 165.5 47.6 163.65 47.9 153.9 47.3 L144.5 46.6 154.75 46.3" fill="#4a1e1d" fill-rule="evenodd" stroke="none"/>
      <path d="M26.0 42.6 L27.75 43.9 Q30.0 45.3 32.5 45.6 L56.0 46.6 35.0 47.6 Q33.15 47.3 24.9 55.9 L17.0 64.6 22.25 57.3 Q27.75 49.65 29.0 48.1 30.25 46.55 28.25 44.4 L26.0 42.6" fill="#4a1e1d" fill-rule="evenodd" stroke="none"/>
      <path d="M95.0 46.1 L111.85 45.75 Q109.75 46.1 107.7 47.25 103.5 49.55 103.5 53.6 103.45 59.7 103.9 66.65 L100.45 66.6 99.5 51.6 Q99.3 49.15 97.1 47.4 L95.0 46.1" fill="#4d1c1b" fill-rule="evenodd" stroke="none"/>
      <path d="M100.45 66.6 L103.9 66.65 103.5 76.6 100.5 77.1 100.45 66.6" fill="#301212" fill-rule="evenodd" stroke="none"/>
      <path d="M39.5 48.05 L33.6 45.15 45.0 46.1 Q51.55 46.65 158.5 46.1 164.15 46.1 167.25 45.1 L168.4 44.7 163.25 48.2 136.35 47.15 Q108.9 46.3 106.2 47.45 103.5 48.6 102.2 51.2 L101.5 53.6 Q101.0 50.6 99.65 48.2 98.8 46.65 91.45 46.5 L79.0 46.6 56.65 47.35 39.5 48.05" fill="#301212" fill-rule="evenodd" stroke="none"/>
      <path d="M100.1 57.85 L100.8 65.15 Q101.05 67.8 100.5 77.1 99.85 72.45 99.1 69.5 98.65 67.65 96.7 66.35 L94.85 65.45 97.8 64.1 Q99.65 63.25 100.05 60.45 L100.1 57.85" fill="#4d1c1b" fill-rule="evenodd" stroke="none"/>
      <path d="M104.25 61.4 Q104.7 63.7 105.5 64.1 106.85 64.8 108.9 65.1 106.8 66.35 105.5 68.55 104.7 69.95 104.0 73.4 L103.5 76.6 102.6 72.35 Q101.7 67.85 101.9 66.65 102.1 65.5 103.05 62.2 L104.0 59.15 104.25 61.4" fill="#4d1c1b" fill-rule="evenodd" stroke="none"/>
      <path d="M101.85 47.8 L102.2 56.85 Q102.6 66.2 102.85 67.8 103.2 70.3 102.5 77.8 L100.5 77.1 Q100.2 69.1 100.45 66.6 L101.85 47.8" fill="#301212" fill-rule="evenodd" stroke="none"/>
      <path d="M96.3 67.75 L91.85 66.45 93.8 66.35 Q96.05 66.1 97.5 65.45 98.95 64.85 99.7 62.0 L100.15 59.3 100.8 65.15 Q100.95 66.6 98.65 67.35 L96.3 67.75" fill="#8c3a35" fill-rule="evenodd" stroke="none"/>
      <path d="M118.2 65.8 L119.2 67.1 108.2 67.45 Q106.1 67.85 105.25 64.35 L104.85 60.8 105.25 62.6 Q105.8 64.5 106.85 65.1 108.5 66.1 118.2 65.8" fill="#8c3a35" fill-rule="evenodd" stroke="none"/>
      <path d="M185.2 62.8 L186.3 65.35 Q187.4 68.05 187.2 69.1 186.85 70.8 187.0 77.1 L183.55 66.1 182.85 62.1 185.2 62.8" fill="#301212" fill-rule="evenodd" stroke="none"/>
      <path d="M19.5 62.1 L18.0 64.0 Q16.45 66.2 16.35 67.55 L15.55 76.7 14.65 70.9 Q13.9 64.95 14.5 64.1 15.15 63.3 17.4 62.6 L19.5 62.1" fill="#301212" fill-rule="evenodd" stroke="none"/>
      <path d="M32.45 5.1 L168.15 6.2 178.5 41.1 171.5 41.45 167.5 48.45 20.0 52.6 32.45 5.1" fill="#4d1c1b" fill-rule="evenodd" stroke="none"/>
      <path d="M33.5 1.1 L59.3 0.4 Q88.2 -0.2 103.5 0.1 128.0 0.6 167.2 0.45 L168.25 6.1 Q125.55 6.6 90.55 6.1 68.7 5.8 48.65 6.0 L33.0 6.3 33.5 1.1" fill="#74302c" fill-rule="evenodd" stroke="none"/>
      <path d="M36.2 6.45 L35.2 5.8 50.2 5.2 Q67.3 4.6 78.1 4.6 L110.5 4.85 140.2 5.1 Q153.85 5.1 166.2 4.45 L164.5 5.8 148.95 5.6 124.3 6.05 Q102.8 6.4 92.15 6.1 81.1 5.8 57.55 6.1 L36.2 6.45" fill="#8c3a35" fill-rule="evenodd" stroke="none"/>
      <path d="M68.9 2.3 Q62.1 1.8 53.05 2.3 L45.35 3.0 Q40.6 3.2 37.85 1.85 41.4 0.15 48.1 0.35 L58.7 0.95 71.9 0.8 85.15 0.6 161.95 0.6 Q162.65 0.9 163.0 1.55 161.5 2.55 158.95 2.7 L154.65 2.6 Q142.5 2.6 137.6 2.3 116.5 0.95 92.7 2.55 81.45 3.25 68.9 2.3" fill="#6a2b29" fill-rule="evenodd" stroke="none"/>
      <path d="M84.2 0.6 Q92.3 0.65 98.3 0.95 L101.25 1.35 104.05 1.95 Q105.5 2.2 107.65 2.0 L111.25 1.6 126.45 0.95 135.7 0.8 144.95 0.6 153.4 0.2 Q160.05 0.25 160.7 2.55 L150.05 2.0 139.25 2.3 123.0 2.95 Q119.65 3.4 114.45 3.05 L105.9 2.6 92.4 2.8 Q84.4 2.9 78.85 2.55 76.2 2.4 70.8 2.7 65.5 3.05 62.85 2.85 L57.9 2.45 53.0 2.3 47.65 3.15 Q44.0 3.55 42.85 1.95 43.5 1.3 44.65 1.1 L46.65 0.95 42.35 0.95 44.5 0.6 Q49.65 0.2 57.3 0.35 L70.1 0.6 84.2 0.6" fill="#823631" fill-rule="evenodd" stroke="none"/>
      <path d="M68.75 12.95 L68.65 13.6 Q70.55 12.1 71.9 11.65 L71.25 12.4 70.75 13.15 Q71.95 12.65 74.9 10.25 L78.65 7.2 Q75.7 10.15 74.2 12.65 71.6 17.0 74.4 18.55 L73.15 19.15 Q72.1 19.6 71.6 18.8 71.8 19.4 73.7 20.95 75.6 22.5 75.75 23.05 L71.75 21.8 Q68.6 20.6 67.85 20.6 67.2 20.6 65.45 21.7 L63.0 23.05 64.2 21.5 64.75 19.7 61.75 20.6 58.75 21.6 61.6 18.65 Q63.8 16.5 64.05 15.65 64.4 14.25 61.9 12.35 L58.25 9.85 64.45 12.35 64.5 11.45 64.55 10.45 Q67.9 13.1 68.75 12.95" fill="#3b1313" fill-rule="evenodd" stroke="none"/>
      <path d="M42.05 12.4 L41.5 11.15 42.7 11.95 44.05 12.5 43.95 13.15 45.5 12.3 47.95 11.15 47.35 12.45 50.85 11.4 Q52.05 10.95 54.4 10.05 L51.7 11.75 Q50.05 12.8 49.15 13.85 48.0 15.25 48.2 16.2 L48.7 18.5 47.55 17.5 Q47.15 18.9 48.2 20.35 L50.3 22.55 48.2 21.95 46.0 21.35 43.65 21.55 41.45 21.9 42.1 20.65 38.85 22.85 35.55 24.9 Q39.25 22.15 40.25 19.8 L38.7 20.4 Q40.8 18.6 40.4 17.05 40.2 16.3 38.35 14.1 L39.95 14.5 41.65 14.75 Q38.5 11.6 35.1 9.4 36.3 9.8 38.55 10.9 L42.05 12.4" fill="#3b1313" fill-rule="evenodd" stroke="none"/>
      <path d="M38.5 34.4 Q42.15 36.45 43.8 36.15 44.55 35.4 45.85 34.7 46.75 34.25 48.5 33.45 L47.7 34.75 46.75 36.0 Q47.6 35.35 50.35 34.1 L49.2 37.2 Q48.45 39.15 48.9 40.4 49.3 41.45 50.5 42.95 L52.7 45.1 Q49.1 43.8 47.55 42.85 L47.5 43.8 Q47.45 44.35 47.75 44.65 L45.25 43.7 42.8 42.65 Q40.2 43.85 38.3 45.45 L39.25 43.25 40.35 41.15 Q38.7 41.7 38.05 42.15 38.2 41.55 38.75 40.95 38.95 40.75 39.9 39.9 L38.05 38.85 36.45 37.5 38.85 37.85 35.8 34.7 Q33.5 32.45 33.25 31.35 34.5 31.95 38.5 34.4" fill="#3b1313" fill-rule="evenodd" stroke="none"/>
      <path d="M54.15 25.3 L54.1 25.55 55.1 23.95 Q55.7 23.05 56.5 22.65 L56.6 23.65 Q57.65 22.55 59.35 21.7 61.0 20.9 62.55 20.65 61.6 21.2 59.9 22.85 58.0 24.65 57.9 25.3 57.75 26.2 58.95 27.2 L60.85 28.65 58.5 28.45 Q61.25 30.7 62.3 32.25 L59.85 31.15 57.1 30.45 Q55.95 30.4 54.7 31.05 L52.15 32.2 52.85 30.8 Q49.25 33.6 47.45 34.1 L49.55 31.8 51.3 29.35 Q51.8 28.05 50.9 26.9 L49.5 24.9 Q50.85 25.3 51.75 25.8 51.3 24.85 50.05 23.5 L48.25 21.3 Q49.8 21.55 51.45 23.1 53.45 24.95 54.15 25.3" fill="#3b1313" fill-rule="evenodd" stroke="none"/>
      <path d="M61.3 34.45 L59.0 31.5 Q63.45 33.5 65.1 35.4 65.5 33.9 66.45 32.95 67.45 35.1 67.25 36.55 L68.2 36.8 Q70.6 34.4 74.95 32.7 71.95 35.45 70.85 36.9 68.9 39.45 71.3 41.0 L70.35 40.8 69.4 40.45 Q70.7 42.1 72.7 43.2 71.5 42.65 70.65 42.45 L68.55 42.35 66.55 43.3 Q66.5 42.55 66.6 42.2 L62.4 44.15 Q59.85 45.3 58.05 45.1 L60.45 44.05 Q61.85 43.3 62.35 42.5 L61.3 42.75 Q63.8 41.3 62.95 39.95 61.35 38.35 60.9 37.25 L63.3 37.65 Q62.75 36.25 61.3 34.45" fill="#3b1313" fill-rule="evenodd" stroke="none"/>
      <path d="M42.1 15.9 Q43.1 15.1 44.4 15.1 45.7 15.1 46.5 15.9 47.3 16.7 47.1 17.8 46.95 18.95 45.9 19.75 44.9 20.55 43.6 20.55 42.3 20.55 41.5 19.75 40.7 18.95 40.9 17.8 41.05 16.7 42.1 15.9" fill="#2e1010" fill-rule="evenodd" stroke="none"/>
      <path d="M41.95 17.8 Q42.1 17.0 42.75 16.45 43.45 15.9 44.3 15.9 45.15 15.9 45.65 16.45 46.15 17.0 46.05 17.8 45.95 18.6 45.25 19.15 44.55 19.7 43.7 19.7 42.85 19.7 42.35 19.15 41.85 18.6 41.95 17.8" fill="#171717" fill-rule="evenodd" stroke="none"/>
      <path d="M45.4 17.5 Q45.35 18.05 44.85 18.4 44.35 18.8 43.75 18.8 43.15 18.8 42.8 18.4 42.45 18.05 42.5 17.5 42.6 16.95 43.05 16.55 43.55 16.2 44.15 16.2 44.75 16.2 45.1 16.55 45.5 16.95 45.4 17.5" fill="#292121" fill-rule="evenodd" stroke="none"/>
      <path d="M44.15 17.0 Q44.05 17.5 43.45 17.5 42.85 17.5 42.95 17.0 43.05 16.45 43.6 16.45 44.25 16.45 44.15 17.0" fill="#524242" fill-rule="evenodd" stroke="none"/>
      <path d="M70.7 17.65 Q70.55 18.75 69.5 19.55 68.5 20.35 67.2 20.35 65.9 20.35 65.1 19.55 64.3 18.8 64.5 17.65 64.65 16.5 65.7 15.7 66.7 14.9 68.0 14.9 69.3 14.9 70.1 15.7 70.9 16.5 70.7 17.65" fill="#2e1010" fill-rule="evenodd" stroke="none"/>
      <path d="M69.65 17.6 Q69.5 18.4 68.85 18.95 68.15 19.5 67.3 19.5 66.45 19.5 65.95 18.95 65.45 18.4 65.55 17.6 65.65 16.8 66.35 16.25 67.05 15.7 67.9 15.7 68.75 15.7 69.25 16.25 69.75 16.8 69.65 17.6" fill="#171717" fill-rule="evenodd" stroke="none"/>
      <path d="M69.0 17.3 Q68.95 17.85 68.45 18.2 67.95 18.6 67.35 18.6 66.75 18.6 66.4 18.2 66.05 17.85 66.1 17.3 66.2 16.75 66.65 16.35 67.15 16.0 67.75 16.0 68.35 16.0 68.7 16.35 69.1 16.75 69.0 17.3" fill="#292121" fill-rule="evenodd" stroke="none"/>
      <path d="M67.7 16.8 Q67.7 17.35 67.05 17.35 66.45 17.35 66.55 16.8 66.65 16.3 67.2 16.3 67.8 16.3 67.7 16.8" fill="#524242" fill-rule="evenodd" stroke="none"/>
      <path d="M57.7 28.6 Q57.5 29.75 56.5 30.55 55.45 31.35 54.15 31.35 52.85 31.35 52.1 30.55 51.3 29.75 51.45 28.6 51.65 27.45 52.65 26.7 53.7 25.9 55.0 25.9 56.3 25.9 57.05 26.7 57.85 27.5 57.7 28.6" fill="#2e1010" fill-rule="evenodd" stroke="none"/>
      <path d="M56.6 28.6 Q56.5 29.4 55.8 29.95 55.15 30.5 54.3 30.5 53.45 30.5 52.95 29.95 52.45 29.4 52.55 28.6 52.65 27.8 53.35 27.25 54.0 26.7 54.85 26.7 55.7 26.7 56.2 27.25 56.7 27.8 56.6 28.6" fill="#171717" fill-rule="evenodd" stroke="none"/>
      <path d="M56.0 28.3 L55.45 29.2 Q54.95 29.6 54.35 29.6 53.75 29.6 53.4 29.2 53.05 28.85 53.1 28.3 53.2 27.75 53.65 27.35 54.15 27.0 54.75 27.0 55.35 27.0 55.7 27.35 56.1 27.75 56.0 28.3" fill="#292121" fill-rule="evenodd" stroke="none"/>
      <path d="M54.7 27.8 Q54.6 28.35 54.05 28.35 53.4 28.35 53.5 27.8 53.6 27.25 54.2 27.25 54.8 27.25 54.7 27.8" fill="#524242" fill-rule="evenodd" stroke="none"/>
      <path d="M41.65 39.2 Q41.8 38.1 42.85 37.3 43.85 36.5 45.15 36.5 46.45 36.5 47.25 37.3 48.05 38.1 47.85 39.2 47.7 40.35 46.65 41.15 45.65 41.95 44.35 41.95 43.05 41.95 42.25 41.15 41.45 40.35 41.65 39.2" fill="#2e1010" fill-rule="evenodd" stroke="none"/>
      <path d="M46.4 37.85 Q46.9 38.4 46.8 39.2 46.7 40.0 46.0 40.55 45.3 41.1 44.45 41.1 43.6 41.1 43.1 40.55 42.6 40.0 42.7 39.2 42.85 38.4 43.5 37.85 44.2 37.3 45.05 37.3 45.9 37.3 46.4 37.85" fill="#171717" fill-rule="evenodd" stroke="none"/>
      <path d="M45.85 37.95 Q46.25 38.35 46.15 38.9 46.1 39.45 45.6 39.8 L44.5 40.2 Q43.9 40.2 43.55 39.8 43.2 39.45 43.25 38.9 43.35 38.35 43.8 37.95 44.3 37.6 44.9 37.6 45.5 37.6 45.85 37.95" fill="#292121" fill-rule="evenodd" stroke="none"/>
      <path d="M44.9 38.4 Q44.8 38.9 44.2 38.9 43.6 38.9 43.7 38.4 43.8 37.85 44.35 37.85 44.9 37.85 44.9 38.4" fill="#524242" fill-rule="evenodd" stroke="none"/>
      <path d="M68.15 37.75 Q68.95 38.55 68.75 39.65 68.6 40.8 67.55 41.6 66.55 42.4 65.25 42.4 63.95 42.4 63.15 41.6 62.35 40.8 62.55 39.65 62.7 38.55 63.75 37.75 64.75 36.95 66.05 36.95 67.35 36.95 68.15 37.75" fill="#2e1010" fill-rule="evenodd" stroke="none"/>
      <path d="M67.3 38.3 Q67.8 38.85 67.7 39.65 67.6 40.45 66.9 41.0 66.2 41.55 65.35 41.55 64.5 41.55 64.0 41.0 63.5 40.45 63.6 39.65 63.75 38.85 64.4 38.3 65.1 37.75 65.95 37.75 66.8 37.75 67.3 38.3" fill="#171717" fill-rule="evenodd" stroke="none"/>
      <path d="M66.75 38.4 Q67.15 38.8 67.05 39.35 67.0 39.9 66.5 40.25 66.0 40.65 65.4 40.65 64.8 40.65 64.45 40.25 64.1 39.9 64.15 39.35 64.25 38.8 64.75 38.4 65.2 38.05 65.8 38.05 66.4 38.05 66.75 38.4" fill="#292121" fill-rule="evenodd" stroke="none"/>
      <path d="M64.6 38.85 Q64.7 38.3 65.25 38.3 65.9 38.3 65.8 38.85 65.7 39.35 65.1 39.35 64.5 39.35 64.6 38.85" fill="#524242" fill-rule="evenodd" stroke="none"/>
      <path d="M54.35 32.9 L54.85 33.7 Q54.95 33.05 55.4 32.55 L56.2 31.5 56.3 32.7 56.25 34.05 Q59.5 33.75 60.65 35.6 L58.9 36.25 56.9 36.25 Q56.55 37.75 57.65 39.3 58.7 40.75 60.3 41.3 L56.9 42.85 53.4 44.25 Q53.75 43.05 52.65 42.35 L50.8 41.0 Q51.75 40.05 51.45 39.5 51.2 39.0 49.8 39.1 L52.0 35.55 Q53.35 33.4 54.45 32.3 L54.35 32.9" fill="#551e1d" fill-rule="evenodd" stroke="none"/>
      <path d="M69.8 23.0 L69.75 23.6 Q70.85 24.0 72.55 24.75 L75.55 24.55 Q74.55 26.65 74.15 29.8 73.8 29.45 73.1 29.3 L72.0 29.0 70.45 31.15 68.65 33.15 Q66.8 31.75 66.5 29.35 L62.65 29.6 Q64.65 27.95 64.05 26.45 63.55 25.3 61.25 24.0 L64.25 24.4 67.25 24.55 67.75 21.55 68.75 22.35 69.8 23.0" fill="#551e1d" fill-rule="evenodd" stroke="none"/>
      <path d="M55.75 10.1 L56.05 10.1 56.5 9.7 57.1 9.55 Q56.7 10.9 57.9 11.5 L60.35 12.25 Q59.65 13.55 58.85 13.95 61.4 14.7 62.7 14.65 61.8 16.35 60.4 17.5 L57.4 19.45 Q54.9 20.9 53.3 20.6 52.0 20.4 49.5 18.55 L52.4 16.7 Q52.35 14.65 49.4 14.85 50.35 13.65 52.35 12.2 54.1 10.9 55.75 10.1" fill="#551e1d" fill-rule="evenodd" stroke="none"/>
      <path d="M40.65 8.6 L41.0 8.3 46.65 7.95 Q50.35 7.75 51.65 8.6 50.75 9.4 48.7 9.45 L45.45 9.55 45.0 8.7 40.65 8.6" fill="#551e1d" fill-rule="evenodd" stroke="none"/>
      <path d="M63.65 8.6 L63.65 8.3 Q65.75 7.6 69.45 7.6 73.2 7.6 74.95 8.35 73.0 9.7 69.0 9.9 64.85 10.1 63.65 8.6" fill="#551e1d" fill-rule="evenodd" stroke="none"/>
      <path d="M69.35 44.0 L67.4 43.7 Q68.3 44.2 68.5 44.6 L62.3 45.2 66.15 43.2 Q68.65 42.2 69.35 44.0" fill="#551e1d" fill-rule="evenodd" stroke="none"/>
      <path d="M40.85 45.2 Q41.7 43.8 42.8 43.8 43.9 43.85 44.2 45.2 L40.8 45.5 40.85 45.2" fill="#551e1d" fill-rule="evenodd" stroke="none"/>
      <path d="M67.35 24.0 Q69.45 25.25 70.5 25.65 L73.35 25.4 Q73.65 26.4 73.1 27.45 70.2 27.0 69.05 30.55 68.2 30.2 68.15 29.45 L67.8 28.15 66.5 26.9 65.0 25.75 66.6 25.65 67.35 24.0" fill="#5f2320" fill-rule="evenodd" stroke="none"/>
      <path d="M55.15 35.45 Q55.3 36.2 55.95 36.35 56.7 36.5 57.55 35.9 57.25 36.25 57.5 36.9 L58.15 38.55 56.6 38.65 Q58.0 39.95 56.4 40.75 54.8 41.55 54.35 40.05 L53.3 40.0 52.35 39.75 53.5 36.85 Q54.3 35.35 55.15 35.45 L55.05 35.0 55.6 35.6 55.15 35.45" fill="#5f2320" fill-rule="evenodd" stroke="none"/>
      <path d="M55.55 13.7 L55.15 13.05 Q54.95 12.75 55.15 12.25 L56.65 13.65 Q57.15 13.3 58.6 12.85 57.75 14.3 57.6 15.75 L59.05 15.65 60.5 15.5 Q59.3 16.35 57.55 18.35 L54.7 21.2 53.8 19.1 Q53.15 17.95 51.65 18.2 54.2 17.0 53.95 16.0 53.75 15.25 51.45 14.0 L53.45 13.65 55.55 13.7" fill="#5f2320" fill-rule="evenodd" stroke="none"/>
      <path d="M69.7 44.0 Q64.4 45.05 61.7 44.9 62.15 44.65 64.3 43.95 65.85 43.4 66.65 42.5 68.5 43.75 69.7 44.0" fill="#5f2320" fill-rule="evenodd" stroke="none"/>
      <path d="M48.55 45.15 L41.5 45.7 Q42.05 44.4 43.55 44.55 L46.05 44.3 47.5 44.5 48.55 45.15" fill="#5f2320" fill-rule="evenodd" stroke="none"/>
      <path d="M41.9 11.1 Q41.15 10.2 41.9 8.9 L42.85 9.2 46.45 8.7 50.35 8.3 Q49.2 9.65 46.45 10.15 42.7 10.75 41.9 11.1" fill="#5f2320" fill-rule="evenodd" stroke="none"/>
      <path d="M66.65 8.6 L66.35 8.3 70.05 8.2 73.8 8.05 Q72.5 9.35 69.5 9.55 66.5 9.7 66.65 8.6" fill="#5f2320" fill-rule="evenodd" stroke="none"/>
      <path d="M101.0 33.5 Q101.2 32.2 102.5 30.3 L104.45 27.2 Q105.3 25.3 104.65 24.05 L102.55 21.3 Q105.4 22.95 106.5 23.3 L106.75 23.3 106.45 23.35 Q106.25 23.4 106.45 23.55 108.15 23.75 110.8 22.35 113.6 20.85 114.95 20.8 114.85 21.8 113.55 23.55 111.95 25.6 111.7 26.25 110.95 28.15 111.3 29.2 L112.7 31.75 107.0 31.55 Q106.1 31.7 104.0 32.6 L101.0 33.5" fill="#3b1313" fill-rule="evenodd" stroke="none"/>
      <path d="M91.75 36.85 L89.0 33.9 91.75 34.8 94.5 35.8 94.0 36.05 96.55 34.95 99.2 33.8 Q98.65 34.9 98.8 36.25 99.75 36.4 100.95 35.7 L102.95 34.55 Q100.3 38.15 100.75 39.8 101.0 40.75 103.05 42.25 L105.95 44.5 102.45 43.25 98.75 42.25 Q97.3 42.1 95.7 42.65 L92.75 43.6 94.15 42.3 Q91.85 42.7 89.6 43.55 L87.75 44.3 91.75 39.3 Q92.7 38.05 91.75 36.85" fill="#3b1313" fill-rule="evenodd" stroke="none"/>
      <path d="M121.3 12.85 L122.0 13.55 Q125.85 11.4 129.2 10.55 128.75 11.55 127.1 13.05 125.25 14.7 124.75 15.55 L125.25 15.3 Q123.4 16.85 124.6 18.7 125.55 20.2 127.5 21.05 124.75 20.15 120.75 20.55 119.35 20.65 117.75 21.5 L114.85 22.8 116.05 21.45 Q116.85 20.7 116.95 20.05 L113.5 20.0 114.75 17.95 Q115.5 16.7 115.5 15.75 115.5 14.4 114.15 13.25 L112.0 11.3 116.45 13.0 Q119.55 13.9 120.55 12.1 L121.3 12.85" fill="#3b1313" fill-rule="evenodd" stroke="none"/>
      <path d="M103.6 10.7 L107.15 9.35 104.45 11.05 Q102.8 12.1 101.9 13.15 100.75 14.55 100.95 15.5 L101.45 17.8 100.3 16.85 Q99.9 18.2 100.95 19.7 L103.05 21.9 100.95 21.25 98.75 20.65 96.4 20.85 94.2 21.2 94.5 20.6 94.85 20.0 91.6 22.15 88.3 24.2 Q92.1 21.4 93.0 19.1 L91.5 19.7 Q93.6 17.9 93.15 16.35 L91.1 13.4 92.7 13.8 94.4 14.05 Q91.45 11.05 87.85 8.7 L91.3 10.2 94.8 11.7 94.25 10.45 95.45 11.25 96.8 11.8 96.7 12.5 98.25 11.65 Q99.95 10.7 100.75 10.5 L100.1 11.75 103.6 10.7" fill="#3b1313" fill-rule="evenodd" stroke="none"/>
      <path d="M84.95 22.8 L90.0 21.55 87.15 24.05 Q84.6 26.15 84.6 26.55 84.6 27.25 85.5 28.35 86.5 29.5 86.6 30.1 L84.65 29.6 Q85.1 30.45 86.45 31.45 L88.6 33.05 Q87.15 32.4 85.5 32.35 L82.3 32.45 82.2 31.35 Q80.85 31.7 77.5 33.4 74.5 34.95 72.65 35.2 L75.3 33.2 Q76.95 32.0 77.55 31.05 L74.7 31.8 72.95 32.2 75.7 30.65 Q78.35 28.75 77.9 27.15 L74.35 26.6 77.3 24.8 75.35 23.25 Q74.2 22.35 73.95 21.55 L76.9 22.3 79.95 23.0 84.95 22.8" fill="#3b1313" fill-rule="evenodd" stroke="none"/>
      <path d="M116.55 33.65 L116.3 32.8 Q117.3 33.45 118.75 33.9 L121.0 34.3 121.5 34.55 121.55 35.5 Q124.2 33.35 126.15 32.8 L123.85 35.3 Q122.25 36.95 122.45 38.05 122.65 39.0 124.65 40.15 126.7 41.35 126.95 42.25 124.5 41.25 123.25 41.05 L124.9 42.7 126.45 44.25 124.25 43.7 Q122.7 43.05 122.0 42.95 L119.95 43.0 Q119.85 43.0 118.05 43.75 L117.75 42.55 Q116.55 42.7 114.3 43.6 L110.75 44.75 Q114.45 40.8 113.55 36.8 L114.5 36.8 115.45 36.75 Q115.4 35.45 114.05 34.05 L111.7 31.85 114.3 33.35 Q116.0 34.35 116.95 34.5 L116.55 33.65" fill="#3b1313" fill-rule="evenodd" stroke="none"/>
      <path d="M99.85 17.1 Q99.7 18.25 98.65 19.05 97.65 19.85 96.35 19.85 95.05 19.85 94.25 19.05 93.45 18.25 93.65 17.1 93.8 16.0 94.85 15.2 95.85 14.4 97.15 14.4 98.45 14.4 99.25 15.2 100.05 16.0 99.85 17.1" fill="#2e1010" fill-rule="evenodd" stroke="none"/>
      <path d="M98.8 17.1 Q98.7 17.9 98.0 18.45 97.35 19.0 96.5 19.0 95.65 19.0 95.1 18.45 94.6 17.9 94.75 17.1 94.85 16.3 95.55 15.75 96.2 15.2 97.05 15.2 97.9 15.2 98.4 15.75 98.9 16.3 98.8 17.1" fill="#171717" fill-rule="evenodd" stroke="none"/>
      <path d="M98.15 16.8 Q98.1 17.35 97.6 17.7 97.15 18.1 96.55 18.1 95.95 18.1 95.55 17.7 95.2 17.35 95.25 16.8 95.35 16.25 95.85 15.85 96.3 15.5 96.9 15.5 97.5 15.5 97.85 15.85 98.25 16.25 98.15 16.8" fill="#292121" fill-rule="evenodd" stroke="none"/>
      <path d="M96.9 16.3 Q96.8 16.85 96.2 16.85 95.6 16.85 95.7 16.3 95.8 15.75 96.35 15.75 97.0 15.75 96.9 16.3" fill="#524242" fill-rule="evenodd" stroke="none"/>
      <path d="M84.25 26.85 Q84.1 27.95 83.05 28.75 82.05 29.55 80.75 29.55 79.45 29.55 78.65 28.75 77.85 27.95 78.05 26.85 78.2 25.7 79.25 24.9 80.25 24.1 81.55 24.1 82.85 24.1 83.65 24.9 84.45 25.7 84.25 26.85" fill="#2e1010" fill-rule="evenodd" stroke="none"/>
      <path d="M82.8 25.45 Q83.3 26.0 83.2 26.8 83.1 27.6 82.4 28.15 81.75 28.7 80.9 28.7 80.05 28.7 79.55 28.15 79.05 27.6 79.15 26.8 79.25 26.0 79.95 25.45 80.6 24.9 81.45 24.9 82.3 24.9 82.8 25.45" fill="#171717" fill-rule="evenodd" stroke="none"/>
      <path d="M82.6 26.5 Q82.5 27.05 82.0 27.4 81.55 27.8 80.95 27.8 80.35 27.8 80.0 27.4 79.65 27.05 79.7 26.5 79.8 25.95 80.25 25.6 80.7 25.2 81.3 25.2 81.9 25.2 82.3 25.6 82.7 26.0 82.6 26.5" fill="#292121" fill-rule="evenodd" stroke="none"/>
      <path d="M81.3 26.0 Q81.2 26.55 80.6 26.55 80.0 26.55 80.1 26.0 80.2 25.5 80.8 25.5 81.4 25.5 81.3 26.0" fill="#524242" fill-rule="evenodd" stroke="none"/>
      <path d="M122.85 15.0 Q123.65 15.8 123.45 16.95 123.3 18.05 122.25 18.85 121.25 19.65 119.95 19.65 118.65 19.65 117.85 18.85 117.05 18.1 117.25 16.95 117.4 15.8 118.45 15.0 119.45 14.2 120.75 14.2 122.05 14.2 122.85 15.0" fill="#2e1010" fill-rule="evenodd" stroke="none"/>
      <path d="M122.4 16.9 Q122.3 17.7 121.6 18.25 120.9 18.8 120.05 18.8 119.2 18.8 118.7 18.25 118.2 17.7 118.3 16.9 118.45 16.1 119.1 15.55 119.8 15.0 120.65 15.0 121.5 15.0 122.0 15.55 122.5 16.1 122.4 16.9" fill="#171717" fill-rule="evenodd" stroke="none"/>
      <path d="M121.75 16.6 L121.2 17.5 Q120.7 17.9 120.1 17.9 119.5 17.9 119.15 17.5 118.8 17.15 118.85 16.6 118.95 16.05 119.4 15.7 L120.5 15.3 Q121.1 15.3 121.45 15.7 121.85 16.05 121.75 16.6" fill="#292121" fill-rule="evenodd" stroke="none"/>
      <path d="M120.5 16.1 Q120.4 16.65 119.8 16.65 119.2 16.65 119.3 16.1 119.4 15.6 119.95 15.6 120.5 15.6 120.5 16.1" fill="#524242" fill-rule="evenodd" stroke="none"/>
      <path d="M110.45 27.95 Q110.25 29.1 109.25 29.85 108.2 30.65 106.9 30.65 105.65 30.65 104.85 29.85 104.05 29.1 104.2 27.95 104.4 26.8 105.4 26.0 106.45 25.2 107.75 25.2 109.05 25.2 109.8 26.0 110.6 26.8 110.45 27.95" fill="#2e1010" fill-rule="evenodd" stroke="none"/>
      <path d="M109.35 27.9 Q109.25 28.7 108.55 29.25 107.9 29.8 107.05 29.8 106.2 29.8 105.7 29.25 105.2 28.7 105.3 27.9 105.4 27.1 106.1 26.55 106.75 26.0 107.6 26.0 108.45 26.0 108.95 26.55 109.45 27.1 109.35 27.9" fill="#171717" fill-rule="evenodd" stroke="none"/>
      <path d="M108.75 27.6 L108.2 28.5 Q107.7 28.9 107.1 28.9 106.5 28.9 106.15 28.5 105.8 28.15 105.85 27.6 105.95 27.05 106.4 26.65 106.9 26.3 107.5 26.3 108.1 26.3 108.45 26.65 108.85 27.05 108.75 27.6" fill="#292121" fill-rule="evenodd" stroke="none"/>
      <path d="M107.45 27.1 Q107.35 27.65 106.8 27.65 106.25 27.65 106.25 27.1 106.35 26.55 106.95 26.55 107.55 26.55 107.45 27.1" fill="#524242" fill-rule="evenodd" stroke="none"/>
      <path d="M100.6 38.55 Q100.45 39.65 99.4 40.45 98.4 41.25 97.1 41.25 95.8 41.25 95.0 40.45 94.2 39.65 94.4 38.55 94.55 37.4 95.6 36.6 96.6 35.8 97.9 35.8 99.2 35.8 100.0 36.6 100.8 37.4 100.6 38.55" fill="#2e1010" fill-rule="evenodd" stroke="none"/>
      <path d="M99.55 38.5 Q99.45 39.3 98.75 39.85 98.1 40.4 97.25 40.4 96.4 40.4 95.85 39.85 95.35 39.3 95.5 38.5 95.6 37.7 96.3 37.15 96.95 36.6 97.8 36.6 98.65 36.6 99.15 37.15 99.65 37.7 99.55 38.5" fill="#171717" fill-rule="evenodd" stroke="none"/>
      <path d="M98.9 38.2 Q98.85 38.75 98.35 39.1 97.9 39.5 97.3 39.5 96.7 39.5 96.3 39.1 95.95 38.75 96.0 38.2 96.1 37.65 96.6 37.25 97.05 36.9 97.65 36.9 98.25 36.9 98.6 37.25 99.0 37.65 98.9 38.2" fill="#292121" fill-rule="evenodd" stroke="none"/>
      <path d="M97.65 37.7 Q97.55 38.25 96.95 38.25 96.35 38.25 96.45 37.7 96.55 37.15 97.1 37.15 97.75 37.15 97.65 37.7" fill="#524242" fill-rule="evenodd" stroke="none"/>
      <path d="M120.9 37.05 Q121.7 37.85 121.5 38.95 121.35 40.1 120.3 40.9 119.3 41.7 118.0 41.7 116.7 41.7 115.9 40.9 115.1 40.1 115.3 38.95 115.45 37.85 116.5 37.05 117.5 36.25 118.8 36.25 120.1 36.25 120.9 37.05" fill="#2e1010" fill-rule="evenodd" stroke="none"/>
      <path d="M120.05 37.6 Q120.55 38.15 120.45 38.95 120.35 39.75 119.65 40.3 119.0 40.85 118.15 40.85 117.3 40.85 116.75 40.3 116.25 39.75 116.4 38.95 116.5 38.15 117.2 37.6 117.85 37.05 118.7 37.05 119.55 37.05 120.05 37.6" fill="#171717" fill-rule="evenodd" stroke="none"/>
      <path d="M119.55 37.7 Q119.9 38.1 119.8 38.65 L119.25 39.55 Q118.8 39.95 118.2 39.95 117.6 39.95 117.2 39.55 116.85 39.15 116.95 38.65 117.05 38.1 117.5 37.7 117.95 37.35 118.55 37.35 119.15 37.35 119.55 37.7" fill="#292121" fill-rule="evenodd" stroke="none"/>
      <path d="M118.55 38.15 Q118.45 38.7 117.85 38.7 117.25 38.7 117.35 38.15 117.45 37.6 118.0 37.6 118.65 37.6 118.55 38.15" fill="#524242" fill-rule="evenodd" stroke="none"/>
      <path d="M100.25 25.25 L101.75 27.45 Q101.9 28.9 100.9 30.05 L98.4 32.1 Q95.55 34.1 92.6 33.2 90.45 32.55 87.7 30.1 89.45 29.2 88.9 27.7 88.55 26.75 87.15 25.35 L89.25 25.25 90.65 24.2 Q92.1 23.3 94.2 22.75 L98.4 21.35 100.35 23.15 Q99.25 23.95 100.25 25.25" fill="#551e1d" fill-rule="evenodd" stroke="none"/>
      <path d="M109.0 30.8 L109.05 32.0 109.0 33.35 Q112.25 33.05 113.4 34.9 112.75 35.45 111.65 35.55 L109.65 35.55 Q109.3 37.05 110.4 38.6 111.45 40.05 113.05 40.6 L106.15 43.55 Q106.5 42.35 105.4 41.65 L103.55 40.3 Q104.5 39.35 104.2 38.8 103.95 38.3 102.55 38.45 L104.75 34.9 Q106.15 32.65 107.2 31.6 L107.1 32.2 107.6 33.0 Q107.7 32.35 108.15 31.85 L109.0 30.8" fill="#551e1d" fill-rule="evenodd" stroke="none"/>
      <path d="M122.6 22.3 L122.5 22.9 Q123.6 23.3 125.3 24.05 L128.3 23.85 Q127.4 25.8 126.95 29.1 126.6 28.75 125.85 28.6 L124.75 28.35 123.2 30.45 121.4 32.45 Q119.55 31.05 119.25 28.65 L115.4 28.9 Q117.4 27.25 116.8 25.75 116.3 24.6 114.05 23.3 L117.0 23.7 120.0 23.85 120.5 20.85 121.5 21.65 122.6 22.3" fill="#551e1d" fill-rule="evenodd" stroke="none"/>
      <path d="M108.5 9.4 L108.85 9.4 109.25 9.0 109.85 8.85 Q109.45 10.2 110.65 10.8 L113.1 11.55 Q112.45 12.85 111.6 13.25 113.85 14.0 115.45 13.95 114.55 15.65 113.15 16.8 L110.15 18.75 Q107.65 20.2 106.05 19.95 104.75 19.7 102.25 17.85 104.15 16.55 105.15 16.0 105.1 15.0 104.2 14.5 103.4 14.05 102.15 14.15 103.15 12.95 105.1 11.5 106.9 10.2 108.5 9.4" fill="#551e1d" fill-rule="evenodd" stroke="none"/>
      <path d="M93.4 7.9 L93.75 7.6 99.4 7.25 Q103.1 7.05 104.4 7.9 103.5 8.7 101.45 8.75 L98.2 8.85 97.75 8.0 93.4 7.9" fill="#551e1d" fill-rule="evenodd" stroke="none"/>
      <path d="M116.4 7.9 L116.45 7.6 Q118.5 6.9 122.2 6.95 125.95 6.95 127.7 7.65 125.75 9.0 121.75 9.2 117.6 9.4 116.4 7.9" fill="#551e1d" fill-rule="evenodd" stroke="none"/>
      <path d="M122.15 43.3 L120.15 43.0 121.25 43.9 115.05 44.5 Q116.05 44.1 118.9 42.5 121.4 41.5 122.15 43.3" fill="#551e1d" fill-rule="evenodd" stroke="none"/>
      <path d="M93.6 44.5 Q94.45 43.1 95.55 43.15 96.65 43.15 96.95 44.5 L93.55 44.8 93.6 44.5" fill="#551e1d" fill-rule="evenodd" stroke="none"/>
      <path d="M96.1 24.6 L96.55 24.25 97.25 24.15 96.3 26.75 97.85 26.85 97.8 27.95 98.95 28.0 97.45 29.5 95.75 30.8 93.7 30.7 91.35 30.95 Q92.25 29.75 92.0 28.75 91.8 28.0 90.8 26.8 L93.0 26.5 Q92.7 25.9 92.65 25.1 L92.75 23.7 96.1 24.6" fill="#5f2320" fill-rule="evenodd" stroke="none"/>
      <path d="M120.1 23.3 L123.25 24.95 126.1 24.7 Q126.4 25.7 125.85 26.75 124.2 26.5 123.2 27.4 122.4 28.15 121.8 29.85 120.9 29.5 120.9 28.8 120.85 27.8 120.6 27.45 L119.25 26.2 117.75 25.05 119.35 24.95 120.1 23.3" fill="#5f2320" fill-rule="evenodd" stroke="none"/>
      <path d="M106.25 36.15 Q107.05 34.7 107.9 34.75 108.05 35.5 108.7 35.65 109.45 35.8 110.3 35.2 110.0 35.55 110.25 36.2 L110.9 37.85 109.35 37.95 Q110.75 39.25 109.15 40.05 107.55 40.85 107.1 39.35 L106.05 39.3 105.1 39.05 106.25 36.15 M107.9 34.75 L107.8 34.3 108.4 34.9 Q108.15 34.75 107.9 34.75" fill="#5f2320" fill-rule="evenodd" stroke="none"/>
      <path d="M108.3 13.0 L107.9 12.35 Q107.7 12.05 107.9 11.55 L109.4 12.95 111.4 12.15 Q110.6 13.4 110.35 15.05 L111.8 14.95 113.25 14.8 Q112.05 15.65 110.3 17.65 L107.5 20.5 106.55 18.4 Q105.9 17.25 104.4 17.5 106.95 16.3 106.7 15.3 106.45 14.55 104.2 13.35 105.05 13.0 106.2 12.95 L108.3 13.0" fill="#5f2320" fill-rule="evenodd" stroke="none"/>
      <path d="M122.45 43.3 L114.45 44.2 117.05 43.25 Q118.6 42.7 119.4 41.8 121.4 43.1 122.45 43.3" fill="#5f2320" fill-rule="evenodd" stroke="none"/>
      <path d="M94.25 45.0 Q94.8 43.7 96.3 43.85 L98.8 43.65 100.25 43.85 Q100.9 44.0 101.3 44.45 L94.25 45.0" fill="#5f2320" fill-rule="evenodd" stroke="none"/>
      <path d="M94.65 8.2 L95.65 8.5 99.2 8.0 103.15 7.6 Q102.0 8.95 99.2 9.45 L94.65 10.4 Q93.9 9.5 94.65 8.2" fill="#5f2320" fill-rule="evenodd" stroke="none"/>
      <path d="M119.4 7.9 L119.1 7.6 122.8 7.5 126.55 7.35 Q125.25 8.65 122.25 8.85 119.25 9.0 119.4 7.9" fill="#5f2320" fill-rule="evenodd" stroke="none"/>
      <path d="M145.3 12.9 L146.9 13.3 148.6 13.55 Q145.65 10.45 142.1 8.15 143.3 8.55 145.55 9.65 147.8 10.8 149.0 11.2 L148.7 10.55 148.5 9.9 149.7 10.75 151.05 11.25 150.95 11.95 152.45 11.1 Q154.15 10.2 154.95 9.95 L154.6 10.6 154.3 11.25 161.35 8.85 158.65 10.5 Q157.05 11.55 156.15 12.6 155.0 14.0 155.2 14.95 L155.65 17.25 Q154.85 16.75 154.5 16.3 154.1 17.65 155.15 19.15 L157.25 21.35 152.95 20.1 150.65 20.3 148.4 20.7 148.7 20.1 149.1 19.45 145.85 21.6 142.55 23.65 Q146.25 20.95 147.2 18.55 146.15 18.9 145.7 19.15 147.8 17.35 147.4 15.8 147.15 15.0 145.3 12.9" fill="#3b1313" fill-rule="evenodd" stroke="none"/>
      <path d="M134.15 22.5 L139.2 22.3 144.2 21.0 141.35 23.55 Q138.85 25.6 138.8 26.05 138.8 26.75 139.7 27.8 140.7 29.0 140.8 29.55 L139.85 29.3 138.9 29.05 Q139.35 29.9 140.7 30.9 L142.85 32.5 Q141.4 31.85 139.75 31.8 L136.55 31.95 136.45 30.8 Q135.15 31.15 131.75 32.85 128.75 34.4 126.9 34.65 L129.5 32.65 131.75 30.5 128.9 31.25 127.15 31.65 129.9 30.1 Q132.55 28.2 132.15 26.65 L128.55 26.05 131.5 24.25 129.6 22.7 Q128.4 21.8 128.15 21.05 L131.1 21.75 134.15 22.5" fill="#3b1313" fill-rule="evenodd" stroke="none"/>
      <path d="M166.35 20.5 Q167.95 19.65 169.55 19.4 168.55 20.0 166.9 21.6 165.0 23.4 164.85 24.1 164.7 24.95 165.9 26.0 L167.85 27.45 165.5 27.2 Q168.3 29.55 169.25 31.05 L166.8 29.95 164.1 29.25 Q162.95 29.2 161.65 29.8 L159.15 30.95 159.8 29.55 Q156.5 32.3 154.4 32.9 L156.55 30.6 Q157.95 29.05 158.3 28.15 158.8 26.8 157.9 25.65 L156.5 23.65 Q157.55 23.95 158.7 24.55 158.25 23.6 157.0 22.25 L155.25 20.05 Q156.8 20.3 158.45 21.9 L161.15 24.1 161.1 24.3 162.05 22.7 Q162.7 21.8 163.45 21.4 L163.6 22.45 Q164.65 21.35 166.35 20.5" fill="#3b1313" fill-rule="evenodd" stroke="none"/>
      <path d="M139.55 34.05 L142.75 35.0 145.95 35.75 145.6 35.05 Q145.4 34.8 144.8 34.5 145.7 34.4 147.45 35.0 L149.8 35.5 Q150.6 35.4 152.05 34.55 153.55 33.65 154.25 33.55 L154.5 33.3 Q154.0 34.2 154.3 35.2 L157.2 33.6 Q156.7 35.1 155.2 38.2 154.4 40.85 156.45 42.25 L153.45 42.0 155.3 43.0 Q156.5 43.6 156.95 44.25 155.7 44.25 153.0 43.45 150.5 42.7 149.0 42.8 147.25 42.9 143.7 44.15 140.25 45.3 138.35 45.3 L141.7 43.4 Q144.0 42.1 144.45 41.05 L143.05 41.0 145.3 39.6 Q146.4 38.95 145.95 37.85 145.5 36.85 143.0 35.65 L139.55 34.05" fill="#3b1313" fill-rule="evenodd" stroke="none"/>
      <path d="M154.1 16.6 Q153.9 17.75 152.9 18.55 151.85 19.35 150.55 19.35 149.3 19.35 148.5 18.55 147.7 17.75 147.85 16.6 148.05 15.45 149.05 14.65 150.1 13.85 151.4 13.85 152.65 13.85 153.45 14.65 154.25 15.45 154.1 16.6" fill="#2e1010" fill-rule="evenodd" stroke="none"/>
      <path d="M153.0 16.55 Q152.9 17.35 152.2 17.9 151.55 18.45 150.7 18.45 149.85 18.45 149.35 17.9 148.85 17.35 148.95 16.55 149.05 15.75 149.75 15.2 150.4 14.65 151.25 14.65 152.1 14.65 152.6 15.2 153.1 15.75 153.0 16.55" fill="#171717" fill-rule="evenodd" stroke="none"/>
      <path d="M152.4 16.25 L151.85 17.2 Q151.35 17.55 150.75 17.55 150.15 17.55 149.8 17.2 149.45 16.8 149.5 16.25 149.6 15.7 150.05 15.35 150.55 14.95 151.15 14.95 151.75 14.95 152.1 15.35 152.5 15.7 152.4 16.25" fill="#292121" fill-rule="evenodd" stroke="none"/>
      <path d="M151.1 15.75 Q151.0 16.3 150.45 16.3 149.9 16.3 149.9 15.75 150.0 15.25 150.6 15.25 L151.0 15.4 151.1 15.75" fill="#524242" fill-rule="evenodd" stroke="none"/>
      <path d="M138.5 26.3 Q138.3 27.45 137.3 28.25 136.25 29.05 135.0 29.05 133.7 29.05 132.9 28.25 132.1 27.45 132.25 26.3 132.45 25.15 133.45 24.35 134.5 23.55 135.8 23.55 137.05 23.55 137.85 24.35 138.65 25.15 138.5 26.3" fill="#2e1010" fill-rule="evenodd" stroke="none"/>
      <path d="M137.4 26.25 Q137.3 27.05 136.65 27.6 135.95 28.15 135.1 28.15 134.25 28.15 133.75 27.6 133.25 27.05 133.35 26.25 133.45 25.45 134.15 24.9 134.8 24.35 135.65 24.35 136.5 24.35 137.05 24.9 137.55 25.45 137.4 26.25" fill="#171717" fill-rule="evenodd" stroke="none"/>
      <path d="M136.8 25.95 L136.25 26.9 135.15 27.25 Q134.55 27.25 134.2 26.9 133.85 26.5 133.9 25.95 134.0 25.4 134.45 25.05 134.95 24.65 135.55 24.65 136.15 24.65 136.5 25.05 136.9 25.4 136.8 25.95" fill="#292121" fill-rule="evenodd" stroke="none"/>
      <path d="M135.5 25.5 Q135.4 26.0 134.85 26.0 134.25 26.0 134.35 25.5 134.45 24.95 135.0 24.95 135.6 24.95 135.5 25.5" fill="#524242" fill-rule="evenodd" stroke="none"/>
      <path d="M164.65 27.4 Q164.5 28.55 163.45 29.35 162.45 30.15 161.15 30.15 159.85 30.15 159.05 29.35 158.25 28.55 158.45 27.4 158.6 26.3 159.65 25.45 160.65 24.65 161.95 24.65 163.25 24.65 164.05 25.45 164.85 26.25 164.65 27.4" fill="#2e1010" fill-rule="evenodd" stroke="none"/>
      <path d="M163.6 27.35 Q163.5 28.15 162.8 28.7 162.1 29.25 161.25 29.25 160.4 29.25 159.9 28.7 159.4 28.15 159.55 27.35 159.65 26.55 160.35 26.0 161.0 25.45 161.85 25.45 162.7 25.45 163.2 26.0 163.7 26.55 163.6 27.35" fill="#171717" fill-rule="evenodd" stroke="none"/>
      <path d="M162.95 27.05 Q162.9 27.6 162.4 28.0 161.95 28.35 161.3 28.35 160.7 28.35 160.35 28.0 160.0 27.6 160.05 27.05 160.15 26.5 160.65 26.15 161.1 25.75 161.7 25.75 L162.65 26.15 Q163.05 26.5 162.95 27.05" fill="#292121" fill-rule="evenodd" stroke="none"/>
      <path d="M161.7 26.55 Q161.6 27.1 161.0 27.1 160.4 27.1 160.5 26.55 160.6 26.05 161.15 26.05 L161.6 26.2 161.7 26.55" fill="#524242" fill-rule="evenodd" stroke="none"/>
      <path d="M154.85 38.0 Q154.65 39.15 153.65 39.95 152.6 40.75 151.3 40.75 150.05 40.75 149.25 39.95 148.45 39.15 148.6 38.0 148.8 36.85 149.8 36.05 150.85 35.25 152.15 35.25 153.4 35.25 154.2 36.05 155.0 36.85 154.85 38.0" fill="#2e1010" fill-rule="evenodd" stroke="none"/>
      <path d="M153.75 37.95 Q153.65 38.75 152.95 39.3 152.3 39.85 151.45 39.85 150.6 39.85 150.1 39.3 149.6 38.75 149.7 37.95 149.8 37.15 150.5 36.6 151.15 36.05 152.0 36.05 152.85 36.05 153.35 36.6 153.85 37.15 153.75 37.95" fill="#171717" fill-rule="evenodd" stroke="none"/>
      <path d="M153.15 37.65 L152.6 38.6 Q152.1 38.95 151.5 38.95 L150.55 38.6 Q150.2 38.2 150.25 37.65 150.35 37.1 150.8 36.75 151.3 36.35 151.9 36.35 152.5 36.35 152.85 36.75 153.25 37.1 153.15 37.65" fill="#292121" fill-rule="evenodd" stroke="none"/>
      <path d="M151.85 37.15 Q151.75 37.7 151.2 37.7 150.65 37.7 150.65 37.15 150.75 36.65 151.35 36.65 L151.75 36.8 151.85 37.15" fill="#524242" fill-rule="evenodd" stroke="none"/>
      <path d="M143.5 24.7 Q144.45 24.4 144.8 23.7 146.3 22.8 148.4 22.2 L152.6 20.85 Q153.95 21.65 154.55 22.6 153.45 23.45 154.45 24.75 L155.95 26.95 Q156.15 28.35 155.15 29.55 L152.6 31.6 Q149.8 33.55 146.8 32.7 144.6 32.0 141.95 29.55 143.7 28.65 143.1 27.15 142.8 26.25 141.4 24.8 L143.5 24.7" fill="#551e1d" fill-rule="evenodd" stroke="none"/>
      <path d="M147.6 7.35 L148.0 7.05 153.65 6.7 Q157.35 6.5 158.65 7.35 157.75 8.2 155.7 8.25 153.35 8.2 152.4 8.3 L151.95 7.45 147.6 7.35" fill="#551e1d" fill-rule="evenodd" stroke="none"/>
      <path d="M147.85 43.95 Q148.65 42.55 149.8 42.6 150.9 42.6 151.2 44.0 L147.8 44.25 147.85 43.95" fill="#551e1d" fill-rule="evenodd" stroke="none"/>
      <path d="M146.9 24.55 L146.95 23.15 150.3 24.05 150.75 23.75 Q151.1 23.5 151.5 23.6 L150.55 26.2 152.1 26.3 Q152.25 26.55 152.0 27.4 L153.2 27.45 151.7 29.0 149.95 30.25 147.95 30.2 Q146.55 29.95 145.6 30.45 146.45 29.25 146.2 28.25 146.05 27.5 145.05 26.3 L147.2 25.95 Q146.9 25.4 146.9 24.55" fill="#5f2320" fill-rule="evenodd" stroke="none"/>
      <path d="M148.45 44.5 Q149.0 43.2 150.5 43.3 L153.0 43.1 154.45 43.3 Q155.15 43.45 155.55 43.9 L148.45 44.5" fill="#5f2320" fill-rule="evenodd" stroke="none"/>
      <path d="M148.9 7.65 L149.85 7.95 153.45 7.45 157.35 7.1 Q156.2 8.45 153.45 8.9 149.7 9.5 148.9 9.85 148.1 8.95 148.9 7.65" fill="#5f2320" fill-rule="evenodd" stroke="none"/>
      <path d="M135.65 33.9 Q136.2 33.35 137.2 33.15 L139.45 33.3 Q139.7 35.55 140.35 36.75 141.15 38.3 142.95 38.8 143.1 40.55 139.75 42.5 136.65 44.25 134.75 44.3 133.25 44.35 131.95 43.25 L129.75 41.2 126.95 39.9 Q125.15 38.95 125.3 37.8 L130.6 35.65 Q133.65 34.4 135.65 33.9" fill="#551e1d" fill-rule="evenodd" stroke="none"/>
      <path d="M84.95 34.8 Q87.0 34.9 87.25 36.05 87.35 36.4 86.75 37.3 86.1 38.2 86.25 38.8 86.35 39.35 86.9 39.75 L87.8 40.45 Q89.05 42.0 88.8 42.45 L86.5 43.35 Q83.0 44.4 80.75 44.3 78.6 44.15 75.3 42.15 71.7 39.9 72.25 38.1 72.45 37.45 74.45 36.1 76.2 34.9 77.05 34.6 L79.8 34.15 Q81.4 34.1 82.5 34.55 L82.0 34.55 84.95 34.8" fill="#551e1d" fill-rule="evenodd" stroke="none"/>
      <path d="M83.55 9.2 L85.0 9.25 87.25 10.95 89.25 12.8 89.0 13.45 Q88.65 14.05 88.75 14.3 L89.45 15.55 90.0 16.55 Q90.35 17.05 90.25 17.8 90.1 18.9 88.7 19.95 87.55 20.8 86.25 21.2 83.65 22.1 80.2 21.25 76.4 20.3 76.0 17.8 75.9 17.15 76.15 16.4 L76.55 15.1 76.3 13.0 Q76.45 11.55 77.85 10.05 78.55 9.35 79.25 9.05 L79.0 9.05 Q79.3 8.8 79.75 8.8 L80.95 9.0 82.05 9.35 83.55 9.2" fill="#551e1d" fill-rule="evenodd" stroke="none"/>
      <path d="M137.85 9.3 L141.0 9.15 Q143.45 9.75 145.25 11.5 144.1 12.4 145.6 14.85 147.15 17.3 145.05 18.85 143.3 20.15 140.85 20.55 L136.5 20.3 Q134.3 19.6 131.65 17.65 128.45 15.3 129.0 13.75 129.6 12.0 132.95 10.55 135.9 9.2 137.85 9.3" fill="#551e1d" fill-rule="evenodd" stroke="none"/>
      <path d="M139.0 10.8 L138.75 11.55 142.45 11.8 Q142.4 12.4 141.75 13.2 141.05 13.95 141.0 14.55 140.95 14.95 141.45 15.8 L141.95 16.85 Q141.8 17.95 140.5 18.25 L138.0 18.3 135.5 17.85 Q134.55 17.4 133.75 16.25 133.55 16.0 133.45 15.2 L133.05 14.2 Q132.7 13.85 131.7 13.65 L130.25 13.3 Q131.35 12.0 134.3 11.3 L139.0 10.8" fill="#5f2320" fill-rule="evenodd" stroke="none"/>
      <path d="M136.05 36.1 L135.25 35.55 Q137.35 35.35 138.0 36.05 136.9 37.2 138.45 39.4 139.65 41.05 136.8 41.7 135.3 42.05 133.4 41.0 L130.05 39.25 Q129.75 37.75 132.5 36.95 L136.05 36.1" fill="#5f2320" fill-rule="evenodd" stroke="none"/>
      <path d="M84.25 36.8 L84.05 36.65 Q83.05 37.55 83.5 38.85 L84.45 41.75 Q79.85 43.05 78.45 41.8 78.15 41.5 78.15 40.6 78.1 39.7 77.7 39.35 L76.45 38.75 75.0 38.5 Q75.5 35.85 79.05 35.55 82.15 35.3 84.05 36.65 L84.5 36.3 84.25 36.8" fill="#5f2320" fill-rule="evenodd" stroke="none"/>
      <path d="M84.0 12.3 L85.0 11.55 85.65 11.5 84.7 12.3 Q85.5 13.05 87.2 13.05 L87.85 16.05 Q88.25 17.85 87.5 18.55 86.6 19.35 83.75 19.4 L79.95 18.85 Q77.75 17.7 78.65 16.4 80.2 14.8 80.5 13.75 80.65 13.2 79.75 12.55 79.25 12.2 80.75 11.8 L82.35 11.9 84.0 12.3" fill="#5f2320" fill-rule="evenodd" stroke="none"/>
      <path d="M166.0 10.6 L165.5 10.35 Q165.65 10.15 166.75 9.35 167.8 10.15 168.55 12.4 169.15 14.25 169.25 15.85 169.4 18.2 167.45 18.7 L163.5 19.35 161.65 20.3 Q160.7 20.6 160.0 19.35 159.65 18.75 159.95 17.25 L160.5 15.1 Q161.05 13.0 162.4 11.75 163.95 10.25 166.0 10.6" fill="#551e1d" fill-rule="evenodd" stroke="none"/>
      <path d="M40.05 33.3 Q37.6 32.65 36.25 31.35 34.45 29.65 36.05 27.9 37.85 26.05 40.2 24.85 43.25 23.3 45.0 24.35 L44.7 23.95 46.45 25.65 Q48.3 27.35 47.1 29.45 46.0 31.25 44.0 32.45 41.8 33.75 40.05 33.3" fill="#551e1d" fill-rule="evenodd" stroke="none"/>
      <path d="M38.5 12.6 L38.25 12.85 39.4 17.25 Q39.65 19.8 38.0 21.35 36.0 23.3 33.3 24.0 30.05 24.8 30.0 21.85 30.0 21.05 30.55 19.5 L31.25 17.1 31.35 14.5 31.55 11.85 Q32.35 8.75 34.55 10.1 L38.5 12.6" fill="#551e1d" fill-rule="evenodd" stroke="none"/>
      <path d="M27.2 37.6 Q27.2 37.1 27.55 36.0 L28.0 34.35 27.95 32.85 Q27.85 31.8 28.0 31.35 28.7 29.55 29.8 30.15 30.65 30.6 31.55 32.3 L32.9 34.9 Q33.55 35.85 35.2 36.1 36.5 37.3 37.45 39.95 38.55 43.15 38.0 45.6 37.1 49.75 34.65 47.0 L31.45 42.2 Q30.9 41.45 28.75 40.05 27.25 39.05 27.2 37.6" fill="#551e1d" fill-rule="evenodd" stroke="none"/>
      <path d="M169.25 32.85 L168.75 32.1 Q170.4 32.2 171.05 32.65 171.65 33.15 172.25 34.85 172.95 36.75 172.85 37.45 172.75 38.35 171.5 39.35 169.6 40.85 166.65 42.3 163.25 43.95 161.5 43.85 158.55 43.7 157.7 40.65 157.4 39.45 158.1 37.95 L159.5 35.35 Q160.8 32.65 163.7 31.8 166.75 30.95 169.25 32.85" fill="#551e1d" fill-rule="evenodd" stroke="none"/>
      <path d="M164.75 33.85 L166.25 34.1 167.7 34.4 Q167.75 35.35 168.45 36.3 L169.75 37.8 Q164.85 41.1 162.25 41.3 159.55 41.55 160.2 39.75 160.9 37.7 160.05 37.55 160.6 35.65 162.85 34.6 164.15 33.95 165.25 34.05 L164.75 33.85" fill="#5f2320" fill-rule="evenodd" stroke="none"/>
      <path d="M166.05 13.3 Q167.1 14.45 166.6 15.6 166.25 16.45 164.8 16.75 L162.55 16.85 Q162.3 15.4 163.05 14.05 163.85 12.75 165.2 12.4 L166.05 13.3" fill="#5f2320" fill-rule="evenodd" stroke="none"/>
      <path d="M31.5 35.35 Q31.1 35.45 30.85 35.65 L33.65 38.75 Q36.5 42.2 34.95 42.8 34.05 43.15 31.65 39.45 29.75 36.5 30.85 35.65 L30.0 34.6 31.5 35.35" fill="#5f2320" fill-rule="evenodd" stroke="none"/>
      <path d="M39.55 27.7 Q39.85 26.6 40.85 26.05 L43.0 26.1 41.25 26.1 Q43.45 26.5 44.8 27.85 46.35 29.3 43.45 29.85 38.75 30.75 39.55 27.7" fill="#5f2320" fill-rule="evenodd" stroke="none"/>
      <path d="M34.0 14.1 L33.5 14.35 Q33.65 13.65 34.9 13.8 36.2 14.0 36.75 14.85 37.65 16.2 36.65 17.85 35.65 19.45 34.05 19.35 L34.25 16.4 Q34.45 14.45 34.0 14.1" fill="#5f2320" fill-rule="evenodd" stroke="none"/>
      <path d="M34.75 5.35 L27.75 40.35 22.7 40.8 33.5 1.1 34.75 5.35" fill="#612725" fill-rule="evenodd" stroke="none"/>
      <path d="M166.0 4.35 L167.25 0.1 179.1 41.8 174.0 41.35 166.0 4.35" fill="#612725" fill-rule="evenodd" stroke="none"/>
      <path d="M23.85 35.1 L24.2 36.75 Q24.7 38.3 25.5 38.1 26.85 37.8 28.0 34.35 L27.75 40.35 19.85 47.8 21.85 44.1 18.2 44.8 22.7 40.8 23.85 35.1" fill="#551e1d" fill-rule="evenodd" stroke="none"/>
      <path d="M172.25 34.85 L173.35 36.6 Q174.6 38.3 175.2 38.1 176.2 37.8 176.85 33.1 L179.1 41.8 184.2 45.45 Q180.85 44.45 179.5 44.45 178.7 44.45 178.2 44.8 L177.85 45.1 174.0 41.35 172.25 34.85" fill="#551e1d" fill-rule="evenodd" stroke="none"/>
      <path d="M167.25 0.1 L170.7 13.6 170.2 12.8 Q169.6 11.95 169.0 13.3 L168.5 14.8 165.85 6.1 167.25 0.1" fill="#551e1d" fill-rule="evenodd" stroke="none"/>
      <path d="M32.5 2.45 L34.7 6.9 32.5 18.1 Q31.5 15.1 31.5 13.45 31.5 12.4 30.7 13.15 L29.85 14.1 32.5 2.45" fill="#551e1d" fill-rule="evenodd" stroke="none"/>
    </g>
    <g id="shape3" transform="matrix(1.0, 0.0, 0.0, 1.0, 0.0, -20.35)">
      <path d="M0.0 83.3 L24.85 66.3 34.0 66.0 11.7 84.3 0.0 83.3" fill="#404040" fill-rule="evenodd" stroke="none"/>
      <path d="M11.5 82.8 L13.5 80.05 Q15.75 77.05 17.0 75.8 19.0 73.8 24.85 66.3 L33.5 66.3 11.5 82.8" fill="#363636" fill-rule="evenodd" stroke="none"/>
      <path d="M1.55 82.1 L11.3 77.2 11.5 84.55 0.5 83.05 1.55 82.1" fill="#474747" fill-rule="evenodd" stroke="none"/>
      <path d="M0.35 82.65 L13.0 82.3 12.5 83.8 1.5 84.55 0.35 82.65" fill="#5e5a5b" fill-rule="evenodd" stroke="none"/>
      <path d="M9.25 83.8 L33.25 66.25 11.5 84.8 9.25 83.8" fill="#5e5a5b" fill-rule="evenodd" stroke="none"/>
      <path d="M39.4 20.85 L44.15 24.55 41.8 32.05 Q39.15 39.5 37.7 39.3 36.25 39.1 35.3 36.7 L34.7 34.3 39.4 20.85" fill="#303030" fill-rule="evenodd" stroke="none"/>
      <path d="M39.35 48.3 L34.0 66.0 24.85 66.3 30.7 49.65 31.3 52.15 Q32.25 54.5 33.7 53.65 36.0 52.3 39.35 48.3" fill="#242424" fill-rule="evenodd" stroke="none"/>
      <path d="M176.3 73.8 L174.0 73.65 172.0 73.65 181.5 71.8 185.35 79.65 Q182.35 78.0 180.7 76.3 179.2 74.85 176.3 73.8" fill="#301212" fill-rule="evenodd" stroke="none"/>
      <path d="M49.35 72.65 L55.35 75.0 45.0 80.3 49.0 76.0 Q49.7 75.0 49.35 72.65" fill="#301212" fill-rule="evenodd" stroke="none"/>
      <path d="M39.4 20.85 L45.0 23.3 44.7 26.3 39.4 20.85" fill="#5e5a5b" fill-rule="evenodd" stroke="none"/>
      <path d="M190.55 20.35 L186.05 24.35 186.2 23.0 190.55 20.35" fill="#5e5a5b" fill-rule="evenodd" stroke="none"/>
      <path d="M42.2 72.65 Q50.55 70.95 62.35 70.55 L82.6 71.3 Q91.0 72.4 91.05 74.4 91.15 76.4 82.8 78.1 74.45 79.8 62.6 80.2 L42.4 79.45 Q34.0 78.35 33.95 76.35 33.9 74.35 42.2 72.65" fill="url(#gradient0)" fill-rule="evenodd" stroke="none"/>
    </g>
    <radialGradient cx="0" cy="0" gradientTransform="matrix(0.0335, -0.0011, -2.0E-4, -0.0056, 62.5, 75.4)" gradientUnits="userSpaceOnUse" id="gradient0" r="819.2" spreadMethod="pad">
      <stop offset="0.07450980392156863" stop-color="#000000" stop-opacity="0.29803923"/>
      <stop offset="1.0" stop-color="#000000" stop-opacity="0.0"/>
    </radialGradient>
    <g id="sprite3" transform="matrix(1.0, 0.0, 0.0, 1.0, 0.0, 0.0)">
      <use height="8.0" transform="matrix(1.0, 0.0, 0.0, 1.0, 0.0, 0.0)" width="45.85" xlink:href="#shape4"/>
    </g>
    <g id="shape4" transform="matrix(1.0, 0.0, 0.0, 1.0, 0.0, 0.0)">
      <path d="M43.75 4.65 L25.55 6.7 5.95 8.0 Q3.15 7.8 1.3 6.7 0.4 6.15 0.0 5.65 3.2 4.15 8.75 2.7 19.75 -0.2 31.25 0.0 43.2 0.2 45.4 2.2 46.2 2.9 45.5 3.7 44.9 4.35 43.75 4.65" fill="#1c1b1b" fill-rule="evenodd" stroke="none"/>
    </g>
    <g id="shape5" transform="matrix(1.0, 0.0, 0.0, 1.0, -42.65, -44.85)">
      <path d="M46.15 62.45 L45.8 55.75 Q45.65 54.4 44.15 51.4 42.7 48.55 42.65 47.35 42.6 45.9 47.65 45.6 L54.8 45.35 59.6 45.2 Q68.75 44.45 73.6 45.4 74.15 45.2 77.55 45.45 81.45 45.7 81.9 46.6 82.5 48.0 81.9 50.35 81.1 53.65 81.25 57.25 L81.2 62.85 Q81.25 67.4 82.05 68.75 83.0 70.3 83.05 72.75 83.1 75.1 82.3 75.8 81.75 76.35 79.45 76.45 L75.1 76.7 70.2 77.3 65.75 77.7 60.0 78.1 54.0 78.75 Q51.25 79.1 49.05 78.85 46.1 78.55 45.45 77.15 44.9 75.95 45.8 72.4 L46.55 68.2 Q46.3 67.45 46.15 62.45" fill="#333232" fill-rule="evenodd" stroke="none"/>
      <path d="M54.8 60.2 L55.75 59.15 54.9 58.95 Q55.3 57.9 56.5 57.85 L54.85 56.05 53.0 54.5 Q53.5 54.05 54.35 54.1 L55.9 54.35 54.0 52.9 52.45 51.25 57.55 51.5 55.15 51.45 Q56.3 51.65 58.45 53.25 L57.95 52.35 Q58.45 52.45 59.15 52.85 L60.25 53.5 Q60.05 51.8 60.35 50.4 62.9 53.15 64.0 53.95 L64.4 52.6 65.0 52.95 65.65 53.35 65.95 52.7 67.4 53.8 Q67.3 51.25 67.75 50.2 L69.5 52.8 Q69.5 51.6 70.0 50.35 L71.1 51.45 72.25 52.65 73.0 51.85 Q73.3 51.75 73.9 52.2 74.2 51.9 74.8 51.65 L75.7 51.25 75.6 52.9 77.8 51.9 Q79.2 51.15 79.9 50.95 L78.85 52.8 Q78.1 53.9 77.9 54.65 L78.8 53.9 78.1 57.8 77.3 61.65 77.9 61.8 77.4 63.4 Q79.15 64.3 79.35 65.95 L78.9 66.0 Q78.65 67.45 79.55 68.7 L80.95 70.85 Q79.35 69.55 78.45 69.0 76.75 68.0 76.75 69.85 L75.85 68.1 75.7 68.8 Q75.3 67.55 74.2 66.45 L73.6 67.2 73.0 67.9 72.35 67.1 71.75 66.3 71.0 66.9 70.25 67.6 68.45 66.0 67.95 66.8 67.55 67.6 67.0 66.85 Q65.95 68.95 65.0 69.35 L65.05 68.45 63.8 70.35 Q62.95 71.35 62.2 70.7 L61.35 71.3 60.5 71.8 61.05 71.05 61.7 70.4 57.5 72.35 Q54.95 73.55 53.15 73.85 53.35 73.3 54.15 72.5 55.0 71.7 55.15 71.1 L52.9 71.3 54.05 70.2 55.1 69.1 53.35 69.25 51.6 69.15 54.3 67.4 Q56.05 66.35 56.75 65.5 54.65 65.8 53.2 65.55 53.65 65.0 54.75 64.45 56.0 63.9 56.45 63.45 L53.2 63.35 56.0 60.4 54.8 60.2" fill="#3c3b3b" fill-rule="evenodd" stroke="none"/>
      <path d="M45.8 55.75 Q45.65 54.5 44.6 52.3 L43.0 48.85 Q45.6 49.5 46.6 50.45 47.5 51.35 48.55 54.55 49.7 57.85 49.9 60.55 L49.0 69.15 Q48.3 75.2 49.45 75.9 L54.5 76.05 Q57.45 75.5 59.4 74.65 L68.5 74.05 78.0 74.0 Q79.65 73.95 82.75 75.05 L82.3 75.8 Q81.75 76.35 79.45 76.45 L75.1 76.7 70.2 77.3 65.75 77.7 60.0 78.1 54.0 78.75 Q51.25 79.1 49.05 78.85 46.1 78.55 45.45 77.15 44.9 75.95 45.8 72.4 L46.55 68.2 Q46.3 67.45 46.15 62.45 L45.8 55.75" fill="#292828" fill-rule="evenodd" stroke="none"/>
      <path d="M49.25 47.4 L45.5 47.2 42.65 47.35 Q42.6 45.9 47.65 45.6 L54.8 45.35 59.6 45.2 Q68.75 44.45 73.6 45.4 74.15 45.2 77.55 45.45 81.45 45.7 81.9 46.6 L79.95 48.15 76.65 48.05 Q74.6 47.8 70.05 47.9 L61.45 48.05 49.25 47.4" fill="#403f3f" fill-rule="evenodd" stroke="none"/>
      <path d="M43.1 47.6 Q43.35 46.15 50.45 45.85 L59.4 45.65 Q61.3 45.45 64.2 45.55 L69.1 45.75 74.8 45.45 Q78.45 45.4 80.35 46.5 78.4 48.0 78.9 50.55 78.05 48.9 77.15 48.4 76.5 49.85 76.4 50.5 75.85 49.0 75.05 48.2 L75.05 50.55 Q74.15 48.75 72.9 47.9 L72.75 48.85 Q71.8 47.5 70.6 47.5 69.65 47.55 68.1 48.4 67.25 47.35 66.0 47.45 L65.7 48.25 65.4 49.0 64.4 47.8 Q64.25 49.1 64.4 50.4 63.8 48.5 62.3 47.6 60.65 46.5 59.75 48.7 L58.55 48.15 58.4 48.8 58.15 48.6 57.85 48.35 57.7 49.65 Q55.35 47.85 50.35 47.15 44.55 46.4 44.0 49.5 43.35 49.15 43.1 48.4 42.85 47.7 43.15 47.15 L43.1 47.6" fill="#403f3f" fill-rule="evenodd" stroke="none"/>
      <path d="M44.7 49.6 Q45.55 49.6 47.7 50.8 49.6 51.85 50.7 52.7 L48.45 52.95 50.15 54.15 49.3 54.15 Q50.25 55.05 51.3 55.4 48.5 55.05 50.05 56.7 L53.0 59.05 51.35 59.1 Q50.35 59.2 49.85 59.7 L50.3 60.25 49.3 61.1 50.2 61.25 51.05 61.4 50.15 63.4 48.95 65.35 52.7 65.85 50.4 67.15 Q49.05 68.0 48.45 69.05 L49.7 68.95 Q49.25 69.25 49.1 69.7 L48.75 70.6 49.35 70.75 Q48.0 73.8 48.35 75.6 48.8 77.9 52.1 77.55 53.9 77.3 56.2 75.85 58.65 74.3 59.55 72.65 59.35 73.25 59.4 74.55 L63.3 73.1 Q65.45 72.05 66.0 70.2 65.65 71.65 65.6 72.45 67.85 71.7 68.6 68.1 68.4 69.8 69.35 70.6 L69.65 69.9 70.05 70.4 Q71.05 69.95 71.9 68.95 L71.65 72.15 Q72.05 71.05 73.0 71.7 L74.65 73.2 74.85 71.55 76.7 73.1 76.9 72.25 77.15 71.55 77.8 72.35 78.3 73.3 78.55 72.2 78.9 71.25 Q79.55 73.8 81.2 74.95 L71.15 75.55 61.2 76.7 55.3 77.85 49.4 78.25 46.95 78.15 Q46.1 77.6 46.15 77.2 L46.45 75.9 46.75 73.05 46.8 70.15 Q46.6 68.05 46.55 64.45 L46.4 58.8 Q46.05 53.25 45.15 49.9 L44.7 49.6" fill="#242323" fill-rule="evenodd" stroke="none"/>
    </g>
    <g id="sprite4" transform="matrix(1.0, 0.0, 0.0, 1.0, 0.0, 0.0)">
      <use height="25.85" transform="matrix(1.0, 0.0, 0.0, 1.0, 0.0, 0.0)" width="34.35" xlink:href="#shape6"/>
    </g>
    <g id="shape6" transform="matrix(1.0, 0.0, 0.0, 1.0, 0.0, 0.0)">
      <path d="M33.2 0.0 L32.85 2.2 17.75 4.1 2.35 4.9 1.8 3.1 21.55 2.15 30.95 0.75 33.2 0.0" fill="#ffe2e2" fill-rule="evenodd" stroke="none"/>
      <path d="M34.05 15.85 L34.0 18.7 18.15 20.6 Q9.6 21.35 0.35 20.85 L1.35 19.15 21.55 18.2 31.05 16.75 34.05 15.85" fill="#ffe2e2" fill-rule="evenodd" stroke="none"/>
      <path d="M33.8 20.25 L33.75 22.1 18.35 23.9 0.0 25.85 0.35 23.15 21.8 22.15 Q30.4 21.4 33.8 20.25" fill="#ffe2e2" fill-rule="evenodd" stroke="none"/>
      <path d="M32.8 3.55 L32.4 4.9 17.3 6.6 1.9 7.6 1.45 6.55 21.15 5.25 Q30.7 4.45 32.8 3.55" fill="#ffe2e2" fill-rule="evenodd" stroke="none"/>
      <path d="M33.1 7.45 L33.5 8.9 18.35 10.75 2.95 11.6 2.45 10.05 22.2 8.95 Q31.75 8.15 33.1 7.45" fill="#ffe2e2" fill-rule="evenodd" stroke="none"/>
      <path d="M34.2 10.75 L33.8 12.2 18.65 13.95 3.3 14.9 2.8 13.75 22.55 12.55 Q32.1 11.7 34.2 10.75" fill="#ffe2e2" fill-rule="evenodd" stroke="none"/>
      <path d="M34.35 12.6 L33.95 13.7 18.8 15.35 3.4 16.4 3.0 15.55 22.7 14.2 Q32.25 13.4 34.35 12.6" fill="#ffe2e2" fill-rule="evenodd" stroke="none"/>
    </g>
    <g id="shape7" transform="matrix(1.0, 0.0, 0.0, 1.0, -42.2, -45.15)">
      <path d="M43.1 51.0 L43.35 51.6 42.75 48.95 Q43.1 50.25 45.45 52.0 47.8 53.7 48.0 55.2 L47.4 55.2 Q47.45 55.8 48.0 56.4 L48.75 57.55 48.6 59.2 48.2 60.75 Q48.1 61.75 48.35 63.75 48.55 65.65 48.35 66.8 47.85 70.9 47.85 72.3 L47.7 73.65 47.65 75.05 48.15 76.15 48.55 77.2 Q48.45 78.4 47.45 78.75 46.35 79.1 45.45 78.0 44.75 77.25 44.75 75.5 L44.95 72.7 Q45.65 65.2 45.5 61.7 45.3 56.7 43.1 51.0" fill="#1c1b1b" fill-rule="evenodd" stroke="none"/>
      <path d="M45.4 47.45 L47.55 47.65 51.0 47.95 54.35 47.95 Q55.7 48.05 56.0 48.65 56.05 48.5 56.5 48.95 L57.0 49.25 58.15 49.05 59.25 48.8 Q59.35 47.7 61.1 47.6 L63.8 47.6 64.2 48.05 64.55 48.4 65.35 48.15 66.1 47.9 68.7 47.8 Q70.4 47.7 71.15 48.25 L71.6 47.95 72.1 47.95 72.7 47.75 74.8 49.3 74.95 48.35 75.65 48.65 76.25 49.2 76.9 48.65 77.5 49.05 77.6 48.7 78.25 49.05 Q78.3 48.25 79.45 47.8 L81.4 47.4 79.6 48.15 Q78.65 48.75 78.8 49.75 L77.35 49.3 75.8 49.6 Q75.0 49.75 74.55 50.5 74.05 50.0 73.2 49.6 L71.75 48.9 69.85 49.1 67.7 48.8 63.9 49.0 Q63.1 48.15 61.65 48.45 60.2 48.8 59.85 49.85 L59.1 49.45 57.75 49.55 Q57.1 50.7 56.4 50.2 55.55 49.35 55.05 49.15 53.8 48.65 51.5 48.65 L47.8 48.65 Q45.3 48.4 44.5 47.4 L45.4 47.45" fill="#5a5959" fill-rule="evenodd" stroke="none"/>
      <path d="M48.85 52.05 L50.05 52.25 50.8 53.2 49.6 53.55 50.9 56.5 Q51.65 58.05 52.9 59.15 50.25 59.3 48.55 56.7 L49.3 56.75 49.15 53.5 Q48.85 52.05 47.85 51.1 L48.05 51.2 48.6 51.35 48.85 52.05" fill="#4d4d4d" fill-rule="evenodd" stroke="none"/>
      <path d="M51.6 64.75 L51.65 64.4 51.6 65.35 52.45 65.55 53.3 65.65 51.2 67.15 Q49.85 68.15 49.4 69.2 49.0 70.2 49.2 72.85 49.35 74.95 48.0 76.3 48.25 72.5 48.6 70.7 49.2 67.55 51.3 66.1 L49.65 65.75 Q50.35 64.65 51.6 64.75" fill="#4d4d4d" fill-rule="evenodd" stroke="none"/>
      <path d="M42.75 48.9 L44.25 49.95 46.3 52.05 Q46.65 52.65 46.9 56.05 47.1 59.25 47.65 59.7 L50.8 62.3 48.95 65.35 51.3 66.1 49.8 67.45 Q48.35 68.85 48.45 69.05 48.6 69.35 46.85 74.2 45.55 71.05 45.65 69.8 L45.75 65.25 Q45.6 61.25 44.8 58.9 44.0 56.6 43.3 52.55 L42.75 48.9" fill="#0a0909" fill-rule="evenodd" stroke="none"/>
      <path d="M48.6 46.0 L49.5 45.85 Q52.0 46.05 56.7 45.7 L63.9 45.4 67.5 45.3 71.1 45.2 75.15 45.25 Q78.0 45.4 78.6 46.2 77.9 46.15 76.9 46.6 L75.2 47.15 71.3 47.05 67.4 46.55 61.3 45.95 Q56.65 45.8 56.15 47.3 55.05 46.6 52.45 46.3 L48.6 46.0" fill="#4d4d4d" fill-rule="evenodd" stroke="none"/>
      <path d="M44.35 58.2 Q45.5 59.05 47.1 60.75 L46.6 60.55 46.95 61.6 47.45 62.65 46.35 62.4 Q46.65 63.3 47.45 64.45 L46.9 64.1 46.85 65.85 46.3 65.4 Q45.9 65.9 45.75 67.45 45.6 69.05 45.25 69.55 44.75 68.4 45.15 66.5 L45.6 63.4 45.2 60.65 Q44.85 59.1 44.35 58.25 L44.8 59.0 44.65 58.55 44.35 58.2" fill="#1c1b1b" fill-rule="evenodd" stroke="none"/>
      <path d="M42.2 47.8 L42.35 47.35 Q42.45 46.55 42.9 46.35 44.0 47.85 45.0 47.45 45.15 48.05 45.8 48.8 L46.65 50.0 Q46.95 50.9 46.35 54.3 L45.5 52.4 45.4 53.45 44.45 51.45 Q43.7 50.3 43.75 51.95 L43.35 50.9 43.05 49.8 Q42.45 47.55 42.2 47.8" fill="#1c1b1b" fill-rule="evenodd" stroke="none"/>
      <path d="M45.35 73.25 L45.6 70.65 46.3 72.05 Q46.1 70.35 47.15 69.7 47.2 71.65 46.7 75.35 L45.7 74.05 45.35 73.25" fill="#1c1b1b" fill-rule="evenodd" stroke="none"/>
      <path d="M47.4 75.3 Q48.9 77.0 48.45 78.6 47.45 79.1 46.75 78.9 46.0 78.65 45.4 77.55 L45.4 78.05 44.95 76.1 Q45.65 77.2 46.85 77.5 L46.65 76.35 47.25 77.0 47.4 75.3" fill="#0a0909" fill-rule="evenodd" stroke="none"/>
      <path d="M54.45 78.4 Q56.4 78.1 58.85 77.2 L65.05 75.0 64.45 75.6 67.2 74.5 66.45 75.25 69.7 73.45 Q69.45 74.0 69.15 75.6 L71.2 74.1 71.2 75.3 74.35 75.45 Q76.4 75.75 77.5 76.3 L70.9 77.25 64.2 77.85 57.9 78.4 54.6 78.4 54.45 78.4" fill="#121111" fill-rule="evenodd" stroke="none"/>
      <path d="M139.25 74.4 Q139.35 72.4 147.75 71.3 L167.95 70.55 Q179.8 70.95 188.1 72.65 196.45 74.35 196.4 76.35 196.35 78.35 187.9 79.45 L167.7 80.2 Q155.85 79.8 147.55 78.1 139.2 76.4 139.25 74.4" fill="url(#gradient1)" fill-rule="evenodd" stroke="none"/>
    </g>
    <radialGradient cx="0" cy="0" gradientTransform="matrix(-0.0335, -0.0011, 2.0E-4, -0.0056, 167.85, 75.4)" gradientUnits="userSpaceOnUse" id="gradient1" r="819.2" spreadMethod="pad">
      <stop offset="0.07450980392156863" stop-color="#000000" stop-opacity="0.29803923"/>
      <stop offset="1.0" stop-color="#000000" stop-opacity="0.0"/>
    </radialGradient>
    <g id="sprite5" transform="matrix(1.0, 0.0, 0.0, 1.0, 0.05, 0.0)">
      <use height="8.0" transform="matrix(1.0, 0.0, 0.0, 1.0, -0.05, 0.0)" width="45.85" xlink:href="#shape8"/>
    </g>
    <g id="shape8" transform="matrix(1.0, 0.0, 0.0, 1.0, 0.05, 0.0)">
      <path d="M45.8 5.65 Q45.45 6.15 44.5 6.7 42.65 7.8 39.85 8.0 L20.3 6.7 2.1 4.65 Q0.9 4.35 0.3 3.7 -0.4 2.9 0.4 2.2 2.6 0.2 14.55 0.0 26.1 -0.2 37.1 2.7 42.6 4.15 45.8 5.65" fill="#1c1b1b" fill-rule="evenodd" stroke="none"/>
    </g>
    <g id="shape9" transform="matrix(1.0, 0.0, 0.0, 1.0, -147.25, -44.85)">
      <path d="M184.2 62.45 L183.8 68.2 Q183.6 68.75 184.5 72.4 185.4 75.95 184.85 77.15 184.2 78.55 181.25 78.85 179.1 79.1 176.35 78.75 L170.35 78.1 164.6 77.7 155.25 76.7 150.85 76.45 Q148.55 76.35 148.0 75.8 147.2 75.1 147.25 72.75 147.35 70.3 148.3 68.75 149.1 67.4 149.15 62.85 L149.05 57.25 Q149.2 53.7 148.4 50.35 147.85 48.0 148.45 46.6 148.85 45.7 152.75 45.45 156.15 45.2 156.7 45.4 161.55 44.45 170.75 45.2 L175.5 45.35 182.65 45.6 Q187.7 45.9 187.65 47.35 187.6 48.55 186.15 51.4 184.65 54.4 184.5 55.75 L184.2 62.45" fill="#333232" fill-rule="evenodd" stroke="none"/>
      <path d="M156.4 52.2 Q157.05 51.75 157.35 51.85 L158.05 52.65 159.2 51.45 160.3 50.35 Q160.8 51.55 160.85 52.8 L162.6 50.2 Q163.1 51.45 162.9 53.8 L163.65 53.25 164.35 52.7 164.7 53.35 Q165.0 53.0 165.95 52.6 165.95 53.05 166.3 53.95 L169.95 50.4 Q170.25 51.6 170.05 53.5 L171.2 52.85 Q171.9 52.45 172.35 52.35 L171.9 53.25 Q174.05 51.65 175.2 51.45 L172.75 51.5 177.9 51.25 176.3 52.9 Q175.0 53.9 174.45 54.35 L175.95 54.1 Q176.8 54.05 177.3 54.5 L175.5 56.05 173.8 57.85 Q175.0 57.9 175.4 58.95 L174.6 59.15 175.5 60.2 174.35 60.4 175.65 61.9 177.1 63.35 175.5 63.45 173.85 63.45 175.6 64.45 Q176.7 65.0 177.1 65.55 175.75 65.8 173.55 65.5 174.3 66.35 176.0 67.4 L178.75 69.15 176.95 69.25 175.2 69.1 176.3 70.2 177.4 71.3 175.15 71.1 176.15 72.5 Q177.0 73.3 177.15 73.85 175.4 73.55 172.8 72.35 L168.6 70.4 169.3 71.05 169.8 71.8 168.1 70.7 Q167.35 71.35 166.55 70.35 L165.25 68.45 165.3 69.35 Q164.5 69.0 163.3 66.85 L162.8 67.6 162.35 66.8 161.9 66.0 160.05 67.6 159.3 66.9 158.6 66.3 158.0 67.1 157.35 67.9 156.75 67.2 156.1 66.45 Q155.15 67.4 154.6 68.8 L154.45 68.1 153.55 69.85 Q153.6 68.0 151.9 69.0 L149.4 70.85 Q149.5 70.4 150.75 68.7 151.65 67.45 151.4 66.0 L151.0 65.95 Q151.15 64.3 152.95 63.4 L152.7 62.6 152.4 61.8 153.0 61.65 152.2 57.8 151.5 53.9 152.45 54.65 151.5 52.8 150.4 50.95 Q151.15 51.15 152.5 51.9 L154.7 52.9 154.65 51.25 155.55 51.65 156.4 52.2" fill="#3c3b3b" fill-rule="evenodd" stroke="none"/>
      <path d="M184.5 55.75 L184.2 62.45 183.8 68.2 Q183.6 68.75 184.5 72.4 185.4 75.95 184.85 77.15 184.2 78.55 181.25 78.85 179.1 79.1 176.35 78.75 L170.35 78.1 164.6 77.7 155.25 76.7 150.85 76.45 Q148.55 76.35 148.0 75.8 L147.55 75.05 Q150.65 73.95 152.3 74.0 L161.8 74.05 170.9 74.65 Q172.85 75.5 175.85 76.05 L180.85 75.9 Q182.0 75.2 181.3 69.15 180.35 61.55 180.45 60.55 180.65 57.9 181.8 54.55 182.85 51.4 183.75 50.45 184.75 49.5 187.35 48.85 L185.75 52.3 Q184.65 54.5 184.5 55.75" fill="#292828" fill-rule="evenodd" stroke="none"/>
      <path d="M181.1 47.4 L168.9 48.05 160.25 47.9 Q155.7 47.8 153.65 48.05 L150.35 48.15 Q149.7 48.0 148.45 46.6 148.85 45.7 152.75 45.45 156.15 45.2 156.7 45.4 161.55 44.45 170.75 45.2 L175.5 45.35 182.65 45.6 Q187.7 45.9 187.65 47.35 182.25 46.95 181.1 47.4" fill="#403f3f" fill-rule="evenodd" stroke="none"/>
      <path d="M187.25 47.6 L187.2 47.15 Q187.45 47.7 187.2 48.4 186.95 49.15 186.3 49.5 185.75 46.4 180.0 47.15 175.0 47.85 172.6 49.65 L172.45 48.35 172.2 48.6 171.9 48.8 171.75 48.15 170.55 48.7 Q169.7 46.5 168.0 47.6 166.55 48.5 165.95 50.4 166.1 49.0 165.9 47.8 L164.95 49.0 164.65 48.25 164.3 47.45 Q163.05 47.35 162.2 48.4 160.65 47.55 159.75 47.5 158.55 47.5 157.55 48.85 L157.4 47.9 Q156.15 48.75 155.25 50.55 L155.25 48.2 Q154.4 49.15 153.9 50.5 L153.2 48.4 Q152.3 48.85 151.45 50.55 151.85 48.0 149.95 46.5 151.9 45.4 155.5 45.45 L161.25 45.75 166.1 45.55 Q169.0 45.45 170.9 45.65 L179.85 45.85 Q187.0 46.15 187.25 47.6" fill="#403f3f" fill-rule="evenodd" stroke="none"/>
      <path d="M185.6 49.6 L185.2 49.9 Q184.3 53.25 183.95 58.8 L183.8 64.45 183.5 70.15 183.55 73.05 183.85 75.9 184.2 77.2 183.4 78.15 182.2 78.35 180.9 78.25 175.05 77.85 169.15 76.7 159.15 75.55 149.1 74.95 Q150.85 73.75 151.4 71.25 L151.75 72.2 152.0 73.3 152.55 72.35 153.2 71.55 153.4 72.25 153.6 73.1 155.45 71.55 155.55 72.4 155.65 73.2 157.3 71.7 Q158.25 71.05 158.65 72.15 L158.4 68.95 Q159.25 69.95 160.25 70.4 L160.65 69.9 160.75 70.3 161.0 70.6 Q161.95 69.75 161.7 67.95 162.45 71.7 164.7 72.45 L164.4 70.25 Q164.9 72.05 167.05 73.1 L170.95 74.55 170.8 72.65 Q171.65 74.25 174.1 75.85 176.45 77.3 178.2 77.55 181.55 77.9 182.0 75.6 182.35 73.8 180.95 70.75 L181.55 70.6 181.25 69.7 180.65 68.95 181.3 69.0 181.9 69.05 Q181.35 68.0 179.9 67.15 L177.6 65.85 181.35 65.35 180.2 63.4 Q179.4 62.15 179.25 61.4 L180.15 61.25 181.0 61.1 180.0 60.25 180.45 59.7 Q179.95 59.2 179.0 59.1 L177.3 59.05 180.25 56.7 Q181.8 55.05 179.0 55.4 180.0 55.05 181.0 54.15 L180.2 54.15 181.85 52.95 179.6 52.7 Q180.8 51.8 182.6 50.8 184.75 49.6 185.6 49.6" fill="#242323" fill-rule="evenodd" stroke="none"/>
    </g>
    <g id="sprite6" transform="matrix(1.0, 0.0, 0.0, 1.0, 0.0, 0.0)">
      <use height="25.85" transform="matrix(1.0, 0.0, 0.0, 1.0, 0.0, 0.0)" width="34.35" xlink:href="#shape10"/>
    </g>
    <g id="shape10" transform="matrix(1.0, 0.0, 0.0, 1.0, 0.0, 0.0)">
      <path d="M1.2 0.0 L3.4 0.75 12.8 2.15 32.55 3.1 32.05 4.9 16.6 4.1 1.5 2.2 1.2 0.0" fill="#ffe2e2" fill-rule="evenodd" stroke="none"/>
      <path d="M0.35 15.85 L3.35 16.75 Q7.45 17.75 12.85 18.2 L33.05 19.15 34.05 20.85 Q24.75 21.35 16.25 20.6 L0.35 18.7 0.35 15.85" fill="#ffe2e2" fill-rule="evenodd" stroke="none"/>
      <path d="M0.55 20.25 Q3.95 21.4 12.55 22.15 L34.05 23.15 34.35 25.85 16.0 23.9 0.65 22.1 0.55 20.25" fill="#ffe2e2" fill-rule="evenodd" stroke="none"/>
      <path d="M1.55 3.55 Q3.65 4.45 13.2 5.25 L32.95 6.55 32.5 7.6 17.1 6.6 1.95 4.9 1.55 3.55" fill="#ffe2e2" fill-rule="evenodd" stroke="none"/>
      <path d="M1.3 7.45 Q2.6 8.15 12.15 8.95 L31.9 10.05 31.4 11.6 16.0 10.75 0.85 8.9 1.3 7.45" fill="#ffe2e2" fill-rule="evenodd" stroke="none"/>
      <path d="M0.15 10.75 Q2.3 11.7 11.85 12.55 L31.55 13.75 31.1 14.9 15.7 13.95 0.55 12.2 0.15 10.75" fill="#ffe2e2" fill-rule="evenodd" stroke="none"/>
      <path d="M0.0 12.6 Q2.15 13.4 11.65 14.2 L31.4 15.55 30.95 16.4 15.55 15.35 0.4 13.7 0.0 12.6" fill="#ffe2e2" fill-rule="evenodd" stroke="none"/>
    </g>
    <g id="shape11" transform="matrix(1.0, 0.0, 0.0, 1.0, -39.4, -20.0)">
      <path d="M187.55 48.95 L187.05 51.5 Q185.05 56.75 184.8 61.7 184.65 65.5 185.4 72.7 L185.6 75.5 Q185.55 77.2 184.9 78.0 183.95 79.1 182.9 78.75 181.85 78.4 181.8 77.2 L182.15 76.15 182.65 75.05 182.65 73.65 182.45 72.3 Q182.5 70.5 181.95 66.8 181.8 65.65 182.0 63.75 L182.1 60.75 181.7 59.2 Q181.45 58.15 181.6 57.55 181.7 57.05 182.3 56.4 L182.95 55.2 182.3 55.2 Q182.5 53.7 184.85 52.0 187.25 50.25 187.55 48.95" fill="#1c1b1b" fill-rule="evenodd" stroke="none"/>
      <path d="M184.9 47.45 L185.8 47.4 Q185.05 48.4 182.55 48.65 L178.8 48.65 Q176.5 48.65 175.25 49.15 L173.95 50.2 Q173.2 50.7 172.6 49.55 L171.2 49.45 Q170.9 49.75 170.45 49.85 170.1 48.8 168.7 48.45 167.25 48.15 166.45 49.0 L164.55 48.85 162.6 48.8 160.45 49.1 158.6 48.9 157.15 49.6 Q156.25 50.0 155.75 50.5 155.3 49.75 154.5 49.6 L152.95 49.3 152.25 49.55 151.5 49.75 Q151.65 48.75 150.75 48.15 L148.9 47.4 150.9 47.8 Q152.05 48.25 152.1 49.05 L152.7 48.7 152.85 49.05 153.45 48.65 154.05 49.2 154.7 48.65 155.4 48.35 155.5 49.3 157.6 47.75 158.7 47.95 159.15 48.25 Q159.9 47.7 161.6 47.8 L164.25 47.9 165.0 48.15 Q165.7 48.3 165.8 48.4 L166.15 48.05 166.5 47.6 169.25 47.6 Q171.0 47.7 171.05 48.8 L172.2 49.05 173.3 49.25 173.8 48.95 Q174.3 48.5 174.3 48.65 174.65 48.05 176.0 47.95 L179.35 47.95 182.8 47.65 184.9 47.45" fill="#5a5959" fill-rule="evenodd" stroke="none"/>
      <path d="M181.5 52.05 L181.7 51.35 182.25 51.2 182.45 51.1 Q181.45 52.05 181.15 53.5 L181.05 56.75 181.8 56.7 Q180.1 59.3 177.4 59.15 178.65 58.05 179.4 56.5 L180.7 53.55 179.5 53.2 Q179.75 52.5 180.3 52.25 L181.5 52.05" fill="#4d4d4d" fill-rule="evenodd" stroke="none"/>
      <path d="M178.7 64.75 Q179.95 64.65 180.65 65.75 L179.0 66.1 Q181.1 67.55 181.75 70.7 L182.35 76.3 Q181.0 74.95 181.1 72.85 181.3 70.15 180.9 69.2 180.5 68.15 179.15 67.15 L177.0 65.65 178.7 65.35 178.7 64.4 178.7 64.75" fill="#4d4d4d" fill-rule="evenodd" stroke="none"/>
      <path d="M187.55 48.9 L187.0 52.55 Q186.3 56.6 185.5 58.9 184.7 61.25 184.55 65.25 L184.65 69.8 Q184.8 71.05 183.5 74.2 L182.65 71.75 Q181.8 69.25 181.9 69.05 182.05 68.7 179.0 66.1 L181.35 65.35 179.55 62.3 182.65 59.7 Q183.2 59.25 183.45 56.05 183.65 52.6 184.0 52.05 184.5 51.2 186.1 49.95 186.85 49.35 187.55 48.9" fill="#0a0909" fill-rule="evenodd" stroke="none"/>
      <path d="M181.7 46.0 L177.85 46.3 Q175.3 46.6 174.2 47.3 173.65 45.8 169.05 45.95 L162.95 46.55 159.05 47.05 155.15 47.15 153.45 46.6 Q152.4 46.15 151.7 46.2 152.35 45.4 155.15 45.25 L159.25 45.2 162.85 45.3 166.4 45.4 173.6 45.7 Q178.3 46.05 180.8 45.85 L181.7 46.0" fill="#4d4d4d" fill-rule="evenodd" stroke="none"/>
      <path d="M183.7 60.55 L183.25 60.75 Q184.7 59.1 186.0 58.15 L185.5 59.0 185.85 58.4 Q184.95 60.05 184.7 63.4 184.65 64.1 185.15 66.5 185.55 68.4 185.05 69.55 184.75 69.05 184.6 67.45 184.45 65.9 184.05 65.4 183.65 65.65 183.5 65.85 L183.4 64.1 182.9 64.45 183.95 62.4 182.85 62.65 Q183.65 61.25 183.7 60.55" fill="#1c1b1b" fill-rule="evenodd" stroke="none"/>
      <path d="M188.15 47.8 Q188.0 47.65 187.25 49.8 L186.95 50.9 186.6 51.95 Q186.65 50.3 185.9 51.45 L184.9 53.45 184.8 52.4 183.95 54.3 183.65 52.1 Q183.5 50.65 183.7 50.0 183.85 49.6 184.55 48.8 L185.3 47.45 Q186.35 47.85 187.4 46.35 187.85 46.55 187.95 47.35 L188.15 47.8" fill="#1c1b1b" fill-rule="evenodd" stroke="none"/>
      <path d="M184.95 73.25 L184.6 74.05 183.6 75.35 Q183.15 71.25 183.2 69.7 184.2 70.4 184.0 72.05 L184.7 70.65 184.95 73.25" fill="#1c1b1b" fill-rule="evenodd" stroke="none"/>
      <path d="M184.95 78.05 L184.9 77.55 Q183.9 79.6 181.85 78.6 181.4 77.05 182.95 75.3 L183.1 77.0 183.65 76.35 183.5 77.5 Q184.65 77.15 185.35 76.1 L184.95 78.05" fill="#0a0909" fill-rule="evenodd" stroke="none"/>
      <path d="M177.8 78.6 L178.3 79.05 Q177.9 78.75 177.25 78.6 L177.8 78.6 M159.1 75.3 L159.1 74.1 161.15 75.6 160.6 73.45 Q163.25 75.05 163.85 75.25 L163.15 74.5 165.9 75.6 165.25 75.0 171.45 77.2 175.85 78.4 175.7 78.4 172.4 78.4 166.1 77.85 159.45 77.25 152.8 76.3 Q153.9 75.75 155.95 75.45 L159.1 75.3" fill="#121111" fill-rule="evenodd" stroke="none"/>
      <path d="M42.9 24.8 L39.7 20.3 190.35 20.0 187.25 24.55 42.9 24.8" fill="#404040" fill-rule="evenodd" stroke="none"/>
      <path d="M190.95 21.0 L186.7 24.8 151.75 23.8 165.25 23.65 182.6 23.3 Q185.85 23.15 188.75 22.05 L190.95 21.0" fill="#2b2b2b" fill-rule="evenodd" stroke="none"/>
      <path d="M40.05 20.6 L41.4 21.15 Q43.5 21.85 47.55 22.3 49.8 22.6 88.2 23.35 L126.1 24.05 44.15 24.55 39.4 20.85 40.05 20.6" fill="#2b2b2b" fill-rule="evenodd" stroke="none"/>
      <path d="M81.1 21.35 L61.0 20.3 178.1 20.8 Q131.3 22.8 114.1 22.55 L81.1 21.35" fill="#474747" fill-rule="evenodd" stroke="none"/>
      <path d="M43.8 23.15 L185.75 23.15 185.75 24.0 43.05 24.0 43.8 23.15" fill="#5e5a5b" fill-rule="evenodd" stroke="none"/>
    </g>
    <g id="sprite7" transform="matrix(1.0, 0.0, 0.0, 1.0, 0.0, 0.0)">
      <use height="20.0" transform="matrix(1.0, 0.0, 0.0, 1.0, 0.0, 0.0)" width="188.0" xlink:href="#sprite8"/>
    </g>
    <g id="sprite8" transform="matrix(1.0, 0.0, 0.0, 1.0, 0.0, 0.0)">
      <use height="20.0" transform="matrix(1.0, 0.0, 0.0, 1.0, 0.0, 0.0)" width="188.0" xlink:href="#shape12"/>
    </g>
    <g id="shape12" transform="matrix(1.0, 0.0, 0.0, 1.0, 0.0, 0.0)">
      <path d="M188.0 20.0 L0.0 20.0 22.0 2.6 167.0 0.0 188.0 20.0" fill="#000000" fill-rule="evenodd" stroke="none"/>
    </g>
  </defs>
</svg>
