<?xml version="1.0" encoding="UTF-8" standalone="no"?>
<svg xmlns:xlink="http://www.w3.org/1999/xlink" height="172.35px" width="171.75px" xmlns="http://www.w3.org/2000/svg">
  <g transform="matrix(1.0, 0.0, 0.0, 1.0, 0.0, 0.0)">
    <use height="172.35" transform="matrix(1.0, 0.0, 0.0, 1.0, 0.0, 0.0)" width="171.75" xlink:href="#shape0"/>
    <use height="118.65" transform="matrix(1.0, 0.0, 0.0, 1.0, 26.45, 24.4)" width="118.85" xlink:href="#sprite0"/>
    <use height="95.2" transform="matrix(1.0, 0.0, 0.0, 1.0, 47.4, 37.9)" width="78.2" xlink:href="#shape2"/>
    <use height="50.8" transform="matrix(1.0, 0.0, 0.0, 1.0, 38.9, 83.25)" width="50.85" xlink:href="#sprite1"/>
    <use height="25.75" transform="matrix(1.0, 0.0, 0.0, 1.0, 51.45, 95.8)" width="25.8" xlink:href="#sprite2"/>
    <use height="7.0" transform="matrix(1.0, 0.0, 0.0, 1.0, 54.3, 100.55)" width="4.9" xlink:href="#shape6"/>
    <use height="12.35" transform="matrix(1.0, 0.0, 0.0, 1.0, 55.3, 107.1)" width="20.1" xlink:href="#sprite3"/>
    <use height="21.35" transform="matrix(1.0, 0.0, 0.0, 1.0, 103.65, 72.7)" width="21.35" xlink:href="#sprite5"/>
    <use height="10.8" transform="matrix(1.0, 0.0, 0.0, 1.0, 108.9, 77.95)" width="10.85" xlink:href="#sprite6"/>
    <use height="2.9" transform="matrix(1.0, 0.0, 0.0, 1.0, 110.1, 79.95)" width="2.1" xlink:href="#shape11"/>
    <use height="5.2" transform="matrix(1.0, 0.0, 0.0, 1.0, 110.55, 82.7)" width="8.45" xlink:href="#sprite7"/>
    <use height="83.05" transform="matrix(1.0, 0.0, 0.0, 1.0, 42.15, 47.85)" width="83.1" xlink:href="#sprite9"/>
    <use height="42.1" transform="matrix(1.0, 0.0, 0.0, 1.0, 62.65, 68.35)" width="42.1" xlink:href="#sprite10"/>
    <use height="11.4" transform="matrix(1.0, 0.0, 0.0, 1.0, 67.35, 76.15)" width="7.95" xlink:href="#shape14"/>
    <use height="20.2" transform="matrix(1.0, 0.0, 0.0, 1.0, 69.0, 86.8)" width="32.85" xlink:href="#sprite11"/>
    <use height="46.35" transform="matrix(1.0, 0.0, 0.0, 1.0, 86.45, 93.35)" width="46.4" xlink:href="#sprite13"/>
    <use height="23.45" transform="matrix(1.0, 0.0, 0.0, 1.0, 97.9, 104.8)" width="23.5" xlink:href="#sprite14"/>
    <use height="6.4" transform="matrix(1.0, 0.0, 0.0, 1.0, 100.5, 109.15)" width="4.45" xlink:href="#shape16"/>
    <use height="11.25" transform="matrix(1.0, 0.0, 0.0, 1.0, 101.45, 115.1)" width="18.3" xlink:href="#sprite15"/>
    <use height="57.1" transform="matrix(1.0, 0.0, 0.0, 1.0, 26.5, 85.95)" width="118.7" xlink:href="#sprite17"/>
    <use height="61.3" transform="matrix(1.0, 0.0, 0.0, 1.0, 31.3, 27.15)" width="110.05" xlink:href="#sprite18"/>
  </g>
  <defs>
    <g id="shape0" transform="matrix(1.0, 0.0, 0.0, 1.0, 0.0, 0.0)">
      <path d="M109.7 3.4 L109.3 30.2 109.25 52.1 Q109.2 65.0 108.7 74.1 L108.35 79.0 107.8 84.2 Q107.45 87.35 107.7 89.35 107.7 93.65 108.15 100.15 L108.45 103.7 Q110.35 116.0 109.6 135.5 108.55 162.65 108.65 167.45 L108.6 168.65 105.75 169.4 105.85 166.1 Q107.95 144.8 108.2 137.7 108.75 121.7 106.1 109.55 L104.8 104.9 103.3 100.15 Q102.2 97.15 103.5 92.0 105.05 85.9 104.9 83.65 L105.2 78.8 Q105.8 70.4 105.4 57.15 L104.8 35.2 105.1 2.2 109.7 3.4" fill="#d99e58" fill-rule="evenodd" stroke="none"/>
      <path d="M114.7 47.85 L114.75 44.45 Q115.05 31.2 115.15 5.15 L116.5 5.7 116.05 26.0 Q115.8 38.2 116.1 46.4 L116.05 50.45 Q115.9 61.75 115.15 70.95 L114.5 80.15 Q113.5 95.95 113.4 125.1 112.95 108.5 113.65 97.6 L113.75 93.95 Q113.9 84.1 114.4 75.55 L114.65 65.15 Q114.55 55.55 114.7 47.85" fill="#d99e58" fill-rule="evenodd" stroke="none"/>
      <path d="M117.15 49.3 Q116.8 40.6 117.05 27.65 L117.5 6.1 122.45 8.2 122.0 29.55 Q121.75 42.4 121.95 50.9 L121.9 55.55 121.75 69.7 121.65 74.4 121.65 78.9 121.45 83.4 118.45 121.3 Q117.3 142.85 119.5 159.5 119.7 161.9 119.2 165.0 L114.7 166.75 115.1 162.45 115.6 121.95 Q115.85 97.25 116.3 81.45 L116.85 73.55 Q117.25 66.2 117.15 54.0 L117.15 49.3" fill="#d99e58" fill-rule="evenodd" stroke="none"/>
      <path d="M110.5 30.2 L110.9 3.75 114.15 4.85 114.15 7.05 Q114.4 12.95 114.05 23.4 113.65 35.45 113.7 39.9 L113.65 45.35 113.45 56.2 113.3 61.65 112.75 75.25 112.5 79.75 Q111.9 86.85 112.0 96.1 L112.05 99.4 Q112.1 110.1 112.85 131.55 113.3 150.85 112.1 163.95 L111.85 167.35 111.85 167.7 109.3 168.45 109.3 167.0 Q110.7 144.4 110.9 134.3 111.25 116.0 109.5 101.75 L109.25 98.5 Q108.65 89.2 109.1 82.25 L109.45 76.95 Q111.2 49.7 110.5 30.2" fill="#d99e58" fill-rule="evenodd" stroke="none"/>
      <path d="M123.7 31.25 L124.0 9.0 125.0 9.5 124.65 30.5 Q124.4 43.65 124.45 51.55 L124.35 76.45 124.55 82.45 124.25 88.4 Q121.15 104.0 120.9 125.2 120.8 130.85 121.45 161.95 L121.5 163.95 121.2 164.1 120.5 157.05 Q119.25 141.55 120.65 119.75 122.65 94.95 123.35 82.4 L123.3 76.3 123.45 53.45 123.7 31.25" fill="#d99e58" fill-rule="evenodd" stroke="none"/>
      <path d="M137.7 36.65 L135.7 16.0 Q138.25 17.85 139.9 19.25 140.35 31.5 141.6 39.8 142.1 45.5 141.1 56.0 L140.7 60.6 Q139.7 71.6 139.4 77.1 L139.25 80.4 139.1 92.65 138.55 106.45 Q137.9 116.95 138.15 129.9 138.3 138.05 139.05 153.2 L135.4 155.95 Q134.2 141.2 133.8 132.6 133.15 119.7 133.5 109.1 L133.8 103.65 135.2 94.25 135.7 89.95 135.8 85.7 136.55 72.95 137.6 62.25 138.05 57.35 Q138.7 48.7 137.7 36.65" fill="#d99e58" fill-rule="evenodd" stroke="none"/>
      <path d="M127.6 35.05 L127.25 10.7 133.75 14.65 134.1 21.45 Q134.5 32.2 136.4 40.95 137.15 48.25 136.75 54.3 L135.25 60.75 134.55 65.7 134.1 69.85 133.8 73.95 Q133.6 76.9 133.75 80.9 L134.05 87.6 134.05 90.75 132.35 100.0 Q126.55 127.9 132.4 154.4 L133.05 157.55 Q130.15 159.5 125.75 161.9 L124.9 157.05 123.8 150.6 Q123.1 142.35 122.8 135.15 122.75 125.4 124.35 111.4 L127.1 88.0 127.4 84.1 Q127.85 78.05 127.65 72.35 L127.95 59.45 127.6 35.05" fill="#d99e58" fill-rule="evenodd" stroke="none"/>
      <path d="M125.45 32.85 L125.65 9.8 126.3 10.15 126.7 33.4 127.1 56.6 126.95 73.6 126.95 84.65 126.8 88.25 Q121.6 108.2 122.8 135.15 122.8 143.15 123.8 150.6 L124.9 162.3 123.3 163.15 122.95 160.0 Q118.25 126.55 125.3 88.4 L125.85 82.5 125.95 76.55 126.0 72.55 125.95 60.65 125.85 55.85 Q125.4 45.95 125.45 32.85" fill="#d99e58" fill-rule="evenodd" stroke="none"/>
      <path d="M76.7 0.5 L76.75 17.35 Q77.1 43.9 76.6 76.6 L75.25 135.8 75.25 141.9 75.7 152.55 76.3 161.8 76.7 171.0 76.7 171.25 72.55 170.7 72.05 160.45 71.35 150.15 70.95 138.35 Q70.9 113.25 71.7 63.15 L71.9 59.9 Q72.45 53.85 72.45 46.45 L72.1 33.05 72.35 16.5 72.15 10.85 72.15 1.15 76.7 0.5" fill="#d99e58" fill-rule="evenodd" stroke="none"/>
      <path d="M83.15 0.1 L83.2 26.25 83.45 54.55 83.65 83.0 Q83.65 87.6 82.65 109.25 81.85 125.25 82.8 135.6 L82.85 140.6 82.7 150.55 82.7 171.65 81.35 171.6 81.3 152.15 80.85 138.15 Q80.8 125.2 81.6 80.0 82.25 43.8 81.6 21.75 L81.55 0.15 83.15 0.1" fill="#d99e58" fill-rule="evenodd" stroke="none"/>
      <path d="M80.65 0.2 L80.7 20.9 80.55 79.8 Q80.2 112.2 79.1 138.6 L79.2 143.15 79.6 147.65 79.95 152.35 Q80.6 160.75 80.4 166.2 L80.3 171.55 77.9 171.35 77.85 170.55 77.05 161.3 76.85 158.2 76.55 152.05 76.45 147.4 Q76.3 144.95 76.3 142.4 L76.5 137.4 77.8 77.85 Q78.4 43.4 77.8 18.25 L77.8 0.4 80.65 0.2" fill="#d99e58" fill-rule="evenodd" stroke="none"/>
      <path d="M84.1 24.05 L84.1 0.05 85.85 0.0 91.45 0.2 91.45 52.8 91.4 62.7 91.3 67.65 90.95 86.8 90.9 90.65 Q90.7 95.1 90.8 101.3 L90.9 111.45 Q90.7 118.1 91.1 128.1 L91.7 144.7 91.75 149.4 91.65 158.75 92.0 162.0 Q92.5 165.75 93.55 171.35 L85.85 171.75 83.5 171.65 83.95 153.25 83.95 138.2 Q83.0 117.85 83.75 81.25 84.6 41.4 84.1 24.05" fill="#d99e58" fill-rule="evenodd" stroke="none"/>
      <path d="M101.8 32.4 L101.75 21.2 Q101.65 10.3 101.8 1.5 L103.0 1.75 Q102.75 15.25 103.35 26.05 L103.45 31.95 104.15 56.15 Q104.25 70.0 102.45 79.9 L102.0 85.0 Q101.65 87.7 101.55 90.3 101.9 94.95 102.9 100.9 L103.85 106.25 105.05 110.95 Q107.35 123.0 106.35 139.6 105.75 149.15 103.85 168.1 L103.9 169.8 103.8 169.85 103.65 167.8 Q103.1 166.0 103.15 163.4 L103.3 159.0 Q105.15 143.3 105.65 135.5 106.5 122.0 104.45 112.2 L103.15 107.65 101.35 102.6 Q100.7 100.4 100.45 97.2 L100.2 91.75 Q100.2 90.05 100.35 88.4 L100.7 85.0 101.0 80.4 Q102.65 71.2 102.3 56.65 L101.8 32.4" fill="#d99e58" fill-rule="evenodd" stroke="none"/>
      <path d="M142.35 40.8 Q141.35 30.0 141.1 24.6 L140.75 19.9 146.05 24.7 146.45 56.1 146.1 86.6 146.45 98.4 146.4 106.5 Q145.1 124.05 145.7 147.4 L140.35 152.15 139.1 136.9 Q138.25 130.2 139.1 120.3 L140.55 103.55 140.75 98.65 140.75 93.75 140.85 90.05 140.7 78.9 142.25 57.05 Q143.05 50.45 142.35 40.8" fill="#d99e58" fill-rule="evenodd" stroke="none"/>
      <path d="M92.7 45.95 L92.7 0.3 94.9 0.5 Q94.9 22.2 95.35 38.6 L95.45 43.25 96.2 59.2 Q96.4 68.15 95.5 74.95 L94.6 87.8 Q93.95 93.3 94.6 99.15 L95.05 102.85 96.15 107.95 Q98.4 116.8 98.55 127.7 98.7 136.4 97.45 147.9 L96.2 159.4 96.25 162.6 Q96.4 166.55 97.1 170.95 L95.5 171.2 Q94.4 166.2 93.95 162.15 L92.85 144.0 Q92.3 136.8 92.35 126.7 L92.55 109.7 92.35 104.1 Q91.95 95.15 91.95 87.15 L92.45 70.2 92.7 45.95" fill="#d99e58" fill-rule="evenodd" stroke="none"/>
      <path d="M100.1 1.2 Q100.2 11.85 100.6 21.15 L100.85 37.7 100.95 57.5 Q100.85 68.8 100.0 77.35 L99.75 82.5 99.0 95.65 99.0 100.05 100.5 104.1 102.15 108.85 103.4 113.65 Q104.95 123.6 103.95 136.2 103.3 143.8 100.85 159.0 100.05 163.85 101.3 167.9 L101.75 170.25 100.75 170.4 Q100.1 166.8 99.9 163.6 L99.7 159.15 100.9 152.0 Q103.45 136.5 103.7 129.1 104.15 115.9 100.1 106.5 L98.3 101.2 Q97.9 99.35 97.65 96.9 97.0 89.85 98.8 83.25 L99.15 78.45 Q100.15 59.3 99.4 36.85 L99.05 14.8 98.65 0.95 100.1 1.2" fill="#d99e58" fill-rule="evenodd" stroke="none"/>
      <path d="M98.05 0.9 L98.3 36.15 Q98.5 60.6 97.8 75.75 L97.0 84.45 Q96.1 90.5 96.85 97.6 L97.45 101.9 98.5 106.7 Q101.4 119.35 101.8 129.1 102.3 141.5 98.9 151.65 98.25 153.55 98.25 156.05 L98.25 160.25 98.45 164.1 Q98.75 167.3 99.5 170.65 L98.75 170.75 Q98.1 165.9 97.95 162.05 L97.9 158.65 98.35 152.35 98.55 149.2 Q99.8 135.75 99.75 127.9 99.75 116.2 97.5 106.85 L96.3 101.7 95.7 98.3 Q94.9 92.75 95.5 87.75 95.5 85.7 95.65 83.6 L96.2 73.95 Q97.05 61.4 96.75 41.3 L96.65 36.9 95.45 5.95 95.25 0.55 98.05 0.9" fill="#d99e58" fill-rule="evenodd" stroke="none"/>
      <path d="M167.95 60.55 Q171.75 72.95 171.75 85.9 171.75 96.8 168.95 107.7 L167.95 60.55" fill="#d99e58" fill-rule="evenodd" stroke="none"/>
      <path d="M62.1 89.85 L62.7 83.2 Q62.2 115.55 63.4 139.6 L63.45 143.45 63.5 168.75 61.3 168.15 62.05 144.75 62.1 139.5 61.0 114.85 Q60.55 100.6 62.1 89.85" fill="#d99e58" fill-rule="evenodd" stroke="none"/>
      <path d="M49.8 40.8 L50.8 45.35 51.55 55.2 Q50.0 48.9 49.3 44.2 48.8 41.2 49.95 36.8 49.45 39.0 49.8 40.8" fill="#d99e58" fill-rule="evenodd" stroke="none"/>
      <path d="M52.45 123.15 L53.5 129.1 54.35 135.2 Q52.9 129.45 52.45 123.15" fill="#d99e58" fill-rule="evenodd" stroke="none"/>
      <path d="M5.75 105.8 L5.9 117.2 5.6 116.4 5.65 106.05 5.75 101.55 5.85 98.85 5.75 105.8" fill="#d99e58" fill-rule="evenodd" stroke="none"/>
      <path d="M148.8 27.55 L151.1 30.15 Q150.4 44.05 150.45 51.05 L150.6 56.1 151.3 69.3 151.8 82.5 151.65 107.25 151.3 124.25 Q151.1 134.25 151.3 141.4 L148.65 144.35 Q148.15 133.05 148.2 125.6 148.3 115.4 149.4 106.9 L149.5 97.65 149.15 93.0 149.1 84.1 148.55 60.7 148.4 55.5 148.8 27.55" fill="#d99e58" fill-rule="evenodd" stroke="none"/>
      <path d="M36.75 156.25 L37.0 152.8 36.95 156.35 36.75 156.25" fill="#d99e58" fill-rule="evenodd" stroke="none"/>
      <path d="M44.85 60.4 Q46.5 67.65 47.05 73.5 L44.85 60.4" fill="#d99e58" fill-rule="evenodd" stroke="none"/>
      <path d="M155.35 35.5 L159.25 41.35 159.15 43.6 Q159.0 45.9 159.1 48.65 159.2 54.1 160.4 63.8 L161.95 79.25 162.7 124.25 Q160.25 129.15 157.15 133.7 L157.6 114.05 157.3 85.65 157.45 79.85 Q157.55 76.5 157.3 74.15 155.3 61.2 154.8 55.25 L154.5 50.55 Q154.45 44.5 155.35 35.5" fill="#d99e58" fill-rule="evenodd" stroke="none"/>
      <path d="M151.8 30.9 L154.65 34.55 153.35 43.75 153.2 47.2 Q153.15 49.15 153.65 50.7 L154.05 55.9 155.7 71.55 Q156.6 80.75 156.15 87.3 L156.1 112.0 Q155.2 121.9 155.7 135.75 L152.7 139.7 Q151.75 121.6 152.75 111.1 L152.85 83.5 152.2 71.65 151.4 59.9 151.0 55.05 Q150.75 46.6 151.8 30.9" fill="#d99e58" fill-rule="evenodd" stroke="none"/>
      <path d="M70.95 1.35 L70.9 10.3 70.95 13.55 70.95 14.3 Q70.7 23.05 70.85 46.2 70.95 66.5 70.4 78.1 70.0 94.8 69.9 128.7 L69.85 140.4 70.0 144.85 70.25 150.4 Q70.7 159.15 71.45 167.9 L71.6 170.5 68.75 170.0 68.6 161.55 68.15 152.9 67.45 137.65 Q66.45 116.1 67.5 75.2 68.65 33.05 67.85 12.9 L67.5 8.5 Q67.4 6.1 67.55 4.2 L67.8 1.95 70.95 1.35" fill="#d99e58" fill-rule="evenodd" stroke="none"/>
      <path d="M162.75 58.25 L162.45 53.6 162.35 46.9 166.0 55.05 Q166.35 59.9 166.85 63.45 L166.85 69.15 167.45 93.0 167.45 103.05 167.45 108.3 167.5 112.55 165.15 118.95 165.05 96.1 164.35 73.4 164.35 67.9 163.45 63.1 Q163.0 61.1 162.75 58.25" fill="#d99e58" fill-rule="evenodd" stroke="none"/>
      <path d="M163.0 75.65 L163.25 72.85 163.25 75.65 163.95 107.25 Q163.6 113.25 163.85 121.8 L163.45 122.7 163.45 122.45 Q163.3 113.8 163.5 106.1 L163.0 75.65" fill="#d99e58" fill-rule="evenodd" stroke="none"/>
      <path d="M147.15 126.9 L147.3 145.75 146.95 146.15 Q146.85 135.85 147.15 126.9" fill="#d99e58" fill-rule="evenodd" stroke="none"/>
      <path d="M26.55 39.5 L26.75 34.9 Q25.35 30.3 24.4 26.0 L25.3 25.1 Q26.1 28.7 26.85 31.3 L27.4 35.95 Q28.0 43.7 26.25 50.1 24.75 56.65 24.35 59.65 23.6 64.95 24.2 69.05 L24.35 73.2 24.7 106.25 Q24.9 112.65 24.1 125.55 23.25 138.3 23.5 144.8 L21.45 142.55 Q21.15 139.4 21.35 136.45 21.45 134.3 22.7 120.5 23.55 110.85 23.2 104.4 L23.35 72.15 Q22.8 65.6 24.3 55.7 L26.55 39.5" fill="#d99e58" fill-rule="evenodd" stroke="none"/>
      <path d="M62.55 23.1 Q63.2 19.7 62.05 15.35 L59.7 8.1 Q59.2 5.9 59.05 4.35 L61.6 3.55 61.6 5.5 62.1 8.85 Q64.05 18.8 64.05 30.5 L62.95 70.85 61.85 47.1 Q61.25 32.95 62.55 23.1" fill="#d99e58" fill-rule="evenodd" stroke="none"/>
      <path d="M13.75 39.4 Q15.6 36.5 17.4 34.15 17.7 45.75 17.0 69.0 L16.9 73.7 16.55 97.3 16.55 102.0 16.45 118.05 Q16.45 127.55 14.95 133.95 L14.95 134.2 12.05 129.7 12.2 128.3 Q13.05 115.65 12.85 103.65 L12.85 99.2 Q12.85 88.1 13.15 77.0 L13.45 66.4 Q14.0 52.85 13.75 39.4" fill="#d99e58" fill-rule="evenodd" stroke="none"/>
      <path d="M39.4 38.7 L39.25 33.5 Q39.2 29.6 38.35 24.45 L36.75 15.5 Q39.05 13.9 41.8 12.2 42.7 18.25 42.75 26.7 L42.65 41.2 Q42.05 47.9 42.95 52.55 L43.05 53.05 Q43.4 57.2 44.9 64.85 46.45 73.0 46.85 76.6 47.7 84.25 46.4 90.35 44.7 101.5 44.3 114.1 44.0 123.8 44.45 137.6 L44.4 161.05 Q41.45 159.4 38.1 157.2 L38.3 119.7 38.6 69.8 38.6 64.7 Q39.6 49.5 39.4 38.7" fill="#d99e58" fill-rule="evenodd" stroke="none"/>
      <path d="M7.4 73.0 L7.55 63.1 Q7.35 57.5 7.5 50.85 9.85 45.65 12.5 41.3 L12.35 53.8 12.35 66.5 12.1 76.75 11.6 98.1 11.6 102.4 Q11.15 106.65 11.3 114.05 L11.2 125.6 11.0 127.85 Q8.95 124.3 6.9 119.7 L6.7 111.9 Q6.55 107.1 6.75 103.95 L6.8 100.1 7.4 73.0" fill="#d99e58" fill-rule="evenodd" stroke="none"/>
      <path d="M43.6 36.8 Q44.95 29.35 45.1 23.9 45.25 16.9 43.55 11.2 46.45 9.6 49.0 8.35 51.85 15.2 49.75 26.95 47.4 40.2 48.35 45.2 L50.35 55.45 52.2 65.55 Q53.3 85.1 52.85 103.35 L52.25 106.05 Q50.95 113.3 51.8 122.25 L53.1 131.0 Q53.65 135.9 53.5 139.65 L53.4 143.55 52.75 154.15 51.95 164.75 46.25 162.0 46.6 154.95 Q46.95 146.6 46.9 140.95 L46.8 137.4 Q46.05 133.9 45.65 129.65 44.6 115.7 46.65 97.45 L46.7 97.3 47.35 91.8 47.65 88.9 47.85 87.4 Q48.85 79.25 47.8 70.0 46.9 62.6 44.4 52.55 L43.3 47.6 Q43.2 44.0 43.6 36.8" fill="#d99e58" fill-rule="evenodd" stroke="none"/>
      <path d="M32.5 44.7 L32.7 39.55 Q32.3 32.5 30.6 20.2 L32.05 19.05 Q33.05 25.0 34.6 30.0 35.25 32.15 35.2 35.15 L35.05 40.25 34.45 45.25 32.35 57.9 Q31.2 65.35 31.4 70.7 L31.4 75.95 Q32.0 82.05 31.9 90.25 L31.6 104.35 31.55 109.05 31.75 126.6 Q31.95 137.3 30.9 144.15 L30.8 151.7 28.75 149.9 28.65 147.0 27.9 142.05 Q27.6 139.1 28.2 136.9 29.55 130.6 29.95 123.2 30.2 118.0 30.0 109.35 L29.75 105.2 29.7 94.6 Q29.75 88.0 29.35 84.0 L29.1 68.8 29.05 64.35 Q29.1 61.7 29.7 59.9 31.9 52.4 32.5 44.7" fill="#d99e58" fill-rule="evenodd" stroke="none"/>
      <path d="M29.2 37.55 L29.0 32.6 Q27.5 27.75 26.65 23.8 L29.2 21.45 31.15 30.0 Q31.8 32.15 31.75 35.1 L31.55 40.15 31.1 45.2 29.4 57.75 Q28.35 65.3 28.15 70.25 L28.35 85.9 Q28.3 88.75 28.6 94.55 L28.8 103.25 28.65 106.75 Q28.75 127.55 27.75 138.9 26.95 142.85 28.05 146.2 L28.25 149.5 24.35 145.7 23.65 140.35 Q23.35 137.3 23.8 134.95 25.2 129.65 25.1 121.0 24.95 110.2 25.3 107.05 L25.3 70.45 Q25.55 69.1 25.05 66.35 24.55 63.65 24.8 62.4 L27.75 49.95 Q29.15 43.05 29.2 37.55" fill="#d99e58" fill-rule="evenodd" stroke="none"/>
      <path d="M0.1 90.0 L0.25 79.4 Q1.2 66.8 5.7 55.15 L4.7 105.7 Q4.95 109.2 4.85 114.4 0.7 102.55 0.1 90.0" fill="#d99e58" fill-rule="evenodd" stroke="none"/>
      <path d="M36.2 37.0 Q36.05 33.9 36.05 28.05 L34.85 22.9 33.35 18.0 35.45 16.45 37.3 28.45 Q38.1 35.25 37.7 40.6 L37.4 45.4 36.5 57.4 Q36.0 64.5 35.95 69.2 L36.0 73.45 36.75 114.0 36.85 118.5 Q37.15 126.15 36.8 133.55 L36.1 148.85 35.95 155.7 32.2 152.85 32.3 142.5 Q33.15 132.0 33.15 111.55 L33.05 68.4 Q33.1 63.2 34.2 54.95 L35.9 41.45 36.2 37.0" fill="#d99e58" fill-rule="evenodd" stroke="none"/>
      <path d="M23.0 27.5 L23.8 36.55 Q23.9 42.7 22.95 54.65 22.0 66.75 22.05 72.65 L22.05 76.8 22.05 93.4 22.2 103.45 22.75 115.75 Q22.9 122.85 21.35 127.15 19.5 133.05 20.95 141.95 18.5 139.2 16.3 136.1 16.4 133.95 16.95 132.0 18.35 126.8 18.0 117.75 17.6 106.7 17.95 103.1 L17.9 97.6 Q17.75 88.5 18.0 77.95 L18.15 73.05 18.3 67.6 Q18.35 62.7 18.95 52.4 19.6 42.5 19.55 37.25 L19.4 32.9 19.3 31.7 23.0 27.5" fill="#d99e58" fill-rule="evenodd" stroke="none"/>
      <path d="M63.15 7.25 Q62.8 5.9 63.15 3.45 L63.2 3.05 66.7 2.2 Q66.3 4.7 66.4 8.05 L66.7 12.05 Q67.5 15.25 67.5 22.15 L66.65 81.05 Q66.05 117.2 66.75 140.1 L67.0 150.15 Q66.7 154.05 67.0 159.9 L67.5 169.75 64.55 169.05 64.5 136.0 Q64.55 132.7 64.05 126.65 63.55 120.45 63.55 117.35 63.35 106.05 64.15 75.15 64.85 48.45 64.05 32.95 64.05 32.05 64.6 30.5 L65.5 28.05 Q65.8 23.85 64.85 17.7 L63.15 7.25" fill="#d99e58" fill-rule="evenodd" stroke="none"/>
      <path d="M50.8 45.35 L50.3 39.8 Q50.1 38.15 50.3 35.55 L50.7 34.25 52.85 29.3 54.7 24.1 Q55.55 20.45 53.85 15.7 51.5 10.35 50.6 7.6 54.7 5.8 57.95 4.7 L57.95 5.45 Q57.8 8.9 59.95 16.75 61.9 23.8 61.1 28.05 L59.4 34.65 Q58.5 38.5 59.15 41.25 61.55 56.8 61.05 78.25 60.75 90.5 59.65 114.9 59.65 118.5 60.6 125.9 61.6 133.25 61.55 137.05 L61.5 142.1 Q61.0 149.0 60.8 168.0 L54.0 165.55 54.9 153.05 55.55 140.55 55.55 136.25 Q55.45 133.8 53.75 123.2 52.4 115.1 53.25 110.0 55.85 94.1 55.15 78.25 L55.2 76.6 Q55.2 72.15 54.35 67.6 53.25 57.1 50.8 45.35" fill="#d99e58" fill-rule="evenodd" stroke="none"/>
      <path d="M0.0 85.9 L0.25 79.4 0.1 90.0 0.0 85.9" fill="#af6924" fill-rule="evenodd" stroke="none"/>
      <path d="M5.7 55.15 L6.75 52.5 6.5 69.85 5.75 101.55 5.65 106.05 5.6 116.4 4.85 114.4 Q4.95 109.2 4.7 105.7 L5.7 55.15" fill="#af6924" fill-rule="evenodd" stroke="none"/>
      <path d="M7.55 63.1 L7.4 73.0 6.8 100.1 6.75 103.95 Q6.55 107.1 6.7 111.9 L6.9 119.7 5.9 117.2 5.75 105.8 6.75 52.5 7.5 50.85 Q7.35 57.5 7.55 63.1" fill="#af6924" fill-rule="evenodd" stroke="none"/>
      <path d="M12.1 76.75 L12.35 66.5 12.35 53.8 12.5 41.3 13.75 39.4 Q14.0 52.85 13.45 66.4 L13.15 77.0 Q12.85 88.1 12.85 99.2 L12.85 103.65 Q13.05 115.65 12.2 128.3 L12.05 129.7 11.0 127.85 11.2 125.6 11.3 114.05 Q11.15 106.65 11.6 102.4 L11.6 98.1 12.1 76.75" fill="#af6924" fill-rule="evenodd" stroke="none"/>
      <path d="M17.4 34.15 L19.3 31.7 19.4 32.9 19.55 37.25 Q19.6 42.5 18.95 52.4 18.35 62.7 18.3 67.6 L18.15 73.05 18.0 77.95 Q17.75 88.5 17.9 97.6 L17.95 103.1 Q17.6 106.7 18.0 117.75 18.35 126.8 16.95 132.0 16.4 133.95 16.3 136.1 L14.95 134.2 14.95 133.95 Q16.45 127.55 16.45 118.05 L16.55 102.0 16.55 97.3 16.9 73.7 17.0 69.0 Q17.7 45.75 17.4 34.15" fill="#af6924" fill-rule="evenodd" stroke="none"/>
      <path d="M23.8 36.55 L23.0 27.5 24.4 26.0 Q25.35 30.3 26.75 34.9 L26.55 39.5 24.3 55.7 Q22.8 65.6 23.35 72.15 L23.2 104.4 Q23.55 110.85 22.7 120.5 21.45 134.3 21.35 136.45 21.15 139.4 21.45 142.55 L20.95 141.95 Q19.5 133.05 21.35 127.15 22.9 122.85 22.75 115.75 L22.2 103.45 22.05 93.4 22.05 76.8 22.05 72.65 Q22.0 66.75 22.95 54.65 23.9 42.7 23.8 36.55" fill="#af6924" fill-rule="evenodd" stroke="none"/>
      <path d="M27.4 35.95 L26.85 31.3 Q26.1 28.7 25.3 25.1 L26.65 23.8 Q27.5 27.75 29.0 32.6 L29.2 37.55 Q29.15 43.05 27.75 49.95 L24.8 62.4 Q24.55 63.65 25.05 66.35 25.55 69.1 25.3 70.45 L25.3 107.05 Q24.95 110.2 25.1 121.0 25.2 129.65 23.8 134.95 23.35 137.3 23.65 140.35 L24.35 145.7 23.5 144.8 Q23.25 138.3 24.1 125.55 24.9 112.65 24.7 106.25 L24.35 73.2 24.2 69.05 Q23.6 64.95 24.35 59.65 24.75 56.65 26.25 50.1 28.0 43.7 27.4 35.95" fill="#af6924" fill-rule="evenodd" stroke="none"/>
      <path d="M31.55 40.15 L31.75 35.1 Q31.8 32.15 31.15 30.0 L29.2 21.45 30.6 20.2 Q32.3 32.5 32.7 39.55 L32.5 44.7 Q31.9 52.4 29.7 59.9 29.1 61.7 29.05 64.35 L29.1 68.8 29.35 84.0 Q29.75 88.0 29.7 94.6 L29.75 105.2 30.0 109.35 Q30.2 118.0 29.95 123.2 29.55 130.6 28.2 136.9 27.6 139.1 27.9 142.05 L28.65 147.0 28.75 149.9 28.25 149.5 28.05 146.2 Q26.95 142.85 27.75 138.9 28.75 127.55 28.65 106.75 L28.8 103.25 28.6 94.55 Q28.3 88.75 28.35 85.9 L28.15 70.25 Q28.35 65.3 29.4 57.75 L31.1 45.2 31.55 40.15" fill="#af6924" fill-rule="evenodd" stroke="none"/>
      <path d="M32.05 19.05 L33.35 18.0 34.85 22.9 36.05 28.05 Q36.05 33.9 36.2 37.0 L35.9 41.45 34.2 54.95 Q33.1 63.2 33.05 68.4 L33.15 111.55 Q33.15 132.0 32.3 142.5 L32.2 152.85 30.8 151.7 30.9 144.15 Q31.95 137.3 31.75 126.6 L31.55 109.05 31.6 104.35 31.9 90.25 Q32.0 82.05 31.4 75.95 L31.4 70.7 Q31.2 65.35 32.35 57.9 L34.45 45.25 35.05 40.25 35.2 35.15 Q35.25 32.15 34.6 30.0 33.05 25.0 32.05 19.05" fill="#af6924" fill-rule="evenodd" stroke="none"/>
      <path d="M39.1 38.9 L39.15 33.45 Q39.15 30.15 38.55 28.05 37.4 22.55 36.7 15.55 L36.75 15.5 38.35 24.45 Q39.2 29.6 39.25 33.5 L39.4 38.7 Q39.6 49.5 38.6 64.7 L38.6 69.8 38.3 119.7 38.1 157.2 36.95 156.35 37.35 149.4 37.65 120.3 Q37.6 114.75 38.0 95.0 38.25 79.3 37.9 69.8 L37.85 65.0 Q37.9 60.75 38.3 54.15 L38.95 43.25 39.1 38.9" fill="#af6924" fill-rule="evenodd" stroke="none"/>
      <path d="M37.7 40.6 Q38.1 35.25 37.3 28.45 L35.45 16.45 36.05 16.0 38.25 28.4 Q39.15 35.45 38.45 41.1 L38.05 45.7 36.95 57.25 Q36.5 63.7 36.9 68.65 L36.95 73.5 37.1 117.65 37.1 120.95 37.1 131.5 36.75 156.25 35.95 155.7 36.1 148.85 36.8 133.55 Q37.15 126.15 36.85 118.5 L36.75 114.0 36.0 73.45 35.95 69.2 Q36.0 64.5 36.5 57.4 L37.4 45.4 37.7 40.6" fill="#af6924" fill-rule="evenodd" stroke="none"/>
      <path d="M38.45 41.1 Q39.15 35.45 38.25 28.4 L36.05 16.0 36.7 15.55 Q37.4 22.55 38.55 28.05 39.15 30.15 39.15 33.45 L39.1 38.9 38.95 43.25 38.3 54.15 Q37.9 60.75 37.85 65.0 L37.9 69.8 Q38.25 79.3 38.0 95.0 37.6 114.75 37.65 120.3 L37.35 149.4 37.0 152.8 37.1 131.5 37.1 120.95 37.1 117.65 36.95 73.5 36.9 68.65 Q36.5 63.7 36.95 57.25 L38.05 45.7 38.45 41.1" fill="#af6924" fill-rule="evenodd" stroke="none"/>
      <path d="M46.4 90.35 Q47.7 84.25 46.85 76.6 46.45 73.0 44.9 64.85 43.4 57.2 43.05 53.05 L44.85 60.4 47.05 73.5 47.35 80.05 Q47.55 87.0 45.45 108.1 43.7 125.75 45.3 136.6 L44.95 161.35 44.4 161.05 44.45 137.6 Q44.0 123.8 44.3 114.1 44.7 101.5 46.4 90.35" fill="#af6924" fill-rule="evenodd" stroke="none"/>
      <path d="M42.65 41.2 L42.75 26.7 Q42.7 18.25 41.8 12.2 L42.35 11.9 43.95 22.15 Q44.3 26.1 43.75 31.75 L42.65 41.2" fill="#af6924" fill-rule="evenodd" stroke="none"/>
      <path d="M45.7 108.05 Q44.9 119.9 45.65 129.65 44.9 122.35 45.3 113.55 L45.7 108.05" fill="#af6924" fill-rule="evenodd" stroke="none"/>
      <path d="M43.6 36.8 Q43.2 44.0 43.3 47.6 42.6 43.4 42.95 40.3 L43.6 36.8" fill="#af6924" fill-rule="evenodd" stroke="none"/>
      <path d="M42.95 51.6 L43.05 53.05 42.95 52.55 Q42.05 47.9 42.65 41.2 42.65 47.45 42.95 51.6" fill="#af6924" fill-rule="evenodd" stroke="none"/>
      <path d="M47.65 88.9 Q48.25 82.1 47.05 73.5 46.5 67.65 44.85 60.4 43.9 54.7 43.45 50.6 L43.3 47.6 44.4 52.55 Q46.9 62.6 47.8 70.0 48.85 79.25 47.85 87.4 L47.65 88.9" fill="#af6924" fill-rule="evenodd" stroke="none"/>
      <path d="M45.75 130.45 Q46.1 134.25 46.8 137.4 L46.9 140.95 Q46.95 146.6 46.6 154.95 L46.25 162.0 45.8 161.75 45.9 158.8 46.3 140.65 46.25 136.1 45.75 130.45" fill="#af6924" fill-rule="evenodd" stroke="none"/>
      <path d="M43.6 36.8 L44.3 24.1 Q44.45 16.9 43.4 11.3 L43.55 11.2 Q45.25 16.9 45.1 23.9 44.95 29.35 43.6 36.8" fill="#af6924" fill-rule="evenodd" stroke="none"/>
      <path d="M42.65 41.2 L43.75 31.75 Q44.3 26.1 43.95 22.15 L42.35 11.9 43.4 11.3 Q44.45 16.9 44.3 24.1 L43.6 36.8 42.95 40.3 Q42.6 43.4 43.3 47.6 L43.45 50.6 Q43.9 54.7 44.85 60.4 L43.05 53.05 42.95 51.6 Q42.65 47.45 42.65 41.2" fill="#af6924" fill-rule="evenodd" stroke="none"/>
      <path d="M47.35 80.05 L47.05 73.5 Q48.25 82.1 47.65 88.9 L46.7 97.3 46.65 97.45 Q45.6 107.1 45.3 113.55 44.9 122.35 45.65 129.65 L46.25 136.1 46.3 140.65 45.9 158.8 45.8 161.75 44.95 161.35 45.3 136.6 Q43.7 125.75 45.45 108.1 47.55 87.0 47.35 80.05" fill="#af6924" fill-rule="evenodd" stroke="none"/>
      <path d="M52.25 117.85 Q52.1 119.8 52.45 123.15 52.9 129.45 54.35 135.2 L54.45 136.65 54.3 141.6 Q54.0 149.3 52.65 165.05 L51.95 164.75 52.75 154.15 53.4 143.55 53.5 139.65 Q53.65 135.9 53.1 131.0 L51.8 122.25 Q50.95 113.3 52.25 106.05 L52.85 103.35 52.75 106.1 Q52.25 112.7 52.3 117.65 L52.25 117.85" fill="#af6924" fill-rule="evenodd" stroke="none"/>
      <path d="M50.9 10.15 L52.15 14.9 Q52.8 19.15 51.85 25.45 L50.3 35.4 49.95 36.8 Q48.8 41.2 49.3 44.2 50.0 48.9 51.55 55.2 L52.2 65.55 50.35 55.45 48.35 45.2 Q47.4 40.2 49.75 26.95 51.85 15.2 49.0 8.35 L49.95 7.9 50.15 8.55 50.9 10.15" fill="#af6924" fill-rule="evenodd" stroke="none"/>
      <path d="M55.2 76.6 L55.15 78.25 54.35 67.6 Q55.2 72.15 55.2 76.6" fill="#af6924" fill-rule="evenodd" stroke="none"/>
      <path d="M50.9 10.15 L50.45 8.5 50.35 7.75 50.6 7.6 Q51.5 10.35 53.85 15.7 55.55 20.45 54.7 24.1 L52.85 29.3 50.7 34.25 52.05 30.25 53.25 26.05 Q53.95 21.3 52.15 14.9 51.85 12.65 50.9 10.15" fill="#af6924" fill-rule="evenodd" stroke="none"/>
      <path d="M54.35 67.6 Q53.65 63.4 51.55 55.2 L50.8 45.35 Q53.25 57.1 54.35 67.6" fill="#af6924" fill-rule="evenodd" stroke="none"/>
      <path d="M49.8 40.8 Q49.45 39.0 49.95 36.8 L50.3 35.55 Q50.1 38.15 50.3 39.8 L50.8 45.35 49.8 40.8" fill="#af6924" fill-rule="evenodd" stroke="none"/>
      <path d="M54.3 90.5 L52.85 103.35 Q53.3 85.1 52.2 65.55 54.6 79.85 54.3 90.5" fill="#af6924" fill-rule="evenodd" stroke="none"/>
      <path d="M54.3 90.5 L55.15 78.25 Q55.85 94.1 53.25 110.0 52.4 115.1 53.75 123.2 55.45 133.8 55.55 136.25 L55.55 140.55 54.9 153.05 54.0 165.55 53.25 165.25 54.15 153.05 54.6 140.9 54.5 135.85 54.35 135.2 53.5 129.1 52.45 123.15 Q52.3 120.45 52.3 117.65 L52.75 106.1 53.15 101.6 Q54.05 96.35 54.3 90.5" fill="#af6924" fill-rule="evenodd" stroke="none"/>
      <path d="M54.5 135.85 L54.6 140.9 54.15 153.05 53.25 165.25 52.65 165.05 Q54.0 149.3 54.3 141.6 L54.45 136.65 54.35 135.2 54.5 135.85" fill="#af6924" fill-rule="evenodd" stroke="none"/>
      <path d="M50.9 10.15 L50.15 8.55 49.95 7.9 50.35 7.75 50.45 8.5 50.9 10.15" fill="#af6924" fill-rule="evenodd" stroke="none"/>
      <path d="M53.25 26.05 L52.05 30.25 50.7 34.25 50.3 35.4 51.85 25.45 Q52.8 19.15 52.15 14.9 53.95 21.3 53.25 26.05" fill="#af6924" fill-rule="evenodd" stroke="none"/>
      <path d="M54.35 67.6 L55.15 78.25 54.3 90.5 Q54.6 79.85 52.2 65.55 L51.55 55.2 Q53.65 63.4 54.35 67.6" fill="#af6924" fill-rule="evenodd" stroke="none"/>
      <path d="M62.05 15.35 Q63.2 19.7 62.55 23.1 61.25 32.95 61.85 47.1 L62.95 70.85 62.7 83.2 62.1 89.85 Q60.55 100.6 61.0 114.85 L62.1 139.5 62.05 144.75 61.3 168.15 60.8 168.0 Q61.0 149.0 61.5 142.1 L61.55 137.05 Q61.6 133.25 60.6 125.9 59.65 118.5 59.65 114.9 60.75 90.5 61.05 78.25 61.55 56.8 59.15 41.25 58.5 38.5 59.4 34.65 L61.1 28.05 Q61.9 23.8 59.95 16.75 57.8 8.9 57.95 5.45 L57.95 4.7 59.05 4.35 Q59.2 5.9 59.7 8.1 L62.05 15.35" fill="#af6924" fill-rule="evenodd" stroke="none"/>
      <path d="M61.6 5.5 L61.6 3.55 63.2 3.05 63.15 3.45 Q62.8 5.9 63.15 7.25 L64.85 17.7 Q65.8 23.85 65.5 28.05 L64.6 30.5 Q64.05 32.05 64.05 32.95 64.85 48.45 64.15 75.15 63.35 106.05 63.55 117.35 63.55 120.45 64.05 126.65 64.55 132.7 64.5 136.0 L64.55 169.05 63.5 168.75 63.45 143.45 63.4 139.6 Q62.2 115.55 62.7 83.2 63.1 77.5 62.95 70.85 L64.05 30.5 Q64.05 18.8 62.1 8.85 L61.6 5.5" fill="#af6924" fill-rule="evenodd" stroke="none"/>
      <path d="M66.4 8.05 Q66.3 4.7 66.7 2.2 L67.8 1.95 67.55 4.2 Q67.4 6.1 67.5 8.5 L67.85 12.9 Q68.65 33.05 67.5 75.2 66.45 116.1 67.45 137.65 L68.15 152.9 68.6 161.55 68.75 170.0 67.5 169.75 67.0 159.9 Q66.7 154.05 67.0 150.15 L66.75 140.1 Q66.05 117.2 66.65 81.05 L67.5 22.15 Q67.5 15.25 66.7 12.05 L66.4 8.05" fill="#af6924" fill-rule="evenodd" stroke="none"/>
      <path d="M70.95 142.05 L70.85 137.25 70.65 100.25 Q70.65 78.6 71.7 63.15 70.9 113.25 70.95 138.35 L70.95 142.05 71.35 150.15 72.05 160.45 72.55 170.7 72.35 170.65 72.35 170.35 Q71.45 161.4 71.1 149.45 L70.95 142.05" fill="#af6924" fill-rule="evenodd" stroke="none"/>
      <path d="M70.85 46.2 Q70.7 23.05 70.95 14.3 L70.95 13.55 71.0 14.5 Q71.5 36.9 70.85 71.55 L70.25 99.1 Q70.2 86.45 70.4 78.1 70.95 66.5 70.85 46.2" fill="#af6924" fill-rule="evenodd" stroke="none"/>
      <path d="M70.95 8.1 L70.95 1.35 71.15 1.3 71.15 6.05 70.95 8.1" fill="#af6924" fill-rule="evenodd" stroke="none"/>
      <path d="M71.9 14.55 L71.95 1.15 72.15 1.15 72.15 10.85 72.35 16.5 72.1 33.05 Q71.7 20.85 71.9 14.55" fill="#af6924" fill-rule="evenodd" stroke="none"/>
      <path d="M72.1 33.05 L72.45 46.45 Q72.45 53.85 71.9 59.9 L71.7 63.15 72.1 33.05" fill="#af6924" fill-rule="evenodd" stroke="none"/>
      <path d="M71.15 6.05 L71.15 1.3 71.95 1.15 71.9 14.55 Q71.7 20.85 72.1 33.05 L71.7 63.15 Q70.65 78.6 70.65 100.25 L70.85 137.25 71.1 149.45 Q71.45 161.4 72.35 170.35 L72.35 170.65 71.65 170.55 71.45 167.9 70.25 150.4 69.9 128.7 70.85 71.55 Q71.5 36.9 71.0 14.5 L70.95 8.1 71.15 6.05" fill="#af6924" fill-rule="evenodd" stroke="none"/>
      <path d="M77.8 0.4 L77.8 18.25 Q78.4 43.4 77.8 77.85 L76.5 137.4 76.3 142.4 Q76.3 144.95 76.45 147.4 L76.55 152.05 76.85 158.2 77.05 161.3 77.85 170.55 77.9 171.35 76.7 171.25 76.7 171.0 76.3 161.8 75.7 152.55 75.25 141.9 75.25 135.8 76.6 76.6 Q77.1 43.9 76.75 17.35 L76.7 0.5 77.8 0.4" fill="#af6924" fill-rule="evenodd" stroke="none"/>
      <path d="M81.55 0.15 L81.6 21.75 Q82.25 43.8 81.6 80.0 80.8 125.2 80.85 138.15 L81.3 152.15 81.35 171.6 80.3 171.55 80.4 166.2 Q80.6 160.75 79.95 152.35 L79.6 147.65 79.2 143.15 79.1 138.6 Q80.2 112.2 80.55 79.8 L80.7 20.9 80.65 0.2 81.55 0.15" fill="#af6924" fill-rule="evenodd" stroke="none"/>
      <path d="M84.1 0.05 L84.1 24.05 Q84.6 41.4 83.75 81.25 83.0 117.85 83.95 138.2 L83.95 153.25 83.5 171.65 82.7 171.65 82.7 150.55 82.85 140.6 82.8 135.6 Q81.85 125.25 82.65 109.25 83.65 87.6 83.65 83.0 L83.45 54.55 83.2 26.25 83.15 0.1 84.1 0.05" fill="#af6924" fill-rule="evenodd" stroke="none"/>
      <path d="M92.7 0.3 L92.7 45.95 92.45 70.2 91.95 87.15 Q91.95 95.15 92.35 104.1 L92.55 109.7 92.35 126.7 Q92.3 136.8 92.85 144.0 L93.95 162.15 Q94.4 166.2 95.5 171.2 L93.55 171.35 Q92.5 165.75 92.0 162.0 L91.65 158.75 91.75 149.4 91.7 144.7 91.1 128.1 Q90.7 118.1 90.9 111.45 L90.8 101.3 Q90.7 95.1 90.9 90.65 L90.95 86.8 91.3 67.65 91.4 62.7 91.45 52.8 91.45 0.2 92.7 0.3" fill="#af6924" fill-rule="evenodd" stroke="none"/>
      <path d="M95.45 43.25 L95.35 38.6 Q94.9 22.2 94.9 0.5 L95.25 0.55 95.45 5.95 96.65 36.9 96.75 41.3 Q97.05 61.4 96.2 73.95 L95.65 83.6 Q95.5 85.7 95.5 87.75 94.9 92.75 95.7 98.3 L96.3 101.7 97.5 106.85 Q99.75 116.2 99.75 127.9 99.8 135.75 98.55 149.2 L98.35 152.35 97.9 158.65 97.95 162.05 Q98.1 165.9 98.75 170.75 L97.1 170.95 Q96.4 166.55 96.25 162.6 L96.2 159.4 97.45 147.9 Q98.7 136.4 98.55 127.7 98.4 116.8 96.15 107.95 L95.05 102.85 94.6 99.15 Q93.95 93.3 94.6 87.8 L95.5 74.95 Q96.4 68.15 96.2 59.2 L95.45 43.25" fill="#af6924" fill-rule="evenodd" stroke="none"/>
      <path d="M98.65 0.95 L99.05 14.8 99.4 36.85 Q100.15 59.3 99.15 78.45 L98.8 83.25 Q97.0 89.85 97.65 96.9 97.9 99.35 98.3 101.2 L100.1 106.5 Q104.15 115.9 103.7 129.1 103.45 136.5 100.9 152.0 L99.7 159.15 99.9 163.6 Q100.1 166.8 100.75 170.4 L99.5 170.65 Q98.75 167.3 98.45 164.1 L98.25 160.25 98.25 156.05 Q98.25 153.55 98.9 151.65 102.3 141.5 101.8 129.1 101.4 119.35 98.5 106.7 L97.45 101.9 96.85 97.6 Q96.1 90.5 97.0 84.45 L97.8 75.75 Q98.5 60.6 98.3 36.15 L98.05 0.9 98.65 0.95" fill="#af6924" fill-rule="evenodd" stroke="none"/>
      <path d="M100.85 37.7 L100.6 21.15 Q100.2 11.85 100.1 1.2 L101.8 1.5 Q101.65 10.3 101.75 21.2 L101.8 32.4 102.3 56.65 Q102.65 71.2 101.0 80.4 L100.7 85.0 100.35 88.4 Q100.2 90.05 100.2 91.75 L100.45 97.2 Q100.7 100.4 101.35 102.6 L103.15 107.65 104.45 112.2 Q106.5 122.0 105.65 135.5 105.15 143.3 103.3 159.0 L103.15 163.4 Q103.1 166.0 103.65 167.8 L103.8 169.85 101.75 170.25 101.3 167.9 Q100.05 163.85 100.85 159.0 103.3 143.8 103.95 136.2 104.95 123.6 103.4 113.65 L102.15 108.85 100.5 104.1 99.0 100.05 99.0 95.65 99.75 82.5 100.0 77.35 Q100.85 68.8 100.95 57.5 L100.85 37.7" fill="#af6924" fill-rule="evenodd" stroke="none"/>
      <path d="M105.1 2.2 L104.8 35.2 105.4 57.15 Q105.8 70.4 105.2 78.8 L104.9 83.65 Q105.05 85.9 103.5 92.0 102.2 97.15 103.3 100.15 L104.8 104.9 106.1 109.55 Q108.75 121.7 108.2 137.7 107.95 144.8 105.85 166.1 L105.75 169.4 103.9 169.8 103.85 168.1 Q105.75 149.15 106.35 139.6 107.35 123.0 105.05 110.95 L103.85 106.25 102.9 100.9 Q101.9 94.95 101.55 90.3 101.65 87.7 102.0 85.0 L102.45 79.9 Q104.25 70.0 104.15 56.15 L103.45 31.95 103.35 26.05 Q102.75 15.25 103.0 1.75 L105.1 2.2" fill="#af6924" fill-rule="evenodd" stroke="none"/>
      <path d="M110.9 3.75 L110.5 30.2 Q111.2 49.7 109.45 76.95 L109.1 82.25 Q108.65 89.2 109.25 98.5 L109.5 101.75 Q111.25 116.0 110.9 134.3 110.7 144.4 109.3 167.0 L109.3 168.45 108.6 168.65 108.65 167.45 Q108.55 162.65 109.6 135.5 110.35 116.0 108.45 103.7 L108.15 100.15 Q107.7 93.65 107.7 89.35 107.45 87.35 107.8 84.2 L108.35 79.0 108.7 74.1 Q109.2 65.0 109.25 52.1 L109.3 30.2 109.7 3.4 110.9 3.75" fill="#af6924" fill-rule="evenodd" stroke="none"/>
      <path d="M113.7 39.9 Q113.65 35.45 114.05 23.4 114.4 12.95 114.15 7.05 L114.15 4.85 115.15 5.15 Q115.05 31.2 114.75 44.45 L114.7 47.85 Q114.55 55.55 114.65 65.15 L114.4 75.55 Q113.9 84.1 113.75 93.95 L113.65 97.6 Q112.95 108.5 113.4 125.1 113.3 154.65 112.8 167.4 L111.85 167.7 111.85 167.35 112.1 163.95 Q113.3 150.85 112.85 131.55 112.1 110.1 112.05 99.4 L112.0 96.1 Q111.9 86.85 112.5 79.75 L112.75 75.25 113.3 61.65 113.45 56.2 113.65 45.35 113.7 39.9" fill="#af6924" fill-rule="evenodd" stroke="none"/>
      <path d="M116.1 46.4 Q115.8 38.2 116.05 26.0 L116.5 5.7 117.5 6.1 117.05 27.65 Q116.8 40.6 117.15 49.3 L117.15 54.0 Q117.25 66.2 116.85 73.55 L116.3 81.45 Q115.85 97.25 115.6 121.95 L115.1 162.45 114.7 166.75 112.95 167.35 113.25 164.75 Q113.95 156.1 113.85 144.9 L113.4 125.1 Q113.5 95.95 114.5 80.15 L115.15 70.95 Q115.9 61.75 116.05 50.45 L116.1 46.4" fill="#af6924" fill-rule="evenodd" stroke="none"/>
      <path d="M113.4 125.1 L113.85 144.9 Q113.95 156.1 113.25 164.75 L112.95 167.35 112.8 167.4 Q113.3 154.65 113.4 125.1" fill="#af6924" fill-rule="evenodd" stroke="none"/>
      <path d="M122.0 29.55 L122.45 8.2 124.0 9.0 123.7 31.25 123.45 53.45 123.3 76.3 123.35 82.4 Q122.65 94.95 120.65 119.75 119.25 141.55 120.5 157.05 L121.2 164.1 119.2 165.0 Q119.7 161.9 119.5 159.5 117.3 142.85 118.45 121.3 L121.45 83.4 121.65 78.9 121.65 74.4 121.75 69.7 121.9 55.55 121.95 50.9 Q121.75 42.4 122.0 29.55" fill="#af6924" fill-rule="evenodd" stroke="none"/>
      <path d="M124.65 30.5 L125.0 9.5 125.65 9.8 125.45 32.85 Q125.4 45.95 125.85 55.85 L125.95 60.65 126.0 72.55 125.95 76.55 125.85 82.5 125.3 88.4 Q118.25 126.55 122.95 160.0 L123.3 163.15 121.5 163.95 121.45 161.95 Q120.8 130.85 120.9 125.2 121.15 104.0 124.25 88.4 L124.55 82.45 124.35 76.45 124.45 51.55 Q124.4 43.65 124.65 30.5" fill="#af6924" fill-rule="evenodd" stroke="none"/>
      <path d="M123.8 150.6 Q122.8 143.15 122.8 135.15 123.1 142.35 123.8 150.6" fill="#af6924" fill-rule="evenodd" stroke="none"/>
      <path d="M123.8 150.6 L124.9 157.05 125.75 161.9 124.9 162.3 123.8 150.6" fill="#af6924" fill-rule="evenodd" stroke="none"/>
      <path d="M126.7 33.4 L126.3 10.15 127.25 10.7 127.6 35.05 127.95 59.45 127.65 72.35 Q127.85 78.05 127.4 84.1 L127.1 88.0 124.35 111.4 Q122.75 125.4 122.8 135.15 121.6 108.2 126.8 88.25 L126.95 84.65 126.95 73.6 127.1 56.6 126.7 33.4" fill="#af6924" fill-rule="evenodd" stroke="none"/>
      <path d="M134.1 21.45 L134.7 28.5 136.4 40.95 Q134.5 32.2 134.1 21.45" fill="#af6924" fill-rule="evenodd" stroke="none"/>
      <path d="M135.05 92.7 L135.8 82.85 135.8 85.7 135.7 89.95 135.2 94.25 134.1 100.65 Q134.5 96.25 135.05 92.7" fill="#af6924" fill-rule="evenodd" stroke="none"/>
      <path d="M135.25 60.75 L136.75 54.3 134.45 74.45 Q134.9 80.25 134.5 86.1 L134.2 89.9 134.05 90.75 134.05 87.6 133.75 80.9 Q133.6 76.9 133.8 73.95 L134.1 69.85 134.55 65.7 135.25 60.75" fill="#af6924" fill-rule="evenodd" stroke="none"/>
      <path d="M134.05 90.75 L134.05 92.1 132.35 101.8 Q127.7 129.95 132.4 154.4 126.55 127.9 132.35 100.0 L134.05 90.75" fill="#af6924" fill-rule="evenodd" stroke="none"/>
      <path d="M133.5 109.1 Q133.15 119.7 133.8 132.6 134.2 141.2 135.4 155.95 L134.8 156.35 Q133.8 147.2 132.25 139.35 130.95 132.2 131.45 123.5 131.65 119.05 133.0 108.05 L133.65 103.45 134.1 100.65 133.8 103.65 133.5 109.1" fill="#af6924" fill-rule="evenodd" stroke="none"/>
      <path d="M133.9 14.75 L134.1 21.45 133.75 14.65 133.9 14.75" fill="#af6924" fill-rule="evenodd" stroke="none"/>
      <path d="M137.05 33.65 L135.45 15.8 135.7 16.0 137.7 36.65 Q138.7 48.7 138.05 57.35 L137.6 62.25 136.55 72.95 135.8 82.85 135.9 73.95 136.65 63.95 137.15 59.0 Q137.15 57.75 137.65 55.3 L138.15 51.6 Q137.95 44.35 137.05 33.65" fill="#af6924" fill-rule="evenodd" stroke="none"/>
      <path d="M137.15 44.2 Q137.75 46.6 137.55 49.35 137.45 51.35 136.75 54.3 137.15 48.25 136.4 40.95 L137.15 44.2" fill="#af6924" fill-rule="evenodd" stroke="none"/>
      <path d="M134.7 28.5 L134.1 21.45 133.9 14.75 135.45 15.8 137.05 33.65 Q137.95 44.35 138.15 51.6 L137.65 55.3 Q137.15 57.75 137.15 59.0 L136.65 63.95 135.9 73.95 135.8 82.85 135.05 92.7 Q134.5 96.25 134.1 100.65 L133.65 103.45 133.0 108.05 Q131.65 119.05 131.45 123.5 130.95 132.2 132.25 139.35 133.8 147.2 134.8 156.35 L133.1 157.5 132.4 154.4 Q127.7 129.95 132.35 101.8 L134.05 92.1 134.05 90.75 134.2 89.9 134.5 86.1 Q134.9 80.25 134.45 74.45 L136.75 54.3 Q137.45 51.35 137.55 49.35 137.75 46.6 137.15 44.2 L136.4 40.95 134.7 28.5" fill="#af6924" fill-rule="evenodd" stroke="none"/>
      <path d="M141.6 39.8 Q140.35 31.5 139.9 19.25 L140.75 19.9 141.1 24.6 Q141.35 30.0 142.35 40.8 143.05 50.45 142.25 57.05 L140.7 78.9 140.85 90.05 140.75 93.75 140.75 98.65 140.55 103.55 139.1 120.3 Q138.25 130.2 139.1 136.9 L140.35 152.15 139.05 153.2 Q138.3 138.05 138.15 129.9 137.9 116.95 138.55 106.45 L139.1 92.65 139.25 80.4 139.4 77.1 Q139.7 71.6 140.7 60.6 L141.1 56.0 Q142.1 45.5 141.6 39.8" fill="#af6924" fill-rule="evenodd" stroke="none"/>
      <path d="M146.05 24.7 L147.45 26.15 147.65 106.2 Q147.15 116.05 147.15 126.9 146.85 135.85 146.95 146.15 L145.7 147.4 Q145.1 124.05 146.4 106.5 L146.45 98.4 146.1 86.6 146.45 56.1 146.05 24.7" fill="#af6924" fill-rule="evenodd" stroke="none"/>
      <path d="M147.45 26.15 L148.8 27.55 148.4 55.5 148.55 60.7 149.1 84.1 149.15 93.0 149.5 97.65 149.4 106.9 Q148.3 115.4 148.2 125.6 148.15 133.05 148.65 144.35 L147.3 145.75 147.15 126.9 Q147.45 116.25 148.1 106.9 L147.65 97.5 147.45 26.15" fill="#af6924" fill-rule="evenodd" stroke="none"/>
      <path d="M148.1 106.9 Q147.45 116.25 147.15 126.9 147.15 116.05 147.65 106.2 L147.45 90.6 148.1 106.9" fill="#af6924" fill-rule="evenodd" stroke="none"/>
      <path d="M151.1 30.15 L151.8 30.9 Q150.75 46.6 151.0 55.05 L151.4 59.9 152.2 71.65 152.85 83.5 152.75 111.1 Q151.75 121.6 152.7 139.7 L151.3 141.4 Q151.1 134.25 151.3 124.25 L151.65 107.25 151.8 82.5 151.3 69.3 150.6 56.1 150.45 51.05 Q150.4 44.05 151.1 30.15" fill="#af6924" fill-rule="evenodd" stroke="none"/>
      <path d="M153.2 47.2 L153.35 43.75 154.65 34.55 155.35 35.5 Q154.45 44.5 154.5 50.55 L154.8 55.25 Q155.3 61.2 157.3 74.15 157.55 76.5 157.45 79.85 L157.3 85.65 157.6 114.05 157.15 133.7 155.7 135.75 Q155.2 121.9 156.1 112.0 L156.15 87.3 Q156.6 80.75 155.7 71.55 L154.05 55.9 153.65 50.7 Q153.15 49.15 153.2 47.2" fill="#af6924" fill-rule="evenodd" stroke="none"/>
      <path d="M159.1 48.65 Q159.0 45.9 159.15 43.6 L159.25 41.35 160.75 43.95 Q160.25 54.15 162.6 65.65 163.2 69.55 163.25 72.85 L163.0 75.65 163.5 106.1 Q163.3 113.8 163.45 122.45 L163.45 122.7 162.7 124.25 161.95 79.25 160.4 63.8 Q159.2 54.1 159.1 48.65" fill="#af6924" fill-rule="evenodd" stroke="none"/>
      <path d="M161.0 44.4 L162.35 46.9 162.45 53.6 162.75 58.25 Q163.0 61.1 163.45 63.1 L164.35 67.9 164.35 73.4 165.05 96.1 165.15 118.95 163.85 121.8 Q163.6 113.25 163.95 107.25 L163.25 75.65 163.25 72.85 Q163.55 69.95 163.15 68.25 L162.6 65.65 161.1 55.1 Q160.45 49.0 161.0 44.4" fill="#af6924" fill-rule="evenodd" stroke="none"/>
      <path d="M163.15 68.25 Q163.55 69.95 163.25 72.85 163.2 69.55 162.6 65.65 L163.15 68.25" fill="#af6924" fill-rule="evenodd" stroke="none"/>
      <path d="M166.85 69.15 L166.85 63.45 Q166.35 59.9 166.0 55.05 L167.95 60.55 168.95 107.7 167.5 112.55 167.45 108.3 167.45 103.05 167.45 93.0 166.85 69.15" fill="#af6924" fill-rule="evenodd" stroke="none"/>
      <path d="M25.15 25.8 Q37.05 13.9 52.45 7.35 68.4 0.6 85.85 0.6 103.3 0.6 119.25 7.35 134.7 13.9 146.6 25.8 158.45 37.7 165.0 53.1 171.75 69.05 171.75 86.5 171.75 103.9 165.0 119.85 158.45 135.25 146.6 147.15 134.7 159.05 119.25 165.6 103.3 172.35 85.85 172.35 68.4 172.35 52.45 165.6 37.05 159.05 25.15 147.15 13.3 135.25 6.75 119.85 0.0 103.9 0.0 86.5 0.0 69.05 6.75 53.1 13.3 37.7 25.15 25.8" fill="url(#gradient0)" fill-rule="evenodd" stroke="none"/>
      <path d="M85.85 13.4 Q100.6 13.4 114.1 19.1 127.1 24.6 137.15 34.65 147.2 44.65 152.7 57.7 158.4 71.15 158.4 85.9 158.4 100.65 152.7 114.1 147.2 127.1 137.15 137.15 127.1 147.15 114.1 152.65 100.6 158.35 85.85 158.35 71.1 158.35 57.65 152.65 44.6 147.15 34.6 137.15 24.55 127.1 19.05 114.1 13.35 100.65 13.35 85.9 13.35 71.15 19.05 57.7 24.55 44.65 34.6 34.65 44.6 24.6 57.65 19.1 71.1 13.4 85.85 13.4" fill="url(#gradient1)" fill-rule="evenodd" stroke="none"/>
      <path d="M85.85 19.7 Q113.25 19.7 132.65 39.1 152.05 58.5 152.05 85.9 152.05 113.25 132.65 132.65 113.25 152.05 85.85 152.05 58.5 152.05 39.1 132.65 19.7 113.25 19.7 85.9 19.7 58.55 39.1 39.1 58.5 19.7 85.85 19.7" fill="url(#gradient2)" fill-rule="evenodd" stroke="none"/>
      <path d="M85.85 20.55 Q58.8 20.55 39.65 39.7 20.5 58.85 20.5 85.9 20.5 112.95 39.65 132.1 58.75 151.2 85.85 151.2 112.95 151.2 132.05 132.1 151.2 112.95 151.2 85.9 151.2 58.85 132.05 39.7 112.95 20.55 85.85 20.55 M60.2 23.95 Q72.4 18.9 85.85 18.9 99.3 18.9 111.5 23.95 123.75 29.0 133.25 38.5 142.75 48.0 147.8 60.25 152.85 72.45 152.85 85.9 152.85 99.35 147.8 111.55 142.75 123.75 133.25 133.25 123.75 142.75 111.5 147.8 99.3 152.85 85.85 152.85 72.4 152.85 60.2 147.8 48.0 142.75 38.5 133.25 29.0 123.75 23.95 111.55 18.85 99.3 18.85 85.9 18.85 72.5 23.95 60.25 29.0 48.0 38.5 38.5 48.0 29.0 60.2 23.95" fill="#421804" fill-rule="evenodd" stroke="none"/>
    </g>
    <linearGradient gradientTransform="matrix(0.0, -0.1048, -0.1048, 0.0, 85.85, 86.5)" gradientUnits="userSpaceOnUse" id="gradient0" spreadMethod="pad" x1="-819.2" x2="819.2">
      <stop offset="0.0196078431372549" stop-color="#7f3a06"/>
      <stop offset="0.12549019607843137" stop-color="#8e5524" stop-opacity="0.8509804"/>
      <stop offset="0.3568627450980392" stop-color="#ad8965" stop-opacity="0.54901963"/>
      <stop offset="0.5686274509803921" stop-color="#c6b39a" stop-opacity="0.3137255"/>
      <stop offset="0.7529411764705882" stop-color="#d8d0c0" stop-opacity="0.14117648"/>
      <stop offset="0.8980392156862745" stop-color="#e3e3d8" stop-opacity="0.03529412"/>
      <stop offset="0.9882352941176471" stop-color="#e7e9e0" stop-opacity="0.0"/>
    </linearGradient>
    <linearGradient gradientTransform="matrix(0.0, -0.0885, -0.0885, 0.0, 85.85, 85.9)" gradientUnits="userSpaceOnUse" id="gradient1" spreadMethod="pad" x1="-819.2" x2="819.2">
      <stop offset="0.0" stop-color="#eed9c2"/>
      <stop offset="0.08627450980392157" stop-color="#e5ccb5" stop-opacity="0.8745098"/>
      <stop offset="0.3176470588235294" stop-color="#d0ae97" stop-opacity="0.5921569"/>
      <stop offset="0.5176470588235295" stop-color="#c39c84" stop-opacity="0.41960785"/>
      <stop offset="0.6549019607843137" stop-color="#bf967e" stop-opacity="0.35686275"/>
      <stop offset="1.0" stop-color="#582d22"/>
    </linearGradient>
    <linearGradient gradientTransform="matrix(0.0, -0.0808, -0.0808, 0.0, 85.85, 85.9)" gradientUnits="userSpaceOnUse" id="gradient2" spreadMethod="pad" x1="-819.2" x2="819.2">
      <stop offset="0.07450980392156863" stop-color="#8c5130"/>
      <stop offset="0.19215686274509805" stop-color="#a56741"/>
      <stop offset="0.44313725490196076" stop-color="#e59f6c"/>
      <stop offset="0.47843137254901963" stop-color="#efa773"/>
      <stop offset="0.596078431372549" stop-color="#eeab77"/>
      <stop offset="0.7176470588235294" stop-color="#ecb684"/>
      <stop offset="0.8431372549019608" stop-color="#e8c799"/>
      <stop offset="0.9725490196078431" stop-color="#e3dfb6"/>
      <stop offset="1.0" stop-color="#e2e5bd"/>
    </linearGradient>
    <g id="sprite0" transform="matrix(1.0, 0.0, 0.0, 1.0, 0.0, 0.0)">
      <use height="118.65" transform="matrix(1.0, 0.0, 0.0, 1.0, 0.0, 0.0)" width="118.85" xlink:href="#shape1"/>
    </g>
    <g id="shape1" transform="matrix(1.0, 0.0, 0.0, 1.0, 0.0, 0.0)">
      <path d="M118.85 59.35 Q118.85 83.9 101.45 101.3 84.05 118.65 59.4 118.65 34.8 118.65 17.4 101.3 0.0 83.9 0.0 59.35 0.0 34.8 17.4 17.4 34.8 0.0 59.4 0.0 84.05 0.0 101.45 17.4 118.85 34.8 118.85 59.35" fill="url(#gradient3)" fill-rule="evenodd" stroke="none"/>
    </g>
    <radialGradient cx="0" cy="0" gradientTransform="matrix(0.0725, 0.0, 0.0, -0.0725, 59.4, 59.35)" gradientUnits="userSpaceOnUse" id="gradient3" r="819.2" spreadMethod="pad">
      <stop offset="0.0" stop-color="#e2e5bd"/>
      <stop offset="0.08235294117647059" stop-color="#e3dcb2"/>
      <stop offset="0.2235294117647059" stop-color="#e5c596"/>
      <stop offset="0.40784313725490196" stop-color="#e99f6a"/>
      <stop offset="0.6078431372549019" stop-color="#ee6e33"/>
      <stop offset="0.6745098039215687" stop-color="#e86c33" stop-opacity="0.972549"/>
      <stop offset="0.7607843137254902" stop-color="#d76732" stop-opacity="0.8980392"/>
      <stop offset="0.8666666666666667" stop-color="#bb5f31" stop-opacity="0.78039217"/>
      <stop offset="0.9764705882352941" stop-color="#955430" stop-opacity="0.6156863"/>
      <stop offset="1.0" stop-color="#8c5130" stop-opacity="0.5764706"/>
    </radialGradient>
    <g id="shape2" transform="matrix(1.0, 0.0, 0.0, 1.0, -47.4, -37.9)">
      <path d="M53.1 40.45 Q53.7 39.75 54.7 39.75 L59.4 39.75 Q60.4 39.75 61.05 40.4 61.6 41.05 61.6 42.05 L61.6 60.75 Q61.6 61.95 60.9 62.65 60.2 63.35 59.1 63.35 58.0 63.35 57.35 62.65 56.65 61.95 56.65 60.75 L56.65 44.25 54.7 44.25 Q53.6 44.25 53.0 43.55 52.5 42.9 52.5 42.0 52.5 41.1 53.1 40.45" fill="#f3d3a5" fill-rule="evenodd" stroke="none"/>
      <path d="M80.1 43.4 Q81.95 46.65 81.95 51.45 81.95 56.25 80.1 59.5 77.8 63.55 73.25 63.55 68.7 63.55 66.4 59.5 64.55 56.25 64.55 51.45 64.55 46.65 66.4 43.4 68.7 39.35 73.25 39.35 77.8 39.35 80.1 43.4 M76.85 51.45 Q76.85 43.8 73.25 43.8 69.65 43.8 69.65 51.45 69.65 59.05 73.25 59.05 76.85 59.05 76.85 51.45" fill="#f3d3a5" fill-rule="evenodd" stroke="none"/>
      <path d="M92.15 39.35 Q96.65 39.35 99.0 43.4 100.85 46.65 100.85 51.45 100.85 56.25 99.0 59.5 96.65 63.55 92.15 63.55 87.6 63.55 85.3 59.5 83.4 56.25 83.4 51.45 83.4 46.65 85.3 43.4 87.6 39.35 92.15 39.35 M92.15 59.05 Q95.7 59.05 95.7 51.45 95.7 43.8 92.15 43.8 88.55 43.8 88.55 51.45 88.55 59.05 92.15 59.05" fill="#f3d3a5" fill-rule="evenodd" stroke="none"/>
      <path d="M119.25 47.5 Q119.25 50.9 116.3 55.7 113.85 59.75 110.9 62.5 L109.85 63.3 108.85 63.55 Q108.15 63.55 107.35 62.8 106.55 62.0 106.55 61.15 106.55 60.75 107.2 59.8 L109.55 57.15 111.75 54.55 111.7 54.45 109.6 54.85 Q106.75 54.85 104.7 52.6 102.75 50.45 102.75 47.5 102.75 44.2 105.05 41.8 107.45 39.35 111.0 39.35 114.7 39.35 117.0 41.8 119.25 44.1 119.25 47.5 M107.9 47.5 Q107.9 48.9 108.7 49.85 109.55 50.9 111.0 50.9 112.4 50.9 113.25 49.95 114.1 49.0 114.1 47.5 114.1 46.05 113.3 45.1 112.4 44.05 111.0 44.05 109.65 44.05 108.75 45.05 107.9 46.05 107.9 47.5" fill="#f3d3a5" fill-rule="evenodd" stroke="none"/>
      <path d="M53.1 39.0 Q53.7 38.3 54.7 38.3 L59.4 38.3 Q60.4 38.3 61.05 38.95 61.6 39.6 61.6 40.6 L61.6 59.3 Q61.6 60.5 60.9 61.2 60.2 61.9 59.1 61.9 58.0 61.9 57.35 61.2 56.65 60.5 56.65 59.3 L56.65 42.8 54.7 42.8 Q53.6 42.8 53.0 42.1 52.5 41.45 52.5 40.55 52.5 39.65 53.1 39.0" fill="url(#gradient4)" fill-rule="evenodd" stroke="none"/>
      <path d="M80.1 41.95 Q81.95 45.15 81.95 50.0 81.95 54.8 80.1 58.05 77.8 62.1 73.25 62.1 68.7 62.1 66.4 58.05 64.55 54.8 64.55 50.0 64.55 45.15 66.4 41.95 68.7 37.9 73.25 37.9 77.8 37.9 80.1 41.95 M76.85 50.0 Q76.85 42.35 73.25 42.35 69.65 42.35 69.65 50.0 69.65 57.6 73.25 57.6 76.85 57.6 76.85 50.0" fill="url(#gradient5)" fill-rule="evenodd" stroke="none"/>
      <path d="M92.15 37.9 Q96.65 37.9 99.0 41.95 100.85 45.2 100.85 50.0 100.85 54.8 99.0 58.05 96.65 62.1 92.15 62.1 87.6 62.1 85.3 58.05 83.4 54.8 83.4 50.0 83.4 45.2 85.3 41.95 87.6 37.9 92.15 37.9 M92.15 57.6 Q95.7 57.6 95.7 50.0 95.7 42.35 92.15 42.35 88.55 42.35 88.55 50.0 88.55 57.6 92.15 57.6" fill="url(#gradient6)" fill-rule="evenodd" stroke="none"/>
      <path d="M113.3 43.65 Q112.4 42.6 111.0 42.6 109.65 42.6 108.75 43.6 107.9 44.6 107.9 46.05 107.9 47.45 108.7 48.4 109.55 49.45 111.0 49.45 112.4 49.45 113.25 48.5 114.1 47.55 114.1 46.05 114.1 44.6 113.3 43.65 M105.05 40.35 Q107.45 37.9 111.0 37.9 114.7 37.9 117.0 40.35 119.25 42.65 119.25 46.05 119.25 49.45 116.3 54.25 113.85 58.3 110.9 61.05 L109.85 61.85 108.85 62.1 Q108.15 62.1 107.35 61.35 106.55 60.55 106.55 59.7 106.55 59.2 107.2 58.35 L109.55 55.65 111.75 53.05 111.7 53.0 109.6 53.4 Q106.75 53.4 104.7 51.15 102.75 49.0 102.75 46.05 102.75 42.75 105.05 40.35" fill="url(#gradient7)" fill-rule="evenodd" stroke="none"/>
      <path d="M58.9 93.7 L58.65 90.2 Q58.65 79.85 66.0 72.5 73.35 65.15 83.75 65.15 91.1 65.15 97.3 69.15 103.3 73.05 106.4 79.5 107.6 77.45 109.7 76.25 111.85 75.0 114.35 75.0 118.2 75.0 120.9 77.7 123.65 80.45 123.65 84.3 123.65 88.15 120.9 90.9 118.2 93.6 114.35 93.6 111.2 93.6 108.75 91.7 108.4 97.4 105.7 102.3 L109.75 101.75 Q116.25 101.75 120.85 106.35 125.45 110.95 125.45 117.45 125.45 123.95 120.85 128.5 116.25 133.1 109.75 133.1 103.25 133.1 98.65 128.5 94.05 123.95 94.05 117.45 94.05 115.05 94.75 112.7 89.55 115.3 83.75 115.3 L80.2 115.05 Q78.5 120.1 74.15 123.2 69.75 126.4 64.3 126.4 57.35 126.4 52.45 121.5 47.5 116.55 47.5 109.6 47.5 104.15 50.7 99.75 53.85 95.4 58.9 93.7" fill="#f3d3a5" fill-rule="evenodd" stroke="none"/>
      <path d="M58.9 92.8 L58.65 89.3 Q58.65 78.9 66.0 71.55 73.35 64.2 83.75 64.2 91.1 64.2 97.3 68.2 103.3 72.1 106.4 78.55 107.6 76.5 109.7 75.3 111.85 74.05 114.35 74.05 118.2 74.05 120.9 76.8 123.65 79.55 123.65 83.35 123.65 87.2 120.9 89.95 118.2 92.65 114.35 92.65 111.25 92.65 108.75 90.8 108.35 96.55 105.7 101.35 L109.75 100.8 Q116.25 100.8 120.85 105.4 125.45 110.0 125.45 116.5 125.45 123.0 120.85 127.6 116.25 132.2 109.75 132.2 103.25 132.2 98.65 127.6 94.05 123.0 94.05 116.5 94.05 114.05 94.75 111.8 89.5 114.35 83.75 114.35 L80.2 114.1 Q78.5 119.15 74.15 122.3 69.75 125.5 64.3 125.5 57.35 125.5 52.45 120.55 47.5 115.65 47.5 108.7 47.5 103.25 50.7 98.85 53.85 94.5 58.9 92.8" fill="url(#gradient8)" fill-rule="evenodd" stroke="none"/>
      <path d="M58.9 92.8 Q53.85 94.5 50.7 98.85 47.5 103.25 47.5 108.7 47.5 115.65 52.45 120.55 57.35 125.5 64.3 125.5 69.75 125.5 74.15 122.3 78.5 119.15 80.2 114.1 L83.75 114.35 Q89.5 114.35 94.75 111.8 94.05 114.05 94.05 116.5 94.05 123.0 98.65 127.6 103.25 132.2 109.75 132.2 116.25 132.2 120.85 127.6 125.45 123.0 125.45 116.5 125.45 110.0 120.85 105.4 116.25 100.8 109.75 100.8 L105.7 101.35 Q108.35 96.55 108.75 90.8 111.25 92.65 114.35 92.65 118.2 92.65 120.9 89.95 123.65 87.2 123.65 83.35 123.65 79.55 120.9 76.8 118.2 74.05 114.35 74.05 111.85 74.05 109.7 75.3 107.6 76.5 106.4 78.55 103.3 72.1 97.3 68.2 91.1 64.2 83.75 64.2 73.35 64.2 66.0 71.55 58.65 78.9 58.65 89.3 L58.9 92.8 Z" fill="none" stroke="#f3d3a5" stroke-linecap="butt" stroke-linejoin="miter" stroke-width="0.25"/>
      <path d="M83.75 64.1 Q90.9 64.1 97.1 67.95 103.25 71.8 106.4 78.3 107.7 76.25 109.8 75.1 111.9 73.95 114.35 73.95 118.25 73.95 121.0 76.7 123.75 79.45 123.75 83.35 123.75 87.25 121.0 90.05 118.25 92.8 114.35 92.8 111.25 92.8 108.85 91.0 108.5 96.4 105.9 101.15 L109.75 100.7 Q116.3 100.7 120.95 105.35 125.6 110.0 125.6 116.5 125.6 123.05 120.95 127.7 116.3 132.3 109.75 132.3 103.2 132.3 98.55 127.7 93.9 123.05 93.9 116.5 93.9 114.45 94.55 112.0 89.5 114.45 83.75 114.45 L80.3 114.25 Q78.55 119.35 74.15 122.5 69.75 125.6 64.3 125.6 57.35 125.6 52.35 120.65 47.4 115.7 47.4 108.7 47.4 103.25 50.55 98.85 53.65 94.45 58.75 92.7 L58.55 89.3 Q58.55 78.9 65.95 71.5 73.35 64.1 83.75 64.1 M58.95 92.9 Q53.9 94.65 50.75 99.0 47.65 103.35 47.65 108.7 47.65 115.6 52.55 120.5 57.45 125.35 64.3 125.35 69.65 125.35 74.0 122.25 78.4 119.1 80.1 114.05 L80.15 113.95 80.25 113.95 83.75 114.2 Q89.55 114.2 94.7 111.65 L95.0 111.55 94.9 111.8 Q94.15 114.15 94.15 116.5 94.15 122.95 98.75 127.5 103.3 132.05 109.75 132.05 116.2 132.05 120.8 127.5 125.35 122.95 125.35 116.5 125.35 110.1 120.8 105.5 116.2 100.95 109.75 100.95 107.55 100.95 105.7 101.5 L105.45 101.55 105.55 101.3 Q108.3 96.35 108.6 90.8 L108.65 90.55 108.8 90.7 Q111.35 92.55 114.35 92.55 118.15 92.55 120.8 89.85 123.5 87.15 123.5 83.35 123.5 79.55 120.8 76.9 118.15 74.2 114.35 74.2 111.9 74.2 109.85 75.4 107.75 76.55 106.5 78.65 L106.35 78.85 106.25 78.6 Q103.2 72.1 97.05 68.25 90.9 64.35 83.75 64.35 73.45 64.35 66.1 71.65 58.8 79.0 58.8 89.3 58.8 91.3 59.05 92.75 L59.05 92.85 58.95 92.9" fill="#f3d3a5" fill-rule="evenodd" stroke="none"/>
      <path d="M62.75 95.25 Q61.95 92.4 61.95 89.3 61.95 80.25 68.35 73.9 74.7 67.5 83.75 67.5 92.75 67.5 99.15 73.9 105.55 80.25 105.55 89.3 105.55 98.3 99.15 104.7 92.75 111.1 83.75 111.1 L77.75 110.25 Q77.2 115.35 73.35 118.8 69.5 122.2 64.3 122.2 58.7 122.2 54.75 118.25 50.8 114.3 50.8 108.7 50.8 103.5 54.25 99.65 57.65 95.8 62.75 95.25" fill="#421804" fill-rule="evenodd" stroke="none"/>
      <path d="M109.75 104.1 Q114.9 104.1 118.55 107.75 122.2 111.35 122.2 116.5 122.2 121.65 118.55 125.3 114.9 128.9 109.75 128.9 104.6 128.9 100.95 125.3 97.3 121.65 97.3 116.5 97.3 111.35 100.95 107.75 104.6 104.1 109.75 104.1" fill="#421804" fill-rule="evenodd" stroke="none"/>
      <path d="M114.35 89.4 Q111.85 89.4 110.05 87.65 108.3 85.85 108.3 83.35 108.3 80.85 110.05 79.1 111.85 77.3 114.35 77.3 116.85 77.3 118.6 79.1 120.4 80.9 120.4 83.35 120.4 85.85 118.6 87.65 116.85 89.4 114.35 89.4" fill="#421804" fill-rule="evenodd" stroke="none"/>
    </g>
    <linearGradient gradientTransform="matrix(0.0, -0.0144, -0.0144, 0.0, 57.05, 50.1)" gradientUnits="userSpaceOnUse" id="gradient4" spreadMethod="pad" x1="-819.2" x2="819.2">
      <stop offset="0.38823529411764707" stop-color="#510d02"/>
      <stop offset="0.403921568627451" stop-color="#540f02"/>
      <stop offset="0.807843137254902" stop-color="#933b07"/>
      <stop offset="1.0" stop-color="#ac4c0b"/>
    </linearGradient>
    <linearGradient gradientTransform="matrix(0.0, -0.0148, -0.0148, 0.0, 73.25, 50.0)" gradientUnits="userSpaceOnUse" id="gradient5" spreadMethod="pad" x1="-819.2" x2="819.2">
      <stop offset="0.38823529411764707" stop-color="#510d02"/>
      <stop offset="0.403921568627451" stop-color="#540f02"/>
      <stop offset="0.807843137254902" stop-color="#933b07"/>
      <stop offset="1.0" stop-color="#ac4c0b"/>
    </linearGradient>
    <linearGradient gradientTransform="matrix(0.0, -0.0148, -0.0148, 0.0, 92.15, 50.0)" gradientUnits="userSpaceOnUse" id="gradient6" spreadMethod="pad" x1="-819.2" x2="819.2">
      <stop offset="0.38823529411764707" stop-color="#510d02"/>
      <stop offset="0.403921568627451" stop-color="#540f02"/>
      <stop offset="0.807843137254902" stop-color="#933b07"/>
      <stop offset="1.0" stop-color="#ac4c0b"/>
    </linearGradient>
    <linearGradient gradientTransform="matrix(0.0, -0.0148, -0.0148, 0.0, 111.0, 50.0)" gradientUnits="userSpaceOnUse" id="gradient7" spreadMethod="pad" x1="-819.2" x2="819.2">
      <stop offset="0.38823529411764707" stop-color="#510d02"/>
      <stop offset="0.403921568627451" stop-color="#540f02"/>
      <stop offset="0.807843137254902" stop-color="#933b07"/>
      <stop offset="1.0" stop-color="#ac4c0b"/>
    </linearGradient>
    <linearGradient gradientTransform="matrix(0.0, -0.0415, -0.0415, 0.0, 86.5, 98.25)" gradientUnits="userSpaceOnUse" id="gradient8" spreadMethod="pad" x1="-819.2" x2="819.2">
      <stop offset="0.10980392156862745" stop-color="#ab3d15"/>
      <stop offset="0.41568627450980394" stop-color="#c46f46"/>
      <stop offset="0.8117647058823529" stop-color="#e4aa86"/>
      <stop offset="1.0" stop-color="#f0c19f"/>
    </linearGradient>
    <g id="sprite1" transform="matrix(1.0, 0.0, 0.0, 1.0, 0.0, 0.0)">
      <clipPath id="clipPath0" transform="matrix(1.0, 0.0, 0.0, 1.0, 0.0, 0.0)">
        <use height="23.15" transform="matrix(1.097, 0.0, 0.0, 1.0993, 12.675, 12.7025)" width="23.2" xlink:href="#shape3"/>
      </clipPath>
      <g clip-path="url(#clipPath0)">
        <use height="50.8" transform="matrix(1.0, 0.0, 0.0, 1.0, 0.0, 0.0)" width="50.85" xlink:href="#shape4"/>
      </g>
    </g>
    <g id="shape3" transform="matrix(1.0, 0.0, 0.0, 1.0, -11.6, -11.6)">
      <path d="M11.6 23.2 Q11.6 18.4 15.0 15.0 18.4 11.6 23.2 11.6 28.0 11.6 31.4 15.0 34.8 18.4 34.8 23.2 34.8 28.0 31.4 31.4 28.0 34.75 23.2 34.75 18.4 34.75 15.0 31.4 11.6 28.0 11.6 23.2" fill="#ff0000" fill-rule="evenodd" stroke="none"/>
    </g>
    <g id="shape4" transform="matrix(1.0, 0.0, 0.0, 1.0, 0.0, 0.0)">
      <path d="M25.45 0.0 L50.85 25.4 25.45 50.8 0.0 25.4 25.45 0.0" fill="url(#gradient9)" fill-rule="evenodd" stroke="none"/>
    </g>
    <radialGradient cx="0" cy="0" gradientTransform="matrix(0.0091, 0.0091, -0.0091, 0.0091, 25.1, 25.2)" gradientUnits="userSpaceOnUse" id="gradient9" r="819.2" spreadMethod="pad">
      <stop offset="0.0" stop-color="#e2f3f5"/>
      <stop offset="0.42745098039215684" stop-color="#e0f2f4"/>
      <stop offset="0.6588235294117647" stop-color="#d9f0f2"/>
      <stop offset="0.8431372549019608" stop-color="#ccebee"/>
      <stop offset="1.0" stop-color="#bae5e9"/>
      <stop offset="1.0" stop-color="#bae5e9"/>
    </radialGradient>
    <g id="sprite2" transform="matrix(1.0, 0.0, 0.0, 1.0, 0.0, 0.0)">
      <use height="25.75" transform="matrix(1.0, 0.0, 0.0, 1.0, 0.0, 0.0)" width="25.8" xlink:href="#shape5"/>
    </g>
    <g id="shape5" transform="matrix(1.0, 0.0, 0.0, 1.0, 0.0, 0.0)">
      <path d="M22.0 22.0 Q18.25 25.75 12.9 25.75 7.55 25.75 3.8 22.0 0.0 18.2 0.0 12.85 0.0 7.55 3.8 3.75 7.55 0.0 12.9 0.0 18.25 0.0 22.0 3.75 25.8 7.55 25.8 12.85 25.8 18.2 22.0 22.0 M25.45 12.85 Q25.45 7.7 21.75 4.0 18.1 0.3 12.9 0.3 7.7 0.3 4.0 4.0 0.35 7.65 0.35 12.85 0.35 18.05 4.0 21.75 7.7 25.4 12.9 25.4 18.1 25.4 21.75 21.75 25.45 18.05 25.45 12.85" fill="#ffffff" fill-rule="evenodd" stroke="none"/>
    </g>
    <g id="shape6" transform="matrix(1.0, 0.0, 0.0, 1.0, -54.3, -100.55)">
      <path d="M57.7 100.55 Q60.25 100.6 58.4 103.0 56.35 105.5 55.6 104.7 54.95 103.95 55.7 102.25 56.5 100.5 57.7 100.55" fill="#ffffff" fill-rule="evenodd" stroke="none"/>
      <path d="M54.95 105.95 Q55.6 106.05 55.35 106.9 55.15 107.75 54.65 107.45 54.2 107.15 54.35 106.5 54.55 105.85 54.95 105.95" fill="#ffffff" fill-rule="evenodd" stroke="none"/>
    </g>
    <g id="sprite3" transform="matrix(1.0, 0.0, 0.0, 1.0, 0.0, 0.0)">
      <use height="12.35" transform="matrix(1.0, 0.0, 0.0, 1.0, 0.0, 0.0)" width="20.1" xlink:href="#sprite4"/>
    </g>
    <g id="sprite4" transform="matrix(1.0, 0.0, 0.0, 1.0, 0.0, 0.0)">
      <clipPath id="clipPath1" transform="matrix(1.0, 0.0, 0.0, 1.0, 0.0, 0.0)">
        <use height="11.25" transform="matrix(1.1014, 0.0, 0.0, 1.0978, 0.0, 0.0)" width="18.25" xlink:href="#shape7"/>
      </clipPath>
      <g clip-path="url(#clipPath1)">
        <use height="5.2" transform="matrix(2.3855, 0.0, 0.0, 2.375, 0.3078, 0.0)" width="8.3" xlink:href="#shape8"/>
      </g>
    </g>
    <g id="shape7" transform="matrix(1.0, 0.0, 0.0, 1.0, 0.0, 0.0)">
      <path d="M0.0 11.25 L0.0 0.0 18.25 0.0 18.25 11.25 0.0 11.25" fill="#ff0000" fill-rule="evenodd" stroke="none"/>
    </g>
    <g id="shape8" transform="matrix(1.0, 0.0, 0.0, 1.0, -0.15, 0.0)">
      <path d="M8.25 1.85 Q7.6 3.9 5.3 4.85 L1.6 4.75 0.15 3.85 Q0.55 4.2 1.35 4.45 L5.15 4.2 Q7.05 3.55 7.9 1.7 L8.4 0.0 8.25 1.85" fill="#ffffff" fill-rule="evenodd" stroke="none"/>
    </g>
    <g id="sprite5" transform="matrix(1.0, 0.0, 0.0, 1.0, 0.0, 0.0)">
      <clipPath id="clipPath2" transform="matrix(1.0, 0.0, 0.0, 1.0, 0.0, 0.0)">
        <use height="23.15" transform="matrix(0.459, 0.0, 0.0, 0.4622, 5.3749, 5.3116)" width="23.2" xlink:href="#shape3"/>
      </clipPath>
      <g clip-path="url(#clipPath2)">
        <use height="21.35" transform="matrix(1.0, 0.0, 0.0, 1.0, 0.0, 0.0)" width="21.35" xlink:href="#shape9"/>
      </g>
    </g>
    <g id="shape9" transform="matrix(1.0, 0.0, 0.0, 1.0, 0.0, 0.0)">
      <path d="M10.7 0.0 L21.35 10.65 10.7 21.35 0.0 10.65 10.7 0.0" fill="url(#gradient10)" fill-rule="evenodd" stroke="none"/>
    </g>
    <radialGradient cx="0" cy="0" gradientTransform="matrix(0.0038, 0.0038, -0.0038, 0.0038, 10.55, 10.55)" gradientUnits="userSpaceOnUse" id="gradient10" r="819.2" spreadMethod="pad">
      <stop offset="0.0" stop-color="#e2f3f5"/>
      <stop offset="0.42745098039215684" stop-color="#e0f2f4"/>
      <stop offset="0.6588235294117647" stop-color="#d9f0f2"/>
      <stop offset="0.8431372549019608" stop-color="#ccebee"/>
      <stop offset="1.0" stop-color="#bae5e9"/>
      <stop offset="1.0" stop-color="#bae5e9"/>
    </radialGradient>
    <g id="sprite6" transform="matrix(1.0, 0.0, 0.0, 1.0, 0.0, 0.0)">
      <use height="10.8" transform="matrix(1.0, 0.0, 0.0, 1.0, 0.0, 0.0)" width="10.85" xlink:href="#shape10"/>
    </g>
    <g id="shape10" transform="matrix(1.0, 0.0, 0.0, 1.0, 0.0, 0.0)">
      <path d="M9.25 1.6 Q10.85 3.2 10.85 5.4 10.85 7.65 9.25 9.25 7.65 10.8 5.45 10.8 3.2 10.8 1.6 9.25 0.0 7.65 0.0 5.4 0.0 3.2 1.6 1.6 3.2 0.0 5.45 0.0 7.65 0.0 9.25 1.6 M5.45 0.15 Q3.25 0.15 1.7 1.7 0.15 3.25 0.15 5.4 0.15 7.6 1.7 9.15 3.3 10.7 5.45 10.7 7.6 10.7 9.15 9.15 10.7 7.6 10.7 5.4 10.7 3.25 9.15 1.7 7.65 0.15 5.45 0.15" fill="#ffffff" fill-rule="evenodd" stroke="none"/>
    </g>
    <g id="shape11" transform="matrix(1.0, 0.0, 0.0, 1.0, -110.1, -79.95)">
      <path d="M111.55 79.95 Q112.65 80.0 111.85 81.0 111.0 82.05 110.65 81.7 110.4 81.4 110.7 80.7 111.05 79.95 111.55 79.95" fill="#ffffff" fill-rule="evenodd" stroke="none"/>
      <path d="M110.4 82.2 Q110.65 82.25 110.55 82.6 110.45 82.95 110.25 82.85 110.05 82.75 110.15 82.45 110.2 82.15 110.4 82.2" fill="#ffffff" fill-rule="evenodd" stroke="none"/>
    </g>
    <g id="sprite7" transform="matrix(1.0, 0.0, 0.0, 1.0, 0.0, 0.0)">
      <use height="5.2" transform="matrix(1.0, 0.0, 0.0, 1.0, 0.0, 0.0)" width="8.45" xlink:href="#sprite8"/>
    </g>
    <g id="sprite8" transform="matrix(1.0, 0.0, 0.0, 1.0, 0.0, 0.0)">
      <clipPath id="clipPath3" transform="matrix(1.0, 0.0, 0.0, 1.0, 0.0, 0.0)">
        <use height="11.25" transform="matrix(0.463, 0.0, 0.0, 0.4622, 0.0, 0.0)" width="18.25" xlink:href="#shape7"/>
      </clipPath>
      <g clip-path="url(#clipPath3)">
        <use height="5.2" transform="matrix(1.0, 0.0, 0.0, 1.0, 0.15, 0.0)" width="8.3" xlink:href="#shape8"/>
      </g>
    </g>
    <g id="sprite9" transform="matrix(1.0, 0.0, 0.0, 1.0, 0.0, 0.0)">
      <clipPath id="clipPath4" transform="matrix(1.0, 0.0, 0.0, 1.0, 0.0, 0.0)">
        <use height="23.15" transform="matrix(1.791, 0.0, 0.0, 1.7948, 20.7751, 20.7699)" width="23.2" xlink:href="#shape3"/>
      </clipPath>
      <g clip-path="url(#clipPath4)">
        <use height="83.05" transform="matrix(1.0, 0.0, 0.0, 1.0, 0.0, 0.0)" width="83.1" xlink:href="#shape12"/>
      </g>
    </g>
    <g id="shape12" transform="matrix(1.0, 0.0, 0.0, 1.0, 0.0, 0.0)">
      <path d="M41.55 0.0 L83.1 41.55 41.55 83.05 0.0 41.55 41.55 0.0" fill="url(#gradient11)" fill-rule="evenodd" stroke="none"/>
    </g>
    <radialGradient cx="0" cy="0" gradientTransform="matrix(0.015, 0.015, -0.015, 0.015, 41.0, 41.2)" gradientUnits="userSpaceOnUse" id="gradient11" r="819.2" spreadMethod="pad">
      <stop offset="0.0" stop-color="#e2f3f5"/>
      <stop offset="0.42745098039215684" stop-color="#e0f2f4"/>
      <stop offset="0.6588235294117647" stop-color="#d9f0f2"/>
      <stop offset="0.8431372549019608" stop-color="#ccebee"/>
      <stop offset="1.0" stop-color="#bae5e9"/>
      <stop offset="1.0" stop-color="#bae5e9"/>
    </radialGradient>
    <g id="sprite10" transform="matrix(1.0, 0.0, 0.0, 1.0, 0.0, 0.0)">
      <use height="23.45" transform="matrix(1.7915, 0.0, 0.0, 1.7953, 0.0, 0.0)" width="23.5" xlink:href="#shape13"/>
    </g>
    <g id="shape13" transform="matrix(1.0, 0.0, 0.0, 1.0, 0.0, 0.0)">
      <path d="M20.05 3.45 Q23.5 6.9 23.5 11.75 23.5 16.6 20.05 20.0 16.6 23.45 11.75 23.45 6.9 23.45 3.45 20.0 0.0 16.6 0.0 11.75 0.0 6.9 3.45 3.45 6.9 0.0 11.75 0.0 16.65 0.0 20.05 3.45 M11.75 0.3 Q7.05 0.3 3.65 3.65 0.3 7.05 0.3 11.75 0.3 16.45 3.65 19.8 7.0 23.15 11.75 23.15 16.5 23.15 19.85 19.8 23.2 16.45 23.2 11.75 23.2 7.05 19.85 3.65 16.5 0.3 11.75 0.3" fill="#ffffff" fill-rule="evenodd" stroke="none"/>
    </g>
    <g id="shape14" transform="matrix(1.0, 0.0, 0.0, 1.0, -67.35, -76.15)">
      <path d="M72.9 76.15 Q77.05 76.25 73.95 80.1 L71.35 82.45 Q69.85 83.4 69.4 82.85 68.3 81.65 69.6 78.9 70.9 76.1 72.9 76.15" fill="#ffffff" fill-rule="evenodd" stroke="none"/>
      <path d="M68.35 84.9 Q69.4 85.1 69.0 86.5 68.6 87.9 67.85 87.4 67.15 86.95 67.4 85.85 67.65 84.8 68.35 84.9" fill="#ffffff" fill-rule="evenodd" stroke="none"/>
    </g>
    <g id="sprite11" transform="matrix(1.0, 0.0, 0.0, 1.0, 0.0, 0.0)">
      <use height="20.2" transform="matrix(1.0, 0.0, 0.0, 1.0, 0.0, 0.0)" width="32.85" xlink:href="#sprite12"/>
    </g>
    <g id="sprite12" transform="matrix(1.0, 0.0, 0.0, 1.0, 0.0, 0.0)">
      <clipPath id="clipPath5" transform="matrix(1.0, 0.0, 0.0, 1.0, 0.0, 0.0)">
        <use height="11.25" transform="matrix(1.7945, 0.0, 0.0, 1.7956, 0.0, 0.0)" width="18.25" xlink:href="#shape7"/>
      </clipPath>
      <g clip-path="url(#clipPath5)">
        <use height="5.2" transform="matrix(3.9036, 0.0, 0.0, 3.8846, 0.4355, 0.0)" width="8.3" xlink:href="#shape8"/>
      </g>
    </g>
    <g id="sprite13" transform="matrix(1.0, 0.0, 0.0, 1.0, 0.0, 0.0)">
      <clipPath id="clipPath6" transform="matrix(1.0, 0.0, 0.0, 1.0, 0.0, 0.0)">
        <use height="23.15" transform="matrix(1.0, 0.0, 0.0, 1.0, 11.6, 11.6)" width="23.2" xlink:href="#shape3"/>
      </clipPath>
      <g clip-path="url(#clipPath6)">
        <use height="46.35" transform="matrix(1.0, 0.0, 0.0, 1.0, 0.0, 0.0)" width="46.4" xlink:href="#shape15"/>
      </g>
    </g>
    <g id="shape15" transform="matrix(1.0, 0.0, 0.0, 1.0, 0.0, 0.0)">
      <path d="M23.2 0.0 L46.4 23.2 23.2 46.35 0.0 23.2 23.2 0.0" fill="url(#gradient12)" fill-rule="evenodd" stroke="none"/>
    </g>
    <radialGradient cx="0" cy="0" gradientTransform="matrix(0.0083, 0.0083, -0.0083, 0.0083, 22.9, 23.0)" gradientUnits="userSpaceOnUse" id="gradient12" r="819.2" spreadMethod="pad">
      <stop offset="0.0" stop-color="#e2f3f5"/>
      <stop offset="0.42745098039215684" stop-color="#e0f2f4"/>
      <stop offset="0.6588235294117647" stop-color="#d9f0f2"/>
      <stop offset="0.8431372549019608" stop-color="#ccebee"/>
      <stop offset="1.0" stop-color="#bae5e9"/>
      <stop offset="1.0" stop-color="#bae5e9"/>
    </radialGradient>
    <g id="sprite14" transform="matrix(1.0, 0.0, 0.0, 1.0, 0.0, 0.0)">
      <use height="23.45" transform="matrix(1.0, 0.0, 0.0, 1.0, 0.0, 0.0)" width="23.5" xlink:href="#shape13"/>
    </g>
    <g id="shape16" transform="matrix(1.0, 0.0, 0.0, 1.0, -100.5, -109.15)">
      <path d="M103.6 109.15 Q105.95 109.2 104.2 111.35 102.35 113.65 101.65 112.9 101.05 112.25 101.8 110.7 102.5 109.1 103.6 109.15" fill="#ffffff" fill-rule="evenodd" stroke="none"/>
      <path d="M101.1 114.05 Q101.7 114.15 101.45 114.95 101.25 115.75 100.8 115.45 100.4 115.15 100.55 114.55 100.7 114.0 101.1 114.05" fill="#ffffff" fill-rule="evenodd" stroke="none"/>
    </g>
    <g id="sprite15" transform="matrix(1.0, 0.0, 0.0, 1.0, 0.0, 0.0)">
      <use height="11.25" transform="matrix(1.0, 0.0, 0.0, 1.0, 0.0, 0.0)" width="18.3" xlink:href="#sprite16"/>
    </g>
    <g id="sprite16" transform="matrix(1.0, 0.0, 0.0, 1.0, 0.0, 0.0)">
      <clipPath id="clipPath7" transform="matrix(1.0, 0.0, 0.0, 1.0, 0.0, 0.0)">
        <use height="11.25" transform="matrix(1.0, 0.0, 0.0, 1.0, 0.0, 0.0)" width="18.25" xlink:href="#shape7"/>
      </clipPath>
      <g clip-path="url(#clipPath7)">
        <use height="5.2" transform="matrix(2.1807, 0.0, 0.0, 2.1635, 0.1771, 0.0)" width="8.3" xlink:href="#shape8"/>
      </g>
    </g>
    <g id="sprite17" transform="matrix(1.0, 0.0, 0.0, 1.0, 0.0, 0.0)">
      <use height="57.1" transform="matrix(1.0, 0.0, 0.0, 1.0, 0.0, 0.0)" width="118.7" xlink:href="#shape17"/>
    </g>
    <g id="shape17" transform="matrix(1.0, 0.0, 0.0, 1.0, 0.0, 0.0)">
      <path d="M95.5 30.35 Q111.6 18.8 118.2 0.25 L118.7 0.0 Q117.85 23.85 100.6 40.45 83.35 57.1 59.3 57.1 35.75 57.1 18.6 41.0 1.55 25.0 0.0 1.7 6.9 19.7 22.75 30.75 39.0 42.1 58.85 42.1 79.1 42.1 95.5 30.35" fill="url(#gradient13)" fill-rule="evenodd" stroke="none"/>
    </g>
    <radialGradient cx="0" cy="0" gradientTransform="matrix(0.0568, 0.0, 0.0, -0.0568, 59.35, 28.55)" gradientUnits="userSpaceOnUse" id="gradient13" r="819.2" spreadMethod="pad">
      <stop offset="0.0" stop-color="#f3a32d" stop-opacity="0.0"/>
      <stop offset="0.10980392156862745" stop-color="#eb982c" stop-opacity="0.12941177"/>
      <stop offset="0.30196078431372547" stop-color="#d37b29" stop-opacity="0.4862745"/>
      <stop offset="0.5215686274509804" stop-color="#b25225"/>
    </radialGradient>
    <g id="sprite18" transform="matrix(1.0, 0.0, 0.0, 1.0, 0.0, 0.0)">
      <use height="55.8" transform="matrix(1.0, 0.0, 0.0, 1.0, 0.0, 0.0)" width="110.05" xlink:href="#sprite19"/>
      <use height="61.3" transform="matrix(1.0, 0.0, 0.0, 1.0, 0.0, 0.0)" width="110.05" xlink:href="#sprite20"/>
    </g>
    <g id="sprite19" transform="matrix(1.0, 0.0, 0.0, 1.0, 0.0, 0.0)">
      <use height="55.8" transform="matrix(1.0, 0.0, 0.0, 1.0, 0.0, 0.0)" width="110.05" xlink:href="#shape18"/>
    </g>
    <g id="shape18" transform="matrix(1.0, 0.0, 0.0, 1.0, 0.0, 0.0)">
      <path d="M96.05 18.0 Q102.75 25.35 106.5 34.4 110.05 42.85 110.05 50.3 110.05 52.65 109.55 54.75 106.75 38.15 93.35 25.25 77.55 10.05 55.05 10.05 32.15 10.05 16.5 25.25 3.05 38.3 0.45 55.8 0.0 54.0 0.0 51.55 0.0 43.3 3.5 34.55 7.25 25.3 13.95 17.85 30.05 0.0 55.05 0.0 79.7 0.0 96.05 18.0" fill="url(#gradient14)" fill-rule="evenodd" stroke="none"/>
    </g>
    <linearGradient gradientTransform="matrix(0.0, -0.034, -0.034, 0.0, 55.05, 27.9)" gradientUnits="userSpaceOnUse" id="gradient14" spreadMethod="pad" x1="-819.2" x2="819.2">
      <stop offset="0.12941176470588237" stop-color="#e2b8b2"/>
      <stop offset="0.9254901960784314" stop-color="#ffffff"/>
    </linearGradient>
    <g id="sprite20" transform="matrix(1.0, 0.0, 0.0, 1.0, 0.0, 0.0)">
      <use height="61.3" transform="matrix(1.0, 0.0, 0.0, 1.0, 0.0, 0.0)" width="110.05" xlink:href="#shape19"/>
    </g>
    <g id="shape19" transform="matrix(1.0, 0.0, 0.0, 1.0, 0.0, 0.0)">
      <path d="M106.5 34.4 Q110.05 42.85 110.05 50.3 110.05 57.75 105.7 59.65 102.2 61.25 93.95 59.6 L76.45 55.55 Q64.45 53.0 55.05 53.0 45.55 53.0 33.6 55.75 L16.15 60.2 Q7.8 62.1 4.35 60.7 0.0 58.95 0.0 51.55 0.0 43.3 3.5 34.55 7.25 25.3 13.95 17.85 30.05 0.0 55.05 0.0 79.7 0.0 96.05 18.0 102.75 25.35 106.5 34.4" fill="#ffffff" fill-rule="evenodd" stroke="none"/>
    </g>
  </defs>
</svg>
