<?xml version="1.0" encoding="UTF-8" standalone="no"?>
<svg xmlns:xlink="http://www.w3.org/1999/xlink" height="75.45px" width="29.5px" xmlns="http://www.w3.org/2000/svg">
  <g transform="matrix(1.0, 0.0, 0.0, 1.0, 0.0, 0.0)">
    <use height="75.45" transform="matrix(1.0, 0.0, 0.0, 1.0, 0.0, 0.0)" width="29.5" xlink:href="#shape0"/>
  </g>
  <defs>
    <g id="shape0" transform="matrix(1.0, 0.0, 0.0, 1.0, 0.0, 0.0)">
      <path d="M29.5 39.9 Q29.5 49.25 27.7 63.25 L25.85 75.35 Q23.9 75.7 21.85 74.95 17.7 73.45 17.1 67.9 18.8 65.45 20.45 61.0 23.7 52.15 23.4 42.2 23.1 32.3 13.9 20.85 9.3 15.15 4.75 11.4 L12.7 6.75 Q16.9 11.3 21.1 17.7 29.5 30.55 29.5 39.9" fill="#895d60" fill-rule="evenodd" stroke="none"/>
      <path d="M23.4 42.2 Q23.1 32.3 13.9 20.85 9.3 15.15 4.75 11.4 L5.3 11.05 10.25 10.6 Q13.95 14.5 17.7 19.8 25.3 30.4 25.85 37.45 26.4 44.15 23.6 58.85 L20.25 74.1 Q17.55 72.2 17.1 67.9 18.8 65.45 20.45 61.0 23.7 52.15 23.4 42.2" fill="#794f53" fill-rule="evenodd" stroke="none"/>
      <path d="M0.2 7.25 L11.85 0.6 Q13.3 1.8 14.35 3.45 16.4 6.75 14.2 8.95 12.8 10.4 10.55 11.5 7.85 12.8 5.45 12.8 3.25 12.8 1.5 10.05 0.65 8.65 0.2 7.25" fill="#6d484c" fill-rule="evenodd" stroke="none"/>
      <path d="M0.2 7.25 Q-0.5 6.15 1.4 4.4 2.65 3.15 4.8 1.9 6.95 0.65 8.9 0.2 11.45 -0.4 12.1 0.95 12.6 2.05 11.95 3.25 11.25 4.55 9.3 5.75 7.1 7.1 4.1 7.7 0.85 8.3 0.2 7.25" fill="#624246" fill-rule="evenodd" stroke="none"/>
      <path d="M5.45 2.1 Q7.0 1.2 8.85 0.8 10.7 0.4 11.0 1.0 11.35 1.7 10.75 2.75 10.1 3.95 8.7 4.85 7.0 6.05 4.5 6.75 L1.2 6.6 Q0.65 5.7 2.3 4.3 L5.45 2.1" fill="#4a3939" fill-rule="evenodd" stroke="none"/>
    </g>
  </defs>
</svg>
