<?xml version="1.0" encoding="UTF-8" standalone="no"?>
<svg xmlns:xlink="http://www.w3.org/1999/xlink" height="55.25px" width="27.4px" xmlns="http://www.w3.org/2000/svg">
  <g transform="matrix(1.0, 0.0, 0.0, 1.0, 0.0, 0.0)">
    <use height="55.25" transform="matrix(1.0, 0.0, 0.0, 1.0, 0.0, 0.0)" width="27.4" xlink:href="#shape0"/>
    <use height="14.35" transform="matrix(1.0, 0.0, 0.0, 1.0, 13.45, 36.2)" width="10.1" xlink:href="#sprite0"/>
    <use height="16.65" transform="matrix(1.0, 0.0, 0.0, 1.0, 1.15, 35.45)" width="12.4" xlink:href="#sprite1"/>
  </g>
  <defs>
    <g id="shape0" transform="matrix(1.0, 0.0, 0.0, 1.0, 0.0, 0.0)">
      <path d="M23.6 36.7 L23.45 49.3 13.95 50.8 13.95 37.85 23.6 36.7" fill="#7f5631" fill-rule="evenodd" stroke="none"/>
      <path d="M2.8 37.1 L12.45 38.2 12.45 50.7 2.95 49.25 2.8 37.1" fill="#7f5631" fill-rule="evenodd" stroke="none"/>
      <path d="M25.8 43.15 Q25.8 48.1 22.15 50.9 18.75 53.45 13.3 53.45 7.85 53.45 4.5 50.9 0.85 48.1 0.85 43.15 0.85 38.0 4.5 34.35 8.15 30.7 13.3 30.7 18.5 30.7 22.15 34.35 25.8 38.0 25.8 43.15" fill="url(#gradient0)" fill-rule="evenodd" stroke="none"/>
      <path d="M23.15 48.05 L23.15 37.25 14.4 38.5 14.4 50.0 23.15 48.05 M13.2 32.65 L24.25 32.65 24.25 50.15 13.2 53.15 13.2 32.65" fill="#76573c" fill-rule="evenodd" stroke="none"/>
      <path d="M12.0 38.65 L3.25 37.65 3.3 48.4 12.0 50.2 12.0 38.65 M2.3 34.15 L13.35 34.15 13.35 53.15 2.3 50.15 2.3 34.15" fill="#413013" fill-rule="evenodd" stroke="none"/>
      <path d="M13.75 0.7 L13.75 17.7 Q13.75 18.4 13.05 18.4 12.4 18.4 12.4 17.7 L12.4 0.7 Q12.4 0.0 13.05 0.0 13.75 0.0 13.75 0.7" fill="#433215" fill-rule="evenodd" stroke="none"/>
      <path d="M14.7 18.6 L14.7 24.2 27.25 34.2 13.45 36.9 0.1 35.2 11.7 24.2 11.7 18.6 Q11.7 18.1 12.05 17.75 12.4 17.4 12.9 17.4 L13.5 17.4 Q14.0 17.4 14.35 17.75 14.7 18.1 14.7 18.6" fill="#433215" fill-rule="evenodd" stroke="none"/>
      <path d="M12.35 18.0 Q12.9 18.0 12.9 18.55 L13.25 36.3 0.2 34.85 11.65 24.0 11.65 18.55 11.9 18.15 12.35 18.0" fill="#262501" fill-rule="evenodd" stroke="none"/>
      <path d="M24.2 49.15 L24.25 48.7 25.8 49.4 25.8 51.35 13.35 55.25 0.65 51.8 0.65 49.85 2.3 49.35 13.35 51.8 24.2 49.15" fill="#8d6848" fill-rule="evenodd" stroke="none"/>
      <path d="M0.65 49.85 L13.35 53.0 13.35 55.25 0.65 51.8 0.65 49.85" fill="#413013" fill-rule="evenodd" stroke="none"/>
      <path d="M15.1 21.4 L14.65 21.85 11.9 21.85 Q11.45 21.85 11.45 21.4 11.45 20.95 11.9 20.95 L14.65 20.95 Q15.1 20.95 15.1 21.4" fill="#8c6646" fill-rule="evenodd" stroke="none"/>
      <path d="M15.1 19.3 L14.65 19.75 11.9 19.75 Q11.45 19.75 11.45 19.3 11.45 18.85 11.9 18.85 L14.65 18.85 Q15.1 18.85 15.1 19.3" fill="#8c6646" fill-rule="evenodd" stroke="none"/>
      <path d="M25.8 51.35 L13.35 55.25 13.3 53.0 25.8 49.45 25.8 51.35" fill="#947254" fill-rule="evenodd" stroke="none"/>
      <path d="M0.0 35.55 L0.0 34.45 13.35 36.25 27.4 34.15 27.35 35.25 13.5 37.3 0.0 35.55" fill="#413013" fill-rule="evenodd" stroke="none"/>
      <path d="M16.9 37.8 L16.9 49.95 16.05 49.95 16.05 37.8 16.9 37.8" fill="#76573c" fill-rule="evenodd" stroke="none"/>
      <path d="M19.3 37.35 L19.3 49.5 18.45 49.5 18.45 37.35 19.3 37.35" fill="#76573c" fill-rule="evenodd" stroke="none"/>
      <path d="M21.85 49.05 L21.0 49.05 21.0 36.9 21.85 36.9 21.85 49.05" fill="#76573c" fill-rule="evenodd" stroke="none"/>
      <path d="M14.15 40.5 L23.5 39.0 23.5 39.5 14.1 41.1 14.15 40.5" fill="#76573c" fill-rule="evenodd" stroke="none"/>
      <path d="M14.15 43.05 L23.5 41.55 23.5 42.1 14.1 43.65 14.15 43.05" fill="#76573c" fill-rule="evenodd" stroke="none"/>
      <path d="M14.15 45.25 L23.5 43.7 23.5 44.25 14.1 45.85 14.15 45.25" fill="#76573c" fill-rule="evenodd" stroke="none"/>
      <path d="M14.15 47.55 L23.5 46.05 23.5 46.55 14.1 48.15 14.15 47.55" fill="#76573c" fill-rule="evenodd" stroke="none"/>
      <path d="M9.6 37.85 L10.45 37.85 10.45 50.05 9.6 50.05 9.6 37.85" fill="#413013" fill-rule="evenodd" stroke="none"/>
      <path d="M7.25 37.4 L8.1 37.4 8.1 49.6 7.25 49.6 7.25 37.4" fill="#413013" fill-rule="evenodd" stroke="none"/>
      <path d="M4.7 49.1 L4.7 36.95 5.55 36.95 5.55 49.1 4.7 49.1" fill="#413013" fill-rule="evenodd" stroke="none"/>
      <path d="M12.4 40.55 L12.45 41.15 3.05 39.55 3.05 39.05 12.4 40.55" fill="#413013" fill-rule="evenodd" stroke="none"/>
      <path d="M12.4 43.15 L12.45 43.7 3.05 42.15 3.05 41.6 12.4 43.15" fill="#413013" fill-rule="evenodd" stroke="none"/>
      <path d="M12.4 45.3 L12.45 45.9 3.05 44.3 3.05 43.8 12.4 45.3" fill="#413013" fill-rule="evenodd" stroke="none"/>
      <path d="M12.4 47.6 L12.45 48.2 3.05 46.6 3.05 46.1 12.4 47.6" fill="#413013" fill-rule="evenodd" stroke="none"/>
    </g>
    <radialGradient cx="0" cy="0" gradientTransform="matrix(0.0146, 0.0, 0.0, -0.0146, 13.3, 42.1)" gradientUnits="userSpaceOnUse" id="gradient0" r="819.2" spreadMethod="pad">
      <stop offset="0.0" stop-color="#f3eb68"/>
      <stop offset="1.0" stop-color="#f3eb68" stop-opacity="0.0"/>
    </radialGradient>
    <g id="sprite0" transform="matrix(1.0, 0.0, 0.0, 1.0, 0.0, 0.0)">
      <use height="14.35" transform="matrix(1.0, 0.0, 0.0, 1.0, 0.0, 0.0)" width="10.1" xlink:href="#shape1"/>
    </g>
    <g id="shape1" transform="matrix(1.0, 0.0, 0.0, 1.0, 0.0, 0.0)">
      <path d="M10.1 7.15 Q10.1 10.15 8.65 12.25 7.15 14.35 5.05 14.35 3.1 14.35 1.5 11.15 0.0 8.15 0.0 4.95 0.0 0.0 5.05 0.0 7.15 0.0 8.65 2.1 10.1 4.2 10.1 7.15" fill="url(#gradient1)" fill-rule="evenodd" stroke="none"/>
    </g>
    <radialGradient cx="0" cy="0" gradientTransform="matrix(0.0061, 0.0, 0.0, -0.0088, 5.05, 7.15)" gradientUnits="userSpaceOnUse" id="gradient1" r="819.2" spreadMethod="pad">
      <stop offset="0.0" stop-color="#f3eb68"/>
      <stop offset="1.0" stop-color="#f3eb68" stop-opacity="0.0"/>
    </radialGradient>
    <g id="sprite1" transform="matrix(1.0, 0.0, 0.0, 1.0, 0.0, 0.0)">
      <use height="16.65" transform="matrix(1.0, 0.0, 0.0, 1.0, 0.0, 0.0)" width="12.4" xlink:href="#shape2"/>
    </g>
    <g id="shape2" transform="matrix(1.0, 0.0, 0.0, 1.0, 0.0, 0.0)">
      <path d="M12.4 6.15 Q12.4 9.8 10.6 13.15 8.65 16.65 6.2 16.65 3.65 16.65 1.85 14.2 0.0 11.75 0.0 8.3 0.0 4.85 1.85 2.45 3.65 0.0 6.2 0.0 9.0 0.0 10.6 1.35 12.4 2.9 12.4 6.15" fill="url(#gradient2)" fill-rule="evenodd" stroke="none"/>
    </g>
    <radialGradient cx="0" cy="0" gradientTransform="matrix(0.0076, 0.0, 0.0, -0.0102, 6.2, 8.3)" gradientUnits="userSpaceOnUse" id="gradient2" r="819.2" spreadMethod="pad">
      <stop offset="0.0" stop-color="#f3eb68"/>
      <stop offset="1.0" stop-color="#f3eb68" stop-opacity="0.0"/>
    </radialGradient>
  </defs>
</svg>
