<?xml version="1.0" encoding="UTF-8" standalone="no"?>
<svg xmlns:xlink="http://www.w3.org/1999/xlink" height="37.35px" width="37.7px" xmlns="http://www.w3.org/2000/svg">
  <g transform="matrix(1.0, 0.0, 0.0, 1.0, 0.0, 0.0)">
    <use height="36.85" transform="matrix(1.0, 0.0, 0.0, 1.0, 0.6, 0.25)" width="36.85" xlink:href="#shape0"/>
    <use height="37.35" transform="matrix(1.0, 0.0, 0.0, 1.0, 0.35, 0.0)" width="37.35" xlink:href="#sprite0"/>
    <use height="10.15" transform="matrix(1.0, 0.0, 0.0, 1.0, 4.5, 6.85)" width="7.0" xlink:href="#shape2"/>
    <use height="17.95" transform="matrix(1.0, 0.0, 0.0, 1.0, 6.15, 16.35)" width="28.95" xlink:href="#sprite1"/>
  </g>
  <defs>
    <g id="shape0" transform="matrix(1.0, 0.0, 0.0, 1.0, -0.6, -0.25)">
      <path d="M37.45 18.65 Q37.45 26.25 32.05 31.7 26.65 37.1 19.0 37.1 11.4 37.1 6.0 31.7 0.6 26.25 0.6 18.65 0.6 11.0 6.0 5.65 11.4 0.25 19.0 0.25 26.65 0.25 32.05 5.65 37.45 11.0 37.45 18.65" fill="url(#gradient0)" fill-rule="evenodd" stroke="none"/>
    </g>
    <radialGradient cx="0" cy="0" gradientTransform="matrix(0.0133, 0.0133, 0.0133, -0.0133, 18.5, 18.35)" gradientUnits="userSpaceOnUse" id="gradient0" r="819.2" spreadMethod="pad">
      <stop offset="0.0" stop-color="#9ed7ff"/>
      <stop offset="1.0" stop-color="#63d3ff"/>
    </radialGradient>
    <g id="sprite0" transform="matrix(1.0, 0.0, 0.0, 1.0, 0.0, 0.0)">
      <use height="37.35" transform="matrix(1.0, 0.0, 0.0, 1.0, 0.0, 0.0)" width="37.35" xlink:href="#shape1"/>
    </g>
    <g id="shape1" transform="matrix(1.0, 0.0, 0.0, 1.0, 0.0, 0.0)">
      <path d="M37.35 18.65 Q37.35 26.4 31.9 31.85 26.4 37.35 18.65 37.35 10.95 37.35 5.45 31.85 0.0 26.4 0.0 18.65 0.0 10.95 5.45 5.45 10.95 0.0 18.65 0.0 26.4 0.0 31.9 5.45 37.35 10.9 37.35 18.65 M31.5 5.8 Q26.2 0.5 18.65 0.5 11.15 0.5 5.85 5.8 0.5 11.1 0.5 18.65 0.5 26.15 5.85 31.5 11.15 36.85 18.65 36.85 26.2 36.85 31.5 31.5 36.85 26.15 36.85 18.65 36.85 11.1 31.5 5.8" fill="url(#gradient1)" fill-rule="evenodd" stroke="none"/>
    </g>
    <linearGradient gradientTransform="matrix(0.0112, 0.021, 0.021, -0.0112, 18.95, 19.2)" gradientUnits="userSpaceOnUse" id="gradient1" spreadMethod="pad" x1="-819.2" x2="819.2">
      <stop offset="0.0" stop-color="#c9e8ff"/>
      <stop offset="0.5764705882352941" stop-color="#6e9dc4"/>
      <stop offset="1.0" stop-color="#306a9c"/>
    </linearGradient>
    <g id="shape2" transform="matrix(1.0, 0.0, 0.0, 1.0, -4.5, -6.85)">
      <path d="M9.4 6.85 Q13.1 7.0 10.35 10.4 7.45 14.05 6.35 12.85 5.35 11.8 6.5 9.35 7.65 6.8 9.4 6.85" fill="#ffffff" fill-rule="evenodd" stroke="none"/>
      <path d="M5.4 14.65 Q6.35 14.85 6.0 16.1 5.65 17.35 4.95 16.85 4.35 16.45 4.55 15.5 4.8 14.55 5.4 14.65" fill="#ffffff" fill-rule="evenodd" stroke="none"/>
    </g>
    <g id="sprite1" transform="matrix(1.0, 0.0, 0.0, 1.0, -0.2, 0.0)">
      <use height="17.95" transform="matrix(1.0, 0.0, 0.0, 1.0, 0.2, 0.0)" width="28.95" xlink:href="#shape3"/>
    </g>
    <g id="shape3" transform="matrix(1.0, 0.0, 0.0, 1.0, -0.2, 0.0)">
      <path d="M29.0 0.0 Q29.5 2.85 28.4 6.35 26.25 13.4 18.35 16.75 12.4 19.3 5.6 16.35 2.35 14.95 0.2 13.1 1.8 14.4 4.65 15.3 10.7 17.15 17.85 14.6 24.3 12.3 27.3 5.9 28.8 2.75 29.0 0.0" fill="#ffffff" fill-rule="evenodd" stroke="none"/>
    </g>
  </defs>
</svg>
