<?xml version="1.0" encoding="UTF-8" standalone="no"?>
<svg xmlns:xlink="http://www.w3.org/1999/xlink" height="331.8px" width="1951.9px" xmlns="http://www.w3.org/2000/svg">
  <g transform="matrix(1.0, 0.0, 0.0, 1.0, 0.0, 0.0)">
    <use height="331.8" transform="matrix(1.0, 0.0, 0.0, 1.0, 0.0, 0.0)" width="1951.9" xlink:href="#shape0"/>
  </g>
  <defs>
    <g id="shape0" transform="matrix(1.0, 0.0, 0.0, 1.0, 0.0, 0.0)">
      <path d="M1910.55 133.25 Q1922.4 156.05 1924.1 184.3 1926.2 218.75 1898.45 243.3 1925.75 217.9 1923.4 182.85 1921.55 155.55 1910.55 133.25 M1562.0 307.9 L1555.85 308.0 1480.95 308.15 Q1440.0 308.15 1422.35 308.65 1333.4 311.35 922.85 308.4 525.05 305.55 466.35 302.8 458.2 302.4 427.45 302.05 391.65 301.65 368.55 300.95 283.7 298.5 221.8 289.85 67.45 268.25 39.0 208.05 70.6 266.35 220.8 287.85 282.8 296.7 367.65 299.3 390.85 300.0 426.65 300.5 457.3 300.9 465.55 301.3 524.35 304.15 922.4 307.55 1333.3 311.05 1422.25 308.45 1439.95 307.95 1480.85 308.0 L1555.85 307.9 1562.0 307.9 M1800.85 39.7 Q1749.35 25.6 1670.6 19.1 L1602.95 14.7 1538.2 11.4 1348.6 5.35 Q1213.2 2.45 1137.65 2.95 L927.15 2.4 Q741.4 1.75 606.7 3.2 581.65 3.45 515.65 3.25 453.4 3.05 417.35 3.55 298.75 5.25 222.85 16.7 123.15 31.7 70.6 65.95 8.95 106.15 8.05 174.8 6.8 272.7 206.15 303.55 270.55 313.5 358.6 316.5 382.75 317.3 419.75 317.85 451.5 318.35 460.0 318.8 520.7 322.05 928.4 326.05 1349.15 330.25 1439.55 327.4 1457.55 326.85 1498.9 326.95 1553.0 327.1 1574.7 326.9 1676.85 326.0 1745.05 317.6 1952.35 292.15 1946.45 189.75 1942.95 129.1 1901.8 90.75 1866.3 57.65 1800.85 39.7 M1805.0 38.8 Q1870.95 57.1 1906.75 90.75 1948.2 129.75 1951.75 191.3 1957.75 295.35 1749.05 321.05 1680.35 329.5 1577.5 330.35 L1501.2 330.35 Q1459.5 330.2 1441.45 330.75 1350.3 333.55 926.75 329.0 516.0 324.6 455.15 321.25 446.55 320.8 414.6 320.3 377.35 319.7 353.0 318.85 264.4 315.75 199.55 305.6 -1.2 274.1 0.0 174.65 0.85 104.95 62.85 64.2 115.8 29.45 216.1 14.3 292.55 2.75 411.95 1.1 448.1 0.6 510.9 0.85 577.15 1.1 602.6 0.85 738.6 -0.5 925.3 0.3 L1137.2 1.05 Q1213.45 0.55 1349.65 3.6 L1540.55 9.9 1605.75 13.3 1673.85 17.8 Q1753.15 24.45 1805.0 38.8" fill="#13110b" fill-rule="evenodd" stroke="none"/>
      <path d="M1898.45 243.3 Q1926.2 218.75 1924.1 184.3 1922.4 156.05 1910.55 133.25 1899.65 112.25 1880.2 95.9 1845.15 66.4 1780.45 50.65 1729.6 38.25 1651.75 32.75 L1585.0 29.15 1521.1 26.45 Q1465.7 23.85 1334.9 21.9 1202.1 19.95 1128.1 20.7 L922.95 21.15 Q742.05 21.4 611.45 23.25 587.0 23.6 523.55 23.7 463.5 23.8 428.75 24.4 314.45 26.4 241.25 36.8 145.1 50.4 94.1 80.75 34.3 116.4 32.6 176.75 32.15 193.5 39.0 208.05 67.45 268.25 221.8 289.85 283.7 298.5 368.55 300.95 391.65 301.65 427.45 302.05 458.2 302.4 466.35 302.8 525.05 305.55 922.85 308.4 1333.4 311.35 1422.35 308.65 1440.0 308.15 1480.95 308.15 L1555.85 308.0 1562.0 307.9 1646.45 305.45 Q1689.85 303.3 1765.25 295.45 1840.6 287.6 1898.45 243.3 M1800.85 39.7 Q1866.3 57.65 1901.8 90.75 1942.95 129.1 1946.45 189.75 1952.35 292.15 1745.05 317.6 1676.85 326.0 1574.7 326.9 1553.0 327.1 1498.9 326.95 1457.55 326.85 1439.55 327.4 1349.15 330.25 928.4 326.05 520.7 322.05 460.0 318.8 451.5 318.35 419.75 317.85 382.75 317.3 358.6 316.5 270.55 313.5 206.15 303.55 6.8 272.7 8.05 174.8 8.95 106.15 70.6 65.95 123.15 31.7 222.85 16.7 298.75 5.25 417.35 3.55 453.4 3.05 515.65 3.25 581.65 3.45 606.7 3.2 741.4 1.75 927.15 2.4 L1137.65 2.95 Q1213.2 2.45 1348.6 5.35 L1538.2 11.4 1602.95 14.7 1670.6 19.1 Q1749.35 25.6 1800.85 39.7" fill="#292418" fill-rule="evenodd" stroke="none"/>
    </g>
  </defs>
</svg>
