<?xml version="1.0" encoding="UTF-8" standalone="no"?>
<svg xmlns:xlink="http://www.w3.org/1999/xlink" height="115.9px" width="589.0px" xmlns="http://www.w3.org/2000/svg">
  <g transform="matrix(1.0, 0.0, 0.0, 1.0, 0.0, 0.0)">
    <use height="115.9" transform="matrix(1.0, 0.0, 0.0, 1.0, 0.0, 0.0)" width="589.0" xlink:href="#shape0"/>
  </g>
  <defs>
    <g id="shape0" transform="matrix(1.0, 0.0, 0.0, 1.0, 0.0, 0.0)">
      <path d="M368.1 113.0 L292.1 115.9 Q246.4 115.9 223.2 114.9 187.5 113.4 136.9 108.0 59.4 99.8 46.5 97.7 -7.7 89.1 1.3 77.3 50.3 42.5 102.5 22.3 159.1 0.5 210.0 0.0 232.7 -0.2 271.9 7.6 297.5 12.6 355.8 26.8 497.1 61.2 581.2 74.3 618.3 91.0 478.4 104.8 428.8 109.7 368.1 113.0" fill="url(#gradient0)" fill-rule="evenodd" stroke="none"/>
      <path d="M458.7 108.5 Q365.3 115.5 280.8 113.7 L211.8 112.7 Q175.7 112.0 143.6 109.2 87.9 104.2 67.1 101.0 26.4 94.7 34.5 86.7 78.7 55.3 127.8 39.6 171.4 25.7 216.7 24.8 239.6 24.3 270.4 29.7 291.6 33.4 336.1 44.0 453.6 71.7 535.1 84.4 573.6 99.9 458.7 108.5" fill="url(#gradient1)" fill-rule="evenodd" stroke="none"/>
    </g>
    <linearGradient gradientTransform="matrix(-0.0014, 0.1318, 0.0916, -0.0014, 294.2, 73.4)" gradientUnits="userSpaceOnUse" id="gradient0" spreadMethod="pad" x1="-819.2" x2="819.2">
      <stop offset="0.0" stop-color="#4ac48f"/>
      <stop offset="1.0" stop-color="#217387"/>
    </linearGradient>
    <linearGradient gradientTransform="matrix(-9.0E-4, 0.0803, 0.0558, -9.0E-4, 288.7, 89.3)" gradientUnits="userSpaceOnUse" id="gradient1" spreadMethod="pad" x1="-819.2" x2="819.2">
      <stop offset="0.0" stop-color="#4ac48f"/>
      <stop offset="1.0" stop-color="#217387"/>
    </linearGradient>
  </defs>
</svg>
