<?xml version="1.0" encoding="UTF-8" standalone="no"?>
<svg xmlns:xlink="http://www.w3.org/1999/xlink" height="54.55px" width="31.7px" xmlns="http://www.w3.org/2000/svg">
  <g transform="matrix(1.0, 0.0, 0.0, 1.0, 0.0, 0.0)">
    <use height="19.45" transform="matrix(1.0, 0.0, 0.0, 1.0, 2.05, 35.1)" width="28.5" xlink:href="#sprite0"/>
    <use height="23.3" transform="matrix(1.0, 0.0, 0.0, 1.0, 3.2, 23.05)" width="28.5" xlink:href="#sprite1"/>
  </g>
  <defs>
    <g id="sprite0" transform="matrix(1.0, 0.0, 0.0, 1.0, 0.0, 0.0)">
      <use height="19.45" transform="matrix(1.0, 0.0, 0.0, 1.0, 0.0, 0.0)" width="28.5" xlink:href="#shape0"/>
    </g>
    <g id="shape0" transform="matrix(1.0, 0.0, 0.0, 1.0, 0.0, 0.0)">
      <path d="M11.25 1.55 L12.65 1.15 13.15 1.15 13.7 0.65 14.45 0.75 Q14.9 -0.2 15.6 0.05 L15.65 0.35 16.3 0.35 16.95 0.25 17.0 0.5 Q17.4 0.05 17.9 0.25 L17.95 0.55 18.7 0.4 Q19.15 0.4 19.5 0.75 L20.3 0.75 20.75 1.15 21.1 1.5 21.85 1.55 Q22.3 1.65 22.65 1.9 L23.15 2.4 23.65 2.9 25.05 3.0 Q26.1 3.0 26.15 3.4 L26.65 3.45 26.65 3.65 Q27.15 3.65 27.5 4.0 27.85 4.35 27.55 4.75 L27.6 4.8 Q27.95 4.9 28.0 5.15 L28.0 5.75 27.85 6.3 27.95 6.65 27.95 7.05 27.65 7.1 Q28.15 7.9 27.9 8.4 28.2 8.6 28.2 9.1 L28.15 9.9 28.15 11.15 27.85 11.7 Q28.95 12.9 28.2 14.1 L27.6 14.65 26.85 15.05 25.8 15.05 25.7 15.1 25.1 15.55 24.4 16.0 23.65 16.05 22.85 16.2 22.3 16.65 21.75 17.15 21.0 17.45 20.2 17.55 19.3 17.9 18.3 18.1 17.15 18.35 15.95 18.65 14.5 19.0 13.9 19.25 13.55 19.1 11.65 19.45 11.9 19.15 11.85 19.15 Q11.55 19.45 11.2 19.45 10.45 19.45 10.45 18.95 L9.35 19.0 9.05 18.8 8.75 18.5 7.95 18.45 6.85 17.9 5.95 17.35 4.2 16.4 3.25 16.35 3.05 16.05 2.15 16.0 2.05 15.45 1.4 15.35 1.35 14.9 0.8 14.8 0.6 14.3 0.6 13.7 0.2 13.2 0.0 12.75 0.2 12.5 0.4 12.2 0.3 11.7 0.2 11.25 0.45 9.2 0.55 8.8 0.4 8.4 0.2 8.0 0.55 7.3 Q-0.05 7.05 0.25 6.6 L0.75 5.9 0.7 5.5 0.6 5.1 0.4 4.95 Q0.35 4.65 0.55 4.55 L1.0 4.4 1.55 4.35 1.75 3.85 Q2.3 3.5 3.6 3.5 L5.45 3.25 5.55 3.05 6.9 2.9 7.65 2.45 Q8.0 2.25 8.35 2.45 8.5 2.1 9.55 1.95 L10.5 1.95 11.25 1.55" fill="#f2e396" fill-rule="evenodd" stroke="none"/>
      <path d="M13.8 8.0 L14.1 7.65 14.05 8.0 13.8 8.0" fill="#d5c476" fill-rule="evenodd" stroke="none"/>
      <path d="M21.55 8.6 L21.15 8.75 Q20.85 8.95 21.0 9.15 21.85 9.25 21.7 8.6 L21.55 8.6 M18.45 13.75 L18.55 13.2 17.9 13.35 Q17.55 13.55 17.55 13.85 17.5 14.45 18.25 14.35 L18.45 13.75 M16.4 12.0 L15.2 12.4 Q14.3 12.8 15.2 13.15 L16.4 13.25 16.95 12.0 16.4 12.0 M18.9 10.2 L18.45 10.65 17.75 10.8 17.05 10.7 Q17.0 11.0 17.45 11.25 L18.35 11.55 19.2 11.6 Q19.9 11.25 19.9 9.85 L18.9 10.2 M14.9 7.65 L15.25 7.65 16.0 7.75 17.65 7.5 17.6 7.65 16.3 7.95 Q15.55 8.05 15.7 8.35 L16.35 8.55 17.05 8.5 17.6 7.65 17.9 7.3 18.05 7.1 20.0 7.05 20.1 6.7 20.8 6.65 20.8 6.75 21.0 6.65 21.1 6.65 20.8 6.9 20.35 7.0 20.1 7.1 Q19.9 7.3 20.2 7.5 20.65 7.85 21.4 7.5 21.95 7.3 21.75 6.3 L22.45 5.9 23.05 5.9 23.8 5.5 24.5 5.5 25.2 5.5 25.6 5.25 26.0 5.0 26.6 5.0 26.55 5.0 25.75 5.65 Q25.2 6.25 25.55 6.45 L26.25 6.55 26.9 6.4 Q27.55 6.1 27.55 4.85 L27.6 4.8 Q27.95 4.9 28.0 5.15 L28.0 5.75 27.85 6.3 27.95 6.65 27.95 7.05 27.65 7.1 27.95 7.65 27.65 8.1 27.3 8.1 27.0 8.45 26.45 8.5 26.05 8.15 25.9 7.5 Q25.65 7.65 25.65 8.05 L25.5 8.7 25.0 9.05 24.35 9.05 Q24.3 9.35 25.1 9.6 L26.4 9.75 26.4 10.4 26.1 10.7 25.95 11.5 Q25.8 12.0 25.45 12.1 25.15 11.8 25.15 11.25 L24.85 12.1 24.5 13.15 Q24.2 13.1 24.05 13.35 L23.85 13.9 Q23.6 14.5 23.05 14.55 L22.5 14.45 Q22.4 14.3 22.75 14.2 L23.2 13.95 23.2 13.45 22.9 13.1 22.3 13.85 21.35 13.8 Q21.8 13.05 21.6 11.65 L21.1 12.75 20.55 13.85 19.6 14.25 20.25 14.35 20.85 14.25 20.75 14.8 20.5 15.3 19.8 15.7 19.4 16.2 18.8 16.45 18.1 16.2 18.85 15.95 18.55 15.65 18.05 15.65 17.85 15.85 17.35 16.4 16.7 16.8 16.05 16.85 15.45 17.05 14.8 16.95 15.25 16.5 15.55 15.95 Q15.5 16.1 15.25 16.1 L14.85 16.2 14.5 16.65 13.7 16.65 13.7 17.8 13.6 18.95 13.45 18.95 13.3 19.15 11.65 19.45 11.9 19.15 11.85 19.15 Q11.55 19.45 11.2 19.45 10.45 19.45 10.45 18.95 L9.35 19.0 9.05 18.8 8.75 18.5 7.95 18.45 6.85 17.9 5.95 17.35 4.2 16.4 4.15 16.35 5.75 16.4 Q5.65 17.15 6.1 16.9 L6.7 16.35 7.55 16.05 8.55 16.0 8.8 15.5 Q9.25 15.85 8.7 16.25 L7.85 16.75 Q8.1 17.1 8.7 17.1 L9.55 17.3 9.65 17.75 9.9 18.25 10.7 18.3 11.15 18.05 Q11.15 18.75 11.65 18.55 12.4 18.3 12.4 17.0 L12.2 15.75 Q12.2 16.7 11.65 17.1 L11.3 17.4 11.25 17.35 10.85 16.9 10.4 16.5 11.05 15.7 11.1 14.65 Q11.0 14.35 10.1 14.25 9.25 14.15 9.2 13.5 L10.05 13.55 10.95 13.45 11.4 12.6 12.15 12.6 12.15 12.75 11.4 13.4 10.1 13.75 Q10.15 14.1 11.05 14.1 L11.75 13.7 Q12.05 14.15 12.9 14.15 13.75 14.15 13.6 13.5 13.05 13.5 13.0 13.05 L13.1 12.15 13.75 11.0 14.3 9.85 13.15 8.7 Q13.9 8.55 14.05 8.0 L14.85 8.0 14.9 7.65" fill="#d5c476" fill-rule="evenodd" stroke="none"/>
      <path d="M5.1 8.55 L5.75 7.8 5.55 8.4 5.1 8.55" fill="#d5c476" fill-rule="evenodd" stroke="none"/>
      <path d="M3.85 8.4 L4.5 8.55 5.1 8.55 Q4.4 9.1 3.85 8.95 L3.85 8.4" fill="#d5c476" fill-rule="evenodd" stroke="none"/>
      <path d="M4.4 10.75 Q4.75 11.5 5.8 11.05 6.85 10.65 7.05 9.9 L7.85 10.7 Q7.95 11.9 6.1 11.9 4.2 11.9 4.4 10.75" fill="#d5c476" fill-rule="evenodd" stroke="none"/>
      <path d="M4.3 12.6 Q4.05 13.15 3.35 13.2 2.6 13.25 2.65 12.65 2.85 13.05 3.4 12.95 L4.3 12.6" fill="#d5c476" fill-rule="evenodd" stroke="none"/>
      <path d="M0.6 13.7 L0.55 13.65 Q1.5 13.35 1.95 12.2 1.95 13.9 0.65 14.5 L0.6 14.3 0.6 13.7" fill="#d5c476" fill-rule="evenodd" stroke="none"/>
      <path d="M3.6 16.0 L2.15 15.8 2.05 15.5 Q2.55 15.55 3.0 15.1 L3.65 14.15 3.6 16.0" fill="#d5c476" fill-rule="evenodd" stroke="none"/>
      <path d="M7.65 14.65 L6.6 14.65 5.55 14.5 7.25 14.5 7.35 14.2 Q7.4 14.1 7.6 14.1 L7.65 14.65" fill="#d5c476" fill-rule="evenodd" stroke="none"/>
      <path d="M4.15 6.7 L5.0 6.75 5.7 7.15 4.15 6.7" fill="#d5c476" fill-rule="evenodd" stroke="none"/>
      <path d="M8.2 7.75 L9.15 7.95 9.8 8.1 9.9 8.1 Q12.45 9.05 12.8 8.35 L14.3 9.85 13.75 11.0 13.1 12.15 13.15 11.55 Q12.8 10.85 12.8 10.5 L12.95 9.75 12.8 9.75 12.3 9.85 12.2 10.6 11.95 11.05 12.05 11.85 12.15 12.6 11.4 12.6 10.3 12.25 Q9.4 11.85 9.5 11.4 9.7 11.0 10.05 10.75 L10.45 10.5 10.55 10.0 Q10.45 9.4 9.9 9.25 9.15 9.05 8.8 9.4 L8.45 9.65 8.3 8.85 7.7 8.6 7.65 8.25 Q7.5 7.95 6.65 7.95 6.05 7.9 6.05 7.3 L6.7 7.45 7.35 7.35 Q7.35 7.85 8.2 7.75" fill="#d5c476" fill-rule="evenodd" stroke="none"/>
      <path d="M15.15 6.35 Q14.1 6.6 14.2 6.2 L14.7 6.05 15.05 5.75 14.9 5.2 15.7 5.6 Q15.75 6.05 15.15 6.35" fill="#d5c476" fill-rule="evenodd" stroke="none"/>
      <path d="M13.7 4.1 L13.8 4.35 13.2 5.0 12.7 4.95 Q12.4 4.85 12.45 4.6 L12.9 4.6 13.3 4.5 13.7 4.1" fill="#d5c476" fill-rule="evenodd" stroke="none"/>
      <path d="M19.8 1.9 L19.0 2.0 18.3 1.7 19.1 1.45 19.45 0.85 19.7 0.75 19.95 0.8 Q20.1 1.75 19.8 1.9" fill="#d5c476" fill-rule="evenodd" stroke="none"/>
      <path d="M21.55 3.0 L21.55 2.85 22.35 2.75 23.25 2.5 23.65 2.9 24.0 2.95 23.15 3.1 21.55 3.0" fill="#d5c476" fill-rule="evenodd" stroke="none"/>
      <path d="M24.2 3.9 Q24.35 3.65 24.9 3.6 L25.7 3.45 25.95 3.15 26.15 3.4 26.65 3.45 26.1 4.1 25.15 4.2 24.2 3.9" fill="#d5c476" fill-rule="evenodd" stroke="none"/>
      <path d="M19.35 5.6 Q18.7 5.65 18.8 5.25 L19.45 5.3 20.05 5.2 Q20.15 4.9 19.35 4.7 19.4 4.5 19.75 4.45 L20.25 4.45 20.6 4.75 20.75 5.2 22.1 5.15 22.35 5.25 22.45 5.5 22.45 5.95 21.75 6.3 21.7 6.2 21.15 5.95 21.2 6.45 21.15 6.6 21.0 6.65 20.8 6.75 20.8 6.65 Q21.25 5.55 20.25 5.5 L19.35 5.6" fill="#d5c476" fill-rule="evenodd" stroke="none"/>
      <path d="M16.9 2.85 L17.65 2.7 Q17.65 3.55 17.25 3.7 L16.6 3.7 Q16.2 3.6 16.2 3.35 16.2 3.15 16.65 3.05 L16.9 2.85" fill="#d5c476" fill-rule="evenodd" stroke="none"/>
      <path d="M9.0 4.4 L8.7 4.2 8.35 4.0 9.55 3.7 9.7 3.7 9.2 4.35 9.0 4.4" fill="#d5c476" fill-rule="evenodd" stroke="none"/>
      <path d="M8.75 2.95 L8.35 2.8 8.3 2.8 7.9 2.6 7.95 2.5 8.6 2.5 Q9.0 2.5 8.95 2.8 L8.75 2.95" fill="#d5c476" fill-rule="evenodd" stroke="none"/>
      <path d="M9.45 5.2 L9.95 5.4 9.8 6.0 9.1 6.05 8.35 6.0 7.7 5.8 Q8.1 5.5 8.8 5.25 L9.45 5.2" fill="#d5c476" fill-rule="evenodd" stroke="none"/>
      <path d="M11.2 7.0 L11.65 7.1 Q12.0 7.2 11.7 7.4 L11.15 7.5 10.9 7.25 Q10.9 7.05 11.2 7.0" fill="#d5c476" fill-rule="evenodd" stroke="none"/>
      <path d="M5.2 6.15 L6.3 6.45 7.45 6.75 8.3 7.1 8.95 7.2 9.6 7.35 10.35 7.95 11.2 8.05 Q11.9 8.15 11.75 8.4 L11.15 8.35 10.5 8.0 10.15 8.1 9.8 8.1 9.15 7.95 8.2 7.75 Q7.35 7.85 7.35 7.35 L6.7 7.45 6.05 7.3 5.7 7.15 5.0 6.75 4.15 6.7 3.5 6.6 3.0 6.25 2.5 6.25 1.6 6.0 Q1.7 5.7 2.15 5.7 L0.65 5.35 0.6 5.1 0.4 4.95 Q0.4 4.7 0.55 4.55 1.1 4.75 1.6 5.25 L2.3 5.5 2.7 5.5 3.05 5.65 4.1 5.95 5.2 6.15" fill="#fff5bd" fill-rule="evenodd" stroke="none"/>
      <path d="M1.6 6.0 L1.55 6.5 1.3 6.85 0.8 6.75 Q0.7 7.1 1.1 7.2 L1.8 7.35 1.3 7.95 1.8 8.1 2.15 8.45 1.9 8.85 Q1.65 8.95 1.5 8.7 L1.65 9.5 Q1.75 9.9 1.2 9.95 L1.1 10.85 1.1 11.25 0.75 11.55 1.55 11.65 Q1.9 11.75 1.55 12.25 L0.85 12.75 0.25 13.25 0.2 13.2 0.0 12.75 0.2 12.5 0.4 12.2 0.3 11.7 0.2 11.25 0.45 9.2 0.55 8.8 0.4 8.4 0.2 8.0 0.55 7.3 Q-0.05 7.05 0.25 6.6 L0.75 5.9 0.65 5.35 2.15 5.7 Q1.7 5.7 1.6 6.0" fill="#fff5bd" fill-rule="evenodd" stroke="none"/>
      <path d="M3.05 6.7 Q4.05 6.6 3.95 7.25 L3.45 7.75 2.85 7.7 Q2.55 7.6 2.55 7.3 2.55 7.05 2.9 6.6 L3.05 6.7" fill="#fff5bd" fill-rule="evenodd" stroke="none"/>
      <path d="M6.45 8.7 Q6.7 8.7 6.65 9.35 L6.45 10.1 4.75 10.2 Q4.05 9.9 4.45 9.25 4.65 9.0 5.05 8.9 L5.7 8.7 6.45 8.7" fill="#fff5bd" fill-rule="evenodd" stroke="none"/>
      <path d="M1.8 10.6 Q1.95 10.25 2.35 10.05 L3.15 9.75 3.4 10.1 3.7 10.7 3.55 11.35 2.2 11.5 Q1.5 11.25 1.8 10.6" fill="#fff5bd" fill-rule="evenodd" stroke="none"/>
      <path d="M7.95 12.35 Q8.1 13.35 7.55 13.5 L6.1 13.5 Q5.5 13.45 5.65 12.9 5.8 12.25 6.45 12.15 L7.7 12.1 7.95 12.35" fill="#fff5bd" fill-rule="evenodd" stroke="none"/>
      <path d="M9.2 13.0 L9.05 12.55 Q9.1 12.2 9.4 12.35 L10.05 12.7 9.95 13.1 9.6 13.15 9.2 13.0" fill="#fff5bd" fill-rule="evenodd" stroke="none"/>
      <path d="M8.95 10.45 L9.55 10.1 9.4 10.8 8.7 10.85 Q8.6 10.45 8.95 10.45" fill="#fff5bd" fill-rule="evenodd" stroke="none"/>
      <path d="M5.95 15.5 Q5.9 15.1 6.6 14.95 L7.55 15.0 7.15 15.45 Q7.2 15.8 6.6 15.8 6.0 15.8 5.95 15.5" fill="#fff5bd" fill-rule="evenodd" stroke="none"/>
      <path d="M2.4 14.65 L2.1 14.15 2.3 13.6 3.15 14.25 Q2.85 14.9 2.4 14.65" fill="#fff5bd" fill-rule="evenodd" stroke="none"/>
      <path d="M8.75 2.95 L9.0 3.0 Q9.4 3.3 9.0 3.6 L8.3 3.95 8.35 4.0 8.7 4.2 9.0 4.4 9.05 4.4 Q9.25 4.95 7.75 4.95 L5.9 4.85 5.15 4.7 Q4.95 4.5 5.1 4.3 L5.5 4.05 3.1 4.15 Q2.2 4.15 2.2 3.75 L2.25 3.65 3.85 3.55 5.45 3.25 5.55 3.05 6.9 2.9 7.4 2.65 8.3 2.8 8.35 2.8 8.75 2.95" fill="#fff5bd" fill-rule="evenodd" stroke="none"/>
      <path d="M8.85 2.1 L9.55 1.95 10.5 1.95 11.25 1.55 12.3 1.3 Q12.3 2.45 11.55 2.55 L9.25 2.45 8.85 2.1" fill="#fff5bd" fill-rule="evenodd" stroke="none"/>
      <path d="M13.15 1.15 L13.7 0.65 14.45 0.75 14.7 0.35 14.95 0.25 Q15.2 0.6 15.0 1.05 L13.9 1.25 13.15 1.15" fill="#fff5bd" fill-rule="evenodd" stroke="none"/>
      <path d="M14.7 1.5 Q14.95 1.15 15.8 1.1 L16.95 1.25 17.05 1.25 16.75 2.1 15.55 2.35 14.65 2.25 Q14.4 2.0 14.7 1.5" fill="#fff5bd" fill-rule="evenodd" stroke="none"/>
      <path d="M14.1 2.4 L13.6 2.45 13.05 2.35 Q12.6 1.9 13.7 1.7 L14.2 1.95 14.1 2.4" fill="#fff5bd" fill-rule="evenodd" stroke="none"/>
      <path d="M11.7 3.75 Q11.65 2.85 13.15 2.75 L13.55 3.35 Q13.4 3.7 12.7 3.8 L11.7 3.75" fill="#fff5bd" fill-rule="evenodd" stroke="none"/>
      <path d="M15.4 4.1 Q15.3 4.45 14.6 4.45 L13.9 4.05 Q14.4 3.55 15.2 3.45 L15.4 4.1" fill="#fff5bd" fill-rule="evenodd" stroke="none"/>
      <path d="M15.65 5.0 Q15.7 4.7 16.65 4.5 L17.65 4.35 18.95 4.0 Q19.05 5.1 18.45 5.35 L16.05 5.45 15.65 5.3 15.65 5.0" fill="#fff5bd" fill-rule="evenodd" stroke="none"/>
      <path d="M19.15 3.0 Q18.35 2.6 19.95 2.6 L20.3 2.7 Q20.4 3.05 19.9 3.1 L19.15 3.0" fill="#fff5bd" fill-rule="evenodd" stroke="none"/>
      <path d="M20.75 2.1 Q20.9 1.55 21.75 1.55 L21.85 1.55 Q22.3 1.65 22.65 1.9 L23.05 2.3 20.75 2.1" fill="#fff5bd" fill-rule="evenodd" stroke="none"/>
      <path d="M23.45 4.75 L21.95 5.1 Q21.05 5.05 20.6 4.55 21.0 4.05 21.85 3.8 L23.3 3.5 23.45 4.75" fill="#fff5bd" fill-rule="evenodd" stroke="none"/>
      <path d="M16.0 7.75 L15.25 7.65 Q14.35 7.45 14.35 7.2 L15.45 6.75 18.2 6.7 18.05 7.1 17.9 7.3 17.9 7.2 17.8 7.0 17.65 7.5 16.0 7.75" fill="#fff5bd" fill-rule="evenodd" stroke="none"/>
      <path d="M12.05 6.25 Q12.05 5.75 12.4 5.55 L13.2 5.35 13.8 5.6 Q13.65 5.95 13.0 6.15 L12.05 6.25" fill="#fff5bd" fill-rule="evenodd" stroke="none"/>
      <path d="M4.9 5.5 L5.7 5.4 6.5 5.5 Q6.55 6.3 5.25 6.0 L3.55 5.35 4.9 5.5" fill="#fff5bd" fill-rule="evenodd" stroke="none"/>
      <path d="M20.55 13.85 L21.1 12.75 21.6 11.65 Q21.8 13.05 21.35 13.8 L22.3 13.85 22.9 13.1 23.2 13.45 23.2 13.95 22.75 14.2 Q22.4 14.3 22.5 14.45 L23.05 14.55 Q23.6 14.5 23.85 13.9 L24.05 13.35 Q24.2 13.1 24.5 13.15 L24.85 12.1 25.15 11.25 Q25.15 11.8 25.45 12.1 25.8 12.0 25.95 11.5 L26.1 10.7 26.4 10.4 26.4 9.75 25.1 9.6 Q24.3 9.35 24.35 9.05 L25.0 9.05 25.5 8.7 25.65 8.05 Q25.65 7.65 25.9 7.5 L26.05 8.15 26.45 8.5 27.0 8.45 27.3 8.1 27.65 8.1 27.95 7.65 27.9 8.4 Q28.2 8.6 28.2 9.1 L28.15 9.9 28.15 11.15 27.85 11.7 Q28.95 12.9 28.2 14.1 L27.6 14.65 26.85 15.05 25.8 15.05 25.7 15.1 25.1 15.55 24.4 16.0 23.65 16.05 22.85 16.2 22.3 16.65 21.75 17.15 21.0 17.45 20.2 17.55 19.3 17.9 18.3 18.1 17.15 18.35 15.95 18.65 14.5 19.0 13.9 19.25 13.55 19.1 13.3 19.15 13.45 18.95 13.6 18.95 13.7 17.8 13.7 16.65 14.5 16.65 14.85 16.2 15.25 16.1 Q15.5 16.1 15.55 15.95 L15.25 16.5 14.8 16.95 15.45 17.05 16.05 16.85 16.7 16.8 17.35 16.4 17.85 15.85 18.05 15.65 18.55 15.65 18.85 15.95 18.1 16.2 18.8 16.45 19.4 16.2 19.8 15.7 20.5 15.3 20.75 14.8 20.85 14.25 20.25 14.35 19.6 14.25 20.55 13.85" fill="#b9aa61" fill-rule="evenodd" stroke="none"/>
      <path d="M11.95 11.05 L12.2 10.6 12.3 9.85 12.8 9.75 12.95 9.75 12.8 10.5 Q12.8 10.85 13.15 11.55 L13.1 12.15 13.0 13.05 Q13.05 13.5 13.6 13.5 13.75 14.15 12.9 14.15 12.05 14.15 11.75 13.7 L11.05 14.1 Q10.15 14.1 10.1 13.75 L11.4 13.4 12.15 12.75 12.15 12.6 12.05 11.85 11.95 11.05" fill="#b9aa61" fill-rule="evenodd" stroke="none"/>
      <path d="M11.65 18.55 Q11.15 18.75 11.15 18.05 L11.1 18.05 Q11.1 17.55 11.3 17.4 L11.65 17.1 Q12.2 16.7 12.2 15.75 L12.4 17.0 Q12.4 18.3 11.65 18.55" fill="#b9aa61" fill-rule="evenodd" stroke="none"/>
      <path d="M17.45 11.25 Q17.0 11.0 17.05 10.7 L17.75 10.8 18.45 10.65 18.9 10.2 19.9 9.85 Q19.9 11.25 19.2 11.6 L18.35 11.55 17.45 11.25" fill="#b9aa61" fill-rule="evenodd" stroke="none"/>
      <path d="M21.7 8.6 Q21.85 9.25 21.0 9.15 20.85 8.95 21.15 8.75 L21.55 8.6 21.7 8.6" fill="#b9aa61" fill-rule="evenodd" stroke="none"/>
      <path d="M21.15 5.95 L21.7 6.2 21.75 6.3 Q21.95 7.3 21.4 7.5 20.65 7.85 20.2 7.5 19.9 7.3 20.1 7.1 L20.35 7.0 20.8 6.9 21.1 6.65 21.15 6.65 21.15 6.6 21.2 6.45 21.15 5.95" fill="#b9aa61" fill-rule="evenodd" stroke="none"/>
      <path d="M15.7 8.35 Q15.55 8.05 16.3 7.95 L17.6 7.65 17.05 8.5 16.35 8.55 15.7 8.35" fill="#b9aa61" fill-rule="evenodd" stroke="none"/>
      <path d="M17.6 7.65 L17.8 7.0 17.9 7.2 17.9 7.3 17.6 7.65" fill="#b9aa61" fill-rule="evenodd" stroke="none"/>
      <path d="M15.2 13.15 Q14.3 12.8 15.2 12.4 L16.4 12.0 16.95 12.0 16.4 13.25 15.2 13.15" fill="#b9aa61" fill-rule="evenodd" stroke="none"/>
      <path d="M27.55 4.7 L27.55 4.85 Q27.55 6.1 26.9 6.4 L26.25 6.55 25.55 6.45 Q25.2 6.25 25.75 5.65 L26.55 5.0 26.6 5.0 27.55 4.7" fill="#b9aa61" fill-rule="evenodd" stroke="none"/>
      <path d="M17.55 13.85 Q17.55 13.55 17.9 13.35 L18.55 13.2 18.45 13.75 18.25 14.35 Q17.5 14.45 17.55 13.85" fill="#b9aa61" fill-rule="evenodd" stroke="none"/>
    </g>
    <g id="sprite1" transform="matrix(1.0, 0.0, 0.0, 1.0, 0.0, 0.0)">
      <use height="23.3" transform="matrix(1.0, 0.0, 0.0, 1.0, 0.0, 0.0)" width="28.5" xlink:href="#shape1"/>
    </g>
    <g id="shape1" transform="matrix(1.0, 0.0, 0.0, 1.0, 0.0, 0.0)">
      <path d="M14.7 0.4 L14.95 0.3 Q15.2 0.65 15.0 1.1 L13.9 1.3 13.15 1.2 13.7 0.7 14.45 0.8 14.7 0.4 M11.25 1.6 L12.3 1.35 Q12.3 2.45 11.55 2.6 L9.25 2.5 8.9 2.15 8.85 2.1 9.45 2.0 9.55 2.0 10.5 1.95 11.25 1.6 M7.3 2.75 L7.4 2.7 8.3 2.85 8.35 2.85 8.75 3.0 9.0 3.05 Q9.4 3.35 9.0 3.6 L8.3 4.0 8.35 4.05 9.0 4.4 9.05 4.45 Q9.2 4.85 8.55 4.95 L7.75 5.0 5.9 4.9 5.15 4.75 Q4.95 4.55 5.1 4.35 L5.5 4.1 3.1 4.2 Q2.2 4.2 2.2 3.8 L2.25 3.7 3.6 3.55 3.85 3.55 5.45 3.3 5.55 3.1 6.9 2.95 7.3 2.75 M0.55 4.6 Q1.2 4.85 1.6 5.3 L2.3 5.55 2.7 5.55 3.05 5.7 4.1 5.95 5.2 6.15 Q5.95 6.25 6.3 6.5 L7.45 6.8 8.3 7.15 8.95 7.25 9.6 7.4 9.95 7.7 10.35 7.95 11.2 8.05 Q11.9 8.2 11.75 8.45 L11.15 8.4 10.5 8.05 10.15 8.15 9.9 8.15 9.8 8.15 9.15 7.95 8.2 7.8 Q7.35 7.9 7.35 7.4 L6.7 7.5 6.05 7.35 5.7 7.2 5.0 6.8 4.15 6.75 3.5 6.65 3.0 6.3 2.5 6.3 1.6 6.05 1.55 6.55 1.3 6.9 0.8 6.8 Q0.7 7.15 1.1 7.25 L1.8 7.4 1.3 7.95 1.8 8.15 2.15 8.5 1.9 8.9 Q1.65 8.95 1.5 8.7 L1.65 9.5 Q1.75 9.95 1.2 10.0 L1.1 10.9 1.1 11.3 0.75 11.55 1.55 11.7 Q1.9 11.8 1.55 12.3 L0.85 12.8 0.25 13.3 0.2 13.25 0.0 12.8 0.2 12.5 0.4 12.25 0.3 11.75 0.2 11.3 0.45 9.25 0.55 8.85 0.4 8.45 0.2 8.05 0.6 7.35 Q-0.05 7.1 0.25 6.65 L0.75 5.95 0.65 5.4 0.6 5.15 0.4 5.0 Q0.35 4.7 0.55 4.6 M15.3 7.7 Q14.35 7.5 14.35 7.25 L15.45 6.8 18.2 6.7 18.05 7.15 17.9 7.35 17.9 7.2 17.8 7.05 17.65 7.5 16.0 7.8 15.3 7.7 M22.65 1.95 L23.05 2.35 20.75 2.15 Q20.8 1.8 21.35 1.65 L21.75 1.55 21.9 1.6 22.65 1.95 M15.8 1.15 L16.95 1.3 17.05 1.3 16.75 2.15 15.55 2.4 14.65 2.3 Q14.55 2.2 14.6 1.95 L14.75 1.55 Q14.95 1.2 15.8 1.15 M6.5 5.55 Q6.55 6.35 5.25 6.0 L3.55 5.4 4.9 5.55 5.7 5.45 6.5 5.55 M2.55 7.3 Q2.55 7.1 2.9 6.65 L3.05 6.7 Q4.0 6.7 3.95 7.3 L3.45 7.8 2.85 7.75 Q2.55 7.6 2.55 7.3 M3.15 9.8 L3.4 10.15 3.7 10.75 3.55 11.4 2.2 11.55 Q1.55 11.2 1.8 10.65 1.95 10.3 2.35 10.1 L3.15 9.8 M5.7 8.7 L6.45 8.7 Q6.7 8.75 6.65 9.35 L6.45 10.15 Q6.2 10.45 5.65 10.4 L4.75 10.2 Q4.0 9.95 4.45 9.3 4.6 9.05 5.05 8.95 L5.7 8.7 M5.65 12.95 Q5.8 12.3 6.45 12.2 L7.7 12.15 7.95 12.4 Q8.1 13.4 7.55 13.55 L6.1 13.55 Q5.5 13.5 5.65 12.95 M9.2 13.05 L9.05 12.6 Q9.1 12.25 9.4 12.4 L10.05 12.7 9.95 13.1 9.6 13.15 9.2 13.05 M8.75 10.85 Q8.55 10.55 8.95 10.45 L9.55 10.15 9.4 10.8 8.75 10.85 M7.55 15.05 L7.15 15.45 Q7.2 15.85 6.6 15.85 6.0 15.85 5.95 15.55 5.9 15.15 6.6 15.0 L7.55 15.05 M2.4 14.7 L2.1 14.2 2.3 13.65 3.15 14.3 Q2.85 14.95 2.4 14.7 M23.3 3.55 L23.45 4.8 21.95 5.1 Q21.05 5.1 20.6 4.6 21.0 4.1 21.85 3.85 L23.3 3.55 M17.65 4.4 L18.95 4.05 Q19.05 5.15 18.45 5.4 L16.05 5.5 15.65 5.35 15.65 5.05 Q15.7 4.75 16.65 4.55 L17.65 4.4 M20.3 2.7 Q20.45 3.05 19.9 3.15 L19.15 3.05 Q18.45 2.65 19.95 2.65 L20.3 2.7 M13.15 2.8 L13.55 3.4 Q13.3 4.0 11.7 3.8 11.65 2.9 13.15 2.8 M13.7 1.7 L14.2 1.95 14.1 2.45 13.6 2.5 13.05 2.4 Q12.7 2.05 13.7 1.7 M15.2 3.45 L15.4 4.15 Q15.3 4.5 14.6 4.45 13.95 4.45 13.9 4.1 14.4 3.6 15.2 3.45 M13.2 5.4 L13.8 5.65 Q13.65 6.0 13.0 6.2 L12.05 6.25 Q12.05 5.8 12.4 5.6 L13.2 5.4" fill="#fff5bd" fill-rule="evenodd" stroke="none"/>
      <path d="M13.15 1.2 L13.9 1.3 15.0 1.1 Q15.2 0.65 14.95 0.3 L14.7 0.4 Q15.1 -0.15 15.6 0.1 L15.65 0.4 16.3 0.4 16.95 0.3 17.0 0.55 Q17.4 0.1 17.9 0.3 L17.95 0.6 18.7 0.45 Q19.15 0.45 19.5 0.8 L19.65 0.85 19.45 0.9 19.1 1.5 18.3 1.75 Q18.4 1.95 19.0 2.0 L19.8 1.95 Q20.1 1.8 19.95 0.85 L20.3 0.8 20.75 1.2 21.1 1.55 21.35 1.65 Q20.8 1.8 20.75 2.15 L23.05 2.35 22.65 1.95 23.15 2.45 23.25 2.55 21.55 2.9 21.55 3.05 23.15 3.15 24.0 3.0 25.05 3.05 25.95 3.2 25.7 3.5 24.9 3.6 Q24.35 3.65 24.2 3.95 L25.15 4.25 26.1 4.15 26.65 3.5 26.65 3.65 Q27.15 3.7 27.5 4.0 27.85 4.4 27.55 4.8 L27.55 4.7 26.6 5.05 26.0 5.05 25.6 5.3 25.2 5.55 24.5 5.55 23.8 5.55 23.05 5.95 22.45 5.95 22.45 5.55 22.35 5.3 22.1 5.2 20.75 5.2 20.6 4.8 20.25 4.5 19.75 4.45 Q19.4 4.55 19.35 4.7 L19.85 4.85 Q20.15 5.0 20.05 5.25 L19.45 5.35 18.8 5.3 Q18.6 5.9 20.25 5.55 21.25 5.6 20.8 6.7 L20.1 6.75 20.0 7.05 18.05 7.15 18.2 6.7 15.45 6.8 14.35 7.25 Q14.35 7.5 15.3 7.7 L14.9 7.7 14.85 8.0 14.05 8.05 14.1 7.7 13.8 8.0 14.05 8.05 Q13.9 8.6 13.15 8.75 L12.8 8.4 Q12.45 9.1 9.9 8.15 L10.15 8.15 10.5 8.05 11.15 8.4 11.75 8.45 Q11.9 8.2 11.2 8.05 L10.35 7.95 9.95 7.7 9.6 7.4 8.95 7.25 8.3 7.15 7.45 6.8 6.3 6.5 Q5.95 6.25 5.2 6.15 L4.1 5.95 3.05 5.7 2.7 5.55 2.3 5.55 1.6 5.3 Q1.2 4.85 0.55 4.6 L1.0 4.45 1.55 4.4 1.75 3.9 Q2.35 3.5 3.6 3.55 L2.25 3.7 2.2 3.8 Q2.2 4.2 3.1 4.2 L5.5 4.1 5.1 4.35 Q4.95 4.55 5.15 4.75 L5.9 4.9 7.75 5.0 8.55 4.95 Q9.2 4.85 9.05 4.45 L9.0 4.4 9.2 4.4 9.7 3.7 9.55 3.7 Q9.25 4.05 8.35 4.05 L8.3 4.0 9.0 3.6 Q9.4 3.35 9.0 3.05 L8.75 3.0 8.95 2.8 Q9.0 2.55 8.6 2.55 L7.95 2.55 7.9 2.65 8.3 2.85 7.4 2.7 7.3 2.75 7.65 2.5 Q8.0 2.3 8.35 2.5 8.45 2.3 8.9 2.15 L9.25 2.5 11.55 2.6 Q12.3 2.45 12.3 1.35 L11.25 1.6 12.65 1.2 13.15 1.2 M15.8 1.15 Q14.95 1.2 14.75 1.55 L14.6 1.95 Q14.55 2.2 14.65 2.3 L15.55 2.4 16.75 2.15 17.05 1.3 16.95 1.3 15.8 1.15 M7.7 5.8 L8.35 6.05 9.1 6.1 9.8 6.05 9.95 5.45 9.45 5.2 8.8 5.3 Q8.4 5.4 7.7 5.8 M10.9 7.25 L11.15 7.55 11.7 7.45 Q12.0 7.25 11.65 7.15 L11.2 7.05 Q10.9 7.1 10.9 7.25 M0.2 13.25 L0.25 13.3 0.85 12.8 1.55 12.3 Q1.9 11.8 1.55 11.7 L0.75 11.55 1.1 11.3 1.1 10.9 1.2 10.0 Q1.75 9.95 1.65 9.5 L1.5 8.7 Q1.65 8.95 1.9 8.9 L2.15 8.5 1.8 8.15 1.3 7.95 1.8 7.4 1.1 7.25 Q0.7 7.15 0.8 6.8 L1.3 6.9 1.55 6.55 1.6 6.05 2.5 6.3 3.0 6.3 3.5 6.65 4.15 6.75 5.7 7.2 6.05 7.35 Q6.05 7.95 6.65 7.95 7.5 8.05 7.65 8.3 L7.7 8.65 8.3 8.9 8.45 9.7 8.8 9.45 Q9.2 9.05 9.9 9.3 10.45 9.4 10.55 10.05 L10.5 10.55 10.05 10.8 9.5 11.45 Q9.4 11.8 10.3 12.3 L11.4 12.65 10.95 13.5 10.05 13.6 9.2 13.55 Q9.25 14.2 10.1 14.3 11.0 14.4 11.1 14.7 L11.05 15.75 10.4 16.55 10.85 16.95 11.25 17.35 11.3 17.45 11.1 18.05 11.15 18.1 10.7 18.35 9.9 18.3 9.65 17.8 9.55 17.35 8.7 17.15 Q8.1 17.15 7.85 16.8 L8.7 16.3 Q9.25 15.9 8.8 15.55 L8.55 16.0 7.55 16.05 Q7.05 16.1 6.7 16.4 L6.1 16.9 Q5.65 17.15 5.75 16.45 L4.2 16.4 3.9 16.45 3.25 16.4 3.05 16.1 2.15 16.0 2.05 15.55 2.05 15.5 1.4 15.4 1.35 14.95 0.8 14.85 0.65 14.55 Q1.25 14.25 1.65 13.6 2.0 12.95 1.95 12.25 1.5 13.4 0.55 13.7 L0.2 13.25 M2.55 7.3 Q2.55 7.6 2.85 7.75 L3.45 7.8 3.95 7.3 Q4.0 6.7 3.05 6.7 L2.9 6.65 Q2.55 7.1 2.55 7.3 M6.5 5.55 L5.7 5.45 4.9 5.55 3.55 5.4 5.25 6.0 Q6.55 6.35 6.5 5.55 M5.7 8.7 L5.05 8.95 Q4.6 9.05 4.45 9.3 4.0 9.95 4.75 10.2 L5.65 10.4 Q6.2 10.45 6.45 10.15 L6.65 9.35 Q6.7 8.75 6.45 8.7 L5.7 8.7 M3.15 9.8 L2.35 10.1 Q1.95 10.3 1.8 10.65 1.55 11.2 2.2 11.55 L3.55 11.4 3.7 10.75 3.4 10.15 3.15 9.8 M3.85 9.0 Q4.4 9.15 5.1 8.6 L3.85 8.45 3.85 9.0 M3.4 12.95 Q2.85 13.1 2.65 12.7 2.6 13.3 3.35 13.25 4.05 13.2 4.3 12.65 L3.4 12.95 M5.65 12.95 Q5.5 13.5 6.1 13.55 L7.55 13.55 Q8.1 13.4 7.95 12.4 L7.7 12.15 6.45 12.2 Q5.8 12.3 5.65 12.95 M4.4 10.8 Q4.2 11.95 6.1 11.95 7.95 11.9 7.85 10.7 L7.05 9.95 Q6.85 10.7 5.8 11.1 4.75 11.55 4.4 10.8 M27.6 4.85 L27.55 4.9 27.55 4.8 27.6 4.8 27.6 4.85 M9.2 13.05 L9.6 13.15 9.95 13.1 10.05 12.7 9.4 12.4 Q9.1 12.25 9.05 12.6 L9.2 13.05 M8.75 10.85 L9.4 10.8 9.55 10.15 8.95 10.45 Q8.55 10.55 8.75 10.85 M2.05 15.55 L2.15 15.85 3.6 16.05 3.65 14.15 3.0 15.15 Q2.55 15.6 2.05 15.55 M7.55 15.05 L6.6 15.0 Q5.9 15.15 5.95 15.55 6.0 15.85 6.6 15.85 7.2 15.85 7.15 15.45 L7.55 15.05 M7.6 14.15 Q7.4 14.15 7.35 14.25 L7.25 14.5 5.55 14.5 7.65 14.7 7.6 14.15 M2.4 14.7 Q2.85 14.95 3.15 14.3 L2.3 13.65 2.1 14.2 2.4 14.7 M23.3 3.55 L21.85 3.85 Q21.0 4.1 20.6 4.6 21.05 5.1 21.95 5.1 L23.45 4.8 23.3 3.55 M20.3 2.7 L19.95 2.65 Q18.45 2.65 19.15 3.05 L19.9 3.15 Q20.45 3.05 20.3 2.7 M17.65 4.4 L16.65 4.55 Q15.7 4.75 15.65 5.05 L15.65 5.35 16.05 5.5 18.45 5.4 Q19.05 5.15 18.95 4.05 L17.65 4.4 M17.65 2.7 L16.9 2.9 16.65 3.1 Q16.2 3.2 16.2 3.4 16.2 3.65 16.6 3.75 L17.25 3.75 Q17.65 3.6 17.65 2.7 M17.65 7.5 L17.8 7.05 17.6 7.7 17.65 7.5 M21.1 6.7 L21.0 6.7 21.15 6.65 21.1 6.7 M15.2 3.45 Q14.4 3.6 13.9 4.1 13.95 4.45 14.6 4.45 15.3 4.5 15.4 4.15 L15.2 3.45 M13.7 1.7 Q12.7 2.05 13.05 2.4 L13.6 2.5 14.1 2.45 14.2 1.95 13.7 1.7 M13.15 2.8 Q11.65 2.9 11.7 3.8 13.3 4.0 13.55 3.4 L13.15 2.8 M13.7 4.15 L13.3 4.55 12.9 4.65 12.45 4.65 Q12.4 4.9 12.7 5.0 L13.2 5.05 13.8 4.4 13.7 4.15 M13.2 5.4 L12.4 5.6 Q12.05 5.8 12.05 6.25 L13.0 6.2 Q13.65 6.0 13.8 5.65 L13.2 5.4 M14.9 5.2 L15.05 5.8 14.7 6.1 14.2 6.25 Q14.1 6.65 15.15 6.4 15.75 6.1 15.7 5.65 L14.9 5.2" fill="#f2e396" fill-rule="evenodd" stroke="none"/>
      <path d="M8.3 2.85 L7.9 2.65 7.95 2.55 8.6 2.55 Q9.0 2.55 8.95 2.8 L8.75 3.0 8.35 2.85 8.3 2.85 M8.35 4.05 Q9.25 4.05 9.55 3.7 L9.7 3.7 9.2 4.4 9.0 4.4 8.35 4.05 M9.9 8.15 Q12.45 9.1 12.8 8.4 L13.15 8.75 Q13.9 8.6 14.05 8.05 L13.8 8.0 14.1 7.7 14.05 8.05 14.85 8.0 14.9 7.7 15.3 7.7 16.0 7.8 17.65 7.5 17.6 7.7 16.3 8.0 Q15.55 8.1 15.7 8.4 L16.35 8.6 17.05 8.55 17.6 7.7 17.9 7.35 18.05 7.15 20.0 7.05 20.1 6.75 20.8 6.7 Q21.25 5.6 20.25 5.55 18.6 5.9 18.8 5.3 L19.45 5.35 20.05 5.25 Q20.15 5.0 19.85 4.85 L19.35 4.7 Q19.4 4.55 19.75 4.45 L20.25 4.5 20.6 4.8 20.75 5.2 22.1 5.2 22.35 5.3 22.45 5.55 22.45 5.95 23.05 5.95 23.8 5.55 24.5 5.55 25.2 5.55 25.6 5.3 26.0 5.05 26.6 5.05 26.55 5.05 Q25.05 6.15 25.55 6.5 L26.25 6.6 26.9 6.45 Q27.55 6.15 27.55 4.9 L27.6 4.85 Q27.95 4.9 28.0 5.2 L28.0 5.75 27.85 6.35 27.95 6.7 27.95 7.05 27.65 7.15 27.95 7.7 27.65 8.15 27.3 8.1 27.0 8.5 26.45 8.55 26.05 8.2 25.9 7.5 Q25.65 7.65 25.65 8.1 L25.5 8.75 25.0 9.05 24.35 9.1 Q24.3 9.4 25.1 9.6 L26.4 9.8 26.4 10.45 26.1 10.75 25.95 11.55 Q25.8 12.05 25.45 12.15 25.15 11.85 25.15 11.3 L24.85 12.15 24.55 13.2 Q24.1 13.15 23.9 13.95 23.55 14.55 23.05 14.6 L22.5 14.5 Q22.4 14.35 22.75 14.25 L23.2 13.95 23.2 13.5 22.9 13.1 22.3 13.9 21.35 13.85 Q21.75 13.15 21.65 11.7 L21.1 12.8 20.55 13.9 19.6 14.3 20.25 14.4 20.85 14.3 20.75 14.85 20.5 15.3 19.8 15.75 19.4 16.25 18.8 16.5 18.1 16.25 18.85 15.95 18.55 15.7 18.05 15.7 17.85 15.9 17.35 16.45 16.7 16.85 16.05 16.9 15.45 17.1 14.8 17.0 15.25 16.55 15.55 16.0 Q15.5 16.15 15.25 16.15 L14.85 16.25 14.5 16.7 13.7 16.7 13.7 17.85 13.6 18.95 13.45 18.95 13.35 19.15 13.3 19.2 12.55 19.35 12.25 19.4 11.65 19.45 11.9 19.2 11.85 19.2 11.2 19.45 Q10.45 19.55 10.45 18.95 L9.35 19.05 9.05 18.75 8.75 18.55 8.35 18.55 7.95 18.5 6.85 17.95 5.95 17.4 5.5 17.05 4.75 16.65 4.2 16.4 5.75 16.45 Q5.65 17.15 6.1 16.9 L6.7 16.4 Q7.05 16.1 7.55 16.05 L8.55 16.0 8.8 15.55 Q9.25 15.9 8.7 16.3 L7.85 16.8 Q8.1 17.15 8.7 17.15 L9.55 17.35 9.65 17.8 9.9 18.3 10.7 18.35 11.15 18.1 Q11.15 18.8 11.65 18.6 12.4 18.35 12.4 17.05 L12.2 15.8 Q12.2 16.75 11.65 17.15 L11.3 17.45 11.25 17.35 10.85 16.95 10.4 16.55 11.05 15.75 11.1 14.7 Q11.0 14.4 10.1 14.3 9.25 14.2 9.2 13.55 L10.05 13.6 10.95 13.5 11.4 12.65 10.3 12.3 Q9.4 11.8 9.5 11.45 L10.05 10.8 10.5 10.55 10.55 10.05 Q10.45 9.4 9.9 9.3 9.2 9.05 8.8 9.45 L8.45 9.7 8.3 8.9 7.7 8.65 7.65 8.3 Q7.5 8.05 6.65 7.95 6.05 7.95 6.05 7.35 L6.7 7.5 7.35 7.4 Q7.35 7.9 8.2 7.8 L9.15 7.95 9.8 8.15 9.9 8.15 M26.65 3.5 L26.1 4.15 25.15 4.25 24.2 3.95 Q24.35 3.65 24.9 3.6 L25.7 3.5 25.95 3.2 26.15 3.45 26.65 3.5 M24.0 3.0 L23.15 3.15 21.55 3.05 21.55 2.9 23.25 2.55 23.65 2.95 24.0 3.0 M19.95 0.85 Q20.1 1.8 19.8 1.95 L19.0 2.0 Q18.4 1.95 18.3 1.75 L19.1 1.5 19.45 0.9 19.65 0.85 19.7 0.8 19.95 0.85 M10.9 7.25 Q10.9 7.1 11.2 7.05 L11.65 7.15 Q12.0 7.25 11.7 7.45 L11.15 7.55 10.9 7.25 M7.7 5.8 Q8.4 5.4 8.8 5.3 L9.45 5.2 9.95 5.45 9.8 6.05 9.1 6.1 8.35 6.05 7.7 5.8 M4.15 6.75 L5.0 6.8 5.7 7.2 4.15 6.75 M3.4 12.95 L4.3 12.65 Q4.05 13.2 3.35 13.25 2.6 13.3 2.65 12.7 2.85 13.1 3.4 12.95 M3.85 9.0 L3.85 8.45 5.1 8.6 Q4.4 9.15 3.85 9.0 M4.4 10.8 Q4.75 11.55 5.8 11.1 6.85 10.7 7.05 9.95 L7.85 10.7 Q7.95 11.9 6.1 11.95 4.2 11.95 4.4 10.8 M11.4 13.45 L10.75 13.7 10.1 13.8 Q10.15 14.15 11.05 14.15 L11.75 13.75 Q12.05 14.2 12.9 14.2 13.75 14.2 13.6 13.55 13.05 13.55 13.0 13.1 L13.1 12.2 13.15 11.6 Q12.8 10.9 12.8 10.55 L12.95 9.8 12.8 9.8 12.3 9.9 12.2 10.65 11.95 11.1 12.05 11.9 12.15 12.65 12.15 12.8 11.4 13.45 M0.55 13.7 Q1.5 13.4 1.95 12.25 2.0 12.95 1.65 13.6 1.25 14.25 0.65 14.55 L0.6 14.35 0.6 13.75 0.55 13.7 M2.05 15.55 Q2.55 15.6 3.0 15.15 L3.65 14.15 3.6 16.05 2.15 15.85 2.05 15.55 M7.6 14.15 L7.65 14.7 5.55 14.5 7.25 14.5 7.35 14.25 Q7.4 14.15 7.6 14.15 M17.65 2.7 Q17.65 3.6 17.25 3.75 L16.6 3.75 Q16.2 3.65 16.2 3.4 16.2 3.2 16.65 3.1 L16.9 2.9 17.65 2.7 M21.1 6.7 L20.8 6.95 20.35 7.05 20.1 7.1 Q19.9 7.35 20.2 7.55 20.65 7.9 21.4 7.55 21.95 7.25 21.75 6.35 L21.7 6.2 21.15 5.95 21.2 6.5 21.15 6.6 21.15 6.65 21.0 6.7 21.1 6.7 M13.7 4.15 L13.8 4.4 13.2 5.05 12.7 5.0 Q12.4 4.9 12.45 4.65 L12.9 4.65 13.3 4.55 13.7 4.15 M14.9 5.2 L15.7 5.65 Q15.75 6.1 15.15 6.4 14.1 6.65 14.2 6.25 L14.7 6.1 15.05 5.8 14.9 5.2 M18.45 13.8 L18.55 13.2 17.9 13.4 Q17.55 13.6 17.55 13.9 17.5 14.5 18.25 14.4 L18.45 13.8 M18.9 10.2 L18.65 10.45 18.45 10.7 17.75 10.8 17.05 10.7 Q17.0 11.05 17.45 11.3 L18.35 11.6 19.25 11.65 19.75 10.85 19.9 9.9 18.9 10.2 M21.55 8.65 L21.15 8.8 Q20.85 9.0 21.0 9.2 21.85 9.3 21.7 8.65 L21.55 8.65 M15.2 13.2 L16.4 13.3 16.95 12.05 16.4 12.05 15.2 12.45 Q14.3 12.85 15.2 13.2" fill="#d5c476" fill-rule="evenodd" stroke="none"/>
      <path d="M26.6 5.05 L27.55 4.7 27.55 4.8 27.55 4.9 Q27.55 6.15 26.9 6.45 L26.25 6.6 25.55 6.5 Q25.05 6.15 26.55 5.05 L26.6 5.05 M11.3 17.45 L11.65 17.15 Q12.2 16.75 12.2 15.8 L12.4 17.05 Q12.4 18.35 11.65 18.6 11.15 18.8 11.15 18.1 L11.1 18.05 11.3 17.45 M4.75 16.65 L5.5 17.05 Q4.65 16.8 4.55 16.6 L4.75 16.65 M8.35 18.55 L8.75 18.55 9.05 18.75 8.9 18.7 8.35 18.55 M12.25 19.4 L12.55 19.35 13.3 19.55 15.0 19.75 Q15.05 20.1 14.75 20.25 14.35 20.45 14.3 20.55 L15.2 20.6 16.1 20.6 16.0 21.45 15.7 22.35 Q16.65 22.45 17.1 21.75 17.35 20.95 17.65 20.75 18.0 20.5 18.6 20.75 19.2 21.0 19.25 21.4 19.4 22.15 18.65 22.45 L17.75 23.1 17.2 22.95 17.65 22.8 18.1 22.6 18.25 22.1 18.45 21.8 18.45 21.5 18.1 21.5 17.85 21.75 17.2 22.2 Q15.35 23.25 14.85 22.6 15.25 22.35 15.25 21.75 15.05 22.2 14.25 22.2 13.5 22.15 13.25 21.75 13.1 21.5 13.2 21.05 13.25 20.6 13.45 20.35 L12.6 20.2 Q12.4 20.05 12.35 19.5 L12.25 19.4 M13.3 19.2 L13.35 19.15 13.45 18.95 13.6 18.95 13.7 17.85 13.7 16.7 14.5 16.7 14.85 16.25 15.25 16.15 Q15.5 16.15 15.55 16.0 L15.25 16.55 14.8 17.0 15.45 17.1 16.05 16.9 16.7 16.85 17.35 16.45 17.85 15.9 18.05 15.7 18.55 15.7 18.85 15.95 18.1 16.25 18.8 16.5 19.4 16.25 19.8 15.75 20.5 15.3 20.75 14.85 20.85 14.3 20.25 14.4 19.6 14.3 20.55 13.9 21.1 12.8 21.65 11.7 Q21.75 13.15 21.35 13.85 L22.3 13.9 22.9 13.1 23.2 13.5 23.2 13.95 22.75 14.25 Q22.4 14.35 22.5 14.5 L23.05 14.6 Q23.55 14.55 23.9 13.95 24.1 13.15 24.55 13.2 L24.85 12.15 25.15 11.3 Q25.15 11.85 25.45 12.15 25.8 12.05 25.95 11.55 L26.1 10.75 26.4 10.45 26.4 9.8 25.1 9.6 Q24.3 9.4 24.35 9.1 L25.0 9.05 25.5 8.75 25.65 8.1 Q25.65 7.65 25.9 7.5 L26.05 8.2 26.45 8.55 27.0 8.5 27.3 8.1 27.65 8.15 27.95 7.7 27.9 8.45 Q28.2 8.65 28.2 9.1 L28.15 9.9 28.15 11.2 27.85 11.75 Q28.95 12.95 28.2 14.15 27.8 14.85 26.9 15.1 L26.15 15.05 25.8 15.1 25.7 15.1 25.1 15.6 24.4 16.05 24.1 16.05 24.1 16.9 Q23.9 18.6 23.4 19.15 23.0 19.65 21.5 20.0 L21.45 21.1 Q21.35 21.65 20.8 21.6 L20.9 21.5 20.7 21.6 20.75 20.9 Q20.75 20.1 21.0 19.6 L21.0 19.45 21.15 19.25 Q21.35 19.05 22.1 18.85 22.0 19.55 22.6 19.45 L23.0 19.05 23.1 18.5 23.45 18.25 23.75 17.9 23.75 16.35 23.75 16.05 22.85 16.2 21.75 17.2 21.0 17.45 20.2 17.55 Q19.2 18.15 18.3 18.15 L17.15 18.4 15.95 18.7 14.5 19.05 13.9 19.3 13.55 19.1 13.3 19.2 M11.4 13.45 L12.15 12.8 12.15 12.65 12.05 11.9 11.95 11.1 12.2 10.65 12.3 9.9 12.8 9.8 12.95 9.8 12.8 10.55 Q12.8 10.9 13.15 11.6 L13.1 12.2 13.0 13.1 Q13.05 13.55 13.6 13.55 13.75 14.2 12.9 14.2 12.05 14.2 11.75 13.75 L11.05 14.15 Q10.15 14.15 10.1 13.8 L10.75 13.7 11.4 13.45 M17.8 7.05 L17.9 7.2 17.9 7.35 17.6 7.7 17.05 8.55 16.35 8.6 15.7 8.4 Q15.55 8.1 16.3 8.0 L17.6 7.7 17.8 7.05 M21.15 6.65 L21.15 6.6 21.2 6.5 21.15 5.95 21.7 6.2 21.75 6.35 Q21.95 7.25 21.4 7.55 20.65 7.9 20.2 7.55 19.9 7.35 20.1 7.1 L20.35 7.05 20.8 6.95 21.1 6.7 21.15 6.65 M15.2 13.2 Q14.3 12.85 15.2 12.45 L16.4 12.05 16.95 12.05 16.4 13.3 15.2 13.2 M21.55 8.65 L21.7 8.65 Q21.85 9.3 21.0 9.2 20.85 9.0 21.15 8.8 L21.55 8.65 M18.9 10.2 L19.9 9.9 19.75 10.85 19.25 11.65 18.35 11.6 17.45 11.3 Q17.0 11.05 17.05 10.7 L17.75 10.8 18.45 10.7 18.65 10.45 18.9 10.2 M18.45 13.8 L18.25 14.4 Q17.5 14.5 17.55 13.9 17.55 13.6 17.9 13.4 L18.55 13.2 18.45 13.8 M20.7 21.6 L20.8 21.6 20.65 21.85 20.7 21.6 M20.25 22.45 L19.35 22.95 19.95 22.6 20.25 22.45" fill="#b9aa61" fill-rule="evenodd" stroke="none"/>
      <path d="M4.2 16.4 L4.75 16.65 4.55 16.6 4.3 16.55 3.9 16.45 4.2 16.4 M12.55 19.35 L13.3 19.2 13.55 19.1 13.9 19.3 14.5 19.05 15.95 18.7 17.15 18.4 18.3 18.15 Q19.2 18.15 20.2 17.55 L21.0 17.45 21.75 17.2 22.85 16.2 23.75 16.05 23.75 16.35 23.75 17.9 23.45 18.25 23.1 18.5 23.0 19.05 22.6 19.45 Q22.0 19.55 22.1 18.85 21.35 19.05 21.15 19.25 L21.0 19.45 21.0 19.6 Q20.75 20.1 20.75 20.9 L20.7 21.6 20.65 21.85 20.65 21.9 20.25 22.45 19.95 22.6 19.35 22.95 Q18.3 23.45 17.65 23.2 L17.75 23.1 18.65 22.45 Q19.4 22.15 19.25 21.4 19.2 21.0 18.6 20.75 18.0 20.5 17.65 20.75 17.35 20.95 17.1 21.75 16.65 22.45 15.7 22.35 L16.0 21.45 16.1 20.6 15.2 20.6 14.3 20.55 Q14.35 20.45 14.75 20.25 15.05 20.1 15.0 19.75 L13.3 19.55 12.55 19.35" fill="#908349" fill-rule="evenodd" stroke="none"/>
    </g>
  </defs>
</svg>
