<?xml version="1.0" encoding="UTF-8" standalone="no"?>
<svg xmlns:xlink="http://www.w3.org/1999/xlink" height="132.35px" width="558.3px" xmlns="http://www.w3.org/2000/svg">
  <g transform="matrix(1.0, 0.0, 0.0, 1.0, 0.0, 0.0)">
    <use height="132.35" transform="matrix(1.0, 0.0, 0.0, 1.0, 0.0, 0.0)" width="558.3" xlink:href="#shape0"/>
  </g>
  <defs>
    <g id="shape0" transform="matrix(1.0, 0.0, 0.0, 1.0, 0.0, 0.0)">
      <path d="M529.25 88.9 Q571.25 88.15 552.5 105.0 533.75 121.9 499.25 121.15 488.45 120.9 477.4 118.9 L468.5 117.0 Q458.0 121.5 443.75 125.65 415.25 133.9 396.5 132.0 377.75 130.15 358.25 109.9 352.15 103.55 346.7 96.15 L342.5 90.0 Q339.5 97.5 330.9 104.65 313.65 118.9 285.5 117.0 257.4 115.15 244.65 99.4 240.65 94.45 238.65 88.75 L237.5 84.0 Q229.25 90.0 215.0 96.0 186.5 108.0 156.5 108.0 126.5 108.0 116.0 93.0 112.7 88.3 111.8 82.7 L111.5 78.0 Q81.5 85.5 52.65 88.9 -5.1 95.65 0.5 75.0 6.15 54.4 39.9 49.15 56.75 46.5 72.5 48.0 89.0 36.0 110.75 24.0 154.25 0.0 180.5 0.0 205.5 0.0 239.0 25.5 255.75 38.25 267.5 51.0 L275.45 49.75 295.25 47.65 Q326.75 45.4 345.5 51.0 364.25 56.65 379.25 67.9 386.75 73.5 390.5 78.0 L394.3 75.25 Q399.25 71.95 405.15 69.4 423.9 61.15 444.5 63.0 465.15 64.9 476.4 79.15 482.0 86.25 483.5 93.0 L498.5 91.1 Q516.15 89.1 529.25 88.9" fill="#fbdba1" fill-rule="evenodd" stroke="none"/>
      <path d="M84.9 80.0 Q54.15 88.25 32.25 87.0 19.85 86.3 13.45 82.25 7.7 78.6 8.0 73.2 8.3 68.05 13.85 63.3 19.6 58.4 28.75 56.0 L26.65 58.2 Q24.4 60.85 23.4 63.3 20.15 71.2 30.75 74.0 41.4 76.8 77.4 74.45 L111.25 71.5 Q100.25 75.9 84.9 80.0" fill="#f9d38b" fill-rule="evenodd" stroke="none"/>
      <path d="M229.95 74.75 Q236.15 70.25 239.25 66.5 L232.95 75.05 Q225.9 84.2 222.25 87.0 215.4 92.35 204.15 96.55 192.5 100.9 177.75 103.5 163.35 106.0 146.95 102.9 131.4 99.95 125.75 94.5 117.0 86.05 115.25 72.7 114.7 68.5 114.9 64.35 L115.25 61.0 Q120.15 67.35 131.1 73.35 141.4 79.05 154.65 83.05 183.9 92.0 202.25 87.5 217.55 83.75 229.95 74.75" fill="#f9d38b" fill-rule="evenodd" stroke="none"/>
      <path d="M333.8 89.5 Q339.65 82.4 342.75 75.5 L340.15 84.05 Q336.9 93.45 333.75 97.5 329.8 102.65 323.2 106.65 315.95 111.0 306.25 113.5 294.9 116.45 277.55 111.95 258.4 106.95 250.75 96.5 243.9 87.15 246.65 74.4 247.5 70.4 249.2 66.55 L250.75 63.5 Q258.15 83.85 276.65 95.8 293.25 106.45 308.75 105.0 322.2 103.75 333.8 89.5" fill="#f9d38b" fill-rule="evenodd" stroke="none"/>
      <path d="M347.25 77.5 L362.0 90.55 Q379.25 105.45 391.75 114.5 404.25 123.55 436.0 120.7 451.9 119.25 465.25 116.0 454.75 121.25 440.15 125.15 410.9 132.9 390.25 126.0 364.25 117.35 353.15 96.55 349.7 90.05 348.1 83.15 L347.25 77.5" fill="#f9d38b" fill-rule="evenodd" stroke="none"/>
      <path d="M545.5 108.55 Q534.0 116.45 517.75 118.0 499.05 119.8 488.45 116.8 479.1 114.2 469.25 105.5 L473.8 108.05 Q480.95 110.95 493.75 112.5 507.25 114.15 520.55 112.7 529.5 111.7 537.25 109.5 541.65 108.25 548.15 104.5 551.4 102.65 553.75 101.0 551.25 104.65 545.5 108.55" fill="#f9d38b" fill-rule="evenodd" stroke="none"/>
    </g>
  </defs>
</svg>
