<?xml version="1.0" encoding="UTF-8" standalone="no"?>
<svg xmlns:xlink="http://www.w3.org/1999/xlink" height="39.6px" width="49.8px" xmlns="http://www.w3.org/2000/svg">
  <g transform="matrix(1.0, 0.0, 0.0, 1.0, 0.0, 0.0)">
    <use height="26.0" transform="matrix(1.0, 0.0, 0.0, 1.0, 0.0, 0.0)" width="21.5" xlink:href="#shape0"/>
    <use height="24.2" transform="matrix(1.0, 0.0, 0.0, 1.0, 1.8, 1.75)" width="18.1" xlink:href="#sprite0"/>
    <use height="24.15" transform="matrix(1.0, 0.0, 0.0, 1.0, 0.0, 1.75)" width="4.35" xlink:href="#sprite1"/>
    <use height="17.25" transform="matrix(1.0, 0.0, 0.0, 1.0, 3.15, 7.25)" width="12.3" xlink:href="#shape3"/>
    <use height="15.45" transform="matrix(1.0, 0.0, 0.0, 1.0, 3.15, 7.25)" width="9.1" xlink:href="#sprite2"/>
    <use height="2.55" transform="matrix(1.0, 0.0, 0.0, 1.0, 6.25, 7.8)" width="3.0" xlink:href="#sprite3"/>
    <use height="1.35" transform="matrix(1.0, 0.0, 0.0, 1.0, 8.85, 11.5)" width="1.75" xlink:href="#sprite4"/>
    <use height="1.0" transform="matrix(1.0, 0.0, 0.0, 1.0, 4.25, 15.3)" width="1.75" xlink:href="#sprite5"/>
    <use height="1.05" transform="matrix(1.0, 0.0, 0.0, 1.0, 5.35, 17.35)" width="1.5" xlink:href="#sprite6"/>
    <use height="0.95" transform="matrix(1.0, 0.0, 0.0, 1.0, 10.45, 14.15)" width="1.35" xlink:href="#sprite7"/>
    <use height="0.6" transform="matrix(1.0, 0.0, 0.0, 1.0, 8.45, 18.65)" width="0.65" xlink:href="#sprite8"/>
    <use height="0.8" transform="matrix(1.0, 0.0, 0.0, 1.0, 7.25, 21.45)" width="2.5" xlink:href="#sprite9"/>
    <use height="9.35" transform="matrix(1.0, 0.0, 0.0, 1.0, 13.85, 15.15)" width="1.6" xlink:href="#sprite10"/>
  </g>
  <defs>
    <g id="shape0" transform="matrix(1.0, 0.0, 0.0, 1.0, 0.0, 0.0)">
      <path d="M16.45 3.25 L19.75 0.1 19.95 0.2 19.9 3.4 16.65 3.9 16.45 3.25" fill="url(#gradient0)" fill-rule="evenodd" stroke="none"/>
      <path d="M19.55 5.1 L1.8 4.8 2.0 0.0 19.75 0.1 19.55 5.1" fill="url(#gradient1)" fill-rule="evenodd" stroke="none"/>
      <path d="M14.0 6.9 L19.95 1.75 21.5 24.05 18.1 26.0 14.0 6.9" fill="url(#gradient2)" fill-rule="evenodd" stroke="none"/>
      <path d="M21.5 24.05 L19.25 25.35 19.3 21.15 19.9 1.8 19.95 1.8 21.5 24.05" fill="url(#gradient3)" fill-rule="evenodd" stroke="none"/>
      <path d="M18.1 26.0 L19.25 23.0 21.5 24.0 21.5 24.05 18.1 26.0" fill="url(#gradient4)" fill-rule="evenodd" stroke="none"/>
      <path d="M18.1 25.95 L0.0 25.9 1.8 1.75 19.9 1.8 18.1 25.95" fill="url(#gradient5)" fill-rule="evenodd" stroke="none"/>
      <path d="M1.6 4.8 Q7.15 4.6 19.65 5.0 L19.5 6.75 Q11.1 6.4 1.45 6.4 L1.6 4.8" fill="url(#gradient6)" fill-rule="evenodd" stroke="none"/>
      <path d="M1.65 3.85 Q10.1 3.75 19.7 4.05 L19.6 5.1 Q12.1 4.7 1.6 4.8 L1.65 3.85" fill="url(#gradient7)" fill-rule="evenodd" stroke="none"/>
    </g>
    <linearGradient gradientTransform="matrix(0.0018, 0.0, 0.0, -0.0018, 18.45, 2.0)" gradientUnits="userSpaceOnUse" id="gradient0" spreadMethod="pad" x1="-819.2" x2="819.2">
      <stop offset="0.0" stop-color="#fff6e8"/>
      <stop offset="1.0" stop-color="#b09a74"/>
    </linearGradient>
    <linearGradient gradientTransform="matrix(0.0094, 0.0, 0.0, -0.0094, 11.85, 2.55)" gradientUnits="userSpaceOnUse" id="gradient1" spreadMethod="pad" x1="-819.2" x2="819.2">
      <stop offset="0.0" stop-color="#fff6e8"/>
      <stop offset="1.0" stop-color="#dec8a4"/>
    </linearGradient>
    <linearGradient gradientTransform="matrix(-3.0E-4, 0.0131, 0.0131, 3.0E-4, 17.8, 13.2)" gradientUnits="userSpaceOnUse" id="gradient2" spreadMethod="pad" x1="-819.2" x2="819.2">
      <stop offset="0.0" stop-color="#876533"/>
      <stop offset="1.0" stop-color="#dbbc8e"/>
    </linearGradient>
    <linearGradient gradientTransform="matrix(0.0038, 9.0E-4, 9.0E-4, -0.0038, 19.95, 13.7)" gradientUnits="userSpaceOnUse" id="gradient3" spreadMethod="pad" x1="-819.2" x2="819.2">
      <stop offset="0.0" stop-color="#7d5b2a"/>
      <stop offset="1.0" stop-color="#d4b68a"/>
    </linearGradient>
    <linearGradient gradientTransform="matrix(0.0023, 0.0014, 0.0014, -0.0023, 18.55, 24.2)" gradientUnits="userSpaceOnUse" id="gradient4" spreadMethod="pad" x1="-819.2" x2="819.2">
      <stop offset="0.0" stop-color="#87622d"/>
      <stop offset="1.0" stop-color="#d4b68a"/>
    </linearGradient>
    <linearGradient gradientTransform="matrix(0.0099, 0.0118, 0.0118, -0.0099, 9.4, 13.15)" gradientUnits="userSpaceOnUse" id="gradient5" spreadMethod="pad" x1="-819.2" x2="819.2">
      <stop offset="0.0" stop-color="#fff6e8"/>
      <stop offset="1.0" stop-color="#dec8a4"/>
    </linearGradient>
    <linearGradient gradientTransform="matrix(0.0096, 0.0, 0.0, -0.0096, 11.65, 5.75)" gradientUnits="userSpaceOnUse" id="gradient6" spreadMethod="pad" x1="-819.2" x2="819.2">
      <stop offset="0.0" stop-color="#f7de85"/>
      <stop offset="1.0" stop-color="#b38239"/>
    </linearGradient>
    <linearGradient gradientTransform="matrix(0.0095, 0.0, 0.0, -0.0095, 11.75, 4.45)" gradientUnits="userSpaceOnUse" id="gradient7" spreadMethod="pad" x1="-819.2" x2="819.2">
      <stop offset="0.0" stop-color="#f7e9b7"/>
      <stop offset="1.0" stop-color="#faca1d"/>
    </linearGradient>
    <g id="sprite0" transform="matrix(1.0, 0.0, 0.0, 1.0, 0.0, 0.0)">
      <use height="24.2" transform="matrix(1.0, 0.0, 0.0, 1.0, 0.0, 0.0)" width="18.1" xlink:href="#shape1"/>
    </g>
    <g id="shape1" transform="matrix(1.0, 0.0, 0.0, 1.0, 0.0, 0.0)">
      <path d="M17.15 3.5 Q17.35 1.7 17.15 1.05 17.0 0.4 15.7 0.5 L0.0 0.25 0.0 0.0 18.1 0.05 16.3 24.2 9.3 24.2 10.1 24.15 Q13.1 24.05 14.6 22.9 15.35 22.3 15.5 21.75 L17.15 3.5" fill="#ffffff" fill-rule="evenodd" stroke="none"/>
    </g>
    <g id="sprite1" transform="matrix(1.0, 0.0, 0.0, 1.0, 0.0, 0.0)">
      <use height="24.15" transform="matrix(1.0, 0.0, 0.0, 1.0, 0.0, 0.0)" width="4.35" xlink:href="#shape2"/>
    </g>
    <g id="shape2" transform="matrix(1.0, 0.0, 0.0, 1.0, 0.0, 0.0)">
      <path d="M1.8 0.0 L2.8 0.0 Q1.35 20.35 1.6 21.4 L2.1 22.75 Q2.75 23.75 4.35 24.15 L0.0 24.15 1.8 0.0" fill="#d18619" fill-rule="evenodd" stroke="none"/>
    </g>
    <g id="shape3" transform="matrix(1.0, 0.0, 0.0, 1.0, -3.15, -7.25)">
      <path d="M8.3 12.0 L9.0 11.4 Q7.05 11.55 5.85 10.35 4.9 9.4 5.7 8.15 6.5 6.85 8.15 7.4 12.45 8.75 14.2 16.05 15.05 19.6 15.45 24.5 L13.8 23.15 11.95 22.6 11.05 22.45 10.5 22.9 Q10.1 23.2 9.45 22.5 L8.9 22.9 Q8.4 23.3 7.95 22.3 7.45 23.05 6.5 22.55 5.8 22.2 6.95 21.55 8.1 20.9 9.3 20.95 11.55 21.05 14.35 22.95 13.15 21.0 10.9 20.0 L9.6 19.75 8.4 19.8 Q7.7 19.75 7.75 19.15 L7.95 18.55 4.65 18.8 Q4.0 18.45 5.0 17.7 L6.1 17.0 Q3.7 17.2 3.2 16.05 2.8 15.1 5.25 15.05 7.7 14.95 9.5 16.15 11.95 17.8 14.85 22.95 14.45 20.5 13.6 18.55 13.1 17.4 11.85 16.6 L10.1 15.3 Q9.65 14.75 10.1 14.2 L10.6 13.75 9.65 13.8 Q8.65 13.7 8.2 13.2 7.75 12.75 8.3 12.0" fill="url(#gradient8)" fill-rule="evenodd" stroke="none"/>
    </g>
    <linearGradient gradientTransform="matrix(0.0058, -8.0E-4, -8.0E-4, -0.0058, 9.5, 16.15)" gradientUnits="userSpaceOnUse" id="gradient8" spreadMethod="pad" x1="-819.2" x2="819.2">
      <stop offset="0.0" stop-color="#ffc535"/>
      <stop offset="1.0" stop-color="#e0a81a"/>
    </linearGradient>
    <g id="sprite2" transform="matrix(1.0, 0.0, 0.0, 1.0, 0.05, 0.0)">
      <use height="15.45" transform="matrix(1.0, 0.0, 0.0, 1.0, -0.05, 0.0)" width="9.1" xlink:href="#shape4"/>
    </g>
    <g id="shape4" transform="matrix(1.0, 0.0, 0.0, 1.0, 0.05, 0.0)">
      <path d="M6.25 4.1 L5.6 4.6 Q5.05 5.2 5.4 5.75 5.95 6.55 7.05 6.55 L6.45 6.55 Q5.45 6.45 5.0 5.95 4.55 5.5 5.1 4.75 L5.8 4.15 Q3.85 4.3 2.65 3.1 1.7 2.15 2.5 0.9 3.3 -0.4 4.95 0.15 L5.55 0.4 3.9 0.6 Q3.15 0.95 3.1 1.65 2.85 3.6 4.7 3.9 L6.25 4.1" fill="#000000" fill-rule="evenodd" stroke="none"/>
      <path d="M2.5 9.75 Q0.4 9.75 0.0 8.8 -0.25 8.1 1.15 7.85 0.1 8.6 0.9 9.1 1.75 9.75 2.5 9.75" fill="#000000" fill-rule="evenodd" stroke="none"/>
      <path d="M6.9 8.05 Q6.45 7.5 6.9 6.95 L7.4 6.5 7.1 6.9 Q6.9 7.45 7.5 8.15 L9.05 9.6 7.85 8.85 6.9 8.05" fill="#000000" fill-rule="evenodd" stroke="none"/>
      <path d="M1.75 11.4 Q1.9 11.65 2.1 11.7 L1.45 11.55 Q0.85 11.25 1.65 10.55 L2.8 9.75 3.05 9.8 2.2 10.3 Q1.4 10.9 1.75 11.4" fill="#000000" fill-rule="evenodd" stroke="none"/>
      <path d="M5.2 12.55 Q4.05 12.45 4.75 11.3 L4.75 11.8 Q4.9 12.35 5.55 12.6 L5.2 12.55" fill="#000000" fill-rule="evenodd" stroke="none"/>
      <path d="M3.3 15.3 Q2.65 14.95 3.65 14.3 4.7 13.7 5.9 13.7 4.5 13.9 3.8 14.7 3.45 15.1 3.7 15.45 L3.3 15.3" fill="#000000" fill-rule="evenodd" stroke="none"/>
    </g>
    <g id="sprite3" transform="matrix(1.0, 0.0, 0.0, 1.0, 0.0, 0.0)">
      <use height="2.5" transform="matrix(1.0, 0.0, 0.0, 1.02, 0.0, 0.0)" width="3.0" xlink:href="#shape5"/>
    </g>
    <g id="shape5" transform="matrix(1.0, 0.0, 0.0, 1.0, 0.0, 0.0)">
      <path d="M2.1 0.05 Q2.9 0.2 3.0 1.1 3.1 2.0 2.25 2.35 L0.65 2.25 Q-0.1 1.85 0.05 1.1 0.15 0.4 0.85 0.15 L2.1 0.05" fill="#ffffff" fill-rule="evenodd" stroke="none"/>
    </g>
    <g id="sprite4" transform="matrix(1.0, 0.0, 0.0, 1.0, 0.0, 0.0)">
      <use height="1.35" transform="matrix(1.0, 0.0, 0.0, 1.0, 0.0, 0.0)" width="1.75" xlink:href="#shape6"/>
    </g>
    <g id="shape6" transform="matrix(1.0, 0.0, 0.0, 1.0, 0.0, 0.05)">
      <path d="M1.35 0.0 Q2.25 0.3 1.2 0.95 L0.0 1.0 Q0.0 0.5 0.5 0.2 L1.35 0.0" fill="#ffffff" fill-rule="evenodd" stroke="none"/>
    </g>
    <g id="sprite5" transform="matrix(1.0, 0.0, 0.0, 1.0, 0.0, 0.05)">
      <use height="0.95" transform="matrix(1.0, 0.0, 0.0, 1.0526, 0.0, -0.05)" width="1.75" xlink:href="#shape7"/>
    </g>
    <g id="shape7" transform="matrix(1.0, 0.0, 0.0, 1.0, 0.0, 0.0)">
      <path d="M1.15 0.05 Q2.2 0.25 1.35 0.7 L0.15 0.75 Q-0.15 0.35 0.2 0.15 L1.15 0.05" fill="#ffffff" fill-rule="evenodd" stroke="none"/>
    </g>
    <g id="sprite6" transform="matrix(1.0, 0.0, 0.0, 1.0, 0.0, 0.0)">
      <use height="1.0" transform="matrix(1.0, 0.0, 0.0, 1.05, 0.0, 0.0)" width="1.5" xlink:href="#shape8"/>
    </g>
    <g id="shape8" transform="matrix(1.0, 0.0, 0.0, 1.0, 0.0, 0.0)">
      <path d="M1.0 0.0 Q1.85 0.15 1.3 0.6 0.7 1.1 0.2 1.0 -0.2 0.9 0.15 0.45 0.55 -0.05 1.0 0.0" fill="#ffffff" fill-rule="evenodd" stroke="none"/>
    </g>
    <g id="sprite7" transform="matrix(1.0, 0.0, 0.0, 1.0, 0.05, 0.0)">
      <use height="0.95" transform="matrix(0.7714, 0.0, 0.0, 1.0, -0.05, 0.0)" width="1.75" xlink:href="#shape7"/>
    </g>
    <g id="sprite8" transform="matrix(1.0, 0.0, 0.0, 1.0, 0.0, 0.0)">
      <use height="0.95" transform="matrix(0.3714, 0.0, 0.0, 0.6316, 0.0, 0.0)" width="1.75" xlink:href="#shape7"/>
    </g>
    <g id="sprite9" transform="matrix(1.0, 0.0, 0.0, 1.0, 0.0, 0.0)">
      <use height="0.8" transform="matrix(0.9804, 0.0, 0.0, 1.0, 0.001, 0.0)" width="2.55" xlink:href="#shape9"/>
    </g>
    <g id="shape9" transform="matrix(1.0, 0.0, 0.0, 1.0, 0.05, 0.0)">
      <path d="M2.15 0.1 Q2.85 0.25 2.05 0.2 L0.85 0.4 0.1 0.75 Q-0.2 0.9 0.15 0.45 L0.8 0.0 2.15 0.1" fill="#ffffff" fill-rule="evenodd" stroke="none"/>
    </g>
    <g id="sprite10" transform="matrix(1.0, 0.0, 0.0, 1.0, -0.1, 0.0)">
      <use height="8.55" transform="matrix(1.1429, 0.0, 0.0, 1.0936, 0.1143, 0.0)" width="1.4" xlink:href="#shape10"/>
    </g>
    <g id="shape10" transform="matrix(1.0, 0.0, 0.0, 1.0, -0.1, 0.0)">
      <path d="M1.05 5.8 L0.4 0.0 0.6 0.8 Q1.25 4.05 1.5 8.55 1.15 7.85 0.1 7.3 L1.2 7.7 1.05 5.8" fill="#ffffff" fill-rule="evenodd" stroke="none"/>
    </g>
  </defs>
</svg>
