<?xml version="1.0" encoding="UTF-8" standalone="no"?>
<svg xmlns:xlink="http://www.w3.org/1999/xlink" height="400.0px" width="550.0px" xmlns="http://www.w3.org/2000/svg">
  <g transform="matrix(1.0, 0.0, 0.0, 1.0, 0.0, 0.0)">
    <use height="307.85" transform="matrix(1.0, 0.0, 0.0, 1.0, 44.5, 35.5)" width="452.85" xlink:href="#shape0"/>
  </g>
  <defs>
    <g id="shape0" transform="matrix(1.0, 0.0, 0.0, 1.0, -44.5, -35.5)">
      <path d="M356.35 65.5 Q356.35 66.2 355.75 67.0 355.05 68.0 353.85 68.5 352.35 68.0 351.6 67.25 L351.35 65.75 Q351.35 65.2 352.25 64.45 353.1 63.7 353.85 63.5 355.45 64.15 356.35 65.5 M454.35 121.5 Q454.35 122.2 453.75 123.0 453.05 124.0 451.85 124.5 450.35 124.0 449.6 123.25 L449.35 121.75 Q449.35 121.2 450.25 120.45 451.1 119.7 451.85 119.5 453.45 120.15 454.35 121.5 M402.35 260.5 Q402.35 261.2 401.75 262.0 401.05 263.0 399.85 263.5 398.35 263.0 397.6 262.25 L397.35 260.75 Q397.35 260.2 398.25 259.45 399.1 258.7 399.85 258.5 401.45 259.15 402.35 260.5 M497.35 317.5 Q497.35 318.2 496.75 319.0 496.05 320.0 494.85 320.5 493.35 320.0 492.6 319.25 L492.35 317.75 Q492.35 317.2 493.25 316.45 494.1 315.7 494.85 315.5 496.45 316.15 497.35 317.5 M263.35 156.5 Q263.35 157.2 262.75 158.0 L260.85 159.5 Q259.35 159.0 258.6 158.25 L258.35 156.75 Q258.35 156.2 259.25 155.45 260.1 154.7 260.85 154.5 262.45 155.15 263.35 156.5 M49.5 37.5 Q49.5 38.2 48.9 39.0 48.2 40.0 47.0 40.5 45.5 40.0 44.75 39.25 L44.5 37.75 Q44.5 37.2 45.4 36.45 46.25 35.7 47.0 35.5 48.6 36.15 49.5 37.5 M126.35 134.5 Q126.35 135.2 125.75 136.0 125.05 137.0 123.85 137.5 122.35 137.0 121.6 136.25 L121.35 134.75 Q121.35 134.2 122.25 133.45 123.1 132.7 123.85 132.5 125.45 133.15 126.35 134.5 M61.5 233.5 Q61.5 234.2 60.9 235.0 60.2 236.0 59.0 236.5 57.5 236.0 56.75 235.25 L56.5 233.75 Q56.5 233.2 57.4 232.45 58.25 231.7 59.0 231.5 60.6 232.15 61.5 233.5 M124.35 340.5 Q124.35 341.15 123.75 341.95 L121.85 343.35 Q120.35 342.85 119.6 342.25 L119.35 340.75 Q119.35 340.2 120.25 339.45 121.1 338.7 121.85 338.5 123.45 339.15 124.35 340.5 M312.35 205.5 Q312.35 206.2 311.75 207.0 311.05 208.0 309.85 208.5 308.35 208.0 307.6 207.25 L307.35 205.75 Q307.35 205.2 308.25 204.45 309.1 203.7 309.85 203.5 311.45 204.15 312.35 205.5 M254.35 275.5 Q254.35 276.2 253.75 277.0 L251.85 278.5 Q250.35 278.0 249.6 277.25 L249.35 275.75 Q249.35 275.2 250.25 274.45 251.1 273.7 251.85 273.5 253.45 274.15 254.35 275.5" fill="#ffffff" fill-rule="evenodd" stroke="none"/>
    </g>
  </defs>
</svg>
