<?xml version="1.0" encoding="UTF-8" standalone="no"?>
<svg xmlns:xlink="http://www.w3.org/1999/xlink" height="300.0px" width="150.5px" xmlns="http://www.w3.org/2000/svg">
  <g transform="matrix(1.0, 0.0, 0.0, 1.0, 0.0, 0.0)">
    <use height="300.0" transform="matrix(1.0, 0.0, 0.0, 1.0, -1.5, -0.05)" width="153.5" xlink:href="#shape0"/>
  </g>
  <defs>
    <g id="shape0" transform="matrix(1.0, 0.0, 0.0, 1.0, 1.5, 0.05)">
      <path d="M152.0 -0.05 L152.0 299.95 -1.0 299.95 -1.0 -0.05 152.0 -0.05" fill="url(#gradient0)" fill-rule="evenodd" stroke="none"/>
      <path d="M2.35 299.65 L2.4 299.95 0.05 299.95 0.05 299.65 2.35 299.65" fill="#401313" fill-rule="evenodd" stroke="none"/>
      <path d="M57.4 295.7 L57.4 295.45 57.5 295.55 57.6 295.45 57.6 295.65 57.7 295.8 57.6 295.75 57.4 295.7" fill="#401313" fill-rule="evenodd" stroke="none"/>
      <path d="M108.35 295.8 L108.25 295.75 107.8 295.6 107.9 295.5 107.9 295.25 108.0 295.4 108.1 295.25 108.1 295.5 108.35 295.8" fill="#401313" fill-rule="evenodd" stroke="none"/>
      <path d="M12.95 299.95 L13.25 299.65 16.25 299.65 16.2 299.95 12.95 299.95" fill="#401313" fill-rule="evenodd" stroke="none"/>
      <path d="M105.05 299.95 L105.25 299.5 110.75 299.5 111.0 299.95 105.05 299.95" fill="#401313" fill-rule="evenodd" stroke="none"/>
      <path d="M8.85 299.95 L8.7 299.65 11.5 299.65 11.45 299.95 8.85 299.95" fill="#401313" fill-rule="evenodd" stroke="none"/>
      <path d="M54.6 299.95 L54.85 299.5 60.2 299.5 60.4 299.95 54.6 299.95" fill="#401313" fill-rule="evenodd" stroke="none"/>
      <path d="M132.0 212.5 Q132.95 215.05 132.85 217.95 L132.15 225.3 Q131.75 229.95 132.5 230.55 133.6 231.55 139.8 234.95 L136.4 234.5 133.05 233.7 Q129.55 232.45 129.15 230.25 L129.9 219.4 Q130.3 211.05 126.75 210.2 L121.5 209.0 Q120.65 208.95 119.1 209.45 118.5 209.65 116.4 211.05 114.9 212.05 113.55 211.85 L108.85 210.65 Q105.8 209.6 105.05 208.75 104.3 208.0 104.45 204.75 L104.8 199.95 Q104.95 197.15 102.9 195.85 L100.7 194.65 Q99.15 193.7 98.8 192.85 L98.1 190.6 97.8 189.3 98.35 189.45 99.35 189.85 99.75 191.45 Q100.1 192.9 101.65 193.65 105.4 195.45 105.65 196.6 L105.8 200.4 105.65 204.45 105.75 207.0 Q106.0 208.0 106.95 208.35 L110.3 209.75 Q112.75 210.75 113.8 210.55 L116.65 208.95 Q118.75 207.6 120.55 207.55 L125.45 208.05 Q127.85 208.6 129.5 209.3 131.05 209.95 132.0 212.5" fill="#44526d" fill-rule="evenodd" stroke="none"/>
      <path d="M97.2 162.9 L97.25 167.85 Q97.45 172.9 98.45 173.35 100.45 174.2 103.5 175.95 107.5 178.25 108.55 179.6 109.05 180.2 110.8 184.4 112.2 187.8 113.65 188.2 117.35 189.3 124.7 189.5 127.7 189.6 131.25 191.65 135.15 193.85 136.1 196.5 137.25 199.65 138.55 208.2 139.95 217.65 139.05 220.0 138.2 222.2 135.0 225.25 L131.95 227.85 131.5 224.75 134.45 221.9 Q137.35 218.2 137.3 213.9 137.15 207.05 136.25 202.8 134.95 196.5 131.75 194.0 129.45 192.15 122.0 191.25 114.1 190.3 112.9 189.65 111.1 188.7 110.0 185.5 108.65 181.85 107.7 180.9 106.65 179.95 101.7 177.15 97.25 174.75 96.85 173.6 96.35 172.35 95.85 167.4 L95.5 162.7 97.2 162.9" fill="#44526d" fill-rule="evenodd" stroke="none"/>
      <path d="M149.45 166.05 L151.0 167.15 150.65 173.75 Q149.95 180.65 148.55 182.0 L145.6 184.75 Q144.3 186.1 144.3 187.5 L144.45 193.65 Q144.5 198.5 143.8 200.15 143.1 201.8 140.2 204.15 L137.35 206.15 137.35 203.5 140.2 201.65 Q143.05 199.15 143.2 195.6 L142.9 188.45 Q142.75 185.3 143.65 184.4 144.4 183.65 146.8 181.95 148.85 180.05 149.0 177.65 L149.45 166.05" fill="#44526d" fill-rule="evenodd" stroke="none"/>
      <path d="M101.2 163.85 L101.4 165.95 Q101.8 168.25 102.35 169.05 103.95 171.25 103.5 173.55 103.1 175.2 103.7 177.1 L102.0 175.2 Q102.55 173.7 102.2 172.05 L101.15 170.0 Q100.45 168.9 100.45 168.1 100.45 166.6 99.9 163.65 L101.2 163.85" fill="#44526d" fill-rule="evenodd" stroke="none"/>
      <path d="M105.45 165.0 Q105.7 166.6 106.3 167.65 108.1 170.8 107.85 172.7 L107.1 178.7 106.15 178.4 Q106.9 173.85 106.65 171.8 106.55 170.65 105.65 169.15 L104.6 167.1 104.0 163.95 105.35 163.6 105.45 165.0" fill="#44526d" fill-rule="evenodd" stroke="none"/>
      <path d="M120.85 163.1 L121.55 167.2 Q121.95 170.1 121.85 171.9 L121.3 175.95 120.7 179.35 120.6 182.2 120.35 185.35 Q119.95 187.6 119.95 189.85 L118.4 189.45 118.95 179.9 Q119.2 176.8 118.55 174.6 L117.3 171.65 Q117.0 170.95 115.6 169.85 114.45 168.95 114.2 167.9 L111.95 160.3 112.7 159.75 113.7 163.6 Q114.95 167.65 115.9 168.5 L118.0 170.15 Q118.95 170.9 119.15 171.5 L120.5 174.65 Q121.1 171.3 120.5 168.65 119.6 164.35 119.75 162.35 119.95 160.45 119.75 156.35 L121.45 154.1 Q120.45 161.05 120.85 163.1" fill="#44526d" fill-rule="evenodd" stroke="none"/>
      <path d="M131.9 165.8 Q130.95 169.4 131.0 170.9 L131.3 176.65 Q131.6 180.8 132.45 182.55 134.3 186.6 134.2 188.75 134.05 190.5 133.3 193.15 L131.65 192.75 Q131.65 190.65 130.65 190.15 L129.65 189.7 128.85 188.75 127.8 186.85 127.35 185.75 128.45 186.0 128.8 187.1 Q129.25 188.25 130.0 188.65 L131.75 189.9 132.45 191.25 133.05 190.3 Q133.6 189.0 133.2 187.5 L131.9 184.2 Q131.0 182.1 130.65 180.15 130.2 177.75 130.2 173.4 130.25 169.25 130.65 167.15 L131.75 162.55 132.55 158.5 Q132.7 156.5 132.25 154.75 L133.05 154.0 Q133.55 158.6 133.2 160.85 L131.9 165.8" fill="#44526d" fill-rule="evenodd" stroke="none"/>
      <path d="M108.5 185.0 L108.3 187.35 107.8 191.2 Q107.55 192.3 106.85 192.45 106.1 192.65 106.0 193.1 105.75 194.25 105.65 196.6 L105.15 198.5 Q104.75 196.75 104.75 195.5 104.75 192.35 105.75 191.95 106.5 191.7 106.4 191.15 106.25 190.65 105.3 190.45 104.35 190.25 104.05 188.45 103.85 186.65 105.05 187.3 L105.25 188.1 105.75 189.55 Q106.15 190.45 107.05 189.55 L107.65 185.55 108.5 185.0" fill="#44526d" fill-rule="evenodd" stroke="none"/>
      <path d="M109.65 187.65 L110.65 188.4 110.5 191.35 Q110.4 194.45 110.65 195.4 L111.7 198.55 Q112.55 201.0 112.55 202.65 112.55 205.4 109.9 210.0 L108.35 209.1 108.6 207.0 108.5 206.05 107.95 205.15 Q107.65 204.7 107.75 203.05 L107.95 201.5 108.7 202.4 108.5 203.6 Q108.4 204.95 108.85 205.4 109.65 206.15 109.4 207.85 111.0 206.25 111.25 203.75 111.45 201.9 111.0 199.65 110.55 197.45 109.9 196.75 109.35 196.2 109.45 191.9 L109.65 187.65" fill="#44526d" fill-rule="evenodd" stroke="none"/>
      <path d="M118.05 193.1 Q117.0 194.2 116.85 194.9 L116.8 197.0 Q116.75 198.35 116.35 198.9 115.7 199.85 116.0 201.9 L116.35 203.65 Q116.55 204.95 116.25 206.0 115.75 207.75 115.5 210.75 L114.05 211.25 Q115.85 206.15 115.0 203.0 L113.05 197.4 112.35 196.35 111.5 195.0 Q111.3 194.4 111.2 192.9 L111.15 191.5 111.75 191.65 111.7 192.9 Q111.7 194.2 112.05 194.75 L113.15 196.05 114.05 197.25 114.6 199.4 Q115.85 199.5 116.0 198.15 L116.0 196.05 Q116.0 194.9 116.35 194.4 L117.9 192.15 119.05 192.15 118.05 193.1" fill="#44526d" fill-rule="evenodd" stroke="none"/>
      <path d="M121.45 192.65 L121.85 193.75 120.45 198.65 Q120.4 199.25 120.95 201.05 L121.85 203.65 Q122.4 204.75 121.95 208.1 L120.95 208.0 120.95 204.25 Q120.95 203.25 120.55 201.7 L119.7 199.0 Q119.3 198.05 120.35 195.25 L121.45 192.65" fill="#44526d" fill-rule="evenodd" stroke="none"/>
      <path d="M124.35 192.9 L125.3 194.0 125.55 198.25 Q125.6 198.95 126.55 200.5 L127.85 202.9 Q128.2 204.25 126.55 208.85 L125.55 208.1 124.5 204.65 125.3 205.65 125.9 207.6 Q126.9 205.4 126.65 203.5 L126.05 201.3 124.9 199.25 Q124.25 198.25 124.25 195.5 L124.35 192.9" fill="#44526d" fill-rule="evenodd" stroke="none"/>
      <path d="M117.9 201.45 L118.3 199.5 118.5 200.45 118.5 202.15 Q118.3 203.2 119.3 205.15 L120.7 207.8 119.35 208.1 Q118.25 208.3 119.1 207.5 119.6 207.1 119.15 206.25 L118.1 204.4 Q117.6 203.55 117.9 201.45" fill="#44526d" fill-rule="evenodd" stroke="none"/>
      <path d="M131.65 195.65 L132.25 197.0 132.2 199.1 Q132.15 201.4 132.45 202.5 132.6 203.35 133.3 205.3 L134.2 208.25 Q134.55 210.25 132.55 216.5 L132.25 215.0 133.2 209.35 Q133.4 206.6 131.9 203.5 131.1 201.9 131.3 198.6 L131.65 195.65" fill="#44526d" fill-rule="evenodd" stroke="none"/>
      <path d="M128.95 200.65 Q128.65 199.8 128.65 196.2 L128.7 192.75 129.6 193.5 129.45 196.0 Q129.4 198.95 129.7 200.9 L130.7 204.7 Q131.35 206.7 131.4 207.75 131.45 209.05 130.8 209.7 L130.15 210.1 128.95 209.5 Q130.0 209.35 130.25 208.0 130.4 207.05 129.9 204.35 L128.95 200.65" fill="#44526d" fill-rule="evenodd" stroke="none"/>
      <path d="M135.95 213.5 Q135.7 216.95 134.8 218.25 L133.05 221.35 132.15 223.1 131.65 220.85 133.45 218.6 Q135.3 215.8 135.35 213.0 135.45 210.35 134.85 207.55 L134.3 204.25 134.05 201.6 133.8 200.15 135.0 200.9 135.2 204.15 Q135.45 207.6 135.75 208.75 136.2 210.3 135.95 213.5" fill="#44526d" fill-rule="evenodd" stroke="none"/>
      <path d="M106.55 162.6 L107.6 162.35 Q107.6 164.7 108.1 166.8 108.35 167.9 109.45 170.05 L110.9 173.55 Q111.65 175.9 110.5 184.15 L109.5 182.55 Q110.4 179.05 110.25 176.4 110.1 172.9 108.2 169.8 107.65 168.85 107.1 165.65 L106.55 162.6" fill="#44526d" fill-rule="evenodd" stroke="none"/>
      <path d="M109.2 161.7 L110.15 160.95 111.5 169.05 Q111.75 170.25 112.85 171.75 L114.3 173.9 Q115.0 175.15 114.3 182.05 L114.8 181.3 115.85 180.05 Q116.6 179.4 116.85 175.3 L117.8 175.15 117.4 177.45 116.6 180.8 115.35 182.35 Q114.45 183.3 114.3 184.5 114.2 186.65 113.65 188.2 L112.55 188.15 Q113.8 181.9 113.7 178.4 L113.35 174.8 Q113.1 173.75 112.05 172.3 111.15 171.05 110.1 166.25 L109.2 161.7" fill="#44526d" fill-rule="evenodd" stroke="none"/>
      <path d="M124.0 154.1 L125.3 153.35 124.85 159.25 Q124.4 165.3 124.5 166.3 L125.55 170.5 Q126.5 173.95 126.4 175.4 126.3 177.9 123.85 185.75 123.75 186.5 124.35 190.15 L122.9 190.0 122.9 186.65 Q122.9 185.55 121.6 181.55 121.25 180.45 121.7 179.0 L122.75 176.4 Q123.5 174.65 122.9 173.3 L123.65 172.3 123.75 175.3 Q123.8 176.0 123.25 177.7 L122.25 180.3 Q121.9 181.15 122.7 183.0 L123.5 184.65 Q124.0 181.9 125.15 177.8 125.85 175.3 124.95 172.0 123.75 168.55 123.5 166.9 123.0 163.7 124.0 154.1" fill="#44526d" fill-rule="evenodd" stroke="none"/>
      <path d="M140.95 162.05 Q141.35 171.45 141.05 174.4 L139.5 181.2 Q138.25 186.15 138.25 187.1 L138.8 203.55 137.65 203.95 137.05 195.55 Q136.65 186.75 137.25 184.95 L138.8 179.85 Q139.7 176.6 139.85 174.35 140.15 170.85 140.1 163.5 L140.95 162.05" fill="#44526d" fill-rule="evenodd" stroke="none"/>
      <path d="M137.8 184.9 L137.8 187.0 Q136.1 182.9 135.85 181.05 135.6 179.0 136.5 169.8 136.75 167.3 136.5 165.35 L137.65 166.05 Q137.8 167.15 137.55 169.55 136.85 175.75 136.75 178.65 136.6 181.9 137.8 184.9" fill="#44526d" fill-rule="evenodd" stroke="none"/>
      <path d="M144.9 163.95 L146.3 165.1 Q146.25 170.3 145.75 173.2 L144.75 177.3 142.7 182.25 Q140.85 186.15 140.7 187.15 140.55 188.3 140.85 195.2 L141.2 201.9 140.6 202.5 Q139.9 190.75 139.9 187.5 139.9 185.45 141.1 182.4 L143.25 177.3 Q144.5 174.05 144.9 163.95" fill="#44526d" fill-rule="evenodd" stroke="none"/>
      <path d="M127.8 224.15 Q128.8 224.15 127.55 230.4 L129.05 225.55 Q130.75 220.7 131.35 220.9 132.4 221.2 129.05 230.7 L124.2 231.3 121.55 224.8 Q119.0 218.15 119.65 217.6 120.3 217.05 122.7 222.2 L125.0 227.45 123.9 222.65 Q123.1 217.8 124.2 217.6 125.35 217.4 125.8 223.3 L126.0 229.2 126.5 226.7 Q127.15 224.15 127.8 224.15" fill="#44526d" fill-rule="evenodd" stroke="none"/>
      <path d="M147.25 213.8 Q148.15 210.6 148.8 209.6 149.9 207.85 152.0 207.95 L152.0 299.95 -1.0 299.95 -1.5 266.95 12.25 269.1 Q22.7 270.9 25.05 270.45 28.9 269.7 34.1 267.5 39.35 265.3 43.9 262.45 47.45 260.2 57.8 260.85 L72.45 261.45 Q76.9 260.85 79.0 259.5 L84.7 255.45 Q88.0 253.4 95.55 254.6 102.7 255.7 104.05 254.45 L107.15 251.25 Q108.7 249.85 113.25 248.05 117.75 246.25 119.5 242.65 120.4 240.9 120.4 239.45 118.6 238.75 116.55 237.4 112.5 234.75 111.2 231.8 110.9 231.05 122.15 229.15 135.6 226.85 141.3 223.45 145.3 221.05 147.25 213.8" fill="#44526d" fill-rule="evenodd" stroke="none"/>
      <path d="M81.8 223.45 Q82.3 222.55 83.2 222.25 84.15 222.0 84.95 222.7 85.6 223.25 82.1 234.15 79.0 243.75 79.25 243.25 L82.75 237.05 Q84.9 233.8 85.85 235.3 86.2 235.85 85.65 238.15 L84.1 243.85 77.55 263.95 67.4 262.7 60.8 249.65 57.45 243.6 Q55.3 239.65 56.0 239.2 57.15 238.4 59.45 240.15 L58.05 236.65 Q57.1 234.4 56.55 231.45 55.85 227.8 56.9 227.55 57.9 227.3 58.55 229.3 L59.45 233.35 Q60.1 236.05 64.9 242.3 L64.55 239.7 Q64.25 237.05 64.65 236.65 L66.75 236.45 Q66.95 234.35 66.05 231.05 62.6 218.8 64.0 218.4 64.85 218.2 66.45 222.65 L69.0 231.05 Q70.0 234.3 70.15 241.3 L70.05 247.6 Q71.7 244.15 72.1 241.25 L72.75 235.7 72.65 231.6 Q72.45 229.1 73.05 227.55 73.6 226.15 74.5 226.0 75.6 225.8 75.4 232.0 L76.15 230.6 Q76.95 229.15 77.65 228.9 78.85 228.5 79.75 230.85 L80.5 227.6 Q81.35 224.2 81.8 223.45" fill="#44526d" fill-rule="evenodd" stroke="none"/>
      <path d="M104.35 256.2 Q103.55 255.95 102.5 254.15 101.35 252.2 102.05 251.2 103.05 249.7 104.85 248.95 L104.75 247.45 Q104.8 245.85 105.6 245.2 106.4 244.6 107.75 244.95 L108.9 245.45 109.1 244.35 109.95 242.45 Q111.0 241.05 114.8 241.95 116.05 242.25 115.05 246.15 L113.75 249.95 Q113.15 252.1 111.6 253.9 108.6 257.6 104.35 256.2" fill="#44526d" fill-rule="evenodd" stroke="none"/>
      <path d="M45.2 249.75 Q50.4 248.15 56.65 247.95 62.2 247.8 67.4 249.0 69.95 249.6 71.45 250.2 71.6 251.15 69.85 251.75 L68.1 252.2 68.25 253.65 Q68.65 255.25 69.9 256.2 71.8 257.6 73.25 259.15 75.1 261.05 74.75 261.7 74.25 262.7 37.25 264.95 L46.7 257.45 47.8 257.0 50.25 255.2 Q51.2 254.3 45.9 253.75 40.25 253.15 40.35 252.45 40.55 251.2 45.2 249.75" fill="#44526d" fill-rule="evenodd" stroke="none"/>
      <path d="M8.95 264.2 Q9.65 261.95 20.2 261.95 26.55 261.95 33.7 263.95 L36.25 272.45 22.35 273.8 6.65 274.95 Q5.1 274.8 7.75 272.9 10.05 271.3 13.05 269.95 15.6 268.8 16.9 267.6 18.3 266.3 17.4 265.95 L12.5 265.55 Q8.65 265.25 8.95 264.2" fill="#44526d" fill-rule="evenodd" stroke="none"/>
      <path d="M23.45 260.85 Q25.6 258.0 27.45 258.75 28.65 259.2 30.3 260.85 30.05 259.75 30.1 258.55 30.15 256.2 31.45 255.9 L34.45 255.8 Q35.9 256.1 36.4 257.1 37.1 258.5 37.1 259.9 L37.45 258.95 Q38.05 258.0 38.75 258.0 39.65 258.0 40.55 258.5 41.4 259.0 41.55 259.65 L41.8 262.0 43.0 260.95 Q44.25 260.0 44.85 260.6 45.8 261.55 47.45 264.35 L34.5 270.95 26.95 265.75 24.65 264.0 Q22.6 262.0 23.45 260.85" fill="#44526d" fill-rule="evenodd" stroke="none"/>
      <path d="M119.35 227.45 L118.95 226.1 Q118.65 224.65 119.1 224.2 L121.55 224.1 Q123.45 224.6 125.0 225.7 126.25 226.65 125.25 230.65 L123.95 234.45 119.7 235.1 Q115.25 235.2 114.25 232.7 114.0 232.05 115.3 231.55 115.9 231.3 116.55 231.2 L114.0 228.7 Q113.15 228.05 113.9 226.75 114.55 225.7 115.55 224.95 116.55 224.2 119.35 227.45" fill="#44526d" fill-rule="evenodd" stroke="none"/>
      <path d="M150.75 221.45 L139.7 224.7 139.85 221.7 Q140.2 218.5 140.9 217.65 141.65 216.8 142.85 219.05 L143.7 221.0 142.6 216.95 Q141.6 212.35 143.05 212.15 144.45 211.9 144.8 215.65 L144.85 215.85 145.95 215.75 Q147.4 216.3 147.35 218.95 L147.1 221.1 147.4 220.05 Q148.0 218.55 148.8 218.35 150.0 218.0 150.75 221.45" fill="#44526d" fill-rule="evenodd" stroke="none"/>
      <path d="M88.55 256.25 L81.85 261.25 81.4 253.8 Q81.0 246.25 81.6 245.6 82.15 245.0 82.8 249.4 L83.35 253.95 84.25 249.6 Q85.25 245.25 86.05 245.25 86.95 245.25 86.4 249.1 L85.6 252.95 86.6 250.7 Q87.7 248.5 88.55 248.95 89.4 249.35 89.1 252.85 L88.55 256.25" fill="#44526d" fill-rule="evenodd" stroke="none"/>
    </g>
    <linearGradient gradientTransform="matrix(0.0, -0.1815, -0.1851, 0.0, 75.5, 146.65)" gradientUnits="userSpaceOnUse" id="gradient0" spreadMethod="pad" x1="-819.2" x2="819.2">
      <stop offset="0.0" stop-color="#405380"/>
      <stop offset="0.6235294117647059" stop-color="#6db1d9"/>
      <stop offset="1.0" stop-color="#80e1ff"/>
    </linearGradient>
  </defs>
</svg>
