<?xml version="1.0" encoding="UTF-8" standalone="no"?>
<svg xmlns:xlink="http://www.w3.org/1999/xlink" height="31.75px" width="44.0px" xmlns="http://www.w3.org/2000/svg">
  <g transform="matrix(1.0, 0.0, 0.0, 1.0, 0.0, 0.0)">
    <use height="3.8" transform="matrix(1.0, 0.0, 0.0, 1.0, 11.5, 27.95)" width="19.25" xlink:href="#shape0"/>
  </g>
  <defs>
    <g id="shape0" transform="matrix(1.0, 0.0, 0.0, 1.0, -11.5, -27.95)">
      <path d="M11.55 30.25 L11.55 30.15 Q12.6 31.2 15.0 31.0 L18.95 31.15 22.85 30.05 26.9 29.35 Q29.55 29.2 30.6 30.3 L30.75 30.4 30.4 31.1 Q29.6 31.75 28.0 31.75 L26.65 31.5 26.45 31.1 29.1 31.3 29.35 31.1 29.3 30.8 29.3 30.75 29.35 30.75 29.95 30.4 28.5 29.95 25.85 29.85 23.5 30.45 20.6 31.15 16.4 31.55 Q11.85 31.55 11.55 30.25" fill="#bab293" fill-rule="evenodd" stroke="none"/>
      <path d="M30.75 30.4 L30.6 30.3 Q29.55 29.2 26.9 29.35 L22.85 30.05 18.95 31.15 15.0 31.0 Q12.6 31.2 11.55 30.15 L11.55 30.25 Q11.25 29.05 13.4 28.0 13.75 27.85 13.95 28.15 14.15 28.55 13.8 28.7 L12.7 29.45 Q12.25 29.85 12.3 30.05 L12.9 30.4 16.4 30.75 Q19.6 30.75 23.25 29.65 L25.75 29.05 28.65 29.15 Q30.55 29.5 30.75 30.25 L30.75 30.4 M29.3 30.8 L29.35 31.1 29.1 31.3 26.45 31.1 26.65 31.5 Q26.3 31.35 26.5 30.95 26.65 30.65 27.0 30.8 27.85 31.2 29.3 30.8" fill="#e2dab9" fill-rule="evenodd" stroke="none"/>
    </g>
  </defs>
</svg>
