<?xml version="1.0" encoding="UTF-8" standalone="no"?>
<svg xmlns:xlink="http://www.w3.org/1999/xlink" height="50.0px" width="50.0px" xmlns="http://www.w3.org/2000/svg">
  <g transform="matrix(1.0, 0.0, 0.0, 1.0, 0.0, 0.0)">
    <use height="7.6" transform="matrix(1.0, 0.0, 0.0, 1.0, 18.35, 42.7)" width="13.3" xlink:href="#shape0"/>
  </g>
  <defs>
    <g id="shape0" transform="matrix(1.0, 0.0, 0.0, 1.0, -18.35, -42.7)">
      <path d="M22.7 43.25 L23.15 43.05 Q23.85 42.55 24.9 42.8 L30.75 44.3 Q31.2 44.4 31.25 44.6 31.8 44.85 31.55 45.55 L31.0 46.5 27.0 49.95 Q26.2 50.55 25.2 50.15 L19.05 48.15 Q18.55 48.0 18.4 47.25 18.2 46.45 18.75 46.05 L18.9 45.9 22.7 43.25" fill="#cf8152" fill-rule="evenodd" stroke="none"/>
      <path d="M23.05 46.9 Q22.0 47.15 21.75 47.5 L21.65 48.05 21.95 49.1 20.6 48.65 Q20.55 47.5 20.8 47.1 21.05 46.7 23.45 46.0 L28.6 44.9 31.2 44.5 31.25 44.6 Q31.85 44.85 31.55 45.6 31.55 45.25 30.55 45.35 L27.3 46.25 25.5 46.5 23.05 46.9" fill="#e2d7c8" fill-rule="evenodd" stroke="none"/>
      <path d="M25.35 43.65 Q26.15 43.3 25.9 43.05 L27.95 43.6 26.5 44.05 Q25.0 44.7 23.45 44.7 L22.25 44.6 22.3 44.25 Q22.45 44.0 21.55 44.1 L22.55 43.35 22.8 43.4 Q23.7 43.35 23.7 43.6 23.65 43.9 23.95 43.95 L25.35 43.65" fill="#e2d7c8" fill-rule="evenodd" stroke="none"/>
      <path d="M20.1 47.1 Q19.9 47.5 20.0 48.45 L19.05 48.15 Q18.55 48.0 18.4 47.25 18.2 46.45 18.75 46.05 L18.9 45.9 19.75 45.35 21.15 44.8 21.35 44.9 21.1 45.3 Q20.95 45.65 21.7 45.65 L23.35 45.35 27.55 44.25 30.0 44.1 30.75 44.3 27.65 44.65 26.35 44.8 25.15 45.2 22.1 46.0 Q20.4 46.35 20.1 47.1" fill="#e2d7c8" fill-rule="evenodd" stroke="none"/>
      <path d="M22.3 44.25 L22.25 44.6 23.45 44.7 Q25.0 44.7 26.5 44.05 L27.95 43.6 30.0 44.1 27.55 44.25 23.35 45.35 21.7 45.65 Q20.95 45.65 21.1 45.3 L21.35 44.9 21.15 44.8 19.75 45.35 21.55 44.1 Q22.45 44.0 22.3 44.25" fill="#a7bba7" fill-rule="evenodd" stroke="none"/>
      <path d="M22.75 49.35 Q22.5 48.25 23.25 47.9 L25.3 47.55 27.1 47.2 29.0 46.95 Q29.7 46.95 30.05 47.3 L29.1 48.1 Q28.8 47.8 28.2 47.8 L25.6 48.2 Q24.8 48.55 24.55 48.8 24.25 49.1 24.4 49.5 L24.7 50.0 22.75 49.35" fill="#a28668" fill-rule="evenodd" stroke="none"/>
      <path d="M24.9 42.8 L25.9 43.05 Q26.15 43.3 25.35 43.65 L23.95 43.95 Q23.65 43.9 23.7 43.6 23.7 43.35 22.8 43.4 L22.55 43.35 22.7 43.25 23.15 43.05 Q23.85 42.55 24.9 42.8" fill="#a28668" fill-rule="evenodd" stroke="none"/>
      <path d="M22.7 43.25 L23.15 43.05 Q23.85 42.55 24.9 42.8 L30.75 44.3 Q31.2 44.4 31.25 44.6 31.8 44.85 31.55 45.55 L31.0 46.5 27.0 49.95 Q26.2 50.55 25.2 50.15 L19.05 48.15 Q18.55 48.0 18.4 47.25 18.2 46.45 18.75 46.05 L18.9 45.9 22.7 43.25" fill="url(#gradient0)" fill-rule="evenodd" stroke="none"/>
      <path d="M22.7 43.25 L23.15 43.05 Q23.85 42.55 24.9 42.8 L30.75 44.3 Q31.2 44.4 31.25 44.6 31.8 44.85 31.55 45.55 L31.0 46.5 27.0 49.95 Q26.2 50.55 25.2 50.15 L19.05 48.15 Q18.55 48.0 18.4 47.25 18.2 46.45 18.75 46.05 L18.9 45.9 22.7 43.25" fill="url(#gradient1)" fill-rule="evenodd" stroke="none"/>
      <path d="M22.7 43.25 L23.15 43.05 Q23.85 42.55 24.9 42.8 L30.75 44.3 31.0 44.4 28.3 46.8 25.65 48.7 Q25.3 48.8 22.1 47.7 L18.6 46.4 18.5 46.35 18.75 46.05 18.9 45.9 22.7 43.25" fill="url(#gradient2)" fill-rule="evenodd" stroke="none"/>
      <path d="M22.7 43.25 L23.15 43.05 Q23.85 42.55 24.9 42.8 L30.75 44.3 31.0 44.4 30.9 44.55 25.05 43.1 Q24.0 42.75 23.25 43.3 L22.8 43.55 18.9 46.2 18.75 46.35 18.75 46.4 18.65 46.45 18.6 46.4 18.5 46.35 18.75 46.05 18.9 45.9 22.7 43.25" fill="url(#gradient3)" fill-rule="evenodd" stroke="none"/>
      <path d="M26.05 48.85 L23.7 48.35 Q17.75 46.65 18.85 46.65 L26.05 48.85" fill="url(#gradient4)" fill-rule="evenodd" stroke="none"/>
      <path d="M25.95 48.8 L30.9 44.65 Q31.85 44.3 27.55 47.7 L25.95 48.8" fill="url(#gradient5)" fill-rule="evenodd" stroke="none"/>
    </g>
    <linearGradient gradientTransform="matrix(7.0E-4, -0.002, -0.002, -7.0E-4, 24.0, 48.8)" gradientUnits="userSpaceOnUse" id="gradient0" spreadMethod="pad" x1="-819.2" x2="819.2">
      <stop offset="0.0" stop-color="#000000" stop-opacity="0.8862745"/>
      <stop offset="0.5686274509803921" stop-color="#000000" stop-opacity="0.0"/>
    </linearGradient>
    <linearGradient gradientTransform="matrix(-0.0013, -0.0017, -0.0017, 0.0013, 26.65, 48.45)" gradientUnits="userSpaceOnUse" id="gradient1" spreadMethod="pad" x1="-819.2" x2="819.2">
      <stop offset="0.0" stop-color="#000000" stop-opacity="0.8862745"/>
      <stop offset="0.5686274509803921" stop-color="#000000" stop-opacity="0.0"/>
    </linearGradient>
    <linearGradient gradientTransform="matrix(8.0E-4, 0.0032, 0.0032, -8.0E-4, 24.8, 45.5)" gradientUnits="userSpaceOnUse" id="gradient2" spreadMethod="pad" x1="-819.2" x2="819.2">
      <stop offset="0.0" stop-color="#ffffff" stop-opacity="0.29803923"/>
      <stop offset="0.5686274509803921" stop-color="#ffffff" stop-opacity="0.09803922"/>
    </linearGradient>
    <linearGradient gradientTransform="matrix(5.0E-4, 0.0018, 0.0018, -5.0E-4, 24.45, 44.3)" gradientUnits="userSpaceOnUse" id="gradient3" spreadMethod="pad" x1="-819.2" x2="819.2">
      <stop offset="0.0" stop-color="#ffffff" stop-opacity="0.7490196"/>
      <stop offset="0.5686274509803921" stop-color="#ffffff" stop-opacity="0.09803922"/>
    </linearGradient>
    <linearGradient gradientTransform="matrix(5.0E-4, 0.002, 0.002, -5.0E-4, 22.35, 47.6)" gradientUnits="userSpaceOnUse" id="gradient4" spreadMethod="pad" x1="-819.2" x2="819.2">
      <stop offset="0.0" stop-color="#ffffff"/>
      <stop offset="0.5686274509803921" stop-color="#ffffff" stop-opacity="0.3882353"/>
    </linearGradient>
    <linearGradient gradientTransform="matrix(-0.0011, -0.0011, 0.002, -5.0E-4, 28.5, 46.6)" gradientUnits="userSpaceOnUse" id="gradient5" spreadMethod="pad" x1="-819.2" x2="819.2">
      <stop offset="0.0" stop-color="#ffffff"/>
      <stop offset="0.5686274509803921" stop-color="#ffffff" stop-opacity="0.3882353"/>
    </linearGradient>
  </defs>
</svg>
