<?xml version="1.0" encoding="UTF-8" standalone="no"?>
<svg xmlns:xlink="http://www.w3.org/1999/xlink" height="208.1px" width="129.95px" xmlns="http://www.w3.org/2000/svg">
  <g transform="matrix(1.0, 0.0, 0.0, 1.0, 0.0, 0.0)">
    <use height="208.1" transform="matrix(1.0, 0.0, 0.0, 1.0, 0.0, 0.0)" width="129.95" xlink:href="#shape0"/>
  </g>
  <defs>
    <g id="shape0" transform="matrix(1.0, 0.0, 0.0, 1.0, 0.0, 0.0)">
      <path d="M13.3 34.7 L12.85 38.2 Q12.25 42.25 11.35 44.65 L8.15 51.75 Q6.15 57.0 7.05 62.0 L9.1 73.0 9.65 76.55 Q8.9 77.0 8.0 77.05 6.45 77.15 5.55 76.05 5.2 75.7 5.0 74.4 4.85 73.35 4.05 73.0 L3.85 74.5 3.8 74.05 Q3.25 68.7 3.35 66.85 L3.45 57.0 Q3.7 51.25 5.05 47.6 L7.4 41.7 9.1 37.55 Q10.25 36.35 13.0 34.85 L13.3 34.7 M11.6 88.15 L11.85 92.55 Q11.85 96.95 10.6 106.3 9.5 114.3 9.0 116.25 L8.45 117.1 7.5 117.2 Q6.5 117.05 6.05 116.35 L6.35 118.95 6.6 119.9 5.65 120.05 Q5.55 122.6 6.75 126.25 8.3 130.95 8.5 132.3 L8.95 137.4 9.2 142.5 Q9.9 149.4 6.55 149.05 6.25 150.3 7.4 152.2 8.7 154.3 8.7 155.35 L8.1 158.6 8.5 159.65 6.85 156.4 Q4.8 153.25 4.45 151.7 4.0 149.6 4.35 146.6 L4.75 141.4 4.55 135.25 4.45 129.1 Q4.5 126.7 5.2 122.65 L6.05 116.35 Q6.3 113.25 5.0 108.6 3.45 103.0 3.3 101.0 2.85 95.1 2.9 91.05 2.95 85.8 3.8 81.1 L4.0 79.8 Q4.4 82.8 5.25 84.15 6.3 85.75 7.15 86.15 L9.6 86.95 Q11.05 87.45 11.6 88.15" fill="#272119" fill-rule="evenodd" stroke="none"/>
      <path d="M26.15 23.0 Q22.55 24.3 19.65 27.35 18.3 28.75 16.65 31.25 L13.3 34.6 13.3 34.7 13.0 34.85 Q10.25 36.35 9.1 37.55 L9.05 37.6 9.7 35.85 Q10.3 34.0 12.3 31.35 L15.3 27.15 17.45 23.0 16.35 25.3 18.4 23.95 19.4 22.4 Q19.9 21.25 20.25 20.85 21.7 19.15 22.25 20.0 22.6 20.55 22.8 22.95 L26.15 23.0 M9.65 76.55 Q9.8 78.2 9.6 78.45 8.8 78.45 7.25 77.7 5.7 76.95 5.0 76.95 5.45 78.1 7.5 79.5 9.95 81.2 10.4 81.75 L10.45 81.8 10.75 83.0 11.6 88.15 Q11.05 87.45 9.6 86.95 L7.15 86.15 Q6.3 85.75 5.25 84.15 4.4 82.8 4.0 79.8 L3.95 79.7 4.05 78.5 3.9 74.7 3.85 74.5 4.05 73.0 Q4.85 73.35 5.0 74.4 5.2 75.7 5.55 76.05 6.45 77.15 8.0 77.05 8.9 77.0 9.65 76.55 M6.6 119.9 Q7.2 121.75 8.45 122.25 L10.15 123.85 10.95 124.7 11.15 134.2 Q11.15 145.6 9.95 147.7 L9.05 149.3 8.65 149.45 8.8 149.7 8.0 151.05 Q10.05 157.65 9.9 159.05 L9.75 159.35 9.2 160.0 8.7 160.45 8.5 159.65 8.1 158.6 8.7 155.35 Q8.7 154.3 7.4 152.2 6.25 150.3 6.55 149.05 9.9 149.4 9.2 142.5 L8.95 137.4 8.5 132.3 Q8.3 130.95 6.75 126.25 5.55 122.6 5.65 120.05 L6.6 119.9" fill="#221d16" fill-rule="evenodd" stroke="none"/>
      <path d="M55.45 0.3 Q51.85 0.9 47.25 2.2 L47.05 2.25 47.75 1.95 Q52.0 0.3 55.45 0.3 M36.95 6.1 L35.8 6.8 Q33.0 8.65 30.95 15.6 29.05 22.0 26.15 23.0 L22.8 22.95 Q22.6 20.55 22.25 20.0 21.7 19.15 20.25 20.85 19.9 21.25 19.4 22.4 L18.4 23.95 16.35 25.3 17.45 23.0 18.9 19.95 19.9 17.85 Q21.0 15.7 22.15 14.1 L24.35 11.45 Q26.9 9.1 32.05 7.55 L36.95 6.1 M9.6 78.45 L10.45 81.8 10.4 81.75 Q9.95 81.2 7.5 79.5 5.45 78.1 5.0 76.95 5.7 76.95 7.25 77.7 8.8 78.45 9.6 78.45 M8.45 122.25 L8.95 122.45 10.9 123.25 10.95 124.7 10.15 123.85 8.45 122.25 M9.05 149.3 L8.8 149.7 8.65 149.45 9.05 149.3 M9.75 159.35 L12.4 160.35 12.2 161.85 11.2 161.65 8.8 161.2 8.75 161.2 8.65 160.45 8.7 160.45 9.2 160.0 9.75 159.35" fill="#1b1711" fill-rule="evenodd" stroke="none"/>
      <path d="M55.65 0.5 L54.6 0.75 51.35 1.7 50.85 1.85 50.6 1.95 48.05 3.05 47.8 3.2 Q40.1 7.1 33.45 16.1 L33.05 16.7 32.6 17.3 32.55 17.4 25.7 28.75 Q21.7 35.85 16.95 45.55 14.3 50.35 13.6 56.0 13.1 60.0 13.45 67.05 13.8 74.15 15.3 89.5 16.25 103.2 14.65 111.95 12.8 122.3 13.25 131.8 L13.6 139.45 13.85 144.75 Q14.05 148.9 13.2 154.75 L12.75 157.9 12.65 158.55 12.4 160.35 9.75 159.35 9.9 159.05 Q10.05 157.65 8.0 151.05 L8.8 149.7 9.05 149.3 9.95 147.7 Q11.15 145.6 11.15 134.2 L10.95 124.7 10.9 123.25 8.95 122.45 8.45 122.25 Q7.2 121.75 6.6 119.9 L6.35 118.95 6.05 116.35 Q6.5 117.05 7.5 117.2 L8.45 117.1 9.0 116.25 Q9.5 114.3 10.6 106.3 11.85 96.95 11.85 92.55 L11.6 88.15 10.75 83.0 10.45 81.8 9.6 78.45 Q9.8 78.2 9.65 76.55 L9.1 73.0 7.05 62.0 Q6.15 57.0 8.15 51.75 L11.35 44.65 Q12.25 42.25 12.85 38.2 L13.3 34.7 13.3 34.6 16.65 31.25 Q18.3 28.75 19.65 27.35 22.55 24.3 26.15 23.0 29.05 22.0 30.95 15.6 33.0 8.65 35.8 6.8 L36.95 6.1 Q40.5 4.1 47.05 2.25 L47.25 2.2 Q51.85 0.9 55.45 0.3 L55.65 0.5" fill="#16130e" fill-rule="evenodd" stroke="none"/>
      <path d="M93.05 12.5 L92.35 12.25 91.7 12.05 90.95 11.75 90.95 11.8 90.85 11.75 89.85 11.35 93.05 12.5 M39.4 53.0 L39.45 52.15 Q39.85 47.75 39.65 40.85 L39.75 41.05 39.6 39.25 39.45 36.65 Q38.95 27.05 39.0 22.7 39.65 18.7 41.4 15.55 L42.4 13.15 Q42.8 12.1 44.0 11.3 45.25 10.5 48.05 10.4 50.8 12.55 50.5 18.3 50.35 21.5 49.6 27.4 49.6 34.35 49.15 38.5 48.15 47.45 45.3 42.95 46.0 46.3 48.15 45.1 49.85 44.1 50.95 41.85 51.9 39.85 51.95 36.6 L51.7 31.1 51.15 25.0 Q50.8 21.2 51.05 18.9 L51.95 9.9 52.0 9.9 54.9 9.5 Q56.0 9.4 57.45 11.05 L57.5 11.3 56.9 16.9 Q56.25 19.55 54.35 21.85 57.65 22.15 58.8 13.7 60.0 16.9 60.0 23.35 L59.9 32.55 Q60.4 42.6 61.0 50.6 L61.3 50.45 Q63.4 50.15 65.6 50.95 66.4 51.2 67.2 51.65 L66.5 44.95 64.8 31.2 Q64.15 24.85 64.6 18.5 L65.1 14.0 Q66.4 13.3 67.05 10.15 68.85 12.05 70.85 12.35 73.25 12.7 74.35 10.15 L75.15 14.9 Q75.65 17.7 76.35 19.5 L76.85 16.3 Q77.1 14.2 77.5 13.15 L79.15 13.25 Q82.9 15.9 83.3 17.1 83.8 18.55 83.85 22.1 83.9 25.8 84.3 27.25 L84.35 27.05 84.45 28.1 85.25 37.3 82.75 42.65 Q83.55 44.2 82.0 48.5 80.5 52.5 81.65 53.9 84.2 56.95 85.05 47.95 85.5 43.35 85.45 40.05 L85.6 42.5 Q86.05 51.0 85.75 54.65 85.0 63.7 80.75 57.65 80.35 59.3 81.7 61.25 L81.1 65.5 80.15 70.2 Q79.7 67.5 78.85 64.9 L79.0 62.45 79.5 50.3 80.55 47.5 Q81.4 44.3 81.4 40.95 81.4 36.2 80.75 29.55 L79.6 18.25 79.35 22.0 79.35 19.5 77.2 29.35 77.05 27.35 Q76.75 22.6 77.15 19.95 L74.7 20.7 74.95 31.55 Q75.05 38.15 75.55 42.35 76.7 41.95 77.05 39.05 L77.05 38.8 Q78.6 36.5 79.1 30.25 L79.3 25.75 79.45 32.45 Q79.45 37.85 78.7 41.55 L77.65 47.1 Q77.15 50.25 77.35 52.75 L77.6 52.65 Q77.1 55.8 77.15 60.7 L76.25 59.15 76.15 57.65 75.5 48.75 74.75 52.55 Q74.45 54.65 74.3 56.95 L74.1 56.8 73.55 56.3 73.45 55.05 Q72.65 48.3 72.55 46.35 L71.5 50.85 71.7 54.65 72.3 55.15 72.4 55.2 73.0 55.85 70.65 54.15 Q67.85 52.35 65.25 52.75 63.55 53.0 61.75 54.05 L61.25 53.95 59.05 54.0 57.85 54.2 56.5 54.6 55.2 55.15 53.5 56.25 53.2 56.55 Q52.55 57.15 51.85 58.25 L50.7 59.0 49.75 59.55 49.55 59.7 48.2 61.2 48.3 60.85 47.75 61.45 48.75 59.4 Q48.0 60.6 47.6 61.85 L47.6 61.35 46.95 49.0 46.45 51.5 46.9 61.6 Q46.55 68.3 43.05 69.8 L44.9 69.65 44.35 71.65 43.8 77.45 43.8 77.5 43.8 78.85 44.0 80.65 Q43.85 82.35 44.05 83.7 L44.75 83.65 45.6 85.7 44.5 87.55 Q44.0 90.15 45.45 91.75 46.55 90.55 47.2 88.65 L48.7 90.85 48.8 92.3 49.35 103.35 Q50.3 102.45 50.8 100.95 L50.8 100.9 Q51.4 99.0 51.25 96.15 L50.95 93.4 Q51.95 94.4 53.1 95.25 L53.2 96.65 Q53.25 103.5 51.35 106.2 51.05 105.1 50.9 103.15 L50.8 100.95 50.8 105.7 Q51.0 108.75 52.0 110.2 L51.5 110.35 Q51.0 110.5 50.7 111.45 50.35 112.4 51.0 115.05 54.35 115.9 54.45 106.3 54.35 108.05 53.1 109.4 55.25 106.15 55.0 96.5 L56.35 97.2 56.55 104.65 56.95 99.0 56.75 97.35 Q59.9 98.7 63.35 98.85 63.25 101.6 63.45 103.2 62.8 106.2 62.2 111.7 L61.15 119.75 Q59.9 126.7 59.5 130.6 58.85 136.5 59.1 141.55 59.7 151.85 58.9 165.5 L58.15 162.5 Q56.4 168.55 54.3 172.0 L53.8 160.6 Q53.35 153.0 53.25 149.25 52.05 153.7 52.45 163.5 52.8 172.9 51.35 177.3 L49.95 176.7 Q48.8 176.25 48.35 175.65 44.3 176.85 44.05 179.45 43.8 181.85 46.7 185.75 43.0 186.95 41.0 184.3 L40.9 183.25 40.8 182.4 41.1 183.15 Q42.1 182.9 42.15 177.65 L42.0 171.05 40.85 172.35 40.35 177.75 Q40.25 179.6 40.5 181.0 L40.1 180.05 39.75 181.5 Q39.4 180.0 39.55 178.2 L38.95 180.4 37.65 183.05 36.25 181.3 Q36.0 180.95 35.7 179.6 L35.2 178.25 36.15 175.9 39.45 163.4 Q41.0 156.65 41.6 144.2 L42.2 133.65 42.4 130.0 Q43.2 126.05 43.35 121.4 44.4 119.05 44.8 115.7 44.35 117.85 43.35 119.0 L43.1 114.05 Q41.8 102.55 41.5 96.3 L41.05 87.05 40.95 85.8 39.55 57.2 39.5 57.95 39.4 53.0 M91.85 69.9 L91.9 66.1 Q92.15 46.85 91.65 37.2 91.45 33.9 91.5 27.45 L91.45 19.65 Q94.05 20.0 96.65 21.8 97.75 22.55 98.85 24.15 L100.6 26.5 102.45 28.35 104.2 30.15 Q105.3 32.1 105.75 34.9 106.2 37.65 105.8 40.2 105.7 40.85 104.7 41.8 103.8 42.6 103.9 43.5 104.1 45.2 105.95 47.5 L108.95 50.85 110.65 53.05 Q111.95 61.95 110.85 64.15 110.0 66.0 107.7 66.4 105.3 66.8 104.5 64.55 105.1 68.45 107.05 69.9 109.25 71.55 111.9 68.4 114.1 65.8 113.4 58.85 114.3 61.45 115.3 66.35 L117.15 74.4 Q118.1 77.85 118.8 82.85 L119.95 91.45 Q120.65 95.65 123.45 103.9 125.55 110.05 126.55 113.95 L126.7 116.55 Q123.7 117.85 123.8 120.8 L125.1 126.45 125.85 130.65 Q125.75 132.15 123.55 134.2 L122.6 133.15 121.65 132.1 Q121.7 134.3 120.65 137.55 L119.0 142.7 120.5 141.6 122.1 140.75 Q123.85 145.35 124.15 154.75 L124.15 169.05 Q120.25 168.4 120.35 173.6 L120.7 178.0 Q120.85 180.55 120.45 181.6 L118.7 181.45 118.3 179.7 Q118.05 178.7 118.1 178.2 117.8 180.0 117.9 182.95 L117.95 183.3 118.0 184.4 118.05 184.75 118.0 187.95 Q116.7 184.5 115.8 179.95 L114.45 171.8 Q111.7 176.75 113.45 188.15 115.3 200.0 113.25 204.7 L112.65 203.5 111.85 202.4 111.2 203.25 Q110.65 203.9 110.45 204.35 107.5 202.15 107.0 197.0 106.95 191.1 106.5 188.6 106.1 191.1 106.3 197.85 106.45 204.25 105.8 207.3 L107.0 207.5 Q100.2 206.8 98.0 203.05 97.8 202.7 97.55 201.25 97.3 199.95 97.05 199.7 96.3 199.1 94.35 199.15 L95.35 198.9 Q95.1 197.2 95.45 193.9 L95.8 188.75 95.6 180.45 Q95.8 176.8 95.6 172.5 L95.6 172.4 Q96.5 165.05 96.1 154.8 L95.15 139.0 95.5 122.25 Q95.45 119.65 95.85 116.65 L95.0 113.35 Q95.45 108.5 94.45 100.0 L93.0 87.6 92.1 74.1 91.85 69.9 M113.35 207.55 L116.3 207.25 119.55 206.75 124.85 205.35 Q119.6 207.4 112.2 207.65 L113.35 207.55 M93.9 25.65 L94.2 38.9 Q94.8 56.35 95.8 56.3 97.25 56.2 96.2 41.1 L94.8 24.95 93.9 25.65 M98.85 35.8 Q97.9 38.15 97.65 43.7 97.4 50.0 99.25 50.0 99.25 42.75 98.9 36.75 L98.85 35.8 M81.85 61.45 L83.1 62.9 Q86.55 66.25 86.95 68.4 87.55 71.7 87.3 77.25 87.0 83.95 87.15 86.05 81.4 87.45 80.75 83.45 80.7 84.65 82.3 89.9 83.65 94.35 82.7 95.95 80.85 99.0 78.7 97.65 76.7 96.4 76.2 93.25 76.3 98.05 77.2 100.35 78.65 104.0 82.3 102.8 82.6 99.95 84.95 98.15 L86.55 99.75 86.2 103.05 Q86.0 104.15 86.6 105.1 L87.25 104.65 Q87.45 106.65 88.4 106.95 89.35 107.2 89.85 105.45 L89.9 104.1 90.6 105.3 Q93.65 110.95 88.0 111.05 L88.05 112.75 89.5 112.45 91.05 112.15 91.8 116.2 Q92.4 118.6 93.45 119.75 L93.75 119.05 93.65 126.0 93.65 126.65 93.55 126.9 Q92.3 131.6 89.1 131.35 87.95 134.7 88.3 141.3 L88.65 151.5 87.5 151.6 86.15 151.45 Q85.65 152.4 85.6 153.75 85.55 155.1 85.9 156.25 88.6 156.1 89.15 160.8 89.6 164.15 88.95 167.75 88.7 169.2 87.05 172.25 85.55 175.0 85.5 176.8 L84.3 176.6 83.0 176.35 81.75 178.75 81.4 178.55 81.15 177.8 81.15 178.4 Q78.65 176.45 78.45 169.85 78.65 161.6 78.15 159.05 77.25 160.05 76.25 164.35 75.25 168.9 75.05 173.45 74.55 185.7 80.2 184.2 L80.7 185.75 81.05 187.3 Q79.55 188.85 77.95 189.2 76.0 189.6 75.4 187.65 74.8 189.15 73.3 189.6 71.75 190.05 70.45 188.95 69.05 187.85 68.8 183.55 68.55 188.9 67.3 192.0 L67.3 190.9 67.15 189.75 Q66.2 189.7 64.9 190.2 L64.65 189.9 Q63.05 188.0 62.2 187.7 L61.3 187.5 62.15 181.85 62.8 177.05 63.15 174.15 63.55 169.2 63.5 160.8 63.7 157.45 64.5 148.05 Q65.1 142.7 64.75 134.55 L66.7 118.75 Q68.0 106.75 67.25 98.55 L70.4 97.45 70.35 101.6 70.65 114.05 70.7 119.1 Q70.9 123.35 71.75 123.6 72.75 123.9 72.6 118.4 L72.2 112.25 72.05 96.45 72.95 95.8 74.8 94.15 73.7 108.85 Q73.65 111.95 75.05 119.6 75.9 126.5 73.5 129.85 76.7 130.55 77.1 125.6 77.5 126.95 78.2 127.25 L78.5 124.55 78.3 122.05 78.05 119.9 Q77.6 110.4 75.7 100.8 L75.3 93.6 76.85 91.7 Q77.3 93.65 78.45 93.55 80.0 93.4 79.15 87.4 L79.2 87.15 Q80.4 83.7 80.45 79.4 L80.5 78.55 80.45 78.25 80.5 78.05 81.15 78.6 Q83.35 75.7 82.85 69.8 82.0 64.3 81.85 61.45 M93.8 118.9 L94.4 117.0 94.15 123.3 93.8 118.9 M102.7 49.4 Q103.15 53.85 102.7 55.6 L101.4 59.0 Q100.8 60.85 101.85 62.6 104.25 66.55 103.85 57.9 L103.35 43.15 103.05 43.5 Q102.3 45.3 102.7 49.4 M101.75 36.6 L100.4 35.4 101.3 47.55 Q101.45 56.3 98.45 57.55 101.85 58.35 102.2 48.9 L101.75 36.6 M105.25 58.65 Q105.2 63.3 106.45 63.9 108.65 64.9 108.25 58.6 L107.3 51.2 105.5 52.85 105.25 58.65 M103.0 72.05 L103.5 77.4 103.55 70.75 103.0 72.05 M98.4 69.4 L98.35 76.7 Q98.25 81.15 98.6 83.95 100.9 82.65 100.4 75.25 99.3 67.2 99.15 65.25 L98.4 69.4 M94.3 65.65 Q94.35 69.7 95.25 75.75 L94.55 62.0 94.3 65.65 M95.6 81.95 L95.55 87.05 Q95.6 90.25 96.25 91.85 96.95 91.25 96.85 89.45 L96.55 86.65 Q96.35 82.9 95.25 75.75 L95.6 81.95 M84.55 76.75 L83.5 80.55 Q82.7 82.95 84.5 83.1 85.25 82.0 85.15 80.0 L84.85 76.75 84.55 76.75 M113.9 109.15 L113.65 104.1 112.25 78.6 111.55 77.35 111.9 89.0 112.2 100.65 Q112.55 107.4 112.1 109.3 110.95 113.95 105.85 112.35 106.8 114.65 108.65 114.9 110.3 115.15 112.05 113.55 113.65 112.15 113.9 109.5 L113.75 111.7 111.75 114.1 Q110.35 115.9 110.45 116.65 110.6 117.6 111.5 117.95 L113.2 117.85 Q114.3 117.25 114.65 114.7 L114.95 110.9 Q115.6 106.95 115.45 101.55 L114.9 92.2 113.9 109.15 M105.7 86.4 Q105.9 90.0 105.1 91.8 L103.25 94.35 Q102.25 95.95 103.4 97.4 L105.95 97.45 Q106.65 96.05 106.85 93.7 107.75 83.8 106.05 75.1 L104.95 73.25 105.3 80.9 105.7 86.4 M103.1 86.65 Q102.45 88.9 101.0 90.0 L102.05 90.45 103.25 90.4 103.1 86.65 Q104.1 83.55 103.5 77.4 L103.1 86.65 M108.9 86.75 L108.2 97.6 108.3 102.15 Q108.15 104.2 107.15 106.2 L106.2 107.4 Q105.75 107.95 105.95 108.8 L108.5 108.85 Q109.25 107.95 109.1 105.8 L108.75 102.45 108.9 94.6 Q109.1 89.65 108.9 86.75 M68.1 14.8 Q66.75 20.3 66.9 26.9 L67.45 39.0 69.0 33.5 Q70.1 29.95 70.4 28.05 70.85 25.35 70.0 20.6 69.0 14.9 68.95 13.2 L68.1 14.8 M74.15 18.3 L71.55 27.5 70.75 36.8 Q70.1 42.85 70.1 45.75 73.75 46.1 73.95 33.65 L73.85 24.1 Q73.8 19.8 74.15 18.3 M12.75 157.9 L13.2 154.75 Q14.05 148.9 13.85 144.75 L13.6 139.45 13.8 136.45 13.85 131.45 Q13.8 128.05 13.9 126.4 L14.7 122.2 Q15.2 119.65 14.9 117.9 15.35 118.0 16.05 118.45 19.2 112.8 19.2 102.2 L18.15 84.6 18.3 85.4 Q19.85 85.6 20.55 85.4 20.25 82.9 17.3 74.15 14.85 66.75 15.15 61.9 15.45 57.25 17.35 53.45 L21.9 45.9 Q23.2 43.6 24.25 38.8 25.35 33.8 26.3 32.0 26.6 31.4 28.7 29.95 30.15 28.95 29.75 26.75 31.4 26.25 32.2 24.15 L32.9 20.45 Q33.25 21.25 34.4 22.15 L35.6 36.6 Q36.3 45.3 35.85 50.95 35.55 55.25 33.25 61.35 30.45 68.8 28.45 63.3 28.05 66.8 29.85 68.6 31.8 70.6 34.7 68.05 34.95 70.35 34.7 72.95 L34.6 71.0 32.3 80.85 Q30.1 87.85 27.75 86.05 L27.85 87.95 27.2 86.95 Q26.7 85.95 26.15 83.65 25.9 89.45 30.35 91.4 32.2 92.2 33.65 91.2 35.3 90.05 35.7 86.85 L36.2 92.2 Q36.15 95.4 33.7 95.7 33.4 97.3 33.75 98.7 37.95 96.85 39.4 100.8 40.35 103.45 40.2 109.5 36.45 127.15 35.15 141.7 L34.6 148.05 33.55 154.35 31.4 160.15 Q30.05 163.6 30.0 166.2 29.65 164.95 29.8 162.5 29.95 159.75 29.75 158.6 28.75 160.55 27.8 165.45 26.85 160.9 27.5 151.85 28.2 142.5 27.5 138.2 24.45 147.15 20.95 161.95 20.8 161.8 20.05 161.4 L19.0 160.7 Q16.55 163.25 18.45 165.45 L22.65 169.2 19.75 169.15 17.2 166.35 Q16.8 165.85 15.75 165.25 14.85 164.8 14.45 164.0 13.4 162.1 14.45 157.7 L15.75 151.3 14.25 154.6 12.75 157.9 M54.15 11.85 Q53.4 12.95 53.25 15.9 53.05 18.75 53.55 19.9 55.5 18.35 55.35 15.25 55.15 12.2 53.15 10.65 L54.15 11.85 M44.35 12.1 L44.8 20.95 45.05 29.8 44.95 34.35 Q44.9 37.0 45.1 38.9 47.35 39.7 47.65 34.6 47.75 32.9 47.45 28.2 L46.65 11.65 44.35 12.1 M41.55 27.65 Q42.55 26.85 42.6 23.35 L42.2 16.6 41.65 17.9 Q41.35 18.55 41.25 20.3 L41.0 22.95 40.15 25.25 Q39.7 26.6 40.0 27.65 L41.25 27.8 40.95 28.6 41.1 30.35 41.85 30.05 42.45 32.15 44.15 32.05 Q44.15 27.75 43.45 21.7 43.75 28.65 41.85 30.05 41.5 28.75 41.55 27.65 M52.7 26.35 Q52.3 28.55 52.55 32.25 L52.9 38.3 52.8 42.25 Q52.75 44.55 52.95 46.15 54.1 45.25 54.0 43.05 L53.65 39.45 53.0 26.35 52.7 26.35 M41.55 48.05 L40.55 50.8 Q40.25 51.95 40.3 53.5 L40.45 56.15 40.65 61.45 Q40.75 64.6 41.0 66.7 43.7 64.85 44.35 61.5 44.65 59.75 44.45 55.1 L43.35 33.15 42.05 45.15 Q42.15 46.5 41.55 48.05 M29.5 88.7 L29.4 88.85 29.25 88.8 29.5 88.7 M28.1 33.65 Q27.0 35.15 27.1 37.25 L27.6 40.85 Q28.55 40.5 28.45 37.5 L28.1 33.35 28.1 33.65 M30.0 34.5 L30.45 42.6 Q30.5 47.25 29.8 50.55 L28.15 56.6 Q27.3 60.45 28.25 62.55 30.3 60.85 31.15 56.6 L31.95 49.75 Q32.4 46.15 31.5 40.65 30.3 33.55 30.2 31.65 L30.0 34.5 M23.9 42.65 L23.55 42.05 23.65 45.05 Q24.1 43.8 23.9 42.65 M22.1 47.75 L20.5 50.3 18.95 54.85 Q17.5 60.05 19.75 59.85 21.95 59.7 22.95 54.3 23.65 50.55 23.65 45.05 L22.1 47.75 M20.8 62.25 Q20.6 64.05 21.7 66.5 26.0 67.1 27.15 57.5 27.65 53.2 27.45 44.55 27.2 45.25 25.7 54.8 24.6 61.5 21.5 63.5 L20.8 62.25 M24.65 68.0 Q23.9 68.7 22.35 68.8 22.55 77.65 23.05 81.9 25.85 82.6 26.1 75.75 L25.7 67.05 25.0 65.8 Q25.45 67.2 24.65 68.0 M33.35 69.75 L32.85 70.45 33.05 70.5 Q33.45 70.2 33.35 69.75 L33.6 69.45 33.3 69.5 33.35 69.75 M30.3 72.1 L29.85 75.85 28.75 79.45 Q27.85 81.8 28.05 82.9 29.9 82.45 30.95 77.65 32.35 71.35 32.85 70.45 30.95 70.0 30.3 72.1 M25.35 92.2 L25.85 99.5 Q26.1 103.8 25.65 106.7 L24.65 110.45 Q23.95 112.75 23.95 114.3 26.15 114.8 27.5 111.1 28.5 108.3 28.5 105.55 L28.2 99.3 27.45 96.05 Q26.9 94.0 26.95 92.75 L25.35 92.2 M22.1 89.2 L22.45 96.1 Q22.6 100.1 22.35 103.0 L21.8 107.6 Q21.4 110.5 21.6 112.15 22.8 110.95 23.55 107.6 L24.3 102.4 Q24.5 99.5 24.15 95.0 L23.55 87.6 22.1 89.2 M35.55 89.85 Q35.15 91.05 34.35 91.85 33.4 92.85 32.3 92.9 32.1 93.8 32.55 94.2 L33.9 94.3 Q34.65 94.05 35.0 92.6 L35.55 90.5 35.55 89.85 M56.15 86.35 Q57.65 88.05 59.35 89.2 62.85 91.5 66.95 91.65 70.4 91.75 73.1 90.25 L73.15 90.2 74.4 89.4 72.8 91.85 73.7 91.2 74.5 90.4 73.05 92.7 Q73.7 92.35 74.25 91.7 73.8 92.7 72.65 93.35 L73.2 92.75 Q72.5 92.95 71.05 94.3 69.75 95.55 68.75 95.65 68.15 95.7 67.5 96.05 L66.4 96.7 59.85 96.4 56.45 95.35 56.25 95.25 56.1 95.2 55.75 95.0 55.45 94.85 55.3 94.75 54.4 94.25 53.9 93.95 52.5 92.95 54.45 93.95 53.7 93.15 54.75 93.5 55.7 93.35 55.3 92.7 56.7 92.8 55.25 91.9 56.45 91.9 Q53.55 90.15 52.65 89.4 L53.85 89.7 Q54.65 89.9 55.05 89.7 L53.5 89.15 Q52.45 88.65 52.25 88.1 L53.15 88.2 52.0 86.8 52.55 87.3 Q53.65 88.3 55.75 88.2 L56.15 86.35 M58.5 50.75 Q57.4 44.9 57.25 41.8 L57.0 50.0 Q56.65 50.65 56.55 52.4 L58.65 51.55 58.5 50.75 M48.6 50.75 L48.75 57.95 48.75 59.35 49.65 58.1 49.6 56.85 49.2 50.1 48.6 50.75 M45.65 85.75 L46.15 86.8 45.8 87.15 Q45.55 86.45 45.65 85.75 M72.0 93.9 L72.65 93.35 74.25 92.6 Q72.8 94.2 72.0 93.9 M75.8 103.1 Q76.45 105.9 76.45 110.2 L76.4 114.6 75.8 103.1 M56.1 113.55 L56.0 117.4 55.7 116.25 55.9 115.2 56.1 113.55 M55.6 116.65 Q55.35 119.25 53.75 120.35 L53.0 120.65 Q54.9 118.75 55.6 116.65 M50.95 121.9 Q50.1 123.2 51.15 124.45 52.45 126.0 54.55 124.15 58.7 120.4 58.6 112.4 57.65 103.2 57.65 99.25 56.95 101.75 56.55 105.3 L56.55 104.65 Q55.2 121.65 49.25 119.2 49.7 121.85 50.95 121.9 M44.8 106.6 Q45.1 112.55 44.8 115.7 45.2 113.75 45.1 110.95 L44.8 106.6 M45.3 110.75 L45.05 115.65 Q45.2 119.3 47.25 118.15 48.5 117.45 48.25 112.9 L47.65 107.15 47.2 101.05 46.75 95.0 45.45 100.75 Q45.65 105.75 45.3 110.75 M55.9 133.9 Q56.0 137.1 55.25 148.4 54.7 157.35 55.5 162.85 56.6 160.9 56.9 157.25 L57.1 151.35 56.75 142.95 56.25 134.55 55.9 133.9 M51.5 142.95 Q53.25 141.5 53.85 137.45 54.2 129.5 54.65 127.6 L52.25 130.25 Q52.65 134.55 52.2 137.45 51.45 142.2 48.55 141.95 L48.6 143.65 Q50.2 143.9 51.3 143.1 50.3 144.4 48.95 145.05 49.1 146.05 48.65 147.05 L47.9 148.95 Q47.5 150.5 47.5 153.0 L47.6 157.15 Q47.65 160.1 46.75 162.9 L46.45 163.75 Q46.85 160.9 46.65 156.55 L46.5 148.95 45.4 157.25 45.95 163.35 Q45.75 166.8 42.7 167.45 42.2 167.05 42.05 166.45 42.4 170.3 44.25 168.4 L45.0 167.6 44.65 168.35 Q43.4 171.75 46.35 170.5 47.9 169.9 48.55 167.2 L49.15 163.15 49.4 161.45 49.3 163.95 49.0 166.25 48.35 168.65 Q48.1 169.9 48.5 171.0 51.0 169.2 51.3 164.2 L51.05 156.35 50.75 156.7 Q49.85 157.8 49.6 159.5 50.1 152.9 50.35 151.25 L51.1 147.3 Q51.5 145.1 51.35 143.3 L51.5 142.95 M46.0 124.15 L46.05 126.4 46.65 125.4 46.0 124.15 M49.0 135.2 L49.15 136.65 Q50.75 137.0 50.1 131.55 49.5 126.45 48.5 124.7 L48.45 130.1 48.45 132.6 Q48.3 134.25 48.45 135.1 L49.0 135.2 M44.55 133.5 L44.2 140.6 43.4 147.8 42.9 150.0 Q42.6 151.35 42.7 152.2 45.05 152.3 45.8 142.1 46.3 135.5 46.05 126.4 44.8 128.8 44.55 133.5 M77.95 129.65 Q77.1 132.3 77.65 137.2 L78.4 144.9 78.15 148.6 77.75 151.95 Q77.65 154.15 78.85 154.35 80.55 154.65 80.45 150.8 L79.9 146.15 78.75 123.75 77.95 129.65 M71.45 134.95 Q71.5 138.65 71.05 140.5 L70.45 143.2 Q70.25 144.65 70.45 146.0 72.95 145.6 73.1 138.4 L72.75 130.7 71.75 129.45 Q71.35 131.15 71.45 134.95 M67.5 126.15 Q67.95 133.7 67.5 139.05 L67.15 141.8 Q67.0 143.4 67.2 144.6 L67.8 144.65 Q69.0 141.9 69.35 136.6 69.5 130.75 69.8 128.25 L67.5 126.15 M74.1 146.6 L72.25 149.05 Q71.05 150.2 71.1 151.7 75.0 152.45 75.25 145.4 L74.6 135.7 74.05 137.65 74.5 142.15 Q74.7 145.0 74.1 146.6 M33.2 114.1 Q32.85 117.8 33.85 119.6 36.85 117.7 36.7 110.2 36.55 104.15 35.1 100.3 L34.4 104.75 33.4 112.25 33.4 112.4 33.55 108.6 33.5 105.4 33.35 110.15 Q33.2 107.15 32.4 103.45 L30.3 94.05 Q29.65 96.35 29.8 102.75 29.9 109.2 31.0 110.15 L29.3 109.05 Q29.8 112.05 28.3 114.45 26.65 117.15 23.8 115.85 23.1 118.35 24.65 120.1 26.25 121.85 28.9 121.15 30.55 120.7 31.6 119.1 31.1 120.5 30.45 121.15 29.35 122.2 26.55 122.5 26.55 124.1 27.1 127.0 L27.85 131.55 Q28.35 135.75 30.0 136.9 30.85 135.8 31.25 133.3 L31.75 129.2 Q32.7 123.35 32.55 118.1 L32.55 117.05 33.2 114.1 M18.25 131.9 Q18.0 134.85 19.6 134.8 21.95 134.75 21.85 126.8 L21.25 117.0 19.65 116.45 Q19.95 122.5 18.95 128.05 L18.25 131.9 M16.8 140.55 Q17.4 141.6 17.0 142.7 L16.1 144.75 Q15.8 145.85 15.85 147.4 L15.95 150.0 17.45 145.6 Q17.85 143.55 17.7 140.85 L16.8 140.55 M20.1 144.85 L19.55 139.8 Q19.7 143.95 18.7 148.1 L16.5 155.75 Q15.85 157.75 15.75 159.85 15.6 162.75 16.85 163.35 17.65 160.4 19.45 157.95 20.7 156.3 21.35 154.25 L22.2 150.15 Q22.5 148.45 22.35 144.25 22.2 140.2 22.6 138.3 L21.7 139.25 20.8 140.35 Q20.15 141.45 20.05 142.45 L20.1 144.85 M24.3 132.55 L24.0 129.1 Q24.15 131.45 23.3 133.65 22.4 136.15 20.65 137.25 L19.4 136.65 Q20.0 139.4 21.55 138.5 22.75 137.85 23.7 135.9 24.3 134.6 24.3 132.55 M29.45 140.5 L29.6 140.45 Q30.65 140.15 31.3 139.45 L31.0 140.0 Q30.25 141.1 29.45 140.5 M32.0 138.3 L32.2 137.1 31.5 135.85 Q31.85 137.45 30.5 137.95 L27.95 138.25 Q27.3 140.75 28.95 140.6 28.8 142.25 29.2 143.8 L32.1 143.65 32.0 138.3 M28.8 144.5 Q28.8 146.55 28.1 151.65 27.45 156.25 27.65 158.7 29.7 155.9 30.0 152.2 L29.8 145.1 28.8 144.5 M31.15 147.3 L31.05 152.15 Q30.85 155.2 31.05 157.0 32.35 155.45 32.3 151.8 32.25 146.75 32.35 146.3 L31.15 147.3 M39.45 170.15 Q38.35 171.75 37.8 174.45 L37.1 179.15 Q38.55 179.35 38.9 175.4 39.3 170.8 39.5 170.5 L39.45 170.15 M71.7 156.7 Q70.6 165.0 71.05 175.7 L70.85 181.0 Q70.95 184.95 72.6 185.25 74.4 185.55 74.35 182.4 L73.9 178.0 72.7 154.6 71.7 156.7 M67.6 152.9 L67.55 166.55 Q68.25 159.55 67.9 152.85 L67.6 152.9 M66.6 173.05 L65.8 178.2 Q65.5 181.4 66.25 183.25 67.55 182.25 67.6 179.05 L67.4 174.2 Q67.4 170.4 67.55 166.55 L66.6 173.05 M80.35 172.65 Q80.65 174.7 81.2 175.2 82.3 176.2 82.5 175.3 L82.65 173.45 Q83.15 170.15 82.75 165.0 L82.0 156.5 79.85 157.55 79.85 163.7 Q79.75 167.6 80.05 169.8 L80.35 172.65 M41.4 160.4 Q40.25 165.05 42.0 165.25 43.0 162.9 43.65 159.45 L44.6 153.45 43.1 155.1 41.4 160.4 M118.05 108.25 L118.05 107.7 Q118.15 101.35 117.75 96.85 L116.45 109.05 117.05 117.65 Q116.8 122.9 113.35 123.9 L116.75 123.8 116.45 124.8 Q115.95 127.75 117.9 126.85 119.35 126.2 119.05 121.0 L118.35 114.35 118.05 108.25 M117.5 121.0 L117.6 118.6 118.0 109.6 118.0 110.4 Q118.3 116.75 117.5 121.0 M102.1 120.55 L102.25 128.7 Q102.5 133.85 103.95 136.55 L104.4 135.0 104.35 133.35 104.2 126.05 Q104.0 121.8 103.25 118.9 L102.1 120.55 M83.6 107.3 Q81.9 110.5 82.15 116.9 82.45 123.25 84.3 126.5 85.4 125.75 85.25 123.45 L84.85 119.95 84.4 104.7 83.6 107.3 M89.15 119.65 L88.95 124.9 88.7 127.25 Q88.7 128.65 89.75 129.0 92.3 129.8 92.1 123.8 L91.35 116.2 90.3 114.65 Q89.3 116.45 89.15 119.65 M100.05 110.5 Q99.95 102.1 99.55 97.35 L98.4 99.0 Q98.4 121.65 99.6 133.7 L100.75 133.9 Q101.0 131.95 100.75 128.8 L100.35 123.65 Q100.15 119.95 100.05 110.5 M96.5 141.85 L96.55 153.1 Q96.85 162.8 98.8 163.15 99.5 158.7 98.75 151.4 L97.35 139.6 96.5 141.85 M84.65 128.7 Q82.9 133.9 82.95 139.35 83.0 144.85 84.85 150.0 L84.95 145.5 Q86.0 138.75 84.65 128.7 M112.3 132.35 L112.2 137.5 112.75 135.45 112.25 125.55 Q111.75 126.9 111.95 128.95 L112.3 132.35 M109.8 133.55 L110.25 138.1 Q110.55 141.2 110.1 142.6 L108.65 144.55 Q107.6 145.8 108.1 146.45 109.55 148.4 110.2 145.5 L110.55 142.2 110.55 126.1 109.5 128.2 109.8 133.55 M106.6 127.4 Q109.45 131.35 108.95 137.65 108.4 144.3 104.3 146.05 108.7 149.05 109.3 138.4 109.5 135.5 109.0 124.7 L106.6 127.4 M103.35 138.7 L103.35 138.4 Q102.75 139.3 102.75 140.7 L103.0 143.1 Q103.55 142.25 103.55 141.0 L103.35 138.7 M109.7 151.85 Q109.75 155.45 110.9 157.9 112.1 156.35 111.95 152.8 111.6 148.9 111.6 147.4 L112.2 137.5 Q110.4 144.1 109.95 147.85 L109.7 150.8 107.4 154.9 107.75 165.15 Q107.3 171.9 103.45 172.55 105.85 175.2 107.1 172.25 107.85 170.4 108.05 166.95 L108.55 158.35 Q108.85 155.0 109.7 151.85 M116.9 152.55 L116.85 152.0 Q116.55 146.25 117.4 139.05 117.7 136.35 119.3 126.2 L114.7 147.55 Q115.1 154.8 114.75 160.95 L112.95 161.45 Q111.7 162.0 111.05 161.95 L111.15 163.65 Q113.7 164.3 115.1 162.55 116.0 161.4 116.75 158.55 L117.05 155.8 Q117.35 158.55 117.05 159.75 116.65 161.35 116.05 162.15 L114.25 163.4 Q113.6 164.55 113.95 165.75 L114.85 168.1 Q115.3 169.6 115.75 173.05 116.15 176.35 116.75 178.05 117.85 175.55 118.1 170.45 118.45 164.1 118.75 162.5 119.45 159.1 119.3 154.35 L118.8 146.1 117.15 151.0 Q116.95 151.65 116.9 152.55 M104.15 153.75 L104.3 150.2 Q103.55 152.35 103.45 156.3 L103.25 162.5 102.6 166.6 Q102.3 169.25 103.1 170.55 103.8 170.1 103.85 168.25 L103.8 165.65 103.9 159.7 Q103.95 155.95 104.15 153.75 M101.35 149.35 L100.9 146.5 Q98.3 158.3 101.0 160.95 102.2 159.5 101.95 155.3 L101.35 149.35 M109.85 165.1 L110.1 171.15 110.6 177.2 Q111.7 175.4 111.5 172.05 L110.9 166.65 109.85 165.1 M84.75 159.65 Q84.95 159.05 85.3 158.6 L84.65 158.3 84.75 159.65 Q83.8 162.05 83.7 166.05 83.65 170.2 84.7 171.45 85.6 169.35 85.4 165.7 L84.75 159.65 M98.65 163.9 Q97.8 166.05 97.9 169.7 L98.2 175.6 Q98.25 179.35 97.5 186.7 97.15 192.4 98.15 196.65 100.6 196.55 100.2 183.75 L99.25 169.65 98.65 163.9 M105.25 174.0 Q104.55 174.7 103.4 174.65 103.35 177.65 103.75 181.35 105.3 181.3 105.45 178.3 L105.25 174.0 M107.2 186.3 L107.55 188.0 107.8 195.2 Q108.2 200.85 109.8 200.75 L110.25 190.25 Q110.45 183.95 109.6 179.8 109.1 180.5 108.95 181.8 L108.6 183.75 108.3 184.2 Q108.8 182.3 108.65 178.65 108.45 173.95 108.9 172.15 L105.75 183.9 104.75 185.8 Q104.2 186.55 102.75 186.2 103.6 188.35 105.3 187.75 106.35 187.35 107.2 186.3 M103.15 188.8 Q102.05 190.15 101.7 196.05 101.3 202.35 102.95 203.45 103.6 201.35 103.25 197.4 L102.6 191.05 103.15 188.8 M101.7 204.9 L101.65 204.7 99.6 204.85 101.05 205.8 101.8 206.15 103.1 206.65 102.9 204.0 101.7 204.9" fill="#4f462d" fill-rule="evenodd" stroke="none"/>
      <path d="M91.7 12.05 L92.35 12.25 93.05 12.5 93.7 12.8 91.7 12.05 M90.85 11.75 L90.95 11.8 90.85 11.8 90.85 11.75 M79.75 6.65 L83.1 8.55 83.4 8.7 86.6 10.15 86.75 10.25 Q84.35 9.35 83.0 8.55 L79.75 6.65 M68.4 1.2 L67.4 0.9 67.45 0.9 68.4 1.2 M66.0 0.55 L65.85 0.55 65.45 0.45 66.0 0.55 M25.7 28.75 L23.15 33.65 Q25.7 31.25 27.1 28.8 L30.1 22.85 Q33.4 16.3 35.05 20.35 35.9 22.35 36.6 29.45 37.55 38.35 37.55 48.25 37.55 53.0 36.95 57.3 36.05 63.35 34.25 65.4 38.35 63.15 39.4 53.0 L39.5 57.95 39.05 63.05 Q36.95 66.0 37.35 75.65 37.55 80.85 38.4 89.0 L40.4 104.5 Q41.65 113.95 40.5 119.95 L39.5 126.1 Q39.1 129.2 39.2 132.55 39.3 135.65 38.15 138.95 36.8 142.7 36.65 144.9 36.5 146.9 37.25 151.55 37.95 155.75 37.45 158.15 36.95 160.8 35.35 164.2 33.75 167.5 32.05 169.6 L31.15 168.05 30.35 166.7 Q31.35 171.65 28.3 171.55 25.25 171.45 23.95 167.05 23.3 164.8 23.3 160.8 L23.4 154.45 Q22.8 157.05 22.65 160.7 22.55 164.1 22.85 166.95 22.95 167.85 24.15 170.4 24.9 172.7 23.05 173.35 21.75 173.8 20.7 172.4 19.85 171.2 19.75 169.8 18.95 172.25 19.65 174.5 L14.9 171.4 Q11.5 168.45 11.85 164.55 L11.9 164.3 12.05 163.0 12.2 161.85 12.4 160.35 12.65 158.55 12.75 157.9 14.25 154.6 15.75 151.3 14.45 157.7 Q13.4 162.1 14.45 164.0 14.85 164.8 15.75 165.25 16.8 165.85 17.2 166.35 L19.75 169.15 22.65 169.2 18.45 165.45 Q16.55 163.25 19.0 160.7 L20.05 161.4 Q20.8 161.8 20.95 161.95 24.45 147.15 27.5 138.2 28.2 142.5 27.5 151.85 26.85 160.9 27.8 165.45 28.75 160.55 29.75 158.6 29.95 159.75 29.8 162.5 29.65 164.95 30.0 166.2 30.05 163.6 31.4 160.15 L33.55 154.35 34.6 148.05 35.15 141.7 Q36.45 127.15 40.2 109.5 40.35 103.45 39.4 100.8 37.95 96.85 33.75 98.7 33.4 97.3 33.7 95.7 36.15 95.4 36.2 92.2 L35.7 86.85 Q35.3 90.05 33.65 91.2 32.2 92.2 30.35 91.4 25.9 89.45 26.15 83.65 26.7 85.95 27.2 86.95 L27.85 87.95 Q28.15 89.2 29.25 88.8 L29.4 88.85 29.5 88.7 30.4 88.05 Q33.1 85.8 33.95 83.0 34.75 80.4 34.8 76.5 L34.7 72.95 Q34.95 70.35 34.7 68.05 31.8 70.6 29.85 68.6 28.05 66.8 28.45 63.3 30.45 68.8 33.25 61.35 35.55 55.25 35.85 50.95 36.3 45.3 35.6 36.6 L34.4 22.15 Q33.25 21.25 32.9 20.45 L32.2 24.15 Q31.4 26.25 29.75 26.75 30.15 28.95 28.7 29.95 26.6 31.4 26.3 32.0 25.35 33.8 24.25 38.8 23.2 43.6 21.9 45.9 L17.35 53.45 Q15.45 57.25 15.15 61.9 14.85 66.75 17.3 74.15 20.25 82.9 20.55 85.4 19.85 85.6 18.3 85.4 L18.15 84.6 19.2 102.2 Q19.2 112.8 16.05 118.45 15.35 118.0 14.9 117.9 15.2 119.65 14.7 122.2 L13.9 126.4 Q13.8 128.05 13.85 131.45 L13.8 136.45 13.6 139.45 13.25 131.8 Q12.8 122.3 14.65 111.95 16.25 103.2 15.3 89.5 13.8 74.15 13.45 67.05 13.1 60.0 13.6 56.0 14.3 50.35 16.95 45.55 21.7 35.85 25.7 28.75 M39.65 40.85 L39.6 39.25 39.75 41.05 39.65 40.85 M39.0 22.7 L39.15 20.0 Q40.35 9.9 47.4 7.15 L48.35 9.1 49.3 11.15 50.1 7.35 50.75 3.2 Q55.4 2.3 57.35 3.75 58.8 4.85 59.4 7.6 L60.15 12.45 Q61.8 20.9 62.35 31.15 62.55 35.5 64.0 42.5 L65.6 50.95 Q63.4 50.15 61.3 50.45 L61.0 50.6 Q60.4 42.6 59.9 32.55 L60.0 23.35 Q60.0 16.9 58.8 13.7 57.65 22.15 54.35 21.85 56.25 19.55 56.9 16.9 L57.5 11.3 57.45 11.05 Q56.0 9.4 54.9 9.5 L52.0 9.9 51.95 9.9 51.05 18.9 Q50.8 21.2 51.15 25.0 L51.7 31.1 51.95 36.6 Q51.9 39.85 50.95 41.85 49.85 44.1 48.15 45.1 46.0 46.3 45.3 42.95 48.15 47.45 49.15 38.5 49.6 34.35 49.6 27.4 50.35 21.5 50.5 18.3 50.8 12.55 48.05 10.4 45.25 10.5 44.0 11.3 42.8 12.1 42.4 13.15 L41.4 15.55 Q39.65 18.7 39.0 22.7 M65.1 14.0 Q65.55 10.45 66.35 6.35 68.05 6.1 75.35 10.75 77.55 12.15 79.15 13.25 L77.5 13.15 Q77.1 14.2 76.85 16.3 L76.35 19.5 Q75.65 17.7 75.15 14.9 L74.35 10.15 Q73.25 12.7 70.85 12.35 68.85 12.05 67.05 10.15 66.4 13.3 65.1 14.0 M84.35 27.05 L84.9 22.65 Q85.1 19.45 85.45 18.1 86.65 25.75 87.45 41.65 L88.3 52.0 Q88.2 58.75 84.15 60.35 L85.65 60.25 87.1 60.25 Q87.2 61.75 88.35 67.35 L90.0 76.9 Q91.3 89.05 85.05 90.65 L84.35 89.2 Q83.8 91.5 85.15 92.9 86.5 94.3 88.8 93.8 89.05 96.4 90.55 100.6 L92.95 107.6 92.15 94.85 Q91.65 86.1 91.85 69.9 L92.1 74.1 93.0 87.6 94.45 100.0 Q95.45 108.5 95.0 113.35 L95.85 116.65 Q95.45 119.65 95.5 122.25 L95.15 139.0 94.9 135.0 94.15 123.3 94.4 117.0 93.8 118.9 93.75 118.25 93.75 113.25 Q93.8 110.8 92.95 107.6 L93.75 118.25 93.75 119.05 93.45 119.75 Q92.4 118.6 91.8 116.2 L91.05 112.15 89.5 112.45 88.05 112.75 88.0 111.05 Q93.65 110.95 90.6 105.3 L89.9 104.1 Q89.7 103.05 88.8 102.0 86.85 99.7 86.65 98.9 L86.55 99.75 84.95 98.15 Q82.6 99.95 82.3 102.8 78.65 104.0 77.2 100.35 76.3 98.05 76.2 93.25 76.7 96.4 78.7 97.65 80.85 99.0 82.7 95.95 83.65 94.35 82.3 89.9 80.7 84.65 80.75 83.45 81.4 87.45 87.15 86.05 87.0 83.95 87.3 77.25 87.55 71.7 86.95 68.4 86.55 66.25 83.1 62.9 L81.85 61.45 81.8 60.4 81.7 61.25 Q80.35 59.3 80.75 57.65 85.0 63.7 85.75 54.65 86.05 51.0 85.6 42.5 L85.45 40.05 85.3 37.15 85.25 37.3 84.45 28.1 84.35 27.05 M91.45 19.65 L91.4 17.35 Q94.35 16.95 98.75 19.9 102.65 22.55 104.15 25.05 106.3 28.6 107.15 33.5 107.8 37.25 107.7 42.5 L106.5 43.3 Q107.95 45.2 109.5 44.05 110.8 43.0 111.35 40.7 115.35 48.0 115.8 51.7 115.95 53.3 115.5 56.55 115.05 59.75 115.3 61.7 L116.4 60.55 117.5 59.4 Q118.05 61.95 118.45 71.55 118.75 79.4 120.65 83.35 L122.65 86.55 Q123.65 88.2 123.75 90.15 123.85 91.7 123.05 94.65 122.7 97.1 124.75 97.95 L126.1 109.35 126.55 113.95 Q125.55 110.05 123.45 103.9 120.65 95.65 119.95 91.45 L118.8 82.85 Q118.1 77.85 117.15 74.4 L115.3 66.35 Q114.3 61.45 113.4 58.85 114.1 65.8 111.9 68.4 109.25 71.55 107.05 69.9 105.1 68.45 104.5 64.55 105.3 66.8 107.7 66.4 110.0 66.0 110.85 64.15 111.95 61.95 110.65 53.05 L108.95 50.85 105.95 47.5 Q104.1 45.2 103.9 43.5 103.8 42.6 104.7 41.8 105.7 40.85 105.8 40.2 106.2 37.65 105.75 34.9 105.3 32.1 104.2 30.15 L102.45 28.35 100.6 26.5 98.85 24.15 Q97.75 22.55 96.65 21.8 94.05 20.0 91.45 19.65 M126.7 116.55 L126.75 120.8 Q126.7 124.25 127.95 131.4 129.15 138.6 129.1 142.45 128.05 139.6 126.3 137.55 124.1 143.55 126.75 157.85 129.45 172.25 127.35 178.15 L126.0 178.2 124.75 178.2 Q126.7 181.8 126.45 187.8 126.15 194.1 123.35 196.35 122.9 194.45 122.75 191.1 L122.4 185.85 Q122.2 186.75 122.15 191.05 122.1 194.45 121.15 195.95 119.95 193.65 119.25 188.95 118.4 183.25 117.95 181.8 L117.95 183.3 117.9 182.95 Q117.8 180.0 118.1 178.2 118.05 178.7 118.3 179.7 L118.7 181.45 120.45 181.6 Q120.85 180.55 120.7 178.0 L120.35 173.6 Q120.25 168.4 124.15 169.05 L124.15 154.75 Q123.85 145.35 122.1 140.75 L120.5 141.6 119.0 142.7 120.65 137.55 Q121.7 134.3 121.65 132.1 L122.6 133.15 123.55 134.2 Q125.75 132.15 125.85 130.65 L125.1 126.45 123.8 120.8 Q123.7 117.85 126.7 116.55 M118.05 184.75 Q118.15 186.65 118.6 189.35 119.45 194.45 119.25 197.0 L118.65 201.7 Q118.2 204.6 118.35 206.5 117.85 204.9 117.6 201.35 117.4 198.0 116.7 196.25 115.8 198.0 114.95 201.9 114.0 206.05 113.35 207.55 L112.2 207.65 111.5 207.65 111.35 207.65 110.8 207.65 107.0 207.5 105.8 207.3 Q106.45 204.25 106.3 197.85 106.1 191.1 106.5 188.6 106.95 191.1 107.0 197.0 107.5 202.15 110.45 204.35 110.65 203.9 111.2 203.25 L111.85 202.4 112.65 203.5 113.25 204.7 Q115.3 200.0 113.45 188.15 111.7 176.75 114.45 171.8 L115.8 179.95 Q116.7 184.5 118.0 187.95 L118.05 184.75 M119.55 206.75 L120.95 206.4 125.2 205.2 124.85 205.35 119.55 206.75 M101.75 36.6 L102.2 48.9 Q101.85 58.35 98.45 57.55 101.45 56.3 101.3 47.55 L100.4 35.4 101.75 36.6 M103.0 72.05 L103.55 70.75 103.5 77.4 103.0 72.05 M82.75 96.85 Q81.45 99.3 77.2 97.8 76.95 100.85 79.9 100.0 82.85 99.2 83.35 96.8 L82.75 96.85 M113.9 109.5 Q113.65 112.15 112.05 113.55 110.3 115.15 108.65 114.9 106.8 114.65 105.85 112.35 110.95 113.95 112.1 109.3 112.55 107.4 112.2 100.65 L111.9 89.0 111.55 77.35 112.25 78.6 113.65 104.1 113.9 109.15 113.9 109.3 113.9 109.5 M103.1 86.65 L103.25 90.4 102.05 90.45 101.0 90.0 Q102.45 88.9 103.1 86.65 L103.5 77.4 Q104.1 83.55 103.1 86.65 M77.2 29.35 L79.35 19.5 79.35 22.0 79.25 23.3 79.3 25.75 79.1 30.25 Q78.6 36.5 77.05 38.8 L77.25 34.75 77.2 29.35 M79.5 50.3 L79.0 62.45 78.85 64.9 78.1 62.85 77.15 60.7 Q77.1 55.8 77.6 52.65 78.7 51.9 79.5 50.3 M74.15 18.3 Q73.8 19.8 73.85 24.1 L73.95 33.65 Q73.75 46.1 70.1 45.75 70.1 42.85 70.75 36.8 L71.55 27.5 74.15 18.3 M41.25 27.8 L41.55 27.65 Q41.5 28.75 41.85 30.05 43.75 28.65 43.45 21.7 44.15 27.75 44.15 32.05 L42.45 32.15 41.85 30.05 41.1 30.35 40.95 28.6 41.25 27.8 M33.1 177.75 Q35.65 174.9 37.25 167.1 39.45 156.6 40.1 151.7 L40.75 141.75 Q41.0 135.7 41.95 131.95 L42.4 130.0 42.2 133.65 41.6 144.2 Q41.0 156.65 39.45 163.4 L36.15 175.9 35.2 178.25 35.0 178.05 33.1 177.75 M43.35 121.4 L43.35 119.0 Q44.35 117.85 44.8 115.7 44.4 119.05 43.35 121.4 M41.5 96.3 L41.45 95.9 40.95 85.8 41.05 87.05 41.5 96.3 M20.8 62.25 L21.5 63.5 Q24.6 61.5 25.7 54.8 27.2 45.25 27.45 44.55 27.65 53.2 27.15 57.5 26.0 67.1 21.7 66.5 20.6 64.05 20.8 62.25 M72.3 55.15 L71.7 54.65 71.5 50.85 72.55 46.35 Q72.65 48.3 73.45 55.05 L73.55 56.3 73.0 55.85 72.4 55.2 72.35 54.9 72.3 55.15 M47.6 61.85 L47.55 61.9 45.05 69.15 44.9 69.55 44.9 69.65 43.05 69.8 Q46.55 68.3 46.9 61.6 L46.45 51.5 46.95 49.0 47.6 61.35 47.6 61.85 M45.6 85.7 L45.65 85.75 Q45.55 86.45 45.8 87.15 L46.15 86.8 46.9 88.15 47.2 88.65 Q46.55 90.55 45.45 91.75 44.0 90.15 44.5 87.55 L45.6 85.7 M53.1 95.25 L53.9 95.8 55.0 96.5 Q55.25 106.15 53.1 109.4 L52.75 109.7 52.0 110.2 Q51.0 108.75 50.8 105.7 L50.8 100.95 50.9 103.15 Q51.05 105.1 51.35 106.2 53.25 103.5 53.2 96.65 L53.1 95.25 M56.35 97.2 L56.75 97.35 56.95 99.0 56.55 104.65 56.35 97.2 M63.35 98.85 L63.4 98.85 64.55 98.85 Q64.25 100.9 64.1 103.25 L63.9 112.9 Q64.05 106.7 65.3 101.75 L66.05 98.75 67.25 98.55 Q68.0 106.75 66.7 118.75 L64.75 134.55 64.65 132.75 63.85 117.3 Q63.75 122.3 63.35 125.4 62.75 130.15 63.35 141.25 L63.55 146.0 Q63.4 149.75 63.4 154.3 L63.05 157.2 Q62.35 161.45 60.15 169.55 57.95 177.7 57.25 181.85 L56.75 182.9 Q56.0 181.05 55.85 178.0 L55.55 172.95 Q54.35 174.45 54.45 180.85 54.55 186.35 51.45 187.55 51.55 186.65 50.95 185.55 L50.2 184.05 Q48.75 186.85 46.8 188.0 L44.95 187.8 43.3 187.25 Q40.15 185.95 37.6 183.05 L37.65 183.05 38.95 180.4 39.55 178.2 Q39.4 180.0 39.75 181.5 39.35 183.3 39.4 184.8 L41.35 186.2 41.0 184.3 Q43.0 186.95 46.7 185.75 43.8 181.85 44.05 179.45 44.3 176.85 48.35 175.65 48.8 176.25 49.95 176.7 L51.35 177.3 Q52.8 172.9 52.45 163.5 52.05 153.7 53.25 149.25 53.35 153.0 53.8 160.6 L54.3 172.0 Q56.4 168.55 58.15 162.5 L58.9 165.5 Q59.7 151.85 59.1 141.55 58.85 136.5 59.5 130.6 59.9 126.7 61.15 119.75 L62.2 111.7 Q62.8 106.2 63.45 103.2 63.25 101.6 63.35 98.85 M74.8 94.15 L75.3 93.6 75.7 100.8 75.65 100.7 75.75 102.9 75.8 103.1 76.4 114.6 76.35 117.55 76.6 122.8 77.1 125.6 Q76.7 130.55 73.5 129.85 75.9 126.5 75.05 119.6 73.65 111.95 73.7 108.85 L74.8 94.15 M56.55 105.3 L56.3 108.25 56.1 113.55 55.9 115.2 55.7 116.25 55.6 115.85 55.6 116.65 Q54.9 118.75 53.0 120.65 L52.55 120.75 51.5 121.15 50.95 121.9 Q49.7 121.85 49.25 119.2 55.2 121.65 56.55 104.65 L56.55 105.3 M44.8 106.6 L45.1 110.95 Q45.2 113.75 44.8 115.7 45.1 112.55 44.8 106.6 M51.3 143.1 Q50.2 143.9 48.6 143.65 L48.55 141.95 Q51.45 142.2 52.2 137.45 52.65 134.55 52.25 130.25 L54.65 127.6 Q54.2 129.5 53.85 137.45 53.25 141.5 51.5 142.95 L51.55 142.75 51.3 143.1 M45.0 167.6 L44.25 168.4 Q42.4 170.3 42.05 166.45 42.2 167.05 42.7 167.45 45.75 166.8 45.95 163.35 L45.4 157.25 46.5 148.95 46.65 156.55 Q46.85 160.9 46.45 163.75 L45.0 167.6 M74.1 146.6 Q74.7 145.0 74.5 142.15 L74.05 137.65 74.6 135.7 75.25 145.4 Q75.0 152.45 71.1 151.7 71.05 150.2 72.25 149.05 L74.1 146.6 M33.35 110.15 L32.9 115.45 33.2 113.95 33.2 114.1 32.55 117.05 32.55 115.45 32.2 117.15 31.6 119.1 Q30.55 120.7 28.9 121.15 26.25 121.85 24.65 120.1 23.1 118.35 23.8 115.85 26.65 117.15 28.3 114.45 29.8 112.05 29.3 109.05 L31.0 110.15 Q29.9 109.2 29.8 102.75 29.65 96.35 30.3 94.05 L32.4 103.45 Q33.2 107.15 33.35 110.15 M24.3 132.55 Q24.3 134.6 23.7 135.9 22.75 137.85 21.55 138.5 20.0 139.4 19.4 136.65 L20.65 137.25 Q22.4 136.15 23.3 133.65 24.15 131.45 24.0 129.1 L24.3 132.55 M28.95 140.6 L29.45 140.5 Q30.25 141.1 31.0 140.0 L31.3 139.45 32.0 138.3 32.1 143.65 29.2 143.8 Q28.8 142.25 28.95 140.6 M88.45 199.5 L83.85 199.35 84.2 199.35 85.15 198.7 Q87.15 196.9 88.5 194.85 88.2 197.3 88.45 199.5 M70.4 194.85 L67.0 192.45 64.9 190.2 Q66.2 189.7 67.15 189.75 L67.3 190.9 67.3 192.0 Q68.55 188.9 68.8 183.55 69.05 187.85 70.45 188.95 71.75 190.05 73.3 189.6 74.8 189.15 75.4 187.65 76.0 189.6 77.95 189.2 79.55 188.85 81.05 187.3 L80.7 185.75 80.2 184.2 Q74.55 185.7 75.05 173.45 75.25 168.9 76.25 164.35 77.25 160.05 78.15 159.05 78.65 161.6 78.45 169.85 78.65 176.45 81.15 178.4 81.35 181.9 84.8 183.85 88.6 185.9 91.25 182.95 L90.65 185.3 Q88.85 189.3 86.45 191.6 83.6 194.4 82.25 191.75 81.65 192.35 80.4 194.95 79.4 196.9 77.9 197.6 77.4 196.4 77.0 193.55 76.6 190.95 76.1 190.0 75.85 190.6 75.85 193.55 75.9 195.8 74.55 196.35 73.25 196.9 72.15 195.75 71.3 194.95 70.9 193.65 L70.4 194.85 M56.95 187.65 L55.55 187.85 52.45 188.25 55.95 187.75 56.95 187.65 M63.5 160.8 L63.55 169.2 63.15 174.15 Q63.25 171.1 62.95 166.35 L63.5 160.8 M116.75 123.8 L113.35 123.9 Q116.8 122.9 117.05 117.65 L116.45 109.05 117.75 96.85 Q118.15 101.35 118.05 107.7 L118.05 108.25 117.8 103.85 118.0 109.6 117.6 118.6 117.5 121.0 117.45 121.05 117.45 121.15 116.75 123.8 M93.65 126.65 Q93.4 130.5 92.65 133.0 L91.15 133.2 89.75 133.4 91.15 136.25 Q92.15 137.75 92.55 139.3 92.9 140.75 92.7 142.9 L92.3 146.5 91.75 150.05 Q91.35 152.35 91.4 153.6 91.5 155.75 92.5 158.9 93.35 163.3 92.6 167.35 91.95 170.95 89.85 175.4 88.05 179.2 85.7 180.8 82.8 182.8 81.4 178.55 L81.75 178.75 83.0 176.35 84.3 176.6 85.5 176.8 Q85.55 175.0 87.05 172.25 88.7 169.2 88.95 167.75 89.6 164.15 89.15 160.8 88.6 156.1 85.9 156.25 85.55 155.1 85.6 153.75 85.65 152.4 86.15 151.45 L87.5 151.6 88.65 151.5 88.3 141.3 Q87.95 134.7 89.1 131.35 92.3 131.6 93.55 126.9 L93.65 126.65 M106.6 127.4 L109.0 124.7 Q109.5 135.5 109.3 138.4 108.7 149.05 104.3 146.05 108.4 144.3 108.95 137.65 109.45 131.35 106.6 127.4 M109.7 150.8 L109.7 151.85 Q108.85 155.0 108.55 158.35 L108.05 166.95 Q107.85 170.4 107.1 172.25 105.85 175.2 103.45 172.55 107.3 171.9 107.75 165.15 L107.4 154.9 109.7 150.8 M117.05 155.8 L116.75 158.55 Q116.0 161.4 115.1 162.55 113.7 164.3 111.15 163.65 L111.05 161.95 Q111.7 162.0 112.95 161.45 L114.75 160.95 Q115.1 154.8 114.7 147.55 L119.3 126.2 Q117.7 136.35 117.4 139.05 116.55 146.25 116.85 152.0 L116.9 152.55 Q116.8 153.7 117.0 155.35 L117.05 155.8 M95.6 172.4 L95.6 172.5 Q95.8 176.8 95.6 180.45 L95.35 174.15 95.6 172.4 M108.3 184.2 L107.5 185.15 Q106.9 185.9 107.15 186.1 L107.2 186.3 Q106.35 187.35 105.3 187.75 103.6 188.35 102.75 186.2 104.2 186.55 104.75 185.8 L105.75 183.9 108.9 172.15 Q108.45 173.95 108.65 178.65 108.8 182.3 108.3 184.2 M101.05 205.8 L99.6 204.85 101.65 204.7 101.7 204.9 101.05 205.8" fill="#3a3421" fill-rule="evenodd" stroke="none"/>
      <path d="M91.7 12.05 L93.7 12.8 96.55 14.15 Q101.2 16.85 105.2 21.3 109.65 26.2 111.0 30.8 111.85 33.65 115.65 43.8 118.7 51.85 119.65 57.0 120.0 58.95 121.25 63.25 122.4 67.25 122.75 69.5 123.1 71.45 123.25 75.6 123.35 79.6 123.75 81.6 124.1 83.55 125.9 86.95 127.65 90.35 128.0 92.3 L128.1 95.4 128.05 98.5 129.25 120.45 Q131.4 160.3 126.75 204.5 L125.2 205.2 120.95 206.4 119.55 206.75 116.3 207.25 113.35 207.55 Q114.0 206.05 114.95 201.9 115.8 198.0 116.7 196.25 117.4 198.0 117.6 201.35 117.85 204.9 118.35 206.5 118.2 204.6 118.65 201.7 L119.25 197.0 Q119.45 194.45 118.6 189.35 118.15 186.65 118.05 184.75 L118.0 184.4 117.95 183.3 117.95 181.8 Q118.4 183.25 119.25 188.95 119.95 193.65 121.15 195.95 122.1 194.45 122.15 191.05 122.2 186.75 122.4 185.85 L122.75 191.1 Q122.9 194.45 123.35 196.35 126.15 194.1 126.45 187.8 126.7 181.8 124.75 178.2 L126.0 178.2 127.35 178.15 Q129.45 172.25 126.75 157.85 124.1 143.55 126.3 137.55 128.05 139.6 129.1 142.45 129.15 138.6 127.95 131.4 126.7 124.25 126.75 120.8 L126.7 116.55 126.55 113.95 126.1 109.35 124.75 97.95 Q122.7 97.1 123.05 94.65 123.85 91.7 123.75 90.15 123.65 88.2 122.65 86.55 L120.65 83.35 Q118.75 79.4 118.45 71.55 118.05 61.95 117.5 59.4 L116.4 60.55 115.3 61.7 Q115.05 59.75 115.5 56.55 115.95 53.3 115.8 51.7 115.35 48.0 111.35 40.7 110.8 43.0 109.5 44.05 107.95 45.2 106.5 43.3 L107.7 42.5 Q107.8 37.25 107.15 33.5 106.3 28.6 104.15 25.05 102.65 22.55 98.75 19.9 94.35 16.95 91.4 17.35 L91.45 19.65 91.5 27.45 Q91.45 33.9 91.65 37.2 92.15 46.85 91.9 66.1 L91.85 69.9 Q91.65 86.1 92.15 94.85 L92.95 107.6 90.55 100.6 Q89.05 96.4 88.8 93.8 86.5 94.3 85.15 92.9 83.8 91.5 84.35 89.2 L85.05 90.65 Q91.3 89.05 90.0 76.9 L88.35 67.35 Q87.2 61.75 87.1 60.25 L85.65 60.25 84.15 60.35 Q88.2 58.75 88.3 52.0 L87.45 41.65 Q86.65 25.75 85.45 18.1 85.1 19.45 84.9 22.65 L84.35 27.05 84.3 27.25 Q83.9 25.8 83.85 22.1 83.8 18.55 83.3 17.1 82.9 15.9 79.15 13.25 77.55 12.15 75.35 10.75 68.05 6.1 66.35 6.35 65.55 10.45 65.1 14.0 L64.6 18.5 Q64.15 24.85 64.8 31.2 L66.5 44.95 67.2 51.65 Q66.4 51.2 65.6 50.95 L64.0 42.5 Q62.55 35.5 62.35 31.15 61.8 20.9 60.15 12.45 L59.4 7.6 Q58.8 4.85 57.35 3.75 55.4 2.3 50.75 3.2 L50.1 7.35 49.3 11.15 48.35 9.1 47.4 7.15 Q40.35 9.9 39.15 20.0 L39.0 22.7 Q38.95 27.05 39.45 36.65 L39.6 39.25 39.65 40.85 Q39.85 47.75 39.45 52.15 L39.4 53.0 Q38.35 63.15 34.25 65.4 36.05 63.35 36.95 57.3 37.55 53.0 37.55 48.25 37.55 38.35 36.6 29.45 35.9 22.35 35.05 20.35 33.4 16.3 30.1 22.85 L27.1 28.8 Q25.7 31.25 23.15 33.65 L25.7 28.75 32.55 17.4 32.6 17.3 33.05 16.7 33.45 16.1 Q40.1 7.1 47.8 3.2 L48.05 3.05 50.6 1.95 50.85 1.85 51.35 1.7 54.6 0.75 55.65 0.5 58.1 0.15 65.45 0.45 65.85 0.55 66.0 0.55 66.45 0.65 67.45 0.85 67.45 0.9 67.4 0.9 68.4 1.2 71.35 2.2 72.8 2.85 73.4 3.15 75.25 4.05 76.9 5.0 79.75 6.65 83.0 8.55 Q84.35 9.35 86.75 10.25 L87.0 10.35 87.1 10.35 89.45 11.2 89.65 11.3 89.85 11.35 90.85 11.75 90.85 11.8 90.95 11.8 90.95 11.75 91.7 12.05 M93.75 119.05 L93.75 118.25 92.95 107.6 Q93.8 110.8 93.75 113.25 L93.75 118.25 93.8 118.9 94.15 123.3 94.9 135.0 95.15 139.0 96.1 154.8 Q96.5 165.05 95.6 172.4 L95.35 174.15 95.6 180.45 95.8 188.75 95.45 193.9 Q95.1 197.2 95.35 198.9 L94.35 199.15 91.9 199.65 88.45 199.85 88.45 199.5 Q88.2 197.3 88.5 194.85 87.15 196.9 85.15 198.7 L84.2 199.35 83.85 199.35 82.5 199.25 76.75 198.05 76.05 197.8 72.95 196.4 70.4 194.85 70.9 193.65 Q71.3 194.95 72.15 195.75 73.25 196.9 74.55 196.35 75.9 195.8 75.85 193.55 75.85 190.6 76.1 190.0 76.6 190.95 77.0 193.55 77.4 196.4 77.9 197.6 79.4 196.9 80.4 194.95 81.65 192.35 82.25 191.75 83.6 194.4 86.45 191.6 88.85 189.3 90.65 185.3 L91.25 182.95 Q88.6 185.9 84.8 183.85 81.35 181.9 81.15 178.4 L81.15 177.8 81.4 178.55 Q82.8 182.8 85.7 180.8 88.05 179.2 89.85 175.4 91.95 170.95 92.6 167.35 93.35 163.3 92.5 158.9 91.5 155.75 91.4 153.6 91.35 152.35 91.75 150.05 L92.3 146.5 92.7 142.9 Q92.9 140.75 92.55 139.3 92.15 137.75 91.15 136.25 L89.75 133.4 91.15 133.2 92.65 133.0 Q93.4 130.5 93.65 126.65 L93.65 126.0 93.75 119.05 M82.75 96.85 L83.35 96.8 Q82.85 99.2 79.9 100.0 76.95 100.85 77.2 97.8 81.45 99.3 82.75 96.85 M34.7 72.95 L34.8 76.5 Q34.75 80.4 33.95 83.0 33.1 85.8 30.4 88.05 L29.5 88.7 29.25 88.8 Q28.15 89.2 27.85 87.95 L27.75 86.05 Q30.1 87.85 32.3 80.85 L34.6 71.0 34.7 72.95 M39.5 57.95 L39.55 57.2 40.95 85.8 41.45 95.9 41.5 96.3 Q41.8 102.55 43.1 114.05 L43.35 119.0 43.35 121.4 Q43.2 126.05 42.4 130.0 L41.95 131.95 Q41.0 135.7 40.75 141.75 L40.1 151.7 Q39.45 156.6 37.25 167.1 35.65 174.9 33.1 177.75 L28.55 178.15 25.05 177.25 Q23.1 176.6 21.75 175.8 L20.45 175.0 19.65 174.55 19.65 174.5 Q18.95 172.25 19.75 169.8 19.85 171.2 20.7 172.4 21.75 173.8 23.05 173.35 24.9 172.7 24.15 170.4 22.95 167.85 22.85 166.95 22.55 164.1 22.65 160.7 22.8 157.05 23.4 154.45 L23.3 160.8 Q23.3 164.8 23.95 167.05 25.25 171.45 28.3 171.55 31.35 171.65 30.35 166.7 L31.15 168.05 32.05 169.6 Q33.75 167.5 35.35 164.2 36.95 160.8 37.45 158.15 37.95 155.75 37.25 151.55 36.5 146.9 36.65 144.9 36.8 142.7 38.15 138.95 39.3 135.65 39.2 132.55 39.1 129.2 39.5 126.1 L40.5 119.95 Q41.65 113.95 40.4 104.5 L38.4 89.0 Q37.55 80.85 37.35 75.65 36.95 66.0 39.05 63.05 L39.5 57.95 M64.55 98.85 L66.05 98.75 65.3 101.75 Q64.05 106.7 63.9 112.9 L64.1 103.25 Q64.25 100.9 64.55 98.85 M41.0 184.3 L41.35 186.2 39.4 184.8 Q39.35 183.3 39.75 181.5 L40.1 180.05 40.5 181.0 40.8 182.4 40.9 183.25 41.0 184.3 M46.8 188.0 Q48.75 186.85 50.2 184.05 L50.95 185.55 Q51.55 186.65 51.45 187.55 54.55 186.35 54.45 180.85 54.35 174.45 55.55 172.95 L55.85 178.0 Q56.0 181.05 56.75 182.9 L57.25 181.85 Q57.95 177.7 60.15 169.55 62.35 161.45 63.05 157.2 L63.4 154.3 Q63.4 149.75 63.55 146.0 L63.35 141.25 Q62.75 130.15 63.35 125.4 63.75 122.3 63.85 117.3 L64.65 132.75 64.75 134.55 Q65.1 142.7 64.5 148.05 L63.7 157.45 63.5 160.8 62.95 166.35 Q63.25 171.1 63.15 174.15 L62.8 177.05 62.15 181.85 61.3 187.5 60.75 187.45 59.3 187.45 58.7 187.45 58.45 187.5 58.15 187.5 57.25 187.6 56.95 187.65 55.95 187.75 52.45 188.25 50.75 188.4 46.55 188.1 46.8 188.0 M101.05 205.8 L101.7 204.9 102.9 204.0 103.1 206.65 101.8 206.15 101.05 205.8" fill="#292517" fill-rule="evenodd" stroke="none"/>
      <path d="M98.85 35.8 L98.9 36.75 Q99.25 42.75 99.25 50.0 97.4 50.0 97.65 43.7 97.9 38.15 98.85 35.8 M93.9 25.65 L94.8 24.95 96.2 41.1 Q97.25 56.2 95.8 56.3 94.8 56.35 94.2 38.9 L93.9 25.65 M85.25 37.3 L85.3 37.15 85.45 40.05 Q85.5 43.35 85.05 47.95 84.2 56.95 81.65 53.9 80.5 52.5 82.0 48.5 83.55 44.2 82.75 42.65 L85.25 37.3 M81.7 61.25 L81.8 60.4 81.85 61.45 Q82.0 64.3 82.85 69.8 83.35 75.7 81.15 78.6 L80.5 78.05 Q80.8 74.8 80.25 70.85 L80.15 70.2 81.1 65.5 81.7 61.25 M86.55 99.75 L86.65 98.9 Q86.85 99.7 88.8 102.0 89.7 103.05 89.9 104.1 L89.85 105.45 Q89.35 107.2 88.4 106.95 87.45 106.65 87.25 104.65 L86.6 105.1 Q86.0 104.15 86.2 103.05 L86.55 99.75 M102.7 49.4 Q102.3 45.3 103.05 43.5 L103.35 43.15 103.85 57.9 Q104.25 66.55 101.85 62.6 100.8 60.85 101.4 59.0 L102.7 55.6 Q103.15 53.85 102.7 49.4 M105.25 58.65 L105.5 52.85 107.3 51.2 108.25 58.6 Q108.65 64.9 106.45 63.9 105.2 63.3 105.25 58.65 M94.3 65.65 L94.55 62.0 95.25 75.75 Q94.35 69.7 94.3 65.65 M98.4 69.4 L99.15 65.25 Q99.3 67.2 100.4 75.25 100.9 82.65 98.6 83.95 98.25 81.15 98.35 76.7 L98.4 69.4 M84.55 76.75 L84.85 76.75 85.15 80.0 Q85.25 82.0 84.5 83.1 82.7 82.95 83.5 80.55 L84.55 76.75 M95.6 81.95 L95.25 75.75 Q96.35 82.9 96.55 86.65 L96.85 89.45 Q96.95 91.25 96.25 91.85 95.6 90.25 95.55 87.05 L95.6 81.95 M113.9 109.5 L113.9 109.3 113.9 109.15 114.9 92.2 115.45 101.55 Q115.6 106.95 114.95 110.9 L114.65 114.7 Q114.3 117.25 113.2 117.85 L111.5 117.95 Q110.6 117.6 110.45 116.65 110.35 115.9 111.75 114.1 L113.75 111.7 113.9 109.5 M105.7 86.4 L105.3 80.9 104.95 73.25 106.05 75.1 Q107.75 83.8 106.85 93.7 106.65 96.05 105.95 97.45 L103.4 97.4 Q102.25 95.95 103.25 94.35 L105.1 91.8 Q105.9 90.0 105.7 86.4 M108.9 86.75 Q109.1 89.65 108.9 94.6 L108.75 102.45 109.1 105.8 Q109.25 107.95 108.5 108.85 L105.95 108.8 Q105.75 107.95 106.2 107.4 L107.15 106.2 Q108.15 104.2 108.3 102.15 L108.2 97.6 108.9 86.75 M68.1 14.8 L68.95 13.2 Q69.0 14.9 70.0 20.6 70.85 25.35 70.4 28.05 70.1 29.95 69.0 33.5 L67.45 39.0 66.9 26.9 Q66.75 20.3 68.1 14.8 M77.2 29.35 L77.25 34.75 77.05 38.8 77.05 39.05 Q76.7 41.95 75.55 42.35 75.05 38.15 74.95 31.55 L74.7 20.7 77.15 19.95 Q76.75 22.6 77.05 27.35 L77.2 29.35 M79.3 25.75 L79.25 23.3 79.35 22.0 79.6 18.25 80.75 29.55 Q81.4 36.2 81.4 40.95 81.4 44.3 80.55 47.5 L79.5 50.3 Q78.7 51.9 77.6 52.65 L77.35 52.75 Q77.15 50.25 77.65 47.1 L78.7 41.55 Q79.45 37.85 79.45 32.45 L79.3 25.75 M54.15 11.85 L53.15 10.65 Q55.15 12.2 55.35 15.25 55.5 18.35 53.55 19.9 53.05 18.75 53.25 15.9 53.4 12.95 54.15 11.85 M41.25 27.8 L40.0 27.65 Q39.7 26.6 40.15 25.25 L41.0 22.95 41.25 20.3 Q41.35 18.55 41.65 17.9 L42.2 16.6 42.6 23.35 Q42.55 26.85 41.55 27.65 L41.25 27.8 M44.35 12.1 L46.65 11.65 47.45 28.2 Q47.75 32.9 47.65 34.6 47.35 39.7 45.1 38.9 44.9 37.0 44.95 34.35 L45.05 29.8 44.8 20.95 44.35 12.1 M41.55 48.05 Q42.15 46.5 42.05 45.15 L43.35 33.15 44.45 55.1 Q44.65 59.75 44.35 61.5 43.7 64.85 41.0 66.7 40.75 64.6 40.65 61.45 L40.45 56.15 40.3 53.5 Q40.25 51.95 40.55 50.8 L41.55 48.05 M52.7 26.35 L53.0 26.35 53.65 39.45 54.0 43.05 Q54.1 45.25 52.95 46.15 52.75 44.55 52.8 42.25 L52.9 38.3 52.55 32.25 Q52.3 28.55 52.7 26.35 M22.1 47.75 L23.65 45.05 Q23.65 50.55 22.95 54.3 21.95 59.7 19.75 59.85 17.5 60.05 18.95 54.85 L20.5 50.3 22.1 47.75 M23.9 42.65 Q24.1 43.8 23.65 45.05 L23.55 42.05 23.9 42.65 M30.0 34.5 L30.2 31.65 Q30.3 33.55 31.5 40.65 32.4 46.15 31.95 49.75 L31.15 56.6 Q30.3 60.85 28.25 62.55 27.3 60.45 28.15 56.6 L29.8 50.55 Q30.5 47.25 30.45 42.6 L30.0 34.5 M28.1 33.65 L28.1 33.35 28.45 37.5 Q28.55 40.5 27.6 40.85 L27.1 37.25 Q27.0 35.15 28.1 33.65 M33.35 69.75 Q33.45 70.2 33.05 70.5 L32.85 70.45 33.35 69.75 33.3 69.5 33.6 69.45 33.35 69.75 M24.65 68.0 Q25.45 67.2 25.0 65.8 L25.7 67.05 26.1 75.75 Q25.85 82.6 23.05 81.9 22.55 77.65 22.35 68.8 23.9 68.7 24.65 68.0 M30.3 72.1 Q30.95 70.0 32.85 70.45 32.35 71.35 30.95 77.65 29.9 82.45 28.05 82.9 27.85 81.8 28.75 79.45 L29.85 75.85 30.3 72.1 M25.35 92.2 L26.95 92.75 Q26.9 94.0 27.45 96.05 L28.2 99.3 28.5 105.55 Q28.5 108.3 27.5 111.1 26.15 114.8 23.95 114.3 23.95 112.75 24.65 110.45 L25.65 106.7 Q26.1 103.8 25.85 99.5 L25.35 92.2 M35.55 89.85 L35.55 90.5 35.0 92.6 Q34.65 94.05 33.9 94.3 L32.55 94.2 Q32.1 93.8 32.3 92.9 33.4 92.85 34.35 91.85 35.15 91.05 35.55 89.85 M22.1 89.2 L23.55 87.6 24.15 95.0 Q24.5 99.5 24.3 102.4 L23.55 107.6 Q22.8 110.95 21.6 112.15 21.4 110.5 21.8 107.6 L22.35 103.0 Q22.6 100.1 22.45 96.1 L22.1 89.2 M74.3 56.95 Q74.45 54.65 74.75 52.55 L75.5 48.75 76.15 57.65 76.25 59.15 74.3 56.95 M72.3 55.15 L72.35 54.9 72.4 55.2 72.3 55.15 M48.6 50.75 L49.2 50.1 49.6 56.85 49.65 58.1 48.75 59.35 48.75 57.95 48.6 50.75 M58.5 50.75 L58.65 51.55 56.55 52.4 Q56.65 50.65 57.0 50.0 L57.25 41.8 Q57.4 44.9 58.5 50.75 M44.0 80.65 L44.75 83.65 44.05 83.7 Q43.85 82.35 44.0 80.65 M48.7 90.85 L50.95 93.4 51.25 96.15 Q51.4 99.0 50.8 100.9 L50.8 100.95 Q50.3 102.45 49.35 103.35 L48.8 92.3 48.7 90.85 M70.4 97.45 L72.05 96.45 72.2 112.25 72.6 118.4 Q72.75 123.9 71.75 123.6 70.9 123.35 70.7 119.1 L70.65 114.05 70.35 101.6 70.4 97.45 M76.85 91.7 Q78.25 89.7 79.15 87.4 80.0 93.4 78.45 93.55 77.3 93.65 76.85 91.7 M52.0 110.2 L52.75 109.7 53.1 109.4 Q54.35 108.05 54.45 106.3 54.35 115.9 51.0 115.05 50.35 112.4 50.7 111.45 51.0 110.5 51.5 110.35 L52.0 110.2 M75.8 103.1 L75.75 102.9 75.65 100.7 75.7 100.8 Q77.6 110.4 78.05 119.9 L78.3 122.05 78.5 124.55 78.2 127.25 Q77.5 126.95 77.1 125.6 L76.6 122.8 76.35 117.55 76.4 114.6 76.45 110.2 Q76.45 105.9 75.8 103.1 M56.1 113.55 L56.3 108.25 56.55 105.3 Q56.95 101.75 57.65 99.25 57.65 103.2 58.6 112.4 58.7 120.4 54.55 124.15 52.45 126.0 51.15 124.45 50.1 123.2 50.95 121.9 L51.5 121.15 52.55 120.75 53.0 120.65 53.75 120.35 Q55.35 119.25 55.6 116.65 L55.6 115.85 55.7 116.25 56.0 117.4 56.1 113.55 M45.3 110.75 Q45.65 105.75 45.45 100.75 L46.75 95.0 47.2 101.05 47.65 107.15 48.25 112.9 Q48.5 117.45 47.25 118.15 45.2 119.3 45.05 115.65 L45.3 110.75 M55.9 133.9 L56.25 134.55 56.75 142.95 57.1 151.35 56.9 157.25 Q56.6 160.9 55.5 162.85 54.7 157.35 55.25 148.4 56.0 137.1 55.9 133.9 M51.3 143.1 L51.55 142.75 51.5 142.95 51.35 143.3 Q51.5 145.1 51.1 147.3 L50.35 151.25 Q50.1 152.9 49.6 159.5 49.85 157.8 50.75 156.7 L51.05 156.35 51.3 164.2 Q51.0 169.2 48.5 171.0 48.1 169.9 48.35 168.65 L49.0 166.25 49.3 163.95 49.4 161.45 49.15 163.15 48.55 167.2 Q47.9 169.9 46.35 170.5 43.4 171.75 44.65 168.35 L45.0 167.6 46.45 163.75 46.75 162.9 Q47.65 160.1 47.6 157.15 L47.5 153.0 Q47.5 150.5 47.9 148.95 L48.65 147.05 Q49.1 146.05 48.95 145.05 50.3 144.4 51.3 143.1 M46.0 124.15 L46.65 125.4 46.05 126.4 46.0 124.15 M67.5 126.15 L69.8 128.25 Q69.5 130.75 69.35 136.6 69.0 141.9 67.8 144.65 L67.2 144.6 Q67.0 143.4 67.15 141.8 L67.5 139.05 Q67.95 133.7 67.5 126.15 M71.45 134.95 Q71.35 131.15 71.75 129.45 L72.75 130.7 73.1 138.4 Q72.95 145.6 70.45 146.0 70.25 144.65 70.45 143.2 L71.05 140.5 Q71.5 138.65 71.45 134.95 M77.95 129.65 L78.75 123.75 79.9 146.15 80.45 150.8 Q80.55 154.65 78.85 154.35 77.65 154.15 77.75 151.95 L78.15 148.6 78.4 144.9 77.65 137.2 Q77.1 132.3 77.95 129.65 M44.55 133.5 Q44.8 128.8 46.05 126.4 46.3 135.5 45.8 142.1 45.05 152.3 42.7 152.2 42.6 151.35 42.9 150.0 L43.4 147.8 44.2 140.6 44.55 133.5 M49.0 135.2 L48.45 135.1 Q48.3 134.25 48.45 132.6 L48.45 130.1 48.5 124.7 Q49.5 126.45 50.1 131.55 50.75 137.0 49.15 136.65 L49.0 135.2 M33.35 110.15 L33.5 105.4 33.55 108.6 33.4 112.4 33.4 112.25 34.4 104.75 35.1 100.3 Q36.55 104.15 36.7 110.2 36.85 117.7 33.85 119.6 32.85 117.8 33.2 114.1 L33.2 113.95 32.9 115.45 33.35 110.15 M32.55 117.05 L32.55 118.1 Q32.7 123.35 31.75 129.2 L31.25 133.3 Q30.85 135.8 30.0 136.9 28.35 135.75 27.85 131.55 L27.1 127.0 Q26.55 124.1 26.55 122.5 29.35 122.2 30.45 121.15 31.1 120.5 31.6 119.1 L32.2 117.15 32.55 115.45 32.55 117.05 M20.1 144.85 L20.05 142.45 Q20.15 141.45 20.8 140.35 L21.7 139.25 22.6 138.3 Q22.2 140.2 22.35 144.25 22.5 148.45 22.2 150.15 L21.35 154.25 Q20.7 156.3 19.45 157.95 17.65 160.4 16.85 163.35 15.6 162.75 15.75 159.85 15.85 157.75 16.5 155.75 L18.7 148.1 Q19.7 143.95 19.55 139.8 L20.1 144.85 M16.8 140.55 L17.7 140.85 Q17.85 143.55 17.45 145.6 L15.95 150.0 15.85 147.4 Q15.8 145.85 16.1 144.75 L17.0 142.7 Q17.4 141.6 16.8 140.55 M18.25 131.9 L18.95 128.05 Q19.95 122.5 19.65 116.45 L21.25 117.0 21.85 126.8 Q21.95 134.75 19.6 134.8 18.0 134.85 18.25 131.9 M29.45 140.5 L28.95 140.6 Q27.3 140.75 27.95 138.25 L30.5 137.95 Q31.85 137.45 31.5 135.85 L32.2 137.1 32.0 138.3 31.3 139.45 Q30.65 140.15 29.6 140.45 L29.45 140.5 M28.8 144.5 L29.8 145.1 30.0 152.2 Q29.7 155.9 27.65 158.7 27.45 156.25 28.1 151.65 28.8 146.55 28.8 144.5 M39.45 170.15 L39.5 170.5 Q39.3 170.8 38.9 175.4 38.55 179.35 37.1 179.15 L37.8 174.45 Q38.35 171.75 39.45 170.15 M31.15 147.3 L32.35 146.3 Q32.25 146.75 32.3 151.8 32.35 155.45 31.05 157.0 30.85 155.2 31.05 152.15 L31.15 147.3 M80.35 172.65 L80.05 169.8 Q79.75 167.6 79.85 163.7 L79.85 157.55 82.0 156.5 82.75 165.0 Q83.15 170.15 82.65 173.45 L82.5 175.3 Q82.3 176.2 81.2 175.2 80.65 174.7 80.35 172.65 M66.6 173.05 L67.55 166.55 Q67.4 170.4 67.4 174.2 L67.6 179.05 Q67.55 182.25 66.25 183.25 65.5 181.4 65.8 178.2 L66.6 173.05 M67.6 152.9 L67.9 152.85 Q68.25 159.55 67.55 166.55 L67.6 152.9 M71.7 156.7 L72.7 154.6 73.9 178.0 74.35 182.4 Q74.4 185.55 72.6 185.25 70.95 184.95 70.85 181.0 L71.05 175.7 Q70.6 165.0 71.7 156.7 M40.5 181.0 Q40.25 179.6 40.35 177.75 L40.85 172.35 42.0 171.05 42.15 177.65 Q42.1 182.9 41.1 183.15 L40.8 182.4 40.5 181.0 M41.4 160.4 L43.1 155.1 44.6 153.45 43.65 159.45 Q43.0 162.9 42.0 165.25 40.25 165.05 41.4 160.4 M116.75 123.8 L117.45 121.15 117.45 121.05 117.5 121.0 Q118.3 116.75 118.0 110.4 L118.0 109.6 117.8 103.85 118.05 108.25 118.35 114.35 119.05 121.0 Q119.35 126.2 117.9 126.85 115.95 127.75 116.45 124.8 L116.75 123.8 M89.15 119.65 Q89.3 116.45 90.3 114.65 L91.35 116.2 92.1 123.8 Q92.3 129.8 89.75 129.0 88.7 128.65 88.7 127.25 L88.95 124.9 89.15 119.65 M83.6 107.3 L84.4 104.7 84.85 119.95 85.25 123.45 Q85.4 125.75 84.3 126.5 82.45 123.25 82.15 116.9 81.9 110.5 83.6 107.3 M102.1 120.55 L103.25 118.9 Q104.0 121.8 104.2 126.05 L104.35 133.35 104.4 135.0 103.95 136.55 Q102.5 133.85 102.25 128.7 L102.1 120.55 M100.05 110.5 Q100.15 119.95 100.35 123.65 L100.75 128.8 Q101.0 131.95 100.75 133.9 L99.6 133.7 Q98.4 121.65 98.4 99.0 L99.55 97.35 Q99.95 102.1 100.05 110.5 M109.8 133.55 L109.5 128.2 110.55 126.1 110.55 142.2 110.2 145.5 Q109.55 148.4 108.1 146.45 107.6 145.8 108.65 144.55 L110.1 142.6 Q110.55 141.2 110.25 138.1 L109.8 133.55 M112.3 132.35 L111.95 128.95 Q111.75 126.9 112.25 125.55 L112.75 135.45 112.2 137.5 112.3 132.35 M84.65 128.7 Q86.0 138.75 84.95 145.5 L84.85 150.0 Q83.0 144.85 82.95 139.35 82.9 133.9 84.65 128.7 M96.5 141.85 L97.35 139.6 98.75 151.4 Q99.5 158.7 98.8 163.15 96.85 162.8 96.55 153.1 L96.5 141.85 M109.7 150.8 L109.95 147.85 Q110.4 144.1 112.2 137.5 L111.6 147.4 Q111.6 148.9 111.95 152.8 112.1 156.35 110.9 157.9 109.75 155.45 109.7 151.85 L109.7 150.8 M103.35 138.7 L103.55 141.0 Q103.55 142.25 103.0 143.1 L102.75 140.7 Q102.75 139.3 103.35 138.4 L103.35 138.7 M117.05 155.8 L117.0 155.35 Q116.8 153.7 116.9 152.55 116.95 151.65 117.15 151.0 L118.8 146.1 119.3 154.35 Q119.45 159.1 118.75 162.5 118.45 164.1 118.1 170.45 117.85 175.55 116.75 178.05 116.15 176.35 115.75 173.05 115.3 169.6 114.85 168.1 L113.95 165.75 Q113.6 164.55 114.25 163.4 L116.05 162.15 Q116.65 161.35 117.05 159.75 117.35 158.55 117.05 155.8 M84.75 159.65 L84.65 158.3 85.3 158.6 Q84.95 159.05 84.75 159.65 L85.4 165.7 Q85.6 169.35 84.7 171.45 83.65 170.2 83.7 166.05 83.8 162.05 84.75 159.65 M109.85 165.1 L110.9 166.65 111.5 172.05 Q111.7 175.4 110.6 177.2 L110.1 171.15 109.85 165.1 M101.35 149.35 L101.95 155.3 Q102.2 159.5 101.0 160.95 98.3 158.3 100.9 146.5 L101.35 149.35 M104.15 153.75 Q103.95 155.95 103.9 159.7 L103.8 165.65 103.85 168.25 Q103.8 170.1 103.1 170.55 102.3 169.25 102.6 166.6 L103.25 162.5 103.45 156.3 Q103.55 152.35 104.3 150.2 L104.15 153.75 M98.65 163.9 L99.25 169.65 100.2 183.75 Q100.6 196.55 98.15 196.65 97.15 192.4 97.5 186.7 98.25 179.35 98.2 175.6 L97.9 169.7 Q97.8 166.05 98.65 163.9 M108.3 184.2 L108.6 183.75 108.95 181.8 Q109.1 180.5 109.6 179.8 110.45 183.95 110.25 190.25 L109.8 200.75 Q108.2 200.85 107.8 195.2 L107.55 188.0 107.2 186.3 107.15 186.1 Q106.9 185.9 107.5 185.15 L108.3 184.2 M105.25 174.0 L105.45 178.3 Q105.3 181.3 103.75 181.35 103.35 177.65 103.4 174.65 104.55 174.7 105.25 174.0 M103.15 188.8 L102.6 191.05 103.25 197.4 Q103.6 201.35 102.95 203.45 101.3 202.35 101.7 196.05 102.05 190.15 103.15 188.8" fill="#5f5637" fill-rule="evenodd" stroke="none"/>
      <path d="M61.75 54.05 Q60.95 54.5 60.1 55.1 L59.25 55.2 Q57.85 55.35 56.55 55.85 L55.65 56.2 55.0 56.55 53.1 57.75 51.8 58.75 Q51.1 59.35 50.55 60.6 L49.85 62.7 49.75 62.9 49.75 61.95 48.35 64.8 Q47.5 66.6 47.3 67.9 L47.4 67.0 47.35 66.75 46.45 68.3 45.4 70.55 45.25 71.05 45.2 71.15 45.0 71.85 45.05 69.15 47.55 61.9 47.6 61.85 47.75 61.45 48.3 60.85 48.2 61.2 49.55 59.7 49.75 59.55 50.7 59.0 51.85 58.25 Q52.55 57.15 53.2 56.55 L53.5 56.25 55.2 55.15 56.5 54.6 57.85 54.2 59.05 54.0 61.25 53.95 61.75 54.05" fill="#2b2215" fill-rule="evenodd" stroke="none"/>
      <path d="M60.1 55.1 Q59.5 55.55 58.85 56.1 55.3 59.1 54.3 62.35 L52.5 68.0 52.2 68.8 Q51.1 72.4 51.25 75.4 51.45 78.95 53.75 83.0 54.85 84.9 56.15 86.35 L55.75 88.2 Q53.65 88.3 52.55 87.3 L52.0 86.8 53.15 88.2 52.25 88.1 Q52.45 88.65 53.5 89.15 L55.05 89.7 Q54.65 89.9 53.85 89.7 L52.65 89.4 Q53.55 90.15 56.45 91.9 L55.25 91.9 56.7 92.8 55.3 92.7 55.7 93.35 54.75 93.5 53.7 93.15 54.45 93.95 52.5 92.95 53.9 93.95 53.0 93.35 50.75 91.45 Q49.6 90.35 48.6 89.0 L47.5 87.5 46.9 86.55 46.65 86.1 45.75 83.85 45.9 84.7 45.95 84.85 45.2 83.3 44.1 79.8 44.05 79.6 44.0 79.45 43.8 77.5 43.8 77.45 44.35 71.65 44.9 69.65 44.9 69.55 45.05 69.15 45.0 71.85 45.2 71.15 45.25 71.05 45.4 70.55 46.45 68.3 47.35 66.75 47.4 67.0 47.3 67.9 Q47.5 66.6 48.35 64.8 L49.75 61.95 49.75 62.9 49.85 62.7 50.55 60.6 Q51.1 59.35 51.8 58.75 L53.1 57.75 55.0 56.55 55.65 56.2 56.55 55.85 Q57.85 55.35 59.25 55.2 L60.1 55.1 M74.4 89.4 L74.6 89.2 Q78.0 86.45 79.45 82.65 L79.2 85.7 78.95 86.3 Q78.05 88.45 76.65 90.35 L75.25 91.95 74.9 92.3 73.0 93.95 72.05 94.65 70.45 95.55 67.1 96.6 66.55 96.7 64.85 96.9 63.4 96.9 Q59.75 96.8 56.55 95.4 L56.45 95.35 59.85 96.4 66.4 96.7 67.5 96.05 Q68.15 95.7 68.75 95.65 69.75 95.55 71.05 94.3 72.5 92.95 73.2 92.75 L72.65 93.35 Q73.8 92.7 74.25 91.7 73.7 92.35 73.05 92.7 L74.5 90.4 73.7 91.2 72.8 91.85 74.4 89.4 M47.75 61.45 L47.6 61.85 Q48.0 60.6 48.75 59.4 L47.75 61.45 M72.0 93.9 Q72.8 94.2 74.25 92.6 L72.65 93.35 72.0 93.9" fill="#383220" fill-rule="evenodd" stroke="none"/>
      <path d="M79.45 82.65 L79.6 82.15 Q80.2 80.35 80.45 78.25 L80.5 78.55 80.45 79.4 80.4 80.25 79.25 85.55 79.2 85.7 79.45 82.65 M45.95 84.85 L45.9 84.7 45.75 83.85 46.65 86.1 46.65 86.15 46.6 86.05 46.05 85.05 46.05 85.0 45.95 84.85" fill="#474132" fill-rule="evenodd" stroke="none"/>
      <path d="M43.8 77.5 L44.0 79.45 44.05 79.6 44.1 79.8 45.2 83.3 45.95 84.85 46.05 85.0 46.05 85.05 46.6 86.05 46.65 86.15 46.65 86.1 46.9 86.55 47.5 87.5 48.6 89.0 Q49.6 90.35 50.75 91.45 L53.0 93.35 53.9 93.95 54.4 94.25 55.3 94.75 55.45 94.85 55.75 95.0 56.1 95.2 56.25 95.25 56.45 95.35 56.55 95.4 Q59.75 96.8 63.4 96.9 L64.85 96.9 66.55 96.7 67.1 96.6 70.45 95.55 72.05 94.65 73.0 93.95 74.9 92.3 75.25 91.95 76.65 90.35 Q78.05 88.45 78.95 86.3 L79.2 85.7 79.25 85.55 80.4 80.25 80.45 79.4 Q80.4 83.7 79.2 87.15 L79.15 87.4 Q78.25 89.7 76.85 91.7 L75.3 93.6 74.8 94.15 72.95 95.8 72.05 96.45 70.4 97.45 67.25 98.55 66.05 98.75 64.55 98.85 63.4 98.85 63.35 98.85 Q59.9 98.7 56.75 97.35 L56.35 97.2 55.0 96.5 53.9 95.8 53.1 95.25 Q51.95 94.4 50.95 93.4 L48.7 90.85 47.2 88.65 46.9 88.15 46.15 86.8 45.65 85.75 45.6 85.7 44.75 83.65 44.0 80.65 43.8 78.85 43.8 77.5" fill="#736842" fill-rule="evenodd" stroke="none"/>
      <path d="M80.15 70.2 L80.25 70.85 Q80.8 74.8 80.5 78.05 L80.45 78.25 Q80.2 80.35 79.6 82.15 L79.45 82.65 Q78.0 86.45 74.6 89.2 L74.4 89.4 73.15 90.2 73.1 90.25 Q70.4 91.75 66.95 91.65 62.85 91.5 59.35 89.2 57.65 88.05 56.15 86.35 54.85 84.9 53.75 83.0 51.45 78.95 51.25 75.4 51.1 72.4 52.2 68.8 L52.5 68.0 54.3 62.35 Q55.3 59.1 58.85 56.1 59.5 55.55 60.1 55.1 60.95 54.5 61.75 54.05 63.55 53.0 65.25 52.75 67.85 52.35 70.65 54.15 L73.0 55.85 73.55 56.3 74.1 56.8 74.3 56.95 76.25 59.15 77.15 60.7 78.1 62.85 78.85 64.9 Q79.7 67.5 80.15 70.2" fill="#181510" fill-rule="evenodd" stroke="none"/>
      <path d="M19.65 174.5 L19.65 174.55 20.45 175.0 21.75 175.8 Q23.1 176.6 25.05 177.25 L28.55 178.15 33.1 177.75 35.0 178.05 35.2 178.25 35.7 179.6 Q36.0 180.95 36.25 181.3 L37.65 183.05 37.6 183.05 Q40.15 185.95 43.3 187.25 L44.95 187.8 46.8 188.0 46.55 188.1 50.75 188.4 52.45 188.25 55.55 187.85 56.95 187.65 57.25 187.6 58.15 187.5 58.45 187.5 58.7 187.45 59.3 187.45 60.75 187.45 61.3 187.5 62.2 187.7 Q63.05 188.0 64.65 189.9 L64.9 190.2 67.0 192.45 70.4 194.85 72.95 196.4 76.05 197.8 76.75 198.05 82.5 199.25 83.85 199.35 88.45 199.5 88.45 199.85 91.9 199.65 94.35 199.15 Q96.3 199.1 97.05 199.7 97.3 199.95 97.55 201.25 97.8 202.7 98.0 203.05 100.2 206.8 107.0 207.5 L110.8 207.65 103.05 207.85 95.35 206.65 79.65 205.05 64.05 202.9 Q46.7 199.55 30.0 190.5 L22.45 186.8 Q17.9 184.6 15.1 182.6 12.5 180.75 9.75 177.95 L4.85 172.8 1.8 169.85 Q-0.1 167.85 0.0 166.45 2.55 165.05 7.45 164.0 L12.05 163.0 11.9 164.3 11.85 164.55 Q11.5 168.45 14.9 171.4 L19.65 174.5" fill="url(#gradient0)" fill-rule="evenodd" stroke="none"/>
    </g>
    <radialGradient cx="0" cy="0" gradientTransform="matrix(0.0816, 0.0233, 0.0061, -0.0239, 71.0, 183.35)" gradientUnits="userSpaceOnUse" id="gradient0" r="819.2" spreadMethod="pad">
      <stop offset="0.0" stop-color="#000000" stop-opacity="0.7882353"/>
      <stop offset="1.0" stop-color="#000000" stop-opacity="0.0"/>
    </radialGradient>
  </defs>
</svg>
