<?xml version="1.0" encoding="UTF-8" standalone="no"?>
<svg xmlns:xlink="http://www.w3.org/1999/xlink" height="200.0px" width="107.4px" xmlns="http://www.w3.org/2000/svg">
  <g transform="matrix(1.0, 0.0, 0.0, 1.0, 0.0, 0.0)">
    <use height="196.05" id="LetterBlock_S" transform="matrix(1.0, 0.0, 0.0, 1.0, -0.6, 0.95)" width="107.55" xlink:href="#sprite0"/>
  </g>
  <defs>
    <g id="sprite0" transform="matrix(1.0, 0.0, 0.0, 1.0, 53.6, 100.15)">
      <use height="92.6" transform="matrix(1.0, 0.0, 0.0, 1.0, -48.35, 3.3)" width="96.85" xlink:href="#shape0"/>
    </g>
    <g id="shape0" transform="matrix(1.0, 0.0, 0.0, 1.0, 48.4, 46.3)">
      <path d="M35.05 45.05 Q32.8 45.95 30.7 45.8 28.45 45.7 27.55 43.45 26.7 41.4 27.7 40.5 28.9 39.5 31.9 35.5 L38.9 37.15 36.85 44.1 35.05 45.05" fill="#487485" fill-rule="evenodd" stroke="none"/>
      <path d="M37.9 -42.4 L41.4 -40.9 35.9 -28.9 23.25 -39.4 37.9 -42.4" fill="#82abbf" fill-rule="evenodd" stroke="none"/>
      <path d="M43.7 -41.05 L46.65 -42.75 47.65 -41.5 47.9 27.75 37.5 38.95 37.95 -38.05 39.8 -39.2 Q42.0 -40.5 43.7 -41.05" fill="#c7b48d" fill-rule="evenodd" stroke="none"/>
      <path d="M43.7 -41.05 L46.65 -42.75 47.5 -41.7 47.8 24.15 47.7 27.95 37.5 38.95 37.95 -38.05 39.8 -39.2 Q42.0 -40.5 43.7 -41.05 M46.15 -34.05 L46.15 -38.7 Q46.05 -41.0 45.65 -40.8 L39.85 -37.05 Q38.4 -36.0 38.5 -30.45 L38.5 26.4 Q38.5 34.65 39.0 34.45 L46.35 25.85 46.5 21.8 46.45 16.2 46.15 -34.05" fill="#ffe2a8" fill-rule="evenodd" stroke="none"/>
      <path d="M39.15 -29.85 L39.15 27.05 Q39.15 35.35 39.7 35.05 L47.0 26.45 Q47.2 25.85 47.2 22.45 L47.1 16.85 46.8 -33.4 46.8 -38.05 Q46.7 -40.35 46.3 -40.15 L40.5 -36.4 Q39.05 -35.4 39.15 -29.85 M37.9 -40.8 L47.2 -45.1 Q48.2 -46.85 48.2 -39.05 L48.45 24.75 Q48.45 29.8 47.75 30.1 L36.85 44.1 Q36.25 44.65 36.1 39.85 L36.05 32.25 36.45 -33.15 Q36.45 -36.05 36.8 -38.25 37.25 -40.6 37.9 -40.8" fill="#528396" fill-rule="evenodd" stroke="none"/>
      <path d="M46.2 -31.85 Q46.3 -30.9 45.45 -27.55 44.55 -24.0 44.6 -22.5 L44.2 8.85 44.7 15.4 Q45.05 20.4 44.45 21.5 L44.25 23.2 Q44.25 24.3 43.75 24.7 43.05 25.3 41.8 25.2 40.5 25.1 40.3 24.15 39.95 22.5 40.3 18.3 L40.85 12.9 41.65 6.95 Q42.3 1.5 42.1 -3.5 41.3 -20.1 41.4 -23.75 41.45 -26.8 41.95 -29.2 42.5 -31.95 43.4 -32.35 L44.95 -32.6 Q46.1 -32.55 46.2 -31.85" fill="#ffe2a8" fill-rule="evenodd" stroke="none"/>
      <path d="M45.4 -32.35 Q46.5 -32.8 46.6 -29.45 L46.6 -22.5 46.2 8.85 46.7 15.4 Q47.05 20.4 46.45 21.5 45.55 23.35 44.25 24.55 42.65 25.95 42.3 24.15 41.95 22.5 42.3 18.3 L42.85 12.9 43.65 6.95 Q44.3 1.5 44.1 -3.5 43.3 -20.1 43.4 -23.75 43.45 -26.8 43.95 -29.2 44.5 -31.95 45.4 -32.35" fill="#528396" fill-rule="evenodd" stroke="none"/>
      <path d="M41.4 -45.4 L43.15 -44.8 35.05 -40.8 Q11.3 -40.65 -11.85 -41.15 L-31.9 -41.95 -34.6 -42.4 -21.2 -45.8 -18.85 -46.05 41.4 -45.4" fill="#ffe8bd" fill-rule="evenodd" stroke="none"/>
      <path d="M43.15 -44.8 L35.05 -40.8 26.35 -40.8 33.85 -41.5 38.45 -43.5 Q39.05 -43.95 35.45 -43.95 30.55 -43.9 28.15 -44.0 L-11.45 -45.05 -18.6 -44.7 -30.45 -41.45 -33.45 -41.95 -34.5 -42.35 -22.2 -45.25 -19.3 -45.6 -14.4 -45.75 41.75 -45.3 43.15 -44.8" fill="#ebcf99" fill-rule="evenodd" stroke="none"/>
      <path d="M42.65 -45.85 L46.75 -45.7 Q48.2 -45.5 47.6 -45.3 L36.3 -40.05 33.5 -39.5 27.55 -39.25 -38.8 -39.85 -42.75 -40.3 Q-44.15 -40.7 -43.45 -40.9 L-22.65 -45.8 -19.75 -46.15 -14.8 -46.3 42.65 -45.85 M33.45 -42.1 L39.85 -44.7 Q40.45 -45.1 36.15 -45.15 L28.05 -45.15 -11.9 -45.6 -19.65 -45.4 -31.8 -42.3 -26.4 -42.05 21.45 -41.3 28.4 -41.45 33.45 -42.1" fill="#74a4b8" fill-rule="evenodd" stroke="none"/>
      <path d="M20.4 -44.4 L29.65 -44.75 Q30.3 -44.75 30.3 -43.9 30.35 -43.1 29.9 -42.85 29.05 -42.35 27.2 -42.25 L16.75 -41.7 13.0 -41.7 8.4 -41.7 -1.25 -42.1 -5.95 -42.15 -15.5 -42.25 -17.95 -42.1 -20.0 -42.05 Q-21.5 -42.1 -21.35 -43.25 -21.2 -44.35 -20.6 -44.35 L-15.5 -44.75 -8.2 -45.1 -3.65 -44.9 -0.2 -44.65 Q2.4 -43.8 4.7 -44.05 L8.15 -44.5 10.95 -44.25 Q17.6 -44.15 20.4 -44.4" fill="#ebcf99" fill-rule="evenodd" stroke="none"/>
      <path d="M20.3 -44.8 L28.4 -45.0 Q30.5 -44.95 29.7 -44.65 L27.2 -44.25 16.75 -43.7 13.0 -43.7 8.4 -43.7 -1.25 -44.1 -5.95 -44.15 -15.5 -44.25 -20.0 -44.05 Q-22.25 -44.1 -19.85 -44.55 L-15.2 -45.2 -8.55 -45.4 -4.45 -45.3 -1.5 -45.15 5.55 -44.95 20.3 -44.8" fill="#74a4b8" fill-rule="evenodd" stroke="none"/>
      <path d="M34.2 43.55 L-45.0 40.9 -44.9 -38.45 34.2 -35.55 34.2 43.55" fill="#ffe2a8" fill-rule="evenodd" stroke="none"/>
      <path d="M33.15 -29.9 L27.65 -28.95 Q20.3 -28.15 11.3 -28.8 L-5.9 -30.2 -21.3 -30.85 -37.6 -29.75 -44.9 -28.65 -45.95 -32.9 -46.95 -33.3 -46.05 -33.3 -46.6 -35.5 Q-43.55 -34.75 -38.8 -34.55 L-27.8 -34.45 5.5 -33.35 14.1 -32.85 Q-3.45 -32.65 -11.5 -33.15 -17.55 -33.55 -28.3 -33.45 L-41.65 -33.3 -46.05 -33.3 -45.95 -32.9 -44.75 -32.6 -35.95 -32.0 Q-17.85 -32.3 -2.6 -31.05 L11.75 -29.8 Q15.85 -29.5 20.45 -29.95 27.45 -30.65 32.9 -32.65 L33.15 -29.9" fill="#ebcf99" fill-rule="evenodd" stroke="none"/>
      <path d="M33.45 0.5 L29.45 0.7 14.2 -0.65 -3.2 -2.95 -15.3 -3.3 -30.65 -1.15 -41.95 0.35 -43.8 0.05 -43.65 2.05 -29.35 1.5 Q-40.35 4.8 -42.7 4.75 -43.3 4.75 -43.65 2.05 L-43.9 2.0 Q-46.3 1.55 -45.65 0.65 L-44.55 -0.1 -43.8 0.05 -44.0 -6.95 -44.2 -7.05 -44.25 -9.25 -44.0 -9.2 -44.0 -10.6 -43.95 -13.2 Q-45.2 -14.15 -45.4 -15.25 -45.65 -16.55 -43.9 -16.45 L-43.85 -17.8 -44.85 -18.1 -44.75 -19.1 Q-44.5 -19.7 -43.8 -19.7 L-43.6 -25.9 Q-40.3 -23.95 -35.25 -22.7 -28.15 -21.0 -21.85 -22.1 L-5.35 -24.6 10.0 -25.65 21.85 -25.1 Q28.15 -24.85 30.1 -25.2 L34.0 -26.15 33.7 -23.05 13.65 -23.85 Q9.25 -24.15 3.55 -23.75 -2.65 -23.35 -8.2 -22.15 -13.75 -20.95 -27.7 -19.95 -41.35 -19.0 -43.05 -19.55 L-43.8 -19.7 -43.85 -17.8 -41.95 -17.6 Q-37.8 -17.2 -31.45 -17.85 L-16.75 -18.4 -5.05 -17.9 8.65 -16.5 22.6 -15.8 29.6 -16.45 32.9 -17.3 32.9 -15.5 27.9 -14.6 Q21.65 -13.85 15.6 -14.65 L-0.85 -16.0 Q-10.25 -16.35 -16.9 -15.75 -23.15 -15.2 -32.1 -15.5 L-43.15 -16.35 -43.9 -16.45 -43.95 -13.2 -42.85 -12.5 Q-39.45 -10.6 -31.05 -8.85 -20.1 -6.5 -11.3 -7.45 L5.05 -8.25 18.95 -7.3 Q25.35 -6.75 30.3 -7.5 32.8 -7.85 34.0 -8.35 L33.7 -5.3 26.65 -5.1 9.05 -6.05 Q1.15 -6.9 -10.15 -6.25 -21.55 -5.6 -24.3 -5.9 -31.5 -6.65 -44.0 -9.2 L-44.0 -6.95 -39.4 -5.75 Q-33.05 -4.45 -25.6 -4.3 -19.7 -4.2 -10.55 -4.4 -2.9 -4.6 0.3 -4.4 L13.8 -3.3 26.7 -2.7 33.55 -3.25 33.45 0.5" fill="#ebcf99" fill-rule="evenodd" stroke="none"/>
      <path d="M11.0 2.75 L1.75 0.35 -11.4 -0.35 -19.15 0.35 -17.85 -0.05 -13.9 -0.55 Q-1.35 -2.0 8.1 0.15 16.7 2.05 26.9 3.35 26.9 3.55 26.05 3.75 L20.0 3.95 11.0 2.75" fill="#ebcf99" fill-rule="evenodd" stroke="none"/>
      <path d="M32.6 7.75 Q33.35 7.95 32.8 8.05 L34.0 10.25 30.45 10.25 26.55 9.95 21.1 8.95 14.65 8.25 11.3 8.3 14.4 7.7 Q18.8 7.2 25.2 7.75 L32.75 8.05 32.8 8.05 32.6 7.75" fill="#ebcf99" fill-rule="evenodd" stroke="none"/>
      <path d="M-44.2 7.55 L-44.25 7.1 -43.9 6.7 -44.2 7.55 -43.75 7.85 -30.0 7.25 -9.5 5.15 Q-3.55 4.85 3.15 5.0 L9.1 5.2 4.4 5.15 Q-5.55 5.2 -11.6 6.4 -18.25 7.75 -29.35 8.95 L-42.15 9.95 -45.1 9.8 -44.2 7.55" fill="#ebcf99" fill-rule="evenodd" stroke="none"/>
      <path d="M-44.55 11.4 L-34.85 12.2 -27.75 12.05 Q-41.4 14.85 -43.45 14.8 -44.75 14.75 -44.75 13.1 L-44.55 11.4" fill="#ebcf99" fill-rule="evenodd" stroke="none"/>
      <path d="M-43.7 17.0 L-37.9 17.15 -22.9 15.8 -5.35 13.15 Q4.15 12.1 11.55 13.15 18.75 14.15 26.3 17.0 30.05 18.4 32.4 19.6 L33.35 22.2 Q31.3 20.8 27.9 19.2 21.1 16.05 14.2 15.3 L-1.05 14.2 Q-8.55 14.15 -15.9 15.55 -41.35 20.25 -43.15 20.2 -44.2 20.15 -44.05 18.6 L-43.7 17.0" fill="#ebcf99" fill-rule="evenodd" stroke="none"/>
      <path d="M33.5 29.8 L28.4 30.75 17.75 31.2 2.7 29.35 -16.75 27.3 Q-24.95 26.75 -35.5 29.4 -40.75 30.75 -44.4 32.2 L-44.4 26.7 -45.5 27.4 -44.85 21.1 -44.4 24.85 -44.45 21.1 -40.85 21.1 Q-35.8 20.8 -28.6 19.35 -15.55 16.7 -11.05 16.25 -0.95 15.15 7.85 17.2 21.3 20.25 32.95 23.85 L33.4 26.5 27.4 24.05 Q19.65 21.25 11.0 19.6 1.6 17.85 -9.25 18.05 -18.2 18.2 -24.1 19.45 -30.65 20.9 -44.4 25.15 L-44.4 24.85 -44.4 26.7 Q-43.15 26.05 -40.95 25.5 -34.35 23.8 -23.85 24.65 -15.9 25.3 -0.7 27.8 11.9 29.85 16.7 29.75 25.85 29.6 33.8 28.3 L33.5 29.8" fill="#ebcf99" fill-rule="evenodd" stroke="none"/>
      <path d="M-10.4 20.65 L0.2 20.15 Q6.75 20.6 9.15 22.6 11.7 24.7 8.75 25.4 L-0.3 25.05 Q-6.9 23.9 -10.05 22.7 -13.6 21.3 -10.4 20.65" fill="#ebcf99" fill-rule="evenodd" stroke="none"/>
      <path d="M34.05 33.4 Q33.1 34.0 30.85 34.5 26.35 35.6 19.9 35.3 L3.1 34.75 Q-6.45 34.7 -9.65 36.05 L-15.95 39.1 Q-19.4 40.65 -23.35 40.6 L-39.25 39.6 -27.15 38.95 Q-21.15 38.2 -15.15 36.2 -9.45 34.3 -0.2 33.8 6.3 33.45 13.25 33.8 L25.75 32.85 33.4 31.4 33.8 32.3 34.05 33.4" fill="#ebcf99" fill-rule="evenodd" stroke="none"/>
      <path d="M33.35 38.3 Q27.05 38.4 16.15 37.95 L0.75 38.65 Q-5.85 39.55 -9.0 40.7 L-12.75 41.1 -13.95 40.55 Q-9.5 38.35 -6.95 37.7 -0.2 35.9 9.3 36.55 18.65 37.2 27.0 36.65 L33.5 35.95 33.35 38.3" fill="#ebcf99" fill-rule="evenodd" stroke="none"/>
      <path d="M2.8 41.05 L7.15 40.35 Q17.2 38.75 20.55 39.2 24.05 39.65 26.35 40.95 L27.9 42.2 24.8 42.85 Q23.5 42.05 21.6 41.2 17.8 39.55 14.75 39.5 11.7 39.45 8.6 40.65 7.35 41.25 6.05 41.8 L4.4 41.35 2.8 41.05" fill="#ebcf99" fill-rule="evenodd" stroke="none"/>
      <path d="M-19.6 -26.0 Q-20.2 -23.25 -26.4 -23.65 -33.35 -24.1 -37.35 -25.65 -41.5 -27.25 -37.35 -28.25 L-31.05 -29.45 Q-26.95 -29.95 -23.45 -29.4 -19.0 -28.75 -19.6 -26.0 M-24.1 -26.2 Q-21.35 -26.95 -23.05 -27.9 -24.75 -28.85 -29.15 -28.6 -33.4 -28.4 -35.65 -27.3 -36.7 -26.8 -35.25 -26.45 L-30.25 -25.8 -24.1 -26.2" fill="#ebcf99" fill-rule="evenodd" stroke="none"/>
      <path d="M-33.65 33.35 L-38.05 34.65 Q-39.5 35.25 -33.55 35.45 L-24.3 35.1 Q-21.0 34.55 -21.5 33.45 -21.95 32.4 -25.6 32.25 -28.65 32.1 -33.65 33.35 M-42.35 35.1 Q-38.75 32.65 -31.7 31.4 -24.35 30.1 -19.7 31.35 -15.15 32.6 -18.05 34.9 -20.9 37.1 -25.9 37.15 L-37.6 36.9 Q-44.3 36.45 -42.35 35.1" fill="#ebcf99" fill-rule="evenodd" stroke="none"/>
      <path d="M18.55 -38.5 L25.3 -38.2 Q28.35 -36.95 29.55 -36.7 33.3 -35.9 32.95 -34.6 L32.4 -33.55 Q32.0 -32.9 32.2 -32.5 32.7 -31.55 32.1 -30.05 31.55 -28.45 31.4 -29.7 31.25 -30.75 29.8 -31.45 L26.55 -32.2 -35.95 -33.35 Q-37.5 -33.35 -38.0 -31.25 -38.3 -30.15 -38.45 -26.5 L-38.65 -3.15 -38.45 32.1 Q-38.4 34.25 -37.9 35.7 -37.4 37.05 -36.8 37.15 L-35.6 39.3 -41.45 39.5 Q-42.8 39.35 -46.8 36.55 L-45.95 9.3 -45.65 -30.15 -41.8 -38.35 Q9.05 -38.2 18.55 -38.5" fill="#b59c6f" fill-rule="evenodd" stroke="none"/>
      <path d="M33.05 32.75 L33.05 -29.2 Q33.05 -31.7 31.3 -33.55 29.5 -35.35 27.0 -35.45 L-34.4 -37.05 Q-36.9 -37.1 -38.7 -35.4 -40.45 -33.65 -40.45 -31.1 L-40.45 30.85 Q-40.45 33.35 -38.7 35.2 -36.95 37.05 -34.45 37.1 L27.0 38.7 Q29.45 38.8 31.25 37.0 33.0 35.25 33.05 32.75 M33.45 38.5 L33.6 42.8 Q33.4 44.2 30.9 44.15 L-39.0 42.4 Q-41.9 42.35 -44.05 40.1 -46.2 37.85 -46.2 34.95 L-45.9 -35.85 Q-45.9 -38.5 -43.8 -39.4 -42.3 -40.1 -38.85 -40.0 L25.95 -38.0 31.15 -37.65 Q33.45 -37.0 33.45 -34.5 L33.45 38.5" fill="#fff2d1" fill-rule="evenodd" stroke="none"/>
      <path d="M-45.2 -14.2 Q-45.35 -15.7 -44.35 -32.2 L-43.35 -35.85 -38.05 -38.85 -36.0 -36.85 Q-37.95 -36.4 -39.2 -34.8 -40.45 -33.2 -40.45 -31.1 L-40.45 30.85 Q-40.45 34.1 -37.8 36.0 -38.95 36.35 -39.4 37.25 -39.9 38.25 -39.25 39.6 -38.8 40.4 -39.1 41.2 -39.35 41.9 -40.1 42.3 -43.1 41.7 -44.95 38.95 L-45.05 38.65 Q-45.75 34.9 -45.5 10.5 L-45.2 -14.2" fill="#c7b48d" fill-rule="evenodd" stroke="none"/>
      <path d="M31.05 -27.2 Q31.05 -29.8 29.2 -32.05 27.25 -34.45 24.8 -34.5 L-37.05 -36.0 Q-39.5 -36.05 -41.55 -33.9 -43.55 -31.75 -43.55 -29.2 L-42.85 33.5 Q-42.9 35.9 -40.9 37.5 -39.05 39.0 -36.45 39.1 L25.0 40.7 Q27.45 40.8 29.25 39.0 31.0 37.25 31.05 34.75 L31.05 -27.2 M34.3 -36.7 Q36.2 -34.6 36.2 -31.7 L36.05 39.6 Q36.05 42.45 33.9 44.35 31.85 46.25 28.9 46.15 L-41.0 44.4 Q-43.9 44.35 -46.05 42.1 -48.2 39.85 -48.2 36.95 L-47.9 -33.85 Q-47.9 -36.75 -45.85 -38.75 -43.85 -40.7 -40.95 -40.65 L29.55 -38.85 Q32.4 -38.75 34.3 -36.7" fill="#ebcf99" fill-rule="evenodd" stroke="none"/>
      <path d="M-44.6 6.3 Q-43.3 6.4 -43.4 5.7 -43.65 5.3 -44.6 5.3 L-44.6 6.3 M-44.65 -2.6 L-44.25 -2.85 Q-44.45 -3.9 -44.9 -4.05 -45.35 -3.65 -45.25 -2.55 L-44.65 -2.6 M-44.9 -5.55 Q-44.95 -4.95 -44.55 -4.7 -44.35 -4.9 -44.45 -5.2 L-44.9 -5.55 M-47.7 -4.6 L-47.0 -4.35 -46.4 -4.4 Q-46.4 -4.85 -46.85 -5.1 -47.3 -5.4 -47.7 -5.1 L-47.7 -4.6 M-46.1 -6.25 L-46.9 -6.1 -46.3 -5.65 -45.55 -5.7 Q-45.5 -6.1 -46.1 -6.25 M-46.9 -12.75 L-47.55 -12.7 -48.05 -12.45 Q-47.9 -11.7 -46.9 -11.6 -46.7 -11.75 -46.7 -12.15 L-46.9 -12.75 M31.05 -31.25 L31.25 -32.0 Q31.25 -32.6 30.9 -32.6 30.65 -32.35 30.75 -31.9 30.8 -31.45 31.05 -31.25 M30.9 -36.1 Q31.7 -35.65 32.1 -36.95 32.45 -38.2 31.2 -38.25 L31.0 -37.2 30.9 -36.1 M36.5 -32.1 L36.5 -26.1 35.35 -25.8 Q35.6 -25.0 36.5 -24.9 L36.5 -3.15 35.35 -1.8 Q35.05 -1.85 34.5 -2.3 L33.5 -2.65 Q33.4 -2.1 33.7 -1.65 L34.0 -0.8 33.4 -0.15 Q32.95 0.25 32.85 0.65 34.05 1.35 33.55 2.5 L32.5 5.0 32.0 6.8 Q31.7 7.75 31.7 8.3 32.85 7.95 33.55 4.7 34.4 0.95 34.85 0.35 35.35 -0.25 36.5 -0.35 L36.5 15.2 36.05 15.4 36.05 15.75 35.85 16.55 35.65 16.8 35.4 19.65 Q35.2 20.05 35.1 19.8 34.95 19.6 35.15 19.15 L35.1 17.6 34.6 15.75 34.4 15.8 34.7 17.75 Q34.7 18.2 34.4 18.25 L33.9 18.4 Q33.75 18.6 33.9 19.2 L34.05 20.4 Q34.0 20.9 33.75 20.75 L32.95 20.3 32.2 20.15 31.7 19.9 31.95 18.0 31.9 17.15 31.4 16.4 Q31.05 15.95 31.6 15.3 L31.35 15.15 31.5 13.85 Q31.6 13.1 31.35 12.65 L31.0 12.65 31.0 -27.65 Q31.0 -30.15 29.25 -32.0 27.45 -33.8 24.95 -33.9 L-36.85 -35.5 Q-39.35 -35.55 -41.15 -33.85 -42.9 -32.1 -42.9 -29.55 L-42.9 -21.6 Q-44.55 -21.5 -45.25 -22.9 L-46.4 -22.75 Q-46.3 -21.4 -45.25 -20.4 -44.2 -19.35 -42.9 -19.3 L-42.9 -3.15 Q-43.3 -2.8 -43.25 -2.15 L-42.9 -2.1 -42.95 32.8 -42.6 34.75 Q-44.45 33.7 -45.75 33.5 -46.6 33.8 -46.5 34.85 -46.45 35.65 -45.9 36.5 -46.05 37.3 -46.8 37.75 L-48.3 38.4 -48.4 37.25 -48.4 28.3 -47.25 27.3 -48.4 27.2 -48.4 -13.85 Q-47.95 -14.55 -48.4 -15.05 L-48.4 -34.3 Q-48.4 -37.2 -46.35 -39.2 -44.3 -41.2 -41.4 -41.15 L29.55 -39.3 Q32.45 -39.2 34.45 -37.1 36.5 -35.0 36.5 -32.1" fill="#5c92a8" fill-rule="evenodd" stroke="none"/>
      <path d="M29.55 40.8 Q29.05 41.2 28.35 41.4 L29.15 42.5 29.3 42.3 29.9 41.3 29.55 40.8 M31.85 38.5 L31.85 39.65 Q31.9 40.3 32.2 40.5 L32.5 39.6 Q32.6 38.9 32.35 38.5 L31.85 38.5 M31.2 35.0 Q30.85 36.25 31.35 36.35 31.95 35.3 31.2 35.0 M10.35 41.6 Q9.8 42.55 10.15 42.95 L11.0 42.8 Q10.7 41.8 10.35 41.6 M-35.0 43.1 Q-34.7 42.8 -35.0 42.4 -35.25 42.05 -35.65 41.95 -35.95 42.3 -35.75 42.75 -35.55 43.2 -35.0 43.1 M-39.45 40.15 Q-39.8 40.0 -40.0 40.15 L-40.3 40.45 -39.9 41.5 -39.4 41.8 -39.65 41.35 Q-39.25 40.65 -39.45 40.15 M35.9 22.55 L35.75 22.85 36.45 23.05 36.45 34.15 36.3 34.45 36.45 34.6 36.45 39.45 Q36.45 41.75 35.1 43.55 33.8 45.35 31.7 46.0 L31.5 44.95 29.7 45.2 29.95 46.3 -36.9 44.6 -37.15 44.55 -38.4 44.55 -38.3 42.7 -38.9 42.65 -39.15 43.4 Q-39.4 44.25 -40.3 44.4 L-42.55 44.2 Q-43.75 43.95 -45.0 43.0 L-46.3 41.7 Q-46.5 40.7 -47.0 40.2 -47.3 39.85 -47.1 39.5 L-46.75 39.0 -46.05 38.05 Q-45.9 37.85 -45.4 38.05 L-44.35 38.5 -43.45 38.45 -42.8 38.0 -42.25 37.95 Q-42.9 37.15 -42.95 36.25 L-42.25 35.6 Q-41.5 37.15 -40.05 38.05 -38.6 39.0 -36.85 39.05 L-16.35 39.6 -16.3 40.25 -15.95 39.6 -3.9 39.95 Q-3.9 40.75 -3.55 40.75 L-3.2 40.5 Q-2.95 40.4 -3.05 40.1 -3.25 39.95 -3.55 39.95 L24.9 40.65 Q27.4 40.75 29.2 39.0 31.0 37.25 31.0 34.7 L31.0 29.05 Q31.2 31.05 31.7 33.0 L32.65 32.5 Q32.25 31.9 32.35 30.85 L32.5 28.85 31.8 26.45 Q31.4 25.1 32.35 24.35 L32.1 22.9 Q32.1 22.2 32.7 21.85 L32.05 21.4 31.5 20.8 32.8 21.0 34.0 21.75 34.8 20.9 Q35.45 20.45 35.8 21.25 36.05 21.9 35.9 22.55" fill="#5c92a8" fill-rule="evenodd" stroke="none"/>
      <path d="M14.85 -23.3 Q17.1 -23.3 20.0 -19.5 23.2 -15.3 23.2 -10.7 23.2 -8.55 22.05 -6.95 20.75 -5.25 18.75 -5.25 16.55 -5.25 11.85 -9.8 7.1 -14.4 2.8 -14.4 0.8 -14.4 -0.5 -13.45 -2.05 -12.4 -2.05 -10.4 -2.05 -6.9 4.25 -4.95 13.65 -2.05 17.15 0.4 20.75 2.9 22.45 6.0 24.2 9.25 24.2 13.65 24.2 21.6 18.35 27.1 11.5 33.55 -0.75 33.55 L-10.0 32.55 Q-15.65 31.45 -18.7 29.7 -21.15 28.25 -22.75 23.1 -24.1 18.75 -24.1 15.0 -24.1 13.2 -23.35 12.05 -22.5 10.7 -20.9 10.7 -19.2 10.7 -17.7 12.7 L-14.9 17.05 Q-10.5 23.4 -2.45 23.4 -0.6 23.4 1.1 22.6 3.4 21.5 3.4 19.5 3.4 16.45 -2.85 14.3 -11.6 11.25 -15.45 8.05 -18.75 5.25 -20.6 1.85 -22.65 -1.95 -22.65 -6.05 -22.65 -13.05 -17.0 -18.5 -10.6 -24.7 -0.3 -24.7 2.6 -24.7 6.8 -23.5 L11.15 -22.35 12.8 -22.8 14.85 -23.3" fill="#b59c6f" fill-rule="evenodd" stroke="none"/>
      <path d="M3.8 -27.5 L8.15 -26.35 9.8 -26.8 11.85 -27.3 Q14.1 -27.3 17.0 -23.5 20.2 -19.3 20.2 -14.7 20.2 -12.55 19.05 -10.95 17.75 -9.25 15.75 -9.25 13.55 -9.25 8.85 -13.8 4.1 -18.4 -0.2 -18.4 -2.2 -18.4 -3.5 -17.45 -5.05 -16.4 -5.05 -14.4 -5.05 -10.9 1.25 -8.95 10.65 -6.05 14.15 -3.6 17.75 -1.1 19.45 2.0 21.2 5.25 21.2 9.65 21.2 17.6 15.35 23.1 8.5 29.55 -3.75 29.55 -7.9 29.55 -13.0 28.55 -18.65 27.45 -21.7 25.7 -24.15 24.25 -25.75 19.1 -27.1 14.75 -27.1 11.0 -27.1 9.2 -26.35 8.05 -25.5 6.7 -23.9 6.7 -22.2 6.7 -20.7 8.7 L-17.9 13.05 Q-13.5 19.4 -5.45 19.4 -3.6 19.4 -1.9 18.6 0.4 17.5 0.4 15.5 0.4 12.45 -5.85 10.3 -14.6 7.25 -18.45 4.05 -21.75 1.25 -23.6 -2.15 -25.65 -5.95 -25.65 -10.05 -25.65 -17.05 -20.0 -22.5 -13.6 -28.7 -3.3 -28.7 -0.4 -28.7 3.8 -27.5" fill="#fff2d1" fill-rule="evenodd" stroke="none"/>
      <path d="M-16.85 22.3 Q-16.1 24.4 -20.45 22.35 -24.8 20.25 -25.35 18.05 -26.0 15.6 -25.05 12.75 -23.9 9.2 -20.9 8.45 -19.9 9.7 -17.85 13.05 -15.7 16.2 -13.0 17.65 -15.0 18.55 -16.05 19.7 -17.35 21.05 -16.85 22.3" fill="#c7b48d" fill-rule="evenodd" stroke="none"/>
      <path d="M2.1 3.05 L9.9 -0.2 Q11.7 1.5 13.55 1.5 15.7 1.55 17.35 -0.85 21.2 3.3 21.2 9.65 21.2 17.6 15.35 23.1 8.5 29.55 -3.75 29.55 L-13.25 28.5 -10.6 27.8 Q-4.75 27.0 0.2 24.95 5.35 22.75 5.9 20.55 7.35 17.1 7.3 15.2 7.25 11.8 2.15 10.05 -1.65 8.8 -4.2 10.85 L-8.05 9.55 -12.45 7.8 Q-6.8 6.6 2.1 3.05" fill="#c7b48d" fill-rule="evenodd" stroke="none"/>
      <path d="M12.85 -27.1 Q15.3 -26.15 17.6 -22.7 20.2 -18.8 20.2 -14.7 20.2 -12.55 19.05 -10.95 17.75 -9.25 15.75 -9.25 13.55 -9.25 8.85 -13.8 4.1 -18.4 -0.2 -18.4 -2.2 -18.4 -3.5 -17.45 -5.05 -16.4 -5.05 -14.4 -5.05 -11.7 -2.25 -10.25 -3.85 -9.75 -4.5 -8.5 -5.15 -7.25 -4.35 -6.2 -3.75 -5.35 -5.9 -6.9 -8.15 -8.45 -10.35 -10.5 -16.85 -16.6 -13.35 -18.2 -9.9 -19.75 0.2 -21.15 L9.65 -22.2 Q9.85 -23.85 10.65 -25.15 11.55 -26.6 12.85 -27.1" fill="#c7b48d" fill-rule="evenodd" stroke="none"/>
      <path d="M0.8 -25.5 L5.15 -24.35 6.8 -24.8 8.85 -25.3 Q11.1 -25.3 14.0 -21.5 17.2 -17.3 17.2 -12.7 17.2 -10.55 16.05 -8.95 14.75 -7.25 12.75 -7.25 10.55 -7.25 5.85 -11.8 1.1 -16.4 -3.2 -16.4 -5.2 -16.4 -6.5 -15.45 -8.05 -14.4 -8.05 -12.4 -8.05 -8.9 -1.75 -6.95 7.65 -4.05 11.15 -1.6 14.75 0.9 16.45 4.0 18.2 7.25 18.2 11.65 18.2 19.6 12.35 25.1 5.5 31.55 -6.75 31.55 L-16.0 30.55 Q-21.65 29.45 -24.7 27.7 -27.15 26.25 -28.75 21.1 -30.1 16.75 -30.1 13.0 -30.1 11.2 -29.35 10.05 -28.5 8.7 -26.9 8.7 -25.2 8.7 -23.7 10.7 L-20.9 15.05 Q-16.5 21.4 -8.45 21.4 -6.6 21.4 -4.9 20.6 -2.6 19.5 -2.6 17.5 -2.6 14.45 -8.85 12.3 -17.6 9.25 -21.45 6.05 -24.75 3.25 -26.6 -0.15 -28.65 -3.95 -28.65 -8.05 -28.65 -15.05 -23.0 -20.5 -16.6 -26.7 -6.3 -26.7 -3.4 -26.7 0.8 -25.5" fill="#ffe2a8" fill-rule="evenodd" stroke="none"/>
      <path d="M10.0 22.35 Q11.0 21.85 11.15 20.75 11.3 19.65 10.4 19.9 9.1 20.2 8.4 21.4 7.75 22.5 8.45 22.65 L9.0 22.8 10.0 22.35 M-0.25 7.95 L0.05 7.6 Q0.2 7.4 -0.25 7.0 -1.15 6.25 -3.7 6.55 -4.55 6.7 -4.6 7.2 -4.7 7.75 -3.55 7.8 L-2.45 7.8 -2.0 7.95 -0.8 8.3 Q-0.25 8.3 -0.25 7.95 M-14.35 23.9 L-13.75 24.25 -13.3 24.05 -12.3 23.25 Q-12.05 22.85 -13.3 22.95 -14.0 23.0 -14.55 23.4 -15.1 23.8 -14.35 23.9 M-6.3 -26.7 Q-3.4 -26.7 0.8 -25.5 L5.15 -24.35 6.8 -24.8 8.85 -25.3 Q11.1 -25.3 14.0 -21.5 17.2 -17.3 17.2 -12.7 17.2 -10.55 16.05 -8.95 14.75 -7.25 12.75 -7.25 10.55 -7.25 5.85 -11.8 1.1 -16.4 -3.2 -16.4 -5.2 -16.4 -6.5 -15.45 -8.05 -14.4 -8.05 -12.4 L-7.85 -11.05 -8.85 -10.75 -10.1 -10.55 Q-10.8 -10.4 -10.3 -9.9 L-9.95 -9.45 -8.55 -9.5 -6.85 -9.4 Q-5.5 -8.05 0.65 -6.25 7.4 -4.2 11.15 -1.6 14.75 0.9 16.45 4.0 18.2 7.25 18.2 11.65 18.2 19.6 12.35 25.1 5.5 31.55 -6.75 31.55 L-16.0 30.55 Q-21.65 29.45 -24.7 27.7 -27.15 26.25 -28.75 21.1 -30.1 16.75 -30.1 13.0 -30.1 11.2 -29.35 10.05 -28.5 8.7 -26.9 8.7 -24.9 8.7 -22.75 12.1 -19.8 16.8 -17.95 18.35 -20.2 19.1 -19.8 19.6 L-19.35 20.95 Q-19.2 21.6 -18.2 21.4 L-16.65 21.05 -15.45 20.45 -14.9 20.2 Q-12.1 21.4 -8.45 21.4 -6.6 21.4 -4.9 20.6 -2.6 19.5 -2.6 17.5 -2.6 14.45 -8.85 12.3 -17.6 9.25 -21.45 6.05 -24.75 3.25 -26.6 -0.15 -28.65 -3.95 -28.65 -8.05 -28.65 -15.05 -23.0 -20.5 -16.6 -26.7 -6.3 -26.7" fill="#5c92a8" fill-rule="evenodd" stroke="none"/>
    </g>
  </defs>
</svg>
