<?xml version="1.0" encoding="UTF-8" standalone="no"?>
<svg xmlns:xlink="http://www.w3.org/1999/xlink" height="57.9px" width="51.0px" xmlns="http://www.w3.org/2000/svg">
  <g transform="matrix(1.0, 0.0, 0.0, 1.0, 0.0, 0.0)">
    <use height="57.9" transform="matrix(1.0, 0.0, 0.0, 1.0, 0.0, 0.0)" width="50.4" xlink:href="#shape0"/>
  </g>
  <defs>
    <g id="shape0" transform="matrix(1.0, 0.0, 0.0, 1.0, 0.0, 0.0)">
      <path d="M2.95 0.25 L6.7 0.0 25.6 1.15 34.85 1.65 43.45 2.3 50.4 3.0 47.2 3.45 36.35 2.65 18.95 1.4 2.95 0.25" fill="#968251" fill-rule="evenodd" stroke="none"/>
      <path d="M2.6 3.75 L2.95 0.25 18.95 1.4 36.35 2.65 47.2 3.45 48.05 3.5 48.15 3.5 48.1 3.95 48.05 4.35 43.55 4.2 40.65 4.0 37.7 3.85 32.05 3.7 27.7 3.15 21.75 2.75 15.15 2.4 5.1 1.75 3.85 1.85 Q3.45 1.9 3.2 2.45 L2.8 3.3 2.6 3.75 M5.0 7.8 L4.25 8.15 3.55 8.8 Q3.25 9.3 3.35 10.05 L3.85 10.05 4.3 10.15 4.05 10.4 3.9 10.65 3.75 11.6 3.7 12.0 3.5 13.65 3.5 14.3 3.4 14.45 3.35 14.45 2.75 14.65 2.8 14.45 3.0 12.1 3.15 10.6 3.35 8.25 3.4 8.25 Q3.7 8.05 3.95 8.0 L4.25 7.95 5.15 7.7 5.0 7.8 M2.35 19.5 L2.55 17.15 6.9 16.95 5.65 17.4 4.15 17.85 Q3.35 18.2 3.1 18.55 L2.9 19.1 2.8 19.45 2.7 19.65 2.3 20.2 2.25 20.25 2.35 19.5 M4.9 24.85 L4.95 24.85 5.4 24.85 5.75 24.8 5.9 24.85 6.5 25.0 11.0 25.9 6.6 25.8 2.85 24.95 3.55 24.9 4.9 24.85 M43.9 6.0 L43.85 5.75 46.3 5.85 47.05 5.95 45.7 5.95 43.9 6.0 M43.8 19.15 L45.6 19.45 41.1 18.9 46.55 18.9 46.55 19.1 43.2 19.05 43.8 19.15" fill="#e2cd9a" fill-rule="evenodd" stroke="none"/>
      <path d="M33.55 32.4 L30.5 32.15 27.15 31.85 27.1 31.85 18.2 31.15 18.15 31.15 18.1 31.1 12.35 28.85 9.3 27.55 1.55 27.85 1.4 29.6 14.15 30.85 6.4 30.2 0.0 29.6 0.4 25.65 5.85 25.8 2.8 25.2 0.5 24.75 1.65 24.95 4.75 24.8 4.9 24.85 3.55 24.9 2.85 24.95 6.6 25.8 11.0 25.9 6.5 25.0 12.6 25.8 Q15.4 26.1 21.0 28.4 L26.45 28.75 37.15 27.4 45.75 27.15 45.35 31.15 45.4 30.5 45.4 30.45 36.1 31.75 32.55 32.3 33.55 32.4 M0.6 24.1 L0.75 22.2 1.25 22.1 3.8 21.9 4.5 21.9 2.5 22.1 2.1 22.2 1.95 23.45 0.65 23.45 0.6 24.1 M0.95 20.25 L1.3 17.0 8.3 16.55 12.5 21.75 Q14.25 24.15 15.95 25.3 L15.45 25.15 Q11.4 23.85 8.9 21.75 6.55 19.75 5.7 19.55 L2.8 19.45 2.9 19.1 3.1 18.55 Q3.35 18.2 4.15 17.85 L5.65 17.4 6.9 16.95 2.55 17.15 2.35 19.5 1.45 19.65 1.0 20.2 0.95 20.25 M1.35 16.45 L1.5 15.0 4.5 14.95 2.75 15.0 2.65 15.95 1.4 15.95 1.35 16.45 M1.5 14.65 L2.15 8.25 2.2 8.25 2.8 8.0 4.1 7.7 3.25 8.1 4.25 7.95 3.95 8.0 Q3.7 8.05 3.4 8.25 L3.35 8.25 3.15 10.6 2.75 10.65 2.6 11.6 2.5 12.2 3.0 12.1 2.8 14.45 2.15 14.45 1.5 14.65 M2.25 7.5 L2.35 6.65 6.15 6.25 3.5 6.65 3.45 7.15 3.15 7.2 2.25 7.5 M2.4 5.8 L2.55 4.6 4.85 4.05 Q7.3 3.5 12.7 3.9 L20.35 4.8 20.45 4.85 Q20.75 5.1 21.75 5.3 L22.9 5.45 29.95 5.85 35.55 5.4 24.05 5.25 20.8 4.8 20.75 4.75 24.85 5.25 37.45 5.4 31.3 5.85 36.7 5.8 41.65 5.8 Q40.1 6.6 39.15 7.9 40.55 8.6 40.2 9.25 L36.95 6.55 Q35.45 7.55 35.9 9.9 L28.15 9.05 25.85 8.4 26.6 8.8 27.3 9.05 35.9 9.95 36.0 10.35 32.7 10.45 35.8 10.15 26.3 9.05 25.65 8.8 25.0 8.4 23.85 7.9 24.2 7.85 20.25 6.6 20.25 6.05 20.1 6.55 16.25 5.55 12.15 5.15 Q12.4 4.6 11.8 4.05 11.3 4.9 10.75 4.6 L9.35 4.55 9.4 5.2 2.4 5.8 M3.2 2.45 Q3.45 1.9 3.85 1.85 L5.1 1.75 15.15 2.4 21.75 2.75 27.7 3.15 32.05 3.7 37.7 3.85 40.65 4.0 43.55 4.2 48.05 4.35 48.1 3.95 48.0 5.0 Q36.65 4.75 30.35 5.0 L22.4 4.5 14.7 2.9 3.2 2.45 M13.55 6.25 L14.65 6.25 Q17.2 6.35 19.95 7.3 19.8 8.65 20.15 10.6 L17.1 9.95 16.7 9.3 15.9 9.75 15.2 9.65 16.15 9.15 15.35 7.8 Q14.6 8.1 14.35 8.65 L14.25 9.6 13.95 9.55 14.05 9.4 13.65 8.75 Q12.65 8.65 11.75 9.35 L11.85 9.55 11.3 9.55 Q11.4 9.25 11.0 8.9 10.6 8.4 9.85 9.05 L9.4 9.7 4.05 10.4 4.3 10.15 3.85 10.05 3.35 10.05 Q3.25 9.3 3.55 8.8 L4.25 8.15 5.0 7.8 8.9 6.85 9.4 6.75 Q10.15 6.7 10.35 7.05 L9.15 7.4 Q8.6 7.6 8.85 8.3 9.25 8.15 9.9 8.6 11.05 6.65 13.35 6.7 13.3 6.45 13.55 6.25 M14.15 8.1 Q15.3 7.5 14.8 6.8 13.85 6.7 12.85 7.4 13.05 8.7 14.15 8.1 M12.9 8.25 Q12.2 6.7 11.1 7.5 L11.2 8.2 Q11.2 8.65 11.55 9.0 L12.9 8.25 M11.8 11.45 L12.6 11.45 12.55 11.55 Q12.85 12.5 13.85 12.15 L14.75 11.55 16.45 11.65 16.15 12.2 Q16.45 13.15 17.45 12.8 18.3 12.5 18.55 11.9 L20.5 12.2 21.25 14.8 22.1 17.9 21.5 17.75 Q21.7 17.2 21.0 16.55 L19.75 17.25 18.4 16.8 17.95 16.05 Q17.3 15.7 16.65 16.2 L15.5 15.85 15.8 15.8 17.35 15.05 Q17.1 13.85 16.0 14.1 14.95 14.3 14.7 15.15 14.85 15.55 15.15 15.75 L14.9 15.65 14.55 15.55 13.85 15.4 13.05 15.2 13.5 14.85 Q13.9 14.35 13.4 13.7 L12.0 14.0 Q11.3 14.45 11.45 14.95 L9.8 14.75 6.65 14.55 5.65 14.45 5.7 14.5 3.4 14.45 3.5 14.3 3.5 13.65 3.7 12.0 10.25 11.45 10.65 12.15 11.8 11.45 M10.65 10.45 L10.45 10.5 9.8 10.5 11.4 10.1 12.1 9.95 12.15 10.05 11.8 10.1 10.65 10.45 M13.0 13.05 L12.2 11.7 10.5 12.65 Q11.1 14.35 13.0 13.05 M17.15 10.25 L20.25 11.2 20.3 11.35 17.15 10.3 17.15 10.25 M13.55 13.2 L14.1 14.2 16.2 13.05 Q15.95 11.85 14.85 12.1 13.8 12.35 13.55 13.2 M2.8 3.3 L5.05 3.05 4.55 3.2 3.95 3.3 3.95 3.4 2.6 3.75 2.8 3.3 M19.45 26.35 L20.25 26.15 20.5 26.6 19.45 26.35 M21.1 27.3 L21.2 27.4 21.3 27.45 21.25 27.45 20.65 27.3 20.45 27.25 21.1 27.3 M23.95 28.0 L24.1 27.9 25.55 28.05 25.0 28.05 23.95 28.0 M24.6 27.45 L24.9 27.1 Q24.45 26.55 24.25 25.55 24.1 24.6 23.5 23.95 25.4 22.55 25.15 19.8 L26.35 20.05 27.3 22.85 Q28.65 25.9 28.9 27.45 L26.7 27.7 24.6 27.45 M25.0 18.7 Q24.65 17.1 23.75 15.15 L22.5 12.6 27.15 13.3 24.8 12.6 22.2 11.95 22.1 11.75 27.35 13.35 36.75 14.25 Q36.5 15.45 35.15 15.85 35.35 16.5 36.3 16.95 L37.8 17.1 Q37.6 15.25 38.95 14.35 L47.05 14.3 46.75 17.25 46.55 19.1 46.55 18.9 41.1 18.9 45.6 19.45 46.5 19.6 46.5 19.8 46.35 21.35 45.95 21.25 41.65 21.25 40.7 21.2 Q40.3 19.8 38.75 18.0 38.15 17.6 37.25 17.65 L35.7 17.3 Q34.15 14.5 31.0 14.6 27.95 14.7 26.65 17.05 26.2 17.85 26.25 19.0 L25.0 18.7 M21.7 11.0 L21.3 10.15 Q20.6 8.55 20.4 7.45 L21.55 7.9 25.05 9.35 26.05 9.85 26.6 10.0 26.85 10.05 26.95 10.1 36.15 10.95 36.4 11.65 Q36.8 12.7 36.8 13.5 L33.5 13.4 Q29.6 13.2 24.85 11.85 L21.7 11.0 M5.55 23.4 L5.95 23.4 8.65 23.65 9.8 23.95 9.95 24.1 7.95 23.65 5.55 23.4 M4.95 24.85 L5.25 24.8 5.4 24.85 4.95 24.85 M45.85 26.2 L44.2 26.0 38.75 26.3 39.25 26.1 Q40.95 24.1 40.9 22.25 L46.2 22.65 46.25 22.25 46.15 23.2 46.0 24.9 45.85 26.2 M29.95 28.05 L31.35 28.0 29.15 28.25 29.5 28.1 29.95 28.05 M28.95 28.3 L25.85 28.4 28.95 28.15 28.95 28.3 M15.65 17.6 L16.0 17.65 16.45 18.15 16.95 17.9 18.05 18.15 16.85 18.8 Q17.25 20.8 18.85 19.9 19.95 19.35 19.6 18.55 L19.9 18.6 21.05 18.9 Q20.3 19.75 19.15 20.4 17.75 21.15 16.45 21.2 16.9 22.25 17.75 22.7 20.1 21.6 21.9 20.45 L21.9 19.3 21.85 19.05 22.3 19.15 Q22.7 21.95 21.9 23.5 L22.8 23.6 Q23.4 23.95 22.8 24.3 19.1 25.2 13.75 19.75 L10.35 16.6 12.35 16.8 12.5 16.85 12.9 17.5 13.65 17.1 14.8 17.35 13.25 18.15 Q13.55 19.35 14.65 19.1 15.65 18.9 15.9 18.0 L15.65 17.6 M14.8 19.95 L15.35 20.5 15.9 21.05 Q17.7 20.45 16.5 19.0 L14.8 19.95 M10.7 15.9 L11.15 15.9 11.25 15.95 10.7 15.9 M17.1 13.85 L17.7 14.85 19.75 13.75 Q19.5 12.55 18.4 12.75 17.4 13.0 17.1 13.85 M41.65 13.4 Q46.0 12.7 46.85 11.45 46.65 11.25 46.75 10.9 L46.8 10.8 47.4 10.75 47.15 13.05 41.65 13.4 M46.3 10.1 L45.15 9.7 43.6 8.75 42.0 9.35 Q40.9 9.6 40.4 10.1 L40.45 10.2 40.0 10.2 40.0 9.5 41.9 9.0 Q43.05 8.7 43.7 8.05 43.35 7.85 43.8 6.75 L43.9 6.0 45.7 5.95 47.85 6.1 47.85 6.35 47.6 8.7 47.5 9.85 46.85 10.0 46.3 10.1 M40.6 11.0 L40.35 11.9 Q39.9 13.0 38.95 12.95 40.0 12.4 40.0 11.35 L40.0 11.0 40.6 11.0 M28.35 19.5 L28.3 19.35 28.25 18.0 Q28.4 17.3 29.15 16.45 29.95 15.55 31.45 15.7 32.8 15.85 33.6 16.65 34.45 17.45 33.95 17.95 33.55 18.3 32.95 18.25 L30.5 18.45 Q29.9 18.7 29.35 19.75 L28.35 19.5 M29.05 20.55 L28.9 20.95 28.6 20.5 29.05 20.55 M18.3 15.85 Q18.65 16.7 19.4 16.5 L20.95 15.7 Q20.7 14.3 19.6 14.65 18.55 15.0 18.3 15.85 M21.7 22.0 Q21.95 21.05 21.4 21.15 21.5 21.8 19.9 22.4 18.35 22.95 18.5 23.15 L19.6 23.35 20.8 23.2 Q21.4 22.95 21.7 22.0 M47.85 6.05 L47.2 6.0 47.05 5.95 47.85 6.05" fill="#c5aa6b" fill-rule="evenodd" stroke="none"/>
      <path d="M45.1 33.5 L33.55 32.4 32.55 32.3 36.1 31.75 45.4 30.45 45.4 30.5 43.6 30.9 Q43.05 31.0 42.25 31.35 L40.9 31.9 38.35 32.65 45.25 32.15 45.1 33.5 M18.1 31.15 L18.05 31.15 15.95 31.0 15.55 30.65 Q15.0 30.7 14.2 30.2 L12.9 29.45 11.15 29.05 6.85 29.2 8.5 29.25 10.15 29.4 12.05 30.0 13.9 30.75 14.15 30.85 1.4 29.6 1.55 27.85 9.3 27.55 12.35 28.85 18.1 31.1 18.15 31.15 18.2 31.15 18.15 31.15 18.1 31.15 M0.5 24.75 L0.6 24.1 0.65 23.45 1.95 23.45 5.0 23.4 5.1 23.4 5.55 23.4 7.95 23.65 9.95 24.1 9.8 23.95 10.45 24.1 Q9.7 23.15 8.4 22.75 7.35 22.25 6.85 22.1 L4.85 21.9 4.5 21.9 3.8 21.9 1.25 22.1 0.75 22.2 0.95 20.25 1.0 20.2 1.45 19.65 2.35 19.5 2.25 20.25 2.3 20.2 2.7 19.65 2.8 19.45 5.7 19.55 Q6.55 19.75 8.9 21.75 11.4 23.85 15.45 25.15 L15.95 25.3 Q17.75 26.5 19.45 26.35 L20.5 26.6 21.1 27.3 20.45 27.25 20.0 27.25 Q20.05 27.6 21.0 27.8 L21.85 28.05 22.15 28.6 23.4 28.3 25.85 28.4 28.95 28.3 28.9 28.4 29.15 28.25 31.35 28.0 29.95 28.05 30.0 28.0 29.7 28.0 Q31.35 27.35 34.05 27.1 L38.75 26.3 44.2 26.0 45.85 26.2 45.75 27.15 37.15 27.4 26.45 28.75 21.0 28.4 Q15.4 26.1 12.6 25.8 L6.5 25.0 5.9 24.85 5.75 24.8 5.4 24.85 5.25 24.8 4.95 24.85 4.9 24.85 4.75 24.8 1.65 24.95 0.5 24.75 M1.3 17.0 L1.25 17.0 1.35 16.45 1.4 15.95 2.65 15.95 7.7 15.95 8.3 16.55 1.3 17.0 M1.5 15.0 L1.45 15.0 1.5 14.65 2.15 14.45 2.8 14.45 2.75 14.65 3.35 14.45 3.4 14.45 5.7 14.5 6.65 15.0 4.5 14.95 1.5 15.0 M2.15 8.25 L2.2 7.5 2.25 7.5 3.15 7.2 3.45 7.15 3.4 7.5 4.25 7.2 7.85 6.3 6.15 6.25 2.35 6.65 2.3 6.65 2.4 5.8 9.4 5.2 9.4 5.55 8.35 5.95 Q8.55 6.8 9.3 6.75 L9.4 6.75 8.9 6.85 5.0 7.8 5.15 7.7 4.25 7.95 3.25 8.1 4.1 7.7 2.8 8.0 2.2 8.25 2.15 8.25 M2.55 4.6 L2.5 4.6 2.6 3.75 3.95 3.4 3.8 3.75 6.0 3.05 4.55 3.2 5.05 3.05 2.8 3.3 3.2 2.45 14.7 2.9 22.4 4.5 30.35 5.0 Q36.65 4.75 48.0 5.0 L47.95 5.5 44.55 5.55 45.75 5.75 46.3 5.85 43.85 5.75 43.25 5.15 41.65 5.8 36.7 5.8 31.3 5.85 37.45 5.4 24.85 5.25 20.75 4.75 20.8 4.8 20.3 4.75 20.35 4.8 12.7 3.9 Q7.3 3.5 4.85 4.05 L2.55 4.6 M13.55 6.25 L13.85 6.0 Q13.4 4.95 12.7 5.5 11.8 6.15 11.55 5.95 L12.15 5.15 16.25 5.55 20.1 6.55 19.95 7.3 Q17.2 6.35 14.65 6.25 L13.55 6.25 M4.05 10.4 L9.4 9.7 Q9.3 9.95 9.5 10.15 9.95 10.35 10.8 9.95 L11.3 9.55 11.85 9.55 12.1 9.95 11.4 10.1 9.8 10.5 10.45 10.5 10.35 10.5 9.85 10.8 10.25 11.45 3.7 12.0 3.75 11.6 3.9 10.65 4.05 10.4 M13.95 9.55 L14.25 9.6 14.25 9.75 15.2 9.65 15.9 9.75 15.7 9.85 15.65 9.8 13.8 9.8 13.95 9.55 M17.1 9.95 L20.15 10.6 20.25 11.2 17.15 10.25 17.1 9.95 M11.8 11.45 L11.9 11.35 Q12.2 10.95 12.0 10.5 L12.4 10.5 12.5 10.7 12.9 10.55 13.55 10.6 Q12.85 10.9 12.6 11.45 L11.8 11.45 M17.6 11.1 L17.3 11.15 Q16.75 11.35 16.45 11.65 L14.75 11.55 15.0 11.05 14.85 10.7 15.25 10.75 15.75 11.55 16.8 10.95 17.6 11.1 M18.55 11.9 L18.6 11.75 18.25 11.2 18.5 11.25 20.35 11.65 20.5 12.2 18.55 11.9 M13.05 15.2 L13.85 15.4 13.6 15.4 Q12.55 15.65 12.3 16.5 L12.5 16.85 12.35 16.8 10.35 16.6 9.45 15.9 10.7 15.9 11.25 15.95 11.85 15.8 9.6 15.45 8.35 15.25 6.65 14.55 9.8 14.75 11.45 14.95 11.5 15.15 Q12.05 15.05 12.25 15.65 L13.05 15.2 M14.55 15.55 L14.9 15.65 15.15 15.75 15.5 15.85 16.65 16.2 16.3 16.5 Q15.7 17.1 16.0 17.65 L15.65 17.6 Q15.35 17.2 14.8 17.35 L13.65 17.1 14.95 16.35 Q14.85 15.8 14.55 15.55 M18.4 16.8 L19.75 17.25 19.25 17.5 Q19.65 19.05 20.9 18.35 L21.5 17.75 22.1 17.9 22.3 19.15 21.85 19.05 21.25 18.6 21.05 18.9 19.9 18.6 19.6 18.55 18.9 17.7 18.05 18.15 16.95 17.9 18.05 17.35 18.4 16.8 M3.15 10.6 L3.0 12.1 2.5 12.2 2.6 11.6 2.75 10.65 3.15 10.6 M24.1 27.9 L24.6 27.45 26.7 27.7 28.9 27.45 28.95 28.0 25.85 28.05 25.55 28.05 24.1 27.9 M25.15 19.8 L25.0 18.7 26.25 19.0 26.35 20.05 25.15 19.8 M22.5 12.6 L22.25 12.1 24.0 12.6 24.35 12.7 22.2 12.0 22.2 11.95 24.8 12.6 27.15 13.3 22.5 12.6 M22.1 11.75 L21.7 11.0 24.85 11.85 Q29.6 13.2 33.5 13.4 L36.8 13.5 36.75 14.25 27.35 13.35 22.1 11.75 M20.4 7.45 L20.25 6.6 24.2 7.85 23.85 7.9 23.5 7.85 23.1 7.95 25.05 9.35 21.55 7.9 20.4 7.45 M26.95 10.1 L29.7 10.35 32.7 10.45 36.0 10.35 36.15 10.95 26.95 10.1 M35.9 9.95 L27.3 9.05 26.6 8.8 25.85 8.4 28.15 9.05 35.9 9.9 35.9 9.95 M38.95 14.35 Q39.8 13.7 41.3 13.45 L41.65 13.4 47.15 13.05 47.05 14.3 38.95 14.35 M46.8 10.8 L46.85 10.3 46.3 10.1 46.85 10.0 47.5 9.85 47.4 10.75 46.8 10.8 M40.45 10.2 L40.6 11.0 40.0 11.0 40.0 10.2 40.45 10.2 M29.35 19.75 L29.3 19.85 29.05 20.55 28.6 20.5 28.35 19.5 29.35 19.75 M47.85 6.1 L45.7 5.95 47.05 5.95 47.2 6.0 47.85 6.05 47.85 6.1 M40.9 22.25 L40.8 21.65 40.8 21.6 46.25 22.25 46.2 22.65 40.9 22.25 M40.75 21.45 L40.7 21.2 41.65 21.25 40.75 21.45" fill="#b59c60" fill-rule="evenodd" stroke="none"/>
      <path d="M12.15 5.15 L11.55 5.95 Q11.8 6.15 12.7 5.5 13.4 4.95 13.85 6.0 L13.55 6.25 Q13.3 6.45 13.35 6.7 11.05 6.65 9.9 8.6 9.25 8.15 8.85 8.3 8.6 7.6 9.15 7.4 L10.35 7.05 Q10.15 6.7 9.4 6.75 L9.3 6.75 Q8.55 6.8 8.35 5.95 L9.4 5.55 9.4 5.2 9.35 4.55 10.75 4.6 Q11.3 4.9 11.8 4.05 12.4 4.6 12.15 5.15 M19.95 7.3 L20.1 6.55 20.25 6.05 20.25 6.6 20.4 7.45 Q20.6 8.55 21.3 10.15 L21.7 11.0 22.1 11.75 22.2 11.95 22.2 12.0 22.25 12.1 22.5 12.6 23.75 15.15 Q24.65 17.1 25.0 18.7 L25.15 19.8 Q25.4 22.55 23.5 23.95 24.1 24.6 24.25 25.55 24.45 26.55 24.9 27.1 L24.6 27.45 24.1 27.9 23.95 28.0 23.4 28.3 22.15 28.6 21.85 28.05 21.3 27.45 21.2 27.4 21.1 27.3 20.5 26.6 20.25 26.15 19.45 26.35 Q17.75 26.5 15.95 25.3 14.25 24.15 12.5 21.75 L8.3 16.55 7.7 15.95 6.65 15.0 5.7 14.5 5.65 14.45 6.65 14.55 8.35 15.25 9.45 15.9 10.35 16.6 13.75 19.75 Q19.1 25.2 22.8 24.3 23.4 23.95 22.8 23.6 L21.9 23.5 Q22.7 21.95 22.3 19.15 L22.1 17.9 21.25 14.8 20.5 12.2 20.35 11.65 20.3 11.35 20.25 11.2 20.15 10.6 Q19.8 8.65 19.95 7.3 M14.15 8.1 Q13.05 8.7 12.85 7.4 13.85 6.7 14.8 6.8 15.3 7.5 14.15 8.1 M9.4 9.7 L9.85 9.05 Q10.6 8.4 11.0 8.9 11.4 9.25 11.3 9.55 L10.8 9.95 Q9.95 10.35 9.5 10.15 9.3 9.95 9.4 9.7 M11.85 9.55 L11.75 9.35 Q12.65 8.65 13.65 8.75 L14.05 9.4 13.95 9.55 13.8 9.8 12.9 10.55 12.5 10.7 12.4 10.5 12.15 10.05 12.1 9.95 11.85 9.55 M14.25 9.6 L14.35 8.65 Q14.6 8.1 15.35 7.8 L16.15 9.15 15.2 9.65 14.25 9.75 14.25 9.6 M15.9 9.75 L16.7 9.3 17.1 9.95 17.15 10.25 17.15 10.3 16.8 10.95 15.75 11.55 15.25 10.75 14.95 10.2 Q15.35 10.0 15.7 9.85 L15.9 9.75 M12.9 8.25 L11.55 9.0 Q11.2 8.65 11.2 8.2 L11.1 7.5 Q12.2 6.7 12.9 8.25 M12.0 10.5 Q12.2 10.95 11.9 11.35 L11.8 11.45 10.65 12.15 10.25 11.45 9.85 10.8 10.35 10.5 10.45 10.5 10.65 10.45 10.85 10.45 11.8 10.2 12.0 10.5 M12.6 11.45 Q12.85 10.9 13.55 10.6 L13.7 10.5 Q14.45 10.2 14.85 10.7 L15.0 11.05 14.75 11.55 13.85 12.15 Q12.85 12.5 12.55 11.55 L12.6 11.45 M13.0 13.05 Q11.1 14.35 10.5 12.65 L12.2 11.7 13.0 13.05 M16.45 11.65 Q16.75 11.35 17.3 11.15 L17.6 11.1 18.25 11.2 18.6 11.75 18.55 11.9 Q18.3 12.5 17.45 12.8 16.45 13.15 16.15 12.2 L16.45 11.65 M13.55 13.2 Q13.8 12.35 14.85 12.1 15.95 11.85 16.2 13.05 L14.1 14.2 13.55 13.2 M11.45 14.95 Q11.3 14.45 12.0 14.0 L13.4 13.7 Q13.9 14.35 13.5 14.85 L13.05 15.2 12.25 15.65 Q12.05 15.05 11.5 15.15 L11.45 14.95 M13.85 15.4 L14.55 15.55 Q14.85 15.8 14.95 16.35 L13.65 17.1 12.9 17.5 12.5 16.85 12.3 16.5 Q12.55 15.65 13.6 15.4 L13.85 15.4 M15.15 15.75 Q14.85 15.55 14.7 15.15 14.95 14.3 16.0 14.1 17.1 13.85 17.35 15.05 L15.8 15.8 15.5 15.85 15.15 15.75 M16.65 16.2 Q17.3 15.7 17.95 16.05 L18.4 16.8 18.05 17.35 16.95 17.9 16.45 18.15 16.0 17.65 Q15.7 17.1 16.3 16.5 L16.65 16.2 M19.75 17.25 L21.0 16.55 Q21.7 17.2 21.5 17.75 L20.9 18.35 Q19.65 19.05 19.25 17.5 L19.75 17.25 M38.75 26.3 L34.05 27.1 Q31.35 27.35 29.7 28.0 L29.5 28.1 29.15 28.25 28.9 28.4 28.95 28.3 28.95 28.15 28.95 28.0 28.9 27.45 Q28.65 25.9 27.3 22.85 L26.35 20.05 26.25 19.0 Q26.2 17.85 26.65 17.05 27.95 14.7 31.0 14.6 34.15 14.5 35.7 17.3 L37.25 17.65 Q38.15 17.6 38.75 18.0 40.3 19.8 40.7 21.2 L40.75 21.45 40.8 21.6 40.8 21.65 40.9 22.25 Q40.95 24.1 39.25 26.1 L38.75 26.3 M14.8 17.35 Q15.35 17.2 15.65 17.6 L15.9 18.0 Q15.65 18.9 14.65 19.1 13.55 19.35 13.25 18.15 L14.8 17.35 M14.8 19.95 L16.5 19.0 Q17.7 20.45 15.9 21.05 L15.35 20.5 14.8 19.95 M19.6 18.55 Q19.95 19.35 18.85 19.9 17.25 20.8 16.85 18.8 L18.05 18.15 18.9 17.7 19.6 18.55 M21.85 19.05 L21.9 19.3 21.9 20.45 Q20.1 21.6 17.75 22.7 16.9 22.25 16.45 21.2 17.75 21.15 19.15 20.4 20.3 19.75 21.05 18.9 L21.25 18.6 21.85 19.05 M17.1 13.85 Q17.4 13.0 18.4 12.75 19.5 12.55 19.75 13.75 L17.7 14.85 17.1 13.85 M36.15 10.95 L36.0 10.35 35.9 9.95 35.9 9.9 Q35.45 7.55 36.95 6.55 L40.2 9.25 Q40.55 8.6 39.15 7.9 40.1 6.6 41.65 5.8 L43.25 5.15 43.85 5.75 43.9 6.0 43.8 6.75 Q43.35 7.85 43.7 8.05 43.05 8.7 41.9 9.0 L40.0 9.5 40.0 10.2 40.0 11.0 40.0 11.35 Q40.0 12.4 38.95 12.95 39.9 13.0 40.35 11.9 L40.6 11.0 40.45 10.2 40.4 10.1 Q40.9 9.6 42.0 9.35 L43.6 8.75 45.15 9.7 46.3 10.1 46.85 10.3 46.8 10.8 46.75 10.9 Q46.65 11.25 46.85 11.45 46.0 12.7 41.65 13.4 L41.3 13.45 Q39.8 13.7 38.95 14.35 37.6 15.25 37.8 17.1 L36.3 16.95 Q35.35 16.5 35.15 15.85 36.5 15.45 36.75 14.25 L36.8 13.5 Q36.8 12.7 36.4 11.65 L36.15 10.95 M29.35 19.75 Q29.9 18.7 30.5 18.45 L32.95 18.25 Q33.55 18.3 33.95 17.95 34.45 17.45 33.6 16.65 32.8 15.85 31.45 15.7 29.95 15.55 29.15 16.45 28.4 17.3 28.25 18.0 L28.3 19.35 28.35 19.5 28.6 20.5 28.9 20.95 29.05 20.55 29.3 19.85 29.35 19.75 M18.3 15.85 Q18.55 15.0 19.6 14.65 20.7 14.3 20.95 15.7 L19.4 16.5 Q18.65 16.7 18.3 15.85 M21.7 22.0 Q21.4 22.95 20.8 23.2 L19.6 23.35 18.5 23.15 Q18.35 22.95 19.9 22.4 21.5 21.8 21.4 21.15 21.95 21.05 21.7 22.0" fill="#625027" fill-rule="evenodd" stroke="none"/>
      <path d="M15.95 31.0 L14.15 30.85 13.9 30.75 12.05 30.0 10.15 29.4 8.5 29.25 6.85 29.2 11.15 29.05 12.9 29.45 14.2 30.2 Q15.0 30.7 15.55 30.65 L15.95 31.0 M13.55 10.6 L12.9 10.55 13.8 9.8 15.65 9.8 15.7 9.85 Q15.35 10.0 14.95 10.2 L15.25 10.75 14.85 10.7 Q14.45 10.2 13.7 10.5 L13.55 10.6 M12.4 10.5 L12.0 10.5 11.8 10.2 10.85 10.45 10.65 10.45 11.8 10.1 12.15 10.05 12.4 10.5 M17.15 10.3 L20.3 11.35 20.35 11.65 18.5 11.25 18.25 11.2 17.6 11.1 16.8 10.95 17.15 10.3 M4.55 3.2 L6.0 3.05 3.8 3.75 3.95 3.4 3.95 3.3 4.55 3.2 M6.15 6.25 L7.85 6.3 4.25 7.2 3.4 7.5 3.45 7.15 3.5 6.65 6.15 6.25 M6.65 15.0 L7.7 15.95 2.65 15.95 2.75 15.0 4.5 14.95 6.65 15.0 M21.3 27.45 L21.85 28.05 21.0 27.8 Q20.05 27.6 20.0 27.25 L20.45 27.25 20.65 27.3 21.25 27.45 21.3 27.45 M23.4 28.3 L23.95 28.0 25.0 28.05 25.55 28.05 25.85 28.05 28.95 28.0 28.95 28.15 25.85 28.4 23.4 28.3 M22.25 12.1 L22.2 12.0 24.35 12.7 24.0 12.6 22.25 12.1 M5.55 23.4 L5.1 23.4 5.0 23.4 1.95 23.45 2.1 22.2 2.5 22.1 4.5 21.9 4.85 21.9 6.85 22.1 Q7.35 22.25 8.4 22.75 9.7 23.15 10.45 24.1 L9.8 23.95 8.65 23.65 5.95 23.4 5.55 23.4 M29.7 28.0 L30.0 28.0 29.95 28.05 29.5 28.1 29.7 28.0 M11.25 15.95 L11.15 15.9 10.7 15.9 9.45 15.9 8.35 15.25 9.6 15.45 11.85 15.8 11.25 15.95 M32.7 10.45 L29.7 10.35 26.95 10.1 26.85 10.05 26.6 10.0 26.05 9.85 25.05 9.35 23.1 7.95 23.5 7.85 23.85 7.9 25.0 8.4 25.65 8.8 26.3 9.05 35.8 10.15 32.7 10.45 M20.8 4.8 L24.05 5.25 35.55 5.4 29.95 5.85 22.9 5.45 21.75 5.3 Q20.75 5.1 20.45 4.85 L20.35 4.8 20.3 4.75 20.8 4.8 M40.8 21.6 L40.75 21.45 41.65 21.25 45.95 21.25 46.35 21.35 46.35 21.4 46.3 21.85 46.25 22.25 40.8 21.6 M45.4 30.5 L45.35 31.15 45.25 32.15 38.35 32.65 40.9 31.9 42.25 31.35 Q43.05 31.0 43.6 30.9 L45.4 30.5" fill="#96814f" fill-rule="evenodd" stroke="none"/>
      <path d="M50.4 3.0 L50.2 5.0 49.55 5.25 47.1 5.65 45.75 5.75 44.55 5.55 47.95 5.5 48.0 5.0 48.1 3.95 48.15 3.5 48.05 3.5 47.2 3.45 50.4 3.0 M49.9 6.15 L48.85 19.0 48.6 19.15 43.8 19.15 43.2 19.05 46.55 19.1 46.75 17.25 47.1 16.9 Q47.6 16.45 47.55 15.35 L47.5 13.65 47.65 13.15 47.7 12.1 47.65 11.05 47.6 8.7 47.85 6.35 48.3 6.35 49.9 6.15 M48.65 19.85 L47.7 29.25 47.3 29.3 46.2 29.45 46.2 28.3 46.35 27.15 46.4 26.2 46.45 24.4 46.3 24.2 46.2 23.5 46.15 23.2 46.25 22.25 46.3 21.85 46.8 21.75 47.6 21.65 46.35 21.4 46.35 21.35 46.5 19.8 47.8 19.8 48.65 19.85 M46.65 32.8 L45.65 33.25 46.15 33.0 46.65 32.8 M0.4 25.65 L2.8 25.2 5.85 25.8 0.4 25.65" fill="#796942" fill-rule="evenodd" stroke="none"/>
      <path d="M49.55 5.25 L49.4 5.3 49.95 5.5 49.9 6.15 48.3 6.35 47.85 6.35 47.85 6.1 47.85 6.05 47.05 5.95 46.3 5.85 45.75 5.75 47.1 5.65 49.55 5.25 M48.6 19.15 L48.3 19.3 48.65 19.5 48.65 19.85 47.8 19.8 46.5 19.8 46.5 19.6 45.6 19.45 43.8 19.15 48.6 19.15 M47.7 29.25 L47.65 29.75 47.3 32.5 46.65 32.8 46.15 33.0 46.0 32.5 Q45.65 31.5 45.9 30.6 L46.2 27.7 46.0 24.9 46.15 23.2 46.2 23.5 46.3 24.2 46.45 24.4 46.4 26.2 46.35 27.15 46.2 28.3 46.2 29.45 47.3 29.3 47.7 29.25 M47.5 9.85 L47.6 8.7 47.65 11.05 47.7 12.1 47.65 13.15 47.5 13.65 47.55 15.35 Q47.6 16.45 47.1 16.9 L46.75 17.25 47.05 14.3 47.15 13.05 47.4 10.75 47.5 9.85 M46.3 21.85 L46.35 21.4 47.6 21.65 46.8 21.75 46.3 21.85" fill="#594c30" fill-rule="evenodd" stroke="none"/>
      <path d="M45.65 33.25 L45.1 33.5 45.25 32.15 45.35 31.15 45.75 27.15 45.85 26.2 46.0 24.9 46.2 27.7 45.9 30.6 Q45.65 31.5 46.0 32.5 L46.15 33.0 45.65 33.25" fill="#493e27" fill-rule="evenodd" stroke="none"/>
      <path d="M30.5 32.15 L30.3 34.45 30.25 34.45 Q28.2 33.35 27.0 33.35 L27.15 31.85 30.5 32.15" fill="#4a3e29" fill-rule="evenodd" stroke="none"/>
      <path d="M30.3 34.45 L30.1 36.95 30.05 36.9 29.15 36.2 28.7 36.15 28.45 38.0 27.95 39.75 27.55 41.55 Q26.3 52.7 26.4 53.5 L26.65 55.6 26.55 55.65 26.4 55.75 25.9 56.0 25.9 54.85 26.3 47.85 26.65 40.85 Q26.6 39.95 26.9 38.5 L27.25 36.1 26.75 36.1 27.0 33.35 Q28.2 33.35 30.25 34.45 L30.3 34.45 M30.0 37.3 L30.05 37.15 29.3 45.1 28.5 50.05 Q28.25 51.05 28.25 53.05 L28.0 53.9 27.85 52.75 27.85 51.6 Q27.85 50.85 29.6 38.95 L30.0 37.3" fill="#584930" fill-rule="evenodd" stroke="none"/>
      <path d="M30.05 36.9 L30.0 37.3 29.6 38.95 Q27.85 50.85 27.85 51.6 L27.85 52.75 28.0 53.9 28.25 53.05 Q28.25 51.05 28.5 50.05 L29.3 45.1 28.85 50.35 28.8 50.5 28.75 51.35 28.5 54.3 28.45 54.55 Q27.9 54.75 27.4 55.25 L26.65 55.6 26.4 53.5 Q26.3 52.7 27.55 41.55 L27.95 39.75 28.45 38.0 28.7 36.15 29.15 36.2 30.05 36.9 M27.0 33.35 L26.75 36.1 27.25 36.1 26.9 38.5 Q26.6 39.95 26.65 40.85 L26.3 47.85 25.9 54.85 25.9 56.0 24.7 56.75 24.65 56.75 24.55 56.75 24.65 55.65 26.7 35.9 26.95 33.5 27.1 31.85 27.15 31.85 27.0 33.35" fill="#6e5a3c" fill-rule="evenodd" stroke="none"/>
      <path d="M20.3 56.45 L20.0 56.45 19.55 55.65 Q18.05 53.6 18.4 51.3 20.15 40.75 20.4 40.15 L21.65 38.0 Q23.05 36.2 23.4 35.2 L23.6 34.2 22.45 33.6 22.25 34.15 Q21.95 35.45 21.25 36.0 L19.9 37.1 Q19.15 37.85 18.85 38.85 L18.5 40.55 17.15 49.3 Q17.1 48.8 17.6 44.2 L18.15 39.1 Q18.15 38.0 18.65 36.8 19.25 35.4 20.15 34.5 L21.35 33.25 18.0 32.55 18.05 31.85 21.5 32.25 24.9 33.0 26.95 33.5 26.7 35.9 25.8 35.4 25.15 34.95 25.1 35.75 25.1 34.95 23.7 34.25 23.5 35.9 22.65 39.1 20.25 49.4 Q19.9 50.55 19.9 52.5 L19.85 53.5 20.05 54.4 Q20.25 54.75 20.7 54.55 L21.3 54.05 Q21.6 53.5 21.5 52.45 L21.4 50.8 22.25 51.65 22.4 53.45 22.1 56.4 21.6 56.45 20.3 56.45 M16.65 55.95 L16.05 55.55 15.85 55.4 16.5 53.45 16.65 55.95 M24.4 56.7 L24.15 56.65 23.65 56.6 23.15 56.5 24.0 53.65 24.15 50.35 24.3 53.2 24.4 56.7" fill="#7d6742" fill-rule="evenodd" stroke="none"/>
      <path d="M20.0 56.45 L19.85 56.45 16.75 56.0 16.65 55.95 16.5 53.45 15.85 55.4 16.05 55.55 Q15.6 55.3 15.15 55.2 L15.05 55.2 15.75 49.65 17.2 38.55 18.1 31.15 18.15 31.15 18.05 31.85 18.0 32.55 21.35 33.25 20.15 34.5 Q19.25 35.4 18.65 36.8 18.15 38.0 18.15 39.1 L17.6 44.2 Q17.1 48.8 17.15 49.3 L18.5 40.55 18.85 38.85 Q19.15 37.85 19.9 37.1 L21.25 36.0 Q21.95 35.45 22.25 34.15 L22.45 33.6 23.6 34.2 23.4 35.2 Q23.05 36.2 21.65 38.0 L20.4 40.15 Q20.15 40.75 18.4 51.3 18.05 53.6 19.55 55.65 L20.0 56.45 M26.7 35.9 L24.65 55.65 24.55 56.75 24.4 56.7 24.3 53.2 24.15 50.35 24.0 53.65 23.15 56.5 23.65 56.6 21.6 56.45 22.1 56.4 22.4 53.45 22.25 51.65 21.4 50.8 21.5 52.45 Q21.6 53.5 21.3 54.05 L20.7 54.55 Q20.25 54.75 20.05 54.4 L19.85 53.5 19.9 52.5 Q19.9 50.55 20.25 49.4 L22.65 39.1 23.5 35.9 23.7 34.25 25.1 34.95 25.1 35.75 25.15 34.95 25.8 35.4 26.7 35.9" fill="#957c50" fill-rule="evenodd" stroke="none"/>
      <path d="M27.1 31.85 L26.95 33.5 24.9 33.0 21.5 32.25 18.05 31.85 18.15 31.15 18.2 31.15 27.1 31.85" fill="#645335" fill-rule="evenodd" stroke="none"/>
      <path d="M28.85 50.35 L30.2 50.45 32.2 50.7 Q33.55 51.0 33.65 51.65 L34.65 51.65 Q35.3 51.7 35.55 51.9 35.95 52.25 35.8 52.95 35.7 53.7 35.25 53.95 L33.85 54.45 32.35 54.8 31.2 55.1 31.35 54.8 31.4 53.95 Q32.0 53.9 32.4 53.55 32.8 53.15 32.6 52.55 32.3 51.55 30.45 50.85 29.5 50.5 28.8 50.5 L28.85 50.35 M29.2 56.1 L28.7 56.5 27.25 56.85 25.8 57.05 25.2 57.45 24.5 57.65 23.25 57.65 23.25 57.15 23.0 56.8 21.45 56.55 19.9 56.8 18.85 57.45 Q18.2 57.95 17.75 57.9 L17.0 57.75 Q16.85 57.25 17.65 57.05 L18.85 56.95 19.85 56.8 20.3 56.45 21.6 56.45 23.65 56.6 24.15 56.65 24.4 56.7 24.55 56.75 24.65 56.75 24.7 56.75 24.85 56.8 25.65 56.8 26.35 56.75 26.4 55.75 26.55 55.65 27.85 55.9 29.2 56.1 M28.5 54.3 L28.75 51.35 28.8 51.35 Q29.5 51.6 29.65 52.15 29.9 52.85 29.75 53.25 29.5 54.0 28.5 54.3" fill="url(#gradient0)" fill-rule="evenodd" stroke="none"/>
      <path d="M31.2 55.1 L30.45 55.6 29.35 56.05 29.2 56.1 27.85 55.9 26.55 55.65 26.65 55.6 27.4 55.25 Q27.9 54.75 28.45 54.55 L28.5 54.3 Q29.5 54.0 29.75 53.25 29.9 52.85 29.65 52.15 29.5 51.6 28.8 51.35 L28.75 51.35 28.8 50.5 Q29.5 50.5 30.45 50.85 32.3 51.55 32.6 52.55 32.8 53.15 32.4 53.55 32.0 53.9 31.4 53.95 L31.35 54.8 31.2 55.1 M25.9 56.0 L26.4 55.75 26.35 56.75 25.65 56.8 24.85 56.8 24.7 56.75 25.9 56.0" fill="url(#gradient1)" fill-rule="evenodd" stroke="none"/>
    </g>
    <linearGradient gradientTransform="matrix(0.0116, 0.0, 0.0, -0.0116, 26.3, 54.1)" gradientUnits="userSpaceOnUse" id="gradient0" spreadMethod="pad" x1="-819.2" x2="819.2">
      <stop offset="0.0" stop-color="#000000" stop-opacity="0.14901961"/>
      <stop offset="0.8588235294117647" stop-color="#000000" stop-opacity="0.14901961"/>
      <stop offset="1.0" stop-color="#000000" stop-opacity="0.14901961"/>
    </linearGradient>
    <linearGradient gradientTransform="matrix(0.005, 0.0, 0.0, -0.005, 28.6, 53.65)" gradientUnits="userSpaceOnUse" id="gradient1" spreadMethod="pad" x1="-819.2" x2="819.2">
      <stop offset="0.0" stop-color="#000000" stop-opacity="0.14901961"/>
      <stop offset="0.8588235294117647" stop-color="#000000" stop-opacity="0.14901961"/>
      <stop offset="1.0" stop-color="#000000" stop-opacity="0.14901961"/>
    </linearGradient>
  </defs>
</svg>
