<?xml version="1.0" encoding="UTF-8" standalone="no"?>
<svg xmlns:xlink="http://www.w3.org/1999/xlink" height="151.25px" width="160.55px" xmlns="http://www.w3.org/2000/svg">
  <g transform="matrix(1.0, 0.0, 0.0, 1.0, 0.0, 0.0)">
    <use height="46.7" transform="matrix(1.0, 0.0, 0.0, 1.0, 0.0, 104.05)" width="152.25" xlink:href="#sprite0"/>
    <use height="36.1" transform="matrix(1.0, 0.0, 0.0, 1.0, 18.6, 110.45)" width="124.5" xlink:href="#sprite1"/>
    <use height="2.0" transform="matrix(1.0, 0.0, 0.0, 1.0, 10.9, 134.15)" width="7.05" xlink:href="#sprite2"/>
    <use height="3.85" transform="matrix(1.0, 0.0, 0.0, 1.0, 16.95, 140.0)" width="8.35" xlink:href="#sprite3"/>
    <use height="4.8" transform="matrix(1.0, 0.0, 0.0, 1.0, 41.75, 145.35)" width="19.0" xlink:href="#sprite4"/>
    <use height="3.25" transform="matrix(1.0, 0.0, 0.0, 1.0, 125.05, 136.45)" width="8.25" xlink:href="#sprite5"/>
    <use height="7.2" transform="matrix(1.0, 0.0, 0.0, 1.0, 140.4, 129.65)" width="10.3" xlink:href="#sprite6"/>
    <use height="3.15" transform="matrix(1.0, 0.0, 0.0, 1.0, 153.35, 123.5)" width="7.2" xlink:href="#sprite7"/>
    <use height="91.85" transform="matrix(1.0, 0.0, 0.0, 1.0, 28.25, 50.65)" width="103.5" xlink:href="#shape8"/>
    <use height="54.2" transform="matrix(1.0, 0.0, 0.0, 1.0, 85.05, 46.15)" width="36.75" xlink:href="#sprite8"/>
    <use height="52.65" transform="matrix(1.0, 0.0, 0.0, 1.0, 26.4, 77.5)" width="44.0" xlink:href="#sprite9"/>
    <use height="27.45" transform="matrix(1.0, 0.0, 0.0, 1.0, 10.6, 122.15)" width="147.5" xlink:href="#shape11"/>
    <use height="3.4" transform="matrix(1.0, 0.0, 0.0, 1.0, 46.45, 141.15)" width="4.0" xlink:href="#sprite10"/>
    <use height="2.35" transform="matrix(1.0, 0.0, 0.0, 1.0, 50.0, 140.15)" width="2.35" xlink:href="#sprite11"/>
    <use height="2.4" transform="matrix(1.0, 0.0, 0.0, 1.0, 50.9, 143.5)" width="2.55" xlink:href="#sprite12"/>
    <use height="2.0" transform="matrix(1.0, 0.0, 0.0, 1.0, 45.1, 143.5)" width="2.1" xlink:href="#sprite13"/>
    <use height="2.15" transform="matrix(1.0, 0.0, 0.0, 1.0, 35.05, 133.65)" width="2.2" xlink:href="#sprite14"/>
    <use height="2.15" transform="matrix(1.0, 0.0, 0.0, 1.0, 30.9, 135.5)" width="2.15" xlink:href="#sprite15"/>
    <use height="2.0" transform="matrix(1.0, 0.0, 0.0, 1.0, 33.8, 136.15)" width="1.9" xlink:href="#sprite16"/>
    <use height="2.0" transform="matrix(1.0, 0.0, 0.0, 1.0, 32.95, 134.0)" width="1.95" xlink:href="#sprite17"/>
    <use height="2.0" transform="matrix(1.0, 0.0, 0.0, 1.0, 19.1, 130.5)" width="1.95" xlink:href="#sprite18"/>
    <use height="2.7" transform="matrix(1.0, 0.0, 0.0, 1.0, 17.35, 139.3)" width="3.25" xlink:href="#sprite19"/>
    <use height="2.0" transform="matrix(1.0, 0.0, 0.0, 1.0, 77.1, 139.0)" width="1.95" xlink:href="#sprite20"/>
    <use height="2.0" transform="matrix(1.0, 0.0, 0.0, 1.0, 74.1, 141.65)" width="1.95" xlink:href="#sprite21"/>
    <use height="2.0" transform="matrix(1.0, 0.0, 0.0, 1.0, 78.95, 141.35)" width="1.95" xlink:href="#sprite22"/>
    <use height="2.15" transform="matrix(1.0, 0.0, 0.0, 1.0, 107.4, 142.5)" width="2.15" xlink:href="#sprite23"/>
  </g>
  <defs>
    <g id="sprite0" transform="matrix(1.0, 0.0, 0.0, 1.0, 0.0, 0.0)">
      <use height="46.7" transform="matrix(1.0, 0.0, 0.0, 1.0, 0.0, 0.0)" width="152.25" xlink:href="#shape0"/>
    </g>
    <g id="shape0" transform="matrix(1.0, 0.0, 0.0, 1.0, 0.0, 0.0)">
      <path d="M152.25 23.35 Q152.25 33.05 129.95 39.85 107.65 46.7 76.1 46.7 44.55 46.7 22.3 39.85 0.0 33.05 0.0 23.35 0.0 13.7 22.3 6.85 44.55 0.0 76.1 0.0 107.65 0.0 129.95 6.85 152.25 13.7 152.25 23.35" fill="url(#gradient0)" fill-rule="evenodd" stroke="none"/>
    </g>
    <radialGradient cx="0" cy="0" gradientTransform="matrix(0.0801, 0.0, 0.0, -0.0239, 75.85, 23.65)" gradientUnits="userSpaceOnUse" id="gradient0" r="819.2" spreadMethod="pad">
      <stop offset="0.0" stop-color="#000000" stop-opacity="0.61960787"/>
      <stop offset="1.0" stop-color="#000000" stop-opacity="0.0"/>
    </radialGradient>
    <g id="sprite1" transform="matrix(1.0, 0.0, 0.0, 1.0, 0.05, 0.0)">
      <use height="36.1" transform="matrix(1.0, 0.0, 0.0, 1.0, -0.05, 0.0)" width="124.5" xlink:href="#shape1"/>
    </g>
    <g id="shape1" transform="matrix(1.0, 0.0, 0.0, 1.0, 0.05, 0.0)">
      <path d="M123.35 11.15 L124.0 11.7 Q124.75 12.4 124.2 12.65 L123.45 12.75 Q122.2 12.95 120.35 14.2 119.25 15.0 119.8 15.2 L120.6 15.25 121.05 16.45 Q121.3 17.75 120.0 18.35 L116.8 19.25 114.15 19.75 Q112.2 20.55 110.55 22.5 L108.6 23.6 Q107.35 24.2 107.15 25.55 L107.0 27.0 106.9 27.35 Q106.75 27.75 104.95 28.35 102.75 29.0 102.25 29.3 L99.3 30.65 Q96.65 31.75 96.1 32.0 94.1 32.7 90.25 34.65 87.85 35.9 86.5 35.75 L85.65 35.35 76.55 35.1 72.35 35.2 67.95 35.65 64.95 36.1 58.3 35.65 54.9 35.25 55.8 35.1 53.05 34.7 48.2 34.9 Q42.7 35.5 40.1 34.7 L36.5 34.25 33.3 34.25 30.4 33.6 Q28.3 32.85 27.3 31.75 26.4 30.8 25.15 30.45 L22.0 29.55 18.75 28.5 Q17.3 28.05 16.25 27.1 15.15 26.05 12.95 25.5 L9.0 24.85 6.1 24.4 Q5.1 24.1 4.95 23.45 4.85 22.85 6.6 22.45 L9.3 21.7 Q10.15 21.25 8.95 20.8 7.9 20.4 6.8 20.35 L3.55 20.2 0.25 19.7 Q-0.75 19.15 1.6 17.4 4.15 16.4 5.4 15.4 L6.65 14.05 8.3 12.1 Q9.15 11.3 22.7 7.8 36.45 4.2 39.9 4.1 L53.95 2.3 73.15 0.05 Q80.35 -0.4 98.3 2.75 L115.5 6.05 Q116.55 6.1 117.45 8.95 L121.0 10.35 Q122.7 11.05 123.35 11.15" fill="#000000" fill-rule="evenodd" stroke="none"/>
    </g>
    <g id="sprite2" transform="matrix(1.0, 0.0, 0.0, 1.0, 0.0, 0.0)">
      <use height="2.0" transform="matrix(1.0, 0.0, 0.0, 1.0, 0.0, 0.0)" width="7.05" xlink:href="#shape2"/>
    </g>
    <g id="shape2" transform="matrix(1.0, 0.0, 0.0, 1.0, 0.0, 0.0)">
      <path d="M2.85 1.85 Q0.85 1.35 0.0 0.85 L1.25 0.35 5.35 0.0 Q8.1 0.15 6.35 1.2 4.65 2.3 2.85 1.85" fill="#000000" fill-rule="evenodd" stroke="none"/>
    </g>
    <g id="sprite3" transform="matrix(1.0, 0.0, 0.0, 1.0, 0.0, 0.0)">
      <use height="3.85" transform="matrix(0.994, 0.0, 0.0, 1.0, 0.0, 0.0)" width="8.4" xlink:href="#shape3"/>
    </g>
    <g id="shape3" transform="matrix(1.0, 0.0, 0.0, 1.0, 0.0, 0.0)">
      <path d="M3.45 3.85 L1.2 3.45 0.1 2.85 Q-0.3 2.7 0.8 2.0 1.85 1.3 3.45 0.65 L5.2 0.0 7.45 1.0 Q9.35 1.9 7.4 2.85 5.75 3.65 3.45 3.85" fill="#000000" fill-rule="evenodd" stroke="none"/>
    </g>
    <g id="sprite4" transform="matrix(1.0, 0.0, 0.0, 1.0, 0.0, -0.05)">
      <use height="4.8" transform="matrix(1.0, 0.0, 0.0, 1.0, 0.0, 0.05)" width="19.0" xlink:href="#shape4"/>
    </g>
    <g id="shape4" transform="matrix(1.0, 0.0, 0.0, 1.0, 0.0, -0.05)">
      <path d="M16.65 0.2 Q20.15 0.7 18.4 1.9 17.55 2.5 13.5 4.05 11.3 4.85 8.9 4.85 L5.0 4.7 Q2.7 4.7 1.1 3.15 L0.0 1.55 5.3 1.7 10.1 0.65 16.65 0.2" fill="#000000" fill-rule="evenodd" stroke="none"/>
    </g>
    <g id="sprite5" transform="matrix(1.0, 0.0, 0.0, 1.0, 0.0, 0.0)">
      <use height="3.25" transform="matrix(1.0, 0.0, 0.0, 1.0, 0.0, 0.0)" width="8.25" xlink:href="#shape5"/>
    </g>
    <g id="shape5" transform="matrix(1.0, 0.0, 0.0, 1.0, 0.0, 0.0)">
      <path d="M2.2 3.2 Q1.2 3.4 0.0 2.4 2.7 0.2 5.2 0.05 9.1 -0.2 8.0 1.4 7.5 2.15 5.7 2.6 L2.2 3.2" fill="#000000" fill-rule="evenodd" stroke="none"/>
    </g>
    <g id="sprite6" transform="matrix(1.0, 0.0, 0.0, 1.0, 0.0, 0.0)">
      <use height="7.2" transform="matrix(1.0, 0.0, 0.0, 1.0, 0.0, 0.0)" width="10.3" xlink:href="#shape6"/>
    </g>
    <g id="shape6" transform="matrix(1.0, 0.0, 0.0, 1.0, 0.0, 0.0)">
      <path d="M6.85 7.2 Q4.4 7.2 3.65 6.25 2.75 5.1 2.35 5.0 1.3 4.8 0.55 3.65 L0.0 2.5 Q1.65 0.35 3.65 0.0 4.9 -0.2 4.75 1.4 L4.35 3.0 Q7.35 3.5 9.5 4.5 11.0 5.2 9.75 6.25 8.5 7.2 6.85 7.2" fill="#000000" fill-rule="evenodd" stroke="none"/>
    </g>
    <g id="sprite7" transform="matrix(1.0, 0.0, 0.0, 1.0, 0.0, 0.0)">
      <use height="3.15" transform="matrix(1.0, 0.0, 0.0, 1.0, 0.0, 0.0)" width="7.2" xlink:href="#shape7"/>
    </g>
    <g id="shape7" transform="matrix(1.0, 0.0, 0.0, 1.0, 0.0, 0.0)">
      <path d="M3.55 3.15 L0.4 1.0 Q-0.15 0.7 0.05 0.45 0.4 -0.1 4.05 0.0 8.0 0.1 7.0 1.6 6.0 3.0 3.55 3.15" fill="#000000" fill-rule="evenodd" stroke="none"/>
    </g>
    <g id="shape8" transform="matrix(1.0, 0.0, 0.0, 1.0, -28.25, -50.65)">
      <path d="M102.65 50.65 L103.5 56.5 99.25 69.75 Q98.75 70.8 83.75 91.5 82.95 92.5 73.25 96.1 63.4 99.7 61.75 99.5 59.4 99.15 45.4 88.5 L43.2 84.3 55.05 78.8 56.95 78.35 63.05 76.15 68.95 73.7 Q70.85 72.8 73.05 70.8 74.9 69.15 77.0 68.15 L79.75 66.5 Q80.6 65.65 82.85 63.7 85.15 61.45 87.4 58.15 L91.05 52.8 102.65 50.65" fill="#e3f3ff" fill-rule="evenodd" stroke="none"/>
      <path d="M107.4 61.15 L103.4 72.35 Q99.05 83.65 97.0 84.25 96.05 84.5 92.7 87.0 L85.8 92.0 Q75.85 98.85 71.05 97.85 65.3 96.65 59.0 94.55 53.05 92.55 51.75 91.5 L43.2 84.3 44.6 82.85 Q46.45 81.2 48.75 80.15 50.75 79.25 55.05 78.25 L60.4 76.85 Q62.75 75.85 65.4 75.15 L61.95 77.3 57.75 80.15 Q57.15 80.8 58.4 81.4 L59.75 81.85 63.75 83.5 65.75 83.05 Q67.9 82.5 68.75 81.85 L70.05 80.85 72.55 80.05 Q75.15 79.15 75.75 78.5 78.4 75.85 79.05 74.15 L81.05 69.5 80.85 68.5 Q80.8 67.3 81.4 66.5 82.4 65.15 84.5 63.05 87.15 60.4 89.4 58.85 L92.75 56.5 91.05 52.8 102.65 50.65 107.4 61.15" fill="#ffffff" fill-rule="evenodd" stroke="none"/>
      <path d="M82.1 72.6 L85.5 63.5 Q91.0 60.05 94.6 56.6 97.05 55.45 100.0 52.75 L102.65 50.65 Q106.15 52.2 110.95 53.75 112.55 57.95 115.5 61.85 116.9 71.6 119.05 78.75 122.75 90.8 131.75 118.5 L118.75 133.0 Q114.95 137.0 109.15 138.9 105.45 140.1 102.65 140.1 L90.55 141.3 79.8 142.5 68.4 142.0 62.05 142.25 56.05 142.5 Q54.9 142.5 52.4 141.3 L47.4 138.65 36.45 133.3 28.25 129.45 30.4 124.3 Q32.7 119.05 33.25 113.05 L34.05 102.0 34.15 98.55 34.4 97.6 Q40.4 92.9 42.15 84.75 44.4 83.85 45.85 82.45 48.05 81.9 49.9 81.05 51.5 81.95 53.5 81.85 54.5 82.7 55.9 83.25 L56.4 83.8 58.5 85.55 Q59.5 86.2 60.7 86.5 L63.05 86.85 65.2 86.55 Q67.15 85.95 68.7 84.5 L69.9 82.95 70.5 82.85 Q74.9 82.25 78.25 77.45 80.95 75.85 82.1 72.6" fill="url(#gradient1)" fill-rule="evenodd" stroke="none"/>
      <path d="M115.5 61.85 Q116.9 71.6 119.05 78.75 122.75 90.8 131.75 118.5 L118.75 133.0 Q114.95 137.0 109.15 138.9 105.45 140.1 102.65 140.1 L90.55 141.3 79.8 142.5 68.4 142.0 62.05 142.25 56.05 142.5 Q54.9 142.5 52.4 141.3 L47.4 138.65 Q44.4 137.05 37.45 133.8 52.45 135.4 54.25 132.5 55.7 130.1 56.95 123.75 58.4 116.2 57.75 110.5 L56.4 96.55 55.75 89.0 62.25 95.0 63.7 102.2 Q65.05 110.05 64.75 113.5 63.75 124.5 63.75 128.5 63.75 131.05 69.9 131.75 L79.75 132.0 Q83.25 132.0 89.0 128.7 94.05 125.8 98.25 122.0 100.75 119.75 104.2 117.2 106.2 115.0 105.25 110.5 103.7 103.2 103.2 88.0 102.6 70.15 105.25 65.5 107.8 61.0 111.9 56.0 113.4 59.15 115.5 61.85" fill="#97b4c4" fill-rule="evenodd" stroke="none"/>
      <path d="M89.05 61.15 L94.6 56.6 95.5 56.1 92.2 63.35 Q90.75 66.5 90.25 64.5 L89.05 61.15" fill="#97b4c4" fill-rule="evenodd" stroke="none"/>
      <path d="M117.7 117.75 L121.25 117.0 Q124.25 112.0 125.75 108.0 126.9 105.0 130.05 113.4 L131.75 118.5 118.75 133.0 Q114.95 137.0 109.15 138.9 105.45 140.1 102.65 140.1 L90.55 141.3 79.8 142.5 68.4 142.0 62.05 142.25 56.05 142.5 Q54.55 142.5 49.8 139.9 54.05 139.25 55.7 138.6 58.1 137.6 58.75 135.5 L62.25 124.5 62.45 129.8 Q63.55 135.45 68.25 137.0 77.25 140.0 94.25 137.0 99.4 136.1 102.45 134.2 L107.25 131.0 Q109.55 129.85 110.3 127.0 111.45 122.8 112.25 121.5 113.8 119.0 117.7 117.75" fill="#7d9aab" fill-rule="evenodd" stroke="none"/>
      <path d="M82.1 72.6 L83.8 67.85 Q84.85 73.55 83.75 76.5 82.9 78.85 83.2 82.7 L83.75 91.5 Q83.75 99.0 84.75 112.0 L81.7 108.9 Q78.3 105.15 76.75 102.0 75.4 99.3 74.5 95.55 73.4 90.95 72.25 88.0 71.2 85.35 69.55 83.45 L69.9 82.95 70.5 82.85 Q74.9 82.25 78.25 77.45 80.95 75.85 82.1 72.6" fill="#9fc0d4" fill-rule="evenodd" stroke="none"/>
      <path d="M42.75 87.0 L43.2 84.3 45.9 82.45 Q48.1 81.9 49.9 81.05 51.5 81.95 53.5 81.85 L55.05 82.9 Q57.45 85.75 60.1 90.65 L62.25 95.0 55.75 89.0 Q49.75 89.5 45.75 91.0 43.25 91.95 39.25 95.05 L35.75 98.0 38.7 94.4 Q41.8 90.15 42.75 87.0" fill="#e3f3ff" fill-rule="evenodd" stroke="none"/>
      <path d="M95.0 56.35 L97.15 55.1 Q96.9 59.4 95.75 63.0 L94.15 67.2 Q93.55 68.65 93.25 71.0 91.9 81.65 91.25 91.0 91.05 94.1 89.4 98.25 88.0 101.75 88.25 105.5 88.55 109.9 85.45 113.65 83.9 115.5 82.25 116.5 L84.75 112.0 Q86.15 109.45 85.8 104.75 85.4 99.1 85.75 97.5 L88.25 87.0 Q89.0 82.75 89.0 72.75 89.0 64.9 95.0 56.35" fill="#ffffff" fill-rule="evenodd" stroke="none"/>
      <path d="M67.5 94.5 Q67.5 95.5 66.5 95.5 65.5 95.5 65.5 94.5 L65.5 93.25 Q65.5 92.3 66.5 92.3 67.5 92.3 67.5 93.25 L67.5 94.5" fill="#ffffff" fill-rule="evenodd" stroke="none"/>
      <path d="M69.75 91.0 Q69.75 90.0 70.75 90.0 71.65 90.0 71.7 90.9 71.75 91.8 70.95 91.95 70.95 93.0 70.0 93.0 L69.0 93.0 Q68.05 93.0 68.05 92.0 68.05 91.0 69.0 91.0 L69.75 91.0" fill="#ffffff" fill-rule="evenodd" stroke="none"/>
      <path d="M68.95 97.55 Q69.65 98.25 68.9 98.95 68.2 99.6 67.5 98.95 67.0 98.45 67.0 97.75 66.95 96.85 67.85 96.8 68.75 96.7 68.95 97.55" fill="#ffffff" fill-rule="evenodd" stroke="none"/>
      <path d="M66.1 104.25 Q66.45 105.15 65.75 105.6 L65.0 105.7 Q64.55 105.6 64.35 105.25 64.0 104.45 64.0 102.75 63.95 101.8 64.95 101.8 65.95 101.8 66.0 102.75 L66.1 104.25" fill="#ffffff" fill-rule="evenodd" stroke="none"/>
      <path d="M71.0 104.0 Q70.05 104.0 70.05 103.0 70.05 102.0 71.0 102.0 71.95 102.0 71.95 103.0 71.95 104.0 71.0 104.0" fill="#ffffff" fill-rule="evenodd" stroke="none"/>
      <path d="M74.25 100.75 Q73.3 100.75 73.3 99.75 73.3 98.75 74.25 98.75 75.2 98.75 75.2 99.75 75.2 100.75 74.25 100.75" fill="#ffffff" fill-rule="evenodd" stroke="none"/>
      <path d="M73.5 98.25 Q72.55 98.25 72.55 97.25 72.55 96.25 73.5 96.25 74.45 96.25 74.45 97.25 74.45 98.25 73.5 98.25" fill="#ffffff" fill-rule="evenodd" stroke="none"/>
      <path d="M75.0 104.0 Q74.05 104.0 74.05 103.0 74.05 102.0 75.0 102.0 75.95 102.0 75.95 103.0 75.95 104.0 75.0 104.0" fill="#ffffff" fill-rule="evenodd" stroke="none"/>
      <path d="M77.0 107.75 Q77.95 107.75 77.95 108.75 77.95 109.75 77.0 109.75 76.05 109.75 76.05 108.75 76.05 107.75 77.0 107.75" fill="#ffffff" fill-rule="evenodd" stroke="none"/>
      <path d="M79.25 111.5 Q80.2 111.5 80.2 112.5 80.2 113.5 79.25 113.5 78.3 113.5 78.3 112.5 78.3 111.5 79.25 111.5" fill="#ffffff" fill-rule="evenodd" stroke="none"/>
      <path d="M78.0 105.5 Q78.95 105.5 78.95 106.5 78.95 107.5 78.0 107.5 77.05 107.5 77.05 106.5 77.05 105.5 78.0 105.5" fill="#ffffff" fill-rule="evenodd" stroke="none"/>
      <path d="M73.75 107.75 Q72.8 107.75 72.8 106.75 72.8 105.75 73.75 105.75 74.7 105.75 74.7 106.75 74.7 107.75 73.75 107.75" fill="#ffffff" fill-rule="evenodd" stroke="none"/>
      <path d="M71.5 109.5 Q72.45 109.5 72.45 110.5 72.45 111.5 71.5 111.5 70.55 111.5 70.55 110.5 70.55 109.5 71.5 109.5" fill="#ffffff" fill-rule="evenodd" stroke="none"/>
      <path d="M71.0 114.25 Q70.05 114.25 70.05 113.25 70.05 112.25 71.0 112.25 71.95 112.25 71.95 113.25 71.95 114.25 71.0 114.25" fill="#ffffff" fill-rule="evenodd" stroke="none"/>
      <path d="M69.5 108.5 Q68.55 108.5 68.55 107.5 68.55 106.5 69.5 106.5 70.45 106.5 70.45 107.5 70.45 108.5 69.5 108.5" fill="#ffffff" fill-rule="evenodd" stroke="none"/>
      <path d="M67.25 111.25 Q66.3 111.25 66.3 110.25 66.3 109.25 67.25 109.25 68.2 109.25 68.2 110.25 68.2 111.25 67.25 111.25" fill="#ffffff" fill-rule="evenodd" stroke="none"/>
      <path d="M67.0 113.25 Q67.95 113.25 67.95 114.25 67.95 115.25 67.0 115.25 66.05 115.25 66.05 114.25 66.05 113.25 67.0 113.25" fill="#ffffff" fill-rule="evenodd" stroke="none"/>
      <path d="M72.75 118.25 Q71.85 118.25 71.75 117.3 71.5 117.75 71.0 117.75 70.05 117.75 70.05 116.75 70.05 115.75 71.0 115.75 71.85 115.75 71.95 116.7 72.2 116.25 72.75 116.25 73.7 116.25 73.7 117.25 73.7 118.25 72.75 118.25" fill="#ffffff" fill-rule="evenodd" stroke="none"/>
      <path d="M74.75 119.5 Q73.8 119.5 73.8 118.5 73.8 117.5 74.75 117.5 75.7 117.5 75.7 118.5 75.7 119.5 74.75 119.5" fill="#ffffff" fill-rule="evenodd" stroke="none"/>
      <path d="M75.05 113.4 L75.15 114.25 75.35 114.5 76.0 115.15 Q76.85 115.6 76.3 116.45 75.8 117.3 74.95 116.85 74.15 116.45 73.6 115.5 73.4 115.1 73.55 114.7 73.1 114.25 73.3 113.65 73.55 113.0 74.25 113.0 74.8 113.0 75.05 113.4" fill="#ffffff" fill-rule="evenodd" stroke="none"/>
      <path d="M76.5 117.5 Q76.45 116.6 77.4 116.5 78.3 116.45 78.45 117.3 78.85 117.8 78.7 118.25 78.45 119.15 77.45 118.95 76.5 118.75 76.5 117.5" fill="#ffffff" fill-rule="evenodd" stroke="none"/>
      <path d="M74.75 122.0 Q74.75 121.05 75.75 121.05 76.75 121.05 76.75 122.0 L76.75 122.25 Q76.75 123.25 75.75 123.25 74.75 123.25 74.75 122.25 L74.75 122.0" fill="#ffffff" fill-rule="evenodd" stroke="none"/>
      <path d="M69.5 121.75 Q69.5 120.8 70.5 120.8 71.5 120.8 71.5 121.75 L71.5 122.0 Q71.5 123.0 70.5 123.0 69.5 123.0 69.5 122.0 L69.5 121.75" fill="#ffffff" fill-rule="evenodd" stroke="none"/>
      <path d="M68.25 119.25 Q69.2 119.25 69.2 120.25 69.2 121.25 68.25 121.25 67.3 121.25 67.3 120.25 67.3 119.25 68.25 119.25" fill="#ffffff" fill-rule="evenodd" stroke="none"/>
      <path d="M67.75 125.0 Q68.7 125.0 68.7 126.0 68.7 127.0 67.75 127.0 66.8 127.0 66.8 126.0 66.8 125.0 67.75 125.0" fill="#ffffff" fill-rule="evenodd" stroke="none"/>
      <path d="M64.75 127.5 Q65.7 127.5 65.7 128.5 65.7 129.5 64.75 129.5 63.8 129.5 63.8 128.5 63.8 127.5 64.75 127.5" fill="#ffffff" fill-rule="evenodd" stroke="none"/>
      <path d="M72.75 129.0 Q73.7 129.0 73.7 130.0 73.7 131.0 72.75 131.0 71.8 131.0 71.8 130.0 71.8 129.0 72.75 129.0" fill="#ffffff" fill-rule="evenodd" stroke="none"/>
      <path d="M73.5 126.25 Q74.45 126.25 74.45 127.25 74.45 128.25 73.5 128.25 72.55 128.25 72.55 127.25 72.55 126.25 73.5 126.25" fill="#ffffff" fill-rule="evenodd" stroke="none"/>
      <path d="M41.5 93.25 Q42.2 93.2 42.4 93.9 42.6 94.5 42.1 94.95 L41.6 95.4 40.95 95.45 Q40.05 95.2 40.25 94.25 40.4 93.35 41.5 93.25" fill="#ffffff" fill-rule="evenodd" stroke="none"/>
      <path d="M39.5 96.5 Q39.5 97.5 38.5 97.5 37.5 97.5 37.5 96.5 L37.5 96.0 Q37.5 95.05 38.5 95.05 39.5 95.05 39.5 96.0 L39.5 96.5" fill="#ffffff" fill-rule="evenodd" stroke="none"/>
      <path d="M38.0 98.75 Q38.0 99.75 37.0 99.75 36.0 99.75 36.0 98.75 L36.0 98.0 Q36.0 97.05 37.0 97.05 38.0 97.05 38.0 98.0 L38.0 98.75" fill="#ffffff" fill-rule="evenodd" stroke="none"/>
      <path d="M36.5 102.2 Q35.8 101.5 36.55 100.8 37.25 100.1 37.95 100.8 L38.2 101.05 Q38.9 101.75 38.15 102.45 37.45 103.1 36.75 102.45 L36.5 102.2" fill="#ffffff" fill-rule="evenodd" stroke="none"/>
      <path d="M38.5 103.5 Q39.3 103.5 39.45 104.3 39.6 105.05 38.95 105.35 39.6 105.7 39.45 106.45 39.3 107.25 38.5 107.25 37.65 107.25 37.5 106.45 37.35 105.7 38.0 105.35 37.35 105.05 37.5 104.3 37.65 103.5 38.5 103.5" fill="#ffffff" fill-rule="evenodd" stroke="none"/>
      <path d="M39.5 99.8 L39.75 99.55 Q40.15 99.15 40.55 99.25 40.4 98.65 40.85 98.25 40.35 97.8 40.55 97.15 40.75 96.5 41.5 96.5 42.2 96.5 42.4 97.15 42.6 97.8 42.1 98.25 42.6 98.65 42.4 99.3 42.2 100.0 41.5 100.0 L41.4 100.0 Q41.6 100.55 41.2 100.95 L40.95 101.2 Q40.25 101.85 39.55 101.2 38.8 100.5 39.5 99.8" fill="#ffffff" fill-rule="evenodd" stroke="none"/>
      <path d="M45.0 91.25 Q45.95 91.25 45.95 92.25 45.95 93.25 45.0 93.25 44.05 93.25 44.05 92.25 44.05 91.25 45.0 91.25" fill="#ffffff" fill-rule="evenodd" stroke="none"/>
      <path d="M43.05 95.25 Q43.05 94.25 44.0 94.25 L44.45 94.35 Q44.7 94.0 45.25 94.0 46.2 94.0 46.2 95.0 46.2 96.0 45.25 96.0 L44.75 95.85 Q44.5 96.25 44.0 96.25 43.05 96.25 43.05 95.25" fill="#ffffff" fill-rule="evenodd" stroke="none"/>
      <path d="M45.25 100.25 Q45.25 101.25 44.25 101.25 43.25 101.25 43.25 100.25 L43.25 100.0 Q43.25 99.05 44.25 99.05 45.25 99.05 45.25 100.0 L45.25 100.25" fill="#ffffff" fill-rule="evenodd" stroke="none"/>
      <path d="M45.5 104.5 Q44.55 104.5 44.55 103.5 44.55 102.5 45.5 102.5 46.45 102.5 46.45 103.5 46.45 104.5 45.5 104.5" fill="#ffffff" fill-rule="evenodd" stroke="none"/>
      <path d="M42.5 105.0 Q42.5 106.0 41.5 106.0 40.5 106.0 40.5 105.0 L40.5 104.25 Q40.5 103.3 41.5 103.3 42.5 103.3 42.5 104.25 L42.5 105.0" fill="#ffffff" fill-rule="evenodd" stroke="none"/>
      <path d="M42.0 110.0 Q41.05 110.0 41.05 109.0 41.05 108.0 42.0 108.0 42.95 108.0 42.95 109.0 42.95 110.0 42.0 110.0" fill="#ffffff" fill-rule="evenodd" stroke="none"/>
      <path d="M39.5 112.75 Q39.3 112.0 40.0 111.65 40.45 111.15 41.1 111.35 41.8 111.5 41.75 112.25 41.65 113.3 40.75 113.45 39.75 113.65 39.5 112.75" fill="#ffffff" fill-rule="evenodd" stroke="none"/>
      <path d="M41.5 115.5 Q42.45 115.5 42.45 116.5 42.45 117.5 41.5 117.5 40.55 117.5 40.55 116.5 40.55 115.5 41.5 115.5" fill="#ffffff" fill-rule="evenodd" stroke="none"/>
      <path d="M44.75 118.25 Q45.7 118.25 45.7 119.25 45.7 120.25 44.75 120.25 43.8 120.25 43.8 119.25 43.8 118.25 44.75 118.25" fill="#ffffff" fill-rule="evenodd" stroke="none"/>
      <path d="M45.0 116.25 Q45.95 116.25 45.95 117.25 45.95 118.25 45.0 118.25 44.05 118.25 44.05 117.25 44.05 116.25 45.0 116.25" fill="#ffffff" fill-rule="evenodd" stroke="none"/>
      <path d="M46.25 113.0 Q45.3 113.0 45.3 112.0 45.3 111.0 46.25 111.0 47.2 111.0 47.2 112.0 47.2 113.0 46.25 113.0" fill="#ffffff" fill-rule="evenodd" stroke="none"/>
      <path d="M53.5 104.7 Q52.85 104.05 53.5 103.3 L54.0 102.55 Q54.25 102.2 54.7 102.25 55.15 102.25 55.45 102.55 56.1 103.2 55.45 103.95 L54.95 104.7 Q54.7 105.0 54.25 105.0 53.8 104.95 53.5 104.7" fill="#ffffff" fill-rule="evenodd" stroke="none"/>
      <path d="M52.0 98.25 Q52.6 98.25 52.85 98.8 L52.8 99.75 52.85 100.75 Q52.6 101.25 52.0 101.25 51.35 101.25 51.15 100.75 50.9 100.25 51.15 99.75 50.9 99.25 51.15 98.8 51.35 98.25 52.0 98.25" fill="#ffffff" fill-rule="evenodd" stroke="none"/>
      <path d="M49.65 95.25 Q49.4 94.75 49.65 94.25 49.4 93.75 49.65 93.3 49.85 92.75 50.5 92.75 51.1 92.75 51.35 93.3 L51.3 94.25 Q51.55 94.75 51.35 95.25 51.1 95.75 50.5 95.75 49.85 95.75 49.65 95.25" fill="#ffffff" fill-rule="evenodd" stroke="none"/>
      <path d="M48.0 90.0 L48.25 90.0 Q49.2 90.0 49.2 91.0 49.2 92.0 48.25 92.0 L48.0 92.0 Q47.05 92.0 47.05 91.0 47.05 90.0 48.0 90.0" fill="#ffffff" fill-rule="evenodd" stroke="none"/>
      <path d="M48.0 88.25 Q47.05 88.25 47.05 87.25 47.05 86.25 48.0 86.25 48.95 86.25 48.95 87.25 48.95 88.25 48.0 88.25" fill="#ffffff" fill-rule="evenodd" stroke="none"/>
      <path d="M43.5 85.5 Q44.45 85.5 44.45 86.5 44.45 87.5 43.5 87.5 42.55 87.5 42.55 86.5 42.55 85.5 43.5 85.5" fill="#ffffff" fill-rule="evenodd" stroke="none"/>
      <path d="M44.25 90.75 Q43.3 90.75 43.3 89.75 43.3 88.75 44.25 88.75 45.2 88.75 45.2 89.75 45.2 90.75 44.25 90.75" fill="#ffffff" fill-rule="evenodd" stroke="none"/>
      <path d="M52.0 86.55 Q52.4 86.6 52.6 87.0 L52.7 87.75 Q52.5 88.65 51.45 88.45 L50.7 88.2 50.1 87.75 Q49.9 87.35 50.0 87.0 50.2 86.1 51.25 86.3 L52.0 86.55" fill="#ffffff" fill-rule="evenodd" stroke="none"/>
      <path d="M49.7 85.45 L49.1 85.0 Q48.9 84.6 49.0 84.25 49.2 83.35 50.25 83.55 L51.2 84.05 Q51.9 84.7 51.2 85.4 L49.8 85.45 49.7 85.45" fill="#ffffff" fill-rule="evenodd" stroke="none"/>
      <path d="M52.5 85.25 Q51.55 85.25 51.55 84.25 51.55 83.25 52.5 83.25 53.45 83.25 53.45 84.25 53.45 85.25 52.5 85.25" fill="#ffffff" fill-rule="evenodd" stroke="none"/>
      <path d="M85.5 76.75 Q86.45 76.75 86.45 77.75 86.45 78.75 85.5 78.75 84.55 78.75 84.55 77.75 84.55 76.75 85.5 76.75" fill="#ffffff" fill-rule="evenodd" stroke="none"/>
      <path d="M86.25 74.0 Q87.2 74.0 87.2 75.0 87.2 76.0 86.25 76.0 85.3 76.0 85.3 75.0 85.3 74.0 86.25 74.0" fill="#ffffff" fill-rule="evenodd" stroke="none"/>
      <path d="M86.25 71.75 Q87.2 71.75 87.2 72.75 87.2 73.75 86.25 73.75 85.3 73.75 85.3 72.75 85.3 71.75 86.25 71.75" fill="#ffffff" fill-rule="evenodd" stroke="none"/>
      <path d="M86.25 69.5 Q85.3 69.5 85.3 68.5 85.3 67.5 86.25 67.5 87.2 67.5 87.2 68.5 87.2 69.5 86.25 69.5" fill="#ffffff" fill-rule="evenodd" stroke="none"/>
      <path d="M88.25 65.75 Q87.3 65.75 87.3 64.75 87.3 63.75 88.25 63.75 89.2 63.75 89.2 64.75 89.2 65.75 88.25 65.75" fill="#ffffff" fill-rule="evenodd" stroke="none"/>
      <path d="M88.25 68.25 Q87.3 68.25 87.3 67.25 87.3 66.25 88.25 66.25 89.2 66.25 89.2 67.25 89.2 68.25 88.25 68.25" fill="#ffffff" fill-rule="evenodd" stroke="none"/>
      <path d="M87.5 81.55 Q87.3 82.5 86.5 82.5 86.05 82.5 85.75 82.2 85.45 81.9 85.5 81.5 85.55 80.55 86.25 79.8 86.9 79.1 87.65 79.8 88.35 80.5 87.7 81.2 L87.5 81.55" fill="#ffffff" fill-rule="evenodd" stroke="none"/>
      <path d="M84.25 83.5 Q85.2 83.5 85.2 84.5 85.2 85.5 84.25 85.5 83.3 85.5 83.3 84.5 83.3 83.5 84.25 83.5" fill="#ffffff" fill-rule="evenodd" stroke="none"/>
      <path d="M85.0 89.5 Q84.05 89.5 84.05 88.5 84.05 87.5 85.0 87.5 85.95 87.5 85.95 88.5 85.95 89.5 85.0 89.5" fill="#ffffff" fill-rule="evenodd" stroke="none"/>
      <path d="M85.75 89.55 Q86.55 89.75 86.45 90.75 86.4 91.3 85.95 91.7 85.3 92.4 84.55 91.7 83.85 91.0 84.5 90.3 L84.5 90.25 Q84.55 89.85 85.0 89.65 L85.75 89.55" fill="#ffffff" fill-rule="evenodd" stroke="none"/>
      <path d="M83.0 95.5 Q83.0 94.55 84.0 94.55 85.0 94.55 85.0 95.5 L85.0 96.0 Q85.0 97.0 84.0 97.0 83.0 97.0 83.0 96.0 L83.0 95.5" fill="#ffffff" fill-rule="evenodd" stroke="none"/>
      <path d="M52.45 106.75 L52.7 107.05 Q53.4 107.75 52.65 108.45 51.95 109.1 51.25 108.45 50.6 107.7 50.5 107.25 50.4 106.25 51.2 106.05 L52.0 106.15 52.45 106.75" fill="#ffffff" fill-rule="evenodd" stroke="none"/>
      <path d="M49.0 105.5 Q48.05 105.5 48.05 104.5 48.05 103.5 49.0 103.5 49.95 103.5 49.95 104.5 49.95 105.5 49.0 105.5" fill="#ffffff" fill-rule="evenodd" stroke="none"/>
      <path d="M50.2 113.2 Q49.15 113.0 49.0 112.0 48.9 111.0 49.7 110.8 L50.4 110.85 50.9 111.35 51.35 111.75 51.85 111.3 52.5 111.3 52.55 111.3 Q52.65 110.5 53.5 110.5 54.45 110.5 54.45 111.5 54.45 112.5 53.5 112.5 L53.2 112.45 53.2 112.5 Q53.15 113.05 52.7 113.45 52.3 113.9 51.75 113.7 51.25 113.55 51.05 113.05 L50.2 113.2" fill="#ffffff" fill-rule="evenodd" stroke="none"/>
      <path d="M55.0 114.25 Q55.95 114.25 55.95 115.25 55.95 116.25 55.0 116.25 54.05 116.25 54.05 115.25 54.05 114.25 55.0 114.25" fill="#ffffff" fill-rule="evenodd" stroke="none"/>
      <path d="M55.75 118.5 Q55.75 119.5 54.75 119.5 53.75 119.5 53.75 118.5 L53.75 118.25 Q53.75 117.3 54.75 117.3 55.75 117.3 55.75 118.25 L55.75 118.5" fill="#ffffff" fill-rule="evenodd" stroke="none"/>
      <path d="M54.75 120.75 Q54.75 119.8 55.75 119.8 56.75 119.8 56.75 120.75 L56.75 121.0 Q56.75 122.0 55.75 122.0 54.75 122.0 54.75 121.0 L54.75 120.75" fill="#ffffff" fill-rule="evenodd" stroke="none"/>
      <path d="M57.5 118.0 Q58.45 118.0 58.45 119.0 58.45 120.0 57.5 120.0 56.55 120.0 56.55 119.0 56.55 118.0 57.5 118.0" fill="#ffffff" fill-rule="evenodd" stroke="none"/>
      <path d="M47.5 120.5 Q48.45 120.5 48.45 121.5 48.45 122.5 47.5 122.5 46.55 122.5 46.55 121.5 46.55 120.5 47.5 120.5" fill="#ffffff" fill-rule="evenodd" stroke="none"/>
      <path d="M48.8 118.75 L48.75 118.75 Q47.8 118.75 47.8 117.75 47.8 116.75 48.75 116.75 49.3 116.75 49.55 117.15 L49.65 118.0 49.75 118.0 Q50.7 118.0 50.7 119.0 50.7 120.0 49.75 120.0 49.2 120.0 48.9 119.6 48.7 119.2 48.8 118.75" fill="#ffffff" fill-rule="evenodd" stroke="none"/>
      <path d="M44.0 122.25 Q44.0 123.25 43.0 123.25 42.0 123.25 42.0 122.25 L42.0 122.0 Q42.0 121.05 43.0 121.05 44.0 121.05 44.0 122.0 L44.0 122.25" fill="#ffffff" fill-rule="evenodd" stroke="none"/>
      <path d="M43.0 124.75 Q43.95 124.75 43.95 125.75 43.95 126.75 43.0 126.75 42.05 126.75 42.05 125.75 42.05 124.75 43.0 124.75" fill="#ffffff" fill-rule="evenodd" stroke="none"/>
      <path d="M46.75 125.75 Q47.7 125.75 47.7 126.75 47.7 127.75 46.75 127.75 45.8 127.75 45.8 126.75 45.8 125.75 46.75 125.75" fill="#ffffff" fill-rule="evenodd" stroke="none"/>
      <path d="M46.75 129.75 Q45.8 129.75 45.8 128.75 45.8 127.75 46.75 127.75 47.7 127.75 47.7 128.75 47.7 129.75 46.75 129.75" fill="#ffffff" fill-rule="evenodd" stroke="none"/>
      <path d="M49.5 127.75 Q50.45 127.75 50.45 128.75 50.45 129.75 49.5 129.75 48.55 129.75 48.55 128.75 48.55 127.75 49.5 127.75" fill="#ffffff" fill-rule="evenodd" stroke="none"/>
      <path d="M49.5 126.0 Q48.55 126.0 48.55 125.0 48.55 124.0 49.5 124.0 50.45 124.0 50.45 125.0 50.45 126.0 49.5 126.0" fill="#ffffff" fill-rule="evenodd" stroke="none"/>
      <path d="M51.25 127.75 Q50.3 127.75 50.3 126.75 50.3 125.75 51.25 125.75 52.2 125.75 52.2 126.75 52.2 127.75 51.25 127.75" fill="#ffffff" fill-rule="evenodd" stroke="none"/>
      <path d="M51.75 131.25 Q50.8 131.25 50.8 130.25 50.8 129.25 51.75 129.25 52.7 129.25 52.7 130.25 52.7 131.25 51.75 131.25" fill="#ffffff" fill-rule="evenodd" stroke="none"/>
      <path d="M48.75 132.5 Q47.8 132.5 47.8 131.5 47.8 130.5 48.75 130.5 49.7 130.5 49.7 131.5 49.7 132.5 48.75 132.5" fill="#ffffff" fill-rule="evenodd" stroke="none"/>
      <path d="M47.75 135.25 Q47.75 134.3 48.75 134.3 49.75 134.3 49.75 135.25 L49.75 135.5 Q49.75 136.5 48.75 136.5 47.75 136.5 47.75 135.5 L47.75 135.25" fill="#ffffff" fill-rule="evenodd" stroke="none"/>
      <path d="M54.1 134.3 Q54.45 134.9 53.95 135.45 L53.7 135.7 Q53.3 136.1 52.85 136.0 L52.15 135.5 Q51.95 136.25 51.25 136.25 50.35 136.25 50.25 135.35 50.2 134.45 51.0 134.3 L51.0 134.25 Q51.15 133.35 52.25 133.25 52.8 133.2 53.1 133.75 53.75 133.7 54.1 134.3" fill="#ffffff" fill-rule="evenodd" stroke="none"/>
      <path d="M54.5 131.0 Q55.45 131.0 55.45 132.0 55.45 133.0 54.5 133.0 53.55 133.0 53.55 132.0 53.55 131.0 54.5 131.0" fill="#ffffff" fill-rule="evenodd" stroke="none"/>
      <path d="M44.0 131.75 Q44.95 131.75 44.95 132.75 44.95 133.75 44.0 133.75 43.05 133.75 43.05 132.75 43.05 131.75 44.0 131.75" fill="#ffffff" fill-rule="evenodd" stroke="none"/>
      <path d="M37.0 128.5 Q37.95 128.5 37.95 129.5 37.95 130.5 37.0 130.5 36.05 130.5 36.05 129.5 36.05 128.5 37.0 128.5" fill="#ffffff" fill-rule="evenodd" stroke="none"/>
      <path d="M36.5 127.25 Q36.5 128.25 35.5 128.25 34.5 128.25 34.5 127.25 L34.5 126.75 Q34.5 125.8 35.5 125.8 36.5 125.8 36.5 126.75 L36.5 127.25" fill="#ffffff" fill-rule="evenodd" stroke="none"/>
      <path d="M36.5 123.5 L36.2 123.45 Q36.2 124.5 35.25 124.5 34.65 124.5 34.4 124.0 34.2 124.75 33.5 124.75 32.55 124.75 32.55 123.75 32.55 122.75 33.5 122.75 34.05 122.75 34.3 123.25 34.5 122.5 35.25 122.5 L35.5 122.55 Q35.5 121.5 36.5 121.5 37.45 121.5 37.45 122.5 37.45 123.5 36.5 123.5" fill="#ffffff" fill-rule="evenodd" stroke="none"/>
      <path d="M31.75 125.25 Q32.7 125.25 32.7 126.25 32.7 127.25 31.75 127.25 30.8 127.25 30.8 126.25 30.8 125.25 31.75 125.25" fill="#ffffff" fill-rule="evenodd" stroke="none"/>
      <path d="M34.0 127.75 Q34.95 127.75 34.95 128.75 34.95 129.75 34.0 129.75 33.05 129.75 33.05 128.75 33.05 127.75 34.0 127.75" fill="#ffffff" fill-rule="evenodd" stroke="none"/>
      <path d="M33.0 117.25 L33.0 116.5 Q33.0 115.55 34.0 115.55 35.0 115.55 35.0 116.5 L35.0 117.25 34.9 117.55 Q35.35 118.0 35.15 118.6 34.95 119.25 34.25 119.25 33.7 119.25 33.4 118.85 33.2 118.45 33.3 118.0 33.0 117.7 33.0 117.25" fill="#ffffff" fill-rule="evenodd" stroke="none"/>
      <path d="M34.25 114.5 Q33.3 114.5 33.3 113.5 33.3 112.5 34.25 112.5 35.2 112.5 35.2 113.5 35.2 114.5 34.25 114.5" fill="#ffffff" fill-rule="evenodd" stroke="none"/>
      <path d="M44.0 110.5 Q43.05 110.5 43.05 109.5 43.05 108.5 44.0 108.5 44.95 108.5 44.95 109.5 44.95 110.5 44.0 110.5" fill="#ffffff" fill-rule="evenodd" stroke="none"/>
      <path d="M45.5 106.75 Q46.45 106.75 46.45 107.75 46.45 108.75 45.5 108.75 44.95 108.75 44.65 108.3 44.45 107.9 44.55 107.4 L44.25 107.5 Q43.3 107.5 43.3 106.5 43.3 105.5 44.25 105.5 L45.05 105.95 Q45.3 106.35 45.15 106.8 L45.5 106.75" fill="#ffffff" fill-rule="evenodd" stroke="none"/>
      <path d="M91.6 112.15 L91.25 112.25 Q90.3 112.25 90.3 111.25 90.3 110.25 91.25 110.25 L91.6 110.3 92.0 110.25 Q92.95 110.25 92.95 111.25 92.95 112.25 92.0 112.25 L91.6 112.15" fill="#ffffff" fill-rule="evenodd" stroke="none"/>
      <path d="M94.2 107.1 Q93.75 107.6 93.1 107.4 92.45 107.2 92.5 106.5 92.5 105.45 93.45 105.3 94.5 105.1 94.7 106.0 94.9 106.75 94.2 107.1" fill="#ffffff" fill-rule="evenodd" stroke="none"/>
      <path d="M95.5 102.25 Q94.55 102.25 94.55 101.25 94.55 100.25 95.5 100.25 96.45 100.25 96.45 101.25 96.45 102.25 95.5 102.25" fill="#ffffff" fill-rule="evenodd" stroke="none"/>
      <path d="M97.75 64.0 Q97.85 63.45 98.5 62.8 L98.75 62.6 Q98.1 62.3 98.25 61.55 98.4 60.75 99.25 60.75 100.2 60.75 100.2 61.8 101.25 61.6 101.45 62.5 101.65 63.25 100.95 63.6 100.65 63.95 100.1 63.95 L99.95 64.2 99.7 64.5 99.25 65.1 98.45 65.2 Q97.65 65.0 97.75 64.0" fill="#ffffff" fill-rule="evenodd" stroke="none"/>
      <path d="M101.3 58.2 Q100.45 58.1 100.5 57.15 100.6 56.25 101.5 56.25 102.05 56.25 102.3 56.7 L102.4 57.55 Q103.25 57.65 103.2 58.6 103.15 59.5 102.25 59.5 101.7 59.5 101.4 59.1 101.2 58.7 101.3 58.2" fill="#ffffff" fill-rule="evenodd" stroke="none"/>
      <path d="M105.5 54.25 Q104.55 54.25 104.55 53.25 104.55 52.25 105.5 52.25 106.45 52.25 106.45 53.25 106.45 54.25 105.5 54.25" fill="#ffffff" fill-rule="evenodd" stroke="none"/>
      <path d="M103.5 56.5 Q102.55 56.5 102.55 55.5 102.55 54.5 103.5 54.5 104.45 54.5 104.45 55.5 104.45 56.5 103.5 56.5" fill="#ffffff" fill-rule="evenodd" stroke="none"/>
      <path d="M108.75 54.75 Q109.7 54.75 109.7 55.75 109.7 56.75 108.75 56.75 107.8 56.75 107.8 55.75 107.8 54.75 108.75 54.75" fill="#ffffff" fill-rule="evenodd" stroke="none"/>
      <path d="M101.5 54.0 Q100.55 54.0 100.55 53.0 100.55 52.0 101.5 52.0 102.45 52.0 102.45 53.0 102.45 54.0 101.5 54.0" fill="#ffffff" fill-rule="evenodd" stroke="none"/>
      <path d="M102.5 64.75 Q101.55 64.75 101.55 63.75 101.55 62.75 102.5 62.75 103.45 62.75 103.45 63.75 103.45 64.75 102.5 64.75" fill="#ffffff" fill-rule="evenodd" stroke="none"/>
      <path d="M99.5 60.0 Q98.55 60.0 98.55 59.0 98.55 58.0 99.5 58.0 100.45 58.0 100.45 59.0 100.45 60.0 99.5 60.0" fill="#ffffff" fill-rule="evenodd" stroke="none"/>
      <path d="M103.75 61.0 Q104.7 61.0 104.7 62.0 104.7 63.0 103.75 63.0 102.85 63.0 102.75 62.05 L102.25 62.25 Q101.3 62.25 101.3 61.25 101.3 60.25 102.25 60.25 103.1 60.25 103.2 61.15 L103.75 61.0" fill="#ffffff" fill-rule="evenodd" stroke="none"/>
      <path d="M107.75 57.5 Q108.7 57.5 108.7 58.5 108.7 59.5 107.75 59.5 107.3 59.5 107.05 59.2 L107.1 60.1 106.35 60.7 Q106.1 61.4 105.5 61.45 104.5 61.65 104.25 60.75 104.1 60.15 104.6 59.7 103.75 59.6 103.8 58.65 103.85 57.75 104.75 57.75 105.25 57.75 105.5 58.15 105.75 58.5 105.65 58.95 L106.25 58.75 Q106.7 58.75 106.9 59.05 106.5 58.3 107.1 57.7 L107.0 57.75 Q106.05 57.75 106.05 56.75 106.05 55.75 107.0 55.75 107.7 55.75 107.9 56.45 108.1 57.1 107.6 57.5 L107.75 57.5" fill="#ffffff" fill-rule="evenodd" stroke="none"/>
      <path d="M98.25 70.25 Q97.3 70.25 97.3 69.25 97.3 68.25 98.25 68.25 98.85 68.25 99.1 68.8 99.35 69.3 99.05 69.8 L99.25 69.75 Q100.2 69.75 100.2 70.75 100.2 71.75 99.25 71.75 98.6 71.75 98.35 71.2 98.1 70.7 98.4 70.2 L98.25 70.25" fill="#ffffff" fill-rule="evenodd" stroke="none"/>
      <path d="M96.0 68.25 Q95.05 68.25 95.05 67.25 95.05 66.25 96.0 66.25 96.95 66.25 96.95 67.25 96.95 68.25 96.0 68.25" fill="#ffffff" fill-rule="evenodd" stroke="none"/>
      <path d="M98.25 76.0 Q97.3 76.0 97.3 75.0 97.3 74.0 98.25 74.0 99.2 74.0 99.2 75.0 99.2 76.0 98.25 76.0" fill="#ffffff" fill-rule="evenodd" stroke="none"/>
      <path d="M94.75 76.75 Q93.8 76.75 93.8 75.75 93.8 74.75 94.75 74.75 95.7 74.75 95.7 75.75 95.7 76.75 94.75 76.75" fill="#ffffff" fill-rule="evenodd" stroke="none"/>
      <path d="M93.0 85.0 Q92.05 85.0 92.05 84.0 92.05 83.0 93.0 83.0 93.95 83.0 93.95 84.0 93.95 85.0 93.0 85.0" fill="#ffffff" fill-rule="evenodd" stroke="none"/>
      <path d="M98.0 81.5 Q97.05 81.5 97.05 80.5 97.05 79.5 98.0 79.5 98.95 79.5 98.95 80.5 98.95 81.5 98.0 81.5" fill="#ffffff" fill-rule="evenodd" stroke="none"/>
      <path d="M96.0 77.75 Q96.95 77.75 96.95 78.75 96.95 79.75 96.0 79.75 95.05 79.75 95.05 78.75 95.05 77.75 96.0 77.75" fill="#ffffff" fill-rule="evenodd" stroke="none"/>
      <path d="M94.0 82.25 Q93.05 82.25 93.05 81.25 93.05 80.25 94.0 80.25 94.95 80.25 94.95 81.25 94.95 82.25 94.0 82.25" fill="#ffffff" fill-rule="evenodd" stroke="none"/>
      <path d="M101.75 77.0 Q102.7 77.0 102.7 78.0 102.7 79.0 101.75 79.0 100.8 79.0 100.8 78.0 100.8 77.0 101.75 77.0" fill="#ffffff" fill-rule="evenodd" stroke="none"/>
      <path d="M96.0 73.0 Q95.05 73.0 95.05 72.0 95.05 71.0 96.0 71.0 96.95 71.0 96.95 72.0 96.95 73.0 96.0 73.0" fill="#ffffff" fill-rule="evenodd" stroke="none"/>
      <path d="M97.0 86.25 Q96.05 86.25 96.05 85.25 96.05 84.25 97.0 84.25 97.3 84.25 97.5 84.4 L98.0 84.25 Q98.95 84.25 98.95 85.25 98.95 86.25 98.0 86.25 L97.5 86.1 97.0 86.25" fill="#ffffff" fill-rule="evenodd" stroke="none"/>
      <path d="M94.25 88.25 Q95.2 88.25 95.2 89.25 95.2 90.25 94.25 90.25 93.3 90.25 93.3 89.25 93.3 88.25 94.25 88.25" fill="#ffffff" fill-rule="evenodd" stroke="none"/>
      <path d="M94.75 97.5 Q93.8 97.5 93.8 96.5 93.8 95.5 94.75 95.5 95.7 95.5 95.7 96.5 95.7 97.5 94.75 97.5" fill="#ffffff" fill-rule="evenodd" stroke="none"/>
      <path d="M91.75 99.25 Q90.8 99.25 90.8 98.25 90.8 97.25 91.75 97.25 92.7 97.25 92.7 98.25 92.7 99.25 91.75 99.25" fill="#ffffff" fill-rule="evenodd" stroke="none"/>
      <path d="M89.75 102.75 Q88.8 102.75 88.8 101.75 88.8 100.75 89.75 100.75 90.7 100.75 90.7 101.75 90.7 102.75 89.75 102.75" fill="#ffffff" fill-rule="evenodd" stroke="none"/>
      <path d="M90.5 105.0 Q89.55 105.0 89.55 104.0 89.55 103.0 90.5 103.0 91.45 103.0 91.45 104.0 91.45 105.0 90.5 105.0" fill="#ffffff" fill-rule="evenodd" stroke="none"/>
      <path d="M92.5 101.25 Q93.45 101.25 93.45 102.25 93.45 103.25 92.5 103.25 91.55 103.25 91.55 102.25 91.55 101.25 92.5 101.25" fill="#ffffff" fill-rule="evenodd" stroke="none"/>
      <path d="M89.5 105.75 Q90.45 105.75 90.45 106.75 90.45 107.75 89.5 107.75 88.55 107.75 88.55 106.75 88.55 105.75 89.5 105.75" fill="#ffffff" fill-rule="evenodd" stroke="none"/>
      <path d="M95.8 108.0 Q95.8 107.0 96.75 107.0 L97.15 107.1 98.05 107.2 Q98.5 107.45 98.5 108.0 L98.5 108.25 Q98.5 108.95 97.85 109.15 L96.8 109.0 96.75 109.0 Q95.8 109.0 95.8 108.0" fill="#ffffff" fill-rule="evenodd" stroke="none"/>
      <path d="M94.75 110.75 Q95.7 110.75 95.7 111.75 95.7 112.75 94.75 112.75 93.8 112.75 93.8 111.75 93.8 110.75 94.75 110.75" fill="#ffffff" fill-rule="evenodd" stroke="none"/>
      <path d="M93.0 113.75 Q93.0 114.75 92.0 114.75 91.0 114.75 91.0 113.75 L91.0 113.5 Q91.0 112.55 92.0 112.55 93.0 112.55 93.0 113.5 L93.0 113.75" fill="#ffffff" fill-rule="evenodd" stroke="none"/>
      <path d="M88.0 118.75 Q88.95 118.75 88.95 119.75 88.95 120.75 88.0 120.75 87.05 120.75 87.05 119.75 87.05 118.75 88.0 118.75" fill="#ffffff" fill-rule="evenodd" stroke="none"/>
      <path d="M88.25 113.0 Q89.1 113.0 89.2 113.85 89.3 114.7 88.55 114.95 L88.95 115.7 Q88.95 116.2 88.6 116.5 89.45 116.6 89.45 117.55 89.4 118.5 88.5 118.5 87.75 118.5 87.55 117.8 87.35 117.15 87.85 116.7 87.1 116.65 87.0 115.85 86.95 115.05 87.65 114.8 87.15 114.4 87.3 113.7 87.45 113.0 88.25 113.0" fill="#ffffff" fill-rule="evenodd" stroke="none"/>
      <path d="M84.25 114.5 Q84.25 113.55 85.25 113.55 86.25 113.55 86.25 114.5 L86.25 115.0 Q86.25 116.0 85.25 116.0 84.25 116.0 84.25 115.0 L84.25 114.5" fill="#ffffff" fill-rule="evenodd" stroke="none"/>
      <path d="M84.5 118.75 Q85.45 118.75 85.45 119.75 85.45 120.75 84.5 120.75 83.55 120.75 83.55 119.75 83.55 118.75 84.5 118.75" fill="#ffffff" fill-rule="evenodd" stroke="none"/>
      <path d="M92.75 119.0 Q93.7 119.0 93.7 120.0 93.7 121.0 92.75 121.0 91.8 121.0 91.8 120.0 91.8 119.0 92.75 119.0" fill="#ffffff" fill-rule="evenodd" stroke="none"/>
      <path d="M95.5 118.0 Q95.5 117.05 96.5 117.05 97.5 117.05 97.5 118.0 L97.5 118.25 97.05 119.0 Q97.3 119.5 97.1 120.0 96.85 120.5 96.25 120.5 95.5 120.5 95.3 119.8 95.1 119.15 95.6 118.75 L95.5 118.25 95.5 118.0" fill="#ffffff" fill-rule="evenodd" stroke="none"/>
      <path d="M97.0 113.0 Q97.65 113.0 97.85 113.6 98.05 114.15 97.75 114.65 98.3 115.0 98.15 115.75 98.0 116.5 97.25 116.5 96.6 116.5 96.35 115.9 96.15 115.3 96.5 114.85 L96.15 114.45 96.0 114.5 Q95.05 114.5 95.05 113.5 95.05 112.5 96.0 112.5 96.65 112.5 96.8 113.0 L97.0 113.0" fill="#ffffff" fill-rule="evenodd" stroke="none"/>
      <path d="M93.55 115.75 Q94.45 115.85 94.45 116.8 94.45 117.75 93.5 117.75 92.95 117.75 92.65 117.2 91.75 117.15 91.75 116.2 91.8 115.25 92.75 115.25 93.3 115.25 93.55 115.75" fill="#ffffff" fill-rule="evenodd" stroke="none"/>
      <path d="M100.0 116.75 Q100.95 116.75 100.95 117.75 100.95 118.75 100.0 118.75 99.05 118.75 99.05 117.75 99.05 116.75 100.0 116.75" fill="#ffffff" fill-rule="evenodd" stroke="none"/>
      <path d="M101.0 114.5 Q101.95 114.5 101.95 115.5 101.95 116.5 101.0 116.5 100.05 116.5 100.05 115.5 100.05 114.5 101.0 114.5" fill="#ffffff" fill-rule="evenodd" stroke="none"/>
      <path d="M103.75 114.5 Q104.7 114.5 104.7 115.5 104.7 116.5 103.75 116.5 102.8 116.5 102.8 115.5 102.8 114.5 103.75 114.5" fill="#ffffff" fill-rule="evenodd" stroke="none"/>
      <path d="M100.25 112.0 Q100.25 113.0 99.25 113.0 98.25 113.0 98.25 112.0 L98.25 111.0 Q98.25 110.05 99.25 110.05 100.25 110.05 100.25 111.0 L100.25 112.0" fill="#ffffff" fill-rule="evenodd" stroke="none"/>
      <path d="M98.75 103.0 Q99.5 103.0 99.65 103.75 99.8 104.5 99.25 104.85 99.6 105.3 99.35 105.9 99.15 106.5 98.5 106.5 97.7 106.5 97.55 105.75 97.4 105.0 98.0 104.65 97.65 104.15 97.85 103.6 98.05 103.0 98.75 103.0" fill="#ffffff" fill-rule="evenodd" stroke="none"/>
      <path d="M99.5 99.0 Q100.45 99.0 100.45 100.0 100.45 101.0 99.5 101.0 98.55 101.0 98.55 100.0 98.55 99.0 99.5 99.0" fill="#ffffff" fill-rule="evenodd" stroke="none"/>
      <path d="M100.75 93.25 Q101.7 93.25 101.7 94.25 101.7 95.25 100.75 95.25 99.8 95.25 99.8 94.25 99.8 93.25 100.75 93.25" fill="#ffffff" fill-rule="evenodd" stroke="none"/>
      <path d="M101.0 90.75 Q101.95 90.75 101.95 91.75 101.95 92.75 101.0 92.75 100.05 92.75 100.05 91.75 100.05 90.75 101.0 90.75" fill="#ffffff" fill-rule="evenodd" stroke="none"/>
      <path d="M109.25 68.25 Q109.2 69.25 108.2 69.25 107.2 69.25 107.25 68.25 107.25 66.55 107.5 65.75 107.8 64.8 108.75 65.05 109.7 65.3 109.45 66.25 L109.25 68.25" fill="#c1dae8" fill-rule="evenodd" stroke="none"/>
      <path d="M107.0 74.6 L106.25 74.7 105.6 74.25 Q105.25 73.4 105.25 72.5 105.2 71.55 106.2 71.55 107.2 71.55 107.25 72.5 L107.35 73.25 Q107.7 74.15 107.0 74.6" fill="#c1dae8" fill-rule="evenodd" stroke="none"/>
      <path d="M109.05 70.55 Q109.75 69.85 110.45 70.55 L110.7 70.8 Q111.25 71.35 110.75 72.05 L111.0 72.0 Q111.95 72.0 111.95 73.0 111.95 74.0 111.0 74.0 110.35 74.0 110.1 73.45 109.85 72.95 110.15 72.45 109.6 72.55 109.25 72.2 L109.0 71.95 Q108.3 71.25 109.05 70.55" fill="#c1dae8" fill-rule="evenodd" stroke="none"/>
      <path d="M107.5 76.0 Q108.3 76.0 108.5 77.0 L108.55 77.15 108.75 78.0 Q108.8 78.4 108.45 78.7 L107.75 79.0 Q106.85 79.0 106.75 78.0 L106.65 77.8 106.6 77.55 106.5 77.0 Q106.45 76.6 106.75 76.3 107.05 76.0 107.5 76.0" fill="#c1dae8" fill-rule="evenodd" stroke="none"/>
      <path d="M109.5 80.0 Q110.45 80.0 110.45 81.0 110.45 82.0 109.5 82.0 108.55 82.0 108.55 81.0 108.55 80.0 109.5 80.0" fill="#c1dae8" fill-rule="evenodd" stroke="none"/>
      <path d="M111.25 78.0 Q110.3 78.0 110.3 77.0 110.3 76.0 111.25 76.0 112.2 76.0 112.2 77.0 112.2 78.0 111.25 78.0" fill="#c1dae8" fill-rule="evenodd" stroke="none"/>
      <path d="M112.25 74.75 Q112.2 74.0 112.85 73.85 113.5 73.65 113.95 74.15 114.65 74.5 114.45 75.25 114.2 76.15 113.2 75.95 112.25 75.8 112.25 74.75" fill="#c1dae8" fill-rule="evenodd" stroke="none"/>
      <path d="M116.5 81.0 Q115.55 81.0 115.55 80.0 115.55 79.0 116.5 79.0 117.45 79.0 117.45 80.0 117.45 81.0 116.5 81.0" fill="#c1dae8" fill-rule="evenodd" stroke="none"/>
      <path d="M114.0 84.25 Q113.05 84.25 113.05 83.25 113.05 82.25 114.0 82.25 114.95 82.25 114.95 83.25 114.95 84.25 114.0 84.25" fill="#c1dae8" fill-rule="evenodd" stroke="none"/>
      <path d="M112.0 87.0 Q112.95 87.0 112.95 88.0 112.95 89.0 112.0 89.0 111.05 89.0 111.05 88.0 111.05 87.0 112.0 87.0" fill="#c1dae8" fill-rule="evenodd" stroke="none"/>
      <path d="M106.25 88.0 Q105.3 88.0 105.3 87.0 105.3 86.0 106.25 86.0 107.2 86.0 107.2 87.0 107.2 88.0 106.25 88.0" fill="#c1dae8" fill-rule="evenodd" stroke="none"/>
      <path d="M107.5 82.5 Q108.45 82.5 108.45 83.5 108.45 84.5 107.5 84.5 106.55 84.5 106.55 83.5 106.55 82.5 107.5 82.5" fill="#c1dae8" fill-rule="evenodd" stroke="none"/>
      <path d="M108.25 87.0 Q107.3 87.0 107.3 86.0 107.3 85.0 108.25 85.0 109.2 85.0 109.2 86.0 109.2 87.0 108.25 87.0" fill="#c1dae8" fill-rule="evenodd" stroke="none"/>
      <path d="M109.0 87.0 Q109.95 87.0 109.95 88.0 109.95 89.0 109.0 89.0 108.05 89.0 108.05 88.0 108.05 87.0 109.0 87.0" fill="#c1dae8" fill-rule="evenodd" stroke="none"/>
      <path d="M115.75 89.5 Q114.8 89.5 114.8 88.5 114.8 87.5 115.75 87.5 116.7 87.5 116.7 88.5 116.7 89.5 115.75 89.5" fill="#c1dae8" fill-rule="evenodd" stroke="none"/>
      <path d="M117.1 88.0 Q116.75 87.1 117.45 86.65 L118.25 86.55 Q118.65 86.65 118.85 87.0 119.15 87.65 119.25 89.0 119.25 90.0 118.25 90.0 117.25 90.0 117.25 89.0 L117.1 88.0" fill="#c1dae8" fill-rule="evenodd" stroke="none"/>
      <path d="M118.5 94.75 Q118.5 93.8 119.5 93.8 120.5 93.8 120.5 94.75 L120.5 95.0 Q120.5 96.0 119.5 96.0 118.5 96.0 118.5 95.0 L118.5 94.75" fill="#c1dae8" fill-rule="evenodd" stroke="none"/>
      <path d="M117.75 98.25 Q118.7 98.25 118.7 99.25 118.7 100.25 117.75 100.25 116.8 100.25 116.8 99.25 116.8 98.25 117.75 98.25" fill="#c1dae8" fill-rule="evenodd" stroke="none"/>
      <path d="M113.0 98.75 Q113.95 98.75 113.95 99.75 113.95 100.75 113.0 100.75 112.05 100.75 112.05 99.75 112.05 98.75 113.0 98.75" fill="#c1dae8" fill-rule="evenodd" stroke="none"/>
      <path d="M109.45 96.25 Q109.45 97.25 108.5 97.25 107.55 97.25 107.55 96.25 107.55 95.25 108.5 95.25 109.45 95.25 109.45 96.25" fill="#c1dae8" fill-rule="evenodd" stroke="none"/>
      <path d="M106.75 98.0 Q107.7 98.0 107.7 99.0 107.7 100.0 106.75 100.0 105.8 100.0 105.8 99.0 105.8 98.0 106.75 98.0" fill="#c1dae8" fill-rule="evenodd" stroke="none"/>
      <path d="M109.5 104.8 L109.75 104.55 Q110.45 103.85 111.15 104.55 111.9 105.25 111.2 105.95 L110.95 106.2 Q110.45 106.65 109.95 106.4 109.95 107.5 109.0 107.5 108.05 107.5 108.05 106.5 108.05 105.5 109.0 105.5 L109.25 105.55 Q109.15 105.15 109.5 104.8" fill="#c1dae8" fill-rule="evenodd" stroke="none"/>
      <path d="M113.0 102.75 Q113.95 102.75 113.95 103.75 113.95 104.75 113.0 104.75 112.05 104.75 112.05 103.75 112.05 102.75 113.0 102.75" fill="#c1dae8" fill-rule="evenodd" stroke="none"/>
      <path d="M111.25 112.25 Q110.3 112.25 110.3 111.25 110.3 110.25 111.25 110.25 111.7 110.25 111.9 110.55 111.7 110.15 111.8 109.75 L112.25 109.15 Q111.9 108.65 112.1 108.1 112.3 107.5 113.0 107.5 113.75 107.5 113.9 108.25 114.05 109.0 113.5 109.35 113.85 109.8 113.6 110.4 113.4 111.0 112.75 111.0 L112.05 110.7 Q112.35 111.2 112.1 111.7 L111.25 112.25" fill="#c1dae8" fill-rule="evenodd" stroke="none"/>
      <path d="M109.0 104.0 Q108.05 104.0 108.05 103.0 108.05 102.0 109.0 102.0 109.95 102.0 109.95 103.0 109.95 104.0 109.0 104.0" fill="#c1dae8" fill-rule="evenodd" stroke="none"/>
      <path d="M106.25 104.25 Q105.3 104.25 105.3 103.25 105.3 102.25 106.25 102.25 107.2 102.25 107.2 103.25 107.2 104.25 106.25 104.25" fill="#c1dae8" fill-rule="evenodd" stroke="none"/>
      <path d="M108.5 111.5 Q107.55 111.5 107.55 110.5 107.55 109.5 108.5 109.5 109.45 109.5 109.45 110.5 109.45 111.5 108.5 111.5" fill="#c1dae8" fill-rule="evenodd" stroke="none"/>
      <path d="M116.75 107.25 Q116.75 108.25 115.75 108.25 114.75 108.25 114.75 107.25 L114.75 106.75 Q114.75 105.8 115.75 105.8 116.75 105.8 116.75 106.75 L116.75 107.25" fill="#c1dae8" fill-rule="evenodd" stroke="none"/>
      <path d="M114.5 110.75 Q115.45 110.75 115.45 111.75 115.45 112.75 114.5 112.75 113.55 112.75 113.55 111.75 113.55 110.75 114.5 110.75" fill="#c1dae8" fill-rule="evenodd" stroke="none"/>
      <path d="M114.5 114.0 Q115.45 114.0 115.45 115.0 115.45 116.0 114.5 116.0 113.55 116.0 113.55 115.0 113.55 114.0 114.5 114.0" fill="#c1dae8" fill-rule="evenodd" stroke="none"/>
      <path d="M117.15 110.7 Q117.45 110.25 118.0 110.25 118.95 110.25 118.95 111.25 118.95 112.25 118.0 112.25 L117.65 112.15 117.65 112.75 Q118.5 112.75 118.7 113.5 118.9 114.25 118.2 114.6 117.75 115.1 117.1 114.9 116.45 114.7 116.5 114.0 L116.6 113.45 Q115.75 113.4 115.8 112.45 115.85 111.5 116.75 111.5 L117.05 111.55 Q116.95 111.1 117.15 110.7" fill="#c1dae8" fill-rule="evenodd" stroke="none"/>
      <path d="M119.75 107.5 Q120.7 107.5 120.7 108.5 120.7 109.5 119.75 109.5 118.8 109.5 118.8 108.5 118.8 107.5 119.75 107.5" fill="#c1dae8" fill-rule="evenodd" stroke="none"/>
      <path d="M121.5 108.75 Q122.45 108.75 122.45 109.75 122.45 110.75 121.5 110.75 120.55 110.75 120.55 109.75 120.55 108.75 121.5 108.75" fill="#c1dae8" fill-rule="evenodd" stroke="none"/>
      <path d="M123.0 112.25 Q123.95 112.25 123.95 113.25 123.95 114.25 123.0 114.25 122.05 114.25 122.05 113.25 122.05 112.25 123.0 112.25" fill="#c1dae8" fill-rule="evenodd" stroke="none"/>
      <path d="M119.0 115.25 Q119.95 115.25 119.95 116.25 119.95 117.25 119.0 117.25 118.05 117.25 118.05 116.25 118.05 115.25 119.0 115.25" fill="#c1dae8" fill-rule="evenodd" stroke="none"/>
      <path d="M108.75 123.0 L108.1 122.75 107.1 122.9 Q106.5 122.65 106.5 122.0 L106.5 121.75 Q106.5 121.0 107.15 120.8 107.8 120.6 108.25 121.1 L108.75 121.0 Q109.7 121.0 109.7 122.0 109.7 123.0 108.75 123.0" fill="#c1dae8" fill-rule="evenodd" stroke="none"/>
      <path d="M105.5 124.5 Q105.5 125.5 104.5 125.5 103.5 125.5 103.5 124.5 L103.5 124.25 Q103.5 123.3 104.5 123.3 105.5 123.3 105.5 124.25 L105.5 124.5" fill="#c1dae8" fill-rule="evenodd" stroke="none"/>
      <path d="M105.75 126.25 Q106.7 126.25 106.7 127.25 106.7 128.25 105.75 128.25 104.8 128.25 104.8 127.25 104.8 126.25 105.75 126.25" fill="#c1dae8" fill-rule="evenodd" stroke="none"/>
      <path d="M107.75 126.25 Q108.7 126.25 108.7 127.25 108.7 128.25 107.75 128.25 106.8 128.25 106.8 127.25 106.8 126.25 107.75 126.25" fill="#c1dae8" fill-rule="evenodd" stroke="none"/>
      <path d="M108.75 124.5 Q109.7 124.5 109.7 125.5 109.7 126.5 108.75 126.5 107.8 126.5 107.8 125.5 107.8 124.5 108.75 124.5" fill="#c1dae8" fill-rule="evenodd" stroke="none"/>
      <path d="M97.0 126.0 Q97.95 126.0 97.95 127.0 97.95 128.0 97.0 128.0 96.05 128.0 96.05 127.0 96.05 126.0 97.0 126.0" fill="#c1dae8" fill-rule="evenodd" stroke="none"/>
      <path d="M95.25 130.0 Q96.2 130.0 96.2 131.0 96.2 132.0 95.25 132.0 94.3 132.0 94.3 131.0 94.3 130.0 95.25 130.0" fill="#c1dae8" fill-rule="evenodd" stroke="none"/>
      <path d="M77.5 85.75 Q76.95 85.75 76.65 85.25 L76.1 85.45 Q76.6 85.9 76.4 86.55 76.2 87.25 75.5 87.25 74.6 87.25 74.55 86.3 74.5 85.35 75.35 85.25 74.85 84.85 75.05 84.2 75.25 83.5 76.0 83.5 76.55 83.5 76.8 84.0 L77.05 83.85 Q76.95 82.75 78.0 82.75 78.8 82.75 78.95 83.55 79.05 84.35 78.4 84.65 L78.25 85.4 Q77.95 85.75 77.5 85.75" fill="#c1dae8" fill-rule="evenodd" stroke="none"/>
      <path d="M77.75 89.75 Q76.8 89.75 76.8 88.75 76.8 87.75 77.75 87.75 78.7 87.75 78.7 88.75 78.7 89.75 77.75 89.75" fill="#c1dae8" fill-rule="evenodd" stroke="none"/>
      <path d="M80.5 84.0 Q79.55 84.0 79.55 83.0 79.55 82.0 80.5 82.0 81.45 82.0 81.45 83.0 81.45 84.0 80.5 84.0" fill="#c1dae8" fill-rule="evenodd" stroke="none"/>
      <path d="M80.75 91.25 Q79.8 91.25 79.8 90.25 79.8 89.25 80.75 89.25 81.7 89.25 81.7 90.25 81.7 91.25 80.75 91.25" fill="#c1dae8" fill-rule="evenodd" stroke="none"/>
      <path d="M77.75 92.25 Q78.7 92.25 78.7 93.25 78.7 94.25 77.75 94.25 76.8 94.25 76.8 93.25 76.8 92.25 77.75 92.25" fill="#c1dae8" fill-rule="evenodd" stroke="none"/>
      <path d="M79.25 97.5 Q80.2 97.5 80.2 98.5 80.2 99.5 79.25 99.5 78.3 99.5 78.3 98.5 78.3 97.5 79.25 97.5" fill="#c1dae8" fill-rule="evenodd" stroke="none"/>
      <path d="M81.6 95.7 Q82.0 95.95 82.0 96.5 L82.0 97.0 Q82.0 98.0 81.0 98.0 80.0 98.0 80.0 97.0 L80.0 96.5 Q80.0 96.2 80.15 95.95 L80.0 96.0 Q79.05 96.0 79.05 95.0 79.05 94.0 80.0 94.0 80.65 94.0 80.85 94.55 81.05 95.05 80.75 95.55 L81.6 95.7" fill="#c1dae8" fill-rule="evenodd" stroke="none"/>
      <path d="M79.75 99.75 Q80.7 99.75 80.7 100.75 80.7 101.75 79.75 101.75 78.8 101.75 78.8 100.75 78.8 99.75 79.75 99.75" fill="#c1dae8" fill-rule="evenodd" stroke="none"/>
      <path d="M81.75 101.5 Q82.7 101.5 82.7 102.5 82.7 103.5 81.75 103.5 80.8 103.5 80.8 102.5 80.8 101.5 81.75 101.5" fill="#c1dae8" fill-rule="evenodd" stroke="none"/>
      <path d="M83.25 103.25 Q84.2 103.25 84.2 104.25 84.2 105.25 83.25 105.25 82.3 105.25 82.3 104.25 82.3 103.25 83.25 103.25" fill="#c1dae8" fill-rule="evenodd" stroke="none"/>
      <path d="M124.75 100.0 Q125.7 100.0 125.7 101.0 125.7 102.0 124.75 102.0 123.8 102.0 123.8 101.0 123.8 100.0 124.75 100.0" fill="#c1dae8" fill-rule="evenodd" stroke="none"/>
      <path d="M122.0 96.75 Q122.0 95.8 123.0 95.8 124.0 95.8 124.0 96.75 L124.0 97.0 Q124.0 98.0 123.0 98.0 122.0 98.0 122.0 97.0 L122.0 96.75" fill="#c1dae8" fill-rule="evenodd" stroke="none"/>
      <path d="M121.75 91.25 L121.75 92.0 121.45 92.65 122.0 92.5 Q122.95 92.5 122.95 93.5 122.95 94.5 122.0 94.5 121.3 94.5 121.05 93.9 120.85 93.3 121.25 92.8 L120.3 92.85 Q119.75 92.6 119.75 92.0 L119.75 91.25 Q119.75 90.3 120.75 90.3 121.75 90.3 121.75 91.25" fill="#c1dae8" fill-rule="evenodd" stroke="none"/>
      <path d="M119.25 96.5 Q120.2 96.5 120.2 97.5 120.2 98.5 119.25 98.5 118.3 98.5 118.3 97.5 118.3 96.5 119.25 96.5" fill="#c1dae8" fill-rule="evenodd" stroke="none"/>
      <path d="M114.75 95.5 L114.75 95.25 114.8 95.0 114.75 94.75 114.75 93.85 Q114.45 94.25 114.0 94.25 113.05 94.25 113.05 93.25 113.05 92.25 114.0 92.25 L114.75 92.7 Q114.85 91.75 115.75 91.75 116.4 91.75 116.6 92.35 116.85 92.9 116.5 93.35 L116.75 94.0 116.75 94.75 116.65 95.0 116.75 95.25 116.75 95.5 Q116.75 96.5 115.75 96.5 114.75 96.5 114.75 95.5" fill="#c1dae8" fill-rule="evenodd" stroke="none"/>
      <path d="M114.45 96.5 Q114.45 97.5 113.5 97.5 112.55 97.5 112.55 96.5 112.55 95.5 113.5 95.5 114.45 95.5 114.45 96.5" fill="#c1dae8" fill-rule="evenodd" stroke="none"/>
      <path d="M112.0 95.0 Q111.05 95.0 111.05 94.0 111.05 93.0 112.0 93.0 112.95 93.0 112.95 94.0 112.95 95.0 112.0 95.0" fill="#c1dae8" fill-rule="evenodd" stroke="none"/>
      <path d="M112.75 91.25 Q111.8 91.25 111.8 90.25 111.8 89.25 112.75 89.25 113.7 89.25 113.7 90.25 113.7 91.25 112.75 91.25" fill="#c1dae8" fill-rule="evenodd" stroke="none"/>
      <path d="M109.0 90.25 Q109.8 90.25 109.95 91.05 110.05 91.9 109.4 92.15 L109.3 93.05 Q109.05 93.5 108.5 93.5 107.65 93.5 107.55 92.7 107.4 91.9 108.05 91.6 107.95 91.1 108.15 90.7 108.45 90.25 109.0 90.25" fill="#c1dae8" fill-rule="evenodd" stroke="none"/>
      <path d="M104.0 88.5 Q104.95 88.5 104.95 89.5 104.95 90.5 104.0 90.5 103.05 90.5 103.05 89.5 103.05 88.5 104.0 88.5" fill="#c1dae8" fill-rule="evenodd" stroke="none"/>
      <path d="M102.0 88.5 Q102.95 88.5 102.95 89.5 102.95 90.5 102.0 90.5 101.05 90.5 101.05 89.5 101.05 88.5 102.0 88.5" fill="#c1dae8" fill-rule="evenodd" stroke="none"/>
      <path d="M110.9 69.2 Q110.15 68.95 110.25 68.1 110.4 67.25 111.25 67.25 111.7 67.25 111.9 67.55 112.65 67.65 112.7 68.25 L112.7 68.3 Q113.35 69.0 112.65 69.7 111.9 70.4 111.25 69.7 L110.9 69.2" fill="#c1dae8" fill-rule="evenodd" stroke="none"/>
      <path d="M111.25 65.75 Q110.3 65.75 110.3 64.75 110.3 63.75 111.25 63.75 L111.35 63.75 Q111.65 63.15 112.45 63.3 113.2 63.45 113.25 64.25 L113.25 64.55 113.3 64.65 113.2 64.55 Q113.8 65.35 113.2 65.95 L112.5 66.25 Q112.0 66.25 111.75 65.95 L111.6 65.65 111.25 65.75" fill="#c1dae8" fill-rule="evenodd" stroke="none"/>
      <path d="M111.25 60.0 Q110.3 60.0 110.3 59.0 110.3 58.0 111.25 58.0 112.2 58.0 112.2 59.0 112.2 60.0 111.25 60.0" fill="#c1dae8" fill-rule="evenodd" stroke="none"/>
      <path d="M89.35 68.1 L85.1 70.7 87.75 66.5 85.1 62.25 89.35 64.9 93.55 62.25 90.95 66.5 93.55 70.7 89.35 68.1" fill="#ffffff" fill-rule="evenodd" stroke="none"/>
      <path d="M68.9 84.45 L64.65 87.05 67.25 82.85 64.65 78.6 68.9 81.25 73.1 78.6 70.5 82.85 73.1 87.05 68.9 84.45" fill="#ffffff" fill-rule="evenodd" stroke="none"/>
      <path d="M104.85 58.55 L100.6 61.15 103.25 56.9 100.6 52.7 104.85 55.3 109.05 52.7 106.45 56.9 109.05 61.15 104.85 58.55" fill="#ffffff" fill-rule="evenodd" stroke="none"/>
      <path d="M86.6 99.05 L82.35 101.65 85.0 97.4 82.35 93.2 86.6 95.8 90.8 93.2 88.2 97.4 90.8 101.65 86.6 99.05" fill="#ffffff" fill-rule="evenodd" stroke="none"/>
      <path d="M43.25 92.1 L41.45 95.0 43.25 97.9 40.35 96.1 37.4 97.9 39.25 95.0 37.4 92.1 40.35 93.9 43.25 92.1" fill="#ffffff" fill-rule="evenodd" stroke="none"/>
      <path d="M49.5 105.6 L46.6 107.4 48.4 104.5 46.6 101.6 49.5 103.4 52.4 101.6 50.6 104.5 52.4 107.4 49.5 105.6" fill="#ffffff" fill-rule="evenodd" stroke="none"/>
    </g>
    <radialGradient cx="0" cy="0" gradientTransform="matrix(0.0704, 0.0, 0.0, -0.0745, 80.0, 75.75)" gradientUnits="userSpaceOnUse" id="gradient1" r="819.2" spreadMethod="pad">
      <stop offset="0.0" stop-color="#e5f1f7"/>
      <stop offset="1.0" stop-color="#96bdd6"/>
    </radialGradient>
    <g id="sprite8" transform="matrix(1.0, 0.0, 0.0, 1.0, 0.0, 0.05)">
      <use height="54.2" transform="matrix(1.0, 0.0, 0.0, 1.0, 0.0, -0.05)" width="36.75" xlink:href="#shape9"/>
    </g>
    <g id="shape9" transform="matrix(1.0, 0.0, 0.0, 1.0, 0.0, 0.05)">
      <path d="M35.85 30.7 Q33.55 41.8 26.75 48.6 20.0 55.4 12.75 53.9 5.5 52.4 2.05 43.45 -1.4 34.55 0.9 23.4 3.2 12.3 9.95 5.5 16.7 -1.3 23.95 0.2 31.2 1.75 34.65 10.65 38.15 19.55 35.85 30.7" fill="url(#gradient2)" fill-rule="evenodd" stroke="none"/>
    </g>
    <radialGradient cx="0" cy="0" gradientTransform="matrix(0.0213, 0.0044, 0.0068, -0.0327, 18.35, 27.05)" gradientUnits="userSpaceOnUse" id="gradient2" r="819.2" spreadMethod="pad">
      <stop offset="0.0" stop-color="#ffffff"/>
      <stop offset="1.0" stop-color="#ffffff" stop-opacity="0.0"/>
    </radialGradient>
    <g id="sprite9" transform="matrix(1.0, 0.0, 0.0, 1.0, 0.0, 0.0)">
      <use height="35.15" transform="matrix(1.0, 0.0, 0.0, 1.4979, 0.0, 0.0)" width="44.0" xlink:href="#shape10"/>
    </g>
    <g id="shape10" transform="matrix(1.0, 0.0, 0.0, 1.0, 0.0, 0.0)">
      <path d="M37.55 5.15 Q44.0 10.3 44.0 17.6 44.0 24.85 37.55 30.0 31.1 35.15 22.0 35.15 12.9 35.15 6.45 30.0 0.0 24.85 0.0 17.6 0.0 10.3 6.45 5.15 12.9 0.0 22.0 0.0 31.1 0.0 37.55 5.15" fill="url(#gradient3)" fill-rule="evenodd" stroke="none"/>
    </g>
    <radialGradient cx="0" cy="0" gradientTransform="matrix(0.0269, 0.0, 0.0, -0.0215, 22.0, 17.6)" gradientUnits="userSpaceOnUse" id="gradient3" r="819.2" spreadMethod="pad">
      <stop offset="0.0" stop-color="#ffffff"/>
      <stop offset="1.0" stop-color="#ffffff" stop-opacity="0.0"/>
    </radialGradient>
    <g id="shape11" transform="matrix(1.0, 0.0, 0.0, 1.0, -10.6, -122.15)">
      <path d="M44.4 143.15 L47.25 141.05 Q50.55 138.95 53.05 139.15 57.6 139.55 58.4 145.5 L56.75 147.25 Q54.4 149.1 51.05 149.5 47.75 149.9 44.4 148.4 L41.75 146.85 44.4 143.15" fill="url(#gradient4)" fill-rule="evenodd" stroke="none"/>
      <path d="M36.05 139.15 Q32.75 139.6 30.75 139.25 L29.4 138.85 Q31.05 137.5 33.05 134.85 34.65 132.75 36.75 132.8 38.95 132.85 40.4 135.5 L41.4 138.5 36.05 139.15" fill="url(#gradient5)" fill-rule="evenodd" stroke="none"/>
      <path d="M23.05 130.5 Q24.5 130.9 24.45 132.4 L24.05 133.85 19.05 134.15 Q16.75 133.6 18.2 131.55 19.65 129.55 23.05 130.5" fill="url(#gradient6)" fill-rule="evenodd" stroke="none"/>
      <path d="M22.4 138.85 L22.95 140.5 Q23.05 142.25 20.75 142.85 18.2 143.55 17.2 142.8 16.4 142.2 16.4 140.5 16.4 139.15 19.05 138.65 L22.4 138.85" fill="url(#gradient7)" fill-rule="evenodd" stroke="none"/>
      <path d="M81.25 139.45 Q83.9 141.0 87.05 144.15 81.4 146.15 77.75 146.15 75.45 146.15 73.85 145.35 L72.75 144.5 74.45 141.75 Q76.35 138.9 77.4 138.5 78.65 137.95 81.25 139.45" fill="url(#gradient8)" fill-rule="evenodd" stroke="none"/>
      <path d="M109.05 142.15 L110.6 142.5 Q112.05 143.0 111.4 143.85 110.75 144.7 108.3 144.8 L104.75 144.5 Q103.25 144.2 104.65 143.2 106.1 142.15 109.05 142.15" fill="url(#gradient9)" fill-rule="evenodd" stroke="none"/>
      <path d="M129.4 135.15 Q130.85 134.95 130.95 136.55 L130.75 138.15 Q126.75 139.5 125.05 138.85 123.65 138.25 124.9 137.0 126.2 135.6 129.4 135.15" fill="url(#gradient10)" fill-rule="evenodd" stroke="none"/>
      <path d="M143.05 128.5 Q145.6 129.2 144.0 130.7 142.45 132.15 140.4 132.15 138.55 132.15 139.95 130.05 141.25 128.0 143.05 128.5" fill="url(#gradient11)" fill-rule="evenodd" stroke="none"/>
      <path d="M147.4 132.85 Q149.3 133.25 148.75 134.2 L147.4 135.85 Q146.6 137.1 142.05 134.85 140.45 134.05 142.5 133.15 L147.4 132.85" fill="url(#gradient12)" fill-rule="evenodd" stroke="none"/>
      <path d="M154.05 122.15 Q157.85 122.15 158.1 124.2 158.35 126.2 155.4 126.5 152.7 126.7 152.1 124.45 151.5 122.15 154.05 122.15" fill="url(#gradient13)" fill-rule="evenodd" stroke="none"/>
      <path d="M12.4 132.5 Q15.55 132.7 15.6 133.85 15.7 134.9 13.05 135.15 10.7 135.4 10.6 133.9 10.5 132.35 12.4 132.5" fill="url(#gradient14)" fill-rule="evenodd" stroke="none"/>
    </g>
    <radialGradient cx="0" cy="0" gradientTransform="matrix(0.0085, 0.0, 0.0, -0.0085, 50.05, 144.35)" gradientUnits="userSpaceOnUse" id="gradient4" r="819.2" spreadMethod="pad">
      <stop offset="0.0" stop-color="#e5f1f7"/>
      <stop offset="1.0" stop-color="#96bdd6"/>
    </radialGradient>
    <radialGradient cx="0" cy="0" gradientTransform="matrix(0.0059, 0.0, 0.0, -0.0059, 35.4, 136.1)" gradientUnits="userSpaceOnUse" id="gradient5" r="819.2" spreadMethod="pad">
      <stop offset="0.0" stop-color="#e5f1f7"/>
      <stop offset="1.0" stop-color="#96bdd6"/>
    </radialGradient>
    <radialGradient cx="0" cy="0" gradientTransform="matrix(0.0034, 0.0, 0.0, -0.0034, 21.15, 132.3)" gradientUnits="userSpaceOnUse" id="gradient6" r="819.2" spreadMethod="pad">
      <stop offset="0.0" stop-color="#e5f1f7"/>
      <stop offset="1.0" stop-color="#96bdd6"/>
    </radialGradient>
    <radialGradient cx="0" cy="0" gradientTransform="matrix(0.0035, 0.0, 0.0, -0.0035, 19.65, 140.85)" gradientUnits="userSpaceOnUse" id="gradient7" r="819.2" spreadMethod="pad">
      <stop offset="0.0" stop-color="#e5f1f7"/>
      <stop offset="1.0" stop-color="#96bdd6"/>
    </radialGradient>
    <radialGradient cx="0" cy="0" gradientTransform="matrix(0.007, 0.0, 0.0, -0.007, 79.9, 142.25)" gradientUnits="userSpaceOnUse" id="gradient8" r="819.2" spreadMethod="pad">
      <stop offset="0.0" stop-color="#e5f1f7"/>
      <stop offset="1.0" stop-color="#96bdd6"/>
    </radialGradient>
    <radialGradient cx="0" cy="0" gradientTransform="matrix(0.0034, 0.0, 0.0, -0.0034, 107.85, 143.45)" gradientUnits="userSpaceOnUse" id="gradient9" r="819.2" spreadMethod="pad">
      <stop offset="0.0" stop-color="#e5f1f7"/>
      <stop offset="1.0" stop-color="#96bdd6"/>
    </radialGradient>
    <radialGradient cx="0" cy="0" gradientTransform="matrix(0.0033, 0.0, 0.0, -0.0033, 127.65, 137.05)" gradientUnits="userSpaceOnUse" id="gradient10" r="819.2" spreadMethod="pad">
      <stop offset="0.0" stop-color="#e5f1f7"/>
      <stop offset="1.0" stop-color="#96bdd6"/>
    </radialGradient>
    <radialGradient cx="0" cy="0" gradientTransform="matrix(0.0027, 0.0, 0.0, -0.0027, 142.0, 130.3)" gradientUnits="userSpaceOnUse" id="gradient11" r="819.2" spreadMethod="pad">
      <stop offset="0.0" stop-color="#e5f1f7"/>
      <stop offset="1.0" stop-color="#96bdd6"/>
    </radialGradient>
    <radialGradient cx="0" cy="0" gradientTransform="matrix(0.0036, 0.0, 0.0, -0.0036, 145.2, 134.4)" gradientUnits="userSpaceOnUse" id="gradient12" r="819.2" spreadMethod="pad">
      <stop offset="0.0" stop-color="#e5f1f7"/>
      <stop offset="1.0" stop-color="#96bdd6"/>
    </radialGradient>
    <radialGradient cx="0" cy="0" gradientTransform="matrix(0.0032, 0.0, 0.0, -0.0032, 155.05, 124.35)" gradientUnits="userSpaceOnUse" id="gradient13" r="819.2" spreadMethod="pad">
      <stop offset="0.0" stop-color="#e5f1f7"/>
      <stop offset="1.0" stop-color="#96bdd6"/>
    </radialGradient>
    <radialGradient cx="0" cy="0" gradientTransform="matrix(0.0024, 0.0, 0.0, -0.0024, 13.1, 133.85)" gradientUnits="userSpaceOnUse" id="gradient14" r="819.2" spreadMethod="pad">
      <stop offset="0.0" stop-color="#e5f1f7"/>
      <stop offset="1.0" stop-color="#96bdd6"/>
    </radialGradient>
    <g id="sprite10" transform="matrix(1.0, 0.0, 0.0, 1.0, -0.05, 0.0)">
      <use height="3.4" transform="matrix(1.0, 0.0, 0.0, 1.0, 0.05, 0.0)" width="4.0" xlink:href="#shape12"/>
    </g>
    <g id="shape12" transform="matrix(1.0, 0.0, 0.0, 1.0, 0.0, 0.0)">
      <path d="M3.5 1.45 L3.65 1.65 Q4.35 2.35 3.65 3.05 2.95 3.75 2.25 3.05 L2.05 2.9 Q1.55 2.3 1.9 1.8 L1.3 2.0 0.95 2.0 Q0.0 2.0 0.0 1.0 0.0 0.0 0.95 0.0 L1.3 0.0 Q1.9 0.0 2.15 0.5 2.35 0.95 2.15 1.45 2.85 0.85 3.5 1.45" fill="#ffffff" fill-rule="evenodd" stroke="none"/>
    </g>
    <g id="sprite11" transform="matrix(1.0, 0.0, 0.0, 1.0, 0.05, 0.0)">
      <use height="2.35" transform="matrix(1.0, 0.0, 0.0, 1.0, -0.05, 0.0)" width="2.35" xlink:href="#shape13"/>
    </g>
    <g id="shape13" transform="matrix(1.0, 0.0, 0.0, 1.0, 0.05, 0.0)">
      <path d="M1.9 0.55 Q2.5 1.0 2.2 1.75 1.9 2.55 1.1 2.3 L0.3 1.7 Q-0.35 0.95 0.3 0.3 0.55 0.05 1.0 0.0 1.5 0.0 1.7 0.3 L1.9 0.55" fill="#ffffff" fill-rule="evenodd" stroke="none"/>
    </g>
    <g id="sprite12" transform="matrix(1.0, 0.0, 0.0, 1.0, 0.0, 0.0)">
      <use height="2.4" transform="matrix(1.0, 0.0, 0.0, 1.0, 0.0, 0.0)" width="2.55" xlink:href="#shape14"/>
    </g>
    <g id="shape14" transform="matrix(1.0, 0.0, 0.0, 1.0, 0.0, 0.0)">
      <path d="M1.25 0.05 Q1.7 0.1 2.2 0.6 2.9 1.3 2.2 2.0 L0.8 2.05 0.7 1.95 Q-0.2 1.7 0.05 0.75 0.3 -0.15 1.25 0.05" fill="#ffffff" fill-rule="evenodd" stroke="none"/>
    </g>
    <g id="sprite13" transform="matrix(1.0, 0.0, 0.0, 1.0, 0.0, 0.0)">
      <use height="2.0" transform="matrix(1.0, 0.0, 0.0, 1.0, 0.0, 0.0)" width="2.1" xlink:href="#shape15"/>
    </g>
    <g id="shape15" transform="matrix(1.0, 0.0, 0.0, 1.0, 0.0, 0.0)">
      <path d="M1.15 0.0 Q2.1 0.0 2.1 1.0 2.1 2.0 1.15 2.0 L0.95 2.0 Q0.0 2.0 0.0 1.0 0.0 0.0 0.95 0.0 L1.15 0.0" fill="#ffffff" fill-rule="evenodd" stroke="none"/>
    </g>
    <g id="sprite14" transform="matrix(1.0, 0.0, 0.0, 1.0, 0.0, 0.0)">
      <use height="2.15" transform="matrix(1.0, 0.0, 0.0, 1.0, 0.0, 0.0)" width="2.2" xlink:href="#shape16"/>
    </g>
    <g id="shape16" transform="matrix(1.0, 0.0, 0.0, 1.0, 0.0, 0.0)">
      <path d="M1.9 0.3 L2.2 1.0 Q2.2 1.45 1.8 1.75 1.35 2.4 0.6 2.05 -0.15 1.75 0.05 0.9 0.3 0.1 1.2 0.0 1.55 -0.05 1.9 0.3" fill="#ffffff" fill-rule="evenodd" stroke="none"/>
    </g>
    <g id="sprite15" transform="matrix(1.0, 0.0, 0.0, 1.0, 0.05, 0.0)">
      <use height="2.15" transform="matrix(1.0, 0.0, 0.0, 1.0, -0.05, 0.0)" width="2.15" xlink:href="#shape17"/>
    </g>
    <g id="shape17" transform="matrix(1.0, 0.0, 0.0, 1.0, 0.05, 0.0)">
      <path d="M1.1 0.0 Q1.5 0.0 1.8 0.3 2.15 0.6 2.1 1.0 2.0 1.9 1.2 2.1 0.4 2.35 0.05 1.55 -0.25 0.75 0.4 0.35 0.65 0.0 1.1 0.0" fill="#ffffff" fill-rule="evenodd" stroke="none"/>
    </g>
    <g id="sprite16" transform="matrix(1.0, 0.0, 0.0, 1.0, -0.05, 0.0)">
      <use height="2.0" transform="matrix(0.9744, 0.0, 0.0, 1.0, 0.05, 0.0)" width="1.95" xlink:href="#shape18"/>
    </g>
    <g id="shape18" transform="matrix(1.0, 0.0, 0.0, 1.0, 0.0, 0.0)">
      <path d="M0.95 0.0 Q1.95 0.0 1.95 1.0 1.95 2.0 0.95 2.0 0.0 2.0 0.0 1.0 0.0 0.0 0.95 0.0" fill="#ffffff" fill-rule="evenodd" stroke="none"/>
    </g>
    <g id="sprite17" transform="matrix(1.0, 0.0, 0.0, 1.0, -0.05, 0.0)">
      <use height="2.0" transform="matrix(1.0, 0.0, 0.0, 1.0, 0.05, 0.0)" width="1.95" xlink:href="#shape18"/>
    </g>
    <g id="sprite18" transform="matrix(1.0, 0.0, 0.0, 1.0, 0.0, 0.0)">
      <use height="2.0" transform="matrix(1.0, 0.0, 0.0, 1.0, 0.0, 0.0)" width="1.95" xlink:href="#shape18"/>
    </g>
    <g id="sprite19" transform="matrix(1.0, 0.0, 0.0, 1.0, 0.0, 0.05)">
      <use height="2.7" transform="matrix(1.0, 0.0, 0.0, 1.0, 0.0, -0.05)" width="3.25" xlink:href="#shape19"/>
    </g>
    <g id="shape19" transform="matrix(1.0, 0.0, 0.0, 1.0, 0.0, 0.05)">
      <path d="M3.05 0.45 Q3.3 0.8 3.2 1.25 L2.7 1.85 1.75 2.35 0.35 2.3 Q-0.35 1.6 0.35 0.95 0.7 0.6 1.7 0.1 2.7 -0.3 3.05 0.45" fill="#ffffff" fill-rule="evenodd" stroke="none"/>
    </g>
    <g id="sprite20" transform="matrix(1.0, 0.0, 0.0, 1.0, 0.0, 0.0)">
      <use height="2.0" transform="matrix(1.0, 0.0, 0.0, 1.0, 0.0, 0.0)" width="1.95" xlink:href="#shape18"/>
    </g>
    <g id="sprite21" transform="matrix(1.0, 0.0, 0.0, 1.0, 0.0, 0.0)">
      <use height="2.0" transform="matrix(1.0, 0.0, 0.0, 1.0, 0.0, 0.0)" width="1.95" xlink:href="#shape18"/>
    </g>
    <g id="sprite22" transform="matrix(1.0, 0.0, 0.0, 1.0, -0.05, 0.0)">
      <use height="2.0" transform="matrix(1.0, 0.0, 0.0, 1.0, 0.05, 0.0)" width="1.95" xlink:href="#shape18"/>
    </g>
    <g id="sprite23" transform="matrix(1.0, 0.0, 0.0, 1.0, 0.05, 0.0)">
      <use height="2.15" transform="matrix(1.0, 0.0, 0.0, 1.0, -0.05, 0.0)" width="2.15" xlink:href="#shape20"/>
    </g>
    <g id="shape20" transform="matrix(1.0, 0.0, 0.0, 1.0, 0.05, 0.0)">
      <path d="M1.2 0.05 Q2.0 0.3 2.1 1.15 2.15 1.55 1.8 1.85 L1.1 2.15 Q0.7 2.15 0.35 1.8 -0.25 1.35 0.05 0.6 0.4 -0.2 1.2 0.05" fill="#ffffff" fill-rule="evenodd" stroke="none"/>
    </g>
  </defs>
</svg>
