<?xml version="1.0" encoding="UTF-8" standalone="no"?>
<svg xmlns:xlink="http://www.w3.org/1999/xlink" height="300.0px" width="150.0px" xmlns="http://www.w3.org/2000/svg">
  <g transform="matrix(1.0, 0.0, 0.0, 1.0, 0.0, 0.0)">
    <use height="300.0" transform="matrix(1.0, 0.0, 0.0, 1.0, 0.0, 0.0)" width="150.0" xlink:href="#shape0"/>
  </g>
  <defs>
    <g id="shape0" transform="matrix(1.0, 0.0, 0.0, 1.0, 0.0, 0.0)">
      <path d="M150.0 0.0 L150.0 300.0 0.0 300.0 0.0 0.0 150.0 0.0" fill="url(#gradient0)" fill-rule="evenodd" stroke="none"/>
      <path d="M3.25 299.7 L3.3 300.0 1.0 300.0 1.0 299.7 3.25 299.7" fill="#401313" fill-rule="evenodd" stroke="none"/>
      <path d="M57.25 295.75 L57.25 295.5 57.35 295.6 57.45 295.5 57.45 295.7 57.55 295.85 57.45 295.8 57.25 295.75" fill="#401313" fill-rule="evenodd" stroke="none"/>
      <path d="M107.2 295.85 L107.1 295.8 106.65 295.65 106.75 295.55 106.75 295.3 106.85 295.45 106.95 295.3 106.95 295.55 107.2 295.85" fill="#401313" fill-rule="evenodd" stroke="none"/>
      <path d="M13.65 300.0 L13.95 299.7 16.9 299.7 16.85 300.0 13.65 300.0" fill="#401313" fill-rule="evenodd" stroke="none"/>
      <path d="M103.95 300.0 L104.15 299.55 109.55 299.55 109.8 300.0 103.95 300.0" fill="#401313" fill-rule="evenodd" stroke="none"/>
      <path d="M12.25 299.7 L12.2 300.0 9.65 300.0 9.5 299.7 12.25 299.7" fill="#401313" fill-rule="evenodd" stroke="none"/>
      <path d="M54.5 300.0 L54.75 299.55 60.0 299.55 60.2 300.0 54.5 300.0" fill="#401313" fill-rule="evenodd" stroke="none"/>
      <path d="M3.25 299.7 L3.3 300.0 1.0 300.0 1.0 299.7 3.25 299.7" fill="#401313" fill-rule="evenodd" stroke="none"/>
      <path d="M57.25 295.75 L57.25 295.5 57.35 295.6 57.45 295.5 57.45 295.7 57.55 295.85 57.45 295.8 57.25 295.75" fill="#401313" fill-rule="evenodd" stroke="none"/>
      <path d="M107.2 295.85 L107.1 295.8 106.65 295.65 106.75 295.55 106.75 295.3 106.85 295.45 106.95 295.3 106.95 295.55 107.2 295.85" fill="#401313" fill-rule="evenodd" stroke="none"/>
      <path d="M13.65 300.0 L13.95 299.7 16.9 299.7 16.85 300.0 13.65 300.0" fill="#401313" fill-rule="evenodd" stroke="none"/>
      <path d="M103.95 300.0 L104.15 299.55 109.55 299.55 109.8 300.0 103.95 300.0" fill="#401313" fill-rule="evenodd" stroke="none"/>
      <path d="M12.25 299.7 L12.2 300.0 9.65 300.0 9.5 299.7 12.25 299.7" fill="#401313" fill-rule="evenodd" stroke="none"/>
      <path d="M54.5 300.0 L54.75 299.55 60.0 299.55 60.2 300.0 54.5 300.0" fill="#401313" fill-rule="evenodd" stroke="none"/>
      <path d="M0.0 264.5 Q1.0 264.05 3.1 261.5 4.85 259.35 5.35 259.75 11.4 264.45 12.3 263.95 L13.15 262.75 Q13.8 261.75 15.05 261.35 15.8 261.1 18.3 264.1 20.9 267.2 21.5 267.2 L24.0 263.05 Q25.75 260.55 27.0 261.25 29.15 262.45 29.55 264.95 29.75 266.2 29.5 267.2 L31.65 266.4 Q34.1 265.85 35.4 267.05 L38.65 270.35 Q39.65 269.75 40.7 269.85 L43.7 270.6 Q45.2 271.05 46.45 272.35 L48.4 274.55 54.45 269.0 Q55.95 267.7 57.75 270.05 L58.7 269.0 Q59.85 267.65 63.1 266.25 66.65 264.7 67.45 265.85 L68.0 265.7 Q71.3 265.1 72.45 266.4 73.0 267.05 72.9 267.8 L73.5 266.85 Q74.6 265.85 76.8 265.85 77.65 265.85 82.95 262.2 87.55 259.0 89.25 260.5 92.4 263.3 93.6 260.35 L94.4 258.1 Q94.95 257.1 95.75 257.5 97.05 258.15 98.35 261.2 99.45 263.75 101.0 263.5 102.45 263.25 102.15 262.9 L103.9 263.0 105.9 262.8 Q105.95 261.9 107.15 261.5 108.75 260.95 107.85 260.55 L108.65 260.9 Q109.95 261.3 111.3 263.8 112.35 265.75 113.95 265.25 L115.0 267.65 116.05 270.05 Q119.85 263.9 121.3 265.25 L122.45 267.1 Q123.15 268.45 124.0 268.7 125.1 266.9 129.15 264.85 133.2 262.75 135.2 262.95 135.75 263.0 136.85 263.4 142.4 259.6 144.8 261.95 L146.25 264.05 Q147.0 265.2 147.75 265.2 L150.0 265.3 150.0 300.0 0.0 300.0 0.0 264.5" fill="#44526d" fill-rule="evenodd" stroke="none"/>
    </g>
    <linearGradient gradientTransform="matrix(0.0, -0.1815, -0.1815, 0.0, 75.0, 146.65)" gradientUnits="userSpaceOnUse" id="gradient0" spreadMethod="pad" x1="-819.2" x2="819.2">
      <stop offset="0.0" stop-color="#405380"/>
      <stop offset="0.6235294117647059" stop-color="#6db1d9"/>
      <stop offset="1.0" stop-color="#80e1ff"/>
    </linearGradient>
  </defs>
</svg>
