<?xml version="1.0" encoding="UTF-8" standalone="no"?>
<svg xmlns:xlink="http://www.w3.org/1999/xlink" height="73.8px" width="116.65px" xmlns="http://www.w3.org/2000/svg">
  <g transform="matrix(1.0, 0.0, 0.0, 1.0, 0.0, 0.0)">
    <use height="73.8" transform="matrix(1.0, 0.0, 0.0, 1.0, 0.0, 0.0)" width="116.65" xlink:href="#shape0"/>
    <clipPath id="clipPath0" transform="matrix(1.0, 0.0, 0.0, 1.0, 0.0, 0.0)">
      <use height="58.4" transform="matrix(1.0, 0.0, 0.0, 1.0, 10.4, 7.9)" width="96.15" xlink:href="#shape1"/>
    </clipPath>
    <g clip-path="url(#clipPath0)">
      <use height="29.45" transform="matrix(2.9568, 0.3077, -0.3077, 2.9568, 0.9936, -13.0644)" width="42.45" xlink:href="#shape2"/>
      <clipPath id="clipPath1" transform="">
        <use height="40.2" transform="matrix(2.9568, 0.3077, -0.3077, 2.9568, 6.382, -28.9424)" width="39.55" xlink:href="#shape3"/>
      </clipPath>
    </g>
    <g clip-path="url(#clipPath1)">
      <use height="29.1" transform="matrix(2.9568, 0.3077, -0.3077, 2.9568, 0.8458, -13.0798)" width="42.25" xlink:href="#shape4"/>
    </g>
    <use height="2.0" transform="matrix(1.7273, 0.0, 0.0, 4.9724, 75.1499, 54.3776)" width="16.5" xlink:href="#shape5"/>
    <use height="2.0" transform="matrix(1.3212, 0.0, 0.0, 0.7602, 15.35, 21.5398)" width="16.5" xlink:href="#shape6"/>
    <use height="2.0" transform="matrix(0.103, 0.0, 0.0, 5.1606, 25.65, 52.9894)" width="16.5" xlink:href="#shape6"/>
    <use height="2.0" transform="matrix(0.1758, 0.0, 0.0, 3.8609, 20.0501, 55.5891)" width="16.5" xlink:href="#shape7"/>
    <use height="2.0" transform="matrix(0.1606, 0.0, 0.0, 7.4471, 14.8251, 48.4529)" width="16.5" xlink:href="#shape5"/>
    <use height="2.0" transform="matrix(0.1697, 0.0, 0.0, 2.9534, 30.1, 57.3966)" width="16.5" xlink:href="#shape7"/>
    <use height="2.0" transform="matrix(0.1879, 0.0, 0.0, 2.0113, 36.3, 59.2887)" width="16.5" xlink:href="#shape7"/>
    <use height="2.0" transform="matrix(1.0, 0.0, 0.0, 1.0, 88.35, 17.5)" width="16.5" xlink:href="#shape6"/>
    <use height="2.0" transform="matrix(1.0, 0.0, 0.0, 1.0, 88.35, 21.5)" width="16.5" xlink:href="#shape5"/>
    <use height="2.0" transform="matrix(1.0, 0.0, 0.0, 1.0, 88.35, 25.5)" width="16.5" xlink:href="#shape7"/>
    <use height="58.4" transform="matrix(1.0, 0.0, 0.0, 1.0, 10.4, 7.9)" width="96.15" xlink:href="#shape8"/>
    <use height="0.0" id="price_tag_pt" transform="matrix(1.0, 0.0, 0.0, 1.0, 58.3, 83.45)" width="0.0" xlink:href="#sprite0"/>
  </g>
  <defs>
    <g id="shape0" transform="matrix(1.0, 0.0, 0.0, 1.0, 58.3, 36.9)">
      <path d="M58.35 -36.9 L58.35 36.9 -58.3 36.9 -58.3 -36.9 58.35 -36.9" fill="url(#gradient0)" fill-rule="evenodd" stroke="none"/>
      <path d="M-47.9 -29.0 L-47.9 29.4 48.25 29.4 48.25 -29.0 -47.9 -29.0 M-54.45 35.25 L-54.45 -34.1 56.3 -34.1 56.3 35.25 -54.45 35.25" fill="#253538" fill-rule="evenodd" stroke="none"/>
      <path d="M58.35 35.35 L58.35 36.9 -56.8 36.9 -52.8 35.25 58.35 35.35" fill="url(#gradient1)" fill-rule="evenodd" stroke="none"/>
      <path d="M-54.45 35.25 L-54.45 -34.1 56.3 -34.1 56.3 -32.75 -52.8 -32.75 -52.8 35.25 -54.45 35.25" fill="url(#gradient2)" fill-rule="evenodd" stroke="none"/>
      <path d="M-50.45 31.5 L48.25 31.5 48.7 32.6 -45.3 32.6 -50.45 31.5" fill="#385154" fill-rule="evenodd" stroke="none"/>
      <path d="M49.2 -30.75 L49.2 32.25 48.25 32.25 48.25 -30.75 49.2 -30.75" fill="#385154" fill-rule="evenodd" stroke="none"/>
      <path d="M-50.45 31.5 L-47.3 29.25 48.25 29.4 48.25 31.5 -50.45 31.5" fill="#1f2b2d" fill-rule="evenodd" stroke="none"/>
      <path d="M-47.9 -29.0 L-50.45 -30.75 48.25 -30.75 48.25 -29.0 -47.9 -29.0" fill="#111719" fill-rule="evenodd" stroke="none"/>
      <path d="M-47.9 -29.0 L-47.9 29.4 48.25 29.4 48.25 31.6 -50.45 31.6 -50.45 -30.75 48.25 -30.75 48.25 -29.0 -47.9 -29.0" fill="#1a2528" fill-rule="evenodd" stroke="none"/>
      <path d="M-47.9 -29.0 L48.25 -29.0 48.25 29.4 -47.9 29.4 -47.9 -29.0" fill="#6c91a8" fill-rule="evenodd" stroke="none"/>
    </g>
    <linearGradient gradientTransform="matrix(0.0712, 0.0, 0.0, -0.0712, 0.05, 0.0)" gradientUnits="userSpaceOnUse" id="gradient0" spreadMethod="pad" x1="-819.2" x2="819.2">
      <stop offset="0.08627450980392157" stop-color="#000000" stop-opacity="0.32941177"/>
      <stop offset="0.22745098039215686" stop-color="#000000" stop-opacity="0.32941177"/>
    </linearGradient>
    <linearGradient gradientTransform="matrix(0.0, -0.0029, -0.0029, 0.0, 0.75, 35.9)" gradientUnits="userSpaceOnUse" id="gradient1" spreadMethod="pad" x1="-819.2" x2="819.2">
      <stop offset="0.0" stop-color="#ffffff" stop-opacity="0.5137255"/>
      <stop offset="0.6549019607843137" stop-color="#ffffff" stop-opacity="0.1764706"/>
    </linearGradient>
    <linearGradient gradientTransform="matrix(0.0676, 0.0, 0.0, -0.0676, 0.9, 0.6)" gradientUnits="userSpaceOnUse" id="gradient2" spreadMethod="pad" x1="-819.2" x2="819.2">
      <stop offset="0.08627450980392157" stop-color="#000000" stop-opacity="0.32941177"/>
      <stop offset="0.22745098039215686" stop-color="#000000" stop-opacity="0.32941177"/>
    </linearGradient>
    <g id="shape1" transform="matrix(1.0, 0.0, 0.0, 1.0, 47.9, 29.0)">
      <path d="M-47.9 -29.0 L48.25 -29.0 48.25 29.4 -47.9 29.4 -47.9 -29.0" fill="url(#gradient3)" fill-rule="evenodd" stroke="none"/>
    </g>
    <radialGradient cx="0" cy="0" gradientTransform="matrix(0.0952, 0.0, 0.0, -0.058, 0.2, 0.2)" gradientUnits="userSpaceOnUse" id="gradient3" r="819.2" spreadMethod="pad">
      <stop offset="0.34509803921568627" stop-color="#130c0e" stop-opacity="0.0"/>
      <stop offset="0.8470588235294118" stop-color="#130c0e" stop-opacity="0.6509804"/>
      <stop offset="1.0" stop-color="#130c0e" stop-opacity="0.9490196"/>
    </radialGradient>
    <g id="shape2" transform="matrix(1.0, 0.0, 0.0, 1.0, 21.6, 15.8)">
      <path d="M18.25 -15.8 L20.85 9.5 -19.0 13.65 -21.6 -11.65 18.25 -15.8" fill="url(#gradient4)" fill-rule="evenodd" stroke="none"/>
    </g>
    <radialGradient cx="0" cy="0" gradientTransform="matrix(-0.0412, 0.0, 0.0, -0.0433, 0.0, 0.0)" gradientUnits="userSpaceOnUse" id="gradient4" r="819.2" spreadMethod="pad">
      <stop offset="0.0" stop-color="#caffff" stop-opacity="0.84705883"/>
      <stop offset="0.26666666666666666" stop-color="#bef0f0" stop-opacity="0.4"/>
      <stop offset="0.592156862745098" stop-color="#b7e6e6" stop-opacity="0.09411765"/>
      <stop offset="1.0" stop-color="#b4e3e3" stop-opacity="0.0"/>
    </radialGradient>
    <g id="shape3" transform="matrix(1.0, 0.0, 0.0, 1.0, 20.35, 21.3)">
      <path d="M19.1 -3.3 Q19.95 5.0 14.85 11.45 9.75 17.95 1.6 18.8 -6.55 19.65 -12.95 14.45 -19.35 9.2 -20.2 0.95 -21.1 -7.35 -15.95 -13.8 -10.85 -20.3 -2.7 -21.15 5.45 -22.05 11.8 -16.8 18.2 -11.6 19.1 -3.3" fill="#6c91a8" fill-rule="evenodd" stroke="none"/>
    </g>
    <g id="shape4" transform="matrix(1.0, 0.0, 0.0, 1.0, 21.65, 15.8)">
      <path d="M19.1 -3.3 Q19.85 4.05 15.95 10.0 L-14.4 13.15 Q-19.45 8.2 -20.2 0.95 -21.0 -6.3 -17.15 -12.1 L13.45 -15.3 Q18.3 -10.45 19.1 -3.3" fill="#6c91a8" fill-rule="evenodd" stroke="none"/>
      <path d="M-6.6 11.95 L-6.7 12.35 -13.1 13.05 -13.2 12.4 Q-13.3 11.95 -13.05 11.9 -12.25 11.8 -12.2 11.05 -12.25 10.5 -11.8 10.25 L-11.15 10.0 -10.85 9.95 -10.9 9.9 Q-9.95 9.35 -8.3 9.55 L-8.05 9.05 Q-7.65 8.55 -6.9 8.75 -5.7 9.05 -4.5 7.55 L-4.8 8.55 Q-5.0 9.5 -4.6 9.5 -4.05 9.45 -3.75 9.8 -3.45 10.15 -3.95 10.5 L-5.55 11.2 Q-6.6 11.6 -6.6 11.95 M-3.9 3.35 Q-2.75 3.55 -2.5 5.6 -2.45 6.35 -2.75 6.5 L-4.0 6.4 Q-4.7 6.2 -4.95 6.65 L-5.05 7.15 -7.2 6.5 -8.4 7.2 Q-9.3 7.8 -10.15 7.0 -11.2 6.1 -10.2 4.1 -9.3 2.25 -8.4 2.05 -6.5 1.6 -5.3 2.35 L-3.9 3.35 M-9.05 -0.7 L-8.65 -1.3 -8.2 -1.55 -8.15 -2.2 -7.55 -3.05 -6.1 -2.2 -5.1 -2.85 Q-4.65 -3.2 -3.55 -2.3 L-4.2 -1.75 Q-4.7 -1.15 -4.15 -1.15 -3.45 -1.1 -3.6 -0.6 -3.75 -0.05 -4.7 0.05 -4.75 0.9 -5.45 0.9 -6.2 0.9 -6.9 -0.3 -7.05 -0.6 -7.5 -0.05 L-8.35 0.7 Q-8.7 0.75 -8.9 0.2 L-9.05 -0.7 M-14.0 -12.8 L-14.05 -12.45 Q-14.15 -11.9 -14.65 -11.7 L-15.05 -11.55 Q-15.15 -10.65 -12.2 -8.4 L-12.2 -8.45 Q-10.35 -7.05 -10.3 -6.2 -10.15 -5.15 -12.2 -4.95 L-14.95 -4.5 -14.9 -3.5 -14.85 -3.45 -14.9 -2.75 -14.65 -1.7 -14.3 -0.8 -14.25 -0.75 -14.05 0.2 -14.0 0.5 Q-13.8 0.6 -13.75 0.85 L-13.55 1.35 Q-13.05 2.0 -12.5 3.25 L-13.05 4.5 -13.1 4.7 -13.3 5.1 -13.5 5.25 -14.35 5.55 -15.2 5.4 -15.85 4.95 -16.8 4.55 -18.1 4.0 Q-18.75 3.65 -18.25 2.55 L-17.45 0.95 -20.0 1.1 -20.3 1.2 -21.65 -12.0 -14.0 -12.8 M2.2 5.1 L3.1 4.6 Q3.7 5.85 3.2 6.85 2.75 7.85 1.55 7.7 L1.2 7.4 Q0.9 6.9 1.1 6.35 1.25 5.7 2.2 5.1 M1.8 2.4 L2.55 3.0 Q2.8 3.45 2.65 3.95 L2.05 4.4 1.1 4.35 -0.15 4.75 -1.45 4.85 Q-2.0 4.55 -1.45 4.2 L-0.7 3.5 -0.8 2.35 Q-0.95 1.6 -0.6 1.4 L0.35 1.9 1.8 2.4 M18.15 1.55 Q18.6 1.55 18.9 2.3 19.2 3.1 19.8 3.35 L20.2 3.5 20.45 5.8 19.9 6.3 18.75 7.6 18.2 7.8 17.35 7.5 16.35 6.65 16.25 6.6 15.8 7.1 14.95 8.05 14.5 8.15 Q13.6 8.25 13.0 6.75 12.7 6.2 13.45 5.15 14.0 4.3 14.8 3.75 L15.25 2.45 Q15.35 1.5 15.95 1.25 L16.05 1.3 16.1 1.25 16.8 1.45 18.0 1.6 18.1 1.55 18.15 1.55 M6.05 -6.65 Q6.7 -7.05 5.85 -8.45 L4.2 -10.65 3.1 -11.8 1.35 -11.5 Q0.35 -11.05 0.9 -9.65 1.45 -8.25 1.25 -8.15 0.75 -7.85 -0.65 -8.65 -2.05 -9.45 -2.5 -10.2 -2.8 -10.7 -1.85 -11.8 -0.95 -12.8 -1.4 -13.1 -2.0 -13.35 -2.8 -12.6 L-4.1 -11.45 Q-4.5 -11.3 -5.05 -11.7 -5.7 -12.2 -6.5 -12.2 -7.3 -12.2 -7.7 -11.15 -8.2 -9.9 -9.0 -9.55 -10.05 -9.1 -10.6 -10.3 L-10.9 -11.7 -10.35 -12.8 18.2 -15.8 19.7 -1.25 15.9 -0.4 15.75 -0.4 15.6 -0.4 Q14.7 -0.3 13.95 -0.85 12.95 -1.55 12.6 -1.65 L12.45 -1.65 Q11.9 -1.55 11.5 -0.5 11.1 0.7 11.25 1.55 11.3 2.1 10.4 1.85 L9.7 1.6 8.7 1.3 Q8.15 1.15 7.7 0.15 L7.0 -1.15 Q6.75 -1.4 5.75 -0.8 L4.3 -0.7 Q3.4 -1.8 5.85 -3.7 6.3 -4.05 5.35 -4.4 4.15 -4.95 4.05 -5.2 3.8 -5.6 4.55 -5.9 L6.05 -6.65 M-11.75 1.0 L-11.2 0.1 Q-9.9 -1.45 -9.55 -1.2 -9.3 -1.05 -9.8 0.05 -11.2 3.15 -11.85 2.2 -11.7 2.4 -11.75 1.0 M-18.65 8.05 L-19.55 8.25 -19.8 6.0 -17.95 6.8 -17.75 7.5 Q-17.75 8.2 -18.65 8.05" fill="#72d6db" fill-rule="evenodd" stroke="none"/>
      <path d="M-19.45 1.05 L19.55 -2.95 M-19.45 9.0 L20.35 4.9 M-19.45 -6.85 L18.75 -10.75" fill="none" stroke="#ccffff" stroke-linecap="round" stroke-linejoin="round" stroke-width="0.5"/>
      <path d="M-9.45 -13.3 L-9.55 -12.9 Q-10.9 -7.45 -10.05 1.1 -8.7 8.0 -6.6 12.35" fill="none" stroke="#caffff" stroke-linecap="round" stroke-linejoin="round" stroke-width="0.75"/>
      <path d="M-2.35 -13.65 L-1.0 -0.4 0.6 11.6" fill="none" stroke="#caffff" stroke-linecap="round" stroke-linejoin="round" stroke-width="0.75"/>
      <path d="M4.75 -14.4 Q6.9 -9.7 8.25 -2.2 9.1 5.65 8.2 10.8" fill="none" stroke="#caffff" stroke-linecap="round" stroke-linejoin="round" stroke-width="0.75"/>
      <path d="M10.15 -15.35 L10.45 -14.95 Q13.55 -10.65 15.2 -3.6 16.05 4.75 13.8 10.2" fill="none" stroke="#caffff" stroke-linecap="round" stroke-linejoin="round" stroke-width="0.75"/>
      <path d="M14.4 -15.4 Q17.35 -12.05 19.15 -6.95 M19.95 1.1 Q19.6 6.1 17.55 9.85" fill="none" stroke="#caffff" stroke-linecap="round" stroke-linejoin="round" stroke-width="0.75"/>
      <path d="M-15.05 -12.7 L-15.25 -12.3 Q-17.85 -6.6 -17.05 2.25 -15.45 8.85 -12.4 12.95" fill="none" stroke="#caffff" stroke-linecap="round" stroke-linejoin="round" stroke-width="0.75"/>
    </g>
    <g id="shape5" transform="matrix(1.0, 0.0, 0.0, 1.0, 8.25, 1.0)">
      <path d="M-8.25 -1.0 L8.25 -1.0 8.25 1.0 -8.25 1.0 -8.25 -1.0" fill="#ffe783" fill-rule="evenodd" stroke="none"/>
    </g>
    <g id="shape6" transform="matrix(1.0, 0.0, 0.0, 1.0, 8.25, 1.0)">
      <path d="M-8.25 -1.0 L8.25 -1.0 8.25 1.0 -8.25 1.0 -8.25 -1.0" fill="#b9e07c" fill-rule="evenodd" stroke="none"/>
    </g>
    <g id="shape7" transform="matrix(1.0, 0.0, 0.0, 1.0, 8.25, 1.0)">
      <path d="M-8.25 -1.0 L8.25 -1.0 8.25 1.0 -8.25 1.0 -8.25 -1.0" fill="#ffac48" fill-rule="evenodd" stroke="none"/>
    </g>
    <g id="shape8" transform="matrix(1.0, 0.0, 0.0, 1.0, 47.9, 29.0)">
      <path d="M-47.9 -29.0 L48.25 -29.0 48.25 29.4 -47.9 29.4 -47.9 -29.0" fill="url(#gradient5)" fill-rule="evenodd" stroke="none"/>
      <path d="M-47.9 -29.0 L48.25 -29.0 48.25 29.4 -47.9 29.4 -47.9 -29.0" fill="url(#gradient6)" fill-rule="evenodd" stroke="none"/>
    </g>
    <radialGradient cx="0" cy="0" gradientTransform="matrix(0.0952, 0.0, 0.0, -0.058, 0.2, 0.2)" gradientUnits="userSpaceOnUse" id="gradient5" r="819.2" spreadMethod="pad">
      <stop offset="0.34509803921568627" stop-color="#130c0e" stop-opacity="0.0"/>
      <stop offset="0.8470588235294118" stop-color="#130c0e" stop-opacity="0.6509804"/>
      <stop offset="1.0" stop-color="#130c0e" stop-opacity="0.9490196"/>
    </radialGradient>
    <linearGradient gradientTransform="matrix(0.0554, 0.0, 0.0, -0.0554, 1.5, 0.2)" gradientUnits="userSpaceOnUse" id="gradient6" spreadMethod="pad" x1="-819.2" x2="819.2">
      <stop offset="0.0" stop-color="#e1e1e1" stop-opacity="0.0"/>
      <stop offset="0.3058823529411765" stop-color="#ededed" stop-opacity="0.28627452"/>
      <stop offset="0.49411764705882355" stop-color="#eaeaea" stop-opacity="0.0"/>
      <stop offset="0.7294117647058823" stop-color="#ededed" stop-opacity="0.2784314"/>
      <stop offset="0.9568627450980393" stop-color="#e1e1e1" stop-opacity="0.0"/>
    </linearGradient>
  </defs>
</svg>
