<?xml version="1.0" encoding="UTF-8" standalone="no"?>
<svg xmlns:xlink="http://www.w3.org/1999/xlink" height="73.8px" width="116.65px" xmlns="http://www.w3.org/2000/svg">
  <g transform="matrix(1.0, 0.0, 0.0, 1.0, 0.0, 0.0)">
    <use height="73.8" transform="matrix(1.0, 0.0, 0.0, 1.0, 0.0, 0.0)" width="116.65" xlink:href="#shape0"/>
    <clipPath id="clipPath0" transform="matrix(1.0, 0.0, 0.0, 1.0, 0.0, 0.0)">
      <use height="58.4" transform="matrix(1.0, 0.0, 0.0, 1.0, 10.4, 7.9)" width="96.15" xlink:href="#shape1"/>
    </clipPath>
    <g clip-path="url(#clipPath0)">
      <use height="29.45" transform="matrix(2.9568, 0.3077, -0.3077, 2.9568, 0.9936, -13.0644)" width="42.45" xlink:href="#shape2"/>
      <clipPath id="clipPath1" transform="">
        <use height="40.2" transform="matrix(2.9568, 0.3077, -0.3077, 2.9568, 6.382, -28.9424)" width="39.55" xlink:href="#shape3"/>
      </clipPath>
    </g>
    <g clip-path="url(#clipPath1)">
      <use height="29.4" transform="matrix(2.9568, 0.3077, -0.3077, 2.9568, 0.8458, -13.0798)" width="42.25" xlink:href="#shape4"/>
    </g>
    <use height="2.0" transform="matrix(1.7273, 0.0, 0.0, 1.5098, 75.1499, 52.6902)" width="16.5" xlink:href="#shape5"/>
    <use height="2.0" transform="matrix(0.103, 0.0, 0.0, 3.1141, 25.65, 57.0859)" width="16.5" xlink:href="#shape6"/>
    <use height="2.0" transform="matrix(0.1758, 0.0, 0.0, 5.4093, 20.0501, 52.4907)" width="16.5" xlink:href="#shape7"/>
    <use height="2.0" transform="matrix(0.1606, 0.0, 0.0, 9.6195, 14.8251, 44.0805)" width="16.5" xlink:href="#shape5"/>
    <use height="2.0" transform="matrix(0.1697, 0.0, 0.0, 1.1801, 30.1, 60.9199)" width="16.5" xlink:href="#shape7"/>
    <use height="2.0" transform="matrix(0.1879, 0.0, 0.0, 1.0137, 36.3, 61.2863)" width="16.5" xlink:href="#shape7"/>
    <use height="2.0" transform="matrix(1.0, 0.0, 0.0, 1.0, 88.35, 21.5)" width="16.5" xlink:href="#shape5"/>
    <use height="2.0" transform="matrix(1.0, 0.0, 0.0, 1.0, 88.35, 25.5)" width="16.5" xlink:href="#shape7"/>
    <use height="58.4" transform="matrix(1.0, 0.0, 0.0, 1.0, 10.4, 7.9)" width="96.15" xlink:href="#shape8"/>
    <use height="0.0" id="price_tag_pt" transform="matrix(1.0, 0.0, 0.0, 1.0, 58.3, 83.45)" width="0.0" xlink:href="#sprite0"/>
  </g>
  <defs>
    <g id="shape0" transform="matrix(1.0, 0.0, 0.0, 1.0, 58.3, 36.9)">
      <path d="M58.35 -36.9 L58.35 36.9 -58.3 36.9 -58.3 -36.9 58.35 -36.9" fill="url(#gradient0)" fill-rule="evenodd" stroke="none"/>
      <path d="M-47.9 -29.0 L-47.9 29.4 48.25 29.4 48.25 -29.0 -47.9 -29.0 M-54.45 35.25 L-54.45 -34.1 56.3 -34.1 56.3 35.25 -54.45 35.25" fill="#253538" fill-rule="evenodd" stroke="none"/>
      <path d="M58.35 35.35 L58.35 36.9 -56.8 36.9 -52.8 35.25 58.35 35.35" fill="url(#gradient1)" fill-rule="evenodd" stroke="none"/>
      <path d="M-54.45 35.25 L-54.45 -34.1 56.3 -34.1 56.3 -32.75 -52.8 -32.75 -52.8 35.25 -54.45 35.25" fill="url(#gradient2)" fill-rule="evenodd" stroke="none"/>
      <path d="M-50.45 31.5 L48.25 31.5 48.7 32.6 -45.3 32.6 -50.45 31.5" fill="#385154" fill-rule="evenodd" stroke="none"/>
      <path d="M49.2 -30.75 L49.2 32.25 48.25 32.25 48.25 -30.75 49.2 -30.75" fill="#385154" fill-rule="evenodd" stroke="none"/>
      <path d="M-50.45 31.5 L-47.3 29.25 48.25 29.4 48.25 31.5 -50.45 31.5" fill="#1f2b2d" fill-rule="evenodd" stroke="none"/>
      <path d="M-47.9 -29.0 L-50.45 -30.75 48.25 -30.75 48.25 -29.0 -47.9 -29.0" fill="#111719" fill-rule="evenodd" stroke="none"/>
      <path d="M-47.9 -29.0 L-47.9 29.4 48.25 29.4 48.25 31.6 -50.45 31.6 -50.45 -30.75 48.25 -30.75 48.25 -29.0 -47.9 -29.0" fill="#1a2528" fill-rule="evenodd" stroke="none"/>
      <path d="M-47.9 -29.0 L48.25 -29.0 48.25 29.4 -47.9 29.4 -47.9 -29.0" fill="#6c91a8" fill-rule="evenodd" stroke="none"/>
    </g>
    <linearGradient gradientTransform="matrix(0.0712, 0.0, 0.0, -0.0712, 0.05, 0.0)" gradientUnits="userSpaceOnUse" id="gradient0" spreadMethod="pad" x1="-819.2" x2="819.2">
      <stop offset="0.08627450980392157" stop-color="#000000" stop-opacity="0.32941177"/>
      <stop offset="0.22745098039215686" stop-color="#000000" stop-opacity="0.32941177"/>
    </linearGradient>
    <linearGradient gradientTransform="matrix(0.0, -0.0029, -0.0029, 0.0, 0.75, 35.9)" gradientUnits="userSpaceOnUse" id="gradient1" spreadMethod="pad" x1="-819.2" x2="819.2">
      <stop offset="0.0" stop-color="#ffffff" stop-opacity="0.5137255"/>
      <stop offset="0.6549019607843137" stop-color="#ffffff" stop-opacity="0.1764706"/>
    </linearGradient>
    <linearGradient gradientTransform="matrix(0.0676, 0.0, 0.0, -0.0676, 0.9, 0.6)" gradientUnits="userSpaceOnUse" id="gradient2" spreadMethod="pad" x1="-819.2" x2="819.2">
      <stop offset="0.08627450980392157" stop-color="#000000" stop-opacity="0.32941177"/>
      <stop offset="0.22745098039215686" stop-color="#000000" stop-opacity="0.32941177"/>
    </linearGradient>
    <g id="shape1" transform="matrix(1.0, 0.0, 0.0, 1.0, 47.9, 29.0)">
      <path d="M-47.9 -29.0 L48.25 -29.0 48.25 29.4 -47.9 29.4 -47.9 -29.0" fill="url(#gradient3)" fill-rule="evenodd" stroke="none"/>
    </g>
    <radialGradient cx="0" cy="0" gradientTransform="matrix(0.0952, 0.0, 0.0, -0.058, 0.2, 0.2)" gradientUnits="userSpaceOnUse" id="gradient3" r="819.2" spreadMethod="pad">
      <stop offset="0.34509803921568627" stop-color="#130c0e" stop-opacity="0.0"/>
      <stop offset="0.8470588235294118" stop-color="#130c0e" stop-opacity="0.6509804"/>
      <stop offset="1.0" stop-color="#130c0e" stop-opacity="0.9490196"/>
    </radialGradient>
    <g id="shape2" transform="matrix(1.0, 0.0, 0.0, 1.0, 21.6, 15.8)">
      <path d="M18.25 -15.8 L20.85 9.5 -19.0 13.65 -21.6 -11.65 18.25 -15.8" fill="url(#gradient4)" fill-rule="evenodd" stroke="none"/>
    </g>
    <radialGradient cx="0" cy="0" gradientTransform="matrix(-0.0412, 0.0, 0.0, -0.0433, 0.0, 0.0)" gradientUnits="userSpaceOnUse" id="gradient4" r="819.2" spreadMethod="pad">
      <stop offset="0.0" stop-color="#caffff" stop-opacity="0.84705883"/>
      <stop offset="0.26666666666666666" stop-color="#bef0f0" stop-opacity="0.4"/>
      <stop offset="0.592156862745098" stop-color="#b7e6e6" stop-opacity="0.09411765"/>
      <stop offset="1.0" stop-color="#b4e3e3" stop-opacity="0.0"/>
    </radialGradient>
    <g id="shape3" transform="matrix(1.0, 0.0, 0.0, 1.0, 20.35, 21.3)">
      <path d="M19.1 -3.3 Q19.95 5.0 14.85 11.45 9.75 17.95 1.6 18.8 -6.55 19.65 -12.95 14.45 -19.35 9.2 -20.2 0.95 -21.1 -7.35 -15.95 -13.8 -10.85 -20.3 -2.7 -21.15 5.45 -22.05 11.8 -16.8 18.2 -11.6 19.1 -3.3" fill="#6c91a8" fill-rule="evenodd" stroke="none"/>
    </g>
    <g id="shape4" transform="matrix(1.0, 0.0, 0.0, 1.0, 21.65, 15.8)">
      <path d="M19.1 -3.3 Q19.85 4.05 15.95 10.0 L-14.4 13.15 Q-19.45 8.2 -20.2 0.95 -21.0 -6.3 -17.15 -12.1 L13.45 -15.3 Q18.3 -10.45 19.1 -3.3" fill="#6c91a8" fill-rule="evenodd" stroke="none"/>
      <path d="M-9.25 9.85 Q-8.7 9.8 -8.4 10.15 -8.1 10.5 -8.6 10.85 L-10.2 11.55 Q-11.25 11.95 -11.25 12.3 L-11.45 12.85 -17.75 13.5 -17.85 12.75 Q-17.95 12.3 -17.7 12.25 -16.9 12.1 -16.85 11.4 -16.9 10.85 -16.45 10.6 L-15.8 10.35 -15.55 10.3 -15.55 10.25 Q-14.6 9.7 -12.95 9.9 L-12.7 9.4 Q-12.3 8.9 -11.55 9.1 -10.35 9.4 -9.15 7.9 L-9.45 8.9 Q-9.65 9.85 -9.25 9.85 M-8.55 3.7 Q-7.4 3.9 -7.2 5.95 -7.1 6.7 -7.4 6.85 L-8.65 6.75 Q-9.35 6.55 -9.6 7.0 L-9.7 7.5 Q-11.1 7.0 -11.85 6.85 L-13.05 7.55 Q-13.95 8.15 -14.8 7.35 -15.85 6.45 -14.85 4.45 -13.95 2.6 -13.05 2.4 -11.15 1.95 -9.95 2.7 L-8.55 3.7 M-2.45 5.45 Q-2.0 5.15 -1.55 4.95 -0.95 6.2 -1.45 7.2 -1.9 8.2 -3.1 8.05 L-3.45 7.75 Q-3.75 7.25 -3.55 6.7 -3.4 6.05 -2.45 5.45 M-2.85 2.8 Q-2.4 2.85 -2.1 3.35 -1.85 3.8 -2.0 4.3 L-2.6 4.75 -3.55 4.7 -4.8 5.1 -6.1 5.2 Q-6.65 4.9 -6.1 4.55 L-5.35 3.85 -5.45 2.7 Q-5.6 1.95 -5.25 1.75 L-4.3 2.25 -2.85 2.8 M-12.8 -1.85 L-12.2 -2.7 -10.75 -1.85 -9.75 -2.5 Q-9.3 -2.85 -8.2 -1.95 L-8.85 -1.4 Q-9.35 -0.8 -8.8 -0.8 -8.1 -0.75 -8.25 -0.25 -8.4 0.3 -9.35 0.4 -9.4 1.25 -10.1 1.25 -10.85 1.25 -11.55 0.05 -11.7 -0.25 -12.15 0.3 L-13.0 1.05 Q-13.35 1.1 -13.55 0.55 L-13.7 -0.4 -13.3 -0.95 Q-13.1 -1.1 -12.85 -1.2 L-12.8 -1.85 M-18.65 -12.3 L-18.7 -11.95 Q-18.85 -11.55 -19.3 -11.35 L-19.7 -11.2 Q-19.8 -10.3 -16.85 -8.05 L-16.85 -8.1 Q-15.0 -6.7 -14.95 -5.85 -14.8 -4.8 -16.85 -4.6 L-19.6 -4.15 -19.55 -3.15 -19.5 -3.1 -19.55 -2.4 -19.3 -1.35 -18.95 -0.45 -18.9 -0.4 -18.7 0.55 -18.65 0.85 Q-18.45 0.95 -18.4 1.2 L-18.2 1.7 Q-17.7 2.35 -17.15 3.6 L-17.7 4.85 -17.75 5.05 -17.95 5.45 -18.15 5.6 -19.0 5.9 -19.8 5.75 -21.65 -12.0 -18.65 -12.3 M17.4 4.7 L17.6 5.4 Q17.55 6.0 16.95 5.95 L16.55 5.95 16.35 5.95 Q15.75 6.0 15.25 6.65 L14.1 7.95 13.55 8.15 12.7 7.85 11.7 7.0 11.6 6.95 11.15 7.45 10.3 8.4 9.85 8.5 Q8.95 8.6 8.35 7.1 8.05 6.55 8.8 5.5 9.35 4.65 10.15 4.1 10.45 3.8 10.6 2.8 10.7 1.85 11.3 1.6 L11.4 1.65 11.45 1.6 12.15 1.8 13.35 1.95 13.45 1.9 13.5 1.9 Q13.95 1.9 14.25 2.65 14.55 3.45 15.15 3.75 16.4 4.15 17.4 4.7 M7.8 -1.3 Q7.25 -1.2 6.85 -0.15 6.45 1.05 6.6 1.9 6.65 2.45 5.75 2.2 L5.05 1.95 4.05 1.65 Q3.5 1.5 3.05 0.5 L2.35 -0.8 Q2.1 -1.05 1.1 -0.45 L-0.35 -0.35 Q-1.25 -1.45 1.2 -3.35 1.65 -3.7 0.7 -4.05 L-0.6 -4.85 Q-0.85 -5.25 -0.1 -5.55 L1.4 -6.3 Q2.05 -6.7 1.2 -8.1 L-0.45 -10.3 -1.55 -11.45 Q-2.15 -11.65 -3.3 -11.15 -4.3 -10.7 -3.75 -9.3 -3.2 -7.9 -3.4 -7.8 -3.9 -7.5 -5.3 -8.3 -6.7 -9.1 -7.15 -9.85 -7.45 -10.35 -6.5 -11.45 -5.6 -12.45 -6.05 -12.75 -6.65 -13.0 -7.45 -12.25 L-8.75 -11.1 Q-9.15 -10.95 -9.7 -11.35 -10.35 -11.85 -11.15 -11.85 -11.95 -11.85 -12.35 -10.8 -12.85 -9.55 -13.65 -9.2 -14.7 -8.75 -15.25 -9.95 L-15.55 -11.35 -15.05 -12.3 18.25 -15.8 20.2 3.4 20.15 3.35 19.85 3.25 19.35 2.85 17.1 1.9 Q16.45 1.55 16.95 0.45 L17.75 -1.15 17.25 -1.3 15.35 -1.0 11.25 -0.05 11.1 -0.05 10.95 -0.05 Q10.05 0.1 9.3 -0.5 8.3 -1.2 7.95 -1.3 L7.8 -1.3 M-15.85 0.45 Q-14.55 -1.1 -14.2 -0.85 -13.95 -0.7 -14.45 0.4 -15.85 3.5 -16.5 2.55 -16.35 2.75 -16.4 1.35 L-15.85 0.45" fill="#72d6db" fill-rule="evenodd" stroke="none"/>
      <path d="M-19.45 1.05 L19.55 -2.95 M-19.45 9.0 L20.35 4.9 M-19.45 -6.85 L18.75 -10.75" fill="none" stroke="#ccffff" stroke-linecap="round" stroke-linejoin="round" stroke-width="0.5"/>
      <path d="M-13.55 -12.5 Q-15.8 -6.85 -15.0 1.9 -13.45 8.6 -10.65 12.75" fill="none" stroke="#caffff" stroke-linecap="round" stroke-linejoin="round" stroke-width="0.75"/>
      <path d="M-7.5 -13.5 L-7.55 -13.1 Q-8.45 -7.7 -7.55 0.7 -6.35 7.7 -4.55 12.15" fill="none" stroke="#caffff" stroke-linecap="round" stroke-linejoin="round" stroke-width="0.75"/>
      <path d="M-0.05 -13.9 Q1.0 -8.85 2.05 -0.95 L3.1 11.35" fill="none" stroke="#caffff" stroke-linecap="round" stroke-linejoin="round" stroke-width="0.75"/>
      <path d="M6.4 -14.95 L6.6 -14.6 Q9.1 -10.05 10.55 -2.7 11.4 5.35 10.05 10.6" fill="none" stroke="#caffff" stroke-linecap="round" stroke-linejoin="round" stroke-width="0.75"/>
      <path d="M11.8 -15.1 Q15.1 -10.85 16.8 -3.95 17.7 4.5 15.1 10.1" fill="none" stroke="#caffff" stroke-linecap="round" stroke-linejoin="round" stroke-width="0.75"/>
      <path d="M-17.65 -12.45 L-17.9 -12.05 Q-20.55 -7.2 -20.45 -0.15 M-20.05 3.7 Q-18.3 9.5 -15.15 13.25" fill="none" stroke="#caffff" stroke-linecap="round" stroke-linejoin="round" stroke-width="0.75"/>
    </g>
    <g id="shape5" transform="matrix(1.0, 0.0, 0.0, 1.0, 8.25, 1.0)">
      <path d="M-8.25 -1.0 L8.25 -1.0 8.25 1.0 -8.25 1.0 -8.25 -1.0" fill="#ffe783" fill-rule="evenodd" stroke="none"/>
    </g>
    <g id="shape6" transform="matrix(1.0, 0.0, 0.0, 1.0, 8.25, 1.0)">
      <path d="M-8.25 -1.0 L8.25 -1.0 8.25 1.0 -8.25 1.0 -8.25 -1.0" fill="#b9e07c" fill-rule="evenodd" stroke="none"/>
    </g>
    <g id="shape7" transform="matrix(1.0, 0.0, 0.0, 1.0, 8.25, 1.0)">
      <path d="M-8.25 -1.0 L8.25 -1.0 8.25 1.0 -8.25 1.0 -8.25 -1.0" fill="#ffac48" fill-rule="evenodd" stroke="none"/>
    </g>
    <g id="shape8" transform="matrix(1.0, 0.0, 0.0, 1.0, 47.9, 29.0)">
      <path d="M-47.9 -29.0 L48.25 -29.0 48.25 29.4 -47.9 29.4 -47.9 -29.0" fill="url(#gradient5)" fill-rule="evenodd" stroke="none"/>
      <path d="M-47.9 -29.0 L48.25 -29.0 48.25 29.4 -47.9 29.4 -47.9 -29.0" fill="url(#gradient6)" fill-rule="evenodd" stroke="none"/>
    </g>
    <radialGradient cx="0" cy="0" gradientTransform="matrix(0.0952, 0.0, 0.0, -0.058, 0.2, 0.2)" gradientUnits="userSpaceOnUse" id="gradient5" r="819.2" spreadMethod="pad">
      <stop offset="0.34509803921568627" stop-color="#130c0e" stop-opacity="0.0"/>
      <stop offset="0.8470588235294118" stop-color="#130c0e" stop-opacity="0.6509804"/>
      <stop offset="1.0" stop-color="#130c0e" stop-opacity="0.9490196"/>
    </radialGradient>
    <linearGradient gradientTransform="matrix(0.0554, 0.0, 0.0, -0.0554, 1.5, 0.2)" gradientUnits="userSpaceOnUse" id="gradient6" spreadMethod="pad" x1="-819.2" x2="819.2">
      <stop offset="0.0" stop-color="#e1e1e1" stop-opacity="0.0"/>
      <stop offset="0.3058823529411765" stop-color="#ededed" stop-opacity="0.28627452"/>
      <stop offset="0.49411764705882355" stop-color="#eaeaea" stop-opacity="0.0"/>
      <stop offset="0.7294117647058823" stop-color="#ededed" stop-opacity="0.2784314"/>
      <stop offset="0.9568627450980393" stop-color="#e1e1e1" stop-opacity="0.0"/>
    </linearGradient>
  </defs>
</svg>
