<?xml version="1.0" encoding="UTF-8" standalone="no"?>
<svg xmlns:xlink="http://www.w3.org/1999/xlink" height="73.8px" width="116.65px" xmlns="http://www.w3.org/2000/svg">
  <g transform="matrix(1.0, 0.0, 0.0, 1.0, 0.0, 0.0)">
    <use height="73.8" transform="matrix(1.0, 0.0, 0.0, 1.0, 0.0, 0.0)" width="116.65" xlink:href="#shape0"/>
    <clipPath id="clipPath0" transform="matrix(1.0, 0.0, 0.0, 1.0, 0.0, 0.0)">
      <use height="58.4" transform="matrix(1.0, 0.0, 0.0, 1.0, 10.4, 7.9)" width="96.15" xlink:href="#shape1"/>
    </clipPath>
    <g clip-path="url(#clipPath0)">
      <use height="29.45" transform="matrix(2.9568, 0.3077, -0.3077, 2.9568, 0.9936, -13.0644)" width="42.45" xlink:href="#shape2"/>
      <clipPath id="clipPath1" transform="">
        <use height="40.2" transform="matrix(2.9568, 0.3077, -0.3077, 2.9568, 6.382, -28.9424)" width="39.55" xlink:href="#shape3"/>
      </clipPath>
    </g>
    <g clip-path="url(#clipPath1)">
      <use height="29.45" transform="matrix(2.9568, 0.3077, -0.3077, 2.9568, 0.9936, -13.0644)" width="42.2" xlink:href="#shape4"/>
    </g>
    <use height="2.0" transform="matrix(1.7273, 0.0, 0.0, 1.0789, 75.1499, 52.6211)" width="16.5" xlink:href="#shape5"/>
    <use height="2.0" transform="matrix(1.3212, 0.0, 0.0, 0.2075, 15.35, 13.2925)" width="16.5" xlink:href="#shape6"/>
    <use height="2.0" transform="matrix(0.103, 0.0, 0.0, 2.383, 25.65, 58.567)" width="16.5" xlink:href="#shape6"/>
    <use height="2.0" transform="matrix(0.1758, 0.0, 0.0, 5.9622, 20.0501, 51.3878)" width="16.5" xlink:href="#shape7"/>
    <use height="2.0" transform="matrix(0.1606, 0.0, 0.0, 9.9244, 14.8251, 43.4756)" width="16.5" xlink:href="#shape5"/>
    <use height="2.0" transform="matrix(0.1697, 0.0, 0.0, 0.9289, 30.1, 61.4211)" width="16.5" xlink:href="#shape7"/>
    <use height="2.0" transform="matrix(0.1879, 0.0, 0.0, 0.8725, 36.3, 61.5775)" width="16.5" xlink:href="#shape7"/>
    <use height="2.0" transform="matrix(0.1212, 0.0, 0.0, 1.0, 88.3498, 17.5)" width="16.5" xlink:href="#shape6"/>
    <use height="58.4" transform="matrix(1.0, 0.0, 0.0, 1.0, 10.4, 7.9)" width="96.15" xlink:href="#shape8"/>
    <use height="0.0" id="price_tag_pt" transform="matrix(1.0, 0.0, 0.0, 1.0, 58.3, 83.45)" width="0.0" xlink:href="#sprite0"/>
  </g>
  <defs>
    <g id="shape0" transform="matrix(1.0, 0.0, 0.0, 1.0, 58.3, 36.9)">
      <path d="M58.35 -36.9 L58.35 36.9 -58.3 36.9 -58.3 -36.9 58.35 -36.9" fill="url(#gradient0)" fill-rule="evenodd" stroke="none"/>
      <path d="M-47.9 -29.0 L-47.9 29.4 48.25 29.4 48.25 -29.0 -47.9 -29.0 M-54.45 35.25 L-54.45 -34.1 56.3 -34.1 56.3 35.25 -54.45 35.25" fill="#253538" fill-rule="evenodd" stroke="none"/>
      <path d="M58.35 35.35 L58.35 36.9 -56.8 36.9 -52.8 35.25 58.35 35.35" fill="url(#gradient1)" fill-rule="evenodd" stroke="none"/>
      <path d="M-54.45 35.25 L-54.45 -34.1 56.3 -34.1 56.3 -32.75 -52.8 -32.75 -52.8 35.25 -54.45 35.25" fill="url(#gradient2)" fill-rule="evenodd" stroke="none"/>
      <path d="M-50.45 31.5 L48.25 31.5 48.7 32.6 -45.3 32.6 -50.45 31.5" fill="#385154" fill-rule="evenodd" stroke="none"/>
      <path d="M49.2 -30.75 L49.2 32.25 48.25 32.25 48.25 -30.75 49.2 -30.75" fill="#385154" fill-rule="evenodd" stroke="none"/>
      <path d="M-50.45 31.5 L-47.3 29.25 48.25 29.4 48.25 31.5 -50.45 31.5" fill="#1f2b2d" fill-rule="evenodd" stroke="none"/>
      <path d="M-47.9 -29.0 L-50.45 -30.75 48.25 -30.75 48.25 -29.0 -47.9 -29.0" fill="#111719" fill-rule="evenodd" stroke="none"/>
      <path d="M-47.9 -29.0 L-47.9 29.4 48.25 29.4 48.25 31.6 -50.45 31.6 -50.45 -30.75 48.25 -30.75 48.25 -29.0 -47.9 -29.0" fill="#1a2528" fill-rule="evenodd" stroke="none"/>
      <path d="M-47.9 -29.0 L48.25 -29.0 48.25 29.4 -47.9 29.4 -47.9 -29.0" fill="#6c91a8" fill-rule="evenodd" stroke="none"/>
    </g>
    <linearGradient gradientTransform="matrix(0.0712, 0.0, 0.0, -0.0712, 0.05, 0.0)" gradientUnits="userSpaceOnUse" id="gradient0" spreadMethod="pad" x1="-819.2" x2="819.2">
      <stop offset="0.08627450980392157" stop-color="#000000" stop-opacity="0.32941177"/>
      <stop offset="0.22745098039215686" stop-color="#000000" stop-opacity="0.32941177"/>
    </linearGradient>
    <linearGradient gradientTransform="matrix(0.0, -0.0029, -0.0029, 0.0, 0.75, 35.9)" gradientUnits="userSpaceOnUse" id="gradient1" spreadMethod="pad" x1="-819.2" x2="819.2">
      <stop offset="0.0" stop-color="#ffffff" stop-opacity="0.5137255"/>
      <stop offset="0.6549019607843137" stop-color="#ffffff" stop-opacity="0.1764706"/>
    </linearGradient>
    <linearGradient gradientTransform="matrix(0.0676, 0.0, 0.0, -0.0676, 0.9, 0.6)" gradientUnits="userSpaceOnUse" id="gradient2" spreadMethod="pad" x1="-819.2" x2="819.2">
      <stop offset="0.08627450980392157" stop-color="#000000" stop-opacity="0.32941177"/>
      <stop offset="0.22745098039215686" stop-color="#000000" stop-opacity="0.32941177"/>
    </linearGradient>
    <g id="shape1" transform="matrix(1.0, 0.0, 0.0, 1.0, 47.9, 29.0)">
      <path d="M-47.9 -29.0 L48.25 -29.0 48.25 29.4 -47.9 29.4 -47.9 -29.0" fill="url(#gradient3)" fill-rule="evenodd" stroke="none"/>
    </g>
    <radialGradient cx="0" cy="0" gradientTransform="matrix(0.0952, 0.0, 0.0, -0.058, 0.2, 0.2)" gradientUnits="userSpaceOnUse" id="gradient3" r="819.2" spreadMethod="pad">
      <stop offset="0.34509803921568627" stop-color="#130c0e" stop-opacity="0.0"/>
      <stop offset="0.8470588235294118" stop-color="#130c0e" stop-opacity="0.6509804"/>
      <stop offset="1.0" stop-color="#130c0e" stop-opacity="0.9490196"/>
    </radialGradient>
    <g id="shape2" transform="matrix(1.0, 0.0, 0.0, 1.0, 21.6, 15.8)">
      <path d="M18.25 -15.8 L20.85 9.5 -19.0 13.65 -21.6 -11.65 18.25 -15.8" fill="url(#gradient4)" fill-rule="evenodd" stroke="none"/>
    </g>
    <radialGradient cx="0" cy="0" gradientTransform="matrix(-0.0412, 0.0, 0.0, -0.0433, 0.0, 0.0)" gradientUnits="userSpaceOnUse" id="gradient4" r="819.2" spreadMethod="pad">
      <stop offset="0.0" stop-color="#caffff" stop-opacity="0.84705883"/>
      <stop offset="0.26666666666666666" stop-color="#bef0f0" stop-opacity="0.4"/>
      <stop offset="0.592156862745098" stop-color="#b7e6e6" stop-opacity="0.09411765"/>
      <stop offset="1.0" stop-color="#b4e3e3" stop-opacity="0.0"/>
    </radialGradient>
    <g id="shape3" transform="matrix(1.0, 0.0, 0.0, 1.0, 20.35, 21.3)">
      <path d="M19.1 -3.3 Q19.95 5.0 14.85 11.45 9.75 17.95 1.6 18.8 -6.55 19.65 -12.95 14.45 -19.35 9.2 -20.2 0.95 -21.1 -7.35 -15.95 -13.8 -10.85 -20.3 -2.7 -21.15 5.45 -22.05 11.8 -16.8 18.2 -11.6 19.1 -3.3" fill="#6c91a8" fill-rule="evenodd" stroke="none"/>
    </g>
    <g id="shape4" transform="matrix(1.0, 0.0, 0.0, 1.0, 21.6, 15.8)">
      <path d="M19.1 -3.3 Q19.85 4.05 15.95 10.0 L-14.4 13.15 Q-19.45 8.2 -20.2 0.95 -21.0 -6.3 -17.15 -12.1 L13.45 -15.3 Q18.3 -10.45 19.1 -3.3" fill="#6c91a8" fill-rule="evenodd" stroke="none"/>
      <path d="M-8.85 5.9 Q-8.8 6.65 -9.1 6.8 L-10.35 6.7 Q-11.05 6.45 -11.3 6.95 L-11.4 7.45 Q-12.75 6.95 -13.55 6.8 L-14.75 7.5 Q-15.65 8.1 -16.5 7.3 -17.5 6.35 -16.55 4.4 -15.65 2.55 -14.75 2.35 -12.85 1.85 -11.65 2.65 L-10.25 3.6 Q-9.1 3.85 -8.85 5.9 M-3.85 3.25 Q-3.6 3.75 -3.75 4.2 L-4.35 4.7 -5.25 4.65 Q-5.55 4.6 -6.5 5.05 L-7.8 5.1 Q-8.35 4.85 -7.8 4.45 L-7.05 3.75 -7.15 2.6 Q-7.3 1.85 -6.95 1.7 L-6.0 2.2 -4.6 2.7 Q-4.15 2.8 -3.85 3.25 M-4.2 5.4 L-3.3 4.9 Q-2.7 6.15 -3.15 7.15 -3.65 8.1 -4.85 8.0 L-5.15 7.65 Q-5.45 7.2 -5.25 6.6 -5.1 6.0 -4.2 5.4 M-13.95 -2.8 L-12.45 -1.9 -11.45 -2.6 Q-11.0 -2.9 -9.9 -2.05 L-10.55 -1.45 Q-11.05 -0.85 -10.5 -0.85 -9.8 -0.85 -9.95 -0.3 -10.1 0.25 -11.05 0.35 -11.1 1.2 -11.8 1.2 -12.55 1.2 -13.25 0.0 -13.4 -0.3 -13.85 0.2 L-14.7 0.95 Q-15.05 1.05 -15.25 0.5 L-15.4 -0.45 -15.0 -1.0 -14.55 -1.25 -14.5 -1.9 -13.95 -2.8 M-21.6 -11.65 L-20.55 -11.75 -21.0 -11.45 -21.45 -11.25 Q-21.5 -10.4 -18.55 -8.1 L-18.6 -8.15 Q-16.7 -6.8 -16.65 -5.95 -16.5 -4.9 -18.55 -4.65 L-20.85 -4.4 -21.6 -11.65 M15.7 4.6 L15.9 5.3 Q15.9 6.0 15.0 5.85 14.2 5.75 13.55 6.55 L12.4 7.9 11.15 7.75 10.15 6.9 Q9.8 6.75 9.45 7.35 L8.6 8.3 Q7.5 8.8 6.8 7.0 6.5 6.5 7.25 5.45 7.8 4.55 8.6 4.0 8.9 3.75 9.05 2.7 9.15 1.75 9.75 1.5 L10.45 1.7 11.8 1.85 Q12.25 1.8 12.55 2.55 12.85 3.4 13.5 3.65 L15.7 4.6 M5.4 -0.7 L5.15 -0.2 Q4.75 0.95 4.9 1.8 4.95 2.35 4.05 2.1 L2.35 1.55 Q1.8 1.4 1.35 0.45 L0.6 -0.9 Q0.35 -1.1 -0.65 -0.5 L-2.1 -0.4 Q-3.0 -1.5 -0.55 -3.4 -0.1 -3.75 -1.05 -4.15 -2.25 -4.65 -2.35 -4.9 -2.6 -5.3 -1.85 -5.65 -1.45 -5.85 -0.35 -6.4 0.3 -6.8 -0.55 -8.2 L-2.2 -10.4 Q-2.9 -11.4 -3.35 -11.6 L-5.05 -11.25 Q-6.0 -10.8 -5.5 -9.4 -4.95 -7.95 -5.15 -7.85 -5.65 -7.55 -7.0 -8.4 -8.4 -9.15 -8.85 -9.95 -9.2 -10.45 -8.2 -11.5 -7.3 -12.55 -7.75 -12.8 -8.35 -13.05 -9.15 -12.3 L-10.45 -11.2 Q-10.85 -11.05 -11.4 -11.45 -12.05 -11.95 -12.85 -11.95 -13.65 -11.9 -14.1 -10.9 -14.55 -9.6 -15.35 -9.3 -16.4 -8.8 -16.95 -10.1 L-17.25 -11.4 -16.9 -12.15 18.25 -15.8 19.15 -6.85 18.65 -6.65 18.7 -5.65 18.7 -5.6 18.7 -4.95 19.0 -3.9 19.35 -3.0 19.4 -2.95 19.6 -2.0 19.65 -1.7 19.7 -1.65 20.2 3.1 20.15 3.1 19.25 3.35 18.45 3.2 17.8 2.75 16.85 2.4 Q15.95 2.0 15.55 1.8 14.9 1.45 15.4 0.35 L16.2 -1.25 13.65 -1.1 9.55 -0.15 Q8.55 0.05 7.75 -0.55 L6.4 -1.4 Q5.8 -1.55 5.4 -0.7 M-18.1 1.3 L-17.55 0.4 Q-16.25 -1.15 -15.9 -0.9 -15.65 -0.75 -16.15 0.35 -17.55 3.45 -18.2 2.5 -18.05 2.7 -18.1 1.3 M-19.15 12.2 Q-18.55 12.0 -18.5 11.35 -18.6 10.8 -18.1 10.5 L-17.5 10.3 -17.2 10.2 -17.25 10.15 -14.65 9.85 -14.4 9.35 Q-14.0 8.8 -13.25 9.0 -12.0 9.35 -10.85 7.8 L-11.15 8.85 Q-11.35 9.8 -10.95 9.8 -10.4 9.75 -10.1 10.1 -9.8 10.45 -10.25 10.8 L-11.9 11.5 Q-12.95 11.95 -12.95 12.3 -12.9 12.6 -13.4 13.05 L-19.0 13.65 -19.15 12.2 M-19.9 1.65 L-19.45 2.25 -19.1 2.95 -18.85 3.55 -19.4 4.8 -19.45 5.0 -19.65 5.4 -19.85 5.55 -20.35 0.75 -20.1 1.15 -19.9 1.65" fill="#72d6db" fill-rule="evenodd" stroke="none"/>
      <path d="M-19.45 1.05 L19.55 -2.95 M-19.45 9.0 L20.35 4.9 M-19.45 -6.85 L18.75 -10.75" fill="none" stroke="#ccffff" stroke-linecap="round" stroke-linejoin="round" stroke-width="0.5"/>
      <path d="M-14.6 -12.75 L-14.75 -12.35 Q-17.3 -6.65 -16.5 2.15 -14.9 8.75 -11.9 12.9" fill="none" stroke="#caffff" stroke-linecap="round" stroke-linejoin="round" stroke-width="0.75"/>
      <path d="M-9.15 -13.3 L-9.25 -12.95 Q-10.5 -7.45 -9.65 1.05 -8.35 7.95 -6.25 12.3" fill="none" stroke="#caffff" stroke-linecap="round" stroke-linejoin="round" stroke-width="0.75"/>
      <path d="M-1.9 -13.7 L-0.45 -0.45 1.05 11.55" fill="none" stroke="#caffff" stroke-linecap="round" stroke-linejoin="round" stroke-width="0.75"/>
      <path d="M5.05 -14.4 Q7.3 -9.75 8.65 -2.3 9.5 5.6 8.5 10.8" fill="none" stroke="#caffff" stroke-linecap="round" stroke-linejoin="round" stroke-width="0.75"/>
      <path d="M10.65 -15.0 Q13.8 -10.7 15.45 -3.7 16.35 4.7 14.05 10.2" fill="none" stroke="#caffff" stroke-linecap="round" stroke-linejoin="round" stroke-width="0.75"/>
      <path d="M14.4 -15.4 Q17.35 -12.05 19.15 -6.95 M19.95 1.1 Q19.6 6.1 17.55 9.85" fill="none" stroke="#caffff" stroke-linecap="round" stroke-linejoin="round" stroke-width="0.75"/>
    </g>
    <g id="shape5" transform="matrix(1.0, 0.0, 0.0, 1.0, 8.25, 1.0)">
      <path d="M-8.25 -1.0 L8.25 -1.0 8.25 1.0 -8.25 1.0 -8.25 -1.0" fill="#ffe783" fill-rule="evenodd" stroke="none"/>
    </g>
    <g id="shape6" transform="matrix(1.0, 0.0, 0.0, 1.0, 8.25, 1.0)">
      <path d="M-8.25 -1.0 L8.25 -1.0 8.25 1.0 -8.25 1.0 -8.25 -1.0" fill="#b9e07c" fill-rule="evenodd" stroke="none"/>
    </g>
    <g id="shape7" transform="matrix(1.0, 0.0, 0.0, 1.0, 8.25, 1.0)">
      <path d="M-8.25 -1.0 L8.25 -1.0 8.25 1.0 -8.25 1.0 -8.25 -1.0" fill="#ffac48" fill-rule="evenodd" stroke="none"/>
    </g>
    <g id="shape8" transform="matrix(1.0, 0.0, 0.0, 1.0, 47.9, 29.0)">
      <path d="M-47.9 -29.0 L48.25 -29.0 48.25 29.4 -47.9 29.4 -47.9 -29.0" fill="url(#gradient5)" fill-rule="evenodd" stroke="none"/>
      <path d="M-47.9 -29.0 L48.25 -29.0 48.25 29.4 -47.9 29.4 -47.9 -29.0" fill="url(#gradient6)" fill-rule="evenodd" stroke="none"/>
    </g>
    <radialGradient cx="0" cy="0" gradientTransform="matrix(0.0952, 0.0, 0.0, -0.058, 0.2, 0.2)" gradientUnits="userSpaceOnUse" id="gradient5" r="819.2" spreadMethod="pad">
      <stop offset="0.34509803921568627" stop-color="#130c0e" stop-opacity="0.0"/>
      <stop offset="0.8470588235294118" stop-color="#130c0e" stop-opacity="0.6509804"/>
      <stop offset="1.0" stop-color="#130c0e" stop-opacity="0.9490196"/>
    </radialGradient>
    <linearGradient gradientTransform="matrix(0.0554, 0.0, 0.0, -0.0554, 1.5, 0.2)" gradientUnits="userSpaceOnUse" id="gradient6" spreadMethod="pad" x1="-819.2" x2="819.2">
      <stop offset="0.0" stop-color="#e1e1e1" stop-opacity="0.0"/>
      <stop offset="0.3058823529411765" stop-color="#ededed" stop-opacity="0.28627452"/>
      <stop offset="0.49411764705882355" stop-color="#eaeaea" stop-opacity="0.0"/>
      <stop offset="0.7294117647058823" stop-color="#ededed" stop-opacity="0.2784314"/>
      <stop offset="0.9568627450980393" stop-color="#e1e1e1" stop-opacity="0.0"/>
    </linearGradient>
  </defs>
</svg>
