<?xml version="1.0" encoding="UTF-8" standalone="no"?>
<svg xmlns:xlink="http://www.w3.org/1999/xlink" height="73.8px" width="116.65px" xmlns="http://www.w3.org/2000/svg">
  <g transform="matrix(1.0, 0.0, 0.0, 1.0, 0.0, 0.0)">
    <use height="73.8" transform="matrix(1.0, 0.0, 0.0, 1.0, 0.0, 0.0)" width="116.65" xlink:href="#shape0"/>
    <clipPath id="clipPath0" transform="matrix(1.0, 0.0, 0.0, 1.0, 0.0, 0.0)">
      <use height="58.4" transform="matrix(1.0, 0.0, 0.0, 1.0, 10.4, 7.9)" width="96.15" xlink:href="#shape1"/>
    </clipPath>
    <g clip-path="url(#clipPath0)">
      <use height="29.45" transform="matrix(2.9568, 0.3077, -0.3077, 2.9568, 0.9936, -13.0644)" width="42.45" xlink:href="#shape2"/>
      <clipPath id="clipPath1" transform="">
        <use height="40.2" transform="matrix(2.9568, 0.3077, -0.3077, 2.9568, 6.382, -28.9424)" width="39.55" xlink:href="#shape3"/>
      </clipPath>
    </g>
    <g clip-path="url(#clipPath1)">
      <use height="29.4" transform="matrix(2.9568, 0.3077, -0.3077, 2.9568, 0.8458, -13.0798)" width="42.3" xlink:href="#shape4"/>
    </g>
    <use height="2.0" transform="matrix(1.7273, 0.0, 0.0, 3.1521, 75.1499, 58.0479)" width="16.5" xlink:href="#shape5"/>
    <use height="2.0" transform="matrix(1.3212, 0.0, 0.0, 1.5555, 15.35, 19.9945)" width="16.5" xlink:href="#shape6"/>
    <use height="2.0" transform="matrix(0.103, 0.0, 0.0, 5.8915, 25.65, 51.5085)" width="16.5" xlink:href="#shape6"/>
    <use height="2.0" transform="matrix(0.1758, 0.0, 0.0, 3.3081, 20.0501, 56.6919)" width="16.5" xlink:href="#shape7"/>
    <use height="2.0" transform="matrix(0.1606, 0.0, 0.0, 6.6713, 14.8251, 49.9287)" width="16.5" xlink:href="#shape5"/>
    <use height="2.0" transform="matrix(0.1697, 0.0, 0.0, 3.5867, 30.1, 56.1133)" width="16.5" xlink:href="#shape7"/>
    <use height="2.0" transform="matrix(0.1879, 0.0, 0.0, 2.3675, 36.3, 58.5325)" width="16.5" xlink:href="#shape7"/>
    <use height="2.0" transform="matrix(1.0, 0.0, 0.0, 1.0, 88.35, 17.5)" width="16.5" xlink:href="#shape6"/>
    <use height="2.0" transform="matrix(1.0, 0.0, 0.0, 1.0, 88.35, 21.5)" width="16.5" xlink:href="#shape5"/>
    <use height="2.0" transform="matrix(1.0, 0.0, 0.0, 1.0, 88.35, 25.5)" width="16.5" xlink:href="#shape7"/>
    <use height="58.4" transform="matrix(1.0, 0.0, 0.0, 1.0, 10.4, 7.9)" width="96.15" xlink:href="#shape8"/>
    <use height="0.0" id="price_tag_pt" transform="matrix(1.0, 0.0, 0.0, 1.0, 58.3, 83.45)" width="0.0" xlink:href="#sprite0"/>
  </g>
  <defs>
    <g id="shape0" transform="matrix(1.0, 0.0, 0.0, 1.0, 58.3, 36.9)">
      <path d="M58.35 -36.9 L58.35 36.9 -58.3 36.9 -58.3 -36.9 58.35 -36.9" fill="url(#gradient0)" fill-rule="evenodd" stroke="none"/>
      <path d="M-47.9 -29.0 L-47.9 29.4 48.25 29.4 48.25 -29.0 -47.9 -29.0 M-54.45 35.25 L-54.45 -34.1 56.3 -34.1 56.3 35.25 -54.45 35.25" fill="#253538" fill-rule="evenodd" stroke="none"/>
      <path d="M58.35 35.35 L58.35 36.9 -56.8 36.9 -52.8 35.25 58.35 35.35" fill="url(#gradient1)" fill-rule="evenodd" stroke="none"/>
      <path d="M-54.45 35.25 L-54.45 -34.1 56.3 -34.1 56.3 -32.75 -52.8 -32.75 -52.8 35.25 -54.45 35.25" fill="url(#gradient2)" fill-rule="evenodd" stroke="none"/>
      <path d="M-50.45 31.5 L48.25 31.5 48.7 32.6 -45.3 32.6 -50.45 31.5" fill="#385154" fill-rule="evenodd" stroke="none"/>
      <path d="M49.2 -30.75 L49.2 32.25 48.25 32.25 48.25 -30.75 49.2 -30.75" fill="#385154" fill-rule="evenodd" stroke="none"/>
      <path d="M-50.45 31.5 L-47.3 29.25 48.25 29.4 48.25 31.5 -50.45 31.5" fill="#1f2b2d" fill-rule="evenodd" stroke="none"/>
      <path d="M-47.9 -29.0 L-50.45 -30.75 48.25 -30.75 48.25 -29.0 -47.9 -29.0" fill="#111719" fill-rule="evenodd" stroke="none"/>
      <path d="M-47.9 -29.0 L-47.9 29.4 48.25 29.4 48.25 31.6 -50.45 31.6 -50.45 -30.75 48.25 -30.75 48.25 -29.0 -47.9 -29.0" fill="#1a2528" fill-rule="evenodd" stroke="none"/>
      <path d="M-47.9 -29.0 L48.25 -29.0 48.25 29.4 -47.9 29.4 -47.9 -29.0" fill="#6c91a8" fill-rule="evenodd" stroke="none"/>
    </g>
    <linearGradient gradientTransform="matrix(0.0712, 0.0, 0.0, -0.0712, 0.05, 0.0)" gradientUnits="userSpaceOnUse" id="gradient0" spreadMethod="pad" x1="-819.2" x2="819.2">
      <stop offset="0.08627450980392157" stop-color="#000000" stop-opacity="0.32941177"/>
      <stop offset="0.22745098039215686" stop-color="#000000" stop-opacity="0.32941177"/>
    </linearGradient>
    <linearGradient gradientTransform="matrix(0.0, -0.0029, -0.0029, 0.0, 0.75, 35.9)" gradientUnits="userSpaceOnUse" id="gradient1" spreadMethod="pad" x1="-819.2" x2="819.2">
      <stop offset="0.0" stop-color="#ffffff" stop-opacity="0.5137255"/>
      <stop offset="0.6549019607843137" stop-color="#ffffff" stop-opacity="0.1764706"/>
    </linearGradient>
    <linearGradient gradientTransform="matrix(0.0676, 0.0, 0.0, -0.0676, 0.9, 0.6)" gradientUnits="userSpaceOnUse" id="gradient2" spreadMethod="pad" x1="-819.2" x2="819.2">
      <stop offset="0.08627450980392157" stop-color="#000000" stop-opacity="0.32941177"/>
      <stop offset="0.22745098039215686" stop-color="#000000" stop-opacity="0.32941177"/>
    </linearGradient>
    <g id="shape1" transform="matrix(1.0, 0.0, 0.0, 1.0, 47.9, 29.0)">
      <path d="M-47.9 -29.0 L48.25 -29.0 48.25 29.4 -47.9 29.4 -47.9 -29.0" fill="url(#gradient3)" fill-rule="evenodd" stroke="none"/>
    </g>
    <radialGradient cx="0" cy="0" gradientTransform="matrix(0.0952, 0.0, 0.0, -0.058, 0.2, 0.2)" gradientUnits="userSpaceOnUse" id="gradient3" r="819.2" spreadMethod="pad">
      <stop offset="0.34509803921568627" stop-color="#130c0e" stop-opacity="0.0"/>
      <stop offset="0.8470588235294118" stop-color="#130c0e" stop-opacity="0.6509804"/>
      <stop offset="1.0" stop-color="#130c0e" stop-opacity="0.9490196"/>
    </radialGradient>
    <g id="shape2" transform="matrix(1.0, 0.0, 0.0, 1.0, 21.6, 15.8)">
      <path d="M18.25 -15.8 L20.85 9.5 -19.0 13.65 -21.6 -11.65 18.25 -15.8" fill="url(#gradient4)" fill-rule="evenodd" stroke="none"/>
    </g>
    <radialGradient cx="0" cy="0" gradientTransform="matrix(-0.0412, 0.0, 0.0, -0.0433, 0.0, 0.0)" gradientUnits="userSpaceOnUse" id="gradient4" r="819.2" spreadMethod="pad">
      <stop offset="0.0" stop-color="#caffff" stop-opacity="0.84705883"/>
      <stop offset="0.26666666666666666" stop-color="#bef0f0" stop-opacity="0.4"/>
      <stop offset="0.592156862745098" stop-color="#b7e6e6" stop-opacity="0.09411765"/>
      <stop offset="1.0" stop-color="#b4e3e3" stop-opacity="0.0"/>
    </radialGradient>
    <g id="shape3" transform="matrix(1.0, 0.0, 0.0, 1.0, 20.35, 21.3)">
      <path d="M19.1 -3.3 Q19.95 5.0 14.85 11.45 9.75 17.95 1.6 18.8 -6.55 19.65 -12.95 14.45 -19.35 9.2 -20.2 0.95 -21.1 -7.35 -15.95 -13.8 -10.85 -20.3 -2.7 -21.15 5.45 -22.05 11.8 -16.8 18.2 -11.6 19.1 -3.3" fill="#6c91a8" fill-rule="evenodd" stroke="none"/>
    </g>
    <g id="shape4" transform="matrix(1.0, 0.0, 0.0, 1.0, 21.65, 15.8)">
      <path d="M19.1 -3.3 Q19.85 4.05 15.95 10.0 L-14.4 13.15 Q-19.45 8.2 -20.2 0.95 -21.0 -6.3 -17.15 -12.1 L13.45 -15.3 Q18.3 -10.45 19.1 -3.3" fill="#6c91a8" fill-rule="evenodd" stroke="none"/>
      <path d="M-12.3 -13.0 L-12.3 -12.6 Q-12.4 -12.05 -12.95 -11.8 L-13.35 -11.65 Q-13.45 -10.75 -10.5 -8.5 L-10.5 -8.55 Q-8.65 -7.15 -8.6 -6.3 -8.45 -5.25 -10.5 -5.05 L-13.3 -4.55 -13.25 -3.55 -13.2 -3.5 -13.25 -2.85 -12.95 -1.8 -12.6 -0.9 -12.55 -0.85 -12.35 0.1 -12.3 0.4 Q-12.1 0.5 -12.05 0.75 L-11.85 1.25 Q-11.35 1.9 -10.8 3.15 L-11.35 4.4 -11.4 4.6 -11.6 5.0 -11.8 5.15 Q-12.15 5.4 -12.7 5.45 L-13.5 5.3 -14.15 4.85 -15.1 4.45 -16.4 3.9 Q-17.05 3.55 -16.55 2.45 L-15.75 0.85 -18.3 1.0 -20.25 1.5 -21.65 -12.0 -12.3 -13.0 M3.9 5.0 L4.8 4.5 Q5.4 5.75 4.9 6.75 4.45 7.75 3.25 7.6 L2.9 7.3 Q2.6 6.8 2.8 6.25 2.95 5.6 3.9 5.0 M3.5 2.3 Q3.95 2.4 4.25 2.9 4.5 3.35 4.35 3.85 L3.75 4.3 2.8 4.25 1.55 4.65 0.25 4.75 Q-0.3 4.45 0.25 4.1 L1.0 3.4 0.9 2.25 Q0.75 1.5 1.1 1.3 L2.05 1.8 3.5 2.3 M20.65 7.35 L20.45 7.5 19.9 7.7 19.05 7.4 18.05 6.55 17.95 6.5 Q17.7 6.55 17.5 7.0 L16.65 7.95 16.2 8.05 Q15.3 8.15 14.7 6.65 14.4 6.1 15.15 5.05 15.7 4.2 16.5 3.65 L16.95 2.35 Q17.05 1.4 17.65 1.15 L17.75 1.2 17.8 1.15 18.5 1.35 19.7 1.5 19.8 1.45 19.85 1.45 20.0 1.5 20.65 7.35 M7.55 -8.55 L5.9 -10.75 4.8 -11.9 3.05 -11.6 Q2.05 -11.15 2.6 -9.75 3.15 -8.35 2.95 -8.25 2.45 -7.95 1.05 -8.75 -0.35 -9.55 -0.8 -10.3 -1.15 -10.85 -0.15 -11.9 0.75 -12.9 0.3 -13.2 -0.3 -13.45 -1.1 -12.7 L-2.4 -11.55 Q-2.8 -11.4 -3.35 -11.8 -4.0 -12.3 -4.8 -12.3 -5.6 -12.3 -6.0 -11.25 -6.5 -10.0 -7.3 -9.65 -8.35 -9.2 -8.9 -10.4 L-9.2 -11.8 -8.6 -13.0 18.25 -15.8 19.75 -0.95 17.6 -0.5 17.45 -0.5 17.3 -0.5 Q16.4 -0.4 15.65 -0.95 L14.3 -1.75 14.15 -1.75 Q13.6 -1.65 13.2 -0.6 12.8 0.6 12.95 1.45 13.0 2.0 12.1 1.75 L11.4 1.5 10.4 1.2 Q9.85 1.05 9.4 0.05 L8.7 -1.25 Q8.45 -1.5 7.45 -0.9 L6.0 -0.8 Q5.1 -1.9 7.55 -3.8 8.0 -4.15 7.05 -4.5 5.85 -5.05 5.75 -5.3 5.5 -5.7 6.25 -6.0 L7.75 -6.75 Q8.4 -7.15 7.55 -8.55 M-8.1 -0.05 Q-9.5 3.05 -10.15 2.1 -10.0 2.3 -10.05 0.9 L-9.5 0.0 Q-8.2 -1.55 -7.85 -1.3 -7.6 -1.15 -8.1 -0.05 M-20.0 3.95 Q-19.65 4.0 -19.4 4.65 -19.1 5.45 -18.5 5.75 -17.25 6.15 -16.25 6.7 L-16.05 7.4 Q-16.05 8.1 -16.95 7.95 -17.75 7.85 -18.4 8.65 L-19.4 9.8 -20.0 3.95 M-6.6 9.45 L-6.35 8.95 Q-5.95 8.45 -5.2 8.65 -4.0 8.95 -2.8 7.45 L-3.1 8.45 Q-3.3 9.4 -2.9 9.4 -2.35 9.35 -2.05 9.7 -1.75 10.05 -2.25 10.4 L-3.85 11.1 Q-4.9 11.5 -4.9 11.85 L-4.95 12.2 -11.45 12.85 -11.5 12.3 -11.3 11.85 Q-10.55 11.7 -10.5 10.95 -10.55 10.4 -10.1 10.15 L-9.45 9.9 -9.15 9.85 -9.2 9.8 Q-8.25 9.25 -6.6 9.45 M-3.6 2.25 Q-2.9 2.6 -2.2 3.25 -1.05 3.45 -0.8 5.5 -0.75 6.25 -1.05 6.4 L-2.3 6.3 Q-3.0 6.1 -3.25 6.55 L-3.35 7.05 -5.5 6.4 -6.7 7.1 Q-7.6 7.7 -8.45 6.9 -9.5 6.0 -8.5 4.0 -7.6 2.15 -6.7 1.95 -4.8 1.5 -3.6 2.25 M-7.35 -0.8 L-6.95 -1.4 -6.5 -1.65 -6.45 -2.3 -5.85 -3.15 -4.4 -2.3 -3.4 -2.95 Q-2.95 -3.3 -1.85 -2.4 L-2.5 -1.85 Q-3.0 -1.25 -2.45 -1.25 -1.75 -1.2 -1.9 -0.7 -2.05 -0.15 -3.0 -0.05 -3.05 0.8 -3.75 0.8 -4.5 0.8 -5.2 -0.4 -5.35 -0.7 -5.8 -0.15 L-6.65 0.6 Q-7.0 0.65 -7.2 0.1 L-7.35 -0.8" fill="#72d6db" fill-rule="evenodd" stroke="none"/>
      <path d="M-19.45 1.05 L19.55 -2.95 M-19.45 9.0 L20.35 4.9 M-19.45 -6.85 L18.75 -10.75" fill="none" stroke="#ccffff" stroke-linecap="round" stroke-linejoin="round" stroke-width="0.5"/>
      <path d="M-7.9 -13.05 Q-8.85 -7.65 -8.0 0.75 -6.75 7.75 -4.9 12.15" fill="none" stroke="#caffff" stroke-linecap="round" stroke-linejoin="round" stroke-width="0.75"/>
      <path d="M-0.4 -13.85 L1.55 -0.85 2.7 11.4" fill="none" stroke="#caffff" stroke-linecap="round" stroke-linejoin="round" stroke-width="0.75"/>
      <path d="M6.3 -14.55 Q8.75 -10.0 10.2 -2.6 11.05 5.4 9.75 10.65" fill="none" stroke="#caffff" stroke-linecap="round" stroke-linejoin="round" stroke-width="0.75"/>
      <path d="M11.6 -15.1 Q14.85 -10.85 16.55 -3.9 17.4 4.55 14.9 10.1" fill="none" stroke="#caffff" stroke-linecap="round" stroke-linejoin="round" stroke-width="0.75"/>
      <path d="M-17.65 -12.45 L-17.9 -12.05 Q-20.55 -7.2 -20.45 -0.15 M-20.05 3.7 Q-18.3 9.5 -15.15 13.25" fill="none" stroke="#caffff" stroke-linecap="round" stroke-linejoin="round" stroke-width="0.75"/>
      <path d="M-13.9 -12.85 L-14.05 -12.45 Q-16.45 -6.75 -15.6 2.0 -14.05 8.65 -11.2 12.85" fill="none" stroke="#caffff" stroke-linecap="round" stroke-linejoin="round" stroke-width="0.75"/>
    </g>
    <g id="shape5" transform="matrix(1.0, 0.0, 0.0, 1.0, 8.25, 1.0)">
      <path d="M-8.25 -1.0 L8.25 -1.0 8.25 1.0 -8.25 1.0 -8.25 -1.0" fill="#ffe783" fill-rule="evenodd" stroke="none"/>
    </g>
    <g id="shape6" transform="matrix(1.0, 0.0, 0.0, 1.0, 8.25, 1.0)">
      <path d="M-8.25 -1.0 L8.25 -1.0 8.25 1.0 -8.25 1.0 -8.25 -1.0" fill="#b9e07c" fill-rule="evenodd" stroke="none"/>
    </g>
    <g id="shape7" transform="matrix(1.0, 0.0, 0.0, 1.0, 8.25, 1.0)">
      <path d="M-8.25 -1.0 L8.25 -1.0 8.25 1.0 -8.25 1.0 -8.25 -1.0" fill="#ffac48" fill-rule="evenodd" stroke="none"/>
    </g>
    <g id="shape8" transform="matrix(1.0, 0.0, 0.0, 1.0, 47.9, 29.0)">
      <path d="M-47.9 -29.0 L48.25 -29.0 48.25 29.4 -47.9 29.4 -47.9 -29.0" fill="url(#gradient5)" fill-rule="evenodd" stroke="none"/>
      <path d="M-47.9 -29.0 L48.25 -29.0 48.25 29.4 -47.9 29.4 -47.9 -29.0" fill="url(#gradient6)" fill-rule="evenodd" stroke="none"/>
    </g>
    <radialGradient cx="0" cy="0" gradientTransform="matrix(0.0952, 0.0, 0.0, -0.058, 0.2, 0.2)" gradientUnits="userSpaceOnUse" id="gradient5" r="819.2" spreadMethod="pad">
      <stop offset="0.34509803921568627" stop-color="#130c0e" stop-opacity="0.0"/>
      <stop offset="0.8470588235294118" stop-color="#130c0e" stop-opacity="0.6509804"/>
      <stop offset="1.0" stop-color="#130c0e" stop-opacity="0.9490196"/>
    </radialGradient>
    <linearGradient gradientTransform="matrix(0.0554, 0.0, 0.0, -0.0554, 1.5, 0.2)" gradientUnits="userSpaceOnUse" id="gradient6" spreadMethod="pad" x1="-819.2" x2="819.2">
      <stop offset="0.0" stop-color="#e1e1e1" stop-opacity="0.0"/>
      <stop offset="0.3058823529411765" stop-color="#ededed" stop-opacity="0.28627452"/>
      <stop offset="0.49411764705882355" stop-color="#eaeaea" stop-opacity="0.0"/>
      <stop offset="0.7294117647058823" stop-color="#ededed" stop-opacity="0.2784314"/>
      <stop offset="0.9568627450980393" stop-color="#e1e1e1" stop-opacity="0.0"/>
    </linearGradient>
  </defs>
</svg>
