<?xml version="1.0" encoding="UTF-8" standalone="no"?>
<svg xmlns:xlink="http://www.w3.org/1999/xlink" height="62.8px" width="83.0px" xmlns="http://www.w3.org/2000/svg">
  <g transform="matrix(1.0, 0.0, 0.0, 1.0, 0.0, 0.0)">
    <use height="12.55" transform="matrix(1.0, 0.0, 0.0, 1.0, 30.5, 30.9)" width="17.15" xlink:href="#shape0"/>
    <use height="12.7" transform="matrix(0.5816, 0.0, 0.0, 0.5816, 41.2, 35.6)" width="8.75" xlink:href="#sprite0"/>
    <use height="17.95" transform="matrix(1.0, 0.0, 0.0, 1.0, 31.85, 33.0)" width="35.15" xlink:href="#shape2"/>
    <use height="17.45" transform="matrix(0.5816, 0.0, 0.0, 0.5816, 58.35, 40.1)" width="11.65" xlink:href="#sprite1"/>
    <use height="20.55" transform="matrix(1.0, 0.0, 0.0, 1.0, 16.05, 36.65)" width="50.45" xlink:href="#shape4"/>
    <use height="20.55" transform="matrix(0.5816, 0.0, 0.0, 0.5816, 32.95, 44.5)" width="13.75" xlink:href="#sprite2"/>
    <use height="25.1" transform="matrix(1.0, 0.0, 0.0, 1.0, 18.55, 37.7)" width="43.4" xlink:href="#shape6"/>
    <use height="22.35" transform="matrix(0.5816, 0.0, 0.0, 0.5816, 51.0, 49.1)" width="14.95" xlink:href="#sprite3"/>
    <use height="7.9" transform="matrix(1.0, 0.0, 0.0, 1.0, 35.55, 41.6)" width="12.45" xlink:href="#shape8"/>
  </g>
  <defs>
    <g id="shape0" transform="matrix(1.0, 0.0, 0.0, 1.0, -30.5, -30.9)">
      <path d="M45.25 38.9 Q45.65 38.1 46.7 37.9 L47.65 37.9 47.25 37.95 46.8 38.3 46.9 38.85 46.7 39.9 45.55 41.45 Q44.7 42.2 43.7 42.35 44.6 40.15 45.25 38.9" fill="#3c571c" fill-rule="evenodd" stroke="none"/>
      <path d="M44.35 40.4 Q45.25 40.65 46.25 40.05 L47.1 39.35 46.65 40.75 Q45.85 42.2 44.25 42.75 L40.55 43.1 Q38.2 42.95 39.2 42.7 L41.4 41.35 Q43.5 40.15 44.35 40.4" fill="#446120" fill-rule="evenodd" stroke="none"/>
      <path d="M36.7 41.55 Q41.55 42.2 41.35 42.55 L40.35 43.1 36.8 43.35 34.5 42.85 Q32.65 42.15 31.15 40.3 L30.9 40.05 31.85 40.55 33.55 41.05 35.15 41.05 Q36.05 41.15 36.7 41.55" fill="#6e9c33" fill-rule="evenodd" stroke="none"/>
      <path d="M30.5 36.5 L31.7 38.75 Q33.2 41.2 34.55 42.15 35.9 43.05 39.35 43.3 L36.9 43.4 Q34.1 43.2 32.3 41.85 30.8 40.75 30.5 38.5 L30.5 36.5" fill="#6b9631" fill-rule="evenodd" stroke="none"/>
      <path d="M43.95 33.55 Q44.0 33.8 42.6 33.9 L40.95 33.7 40.45 32.8 40.3 32.25 41.05 31.6 41.5 30.95 41.95 31.0 42.35 31.3 42.65 31.55 42.95 32.0 Q43.2 32.25 43.5 31.8 L43.6 32.0 43.95 32.05 44.6 31.55 44.25 32.4 43.95 33.55" fill="#6b9630" fill-rule="evenodd" stroke="none"/>
      <path d="M34.9 42.3 L34.05 41.9 Q33.15 41.2 32.5 39.7 L31.2 36.5 Q30.8 35.25 31.3 35.3 31.75 35.3 32.0 35.0 L32.35 34.25 Q32.85 33.7 33.85 34.8 34.4 35.45 34.9 42.3" fill="#5c822a" fill-rule="evenodd" stroke="none"/>
      <path d="M34.05 33.35 L34.75 32.35 Q35.75 31.3 37.6 31.05 39.85 30.75 41.5 31.4 43.25 32.1 43.85 33.7 44.6 35.5 43.55 37.9 42.35 40.55 39.95 40.65 37.4 40.75 35.3 38.2 33.2 35.6 34.05 33.35" fill="#89bf3f" fill-rule="evenodd" stroke="none"/>
      <path d="M41.7 35.1 L43.0 33.8 Q43.45 36.2 42.85 38.25 42.5 39.5 41.4 39.7 L38.0 39.85 Q36.05 40.1 35.55 38.85 L35.25 37.2 Q34.7 36.35 34.8 35.85 35.0 34.95 37.45 35.6 39.9 36.2 41.7 35.1" fill="#7bab38" fill-rule="evenodd" stroke="none"/>
      <path d="M34.0 33.7 L34.2 33.15 35.25 33.3 Q36.45 33.65 37.15 34.25 L37.6 34.9 38.15 36.3 Q38.9 37.75 39.8 38.15 40.5 38.5 41.05 37.15 41.25 38.75 40.65 39.15 40.05 39.55 33.75 36.15 L33.85 35.0 34.0 33.7" fill="#689131" fill-rule="evenodd" stroke="none"/>
      <path d="M42.25 33.8 Q42.5 34.55 42.2 35.45 L41.85 36.2 Q42.05 35.15 41.85 34.2 L41.35 33.15 40.85 32.8 40.65 32.7 38.9 32.75 Q38.45 32.8 37.8 33.2 L37.25 33.6 37.6 33.25 38.35 32.7 40.15 32.45 39.55 32.05 39.2 31.85 Q37.85 31.9 37.15 32.45 L36.05 33.4 36.25 33.1 36.95 32.4 Q37.6 31.9 39.0 31.65 L38.2 31.4 Q37.85 31.35 37.1 31.65 36.25 32.0 35.95 32.6 L35.5 33.45 35.8 32.6 Q36.15 31.85 36.6 31.65 L37.85 31.3 36.7 31.25 36.4 31.3 37.0 31.15 38.0 31.05 38.2 31.1 39.0 30.95 39.45 31.0 38.45 31.2 39.0 31.45 39.25 31.65 39.25 31.55 Q39.4 31.4 39.85 31.3 L41.4 31.35 40.15 31.35 39.55 31.8 40.1 32.1 40.4 32.4 40.6 32.2 41.2 31.85 42.55 31.9 41.15 32.1 41.0 32.45 41.0 32.6 41.45 32.75 Q41.95 33.05 42.25 33.8" fill="#a5e64c" fill-rule="evenodd" stroke="none"/>
      <path d="M32.9 33.45 L32.75 33.7 32.15 34.0 Q31.8 34.2 31.9 34.0 32.15 33.5 32.95 33.35 L32.9 33.45 M33.0 33.3 L33.2 33.3 Q33.4 33.0 33.45 33.25 L33.5 33.25 34.35 33.35 35.8 34.0 Q36.85 34.5 37.3 35.1 L37.8 36.15 38.85 37.75 40.55 39.1 Q41.35 39.5 41.55 40.8 41.75 41.85 43.15 41.7 42.4 42.4 40.35 42.9 L37.75 43.05 Q34.85 42.95 33.55 41.5 31.85 39.6 32.1 37.05 32.15 35.85 32.95 33.8 L33.15 33.4 33.1 33.35 33.0 33.3" fill="url(#gradient0)" fill-rule="evenodd" stroke="none"/>
      <path d="M35.1 34.25 L35.45 33.8 34.9 35.15 34.8 35.85 35.55 35.65 36.7 34.85 35.95 35.65 35.1 36.15 34.7 36.15 34.55 37.75 34.85 37.75 35.5 37.5 36.35 37.05 36.4 36.2 36.7 35.65 36.65 36.2 36.75 36.75 37.15 36.5 37.65 36.1 Q37.35 36.75 36.15 37.4 L34.9 37.95 34.55 38.05 34.55 38.85 34.95 40.45 35.35 40.45 36.55 40.25 37.85 39.7 37.8 39.0 37.95 38.1 38.05 38.8 Q38.15 39.35 38.45 39.5 L38.55 39.35 39.7 38.45 Q39.0 39.7 37.65 40.4 L35.85 41.0 35.1 41.0 35.25 41.3 35.8 42.0 Q36.4 42.7 37.8 42.9 L36.9 42.95 Q36.35 42.95 35.8 42.6 L35.0 41.7 34.65 41.05 Q33.55 40.4 32.95 39.3 L32.4 37.8 32.3 37.1 32.5 37.95 32.95 38.7 33.0 38.1 33.0 37.55 32.95 37.35 33.1 37.55 33.25 38.15 33.1 39.05 33.4 39.45 34.55 40.5 34.35 39.95 34.2 38.8 34.15 38.0 Q33.15 37.35 32.85 36.65 L32.65 35.85 32.65 35.55 32.75 36.05 33.0 36.55 33.1 36.2 33.2 35.45 33.2 36.3 33.15 36.75 33.65 37.25 34.2 37.7 34.3 36.95 34.45 36.15 Q33.7 35.7 33.5 35.05 L33.35 34.35 33.35 34.15 33.4 34.55 33.75 35.4 Q34.2 35.95 34.55 35.85 L34.7 35.05 35.1 34.25" fill="url(#gradient1)" fill-rule="evenodd" stroke="none"/>
      <path d="M37.8 36.6 L39.0 38.25 40.3 39.2 39.55 40.65 Q39.25 40.95 31.95 39.2 L32.1 37.2 32.45 37.3 33.7 37.0 35.65 36.8 37.05 37.0 37.5 37.0 37.5 36.5 37.25 35.6 37.8 36.6" fill="#6f9c32" fill-rule="evenodd" stroke="none"/>
      <path d="M46.0 39.2 Q45.5 40.8 43.5 41.45 40.45 42.55 36.4 42.9 L38.1 42.15 Q39.9 40.9 40.5 38.5 41.05 36.55 41.0 35.2 L41.05 34.05 Q41.2 33.85 41.5 33.75 L42.55 33.6 Q43.25 33.45 43.6 33.1 L44.05 32.3 Q44.25 31.65 44.6 31.55 L44.25 32.3 Q44.0 33.15 44.5 33.6 45.1 34.05 45.55 35.05 L46.1 36.85 46.0 39.2" fill="#90cc3f" fill-rule="evenodd" stroke="none"/>
      <path d="M46.2 39.2 Q45.7 40.8 43.7 41.45 40.65 42.55 36.55 42.9 L38.25 42.15 Q40.05 40.9 40.7 38.5 41.2 36.55 41.2 35.2 L41.2 34.05 Q41.4 33.8 41.7 33.75 L42.75 33.6 43.75 33.15 44.2 32.4 44.6 31.55 Q44.4 31.9 44.35 32.3 44.15 33.15 44.65 33.6 45.25 34.05 45.75 35.05 L46.3 36.85 46.2 39.2" fill="#6a9431" fill-rule="evenodd" stroke="none"/>
      <path d="M44.65 33.6 L45.6 34.75 46.2 36.35 45.95 36.9 Q45.5 37.5 44.35 37.3 43.15 37.05 43.65 36.35 44.15 35.65 44.05 35.05 44.0 34.4 43.4 34.15 43.0 33.95 43.1 33.5 L43.85 33.1 44.2 32.4 44.6 31.55 Q44.4 31.9 44.35 32.3 44.15 33.15 44.65 33.6" fill="#658c2d" fill-rule="evenodd" stroke="none"/>
      <path d="M30.95 35.6 Q31.1 35.4 31.15 35.6 L32.3 38.95 Q32.85 40.5 34.5 41.85 L36.05 42.9 34.85 42.35 Q33.45 41.55 32.55 40.3 31.5 38.8 31.0 37.55 30.55 36.2 30.95 35.6" fill="#8cc63f" fill-rule="evenodd" stroke="none"/>
      <path d="M46.4 36.9 L46.2 38.85 Q45.75 40.45 44.35 41.6 42.7 42.9 40.5 43.1 38.2 43.3 36.7 43.1 L35.65 42.8 36.15 42.9 37.4 42.75 Q38.95 42.45 40.0 41.45 41.15 40.25 41.5 38.4 41.9 35.5 42.3 35.65 L42.8 35.85 43.35 35.95 43.7 35.55 Q44.0 35.2 44.4 35.2 L45.5 34.85 46.5 34.7 Q47.2 34.7 47.3 35.15 L47.25 35.8 47.0 35.7 46.4 35.75 46.4 36.9" fill="#86c236" fill-rule="evenodd" stroke="none"/>
      <path d="M46.65 36.9 L46.4 38.85 Q45.95 40.45 44.5 41.6 42.9 42.9 40.7 43.1 L35.85 42.8 36.35 42.9 37.6 42.75 Q39.1 42.45 40.15 41.45 41.35 40.25 41.65 38.4 41.9 36.75 42.3 36.6 L43.0 36.5 Q43.9 35.95 43.95 35.95 L44.5 35.6 Q44.95 35.25 45.4 35.2 L45.7 35.1 45.7 34.85 Q46.35 34.4 46.9 35.55 L47.15 35.7 Q47.4 35.85 47.35 35.25 L47.45 36.95 47.25 36.4 46.9 35.55 Q46.65 35.45 46.6 35.75 L46.65 36.9" fill="#60872c" fill-rule="evenodd" stroke="none"/>
      <path d="M46.6 35.75 L46.65 36.9 46.4 38.85 Q45.95 40.45 44.5 41.6 42.9 42.9 40.7 43.1 L40.4 43.1 Q42.7 42.75 44.15 41.45 45.3 40.4 45.35 39.35 45.45 37.0 44.9 35.8 L44.9 35.75 45.25 35.5 45.85 35.25 Q46.25 35.1 46.55 35.25 47.0 35.35 46.85 35.45 L46.65 35.6 46.6 35.75" fill="#537526" fill-rule="evenodd" stroke="none"/>
    </g>
    <radialGradient cx="0" cy="0" gradientTransform="matrix(0.0065, 0.0, 0.0, -0.0064, 34.95, 37.35)" gradientUnits="userSpaceOnUse" id="gradient0" r="819.2" spreadMethod="pad">
      <stop offset="0.0" stop-color="#a9e858"/>
      <stop offset="1.0" stop-color="#77a63a"/>
    </radialGradient>
    <radialGradient cx="0" cy="0" gradientTransform="matrix(0.0073, 0.0, 0.0, -0.0071, 34.35, 37.05)" gradientUnits="userSpaceOnUse" id="gradient1" r="819.2" spreadMethod="pad">
      <stop offset="0.3254901960784314" stop-color="#a9e858"/>
      <stop offset="1.0" stop-color="#77a63a"/>
    </radialGradient>
    <g id="sprite0" transform="matrix(1.0, 0.0, 0.0, 1.0, 0.0, 0.0)">
      <use height="12.7" transform="matrix(1.0, 0.0, 0.0, 1.0, 0.0, 0.0)" width="8.75" xlink:href="#shape1"/>
    </g>
    <g id="shape1" transform="matrix(1.0, 0.0, 0.0, 1.0, 0.0, 0.0)">
      <path d="M6.0 1.55 Q6.15 0.6 6.65 0.0 6.3 1.05 6.3 1.85 6.3 2.65 6.45 2.9 L7.2 2.4 8.0 1.0 7.5 2.5 Q7.15 3.25 6.5 3.4 L6.65 5.95 7.9 5.0 8.75 3.3 Q8.25 5.2 7.75 5.95 7.2 6.7 6.65 6.6 L6.1 8.55 5.95 8.95 Q5.8 9.25 6.75 8.5 L7.85 7.5 6.3 9.3 5.5 9.7 Q4.85 10.75 3.25 11.55 1.7 12.4 0.0 12.7 2.25 12.1 3.6 10.8 L5.0 9.5 Q3.6 9.45 2.75 8.75 2.2 8.3 1.8 7.65 L1.55 7.1 2.0 7.6 3.05 8.35 5.25 8.9 5.8 7.65 6.1 6.55 Q4.35 6.3 3.6 5.6 L2.4 4.1 Q3.4 5.3 4.6 5.65 L6.1 5.95 6.1 4.1 6.1 3.5 Q4.95 3.5 4.3 3.05 L3.35 2.3 3.9 2.55 5.05 2.9 6.0 3.0 Q5.85 2.45 6.0 1.55" fill="#000000" fill-rule="evenodd" stroke="none"/>
    </g>
    <g id="shape2" transform="matrix(1.0, 0.0, 0.0, 1.0, -31.85, -33.0)">
      <path d="M32.75 33.7 Q32.4 33.5 32.05 33.9 L31.85 33.9 Q31.8 33.75 32.1 33.45 32.5 32.9 33.55 33.05 L34.1 33.25 34.8 33.45 36.55 34.0 Q37.25 34.4 37.35 34.85 L37.35 35.2 37.25 35.7 36.9 35.4 36.5 34.9 36.2 35.0 36.0 35.3 35.6 35.3 35.1 34.9 34.9 34.45 34.6 34.15 34.05 34.0 33.75 34.0 33.6 34.05 32.75 33.7" fill="#94d142" fill-rule="evenodd" stroke="none"/>
      <path d="M45.4 42.7 Q43.1 43.85 41.35 43.4 39.5 42.9 39.7 42.8 L41.35 42.75 Q42.75 42.75 43.9 42.15 L45.1 41.85 46.15 41.8 47.35 41.4 45.4 42.7" fill="#39521a" fill-rule="evenodd" stroke="none"/>
      <path d="M63.75 44.7 Q64.3 43.6 65.7 43.35 L67.0 43.3 66.4 43.4 Q65.85 43.6 65.8 43.9 L65.9 44.65 65.6 46.05 Q65.2 47.2 64.15 48.15 63.0 49.25 61.65 49.45 L62.4 47.75 Q63.2 45.8 63.75 44.7" fill="#3c571c" fill-rule="evenodd" stroke="none"/>
      <path d="M65.05 46.3 L66.2 45.35 65.55 47.2 Q64.5 49.2 62.35 50.0 L57.45 50.45 Q54.25 50.25 55.65 49.9 L58.55 48.1 Q61.4 46.4 62.55 46.8 63.75 47.15 65.05 46.3" fill="#446120" fill-rule="evenodd" stroke="none"/>
      <path d="M48.1 47.7 L50.2 47.7 Q51.35 47.8 52.25 48.4 58.8 49.3 58.45 49.7 58.1 50.2 57.2 50.45 L52.4 50.8 49.35 50.15 Q46.7 49.1 44.85 46.7 L44.55 46.25 45.8 47.0 Q47.25 47.7 48.1 47.7" fill="#6e9c33" fill-rule="evenodd" stroke="none"/>
      <path d="M44.0 41.4 L45.6 44.5 Q47.6 47.9 49.4 49.15 50.55 49.95 53.3 50.45 L55.8 50.75 52.55 50.9 Q48.85 50.6 46.4 48.75 44.4 47.2 44.0 44.15 L44.0 41.4" fill="#6b9631" fill-rule="evenodd" stroke="none"/>
      <path d="M59.35 33.9 L59.85 34.25 60.7 35.25 Q60.95 35.6 61.4 34.95 L61.5 35.25 61.95 35.3 62.85 34.6 62.35 35.8 61.95 37.4 Q62.0 37.75 60.15 37.9 58.25 38.0 57.9 37.55 L57.35 36.35 57.05 35.6 58.1 34.7 58.7 33.8 59.35 33.9" fill="#6b9630" fill-rule="evenodd" stroke="none"/>
      <path d="M49.85 49.4 Q49.35 49.35 48.75 48.85 47.5 47.9 46.7 45.85 L44.95 41.4 Q44.4 39.7 45.05 39.75 45.7 39.8 46.0 39.35 L46.45 38.3 Q47.15 37.55 48.45 39.05 49.2 39.95 49.85 49.4" fill="#5c822a" fill-rule="evenodd" stroke="none"/>
      <path d="M48.75 37.15 L49.65 35.75 Q51.0 34.3 53.45 33.95 56.5 33.55 58.75 34.5 61.05 35.45 61.85 37.55 62.85 40.1 61.4 43.4 59.85 47.0 56.65 47.1 53.2 47.2 50.4 43.75 47.6 40.25 48.75 37.15" fill="#89bf3f" fill-rule="evenodd" stroke="none"/>
      <path d="M60.7 37.75 L60.9 39.75 Q61.0 42.05 60.55 43.8 60.05 45.55 58.6 45.8 L54.05 46.05 Q51.4 46.35 50.7 44.65 L50.3 42.4 Q49.6 41.3 49.75 40.6 50.05 39.3 53.3 40.2 56.5 41.05 58.95 39.5 L60.7 37.75" fill="#7bab38" fill-rule="evenodd" stroke="none"/>
      <path d="M52.65 43.15 L48.4 40.9 48.5 39.35 48.7 37.6 48.95 36.85 50.35 37.05 Q51.95 37.45 52.9 38.3 53.5 38.9 53.5 39.3 L54.2 41.15 Q55.2 43.1 56.45 43.7 57.0 43.95 57.6 43.15 L58.1 42.3 58.1 43.45 Q58.05 44.7 57.55 45.05 57.05 45.4 52.65 43.15" fill="#689131" fill-rule="evenodd" stroke="none"/>
      <path d="M59.25 35.1 Q58.4 35.15 58.25 35.4 L58.0 35.85 58.0 36.05 58.65 36.3 Q59.35 36.7 59.7 37.75 60.05 38.8 59.65 40.0 L59.15 41.0 Q59.4 39.55 59.1 38.25 58.85 37.2 58.45 36.8 L57.85 36.35 57.55 36.2 55.25 36.3 Q54.6 36.35 53.75 36.9 L53.05 37.4 53.5 36.95 54.5 36.2 56.95 35.9 56.1 35.35 55.6 35.05 Q53.8 35.1 52.85 35.9 L51.45 37.2 51.7 36.7 52.6 35.75 Q53.45 35.1 55.35 34.75 L54.3 34.45 52.85 34.75 Q51.65 35.25 51.25 36.05 L50.75 37.15 50.65 37.2 51.05 36.1 Q51.6 35.05 52.15 34.75 L53.8 34.25 52.3 34.2 51.9 34.3 52.7 34.1 54.05 34.0 54.35 34.0 54.65 33.9 55.35 33.85 55.95 33.85 54.6 34.15 55.35 34.5 55.75 34.75 55.75 34.6 56.5 34.3 58.55 34.35 56.85 34.4 56.05 34.95 56.8 35.45 57.25 35.8 57.5 35.5 Q57.85 35.15 58.3 35.05 L60.05 35.15 59.25 35.1" fill="#a5e64c" fill-rule="evenodd" stroke="none"/>
      <path d="M57.4 45.0 Q58.55 45.5 58.8 47.35 59.0 48.75 60.9 48.55 L60.05 49.1 57.15 50.2 53.65 50.4 Q49.8 50.25 48.1 48.25 45.8 45.65 46.1 42.2 46.2 40.5 47.3 37.75 L47.55 37.2 47.5 37.1 47.4 37.05 47.55 37.0 47.65 37.0 Q47.85 36.7 47.95 36.95 L47.95 37.0 49.1 37.1 51.1 38.05 Q52.5 38.65 53.1 39.5 L53.75 40.9 Q54.25 42.05 55.2 43.1 56.25 44.4 57.4 45.0 M47.2 37.2 L47.0 37.55 Q46.85 37.55 46.2 38.0 L45.9 38.05 Q46.15 37.35 47.2 37.1 L47.2 37.2" fill="url(#gradient2)" fill-rule="evenodd" stroke="none"/>
      <path d="M51.9 41.0 L52.15 40.5 52.25 40.25 52.2 41.0 52.35 41.8 52.9 41.45 53.6 40.8 Q53.15 41.75 51.55 42.65 L49.85 43.45 49.4 43.55 49.4 44.7 Q49.4 45.45 49.9 46.85 L50.5 46.85 52.1 46.6 Q53.4 46.25 53.8 45.8 L53.8 44.85 54.0 43.65 54.1 44.6 Q54.2 45.3 54.55 45.5 L54.75 45.3 56.3 44.05 55.6 45.05 53.6 46.8 51.2 47.55 50.1 47.6 50.3 47.95 51.1 49.0 Q51.9 49.9 53.75 50.2 L52.55 50.25 51.0 49.8 Q50.55 49.55 50.05 48.6 L49.6 47.7 Q48.05 46.75 47.25 45.25 L46.5 43.2 46.4 42.25 46.7 43.4 Q46.85 44.05 47.25 44.5 L47.35 43.6 47.35 42.85 47.3 42.6 47.45 42.9 47.65 43.75 47.5 44.9 47.9 45.45 49.4 46.9 49.15 46.15 48.95 44.55 48.85 43.45 Q47.55 42.55 47.2 41.6 L46.9 40.55 46.9 40.15 47.0 40.8 47.35 41.5 47.5 41.0 47.6 40.05 47.55 41.8 48.15 42.45 48.95 43.05 49.3 40.95 Q48.25 40.35 47.95 39.45 L47.75 38.5 47.75 38.2 47.85 38.75 48.35 39.9 Q48.95 40.65 49.35 40.6 L49.65 39.4 Q49.7 39.05 50.2 38.35 L50.65 37.7 50.3 38.4 49.9 39.55 49.7 40.6 50.05 40.55 50.75 40.3 52.25 39.2 51.25 40.3 50.15 40.9 49.65 40.95 49.4 43.15 49.8 43.1 50.7 42.8 51.8 42.2 51.9 41.0" fill="url(#gradient3)" fill-rule="evenodd" stroke="none"/>
      <path d="M57.1 45.1 L56.1 47.1 Q55.7 47.55 45.95 45.1 L46.1 42.35 46.55 42.5 48.25 42.15 50.85 41.85 52.7 42.1 53.4 42.1 53.3 41.4 53.0 40.15 53.8 41.55 55.4 43.8 57.1 45.1" fill="#5b8029" fill-rule="evenodd" stroke="none"/>
      <path d="M64.7 45.1 Q64.1 47.3 61.4 48.25 58.8 49.15 55.1 49.75 L51.85 50.2 54.1 49.15 Q56.55 47.45 57.4 44.2 58.1 41.5 58.05 39.6 L58.1 38.05 Q58.3 37.75 58.7 37.65 L60.15 37.4 Q61.05 37.25 61.5 36.75 L62.05 35.65 Q62.4 34.75 62.85 34.6 L62.35 35.65 Q62.0 36.85 62.65 37.4 L64.15 39.4 Q64.8 40.75 64.85 41.9 65.05 44.1 64.7 45.1" fill="#90cc3f" fill-rule="evenodd" stroke="none"/>
      <path d="M65.0 45.1 Q64.3 47.3 61.65 48.25 L55.35 49.75 52.15 50.2 54.35 49.15 Q56.8 47.45 57.6 44.2 58.3 41.5 58.3 39.6 L58.35 38.05 Q58.6 37.75 58.95 37.65 L60.4 37.4 61.7 36.85 62.3 35.8 Q62.6 34.9 62.85 34.6 L62.5 35.65 Q62.25 36.85 62.9 37.4 63.75 38.05 64.35 39.4 65.05 40.75 65.15 41.9 65.25 44.2 65.0 45.1" fill="#6a9431" fill-rule="evenodd" stroke="none"/>
      <path d="M64.2 39.05 L65.05 41.2 64.65 41.95 Q64.1 42.8 62.5 42.5 60.95 42.2 61.6 41.2 62.2 40.25 62.1 39.4 62.0 38.6 61.25 38.2 60.7 37.95 60.8 37.3 L61.8 36.75 62.3 35.8 Q62.6 34.9 62.85 34.6 L62.5 35.65 Q62.25 36.85 62.9 37.4 63.6 37.95 64.2 39.05" fill="#658c2d" fill-rule="evenodd" stroke="none"/>
      <path d="M44.75 39.95 L44.9 40.25 46.4 44.75 Q47.15 46.9 49.35 48.75 L51.4 50.2 49.8 49.45 Q47.95 48.4 46.75 46.7 45.3 44.6 44.7 42.85 44.1 41.05 44.6 40.2 L44.75 39.95" fill="#8cc63f" fill-rule="evenodd" stroke="none"/>
      <path d="M65.0 44.65 Q64.35 46.8 62.45 48.4 60.35 50.2 57.4 50.45 54.3 50.75 52.3 50.45 L50.9 50.1 51.5 50.15 53.2 50.0 Q55.25 49.55 56.7 48.15 58.25 46.6 58.65 44.05 59.3 40.1 59.8 40.25 L60.45 40.55 61.15 40.65 61.65 40.15 Q62.0 39.65 62.55 39.6 L64.1 39.2 65.35 38.95 Q66.35 38.95 66.45 39.55 L66.4 40.45 66.0 40.3 65.55 40.1 Q65.3 40.1 65.25 40.35 L65.25 42.0 Q65.3 43.6 65.0 44.65" fill="#86c236" fill-rule="evenodd" stroke="none"/>
      <path d="M66.25 40.3 Q66.5 40.55 66.45 39.75 L66.7 42.0 66.4 41.25 65.95 40.15 66.25 40.3 M65.95 40.15 L65.8 40.1 Q65.55 40.1 65.5 40.35 L65.55 42.0 65.25 44.65 Q64.6 46.8 62.7 48.4 60.6 50.2 57.65 50.45 54.55 50.75 52.55 50.45 L51.15 50.1 51.8 50.15 53.45 50.0 Q55.55 49.55 56.95 48.15 58.5 46.6 58.9 44.05 59.25 41.8 59.8 41.55 L60.75 41.45 Q61.7 40.8 61.95 40.7 L62.7 40.2 Q63.35 39.7 63.9 39.6 L64.3 39.45 Q64.15 39.3 64.3 39.2 65.2 38.6 65.95 40.15" fill="#60872c" fill-rule="evenodd" stroke="none"/>
      <path d="M65.55 40.25 L65.5 40.35 65.55 42.0 65.25 44.65 Q64.6 46.8 62.7 48.4 60.6 50.2 57.65 50.45 L57.25 50.5 Q60.3 50.0 62.2 48.25 63.75 46.8 63.85 45.35 63.95 43.35 63.6 41.7 L63.25 40.5 63.25 40.4 63.65 40.05 64.55 39.7 Q65.05 39.55 65.5 39.7 L65.8 40.0 65.55 40.25" fill="#537526" fill-rule="evenodd" stroke="none"/>
    </g>
    <radialGradient cx="0" cy="0" gradientTransform="matrix(0.0088, 0.0, 0.0, -0.0088, 49.95, 42.55)" gradientUnits="userSpaceOnUse" id="gradient2" r="819.2" spreadMethod="pad">
      <stop offset="0.0" stop-color="#a9e858"/>
      <stop offset="1.0" stop-color="#77a63a"/>
    </radialGradient>
    <radialGradient cx="0" cy="0" gradientTransform="matrix(0.0098, 0.0, 0.0, -0.0098, 49.1, 42.15)" gradientUnits="userSpaceOnUse" id="gradient3" r="819.2" spreadMethod="pad">
      <stop offset="0.3254901960784314" stop-color="#a9e858"/>
      <stop offset="1.0" stop-color="#77a63a"/>
    </radialGradient>
    <g id="sprite1" transform="matrix(1.0, 0.0, 0.0, 1.0, 0.0, 0.0)">
      <use height="17.45" transform="matrix(1.0, 0.0, 0.0, 1.0, 0.0, 0.0)" width="11.65" xlink:href="#shape3"/>
    </g>
    <g id="shape3" transform="matrix(1.0, 0.0, 0.0, 1.0, 0.0, 0.0)">
      <path d="M10.3 8.15 Q9.6 9.15 8.85 9.05 L7.9 12.3 9.0 11.65 10.55 10.15 8.35 12.8 7.35 13.35 Q6.4 14.75 4.3 15.85 2.2 17.0 0.0 17.45 2.95 16.6 4.8 14.85 L6.6 13.05 Q4.8 12.95 3.6 12.0 2.85 11.4 2.4 10.5 L2.05 9.75 2.65 10.45 Q3.35 11.2 4.05 11.5 L6.95 12.25 7.7 10.45 8.1 9.0 Q5.75 8.65 4.75 7.65 L3.55 6.25 3.15 5.6 Q4.45 7.3 6.1 7.75 L8.15 8.15 8.15 5.65 8.1 4.8 Q6.55 4.8 5.7 4.2 L4.4 3.15 5.2 3.5 6.7 4.0 7.95 4.1 Q7.75 3.4 7.95 2.1 8.2 0.8 8.85 0.0 8.4 1.45 8.4 2.55 8.4 3.6 8.55 4.0 8.85 4.2 9.6 3.3 10.35 2.4 10.6 1.4 L9.95 3.45 Q9.5 4.5 8.7 4.7 L8.85 8.15 Q9.75 8.0 10.5 6.85 L11.65 4.55 Q11.0 7.1 10.3 8.15" fill="#000000" fill-rule="evenodd" stroke="none"/>
    </g>
    <g id="shape4" transform="matrix(1.0, 0.0, 0.0, 1.0, -16.05, -36.65)">
      <path d="M52.05 37.95 Q53.05 38.55 53.15 39.15 L53.15 39.6 53.05 40.35 Q52.9 40.45 52.55 39.9 L52.0 39.2 Q51.75 39.15 51.6 39.35 L51.35 39.75 50.85 39.85 50.15 39.2 49.85 38.65 49.45 38.2 48.75 37.95 48.35 37.95 48.15 38.05 47.6 37.9 Q47.2 37.65 47.0 37.55 46.55 37.35 46.05 37.8 L45.8 37.85 46.15 37.2 Q46.45 36.75 47.3 36.7 L48.1 36.7 48.85 37.0 49.75 37.2 50.9 37.4 52.05 37.95" fill="#94d142" fill-rule="evenodd" stroke="none"/>
      <path d="M63.9 49.9 Q60.85 51.5 58.5 50.85 L56.25 50.1 58.5 50.05 60.2 49.85 61.95 49.15 Q62.7 48.75 63.5 48.75 L64.85 48.65 66.5 48.15 63.9 49.9" fill="#39521a" fill-rule="evenodd" stroke="none"/>
      <path d="M40.05 48.65 Q40.7 47.35 41.85 46.25 L42.8 45.4 42.7 45.55 42.5 46.2 42.6 47.85 Q42.7 49.2 42.25 50.25 41.7 51.6 40.5 52.75 39.15 54.0 37.6 54.25 39.05 50.7 40.05 48.65" fill="#3c571c" fill-rule="evenodd" stroke="none"/>
      <path d="M41.8 53.05 L43.05 52.05 41.5 53.7 Q39.55 55.45 37.75 56.1 L31.9 56.6 Q28.15 56.4 29.75 56.05 L33.7 54.45 Q37.55 53.1 38.9 53.55 40.3 54.0 41.8 53.05" fill="#446120" fill-rule="evenodd" stroke="none"/>
      <path d="M16.7 51.7 Q19.3 53.4 20.9 53.35 L23.35 53.35 Q24.75 53.5 25.8 54.2 33.5 55.25 33.1 55.75 32.65 56.4 31.6 56.7 L25.95 57.05 Q24.05 57.0 22.35 56.3 19.15 55.0 17.05 52.2 L16.7 51.7" fill="#6e9c33" fill-rule="evenodd" stroke="none"/>
      <path d="M16.05 45.95 L17.95 49.65 Q20.3 53.6 22.45 55.15 23.75 56.05 27.0 56.65 L30.0 57.0 26.15 57.15 Q21.75 56.8 18.9 54.65 16.55 52.85 16.05 49.2 L16.05 45.95" fill="#6b9631" fill-rule="evenodd" stroke="none"/>
      <path d="M34.75 37.55 Q34.95 37.55 35.75 38.7 36.05 39.15 36.55 38.35 L36.7 38.7 37.25 38.8 38.25 37.95 37.7 39.4 Q37.2 40.9 37.25 41.2 37.3 41.7 35.1 41.85 32.9 41.95 32.45 41.45 L31.75 40.0 31.5 39.1 Q32.1 38.9 32.7 38.1 L33.4 37.05 34.15 37.1 34.75 37.55" fill="#6b9630" fill-rule="evenodd" stroke="none"/>
      <path d="M21.25 43.25 Q21.8 43.9 22.45 49.7 L22.95 55.4 Q22.4 55.35 21.65 54.8 20.15 53.65 19.2 51.2 L17.2 45.95 Q16.55 44.0 17.3 44.0 18.05 44.05 18.4 43.55 18.55 42.75 18.95 42.3 19.75 41.45 21.25 43.25" fill="#5c822a" fill-rule="evenodd" stroke="none"/>
      <path d="M21.7 40.95 Q21.9 40.2 22.7 39.3 24.3 37.6 27.2 37.2 30.8 36.7 33.45 37.8 36.15 38.95 37.1 41.45 38.3 44.4 36.55 48.3 34.7 52.6 31.0 52.7 26.9 52.85 23.6 48.75 20.3 44.6 21.7 40.95" fill="#89bf3f" fill-rule="evenodd" stroke="none"/>
      <path d="M35.75 41.65 L36.0 44.0 Q36.1 46.75 35.5 48.8 34.95 50.85 33.25 51.1 L27.9 51.45 Q24.75 51.8 24.0 49.75 L23.5 47.15 Q22.65 45.8 22.85 45.0 23.2 43.5 27.05 44.55 30.8 45.55 33.65 43.75 35.1 42.8 35.75 41.65" fill="#7bab38" fill-rule="evenodd" stroke="none"/>
      <path d="M22.9 39.25 L22.95 39.15 24.5 39.75 Q26.15 40.7 26.8 42.2 L27.25 43.45 28.1 45.65 Q29.25 47.95 30.7 48.65 31.4 49.0 32.1 48.05 L32.65 47.05 32.7 48.4 Q32.6 49.85 32.05 50.25 31.4 50.7 26.25 48.05 L21.2 45.4 21.95 42.4 22.9 39.25" fill="#689131" fill-rule="evenodd" stroke="none"/>
      <path d="M28.2 37.25 L28.65 37.15 29.4 37.05 30.15 37.1 28.95 37.35 28.55 37.45 29.4 37.8 29.9 38.1 29.9 38.0 Q30.05 37.8 30.8 37.6 L33.2 37.65 31.2 37.7 30.6 38.1 30.3 38.35 31.15 38.95 31.65 39.35 31.95 39.0 Q32.4 38.6 32.95 38.5 L35.0 38.6 34.05 38.6 32.8 38.85 32.55 39.45 32.55 39.65 33.3 39.9 Q34.15 40.45 34.55 41.65 34.95 42.85 34.5 44.3 L33.9 45.55 Q34.2 43.8 33.85 42.25 33.6 41.05 33.1 40.55 L32.4 40.05 32.05 39.9 29.35 39.95 Q28.55 40.05 27.55 40.65 L26.7 41.25 27.25 40.75 Q27.9 40.15 28.45 39.9 29.35 39.4 31.3 39.5 L30.35 38.8 29.75 38.5 28.55 38.65 Q27.2 38.9 26.5 39.5 L24.8 41.0 Q25.25 40.1 26.2 39.35 27.25 38.55 29.4 38.15 L28.15 37.75 Q27.6 37.7 26.5 38.15 25.1 38.75 24.6 39.65 L24.0 40.95 23.9 41.05 Q23.9 40.7 24.4 39.7 25.0 38.5 25.65 38.15 L27.6 37.55 25.85 37.5 25.4 37.6 26.3 37.35 27.9 37.2 28.2 37.25" fill="#a5e64c" fill-rule="evenodd" stroke="none"/>
      <path d="M18.8 39.35 L18.85 39.2 19.25 38.35 Q19.6 37.95 20.4 37.8 21.15 37.65 21.95 38.35 L24.05 39.85 Q25.65 40.55 26.55 42.6 L27.5 45.4 Q28.15 46.7 29.25 48.0 30.5 49.5 31.9 50.2 33.15 50.8 33.5 53.0 33.75 54.65 35.95 54.4 L34.95 55.05 Q33.6 55.8 31.55 56.3 L27.45 56.6 Q22.9 56.4 20.85 54.05 18.2 51.0 18.55 46.9 18.7 44.85 19.95 41.65 L20.85 39.6 Q21.0 39.2 20.45 38.75 20.0 38.45 19.65 38.5 L19.1 38.85 18.8 39.35" fill="url(#gradient4)" fill-rule="evenodd" stroke="none"/>
      <path d="M19.45 44.9 L19.45 44.5 19.6 45.25 20.0 46.1 20.15 45.55 20.3 44.35 20.25 46.45 21.0 47.25 21.9 47.9 22.05 46.75 22.3 45.4 Q21.05 44.7 20.75 43.65 L20.5 42.55 20.5 42.2 20.55 42.85 21.2 44.2 Q21.9 45.1 22.4 45.0 L22.7 43.6 23.35 42.4 23.85 41.6 23.5 42.45 23.0 43.8 22.8 45.0 23.2 44.95 24.0 44.7 25.8 43.35 24.6 44.7 Q23.7 45.55 22.7 45.45 L22.45 48.05 24.0 47.6 25.25 46.9 25.4 45.55 Q25.45 45.25 25.65 44.9 L25.8 44.65 25.7 45.45 Q25.7 46.05 25.85 46.45 L26.55 46.0 27.35 45.3 Q26.85 46.35 24.95 47.4 23.05 48.45 22.4 48.5 L22.45 49.85 Q22.45 50.75 23.0 52.4 L25.6 52.05 Q27.15 51.65 27.6 51.15 L27.6 50.05 27.7 49.15 27.8 48.6 27.95 49.75 Q28.1 50.55 28.5 50.8 L30.5 49.15 29.7 50.3 27.35 52.3 Q26.05 53.05 24.55 53.25 L23.25 53.3 23.5 53.75 24.4 54.9 Q25.35 55.95 27.5 56.35 L26.1 56.4 Q25.25 56.4 24.35 55.9 L23.15 54.45 22.65 53.35 21.6 52.6 Q20.5 51.6 19.9 50.5 19.25 49.45 19.05 48.1 L18.9 46.95 19.2 48.3 Q19.4 49.1 19.9 49.6 L19.95 48.6 20.0 47.7 19.95 47.4 20.15 47.75 20.35 48.7 20.15 50.1 20.65 50.75 22.4 52.45 22.1 51.6 21.8 49.7 21.75 48.4 Q20.25 47.35 19.8 46.2 L19.45 44.9" fill="url(#gradient5)" fill-rule="evenodd" stroke="none"/>
      <path d="M40.5 50.35 Q39.7 52.9 36.55 54.0 33.55 55.15 29.1 55.8 L25.3 56.3 Q26.55 56.1 27.95 55.1 30.85 53.1 31.85 49.25 32.65 46.1 32.65 43.85 L32.65 42.05 33.4 41.5 35.05 41.25 Q36.15 41.1 36.7 40.55 L37.4 39.2 Q37.75 38.15 38.25 37.95 L37.65 39.2 Q37.25 40.6 38.05 41.25 39.0 42.05 39.8 43.6 40.6 45.2 40.65 46.55 40.85 49.2 40.5 50.35" fill="#90cc3f" fill-rule="evenodd" stroke="none"/>
      <path d="M40.8 50.35 Q40.05 52.9 36.9 54.0 33.85 55.15 29.45 55.8 L25.65 56.3 Q26.85 56.1 28.3 55.1 31.15 53.1 32.1 49.25 32.95 46.1 32.95 43.85 L32.95 42.05 33.7 41.5 35.35 41.25 Q36.5 41.1 36.95 40.6 L37.6 39.4 38.25 37.95 37.8 39.2 Q37.55 40.6 38.35 41.25 39.3 42.05 40.1 43.6 40.85 45.2 40.95 46.55 41.15 49.2 40.8 50.35" fill="#6a9431" fill-rule="evenodd" stroke="none"/>
      <path d="M39.85 43.2 Q40.6 44.5 40.85 45.75 L40.4 46.65 Q39.75 47.6 37.9 47.25 36.0 46.9 36.75 45.75 37.55 44.65 37.4 43.6 37.3 42.65 36.4 42.2 35.8 41.9 35.9 41.15 L37.05 40.5 37.6 39.4 38.25 37.95 37.8 39.2 Q37.55 40.6 38.35 41.25 39.15 41.9 39.85 43.2" fill="#658c2d" fill-rule="evenodd" stroke="none"/>
      <path d="M16.9 44.25 L17.1 44.6 18.85 49.9 Q19.75 52.5 22.35 54.65 L24.75 56.3 22.85 55.45 Q20.7 54.2 19.3 52.2 17.55 49.75 16.85 47.7 16.15 45.6 16.75 44.55 L16.9 44.25" fill="#8cc63f" fill-rule="evenodd" stroke="none"/>
      <path d="M40.8 49.8 Q40.05 52.35 37.8 54.2 35.3 56.35 31.85 56.65 28.2 57.0 25.8 56.65 L24.15 56.25 26.9 56.1 Q29.35 55.6 31.0 53.95 32.85 52.1 33.35 49.1 34.05 44.45 34.7 44.65 L35.45 44.95 36.3 45.1 36.85 44.45 Q37.3 43.9 37.95 43.85 L39.05 43.65 Q39.4 43.6 39.7 43.35 40.2 43.05 41.2 43.05 42.4 43.1 42.55 43.8 L42.45 44.9 42.0 44.7 41.45 44.5 Q41.15 44.45 41.1 44.75 L41.15 46.65 Q41.2 48.55 40.8 49.8" fill="#86c236" fill-rule="evenodd" stroke="none"/>
      <path d="M41.1 49.8 Q40.35 52.35 38.1 54.2 35.6 56.35 32.15 56.65 28.55 57.0 26.15 56.65 L24.45 56.25 27.2 56.1 Q29.65 55.6 31.3 53.95 33.15 52.1 33.65 49.1 34.35 44.45 35.0 44.65 L35.75 44.95 36.55 45.1 37.15 44.45 Q37.6 43.9 38.25 43.85 L39.35 43.65 40.0 43.35 41.4 43.05 Q42.45 43.1 42.55 43.8 L42.6 44.8 42.3 44.7 41.75 44.5 41.4 44.75 41.45 46.65 Q41.5 48.55 41.1 49.8" fill="#60872c" fill-rule="evenodd" stroke="none"/>
      <path d="M41.4 44.75 L41.45 46.65 Q41.5 48.55 41.1 49.8 40.35 52.35 38.1 54.2 35.6 56.35 32.15 56.65 L31.65 56.7 Q35.25 56.1 37.55 54.0 39.35 52.3 39.45 50.65 39.55 48.25 39.05 46.25 L38.55 44.7 39.25 44.4 39.9 44.35 40.65 44.45 41.5 44.55 41.4 44.75" fill="#537526" fill-rule="evenodd" stroke="none"/>
    </g>
    <radialGradient cx="0" cy="0" gradientTransform="matrix(0.0109, 0.0, 0.0, -0.0109, 23.25, 45.65)" gradientUnits="userSpaceOnUse" id="gradient4" r="819.2" spreadMethod="pad">
      <stop offset="0.0" stop-color="#a9e858"/>
      <stop offset="1.0" stop-color="#77a63a"/>
    </radialGradient>
    <radialGradient cx="0" cy="0" gradientTransform="matrix(0.0115, 0.0, 0.0, -0.0115, 22.05, 46.85)" gradientUnits="userSpaceOnUse" id="gradient5" r="819.2" spreadMethod="pad">
      <stop offset="0.3254901960784314" stop-color="#a9e858"/>
      <stop offset="1.0" stop-color="#77a63a"/>
    </radialGradient>
    <g id="sprite2" transform="matrix(1.0, 0.0, 0.0, 1.0, 0.0, 0.0)">
      <use height="20.55" transform="matrix(1.0, 0.0, 0.0, 1.0, 0.0, 0.0)" width="13.75" xlink:href="#shape5"/>
    </g>
    <g id="shape5" transform="matrix(1.0, 0.0, 0.0, 1.0, 0.0, 0.0)">
      <path d="M10.25 5.55 L10.35 8.3 10.45 9.6 Q11.5 9.45 12.4 8.1 L13.75 5.35 Q13.0 8.4 12.15 9.6 11.35 10.85 10.45 10.7 L9.35 14.5 Q9.1 14.95 10.65 13.75 L12.5 11.95 Q10.65 14.5 9.85 15.1 L8.65 15.75 Q7.55 17.4 5.1 18.7 2.6 20.05 0.0 20.55 3.5 19.6 5.65 17.5 L7.85 15.4 Q5.65 15.3 4.25 14.15 3.4 13.45 2.8 12.4 L2.4 11.55 3.1 12.35 Q3.95 13.2 4.75 13.55 6.05 14.15 8.2 14.45 L9.1 12.35 9.55 10.65 Q6.8 10.2 5.6 9.05 L4.25 7.4 3.75 6.65 Q5.3 8.6 7.2 9.2 L9.6 9.6 9.6 6.7 9.55 5.7 Q7.75 5.7 6.75 5.0 L5.2 3.7 6.1 4.15 Q7.2 4.65 7.9 4.75 L9.4 4.85 Q9.15 4.05 9.4 2.5 9.65 0.95 10.45 0.0 9.95 1.75 9.95 3.0 9.95 4.3 10.1 4.75 10.45 5.0 11.35 3.9 L12.55 1.65 Q12.35 2.9 11.75 4.1 11.2 5.3 10.25 5.55" fill="#000000" fill-rule="evenodd" stroke="none"/>
    </g>
    <g id="shape6" transform="matrix(1.0, 0.0, 0.0, 1.0, -18.55, -37.7)">
      <path d="M19.4 37.9 L20.9 37.75 21.75 38.05 22.5 38.7 23.4 39.3 24.6 39.95 25.7 41.0 Q26.3 41.7 26.5 42.35 26.75 43.05 26.5 42.75 L26.3 43.25 25.95 44.0 Q25.7 44.1 25.6 43.35 25.4 42.5 25.2 42.4 24.95 42.25 24.55 42.95 L24.0 43.95 Q23.75 44.15 23.4 43.65 L22.95 42.55 22.9 41.35 22.75 40.3 Q22.5 40.0 22.05 39.8 L21.55 39.6 21.35 39.6 20.75 39.5 20.1 39.05 Q19.9 38.85 19.4 39.3 L18.75 39.85 Q18.45 40.0 18.65 39.15 18.8 38.3 19.4 37.9" fill="#94d142" fill-rule="evenodd" stroke="none"/>
      <path d="M20.45 38.75 Q20.45 39.05 20.85 39.35 L21.45 39.6 21.35 39.6 20.75 39.5 20.1 39.05 Q19.9 38.85 19.4 39.3 L18.75 39.85 Q18.55 39.95 18.6 39.4 L19.25 39.05 19.75 38.55 20.1 38.5 20.45 38.75" fill="#7db038" fill-rule="evenodd" stroke="none"/>
      <path d="M25.65 43.65 L26.0 43.2 26.45 42.2 26.6 42.7 Q26.6 42.9 26.5 42.75 L26.3 43.25 25.95 44.0 Q25.7 44.1 25.65 43.65" fill="#7db038" fill-rule="evenodd" stroke="none"/>
      <path d="M24.2 42.9 Q24.4 42.35 24.8 42.15 25.15 41.9 25.2 42.4 24.95 42.25 24.55 42.95 L24.0 43.95 Q23.85 44.15 23.5 43.75 L23.9 43.6 24.2 42.9" fill="#7db038" fill-rule="evenodd" stroke="none"/>
      <path d="M20.1 37.8 L20.4 37.8 21.2 38.4 Q21.35 38.65 22.65 39.15 L23.15 39.5 23.3 39.9 23.65 40.25 24.1 40.5 Q24.75 41.0 25.1 40.95 25.35 40.95 25.7 41.75 L25.35 41.25 24.9 41.15 24.35 40.95 24.0 40.65 23.5 40.5 23.0 40.15 22.8 39.6 Q22.65 39.2 21.2 38.8 L20.85 38.45 20.5 38.1 20.1 37.8" fill="#c1fa73" fill-rule="evenodd" stroke="none"/>
      <path d="M57.4 58.9 Q58.9 59.35 60.55 58.35 L61.95 57.25 60.2 59.05 Q58.1 60.95 56.1 61.65 L49.8 62.2 Q45.75 62.0 47.5 61.6 L51.75 59.9 Q55.9 58.4 57.4 58.9" fill="#446120" fill-rule="evenodd" stroke="none"/>
      <path d="M40.5 58.65 Q42.05 58.85 43.15 59.6 51.55 60.75 51.1 61.3 L49.45 62.3 43.3 62.7 Q41.45 62.7 39.4 61.85 36.0 60.5 33.65 57.4 L33.25 56.85 34.9 57.8 Q36.75 58.75 37.85 58.65 L40.5 58.65" fill="#6e9c33" fill-rule="evenodd" stroke="none"/>
      <path d="M60.6 50.95 L61.65 50.0 61.5 50.2 61.3 50.9 61.45 52.7 Q61.5 54.2 61.1 55.3 60.5 56.8 59.15 58.05 57.65 59.4 56.0 59.65 57.55 55.75 58.65 53.55 59.35 52.2 60.6 50.95" fill="#3c571c" fill-rule="evenodd" stroke="none"/>
      <path d="M33.0 54.05 L34.1 56.6 Q35.6 59.45 37.95 61.1 39.4 62.1 42.0 62.55 L44.35 62.75 41.35 62.6 Q37.95 62.0 35.65 60.05 33.2 58.0 32.9 55.8 L33.0 54.05" fill="#83b83c" fill-rule="evenodd" stroke="none"/>
      <path d="M52.2 41.05 L52.9 41.5 53.5 41.3 54.3 41.4 54.85 42.4 55.0 42.8 55.6 42.9 56.7 41.95 56.1 43.5 55.6 45.5 Q55.7 46.0 53.3 46.15 50.9 46.3 50.4 45.75 50.05 45.25 49.65 44.15 L49.35 43.15 50.65 42.1 51.45 40.95 Q51.65 40.65 52.2 41.05" fill="#6b9630" fill-rule="evenodd" stroke="none"/>
      <path d="M38.25 47.7 Q38.85 48.4 39.5 54.75 L40.05 60.9 Q39.45 60.85 38.65 60.2 37.05 59.0 36.0 56.35 34.7 52.9 34.5 49.9 34.25 47.0 35.25 47.05 36.05 47.1 36.0 47.35 L36.65 46.85 Q37.4 46.6 38.25 47.7" fill="#5c822a" fill-rule="evenodd" stroke="none"/>
      <path d="M40.8 53.65 Q37.15 49.15 38.7 45.2 L39.8 43.45 Q41.55 41.55 44.7 41.15 48.6 40.6 51.45 41.8 54.4 43.0 55.45 45.75 56.7 48.95 54.9 53.2 52.85 57.85 48.8 58.0 44.4 58.1 40.8 53.65" fill="#89bf3f" fill-rule="evenodd" stroke="none"/>
      <path d="M40.35 42.95 L41.65 43.8 Q43.25 44.7 45.0 44.9 L48.55 45.55 48.55 47.4 Q48.6 49.35 48.95 50.1 49.5 51.3 50.65 51.8 L50.65 53.3 Q50.6 54.9 49.95 55.35 49.3 55.75 43.65 52.95 L38.15 50.05 39.0 46.8 40.0 43.35 40.35 42.95" fill="#689131" fill-rule="evenodd" stroke="none"/>
      <path d="M52.15 42.6 Q51.05 42.6 50.8 42.95 L50.55 43.55 50.5 43.8 51.3 44.05 Q52.2 44.65 52.7 45.95 53.15 47.25 52.6 48.85 L51.95 50.2 Q52.35 48.25 51.95 46.6 51.65 45.3 51.1 44.75 L50.35 44.2 50.0 44.0 47.0 44.1 Q46.15 44.2 45.1 44.9 L44.2 45.55 44.75 44.95 46.05 44.0 49.15 43.6 48.1 42.9 47.45 42.55 46.15 42.7 Q44.7 42.95 43.95 43.6 L42.1 45.25 42.45 44.65 43.65 43.45 Q44.7 42.6 47.05 42.15 L45.75 41.75 Q45.1 41.7 43.95 42.2 42.4 42.8 41.9 43.8 L41.2 45.2 41.1 45.3 Q41.1 44.9 41.65 43.85 42.3 42.5 43.05 42.15 44.2 41.6 45.15 41.5 L43.2 41.45 42.75 41.55 43.7 41.3 45.45 41.15 45.8 41.2 46.2 41.1 47.05 40.95 47.9 41.0 46.15 41.35 47.6 42.1 47.6 41.95 48.6 41.55 51.25 41.6 49.05 41.7 48.4 42.1 48.05 42.4 49.0 43.0 49.55 43.5 49.9 43.1 Q50.3 42.65 50.95 42.55 L53.15 42.65 52.15 42.6" fill="#a5e64c" fill-rule="evenodd" stroke="none"/>
      <path d="M50.7 56.9 Q51.6 60.05 54.2 59.8 L53.15 60.55 Q51.65 61.4 49.4 61.9 L44.95 62.2 Q40.05 62.0 37.8 59.45 34.9 56.1 35.25 51.65 35.45 49.5 36.8 45.95 L37.75 43.75 Q37.95 43.25 37.35 42.8 36.45 42.15 35.9 42.9 L35.55 43.45 35.6 43.3 36.05 42.35 Q36.45 41.9 37.3 41.75 38.1 41.6 39.0 42.4 L41.3 43.95 Q44.05 45.25 48.0 45.7 47.75 45.65 48.05 48.3 48.3 51.1 49.05 52.0 49.65 52.7 50.05 54.2 L50.7 56.9" fill="url(#gradient6)" fill-rule="evenodd" stroke="none"/>
      <path d="M41.1 45.9 L40.65 46.85 40.1 48.3 39.9 49.6 40.35 49.5 41.2 49.25 43.15 47.8 41.85 49.25 Q40.85 50.2 39.8 50.1 L39.5 52.9 40.0 52.85 41.2 52.45 42.55 51.65 42.75 50.2 42.95 49.5 43.15 49.2 43.1 50.1 Q43.1 50.75 43.25 51.15 L43.95 50.7 44.85 49.9 44.35 50.65 42.25 52.25 Q40.2 53.4 39.5 53.45 L39.55 54.85 Q39.55 55.85 40.15 57.65 L40.9 57.65 42.95 57.3 Q44.6 56.85 45.15 56.3 L45.1 55.05 45.25 54.1 45.35 53.55 45.55 54.8 Q45.65 55.65 46.15 55.9 L46.4 55.65 48.3 54.1 47.4 55.35 Q46.3 56.8 44.85 57.55 43.45 58.3 41.75 58.55 L40.4 58.65 40.65 59.1 41.65 60.4 Q42.3 61.1 43.75 61.6 L45.05 61.95 43.5 62.0 Q42.55 62.0 41.6 61.4 41.0 61.05 40.3 59.85 L39.75 58.65 38.65 57.85 Q37.4 56.8 36.75 55.6 36.1 54.4 35.8 52.95 L35.65 51.7 36.0 53.2 Q36.2 54.05 36.75 54.6 L36.85 53.45 36.85 52.5 36.8 52.2 37.0 52.55 37.25 53.65 37.05 55.2 37.55 55.85 39.5 57.7 39.15 56.8 38.85 54.7 38.8 53.3 Q37.1 52.15 36.65 50.9 L36.3 49.5 36.3 49.05 36.4 49.85 36.9 50.8 37.05 50.2 37.2 48.85 37.1 51.15 37.95 52.05 38.9 52.75 39.05 51.5 39.35 50.05 Q38.0 49.3 37.65 48.15 L37.4 46.95 37.4 46.6 37.5 47.25 Q37.65 48.1 38.15 48.7 38.9 49.7 39.45 49.6 L39.8 48.1 40.5 46.75 41.1 45.9" fill="url(#gradient7)" fill-rule="evenodd" stroke="none"/>
      <path d="M55.75 43.3 Q56.0 42.55 56.4 42.2 L56.7 41.95 56.1 43.3 Q55.65 44.8 56.5 45.55 57.55 46.4 58.4 48.05 59.2 49.75 59.3 51.3 59.5 54.15 59.15 55.4 58.3 58.2 54.9 59.45 51.6 60.6 46.8 61.4 L42.65 61.9 Q44.0 61.65 45.55 60.55 48.65 58.4 49.7 54.2 50.6 50.8 50.6 48.4 L50.65 46.35 51.45 45.8 53.25 45.55 Q54.45 45.35 55.0 44.75 L55.75 43.3" fill="#90cc3f" fill-rule="evenodd" stroke="none"/>
      <path d="M56.0 43.5 L56.7 41.95 56.25 43.3 Q55.95 44.8 56.8 45.55 57.85 46.4 58.7 48.05 59.55 49.75 59.65 51.3 59.85 54.2 59.45 55.4 58.6 58.2 55.2 59.45 51.9 60.6 47.1 61.4 L42.95 61.9 Q44.3 61.65 45.85 60.55 48.95 58.4 50.05 54.2 50.95 50.8 50.9 48.4 L50.95 46.35 Q51.25 45.95 51.75 45.8 L53.55 45.55 Q54.75 45.35 55.25 44.85 L56.0 43.5" fill="#6a9431" fill-rule="evenodd" stroke="none"/>
      <path d="M56.7 41.95 L56.25 43.3 Q55.95 44.8 56.8 45.55 57.7 46.3 58.45 47.65 L59.5 50.4 59.0 51.35 Q58.3 52.45 56.3 52.05 54.3 51.65 55.1 50.45 55.95 49.2 55.8 48.1 55.65 47.05 54.7 46.6 54.0 46.25 54.15 45.4 55.0 45.2 55.4 44.7 L56.0 43.5 56.7 41.95" fill="#658c2d" fill-rule="evenodd" stroke="none"/>
      <path d="M33.8 47.2 Q34.35 46.5 34.5 46.55 L34.75 47.6 Q35.05 51.95 35.65 54.95 36.2 57.85 39.2 60.15 40.7 61.3 42.05 61.9 L40.0 60.95 Q37.65 59.6 36.1 57.4 34.3 54.9 33.6 51.55 32.9 48.3 33.8 47.2" fill="#8cc63f" fill-rule="evenodd" stroke="none"/>
      <path d="M59.85 51.4 Q59.9 53.5 59.5 54.85 58.65 57.6 56.25 59.65 53.5 61.95 49.75 62.3 45.8 62.65 43.25 62.3 L41.4 61.8 42.2 61.85 44.35 61.65 Q47.05 61.15 48.85 59.35 50.85 57.3 51.35 54.05 52.15 49.0 52.85 49.2 L53.65 49.55 54.55 49.7 55.2 49.0 Q55.7 48.45 56.35 48.35 L57.6 48.15 58.3 47.85 Q58.8 47.45 59.95 47.5 61.25 47.5 61.35 48.3 61.5 49.35 61.3 49.5 L60.75 49.3 60.2 49.0 59.8 49.3 59.85 51.4" fill="#86c236" fill-rule="evenodd" stroke="none"/>
      <path d="M60.2 51.4 Q60.2 53.5 59.8 54.85 59.0 57.6 56.55 59.65 53.8 61.95 50.05 62.3 46.15 62.65 43.55 62.3 L41.7 61.8 42.55 61.85 44.7 61.65 Q47.35 61.15 49.15 59.35 51.15 57.3 51.7 54.05 52.5 49.0 53.15 49.2 L53.95 49.55 54.85 49.7 55.5 49.0 56.7 48.35 57.9 48.15 58.6 47.85 Q59.15 47.45 60.15 47.5 61.25 47.5 61.35 48.3 L61.4 49.35 61.1 49.3 60.55 49.0 Q60.2 49.0 60.15 49.3 L60.2 51.4" fill="#60872c" fill-rule="evenodd" stroke="none"/>
      <path d="M60.15 49.3 L60.2 51.4 Q60.2 53.5 59.8 54.85 59.0 57.6 56.55 59.65 53.8 61.95 50.05 62.3 L49.55 62.35 Q53.45 61.7 55.9 59.45 57.9 57.55 58.0 55.75 58.1 53.15 57.6 50.95 L57.05 49.3 57.8 48.95 58.5 48.85 59.35 49.0 60.2 49.15 60.15 49.3" fill="#537526" fill-rule="evenodd" stroke="none"/>
    </g>
    <radialGradient cx="0" cy="0" gradientTransform="matrix(0.0119, 0.0, 0.0, -0.0119, 40.4, 50.35)" gradientUnits="userSpaceOnUse" id="gradient6" r="819.2" spreadMethod="pad">
      <stop offset="0.0" stop-color="#a9e858"/>
      <stop offset="1.0" stop-color="#77a63a"/>
    </radialGradient>
    <radialGradient cx="0" cy="0" gradientTransform="matrix(0.0125, 0.0, 0.0, -0.0125, 39.15, 51.6)" gradientUnits="userSpaceOnUse" id="gradient7" r="819.2" spreadMethod="pad">
      <stop offset="0.3254901960784314" stop-color="#a9e858"/>
      <stop offset="1.0" stop-color="#77a63a"/>
    </radialGradient>
    <g id="sprite3" transform="matrix(1.0, 0.0, 0.0, 1.0, 0.0, 0.0)">
      <use height="22.35" transform="matrix(1.0, 0.0, 0.0, 1.0, 0.0, 0.0)" width="14.95" xlink:href="#shape7"/>
    </g>
    <g id="shape7" transform="matrix(1.0, 0.0, 0.0, 1.0, 0.0, 0.0)">
      <path d="M11.35 0.0 Q10.8 1.85 10.8 3.25 L11.0 5.1 Q11.35 5.4 12.3 4.2 13.25 3.05 13.6 1.8 13.4 3.1 12.8 4.4 12.15 5.75 11.1 6.0 L11.25 9.0 11.35 10.45 Q12.5 10.25 13.5 8.75 L14.95 5.8 Q14.1 9.1 13.2 10.45 12.3 11.75 11.35 11.6 L10.15 15.75 Q9.9 16.25 11.55 14.95 L13.8 12.7 Q11.65 15.75 10.7 16.4 L9.4 17.05 Q8.2 18.85 5.5 20.3 2.8 21.75 0.0 22.35 3.8 21.3 6.15 19.0 L8.5 16.75 Q6.15 16.6 4.6 15.35 3.65 14.55 3.05 13.45 L2.6 12.5 3.35 13.4 5.15 14.7 Q6.55 15.35 8.9 15.65 L9.9 13.4 10.35 11.55 Q7.4 11.05 6.05 9.8 L4.55 8.05 4.05 7.2 Q5.75 9.35 7.8 9.95 L10.45 10.45 10.45 7.25 10.35 6.15 Q8.45 6.15 7.3 5.4 L6.05 4.4 5.65 4.0 6.65 4.5 Q7.75 5.0 8.55 5.1 L10.2 5.25 Q9.95 4.35 10.2 2.7 10.5 1.05 11.35 0.0" fill="#000000" fill-rule="evenodd" stroke="none"/>
    </g>
    <g id="shape8" transform="matrix(1.0, 0.0, 0.0, 1.0, -35.55, -41.6)">
      <path d="M40.85 43.6 L42.45 44.3 48.0 45.7 47.4 46.15 Q46.75 46.9 46.45 48.4 46.2 49.45 45.75 49.5 L45.35 49.3 Q44.6 49.0 44.7 48.1 L44.95 47.25 44.4 48.05 43.95 48.75 Q43.55 49.05 42.6 49.15 41.7 49.25 41.3 47.4 L40.9 45.25 Q40.7 44.9 39.9 44.8 L38.5 44.75 Q37.95 44.85 37.6 44.05 L37.4 43.25 Q37.05 43.25 36.5 43.8 36.15 44.2 35.85 44.2 L35.7 44.2 Q35.5 43.85 35.6 43.3 35.65 42.7 35.85 42.35 36.15 41.85 36.8 41.7 38.2 41.3 39.45 42.6 L40.85 43.6" fill="#94d142" fill-rule="evenodd" stroke="none"/>
      <path d="M37.45 42.75 L37.4 43.25 Q37.05 43.25 36.5 43.8 36.15 44.2 35.85 44.2 L35.7 44.2 35.6 43.8 36.25 43.5 Q37.05 42.8 37.45 42.75" fill="#7db038" fill-rule="evenodd" stroke="none"/>
      <path d="M46.5 46.8 L47.25 46.05 Q47.7 45.7 47.9 45.75 L47.2 46.4 Q46.65 47.15 46.45 48.4 46.2 49.45 45.75 49.5 L45.35 49.3 Q44.7 49.0 44.7 48.25 44.8 49.15 45.55 49.0 45.85 48.9 45.95 48.1 46.1 47.15 46.5 46.8" fill="#7db038" fill-rule="evenodd" stroke="none"/>
      <path d="M40.4 44.6 Q40.95 44.9 40.9 45.25 40.7 44.9 39.9 44.8 L38.5 44.75 37.95 44.55 38.6 44.45 39.4 44.35 40.4 44.6" fill="#7db038" fill-rule="evenodd" stroke="none"/>
      <path d="M44.35 47.25 L45.3 46.5 45.1 46.8 44.8 47.5 44.4 48.05 43.95 48.7 42.75 49.15 43.45 48.65 43.95 47.9 44.35 47.25" fill="#7db038" fill-rule="evenodd" stroke="none"/>
      <path d="M40.85 43.95 L41.45 44.45 41.95 44.8 42.7 44.8 43.5 45.0 44.0 45.35 44.45 45.7 45.05 45.85 45.55 45.9 46.05 46.35 45.65 46.05 44.55 45.9 43.95 45.65 43.4 45.15 Q43.25 44.9 42.7 44.95 L41.75 45.0 Q41.45 45.0 41.0 44.55 L40.45 44.0 39.7 43.6 38.85 43.4 38.25 43.05 37.85 42.5 Q37.55 42.1 36.75 42.2 L36.25 42.25 Q36.5 42.0 36.9 41.9 L37.55 42.05 Q38.15 42.25 38.45 42.8 L38.75 43.15 39.25 43.25 Q40.05 43.4 40.85 43.95" fill="#c1fa73" fill-rule="evenodd" stroke="none"/>
    </g>
  </defs>
</svg>
