<?xml version="1.0" encoding="UTF-8" standalone="no"?>
<svg xmlns:xlink="http://www.w3.org/1999/xlink" height="103.05px" width="810.8px" xmlns="http://www.w3.org/2000/svg">
  <g transform="matrix(1.0, 0.0, 0.0, 1.0, 0.0, 0.0)">
    <use height="103.05" transform="matrix(1.0, 0.0, 0.0, 1.0, 0.0, 0.0)" width="810.8" xlink:href="#shape0"/>
  </g>
  <defs>
    <g id="shape0" transform="matrix(1.0, 0.0, 0.0, 1.0, 0.0, 0.0)">
      <path d="M810.45 18.4 L794.05 18.85 661.75 19.15 686.4 18.0 Q695.85 17.75 714.0 17.75 L736.75 18.25 Q745.5 18.5 768.1 17.5 L799.8 16.05 810.45 15.6 810.45 18.4" fill="url(#gradient0)" fill-rule="evenodd" stroke="none"/>
      <path d="M810.45 15.6 L799.8 16.05 768.1 17.5 Q745.5 18.5 736.75 18.25 L714.0 17.75 Q695.85 17.75 686.4 18.0 L661.75 19.15 794.05 18.85 810.45 18.4 810.45 18.85 446.3 19.65 441.1 19.7 440.7 19.7 Q415.25 18.55 398.7 18.45 L371.3 18.6 324.8 18.6 314.6 19.15 307.75 20.75 308.2 20.8 168.0 21.8 155.5 21.8 Q185.55 20.75 201.85 20.75 L238.5 20.5 267.45 20.25 281.95 19.6 295.5 17.75 304.15 16.65 310.05 15.9 318.4 15.3 357.0 15.75 391.65 16.4 422.85 17.2 462.55 18.35 510.8 18.85 Q544.75 19.2 561.65 18.5 L583.4 16.95 598.05 16.0 608.2 15.5 610.8 15.3 622.65 14.05 602.75 14.05 583.9 15.5 554.1 17.2 Q538.45 17.9 521.4 17.6 502.2 17.1 491.05 16.95 L460.4 16.05 451.65 15.75 414.65 14.55 Q464.5 13.9 637.2 14.05 L810.45 14.35 810.45 15.6 M322.45 20.65 Q327.2 20.25 338.15 20.25 L349.65 20.35 322.45 20.65 M305.25 15.05 L293.55 16.1 286.3 16.6 276.85 17.9 253.45 18.85 223.75 19.0 195.45 19.15 Q175.3 19.3 157.9 19.95 L114.55 21.6 107.7 21.8 66.75 21.8 52.8 21.3 Q30.5 20.65 8.5 21.8 L0.65 21.8 0.55 21.8 0.0 21.8 3.85 18.65 12.65 18.3 Q25.5 18.15 43.4 18.5 L78.9 19.15 Q98.7 19.3 125.8 18.6 L159.8 17.2 183.75 15.95 211.85 14.9 305.25 15.05 M173.95 14.8 L149.6 16.4 Q123.6 18.3 91.25 18.0 L47.7 16.95 7.5 15.7 7.95 15.3 12.0 15.3 13.05 15.3 31.05 15.15 37.6 15.1 44.7 15.05 54.6 15.05 64.9 15.0 Q80.55 15.0 102.9 14.5 L173.95 14.8 M47.35 6.15 L47.75 5.8 19.4 5.95 24.8 1.55 28.05 1.55 47.05 1.85 52.55 2.05 52.85 1.85 47.35 6.15 M17.7 7.35 L45.8 7.35 42.5 9.9 22.2 10.1 14.6 9.9 17.7 7.35 M13.0 11.2 L40.75 11.25 41.15 10.95 38.5 13.05 16.0 12.3 11.85 12.15 13.0 11.2" fill="url(#gradient1)" fill-rule="evenodd" stroke="none"/>
      <path d="M800.4 23.5 L800.15 23.7 796.75 25.9 Q793.15 27.8 786.8 28.25 L776.35 29.05 Q770.0 30.05 768.1 33.2 L765.25 41.95 Q763.15 41.5 763.35 38.4 763.6 34.35 763.3 33.7 762.5 32.0 760.0 31.0 758.65 30.45 755.65 29.85 756.2 25.15 749.75 23.5 L800.4 23.5" fill="#454138" fill-rule="evenodd" stroke="none"/>
      <path d="M749.75 23.5 Q756.2 25.15 755.65 29.85 758.65 30.45 760.0 31.0 762.5 32.0 763.3 33.7 763.6 34.35 763.35 38.4 763.15 41.5 765.25 41.95 L768.1 33.2 Q770.0 30.05 776.35 29.05 L786.8 28.25 Q793.15 27.8 796.75 25.9 L800.15 23.7 800.4 23.5 810.5 23.5 810.25 21.2 810.45 21.2 810.6 21.2 810.6 69.4 Q807.6 67.55 803.65 67.1 L803.3 63.1 802.5 59.25 Q801.4 61.4 802.15 64.3 802.95 67.5 802.65 68.5 801.9 70.9 798.65 71.1 L793.5 70.85 788.9 71.2 784.45 70.95 Q783.65 70.7 781.65 69.35 780.05 68.25 778.6 68.35 778.3 66.85 779.05 63.7 779.75 60.85 779.05 59.2 777.85 59.8 776.2 61.8 L773.5 64.9 Q772.1 66.1 770.55 66.55 L767.5 67.25 763.9 68.55 760.3 69.7 Q758.65 70.05 755.05 69.75 L749.8 69.9 Q750.0 70.95 751.3 72.0 L753.55 73.65 Q756.05 75.75 753.35 79.0 752.3 80.3 749.75 80.45 L745.8 80.65 743.35 81.25 737.55 81.3 738.4 81.25 728.7 79.0 Q719.95 77.0 718.2 76.3 711.0 73.5 710.35 68.4 710.2 67.15 710.9 63.5 711.6 59.95 711.3 58.0 709.6 56.95 707.6 57.8 707.7 63.05 703.45 64.8 L700.6 64.75 Q699.65 64.1 699.5 62.65 699.65 64.5 700.55 67.85 701.5 71.4 700.5 73.3 699.05 76.15 693.5 76.25 687.95 76.4 686.55 73.55 L689.5 69.85 680.85 69.45 672.2 69.65 664.35 69.3 656.6 69.85 Q657.25 74.4 650.45 75.3 L640.6 75.85 639.3 81.45 637.35 81.75 637.05 81.75 619.8 81.8 619.55 81.8 613.3 81.65 611.0 81.85 610.5 81.85 601.65 81.85 593.7 81.9 593.65 81.9 Q591.1 81.1 590.25 79.25 591.3 78.0 595.65 76.35 599.4 74.9 600.45 72.25 598.5 71.75 595.9 72.7 L591.5 74.25 587.35 74.55 583.2 74.45 572.05 73.75 Q565.1 73.5 561.45 75.35 563.85 76.8 568.35 76.7 L575.4 77.1 Q573.55 78.8 568.1 78.85 562.65 78.9 560.65 80.7 L559.8 82.0 Q380.9 82.55 345.6 81.85 306.65 81.05 212.8 81.35 L176.4 81.75 161.0 81.7 170.0 81.55 Q168.95 80.75 167.55 80.1 L160.5 79.7 Q155.6 79.8 154.3 78.1 155.95 74.6 159.2 73.7 161.5 73.05 165.65 73.6 L172.2 74.3 Q175.65 74.2 177.45 72.05 176.35 70.4 171.9 70.5 L165.3 70.85 Q161.75 70.8 159.15 69.75 156.8 68.85 153.65 66.5 153.1 73.5 147.9 73.5 141.05 72.35 137.45 73.25 136.65 73.45 133.7 74.8 131.65 75.7 129.5 75.65 L124.35 75.25 Q121.6 74.7 119.6 72.95 120.4 71.45 120.6 69.75 120.75 67.9 120.1 66.4 118.7 66.8 116.25 69.55 114.5 71.55 111.5 70.65 110.05 70.2 107.1 68.6 104.2 67.05 102.55 66.6 105.8 70.45 112.0 73.1 L122.5 77.1 122.65 79.3 122.3 81.5 120.1 81.85 120.0 81.85 114.95 81.85 53.65 81.2 50.45 81.15 47.45 79.25 47.95 78.2 48.4 77.1 43.0 76.7 37.55 76.85 34.5 76.95 31.5 76.65 Q30.9 76.5 29.25 75.0 28.1 73.95 26.6 74.65 26.95 79.65 22.55 80.8 L9.7 80.6 5.1 80.55 4.5 80.55 4.5 78.7 6.8 78.65 Q5.95 77.45 5.8 74.95 5.65 72.45 5.8 34.15 L4.5 33.65 4.5 25.65 30.0 25.65 24.5 26.55 Q28.95 29.35 37.5 28.45 L50.35 28.85 51.85 30.1 53.45 31.45 56.35 31.8 Q58.25 31.85 59.4 32.75 56.2 41.8 53.75 43.65 52.7 44.5 50.6 44.8 L47.0 45.25 43.9 44.5 44.5 44.5 Q41.3 44.45 40.3 43.7 L37.45 40.15 Q37.4 42.45 37.6 43.5 37.8 44.5 38.65 46.05 38.45 45.65 40.0 46.85 L41.5 48.05 42.65 50.0 Q43.3 51.25 44.45 51.8 46.55 52.75 50.15 51.05 54.0 49.3 54.45 46.55 55.6 46.1 56.25 45.45 57.85 43.95 59.4 39.75 60.95 35.6 62.75 34.0 65.55 31.55 69.2 30.1 71.7 29.1 76.4 28.05 L89.0 26.85 100.7 25.65 115.5 25.65 310.25 24.6 511.0 23.5 749.75 23.5 M178.5 66.1 Q178.2 67.55 178.65 70.7 L180.5 71.05 182.3 70.7 Q182.9 68.75 182.05 67.45 181.25 66.2 179.5 66.1 L178.5 66.1 M727.65 57.3 Q728.75 58.15 729.35 57.8 L730.5 56.5 727.5 55.3 727.65 57.3 M723.4 55.3 Q723.8 53.9 722.5 54.1 L721.5 52.9 Q719.7 52.35 718.45 53.2 717.05 54.15 717.6 56.3 721.75 57.25 723.4 55.3" fill="url(#gradient2)" fill-rule="evenodd" stroke="none"/>
      <path d="M810.45 21.2 L810.25 21.2 810.1 19.85 810.45 19.85 810.45 21.2 M45.8 7.35 L46.2 7.05 38.5 14.25 36.95 14.25 38.5 13.05 41.15 10.95 42.5 9.9 45.8 7.35 M31.85 0.3 L29.4 0.3 29.7 0.0 31.85 0.3" fill="#9e9575" fill-rule="evenodd" stroke="none"/>
      <path d="M155.5 21.8 L168.0 21.8 308.2 20.8 311.2 20.75 312.65 20.75 322.45 20.65 349.65 20.35 368.75 20.25 418.85 19.85 419.25 19.85 419.65 19.85 421.0 19.85 426.6 19.8 439.35 19.7 440.7 19.7 441.1 19.7 446.3 19.65 810.45 18.85 810.45 19.85 810.1 19.85 446.3 20.65 311.2 21.75 168.0 22.8 72.35 22.45 0.55 22.05 0.25 22.05 0.55 21.85 0.65 21.8 8.5 21.8 66.75 21.8 107.7 21.8 155.5 21.8" fill="#c9b27b" fill-rule="evenodd" stroke="none"/>
      <path d="M800.4 23.5 L749.75 23.5 511.0 23.5 310.25 24.6 115.5 25.65 100.7 25.65 30.0 25.65 4.5 25.65 0.65 25.65 0.55 22.05 72.35 22.45 168.0 22.8 311.2 21.75 446.3 20.65 810.1 19.85 810.25 21.2 810.5 23.5 800.4 23.5 M0.55 21.8 L0.65 21.8 0.55 21.85 0.55 21.8" fill="url(#gradient3)" fill-rule="evenodd" stroke="none"/>
      <path d="M559.8 82.0 L560.65 80.7 Q562.65 78.9 568.1 78.85 573.55 78.8 575.4 77.1 L568.35 76.7 Q563.85 76.8 561.45 75.35 565.1 73.5 572.05 73.75 L583.2 74.45 587.35 74.55 591.5 74.25 595.9 72.7 Q598.5 71.75 600.45 72.25 599.4 74.9 595.65 76.35 591.3 78.0 590.25 79.25 591.1 81.1 593.65 81.9 L559.8 82.0 M611.0 81.85 L613.3 81.65 619.55 81.8 611.0 81.85 M637.35 81.75 L639.3 81.45 640.6 75.85 650.45 75.3 Q657.25 74.4 656.6 69.85 L664.35 69.3 672.2 69.65 680.85 69.45 689.5 69.85 686.55 73.55 Q687.95 76.4 693.5 76.25 699.05 76.15 700.5 73.3 701.5 71.4 700.55 67.85 699.65 64.5 699.5 62.65 699.65 64.1 700.6 64.75 L703.45 64.8 Q707.7 63.05 707.6 57.8 709.6 56.95 711.3 58.0 711.6 59.95 710.9 63.5 710.2 67.15 710.35 68.4 711.0 73.5 718.2 76.3 719.95 77.0 728.7 79.0 L738.4 81.25 737.55 81.3 637.35 81.75 M743.35 81.25 L745.8 80.65 749.75 80.45 Q752.3 80.3 753.35 79.0 756.05 75.75 753.55 73.65 L751.3 72.0 Q750.0 70.95 749.8 69.9 L755.05 69.75 Q758.65 70.05 760.3 69.7 L763.9 68.55 767.5 67.25 770.55 66.55 Q772.1 66.1 773.5 64.9 L776.2 61.8 Q777.85 59.8 779.05 59.2 779.75 60.85 779.05 63.7 778.3 66.85 778.6 68.35 780.05 68.25 781.65 69.35 783.65 70.7 784.45 70.95 L788.9 71.2 793.5 70.85 798.65 71.1 Q801.9 70.9 802.65 68.5 802.95 67.5 802.15 64.3 801.4 61.4 802.5 59.25 L803.3 63.1 803.65 67.1 Q807.6 67.55 810.6 69.4 L810.6 75.3 810.6 80.9 743.35 81.25 M723.4 55.3 Q721.75 57.25 717.6 56.3 717.05 54.15 718.45 53.2 719.7 52.35 721.5 52.9 L722.5 54.1 Q723.8 53.9 723.4 55.3 M727.65 57.3 L727.5 55.3 730.5 56.5 729.35 57.8 Q728.75 58.15 727.65 57.3" fill="#615c4e" fill-rule="evenodd" stroke="none"/>
      <path d="M176.4 81.75 L212.8 81.35 Q306.65 81.05 345.6 81.85 380.9 82.55 559.8 82.0 L593.65 81.9 593.7 81.9 601.65 81.85 610.5 81.85 611.0 81.85 619.55 81.8 619.8 81.8 637.05 81.75 637.35 81.75 737.55 81.3 743.35 81.25 810.6 80.9 810.6 75.3 810.8 75.3 810.8 86.85 651.9 86.05 176.4 81.75" fill="#524e41" fill-rule="evenodd" stroke="none"/>
      <path d="M5.1 80.55 L9.7 80.6 18.5 81.15 22.35 81.35 22.55 81.35 65.8 82.95 Q162.25 85.95 352.8 88.45 417.4 89.3 809.5 95.65 L809.5 103.05 5.1 103.05 5.1 80.55" fill="url(#gradient4)" fill-rule="evenodd" stroke="none"/>
      <path d="M9.7 80.6 L22.55 80.8 50.45 81.2 50.55 81.2 50.45 81.15 53.65 81.2 114.95 81.85 120.0 81.85 120.1 81.85 161.0 81.7 176.4 81.75 651.9 86.05 810.8 86.85 810.8 95.65 809.5 95.65 Q417.4 89.3 352.8 88.45 162.25 85.95 65.8 82.95 L22.55 81.35 22.35 81.35 18.5 81.15 9.7 80.6" fill="#a39c87" fill-rule="evenodd" stroke="none"/>
      <path d="M308.2 20.8 L307.75 20.75 314.6 19.15 324.8 18.6 371.3 18.6 398.7 18.45 Q415.25 18.55 440.7 19.7 L439.35 19.7 426.6 19.8 421.0 19.85 419.65 19.85 419.25 19.85 418.85 19.85 368.75 20.25 349.65 20.35 338.15 20.25 Q327.2 20.25 322.45 20.65 L312.65 20.75 311.2 20.75 308.2 20.8" fill="url(#gradient5)" fill-rule="evenodd" stroke="none"/>
      <path d="M414.65 14.55 L451.65 15.75 460.4 16.05 491.05 16.95 Q502.2 17.1 521.4 17.6 538.45 17.9 554.1 17.2 L583.9 15.5 602.75 14.05 622.65 14.05 610.8 15.3 608.2 15.5 598.05 16.0 583.4 16.95 561.65 18.5 Q544.75 19.2 510.8 18.85 L462.55 18.35 422.85 17.2 391.65 16.4 357.0 15.75 318.4 15.3 310.05 15.9 304.15 16.65 295.5 17.75 281.95 19.6 267.45 20.25 238.5 20.5 201.85 20.75 Q185.55 20.75 155.5 21.8 L107.7 21.8 114.55 21.6 157.9 19.95 Q175.3 19.3 195.45 19.15 L223.75 19.0 253.45 18.85 276.85 17.9 286.3 16.6 293.55 16.1 305.25 15.05 305.35 15.0 307.75 15.05 414.65 14.55" fill="url(#gradient6)" fill-rule="evenodd" stroke="none"/>
      <path d="M211.85 14.9 L183.75 15.95 159.8 17.2 125.8 18.6 Q98.7 19.3 78.9 19.15 L43.4 18.5 Q25.5 18.15 12.65 18.3 L3.85 18.65 7.5 15.7 47.7 16.95 91.25 18.0 Q123.6 18.3 149.6 16.4 L173.95 14.8 174.2 14.75 213.35 14.85 211.85 14.9" fill="url(#gradient7)" fill-rule="evenodd" stroke="none"/>
      <path d="M100.7 25.65 L89.0 26.85 76.4 28.05 Q71.7 29.1 69.2 30.1 65.55 31.55 62.75 34.0 60.95 35.6 59.4 39.75 57.85 43.95 56.25 45.45 55.6 46.1 54.45 46.55 54.6 45.6 54.25 44.65 52.8 46.0 50.8 45.95 L47.0 45.25 50.6 44.8 Q52.7 44.5 53.75 43.65 56.2 41.8 59.4 32.75 58.25 31.85 56.35 31.8 L53.45 31.45 51.85 30.1 50.35 28.85 37.5 28.45 Q28.95 29.35 24.5 26.55 L30.0 25.65 100.7 25.65" fill="#444337" fill-rule="evenodd" stroke="none"/>
      <path d="M22.55 80.8 Q26.95 79.65 26.6 74.65 28.1 73.95 29.25 75.0 30.9 76.5 31.5 76.65 L34.5 76.95 37.55 76.85 43.0 76.7 48.4 77.1 47.95 78.2 47.45 79.25 50.45 81.15 50.45 81.2 22.55 80.8 M120.1 81.85 L122.3 81.5 122.65 79.3 122.5 77.1 112.0 73.1 Q105.8 70.45 102.55 66.6 104.2 67.05 107.1 68.6 110.05 70.2 111.5 70.65 114.5 71.55 116.25 69.55 118.7 66.8 120.1 66.4 120.75 67.9 120.6 69.75 120.4 71.45 119.6 72.95 121.6 74.7 124.35 75.25 L129.5 75.65 Q131.65 75.7 133.7 74.8 136.65 73.45 137.45 73.25 141.05 72.35 147.9 73.5 153.1 73.5 153.65 66.5 156.8 68.85 159.15 69.75 161.75 70.8 165.3 70.85 L171.9 70.5 Q176.35 70.4 177.45 72.05 175.65 74.2 172.2 74.3 L165.65 73.6 Q161.5 73.05 159.2 73.7 155.95 74.6 154.3 78.1 155.6 79.8 160.5 79.7 L167.55 80.1 Q168.95 80.75 170.0 81.55 L161.0 81.7 120.1 81.85" fill="#706a5a" fill-rule="evenodd" stroke="none"/>
      <path d="M178.5 66.1 L179.5 66.1 Q181.25 66.2 182.05 67.45 182.9 68.75 182.3 70.7 L180.5 71.05 178.65 70.7 Q178.2 67.55 178.5 66.1" fill="#6b6756" fill-rule="evenodd" stroke="none"/>
      <path d="M19.4 5.95 L47.75 5.8 47.35 6.15 46.2 7.05 45.8 7.35 17.7 7.35 19.4 5.95" fill="url(#gradient8)" fill-rule="evenodd" stroke="none"/>
      <path d="M46.2 7.05 L47.35 6.15 52.85 1.85 53.3 1.5 55.5 1.45 55.5 2.6 54.75 3.5 53.5 4.8 51.5 7.05 47.6 11.75 45.4 14.3 38.5 14.25 46.2 7.05" fill="#57492d" fill-rule="evenodd" stroke="none"/>
      <path d="M45.4 14.3 L47.6 11.75 51.5 7.05 53.5 4.8 54.75 3.5 54.6 14.35 45.4 14.3" fill="#3b382f" fill-rule="evenodd" stroke="none"/>
      <path d="M52.85 1.85 L52.55 2.05 47.05 1.85 28.05 1.55 24.8 1.55 26.3 0.3 29.4 0.3 31.85 0.3 54.8 0.3 53.3 1.5 52.85 1.85" fill="url(#gradient9)" fill-rule="evenodd" stroke="none"/>
      <path d="M3.85 18.65 L0.0 21.8 Q0.0 21.3 5.5 16.3 8.9 13.2 17.95 6.45 L26.3 0.3 24.8 1.55 19.4 5.95 17.7 7.35 14.6 9.9 13.0 11.2 11.85 12.15 7.95 15.3 7.5 15.7 3.85 18.65" fill="#dec997" fill-rule="evenodd" stroke="none"/>
      <path d="M41.15 10.95 L40.75 11.25 13.0 11.2 14.6 9.9 22.2 10.1 42.5 9.9 41.15 10.95" fill="url(#gradient10)" fill-rule="evenodd" stroke="none"/>
      <path d="M54.6 14.35 L102.9 14.5 Q80.55 15.0 64.9 15.0 L54.6 15.05 44.7 15.05 37.6 15.1 31.05 15.15 13.05 15.3 12.0 15.3 7.95 15.3 11.85 12.15 16.0 12.3 38.5 13.05 36.95 14.25 38.5 14.25 45.4 14.3 54.6 14.35" fill="url(#gradient11)" fill-rule="evenodd" stroke="none"/>
      <path d="M4.5 33.65 L5.8 34.15 Q5.65 72.45 5.8 74.95 5.95 77.45 6.8 78.65 L4.5 78.7 4.5 33.65" fill="#b5ac91" fill-rule="evenodd" stroke="none"/>
      <path d="M54.45 46.55 Q54.0 49.3 50.15 51.05 46.55 52.75 44.45 51.8 43.3 51.25 42.65 50.0 L41.5 48.05 40.0 46.85 Q38.45 45.65 38.65 46.05 37.8 44.5 37.6 43.5 37.4 42.45 37.45 40.15 L40.3 43.7 Q41.3 44.45 44.5 44.5 L43.9 44.5 47.0 45.25 Q44.75 45.7 43.8 46.95 L49.05 47.2 Q52.55 47.3 54.45 46.55" fill="#787160" fill-rule="evenodd" stroke="none"/>
      <path d="M47.0 45.25 L50.8 45.95 Q52.8 46.0 54.25 44.65 54.6 45.6 54.45 46.55 52.55 47.3 49.05 47.2 L43.8 46.95 Q44.75 45.7 47.0 45.25" fill="#595448" fill-rule="evenodd" stroke="none"/>
      <path d="M8.5 21.8 Q30.5 20.65 52.8 21.3 L66.75 21.8 8.5 21.8" fill="url(#gradient12)" fill-rule="evenodd" stroke="none"/>
      <path d="M809.55 25.1 L809.55 84.8 600.6 85.75 Q383.8 86.55 344.55 85.75 305.6 84.95 211.75 85.25 L113.9 85.75 52.6 85.1 3.45 84.45 3.45 28.7 166.95 28.7 310.15 27.4 445.25 26.1 809.55 25.1" fill="url(#gradient13)" fill-rule="evenodd" stroke="none"/>
    </g>
    <linearGradient gradientTransform="matrix(0.4865, 0.0, 0.0, -0.4865, 409.0, 17.4)" gradientUnits="userSpaceOnUse" id="gradient0" spreadMethod="pad" x1="-819.2" x2="819.2">
      <stop offset="0.0" stop-color="#ab9050"/>
      <stop offset="1.0" stop-color="#857142"/>
    </linearGradient>
    <linearGradient gradientTransform="matrix(0.4947, 0.0, 0.0, -0.4947, 405.2, 11.05)" gradientUnits="userSpaceOnUse" id="gradient1" spreadMethod="pad" x1="-819.2" x2="819.2">
      <stop offset="0.0" stop-color="#bfa360"/>
      <stop offset="1.0" stop-color="#947e4a"/>
    </linearGradient>
    <linearGradient gradientTransform="matrix(0.0, 0.0271, 0.0271, 0.0, 407.55, 49.95)" gradientUnits="userSpaceOnUse" id="gradient2" spreadMethod="pad" x1="-819.2" x2="819.2">
      <stop offset="0.00784313725490196" stop-color="#4f4d3f"/>
      <stop offset="0.13333333333333333" stop-color="#75705d"/>
      <stop offset="0.3137254901960784" stop-color="#8f8872"/>
      <stop offset="1.0" stop-color="#8f8872"/>
    </linearGradient>
    <linearGradient gradientTransform="matrix(0.4943, 0.0, 0.0, -0.4943, 405.5, 21.15)" gradientUnits="userSpaceOnUse" id="gradient3" spreadMethod="pad" x1="-819.2" x2="819.2">
      <stop offset="0.0" stop-color="#826e44"/>
      <stop offset="1.0" stop-color="#665635"/>
    </linearGradient>
    <linearGradient gradientTransform="matrix(0.0, 0.0103, 0.0103, 0.0, 407.3, 89.45)" gradientUnits="userSpaceOnUse" id="gradient4" spreadMethod="pad" x1="-819.2" x2="819.2">
      <stop offset="0.0" stop-color="#918b78" stop-opacity="0.6862745"/>
      <stop offset="0.22745098039215686" stop-color="#958f7c" stop-opacity="0.6509804"/>
      <stop offset="0.4588235294117647" stop-color="#a29b88" stop-opacity="0.5254902"/>
      <stop offset="0.6980392156862745" stop-color="#b6af9d" stop-opacity="0.3372549"/>
      <stop offset="0.9372549019607843" stop-color="#d3ccb9" stop-opacity="0.07058824"/>
      <stop offset="1.0" stop-color="#dcd4c2" stop-opacity="0.0"/>
    </linearGradient>
    <linearGradient gradientTransform="matrix(0.4865, 0.0, 0.0, -0.4865, 409.0, 19.6)" gradientUnits="userSpaceOnUse" id="gradient5" spreadMethod="pad" x1="-819.2" x2="819.2">
      <stop offset="0.0" stop-color="#ab9050"/>
      <stop offset="1.0" stop-color="#857142"/>
    </linearGradient>
    <linearGradient gradientTransform="matrix(0.4865, 0.0, 0.0, -0.4865, 409.0, 17.95)" gradientUnits="userSpaceOnUse" id="gradient6" spreadMethod="pad" x1="-819.2" x2="819.2">
      <stop offset="0.0" stop-color="#ab9050"/>
      <stop offset="1.0" stop-color="#857142"/>
    </linearGradient>
    <linearGradient gradientTransform="matrix(0.4865, 0.0, 0.0, -0.4865, 409.0, 16.95)" gradientUnits="userSpaceOnUse" id="gradient7" spreadMethod="pad" x1="-819.2" x2="819.2">
      <stop offset="0.0" stop-color="#ab9050"/>
      <stop offset="1.0" stop-color="#857142"/>
    </linearGradient>
    <linearGradient gradientTransform="matrix(0.4865, 0.0, 0.0, -0.4865, 409.0, 6.6)" gradientUnits="userSpaceOnUse" id="gradient8" spreadMethod="pad" x1="-819.2" x2="819.2">
      <stop offset="0.0" stop-color="#ab9050"/>
      <stop offset="1.0" stop-color="#857142"/>
    </linearGradient>
    <linearGradient gradientTransform="matrix(0.4865, 0.0, 0.0, -0.4865, 409.0, 1.15)" gradientUnits="userSpaceOnUse" id="gradient9" spreadMethod="pad" x1="-819.2" x2="819.2">
      <stop offset="0.0" stop-color="#ab9050"/>
      <stop offset="1.0" stop-color="#857142"/>
    </linearGradient>
    <linearGradient gradientTransform="matrix(0.4865, 0.0, 0.0, -0.4865, 409.0, 10.55)" gradientUnits="userSpaceOnUse" id="gradient10" spreadMethod="pad" x1="-819.2" x2="819.2">
      <stop offset="0.0" stop-color="#ab9050"/>
      <stop offset="1.0" stop-color="#857142"/>
    </linearGradient>
    <linearGradient gradientTransform="matrix(0.4865, 0.0, 0.0, -0.4865, 409.0, 13.7)" gradientUnits="userSpaceOnUse" id="gradient11" spreadMethod="pad" x1="-819.2" x2="819.2">
      <stop offset="0.0" stop-color="#ab9050"/>
      <stop offset="1.0" stop-color="#857142"/>
    </linearGradient>
    <linearGradient gradientTransform="matrix(0.4865, 0.0, 0.0, -0.4865, 409.0, 21.45)" gradientUnits="userSpaceOnUse" id="gradient12" spreadMethod="pad" x1="-819.2" x2="819.2">
      <stop offset="0.0" stop-color="#ab9050"/>
      <stop offset="1.0" stop-color="#857142"/>
    </linearGradient>
    <radialGradient cx="0" cy="0" gradientTransform="matrix(0.5846, 0.0, 0.0, -0.2601, 429.5, 55.65)" gradientUnits="userSpaceOnUse" id="gradient13" r="819.2" spreadMethod="pad">
      <stop offset="0.0" stop-color="#000000" stop-opacity="0.36078432"/>
      <stop offset="1.0" stop-color="#000000" stop-opacity="0.0"/>
    </radialGradient>
  </defs>
</svg>
