<?xml version="1.0" encoding="UTF-8" standalone="no"?>
<svg xmlns:xlink="http://www.w3.org/1999/xlink" height="101.0px" width="103.25px" xmlns="http://www.w3.org/2000/svg">
  <g transform="matrix(1.0, 0.0, 0.0, 1.0, 0.0, 0.0)">
    <use height="95.0" transform="matrix(1.0, 0.0, 0.0, 1.0, 2.35, 5.0)" width="100.9" xlink:href="#shape0"/>
    <use height="15.8" transform="matrix(1.6643, 0.0, -0.0139, 0.9405, 60.25, 82.1)" width="21.85" xlink:href="#sprite0"/>
    <use height="91.1" transform="matrix(1.0, 0.0, 0.0, 1.0, 0.0, 8.25)" width="85.0" xlink:href="#shape2"/>
    <use height="51.45" transform="matrix(1.6643, 0.0, -0.0139, 0.9405, 3.1318, 39.4539)" width="29.15" xlink:href="#sprite1"/>
    <use height="70.0" transform="matrix(1.0, 0.0, 0.0, 1.0, 0.85, 8.35)" width="101.45" xlink:href="#shape4"/>
  </g>
  <defs>
    <g id="shape0" transform="matrix(1.0, 0.0, 0.0, 1.0, -2.35, -5.0)">
      <path d="M49.75 5.2 L77.7 8.85 102.3 12.4 96.85 21.1 37.3 27.55 18.3 16.5 2.35 8.25 28.9 5.7 44.15 5.05 49.75 5.2" fill="#c8a97c" fill-rule="evenodd" stroke="none"/>
      <path d="M58.6 12.4 L59.7 12.55 58.55 12.8 60.1 12.9 61.7 12.75 61.8 12.75 64.25 12.95 60.35 13.95 56.3 14.3 54.35 14.1 52.3 13.9 47.45 13.7 42.55 13.25 34.75 12.25 27.0 11.05 23.2 10.25 23.3 10.25 Q23.15 10.05 22.55 9.9 L21.8 9.45 23.9 9.6 25.8 9.9 36.0 11.2 39.4 11.55 43.65 12.15 38.45 12.15 52.85 12.75 56.95 12.6 58.2 12.3 58.6 12.4" fill="#b79a71" fill-rule="evenodd" stroke="none"/>
      <path d="M23.2 10.25 L19.55 10.15 15.95 9.55 12.8 9.05 9.55 8.6 5.3 8.05 5.05 7.95 8.9 7.55 10.05 7.55 23.2 10.25" fill="#b79a71" fill-rule="evenodd" stroke="none"/>
      <path d="M73.5 9.6 L72.55 9.6 74.65 9.05 79.7 9.7 73.5 9.6" fill="#b79a71" fill-rule="evenodd" stroke="none"/>
      <path d="M71.25 10.95 Q72.0 11.6 71.1 11.95 L68.95 12.1 66.7 12.0 66.6 12.0 66.85 12.8 65.95 12.95 64.25 12.95 59.7 12.55 58.6 12.4 58.2 12.3 53.2 11.4 48.35 10.4 39.2 9.15 30.3 7.7 44.95 9.75 59.95 10.85 Q61.85 10.9 63.25 10.25 L63.75 10.25 63.4 10.15 64.4 9.3 70.8 9.6 Q70.15 9.7 69.9 9.95 70.15 10.25 71.25 10.95" fill="#b79a71" fill-rule="evenodd" stroke="none"/>
      <path d="M65.95 12.95 L69.75 12.45 73.0 11.85 72.95 12.15 71.1 12.5 66.25 13.35 61.3 13.9 64.85 13.1 65.95 12.95" fill="#d2b487" fill-rule="evenodd" stroke="none"/>
      <path d="M75.15 10.85 L74.9 10.45 77.2 10.4 79.55 10.35 81.05 10.05 79.7 9.7 70.5 8.35 74.95 8.45 77.7 8.85 96.3 11.55 79.0 11.5 73.75 11.7 73.0 11.85 74.2 11.55 75.4 11.35 Q75.6 11.1 75.15 10.85" fill="#d2b487" fill-rule="evenodd" stroke="none"/>
      <path d="M31.9 5.45 Q43.05 4.65 49.75 5.2 L57.95 6.25 47.25 5.85 37.75 5.55 31.9 5.45" fill="#d2b487" fill-rule="evenodd" stroke="none"/>
      <path d="M26.75 5.9 L25.1 6.55 23.75 7.05 21.85 7.1 16.0 7.35 10.05 7.55 8.9 7.55 26.75 5.9" fill="#d2b487" fill-rule="evenodd" stroke="none"/>
      <path d="M76.15 13.9 L102.3 12.4 Q103.3 52.3 102.75 55.8 102.1 59.3 101.8 81.9 101.75 85.05 103.25 92.35 86.4 96.45 71.85 98.25 L57.8 99.75 54.65 100.0 46.25 90.35 42.9 21.2 Q44.6 20.95 54.5 15.85 L76.15 13.9" fill="#957e5e" fill-rule="evenodd" stroke="none"/>
      <path d="M76.45 17.15 L69.8 17.15 75.55 16.4 76.95 16.35 78.35 16.1 74.55 15.9 70.7 15.95 62.4 15.9 60.0 15.35 76.15 13.9 102.3 12.4 102.35 15.65 100.9 15.95 97.2 16.4 Q94.25 16.8 93.95 17.3 93.3 18.2 96.7 19.35 L92.15 19.75 85.9 20.3 85.75 21.2 Q83.2 21.4 78.6 21.2 L71.45 21.05 76.05 20.55 80.55 19.95 Q84.0 19.45 85.0 18.85 L80.15 18.7 75.3 18.9 71.4 19.25 67.6 19.6 70.0 19.05 76.45 17.15" fill="#8b7658" fill-rule="evenodd" stroke="none"/>
      <path d="M98.35 76.4 L98.35 76.8 98.1 76.85 98.35 76.4" fill="#8b7658" fill-rule="evenodd" stroke="none"/>
      <path d="M97.85 77.8 L98.1 77.65 97.25 78.7 96.0 78.95 Q95.9 78.75 96.8 78.3 L97.85 77.8" fill="#8b7658" fill-rule="evenodd" stroke="none"/>
      <path d="M96.2 61.3 L99.45 59.85 Q101.85 58.75 102.5 57.95 L102.35 61.65 99.95 62.8 94.2 65.3 93.5 65.3 90.95 65.35 88.35 65.6 87.25 65.65 88.0 65.25 Q91.55 63.25 96.2 61.3" fill="#8b7658" fill-rule="evenodd" stroke="none"/>
      <path d="M92.8 76.4 L92.7 76.55 Q92.45 77.05 92.3 77.8 91.9 79.2 88.8 80.6 L83.6 82.7 85.95 82.1 88.3 81.75 Q88.45 82.65 86.35 83.25 L80.05 84.85 Q78.85 85.1 78.8 85.3 L81.55 85.05 84.3 84.4 91.1 82.4 92.25 82.0 91.6 82.55 92.45 82.5 Q91.1 83.45 88.2 84.1 84.35 84.9 83.45 85.25 L86.1 85.1 88.85 84.85 Q88.85 85.25 86.3 86.2 L83.5 87.15 Q81.65 87.7 80.75 88.15 L84.9 87.8 Q88.05 87.4 88.55 87.85 L88.4 88.6 Q88.15 88.95 89.5 89.0 89.75 89.5 88.65 90.0 L86.85 90.7 Q83.0 92.05 80.55 92.6 L74.7 93.35 71.4 93.6 68.05 93.45 64.3 93.7 Q62.55 93.65 62.6 92.2 62.3 92.3 62.05 93.2 61.9 94.0 61.15 93.9 L60.85 93.25 60.6 92.45 Q59.2 90.9 59.05 90.15 L57.0 84.75 56.4 83.45 Q56.05 84.35 56.1 85.85 L56.35 88.3 56.2 89.65 55.05 90.2 53.7 91.75 52.0 93.3 50.0 94.65 47.55 91.8 47.75 82.7 62.8 83.45 57.65 82.6 48.3 81.2 47.9 81.15 47.9 80.15 55.3 80.3 62.95 80.3 60.35 80.2 56.85 80.0 Q54.55 79.85 53.55 79.4 L53.6 79.05 47.95 79.5 Q48.3 73.25 49.35 67.85 L49.4 67.65 51.25 68.3 51.4 68.35 54.45 69.65 57.6 70.8 61.85 72.4 66.6 73.45 69.7 73.35 68.1 74.3 66.45 75.2 68.15 75.55 70.15 75.5 67.3 76.85 Q64.9 77.8 64.25 78.1 63.05 78.3 63.0 78.9 L75.7 77.9 79.9 77.65 72.85 81.1 Q70.3 82.35 70.05 82.65 71.55 82.9 73.05 82.65 L80.65 82.05 86.05 81.25 79.75 81.4 73.35 81.6 Q73.4 81.25 75.75 80.4 L78.0 79.65 Q81.15 78.65 85.15 77.9 L92.8 76.4" fill="#8b7658" fill-rule="evenodd" stroke="none"/>
      <path d="M99.85 50.8 L99.8 51.6 99.95 53.25 Q100.05 54.25 99.8 54.9 L98.9 55.8 98.0 56.6 97.5 57.7 102.4 57.55 97.95 59.35 Q95.05 60.4 93.05 60.1 92.85 59.35 93.9 58.1 L95.5 56.25 97.95 53.55 Q99.45 51.85 99.85 50.8" fill="#8b7658" fill-rule="evenodd" stroke="none"/>
      <path d="M92.5 67.55 L94.45 66.6 101.6 65.75 96.6 65.45 102.2 64.15 102.1 67.75 99.95 69.5 100.85 69.25 Q100.55 70.25 98.1 71.35 L94.15 72.9 91.35 74.0 Q89.9 74.65 89.05 75.45 L91.15 74.9 93.35 74.7 Q93.45 75.3 92.8 76.35 L79.55 76.8 81.65 76.0 83.4 75.45 83.55 75.4 Q87.6 73.85 88.9 73.1 L86.75 73.15 77.85 73.45 71.95 73.4 76.35 72.7 80.85 72.25 Q87.2 71.6 87.55 71.1 L86.2 71.2 Q85.4 71.25 85.05 70.9 L92.5 67.55" fill="#8b7658" fill-rule="evenodd" stroke="none"/>
      <path d="M101.95 18.25 L102.35 18.4 102.65 32.1 98.15 32.85 Q98.7 30.7 97.5 30.75 L99.05 28.55 Q96.4 29.45 92.3 29.95 L94.4 28.35 97.1 26.65 100.65 23.8 98.3 24.2 99.8 22.6 101.4 21.0 Q102.1 19.7 101.95 18.25" fill="#8b7658" fill-rule="evenodd" stroke="none"/>
      <path d="M99.25 34.2 L99.6 34.2 102.75 34.0 102.8 36.5 102.45 36.75 Q101.7 37.3 101.7 37.9 L101.65 39.85 Q101.65 40.55 101.05 41.25 L99.85 42.5 101.25 42.55 Q101.7 45.45 100.2 47.85 99.85 48.5 99.85 48.85 L99.6 48.15 Q98.15 45.55 97.75 44.3 L97.1 42.2 92.3 42.9 87.45 43.65 Q88.05 43.2 89.95 42.95 L92.7 42.35 Q95.7 41.4 96.85 40.7 99.5 38.95 100.1 37.05 99.2 37.15 98.7 37.55 L94.75 38.5 92.0 39.2 Q92.5 38.4 94.7 37.25 97.05 36.05 97.65 35.25 L98.1 34.45 99.25 34.2" fill="#8b7658" fill-rule="evenodd" stroke="none"/>
      <path d="M60.35 47.0 L56.6 46.7 Q53.55 46.3 52.95 45.8 52.7 45.65 52.7 45.25 L56.8 45.5 61.8 46.0 65.5 46.15 78.2 48.35 69.35 47.9 60.35 47.0" fill="#8b7658" fill-rule="evenodd" stroke="none"/>
      <path d="M44.25 48.95 L44.2 47.1 54.4 49.1 58.55 50.4 62.95 51.45 65.9 51.4 68.65 51.65 59.4 51.35 Q50.05 50.45 45.0 49.2 L44.25 48.95" fill="#8b7658" fill-rule="evenodd" stroke="none"/>
      <path d="M82.25 70.0 L79.4 70.1 70.0 70.05 67.15 70.05 59.95 68.7 55.15 67.8 52.25 67.05 49.1 66.7 49.1 67.1 45.1 66.1 44.9 62.05 53.05 63.4 55.95 63.7 58.7 64.35 64.15 65.4 65.7 65.6 67.2 65.9 63.45 65.75 59.65 65.4 Q59.9 66.5 63.7 67.25 L69.05 68.1 75.75 69.4 82.25 70.0" fill="#8b7658" fill-rule="evenodd" stroke="none"/>
      <path d="M68.15 36.15 Q64.9 35.45 65.5 34.85 L69.4 35.25 73.6 36.0 76.4 36.3 79.25 36.1 94.55 37.35 81.65 37.2 68.15 36.15" fill="#8b7658" fill-rule="evenodd" stroke="none"/>
      <path d="M93.45 34.25 L99.25 34.2 98.1 34.45 86.3 35.0 74.6 34.4 90.25 34.15 93.95 34.0 93.45 34.25" fill="#8b7658" fill-rule="evenodd" stroke="none"/>
      <path d="M94.2 65.3 L92.6 66.0 96.6 65.45 101.6 65.75 94.45 66.6 86.7 66.75 80.7 66.55 77.45 66.45 Q74.85 66.25 74.3 65.75 L76.8 65.7 79.3 65.75 88.35 65.6 90.95 65.35 93.5 65.3 94.2 65.3" fill="#8b7658" fill-rule="evenodd" stroke="none"/>
      <path d="M98.35 76.4 Q98.75 76.05 99.85 75.45 L101.4 74.65 101.9 74.25 101.85 77.95 Q100.55 81.0 100.4 82.15 100.4 84.35 100.05 86.1 L99.8 87.2 Q99.7 87.95 100.1 88.25 100.95 88.1 101.45 87.5 L102.2 86.45 102.6 88.8 101.5 89.35 100.3 90.35 99.4 90.7 Q98.75 90.95 98.65 91.1 L99.5 91.15 Q98.45 92.3 95.6 92.95 L91.7 93.95 88.05 94.1 83.95 94.55 77.05 95.35 71.75 96.15 78.25 96.1 73.9 97.05 69.7 97.95 65.25 98.2 65.85 97.45 62.2 97.55 58.6 97.85 Q56.55 98.05 55.85 97.85 55.3 97.7 55.1 97.4 L54.8 96.8 52.35 97.35 50.0 94.65 52.0 93.3 53.7 91.75 55.05 90.2 56.2 89.65 56.35 88.3 56.1 85.85 Q56.05 84.35 56.4 83.45 L57.0 84.75 59.05 90.15 Q59.2 90.9 60.6 92.45 L60.85 93.25 61.15 93.9 Q61.9 94.0 62.05 93.2 62.3 92.3 62.6 92.2 62.55 93.65 64.3 93.7 L68.05 93.45 71.4 93.6 74.7 93.35 80.55 92.6 Q83.0 92.05 86.85 90.7 L88.65 90.0 Q89.75 89.5 89.5 89.0 88.15 88.95 88.4 88.6 L88.55 87.85 Q88.05 87.4 84.9 87.8 L80.75 88.15 Q81.65 87.7 83.5 87.15 L86.3 86.2 Q88.85 85.25 88.85 84.85 L86.1 85.1 83.45 85.25 Q84.35 84.9 88.2 84.1 91.1 83.45 92.45 82.5 L91.6 82.55 92.25 82.0 93.5 81.6 94.8 80.6 Q97.8 79.2 98.5 78.35 L97.25 78.7 98.1 77.65 99.6 76.35 98.35 76.8 98.35 76.4" fill="#746248" fill-rule="evenodd" stroke="none"/>
      <path d="M51.25 68.3 L49.4 67.65 49.1 67.1 49.1 66.7 52.25 67.05 55.15 67.8 59.95 68.7 74.05 71.4 62.6 70.0 51.4 68.35 51.25 68.3" fill="#746248" fill-rule="evenodd" stroke="none"/>
      <path d="M45.7 79.65 L53.6 79.05 53.55 79.4 Q54.55 79.85 56.85 80.0 L60.35 80.2 62.95 80.3 55.3 80.3 47.9 80.15 45.7 80.2 45.7 79.65" fill="#746248" fill-rule="evenodd" stroke="none"/>
      <path d="M62.8 83.45 L47.75 82.7 45.85 82.6 45.8 80.85 47.9 81.15 48.3 81.2 57.65 82.6 62.8 83.45" fill="#746248" fill-rule="evenodd" stroke="none"/>
      <path d="M93.95 34.0 Q95.2 33.4 98.15 32.85 L102.65 32.1 102.75 34.0 99.6 34.2 99.25 34.2 93.45 34.25 93.95 34.0" fill="#816e50" fill-rule="evenodd" stroke="none"/>
      <path d="M101.7 37.9 Q101.7 37.3 102.45 36.75 L102.8 36.5 Q103.05 53.7 102.75 55.8 L102.55 57.5 102.4 57.55 97.5 57.7 98.0 56.6 98.9 55.8 99.8 54.9 Q100.05 54.25 99.95 53.25 L99.8 51.6 99.85 50.8 99.85 48.85 Q99.85 48.5 100.2 47.85 101.7 45.45 101.25 42.55 L99.85 42.5 101.05 41.25 Q101.65 40.55 101.65 39.85 L101.7 37.9" fill="#816e50" fill-rule="evenodd" stroke="none"/>
      <path d="M92.7 76.55 L92.8 76.4 92.8 76.35 Q93.45 75.3 93.35 74.7 L91.15 74.9 89.05 75.45 Q89.9 74.65 91.35 74.0 L94.15 72.9 98.1 71.35 Q100.55 70.25 100.85 69.25 L99.95 69.5 102.1 67.75 101.9 74.25 101.4 74.65 99.85 75.45 Q98.75 76.05 98.35 76.4 L98.1 76.85 98.35 76.8 99.6 76.35 98.1 77.65 97.85 77.8 96.8 78.3 Q95.9 78.75 96.0 78.95 L98.5 78.35 Q97.8 79.2 94.8 80.6 L93.5 81.6 92.25 82.0 91.1 82.4 84.3 84.4 81.55 85.05 78.8 85.3 Q78.85 85.1 80.05 84.85 L86.35 83.25 Q88.45 82.65 88.3 81.75 L85.95 82.1 83.6 82.7 88.8 80.6 Q91.9 79.2 92.3 77.8 92.45 77.05 92.7 76.55" fill="#816e50" fill-rule="evenodd" stroke="none"/>
      <path d="M92.6 66.0 L99.95 62.8 102.35 61.65 102.2 64.15 96.6 65.45 92.6 66.0" fill="#816e50" fill-rule="evenodd" stroke="none"/>
      <path d="M52.5 26.4 Q56.0 27.6 63.45 28.9 L67.0 29.5 62.1 29.65 58.8 29.6 55.35 29.8 Q55.85 30.7 58.65 31.3 L67.8 32.75 66.45 32.95 61.0 33.25 55.55 33.15 Q48.85 33.1 43.4 32.05 L43.3 28.9 52.5 26.4" fill="#816e50" fill-rule="evenodd" stroke="none"/>
      <path d="M100.05 86.1 Q100.4 84.35 100.4 82.15 100.55 81.0 101.85 77.95 L101.8 81.9 Q101.75 83.05 102.2 86.45 L101.45 87.5 Q100.95 88.1 100.1 88.25 99.7 87.95 99.8 87.2 L100.05 86.1" fill="#564936" fill-rule="evenodd" stroke="none"/>
      <path d="M83.95 94.55 L88.05 94.1 91.7 93.95 95.6 92.95 Q98.45 92.3 99.5 91.15 L98.65 91.1 Q98.75 90.95 99.4 90.7 L100.3 90.35 101.5 89.35 102.6 88.8 103.25 92.35 Q86.4 96.45 71.85 98.25 L57.8 99.75 54.65 100.0 52.35 97.35 54.8 96.8 55.1 97.4 Q55.3 97.7 55.85 97.85 56.55 98.05 58.6 97.85 L62.2 97.55 65.85 97.45 65.25 98.2 69.7 97.95 73.9 97.05 78.25 96.1 71.75 96.15 77.05 95.35 83.95 94.55" fill="#564936" fill-rule="evenodd" stroke="none"/>
    </g>
    <g id="sprite0" transform="matrix(1.0, 0.0, 0.0, 1.0, 0.0, 0.0)">
      <use height="15.8" transform="matrix(1.0, 0.0, 0.0, 1.0, 0.0, 0.0)" width="21.85" xlink:href="#shape1"/>
    </g>
    <g id="shape1" transform="matrix(1.0, 0.0, 0.0, 1.0, 0.0, 0.0)">
      <path d="M2.6 5.6 Q3.1 5.85 2.85 6.25 2.6 6.45 2.5 6.1 2.35 5.7 2.6 5.6" fill="#8da1cc" fill-rule="evenodd" stroke="none"/>
      <path d="M5.1 5.1 Q5.35 5.0 5.45 5.2 L5.45 5.65 Q5.0 5.8 5.1 5.1" fill="#8da1cc" fill-rule="evenodd" stroke="none"/>
      <path d="M1.15 6.05 Q1.6 5.9 1.5 6.55 1.05 6.75 1.15 6.05" fill="#8da1cc" fill-rule="evenodd" stroke="none"/>
      <path d="M3.3 6.15 Q3.3 6.3 3.6 6.25 L3.5 6.8 3.2 6.6 Q3.1 6.3 3.3 6.15" fill="#8da1cc" fill-rule="evenodd" stroke="none"/>
      <path d="M2.1 6.5 L2.2 7.1 Q1.65 7.25 1.75 6.6 L2.1 6.5" fill="#8da1cc" fill-rule="evenodd" stroke="none"/>
      <path d="M5.3 6.5 Q5.75 6.45 5.75 6.9 L5.4 7.1 5.3 6.5" fill="#8da1cc" fill-rule="evenodd" stroke="none"/>
      <path d="M4.0 6.85 Q4.3 6.7 4.45 6.85 L4.45 7.3 Q4.0 7.5 4.0 6.85" fill="#8da1cc" fill-rule="evenodd" stroke="none"/>
      <path d="M1.05 7.55 L1.4 7.55 1.5 8.05 1.25 8.1 1.15 7.85 1.05 7.55" fill="#8da1cc" fill-rule="evenodd" stroke="none"/>
      <path d="M2.5 7.2 L2.85 7.25 2.85 7.7 Q2.4 7.9 2.5 7.2" fill="#8da1cc" fill-rule="evenodd" stroke="none"/>
      <path d="M4.5 5.95 L4.9 6.0 4.9 6.45 Q4.5 6.55 4.5 5.95" fill="#8da1cc" fill-rule="evenodd" stroke="none"/>
      <path d="M3.5 7.3 L3.6 7.45 Q3.55 7.65 3.65 7.6 5.85 7.3 6.05 9.65 5.1 9.5 4.75 10.05 4.6 9.8 4.25 9.9 3.85 10.0 3.7 10.35 L3.65 11.85 3.85 13.1 4.0 12.85 4.2 12.6 Q4.45 13.05 4.05 13.4 3.65 13.75 3.4 13.4 L3.3 10.35 Q2.8 10.1 2.2 10.7 1.6 10.3 1.1 11.0 1.05 8.55 3.35 7.7 L3.35 7.4 Q3.4 7.25 3.5 7.3" fill="#8da1cc" fill-rule="evenodd" stroke="none"/>
      <path d="M21.25 7.95 L21.2 2.1 Q21.2 0.95 20.5 1.1 L16.9 1.95 Q16.15 2.1 16.15 3.35 L16.2 9.35 Q16.2 9.85 16.45 10.15 16.65 10.45 16.95 10.35 L20.55 9.35 Q21.25 9.2 21.25 7.95 M21.0 10.25 L16.5 11.5 Q16.15 11.6 15.85 11.25 15.55 10.85 15.55 10.25 L15.5 2.75 Q15.5 2.1 15.75 1.6 16.0 1.1 16.4 1.0 L20.9 0.0 Q21.3 -0.05 21.55 0.3 L21.8 1.25 21.85 8.5 Q21.85 10.0 21.0 10.25" fill="#8da1cc" fill-rule="evenodd" stroke="none"/>
      <path d="M14.5 1.9 L14.8 2.9 14.85 10.45 14.6 11.55 13.9 12.2 9.1 13.55 Q8.7 13.65 8.4 13.3 8.1 12.9 8.1 12.25 L8.0 4.5 Q8.0 3.85 8.3 3.35 8.6 2.8 9.0 2.7 L13.85 1.6 Q14.25 1.55 14.5 1.9 M13.35 2.75 L9.5 3.65 Q8.7 3.85 8.7 5.1 L8.75 11.3 Q8.75 11.8 9.0 12.15 9.25 12.45 9.55 12.35 L13.45 11.3 14.0 10.8 14.2 9.85 14.15 3.8 13.9 3.0 Q13.7 2.7 13.35 2.75" fill="#8da1cc" fill-rule="evenodd" stroke="none"/>
      <path d="M6.95 3.65 L7.25 4.7 7.3 12.5 7.05 13.7 Q6.75 14.25 6.3 14.35 L1.1 15.8 Q0.7 15.9 0.35 15.5 0.05 15.1 0.05 14.45 L0.0 6.4 Q-0.05 5.75 0.3 5.15 0.6 4.6 1.05 4.5 L6.25 3.35 Q6.65 3.25 6.95 3.65 M5.75 4.55 L1.55 5.5 0.95 6.05 0.7 7.0 0.75 13.45 Q0.85 14.7 1.65 14.55 L5.8 13.4 Q6.6 13.15 6.6 11.9 L6.55 5.6 6.3 4.8 Q6.1 4.5 5.75 4.55" fill="#8da1cc" fill-rule="evenodd" stroke="none"/>
      <path d="M20.25 2.35 Q20.55 2.8 20.5 3.2 L20.0 3.3 20.1 5.35 20.05 7.95 19.6 8.05 19.5 3.4 18.95 3.55 Q19.25 2.4 19.8 1.55 L20.25 2.35" fill="#8da1cc" fill-rule="evenodd" stroke="none"/>
      <path d="M17.55 2.05 L18.0 2.9 18.4 3.7 Q17.85 3.7 17.8 3.9 L17.8 8.55 17.35 8.65 17.25 3.9 16.7 4.1 Q17.05 2.8 17.55 2.05" fill="#8da1cc" fill-rule="evenodd" stroke="none"/>
      <path d="M16.7 9.05 L18.85 8.5 20.1 8.15 Q20.8 8.0 20.65 8.65 L18.7 9.25 16.75 9.8 16.7 9.05" fill="#8da1cc" fill-rule="evenodd" stroke="none"/>
      <path d="M12.9 10.65 Q12.45 11.1 11.4 11.4 10.25 11.75 9.9 11.4 10.25 11.05 11.25 10.7 L11.25 8.05 10.85 8.05 10.5 8.0 10.35 7.7 Q9.85 7.7 9.8 6.45 L9.75 4.25 12.9 3.55 Q13.5 7.35 11.6 8.1 L11.7 10.65 12.45 10.5 12.9 10.65" fill="#8da1cc" fill-rule="evenodd" stroke="none"/>
    </g>
    <g id="shape2" transform="matrix(1.0, 0.0, 0.0, 1.0, 0.0, -8.25)">
      <path d="M54.25 37.55 Q54.15 60.0 54.7 64.25 55.6 71.05 54.65 99.35 35.65 95.75 23.95 92.9 L8.05 88.9 1.0 86.95 Q0.45 74.7 0.15 61.1 -0.35 33.9 0.9 27.4 2.25 20.95 2.45 13.9 L2.35 8.25 10.55 9.7 24.15 12.0 54.5 15.85 54.25 37.55" fill="#c1a378" fill-rule="evenodd" stroke="none"/>
      <path d="M2.45 13.45 L2.45 12.0 4.2 13.35 2.45 13.45" fill="#b79a71" fill-rule="evenodd" stroke="none"/>
      <path d="M2.1 19.45 L8.35 20.3 2.1 19.65 2.1 19.45" fill="#b79a71" fill-rule="evenodd" stroke="none"/>
      <path d="M2.0 20.35 L10.25 20.55 14.1 20.95 2.0 20.65 2.0 20.35" fill="#b79a71" fill-rule="evenodd" stroke="none"/>
      <path d="M3.15 15.9 L2.4 16.0 2.4 15.8 3.15 15.9" fill="#b79a71" fill-rule="evenodd" stroke="none"/>
      <path d="M8.6 23.35 L1.7 22.65 1.8 22.15 2.6 22.25 18.25 23.55 Q13.3 23.7 8.6 23.35" fill="#b79a71" fill-rule="evenodd" stroke="none"/>
      <path d="M1.65 23.6 Q6.0 24.45 6.8 24.9 L1.55 24.3 1.65 23.6" fill="#b79a71" fill-rule="evenodd" stroke="none"/>
      <path d="M5.8 14.45 L2.55 14.15 2.45 14.15 2.45 13.9 5.8 14.45" fill="#b79a71" fill-rule="evenodd" stroke="none"/>
      <path d="M54.35 24.7 L51.6 24.65 53.2 24.35 Q50.0 23.95 48.4 23.35 48.0 23.0 47.5 22.9 L51.9 22.95 54.4 23.0 54.35 24.7" fill="#b79a71" fill-rule="evenodd" stroke="none"/>
      <path d="M54.25 34.6 L53.0 34.4 48.85 34.7 54.0 33.6 54.3 33.55 54.25 34.6" fill="#b79a71" fill-rule="evenodd" stroke="none"/>
      <path d="M51.5 25.75 L54.35 26.0 54.3 28.45 42.4 28.9 48.05 29.3 46.9 29.35 32.4 29.85 34.9 29.2 44.0 27.2 51.5 25.75" fill="#b79a71" fill-rule="evenodd" stroke="none"/>
      <path d="M51.05 21.65 L53.15 21.6 54.4 21.8 54.4 22.6 Q52.95 22.45 53.05 21.85 L51.05 21.65" fill="#b79a71" fill-rule="evenodd" stroke="none"/>
      <path d="M33.55 37.6 L28.95 37.8 38.8 36.4 50.2 36.05 33.55 37.6" fill="#b79a71" fill-rule="evenodd" stroke="none"/>
      <path d="M54.45 20.55 L54.45 21.0 48.2 20.75 48.1 20.6 54.45 20.55" fill="#b79a71" fill-rule="evenodd" stroke="none"/>
      <path d="M32.0 48.85 L46.5 50.6 47.35 50.7 43.15 50.7 Q35.1 50.55 29.45 48.95 L27.45 48.4 30.1 48.6 32.0 48.85" fill="#b79a71" fill-rule="evenodd" stroke="none"/>
      <path d="M47.35 50.7 Q52.15 50.6 54.3 50.85 L54.3 51.4 47.35 50.7" fill="#b79a71" fill-rule="evenodd" stroke="none"/>
      <path d="M54.3 48.0 L54.25 48.95 50.55 48.45 49.65 48.0 54.3 48.0" fill="#b79a71" fill-rule="evenodd" stroke="none"/>
      <path d="M53.3 45.5 L54.2 45.5 54.3 47.2 50.85 46.75 Q46.45 46.25 44.95 45.65 L48.9 45.4 53.3 45.5" fill="#b79a71" fill-rule="evenodd" stroke="none"/>
      <path d="M15.05 48.15 L22.35 49.7 4.7 48.3 20.4 51.65 17.5 51.55 0.05 49.65 0.05 45.8 7.1 46.85 18.2 48.15 17.25 48.05 15.05 48.15" fill="#b79a71" fill-rule="evenodd" stroke="none"/>
      <path d="M5.3 42.3 L0.0 41.75 0.05 39.65 0.8 39.85 Q6.25 41.55 13.9 42.8 L5.3 42.3" fill="#b79a71" fill-rule="evenodd" stroke="none"/>
      <path d="M43.95 43.65 L36.35 42.35 14.65 37.65 0.3 34.4 0.3 33.75 4.1 34.65 14.25 36.85 7.15 35.2 6.0 34.85 4.95 34.45 0.55 33.4 0.3 33.3 0.3 33.1 43.95 43.65" fill="#b79a71" fill-rule="evenodd" stroke="none"/>
      <path d="M9.25 75.35 L0.55 74.85 0.3 65.75 11.55 67.85 11.4 67.9 11.9 67.9 13.15 68.2 10.05 68.4 Q8.0 68.55 7.65 69.2 13.0 69.7 20.9 69.25 L34.1 68.45 34.85 68.45 30.3 69.3 16.55 71.4 Q19.8 71.55 27.65 71.2 L37.7 70.65 34.95 71.25 26.45 71.6 18.6 72.3 22.75 72.4 26.75 72.5 29.25 72.5 21.6 74.15 17.45 75.15 25.45 74.8 33.5 74.55 28.7 75.45 22.9 75.9 9.25 75.35" fill="#b79a71" fill-rule="evenodd" stroke="none"/>
      <path d="M54.8 64.85 L46.7 64.85 54.7 64.15 54.7 64.25 54.8 64.85" fill="#b79a71" fill-rule="evenodd" stroke="none"/>
      <path d="M54.7 64.15 L47.3 64.4 52.6 63.55 54.6 63.15 54.7 64.15" fill="#b79a71" fill-rule="evenodd" stroke="none"/>
      <path d="M45.3 71.85 L45.8 71.5 55.0 70.45 55.05 72.9 52.65 73.4 55.05 73.45 55.05 73.55 50.45 74.15 47.55 74.65 Q45.55 75.0 44.95 75.45 L55.1 75.35 55.1 78.0 44.3 80.15 42.75 77.7 44.75 77.6 Q47.35 78.6 49.6 78.65 51.35 78.75 52.5 77.95 L54.4 76.4 52.9 76.3 54.85 75.75 51.4 76.15 43.5 75.25 48.15 74.05 Q50.95 73.2 51.2 72.0 L45.3 71.85" fill="#b79a71" fill-rule="evenodd" stroke="none"/>
      <path d="M52.75 65.95 L54.8 65.3 55.0 67.6 Q52.3 68.05 52.15 68.25 L55.0 68.25 54.95 68.65 43.7 69.1 50.8 66.65 54.4 65.9 52.75 65.95" fill="#b79a71" fill-rule="evenodd" stroke="none"/>
      <path d="M55.0 69.15 L55.0 70.3 49.55 70.45 51.0 70.15 55.0 69.15" fill="#b79a71" fill-rule="evenodd" stroke="none"/>
      <path d="M45.35 87.4 Q46.1 86.75 48.45 86.05 L52.05 85.05 55.05 84.1 55.0 86.5 49.95 87.05 45.35 87.4" fill="#b79a71" fill-rule="evenodd" stroke="none"/>
      <path d="M0.3 64.3 L5.7 65.25 Q2.95 65.15 0.25 65.3 L0.3 64.3" fill="#b79a71" fill-rule="evenodd" stroke="none"/>
      <path d="M43.85 83.1 L40.75 83.1 39.8 81.2 42.3 81.2 43.85 83.1" fill="#b79a71" fill-rule="evenodd" stroke="none"/>
      <path d="M45.75 83.65 L48.35 83.45 52.5 83.15 45.6 83.15 44.9 81.2 55.05 80.75 55.05 83.0 47.25 84.1 45.85 84.25 45.75 83.65" fill="#b79a71" fill-rule="evenodd" stroke="none"/>
      <path d="M6.4 77.15 L0.65 76.9 0.65 76.65 16.05 77.2 19.55 77.3 18.4 77.5 21.05 77.5 24.85 78.75 6.4 77.15" fill="#b79a71" fill-rule="evenodd" stroke="none"/>
      <path d="M42.9 84.2 L44.35 83.85 44.65 84.25 42.9 84.2" fill="#b79a71" fill-rule="evenodd" stroke="none"/>
      <path d="M2.0 63.45 L1.8 63.4 0.3 63.35 0.2 62.9 2.0 63.45" fill="#b79a71" fill-rule="evenodd" stroke="none"/>
      <path d="M35.45 82.7 L38.25 82.3 38.9 83.1 35.45 82.7" fill="#b79a71" fill-rule="evenodd" stroke="none"/>
      <path d="M0.8 82.4 L0.85 81.5 4.85 81.7 8.45 81.7 11.95 81.8 0.8 80.5 0.7 78.85 Q10.95 79.45 20.4 79.4 L26.75 79.3 30.65 79.6 30.3 78.9 29.95 78.2 32.15 79.75 Q33.5 80.9 34.4 81.25 L32.9 81.3 34.75 81.4 34.8 81.45 34.8 81.4 36.25 81.25 37.4 81.25 38.15 82.25 17.5 81.45 25.35 83.6 33.15 85.8 36.8 86.8 32.3 86.3 27.8 85.75 24.6 85.05 31.3 87.0 37.9 89.15 25.55 88.35 Q18.05 87.35 11.65 85.5 L0.8 82.4" fill="#b79a71" fill-rule="evenodd" stroke="none"/>
      <path d="M18.9 76.55 L19.7 77.0 12.9 76.75 6.0 76.55 18.9 76.55" fill="#b79a71" fill-rule="evenodd" stroke="none"/>
      <path d="M39.65 80.8 Q38.8 78.95 38.95 78.45 40.3 79.2 41.65 80.5 L39.65 80.8" fill="#b79a71" fill-rule="evenodd" stroke="none"/>
      <path d="M33.95 77.65 L34.55 77.7 37.3 81.1 36.25 81.25 34.8 81.25 34.55 79.5 33.95 77.65" fill="#b79a71" fill-rule="evenodd" stroke="none"/>
      <path d="M52.9 94.85 L52.85 93.85 54.85 94.0 54.85 94.7 52.9 94.85" fill="#b79a71" fill-rule="evenodd" stroke="none"/>
      <path d="M44.0 93.85 L50.4 93.85 50.35 94.25 44.0 93.85" fill="#b79a71" fill-rule="evenodd" stroke="none"/>
      <path d="M33.6 76.55 L34.1 77.15 33.8 77.15 33.6 76.55" fill="#b79a71" fill-rule="evenodd" stroke="none"/>
      <path d="M42.1 76.55 Q42.75 76.35 43.25 76.95 L42.35 77.0 42.1 76.55" fill="#b79a71" fill-rule="evenodd" stroke="none"/>
      <path d="M36.25 81.25 L44.3 80.15 55.1 78.0 55.05 80.75 44.9 81.2 36.25 81.25" fill="#a28965" fill-rule="evenodd" stroke="none"/>
      <path d="M34.4 81.25 L36.25 81.25 34.8 81.4 34.75 81.4 32.9 81.3 34.4 81.25" fill="#a28965" fill-rule="evenodd" stroke="none"/>
      <path d="M8.45 81.7 L4.85 81.7 0.85 81.5 0.8 80.5 11.95 81.8 8.45 81.7" fill="#a28965" fill-rule="evenodd" stroke="none"/>
      <path d="M44.95 75.45 Q45.55 75.0 47.55 74.65 L50.45 74.15 55.05 73.55 55.1 75.35 44.95 75.45" fill="#a28965" fill-rule="evenodd" stroke="none"/>
      <path d="M0.7 78.85 L0.65 76.9 6.4 77.15 24.85 78.75 28.55 79.15 26.75 79.3 20.4 79.4 Q10.95 79.45 0.7 78.85" fill="#a28965" fill-rule="evenodd" stroke="none"/>
      <path d="M55.05 73.45 L52.65 73.4 55.05 72.9 55.05 73.45" fill="#a28965" fill-rule="evenodd" stroke="none"/>
      <path d="M0.65 76.65 L0.55 74.85 9.25 75.35 31.95 76.3 25.45 76.6 18.9 76.55 6.0 76.55 12.9 76.75 23.2 77.15 19.55 77.3 16.05 77.2 0.65 76.65" fill="#a28965" fill-rule="evenodd" stroke="none"/>
      <path d="M42.9 90.45 L43.75 90.25 55.0 88.1 54.85 94.0 52.85 93.85 Q52.9 92.15 52.4 91.8 50.65 92.85 50.4 93.85 L44.0 93.85 39.85 92.7 Q37.15 91.75 39.15 91.35 L43.3 91.25 Q46.25 91.35 47.4 90.7 L45.3 90.45 42.9 90.45" fill="#a28965" fill-rule="evenodd" stroke="none"/>
      <path d="M52.15 68.25 Q52.3 68.05 55.0 67.6 L55.0 68.25 52.15 68.25" fill="#a28965" fill-rule="evenodd" stroke="none"/>
      <path d="M7.75 85.65 Q4.5 85.6 0.9 84.1 L0.8 82.4 11.65 85.5 Q18.05 87.35 25.55 88.35 L37.9 89.15 31.3 87.0 24.6 85.05 27.8 85.75 32.3 86.3 36.8 86.8 33.15 85.8 25.35 83.6 17.5 81.45 38.15 82.25 40.0 82.2 38.25 82.3 35.45 82.7 38.9 83.1 43.85 83.1 45.6 83.15 52.5 83.15 48.35 83.45 45.75 83.65 44.35 83.85 42.9 84.2 44.65 84.25 47.25 84.1 55.05 83.0 55.05 84.1 52.05 85.05 48.45 86.05 Q46.1 86.75 45.35 87.4 L49.95 87.05 55.0 86.5 55.0 88.05 51.95 88.6 43.75 90.25 41.5 90.55 32.4 90.95 34.9 91.8 Q36.3 92.4 35.95 93.15 L31.45 92.95 27.1 92.2 22.85 91.55 Q19.95 91.0 18.95 90.4 L24.35 90.65 18.5 88.95 12.85 87.0 7.75 85.65" fill="#a28965" fill-rule="evenodd" stroke="none"/>
      <path d="M44.7 64.5 L54.7 64.15 46.7 64.85 40.55 64.95 Q37.65 65.2 38.05 64.6 L41.3 64.4 44.7 64.5" fill="#a28965" fill-rule="evenodd" stroke="none"/>
      <path d="M4.1 34.65 L0.3 33.75 0.3 33.3 0.55 33.4 4.95 34.45 6.0 34.85 7.15 35.2 14.25 36.85 4.1 34.65" fill="#a28965" fill-rule="evenodd" stroke="none"/>
      <path d="M12.2 24.2 Q15.05 24.4 16.45 24.9 L5.85 23.75 1.65 23.15 1.7 22.7 7.7 23.8 12.2 24.2" fill="#a28965" fill-rule="evenodd" stroke="none"/>
      <path d="M14.15 20.4 Q18.05 20.35 20.0 20.45 L18.65 20.6 10.25 20.55 2.0 20.35 2.1 19.65 8.35 20.3 14.15 20.4" fill="#a28965" fill-rule="evenodd" stroke="none"/>
      <path d="M6.2 15.35 L2.4 15.0 2.45 14.15 2.55 14.15 26.05 16.05 6.2 15.35" fill="#a28965" fill-rule="evenodd" stroke="none"/>
      <path d="M54.4 21.8 L53.15 21.6 54.4 21.6 54.4 21.8" fill="#a28965" fill-rule="evenodd" stroke="none"/>
      <path d="M9.5 88.3 L5.4 87.25 1.0 86.3 0.9 84.1 Q4.5 85.6 7.75 85.65 L12.85 87.0 18.5 88.95 24.35 90.65 18.95 90.4 Q19.95 91.0 22.85 91.55 L27.1 92.2 31.45 92.95 35.95 93.15 Q36.3 92.4 34.9 91.8 L32.4 90.95 41.5 90.55 43.75 90.25 42.9 90.45 45.3 90.45 47.4 90.7 Q46.25 91.35 43.3 91.25 L39.15 91.35 Q37.15 91.75 39.85 92.7 L44.0 93.85 50.35 94.25 50.4 93.85 Q50.65 92.85 52.4 91.8 52.9 92.15 52.85 93.85 L52.9 94.85 54.85 94.7 54.8 96.9 51.45 96.25 48.5 95.35 50.45 96.4 Q51.85 96.95 52.3 97.55 L50.3 97.4 48.3 96.95 46.45 96.85 44.55 96.75 42.15 96.25 38.65 95.7 31.55 94.25 27.6 93.4 23.85 92.15 Q19.35 90.7 16.0 90.2 L12.6 89.25 Q10.4 88.5 9.5 88.3" fill="#90785a" fill-rule="evenodd" stroke="none"/>
      <path d="M43.75 90.25 L51.95 88.6 55.0 88.05 55.0 88.1 43.75 90.25" fill="#90785a" fill-rule="evenodd" stroke="none"/>
      <path d="M8.05 88.9 L1.0 86.95 1.0 86.3 5.4 87.25 9.5 88.3 Q10.4 88.5 12.6 89.25 L16.0 90.2 Q19.35 90.7 23.85 92.15 L27.6 93.4 31.55 94.25 38.65 95.7 42.15 96.25 44.55 96.75 46.45 96.85 48.3 96.95 50.3 97.4 52.3 97.55 Q51.85 96.95 50.45 96.4 L48.5 95.35 51.45 96.25 54.8 96.9 54.65 99.35 Q35.65 95.75 23.95 92.9 L8.05 88.9" fill="#564936" fill-rule="evenodd" stroke="none"/>
      <path d="M14.75 52.25 L16.5 52.35 18.0 52.6 54.3 56.35 54.4 57.9 45.9 57.4 18.05 54.85 0.1 53.4 0.05 50.8 0.5 50.9 14.75 52.25" fill="#c6aa80" fill-rule="evenodd" stroke="none"/>
      <path d="M0.1 54.85 L9.85 54.95 43.1 59.65 Q43.35 61.1 38.45 59.45 L0.15 56.35 0.1 54.85" fill="#c6aa80" fill-rule="evenodd" stroke="none"/>
      <path d="M1.25 61.65 L0.25 61.65 0.15 58.2 15.95 59.7 12.15 60.0 8.15 59.95 5.15 60.05 2.15 60.5 Q1.25 60.8 1.25 61.65" fill="#c6aa80" fill-rule="evenodd" stroke="none"/>
      <path d="M54.4 65.9 L50.8 66.65 Q43.6 68.2 39.25 68.4 L34.85 68.45 26.2 68.3 19.05 68.2 11.9 67.9 11.4 67.9 11.55 67.85 12.55 67.75 31.7 66.65 34.2 66.35 54.4 65.9" fill="#c6aa80" fill-rule="evenodd" stroke="none"/>
      <path d="M55.0 70.45 L45.8 71.5 29.25 72.5 26.75 72.5 22.75 72.4 18.6 72.3 26.45 71.6 34.95 71.25 38.3 70.75 55.0 70.3 55.0 70.45" fill="#c6aa80" fill-rule="evenodd" stroke="none"/>
      <path d="M54.85 75.75 L52.9 76.3 Q48.85 77.4 44.75 77.6 L34.55 77.7 33.95 77.65 32.45 77.65 21.05 77.5 18.4 77.5 19.55 77.3 23.95 77.15 34.1 77.15 42.35 77.0 44.85 76.85 54.85 75.75" fill="#c6aa80" fill-rule="evenodd" stroke="none"/>
      <path d="M27.0 44.85 L54.25 48.95 54.25 49.6 32.0 48.4 Q19.85 47.45 10.35 45.9 L5.2 45.05 0.0 43.65 0.0 43.2 13.5 44.4 27.0 44.85" fill="#c6aa80" fill-rule="evenodd" stroke="none"/>
      <path d="M18.35 40.05 L21.7 40.7 25.1 40.95 44.15 45.35 34.05 44.25 24.3 42.1 Q18.35 41.05 18.35 40.05" fill="#c6aa80" fill-rule="evenodd" stroke="none"/>
      <path d="M45.1 41.4 L48.95 41.45 54.25 42.35 54.25 44.1 50.0 43.65 Q38.95 42.35 31.75 40.45 L35.25 40.75 45.1 41.4" fill="#c6aa80" fill-rule="evenodd" stroke="none"/>
      <path d="M12.15 34.45 Q12.3 34.15 17.8 35.15 L24.9 36.4 27.15 37.55 23.05 37.05 19.15 36.3 15.5 35.6 Q13.15 35.1 12.15 34.45" fill="#c6aa80" fill-rule="evenodd" stroke="none"/>
      <path d="M6.8 24.9 L9.25 25.1 20.9 27.45 Q11.65 27.4 1.25 25.75 L1.55 24.3 6.8 24.9" fill="#c6aa80" fill-rule="evenodd" stroke="none"/>
      <path d="M45.35 18.7 L14.4 18.6 Q13.15 18.7 12.85 18.25 32.8 18.35 45.35 18.7" fill="#c6aa80" fill-rule="evenodd" stroke="none"/>
      <path d="M54.4 21.6 L51.05 21.65 Q35.85 21.8 26.55 20.95 L22.75 20.35 18.9 19.8 38.45 20.25 54.45 21.0 54.4 21.6" fill="#c6aa80" fill-rule="evenodd" stroke="none"/>
      <path d="M35.9 22.95 L49.75 25.9 Q36.45 25.8 25.75 24.0 17.7 22.35 13.45 21.85 L18.25 22.15 23.0 22.7 35.9 22.95" fill="#c6aa80" fill-rule="evenodd" stroke="none"/>
      <path d="M41.7 26.55 L38.35 26.4 35.05 26.1 27.6 25.75 32.6 25.9 37.55 25.75 41.7 26.55" fill="#c6aa80" fill-rule="evenodd" stroke="none"/>
      <path d="M24.15 12.0 L54.5 15.85 54.5 15.9 35.95 14.9 25.85 13.4 15.65 12.0 9.75 11.0 7.15 9.95 4.8 9.4 2.4 8.85 2.35 8.25 10.55 9.7 24.15 12.0" fill="#d9b98a" fill-rule="evenodd" stroke="none"/>
      <path d="M71.85 23.35 L78.45 32.75 84.9 41.55 Q79.0 44.95 77.35 45.45 L63.4 50.25 54.6 37.55 47.5 32.75 54.1 28.85 59.85 27.25 71.85 23.35" fill="#816e50" fill-rule="evenodd" stroke="none"/>
      <path d="M77.4 45.05 L63.55 49.9 54.6 37.55 47.65 32.35 54.3 28.45 60.0 26.85 71.95 22.95 85.0 41.1 Q79.15 44.6 77.4 45.05" fill="#c1b4a0" fill-rule="evenodd" stroke="none"/>
      <path d="M54.05 28.6 L53.75 36.9 47.65 32.35 54.05 28.6" fill="#e5d9c7" fill-rule="evenodd" stroke="none"/>
      <path d="M61.5 36.05 L73.8 31.55 79.5 38.65 72.65 41.85 67.15 43.8 61.5 36.05" fill="#7a7165" fill-rule="evenodd" stroke="none"/>
      <path d="M63.15 35.1 L69.65 43.2 68.9 43.95 61.95 35.4 63.15 35.1" fill="#c1b4a0" fill-rule="evenodd" stroke="none"/>
      <path d="M64.65 34.45 L71.15 42.6 70.4 43.3 63.35 34.75 64.65 34.45" fill="#c1b4a0" fill-rule="evenodd" stroke="none"/>
      <path d="M67.55 33.4 L74.05 41.55 73.3 42.3 66.3 33.65 67.55 33.4" fill="#c1b4a0" fill-rule="evenodd" stroke="none"/>
      <path d="M68.55 32.8 L75.0 40.9 75.05 41.55 68.15 32.95 68.55 32.8" fill="#c1b4a0" fill-rule="evenodd" stroke="none"/>
      <path d="M69.7 32.35 L76.2 40.5 76.25 41.15 69.2 32.6 69.7 32.35" fill="#c1b4a0" fill-rule="evenodd" stroke="none"/>
      <path d="M71.9 31.4 L78.35 39.55 78.45 40.2 71.45 31.65 71.9 31.4" fill="#c1b4a0" fill-rule="evenodd" stroke="none"/>
      <path d="M55.8 31.0 L56.3 30.75 56.7 30.5 56.55 31.2 56.4 31.5 56.45 31.15 55.8 31.35 55.8 31.0" fill="#7a7165" fill-rule="evenodd" stroke="none"/>
      <path d="M57.2 30.45 L57.45 30.35 57.8 30.4 58.05 30.5 Q58.05 30.9 57.7 30.95 L57.1 30.9 57.2 30.45" fill="#7a7165" fill-rule="evenodd" stroke="none"/>
      <path d="M58.35 30.25 L58.6 30.1 Q58.85 30.15 58.7 30.3 L58.35 30.25" fill="#7a7165" fill-rule="evenodd" stroke="none"/>
      <path d="M58.55 30.7 L58.7 30.5 58.95 30.5 58.95 30.75 58.55 30.7" fill="#7a7165" fill-rule="evenodd" stroke="none"/>
      <path d="M62.35 29.25 Q62.95 28.9 62.95 29.1 L62.35 29.35 62.35 29.25 M60.7 29.8 L60.7 29.75 60.6 30.1 Q60.3 30.45 60.05 30.4 L60.05 29.8 59.6 29.95 59.3 30.1 Q59.1 30.1 59.1 29.75 L60.05 29.6 60.55 29.55 60.95 29.45 61.35 29.4 61.95 29.45 61.6 29.9 61.35 29.7 60.7 29.8" fill="#7a7165" fill-rule="evenodd" stroke="none"/>
      <path d="M60.1 31.1 L59.9 31.4 59.65 31.55 59.5 31.5 59.25 31.7 59.0 31.75 58.55 31.95 58.25 32.1 57.75 32.15 Q56.75 32.75 56.55 32.6 56.15 32.45 56.8 32.1 57.25 31.8 57.65 31.65 L57.55 31.8 57.55 31.9 58.25 31.6 58.9 31.3 59.55 31.3 59.85 31.1 60.1 31.1" fill="#7a7165" fill-rule="evenodd" stroke="none"/>
      <path d="M60.55 30.6 L60.85 30.25 62.05 30.35 61.85 30.55 60.75 31.3 60.8 30.85 60.55 30.85 60.55 30.6" fill="#7a7165" fill-rule="evenodd" stroke="none"/>
      <path d="M62.25 30.0 L62.7 29.7 Q63.2 30.35 62.25 30.5 L62.25 30.0" fill="#7a7165" fill-rule="evenodd" stroke="none"/>
      <path d="M63.0 29.7 L63.6 29.65 Q63.6 30.2 63.0 30.05 L63.0 29.7" fill="#7a7165" fill-rule="evenodd" stroke="none"/>
      <path d="M58.8 32.6 Q59.0 32.35 59.65 32.1 L60.0 32.1 60.75 31.9 Q61.0 31.9 61.0 32.05 L60.55 32.45 60.25 32.5 60.25 32.3 Q59.9 32.25 59.9 32.55 L59.8 32.85 59.5 32.95 59.25 32.6 58.8 32.6" fill="#7a7165" fill-rule="evenodd" stroke="none"/>
      <path d="M57.65 32.85 L58.0 33.0 Q58.0 33.4 57.55 33.25 L57.5 33.05 57.65 32.85" fill="#7a7165" fill-rule="evenodd" stroke="none"/>
      <path d="M61.4 31.45 L61.75 31.35 Q62.05 31.3 62.0 31.7 L61.5 32.0 61.5 31.8 61.15 31.7 61.15 31.55 61.4 31.45" fill="#7a7165" fill-rule="evenodd" stroke="none"/>
      <path d="M62.15 31.2 L62.7 31.1 Q62.65 31.85 62.15 31.7 L62.15 31.2" fill="#7a7165" fill-rule="evenodd" stroke="none"/>
      <path d="M78.05 41.65 L78.45 41.45 78.95 41.35 78.95 41.0 Q78.95 40.8 79.45 40.7 L80.5 40.4 80.5 40.9 80.4 41.45 80.2 42.0 79.45 42.35 79.05 42.25 79.45 41.85 79.7 41.5 Q79.2 41.5 79.05 41.8 L78.95 42.0 78.8 42.05 Q78.3 42.3 78.15 42.45 77.8 42.85 77.7 42.6 L76.95 43.05 76.65 43.15 77.05 42.55 77.2 42.0 77.2 41.85 77.7 41.85 78.05 41.65" fill="#7a7165" fill-rule="evenodd" stroke="none"/>
      <path d="M80.75 40.35 L81.25 40.35 81.35 40.8 Q81.35 41.2 80.95 41.05 L80.75 40.9 80.75 40.35" fill="#7a7165" fill-rule="evenodd" stroke="none"/>
      <path d="M81.85 40.25 L82.25 39.55 82.35 40.15 Q82.35 40.65 82.0 40.65 81.85 40.65 81.85 40.25" fill="#7a7165" fill-rule="evenodd" stroke="none"/>
    </g>
    <g id="sprite1" transform="matrix(1.0, 0.0, 0.0, 1.0, 1.0, -7.5)">
      <use height="51.45" transform="matrix(1.0, 0.0, 0.0, 1.0, -1.0, 7.5)" width="29.15" xlink:href="#shape3"/>
    </g>
    <g id="shape3" transform="matrix(1.0, 0.0, 0.0, 1.0, 1.0, -7.5)">
      <path d="M22.3 21.5 L22.55 22.7 22.55 26.8 Q22.4 27.2 21.75 27.0 L21.05 26.6 20.9 26.35 20.9 24.1 20.85 23.6 20.7 23.45 20.65 23.45 19.35 23.0 19.25 22.65 19.2 21.3 Q19.2 20.25 19.5 20.0 L21.65 20.85 22.3 21.5 M1.8 27.2 L2.1 27.15 2.6 26.55 2.75 26.1 2.85 27.0 2.75 29.0 Q2.6 29.9 2.2 30.2 L1.8 30.25 1.55 28.9 1.7 28.55 1.8 27.75 1.8 27.2 M7.3 20.85 Q6.6 21.8 6.6 23.45 L6.6 37.4 Q6.6 39.05 7.3 40.45 7.9 41.85 8.85 42.2 L17.8 45.6 Q18.7 45.95 19.35 45.0 20.0 44.05 20.0 42.4 L20.0 28.45 Q20.0 26.8 19.35 25.4 18.7 23.95 17.8 23.65 L8.85 20.25 Q7.9 19.9 7.3 20.85 M2.0 24.05 L1.7 23.8 Q1.45 23.8 1.35 24.1 1.25 24.45 1.3 24.8 L1.5 25.5 Q1.7 25.8 1.85 25.75 L2.15 25.45 2.25 24.75 2.0 24.05 M-0.4 22.85 Q0.15 22.05 0.7 22.1 1.2 22.15 1.7 22.75 L2.05 23.4 Q2.65 24.4 2.55 25.6 2.4 26.85 1.9 26.65 L1.25 26.0 Q0.9 25.45 0.6 25.7 0.2 25.85 0.2 26.5 L0.2 27.1 -0.8 27.1 -0.95 26.4 -0.95 24.7 Q-0.85 23.6 -0.4 22.85 M2.5 20.2 L3.25 19.55 3.7 19.35 4.3 23.95 3.95 24.0 3.5 24.6 3.4 25.15 1.85 22.05 1.95 21.4 Q2.15 20.75 2.5 20.2 M4.5 14.8 Q4.75 14.5 5.1 14.6 L7.3 15.45 7.55 16.95 7.45 18.15 7.35 18.5 6.15 18.0 5.85 17.95 5.8 18.4 5.8 20.65 5.7 20.8 4.95 20.7 Q4.4 20.5 4.15 19.85 L4.15 15.9 4.2 15.75 Q4.2 15.15 4.5 14.8 M10.2 9.0 Q11.5 7.0 13.4 7.65 15.3 8.3 16.6 11.4 17.9 14.4 17.9 18.0 L17.9 18.85 8.9 15.5 8.85 14.65 Q8.85 11.05 10.2 9.0 M15.45 10.95 Q14.55 10.2 14.35 11.65 14.1 12.9 14.5 14.05 14.75 14.85 15.35 15.2 15.95 15.4 16.25 14.75 16.6 14.2 16.25 12.7 15.95 11.35 15.45 10.95 M10.1 10.4 Q9.75 11.65 10.1 12.5 10.45 13.35 11.0 13.55 11.55 13.7 11.9 13.05 12.2 12.2 12.05 10.8 11.8 9.15 10.9 9.2 10.4 9.3 10.1 10.4 M18.8 20.65 L18.7 21.45 18.8 22.95 18.9 23.25 20.3 23.8 20.4 23.9 Q20.5 23.9 20.6 24.05 L20.65 24.55 20.65 27.1 20.85 27.3 Q21.05 27.65 21.6 27.85 L21.95 27.85 21.95 44.75 21.6 44.6 20.85 44.45 20.65 44.55 20.65 47.25 20.6 47.6 20.4 47.6 20.3 47.55 18.9 47.0 18.8 47.35 18.7 48.7 18.75 49.3 8.05 45.25 8.05 44.7 7.95 43.25 7.85 42.9 6.5 42.4 6.2 42.15 6.15 41.8 6.1 41.65 6.1 39.15 5.95 38.9 5.15 38.4 4.65 38.35 4.65 21.3 5.15 21.65 5.95 21.8 6.1 21.65 6.1 19.1 6.2 18.65 6.5 18.65 7.85 19.15 7.95 18.85 8.05 17.45 8.0 16.55 18.8 20.65 M5.8 39.8 L5.8 42.2 5.85 42.55 6.15 42.75 7.35 43.25 7.45 43.5 7.55 44.9 7.3 46.15 5.1 45.35 4.5 44.7 Q4.2 44.15 4.2 43.5 L4.15 43.3 4.15 39.4 Q4.4 39.0 4.95 39.2 L5.7 39.6 5.8 39.8 M7.9 46.65 L8.05 46.35 9.05 46.7 9.45 48.95 9.15 49.9 Q8.8 50.8 8.2 50.75 7.65 50.6 7.3 50.25 L7.05 49.9 6.8 48.7 6.65 47.3 6.7 46.7 6.95 46.7 7.4 46.85 Q7.7 47.0 7.9 46.65 M28.15 36.15 L28.1 36.8 27.1 36.5 27.05 35.85 Q26.9 35.2 26.5 34.9 26.2 34.65 25.85 35.05 L25.25 35.45 Q24.8 35.5 24.55 34.25 24.25 33.0 24.75 32.1 L25.05 31.6 Q25.5 31.15 26.0 31.25 26.55 31.35 27.2 32.35 L28.0 34.4 28.15 36.15 M24.65 30.15 L24.8 30.8 23.55 33.45 23.4 32.9 22.95 32.15 22.5 31.9 22.65 27.6 23.15 27.85 24.05 28.75 24.65 30.15 M25.2 32.7 Q25.0 32.6 24.85 32.9 L24.75 33.45 24.85 34.2 25.2 34.6 25.6 34.45 25.65 33.8 25.6 33.1 25.2 32.7 M24.3 35.5 L24.35 34.6 24.6 35.25 Q24.9 35.9 25.1 35.95 L25.5 36.1 25.5 36.6 25.65 37.4 25.9 37.9 25.7 39.2 25.4 39.0 Q24.95 38.6 24.65 37.55 24.35 36.6 24.3 35.5 M21.05 45.4 L21.75 45.45 Q22.4 45.65 22.55 46.35 L22.55 50.45 22.3 51.35 Q22.0 51.7 21.65 51.55 L19.5 50.75 Q19.2 50.25 19.2 49.2 L19.25 48.0 19.35 47.7 20.65 48.2 20.7 48.2 20.85 48.2 20.9 47.9 20.9 45.5 21.05 45.4 M19.5 51.4 L20.25 51.75 20.3 52.4 20.15 53.7 19.95 54.75 19.7 54.85 18.75 54.7 Q18.2 54.35 17.75 53.15 L17.5 51.95 17.9 50.0 18.95 50.45 19.1 50.8 Q19.25 51.35 19.5 51.4 M20.6 58.8 L20.3 58.95 19.1 58.7 Q18.2 58.3 17.6 57.35 17.0 56.5 16.75 55.3 L16.35 53.85 16.6 53.25 Q16.85 52.65 17.3 52.5 L17.65 53.65 Q18.05 54.75 18.6 55.05 L19.7 55.35 19.95 55.75 20.3 57.0 20.6 58.8 M10.55 51.7 L10.25 52.85 Q9.95 53.85 9.4 54.3 L7.9 54.55 Q7.1 54.3 6.65 53.85 L6.4 53.5 6.65 51.9 Q6.8 51.25 7.05 50.95 L7.3 50.7 7.45 50.85 8.35 51.25 Q8.95 51.4 9.35 50.55 L9.7 49.65 10.4 50.95 10.55 51.7" fill="#8da1cc" fill-rule="evenodd" stroke="none"/>
    </g>
    <g id="shape4" transform="matrix(1.0, 0.0, 0.0, 1.0, -0.85, -8.35)">
      <path d="M54.5 15.85 L61.55 14.7 76.85 12.6 93.65 12.05 102.3 12.4 80.0 14.05 54.05 16.35 54.5 15.85" fill="#7f6b4f" fill-rule="evenodd" stroke="none"/>
      <path d="M54.5 15.85 L78.75 13.7 102.3 12.4 80.0 14.05 54.05 16.35 54.5 15.85" fill="#c6a77b" fill-rule="evenodd" stroke="none"/>
      <path d="M54.5 15.85 Q39.9 14.85 20.1 11.55 L3.05 8.35 8.4 9.1 20.85 11.0 54.5 15.85" fill="#7f6b4f" fill-rule="evenodd" stroke="none"/>
      <path d="M19.7 22.8 L19.85 24.65 Q19.75 25.55 18.8 25.8 L15.55 26.1 3.2 26.55 0.85 26.4 1.8 16.55 2.65 16.45 6.5 15.9 10.2 15.5 15.35 15.1 Q18.1 14.8 18.65 15.15 19.2 15.5 19.45 18.7 L19.7 22.8" fill="#816e50" fill-rule="evenodd" stroke="none"/>
      <path d="M19.35 22.4 L19.6 24.2 Q19.5 25.1 18.55 25.4 L15.35 25.75 11.7 25.75 3.2 26.25 0.9 26.1 1.8 16.25 2.6 16.15 6.5 15.55 10.25 15.15 15.15 14.7 Q17.85 14.35 18.35 14.7 18.9 15.05 19.15 18.3 L19.35 22.4" fill="#d0c2ad" fill-rule="evenodd" stroke="none"/>
      <path d="M18.15 19.35 L4.55 16.5 6.95 16.2 14.1 15.45 Q17.9 15.0 18.05 16.5 L18.15 19.35" fill="#517689" fill-rule="evenodd" stroke="none"/>
      <path d="M2.8 25.2 Q1.95 25.2 1.55 24.45 1.35 24.05 1.25 23.0 L1.2 22.7 1.6 18.65 9.2 24.9 2.8 25.2" fill="#d26e55" fill-rule="evenodd" stroke="none"/>
      <path d="M13.5 21.3 L8.45 19.3 1.8 17.0 6.65 17.8 15.1 19.55 13.5 21.3" fill="#517689" fill-rule="evenodd" stroke="none"/>
      <path d="M13.2 21.7 L11.0 24.25 Q6.35 21.2 5.0 19.95 L1.75 17.25 13.2 21.7" fill="#517689" fill-rule="evenodd" stroke="none"/>
      <path d="M12.15 23.55 L13.45 22.15 14.85 24.1 14.05 21.75 14.35 21.35 15.5 24.95 Q14.9 24.85 14.4 24.4 14.05 24.15 13.05 23.85 L12.15 23.55" fill="#517689" fill-rule="evenodd" stroke="none"/>
      <path d="M79.55 65.6 L84.3 67.35 Q86.7 68.15 86.9 68.6 87.3 69.5 83.55 75.8 L82.65 77.55 Q82.05 78.35 81.05 78.35 L77.9 77.65 74.2 76.45 64.1 73.65 61.2 72.55 Q60.65 72.1 61.1 71.4 64.75 63.95 65.5 62.9 66.65 61.35 71.0 62.85 L75.6 64.25 79.55 65.6" fill="#816e50" fill-rule="evenodd" stroke="none"/>
      <path d="M79.8 65.3 L84.45 67.0 Q86.85 67.8 87.1 68.35 87.3 68.85 85.8 71.75 L83.7 75.5 82.9 77.2 Q82.2 78.0 81.2 78.0 L78.05 77.25 74.4 76.1 64.35 73.3 61.45 72.25 Q60.85 71.75 61.25 71.05 L65.75 62.55 Q66.9 61.0 71.25 62.5 L75.85 63.9 79.8 65.3" fill="#b9ad9a" fill-rule="evenodd" stroke="none"/>
      <path d="M84.45 72.3 L73.2 63.9 75.9 64.7 83.2 67.3 Q86.6 68.4 85.95 69.8 L84.45 72.3" fill="#456474" fill-rule="evenodd" stroke="none"/>
      <path d="M72.35 74.3 L64.6 72.0 Q63.6 71.6 63.65 70.7 63.75 70.1 64.35 68.9 L67.35 63.3 68.2 64.45 72.35 74.3" fill="#c05e46" fill-rule="evenodd" stroke="none"/>
      <path d="M79.0 72.4 L75.45 68.45 69.7 62.9 74.55 66.1 81.65 71.4 79.0 72.4" fill="#456474" fill-rule="evenodd" stroke="none"/>
      <path d="M74.7 74.35 Q71.85 69.35 71.2 67.5 L69.45 63.2 78.5 72.65 74.7 74.35" fill="#456474" fill-rule="evenodd" stroke="none"/>
      <path d="M78.5 73.2 L78.65 75.55 79.35 73.05 79.85 72.8 78.7 76.6 77.95 75.7 77.0 74.7 76.25 74.05 78.5 73.2" fill="#456474" fill-rule="evenodd" stroke="none"/>
    </g>
  </defs>
</svg>
