<?xml version="1.0" encoding="UTF-8" standalone="no"?>
<svg xmlns:xlink="http://www.w3.org/1999/xlink" height="51.35px" width="49.35px" xmlns="http://www.w3.org/2000/svg">
  <g transform="matrix(1.0, 0.0, 0.0, 1.0, 0.0, 0.0)">
    <use height="51.35" transform="matrix(1.0, 0.0, 0.0, 1.0, 0.0, 0.0)" width="49.35" xlink:href="#shape0"/>
  </g>
  <defs>
    <g id="shape0" transform="matrix(1.0, 0.0, 0.0, 1.0, 0.0, 0.0)">
      <path d="M40.85 4.95 Q41.6 25.75 38.45 46.3 L37.95 47.2 Q37.55 47.55 37.05 47.5 L9.35 44.85 Q8.85 44.8 8.6 44.45 8.35 44.05 8.4 43.55 11.45 25.05 10.85 6.8 10.85 6.35 11.2 6.0 11.5 5.7 12.0 5.65 L39.6 3.85 Q40.1 3.8 40.45 4.1 L40.85 4.95" fill="#9c9c9c" fill-rule="evenodd" stroke="none"/>
      <path d="M39.85 4.95 Q40.6 25.3 37.5 45.6 37.45 46.1 37.0 46.5 36.6 46.85 36.15 46.8 22.6 46.0 9.25 44.25 L8.5 43.8 Q8.25 43.45 8.3 42.95 11.3 25.15 10.75 6.8 10.75 6.35 11.05 6.0 11.35 5.7 11.85 5.65 L38.65 3.85 Q39.15 3.8 39.5 4.15 L39.85 4.95" fill="url(#gradient0)" fill-rule="evenodd" stroke="none"/>
      <path d="M37.5 45.6 Q37.45 46.1 37.0 46.5 36.6 46.85 36.15 46.8 L16.65 45.1 Q27.15 45.6 34.75 45.2 L35.7 44.85 36.25 44.0 Q38.9 30.85 39.9 18.0 39.6 31.75 37.5 45.6" fill="#ffffff" fill-rule="evenodd" stroke="none"/>
      <path d="M13.6 6.6 Q13.7 6.4 13.85 6.4 14.2 6.35 14.25 6.75 L14.3 8.35 14.45 8.35 14.45 6.95 14.45 6.75 14.65 6.55 Q15.0 6.5 15.0 6.9 L15.05 8.55 15.2 8.6 15.2 7.65 15.2 7.45 15.4 7.25 15.8 7.6 15.8 8.7 Q16.05 10.7 15.4 11.55 15.05 11.95 14.7 11.75 L14.55 11.45 Q14.5 11.85 13.85 11.8 13.25 11.8 12.8 11.2 L12.65 10.95 12.6 10.9 Q11.85 10.35 11.6 9.6 11.4 8.9 11.6 8.75 L12.2 8.8 12.35 9.2 12.65 9.5 13.4 9.75 13.7 10.0 13.15 9.5 12.75 9.35 12.8 9.0 12.75 7.1 12.8 6.9 Q12.9 6.75 13.05 6.7 13.45 6.65 13.4 7.1 L13.45 8.7 13.6 8.65 13.55 6.8 13.6 6.6" fill="#525355" fill-rule="evenodd" stroke="none"/>
      <path d="M36.25 40.1 L36.4 40.4 36.45 40.45 Q37.1 41.1 37.2 42.0 37.3 42.8 37.05 43.0 36.8 43.2 36.45 42.85 L36.35 42.45 36.1 42.05 Q35.7 41.95 35.45 41.7 L35.15 41.4 35.3 41.65 35.65 42.0 36.05 42.2 35.9 42.6 35.6 44.75 35.2 45.2 34.95 44.95 34.95 44.7 35.2 42.9 35.05 42.95 35.0 42.95 35.0 43.1 34.7 45.0 34.35 45.45 34.05 45.25 34.05 45.0 34.3 43.2 34.1 43.2 33.9 44.75 33.55 45.2 33.3 45.0 33.3 44.75 33.55 42.95 33.4 42.85 33.25 43.95 Q33.25 44.35 32.95 44.35 L32.65 44.15 32.65 43.9 32.8 42.7 Q33.05 40.3 33.7 39.55 33.95 39.3 34.25 39.35 L34.45 39.4 34.55 39.75 34.7 39.55 Q34.9 39.3 35.3 39.35 35.9 39.4 36.25 40.1" fill="#525355" fill-rule="evenodd" stroke="none"/>
      <path d="M31.65 23.7 Q36.6 27.5 34.15 33.05 31.9 38.2 27.7 38.25 24.7 38.25 24.75 35.85 24.8 34.7 22.0 34.1 L15.95 33.3 Q11.6 32.9 12.75 29.25 13.8 25.8 17.6 23.7 21.95 21.25 26.6 21.9 29.85 22.35 31.65 23.7" fill="#ae4539" fill-rule="evenodd" stroke="none"/>
      <path d="M33.05 28.1 Q32.6 27.65 32.4 26.6 L32.25 25.65 32.8 24.4 32.55 25.4 32.6 26.15 33.15 27.45 33.35 26.55 33.55 24.1 33.75 23.85 34.35 22.55 34.35 23.05 33.7 24.35 33.75 25.4 33.75 28.4 32.95 27.65 33.7 28.85 33.05 28.1" fill="#525355" fill-rule="evenodd" stroke="none"/>
      <path d="M33.25 27.7 L33.7 28.3 33.65 28.9 33.4 28.4 33.15 28.05 33.25 27.7" fill="#525355" fill-rule="evenodd" stroke="none"/>
      <path d="M33.4 28.2 L33.75 28.25 33.65 28.8 33.4 29.3 32.7 29.9 33.05 29.1 33.4 28.2" fill="#525355" fill-rule="evenodd" stroke="none"/>
      <path d="M16.85 22.5 L17.15 23.6 18.0 24.45 17.15 24.05 16.9 23.5 16.85 22.5" fill="#525355" fill-rule="evenodd" stroke="none"/>
      <path d="M33.5 26.85 L34.55 26.5 34.9 26.2 35.1 24.8 35.15 26.5 33.75 27.35 33.6 27.6 33.5 26.85" fill="#525355" fill-rule="evenodd" stroke="none"/>
      <path d="M32.9 31.7 L33.6 31.45 34.35 30.6 34.35 29.4 34.6 30.55 33.45 32.45 33.45 32.8 33.2 32.65 32.9 31.7" fill="#525355" fill-rule="evenodd" stroke="none"/>
      <path d="M14.9 31.25 L14.15 32.15 Q14.05 32.15 14.1 31.95 L14.15 31.7 Q14.35 31.45 14.2 30.1 L13.4 25.95 13.2 25.8 12.2 25.3 12.85 23.2 12.8 23.85 12.55 24.9 13.1 25.25 13.75 25.75 14.35 27.75 15.15 31.35 Q15.15 31.55 14.9 31.25" fill="#525355" fill-rule="evenodd" stroke="none"/>
      <path d="M15.65 24.1 L15.65 25.4 15.6 26.25 15.25 26.9 14.8 28.05 14.6 29.8 14.2 29.15 14.2 27.9 15.25 26.15 15.45 25.35 15.55 24.4 15.55 23.35 15.65 24.1" fill="#525355" fill-rule="evenodd" stroke="none"/>
      <path d="M33.2 17.15 L34.05 17.6 33.3 21.05 32.5 21.85 31.4 24.65 31.25 27.0 28.45 32.1 26.95 32.35 23.7 32.05 20.5 29.7 18.8 29.5 18.0 27.25 19.2 19.1 20.85 15.9 22.4 14.4 23.6 11.0 27.15 13.95 27.15 14.2 28.25 13.75 30.85 15.95 30.9 17.05 33.2 17.15" fill="#727375" fill-rule="evenodd" stroke="none"/>
      <path d="M28.25 13.75 L29.4 14.75 28.9 14.85 28.55 16.65 28.1 17.85 27.0 16.4 27.15 13.95 28.25 13.75" fill="#898b8c" fill-rule="evenodd" stroke="none"/>
      <path d="M25.1 12.25 L24.65 13.8 25.05 16.75 23.65 16.5 23.0 15.25 22.9 14.3 23.6 11.0 25.1 12.25" fill="#898b8c" fill-rule="evenodd" stroke="none"/>
      <path d="M30.9 17.05 L33.2 17.15 32.3 17.75 31.6 20.4 31.15 20.2 30.4 18.85 30.9 17.05" fill="#898b8c" fill-rule="evenodd" stroke="none"/>
      <path d="M28.1 17.85 L27.35 16.9 28.3 14.05 30.55 16.4 29.9 18.2 29.25 18.3 28.1 17.85" fill="#4d4e4f" fill-rule="evenodd" stroke="none"/>
      <path d="M33.75 17.5 L33.2 20.4 32.1 20.6 31.15 20.2 30.65 19.25 31.2 17.8 33.75 17.5" fill="#4d4e4f" fill-rule="evenodd" stroke="none"/>
      <path d="M26.65 14.55 L26.35 16.4 25.05 16.75 23.65 16.5 23.0 15.25 24.1 11.8 26.65 14.55" fill="#4d4e4f" fill-rule="evenodd" stroke="none"/>
      <path d="M25.4 13.8 Q25.8 13.9 25.65 14.35 25.55 14.85 25.2 14.65 24.85 14.6 24.95 14.15 25.1 13.7 25.4 13.8" fill="#e9c9a0" fill-rule="evenodd" stroke="none"/>
      <path d="M29.75 16.45 Q29.6 16.85 29.25 16.65 28.95 16.5 29.1 16.15 29.35 15.75 29.5 15.85 29.85 16.0 29.75 16.45" fill="#e9c9a0" fill-rule="evenodd" stroke="none"/>
      <path d="M32.65 18.3 Q32.95 18.45 32.75 18.8 32.6 19.2 32.35 18.95 32.1 18.75 32.25 18.45 32.4 18.15 32.65 18.3" fill="#e9c9a0" fill-rule="evenodd" stroke="none"/>
      <path d="M27.75 18.9 L28.25 21.35 27.85 23.4 28.15 24.35 28.05 25.3 28.4 26.1 28.9 26.75 28.1 26.5 27.5 24.95 26.8 24.05 27.6 21.35 27.75 18.9" fill="#4d4e4f" fill-rule="evenodd" stroke="none"/>
      <path d="M27.75 18.9 L27.75 21.45 27.35 23.6 27.85 24.6 27.65 25.55 27.05 25.05 25.8 24.4 25.9 23.2 26.6 23.15 27.35 21.25 27.75 18.9" fill="#4d4e4f" fill-rule="evenodd" stroke="none"/>
      <path d="M29.0 24.15 L29.3 26.05 29.1 27.3 27.9 26.75 27.6 25.8 27.05 25.05 27.2 25.05 27.7 24.95 28.2 26.2 28.9 26.75 29.15 26.15 28.8 24.3 29.25 19.95 29.0 24.15" fill="#4d4e4f" fill-rule="evenodd" stroke="none"/>
      <path d="M25.2 27.0 L23.1 27.95 25.55 25.9 27.0 26.95 28.4 27.4 28.75 30.7 28.05 28.45 26.8 27.7 25.2 27.0" fill="#4d4e4f" fill-rule="evenodd" stroke="none"/>
      <path d="M25.95 28.35 L25.1 28.55 25.85 28.05 27.0 28.55 26.65 29.7 26.65 28.7 25.95 28.35" fill="#4d4e4f" fill-rule="evenodd" stroke="none"/>
      <path d="M22.7 23.8 L22.3 26.5 21.45 29.4 23.85 31.6 28.45 32.1 26.95 32.35 23.4 32.25 21.7 31.4 20.5 29.85 18.8 29.5 18.0 27.25 19.2 19.1 20.85 15.9 22.4 14.4 23.6 11.0 22.9 14.3 22.0 16.6 22.7 23.8" fill="#4d4e4f" fill-rule="evenodd" stroke="none"/>
      <path d="M22.95 18.75 L25.15 19.45 24.05 24.55 24.45 20.05 22.95 18.75" fill="#4d4e4f" fill-rule="evenodd" stroke="none"/>
      <path d="M31.65 23.4 L30.95 23.45 29.75 27.0 30.8 22.75 31.65 23.4" fill="#4d4e4f" fill-rule="evenodd" stroke="none"/>
      <path d="M26.65 14.55 L26.35 16.4 25.05 16.75 25.95 16.2 26.1 14.7 24.1 11.8 26.65 14.55" fill="#404142" fill-rule="evenodd" stroke="none"/>
      <path d="M30.55 16.4 L29.9 18.2 29.25 18.3 29.75 17.95 30.1 16.55 28.3 14.05 30.55 16.4" fill="#404142" fill-rule="evenodd" stroke="none"/>
      <path d="M33.0 20.1 L33.5 17.75 31.2 17.8 33.75 17.5 33.2 20.4 32.1 20.6 33.0 20.1" fill="#404142" fill-rule="evenodd" stroke="none"/>
      <path d="M21.55 16.05 L20.75 19.25 21.6 23.45 20.8 29.15 23.1 31.55 26.95 32.35 23.4 32.25 21.7 31.4 20.35 29.75 18.8 29.5 17.9 27.05 19.2 19.1 21.05 16.1 21.55 16.05" fill="#404142" fill-rule="evenodd" stroke="none"/>
      <path d="M20.1 23.0 L20.4 24.1 19.65 23.45 19.2 24.25 19.2 25.2 18.9 24.5 19.3 23.05 20.1 23.0" fill="#2f3030" fill-rule="evenodd" stroke="none"/>
      <path d="M25.9 23.25 L26.2 24.25 27.3 24.85 27.65 25.55 27.9 26.75 27.45 25.6 27.05 25.05 25.8 24.4 25.9 23.25" fill="#404142" fill-rule="evenodd" stroke="none"/>
      <path d="M27.0 26.95 L28.4 27.4 28.75 30.7 28.3 27.55 26.65 27.0 25.5 26.35 23.1 27.95 25.55 25.9 27.0 26.95" fill="#404142" fill-rule="evenodd" stroke="none"/>
      <path d="M18.75 29.3 L20.6 29.5 21.8 31.25 23.5 32.15 26.85 32.3 23.4 32.25 21.7 31.4 20.45 29.8 18.8 29.5 18.75 29.3" fill="#2f3030" fill-rule="evenodd" stroke="none"/>
      <path d="M28.85 20.2 L29.15 20.2 29.0 21.55 28.65 22.5 28.85 20.2" fill="#898b8c" fill-rule="evenodd" stroke="none"/>
      <path d="M26.8 15.45 L26.75 14.45 26.5 13.85 27.0 14.15 26.8 15.45" fill="#4d4e4f" fill-rule="evenodd" stroke="none"/>
      <path d="M30.8 16.0 L30.8 16.9 30.4 15.85 30.8 16.0" fill="#4d4e4f" fill-rule="evenodd" stroke="none"/>
      <path d="M22.85 27.8 L22.85 28.1 22.9 28.2 23.2 28.25 22.8 28.4 22.75 28.25 22.85 27.8" fill="#4d4e4f" fill-rule="evenodd" stroke="none"/>
      <path d="M28.45 30.75 L28.6 30.95 28.75 30.95 28.95 30.75 28.75 31.1 28.55 31.1 28.45 30.75" fill="#4d4e4f" fill-rule="evenodd" stroke="none"/>
      <path d="M31.0 21.65 L31.15 21.75 31.55 21.65 31.25 21.9 30.85 21.8 30.85 21.35 31.0 21.65" fill="#4d4e4f" fill-rule="evenodd" stroke="none"/>
      <path d="M23.2 16.95 L23.35 17.1 23.7 16.95 23.4 17.2 23.05 17.1 23.05 16.65 23.2 16.95" fill="#4d4e4f" fill-rule="evenodd" stroke="none"/>
      <path d="M24.0 29.4 L24.0 29.75 23.8 29.7 Q23.7 29.6 23.85 29.45 23.9 29.3 24.0 29.4" fill="#4d4e4f" fill-rule="evenodd" stroke="none"/>
      <path d="M24.55 27.8 L24.65 27.8 24.6 27.9 24.55 27.9 24.55 27.8" fill="#4d4e4f" fill-rule="evenodd" stroke="none"/>
      <path d="M24.4 25.4 Q24.3 25.2 24.45 25.15 L24.55 25.2 24.55 25.4 24.4 25.4" fill="#4d4e4f" fill-rule="evenodd" stroke="none"/>
      <path d="M23.15 25.4 L23.3 25.1 23.45 25.3 23.25 25.55 23.15 25.4" fill="#4d4e4f" fill-rule="evenodd" stroke="none"/>
      <path d="M27.8 29.25 L27.8 29.0 Q27.85 28.85 28.0 29.05 L27.9 29.3 27.8 29.25" fill="#4d4e4f" fill-rule="evenodd" stroke="none"/>
      <path d="M31.55 22.2 L31.75 22.15 31.75 22.4 31.55 22.4 31.55 22.2" fill="#4d4e4f" fill-rule="evenodd" stroke="none"/>
      <path d="M30.3 20.85 Q30.25 20.7 30.35 20.65 L30.5 20.7 30.4 20.9 30.3 20.85" fill="#4d4e4f" fill-rule="evenodd" stroke="none"/>
      <path d="M23.75 21.45 Q23.6 21.2 23.8 21.0 23.95 20.8 24.1 21.1 L24.0 21.55 Q23.75 21.65 23.75 21.45" fill="#4d4e4f" fill-rule="evenodd" stroke="none"/>
      <path d="M25.95 18.75 L26.0 18.5 26.2 18.65 26.05 18.85 25.95 18.75" fill="#4d4e4f" fill-rule="evenodd" stroke="none"/>
      <path d="M24.1 18.25 L24.15 18.15 24.25 18.2 24.2 18.3 24.1 18.25" fill="#4d4e4f" fill-rule="evenodd" stroke="none"/>
      <path d="M22.85 18.25 L22.85 18.1 22.95 18.15 22.95 18.3 Q22.85 18.4 22.85 18.25" fill="#4d4e4f" fill-rule="evenodd" stroke="none"/>
      <path d="M21.35 20.35 L21.5 20.05 21.65 20.25 21.5 20.45 21.35 20.35" fill="#4d4e4f" fill-rule="evenodd" stroke="none"/>
      <path d="M20.3 20.2 Q20.2 19.95 20.35 19.9 L20.45 20.0 20.45 20.2 20.3 20.2" fill="#2f3030" fill-rule="evenodd" stroke="none"/>
      <path d="M19.55 21.7 L19.55 21.5 19.7 21.5 19.7 21.7 19.55 21.7" fill="#2f3030" fill-rule="evenodd" stroke="none"/>
      <path d="M24.4 14.55 L24.5 14.6 24.4 14.7 24.35 14.65 24.4 14.55" fill="#4d4e4f" fill-rule="evenodd" stroke="none"/>
      <path d="M28.3 16.05 L28.35 16.05 28.35 16.15 28.3 16.15 28.3 16.05" fill="#4d4e4f" fill-rule="evenodd" stroke="none"/>
      <path d="M29.05 17.25 L29.0 17.15 29.1 17.1 29.15 17.2 29.05 17.25" fill="#4d4e4f" fill-rule="evenodd" stroke="none"/>
      <path d="M31.9 18.75 L31.9 18.85 31.8 18.8 31.85 18.7 31.9 18.75" fill="#4d4e4f" fill-rule="evenodd" stroke="none"/>
      <path d="M32.45 19.9 L32.55 20.1 Q32.5 20.25 32.35 20.2 L32.3 20.0 Q32.3 19.85 32.45 19.9" fill="#4d4e4f" fill-rule="evenodd" stroke="none"/>
      <path d="M29.2 19.2 L29.3 19.3 29.2 19.4 29.15 19.3 29.2 19.2" fill="#4d4e4f" fill-rule="evenodd" stroke="none"/>
      <path d="M27.7 18.55 L27.45 18.5 27.55 18.25 27.75 18.35 27.7 18.55" fill="#4d4e4f" fill-rule="evenodd" stroke="none"/>
      <path d="M26.7 17.55 L26.45 17.5 26.55 17.25 26.75 17.35 26.7 17.55" fill="#4d4e4f" fill-rule="evenodd" stroke="none"/>
      <path d="M30.9 17.05 L30.85 15.95 28.25 13.75 27.15 13.95 23.6 11.0 22.4 14.4 20.85 15.9 19.2 19.1 17.9 27.05 18.7 29.15 18.8 29.5 19.0 29.5 20.45 29.85 21.7 31.4 23.4 32.25 26.95 32.35 28.45 32.1 31.25 27.0 31.4 24.65 32.5 21.85 33.3 21.05 34.05 17.6 33.2 17.15 30.9 17.05 M23.6 10.5 L23.85 10.55 25.3 11.8 25.35 11.85 27.25 13.45 28.2 13.3 28.25 13.3 28.45 13.35 29.65 14.3 29.65 14.35 31.1 15.5 31.25 15.85 31.25 16.6 33.25 16.65 34.25 17.15 Q34.55 17.35 34.45 17.7 L33.65 21.15 33.5 21.4 32.8 22.15 31.8 24.75 31.65 27.0 31.55 27.25 28.8 32.35 28.5 32.6 26.95 32.8 23.35 32.75 23.2 32.7 21.55 31.85 21.45 31.75 20.25 30.3 18.9 30.0 18.75 29.95 18.45 29.7 17.55 27.3 17.55 27.0 18.8 19.05 18.85 18.9 20.55 15.65 22.1 14.1 23.25 10.8 23.5 10.5 23.6 10.5" fill="#525355" fill-rule="evenodd" stroke="none"/>
      <path d="M49.35 51.35 L0.0 51.35 0.0 0.0 49.35 0.0 49.35 51.35" fill="#ffffff" fill-opacity="0.0" fill-rule="evenodd" stroke="none"/>
    </g>
    <linearGradient gradientTransform="matrix(-0.0154, -0.022, -0.022, 0.0154, 25.9, 26.65)" gradientUnits="userSpaceOnUse" id="gradient0" spreadMethod="pad" x1="-819.2" x2="819.2">
      <stop offset="0.0" stop-color="#ebebeb"/>
      <stop offset="1.0" stop-color="#dbdbdb"/>
    </linearGradient>
  </defs>
</svg>
