<?xml version="1.0" encoding="UTF-8" standalone="no"?>
<svg xmlns:xlink="http://www.w3.org/1999/xlink" height="171.75px" width="171.7px" xmlns="http://www.w3.org/2000/svg">
  <g transform="matrix(1.0, 0.0, 0.0, 1.0, 0.0, 0.0)">
    <use height="171.75" transform="matrix(1.0, 0.0, 0.0, 1.0, 0.0, 0.0)" width="171.7" xlink:href="#shape0"/>
    <use height="128.6" transform="matrix(1.0, 0.0, 0.0, 1.0, 21.45, 19.25)" width="128.8" xlink:href="#sprite0"/>
    <use height="25.75" transform="matrix(1.0, 0.0, 0.0, 1.0, 73.2, 29.0)" width="25.25" xlink:href="#shape2"/>
    <use height="61.9" transform="matrix(1.0, 0.0, 0.0, 1.0, 21.5, 85.95)" width="128.65" xlink:href="#sprite1"/>
    <use height="59.95" transform="matrix(1.0, 0.0, 0.0, 1.0, 29.2, 66.5)" width="108.8" xlink:href="#shape4"/>
    <use height="38.05" transform="matrix(1.0, 0.0, 0.0, 1.0, 35.65, 83.9)" width="100.35" xlink:href="#sprite2"/>
    <use height="86.2" transform="matrix(1.0, 0.0, 0.0, 1.0, 27.55, 58.25)" width="116.55" xlink:href="#sprite3"/>
    <use height="29.15" transform="matrix(1.0, 0.0, 0.0, 1.0, 40.0, 86.0)" width="91.95" xlink:href="#sprite4"/>
    <use height="14.15" transform="matrix(1.0, 0.0, 0.0, 1.0, 42.85, 91.7)" width="34.25" xlink:href="#shape9"/>
    <use height="18.8" transform="matrix(1.0, 0.0, 0.0, 1.0, 37.95, 80.2)" width="57.8" xlink:href="#sprite5"/>
    <use height="29.75" transform="matrix(1.0, 0.0, 0.0, 1.0, 38.2, 70.5)" width="57.25" xlink:href="#shape12"/>
    <use height="18.7" transform="matrix(1.0, 0.0, 0.0, 1.0, 43.2, 66.55)" width="21.65" xlink:href="#sprite6"/>
    <use height="8.1" transform="matrix(1.0, 0.0, 0.0, 1.0, 53.75, 74.5)" width="4.75" xlink:href="#shape15"/>
    <use height="5.7" transform="matrix(1.0, 0.0, 0.0, 1.0, 52.55, 69.2)" width="6.6" xlink:href="#sprite7"/>
    <use height="23.1" transform="matrix(1.0, 0.0, 0.0, 1.0, 46.0, 71.2)" width="37.3" xlink:href="#shape18"/>
    <use height="19.65" transform="matrix(1.0, 0.0, 0.0, 1.0, 40.35, 79.95)" width="21.2" xlink:href="#sprite9"/>
    <use height="7.9" transform="matrix(1.0, 0.0, 0.0, 1.0, 50.45, 84.3)" width="6.75" xlink:href="#shape21"/>
    <use height="5.95" transform="matrix(1.0, 0.0, 0.0, 1.0, 44.7, 83.15)" width="6.65" xlink:href="#sprite10"/>
    <use height="8.2" transform="matrix(1.0, 0.0, 0.0, 1.0, 67.0, 76.15)" width="9.95" xlink:href="#shape25"/>
    <use height="15.75" transform="matrix(1.0, 0.0, 0.0, 1.0, 62.8, 70.05)" width="18.35" xlink:href="#sprite13"/>
    <use height="7.45" transform="matrix(1.0, 0.0, 0.0, 1.0, 65.9, 72.3)" width="8.85" xlink:href="#sprite14"/>
    <use height="16.25" transform="matrix(1.0, 0.0, 0.0, 1.0, 62.5, 77.65)" width="10.95" xlink:href="#shape30"/>
    <use height="7.3" transform="matrix(1.0, 0.0, 0.0, 1.0, 60.7, 88.65)" width="13.8" xlink:href="#sprite17"/>
    <use height="5.35" transform="matrix(1.0, 0.0, 0.0, 1.0, 61.15, 90.25)" width="8.05" xlink:href="#sprite18"/>
    <use height="13.7" transform="matrix(1.0, 0.0, 0.0, 1.0, 63.55, 79.65)" width="26.2" xlink:href="#shape35"/>
    <use height="16.0" transform="matrix(1.0, 0.0, 0.0, 1.0, 83.25, 78.95)" width="11.45" xlink:href="#sprite21"/>
    <use height="10.15" transform="matrix(1.0, 0.0, 0.0, 1.0, 81.85, 82.2)" width="5.35" xlink:href="#shape38"/>
    <use height="2.2" transform="matrix(1.0, 0.0, 0.0, 1.0, 86.1, 80.6)" width="4.35" xlink:href="#sprite22"/>
    <use height="37.35" transform="matrix(1.0, 0.0, 0.0, 1.0, 33.3, 80.25)" width="95.15" xlink:href="#shape41"/>
    <use height="3.15" transform="matrix(1.0, 0.0, 0.0, 1.0, 71.1, 98.6)" width="8.15" xlink:href="#sprite25"/>
    <use height="2.15" transform="matrix(1.0, 0.0, 0.0, 1.0, 62.6, 98.5)" width="4.3" xlink:href="#sprite27"/>
    <use height="2.5" transform="matrix(1.0, 0.0, 0.0, 1.0, 67.25, 92.9)" width="6.3" xlink:href="#sprite29"/>
    <use height="2.0" transform="matrix(1.0, 0.0, 0.0, 1.0, 66.0, 88.9)" width="2.3" xlink:href="#sprite31"/>
    <use height="2.3" transform="matrix(1.0, 0.0, 0.0, 1.0, 73.35, 87.65)" width="9.95" xlink:href="#sprite33"/>
    <use height="2.2" transform="matrix(1.0, 0.0, 0.0, 1.0, 79.3, 93.5)" width="9.1" xlink:href="#sprite35"/>
    <use height="2.75" transform="matrix(1.0, 0.0, 0.0, 1.0, 89.25, 87.7)" width="5.45" xlink:href="#sprite37"/>
    <use height="1.5" transform="matrix(1.0, 0.0, 0.0, 1.0, 86.05, 84.65)" width="4.95" xlink:href="#sprite39"/>
    <use height="1.6" transform="matrix(1.0, 0.0, 0.0, 1.0, 96.1, 84.25)" width="5.05" xlink:href="#sprite41"/>
    <use height="2.1" transform="matrix(1.0, 0.0, 0.0, 1.0, 107.05, 84.45)" width="5.65" xlink:href="#sprite43"/>
    <use height="0.75" transform="matrix(1.0, 0.0, 0.0, 1.0, 104.25, 81.85)" width="4.1" xlink:href="#sprite45"/>
    <use height="0.95" transform="matrix(1.0, 0.0, 0.0, 1.0, 101.35, 88.45)" width="4.65" xlink:href="#sprite47"/>
    <use height="1.2" transform="matrix(1.0, 0.0, 0.0, 1.0, 94.5, 93.2)" width="3.4" xlink:href="#sprite49"/>
    <use height="2.0" transform="matrix(1.0, 0.0, 0.0, 1.0, 85.95, 98.85)" width="6.1" xlink:href="#sprite51"/>
    <use height="1.85" transform="matrix(1.0, 0.0, 0.0, 1.0, 61.35, 94.1)" width="1.85" xlink:href="#sprite53"/>
    <use height="7.3" transform="matrix(1.0, 0.0, 0.0, 1.0, 82.7, 107.0)" width="7.15" xlink:href="#shape56"/>
    <use height="60.45" transform="matrix(1.0, 0.0, 0.0, 1.0, 26.25, 22.25)" width="119.2" xlink:href="#sprite55"/>
    <use height="66.4" transform="matrix(1.0, 0.0, 0.0, 1.0, 26.25, 22.25)" width="119.2" xlink:href="#sprite56"/>
  </g>
  <defs>
    <g id="shape0" transform="matrix(1.0, 0.0, 0.0, 1.0, 0.0, 0.0)">
      <path d="M0.0 85.9 Q0.0 68.45 6.75 52.5 13.3 37.1 25.15 25.2 37.05 13.3 52.45 6.75 68.4 0.0 85.85 0.0 103.3 0.0 119.25 6.75 134.65 13.3 146.55 25.2 158.4 37.1 164.95 52.5 171.7 68.45 171.7 85.9 171.7 103.35 164.95 119.3 158.4 134.7 146.55 146.6 134.65 158.45 119.25 165.0 103.3 171.75 85.85 171.75 68.4 171.75 52.45 165.0 37.05 158.45 25.15 146.6 13.3 134.7 6.75 119.3 0.0 103.35 0.0 85.9" fill="#ffffff" fill-rule="evenodd" stroke="none"/>
      <path d="M57.95 19.8 Q71.3 14.15 85.85 14.15 115.5 14.15 136.55 35.2 146.45 45.15 151.9 58.0 157.55 71.35 157.55 85.9 157.55 100.45 151.9 113.75 146.45 126.65 136.55 136.55 126.6 146.5 113.75 151.95 100.4 157.6 85.85 157.6 71.3 157.6 57.95 151.95 45.1 146.5 35.15 136.55 25.25 126.65 19.8 113.75 14.15 100.45 14.15 85.9 14.15 71.35 19.8 58.0 25.25 45.15 35.15 35.2 45.1 25.25 57.95 19.8" fill="url(#gradient0)" fill-rule="evenodd" stroke="none"/>
      <path d="M20.6 58.3 Q15.05 71.5 15.05 85.9 15.05 100.3 20.6 113.45 25.95 126.15 35.75 135.95 45.55 145.75 58.25 151.15 71.45 156.7 85.85 156.7 100.25 156.7 113.4 151.15 126.1 145.75 135.9 135.95 145.7 126.15 151.1 113.45 156.65 100.3 156.65 85.9 156.65 71.5 151.1 58.3 145.7 45.6 135.9 35.8 115.2 15.05 85.85 15.05 56.5 15.05 35.75 35.8 25.95 45.6 20.6 58.3 M34.5 34.55 Q44.75 24.25 58.05 18.75 71.3 13.25 85.85 13.25 100.4 13.25 113.65 18.75 126.9 24.25 137.15 34.55 147.45 44.8 152.95 58.1 158.45 71.35 158.45 85.9 158.45 100.45 152.95 113.65 147.45 126.95 137.15 137.2 126.9 147.5 113.65 153.0 100.4 158.5 85.85 158.5 71.3 158.5 58.05 153.0 44.75 147.5 34.5 137.2 24.25 126.95 18.75 113.65 13.3 100.45 13.3 85.9 13.3 71.35 18.75 58.1 24.25 44.8 34.5 34.55" fill="#1c3330" fill-rule="evenodd" stroke="none"/>
    </g>
    <linearGradient gradientTransform="matrix(0.0, -0.0875, -0.0875, 0.0, 85.85, 85.9)" gradientUnits="userSpaceOnUse" id="gradient0" spreadMethod="pad" x1="-819.2" x2="819.2">
      <stop offset="0.07450980392156863" stop-color="#3c5350"/>
      <stop offset="0.19215686274509805" stop-color="#486d66"/>
      <stop offset="0.44313725490196076" stop-color="#67af9d"/>
      <stop offset="0.47843137254901963" stop-color="#6cb9a6"/>
      <stop offset="0.9215686274509803" stop-color="#e0d1b7"/>
    </linearGradient>
    <g id="sprite0" transform="matrix(1.0, 0.0, 0.0, 1.0, 0.0, 0.0)">
      <use height="128.6" transform="matrix(1.0, 0.0, 0.0, 1.0, 0.0, 0.0)" width="128.8" xlink:href="#shape1"/>
    </g>
    <g id="shape1" transform="matrix(1.0, 0.0, 0.0, 1.0, 0.0, 0.0)">
      <path d="M128.8 64.3 Q128.8 90.95 109.95 109.75 91.05 128.6 64.4 128.6 37.7 128.6 18.85 109.75 0.0 90.95 0.0 64.3 0.0 37.65 18.85 18.85 37.7 0.0 64.4 0.0 91.05 0.0 109.95 18.85 128.8 37.7 128.8 64.3" fill="url(#gradient1)" fill-rule="evenodd" stroke="none"/>
    </g>
    <radialGradient cx="0" cy="0" gradientTransform="matrix(0.0786, 0.0, 0.0, -0.0786, 64.4, 64.3)" gradientUnits="userSpaceOnUse" id="gradient1" r="819.2" spreadMethod="pad">
      <stop offset="0.0" stop-color="#ccefe7"/>
      <stop offset="0.08627450980392157" stop-color="#c2e8e0"/>
      <stop offset="0.23921568627450981" stop-color="#a6d6cf"/>
      <stop offset="0.43529411764705883" stop-color="#7bb8b2"/>
      <stop offset="0.6078431372549019" stop-color="#519a96"/>
      <stop offset="0.803921568627451" stop-color="#539a96"/>
      <stop offset="0.8745098039215686" stop-color="#589a96"/>
      <stop offset="0.9254901960784314" stop-color="#629b96"/>
      <stop offset="0.9686274509803922" stop-color="#719b96"/>
      <stop offset="1.0" stop-color="#839c96"/>
    </radialGradient>
    <g id="shape2" transform="matrix(1.0, 0.0, 0.0, 1.0, -73.2, -29.0)">
      <path d="M82.5 33.0 L82.5 52.1 Q82.5 53.35 81.8 54.05 81.1 54.75 80.0 54.75 78.9 54.75 78.2 54.05 77.45 53.35 77.45 52.1 L77.45 35.25 75.5 35.25 Q74.4 35.25 73.75 34.55 73.2 33.9 73.2 32.95 73.2 32.0 73.8 31.35 74.45 30.6 75.5 30.6 L80.25 30.6 Q81.3 30.6 81.9 31.3 82.5 31.95 82.5 33.0" fill="#eafff4" fill-rule="evenodd" stroke="none"/>
      <path d="M82.5 31.4 L82.5 50.5 Q82.5 51.75 81.8 52.45 81.1 53.15 80.0 53.15 78.9 53.15 78.2 52.45 77.45 51.75 77.45 50.5 L77.45 33.65 75.5 33.65 Q74.4 33.65 73.75 32.9 73.2 32.25 73.2 31.35 73.2 30.4 73.8 29.75 74.45 29.0 75.5 29.0 L80.25 29.0 Q81.3 29.0 81.9 29.7 82.5 30.35 82.5 31.4" fill="url(#gradient2)" fill-rule="evenodd" stroke="none"/>
      <path d="M98.45 33.0 L98.45 52.1 Q98.45 53.35 97.75 54.05 97.05 54.75 95.95 54.75 94.85 54.75 94.15 54.05 93.4 53.35 93.4 52.1 L93.4 35.25 91.45 35.25 Q90.35 35.25 89.7 34.55 89.15 33.9 89.15 32.95 89.15 32.0 89.75 31.35 90.4 30.6 91.45 30.6 L96.2 30.6 Q97.25 30.6 97.85 31.3 98.45 31.95 98.45 33.0" fill="#eafff4" fill-rule="evenodd" stroke="none"/>
      <path d="M89.15 31.35 Q89.15 30.4 89.75 29.75 90.4 29.0 91.45 29.0 L96.2 29.0 Q97.25 29.0 97.85 29.7 98.45 30.35 98.45 31.4 L98.45 50.5 Q98.45 51.75 97.75 52.45 97.05 53.15 95.95 53.15 94.85 53.15 94.15 52.45 93.4 51.75 93.4 50.5 L93.4 33.65 91.45 33.65 Q90.35 33.65 89.7 32.9 89.15 32.25 89.15 31.35" fill="url(#gradient3)" fill-rule="evenodd" stroke="none"/>
    </g>
    <linearGradient gradientTransform="matrix(0.0, -0.0147, -0.0147, 0.0, 77.85, 41.05)" gradientUnits="userSpaceOnUse" id="gradient2" spreadMethod="pad" x1="-819.2" x2="819.2">
      <stop offset="0.0" stop-color="#112924"/>
      <stop offset="0.4549019607843137" stop-color="#21423d"/>
      <stop offset="0.9686274509803922" stop-color="#36625f"/>
    </linearGradient>
    <linearGradient gradientTransform="matrix(0.0, -0.0147, -0.0147, 0.0, 93.8, 41.05)" gradientUnits="userSpaceOnUse" id="gradient3" spreadMethod="pad" x1="-819.2" x2="819.2">
      <stop offset="0.0" stop-color="#112924"/>
      <stop offset="0.4549019607843137" stop-color="#21423d"/>
      <stop offset="0.9686274509803922" stop-color="#36625f"/>
    </linearGradient>
    <g id="sprite1" transform="matrix(1.0, 0.0, 0.0, 1.0, 0.0, 0.0)">
      <use height="61.9" transform="matrix(1.0, 0.0, 0.0, 1.0, 0.0, 0.0)" width="128.65" xlink:href="#shape3"/>
    </g>
    <g id="shape3" transform="matrix(1.0, 0.0, 0.0, 1.0, 0.0, 0.0)">
      <path d="M128.1 0.3 L128.65 0.0 Q127.7 25.85 109.05 43.85 90.3 61.9 64.3 61.9 38.75 61.9 20.15 44.45 1.65 27.05 0.0 1.85 7.5 21.35 24.7 33.35 42.25 45.65 63.75 45.65 85.75 45.65 103.5 32.9 120.9 20.4 128.1 0.3" fill="url(#gradient4)" fill-rule="evenodd" stroke="none"/>
    </g>
    <radialGradient cx="0" cy="0" gradientTransform="matrix(0.0616, 0.0, 0.0, -0.0616, 64.35, 30.95)" gradientUnits="userSpaceOnUse" id="gradient4" r="819.2" spreadMethod="pad">
      <stop offset="0.0" stop-color="#ccefe7" stop-opacity="0.0"/>
      <stop offset="0.09411764705882353" stop-color="#c2e8e0" stop-opacity="0.078431375"/>
      <stop offset="0.2549019607843137" stop-color="#a6d6cf" stop-opacity="0.29803923"/>
      <stop offset="0.4666666666666667" stop-color="#7bb8b2" stop-opacity="0.64705884"/>
      <stop offset="0.6509803921568628" stop-color="#519a96"/>
    </radialGradient>
    <g id="shape4" transform="matrix(1.0, 0.0, 0.0, 1.0, -29.2, -66.5)">
      <path d="M57.55 68.3 L58.25 68.7 60.15 70.1 63.25 69.8 63.65 69.8 Q65.3 68.4 67.9 68.25 L70.4 67.9 74.65 67.8 76.75 68.55 Q80.45 67.95 83.3 70.0 84.6 70.9 85.35 72.05 L86.95 72.05 Q87.85 70.65 89.3 69.85 90.75 69.05 92.35 69.05 94.3 69.05 95.8 70.25 97.3 71.45 97.8 73.4 98.25 75.2 98.05 78.3 L99.45 78.15 106.95 77.55 Q113.7 77.55 119.3 79.3 124.95 81.05 127.3 83.9 128.25 85.0 128.65 86.45 129.45 87.65 129.8 89.1 139.95 95.8 137.35 105.4 134.9 114.4 119.3 120.45 103.7 126.45 82.8 126.45 L81.2 126.45 Q65.5 126.25 53.55 122.6 41.65 118.9 36.85 112.75 33.35 108.7 34.1 101.7 32.35 100.15 31.6 98.05 L31.6 98.0 31.5 97.95 31.3 97.8 Q29.65 96.8 29.35 94.8 29.2 93.85 29.45 92.1 L29.5 91.95 Q29.75 90.25 31.2 88.95 32.6 87.65 34.5 87.25 L34.35 86.65 Q34.2 86.1 34.3 85.4 L34.4 84.4 34.4 83.9 34.8 81.2 Q34.9 80.0 35.8 78.25 L36.15 77.55 Q36.9 76.1 37.45 75.4 38.45 74.25 40.0 73.7 L41.25 73.25 Q42.6 70.85 43.55 69.9 44.75 68.8 46.3 68.8 48.25 68.8 49.85 70.5 51.3 69.1 53.2 67.95 L56.55 67.85 57.55 68.3" fill="#dbf0e8" fill-rule="evenodd" stroke="none"/>
      <path d="M56.55 67.0 L58.25 67.85 60.15 69.25 63.25 68.95 63.65 68.95 Q65.3 67.55 67.9 67.4 L70.4 67.05 74.65 66.95 76.75 67.7 Q80.45 67.1 83.3 69.15 84.6 70.05 85.35 71.2 L86.95 71.2 Q87.85 69.8 89.3 69.0 90.75 68.2 92.35 68.2 94.3 68.2 95.8 69.4 97.3 70.6 97.8 72.55 98.25 74.35 98.05 77.45 L99.45 77.3 106.95 76.7 Q113.7 76.7 119.3 78.45 124.95 80.2 127.3 83.05 128.25 84.15 128.65 85.6 129.45 86.8 129.8 88.25 139.95 94.95 137.35 104.55 134.9 113.55 119.3 119.6 103.7 125.6 82.8 125.6 L81.2 125.6 Q65.5 125.4 53.55 121.7 41.65 118.05 36.85 111.9 33.35 107.85 34.1 100.85 32.35 99.35 31.6 97.2 L31.6 97.15 31.5 97.1 31.3 96.95 Q29.65 95.95 29.35 93.95 29.2 93.0 29.45 91.25 L29.5 91.1 Q29.75 89.4 31.2 88.1 32.6 86.8 34.5 86.4 L34.35 85.8 Q34.2 85.25 34.3 84.55 L34.4 83.5 34.4 83.05 34.8 80.35 Q34.9 79.15 35.8 77.4 L36.15 76.7 Q36.9 75.25 37.45 74.55 38.45 73.4 40.0 72.85 L41.25 72.4 Q42.6 70.0 43.55 69.05 44.75 67.95 46.3 67.95 48.25 67.95 49.85 69.65 51.3 68.25 53.2 67.1 L56.55 67.0" fill="url(#gradient5)" fill-rule="evenodd" stroke="none"/>
      <path d="M56.55 67.0 L53.2 67.1 Q51.3 68.25 49.85 69.65 48.25 67.95 46.3 67.95 44.75 67.95 43.55 69.05 42.6 70.0 41.25 72.4 L40.0 72.85 Q38.45 73.4 37.45 74.55 36.9 75.25 36.15 76.7 L35.8 77.4 Q34.9 79.15 34.8 80.35 L34.4 83.05 34.4 83.5 34.3 84.55 Q34.2 85.25 34.35 85.8 L34.5 86.4 Q32.6 86.8 31.2 88.1 29.75 89.4 29.5 91.1 L29.45 91.25 Q29.2 93.0 29.35 93.95 29.65 95.95 31.3 96.95 L31.5 97.1 31.6 97.15 31.6 97.2 Q32.35 99.35 34.1 100.85 33.35 107.85 36.85 111.9 41.65 118.05 53.55 121.7 65.5 125.4 81.2 125.6 L82.8 125.6 Q103.7 125.6 119.3 119.6 134.9 113.55 137.35 104.55 139.95 94.95 129.8 88.25 129.45 86.8 128.65 85.6 128.25 84.15 127.3 83.05 124.95 80.2 119.3 78.45 113.7 76.7 106.95 76.7 L99.45 77.3 98.05 77.45 Q98.25 74.35 97.8 72.55 97.3 70.6 95.8 69.4 94.3 68.2 92.35 68.2 90.75 68.2 89.3 69.0 87.85 69.8 86.95 71.2 L85.35 71.2 Q84.6 70.05 83.3 69.15 80.45 67.1 76.75 67.7 L74.65 66.95 70.4 67.05 67.9 67.4 Q65.3 67.55 63.65 68.95 L63.25 68.95 60.15 69.25 58.25 67.85 56.55 67.0 Z" fill="none" stroke="#dbf0e8" stroke-linecap="butt" stroke-linejoin="miter" stroke-width="0.25"/>
      <path d="M55.25 69.65 L56.55 70.3 58.65 71.9 58.9 72.4 58.9 72.55 59.0 73.95 Q59.65 72.2 60.85 72.15 L63.5 71.95 63.6 71.95 64.95 72.1 65.3 71.5 Q66.15 70.5 68.1 70.35 L70.85 70.0 74.05 69.9 76.35 70.8 Q79.45 70.0 81.6 71.55 83.0 72.55 83.4 73.85 83.7 74.3 83.8 75.1 84.35 74.45 85.35 74.2 L87.55 74.3 88.3 74.4 88.75 74.2 Q88.85 73.5 89.2 73.3 89.6 72.35 90.5 71.8 91.35 71.2 92.35 71.2 93.3 71.2 94.0 71.75 94.7 72.35 94.9 73.3 95.3 74.8 94.9 79.6 95.45 79.6 95.55 80.2 L95.55 80.65 99.9 80.25 106.95 79.7 Q113.35 79.7 118.55 81.35 123.25 82.85 125.05 84.95 125.8 85.9 125.8 86.8 126.9 88.0 127.1 90.1 136.65 95.75 134.5 103.8 132.35 111.7 117.35 117.2 102.35 122.65 82.8 122.65 L81.25 122.6 Q66.35 122.4 54.9 119.0 43.45 115.55 39.1 110.0 36.95 107.55 36.95 103.2 L37.4 99.35 Q35.2 98.55 34.45 96.2 34.1 95.2 33.05 94.5 L32.85 94.4 Q32.05 93.9 32.4 91.75 L32.45 91.6 Q32.55 90.8 33.4 90.15 34.25 89.4 35.45 89.3 L38.1 89.05 Q39.25 89.05 40.1 89.4 L39.95 88.85 39.55 88.8 Q39.05 88.65 38.65 88.0 L38.65 87.95 37.75 86.55 37.25 85.2 37.25 84.95 37.4 83.65 37.4 82.9 37.55 82.05 37.75 80.55 38.45 78.75 38.8 78.05 39.65 76.55 Q40.15 75.95 41.0 75.65 L43.35 74.85 Q45.0 71.75 45.6 71.2 45.9 70.9 46.3 70.9 46.95 70.9 47.75 71.75 L49.55 74.0 49.9 74.5 Q50.65 72.75 52.65 71.05 54.1 69.9 54.65 69.7 L55.25 69.65" fill="#1c3330" fill-rule="evenodd" stroke="none"/>
    </g>
    <linearGradient gradientTransform="matrix(0.0, -0.036, -0.036, 0.0, 83.6, 96.1)" gradientUnits="userSpaceOnUse" id="gradient5" spreadMethod="pad" x1="-819.2" x2="819.2">
      <stop offset="0.0" stop-color="#1e7b6a"/>
      <stop offset="0.7098039215686275" stop-color="#9fe0b8"/>
    </linearGradient>
    <g id="sprite2" transform="matrix(1.0, 0.0, 0.0, 1.0, 0.0, 0.0)">
      <clipPath id="clipPath0" transform="matrix(1.0, 0.0, 0.0, 1.0, 0.0, 0.0)">
        <use height="28.75" transform="matrix(1.0912, 0.0, 0.0, 1.3078, 2.2915, 0.0654)" width="87.75" xlink:href="#shape5"/>
      </clipPath>
      <g clip-path="url(#clipPath0)">
        <use height="38.05" transform="matrix(1.0, 0.0, 0.0, 1.0, 0.0, 0.0)" width="100.35" xlink:href="#shape6"/>
      </g>
    </g>
    <g id="shape5" transform="matrix(1.0, 0.0, 0.0, 1.0, -2.1, -0.05)">
      <path d="M48.4 0.05 L50.1 0.05 Q68.2 0.3 79.75 4.65 91.35 9.05 89.6 15.0 87.9 20.95 73.9 25.0 59.9 29.05 41.8 28.8 23.75 28.6 12.15 24.2 0.6 19.8 2.3 13.85 4.0 8.1 17.4 4.05 30.85 0.05 48.4 0.05" fill="#ff0000" fill-rule="evenodd" stroke="none"/>
    </g>
    <g id="shape6" transform="matrix(1.0, 0.0, 0.0, 1.0, 0.0, 0.0)">
      <path d="M100.3 38.0 L0.0 38.05 0.0 0.05 100.35 0.0 100.3 38.0" fill="url(#gradient6)" fill-rule="evenodd" stroke="none"/>
    </g>
    <linearGradient gradientTransform="matrix(0.0582, 0.0, 0.0, 0.061, 50.05, 19.05)" gradientUnits="userSpaceOnUse" id="gradient6" spreadMethod="pad" x1="-819.2" x2="819.2">
      <stop offset="0.0" stop-color="#9d9fa1"/>
      <stop offset="0.023529411764705882" stop-color="#9d9fa1"/>
      <stop offset="1.0" stop-color="#77797a"/>
    </linearGradient>
    <g id="sprite3" transform="matrix(1.0, 0.0, 0.0, 1.0, 0.0, 0.0)">
      <clipPath id="clipPath1" transform="matrix(1.0, 0.0, 0.0, 1.0, 0.0, 0.0)">
        <use height="28.75" transform="matrix(1.0912, 0.0, 0.0, 1.1983, 10.3915, 25.7099)" width="87.75" xlink:href="#shape5"/>
      </clipPath>
      <g clip-path="url(#clipPath1)">
        <use height="86.2" transform="matrix(1.0, 0.0, 0.0, 1.0, 0.0, 0.0)" width="116.55" xlink:href="#shape7"/>
      </g>
    </g>
    <g id="shape7" transform="matrix(1.0, 0.0, 0.0, 1.0, 0.0, 0.0)">
      <path d="M102.0 86.2 L0.0 58.25 14.6 0.0 116.55 27.95 102.0 86.2" fill="url(#gradient7)" fill-rule="evenodd" stroke="none"/>
    </g>
    <linearGradient gradientTransform="matrix(-0.0613, -0.0168, 0.0161, -0.0643, 53.55, 41.8)" gradientUnits="userSpaceOnUse" id="gradient7" spreadMethod="pad" x1="-819.2" x2="819.2">
      <stop offset="0.0" stop-color="#cfd1d2"/>
      <stop offset="1.0" stop-color="#ffffff"/>
    </linearGradient>
    <g id="sprite4" transform="matrix(1.0, 0.0, 0.0, 1.0, 0.0, 0.0)">
      <clipPath id="clipPath2" transform="matrix(1.0, 0.0, 0.0, 1.0, 0.0, 0.0)">
        <use height="28.75" transform="matrix(1.0, 0.0, 0.0, 1.0, 2.1, 0.05)" width="87.75" xlink:href="#shape5"/>
      </clipPath>
      <g clip-path="url(#clipPath2)">
        <use height="29.15" transform="matrix(1.0, 0.0, 0.0, 1.0, 0.0, 0.0)" width="91.95" xlink:href="#shape8"/>
      </g>
    </g>
    <g id="shape8" transform="matrix(1.0, 0.0, 0.0, 1.0, 0.0, 0.0)">
      <path d="M91.95 29.15 L0.0 29.1 0.0 0.0 91.9 0.05 91.95 29.15" fill="url(#gradient8)" fill-rule="evenodd" stroke="none"/>
    </g>
    <linearGradient gradientTransform="matrix(0.0533, 0.0, 0.0, 0.051, 46.0, 14.55)" gradientUnits="userSpaceOnUse" id="gradient8" spreadMethod="pad" x1="-819.2" x2="819.2">
      <stop offset="0.0" stop-color="#cfd1d2"/>
      <stop offset="1.0" stop-color="#ffffff"/>
    </linearGradient>
    <g id="shape9" transform="matrix(1.0, 0.0, 0.0, 1.0, -42.85, -91.7)">
      <path d="M47.1 100.85 Q46.55 100.55 45.25 100.4 L43.35 100.0 Q42.6 99.6 42.95 98.5 43.3 97.4 44.15 97.2 L75.0 91.7 76.7 95.15 Q77.45 97.15 76.8 98.9 76.4 100.0 75.4 100.9 L73.4 102.3 Q70.6 104.2 68.75 104.7 65.6 105.7 61.2 105.85 L53.5 105.8 Q51.35 105.75 49.9 105.05 48.05 104.15 47.75 102.35 L47.7 101.45 47.1 100.85" fill="#929292" fill-rule="evenodd" stroke="none"/>
    </g>
    <g id="sprite5" transform="matrix(1.0, 0.0, 0.0, 1.0, 0.0, 0.0)">
      <clipPath id="clipPath3" transform="matrix(1.0, 0.0, 0.0, 1.0, 0.0, 0.0)">
        <use height="12.55" transform="matrix(1.0, 0.0, 0.0, 1.0, 1.05, 2.7)" width="55.25" xlink:href="#shape10"/>
      </clipPath>
      <g clip-path="url(#clipPath3)">
        <use height="18.8" transform="matrix(1.0, 0.0, 0.0, 1.0, 0.0, 0.0)" width="57.8" xlink:href="#shape11"/>
      </g>
    </g>
    <g id="shape10" transform="matrix(1.0, 0.0, 0.0, 1.0, -1.05, -2.7)">
      <path d="M50.95 3.65 Q55.85 4.65 56.25 6.35 56.8 8.7 49.15 11.15 41.4 13.6 29.9 14.7 18.2 15.75 9.7 14.75 1.2 13.8 1.05 11.35 0.85 8.95 8.8 6.55 16.7 4.15 28.1 3.15 L38.75 2.7 Q46.2 2.7 50.95 3.65" fill="#ff0000" fill-rule="evenodd" stroke="none"/>
    </g>
    <g id="shape11" transform="matrix(1.0, 0.0, 0.0, 1.0, 0.0, 0.0)">
      <path d="M57.8 16.1 L0.95 18.8 0.0 2.7 56.85 0.0 57.8 16.1" fill="url(#gradient9)" fill-rule="evenodd" stroke="none"/>
    </g>
    <linearGradient gradientTransform="matrix(0.0337, -0.0016, 0.0017, 0.029, 28.65, 9.45)" gradientUnits="userSpaceOnUse" id="gradient9" spreadMethod="pad" x1="-819.2" x2="819.2">
      <stop offset="0.0" stop-color="#9acbd0"/>
      <stop offset="1.0" stop-color="#ffffff"/>
    </linearGradient>
    <g id="shape12" transform="matrix(1.0, 0.0, 0.0, 1.0, -38.2, -70.5)">
      <path d="M65.85 72.0 Q66.45 71.15 68.25 71.0 L71.7 70.6 74.0 70.55 Q75.35 70.85 77.75 72.35 L79.05 73.75 80.0 73.55 Q80.85 73.55 80.65 74.85 80.4 76.2 78.55 76.55 L76.15 76.45 Q75.55 76.2 74.5 77.7 L72.7 80.55 Q71.65 82.3 70.4 82.85 L69.35 84.65 67.9 87.4 Q67.25 88.45 66.45 88.3 L65.35 88.4 64.45 90.7 63.45 93.5 62.4 96.35 Q59.8 95.4 56.55 96.35 53.25 97.3 51.0 99.65 51.0 94.4 53.15 92.0 54.05 91.0 54.2 89.65 54.35 88.55 54.95 88.3 L56.3 87.75 56.65 83.85 Q56.15 83.8 55.9 83.5 55.3 82.9 56.35 81.75 L58.05 79.95 Q58.75 79.05 59.1 77.8 59.3 77.2 59.4 77.5 L59.45 76.55 Q59.45 75.0 59.85 73.95 60.3 72.85 61.05 72.8 L63.7 72.6 65.55 72.85 Q65.5 72.45 65.85 72.0" fill="#428d27" fill-rule="evenodd" stroke="none"/>
      <path d="M61.85 74.4 Q60.9 76.05 62.15 76.8 62.8 77.15 63.4 77.3 L63.95 76.4 Q64.65 75.4 65.4 75.15 L66.95 74.7 Q66.4 73.95 66.65 72.9 66.9 71.8 68.85 71.55 L70.45 71.45 69.3 71.65 Q68.15 71.95 67.85 72.55 67.4 73.55 67.7 74.25 68.0 74.0 68.6 73.7 L71.2 72.7 73.7 71.9 75.05 71.45 Q75.75 71.4 77.0 72.55 L74.85 72.4 73.35 73.05 74.4 72.8 Q75.65 72.65 76.75 73.4 L78.25 74.55 79.0 74.75 80.25 74.55 79.9 75.25 78.45 75.3 76.4 74.15 74.3 73.8 72.1 74.2 72.25 74.5 Q72.55 74.8 73.35 74.9 L75.8 75.1 73.6 75.5 71.5 75.15 70.0 75.2 67.05 76.6 67.75 76.9 69.85 77.5 Q71.75 78.0 72.75 77.25 71.1 78.9 70.05 79.0 L68.15 78.45 66.05 78.35 Q64.95 78.9 64.0 80.0 62.9 81.25 62.65 82.65 L62.2 85.3 65.1 84.5 67.0 83.85 67.9 82.5 Q68.35 81.6 69.0 81.15 L69.55 80.85 68.1 83.7 67.15 85.6 Q66.5 86.4 65.35 86.5 L63.2 86.6 Q62.35 86.7 62.1 87.25 L60.4 89.55 60.75 89.9 Q61.25 90.1 62.05 89.4 62.9 88.7 63.85 88.2 L64.65 87.9 64.75 88.45 Q64.7 89.15 63.95 90.0 63.35 90.7 59.5 96.75 55.7 101.95 54.65 99.4 53.85 97.5 54.45 95.3 L55.2 93.0 Q54.35 90.4 54.7 89.45 54.9 88.9 55.65 88.25 L56.3 87.75 56.85 88.55 Q57.5 89.3 58.1 89.25 59.1 89.2 59.25 88.6 57.55 87.85 57.25 86.45 L56.9 84.8 Q57.35 85.85 58.05 86.35 L60.0 87.75 60.5 87.15 Q60.9 86.4 60.3 85.5 L59.3 84.1 Q59.05 83.55 59.05 82.5 L59.2 80.2 59.35 79.05 60.0 83.0 Q60.3 83.95 61.25 84.3 61.0 82.45 61.4 80.8 61.6 79.75 61.95 79.1 L62.25 78.6 Q61.1 78.7 60.85 77.55 L60.25 76.05 Q59.95 75.2 60.55 74.5 L61.75 73.5 62.75 73.3 63.5 73.25 63.1 73.35 Q62.3 73.65 61.85 74.4" fill="#2e682d" fill-rule="evenodd" stroke="none"/>
      <path d="M64.65 80.5 Q65.7 79.25 67.0 79.65 68.5 80.1 67.75 80.45 L66.85 81.95 Q66.15 83.25 65.5 83.4 L63.05 84.05 Q63.8 81.6 64.65 80.5" fill="#4fa639" fill-rule="evenodd" stroke="none"/>
      <path d="M59.95 77.6 Q61.0 78.05 60.9 78.55 L60.35 79.8 Q59.9 80.95 60.65 83.15 60.15 82.75 59.85 81.35 L59.55 78.85 Q59.5 77.4 59.95 77.6" fill="#4fa639" fill-rule="evenodd" stroke="none"/>
      <path d="M57.8 82.2 Q58.35 82.25 58.45 82.8 L58.5 84.2 Q58.6 85.3 59.7 86.75 57.9 85.8 57.35 84.75 56.95 83.9 57.05 83.05 57.2 82.15 57.8 82.2" fill="#4fa639" fill-rule="evenodd" stroke="none"/>
      <path d="M63.75 73.2 Q64.15 73.3 64.2 74.05 64.25 74.85 63.55 75.2 62.9 75.5 62.8 76.0 L62.85 76.4 Q62.45 76.35 62.3 75.2 62.15 74.3 62.6 73.7 63.0 73.1 63.75 73.2" fill="#4fa639" fill-rule="evenodd" stroke="none"/>
      <path d="M69.05 72.3 Q69.6 71.65 70.45 71.45 L72.3 71.0 Q73.05 70.85 72.8 71.25 L70.8 71.95 Q69.0 72.35 68.65 72.9 L69.05 72.3" fill="#4fa639" fill-rule="evenodd" stroke="none"/>
      <path d="M70.15 76.45 L70.65 76.3 71.6 76.1 73.25 76.4 Q74.2 76.8 73.5 76.95 L71.65 77.15 70.05 76.8 69.3 76.3 70.15 76.45" fill="#4fa639" fill-rule="evenodd" stroke="none"/>
      <path d="M65.0 87.1 L64.35 87.65 Q63.75 87.8 63.25 88.25 62.2 89.15 60.85 88.9 L62.45 87.65 Q63.05 87.0 64.2 86.75 65.3 86.5 65.0 87.1" fill="#4fa639" fill-rule="evenodd" stroke="none"/>
      <path d="M73.7 74.35 L75.3 74.25 76.7 74.45 Q77.35 74.7 77.25 75.0 77.2 75.3 76.4 75.3 75.55 75.35 74.85 75.0 L73.7 74.35" fill="#4fa639" fill-rule="evenodd" stroke="none"/>
      <path d="M41.55 76.25 L44.1 75.4 Q45.6 72.4 46.35 71.7 46.8 71.25 48.0 72.65 L50.15 75.55 Q50.95 76.55 50.65 77.1 50.1 78.1 50.1 78.8 50.1 80.0 50.25 80.5 L50.95 82.7 Q51.3 84.05 51.45 83.9 51.85 83.5 52.75 84.25 53.7 85.0 53.5 85.05 53.0 85.25 53.2 86.25 53.45 87.25 53.65 87.2 54.25 87.05 55.25 87.8 L56.45 88.8 58.4 91.0 Q63.8 96.55 61.25 96.5 L57.4 96.7 53.85 97.2 47.65 97.4 Q46.3 97.25 44.7 95.4 43.35 93.9 42.25 91.75 L41.3 90.35 41.0 89.4 Q40.8 88.35 40.4 88.3 L40.05 88.45 Q38.7 86.8 38.4 85.8 38.15 85.05 38.2 84.5 38.2 83.9 38.55 82.1 L38.8 80.3 Q38.8 80.05 39.35 79.05 L40.3 77.15 Q40.75 76.5 41.55 76.25" fill="#428d27" fill-rule="evenodd" stroke="none"/>
      <path d="M49.85 76.4 L50.15 76.5 49.75 76.95 49.4 77.45 49.2 78.55 48.8 79.75 48.0 80.9 Q47.1 82.35 47.2 84.4 47.2 85.85 47.45 85.8 48.05 84.7 49.0 83.7 49.65 83.1 49.75 81.85 L49.75 80.75 49.95 82.7 49.85 83.9 49.1 85.6 Q48.2 87.5 48.65 88.55 48.95 89.3 49.25 89.45 L50.0 89.05 50.55 88.3 51.15 86.5 Q51.5 85.4 52.05 84.75 L52.55 84.35 52.15 85.55 52.1 86.65 51.9 88.7 Q51.5 90.85 50.6 91.05 L51.45 92.0 52.25 92.9 Q54.45 92.25 54.85 90.75 L55.1 88.75 55.05 87.9 55.35 88.4 55.75 89.7 55.8 90.95 55.3 92.5 Q54.65 94.05 54.1 94.1 L56.95 93.75 Q58.35 93.55 59.7 92.45 L60.7 93.15 60.9 94.45 60.9 95.6 Q60.65 96.5 58.55 96.7 L55.75 97.2 52.0 97.65 Q49.9 97.8 47.45 96.45 L45.45 95.05 47.45 94.7 Q48.9 94.55 49.55 93.9 L47.85 93.9 Q45.95 94.0 44.8 93.2 L43.7 92.0 43.2 91.2 43.7 91.3 Q44.3 91.5 44.85 92.0 L45.75 92.6 46.85 92.85 Q48.05 93.15 48.0 92.4 L45.65 90.9 43.05 89.9 Q42.35 89.65 41.65 87.4 L40.8 86.05 40.05 84.9 40.05 81.1 40.2 82.9 Q40.25 83.65 40.7 84.25 L41.6 85.25 42.25 86.15 42.65 87.15 Q42.85 87.7 43.35 87.9 44.15 88.2 44.65 88.65 L46.6 90.05 45.95 89.05 Q45.6 88.45 45.35 87.15 L45.15 86.0 42.5 83.75 41.15 82.35 40.85 80.65 40.95 78.55 41.15 77.65 41.2 78.9 Q41.2 80.4 42.65 81.85 43.9 83.15 44.7 83.25 L44.45 80.4 44.45 77.45 44.6 76.25 Q45.05 73.9 46.7 73.25 47.55 73.0 47.7 73.75 L47.1 73.7 Q46.4 73.85 45.95 74.8 45.45 75.8 45.45 77.05 L45.6 79.5 46.1 82.7 46.25 82.05 Q46.75 80.4 47.6 80.0 48.05 79.8 48.4 78.75 48.75 77.45 49.05 77.05 49.5 76.45 49.85 76.4" fill="#2e682d" fill-rule="evenodd" stroke="none"/>
      <path d="M44.25 81.25 Q44.65 82.1 44.3 82.3 L42.0 80.2 Q41.2 79.45 41.2 78.5 41.2 77.75 41.65 77.15 42.25 76.3 43.25 79.0 L44.25 81.25" fill="#4fa639" fill-rule="evenodd" stroke="none"/>
      <path d="M44.1 76.6 L44.15 79.55 Q43.2 77.25 43.15 76.6 43.1 76.1 43.55 76.05 44.0 75.95 44.1 76.6" fill="#4fa639" fill-rule="evenodd" stroke="none"/>
      <path d="M46.0 78.85 Q45.6 76.9 46.15 75.8 47.25 73.85 47.9 74.8 48.55 75.7 47.0 76.55 46.3 76.9 46.0 78.85" fill="#4fa639" fill-rule="evenodd" stroke="none"/>
      <path d="M46.15 80.25 Q46.5 79.1 47.6 78.0 L48.3 76.65 48.8 75.6 Q49.15 75.35 49.2 75.85 49.2 76.4 48.65 77.25 L46.15 80.25" fill="#4fa639" fill-rule="evenodd" stroke="none"/>
      <path d="M40.75 83.15 Q41.25 82.1 42.55 84.9 43.25 86.45 44.8 87.4 45.95 88.55 45.55 88.85 L45.25 88.25 Q44.85 87.55 43.55 87.35 43.1 87.25 42.65 86.55 L41.9 85.3 40.95 84.25 Q40.55 83.65 40.75 83.15" fill="#4fa639" fill-rule="evenodd" stroke="none"/>
      <path d="M47.55 84.55 Q47.2 82.95 48.25 81.7 48.95 80.85 49.4 80.95 49.8 81.05 49.5 81.85 L49.0 82.45 Q48.6 82.6 48.3 83.1 L47.55 84.55" fill="#4fa639" fill-rule="evenodd" stroke="none"/>
      <path d="M49.3 88.6 Q48.8 87.8 49.4 86.3 L49.8 84.7 Q49.9 84.15 50.2 84.1 51.15 83.95 50.3 85.8 L49.5 87.35 Q49.2 88.05 49.3 88.6" fill="#4fa639" fill-rule="evenodd" stroke="none"/>
      <path d="M51.5 91.2 Q52.7 90.75 52.55 89.55 52.45 88.65 53.05 88.25 53.65 87.8 53.85 88.8 54.15 90.2 52.5 91.3 L52.35 91.45 51.5 91.2" fill="#4fa639" fill-rule="evenodd" stroke="none"/>
      <path d="M57.1 90.45 Q57.95 90.6 57.9 91.6 57.85 92.45 57.3 93.2 56.7 94.05 54.55 93.9 L54.7 93.75 55.15 93.55 Q55.7 93.55 56.4 91.8 L56.7 90.75 57.1 90.45" fill="#4fa639" fill-rule="evenodd" stroke="none"/>
      <path d="M63.8 89.5 L66.6 89.35 69.7 90.05 Q71.05 89.95 71.7 89.4 72.5 88.7 72.9 86.95 L73.2 83.3 Q73.25 81.35 73.9 81.1 78.45 79.35 79.1 77.7 L79.95 75.65 81.45 75.55 83.25 76.9 Q84.1 77.6 85.05 77.5 L89.5 77.1 93.15 79.1 Q93.8 79.4 95.45 81.9 L93.45 81.15 89.6 81.05 Q87.7 81.75 86.9 82.2 85.95 82.7 85.1 83.5 84.55 84.0 83.35 84.05 82.15 84.05 81.3 84.85 80.45 85.7 79.65 88.2 L78.6 91.0 Q78.25 91.4 77.45 93.3 76.4 95.2 74.5 96.05 L71.6 97.55 68.0 97.75 63.95 97.85 Q62.75 97.95 62.15 97.2 61.75 96.65 58.95 95.7 56.95 95.0 58.15 94.3 L60.55 92.75 63.8 89.5" fill="#428d27" fill-rule="evenodd" stroke="none"/>
      <path d="M58.25 95.4 Q57.65 95.1 57.55 94.8 57.45 94.55 57.75 94.45 L59.2 93.55 61.1 92.15 63.6 89.7 63.35 91.05 Q63.15 92.6 63.45 93.75 64.1 93.15 64.6 91.9 65.25 90.4 67.05 90.2 L68.2 90.35 Q68.95 90.6 68.45 90.55 67.4 90.55 66.4 91.45 65.4 92.4 65.3 93.0 L65.95 92.9 67.35 92.45 68.4 91.8 69.3 90.85 Q69.85 90.25 70.45 90.35 71.25 90.4 70.75 90.55 70.3 90.6 69.1 91.55 68.3 92.2 68.55 92.3 L69.8 92.05 71.25 91.35 72.4 90.4 Q72.65 90.1 72.7 89.3 72.8 88.4 73.15 87.8 L73.65 86.35 73.7 84.65 73.8 83.25 74.15 82.15 Q74.45 81.45 75.2 81.3 L75.9 81.3 75.3 81.6 Q74.6 82.0 74.4 82.45 74.2 82.95 74.3 83.7 L74.6 85.35 Q74.85 86.65 74.6 86.95 L75.2 86.1 75.8 85.15 76.2 84.05 Q76.35 82.75 77.25 81.25 L78.4 79.65 78.15 80.5 77.15 82.65 Q76.85 83.5 77.3 83.7 L78.8 82.4 79.35 81.65 79.25 80.95 78.95 79.65 Q78.75 78.8 78.95 78.3 L79.7 76.7 79.55 78.1 Q79.4 78.7 79.55 79.3 L80.05 80.45 Q80.25 81.05 80.55 80.4 L81.0 79.05 Q81.2 78.6 81.05 78.05 L80.85 76.85 Q80.8 76.25 81.0 75.85 L81.15 75.6 81.4 76.95 81.6 78.55 82.8 78.0 Q84.05 77.65 84.85 78.6 L88.7 79.4 93.45 80.35 Q95.1 81.1 95.45 81.9 94.35 81.25 93.55 81.3 L92.3 81.7 90.3 81.65 87.1 80.4 Q85.15 79.65 84.75 79.8 84.35 80.0 84.1 80.55 L83.55 81.75 82.4 83.85 Q81.7 85.25 81.25 85.2 L79.7 85.05 77.9 85.25 Q77.25 85.55 77.1 85.95 L77.1 86.3 77.7 86.05 80.05 86.4 Q80.65 86.6 81.45 86.4 L80.4 86.95 78.3 86.9 Q77.25 86.7 75.75 87.85 74.65 88.7 73.85 90.95 L74.6 90.6 75.7 90.25 Q76.25 90.2 76.75 89.5 77.4 88.95 78.15 88.9 L79.0 89.1 78.3 89.15 77.5 89.85 76.7 90.65 75.7 90.9 Q75.3 90.95 75.2 91.25 L75.15 92.05 Q75.1 92.35 75.25 92.25 L76.05 91.85 77.9 92.0 77.1 92.1 Q76.4 92.15 75.5 92.65 74.4 93.3 73.55 94.4 72.75 95.4 68.8 96.6 L64.3 97.65 61.25 96.7 58.25 95.4" fill="#2e682d" fill-rule="evenodd" stroke="none"/>
      <path d="M74.95 81.8 L75.55 81.55 75.1 82.45 Q75.0 82.95 75.05 84.1 75.1 85.3 74.6 86.95 L74.55 85.55 Q74.3 84.1 74.35 82.95 74.4 82.15 74.95 81.8" fill="#4fa639" fill-rule="evenodd" stroke="none"/>
      <path d="M77.2 83.5 Q77.1 83.25 77.35 82.5 L77.9 80.95 78.4 79.25 78.25 81.5 78.3 82.55 Q78.3 83.05 78.0 83.15 L77.5 83.65 Q77.35 83.8 77.2 83.5" fill="#4fa639" fill-rule="evenodd" stroke="none"/>
      <path d="M80.4 75.85 L80.05 76.55 Q79.75 77.4 79.9 78.0 L80.5 78.95 80.9 79.7 Q80.95 80.4 80.4 80.8 79.35 79.6 79.4 78.45 L79.7 76.7 80.1 76.05 80.4 75.85" fill="#4fa639" fill-rule="evenodd" stroke="none"/>
      <path d="M81.6 78.55 L81.4 76.95 Q81.2 76.25 81.3 76.0 L81.85 76.1 82.4 76.75 83.0 77.2 Q83.6 77.4 83.8 77.8 L81.6 78.55" fill="#4fa639" fill-rule="evenodd" stroke="none"/>
      <path d="M68.45 90.55 L67.1 91.45 Q66.3 91.75 65.75 92.4 L65.35 93.0 Q65.95 91.5 66.85 90.85 67.4 90.45 67.95 90.45 L68.45 90.55" fill="#4fa639" fill-rule="evenodd" stroke="none"/>
      <path d="M68.75 91.7 Q69.1 91.0 69.95 90.6 70.55 90.3 71.5 90.15 L72.2 89.7 72.75 88.65 72.8 89.05 72.55 90.0 71.95 90.9 70.75 91.7 Q69.5 92.3 68.55 92.3 L68.75 91.7" fill="#4fa639" fill-rule="evenodd" stroke="none"/>
      <path d="M63.45 93.75 L63.35 91.7 Q63.35 89.85 64.35 89.65 L65.85 89.55 66.45 89.55 65.8 89.9 64.75 90.8 Q64.4 91.35 63.95 92.8 L63.45 93.75" fill="#4fa639" fill-rule="evenodd" stroke="none"/>
      <path d="M75.05 89.05 L75.6 87.95 Q76.4 86.9 77.6 86.85 79.5 86.8 79.85 87.2 L77.55 87.7 Q76.4 88.05 75.6 88.6 75.2 88.85 75.05 89.05" fill="#4fa639" fill-rule="evenodd" stroke="none"/>
      <path d="M91.95 71.85 Q93.7 71.65 94.2 73.45 94.55 74.85 94.2 78.8 93.8 83.3 93.9 84.7 94.05 87.1 93.8 88.45 L92.8 92.1 92.75 92.1 Q91.1 91.45 88.8 91.6 L85.05 92.15 78.05 93.6 79.5 88.05 Q79.95 85.9 80.65 84.5 L82.0 82.0 83.0 80.0 83.6 78.25 84.0 76.1 Q84.3 75.15 85.45 74.85 L87.9 75.05 Q89.05 75.2 89.55 73.85 90.2 72.1 91.95 71.85" fill="#428d27" fill-rule="evenodd" stroke="none"/>
      <path d="M90.5 73.6 Q90.9 73.55 90.7 73.85 L90.2 74.4 Q90.0 74.75 90.1 75.45 L90.35 76.85 Q90.4 77.55 90.1 77.95 L88.85 79.7 87.9 80.9 86.6 82.8 Q85.85 84.15 86.65 83.8 87.5 83.45 89.0 81.3 L91.8 77.2 Q92.4 76.45 93.1 76.05 L93.65 75.75 92.95 76.8 91.35 79.45 Q89.35 83.3 87.7 84.2 L85.6 85.35 85.3 86.0 86.75 86.1 89.6 84.95 Q90.75 84.25 91.15 83.05 L92.65 79.85 Q92.6 83.9 91.75 84.65 L91.0 85.5 88.7 86.6 85.1 87.9 85.0 88.75 87.65 88.55 91.15 87.2 92.2 86.1 92.65 85.05 93.05 86.45 Q92.95 88.0 90.5 88.6 L86.95 89.8 85.6 90.8 84.05 91.8 85.1 91.9 87.9 91.45 Q90.3 90.7 92.3 90.5 L91.35 91.7 Q89.95 91.45 88.1 91.65 L85.05 92.15 79.3 93.3 79.75 92.1 Q79.75 92.5 80.4 92.65 81.35 92.85 81.8 92.65 82.25 92.4 81.6 91.85 L80.75 91.15 80.3 90.4 79.85 88.75 80.5 89.6 Q81.25 90.5 81.8 90.45 82.7 90.35 82.8 89.65 L81.7 88.05 Q81.05 87.2 80.9 86.6 80.7 85.9 80.9 84.8 81.0 84.3 81.05 85.25 81.1 86.65 81.45 86.4 L81.9 86.1 82.0 85.2 Q82.05 84.45 82.55 84.25 L83.4 84.05 Q83.65 83.95 83.85 84.25 L83.9 83.85 83.9 82.85 83.9 82.45 Q83.95 82.05 84.5 82.0 L85.4 81.9 Q85.65 81.55 85.3 80.95 L84.95 80.35 Q85.15 80.15 84.75 79.4 L84.35 78.6 84.25 77.5 84.95 78.6 85.95 79.75 86.35 80.05 86.45 79.9 86.25 78.6 Q86.15 78.15 85.65 77.95 L86.05 77.7 87.0 77.3 87.85 77.2 89.0 77.0 Q89.45 76.75 89.4 75.8 L89.3 74.25 Q89.35 73.8 89.7 73.75 L90.5 73.6" fill="#2e682d" fill-rule="evenodd" stroke="none"/>
      <path d="M85.3 82.4 Q85.55 81.4 86.45 79.9 87.2 78.6 88.05 77.85 L88.65 77.0 88.7 76.2 88.8 76.75 Q88.75 77.5 88.1 78.45 L86.4 81.6 87.4 81.25 Q89.4 80.75 90.8 78.05 L90.35 79.2 89.0 81.3 87.55 82.65 86.7 83.6 85.85 85.0 Q85.55 85.8 87.1 85.55 L88.6 85.15 Q89.85 84.7 90.3 84.0 L89.25 85.15 87.3 86.4 Q86.15 86.7 85.85 87.4 85.55 88.05 86.35 88.0 L89.45 87.35 91.65 86.65 87.65 88.55 Q86.9 88.85 86.2 89.85 L85.6 90.8 86.35 90.7 89.5 90.75 Q90.2 90.85 90.1 91.55 L87.5 91.75 85.05 92.15 79.9 93.2 Q79.55 92.5 79.55 91.85 79.5 90.35 79.8 89.0 L80.65 89.85 Q82.05 90.95 82.6 90.9 82.0 90.75 81.45 89.1 L80.95 86.35 80.9 84.8 81.65 86.5 Q82.6 88.15 83.3 88.1 84.0 88.05 83.85 87.35 L83.3 85.4 82.55 81.2 83.5 83.65 Q84.55 85.9 84.85 84.6 L85.3 82.4" fill="#61a23e" fill-rule="evenodd" stroke="none"/>
      <path d="M85.6 75.0 L86.35 75.05 86.55 75.35 86.9 76.0 Q87.35 76.55 88.4 76.6 L87.2 76.7 Q86.35 76.8 85.8 75.8 85.6 75.5 85.2 75.5 84.95 75.5 85.05 75.25 85.25 74.95 85.6 75.0" fill="#4fa639" fill-rule="evenodd" stroke="none"/>
      <path d="M84.15 76.1 Q84.2 75.5 84.35 75.9 L84.95 77.1 85.75 78.75 86.35 79.85 85.1 79.05 84.4 77.7 84.15 76.8 84.15 76.1" fill="#4fa639" fill-rule="evenodd" stroke="none"/>
      <path d="M83.8 79.65 Q83.95 80.35 85.3 81.45 L84.8 81.5 Q84.1 81.55 83.2 80.8 82.9 80.55 83.3 79.65 83.65 78.8 83.8 79.65" fill="#4fa639" fill-rule="evenodd" stroke="none"/>
      <path d="M91.7 72.75 Q92.45 72.25 92.75 72.85 93.05 73.35 92.95 74.35 L92.7 75.15 91.7 75.75 90.35 77.05 90.35 74.85 Q90.2 73.7 91.7 72.75" fill="#4fa639" fill-rule="evenodd" stroke="none"/>
      <path d="M89.55 78.75 Q90.65 77.6 90.5 78.6 90.35 79.55 89.5 80.35 87.9 81.8 88.25 81.1 L88.55 80.2 Q88.75 79.55 89.55 78.75" fill="#4fa639" fill-rule="evenodd" stroke="none"/>
      <path d="M93.1 76.35 L93.8 75.5 93.65 75.75 93.5 76.75 93.1 78.5 92.7 79.65 92.0 80.8 91.1 82.7 90.0 84.25 Q88.95 85.0 87.65 84.5 L89.3 82.95 90.05 82.1 90.8 80.7 91.95 78.2 Q92.35 77.35 93.1 76.35" fill="#4fa639" fill-rule="evenodd" stroke="none"/>
      <path d="M92.3 81.65 Q92.95 80.7 93.05 81.1 L93.05 82.15 Q93.15 83.55 91.7 85.65 91.0 86.8 90.3 86.6 L89.8 86.15 91.45 84.2 92.1 82.6 92.3 81.65" fill="#4fa639" fill-rule="evenodd" stroke="none"/>
      <path d="M84.85 84.6 Q85.55 82.65 87.15 79.6 L88.65 77.0 87.2 79.9 Q85.7 83.3 85.5 85.85 L85.1 92.15 85.05 92.15 82.65 92.6 83.0 91.45 Q83.75 87.8 84.85 84.6" fill="#ced7a5" fill-rule="evenodd" stroke="none"/>
      <path d="M83.95 87.25 Q84.3 84.95 85.95 81.75 L86.1 81.55 85.65 82.55 Q84.7 85.25 84.45 88.75 L84.15 92.5 Q83.95 93.85 83.55 94.35 83.1 94.9 82.95 94.1 82.85 93.4 83.1 92.2 L83.95 87.25" fill="#d8ddb9" fill-rule="evenodd" stroke="none"/>
      <path d="M61.95 86.2 L63.0 85.95 63.8 85.35 64.7 84.65 65.9 84.7 67.2 85.25 67.9 85.25 68.55 85.2 69.35 84.2 69.8 82.85 Q69.95 82.45 71.3 82.35 72.45 82.25 72.6 81.8 L73.55 82.15 77.15 83.3 Q79.6 83.9 80.2 84.4 80.65 84.75 81.4 84.7 82.1 84.65 83.35 85.9 84.9 87.45 85.45 88.3 L86.0 89.8 86.5 91.3 Q86.65 92.1 85.8 92.3 L78.95 94.5 Q72.3 96.35 68.5 96.2 L58.2 97.05 Q52.2 97.65 51.6 96.2 50.95 94.6 52.45 92.45 53.4 91.1 54.95 89.85 L56.55 90.0 Q57.1 90.0 57.7 88.75 L58.65 86.9 Q58.95 86.45 59.7 86.4 L61.95 86.2" fill="#2e682d" fill-rule="evenodd" stroke="none"/>
      <path d="M66.45 88.3 L66.5 88.95 67.25 88.5 Q69.3 87.75 69.65 86.85 L69.9 85.6 Q70.1 84.9 70.9 84.85 L72.3 84.5 73.45 84.6 75.25 85.75 Q76.45 86.6 77.45 86.5 L79.35 86.1 80.9 86.3 82.7 87.05 Q83.6 87.5 84.0 87.95 L85.35 89.85 Q82.05 87.25 80.8 87.15 L79.4 87.15 77.75 87.3 76.3 87.35 74.85 86.8 73.3 86.2 72.15 86.5 Q71.3 86.85 70.4 87.65 69.5 88.4 69.45 88.8 69.3 90.2 71.15 89.7 L73.05 88.85 75.05 89.05 77.7 90.3 79.1 90.9 80.25 90.85 Q81.4 90.65 83.0 91.45 82.35 91.75 79.7 91.5 L77.2 90.9 75.45 90.5 73.5 90.3 72.4 90.4 Q71.95 90.75 70.0 91.15 L71.55 91.15 Q73.25 91.2 74.2 91.75 L75.5 92.65 Q75.95 92.95 76.9 93.05 78.45 93.25 80.8 93.05 79.5 94.2 78.1 94.35 L64.65 94.8 59.15 95.85 Q56.0 96.45 56.9 95.5 57.45 94.5 59.3 93.1 60.95 91.9 62.6 91.15 64.6 90.3 64.85 89.65 64.65 88.65 65.35 87.65 65.8 87.05 66.85 86.5 L67.8 86.1 67.1 86.8 Q66.4 87.6 66.45 88.3" fill="#357d34" fill-rule="evenodd" stroke="none"/>
      <path d="M69.4 84.75 L69.55 84.55 71.05 86.75 73.4 90.6 Q74.3 92.5 68.55 95.55 62.55 98.75 58.7 97.4 55.3 96.2 55.5 91.55 L56.35 87.1 58.2 88.05 57.65 89.3 Q57.1 90.8 57.15 92.25 57.2 93.9 58.5 95.0 59.6 96.0 60.85 95.95 L64.8 95.4 67.55 94.7 Q67.5 94.55 68.4 90.15 L69.3 85.4 69.4 84.75" fill="#42742e" fill-rule="evenodd" stroke="none"/>
      <path d="M73.95 76.4 L75.7 75.7 76.7 76.45 Q77.5 77.15 77.4 76.6 77.35 75.95 79.4 75.65 L82.05 75.8 83.35 77.1 Q82.55 77.75 81.75 77.8 80.65 77.85 80.35 78.7 L79.35 82.3 79.15 82.2 76.85 81.45 76.65 81.75 75.65 82.75 Q74.05 84.2 72.3 84.4 71.2 84.45 70.95 84.1 L73.95 76.4" fill="#42742e" fill-rule="evenodd" stroke="none"/>
      <path d="M57.55 80.55 L57.8 82.2 57.6 83.2 Q57.4 84.0 57.05 84.05 L55.9 83.55 Q55.2 83.15 55.3 83.65 L55.55 85.75 Q54.05 85.25 54.0 85.0 L52.6 80.1 52.95 78.95 53.35 78.05 57.15 79.0 57.55 80.55" fill="#42742e" fill-rule="evenodd" stroke="none"/>
      <path d="M65.7 79.8 Q67.2 80.0 67.65 81.15 68.05 82.2 67.4 83.35 66.6 84.7 65.55 84.05 L65.9 85.85 Q66.15 87.0 66.95 87.95 L65.3 89.55 62.4 84.35 62.05 85.85 Q61.8 87.0 61.15 86.45 60.45 85.95 60.55 84.85 60.6 83.6 62.35 81.7 64.2 79.65 65.7 79.8" fill="#42742e" fill-rule="evenodd" stroke="none"/>
      <path d="M89.6 83.25 L90.6 81.65 92.05 84.25 Q93.35 87.1 92.85 88.3 92.4 89.5 91.35 90.0 L90.45 90.25 89.3 82.95 89.6 83.25" fill="#42742e" fill-rule="evenodd" stroke="none"/>
      <path d="M53.4 74.5 Q54.25 73.05 55.15 72.55 L55.85 72.35 58.4 72.4 58.75 77.0 Q59.05 80.8 58.65 82.7 53.15 81.6 51.85 80.55 L53.4 74.5" fill="#f74622" fill-rule="evenodd" stroke="none"/>
    </g>
    <g id="sprite6" transform="matrix(1.0, 0.0, 0.0, 1.0, 0.0, 0.0)">
      <clipPath id="clipPath4" transform="matrix(1.0, 0.0, 0.0, 1.0, 0.0, 0.0)">
        <use height="11.05" transform="matrix(1.0, 0.0, 0.0, 1.0, 6.6, 3.75)" width="8.6" xlink:href="#shape13"/>
      </clipPath>
      <g clip-path="url(#clipPath4)">
        <use height="18.7" transform="matrix(1.0, 0.0, 0.0, 1.0, 0.0, 0.0)" width="21.65" xlink:href="#shape14"/>
      </g>
    </g>
    <g id="shape13" transform="matrix(1.0, 0.0, 0.0, 1.0, -6.6, -3.75)">
      <path d="M10.15 5.05 L12.0 3.75 12.95 4.2 Q13.95 4.7 15.2 5.85 14.8 5.95 14.1 6.45 12.8 7.5 11.65 9.55 9.95 12.6 10.15 14.75 9.7 14.95 8.65 14.0 8.0 13.4 7.25 13.15 L6.65 13.0 Q6.45 11.05 7.5 8.35 8.15 6.7 10.15 5.05" fill="#ff0000" fill-rule="evenodd" stroke="none"/>
    </g>
    <g id="shape14" transform="matrix(1.0, 0.0, 0.0, 1.0, 0.0, 0.0)">
      <path d="M21.65 10.25 L10.15 18.7 0.0 8.45 11.5 0.0 21.65 10.25" fill="url(#gradient10)" fill-rule="evenodd" stroke="none"/>
    </g>
    <linearGradient gradientTransform="matrix(-0.004, 0.003, -0.0034, -0.0035, 11.4, 8.9)" gradientUnits="userSpaceOnUse" id="gradient10" spreadMethod="pad" x1="-819.2" x2="819.2">
      <stop offset="0.0" stop-color="#f70a3b"/>
      <stop offset="1.0" stop-color="#ca050d"/>
    </linearGradient>
    <g id="shape15" transform="matrix(1.0, 0.0, 0.0, 1.0, -53.75, -74.5)">
      <path d="M58.4 81.7 L56.55 78.7 Q55.8 77.4 55.95 76.35 56.1 75.45 56.8 74.9 57.45 74.3 57.8 74.55 58.2 74.8 58.35 76.3 58.55 78.5 58.4 81.7" fill="#c1250e" fill-rule="evenodd" stroke="none"/>
      <path d="M58.2 81.95 L58.5 82.6 56.75 82.3 53.75 81.45 Q53.75 80.35 54.1 79.6 54.35 78.95 54.8 78.6 L55.75 78.55 Q56.45 79.0 58.2 81.95" fill="#c1250e" fill-rule="evenodd" stroke="none"/>
      <path d="M57.6 76.9 L57.55 77.65 57.25 76.9 57.05 75.95 Q57.2 75.75 57.4 76.15 L57.6 76.9" fill="#b67528" fill-rule="evenodd" stroke="none"/>
      <path d="M55.75 80.8 L54.75 80.65 Q54.55 80.4 54.8 80.2 54.95 80.1 55.35 80.45 L55.75 80.8" fill="#b67528" fill-rule="evenodd" stroke="none"/>
      <path d="M57.5 76.5 Q57.5 77.1 57.25 76.35 L57.35 76.15 57.5 76.5" fill="#e9b782" fill-rule="evenodd" stroke="none"/>
    </g>
    <g id="sprite7" transform="matrix(1.0, 0.0, 0.0, 1.0, 0.0, 0.0)">
      <use height="5.7" transform="matrix(1.0, 0.0, 0.0, 1.0, 0.0, 0.0)" width="6.6" xlink:href="#sprite8"/>
    </g>
    <g id="sprite8" transform="matrix(1.0, 0.0, 0.0, 1.0, 0.0, 0.0)">
      <clipPath id="clipPath5" transform="matrix(1.0, 0.0, 0.0, 1.0, 0.0, 0.0)">
        <use height="2.45" transform="matrix(1.0, 0.0, 0.0, 1.0, 1.7, 1.75)" width="3.3" xlink:href="#shape16"/>
      </clipPath>
      <g clip-path="url(#clipPath5)">
        <use height="5.7" transform="matrix(1.0, 0.0, 0.0, 1.0, 0.0, 0.0)" width="6.6" xlink:href="#shape17"/>
      </g>
    </g>
    <g id="shape16" transform="matrix(1.0, 0.0, 0.0, 1.0, -1.7, -1.75)">
      <path d="M3.7 2.55 L5.0 3.65 4.7 3.9 4.25 4.2 3.05 3.1 2.15 2.5 1.7 1.9 2.4 1.85 Q3.05 2.05 3.7 2.55" fill="#ff0000" fill-rule="evenodd" stroke="none"/>
    </g>
    <g id="shape17" transform="matrix(1.0, 0.0, 0.0, 1.0, 0.0, 0.0)">
      <path d="M6.6 2.8 L3.35 5.7 0.0 2.85 3.3 0.0 6.6 2.8" fill="url(#gradient11)" fill-rule="evenodd" stroke="none"/>
    </g>
    <linearGradient gradientTransform="matrix(-7.0E-4, 6.0E-4, -7.0E-4, -6.0E-4, 3.65, 2.55)" gradientUnits="userSpaceOnUse" id="gradient11" spreadMethod="pad" x1="-819.2" x2="819.2">
      <stop offset="0.0" stop-color="#ffffff"/>
      <stop offset="1.0" stop-color="#000000"/>
    </linearGradient>
    <g id="shape18" transform="matrix(1.0, 0.0, 0.0, 1.0, -46.0, -71.2)">
      <path d="M67.6 81.25 L67.45 82.1 65.9 83.15 64.25 83.45 64.65 84.65 Q65.15 85.9 65.6 86.35 L66.35 87.2 65.1 88.15 63.1 85.45 Q61.1 82.65 61.0 82.25 60.8 81.45 61.55 79.85 L62.4 78.4 64.05 78.4 Q65.85 78.55 66.65 79.35 67.55 80.25 67.6 81.25" fill="#7f6125" fill-rule="evenodd" stroke="none"/>
      <path d="M60.25 86.8 L59.95 83.65 60.75 82.15 Q61.6 81.15 61.7 83.45 61.85 85.8 61.05 86.55 L60.25 86.8" fill="#7f6125" fill-rule="evenodd" stroke="none"/>
      <path d="M66.65 80.45 Q67.1 81.55 66.45 82.25 65.7 83.15 63.6 83.15 L63.95 84.2 64.9 86.05 65.6 87.15 64.3 88.05 63.35 88.95 62.65 86.8 61.25 84.1 60.85 86.05 Q60.15 87.65 58.85 86.15 58.55 85.75 58.35 84.95 58.05 83.4 58.75 81.6 59.6 79.5 61.25 78.7 L64.6 78.6 Q66.2 79.25 66.65 80.45" fill="#ddd89d" fill-rule="evenodd" stroke="none"/>
      <path d="M63.6 83.15 L63.25 82.35 Q62.95 81.55 63.4 81.25 L64.25 81.1 Q64.6 81.25 64.3 81.75 L63.8 82.25 Q63.6 82.45 63.6 83.15" fill="#958f47" fill-rule="evenodd" stroke="none"/>
      <path d="M61.3 84.3 Q61.1 84.1 60.7 84.3 L59.95 84.45 Q59.55 84.4 59.8 83.85 60.0 83.25 60.45 83.2 61.05 83.15 61.3 84.3" fill="#958f47" fill-rule="evenodd" stroke="none"/>
      <path d="M76.9 73.9 L79.7 73.85 82.8 74.05 Q83.2 74.5 83.3 76.3 83.25 76.75 82.45 76.95 L80.95 76.95 80.0 76.75 79.8 78.7 Q79.6 80.15 78.8 81.6 78.4 81.3 77.7 81.1 L76.75 81.1 76.25 81.2 75.65 80.25 77.7 78.55 77.4 75.9 76.6 76.75 Q75.85 77.65 74.35 77.1 L73.2 75.5 76.9 73.9" fill="#7f6125" fill-rule="evenodd" stroke="none"/>
      <path d="M75.3 76.25 Q73.95 76.55 73.35 75.8 72.65 74.9 73.3 73.6 74.0 72.3 75.35 71.8 78.95 70.5 81.2 72.1 82.55 73.05 82.9 74.3 83.2 75.35 82.7 75.8 L79.5 75.7 78.5 80.4 76.75 80.2 75.6 80.25 Q76.55 78.15 76.55 77.35 L76.5 75.75 75.3 76.25" fill="#ddd89d" fill-rule="evenodd" stroke="none"/>
      <path d="M76.5 75.75 Q75.7 74.9 75.15 74.9 74.7 74.9 74.9 74.35 75.15 73.85 75.8 74.0 76.75 74.2 76.5 75.75" fill="#958f47" fill-rule="evenodd" stroke="none"/>
      <path d="M79.5 75.7 L79.9 74.65 Q80.45 73.7 81.25 73.9 82.15 74.2 81.9 74.7 81.65 75.2 80.9 75.25 L80.1 75.2 79.5 75.7" fill="#958f47" fill-rule="evenodd" stroke="none"/>
      <path d="M50.3 76.4 L52.35 75.9 52.8 76.55 52.65 77.3 Q52.55 78.0 53.1 78.4 L54.45 78.65 Q55.75 79.1 55.45 80.0 55.15 80.95 54.2 81.3 L53.35 81.45 53.85 86.4 52.15 86.55 52.1 85.65 51.55 83.5 51.05 82.0 50.3 82.5 Q48.95 83.45 47.5 83.15 46.55 82.95 46.15 81.75 45.65 80.35 46.9 78.7 48.05 77.2 50.3 76.4" fill="#7f6125" fill-rule="evenodd" stroke="none"/>
      <path d="M47.3 81.1 Q46.75 79.5 48.35 77.9 50.1 76.15 52.45 75.9 54.6 75.65 55.65 76.75 56.6 77.7 56.35 78.9 56.15 80.05 55.3 80.45 54.3 81.0 53.7 80.9 L53.85 81.8 Q54.0 82.9 54.3 83.7 L55.25 86.1 53.2 87.2 Q52.75 86.25 52.45 84.65 L51.95 81.8 50.25 82.65 Q48.5 83.3 48.2 82.35 47.6 81.9 47.3 81.1" fill="#ddd89d" fill-rule="evenodd" stroke="none"/>
      <path d="M51.2 80.95 Q51.0 80.9 50.4 81.3 49.9 81.55 49.8 81.15 49.65 80.6 49.95 80.3 50.25 80.0 50.95 80.05 51.9 80.2 51.95 81.8 51.8 81.15 51.2 80.95" fill="#958f47" fill-rule="evenodd" stroke="none"/>
      <path d="M53.7 80.9 Q53.4 79.8 53.9 79.15 L54.6 78.6 Q54.9 78.6 54.9 79.1 L54.55 79.6 Q54.15 79.75 54.05 80.05 L53.7 80.9" fill="#958f47" fill-rule="evenodd" stroke="none"/>
      <path d="M49.7 90.15 Q48.65 88.55 48.4 87.2 L48.4 86.2 48.95 83.0 52.75 84.25 Q55.85 85.3 57.25 86.45 L56.25 89.9 Q55.1 93.5 54.45 94.3 L49.7 90.15" fill="#f74622" fill-rule="evenodd" stroke="none"/>
    </g>
    <g id="sprite9" transform="matrix(1.0, 0.0, 0.0, 1.0, 0.0, 0.0)">
      <clipPath id="clipPath6" transform="matrix(1.0, 0.0, 0.0, 1.0, 0.0, 0.0)">
        <use height="13.55" transform="matrix(1.0, 0.0, 0.0, 1.0, 6.15, 3.05)" width="8.8" xlink:href="#shape19"/>
      </clipPath>
      <g clip-path="url(#clipPath6)">
        <use height="19.65" transform="matrix(1.0, 0.0, 0.0, 1.0, 0.0, 0.0)" width="21.2" xlink:href="#shape20"/>
      </g>
    </g>
    <g id="shape19" transform="matrix(1.0, 0.0, 0.0, 1.0, -6.15, -3.05)">
      <path d="M10.95 8.9 Q12.35 10.95 13.8 12.0 L14.95 12.65 Q15.05 13.3 14.1 14.35 13.1 15.4 12.9 16.6 11.2 16.25 9.15 13.9 7.85 12.45 6.9 9.25 L6.15 6.35 6.75 5.3 Q7.35 4.2 8.6 3.05 L8.9 4.65 Q9.45 6.65 10.95 8.9" fill="#ff0000" fill-rule="evenodd" stroke="none"/>
    </g>
    <g id="shape20" transform="matrix(1.0, 0.0, 0.0, 1.0, 0.0, 0.0)">
      <path d="M13.35 0.0 L21.2 14.0 7.85 19.65 0.0 5.65 13.35 0.0" fill="url(#gradient12)" fill-rule="evenodd" stroke="none"/>
    </g>
    <linearGradient gradientTransform="matrix(0.0031, 0.0056, -0.0065, 0.0027, 10.2, 9.1)" gradientUnits="userSpaceOnUse" id="gradient12" spreadMethod="pad" x1="-819.2" x2="819.2">
      <stop offset="0.0" stop-color="#f70a3b"/>
      <stop offset="1.0" stop-color="#ca050d"/>
    </linearGradient>
    <g id="shape21" transform="matrix(1.0, 0.0, 0.0, 1.0, -50.45, -84.3)">
      <path d="M56.45 86.4 L53.7 87.6 51.7 87.5 Q51.0 87.05 50.65 85.95 50.3 84.85 50.55 84.55 L52.1 84.5 Q53.9 85.05 56.45 86.4" fill="#c1250e" fill-rule="evenodd" stroke="none"/>
      <path d="M56.6 86.7 L57.05 86.6 57.2 86.6 56.65 88.6 55.45 92.2 54.05 91.05 Q52.8 89.55 53.45 88.55 53.8 88.1 55.25 87.35 L56.6 86.7" fill="#c1250e" fill-rule="evenodd" stroke="none"/>
      <path d="M52.45 85.65 L53.05 86.0 Q51.75 86.3 51.6 86.0 51.45 85.75 51.8 85.6 L52.45 85.65" fill="#b67528" fill-rule="evenodd" stroke="none"/>
      <path d="M55.3 89.4 Q55.25 90.35 55.0 90.6 54.75 90.75 54.65 90.4 L54.95 89.8 55.3 89.4" fill="#b67528" fill-rule="evenodd" stroke="none"/>
      <path d="M52.1 85.65 L52.35 85.85 52.0 85.9 Q51.8 85.9 51.85 85.7 L52.1 85.65" fill="#e9b782" fill-rule="evenodd" stroke="none"/>
    </g>
    <g id="sprite10" transform="matrix(1.0, 0.0, 0.0, 1.0, 0.0, 0.0)">
      <use height="5.95" transform="matrix(1.0, 0.0, 0.0, 1.0, 0.0, 0.0)" width="6.65" xlink:href="#sprite11"/>
    </g>
    <g id="sprite11" transform="matrix(1.0, 0.0, 0.0, 1.0, 0.0, 0.0)">
      <clipPath id="clipPath7" transform="matrix(1.0, 0.0, 0.0, 1.0, 0.0, 0.0)">
        <use height="1.85" transform="matrix(1.3784, 0.0, 0.0, 1.973, 2.2, 1.1)" width="1.85" xlink:href="#shape22"/>
      </clipPath>
      <g clip-path="url(#clipPath7)">
        <use height="5.95" transform="matrix(1.0, 0.0, 0.0, 1.0, 0.0, 0.0)" width="6.65" xlink:href="#sprite12"/>
      </g>
    </g>
    <g id="shape22" transform="matrix(1.0, 0.0, 0.0, 1.0, 0.0, 0.0)">
      <path d="M0.0 1.85 L0.0 0.0 1.85 0.0 1.85 1.85 0.0 1.85" fill="#ff0000" fill-rule="evenodd" stroke="none"/>
    </g>
    <g id="sprite12" transform="matrix(1.0, 0.0, 0.0, 1.0, 0.0, 0.0)">
      <clipPath id="clipPath8" transform="matrix(1.0, 0.0, 0.0, 1.0, 0.0, 0.0)">
        <use height="3.6" transform="matrix(1.0, 0.0, 0.0, 1.0, 2.2, 1.1)" width="2.55" xlink:href="#shape23"/>
      </clipPath>
      <g clip-path="url(#clipPath8)">
        <use height="5.95" transform="matrix(1.0, 0.0, 0.0, 1.0, 0.0, 0.0)" width="6.65" xlink:href="#shape24"/>
      </g>
    </g>
    <g id="shape23" transform="matrix(1.0, 0.0, 0.0, 1.0, -2.2, -1.1)">
      <path d="M3.3 2.3 Q3.8 1.45 4.45 1.1 L4.6 1.55 4.75 2.25 3.6 3.4 2.95 4.35 Q2.6 4.8 2.35 4.7 2.05 4.65 2.4 3.8 L3.3 2.3" fill="#ff0000" fill-rule="evenodd" stroke="none"/>
    </g>
    <g id="shape24" transform="matrix(1.0, 0.0, 0.0, 1.0, 0.0, 0.0)">
      <path d="M4.0 0.0 L6.65 3.85 2.65 5.95 0.0 2.1 4.0 0.0" fill="url(#gradient13)" fill-rule="evenodd" stroke="none"/>
    </g>
    <linearGradient gradientTransform="matrix(0.0012, 0.0017, -0.002, 0.001, 2.85, 2.25)" gradientUnits="userSpaceOnUse" id="gradient13" spreadMethod="pad" x1="-819.2" x2="819.2">
      <stop offset="0.0" stop-color="#ffffff"/>
      <stop offset="1.0" stop-color="#000000"/>
    </linearGradient>
    <g id="shape25" transform="matrix(1.0, 0.0, 0.0, 1.0, -67.0, -76.15)">
      <path d="M74.7 78.45 L76.95 80.0 76.85 80.45 75.85 81.55 73.0 83.35 71.6 84.1 70.8 84.35 74.7 78.45" fill="#d1392f" fill-rule="evenodd" stroke="none"/>
      <path d="M69.35 81.5 L67.85 78.8 67.0 77.0 67.85 76.3 69.45 76.2 72.15 76.8 Q74.05 77.5 74.65 79.05 L74.6 81.65 73.55 82.7 70.8 84.35 Q70.25 82.8 69.35 81.5" fill="#f86655" fill-rule="evenodd" stroke="none"/>
    </g>
    <g id="sprite13" transform="matrix(1.0, 0.0, 0.0, 1.0, 0.0, 0.0)">
      <clipPath id="clipPath9" transform="matrix(1.0, 0.0, 0.0, 1.0, 0.0, 0.0)">
        <use height="7.5" transform="matrix(1.0, 0.0, 0.0, 1.0, 4.2, 4.1)" width="9.95" xlink:href="#shape26"/>
      </clipPath>
      <g clip-path="url(#clipPath9)">
        <use height="15.75" transform="matrix(1.0, 0.0, 0.0, 1.0, 0.0, 0.0)" width="18.35" xlink:href="#shape27"/>
      </g>
    </g>
    <g id="shape26" transform="matrix(1.0, 0.0, 0.0, 1.0, -4.2, -4.1)">
      <path d="M11.05 5.95 Q12.4 6.95 14.15 9.95 14.25 10.3 13.4 10.95 12.5 11.65 11.8 11.6 L10.6 9.9 Q10.0 9.0 9.0 8.35 8.25 7.95 6.65 7.3 4.8 6.6 4.2 6.95 4.1 6.9 4.5 6.0 L5.2 4.75 Q5.55 4.3 6.3 4.1 L6.35 4.1 Q8.4 4.1 11.05 5.95" fill="#ff0000" fill-rule="evenodd" stroke="none"/>
    </g>
    <g id="shape27" transform="matrix(1.0, 0.0, 0.0, 1.0, 0.0, 0.0)">
      <path d="M7.5 0.0 L18.35 6.65 10.85 15.75 0.0 9.1 7.5 0.0" fill="url(#gradient14)" fill-rule="evenodd" stroke="none"/>
    </g>
    <linearGradient gradientTransform="matrix(0.0052, 0.0032, -0.0037, 0.0045, 9.6, 8.15)" gradientUnits="userSpaceOnUse" id="gradient14" spreadMethod="pad" x1="-819.2" x2="819.2">
      <stop offset="0.0" stop-color="#f70a3b"/>
      <stop offset="1.0" stop-color="#ca050d"/>
    </linearGradient>
    <g id="sprite14" transform="matrix(1.0, 0.0, 0.0, 1.0, 0.0, 0.0)">
      <use height="7.45" transform="matrix(1.0, 0.0, 0.0, 1.0, 0.0, 0.0)" width="8.85" xlink:href="#sprite15"/>
    </g>
    <g id="sprite15" transform="matrix(1.0, 0.0, 0.0, 1.0, 0.0, 0.0)">
      <clipPath id="clipPath10" transform="matrix(1.0, 0.0, 0.0, 1.0, 0.0, 0.0)">
        <use height="1.85" transform="matrix(2.7297, 0.0, 0.0, 1.2703, 2.05, 2.35)" width="1.85" xlink:href="#shape22"/>
      </clipPath>
      <g clip-path="url(#clipPath10)">
        <use height="7.45" transform="matrix(1.0, 0.0, 0.0, 1.0, 0.0, 0.0)" width="8.85" xlink:href="#sprite16"/>
      </g>
    </g>
    <g id="sprite16" transform="matrix(1.0, 0.0, 0.0, 1.0, 0.0, 0.0)">
      <clipPath id="clipPath11" transform="matrix(1.0, 0.0, 0.0, 1.0, 0.0, 0.0)">
        <use height="2.35" transform="matrix(1.0, 0.0, 0.0, 1.0, 2.05, 2.35)" width="5.05" xlink:href="#shape28"/>
      </clipPath>
      <g clip-path="url(#clipPath11)">
        <use height="7.45" transform="matrix(1.0, 0.0, 0.0, 1.0, 0.0, 0.0)" width="8.85" xlink:href="#shape29"/>
      </g>
    </g>
    <g id="shape28" transform="matrix(1.0, 0.0, 0.0, 1.0, -2.05, -2.35)">
      <path d="M2.25 4.0 Q1.75 3.6 2.45 2.95 3.15 2.3 4.3 2.35 5.45 2.45 6.25 2.95 L7.1 3.95 Q7.2 4.55 5.3 4.7 3.3 4.85 2.25 4.0" fill="#ff0000" fill-rule="evenodd" stroke="none"/>
    </g>
    <g id="shape29" transform="matrix(1.0, 0.0, 0.0, 1.0, 0.0, 0.0)">
      <path d="M3.35 0.0 L8.85 3.15 5.5 7.45 0.0 4.3 3.35 0.0" fill="url(#gradient15)" fill-rule="evenodd" stroke="none"/>
    </g>
    <linearGradient gradientTransform="matrix(0.0023, 0.0013, -0.0015, 0.002, 3.0, 2.9)" gradientUnits="userSpaceOnUse" id="gradient15" spreadMethod="pad" x1="-819.2" x2="819.2">
      <stop offset="0.0" stop-color="#ffffff"/>
      <stop offset="1.0" stop-color="#000000"/>
    </linearGradient>
    <g id="shape30" transform="matrix(1.0, 0.0, 0.0, 1.0, -62.5, -77.65)">
      <path d="M67.8 77.95 Q67.7 77.45 68.65 77.75 69.55 78.1 69.9 78.75 L70.55 80.55 70.9 82.4 70.7 84.1 Q70.5 82.85 69.7 81.85 L68.6 80.05 68.0 78.7 67.8 77.95" fill="#c1250e" fill-rule="evenodd" stroke="none"/>
      <path d="M71.2 83.55 Q71.05 83.75 71.4 82.1 L72.0 80.05 Q72.25 79.65 72.85 80.15 73.45 80.7 73.45 81.45 73.5 82.05 72.5 82.7 L71.2 83.55" fill="#c1250e" fill-rule="evenodd" stroke="none"/>
      <path d="M69.3 80.15 Q68.65 79.2 68.95 78.85 69.35 78.45 69.5 79.3 L69.3 80.15" fill="#d1842e" fill-rule="evenodd" stroke="none"/>
      <path d="M71.95 82.05 L72.05 81.35 Q72.2 80.7 72.5 80.9 73.05 81.3 71.95 82.05" fill="#d1842e" fill-rule="evenodd" stroke="none"/>
      <path d="M68.95 78.85 Q69.1 78.55 69.25 79.1 L69.15 79.6 68.95 78.85" fill="#e9b782" fill-rule="evenodd" stroke="none"/>
      <path d="M72.3 81.1 Q72.7 81.35 72.05 81.7 L72.1 81.35 72.3 81.1" fill="#e9b782" fill-rule="evenodd" stroke="none"/>
      <path d="M69.6 85.2 L70.55 87.05 Q71.55 88.9 72.4 91.3 73.1 93.25 72.75 93.9 L70.05 93.75 69.0 84.3 69.6 85.2" fill="#d1392f" fill-rule="evenodd" stroke="none"/>
      <path d="M69.0 84.3 L69.75 85.8 70.75 88.2 71.3 90.15 Q70.65 92.6 70.25 93.0 L69.4 93.5 67.0 93.4 64.35 91.75 62.9 90.3 62.5 88.8 64.05 87.65 66.55 86.05 69.0 84.3" fill="#f86655" fill-rule="evenodd" stroke="none"/>
    </g>
    <g id="sprite17" transform="matrix(1.0, 0.0, 0.0, 1.0, 0.0, 0.0)">
      <clipPath id="clipPath12" transform="matrix(1.0, 0.0, 0.0, 1.0, 0.0, 0.0)">
        <use height="6.9" transform="matrix(1.0, 0.0, 0.0, 1.0, 1.6, 0.15)" width="10.5" xlink:href="#shape31"/>
      </clipPath>
      <g clip-path="url(#clipPath12)">
        <use height="7.3" transform="matrix(1.0, 0.0, 0.0, 1.0, 0.0, 0.0)" width="13.8" xlink:href="#shape32"/>
      </g>
    </g>
    <g id="shape31" transform="matrix(1.0, 0.0, 0.0, 1.0, -1.6, -0.15)">
      <path d="M10.6 1.5 Q11.25 2.05 11.75 3.5 12.25 4.95 12.05 5.25 9.2 7.15 7.5 7.05 5.35 6.95 3.65 6.0 L2.35 5.05 Q1.8 4.2 1.65 3.35 1.55 2.75 1.6 1.45 1.65 0.15 1.8 0.15 2.15 1.05 4.1 1.85 L6.7 2.65 8.8 2.35 10.6 1.5" fill="#ff0000" fill-rule="evenodd" stroke="none"/>
    </g>
    <g id="shape32" transform="matrix(1.0, 0.0, 0.0, 1.0, 0.0, 0.0)">
      <path d="M0.0 7.15 L1.55 0.0 13.8 0.15 12.2 7.3 0.0 7.15" fill="url(#gradient16)" fill-rule="evenodd" stroke="none"/>
    </g>
    <linearGradient gradientTransform="matrix(0.0067, 1.0E-4, 0.0013, -0.0059, 7.1, 3.65)" gradientUnits="userSpaceOnUse" id="gradient16" spreadMethod="pad" x1="-819.2" x2="819.2">
      <stop offset="0.0" stop-color="#f70a3b"/>
      <stop offset="1.0" stop-color="#ca050d"/>
    </linearGradient>
    <g id="sprite18" transform="matrix(1.0, 0.0, 0.0, 1.0, 0.0, 0.0)">
      <use height="5.35" transform="matrix(1.0, 0.0, 0.0, 1.0, 0.0, 0.0)" width="8.05" xlink:href="#sprite19"/>
    </g>
    <g id="sprite19" transform="matrix(1.0, 0.0, 0.0, 1.0, 0.0, 0.0)">
      <clipPath id="clipPath13" transform="matrix(1.0, 0.0, 0.0, 1.0, 0.0, 0.0)">
        <use height="1.85" transform="matrix(2.6216, 0.0, 0.0, 2.4865, 1.6, 0.3)" width="1.85" xlink:href="#shape22"/>
      </clipPath>
      <g clip-path="url(#clipPath13)">
        <use height="5.35" transform="matrix(1.0, 0.0, 0.0, 1.0, 0.0, 0.0)" width="8.05" xlink:href="#sprite20"/>
      </g>
    </g>
    <g id="sprite20" transform="matrix(1.0, 0.0, 0.0, 1.0, 0.0, 0.0)">
      <clipPath id="clipPath14" transform="matrix(1.0, 0.0, 0.0, 1.0, 0.0, 0.0)">
        <use height="4.6" transform="matrix(1.0, 0.0, 0.0, 1.0, 1.6, 0.3)" width="4.85" xlink:href="#shape33"/>
      </clipPath>
      <g clip-path="url(#clipPath14)">
        <use height="5.35" transform="matrix(1.0, 0.0, 0.0, 1.0, 0.0, 0.0)" width="8.05" xlink:href="#shape34"/>
      </g>
    </g>
    <g id="shape33" transform="matrix(1.0, 0.0, 0.0, 1.0, -1.6, -0.3)">
      <path d="M2.0 0.3 Q3.35 0.25 5.1 2.1 6.75 3.9 6.4 4.45 6.1 5.0 5.2 4.85 4.2 4.75 3.1 3.85 2.05 2.95 1.7 1.65 1.4 0.35 2.0 0.3" fill="#ff0000" fill-rule="evenodd" stroke="none"/>
    </g>
    <g id="shape34" transform="matrix(1.0, 0.0, 0.0, 1.0, 0.0, 0.0)">
      <path d="M0.0 5.05 L1.3 0.0 8.05 0.3 6.75 5.35 0.0 5.05" fill="url(#gradient17)" fill-rule="evenodd" stroke="none"/>
    </g>
    <linearGradient gradientTransform="matrix(0.0034, 1.0E-4, 8.0E-4, -0.003, 1.7, 2.6)" gradientUnits="userSpaceOnUse" id="gradient17" spreadMethod="pad" x1="-819.2" x2="819.2">
      <stop offset="0.0" stop-color="#ffffff"/>
      <stop offset="1.0" stop-color="#000000"/>
    </linearGradient>
    <g id="shape35" transform="matrix(1.0, 0.0, 0.0, 1.0, -63.55, -79.65)">
      <path d="M63.6 88.45 L64.15 87.85 65.3 86.95 Q66.3 86.2 67.05 85.95 68.1 85.6 68.8 84.5 L68.7 85.05 68.3 86.35 67.25 88.05 65.85 89.4 64.3 89.35 Q63.35 88.9 63.6 88.45" fill="#c1250e" fill-rule="evenodd" stroke="none"/>
      <path d="M69.05 90.3 Q68.3 90.35 68.25 89.7 68.2 89.15 68.6 87.15 69.0 85.1 69.05 85.45 L69.8 87.35 Q70.4 88.85 70.15 89.45 69.85 90.25 69.05 90.3" fill="#c1250e" fill-rule="evenodd" stroke="none"/>
      <path d="M65.95 87.4 L65.75 88.45 65.4 88.8 Q65.15 88.9 65.05 88.45 65.0 88.1 65.45 87.7 L65.95 87.4" fill="#d1842e" fill-rule="evenodd" stroke="none"/>
      <path d="M69.05 87.55 Q69.75 89.25 69.1 89.2 68.7 89.2 68.85 88.4 L69.05 87.55" fill="#d1842e" fill-rule="evenodd" stroke="none"/>
      <path d="M65.05 88.45 L65.55 87.85 65.45 88.45 Q65.0 89.1 65.05 88.45" fill="#e9b782" fill-rule="evenodd" stroke="none"/>
      <path d="M69.0 88.85 Q68.8 88.8 68.9 88.4 L69.05 88.0 Q69.45 88.9 69.0 88.85" fill="#e9b782" fill-rule="evenodd" stroke="none"/>
      <path d="M89.75 86.2 L89.1 93.35 Q88.05 93.2 84.8 91.05 L81.7 88.9 Q81.95 86.8 83.55 83.55 L85.5 79.65 88.05 81.95 88.7 82.8 Q89.45 84.1 89.75 86.2" fill="#f74622" fill-rule="evenodd" stroke="none"/>
    </g>
    <g id="sprite21" transform="matrix(1.0, 0.0, 0.0, 1.0, 0.0, 0.0)">
      <clipPath id="clipPath15" transform="matrix(1.0, 0.0, 0.0, 1.0, 0.0, 0.0)">
        <use height="14.65" transform="matrix(1.0, 0.0, 0.0, 1.0, 2.25, 0.7)" width="6.8" xlink:href="#shape36"/>
      </clipPath>
      <g clip-path="url(#clipPath15)">
        <use height="16.0" transform="matrix(1.0, 0.0, 0.0, 1.0, 0.0, 0.0)" width="11.45" xlink:href="#shape37"/>
      </g>
    </g>
    <g id="shape36" transform="matrix(1.0, 0.0, 0.0, 1.0, -2.25, -0.7)">
      <path d="M4.45 7.4 Q4.05 4.4 3.1 2.25 L2.25 0.7 Q3.95 0.8 5.05 1.25 L6.2 1.7 Q9.0 6.75 9.05 10.2 9.15 13.75 8.2 15.35 7.25 14.5 5.85 14.4 4.45 14.25 4.1 13.6 L4.5 12.15 Q4.85 10.2 4.45 7.4" fill="#ff0000" fill-rule="evenodd" stroke="none"/>
    </g>
    <g id="shape37" transform="matrix(1.0, 0.0, 0.0, 1.0, 0.0, 0.0)">
      <path d="M0.0 0.9 L9.05 0.0 11.45 15.1 2.35 16.0 0.0 0.9" fill="url(#gradient18)" fill-rule="evenodd" stroke="none"/>
    </g>
    <linearGradient gradientTransform="matrix(0.0011, 0.0067, 0.0076, -8.0E-4, 5.55, 7.05)" gradientUnits="userSpaceOnUse" id="gradient18" spreadMethod="pad" x1="-819.2" x2="819.2">
      <stop offset="0.0" stop-color="#f70a3b"/>
      <stop offset="1.0" stop-color="#ca050d"/>
    </linearGradient>
    <g id="shape38" transform="matrix(1.0, 0.0, 0.0, 1.0, -81.85, -82.2)">
      <path d="M82.3 88.25 Q83.25 85.1 84.2 83.3 84.85 82.05 85.35 82.2 85.75 82.3 86.25 83.45 87.3 86.15 85.1 87.15 L82.3 88.25" fill="#c1250e" fill-rule="evenodd" stroke="none"/>
      <path d="M82.35 88.6 L83.85 88.1 Q85.4 87.65 85.95 87.75 87.1 88.0 87.2 90.3 L86.95 92.35 83.65 90.3 81.85 88.95 81.95 88.85 82.35 88.6" fill="#c1250e" fill-rule="evenodd" stroke="none"/>
      <path d="M84.75 84.55 Q84.8 84.2 85.15 84.05 85.55 83.85 85.6 84.15 85.7 84.55 84.5 85.3 L84.75 84.55" fill="#b67528" fill-rule="evenodd" stroke="none"/>
      <path d="M85.2 89.9 L85.7 89.95 Q86.25 90.0 86.3 90.25 86.45 90.6 86.15 90.65 85.85 90.65 85.2 89.9" fill="#b67528" fill-rule="evenodd" stroke="none"/>
      <path d="M85.0 84.25 L85.25 84.1 85.25 84.35 84.95 84.6 Q84.8 84.65 85.0 84.25" fill="#e9b782" fill-rule="evenodd" stroke="none"/>
    </g>
    <g id="sprite22" transform="matrix(1.0, 0.0, 0.0, 1.0, 0.0, 0.0)">
      <use height="2.2" transform="matrix(1.0, 0.0, 0.0, 1.0, 0.0, 0.0)" width="4.35" xlink:href="#sprite23"/>
    </g>
    <g id="sprite23" transform="matrix(1.0, 0.0, 0.0, 1.0, 0.0, 0.0)">
      <clipPath id="clipPath16" transform="matrix(1.0, 0.0, 0.0, 1.0, 0.0, 0.0)">
        <use height="1.85" transform="matrix(2.1351, 0.0, 0.0, 0.9189, 0.1, 0.2)" width="1.85" xlink:href="#shape22"/>
      </clipPath>
      <g clip-path="url(#clipPath16)">
        <use height="2.2" transform="matrix(1.0, 0.0, 0.0, 1.0, 0.0, 0.0)" width="4.35" xlink:href="#sprite24"/>
      </g>
    </g>
    <g id="sprite24" transform="matrix(1.0, 0.0, 0.0, 1.0, 0.0, 0.0)">
      <clipPath id="clipPath17" transform="matrix(1.0, 0.0, 0.0, 1.0, 0.0, 0.0)">
        <use height="1.7" transform="matrix(1.0, 0.0, 0.0, 1.0, 0.1, 0.2)" width="3.9" xlink:href="#shape39"/>
      </clipPath>
      <g clip-path="url(#clipPath17)">
        <use height="2.2" transform="matrix(1.0, 0.0, 0.0, 1.0, 0.0, 0.0)" width="4.35" xlink:href="#shape40"/>
      </g>
    </g>
    <g id="shape39" transform="matrix(1.0, 0.0, 0.0, 1.0, -0.1, -0.2)">
      <path d="M3.35 1.85 L2.2 1.55 1.2 1.5 0.65 1.45 0.1 0.25 1.75 0.4 Q2.6 0.55 3.35 1.0 4.15 1.4 4.0 1.7 3.9 2.0 3.35 1.85" fill="#ff0000" fill-rule="evenodd" stroke="none"/>
    </g>
    <g id="shape40" transform="matrix(1.0, 0.0, 0.0, 1.0, 0.0, 0.0)">
      <path d="M0.0 0.1 L4.2 0.0 4.35 2.1 0.1 2.2 0.0 0.1" fill="url(#gradient19)" fill-rule="evenodd" stroke="none"/>
    </g>
    <linearGradient gradientTransform="matrix(1.0E-4, 0.0015, 0.0017, 0.0, 2.15, 0.35)" gradientUnits="userSpaceOnUse" id="gradient19" spreadMethod="pad" x1="-819.2" x2="819.2">
      <stop offset="0.0" stop-color="#ffffff"/>
      <stop offset="1.0" stop-color="#000000"/>
    </linearGradient>
    <g id="shape41" transform="matrix(1.0, 0.0, 0.0, 1.0, -33.3, -80.25)">
      <path d="M57.45 89.25 L58.8 90.7 Q59.6 91.7 59.9 91.55 60.9 91.05 61.0 91.05 62.1 90.95 63.2 91.7 64.35 92.55 63.35 93.05 57.9 96.3 54.05 96.65 L51.6 96.5 51.95 95.6 Q51.8 95.2 51.95 94.8 L52.35 93.75 53.2 92.8 54.0 92.1 54.4 90.7 Q54.65 89.55 54.95 89.2 55.3 88.8 55.75 88.85 L56.6 88.95 57.45 89.25" fill="#4fa639" fill-rule="evenodd" stroke="none"/>
      <path d="M83.7 87.65 Q83.2 88.95 83.25 89.95 83.25 90.45 84.0 91.75 84.4 92.5 83.45 93.15 82.05 94.1 75.9 94.2 69.5 94.3 69.25 92.8 69.05 91.4 69.9 91.6 71.1 91.8 71.45 91.1 L71.95 89.6 Q72.1 89.1 72.75 88.65 L74.35 87.8 75.35 86.85 75.9 85.9 Q76.15 85.6 76.8 85.55 L79.25 85.85 79.95 86.6 Q80.45 87.2 80.8 87.15 L81.6 86.55 82.55 85.95 Q83.3 85.9 84.25 86.5 L83.7 87.65" fill="#4fa639" fill-rule="evenodd" stroke="none"/>
      <path d="M46.1 87.0 Q47.85 87.25 49.7 88.4 51.85 89.85 52.65 91.9 53.45 93.95 53.3 95.0 53.2 95.65 52.45 96.45 51.7 97.35 48.7 96.7 L48.25 99.15 47.25 99.1 Q46.1 98.8 45.55 97.55 45.0 96.35 44.0 93.0 L43.05 89.9 Q42.75 89.95 42.65 89.1 L42.6 87.75 43.65 87.3 46.1 87.0" fill="#7f6125" fill-rule="evenodd" stroke="none"/>
      <path d="M42.6 93.3 Q40.55 90.4 42.0 88.5 43.65 86.25 48.35 89.2 50.55 90.6 51.55 93.15 52.55 95.8 50.8 95.9 L47.95 95.8 46.9 95.55 46.6 96.1 Q46.35 96.75 46.45 97.3 46.6 98.15 46.2 99.0 44.65 98.8 43.9 98.05 L43.15 97.3 43.3 94.4 42.6 93.3" fill="#ddd89d" fill-rule="evenodd" stroke="none"/>
      <path d="M46.95 95.55 L48.05 94.35 Q49.3 93.3 49.95 94.05 50.55 94.7 49.1 94.85 47.3 95.05 46.95 95.55" fill="#958f47" fill-rule="evenodd" stroke="none"/>
      <path d="M83.35 87.9 L78.85 94.55 Q74.45 94.95 73.45 93.45 72.7 92.4 72.9 90.65 73.05 88.95 73.85 88.2 75.65 86.5 78.5 86.35 81.5 86.25 82.75 87.1 L83.3 87.65 83.35 87.9" fill="#7f6125" fill-rule="evenodd" stroke="none"/>
      <path d="M83.55 87.65 Q84.55 88.75 84.7 90.15 84.8 91.6 83.75 92.15 82.2 93.0 81.25 93.05 L81.45 95.05 80.1 95.3 Q78.8 95.55 78.85 95.65 L78.4 93.8 76.7 93.85 Q75.05 93.85 74.7 93.15 74.3 92.35 74.2 91.3 74.0 89.25 75.35 88.1 76.95 86.8 79.85 86.7 82.6 86.55 83.55 87.65" fill="#ddd89d" fill-rule="evenodd" stroke="none"/>
      <path d="M80.2 93.9 L77.95 94.05 Q76.7 93.9 76.9 92.65 77.1 91.45 78.05 91.55 79.25 91.7 80.2 93.9" fill="#958f47" fill-rule="evenodd" stroke="none"/>
      <path d="M81.35 93.55 Q81.15 93.8 81.45 92.15 81.75 90.65 82.45 90.45 83.15 90.3 83.15 91.1 83.1 91.85 82.65 92.25 L81.95 92.85 81.35 93.55" fill="#958f47" fill-rule="evenodd" stroke="none"/>
      <path d="M38.5 93.35 L42.2 93.45 Q43.2 93.85 43.9 94.35 L43.25 94.5 Q42.35 94.85 41.2 95.65 40.1 96.5 40.05 97.65 L40.25 98.6 39.15 96.8 Q38.45 95.0 38.5 93.35" fill="#6ca0a1" fill-rule="evenodd" stroke="none"/>
      <path d="M52.0 97.65 Q53.15 96.25 59.8 94.95 L68.05 93.65 Q70.4 93.45 76.8 93.65 75.85 93.8 74.75 95.25 L73.95 96.2 72.75 97.25 Q72.05 97.9 71.2 97.75 L69.65 97.5 Q68.8 97.6 68.6 98.0 68.4 98.35 68.1 100.2 67.85 101.65 66.95 101.65 L65.85 101.6 64.75 101.45 Q63.65 100.9 63.0 101.05 L61.55 101.2 60.05 100.85 Q59.1 100.5 57.5 100.85 55.95 101.25 54.65 102.2 53.3 103.2 52.75 103.3 52.1 103.35 51.55 102.4 51.3 101.9 51.45 100.2 51.6 98.45 52.0 97.65" fill="#42742e" fill-rule="evenodd" stroke="none"/>
      <path d="M46.65 99.4 Q46.1 98.85 47.0 98.55 48.55 98.05 49.0 97.65 L51.1 95.35 Q51.6 94.75 52.9 94.35 L54.55 93.9 56.15 93.7 58.45 93.6 60.1 93.2 61.5 92.4 Q62.25 92.0 64.8 91.95 L69.85 92.05 Q73.0 92.15 75.6 92.95 76.9 93.35 77.6 93.7 L76.8 93.8 75.35 94.15 74.1 95.3 Q73.15 96.25 72.0 96.4 70.7 96.6 70.15 97.25 L69.3 98.65 Q68.85 99.3 68.2 99.5 L66.55 99.8 64.75 99.6 63.3 99.45 62.4 99.7 61.4 99.3 57.9 99.45 Q54.95 100.1 52.95 101.55 L49.05 101.65 46.65 99.4" fill="#54b131" fill-rule="evenodd" stroke="none"/>
      <path d="M81.7 93.7 L83.8 92.7 Q85.05 92.05 85.65 91.95 L87.95 91.45 Q89.45 90.95 90.0 89.95 90.5 89.0 91.35 88.85 L92.65 88.8 93.6 88.75 94.4 88.85 96.95 86.85 Q97.55 86.25 98.0 86.4 98.45 86.55 98.55 87.3 98.6 87.75 97.9 88.05 97.05 88.4 96.8 89.35 96.55 90.25 96.45 92.6 L96.15 94.9 94.95 94.8 93.0 93.6 91.05 93.7 89.55 94.8 88.25 94.75 86.5 93.65 83.55 93.35 81.7 93.7" fill="#54b131" fill-rule="evenodd" stroke="none"/>
      <path d="M37.85 98.55 Q36.15 98.0 35.4 95.8 35.1 94.85 34.5 94.3 L33.55 93.7 Q33.15 93.45 33.45 91.55 33.55 91.0 34.15 90.5 34.9 89.85 35.9 89.8 L38.4 89.55 39.7 89.65 41.4 90.6 Q43.1 91.65 44.55 94.35 L43.3 94.4 41.75 94.6 Q40.45 95.05 40.05 95.75 39.65 96.4 39.65 97.55 L39.75 99.05 Q39.8 99.5 39.2 99.2 L37.85 98.55" fill="#54b131" fill-rule="evenodd" stroke="none"/>
      <path d="M37.85 91.15 L38.5 90.75 38.25 90.75 Q38.0 90.8 37.1 90.2 L38.55 90.4 Q39.3 90.35 39.8 91.05 L40.45 91.0 Q41.55 90.9 42.95 92.0 43.9 92.7 43.9 93.35 L43.55 93.05 42.9 92.75 42.1 92.85 Q41.2 92.95 40.15 93.65 39.45 94.1 39.2 95.0 L39.1 95.85 Q38.9 94.45 39.75 93.25 40.3 92.45 41.1 92.25 L41.8 92.15 41.15 92.05 39.0 92.15 Q38.2 92.25 38.2 94.75 38.15 96.45 38.4 97.85 37.75 96.55 37.7 95.25 L37.8 93.3 37.95 92.35 37.5 92.55 Q36.95 92.8 36.55 93.35 L35.5 94.95 Q35.65 93.7 36.15 92.85 36.45 92.35 37.0 92.0 L37.45 91.7 Q36.65 91.25 35.65 91.35 L34.1 91.65 34.9 91.2 36.55 90.9 37.85 91.15" fill="#428d27" fill-rule="evenodd" stroke="none"/>
      <path d="M55.95 95.05 L59.05 95.1 61.2 94.95 62.2 94.2 63.05 93.7 63.9 93.1 60.15 93.8 60.75 93.35 Q61.5 92.9 62.3 92.8 L64.95 92.25 Q65.3 92.0 66.15 91.9 L66.9 91.8 69.25 92.0 68.4 92.25 67.15 92.75 Q66.95 92.9 68.2 93.15 69.75 93.45 70.05 93.75 70.65 94.35 71.1 95.8 L69.75 94.6 Q68.9 94.1 67.6 93.9 L66.1 93.4 65.3 93.0 63.15 95.0 65.3 95.7 Q66.0 96.1 66.85 97.05 L68.0 97.75 Q67.0 97.85 66.05 97.15 64.15 95.8 63.1 95.9 L62.1 96.0 61.55 96.3 Q60.9 96.65 60.5 97.15 59.85 97.9 58.85 98.2 L60.0 96.65 60.85 95.95 57.85 96.15 55.4 95.95 Q53.85 95.85 53.25 96.55 51.4 98.7 50.25 98.8 L49.25 98.9 Q51.15 98.25 51.8 96.95 52.5 95.4 55.95 95.05" fill="#428d27" fill-rule="evenodd" stroke="none"/>
      <path d="M87.45 91.65 L88.6 91.15 89.55 91.05 90.65 90.7 Q91.5 90.3 92.05 90.2 L95.1 89.8 Q95.7 89.7 96.4 89.1 L95.55 90.5 Q95.15 91.4 94.25 90.95 L95.5 93.05 Q94.75 92.7 94.15 91.9 93.45 90.9 92.0 91.05 91.45 91.1 90.95 91.6 L90.6 92.1 91.4 92.15 Q92.2 92.2 92.8 92.75 L92.35 92.6 91.45 92.6 90.2 92.8 Q89.65 92.85 89.35 92.5 L89.2 92.15 Q89.1 91.95 88.25 91.8 L87.45 91.65 M96.4 89.1 L96.6 88.75 Q96.9 88.3 97.15 88.15 L97.35 88.05 96.4 89.1" fill="#428d27" fill-rule="evenodd" stroke="none"/>
      <path d="M78.0 95.2 Q85.05 93.15 102.7 92.2 120.95 91.2 124.9 93.05 128.7 94.85 128.45 96.8 128.15 98.45 125.2 99.45 L116.8 102.35 Q110.7 104.5 108.7 105.55 107.1 106.4 104.35 110.1 101.4 114.1 99.2 115.65 96.35 117.7 87.0 117.6 L71.45 116.4 Q65.8 115.7 61.65 112.75 59.65 111.3 56.75 108.0 59.85 105.45 64.05 102.6 72.45 96.85 78.0 95.2" fill="#929292" fill-rule="evenodd" stroke="none"/>
      <path d="M56.75 98.25 L61.05 95.2 72.3 93.3 Q85.1 91.0 93.1 89.1 L107.85 86.75 Q122.95 84.75 124.55 86.65 126.7 89.1 125.85 92.4 125.4 94.05 124.55 95.2 L119.4 96.1 Q116.85 96.5 112.45 98.8 108.8 100.75 105.35 103.15 103.15 104.65 100.0 108.7 96.7 112.95 95.55 113.8 93.8 115.2 89.35 115.4 L80.6 115.35 71.35 114.9 Q66.55 114.4 64.4 113.5 60.7 112.05 59.7 111.45 57.2 110.0 56.75 108.0 56.4 106.1 56.55 102.0 L56.75 98.25" fill="#5c2b15" fill-rule="evenodd" stroke="none"/>
      <path d="M56.75 98.45 L59.45 100.75 Q58.2 101.6 58.45 105.75 58.75 110.5 62.55 112.3 L66.0 114.0 64.4 113.5 Q60.7 112.05 59.7 111.45 57.2 110.0 56.75 108.0 56.15 105.15 56.75 98.45" fill="#9e4a23" fill-rule="evenodd" stroke="none"/>
      <path d="M93.25 98.4 L105.15 93.2 Q117.25 87.95 118.3 87.85 L121.15 87.75 Q122.9 87.95 123.95 89.25 125.65 91.2 123.5 95.4 L119.4 96.1 Q116.85 96.5 112.45 98.8 108.8 100.75 105.35 103.15 103.15 104.65 100.0 108.7 96.7 112.95 95.55 113.8 93.8 115.15 89.5 115.4 91.2 114.5 92.05 112.75 92.8 111.15 92.5 109.55 L91.8 105.85 Q91.45 103.7 91.7 102.85 L93.25 98.4" fill="#492111" fill-rule="evenodd" stroke="none"/>
      <path d="M56.7 98.4 Q57.15 94.45 61.65 90.6 64.35 88.3 72.7 86.1 L85.8 82.95 Q90.1 81.85 94.55 81.35 L99.85 80.85 Q110.6 79.15 119.15 82.3 122.6 83.55 124.05 85.15 125.5 86.7 124.25 87.85 122.4 89.55 117.1 90.4 109.9 91.5 107.15 92.45 102.95 93.9 98.55 98.3 L92.5 104.35 Q89.75 106.45 81.9 106.7 74.0 106.95 64.7 105.25 56.1 103.7 56.7 98.4" fill="#6b2e11" fill-rule="evenodd" stroke="none"/>
      <path d="M60.25 96.65 Q60.6 93.3 64.5 90.25 66.85 88.4 73.0 87.1 L83.35 85.1 Q90.6 83.35 98.55 82.25 108.3 80.85 115.6 82.45 122.5 84.0 120.0 86.05 118.4 87.35 113.55 88.7 107.25 90.45 104.1 91.85 100.6 93.4 97.05 96.8 L92.0 101.4 Q89.6 103.1 82.6 103.3 L67.2 102.15 Q59.8 101.0 60.25 96.65" fill="#9e4a23" fill-rule="evenodd" stroke="none"/>
      <path d="M69.45 87.55 L71.6 86.8 Q75.7 85.4 82.85 84.25 L74.35 86.35 118.3 87.85 117.4 88.15 115.4 88.6 95.55 87.7 77.65 87.5 69.45 87.55 Q66.2 88.75 63.8 90.05 L61.2 92.3 73.55 91.5 Q79.2 91.35 105.5 91.7 L103.2 93.05 Q89.9 92.75 81.95 92.75 L68.3 93.15 60.6 93.5 59.2 97.0 64.9 96.8 Q71.35 96.65 75.25 96.85 81.5 97.15 97.7 96.55 L96.45 98.1 89.9 98.1 Q80.15 98.1 73.4 98.25 L64.45 98.3 58.9 98.25 Q63.65 105.75 58.9 99.75 55.75 95.8 60.7 91.95 62.0 90.95 63.8 90.05 L64.85 89.25 67.55 88.1 69.3 87.55 69.45 87.55 M83.35 84.15 L84.5 83.95 91.9 82.95 93.75 82.8 98.15 82.8 120.9 83.9 121.8 84.8 109.15 84.2 Q102.2 83.8 92.7 83.85 L83.35 84.15" fill="#6b2e11" fill-rule="evenodd" stroke="none"/>
      <path d="M69.3 87.55 L73.8 91.1 80.15 96.25 Q82.6 98.4 90.05 103.15 L95.4 99.45 88.55 91.85 Q87.05 90.25 84.2 88.0 L81.2 85.7 80.4 85.25 80.0 85.1 81.8 84.5 84.9 86.75 90.35 90.9 Q93.55 93.5 97.25 97.95 L101.95 93.65 89.9 82.65 91.3 82.35 100.15 89.25 Q102.45 91.05 104.85 92.3 L109.45 91.1 Q103.8 92.95 99.85 96.55 L92.45 103.15 Q89.65 105.05 84.85 105.25 80.9 105.45 76.85 105.1 L75.4 105.25 75.05 104.9 72.05 104.5 Q67.45 98.85 65.95 96.7 L61.95 91.35 62.7 90.45 69.9 99.6 75.05 104.9 75.75 105.0 76.85 105.1 86.7 104.05 Q82.25 100.55 79.05 97.65 L68.05 87.85 69.3 87.55 M108.85 80.85 L110.35 80.85 113.8 82.75 Q117.4 84.85 118.45 85.7 L120.75 87.4 120.15 88.3 Q119.3 89.2 117.85 89.4 L114.65 89.9 112.95 90.75 Q112.65 90.85 111.95 90.4 L110.55 90.75 110.15 90.9 98.6 81.6 99.85 80.85 103.3 83.4 Q107.05 86.15 108.4 87.4 L111.95 90.4 114.65 89.9 118.3 87.85 Q114.2 83.75 112.2 82.8 L109.8 81.5 108.85 80.85" fill="#6b2e11" fill-rule="evenodd" stroke="none"/>
    </g>
    <g id="sprite25" transform="matrix(1.0, 0.0, 0.0, 1.0, 0.0, 0.0)">
      <use height="3.15" transform="matrix(1.0, 0.0, 0.0, 1.0, 0.0, 0.0)" width="8.15" xlink:href="#sprite26"/>
    </g>
    <g id="sprite26" transform="matrix(1.0, 0.0, 0.0, 1.0, 0.0, 0.0)">
      <clipPath id="clipPath18" transform="matrix(1.0, 0.0, 0.0, 1.0, 0.0, 0.0)">
        <use height="1.85" transform="matrix(4.3784, 0.0, 0.0, 1.7027, 0.05, 0.0)" width="1.85" xlink:href="#shape22"/>
      </clipPath>
      <g clip-path="url(#clipPath18)">
        <use height="3.15" transform="matrix(1.0, 0.0, 0.0, 1.0, 0.0, 0.0)" width="8.15" xlink:href="#shape42"/>
      </g>
    </g>
    <g id="shape42" transform="matrix(1.0, 0.0, 0.0, 1.0, 0.0, 0.0)">
      <path d="M6.45 0.4 Q8.75 1.25 7.95 2.25 7.25 3.15 5.35 3.15 3.85 3.15 1.95 2.25 0.1 1.35 0.0 0.7 -0.1 0.15 2.45 0.0 L6.45 0.4" fill="#cc7248" fill-rule="evenodd" stroke="none"/>
    </g>
    <g id="sprite27" transform="matrix(1.0, 0.0, 0.0, 1.0, 0.1, 0.0)">
      <use height="2.15" transform="matrix(1.0, 0.0, 0.0, 1.0, -0.1, 0.0)" width="4.3" xlink:href="#sprite28"/>
    </g>
    <g id="sprite28" transform="matrix(1.0, 0.0, 0.0, 1.0, 0.1, 0.0)">
      <clipPath id="clipPath19" transform="matrix(1.0, 0.0, 0.0, 1.0, 0.1, 0.0)">
        <use height="1.85" transform="matrix(2.2162, 0.0, 0.0, 1.1351, 0.0, 0.0)" width="1.85" xlink:href="#shape22"/>
      </clipPath>
      <g clip-path="url(#clipPath19)">
        <use height="2.15" transform="matrix(1.0, 0.0, 0.0, 1.0, -0.1, 0.0)" width="4.3" xlink:href="#shape43"/>
      </g>
    </g>
    <g id="shape43" transform="matrix(1.0, 0.0, 0.0, 1.0, 0.1, 0.0)">
      <path d="M3.55 0.5 Q4.85 1.2 3.45 1.9 2.05 2.55 0.65 1.55 -0.8 0.55 0.65 0.15 2.1 -0.3 3.55 0.5" fill="#cc7248" fill-rule="evenodd" stroke="none"/>
    </g>
    <g id="sprite29" transform="matrix(1.0, 0.0, 0.0, 1.0, 0.1, 0.05)">
      <use height="2.5" transform="matrix(1.0, 0.0, 0.0, 1.0, -0.1, -0.05)" width="6.3" xlink:href="#sprite30"/>
    </g>
    <g id="sprite30" transform="matrix(1.0, 0.0, 0.0, 1.0, 0.1, 0.05)">
      <clipPath id="clipPath20" transform="matrix(1.0, 0.0, 0.0, 1.0, 0.1, 0.05)">
        <use height="1.85" transform="matrix(3.2703, 0.0, 0.0, 1.2703, 0.0, 0.0)" width="1.85" xlink:href="#shape22"/>
      </clipPath>
      <g clip-path="url(#clipPath20)">
        <use height="2.5" transform="matrix(1.0, 0.0, 0.0, 1.0, -0.1, -0.05)" width="6.3" xlink:href="#shape44"/>
      </g>
    </g>
    <g id="shape44" transform="matrix(1.0, 0.0, 0.0, 1.0, 0.1, 0.05)">
      <path d="M5.15 0.25 Q7.3 0.85 5.05 1.9 2.85 2.95 0.85 1.95 -1.1 0.95 1.0 0.3 3.0 -0.35 5.15 0.25" fill="#cc7248" fill-rule="evenodd" stroke="none"/>
    </g>
    <g id="sprite31" transform="matrix(1.0, 0.0, 0.0, 1.0, 0.05, 0.0)">
      <use height="2.0" transform="matrix(1.0, 0.0, 0.0, 1.0, -0.05, 0.0)" width="2.3" xlink:href="#sprite32"/>
    </g>
    <g id="sprite32" transform="matrix(1.0, 0.0, 0.0, 1.0, 0.05, 0.0)">
      <clipPath id="clipPath21" transform="matrix(1.0, 0.0, 0.0, 1.0, 0.05, 0.0)">
        <use height="1.85" transform="matrix(1.1892, 0.0, 0.0, 1.0811, 0.0, 0.0)" width="1.85" xlink:href="#shape22"/>
      </clipPath>
      <g clip-path="url(#clipPath21)">
        <use height="1.8" transform="matrix(1.2432, 0.0, 0.0, 1.0833, -0.05, 0.05)" width="1.85" xlink:href="#shape45"/>
      </g>
    </g>
    <g id="shape45" transform="matrix(1.0, 0.0, 0.0, 1.0, 0.0, 0.0)">
      <path d="M1.3 0.0 Q1.95 0.0 1.85 1.0 1.75 1.95 0.7 1.8 -0.3 1.65 0.1 0.85 0.5 0.0 1.3 0.0" fill="#cc7248" fill-rule="evenodd" stroke="none"/>
    </g>
    <g id="sprite33" transform="matrix(1.0, 0.0, 0.0, 1.0, 0.05, 0.05)">
      <use height="2.3" transform="matrix(1.0, 0.0, 0.0, 1.0, -0.05, -0.05)" width="9.95" xlink:href="#sprite34"/>
    </g>
    <g id="sprite34" transform="matrix(1.0, 0.0, 0.0, 1.0, 0.05, 0.05)">
      <clipPath id="clipPath22" transform="matrix(1.0, 0.0, 0.0, 1.0, 0.05, 0.05)">
        <use height="1.85" transform="matrix(5.3513, 0.0, 0.0, 1.2162, 0.0, 0.0)" width="1.85" xlink:href="#shape22"/>
      </clipPath>
      <g clip-path="url(#clipPath22)">
        <use height="2.3" transform="matrix(1.0, 0.0, 0.0, 1.0, -0.05, -0.05)" width="9.95" xlink:href="#shape46"/>
      </g>
    </g>
    <g id="shape46" transform="matrix(1.0, 0.0, 0.0, 1.0, 0.05, 0.05)">
      <path d="M7.45 0.6 Q9.45 1.25 9.75 1.45 10.35 1.9 8.2 2.1 L3.35 2.15 Q0.9 1.95 0.15 1.2 -0.7 0.35 2.15 0.05 5.0 -0.25 7.45 0.6" fill="#cc7248" fill-rule="evenodd" stroke="none"/>
    </g>
    <g id="sprite35" transform="matrix(1.0, 0.0, 0.0, 1.0, 0.0, 0.0)">
      <use height="2.2" transform="matrix(1.0, 0.0, 0.0, 1.0, 0.0, 0.0)" width="9.1" xlink:href="#sprite36"/>
    </g>
    <g id="sprite36" transform="matrix(1.0, 0.0, 0.0, 1.0, 0.0, 0.0)">
      <clipPath id="clipPath23" transform="matrix(1.0, 0.0, 0.0, 1.0, 0.0, 0.0)">
        <use height="1.85" transform="matrix(4.9189, 0.0, 0.0, 1.1892, 0.0, 0.0)" width="1.85" xlink:href="#shape22"/>
      </clipPath>
      <g clip-path="url(#clipPath23)">
        <use height="2.2" transform="matrix(1.0, 0.0, 0.0, 1.0, 0.0, 0.0)" width="9.1" xlink:href="#shape47"/>
      </g>
    </g>
    <g id="shape47" transform="matrix(1.0, 0.0, 0.0, 1.0, 0.0, 0.0)">
      <path d="M8.05 0.5 Q9.45 1.05 9.0 1.25 L6.95 1.85 4.3 2.2 1.95 1.65 Q0.6 1.05 0.05 0.45 -0.35 0.0 1.8 0.0 L5.8 0.0 8.05 0.5" fill="#cc7248" fill-rule="evenodd" stroke="none"/>
    </g>
    <g id="sprite37" transform="matrix(1.0, 0.0, 0.0, 1.0, 0.0, 0.0)">
      <use height="2.75" transform="matrix(1.0, 0.0, 0.0, 1.0, 0.0, 0.0)" width="5.45" xlink:href="#sprite38"/>
    </g>
    <g id="sprite38" transform="matrix(1.0, 0.0, 0.0, 1.0, 0.0, 0.0)">
      <clipPath id="clipPath24" transform="matrix(1.0, 0.0, 0.0, 1.0, 0.0, 0.0)">
        <use height="1.85" transform="matrix(2.9189, 0.0, 0.0, 1.4865, 0.0, 0.0)" width="1.85" xlink:href="#shape22"/>
      </clipPath>
      <g clip-path="url(#clipPath24)">
        <use height="2.65" transform="matrix(1.0, 0.0, 0.0, 1.0, 0.0, 0.05)" width="5.45" xlink:href="#shape48"/>
      </g>
    </g>
    <g id="shape48" transform="matrix(1.0, 0.0, 0.0, 1.0, 0.0, -0.05)">
      <path d="M4.45 0.45 Q5.75 0.8 5.35 1.7 4.9 2.65 2.95 2.7 1.2 2.8 0.75 2.15 L0.1 0.65 Q-0.35 -0.05 1.55 0.05 L4.45 0.45" fill="#cc7248" fill-rule="evenodd" stroke="none"/>
    </g>
    <g id="sprite39" transform="matrix(1.0, 0.0, 0.0, 1.0, 0.05, 0.0)">
      <use height="1.5" transform="matrix(1.0, 0.0, 0.0, 1.0, -0.05, 0.0)" width="4.95" xlink:href="#sprite40"/>
    </g>
    <g id="sprite40" transform="matrix(1.0, 0.0, 0.0, 1.0, 0.05, 0.0)">
      <clipPath id="clipPath25" transform="matrix(1.0, 0.0, 0.0, 1.0, 0.05, 0.0)">
        <use height="1.85" transform="matrix(2.6487, 0.0, 0.0, 0.7838, 0.0, 0.0)" width="1.85" xlink:href="#shape22"/>
      </clipPath>
      <g clip-path="url(#clipPath25)">
        <use height="1.5" transform="matrix(1.0, 0.0, 0.0, 1.0, -0.05, 0.0)" width="4.95" xlink:href="#shape49"/>
      </g>
    </g>
    <g id="shape49" transform="matrix(1.0, 0.0, 0.0, 1.0, 0.05, 0.0)">
      <path d="M3.25 0.05 Q5.65 0.4 4.6 1.05 L0.5 1.3 Q-0.7 1.1 0.7 0.5 2.05 -0.15 3.25 0.05" fill="#cc7248" fill-rule="evenodd" stroke="none"/>
    </g>
    <g id="sprite41" transform="matrix(1.0, 0.0, 0.0, 1.0, 0.0, 0.0)">
      <use height="1.6" transform="matrix(1.0, 0.0, 0.0, 1.0, 0.0, 0.0)" width="5.05" xlink:href="#sprite42"/>
    </g>
    <g id="sprite42" transform="matrix(1.0, 0.0, 0.0, 1.0, 0.0, 0.0)">
      <clipPath id="clipPath26" transform="matrix(1.0, 0.0, 0.0, 1.0, 0.0, 0.0)">
        <use height="1.85" transform="matrix(2.7027, 0.0, 0.0, 0.8649, 0.0, 0.0)" width="1.85" xlink:href="#shape22"/>
      </clipPath>
      <g clip-path="url(#clipPath26)">
        <use height="1.6" transform="matrix(1.0, 0.0, 0.0, 1.0, 0.0, 0.0)" width="5.05" xlink:href="#shape50"/>
      </g>
    </g>
    <g id="shape50" transform="matrix(1.0, 0.0, 0.0, 1.0, 0.0, 0.0)">
      <path d="M4.35 0.2 Q5.35 0.3 4.95 0.9 4.5 1.5 3.1 1.6 L1.15 1.4 0.1 0.55 Q-0.35 0.0 1.05 0.0 L4.35 0.2" fill="#cc7248" fill-rule="evenodd" stroke="none"/>
    </g>
    <g id="sprite43" transform="matrix(1.0, 0.0, 0.0, 1.0, 0.0, 0.0)">
      <use height="2.1" transform="matrix(1.0, 0.0, 0.0, 1.0, 0.0, 0.0)" width="5.65" xlink:href="#sprite44"/>
    </g>
    <g id="sprite44" transform="matrix(1.0, 0.0, 0.0, 1.0, 0.0, 0.0)">
      <clipPath id="clipPath27" transform="matrix(1.0, 0.0, 0.0, 1.0, 0.0, 0.0)">
        <use height="1.85" transform="matrix(3.054, 0.0, 0.0, 1.1351, 0.0, 0.0)" width="1.85" xlink:href="#shape22"/>
      </clipPath>
      <g clip-path="url(#clipPath27)">
        <use height="2.1" transform="matrix(1.0, 0.0, 0.0, 1.0, 0.0, 0.0)" width="5.65" xlink:href="#shape51"/>
      </g>
    </g>
    <g id="shape51" transform="matrix(1.0, 0.0, 0.0, 1.0, 0.0, 0.0)">
      <path d="M4.3 0.0 Q5.85 0.0 5.65 0.95 5.4 1.9 3.7 2.05 2.3 2.2 1.6 1.75 L0.25 0.7 Q-1.0 0.0 4.3 0.0" fill="#cc7248" fill-rule="evenodd" stroke="none"/>
    </g>
    <g id="sprite45" transform="matrix(1.0, 0.0, 0.0, 1.0, 0.05, 0.0)">
      <use height="0.75" transform="matrix(1.0, 0.0, 0.0, 1.0, -0.05, 0.0)" width="4.1" xlink:href="#sprite46"/>
    </g>
    <g id="sprite46" transform="matrix(1.0, 0.0, 0.0, 1.0, 0.05, 0.0)">
      <clipPath id="clipPath28" transform="matrix(1.0, 0.0, 0.0, 1.0, 0.05, 0.0)">
        <use height="1.85" transform="matrix(2.1892, 0.0, 0.0, 0.4054, 0.0, 0.0)" width="1.85" xlink:href="#shape22"/>
      </clipPath>
      <g clip-path="url(#clipPath28)">
        <use height="0.75" transform="matrix(1.0, 0.0, 0.0, 1.0, -0.05, 0.0)" width="4.1" xlink:href="#shape52"/>
      </g>
    </g>
    <g id="shape52" transform="matrix(1.0, 0.0, 0.0, 1.0, 0.05, 0.0)">
      <path d="M3.7 0.2 Q4.75 0.6 2.85 0.75 L0.15 0.55 Q-0.55 0.25 1.1 0.05 L3.7 0.2" fill="#cc7248" fill-rule="evenodd" stroke="none"/>
    </g>
    <g id="sprite47" transform="matrix(1.0, 0.0, 0.0, 1.0, 0.0, 0.0)">
      <use height="0.95" transform="matrix(1.0, 0.0, 0.0, 1.0, 0.0, 0.0)" width="4.65" xlink:href="#sprite48"/>
    </g>
    <g id="sprite48" transform="matrix(1.0, 0.0, 0.0, 1.0, 0.0, 0.0)">
      <clipPath id="clipPath29" transform="matrix(1.0, 0.0, 0.0, 1.0, 0.0, 0.0)">
        <use height="1.85" transform="matrix(2.4054, 0.0, 0.0, 0.4865, 0.0, 0.0)" width="1.85" xlink:href="#shape22"/>
      </clipPath>
      <g clip-path="url(#clipPath29)">
        <use height="0.9" transform="matrix(1.0, 0.0, 0.0, 1.0, 0.05, 0.05)" width="4.6" xlink:href="#shape53"/>
      </g>
    </g>
    <g id="shape53" transform="matrix(1.0, 0.0, 0.0, 1.0, -0.05, -0.05)">
      <path d="M4.0 0.15 Q5.7 0.25 3.05 0.75 L0.15 0.6 Q-0.6 -0.2 4.0 0.15" fill="#cc7248" fill-rule="evenodd" stroke="none"/>
    </g>
    <g id="sprite49" transform="matrix(1.0, 0.0, 0.0, 1.0, 0.0, 0.0)">
      <use height="1.2" transform="matrix(1.0, 0.0, 0.0, 1.0, 0.0, 0.0)" width="3.4" xlink:href="#sprite50"/>
    </g>
    <g id="sprite50" transform="matrix(1.0, 0.0, 0.0, 1.0, 0.0, 0.0)">
      <clipPath id="clipPath30" transform="matrix(1.0, 0.0, 0.0, 1.0, 0.0, 0.0)">
        <use height="1.85" transform="matrix(1.7568, 0.0, 0.0, 0.6487, 0.0, 0.0)" width="1.85" xlink:href="#shape22"/>
      </clipPath>
      <g clip-path="url(#clipPath30)">
        <use height="1.2" transform="matrix(1.0, 0.0, 0.0, 1.0, 0.0, 0.0)" width="3.4" xlink:href="#shape54"/>
      </g>
    </g>
    <g id="shape54" transform="matrix(1.0, 0.0, 0.0, 1.0, 0.0, 0.0)">
      <path d="M2.95 0.4 L1.5 1.1 Q0.6 1.4 0.1 0.75 -0.45 0.05 1.8 0.0 4.25 -0.1 2.95 0.4" fill="#cc7248" fill-rule="evenodd" stroke="none"/>
    </g>
    <g id="sprite51" transform="matrix(1.0, 0.0, 0.0, 1.0, 0.0, 0.0)">
      <use height="2.0" transform="matrix(1.0, 0.0, 0.0, 1.0, 0.0, 0.0)" width="6.1" xlink:href="#sprite52"/>
    </g>
    <g id="sprite52" transform="matrix(1.0, 0.0, 0.0, 1.0, 0.0, 0.0)">
      <clipPath id="clipPath31" transform="matrix(1.0, 0.0, 0.0, 1.0, 0.0, 0.0)">
        <use height="1.85" transform="matrix(3.2973, 0.0, 0.0, 1.0811, 0.0, 0.0)" width="1.85" xlink:href="#shape22"/>
      </clipPath>
      <g clip-path="url(#clipPath31)">
        <use height="2.0" transform="matrix(1.0, 0.0, 0.0, 1.0, 0.0, 0.0)" width="6.1" xlink:href="#shape55"/>
      </g>
    </g>
    <g id="shape55" transform="matrix(1.0, 0.0, 0.0, 1.0, 0.0, 0.0)">
      <path d="M5.1 0.05 Q6.3 0.05 6.05 0.7 L5.55 1.3 4.2 1.9 2.3 1.8 Q0.9 1.45 0.2 0.75 -0.45 0.1 1.25 0.0 L5.1 0.05" fill="#cc7248" fill-rule="evenodd" stroke="none"/>
    </g>
    <g id="sprite53" transform="matrix(1.0, 0.0, 0.0, 1.0, 0.0, 0.0)">
      <use height="1.85" transform="matrix(1.0, 0.0, 0.0, 1.0, 0.0, 0.0)" width="1.85" xlink:href="#sprite54"/>
    </g>
    <g id="sprite54" transform="matrix(1.0, 0.0, 0.0, 1.0, 0.0, 0.0)">
      <clipPath id="clipPath32" transform="matrix(1.0, 0.0, 0.0, 1.0, 0.0, 0.0)">
        <use height="1.85" transform="matrix(1.0, 0.0, 0.0, 1.0, 0.0, 0.0)" width="1.85" xlink:href="#shape22"/>
      </clipPath>
      <g clip-path="url(#clipPath32)">
        <use height="1.8" transform="matrix(1.0, 0.0, 0.0, 1.0, 0.0, 0.0)" width="1.85" xlink:href="#shape45"/>
      </g>
    </g>
    <g id="shape56" transform="matrix(1.0, 0.0, 0.0, 1.0, -82.7, -107.0)">
      <path d="M84.85 107.05 Q87.35 106.8 88.55 107.55 89.95 108.45 89.85 110.3 89.7 112.05 88.4 113.35 87.35 114.4 85.3 114.3 L83.5 113.95 Q84.25 112.3 85.15 111.55 85.75 111.05 84.5 109.7 L82.75 107.85 Q82.35 107.25 84.85 107.05" fill="#6b2e11" fill-rule="evenodd" stroke="none"/>
    </g>
    <g id="sprite55" transform="matrix(1.0, 0.0, 0.0, 1.0, 0.0, 0.0)">
      <use height="60.45" transform="matrix(1.0, 0.0, 0.0, 1.0, 0.0, 0.0)" width="119.2" xlink:href="#shape57"/>
    </g>
    <g id="shape57" transform="matrix(1.0, 0.0, 0.0, 1.0, 0.0, 0.0)">
      <path d="M104.05 19.45 Q111.3 27.45 115.4 37.25 119.2 46.4 119.2 54.5 119.2 57.2 118.65 59.3 115.65 41.35 101.1 27.35 84.0 10.9 59.6 10.9 34.8 10.9 17.85 27.35 3.25 41.5 0.45 60.45 0.0 58.5 0.0 55.8 0.0 46.9 3.8 37.4 7.8 27.35 15.1 19.3 32.5 0.0 59.6 0.0 86.35 0.0 104.05 19.45" fill="url(#gradient20)" fill-rule="evenodd" stroke="none"/>
    </g>
    <linearGradient gradientTransform="matrix(0.0, -0.0369, -0.0369, 0.0, 59.6, 30.2)" gradientUnits="userSpaceOnUse" id="gradient20" spreadMethod="pad" x1="-819.2" x2="819.2">
      <stop offset="0.12941176470588237" stop-color="#e2b8b2"/>
      <stop offset="0.9254901960784314" stop-color="#ffffff"/>
    </linearGradient>
    <g id="sprite56" transform="matrix(1.0, 0.0, 0.0, 1.0, 0.0, 0.0)">
      <use height="66.4" transform="matrix(1.0, 0.0, 0.0, 1.0, 0.0, 0.0)" width="119.2" xlink:href="#shape58"/>
    </g>
    <g id="shape58" transform="matrix(1.0, 0.0, 0.0, 1.0, 0.0, 0.0)">
      <path d="M115.4 37.25 Q119.2 46.4 119.2 54.5 119.2 62.55 114.5 64.65 110.7 66.35 101.75 64.6 L82.8 60.2 Q69.8 57.45 59.6 57.45 49.3 57.45 36.4 60.4 L17.45 65.25 Q8.45 67.3 4.7 65.75 0.0 63.85 0.0 55.8 0.0 46.9 3.8 37.4 7.8 27.35 15.1 19.3 32.5 0.0 59.6 0.0 86.35 0.0 104.05 19.45 111.3 27.45 115.4 37.25" fill="#ffffff" fill-rule="evenodd" stroke="none"/>
    </g>
  </defs>
</svg>
