<?xml version="1.0" encoding="UTF-8" standalone="no"?>
<svg xmlns:xlink="http://www.w3.org/1999/xlink" height="100.0px" width="120.0px" xmlns="http://www.w3.org/2000/svg">
  <g transform="matrix(1.0, 0.0, 0.0, 1.0, 0.0, 0.0)">
    <use height="36.85" transform="matrix(1.0, 0.0, 0.0, 1.0, 32.3, 64.15)" width="56.7" xlink:href="#shape0"/>
  </g>
  <defs>
    <g id="shape0" transform="matrix(1.0, 0.0, 0.0, 1.0, -32.3, -64.15)">
      <path d="M64.05 77.45 L61.5 77.85 61.25 76.9 61.25 76.15 61.0 74.5 70.35 72.55 Q71.55 73.45 71.55 74.35 L71.0 75.8 68.6 76.3 64.05 77.45" fill="#ccccd4" fill-rule="evenodd" stroke="none"/>
      <path d="M60.3 76.4 Q60.2 75.65 60.4 75.1 60.6 74.5 61.05 74.45 61.5 74.4 61.9 74.85 62.3 75.3 62.4 76.05 L62.35 77.3 61.65 77.9 Q61.15 77.95 60.8 77.5 60.4 77.1 60.3 76.4" fill="#626266" fill-rule="evenodd" stroke="none"/>
      <path d="M60.7 76.4 Q60.55 75.45 61.05 75.35 61.6 75.25 61.75 76.2 61.95 77.15 61.4 77.25 60.9 77.35 60.7 76.4" fill="#424245" fill-rule="evenodd" stroke="none"/>
      <path d="M70.85 73.35 L68.6 74.15 Q62.6 75.45 62.4 75.05 L64.3 74.55 70.85 73.35" fill="#f2f2f2" fill-rule="evenodd" stroke="none"/>
      <path d="M33.55 79.75 L33.6 77.7 45.45 77.85 Q46.65 79.25 46.5 80.35 46.35 81.1 45.4 82.0 L42.35 81.95 36.55 82.0 33.4 81.8 Q33.2 81.55 33.35 80.65 L33.55 79.75" fill="#ccccd4" fill-rule="evenodd" stroke="none"/>
      <path d="M32.3 79.75 L32.7 78.25 Q33.15 77.55 33.65 77.6 34.25 77.7 34.6 78.35 35.0 79.0 34.95 79.9 L34.5 81.4 33.5 81.95 Q32.9 81.9 32.6 81.25 32.25 80.65 32.3 79.75" fill="#626266" fill-rule="evenodd" stroke="none"/>
      <path d="M32.75 79.85 Q32.75 79.35 33.0 79.0 33.15 78.7 33.45 78.7 34.05 78.8 34.05 79.95 L33.85 80.75 33.4 81.1 32.95 80.7 Q32.7 80.35 32.75 79.85" fill="#424245" fill-rule="evenodd" stroke="none"/>
      <path d="M45.85 78.95 L42.95 79.3 37.15 79.15 Q35.3 79.05 35.2 78.75 L37.65 78.6 45.85 78.95" fill="#f2f2f2" fill-rule="evenodd" stroke="none"/>
      <path d="M87.8 88.55 L87.6 91.45 Q87.45 92.1 86.65 92.1 L85.8 91.85 85.5 91.6 85.1 88.35 87.8 88.55" fill="url(#gradient0)" fill-rule="evenodd" stroke="none"/>
      <path d="M36.4 86.05 L36.2 88.95 Q36.1 89.6 35.25 89.6 L34.4 89.35 34.1 89.15 33.7 85.9 36.4 86.05" fill="url(#gradient1)" fill-rule="evenodd" stroke="none"/>
      <path d="M49.4 97.45 L49.05 100.4 Q48.9 101.0 47.9 101.0 L46.75 100.8 46.45 100.55 45.95 97.3 49.4 97.45" fill="url(#gradient2)" fill-rule="evenodd" stroke="none"/>
      <path d="M85.6 81.6 Q88.2 83.7 88.8 84.7 L88.85 85.35 88.25 86.25 88.7 87.85 88.3 88.3 86.7 89.55 Q85.6 90.35 67.8 94.55 50.15 98.7 48.25 98.65 46.7 98.65 43.9 96.0 L41.35 93.3 Q39.35 91.65 37.1 89.4 L35.2 87.45 Q33.9 85.95 34.0 84.8 L34.05 83.2 34.05 82.4 40.35 80.55 Q48.05 78.4 54.85 76.95 61.65 75.5 67.85 74.95 L72.75 74.7 76.55 76.1 Q81.25 78.15 85.6 81.6" fill="#ffffff" fill-rule="evenodd" stroke="none"/>
      <path d="M67.0 75.35 L72.1 75.05 73.55 75.45 Q75.45 76.15 77.9 77.35 81.15 78.9 84.05 81.35 87.25 83.95 87.6 85.75 87.95 87.25 88.3 87.2 L88.55 86.85 88.5 88.55 85.65 90.0 82.2 91.45 34.9 87.25 34.35 82.8 37.75 81.65 49.9 78.45 Q59.9 76.15 67.0 75.35" fill="#7d7d7d" fill-rule="evenodd" stroke="none"/>
      <path d="M84.45 90.7 Q79.75 92.55 72.5 94.3 65.25 96.05 56.0 97.3 L48.15 98.2 46.35 97.45 Q43.95 96.3 40.9 93.9 38.3 91.85 36.5 89.45 L35.2 87.45 34.9 83.65 64.45 82.45 Q74.15 83.8 87.55 86.65 L87.8 89.2 Q86.85 89.8 84.45 90.7" fill="#343436" fill-rule="evenodd" stroke="none"/>
      <path d="M73.2 76.3 L75.25 76.85 Q77.85 77.8 80.85 79.85 83.85 82.0 86.0 84.55 L87.55 86.65 85.2 87.75 Q81.45 89.2 74.6 90.85 64.65 93.35 55.3 94.8 L48.0 95.8 Q44.85 94.0 41.85 91.45 37.65 87.95 35.9 85.6 L35.0 83.95 40.05 82.15 Q47.1 80.05 56.95 78.2 64.95 76.65 69.9 76.35 72.35 76.15 73.2 76.3" fill="#434345" fill-rule="evenodd" stroke="none"/>
      <path d="M69.05 76.35 L69.3 75.95 Q69.65 75.5 70.2 75.55 70.95 75.6 74.55 77.85 78.45 80.2 82.35 83.2 L84.9 85.45 85.0 86.55 Q84.6 86.95 83.95 86.95 L81.65 85.5 77.6 82.55 69.05 76.35" fill="#434345" fill-rule="evenodd" stroke="none"/>
      <path d="M69.05 76.15 L69.45 75.7 Q69.55 76.5 70.6 77.2 L79.85 83.5 Q83.5 86.15 83.75 85.95 L84.45 85.7 85.0 86.55 Q84.6 86.95 83.95 86.95 L81.65 85.5 77.6 82.55 69.0 76.45 69.05 76.15" fill="#343436" fill-rule="evenodd" stroke="none"/>
      <path d="M64.35 76.05 Q65.1 76.1 68.95 78.6 73.1 81.3 77.25 84.65 79.55 86.45 80.0 87.2 L80.15 88.45 Q79.7 88.9 79.05 88.85 L76.55 87.3 72.3 83.95 63.2 76.9 63.4 76.45 Q63.75 76.0 64.35 76.05" fill="#434345" fill-rule="evenodd" stroke="none"/>
      <path d="M63.2 76.7 L63.6 76.2 Q63.7 77.1 64.85 77.9 68.8 80.5 74.65 85.0 78.55 88.0 78.8 87.75 79.25 87.4 79.55 87.5 L80.15 88.45 Q79.7 88.9 79.05 88.85 L76.55 87.3 72.3 83.95 63.15 77.05 63.2 76.7" fill="#343436" fill-rule="evenodd" stroke="none"/>
      <path d="M57.9 77.25 Q58.65 77.3 62.45 79.9 66.55 82.75 70.8 86.3 73.05 88.2 73.5 89.0 L73.7 90.3 Q73.25 90.8 72.55 90.75 72.15 90.7 70.1 89.1 L65.85 85.6 56.6 78.2 56.9 77.7 Q57.3 77.2 57.9 77.25" fill="#434345" fill-rule="evenodd" stroke="none"/>
      <path d="M56.55 78.3 L56.6 77.95 57.1 77.5 Q57.2 78.4 58.35 79.25 62.4 82.0 68.25 86.7 72.1 89.85 72.35 89.6 72.75 89.2 73.1 89.35 73.4 89.5 73.7 90.3 73.25 90.8 72.55 90.75 72.15 90.7 70.1 89.1 L65.85 85.6 56.55 78.3" fill="#343436" fill-rule="evenodd" stroke="none"/>
      <path d="M66.9 91.55 Q66.45 92.1 65.75 92.0 65.35 91.95 63.3 90.35 L59.0 86.9 49.8 79.6 50.1 79.05 Q50.5 78.5 51.1 78.55 51.85 78.6 55.65 81.2 59.75 84.05 64.0 87.55 66.25 89.45 66.7 90.25 L66.9 91.55" fill="#434345" fill-rule="evenodd" stroke="none"/>
      <path d="M59.0 86.9 L49.7 79.65 49.8 79.3 50.3 78.75 Q50.4 79.7 51.6 80.5 55.55 83.25 61.45 87.95 65.3 91.1 65.55 90.85 66.0 90.45 66.3 90.6 L66.9 91.55 Q66.45 92.1 65.75 92.0 65.35 91.95 63.3 90.35 L59.0 86.9" fill="#343436" fill-rule="evenodd" stroke="none"/>
      <path d="M56.5 89.15 Q58.7 91.0 59.1 91.8 L59.25 93.05 Q58.85 93.55 58.2 93.5 L55.8 91.9 51.65 88.5 42.75 81.4 43.05 80.85 Q43.45 80.3 43.95 80.35 44.75 80.4 48.45 82.95 52.4 85.7 56.5 89.15" fill="#434345" fill-rule="evenodd" stroke="none"/>
      <path d="M58.7 92.1 L59.25 93.05 Q58.85 93.55 58.2 93.5 L55.8 91.9 51.65 88.5 42.75 81.4 42.85 81.1 43.25 80.6 Q43.35 81.5 44.5 82.3 L53.95 89.6 Q57.75 92.65 57.95 92.35 58.35 92.0 58.7 92.1" fill="#343436" fill-rule="evenodd" stroke="none"/>
      <path d="M44.9 90.1 L36.55 83.25 36.75 82.8 Q37.05 82.3 37.6 82.35 38.3 82.35 41.85 84.8 45.6 87.4 49.45 90.7 51.6 92.45 52.0 93.25 L52.15 94.5 Q51.75 94.95 51.15 94.9 L48.9 93.35 44.9 90.1" fill="#434345" fill-rule="evenodd" stroke="none"/>
      <path d="M36.5 83.3 L36.55 82.95 Q36.65 82.65 36.9 82.5 37.0 83.35 38.1 84.15 41.75 86.75 47.1 91.1 50.65 94.05 50.9 93.8 51.3 93.45 51.6 93.55 L52.15 94.5 Q51.75 94.95 51.15 94.9 L48.9 93.35 44.9 90.1 36.5 83.3" fill="#343436" fill-rule="evenodd" stroke="none"/>
      <path d="M34.35 82.45 L35.2 83.85 Q36.55 85.7 38.95 87.95 43.0 91.75 47.2 94.2 L45.75 95.0 40.8 93.7 34.6 86.05 Q33.85 84.25 33.85 83.45 L34.05 82.4 34.35 82.45" fill="#ffffff" fill-rule="evenodd" stroke="none"/>
      <path d="M33.8 86.4 Q33.5 84.85 33.7 83.45 L34.05 82.4 34.05 82.85 Q34.45 83.75 36.15 85.9 39.4 89.9 43.35 92.8 45.3 94.3 46.65 94.95 L46.85 95.7 47.0 97.8 46.75 99.15 44.45 98.05 Q41.7 96.5 39.45 94.55 34.5 89.95 33.8 86.4" fill="url(#gradient3)" fill-rule="evenodd" stroke="none"/>
      <path d="M87.6 85.75 L88.85 85.35 89.0 88.7 85.3 90.7 Q79.9 93.05 71.75 94.85 60.45 97.35 52.5 98.5 L46.75 99.15 Q46.2 97.3 46.1 96.0 L45.9 94.75 45.75 94.45 47.2 94.2 47.55 97.4 47.8 98.35 53.5 97.75 Q61.3 96.65 71.5 94.3 79.55 92.45 84.55 90.3 87.05 89.2 87.95 88.45 L87.6 85.75" fill="#c9c9c9" fill-rule="evenodd" stroke="none"/>
      <path d="M85.3 85.35 Q84.1 85.5 82.85 84.7 L80.7 82.95 81.35 83.4 Q82.65 84.2 85.3 85.35" fill="#5c5c5e" fill-rule="evenodd" stroke="none"/>
      <path d="M74.1 78.45 L73.5 77.7 75.8 78.35 76.6 78.95 76.4 78.65 77.7 79.55 77.7 79.5 77.85 79.65 77.7 79.55 Q78.15 80.95 81.1 82.45 L79.7 82.05 79.8 82.2 79.7 82.15 78.6 81.2 77.4 80.4 75.85 79.75 Q74.85 79.35 74.55 78.8 L74.1 78.45" fill="#5c5c5e" fill-rule="evenodd" stroke="none"/>
      <path d="M69.05 78.5 L70.3 78.5 69.4 78.1 69.85 78.05 71.6 79.55 73.45 81.0 72.05 80.5 Q72.3 81.1 73.7 81.9 L77.25 83.75 76.85 83.6 Q77.2 84.5 78.35 85.35 L74.75 83.4 72.95 82.35 73.35 82.8 71.35 81.65 Q70.25 80.75 69.8 79.8 L71.05 80.7 70.05 79.65 69.05 78.5" fill="#5c5c5e" fill-rule="evenodd" stroke="none"/>
      <path d="M68.3 77.7 L68.9 78.4 Q68.25 78.6 67.5 77.65 L67.95 77.65 68.3 77.7" fill="#5c5c5e" fill-rule="evenodd" stroke="none"/>
      <path d="M69.35 79.9 Q68.2 79.5 68.1 78.85 L68.25 78.85 69.35 79.9" fill="#5c5c5e" fill-rule="evenodd" stroke="none"/>
      <path d="M79.55 84.95 L79.25 84.85 79.05 84.25 79.55 84.95" fill="#5c5c5e" fill-rule="evenodd" stroke="none"/>
      <path d="M78.3 84.45 L79.25 84.85 79.85 85.6 80.4 86.35 79.35 85.4 78.3 84.45" fill="#5c5c5e" fill-rule="evenodd" stroke="none"/>
      <path d="M78.85 86.9 Q78.0 86.7 77.2 86.1 76.35 85.55 75.95 84.8 L77.05 85.15 Q77.7 85.3 78.05 85.6 L77.75 85.95 78.85 86.9" fill="#5c5c5e" fill-rule="evenodd" stroke="none"/>
      <path d="M63.35 79.3 L63.3 79.0 Q63.75 80.05 65.6 81.15 L68.25 83.05 66.15 81.9 Q67.05 83.15 68.85 84.3 L72.0 86.3 Q70.8 85.75 70.45 85.7 70.6 86.45 71.55 87.55 69.65 86.9 69.15 86.5 L67.3 85.05 65.55 83.4 66.4 84.25 64.7 82.5 63.05 80.7 61.25 79.8 Q60.05 79.25 59.85 78.5 60.55 79.15 61.7 79.6 L61.4 78.8 62.45 78.95 63.35 79.3" fill="#5c5c5e" fill-rule="evenodd" stroke="none"/>
      <path d="M74.45 88.95 Q72.3 88.2 71.75 86.95 L72.45 86.9 73.4 87.9 74.45 88.95" fill="#5c5c5e" fill-rule="evenodd" stroke="none"/>
      <path d="M71.2 84.95 L69.9 84.3 Q69.15 83.8 69.05 83.25 L70.2 83.8 Q70.9 84.25 71.2 84.95" fill="#5c5c5e" fill-rule="evenodd" stroke="none"/>
      <path d="M56.4 81.2 L57.8 82.65 57.7 82.65 Q58.2 83.75 59.85 84.7 61.9 86.0 62.3 86.45 L61.65 86.25 62.45 87.15 63.55 87.85 66.0 89.65 Q63.2 88.2 61.65 86.65 L60.1 85.45 58.5 84.2 55.85 81.75 54.75 81.05 53.85 80.15 54.75 80.1 54.95 79.9 56.4 81.2" fill="#5c5c5e" fill-rule="evenodd" stroke="none"/>
      <path d="M61.4 84.7 L60.5 84.0 Q59.25 82.9 59.05 82.0 L61.0 83.1 60.05 83.35 61.4 84.7" fill="#5c5c5e" fill-rule="evenodd" stroke="none"/>
      <path d="M54.75 79.85 L56.1 79.6 Q57.2 79.6 57.45 80.0 L57.35 79.75 58.1 80.95 56.25 80.75 Q55.05 80.4 54.75 79.85" fill="#5c5c5e" fill-rule="evenodd" stroke="none"/>
      <path d="M57.65 81.8 L58.25 82.85 58.0 82.6 Q57.55 82.15 57.65 81.8" fill="#5c5c5e" fill-rule="evenodd" stroke="none"/>
      <path d="M62.05 84.55 L61.95 84.2 63.9 86.05 Q63.35 86.1 62.75 85.6 62.15 85.15 62.05 84.55" fill="#5c5c5e" fill-rule="evenodd" stroke="none"/>
      <path d="M68.6 89.5 Q67.8 89.4 66.5 88.55 65.15 87.6 65.05 86.95 L65.25 86.95 66.75 88.1 68.6 89.5" fill="#5c5c5e" fill-rule="evenodd" stroke="none"/>
      <path d="M68.55 88.95 L69.6 89.25 69.7 89.65 Q68.9 89.6 68.55 88.95" fill="#5c5c5e" fill-rule="evenodd" stroke="none"/>
      <path d="M68.7 89.85 L68.75 90.25 Q68.4 90.3 67.85 89.85 67.35 89.45 67.35 89.05 L67.75 89.1 68.7 89.85" fill="#5c5c5e" fill-rule="evenodd" stroke="none"/>
      <path d="M64.55 87.55 L66.8 88.75 66.9 89.3 Q66.2 89.1 64.55 87.55" fill="#5c5c5e" fill-rule="evenodd" stroke="none"/>
      <path d="M56.55 86.05 L55.85 85.5 Q57.65 86.25 59.35 88.2 L56.55 86.05" fill="#5c5c5e" fill-rule="evenodd" stroke="none"/>
      <path d="M54.05 85.3 L54.9 86.15 Q56.1 87.3 56.5 88.1 55.65 87.95 53.4 86.15 52.0 84.9 51.85 83.95 L52.5 84.05 53.25 83.25 55.0 84.7 Q56.3 85.95 56.0 86.3 54.95 86.1 54.05 85.3" fill="#5c5c5e" fill-rule="evenodd" stroke="none"/>
      <path d="M48.4 81.1 L49.95 81.1 Q50.7 81.45 50.7 82.0 49.45 82.3 48.4 81.1" fill="#5c5c5e" fill-rule="evenodd" stroke="none"/>
      <path d="M48.0 81.1 L49.9 82.3 Q51.1 83.05 51.55 83.8 L50.0 83.0 48.45 82.3 50.3 84.4 48.0 83.2 Q46.45 82.4 45.85 81.55 L46.85 81.45 48.0 81.1" fill="#5c5c5e" fill-rule="evenodd" stroke="none"/>
      <path d="M56.9 90.7 L53.55 88.65 52.85 88.1 52.2 87.4 51.35 85.65 52.75 86.8 Q51.6 86.95 55.15 89.3 L57.0 90.35 56.4 90.3 56.9 90.7" fill="#5c5c5e" fill-rule="evenodd" stroke="none"/>
      <path d="M48.75 84.5 Q51.05 85.6 51.4 86.35 L51.0 86.05 51.25 86.65 Q49.35 85.5 48.75 84.5" fill="#5c5c5e" fill-rule="evenodd" stroke="none"/>
      <path d="M56.95 88.3 L58.15 88.95 60.0 90.55 Q57.15 89.6 56.95 88.3" fill="#5c5c5e" fill-rule="evenodd" stroke="none"/>
      <path d="M61.65 90.7 L61.05 90.05 Q61.95 90.75 62.2 91.4 L61.65 90.7" fill="#5c5c5e" fill-rule="evenodd" stroke="none"/>
      <path d="M42.15 83.8 L48.0 87.7 47.0 87.1 Q47.0 87.45 48.75 88.85 50.45 90.2 52.9 91.45 L51.05 90.9 Q51.15 91.4 52.0 92.05 L53.2 93.05 49.45 90.9 44.45 87.85 Q43.75 87.6 43.6 87.1 44.15 87.55 44.7 87.7 L43.5 86.15 Q42.8 85.2 42.7 84.45 L42.15 83.8" fill="#5c5c5e" fill-rule="evenodd" stroke="none"/>
      <path d="M41.95 82.9 L42.4 82.9 43.95 84.45 Q43.4 84.5 42.6 83.95 L41.7 82.85 41.95 82.9" fill="#5c5c5e" fill-rule="evenodd" stroke="none"/>
      <path d="M83.85 84.65 Q84.55 83.5 86.0 83.5 87.25 83.5 87.5 84.3 L87.5 85.15 Q87.5 87.4 81.4 90.25 75.75 92.9 69.4 93.4 L69.05 93.75 66.6 94.0 Q60.15 94.0 54.3 92.0 49.3 90.3 48.45 88.4 46.6 87.5 44.65 84.7 L42.25 80.65 Q42.25 77.95 45.2 80.9 L50.1 85.5 55.4 88.65 Q60.95 91.35 66.5 91.35 70.2 91.35 73.2 90.4 L77.0 89.35 Q77.25 88.4 79.5 87.3 81.1 86.5 82.1 86.25 83.05 85.95 83.85 84.65" fill="#000000" fill-opacity="0.4" fill-rule="evenodd" stroke="none"/>
      <path d="M66.95 88.95 Q66.8 89.4 65.15 90.25 63.55 91.15 61.85 91.7 60.25 92.1 55.0 89.65 50.15 87.25 48.25 85.6 43.0 80.95 40.2 77.2 L38.45 74.45 38.35 71.9 38.65 69.7 38.85 68.7 39.9 69.35 Q67.2 88.3 66.95 88.95" fill="#a8a8a8" fill-rule="evenodd" stroke="none"/>
      <path d="M85.6 75.3 Q86.3 77.2 85.9 79.2 85.8 80.6 85.5 81.15 85.2 81.65 85.2 82.55 L85.7 83.25 83.8 86.85 82.6 87.65 79.65 88.75 Q75.8 89.95 70.85 90.65 L62.6 91.65 59.85 91.75 Q61.4 86.0 60.95 84.45 60.6 83.55 68.7 76.35 L76.8 69.4 Q80.9 70.9 84.85 73.8 L85.6 75.3" fill="#a0a0a6" fill-rule="evenodd" stroke="none"/>
      <path d="M67.3 64.9 L70.15 66.2 Q72.1 67.15 75.2 68.05 80.15 69.55 82.9 71.65 86.2 74.15 85.85 77.45 85.65 79.7 85.0 81.05 L84.1 82.45 Q83.8 83.1 67.3 64.9" fill="#ececf5" fill-rule="evenodd" stroke="none"/>
      <path d="M83.15 84.2 Q79.55 85.45 74.45 86.35 67.15 87.7 63.05 87.85 L60.45 87.75 Q58.8 87.3 56.2 85.9 51.0 83.1 45.9 78.4 41.95 74.8 40.0 71.35 L38.85 68.7 Q39.25 68.3 41.0 67.65 44.45 66.45 50.9 65.1 56.45 64.0 62.15 64.15 L66.8 64.6 70.15 66.15 Q74.45 68.45 79.55 73.0 83.55 76.5 85.0 80.2 85.8 82.05 85.7 83.25 L83.15 84.2" fill="#ececf5" fill-rule="evenodd" stroke="none"/>
      <path d="M74.35 68.65 L77.2 69.55 Q80.45 70.75 82.25 72.2 84.5 74.0 84.7 76.4 84.85 77.65 84.5 78.5 83.0 75.55 80.05 72.9 L75.7 69.5 74.35 68.65" fill="url(#gradient4)" fill-rule="evenodd" stroke="none"/>
      <path d="M82.2 78.45 Q83.6 80.8 84.1 82.45 L73.05 84.35 Q66.9 85.35 63.65 86.25 62.0 86.75 61.55 87.0 59.75 86.65 57.1 85.3 51.7 82.8 46.95 78.5 42.65 74.5 41.0 71.25 L40.15 68.9 Q40.75 68.45 42.5 67.75 46.1 66.5 51.8 65.4 L61.9 64.6 65.8 64.9 67.85 65.65 Q70.9 67.15 75.3 70.45 79.55 73.75 82.2 78.45" fill="#343436" fill-rule="evenodd" stroke="none"/>
      <path d="M84.0 79.8 Q84.65 81.55 84.65 82.6 81.7 84.2 74.15 85.55 67.2 86.85 63.4 86.95 L61.0 86.9 Q59.5 86.45 57.05 85.15 52.25 82.5 47.5 78.2 43.9 74.85 42.05 71.65 L41.0 69.15 Q41.45 68.85 43.05 68.2 46.25 67.05 52.25 65.8 57.35 64.75 62.7 64.95 L67.0 65.35 70.1 66.7 Q74.1 69.0 78.9 73.15 82.6 76.35 84.0 79.8" fill="#434345" fill-rule="evenodd" stroke="none"/>
      <path d="M69.5 67.1 L53.95 69.75 46.75 71.0 42.65 71.6 41.7 71.25 41.6 71.05 Q41.65 70.35 42.15 70.1 43.0 69.65 46.85 68.9 L60.65 66.6 67.75 65.95 Q69.05 66.2 69.5 67.1" fill="#434345" fill-rule="evenodd" stroke="none"/>
      <path d="M66.35 67.25 Q68.2 66.95 68.7 66.3 69.65 66.8 68.45 67.2 L53.95 69.75 46.75 71.0 42.65 71.6 41.7 71.15 41.55 70.85 41.9 70.55 42.4 71.0 49.7 70.0 66.35 67.25" fill="#343436" fill-rule="evenodd" stroke="none"/>
      <path d="M73.9 69.65 L57.15 72.7 49.25 74.15 44.85 74.75 43.9 74.45 43.75 74.15 Q43.85 73.45 44.4 73.2 45.25 72.6 49.45 71.75 L64.35 69.25 72.15 68.5 Q73.45 68.7 73.9 69.65" fill="#434345" fill-rule="evenodd" stroke="none"/>
      <path d="M70.6 69.85 Q72.6 69.55 73.1 68.8 74.15 69.4 72.75 69.8 L57.15 72.7 49.25 74.15 44.85 74.75 Q44.15 74.65 43.85 74.35 L43.7 74.0 Q43.9 73.6 44.05 73.65 L44.55 74.15 52.55 72.95 70.6 69.85" fill="#343436" fill-rule="evenodd" stroke="none"/>
      <path d="M60.45 75.75 L52.3 77.35 47.7 78.0 46.75 77.6 46.65 77.4 Q46.75 76.65 47.3 76.3 48.15 75.75 52.5 74.85 L67.8 72.25 75.85 71.4 Q77.2 71.7 77.65 72.6 L60.45 75.75" fill="#434345" fill-rule="evenodd" stroke="none"/>
      <path d="M76.5 72.85 L60.45 75.75 52.3 77.35 47.7 78.0 Q47.05 77.85 46.75 77.5 L46.55 77.2 Q46.8 76.75 46.95 76.8 L47.5 77.3 Q47.8 77.65 55.7 76.1 L74.2 72.8 Q76.3 72.5 76.8 71.85 77.85 72.35 76.5 72.85" fill="#343436" fill-rule="evenodd" stroke="none"/>
      <path d="M64.0 79.05 L56.05 80.65 51.65 81.25 Q50.95 81.2 50.7 80.9 L50.6 80.65 Q50.65 79.95 51.25 79.65 52.1 79.1 56.25 78.2 L71.2 75.45 79.0 74.65 Q80.35 74.9 80.8 75.8 L64.0 79.05" fill="#434345" fill-rule="evenodd" stroke="none"/>
      <path d="M79.65 76.0 L64.0 79.05 56.05 80.65 51.65 81.25 Q50.95 81.2 50.65 80.85 L50.45 80.55 50.85 80.15 51.4 80.65 59.4 79.4 77.5 76.05 Q79.4 75.7 80.0 75.0 81.0 75.55 79.65 76.0" fill="#343436" fill-rule="evenodd" stroke="none"/>
      <path d="M60.1 83.5 L56.0 84.15 55.1 83.85 54.95 83.55 Q55.0 82.95 55.5 82.65 56.35 82.15 60.3 81.3 L74.25 78.8 81.55 78.0 Q82.8 78.15 83.25 79.05 L67.5 82.05 60.1 83.5" fill="#434345" fill-rule="evenodd" stroke="none"/>
      <path d="M82.1 79.2 L67.5 82.05 60.1 83.5 56.0 84.15 55.0 83.8 54.85 83.5 Q55.1 83.05 55.25 83.1 L55.7 83.55 63.15 82.4 80.05 79.25 Q81.9 79.0 82.45 78.35 83.4 78.75 82.1 79.2" fill="#343436" fill-rule="evenodd" stroke="none"/>
      <path d="M82.9 81.1 Q84.05 81.3 84.4 82.0 L70.75 84.75 64.4 86.1 60.85 86.65 Q60.3 86.6 60.1 86.4 L60.0 86.2 Q60.1 85.65 60.55 85.4 61.2 84.85 64.6 84.15 L76.65 81.9 82.9 81.1" fill="#434345" fill-rule="evenodd" stroke="none"/>
      <path d="M83.75 81.35 Q84.5 81.85 83.45 82.2 L70.75 84.75 64.4 86.1 60.85 86.65 Q60.3 86.6 60.05 86.35 L59.9 86.1 Q60.15 85.7 60.25 85.8 L60.65 86.15 67.1 85.1 81.65 82.25 Q83.35 81.95 83.75 81.35" fill="#343436" fill-rule="evenodd" stroke="none"/>
      <path d="M53.8 66.9 L56.3 66.45 57.3 66.7 56.5 67.0 55.6 67.1 54.45 67.35 53.25 67.4 50.9 67.2 48.95 67.4 47.05 67.25 Q47.15 67.0 47.45 67.05 L47.9 67.05 51.25 66.95 53.8 66.9" fill="#5c5c5e" fill-rule="evenodd" stroke="none"/>
      <path d="M60.35 69.8 L61.9 69.45 62.25 69.55 65.4 69.6 63.4 70.05 61.3 70.05 60.5 70.3 59.0 70.5 Q58.45 70.5 58.05 70.75 L57.15 71.2 52.85 71.4 52.85 71.2 51.85 71.05 Q51.2 70.9 50.95 70.6 L53.05 70.65 55.25 70.95 Q56.9 71.05 57.2 70.55 L55.85 70.35 60.35 69.8" fill="#5c5c5e" fill-rule="evenodd" stroke="none"/>
      <path d="M62.4 68.8 Q62.55 68.45 63.3 68.55 L63.95 68.8 Q63.15 69.25 62.4 68.8" fill="#5c5c5e" fill-rule="evenodd" stroke="none"/>
      <path d="M65.5 69.15 L65.8 68.9 65.95 68.8 66.85 69.0 66.15 69.3 65.5 69.15" fill="#5c5c5e" fill-rule="evenodd" stroke="none"/>
      <path d="M64.7 71.8 L65.95 71.35 65.65 71.8 Q65.35 71.6 64.7 71.8" fill="#5c5c5e" fill-rule="evenodd" stroke="none"/>
      <path d="M63.25 72.45 L65.65 71.8 65.8 72.25 Q65.85 72.75 64.95 72.9 L63.75 72.95 61.1 73.15 58.5 72.95 60.85 72.6 63.25 72.45" fill="#5c5c5e" fill-rule="evenodd" stroke="none"/>
      <path d="M60.6 73.55 L60.1 73.25 61.4 73.6 60.4 74.05 59.4 74.55 58.5 75.2 56.55 75.6 54.0 75.8 Q52.2 76.05 51.45 75.8 L53.55 75.3 55.7 75.2 Q57.25 75.0 57.5 74.45 L54.3 74.25 57.45 73.9 60.6 73.55" fill="#5c5c5e" fill-rule="evenodd" stroke="none"/>
      <path d="M72.95 71.35 L72.05 71.65 Q71.5 71.8 71.2 72.05 71.45 72.05 71.7 72.3 70.95 73.15 68.9 73.45 67.3 73.65 65.85 73.45 66.45 73.2 68.0 72.85 L70.1 72.15 67.85 72.25 69.25 71.75 70.7 71.4 70.2 71.9 Q70.6 71.55 70.9 71.5 L71.65 71.55 72.3 71.3 72.95 71.35" fill="#5c5c5e" fill-rule="evenodd" stroke="none"/>
      <path d="M63.85 73.65 L61.9 73.75 Q62.2 73.4 63.15 73.4 L64.45 73.35 63.85 73.65" fill="#5c5c5e" fill-rule="evenodd" stroke="none"/>
      <path d="M49.75 75.15 L48.3 75.4 46.75 75.15 48.5 75.15 49.85 74.85 49.75 75.15" fill="#5c5c5e" fill-rule="evenodd" stroke="none"/>
      <path d="M66.1 77.15 L63.9 77.75 64.05 77.7 58.15 78.1 58.75 78.15 54.45 78.7 55.3 78.15 54.4 78.0 53.45 77.9 56.8 77.85 60.05 77.25 57.3 77.0 64.25 76.4 Q66.4 75.9 66.95 75.5 L66.65 75.6 Q66.75 75.3 67.0 75.3 L67.45 75.25 69.65 74.95 71.4 74.75 Q70.65 74.9 70.2 75.45 L71.05 75.5 71.85 75.6 Q69.65 76.2 69.4 76.35 L70.55 76.35 71.6 76.6 68.35 76.65 66.1 77.15" fill="#5c5c5e" fill-rule="evenodd" stroke="none"/>
      <path d="M74.25 74.75 L75.0 74.95 Q74.8 75.45 74.0 75.45 L72.75 75.2 Q74.05 74.6 74.25 74.75" fill="#5c5c5e" fill-rule="evenodd" stroke="none"/>
      <path d="M76.85 74.45 L75.4 74.5 75.6 74.0 74.45 74.05 Q74.9 73.75 75.6 73.65 L75.85 73.65 75.75 73.85 Q76.7 74.15 76.85 74.45" fill="#5c5c5e" fill-rule="evenodd" stroke="none"/>
      <path d="M76.5 75.4 Q75.85 76.05 75.25 75.75 L75.55 75.5 75.1 75.5 76.5 75.4" fill="#5c5c5e" fill-rule="evenodd" stroke="none"/>
      <path d="M48.8 79.2 Q51.45 79.0 52.0 78.15 L52.4 78.6 Q52.25 79.2 50.75 79.25 L48.8 79.2" fill="#5c5c5e" fill-rule="evenodd" stroke="none"/>
      <path d="M50.3 76.6 L48.4 76.75 46.65 76.2 50.15 76.3 50.3 76.6" fill="#5c5c5e" fill-rule="evenodd" stroke="none"/>
      <path d="M57.55 81.95 L58.0 81.7 55.3 81.7 57.25 81.3 58.0 80.95 58.75 80.75 Q61.3 79.8 64.45 79.35 L63.55 80.35 66.35 80.25 69.15 79.6 70.25 79.8 71.2 80.0 67.4 80.2 63.35 80.9 64.25 80.65 Q60.6 80.9 57.55 81.95" fill="#5c5c5e" fill-rule="evenodd" stroke="none"/>
      <path d="M58.1 82.75 L59.6 82.05 61.95 81.85 Q60.7 82.7 58.1 82.75" fill="#5c5c5e" fill-rule="evenodd" stroke="none"/>
      <path d="M72.2 79.25 L71.05 79.3 70.0 79.2 71.7 78.55 71.6 78.55 73.75 78.6 Q73.35 79.15 72.2 79.25" fill="#5c5c5e" fill-rule="evenodd" stroke="none"/>
      <path d="M76.4 77.8 L74.7 78.05 75.25 77.6 75.25 77.5 76.4 77.8" fill="#5c5c5e" fill-rule="evenodd" stroke="none"/>
      <path d="M80.9 77.65 L80.1 78.4 79.1 78.75 79.7 77.9 Q79.05 78.0 77.75 78.45 L75.9 78.9 Q76.25 78.35 77.7 78.0 L79.8 77.35 79.35 77.4 Q80.15 77.15 80.9 77.65" fill="#5c5c5e" fill-rule="evenodd" stroke="none"/>
      <path d="M74.75 78.85 Q74.15 79.65 73.25 79.5 L74.35 79.1 74.25 78.95 74.75 78.85" fill="#5c5c5e" fill-rule="evenodd" stroke="none"/>
      <path d="M49.3 72.85 L47.0 73.2 48.2 72.35 46.85 72.5 45.4 72.6 Q45.85 72.2 47.0 72.15 L48.55 71.9 48.45 71.9 51.5 72.15 49.3 72.85" fill="#5c5c5e" fill-rule="evenodd" stroke="none"/>
      <path d="M53.95 69.0 L51.65 68.95 49.4 68.85 48.05 69.15 46.8 69.5 44.2 69.9 46.3 69.05 46.1 68.9 47.85 68.7 53.95 69.0" fill="#5c5c5e" fill-rule="evenodd" stroke="none"/>
      <path d="M56.4 68.3 L53.65 68.2 54.8 67.8 Q56.05 68.0 56.4 68.3" fill="#5c5c5e" fill-rule="evenodd" stroke="none"/>
      <path d="M59.7 66.9 L59.45 66.75 59.7 66.5 59.7 66.9" fill="#5c5c5e" fill-rule="evenodd" stroke="none"/>
      <path d="M65.2 66.1 Q64.4 66.55 62.1 66.85 L62.75 66.65 Q59.65 67.0 57.55 67.95 L59.45 66.75 59.7 66.9 59.7 66.5 59.45 66.75 59.4 66.7 59.75 66.2 59.45 66.15 62.9 65.7 61.95 66.15 63.6 66.25 65.2 66.1" fill="#5c5c5e" fill-rule="evenodd" stroke="none"/>
      <path d="M64.7 83.75 L64.3 83.7 65.9 83.45 64.7 83.75" fill="#5c5c5e" fill-rule="evenodd" stroke="none"/>
      <path d="M63.45 84.5 L66.85 83.45 67.35 83.35 69.9 82.9 69.8 83.35 70.1 83.45 68.6 84.0 67.1 84.45 Q63.25 85.4 60.45 85.25 L63.45 84.5" fill="#5c5c5e" fill-rule="evenodd" stroke="none"/>
      <path d="M65.9 83.45 L68.1 82.95 66.85 83.45 65.9 83.45" fill="#5c5c5e" fill-rule="evenodd" stroke="none"/>
      <path d="M77.1 82.05 L76.05 82.7 76.7 82.15 77.1 82.05" fill="#5c5c5e" fill-rule="evenodd" stroke="none"/>
      <path d="M79.05 80.85 L76.7 82.15 74.0 82.65 71.3 83.2 72.55 82.65 73.7 81.8 73.2 81.85 73.95 81.25 73.3 81.2 74.15 80.85 75.2 80.85 75.1 81.05 79.05 80.85" fill="#5c5c5e" fill-rule="evenodd" stroke="none"/>
      <path d="M80.9 81.5 L79.75 82.05 78.4 82.1 80.35 81.75 80.25 81.55 80.9 81.5" fill="#5c5c5e" fill-rule="evenodd" stroke="none"/>
      <path d="M80.15 80.7 L80.95 80.6 81.45 80.5 81.7 80.55 80.15 80.7" fill="#5c5c5e" fill-rule="evenodd" stroke="none"/>
      <path d="M82.8 81.05 Q82.5 81.4 82.05 81.2 82.15 81.0 82.6 80.95 L82.8 81.05" fill="#5c5c5e" fill-rule="evenodd" stroke="none"/>
    </g>
    <linearGradient gradientTransform="matrix(-0.0011, 1.0E-4, -1.0E-4, -0.0011, 86.4, 90.2)" gradientUnits="userSpaceOnUse" id="gradient0" spreadMethod="pad" x1="-819.2" x2="819.2">
      <stop offset="0.0" stop-color="#2b2b2b"/>
      <stop offset="0.06666666666666667" stop-color="#313131"/>
      <stop offset="0.15294117647058825" stop-color="#414141"/>
      <stop offset="0.25098039215686274" stop-color="#5c5c5c"/>
      <stop offset="0.26666666666666666" stop-color="#616161"/>
      <stop offset="0.3843137254901961" stop-color="#464646"/>
      <stop offset="0.5333333333333333" stop-color="#2b2b2b"/>
      <stop offset="0.6862745098039216" stop-color="#171717"/>
      <stop offset="0.8431372549019608" stop-color="#0c0c0c"/>
      <stop offset="1.0" stop-color="#080808"/>
    </linearGradient>
    <linearGradient gradientTransform="matrix(-0.0011, 1.0E-4, -1.0E-4, -0.0011, 35.0, 87.7)" gradientUnits="userSpaceOnUse" id="gradient1" spreadMethod="pad" x1="-819.2" x2="819.2">
      <stop offset="0.0" stop-color="#2b2b2b"/>
      <stop offset="0.043137254901960784" stop-color="#313131"/>
      <stop offset="0.09803921568627451" stop-color="#414141"/>
      <stop offset="0.1607843137254902" stop-color="#5c5c5c"/>
      <stop offset="0.23137254901960785" stop-color="#818181"/>
      <stop offset="0.26666666666666666" stop-color="#999999"/>
      <stop offset="0.2784313725490196" stop-color="#949494"/>
      <stop offset="0.396078431372549" stop-color="#6a6a6a"/>
      <stop offset="0.5137254901960784" stop-color="#464646"/>
      <stop offset="0.6313725490196078" stop-color="#2b2b2b"/>
      <stop offset="0.7529411764705882" stop-color="#171717"/>
      <stop offset="0.8745098039215686" stop-color="#0c0c0c"/>
      <stop offset="1.0" stop-color="#080808"/>
    </linearGradient>
    <linearGradient gradientTransform="matrix(-0.0014, 1.0E-4, -1.0E-4, -0.0014, 47.6, 99.1)" gradientUnits="userSpaceOnUse" id="gradient2" spreadMethod="pad" x1="-819.2" x2="819.2">
      <stop offset="0.0" stop-color="#2b2b2b"/>
      <stop offset="0.06666666666666667" stop-color="#313131"/>
      <stop offset="0.15294117647058825" stop-color="#414141"/>
      <stop offset="0.25098039215686274" stop-color="#5c5c5c"/>
      <stop offset="0.26666666666666666" stop-color="#616161"/>
      <stop offset="0.3843137254901961" stop-color="#464646"/>
      <stop offset="0.5333333333333333" stop-color="#2b2b2b"/>
      <stop offset="0.6862745098039216" stop-color="#171717"/>
      <stop offset="0.8431372549019608" stop-color="#0c0c0c"/>
      <stop offset="1.0" stop-color="#080808"/>
    </linearGradient>
    <linearGradient gradientTransform="matrix(-0.0085, 0.006, -0.006, -0.0085, 39.2, 90.2)" gradientUnits="userSpaceOnUse" id="gradient3" spreadMethod="pad" x1="-819.2" x2="819.2">
      <stop offset="0.0" stop-color="#949494"/>
      <stop offset="0.9294117647058824" stop-color="#7c7c7c"/>
      <stop offset="1.0" stop-color="#7a7a7a"/>
    </linearGradient>
    <linearGradient gradientTransform="matrix(0.0059, 0.004, 0.0055, -0.0022, 81.05, 73.9)" gradientUnits="userSpaceOnUse" id="gradient4" spreadMethod="pad" x1="-819.2" x2="819.2">
      <stop offset="0.0" stop-color="#404040"/>
      <stop offset="0.34901960784313724" stop-color="#575757"/>
      <stop offset="1.0" stop-color="#8c8c8c"/>
    </linearGradient>
  </defs>
</svg>
