<?xml version="1.0" encoding="UTF-8" standalone="no"?>
<svg xmlns:xlink="http://www.w3.org/1999/xlink" height="60.0px" width="60.0px" xmlns="http://www.w3.org/2000/svg">
  <g transform="matrix(1.0, 0.0, 0.0, 1.0, 0.0, 0.0)">
    <use height="50.0" transform="matrix(1.24, 0.0, 0.0, 1.24, 0.0, 0.0)" width="50.0" xlink:href="#sprite0"/>
    <use height="55.9" transform="matrix(1.0, 0.0, 0.0, 1.0, 12.6, 2.0)" width="32.2" xlink:href="#shape1"/>
  </g>
  <defs>
    <g id="sprite0" transform="matrix(1.0, 0.0, 0.0, 1.0, 0.0, 0.0)">
      <use height="50.0" transform="matrix(1.0, 0.0, 0.0, 1.0, 0.0, 0.0)" width="50.0" xlink:href="#shape0"/>
    </g>
    <g id="shape0" transform="matrix(1.0, 0.0, 0.0, 1.0, 0.0, 0.0)">
      <path d="M50.0 50.0 L0.0 50.0 0.0 0.0 50.0 0.0 50.0 50.0" fill="#cccccc" fill-opacity="0.0" fill-rule="evenodd" stroke="none"/>
    </g>
    <g id="shape1" transform="matrix(1.0, 0.0, 0.0, 1.0, -12.6, -2.0)">
      <path d="M44.4 19.25 L43.95 18.95 43.8 18.5 43.35 18.4 43.3 17.8 42.95 17.9 42.9 17.05 42.25 17.0 Q42.2 16.0 40.9 15.3 L39.9 14.85 37.95 14.0 37.9 13.95 37.9 14.0 36.8 13.5 36.5 13.45 35.7 13.15 34.95 13.1 34.75 13.1 34.6 13.7 34.6 13.1 Q34.25 13.5 34.3 13.9 L34.2 13.7 34.2 13.65 33.95 13.1 33.6 13.1 33.35 13.2 33.15 13.2 32.15 12.75 31.85 12.65 30.95 12.0 29.8 10.15 29.2 8.85 28.05 6.2 27.8 5.6 27.55 5.05 Q27.2 4.3 26.4 4.0 L26.35 4.0 26.3 4.0 25.5 3.65 25.4 3.65 25.8 3.2 25.95 3.0 25.9 3.35 Q26.1 3.5 26.35 3.1 26.15 3.7 26.75 3.95 L27.7 4.3 Q28.3 4.7 28.4 5.9 L28.5 6.5 28.6 6.3 Q29.0 5.4 29.3 5.25 L29.7 6.7 29.75 7.55 Q29.75 8.0 29.9 8.3 L30.05 7.5 30.3 6.65 30.65 7.7 31.45 10.1 Q31.65 9.85 31.65 8.8 L31.65 6.65 Q31.8 7.25 32.5 8.05 L33.1 9.45 32.8 7.25 Q32.45 5.95 32.45 5.45 L32.45 5.4 32.75 6.0 32.9 6.55 33.5 8.4 34.0 10.5 34.25 11.25 34.3 11.5 34.55 12.05 35.15 12.5 39.5 14.05 Q42.9 15.45 44.3 18.85 L44.4 19.25 M38.85 25.5 L38.85 25.4 38.6 24.95 38.65 24.7 36.8 25.35 35.0 25.15 33.95 24.85 36.5 24.5 Q37.85 24.25 38.5 23.05 L38.85 21.85 39.05 23.6 Q39.05 23.95 40.2 23.9 41.1 23.8 42.25 22.8 L42.25 22.4 Q42.25 22.1 42.65 21.95 L43.05 21.75 Q44.3 21.95 44.7 20.95 L44.75 20.9 44.75 21.45 44.75 21.65 44.7 21.75 44.6 21.95 Q44.3 22.75 42.6 23.65 L40.9 24.45 Q40.4 24.65 40.2 24.9 L40.15 24.8 38.85 25.5 M44.75 20.55 Q44.65 20.35 44.3 20.3 L43.55 20.35 43.65 20.0 44.5 19.55 44.65 19.85 44.75 20.55 M37.65 17.85 L37.15 17.8 37.2 17.7 36.7 17.5 36.0 17.6 Q35.3 17.6 35.0 18.05 34.9 17.5 36.3 17.3 L37.15 17.4 37.3 17.7 37.65 17.85 M37.2 19.8 L37.45 19.1 Q37.45 18.35 37.95 18.45 38.85 18.8 38.75 19.45 L38.25 19.5 37.85 20.0 36.75 20.25 Q35.05 20.25 34.9 19.6 L35.15 19.75 36.0 19.95 37.05 19.85 37.2 19.8 M40.3 41.3 L40.1 42.5 40.1 42.85 40.0 44.45 40.0 45.2 40.0 45.45 Q39.95 47.65 40.3 48.75 L40.4 49.1 40.75 49.5 40.8 49.65 42.65 51.7 43.65 53.9 43.45 54.9 Q43.3 55.55 42.95 55.65 L42.6 55.85 Q41.2 57.65 40.3 57.8 L35.6 57.9 33.85 57.7 31.0 57.4 30.55 57.4 28.8 57.45 27.55 57.5 26.5 57.6 26.0 57.65 23.1 57.6 18.75 56.9 Q14.05 55.6 14.05 54.7 L14.15 53.75 14.05 53.65 14.25 53.55 14.75 53.7 14.75 54.35 Q14.85 54.9 15.2 54.8 L15.25 54.5 15.4 54.9 15.65 55.2 15.7 55.25 15.8 55.4 15.85 55.4 Q16.3 55.9 16.7 55.95 L16.75 55.85 17.8 56.5 Q18.5 56.9 18.95 56.8 L18.95 56.55 20.5 57.1 20.55 56.95 21.3 57.05 22.05 57.3 22.05 57.15 23.0 57.1 23.45 57.1 23.85 56.8 24.3 56.95 25.0 57.0 25.85 56.55 Q26.4 55.55 25.9 54.8 L27.05 55.3 28.65 55.4 28.95 55.3 27.95 55.3 Q28.1 55.15 28.8 54.95 L29.7 54.55 Q30.75 54.2 30.95 53.55 30.4 54.25 28.8 54.25 28.85 54.15 29.35 54.0 29.75 53.85 29.75 53.55 29.8 53.4 29.5 53.35 L29.0 53.4 Q29.55 53.35 30.25 52.35 L31.0 50.9 31.1 48.85 31.15 47.8 Q31.15 47.2 31.3 46.9 31.7 47.55 31.8 49.35 L32.05 51.1 32.15 53.55 32.2 55.6 Q32.35 56.95 33.25 57.1 L33.3 56.7 33.45 56.9 33.45 56.6 33.75 56.75 34.3 57.3 34.35 57.3 34.9 57.5 36.45 57.65 Q39.0 57.4 40.3 56.75 L41.4 56.05 Q41.85 55.8 41.8 54.95 L41.6 54.4 41.5 54.15 41.1 53.2 41.2 53.15 41.1 53.15 41.05 52.9 41.9 53.9 42.25 54.45 42.8 54.55 42.8 54.1 42.65 54.15 42.6 53.45 42.3 53.65 42.3 53.05 Q42.25 52.7 41.9 52.9 L41.9 52.05 41.5 51.35 Q40.8 50.45 40.4 50.55 L40.8 51.25 41.0 51.9 39.8 50.45 Q38.65 49.75 38.65 48.65 L38.8 46.1 39.1 43.45 38.85 42.3 Q38.8 41.55 38.15 40.2 L38.55 40.45 Q38.8 39.95 38.25 39.1 L37.4 38.2 38.15 38.55 39.05 38.75 38.65 38.0 38.35 37.25 Q39.3 37.95 39.65 36.95 39.8 36.0 39.4 35.15 L37.95 32.25 37.5 31.35 38.25 31.5 38.4 31.4 Q40.55 31.75 38.0 28.3 L37.85 28.1 38.6 28.65 38.35 27.5 38.4 27.5 Q39.25 27.25 40.1 26.7 L40.2 27.0 40.35 27.95 39.9 27.85 Q39.95 28.3 40.35 29.2 L39.6 29.2 38.9 29.3 39.8 30.6 Q40.3 31.45 40.65 33.75 L40.7 35.8 40.35 36.95 40.0 38.0 40.7 37.7 40.3 38.75 Q40.15 40.45 40.3 41.3 M36.2 29.65 L35.5 28.7 35.8 28.8 36.05 29.3 36.2 29.65 M30.9 30.95 L30.9 31.15 30.9 31.35 30.9 31.7 30.9 34.05 30.7 33.95 Q29.55 32.95 29.7 32.45 L30.25 32.6 30.3 32.45 30.45 31.2 30.6 30.8 30.9 30.95 M29.75 15.15 L29.8 15.25 29.95 15.15 29.85 15.85 29.65 15.6 29.4 15.25 28.85 14.45 Q28.3 13.8 28.25 13.55 L27.85 12.95 Q27.05 12.2 26.95 11.5 L26.95 10.4 26.45 9.9 25.95 9.45 Q26.05 9.35 26.3 9.25 L26.65 9.0 26.4 9.2 26.1 8.75 25.65 8.65 25.6 8.1 Q25.7 7.75 25.9 7.7 26.95 8.85 27.05 10.1 L27.35 9.95 27.6 10.75 27.55 11.65 Q27.8 10.8 28.2 10.85 28.45 10.9 28.45 11.9 L29.0 13.8 29.5 13.65 29.7 15.05 29.7 15.2 29.75 15.15 M26.15 52.9 Q26.8 53.55 28.05 53.8 L26.95 54.05 25.55 54.0 25.65 54.5 24.5 54.05 24.3 54.05 24.1 54.05 23.2 54.0 22.75 54.0 22.4 54.0 22.8 53.55 23.45 53.35 Q24.25 52.8 23.95 52.1 24.3 51.95 24.6 51.95 L24.6 51.9 25.25 50.45 Q25.85 48.75 25.6 47.15 25.35 45.45 24.65 44.5 L23.95 43.95 25.15 44.7 Q26.3 46.05 26.25 48.6 26.15 51.15 25.65 51.95 26.25 52.2 26.1 52.75 L25.9 52.4 26.05 52.85 25.8 53.4 26.1 53.35 Q26.3 53.2 26.15 52.9 M13.05 52.4 L13.1 52.4 13.55 51.9 Q14.0 51.2 14.0 50.0 L14.1 51.25 14.1 52.4 14.2 52.7 Q14.4 53.1 15.15 53.2 L16.25 53.4 14.35 53.55 14.25 53.55 13.55 53.05 13.55 53.1 13.05 52.4 M40.2 50.1 L40.2 50.2 40.3 49.45 Q40.05 49.75 40.2 50.1" fill="#523512" fill-rule="evenodd" stroke="none"/>
      <path d="M37.95 14.0 L39.9 14.85 40.9 15.3 Q42.2 16.0 42.25 17.0 L42.9 17.05 42.95 17.9 43.3 17.8 43.35 18.4 43.8 18.5 43.95 18.95 44.4 19.25 44.5 19.55 43.65 20.0 43.55 20.35 44.3 20.3 Q44.65 20.35 44.75 20.55 L44.75 20.9 44.7 20.95 Q44.3 21.95 43.05 21.75 L42.65 21.95 Q42.25 22.1 42.25 22.4 L42.25 22.8 Q41.1 23.8 40.2 23.9 39.05 23.95 39.05 23.6 L38.85 21.85 38.5 23.05 Q37.85 24.25 36.5 24.5 L33.95 24.85 35.0 25.15 36.8 25.35 38.65 24.7 38.6 24.95 38.85 25.4 38.85 25.5 36.5 26.15 36.1 26.25 Q35.1 25.55 34.65 26.35 L34.35 26.3 34.35 26.25 33.75 26.4 31.2 26.25 30.6 25.45 31.75 25.65 32.75 25.35 31.5 23.9 32.5 24.2 32.25 23.45 Q32.6 24.15 33.95 24.3 L34.7 24.3 35.4 24.1 35.6 24.15 Q37.3 24.35 37.8 23.1 L37.95 22.8 Q38.3 22.15 37.95 20.75 L38.8 21.4 Q39.3 21.8 39.3 22.15 40.1 22.2 40.6 21.7 L40.65 21.75 Q42.15 21.95 42.55 20.95 L42.7 19.95 Q42.8 19.4 43.3 19.45 43.45 18.95 42.9 18.35 L42.1 17.3 Q41.85 17.4 41.75 17.75 L41.35 18.35 41.3 17.0 Q41.3 16.25 40.9 15.9 L40.7 17.2 Q40.7 16.3 40.3 15.35 39.95 14.55 39.8 15.35 L39.7 16.0 39.4 16.65 39.15 16.0 39.05 15.25 38.65 14.5 37.95 14.0 M32.45 5.4 L32.45 5.45 Q32.45 5.95 32.8 7.25 L33.1 9.45 32.5 8.05 Q31.8 7.25 31.65 6.65 L31.65 8.8 Q31.65 9.85 31.45 10.1 L30.65 7.7 30.3 6.65 30.05 7.5 29.9 8.3 Q29.75 8.0 29.75 7.55 L29.7 6.7 29.3 5.25 Q29.0 5.4 28.6 6.3 L28.4 5.9 Q28.3 4.7 27.7 4.3 L26.75 3.95 Q26.15 3.7 26.35 3.1 26.1 3.5 25.9 3.35 L25.95 3.0 26.1 2.95 26.15 2.9 26.8 2.4 26.6 3.2 26.8 3.0 27.15 3.1 27.15 3.65 Q27.3 3.95 27.6 3.65 L28.05 3.1 Q28.65 2.65 28.65 3.25 L28.8 4.35 29.2 3.65 Q29.35 3.2 29.6 3.1 L29.7 4.1 29.8 5.0 30.1 4.3 Q30.3 3.75 30.45 3.65 31.25 4.25 31.4 4.95 L31.05 3.15 31.05 3.1 31.4 3.55 31.45 3.6 31.75 4.0 32.45 5.4 M33.15 13.2 L33.35 13.2 33.6 13.1 33.95 13.1 34.2 13.65 33.75 14.45 Q33.45 13.55 33.15 13.2 M34.2 13.7 L34.3 13.9 Q34.25 13.5 34.6 13.1 L34.6 13.7 34.75 13.1 34.95 13.1 34.8 13.75 34.75 15.25 Q34.55 15.2 34.2 13.7 M35.7 13.15 L36.5 13.45 36.35 14.05 36.05 14.7 35.7 13.15 M36.8 13.5 L37.9 14.0 37.85 14.9 Q37.9 15.5 37.65 15.6 L37.5 14.55 36.9 13.65 36.8 13.5 M37.65 17.85 L38.05 17.9 Q38.5 17.8 38.6 18.7 L39.0 19.1 38.55 19.6 37.9 20.6 36.6 20.85 35.5 20.5 Q34.8 19.8 34.85 19.5 L35.15 19.75 34.9 19.6 Q35.05 20.25 36.75 20.25 L37.85 20.0 38.25 19.5 38.75 19.45 Q38.85 18.8 37.95 18.45 37.45 18.35 37.45 19.1 L37.2 19.8 36.85 18.9 Q36.8 18.35 37.05 18.0 L36.5 17.8 35.5 18.05 35.35 18.25 35.1 18.45 35.05 18.55 34.65 18.6 Q34.3 18.45 34.45 18.0 L34.9 17.35 Q35.25 17.0 35.85 17.0 L35.8 17.1 36.3 17.0 36.85 16.95 37.3 16.55 37.8 16.35 37.65 16.8 37.3 17.25 37.8 17.5 38.0 17.85 37.65 17.85 37.3 17.7 37.15 17.4 36.3 17.3 Q34.9 17.5 35.0 18.05 35.3 17.6 36.0 17.6 L36.7 17.5 37.2 17.7 37.15 17.8 37.65 17.85 M37.5 31.35 L37.95 32.25 39.4 35.15 Q39.8 36.0 39.65 36.95 39.3 37.95 38.35 37.25 L38.65 38.0 39.05 38.75 38.15 38.55 37.4 38.2 38.25 39.1 Q38.8 39.95 38.55 40.45 L38.15 40.2 Q38.8 41.55 38.85 42.3 L39.1 43.45 38.8 46.1 38.65 48.65 Q38.65 49.75 39.8 50.45 L41.0 51.9 40.8 51.25 40.4 50.55 Q40.8 50.45 41.5 51.35 L41.9 52.05 41.9 52.9 Q42.25 52.7 42.3 53.05 L42.3 53.65 42.6 53.45 42.65 54.15 42.8 54.1 42.8 54.55 42.25 54.45 41.9 53.9 41.05 52.9 41.1 53.15 Q40.7 53.2 40.2 53.5 L39.45 54.15 Q39.3 53.55 40.3 52.35 L39.0 52.65 37.95 53.4 Q37.7 52.3 39.45 51.75 L38.55 51.7 37.55 51.7 Q37.6 51.35 38.25 51.25 L39.1 51.2 Q38.15 50.6 37.6 50.45 L36.75 50.2 Q36.35 49.9 36.4 49.4 36.4 48.85 36.75 48.6 L37.1 48.4 37.15 47.95 36.75 46.85 Q36.1 45.6 36.3 45.45 L37.3 45.45 36.8 44.3 Q35.75 42.65 35.0 42.0 L36.1 42.1 37.15 42.15 37.05 41.45 36.55 40.5 Q36.15 39.95 36.2 39.65 L37.15 39.8 Q37.2 38.95 36.0 37.65 34.7 36.4 34.65 35.5 35.15 35.5 36.35 36.35 L37.45 36.75 36.85 35.85 35.95 33.95 35.65 33.4 Q35.1 32.45 34.55 32.05 L33.75 31.4 Q33.3 31.0 32.8 31.0 31.65 31.1 30.9 31.7 L30.9 31.35 31.0 31.0 30.9 31.15 30.9 30.95 Q32.05 31.15 33.85 29.2 L34.75 28.2 35.5 28.15 35.8 28.8 35.5 28.7 36.2 29.65 Q36.8 30.85 37.5 31.35 M41.1 53.2 L41.5 54.15 40.2 54.8 Q40.05 54.4 40.4 53.9 L41.1 53.2 M41.6 54.4 L41.8 54.95 Q41.85 55.8 41.4 56.05 L40.3 56.75 Q39.0 57.4 36.45 57.65 L34.9 57.5 34.35 57.3 36.15 57.4 38.8 57.0 40.7 55.95 Q41.75 55.35 41.6 54.4 M33.3 56.7 L33.25 57.1 Q32.35 56.95 32.2 55.6 L32.15 53.55 32.05 51.1 31.8 49.35 Q31.7 47.55 31.3 46.9 31.15 47.2 31.15 47.8 L31.1 48.85 31.0 50.9 30.25 52.35 Q29.55 53.35 29.0 53.4 L29.5 53.35 Q29.8 53.4 29.75 53.55 29.75 53.85 29.35 54.0 28.85 54.15 28.8 54.25 30.4 54.25 30.95 53.55 30.75 54.2 29.7 54.55 L28.8 54.95 Q28.1 55.15 27.95 55.3 L28.95 55.3 28.65 55.4 27.05 55.3 25.9 54.8 Q26.4 55.55 25.85 56.55 L25.0 57.0 24.3 56.95 23.85 56.8 23.45 57.1 23.0 57.1 22.05 57.15 22.05 57.3 21.3 57.05 20.55 56.95 20.5 57.1 18.95 56.55 18.95 56.8 Q18.5 56.9 17.8 56.5 L16.75 55.85 16.7 55.95 Q16.3 55.9 15.85 55.4 L15.8 55.4 15.7 55.25 15.65 55.2 16.15 55.1 16.35 54.6 Q16.9 56.0 17.35 56.0 L17.75 55.7 17.8 55.5 18.2 55.95 19.3 56.5 19.5 56.5 19.3 55.9 19.8 56.3 19.8 56.0 20.9 56.7 21.95 56.65 21.7 56.15 21.6 55.6 Q22.15 55.85 22.9 57.05 23.25 57.05 23.4 56.65 L23.5 56.7 23.2 55.7 Q24.25 56.05 24.9 56.8 25.05 56.65 25.15 56.65 L25.7 56.5 25.7 55.5 25.7 55.45 Q24.9 54.7 24.2 54.55 L23.5 54.7 23.4 54.7 23.1 54.7 23.15 54.55 22.1 54.45 Q21.3 54.4 21.2 54.7 L20.3 54.55 19.3 54.2 20.85 54.35 22.3 54.0 22.7 52.75 22.9 52.25 23.75 51.45 Q24.45 50.55 24.8 49.2 25.15 47.95 25.0 46.6 24.85 45.4 24.1 44.45 L22.65 43.45 21.1 42.55 23.8 42.9 Q24.45 43.05 25.25 44.0 L25.15 44.0 26.1 45.35 26.45 46.6 26.65 47.95 Q26.3 48.7 26.65 48.9 L26.65 48.95 26.5 50.5 26.6 50.85 26.5 51.15 26.75 51.25 27.95 51.5 Q28.95 51.6 29.65 50.45 L30.25 49.4 30.3 47.9 Q30.6 46.45 31.5 45.05 L31.5 44.15 Q31.5 43.3 31.0 43.1 L30.7 43.8 30.4 43.95 30.2 44.45 Q29.7 45.0 29.35 45.9 29.05 46.7 29.05 47.95 L28.8 48.15 28.65 46.45 Q28.6 45.35 28.85 44.65 29.05 44.1 29.6 43.55 L30.65 42.35 Q30.8 41.6 30.45 41.1 29.7 39.95 30.0 38.6 30.25 38.75 30.3 39.4 L30.6 40.35 30.8 38.2 Q30.95 36.85 31.3 36.05 31.3 37.45 32.05 40.8 L32.1 41.0 32.0 41.3 32.15 41.3 32.0 44.35 32.2 44.0 32.3 45.7 32.8 46.6 32.3 46.65 Q32.2 48.3 32.4 49.4 32.9 51.7 32.85 52.75 L32.65 54.8 Q32.6 55.9 33.2 56.65 L33.3 56.7 M15.4 54.9 L15.25 54.5 15.2 54.8 Q14.85 54.9 14.75 54.35 14.85 53.9 15.1 53.8 L15.3 54.5 15.4 54.9 M25.05 5.35 Q25.65 5.8 25.6 6.65 L25.9 6.35 26.1 7.9 26.3 7.25 Q26.4 6.7 26.65 6.8 26.95 6.9 26.95 9.0 L27.15 8.15 Q27.45 7.5 27.8 7.65 28.1 7.8 28.05 8.85 L27.95 10.1 28.3 9.7 Q28.6 9.55 28.8 10.05 29.0 10.65 28.85 12.75 L29.05 12.4 29.35 12.3 29.6 12.45 29.6 12.7 29.7 15.05 29.5 13.65 29.0 13.8 28.45 11.9 Q28.45 10.9 28.2 10.85 27.8 10.8 27.55 11.65 L27.6 10.75 27.35 9.95 27.05 10.1 Q26.95 8.85 25.9 7.7 25.7 7.75 25.6 8.1 L25.65 8.65 26.1 8.75 26.4 9.2 26.65 9.0 26.3 9.25 Q26.05 9.35 25.95 9.45 L26.45 9.9 26.95 10.4 26.95 11.5 Q27.05 12.2 27.85 12.95 L28.25 13.55 Q28.3 13.8 28.85 14.45 L29.4 15.25 29.65 15.6 29.85 15.85 29.95 15.15 29.8 15.25 29.75 15.15 Q30.3 14.7 30.45 14.75 L30.35 16.45 27.8 15.5 Q27.85 15.3 28.4 15.3 L29.15 15.3 28.05 14.95 27.25 14.8 Q26.95 14.5 27.35 14.3 L28.05 14.05 26.95 13.75 Q26.15 13.5 26.3 13.1 L26.75 13.05 25.65 12.7 Q25.4 12.3 26.25 12.3 26.15 12.1 25.65 12.0 25.15 11.75 25.2 11.5 25.25 11.2 25.6 11.1 L26.25 11.0 25.3 10.55 Q24.55 10.4 24.35 10.1 24.15 9.65 25.25 9.65 L24.25 8.9 Q23.75 8.65 23.85 8.4 L24.55 8.25 24.2 7.8 23.75 7.5 24.0 7.5 24.5 7.55 24.8 7.6 24.45 6.8 24.5 5.8 24.8 5.35 24.95 5.25 25.05 5.35 M30.75 16.95 L31.4 16.4 31.3 17.25 30.75 17.8 30.95 18.4 31.0 18.95 30.6 18.95 30.4 18.75 30.25 19.95 Q29.8 20.0 29.8 18.45 L29.35 19.45 29.3 18.45 Q29.3 17.6 29.5 17.5 L29.4 17.25 29.55 17.4 29.8 17.5 30.0 17.35 30.0 17.0 30.75 16.95 M31.5 23.9 Q30.8 23.55 31.05 23.2 L31.5 23.9 M16.05 46.1 L16.75 46.25 16.35 46.5 Q15.5 46.6 15.4 46.1 L16.05 46.1 M16.85 45.2 L16.05 45.05 Q15.8 44.85 16.0 44.45 16.3 44.9 17.15 44.8 L16.85 45.2 M17.35 43.65 L17.3 42.9 17.8 43.4 17.85 43.95 Q17.4 44.0 17.35 43.65 M18.95 42.25 Q18.1 42.0 18.4 41.45 L19.55 42.55 18.95 42.25 M37.6 27.8 L38.35 27.5 38.6 28.65 37.85 28.1 37.6 27.8 M30.25 28.9 L30.0 29.2 29.7 28.45 30.25 28.9 M30.4 30.7 L30.6 30.8 30.45 31.2 30.4 30.7 M30.3 32.45 L30.25 32.6 29.7 32.45 Q29.55 32.95 30.7 33.95 L30.75 34.2 Q30.45 33.75 29.6 33.25 28.65 32.8 28.4 32.3 29.6 32.9 29.6 31.3 29.85 32.05 30.3 32.45 M25.95 42.75 L25.9 43.4 25.4 43.45 Q24.8 42.35 25.5 40.95 25.7 40.5 26.6 39.95 27.35 39.35 27.5 38.75 L27.05 40.55 27.15 39.8 26.4 41.15 Q25.8 42.2 25.95 42.75 M20.3 40.8 Q20.3 40.4 20.65 39.75 20.9 39.85 21.25 42.25 L20.9 42.15 Q20.3 41.3 20.3 40.8 M21.3 43.95 L21.65 43.95 Q21.8 45.95 20.8 46.25 20.6 46.05 20.75 45.35 20.85 44.65 21.1 44.45 L21.3 43.95 M23.95 42.45 L23.65 42.45 Q23.45 40.0 24.7 39.35 L24.1 41.05 Q23.95 41.4 23.95 42.45 M22.85 41.85 L22.8 42.15 22.65 41.85 22.85 41.85 M22.9 45.45 L22.55 46.15 22.2 46.55 21.9 47.0 22.3 45.95 22.85 45.1 23.0 45.0 22.9 45.45 M28.8 42.1 L28.85 41.85 28.8 41.85 Q27.55 42.95 27.55 44.15 L27.45 44.45 27.45 45.95 27.25 46.45 27.15 46.3 26.95 45.85 26.95 45.8 Q26.6 44.6 27.05 43.1 27.3 42.35 28.3 41.45 L29.35 39.95 Q29.4 41.0 28.8 42.1 M22.65 41.85 Q22.15 41.75 22.35 40.2 22.8 40.4 22.65 41.85 M26.1 52.75 Q26.25 52.2 25.65 51.95 26.15 51.15 26.25 48.6 26.3 46.05 25.15 44.7 L23.95 43.95 24.65 44.5 Q25.35 45.45 25.6 47.15 25.85 48.75 25.25 50.45 L24.6 51.9 24.6 51.95 Q24.3 51.95 23.95 52.1 24.25 52.8 23.45 53.35 L22.8 53.55 22.4 54.0 22.75 54.0 23.2 54.0 24.1 54.05 24.3 54.05 24.5 54.05 25.65 54.5 25.55 54.0 26.95 54.05 28.05 53.8 Q26.8 53.55 26.15 52.9 L26.1 52.75 M26.05 52.85 L26.15 52.9 Q26.3 53.2 26.1 53.35 L25.8 53.4 26.05 52.85 M22.25 48.45 Q22.0 48.45 21.9 48.3 21.95 48.1 22.8 47.75 23.45 47.45 23.35 46.95 L23.55 47.25 23.5 47.7 23.45 47.55 23.45 47.8 23.0 48.25 Q22.75 48.45 22.5 48.45 L22.3 48.45 22.25 48.45 M21.8 49.85 L21.65 49.5 22.3 49.45 23.0 49.4 23.55 48.8 23.25 49.4 Q23.35 49.65 23.1 49.75 L23.0 49.7 21.8 49.85 M22.15 51.25 L21.75 51.9 20.65 51.7 Q20.0 51.45 20.35 50.85 21.55 51.65 22.15 51.25 M19.55 53.0 Q19.4 52.75 19.55 52.4 19.8 52.4 20.25 53.05 L20.8 53.4 20.8 53.45 20.3 53.55 20.6 53.45 19.55 53.0 M13.05 52.4 L12.65 51.55 Q12.9 50.95 13.3 50.75 L13.35 51.5 Q13.5 50.8 13.8 50.45 L13.8 51.25 13.85 50.0 13.85 48.6 14.2 48.35 14.3 47.95 Q14.85 48.7 14.75 50.3 L14.55 50.9 14.55 50.95 14.45 51.15 14.2 52.7 14.1 52.4 14.1 51.25 14.0 50.0 Q14.0 51.2 13.55 51.9 L13.1 52.4 13.05 52.4 M15.5 48.6 L16.15 48.9 15.4 49.15 Q14.8 49.1 14.85 48.75 14.85 48.5 15.1 48.5 L15.5 48.6 M16.65 47.55 L15.65 47.6 Q14.8 47.35 15.05 46.95 L15.65 47.05 16.25 47.0 16.65 47.55" fill="#6e4819" fill-rule="evenodd" stroke="none"/>
      <path d="M39.5 14.05 L35.15 12.5 34.55 12.05 Q34.75 12.4 36.15 12.85 L39.5 14.05 M34.25 11.25 L34.0 10.5 33.5 8.4 33.9 9.9 34.25 11.25 M28.6 6.3 L28.5 6.5 28.4 5.9 28.6 6.3 M25.4 3.65 L25.5 3.65 26.3 4.0 26.35 4.0 26.4 4.0 Q27.2 4.3 27.55 5.05 L27.8 5.6 27.4 5.05 26.35 4.0 25.9 3.85 25.3 3.75 25.15 3.75 24.4 4.05 24.95 3.75 25.35 3.75 25.4 3.65 M28.05 6.2 L29.2 8.85 29.8 10.15 30.95 12.0 31.85 12.65 32.15 12.75 33.15 13.2 Q33.45 13.55 33.75 14.45 L34.2 13.65 34.2 13.7 Q34.55 15.2 34.75 15.25 L34.8 13.75 34.95 13.1 35.7 13.15 36.05 14.7 36.35 14.05 36.5 13.45 36.8 13.5 36.9 13.65 37.5 14.55 37.65 15.6 Q37.9 15.5 37.85 14.9 L37.9 14.0 37.9 13.95 37.95 14.0 38.65 14.5 39.05 15.25 39.15 16.0 39.4 16.65 39.7 16.0 39.8 15.35 Q39.95 14.55 40.3 15.35 40.7 16.3 40.7 17.2 L40.9 15.9 Q41.3 16.25 41.3 17.0 L41.35 18.35 41.75 17.75 Q41.85 17.4 42.1 17.3 L42.9 18.35 Q43.45 18.95 43.3 19.45 42.8 19.4 42.7 19.95 L42.55 20.95 Q42.15 21.95 40.65 21.75 L40.6 21.7 Q40.1 22.2 39.3 22.15 39.3 21.8 38.8 21.4 L37.95 20.75 Q38.3 22.15 37.95 22.8 L37.8 23.1 Q37.3 24.35 35.6 24.15 L35.4 24.1 34.7 24.3 33.95 24.3 Q32.6 24.15 32.25 23.45 L32.5 24.2 31.5 23.9 32.75 25.35 31.75 25.65 30.6 25.45 31.2 26.25 30.8 26.15 29.0 25.65 29.0 25.95 28.6 24.6 Q28.2 23.3 28.15 22.15 L27.95 17.05 26.65 15.45 Q26.35 14.45 25.5 13.1 L24.25 10.9 Q23.35 8.75 23.75 7.3 L24.0 7.5 23.75 7.5 24.2 7.8 24.55 8.25 23.85 8.4 Q23.75 8.65 24.25 8.9 L25.25 9.65 Q24.15 9.65 24.35 10.1 24.55 10.4 25.3 10.55 L26.25 11.0 25.6 11.1 Q25.25 11.2 25.2 11.5 25.15 11.75 25.65 12.0 26.15 12.1 26.25 12.3 25.4 12.3 25.65 12.7 L26.75 13.05 26.3 13.1 Q26.15 13.5 26.95 13.75 L28.05 14.05 27.35 14.3 Q26.95 14.5 27.25 14.8 L28.05 14.95 29.15 15.3 28.4 15.3 Q27.85 15.3 27.8 15.5 L30.35 16.45 30.45 14.75 Q30.3 14.7 29.75 15.15 L29.7 15.2 29.7 15.05 29.6 12.7 29.6 12.45 29.35 12.3 29.05 12.4 28.85 12.75 Q29.0 10.65 28.8 10.05 28.6 9.55 28.3 9.7 L27.95 10.1 28.05 8.85 Q28.1 7.8 27.8 7.65 27.45 7.5 27.15 8.15 L26.95 9.0 Q26.95 6.9 26.65 6.8 26.4 6.7 26.3 7.25 L26.1 7.9 25.9 6.35 25.6 6.65 Q25.65 5.8 25.05 5.35 25.2 5.35 25.55 5.5 L26.25 5.6 Q26.65 5.75 26.85 5.95 L27.35 6.5 Q27.75 6.9 27.9 6.65 L28.05 6.2 M44.75 20.9 L44.75 20.55 44.65 19.85 44.8 20.95 44.75 21.45 44.75 20.9 M41.5 19.95 Q41.8 19.8 41.75 19.3 L41.6 19.2 Q41.2 19.6 41.5 19.95 M41.2 19.6 L41.4 18.9 40.45 18.9 Q40.0 18.95 39.7 19.4 39.35 19.8 39.35 20.25 L39.45 20.75 40.05 20.9 Q40.65 20.9 40.85 20.55 L41.2 19.6 M35.15 19.75 L34.85 19.5 Q34.8 19.8 35.5 20.5 L36.6 20.85 37.9 20.6 38.55 19.6 39.0 19.1 38.6 18.7 Q38.5 17.8 38.05 17.9 L37.65 17.85 38.0 17.85 37.8 17.5 37.3 17.25 37.65 16.8 37.8 16.35 37.3 16.55 36.85 16.95 36.3 17.0 35.8 17.1 35.85 17.0 Q35.25 17.0 34.9 17.35 L34.45 18.0 Q34.3 18.45 34.65 18.6 L35.05 18.55 Q34.75 18.95 34.8 19.45 36.2 19.55 36.2 18.1 L36.1 18.0 Q35.7 17.9 35.35 18.25 L35.5 18.05 36.5 17.8 37.05 18.0 Q36.8 18.35 36.85 18.9 L37.2 19.8 37.05 19.85 36.0 19.95 35.15 19.75 M40.3 48.75 L40.75 49.5 40.4 49.1 40.3 48.75 M14.15 53.75 Q12.3 52.1 12.65 50.65 12.95 49.15 13.75 48.65 L14.2 48.35 15.85 39.75 Q16.2 38.3 18.55 35.45 21.45 32.0 24.45 30.8 27.5 29.6 28.5 28.35 L28.95 27.4 28.95 27.45 30.25 27.8 31.1 27.95 31.0 28.05 Q30.4 28.5 30.25 28.9 L29.7 28.45 30.0 29.2 29.95 29.35 29.95 29.85 29.95 30.2 30.4 30.7 30.45 31.2 30.3 32.45 Q29.85 32.05 29.6 31.3 29.6 32.9 28.4 32.3 28.65 32.8 29.6 33.25 30.45 33.75 30.75 34.2 L30.7 33.95 30.9 34.05 30.9 31.7 Q31.65 31.1 32.8 31.0 33.3 31.0 33.75 31.4 L34.55 32.05 Q35.1 32.45 35.65 33.4 L35.95 33.95 36.85 35.85 37.45 36.75 36.35 36.35 Q35.15 35.5 34.65 35.5 34.7 36.4 36.0 37.65 37.2 38.95 37.15 39.8 L36.2 39.65 Q36.15 39.95 36.55 40.5 L37.05 41.45 37.15 42.15 36.1 42.1 35.0 42.0 Q35.75 42.65 36.8 44.3 L37.3 45.45 36.3 45.45 Q36.1 45.6 36.75 46.85 L37.15 47.95 37.1 48.4 36.75 48.6 Q36.4 48.85 36.4 49.4 36.35 49.9 36.75 50.2 L37.6 50.45 Q38.15 50.6 39.1 51.2 L38.25 51.25 Q37.6 51.35 37.55 51.7 L38.55 51.7 39.45 51.75 Q37.7 52.3 37.95 53.4 L39.0 52.65 40.3 52.35 Q39.3 53.55 39.45 54.15 L40.2 53.5 Q40.7 53.2 41.1 53.15 L41.2 53.15 41.1 53.2 40.4 53.9 Q40.05 54.4 40.2 54.8 L41.5 54.15 41.6 54.4 Q41.75 55.35 40.7 55.95 L38.8 57.0 36.15 57.4 34.35 57.3 34.3 57.3 33.75 56.75 33.45 56.6 33.45 56.9 33.3 56.7 33.2 56.65 Q32.6 55.9 32.65 54.8 L32.85 52.75 Q32.9 51.7 32.4 49.4 32.2 48.3 32.3 46.65 L32.8 46.6 32.3 45.7 32.2 44.0 32.0 44.35 32.15 41.3 32.0 41.3 32.1 41.0 32.05 40.8 Q31.3 37.45 31.3 36.05 30.95 36.85 30.8 38.2 L30.6 40.35 30.3 39.4 Q30.25 38.75 30.0 38.6 29.7 39.95 30.45 41.1 30.8 41.6 30.65 42.35 L29.6 43.55 Q29.05 44.1 28.85 44.65 28.6 45.35 28.65 46.45 L28.8 48.15 29.05 47.95 Q29.05 46.7 29.35 45.9 29.7 45.0 30.2 44.45 L30.4 43.95 30.7 43.8 31.0 43.1 Q31.5 43.3 31.5 44.15 L31.5 45.05 Q30.6 46.45 30.3 47.9 L30.25 49.4 29.65 50.45 Q28.95 51.6 27.95 51.5 L26.75 51.25 26.5 51.15 26.6 50.85 26.5 50.5 26.65 48.95 26.6 50.85 26.75 51.25 27.2 51.2 27.4 50.25 27.4 49.35 Q27.6 47.9 27.35 46.95 L26.95 45.85 27.15 46.3 27.25 46.45 27.45 45.95 27.45 44.45 27.55 44.15 27.55 44.45 27.9 44.0 28.25 43.4 Q28.8 42.7 28.8 42.1 29.4 41.0 29.35 39.95 L28.3 41.45 Q27.3 42.35 27.05 43.1 26.6 44.6 26.95 45.8 L26.45 45.0 Q25.65 44.0 25.25 44.0 24.45 43.05 23.8 42.9 L21.1 42.55 22.65 43.45 24.1 44.45 Q24.85 45.4 25.0 46.6 25.15 47.95 24.8 49.2 24.45 50.55 23.75 51.45 L22.9 52.25 22.7 52.75 22.3 54.0 20.85 54.35 19.3 54.2 20.3 54.55 19.95 54.55 18.45 54.2 16.9 53.9 Q17.7 54.8 19.2 55.1 L20.9 55.4 23.35 55.4 24.15 55.45 24.6 55.1 23.4 54.7 23.1 54.75 23.1 54.7 23.4 54.7 23.5 54.7 24.2 54.55 Q24.9 54.7 25.7 55.45 L25.7 55.5 25.7 56.5 25.15 56.65 Q25.05 56.65 24.9 56.8 24.25 56.05 23.2 55.7 L23.5 56.7 23.4 56.65 Q23.25 57.05 22.9 57.05 22.15 55.85 21.6 55.6 L21.7 56.15 21.95 56.65 20.9 56.7 19.8 56.0 19.8 56.3 19.3 55.9 19.5 56.5 19.3 56.5 18.2 55.95 17.8 55.5 17.75 55.7 17.35 56.0 Q16.9 56.0 16.35 54.6 L16.15 55.1 15.65 55.2 15.4 54.9 15.3 54.5 15.1 53.8 Q14.85 53.9 14.75 54.35 L14.75 53.7 14.25 53.55 14.05 53.65 14.15 53.75 M30.9 31.15 L31.0 31.0 30.9 31.35 30.9 31.15 M27.15 3.1 L27.95 2.75 Q28.55 2.4 28.7 2.4 L29.3 2.7 30.0 2.85 30.3 2.5 Q29.6 2.1 28.9 2.0 30.15 2.15 31.05 3.15 L31.4 4.95 Q31.25 4.25 30.45 3.65 30.3 3.75 30.1 4.3 L29.8 5.0 29.7 4.1 29.6 3.1 Q29.35 3.2 29.2 3.65 L28.8 4.35 28.65 3.25 Q28.65 2.65 28.05 3.1 L27.6 3.65 Q27.3 3.95 27.15 3.65 L27.15 3.1 M28.6 2.0 L28.1 2.1 26.95 2.35 Q27.7 2.0 28.6 2.0 M26.8 2.4 L26.8 3.0 26.6 3.2 26.8 2.4 M24.45 6.8 L24.8 7.6 24.5 7.55 24.45 6.8 M28.8 22.4 L29.25 22.8 29.8 22.9 Q30.3 22.65 30.0 20.65 L29.3 20.25 Q28.8 20.3 28.65 21.2 28.55 21.95 28.8 22.4 M35.25 13.8 L34.85 14.5 Q35.4 15.0 35.4 13.8 L35.25 13.8 M30.75 16.95 L30.0 17.0 30.0 17.35 29.8 17.5 29.55 17.4 29.4 17.25 29.5 17.5 Q29.3 17.6 29.3 18.45 L29.35 19.45 29.8 18.45 Q29.8 20.0 30.25 19.95 L30.4 18.75 30.6 18.95 31.0 18.95 30.95 18.4 30.75 17.8 31.3 17.25 31.4 16.4 30.75 16.95 M32.15 17.4 L31.8 18.35 31.2 19.1 Q30.7 19.8 30.8 20.7 L31.2 20.55 31.3 21.55 Q31.3 22.05 31.65 22.45 L32.15 22.95 33.1 23.45 33.25 22.8 33.65 22.15 34.45 20.95 Q34.6 20.5 34.3 20.35 L33.65 20.15 Q33.1 19.9 32.95 18.95 32.8 18.05 33.8 16.65 33.55 16.6 32.95 17.05 L32.15 17.4 M31.5 23.9 L31.05 23.2 Q30.8 23.55 31.5 23.9 M29.5 23.9 Q29.0 24.45 29.5 24.7 29.95 24.95 30.0 24.35 L29.8 23.65 29.5 23.9 M16.95 38.6 L16.2 39.8 Q15.7 40.8 15.6 43.65 L16.05 42.2 16.65 40.75 16.65 41.4 17.15 40.5 17.65 39.65 17.8 40.05 18.9 37.6 19.05 38.7 Q19.4 38.65 19.8 37.65 L20.25 36.35 20.45 37.45 Q20.45 38.25 20.8 38.2 L21.05 37.15 21.3 36.05 21.35 36.5 21.55 36.95 22.3 36.25 22.5 35.5 22.55 36.1 Q23.0 36.25 23.25 35.75 L23.55 34.95 23.6 36.1 Q23.9 36.25 24.3 35.45 L24.8 34.3 24.8 35.05 Q25.65 35.0 26.3 33.6 L26.3 34.1 26.5 34.5 Q26.8 34.55 27.0 33.6 L27.05 34.05 Q27.1 34.35 27.4 34.3 L27.55 33.6 Q27.7 34.25 28.15 34.05 L28.2 33.0 28.5 32.05 Q29.0 31.35 28.85 30.45 L28.5 30.7 28.45 29.85 27.95 29.7 27.85 30.1 27.75 30.45 27.45 30.4 27.05 30.05 26.7 30.25 26.25 30.8 25.8 30.45 Q25.6 30.4 25.3 30.85 L24.8 31.45 Q24.65 30.75 24.1 31.45 L23.35 32.4 23.05 32.0 22.55 32.3 21.45 33.65 Q21.3 32.75 20.55 34.2 L20.15 34.8 Q19.8 35.25 19.8 35.45 19.2 35.45 18.55 36.0 18.0 36.55 17.85 37.2 L17.75 36.95 Q17.35 37.15 17.25 37.6 L17.0 38.35 Q16.85 38.45 16.95 38.6 M19.75 43.7 Q19.25 43.55 18.8 44.65 18.3 45.7 18.95 45.45 L19.8 44.7 Q20.3 44.1 20.2 43.8 L19.9 43.8 19.75 43.7 M18.95 42.25 L19.55 42.55 18.4 41.45 Q18.1 42.0 18.95 42.25 M17.35 43.65 Q17.4 44.0 17.85 43.95 L17.8 43.4 17.3 42.9 17.35 43.65 M16.85 45.2 L17.15 44.8 Q16.3 44.9 16.0 44.45 15.8 44.85 16.05 45.05 L16.85 45.2 M16.05 46.1 L15.4 46.1 Q15.5 46.6 16.35 46.5 L16.75 46.25 16.05 46.1 M32.8 35.45 L32.8 35.35 Q32.45 35.4 32.15 35.95 31.8 36.55 32.05 36.8 32.45 36.4 32.45 37.45 L32.35 38.65 32.6 38.7 Q32.8 39.6 32.1 41.0 L32.15 41.3 32.35 41.4 32.35 43.55 Q32.8 43.55 32.65 44.8 32.5 46.15 32.9 46.15 L33.0 48.1 32.95 50.1 Q32.95 51.65 33.85 52.55 L33.8 51.85 33.6 51.0 33.55 49.05 Q33.55 48.05 33.7 47.55 L34.05 46.55 33.7 45.95 33.2 45.5 Q33.1 45.2 33.35 44.6 L33.65 43.6 33.45 43.2 33.45 42.6 Q33.55 41.95 34.2 41.65 34.8 41.3 34.1 40.95 33.3 40.45 33.65 40.0 L34.25 39.7 34.8 39.4 Q34.9 39.1 34.6 38.75 L34.05 38.3 33.8 37.25 33.85 36.15 Q33.9 35.65 33.3 35.0 L32.85 33.95 32.8 35.45 M27.05 40.55 L27.5 38.75 Q27.35 39.35 26.6 39.95 25.7 40.5 25.5 40.95 24.8 42.35 25.4 43.45 L25.9 43.4 25.95 42.75 Q26.3 42.65 27.05 40.85 L27.05 40.55 M20.3 40.8 Q20.3 41.3 20.9 42.15 L21.25 42.25 Q20.9 39.85 20.65 39.75 20.3 40.4 20.3 40.8 M24.45 40.9 L24.55 41.6 24.8 40.1 24.6 40.1 Q24.45 40.3 24.45 40.9 M22.85 41.85 L22.65 41.85 22.8 42.15 22.85 41.85 M23.95 42.45 Q23.95 41.4 24.1 41.05 L24.7 39.35 Q23.45 40.0 23.65 42.45 L23.95 42.45 M21.3 43.95 L21.1 44.45 Q20.85 44.65 20.75 45.35 20.6 46.05 20.8 46.25 21.8 45.95 21.65 43.95 L21.3 43.95 M21.9 47.0 L21.8 47.15 21.8 47.25 Q22.3 47.3 22.7 46.85 L23.0 45.95 23.05 45.35 22.9 45.45 23.0 45.0 22.85 45.1 22.3 45.95 21.9 47.0 M26.65 48.9 Q26.3 48.7 26.65 47.95 L26.7 47.8 26.65 48.9 M22.65 41.85 Q22.8 40.4 22.35 40.2 22.15 41.75 22.65 41.85 M26.1 52.75 L26.15 52.9 26.05 52.85 25.9 52.4 26.1 52.75 M30.8 44.65 Q31.1 43.85 30.7 43.8 L30.2 44.45 29.7 45.45 Q29.3 46.8 29.35 47.25 L29.9 46.5 30.35 45.6 30.8 44.65 M33.35 55.35 L34.45 54.4 Q33.8 55.8 34.0 56.2 L34.85 55.3 Q35.35 54.8 35.8 54.6 L37.1 54.35 Q36.5 55.3 36.6 55.6 36.85 55.65 37.2 55.3 L37.65 54.7 38.15 54.2 38.25 53.55 37.45 53.5 Q37.2 53.1 37.45 52.65 L36.85 52.8 36.4 52.85 36.8 52.4 Q37.05 52.0 36.8 51.9 L36.5 52.55 Q34.7 52.85 34.05 53.65 L33.7 54.45 33.35 55.35 M22.5 48.45 Q22.75 48.45 23.0 48.25 L23.45 47.8 23.45 47.55 23.5 47.7 23.55 47.25 23.35 46.95 Q23.45 47.45 22.8 47.75 21.95 48.1 21.9 48.3 22.0 48.45 22.25 48.45 21.9 48.5 21.8 48.75 L22.8 48.9 23.55 48.45 23.5 47.7 23.45 47.8 Q23.35 48.3 22.85 48.45 L22.5 48.45 M23.1 49.75 Q23.35 49.65 23.25 49.4 L23.55 48.8 23.0 49.4 22.3 49.45 21.65 49.5 21.8 49.85 21.7 49.9 Q21.8 50.3 22.7 50.4 23.45 50.4 23.65 50.0 L23.1 49.75 M22.15 51.25 Q21.55 51.65 20.35 50.85 20.0 51.45 20.65 51.7 L21.75 51.9 22.15 51.25 M20.2 51.9 Q19.95 52.0 20.7 52.55 L21.65 52.75 21.4 52.4 20.75 52.25 20.2 51.9 M20.3 53.55 L20.8 53.45 20.8 53.4 20.25 53.05 Q19.8 52.4 19.55 52.4 19.4 52.75 19.55 53.0 L19.2 52.95 Q18.85 53.15 19.3 53.4 L20.0 53.7 20.3 53.55 M16.65 47.55 L16.25 47.0 15.65 47.05 15.05 46.95 Q14.8 47.35 15.65 47.6 L16.65 47.55 M15.5 48.6 L15.1 48.5 Q14.85 48.5 14.85 48.75 14.8 49.1 15.4 49.15 L16.15 48.9 15.5 48.6 M14.2 52.7 L14.45 51.15 14.55 50.95 14.55 50.9 14.75 50.3 Q14.85 48.7 14.3 47.95 L14.2 48.35 13.85 48.6 13.85 50.0 13.8 51.25 13.8 50.45 Q13.5 50.8 13.35 51.5 L13.3 50.75 Q12.9 50.95 12.65 51.55 L13.05 52.4 13.55 53.1 13.55 53.05 14.25 53.55 14.35 53.55 16.25 53.4 15.15 53.2 Q14.4 53.1 14.2 52.7 M40.2 50.1 Q40.05 49.75 40.3 49.45 L40.2 50.2 40.2 50.1" fill="#7e541d" fill-rule="evenodd" stroke="none"/>
      <path d="M27.8 5.6 L28.05 6.2 27.9 6.65 Q27.75 6.9 27.35 6.5 L26.85 5.95 Q26.65 5.75 26.25 5.6 L25.55 5.5 Q25.2 5.35 25.05 5.35 L24.95 5.25 24.8 5.35 24.5 5.8 24.45 6.8 24.5 7.55 24.0 7.5 23.75 7.3 Q23.35 8.75 24.25 10.9 L25.5 13.1 Q26.35 14.45 26.65 15.45 L26.25 14.85 24.15 11.7 23.85 11.3 23.0 9.25 22.75 8.25 Q22.65 6.45 23.5 5.35 L24.3 4.5 25.2 4.2 25.55 4.3 25.85 4.15 25.9 3.85 26.35 4.0 27.4 5.05 27.8 5.6 M41.2 19.6 L40.85 20.55 Q40.65 20.9 40.05 20.9 L39.45 20.75 39.35 20.25 Q39.35 19.8 39.7 19.4 40.0 18.95 40.45 18.9 L41.4 18.9 41.2 19.6 M41.5 19.95 Q41.2 19.6 41.6 19.2 L41.75 19.3 Q41.8 19.8 41.5 19.95 M40.65 19.45 L40.4 19.3 Q39.5 19.75 39.7 20.15 40.75 20.25 40.65 19.45 M35.05 18.55 L35.1 18.45 35.35 18.25 Q35.7 17.9 36.1 18.0 L36.2 18.1 Q36.2 19.55 34.8 19.45 34.75 18.95 35.05 18.55 M28.9 2.0 Q29.6 2.1 30.3 2.5 L30.0 2.85 29.3 2.7 28.7 2.4 Q28.55 2.4 27.95 2.75 L27.15 3.1 26.8 3.0 26.8 2.4 26.95 2.35 26.95 2.5 Q27.55 2.5 28.1 2.1 L28.6 2.0 28.7 2.0 28.9 2.0 M28.8 22.4 Q28.55 21.95 28.65 21.2 28.8 20.3 29.3 20.25 L30.0 20.65 Q30.3 22.65 29.8 22.9 L29.25 22.8 28.8 22.4 M29.05 20.9 L28.95 22.05 29.4 22.05 29.6 21.7 Q29.8 21.0 29.35 20.9 L29.05 20.9 M35.25 13.8 L35.4 13.8 Q35.4 15.0 34.85 14.5 L35.25 13.8 M32.15 17.4 L32.95 17.05 Q33.55 16.6 33.8 16.65 32.8 18.05 32.95 18.95 33.1 19.9 33.65 20.15 L34.3 20.35 Q34.6 20.5 34.45 20.95 L33.65 22.15 33.25 22.8 33.1 23.45 32.15 22.95 31.65 22.45 Q31.3 22.05 31.3 21.55 L31.2 20.55 30.8 20.7 Q30.7 19.8 31.2 19.1 L31.8 18.35 32.15 17.4 M31.65 19.45 Q31.5 20.1 31.8 20.35 32.8 21.1 32.8 18.7 L32.15 18.6 Q31.8 18.75 31.65 19.45 M29.5 23.9 L29.8 23.65 30.0 24.35 Q29.95 24.95 29.5 24.7 29.0 24.45 29.5 23.9 M18.1 37.25 Q18.95 37.35 19.15 36.6 L18.95 36.95 19.1 36.35 18.35 36.55 Q18.05 36.85 18.1 37.25 M32.8 22.4 L32.85 21.75 32.35 21.55 32.15 21.85 32.15 22.3 32.8 22.4 M17.0 38.35 L17.25 37.6 Q17.35 37.15 17.75 36.95 L17.85 37.2 Q18.0 36.55 18.55 36.0 19.2 35.45 19.8 35.45 19.8 35.25 20.15 34.8 L20.55 34.2 Q21.3 32.75 21.45 33.65 L22.55 32.3 23.05 32.0 23.35 32.4 24.1 31.45 Q24.65 30.75 24.8 31.45 L25.3 30.85 Q25.6 30.4 25.8 30.45 L26.25 30.8 26.7 30.25 27.05 30.05 27.45 30.4 27.75 30.45 27.85 30.1 27.95 29.7 28.45 29.85 28.5 30.7 28.85 30.45 Q29.0 31.35 28.5 32.05 L28.2 33.0 28.15 34.05 Q27.7 34.25 27.55 33.6 L27.4 34.3 Q27.1 34.35 27.05 34.05 L27.0 33.6 Q26.8 34.55 26.5 34.5 L26.3 34.1 26.3 33.6 Q25.65 35.0 24.8 35.05 L24.8 34.3 24.3 35.45 Q23.9 36.25 23.6 36.1 L23.55 34.95 23.25 35.75 Q23.0 36.25 22.55 36.1 L22.5 35.5 22.3 36.25 21.55 36.95 21.35 36.5 21.3 36.05 21.05 37.15 20.8 38.2 Q20.45 38.25 20.45 37.45 L20.25 36.35 19.8 37.65 Q19.4 38.65 19.05 38.7 L18.9 37.6 17.8 40.05 17.65 39.65 17.15 40.5 16.65 41.4 16.65 40.75 16.05 42.2 15.6 43.65 Q15.7 40.8 16.2 39.8 L16.95 38.6 17.0 38.65 Q17.45 38.75 17.35 38.4 L17.05 38.3 17.0 38.35 M19.75 43.7 L19.9 43.8 20.2 43.8 Q20.3 44.1 19.8 44.7 L18.95 45.45 Q18.3 45.7 18.8 44.65 19.25 43.55 19.75 43.7 M18.95 44.8 Q19.6 45.0 19.6 44.15 L19.3 44.15 Q18.9 44.45 18.95 44.8 M32.8 35.45 L32.85 33.95 33.3 35.0 Q33.9 35.65 33.85 36.15 L33.8 37.25 34.05 38.3 34.6 38.75 Q34.9 39.1 34.8 39.4 L34.25 39.7 33.65 40.0 Q33.3 40.45 34.1 40.95 34.8 41.3 34.2 41.65 33.55 41.95 33.45 42.6 L33.45 43.2 33.65 43.6 33.35 44.6 Q33.1 45.2 33.2 45.5 L33.7 45.95 34.05 46.55 33.7 47.55 Q33.55 48.05 33.55 49.05 L33.6 51.0 33.8 51.85 33.85 52.55 Q32.95 51.65 32.95 50.1 L33.0 48.1 32.9 46.15 Q32.5 46.15 32.65 44.8 32.8 43.55 32.35 43.55 L32.35 41.4 32.15 41.3 32.1 41.0 Q32.8 39.6 32.6 38.7 L32.35 38.65 32.45 37.45 Q32.45 36.4 32.05 36.8 31.8 36.55 32.15 35.95 32.45 35.4 32.8 35.35 L32.8 35.45 M20.65 34.95 Q21.55 34.05 22.3 33.95 L22.8 34.05 23.3 33.85 23.8 33.5 24.2 33.5 24.95 32.85 25.4 32.75 25.8 32.3 26.1 32.25 26.3 32.0 26.3 31.65 Q26.15 31.45 25.9 31.5 L25.9 31.35 25.3 31.85 24.8 32.45 Q24.55 32.1 24.2 32.45 L23.65 33.0 23.55 32.9 23.15 33.15 22.8 33.4 22.05 33.55 20.65 34.95 M25.95 42.75 Q25.8 42.2 26.4 41.15 L27.15 39.8 27.05 40.55 27.05 40.85 Q26.3 42.65 25.95 42.75 M24.45 40.9 Q24.45 40.3 24.6 40.1 L24.8 40.1 24.55 41.6 24.45 40.9 M22.9 45.45 L23.05 45.35 23.0 45.95 22.7 46.85 Q22.3 47.3 21.8 47.25 L21.8 47.15 21.9 47.0 22.2 46.55 22.55 46.15 22.9 45.45 M20.3 54.55 L21.2 54.7 21.1 54.8 21.9 54.85 22.45 54.9 23.05 54.8 23.1 54.75 23.4 54.7 24.6 55.1 24.15 55.45 23.35 55.4 20.9 55.4 19.2 55.1 Q17.7 54.8 16.9 53.9 L18.45 54.2 19.95 54.55 20.3 54.55 M27.55 44.15 Q27.55 42.95 28.8 41.85 L28.85 41.85 28.8 42.1 Q28.8 42.7 28.25 43.4 L27.9 44.0 27.55 44.45 27.55 44.15 M26.95 45.8 L26.95 45.85 27.35 46.95 Q27.6 47.9 27.4 49.35 L27.4 50.25 27.2 51.2 26.75 51.25 26.6 50.85 26.65 48.95 26.75 49.0 Q27.05 49.05 27.05 48.4 L27.05 47.55 26.95 47.45 26.7 47.8 26.65 47.95 26.45 46.6 26.1 45.35 25.15 44.0 25.25 44.0 Q25.65 44.0 26.45 45.0 L26.95 45.8 M33.0 41.05 Q32.9 40.8 32.65 40.85 L32.55 41.15 Q32.5 41.45 32.6 41.55 L32.9 41.5 33.0 41.05 M33.3 37.25 L33.1 36.95 Q32.85 37.2 32.8 38.35 32.8 39.45 33.2 39.4 L33.35 38.4 33.3 37.25 M33.35 55.35 L33.7 54.45 34.05 53.65 Q34.7 52.85 36.5 52.55 L36.8 51.9 Q37.05 52.0 36.8 52.4 L36.4 52.85 36.85 52.8 37.45 52.65 Q37.2 53.1 37.45 53.5 L38.25 53.55 38.15 54.2 37.65 54.7 37.2 55.3 Q36.85 55.65 36.6 55.6 36.5 55.3 37.1 54.35 L35.8 54.6 Q35.35 54.8 34.85 55.3 L34.0 56.2 Q33.8 55.8 34.45 54.4 L33.35 55.35 M30.8 44.65 L30.35 45.6 29.9 46.5 29.35 47.25 Q29.3 46.8 29.7 45.45 L30.2 44.45 30.7 43.8 Q31.1 43.85 30.8 44.65 M34.9 54.55 Q35.35 54.7 36.1 54.25 36.8 53.75 36.75 53.3 L36.0 53.15 Q34.65 53.7 34.9 54.55 M22.25 48.45 L22.3 48.45 22.5 48.45 22.85 48.45 Q23.35 48.3 23.45 47.8 L23.5 47.7 23.55 48.45 22.8 48.9 21.8 48.75 Q21.9 48.5 22.25 48.45 M21.8 49.85 L23.0 49.7 23.1 49.75 23.65 50.0 Q23.45 50.4 22.7 50.4 21.8 50.3 21.7 49.9 L21.8 49.85 M20.2 51.9 L20.75 52.25 21.4 52.4 21.65 52.75 20.7 52.55 Q19.95 52.0 20.2 51.9 M19.55 53.0 L20.6 53.45 20.3 53.55 20.0 53.7 19.3 53.4 Q18.85 53.15 19.2 52.95 L19.55 53.0" fill="#946322" fill-rule="evenodd" stroke="none"/>
      <path d="M40.65 19.45 Q40.75 20.25 39.7 20.15 39.5 19.75 40.4 19.3 L40.65 19.45 M22.75 8.25 L22.65 7.6 Q22.4 5.55 23.45 4.7 L23.9 4.4 24.4 4.05 25.15 3.75 25.3 3.75 25.9 3.85 25.85 4.15 25.55 4.3 25.2 4.2 24.3 4.5 23.5 5.35 Q22.65 6.45 22.75 8.25 M28.1 2.1 Q27.55 2.5 26.95 2.5 L26.95 2.35 28.1 2.1 M29.05 20.9 L29.35 20.9 Q29.8 21.0 29.6 21.7 L29.4 22.05 28.95 22.05 29.05 20.9 M31.65 19.45 Q31.8 18.75 32.15 18.6 L32.8 18.7 Q32.8 21.1 31.8 20.35 31.5 20.1 31.65 19.45 M32.8 22.4 L32.15 22.3 32.15 21.85 32.35 21.55 32.85 21.75 32.8 22.4 M18.1 37.25 Q18.05 36.85 18.35 36.55 L19.1 36.35 18.95 36.95 19.15 36.6 Q18.95 37.35 18.1 37.25 M17.0 38.35 L17.05 38.3 17.35 38.4 Q17.45 38.75 17.0 38.65 L16.95 38.6 Q16.85 38.45 17.0 38.35 M18.95 44.8 Q18.9 44.45 19.3 44.15 L19.6 44.15 Q19.6 45.0 18.95 44.8 M20.65 34.95 L22.05 33.55 22.8 33.4 23.15 33.15 23.55 32.9 23.65 33.0 24.2 32.45 Q24.55 32.1 24.8 32.45 L25.3 31.85 25.9 31.35 25.9 31.5 Q26.15 31.45 26.3 31.65 L26.3 32.0 26.1 32.25 25.8 32.3 25.4 32.75 24.95 32.85 24.2 33.5 23.8 33.5 23.3 33.85 22.8 34.05 22.3 33.95 Q21.55 34.05 20.65 34.95 M21.2 54.7 Q21.3 54.4 22.1 54.45 L23.15 54.55 23.1 54.7 23.1 54.75 23.05 54.8 22.45 54.9 21.9 54.85 21.1 54.8 21.2 54.7 M26.65 48.95 L26.65 48.9 26.7 47.8 26.95 47.45 27.05 47.55 27.05 48.4 Q27.05 49.05 26.75 49.0 L26.65 48.95 M33.3 37.25 L33.35 38.4 33.2 39.4 Q32.8 39.45 32.8 38.35 32.85 37.2 33.1 36.95 L33.3 37.25 M33.0 41.05 L32.9 41.5 32.6 41.55 Q32.5 41.45 32.55 41.15 L32.65 40.85 Q32.9 40.8 33.0 41.05 M34.9 54.55 Q34.65 53.7 36.0 53.15 L36.75 53.3 Q36.8 53.75 36.1 54.25 35.35 54.7 34.9 54.55" fill="#c99f67" fill-rule="evenodd" stroke="none"/>
      <path d="M31.2 26.25 L33.75 26.4 Q32.95 26.65 31.8 27.45 L31.1 27.95 30.25 27.8 28.95 27.45 28.95 27.4 29.0 25.95 29.0 25.65 30.8 26.15 31.2 26.25 M36.1 26.25 L36.5 26.15 38.85 25.5 40.15 24.8 40.2 24.9 40.3 25.55 40.65 26.35 40.55 26.4 Q40.3 26.5 40.1 26.7 39.25 27.25 38.4 27.5 L38.35 27.5 37.6 27.8 36.1 26.25 M35.5 28.15 L34.75 28.2 35.25 27.45 35.5 28.15" fill="url(#gradient0)" fill-rule="evenodd" stroke="none"/>
      <path d="M40.55 26.4 L41.55 28.55 Q42.0 29.65 41.95 32.1 41.9 34.45 41.45 35.95 L40.85 38.05 40.55 39.7 40.3 41.4 40.3 41.3 Q40.15 40.45 40.3 38.75 L40.7 37.7 40.0 38.0 40.35 36.95 40.7 35.8 40.65 33.75 Q40.3 31.45 39.8 30.6 L38.9 29.3 39.6 29.2 40.35 29.2 Q39.95 28.3 39.9 27.85 L40.35 27.95 40.2 27.0 40.1 26.7 Q40.3 26.5 40.55 26.4" fill="#40290e" fill-rule="evenodd" stroke="none"/>
      <path d="M33.75 26.4 L34.35 26.25 34.35 26.3 34.1 26.3 33.95 26.35 Q33.85 27.05 31.65 28.45 L30.7 29.0 30.6 29.05 30.1 29.55 29.95 29.85 29.95 29.35 30.0 29.2 30.25 28.9 Q30.4 28.5 31.0 28.05 L31.1 27.95 31.8 27.45 Q32.95 26.65 33.75 26.4" fill="url(#gradient1)" fill-rule="evenodd" stroke="none"/>
      <path d="M34.35 26.3 L34.65 26.35 34.95 26.4 34.7 26.45 35.25 27.45 34.75 28.2 33.85 29.2 Q32.05 31.15 30.9 30.95 L30.6 30.8 30.4 30.7 29.95 30.2 29.95 29.85 30.1 29.55 30.6 29.05 30.7 29.0 31.65 28.45 Q33.85 27.05 33.95 26.35 L34.1 26.3 34.35 26.3" fill="url(#gradient2)" fill-rule="evenodd" stroke="none"/>
      <path d="M37.5 31.35 Q36.8 30.85 36.2 29.65 L36.05 29.3 35.8 28.8 35.5 28.15 35.25 27.45 34.7 26.45 34.95 26.4 Q35.8 26.4 37.3 28.85 L37.4 28.95 Q38.6 30.95 38.4 31.4 L38.25 31.5 37.5 31.35" fill="url(#gradient3)" fill-rule="evenodd" stroke="none"/>
      <path d="M34.65 26.35 Q35.1 25.55 36.1 26.25 L37.6 27.8 37.85 28.1 38.0 28.3 Q40.55 31.75 38.4 31.4 38.6 30.95 37.4 28.95 L37.3 28.85 Q35.8 26.4 34.95 26.4 L34.65 26.35" fill="url(#gradient4)" fill-rule="evenodd" stroke="none"/>
    </g>
    <linearGradient gradientTransform="matrix(0.0071, 0.0, 0.0, -0.0071, 34.8, 26.45)" gradientUnits="userSpaceOnUse" id="gradient0" spreadMethod="pad" x1="-819.2" x2="819.2">
      <stop offset="0.0" stop-color="#2f9869"/>
      <stop offset="0.48627450980392156" stop-color="#5bcf9b"/>
      <stop offset="1.0" stop-color="#1b593d"/>
    </linearGradient>
    <linearGradient gradientTransform="matrix(0.0027, 0.0, 0.0, -0.0027, 32.15, 28.2)" gradientUnits="userSpaceOnUse" id="gradient1" spreadMethod="pad" x1="-819.2" x2="819.2">
      <stop offset="0.0" stop-color="#2f9869"/>
      <stop offset="1.0" stop-color="#14422d"/>
    </linearGradient>
    <linearGradient gradientTransform="matrix(0.0024, -0.0022, -0.0022, -0.0024, 32.6, 28.7)" gradientUnits="userSpaceOnUse" id="gradient2" spreadMethod="pad" x1="-819.2" x2="819.2">
      <stop offset="0.0" stop-color="#2f9869"/>
      <stop offset="0.48627450980392156" stop-color="#5bcf9b"/>
      <stop offset="1.0" stop-color="#1b593d"/>
    </linearGradient>
    <linearGradient gradientTransform="matrix(-0.0013, -0.0027, -0.0027, 0.0013, 36.8, 29.15)" gradientUnits="userSpaceOnUse" id="gradient3" spreadMethod="pad" x1="-819.2" x2="819.2">
      <stop offset="0.0" stop-color="#2f9869"/>
      <stop offset="1.0" stop-color="#14422d"/>
    </linearGradient>
    <linearGradient gradientTransform="matrix(0.0028, 0.0, 0.0, -0.0028, 36.9, 28.7)" gradientUnits="userSpaceOnUse" id="gradient4" spreadMethod="pad" x1="-819.2" x2="819.2">
      <stop offset="0.0" stop-color="#2f9869"/>
      <stop offset="0.48627450980392156" stop-color="#5bcf9b"/>
      <stop offset="1.0" stop-color="#1b593d"/>
    </linearGradient>
  </defs>
</svg>
