<?xml version="1.0" encoding="UTF-8" standalone="no"?>
<svg xmlns:xlink="http://www.w3.org/1999/xlink" height="76.8px" width="224.35px" xmlns="http://www.w3.org/2000/svg">
  <g transform="matrix(1.0, 0.0, 0.0, 1.0, 0.0, 0.0)">
    <use height="43.3" transform="matrix(1.1918, 0.0, 0.0, 1.0, 13.1, 24.85)" width="166.75" xlink:href="#sprite0"/>
    <use height="30.55" transform="matrix(1.0, 0.0, 0.0, 1.0, 0.0, 3.95)" width="224.35" xlink:href="#sprite1"/>
    <use height="0.0" id="price_tag_pt" transform="matrix(1.0, 0.0, 0.0, 1.0, 112.25, 38.6)" width="0.0" xlink:href="#sprite2"/>
  </g>
  <defs>
    <g id="sprite0" transform="matrix(1.0, 0.0, 0.0, 1.0, 0.0, 0.0)">
      <use height="43.3" transform="matrix(1.0, 0.0, 0.0, 1.0, 0.0, 0.0)" width="166.75" xlink:href="#shape0"/>
    </g>
    <g id="shape0" transform="matrix(1.0, 0.0, 0.0, 1.0, 0.0, 0.0)">
      <path d="M166.75 43.3 L0.0 43.3 0.0 0.0 166.75 0.0 166.75 43.3" fill="url(#gradient0)" fill-rule="evenodd" stroke="none"/>
    </g>
    <linearGradient gradientTransform="matrix(0.0, -0.0412, -0.0474, 0.0, 83.35, 5.15)" gradientUnits="userSpaceOnUse" id="gradient0" spreadMethod="pad" x1="-819.2" x2="819.2">
      <stop offset="0.19607843137254902" stop-color="#000000" stop-opacity="0.0"/>
      <stop offset="1.0" stop-color="#000000" stop-opacity="0.76862746"/>
    </linearGradient>
    <g id="sprite1" transform="matrix(1.0, 0.0, 0.0, 1.0, 0.0, -3.95)">
      <use height="30.55" transform="matrix(1.0, 0.0, 0.0, 1.0, 0.0, 3.95)" width="224.35" xlink:href="#shape1"/>
    </g>
    <g id="shape1" transform="matrix(1.0, 0.0, 0.0, 1.0, 0.0, -3.95)">
      <path d="M192.95 30.9 L190.0 29.5 190.05 18.55 195.55 18.6 192.95 30.9" fill="#7f5c45" fill-rule="evenodd" stroke="none"/>
      <path d="M195.55 18.6 L195.85 20.75 196.15 24.85 Q196.15 27.5 195.55 30.9 L195.55 18.6" fill="#727272" fill-rule="evenodd" stroke="none"/>
      <path d="M200.15 18.6 L200.15 30.9 192.95 30.9 192.95 18.7 192.1 18.7 192.1 18.6 200.15 18.6" fill="#89674c" fill-rule="evenodd" stroke="none"/>
      <path d="M192.95 18.7 L193.3 19.6 Q193.6 21.25 193.6 25.05 193.6 28.55 192.95 30.9 L192.95 18.7" fill="#c69671" fill-rule="evenodd" stroke="none"/>
      <path d="M33.05 30.95 L30.55 18.6 35.8 18.6 35.65 29.25 33.05 30.95" fill="#7f5c45" fill-rule="evenodd" stroke="none"/>
      <path d="M30.55 18.6 L30.55 30.95 Q30.0 27.5 30.0 24.85 30.0 23.2 30.3 20.75 L30.55 18.6" fill="#727272" fill-rule="evenodd" stroke="none"/>
      <path d="M26.15 18.55 L33.85 18.55 33.85 18.6 33.05 18.6 33.05 30.95 26.15 30.95 26.15 18.55" fill="#89674c" fill-rule="evenodd" stroke="none"/>
      <path d="M200.3 18.7 L200.3 31.0 193.1 31.0 193.1 18.75 192.25 18.75 192.25 18.7 200.3 18.7" fill="url(#gradient1)" fill-rule="evenodd" stroke="none"/>
      <path d="M26.15 18.4 L33.85 18.4 33.85 18.5 33.05 18.5 33.05 30.8 26.15 30.8 26.15 18.4" fill="url(#gradient2)" fill-rule="evenodd" stroke="none"/>
      <path d="M33.05 18.7 L33.05 30.95 32.45 23.25 Q32.25 19.9 32.65 18.95 L33.05 18.7" fill="#c69671" fill-rule="evenodd" stroke="none"/>
      <path d="M33.35 13.2 L30.85 4.15 36.1 4.0 36.4 13.15 33.35 13.2" fill="#7f5c45" fill-rule="evenodd" stroke="none"/>
      <path d="M30.85 4.15 L30.85 13.2 Q30.3 10.65 30.3 8.7 30.3 7.5 30.6 5.7 L30.85 4.15" fill="#727272" fill-rule="evenodd" stroke="none"/>
      <path d="M26.45 4.15 L34.15 4.15 34.15 4.2 33.35 4.2 33.35 13.2 26.45 13.2 26.45 4.15" fill="#89674c" fill-rule="evenodd" stroke="none"/>
      <path d="M33.35 4.2 L33.35 13.2 Q32.55 9.0 32.75 7.55 L33.35 4.2" fill="#c69671" fill-rule="evenodd" stroke="none"/>
      <path d="M36.1 4.0 L26.45 4.15 28.75 3.95 36.1 4.0" fill="#666666" fill-rule="evenodd" stroke="none"/>
      <path d="M192.65 13.2 L189.65 13.15 189.95 4.0 195.15 4.15 192.65 13.2" fill="#7f5c45" fill-rule="evenodd" stroke="none"/>
      <path d="M195.15 4.15 L195.45 5.7 195.7 8.7 Q195.7 10.65 195.15 13.2 L195.15 4.15" fill="#727272" fill-rule="evenodd" stroke="none"/>
      <path d="M199.5 4.15 L199.5 13.2 192.65 13.2 192.65 4.2 191.85 4.2 191.85 4.15 199.5 4.15" fill="#89674c" fill-rule="evenodd" stroke="none"/>
      <path d="M192.65 4.2 L193.25 7.55 Q193.5 9.0 192.65 13.2 L192.65 4.2" fill="#c69671" fill-rule="evenodd" stroke="none"/>
      <path d="M189.95 4.0 L197.25 3.95 199.5 4.15 189.95 4.0" fill="#666666" fill-rule="evenodd" stroke="none"/>
      <path d="M22.75 23.3 L195.8 23.3 195.8 34.5 22.75 34.5 22.75 23.3" fill="url(#gradient3)" fill-rule="evenodd" stroke="none"/>
      <path d="M24.8 24.05 L24.6 27.5 22.45 27.5 22.4 23.7 194.8 23.7 195.0 27.55 192.55 27.55 191.95 24.05 24.8 24.05" fill="url(#gradient4)" fill-rule="evenodd" stroke="none"/>
      <path d="M0.15 29.15 L26.1 12.65 199.1 12.9 224.15 28.8 0.15 29.15" fill="#ad825e" fill-rule="evenodd" stroke="none"/>
      <path d="M25.45 13.05 L26.1 12.65 141.95 12.8 Q160.8 13.2 165.55 12.9 L166.2 12.85 199.1 12.9 199.5 13.15 196.1 13.2 180.05 13.5 163.5 13.9 145.2 13.55 127.05 13.2 96.05 13.25 Q67.05 13.2 62.1 13.3 L25.45 13.05" fill="#a07355" fill-rule="evenodd" stroke="none"/>
      <path d="M24.15 13.95 L38.35 14.05 Q46.95 14.35 72.4 14.25 L98.3 13.95 Q122.85 13.65 131.8 13.85 L150.9 14.65 166.35 15.25 200.55 13.85 202.0 14.75 181.2 15.7 165.25 16.05 151.4 15.2 134.95 14.5 Q130.2 14.4 101.8 15.0 L70.8 15.5 Q43.8 14.65 34.9 14.8 L22.65 14.9 24.15 13.95" fill="#a07355" fill-rule="evenodd" stroke="none"/>
      <path d="M44.85 16.9 L32.15 17.3 18.1 17.8 19.65 16.75 33.1 16.15 Q41.75 15.8 44.4 15.95 L68.95 16.4 97.6 16.5 120.85 16.05 143.3 15.75 159.65 16.3 179.15 17.0 Q189.95 17.2 204.7 16.45 L207.25 18.05 Q197.85 18.4 179.8 18.0 L161.55 17.25 143.15 16.7 Q100.95 18.1 96.55 17.8 93.15 17.55 71.15 17.2 L44.85 16.9" fill="#a07355" fill-rule="evenodd" stroke="none"/>
      <path d="M55.35 22.2 Q52.05 22.55 35.65 22.35 L16.55 22.15 11.2 22.15 13.5 20.7 17.45 20.65 Q19.2 20.6 35.05 21.1 47.1 21.4 54.7 20.7 64.75 19.75 102.9 20.1 L146.5 20.4 Q151.95 20.25 179.85 20.95 207.65 21.7 212.7 21.55 L212.75 21.55 214.1 22.4 212.85 22.45 179.55 22.05 Q149.05 21.6 147.6 21.7 L103.3 21.65 Q60.05 21.65 55.35 22.2" fill="#a07355" fill-rule="evenodd" stroke="none"/>
      <path d="M62.95 19.3 L40.15 19.65 17.55 19.6 15.25 19.55 16.55 18.75 19.35 18.7 40.95 18.35 Q59.25 18.05 64.3 17.75 69.0 17.45 94.6 18.25 L122.7 19.0 157.2 17.8 180.6 18.65 202.35 19.55 209.4 19.45 210.6 20.15 197.75 20.1 177.2 19.5 159.55 19.2 139.75 19.55 Q123.0 19.85 119.15 19.65 112.35 19.3 89.75 19.15 67.2 19.0 62.95 19.3" fill="#a07355" fill-rule="evenodd" stroke="none"/>
      <path d="M224.15 28.65 L224.35 33.15 0.0 33.15 0.1 29.35 224.15 28.65" fill="#966c4d" fill-rule="evenodd" stroke="none"/>
      <path d="M30.65 29.55 L13.25 30.85 0.85 32.15 0.0 30.65 15.7 29.2 35.85 28.35 Q40.15 28.9 69.5 29.35 97.95 29.8 107.8 29.55 112.4 29.45 143.75 29.65 173.25 29.8 181.0 29.5 194.65 28.95 224.35 29.0 L224.15 30.15 Q187.35 29.6 181.5 30.15 L145.45 31.25 Q113.2 31.9 107.6 31.3 L68.55 30.1 Q39.35 29.55 30.65 29.55" fill="#8e6447" fill-rule="evenodd" stroke="none"/>
      <path d="M71.75 32.35 Q67.4 32.15 49.25 32.25 L6.25 32.35 19.6 32.05 37.0 31.5 Q42.65 31.2 79.8 31.0 119.2 30.8 123.75 31.4 128.9 32.1 148.2 32.05 L171.0 31.35 184.7 30.85 198.0 30.85 Q202.2 30.55 224.35 30.5 L224.0 32.65 213.35 32.15 202.65 32.5 188.35 32.35 Q184.3 32.15 172.45 32.7 L161.35 33.3 126.2 32.65 Q78.8 32.65 71.75 32.35" fill="#8e6447" fill-rule="evenodd" stroke="none"/>
      <path d="M0.0 29.5 L18.9 28.85 Q49.85 28.15 110.15 27.85 177.35 27.5 207.5 28.05 L224.15 28.65 0.0 29.5" fill="#c69671" fill-rule="evenodd" stroke="none"/>
      <path d="M121.0 17.4 L125.2 16.85 132.25 16.1 142.85 16.6 132.45 17.25 125.4 17.5 121.0 17.4" fill="#89614a" fill-rule="evenodd" stroke="none"/>
      <path d="M74.9 22.3 L60.65 21.9 74.25 21.15 Q79.0 20.9 86.35 21.25 L92.75 21.55 74.9 22.3" fill="#89614a" fill-rule="evenodd" stroke="none"/>
      <path d="M33.2 15.05 L36.75 14.55 42.05 14.3 51.65 14.75 40.0 15.35 35.45 15.2 33.2 15.05" fill="#89614a" fill-rule="evenodd" stroke="none"/>
      <path d="M81.2 15.1 L85.35 14.85 91.85 14.65 99.6 14.35 90.2 15.4 84.5 15.25 81.2 15.1" fill="#89614a" fill-rule="evenodd" stroke="none"/>
      <path d="M194.55 16.65 L196.55 17.45 193.25 17.6 187.3 17.9 182.55 18.1 190.35 17.15 194.55 16.65" fill="#89614a" fill-rule="evenodd" stroke="none"/>
      <path d="M182.4 19.8 L177.0 20.4 170.2 20.0 165.9 19.55 182.4 19.8" fill="#89614a" fill-rule="evenodd" stroke="none"/>
      <path d="M195.95 17.3 L197.4 17.8 183.95 18.45 195.95 17.3" fill="#c69671" fill-rule="evenodd" stroke="none"/>
      <path d="M183.0 20.05 Q179.75 20.85 176.5 20.85 L170.1 20.55 166.15 20.2 170.1 20.2 175.7 20.3 183.0 20.05" fill="#c69671" fill-rule="evenodd" stroke="none"/>
      <path d="M142.85 16.6 L133.0 17.55 Q130.8 17.8 125.9 17.5 L123.65 17.35 126.3 17.4 130.35 17.05 134.4 16.6 Q137.45 16.45 142.85 16.6" fill="#c69671" fill-rule="evenodd" stroke="none"/>
      <path d="M91.55 21.7 L79.45 22.85 Q76.75 23.1 69.4 22.65 L62.6 22.1 79.25 22.1 91.55 21.7" fill="#c69671" fill-rule="evenodd" stroke="none"/>
      <path d="M98.1 14.5 Q93.35 16.05 91.2 16.2 L86.2 15.8 82.8 15.25 90.2 15.4 98.1 14.5" fill="#c69671" fill-rule="evenodd" stroke="none"/>
      <path d="M33.2 15.05 L35.8 15.35 41.1 15.4 49.45 14.8 Q42.5 16.35 39.45 16.15 L35.2 15.55 33.2 15.05" fill="#c69671" fill-rule="evenodd" stroke="none"/>
      <path d="M48.0 17.0 L54.4 16.85 64.5 16.85 80.9 17.65 60.85 18.15 53.45 17.6 48.0 17.0" fill="#c69671" fill-rule="evenodd" stroke="none"/>
      <path d="M163.35 15.35 L163.9 15.25 Q169.9 14.15 173.95 14.0 L187.45 13.55 173.95 14.9 163.35 15.35" fill="#c69671" fill-rule="evenodd" stroke="none"/>
      <path d="M53.4 16.7 L56.4 16.45 61.6 16.2 75.45 17.3 60.15 17.15 55.15 16.95 53.4 16.7" fill="#89614a" fill-rule="evenodd" stroke="none"/>
      <path d="M28.05 23.9 Q43.65 24.25 60.8 24.25 81.25 24.25 93.1 23.75 114.6 22.8 149.3 22.8 L176.4 23.7 Q193.0 24.5 202.1 24.3 L216.45 23.9 218.1 24.95 198.4 25.65 175.45 24.55 147.15 23.55 112.65 24.55 Q86.65 25.3 76.55 25.05 L44.05 24.85 15.75 24.85 6.95 24.85 8.85 23.65 28.05 23.9" fill="#a07355" fill-rule="evenodd" stroke="none"/>
      <path d="M82.6 26.55 L35.7 27.15 3.25 27.2 5.1 26.0 33.25 26.2 Q48.75 26.4 80.1 25.85 L125.35 25.25 Q139.25 25.25 161.15 25.75 L196.25 26.4 220.3 26.3 221.6 27.15 198.4 27.35 163.4 26.9 129.35 26.2 Q118.95 25.95 82.6 26.55" fill="#a07355" fill-rule="evenodd" stroke="none"/>
      <path d="M116.1 27.9 L100.6 27.5 105.6 27.3 115.85 26.95 131.35 27.5 Q121.85 28.1 116.1 27.9" fill="#a07355" fill-rule="evenodd" stroke="none"/>
      <path d="M145.55 25.4 L138.85 25.05 146.2 24.65 Q154.5 24.25 159.1 24.5 L178.15 26.0 Q168.95 26.4 159.4 26.0 L145.55 25.4" fill="#89614a" fill-rule="evenodd" stroke="none"/>
      <path d="M146.3 25.85 L140.4 25.4 146.05 25.35 156.95 25.55 178.15 25.8 Q164.05 26.55 157.25 26.4 L146.3 25.85" fill="#c69671" fill-rule="evenodd" stroke="none"/>
    </g>
    <linearGradient gradientTransform="matrix(0.0, 0.0079, 0.0079, 0.0, 196.25, 19.9)" gradientUnits="userSpaceOnUse" id="gradient1" spreadMethod="pad" x1="-819.2" x2="819.2">
      <stop offset="0.0" stop-color="#000000"/>
      <stop offset="0.09019607843137255" stop-color="#000000" stop-opacity="0.79607844"/>
      <stop offset="1.0" stop-color="#000000" stop-opacity="0.0"/>
    </linearGradient>
    <linearGradient gradientTransform="matrix(0.0, 0.0087, 0.0087, 0.0, 30.0, 19.85)" gradientUnits="userSpaceOnUse" id="gradient2" spreadMethod="pad" x1="-819.2" x2="819.2">
      <stop offset="0.0" stop-color="#000000"/>
      <stop offset="0.09019607843137255" stop-color="#000000" stop-opacity="0.79607844"/>
      <stop offset="1.0" stop-color="#000000" stop-opacity="0.0"/>
    </linearGradient>
    <linearGradient gradientTransform="matrix(0.0, -0.0065, -0.0065, 0.0, 109.3, 29.1)" gradientUnits="userSpaceOnUse" id="gradient3" spreadMethod="pad" x1="-819.2" x2="819.2">
      <stop offset="0.20392156862745098" stop-color="#000000" stop-opacity="0.0"/>
      <stop offset="1.0" stop-color="#000000" stop-opacity="0.32941177"/>
    </linearGradient>
    <linearGradient gradientTransform="matrix(0.099, 0.0, 0.0, -0.0751, 105.2, 25.6)" gradientUnits="userSpaceOnUse" id="gradient4" spreadMethod="pad" x1="-819.2" x2="819.2">
      <stop offset="0.0" stop-color="#231f20" stop-opacity="0.2"/>
      <stop offset="0.06274509803921569" stop-color="#1e1b1b" stop-opacity="0.2"/>
      <stop offset="0.3333333333333333" stop-color="#0d0c0c" stop-opacity="0.2"/>
      <stop offset="0.6313725490196078" stop-color="#030303" stop-opacity="0.2"/>
      <stop offset="1.0" stop-color="#000000" stop-opacity="0.2"/>
    </linearGradient>
  </defs>
</svg>
