<?xml version="1.0" encoding="UTF-8" standalone="no"?>
<svg xmlns:xlink="http://www.w3.org/1999/xlink" height="28.8px" width="33.95px" xmlns="http://www.w3.org/2000/svg">
  <g transform="matrix(1.0, 0.0, 0.0, 1.0, 0.0, 0.0)">
    <use height="31.35" id="cubimal" transform="matrix(1.0, 0.0, 0.0, 1.0, -3.9, -1.4)" width="39.15" xlink:href="#sprite0"/>
  </g>
  <defs>
    <g id="sprite0" transform="matrix(1.0, 0.0, 0.0, 1.0, 4.3, 3.6)">
      <use height="28.8" transform="matrix(1.0, 0.0, 0.0, 1.0, -0.4, -2.2)" width="33.95" xlink:href="#sprite1"/>
    </g>
    <g id="sprite1" transform="matrix(1.0, 0.0, 0.0, 1.0, 0.0, 2.15)">
      <use height="8.45" transform="matrix(1.0, 0.0, 0.0, 1.0, 0.0, 7.95)" width="10.2" xlink:href="#sprite2"/>
      <use height="28.8" transform="matrix(1.0, 0.0, 0.0, 1.0, 4.5, -2.15)" width="29.45" xlink:href="#sprite6"/>
    </g>
    <g id="sprite2" transform="matrix(1.0, 0.0, 0.0, 1.0, 0.0, 0.0)">
      <use height="8.15" transform="matrix(1.0, 0.0, 0.0, 1.0, 0.7, 0.0)" width="4.55" xlink:href="#sprite3"/>
      <use height="8.15" transform="matrix(1.0, 0.0, 0.0, 1.0, 0.2, 0.2)" width="4.6" xlink:href="#sprite4"/>
      <use height="8.15" transform="matrix(1.0, 0.0, 0.0, 1.0, 0.0, 0.3)" width="4.6" xlink:href="#sprite5"/>
      <use height="1.9" transform="matrix(1.0, 0.0, 0.0, 1.0, 4.35, 4.4)" width="5.85" xlink:href="#shape3"/>
    </g>
    <g id="sprite3" transform="matrix(1.0, 0.0, 0.0, 1.0, 0.0, 0.0)">
      <use height="8.15" transform="matrix(1.0, 0.0, 0.0, 1.0, 0.0, 0.0)" width="4.55" xlink:href="#shape0"/>
    </g>
    <g id="shape0" transform="matrix(1.0, 0.0, 0.0, 1.0, 0.0, 0.0)">
      <path d="M3.5 5.9 Q3.6 5.0 3.05 4.75 L2.6 4.7 2.0 4.8 Q1.2 5.05 1.1 5.9 1.05 6.65 1.5 6.95 2.15 7.3 2.8 6.95 3.4 6.6 3.5 5.9 M0.05 1.25 Q0.2 0.05 1.25 0.0 3.3 -0.05 4.15 2.0 4.9 3.85 4.25 4.45 4.9 5.25 4.15 6.85 3.3 8.6 1.25 7.95 0.2 7.6 0.05 6.35 -0.15 5.05 0.8 4.35 L1.25 4.0 0.8 3.55 Q-0.15 2.5 0.05 1.25 M3.5 2.75 Q3.4 2.0 2.8 1.5 2.15 0.9 1.5 1.1 1.05 1.3 1.1 2.1 1.2 2.95 2.0 3.45 L2.6 3.75 3.05 3.8 Q3.6 3.75 3.5 2.75" fill="url(#gradient0)" fill-rule="evenodd" stroke="none"/>
    </g>
    <linearGradient gradientTransform="matrix(0.0, 0.0042, 0.0042, 0.0, 2.25, 3.45)" gradientUnits="userSpaceOnUse" id="gradient0" spreadMethod="pad" x1="-819.2" x2="819.2">
      <stop offset="0.0" stop-color="#8f8f8f"/>
      <stop offset="0.22745098039215686" stop-color="#e8e8e8"/>
      <stop offset="1.0" stop-color="#696969"/>
    </linearGradient>
    <g id="sprite4" transform="matrix(1.0, 0.0, 0.0, 1.0, 0.0, 0.0)">
      <use height="8.15" transform="matrix(1.0, 0.0, 0.0, 1.0, 0.0, 0.0)" width="4.6" xlink:href="#shape1"/>
    </g>
    <g id="shape1" transform="matrix(1.0, 0.0, 0.0, 1.0, 0.0, 0.0)">
      <path d="M2.05 4.8 Q1.2 5.0 1.15 5.85 1.1 6.65 1.55 6.95 2.15 7.35 2.8 6.95 3.4 6.6 3.5 5.9 3.65 5.0 3.1 4.8 L2.65 4.7 2.05 4.8 M0.05 1.25 Q0.25 0.05 1.3 0.0 3.35 -0.05 4.2 2.0 4.95 3.85 4.25 4.45 4.95 5.2 4.2 6.85 3.35 8.65 1.3 8.0 0.25 7.6 0.05 6.35 -0.15 5.05 0.8 4.35 L1.3 4.0 0.8 3.55 Q-0.15 2.5 0.05 1.25 M1.55 1.1 Q1.1 1.3 1.15 2.1 1.2 3.0 2.05 3.45 L2.65 3.75 3.1 3.8 Q3.65 3.75 3.5 2.75 3.4 2.0 2.8 1.5 2.15 0.9 1.55 1.1" fill="url(#gradient1)" fill-rule="evenodd" stroke="none"/>
    </g>
    <linearGradient gradientTransform="matrix(0.0015, 0.0054, 0.0054, -0.0015, 1.85, 3.25)" gradientUnits="userSpaceOnUse" id="gradient1" spreadMethod="pad" x1="-819.2" x2="819.2">
      <stop offset="0.0" stop-color="#e8e8e8"/>
      <stop offset="1.0" stop-color="#ededed"/>
    </linearGradient>
    <g id="sprite5" transform="matrix(1.0, 0.0, 0.0, 1.0, 0.0, 0.0)">
      <use height="8.15" transform="matrix(1.0, 0.0, 0.0, 1.0, 0.0, 0.0)" width="4.6" xlink:href="#shape2"/>
    </g>
    <g id="shape2" transform="matrix(1.0, 0.0, 0.0, 1.0, 0.0, 0.0)">
      <path d="M2.05 4.8 Q1.2 5.0 1.15 5.85 1.1 6.65 1.55 6.95 2.15 7.35 2.8 6.95 3.4 6.6 3.5 5.9 3.7 4.95 3.1 4.8 L2.65 4.7 2.05 4.8 M0.05 1.25 Q0.25 0.05 1.3 0.0 3.35 -0.05 4.2 2.0 4.95 3.85 4.25 4.45 4.95 5.2 4.2 6.85 3.35 8.65 1.3 8.0 0.25 7.6 0.05 6.35 -0.15 5.05 0.8 4.35 L1.3 4.0 0.8 3.55 Q-0.15 2.5 0.05 1.25 M3.5 2.75 Q3.4 2.0 2.8 1.5 2.15 0.9 1.55 1.1 1.1 1.3 1.15 2.1 1.2 3.0 2.05 3.45 L2.65 3.75 3.1 3.8 Q3.65 3.75 3.5 2.75" fill="url(#gradient2)" fill-rule="evenodd" stroke="none"/>
    </g>
    <linearGradient gradientTransform="matrix(0.0015, 0.0054, 0.0054, -0.0015, 1.85, 3.25)" gradientUnits="userSpaceOnUse" id="gradient2" spreadMethod="pad" x1="-819.2" x2="819.2">
      <stop offset="0.0" stop-color="#e8e8e8"/>
      <stop offset="1.0" stop-color="#878787"/>
    </linearGradient>
    <g id="shape3" transform="matrix(1.0, 0.0, 0.0, 1.0, -4.35, -4.4)">
      <path d="M10.2 6.3 L4.8 5.5 Q4.35 5.55 4.35 5.0 4.35 4.65 4.6 4.5 L4.8 4.4 10.2 5.2 10.2 6.3" fill="url(#gradient3)" fill-rule="evenodd" stroke="none"/>
    </g>
    <linearGradient gradientTransform="matrix(-1.0E-4, 8.0E-4, 8.0E-4, 1.0E-4, 7.3, 5.4)" gradientUnits="userSpaceOnUse" id="gradient3" spreadMethod="pad" x1="-819.2" x2="819.2">
      <stop offset="0.0" stop-color="#8f8f8f"/>
      <stop offset="0.22745098039215686" stop-color="#e8e8e8"/>
      <stop offset="1.0" stop-color="#696969"/>
    </linearGradient>
    <g id="sprite6" transform="matrix(1.0, 0.0, 0.0, 1.0, 1.5, 2.15)">
      <use height="28.8" transform="matrix(1.0, 0.0, 0.0, 1.0, -1.5, -2.15)" width="29.45" xlink:href="#shape4"/>
    </g>
    <g id="shape4" transform="matrix(1.0, 0.0, 0.0, 1.0, 1.5, 2.15)">
      <path d="M12.1 22.4 L11.3 25.25 Q10.7 26.8 10.05 26.65 8.8 26.35 7.45 22.05 L12.1 22.4" fill="url(#gradient4)" fill-rule="evenodd" stroke="none"/>
      <path d="M19.8 18.55 L18.95 21.4 Q18.35 22.95 17.7 22.8 16.45 22.5 15.1 18.2 L19.8 18.55" fill="url(#gradient5)" fill-rule="evenodd" stroke="none"/>
      <path d="M10.95 1.1 L16.75 1.65 22.5 2.3 Q24.2 2.3 25.05 2.95 25.6 3.45 25.85 4.35 26.1 5.15 26.1 15.9 L26.1 17.35 25.65 18.7 22.95 20.95 20.0 22.85 Q18.95 23.45 17.75 23.85 L16.2 24.25 10.65 23.8 6.3 23.3 2.5 22.75 Q1.5 22.55 1.1 21.85 0.6 20.85 0.55 17.8 L0.3 10.7 Q0.35 6.7 1.45 5.95 L6.05 3.25 Q9.85 1.15 10.95 1.1" fill="url(#gradient6)" fill-rule="evenodd" stroke="none"/>
      <path d="M25.85 4.35 L26.05 6.95 26.1 15.9 26.1 17.35 25.65 18.7 22.95 20.95 20.0 22.85 18.1 23.65 16.2 24.25 Q16.7 23.25 16.65 22.1 L16.55 8.1 16.65 7.95 Q16.9 7.7 19.4 6.45 L22.9 4.6 25.15 3.1 Q25.7 3.65 25.85 4.35" fill="url(#gradient7)" fill-rule="evenodd" stroke="none"/>
      <path d="M16.8 20.3 L16.2 24.25 10.65 23.8 6.3 23.3 2.5 22.75 Q1.55 22.6 1.2 22.05 0.7 21.2 0.55 18.85 L3.6 18.95 16.8 20.3" fill="url(#gradient8)" fill-rule="evenodd" stroke="none"/>
      <path d="M16.4 22.9 L8.55 21.95 0.7 20.95 0.65 19.95 8.55 20.85 16.65 21.65 16.4 22.9" fill="url(#gradient9)" fill-rule="evenodd" stroke="none"/>
      <path d="M16.7 20.7 Q21.2 18.75 26.1 15.95 L26.1 17.8 Q26.05 18.9 25.65 19.45 25.1 20.3 20.0 22.85 17.0 24.5 16.2 24.25 16.7 23.25 16.65 22.1 L16.65 20.75 16.7 20.7" fill="url(#gradient10)" fill-rule="evenodd" stroke="none"/>
      <path d="M23.65 4.3 L19.75 6.3 Q16.95 7.65 16.65 7.95 L7.95 7.05 0.95 6.55 1.45 5.95 6.05 3.25 Q9.85 1.15 10.95 1.1 14.35 0.95 22.5 2.3 24.65 2.6 25.15 3.1 L23.65 4.3" fill="#f7e2b8" fill-rule="evenodd" stroke="none"/>
      <path d="M19.6 15.35 L19.3 16.6 Q18.95 17.1 18.5 17.1 L17.7 16.6 Q17.4 16.1 17.4 15.35 17.4 14.65 17.7 14.15 18.0 13.65 18.5 13.65 18.95 13.65 19.3 14.15 L19.6 15.35" fill="#623c0e" fill-rule="evenodd" stroke="none"/>
      <path d="M19.15 15.4 L18.9 16.3 18.25 16.65 Q17.85 16.65 17.6 16.3 17.3 15.9 17.3 15.4 17.3 14.85 17.6 14.45 17.85 14.1 18.25 14.1 18.65 14.1 18.9 14.45 L19.15 15.4" fill="url(#gradient11)" fill-rule="evenodd" stroke="none"/>
      <path d="M26.05 11.45 L25.85 12.6 25.3 13.1 Q25.0 13.1 24.8 12.6 L24.6 11.45 Q24.6 9.9 25.3 9.9 25.6 9.9 25.85 10.35 L26.05 11.45" fill="#623c0e" fill-rule="evenodd" stroke="none"/>
      <path d="M25.75 11.45 Q25.75 12.65 25.15 12.65 24.55 12.65 24.55 11.45 24.55 10.3 25.15 10.3 25.75 10.3 25.75 11.45" fill="url(#gradient12)" fill-rule="evenodd" stroke="none"/>
      <path d="M20.5 5.8 L25.15 3.1 Q25.05 3.7 21.05 5.9 17.0 8.15 16.9 8.65 L16.9 20.55 16.5 20.55 16.3 10.55 16.15 8.65 Q16.05 8.35 15.6 8.25 L7.1 7.3 1.0 6.3 8.6 7.1 13.45 7.55 16.6 7.65 Q17.1 7.6 20.5 5.8" fill="#f9ebce" fill-rule="evenodd" stroke="none"/>
      <path d="M13.4 7.55 L13.4 7.95 1.0 6.3 13.4 7.55" fill="#665836" fill-rule="evenodd" stroke="none"/>
      <path d="M20.5 5.8 L25.15 3.1 Q25.1 3.6 23.15 4.75 L19.4 6.85 19.4 6.4 20.5 5.8" fill="#665836" fill-rule="evenodd" stroke="none"/>
      <path d="M16.5 20.35 L16.9 20.2 16.9 21.1 Q16.85 23.65 16.2 24.25 L16.4 23.65 16.5 20.35" fill="#665836" fill-rule="evenodd" stroke="none"/>
      <path d="M22.9 4.3 L19.0 6.3 Q16.15 7.65 15.9 7.95 L7.2 7.05 0.2 6.55 0.7 5.95 Q2.0 5.0 5.3 3.25 9.1 1.15 10.15 1.1 13.6 0.95 21.75 2.3 23.9 2.6 24.4 3.1 L22.9 4.3" fill="url(#gradient13)" fill-rule="evenodd" stroke="none"/>
      <path d="M12.8 7.5 L14.6 7.5 Q16.1 7.75 17.85 7.0 L17.9 7.0 16.4 8.3 16.0 9.25 15.7 10.25 Q15.4 10.2 15.4 9.0 L15.05 8.25 13.8 7.95 Q12.8 7.75 12.8 7.5" fill="#d7dffe" fill-rule="evenodd" stroke="none"/>
      <path d="M5.55 6.85 L7.15 7.1 5.25 7.0 3.85 6.75 5.55 6.85" fill="#d7dffe" fill-rule="evenodd" stroke="none"/>
      <path d="M16.7 12.55 L7.45 12.2 -1.15 11.25 Q-1.6 11.05 -1.45 8.7 -1.3 6.45 -1.0 5.8 -0.65 5.25 5.0 1.8 10.75 -1.7 12.0 -2.0 13.8 -2.45 26.6 1.9 L27.55 2.75 Q27.85 3.3 27.85 4.5 L27.95 6.4 27.85 7.35 Q27.75 7.7 22.75 10.0 L16.7 12.55" fill="url(#gradient14)" fill-rule="evenodd" stroke="none"/>
      <path d="M27.85 4.5 L27.95 6.4 27.85 7.35 Q27.75 7.7 22.75 10.0 L16.7 12.55 16.1 12.6 16.1 6.3 Q15.95 3.35 15.45 1.9 14.75 -0.3 12.65 -2.15 L20.85 0.05 26.6 1.9 27.55 2.75 Q27.85 3.3 27.85 4.5" fill="url(#gradient15)" fill-rule="evenodd" stroke="none"/>
      <path d="M18.85 0.65 Q20.5 1.25 20.4 2.2 20.35 3.1 19.2 2.85 18.2 2.6 18.0 1.45 17.8 0.3 18.85 0.65" fill="#d2c8b7" fill-rule="evenodd" stroke="none"/>
      <path d="M18.7 3.65 Q19.8 4.15 19.75 5.0 19.75 5.8 18.7 5.65 17.75 5.55 17.85 4.45 18.0 3.35 18.7 3.65" fill="#d2c8b7" fill-rule="evenodd" stroke="none"/>
      <path d="M23.85 2.85 Q25.65 3.4 25.6 4.8 25.55 6.2 24.0 5.85 22.6 5.5 22.65 4.0 22.65 2.45 23.85 2.85" fill="#d2c8b7" fill-rule="evenodd" stroke="none"/>
      <path d="M9.7 0.5 Q11.6 -0.05 11.6 1.45 11.65 3.0 10.05 3.0 8.6 3.0 8.55 1.95 8.5 0.9 9.7 0.5" fill="#d2c8b7" fill-rule="evenodd" stroke="none"/>
      <path d="M12.35 3.75 Q14.7 3.3 14.4 5.15 14.1 7.0 12.35 6.95 10.75 6.9 10.75 5.5 10.75 4.1 12.35 3.75" fill="#d2c8b7" fill-rule="evenodd" stroke="none"/>
      <path d="M4.05 3.5 Q5.9 2.9 5.6 4.55 5.35 6.15 3.1 6.05 1.55 6.0 2.25 4.95 2.9 3.9 4.05 3.5" fill="#d2c8b7" fill-rule="evenodd" stroke="none"/>
      <path d="M16.6 22.9 L16.65 21.5 Q18.65 20.95 21.45 19.45 L26.1 16.95 26.05 18.1 16.6 22.9" fill="url(#gradient16)" fill-rule="evenodd" stroke="none"/>
      <path d="M5.7 18.15 L5.5 17.25 Q5.5 16.3 6.55 16.3 7.75 16.3 8.3 17.55 8.85 18.75 8.05 19.15 L6.65 19.1 Q6.0 18.75 5.7 18.15" fill="#aa9364" fill-rule="evenodd" stroke="none"/>
      <path d="M5.2 16.45 Q6.65 15.85 7.25 16.95 L7.55 18.15 6.85 18.45 Q6.35 18.7 5.7 20.1 5.0 21.55 4.85 22.65 4.8 23.35 5.1 24.9 5.3 26.05 5.05 26.15 4.6 26.3 4.15 25.35 3.65 24.25 3.55 22.3 3.45 20.5 4.3 18.3 L5.2 16.45" fill="url(#gradient17)" fill-rule="evenodd" stroke="none"/>
      <path d="M22.85 15.65 L22.6 16.3 22.0 16.45 21.05 17.2 Q19.95 19.05 18.3 18.9 17.35 18.8 17.4 18.3 L17.6 17.8 17.55 18.15 18.2 18.55 Q19.3 18.65 20.55 16.45 20.95 15.65 21.95 15.6 L22.85 15.65" fill="url(#gradient18)" fill-rule="evenodd" stroke="none"/>
      <path d="M26.35 14.4 L26.55 14.05 Q26.95 14.85 26.1 14.95 L24.9 14.95 24.2 15.15 23.85 15.8 23.2 15.4 23.65 14.85 Q24.25 14.3 24.7 14.4 26.2 14.7 26.35 14.4" fill="url(#gradient19)" fill-rule="evenodd" stroke="none"/>
    </g>
    <linearGradient gradientTransform="matrix(0.0011, 0.0, 0.0, -0.0011, 9.35, 24.3)" gradientUnits="userSpaceOnUse" id="gradient4" spreadMethod="pad" x1="-819.2" x2="819.2">
      <stop offset="0.0" stop-color="#5f4e29"/>
      <stop offset="0.9372549019607843" stop-color="#3a2b0e"/>
    </linearGradient>
    <linearGradient gradientTransform="matrix(0.0011, 0.0, 0.0, -0.0011, 17.0, 20.5)" gradientUnits="userSpaceOnUse" id="gradient5" spreadMethod="pad" x1="-819.2" x2="819.2">
      <stop offset="0.0" stop-color="#5f4e29"/>
      <stop offset="0.9372549019607843" stop-color="#3a2b0e"/>
    </linearGradient>
    <linearGradient gradientTransform="matrix(0.0036, 0.0111, 0.0111, -0.0036, 13.75, 13.95)" gradientUnits="userSpaceOnUse" id="gradient6" spreadMethod="pad" x1="-819.2" x2="819.2">
      <stop offset="0.0" stop-color="#f7e2b8"/>
      <stop offset="1.0" stop-color="#edc896"/>
    </linearGradient>
    <linearGradient gradientTransform="matrix(0.0037, 0.0097, 0.0097, -0.0037, 21.3, 14.9)" gradientUnits="userSpaceOnUse" id="gradient7" spreadMethod="pad" x1="-819.2" x2="819.2">
      <stop offset="0.0" stop-color="#cab893"/>
      <stop offset="1.0" stop-color="#c0a37a"/>
    </linearGradient>
    <linearGradient gradientTransform="matrix(0.0036, 0.0111, 0.0111, -0.0036, 7.3, 16.05)" gradientUnits="userSpaceOnUse" id="gradient8" spreadMethod="pad" x1="-819.2" x2="819.2">
      <stop offset="0.0" stop-color="#54442c"/>
      <stop offset="1.0" stop-color="#3b301d"/>
    </linearGradient>
    <linearGradient gradientTransform="matrix(0.0035, 0.011, 0.011, -0.0035, 7.05, 16.3)" gradientUnits="userSpaceOnUse" id="gradient9" spreadMethod="pad" x1="-819.2" x2="819.2">
      <stop offset="0.0" stop-color="#f7e2b8"/>
      <stop offset="1.0" stop-color="#edc896"/>
    </linearGradient>
    <linearGradient gradientTransform="matrix(0.0038, 0.01, 0.01, -0.0038, 19.4, 15.55)" gradientUnits="userSpaceOnUse" id="gradient10" spreadMethod="pad" x1="-819.2" x2="819.2">
      <stop offset="0.0" stop-color="#54442c"/>
      <stop offset="1.0" stop-color="#3b301d"/>
    </linearGradient>
    <linearGradient gradientTransform="matrix(-1.0E-4, 0.0018, 0.0018, 1.0E-4, 18.2, 15.85)" gradientUnits="userSpaceOnUse" id="gradient11" spreadMethod="pad" x1="-819.2" x2="819.2">
      <stop offset="0.0" stop-color="#5f4e29"/>
      <stop offset="0.8588235294117647" stop-color="#271d09"/>
    </linearGradient>
    <linearGradient gradientTransform="matrix(-1.0E-4, 0.0017, 0.0017, 1.0E-4, 25.1, 11.9)" gradientUnits="userSpaceOnUse" id="gradient12" spreadMethod="pad" x1="-819.2" x2="819.2">
      <stop offset="0.0" stop-color="#5f4e29"/>
      <stop offset="0.8588235294117647" stop-color="#271d09"/>
    </linearGradient>
    <linearGradient gradientTransform="matrix(0.0148, 0.0, 0.0, -0.0148, 12.3, 4.5)" gradientUnits="userSpaceOnUse" id="gradient13" spreadMethod="pad" x1="-819.2" x2="819.2">
      <stop offset="0.0" stop-color="#5b71a7"/>
      <stop offset="1.0" stop-color="#383e62"/>
    </linearGradient>
    <radialGradient cx="0" cy="0" gradientTransform="matrix(0.0229, -0.0012, 0.0, -0.0126, 13.4, -0.3)" gradientUnits="userSpaceOnUse" id="gradient14" r="819.2" spreadMethod="pad">
      <stop offset="0.0" stop-color="#db4825"/>
      <stop offset="1.0" stop-color="#933423"/>
    </radialGradient>
    <radialGradient cx="0" cy="0" gradientTransform="matrix(0.0242, -0.0012, 0.0, -0.0133, 12.15, -0.55)" gradientUnits="userSpaceOnUse" id="gradient15" r="819.2" spreadMethod="pad">
      <stop offset="0.0" stop-color="#9e331a"/>
      <stop offset="1.0" stop-color="#72281b"/>
    </radialGradient>
    <linearGradient gradientTransform="matrix(0.0058, 0.0153, 0.0153, -0.0058, 18.55, 12.55)" gradientUnits="userSpaceOnUse" id="gradient16" spreadMethod="pad" x1="-819.2" x2="819.2">
      <stop offset="0.0" stop-color="#cab893"/>
      <stop offset="1.0" stop-color="#c0a37a"/>
    </linearGradient>
    <linearGradient gradientTransform="matrix(0.0014, 0.0043, 0.0043, -0.0014, 5.85, 21.55)" gradientUnits="userSpaceOnUse" id="gradient17" spreadMethod="pad" x1="-819.2" x2="819.2">
      <stop offset="0.0" stop-color="#f7e2b8"/>
      <stop offset="1.0" stop-color="#edc896"/>
    </linearGradient>
    <linearGradient gradientTransform="matrix(0.0013, -1.0E-4, -1.0E-4, -0.0013, 19.5, 17.25)" gradientUnits="userSpaceOnUse" id="gradient18" spreadMethod="pad" x1="-819.2" x2="819.2">
      <stop offset="0.0" stop-color="#5f4e29"/>
      <stop offset="0.9372549019607843" stop-color="#3a2b0e"/>
    </linearGradient>
    <linearGradient gradientTransform="matrix(8.0E-4, 0.0, 0.0, -8.0E-4, 24.5, 14.95)" gradientUnits="userSpaceOnUse" id="gradient19" spreadMethod="pad" x1="-819.2" x2="819.2">
      <stop offset="0.0" stop-color="#5f4e29"/>
      <stop offset="0.9372549019607843" stop-color="#3a2b0e"/>
    </linearGradient>
  </defs>
</svg>
