<?xml version="1.0" encoding="UTF-8" standalone="no"?>
<svg xmlns:xlink="http://www.w3.org/1999/xlink" height="25.55px" width="30.0px" xmlns="http://www.w3.org/2000/svg">
  <g transform="matrix(1.0, 0.0, 0.0, 1.0, 0.0, 0.0)">
    <use height="25.55" transform="matrix(1.0, 0.0, 0.0, 1.0, 0.0, 0.0)" width="29.95" xlink:href="#shape0"/>
  </g>
  <defs>
    <g id="shape0" transform="matrix(1.0, 0.0, 0.0, 1.0, 0.0, 0.0)">
      <path d="M29.45 1.1 L27.3 2.8 29.25 1.1 29.45 1.1 M19.0 6.8 L11.55 6.25 4.3 5.85 0.0 5.7 2.0 4.3 Q5.75 2.2 10.6 0.0 L20.1 0.3 29.15 1.1 29.1 1.1 18.9 5.45 3.65 4.9 14.4 5.5 18.95 5.75 19.05 6.25 18.95 6.6 19.0 6.8 M21.9 1.75 Q22.6 1.4 22.35 1.1 L21.0 0.85 14.65 0.7 Q12.35 0.7 10.95 1.4 L7.5 3.2 Q6.9 3.5 7.1 3.75 7.25 4.0 8.1 4.05 L13.9 4.35 16.05 4.25 17.9 3.7 21.9 1.75 M20.2 5.3 L19.5 5.6 19.25 5.85 19.35 5.6 20.2 5.3" fill="#86bc9c" fill-rule="evenodd" stroke="none"/>
      <path d="M27.3 2.8 L29.45 1.1 Q26.75 3.95 25.0 4.8 L19.35 7.1 19.45 23.3 19.15 25.55 19.15 23.8 19.1 22.45 19.05 20.45 19.0 18.5 18.95 16.9 18.95 15.45 18.9 14.75 18.9 14.55 18.85 11.6 18.75 7.65 0.0 5.7 4.3 5.85 11.55 6.25 19.0 6.8 25.05 4.3 27.3 2.8" fill="#d4f3e2" fill-rule="evenodd" stroke="none"/>
      <path d="M29.25 1.1 L27.3 2.8 25.05 4.3 19.0 6.8 18.95 6.6 19.05 6.25 19.05 6.35 19.15 6.6 19.25 5.85 19.5 5.6 20.2 5.3 29.1 1.1 29.15 1.1 29.3 1.0 29.25 1.1" fill="#648c75" fill-rule="evenodd" stroke="none"/>
      <path d="M28.7 7.95 L27.2 8.75 Q26.95 8.7 27.0 7.35 L27.1 5.65 Q27.2 5.35 28.75 4.6 29.05 4.5 29.1 5.4 L29.15 6.8 29.15 7.5 28.7 7.95 M24.1 17.35 Q24.25 16.95 26.0 16.2 26.35 16.05 26.4 17.0 L26.45 18.45 26.45 19.15 25.95 19.65 25.0 20.2 24.2 20.5 Q23.95 20.5 23.95 19.05 23.95 17.7 24.1 17.35" fill="#8bb662" fill-rule="evenodd" stroke="none"/>
      <path d="M18.95 15.45 L18.95 16.9 18.4 16.9 18.35 17.65 17.9 17.85 17.55 17.7 17.25 17.4 17.05 17.1 16.95 17.4 16.4 17.95 15.9 17.9 Q15.65 17.7 15.7 17.2 L15.05 17.3 15.05 15.75 15.8 15.7 Q15.75 16.15 15.95 16.3 16.45 16.7 16.8 15.9 L16.9 15.6 17.05 15.9 Q17.6 16.6 18.0 16.1 18.2 15.9 18.0 15.45 L18.75 15.35 18.95 15.45 M19.15 23.8 L19.15 25.55 19.45 23.3 19.35 7.1 25.0 4.8 Q26.75 3.95 29.45 1.1 L29.7 5.0 29.95 11.0 29.75 18.8 23.8 23.2 20.9 24.75 19.15 25.55 18.4 25.5 17.5 25.4 19.15 23.8 M15.45 25.2 L14.4 25.1 13.4 25.0 16.3 22.2 15.55 22.0 16.8 22.3 18.4 22.5 15.45 25.2 M12.05 24.9 L9.4 24.65 13.0 21.2 13.9 21.5 14.75 21.75 11.4 24.8 12.05 24.9 M8.4 24.55 L6.5 24.4 5.3 24.3 9.55 20.2 11.3 20.7 11.5 20.75 7.4 24.45 8.4 24.55 M3.3 24.0 L2.15 23.75 1.8 23.65 5.95 19.65 7.55 19.75 7.9 19.8 7.8 19.85 3.3 24.0 M0.7 22.55 L0.6 20.55 1.35 20.3 2.6 19.95 3.8 19.75 0.7 22.55 M0.4 16.4 L0.35 15.1 0.45 15.05 1.05 15.1 1.15 15.65 Q1.6 15.95 1.9 15.35 L2.05 15.15 2.15 15.35 Q2.5 16.05 2.9 15.65 L3.0 15.1 3.6 15.1 3.95 15.3 4.0 15.35 4.0 15.8 3.9 15.75 4.0 15.9 4.0 16.25 3.95 16.3 3.9 16.35 3.15 16.35 Q3.3 16.85 3.05 17.0 L2.65 17.1 2.15 16.65 2.0 16.4 1.9 16.65 1.5 17.05 0.95 17.0 0.9 16.9 0.85 16.35 0.4 16.4 M28.7 7.95 L29.15 7.5 29.15 6.8 29.1 5.4 Q29.05 4.5 28.75 4.6 27.2 5.35 27.1 5.65 L27.0 7.35 Q26.95 8.7 27.2 8.75 L28.7 7.95 M26.45 9.3 L26.45 8.55 26.4 7.1 Q26.35 6.15 26.0 6.3 24.3 6.85 24.1 7.4 23.95 7.75 23.95 9.1 23.95 10.55 24.2 10.6 L25.0 10.3 25.95 9.75 26.45 9.3 M22.55 8.1 Q20.75 8.9 20.65 9.2 L20.55 10.95 Q20.5 12.35 20.75 12.4 L22.5 11.6 23.0 11.1 23.0 10.35 23.0 8.95 Q22.9 8.0 22.55 8.1 M24.1 12.4 Q23.95 12.75 23.95 14.1 23.95 15.55 24.2 15.55 L25.0 15.3 25.95 14.75 26.45 14.25 26.45 13.5 26.4 12.05 Q26.35 11.1 26.0 11.25 24.25 12.0 24.1 12.4 M23.0 13.95 Q22.9 13.0 22.55 13.15 20.85 13.8 20.65 14.25 L20.55 16.0 Q20.5 17.4 20.75 17.45 L21.55 17.15 22.5 16.6 23.0 16.1 23.0 15.4 23.0 13.95 M20.55 21.0 Q20.5 22.4 20.75 22.45 L22.5 21.6 23.0 21.05 23.0 20.35 23.0 18.9 Q22.9 17.95 22.55 18.1 20.8 18.9 20.65 19.25 L20.55 21.0 M24.1 17.35 Q23.95 17.7 23.95 19.05 23.95 20.5 24.2 20.5 L25.0 20.2 25.95 19.65 26.45 19.15 26.45 18.45 26.4 17.0 Q26.35 16.05 26.0 16.2 24.25 16.95 24.1 17.35 M29.1 10.3 Q29.05 9.4 28.75 9.55 27.3 10.15 27.1 10.6 L27.0 12.3 Q26.95 13.65 27.2 13.7 27.5 13.75 28.7 12.9 L29.15 12.4 29.15 11.7 29.1 10.3 M28.75 14.45 Q27.3 15.05 27.1 15.55 L27.0 17.2 Q26.95 18.6 27.2 18.6 L28.7 17.8 29.15 17.3 29.15 16.6 29.1 15.25 Q29.05 14.3 28.75 14.45" fill="#73a085" fill-rule="evenodd" stroke="none"/>
      <path d="M21.9 1.75 L17.9 3.7 16.05 4.25 13.9 4.35 8.1 4.05 Q7.25 4.0 7.1 3.75 6.9 3.5 7.5 3.2 L10.95 1.4 Q12.35 0.7 14.65 0.7 L21.0 0.85 22.35 1.1 Q22.6 1.4 21.9 1.75 M17.55 3.0 L18.75 2.75 Q19.25 2.5 18.55 2.5 L17.3 2.7 Q16.95 2.9 17.55 3.0 M15.05 15.75 L15.05 17.3 15.05 17.35 Q15.05 18.15 14.6 18.75 L14.35 19.0 Q13.8 19.5 13.1 19.55 L12.6 19.55 7.0 19.0 6.35 18.95 5.85 18.85 5.5 18.7 5.1 18.45 5.3 18.65 5.35 19.05 5.35 19.6 4.7 19.65 4.7 18.9 4.7 18.65 4.95 18.45 5.0 18.35 4.75 18.1 4.3 17.5 4.0 16.4 4.0 16.25 4.0 15.9 4.0 15.8 4.0 15.35 3.9 10.7 Q3.9 9.7 4.55 9.05 5.25 8.4 6.2 8.45 L12.6 8.8 Q13.6 8.9 14.35 9.65 15.05 10.45 15.05 11.45 L15.05 14.65 15.05 15.15 Q14.75 15.5 15.05 15.7 L15.05 15.75 M16.6 19.6 L17.1 19.05 17.2 18.65 17.4 19.05 17.95 19.45 18.05 20.05 18.4 22.5 16.8 22.3 16.65 19.8 16.6 19.6 M12.65 3.25 L15.65 2.95 11.4 2.8 11.25 3.0 12.25 3.25 12.65 3.25 M9.9 2.45 Q9.5 2.6 10.1 2.7 L11.15 2.45 Q11.55 2.3 11.0 2.2 L9.9 2.45 M5.55 14.75 Q6.2 14.85 6.2 13.95 6.1 13.1 5.45 13.0 5.2 12.95 5.0 13.2 4.8 13.45 4.85 13.8 4.85 14.65 5.55 14.75 M1.4 18.5 L1.85 18.05 2.0 17.75 2.15 18.05 2.55 18.5 2.6 19.95 1.35 20.3 1.4 18.5 M12.55 14.45 Q12.55 15.3 13.25 15.4 L13.75 15.2 13.95 14.6 Q13.95 13.75 13.25 13.65 12.95 13.6 12.75 13.85 L12.55 14.45 M10.4 16.9 L11.25 16.45 11.55 15.85 7.1 15.5 7.35 16.15 Q7.8 16.65 8.75 16.85 L9.25 16.9 10.0 16.95 10.4 16.9" fill="#bcac41" fill-rule="evenodd" stroke="none"/>
      <path d="M17.55 3.0 Q16.95 2.9 17.3 2.7 L18.55 2.5 Q19.25 2.5 18.75 2.75 L17.55 3.0 M9.9 2.45 L11.0 2.2 Q11.55 2.3 11.15 2.45 L10.1 2.7 Q9.5 2.6 9.9 2.45 M5.55 14.75 Q4.85 14.65 4.85 13.8 4.8 13.45 5.0 13.2 5.2 12.95 5.45 13.0 6.1 13.1 6.2 13.95 6.2 14.85 5.55 14.75 M12.55 14.45 L12.75 13.85 Q12.95 13.6 13.25 13.65 13.95 13.75 13.95 14.6 L13.75 15.2 13.25 15.4 Q12.55 15.3 12.55 14.45" fill="#7c712b" fill-rule="evenodd" stroke="none"/>
      <path d="M19.05 6.25 L18.95 5.75 14.4 5.5 3.65 4.9 18.9 5.45 29.1 1.1 20.2 5.3 19.35 5.6 19.25 5.85 19.15 6.6 19.05 6.35 19.05 6.25" fill="#b2e5c8" fill-rule="evenodd" stroke="none"/>
      <path d="M22.55 8.1 Q22.9 8.0 23.0 8.95 L23.0 10.35 23.0 11.1 22.5 11.6 20.75 12.4 Q20.5 12.35 20.55 10.95 L20.65 9.2 Q20.75 8.9 22.55 8.1" fill="#a4b863" fill-rule="evenodd" stroke="none"/>
      <path d="M26.45 9.3 L25.95 9.75 25.0 10.3 24.2 10.6 Q23.95 10.55 23.95 9.1 23.95 7.75 24.1 7.4 24.3 6.85 26.0 6.3 26.35 6.15 26.4 7.1 L26.45 8.55 26.45 9.3 M29.1 10.3 L29.15 11.7 29.15 12.4 28.7 12.9 Q27.5 13.75 27.2 13.7 26.95 13.65 27.0 12.3 L27.1 10.6 Q27.3 10.15 28.75 9.55 29.05 9.4 29.1 10.3" fill="#b19b62" fill-rule="evenodd" stroke="none"/>
      <path d="M24.1 12.4 Q24.25 12.0 26.0 11.25 26.35 11.1 26.4 12.05 L26.45 13.5 26.45 14.25 25.95 14.75 25.0 15.3 24.2 15.55 Q23.95 15.55 23.95 14.1 23.95 12.75 24.1 12.4 M20.55 21.0 L20.65 19.25 Q20.8 18.9 22.55 18.1 22.9 17.95 23.0 18.9 L23.0 20.35 23.0 21.05 22.5 21.6 20.75 22.45 Q20.5 22.4 20.55 21.0" fill="#b9b963" fill-rule="evenodd" stroke="none"/>
      <path d="M23.0 13.95 L23.0 15.4 23.0 16.1 22.5 16.6 21.55 17.15 20.75 17.45 Q20.5 17.4 20.55 16.0 L20.65 14.25 Q20.85 13.8 22.55 13.15 22.9 13.0 23.0 13.95" fill="#87a7b9" fill-rule="evenodd" stroke="none"/>
      <path d="M15.3 14.45 L15.35 14.1 15.15 14.15 Q14.95 14.05 15.3 13.75 L16.0 13.1 16.5 12.35 16.55 12.3 16.55 12.25 16.6 12.3 16.6 12.35 17.3 12.95 17.4 13.05 18.1 13.45 18.35 13.8 18.1 13.85 18.25 14.15 18.2 14.3 17.65 14.4 17.65 15.0 17.4 15.15 16.95 14.75 Q16.8 14.7 16.8 14.35 L16.7 14.8 Q16.5 15.45 16.05 15.15 L15.95 14.6 Q15.6 14.85 15.35 14.6 L15.3 14.45 M0.75 14.0 L0.85 13.7 0.65 13.7 Q0.4 13.7 0.8 13.4 L1.5 12.9 2.0 12.3 2.05 12.25 2.05 12.3 2.1 12.3 2.6 12.9 3.25 13.4 Q3.6 13.65 3.4 13.75 L3.2 13.75 3.3 14.0 3.25 14.15 2.75 14.2 2.7 14.65 Q2.4 14.95 2.1 14.4 L2.05 14.05 1.95 14.4 Q1.7 15.0 1.35 14.65 L1.3 14.2 0.8 14.15 0.75 14.0" fill="#8fc4a4" fill-rule="evenodd" stroke="none"/>
      <path d="M0.0 5.7 L18.75 7.65 18.85 11.6 Q18.25 11.7 18.2 12.05 L18.3 12.4 17.85 12.5 17.4 13.05 17.3 12.95 16.6 12.35 16.6 12.3 16.55 12.25 16.55 12.3 16.5 12.35 16.0 13.1 15.3 13.75 Q14.95 14.05 15.15 14.15 L15.35 14.1 15.3 14.45 15.05 14.65 15.05 11.45 Q15.05 10.45 14.35 9.65 13.6 8.9 12.6 8.8 L6.2 8.45 Q5.25 8.4 4.55 9.05 3.9 9.7 3.9 10.7 L4.0 15.35 3.95 15.3 3.6 15.1 3.6 15.05 Q3.85 14.9 3.55 14.6 L3.85 14.6 3.6 14.2 3.3 14.0 3.2 13.75 3.4 13.75 Q3.6 13.65 3.25 13.4 L2.6 12.9 2.1 12.3 2.05 12.3 2.05 12.25 2.0 12.3 1.5 12.9 0.8 13.4 Q0.4 13.7 0.65 13.7 L0.85 13.7 0.75 14.0 0.45 14.2 0.35 14.3 0.35 14.6 0.5 14.55 0.35 14.85 0.45 15.05 0.35 15.1 0.35 14.85 0.3 12.9 0.0 5.7 M4.0 15.8 L4.0 15.9 3.9 15.75 4.0 15.8 M4.0 16.25 L4.0 16.4 3.9 16.35 3.95 16.3 4.0 16.25 M4.7 18.65 L4.7 18.9 3.6 18.7 3.45 18.35 3.35 18.2 3.3 17.7 3.65 17.8 3.7 17.85 3.9 17.85 Q3.75 18.0 3.85 18.2 L4.3 18.25 Q4.2 18.5 4.4 18.6 L4.7 18.65 M5.35 19.05 L5.3 18.65 5.5 18.7 5.85 18.85 5.75 18.9 5.55 19.1 5.35 19.05 M7.0 19.0 L12.6 19.55 13.1 19.55 12.95 19.75 12.9 20.25 11.3 20.7 9.55 20.2 9.55 20.15 9.0 20.05 8.45 19.45 Q8.1 19.15 7.6 19.2 L7.15 19.35 7.0 19.0" fill="#d1eedf" fill-rule="evenodd" stroke="none"/>
      <path d="M18.85 11.6 L18.9 14.55 18.65 14.35 18.25 14.15 18.1 13.85 18.35 13.8 18.1 13.45 17.4 13.05 17.85 12.5 18.3 12.4 18.2 12.05 Q18.25 11.7 18.85 11.6 M18.9 14.75 L18.95 15.45 18.75 15.35 Q18.95 15.1 18.65 14.8 L18.9 14.75 M19.0 18.5 L19.05 20.45 18.05 20.05 17.95 19.45 18.7 19.35 Q18.95 19.0 18.75 18.45 L19.0 18.5 M4.65 24.2 L4.3 24.15 4.55 24.2 4.65 24.2 M0.6 20.55 L0.5 17.75 0.7 17.7 Q0.55 18.2 0.8 18.45 L1.4 18.5 1.35 20.3 0.6 20.55 M16.6 19.6 L16.65 19.8 14.5 19.9 12.9 20.25 12.95 19.75 13.1 19.55 Q13.8 19.5 14.35 19.0 L14.6 18.75 14.65 18.8 Q15.05 19.1 15.7 18.8 15.55 19.35 15.9 19.6 16.3 19.85 16.6 19.6 M4.7 18.9 L4.7 19.65 3.8 19.7 3.8 19.75 2.6 19.95 2.55 18.5 3.2 18.45 3.35 18.2 3.45 18.35 3.6 18.7 4.7 18.9 M5.35 19.6 L5.35 19.05 5.55 19.1 5.75 18.9 5.85 18.85 6.35 18.95 7.0 19.0 7.15 19.35 7.6 19.2 Q8.1 19.15 8.45 19.45 L9.0 20.05 8.85 20.0 7.9 19.8 7.55 19.75 5.95 19.65 5.95 19.6 5.35 19.6" fill="#ffffff" fill-rule="evenodd" stroke="none"/>
      <path d="M18.9 14.55 L18.9 14.75 18.65 14.8 Q18.95 15.1 18.75 15.35 L18.0 15.45 Q18.2 15.9 18.0 16.1 17.6 16.6 17.05 15.9 L16.9 15.6 16.8 15.9 Q16.45 16.7 15.95 16.3 15.75 16.15 15.8 15.7 L15.05 15.75 15.05 15.7 Q14.75 15.5 15.05 15.15 L15.05 14.65 15.3 14.45 15.35 14.6 Q15.6 14.85 15.95 14.6 L16.05 15.15 Q16.5 15.45 16.7 14.8 L16.8 14.35 Q16.8 14.7 16.95 14.75 L17.4 15.15 17.65 15.0 17.65 14.4 18.2 14.3 18.25 14.15 18.65 14.35 18.9 14.55 M3.3 14.0 L3.6 14.2 3.85 14.6 3.55 14.6 Q3.85 14.9 3.6 15.05 L3.6 15.1 3.0 15.1 2.9 15.65 Q2.5 16.05 2.15 15.35 L2.05 15.15 1.9 15.35 Q1.6 15.95 1.15 15.65 L1.05 15.1 0.45 15.05 0.35 14.85 0.5 14.55 0.35 14.6 0.35 14.3 0.45 14.2 0.75 14.0 0.8 14.15 1.3 14.2 1.35 14.65 Q1.7 15.0 1.95 14.4 L2.05 14.05 2.1 14.4 Q2.4 14.95 2.7 14.65 L2.75 14.2 3.25 14.15 3.3 14.0" fill="#82b596" fill-rule="evenodd" stroke="none"/>
      <path d="M18.95 16.9 L19.0 18.5 18.75 18.45 Q18.95 19.0 18.7 19.35 L17.95 19.45 17.4 19.05 17.2 18.65 17.1 19.05 16.6 19.6 Q16.3 19.85 15.9 19.6 15.55 19.35 15.7 18.8 15.05 19.1 14.65 18.8 L14.6 18.75 Q15.05 18.15 15.05 17.35 L15.05 17.3 15.7 17.2 Q15.65 17.7 15.9 17.9 L16.4 17.95 16.95 17.4 17.05 17.1 17.25 17.4 17.55 17.7 17.9 17.85 18.35 17.65 18.4 16.9 18.95 16.9 M0.5 17.75 L0.45 17.75 0.4 16.4 0.85 16.35 0.9 16.9 0.95 17.0 1.5 17.05 1.9 16.65 2.0 16.4 2.15 16.65 2.65 17.1 3.05 17.0 Q3.3 16.85 3.15 16.35 L3.9 16.35 4.0 16.4 4.3 17.5 4.2 17.65 3.65 17.8 3.3 17.7 3.35 18.2 3.2 18.45 2.55 18.5 2.15 18.05 2.0 17.75 1.85 18.05 1.4 18.5 0.8 18.45 Q0.55 18.2 0.7 17.7 L0.5 17.75" fill="#668e77" fill-rule="evenodd" stroke="none"/>
      <path d="M19.05 20.45 L19.1 22.45 18.55 22.5 18.4 22.5 18.05 20.05 19.05 20.45 M18.4 25.5 L17.45 25.4 17.5 25.4 18.4 25.5 M14.4 25.1 L12.1 24.9 12.05 24.9 12.3 24.9 12.4 24.9 13.4 25.0 14.4 25.1 M16.65 19.8 L16.8 22.3 15.55 22.0 15.45 21.95 14.75 21.75 13.9 21.5 13.0 21.2 11.5 20.7 11.5 20.75 11.3 20.7 12.9 20.25 14.5 19.9 16.65 19.8" fill="#8fbfa3" fill-rule="evenodd" stroke="none"/>
      <path d="M28.75 14.45 Q29.05 14.3 29.1 15.25 L29.15 16.6 29.15 17.3 28.7 17.8 27.2 18.6 Q26.95 18.6 27.0 17.2 L27.1 15.55 Q27.3 15.05 28.75 14.45" fill="#b7af63" fill-rule="evenodd" stroke="none"/>
      <path d="M19.1 22.45 L19.15 23.8 17.5 25.4 17.45 25.4 15.45 25.2 18.4 22.5 18.55 22.5 19.1 22.45 M9.4 24.65 L8.4 24.55 7.4 24.45 11.5 20.75 11.5 20.7 13.0 21.2 9.4 24.65 M5.3 24.3 L5.25 24.3 4.65 24.2 4.55 24.2 4.3 24.15 3.85 24.1 3.3 24.0 7.8 19.85 7.9 19.8 8.85 20.0 9.0 20.05 9.55 20.15 9.55 20.2 5.3 24.3 M1.8 23.65 L1.75 23.65 0.75 23.3 0.7 22.55 3.8 19.75 3.8 19.7 4.7 19.65 5.35 19.6 5.95 19.6 5.95 19.65 1.8 23.65 M14.75 21.75 L15.45 21.95 15.55 22.0 16.3 22.2 13.4 25.0 12.4 24.9 12.3 24.9 12.05 24.9 11.4 24.8 14.75 21.75" fill="#80ad8d" fill-rule="evenodd" stroke="none"/>
      <path d="M12.25 3.25 L11.25 3.0 11.4 2.8 15.65 2.95 12.65 3.25 13.8 3.25 13.15 3.05 11.8 3.15 12.25 3.25 M8.75 16.85 Q7.8 16.65 7.35 16.15 L7.1 15.5 11.55 15.85 11.25 16.45 10.4 16.9 Q9.95 16.25 9.3 16.25 8.7 16.2 8.25 16.7 L8.75 16.85" fill="#79682a" fill-rule="evenodd" stroke="none"/>
      <path d="M12.65 3.25 L12.25 3.25 11.8 3.15 13.15 3.05 13.8 3.25 12.65 3.25 M10.4 16.9 L10.0 16.95 9.25 16.9 8.75 16.85 8.25 16.7 Q8.7 16.2 9.3 16.25 9.95 16.25 10.4 16.9" fill="#a1783a" fill-rule="evenodd" stroke="none"/>
      <path d="M4.3 17.5 L4.75 18.1 5.0 18.35 4.95 18.45 4.7 18.65 4.4 18.6 Q4.2 18.5 4.3 18.25 L3.85 18.2 Q3.75 18.0 3.9 17.85 L3.7 17.85 3.65 17.8 4.2 17.65 4.3 17.5 M5.3 18.65 L5.1 18.45 5.5 18.7 5.3 18.65" fill="#658e76" fill-rule="evenodd" stroke="none"/>
      <path d="M6.5 24.4 L2.15 23.75 0.75 23.3 0.3 12.9 0.0 5.7 5.95 6.1 19.0 6.8 19.15 25.55 6.5 24.4" fill="url(#gradient0)" fill-rule="evenodd" stroke="none"/>
      <path d="M29.45 1.1 L29.7 5.0 29.95 11.0 29.75 18.8 23.8 23.2 20.9 24.75 19.15 25.55 19.0 6.8 24.75 4.5 Q26.15 4.0 29.45 1.1" fill="url(#gradient1)" fill-rule="evenodd" stroke="none"/>
      <path d="M19.0 6.8 L5.95 6.1 0.0 5.7 2.0 4.3 Q5.75 2.2 10.6 0.0 L20.1 0.3 29.45 1.1 Q26.15 4.0 24.75 4.5 L19.0 6.8" fill="url(#gradient2)" fill-rule="evenodd" stroke="none"/>
    </g>
    <linearGradient gradientTransform="matrix(0.0063, 0.0098, 0.0098, -0.0063, 8.8, 13.35)" gradientUnits="userSpaceOnUse" id="gradient0" spreadMethod="pad" x1="-819.2" x2="819.2">
      <stop offset="0.0" stop-color="#ffffff" stop-opacity="0.61960787"/>
      <stop offset="1.0" stop-color="#ffffff" stop-opacity="0.0"/>
    </linearGradient>
    <linearGradient gradientTransform="matrix(0.0055, 0.0077, 0.0077, -0.0055, 23.95, 12.8)" gradientUnits="userSpaceOnUse" id="gradient1" spreadMethod="pad" x1="-819.2" x2="819.2">
      <stop offset="0.0" stop-color="#000000" stop-opacity="0.20784314"/>
      <stop offset="1.0" stop-color="#000000" stop-opacity="0.0"/>
    </linearGradient>
    <linearGradient gradientTransform="matrix(0.0012, 0.0047, 0.0047, -0.0012, 14.3, 1.7)" gradientUnits="userSpaceOnUse" id="gradient2" spreadMethod="pad" x1="-819.2" x2="819.2">
      <stop offset="0.0" stop-color="#ffffff" stop-opacity="0.61960787"/>
      <stop offset="1.0" stop-color="#ffffff" stop-opacity="0.0"/>
    </linearGradient>
  </defs>
</svg>
