<?xml version="1.0" encoding="UTF-8" standalone="no"?>
<svg xmlns:xlink="http://www.w3.org/1999/xlink" height="106.1px" width="125.95px" xmlns="http://www.w3.org/2000/svg">
  <g transform="matrix(1.0, 0.0, 0.0, 1.0, 0.0, 0.0)">
    <use height="41.1" transform="matrix(1.0, 0.0, 0.0, 1.0, 0.0, 65.0)" width="118.2" xlink:href="#shape0"/>
    <use height="76.55" transform="matrix(1.0, 0.0096, 0.0, 0.8507, 80.0, 12.1454)" width="30.35" xlink:href="#morphshape0"/>
    <use height="75.7" transform="matrix(1.0, 0.0, 0.0, 1.0, 40.95, 0.85)" width="34.3" xlink:href="#morphshape1"/>
    <use height="76.55" transform="matrix(1.0, 0.0, 0.0, 1.0, 22.25, 3.8)" width="29.7" xlink:href="#shape1"/>
    <use height="74.7" transform="matrix(1.2341, 0.0763, -0.2136, 0.9937, 71.6363, 7.5294)" width="18.65" xlink:href="#morphshape2"/>
    <use height="33.3" transform="matrix(1.0, 0.0, 0.0, 1.0, 95.3, 45.75)" width="30.6" xlink:href="#morphshape3"/>
    <use height="47.7" transform="matrix(1.0, 0.0, 0.0, 1.0, 10.6, 37.55)" width="22.05" xlink:href="#shape2"/>
    <use height="74.7" transform="matrix(1.0, 0.0, 0.0, 1.0, 78.95, 18.55)" width="19.45" xlink:href="#morphshape4"/>
    <use height="50.0" transform="matrix(1.0, 0.0, 0.0, 1.0, 24.85, 43.3)" width="21.0" xlink:href="#shape3"/>
    <use height="65.6" transform="matrix(1.0, 0.0, 0.0, 1.0, 40.3, 28.6)" width="25.25" xlink:href="#morphshape5"/>
    <use height="57.7" transform="matrix(1.0, 0.0, 0.0, 1.0, 55.4, 39.5)" width="24.05" xlink:href="#morphshape6"/>
  </g>
  <defs>
    <g id="shape0" transform="matrix(1.0, 0.0, 0.0, 1.0, 59.1, 20.55)">
      <path d="M-24.55 -20.55 Q-10.25 -20.55 -0.15 -16.05 10.0 -11.6 10.0 -5.25 10.0 1.1 -0.15 5.55 -10.25 10.0 -24.55 10.0 -38.85 10.0 -48.95 5.55 -59.1 1.1 -59.1 -5.25 -59.1 -11.6 -48.95 -16.05 -38.85 -20.55 -24.55 -20.55" fill="#4c3b2a" fill-rule="evenodd" stroke="none"/>
      <path d="M59.1 -3.6 Q59.1 2.75 48.95 7.2 38.85 11.7 24.55 11.7 10.25 11.7 0.1 7.2 -10.0 2.75 -10.0 -3.6 -10.0 -9.9 0.1 -14.35 10.25 -18.85 24.55 -18.85 38.85 -18.85 48.95 -14.35 59.1 -9.9 59.1 -3.6" fill="#4c3b2a" fill-rule="evenodd" stroke="none"/>
      <path d="M-2.3 -9.95 Q12.05 -9.95 22.15 -5.5 32.25 -1.05 32.25 5.3 32.25 11.65 22.15 16.1 12.05 20.55 -2.3 20.55 -16.6 20.55 -26.7 16.1 -36.8 11.65 -36.8 5.3 -36.8 -1.05 -26.7 -5.5 -16.6 -9.95 -2.3 -9.95" fill="#4c3b2a" fill-rule="evenodd" stroke="none"/>
    </g>
    <g id="morphshape0" transform="matrix(1.0, 0.0, 0.0, 1.0, 14.85, 76.6)">
      <path d="M-14.8 -7.65 L-4.9 -0.1 Q3.9 -16.25 8.8 -28.05 13.45 -39.05 14.7 -50.1 16.1 -62.7 14.45 -76.45 10.15 -63.1 4.05 -46.45 L-1.2 -32.25 Q-3.8 -25.7 -6.35 -21.2 -7.8 -18.5 -10.6 -14.45 -13.3 -10.6 -14.85 -7.6" fill="url(#gradient0)" fill-rule="evenodd" stroke="none"/>
      <path d="M-14.85 -7.6 Q-13.3 -10.6 -10.6 -14.45 -7.8 -18.5 -6.35 -21.2 -3.8 -25.7 -1.2 -32.25 L4.05 -46.45 Q10.15 -63.1 14.45 -76.45 16.1 -62.7 14.7 -50.1 13.45 -39.05 8.8 -28.05 3.9 -16.25 -4.9 -0.1 L-14.8 -7.65" fill="none" stroke="#000000" stroke-linecap="round" stroke-linejoin="round" stroke-opacity="0.0" stroke-width="1.0"/>
    </g>
    <linearGradient gradientTransform="matrix(0.0254, -0.0367, -0.0368, -0.0255, 4.25, -38.1)" gradientUnits="userSpaceOnUse" id="gradient0" spreadMethod="pad" x1="-819.2" x2="819.2">
      <stop offset="0.09019607843137255" stop-color="#4c3b2a"/>
      <stop offset="0.25882352941176473" stop-color="#625d38"/>
      <stop offset="0.43529411764705883" stop-color="#747843"/>
      <stop offset="0.6196078431372549" stop-color="#818b4b"/>
      <stop offset="0.803921568627451" stop-color="#899750"/>
      <stop offset="1.0" stop-color="#8c9b51"/>
    </linearGradient>
    <g id="morphshape1" transform="matrix(1.0, 0.0, 0.0, 1.0, 14.85, 75.75)">
      <path d="M-14.9 -7.6 L-5.0 -0.05 Q1.75 -17.8 8.4 -29.05 15.0 -40.3 16.05 -55.4 17.1 -70.7 18.9 -75.65 16.75 -73.65 4.35 -46.2 L-2.3 -33.65 -7.15 -24.05 -11.4 -15.55 Q-13.8 -10.9 -14.85 -7.6" fill="url(#gradient1)" fill-rule="evenodd" stroke="none"/>
      <path d="M-14.85 -7.6 Q-13.8 -10.9 -11.4 -15.55 L-7.15 -24.05 -2.3 -33.65 4.35 -46.2 Q16.75 -73.65 18.9 -75.65 17.1 -70.7 16.05 -55.4 15.0 -40.3 8.4 -29.05 1.75 -17.8 -5.0 -0.05 L-14.9 -7.6" fill="none" stroke="#000000" stroke-linecap="round" stroke-linejoin="round" stroke-opacity="0.0" stroke-width="1.0"/>
    </g>
    <linearGradient gradientTransform="matrix(0.0253, -0.0366, -0.0368, -0.0255, 4.25, -38.1)" gradientUnits="userSpaceOnUse" id="gradient1" spreadMethod="pad" x1="-819.2" x2="819.2">
      <stop offset="0.09019607843137255" stop-color="#4c3b2a"/>
      <stop offset="0.25882352941176473" stop-color="#625d38"/>
      <stop offset="0.43529411764705883" stop-color="#747843"/>
      <stop offset="0.6196078431372549" stop-color="#818b4b"/>
      <stop offset="0.803921568627451" stop-color="#899750"/>
      <stop offset="1.0" stop-color="#8c9b51"/>
    </linearGradient>
    <g id="shape1" transform="matrix(1.0, 0.0, 0.0, 1.0, 14.85, 76.6)">
      <path d="M14.3 -48.95 Q13.05 -38.75 8.8 -27.75 4.25 -15.9 -4.95 -0.05 L-14.85 -7.6 Q-13.25 -10.6 -10.55 -14.3 -7.7 -18.25 -6.3 -20.7 -3.65 -25.25 -1.1 -31.95 L3.9 -46.5 Q8.7 -60.85 13.4 -76.6 15.75 -61.0 14.3 -48.95" fill="url(#gradient2)" fill-rule="evenodd" stroke="none"/>
    </g>
    <linearGradient gradientTransform="matrix(0.0252, -0.0364, -0.0368, -0.0255, 4.25, -38.1)" gradientUnits="userSpaceOnUse" id="gradient2" spreadMethod="pad" x1="-819.2" x2="819.2">
      <stop offset="0.09019607843137255" stop-color="#4c3b2a"/>
      <stop offset="0.25882352941176473" stop-color="#625d38"/>
      <stop offset="0.43529411764705883" stop-color="#747843"/>
      <stop offset="0.6196078431372549" stop-color="#818b4b"/>
      <stop offset="0.803921568627451" stop-color="#899750"/>
      <stop offset="1.0" stop-color="#8c9b51"/>
    </linearGradient>
    <g id="morphshape2" transform="matrix(1.0, 0.0, 0.0, 1.0, 9.05, 74.7)">
      <path d="M-6.6 -44.0 L-6.6 -43.9 -6.6 -43.9 Q-10.05 -29.05 -5.15 0.0 L-4.85 -0.1 -4.15 -0.25 7.1 -3.15 7.1 -3.15 7.0 -3.4 7.0 -3.95 6.95 -4.95 6.95 -5.05 4.05 -19.0 3.95 -19.3 3.7 -20.6 Q2.05 -28.6 1.8 -34.8 1.7 -37.45 1.9 -39.75 L1.9 -39.75 Q2.55 -48.1 5.15 -57.9 L5.75 -60.25 Q7.45 -67.35 9.1 -74.4 L9.1 -74.5 9.1 -74.7 Q-3.2 -58.85 -6.6 -44.0" fill="url(#gradient3)" fill-rule="evenodd" stroke="none"/>
      <path d="M-6.6 -44.0 Q-3.2 -58.85 9.1 -74.7 L9.1 -74.5 9.1 -74.4 Q7.45 -67.35 5.75 -60.25 L5.15 -57.9 Q2.55 -48.1 1.9 -39.75 L1.9 -39.75 Q1.7 -37.45 1.8 -34.8 2.05 -28.6 3.7 -20.6 L3.95 -19.3 4.05 -19.0 6.95 -5.05 6.95 -4.95 7.0 -3.95 7.0 -3.4 7.1 -3.15 7.1 -3.15 -4.15 -0.25 -4.85 -0.1 -5.15 0.0 Q-10.05 -29.05 -6.6 -43.9 L-6.6 -43.9 -6.6 -44.0 Z" fill="none" stroke="#000000" stroke-linecap="round" stroke-linejoin="round" stroke-opacity="0.0" stroke-width="1.0"/>
    </g>
    <linearGradient gradientTransform="matrix(-0.0106, -0.0391, 0.0389, -0.0105, 2.15, -36.05)" gradientUnits="userSpaceOnUse" id="gradient3" spreadMethod="pad" x1="-819.2" x2="819.2">
      <stop offset="0.09019607843137255" stop-color="#4c3b2a"/>
      <stop offset="0.25882352941176473" stop-color="#625d38"/>
      <stop offset="0.43529411764705883" stop-color="#747843"/>
      <stop offset="0.6196078431372549" stop-color="#818b4b"/>
      <stop offset="0.803921568627451" stop-color="#899750"/>
      <stop offset="1.0" stop-color="#8c9b51"/>
    </linearGradient>
    <g id="morphshape3" transform="matrix(1.0, 0.0, 0.0, 1.0, 15.25, 33.3)">
      <path d="M-15.2 -2.05 L-6.65 -0.1 Q-5.75 -4.0 -4.75 -8.7 -3.65 -13.95 -2.25 -16.3 -0.3 -21.05 7.55 -26.75 11.6 -29.7 15.3 -31.85 2.05 -30.1 -4.5 -23.9 -11.3 -17.5 -15.25 -1.95" fill="url(#gradient4)" fill-rule="evenodd" stroke="none"/>
      <path d="M-15.25 -1.95 Q-11.3 -17.5 -4.5 -23.9 2.05 -30.1 15.3 -31.85 11.6 -29.7 7.55 -26.75 -0.3 -21.05 -2.25 -16.3 -3.65 -13.95 -4.75 -8.7 -5.75 -4.0 -6.65 -0.1 L-15.2 -2.05" fill="none" stroke="#000000" stroke-linecap="round" stroke-linejoin="round" stroke-opacity="0.0" stroke-width="1.0"/>
    </g>
    <linearGradient gradientTransform="matrix(0.0038, -0.0207, 0.0212, 0.0038, -0.05, -16.65)" gradientUnits="userSpaceOnUse" id="gradient4" spreadMethod="pad" x1="-819.2" x2="819.2">
      <stop offset="0.09019607843137255" stop-color="#4c3b2a"/>
      <stop offset="0.25882352941176473" stop-color="#625d38"/>
      <stop offset="0.43529411764705883" stop-color="#747843"/>
      <stop offset="0.6196078431372549" stop-color="#818b4b"/>
      <stop offset="0.803921568627451" stop-color="#899750"/>
      <stop offset="1.0" stop-color="#8c9b51"/>
    </linearGradient>
    <g id="shape2" transform="matrix(1.0, 0.0, 0.0, 1.0, 11.05, 47.7)">
      <path d="M11.0 -47.7 Q8.35 -43.1 5.6 -36.85 0.15 -24.3 -0.15 -15.8 L-0.3 -6.3 Q-0.3 -4.85 -1.25 0.0 L-11.05 -2.7 -8.5 -20.85 Q-7.35 -28.35 -5.85 -32.05 -4.05 -36.4 -0.3 -39.85 3.2 -43.05 11.0 -47.7" fill="url(#gradient5)" fill-rule="evenodd" stroke="none"/>
    </g>
    <linearGradient gradientTransform="matrix(0.0075, -0.0282, 0.0296, 0.0055, -1.8, -25.35)" gradientUnits="userSpaceOnUse" id="gradient5" spreadMethod="pad" x1="-819.2" x2="819.2">
      <stop offset="0.09019607843137255" stop-color="#4c3b2a"/>
      <stop offset="0.25882352941176473" stop-color="#625d38"/>
      <stop offset="0.43529411764705883" stop-color="#747843"/>
      <stop offset="0.6196078431372549" stop-color="#818b4b"/>
      <stop offset="0.803921568627451" stop-color="#899750"/>
      <stop offset="1.0" stop-color="#8c9b51"/>
    </linearGradient>
    <g id="morphshape4" transform="matrix(1.0, 0.0, 0.0, 1.0, 9.55, 74.7)">
      <path d="M-7.35 -44.3 Q-10.8 -29.2 -5.3 -0.3 L-4.8 -0.15 6.75 -3.1 6.75 -3.1 6.95 -3.65 6.9 -4.3 6.85 -4.75 Q6.05 -8.35 3.65 -18.8 L3.45 -19.7 Q1.15 -29.35 1.15 -35.75 1.1 -37.6 1.15 -39.3 1.6 -47.3 4.5 -57.35 L5.2 -59.6 Q7.3 -67.25 9.35 -74.1 L9.35 -74.1 Q-3.85 -59.2 -7.25 -44.25" fill="url(#gradient6)" fill-rule="evenodd" stroke="none"/>
      <path d="M-7.25 -44.25 Q-3.85 -59.2 9.35 -74.1 L9.35 -74.1 Q7.3 -67.25 5.2 -59.6 L4.5 -57.35 Q1.6 -47.3 1.15 -39.3 1.1 -37.6 1.15 -35.75 1.15 -29.35 3.45 -19.7 L3.65 -18.8 Q6.05 -8.35 6.85 -4.75 L6.9 -4.3 6.95 -3.65 6.75 -3.1 6.75 -3.1 -4.8 -0.15 -5.3 -0.3 Q-10.8 -29.2 -7.35 -44.3" fill="none" stroke="#000000" stroke-linecap="round" stroke-linejoin="round" stroke-opacity="0.0" stroke-width="1.0"/>
    </g>
    <linearGradient gradientTransform="matrix(-0.0106, -0.0392, 0.0389, -0.0105, 2.25, -36.1)" gradientUnits="userSpaceOnUse" id="gradient6" spreadMethod="pad" x1="-819.2" x2="819.2">
      <stop offset="0.09019607843137255" stop-color="#4c3b2a"/>
      <stop offset="0.25882352941176473" stop-color="#625d38"/>
      <stop offset="0.43529411764705883" stop-color="#747843"/>
      <stop offset="0.6196078431372549" stop-color="#818b4b"/>
      <stop offset="0.803921568627451" stop-color="#899750"/>
      <stop offset="1.0" stop-color="#8c9b51"/>
    </linearGradient>
    <g id="shape3" transform="matrix(1.0, 0.0, 0.0, 1.0, 10.5, 50.0)">
      <path d="M6.5 -38.7 Q2.45 -26.1 2.15 -19.45 1.85 -13.15 3.0 -8.55 L4.75 -0.8 -9.85 0.0 Q-12.25 -15.75 -5.5 -28.35 -2.95 -33.15 1.8 -39.2 L10.5 -50.0 6.5 -38.7" fill="url(#gradient7)" fill-rule="evenodd" stroke="none"/>
    </g>
    <linearGradient gradientTransform="matrix(-0.004, -0.0287, 0.0287, -0.0047, 0.45, -24.3)" gradientUnits="userSpaceOnUse" id="gradient7" spreadMethod="pad" x1="-819.2" x2="819.2">
      <stop offset="0.09019607843137255" stop-color="#4c3b2a"/>
      <stop offset="0.25882352941176473" stop-color="#625d38"/>
      <stop offset="0.43529411764705883" stop-color="#747843"/>
      <stop offset="0.6196078431372549" stop-color="#818b4b"/>
      <stop offset="0.803921568627451" stop-color="#899750"/>
      <stop offset="1.0" stop-color="#8c9b51"/>
    </linearGradient>
    <g id="morphshape5" transform="matrix(1.0, 0.0, 0.0, 1.0, 12.65, 65.6)">
      <path d="M-11.85 0.0 L5.75 -1.1 Q5.8 -2.8 4.7 -11.15 3.85 -18.2 5.2 -26.8 6.55 -35.55 9.75 -49.6 11.7 -59.5 11.7 -65.6 9.5 -60.3 4.1 -51.35 -0.85 -42.85 -5.75 -34.35 -13.35 -20.5 -11.85 0.0" fill="url(#gradient8)" fill-rule="evenodd" stroke="none"/>
      <path d="M-11.85 0.0 Q-13.35 -20.5 -5.75 -34.35 -0.85 -42.85 4.1 -51.35 9.5 -60.3 11.7 -65.6 11.7 -59.5 9.75 -49.6 6.55 -35.55 5.2 -26.8 3.85 -18.2 4.7 -11.15 5.8 -2.8 5.75 -1.1 L-11.85 0.0 Z" fill="none" stroke="#000000" stroke-linecap="round" stroke-linejoin="round" stroke-opacity="0.0" stroke-width="1.0"/>
    </g>
    <linearGradient gradientTransform="matrix(-0.0061, -0.0374, 0.0376, -0.0062, -0.35, -31.7)" gradientUnits="userSpaceOnUse" id="gradient8" spreadMethod="pad" x1="-819.2" x2="819.2">
      <stop offset="0.09019607843137255" stop-color="#4c3b2a"/>
      <stop offset="0.25882352941176473" stop-color="#625d38"/>
      <stop offset="0.43529411764705883" stop-color="#747843"/>
      <stop offset="0.6196078431372549" stop-color="#818b4b"/>
      <stop offset="0.803921568627451" stop-color="#899750"/>
      <stop offset="1.0" stop-color="#8c9b51"/>
    </linearGradient>
    <g id="morphshape6" transform="matrix(1.0, 0.0, 0.0, 1.0, 10.9, 57.7)">
      <path d="M-10.55 0.0 L5.15 -0.95 4.15 -10.0 Q3.3 -17.75 4.35 -25.45 5.35 -33.2 9.5 -42.8 13.6 -52.4 13.1 -57.45 11.2 -52.8 5.1 -45.65 -1.05 -38.5 -6.1 -28.6 -11.2 -18.75 -10.55 0.0" fill="url(#gradient9)" fill-rule="evenodd" stroke="none"/>
      <path d="M-10.55 0.0 Q-11.2 -18.75 -6.1 -28.6 -1.05 -38.5 5.1 -45.65 11.2 -52.8 13.1 -57.45 13.6 -52.4 9.5 -42.8 5.35 -33.2 4.35 -25.45 3.3 -17.75 4.15 -10.0 L5.15 -0.95 -10.55 0.0 Z" fill="none" stroke="#000000" stroke-linecap="round" stroke-linejoin="round" stroke-opacity="0.0" stroke-width="1.0"/>
    </g>
    <linearGradient gradientTransform="matrix(-0.0054, -0.0333, 0.0333, -0.0055, 2.25, -28.5)" gradientUnits="userSpaceOnUse" id="gradient9" spreadMethod="pad" x1="-819.2" x2="819.2">
      <stop offset="0.09019607843137255" stop-color="#4c3b2a"/>
      <stop offset="0.25882352941176473" stop-color="#625d38"/>
      <stop offset="0.43529411764705883" stop-color="#747843"/>
      <stop offset="0.6196078431372549" stop-color="#818b4b"/>
      <stop offset="0.803921568627451" stop-color="#899750"/>
      <stop offset="1.0" stop-color="#8c9b51"/>
    </linearGradient>
  </defs>
</svg>
