<?xml version="1.0" encoding="UTF-8" standalone="no"?>
<svg xmlns:xlink="http://www.w3.org/1999/xlink" height="106.1px" width="125.95px" xmlns="http://www.w3.org/2000/svg">
  <g transform="matrix(1.0, 0.0, 0.0, 1.0, 0.0, 0.0)">
    <use height="41.1" transform="matrix(1.0, 0.0, 0.0, 1.0, 0.0, 65.0)" width="118.2" xlink:href="#shape0"/>
    <use height="75.7" transform="matrix(1.0, 0.0096, 0.0, 0.8507, 80.0, 12.8684)" width="34.3" xlink:href="#morphshape0"/>
    <use height="76.55" transform="matrix(1.0, 0.0, 0.0, 1.0, 40.95, 0.0)" width="29.7" xlink:href="#shape1"/>
    <use height="76.55" transform="matrix(1.0, 0.0, 0.0, 1.0, 22.25, 3.8)" width="29.7" xlink:href="#shape1"/>
    <use height="73.5" transform="matrix(1.2341, 0.0763, -0.2136, 0.9937, 70.1459, 8.6456)" width="20.2" xlink:href="#morphshape1"/>
    <use height="35.1" transform="matrix(1.0, 0.0, 0.0, 1.0, 95.3, 43.95)" width="30.65" xlink:href="#morphshape2"/>
    <use height="47.7" transform="matrix(1.0, 0.0, 0.0, 1.0, 10.6, 37.55)" width="22.05" xlink:href="#shape2"/>
    <use height="74.7" transform="matrix(1.0, 0.0, 0.0, 1.0, 79.45, 18.55)" width="18.65" xlink:href="#morphshape3"/>
    <use height="50.0" transform="matrix(1.0, 0.0, 0.0, 1.0, 24.85, 43.3)" width="21.0" xlink:href="#shape3"/>
    <use height="65.55" transform="matrix(1.0, 0.0, 0.0, 1.0, 40.3, 28.65)" width="25.25" xlink:href="#shape4"/>
    <use height="57.95" transform="matrix(1.0, 0.0, 0.0, 1.0, 55.05, 39.25)" width="23.45" xlink:href="#morphshape4"/>
  </g>
  <defs>
    <g id="shape0" transform="matrix(1.0, 0.0, 0.0, 1.0, 59.1, 20.55)">
      <path d="M-24.55 -20.55 Q-10.25 -20.55 -0.15 -16.05 10.0 -11.6 10.0 -5.25 10.0 1.1 -0.15 5.55 -10.25 10.0 -24.55 10.0 -38.85 10.0 -48.95 5.55 -59.1 1.1 -59.1 -5.25 -59.1 -11.6 -48.95 -16.05 -38.85 -20.55 -24.55 -20.55" fill="#4c3b2a" fill-rule="evenodd" stroke="none"/>
      <path d="M59.1 -3.6 Q59.1 2.75 48.95 7.2 38.85 11.7 24.55 11.7 10.25 11.7 0.1 7.2 -10.0 2.75 -10.0 -3.6 -10.0 -9.9 0.1 -14.35 10.25 -18.85 24.55 -18.85 38.85 -18.85 48.95 -14.35 59.1 -9.9 59.1 -3.6" fill="#4c3b2a" fill-rule="evenodd" stroke="none"/>
      <path d="M-2.3 -9.95 Q12.05 -9.95 22.15 -5.5 32.25 -1.05 32.25 5.3 32.25 11.65 22.15 16.1 12.05 20.55 -2.3 20.55 -16.6 20.55 -26.7 16.1 -36.8 11.65 -36.8 5.3 -36.8 -1.05 -26.7 -5.5 -16.6 -9.95 -2.3 -9.95" fill="#4c3b2a" fill-rule="evenodd" stroke="none"/>
    </g>
    <g id="morphshape0" transform="matrix(1.0, 0.0, 0.0, 1.0, 14.85, 75.75)">
      <path d="M-14.85 -7.5 L-4.95 0.05 Q1.65 -17.85 8.45 -29.05 15.2 -40.3 16.25 -55.75 17.25 -71.3 19.35 -75.45 17.4 -74.5 4.45 -46.1 L-2.35 -33.7 -7.2 -24.25 -11.45 -15.6 Q-13.85 -10.9 -14.85 -7.6" fill="url(#gradient0)" fill-rule="evenodd" stroke="none"/>
      <path d="M-14.85 -7.6 Q-13.85 -10.9 -11.45 -15.6 L-7.2 -24.25 -2.35 -33.7 4.45 -46.1 Q17.4 -74.5 19.35 -75.45 17.25 -71.3 16.25 -55.75 15.2 -40.3 8.45 -29.05 1.65 -17.85 -4.95 0.05 L-14.85 -7.5" fill="none" stroke="#000000" stroke-linecap="round" stroke-linejoin="round" stroke-opacity="0.0" stroke-width="1.0"/>
    </g>
    <linearGradient gradientTransform="matrix(0.0253, -0.0367, -0.0368, -0.0255, 4.25, -38.1)" gradientUnits="userSpaceOnUse" id="gradient0" spreadMethod="pad" x1="-819.2" x2="819.2">
      <stop offset="0.09019607843137255" stop-color="#4c3b2a"/>
      <stop offset="0.25882352941176473" stop-color="#625d38"/>
      <stop offset="0.43529411764705883" stop-color="#747843"/>
      <stop offset="0.6196078431372549" stop-color="#818b4b"/>
      <stop offset="0.803921568627451" stop-color="#899750"/>
      <stop offset="1.0" stop-color="#8c9b51"/>
    </linearGradient>
    <g id="shape1" transform="matrix(1.0, 0.0, 0.0, 1.0, 14.85, 76.6)">
      <path d="M14.3 -48.95 Q13.05 -38.75 8.8 -27.75 4.25 -15.9 -4.95 -0.05 L-14.85 -7.6 Q-13.25 -10.6 -10.55 -14.3 -7.7 -18.25 -6.3 -20.7 -3.65 -25.25 -1.1 -31.95 L3.9 -46.5 Q8.7 -60.85 13.4 -76.6 15.75 -61.0 14.3 -48.95" fill="url(#gradient1)" fill-rule="evenodd" stroke="none"/>
    </g>
    <linearGradient gradientTransform="matrix(0.0252, -0.0364, -0.0368, -0.0255, 4.25, -38.1)" gradientUnits="userSpaceOnUse" id="gradient1" spreadMethod="pad" x1="-819.2" x2="819.2">
      <stop offset="0.09019607843137255" stop-color="#4c3b2a"/>
      <stop offset="0.25882352941176473" stop-color="#625d38"/>
      <stop offset="0.43529411764705883" stop-color="#747843"/>
      <stop offset="0.6196078431372549" stop-color="#818b4b"/>
      <stop offset="0.803921568627451" stop-color="#899750"/>
      <stop offset="1.0" stop-color="#8c9b51"/>
    </linearGradient>
    <g id="morphshape1" transform="matrix(1.0, 0.0, 0.0, 1.0, 10.05, 73.5)">
      <path d="M-8.55 -44.75 L-8.55 -44.7 -8.55 -44.65 Q-12.0 -29.0 -5.2 -0.5 L-5.0 0.0 -4.9 0.0 6.6 -3.0 7.05 -3.2 7.1 -3.25 6.9 -4.2 3.15 -18.1 2.8 -19.25 2.8 -19.3 Q0.15 -28.6 0.05 -33.55 L0.05 -33.6 Q-0.2 -35.85 -0.1 -38.3 0.2 -45.95 3.55 -56.25 L4.35 -58.8 4.45 -59.0 Q7.15 -66.6 9.9 -72.45 L9.85 -72.5 9.9 -72.7 Q-5.3 -59.9 -8.65 -44.75" fill="url(#gradient2)" fill-rule="evenodd" stroke="none"/>
      <path d="M-8.65 -44.75 Q-5.3 -59.9 9.9 -72.7 L9.85 -72.5 9.9 -72.45 Q7.15 -66.6 4.45 -59.0 L4.35 -58.8 3.55 -56.25 Q0.2 -45.95 -0.1 -38.3 -0.2 -35.85 0.05 -33.6 L0.05 -33.55 Q0.15 -28.6 2.8 -19.3 L2.8 -19.25 3.15 -18.1 6.9 -4.2 7.1 -3.25 7.05 -3.2 6.6 -3.0 -4.9 0.0 -5.0 0.0 -5.2 -0.5 Q-12.0 -29.0 -8.55 -44.65 L-8.55 -44.7 -8.55 -44.75" fill="none" stroke="#000000" stroke-linecap="round" stroke-linejoin="round" stroke-opacity="0.0" stroke-width="1.0"/>
    </g>
    <linearGradient gradientTransform="matrix(-0.0105, -0.039, 0.0389, -0.0105, 2.5, -36.15)" gradientUnits="userSpaceOnUse" id="gradient2" spreadMethod="pad" x1="-819.2" x2="819.2">
      <stop offset="0.09019607843137255" stop-color="#4c3b2a"/>
      <stop offset="0.25882352941176473" stop-color="#625d38"/>
      <stop offset="0.43529411764705883" stop-color="#747843"/>
      <stop offset="0.6196078431372549" stop-color="#818b4b"/>
      <stop offset="0.803921568627451" stop-color="#899750"/>
      <stop offset="1.0" stop-color="#8c9b51"/>
    </linearGradient>
    <g id="morphshape2" transform="matrix(1.0, 0.0, 0.0, 1.0, 15.25, 35.1)">
      <path d="M-15.0 -2.0 L-6.45 -0.05 Q-5.65 -1.15 -3.95 -7.2 -2.3 -13.15 0.2 -16.95 2.65 -20.85 7.0 -25.55 L15.4 -35.2 Q3.85 -29.25 -2.8 -23.2 -9.55 -17.15 -15.25 -1.95" fill="url(#gradient3)" fill-rule="evenodd" stroke="none"/>
      <path d="M-15.25 -1.95 Q-9.55 -17.15 -2.8 -23.2 3.85 -29.25 15.4 -35.2 L7.0 -25.55 Q2.65 -20.85 0.2 -16.95 -2.3 -13.15 -3.95 -7.2 -5.65 -1.15 -6.45 -0.05 L-15.0 -2.0" fill="none" stroke="#000000" stroke-linecap="round" stroke-linejoin="round" stroke-opacity="0.0" stroke-width="1.0"/>
    </g>
    <linearGradient gradientTransform="matrix(0.0057, -0.0213, 0.0208, 0.0056, -0.6, -16.75)" gradientUnits="userSpaceOnUse" id="gradient3" spreadMethod="pad" x1="-819.2" x2="819.2">
      <stop offset="0.09019607843137255" stop-color="#4c3b2a"/>
      <stop offset="0.25882352941176473" stop-color="#625d38"/>
      <stop offset="0.43529411764705883" stop-color="#747843"/>
      <stop offset="0.6196078431372549" stop-color="#818b4b"/>
      <stop offset="0.803921568627451" stop-color="#899750"/>
      <stop offset="1.0" stop-color="#8c9b51"/>
    </linearGradient>
    <g id="shape2" transform="matrix(1.0, 0.0, 0.0, 1.0, 11.05, 47.7)">
      <path d="M11.0 -47.7 Q8.35 -43.1 5.6 -36.85 0.15 -24.3 -0.15 -15.8 L-0.3 -6.3 Q-0.3 -4.85 -1.25 0.0 L-11.05 -2.7 -8.5 -20.85 Q-7.35 -28.35 -5.85 -32.05 -4.05 -36.4 -0.3 -39.85 3.2 -43.05 11.0 -47.7" fill="url(#gradient4)" fill-rule="evenodd" stroke="none"/>
    </g>
    <linearGradient gradientTransform="matrix(0.0075, -0.0282, 0.0296, 0.0055, -1.8, -25.35)" gradientUnits="userSpaceOnUse" id="gradient4" spreadMethod="pad" x1="-819.2" x2="819.2">
      <stop offset="0.09019607843137255" stop-color="#4c3b2a"/>
      <stop offset="0.25882352941176473" stop-color="#625d38"/>
      <stop offset="0.43529411764705883" stop-color="#747843"/>
      <stop offset="0.6196078431372549" stop-color="#818b4b"/>
      <stop offset="0.803921568627451" stop-color="#899750"/>
      <stop offset="1.0" stop-color="#8c9b51"/>
    </linearGradient>
    <g id="morphshape3" transform="matrix(1.0, 0.0, 0.0, 1.0, 9.05, 74.7)">
      <path d="M-7.8 -44.15 L-7.8 -44.1 -7.8 -44.1 Q-11.25 -29.0 -5.5 -0.4 L-5.35 -0.15 -4.8 0.1 6.45 -2.8 6.45 -2.8 6.6 -2.9 6.9 -3.45 6.8 -4.35 6.8 -4.45 3.5 -18.3 3.45 -18.45 3.15 -19.75 Q1.0 -28.45 0.8 -34.1 0.65 -36.55 0.8 -38.9 L0.8 -38.95 Q1.3 -46.9 4.3 -57.0 L5.05 -59.6 Q7.4 -67.4 9.5 -73.45 L9.5 -73.55 9.45 -73.5 Q-4.2 -59.3 -7.6 -44.4" fill="url(#gradient5)" fill-rule="evenodd" stroke="none"/>
      <path d="M-7.6 -44.4 Q-4.2 -59.3 9.45 -73.5 L9.5 -73.55 9.5 -73.45 Q7.4 -67.4 5.05 -59.6 L4.3 -57.0 Q1.3 -46.9 0.8 -38.95 L0.8 -38.9 Q0.65 -36.55 0.8 -34.1 1.0 -28.45 3.15 -19.75 L3.45 -18.45 3.5 -18.3 6.8 -4.45 6.8 -4.35 6.9 -3.45 6.6 -2.9 6.45 -2.8 6.45 -2.8 -4.8 0.1 -5.35 -0.15 -5.5 -0.4 Q-11.25 -29.0 -7.8 -44.1 L-7.8 -44.1 -7.8 -44.15" fill="none" stroke="#000000" stroke-linecap="round" stroke-linejoin="round" stroke-opacity="0.0" stroke-width="1.0"/>
    </g>
    <linearGradient gradientTransform="matrix(-0.0106, -0.0393, 0.0389, -0.0105, 2.25, -36.05)" gradientUnits="userSpaceOnUse" id="gradient5" spreadMethod="pad" x1="-819.2" x2="819.2">
      <stop offset="0.09019607843137255" stop-color="#4c3b2a"/>
      <stop offset="0.25882352941176473" stop-color="#625d38"/>
      <stop offset="0.43529411764705883" stop-color="#747843"/>
      <stop offset="0.6196078431372549" stop-color="#818b4b"/>
      <stop offset="0.803921568627451" stop-color="#899750"/>
      <stop offset="1.0" stop-color="#8c9b51"/>
    </linearGradient>
    <g id="shape3" transform="matrix(1.0, 0.0, 0.0, 1.0, 10.5, 50.0)">
      <path d="M6.5 -38.7 Q2.45 -26.1 2.15 -19.45 1.85 -13.15 3.0 -8.55 L4.75 -0.8 -9.85 0.0 Q-12.25 -15.75 -5.5 -28.35 -2.95 -33.15 1.8 -39.2 L10.5 -50.0 6.5 -38.7" fill="url(#gradient6)" fill-rule="evenodd" stroke="none"/>
    </g>
    <linearGradient gradientTransform="matrix(-0.004, -0.0287, 0.0287, -0.0047, 0.45, -24.3)" gradientUnits="userSpaceOnUse" id="gradient6" spreadMethod="pad" x1="-819.2" x2="819.2">
      <stop offset="0.09019607843137255" stop-color="#4c3b2a"/>
      <stop offset="0.25882352941176473" stop-color="#625d38"/>
      <stop offset="0.43529411764705883" stop-color="#747843"/>
      <stop offset="0.6196078431372549" stop-color="#818b4b"/>
      <stop offset="0.803921568627451" stop-color="#899750"/>
      <stop offset="1.0" stop-color="#8c9b51"/>
    </linearGradient>
    <g id="shape4" transform="matrix(1.0, 0.0, 0.0, 1.0, 12.65, 65.55)">
      <path d="M2.1 -51.45 L12.6 -65.55 Q10.25 -59.05 7.8 -50.75 2.95 -34.25 2.6 -25.5 2.25 -17.2 3.65 -11.2 5.6 -2.7 5.75 -1.1 L-11.85 0.0 Q-14.8 -20.65 -6.65 -37.25 -3.6 -43.5 2.1 -51.45" fill="url(#gradient7)" fill-rule="evenodd" stroke="none"/>
    </g>
    <linearGradient gradientTransform="matrix(-0.0069, -0.0376, 0.0375, -0.0069, 0.45, -31.9)" gradientUnits="userSpaceOnUse" id="gradient7" spreadMethod="pad" x1="-819.2" x2="819.2">
      <stop offset="0.09019607843137255" stop-color="#4c3b2a"/>
      <stop offset="0.25882352941176473" stop-color="#625d38"/>
      <stop offset="0.43529411764705883" stop-color="#747843"/>
      <stop offset="0.6196078431372549" stop-color="#818b4b"/>
      <stop offset="0.803921568627451" stop-color="#899750"/>
      <stop offset="1.0" stop-color="#8c9b51"/>
    </linearGradient>
    <g id="morphshape4" transform="matrix(1.0, 0.0, 0.0, 1.0, 11.25, 57.95)">
      <path d="M-10.55 -0.05 L5.15 -1.0 3.4 -10.0 Q2.2 -15.6 2.6 -22.95 3.05 -30.7 7.35 -44.65 9.75 -52.3 11.5 -57.95 7.35 -52.15 2.3 -45.55 -2.95 -38.5 -6.0 -32.4 -12.95 -18.35 -10.55 0.0" fill="url(#gradient8)" fill-rule="evenodd" stroke="none"/>
      <path d="M-10.55 0.0 Q-12.95 -18.35 -6.0 -32.4 -2.95 -38.5 2.3 -45.55 7.35 -52.15 11.5 -57.95 9.75 -52.3 7.35 -44.65 3.05 -30.7 2.6 -22.95 2.2 -15.6 3.4 -10.0 L5.15 -1.0 -10.55 -0.05" fill="none" stroke="#000000" stroke-linecap="round" stroke-linejoin="round" stroke-opacity="0.0" stroke-width="1.0"/>
    </g>
    <linearGradient gradientTransform="matrix(-0.0052, -0.0337, 0.0333, -0.0052, 0.75, -28.25)" gradientUnits="userSpaceOnUse" id="gradient8" spreadMethod="pad" x1="-819.2" x2="819.2">
      <stop offset="0.09019607843137255" stop-color="#4c3b2a"/>
      <stop offset="0.25882352941176473" stop-color="#625d38"/>
      <stop offset="0.43529411764705883" stop-color="#747843"/>
      <stop offset="0.6196078431372549" stop-color="#818b4b"/>
      <stop offset="0.803921568627451" stop-color="#899750"/>
      <stop offset="1.0" stop-color="#8c9b51"/>
    </linearGradient>
  </defs>
</svg>
