<?xml version="1.0" encoding="UTF-8" standalone="no"?>
<svg xmlns:xlink="http://www.w3.org/1999/xlink" height="400.0px" width="190.0px" xmlns="http://www.w3.org/2000/svg">
  <g transform="matrix(1.0, 0.0, 0.0, 1.0, 0.0, 0.0)">
    <use height="14.25" transform="matrix(0.641, -0.2867, 0.2866, 0.641, 94.1721, 187.6741)" width="11.85" xlink:href="#sprite0"/>
  </g>
  <defs>
    <g id="sprite0" transform="matrix(1.0, 0.0, 0.0, 1.0, 2.45, 0.2)">
      <use height="13.85" transform="matrix(1.0, 0.0, 0.0, 1.0, 0.0, 0.0)" width="7.0" xlink:href="#shape0"/>
    </g>
    <g id="shape0" transform="matrix(1.0, 0.0, 0.0, 1.0, 0.0, 0.0)">
      <path d="M5.3 0.05 Q6.55 0.4 6.9 2.6 7.2 4.85 6.45 7.7 5.65 10.55 4.25 12.35 2.9 14.15 1.65 13.8 0.45 13.5 0.1 11.25 -0.2 9.0 0.6 6.15 1.35 3.3 2.75 1.5 4.1 -0.25 5.3 0.05" fill="#ffffff" fill-opacity="0.0" fill-rule="evenodd" stroke="none"/>
    </g>
  </defs>
</svg>
