<?xml version="1.0" encoding="UTF-8" standalone="no"?>
<svg xmlns:xlink="http://www.w3.org/1999/xlink" height="136.6px" width="155.7px" xmlns="http://www.w3.org/2000/svg">
  <g transform="matrix(1.0, 0.0, 0.0, 1.0, 0.0, 0.0)">
    <use height="54.4" transform="matrix(1.0, 0.0, 0.0, 1.0, 0.0, 81.95)" width="155.2" xlink:href="#shape0"/>
  </g>
  <defs>
    <g id="shape0" transform="matrix(1.0, 0.0, 0.0, 1.0, 0.0, -81.95)">
      <path d="M83.0 93.05 Q83.6 92.35 83.3 91.1 L87.4 90.95 87.7 91.15 87.9 91.3 Q90.05 92.75 91.4 93.0 L92.15 93.1 92.15 93.15 94.3 96.3 95.75 98.65 Q92.6 97.3 85.05 94.85 85.35 96.25 86.7 96.9 L88.15 97.85 91.45 98.8 92.8 99.05 92.2 98.95 90.65 99.0 89.15 99.25 Q89.25 99.95 88.75 100.9 88.25 101.85 88.3 102.45 88.6 104.5 91.05 103.2 L93.35 101.55 95.55 99.5 95.85 99.55 96.4 99.6 96.35 99.3 101.5 100.4 Q103.95 100.45 104.3 97.4 L105.45 97.35 106.55 97.25 106.85 97.7 Q107.3 98.45 107.85 98.7 L110.2 99.0 110.85 99.05 111.15 99.1 Q111.9 99.2 112.3 99.6 L109.35 99.9 Q107.65 100.4 107.05 101.55 L107.85 101.8 Q106.0 102.35 104.95 103.3 L105.3 103.9 104.25 104.2 103.7 103.65 101.75 103.55 100.8 105.0 Q100.2 106.2 100.1 106.9 L100.15 108.95 103.0 109.2 Q102.25 109.55 101.95 110.0 L101.65 111.0 101.65 112.0 Q101.45 112.75 101.55 114.0 L101.65 114.0 101.65 115.0 101.55 114.1 101.5 114.0 Q101.15 112.1 99.5 109.2 97.6 105.8 97.15 104.5 97.25 101.9 96.7 100.45 L96.65 100.3 96.55 100.1 Q94.35 102.5 94.55 108.5 93.45 111.6 93.6 113.6 L93.9 115.55 94.6 117.3 Q95.25 118.05 96.6 118.15 96.3 120.4 94.6 121.55 94.15 121.85 91.35 123.15 89.3 124.05 88.35 125.3 L87.55 126.75 86.6 128.0 Q85.6 128.6 83.35 128.65 L79.15 128.15 76.5 125.65 Q76.4 124.75 77.2 123.85 L78.65 122.05 78.8 121.6 80.6 120.65 Q81.1 120.05 81.85 118.05 L82.7 115.3 Q82.9 113.85 82.3 111.35 L81.6 107.35 Q85.0 108.0 86.3 105.65 87.15 104.15 87.5 100.15 85.65 102.85 84.1 103.95 81.8 105.65 79.45 104.75 L80.8 108.3 Q81.6 110.35 81.4 112.0 81.25 113.1 80.9 113.45 L79.85 114.4 78.75 115.5 Q78.45 115.9 78.4 116.6 L77.25 117.3 78.4 117.4 77.25 117.45 74.15 118.0 73.75 118.0 69.65 118.7 Q67.25 118.7 65.9 117.35 67.25 118.65 69.65 118.65 L73.75 117.9 69.8 118.35 Q67.7 118.35 66.6 117.0 L65.45 115.15 64.3 113.15 64.25 112.35 63.9 112.5 63.95 111.1 63.5 112.15 63.4 112.3 62.05 114.3 Q61.55 115.3 62.0 116.8 L62.0 117.3 Q62.05 117.85 62.8 119.7 63.6 121.7 64.0 121.95 L64.85 122.25 66.05 124.6 70.9 124.45 Q70.7 127.75 67.55 128.9 64.8 129.9 61.55 128.85 58.6 127.85 59.25 124.95 L60.3 119.65 Q60.1 118.55 59.4 117.65 L57.95 116.0 57.8 115.75 57.9 112.95 57.65 111.35 57.6 111.0 57.55 110.5 57.55 110.2 57.65 109.75 Q57.9 109.15 58.85 108.45 L59.4 108.1 59.5 108.0 59.65 107.85 60.2 107.4 Q61.2 106.3 61.3 105.15 L62.4 104.45 62.45 104.4 Q63.95 104.75 65.55 103.6 L65.9 105.05 Q65.9 106.25 66.05 106.65 L67.5 104.6 Q68.25 103.1 68.15 102.25 L70.1 102.35 71.9 102.25 72.75 101.85 73.35 101.45 75.4 100.15 72.75 100.85 72.4 100.5 Q71.4 101.05 68.75 101.05 L68.1 101.05 68.2 100.75 68.5 99.25 68.35 99.25 68.5 99.0 68.6 97.85 73.65 95.1 73.7 95.1 76.95 94.7 Q78.4 95.0 77.15 97.1 78.0 97.2 79.55 96.25 L81.95 94.9 Q83.3 94.4 84.95 94.25 84.9 93.9 84.25 93.7 L84.2 93.65 Q83.85 93.25 83.0 93.05 M71.7 87.5 Q73.25 88.65 75.35 88.9 L69.0 89.35 Q69.2 94.7 65.4 93.85 L61.9 92.75 Q59.65 92.1 58.35 92.35 59.25 91.9 62.35 91.35 65.2 90.9 65.9 90.35 66.6 89.75 66.6 87.4 66.6 85.5 68.25 85.5 L68.3 84.95 68.45 84.95 68.8 84.8 69.15 85.15 70.05 86.05 71.7 87.5 M58.05 87.2 Q57.6 87.75 57.6 88.25 L54.65 88.8 Q52.95 89.15 52.65 87.7 L55.6 86.85 Q57.5 86.0 56.55 84.7 L58.1 84.75 59.55 84.45 59.8 84.5 59.95 85.0 Q58.6 85.3 57.7 87.5 L58.05 87.2 M41.55 85.65 L41.65 85.65 42.6 86.25 41.3 86.35 41.35 85.95 41.55 85.65 M47.8 90.5 Q50.0 89.45 51.8 88.95 51.7 89.65 49.7 91.6 47.9 93.3 48.25 94.05 L47.0 93.2 Q46.85 92.7 46.95 91.95 47.05 91.35 47.8 90.5 M48.85 94.6 L49.25 94.75 Q50.25 95.05 53.05 93.85 L57.0 93.65 Q54.65 94.55 54.35 94.8 53.35 95.55 53.15 97.7 L58.5 98.15 63.85 97.35 Q63.55 97.7 63.4 98.3 L63.1 99.2 Q64.4 99.2 65.15 100.4 L66.8 99.7 66.35 100.15 66.2 100.5 65.15 101.85 64.55 102.3 64.4 102.45 Q63.7 103.15 62.55 103.25 61.75 104.3 60.3 104.3 59.05 104.3 58.25 103.5 57.5 102.8 57.4 101.7 L55.45 99.7 52.0 99.25 Q51.85 97.2 48.85 94.6 M111.65 96.55 L112.85 96.75 113.7 96.8 112.6 97.55 111.65 96.55 M115.45 96.5 L115.75 96.35 115.7 96.5 115.2 96.55 115.45 96.5 M85.9 131.9 L83.7 132.15 84.45 132.05 85.9 131.9 M51.25 126.9 Q50.0 126.25 47.6 125.95 49.7 126.15 50.8 126.65 L51.25 126.9 M8.55 114.25 L9.0 113.55 Q9.7 112.25 9.45 110.75 L9.6 109.2 9.65 109.25 10.1 109.5 10.9 108.45 11.45 107.6 Q11.85 107.15 12.4 106.8 L12.5 106.75 13.05 106.45 13.5 106.2 13.8 106.05 14.05 105.95 15.25 105.2 18.15 103.4 21.35 103.05 Q19.3 105.5 16.35 105.35 16.65 107.3 15.6 108.3 L13.35 110.65 12.7 112.15 12.15 113.3 11.65 113.7 10.95 114.0 9.5 114.25 8.55 114.25 M12.25 104.55 L11.4 104.65 11.15 104.7 10.05 105.2 10.05 105.15 Q10.35 103.0 11.0 100.5 L12.0 97.1 12.8 96.3 13.35 96.1 15.3 95.8 15.3 95.9 15.9 98.65 Q15.8 96.85 16.35 96.1 L16.75 95.75 17.0 95.7 20.55 95.5 20.9 95.55 20.95 95.55 21.6 95.7 22.95 96.15 24.15 96.65 24.35 96.75 24.6 96.9 23.15 100.1 23.05 100.15 22.9 100.15 22.85 100.2 22.9 100.25 21.6 100.75 21.55 100.8 21.5 100.75 21.3 100.85 20.55 100.9 19.25 101.0 19.15 100.95 Q17.25 101.05 16.4 101.7 L16.25 101.85 15.95 102.05 16.0 102.1 15.45 102.65 15.2 103.0 15.1 103.1 14.85 103.4 13.65 104.3 13.25 104.4 12.25 104.55 M14.3 93.25 L14.4 93.4 13.2 93.35 13.2 93.3 14.3 93.25 M25.45 93.25 L25.8 93.1 28.55 92.95 Q28.3 93.3 28.3 93.6 L28.25 93.6 Q28.15 93.95 28.45 94.15 L28.55 94.25 28.15 94.25 Q26.85 94.1 25.5 93.25 L25.45 93.25 M24.65 96.95 L24.8 97.1 24.85 97.15 25.0 97.55 25.0 97.65 24.65 98.85 24.65 96.95 M31.4 97.05 L31.6 96.1 31.85 97.55 31.4 97.45 31.4 97.3 31.45 97.2 31.4 97.05 M32.25 97.65 L31.9 97.6 34.2 95.95 Q35.15 95.45 37.1 95.5 L39.45 95.75 41.6 96.2 37.1 93.45 37.35 93.45 37.4 93.45 40.45 94.9 Q43.0 96.2 43.8 97.8 L43.55 98.65 43.65 98.25 41.75 99.35 39.65 99.2 Q37.6 98.35 36.55 98.1 L35.7 97.8 34.1 98.05 33.7 98.15 33.35 98.0 32.5 97.75 32.25 97.65 M35.6 103.35 L36.8 102.05 35.4 100.6 Q34.65 99.85 35.1 99.0 L35.0 98.9 34.85 98.75 34.45 98.45 Q35.4 98.6 35.85 99.0 36.45 99.5 36.7 100.85 L37.15 102.95 40.6 103.0 Q41.0 105.2 40.75 105.9 L39.15 108.45 38.4 110.2 37.4 111.7 35.9 111.85 34.4 111.8 35.85 112.7 36.55 114.0 34.1 115.65 Q32.6 116.75 31.6 117.0 L27.4 117.35 23.15 116.9 Q21.25 116.5 20.9 115.8 20.75 115.5 20.55 113.35 L19.55 115.7 Q18.85 116.95 17.35 116.6 17.2 114.2 18.05 112.6 18.4 111.9 19.1 111.2 L20.95 109.55 Q23.4 107.6 24.2 103.9 L24.35 103.3 28.35 103.7 Q26.8 104.25 26.05 105.45 25.85 105.8 25.9 106.35 L25.85 107.3 25.2 108.55 24.35 109.7 22.95 111.95 Q24.65 111.9 27.15 109.5 29.9 106.8 31.35 106.4 L35.8 106.15 Q38.7 106.15 40.15 105.25 L37.4 103.5 35.6 103.35 M40.15 93.5 L40.25 93.5 42.8 94.45 Q46.35 95.85 48.7 95.4 L48.7 95.3 47.7 94.2 48.7 95.25 48.7 95.3 48.85 96.5 48.75 95.9 48.7 95.45 Q46.35 95.85 42.8 94.5 L40.15 93.5 M49.95 99.25 L50.3 99.5 Q51.3 100.1 52.4 99.95 L53.4 100.5 52.65 100.15 Q49.55 99.9 48.3 100.1 L49.95 99.25 M53.7 100.6 L54.3 100.65 54.75 100.65 55.3 100.8 Q54.8 101.2 53.9 102.95 L52.2 106.45 48.9 108.8 44.05 113.3 Q40.95 116.15 38.65 115.6 L38.6 114.5 38.55 113.35 Q39.2 110.25 39.6 109.45 39.9 108.85 40.75 108.3 L42.1 107.3 42.6 106.75 42.05 108.0 40.75 110.05 Q40.4 110.75 40.35 112.4 L44.3 108.45 48.2 104.5 51.0 102.55 53.7 100.6 M55.6 100.85 L55.85 100.9 56.0 101.15 55.8 100.9 55.6 100.85 M56.6 102.2 L58.15 104.45 58.3 104.65 57.7 105.0 Q57.05 105.55 56.55 106.25 L56.6 102.2 M63.9 112.5 L63.9 112.65 64.3 113.15 64.3 113.2 63.9 112.65 63.85 112.55 63.9 112.5 M63.4 112.9 L63.4 112.95 62.8 113.7 63.4 112.9 M69.45 120.5 L71.45 119.7 71.85 119.55 73.8 119.05 75.2 118.4 75.95 118.15 75.2 118.45 Q74.8 118.7 74.55 118.85 L73.8 119.05 71.45 119.75 69.45 120.5 M78.4 117.4 L78.6 117.45 78.2 118.2 78.4 117.75 78.4 117.4 M46.45 101.05 L46.4 101.25 44.65 104.0 Q43.75 103.95 43.25 105.1 L43.35 104.5 Q43.75 102.65 46.45 101.05 M106.45 111.65 Q107.45 110.35 107.95 108.65 L108.3 106.95 108.25 106.4 108.3 106.5 108.3 106.95 108.0 108.65 Q107.5 110.35 106.45 111.65 M101.65 116.25 L101.6 116.4 101.6 116.25 101.65 116.25 M99.5 103.2 L100.9 103.5 Q100.35 103.05 100.05 102.9 L97.9 102.1 Q98.55 102.95 99.5 103.2" fill="#9c9990" fill-rule="evenodd" stroke="none"/>
      <path d="M87.7 91.15 L87.4 90.95 83.3 91.1 Q83.6 92.35 83.0 93.05 L82.3 92.9 Q82.1 91.35 83.5 90.1 82.0 91.0 81.55 91.45 80.85 92.1 80.9 93.45 L76.4 93.75 Q75.25 94.25 74.2 94.85 L73.6 95.1 72.2 95.25 Q70.5 95.55 68.85 96.55 L68.1 97.1 Q67.7 98.6 66.8 99.7 L65.15 100.4 Q64.4 99.2 63.1 99.2 L63.4 98.3 Q63.55 97.7 63.85 97.35 L58.5 98.15 53.15 97.7 Q53.35 95.55 54.35 94.8 54.65 94.55 57.0 93.65 L53.05 93.85 Q50.25 95.05 49.25 94.75 L48.85 94.6 48.25 94.05 Q47.9 93.3 49.7 91.6 51.7 89.65 51.8 88.95 50.0 89.45 47.8 90.5 L48.6 89.35 45.65 90.0 45.55 90.05 45.3 89.65 44.7 89.75 43.6 88.95 43.05 88.55 41.35 86.5 41.3 86.35 42.6 86.25 41.65 85.65 41.55 85.65 42.4 85.0 44.35 84.65 45.3 83.85 48.0 83.65 52.05 83.25 Q54.6 83.25 55.15 84.85 L56.55 84.7 Q57.5 86.0 55.6 86.85 L52.65 87.7 Q52.95 89.15 54.65 88.8 L57.6 88.25 Q57.6 87.75 58.05 87.2 L58.95 86.4 60.05 85.55 Q61.55 84.4 62.55 84.5 63.65 84.6 65.25 86.35 66.1 85.7 68.3 84.95 L68.25 85.5 Q66.6 85.5 66.6 87.4 66.6 89.75 65.9 90.35 65.2 90.9 62.35 91.35 59.25 91.9 58.35 92.35 59.65 92.1 61.9 92.75 L65.4 93.85 Q69.2 94.7 69.0 89.35 L75.35 88.9 Q73.25 88.65 71.7 87.5 74.25 89.3 78.65 88.8 83.25 88.3 85.55 89.65 L87.7 91.15 M105.3 103.9 L104.95 103.3 Q106.0 102.35 107.85 101.8 L111.2 101.45 110.15 102.4 Q108.9 102.6 106.9 103.3 L105.3 103.9 M106.55 97.25 L105.45 97.35 104.3 97.4 Q103.95 100.45 101.5 100.4 L96.35 99.3 96.4 99.6 95.85 99.55 95.55 99.5 95.25 99.45 95.0 99.3 91.45 98.8 88.15 97.85 86.7 96.9 Q85.35 96.25 85.05 94.85 92.6 97.3 95.75 98.65 L94.3 96.3 92.15 93.15 95.1 93.1 95.2 93.1 98.2 93.65 Q99.25 94.15 100.15 95.25 L101.55 97.25 Q101.7 96.4 101.35 94.95 101.0 93.35 101.0 92.7 L103.15 92.7 102.4 92.4 102.85 92.55 103.15 92.7 104.0 93.1 103.0 93.25 Q102.1 93.5 101.75 94.15 L101.8 94.2 Q101.6 94.6 101.65 95.25 L103.3 95.75 Q103.35 96.35 104.1 96.6 L106.3 97.0 106.3 96.95 106.55 97.25 M112.85 96.75 L113.7 96.75 113.7 96.8 112.85 96.75 M115.15 96.55 L115.45 96.5 115.2 96.55 115.15 96.55 M115.75 96.35 L117.7 95.5 119.05 94.8 118.75 95.0 116.9 96.3 115.7 96.5 115.75 96.35 M120.25 94.1 L120.85 93.75 120.65 94.0 120.25 94.1 M125.35 89.35 Q126.0 87.65 126.0 85.75 127.45 87.3 128.05 88.85 L127.95 88.9 127.85 88.9 127.0 89.0 126.85 92.1 Q126.65 92.85 126.05 93.4 L125.45 93.9 125.4 93.9 125.1 94.05 125.1 94.1 124.9 94.15 124.7 94.2 124.35 94.3 125.2 93.95 Q125.65 93.0 125.65 91.65 L125.55 89.35 125.35 89.35 M55.75 83.2 L57.55 83.65 60.15 84.05 59.75 84.05 56.55 83.4 55.75 83.2 M69.15 85.15 L71.7 87.5 70.05 86.05 69.15 85.15 M122.95 95.9 L122.6 96.1 122.95 95.75 122.95 95.9 M59.55 84.45 L59.8 84.35 59.8 84.5 59.55 84.45" fill="#c8c6be" fill-rule="evenodd" stroke="none"/>
      <path d="M83.0 93.05 Q83.85 93.25 84.2 93.65 L84.25 93.7 80.9 93.45 Q80.85 92.1 81.55 91.45 82.0 91.0 83.5 90.1 82.1 91.35 82.3 92.9 L83.0 93.05 M73.65 95.1 L68.6 97.85 68.5 99.0 68.35 99.25 68.5 99.25 68.2 100.75 68.1 101.05 68.05 101.05 67.55 101.9 66.35 102.75 66.1 103.1 65.5 103.55 65.55 103.6 Q63.95 104.75 62.45 104.4 L62.4 104.45 61.3 105.15 61.3 105.1 60.6 105.3 60.5 105.3 60.45 105.3 60.3 105.3 60.25 105.3 59.7 105.25 Q58.85 105.15 58.35 104.6 L58.3 104.65 58.15 104.45 56.6 102.2 56.6 102.15 56.3 101.65 56.25 101.55 56.2 101.5 56.15 101.4 56.0 101.15 55.85 100.9 55.6 100.85 55.45 100.8 55.35 100.75 55.3 100.8 54.75 100.65 54.3 100.65 53.7 100.6 53.7 100.55 53.4 100.5 52.4 99.95 Q51.3 100.1 50.3 99.5 L49.95 99.25 49.95 99.2 49.45 98.65 49.05 97.75 48.95 97.0 48.85 96.5 48.7 95.3 48.7 95.25 47.7 94.2 45.95 92.3 45.65 92.0 45.55 91.95 45.9 91.9 Q46.05 91.35 45.7 90.8 L45.55 90.05 45.65 90.0 48.6 89.35 47.8 90.5 Q47.05 91.35 46.95 91.95 46.85 92.7 47.0 93.2 L48.25 94.05 48.85 94.6 Q51.85 97.2 52.0 99.25 L55.45 99.7 57.4 101.7 Q57.5 102.8 58.25 103.5 59.05 104.3 60.3 104.3 61.75 104.3 62.55 103.25 63.7 103.15 64.4 102.45 L64.55 102.3 65.15 101.85 66.2 100.5 66.35 100.15 66.8 99.7 Q67.7 98.6 68.1 97.1 L68.85 96.55 Q70.5 95.55 72.2 95.25 L73.6 95.1 73.65 95.1 M104.25 104.2 L105.3 103.9 106.9 103.3 Q108.9 102.6 110.15 102.4 L111.2 101.45 111.25 101.45 111.65 102.0 Q112.05 101.55 112.75 101.5 L113.45 101.45 113.25 101.6 113.0 101.8 113.05 101.8 112.75 102.0 111.95 102.4 Q111.9 103.55 111.1 104.35 110.35 105.1 109.2 105.25 L109.65 105.2 108.3 105.5 107.3 105.65 107.25 105.65 106.9 105.65 106.85 105.65 106.6 105.6 105.95 105.3 105.75 105.2 105.55 105.05 104.65 104.6 104.25 104.2 M92.8 99.05 L91.45 98.8 95.0 99.3 95.25 99.45 92.8 99.05 M68.3 84.95 Q66.1 85.7 65.25 86.35 63.65 84.6 62.55 84.5 61.55 84.4 60.05 85.55 L58.95 86.4 58.05 87.2 57.7 87.5 Q58.6 85.3 59.95 85.0 L59.8 84.5 59.8 84.35 59.55 84.45 58.1 84.75 56.55 84.7 55.15 84.85 Q54.6 83.25 52.05 83.25 L48.0 83.65 45.3 83.85 45.55 83.6 46.8 82.65 Q50.35 82.1 53.3 82.6 L55.75 83.2 56.55 83.4 59.75 84.05 60.15 84.05 62.0 84.0 64.0 83.5 66.2 83.55 Q67.5 83.8 68.35 84.45 L68.8 84.8 68.45 84.95 68.3 84.95 M95.2 93.1 L99.0 92.75 99.55 92.35 100.2 91.95 102.2 92.3 102.4 92.4 103.15 92.7 101.0 92.7 Q101.0 93.35 101.35 94.95 101.7 96.4 101.55 97.25 L100.15 95.25 Q99.25 94.15 98.2 93.65 L95.2 93.1 M116.05 99.7 L116.3 99.55 Q116.75 99.35 117.25 98.8 L118.1 98.15 118.55 98.1 119.65 97.9 120.75 97.35 121.95 96.7 122.55 96.15 122.6 96.1 122.95 95.9 Q122.85 97.0 122.05 97.75 121.2 98.65 119.95 98.65 L119.65 98.65 119.2 99.8 118.75 100.5 118.7 100.5 118.45 100.75 118.05 100.95 117.25 101.25 117.05 101.25 116.8 101.3 116.45 101.25 116.35 101.25 115.95 101.3 115.4 101.25 115.45 101.3 115.15 101.25 115.1 101.2 114.5 101.1 114.4 101.05 115.7 99.95 116.05 99.7 M99.5 103.2 Q98.55 102.95 97.9 102.1 L100.05 102.9 Q100.35 103.05 100.9 103.5 L99.5 103.2" fill="#fdfaec" fill-rule="evenodd" stroke="none"/>
      <path d="M84.25 93.7 Q84.9 93.9 84.95 94.25 83.3 94.4 81.95 94.9 L79.55 96.25 Q78.0 97.2 77.15 97.1 78.4 95.0 76.95 94.7 L73.7 95.1 73.65 95.1 73.6 95.1 74.2 94.85 Q75.25 94.25 76.4 93.75 L80.9 93.45 84.25 93.7 M103.0 109.2 L100.15 108.95 100.1 106.9 Q100.2 106.2 100.8 105.0 L101.75 103.55 103.7 103.65 104.25 104.2 104.65 104.6 105.55 105.05 105.75 105.2 105.95 105.3 106.0 105.35 Q106.7 106.7 106.65 107.45 106.45 109.4 103.0 109.2 M95.55 99.5 L93.35 101.55 91.05 103.2 Q88.6 104.5 88.3 102.45 88.25 101.85 88.75 100.9 89.25 99.95 89.15 99.25 L90.65 99.0 92.2 98.95 92.8 99.05 95.25 99.45 95.55 99.5 M31.6 96.1 L31.7 95.9 31.9 95.55 Q32.45 94.7 34.1 94.05 L34.95 93.7 35.1 93.65 37.1 93.45 41.6 96.2 39.45 95.75 37.1 95.5 Q35.15 95.45 34.2 95.95 L31.9 97.6 31.85 97.55 31.6 96.1 M34.6 92.3 L33.95 92.4 34.0 92.35 34.6 92.3 M28.35 103.7 L28.85 103.75 33.2 104.05 Q34.6 104.0 35.6 103.35 L37.4 103.5 40.15 105.25 Q38.7 106.15 35.8 106.15 L31.35 106.4 Q29.9 106.8 27.15 109.5 24.65 111.9 22.95 111.95 L24.35 109.7 25.2 108.55 25.85 107.3 25.9 106.35 Q25.85 105.8 26.05 105.45 26.8 104.25 28.35 103.7 M53.4 100.5 L53.7 100.55 53.7 100.6 51.0 102.55 48.2 104.5 44.3 108.45 40.35 112.4 Q40.4 110.75 40.75 110.05 L42.05 108.0 42.6 106.75 43.25 105.1 Q43.75 103.95 44.65 104.0 L46.4 101.25 46.45 101.05 Q46.85 100.35 48.3 100.1 49.55 99.9 52.65 100.15 L53.4 100.5" fill="#cbc9bd" fill-rule="evenodd" stroke="none"/>
      <path d="M104.0 93.1 L104.65 93.0 106.05 93.8 106.95 94.3 106.6 94.4 106.1 94.5 104.3 94.75 Q102.95 94.9 101.8 94.2 L101.75 94.15 Q102.1 93.5 103.0 93.25 L104.0 93.1 M128.05 88.85 L128.95 88.6 129.3 88.5 130.65 88.4 130.7 88.4 130.7 88.35 131.05 88.6 132.0 89.15 132.25 89.3 133.55 90.5 133.25 90.75 Q132.85 91.0 132.1 90.75 L130.85 90.45 Q129.35 90.4 127.0 89.2 L127.0 89.0 127.85 88.9 127.95 88.9 128.05 88.85 M133.0 85.45 L132.95 85.4 133.2 84.85 135.4 84.3 136.25 84.75 136.6 85.3 136.95 85.95 137.0 86.1 137.15 86.4 137.25 86.55 137.5 86.95 135.95 86.95 Q136.6 86.55 136.4 86.15 136.25 85.75 135.5 85.8 134.75 85.85 134.6 86.25 L134.4 87.15 134.3 87.4 134.15 87.2 133.0 85.45 M138.2 87.6 L138.45 87.8 138.6 87.9 138.65 87.85 140.2 87.95 141.9 88.2 142.55 88.75 142.45 88.8 141.95 88.95 140.9 89.2 139.8 89.65 Q139.6 90.0 139.7 91.05 L139.75 92.0 139.7 92.0 Q139.55 92.0 139.25 90.65 L138.8 89.4 138.35 88.2 138.3 88.2 138.2 87.9 138.15 87.65 138.2 87.6 M143.65 95.0 L144.95 95.85 145.85 96.75 145.85 96.8 145.9 96.95 145.9 97.1 145.1 97.25 143.0 97.5 141.85 97.6 Q139.75 97.8 139.75 96.8 139.75 96.3 141.4 95.7 L143.65 95.0 M142.3 103.4 L142.25 103.5 140.85 104.15 140.9 104.15 Q136.35 106.2 136.0 104.5 L136.6 104.45 136.0 104.45 135.95 104.35 138.15 104.3 142.3 103.4 M8.6 107.8 Q8.45 106.95 9.15 106.05 9.55 106.45 10.25 106.35 L9.7 107.75 9.15 108.8 8.9 108.5 8.6 107.8 M10.05 95.2 L10.1 94.95 Q10.35 93.95 11.25 93.6 L11.25 93.65 10.85 94.95 10.1 95.9 10.05 95.2 M12.15 92.95 L11.95 93.0 14.95 91.0 16.95 90.85 17.25 90.75 18.95 90.25 18.85 90.1 18.65 89.65 24.85 85.55 Q28.35 83.7 29.6 84.65 30.15 85.05 30.25 85.95 29.1 85.35 25.35 87.35 21.65 89.35 21.55 90.6 19.7 90.35 16.75 91.4 L12.15 92.95 M108.2 95.55 L108.6 95.4 108.95 95.3 110.3 96.0 110.1 96.1 108.7 96.35 Q107.85 96.3 107.3 95.7 L108.2 95.55 M113.35 98.4 L113.3 97.0 116.95 96.65 115.3 98.05 Q114.4 98.85 113.35 98.6 L113.35 98.4 M119.35 96.2 L119.3 95.3 120.3 95.3 120.9 95.55 121.0 95.8 120.9 96.25 Q120.3 96.45 119.35 96.25 L119.35 96.2 M114.5 101.1 L115.1 101.2 115.15 101.25 114.5 101.1 M126.45 94.1 L128.85 96.2 128.9 96.25 128.9 96.35 128.85 96.35 128.6 96.4 128.2 96.35 Q127.45 96.2 126.5 95.45 L125.1 94.05 125.4 93.9 125.45 93.9 126.4 94.1 126.45 94.1 M129.85 95.35 L129.65 95.1 129.45 94.65 Q129.5 94.05 131.45 93.4 L133.95 92.8 Q134.55 92.85 134.9 93.25 L135.5 94.05 135.45 94.1 135.5 94.1 135.65 94.25 135.65 94.3 135.65 95.25 135.65 96.35 135.65 96.4 135.4 96.45 135.0 96.5 134.8 96.5 133.85 96.6 132.5 96.75 132.35 96.75 132.0 96.65 Q131.1 96.4 129.85 95.35 M131.95 98.8 L131.95 98.3 132.6 98.6 134.1 99.3 134.5 100.45 Q134.65 102.0 134.45 102.0 L134.0 102.7 132.15 103.15 130.15 103.3 Q129.55 101.55 129.65 100.5 L130.9 99.85 131.95 98.8 M21.8 91.85 L21.95 91.3 22.25 91.35 23.95 91.65 Q23.2 93.0 21.65 92.6 L21.8 91.85 M15.45 93.45 L17.15 93.2 17.75 93.0 19.25 93.1 19.1 94.2 18.65 94.4 17.2 94.75 15.25 94.6 15.1 93.5 15.45 93.45 M29.4 90.35 L29.15 90.9 Q26.55 91.15 23.95 90.9 L26.35 90.3 27.7 89.95 28.65 89.65 29.3 90.05 29.4 90.2 29.4 90.35 M27.4 89.0 L28.3 88.3 27.95 88.65 27.8 89.05 27.75 89.4 Q27.65 89.7 27.0 89.6 L27.4 89.0 M39.05 86.0 L38.5 86.45 Q37.25 87.15 35.95 87.0 L37.2 85.95 37.95 85.3 Q39.1 85.6 39.05 86.0 M35.85 85.65 L34.65 85.6 Q34.9 85.1 35.3 84.65 L35.9 85.6 35.95 85.65 35.85 85.65 M27.3 87.0 L27.3 87.65 26.75 88.6 Q26.4 88.85 25.7 88.6 25.5 87.15 27.3 87.0 M25.3 96.2 L24.7 96.15 24.8 96.1 24.8 96.05 25.35 95.9 27.4 95.7 29.3 96.2 31.3 96.65 31.4 97.05 31.45 97.2 31.4 97.3 28.35 97.0 25.3 96.2 M26.95 94.15 L26.95 94.8 Q26.2 94.85 25.85 93.5 L26.8 93.95 26.95 94.15 M28.4 99.1 L28.65 98.95 28.75 99.1 30.45 100.65 28.55 100.65 27.15 99.7 28.4 99.1 M41.4 91.7 L41.3 91.65 45.15 91.6 45.15 91.65 44.8 91.95 44.3 92.15 43.3 92.15 41.4 91.7 M32.3 88.3 Q31.75 89.3 30.95 88.9 30.1 88.5 30.35 87.35 L31.95 87.3 32.3 88.3 M32.25 97.65 L32.5 97.75 33.35 98.0 33.7 98.15 33.8 98.15 34.4 98.45 34.35 98.5 31.75 99.4 Q29.9 99.75 30.3 98.05 L32.25 97.65 M21.95 101.6 L20.95 101.7 20.8 101.6 20.8 101.15 21.3 101.15 22.1 101.3 22.0 101.55 21.95 101.6 M35.65 88.3 Q34.05 88.55 33.45 87.65 34.4 86.45 35.65 86.3 L35.65 88.3 M28.3 100.8 L28.25 100.85 27.55 101.55 Q27.1 101.7 26.75 101.15 L27.3 100.45 28.3 100.8 M19.8 101.5 Q17.95 102.8 17.0 102.85 L16.4 102.7 16.0 102.15 16.0 102.1 15.95 102.05 16.25 101.85 16.4 101.7 Q17.25 101.05 19.15 100.95 L19.25 101.0 20.15 101.3 19.8 101.5 M23.05 100.15 L24.7 100.3 Q25.3 100.5 26.3 101.15 L23.8 101.3 22.9 100.25 22.85 100.2 22.9 100.15 23.05 100.15 M129.45 114.85 L129.3 114.65 Q130.1 113.6 130.95 113.0 L131.25 113.0 131.95 113.15 130.65 115.55 130.55 115.6 129.45 114.85 M134.7 110.0 L133.35 109.6 Q133.35 108.5 132.2 107.0 L130.15 104.65 133.25 106.35 Q134.05 107.35 135.4 107.95 L135.65 108.65 135.65 109.8 135.45 110.1 135.65 110.1 135.45 110.2 134.85 110.2 134.7 110.0 M125.0 105.25 Q125.25 105.0 126.05 104.9 L126.6 104.9 128.05 105.25 129.4 105.75 129.05 106.0 128.4 106.25 127.7 106.4 127.3 106.45 126.7 106.45 125.15 106.5 Q125.05 108.3 125.25 109.0 125.5 109.75 126.1 110.1 L127.1 110.8 124.9 111.1 Q124.05 111.4 123.15 112.15 L123.15 111.75 123.5 110.6 124.45 109.0 Q124.9 107.5 124.8 105.45 L125.0 105.25 M122.15 117.9 Q122.15 117.45 122.8 117.5 L123.15 117.5 123.1 117.6 123.35 117.55 124.15 117.65 123.45 118.55 Q123.0 119.05 122.5 118.95 L122.45 118.85 122.15 117.9 M121.5 119.25 L122.65 119.5 123.45 119.8 123.4 119.9 Q122.9 120.3 122.6 121.7 122.25 123.35 121.9 123.8 L121.65 124.15 120.5 122.8 Q119.25 121.5 119.05 120.7 L119.2 120.5 119.3 120.3 119.4 120.2 119.8 119.1 119.85 119.1 119.95 119.0 121.5 119.25 M117.7 111.45 L118.05 111.45 Q121.4 111.45 123.45 112.6 123.15 113.4 121.5 114.85 119.85 116.3 119.35 117.2 L119.3 117.25 119.3 117.2 119.4 115.35 Q119.35 114.3 118.95 113.8 118.25 112.95 116.55 112.7 L116.5 112.7 116.65 112.55 116.8 112.4 117.35 111.75 117.3 111.7 117.25 111.6 117.15 111.45 117.7 111.45 M114.15 100.95 L113.8 101.2 114.1 100.95 114.15 100.95 M109.5 100.35 Q109.15 100.3 109.0 100.05 L109.95 100.0 110.3 100.3 109.5 100.35" fill="#c4c4a8" fill-rule="evenodd" stroke="none"/>
      <path d="M107.85 101.8 L107.05 101.55 Q107.65 100.4 109.35 99.9 L112.3 99.6 Q111.9 99.2 111.15 99.1 112.45 99.15 113.3 98.3 L111.3 96.3 110.55 96.25 Q109.95 96.3 109.45 96.65 L108.05 98.05 110.75 99.0 110.85 99.05 110.2 99.0 107.85 98.7 Q107.3 98.45 106.85 97.7 L106.55 97.25 106.3 96.95 106.3 95.3 106.25 95.3 103.4 95.05 103.3 95.75 101.65 95.25 Q101.6 94.6 101.8 94.2 102.95 94.9 104.3 94.75 L106.1 94.5 106.6 94.4 106.95 94.3 106.05 93.8 106.55 93.95 Q110.05 95.2 111.65 96.55 L112.6 97.55 113.7 96.8 113.7 96.75 114.7 96.55 115.1 96.55 115.15 96.55 115.2 96.55 115.7 96.5 116.9 96.3 118.75 95.0 119.05 94.8 120.25 94.1 120.65 94.0 120.85 93.75 123.05 90.6 Q122.5 91.55 122.6 92.75 L122.65 93.25 Q123.8 93.7 123.45 94.25 L122.95 94.3 122.9 94.3 122.75 94.6 122.85 94.8 121.5 95.55 121.0 95.8 120.9 95.55 120.3 95.3 119.3 95.3 119.35 96.2 118.35 96.35 Q117.45 96.55 116.5 97.35 L114.95 98.6 114.9 99.05 114.65 99.6 113.85 99.6 113.05 99.6 112.95 99.7 111.95 100.2 110.95 101.0 111.0 101.05 111.25 101.4 111.25 101.45 111.2 101.45 107.85 101.8 M45.3 83.85 L44.35 84.65 42.4 85.0 Q42.95 84.65 43.85 84.2 45.75 83.25 46.5 82.7 L46.8 82.4 46.95 82.55 46.8 82.65 45.55 83.6 45.3 83.85 M44.7 89.75 L45.3 89.65 45.55 90.05 45.7 90.8 44.7 89.75 M123.25 90.3 L123.95 89.3 125.35 89.35 125.55 89.35 125.65 91.65 Q125.65 93.0 125.2 93.95 L124.35 94.3 124.05 94.3 Q124.9 92.85 125.3 90.3 L124.95 90.1 Q123.9 89.55 123.25 90.3 M131.35 88.2 L131.4 88.15 131.5 87.8 134.15 87.7 Q134.15 88.8 133.55 90.95 L133.25 90.75 133.55 90.5 132.25 89.3 132.0 89.15 131.05 88.6 130.7 88.35 131.35 88.2 M143.2 94.4 L143.25 94.55 143.3 94.6 143.35 94.7 137.85 97.05 138.2 95.55 137.75 97.05 137.85 97.05 137.65 97.55 136.95 98.15 Q136.35 98.45 136.2 98.7 L136.25 99.55 136.4 100.4 136.5 101.7 140.8 101.75 142.1 97.85 142.5 97.8 142.3 97.95 Q142.9 98.65 142.95 99.75 L143.0 101.75 142.7 101.95 142.65 102.0 136.0 101.95 135.95 101.7 Q135.75 100.8 135.8 99.0 L135.9 96.45 135.65 96.45 135.65 96.4 135.65 96.35 135.8 96.35 135.65 95.25 135.65 94.3 135.65 94.25 135.8 94.15 135.6 94.1 135.5 94.05 135.65 93.1 135.8 94.15 138.3 94.6 138.2 95.55 138.9 93.85 139.35 92.75 138.65 95.8 Q139.55 95.7 140.95 95.2 L143.2 94.4 M142.4 102.95 L142.3 103.4 138.15 104.3 135.95 104.35 136.0 104.45 136.0 104.5 Q135.2 104.6 133.8 105.5 L137.9 105.6 137.0 106.15 136.7 106.4 136.6 106.45 137.35 106.5 139.8 106.8 139.95 106.85 Q140.85 107.05 141.25 107.55 L141.55 108.35 138.35 108.45 135.65 107.95 133.4 106.35 133.1 105.95 132.9 106.1 131.8 104.95 130.5 104.0 133.15 103.65 135.65 103.2 135.65 103.15 135.7 103.15 135.75 103.1 135.8 103.1 136.65 103.0 136.15 102.4 136.6 102.5 142.4 102.95 M142.25 103.5 L142.2 103.55 141.7 104.0 141.6 104.1 141.55 104.1 140.9 104.15 140.85 104.15 142.25 103.5 M136.25 113.7 L136.1 114.0 135.8 114.1 133.5 114.8 Q132.05 115.25 131.6 115.75 131.05 116.35 131.05 117.05 L131.0 118.65 130.55 120.75 130.15 120.95 Q129.5 121.25 129.2 121.55 L129.15 121.6 Q128.85 121.85 128.5 122.45 L126.95 121.8 Q128.55 120.2 128.25 119.0 127.45 118.9 127.3 118.0 L126.9 117.7 127.4 117.7 Q127.95 117.7 128.95 116.9 L130.55 115.6 130.6 115.65 130.65 115.55 131.0 115.35 133.4 114.55 Q134.75 114.1 135.7 113.5 L133.3 113.25 131.6 112.8 131.3 113.0 131.25 113.0 130.95 113.0 Q130.1 113.6 129.3 114.65 L129.45 114.85 Q128.05 115.9 126.2 116.6 L128.6 114.55 130.8 112.6 130.95 112.5 128.4 110.85 128.6 110.15 Q129.95 112.4 132.2 112.05 L132.35 111.95 133.2 111.05 134.15 110.25 134.6 110.2 Q134.65 111.05 136.15 113.45 L136.25 113.7 M9.7 107.75 L11.15 106.7 12.75 105.9 12.4 105.2 11.3 104.7 12.25 104.55 13.25 104.4 13.6 105.25 13.75 105.95 13.7 106.05 13.5 106.2 13.05 106.45 12.75 106.55 12.5 106.75 12.4 106.8 Q11.85 107.15 11.45 107.6 L10.65 107.8 Q10.0 108.2 9.65 109.25 L9.6 109.2 9.15 108.8 9.7 107.75 M11.5 97.9 L10.9 98.9 10.3 96.9 Q11.05 96.75 11.45 96.15 L11.8 94.9 11.55 93.55 11.55 93.5 11.9 93.45 11.65 93.3 12.15 92.95 16.75 91.4 Q19.7 90.35 21.55 90.6 21.65 89.35 25.35 87.35 29.1 85.35 30.25 85.95 30.15 85.05 29.6 84.65 L31.05 84.3 31.25 84.3 Q30.65 84.6 30.35 85.3 31.2 86.35 32.35 86.2 L34.65 85.3 32.3 84.2 Q33.55 84.1 35.5 84.15 L40.0 84.0 Q41.05 83.8 43.55 82.4 45.3 81.65 46.35 82.15 L44.3 82.5 41.7 83.65 39.3 84.35 38.3 84.65 36.7 85.25 Q36.15 85.45 35.9 85.6 L35.3 84.65 Q34.9 85.1 34.65 85.6 L35.85 85.65 35.65 85.85 36.45 85.95 37.2 85.95 35.95 87.0 Q37.25 87.15 38.5 86.45 L39.05 86.0 Q40.75 86.2 41.1 87.65 40.6 87.85 39.6 87.65 38.55 87.5 38.05 87.65 37.5 87.75 37.2 88.2 L36.55 88.9 34.35 90.0 31.35 90.25 31.25 89.4 Q30.3 89.5 29.35 90.05 L29.4 90.2 29.3 90.05 28.65 89.65 27.7 89.95 27.9 89.05 27.8 89.05 27.95 88.65 28.3 88.3 27.4 89.0 26.95 89.0 26.3 89.0 26.35 90.3 23.95 90.9 Q26.55 91.15 29.15 90.9 L29.4 90.35 29.35 91.3 25.75 92.05 Q23.45 92.4 22.3 93.0 L31.15 92.7 28.55 92.9 28.55 92.95 25.8 93.1 25.45 93.25 25.3 93.3 24.9 93.45 24.9 93.4 24.4 93.5 24.2 93.5 24.1 93.5 23.85 93.5 22.8 93.2 22.65 93.2 19.25 93.1 17.75 93.0 17.65 93.0 14.3 93.25 13.2 93.3 13.2 93.35 13.0 93.35 14.05 93.45 14.65 95.0 15.05 95.7 14.9 95.8 14.05 95.9 13.75 93.5 Q12.85 93.65 12.65 94.7 L12.4 96.6 11.5 97.9 M17.25 90.75 L18.85 90.1 18.95 90.25 17.25 90.75 M108.2 95.55 L107.3 95.7 Q107.85 96.3 108.7 96.35 L110.1 96.1 110.3 96.0 108.95 95.3 108.6 95.4 108.2 95.55 M113.35 98.4 L113.35 98.6 Q114.4 98.85 115.3 98.05 L116.95 96.65 113.3 97.0 113.35 98.4 M118.1 98.15 L117.25 98.8 Q116.75 99.35 116.3 99.55 L116.05 99.7 116.6 99.15 116.8 98.95 117.45 98.4 117.55 98.3 118.1 98.15 M115.45 101.3 L115.4 101.25 115.95 101.3 116.35 101.25 116.45 101.25 116.8 101.3 Q117.75 101.3 118.45 100.75 L118.7 100.5 118.75 100.5 121.4 102.35 122.1 101.4 121.8 102.5 121.5 103.05 Q121.4 103.2 121.65 103.45 L123.1 105.0 123.65 105.75 125.65 104.75 125.0 101.6 124.3 98.4 123.8 95.15 124.05 95.05 124.4 94.75 124.7 94.2 124.9 94.15 126.35 95.7 Q127.1 96.3 128.2 96.35 L128.6 96.4 128.85 96.4 128.8 96.7 128.75 96.75 126.45 96.5 126.25 97.6 126.25 98.05 126.25 98.4 126.25 98.5 126.25 99.9 126.15 100.35 125.5 102.05 125.5 102.1 126.9 101.15 Q127.75 100.6 128.45 100.65 L127.95 102.8 127.25 104.95 126.6 104.9 126.3 104.8 126.05 104.9 Q125.25 105.0 125.0 105.25 L124.8 105.3 124.8 105.45 Q124.5 105.8 124.3 107.1 124.1 108.35 123.6 109.0 L123.5 110.55 Q123.15 111.15 123.15 111.65 L122.8 112.1 120.95 111.4 118.9 111.05 118.6 111.05 Q119.8 110.6 121.25 110.6 L121.4 107.65 121.3 107.05 Q120.95 105.3 119.55 105.3 L117.15 103.1 116.45 102.3 116.3 102.25 115.45 101.3 M122.55 96.15 L121.95 96.7 120.75 97.35 122.55 96.15 M128.9 96.4 L129.15 96.4 129.35 94.75 129.85 95.35 131.75 97.35 131.8 97.3 Q131.6 97.65 131.65 98.25 L133.45 98.5 132.6 98.6 131.95 98.3 131.95 98.8 Q131.45 99.0 130.45 99.75 L128.9 100.7 129.1 98.95 129.05 99.0 128.65 100.05 128.7 99.2 128.9 96.4 M134.6 91.55 L134.3 92.3 134.1 91.95 134.35 91.75 134.6 91.55 M21.95 91.3 L20.3 91.3 18.0 91.7 18.0 92.6 Q20.45 93.05 21.8 91.85 L21.65 92.6 Q23.2 93.0 23.95 91.65 L22.25 91.35 22.3 91.3 21.95 91.3 M15.3 95.8 L15.15 95.8 15.05 95.7 Q15.85 95.2 17.2 94.75 L18.05 94.7 17.3 95.15 17.0 95.7 16.75 95.75 15.3 95.8 M30.25 88.6 L30.3 86.65 Q30.05 86.7 29.4 87.1 L28.4 87.35 Q28.25 87.75 28.35 88.6 29.3 88.9 30.25 88.6 M27.3 87.0 Q25.5 87.15 25.7 88.6 26.4 88.85 26.75 88.6 L27.3 87.65 27.3 87.0 M24.9 90.45 Q25.7 90.05 25.95 89.0 L24.65 88.3 23.2 90.3 24.9 90.45 M24.8 97.1 L25.2 96.45 Q26.3 96.55 27.5 97.4 L29.55 99.1 28.75 99.1 28.65 98.95 28.4 99.1 25.35 98.85 Q26.75 98.6 27.75 98.0 L25.05 97.65 25.0 97.65 25.0 97.55 24.85 97.15 24.8 97.1 M31.7 95.9 Q28.05 95.15 26.95 94.15 L26.95 94.0 28.15 94.25 28.55 94.25 28.45 94.15 Q28.15 93.95 28.25 93.6 L28.3 93.6 29.95 93.75 31.65 94.0 32.8 93.15 32.45 94.3 29.5 94.45 31.2 95.15 31.9 95.55 31.7 95.9 M32.9 93.0 L33.3 92.5 33.3 92.45 33.95 92.4 34.6 92.3 35.35 92.25 35.5 92.2 37.4 92.0 37.55 92.05 37.6 92.05 39.3 92.15 39.45 92.25 43.3 92.15 44.3 92.15 45.75 92.15 45.8 92.2 45.7 92.55 45.65 92.55 43.45 92.75 43.05 92.8 32.9 93.0 M32.3 88.3 L31.95 87.3 30.35 87.35 Q30.1 88.5 30.95 88.9 31.75 89.3 32.3 88.3 M31.75 99.4 L34.35 98.5 34.4 98.45 34.45 98.45 34.85 98.75 Q33.85 98.7 33.6 99.65 L33.4 101.6 31.9 101.75 Q31.05 102.05 31.15 102.8 L28.15 103.05 25.05 102.95 24.55 102.8 23.85 102.3 23.15 101.8 22.35 101.65 22.35 101.6 22.0 101.55 22.1 101.3 22.1 101.2 21.3 101.0 20.8 101.0 20.8 101.15 20.8 101.6 20.95 101.7 Q18.8 102.0 18.95 102.95 L17.0 102.85 Q15.8 102.95 15.6 103.8 L14.85 103.4 15.1 103.1 15.2 103.0 15.45 102.65 15.9 102.8 16.4 102.7 17.0 102.85 Q17.95 102.8 19.8 101.5 L20.55 100.9 21.3 100.85 21.5 100.75 21.55 100.8 22.65 101.45 25.95 101.9 Q28.0 102.15 28.25 100.85 L28.3 100.8 28.3 100.65 29.9 100.8 31.35 100.6 31.5 100.05 31.6 99.5 31.75 99.4 M35.65 88.3 L35.65 86.3 Q34.4 86.45 33.45 87.65 34.05 88.55 35.65 88.3 M60.3 105.3 L60.45 105.3 58.4 107.75 Q57.75 108.4 57.5 108.45 L56.75 108.6 56.05 108.6 Q56.9 109.55 56.95 111.0 L56.8 111.0 Q56.65 110.15 56.3 109.9 L55.7 109.75 55.05 109.75 55.15 109.4 55.15 109.3 55.2 109.2 55.3 108.65 55.35 108.7 55.4 108.4 55.7 107.65 56.55 108.0 57.4 107.95 57.6 107.55 57.65 107.15 Q57.8 107.0 58.3 107.0 L59.3 106.25 60.3 105.3 M57.2 116.4 L56.95 117.0 Q56.5 117.7 55.45 118.2 56.6 116.7 56.45 111.0 L56.8 111.0 56.85 111.15 56.95 111.15 56.95 113.8 57.2 115.45 57.2 116.4 M53.15 118.95 Q51.5 119.55 51.6 121.85 L51.5 121.75 Q51.6 119.3 52.8 118.15 L53.05 118.0 53.15 118.95 M29.55 99.1 L29.95 99.15 30.3 99.8 29.55 99.1 M136.05 110.15 L137.7 110.1 140.75 109.85 141.15 109.8 140.95 110.2 140.85 110.3 136.05 110.15 M129.05 106.0 L129.55 106.0 Q129.15 106.6 128.45 106.55 L127.7 106.4 128.4 106.25 129.05 106.0 M129.55 107.4 L129.2 110.95 128.4 109.7 129.55 107.4 M127.55 108.3 Q126.9 107.4 126.7 106.45 L127.3 106.45 Q127.15 107.2 127.55 108.3 M126.0 113.05 L125.0 113.5 124.95 116.75 124.95 117.05 124.95 117.2 125.4 117.0 126.45 117.55 124.55 118.55 122.45 119.2 123.45 119.65 124.5 120.2 123.4 119.9 123.45 119.8 122.65 119.5 121.5 119.25 122.45 118.85 122.5 118.95 Q123.0 119.05 123.45 118.55 L124.15 117.65 123.35 117.55 123.15 117.5 122.8 117.5 Q122.15 117.45 122.15 117.9 L120.0 118.55 122.1 115.8 123.95 112.7 Q124.95 113.4 126.0 113.05 M124.65 120.3 L124.8 120.5 125.15 121.3 124.9 121.35 123.15 124.6 119.6 124.9 Q117.5 124.65 117.0 123.8 L116.95 123.75 117.2 123.45 117.35 122.7 117.55 121.95 Q117.85 121.55 118.6 121.25 L119.05 120.7 Q119.25 121.5 120.5 122.8 L121.65 124.15 121.9 123.8 Q122.9 124.1 123.65 123.2 124.5 122.25 124.65 120.3 M117.75 106.2 Q117.25 107.0 117.15 109.15 L116.7 110.95 115.5 109.75 114.8 109.0 114.4 108.4 113.85 107.2 113.25 105.75 112.55 102.65 112.6 102.7 Q115.95 106.65 117.75 106.2 M109.5 100.35 L110.3 100.3 109.95 100.0 109.0 100.05 Q109.15 100.3 109.5 100.35" fill="#45453b" fill-rule="evenodd" stroke="none"/>
      <path d="M61.3 105.15 Q61.2 106.3 60.2 107.4 L59.65 107.85 59.5 108.0 59.4 108.1 58.85 108.4 Q57.9 109.05 57.65 109.65 L57.55 110.2 57.55 110.5 57.6 111.0 56.95 111.0 Q56.9 109.55 56.05 108.6 L56.75 108.6 57.5 108.5 58.4 107.8 Q59.8 106.55 60.5 105.3 L60.6 105.3 61.3 105.1 61.3 105.15 M57.9 112.95 L57.8 115.75 57.45 117.55 57.2 118.0 56.05 119.05 54.4 119.5 Q53.6 119.85 53.15 120.45 52.75 120.95 52.65 121.65 52.55 122.55 52.6 124.7 L51.65 124.95 51.5 121.75 51.6 121.85 Q51.5 119.55 53.15 118.95 L54.45 118.6 Q55.0 118.8 55.45 118.3 56.45 117.85 56.95 117.05 L57.2 116.4 57.2 115.45 56.95 113.8 56.95 111.15 57.6 111.15 57.9 112.95 M111.15 99.1 L110.85 99.05 110.75 99.0 108.05 98.05 109.45 96.65 Q109.95 96.3 110.55 96.25 L111.3 96.3 113.3 98.3 Q112.45 99.15 111.15 99.1 M42.4 85.0 L41.55 85.65 41.35 85.95 41.3 86.35 41.35 86.5 43.05 88.55 43.6 88.95 44.7 89.75 45.7 90.8 Q46.05 91.35 45.9 91.9 L45.55 91.95 45.3 91.65 45.15 91.65 45.15 91.6 41.3 91.65 41.4 91.7 40.25 91.75 37.6 92.05 37.55 92.05 37.4 92.0 35.5 92.2 35.3 92.2 35.35 92.25 34.6 92.3 34.0 92.35 33.95 92.4 33.3 92.45 33.3 92.5 31.15 92.7 22.3 93.0 Q23.45 92.4 25.75 92.05 L29.35 91.3 29.4 90.35 29.4 90.2 29.35 90.05 Q30.3 89.5 31.25 89.4 L31.35 90.25 34.35 90.0 36.55 88.9 37.2 88.2 Q37.5 87.75 38.05 87.65 38.55 87.5 39.6 87.65 40.6 87.85 41.1 87.65 40.75 86.2 39.05 86.0 39.1 85.6 37.95 85.3 L37.2 85.95 36.45 85.95 35.65 85.85 35.85 85.65 35.95 85.65 35.9 85.6 Q36.15 85.45 36.7 85.25 L38.3 84.65 39.3 84.35 41.7 83.65 44.3 82.5 46.35 82.15 46.85 82.3 46.8 82.4 46.5 82.7 Q45.75 83.25 43.85 84.2 42.95 84.65 42.4 85.0 M123.05 90.6 L123.1 90.55 123.25 90.3 Q123.9 89.55 124.95 90.1 L125.3 90.3 Q124.9 92.85 124.05 94.3 L123.95 94.3 123.45 94.25 Q123.8 93.7 122.65 93.25 L122.6 92.75 Q122.5 91.55 123.05 90.6 M137.65 87.1 L137.8 87.3 137.9 87.35 138.2 87.6 138.15 87.65 138.2 87.9 138.3 88.2 134.6 91.55 134.35 91.75 133.5 92.4 133.55 90.95 Q134.15 88.8 134.15 87.7 L134.15 87.2 134.3 87.4 134.4 87.15 136.05 87.2 137.65 87.1 M143.15 94.25 L143.2 94.4 140.95 95.2 Q139.55 95.7 138.65 95.8 L139.35 92.75 139.45 92.3 139.7 92.3 139.75 92.45 139.75 92.3 144.9 92.2 144.9 92.35 Q144.9 93.65 143.15 94.25 M146.0 98.0 L145.8 99.15 145.2 100.7 144.95 101.0 Q144.55 101.45 144.15 101.5 L143.3 101.7 143.0 101.75 142.95 99.75 Q142.9 98.65 142.3 97.95 L142.5 97.8 143.0 97.5 144.95 97.25 145.65 97.3 145.7 97.35 144.65 97.55 145.9 97.35 145.95 97.3 146.0 98.0 M142.65 102.0 L142.55 102.1 142.45 102.4 142.4 102.95 136.6 102.5 136.15 102.4 136.65 103.0 135.8 103.1 135.75 103.1 135.7 103.15 135.65 103.15 134.65 103.3 134.7 101.95 134.45 99.5 134.1 99.3 133.45 98.5 131.65 98.25 Q131.6 97.65 131.8 97.3 L132.5 96.75 134.05 96.6 134.8 96.5 135.0 96.5 135.4 96.45 135.55 96.45 135.65 96.45 135.9 96.45 135.8 99.0 Q135.75 100.8 135.95 101.7 L136.0 101.95 142.65 102.0 M139.75 111.55 L139.25 112.0 139.15 112.1 Q137.8 113.3 137.1 113.45 L136.35 113.45 136.3 113.6 136.15 113.45 Q134.65 111.05 134.6 110.2 L134.55 110.0 134.7 110.0 134.85 110.2 135.0 110.3 135.45 110.2 136.05 110.15 140.85 110.3 139.75 111.55 M136.1 114.0 L136.0 114.2 135.85 114.4 134.1 117.7 133.95 117.95 133.1 119.2 132.3 119.95 132.25 120.0 132.2 120.0 130.55 120.75 131.0 118.65 131.05 117.05 Q131.05 116.35 131.6 115.75 132.05 115.25 133.5 114.8 L135.8 114.1 136.1 114.0 M128.5 122.45 L128.45 122.5 Q126.85 124.85 125.45 126.2 121.0 129.15 117.1 129.15 L112.05 129.15 111.65 129.05 Q112.65 129.15 112.9 128.2 L113.35 126.5 114.0 125.95 115.1 125.2 116.95 123.75 117.0 123.8 Q117.5 124.65 119.6 124.9 L123.15 124.6 124.9 121.35 125.15 121.3 124.8 120.5 124.65 120.3 124.65 120.25 124.5 120.2 123.45 119.65 122.45 119.2 124.55 118.55 126.45 117.55 126.9 117.7 127.3 118.0 Q127.45 118.9 128.25 119.0 128.55 120.2 126.95 121.8 L128.5 122.45 M31.25 84.3 L31.95 84.0 32.3 84.2 34.65 85.3 32.35 86.2 Q31.2 86.35 30.35 85.3 30.65 84.6 31.25 84.3 M103.3 95.75 L103.4 95.05 106.25 95.3 106.3 95.3 106.3 96.95 106.3 97.0 104.1 96.6 Q103.35 96.35 103.3 95.75 M121.0 95.8 L121.5 95.55 122.85 94.8 122.9 95.05 122.9 95.15 122.95 95.65 122.95 95.75 122.6 96.1 122.55 96.15 120.75 97.35 119.65 97.9 118.55 98.1 118.1 98.15 117.55 98.3 117.45 98.4 116.8 98.95 116.6 99.15 116.05 99.7 115.7 99.95 114.4 101.05 114.5 101.1 115.15 101.25 Q115.85 102.15 116.3 102.25 L118.65 104.8 Q115.7 102.45 113.05 101.8 L113.0 101.8 113.25 101.6 113.45 101.45 112.75 101.5 Q112.05 101.55 111.65 102.0 L111.25 101.45 111.25 101.4 111.0 101.05 110.95 101.0 111.95 100.2 112.95 99.7 113.05 99.6 113.85 99.6 114.65 99.6 114.9 99.05 114.95 98.6 116.5 97.35 Q117.45 96.55 118.35 96.35 L119.35 96.2 119.35 96.25 Q120.3 96.45 120.9 96.25 L121.0 95.8 M128.85 96.2 L128.85 96.0 128.9 96.0 128.9 96.25 128.85 96.2 M128.9 96.35 L128.9 96.4 128.7 99.2 128.65 99.8 128.45 100.6 Q127.75 100.55 126.9 101.1 L125.55 102.05 125.5 102.05 126.15 100.35 126.25 99.9 126.25 98.5 126.25 98.4 126.25 98.05 126.25 97.6 126.45 96.5 128.75 96.75 128.8 96.7 128.85 96.4 128.85 96.35 128.9 96.35 M123.8 95.15 L124.3 98.4 125.0 101.6 125.65 104.75 123.65 105.75 123.1 105.0 121.65 103.45 Q121.4 103.2 121.5 103.05 L121.8 102.5 122.1 101.4 Q123.25 97.4 123.3 95.6 L123.3 95.15 123.6 95.2 123.8 95.15 M21.8 91.85 Q20.45 93.05 18.0 92.6 L18.0 91.7 20.3 91.3 21.95 91.3 21.8 91.85 M21.95 91.3 L22.3 91.3 22.25 91.35 21.95 91.3 M17.0 95.7 L17.3 95.15 18.05 94.7 19.0 94.35 19.1 94.2 20.3 93.85 21.7 94.1 22.95 94.3 23.05 94.25 23.85 93.5 24.1 93.5 24.2 93.5 24.5 95.3 25.45 95.3 25.35 95.9 24.8 96.05 24.8 96.1 24.5 96.15 24.7 96.15 25.3 96.2 25.2 96.45 24.8 97.1 24.65 96.95 24.6 96.9 24.35 96.75 24.15 96.65 24.05 96.55 Q22.9 96.0 21.6 95.7 L20.95 95.55 20.9 95.55 20.55 95.5 17.0 95.7 M12.4 96.6 L12.65 94.7 Q12.85 93.65 13.75 93.5 L14.05 95.9 13.35 96.1 12.8 96.3 12.4 96.6 M26.35 90.3 L26.3 89.0 26.95 89.0 27.4 89.0 27.0 89.6 Q27.65 89.7 27.75 89.4 L27.8 89.05 27.9 89.05 27.7 89.95 26.35 90.3 M30.25 88.6 Q29.3 88.9 28.35 88.6 28.25 87.75 28.4 87.35 L29.4 87.1 Q30.05 86.7 30.3 86.65 L30.25 88.6 M24.9 90.45 L23.2 90.3 24.65 88.3 25.95 89.0 Q25.7 90.05 24.9 90.45 M25.0 97.65 L25.05 97.65 27.75 98.0 Q26.75 98.6 25.35 98.85 L24.65 98.85 25.0 97.65 M32.8 93.15 L32.85 93.0 32.9 93.0 43.05 92.8 40.85 93.35 40.65 93.35 40.05 93.5 37.6 93.45 37.4 93.45 37.35 93.45 37.1 93.45 35.1 93.65 34.95 93.7 34.1 94.05 Q32.45 94.7 31.9 95.55 L31.2 95.15 29.5 94.45 32.45 94.3 32.8 93.15 M34.85 98.75 L35.0 98.9 35.1 99.0 Q34.65 99.85 35.4 100.6 L36.8 102.05 35.6 103.35 Q34.6 104.0 33.2 104.05 L28.85 103.75 28.35 103.7 24.35 103.3 24.2 103.3 23.25 103.2 21.65 103.05 21.35 103.05 18.15 103.4 15.25 105.2 14.05 105.95 13.7 106.05 13.75 105.95 13.6 105.25 13.25 104.4 13.65 104.3 14.85 103.4 15.6 103.8 Q15.8 102.95 17.0 102.85 L18.95 102.95 Q18.8 102.0 20.95 101.7 L21.95 101.6 22.35 101.65 23.15 101.8 23.85 102.3 24.55 102.8 25.05 102.95 28.15 103.05 31.15 102.8 Q31.05 102.05 31.9 101.75 L33.4 101.6 33.6 99.65 Q33.85 98.7 34.85 98.75 M11.45 107.6 L10.9 108.45 10.1 109.5 9.65 109.25 Q10.0 108.2 10.65 107.8 L11.45 107.6 M128.4 110.85 L130.95 112.5 130.8 112.6 128.6 114.55 126.2 116.6 125.3 116.95 124.95 117.05 124.95 116.75 125.0 113.5 126.0 113.05 127.1 111.85 Q127.75 111.05 128.3 110.8 L128.4 110.85 M128.65 100.65 L128.45 100.65 128.65 100.05 128.65 100.65 M129.55 106.0 L129.65 106.0 129.65 106.3 130.15 106.15 129.55 107.4 129.65 106.3 129.55 107.2 127.95 110.65 127.55 108.3 Q127.15 107.2 127.3 106.45 L127.7 106.4 128.45 106.55 Q129.15 106.6 129.55 106.0 M117.7 111.45 L117.15 111.45 117.0 111.3 116.9 111.2 116.7 110.95 117.15 109.15 Q117.25 107.0 117.75 106.2 L118.9 105.15 119.15 105.0 119.45 105.3 119.55 105.3 Q120.95 105.3 121.3 107.05 L121.4 107.65 121.25 110.6 Q119.8 110.6 118.6 111.05 L117.7 111.45 M114.15 100.95 L114.1 100.95 113.8 101.2 114.15 100.95" fill="#292921" fill-rule="evenodd" stroke="none"/>
      <path d="M59.4 108.1 L58.85 108.45 Q57.9 109.15 57.65 109.75 L57.55 110.2 57.65 109.65 Q57.9 109.05 58.85 108.4 L59.4 108.1 M57.6 111.0 L57.65 111.35 57.9 112.95 57.6 111.15 56.95 111.15 56.85 111.15 56.8 111.0 56.45 111.0 Q56.6 116.7 55.45 118.2 56.5 117.7 56.95 117.0 L57.2 116.4 56.95 117.05 Q56.45 117.85 55.45 118.3 55.0 118.8 54.45 118.6 L53.15 118.95 53.05 118.0 52.8 118.15 Q51.6 119.3 51.5 121.75 L51.65 124.95 51.5 121.35 Q51.6 120.2 51.95 119.4 52.25 118.65 52.8 118.15 53.0 117.95 54.55 117.2 55.55 116.75 55.65 115.75 55.7 115.2 55.35 114.25 L54.85 112.7 Q54.75 111.5 55.05 109.75 L55.1 109.45 55.15 109.4 55.05 109.75 55.7 109.75 56.3 109.9 Q56.65 110.15 56.8 111.0 L56.95 111.0 57.6 111.0 M131.4 88.15 L131.6 87.25 131.95 86.85 132.0 86.85 133.0 85.45 134.15 87.2 134.15 87.7 131.5 87.8 131.4 88.15 M136.25 84.75 L136.7 85.45 136.95 85.95 136.6 85.3 136.25 84.75 M137.25 86.55 L137.65 87.1 136.05 87.2 134.4 87.15 134.6 86.25 Q134.75 85.85 135.5 85.8 136.25 85.75 136.4 86.15 136.6 86.55 135.95 86.95 L137.5 86.95 137.25 86.55 M138.45 87.8 L138.65 87.85 138.6 87.9 138.45 87.8 M142.45 88.8 L144.15 90.65 Q144.8 91.5 144.9 92.2 L144.9 92.7 Q144.7 93.75 143.15 94.25 144.9 93.65 144.9 92.35 L144.9 92.2 139.75 92.3 139.75 92.45 139.7 92.3 139.45 92.3 139.35 92.75 138.9 93.85 138.2 95.55 138.3 94.6 135.8 94.15 135.65 93.1 135.5 94.05 134.9 93.25 Q134.55 92.85 133.95 92.8 L131.45 93.4 Q129.5 94.05 129.45 94.65 L129.65 95.1 129.85 95.35 129.35 94.75 129.15 96.4 128.9 96.4 128.9 96.35 128.9 96.25 128.9 96.0 128.85 96.0 128.85 96.2 126.45 94.1 126.75 94.25 126.85 92.1 127.0 89.0 127.0 89.2 Q129.35 90.4 130.85 90.45 L132.1 90.75 Q132.85 91.0 133.25 90.75 L133.55 90.95 133.5 92.4 134.35 91.75 134.1 91.95 134.3 92.3 134.6 91.55 138.3 88.2 138.35 88.2 138.8 89.4 139.25 90.65 Q139.55 92.0 139.7 92.0 L139.75 92.0 139.7 91.05 Q139.6 90.0 139.8 89.65 L140.9 89.2 141.95 88.95 142.45 88.8 M143.3 94.6 L143.65 95.0 141.4 95.7 Q139.75 96.3 139.75 96.8 139.75 97.8 141.85 97.6 L143.0 97.5 145.1 97.25 145.9 97.1 145.9 96.95 146.0 98.0 145.95 97.3 145.9 97.35 144.65 97.55 145.7 97.35 145.65 97.3 144.95 97.25 143.0 97.5 142.5 97.8 142.1 97.85 140.8 101.75 136.5 101.7 136.4 100.4 136.25 99.55 136.2 98.7 Q136.35 98.45 136.95 98.15 L137.65 97.55 137.85 97.05 137.75 97.05 138.2 95.55 137.85 97.05 143.35 94.7 143.3 94.6 M143.3 101.7 L142.7 101.95 143.0 101.75 143.3 101.7 M141.5 108.85 L140.95 110.2 139.75 111.55 140.85 110.3 140.95 110.2 141.15 109.8 140.75 109.85 137.7 110.1 136.05 110.15 135.45 110.2 135.0 110.3 134.85 110.2 135.45 110.2 135.65 110.1 135.45 110.1 135.65 109.8 135.65 108.65 135.4 107.95 Q134.05 107.35 133.25 106.35 L130.15 104.65 132.2 107.0 Q133.35 108.5 133.35 109.6 L134.7 110.0 134.55 110.0 134.6 110.2 134.15 110.25 133.2 111.05 132.35 111.95 132.2 112.05 Q129.95 112.4 128.6 110.15 L128.4 110.85 128.3 110.8 Q127.75 111.05 127.1 111.85 L126.0 113.05 Q124.95 113.4 123.95 112.7 L122.1 115.8 120.0 118.55 122.15 117.9 122.45 118.85 121.5 119.25 119.95 119.0 119.85 119.1 119.7 117.9 119.4 117.3 119.35 117.2 Q119.85 116.3 121.5 114.85 123.15 113.4 123.45 112.6 121.4 111.45 118.05 111.45 L117.7 111.45 118.6 111.05 118.9 111.05 120.95 111.4 122.8 112.1 123.15 111.65 Q123.15 111.15 123.5 110.55 L123.6 109.0 Q124.1 108.35 124.3 107.1 124.5 105.8 124.8 105.45 L124.8 105.3 125.0 105.25 124.8 105.45 Q124.9 107.5 124.45 109.0 L123.5 110.6 123.15 111.75 123.15 112.15 Q124.05 111.4 124.9 111.1 L127.1 110.8 126.1 110.1 Q125.5 109.75 125.25 109.0 125.05 108.3 125.15 106.5 L126.7 106.45 Q126.9 107.4 127.55 108.3 L127.95 110.65 129.55 107.2 129.65 106.3 129.55 107.4 130.15 106.15 129.65 106.3 129.65 106.0 129.55 106.0 129.05 106.0 129.4 105.75 128.05 105.25 126.6 104.9 126.05 104.9 126.3 104.8 126.6 104.9 127.25 104.95 127.95 102.8 128.45 100.65 Q127.75 100.6 126.9 101.15 L125.5 102.1 125.5 102.05 125.55 102.05 126.9 101.1 Q127.75 100.55 128.45 100.6 L128.65 99.8 128.7 99.2 128.65 100.05 129.05 99.0 129.1 98.95 128.9 100.7 130.45 99.75 Q131.45 99.0 131.95 98.8 L130.9 99.85 129.65 100.5 Q129.55 101.55 130.15 103.3 L132.15 103.15 134.0 102.7 134.45 102.0 Q134.65 102.0 134.5 100.45 L134.1 99.3 132.6 98.6 133.45 98.5 134.1 99.3 134.45 99.5 134.7 101.95 134.65 103.3 135.65 103.15 135.65 103.2 133.15 103.65 130.5 104.0 131.8 104.95 132.9 106.1 133.1 105.95 133.4 106.35 135.65 107.95 138.35 108.45 141.55 108.35 141.5 108.85 M136.3 113.6 L136.25 113.7 136.15 113.45 136.3 113.6 M136.0 114.2 L134.1 117.7 135.85 114.4 136.0 114.2 M132.2 120.0 L130.15 120.95 130.55 120.75 132.2 120.0 M9.6 109.2 Q8.7 108.65 8.6 107.8 L8.9 108.5 9.15 108.8 9.6 109.2 M12.0 97.1 L11.5 97.9 12.4 96.6 12.8 96.3 12.0 97.1 M10.9 98.9 Q9.9 96.25 10.05 95.2 L10.1 95.9 10.85 94.95 11.25 93.65 11.55 93.55 11.8 94.9 11.45 96.15 Q11.05 96.75 10.3 96.9 L10.9 98.9 M115.15 101.25 L115.45 101.3 116.3 102.25 116.45 102.3 117.15 103.1 119.55 105.3 119.45 105.3 119.15 105.0 118.9 105.15 117.75 106.2 Q115.95 106.65 112.6 102.7 L112.55 102.1 112.75 102.0 113.05 101.8 Q115.7 102.45 118.65 104.8 L116.3 102.25 Q115.85 102.15 115.15 101.25 M116.8 101.3 L117.05 101.25 117.25 101.25 118.05 100.95 118.45 100.75 Q117.75 101.3 116.8 101.3 M118.75 100.5 L119.2 99.8 119.65 98.65 119.95 98.65 Q121.2 98.65 122.05 97.75 122.85 97.0 122.95 95.9 L122.95 95.75 122.95 95.65 122.9 95.15 122.9 95.05 123.6 95.2 123.3 95.15 123.3 95.6 Q123.25 97.4 122.1 101.4 L121.4 102.35 118.75 100.5 M124.9 94.15 L125.1 94.1 125.1 94.05 126.5 95.45 Q127.45 96.2 128.2 96.35 127.1 96.3 126.35 95.7 L124.9 94.15 M124.7 94.2 L124.4 94.75 124.05 95.05 124.3 94.8 124.7 94.2 M128.6 96.4 L128.85 96.35 128.85 96.4 128.6 96.4 M135.5 94.05 L135.6 94.1 135.8 94.15 135.65 94.25 135.5 94.1 135.45 94.1 135.5 94.05 M135.65 95.25 L135.8 96.35 135.65 96.35 135.65 95.25 M135.65 96.4 L135.65 96.45 135.55 96.45 135.4 96.45 135.65 96.4 M134.8 96.5 L134.05 96.6 132.5 96.75 131.8 97.3 131.75 97.35 129.85 95.35 Q131.1 96.4 132.0 96.65 L132.35 96.75 132.5 96.75 133.85 96.6 134.8 96.5 M14.4 93.4 L15.45 93.45 15.1 93.5 15.25 94.6 17.2 94.75 18.65 94.4 19.1 94.2 19.0 94.35 18.05 94.7 17.2 94.75 Q15.85 95.2 15.05 95.7 L15.15 95.8 15.3 95.8 13.35 96.1 14.05 95.9 14.9 95.8 15.05 95.7 14.65 95.0 14.05 93.45 13.0 93.35 13.2 93.35 14.4 93.4 M19.1 94.2 L19.25 93.1 22.65 93.2 22.8 93.2 23.85 93.5 23.05 94.25 22.95 94.3 21.7 94.1 20.3 93.85 19.1 94.2 M24.2 93.5 L24.4 93.5 24.9 93.45 25.3 93.3 25.45 93.25 25.5 93.25 Q26.85 94.1 28.15 94.25 L26.95 94.0 26.95 94.15 Q28.05 95.15 31.7 95.9 L31.6 96.1 31.4 97.05 31.3 96.65 29.3 96.2 27.4 95.7 25.35 95.9 25.45 95.3 24.5 95.3 24.2 93.5 M28.55 92.95 L28.55 92.9 31.15 92.7 33.3 92.5 32.9 93.0 32.85 93.0 32.8 93.15 31.65 94.0 29.95 93.75 28.3 93.6 Q28.3 93.3 28.55 92.95 M21.6 95.7 Q22.9 96.0 24.05 96.55 L24.15 96.65 22.95 96.15 21.6 95.7 M25.2 96.45 L25.3 96.2 28.35 97.0 31.4 97.3 31.4 97.45 31.85 97.55 31.9 97.6 32.25 97.65 30.3 98.05 Q29.9 99.75 31.75 99.4 L31.6 99.5 31.5 100.05 31.35 100.6 29.9 100.8 28.3 100.65 28.3 100.8 27.3 100.45 26.75 101.15 Q27.1 101.7 27.55 101.55 L28.25 100.85 Q28.0 102.15 25.95 101.9 L22.65 101.45 21.55 100.8 21.6 100.75 22.9 100.25 23.8 101.3 26.3 101.15 Q25.3 100.5 24.7 100.3 L23.05 100.15 23.15 100.1 24.0 99.5 24.65 98.85 25.35 98.85 28.4 99.1 27.15 99.7 28.55 100.65 30.45 100.65 28.75 99.1 29.55 99.1 27.5 97.4 Q26.3 96.55 25.2 96.45 M24.7 96.15 L24.5 96.15 24.8 96.1 24.7 96.15 M26.95 94.15 L26.8 93.95 25.85 93.5 Q26.2 94.85 26.95 94.8 L26.95 94.15 M43.3 92.15 L39.45 92.25 39.3 92.15 37.6 92.05 40.25 91.75 41.4 91.7 43.3 92.15 M45.15 91.65 L45.3 91.65 45.55 91.95 45.65 92.0 45.95 92.3 46.15 92.55 45.7 92.55 45.8 92.2 45.75 92.15 44.3 92.15 44.8 91.95 45.15 91.65 M22.35 101.65 L21.95 101.6 22.0 101.55 22.35 101.6 22.35 101.65 M13.7 106.05 L14.05 105.95 13.8 106.05 13.5 106.2 13.7 106.05 M40.15 93.5 L40.05 93.5 40.65 93.35 40.85 93.35 40.25 93.5 40.15 93.5 M43.45 92.75 L40.85 93.35 43.05 92.8 43.45 92.75 M58.3 104.65 L58.35 104.6 Q58.85 105.15 59.7 105.25 L60.25 105.3 60.3 105.3 59.3 106.25 58.3 107.0 Q57.8 107.0 57.65 107.15 L57.6 107.55 57.4 107.95 56.55 108.0 55.7 107.65 55.4 108.4 55.35 108.7 55.3 108.65 Q55.7 107.3 56.55 106.25 57.05 105.55 57.7 105.0 L58.3 104.65 M60.45 105.3 L60.5 105.3 Q59.8 106.55 58.4 107.8 L57.5 108.5 56.75 108.6 57.5 108.45 Q57.75 108.4 58.4 107.75 L60.45 105.3 M20.55 100.9 L19.8 101.5 20.15 101.3 19.25 101.0 20.55 100.9 M16.4 102.7 L15.9 102.8 15.45 102.65 16.0 102.1 16.0 102.15 16.4 102.7 M29.55 99.1 L30.3 99.8 29.95 99.15 29.55 99.1 M20.8 101.15 L20.8 101.0 21.3 101.0 22.1 101.2 22.1 101.3 21.3 101.15 20.8 101.15 M13.05 106.45 L12.5 106.75 12.75 106.55 13.05 106.45 M141.55 104.1 L139.45 105.05 137.3 106.0 137.0 106.15 137.9 105.6 133.8 105.5 Q135.2 104.6 136.0 104.5 136.35 106.2 140.9 104.15 L141.55 104.1 M139.95 106.85 L140.5 107.0 Q141.0 107.2 141.25 107.55 140.85 107.05 139.95 106.85 M136.0 104.5 L136.0 104.45 136.6 104.45 136.0 104.5 M126.2 116.6 Q128.05 115.9 129.45 114.85 L130.55 115.6 130.65 115.55 131.95 113.15 131.25 113.0 131.3 113.0 131.6 112.8 133.3 113.25 135.7 113.5 Q134.75 114.1 133.4 114.55 L131.0 115.35 130.65 115.55 130.6 115.65 130.55 115.6 128.95 116.9 Q127.95 117.7 127.4 117.7 L126.9 117.7 126.45 117.55 125.4 117.0 124.95 117.2 124.95 117.05 125.3 116.95 126.2 116.6 M128.65 100.65 L128.65 100.05 128.45 100.65 128.65 100.65 M129.55 107.4 L128.4 109.7 129.2 110.95 129.55 107.4 M123.15 117.5 L123.35 117.55 123.1 117.6 123.15 117.5 M123.4 119.9 L124.5 120.2 124.65 120.25 124.65 120.3 Q124.5 122.25 123.65 123.2 122.9 124.1 121.9 123.8 122.25 123.35 122.6 121.7 122.9 120.3 123.4 119.9 M117.15 111.45 L117.25 111.6 117.0 111.3 117.15 111.45 M116.55 112.7 Q118.25 112.95 118.95 113.8 119.35 114.3 119.4 115.35 L119.3 117.2 118.8 116.8 117.15 116.1 116.2 115.45 Q115.8 114.9 115.85 114.15 115.9 113.4 116.4 112.85 L116.55 112.7 M119.05 120.7 L118.6 121.25 119.2 120.5 119.05 120.7 M116.7 110.95 L116.9 111.2 115.85 110.15 114.8 109.0 115.5 109.75 116.7 110.95" fill="#59594d" fill-rule="evenodd" stroke="none"/>
      <path d="M63.4 112.3 L63.5 112.15 63.85 112.55 63.9 112.65 64.3 113.2 64.3 113.15 65.45 115.15 66.6 117.0 Q67.7 118.35 69.8 118.35 L73.75 117.9 69.65 118.65 Q67.25 118.65 65.9 117.35 67.25 118.7 69.65 118.7 L73.75 118.0 74.15 118.0 77.55 118.0 75.8 118.45 73.8 119.2 Q74.0 119.15 74.55 118.85 74.8 118.7 75.2 118.45 L75.95 118.15 75.2 118.4 73.8 119.05 71.85 119.55 71.45 119.7 69.45 120.5 Q68.35 120.8 67.2 120.5 63.1 119.45 63.4 112.95 L63.4 112.9 63.4 112.3 M96.6 118.15 Q95.25 118.05 94.6 117.3 L93.9 115.55 93.6 113.6 Q93.45 111.6 94.55 108.5 L94.9 107.4 Q95.9 104.5 95.95 102.75 L95.85 110.15 Q96.25 115.05 99.0 115.95 L101.6 116.25 101.6 116.4 101.65 116.25 104.35 115.25 Q105.55 114.4 106.5 112.9 L107.8 110.3 108.3 107.55 108.3 107.45 108.3 107.35 108.3 107.15 108.3 106.95 108.3 106.5 109.6 108.75 110.65 111.0 Q110.9 111.95 110.6 113.75 110.25 115.75 110.35 116.6 L113.05 116.9 115.75 117.3 116.2 115.45 117.15 116.1 118.8 116.8 Q119.05 117.5 119.7 117.9 L119.85 119.1 119.8 119.1 119.4 120.2 119.3 120.3 119.2 120.5 118.6 121.25 Q117.85 121.55 117.55 121.95 L117.35 122.7 117.2 123.45 116.95 123.75 115.1 125.2 114.0 125.95 113.35 126.5 112.9 128.2 Q112.65 129.15 111.65 129.05 L112.05 129.15 107.6 129.15 105.3 128.8 105.3 129.1 101.05 129.25 98.4 129.9 95.8 130.55 90.15 131.4 85.9 131.9 84.45 132.05 83.7 132.15 81.8 132.35 81.6 132.4 67.5 133.65 60.25 133.25 Q57.05 132.3 54.3 129.55 L52.75 128.05 51.45 127.0 51.25 126.9 50.8 126.65 Q49.7 126.15 47.6 125.95 L37.55 125.6 27.55 124.7 23.1 123.75 Q20.3 123.05 18.9 122.1 L17.55 120.8 16.35 119.45 Q14.8 118.2 12.8 117.3 L11.3 116.65 Q12.25 114.8 15.05 113.15 L19.35 110.2 19.25 110.7 19.1 111.2 Q18.4 111.9 18.05 112.6 L16.65 113.8 Q15.85 114.55 15.65 115.25 15.3 116.25 15.95 117.05 16.6 118.0 18.9 118.95 L19.4 118.45 Q20.9 121.35 24.45 121.5 27.15 121.6 30.65 120.15 30.55 122.1 30.85 122.7 31.25 123.5 33.05 124.05 L33.35 124.1 Q35.85 124.85 37.85 124.15 L40.25 123.25 Q41.65 122.65 42.8 122.5 L44.15 122.55 45.4 122.25 Q46.1 121.75 46.8 119.45 47.5 117.2 47.35 116.25 45.85 116.7 44.0 118.0 L41.0 119.65 39.25 120.0 Q40.4 119.6 41.6 117.75 43.05 115.5 43.6 115.0 44.1 114.5 44.95 114.35 L47.25 114.05 49.6 113.95 Q49.55 113.15 50.6 110.75 L52.1 107.45 52.15 112.7 51.6 115.05 51.1 117.2 Q51.05 118.4 51.95 119.4 51.6 120.2 51.5 121.35 L51.65 124.95 52.6 124.7 Q52.55 122.55 52.65 121.65 52.75 120.95 53.15 120.45 L54.55 121.8 55.15 123.8 Q55.45 125.25 55.85 125.95 L57.3 129.1 58.05 130.25 Q59.1 131.4 61.75 131.6 L65.85 131.75 71.45 131.55 Q74.4 131.0 76.45 128.95 L74.15 126.75 Q77.2 127.95 81.05 130.15 82.65 131.1 85.4 131.3 L89.25 130.8 92.3 130.6 94.7 128.45 97.05 126.0 Q98.6 124.75 99.45 122.6 100.45 120.0 98.95 118.7 98.4 118.2 97.2 118.2 L96.6 118.15 M128.95 88.6 L130.9 87.7 131.25 87.5 131.35 88.2 130.7 88.35 130.7 88.4 130.65 88.4 129.3 88.5 128.95 88.6 M141.7 104.0 Q142.9 106.2 142.05 107.95 L141.5 108.85 141.55 108.35 141.25 107.55 Q141.0 107.2 140.5 107.0 L139.95 106.85 139.8 106.8 137.35 106.5 137.3 106.0 139.45 105.05 141.55 104.1 141.6 104.1 141.7 104.0 M122.85 94.8 L122.75 94.6 122.9 94.3 122.95 94.3 123.45 94.25 123.95 94.3 124.05 94.3 124.35 94.3 124.7 94.2 124.3 94.8 124.05 95.05 123.8 95.15 123.6 95.2 122.9 95.05 122.85 94.8 M126.85 92.1 L126.75 94.25 126.45 94.1 126.4 94.1 125.45 93.9 126.05 93.4 Q126.65 92.85 126.85 92.1 M36.55 98.1 Q37.6 98.35 39.65 99.2 L41.75 99.35 43.65 98.25 43.55 98.65 43.4 99.5 Q43.3 102.4 39.5 100.5 35.45 97.95 34.7 98.0 L36.55 98.1 M117.25 111.6 L117.3 111.7 117.35 111.75 116.8 112.4 116.65 112.55 116.9 111.2 117.0 111.3 117.25 111.6 M110.4 120.0 L109.4 118.75 Q108.95 119.7 106.9 120.65 105.05 121.45 104.9 122.5 104.6 125.1 109.1 124.5 L110.8 124.0 Q111.5 123.55 111.65 122.5 111.7 121.65 111.25 121.15 L110.4 120.0 M114.4 123.4 L115.55 123.45 Q117.85 122.7 116.15 121.5 L114.65 122.0 Q114.0 123.0 114.4 123.4 M110.25 124.7 L110.6 124.75 110.5 124.5 110.25 124.7" fill="#343431" fill-rule="evenodd" stroke="none"/>
      <path d="M72.75 100.85 L75.4 100.15 73.35 101.45 72.75 100.85 M72.75 101.85 L71.9 102.25 70.1 102.35 68.15 102.25 Q68.25 103.1 67.5 104.6 L66.05 106.65 Q65.9 106.25 65.9 105.05 L65.55 103.6 65.5 103.55 66.1 103.1 66.35 102.75 67.55 101.9 Q71.2 102.5 72.75 101.85 M57.8 115.75 L57.95 116.0 59.4 117.65 Q60.1 118.55 60.3 119.65 L59.25 124.95 Q58.6 127.85 61.55 128.85 64.8 129.9 67.55 128.9 70.7 127.75 70.9 124.45 L66.05 124.6 64.85 122.25 67.7 122.15 Q69.55 122.0 70.25 122.6 L71.1 124.2 71.5 125.2 72.2 126.95 72.4 127.95 72.4 128.0 Q72.35 129.1 71.9 129.55 71.55 129.9 70.25 130.3 68.5 130.85 62.95 130.3 L60.15 129.55 57.45 128.4 57.45 124.95 57.55 121.65 58.0 120.05 Q58.15 119.35 57.8 118.3 L57.45 117.55 57.8 115.75 M62.0 116.8 Q61.55 115.3 62.05 114.3 L63.4 112.3 63.4 112.9 62.8 113.7 Q62.15 114.7 62.05 116.15 L62.0 116.65 62.0 116.7 62.0 116.8 M63.5 112.15 L63.95 111.1 63.9 112.5 63.85 112.55 63.5 112.15 M78.4 117.4 L77.25 117.3 78.4 116.6 Q78.45 115.9 78.75 115.5 L79.85 114.4 80.9 113.45 Q81.25 113.1 81.4 112.0 81.6 110.35 80.8 108.3 L79.45 104.75 Q81.8 105.65 84.1 103.95 85.65 102.85 87.5 100.15 87.15 104.15 86.3 105.65 85.0 108.0 81.6 107.35 L82.3 111.35 Q82.9 113.85 82.7 115.3 L81.85 118.05 Q81.1 120.05 80.6 120.65 L78.8 121.6 78.65 122.05 77.2 123.85 Q76.4 124.75 76.5 125.65 74.55 123.25 74.95 121.9 75.15 121.25 76.35 120.15 L78.2 118.2 78.6 117.45 78.4 117.4 M79.15 128.15 L83.35 128.65 Q85.6 128.6 86.6 128.0 L87.55 126.75 88.35 125.3 Q89.3 124.05 91.35 123.15 94.15 121.85 94.6 121.55 96.3 120.4 96.6 118.15 L97.2 118.2 97.65 120.25 Q97.8 123.15 96.3 123.45 93.5 124.05 92.7 124.75 92.35 125.05 92.1 125.95 L91.55 127.15 Q90.9 127.85 89.4 128.2 L86.95 128.65 Q81.9 129.55 79.95 128.65 L79.15 128.15 M97.15 104.5 Q97.6 105.8 99.5 109.2 101.15 112.1 101.5 114.0 L101.4 114.0 Q97.9 113.6 97.2 110.6 96.95 109.65 97.15 104.5 M101.65 114.0 L101.55 114.0 Q101.45 112.75 101.65 112.0 L101.65 111.0 101.95 110.0 Q102.25 109.55 103.0 109.2 106.45 109.4 106.65 107.45 106.7 106.7 106.0 105.35 L105.95 105.3 106.6 105.6 106.85 105.65 106.9 105.65 107.25 105.65 107.3 105.65 108.3 105.5 108.3 106.5 108.25 106.4 108.3 106.95 107.95 108.65 Q107.45 110.35 106.45 111.65 L105.65 112.45 Q103.8 114.15 101.65 114.0 M7.25 115.45 L8.45 114.4 8.55 114.25 9.5 114.25 10.95 114.0 11.65 113.7 Q9.8 115.05 7.25 115.45 M14.4 93.4 L14.3 93.25 17.65 93.0 17.75 93.0 17.15 93.2 15.45 93.45 14.4 93.4 M15.3 95.8 L16.75 95.75 16.35 96.1 Q15.8 96.85 15.9 98.65 L15.3 95.9 15.3 95.8 M24.4 93.5 L24.9 93.4 24.9 93.45 24.4 93.5 M24.6 96.9 L24.65 96.95 24.65 98.85 24.0 99.5 23.15 100.1 24.6 96.9 M35.5 92.2 L35.35 92.25 35.3 92.2 35.5 92.2 M34.4 98.45 L33.8 98.15 33.7 98.15 34.1 98.05 35.7 97.8 36.55 98.1 34.7 98.0 Q35.45 97.95 39.5 100.5 43.3 102.4 43.4 99.5 L43.55 98.65 43.8 97.8 Q43.0 96.2 40.45 94.9 L37.4 93.45 37.6 93.45 40.05 93.5 40.15 93.5 42.8 94.5 Q46.35 95.85 48.7 95.45 L48.75 95.9 48.85 96.5 48.95 97.0 49.05 97.75 49.45 98.65 49.95 99.2 49.95 99.25 48.3 100.1 Q46.85 100.35 46.45 101.05 43.75 102.65 43.35 104.5 L43.25 105.1 42.6 106.75 42.1 107.3 40.75 108.3 Q39.9 108.85 39.6 109.45 39.2 110.25 38.55 113.35 L38.6 114.5 38.65 115.6 Q40.95 116.15 44.05 113.3 L48.9 108.8 52.2 106.45 49.95 110.0 47.25 112.05 Q45.85 113.1 44.95 114.35 44.1 114.5 43.6 115.0 43.05 115.5 41.6 117.75 40.4 119.6 39.25 120.0 L41.0 119.65 Q39.8 120.35 37.1 120.3 38.0 121.8 40.9 121.4 L45.15 120.35 Q45.45 121.5 44.15 122.55 L42.8 122.5 Q41.65 122.65 40.25 123.25 L37.85 124.15 Q35.85 124.85 33.35 124.1 L33.25 124.05 Q31.1 122.55 32.8 120.1 L35.25 116.25 Q34.0 116.25 31.3 117.55 28.5 118.95 26.95 119.0 23.4 119.1 20.95 117.35 20.25 118.5 18.6 118.3 17.1 118.15 15.95 117.05 15.3 116.25 15.65 115.25 15.85 114.55 16.65 113.8 L18.05 112.6 Q17.2 114.2 17.35 116.6 18.85 116.95 19.55 115.7 L20.55 113.35 Q20.75 115.5 20.9 115.8 21.25 116.5 23.15 116.9 L27.4 117.35 31.6 117.0 Q32.6 116.75 34.1 115.65 L36.55 114.0 35.85 112.7 34.4 111.8 35.9 111.85 37.4 111.7 38.4 110.2 39.15 108.45 40.75 105.9 Q41.0 105.2 40.6 103.0 L37.15 102.95 36.7 100.85 Q36.45 99.5 35.85 99.0 35.4 98.6 34.45 98.45 L34.4 98.45 M21.35 103.05 L21.65 103.05 23.25 103.2 21.75 105.8 Q20.05 108.15 17.6 109.0 15.9 109.6 14.65 110.75 L12.2 113.25 12.15 113.3 12.7 112.15 13.35 110.65 15.6 108.3 Q16.65 107.3 16.35 105.35 19.3 105.5 21.35 103.05 M24.2 103.3 L24.35 103.3 24.2 103.9 Q23.4 107.6 20.95 109.55 L19.1 111.2 19.25 110.7 Q21.75 108.75 23.05 106.4 23.9 104.85 24.2 103.3 M56.3 101.65 L56.6 102.15 56.6 102.2 56.55 106.25 Q55.7 107.3 55.3 108.65 L55.2 109.2 55.15 109.3 Q55.2 105.95 56.3 101.7 L56.3 101.65" fill="#797871" fill-rule="evenodd" stroke="none"/>
      <path d="M68.1 101.05 L68.75 101.05 Q71.4 101.05 72.4 100.5 L72.75 100.85 73.35 101.45 72.75 101.85 Q71.2 102.5 67.55 101.9 L68.05 101.05 68.1 101.05 M64.85 122.25 L64.0 121.95 Q63.6 121.7 62.8 119.7 62.05 117.85 62.0 117.3 L62.0 116.8 62.0 116.7 62.0 116.65 62.05 116.15 Q62.15 114.7 62.8 113.7 L63.4 112.95 Q63.1 119.45 67.2 120.5 68.35 120.8 69.45 120.5 L71.45 119.75 73.8 119.05 74.55 118.85 Q74.0 119.15 73.8 119.2 L75.8 118.45 77.55 118.0 74.15 118.0 77.25 117.45 78.4 117.4 78.4 117.75 78.2 118.2 76.35 120.15 Q75.15 121.25 74.95 121.9 74.55 123.25 76.5 125.65 L79.15 128.15 79.95 128.65 Q81.9 129.55 86.95 128.65 L89.4 128.2 Q90.9 127.85 91.55 127.15 L92.1 125.95 Q92.35 125.05 92.7 124.75 93.5 124.05 96.3 123.45 97.8 123.15 97.65 120.25 L97.2 118.2 Q98.4 118.2 98.95 118.7 100.45 120.0 99.45 122.6 98.6 124.75 97.05 126.0 L94.7 128.45 92.3 130.6 89.25 130.8 85.4 131.3 Q82.65 131.1 81.05 130.15 77.2 127.95 74.15 126.75 L76.45 128.95 Q74.4 131.0 71.45 131.55 L65.85 131.75 61.75 131.6 Q59.1 131.4 58.05 130.25 L57.3 129.1 55.85 125.95 Q55.45 125.25 55.15 123.8 L54.55 121.8 53.15 120.45 Q53.6 119.85 54.4 119.5 L56.05 119.05 57.2 118.0 57.45 117.55 57.8 118.3 Q58.15 119.35 58.0 120.05 L57.55 121.65 57.45 124.95 57.45 128.4 60.15 129.55 62.95 130.3 Q68.5 130.85 70.25 130.3 71.55 129.9 71.9 129.55 72.35 129.1 72.4 128.0 L72.4 127.95 72.2 126.95 71.5 125.2 71.1 124.2 70.25 122.6 Q69.55 122.0 67.7 122.15 L64.85 122.25 M63.9 112.5 L64.25 112.35 64.3 113.15 63.9 112.65 63.9 112.5 M94.55 108.5 Q94.35 102.5 96.55 100.1 L96.65 100.3 96.7 100.45 Q97.25 101.9 97.15 104.5 96.95 109.65 97.2 110.6 97.9 113.6 101.4 114.0 L101.5 114.0 101.55 114.1 101.65 115.0 101.65 114.0 Q103.8 114.15 105.65 112.45 L106.45 111.65 Q107.5 110.35 108.0 108.65 L108.3 106.95 108.3 107.15 108.3 107.35 108.3 107.45 108.3 107.55 107.8 110.3 106.5 112.9 Q105.55 114.4 104.35 115.25 L101.65 116.25 101.6 116.25 99.0 115.95 Q96.25 115.05 95.85 110.15 L95.95 102.75 Q95.9 104.5 94.9 107.4 L94.55 108.5 M11.3 116.65 L10.25 116.3 7.1 115.55 7.25 115.45 Q9.8 115.05 11.65 113.7 L12.15 113.3 12.2 113.25 14.65 110.75 Q15.9 109.6 17.6 109.0 20.05 108.15 21.75 105.8 L23.25 103.2 24.2 103.3 Q23.9 104.85 23.05 106.4 21.75 108.75 19.25 110.7 L19.35 110.2 15.05 113.15 Q12.25 114.8 11.3 116.65 M40.25 93.5 L40.85 93.35 43.45 92.75 45.65 92.55 45.7 92.55 46.15 92.55 45.95 92.3 47.7 94.2 48.7 95.3 48.7 95.4 Q46.35 95.85 42.8 94.45 L40.25 93.5 M55.3 100.8 L55.35 100.75 55.45 100.8 55.6 100.85 55.8 100.9 56.0 101.15 56.15 101.4 56.2 101.5 56.25 101.55 56.3 101.65 56.3 101.7 Q55.2 105.95 55.15 109.3 L55.15 109.4 55.1 109.45 55.05 109.75 Q54.75 111.5 54.85 112.7 L55.35 114.25 Q55.7 115.2 55.65 115.75 55.55 116.75 54.55 117.2 53.0 117.95 52.8 118.15 52.25 118.65 51.95 119.4 51.05 118.4 51.1 117.2 L51.6 115.05 52.15 112.7 52.1 107.45 50.6 110.75 Q49.55 113.15 49.6 113.95 L47.25 114.05 44.95 114.35 Q45.85 113.1 47.25 112.05 L49.95 110.0 52.2 106.45 53.9 102.95 Q54.8 101.2 55.3 100.8 M15.95 117.05 Q17.1 118.15 18.6 118.3 20.25 118.5 20.95 117.35 23.4 119.1 26.95 119.0 28.5 118.95 31.3 117.55 34.0 116.25 35.25 116.25 L32.8 120.1 Q31.1 122.55 33.25 124.05 L33.35 124.1 33.05 124.05 Q31.25 123.5 30.85 122.7 30.55 122.1 30.65 120.15 27.15 121.6 24.45 121.5 20.9 121.35 19.4 118.45 L18.9 118.95 Q16.6 118.0 15.95 117.05 M44.15 122.55 Q45.45 121.5 45.15 120.35 L40.9 121.4 Q38.0 121.8 37.1 120.3 39.8 120.35 41.0 119.65 L44.0 118.0 Q45.85 116.7 47.35 116.25 47.5 117.2 46.8 119.45 46.1 121.75 45.4 122.25 L44.15 122.55 M137.0 106.15 L137.3 106.0 137.35 106.5 136.6 106.45 136.7 106.4 137.0 106.15 M116.65 112.55 L116.5 112.7 116.55 112.7 116.4 112.85 Q115.9 113.4 115.85 114.15 115.8 114.9 116.2 115.45 L115.75 117.3 113.05 116.9 110.35 116.6 Q110.25 115.75 110.6 113.75 110.9 111.95 110.65 111.0 L109.6 108.75 108.3 106.5 108.3 105.5 109.65 105.2 109.2 105.25 Q110.35 105.1 111.1 104.35 111.9 103.55 111.95 102.4 L112.75 102.0 112.55 102.1 112.6 102.7 112.55 102.65 113.25 105.75 113.85 107.2 114.4 108.4 114.8 109.0 115.85 110.15 116.9 111.2 116.65 112.55 M119.3 117.2 L119.3 117.25 119.35 117.2 119.4 117.3 119.7 117.9 Q119.05 117.5 118.8 116.8 L119.3 117.2 M110.4 120.0 L111.25 121.15 Q111.7 121.65 111.65 122.5 111.5 123.55 110.8 124.0 L109.1 124.5 Q104.6 125.1 104.9 122.5 105.05 121.45 106.9 120.65 108.95 119.7 109.4 118.75 L110.4 120.0 M114.4 123.4 Q114.0 123.0 114.65 122.0 L116.15 121.5 Q117.85 122.7 115.55 123.45 L114.4 123.4" fill="#616059" fill-rule="evenodd" stroke="none"/>
      <path d="M50.05 130.3 Q49.0 131.35 48.65 130.9 L47.95 129.65 48.65 129.65 49.45 129.7 Q49.9 129.6 50.05 130.3" fill="url(#gradient0)" fill-rule="evenodd" stroke="none"/>
      <path d="M45.95 129.65 L41.6 129.8 Q39.3 129.3 37.2 128.3 38.5 127.5 41.6 127.5 L46.65 127.65 45.95 129.65" fill="url(#gradient1)" fill-rule="evenodd" stroke="none"/>
      <path d="M61.2 134.25 L65.95 134.3 65.95 135.65 61.25 135.4 56.6 134.85 Q58.4 134.3 61.2 134.25" fill="url(#gradient2)" fill-rule="evenodd" stroke="none"/>
      <path d="M4.65 112.3 Q2.6 114.5 0.0 114.15 1.95 112.45 3.3 110.3 L4.65 112.3" fill="url(#gradient3)" fill-rule="evenodd" stroke="none"/>
      <path d="M12.75 122.7 L8.35 119.65 Q5.85 117.8 3.1 118.3 L5.75 117.65 8.65 117.0 10.65 119.65 12.55 120.85 12.75 121.05 12.65 121.0 12.75 122.7" fill="url(#gradient4)" fill-rule="evenodd" stroke="none"/>
      <path d="M12.75 122.7 L12.65 121.0 12.75 121.05 14.65 122.3 15.25 123.0 Q15.55 123.45 15.2 124.25 13.5 124.15 12.95 123.35 L12.75 122.7" fill="url(#gradient5)" fill-rule="evenodd" stroke="none"/>
      <path d="M125.45 126.2 Q128.25 124.35 131.25 121.35 L140.6 111.9 Q142.1 110.2 143.1 106.9 144.1 103.6 145.4 102.8 L149.1 102.7 Q153.2 104.05 155.2 103.75 155.4 105.75 153.5 106.65 150.2 108.1 149.95 108.3 148.3 109.75 147.8 111.9 L146.65 115.65 Q145.95 117.05 140.75 120.3 136.3 123.1 136.55 125.55 L119.5 130.05 Q105.85 133.25 105.3 129.1 L105.3 128.8 107.6 129.15 112.05 129.15 117.1 129.15 Q121.0 129.15 125.45 126.2 M110.25 124.7 L110.5 124.5 110.6 124.75 110.25 124.7" fill="url(#gradient6)" fill-rule="evenodd" stroke="none"/>
      <path d="M141.15 124.95 Q139.5 126.2 137.35 125.5 138.25 124.6 140.2 123.5 L143.3 121.65 Q142.7 123.85 141.15 124.95" fill="url(#gradient7)" fill-rule="evenodd" stroke="none"/>
      <path d="M96.7 132.3 L100.65 133.0 101.9 133.0 103.1 133.25 Q101.65 134.4 98.85 134.5 L94.0 134.2 96.7 132.3" fill="url(#gradient8)" fill-rule="evenodd" stroke="none"/>
      <path d="M85.3 133.65 L85.3 135.65 81.65 136.35 Q79.6 136.45 78.7 135.1 81.35 135.3 85.3 133.65" fill="url(#gradient9)" fill-rule="evenodd" stroke="none"/>
      <path d="M106.45 133.7 L107.3 133.65 108.65 133.0 107.65 134.8 Q107.1 135.35 105.85 134.3 106.0 133.6 106.45 133.7" fill="url(#gradient10)" fill-rule="evenodd" stroke="none"/>
    </g>
    <linearGradient gradientTransform="matrix(0.0013, 0.0, 0.0, -0.0013, 49.0, 130.35)" gradientUnits="userSpaceOnUse" id="gradient0" spreadMethod="pad" x1="-819.2" x2="819.2">
      <stop offset="0.0" stop-color="#000000" stop-opacity="0.29803923"/>
      <stop offset="0.8588235294117647" stop-color="#000000" stop-opacity="0.29803923"/>
      <stop offset="1.0" stop-color="#000000" stop-opacity="0.29803923"/>
    </linearGradient>
    <linearGradient gradientTransform="matrix(0.0058, 0.0, 0.0, -0.0058, 41.9, 128.8)" gradientUnits="userSpaceOnUse" id="gradient1" spreadMethod="pad" x1="-819.2" x2="819.2">
      <stop offset="0.0" stop-color="#000000" stop-opacity="0.29803923"/>
      <stop offset="0.8588235294117647" stop-color="#000000" stop-opacity="0.29803923"/>
      <stop offset="1.0" stop-color="#000000" stop-opacity="0.29803923"/>
    </linearGradient>
    <linearGradient gradientTransform="matrix(0.0057, 0.0, 0.0, -0.0057, 61.25, 135.0)" gradientUnits="userSpaceOnUse" id="gradient2" spreadMethod="pad" x1="-819.2" x2="819.2">
      <stop offset="0.0" stop-color="#000000" stop-opacity="0.29803923"/>
      <stop offset="0.8588235294117647" stop-color="#000000" stop-opacity="0.29803923"/>
      <stop offset="1.0" stop-color="#000000" stop-opacity="0.29803923"/>
    </linearGradient>
    <linearGradient gradientTransform="matrix(0.0028, 0.0, 0.0, -0.0028, 2.3, 112.25)" gradientUnits="userSpaceOnUse" id="gradient3" spreadMethod="pad" x1="-819.2" x2="819.2">
      <stop offset="0.0" stop-color="#000000" stop-opacity="0.29803923"/>
      <stop offset="0.8588235294117647" stop-color="#000000" stop-opacity="0.29803923"/>
      <stop offset="1.0" stop-color="#000000" stop-opacity="0.29803923"/>
    </linearGradient>
    <linearGradient gradientTransform="matrix(0.0063, 0.0, 0.0, -0.0063, 8.0, 119.95)" gradientUnits="userSpaceOnUse" id="gradient4" spreadMethod="pad" x1="-819.2" x2="819.2">
      <stop offset="0.0" stop-color="#000000" stop-opacity="0.29803923"/>
      <stop offset="0.8588235294117647" stop-color="#000000" stop-opacity="0.29803923"/>
      <stop offset="1.0" stop-color="#000000" stop-opacity="0.29803923"/>
    </linearGradient>
    <linearGradient gradientTransform="matrix(0.0017, 0.0, 0.0, -0.0017, 14.0, 122.6)" gradientUnits="userSpaceOnUse" id="gradient5" spreadMethod="pad" x1="-819.2" x2="819.2">
      <stop offset="0.0" stop-color="#000000" stop-opacity="0.29803923"/>
      <stop offset="0.8588235294117647" stop-color="#000000" stop-opacity="0.29803923"/>
      <stop offset="1.0" stop-color="#000000" stop-opacity="0.29803923"/>
    </linearGradient>
    <linearGradient gradientTransform="matrix(0.0305, 0.0, 0.0, -0.0305, 130.25, 116.2)" gradientUnits="userSpaceOnUse" id="gradient6" spreadMethod="pad" x1="-819.2" x2="819.2">
      <stop offset="0.0" stop-color="#000000" stop-opacity="0.29803923"/>
      <stop offset="0.8588235294117647" stop-color="#000000" stop-opacity="0.29803923"/>
      <stop offset="1.0" stop-color="#000000" stop-opacity="0.29803923"/>
    </linearGradient>
    <linearGradient gradientTransform="matrix(0.0036, 0.0, 0.0, -0.0036, 140.35, 123.7)" gradientUnits="userSpaceOnUse" id="gradient7" spreadMethod="pad" x1="-819.2" x2="819.2">
      <stop offset="0.0" stop-color="#000000" stop-opacity="0.29803923"/>
      <stop offset="0.8588235294117647" stop-color="#000000" stop-opacity="0.29803923"/>
      <stop offset="1.0" stop-color="#000000" stop-opacity="0.29803923"/>
    </linearGradient>
    <linearGradient gradientTransform="matrix(0.0056, 0.0, 0.0, -0.0056, 98.55, 133.4)" gradientUnits="userSpaceOnUse" id="gradient8" spreadMethod="pad" x1="-819.2" x2="819.2">
      <stop offset="0.0" stop-color="#000000" stop-opacity="0.29803923"/>
      <stop offset="0.8588235294117647" stop-color="#000000" stop-opacity="0.29803923"/>
      <stop offset="1.0" stop-color="#000000" stop-opacity="0.29803923"/>
    </linearGradient>
    <linearGradient gradientTransform="matrix(0.004, 0.0, 0.0, -0.004, 82.0, 135.0)" gradientUnits="userSpaceOnUse" id="gradient9" spreadMethod="pad" x1="-819.2" x2="819.2">
      <stop offset="0.0" stop-color="#000000" stop-opacity="0.29803923"/>
      <stop offset="0.8588235294117647" stop-color="#000000" stop-opacity="0.29803923"/>
      <stop offset="1.0" stop-color="#000000" stop-opacity="0.29803923"/>
    </linearGradient>
    <linearGradient gradientTransform="matrix(0.0017, 0.0, 0.0, -0.0017, 107.25, 134.0)" gradientUnits="userSpaceOnUse" id="gradient10" spreadMethod="pad" x1="-819.2" x2="819.2">
      <stop offset="0.0" stop-color="#000000" stop-opacity="0.29803923"/>
      <stop offset="0.8588235294117647" stop-color="#000000" stop-opacity="0.29803923"/>
      <stop offset="1.0" stop-color="#000000" stop-opacity="0.29803923"/>
    </linearGradient>
  </defs>
</svg>
