<?xml version="1.0" encoding="UTF-8" standalone="no"?>
<svg xmlns:xlink="http://www.w3.org/1999/xlink" height="46.3px" width="30.2px" xmlns="http://www.w3.org/2000/svg">
  <g transform="matrix(1.0, 0.0, 0.0, 1.0, 0.0, 0.0)">
    <use height="46.3" transform="matrix(1.0, 0.0, 0.0, 1.0, 5.15, 0.0)" width="19.9" xlink:href="#sprite0"/>
    <use height="40.7" transform="matrix(1.0, 0.0, 0.0, 1.0, 0.0, 4.65)" width="30.2" xlink:href="#shape1"/>
  </g>
  <defs>
    <g id="sprite0" transform="matrix(1.0, 0.0, 0.0, 1.0, 0.0, 0.0)">
      <use height="46.3" transform="matrix(1.0, 0.0, 0.0, 1.0, 0.0, 0.0)" width="19.9" xlink:href="#shape0"/>
    </g>
    <g id="shape0" transform="matrix(1.0, 0.0, 0.0, 1.0, 0.0, 0.0)">
      <path d="M0.3 46.3 L0.0 0.15 19.6 0.0 19.9 46.15 0.3 46.3" fill="#ffeccd" fill-rule="evenodd" stroke="none"/>
    </g>
    <g id="shape1" transform="matrix(1.0, 0.0, 0.0, 1.0, 0.0, -4.65)">
      <path d="M30.2 7.9 L18.05 7.9 18.05 4.65 30.2 4.65 30.2 7.9" fill="#24200e" fill-rule="evenodd" stroke="none"/>
      <path d="M12.15 7.9 L0.0 7.9 0.0 4.65 12.15 4.65 12.15 7.9" fill="#24200e" fill-rule="evenodd" stroke="none"/>
      <path d="M11.2 25.95 Q11.2 26.2 11.25 25.85 L11.25 25.9 11.3 25.8 11.3 25.95 Q11.35 25.75 11.35 25.9 L11.4 25.95 11.5 25.95 11.45 26.2 11.85 26.0 11.85 26.25 11.95 26.05 11.95 26.25 12.0 26.05 12.0 26.35 12.1 26.1 12.05 26.25 12.15 26.2 12.1 26.3 Q12.15 26.45 12.2 26.25 L12.15 26.25 12.2 26.1 12.2 26.25 12.35 26.05 12.3 26.05 12.35 26.0 12.35 26.05 12.45 26.0 12.4 26.35 12.55 25.85 Q12.55 26.15 12.65 25.95 L12.55 26.35 12.55 26.6 12.6 26.6 12.8 26.0 12.7 26.4 12.9 25.8 12.85 26.0 12.95 25.8 12.95 26.05 12.9 26.2 12.95 26.1 12.95 26.15 13.05 25.9 13.0 25.95 13.05 25.85 13.05 25.9 13.15 25.7 13.1 25.95 13.3 25.5 13.25 25.7 13.3 25.7 13.35 25.75 13.4 25.6 13.4 25.75 13.45 25.7 13.45 25.75 Q13.65 25.35 13.65 25.7 L13.75 25.4 13.7 25.6 13.7 25.7 13.65 25.75 13.75 25.65 13.75 25.7 13.7 25.95 13.8 25.8 13.8 25.75 13.9 25.55 13.9 25.8 14.05 25.55 14.1 25.85 14.2 25.7 14.15 25.8 14.2 25.75 14.1 26.15 14.25 25.95 14.35 25.85 14.25 26.1 Q14.1 26.5 14.35 26.05 L14.5 25.8 14.5 25.9 14.6 25.75 14.7 25.9 14.65 26.2 14.75 26.15 14.75 26.1 14.75 26.15 14.65 26.3 14.8 26.15 Q14.95 25.9 15.0 26.0 L14.9 26.15 15.1 26.0 14.8 26.45 14.95 26.3 14.8 26.55 14.9 26.45 14.95 26.5 15.05 26.3 15.25 26.2 15.15 26.35 15.2 26.35 15.15 26.5 15.2 26.5 15.15 26.6 15.25 26.5 15.55 26.4 15.45 26.55 15.6 26.6 15.55 26.65 15.75 26.65 15.3 26.95 Q15.45 27.1 15.8 26.75 L15.85 26.9 15.8 27.1 15.95 27.1 16.1 27.35 15.9 27.55 15.65 27.55 15.7 27.6 16.05 27.55 16.1 27.7 15.95 27.8 16.1 27.8 Q15.8 27.8 15.9 27.9 16.3 28.0 16.1 28.0 L15.9 28.0 16.1 28.2 15.85 28.15 16.1 28.25 15.7 28.25 Q16.2 28.6 16.05 28.85 L15.9 28.75 16.0 28.85 15.65 28.7 15.85 28.9 15.95 28.95 16.05 29.05 15.7 28.85 15.8 28.95 15.0 28.45 15.0 28.5 14.65 28.3 15.2 28.65 Q15.75 28.95 15.7 29.0 L15.8 29.15 15.6 29.05 15.9 29.25 16.0 29.4 15.4 29.05 15.95 29.4 15.6 29.2 Q15.95 29.5 15.55 29.25 L15.75 29.4 15.5 29.25 15.6 29.35 15.45 29.3 15.65 29.5 15.8 29.55 15.85 29.65 15.75 29.6 15.85 29.7 15.7 29.6 15.85 29.75 15.55 29.6 15.8 29.8 15.75 29.85 15.6 29.65 15.3 29.5 15.65 29.8 15.45 29.65 15.7 29.9 15.25 29.65 14.65 29.1 14.7 29.2 15.45 29.9 15.15 29.7 Q14.95 29.5 15.1 29.7 L15.0 29.7 15.1 29.8 15.05 29.8 15.15 29.9 15.4 30.1 15.4 30.2 15.5 30.35 15.25 30.15 15.1 29.9 15.1 30.0 15.05 29.95 14.9 29.85 14.7 29.6 14.2 29.25 14.6 29.65 14.75 29.9 14.5 29.65 14.35 29.75 14.15 29.55 14.3 29.9 14.2 29.85 14.2 30.0 13.8 29.65 13.9 29.75 14.0 29.95 13.8 29.7 13.8 29.75 13.65 29.55 13.55 29.55 13.6 29.65 13.75 29.8 13.7 29.85 13.55 29.7 13.55 29.65 13.3 29.25 13.25 29.1 13.35 29.15 13.55 29.45 13.65 29.5 13.3 29.05 13.45 29.15 13.25 28.9 13.45 28.9 13.55 29.0 13.4 28.75 13.45 28.7 13.6 28.75 13.6 28.4 13.8 28.6 13.9 28.65 13.6 28.35 Q13.9 28.55 13.55 28.2 L13.55 28.15 13.55 28.1 13.5 28.15 13.55 28.05 13.45 28.1 13.5 28.05 13.4 27.9 13.45 27.75 13.45 27.7 13.35 27.9 Q13.3 27.75 13.05 28.0 L13.1 27.6 13.05 27.65 13.1 27.4 13.0 27.7 12.95 27.45 12.75 27.9 12.05 28.15 Q11.65 28.25 11.45 27.95 11.45 27.45 11.35 27.75 L11.35 27.65 11.3 27.95 11.05 27.95 11.05 28.1 10.75 28.05 Q10.55 27.8 10.45 27.85 10.45 27.8 10.3 27.9 L10.05 27.45 Q9.9 27.3 9.85 27.5 L9.8 26.55 Q9.8 26.15 9.9 26.25 L10.05 26.1 10.1 26.4 Q10.15 25.65 10.5 26.55 L10.5 26.65 10.55 26.5 10.55 26.65 10.6 26.4 10.65 26.7 10.65 26.5 10.75 26.25 10.8 26.2 10.8 26.4 11.1 25.95 11.1 26.3 11.2 25.95 M13.6 28.2 L13.55 28.2 13.65 28.25 13.6 28.2 13.6 28.15 13.55 28.15 13.6 28.2" fill="#826042" fill-rule="evenodd" stroke="none"/>
      <path d="M21.25 30.25 Q21.55 30.55 21.2 30.7 L20.85 30.7 21.0 30.75 21.35 30.7 Q21.55 30.9 21.25 30.95 L21.4 30.95 Q21.0 30.95 21.2 31.05 L21.4 31.1 21.2 31.1 21.4 31.15 21.2 31.15 Q21.8 31.35 21.4 31.35 L21.15 31.3 21.4 31.4 21.0 31.4 Q21.55 31.75 21.3 32.0 L21.3 32.05 20.9 31.85 21.15 32.05 21.25 32.1 21.3 32.2 21.0 32.05 21.05 32.1 20.25 31.65 20.3 31.65 19.95 31.5 20.5 31.8 20.95 32.15 20.75 32.0 20.75 32.1 21.1 32.3 20.85 32.2 21.15 32.4 21.3 32.55 Q20.85 32.2 20.7 32.2 L20.9 32.35 Q21.25 32.65 20.85 32.4 L21.05 32.55 20.8 32.4 20.85 32.5 20.75 32.45 20.9 32.65 21.05 32.7 21.15 32.8 21.05 32.75 21.15 32.9 20.85 32.75 21.1 32.95 21.05 33.0 20.9 32.8 20.6 32.65 20.95 32.95 20.75 32.85 20.95 33.05 20.55 32.8 20.3 32.55 20.3 32.6 19.95 32.3 20.0 32.4 20.75 33.05 20.45 32.85 Q20.2 32.65 20.35 32.85 L20.35 32.9 20.4 32.95 20.3 32.95 20.4 33.05 20.4 33.15 20.35 33.1 20.15 32.95 20.35 33.2 20.45 33.4 20.2 33.2 20.15 33.05 19.95 32.8 19.5 32.4 19.55 32.5 19.9 32.8 20.0 33.05 19.8 32.8 19.65 32.9 19.9 33.2 20.1 33.35 20.05 33.4 19.6 32.85 Q19.65 33.0 19.4 32.75 L19.6 33.05 19.45 33.05 19.5 33.15 19.1 32.8 19.2 32.9 19.3 33.15 19.05 32.85 19.1 32.95 18.95 32.7 18.85 32.7 18.9 32.8 19.05 32.95 19.0 33.05 18.85 32.9 18.8 32.85 18.8 32.9 18.55 32.45 18.5 32.3 18.55 32.4 18.55 32.3 18.5 32.15 18.85 32.6 18.95 32.65 18.6 32.2 18.75 32.35 18.55 32.05 18.75 32.05 18.85 32.2 18.7 31.9 18.75 31.85 18.9 31.9 18.9 31.6 19.05 31.75 18.9 31.5 18.85 31.35 18.85 31.3 18.85 31.35 18.8 31.3 18.85 31.2 18.8 31.2 18.7 31.05 18.75 30.9 Q18.6 31.25 18.7 30.9 L18.65 31.05 18.5 31.0 18.3 31.15 18.4 30.75 18.35 30.8 18.35 30.55 18.3 30.85 18.25 30.65 18.3 30.5 18.0 31.1 17.35 31.35 17.05 31.3 Q16.85 31.3 16.75 31.15 L16.65 30.9 16.6 31.1 16.35 31.1 16.35 31.25 16.05 31.2 15.75 31.0 15.65 30.95 15.6 31.05 Q15.2 30.35 15.15 30.65 L15.05 30.25 15.05 29.75 15.2 29.4 15.35 29.25 15.4 29.55 Q15.45 28.8 15.8 29.7 L15.8 29.85 15.85 29.6 15.85 29.8 15.9 29.55 15.95 29.9 15.95 29.65 16.05 29.4 16.1 29.4 16.1 29.55 16.4 29.15 16.4 29.45 16.45 29.1 Q16.45 29.35 16.55 29.0 L16.55 29.05 16.6 28.9 16.6 29.1 Q16.65 28.9 16.65 29.05 L16.7 29.05 16.7 29.1 16.8 28.95 16.75 29.4 17.15 29.15 17.15 29.45 17.25 29.25 17.25 29.4 17.3 29.2 17.25 29.5 17.4 29.25 17.35 29.4 17.45 29.35 17.4 29.45 Q17.4 29.65 17.45 29.45 L17.6 29.15 17.6 29.2 17.75 29.15 17.7 29.5 17.85 29.0 Q17.85 29.3 17.95 29.1 L17.8 29.7 17.8 29.85 17.85 29.75 18.05 29.15 18.0 29.6 18.15 28.95 18.15 29.15 18.2 28.95 18.2 29.35 18.25 29.25 18.25 29.3 18.35 29.0 18.3 29.1 18.45 28.85 18.35 29.1 18.6 28.7 18.5 28.9 18.6 28.85 18.65 28.9 18.7 28.75 18.7 28.9 18.7 28.95 18.75 28.85 18.75 28.9 Q19.05 28.35 18.9 28.85 L19.05 28.55 19.0 28.75 19.0 28.85 19.0 28.9 19.05 28.8 19.05 28.85 19.0 29.1 19.05 28.95 19.1 28.9 19.2 28.8 19.15 28.95 19.1 29.2 19.2 28.95 19.35 28.7 19.35 29.0 19.5 28.85 19.45 28.95 19.5 28.95 19.4 29.3 19.6 28.85 Q19.45 29.25 19.65 29.0 L19.55 29.25 Q19.4 29.65 19.65 29.2 L19.75 28.9 19.75 29.05 19.85 29.05 19.9 28.9 20.0 29.05 19.95 29.35 20.05 29.3 19.95 29.45 20.25 29.15 20.2 29.3 20.35 29.15 20.1 29.6 20.25 29.45 20.15 29.7 20.2 29.6 20.25 29.65 20.35 29.45 20.5 29.35 20.45 29.55 20.6 29.4 20.5 29.55 Q20.3 29.75 20.45 29.65 L20.5 29.65 20.5 29.6 20.7 29.5 20.5 29.65 20.45 29.75 20.55 29.65 20.85 29.55 20.75 29.75 20.9 29.75 20.85 29.8 21.0 29.8 20.6 30.1 21.1 29.95 21.15 30.1 21.1 30.25 21.25 30.25 M18.8 31.3 L18.85 31.3 18.85 31.25 18.8 31.3 M18.85 31.35 L18.9 31.3 18.85 31.3 18.85 31.35" fill="#826042" fill-rule="evenodd" stroke="none"/>
      <path d="M16.8 22.0 L16.75 22.05 16.7 22.05 16.6 22.2 16.45 22.35 16.3 22.4 16.25 22.4 16.25 22.3 16.1 22.65 16.4 22.6 16.5 22.4 16.55 22.6 16.75 22.55 16.95 22.2 17.15 22.25 17.0 22.35 17.15 22.4 17.35 22.45 17.15 22.7 Q17.05 22.75 16.95 22.6 L16.75 22.65 16.9 22.75 17.0 22.85 16.9 22.8 16.7 23.0 Q16.6 23.2 16.8 23.15 L17.1 23.0 17.45 23.25 17.15 23.45 17.2 23.25 16.9 23.2 16.7 23.2 16.5 23.2 16.05 23.6 16.2 23.6 16.6 23.4 Q16.6 23.6 17.0 23.6 16.8 23.85 16.65 23.7 L16.8 24.1 16.9 24.15 17.0 24.25 17.1 24.25 17.2 24.2 Q17.3 23.85 17.65 23.95 L17.4 24.0 17.4 24.1 17.35 24.15 17.35 24.2 17.2 24.4 17.2 24.25 17.1 24.35 17.0 24.25 16.85 24.3 16.95 24.55 Q16.8 24.35 16.75 24.55 L17.0 24.7 Q16.85 24.8 16.95 24.95 L17.05 25.15 16.55 25.3 16.75 25.35 16.7 25.35 16.7 25.5 16.75 25.6 16.6 25.55 16.7 25.6 16.4 25.65 16.35 25.75 16.5 25.85 16.7 25.8 16.7 26.15 16.5 26.15 16.65 26.2 16.35 26.25 16.0 26.1 16.45 26.15 Q16.75 26.05 16.35 25.95 L16.45 26.05 16.0 26.0 16.0 26.05 15.85 25.9 16.1 25.85 15.85 25.7 Q16.1 25.65 15.7 25.45 L16.25 25.6 16.35 25.45 15.8 25.35 15.95 25.35 15.65 25.2 15.65 25.0 Q15.5 24.95 15.5 24.7 15.4 24.6 15.4 24.9 L15.35 25.15 15.25 25.05 15.2 25.3 15.0 24.8 14.9 25.0 14.85 24.85 14.8 24.9 14.75 24.95 14.75 24.9 14.65 24.95 14.85 25.15 14.8 25.35 14.6 25.2 14.6 25.4 14.5 25.25 14.55 25.25 14.45 25.15 14.45 25.45 14.4 25.2 14.3 25.15 14.35 25.3 14.3 25.25 14.25 25.55 14.05 25.45 14.05 25.4 13.9 25.55 13.9 25.5 13.8 25.7 13.55 25.2 13.5 25.45 13.6 25.7 13.35 25.8 13.05 25.7 13.0 25.85 12.5 25.9 12.0 25.6 12.1 25.3 Q12.1 25.1 11.95 25.4 L11.95 25.75 11.45 25.6 11.1 25.2 10.9 25.15 Q11.2 24.95 10.9 24.55 L10.7 24.55 10.85 24.35 10.65 24.3 10.65 24.05 10.85 24.0 Q10.5 23.5 10.75 23.3 L11.05 23.3 10.85 23.1 11.45 22.95 Q11.25 22.15 12.1 21.8 L12.15 21.95 12.25 21.8 12.4 22.15 12.5 21.8 12.4 21.7 12.55 21.5 12.7 21.9 12.7 21.75 12.8 22.15 12.95 22.65 13.0 22.6 13.05 22.85 13.15 22.95 12.95 22.35 13.0 22.0 13.0 21.7 13.0 21.95 Q13.1 22.15 13.2 21.85 L13.1 21.45 13.25 21.7 13.2 21.35 13.25 21.2 13.35 21.15 13.4 21.5 13.5 21.8 13.5 21.1 13.6 21.5 13.7 21.4 13.8 21.5 13.8 21.25 13.9 21.5 14.05 21.4 14.15 21.55 14.25 21.25 14.1 21.15 14.2 21.2 14.3 21.0 14.3 21.1 14.5 20.95 14.5 21.15 14.55 20.95 14.7 21.1 14.75 21.3 14.65 21.45 14.8 21.55 15.0 21.0 15.1 21.05 15.1 21.1 14.95 21.25 Q14.95 21.55 15.1 21.6 15.5 21.4 15.35 21.2 L15.4 21.3 15.35 21.45 15.5 21.35 15.6 21.2 15.7 21.8 15.45 22.05 15.55 22.05 15.4 22.25 15.4 22.4 15.5 22.5 15.5 22.45 15.8 22.05 16.15 21.7 16.1 22.15 16.1 22.3 16.25 22.3 16.35 22.3 16.45 22.35 16.35 22.2 16.45 22.0 16.6 21.95 16.8 22.0 M18.45 23.6 L18.45 23.5 18.5 23.55 18.45 23.6" fill="#826042" fill-rule="evenodd" stroke="none"/>
      <path d="M15.2 21.35 L15.1 21.3 15.2 21.15 15.2 21.35" fill="#826042" fill-rule="evenodd" stroke="none"/>
      <path d="M10.6 12.0 L10.65 11.75 10.85 11.85 11.0 11.7 11.1 11.6 11.3 11.5 11.5 11.45 11.55 11.6 11.6 11.5 Q11.55 11.35 11.7 11.55 L11.6 11.35 12.0 11.1 12.3 10.7 12.35 10.75 12.25 10.6 13.2 10.55 13.15 10.25 14.75 9.1 15.0 9.05 16.7 8.5 17.35 10.0 17.75 10.9 17.9 12.1 17.65 12.4 17.65 12.85 17.6 12.85 17.65 13.05 Q17.6 13.3 17.7 13.4 L17.15 14.15 17.1 14.2 17.05 14.2 17.1 14.45 17.15 14.45 17.15 14.6 17.0 14.4 17.0 14.7 Q16.9 14.55 16.95 14.7 L16.9 14.9 16.75 14.45 16.65 14.5 16.8 14.85 16.7 14.7 16.75 15.05 16.35 15.1 16.25 14.95 Q16.4 15.35 16.2 15.35 L16.0 15.45 15.85 15.35 15.3 15.8 15.25 15.6 15.15 15.5 15.2 15.9 Q15.05 15.75 14.95 16.25 L14.9 16.05 14.8 16.25 14.6 16.15 14.45 15.95 14.35 16.45 14.05 16.3 13.7 16.65 13.2 16.8 13.2 16.6 12.65 16.8 12.15 16.75 12.25 16.4 12.1 16.4 11.95 16.7 11.8 16.65 11.7 16.45 11.45 16.6 11.1 16.35 11.15 16.15 11.0 16.1 10.8 16.3 10.55 16.05 10.35 15.7 10.2 15.85 Q10.05 15.3 9.75 15.2 L9.95 15.05 9.7 15.05 Q9.45 14.85 9.55 14.35 L9.7 13.65 Q9.65 13.05 10.4 12.15 L10.45 12.2 Q10.4 12.05 10.6 12.0 M15.9 11.45 L15.7 11.4 15.95 11.35 15.65 11.25 15.8 11.25 15.7 11.15 15.65 11.1 15.65 11.05 15.45 11.2 15.25 10.9 15.25 11.2 15.35 11.45 15.1 11.45 14.95 11.05 14.85 10.9 14.8 10.75 14.7 10.9 14.8 11.55 14.6 11.15 14.75 11.8 14.65 11.65 14.7 11.85 14.45 11.7 14.4 11.5 14.35 11.65 14.3 11.75 14.4 11.95 14.45 11.95 14.35 12.15 14.3 11.9 14.3 12.3 14.3 12.35 14.4 12.35 14.2 12.65 14.4 12.5 14.7 12.45 14.85 12.55 14.75 12.65 15.2 12.65 15.55 12.65 15.45 12.95 15.65 12.65 Q15.65 12.9 15.75 12.55 L15.75 12.5 15.9 12.5 15.9 12.55 16.15 12.6 15.8 11.75 16.0 11.6 15.8 11.55 15.9 11.45 M12.8 13.25 L12.75 13.3 12.45 13.05 12.7 13.45 Q12.6 13.3 12.65 13.45 12.7 13.65 12.55 13.5 L12.35 13.25 Q12.5 13.5 12.3 13.4 L12.55 13.65 Q12.6 13.85 12.4 13.6 L12.5 13.8 12.35 13.85 12.0 13.7 12.1 13.85 12.15 13.9 12.25 14.05 12.3 14.0 Q12.5 13.9 12.3 14.25 L12.15 14.5 12.25 14.4 12.4 14.1 12.45 14.2 12.55 14.05 12.45 14.25 12.45 14.2 Q12.3 14.5 12.5 14.3 L12.6 14.15 12.55 14.3 12.7 14.1 12.7 14.5 Q12.9 13.95 13.1 14.05 L13.1 14.45 13.2 14.15 13.15 14.05 Q13.25 14.2 13.25 14.0 L13.25 14.2 13.25 15.15 13.3 15.1 13.3 15.45 13.3 14.85 13.4 14.6 13.35 14.5 13.4 14.5 13.4 14.6 13.45 14.45 13.4 14.05 13.45 14.3 13.45 13.95 13.45 13.75 13.6 14.45 13.55 13.95 13.6 14.15 13.65 14.1 13.65 14.0 13.5 13.75 13.2 13.25 13.15 13.25 12.85 13.15 12.85 13.35 12.8 13.25 M12.1 14.1 L12.05 14.1 11.95 14.1 12.1 14.1 M12.2 14.1 L12.2 14.05 12.2 14.0 12.15 14.05 12.2 14.1 M14.1 12.35 L14.25 12.3 14.2 12.2 14.1 12.3 14.1 12.35 M14.3 12.3 L14.25 12.3 14.25 12.35 14.3 12.3 M13.8 14.15 L13.8 14.2 13.85 14.2 13.8 14.15" fill="#826042" fill-rule="evenodd" stroke="none"/>
      <path d="M13.3 44.25 L13.25 44.1 13.35 44.15 13.55 44.45 13.65 44.5 13.3 44.05 13.45 44.15 13.25 43.9 13.45 43.9 13.55 44.0 13.4 43.75 13.45 43.7 13.6 43.75 13.6 43.4 13.8 43.6 13.9 43.65 13.6 43.35 Q13.9 43.55 13.55 43.2 L13.65 43.25 13.6 43.2 13.6 43.15 13.55 43.15 13.55 43.1 13.5 43.15 13.55 43.05 13.45 43.1 13.5 43.05 13.4 42.9 13.45 42.75 13.45 42.7 13.35 42.9 Q13.3 42.75 13.05 43.0 L13.1 42.6 13.05 42.65 13.1 42.4 13.0 42.7 12.95 42.45 12.75 42.9 12.05 43.15 Q11.65 43.25 11.45 42.95 11.45 42.45 11.35 42.75 L11.35 42.65 11.3 42.95 11.05 42.95 11.05 43.1 10.75 43.05 Q10.55 42.8 10.45 42.85 10.45 42.8 10.3 42.9 L10.05 42.45 Q9.9 42.3 9.85 42.5 L9.8 41.55 Q9.8 41.15 9.9 41.25 L10.05 41.1 10.1 41.4 Q10.15 40.65 10.5 41.55 L10.5 41.65 10.55 41.5 10.55 41.65 10.6 41.4 10.65 41.7 10.65 41.5 10.75 41.25 10.8 41.2 10.8 41.4 11.1 40.95 11.1 41.3 11.2 40.95 Q11.2 41.2 11.25 40.85 L11.25 40.9 11.3 40.8 11.3 40.95 Q11.35 40.75 11.35 40.9 L11.4 40.95 11.5 40.95 11.45 41.2 11.85 41.0 11.85 41.25 11.95 41.05 11.95 41.25 12.0 41.05 12.0 41.35 12.1 41.1 12.05 41.25 12.15 41.2 12.1 41.3 Q12.15 41.45 12.2 41.25 L12.15 41.25 12.2 41.1 12.2 41.25 12.35 41.05 12.45 41.0 12.4 41.35 12.55 40.85 Q12.55 41.15 12.65 40.95 L12.55 41.35 12.55 41.6 12.6 41.6 12.8 41.0 12.7 41.4 12.9 40.8 12.85 41.0 12.95 40.8 12.95 41.05 12.9 41.2 12.95 41.1 12.95 41.15 13.05 40.9 13.15 40.7 13.1 40.95 13.3 40.5 13.25 40.7 13.3 40.7 13.35 40.75 13.4 40.6 13.4 40.75 13.45 40.7 13.45 40.75 Q13.65 40.35 13.65 40.7 L13.75 40.4 13.7 40.6 13.7 40.7 13.65 40.75 13.75 40.65 13.75 40.7 13.7 40.95 13.8 40.8 13.8 40.75 13.9 40.55 13.9 40.8 14.05 40.55 14.1 40.85 14.2 40.7 14.15 40.8 14.2 40.75 14.1 41.15 14.25 40.95 14.35 40.85 14.25 41.1 Q14.1 41.5 14.35 41.05 L14.5 40.8 14.5 40.9 14.6 40.75 14.7 40.9 14.65 41.2 14.75 41.15 14.75 41.1 14.75 41.15 14.65 41.3 14.8 41.15 Q14.95 40.9 15.0 41.0 L14.9 41.15 15.1 41.0 14.8 41.45 14.95 41.3 14.8 41.55 14.9 41.45 14.95 41.5 15.05 41.3 15.25 41.2 15.15 41.35 15.2 41.35 15.35 41.25 15.25 41.4 15.2 41.35 15.15 41.5 15.2 41.5 15.2 41.45 15.4 41.35 15.2 41.5 15.15 41.6 15.25 41.5 15.55 41.4 15.45 41.55 15.6 41.6 15.55 41.65 15.75 41.65 15.3 41.95 Q15.45 42.1 15.8 41.75 L15.85 41.9 15.8 42.1 15.95 42.1 16.1 42.35 15.9 42.55 15.65 42.55 15.7 42.6 16.05 42.55 16.1 42.7 15.95 42.8 16.1 42.8 Q15.8 42.8 15.9 42.9 16.3 43.0 16.1 43.0 L15.9 43.0 16.1 43.2 15.85 43.15 16.1 43.25 15.7 43.25 Q16.2 43.6 16.05 43.85 L15.9 43.75 16.0 43.85 15.65 43.7 15.85 43.9 15.95 43.95 16.05 44.05 15.7 43.85 15.8 43.95 15.0 43.45 15.0 43.5 14.65 43.3 15.2 43.65 Q15.75 43.95 15.7 44.0 L15.8 44.15 15.6 44.05 15.9 44.25 16.0 44.4 15.4 44.05 15.95 44.4 15.6 44.2 Q15.95 44.5 15.55 44.25 L15.75 44.4 15.5 44.25 15.6 44.35 15.45 44.3 15.65 44.5 15.8 44.55 15.85 44.65 15.75 44.6 15.85 44.7 15.7 44.6 15.85 44.75 15.55 44.6 15.8 44.8 15.75 44.85 15.6 44.65 15.3 44.5 15.65 44.8 15.45 44.65 15.7 44.9 15.25 44.65 14.65 44.1 14.7 44.2 15.45 44.9 15.15 44.7 Q14.95 44.5 15.1 44.7 L15.15 44.75 15.35 44.9 15.5 45.1 15.0 44.7 15.1 44.8 15.05 44.8 15.15 44.9 15.4 45.1 15.4 45.2 15.5 45.35 15.25 45.15 15.1 44.9 15.1 45.0 15.05 44.95 14.9 44.85 14.7 44.6 14.2 44.25 14.6 44.65 14.75 44.9 14.5 44.65 14.35 44.75 14.15 44.55 14.3 44.9 14.2 44.85 14.2 45.0 13.8 44.65 13.9 44.75 14.0 44.95 13.8 44.7 13.8 44.75 13.65 44.55 13.55 44.55 13.6 44.65 13.75 44.8 13.7 44.85 13.55 44.7 13.55 44.65 13.3 44.25 M13.6 43.15 L13.9 43.3 13.65 43.1 13.6 43.1 13.6 43.15 M15.5 43.85 L15.45 43.85 15.5 43.95 15.65 44.0 15.5 43.85" fill="#826042" fill-rule="evenodd" stroke="none"/>
      <path d="M15.3 39.7 L15.45 39.45 Q15.5 39.4 15.65 39.3 L15.6 39.65 15.7 39.3 Q15.7 39.55 15.75 39.2 L15.75 39.25 15.85 39.1 15.85 39.3 15.9 39.3 15.9 39.2 15.95 39.25 15.95 39.3 16.0 39.2 15.95 39.55 Q16.05 39.35 16.4 39.35 L16.4 39.6 16.45 39.4 16.45 39.6 16.55 39.4 16.5 39.7 16.6 39.45 16.55 39.6 16.65 39.5 16.65 39.65 16.7 39.45 16.7 39.6 16.85 39.35 16.85 39.4 16.95 39.35 16.95 39.7 17.05 39.2 17.15 39.3 17.05 39.7 17.05 39.9 17.0 40.05 17.1 39.95 17.3 39.35 17.2 39.75 17.4 39.15 17.4 39.35 17.45 39.1 17.45 39.4 17.4 39.55 17.45 39.5 17.55 39.25 17.55 39.3 17.65 39.05 17.6 39.3 17.8 38.85 17.75 39.05 17.85 39.05 17.9 39.1 18.0 39.05 17.95 39.1 Q18.15 38.7 18.15 39.05 L18.2 38.95 18.2 39.05 18.25 39.0 18.3 39.05 18.2 39.3 18.3 39.15 18.35 39.1 18.4 39.0 18.4 39.15 18.45 39.0 18.45 39.15 18.6 38.9 18.6 39.2 18.7 39.05 18.65 39.15 18.7 39.1 18.65 39.5 18.75 39.2 Q18.7 39.4 18.85 39.2 L18.75 39.45 Q18.65 39.85 18.9 39.4 L19.0 39.1 19.0 39.25 19.15 39.1 19.25 39.25 19.15 39.55 19.25 39.5 19.25 39.45 19.25 39.5 19.15 39.65 19.45 39.45 19.45 39.5 19.6 39.35 19.3 39.8 19.5 39.65 19.35 39.9 19.45 39.8 19.45 39.85 19.6 39.65 19.75 39.5 19.7 39.7 19.85 39.6 19.75 39.75 19.7 39.7 19.65 39.85 19.75 39.8 19.7 39.9 19.85 39.8 20.05 39.75 20.0 39.9 19.95 39.9 20.1 39.95 20.05 40.0 20.25 40.0 19.85 40.3 20.05 40.25 20.3 40.15 20.35 40.25 20.3 40.45 20.5 40.45 Q20.8 40.75 20.4 40.9 L20.15 40.9 20.2 40.95 20.55 40.9 20.6 41.05 20.5 41.15 Q20.3 41.15 20.45 41.25 L20.6 41.35 20.45 41.35 20.65 41.55 20.35 41.5 20.6 41.6 20.2 41.6 Q20.8 41.95 20.55 42.2 L20.15 42.05 20.35 42.25 20.45 42.3 20.55 42.4 20.2 42.2 20.3 42.3 19.5 41.8 19.5 41.85 19.15 41.65 19.7 42.0 20.2 42.35 20.0 42.2 19.95 42.2 20.0 42.3 20.35 42.5 20.1 42.4 20.4 42.6 20.5 42.75 20.1 42.5 20.45 42.75 20.15 42.55 Q20.45 42.85 20.05 42.6 L20.25 42.75 20.0 42.6 Q20.25 42.85 19.95 42.65 L20.15 42.85 20.25 42.9 20.35 43.0 20.25 42.9 20.35 43.05 20.2 42.95 20.35 43.1 20.1 42.95 19.95 42.8 19.85 42.8 20.1 43.0 20.3 43.15 20.25 43.15 20.1 43.0 19.85 42.85 20.15 43.15 19.95 43.0 20.2 43.25 19.75 43.0 19.55 42.75 19.5 42.75 19.15 42.45 19.2 42.55 19.95 43.25 19.65 43.05 Q19.45 42.85 19.6 43.05 L19.65 43.1 19.85 43.25 20.0 43.45 19.6 43.1 19.6 43.05 19.3 42.8 19.45 43.0 19.6 43.15 19.55 43.15 19.65 43.25 19.9 43.45 19.95 43.5 20.0 43.6 19.95 43.5 20.0 43.65 19.8 43.5 19.6 43.25 19.6 43.35 19.55 43.3 19.4 43.2 19.2 42.95 18.7 42.6 19.1 43.0 19.25 43.25 19.0 43.0 18.9 43.05 19.15 43.35 19.35 43.55 19.3 43.55 18.65 42.9 18.8 43.25 18.7 43.2 18.7 43.35 18.5 43.15 18.45 43.15 18.4 43.1 18.5 43.3 18.35 43.1 18.15 42.9 18.1 42.9 18.15 43.0 18.3 43.15 18.2 43.2 18.1 43.05 18.15 43.15 18.05 43.0 17.7 42.5 17.9 42.7 17.75 42.45 17.85 42.5 18.05 42.8 18.2 42.85 17.85 42.4 17.8 42.25 17.95 42.25 18.1 42.35 17.95 42.05 18.1 42.1 18.1 41.75 18.3 41.95 18.4 42.0 18.1 41.7 18.05 41.55 18.0 41.55 18.05 41.55 18.05 41.4 18.0 41.45 18.0 41.4 17.95 41.35 17.9 41.25 17.95 41.05 17.85 41.2 Q17.85 41.05 17.55 41.35 L17.6 40.95 17.6 41.0 17.6 40.75 17.5 41.05 17.5 40.7 17.25 41.25 16.55 41.5 15.95 41.3 15.95 41.0 15.9 41.05 15.8 41.3 15.6 41.3 15.6 41.15 15.55 41.45 15.25 41.4 Q15.05 41.15 14.95 41.2 14.95 41.15 14.8 41.25 L14.55 40.8 Q14.4 40.65 14.35 40.85 L14.3 39.9 Q14.3 39.5 14.4 39.6 L14.55 39.45 14.6 39.75 Q14.65 39.35 14.8 39.45 L15.0 39.9 15.0 40.0 15.1 39.8 15.1 40.0 15.15 39.75 15.15 39.85 15.25 39.6 15.3 39.55 15.3 39.7 M18.05 41.55 L18.15 41.6 18.05 41.5 18.05 41.55 M18.2 41.4 L18.3 41.4 18.2 41.35 18.2 41.4 M17.9 42.85 L18.0 43.05 17.75 42.65 17.9 42.85" fill="#826042" fill-rule="evenodd" stroke="none"/>
      <path d="M14.6 31.1 L14.85 31.05 16.55 30.5 17.15 31.95 17.6 32.85 17.75 34.05 17.5 34.4 17.5 34.85 17.45 34.85 17.5 35.05 Q17.45 35.3 17.55 35.35 L17.0 36.15 16.95 36.2 16.85 36.25 16.95 36.45 17.05 36.45 17.0 36.6 16.9 36.55 16.85 36.7 Q16.75 36.55 16.8 36.7 L16.75 36.9 16.6 36.4 16.45 36.45 16.65 36.85 16.55 36.7 16.55 37.05 16.2 37.1 16.1 36.95 16.1 37.2 16.05 37.35 15.85 37.4 15.65 37.35 15.15 37.8 15.1 37.6 15.0 37.45 15.05 37.9 Q14.9 37.75 14.8 38.2 L14.75 38.05 14.65 38.25 14.45 38.15 14.3 37.95 14.2 38.4 13.9 38.3 13.5 38.65 13.05 38.8 13.05 38.55 Q12.85 38.85 12.5 38.8 L11.95 38.75 12.1 38.4 11.95 38.4 11.8 38.7 11.65 38.65 11.55 38.45 Q11.4 38.55 11.3 38.6 L10.95 38.35 11.0 38.1 10.85 38.05 10.65 38.3 10.4 38.0 10.2 37.7 10.0 37.85 9.6 37.15 9.8 37.05 9.55 37.05 Q9.3 36.85 9.4 36.35 L9.55 35.65 Q9.5 35.2 9.8 34.75 L10.2 34.1 10.3 34.2 10.45 34.0 Q10.65 34.0 10.5 33.75 L10.7 33.85 10.85 33.7 10.95 33.55 11.15 33.5 11.35 33.4 11.4 33.55 11.45 33.45 11.55 33.5 11.45 33.35 11.85 33.1 12.1 32.7 12.25 32.75 12.1 32.6 13.05 32.55 13.0 32.2 14.6 31.1 M15.5 33.1 L15.5 33.05 15.3 33.2 15.1 32.9 15.1 33.15 15.2 33.4 14.95 33.45 14.8 33.05 14.65 32.75 14.55 32.9 14.6 33.55 14.45 33.2 14.6 33.8 14.5 33.65 14.55 33.85 Q14.45 34.0 14.3 33.7 L14.25 33.5 14.2 33.65 14.2 33.6 Q14.0 33.6 14.25 33.95 L14.3 33.95 14.2 34.1 14.15 33.9 14.15 34.35 14.25 34.35 14.05 34.6 14.25 34.5 14.55 34.45 14.7 34.55 14.6 34.65 15.05 34.65 15.4 34.65 15.3 34.95 15.5 34.6 Q15.5 34.9 15.6 34.55 L15.6 34.5 15.65 34.5 16.0 34.55 Q15.75 34.25 15.65 33.75 L15.85 33.6 15.65 33.55 15.75 33.45 15.55 33.4 15.8 33.35 15.5 33.25 15.65 33.2 Q15.5 33.25 15.55 33.15 L15.5 33.1 M13.95 34.3 L13.95 34.35 14.1 34.3 14.05 34.2 13.95 34.3 M15.65 34.5 L15.7 34.55 15.7 34.5 15.65 34.5 M11.75 35.7 L12.05 36.0 12.0 36.05 12.05 36.1 12.15 36.0 Q12.35 35.9 12.15 36.2 L12.0 36.45 12.05 36.4 12.25 36.1 12.3 36.2 12.35 36.15 Q12.2 36.35 12.35 36.3 L12.45 36.1 12.4 36.3 Q12.55 35.85 12.55 36.1 L12.55 36.5 Q12.75 36.0 12.95 36.0 L12.95 36.45 13.05 36.15 13.0 36.05 13.1 36.05 13.1 36.3 13.1 36.2 13.1 37.1 13.15 37.05 13.15 37.5 13.15 36.85 13.2 36.5 Q13.25 36.7 13.3 36.45 L13.25 36.05 13.3 36.3 13.25 35.95 13.3 35.8 13.45 36.45 13.4 35.95 13.45 36.15 13.45 36.05 13.5 36.2 13.5 36.0 13.35 35.75 13.05 35.25 13.0 35.25 12.7 35.1 12.7 35.35 12.65 35.2 12.6 35.3 12.3 35.05 12.55 35.45 Q12.45 35.3 12.45 35.45 12.5 35.65 12.35 35.5 L12.2 35.25 Q12.05 35.1 12.15 35.25 L12.15 35.4 12.4 35.65 Q12.45 35.85 12.25 35.6 L12.35 35.8 12.15 35.85 11.85 35.7 11.95 35.85 12.05 35.9 11.95 35.85 11.75 35.7 M11.85 36.1 L11.75 36.05 11.85 36.1" fill="#826042" fill-rule="evenodd" stroke="none"/>
    </g>
  </defs>
</svg>
