<?xml version="1.0" encoding="UTF-8" standalone="no"?>
<svg xmlns:xlink="http://www.w3.org/1999/xlink" height="105.15px" width="84.75px" xmlns="http://www.w3.org/2000/svg">
  <g transform="matrix(1.0, 0.0, 0.0, 1.0, 0.0, 0.0)">
    <use height="103.6" transform="matrix(1.0, 0.0, 0.0, 1.0, 0.0, 1.55)" width="84.75" xlink:href="#shape0"/>
    <use height="86.25" transform="matrix(1.0, 0.0, 0.0, 1.0, 45.95, 1.75)" width="11.5" xlink:href="#sprite0"/>
    <use height="87.85" transform="matrix(1.0, 0.0, 0.0, 1.0, 6.65, 0.0)" width="47.4" xlink:href="#shape2"/>
    <use height="7.15" transform="matrix(1.0, 0.0, 0.0, 1.0, 8.45, 0.2)" width="38.25" xlink:href="#sprite1"/>
    <use height="10.15" transform="matrix(1.0, 0.0, 0.0, 1.0, 11.35, 24.35)" width="40.2" xlink:href="#shape4"/>
    <use height="7.1" transform="matrix(1.0, 0.0, 0.0, 1.0, 12.8, 24.05)" width="38.25" xlink:href="#sprite2"/>
    <use height="90.55" transform="matrix(1.0, 0.0, 0.0, 1.0, 9.4, 1.1)" width="11.65" xlink:href="#shape6"/>
    <use height="90.4" transform="matrix(1.0, 0.0, 0.0, 1.0, 9.4, 1.1)" width="11.5" xlink:href="#sprite3"/>
    <use height="89.05" transform="matrix(1.0, 0.0, 0.0, 1.0, 6.05, 2.6)" width="76.2" xlink:href="#shape8"/>
    <use height="21.5" transform="matrix(1.0, 0.0, 0.0, 1.0, 11.85, 51.35)" width="70.0" xlink:href="#sprite4"/>
    <use height="18.75" transform="matrix(1.0, 0.0, 0.0, 1.0, 12.25, 54.4)" width="24.3" xlink:href="#shape10"/>
    <use height="18.75" transform="matrix(1.0, 0.0, 0.0, 1.0, 12.25, 54.45)" width="24.25" xlink:href="#sprite5"/>
    <use height="9.35" transform="matrix(1.0, 0.0, 0.0, 1.0, 34.75, 63.85)" width="47.5" xlink:href="#shape12"/>
    <use height="9.35" transform="matrix(1.0, 0.0, 0.0, 1.0, 34.9, 64.0)" width="47.5" xlink:href="#sprite6"/>
    <use height="26.7" transform="matrix(1.0, 0.0, 0.0, 1.0, 12.0, 46.45)" width="70.25" xlink:href="#shape14"/>
    <use height="16.95" transform="matrix(1.0, 0.0, 0.0, 1.0, 18.1, 48.2)" width="21.4" xlink:href="#sprite7"/>
    <use height="19.4" transform="matrix(1.0, 0.0, 0.0, 1.0, 16.8, 46.45)" width="62.65" xlink:href="#shape16"/>
    <use height="16.95" transform="matrix(1.0, 0.0, 0.0, 1.0, 18.1, 48.2)" width="21.4" xlink:href="#sprite8"/>
    <use height="20.15" transform="matrix(1.0, 0.0, 0.0, 1.0, 51.1, 2.8)" width="3.0" xlink:href="#shape17"/>
  </g>
  <defs>
    <g id="shape0" transform="matrix(1.0, 0.0, 0.0, 1.0, 0.0, -1.55)">
      <path d="M72.35 86.75 Q84.75 89.9 84.75 94.35 84.75 98.8 72.35 101.95 59.95 105.1 42.4 105.1 24.85 105.1 12.45 101.95 0.0 98.8 0.0 94.35 0.0 89.9 12.45 86.75 24.85 83.6 42.4 83.6 59.95 83.6 72.35 86.75" fill="url(#gradient0)" fill-rule="evenodd" stroke="none"/>
      <path d="M83.25 97.9 L78.35 99.75 74.6 100.0 68.9 99.55 Q68.5 99.55 68.5 99.95 66.05 99.15 66.1 98.15 66.15 97.15 68.75 96.5 L74.95 95.95 80.15 96.6 Q82.4 97.15 83.25 97.9" fill="url(#gradient1)" fill-rule="evenodd" stroke="none"/>
      <path d="M45.6 103.05 Q43.15 104.2 40.75 104.85 L37.0 105.1 31.25 104.7 Q30.9 104.65 30.9 105.05 28.45 104.35 28.45 103.3 28.5 102.3 31.1 101.65 L37.3 101.1 42.55 101.7 Q44.8 102.25 45.6 103.05" fill="url(#gradient2)" fill-rule="evenodd" stroke="none"/>
      <path d="M54.2 83.95 L59.4 84.6 Q61.65 85.15 62.5 85.9 L57.6 87.75 53.85 88.0 48.15 87.55 Q47.75 87.55 47.75 87.95 45.3 87.15 45.35 86.15 45.4 85.15 48.0 84.5 L54.2 83.95" fill="url(#gradient3)" fill-rule="evenodd" stroke="none"/>
      <path d="M20.35 92.1 L16.6 92.35 10.9 91.95 Q10.5 91.85 10.5 92.3 8.0 91.55 8.1 90.55 8.15 89.55 10.75 88.9 L16.95 88.35 22.15 88.95 Q24.4 89.5 25.25 90.3 22.8 91.45 20.35 92.1" fill="url(#gradient4)" fill-rule="evenodd" stroke="none"/>
      <path d="M35.0 72.15 L40.5 72.9 40.75 104.65 35.0 105.15 34.9 88.95 35.0 72.15" fill="#cca585" fill-rule="evenodd" stroke="none"/>
      <path d="M35.15 72.05 L40.65 72.8 40.9 104.55 35.15 105.05 35.05 88.85 35.15 72.05" fill="url(#gradient5)" fill-rule="evenodd" stroke="none"/>
      <path d="M35.5 70.15 L35.0 105.15 32.5 102.4 32.75 67.4 35.5 70.15" fill="#664234" fill-rule="evenodd" stroke="none"/>
      <path d="M32.75 74.15 L32.9 70.55 35.5 72.05 35.0 105.15 34.25 79.4 Q34.1 77.05 33.4 75.35 L32.75 74.15" fill="#4c362e" fill-rule="evenodd" stroke="none"/>
      <path d="M33.65 98.55 Q33.8 99.95 34.4 100.55 L35.0 100.9 35.0 105.15 32.5 102.4 32.65 84.05 33.65 98.55" fill="#4c362e" fill-rule="evenodd" stroke="none"/>
      <path d="M35.5 77.05 L35.6 82.85 35.65 90.3 Q35.5 92.55 35.5 103.3 35.5 104.7 35.85 105.0 L35.95 105.1 35.0 105.15 35.5 77.05" fill="#cca585" fill-rule="evenodd" stroke="none"/>
      <path d="M74.15 66.35 L79.65 67.1 79.9 98.85 74.15 99.35 74.05 83.15 74.15 66.35" fill="#cca585" fill-rule="evenodd" stroke="none"/>
      <path d="M74.3 66.2 L79.8 66.95 80.05 98.7 74.3 99.2 74.2 83.0 74.3 66.2" fill="url(#gradient6)" fill-rule="evenodd" stroke="none"/>
      <path d="M74.65 64.35 L74.15 99.35 71.65 96.6 71.9 61.6 74.65 64.35" fill="#664234" fill-rule="evenodd" stroke="none"/>
      <path d="M71.9 68.35 L72.05 64.7 74.65 66.2 74.15 99.35 73.4 73.6 Q73.25 71.25 72.55 69.55 L71.9 68.35" fill="#4c362e" fill-rule="evenodd" stroke="none"/>
      <path d="M72.8 92.7 Q72.95 94.1 73.55 94.75 L74.15 95.1 74.15 99.35 71.65 96.6 71.8 78.2 72.8 92.7" fill="#4c362e" fill-rule="evenodd" stroke="none"/>
      <path d="M74.65 71.2 L74.75 77.0 74.8 84.45 Q74.65 86.7 74.65 97.45 74.65 98.85 75.0 99.15 L75.1 99.25 74.15 99.35 74.65 71.2" fill="#cca585" fill-rule="evenodd" stroke="none"/>
      <path d="M50.4 2.25 L48.9 2.2 Q47.1 2.35 47.15 3.4 L48.4 13.8 45.9 1.55 50.4 2.25" fill="#acbfb1" fill-rule="evenodd" stroke="none"/>
      <path d="M49.9 24.8 L47.55 10.7 45.9 1.55 50.75 2.3 52.3 10.6 54.65 25.5 57.1 47.9 57.4 87.35 53.15 87.85 50.15 85.9 50.4 47.0 52.2 47.45 Q51.45 35.5 49.9 24.8" fill="#cca585" fill-rule="evenodd" stroke="none"/>
      <path d="M50.1 25.1 L47.75 11.05 46.1 1.9 50.9 2.65 52.45 10.95 Q54.15 20.35 54.85 25.85 56.2 36.25 57.25 48.25 L57.6 87.7 53.35 88.2 50.35 86.2 50.6 47.35 52.4 47.8 Q51.7 36.65 50.1 25.1" fill="url(#gradient7)" fill-rule="evenodd" stroke="none"/>
    </g>
    <radialGradient cx="0" cy="0" gradientTransform="matrix(-0.0472, 0.0, 0.0, -0.012, 42.4, 94.35)" gradientUnits="userSpaceOnUse" id="gradient0" r="819.2" spreadMethod="pad">
      <stop offset="0.0" stop-color="#000000" stop-opacity="0.21960784"/>
      <stop offset="1.0" stop-color="#000000" stop-opacity="0.0"/>
    </radialGradient>
    <radialGradient cx="0" cy="0" gradientTransform="matrix(-0.009, -3.0E-4, 1.0E-4, -0.0025, 74.85, 98.4)" gradientUnits="userSpaceOnUse" id="gradient1" r="819.2" spreadMethod="pad">
      <stop offset="0.0" stop-color="#000000"/>
      <stop offset="1.0" stop-color="#000000" stop-opacity="0.0"/>
    </radialGradient>
    <radialGradient cx="0" cy="0" gradientTransform="matrix(-0.009, -3.0E-4, 1.0E-4, -0.0025, 37.25, 103.55)" gradientUnits="userSpaceOnUse" id="gradient2" r="819.2" spreadMethod="pad">
      <stop offset="0.0" stop-color="#000000"/>
      <stop offset="1.0" stop-color="#000000" stop-opacity="0.0"/>
    </radialGradient>
    <radialGradient cx="0" cy="0" gradientTransform="matrix(-0.009, -3.0E-4, 1.0E-4, -0.0025, 54.1, 86.4)" gradientUnits="userSpaceOnUse" id="gradient3" r="819.2" spreadMethod="pad">
      <stop offset="0.0" stop-color="#000000"/>
      <stop offset="1.0" stop-color="#000000" stop-opacity="0.0"/>
    </radialGradient>
    <radialGradient cx="0" cy="0" gradientTransform="matrix(-0.009, -3.0E-4, 1.0E-4, -0.0025, 16.85, 90.8)" gradientUnits="userSpaceOnUse" id="gradient4" r="819.2" spreadMethod="pad">
      <stop offset="0.0" stop-color="#000000"/>
      <stop offset="1.0" stop-color="#000000" stop-opacity="0.0"/>
    </radialGradient>
    <linearGradient gradientTransform="matrix(0.0, -0.0307, -0.0307, 0.0, 37.95, 84.6)" gradientUnits="userSpaceOnUse" id="gradient5" spreadMethod="pad" x1="-819.2" x2="819.2">
      <stop offset="0.03529411764705882" stop-color="#ffcdad" stop-opacity="0.5372549"/>
      <stop offset="0.047058823529411764" stop-color="#ecb99b" stop-opacity="0.5529412"/>
      <stop offset="0.07450980392156863" stop-color="#c99479" stop-opacity="0.58431375"/>
      <stop offset="0.10196078431372549" stop-color="#ad765e" stop-opacity="0.60784316"/>
      <stop offset="0.12941176470588237" stop-color="#965f48" stop-opacity="0.627451"/>
      <stop offset="0.1607843137254902" stop-color="#864e39" stop-opacity="0.6392157"/>
      <stop offset="0.19607843137254902" stop-color="#7d4430" stop-opacity="0.64705884"/>
      <stop offset="0.23921568627450981" stop-color="#7a412d" stop-opacity="0.6509804"/>
      <stop offset="0.4392156862745098" stop-color="#381a0e" stop-opacity="0.6745098"/>
      <stop offset="0.7803921568627451" stop-color="#70331e" stop-opacity="0.69803923"/>
      <stop offset="1.0" stop-color="#ffffff" stop-opacity="0.0"/>
    </linearGradient>
    <linearGradient gradientTransform="matrix(0.0, -0.0307, -0.0307, 0.0, 77.1, 78.75)" gradientUnits="userSpaceOnUse" id="gradient6" spreadMethod="pad" x1="-819.2" x2="819.2">
      <stop offset="0.03529411764705882" stop-color="#ffcdad" stop-opacity="0.5372549"/>
      <stop offset="0.047058823529411764" stop-color="#ecb99b" stop-opacity="0.5529412"/>
      <stop offset="0.07450980392156863" stop-color="#c99479" stop-opacity="0.58431375"/>
      <stop offset="0.10196078431372549" stop-color="#ad765e" stop-opacity="0.60784316"/>
      <stop offset="0.12941176470588237" stop-color="#965f48" stop-opacity="0.627451"/>
      <stop offset="0.1607843137254902" stop-color="#864e39" stop-opacity="0.6392157"/>
      <stop offset="0.19607843137254902" stop-color="#7d4430" stop-opacity="0.64705884"/>
      <stop offset="0.23921568627450981" stop-color="#7a412d" stop-opacity="0.6509804"/>
      <stop offset="0.4392156862745098" stop-color="#381a0e" stop-opacity="0.6745098"/>
      <stop offset="0.7803921568627451" stop-color="#70331e" stop-opacity="0.69803923"/>
      <stop offset="1.0" stop-color="#ffffff" stop-opacity="0.0"/>
    </linearGradient>
    <linearGradient gradientTransform="matrix(5.0E-4, 0.0528, 0.0528, -5.0E-4, 52.0, 59.45)" gradientUnits="userSpaceOnUse" id="gradient7" spreadMethod="pad" x1="-819.2" x2="819.2">
      <stop offset="0.03529411764705882" stop-color="#ffcdad" stop-opacity="0.5372549"/>
      <stop offset="0.043137254901960784" stop-color="#ecb99b" stop-opacity="0.5529412"/>
      <stop offset="0.054901960784313725" stop-color="#c99479" stop-opacity="0.58431375"/>
      <stop offset="0.07058823529411765" stop-color="#ad765e" stop-opacity="0.60784316"/>
      <stop offset="0.08627450980392157" stop-color="#965f48" stop-opacity="0.627451"/>
      <stop offset="0.10196078431372549" stop-color="#864e39" stop-opacity="0.6392157"/>
      <stop offset="0.11764705882352941" stop-color="#7d4430" stop-opacity="0.64705884"/>
      <stop offset="0.1411764705882353" stop-color="#7a412d" stop-opacity="0.6509804"/>
      <stop offset="0.4392156862745098" stop-color="#381a0e" stop-opacity="0.6745098"/>
      <stop offset="0.7803921568627451" stop-color="#70331e" stop-opacity="0.69803923"/>
      <stop offset="1.0" stop-color="#ffd5c4" stop-opacity="0.0"/>
    </linearGradient>
    <g id="sprite0" transform="matrix(1.0, 0.0, 0.0, 1.0, 0.0, 0.0)">
      <use height="86.25" transform="matrix(1.0, 0.0, 0.0, 1.0, 0.0, 0.0)" width="11.5" xlink:href="#shape1"/>
    </g>
    <g id="shape1" transform="matrix(1.0, 0.0, 0.0, 1.0, 0.0, 0.0)">
      <path d="M4.5 45.45 L6.3 45.85 Q5.5 33.8 4.0 23.2 L0.0 0.0 4.85 0.7 Q7.6 15.15 8.75 23.95 10.1 34.35 11.15 46.35 L11.5 85.75 7.25 86.25 4.25 84.3 4.5 45.45" fill="url(#gradient8)" fill-rule="evenodd" stroke="none"/>
    </g>
    <linearGradient gradientTransform="matrix(-0.0011, -0.0123, -0.0123, 0.0011, 2.6, 8.7)" gradientUnits="userSpaceOnUse" id="gradient8" spreadMethod="pad" x1="-819.2" x2="819.2">
      <stop offset="0.0" stop-color="#ffd5c4" stop-opacity="0.0"/>
      <stop offset="0.10588235294117647" stop-color="#dcb19d" stop-opacity="0.14117648"/>
      <stop offset="0.23137254901960785" stop-color="#ba9078" stop-opacity="0.27450982"/>
      <stop offset="0.3568627450980392" stop-color="#9f7459" stop-opacity="0.3882353"/>
      <stop offset="0.49411764705882355" stop-color="#895e41" stop-opacity="0.4745098"/>
      <stop offset="0.6352941176470588" stop-color="#7a4f30" stop-opacity="0.5372549"/>
      <stop offset="0.788235294117647" stop-color="#714626" stop-opacity="0.57254905"/>
      <stop offset="0.9803921568627451" stop-color="#6e4323" stop-opacity="0.58431375"/>
      <stop offset="1.0" stop-color="#ffffff" stop-opacity="0.0"/>
    </linearGradient>
    <g id="shape2" transform="matrix(1.0, 0.0, 0.0, 1.0, -6.65, 0.0)">
      <path d="M47.65 28.45 L44.45 12.5 42.4 3.25 45.9 1.95 47.95 12.1 Q50.2 23.45 51.1 29.35 52.35 37.5 53.6 50.05 L53.15 87.85 50.15 85.9 49.95 47.35 49.1 38.9 47.65 28.45" fill="#49514b" fill-rule="evenodd" stroke="none"/>
      <path d="M47.65 28.45 L44.45 12.5 42.4 3.25 45.9 1.95 47.95 12.1 Q50.2 23.45 51.1 29.35 52.35 37.5 53.6 50.05 L53.15 87.85 50.15 85.9 49.95 47.35 49.1 38.9 47.65 28.45" fill="#664234" fill-rule="evenodd" stroke="none"/>
      <path d="M49.1 17.6 L51.25 27.15 Q53.5 38.35 53.9 46.6 54.4 56.1 53.1 81.8 53.75 54.45 53.4 47.75 53.2 43.55 51.15 30.15 L49.1 17.6" fill="#cca585" fill-rule="evenodd" stroke="none"/>
      <path d="M42.4 3.25 L45.9 1.55 47.75 12.2 51.1 29.35 Q54.15 42.9 53.4 63.55 L53.1 77.5 Q52.75 51.45 52.2 47.45 L48.8 25.0 Q45.7 5.95 44.9 4.9 44.2 3.85 43.2 3.45 L42.4 3.25" fill="#3f2d27" fill-rule="evenodd" stroke="none"/>
      <path d="M53.25 81.15 L53.15 87.85 50.15 85.9 50.1 51.0 Q51.2 78.15 51.6 78.9 52.6 80.65 53.25 81.15" fill="#4c362e" fill-rule="evenodd" stroke="none"/>
      <path d="M6.65 5.3 L13.95 4.15 28.4 3.0 Q34.4 2.95 40.95 4.75 L46.3 6.55 43.9 8.0 40.4 7.4 28.8 6.8 Q23.1 6.8 15.05 8.5 L8.15 10.15 6.65 5.3" fill="#56413b" fill-rule="evenodd" stroke="none"/>
      <path d="M7.25 5.05 L14.5 3.9 28.95 2.75 Q34.95 2.7 41.5 4.5 44.8 5.4 46.85 6.3 L44.5 7.75 29.4 6.55 Q23.7 6.55 15.6 8.25 L8.7 9.9 7.25 5.05" fill="url(#gradient9)" fill-rule="evenodd" stroke="none"/>
      <path d="M8.15 3.05 L15.35 1.7 Q23.7 0.4 29.7 0.35 L38.2 0.45 45.15 1.8 46.4 6.65 Q45.0 6.05 42.3 5.4 36.8 4.15 30.1 4.15 24.4 4.1 16.35 5.8 L9.45 7.5 8.15 3.05" fill="#cca585" fill-rule="evenodd" stroke="none"/>
      <path d="M8.25 2.75 L15.45 1.4 Q23.8 0.05 29.8 0.0 L41.15 0.9 45.25 1.8 46.5 6.3 42.4 5.05 Q36.9 3.85 30.2 3.8 24.5 3.8 16.45 5.5 L9.55 7.15 8.25 2.75" fill="url(#gradient10)" fill-rule="evenodd" stroke="none"/>
      <path d="M17.6 5.5 Q25.9 3.65 32.85 3.85 40.4 4.05 44.1 5.35 45.95 5.95 46.3 6.55 45.45 6.15 43.25 5.65 L32.5 4.35 Q26.05 4.0 17.7 5.65 L10.7 7.4 17.6 5.5" fill="#cca585" fill-rule="evenodd" stroke="none"/>
    </g>
    <linearGradient gradientTransform="matrix(0.0302, 0.0022, 0.0022, -0.0302, 31.9, 7.25)" gradientUnits="userSpaceOnUse" id="gradient9" spreadMethod="pad" x1="-819.2" x2="819.2">
      <stop offset="0.0" stop-color="#231f20"/>
      <stop offset="0.054901960784313725" stop-color="#231f20" stop-opacity="0.79607844"/>
      <stop offset="0.6078431372549019" stop-color="#231f20" stop-opacity="0.0"/>
      <stop offset="1.0" stop-color="#231f20" stop-opacity="0.79607844"/>
    </linearGradient>
    <linearGradient gradientTransform="matrix(-0.0225, 7.0E-4, 7.0E-4, 0.0225, 17.25, 3.8)" gradientUnits="userSpaceOnUse" id="gradient10" spreadMethod="pad" x1="-819.2" x2="819.2">
      <stop offset="0.03529411764705882" stop-color="#ffcdad" stop-opacity="0.5372549"/>
      <stop offset="0.047058823529411764" stop-color="#ecb99b" stop-opacity="0.5529412"/>
      <stop offset="0.07450980392156863" stop-color="#c99479" stop-opacity="0.58431375"/>
      <stop offset="0.10196078431372549" stop-color="#ad765e" stop-opacity="0.60784316"/>
      <stop offset="0.12941176470588237" stop-color="#965f48" stop-opacity="0.627451"/>
      <stop offset="0.1607843137254902" stop-color="#864e39" stop-opacity="0.6392157"/>
      <stop offset="0.19607843137254902" stop-color="#7d4430" stop-opacity="0.64705884"/>
      <stop offset="0.23921568627450981" stop-color="#7a412d" stop-opacity="0.6509804"/>
      <stop offset="0.4392156862745098" stop-color="#381a0e" stop-opacity="0.6745098"/>
      <stop offset="0.7803921568627451" stop-color="#70331e" stop-opacity="0.69803923"/>
      <stop offset="1.0" stop-color="#ffffff" stop-opacity="0.0"/>
    </linearGradient>
    <g id="sprite1" transform="matrix(1.0, 0.0, 0.0, 1.0, 0.0, 0.0)">
      <use height="7.15" transform="matrix(1.0, 0.0, 0.0, 1.0, 0.0, 0.0)" width="38.25" xlink:href="#shape3"/>
    </g>
    <g id="shape3" transform="matrix(1.0, 0.0, 0.0, 1.0, 0.0, 0.0)">
      <path d="M34.15 5.05 Q28.65 3.8 21.95 3.8 16.25 3.75 8.2 5.45 L1.3 7.15 0.0 2.7 7.2 1.35 Q15.55 0.05 21.55 0.0 L32.75 0.85 36.75 1.7 38.25 6.3 Q36.85 5.7 34.15 5.05" fill="url(#gradient11)" fill-rule="evenodd" stroke="none"/>
    </g>
    <linearGradient gradientTransform="matrix(0.0089, 5.0E-4, 5.0E-4, -0.0089, 32.25, 4.65)" gradientUnits="userSpaceOnUse" id="gradient11" spreadMethod="pad" x1="-819.2" x2="819.2">
      <stop offset="0.0" stop-color="#ffd5c4" stop-opacity="0.0"/>
      <stop offset="0.10588235294117647" stop-color="#dcb19d" stop-opacity="0.14117648"/>
      <stop offset="0.23137254901960785" stop-color="#ba9078" stop-opacity="0.27450982"/>
      <stop offset="0.3568627450980392" stop-color="#9f7459" stop-opacity="0.3882353"/>
      <stop offset="0.49411764705882355" stop-color="#895e41" stop-opacity="0.4745098"/>
      <stop offset="0.6352941176470588" stop-color="#7a4f30" stop-opacity="0.5372549"/>
      <stop offset="0.788235294117647" stop-color="#714626" stop-opacity="0.57254905"/>
      <stop offset="0.9803921568627451" stop-color="#6e4323" stop-opacity="0.58431375"/>
      <stop offset="1.0" stop-color="#ffffff" stop-opacity="0.0"/>
    </linearGradient>
    <g id="shape4" transform="matrix(1.0, 0.0, 0.0, 1.0, -11.35, -24.35)">
      <path d="M11.35 29.6 L18.6 28.5 33.05 27.35 Q39.05 27.3 45.6 29.1 48.9 30.0 50.95 30.9 L48.55 32.35 45.05 31.75 33.45 31.15 Q27.75 31.1 19.7 32.8 L12.8 34.5 11.35 29.6" fill="#56413b" fill-rule="evenodd" stroke="none"/>
      <path d="M11.9 29.35 L19.2 28.25 33.65 27.1 Q39.65 27.05 46.2 28.85 L51.55 30.65 49.15 32.1 34.05 30.9 Q28.35 30.85 20.3 32.55 L13.4 34.25 11.9 29.35" fill="url(#gradient12)" fill-rule="evenodd" stroke="none"/>
      <path d="M12.85 27.4 L20.0 26.05 34.35 24.7 42.9 24.8 49.8 26.15 51.05 31.0 Q49.65 30.4 46.95 29.75 41.5 28.5 34.8 28.5 29.1 28.45 21.0 30.15 L14.1 31.85 12.85 27.4" fill="#cca585" fill-rule="evenodd" stroke="none"/>
      <path d="M12.9 27.05 L20.1 25.7 Q28.45 24.4 34.45 24.35 L45.8 25.25 49.9 26.15 51.15 30.65 Q49.75 30.05 47.05 29.4 41.55 28.15 34.85 28.15 29.15 28.1 21.1 29.8 L14.2 31.5 12.9 27.05" fill="url(#gradient13)" fill-rule="evenodd" stroke="none"/>
      <path d="M15.35 31.75 L22.25 29.85 Q30.55 28.0 37.55 28.2 45.05 28.4 48.75 29.7 50.6 30.3 50.95 30.9 L47.9 30.0 Q43.6 29.05 37.15 28.65 30.7 28.3 22.4 30.0 L15.35 31.75" fill="#cca585" fill-rule="evenodd" stroke="none"/>
    </g>
    <linearGradient gradientTransform="matrix(0.0302, 0.0022, 0.0022, -0.0302, 36.6, 31.55)" gradientUnits="userSpaceOnUse" id="gradient12" spreadMethod="pad" x1="-819.2" x2="819.2">
      <stop offset="0.0" stop-color="#231f20"/>
      <stop offset="0.054901960784313725" stop-color="#231f20" stop-opacity="0.79607844"/>
      <stop offset="0.6078431372549019" stop-color="#231f20" stop-opacity="0.0"/>
      <stop offset="1.0" stop-color="#231f20" stop-opacity="0.79607844"/>
    </linearGradient>
    <linearGradient gradientTransform="matrix(-0.0225, 7.0E-4, 7.0E-4, 0.0225, 21.9, 28.1)" gradientUnits="userSpaceOnUse" id="gradient13" spreadMethod="pad" x1="-819.2" x2="819.2">
      <stop offset="0.03529411764705882" stop-color="#ffcdad" stop-opacity="0.5372549"/>
      <stop offset="0.047058823529411764" stop-color="#ecb99b" stop-opacity="0.5529412"/>
      <stop offset="0.07450980392156863" stop-color="#c99479" stop-opacity="0.58431375"/>
      <stop offset="0.10196078431372549" stop-color="#ad765e" stop-opacity="0.60784316"/>
      <stop offset="0.12941176470588237" stop-color="#965f48" stop-opacity="0.627451"/>
      <stop offset="0.1607843137254902" stop-color="#864e39" stop-opacity="0.6392157"/>
      <stop offset="0.19607843137254902" stop-color="#7d4430" stop-opacity="0.64705884"/>
      <stop offset="0.23921568627450981" stop-color="#7a412d" stop-opacity="0.6509804"/>
      <stop offset="0.4392156862745098" stop-color="#381a0e" stop-opacity="0.6745098"/>
      <stop offset="0.7803921568627451" stop-color="#70331e" stop-opacity="0.69803923"/>
      <stop offset="1.0" stop-color="#ffffff" stop-opacity="0.0"/>
    </linearGradient>
    <g id="sprite2" transform="matrix(1.0, 0.0, 0.0, 1.0, 0.0, 0.0)">
      <use height="7.1" transform="matrix(1.0, 0.0, 0.0, 1.0, 0.0, 0.0)" width="38.25" xlink:href="#shape5"/>
    </g>
    <g id="shape5" transform="matrix(1.0, 0.0, 0.0, 1.0, 0.0, 0.0)">
      <path d="M34.15 5.0 Q28.65 3.8 21.95 3.75 16.25 3.75 8.2 5.45 L1.3 7.1 0.0 2.7 7.2 1.35 Q15.55 0.05 21.55 0.0 L32.75 0.8 36.75 1.65 38.25 6.25 Q36.85 5.65 34.15 5.0" fill="url(#gradient14)" fill-rule="evenodd" stroke="none"/>
    </g>
    <linearGradient gradientTransform="matrix(0.0089, 5.0E-4, 5.0E-4, -0.0089, 32.2, 4.65)" gradientUnits="userSpaceOnUse" id="gradient14" spreadMethod="pad" x1="-819.2" x2="819.2">
      <stop offset="0.0" stop-color="#ffd5c4" stop-opacity="0.0"/>
      <stop offset="0.10588235294117647" stop-color="#dcb19d" stop-opacity="0.14117648"/>
      <stop offset="0.23137254901960785" stop-color="#ba9078" stop-opacity="0.27450982"/>
      <stop offset="0.3568627450980392" stop-color="#9f7459" stop-opacity="0.3882353"/>
      <stop offset="0.49411764705882355" stop-color="#895e41" stop-opacity="0.4745098"/>
      <stop offset="0.6352941176470588" stop-color="#7a4f30" stop-opacity="0.5372549"/>
      <stop offset="0.788235294117647" stop-color="#714626" stop-opacity="0.57254905"/>
      <stop offset="0.9803921568627451" stop-color="#6e4323" stop-opacity="0.58431375"/>
      <stop offset="1.0" stop-color="#ffffff" stop-opacity="0.0"/>
    </linearGradient>
    <g id="shape6" transform="matrix(1.0, 0.0, 0.0, 1.0, -9.4, -1.1)">
      <path d="M9.75 3.9 L14.0 3.0 12.45 3.75 Q10.95 4.7 11.0 5.8 L12.25 16.4 9.75 3.9" fill="#acbfb1" fill-rule="evenodd" stroke="none"/>
      <path d="M14.0 3.0 L12.7 3.35 Q11.3 3.8 10.9 4.15 10.5 4.6 10.6 7.1 L10.75 9.5 9.75 3.9 14.0 3.0" fill="#bed3c3" fill-rule="evenodd" stroke="none"/>
      <path d="M9.55 2.6 L14.1 1.3 12.4 2.2 Q10.75 3.35 10.8 4.45 L12.05 15.2 9.55 2.6" fill="#acbfb1" fill-rule="evenodd" stroke="none"/>
      <path d="M13.55 26.55 L11.2 12.05 9.55 2.6 14.1 1.3 15.75 10.9 Q17.6 21.65 18.3 27.3 L20.75 50.45 21.05 91.15 16.8 91.65 13.8 89.65 14.05 49.5 15.85 49.95 Q15.1 37.7 13.55 26.55" fill="#cca585" fill-rule="evenodd" stroke="none"/>
      <path d="M13.4 26.4 L11.05 11.85 9.4 2.4 13.9 1.1 15.6 10.75 Q17.45 21.5 18.15 27.15 19.5 37.9 20.55 50.25 L20.9 91.0 16.65 91.5 13.65 89.45 13.9 49.35 15.7 49.8 Q15.0 38.2 13.4 26.4" fill="url(#gradient15)" fill-rule="evenodd" stroke="none"/>
    </g>
    <linearGradient gradientTransform="matrix(-3.0E-4, 0.0536, 0.0536, 3.0E-4, 15.05, 62.3)" gradientUnits="userSpaceOnUse" id="gradient15" spreadMethod="pad" x1="-819.2" x2="819.2">
      <stop offset="0.03529411764705882" stop-color="#ffcdad" stop-opacity="0.5372549"/>
      <stop offset="0.043137254901960784" stop-color="#ecb99b" stop-opacity="0.5529412"/>
      <stop offset="0.054901960784313725" stop-color="#c99479" stop-opacity="0.58431375"/>
      <stop offset="0.07058823529411765" stop-color="#ad765e" stop-opacity="0.60784316"/>
      <stop offset="0.08627450980392157" stop-color="#965f48" stop-opacity="0.627451"/>
      <stop offset="0.10196078431372549" stop-color="#864e39" stop-opacity="0.6392157"/>
      <stop offset="0.11764705882352941" stop-color="#7d4430" stop-opacity="0.64705884"/>
      <stop offset="0.1411764705882353" stop-color="#7a412d" stop-opacity="0.6509804"/>
      <stop offset="0.4392156862745098" stop-color="#381a0e" stop-opacity="0.6745098"/>
      <stop offset="0.7803921568627451" stop-color="#70331e" stop-opacity="0.69803923"/>
      <stop offset="1.0" stop-color="#ffd5c4" stop-opacity="0.0"/>
    </linearGradient>
    <g id="sprite3" transform="matrix(1.0, 0.0, 0.0, 1.0, 0.0, 0.0)">
      <use height="90.4" transform="matrix(1.0, 0.0, 0.0, 1.0, 0.0, 0.0)" width="11.5" xlink:href="#shape7"/>
    </g>
    <g id="shape7" transform="matrix(1.0, 0.0, 0.0, 1.0, 0.0, 0.0)">
      <path d="M4.5 48.25 L6.3 48.7 Q5.55 36.35 4.0 25.3 3.05 18.45 0.0 1.3 L4.5 0.0 Q7.6 16.95 8.75 26.05 10.1 36.8 11.15 49.15 L11.5 89.9 7.25 90.4 4.25 88.35 4.5 48.25" fill="url(#gradient16)" fill-rule="evenodd" stroke="none"/>
    </g>
    <linearGradient gradientTransform="matrix(-0.0012, -0.0128, -0.0128, 0.0012, 2.05, 5.95)" gradientUnits="userSpaceOnUse" id="gradient16" spreadMethod="pad" x1="-819.2" x2="819.2">
      <stop offset="0.0" stop-color="#ffd5c4" stop-opacity="0.0"/>
      <stop offset="0.10588235294117647" stop-color="#dcb19d" stop-opacity="0.14117648"/>
      <stop offset="0.23137254901960785" stop-color="#ba9078" stop-opacity="0.27450982"/>
      <stop offset="0.3568627450980392" stop-color="#9f7459" stop-opacity="0.3882353"/>
      <stop offset="0.49411764705882355" stop-color="#895e41" stop-opacity="0.4745098"/>
      <stop offset="0.6352941176470588" stop-color="#7a4f30" stop-opacity="0.5372549"/>
      <stop offset="0.788235294117647" stop-color="#714626" stop-opacity="0.57254905"/>
      <stop offset="0.9803921568627451" stop-color="#6e4323" stop-opacity="0.58431375"/>
      <stop offset="1.0" stop-color="#ffffff" stop-opacity="0.0"/>
    </linearGradient>
    <g id="shape8" transform="matrix(1.0, 0.0, 0.0, 1.0, -6.05, -2.6)">
      <path d="M11.3 30.35 L8.1 13.9 6.05 4.35 9.55 3.0 11.6 13.45 14.75 31.25 Q16.0 39.65 17.25 52.6 L16.8 91.65 13.8 89.65 13.6 49.85 12.7 41.15 Q12.0 34.3 11.3 30.35" fill="#49514b" fill-rule="evenodd" stroke="none"/>
      <path d="M11.3 30.35 L8.1 13.9 6.05 4.35 9.55 3.0 11.6 13.45 14.75 31.25 Q16.0 39.65 17.25 52.6 L16.8 91.65 13.8 89.65 13.6 49.85 12.7 41.15 Q12.0 34.3 11.3 30.35" fill="#664234" fill-rule="evenodd" stroke="none"/>
      <path d="M12.75 19.15 L14.9 29.0 Q17.15 40.55 17.55 49.1 18.05 58.85 16.75 85.45 17.4 57.15 17.05 50.25 16.85 45.95 14.8 32.1 L12.75 19.15" fill="#cca585" fill-rule="evenodd" stroke="none"/>
      <path d="M6.05 4.35 L9.55 2.6 11.4 13.55 Q13.5 25.65 14.75 31.25 17.8 45.3 17.05 66.6 L16.75 80.95 Q16.4 54.1 15.85 49.95 L12.45 26.8 Q9.35 7.1 8.55 6.05 7.85 5.0 6.85 4.55 L6.05 4.35" fill="#3f2d27" fill-rule="evenodd" stroke="none"/>
      <path d="M16.9 84.75 L16.8 91.65 13.8 89.65 13.75 53.65 Q14.8 81.65 15.25 82.4 16.25 84.25 16.9 84.75" fill="#4c362e" fill-rule="evenodd" stroke="none"/>
      <path d="M82.25 69.9 L35.25 73.15 12.25 59.4 12.25 54.4 55.5 51.65 82.25 63.9 82.25 69.9" fill="#cca585" fill-rule="evenodd" stroke="none"/>
    </g>
    <g id="sprite4" transform="matrix(1.0, 0.0, 0.0, 1.0, 0.0, 0.0)">
      <use height="21.5" transform="matrix(1.0, 0.0, 0.0, 1.0, 0.0, 0.0)" width="70.0" xlink:href="#shape9"/>
    </g>
    <g id="shape9" transform="matrix(1.0, 0.0, 0.0, 1.0, 0.0, 0.0)">
      <path d="M70.0 18.25 L23.0 21.5 0.0 7.75 0.0 2.75 43.25 0.0 70.0 12.25 70.0 18.25" fill="url(#gradient17)" fill-rule="evenodd" stroke="none"/>
    </g>
    <linearGradient gradientTransform="matrix(-0.0427, -1.0E-4, -1.0E-4, 0.0427, 35.0, 10.75)" gradientUnits="userSpaceOnUse" id="gradient17" spreadMethod="pad" x1="-819.2" x2="819.2">
      <stop offset="0.0" stop-color="#ffd5c4" stop-opacity="0.0"/>
      <stop offset="0.10588235294117647" stop-color="#dcb19d" stop-opacity="0.14117648"/>
      <stop offset="0.23137254901960785" stop-color="#ba9078" stop-opacity="0.27450982"/>
      <stop offset="0.3568627450980392" stop-color="#9f7459" stop-opacity="0.3882353"/>
      <stop offset="0.49411764705882355" stop-color="#895e41" stop-opacity="0.4745098"/>
      <stop offset="0.6352941176470588" stop-color="#7a4f30" stop-opacity="0.5372549"/>
      <stop offset="0.788235294117647" stop-color="#714626" stop-opacity="0.57254905"/>
      <stop offset="0.9803921568627451" stop-color="#6e4323" stop-opacity="0.58431375"/>
      <stop offset="1.0" stop-color="#ffffff" stop-opacity="0.0"/>
    </linearGradient>
    <g id="shape10" transform="matrix(1.0, 0.0, 0.0, 1.0, -12.25, -54.4)">
      <path d="M36.55 67.8 L35.95 73.15 35.25 73.15 12.25 59.4 12.25 54.4 12.5 54.4 36.55 67.8" fill="#664234" fill-rule="evenodd" stroke="none"/>
    </g>
    <g id="sprite5" transform="matrix(1.0, 0.0, 0.0, 1.0, 0.0, 0.0)">
      <use height="18.75" transform="matrix(1.0, 0.0, 0.0, 1.0, 0.0, 0.0)" width="24.25" xlink:href="#shape11"/>
    </g>
    <g id="shape11" transform="matrix(1.0, 0.0, 0.0, 1.0, 0.0, 0.0)">
      <path d="M24.25 13.4 L23.7 18.7 23.0 18.75 0.0 5.0 0.0 0.0 0.2 0.0 24.25 13.4" fill="url(#gradient18)" fill-rule="evenodd" stroke="none"/>
    </g>
    <linearGradient gradientTransform="matrix(-0.0154, -0.0081, -0.0081, 0.0154, 6.35, 6.6)" gradientUnits="userSpaceOnUse" id="gradient18" spreadMethod="pad" x1="-819.2" x2="819.2">
      <stop offset="0.0" stop-color="#ffd5c4" stop-opacity="0.0"/>
      <stop offset="0.10588235294117647" stop-color="#dcb19d" stop-opacity="0.14117648"/>
      <stop offset="0.23137254901960785" stop-color="#ba9078" stop-opacity="0.27450982"/>
      <stop offset="0.3568627450980392" stop-color="#9f7459" stop-opacity="0.3882353"/>
      <stop offset="0.49411764705882355" stop-color="#895e41" stop-opacity="0.4745098"/>
      <stop offset="0.6352941176470588" stop-color="#7a4f30" stop-opacity="0.5372549"/>
      <stop offset="0.788235294117647" stop-color="#714626" stop-opacity="0.57254905"/>
      <stop offset="0.9803921568627451" stop-color="#6e4323" stop-opacity="0.58431375"/>
      <stop offset="1.0" stop-color="#ffffff" stop-opacity="0.0"/>
    </linearGradient>
    <g id="shape12" transform="matrix(1.0, 0.0, 0.0, 1.0, -34.75, -63.85)">
      <path d="M82.1 63.85 L82.25 63.9 82.25 69.9 35.25 73.15 35.15 73.1 34.75 67.0 82.1 63.85" fill="#cca585" fill-rule="evenodd" stroke="none"/>
      <path d="M82.1 63.85 L82.25 63.95 82.25 69.95 35.25 73.2 35.15 73.1 34.75 67.0 82.1 63.85" fill="url(#gradient19)" fill-rule="evenodd" stroke="none"/>
    </g>
    <linearGradient gradientTransform="matrix(-0.0314, 0.0014, 0.0014, 0.0314, 39.5, 69.4)" gradientUnits="userSpaceOnUse" id="gradient19" spreadMethod="pad" x1="-819.2" x2="819.2">
      <stop offset="0.03529411764705882" stop-color="#ffcdad" stop-opacity="0.5372549"/>
      <stop offset="0.047058823529411764" stop-color="#ecb99b" stop-opacity="0.5529412"/>
      <stop offset="0.07450980392156863" stop-color="#c99479" stop-opacity="0.58431375"/>
      <stop offset="0.10196078431372549" stop-color="#ad765e" stop-opacity="0.60784316"/>
      <stop offset="0.12941176470588237" stop-color="#965f48" stop-opacity="0.627451"/>
      <stop offset="0.1607843137254902" stop-color="#864e39" stop-opacity="0.6392157"/>
      <stop offset="0.19607843137254902" stop-color="#7d4430" stop-opacity="0.64705884"/>
      <stop offset="0.23921568627450981" stop-color="#7a412d" stop-opacity="0.6509804"/>
      <stop offset="0.4392156862745098" stop-color="#381a0e" stop-opacity="0.6745098"/>
      <stop offset="0.7803921568627451" stop-color="#70331e" stop-opacity="0.69803923"/>
      <stop offset="1.0" stop-color="#ffffff" stop-opacity="0.0"/>
    </linearGradient>
    <g id="sprite6" transform="matrix(1.0, 0.0, 0.0, 1.0, 0.0, 0.0)">
      <use height="9.35" transform="matrix(1.0, 0.0, 0.0, 1.0, 0.0, 0.0)" width="47.5" xlink:href="#shape13"/>
    </g>
    <g id="shape13" transform="matrix(1.0, 0.0, 0.0, 1.0, 0.0, 0.0)">
      <path d="M47.35 0.0 L47.5 0.1 47.5 6.1 0.5 9.35 0.4 9.3 0.0 3.2 47.35 0.0" fill="url(#gradient20)" fill-rule="evenodd" stroke="none"/>
    </g>
    <linearGradient gradientTransform="matrix(0.0136, -4.0E-4, -4.0E-4, -0.0136, 40.55, 4.15)" gradientUnits="userSpaceOnUse" id="gradient20" spreadMethod="pad" x1="-819.2" x2="819.2">
      <stop offset="0.0" stop-color="#ffd5c4" stop-opacity="0.0"/>
      <stop offset="0.10588235294117647" stop-color="#dcb19d" stop-opacity="0.14117648"/>
      <stop offset="0.23137254901960785" stop-color="#ba9078" stop-opacity="0.27450982"/>
      <stop offset="0.3568627450980392" stop-color="#9f7459" stop-opacity="0.3882353"/>
      <stop offset="0.49411764705882355" stop-color="#895e41" stop-opacity="0.4745098"/>
      <stop offset="0.6352941176470588" stop-color="#7a4f30" stop-opacity="0.5372549"/>
      <stop offset="0.788235294117647" stop-color="#714626" stop-opacity="0.57254905"/>
      <stop offset="0.9803921568627451" stop-color="#6e4323" stop-opacity="0.58431375"/>
      <stop offset="1.0" stop-color="#ffffff" stop-opacity="0.0"/>
    </linearGradient>
    <g id="shape14" transform="matrix(1.0, 0.0, 0.0, 1.0, -12.0, -46.45)">
      <path d="M27.6 65.0 L12.0 54.4 34.75 67.0 34.4 72.15 Q30.1 66.65 27.6 65.0" fill="#4c362e" fill-rule="evenodd" stroke="none"/>
      <path d="M15.1 59.65 Q16.75 61.35 34.4 72.15 L12.25 59.4 12.4 57.0 15.1 59.65" fill="#4c362e" fill-rule="evenodd" stroke="none"/>
      <path d="M61.1 65.85 L42.5 66.8 34.75 67.0 82.25 63.9 61.1 65.85" fill="#cca585" fill-rule="evenodd" stroke="none"/>
      <path d="M34.75 67.0 L34.85 69.2 35.15 72.5 Q35.25 73.0 37.9 73.0 L34.75 73.15 34.75 67.0" fill="#cca585" fill-rule="evenodd" stroke="none"/>
      <path d="M54.95 52.8 L79.45 63.0 37.3 65.85 16.8 55.05 54.95 52.8" fill="#3f3f3f" fill-rule="evenodd" stroke="none"/>
      <path d="M57.0 47.55 Q76.6 53.95 77.0 54.35 L77.55 55.35 77.6 61.95 Q77.35 62.75 70.85 63.0 L40.95 65.0 38.1 65.15 36.7 64.85 27.65 60.25 Q19.0 55.9 18.65 55.6 17.95 55.0 18.15 51.1 L18.2 49.1 Q18.3 48.4 18.85 48.05 L34.55 47.05 51.25 46.45 Q53.35 46.45 57.0 47.55" fill="#f0deb9" fill-rule="evenodd" stroke="none"/>
      <path d="M77.65 60.15 L77.55 60.2 Q74.6 61.35 37.15 65.0 L36.7 64.85 34.1 63.5 41.05 58.2 48.05 57.35 56.05 56.65 62.55 56.2 68.65 55.8 73.8 55.7 Q76.6 55.55 77.05 54.85 L77.2 54.6 77.55 55.35 77.65 60.15" fill="#fcf2dd" fill-rule="evenodd" stroke="none"/>
      <path d="M72.55 53.55 L72.85 53.5 Q73.25 53.45 69.85 52.2 L64.9 50.55 59.6 48.9 54.75 47.4 50.75 46.45 51.25 46.45 Q53.35 46.45 57.0 47.55 L64.05 49.85 74.4 53.35 72.55 53.55" fill="#fcf2dd" fill-rule="evenodd" stroke="none"/>
      <path d="M60.75 51.95 L61.9 52.2 60.1 52.6 59.45 52.85 62.65 52.95 61.8 53.35 60.8 53.55 61.7 53.8 62.6 53.85 64.1 54.0 62.15 54.1 59.75 54.1 59.0 54.2 59.3 54.25 57.05 54.3 55.1 54.45 53.05 54.5 51.0 54.9 49.8 54.95 48.55 54.95 46.6 55.15 Q47.4 54.9 48.05 53.9 L47.45 53.9 44.55 54.1 43.25 54.3 41.95 54.35 43.1 53.9 44.3 53.55 41.95 53.45 40.1 53.35 41.15 53.2 Q41.8 53.1 42.0 52.8 L38.95 52.2 38.0 52.05 38.9 51.85 37.35 51.6 34.5 51.1 30.15 50.75 31.65 50.8 33.1 50.5 31.05 50.25 32.8 50.25 34.55 50.25 36.3 50.2 35.55 49.95 39.15 49.95 40.25 49.85 39.5 49.6 40.55 49.5 41.55 49.55 43.75 49.45 43.05 49.2 46.85 49.1 48.3 48.85 49.25 48.8 50.7 49.0 51.85 49.1 Q52.7 49.2 52.75 49.4 L52.15 49.5 53.5 49.7 54.85 49.95 53.6 50.2 55.8 50.35 56.3 50.4 Q56.8 50.45 56.85 50.6 L56.45 50.9 57.0 51.0 58.65 51.2 59.25 51.3 Q59.85 51.45 59.9 51.55 L59.05 51.7 60.75 51.95" fill="#ebd8b5" fill-rule="evenodd" stroke="none"/>
      <path d="M62.1 56.7 L71.35 56.25 Q76.75 55.95 77.55 55.35 L77.6 61.95 Q77.35 62.75 70.85 63.0 L40.95 65.0 38.1 65.15 36.7 64.85 27.65 60.25 Q19.0 55.9 18.65 55.6 17.95 55.0 18.15 51.1 L18.2 49.2 Q18.3 48.55 18.7 48.2 18.4 48.6 19.8 49.45 L27.1 53.05 34.45 56.5 Q38.65 58.2 41.05 58.2 L62.1 56.7" fill="#d4c5a4" fill-rule="evenodd" stroke="none"/>
      <path d="M77.55 55.35 L77.65 57.85 74.05 58.2 70.5 58.15 Q71.15 58.25 70.95 58.75 L67.4 58.8 60.45 59.4 53.5 60.25 55.7 59.6 57.9 58.95 58.95 58.55 53.35 58.9 55.5 58.55 56.65 58.15 57.7 57.85 54.75 58.05 51.7 58.15 49.15 58.25 46.65 58.45 47.3 58.05 50.15 58.1 54.9 57.8 60.05 57.5 62.2 57.5 64.45 57.15 67.65 56.6 68.9 56.35 Q76.6 56.05 77.55 55.35" fill="#c7b799" fill-rule="evenodd" stroke="none"/>
      <path d="M75.05 60.45 Q76.45 60.3 77.5 59.6 L77.65 59.5 77.65 61.1 76.8 61.35 74.3 61.65 72.0 61.8 67.6 62.2 63.0 62.65 60.5 62.8 52.05 63.5 43.15 63.7 42.75 64.85 41.65 64.95 Q41.65 63.0 42.1 61.05 L42.8 58.15 44.4 58.05 43.85 58.3 44.9 58.1 47.3 58.05 46.65 58.45 46.15 59.35 Q46.05 59.8 46.25 60.0 L46.55 60.35 46.45 60.8 46.3 61.55 47.0 61.8 47.75 61.95 49.1 62.05 54.2 62.05 60.75 61.85 62.35 61.6 64.3 61.5 66.25 61.55 70.1 61.35 72.15 61.1 73.3 60.9 75.05 60.45" fill="#c7b799" fill-rule="evenodd" stroke="none"/>
      <path d="M62.1 56.7 L68.9 56.35 67.65 56.6 64.45 57.15 62.2 57.5 60.05 57.5 54.9 57.8 50.15 58.1 44.9 58.1 43.85 58.3 44.4 58.05 62.1 56.7" fill="#ada085" fill-rule="evenodd" stroke="none"/>
      <path d="M71.15 61.95 L69.4 62.15 67.15 62.35 Q62.4 63.5 59.45 63.6 L54.25 63.75 48.75 64.0 43.25 64.25 43.15 64.85 42.75 64.85 43.15 63.7 52.05 63.5 61.05 62.8 67.6 62.2 72.0 61.8 74.3 61.65 76.8 61.35 77.65 61.1 77.65 61.65 77.55 61.7 75.0 61.95 71.15 61.95" fill="#ada085" fill-rule="evenodd" stroke="none"/>
      <path d="M69.4 62.15 L71.15 61.95 75.0 61.95 77.55 61.7 77.65 61.65 77.6 61.95 Q77.35 62.75 70.85 63.0 L43.15 64.85 43.25 64.25 48.75 64.0 54.25 63.75 59.45 63.6 Q62.4 63.5 67.15 62.35 L69.4 62.15" fill="#8c826c" fill-rule="evenodd" stroke="none"/>
      <path d="M37.65 57.8 L37.7 57.7 38.75 57.95 39.1 58.65 Q40.25 60.9 40.45 65.05 L39.85 65.1 Q39.25 62.5 37.75 60.25 37.4 60.55 37.25 61.8 37.05 62.95 36.4 63.15 35.5 63.4 34.2 62.7 L32.65 61.9 34.35 62.35 35.2 62.35 35.2 61.6 35.4 61.35 35.7 61.2 36.75 60.5 37.1 59.6 37.35 58.65 37.65 57.8 Q36.4 57.55 34.9 56.95 L29.05 54.85 26.35 53.85 25.1 53.5 25.1 53.65 23.9 53.45 Q23.1 53.1 22.75 53.45 L22.15 54.25 Q22.1 54.45 22.35 54.65 L22.65 54.95 22.9 55.35 Q23.15 55.75 23.75 55.9 L24.7 56.3 25.6 57.3 26.9 58.1 27.65 58.55 Q28.0 58.75 28.7 58.95 L29.55 59.35 30.45 59.8 29.55 59.85 29.9 60.3 29.55 60.15 27.55 59.25 26.5 58.55 25.45 58.05 23.0 56.85 Q21.5 56.1 20.9 55.6 19.95 54.8 19.85 53.35 L19.85 50.8 Q19.85 50.3 20.2 49.6 L27.55 53.3 34.45 56.5 37.6 57.65 37.65 57.8" fill="#c7b799" fill-rule="evenodd" stroke="none"/>
      <path d="M18.65 55.6 Q17.95 55.0 18.15 51.1 L18.2 49.2 Q18.3 48.55 18.7 48.2 18.4 48.6 19.8 49.45 L20.2 49.6 Q19.85 50.3 19.85 50.8 L19.85 53.35 Q19.95 54.8 20.9 55.6 21.5 56.1 23.0 56.85 L25.45 58.05 26.5 58.55 27.55 59.25 29.55 60.15 29.9 60.3 Q31.3 61.0 31.95 61.45 L32.65 61.9 34.2 62.7 Q35.5 63.4 36.4 63.15 37.05 62.95 37.25 61.8 37.4 60.55 37.75 60.25 39.25 62.5 39.85 65.1 L36.7 64.85 27.65 60.25 Q19.0 55.9 18.65 55.6" fill="#ada085" fill-rule="evenodd" stroke="none"/>
    </g>
    <g id="sprite7" transform="matrix(1.0, 0.0, 0.0, 1.0, 0.0, 0.0)">
      <use height="16.95" transform="matrix(1.0, 0.0, 0.0, 1.0, 0.0, 0.0)" width="21.4" xlink:href="#shape15"/>
    </g>
    <g id="shape15" transform="matrix(1.0, 0.0, 0.0, 1.0, 0.0, 0.0)">
      <path d="M21.2 11.2 Q21.6 12.95 21.1 14.5 L19.9 16.95 18.6 16.65 9.55 12.05 Q0.9 7.7 0.55 7.4 -0.15 6.8 0.05 2.9 L0.1 1.0 Q0.2 0.35 0.6 0.0 0.3 0.4 1.7 1.25 L9.0 4.85 16.35 8.3 20.65 9.75 21.2 11.2" fill="#49443b" fill-rule="evenodd" stroke="none"/>
    </g>
    <g id="shape16" transform="matrix(1.0, 0.0, 0.0, 1.0, -16.8, -46.45)">
      <path d="M54.95 52.8 L79.45 63.0 37.3 65.85 16.8 55.05 54.95 52.8" fill="#664234" fill-rule="evenodd" stroke="none"/>
      <path d="M57.0 47.55 Q76.6 53.95 77.0 54.35 L77.55 55.35 77.6 61.95 Q77.35 62.75 70.85 63.0 L40.95 65.0 38.1 65.15 36.7 64.85 27.65 60.25 Q19.0 55.9 18.65 55.6 17.95 55.0 18.15 51.1 L18.2 49.1 Q18.3 48.4 18.85 48.05 L34.55 47.05 51.25 46.45 Q53.35 46.45 57.0 47.55" fill="#f0deb9" fill-rule="evenodd" stroke="none"/>
      <path d="M77.65 60.15 L77.55 60.2 Q74.6 61.35 37.15 65.0 L36.7 64.85 34.1 63.5 41.05 58.2 48.05 57.35 56.05 56.65 62.55 56.2 68.65 55.8 73.8 55.7 Q76.6 55.55 77.05 54.85 L77.2 54.6 77.55 55.35 77.65 60.15" fill="#fcf2dd" fill-rule="evenodd" stroke="none"/>
      <path d="M72.55 53.55 L72.85 53.5 Q73.25 53.45 69.85 52.2 L64.9 50.55 59.6 48.9 54.75 47.4 50.75 46.45 51.25 46.45 Q53.35 46.45 57.0 47.55 L64.05 49.85 74.4 53.35 72.55 53.55" fill="#fcf2dd" fill-rule="evenodd" stroke="none"/>
      <path d="M60.75 51.95 L61.9 52.2 60.1 52.6 59.45 52.85 62.65 52.95 61.8 53.35 60.8 53.55 61.7 53.8 62.6 53.85 64.1 54.0 62.15 54.1 59.75 54.1 59.0 54.2 59.3 54.25 57.05 54.3 55.1 54.45 53.05 54.5 51.0 54.9 49.8 54.95 48.55 54.95 46.6 55.15 Q47.4 54.9 48.05 53.9 L47.45 53.9 44.55 54.1 43.25 54.3 41.95 54.35 43.1 53.9 44.3 53.55 41.95 53.45 40.1 53.35 41.15 53.2 Q41.8 53.1 42.0 52.8 L38.95 52.2 38.0 52.05 38.9 51.85 37.35 51.6 34.5 51.1 30.15 50.75 31.65 50.8 33.1 50.5 31.05 50.25 32.8 50.25 34.55 50.25 36.3 50.2 35.55 49.95 39.15 49.95 40.25 49.85 39.5 49.6 40.55 49.5 41.55 49.55 43.75 49.45 43.05 49.2 46.85 49.1 48.3 48.85 49.25 48.8 50.7 49.0 51.85 49.1 Q52.7 49.2 52.75 49.4 L52.15 49.5 53.5 49.7 54.85 49.95 53.6 50.2 55.8 50.35 56.3 50.4 Q56.8 50.45 56.85 50.6 L56.45 50.9 57.0 51.0 58.65 51.2 59.25 51.3 Q59.85 51.45 59.9 51.55 L59.05 51.7 60.75 51.95" fill="#ebd8b5" fill-rule="evenodd" stroke="none"/>
      <path d="M62.1 56.7 L71.35 56.25 Q76.75 55.95 77.55 55.35 L77.6 61.95 Q77.35 62.75 70.85 63.0 L40.95 65.0 38.1 65.15 36.7 64.85 27.65 60.25 Q19.0 55.9 18.65 55.6 17.95 55.0 18.15 51.1 L18.2 49.2 Q18.3 48.55 18.7 48.2 18.4 48.6 19.8 49.45 L27.1 53.05 34.45 56.5 Q38.65 58.2 41.05 58.2 L62.1 56.7" fill="#d4c5a4" fill-rule="evenodd" stroke="none"/>
      <path d="M77.55 55.35 L77.65 57.85 74.05 58.2 70.5 58.15 Q71.15 58.25 70.95 58.75 L67.4 58.8 60.45 59.4 53.5 60.25 55.7 59.6 57.9 58.95 58.95 58.55 53.35 58.9 55.5 58.55 56.65 58.15 57.7 57.85 54.75 58.05 51.7 58.15 49.15 58.25 46.65 58.45 47.3 58.05 50.15 58.1 54.9 57.8 60.05 57.5 62.2 57.5 64.45 57.15 67.65 56.6 68.9 56.35 Q76.6 56.05 77.55 55.35" fill="#c7b799" fill-rule="evenodd" stroke="none"/>
      <path d="M75.05 60.45 Q76.45 60.3 77.5 59.6 L77.65 59.5 77.65 61.1 76.8 61.35 74.3 61.65 72.0 61.8 67.6 62.2 63.0 62.65 60.5 62.8 52.05 63.5 43.15 63.7 42.75 64.85 41.65 64.95 Q41.65 63.0 42.1 61.05 L42.8 58.15 44.4 58.05 43.85 58.3 44.9 58.1 47.3 58.05 46.65 58.45 46.15 59.35 Q46.05 59.8 46.25 60.0 L46.55 60.35 46.45 60.8 46.3 61.55 47.0 61.8 47.75 61.95 49.1 62.05 54.2 62.05 60.75 61.85 62.35 61.6 64.3 61.5 66.25 61.55 70.1 61.35 72.15 61.1 73.3 60.9 75.05 60.45" fill="#c7b799" fill-rule="evenodd" stroke="none"/>
      <path d="M62.1 56.7 L68.9 56.35 67.65 56.6 64.45 57.15 62.2 57.5 60.05 57.5 54.9 57.8 50.15 58.1 44.9 58.1 43.85 58.3 44.4 58.05 62.1 56.7" fill="#ada085" fill-rule="evenodd" stroke="none"/>
      <path d="M71.15 61.95 L69.4 62.15 67.15 62.35 Q62.4 63.5 59.45 63.6 L54.25 63.75 48.75 64.0 43.25 64.25 43.15 64.85 42.75 64.85 43.15 63.7 52.05 63.5 61.05 62.8 67.6 62.2 72.0 61.8 74.3 61.65 76.8 61.35 77.65 61.1 77.65 61.65 77.55 61.7 75.0 61.95 71.15 61.95" fill="#ada085" fill-rule="evenodd" stroke="none"/>
      <path d="M69.4 62.15 L71.15 61.95 75.0 61.95 77.55 61.7 77.65 61.65 77.6 61.95 Q77.35 62.75 70.85 63.0 L43.15 64.85 43.25 64.25 48.75 64.0 54.25 63.75 59.45 63.6 Q62.4 63.5 67.15 62.35 L69.4 62.15" fill="#8c826c" fill-rule="evenodd" stroke="none"/>
      <path d="M37.65 57.8 L37.7 57.7 38.75 57.95 39.1 58.65 Q40.25 60.9 40.45 65.05 L39.85 65.1 Q39.25 62.5 37.75 60.25 37.4 60.55 37.25 61.8 37.05 62.95 36.4 63.15 35.5 63.4 34.2 62.7 L32.65 61.9 34.35 62.35 35.2 62.35 35.2 61.6 35.4 61.35 35.7 61.2 36.75 60.5 37.1 59.6 37.35 58.65 37.65 57.8 Q36.4 57.55 34.9 56.95 L29.05 54.85 26.35 53.85 25.1 53.5 25.1 53.65 23.9 53.45 Q23.1 53.1 22.75 53.45 L22.15 54.25 Q22.1 54.45 22.35 54.65 L22.65 54.95 22.9 55.35 Q23.15 55.75 23.75 55.9 L24.7 56.3 25.6 57.3 26.9 58.1 27.65 58.55 Q28.0 58.75 28.7 58.95 L29.55 59.35 30.45 59.8 29.55 59.85 29.9 60.3 29.55 60.15 27.55 59.25 26.5 58.55 25.45 58.05 23.0 56.85 Q21.5 56.1 20.9 55.6 19.95 54.8 19.85 53.35 L19.85 50.8 Q19.85 50.3 20.2 49.6 L27.55 53.3 34.45 56.5 37.6 57.65 37.65 57.8" fill="#c7b799" fill-rule="evenodd" stroke="none"/>
      <path d="M18.65 55.6 Q17.95 55.0 18.15 51.1 L18.2 49.2 Q18.3 48.55 18.7 48.2 18.4 48.6 19.8 49.45 L20.2 49.6 Q19.85 50.3 19.85 50.8 L19.85 53.35 Q19.95 54.8 20.9 55.6 21.5 56.1 23.0 56.85 L25.45 58.05 26.5 58.55 27.55 59.25 29.55 60.15 29.9 60.3 Q31.3 61.0 31.95 61.45 L32.65 61.9 34.2 62.7 Q35.5 63.4 36.4 63.15 37.05 62.95 37.25 61.8 37.4 60.55 37.75 60.25 39.25 62.5 39.85 65.1 L36.7 64.85 27.65 60.25 Q19.0 55.9 18.65 55.6" fill="#ada085" fill-rule="evenodd" stroke="none"/>
    </g>
    <g id="sprite8" transform="matrix(1.0, 0.0, 0.0, 1.0, 0.0, 0.0)">
      <use height="16.95" transform="matrix(1.0, 0.0, 0.0, 1.0, 0.0, 0.0)" width="21.4" xlink:href="#shape15"/>
    </g>
    <g id="shape17" transform="matrix(1.0, 0.0, 0.0, 1.0, -51.1, -2.8)">
      <path d="M51.1 2.8 L53.5 15.8 Q54.0 18.9 54.1 22.95 L52.15 9.65 51.45 5.35 51.1 2.8" fill="#cca585" fill-rule="evenodd" stroke="none"/>
    </g>
  </defs>
</svg>
