<?xml version="1.0" encoding="UTF-8" standalone="no"?>
<svg xmlns:xlink="http://www.w3.org/1999/xlink" height="22.2px" width="225.0px" xmlns="http://www.w3.org/2000/svg">
  <g transform="matrix(1.0, 0.0, 0.0, 1.0, 0.0, 0.0)">
    <use height="22.2" transform="matrix(1.0, 0.0, 0.0, 1.0, 0.0, 0.0)" width="225.0" xlink:href="#shape0"/>
  </g>
  <defs>
    <g id="shape0" transform="matrix(1.0, 0.0, 0.0, 1.0, 0.0, 0.0)">
      <path d="M30.6 11.2 L31.2 10.85 Q32.0 10.45 33.05 10.4 33.95 10.35 36.3 9.4 38.7 8.35 39.25 8.35 L42.05 7.6 Q44.3 7.0 46.25 7.6 48.0 8.1 50.35 6.55 53.05 4.8 54.5 4.75 L58.7 3.9 63.55 2.35 68.5 1.25 72.95 1.0 76.3 0.85 78.8 0.65 83.45 0.65 85.95 0.75 89.5 1.45 Q91.25 1.85 92.7 1.45 L95.45 1.25 98.95 1.1 102.5 0.1 106.5 0.4 111.05 1.35 Q115.85 1.85 116.6 3.05 117.4 4.25 113.75 4.5 L109.7 4.75 105.65 5.4 103.85 5.85 Q103.7 5.95 104.3 6.3 106.4 7.4 106.45 9.35 106.5 11.3 105.9 10.7 104.6 9.3 103.25 9.45 101.45 9.7 99.7 9.45 L93.45 8.25 90.75 7.9 Q92.0 8.5 90.5 8.6 L86.75 8.8 79.05 10.1 74.15 10.75 74.35 10.1 Q74.45 9.55 73.7 9.15 L69.45 8.95 63.1 9.75 60.45 9.85 Q60.7 10.2 59.2 10.55 57.6 10.9 56.35 10.25 L53.6 10.15 50.45 10.5 46.9 10.85 43.15 11.4 38.0 11.2 30.6 11.2" fill="#6a972d" fill-rule="evenodd" stroke="none"/>
      <path d="M186.8 9.5 Q187.1 10.0 181.1 9.4 175.1 8.8 186.8 9.5" fill="#6a972d" fill-rule="evenodd" stroke="none"/>
      <path d="M134.65 7.2 Q134.1 7.05 134.5 6.2 134.8 5.6 136.0 5.7 L138.15 5.4 Q139.05 4.85 140.1 4.6 L140.95 4.5 Q132.8 4.15 132.4 3.45 132.2 3.1 132.45 3.15 L133.95 3.1 136.1 2.95 139.4 2.75 141.05 2.55 143.3 2.05 146.05 1.7 149.1 2.05 159.4 2.25 Q164.85 2.25 166.2 2.4 L170.6 2.6 174.4 3.1 178.65 4.05 Q181.7 4.7 182.7 5.45 183.85 6.3 188.25 6.9 L194.2 7.35 Q196.0 7.35 198.65 8.45 201.35 9.6 202.85 11.0 203.6 11.7 203.4 11.75 L201.45 11.35 Q195.25 10.05 186.8 9.5 L186.7 8.85 Q186.55 8.4 185.7 8.2 183.25 7.65 173.6 9.45 165.95 10.9 164.85 9.65 L164.35 8.75 Q164.05 8.4 162.7 8.75 L160.1 9.55 156.9 8.4 Q155.5 7.85 155.1 8.1 L154.7 8.95 Q153.95 10.6 148.75 9.8 L144.5 9.25 Q145.85 9.65 142.9 9.45 L140.45 9.25 Q140.2 9.2 140.85 9.05 143.5 8.4 144.05 7.35 L144.5 6.45 143.85 6.55 Q141.55 7.35 139.0 7.35 L134.65 7.2" fill="#6a972d" fill-rule="evenodd" stroke="none"/>
      <path d="M94.7 9.8 L97.75 10.15 Q99.0 10.55 99.0 11.05 99.0 11.55 97.75 11.9 L94.7 12.25 91.7 11.9 Q90.45 11.55 90.45 11.05 90.45 10.55 91.7 10.15 L94.7 9.8" fill="#6a972d" fill-rule="evenodd" stroke="none"/>
      <path d="M108.9 7.0 L110.45 7.2 Q111.05 7.4 111.05 7.7 111.05 7.95 110.45 8.2 L108.9 8.4 107.4 8.2 Q106.75 7.95 106.75 7.7 106.75 7.4 107.4 7.2 L108.9 7.0" fill="#6a972d" fill-rule="evenodd" stroke="none"/>
      <path d="M115.3 5.9 L116.4 6.15 116.85 6.65 116.4 7.15 115.3 7.35 114.2 7.15 113.75 6.65 Q113.75 6.35 114.2 6.15 L115.3 5.9" fill="#6a972d" fill-rule="evenodd" stroke="none"/>
      <path d="M117.3 5.0 Q116.85 4.8 116.85 4.5 116.85 3.8 118.4 3.8 119.95 3.8 119.95 4.5 119.95 5.2 118.4 5.2 L117.3 5.0" fill="#6a972d" fill-rule="evenodd" stroke="none"/>
      <path d="M27.1 12.25 Q27.1 11.85 28.1 11.5 L30.6 11.2 33.1 11.5 Q34.1 11.85 34.1 12.25 34.1 12.7 33.1 13.05 L30.6 13.35 28.1 13.05 Q27.1 12.7 27.1 12.25" fill="#6a972d" fill-rule="evenodd" stroke="none"/>
      <path d="M26.15 14.4 Q27.9 14.4 27.9 14.75 27.9 15.1 26.15 15.1 24.4 15.1 24.4 14.75 24.4 14.4 26.15 14.4" fill="#6a972d" fill-rule="evenodd" stroke="none"/>
      <path d="M21.45 15.8 L23.2 15.95 21.45 16.15 19.7 15.95 21.45 15.8" fill="#6a972d" fill-rule="evenodd" stroke="none"/>
      <path d="M31.35 14.9 L32.95 14.75 34.5 14.9 32.95 15.1 31.35 14.9" fill="#6a972d" fill-rule="evenodd" stroke="none"/>
      <path d="M36.75 13.1 Q35.65 12.85 35.65 12.45 35.65 12.1 36.75 11.8 L39.35 11.55 41.95 11.8 Q43.05 12.1 43.05 12.45 43.05 12.85 41.95 13.1 L39.35 13.35 36.75 13.1" fill="#6a972d" fill-rule="evenodd" stroke="none"/>
      <path d="M51.2 13.35 L53.9 13.7 51.2 14.05 48.45 13.7 Q48.45 13.35 51.2 13.35" fill="#6a972d" fill-rule="evenodd" stroke="none"/>
      <path d="M58.2 15.1 Q60.15 15.1 60.15 15.45 L58.2 15.8 Q56.25 15.8 56.25 15.45 56.25 15.1 58.2 15.1" fill="#6a972d" fill-rule="evenodd" stroke="none"/>
      <path d="M64.2 9.8 Q67.5 9.8 67.5 10.35 67.5 10.85 64.2 10.85 L61.9 10.7 60.9 10.35 Q60.9 9.8 64.2 9.8" fill="#6a972d" fill-rule="evenodd" stroke="none"/>
      <path d="M76.05 13.0 L72.75 12.7 Q71.4 12.35 71.4 11.9 71.4 11.5 72.75 11.15 L76.05 10.85 79.4 11.15 Q80.75 11.5 80.75 11.9 80.75 12.35 79.4 12.7 L76.05 13.0" fill="#6a972d" fill-rule="evenodd" stroke="none"/>
      <path d="M86.15 11.2 Q89.3 11.2 89.3 11.75 89.3 12.25 86.15 12.25 83.05 12.25 83.05 11.75 83.05 11.55 83.95 11.35 L86.15 11.2" fill="#6a972d" fill-rule="evenodd" stroke="none"/>
      <path d="M155.55 10.85 L156.8 11.05 157.3 11.55 156.8 12.05 155.55 12.25 Q153.8 12.25 153.8 11.55 153.8 11.3 154.3 11.05 L155.55 10.85" fill="#6a972d" fill-rule="evenodd" stroke="none"/>
      <path d="M170.7 11.55 L172.2 11.75 172.85 12.25 172.2 12.8 170.7 13.0 169.2 12.8 Q168.55 12.55 168.55 12.25 168.55 12.0 169.2 11.75 L170.7 11.55" fill="#6a972d" fill-rule="evenodd" stroke="none"/>
      <path d="M179.8 10.5 Q180.95 10.5 181.75 10.85 182.55 11.25 182.55 11.75 182.55 12.25 181.75 12.6 L179.8 13.0 177.9 12.6 Q177.1 12.25 177.1 11.75 177.1 11.25 177.9 10.85 L179.8 10.5" fill="#6a972d" fill-rule="evenodd" stroke="none"/>
      <path d="M189.75 14.05 Q190.3 14.05 190.3 14.2 190.3 14.4 189.75 14.4 189.15 14.4 189.15 14.2 189.15 14.05 189.75 14.05" fill="#6a972d" fill-rule="evenodd" stroke="none"/>
      <path d="M193.8 14.55 L195.35 14.4 196.9 14.55 195.35 14.75 193.8 14.55" fill="#6a972d" fill-rule="evenodd" stroke="none"/>
      <path d="M1.75 16.25 L3.0 16.4 Q3.5 16.55 3.5 16.75 L3.0 17.15 1.75 17.3 Q0.0 17.3 0.0 16.75 L0.5 16.4 1.75 16.25" fill="#ccd6c2" fill-rule="evenodd" stroke="none"/>
      <path d="M10.35 14.65 Q12.25 14.65 12.25 15.2 12.25 15.7 10.35 15.7 L9.0 15.55 8.45 15.2 Q8.45 15.0 9.0 14.8 L10.35 14.65" fill="#ccd6c2" fill-rule="evenodd" stroke="none"/>
      <path d="M15.45 14.9 Q14.55 14.9 14.55 14.5 14.55 14.1 15.45 14.1 16.3 14.1 16.3 14.5 16.3 14.9 15.45 14.9" fill="#ccd6c2" fill-rule="evenodd" stroke="none"/>
      <path d="M20.1 14.65 Q21.25 14.65 21.25 15.2 21.25 15.7 20.1 15.7 18.95 15.7 18.95 15.2 18.95 14.65 20.1 14.65" fill="#ccd6c2" fill-rule="evenodd" stroke="none"/>
      <path d="M27.1 12.8 Q28.25 12.8 28.25 13.2 28.25 13.6 27.1 13.6 25.95 13.6 25.95 13.2 25.95 12.8 27.1 12.8" fill="#ccd6c2" fill-rule="evenodd" stroke="none"/>
      <path d="M28.25 11.2 Q30.0 11.2 30.0 11.5 L28.25 11.75 26.5 11.5 Q26.5 11.2 28.25 11.2" fill="#ccd6c2" fill-rule="evenodd" stroke="none"/>
      <path d="M33.05 10.4 L34.85 10.65 35.55 11.2 34.85 11.75 33.05 12.0 31.3 11.75 Q30.6 11.55 30.6 11.2 30.6 10.9 31.3 10.65 L33.05 10.4" fill="#ccd6c2" fill-rule="evenodd" stroke="none"/>
      <path d="M34.15 13.55 Q35.45 13.4 35.55 13.95 35.65 14.55 34.3 14.75 33.05 14.95 32.95 14.3 L33.25 13.85 Q33.65 13.65 34.15 13.55" fill="#ded07e" fill-rule="evenodd" stroke="none"/>
      <path d="M37.9 15.7 Q39.65 15.7 39.65 16.25 39.65 16.75 37.9 16.75 36.15 16.75 36.15 16.25 36.15 15.7 37.9 15.7" fill="#ccd6c2" fill-rule="evenodd" stroke="none"/>
      <path d="M43.4 14.9 L45.5 15.2 Q46.35 15.45 46.35 15.85 46.35 16.25 45.5 16.5 L43.4 16.75 41.35 16.5 Q40.5 16.25 40.5 15.85 40.5 15.45 41.35 15.2 L43.4 14.9" fill="#ccd6c2" fill-rule="evenodd" stroke="none"/>
      <path d="M46.75 14.1 Q47.8 14.1 47.8 14.5 47.8 14.9 46.75 14.9 45.75 14.9 45.75 14.5 45.75 14.1 46.75 14.1" fill="#ccd6c2" fill-rule="evenodd" stroke="none"/>
      <path d="M50.25 12.25 L52.05 12.45 52.75 12.95 Q52.75 13.6 50.25 13.6 47.8 13.6 47.8 12.95 47.8 12.65 48.5 12.45 L50.25 12.25" fill="#ded07e" fill-rule="evenodd" stroke="none"/>
      <path d="M43.7 12.65 Q43.7 12.25 44.9 12.25 46.05 12.25 46.05 12.65 46.05 13.05 44.9 13.05 43.7 13.05 43.7 12.65" fill="#ccd6c2" fill-rule="evenodd" stroke="none"/>
      <path d="M41.1 11.5 Q41.1 10.95 42.55 10.95 44.0 10.95 44.0 11.5 L43.6 11.85 42.55 12.0 41.55 11.85 41.1 11.5" fill="#ccd6c2" fill-rule="evenodd" stroke="none"/>
      <path d="M41.4 9.9 Q39.65 9.9 39.65 9.5 39.65 9.1 41.4 9.1 43.15 9.1 43.15 9.5 43.15 9.9 41.4 9.9" fill="#ccd6c2" fill-rule="evenodd" stroke="none"/>
      <path d="M49.55 8.55 L47.9 8.35 Q47.2 8.15 47.2 7.9 47.2 7.65 47.9 7.45 L49.55 7.25 51.2 7.45 51.85 7.9 Q51.85 8.55 49.55 8.55" fill="#ccd6c2" fill-rule="evenodd" stroke="none"/>
      <path d="M54.95 7.5 Q52.75 7.5 52.75 7.1 52.75 6.7 54.95 6.7 57.1 6.7 57.1 7.1 57.1 7.5 54.95 7.5" fill="#ccd6c2" fill-rule="evenodd" stroke="none"/>
      <path d="M55.35 9.65 Q57.1 9.65 57.1 10.15 57.1 10.7 55.35 10.7 L54.1 10.55 Q53.6 10.4 53.6 10.15 53.6 9.65 55.35 9.65" fill="#ccd6c2" fill-rule="evenodd" stroke="none"/>
      <path d="M51.85 10.4 Q53.9 10.4 53.9 10.95 53.9 11.5 51.85 11.5 49.85 11.5 49.85 10.95 49.85 10.75 50.45 10.55 L51.85 10.4" fill="#ccd6c2" fill-rule="evenodd" stroke="none"/>
      <path d="M39.35 14.4 Q37.6 14.4 37.6 13.6 37.6 12.8 39.35 12.8 L40.6 13.05 Q41.1 13.25 41.1 13.6 L40.6 14.15 39.35 14.4" fill="#ccd6c2" fill-rule="evenodd" stroke="none"/>
      <path d="M58.3 15.7 Q58.3 16.25 56.7 16.25 55.1 16.25 55.1 15.7 55.1 15.2 56.7 15.2 58.3 15.2 58.3 15.7" fill="#ccd6c2" fill-rule="evenodd" stroke="none"/>
      <path d="M61.2 13.35 Q63.25 13.35 63.25 13.75 L61.2 14.1 Q59.15 14.1 59.15 13.75 59.15 13.35 61.2 13.35" fill="#ccd6c2" fill-rule="evenodd" stroke="none"/>
      <path d="M73.95 5.8 L72.2 5.6 Q71.5 5.35 71.5 5.05 71.5 4.75 72.2 4.55 L73.95 4.3 75.65 4.55 76.35 5.05 75.65 5.6 73.95 5.8" fill="#ccd6c2" fill-rule="evenodd" stroke="none"/>
      <path d="M79.1 1.95 Q81.0 1.95 81.0 2.35 81.0 2.75 79.1 2.75 77.25 2.75 77.25 2.35 77.25 1.95 79.1 1.95" fill="#ccd6c2" fill-rule="evenodd" stroke="none"/>
      <path d="M86.55 0.65 Q87.7 0.65 87.7 1.3 87.7 1.95 86.55 1.95 85.4 1.95 85.4 1.3 85.4 0.65 86.55 0.65" fill="#ccd6c2" fill-rule="evenodd" stroke="none"/>
      <path d="M63.55 4.35 L62.1 4.05 Q61.5 3.75 61.5 3.35 61.5 2.95 62.1 2.65 62.7 2.35 63.55 2.35 64.4 2.35 64.95 2.65 65.55 2.95 65.55 3.35 65.55 3.75 64.95 4.05 L63.55 4.35" fill="#ccd6c2" fill-rule="evenodd" stroke="none"/>
      <path d="M57.4 4.85 Q56.55 4.85 56.55 4.45 56.55 4.05 57.4 4.05 58.3 4.05 58.3 4.45 58.3 4.85 57.4 4.85" fill="#ccd6c2" fill-rule="evenodd" stroke="none"/>
      <path d="M53.75 5.15 Q53.05 5.15 53.05 4.75 53.05 4.35 53.75 4.35 54.5 4.35 54.5 4.75 54.5 5.15 53.75 5.15" fill="#ccd6c2" fill-rule="evenodd" stroke="none"/>
      <path d="M90.8 7.0 L89.45 6.7 Q88.9 6.45 88.9 6.05 88.9 5.7 89.45 5.4 L90.8 5.15 92.15 5.4 Q92.7 5.7 92.7 6.05 92.7 6.45 92.15 6.7 L90.8 7.0" fill="#ccd6c2" fill-rule="evenodd" stroke="none"/>
      <path d="M101.55 4.85 Q102.9 4.85 102.9 5.25 102.9 5.65 101.55 5.65 100.25 5.65 100.25 5.25 100.25 4.85 101.55 4.85" fill="#ccd6c2" fill-rule="evenodd" stroke="none"/>
      <path d="M125.6 7.5 L124.15 7.3 123.55 6.85 124.15 6.4 125.6 6.2 127.05 6.4 127.65 6.85 127.05 7.3 125.6 7.5" fill="#ccd6c2" fill-rule="evenodd" stroke="none"/>
      <path d="M119.8 4.85 Q120.95 4.85 120.95 5.4 120.95 5.9 119.8 5.9 118.6 5.9 118.6 5.4 118.6 4.85 119.8 4.85" fill="#ccd6c2" fill-rule="evenodd" stroke="none"/>
      <path d="M116.7 7.75 Q116.0 7.75 116.0 7.25 116.0 6.7 116.7 6.7 117.45 6.7 117.45 7.25 117.45 7.75 116.7 7.75" fill="#ccd6c2" fill-rule="evenodd" stroke="none"/>
      <path d="M107.35 8.85 Q108.2 8.85 108.2 9.35 108.2 9.9 107.35 9.9 106.45 9.9 106.45 9.35 106.45 8.85 107.35 8.85" fill="#ccd6c2" fill-rule="evenodd" stroke="none"/>
      <path d="M126.35 13.35 Q128.8 13.35 128.8 13.85 128.8 14.1 128.1 14.25 L126.35 14.4 124.6 14.25 Q123.85 14.1 123.85 13.85 123.85 13.35 126.35 13.35" fill="#ccd6c2" fill-rule="evenodd" stroke="none"/>
      <path d="M134.5 14.4 Q136.7 14.4 136.7 14.9 136.7 15.45 134.5 15.45 132.3 15.45 132.3 14.9 L132.95 14.55 134.5 14.4" fill="#ccd6c2" fill-rule="evenodd" stroke="none"/>
      <path d="M139.5 12.25 L140.65 12.45 141.15 12.85 140.65 13.25 139.5 13.4 Q137.85 13.4 137.85 12.85 137.85 12.6 138.35 12.45 L139.5 12.25" fill="#ccd6c2" fill-rule="evenodd" stroke="none"/>
      <path d="M147.45 11.75 Q148.65 11.75 148.65 12.0 L147.45 12.25 146.3 12.0 Q146.3 11.75 147.45 11.75" fill="#ccd6c2" fill-rule="evenodd" stroke="none"/>
      <path d="M149.8 8.6 L150.7 8.75 149.8 8.95 Q148.95 8.95 148.95 8.75 L149.8 8.6" fill="#ccd6c2" fill-rule="evenodd" stroke="none"/>
      <path d="M146.4 3.65 Q146.4 4.05 145.5 4.05 144.6 4.05 144.6 3.65 144.6 3.3 145.5 3.3 146.4 3.3 146.4 3.65" fill="#ccd6c2" fill-rule="evenodd" stroke="none"/>
      <path d="M167.45 8.7 L168.55 8.85 169.05 9.25 168.55 9.6 167.45 9.75 166.3 9.6 Q165.85 9.45 165.85 9.25 165.85 8.7 167.45 8.7" fill="#ccd6c2" fill-rule="evenodd" stroke="none"/>
      <path d="M175.0 8.85 L173.75 9.1 172.55 8.85 Q172.55 8.55 173.75 8.55 175.0 8.55 175.0 8.85" fill="#ccd6c2" fill-rule="evenodd" stroke="none"/>
      <path d="M175.9 7.25 Q177.5 7.25 177.5 7.7 177.5 8.15 175.9 8.15 174.3 8.15 174.3 7.7 174.3 7.25 175.9 7.25" fill="#ccd6c2" fill-rule="evenodd" stroke="none"/>
      <path d="M177.65 5.9 Q178.65 5.9 178.65 6.25 178.65 6.6 177.65 6.6 176.6 6.6 176.6 6.25 176.6 5.9 177.65 5.9" fill="#ccd6c2" fill-rule="evenodd" stroke="none"/>
      <path d="M183.25 7.65 Q181.85 7.65 181.85 7.1 181.85 6.6 183.25 6.6 184.65 6.6 184.65 7.1 L184.25 7.5 183.25 7.65" fill="#ccd6c2" fill-rule="evenodd" stroke="none"/>
      <path d="M191.75 7.85 Q191.75 8.3 190.7 8.3 189.6 8.3 189.6 7.85 189.6 7.4 190.7 7.4 191.75 7.4 191.75 7.85" fill="#ccd6c2" fill-rule="evenodd" stroke="none"/>
      <path d="M191.35 9.65 Q191.35 9.35 192.05 9.35 192.8 9.35 192.8 9.65 192.8 9.9 192.05 9.9 191.35 9.9 191.35 9.65" fill="#ccd6c2" fill-rule="evenodd" stroke="none"/>
      <path d="M205.3 11.0 L204.95 11.35 204.1 11.5 Q202.85 11.5 202.85 11.0 202.85 10.55 204.1 10.55 205.3 10.55 205.3 11.0" fill="#ccd6c2" fill-rule="evenodd" stroke="none"/>
      <path d="M202.55 12.4 Q203.15 12.4 203.15 12.6 203.15 12.8 202.55 12.8 201.95 12.8 201.95 12.6 201.95 12.4 202.55 12.4" fill="#ccd6c2" fill-rule="evenodd" stroke="none"/>
      <path d="M210.15 13.45 L211.5 13.65 212.05 14.1 211.5 14.6 210.15 14.8 208.8 14.6 Q208.25 14.4 208.25 14.1 208.25 13.85 208.8 13.65 L210.15 13.45" fill="#ccd6c2" fill-rule="evenodd" stroke="none"/>
      <path d="M214.7 14.65 Q215.95 14.65 215.95 15.2 L215.6 15.55 214.7 15.7 213.85 15.55 213.5 15.2 Q213.5 14.65 214.7 14.65" fill="#ccd6c2" fill-rule="evenodd" stroke="none"/>
      <path d="M214.8 13.45 Q214.8 13.75 213.9 13.75 213.05 13.75 213.05 13.45 213.05 13.2 213.9 13.2 214.8 13.2 214.8 13.45" fill="#ccd6c2" fill-rule="evenodd" stroke="none"/>
      <path d="M223.95 16.5 Q225.0 16.5 225.0 16.9 225.0 17.3 223.95 17.3 222.95 17.3 222.95 16.9 222.95 16.5 223.95 16.5" fill="#ccd6c2" fill-rule="evenodd" stroke="none"/>
      <path d="M220.35 14.8 Q220.9 14.8 220.9 15.25 220.9 15.7 220.35 15.7 219.75 15.7 219.75 15.25 219.75 14.8 220.35 14.8" fill="#ccd6c2" fill-rule="evenodd" stroke="none"/>
      <path d="M205.45 15.95 Q206.25 15.95 206.25 16.25 206.25 16.55 205.45 16.55 204.65 16.55 204.65 16.25 204.65 15.95 205.45 15.95" fill="#ccd6c2" fill-rule="evenodd" stroke="none"/>
      <path d="M188.05 13.45 Q189.3 13.45 189.3 13.95 189.3 14.4 188.05 14.4 186.8 14.4 186.8 13.95 186.8 13.45 188.05 13.45" fill="#ccd6c2" fill-rule="evenodd" stroke="none"/>
      <path d="M195.7 14.5 Q197.0 14.5 197.0 15.05 197.0 15.6 195.7 15.6 194.4 15.6 194.4 15.05 L194.8 14.65 195.7 14.5" fill="#ccd6c2" fill-rule="evenodd" stroke="none"/>
      <path d="M200.8 15.45 Q201.4 15.45 201.4 15.7 201.4 15.95 200.8 15.95 200.2 15.95 200.2 15.7 200.2 15.45 200.8 15.45" fill="#ccd6c2" fill-rule="evenodd" stroke="none"/>
      <path d="M192.35 15.95 Q193.35 15.95 193.35 16.45 193.35 16.9 192.35 16.9 191.35 16.9 191.35 16.45 191.35 15.95 192.35 15.95" fill="#ccd6c2" fill-rule="evenodd" stroke="none"/>
      <path d="M185.2 15.05 Q186.1 15.05 186.1 15.45 186.1 15.85 185.2 15.85 184.35 15.85 184.35 15.45 184.35 15.05 185.2 15.05" fill="#ccd6c2" fill-rule="evenodd" stroke="none"/>
      <path d="M175.15 15.3 Q176.2 15.3 176.2 15.7 176.2 16.1 175.15 16.1 174.15 16.1 174.15 15.7 174.15 15.3 175.15 15.3" fill="#ccd6c2" fill-rule="evenodd" stroke="none"/>
      <path d="M172.7 13.35 Q173.7 13.35 173.7 13.75 173.7 14.1 172.7 14.1 171.65 14.1 171.65 13.75 171.65 13.35 172.7 13.35" fill="#ccd6c2" fill-rule="evenodd" stroke="none"/>
      <path d="M162.4 13.45 L164.0 13.7 Q164.65 13.9 164.65 14.25 L164.0 14.8 162.4 15.05 160.8 14.8 Q160.15 14.6 160.15 14.25 160.15 13.9 160.8 13.7 L162.4 13.45" fill="#ccd6c2" fill-rule="evenodd" stroke="none"/>
      <path d="M158.65 16.05 L157.4 16.25 156.15 16.05 155.65 15.65 Q155.65 15.05 157.4 15.05 159.15 15.05 159.15 15.65 L158.65 16.05" fill="#ccd6c2" fill-rule="evenodd" stroke="none"/>
      <path d="M153.95 16.25 Q154.3 16.25 154.3 16.55 L153.95 16.9 Q153.6 16.9 153.6 16.55 153.6 16.25 153.95 16.25" fill="#ccd6c2" fill-rule="evenodd" stroke="none"/>
      <path d="M146.9 17.55 Q147.45 17.55 147.45 17.85 147.45 18.1 146.9 18.1 146.3 18.1 146.3 17.85 146.3 17.55 146.9 17.55" fill="#ccd6c2" fill-rule="evenodd" stroke="none"/>
      <path d="M139.95 18.2 Q140.9 18.2 140.9 18.55 140.9 18.9 139.95 18.9 139.0 18.9 139.0 18.55 139.0 18.2 139.95 18.2" fill="#ccd6c2" fill-rule="evenodd" stroke="none"/>
      <path d="M132.45 18.75 Q133.05 18.75 133.05 19.2 133.05 19.7 132.45 19.7 131.9 19.7 131.9 19.2 131.9 18.75 132.45 18.75" fill="#ccd6c2" fill-rule="evenodd" stroke="none"/>
      <path d="M123.4 16.9 Q124.0 16.9 124.0 17.3 124.0 17.7 123.4 17.7 122.85 17.7 122.85 17.3 122.85 16.9 123.4 16.9" fill="#ccd6c2" fill-rule="evenodd" stroke="none"/>
      <path d="M116.6 17.55 L118.15 17.75 Q118.75 17.95 118.75 18.2 118.75 18.9 116.6 18.9 114.4 18.9 114.4 18.2 114.4 17.55 116.6 17.55" fill="#ccd6c2" fill-rule="evenodd" stroke="none"/>
      <path d="M111.1 19.15 Q112.75 19.15 112.75 19.9 112.75 20.6 111.1 20.6 109.45 20.6 109.45 19.9 109.45 19.15 111.1 19.15" fill="#ccd6c2" fill-rule="evenodd" stroke="none"/>
      <path d="M106.15 15.2 L106.65 15.3 106.15 15.45 105.65 15.3 106.15 15.2" fill="#ccd6c2" fill-rule="evenodd" stroke="none"/>
      <path d="M101.05 14.75 L102.15 14.95 102.6 15.4 Q102.6 16.1 101.05 16.1 99.55 16.1 99.55 15.4 99.55 15.15 100.0 14.95 L101.05 14.75" fill="#ccd6c2" fill-rule="evenodd" stroke="none"/>
      <path d="M90.65 17.0 Q91.6 17.0 91.6 17.35 91.6 17.7 90.65 17.7 89.65 17.7 89.65 17.35 89.65 17.0 90.65 17.0" fill="#ccd6c2" fill-rule="evenodd" stroke="none"/>
      <path d="M90.8 13.9 L91.95 14.15 90.8 14.4 89.65 14.15 Q89.65 13.9 90.8 13.9" fill="#ccd6c2" fill-rule="evenodd" stroke="none"/>
      <path d="M90.05 10.8 Q90.05 11.1 89.25 11.1 88.45 11.1 88.45 10.8 88.45 10.55 89.25 10.55 90.05 10.55 90.05 10.8" fill="#ccd6c2" fill-rule="evenodd" stroke="none"/>
      <path d="M84.35 11.1 Q84.35 11.5 83.35 11.5 82.35 11.5 82.35 11.1 82.35 10.7 83.35 10.7 84.35 10.7 84.35 11.1" fill="#ccd6c2" fill-rule="evenodd" stroke="none"/>
      <path d="M82.85 9.45 Q82.85 9.7 82.2 9.7 L81.55 9.45 Q81.55 9.2 82.2 9.2 82.85 9.2 82.85 9.45" fill="#ccd6c2" fill-rule="evenodd" stroke="none"/>
      <path d="M79.2 13.05 Q79.85 13.05 79.85 13.4 L79.2 13.75 Q78.55 13.75 78.55 13.4 78.55 13.05 79.2 13.05" fill="#ccd6c2" fill-rule="evenodd" stroke="none"/>
      <path d="M73.35 13.85 Q74.15 13.85 74.15 14.25 74.15 14.65 73.35 14.65 72.55 14.65 72.55 14.25 72.55 13.85 73.35 13.85" fill="#ccd6c2" fill-rule="evenodd" stroke="none"/>
      <path d="M76.85 20.9 Q75.15 20.9 75.15 20.2 75.15 19.9 75.65 19.7 L76.85 19.5 Q78.55 19.5 78.55 20.2 L78.05 20.7 76.85 20.9" fill="#ccd6c2" fill-rule="evenodd" stroke="none"/>
      <path d="M83.4 21.4 Q84.35 21.4 84.35 21.8 84.35 22.2 83.4 22.2 82.45 22.2 82.45 21.8 82.45 21.4 83.4 21.4" fill="#ccd6c2" fill-rule="evenodd" stroke="none"/>
      <path d="M84.95 18.0 Q86.4 18.0 86.4 18.4 86.4 18.75 84.95 18.75 83.5 18.75 83.5 18.4 83.5 18.0 84.95 18.0" fill="#ccd6c2" fill-rule="evenodd" stroke="none"/>
      <path d="M65.8 17.95 L66.65 18.1 67.05 18.5 Q67.05 19.0 65.8 19.0 64.55 19.0 64.55 18.5 64.55 17.95 65.8 17.95" fill="#ccd6c2" fill-rule="evenodd" stroke="none"/>
      <path d="M58.05 19.75 Q59.35 19.75 59.35 20.15 59.35 20.55 58.05 20.55 56.75 20.55 56.75 20.15 56.75 19.75 58.05 19.75" fill="#ccd6c2" fill-rule="evenodd" stroke="none"/>
      <path d="M72.55 10.25 L71.1 9.9 70.7 9.65 71.35 9.45 73.15 9.3 73.65 9.3 73.7 9.15 Q74.0 8.9 74.85 8.75 L75.7 8.6 76.3 8.8 76.8 9.35 76.7 9.5 77.2 9.5 Q78.6 9.65 79.05 10.1 L76.6 10.45 76.1 10.45 76.05 10.6 Q75.55 11.0 74.05 11.15 72.8 10.85 72.95 10.4 L73.05 10.25 72.55 10.25" fill="#ccd6c2" fill-rule="evenodd" stroke="none"/>
      <path d="M164.1 2.95 L164.55 2.95 164.65 2.8 165.8 2.4 166.6 2.25 167.2 2.45 167.75 3.0 167.65 3.15 168.15 3.15 Q169.55 3.3 170.0 3.75 L167.55 4.1 167.05 4.1 166.95 4.25 165.0 4.8 Q163.75 4.5 163.85 4.05 L163.95 3.9 163.5 3.9 162.05 3.55 161.65 3.3 162.3 3.1 164.1 2.95" fill="#ccd6c2" fill-rule="evenodd" stroke="none"/>
      <path d="M97.9 1.45 L97.5 1.2 98.15 1.0 99.95 0.8 100.45 0.85 100.5 0.7 Q100.8 0.4 101.7 0.25 L102.5 0.1 103.1 0.3 Q103.7 0.55 103.6 0.85 L103.5 1.0 104.0 1.05 Q105.45 1.15 105.85 1.65 L103.4 2.0 102.9 1.95 102.85 2.1 Q102.4 2.55 100.9 2.7 99.65 2.4 99.75 1.95 L99.85 1.8 99.35 1.75 97.9 1.45" fill="#ccd6c2" fill-rule="evenodd" stroke="none"/>
      <path d="M111.55 6.2 L111.1 6.2 111.0 6.35 Q110.55 6.8 109.05 6.9 107.8 6.65 107.9 6.15 L108.0 6.0 107.5 6.0 106.05 5.65 105.65 5.4 106.3 5.25 108.1 5.05 108.6 5.1 108.7 4.95 Q109.0 4.65 109.85 4.5 L110.65 4.35 111.25 4.55 111.8 5.1 111.65 5.25 112.15 5.25 Q113.6 5.4 114.0 5.85 L111.55 6.2" fill="#ccd6c2" fill-rule="evenodd" stroke="none"/>
      <path d="M92.75 9.35 L92.85 9.2 92.35 9.2 90.9 8.85 90.5 8.6 91.15 8.4 92.95 8.25 93.45 8.25 93.55 8.1 Q93.85 7.8 94.7 7.65 L95.5 7.55 96.1 7.75 96.65 8.3 96.5 8.45 97.0 8.45 Q98.45 8.6 98.85 9.05 L96.4 9.4 95.95 9.35 95.85 9.5 Q95.4 9.95 93.9 10.1 92.65 9.8 92.75 9.35" fill="#ccd6c2" fill-rule="evenodd" stroke="none"/>
      <path d="M36.5 9.25 L36.6 9.15 36.25 9.15 35.2 8.85 34.95 8.65 35.4 8.5 36.7 8.35 37.0 8.35 37.1 8.25 Q37.3 8.0 37.9 7.85 L38.5 7.75 38.9 7.9 39.25 8.35 39.2 8.45 39.55 8.45 Q40.55 8.55 40.85 8.9 L39.1 9.25 38.75 9.25 38.7 9.35 Q38.35 9.7 37.3 9.85 36.4 9.65 36.5 9.25" fill="url(#gradient0)" fill-rule="evenodd" stroke="none"/>
      <path d="M68.65 4.1 L68.7 3.95 68.35 3.95 Q67.7 3.9 67.3 3.65 L67.0 3.4 67.5 3.2 68.8 3.0 69.2 3.05 69.25 2.9 Q69.45 2.6 70.1 2.45 L70.7 2.3 71.15 2.5 71.55 2.95 71.45 3.1 71.8 3.1 Q72.85 3.2 73.15 3.65 L71.35 4.05 71.0 4.0 70.9 4.15 Q70.55 4.6 69.45 4.75 68.55 4.5 68.65 4.1" fill="url(#gradient1)" fill-rule="evenodd" stroke="none"/>
      <path d="M124.9 3.95 L125.0 3.85 124.65 3.8 123.65 3.6 123.4 3.4 123.85 3.25 125.05 3.1 125.4 3.1 125.45 3.0 Q125.65 2.8 126.25 2.65 L126.8 2.55 127.2 2.7 127.55 3.1 127.45 3.2 127.8 3.25 Q128.75 3.3 129.05 3.65 L127.4 3.95 127.05 3.9 127.0 4.05 125.65 4.5 Q124.8 4.3 124.9 3.95" fill="url(#gradient2)" fill-rule="evenodd" stroke="none"/>
      <path d="M178.55 12.25 L177.35 12.0 177.05 11.8 177.6 11.65 179.05 11.5 179.4 11.55 179.5 11.4 Q179.7 11.2 180.45 11.05 L181.1 10.95 181.6 11.1 182.0 11.55 181.9 11.7 182.3 11.7 Q183.5 11.8 183.85 12.2 L181.85 12.45 181.45 12.45 181.4 12.55 179.8 13.0 Q178.75 12.8 178.85 12.4 L178.95 12.3 178.55 12.25" fill="url(#gradient3)" fill-rule="evenodd" stroke="none"/>
      <path d="M93.3 0.5 L94.05 0.35 94.6 0.55 Q95.15 0.8 95.1 1.1 L95.0 1.2 95.45 1.25 Q96.75 1.35 97.1 1.8 96.25 2.2 94.85 2.2 L94.45 2.15 94.35 2.3 Q93.95 2.75 92.55 2.9 91.45 2.6 91.55 2.15 L91.65 2.0 91.2 2.0 89.85 1.7 89.5 1.45 90.1 1.25 91.75 1.05 92.2 1.1 92.25 0.95 Q92.55 0.65 93.3 0.5" fill="url(#gradient4)" fill-rule="evenodd" stroke="none"/>
      <path d="M115.95 10.25 L116.45 10.15 116.85 10.3 117.2 10.7 117.1 10.8 117.4 10.8 118.6 11.2 117.0 11.5 116.7 11.5 116.65 11.6 Q116.35 11.95 115.4 12.1 114.6 11.9 114.65 11.55 L114.75 11.4 114.45 11.4 113.5 11.2 113.25 11.0 113.7 10.85 114.85 10.7 115.15 10.7 115.2 10.6 Q115.4 10.4 115.95 10.25" fill="url(#gradient5)" fill-rule="evenodd" stroke="none"/>
      <path d="M47.4 8.05 L48.8 8.3 47.1 8.75 46.75 8.75 46.7 8.85 45.35 9.35 Q44.45 9.25 44.5 8.95 L44.55 8.85 44.2 8.85 43.1 8.75 42.8 8.6 43.25 8.45 44.5 8.2 44.85 8.2 44.9 8.1 45.7 7.75 46.25 7.6 46.7 7.7 Q47.15 7.8 47.15 8.0 L47.05 8.1 47.4 8.05" fill="#ded07e" fill-rule="evenodd" stroke="none"/>
      <path d="M83.35 3.2 Q84.55 3.3 84.85 3.75 84.1 4.15 82.85 4.15 L82.45 4.15 82.4 4.3 Q82.0 4.75 80.75 4.9 79.75 4.65 79.85 4.2 L79.95 4.05 79.55 4.05 78.35 3.75 78.05 3.5 78.6 3.3 80.05 3.1 80.45 3.1 80.55 2.95 Q80.75 2.65 81.5 2.5 L82.15 2.35 82.65 2.55 Q83.1 2.75 83.05 3.05 L82.95 3.2 83.35 3.2" fill="#ded07e" fill-rule="evenodd" stroke="none"/>
      <path d="M152.35 5.2 L152.75 5.2 152.8 5.05 Q153.05 4.75 153.8 4.6 L154.45 4.45 154.95 4.65 Q155.4 4.85 155.35 5.15 L155.25 5.3 155.65 5.3 Q156.8 5.4 157.15 5.85 L155.15 6.3 154.75 6.25 154.65 6.4 Q154.3 6.85 153.05 7.05 152.05 6.8 152.15 6.3 L152.25 6.15 151.85 6.15 150.65 5.85 150.35 5.6 150.9 5.4 152.35 5.2" fill="#ded07e" fill-rule="evenodd" stroke="none"/>
      <path d="M178.65 5.45 L178.75 5.35 178.4 5.3 177.5 4.95 177.25 4.75 177.7 4.65 178.9 4.6 179.25 4.6 179.3 4.5 180.1 4.15 180.65 4.1 181.05 4.3 181.3 4.75 181.25 4.85 181.55 4.9 Q182.5 5.05 182.7 5.45 L181.05 5.65 180.75 5.6 180.65 5.7 179.3 6.1 Q178.55 5.8 178.65 5.45" fill="#ded07e" fill-rule="evenodd" stroke="none"/>
      <path d="M197.15 10.3 L197.6 10.2 197.95 10.3 198.2 10.65 198.15 10.8 198.45 10.8 Q199.25 10.85 199.45 11.15 L198.05 11.45 197.8 11.45 197.75 11.55 Q197.5 11.85 196.65 11.95 195.95 11.8 196.0 11.45 L196.1 11.35 195.8 11.35 195.0 11.15 194.8 11.0 195.15 10.85 196.15 10.7 196.45 10.7 196.5 10.6 Q196.65 10.4 197.15 10.3" fill="#ded07e" fill-rule="evenodd" stroke="none"/>
      <path d="M163.5 9.4 L163.4 9.55 163.8 9.55 Q165.0 9.65 165.3 10.1 L163.3 10.5 162.9 10.5 162.85 10.65 Q162.45 11.1 161.2 11.25 160.2 11.0 160.3 10.55 L160.4 10.4 160.0 10.4 158.8 10.1 158.5 9.85 159.05 9.65 160.5 9.45 160.9 9.45 160.95 9.3 Q161.2 9.0 161.95 8.85 L162.6 8.7 163.1 8.9 Q163.55 9.1 163.5 9.4" fill="#ded07e" fill-rule="evenodd" stroke="none"/>
      <path d="M27.0 11.7 L26.7 11.65 26.65 11.8 25.4 12.25 Q24.65 12.05 24.75 11.7 L24.8 11.6 24.5 11.6 23.65 11.35 23.4 11.2 23.8 11.05 24.9 10.85 25.2 10.9 25.25 10.75 25.95 10.4 26.45 10.3 26.8 10.45 27.15 10.85 27.05 10.95 27.35 10.95 Q28.25 11.05 28.5 11.35 L27.0 11.7" fill="#ded07e" fill-rule="evenodd" stroke="none"/>
      <path d="M68.2 9.55 Q69.4 9.65 69.7 10.1 L67.7 10.5 67.3 10.5 67.25 10.65 Q66.85 11.1 65.6 11.25 L65.3 11.15 64.2 11.25 63.75 11.2 63.7 11.35 Q63.35 11.7 62.05 11.8 61.0 11.55 61.1 11.2 L61.2 11.05 60.75 11.05 59.55 10.75 59.2 10.55 59.75 10.4 61.25 10.25 61.7 10.3 61.75 10.15 Q62.0 9.9 63.1 9.75 L64.9 9.45 65.3 9.45 65.4 9.3 Q65.6 9.0 66.35 8.85 L67.0 8.7 67.5 8.9 67.9 9.4 67.8 9.55 68.2 9.55" fill="#ded07e" fill-rule="evenodd" stroke="none"/>
      <path d="M140.65 10.25 L140.15 10.25 138.7 9.9 138.3 9.65 138.95 9.45 140.75 9.3 141.25 9.3 141.35 9.15 Q141.65 8.9 142.5 8.75 L143.3 8.6 143.9 8.8 144.45 9.35 144.3 9.5 144.8 9.5 Q146.25 9.65 146.65 10.1 L144.2 10.45 143.7 10.45 143.65 10.6 Q143.2 11.0 141.7 11.15 140.45 10.85 140.55 10.4 L140.65 10.25" fill="#ded07e" fill-rule="evenodd" stroke="none"/>
      <path d="M141.5 6.65 L140.95 7.1 139.6 7.3 138.3 7.1 137.75 6.65 Q137.75 6.05 139.6 6.05 141.5 6.05 141.5 6.65" fill="#ded07e" fill-rule="evenodd" stroke="none"/>
      <path d="M173.7 6.65 L173.15 7.1 171.95 7.15 170.8 6.8 Q170.35 6.5 170.4 6.2 170.45 5.9 170.95 5.75 L172.15 5.65 Q173.85 5.95 173.7 6.65" fill="#ded07e" fill-rule="evenodd" stroke="none"/>
      <path d="M189.6 9.05 Q189.5 9.55 188.3 9.4 187.1 9.3 187.1 8.75 187.2 8.3 188.4 8.4 189.7 8.6 189.6 9.05" fill="#ded07e" fill-rule="evenodd" stroke="none"/>
      <path d="M151.85 3.65 Q151.85 4.15 150.1 4.15 148.35 4.15 148.35 3.65 148.35 3.45 148.85 3.3 L150.1 3.15 151.35 3.3 151.85 3.65" fill="#ded07e" fill-rule="evenodd" stroke="none"/>
      <path d="M87.75 6.55 Q87.75 7.15 86.0 7.15 84.25 7.15 84.25 6.55 84.25 5.9 86.0 5.9 L87.25 6.1 87.75 6.55" fill="#ded07e" fill-rule="evenodd" stroke="none"/>
    </g>
    <radialGradient cx="0" cy="0" gradientTransform="matrix(0.0027, 0.0, 0.0, -0.0011, 37.9, 8.8)" gradientUnits="userSpaceOnUse" id="gradient0" r="819.2" spreadMethod="pad">
      <stop offset="0.0" stop-color="#dc9f60"/>
      <stop offset="1.0" stop-color="#e6a058"/>
    </radialGradient>
    <radialGradient cx="0" cy="0" gradientTransform="matrix(0.0029, 0.0, 0.0, -0.0011, 70.1, 3.5)" gradientUnits="userSpaceOnUse" id="gradient1" r="819.2" spreadMethod="pad">
      <stop offset="0.0" stop-color="#dc9f60"/>
      <stop offset="1.0" stop-color="#e6a058"/>
    </radialGradient>
    <radialGradient cx="0" cy="0" gradientTransform="matrix(0.0026, 0.0, 0.0, -0.001, 126.2, 3.55)" gradientUnits="userSpaceOnUse" id="gradient2" r="819.2" spreadMethod="pad">
      <stop offset="0.0" stop-color="#dc9f60"/>
      <stop offset="1.0" stop-color="#e6a058"/>
    </radialGradient>
    <radialGradient cx="0" cy="0" gradientTransform="matrix(0.0031, 0.0, 0.0, -0.0012, 180.45, 12.0)" gradientUnits="userSpaceOnUse" id="gradient3" r="819.2" spreadMethod="pad">
      <stop offset="0.0" stop-color="#dc9f60"/>
      <stop offset="1.0" stop-color="#e6a058"/>
    </radialGradient>
    <radialGradient cx="0" cy="0" gradientTransform="matrix(0.0035, 0.0, 0.0, -0.0013, 93.3, 1.6)" gradientUnits="userSpaceOnUse" id="gradient4" r="819.2" spreadMethod="pad">
      <stop offset="0.0" stop-color="#dc9f60"/>
      <stop offset="1.0" stop-color="#e6a058"/>
    </radialGradient>
    <radialGradient cx="0" cy="0" gradientTransform="matrix(0.0025, 0.0, 0.0, -0.001, 115.95, 11.1)" gradientUnits="userSpaceOnUse" id="gradient5" r="819.2" spreadMethod="pad">
      <stop offset="0.0" stop-color="#dc9f60"/>
      <stop offset="1.0" stop-color="#e6a058"/>
    </radialGradient>
  </defs>
</svg>
