<?xml version="1.0" encoding="UTF-8" standalone="no"?>
<svg xmlns:xlink="http://www.w3.org/1999/xlink" height="68.45px" width="440.15px" xmlns="http://www.w3.org/2000/svg">
  <g transform="matrix(1.0, 0.0, 0.0, 1.0, 0.0, 0.0)">
    <use height="63.45" transform="matrix(1.0, 0.0, 0.0, 1.0, 0.0, 0.0)" width="440.15" xlink:href="#shape0"/>
    <use height="7.7" transform="matrix(1.0, 0.0, 0.0, 1.0, 145.5, 60.05)" width="22.2" xlink:href="#sprite0"/>
    <use height="5.65" transform="matrix(1.0, 0.0, 0.0, 1.0, 147.55, 60.8)" width="17.3" xlink:href="#shape2"/>
    <use height="7.65" transform="matrix(1.0, 0.0, 0.0, 1.0, 147.55, 60.8)" width="17.3" xlink:href="#sprite1"/>
    <use height="6.6" transform="matrix(1.0, 0.0, 0.0, 1.0, 270.85, 51.65)" width="15.55" xlink:href="#sprite2"/>
    <use height="4.85" transform="matrix(1.0, 0.0, 0.0, 1.0, 272.35, 52.3)" width="12.05" xlink:href="#shape5"/>
    <use height="6.55" transform="matrix(1.0, 0.0, 0.0, 1.0, 272.35, 52.3)" width="12.05" xlink:href="#sprite3"/>
    <use height="3.45" transform="matrix(1.0, 0.0, 0.0, 1.0, 136.45, 56.5)" width="8.85" xlink:href="#sprite4"/>
    <use height="2.4" transform="matrix(1.0, 0.0, 0.0, 1.0, 137.8, 56.85)" width="5.7" xlink:href="#shape7"/>
    <use height="3.2" transform="matrix(1.0, 0.0, 0.0, 1.0, 137.8, 56.85)" width="5.7" xlink:href="#sprite5"/>
    <use height="65.15" transform="matrix(1.0, 0.0, 0.0, 1.0, 2.9, 0.4)" width="419.8" xlink:href="#shape9"/>
    <use height="5.2" transform="matrix(1.0, 0.0, 0.0, 1.0, 35.35, 46.8)" width="15.6" xlink:href="#sprite6"/>
    <use height="3.85" transform="matrix(1.0, 0.0, 0.0, 1.0, 36.8, 47.3)" width="12.1" xlink:href="#shape10"/>
    <use height="5.2" transform="matrix(1.0, 0.0, 0.0, 1.0, 36.8, 47.3)" width="12.1" xlink:href="#sprite7"/>
  </g>
  <defs>
    <g id="shape0" transform="matrix(1.0, 0.0, 0.0, 1.0, 0.0, 0.0)">
      <path d="M170.6 50.6 Q171.35 51.15 171.35 51.95 171.35 52.75 170.55 53.3 169.8 53.85 168.7 53.8 167.6 53.8 166.8 53.25 166.05 52.7 166.05 51.9 166.05 51.1 166.85 50.55 167.6 50.0 168.7 50.0 169.85 50.05 170.6 50.6 M170.0 52.0 Q170.0 51.6 169.65 51.35 169.25 51.05 168.75 51.05 L167.85 51.3 Q167.5 51.55 167.45 51.95 167.45 52.35 167.85 52.6 L168.75 52.9 169.65 52.65 170.0 52.0" fill="#1d8487" fill-rule="evenodd" stroke="none"/>
      <path d="M177.15 35.8 Q176.85 36.15 176.95 36.5 L177.5 37.0 178.45 37.0 Q179.6 36.55 179.4 35.7 L178.85 35.2 177.9 35.25 177.15 35.8 M175.6 36.9 Q175.4 36.15 175.95 35.4 176.55 34.65 177.55 34.25 L179.5 34.2 Q180.45 34.45 180.65 35.2 180.9 35.95 180.3 36.75 L178.65 37.9 176.7 37.95 Q175.85 37.65 175.6 36.9" fill="#1d8487" fill-rule="evenodd" stroke="none"/>
      <path d="M255.3 45.4 Q254.8 45.6 254.55 45.95 254.3 46.35 254.4 46.7 254.5 47.05 254.9 47.2 L255.85 47.15 Q257.05 46.7 256.8 45.85 256.55 45.05 255.3 45.4 M256.9 44.35 Q257.85 44.65 258.05 45.4 258.3 46.15 257.7 46.95 257.1 47.7 256.1 48.05 L254.15 48.1 Q253.2 47.85 253.0 47.1 252.8 46.35 253.35 45.55 253.95 44.8 255.0 44.45 L256.9 44.35" fill="#1d8487" fill-rule="evenodd" stroke="none"/>
      <path d="M235.0 8.55 Q234.8 7.8 235.35 7.0 235.95 6.25 237.0 5.9 L238.95 5.85 Q239.85 6.1 240.05 6.85 240.3 7.6 239.7 8.4 239.1 9.15 238.1 9.5 L236.15 9.6 Q235.25 9.3 235.0 8.55 M236.95 8.65 L237.85 8.6 Q238.35 8.45 238.65 8.1 L238.8 7.35 238.25 6.85 237.35 6.9 236.55 7.45 Q236.3 7.8 236.4 8.15 L236.95 8.65" fill="#1d8487" fill-rule="evenodd" stroke="none"/>
      <path d="M382.45 51.2 Q382.75 50.85 382.65 50.5 L382.1 50.0 381.15 50.05 Q380.65 50.2 380.4 50.55 380.1 50.95 380.2 51.3 380.3 51.7 380.75 51.8 L381.7 51.75 382.45 51.2 M380.8 49.05 L382.75 48.95 Q383.7 49.25 383.9 50.0 384.15 50.75 383.55 51.55 L381.9 52.65 379.95 52.75 Q379.1 52.45 378.85 51.7 378.6 50.95 379.2 50.15 379.75 49.4 380.8 49.05" fill="#1d8487" fill-rule="evenodd" stroke="none"/>
      <path d="M162.15 12.55 Q163.2 13.75 163.3 15.45 L163.35 18.75 163.55 22.5 163.45 26.55 Q163.35 32.9 162.6 32.9 162.25 32.9 162.25 27.6 162.05 22.75 161.65 19.55 161.35 18.2 160.3 17.3 159.15 16.25 158.65 15.05 157.85 13.15 159.35 12.15 160.85 11.1 162.15 12.55" fill="#1d8487" fill-rule="evenodd" stroke="none"/>
      <path d="M166.65 19.5 Q166.2 22.65 165.9 27.55 165.9 32.85 165.4 32.85 165.0 32.8 164.9 30.75 L164.95 26.4 164.9 22.55 Q164.85 20.55 165.15 18.95 L165.25 15.5 Q165.25 13.6 166.3 12.5 167.65 11.05 169.1 12.15 170.6 13.2 169.8 15.1 169.25 16.25 168.05 17.3 167.0 18.15 166.65 19.5" fill="#1d8487" fill-rule="evenodd" stroke="none"/>
      <path d="M170.95 18.7 Q172.3 17.05 174.3 17.0 176.25 16.95 176.25 18.95 176.25 20.95 174.45 21.05 L172.1 21.5 Q171.25 21.9 170.2 23.15 168.45 25.4 168.1 31.0 L167.75 32.7 Q167.4 33.1 167.35 31.9 167.25 30.7 167.65 27.45 168.15 23.55 169.0 22.05 L170.95 18.7" fill="#1d8487" fill-rule="evenodd" stroke="none"/>
      <path d="M157.15 18.6 L159.1 21.95 Q159.9 23.45 160.3 27.35 L160.55 31.8 Q160.4 33.0 160.1 32.6 159.85 32.2 159.75 30.9 159.55 25.35 157.85 23.0 156.85 21.7 156.0 21.3 155.3 20.95 153.65 20.85 151.85 20.7 151.9 18.65 151.9 16.65 153.85 16.75 155.85 16.9 157.15 18.6" fill="#1d8487" fill-rule="evenodd" stroke="none"/>
      <path d="M335.1 29.1 Q334.65 30.15 333.65 31.0 332.75 31.75 332.45 32.9 332.05 35.6 331.8 39.75 331.8 44.25 331.4 44.25 330.9 44.25 331.0 38.8 L330.95 35.45 Q330.95 33.8 331.2 32.4 L331.25 29.45 Q331.25 27.85 332.15 26.9 333.3 25.7 334.55 26.6 335.8 27.5 335.1 29.1" fill="#1d8487" fill-rule="evenodd" stroke="none"/>
      <path d="M335.5 36.0 Q333.95 37.95 333.7 42.7 L333.35 44.15 Q333.1 44.45 333.0 43.45 L333.3 39.65 Q333.75 36.35 334.45 35.1 L336.15 32.25 Q337.3 30.8 339.0 30.75 340.65 30.7 340.65 32.4 340.65 34.15 339.1 34.25 L337.1 34.6 Q336.35 34.9 335.5 36.0" fill="#1d8487" fill-rule="evenodd" stroke="none"/>
      <path d="M353.7 39.75 Q352.4 40.8 352.15 42.4 L349.95 42.35 Q350.05 40.05 352.05 38.5 354.05 36.9 356.9 36.95 359.7 37.0 361.7 38.6 363.65 40.25 363.7 42.5 L361.55 42.5 Q361.35 40.9 360.05 39.85 358.7 38.75 356.9 38.75 355.1 38.7 353.7 39.75" fill="#1d8487" fill-rule="evenodd" stroke="none"/>
      <path d="M353.55 42.4 Q353.9 41.4 354.8 40.7 355.7 40.0 356.8 40.0 357.85 40.05 358.75 40.75 359.55 41.45 359.9 42.45 L353.55 42.4" fill="#1d8487" fill-rule="evenodd" stroke="none"/>
      <path d="M355.45 36.1 L355.7 35.3 Q356.1 34.45 356.9 34.5 358.15 34.5 358.25 36.15 L355.45 36.1" fill="#1d8487" fill-rule="evenodd" stroke="none"/>
      <path d="M358.65 36.2 L359.15 35.55 Q359.8 34.9 360.55 35.2 361.7 35.65 361.3 37.25 L358.65 36.2" fill="#1d8487" fill-rule="evenodd" stroke="none"/>
      <path d="M361.5 37.45 L362.2 37.0 Q363.0 36.65 363.6 37.2 364.55 38.05 363.7 39.35 L361.5 37.45" fill="#1d8487" fill-rule="evenodd" stroke="none"/>
      <path d="M364.65 39.6 Q365.5 39.8 365.7 40.6 366.05 41.9 364.65 42.45 L363.85 39.55 364.65 39.6" fill="#1d8487" fill-rule="evenodd" stroke="none"/>
      <path d="M355.05 36.1 L352.35 37.1 352.3 36.25 Q352.4 35.35 353.15 35.05 354.35 34.65 355.05 36.1" fill="#1d8487" fill-rule="evenodd" stroke="none"/>
      <path d="M352.15 37.3 L349.9 39.15 349.6 38.35 Q349.45 37.5 350.05 36.95 351.05 36.15 352.15 37.3" fill="#1d8487" fill-rule="evenodd" stroke="none"/>
      <path d="M349.75 39.35 L348.9 42.2 Q347.5 41.6 347.85 40.35 348.1 39.55 348.95 39.35 L349.75 39.35" fill="#1d8487" fill-rule="evenodd" stroke="none"/>
      <path d="M217.8 33.8 Q215.7 33.75 214.05 35.0 212.45 36.25 212.15 38.15 L209.55 38.1 Q209.65 35.4 212.05 33.5 214.45 31.6 217.8 31.65 221.15 31.7 223.55 33.65 225.9 35.6 225.95 38.3 L223.4 38.25 Q223.15 36.4 221.55 35.15 219.95 33.85 217.8 33.8" fill="#1d8487" fill-rule="evenodd" stroke="none"/>
      <path d="M213.8 38.15 Q214.25 36.95 215.3 36.15 216.45 35.3 217.7 35.3 218.95 35.35 220.0 36.2 221.0 37.05 221.4 38.25 L213.8 38.15" fill="#1d8487" fill-rule="evenodd" stroke="none"/>
      <path d="M216.1 30.65 L216.4 29.7 Q216.9 28.7 217.85 28.75 218.8 28.75 219.2 29.75 L219.45 30.7 216.1 30.65" fill="#1d8487" fill-rule="evenodd" stroke="none"/>
      <path d="M219.9 30.75 L220.5 29.95 Q221.3 29.25 222.15 29.6 223.05 29.95 223.15 31.0 L223.05 32.0 219.9 30.75" fill="#1d8487" fill-rule="evenodd" stroke="none"/>
      <path d="M223.3 32.25 L224.1 31.75 Q225.1 31.35 225.8 31.95 226.5 32.6 226.3 33.65 L225.9 34.55 223.3 32.25" fill="#1d8487" fill-rule="evenodd" stroke="none"/>
      <path d="M226.1 34.75 L227.05 34.8 Q228.05 35.05 228.35 36.0 228.6 36.95 227.85 37.7 L227.05 38.2 226.1 34.75" fill="#1d8487" fill-rule="evenodd" stroke="none"/>
      <path d="M215.6 30.65 L212.45 31.8 212.4 30.8 Q212.5 29.75 213.35 29.45 214.25 29.1 215.0 29.85 L215.6 30.65" fill="#1d8487" fill-rule="evenodd" stroke="none"/>
      <path d="M212.15 32.05 L209.5 34.3 209.15 33.4 Q208.95 32.35 209.7 31.7 210.4 31.1 211.35 31.5 L212.15 32.05" fill="#1d8487" fill-rule="evenodd" stroke="none"/>
      <path d="M209.35 34.5 L208.3 37.95 207.5 37.4 Q206.8 36.65 207.1 35.7 207.4 34.75 208.4 34.5 L209.35 34.5" fill="#1d8487" fill-rule="evenodd" stroke="none"/>
      <path d="M93.5 27.7 Q96.05 27.75 97.85 29.2 99.65 30.7 99.65 32.75 L97.75 32.75 Q97.55 31.3 96.35 30.35 95.15 29.35 93.5 29.35 91.85 29.3 90.6 30.25 89.4 31.2 89.15 32.65 L87.2 32.6 Q87.25 30.55 89.1 29.1 90.9 27.65 93.5 27.7" fill="#1d8487" fill-rule="evenodd" stroke="none"/>
      <path d="M90.45 32.65 Q90.75 31.7 91.55 31.1 92.4 30.45 93.4 30.5 94.4 30.5 95.15 31.15 95.9 31.75 96.2 32.7 L90.45 32.65" fill="#1d8487" fill-rule="evenodd" stroke="none"/>
      <path d="M92.15 26.95 L92.4 26.2 Q92.8 25.45 93.5 25.45 94.65 25.5 94.7 26.95 L92.15 26.95" fill="#1d8487" fill-rule="evenodd" stroke="none"/>
      <path d="M95.1 27.0 L95.55 26.4 Q96.15 25.85 96.8 26.1 97.85 26.55 97.45 27.95 L95.1 27.0" fill="#1d8487" fill-rule="evenodd" stroke="none"/>
      <path d="M97.65 28.15 L98.3 27.75 99.55 27.9 Q100.45 28.7 99.65 29.9 L97.65 28.15" fill="#1d8487" fill-rule="evenodd" stroke="none"/>
      <path d="M99.8 30.05 L100.5 30.1 Q101.3 30.3 101.5 31.0 101.8 32.15 100.55 32.7 L99.8 30.05" fill="#1d8487" fill-rule="evenodd" stroke="none"/>
      <path d="M91.8 26.95 L89.4 27.8 89.35 27.05 Q89.45 26.25 90.1 26.0 91.15 25.6 91.8 26.95" fill="#1d8487" fill-rule="evenodd" stroke="none"/>
      <path d="M89.2 28.0 L87.15 29.7 86.9 29.0 Q86.75 28.15 87.3 27.7 88.2 26.95 89.2 28.0" fill="#1d8487" fill-rule="evenodd" stroke="none"/>
      <path d="M87.05 29.85 L86.25 32.45 Q84.95 31.95 85.3 30.75 85.5 30.05 86.3 29.85 L87.05 29.85" fill="#1d8487" fill-rule="evenodd" stroke="none"/>
      <path d="M238.75 27.5 Q239.6 27.35 240.1 28.0 240.35 27.55 240.9 27.45 L241.85 27.6 Q242.3 27.85 242.4 28.35 L242.4 28.75 Q243.95 28.9 244.1 29.7 244.25 30.45 242.85 31.25 L243.0 31.6 Q243.1 32.1 242.8 32.5 L241.95 33.05 Q241.35 33.2 240.9 32.8 240.75 33.65 239.9 33.8 239.05 33.95 238.55 33.3 L237.75 33.85 236.8 33.7 Q236.35 33.45 236.25 32.95 L236.25 32.6 Q234.75 32.35 234.6 31.65 234.5 30.9 235.85 30.1 L235.65 29.7 Q235.55 29.2 235.85 28.8 236.15 28.35 236.7 28.25 237.3 28.1 237.75 28.5 237.9 27.65 238.75 27.5 M241.45 29.5 L239.2 29.65 Q237.95 29.9 237.15 30.4 236.35 30.9 236.4 31.3 236.5 31.7 237.4 31.8 L239.6 31.65 Q240.85 31.4 241.7 30.95 242.55 30.45 242.45 30.05 242.4 29.65 241.45 29.5" fill="#1d8487" fill-rule="evenodd" stroke="none"/>
      <path d="M240.45 30.45 Q240.55 30.85 240.3 31.15 L239.65 31.55 238.9 31.45 Q238.55 31.25 238.5 30.85 238.45 30.45 238.65 30.15 238.9 29.85 239.3 29.75 L240.05 29.9 Q240.4 30.1 240.45 30.45" fill="#1d8487" fill-rule="evenodd" stroke="none"/>
      <path d="M149.6 39.1 Q150.05 39.1 150.4 39.45 L150.7 40.25 150.4 41.0 150.75 41.55 Q151.35 41.2 152.1 41.1 L152.1 40.6 Q151.2 40.45 151.2 39.5 151.2 39.0 151.55 38.7 151.85 38.35 152.35 38.35 152.8 38.35 153.15 38.7 153.5 39.05 153.45 39.5 153.45 40.45 152.55 40.6 L152.55 41.1 Q153.5 41.2 154.1 41.6 L154.35 41.2 Q154.05 40.8 154.1 40.4 154.1 39.95 154.45 39.6 154.75 39.25 155.2 39.3 155.7 39.3 156.0 39.65 156.35 39.95 156.35 40.45 L156.0 41.25 Q155.7 41.55 155.2 41.55 L154.75 41.45 154.5 41.9 Q155.15 42.45 155.45 43.3 L156.0 43.15 155.95 42.95 Q155.95 42.5 156.3 42.2 156.65 41.85 157.1 41.85 157.6 41.85 157.9 42.2 158.25 42.5 158.25 43.0 L157.9 43.8 157.1 44.1 Q156.6 44.1 156.15 43.65 L155.6 43.8 155.65 44.45 155.55 45.25 153.7 45.2 Q153.75 44.65 153.35 44.2 152.95 43.8 152.4 43.8 151.85 43.8 151.5 44.2 151.1 44.6 151.1 45.2 L149.2 45.15 149.1 44.35 149.15 43.75 148.55 43.6 147.75 43.95 Q147.25 43.95 146.95 43.6 146.6 43.3 146.6 42.8 146.6 42.3 146.95 42.0 147.25 41.65 147.75 41.65 148.25 41.7 148.55 42.0 148.9 42.35 148.85 42.8 L148.85 43.15 149.3 43.25 Q149.6 42.4 150.35 41.8 L150.0 41.3 149.55 41.35 Q149.1 41.35 148.75 41.0 148.4 40.7 148.45 40.2 148.45 39.75 148.8 39.45 149.1 39.1 149.6 39.1" fill="#1d8487" fill-rule="evenodd" stroke="none"/>
      <path d="M298.55 56.95 L297.0 56.85 295.25 56.3 294.1 55.4 Q293.4 54.65 293.65 54.5 L295.2 54.6 296.95 55.1 298.05 56.1 Q298.7 56.85 298.55 56.95" fill="#1d8487" fill-rule="evenodd" stroke="none"/>
      <path d="M303.5 54.45 L303.45 55.35 Q303.25 56.15 302.9 56.35 L301.45 56.9 300.0 57.05 Q299.7 56.9 300.0 56.15 300.25 55.4 300.6 55.2 301.0 54.95 302.15 54.65 L303.5 54.45" fill="#1d8487" fill-rule="evenodd" stroke="none"/>
      <path d="M294.55 60.65 Q294.3 60.45 294.75 59.65 295.15 58.9 295.6 58.6 296.15 58.3 297.25 57.95 L298.85 57.7 Q299.15 57.85 298.7 58.7 L297.85 59.75 296.05 60.4 294.55 60.65" fill="#1d8487" fill-rule="evenodd" stroke="none"/>
      <path d="M305.05 60.25 L303.5 60.1 301.75 59.55 300.55 58.6 Q299.8 57.85 300.05 57.7 L301.6 57.85 303.35 58.4 Q303.9 58.65 304.55 59.4 305.25 60.15 305.05 60.25" fill="#1d8487" fill-rule="evenodd" stroke="none"/>
      <path d="M56.3 59.75 L54.75 59.65 53.05 59.1 51.9 58.2 Q51.2 57.45 51.45 57.3 L52.95 57.4 54.7 57.9 55.85 58.9 56.3 59.75" fill="#1d8487" fill-rule="evenodd" stroke="none"/>
      <path d="M61.3 57.25 L61.25 58.15 60.7 59.15 59.25 59.7 57.8 59.85 Q57.5 59.7 57.75 58.95 58.0 58.2 58.35 58.0 58.8 57.75 59.95 57.45 L61.3 57.25" fill="#1d8487" fill-rule="evenodd" stroke="none"/>
      <path d="M52.35 63.45 Q52.05 63.25 52.5 62.45 L53.4 61.4 Q54.0 61.1 55.05 60.75 L56.65 60.55 Q56.9 60.65 56.45 61.5 L55.6 62.55 53.85 63.2 52.35 63.45" fill="#1d8487" fill-rule="evenodd" stroke="none"/>
      <path d="M62.85 63.05 L61.25 62.9 59.5 62.35 58.3 61.4 Q57.55 60.65 57.8 60.5 L59.4 60.65 Q60.75 60.95 61.15 61.2 L62.35 62.2 Q63.05 62.95 62.85 63.05" fill="#1d8487" fill-rule="evenodd" stroke="none"/>
      <path d="M251.05 10.85 L249.8 11.35 248.3 11.6 247.1 11.35 Q246.3 11.05 246.4 10.8 246.5 10.6 247.65 10.3 L249.15 10.0 250.4 10.35 251.05 10.85" fill="#1d8487" fill-rule="evenodd" stroke="none"/>
      <path d="M253.9 7.0 L254.2 7.7 254.15 8.7 253.25 9.7 Q252.5 10.35 252.2 10.35 251.9 10.35 251.85 9.65 251.75 9.0 251.95 8.7 L252.95 7.65 Q253.7 6.95 253.9 7.0" fill="#1d8487" fill-rule="evenodd" stroke="none"/>
      <path d="M249.4 15.3 Q249.1 15.25 249.15 14.45 L249.45 13.25 250.45 12.1 Q251.25 11.3 251.6 11.35 251.85 11.35 251.8 12.2 L251.55 13.35 250.45 14.55 249.4 15.3" fill="#1d8487" fill-rule="evenodd" stroke="none"/>
      <path d="M257.2 10.9 L255.95 11.4 254.45 11.65 253.2 11.4 Q252.35 11.1 252.45 10.85 252.55 10.65 253.7 10.4 L255.25 10.1 256.55 10.45 Q257.3 10.8 257.2 10.9" fill="#1d8487" fill-rule="evenodd" stroke="none"/>
      <path d="M196.7 52.55 Q196.7 53.1 197.4 53.1 198.1 53.1 198.1 52.55 198.2 52.1 197.4 52.0 196.7 52.0 196.7 52.55 M198.2 51.2 L198.4 51.3 200.35 51.2 Q201.1 52.15 199.35 52.55 L199.35 52.65 Q201.2 52.9 200.55 53.9 L198.55 53.95 198.4 54.0 Q199.1 55.4 197.6 55.45 196.1 55.5 196.6 54.05 L196.45 54.0 Q195.25 55.2 194.45 54.2 193.6 53.15 195.55 52.8 L195.55 52.7 Q193.6 52.55 194.2 51.5 L196.2 51.45 196.35 51.35 Q195.7 50.05 197.1 49.95 198.55 49.85 198.2 51.2" fill="#1d8487" fill-rule="evenodd" stroke="none"/>
      <path d="M240.8 14.2 L240.5 14.75 239.7 14.95 Q239.25 14.9 238.95 14.65 238.65 14.4 238.7 14.1 238.7 13.75 239.05 13.55 239.35 13.3 239.8 13.35 240.25 13.4 240.55 13.65 L240.8 14.2" fill="#1d8487" fill-rule="evenodd" stroke="none"/>
      <path d="M186.15 34.35 L185.9 35.0 Q185.65 35.25 185.2 35.3 184.15 35.45 184.0 34.7 183.95 34.4 184.25 34.1 184.55 33.85 185.0 33.75 L185.75 33.85 186.15 34.35" fill="#1d8487" fill-rule="evenodd" stroke="none"/>
      <path d="M289.8 44.1 Q289.9 44.85 288.85 45.45 287.85 46.1 286.4 46.2 L283.9 45.9 Q282.85 45.5 282.75 44.75 282.7 44.0 283.75 43.4 284.75 42.75 286.2 42.65 L288.7 42.95 Q289.75 43.4 289.8 44.1" fill="#1d8487" fill-rule="evenodd" stroke="none"/>
      <path d="M256.85 52.25 Q256.75 53.0 255.65 53.4 L253.1 53.6 Q251.65 53.35 250.7 52.75 249.75 52.1 249.8 51.35 249.9 50.6 251.0 50.25 L253.5 50.05 Q254.95 50.25 255.95 50.9 256.95 51.55 256.85 52.25" fill="#1d8487" fill-rule="evenodd" stroke="none"/>
      <path d="M291.9 20.45 Q291.85 21.2 290.7 21.6 L288.15 21.8 Q286.7 21.6 285.75 20.95 284.8 20.3 284.85 19.55 284.95 18.8 286.05 18.45 L288.6 18.25 Q290.05 18.45 291.0 19.1 292.0 19.75 291.9 20.45" fill="#1d8487" fill-rule="evenodd" stroke="none"/>
      <path d="M203.45 23.55 Q203.4 22.9 203.8 22.45 204.2 21.9 205.0 22.1 205.8 22.3 206.1 22.9 206.45 23.7 205.4 24.55 207.6 24.65 206.95 26.3 206.35 27.95 204.45 26.65 205.95 28.55 204.05 28.7 202.1 28.85 202.6 27.0 201.0 28.6 200.0 26.65 199.1 24.8 202.05 25.0 199.6 23.35 201.15 22.55 202.85 21.65 203.45 23.55 M204.4 24.45 L204.85 23.15 204.15 24.15 203.55 24.4 Q203.1 24.5 203.1 24.15 L203.05 24.45 202.1 23.6 202.65 24.45 202.65 25.2 202.35 25.9 201.8 26.2 201.25 26.4 202.25 26.2 Q203.0 26.1 203.35 26.65 L203.9 27.7 Q203.55 26.75 203.8 26.4 204.15 25.85 204.75 25.9 L205.9 25.9 204.6 25.5 204.95 25.5 Q204.15 25.4 204.4 24.45" fill="#1d8487" fill-rule="evenodd" stroke="none"/>
      <path d="M203.55 24.9 Q204.0 24.9 204.0 25.4 203.9 25.9 203.45 25.8 203.0 25.7 203.0 25.3 203.1 24.8 203.55 24.9" fill="#1d8487" fill-rule="evenodd" stroke="none"/>
      <path d="M373.4 46.9 Q372.6 48.75 371.65 47.95 370.7 47.15 372.3 46.25 370.4 46.45 371.45 44.85 372.4 43.25 373.55 44.75 373.7 42.6 375.0 42.85 376.4 43.1 375.25 44.55 375.75 44.1 376.2 44.0 376.8 43.9 377.0 44.4 377.2 44.9 376.85 45.4 376.45 46.0 375.35 46.05 376.25 47.15 374.75 47.9 373.25 48.6 373.4 46.9 M374.65 43.95 L374.2 44.7 373.65 45.15 373.0 45.45 372.55 45.4 372.15 45.25 372.75 45.6 Q373.2 45.85 372.9 46.4 L372.35 47.3 372.8 46.8 Q373.05 46.5 373.25 46.45 L374.05 46.55 374.55 47.1 374.3 46.25 374.45 46.4 Q374.15 46.0 375.0 45.55 L376.15 44.95 375.1 45.25 374.65 45.1 Q374.4 44.95 374.65 44.75 L374.4 44.9 374.65 43.95" fill="#1d8487" fill-rule="evenodd" stroke="none"/>
      <path d="M374.3 45.4 Q374.5 45.7 374.1 45.9 373.75 46.2 373.55 45.9 373.4 45.65 373.75 45.4 374.1 45.15 374.3 45.4" fill="#1d8487" fill-rule="evenodd" stroke="none"/>
      <path d="M131.15 43.5 L130.45 43.6 129.75 43.5 129.15 42.85 129.45 43.45 Q129.7 43.9 129.2 44.2 L128.3 44.7 128.9 44.5 129.45 44.45 130.1 45.0 130.25 45.75 130.45 44.9 130.5 45.1 Q130.45 44.6 131.4 44.65 L132.65 44.8 131.65 44.45 131.35 44.1 Q131.2 43.8 131.5 43.8 L131.2 43.75 131.9 43.1 131.15 43.5 M128.75 42.05 Q130.35 41.3 130.55 43.2 131.75 41.45 132.75 42.35 133.85 43.35 132.15 43.95 L133.25 44.05 Q133.75 44.25 133.7 44.8 L133.05 45.6 Q132.4 45.85 131.45 45.3 131.65 46.7 130.0 46.5 128.4 46.25 129.35 44.9 L127.35 44.85 Q126.95 43.65 128.75 43.75 127.05 42.9 128.75 42.05" fill="#1d8487" fill-rule="evenodd" stroke="none"/>
      <path d="M130.9 44.15 L130.45 44.5 130.0 44.2 Q130.0 43.85 130.45 43.85 130.9 43.85 130.9 44.15" fill="#1d8487" fill-rule="evenodd" stroke="none"/>
      <path d="M3.15 51.8 L3.2 52.0 Q3.15 51.5 4.1 51.55 L5.35 51.7 4.35 51.4 4.05 51.05 Q3.9 50.75 4.2 50.7 L3.9 50.7 4.6 50.0 3.85 50.45 3.15 50.5 2.45 50.4 2.1 50.1 1.85 49.75 2.15 50.4 Q2.4 50.85 1.9 51.15 L1.0 51.6 1.6 51.45 2.15 51.4 Q2.7 51.55 2.8 51.95 L2.95 52.7 3.15 51.8 M6.4 51.7 L5.75 52.5 Q5.1 52.8 4.15 52.2 4.4 53.65 2.75 53.4 1.1 53.2 2.05 51.85 L0.05 51.8 Q-0.35 50.6 1.45 50.7 -0.25 49.85 1.45 49.0 3.05 48.2 3.25 50.1 4.45 48.35 5.45 49.3 6.55 50.25 4.85 50.85 L5.95 50.95 Q6.45 51.15 6.4 51.7" fill="#1d8487" fill-rule="evenodd" stroke="none"/>
      <path d="M3.6 51.05 Q3.6 51.4 3.15 51.4 L2.7 51.1 Q2.7 50.85 3.15 50.75 3.6 50.75 3.6 51.05" fill="#1d8487" fill-rule="evenodd" stroke="none"/>
      <path d="M412.6 30.4 L412.55 30.6 Q412.75 30.1 413.55 30.6 L414.6 31.35 413.85 30.55 413.75 30.1 Q413.8 29.75 414.05 29.9 L413.8 29.75 414.75 29.45 413.85 29.5 413.2 29.25 412.65 28.8 412.4 27.95 412.4 28.65 Q412.4 29.15 411.85 29.15 L410.8 29.15 411.4 29.3 411.95 29.55 Q412.35 29.95 412.25 30.3 L412.05 31.05 412.6 30.4 M415.45 30.9 Q415.85 31.35 415.5 31.8 415.2 32.25 414.6 32.2 413.85 32.15 413.3 31.2 412.8 32.55 411.45 31.55 410.15 30.6 411.65 29.85 409.7 30.15 409.9 28.9 410.1 27.6 411.65 28.55 410.55 27.0 412.4 27.1 414.2 27.15 413.5 28.9 415.35 27.95 415.85 29.25 416.3 30.6 414.55 30.3 415.15 30.55 415.45 30.9" fill="#1d8487" fill-rule="evenodd" stroke="none"/>
      <path d="M413.35 29.9 L412.8 30.0 Q412.4 29.8 412.55 29.55 412.6 29.25 413.1 29.45 413.45 29.6 413.35 29.9" fill="#1d8487" fill-rule="evenodd" stroke="none"/>
      <path d="M182.4 40.2 Q182.45 39.45 183.25 38.95 184.1 38.45 185.2 38.5 186.3 38.6 187.1 39.15 187.85 39.75 187.8 40.5 187.75 41.3 186.95 41.8 186.15 42.3 185.0 42.2 183.9 42.15 183.1 41.6 182.35 41.0 182.4 40.2" fill="#1d8487" fill-rule="evenodd" stroke="none"/>
      <path d="M156.0 48.9 Q156.1 49.6 155.35 50.2 154.6 50.75 153.45 50.85 152.3 50.95 151.5 50.45 150.7 50.0 150.65 49.25 150.6 48.55 151.35 48.0 152.15 47.45 153.25 47.35 154.35 47.3 155.15 47.75 155.95 48.2 156.0 48.9" fill="#1d8487" fill-rule="evenodd" stroke="none"/>
      <path d="M294.2 49.25 Q294.3 49.7 293.9 50.05 293.5 50.45 292.95 50.5 L291.95 50.35 Q291.5 50.1 291.45 49.65 291.4 49.25 291.75 48.9 292.1 48.55 292.7 48.45 L293.7 48.6 Q294.15 48.85 294.2 49.25" fill="#1d8487" fill-rule="evenodd" stroke="none"/>
      <path d="M141.25 5.2 Q141.2 4.8 141.6 4.45 141.95 4.05 142.5 3.95 L143.55 4.1 Q144.0 4.35 144.05 4.8 144.1 5.2 143.75 5.55 143.35 5.95 142.8 6.0 L141.8 5.85 Q141.35 5.6 141.25 5.2" fill="#1d8487" fill-rule="evenodd" stroke="none"/>
      <path d="M266.35 58.7 Q266.3 58.35 266.55 58.1 266.8 57.8 267.2 57.75 L267.95 57.85 268.3 58.4 Q268.4 59.2 267.45 59.35 L266.7 59.25 266.35 58.7" fill="#1d8487" fill-rule="evenodd" stroke="none"/>
      <path d="M274.65 24.5 Q274.5 23.75 275.5 23.55 276.5 23.45 276.6 24.2 L276.4 24.85 Q276.15 25.1 275.75 25.15 L275.0 25.05 274.65 24.5" fill="#1d8487" fill-rule="evenodd" stroke="none"/>
      <path d="M258.55 50.35 Q258.45 49.6 259.45 49.4 L260.2 49.55 260.55 50.1 260.35 50.7 259.65 51.05 258.9 50.9 258.55 50.35" fill="#1d8487" fill-rule="evenodd" stroke="none"/>
      <path d="M262.65 29.25 Q262.6 28.9 262.85 28.65 263.1 28.35 263.5 28.3 L264.25 28.4 264.6 28.95 Q264.75 29.7 263.75 29.9 L263.0 29.8 262.65 29.25" fill="#1d8487" fill-rule="evenodd" stroke="none"/>
      <path d="M225.15 25.7 Q225.1 25.35 225.4 25.1 225.65 24.8 226.05 24.75 L226.75 24.85 227.1 25.4 Q227.25 26.15 226.25 26.35 L225.5 26.2 225.15 25.7" fill="#1d8487" fill-rule="evenodd" stroke="none"/>
      <path d="M422.4 14.5 Q422.25 13.75 423.25 13.55 L424.0 13.7 424.35 14.2 424.15 14.85 423.5 15.15 422.75 15.05 422.4 14.5" fill="#1d8487" fill-rule="evenodd" stroke="none"/>
      <path d="M162.45 47.05 L161.55 46.9 Q161.15 46.65 161.05 46.2 161.0 45.8 161.35 45.45 161.7 45.1 162.2 45.0 L163.15 45.2 Q163.55 45.45 163.6 45.85 163.65 46.25 163.3 46.6 162.95 47.0 162.45 47.05" fill="#1d8487" fill-rule="evenodd" stroke="none"/>
      <path d="M345.1 46.4 Q345.05 46.0 345.4 45.65 345.8 45.35 346.3 45.3 L347.2 45.5 347.65 46.2 Q347.7 46.6 347.35 46.95 L346.45 47.35 345.55 47.1 Q345.15 46.85 345.1 46.4" fill="#1d8487" fill-rule="evenodd" stroke="none"/>
      <path d="M273.2 40.65 Q273.1 39.9 274.1 39.7 L274.85 39.8 275.2 40.35 275.0 41.0 274.3 41.3 273.55 41.2 273.2 40.65" fill="#1d8487" fill-rule="evenodd" stroke="none"/>
      <path d="M182.65 54.75 Q182.6 54.4 182.9 54.15 183.15 53.85 183.55 53.8 L184.3 53.9 184.65 54.45 Q184.75 55.2 183.75 55.4 182.85 55.55 182.65 54.75" fill="#1d8487" fill-rule="evenodd" stroke="none"/>
      <path d="M124.0 45.7 Q123.95 45.4 124.25 45.1 124.5 44.85 124.9 44.75 L125.65 44.9 126.0 45.45 Q126.1 46.2 125.1 46.4 L124.35 46.25 124.0 45.7" fill="#1d8487" fill-rule="evenodd" stroke="none"/>
      <path d="M307.7 21.95 Q307.65 21.55 308.0 21.2 308.35 20.85 308.95 20.75 L309.95 20.9 Q310.4 21.15 310.45 21.55 310.55 22.0 310.15 22.35 309.75 22.75 309.2 22.8 L308.2 22.65 Q307.75 22.4 307.7 21.95" fill="#1d8487" fill-rule="evenodd" stroke="none"/>
      <path d="M283.8 29.95 L282.85 30.4 281.85 30.25 Q281.4 30.0 281.3 29.6 281.25 29.2 281.65 28.85 282.0 28.45 282.6 28.35 L283.6 28.5 Q284.05 28.75 284.1 29.2 284.15 29.6 283.8 29.95" fill="#1d8487" fill-rule="evenodd" stroke="none"/>
      <path d="M243.65 39.5 Q243.25 39.85 242.7 39.95 L241.7 39.8 Q241.25 39.55 241.15 39.1 241.1 38.7 241.5 38.35 241.85 38.0 242.45 37.9 L243.45 38.05 Q243.9 38.3 243.95 38.7 244.05 39.1 243.65 39.5" fill="#1d8487" fill-rule="evenodd" stroke="none"/>
      <path d="M199.55 44.7 Q199.5 44.3 199.85 43.95 200.25 43.6 200.8 43.5 L201.8 43.65 Q202.25 43.9 202.3 44.3 202.4 44.7 202.0 45.05 201.65 45.45 201.05 45.5 L200.05 45.35 199.55 44.7" fill="#1d8487" fill-rule="evenodd" stroke="none"/>
      <path d="M296.7 26.0 Q296.65 25.6 297.05 25.25 297.4 24.85 297.95 24.75 L298.95 24.9 299.5 25.6 299.15 26.35 Q298.8 26.75 298.2 26.8 L297.2 26.65 296.7 26.0" fill="#1d8487" fill-rule="evenodd" stroke="none"/>
      <path d="M139.6 41.0 Q139.55 40.6 139.9 40.25 140.3 39.9 140.85 39.8 L141.85 39.95 Q142.3 40.2 142.35 40.6 142.45 41.0 142.05 41.35 L141.1 41.8 140.1 41.65 Q139.65 41.4 139.6 41.0" fill="#1d8487" fill-rule="evenodd" stroke="none"/>
      <path d="M177.8 52.35 Q177.75 51.9 178.1 51.55 178.45 51.2 179.05 51.1 L180.05 51.25 Q180.5 51.5 180.55 51.95 180.65 52.35 180.25 52.7 L179.3 53.15 178.3 53.0 Q177.85 52.75 177.8 52.35" fill="#1d8487" fill-rule="evenodd" stroke="none"/>
      <path d="M332.15 53.6 L331.8 54.3 330.85 54.55 329.95 54.3 329.55 53.65 Q329.55 53.25 329.95 52.95 L330.85 52.7 Q331.4 52.7 331.75 52.95 332.15 53.25 332.15 53.6" fill="#1d8487" fill-rule="evenodd" stroke="none"/>
      <path d="M327.5 48.95 Q327.9 49.25 327.9 49.6 327.9 50.5 326.6 50.6 L325.7 50.3 Q325.3 50.05 325.3 49.65 325.3 49.25 325.7 49.0 326.1 48.7 326.6 48.7 327.15 48.7 327.5 48.95" fill="#1d8487" fill-rule="evenodd" stroke="none"/>
      <path d="M325.55 54.85 L323.65 54.5 Q322.85 54.0 322.75 53.3 322.7 52.6 323.45 52.05 324.25 51.5 325.35 51.4 326.45 51.3 327.25 51.75 328.05 52.2 328.1 52.95 328.2 53.65 327.45 54.2 326.7 54.8 325.55 54.85" fill="#1d8487" fill-rule="evenodd" stroke="none"/>
      <path d="M328.65 51.05 Q328.55 50.3 329.65 50.1 L330.45 50.2 330.8 50.7 330.55 51.35 329.85 51.65 329.05 51.55 328.65 51.05" fill="#1d8487" fill-rule="evenodd" stroke="none"/>
      <path d="M211.7 50.75 L211.35 51.4 210.45 51.7 Q209.15 51.7 209.15 50.75 209.15 50.35 209.5 50.1 209.9 49.8 210.4 49.8 L211.3 50.05 Q211.7 50.35 211.7 50.75" fill="#1d8487" fill-rule="evenodd" stroke="none"/>
      <path d="M207.45 46.75 Q207.45 47.15 207.1 47.4 L206.15 47.7 Q204.95 47.7 204.85 46.75 204.85 46.35 205.25 46.1 205.65 45.8 206.15 45.8 L207.05 46.05 Q207.45 46.35 207.45 46.75" fill="#1d8487" fill-rule="evenodd" stroke="none"/>
      <path d="M206.8 48.9 Q207.65 49.35 207.7 50.05 207.75 50.75 207.0 51.35 206.2 51.95 205.1 52.0 204.0 52.1 203.2 51.6 202.4 51.15 202.35 50.45 202.3 49.7 203.05 49.15 203.75 48.6 204.9 48.5 L206.8 48.9" fill="#1d8487" fill-rule="evenodd" stroke="none"/>
      <path d="M208.25 48.15 Q208.2 47.85 208.5 47.55 208.75 47.25 209.2 47.2 210.25 47.1 210.4 47.85 210.5 48.6 209.4 48.8 L208.6 48.7 208.25 48.15" fill="#1d8487" fill-rule="evenodd" stroke="none"/>
      <path d="M435.6 55.85 Q435.6 56.65 434.6 56.65 L433.85 56.45 433.55 55.9 Q433.55 55.1 434.55 55.1 435.6 55.1 435.6 55.85" fill="#1d8487" fill-rule="evenodd" stroke="none"/>
      <path d="M432.25 52.55 Q432.25 53.35 431.25 53.35 L430.5 53.1 Q430.2 52.9 430.2 52.55 430.2 51.85 431.25 51.75 432.25 51.75 432.25 52.55" fill="#1d8487" fill-rule="evenodd" stroke="none"/>
      <path d="M428.2 55.6 Q428.15 55.0 428.75 54.55 429.35 54.1 430.25 54.0 L431.75 54.3 Q432.4 54.7 432.45 55.3 432.5 55.9 431.9 56.35 431.25 56.85 430.4 56.9 429.55 57.0 428.9 56.6 428.25 56.2 428.2 55.6" fill="#1d8487" fill-rule="evenodd" stroke="none"/>
      <path d="M432.85 53.7 Q432.8 53.45 433.05 53.2 433.3 53.0 433.65 52.95 L434.25 53.05 434.55 53.45 Q434.65 54.05 433.8 54.25 432.95 54.35 432.85 53.7" fill="#1d8487" fill-rule="evenodd" stroke="none"/>
      <path d="M440.05 37.5 Q440.4 38.2 439.5 38.65 438.6 39.1 438.25 38.45 437.95 37.8 438.75 37.25 L439.5 37.15 440.05 37.5" fill="#1d8487" fill-rule="evenodd" stroke="none"/>
      <path d="M435.55 36.05 Q435.9 36.75 435.0 37.2 L434.25 37.35 433.75 37.0 Q433.4 36.3 434.3 35.85 L435.05 35.75 435.55 36.05" fill="#1d8487" fill-rule="evenodd" stroke="none"/>
      <path d="M433.35 40.6 Q433.05 40.1 433.35 39.4 433.65 38.7 434.4 38.25 435.15 37.8 435.9 37.85 436.65 37.9 436.95 38.45 437.25 38.95 436.95 39.65 L435.9 40.8 Q435.15 41.25 434.4 41.2 433.65 41.15 433.35 40.6" fill="#1d8487" fill-rule="evenodd" stroke="none"/>
      <path d="M436.65 36.85 L436.6 36.3 436.95 35.8 438.0 35.85 Q438.35 36.35 437.7 36.9 L436.65 36.85" fill="#1d8487" fill-rule="evenodd" stroke="none"/>
      <path d="M377.5 43.05 Q377.45 42.6 377.8 42.25 378.15 41.9 378.75 41.8 L379.75 41.95 Q380.2 42.2 380.25 42.6 380.35 43.05 379.95 43.4 379.6 43.8 379.0 43.85 L378.0 43.7 Q377.55 43.45 377.5 43.05" fill="#1d8487" fill-rule="evenodd" stroke="none"/>
      <path d="M293.15 44.4 Q293.15 43.45 294.5 42.75 295.85 42.1 297.75 42.1 299.65 42.15 301.0 42.85 302.35 43.5 302.35 44.45 302.35 45.4 301.0 46.1 299.65 46.75 297.75 46.75 295.85 46.75 294.5 46.05 293.15 45.35 293.15 44.4" fill="#1d8487" fill-rule="evenodd" stroke="none"/>
      <path d="M337.75 43.1 Q337.9 42.3 338.8 41.9 L340.8 41.7 Q341.95 41.95 342.6 42.65 343.3 43.4 343.15 44.2 343.0 45.0 342.1 45.45 L340.1 45.6 Q338.95 45.4 338.3 44.65 337.6 43.9 337.75 43.1" fill="#1d8487" fill-rule="evenodd" stroke="none"/>
      <path d="M143.45 1.45 Q143.6 0.65 144.5 0.25 L146.5 0.05 148.25 1.0 Q148.95 1.75 148.8 2.55 148.65 3.4 147.75 3.8 L145.75 4.0 Q144.65 3.8 144.0 3.05 143.3 2.25 143.45 1.45" fill="#1d8487" fill-rule="evenodd" stroke="none"/>
      <path d="M266.95 14.1 Q267.05 13.45 267.8 13.15 L269.45 13.05 Q270.4 13.25 270.95 13.8 271.5 14.35 271.4 15.0 271.3 15.65 270.55 15.95 L268.9 16.05 Q268.0 15.85 267.4 15.3 266.85 14.75 266.95 14.1" fill="#1d8487" fill-rule="evenodd" stroke="none"/>
      <path d="M219.75 20.05 Q219.85 19.5 220.5 19.2 L221.9 19.1 Q222.7 19.3 223.2 19.8 223.65 20.3 223.55 20.8 223.5 21.35 222.85 21.6 L221.45 21.7 Q220.65 21.55 220.15 21.05 219.65 20.6 219.75 20.05" fill="#1d8487" fill-rule="evenodd" stroke="none"/>
      <path d="M6.2 19.65 Q6.3 19.1 6.95 18.8 L8.35 18.7 Q9.15 18.9 9.65 19.4 10.15 19.9 10.05 20.4 9.95 20.95 9.3 21.2 L7.9 21.3 Q7.1 21.15 6.6 20.65 6.15 20.2 6.2 19.65" fill="#1d8487" fill-rule="evenodd" stroke="none"/>
      <path d="M225.35 18.05 Q225.45 17.4 226.2 17.1 L227.85 16.95 Q228.75 17.15 229.35 17.75 229.9 18.3 229.8 18.95 229.7 19.6 228.95 19.9 L227.3 20.0 Q226.35 19.8 225.8 19.25 225.2 18.7 225.35 18.05" fill="#1d8487" fill-rule="evenodd" stroke="none"/>
      <path d="M317.6 43.65 Q317.5 43.0 318.05 42.45 318.65 41.9 319.55 41.7 L321.25 41.9 Q322.0 42.2 322.05 42.8 322.15 43.45 321.6 44.0 321.0 44.6 320.05 44.75 L318.4 44.6 Q317.7 44.3 317.6 43.65" fill="#1d8487" fill-rule="evenodd" stroke="none"/>
      <path d="M266.35 33.55 Q267.35 33.5 268.05 34.1 268.85 34.75 268.55 35.8 269.6 34.95 270.8 35.2 271.85 35.5 272.35 36.35 272.9 37.25 272.2 37.85 271.45 38.6 269.35 38.45 273.05 40.65 270.7 41.65 L268.8 41.7 Q267.65 41.3 267.25 40.25 267.35 41.15 266.8 41.7 266.15 42.35 264.95 42.05 263.7 41.75 263.3 40.95 262.8 39.9 264.35 38.85 261.05 38.65 261.95 36.55 262.9 34.5 265.75 36.25 264.7 35.05 265.0 34.25 265.3 33.6 266.35 33.55 M266.75 35.75 Q266.95 36.3 266.75 36.55 266.25 37.25 265.3 37.2 L263.55 37.15 264.55 37.4 265.5 37.7 265.0 37.7 Q266.2 37.85 265.85 39.05 L265.15 40.7 265.65 40.05 266.2 39.45 Q266.45 39.25 267.1 39.15 267.8 39.05 267.75 39.45 L267.85 39.1 269.25 40.25 268.45 39.1 268.5 38.15 Q268.65 37.45 268.9 37.25 L269.7 36.9 270.5 36.65 269.0 36.85 Q267.9 37.0 267.4 36.25 L266.5 34.9 266.75 35.75" fill="#1d8487" fill-rule="evenodd" stroke="none"/>
      <path d="M267.1 38.55 L266.6 38.3 266.45 37.85 Q266.55 37.25 267.25 37.35 268.0 37.45 267.9 38.05 267.8 38.65 267.1 38.55" fill="#1d8487" fill-rule="evenodd" stroke="none"/>
      <path d="M239.3 52.9 L238.35 53.1 Q237.6 53.25 237.25 52.8 L236.6 51.95 236.8 52.5 236.85 53.0 Q236.55 53.5 235.95 53.5 L234.8 53.6 235.45 53.7 236.1 53.85 235.75 53.9 Q236.55 53.9 236.35 54.75 L236.0 55.85 236.65 54.95 Q236.85 54.8 237.2 54.75 237.65 54.65 237.65 54.9 L237.7 54.65 238.65 55.35 238.1 54.6 Q238.0 54.4 238.05 54.0 L238.3 53.35 238.8 53.1 239.3 52.9 M240.5 52.6 Q241.55 54.1 238.65 54.15 241.15 55.4 239.65 56.2 238.1 57.05 237.35 55.45 L237.1 56.4 Q236.75 56.9 235.95 56.75 235.1 56.6 234.8 56.1 234.45 55.45 235.4 54.7 233.25 54.75 233.7 53.3 234.2 51.85 236.15 52.9 234.6 51.35 236.45 51.1 238.35 50.85 237.95 52.45 239.45 51.05 240.5 52.6" fill="#1d8487" fill-rule="evenodd" stroke="none"/>
      <path d="M237.2 54.3 Q236.7 54.3 236.7 53.9 236.7 53.5 237.2 53.5 237.7 53.6 237.65 53.95 237.65 54.4 237.2 54.3" fill="#1d8487" fill-rule="evenodd" stroke="none"/>
      <path d="M309.2 30.95 Q308.25 30.95 307.6 31.3 306.4 29.6 307.0 28.45 307.5 27.5 308.8 27.4 310.15 27.35 310.8 28.25 311.55 29.35 310.65 31.2 L309.2 30.95" fill="#1d8487" fill-rule="evenodd" stroke="none"/>
      <path d="M306.1 33.6 Q303.8 33.55 302.85 32.6 302.1 31.75 302.65 30.8 303.25 29.85 304.55 29.85 306.05 29.85 307.55 31.3 306.05 32.15 306.05 33.5 L306.1 33.6" fill="#1d8487" fill-rule="evenodd" stroke="none"/>
      <path d="M312.35 33.2 Q312.1 31.8 310.65 31.2 311.85 29.45 313.4 29.25 314.75 29.1 315.5 30.0 316.25 30.9 315.6 31.8 314.8 32.9 312.35 33.2" fill="#1d8487" fill-rule="evenodd" stroke="none"/>
      <path d="M309.2 36.0 Q310.2 36.0 311.1 35.5 312.3 37.15 311.75 38.3 311.25 39.3 309.95 39.4 308.65 39.5 308.0 38.6 307.2 37.55 308.0 35.8 L309.2 36.0" fill="#1d8487" fill-rule="evenodd" stroke="none"/>
      <path d="M306.1 33.65 Q306.2 35.15 307.9 35.75 306.7 37.35 305.25 37.55 303.95 37.7 303.2 36.8 302.45 35.95 303.1 35.05 303.8 34.0 306.1 33.65" fill="#1d8487" fill-rule="evenodd" stroke="none"/>
      <path d="M312.35 33.25 Q314.8 33.2 315.8 34.15 316.65 35.0 316.1 35.95 315.5 36.95 314.2 36.95 312.65 36.95 311.15 35.45 312.35 34.75 312.35 33.45 L312.35 33.25" fill="#1d8487" fill-rule="evenodd" stroke="none"/>
      <path d="M309.5 34.9 L309.25 35.4 308.6 35.6 Q307.75 35.6 307.75 34.9 307.75 34.2 308.6 34.2 309.5 34.2 309.5 34.9" fill="#1d8487" fill-rule="evenodd" stroke="none"/>
      <path d="M311.65 34.4 L311.4 34.95 310.8 35.15 310.15 34.95 309.9 34.45 310.15 33.95 Q310.45 33.7 310.8 33.7 L311.4 33.9 311.65 34.4" fill="#1d8487" fill-rule="evenodd" stroke="none"/>
      <path d="M311.7 32.55 Q311.7 33.25 310.85 33.25 309.95 33.25 309.95 32.55 L310.2 32.05 310.85 31.85 Q311.7 31.85 311.7 32.55" fill="#1d8487" fill-rule="evenodd" stroke="none"/>
      <path d="M309.6 32.0 Q309.6 32.7 308.7 32.7 L308.1 32.55 307.85 32.05 Q307.85 31.75 308.1 31.55 308.35 31.3 308.7 31.3 L309.35 31.5 309.6 32.0" fill="#1d8487" fill-rule="evenodd" stroke="none"/>
      <path d="M308.15 33.4 Q308.15 34.1 307.3 34.1 306.4 34.1 306.4 33.4 306.4 32.7 307.3 32.7 308.15 32.7 308.15 33.4" fill="#1d8487" fill-rule="evenodd" stroke="none"/>
      <path d="M306.6 39.35 L305.75 39.5 Q305.2 39.3 305.45 38.85 L307.1 37.4 306.6 39.35" fill="#1d8487" fill-rule="evenodd" stroke="none"/>
      <path d="M316.95 32.35 Q317.5 32.35 317.6 32.8 317.7 33.3 317.1 33.4 L314.7 33.15 316.95 32.35" fill="#1d8487" fill-rule="evenodd" stroke="none"/>
      <path d="M304.4 28.6 Q304.0 28.2 304.55 27.95 305.0 27.55 305.4 27.95 L306.4 29.75 304.4 28.6" fill="#1d8487" fill-rule="evenodd" stroke="none"/>
      <path d="M123.3 22.0 Q124.05 23.1 123.15 24.95 L121.7 24.65 120.1 25.0 Q118.9 23.35 119.5 22.2 120.0 21.2 121.3 21.15 122.65 21.1 123.3 22.0" fill="#1d8487" fill-rule="evenodd" stroke="none"/>
      <path d="M118.55 27.3 Q116.25 27.25 115.35 26.3 114.55 25.45 115.15 24.55 115.75 23.6 117.05 23.55 118.55 23.55 120.05 25.05 118.55 25.8 118.55 27.2 L118.55 27.3" fill="#1d8487" fill-rule="evenodd" stroke="none"/>
      <path d="M124.85 26.95 Q124.6 25.55 123.15 24.95 124.35 23.2 125.9 23.0 127.25 22.85 128.0 23.75 128.75 24.65 128.1 25.55 127.3 26.65 124.85 26.95" fill="#1d8487" fill-rule="evenodd" stroke="none"/>
      <path d="M121.7 29.75 L123.6 29.2 Q124.8 30.85 124.25 32.0 123.75 33.0 122.45 33.1 121.15 33.2 120.5 32.35 119.7 31.3 120.5 29.5 L121.7 29.75" fill="#1d8487" fill-rule="evenodd" stroke="none"/>
      <path d="M118.6 27.4 Q118.7 28.8 120.4 29.5 119.2 31.1 117.75 31.25 116.45 31.4 115.7 30.55 114.95 29.7 115.6 28.8 116.3 27.75 118.6 27.4" fill="#1d8487" fill-rule="evenodd" stroke="none"/>
      <path d="M124.85 26.95 Q127.3 26.9 128.3 27.9 129.15 28.7 128.6 29.7 128.0 30.65 126.7 30.7 125.15 30.7 123.65 29.2 124.85 28.35 124.85 27.15 L124.85 26.95" fill="#1d8487" fill-rule="evenodd" stroke="none"/>
      <path d="M121.1 27.9 Q122.0 27.9 122.0 28.6 122.0 29.3 121.1 29.3 120.25 29.3 120.25 28.6 L120.5 28.1 121.1 27.9" fill="#1d8487" fill-rule="evenodd" stroke="none"/>
      <path d="M124.15 28.15 Q124.15 28.85 123.3 28.85 122.4 28.85 122.4 28.15 122.4 27.45 123.3 27.45 124.15 27.45 124.15 28.15" fill="#1d8487" fill-rule="evenodd" stroke="none"/>
      <path d="M124.2 26.3 L123.95 26.8 123.35 27.0 Q122.45 27.0 122.45 26.3 122.45 25.6 123.35 25.6 124.2 25.6 124.2 26.3" fill="#1d8487" fill-rule="evenodd" stroke="none"/>
      <path d="M121.2 25.05 Q122.1 25.05 122.1 25.75 122.1 26.45 121.2 26.45 120.35 26.45 120.35 25.75 120.35 25.05 121.2 25.05" fill="#1d8487" fill-rule="evenodd" stroke="none"/>
      <path d="M120.65 27.1 Q120.65 27.8 119.8 27.8 118.9 27.8 118.9 27.1 L119.15 26.6 119.8 26.4 Q120.65 26.4 120.65 27.1" fill="#1d8487" fill-rule="evenodd" stroke="none"/>
      <path d="M119.1 33.05 Q118.85 33.45 118.25 33.25 117.7 32.95 117.95 32.6 L119.6 31.15 119.1 33.05" fill="#1d8487" fill-rule="evenodd" stroke="none"/>
      <path d="M129.45 26.1 Q130.0 26.0 130.1 26.55 130.2 27.1 129.6 27.1 L127.2 26.85 129.45 26.1" fill="#1d8487" fill-rule="evenodd" stroke="none"/>
      <path d="M116.9 22.35 Q116.55 22.0 117.05 21.65 L117.9 21.7 118.9 23.45 116.9 22.35" fill="#1d8487" fill-rule="evenodd" stroke="none"/>
    </g>
    <g id="sprite0" transform="matrix(1.0, 0.0, 0.0, 1.0, 0.0, 0.0)">
      <use height="5.2" transform="matrix(1.4231, 0.0, 0.0, 1.4808, 0.0, 0.0)" width="15.6" xlink:href="#shape1"/>
    </g>
    <g id="shape1" transform="matrix(1.0, 0.0, 0.0, 1.0, 0.0, 0.0)">
      <path d="M15.6 2.6 Q15.6 3.7 13.3 4.45 11.05 5.2 7.8 5.2 4.55 5.2 2.3 4.45 0.0 3.7 0.0 2.6 0.0 1.5 2.3 0.75 4.55 0.0 7.8 0.0 11.05 0.0 13.3 0.75 15.6 1.5 15.6 2.6" fill="#a79578" fill-rule="evenodd" stroke="none"/>
    </g>
    <g id="shape2" transform="matrix(1.0, 0.0, 0.0, 1.0, -147.55, -60.8)">
      <path d="M164.85 63.65 Q164.85 64.8 162.3 65.65 159.75 66.45 156.2 66.45 152.65 66.45 150.1 65.65 147.55 64.8 147.55 63.65 147.55 62.45 150.1 61.65 152.6 60.8 156.2 60.8 159.8 60.8 162.3 61.65 164.85 62.45 164.85 63.65" fill="url(#gradient0)" fill-rule="evenodd" stroke="none"/>
    </g>
    <radialGradient cx="0" cy="0" gradientTransform="matrix(0.0211, 0.0, 0.0, -0.0131, 156.3, 57.6)" gradientUnits="userSpaceOnUse" id="gradient0" r="819.2" spreadMethod="pad">
      <stop offset="0.0" stop-color="#82c492"/>
      <stop offset="0.20784313725490197" stop-color="#4eaba7"/>
      <stop offset="0.592156862745098" stop-color="#257486"/>
      <stop offset="1.0" stop-color="#00140c"/>
    </radialGradient>
    <g id="sprite1" transform="matrix(1.0, 0.0, 0.0, 1.0, 0.0, 0.0)">
      <clipPath id="clipPath0" transform="matrix(1.0, 0.0, 0.0, 1.0, 0.0, 0.0)">
        <use height="3.85" transform="matrix(1.4297, 0.0, 0.0, 1.4675, 0.0, 0.0)" width="12.1" xlink:href="#shape3"/>
      </clipPath>
      <g clip-path="url(#clipPath0)">
        <use height="5.7" transform="matrix(1.0, 0.0, 0.0, 1.0, 1.2, 1.95)" width="14.7" xlink:href="#shape4"/>
      </g>
    </g>
    <g id="shape3" transform="matrix(1.0, 0.0, 0.0, 1.0, 0.0, 0.0)">
      <path d="M12.1 1.9 Q12.1 2.7 10.35 3.3 L6.05 3.85 1.75 3.3 Q0.0 2.7 0.0 1.9 0.0 1.1 1.75 0.55 3.55 0.0 6.05 0.0 8.55 0.0 10.35 0.55 12.1 1.1 12.1 1.9" fill="#ff0000" fill-rule="evenodd" stroke="none"/>
    </g>
    <g id="shape4" transform="matrix(1.0, 0.0, 0.0, 1.0, -1.2, -1.95)">
      <path d="M15.9 4.8 Q15.9 6.0 13.75 6.85 11.6 7.65 8.55 7.65 5.5 7.65 3.35 6.85 1.2 6.0 1.2 4.8 1.2 3.65 3.35 2.8 5.5 1.95 8.55 1.95 11.6 1.95 13.75 2.8 15.9 3.65 15.9 4.8" fill="url(#gradient1)" fill-rule="evenodd" stroke="none"/>
    </g>
    <radialGradient cx="0" cy="0" gradientTransform="matrix(0.0215, 0.0, 0.0, -0.0157, 8.6, -6.05)" gradientUnits="userSpaceOnUse" id="gradient1" r="819.2" spreadMethod="pad">
      <stop offset="0.0" stop-color="#82c492"/>
      <stop offset="0.20784313725490197" stop-color="#4eaba7"/>
      <stop offset="0.592156862745098" stop-color="#245d7e"/>
      <stop offset="1.0" stop-color="#00140c"/>
    </radialGradient>
    <g id="sprite2" transform="matrix(1.0, 0.0, 0.0, 1.0, 0.0, 0.0)">
      <use height="5.2" transform="matrix(0.9968, 0.0, 0.0, 1.2692, 0.0, 0.0)" width="15.6" xlink:href="#shape1"/>
    </g>
    <g id="shape5" transform="matrix(1.0, 0.0, 0.0, 1.0, -272.35, -52.3)">
      <path d="M282.65 53.0 Q284.4 53.7 284.4 54.7 284.4 55.7 282.65 56.45 280.85 57.15 278.35 57.15 275.9 57.15 274.1 56.45 272.35 55.7 272.35 54.7 272.35 53.7 274.1 53.0 275.85 52.3 278.35 52.3 280.85 52.3 282.65 53.0" fill="url(#gradient2)" fill-rule="evenodd" stroke="none"/>
    </g>
    <radialGradient cx="0" cy="0" gradientTransform="matrix(0.0148, 0.0, 0.0, -0.0113, 278.45, 49.55)" gradientUnits="userSpaceOnUse" id="gradient2" r="819.2" spreadMethod="pad">
      <stop offset="0.0" stop-color="#82c492"/>
      <stop offset="0.20784313725490197" stop-color="#4eaba7"/>
      <stop offset="0.592156862745098" stop-color="#257486"/>
      <stop offset="1.0" stop-color="#00140c"/>
    </radialGradient>
    <g id="sprite3" transform="matrix(1.0, 0.0, 0.0, 1.0, 0.0, 0.0)">
      <clipPath id="clipPath1" transform="matrix(1.0, 0.0, 0.0, 1.0, 0.0, 0.0)">
        <use height="3.85" transform="matrix(0.9959, 0.0, 0.0, 1.2597, 0.0, 0.0)" width="12.1" xlink:href="#shape3"/>
      </clipPath>
      <g clip-path="url(#clipPath1)">
        <use height="4.85" transform="matrix(1.0, 0.0, 0.0, 1.0, 0.8, 1.7)" width="10.25" xlink:href="#shape6"/>
      </g>
    </g>
    <g id="shape6" transform="matrix(1.0, 0.0, 0.0, 1.0, -0.8, -1.7)">
      <path d="M11.05 4.15 Q11.05 5.15 9.55 5.85 8.05 6.55 5.95 6.55 3.8 6.55 2.3 5.85 0.8 5.15 0.8 4.15 0.8 3.15 2.3 2.4 3.8 1.7 5.95 1.7 8.05 1.7 9.55 2.4 11.05 3.15 11.05 4.15" fill="url(#gradient3)" fill-rule="evenodd" stroke="none"/>
    </g>
    <radialGradient cx="0" cy="0" gradientTransform="matrix(0.015, 0.0, 0.0, -0.0135, 5.95, -5.2)" gradientUnits="userSpaceOnUse" id="gradient3" r="819.2" spreadMethod="pad">
      <stop offset="0.0" stop-color="#82c492"/>
      <stop offset="0.20784313725490197" stop-color="#4eaba7"/>
      <stop offset="0.592156862745098" stop-color="#245d7e"/>
      <stop offset="1.0" stop-color="#00140c"/>
    </radialGradient>
    <g id="sprite4" transform="matrix(1.0, 0.0, 0.0, 1.0, 0.0, 0.0)">
      <use height="5.2" transform="matrix(0.5673, 0.0, 0.0, 0.6635, 0.0, 0.0)" width="15.6" xlink:href="#shape1"/>
    </g>
    <g id="shape7" transform="matrix(1.0, 0.0, 0.0, 1.0, -137.8, -56.85)">
      <path d="M143.5 58.05 Q143.5 58.55 142.65 58.9 L140.65 59.25 138.65 58.9 Q137.8 58.55 137.8 58.05 137.8 57.55 138.65 57.2 139.45 56.85 140.65 56.85 141.8 56.85 142.65 57.2 143.5 57.55 143.5 58.05" fill="url(#gradient4)" fill-rule="evenodd" stroke="none"/>
    </g>
    <radialGradient cx="0" cy="0" gradientTransform="matrix(0.007, 0.0, 0.0, -0.0055, 140.65, 55.5)" gradientUnits="userSpaceOnUse" id="gradient4" r="819.2" spreadMethod="pad">
      <stop offset="0.0" stop-color="#82c492"/>
      <stop offset="0.20784313725490197" stop-color="#4eaba7"/>
      <stop offset="0.592156862745098" stop-color="#257486"/>
      <stop offset="1.0" stop-color="#00140c"/>
    </radialGradient>
    <g id="sprite5" transform="matrix(1.0, 0.0, 0.0, 1.0, 0.0, 0.0)">
      <clipPath id="clipPath2" transform="matrix(1.0, 0.0, 0.0, 1.0, 0.0, 0.0)">
        <use height="3.85" transform="matrix(0.4711, 0.0, 0.0, 0.6234, 0.0, 0.0)" width="12.1" xlink:href="#shape3"/>
      </clipPath>
      <g clip-path="url(#clipPath2)">
        <use height="2.35" transform="matrix(1.0, 0.0, 0.0, 1.0, 0.4, 0.85)" width="4.85" xlink:href="#shape8"/>
      </g>
    </g>
    <g id="shape8" transform="matrix(1.0, 0.0, 0.0, 1.0, -0.4, -0.85)">
      <path d="M5.25 2.0 Q5.25 2.5 4.55 2.85 L2.8 3.2 Q1.8 3.2 1.1 2.85 0.4 2.5 0.4 2.0 0.4 1.5 1.1 1.2 1.8 0.85 2.8 0.85 3.8 0.85 4.55 1.2 5.25 1.5 5.25 2.0" fill="url(#gradient5)" fill-rule="evenodd" stroke="none"/>
    </g>
    <radialGradient cx="0" cy="0" gradientTransform="matrix(0.0071, 0.0, 0.0, -0.0066, 2.8, -2.55)" gradientUnits="userSpaceOnUse" id="gradient5" r="819.2" spreadMethod="pad">
      <stop offset="0.0" stop-color="#82c492"/>
      <stop offset="0.20784313725490197" stop-color="#4eaba7"/>
      <stop offset="0.592156862745098" stop-color="#245d7e"/>
      <stop offset="1.0" stop-color="#00140c"/>
    </radialGradient>
    <g id="shape9" transform="matrix(1.0, 0.0, 0.0, 1.0, -2.9, -0.4)">
      <path d="M392.15 63.15 Q392.3 62.45 393.1 62.1 L394.85 62.0 Q395.8 62.25 396.4 62.9 397.0 63.55 396.9 64.25 396.75 64.95 395.95 65.3 L394.2 65.45 Q393.25 65.25 392.65 64.55 392.05 63.85 392.15 63.15" fill="#1d8487" fill-rule="evenodd" stroke="none"/>
      <path d="M348.3 16.3 Q348.25 15.7 348.9 15.2 349.5 14.75 350.45 14.65 L352.1 14.95 Q352.75 15.35 352.8 15.95 352.9 16.55 352.25 17.05 L350.65 17.6 349.05 17.3 Q348.35 16.9 348.3 16.3" fill="#1d8487" fill-rule="evenodd" stroke="none"/>
      <path d="M364.55 24.1 Q364.5 23.5 365.15 23.05 365.75 22.6 366.7 22.5 L368.35 22.8 Q369.0 23.15 369.05 23.75 369.15 24.35 368.5 24.85 367.85 25.35 366.9 25.4 L365.3 25.1 Q364.6 24.75 364.55 24.1" fill="#1d8487" fill-rule="evenodd" stroke="none"/>
      <path d="M98.05 51.5 Q98.0 51.1 98.3 50.8 98.65 50.45 99.15 50.35 L100.05 50.5 Q100.45 50.7 100.5 51.1 L100.2 51.85 Q99.9 52.2 99.4 52.25 L98.5 52.15 Q98.1 51.9 98.05 51.5" fill="#1d8487" fill-rule="evenodd" stroke="none"/>
      <path d="M352.85 26.7 Q352.75 26.1 353.6 25.9 354.45 25.8 354.55 26.45 L354.35 26.95 353.8 27.25 353.2 27.15 352.85 26.7" fill="#1d8487" fill-rule="evenodd" stroke="none"/>
      <path d="M395.0 51.0 Q394.9 50.25 395.75 50.05 396.65 49.95 396.75 50.7 396.85 51.4 395.95 51.6 395.1 51.7 395.0 51.0" fill="#1d8487" fill-rule="evenodd" stroke="none"/>
      <path d="M89.15 48.65 Q89.25 49.35 88.35 49.55 87.5 49.65 87.35 48.95 87.25 48.2 88.15 48.0 89.05 47.9 89.15 48.65" fill="#1d8487" fill-rule="evenodd" stroke="none"/>
      <path d="M3.9 16.6 L4.05 16.05 Q4.25 15.8 4.65 15.7 L5.3 15.8 5.65 16.3 5.45 16.9 Q5.25 17.15 4.85 17.2 L4.25 17.1 3.9 16.6" fill="#1d8487" fill-rule="evenodd" stroke="none"/>
      <path d="M77.75 53.7 Q77.65 52.95 78.55 52.75 79.45 52.65 79.55 53.4 79.65 54.1 78.75 54.3 77.9 54.4 77.75 53.7" fill="#1d8487" fill-rule="evenodd" stroke="none"/>
      <path d="M79.0 33.25 Q78.9 32.55 79.75 32.35 L80.4 32.45 80.75 32.95 80.55 33.55 Q80.35 33.8 80.0 33.85 79.1 34.05 79.0 33.25" fill="#1d8487" fill-rule="evenodd" stroke="none"/>
      <path d="M391.2 34.5 Q391.15 34.2 391.35 33.95 391.55 33.7 391.95 33.6 392.85 33.5 392.95 34.2 393.05 34.95 392.15 35.15 391.3 35.25 391.2 34.5" fill="#1d8487" fill-rule="evenodd" stroke="none"/>
      <path d="M360.65 59.85 Q360.6 59.45 360.95 59.1 L361.75 58.7 362.7 58.8 Q363.1 59.05 363.15 59.45 363.2 59.85 362.85 60.2 362.55 60.55 362.05 60.6 L361.15 60.45 Q360.75 60.25 360.65 59.85" fill="#1d8487" fill-rule="evenodd" stroke="none"/>
      <path d="M398.0 41.4 Q397.95 41.0 398.25 40.7 398.6 40.35 399.1 40.25 L400.0 40.35 400.45 41.0 400.2 41.75 399.35 42.15 398.45 42.0 Q398.05 41.8 398.0 41.4" fill="#1d8487" fill-rule="evenodd" stroke="none"/>
      <path d="M380.25 18.0 Q380.2 17.65 380.5 17.35 380.8 17.05 381.3 16.95 L382.2 17.05 382.6 17.6 382.35 18.3 381.55 18.65 Q380.45 18.8 380.25 18.0" fill="#1d8487" fill-rule="evenodd" stroke="none"/>
      <path d="M355.85 51.75 Q355.95 50.85 357.2 50.35 L360.15 50.1 Q361.85 50.35 362.95 51.15 364.1 51.95 364.0 52.85 363.9 53.75 362.6 54.25 L359.65 54.45 Q357.95 54.25 356.85 53.45 355.75 52.65 355.85 51.75" fill="#1d8487" fill-rule="evenodd" stroke="none"/>
      <path d="M198.25 13.6 L197.9 14.25 197.0 14.55 196.1 14.3 Q195.7 14.0 195.7 13.6 195.7 13.2 196.05 12.95 196.45 12.65 197.0 12.65 197.55 12.65 197.9 12.9 L198.25 13.6" fill="#1d8487" fill-rule="evenodd" stroke="none"/>
      <path d="M194.0 9.6 L193.65 10.25 192.75 10.55 191.85 10.3 Q191.45 10.0 191.45 9.6 191.45 9.2 191.8 8.95 192.2 8.65 192.7 8.65 193.25 8.65 193.65 8.9 194.0 9.2 194.0 9.6" fill="#1d8487" fill-rule="evenodd" stroke="none"/>
      <path d="M188.9 13.3 Q188.85 12.55 189.6 12.0 190.35 11.45 191.45 11.35 192.55 11.3 193.4 11.75 194.2 12.2 194.25 12.9 194.3 13.6 193.55 14.2 192.8 14.8 191.7 14.85 L189.75 14.45 Q188.95 14.0 188.9 13.3" fill="#1d8487" fill-rule="evenodd" stroke="none"/>
      <path d="M194.8 11.0 Q194.75 10.65 195.05 10.4 195.35 10.15 195.75 10.05 196.85 9.95 196.95 10.7 L196.7 11.3 196.0 11.65 Q194.9 11.75 194.8 11.0" fill="#1d8487" fill-rule="evenodd" stroke="none"/>
      <path d="M230.45 8.7 Q230.4 8.3 230.7 8.0 231.05 7.6 231.55 7.55 L232.45 7.7 232.9 8.3 232.65 9.05 231.8 9.5 230.9 9.35 Q230.5 9.1 230.45 8.7" fill="#1d8487" fill-rule="evenodd" stroke="none"/>
      <path d="M124.3 15.95 Q124.4 15.05 125.65 14.6 L128.6 14.35 Q130.3 14.6 131.45 15.35 132.55 16.15 132.45 17.05 132.35 17.95 131.1 18.45 L128.15 18.7 Q126.45 18.45 125.35 17.65 124.2 16.85 124.3 15.95" fill="#1d8487" fill-rule="evenodd" stroke="none"/>
      <path d="M367.25 20.3 Q367.05 19.55 368.0 18.7 368.95 17.8 370.5 17.35 L373.3 17.15 Q374.5 17.35 374.7 18.1 374.9 18.9 374.0 19.75 373.05 20.6 371.5 21.1 L368.7 21.3 Q367.5 21.1 367.25 20.3" fill="#1d8487" fill-rule="evenodd" stroke="none"/>
      <path d="M383.7 45.55 Q383.75 44.95 384.4 44.6 L385.85 44.35 Q386.65 44.45 387.2 45.0 387.75 45.5 387.65 46.1 387.6 46.7 386.95 47.05 L385.5 47.25 Q384.7 47.15 384.15 46.65 383.65 46.15 383.7 45.55" fill="#1d8487" fill-rule="evenodd" stroke="none"/>
      <path d="M95.05 41.1 Q95.15 40.35 95.95 39.95 L97.75 39.75 Q98.75 39.95 99.35 40.65 99.95 41.3 99.85 42.1 99.75 42.85 98.95 43.25 L97.15 43.45 Q96.15 43.25 95.5 42.6 94.9 41.9 95.05 41.1" fill="#1d8487" fill-rule="evenodd" stroke="none"/>
      <path d="M84.8 48.65 Q84.75 49.25 84.1 49.55 L82.6 49.7 Q81.8 49.55 81.25 49.0 80.75 48.45 80.8 47.85 80.9 47.3 81.55 47.0 L83.05 46.85 Q83.85 47.0 84.4 47.55 84.9 48.1 84.8 48.65" fill="#1d8487" fill-rule="evenodd" stroke="none"/>
      <path d="M110.1 52.5 Q110.25 51.75 110.55 51.55 L111.35 51.15 112.2 50.85 110.65 51.1 Q109.55 51.3 109.0 50.45 L108.05 49.0 108.3 49.9 Q108.5 50.5 108.3 50.8 107.8 51.55 106.85 51.5 L105.0 51.5 106.05 51.75 107.0 52.1 106.5 52.1 Q107.7 52.2 107.35 53.55 L106.7 55.35 107.2 54.65 Q107.5 54.15 107.75 53.95 L108.65 53.65 Q109.4 53.55 109.4 54.0 L109.5 53.55 110.95 54.85 110.1 53.6 110.1 52.5 M106.45 48.3 Q106.75 47.6 107.8 47.55 108.9 47.5 109.6 48.1 110.45 48.8 110.15 49.95 111.25 49.0 112.5 49.3 113.6 49.6 114.15 50.55 114.65 51.5 114.0 52.2 113.2 53.0 111.05 52.85 114.9 55.25 112.45 56.35 L110.5 56.4 Q109.3 56.0 108.85 54.85 108.95 55.8 108.4 56.45 107.7 57.15 106.45 56.85 105.2 56.55 104.75 55.65 104.2 54.55 105.85 53.35 104.3 53.3 103.6 52.45 103.0 51.75 103.35 50.85 104.25 48.55 107.25 50.45 106.15 49.15 106.45 48.3" fill="#1d8487" fill-rule="evenodd" stroke="none"/>
      <path d="M108.7 52.95 Q107.9 52.85 108.0 52.25 108.1 51.55 108.8 51.65 109.6 51.75 109.5 52.4 109.4 53.15 108.7 52.95" fill="#1d8487" fill-rule="evenodd" stroke="none"/>
      <path d="M68.0 49.2 Q67.1 48.7 66.95 47.9 66.75 46.95 68.2 46.4 65.65 45.45 66.8 43.9 67.95 42.35 69.8 44.5 68.6 41.85 70.85 42.4 73.15 43.0 72.1 44.8 L73.95 44.85 Q74.75 45.3 74.95 46.15 75.55 48.55 72.2 47.2 74.6 49.95 72.55 50.25 70.4 50.55 70.15 48.25 70.05 49.0 69.55 49.35 L68.0 49.2 M69.3 45.7 L69.15 45.7 Q69.8 46.1 69.3 46.9 L68.45 48.1 69.0 47.7 69.5 47.3 70.3 47.3 Q70.85 47.35 70.75 47.7 L70.9 47.4 71.75 48.7 71.35 47.55 71.6 46.75 72.1 46.1 73.45 46.0 72.25 45.8 Q71.4 45.7 71.1 44.9 L70.7 43.55 Q70.85 44.7 70.55 45.0 L69.3 45.2 67.95 44.75 69.3 45.7" fill="#1d8487" fill-rule="evenodd" stroke="none"/>
      <path d="M70.4 46.75 Q69.9 46.5 70.05 46.05 70.2 45.55 70.75 45.8 71.3 46.1 71.15 46.55 70.95 47.05 70.4 46.75" fill="#1d8487" fill-rule="evenodd" stroke="none"/>
      <path d="M318.5 24.05 Q318.05 23.65 318.6 22.75 316.9 23.4 316.9 22.1 316.95 20.85 318.75 21.1 317.1 20.3 318.55 19.6 320.0 18.9 320.1 20.25 320.95 18.7 322.15 19.7 323.35 20.6 321.05 21.4 323.4 21.7 322.4 22.75 L320.35 22.8 320.4 23.6 Q320.25 24.1 319.55 24.25 L318.5 24.05 M318.95 21.9 L318.7 22.0 Q319.3 21.8 319.4 22.5 L319.4 23.5 319.65 22.6 Q320.35 21.9 320.45 22.3 L320.45 22.05 321.4 22.35 320.75 21.95 320.55 21.45 Q320.5 21.1 320.6 20.9 L320.95 20.55 321.3 20.25 Q321.0 20.35 320.55 20.7 L319.6 20.75 318.9 20.25 319.2 20.65 319.35 21.05 318.75 21.7 317.85 22.05 318.95 21.9" fill="#1d8487" fill-rule="evenodd" stroke="none"/>
      <path d="M319.95 21.95 Q319.5 22.05 319.45 21.75 319.35 21.45 319.75 21.35 320.15 21.2 320.25 21.55 320.35 21.85 319.95 21.95" fill="#1d8487" fill-rule="evenodd" stroke="none"/>
      <path d="M361.1 17.4 Q361.1 18.05 360.45 18.5 L358.85 18.95 357.2 18.5 Q356.55 18.05 356.55 17.4 356.55 16.75 357.2 16.3 357.9 15.85 358.85 15.85 359.8 15.85 360.45 16.3 361.1 16.75 361.1 17.4 M359.95 17.45 L359.65 16.95 358.85 16.7 Q358.4 16.7 358.1 16.95 357.75 17.15 357.75 17.45 357.75 17.75 358.1 18.0 L358.85 18.2 359.65 18.0 359.95 17.45" fill="#1d8487" fill-rule="evenodd" stroke="none"/>
      <path d="M135.35 23.2 L136.15 23.0 136.45 22.45 136.15 21.95 135.35 21.7 Q134.9 21.7 134.6 21.95 134.25 22.15 134.25 22.45 L134.6 23.0 Q134.9 23.2 135.35 23.2 M133.7 23.5 Q133.05 23.05 133.05 22.4 133.05 21.75 133.7 21.3 134.4 20.85 135.35 20.85 136.3 20.85 136.95 21.3 137.6 21.75 137.6 22.4 137.6 23.05 136.95 23.5 136.3 23.95 135.35 23.95 134.4 23.95 133.7 23.5" fill="#1d8487" fill-rule="evenodd" stroke="none"/>
      <path d="M391.5 12.25 L391.05 7.3 Q390.85 6.45 390.15 5.9 L389.05 4.55 Q388.5 3.35 389.5 2.7 390.45 2.05 391.35 2.95 392.05 3.7 392.1 4.75 L392.2 6.8 392.3 11.6 Q392.3 15.55 391.8 15.55 391.5 15.55 391.5 12.25" fill="#1d8487" fill-rule="evenodd" stroke="none"/>
      <path d="M395.3 5.85 Q394.6 6.4 394.35 7.2 394.05 9.2 393.9 12.2 393.9 15.5 393.65 15.5 393.25 15.5 393.25 11.5 L393.2 9.1 393.4 6.9 393.4 4.75 Q393.35 3.6 394.05 2.9 394.95 2.0 395.95 2.65 396.95 3.3 396.4 4.45 L395.3 5.85" fill="#1d8487" fill-rule="evenodd" stroke="none"/>
      <path d="M396.75 9.45 Q395.6 10.85 395.4 14.3 L395.15 15.35 Q394.95 15.65 394.9 14.9 394.85 14.1 395.1 12.15 395.4 9.7 395.9 8.8 L397.2 6.7 Q398.1 5.65 399.4 5.6 400.7 5.55 400.75 6.8 400.75 8.05 399.55 8.15 L398.0 8.45 Q397.4 8.7 396.75 9.45" fill="#1d8487" fill-rule="evenodd" stroke="none"/>
      <path d="M385.85 5.6 Q387.2 5.65 388.1 6.7 L389.35 8.8 Q389.9 9.7 390.2 12.15 L390.4 14.9 Q390.35 15.65 390.15 15.35 389.95 15.1 389.9 14.3 389.7 10.95 388.55 9.45 387.9 8.65 387.3 8.45 L385.75 8.15 Q384.55 8.05 384.55 6.8 384.55 5.55 385.85 5.6" fill="#1d8487" fill-rule="evenodd" stroke="none"/>
      <path d="M413.25 40.25 Q412.15 40.25 411.3 40.9 410.45 41.5 410.3 42.4 L408.9 42.4 Q408.95 41.1 410.2 40.15 411.45 39.2 413.25 39.2 415.05 39.2 416.3 40.15 417.55 41.1 417.6 42.4 L416.25 42.4 Q416.1 41.5 415.25 40.9 414.4 40.25 413.25 40.25" fill="#1d8487" fill-rule="evenodd" stroke="none"/>
      <path d="M411.15 42.4 Q411.4 41.8 411.95 41.4 412.55 41.0 413.2 41.0 414.65 41.0 415.2 42.4 L411.15 42.4" fill="#1d8487" fill-rule="evenodd" stroke="none"/>
      <path d="M412.35 38.7 L412.5 38.25 Q412.75 37.75 413.25 37.75 414.05 37.75 414.1 38.7 L412.35 38.7" fill="#1d8487" fill-rule="evenodd" stroke="none"/>
      <path d="M414.35 38.7 L414.65 38.3 Q415.1 37.95 415.55 38.15 416.3 38.4 416.05 39.3 L414.35 38.7" fill="#1d8487" fill-rule="evenodd" stroke="none"/>
      <path d="M416.2 39.45 L416.65 39.2 417.5 39.25 Q418.1 39.75 417.55 40.55 L416.2 39.45" fill="#1d8487" fill-rule="evenodd" stroke="none"/>
      <path d="M417.65 40.65 L418.15 40.65 Q418.7 40.8 418.85 41.25 419.1 42.0 418.2 42.35 L417.65 40.65" fill="#1d8487" fill-rule="evenodd" stroke="none"/>
      <path d="M412.1 38.7 L410.4 39.3 410.35 38.8 Q410.45 38.25 410.9 38.1 411.65 37.85 412.1 38.7" fill="#1d8487" fill-rule="evenodd" stroke="none"/>
      <path d="M410.25 39.4 L408.85 40.5 408.7 40.05 Q408.6 39.55 408.95 39.25 409.55 38.75 410.25 39.4" fill="#1d8487" fill-rule="evenodd" stroke="none"/>
      <path d="M408.75 40.65 L408.25 42.35 Q407.35 42.0 407.6 41.25 407.75 40.8 408.25 40.65 L408.75 40.65" fill="#1d8487" fill-rule="evenodd" stroke="none"/>
      <path d="M213.3 1.85 Q215.1 1.85 216.35 2.8 217.6 3.75 217.65 5.1 L216.3 5.1 Q216.15 4.15 215.3 3.55 214.45 2.9 213.3 2.9 212.2 2.9 211.35 3.55 210.5 4.15 210.35 5.1 L208.95 5.1 Q209.0 3.75 210.25 2.8 211.5 1.85 213.3 1.85" fill="#1d8487" fill-rule="evenodd" stroke="none"/>
      <path d="M211.2 5.1 Q211.45 4.5 212.0 4.1 212.6 3.65 213.25 3.65 214.7 3.65 215.25 5.1 L211.2 5.1" fill="#1d8487" fill-rule="evenodd" stroke="none"/>
      <path d="M212.4 1.35 L212.55 0.9 Q212.8 0.4 213.3 0.4 214.1 0.4 214.15 1.35 L212.4 1.35" fill="#1d8487" fill-rule="evenodd" stroke="none"/>
      <path d="M214.4 1.4 L214.7 1.0 215.6 0.8 Q216.35 1.05 216.1 2.0 L214.4 1.4" fill="#1d8487" fill-rule="evenodd" stroke="none"/>
      <path d="M216.25 2.1 L216.7 1.85 217.55 1.95 Q218.15 2.45 217.6 3.2 L216.25 2.1" fill="#1d8487" fill-rule="evenodd" stroke="none"/>
      <path d="M217.7 3.35 L218.2 3.35 Q218.75 3.45 218.9 3.95 219.15 4.7 218.25 5.05 L217.7 3.35" fill="#1d8487" fill-rule="evenodd" stroke="none"/>
      <path d="M212.15 1.35 L210.45 1.95 210.4 1.45 Q210.5 0.9 210.95 0.75 211.7 0.5 212.15 1.35" fill="#1d8487" fill-rule="evenodd" stroke="none"/>
      <path d="M210.3 2.05 L208.9 3.2 208.75 2.75 Q208.65 2.2 209.0 1.9 209.6 1.4 210.3 2.05" fill="#1d8487" fill-rule="evenodd" stroke="none"/>
      <path d="M208.8 3.3 L208.3 5.0 Q207.4 4.65 207.65 3.9 207.85 3.15 208.8 3.3" fill="#1d8487" fill-rule="evenodd" stroke="none"/>
      <path d="M410.6 35.35 Q410.65 35.9 410.05 36.3 409.45 36.75 408.6 36.8 L407.05 36.55 Q406.4 36.25 406.35 35.7 406.3 35.15 406.9 34.75 407.5 34.3 408.35 34.2 L409.9 34.45 Q410.55 34.8 410.6 35.35" fill="#1d8487" fill-rule="evenodd" stroke="none"/>
      <path d="M334.65 3.5 Q334.55 2.8 335.4 2.7 336.25 2.6 336.35 3.2 336.45 3.9 335.6 4.0 334.75 4.1 334.65 3.5" fill="#1d8487" fill-rule="evenodd" stroke="none"/>
      <path d="M145.15 8.8 L145.35 8.3 Q145.6 8.1 145.95 8.05 L146.6 8.15 146.9 8.55 Q147.0 9.25 146.15 9.35 145.25 9.45 145.15 8.8" fill="#1d8487" fill-rule="evenodd" stroke="none"/>
      <path d="M201.95 61.35 Q202.8 61.5 203.35 62.0 203.9 62.55 203.8 63.1 L203.0 63.95 201.4 64.05 Q200.5 63.9 199.95 63.4 199.45 62.85 199.55 62.3 199.65 61.75 200.35 61.45 L201.95 61.35" fill="#1d8487" fill-rule="evenodd" stroke="none"/>
      <path d="M202.0 58.3 Q202.35 58.05 202.85 58.1 203.35 58.1 203.7 58.35 L204.05 58.9 Q203.95 59.7 202.8 59.6 L201.95 59.35 Q201.6 59.15 201.65 58.8 201.65 58.5 202.0 58.3" fill="#1d8487" fill-rule="evenodd" stroke="none"/>
      <path d="M303.95 10.05 Q304.05 10.65 303.15 10.85 L302.45 10.75 302.1 10.35 Q302.05 10.1 302.3 9.85 L302.95 9.6 Q303.85 9.4 303.95 10.05" fill="#1d8487" fill-rule="evenodd" stroke="none"/>
      <path d="M305.0 17.05 Q304.8 17.75 303.95 18.05 303.1 18.3 302.1 18.05 301.1 17.75 300.55 17.05 299.95 16.35 300.15 15.65 300.4 14.95 301.25 14.7 302.1 14.4 303.05 14.7 304.05 15.0 304.65 15.7 305.2 16.35 305.0 17.05" fill="#1d8487" fill-rule="evenodd" stroke="none"/>
      <path d="M292.5 14.8 L292.8 14.8 Q292.0 14.75 292.25 13.8 L292.7 12.55 292.0 13.5 291.4 13.75 Q290.9 13.85 290.9 13.55 L290.85 13.85 289.9 13.0 290.4 13.85 290.4 14.55 290.1 15.25 289.55 15.55 289.0 15.75 290.05 15.55 Q290.8 15.4 291.15 15.95 L291.8 16.95 291.6 16.35 Q291.5 15.9 291.65 15.7 292.0 15.2 292.6 15.2 L293.8 15.2 292.5 14.8 M291.6 11.85 Q292.05 11.35 292.85 11.5 293.7 11.7 294.0 12.3 294.35 13.05 293.25 13.9 295.6 13.95 294.95 15.55 294.3 17.15 292.3 15.9 293.85 17.75 291.9 17.9 289.9 18.1 290.4 16.3 288.75 17.85 287.75 16.0 286.75 14.2 289.8 14.35 287.25 12.8 288.9 11.95 290.6 11.1 291.25 12.95 291.2 12.3 291.6 11.85" fill="#1d8487" fill-rule="evenodd" stroke="none"/>
      <path d="M291.35 14.2 Q291.9 14.3 291.8 14.7 291.8 15.2 291.25 15.1 290.8 15.1 290.8 14.6 290.9 14.2 291.35 14.2" fill="#1d8487" fill-rule="evenodd" stroke="none"/>
      <path d="M295.55 9.85 Q295.6 9.25 296.3 8.85 297.0 8.45 297.95 8.5 298.95 8.6 299.6 9.0 300.25 9.45 300.2 10.05 300.15 10.65 299.45 11.05 L297.8 11.35 Q296.85 11.3 296.15 10.85 295.5 10.4 295.55 9.85" fill="#1d8487" fill-rule="evenodd" stroke="none"/>
      <path d="M305.8 14.05 Q305.7 13.25 306.8 13.05 L307.6 13.15 308.0 13.7 Q308.1 14.05 307.8 14.35 L307.05 14.7 306.25 14.6 305.8 14.05" fill="#1d8487" fill-rule="evenodd" stroke="none"/>
      <path d="M205.25 56.75 Q205.2 56.4 205.5 56.1 205.8 55.85 206.3 55.75 L207.2 55.85 Q207.6 56.05 207.65 56.4 L207.4 57.05 206.6 57.4 205.7 57.3 205.25 56.75" fill="#1d8487" fill-rule="evenodd" stroke="none"/>
      <path d="M422.7 59.55 L422.4 60.1 421.6 60.35 Q420.45 60.35 420.45 59.6 420.45 58.9 421.55 58.8 422.6 58.8 422.7 59.55" fill="#1d8487" fill-rule="evenodd" stroke="none"/>
      <path d="M418.95 56.35 L418.65 56.9 417.85 57.15 Q416.8 57.15 416.7 56.4 416.7 56.1 417.05 55.85 417.35 55.65 417.8 55.6 418.3 55.6 418.6 55.85 L418.95 56.35" fill="#1d8487" fill-rule="evenodd" stroke="none"/>
      <path d="M414.55 59.4 Q414.5 58.8 415.15 58.35 415.8 57.9 416.75 57.8 L418.45 58.1 Q419.15 58.45 419.2 59.05 419.25 59.65 418.6 60.1 L416.95 60.65 415.3 60.35 Q414.6 60.0 414.55 59.4" fill="#1d8487" fill-rule="evenodd" stroke="none"/>
      <path d="M419.65 57.5 Q419.55 56.85 420.5 56.7 421.4 56.6 421.5 57.2 421.6 57.85 420.65 58.0 L420.0 57.9 419.65 57.5" fill="#1d8487" fill-rule="evenodd" stroke="none"/>
      <path d="M12.0 60.7 Q12.05 61.05 11.7 61.3 L10.8 61.6 9.9 61.35 9.5 60.75 Q9.5 60.4 9.85 60.1 10.25 59.85 10.75 59.85 12.0 59.85 12.0 60.7" fill="#1d8487" fill-rule="evenodd" stroke="none"/>
      <path d="M7.85 57.1 L7.5 57.7 6.6 58.0 5.7 57.75 Q5.35 57.5 5.35 57.15 5.3 56.8 5.7 56.5 6.05 56.25 6.55 56.25 L7.45 56.5 Q7.85 56.75 7.85 57.1" fill="#1d8487" fill-rule="evenodd" stroke="none"/>
      <path d="M2.9 60.5 Q2.85 59.85 3.55 59.35 4.25 58.8 5.35 58.7 6.45 58.65 7.25 59.05 8.05 59.45 8.1 60.1 8.15 60.8 7.4 61.3 6.7 61.85 5.6 61.9 L3.75 61.6 Q2.95 61.15 2.9 60.5" fill="#1d8487" fill-rule="evenodd" stroke="none"/>
      <path d="M8.6 58.4 Q8.5 57.7 9.55 57.5 10.6 57.35 10.7 58.05 10.8 58.8 9.75 58.95 8.8 59.05 8.6 58.4" fill="#1d8487" fill-rule="evenodd" stroke="none"/>
      <path d="M382.25 25.15 Q381.15 25.15 381.15 25.9 381.15 26.6 382.25 26.6 383.35 26.6 383.35 25.9 383.35 25.15 382.25 25.15 M383.85 24.75 Q384.5 25.2 384.5 25.85 384.5 26.5 383.85 26.9 L382.2 27.35 Q381.25 27.35 380.6 26.9 379.9 26.5 379.9 25.85 379.9 25.2 380.6 24.75 381.25 24.3 382.2 24.3 383.15 24.3 383.85 24.75" fill="#1d8487" fill-rule="evenodd" stroke="none"/>
      <path d="M393.15 23.6 Q392.25 23.6 392.25 24.25 392.25 24.9 393.15 24.9 394.05 24.9 394.05 24.25 394.05 23.6 393.15 23.6 M392.75 21.15 Q394.55 21.0 394.15 22.6 L394.35 22.7 Q395.85 21.45 396.85 22.55 397.85 23.7 395.6 24.2 L395.6 24.35 Q397.95 24.6 397.15 25.8 L394.6 25.85 394.45 25.95 Q395.3 27.55 393.4 27.65 391.55 27.75 392.1 26.05 L391.95 25.95 Q390.45 27.4 389.4 26.2 388.35 25.0 390.8 24.55 L390.8 24.45 Q388.3 24.25 389.05 23.0 L391.6 22.95 391.8 22.85 Q390.95 21.3 392.75 21.15" fill="#1d8487" fill-rule="evenodd" stroke="none"/>
      <path d="M400.55 16.85 Q400.6 16.4 401.1 16.1 401.6 15.75 402.25 15.8 L403.4 16.15 403.85 16.95 Q403.8 17.45 403.3 17.75 L402.15 18.05 401.0 17.7 Q400.55 17.35 400.55 16.85" fill="#1d8487" fill-rule="evenodd" stroke="none"/>
      <path d="M66.35 15.95 Q66.95 16.05 67.3 16.55 67.65 15.75 68.55 15.85 69.4 15.95 69.65 16.75 70.1 16.4 70.6 16.45 71.15 16.5 71.5 16.9 71.85 17.35 71.8 17.85 L71.7 18.25 Q73.15 19.0 73.1 19.75 73.05 20.6 71.45 21.0 L71.5 21.45 Q71.45 22.0 71.05 22.3 L70.15 22.55 Q69.55 22.55 69.2 22.0 68.75 22.8 67.95 22.7 67.05 22.6 66.8 21.8 66.35 22.15 65.85 22.1 65.3 22.05 64.95 21.65 64.6 21.2 64.65 20.7 L64.75 20.35 Q63.35 19.6 63.45 18.85 63.5 18.05 65.0 17.65 L64.95 17.1 Q65.0 16.6 65.4 16.25 65.8 15.9 66.35 15.95 M68.4 18.2 L66.2 18.3 Q65.3 18.55 65.25 19.0 65.2 19.5 66.1 19.9 L68.25 20.4 70.45 20.3 Q71.35 20.05 71.4 19.6 71.45 19.15 70.55 18.75 L68.4 18.2" fill="#1d8487" fill-rule="evenodd" stroke="none"/>
      <path d="M69.35 19.4 L69.05 20.1 68.3 20.3 67.6 19.95 Q67.3 19.6 67.35 19.2 67.4 18.8 67.7 18.55 68.05 18.25 68.45 18.3 L69.15 18.65 69.35 19.4" fill="#1d8487" fill-rule="evenodd" stroke="none"/>
      <path d="M32.1 31.85 Q32.05 32.4 30.55 33.1 29.1 33.8 28.35 33.7 L26.2 33.05 Q24.65 32.4 24.65 31.85 24.65 31.4 26.2 30.65 27.65 29.9 28.35 29.95 29.2 30.05 30.65 30.75 32.15 31.5 32.1 31.85" fill="#1d8487" fill-rule="evenodd" stroke="none"/>
      <path d="M37.7 29.4 Q37.65 29.85 36.25 30.4 L34.2 30.95 32.2 30.4 Q30.75 29.85 30.75 29.4 30.75 29.0 32.2 28.4 33.55 27.8 34.2 27.85 34.95 27.9 36.35 28.5 37.7 29.15 37.7 29.4" fill="#1d8487" fill-rule="evenodd" stroke="none"/>
      <path d="M38.3 34.65 Q38.25 35.2 36.65 35.95 L34.3 36.6 31.9 35.95 Q30.25 35.25 30.25 34.65 30.25 34.2 31.9 33.4 33.55 32.6 34.3 32.65 35.15 32.75 36.75 33.5 38.4 34.3 38.3 34.65" fill="#1d8487" fill-rule="evenodd" stroke="none"/>
      <path d="M44.25 32.05 Q44.2 32.55 42.65 33.25 L40.45 33.85 Q39.65 33.8 38.2 33.2 36.6 32.55 36.6 32.05 36.6 31.6 38.2 30.9 39.75 30.15 40.45 30.2 41.3 30.3 42.8 31.0 44.3 31.7 44.25 32.05" fill="#1d8487" fill-rule="evenodd" stroke="none"/>
      <path d="M109.8 19.75 Q109.75 20.45 108.8 20.8 L106.55 21.0 Q105.25 20.85 104.35 20.25 103.5 19.7 103.55 19.0 103.65 18.3 104.6 17.9 L106.85 17.7 Q108.15 17.9 109.0 18.5 109.9 19.1 109.8 19.75" fill="#1d8487" fill-rule="evenodd" stroke="none"/>
      <path d="M47.5 30.35 Q47.45 29.95 47.7 29.6 48.0 29.3 48.5 29.2 L49.3 29.35 49.75 29.95 49.5 30.7 Q49.2 31.05 48.75 31.1 L47.9 30.95 Q47.55 30.75 47.5 30.35" fill="#1d8487" fill-rule="evenodd" stroke="none"/>
      <path d="M44.55 27.05 Q44.45 26.35 45.35 26.15 46.25 26.05 46.35 26.75 46.45 27.45 45.55 27.65 44.75 27.8 44.55 27.05" fill="#1d8487" fill-rule="evenodd" stroke="none"/>
      <path d="M182.65 22.15 Q182.6 21.15 183.8 20.4 184.95 19.65 186.65 19.55 188.35 19.45 189.55 20.1 190.75 20.75 190.8 21.75 190.85 22.75 189.7 23.55 188.55 24.3 186.85 24.4 185.15 24.5 183.95 23.8 182.75 23.15 182.65 22.15" fill="#1d8487" fill-rule="evenodd" stroke="none"/>
      <path d="M65.55 28.0 Q65.5 27.4 66.0 26.9 66.5 26.35 67.3 26.2 L68.8 26.3 Q69.45 26.6 69.55 27.2 69.65 27.75 69.15 28.3 68.65 28.8 67.8 29.0 L66.3 28.85 Q65.65 28.55 65.55 28.0" fill="#1d8487" fill-rule="evenodd" stroke="none"/>
      <path d="M50.2 40.5 L49.95 40.55 Q50.65 40.55 50.5 41.3 L50.15 42.35 50.7 41.5 Q50.9 41.35 51.2 41.3 51.6 41.2 51.6 41.45 L51.65 41.2 52.5 41.85 52.0 41.2 Q51.9 41.0 51.95 40.6 L52.15 40.0 53.1 39.55 52.2 39.8 Q51.6 39.95 51.25 39.5 L50.65 38.75 50.85 39.25 50.85 39.7 50.1 40.2 49.05 40.25 50.2 40.5 M50.25 39.6 Q48.85 38.2 50.5 37.95 52.15 37.7 51.9 39.15 53.15 37.8 54.15 39.3 55.05 40.7 52.5 40.75 54.75 41.85 53.45 42.6 52.05 43.4 51.35 41.95 51.45 42.5 51.15 42.85 50.8 43.3 50.1 43.2 49.35 43.1 49.1 42.65 48.75 42.05 49.6 41.3 47.65 41.35 48.1 40.0 48.5 38.7 50.25 39.6" fill="#1d8487" fill-rule="evenodd" stroke="none"/>
      <path d="M51.2 40.9 Q50.75 40.9 50.75 40.55 50.85 40.15 51.2 40.2 51.7 40.2 51.6 40.55 51.6 40.9 51.2 40.9" fill="#1d8487" fill-rule="evenodd" stroke="none"/>
      <path d="M58.0 22.2 Q58.05 22.75 57.7 23.05 57.3 23.45 56.6 23.25 L55.7 22.55 Q55.4 21.9 56.35 21.3 54.4 21.1 55.0 19.85 55.55 18.55 57.2 19.7 55.95 18.1 57.6 18.1 59.3 18.1 58.85 19.55 60.25 18.35 61.05 19.95 61.8 21.5 59.25 21.15 61.4 22.6 60.0 23.15 58.55 23.75 58.0 22.2 M58.75 21.55 L58.75 20.95 59.05 20.4 59.7 20.15 59.1 20.2 Q58.45 20.25 58.2 19.8 L57.7 18.9 57.85 19.45 57.8 19.95 Q57.5 20.35 56.95 20.3 L55.95 20.2 57.05 20.6 56.75 20.6 Q57.45 20.7 57.2 21.45 L56.8 22.4 57.05 22.05 57.4 21.7 57.95 21.55 Q58.35 21.5 58.35 21.75 L58.4 21.5 59.15 22.25 58.75 21.55" fill="#1d8487" fill-rule="evenodd" stroke="none"/>
      <path d="M57.95 21.15 Q57.5 21.05 57.6 20.7 57.6 20.35 58.05 20.45 L58.45 20.85 Q58.35 21.25 57.95 21.15" fill="#1d8487" fill-rule="evenodd" stroke="none"/>
      <path d="M23.1 16.25 Q24.2 16.25 24.2 15.5 24.2 14.8 23.1 14.8 22.0 14.8 22.0 15.5 22.0 16.25 23.1 16.25 M23.1 13.95 Q24.05 13.95 24.7 14.4 25.4 14.8 25.4 15.45 25.4 16.1 24.7 16.55 L23.1 17.0 21.45 16.55 Q20.8 16.1 20.8 15.45 20.8 14.8 21.45 14.4 22.15 13.95 23.1 13.95" fill="#1d8487" fill-rule="evenodd" stroke="none"/>
      <path d="M14.4 46.05 Q13.25 46.05 12.4 46.7 11.55 47.3 11.4 48.2 L10.0 48.2 Q10.05 46.9 11.3 45.95 12.6 45.0 14.35 45.0 16.15 45.0 17.4 45.95 18.65 46.9 18.7 48.2 L17.35 48.2 Q17.2 47.3 16.35 46.7 15.5 46.05 14.4 46.05" fill="#1d8487" fill-rule="evenodd" stroke="none"/>
      <path d="M12.3 48.2 Q12.5 47.6 13.05 47.2 L14.35 46.8 Q15.75 46.8 16.3 48.2 L12.3 48.2" fill="#1d8487" fill-rule="evenodd" stroke="none"/>
      <path d="M13.45 44.5 L13.6 44.05 Q13.85 43.55 14.35 43.55 15.15 43.55 15.2 44.5 L13.45 44.5" fill="#1d8487" fill-rule="evenodd" stroke="none"/>
      <path d="M15.45 44.5 L15.75 44.1 Q16.2 43.75 16.65 43.95 17.4 44.2 17.15 45.1 L15.45 44.5" fill="#1d8487" fill-rule="evenodd" stroke="none"/>
      <path d="M17.3 45.25 L17.75 45.0 18.6 45.05 Q19.2 45.55 18.7 46.35 L17.3 45.25" fill="#1d8487" fill-rule="evenodd" stroke="none"/>
      <path d="M18.8 46.45 L19.3 46.45 Q19.85 46.6 19.95 47.05 20.2 47.8 19.3 48.2 L18.8 46.45" fill="#1d8487" fill-rule="evenodd" stroke="none"/>
      <path d="M13.2 44.5 L11.5 45.1 11.45 44.6 Q11.55 44.05 12.0 43.9 12.75 43.65 13.2 44.5" fill="#1d8487" fill-rule="evenodd" stroke="none"/>
      <path d="M11.35 45.2 L10.0 46.35 Q9.45 45.55 10.05 45.05 L10.95 44.95 11.35 45.2" fill="#1d8487" fill-rule="evenodd" stroke="none"/>
      <path d="M9.9 46.45 L9.35 48.15 Q8.45 47.8 8.7 47.05 8.85 46.6 9.4 46.45 L9.9 46.45" fill="#1d8487" fill-rule="evenodd" stroke="none"/>
      <path d="M41.25 17.6 Q41.3 18.15 40.7 18.55 40.1 19.0 39.25 19.05 L37.7 18.8 Q37.05 18.5 37.0 17.95 36.95 17.45 37.55 17.0 38.15 16.55 39.0 16.45 L40.55 16.7 Q41.2 17.05 41.25 17.6" fill="#1d8487" fill-rule="evenodd" stroke="none"/>
      <path d="M34.6 13.75 Q34.55 13.4 34.9 13.1 L35.7 12.75 36.6 12.85 37.05 13.4 36.75 14.05 35.95 14.4 35.05 14.3 34.6 13.75" fill="#1d8487" fill-rule="evenodd" stroke="none"/>
      <path d="M18.15 18.7 Q19.85 18.7 19.4 19.95 20.8 18.95 21.55 20.35 22.3 21.65 19.8 21.4 21.85 22.65 20.5 23.15 19.05 23.65 18.55 22.3 18.6 22.8 18.25 23.1 L17.2 23.25 16.3 22.6 Q16.0 22.05 16.95 21.5 15.1 21.35 15.65 20.25 16.2 19.15 17.8 20.15 16.55 18.75 18.15 18.7 M19.65 20.55 Q19.0 20.6 18.75 20.2 L18.25 19.45 18.4 19.9 18.35 20.3 Q18.05 20.65 17.55 20.6 L16.55 20.55 17.6 20.9 17.35 20.9 Q18.0 21.0 17.8 21.65 L17.35 22.5 Q17.7 22.0 18.0 21.85 L18.5 21.75 Q18.9 21.7 18.9 21.9 L18.95 21.7 19.7 22.35 19.3 21.7 19.3 21.2 19.55 20.75 20.05 20.55 20.5 20.45 19.65 20.55" fill="#1d8487" fill-rule="evenodd" stroke="none"/>
      <path d="M18.5 21.4 Q18.15 21.3 18.15 21.0 18.25 20.65 18.6 20.75 L19.0 21.15 Q18.9 21.5 18.5 21.4" fill="#1d8487" fill-rule="evenodd" stroke="none"/>
      <path d="M27.85 54.45 Q27.65 54.8 27.75 55.05 L28.2 55.45 29.0 55.4 Q29.45 55.3 29.7 55.0 L29.85 54.4 Q29.6 53.75 28.55 54.0 L27.85 54.45 M30.9 53.95 Q31.1 54.6 30.65 55.2 30.15 55.85 29.25 56.15 L27.55 56.25 Q26.8 56.0 26.55 55.4 26.35 54.8 26.85 54.15 27.35 53.5 28.25 53.2 L29.95 53.15 Q30.7 53.35 30.9 53.95" fill="#1d8487" fill-rule="evenodd" stroke="none"/>
      <path d="M29.9 59.55 Q29.85 60.15 28.9 60.5 L26.7 60.65 Q25.4 60.5 24.6 60.0 23.75 59.5 23.8 58.9 23.9 58.3 24.85 58.0 L27.05 57.8 Q28.3 57.9 29.15 58.45 30.0 58.95 29.9 59.55" fill="#1d8487" fill-rule="evenodd" stroke="none"/>
      <path d="M31.4 58.0 Q31.35 57.75 31.6 57.5 31.8 57.3 32.15 57.25 32.95 57.1 33.15 57.75 33.25 58.35 32.35 58.55 31.5 58.65 31.4 58.0" fill="#1d8487" fill-rule="evenodd" stroke="none"/>
    </g>
    <g id="sprite6" transform="matrix(1.0, 0.0, 0.0, 1.0, 0.0, 0.0)">
      <use height="5.2" transform="matrix(1.0, 0.0, 0.0, 1.0, 0.0, 0.0)" width="15.6" xlink:href="#shape1"/>
    </g>
    <g id="shape10" transform="matrix(1.0, 0.0, 0.0, 1.0, -36.8, -47.3)">
      <path d="M48.9 49.2 Q48.9 50.0 47.15 50.6 L42.85 51.15 38.55 50.6 Q36.8 50.0 36.8 49.2 36.8 48.4 38.55 47.85 40.35 47.3 42.85 47.3 L47.15 47.85 Q48.9 48.4 48.9 49.2" fill="url(#gradient6)" fill-rule="evenodd" stroke="none"/>
    </g>
    <radialGradient cx="0" cy="0" gradientTransform="matrix(0.0148, 0.0, 0.0, -0.0089, 42.95, 45.15)" gradientUnits="userSpaceOnUse" id="gradient6" r="819.2" spreadMethod="pad">
      <stop offset="0.0" stop-color="#82c492"/>
      <stop offset="0.20784313725490197" stop-color="#4eaba7"/>
      <stop offset="0.592156862745098" stop-color="#257486"/>
      <stop offset="1.0" stop-color="#00140c"/>
    </radialGradient>
    <g id="sprite7" transform="matrix(1.0, 0.0, 0.0, 1.0, 0.0, 0.0)">
      <clipPath id="clipPath3" transform="matrix(1.0, 0.0, 0.0, 1.0, 0.0, 0.0)">
        <use height="3.85" transform="matrix(1.0, 0.0, 0.0, 1.0, 0.0, 0.0)" width="12.1" xlink:href="#shape3"/>
      </clipPath>
      <g clip-path="url(#clipPath3)">
        <use height="3.85" transform="matrix(1.0, 0.0, 0.0, 1.0, 0.85, 1.35)" width="10.3" xlink:href="#shape11"/>
      </g>
    </g>
    <g id="shape11" transform="matrix(1.0, 0.0, 0.0, 1.0, -0.85, -1.35)">
      <path d="M11.15 3.25 Q11.15 4.05 9.65 4.65 L6.0 5.2 2.35 4.65 Q0.85 4.05 0.85 3.25 0.85 2.45 2.35 1.9 3.85 1.35 6.0 1.35 8.15 1.35 9.65 1.9 11.15 2.45 11.15 3.25" fill="url(#gradient7)" fill-rule="evenodd" stroke="none"/>
    </g>
    <radialGradient cx="0" cy="0" gradientTransform="matrix(0.0151, 0.0, 0.0, -0.0106, 6.0, -4.1)" gradientUnits="userSpaceOnUse" id="gradient7" r="819.2" spreadMethod="pad">
      <stop offset="0.0" stop-color="#82c492"/>
      <stop offset="0.20784313725490197" stop-color="#4eaba7"/>
      <stop offset="0.592156862745098" stop-color="#245d7e"/>
      <stop offset="1.0" stop-color="#00140c"/>
    </radialGradient>
  </defs>
</svg>
