<?xml version="1.0" encoding="UTF-8" standalone="no"?>
<svg xmlns:xlink="http://www.w3.org/1999/xlink" height="26.5px" width="208.9px" xmlns="http://www.w3.org/2000/svg">
  <g transform="matrix(1.0, 0.0, 0.0, 1.0, 0.0, 0.0)">
    <use height="26.5" transform="matrix(1.0, 0.0, 0.0, 1.0, 0.0, 0.0)" width="208.9" xlink:href="#shape0"/>
  </g>
  <defs>
    <g id="shape0" transform="matrix(1.0, 0.0, 0.0, 1.0, 0.0, 0.0)">
      <path d="M19.9 5.95 L46.55 6.65 62.55 5.0 Q76.35 3.35 85.25 3.35 85.75 3.35 86.35 3.85 86.95 4.35 87.45 4.35 105.1 4.35 116.85 2.2 L126.5 0.0 127.3 0.15 128.7 0.2 128.8 2.85 131.55 3.0 163.85 2.55 Q165.9 2.55 167.05 1.75 168.2 0.9 168.5 0.9 L172.9 2.4 Q177.05 3.9 178.15 4.0 L192.55 4.5 206.45 4.1 208.9 4.55 208.9 5.6 207.15 5.6 191.9 5.7 178.35 5.15 166.45 4.55 166.35 3.95 Q166.35 3.35 165.0 3.45 L162.9 3.7 153.7 5.2 137.5 6.55 133.5 6.5 126.55 7.25 120.5 8.0 106.55 7.15 Q103.95 7.15 102.25 8.1 100.5 9.05 99.05 9.05 74.65 9.55 67.75 8.2 L68.45 6.6 Q68.55 6.25 67.55 6.25 L61.4 6.8 46.8 7.3 Q28.85 6.75 14.75 6.5 L19.9 5.95 M196.35 8.45 L199.35 9.4 198.2 9.55 197.2 9.4 196.5 9.0 196.2 8.6 196.05 8.35 196.35 8.45 M183.75 11.4 L177.5 11.65 172.8 11.2 171.6 10.85 175.5 10.7 180.4 10.4 184.6 10.45 187.35 10.0 Q189.65 8.5 191.8 7.5 L193.8 8.35 Q193.3 8.85 190.5 9.9 L187.35 11.0 183.75 11.4 M173.85 9.4 L166.6 9.05 173.85 9.35 173.85 9.4 M145.45 10.45 L141.25 11.25 Q137.6 11.55 137.05 10.8 137.3 10.4 138.25 10.25 L144.55 9.75 145.45 10.45 M124.9 10.8 L124.5 10.8 124.15 11.1 Q125.55 11.7 127.4 11.6 126.85 14.1 124.45 14.1 L116.3 13.85 116.15 13.8 Q119.85 13.8 120.55 12.3 L120.65 12.1 118.05 11.35 Q116.3 10.8 115.9 10.45 L115.9 10.05 Q115.95 9.75 116.6 9.75 L122.1 10.35 124.9 10.8 M195.65 14.2 L195.65 14.3 193.85 14.25 192.2 13.85 192.7 13.65 195.65 13.75 195.65 14.2 M56.6 15.7 L53.85 16.0 41.55 15.55 40.4 15.35 45.75 15.05 Q50.7 14.45 51.5 12.5 L58.85 14.9 Q58.2 15.4 56.6 15.7 M66.65 12.85 L66.0 12.6 Q66.45 12.15 68.05 12.15 67.95 12.85 66.65 12.85 M36.2 11.7 L31.75 11.8 Q31.75 11.65 30.75 11.45 L29.95 11.1 45.25 10.4 36.2 11.7 M108.5 13.5 Q108.8 14.15 107.0 14.3 L106.2 14.15 108.45 13.45 108.5 13.5 M109.8 18.95 L110.45 18.2 Q111.0 17.6 111.8 17.4 114.3 16.8 120.25 19.4 L116.1 19.5 110.95 19.25 109.8 18.95 M89.25 15.5 L87.65 15.2 Q86.8 14.9 86.6 14.55 88.8 12.6 96.35 12.15 L96.35 14.55 92.35 15.2 89.25 15.5" fill="#a39a90" fill-rule="evenodd" stroke="none"/>
      <path d="M2.0 9.2 L0.9 8.8 0.0 8.25 Q6.1 6.55 6.45 6.6 L19.9 5.95 14.75 6.5 Q28.85 6.75 46.8 7.3 L61.4 6.8 67.55 6.25 Q68.55 6.25 68.45 6.6 L67.75 8.2 Q74.65 9.55 99.05 9.05 100.5 9.05 102.25 8.1 103.95 7.15 106.55 7.15 L120.5 8.0 126.55 7.25 133.5 6.5 Q134.05 7.3 135.95 7.3 L141.95 6.95 137.5 6.55 153.7 5.2 162.9 3.7 165.0 3.45 Q166.35 3.35 166.35 3.95 L166.45 4.55 178.35 5.15 191.9 5.7 207.15 5.6 Q199.75 14.95 197.75 16.3 194.5 18.5 185.5 18.5 169.8 18.95 165.8 18.15 160.15 17.0 158.95 14.65 L158.15 13.25 Q157.5 12.7 155.75 12.7 141.85 12.7 127.8 18.8 L118.55 22.95 Q114.1 24.85 111.45 24.85 108.4 24.85 105.45 23.0 102.45 21.15 100.25 21.1 L79.8 20.6 66.15 20.35 Q61.4 20.35 58.25 21.25 55.05 22.15 51.1 22.15 42.45 22.15 37.0 19.6 33.9 18.1 32.65 16.3 31.85 15.05 30.6 14.8 L27.15 14.65 Q24.95 14.6 24.25 13.6 L22.95 11.7 23.75 11.85 29.8 11.8 20.95 10.05 21.3 10.9 11.5 9.85 3.4 9.05 2.0 9.2 M199.6 8.95 L201.55 8.7 198.25 8.7 199.6 8.95 M196.2 8.6 L196.5 9.0 197.2 9.4 198.2 9.55 199.35 9.4 196.35 8.45 197.85 5.95 Q196.9 7.75 193.6 9.45 190.05 11.2 187.35 11.0 L190.5 9.9 Q193.3 8.85 193.8 8.35 L191.8 7.5 192.35 6.95 188.3 6.65 186.25 7.95 Q184.1 9.3 178.55 9.55 179.0 9.45 178.7 8.55 178.35 7.65 177.65 7.65 175.65 7.65 174.7 8.35 L173.85 9.35 166.6 9.05 173.85 9.4 175.3 9.75 169.45 10.05 180.4 10.4 175.5 10.7 171.6 10.85 172.8 11.2 177.5 11.65 183.75 11.4 181.45 11.85 179.15 12.45 180.5 12.7 185.45 12.85 Q192.65 12.85 196.2 8.6 M145.45 10.45 L144.55 9.75 138.25 10.25 Q137.3 10.4 137.05 10.8 137.6 11.55 141.25 11.25 L145.45 10.45 M153.05 9.65 L157.3 10.25 160.95 10.4 165.5 10.05 Q159.5 7.65 158.5 7.65 L156.05 8.1 Q153.85 8.65 152.8 9.4 L153.05 9.65 M127.4 11.6 L129.45 11.1 125.8 10.8 124.9 10.8 122.1 10.35 116.6 9.75 Q115.95 9.75 115.9 10.05 L115.9 10.45 Q116.3 10.8 118.05 11.35 L120.65 12.1 120.55 12.3 Q119.85 13.8 116.15 13.8 L116.3 13.85 124.45 14.1 Q126.85 14.1 127.4 11.6 M181.5 6.9 L184.65 6.95 179.45 6.7 181.5 6.9 M195.65 14.2 Q195.65 13.8 195.85 14.45 L196.35 15.45 197.2 15.15 197.6 14.45 Q197.55 14.1 196.6 13.6 195.65 13.2 195.65 13.75 L192.7 13.65 192.2 13.85 193.85 14.25 195.65 14.3 195.65 14.2 M61.55 11.1 L61.5 11.1 61.25 11.15 Q61.1 11.2 61.1 11.8 61.1 12.4 61.3 12.45 L62.2 12.35 Q63.25 12.45 64.0 11.85 L64.7 11.1 64.75 10.8 61.55 11.1 M56.6 15.7 Q58.2 15.4 58.85 14.9 L51.5 12.5 Q50.7 14.45 45.75 15.05 L40.4 15.35 41.55 15.55 53.85 16.0 56.6 15.7 M58.45 11.1 L61.5 11.1 58.45 11.1 M66.65 12.85 Q67.95 12.85 68.05 12.15 66.45 12.15 66.0 12.6 L66.65 12.85 M68.4 11.1 L64.7 11.1 68.4 11.1 M36.2 11.7 L45.25 10.4 29.95 11.1 30.75 11.45 Q31.75 11.65 31.75 11.8 L36.2 11.7 M52.75 9.5 Q53.25 10.0 52.65 10.0 L59.6 10.05 52.75 9.5 M108.45 13.45 L106.2 14.15 107.0 14.3 Q108.8 14.15 108.5 13.5 L111.85 13.8 Q115.0 13.9 115.85 12.5 115.0 10.05 114.0 10.05 L109.2 10.95 Q105.1 11.85 108.45 13.45 M109.8 18.95 L110.95 19.25 116.1 19.5 120.25 19.4 Q114.3 16.8 111.8 17.4 111.0 17.6 110.45 18.2 L109.8 18.95 M78.2 15.6 L78.5 15.85 79.35 16.05 81.65 15.95 Q80.45 15.25 79.45 15.25 L78.45 15.45 78.2 15.6 M77.2 12.4 Q77.95 12.65 77.95 12.8 L81.15 12.95 Q92.65 12.95 95.25 11.1 81.55 10.85 79.0 11.3 78.15 11.45 77.95 11.8 L77.2 12.4 M89.25 15.5 L92.35 15.2 96.35 14.55 96.35 12.15 Q88.8 12.6 86.6 14.55 86.8 14.9 87.65 15.2 L89.25 15.5 M7.9 8.4 L9.95 8.75 11.05 8.7 13.95 7.65 7.6 8.0 7.9 8.4 M31.25 12.15 Q31.55 13.25 34.35 13.7 L39.35 14.2 31.25 12.15 M35.65 7.65 L30.85 7.6 28.55 7.95 26.25 8.55 27.5 8.9 29.6 9.15 Q30.5 9.2 35.65 7.65" fill="#b3aa9e" fill-rule="evenodd" stroke="none"/>
      <path d="M208.9 5.6 L208.25 6.9 Q207.2 7.9 204.85 11.1 L204.2 14.0 Q203.5 16.65 202.05 17.1 L194.35 19.1 Q187.6 20.6 184.1 20.6 L174.25 20.05 165.8 19.15 Q161.25 18.85 158.45 16.3 155.8 13.9 151.75 13.9 142.2 13.9 129.3 20.2 122.65 23.45 119.55 24.55 114.0 26.5 108.6 26.5 105.95 26.5 103.25 23.95 100.5 21.35 97.25 21.35 L86.9 22.3 79.25 23.25 65.25 22.3 Q61.95 22.3 58.1 23.85 54.3 25.35 51.85 25.35 47.1 25.35 40.8 23.85 34.7 22.35 31.95 20.65 30.6 19.8 30.1 18.5 L29.55 16.6 Q29.3 16.1 27.85 15.9 26.0 15.7 24.95 15.05 L22.0 12.65 Q20.85 11.65 18.7 11.2 L12.9 10.5 5.55 9.8 3.35 9.55 2.0 9.2 3.4 9.05 11.5 9.85 21.3 10.9 20.95 10.05 29.8 11.8 23.75 11.85 22.95 11.7 24.25 13.6 Q24.95 14.6 27.15 14.65 L30.6 14.8 Q31.85 15.05 32.65 16.3 33.9 18.1 37.0 19.6 42.45 22.15 51.1 22.15 55.05 22.15 58.25 21.25 61.4 20.35 66.15 20.35 L79.8 20.6 100.25 21.1 Q102.45 21.15 105.45 23.0 108.4 24.85 111.45 24.85 114.1 24.85 118.55 22.95 L127.8 18.8 Q141.85 12.7 155.75 12.7 157.5 12.7 158.15 13.25 L158.95 14.65 Q160.15 17.0 165.8 18.15 169.8 18.95 185.5 18.5 194.5 18.5 197.75 16.3 199.75 14.95 207.15 5.6 L208.9 5.6 M133.5 6.5 L137.5 6.55 141.95 6.95 135.95 7.3 Q134.05 7.3 133.5 6.5 M199.6 8.95 L198.25 8.7 201.55 8.7 199.6 8.95 M196.2 8.6 Q192.65 12.85 185.45 12.85 L180.5 12.7 179.15 12.45 181.45 11.85 183.75 11.4 187.35 11.0 Q190.05 11.2 193.6 9.45 196.9 7.75 197.85 5.95 L196.35 8.45 196.05 8.35 196.2 8.6 M175.3 9.75 L173.85 9.4 173.85 9.35 174.7 8.35 Q175.65 7.65 177.65 7.65 178.35 7.65 178.7 8.55 179.0 9.45 178.55 9.55 L175.3 9.75 M153.05 9.65 L152.8 9.4 Q153.85 8.65 156.05 8.1 L158.5 7.65 Q159.5 7.65 165.5 10.05 L160.95 10.4 157.3 10.25 153.05 9.65 M127.4 11.6 Q125.55 11.7 124.15 11.1 L124.5 10.8 124.9 10.8 125.8 10.8 129.45 11.1 127.4 11.6 M181.5 6.9 L179.45 6.7 184.65 6.95 181.5 6.9 M195.65 13.75 Q195.65 13.2 196.6 13.6 197.55 14.1 197.6 14.45 L197.2 15.15 196.35 15.45 195.85 14.45 Q195.65 13.8 195.65 14.2 L195.65 13.75 M61.5 11.1 L61.55 11.1 64.75 10.8 64.7 11.1 64.0 11.85 Q63.25 12.45 62.2 12.35 L61.3 12.45 Q61.1 12.4 61.1 11.8 61.1 11.2 61.25 11.15 L61.5 11.1 M52.75 9.5 L59.6 10.05 52.65 10.0 Q53.25 10.0 52.75 9.5 M108.45 13.45 Q105.1 11.85 109.2 10.95 L114.0 10.05 Q115.0 10.05 115.85 12.5 115.0 13.9 111.85 13.8 L108.5 13.5 108.45 13.45 M77.2 12.4 L77.95 11.8 Q78.15 11.45 79.0 11.3 81.55 10.85 95.25 11.1 92.65 12.95 81.15 12.95 L77.95 12.8 Q77.95 12.65 77.2 12.4 M78.2 15.6 L78.45 15.45 79.45 15.25 Q80.45 15.25 81.65 15.95 L79.35 16.05 78.5 15.85 78.2 15.6 M35.65 7.65 Q30.5 9.2 29.6 9.15 L27.5 8.9 26.25 8.55 28.55 7.95 30.85 7.6 35.65 7.65 M31.25 12.15 L39.35 14.2 34.35 13.7 Q31.55 13.25 31.25 12.15 M7.9 8.4 L7.6 8.0 13.95 7.65 11.05 8.7 9.95 8.75 7.9 8.4" fill="#c3b9ac" fill-rule="evenodd" stroke="none"/>
      <path d="M180.4 10.4 L169.45 10.05 175.3 9.75 178.55 9.55 Q184.1 9.3 186.25 7.95 L188.3 6.65 192.35 6.95 191.8 7.5 Q189.65 8.5 187.35 10.0 L184.6 10.45 180.4 10.4" fill="#8c847c" fill-rule="evenodd" stroke="none"/>
      <path d="M61.55 11.1 L61.5 11.1 58.45 11.1 M64.7 11.1 L68.4 11.1" fill="none" stroke="#a39a90" stroke-linecap="round" stroke-linejoin="round" stroke-width="0.05"/>
    </g>
  </defs>
</svg>
