<?xml version="1.0" encoding="UTF-8" standalone="no"?>
<svg xmlns:xlink="http://www.w3.org/1999/xlink" height="354.9px" width="83.7px" xmlns="http://www.w3.org/2000/svg">
  <g transform="matrix(1.0, 0.0, 0.0, 1.0, 0.0, 0.0)">
    <use height="354.9" transform="matrix(1.0, 0.0, 0.0, 1.0, 0.0, 0.0)" width="83.7" xlink:href="#shape0"/>
  </g>
  <defs>
    <g id="shape0" transform="matrix(1.0, 0.0, 0.0, 1.0, 0.0, 0.0)">
      <path d="M57.85 77.8 L58.95 79.1 Q59.55 79.65 59.95 80.95 L59.85 84.8 Q60.1 87.75 61.1 93.65 L61.2 94.35 61.05 99.25 61.0 99.55 60.95 100.05 60.85 101.3 60.85 101.7 60.75 103.65 60.8 105.3 60.9 106.6 Q57.35 104.6 55.35 103.25 56.8 103.65 58.0 103.25 L58.05 101.45 59.3 101.4 Q60.05 101.4 60.4 101.1 L59.9 99.25 59.35 97.4 58.9 95.0 Q58.6 93.65 57.85 92.75 59.1 92.65 58.7 90.25 58.0 87.65 58.05 87.0 L58.4 86.65 58.75 86.3 Q57.85 86.95 56.45 87.05 56.9 87.75 56.7 88.5 56.5 89.35 55.7 89.6 55.3 87.05 55.45 86.45 L56.2 85.5 Q56.75 84.85 56.25 84.4 55.9 84.0 55.15 84.25 54.45 84.5 54.35 84.95 54.7 83.0 52.6 82.65 51.45 82.5 49.0 82.7 L50.0 82.0 50.8 80.2 Q51.3 79.1 51.85 78.65 52.35 78.85 52.4 79.65 L52.4 80.95 Q53.9 79.75 54.95 80.05 55.2 80.9 54.65 82.0 L56.85 81.85 59.0 81.7 58.95 81.6 Q58.7 80.95 57.45 80.65 56.05 80.25 55.75 79.95 56.2 78.55 56.0 77.45 L55.35 77.4 54.7 77.35 54.5 70.2 Q55.45 71.5 56.55 74.4 L57.85 77.8 M57.4 83.4 L57.75 83.65 58.5 82.95 57.4 83.4 M57.95 109.0 L55.35 111.7 56.0 110.35 Q55.75 108.8 56.75 107.5 57.65 106.3 59.3 105.7 59.75 107.3 57.95 109.0 M57.35 111.35 L55.7 111.7 Q58.35 110.2 61.15 109.85 60.65 110.5 59.4 110.8 L57.35 111.35 M64.75 108.15 L64.7 108.45 64.1 108.2 64.35 108.2 64.75 108.15 M78.8 180.6 L78.85 181.2 78.85 181.4 78.3 181.6 Q77.9 181.65 77.7 182.0 77.35 182.55 77.85 184.5 78.3 186.25 77.35 187.1 76.55 187.9 75.7 187.65 L76.4 185.95 Q76.9 184.9 76.85 184.1 L74.75 184.0 Q76.1 181.8 74.55 181.55 L71.15 181.7 Q71.65 179.8 70.6 179.15 69.8 178.6 67.7 178.65 68.2 176.95 65.15 176.1 L61.65 176.3 63.35 174.0 Q64.75 172.25 67.1 171.4 67.05 172.95 66.15 174.3 67.05 173.65 68.7 173.4 70.25 173.15 71.4 173.4 L71.3 174.3 Q71.05 174.65 70.5 174.7 L73.5 175.1 Q75.9 175.5 76.0 176.0 76.15 176.85 74.85 177.0 L72.95 177.05 Q73.15 177.6 75.6 178.85 L78.8 180.6 M45.9 283.6 L45.4 284.35 Q44.45 284.55 43.35 283.45 42.35 282.4 42.35 281.35 L43.35 280.0 Q46.05 281.55 46.45 282.45 L45.9 283.6 M45.25 23.2 L45.6 24.05 46.3 25.35 46.0 25.35 46.7 26.35 46.65 25.85 Q47.6 27.15 47.95 28.35 48.3 29.85 48.15 32.7 L47.85 37.15 47.85 40.35 47.85 40.5 Q46.9 46.2 46.95 48.6 46.55 50.4 46.5 53.3 L46.45 58.0 46.35 60.0 Q46.2 61.4 45.65 61.9 45.3 61.55 45.05 60.5 L44.6 58.9 44.35 59.95 44.25 54.95 44.35 50.05 44.0 50.45 Q43.25 49.35 43.75 46.85 44.3 44.1 43.9 43.1 L42.8 42.95 Q42.4 42.2 42.9 41.65 43.35 41.2 44.2 41.05 L43.7 40.95 Q43.6 39.25 44.15 38.2 L44.75 37.55 45.3 36.95 Q45.55 36.45 45.45 35.45 45.35 34.45 45.0 34.15 L43.8 35.25 Q43.0 35.85 42.4 35.65 42.4 35.25 42.7 34.65 L42.0 34.65 Q41.9 33.35 43.35 30.7 42.5 30.8 42.4 30.25 42.35 29.75 42.8 29.15 42.0 28.05 42.4 26.7 L42.55 26.65 42.25 25.8 Q42.2 25.2 42.4 24.8 L43.1 24.0 44.25 24.25 44.4 23.05 45.25 23.2 M52.65 69.05 L52.65 69.0 53.2 69.1 Q53.65 69.3 54.2 69.85 51.95 71.5 50.35 73.95 L50.3 74.0 50.35 73.7 50.4 73.65 52.65 69.05 M63.65 113.1 L61.7 113.0 57.7 113.35 Q59.2 112.6 61.65 112.3 64.35 111.95 65.45 112.7 64.9 113.15 63.65 113.1 M65.3 114.65 Q67.35 114.35 67.75 115.7 66.7 116.35 64.75 116.15 63.05 115.95 61.7 115.35 L62.35 115.35 65.3 114.65 M56.65 122.4 L57.35 122.0 Q57.1 122.4 57.0 123.6 L56.9 124.0 Q55.7 124.35 55.0 123.35 L56.65 122.4 M59.5 123.7 Q58.55 123.4 58.35 122.7 L59.35 120.7 Q60.8 121.85 61.6 123.4 60.95 123.95 59.85 123.8 L59.5 123.7 M51.9 125.95 Q51.0 126.8 48.0 126.7 L45.35 127.0 Q46.3 126.1 48.4 125.75 50.3 125.4 51.85 125.7 L52.15 125.75 51.9 125.95 M62.0 119.35 L63.7 119.35 Q65.85 119.2 67.15 119.35 69.65 119.6 69.5 121.0 69.35 122.2 66.0 121.3 62.7 120.4 62.0 119.35 M64.7 122.55 Q66.3 123.3 66.0 124.3 L64.45 123.95 63.0 123.0 62.35 121.7 64.7 122.55 M73.55 129.3 Q74.45 129.3 74.8 130.0 74.3 131.15 71.35 131.0 L72.0 129.7 Q72.8 129.3 73.55 129.3 M71.6 128.3 Q70.65 129.85 68.7 129.7 L67.7 129.35 Q68.3 128.7 69.2 126.3 70.0 124.2 71.05 123.6 71.75 124.1 71.9 125.85 72.05 127.5 71.6 128.3 M73.7 132.35 Q75.9 132.2 78.0 133.05 L76.45 133.45 74.7 133.35 73.7 132.35 M63.35 138.7 Q63.35 142.35 61.65 142.45 60.7 141.8 61.35 139.45 61.85 137.75 62.7 136.35 L63.35 138.7 M58.05 139.3 Q56.4 139.2 57.7 137.7 L60.0 137.7 Q59.7 139.4 58.05 139.3 M65.4 143.2 Q64.7 141.3 65.0 139.15 65.25 137.05 66.35 135.35 L67.35 140.7 67.5 142.8 Q67.45 144.15 66.7 144.4 66.1 144.65 65.8 144.15 L65.4 143.2 M74.7 140.9 Q75.4 142.15 75.35 142.85 74.15 143.7 72.65 143.3 71.25 142.9 70.35 141.7 L73.7 139.0 74.7 140.9 M74.0 136.7 L78.35 138.95 Q82.75 141.6 81.7 143.05 80.85 144.25 78.5 142.75 77.05 141.75 75.7 140.35 L74.0 136.7 M73.35 136.35 L74.35 134.35 Q75.8 134.5 77.55 135.25 79.85 136.2 79.3 137.3 L76.3 137.1 73.35 136.35 M70.0 144.7 Q69.35 144.6 68.9 143.65 L68.35 142.0 70.0 140.35 70.3 142.15 70.65 143.9 70.65 144.65 70.0 144.7 M71.9 151.3 Q72.65 151.85 72.8 152.4 L70.95 152.75 69.0 152.65 Q70.8 153.2 71.0 154.0 L67.05 153.7 67.0 155.35 65.5 155.2 64.05 154.7 62.2 154.25 Q61.7 153.95 61.35 152.7 L61.7 149.35 Q67.15 146.85 69.05 147.7 69.0 148.85 67.85 149.0 71.5 149.15 70.8 150.4 L71.9 151.3 M61.15 153.75 Q60.25 154.3 59.3 154.05 58.25 153.75 58.0 152.7 L60.0 152.35 Q60.8 153.0 61.15 153.75 M63.5 157.5 L60.35 157.0 64.35 156.0 Q65.8 157.55 63.5 157.5 M75.35 189.7 L77.45 189.85 Q78.9 190.05 79.4 190.7 L79.5 191.4 Q78.35 192.25 73.0 188.0 L75.35 189.7 M74.75 193.0 L77.25 193.75 Q78.75 194.3 79.05 195.35 77.55 195.2 75.3 193.5 L74.75 193.0 M73.7 194.35 L76.4 196.75 Q78.15 198.5 78.05 199.8 76.05 200.7 74.4 198.45 72.9 196.4 73.0 194.35 L73.7 194.35 M72.7 196.35 L73.1 199.5 Q71.25 200.4 70.0 198.3 69.1 196.7 69.0 194.7 L72.7 196.35 M42.8 29.15 Q43.7 30.35 45.0 29.0 44.45 28.45 43.8 28.55 L42.8 29.15 M43.7 63.35 Q45.65 63.35 47.1 64.35 L44.0 64.35 43.7 63.35 M45.1 66.9 Q46.0 67.75 45.6 68.7 44.1 68.85 43.0 67.35 L43.35 65.7 45.1 66.9 M42.4 71.3 Q41.5 70.7 41.35 70.0 L43.0 68.0 43.85 69.6 Q44.35 70.75 43.95 71.25 L42.4 71.3 M43.35 78.15 L43.5 78.1 Q44.55 80.0 44.9 82.45 45.3 85.45 44.0 86.7 L42.0 87.7 Q41.55 86.95 41.7 84.35 41.8 81.8 42.35 79.9 42.75 78.3 43.35 78.15 M45.45 101.45 L45.0 100.0 45.7 100.7 Q46.6 100.9 47.3 101.35 48.5 102.05 47.3 102.6 46.35 103.05 45.75 102.0 L45.45 101.45 M42.55 131.75 L42.0 131.0 44.0 129.35 Q45.85 131.0 46.4 132.4 L44.55 132.75 Q43.5 132.55 42.7 131.9 L42.55 131.75 M47.85 86.05 L45.7 87.25 44.35 90.0 45.35 87.35 45.7 87.25 Q46.85 85.3 48.25 83.65 48.6 85.15 47.85 86.05 M47.35 89.35 L46.0 89.0 49.0 88.3 52.0 88.05 Q52.2 89.3 50.2 89.45 L47.35 89.35 M49.5 96.15 Q50.65 96.8 50.95 97.85 51.45 99.45 49.9 99.85 L47.0 100.0 47.35 95.35 49.5 96.15 M48.0 93.7 Q50.45 94.25 52.15 95.05 55.0 96.45 54.35 98.05 53.2 97.9 51.45 96.7 49.7 95.5 48.7 95.35 L48.0 93.7 M54.0 91.95 Q54.3 93.45 51.45 93.1 L47.7 92.35 46.35 90.7 50.55 90.65 Q53.75 90.85 54.0 91.95 M39.7 121.7 L38.35 124.35 Q37.95 124.1 37.9 123.0 L37.95 121.45 Q38.05 115.85 39.7 113.65 40.7 114.7 40.6 117.55 40.5 120.2 39.7 121.7 M45.65 119.3 Q46.2 122.6 44.35 125.0 L41.7 125.0 43.75 122.2 45.65 119.3 M35.6 146.7 Q36.0 147.55 35.4 148.3 L38.75 148.45 42.15 148.4 Q41.75 149.1 40.55 149.3 42.5 149.45 43.7 150.35 43.45 151.05 42.25 151.05 45.25 151.45 46.15 152.7 45.75 153.1 45.0 153.1 L43.75 153.0 Q44.5 153.35 45.4 154.4 46.45 155.5 46.0 155.75 46.75 155.9 47.15 156.25 47.6 156.7 47.3 157.3 L46.55 157.35 Q48.0 158.4 45.6 158.65 L42.35 158.65 Q43.35 158.95 44.2 159.8 45.1 160.75 45.0 161.65 L42.45 162.1 39.85 161.7 Q38.7 163.6 37.0 160.4 36.2 158.85 35.35 156.35 L37.35 158.0 Q38.3 158.4 39.25 159.45 40.35 160.65 39.95 161.5 L39.85 161.7 Q40.45 161.6 40.65 161.1 40.85 160.65 40.65 160.1 L39.75 159.75 41.3 158.55 Q42.4 157.65 42.1 156.9 41.7 155.95 39.7 156.45 40.0 156.1 40.1 155.35 40.25 154.45 39.95 154.05 39.5 153.5 38.4 153.55 37.25 153.6 37.0 154.25 L37.35 152.8 35.8 152.7 34.25 153.25 33.65 152.0 Q33.4 151.75 32.15 151.65 30.25 151.55 29.7 152.0 L32.0 148.7 Q32.55 147.7 33.5 147.15 34.55 146.55 35.6 146.7 M46.7 128.35 L50.05 128.6 Q52.55 129.15 52.4 130.3 50.6 130.7 46.7 129.7 L46.7 128.35 M34.35 159.7 L35.05 162.4 Q35.45 164.6 35.0 165.0 34.05 165.8 33.4 163.45 32.85 161.35 33.0 160.35 L34.35 159.7 M29.35 161.35 L31.35 161.0 31.55 163.35 Q31.55 165.0 30.95 165.35 29.35 166.35 29.35 161.35 M36.05 177.05 Q38.25 177.75 40.4 179.25 42.4 180.55 42.15 182.8 L42.0 186.7 38.7 183.35 37.1 181.4 Q35.9 180.2 35.5 179.4 34.85 178.1 34.9 177.65 35.0 177.1 36.05 177.05 M54.7 236.7 L57.0 237.95 Q58.5 238.8 58.85 239.65 58.45 240.9 56.25 240.0 L53.35 238.7 54.5 237.0 54.7 236.7 M45.0 246.7 Q44.05 246.3 43.8 243.35 L43.7 239.7 45.35 241.35 45.7 244.2 Q45.9 246.7 45.4 246.75 L45.05 246.7 45.0 246.7 M32.3 181.0 Q33.7 181.1 35.65 182.2 38.0 183.45 37.7 184.7 L34.35 185.0 Q33.6 184.35 32.9 183.15 32.15 181.85 32.3 181.0 M49.15 183.2 L48.0 188.0 47.7 186.7 Q47.35 181.65 49.05 178.25 49.9 179.1 49.15 183.2 M43.4 177.05 Q45.7 174.8 45.55 181.6 45.45 184.85 45.0 187.0 L44.7 185.7 Q43.95 184.75 43.3 181.4 42.6 177.85 43.4 177.05 M51.1 190.75 L46.95 191.55 43.35 191.7 44.35 191.0 48.4 189.5 51.65 188.0 Q53.45 187.3 54.55 187.35 54.2 189.7 51.1 190.75 M52.45 196.1 L52.3 196.15 Q51.35 196.65 49.95 196.15 49.35 195.95 47.7 195.0 L42.0 193.35 Q52.85 193.7 52.45 196.1 M44.0 201.9 Q44.1 203.05 43.75 203.35 L43.3 203.55 Q41.95 203.95 39.05 201.35 L39.05 202.65 Q36.9 203.3 35.4 202.3 34.3 201.55 33.0 199.35 L38.7 200.0 38.95 200.8 42.7 198.0 43.25 199.45 44.0 201.9 M62.4 216.35 Q63.2 216.85 63.5 217.75 L62.2 218.2 Q60.45 218.4 57.4 217.15 L53.35 215.0 56.35 215.7 59.4 215.6 Q61.4 215.7 62.4 216.35 M45.55 196.5 Q46.45 198.05 46.05 198.7 45.1 200.3 43.3 198.5 42.05 197.2 41.35 195.7 L44.0 194.7 45.55 196.5 M51.7 212.35 Q51.45 211.4 52.65 210.45 53.9 209.55 54.7 210.05 55.8 210.75 53.75 211.75 L51.0 212.7 51.7 212.35 M54.35 217.7 L53.35 216.0 Q57.1 218.05 60.05 220.95 L59.6 221.7 Q58.3 221.55 56.7 220.15 L54.35 217.7 M55.35 220.0 L57.5 222.5 Q58.8 224.4 58.25 225.4 56.2 225.75 55.1 224.7 54.15 223.8 53.7 221.7 L55.35 220.0 M51.7 214.0 L55.6 213.75 Q58.1 213.45 59.5 213.75 L56.35 214.35 51.7 214.0 M31.0 217.95 Q32.4 216.75 33.4 216.65 33.6 218.2 32.3 218.95 L29.7 220.0 28.7 219.35 31.0 217.95 M30.0 221.7 L32.5 221.55 Q34.2 221.5 34.65 222.1 34.2 223.0 32.5 223.15 30.85 223.35 30.0 222.7 L30.0 221.7 M35.4 228.0 Q34.15 228.35 32.3 227.55 30.2 226.65 29.35 226.7 L30.0 224.0 33.35 225.4 Q35.6 226.65 35.4 228.0 M33.35 234.2 Q32.5 234.9 31.7 233.7 L30.7 228.0 Q32.05 228.6 33.0 229.75 34.0 231.0 34.05 232.45 34.1 233.6 33.35 234.2 M52.85 226.85 Q51.9 228.35 50.7 225.35 L53.7 223.0 Q53.65 225.6 52.85 226.85 M49.7 224.2 Q48.95 223.5 48.7 222.35 L50.35 223.0 Q50.3 223.7 49.7 224.2 M40.3 242.8 L40.35 241.35 42.0 241.0 41.65 242.95 Q41.3 244.05 40.45 244.25 40.25 243.7 40.3 242.8 M49.0 243.0 Q51.45 245.25 51.15 248.1 49.7 247.65 48.8 245.65 L47.7 242.35 49.0 243.0 M53.35 240.7 Q56.95 243.2 57.9 247.45 59.0 249.1 58.45 250.85 56.95 250.7 54.85 248.15 L52.0 244.35 53.35 240.7 M46.35 267.4 Q48.25 265.3 50.35 265.7 51.0 267.7 48.6 269.2 47.25 270.1 44.1 271.4 L44.0 271.7 42.7 272.35 Q43.1 271.9 44.1 271.4 44.85 269.05 46.35 267.4 M47.45 280.2 Q46.1 280.2 43.7 279.0 L40.7 277.0 44.25 277.15 Q47.2 277.4 48.25 278.1 L47.45 280.2 M49.05 275.55 L44.9 275.85 41.35 275.7 43.7 274.35 46.4 273.95 49.5 273.8 49.05 275.55 M40.05 287.4 L40.4 290.8 Q39.35 291.65 37.45 291.5 35.6 291.3 34.7 290.35 L40.0 287.0 40.05 287.25 41.7 282.35 Q43.25 286.0 42.75 287.1 42.35 287.95 41.55 288.1 40.75 288.25 40.05 287.4 M75.2 230.25 Q74.2 231.65 70.85 230.8 67.5 229.9 67.35 228.0 L64.35 227.35 Q69.95 227.85 75.2 230.15 L75.2 230.25 M66.95 226.1 L63.7 226.0 64.0 225.0 Q67.15 224.05 68.7 224.4 69.25 225.9 66.95 226.1 M66.0 228.7 Q68.45 229.7 70.65 231.25 73.85 233.6 73.15 235.35 72.35 237.3 68.7 234.15 66.3 232.05 64.7 230.0 L66.0 228.7 M65.35 241.2 L65.45 242.8 Q65.45 243.95 65.0 244.3 63.05 245.75 62.65 240.3 L62.7 234.0 65.0 235.35 Q65.35 237.7 65.35 241.2 M60.35 241.15 Q59.4 239.9 59.45 237.05 L59.7 232.7 62.0 239.0 61.3 240.25 60.35 241.15 M68.3 239.95 Q67.1 240.85 66.3 237.5 65.7 235.1 65.7 233.35 L67.2 235.45 Q69.45 239.1 68.3 239.95" fill="#6d652e" fill-rule="evenodd" stroke="none"/>
      <path d="M57.85 77.8 L56.55 74.4 Q55.45 71.5 54.5 70.2 L54.7 77.35 55.35 77.4 56.0 77.45 Q56.2 78.55 55.75 79.95 56.05 80.25 57.45 80.65 58.7 80.95 58.95 81.6 L59.0 81.7 56.85 81.85 54.65 82.0 Q55.2 80.9 54.95 80.05 53.9 79.75 52.4 80.95 L52.4 79.65 Q52.35 78.85 51.85 78.65 51.3 79.1 50.8 80.2 L50.0 82.0 49.0 82.7 Q51.45 82.5 52.6 82.65 54.7 83.0 54.35 84.95 54.45 84.5 55.15 84.25 55.9 84.0 56.25 84.4 56.75 84.85 56.2 85.5 L55.45 86.45 Q55.3 87.05 55.7 89.6 56.5 89.35 56.7 88.5 56.9 87.75 56.45 87.05 57.85 86.95 58.75 86.3 L58.4 86.65 58.05 87.0 Q58.0 87.65 58.7 90.25 59.1 92.65 57.85 92.75 58.6 93.65 58.9 95.0 L59.35 97.4 59.9 99.25 60.4 101.1 Q60.05 101.4 59.3 101.4 L58.05 101.45 58.0 103.25 Q56.8 103.65 55.35 103.25 57.35 104.6 60.9 106.6 L60.8 105.3 Q60.9 106.85 61.25 108.0 L63.0 108.05 64.35 108.2 64.1 108.2 64.7 108.45 64.75 108.15 64.9 109.5 65.0 110.85 Q68.15 110.8 68.9 115.0 69.8 120.3 70.8 121.15 L72.6 121.4 Q73.95 121.35 74.7 122.1 75.0 122.4 75.25 124.35 L75.75 126.95 78.5 127.1 Q79.4 128.4 78.9 129.95 79.2 130.85 79.3 132.9 79.45 134.75 79.85 135.75 L82.15 139.4 Q83.75 141.65 83.7 143.2 L83.45 144.7 Q82.65 145.9 80.7 145.15 L80.0 146.2 78.1 146.4 77.95 146.05 Q76.4 146.9 75.85 146.95 74.8 147.05 74.95 145.35 L74.05 146.25 Q73.35 146.85 72.95 146.8 72.5 146.75 72.25 146.05 L72.15 145.6 71.95 143.4 71.05 145.05 Q70.75 144.5 71.35 143.0 L70.65 143.9 70.3 142.15 70.0 140.35 68.35 142.0 68.9 143.65 Q69.35 144.6 70.0 144.7 69.85 145.45 70.8 147.0 70.2 147.8 70.35 148.3 L71.8 148.35 72.7 149.25 72.7 149.65 75.1 149.6 77.0 149.1 Q77.5 149.3 77.6 149.95 L78.6 150.65 Q79.0 150.85 80.15 150.65 L80.45 150.6 81.05 149.5 Q80.15 151.15 80.0 151.8 L80.15 154.0 Q80.35 155.55 79.65 156.75 78.9 158.05 76.45 159.55 L72.0 162.1 Q67.25 165.0 67.75 168.1 L67.7 166.85 68.0 165.8 Q68.4 165.0 68.95 164.45 L69.0 164.0 68.05 164.35 68.05 162.8 65.0 162.95 61.7 163.65 61.7 163.0 61.65 162.4 Q60.8 162.4 59.6 163.05 L57.6 164.1 Q56.5 166.6 55.35 166.4 L55.35 166.0 49.7 169.0 Q49.1 169.4 48.05 169.4 L47.0 169.2 Q45.85 168.9 45.05 168.1 L44.35 168.2 Q43.7 167.95 43.9 165.65 43.15 168.1 40.55 168.7 37.85 169.35 37.3 166.75 36.5 168.55 33.85 168.7 31.15 168.85 31.75 166.45 31.25 167.0 30.2 167.1 L28.45 166.95 Q28.15 166.05 28.35 164.95 28.55 163.7 29.25 163.3 L25.05 163.05 Q24.55 160.5 25.3 160.05 L23.35 160.15 Q22.3 160.05 21.95 159.35 21.4 158.25 22.6 155.8 23.65 153.6 24.75 152.7 L26.3 151.7 25.4 151.65 Q24.95 150.45 26.3 149.95 L28.55 149.7 Q27.5 149.0 28.1 147.6 28.65 146.25 29.8 146.05 L28.65 145.3 Q28.2 144.7 28.35 144.0 28.5 143.2 29.45 142.8 L31.1 142.3 Q30.15 142.0 29.75 140.85 29.4 139.9 29.55 138.65 L31.55 138.1 Q33.35 137.85 33.35 135.85 L35.3 135.15 Q36.25 134.65 36.0 133.4 L39.05 133.3 42.1 133.35 Q42.1 132.75 42.25 132.3 L42.7 131.9 Q43.5 132.55 44.55 132.75 L46.4 132.4 Q45.85 131.0 44.0 129.35 L42.0 131.0 42.55 131.75 42.25 132.3 Q41.3 132.9 40.25 132.7 39.15 132.45 39.4 131.45 38.8 131.95 37.9 131.7 37.1 131.5 36.45 130.9 35.55 130.0 35.4 128.65 L35.4 126.15 Q33.7 126.75 32.6 125.75 31.65 124.9 31.55 123.3 31.35 119.4 34.85 119.35 32.95 119.25 33.45 117.55 34.05 115.75 35.8 115.45 34.95 114.75 35.0 113.8 35.1 113.15 35.7 112.0 L36.05 111.1 37.25 110.35 Q38.15 109.95 39.85 109.5 L42.45 108.7 39.9 108.65 Q38.4 108.4 38.25 107.2 38.15 106.2 39.2 105.55 39.9 105.1 40.7 105.05 L39.75 104.8 Q39.15 104.4 39.25 103.65 L41.35 103.35 43.55 103.4 Q44.85 103.8 45.15 102.7 L45.75 102.0 Q46.35 103.05 47.3 102.6 48.5 102.05 47.3 101.35 46.6 100.9 45.7 100.7 L45.0 100.0 45.45 101.45 44.25 100.45 42.3 100.55 Q41.9 100.15 41.65 98.7 L39.4 98.5 Q37.8 98.5 37.55 98.0 37.3 97.5 38.2 96.2 L39.35 94.35 37.9 93.85 Q37.4 93.6 37.35 92.75 37.35 92.3 37.95 91.6 L38.6 90.35 Q37.25 90.35 37.8 88.95 L38.8 87.05 38.75 84.5 Q38.7 82.85 39.85 82.4 39.05 82.45 38.85 81.6 38.65 80.8 39.1 80.2 39.6 79.6 40.55 79.6 L42.35 79.9 Q41.8 81.8 41.7 84.35 41.55 86.95 42.0 87.7 L44.0 86.7 Q45.3 85.45 44.9 82.45 44.55 80.0 43.5 78.1 L43.35 78.15 Q43.15 76.3 43.65 75.65 L45.8 76.1 47.9 76.7 47.8 75.6 48.05 77.65 Q49.9 76.9 50.35 73.95 51.95 71.5 54.2 69.85 53.65 69.3 53.2 69.1 54.45 69.5 55.75 72.35 L57.85 77.8 M60.85 101.3 L60.95 100.05 61.0 99.55 60.9 100.75 60.85 101.3 M57.35 111.35 L59.4 110.8 Q60.65 110.5 61.15 109.85 58.35 110.2 55.7 111.7 L57.35 111.35 M57.95 109.0 Q59.75 107.3 59.3 105.7 57.65 106.3 56.75 107.5 55.75 108.8 56.0 110.35 L55.35 111.7 57.95 109.0 M57.4 83.4 L58.5 82.95 57.75 83.65 57.4 83.4 M70.6 169.25 Q71.5 169.4 71.85 169.7 72.4 170.2 73.45 173.45 L77.55 173.15 Q78.4 176.15 78.8 180.6 L75.6 178.85 Q73.15 177.6 72.95 177.05 L74.85 177.0 Q76.15 176.85 76.0 176.0 75.9 175.5 73.5 175.1 L70.5 174.7 Q71.05 174.65 71.3 174.3 L71.4 173.4 Q70.25 173.15 68.7 173.4 67.05 173.65 66.15 174.3 67.05 172.95 67.1 171.4 64.75 172.25 63.35 174.0 L61.65 176.3 65.15 176.1 Q68.2 176.95 67.7 178.65 69.8 178.6 70.6 179.15 71.65 179.8 71.15 181.7 L74.55 181.55 Q76.1 181.8 74.75 184.0 L76.85 184.1 Q76.9 184.9 76.4 185.95 L75.7 187.65 Q76.55 187.9 77.35 187.1 78.3 186.25 77.85 184.5 77.35 182.55 77.7 182.0 77.9 181.65 78.3 181.6 L78.85 181.4 79.0 183.95 Q79.35 191.55 80.0 194.75 L81.3 195.0 82.7 195.15 Q83.55 202.15 80.85 206.1 L81.35 203.9 82.1 203.5 82.5 202.1 82.35 199.7 81.35 203.9 78.0 203.65 Q76.05 203.05 75.7 202.2 L76.15 204.4 72.55 204.55 Q70.55 203.7 69.35 202.4 68.9 203.3 68.2 202.25 L67.4 200.7 67.3 202.65 67.3 204.65 Q66.05 205.0 65.05 203.7 L65.05 204.85 65.0 206.0 65.0 206.05 64.6 206.8 62.35 205.7 Q63.55 205.95 64.35 204.05 64.0 203.6 63.05 203.65 L61.65 203.8 Q64.75 201.35 64.3 199.4 L63.8 199.25 64.5 198.05 Q65.05 197.35 64.95 196.8 L63.75 196.6 Q63.6 196.1 63.85 195.05 L64.0 193.4 Q63.2 193.1 62.55 193.65 62.1 192.6 62.3 190.1 62.55 187.65 62.05 186.55 61.3 186.6 61.1 187.65 L60.85 189.35 Q60.4 186.7 58.8 183.75 57.0 180.35 54.95 179.45 L54.95 183.6 Q54.95 186.1 55.1 187.65 54.9 186.2 53.5 184.2 51.95 182.0 50.65 181.95 50.3 186.15 51.65 188.0 L48.4 189.5 44.35 191.0 43.35 191.7 46.95 191.55 51.1 190.75 Q51.8 193.45 54.7 196.15 L53.55 196.1 52.45 196.1 Q52.85 193.7 42.0 193.35 L47.7 195.0 Q49.35 195.95 49.95 196.15 51.35 196.65 52.3 196.15 53.0 197.5 54.65 198.85 L57.6 201.0 55.7 200.95 Q54.85 199.3 53.2 198.35 51.4 197.35 51.65 199.95 51.3 199.95 50.0 199.05 48.8 198.25 48.25 198.55 47.55 198.9 47.55 200.2 L47.65 202.3 Q45.1 201.45 44.0 201.9 L43.25 199.45 42.7 198.0 38.95 200.8 38.7 200.0 33.0 199.35 Q34.3 201.55 35.4 202.3 36.9 203.3 39.05 202.65 L39.05 201.35 Q41.95 203.95 43.3 203.55 L43.4 203.95 45.0 203.85 46.55 203.75 Q47.35 204.0 47.35 204.65 47.35 205.6 47.5 205.9 48.0 206.8 50.3 207.1 L53.75 206.75 53.65 207.65 Q54.65 208.3 56.7 208.2 L59.85 207.95 Q56.7 208.7 56.8 209.95 56.95 210.9 59.45 211.1 L62.65 211.1 61.1 212.0 Q59.55 212.7 60.05 213.65 L62.9 213.7 62.4 216.35 Q61.4 215.7 59.4 215.6 L56.35 215.7 53.35 215.0 57.4 217.15 Q60.45 218.4 62.2 218.2 62.2 221.95 66.3 220.85 65.45 222.1 65.75 222.95 67.45 223.25 69.2 222.45 71.25 221.55 71.0 219.7 L68.65 219.7 Q68.75 218.75 69.9 216.85 70.95 215.05 71.05 213.95 69.45 214.25 69.15 213.3 69.0 212.7 69.35 210.95 L70.35 211.05 75.15 210.75 Q74.2 211.7 73.95 212.9 73.65 214.3 74.45 216.15 75.3 218.1 76.7 218.15 77.4 220.95 76.3 225.55 74.9 231.4 74.85 233.0 L74.7 236.35 Q74.55 238.1 73.9 239.65 73.7 240.15 72.55 240.95 71.7 241.6 71.75 242.85 L69.4 243.0 68.9 243.0 66.0 243.15 66.0 243.35 65.2 249.7 Q64.65 252.9 62.85 255.85 L60.9 259.0 Q61.05 261.2 59.2 262.0 58.2 262.25 57.5 262.0 L57.15 261.85 Q59.15 259.5 59.8 256.6 61.1 251.1 58.75 251.35 L58.35 253.6 Q57.95 254.75 56.75 254.05 L56.6 256.7 Q56.3 258.35 55.0 258.45 54.1 258.5 53.55 257.7 L52.75 256.1 Q52.4 256.7 51.75 256.7 51.6 255.45 51.7 251.95 51.55 253.05 50.05 253.25 48.7 253.4 47.75 252.75 46.85 252.1 47.0 249.9 47.2 247.7 46.55 247.2 L46.1 248.55 45.4 249.7 45.1 248.15 45.05 246.7 45.4 246.75 Q45.9 246.7 45.7 244.2 L45.35 241.35 43.7 239.7 43.8 243.35 Q44.05 246.3 45.0 246.7 L45.1 248.15 Q44.9 251.8 42.95 251.8 41.65 251.85 41.1 250.4 40.8 249.6 40.7 247.85 40.6 251.8 37.75 250.7 36.3 250.15 36.05 248.05 L35.95 244.6 Q35.75 244.95 35.65 245.9 35.6 246.85 35.35 247.3 34.05 247.25 33.75 245.1 33.6 244.25 33.7 241.9 33.1 242.9 31.6 246.25 30.1 249.2 28.6 249.55 28.05 248.5 27.75 245.85 27.75 246.5 27.35 246.75 26.2 246.15 25.7 244.15 L25.2 240.9 24.6 241.1 Q24.2 241.2 24.05 241.35 24.2 239.9 25.3 237.35 24.95 237.9 24.4 237.75 24.7 236.45 25.6 235.1 26.6 233.55 27.65 233.1 L24.4 233.55 Q22.15 233.55 21.9 232.3 21.55 230.9 22.55 229.8 L24.4 228.05 21.75 227.65 Q20.15 227.0 20.25 225.65 20.35 224.55 21.55 224.05 22.3 223.7 23.3 223.7 L18.7 223.25 Q14.8 222.45 15.55 220.6 16.1 219.35 19.55 219.7 L17.35 218.3 Q16.35 217.4 16.2 216.0 16.6 215.5 17.8 215.6 L19.65 215.6 Q19.0 214.5 18.9 212.3 L26.9 216.15 Q27.2 215.8 27.15 215.1 27.1 214.35 27.3 214.0 28.4 213.8 29.8 214.95 28.7 215.3 28.5 216.05 29.25 216.8 30.65 216.7 31.05 216.0 29.8 214.95 L31.2 214.7 32.6 215.95 33.15 216.15 33.65 216.45 34.4 218.0 35.1 218.6 Q35.4 218.8 35.95 218.6 L36.4 223.25 Q36.85 226.75 38.3 226.15 L38.25 228.85 Q38.1 230.6 38.65 231.4 39.9 231.3 40.4 230.2 L40.25 232.6 Q40.25 234.05 40.65 234.8 41.8 234.8 42.05 233.45 41.95 235.2 42.25 235.75 42.65 236.45 44.3 236.45 45.7 236.45 46.5 235.7 L48.05 233.95 48.95 236.65 Q49.7 238.0 51.25 237.65 52.05 237.45 52.3 237.1 L52.45 236.25 Q52.6 236.65 53.1 236.9 L54.5 237.0 53.35 238.7 56.25 240.0 Q58.45 240.9 58.85 239.65 58.5 238.8 57.0 237.95 L54.7 236.7 54.55 235.35 Q54.4 234.5 54.6 234.0 L56.1 233.9 56.75 232.75 57.75 229.8 Q58.35 227.85 58.35 226.75 L55.75 229.6 Q54.1 231.5 52.65 231.45 52.25 230.8 52.6 229.3 L53.1 227.0 Q51.55 229.35 48.9 230.95 L47.7 230.95 47.65 227.95 Q47.35 227.8 46.75 228.15 47.25 226.95 47.95 226.3 L45.6 227.0 42.9 227.55 43.0 226.0 41.65 226.0 Q41.9 224.1 43.9 221.75 L42.5 221.65 41.1 221.35 Q40.75 220.5 41.8 219.65 43.15 218.85 43.5 218.45 L42.05 218.1 Q42.45 217.3 43.95 216.15 L45.8 214.25 42.95 214.3 Q42.85 213.1 44.65 212.15 L45.2 211.95 Q47.75 212.15 47.8 211.0 L47.95 210.95 48.35 210.75 48.0 210.7 47.75 210.65 47.7 210.4 46.4 210.35 45.1 210.4 44.4 210.1 43.75 209.95 43.05 210.45 40.1 210.3 40.0 210.1 39.95 210.25 31.15 209.8 31.0 209.7 30.55 208.8 29.75 208.3 Q29.4 206.3 29.5 204.4 29.6 201.95 30.45 200.65 30.05 200.2 28.85 200.25 L27.05 200.05 Q26.7 198.55 27.45 197.6 28.1 196.75 29.45 196.45 26.8 196.45 26.45 194.9 26.2 193.75 27.65 192.65 28.95 191.65 30.15 191.65 29.5 190.3 31.7 188.9 34.0 187.4 33.8 186.6 33.55 185.45 30.8 185.55 27.7 185.6 27.1 185.05 27.5 184.35 28.85 183.95 30.2 183.5 30.55 182.95 L26.1 183.25 21.5 182.95 22.0 182.05 20.0 182.0 20.75 182.0 Q22.35 180.7 25.55 179.7 L30.7 178.25 28.75 178.45 Q27.55 178.4 27.15 177.7 28.95 176.55 32.9 176.25 L34.2 176.15 35.45 175.95 34.95 176.1 38.9 175.4 36.9 174.8 37.0 174.4 38.15 174.2 39.8 174.25 41.35 174.35 40.7 173.55 42.5 173.5 Q43.4 173.2 43.85 172.4 L48.5 172.95 48.25 171.25 Q48.15 170.1 48.7 169.7 L50.7 169.6 52.85 170.45 Q52.0 169.8 52.35 168.8 L57.1 169.05 61.55 170.9 61.3 169.7 Q62.45 169.45 64.35 169.7 L67.4 170.0 67.35 169.4 Q68.05 169.2 68.9 169.75 L70.3 170.3 70.6 169.25 M54.55 261.95 L54.1 262.35 55.5 260.5 55.75 260.0 Q55.4 261.1 54.55 261.95 M52.95 263.05 L51.55 262.9 50.9 261.9 Q51.35 262.95 52.2 263.1 L52.95 263.05 M50.8 264.35 Q50.45 274.7 45.9 283.6 L46.45 282.45 Q46.05 281.55 43.35 280.0 L42.35 281.35 Q42.35 282.4 43.35 283.45 44.45 284.55 45.4 284.35 L44.8 285.05 Q44.15 285.7 43.8 286.95 43.45 288.2 43.85 292.0 L43.9 303.9 Q43.85 307.45 43.15 313.0 L40.4 313.2 Q39.7 310.65 41.3 305.9 L39.2 306.25 Q37.75 306.1 37.35 305.55 36.8 304.85 37.65 302.55 38.5 300.35 39.6 299.05 40.05 299.45 40.5 299.3 40.95 299.05 40.65 298.3 40.25 298.25 39.6 299.05 L39.3 298.7 Q39.0 298.15 39.35 297.2 L40.0 295.8 Q39.2 296.75 37.45 296.85 L34.65 296.4 Q34.55 295.45 34.95 294.0 L35.65 291.55 Q35.3 291.2 34.3 291.0 33.5 290.8 33.25 290.1 33.05 289.45 33.55 288.45 L34.45 287.0 Q34.2 286.75 33.6 286.45 L32.6 285.95 32.1 285.55 31.7 285.3 32.1 285.55 31.7 285.05 Q31.5 284.3 32.0 283.45 32.4 282.8 33.1 282.3 L32.1 281.7 31.6 280.6 Q31.4 279.7 32.0 278.85 L33.0 277.5 33.25 277.6 34.8 277.85 36.35 277.65 36.6 277.05 Q36.5 276.7 36.65 276.45 36.95 275.8 37.55 275.35 L38.75 274.6 Q37.5 274.4 36.6 273.85 35.35 273.05 35.65 272.0 35.85 271.25 37.0 271.0 38.25 270.7 38.5 270.15 37.7 269.65 37.35 268.7 36.9 267.6 37.7 267.05 L39.3 266.9 40.95 267.05 Q39.9 267.0 39.0 265.85 38.15 264.6 38.7 263.65 L39.5 263.1 40.45 262.8 Q39.65 262.55 39.65 261.85 40.1 261.45 41.0 261.2 L43.05 262.6 45.2 263.35 47.4 263.95 50.8 264.35 M42.75 315.9 L41.8 322.2 Q40.15 332.1 39.9 338.2 L40.0 336.05 40.9 327.9 42.15 319.85 Q40.4 318.1 41.65 315.75 L42.75 315.9 M39.85 347.0 L39.8 347.75 39.65 349.4 39.75 348.1 39.85 347.0 M5.2 204.55 L5.25 204.4 Q6.55 204.6 7.5 205.8 6.55 204.65 5.35 204.45 L5.2 204.55 M18.0 152.1 L19.35 152.1 19.2 152.1 18.0 152.1 M25.95 103.3 L26.45 103.1 28.7 102.95 26.7 103.1 Q24.95 103.5 24.3 104.85 24.8 103.75 25.95 103.3 M39.8 0.85 Q42.15 1.9 42.95 2.95 44.15 4.6 44.15 8.4 L43.85 14.1 Q43.85 17.35 44.15 19.2 44.45 21.2 45.25 23.2 L44.4 23.05 44.25 24.25 43.1 24.0 42.4 24.8 Q42.2 25.2 42.25 25.8 L42.55 26.65 42.4 26.7 Q42.0 28.05 42.8 29.15 42.35 29.75 42.4 30.25 42.5 30.8 43.35 30.7 41.9 33.35 42.0 34.65 L42.7 34.65 Q42.4 35.25 42.4 35.65 43.0 35.85 43.8 35.25 L45.0 34.15 Q45.35 34.45 45.45 35.45 45.55 36.45 45.3 36.95 L44.75 37.55 44.15 38.2 Q43.6 39.25 43.7 40.95 L44.2 41.05 Q43.35 41.2 42.9 41.65 42.4 42.2 42.8 42.95 L43.9 43.1 Q44.3 44.1 43.75 46.85 43.25 49.35 44.0 50.45 L44.35 50.05 44.25 54.95 44.35 59.95 44.6 58.9 45.05 60.5 Q45.3 61.55 45.65 61.9 46.2 61.4 46.35 60.0 L46.45 58.0 46.5 53.3 Q46.55 50.4 46.95 48.6 46.9 46.2 47.85 40.5 L47.35 57.5 Q47.1 66.9 47.65 73.7 L47.1 72.3 Q45.85 76.8 43.75 72.4 43.5 75.5 41.6 75.1 40.3 74.8 40.3 73.3 38.85 73.65 38.9 70.95 38.9 69.0 39.4 67.4 37.25 69.6 38.0 63.25 37.75 63.9 37.05 63.65 36.9 61.65 38.0 59.45 37.55 59.9 36.7 59.65 L36.7 59.15 Q37.1 58.8 37.6 58.95 L36.85 58.3 37.65 56.5 36.7 56.7 Q36.2 52.9 37.75 52.6 36.8 49.1 38.5 46.7 37.35 46.1 37.8 44.95 L38.75 43.05 Q37.7 42.55 37.65 41.05 L37.6 38.6 Q37.0 36.4 36.9 35.05 36.6 32.4 38.25 32.35 37.4 30.7 37.6 28.7 37.85 26.3 39.85 26.7 38.8 25.9 38.4 24.85 L37.65 22.75 37.05 21.65 37.05 21.15 38.85 20.7 Q38.75 20.35 39.05 19.55 L40.45 19.45 41.7 19.1 41.75 16.35 Q41.95 15.1 43.25 14.4 41.7 13.6 40.9 13.05 39.4 12.05 39.6 10.9 39.75 10.15 40.5 10.0 L41.9 9.8 Q40.2 8.6 40.3 5.5 L40.65 3.55 Q40.85 2.4 40.35 1.7 L40.95 1.45 39.8 0.85 M45.6 24.05 L46.9 26.15 Q47.7 27.35 47.95 28.35 47.6 27.15 46.65 25.85 L46.7 26.35 46.0 25.35 46.3 25.35 45.6 24.05 M51.45 69.8 L52.1 69.2 52.65 69.05 50.4 73.65 50.4 73.45 Q50.65 70.85 51.45 69.8 M57.0 123.6 Q57.1 122.4 57.35 122.0 L56.65 122.4 56.35 121.8 54.2 122.1 53.0 121.35 53.2 121.85 52.6 121.05 52.6 120.1 52.65 119.1 Q50.35 118.55 50.5 116.5 L51.65 112.35 Q52.75 112.85 52.95 114.15 L52.0 100.7 52.15 104.4 51.95 108.1 Q51.65 109.55 50.2 111.35 48.45 113.5 48.05 114.4 47.55 115.6 47.6 116.95 47.7 117.9 48.6 118.05 L49.2 118.85 49.35 119.9 49.35 121.55 Q49.45 122.45 49.9 123.1 L50.7 123.7 Q51.3 124.05 51.45 124.3 L51.85 125.7 Q50.3 125.4 48.4 125.75 46.3 126.1 45.35 127.0 L48.0 126.7 Q51.0 126.8 51.9 125.95 52.05 126.55 52.35 126.6 L53.65 126.15 53.85 127.4 54.15 128.65 Q55.1 128.6 55.5 126.95 L55.95 126.9 Q56.65 131.9 58.65 131.45 59.6 131.3 59.7 129.55 59.95 130.55 61.4 130.5 62.9 130.4 62.75 129.05 63.45 129.1 63.65 128.55 63.85 128.05 63.45 127.45 65.3 128.2 66.75 127.4 L66.7 125.45 Q66.6 124.25 66.05 123.7 L65.95 125.0 Q65.25 125.2 64.5 124.55 L63.3 123.35 Q63.1 123.65 62.65 125.45 62.1 127.05 61.35 126.8 L61.3 126.05 60.75 126.25 Q60.25 125.45 59.85 123.8 60.95 123.95 61.6 123.4 60.8 121.85 59.35 120.7 L58.35 122.7 Q58.55 123.4 59.5 123.7 L58.8 124.4 57.75 124.45 Q57.15 124.25 57.0 123.6 M65.3 114.65 L62.35 115.35 61.7 115.35 Q63.05 115.95 64.75 116.15 66.7 116.35 67.75 115.7 67.35 114.35 65.3 114.65 M63.65 113.1 Q64.9 113.15 65.45 112.7 64.35 111.95 61.65 112.3 59.2 112.6 57.7 113.35 L61.7 113.0 63.65 113.1 M73.7 132.35 L74.7 133.35 76.45 133.45 78.0 133.05 Q75.9 132.2 73.7 132.35 M71.6 128.3 Q72.05 127.5 71.9 125.85 71.75 124.1 71.05 123.6 70.0 124.2 69.2 126.3 68.3 128.7 67.7 129.35 L68.7 129.7 Q70.65 129.85 71.6 128.3 M73.55 129.3 Q72.8 129.3 72.0 129.7 L71.35 131.0 Q74.3 131.15 74.8 130.0 74.45 129.3 73.55 129.3 M64.7 122.55 L62.35 121.7 63.0 123.0 64.45 123.95 66.0 124.3 Q66.3 123.3 64.7 122.55 M62.0 119.35 Q62.7 120.4 66.0 121.3 69.35 122.2 69.5 121.0 69.65 119.6 67.15 119.35 65.85 119.2 63.7 119.35 L62.0 119.35 M55.75 125.75 L55.65 125.7 55.7 125.0 55.75 125.75 M73.35 136.35 L76.3 137.1 79.3 137.3 Q79.85 136.2 77.55 135.25 75.8 134.5 74.35 134.35 L73.35 136.35 M74.0 136.7 L75.7 140.35 Q77.05 141.75 78.5 142.75 80.85 144.25 81.7 143.05 82.75 141.6 78.35 138.95 L74.0 136.7 M74.7 140.9 L73.7 139.0 70.35 141.7 Q71.25 142.9 72.65 143.3 74.15 143.7 75.35 142.85 75.4 142.15 74.7 140.9 M65.4 143.2 L65.8 144.15 Q66.1 144.65 66.7 144.4 67.45 144.15 67.5 142.8 L67.35 140.7 66.35 135.35 Q65.25 137.05 65.0 139.15 64.7 141.3 65.4 143.2 M58.05 139.3 Q59.7 139.4 60.0 137.7 L57.7 137.7 Q56.4 139.2 58.05 139.3 M63.35 138.7 L62.7 136.35 Q61.85 137.75 61.35 139.45 60.7 141.8 61.65 142.45 63.35 142.35 63.35 138.7 M63.5 157.5 Q65.8 157.55 64.35 156.0 L60.35 157.0 63.5 157.5 M61.15 153.75 Q60.8 153.0 60.0 152.35 L58.0 152.7 Q58.25 153.75 59.3 154.05 60.25 154.3 61.15 153.75 M71.9 151.3 L70.8 150.4 Q71.5 149.15 67.85 149.0 69.0 148.85 69.05 147.7 67.15 146.85 61.7 149.35 L61.35 152.7 Q61.7 153.95 62.2 154.25 L64.05 154.7 65.5 155.2 67.0 155.35 67.05 153.7 71.0 154.0 Q70.8 153.2 69.0 152.65 L70.95 152.75 72.8 152.4 Q72.65 151.85 71.9 151.3 M72.7 196.35 L69.0 194.7 Q69.1 196.7 70.0 198.3 71.25 200.4 73.1 199.5 L72.7 196.35 M73.7 194.35 L73.0 194.35 Q72.9 196.4 74.4 198.45 76.05 200.7 78.05 199.8 78.15 198.5 76.4 196.75 L73.7 194.35 M74.75 193.0 L75.3 193.5 Q77.55 195.2 79.05 195.35 78.75 194.3 77.25 193.75 L74.75 193.0 M75.35 189.7 L73.0 188.0 Q78.35 192.25 79.5 191.4 L79.4 190.7 Q78.9 190.05 77.45 189.85 L75.35 189.7 M34.0 58.4 Q34.15 54.45 33.15 48.35 L32.95 47.0 33.55 50.6 34.0 54.35 34.05 57.35 34.0 58.4 M42.4 71.3 L43.95 71.25 Q44.35 70.75 43.85 69.6 L43.0 68.0 41.35 70.0 Q41.5 70.7 42.4 71.3 M45.1 66.9 L43.35 65.7 43.0 67.35 Q44.1 68.85 45.6 68.7 46.0 67.75 45.1 66.9 M43.7 63.35 L44.0 64.35 47.1 64.35 Q45.65 63.35 43.7 63.35 M42.8 29.15 L43.8 28.55 Q44.45 28.45 45.0 29.0 43.7 30.35 42.8 29.15 M32.5 65.5 L31.9 67.55 31.45 69.1 30.85 72.7 30.75 74.3 Q30.75 72.0 31.45 69.1 L31.9 67.45 33.35 62.5 32.5 65.5 M31.05 76.3 L31.1 76.4 31.35 76.85 31.55 77.15 31.85 77.95 31.35 76.85 31.05 76.3 M31.9 78.45 L31.95 78.8 31.9 81.15 31.7 83.5 31.6 85.7 31.6 84.8 31.9 78.45 M32.15 89.75 L32.5 90.45 32.7 90.8 Q31.8 90.05 30.85 92.95 L30.0 95.9 29.4 98.6 30.05 95.6 Q31.5 89.75 32.7 90.8 L32.15 89.75 M29.1 100.4 L28.95 101.35 28.75 102.7 28.7 102.95 29.4 98.6 29.1 100.4 M47.85 86.05 Q48.6 85.15 48.25 83.65 46.85 85.3 45.7 87.25 L45.35 87.35 44.35 90.0 45.7 87.25 47.85 86.05 M54.0 91.95 Q53.75 90.85 50.55 90.65 L46.35 90.7 47.7 92.35 51.45 93.1 Q54.3 93.45 54.0 91.95 M48.0 93.7 L48.7 95.35 Q49.7 95.5 51.45 96.7 53.2 97.9 54.35 98.05 55.0 96.45 52.15 95.05 50.45 94.25 48.0 93.7 M49.5 96.15 L47.35 95.35 47.0 100.0 49.9 99.85 Q51.45 99.45 50.95 97.85 50.65 96.8 49.5 96.15 M47.35 89.35 L50.2 89.45 Q52.2 89.3 52.0 88.05 L49.0 88.3 46.0 89.0 47.35 89.35 M45.65 119.3 L43.75 122.2 41.7 125.0 44.35 125.0 Q46.2 122.6 45.65 119.3 M39.7 121.7 Q40.5 120.2 40.6 117.55 40.7 114.7 39.7 113.65 38.05 115.85 37.95 121.45 L37.9 123.0 Q37.95 124.1 38.35 124.35 L39.7 121.7 M24.0 107.65 L24.1 108.35 Q24.55 110.7 25.85 112.8 L26.35 113.55 Q24.25 110.75 24.0 107.65 M23.65 117.35 L23.55 117.6 23.4 118.35 23.35 119.05 23.4 118.25 23.65 117.35 M23.45 122.1 L23.55 123.35 23.6 124.1 23.45 122.1 M25.9 139.85 L25.55 142.75 24.85 146.4 25.35 143.45 25.9 139.85 M35.6 146.7 Q34.55 146.55 33.5 147.15 32.55 147.7 32.0 148.7 L29.7 152.0 Q30.25 151.55 32.15 151.65 33.4 151.75 33.65 152.0 L34.25 153.25 35.8 152.7 37.35 152.8 37.0 154.25 Q37.25 153.6 38.4 153.55 39.5 153.5 39.95 154.05 40.25 154.45 40.1 155.35 40.0 156.1 39.7 156.45 41.7 155.95 42.1 156.9 42.4 157.65 41.3 158.55 L39.75 159.75 40.65 160.1 Q40.85 160.65 40.65 161.1 40.45 161.6 39.85 161.7 L39.95 161.5 Q40.35 160.65 39.25 159.45 38.3 158.4 37.35 158.0 L35.35 156.35 Q36.2 158.85 37.0 160.4 38.7 163.6 39.85 161.7 L42.45 162.1 45.0 161.65 Q45.1 160.75 44.2 159.8 43.35 158.95 42.35 158.65 L45.6 158.65 Q48.0 158.4 46.55 157.35 L47.3 157.3 Q47.6 156.7 47.15 156.25 46.75 155.9 46.0 155.75 46.45 155.5 45.4 154.4 44.5 153.35 43.75 153.0 L45.0 153.1 Q45.75 153.1 46.15 152.7 45.25 151.45 42.25 151.05 43.45 151.05 43.7 150.35 42.5 149.45 40.55 149.3 41.75 149.1 42.15 148.4 L38.75 148.45 35.4 148.3 Q36.0 147.55 35.6 146.7 M46.7 128.35 L46.7 129.7 Q50.6 130.7 52.4 130.3 52.55 129.15 50.05 128.6 L46.7 128.35 M40.55 146.15 Q40.75 145.65 40.35 144.0 L36.7 143.0 Q36.25 146.1 38.7 146.65 40.3 147.0 40.55 146.15 M43.7 148.0 L43.35 147.35 43.4 149.45 Q43.6 150.5 44.55 151.0 45.6 151.25 46.65 151.0 47.2 150.2 45.75 149.2 L43.7 148.0 M48.0 164.95 L48.0 163.85 Q47.55 163.9 47.05 164.9 L48.0 164.95 M34.35 159.7 L33.0 160.35 Q32.85 161.35 33.4 163.45 34.05 165.8 35.0 165.0 35.45 164.6 35.05 162.4 L34.35 159.7 M36.05 177.05 Q35.0 177.1 34.9 177.65 34.85 178.1 35.5 179.4 35.9 180.2 37.1 181.4 L38.7 183.35 42.0 186.7 42.15 182.8 Q42.4 180.55 40.4 179.25 38.25 177.75 36.05 177.05 M29.35 161.35 Q29.35 166.35 30.95 165.35 31.55 165.0 31.55 163.35 L31.35 161.0 29.35 161.35 M32.3 181.0 Q32.15 181.85 32.9 183.15 33.6 184.35 34.35 185.0 L37.7 184.7 Q38.0 183.45 35.65 182.2 33.7 181.1 32.3 181.0 M49.15 183.2 Q49.9 179.1 49.05 178.25 47.35 181.65 47.7 186.7 L48.0 188.0 49.15 183.2 M43.4 177.05 Q42.6 177.85 43.3 181.4 43.95 184.75 44.7 185.7 L45.0 187.0 Q45.45 184.85 45.55 181.6 45.7 174.8 43.4 177.05 M45.55 196.5 L44.0 194.7 41.35 195.7 Q42.05 197.2 43.3 198.5 45.1 200.3 46.05 198.7 46.45 198.05 45.55 196.5 M41.8 227.3 L42.05 227.3 42.1 227.4 41.8 227.3 M47.5 231.6 L47.6 231.4 47.65 231.55 47.5 231.6 M51.7 214.0 L56.35 214.35 59.5 213.75 Q58.1 213.45 55.6 213.75 L51.7 214.0 M55.35 220.0 L53.7 221.7 Q54.15 223.8 55.1 224.7 56.2 225.75 58.25 225.4 58.8 224.4 57.5 222.5 L55.35 220.0 M54.35 217.7 L56.7 220.15 Q58.3 221.55 59.6 221.7 L60.05 220.95 Q57.1 218.05 53.35 216.0 L54.35 217.7 M51.7 212.35 L51.0 212.7 53.75 211.75 Q55.8 210.75 54.7 210.05 53.9 209.55 52.65 210.45 51.45 211.4 51.7 212.35 M33.35 234.2 Q34.1 233.6 34.05 232.45 34.0 231.0 33.0 229.75 32.05 228.6 30.7 228.0 L31.7 233.7 Q32.5 234.9 33.35 234.2 M35.4 228.0 Q35.6 226.65 33.35 225.4 L30.0 224.0 29.35 226.7 Q30.2 226.65 32.3 227.55 34.15 228.35 35.4 228.0 M30.0 221.7 L30.0 222.7 Q30.85 223.35 32.5 223.15 34.2 223.0 34.65 222.1 34.2 221.5 32.5 221.55 L30.0 221.7 M31.0 217.95 L28.7 219.35 29.7 220.0 32.3 218.95 Q33.6 218.2 33.4 216.65 32.4 216.75 31.0 217.95 M49.7 224.2 Q50.3 223.7 50.35 223.0 L48.7 222.35 Q48.95 223.5 49.7 224.2 M52.85 226.85 Q53.65 225.6 53.7 223.0 L50.7 225.35 Q51.9 228.35 52.85 226.85 M40.3 242.8 Q40.25 243.7 40.45 244.25 41.3 244.05 41.65 242.95 L42.0 241.0 40.35 241.35 40.3 242.8 M53.35 240.7 L52.0 244.35 54.85 248.15 Q56.95 250.7 58.45 250.85 59.0 249.1 57.9 247.45 56.95 243.2 53.35 240.7 M49.0 243.0 L47.7 242.35 48.8 245.65 Q49.7 247.65 51.15 248.1 51.45 245.25 49.0 243.0 M5.4 212.3 L4.5 212.65 Q2.6 213.8 2.4 216.55 2.55 213.05 5.4 212.3 M3.8 223.65 L4.0 224.15 3.95 224.1 3.8 223.65 M46.35 267.4 Q44.85 269.05 44.1 271.4 43.1 271.9 42.7 272.35 L44.0 271.7 44.1 271.4 Q47.25 270.1 48.6 269.2 51.0 267.7 50.35 265.7 48.25 265.3 46.35 267.4 M23.0 272.9 L24.35 273.0 25.1 273.15 25.1 273.2 24.35 273.05 23.0 272.9 M40.05 287.4 Q40.75 288.25 41.55 288.1 42.35 287.95 42.75 287.1 43.25 286.0 41.7 282.35 L40.05 287.25 40.0 287.0 34.7 290.35 Q35.6 291.3 37.45 291.5 39.35 291.65 40.4 290.8 L40.05 287.4 M49.05 275.55 L49.5 273.8 46.4 273.95 43.7 274.35 41.35 275.7 44.9 275.85 49.05 275.55 M47.45 280.2 L48.25 278.1 Q47.2 277.4 44.25 277.15 L40.7 277.0 43.7 279.0 Q46.1 280.2 47.45 280.2 M60.35 241.15 L61.3 240.25 62.0 239.0 59.7 232.7 59.45 237.05 Q59.4 239.9 60.35 241.15 M65.35 241.2 Q65.35 237.7 65.0 235.35 L62.7 234.0 62.65 240.3 Q63.05 245.75 65.0 244.3 65.45 243.95 65.45 242.8 L65.35 241.2 M66.0 228.7 L64.7 230.0 Q66.3 232.05 68.7 234.15 72.35 237.3 73.15 235.35 73.85 233.6 70.65 231.25 68.45 229.7 66.0 228.7 M66.95 226.1 Q69.25 225.9 68.7 224.4 67.15 224.05 64.0 225.0 L63.7 226.0 66.95 226.1 M75.2 230.25 L75.2 230.15 Q69.95 227.85 64.35 227.35 L67.35 228.0 Q67.5 229.9 70.85 230.8 74.2 231.65 75.2 230.25 M68.3 239.95 Q69.45 239.1 67.2 235.45 L65.7 233.35 Q65.7 235.1 66.3 237.5 67.1 240.85 68.3 239.95" fill="#5b5527" fill-rule="evenodd" stroke="none"/>
      <path d="M83.45 144.7 L83.45 144.65 82.05 147.7 81.05 149.5 80.45 150.6 80.15 150.65 Q79.0 150.85 78.6 150.65 L77.6 149.95 Q77.5 149.3 77.0 149.1 L75.1 149.6 72.7 149.65 72.7 149.25 Q73.55 149.75 73.95 149.65 L74.25 148.8 Q75.1 149.25 76.0 148.8 L77.7 148.0 79.7 147.8 Q80.8 147.55 80.25 146.2 L80.0 146.2 80.7 145.15 Q82.65 145.9 83.45 144.7 M67.75 168.1 L67.75 168.25 67.95 168.95 69.6 169.1 70.6 169.15 70.6 169.25 70.3 170.3 68.9 169.75 Q68.05 169.2 67.35 169.4 L67.4 170.0 64.35 169.7 Q62.45 169.45 61.3 169.7 L61.55 170.9 57.1 169.05 52.35 168.8 Q52.0 169.8 52.85 170.45 L50.7 169.6 48.7 169.7 Q48.15 170.1 48.25 171.25 L48.5 172.95 43.85 172.4 44.1 171.4 Q45.8 171.5 45.7 170.05 L45.65 170.05 Q45.3 170.0 45.1 169.4 L44.8 168.4 43.95 169.7 42.6 169.8 Q41.65 170.8 39.7 171.55 37.7 172.25 36.4 172.05 L35.75 171.75 35.05 171.55 Q34.65 171.55 33.8 172.1 32.9 172.7 32.35 172.65 31.35 172.6 31.15 172.15 31.0 171.9 31.0 170.7 L27.4 170.2 Q25.6 169.55 26.55 167.3 L24.55 167.45 Q23.35 167.4 22.8 166.7 22.4 166.2 22.75 164.2 23.05 162.45 22.25 162.05 L20.95 161.95 Q20.2 161.95 19.8 161.35 19.35 160.65 19.6 159.3 19.75 158.1 20.25 157.3 L19.5 156.9 19.15 156.15 19.05 154.1 Q19.55 153.1 21.35 151.9 L22.35 152.7 24.0 151.05 Q24.85 150.05 25.05 149.05 L25.0 147.75 24.9 146.3 25.85 144.95 Q26.65 144.45 26.75 143.95 L26.65 143.25 Q27.45 141.25 27.6 138.8 L28.95 138.15 29.1 138.0 29.65 138.05 31.55 138.1 29.55 138.65 Q29.4 139.9 29.75 140.85 30.15 142.0 31.1 142.3 L29.45 142.8 Q28.5 143.2 28.35 144.0 28.2 144.7 28.65 145.3 L29.8 146.05 Q28.65 146.25 28.1 147.6 27.5 149.0 28.55 149.7 L26.3 149.95 Q24.95 150.45 25.4 151.65 L26.3 151.7 24.75 152.7 Q23.65 153.6 22.6 155.8 21.4 158.25 21.95 159.35 22.3 160.05 23.35 160.15 L25.3 160.05 Q24.55 160.5 25.05 163.05 L29.25 163.3 Q28.55 163.7 28.35 164.95 28.15 166.05 28.45 166.95 L30.2 167.1 Q31.25 167.0 31.75 166.45 31.15 168.85 33.85 168.7 36.5 168.55 37.3 166.75 37.85 169.35 40.55 168.7 43.15 168.1 43.9 165.65 43.7 167.95 44.35 168.2 L45.05 168.1 Q45.85 168.9 47.0 169.2 L46.05 170.05 48.0 169.95 48.05 169.4 Q49.1 169.4 49.7 169.0 L55.35 166.0 55.35 166.4 Q56.5 166.6 57.6 164.1 L59.6 163.05 Q60.8 162.4 61.65 162.4 L61.7 163.0 61.7 163.65 65.0 162.95 68.05 162.8 68.05 164.35 69.0 164.0 68.95 164.45 Q68.4 165.0 68.0 165.8 67.3 165.35 67.1 164.45 67.15 165.65 65.6 165.45 64.4 165.3 63.5 164.7 62.7 166.85 64.3 167.3 65.7 167.75 67.7 166.85 L67.75 168.1 M80.85 206.1 L80.85 206.15 79.95 207.25 79.9 207.35 79.85 207.4 78.8 208.3 78.85 208.2 78.95 208.0 79.0 206.4 Q77.6 206.2 76.5 207.0 L74.35 208.25 Q73.35 208.5 72.45 207.85 71.6 207.2 71.35 206.1 71.15 207.2 69.25 207.2 67.3 207.2 67.0 206.0 L65.0 206.0 65.05 204.85 65.05 203.7 Q66.05 205.0 67.3 204.65 L67.3 202.65 67.4 200.7 68.2 202.25 Q68.9 203.3 69.35 202.4 70.55 203.7 72.55 204.55 L76.15 204.4 75.7 202.2 Q76.05 203.05 78.0 203.65 L81.35 203.9 82.35 199.7 82.5 202.1 82.1 203.5 81.35 203.9 80.85 206.1 M77.0 209.45 Q75.85 210.1 75.3 210.65 L75.15 210.75 70.35 211.05 69.35 210.95 Q69.0 212.7 69.15 213.3 69.45 214.25 71.05 213.95 70.95 215.05 69.9 216.85 68.75 218.75 68.65 219.7 L71.0 219.7 Q71.25 221.55 69.2 222.45 67.45 223.25 65.75 222.95 65.45 222.1 66.3 220.85 62.2 221.95 62.2 218.2 L63.5 217.75 Q63.2 216.85 62.4 216.35 L62.9 213.7 60.05 213.65 Q59.55 212.7 61.1 212.0 L62.65 211.1 59.45 211.1 Q56.95 210.9 56.8 209.95 56.7 208.7 59.85 207.95 L56.7 208.2 Q54.65 208.3 53.65 207.65 L53.75 206.75 50.3 207.1 Q48.0 206.8 47.5 205.9 47.35 205.6 47.35 204.65 47.35 204.0 46.55 203.75 L45.0 203.85 43.4 203.95 43.3 203.55 43.75 203.35 Q44.1 203.05 44.0 201.9 45.1 201.45 47.65 202.3 L47.55 200.2 Q47.55 198.9 48.25 198.55 48.8 198.25 50.0 199.05 51.3 199.95 51.65 199.95 51.4 197.35 53.2 198.35 54.85 199.3 55.7 200.95 L57.6 201.0 54.65 198.85 Q53.0 197.5 52.3 196.15 L52.45 196.1 53.55 196.1 54.7 196.15 Q51.8 193.45 51.1 190.75 54.2 189.7 54.55 187.35 53.45 187.3 51.65 188.0 50.3 186.15 50.65 181.95 51.95 182.0 53.5 184.2 54.9 186.2 55.1 187.65 54.95 186.1 54.95 183.6 L54.95 179.45 Q57.0 180.35 58.8 183.75 60.4 186.7 60.85 189.35 L61.1 187.65 Q61.3 186.6 62.05 186.55 62.55 187.65 62.3 190.1 62.1 192.6 62.55 193.65 63.2 193.1 64.0 193.4 L63.85 195.05 Q63.6 196.1 63.75 196.6 L64.95 196.8 Q65.05 197.35 64.5 198.05 L63.8 199.25 64.3 199.4 Q64.75 201.35 61.65 203.8 L63.05 203.65 Q64.0 203.6 64.35 204.05 63.55 205.95 62.35 205.7 L64.6 206.8 65.0 206.05 65.85 207.45 67.7 208.35 69.25 208.35 69.5 209.05 69.75 208.45 Q70.3 209.15 71.4 209.15 72.55 209.1 72.4 208.05 73.0 208.9 74.4 209.3 L76.9 209.5 77.0 209.45 M53.95 262.45 L52.95 263.05 52.2 263.1 Q51.35 262.95 50.9 261.9 L50.8 261.7 50.8 263.3 50.8 264.35 47.4 263.95 45.2 263.35 43.05 262.6 41.0 261.2 Q40.1 261.45 39.65 261.85 39.65 262.55 40.45 262.8 L39.5 263.1 38.7 263.65 Q38.15 264.6 39.0 265.85 39.9 267.0 40.95 267.05 L39.3 266.9 37.7 267.05 Q36.9 267.6 37.35 268.7 37.7 269.65 38.5 270.15 38.25 270.7 37.0 271.0 35.85 271.25 35.65 272.0 35.35 273.05 36.6 273.85 37.5 274.4 38.75 274.6 L37.55 275.35 Q36.95 275.8 36.65 276.45 36.5 276.7 36.6 277.05 L36.35 277.65 34.8 277.85 33.25 277.6 33.0 277.5 32.0 278.85 Q31.4 279.7 31.6 280.6 L32.1 281.7 33.1 282.3 Q32.4 282.8 32.0 283.45 31.5 284.3 31.7 285.05 L32.1 285.55 31.7 285.3 30.95 284.7 30.9 284.65 30.8 284.55 Q30.2 283.9 30.3 282.9 L30.5 281.8 Q30.75 281.35 31.55 281.3 30.5 280.2 30.3 278.7 30.1 277.0 31.6 276.5 L31.65 276.45 31.5 276.4 29.55 275.3 29.45 275.2 29.2 272.6 29.5 271.95 Q30.35 270.65 31.6 271.1 30.65 270.2 30.0 267.65 29.3 264.8 30.9 264.7 29.65 264.55 29.95 263.4 30.2 262.45 31.0 261.75 L29.6 261.5 Q29.1 261.3 29.0 260.45 28.9 259.75 29.45 259.1 L30.6 258.1 Q35.15 258.25 34.65 255.75 35.25 257.9 35.65 258.1 36.2 258.4 37.7 256.9 L36.0 256.35 Q35.4 256.05 35.9 254.7 33.8 255.75 32.75 255.7 32.4 253.95 32.9 251.65 L33.25 250.2 32.0 252.05 31.55 251.7 31.1 250.75 30.75 249.7 Q30.55 250.2 30.3 252.0 29.95 253.2 29.0 253.0 L28.8 252.95 Q27.55 252.4 26.75 249.3 26.7 250.2 25.95 250.85 25.15 251.55 24.3 251.05 L24.2 250.9 23.7 249.9 Q23.5 249.0 23.65 246.3 22.1 247.0 22.35 244.5 L20.05 244.45 Q18.45 244.45 18.0 243.7 17.85 243.45 17.95 242.9 L17.9 242.0 17.05 240.9 Q16.6 240.25 17.1 239.35 17.45 238.6 18.5 238.35 18.15 237.4 18.95 235.45 L16.1 234.7 Q14.5 234.05 16.25 233.35 L17.35 233.2 17.75 232.2 Q18.55 229.35 18.3 228.0 L17.0 228.0 15.7 227.95 15.65 227.05 Q14.1 226.95 13.95 226.05 L13.65 224.0 12.5 222.35 Q11.85 221.55 12.05 220.4 L12.55 220.2 12.9 219.85 11.65 219.6 Q10.9 219.35 10.95 218.7 11.0 217.85 12.75 217.95 11.15 217.6 10.2 216.7 9.1 215.6 9.55 214.2 L10.65 214.05 Q11.4 213.8 11.8 213.15 L12.9 213.4 11.9 213.05 12.65 211.65 13.95 211.7 Q13.3 211.6 12.9 211.25 L13.4 210.65 Q13.8 210.25 14.5 209.95 L15.05 209.95 15.1 209.3 15.2 209.2 Q15.7 208.45 17.2 208.7 L16.8 208.25 16.7 207.75 19.35 207.65 19.4 207.0 20.65 207.05 Q21.4 206.8 21.35 206.1 21.5 207.25 22.4 207.75 L23.05 207.65 23.7 207.65 24.05 208.3 24.3 209.05 24.9 209.6 25.6 209.65 26.7 209.4 27.15 209.85 27.7 210.25 28.7 209.6 Q29.15 209.1 29.65 209.05 L27.25 208.65 Q25.65 208.05 26.55 206.75 L24.95 206.7 Q24.1 206.6 24.0 205.7 23.9 204.85 24.6 204.15 23.8 204.35 23.6 203.65 23.45 203.1 23.65 202.1 L24.1 201.25 23.6 200.65 22.35 200.6 Q22.65 198.4 24.35 195.7 L23.05 195.65 Q22.9 194.9 23.25 193.9 L23.85 192.2 21.7 192.3 22.0 191.75 Q20.65 191.8 20.75 188.9 20.85 186.0 21.95 185.65 20.35 186.05 20.5 185.0 20.6 184.4 21.5 182.95 L26.1 183.25 30.55 182.95 Q30.2 183.5 28.85 183.95 27.5 184.35 27.1 185.05 27.7 185.6 30.8 185.55 33.55 185.45 33.8 186.6 34.0 187.4 31.7 188.9 29.5 190.3 30.15 191.65 28.95 191.65 27.65 192.65 26.2 193.75 26.45 194.9 26.8 196.45 29.45 196.45 28.1 196.75 27.45 197.6 26.7 198.55 27.05 200.05 L28.85 200.25 Q30.05 200.2 30.45 200.65 29.6 201.95 29.5 204.4 29.4 206.3 29.75 208.3 L30.55 208.8 31.0 209.7 31.15 209.8 39.95 210.25 Q39.65 211.15 37.4 211.2 L34.0 211.05 Q34.85 212.5 36.75 212.95 38.3 213.35 40.3 212.95 L40.4 212.05 Q41.05 212.5 41.85 212.75 L43.4 212.65 Q43.9 212.15 43.65 210.45 L43.65 210.35 43.45 210.45 Q42.2 211.2 41.6 211.3 40.6 211.45 40.1 210.3 L43.05 210.45 43.75 209.95 44.4 210.1 45.1 210.4 46.4 210.35 47.7 210.4 47.75 210.65 48.0 210.7 48.35 210.75 47.95 210.95 47.8 211.0 Q47.75 212.15 45.2 211.95 L44.65 212.15 Q42.85 213.1 42.95 214.3 L45.8 214.25 43.95 216.15 Q42.45 217.3 42.05 218.1 L43.5 218.45 Q43.15 218.85 41.8 219.65 40.75 220.5 41.1 221.35 L42.5 221.65 43.9 221.75 Q41.9 224.1 41.65 226.0 L41.1 226.0 Q40.5 223.5 41.35 222.7 L39.7 218.35 Q38.5 219.4 37.95 221.95 37.4 224.6 38.3 226.15 38.65 226.75 39.1 227.0 L41.8 227.3 42.1 227.4 42.55 229.55 Q42.8 230.95 43.35 231.35 L44.35 231.6 45.35 231.65 45.85 232.3 46.35 232.75 47.5 231.6 47.65 231.55 48.0 232.55 48.75 233.05 50.0 233.0 51.1 232.35 Q52.05 231.3 51.15 231.0 L48.9 230.95 Q51.55 229.35 53.1 227.0 L52.6 229.3 Q52.25 230.8 52.65 231.45 54.1 231.5 55.75 229.6 L58.35 226.75 Q58.35 227.85 57.75 229.8 L56.75 232.75 56.1 233.9 54.6 234.0 Q54.4 234.5 54.55 235.35 L54.7 236.7 54.5 237.0 53.1 236.9 Q52.6 236.65 52.45 236.25 L52.3 237.1 Q52.05 237.45 51.25 237.65 49.7 238.0 48.95 236.65 L48.05 233.95 46.5 235.7 Q45.7 236.45 44.3 236.45 42.65 236.45 42.25 235.75 41.95 235.2 42.05 233.45 41.8 234.8 40.65 234.8 40.25 234.05 40.25 232.6 L40.4 230.2 Q39.9 231.3 38.65 231.4 38.1 230.6 38.25 228.85 L38.3 226.15 Q36.85 226.75 36.4 223.25 L35.95 218.6 Q35.4 218.8 35.1 218.6 L34.4 218.0 33.65 216.45 33.15 216.15 32.6 215.95 31.2 214.7 29.8 214.95 Q31.05 216.0 30.65 216.7 29.25 216.8 28.5 216.05 28.7 215.3 29.8 214.95 28.4 213.8 27.3 214.0 27.1 214.35 27.15 215.1 27.2 215.8 26.9 216.15 L18.9 212.3 Q19.0 214.5 19.65 215.6 L17.8 215.6 Q16.6 215.5 16.2 216.0 16.35 217.4 17.35 218.3 L19.55 219.7 Q16.1 219.35 15.55 220.6 14.8 222.45 18.7 223.25 L23.3 223.7 Q22.3 223.7 21.55 224.05 20.35 224.55 20.25 225.65 20.15 227.0 21.75 227.65 L24.4 228.05 22.55 229.8 Q21.55 230.9 21.9 232.3 22.15 233.55 24.4 233.55 L27.65 233.1 Q26.6 233.55 25.6 235.1 24.7 236.45 24.4 237.75 24.95 237.9 25.3 237.35 24.2 239.9 24.05 241.35 24.2 241.2 24.6 241.1 L25.2 240.9 25.7 244.15 Q26.2 246.15 27.35 246.75 27.75 246.5 27.75 245.85 28.05 248.5 28.6 249.55 30.1 249.2 31.6 246.25 33.1 242.9 33.7 241.9 33.6 244.25 33.75 245.1 34.05 247.25 35.35 247.3 35.6 246.85 35.65 245.9 35.75 244.95 35.95 244.6 L36.05 248.05 Q36.3 250.15 37.75 250.7 40.6 251.8 40.7 247.85 40.8 249.6 41.1 250.4 41.65 251.85 42.95 251.8 44.9 251.8 45.1 248.15 L45.0 246.7 45.05 246.7 45.1 248.15 45.4 249.7 46.1 248.55 46.55 247.2 Q47.2 247.7 47.0 249.9 46.85 252.1 47.75 252.75 48.7 253.4 50.05 253.25 51.55 253.05 51.7 251.95 51.6 255.45 51.75 256.7 52.4 256.7 52.75 256.1 L53.55 257.7 Q54.1 258.5 55.0 258.45 56.3 258.35 56.6 256.7 L56.75 254.05 Q57.95 254.75 58.35 253.6 L58.75 251.35 Q61.1 251.1 59.8 256.6 59.15 259.5 57.15 261.85 L57.0 261.75 56.2 260.9 56.0 260.35 55.9 259.25 55.75 259.9 55.75 260.0 55.5 260.5 54.05 259.85 Q52.95 259.5 52.65 258.7 L49.95 259.05 Q48.75 258.8 49.05 257.1 48.15 258.2 47.35 258.0 46.5 257.8 46.7 256.35 L44.7 256.35 45.45 258.75 Q46.0 259.65 47.35 259.7 L49.1 259.95 51.15 261.7 Q52.45 262.6 53.35 261.15 53.35 262.0 53.95 262.45 M43.15 313.0 L42.75 315.9 41.65 315.75 Q40.4 318.1 42.15 319.85 L40.9 327.9 40.0 336.05 Q37.8 336.25 37.55 334.55 37.2 331.85 36.9 331.45 36.65 331.1 36.1 331.05 35.7 331.0 35.65 330.35 35.6 330.1 35.85 329.7 L36.15 329.05 35.35 329.0 35.0 328.05 35.1 326.05 35.4 324.8 Q35.35 324.3 34.85 324.25 L34.4 323.4 Q34.2 323.05 34.45 322.25 35.05 320.45 36.2 320.65 34.65 319.85 34.7 318.35 34.75 316.9 36.2 316.05 34.35 315.55 35.25 313.4 35.9 311.7 37.3 310.4 36.15 309.9 35.9 308.25 35.65 306.5 36.95 306.1 34.7 305.35 35.4 303.05 L35.8 302.2 37.0 302.4 Q36.1 301.7 35.8 302.2 33.0 301.35 32.7 296.65 L32.6 295.95 32.55 293.8 Q32.75 292.65 33.5 292.6 32.25 291.5 31.9 289.35 31.45 287.05 32.7 286.0 L32.6 285.95 33.6 286.45 Q34.2 286.75 34.45 287.0 L33.55 288.45 Q33.05 289.45 33.25 290.1 33.5 290.8 34.3 291.0 35.3 291.2 35.65 291.55 L34.95 294.0 Q34.55 295.45 34.65 296.4 L37.45 296.85 Q39.2 296.75 40.0 295.8 L39.35 297.2 Q39.0 298.15 39.3 298.7 L39.6 299.05 Q40.25 298.25 40.65 298.3 40.95 299.05 40.5 299.3 40.05 299.45 39.6 299.05 38.5 300.35 37.65 302.55 36.8 304.85 37.35 305.55 37.75 306.1 39.2 306.25 L41.3 305.9 Q39.7 310.65 40.4 313.2 L43.15 313.0 M47.65 73.7 L47.8 75.25 47.8 75.6 47.9 76.7 45.8 76.1 43.65 75.65 Q43.15 76.3 43.35 78.15 42.75 78.3 42.35 79.9 L40.55 79.6 Q39.6 79.6 39.1 80.2 38.65 80.8 38.85 81.6 39.05 82.45 39.85 82.4 38.7 82.85 38.75 84.5 L38.8 87.05 37.8 88.95 Q37.25 90.35 38.6 90.35 L37.95 91.6 Q37.35 92.3 37.35 92.75 37.4 93.6 37.9 93.85 L39.35 94.35 38.2 96.2 Q37.3 97.5 37.55 98.0 37.8 98.5 39.4 98.5 L41.65 98.7 Q41.9 100.15 42.3 100.55 L44.25 100.45 45.45 101.45 45.75 102.0 45.15 102.7 Q44.85 103.8 43.55 103.4 L41.35 103.35 39.25 103.65 Q39.15 104.4 39.75 104.8 L40.7 105.05 Q39.9 105.1 39.2 105.55 38.15 106.2 38.25 107.2 38.4 108.4 39.9 108.65 L42.45 108.7 39.85 109.5 Q38.15 109.95 37.25 110.35 L36.05 111.1 35.7 112.0 Q35.1 113.15 35.0 113.8 34.95 114.75 35.8 115.45 34.05 115.75 33.45 117.55 32.95 119.25 34.85 119.35 31.35 119.4 31.55 123.3 31.65 124.9 32.6 125.75 33.7 126.75 35.4 126.15 L35.4 128.65 Q35.55 130.0 36.45 130.9 37.1 131.5 37.9 131.7 38.8 131.95 39.4 131.45 39.15 132.45 40.25 132.7 41.3 132.9 42.25 132.3 L42.55 131.75 42.7 131.9 42.25 132.3 Q42.1 132.75 42.1 133.35 L39.05 133.3 36.0 133.4 Q36.25 134.65 35.3 135.15 L33.35 135.85 33.35 135.45 Q32.35 136.25 30.7 136.0 L30.6 134.45 30.05 134.3 Q29.8 132.6 30.05 130.9 30.4 131.35 30.9 131.35 L30.1 130.75 30.05 130.9 29.7 130.35 29.15 129.75 28.75 128.95 28.75 127.95 28.75 127.0 28.15 126.4 26.85 125.75 Q26.2 125.3 26.3 124.45 L26.35 124.2 26.45 124.0 26.45 123.95 Q26.65 123.3 27.45 123.0 L29.55 122.6 31.45 122.4 30.8 121.4 29.95 120.35 Q29.75 119.9 29.85 119.35 L29.95 118.65 29.3 115.9 Q29.05 113.95 30.6 114.4 29.5 113.95 29.5 112.55 L29.65 112.4 29.6 111.5 29.6 111.35 29.25 108.35 Q30.7 108.2 31.55 107.7 L30.9 106.55 31.05 105.75 34.15 105.4 Q36.0 104.9 36.0 103.45 34.45 104.35 33.65 102.4 33.55 102.2 33.6 101.8 L33.4 101.1 32.55 100.4 31.8 99.7 Q31.35 98.75 31.8 98.5 L32.7 98.0 Q33.05 97.4 32.85 96.1 32.65 94.6 32.75 94.05 33.7 94.15 33.7 93.2 33.5 92.0 33.6 91.6 33.75 91.15 34.45 90.5 35.0 89.95 35.1 89.25 L35.1 88.5 34.9 87.55 34.5 86.6 Q34.15 85.45 34.4 84.9 L34.45 84.8 Q34.65 84.5 35.5 84.2 L37.0 83.4 Q35.7 82.3 36.05 81.1 L36.95 81.05 35.8 79.3 Q35.2 78.25 35.35 77.35 36.25 77.2 37.15 77.6 36.7 76.4 37.2 75.9 37.55 75.55 38.65 75.45 37.45 75.15 37.65 74.05 L36.0 74.0 Q35.1 73.9 34.7 73.2 34.45 72.8 34.45 71.8 34.45 70.75 34.7 70.05 34.3 69.95 34.05 69.7 33.65 69.25 34.05 67.95 34.5 66.7 35.15 66.65 34.15 66.7 34.9 64.6 35.6 62.7 36.25 62.0 35.8 61.35 35.95 60.45 36.1 59.6 36.7 59.15 L36.7 59.65 Q37.55 59.9 38.0 59.45 36.9 61.65 37.05 63.65 37.75 63.9 38.0 63.25 37.25 69.6 39.4 67.4 38.9 69.0 38.9 70.95 38.85 73.65 40.3 73.3 40.3 74.8 41.6 75.1 43.5 75.5 43.75 72.4 45.85 76.8 47.1 72.3 L47.65 73.7 M57.0 123.6 Q57.15 124.25 57.75 124.45 L58.8 124.4 59.5 123.7 59.85 123.8 Q60.25 125.45 60.75 126.25 59.55 126.55 58.6 126.25 57.55 125.85 57.1 124.7 57.15 125.95 55.75 125.75 L55.7 125.0 55.65 125.7 Q54.8 125.55 54.65 124.35 L54.7 122.35 54.2 122.1 56.35 121.8 56.65 122.4 55.0 123.35 Q55.7 124.35 56.9 124.0 L57.0 123.6 M61.35 126.8 Q62.1 127.05 62.65 125.45 63.1 123.65 63.3 123.35 L64.5 124.55 Q65.25 125.2 65.95 125.0 L66.05 123.7 Q66.6 124.25 66.7 125.45 L66.75 127.4 Q65.3 128.2 63.45 127.45 63.85 128.05 63.65 128.55 63.45 129.1 62.75 129.05 62.9 130.4 61.4 130.5 59.95 130.55 59.7 129.55 59.6 131.3 58.65 131.45 56.65 131.9 55.95 126.9 L56.8 127.0 57.75 127.55 Q58.3 127.95 58.8 128.05 L60.4 127.9 Q61.2 127.55 61.35 126.8 M55.5 126.95 Q55.1 128.6 54.15 128.65 L53.85 127.4 53.65 126.15 52.35 126.6 Q52.05 126.55 51.9 125.95 L52.15 125.75 51.85 125.7 51.45 124.3 Q51.3 124.05 50.7 123.7 L49.9 123.1 Q49.45 122.45 49.35 121.55 L49.35 119.9 49.2 118.85 48.6 118.05 Q47.7 117.9 47.6 116.95 47.55 115.6 48.05 114.4 48.45 113.5 50.2 111.35 51.65 109.55 51.95 108.1 L52.15 104.4 52.0 100.7 52.95 114.15 Q52.75 112.85 51.65 112.35 L50.5 116.5 Q50.35 118.55 52.65 119.1 L52.6 120.1 52.6 121.05 53.2 121.85 53.45 124.0 53.65 126.05 Q53.9 126.8 54.4 126.95 L55.5 126.95 M71.05 145.05 L71.95 143.4 72.15 145.6 72.05 145.4 71.6 145.3 71.05 145.05 M72.25 146.05 Q72.5 146.75 72.95 146.8 73.35 146.85 74.05 146.25 L74.95 145.35 Q74.8 147.05 75.85 146.95 76.4 146.9 77.95 146.05 L78.1 146.4 Q76.45 146.75 74.65 147.65 73.55 148.15 73.15 148.05 72.6 147.95 72.35 146.95 L72.25 146.05 M71.8 148.35 L70.35 148.3 Q70.2 147.8 70.8 147.0 L71.8 148.35 M39.05 19.55 L39.8 18.2 Q40.2 17.45 40.1 16.95 L39.55 15.5 Q39.05 14.5 39.0 13.85 L39.0 12.75 38.95 11.65 Q38.75 11.35 38.35 11.35 37.95 10.3 38.25 8.75 L38.55 6.1 Q38.45 5.3 38.2 5.2 37.85 5.1 37.75 4.65 37.5 4.05 37.6 2.8 L39.1 1.7 39.8 0.85 40.95 1.45 40.35 1.7 Q40.85 2.4 40.65 3.55 L40.3 5.5 Q40.2 8.6 41.9 9.8 L40.5 10.0 Q39.75 10.15 39.6 10.9 39.4 12.05 40.9 13.05 41.7 13.6 43.25 14.4 41.95 15.1 41.75 16.35 L41.7 19.1 40.45 19.45 39.05 19.55 M37.05 21.15 L37.05 21.65 37.65 22.75 38.4 24.85 Q38.8 25.9 39.85 26.7 37.85 26.3 37.6 28.7 37.4 30.7 38.25 32.35 36.6 32.4 36.9 35.05 37.0 36.4 37.6 38.6 L37.65 41.05 Q37.7 42.55 38.75 43.05 L37.8 44.95 Q37.35 46.1 38.5 46.7 36.8 49.1 37.75 52.6 36.2 52.9 36.7 56.7 L37.65 56.5 36.85 58.3 Q35.8 57.15 35.35 55.6 34.9 53.9 35.55 52.75 34.7 52.75 34.55 51.7 34.45 50.8 34.8 50.0 L35.6 50.1 35.15 49.6 Q36.45 48.65 36.05 48.0 35.8 47.45 34.8 47.2 L35.1 47.1 Q34.0 47.05 34.35 45.65 34.7 44.1 36.0 43.95 35.4 43.35 35.85 42.35 L36.65 40.75 Q35.5 40.6 35.1 40.3 35.15 39.45 34.85 39.1 L35.05 37.65 34.9 37.2 34.7 36.55 Q34.7 35.9 35.25 34.4 35.75 33.0 35.7 32.25 L35.3 30.95 Q35.2 30.25 35.7 29.15 36.2 28.05 36.15 27.6 L35.7 26.6 Q35.25 25.95 35.3 25.35 35.35 24.3 36.25 23.35 35.1 22.85 35.55 22.2 35.85 21.65 37.05 21.15 M34.7 70.05 Q35.35 70.05 35.2 69.35 34.9 69.45 34.7 70.05 M39.45 75.4 L40.95 75.1 Q40.65 74.85 40.05 74.75 L39.45 75.4 M43.7 148.0 L45.75 149.2 Q47.2 150.2 46.65 151.0 45.6 151.25 44.55 151.0 43.6 150.5 43.4 149.45 L43.35 147.35 43.7 148.0 M40.55 146.15 Q40.3 147.0 38.7 146.65 36.25 146.1 36.7 143.0 L40.35 144.0 Q40.75 145.65 40.55 146.15 M48.0 164.95 L47.05 164.9 Q47.55 163.9 48.0 163.85 L48.0 164.95 M34.2 176.15 L32.9 176.25 Q28.95 176.55 27.15 177.7 27.55 178.4 28.75 178.45 L30.7 178.25 25.55 179.7 Q22.35 180.7 20.75 182.0 L20.0 182.0 Q20.5 180.65 23.2 179.45 L22.8 179.05 Q23.15 178.4 24.2 177.7 L25.7 176.7 26.4 176.1 27.55 176.25 27.9 175.45 28.35 174.75 Q28.85 176.05 30.3 176.15 31.75 176.25 32.6 175.1 33.0 176.1 34.2 176.15 M42.9 227.55 L45.6 227.0 47.95 226.3 Q47.25 226.95 46.75 228.15 L45.1 229.5 43.3 229.65 Q42.8 229.25 42.9 227.55 M36.9 174.8 L38.9 175.4 34.95 176.1 35.45 175.95 Q36.7 175.65 36.9 174.8 M37.0 174.4 L37.05 173.4 Q37.45 173.95 38.15 174.2 L37.0 174.4 M39.8 174.25 Q40.25 174.05 40.4 173.5 L40.7 173.55 41.35 174.35 39.8 174.25 M34.0 211.05 L33.7 210.35 33.7 211.0 34.0 211.05 M20.35 238.95 Q19.85 238.05 18.5 238.35 18.85 239.3 20.35 238.95 M28.15 258.25 L28.1 257.65 28.35 257.35 28.5 257.1 Q28.75 257.7 29.4 257.9 L28.15 258.25" fill="#524c23" fill-rule="evenodd" stroke="none"/>
      <path d="M78.8 208.3 L77.0 209.45 76.9 209.5 74.4 209.3 Q73.0 208.9 72.4 208.05 72.55 209.1 71.4 209.15 70.3 209.15 69.75 208.45 L69.5 209.05 69.25 208.35 67.7 208.35 65.85 207.45 65.0 206.05 65.0 206.0 67.0 206.0 Q67.3 207.2 69.25 207.2 71.15 207.2 71.35 206.1 71.6 207.2 72.45 207.85 73.35 208.5 74.35 208.25 L76.5 207.0 Q77.6 206.2 79.0 206.4 L78.95 208.0 78.85 208.2 78.8 208.3 M54.1 262.35 L53.95 262.45 Q53.35 262.0 53.35 261.15 52.45 262.6 51.15 261.7 L49.1 259.95 47.35 259.7 Q46.0 259.65 45.45 258.75 L44.7 256.35 46.7 256.35 Q46.5 257.8 47.35 258.0 48.15 258.2 49.05 257.1 48.75 258.8 49.95 259.05 L52.65 258.7 Q52.95 259.5 54.05 259.85 L55.5 260.5 54.1 262.35 M39.9 338.2 L39.85 340.3 39.85 340.4 39.85 341.1 38.05 338.9 Q36.95 337.55 36.6 336.35 L36.05 334.5 35.65 332.6 35.55 330.8 35.35 329.0 36.15 329.05 35.85 329.7 Q35.6 330.1 35.65 330.35 35.7 331.0 36.1 331.05 36.65 331.1 36.9 331.45 37.2 331.85 37.55 334.55 37.8 336.25 40.0 336.05 L39.9 338.2 M35.95 0.65 L36.0 0.15 Q37.15 -0.3 39.7 0.8 L39.8 0.85 39.1 1.7 37.6 2.8 Q37.5 4.05 37.75 4.65 37.85 5.1 38.2 5.2 38.45 5.3 38.55 6.1 L38.25 8.75 Q37.95 10.3 38.35 11.35 38.75 11.35 38.95 11.65 L39.0 12.75 39.0 13.85 Q39.05 14.5 39.55 15.5 L40.1 16.95 Q40.2 17.45 39.8 18.2 L39.05 19.55 Q38.75 20.35 38.85 20.7 L37.05 21.15 Q35.85 21.65 35.55 22.2 35.1 22.85 36.25 23.35 35.35 24.3 35.3 25.35 35.25 25.95 35.7 26.6 L36.15 27.6 Q36.2 28.05 35.7 29.15 35.2 30.25 35.3 30.95 L35.7 32.25 Q35.75 33.0 35.25 34.4 34.7 35.9 34.7 36.55 L34.9 37.2 35.05 37.65 34.85 39.1 33.9 38.35 32.75 37.65 32.9 36.8 Q33.25 34.9 33.25 28.7 33.2 23.3 34.2 20.85 34.6 19.85 36.3 18.1 37.75 16.6 37.95 15.05 38.05 14.3 37.45 12.25 L36.6 9.6 Q36.1 7.15 35.95 5.0 L35.9 4.35 35.9 4.15 35.85 3.65 35.95 0.65 M60.75 126.25 L61.3 126.05 61.35 126.8 Q61.2 127.55 60.4 127.9 L58.8 128.05 Q58.3 127.95 57.75 127.55 L56.8 127.0 55.95 126.9 55.5 126.95 54.4 126.95 Q53.9 126.8 53.65 126.05 L53.45 124.0 53.2 121.85 53.0 121.35 54.2 122.1 54.7 122.35 54.65 124.35 Q54.8 125.55 55.65 125.7 L55.75 125.75 Q57.15 125.95 57.1 124.7 57.55 125.85 58.6 126.25 59.55 126.55 60.75 126.25 M70.65 143.9 L71.35 143.0 Q70.75 144.5 71.05 145.05 L71.6 145.3 72.05 145.4 72.15 145.6 72.25 146.05 72.35 146.95 Q72.6 147.95 73.15 148.05 73.55 148.15 74.65 147.65 76.45 146.75 78.1 146.4 L80.0 146.2 80.25 146.2 Q80.8 147.55 79.7 147.8 L77.7 148.0 76.0 148.8 Q75.1 149.25 74.25 148.8 L73.95 149.65 Q73.55 149.75 72.7 149.25 L71.8 148.35 70.8 147.0 Q69.85 145.45 70.0 144.7 L70.65 144.65 70.65 143.9 M67.7 166.85 Q65.7 167.75 64.3 167.3 62.7 166.85 63.5 164.7 64.4 165.3 65.6 165.45 67.15 165.65 67.1 164.45 67.3 165.35 68.0 165.8 L67.7 166.85 M48.05 169.4 L48.0 169.95 46.05 170.05 47.0 169.2 48.05 169.4 M31.55 138.1 L29.65 138.05 29.1 138.0 29.95 136.65 Q30.4 135.65 30.1 135.3 29.7 134.75 28.25 134.9 L26.2 135.05 Q25.05 134.8 24.9 134.5 L24.7 133.3 24.2 131.65 Q24.1 130.9 24.75 130.0 25.7 128.7 25.35 128.2 25.05 127.8 23.55 127.7 L23.5 127.7 23.6 127.35 23.65 126.25 Q23.8 126.1 25.15 125.3 L26.35 124.2 26.3 124.45 Q26.2 125.3 26.85 125.75 L28.15 126.4 28.75 127.0 28.75 127.95 28.75 128.95 29.15 129.75 29.7 130.35 30.05 130.9 30.1 130.75 30.9 131.35 Q30.4 131.35 30.05 130.9 29.8 132.6 30.05 134.3 L30.6 134.45 30.7 136.0 Q32.35 136.25 33.35 135.45 L33.35 135.85 Q33.35 137.85 31.55 138.1 M26.65 143.25 L26.75 143.95 Q26.65 144.45 25.85 144.95 L26.65 143.25 M24.9 146.3 L25.0 147.75 25.05 149.05 Q24.85 150.05 24.0 151.05 L22.35 152.7 21.35 151.9 Q19.55 153.1 19.05 154.1 L19.2 152.1 19.35 152.1 19.85 152.0 21.3 151.85 21.7 151.85 Q21.7 150.25 22.4 149.2 23.2 148.0 24.7 147.85 L24.85 146.4 24.9 146.3 M19.15 156.15 L19.5 156.9 20.25 157.3 Q19.75 158.1 19.6 159.3 19.35 160.65 19.8 161.35 20.2 161.95 20.95 161.95 L22.25 162.05 Q23.05 162.45 22.75 164.2 22.4 166.2 22.8 166.7 23.35 167.4 24.55 167.45 L26.55 167.3 Q25.6 169.55 27.4 170.2 L31.0 170.7 Q31.0 171.9 31.15 172.15 31.35 172.6 32.35 172.65 32.9 172.7 33.8 172.1 34.65 171.55 35.05 171.55 L35.75 171.75 36.4 172.05 Q37.7 172.25 39.7 171.55 41.65 170.8 42.6 169.8 L43.95 169.7 44.8 168.4 45.1 169.4 Q45.3 170.0 45.65 170.05 L45.7 170.05 Q45.8 171.5 44.1 171.4 L43.85 172.4 Q43.4 173.2 42.5 173.5 L40.7 173.55 40.4 173.5 Q40.25 174.05 39.8 174.25 L38.15 174.2 Q37.45 173.95 37.05 173.4 L37.0 174.4 36.9 174.8 Q36.7 175.65 35.45 175.95 L34.2 176.15 Q33.0 176.1 32.6 175.1 31.75 176.25 30.3 176.15 28.85 176.05 28.35 174.75 L27.9 175.45 27.55 176.25 26.4 176.1 25.7 176.7 24.2 177.7 Q23.15 178.4 22.8 179.05 L23.2 179.45 Q20.5 180.65 20.0 182.0 L22.0 182.05 21.5 182.95 Q20.6 184.4 20.5 185.0 20.35 186.05 21.95 185.65 20.85 186.0 20.75 188.9 20.65 191.8 22.0 191.75 L21.7 192.3 23.85 192.2 23.25 193.9 Q22.9 194.9 23.05 195.65 L24.35 195.7 Q22.65 198.4 22.35 200.6 L23.6 200.65 24.1 201.25 23.65 202.1 Q23.45 203.1 23.6 203.65 23.8 204.35 24.6 204.15 23.9 204.85 24.0 205.7 24.1 206.6 24.95 206.7 L26.55 206.75 Q25.65 208.05 27.25 208.65 L29.65 209.05 Q29.15 209.1 28.7 209.6 L27.7 210.25 27.15 209.85 26.7 209.4 25.6 209.65 24.9 209.6 24.3 209.05 24.05 208.3 23.7 207.65 23.05 207.65 22.4 207.75 Q21.5 207.25 21.35 206.1 21.4 206.8 20.65 207.05 L19.4 207.0 19.35 207.65 16.7 207.75 16.8 208.25 17.2 208.7 Q15.7 208.45 15.2 209.2 L15.35 208.9 Q15.6 208.3 15.4 207.0 15.15 205.6 15.3 205.05 L15.7 204.45 16.05 203.95 16.05 202.85 16.0 201.7 17.15 201.7 18.1 201.4 Q17.55 200.35 17.7 199.7 L19.45 199.6 Q19.55 199.1 18.6 197.75 17.7 196.55 18.1 195.9 18.5 195.3 19.25 195.25 L20.6 195.3 Q20.8 194.85 20.4 193.85 L19.7 192.35 19.15 192.8 19.35 191.8 20.2 191.7 19.25 189.85 19.1 186.2 19.55 185.7 20.0 184.75 19.4 182.55 19.15 181.15 19.25 180.6 19.4 180.3 20.25 179.75 Q20.55 179.65 20.65 178.6 L20.65 177.65 21.35 177.0 20.65 177.4 20.7 176.65 Q20.8 175.2 21.3 174.8 L22.9 174.6 24.65 174.9 Q24.55 173.85 24.95 173.35 L27.15 173.7 32.3 173.95 31.05 173.6 29.75 173.3 27.9 172.05 Q27.0 171.35 25.65 171.35 L22.55 171.35 Q21.95 171.0 22.0 170.55 L22.05 169.45 21.45 168.25 Q21.0 167.45 20.95 166.7 19.45 166.8 19.1 165.2 L19.0 162.35 19.15 156.15 M36.85 58.3 L37.6 58.95 Q37.1 58.8 36.7 59.15 36.1 59.6 35.95 60.45 35.8 61.35 36.25 62.0 35.6 62.7 34.9 64.6 34.15 66.7 35.15 66.65 34.5 66.7 34.05 67.95 33.65 69.25 34.05 69.7 34.3 69.95 34.7 70.05 34.45 70.75 34.45 71.8 34.45 72.8 34.7 73.2 35.1 73.9 36.0 74.0 L37.65 74.05 Q37.45 75.15 38.65 75.45 37.55 75.55 37.2 75.9 36.7 76.4 37.15 77.6 36.25 77.2 35.35 77.35 35.2 78.25 35.8 79.3 L36.95 81.05 36.05 81.1 Q35.7 82.3 37.0 83.4 L35.5 84.2 Q34.65 84.5 34.45 84.8 L34.55 84.65 Q33.75 83.7 31.7 83.5 L31.9 81.15 Q34.25 80.85 35.25 80.3 32.95 79.45 31.95 78.8 L31.9 78.45 31.9 78.25 31.85 77.95 31.55 77.15 33.85 76.85 Q35.3 76.75 35.75 76.05 35.2 75.7 33.45 75.2 L30.75 74.3 30.85 72.7 32.35 72.4 Q33.15 72.2 33.55 71.7 33.1 70.6 31.45 69.1 L31.9 67.55 33.65 67.3 Q33.6 66.4 32.5 65.5 L33.35 62.5 33.85 60.25 33.85 60.0 34.0 58.85 34.0 58.4 34.05 57.35 Q35.4 57.0 35.4 56.1 35.45 55.2 34.0 54.35 L33.55 50.6 35.15 49.6 35.6 50.1 34.8 50.0 Q34.45 50.8 34.55 51.7 34.7 52.75 35.55 52.75 34.9 53.9 35.35 55.6 35.8 57.15 36.85 58.3 M32.8 45.95 L33.2 45.6 33.85 45.05 34.75 44.0 34.95 42.35 35.05 40.7 35.1 40.3 Q35.5 40.6 36.65 40.75 L35.85 42.35 Q35.4 43.35 36.0 43.95 34.7 44.1 34.35 45.65 34.0 47.05 35.1 47.1 L34.8 47.2 32.95 47.0 32.8 45.95 M34.7 70.05 Q34.9 69.45 35.2 69.35 35.35 70.05 34.7 70.05 M34.4 84.9 Q34.15 85.45 34.5 86.6 L34.9 87.55 35.1 88.5 35.1 89.25 Q35.0 89.95 34.45 90.5 33.75 91.15 33.6 91.6 33.5 92.0 33.7 93.2 33.7 94.15 32.75 94.05 32.65 94.6 32.85 96.1 33.05 97.4 32.7 98.0 L31.8 98.5 Q31.35 98.75 31.8 99.7 L32.55 100.4 33.4 101.1 33.6 101.8 Q33.55 102.2 33.65 102.4 34.45 104.35 36.0 103.45 36.0 104.9 34.15 105.4 L31.05 105.75 30.9 106.55 28.95 104.65 26.7 103.1 28.7 102.95 28.75 102.7 29.75 102.65 Q29.55 101.95 28.95 101.35 L29.1 100.4 29.65 100.3 29.4 98.6 30.0 95.9 31.45 95.4 Q32.15 95.0 32.15 94.45 32.15 93.45 30.85 92.95 31.8 90.05 32.7 90.8 L32.5 90.45 32.15 89.75 32.05 89.5 Q31.7 88.45 31.6 87.05 34.0 85.6 34.4 84.9 M29.25 108.35 L29.6 111.35 29.6 111.5 Q28.8 109.9 24.1 108.35 27.5 108.6 29.25 108.35 M29.5 112.55 Q29.5 113.95 30.6 114.4 29.05 113.95 29.3 115.9 L29.95 118.65 29.85 119.35 Q29.75 119.9 29.95 120.35 L30.8 121.4 31.45 122.4 29.55 122.6 27.45 123.0 Q26.65 123.3 26.45 123.95 26.05 123.5 25.15 123.4 L23.55 123.35 23.45 122.1 23.35 121.4 23.4 121.4 24.65 121.0 Q25.25 120.7 25.35 120.1 25.45 119.6 24.75 119.15 L23.4 118.35 23.55 117.6 25.85 117.45 Q27.15 117.3 27.35 116.65 L25.65 114.75 26.85 114.2 26.35 113.55 25.85 112.8 29.5 112.55 M39.45 75.4 L40.05 74.75 Q40.65 74.85 40.95 75.1 L39.45 75.4 M39.95 210.25 L40.0 210.1 40.1 210.3 Q40.6 211.45 41.6 211.3 42.2 211.2 43.45 210.45 L43.65 210.35 43.65 210.45 Q43.9 212.15 43.4 212.65 L41.85 212.75 Q41.05 212.5 40.4 212.05 L40.3 212.95 Q38.3 213.35 36.75 212.95 34.85 212.5 34.0 211.05 L37.4 211.2 Q39.65 211.15 39.95 210.25 M41.65 226.0 L43.0 226.0 42.9 227.55 Q42.8 229.25 43.3 229.65 L45.1 229.5 46.75 228.15 Q47.35 227.8 47.65 227.95 L47.7 230.95 48.9 230.95 51.15 231.0 Q52.05 231.3 51.1 232.35 L50.0 233.0 48.75 233.05 48.0 232.55 47.65 231.55 47.6 231.4 47.5 231.6 46.35 232.75 45.85 232.3 45.35 231.65 44.35 231.6 43.35 231.35 Q42.8 230.95 42.55 229.55 L42.1 227.4 42.05 227.3 41.8 227.3 39.1 227.0 Q38.65 226.75 38.3 226.15 37.4 224.6 37.95 221.95 38.5 219.4 39.7 218.35 L41.35 222.7 Q40.5 223.5 41.1 226.0 L41.65 226.0 M20.2 191.7 L20.55 192.6 Q20.4 192.15 20.7 191.7 L20.2 191.7 M34.0 211.05 L33.7 211.0 33.7 210.35 34.0 211.05 M9.55 214.2 Q9.1 215.6 10.2 216.7 11.15 217.6 12.75 217.95 11.0 217.85 10.95 218.7 10.9 219.35 11.65 219.6 L12.9 219.85 12.55 220.2 12.05 220.4 Q11.85 221.55 12.5 222.35 L13.65 224.0 13.95 226.05 Q14.1 226.95 15.65 227.05 L15.7 227.95 17.0 228.0 18.3 228.0 Q18.55 229.35 17.75 232.2 L17.35 233.2 16.25 233.35 Q14.5 234.05 16.1 234.7 L18.95 235.45 Q18.15 237.4 18.5 238.35 17.45 238.6 17.1 239.35 16.6 240.25 17.05 240.9 L17.9 242.0 17.95 242.9 Q17.85 243.45 18.0 243.7 18.45 244.45 20.05 244.45 L22.35 244.5 Q22.1 247.0 23.65 246.3 23.5 249.0 23.7 249.9 22.5 248.0 20.7 248.3 L20.6 246.55 Q20.3 245.55 19.35 246.15 19.45 244.4 18.2 244.75 17.1 245.1 17.0 246.5 L16.4 246.2 15.45 245.05 Q14.75 244.0 14.75 243.1 14.75 242.65 15.25 241.4 L15.9 239.65 Q16.3 237.6 15.15 235.1 L14.05 233.15 Q13.5 232.15 13.35 231.15 13.1 229.65 13.0 227.5 L13.1 226.1 Q13.15 225.2 12.7 224.9 12.3 224.7 11.15 225.4 L9.7 226.3 9.65 224.5 9.0 224.9 Q8.7 224.5 8.35 223.25 L7.85 221.4 7.25 219.4 Q6.95 218.2 6.5 217.5 L7.8 216.25 Q8.1 215.7 7.75 214.5 L7.4 213.7 9.55 214.2 M24.2 250.9 L24.3 251.05 Q25.15 251.55 25.95 250.85 26.7 250.2 26.75 249.3 27.55 252.4 28.8 252.95 L29.0 253.0 Q29.95 253.2 30.3 252.0 30.55 250.2 30.75 249.7 L31.1 250.75 31.55 251.7 32.0 252.05 33.25 250.2 32.9 251.65 Q32.4 253.95 32.75 255.7 33.8 255.75 35.9 254.7 35.4 256.05 36.0 256.35 L37.7 256.9 Q36.2 258.4 35.65 258.1 35.25 257.9 34.65 255.75 35.15 258.25 30.6 258.1 L29.45 259.1 Q28.9 259.75 29.0 260.45 29.1 261.3 29.6 261.5 L31.0 261.75 Q30.2 262.45 29.95 263.4 29.65 264.55 30.9 264.7 29.3 264.8 30.0 267.65 30.65 270.2 31.6 271.1 30.35 270.65 29.5 271.95 L29.2 272.6 28.7 268.0 Q27.8 268.2 27.1 268.85 L27.3 268.5 Q27.6 267.9 27.55 266.8 L27.35 264.95 27.0 263.15 Q26.8 262.0 27.05 261.35 L27.55 260.65 28.05 260.1 28.15 258.25 29.4 257.9 Q28.75 257.7 28.5 257.1 L28.35 257.35 28.1 257.65 27.95 257.0 27.05 256.2 26.05 255.35 25.45 254.2 24.2 250.9 M29.45 275.2 L29.55 275.3 31.5 276.4 31.65 276.45 31.6 276.5 Q30.1 277.0 30.3 278.7 30.5 280.2 31.55 281.3 30.75 281.35 30.5 281.8 L30.3 282.9 Q30.2 283.9 30.8 284.55 L30.9 284.65 30.95 284.7 31.7 285.3 32.1 285.55 32.6 285.95 32.7 286.0 Q31.45 287.05 31.9 289.35 32.25 291.5 33.5 292.6 32.75 292.65 32.55 293.8 L32.35 293.15 32.3 292.3 Q31.95 291.95 31.4 292.0 L31.15 291.85 30.95 289.9 31.5 288.05 Q31.85 286.75 31.65 285.75 L31.05 285.7 30.55 285.65 29.45 275.2 M20.35 238.95 Q18.85 239.3 18.5 238.35 19.85 238.05 20.35 238.95 M14.5 209.95 L15.1 209.3 15.05 209.95 14.5 209.95 M11.8 213.15 L11.9 213.05 12.9 213.4 11.8 213.15 M12.65 211.65 L12.9 211.25 Q13.3 211.6 13.95 211.7 L12.65 211.65 M32.6 295.95 L32.7 296.65 Q33.0 301.35 35.8 302.2 36.1 301.7 37.0 302.4 L35.8 302.2 35.4 303.05 Q34.7 305.35 36.95 306.1 35.65 306.5 35.9 308.25 36.15 309.9 37.3 310.4 35.9 311.7 35.25 313.4 34.35 315.55 36.2 316.05 34.75 316.9 34.7 318.35 34.65 319.85 36.2 320.65 35.05 320.45 34.45 322.25 34.2 323.05 34.4 323.4 L34.85 324.25 Q35.35 324.3 35.4 324.8 L35.1 326.05 35.0 328.05 34.0 327.35 Q33.3 326.7 33.25 325.45 L33.35 323.1 33.3 321.2 33.3 320.3 33.4 319.35 33.95 317.95 33.8 316.7 33.65 315.4 34.05 314.65 34.4 314.0 34.15 313.05 33.75 312.05 Q33.5 311.3 33.7 310.15 33.9 309.0 33.7 308.25 L33.2 306.8 Q32.9 305.9 32.95 305.3 32.95 304.9 33.3 304.45 L33.65 303.45 Q33.65 302.9 33.25 301.9 L32.65 300.4 32.6 299.55 32.35 298.8 32.6 295.95" fill="#433e1c" fill-rule="evenodd" stroke="none"/>
      <path d="M69.4 243.0 L69.4 243.2 66.55 243.35 66.0 243.35 66.0 243.15 68.9 243.0 69.4 243.0 M57.5 262.0 L56.85 262.35 Q55.45 262.75 54.55 261.95 55.4 261.1 55.75 260.0 L55.75 259.9 55.9 259.25 56.0 260.35 56.2 260.9 57.0 261.75 57.15 261.85 57.5 262.0 M51.55 262.9 L51.35 263.0 50.8 263.3 50.8 261.7 50.9 261.9 51.55 262.9 M37.55 346.95 L37.5 348.1 Q37.2 352.3 35.75 354.9 35.25 352.8 35.2 348.1 35.1 343.65 34.4 341.15 L31.85 334.45 Q30.2 330.3 29.75 327.65 29.2 324.5 29.0 318.85 L28.5 310.05 Q28.3 308.45 28.4 298.2 28.4 291.3 26.3 286.9 24.95 284.2 24.15 280.3 23.4 276.6 23.4 273.5 L22.05 273.35 20.65 273.25 Q20.4 270.9 21.3 268.15 22.35 264.9 22.45 263.45 L21.05 263.35 19.65 263.25 19.4 257.9 19.65 258.25 Q20.45 259.2 21.3 259.4 L21.9 259.5 22.0 262.9 23.4 263.05 24.8 263.1 Q24.7 264.55 23.65 267.85 22.75 270.55 23.0 272.9 L24.35 273.05 25.1 273.2 Q24.85 274.45 24.95 275.85 L25.05 277.7 Q25.2 278.85 25.6 279.35 L25.7 279.0 Q25.75 284.05 27.5 283.3 L27.65 283.8 27.55 285.45 Q27.5 286.95 28.0 287.65 28.4 288.25 28.7 287.05 L28.7 290.3 29.5 290.2 29.95 291.9 29.9 292.5 Q29.95 294.4 30.6 294.7 30.05 295.5 29.8 296.8 29.45 298.6 29.7 300.3 L30.65 300.1 30.65 300.2 Q30.35 301.05 30.35 302.15 30.3 303.1 30.6 303.55 30.55 305.85 30.65 307.75 30.15 308.0 29.8 308.35 28.65 309.5 29.0 311.3 L31.0 311.5 31.35 318.55 31.45 320.25 Q30.8 321.1 30.7 321.65 30.45 322.7 30.7 323.7 L31.6 323.4 32.05 327.3 Q32.5 329.9 34.2 334.1 L34.85 335.75 34.7 336.85 Q34.55 338.5 34.75 339.7 L34.95 339.65 Q34.75 340.45 35.05 341.3 35.5 342.8 36.65 340.6 L36.65 340.7 36.75 342.15 37.25 343.45 37.55 346.95 M19.25 256.6 L19.2 256.2 19.65 256.3 19.35 256.45 19.25 256.6 M18.3 252.9 Q17.7 251.75 16.75 250.95 L16.75 250.3 18.35 252.8 18.4 252.9 18.3 252.9 M15.0 249.9 L14.85 249.8 15.0 249.55 15.0 249.9 M13.05 249.45 L11.05 249.55 Q9.25 249.7 8.6 248.85 7.75 247.8 8.5 241.7 L9.2 238.65 9.5 236.95 Q9.95 237.45 10.7 237.45 11.5 237.4 11.85 236.85 L11.55 238.3 10.85 241.35 Q10.6 243.0 10.5 245.05 10.4 247.9 10.9 248.55 11.5 249.25 13.05 249.25 L13.05 249.45 M8.9 235.4 L7.75 234.65 Q8.25 234.2 8.35 232.75 L8.65 233.1 8.85 235.25 8.9 235.4 M6.45 233.35 L5.35 231.85 5.0 231.35 5.95 231.2 6.45 233.3 6.45 233.35 M4.3 230.15 Q2.7 227.55 1.6 224.45 -2.2 213.85 3.15 212.55 2.35 212.35 2.35 209.35 2.35 206.6 2.9 204.75 4.05 204.95 4.95 205.9 4.7 207.3 4.7 209.0 L4.7 209.1 Q4.65 212.0 5.5 212.25 L5.4 212.3 Q2.55 213.05 2.4 216.55 L2.5 218.6 Q2.15 218.8 1.95 219.15 1.75 219.6 2.0 221.15 2.3 222.7 2.65 223.1 3.0 223.5 3.8 223.65 L3.95 224.1 4.0 224.15 4.15 224.65 4.0 225.5 4.1 227.45 4.3 230.15 M8.0 206.5 L8.7 205.65 Q9.75 204.8 10.3 206.2 9.75 207.15 9.65 208.6 L9.0 207.8 8.55 207.25 8.0 206.5 M10.5 205.95 Q10.55 204.15 11.8 202.7 L14.65 199.15 15.3 196.8 15.3 196.95 Q15.5 199.1 16.65 199.3 L14.15 202.35 Q12.5 204.25 12.85 206.75 12.35 204.25 11.05 205.3 L10.5 205.95 M15.5 194.95 L15.6 194.0 Q15.95 194.3 16.45 194.4 15.8 194.4 15.5 194.95 M15.6 190.95 L15.55 190.55 15.4 189.3 15.45 189.5 16.3 190.95 15.6 190.95 M15.3 188.6 L14.95 185.05 Q14.85 183.7 15.0 182.4 15.1 183.6 16.95 183.95 15.9 184.4 16.4 186.0 16.8 187.3 17.65 188.3 16.2 187.45 15.35 187.75 L15.3 188.6 M15.05 182.1 Q15.25 180.65 15.7 179.35 L17.25 176.6 Q18.0 175.15 17.4 173.35 L16.25 171.45 Q16.95 171.35 17.3 170.5 L17.35 172.8 Q17.55 174.5 18.4 174.7 19.35 174.9 19.9 173.75 20.2 175.1 19.55 176.25 L18.2 178.75 18.0 178.85 18.0 178.75 Q17.15 178.15 16.45 178.9 15.85 179.55 16.4 180.9 L17.35 182.4 17.3 182.6 16.3 182.15 15.05 182.1 M15.6 170.6 L15.0 169.8 Q13.4 167.7 13.45 165.6 13.5 164.0 14.35 162.35 L15.55 159.4 Q15.8 158.3 15.65 155.95 15.5 153.6 15.7 152.45 L17.55 152.35 18.0 152.3 Q17.8 153.4 17.95 155.6 18.15 157.95 17.9 159.1 L16.7 162.0 Q15.8 163.65 15.75 165.3 L15.95 166.8 15.8 167.55 Q15.55 169.4 15.6 170.6 M19.35 152.1 Q19.45 150.5 20.1 149.5 20.9 148.35 22.35 148.2 22.4 146.95 23.05 143.8 23.65 140.95 23.55 139.35 L20.55 133.35 Q20.55 132.1 21.05 129.0 21.5 126.3 21.3 124.45 20.8 120.05 21.1 118.55 21.6 115.6 24.5 114.5 21.7 111.2 21.65 107.35 21.55 103.15 25.95 103.3 24.8 103.75 24.3 104.85 L24.05 105.65 23.95 106.85 23.95 107.0 24.0 107.65 Q24.25 110.75 26.35 113.55 L26.85 114.2 25.65 114.75 Q24.2 115.65 23.65 117.35 L23.4 118.25 23.35 119.05 23.35 121.4 23.45 122.1 23.6 124.1 23.65 126.25 23.6 127.35 23.5 127.7 23.1 130.3 22.95 131.65 22.85 133.0 25.85 139.0 25.9 139.85 25.35 143.45 24.85 146.4 24.7 147.85 Q23.2 148.0 22.4 149.2 21.7 150.25 21.7 151.85 L21.3 151.85 19.85 152.0 19.35 152.1 M26.45 103.1 Q26.7 100.25 27.75 95.95 29.2 90.1 30.4 91.15 29.05 89.2 29.25 85.15 L29.6 78.75 Q29.55 77.95 29.0 77.2 28.5 76.45 28.45 75.6 28.25 72.35 29.6 67.8 31.3 62.1 31.5 60.3 32.05 56.15 30.85 48.65 29.7 41.6 30.6 37.1 31.0 35.25 30.9 29.0 30.85 23.65 31.85 21.2 32.25 20.2 33.95 18.45 35.4 16.95 35.6 15.4 35.7 14.65 35.1 12.6 L34.25 9.9 Q33.1 4.1 33.7 0.5 L35.95 0.65 35.85 3.65 35.9 4.15 35.9 4.35 35.95 5.0 Q36.1 7.15 36.6 9.6 L37.45 12.25 Q38.05 14.3 37.95 15.05 37.75 16.6 36.3 18.1 34.6 19.85 34.2 20.85 33.2 23.3 33.25 28.7 33.25 34.9 32.9 36.8 L32.75 37.65 Q32.25 41.1 32.8 45.95 L32.95 47.0 33.15 48.35 Q34.15 54.45 34.0 58.4 L34.0 58.85 33.85 60.0 33.85 60.25 33.35 62.5 31.9 67.45 31.45 69.1 Q30.75 72.0 30.75 74.3 L30.8 75.3 31.05 76.3 31.35 76.85 31.85 77.95 31.9 78.25 31.9 78.45 31.6 84.8 31.6 85.7 31.6 86.5 31.6 87.05 Q31.7 88.45 32.05 89.5 L32.15 89.75 32.7 90.8 Q31.5 89.75 30.05 95.6 L29.4 98.6 28.7 102.95 26.45 103.1 M47.8 75.25 L48.05 73.75 Q48.4 70.2 49.75 69.5 50.6 69.05 51.45 69.8 50.65 70.85 50.4 73.45 L50.4 73.65 50.35 73.7 50.3 74.0 50.35 73.95 Q49.9 76.9 48.05 77.65 L47.8 75.6 47.8 75.25 M19.95 252.8 L19.95 252.7 20.15 252.8 19.95 252.8" fill="url(#gradient0)" fill-rule="evenodd" stroke="none"/>
      <path d="M39.85 341.1 L39.85 346.6 39.85 347.0 39.75 348.1 39.65 349.4 38.85 352.8 38.1 354.55 Q37.6 352.5 37.55 347.75 L37.55 346.95 37.25 343.45 36.75 342.15 36.65 340.7 36.65 340.6 Q35.5 342.8 35.05 341.3 34.75 340.45 34.95 339.65 L34.75 339.7 Q34.55 338.5 34.7 336.85 L34.85 335.75 34.2 334.1 Q32.5 329.9 32.05 327.3 L31.6 323.4 30.7 323.7 Q30.45 322.7 30.7 321.65 30.8 321.1 31.45 320.25 L31.35 318.55 31.0 311.5 29.0 311.3 Q28.65 309.5 29.8 308.35 30.15 308.0 30.65 307.75 30.55 305.85 30.6 303.55 30.3 303.1 30.35 302.15 30.35 301.05 30.65 300.2 L30.65 300.1 29.7 300.3 Q29.45 298.6 29.8 296.8 30.05 295.5 30.6 294.7 29.95 294.4 29.9 292.5 L29.95 291.9 29.5 290.2 28.7 290.3 28.7 287.05 Q28.4 288.25 28.0 287.65 27.5 286.95 27.55 285.45 L27.65 283.8 27.5 283.3 Q25.75 284.05 25.7 279.0 L25.6 279.35 Q25.2 278.85 25.05 277.7 L24.95 275.85 Q24.85 274.45 25.1 273.2 L25.1 273.15 24.35 273.0 23.0 272.9 Q22.75 270.55 23.65 267.85 24.7 264.55 24.8 263.1 L23.4 263.05 22.0 262.9 21.9 259.5 21.3 259.4 Q20.45 259.2 19.65 258.25 L19.4 257.9 19.25 256.6 19.35 256.45 19.65 256.3 19.2 256.2 18.15 255.9 Q15.95 255.15 16.65 253.7 16.95 253.1 18.3 252.9 L18.4 252.9 18.35 252.8 16.75 250.3 16.75 250.95 Q16.6 251.9 15.65 251.65 15.1 251.5 15.0 250.75 L15.0 249.9 15.0 249.55 14.85 249.8 Q14.15 250.75 13.05 250.95 L13.05 249.45 13.05 249.25 Q11.5 249.25 10.9 248.55 10.4 247.9 10.5 245.05 10.6 243.0 10.85 241.35 L11.55 238.3 11.85 236.85 Q11.5 237.4 10.7 237.45 9.95 237.45 9.5 236.95 9.05 236.4 8.9 235.4 L8.85 235.25 8.65 233.1 8.35 232.75 Q8.25 234.2 7.75 234.65 L7.7 234.7 Q6.9 234.65 6.45 233.35 L6.45 233.3 5.95 231.2 5.0 231.35 4.4 231.35 4.3 230.15 4.1 227.45 4.0 225.5 4.15 224.65 4.0 224.15 3.8 223.65 Q3.0 223.5 2.65 223.1 2.3 222.7 2.0 221.15 1.75 219.6 1.95 219.15 2.15 218.8 2.5 218.6 L2.4 216.55 Q2.6 213.8 4.5 212.65 L5.4 212.3 5.5 212.25 Q4.65 212.0 4.7 209.1 L4.7 209.0 Q4.7 207.3 4.95 205.9 L5.2 204.55 5.35 204.45 Q6.55 204.65 7.5 205.8 L7.75 206.15 8.0 206.5 8.55 207.25 9.0 207.8 9.65 208.6 Q9.75 207.15 10.3 206.2 L10.5 205.95 11.05 205.3 Q12.35 204.25 12.85 206.75 12.5 204.25 14.15 202.35 L16.65 199.3 Q15.5 199.1 15.3 196.95 L15.3 196.8 Q15.2 195.5 15.5 194.95 15.8 194.4 16.45 194.4 15.95 194.3 15.6 194.0 14.85 193.5 14.65 192.4 14.45 191.05 15.6 190.95 L16.3 190.95 15.45 189.5 15.4 189.3 15.3 188.6 15.35 187.75 Q16.2 187.45 17.65 188.3 16.8 187.3 16.4 186.0 15.9 184.4 16.95 183.95 15.1 183.6 15.0 182.4 L15.0 182.1 15.05 182.1 16.3 182.15 17.3 182.6 17.35 182.4 16.4 180.9 Q15.85 179.55 16.45 178.9 17.15 178.15 18.0 178.75 L18.0 178.85 18.2 178.75 19.55 176.25 Q20.2 175.1 19.9 173.75 19.35 174.9 18.4 174.7 17.55 174.5 17.35 172.8 L17.3 170.5 Q16.95 171.35 16.25 171.45 L15.7 171.4 15.6 170.6 Q15.55 169.4 15.8 167.55 L15.95 166.8 15.75 165.3 Q15.8 163.65 16.7 162.0 L17.9 159.1 Q18.15 157.95 17.95 155.6 17.8 153.4 18.0 152.3 L18.0 152.1 19.2 152.1 19.05 154.1 19.15 156.15 19.0 162.35 19.1 165.2 Q19.45 166.8 20.95 166.7 21.0 167.45 21.45 168.25 L22.05 169.45 22.0 170.55 Q21.95 171.0 22.55 171.35 L25.65 171.35 Q27.0 171.35 27.9 172.05 L29.75 173.3 31.05 173.6 32.3 173.95 27.15 173.7 24.95 173.35 Q24.55 173.85 24.65 174.9 L22.9 174.6 21.3 174.8 Q20.8 175.2 20.7 176.65 L20.65 177.4 21.35 177.0 20.65 177.65 20.65 178.6 Q20.55 179.65 20.25 179.75 L19.4 180.3 19.25 180.6 19.15 181.15 19.4 182.55 20.0 184.75 19.55 185.7 19.1 186.2 19.25 189.85 20.2 191.7 19.35 191.8 19.15 192.8 19.7 192.35 20.4 193.85 Q20.8 194.85 20.6 195.3 L19.25 195.25 Q18.5 195.3 18.1 195.9 17.7 196.55 18.6 197.75 19.55 199.1 19.45 199.6 L17.7 199.7 Q17.55 200.35 18.1 201.4 L17.15 201.7 16.0 201.7 16.05 202.85 16.05 203.95 15.7 204.45 15.3 205.05 Q15.15 205.6 15.4 207.0 15.6 208.3 15.35 208.9 L15.2 209.2 15.1 209.3 14.5 209.95 Q13.8 210.25 13.4 210.65 L12.9 211.25 12.65 211.65 11.9 213.05 11.8 213.15 Q11.4 213.8 10.65 214.05 L9.55 214.2 7.4 213.7 7.75 214.5 Q8.1 215.7 7.8 216.25 L6.5 217.5 Q6.95 218.2 7.25 219.4 L7.85 221.4 8.35 223.25 Q8.7 224.5 9.0 224.9 L9.65 224.5 9.7 226.3 11.15 225.4 Q12.3 224.7 12.7 224.9 13.15 225.2 13.1 226.1 L13.0 227.5 Q13.1 229.65 13.35 231.15 13.5 232.15 14.05 233.15 L15.15 235.1 Q16.3 237.6 15.9 239.65 L15.25 241.4 Q14.75 242.65 14.75 243.1 14.75 244.0 15.45 245.05 L16.4 246.2 17.0 246.5 Q17.1 245.1 18.2 244.75 19.45 244.4 19.35 246.15 20.3 245.55 20.6 246.55 L20.7 248.3 Q22.5 248.0 23.7 249.9 L24.2 250.9 25.45 254.2 26.05 255.35 27.05 256.2 27.95 257.0 28.1 257.65 28.15 258.25 28.05 260.1 27.55 260.65 27.05 261.35 Q26.8 262.0 27.0 263.15 L27.35 264.95 27.55 266.8 Q27.6 267.9 27.3 268.5 L27.1 268.85 Q27.8 268.2 28.7 268.0 L29.2 272.6 29.45 275.2 30.55 285.65 31.05 285.7 31.65 285.75 Q31.85 286.75 31.5 288.05 L30.95 289.9 31.15 291.85 31.4 292.0 Q31.95 291.95 32.3 292.3 L32.35 293.15 32.55 293.8 32.6 295.95 32.35 298.8 32.6 299.55 32.65 300.4 33.25 301.9 Q33.65 302.9 33.65 303.45 L33.3 304.45 Q32.95 304.9 32.95 305.3 32.9 305.9 33.2 306.8 L33.7 308.25 Q33.9 309.0 33.7 310.15 33.5 311.3 33.75 312.05 L34.15 313.05 34.4 314.0 34.05 314.65 33.65 315.4 33.8 316.7 33.95 317.95 33.4 319.35 33.3 320.3 33.3 321.2 33.35 323.1 33.25 325.45 Q33.3 326.7 34.0 327.35 L35.0 328.05 35.35 329.0 35.55 330.8 35.65 332.6 36.05 334.5 36.6 336.35 Q36.95 337.55 38.05 338.9 L39.85 341.1 M29.1 138.0 L28.95 138.15 27.6 138.8 Q27.45 141.25 26.65 143.25 L25.85 144.95 24.9 146.3 24.85 146.4 25.55 142.75 25.9 139.85 25.85 139.0 22.85 133.0 22.95 131.65 23.1 130.3 23.5 127.7 23.55 127.7 Q25.05 127.8 25.35 128.2 25.7 128.7 24.75 130.0 24.1 130.9 24.2 131.65 L24.7 133.3 24.9 134.5 Q25.05 134.8 26.2 135.05 L28.25 134.9 Q29.7 134.75 30.1 135.3 30.4 135.65 29.95 136.65 L29.1 138.0 M32.75 37.65 L33.9 38.35 34.85 39.1 Q35.15 39.45 35.1 40.3 L35.05 40.7 34.95 42.35 34.75 44.0 33.85 45.05 33.2 45.6 32.8 45.95 Q32.25 41.1 32.75 37.65 M32.95 47.0 L34.8 47.2 Q35.8 47.45 36.05 48.0 36.45 48.65 35.15 49.6 L33.55 50.6 32.95 47.0 M34.05 57.35 L34.0 54.35 Q35.45 55.2 35.4 56.1 35.4 57.0 34.05 57.35 M31.9 67.55 L32.5 65.5 Q33.6 66.4 33.65 67.3 L31.9 67.55 M30.85 72.7 L31.45 69.1 Q33.1 70.6 33.55 71.7 33.15 72.2 32.35 72.4 L30.85 72.7 M30.75 74.3 L33.45 75.2 Q35.2 75.7 35.75 76.05 35.3 76.75 33.85 76.85 L31.55 77.15 31.35 76.85 31.1 76.4 31.05 76.3 30.8 75.3 30.75 74.3 M31.95 78.8 Q32.95 79.45 35.25 80.3 34.25 80.85 31.9 81.15 L31.95 78.8 M31.7 83.5 Q33.75 83.7 34.55 84.65 L34.45 84.8 34.4 84.9 Q34.0 85.6 31.6 87.05 L31.6 86.5 31.6 85.7 31.7 83.5 M30.9 106.55 L31.55 107.7 Q30.7 108.2 29.25 108.35 27.5 108.6 24.1 108.35 L24.0 107.65 23.95 107.0 23.95 106.85 24.05 105.65 24.3 104.85 Q24.95 103.5 26.7 103.1 L28.95 104.65 30.9 106.55 M29.6 111.5 L29.65 112.4 29.5 112.55 25.85 112.8 Q24.55 110.7 24.1 108.35 28.8 109.9 29.6 111.5 M26.45 123.95 L26.45 124.0 26.35 124.2 25.15 125.3 Q23.8 126.1 23.65 126.25 L23.6 124.1 23.55 123.35 25.15 123.4 Q26.05 123.5 26.45 123.95 M30.85 92.95 Q32.15 93.45 32.15 94.45 32.15 95.0 31.45 95.4 L30.0 95.9 30.85 92.95 M29.4 98.6 L29.65 100.3 29.1 100.4 29.4 98.6 M28.95 101.35 Q29.55 101.95 29.75 102.65 L28.75 102.7 28.95 101.35 M23.65 117.35 Q24.2 115.65 25.65 114.75 L27.35 116.65 Q27.15 117.3 25.85 117.45 L23.55 117.6 23.65 117.35 M23.4 118.35 L24.75 119.15 Q25.45 119.6 25.35 120.1 25.25 120.7 24.65 121.0 L23.4 121.4 23.35 121.4 23.35 119.05 23.4 118.35 M20.2 191.7 L20.7 191.7 Q20.4 192.15 20.55 192.6 L20.2 191.7 M19.95 252.8 L20.15 252.8 19.95 252.7 19.95 252.8" fill="#363217" fill-rule="evenodd" stroke="none"/>
    </g>
    <linearGradient gradientTransform="matrix(-0.0495, 0.0, 0.0, -0.0495, 40.75, 177.65)" gradientUnits="userSpaceOnUse" id="gradient0" spreadMethod="pad" x1="-819.2" x2="819.2">
      <stop offset="0.11764705882352941" stop-color="#000000" stop-opacity="0.14901961"/>
      <stop offset="0.25882352941176473" stop-color="#000000" stop-opacity="0.14901961"/>
    </linearGradient>
  </defs>
</svg>
