<?xml version="1.0" encoding="UTF-8" standalone="no"?>
<svg xmlns:xlink="http://www.w3.org/1999/xlink" height="305.3px" width="136.75px" xmlns="http://www.w3.org/2000/svg">
  <g transform="matrix(1.0, 0.0, 0.0, 1.0, 0.0, 0.0)">
    <use height="305.3" transform="matrix(1.0, 0.0, 0.0, 1.0, 0.0, 0.0)" width="136.75" xlink:href="#shape0"/>
  </g>
  <defs>
    <g id="shape0" transform="matrix(1.0, 0.0, 0.0, 1.0, 0.0, 0.0)">
      <path d="M76.95 9.0 Q75.15 9.7 74.45 9.35 L76.45 8.65 76.95 9.0 M75.8 27.45 L76.1 25.95 76.1 38.15 Q76.15 42.45 76.7 44.65 76.95 45.55 80.25 47.65 83.75 49.85 84.5 51.2 85.85 53.65 85.95 58.3 L85.75 71.95 Q85.75 72.95 88.35 77.7 91.3 83.15 92.2 86.65 93.25 90.6 93.6 95.0 L93.85 100.35 92.95 104.45 92.0 97.75 92.15 92.15 Q92.15 90.7 90.65 87.85 L88.35 83.8 88.1 83.3 Q89.15 89.6 89.3 96.2 89.55 103.9 91.2 116.4 L91.75 117.65 Q92.0 116.5 92.05 113.0 L92.0 102.55 92.55 105.4 92.95 104.45 95.35 117.55 95.3 117.5 95.55 118.55 96.1 121.15 96.35 123.75 95.85 129.35 Q95.3 133.25 95.3 136.75 L95.55 151.0 Q95.6 139.2 97.95 127.55 102.0 111.55 103.45 103.95 L103.25 111.2 Q103.25 113.05 104.3 120.1 105.45 127.7 106.45 131.65 L106.75 131.55 Q109.0 129.3 109.8 121.35 110.3 112.3 110.65 109.25 111.3 103.45 112.05 84.9 112.3 89.45 111.95 118.25 111.75 134.0 114.75 133.9 L115.45 120.1 Q116.1 106.95 116.65 103.1 L116.6 112.15 116.75 106.1 117.25 127.05 117.35 133.75 117.25 134.05 Q117.3 134.35 117.9 134.35 L118.6 134.1 118.8 133.6 119.65 134.95 Q120.2 135.75 120.75 135.95 122.1 134.75 123.1 131.0 124.2 126.65 124.2 120.75 L124.4 87.0 124.55 71.6 122.75 69.55 Q121.45 66.8 118.8 65.8 115.95 65.1 114.85 64.35 L113.5 63.7 113.15 77.0 113.1 71.3 113.05 64.2 113.05 63.65 Q112.5 63.75 112.15 63.95 110.0 65.2 109.1 66.1 107.55 67.75 107.75 73.65 L107.55 74.05 Q107.4 48.75 106.75 18.85 L106.75 8.95 107.4 8.95 107.45 8.95 107.75 21.65 108.1 15.35 108.5 8.8 108.5 8.75 109.3 8.35 109.5 30.85 Q109.5 34.65 108.8 42.65 108.1 50.65 108.1 56.0 L108.2 58.2 108.5 58.55 Q109.3 57.5 109.85 54.25 110.7 49.45 110.7 41.5 110.7 26.75 109.6 8.25 L109.6 8.05 Q110.2 7.55 110.5 6.45 L110.75 4.25 110.95 1.15 Q111.3 13.65 111.75 21.55 L111.95 25.85 112.9 23.8 Q113.55 22.55 113.55 21.35 113.4 16.65 113.35 0.05 L113.35 0.0 115.4 0.1 Q115.45 10.65 114.55 29.1 113.65 48.0 113.65 56.15 113.65 58.0 115.05 59.45 L115.9 57.9 116.7 55.9 117.8 60.1 118.95 62.1 Q119.6 63.1 120.3 63.1 123.5 63.1 124.25 52.3 L124.4 41.45 124.55 41.45 Q124.15 26.2 124.1 0.0 L125.6 0.05 Q125.7 11.6 127.1 22.85 128.25 32.15 128.0 34.85 L128.05 37.2 Q128.05 38.25 127.25 38.95 126.4 39.65 126.4 42.55 L126.65 46.15 128.8 45.8 130.55 45.55 Q130.2 66.9 129.2 91.05 L128.25 113.2 129.05 130.95 Q129.8 146.3 129.8 160.8 L129.75 162.6 Q129.55 162.4 129.1 162.4 128.45 162.4 128.25 167.9 128.1 170.7 128.1 174.1 128.1 175.1 129.3 180.35 130.45 186.9 130.35 194.4 129.95 193.65 129.75 189.7 129.55 185.9 127.25 182.1 L126.65 181.2 Q126.5 188.05 124.8 208.95 123.9 204.5 123.9 203.5 L124.35 153.3 121.15 146.6 Q119.2 143.1 117.35 142.75 L116.85 143.15 Q116.85 171.05 116.15 185.75 L116.45 145.6 Q113.55 172.9 113.55 175.55 L112.95 190.2 Q112.35 202.4 112.45 213.2 112.45 221.85 112.1 225.15 111.3 233.25 108.35 235.6 L109.15 236.95 Q107.1 236.5 106.35 233.8 105.55 231.1 106.35 227.05 L106.35 225.35 Q106.55 231.0 109.15 233.9 111.5 230.65 112.0 209.0 112.25 185.0 112.7 178.65 L114.0 165.6 Q115.1 153.3 115.1 141.6 115.1 140.9 114.15 140.85 112.75 140.7 112.1 140.2 L111.35 139.65 110.25 139.4 Q109.95 139.4 107.8 141.5 105.55 143.55 102.45 143.6 L101.1 144.45 99.8 146.45 Q98.7 148.6 98.65 151.1 L98.0 174.0 98.7 196.95 98.8 199.15 98.1 192.55 97.05 163.3 96.7 182.0 96.85 192.8 Q97.05 203.5 97.45 207.2 L97.4 210.4 Q94.65 181.45 94.2 152.1 L94.25 141.35 94.2 132.05 Q94.15 129.75 91.8 125.65 89.5 121.55 89.5 120.0 L89.65 117.3 Q88.5 104.55 88.8 99.9 89.6 88.8 86.7 81.5 83.6 76.15 83.5 75.2 L83.5 74.05 83.75 69.7 Q84.35 62.9 84.35 60.3 84.35 55.85 84.15 54.55 L83.3 51.6 Q82.1 48.95 78.4 47.2 75.7 45.9 75.7 41.1 L75.8 27.45 M77.05 23.9 Q78.6 20.3 78.95 18.6 L80.15 10.6 Q81.25 10.6 82.0 11.35 82.75 12.1 82.75 13.2 L80.55 15.1 Q80.05 15.9 79.5 19.85 79.05 23.35 77.05 23.9 M83.9 21.0 L83.65 9.35 84.1 9.15 85.2 9.35 85.3 15.5 Q85.3 22.65 84.75 28.35 L84.55 29.3 83.9 21.0 M75.45 48.25 Q76.15 49.5 76.4 49.75 76.6 52.5 76.45 61.95 L76.05 77.3 74.65 76.4 Q73.55 75.1 74.0 72.3 L74.4 68.5 Q74.8 67.4 74.8 60.55 74.8 52.6 75.45 48.25 M78.3 60.75 Q78.85 65.5 78.75 74.05 L78.85 75.7 Q79.3 71.35 79.5 62.2 79.65 54.0 80.2 50.55 81.15 51.5 81.4 53.05 81.7 54.75 81.7 60.35 L81.85 65.75 81.95 73.45 79.45 76.15 Q78.75 76.95 77.7 77.2 L78.3 60.75 M101.75 103.9 L102.4 103.65 Q101.7 105.3 101.0 109.1 100.3 113.0 99.8 114.2 L100.4 111.4 101.75 103.9 M99.05 9.65 L99.15 14.05 98.8 19.35 98.65 24.0 98.25 10.35 99.05 9.65 M66.85 178.95 L66.9 178.55 67.0 178.25 67.1 181.85 Q66.8 179.9 66.85 178.95 M73.0 166.05 L72.8 159.25 72.7 156.85 73.9 154.1 75.0 151.15 Q75.85 155.6 75.55 164.2 74.35 165.05 73.8 166.0 73.5 166.5 72.75 168.55 L73.0 166.05 M71.8 137.7 L71.85 135.9 73.25 135.05 Q73.1 142.3 72.6 145.25 L71.8 137.7 M72.0 130.9 L71.85 124.55 71.3 112.4 70.85 106.8 70.4 103.25 70.3 102.55 69.25 92.95 Q70.0 91.4 71.25 90.4 72.3 89.6 72.95 89.6 73.8 89.6 74.15 90.9 74.5 92.2 74.5 95.65 L74.35 108.75 Q73.6 109.3 73.4 109.8 72.8 111.35 72.8 115.9 L73.0 119.1 73.35 122.6 73.6 123.8 Q74.55 122.0 75.5 114.9 76.75 105.3 76.75 92.5 L76.7 89.3 Q76.55 87.3 75.7 86.45 L74.5 86.65 73.3 86.95 72.15 86.6 Q71.9 84.7 71.75 79.1 L72.3 78.85 72.95 78.45 73.3 81.0 73.5 79.6 Q73.75 78.2 74.2 78.15 75.65 78.85 76.15 81.4 L76.7 85.5 77.15 83.7 Q77.45 82.6 78.05 82.2 L78.75 84.6 80.1 93.25 Q79.65 109.5 78.25 118.4 L76.15 131.5 74.35 130.65 72.0 130.9 M82.35 103.5 L82.35 102.3 82.35 95.55 82.35 88.85 Q83.1 92.15 83.1 95.25 L82.85 101.55 82.25 110.55 82.35 103.5 M81.2 83.75 Q81.2 83.0 81.7 80.05 82.2 77.05 82.45 76.15 L82.7 77.25 Q82.6 80.7 81.9 84.15 L81.2 83.75 M130.9 1.2 L131.7 1.65 133.65 3.8 133.65 11.55 133.8 24.45 134.75 23.4 134.9 23.15 135.15 27.05 135.3 30.9 135.4 31.7 Q134.45 34.2 133.7 35.0 L131.95 36.35 Q131.2 36.8 130.7 38.0 L129.9 39.55 129.5 39.75 Q130.45 31.1 130.2 0.9 129.3 24.95 129.3 32.6 L129.0 34.15 128.35 35.0 128.35 0.45 128.35 0.4 130.2 0.9 130.35 0.95 130.65 16.8 130.9 1.2 M136.75 40.85 L136.75 41.35 136.65 42.5 136.55 42.3 Q135.95 41.8 135.5 42.0 L134.75 42.6 Q134.2 43.65 134.3 47.85 L134.4 51.45 Q133.1 59.8 132.9 64.7 L132.8 86.75 133.1 107.05 133.35 149.3 133.25 145.95 132.15 99.4 130.6 45.45 131.45 41.8 Q132.2 39.2 134.1 39.2 135.3 39.2 136.75 40.85 M121.25 298.55 L120.95 298.65 120.55 298.65 Q119.2 298.65 118.55 298.0 117.15 296.45 117.7 291.7 L116.1 292.45 115.7 289.5 114.6 288.45 Q113.5 287.8 111.85 287.85 L106.95 287.55 107.15 287.4 107.8 286.1 108.05 284.6 108.5 284.6 111.8 284.3 113.1 283.1 113.45 279.0 113.3 265.45 113.3 240.1 Q113.3 235.85 113.65 227.45 114.3 210.65 115.95 189.85 L116.0 189.85 116.0 246.25 115.95 286.9 Q116.9 285.6 116.95 277.15 L116.75 261.6 119.6 272.5 Q119.55 277.55 119.9 279.7 120.15 281.1 121.1 284.3 L120.95 296.85 Q120.95 297.85 121.2 298.5 L121.25 298.55 M99.3 290.1 Q99.05 291.55 98.9 300.55 98.8 305.3 96.2 305.3 95.05 305.3 92.45 303.6 89.15 301.5 87.95 298.7 L87.9 297.5 88.15 291.8 88.25 290.4 Q90.2 284.0 85.35 282.25 L81.15 281.05 Q78.75 280.25 77.9 278.95 76.75 276.4 76.6 271.8 L76.65 267.2 76.6 266.6 76.8 265.35 Q77.45 266.5 77.55 272.75 78.55 278.65 83.8 279.4 L84.45 279.35 85.7 279.05 87.0 275.25 Q87.7 273.9 89.4 268.35 L91.15 262.25 91.35 260.7 Q91.1 287.7 91.8 296.95 L92.3 274.15 Q92.65 257.85 92.9 253.05 L93.15 251.85 Q95.6 259.75 95.75 274.85 L95.9 296.0 95.9 300.05 94.8 300.3 94.45 295.45 94.25 300.45 97.25 299.75 Q98.65 277.1 99.0 274.65 L100.7 259.85 Q101.9 249.9 102.0 246.2 L102.0 259.15 102.5 258.0 102.85 262.05 101.8 285.0 Q101.8 286.5 102.7 287.75 101.15 288.0 100.35 288.65 99.85 289.1 99.3 290.1 M112.05 32.0 Q112.25 37.15 111.45 46.45 110.7 55.75 109.65 61.15 L110.2 62.45 Q113.15 60.8 113.4 54.0 L113.1 44.35 Q113.1 39.0 112.05 32.0 M79.55 148.95 Q79.55 154.4 79.2 157.3 L79.45 150.25 79.55 148.95 M73.15 173.4 L73.1 176.8 Q73.1 181.3 74.15 195.25 75.2 209.25 75.2 214.15 L75.05 222.7 74.55 213.75 Q73.95 205.2 72.95 197.85 72.45 200.05 72.8 214.05 L72.65 220.9 Q72.4 227.45 71.95 230.0 70.9 216.2 70.2 204.75 L69.55 206.5 69.9 202.4 69.3 193.6 Q68.65 185.95 68.65 179.2 L68.7 176.65 69.35 175.45 69.8 177.95 Q70.1 177.85 70.3 176.35 L70.35 175.8 Q71.05 178.0 71.4 181.65 71.8 186.0 73.25 191.6 L73.7 193.45 73.1 184.7 72.85 179.0 72.95 176.05 73.15 173.4 M75.05 236.95 L75.05 240.1 74.85 239.65 75.05 236.95 M131.5 194.45 L132.9 174.9 132.85 187.3 Q132.65 192.25 131.5 194.45 M99.25 115.65 Q99.25 116.8 98.6 117.65 97.95 118.45 97.05 118.45 L97.9 117.7 99.25 115.65 M67.6 192.75 L67.5 191.6 69.05 198.55 Q69.4 200.15 69.4 205.15 L69.1 200.75 Q68.9 198.15 68.15 195.6 L67.6 192.75" fill="#726a60" fill-rule="evenodd" stroke="none"/>
      <path d="M76.95 9.0 Q78.05 9.35 78.9 10.85 L78.95 15.65 79.6 12.95 Q80.0 10.9 80.15 10.6 L78.95 18.6 Q78.6 20.3 77.05 23.9 L76.1 25.95 75.8 27.45 75.8 24.95 75.75 27.5 75.45 36.0 74.8 40.35 74.0 43.25 74.05 39.5 74.25 36.55 Q74.1 33.3 72.45 30.85 72.2 30.0 71.85 26.85 71.5 23.95 71.5 23.05 L71.9 15.95 Q71.95 13.0 72.6 11.55 73.1 10.45 74.45 9.35 75.15 9.7 76.95 9.0 M83.65 9.35 L83.65 9.1 84.1 9.15 83.65 9.35 M74.25 69.35 L74.35 55.0 Q74.3 49.35 75.0 47.95 L75.45 48.25 Q74.8 52.6 74.8 60.55 74.8 67.4 74.4 68.5 L74.25 69.35 M76.4 49.75 L76.9 49.85 78.5 49.85 78.7 49.9 78.9 50.65 78.55 54.6 78.05 59.15 78.3 60.75 77.7 77.2 76.05 77.3 76.45 61.95 Q76.6 52.5 76.4 49.75 M80.2 50.55 Q81.1 50.7 81.75 51.1 L83.3 51.6 84.15 54.55 Q84.35 55.85 84.35 60.3 84.35 62.9 83.75 69.7 L83.65 69.6 83.35 73.65 Q82.95 73.15 81.95 73.45 L81.85 65.75 81.7 60.35 Q81.7 54.75 81.4 53.05 81.15 51.5 80.2 50.55 M93.85 100.35 Q95.7 96.4 97.6 76.3 98.6 65.95 98.95 58.05 L98.4 98.75 98.65 101.15 98.9 101.4 99.75 101.6 Q101.85 101.6 102.35 97.3 102.45 100.1 101.75 103.9 L100.4 111.4 99.8 114.2 99.25 115.65 97.9 117.7 97.05 118.45 95.35 117.55 92.95 104.45 92.55 105.4 92.0 102.55 92.0 97.75 92.95 104.45 93.85 100.35 M72.7 156.85 L72.7 153.8 71.8 137.7 72.6 145.25 Q73.1 142.3 73.25 135.05 L74.3 135.0 Q77.75 135.0 78.5 140.45 78.95 143.65 79.15 151.75 L79.15 152.1 79.45 148.15 79.5 147.3 79.45 150.25 79.2 157.3 Q78.9 162.85 78.05 165.45 77.05 168.4 74.95 169.0 L75.35 165.85 Q75.95 164.0 75.55 164.2 75.85 155.6 75.0 151.15 L73.9 154.1 72.7 156.85 M73.55 50.45 L73.7 53.45 Q73.9 66.65 73.4 68.05 L72.75 69.05 Q72.25 69.25 71.45 68.7 L72.5 74.85 72.45 75.0 71.1 73.6 70.8 73.2 70.7 73.1 72.55 59.6 73.55 50.45 M70.05 77.9 Q70.75 77.9 71.25 78.25 71.75 78.6 71.75 79.1 71.9 84.7 72.15 86.6 L73.3 86.95 74.5 86.65 75.7 86.45 Q76.55 87.3 76.7 89.3 L76.75 92.5 Q76.75 105.3 75.5 114.9 74.55 122.0 73.6 123.8 L73.35 122.6 73.0 119.1 72.8 115.9 Q72.8 111.35 73.4 109.8 73.6 109.3 74.35 108.75 L74.5 95.65 Q74.5 92.2 74.15 90.9 73.8 89.6 72.95 89.6 72.3 89.6 71.25 90.4 70.0 91.4 69.25 92.95 L69.15 89.7 Q69.15 86.2 70.05 77.9 M80.1 93.25 L80.7 99.7 80.85 104.25 80.4 110.2 79.75 116.75 Q80.55 114.6 81.35 110.75 82.2 106.6 82.35 103.5 L82.25 110.55 Q82.1 121.95 81.2 132.45 L79.55 148.95 79.55 145.7 79.55 126.2 Q79.1 126.95 79.0 129.15 78.9 131.05 77.7 132.25 77.35 132.25 76.15 131.5 L78.25 118.4 Q79.65 109.5 80.1 93.25 M82.35 95.55 L81.6 92.3 Q81.05 89.8 81.05 88.9 L81.2 83.75 81.9 84.15 82.1 84.8 82.35 88.85 82.35 95.55 M82.45 76.15 L83.15 75.4 82.85 78.1 82.7 77.25 82.45 76.15" fill="#625954" fill-rule="evenodd" stroke="none"/>
      <path d="M80.15 10.6 Q80.0 10.9 79.6 12.95 L78.95 15.65 78.9 10.85 Q78.05 9.35 76.95 9.0 L76.45 8.65 79.4 8.55 81.6 8.8 83.65 9.1 83.65 9.35 83.9 21.0 82.75 13.2 Q82.75 12.1 82.0 11.35 81.25 10.6 80.15 10.6 M74.0 43.25 L74.8 40.35 75.45 36.0 75.75 27.5 75.8 24.95 75.8 27.45 75.7 41.1 Q75.7 45.9 78.4 47.2 82.1 48.95 83.3 51.6 L81.75 51.1 Q81.1 50.7 80.2 50.55 79.65 54.0 79.5 62.2 79.3 71.35 78.85 75.7 L78.75 74.05 Q78.85 65.5 78.3 60.75 L78.05 59.15 78.55 54.6 78.9 50.65 78.7 49.9 78.5 49.85 76.9 49.85 76.4 49.75 Q76.15 49.5 75.45 48.25 L75.0 47.95 Q74.3 49.35 74.35 55.0 L74.25 69.35 74.0 72.3 Q73.55 75.1 74.65 76.4 L76.05 77.3 77.7 77.2 Q78.75 76.95 79.45 76.15 L81.95 73.45 Q82.95 73.15 83.35 73.65 L83.5 74.05 83.5 75.2 83.15 75.4 82.45 76.15 Q82.2 77.05 81.7 80.05 81.2 83.0 81.2 83.75 L81.05 88.9 Q81.05 89.8 81.6 92.3 L82.35 95.55 82.35 102.3 82.35 103.5 Q82.2 106.6 81.35 110.75 80.55 114.6 79.75 116.75 L80.4 110.2 80.85 104.25 80.7 99.7 80.1 93.25 78.75 84.6 78.05 82.2 Q77.45 82.6 77.15 83.7 L76.7 85.5 76.15 81.4 Q75.65 78.85 74.2 78.15 73.75 78.2 73.5 79.6 L73.3 81.0 72.95 78.45 72.3 78.85 71.75 79.1 Q71.75 78.6 71.25 78.25 70.75 77.9 70.05 77.9 L70.7 73.1 70.8 73.2 71.1 73.6 72.45 75.0 72.5 74.85 71.45 68.7 Q72.25 69.25 72.75 69.05 L73.4 68.05 Q73.9 66.65 73.7 53.45 L73.55 50.45 74.0 43.25 M102.4 103.65 Q103.1 102.05 103.15 100.5 103.25 96.3 103.5 93.8 103.8 85.05 103.45 79.7 L103.65 65.35 104.45 90.0 104.2 96.15 103.45 103.95 Q102.0 111.55 97.95 127.55 95.6 139.2 95.55 151.0 L95.3 136.75 Q95.3 133.25 95.85 129.35 L96.35 123.75 96.1 121.15 95.55 118.55 95.3 117.5 95.35 117.55 97.05 118.45 Q97.95 118.45 98.6 117.65 99.25 116.8 99.25 115.65 L99.8 114.2 Q100.3 113.0 101.0 109.1 101.7 105.3 102.4 103.65 M67.0 178.25 L67.55 177.1 Q70.85 173.25 71.85 171.2 L72.1 170.6 72.65 169.1 72.7 168.85 72.75 168.55 Q73.5 166.5 73.8 166.0 74.35 165.05 75.55 164.2 75.95 164.0 75.35 165.85 74.5 170.8 73.95 171.9 L73.15 173.4 72.95 176.05 72.85 179.0 73.1 184.7 73.7 193.45 73.25 191.6 Q71.8 186.0 71.4 181.65 71.05 178.0 70.35 175.8 L70.3 176.35 Q70.1 177.85 69.8 177.95 L69.35 175.45 68.7 176.65 68.65 179.2 Q68.65 185.95 69.3 193.6 L69.9 202.4 69.55 206.5 69.4 207.2 69.4 205.15 Q69.4 200.15 69.05 198.55 L67.5 191.6 67.1 181.85 67.0 178.25 M71.85 135.9 L72.0 130.9 74.35 130.65 76.15 131.5 Q77.35 132.25 77.7 132.25 78.9 131.05 79.0 129.15 79.1 126.95 79.55 126.2 L79.55 145.7 79.45 148.15 79.15 152.1 79.15 151.75 Q78.95 143.65 78.5 140.45 77.75 135.0 74.3 135.0 L73.25 135.05 71.85 135.9 M135.4 31.7 L136.15 35.45 136.7 38.55 136.75 39.8 136.75 40.6 136.75 40.85 Q135.3 39.2 134.1 39.2 132.2 39.2 131.45 41.8 L130.6 45.45 130.6 43.25 130.55 45.55 128.8 45.8 126.65 46.15 126.4 42.55 Q126.4 39.65 127.25 38.95 128.05 38.25 128.05 37.2 L128.0 34.85 128.35 35.0 129.0 34.15 129.3 32.6 Q129.3 24.95 130.2 0.9 130.45 31.1 129.5 39.75 L129.9 39.55 130.7 38.0 Q131.2 36.8 131.95 36.35 L133.7 35.0 Q134.45 34.2 135.4 31.7 M133.35 149.3 L133.35 160.15 133.2 167.75 132.9 174.55 132.9 174.9 131.5 194.45 130.85 200.7 130.55 198.15 130.35 194.4 Q130.45 186.9 129.3 180.35 128.1 175.1 128.1 174.1 128.1 170.7 128.25 167.9 128.45 162.4 129.1 162.4 129.55 162.4 129.75 162.6 L129.8 160.8 Q129.8 146.3 129.05 130.95 L128.25 113.2 129.2 91.05 Q130.2 66.9 130.55 45.55 L130.6 45.45 132.15 99.4 133.25 145.95 133.35 149.3 M130.35 0.95 L130.9 1.2 130.65 16.8 130.35 0.95 M109.6 8.05 L109.6 8.25 Q110.7 26.75 110.7 41.5 110.7 49.45 109.85 54.25 109.3 57.5 108.5 58.55 L108.2 58.2 108.1 56.0 Q108.1 50.65 108.8 42.65 109.5 34.65 109.5 30.85 L109.3 8.35 109.6 8.05 M108.5 8.75 L108.5 8.8 108.1 15.35 107.75 21.65 107.45 8.95 108.5 8.75 M75.05 222.7 L75.05 223.3 75.05 223.4 Q75.35 230.95 75.05 236.95 L74.85 239.65 74.2 238.05 73.1 236.0 Q72.4 234.0 71.95 230.0 72.4 227.45 72.65 220.9 L72.8 214.05 Q72.45 200.05 72.95 197.85 73.95 205.2 74.55 213.75 L75.05 222.7 M92.0 102.55 L92.05 113.0 Q92.0 116.5 91.75 117.65 L91.2 116.4 Q89.55 103.9 89.3 96.2 89.15 89.6 88.1 83.3 L88.35 83.8 90.65 87.85 Q92.15 90.7 92.15 92.15 L92.0 97.75 92.0 102.55 M97.45 207.2 Q97.05 203.5 96.85 192.8 L96.7 182.0 97.05 163.3 98.1 192.55 97.35 184.3 97.45 186.35 97.45 207.2 M109.15 236.95 L108.35 235.6 Q111.3 233.25 112.1 225.15 112.45 221.85 112.45 213.2 112.35 202.4 112.95 190.2 L113.55 175.55 Q113.55 172.9 116.45 145.6 L116.15 185.75 116.1 189.55 116.0 189.85 115.95 189.85 Q113.25 214.2 112.9 218.4 L112.4 228.75 Q111.7 235.75 109.15 236.95 M116.0 246.25 L116.75 261.6 116.95 277.15 Q116.9 285.6 115.95 286.9 L116.0 246.25 M94.8 300.3 L94.25 300.45 94.45 295.45 94.8 300.3" fill="#625952" fill-rule="evenodd" stroke="none"/>
      <path d="M61.6 16.5 L62.8 16.1 63.75 15.95 63.95 15.9 65.8 15.7 69.5 15.75 69.5 15.8 Q67.95 25.5 67.85 27.7 67.7 30.4 67.65 42.8 67.65 45.1 66.05 47.9 64.2 51.25 63.45 56.1 62.9 59.85 62.5 75.1 62.5 88.15 62.95 91.9 63.3 94.6 64.6 100.1 L65.75 98.3 Q66.4 96.3 66.35 91.25 67.05 93.05 67.05 95.4 67.05 103.05 64.2 103.85 62.75 104.05 62.2 104.4 61.3 105.0 61.3 107.15 L61.4 113.7 Q60.35 112.1 59.45 109.55 L57.7 112.25 Q57.05 113.1 56.45 113.1 54.0 112.65 54.0 111.0 54.0 100.4 55.35 93.15 56.85 85.0 57.15 73.95 L57.3 56.95 57.25 38.15 58.05 33.85 60.25 20.45 61.6 16.5 M50.65 74.8 L50.05 53.25 Q50.05 37.65 53.3 32.2 53.7 39.6 53.85 75.0 53.85 76.15 52.8 77.3 L51.25 79.0 51.05 79.45 50.65 74.8 M27.1 17.0 L34.1 16.35 Q33.9 18.7 34.6 23.2 35.4 28.45 36.7 29.5 36.85 25.85 37.25 22.2 L38.0 16.15 39.9 16.15 Q40.6 27.75 40.3 33.7 39.95 41.2 38.05 45.15 36.2 44.7 34.0 42.45 L31.7 40.3 Q28.85 40.3 28.05 35.0 27.65 32.1 27.1 17.0 M8.85 101.4 L10.45 101.45 Q13.95 101.45 13.95 99.25 13.95 98.5 12.5 96.95 11.0 95.35 11.0 90.0 11.0 53.75 11.8 47.0 12.45 41.6 14.0 39.55 15.45 37.7 18.5 37.6 19.15 43.65 17.05 132.25 16.65 128.55 14.8 125.0 L11.2 119.0 Q6.85 111.45 8.85 101.4 M30.05 48.0 L30.4 48.0 Q32.65 48.25 35.15 49.2 L40.0 49.55 41.85 48.4 42.15 49.1 42.55 50.65 40.85 52.95 Q39.6 54.1 37.4 54.1 34.85 54.1 34.65 53.5 35.0 55.7 35.0 58.0 35.0 61.2 34.2 66.65 L31.9 80.1 Q31.05 84.9 30.8 96.9 30.65 103.15 30.65 110.85 L29.5 70.15 28.9 47.95 30.05 48.0 M36.35 119.0 L36.7 110.8 36.7 108.8 39.7 82.5 39.6 86.85 Q39.6 90.6 40.35 103.3 41.1 115.95 41.1 162.3 L40.0 172.1 Q40.0 182.55 41.8 185.15 L41.25 185.3 Q39.5 181.4 37.45 173.8 35.6 166.7 35.6 164.85 36.05 160.85 36.0 157.6 37.75 153.55 37.75 144.35 L37.45 134.95 36.35 119.0 M60.25 171.1 Q60.9 163.45 60.8 148.4 60.75 138.3 62.05 136.35 L63.15 158.05 Q63.15 162.85 62.75 166.75 62.15 172.1 60.45 180.7 L60.25 171.1 M70.15 123.2 L66.85 122.75 Q64.35 121.95 61.8 121.95 L59.4 122.5 56.75 123.05 55.85 123.15 55.7 123.25 52.4 176.45 52.25 152.4 Q52.45 137.55 53.05 124.95 L53.05 132.95 53.8 117.35 61.75 119.1 Q67.9 120.7 70.15 123.2 M53.05 117.85 L51.45 117.6 53.05 117.3 53.05 117.85 M47.0 114.8 Q48.75 109.7 50.15 100.0 51.55 90.5 51.2 86.65 L51.2 85.3 Q51.35 86.25 52.25 89.2 53.05 92.65 53.05 97.05 53.05 104.7 52.3 109.0 51.1 116.0 47.95 116.05 L47.0 114.8 M75.1 301.3 L75.05 301.35 74.75 301.55 Q74.15 295.3 73.95 289.5 L75.95 299.05 75.1 301.3 M67.5 303.15 Q62.45 300.95 62.85 291.5 L63.1 284.65 Q62.9 281.2 61.3 279.9 61.7 271.3 62.0 269.15 62.15 267.75 62.95 265.5 L65.3 273.1 66.25 266.7 67.65 277.9 Q67.95 282.25 67.95 303.3 L67.5 303.15 M10.65 174.75 L10.65 165.0 Q11.55 168.4 11.55 170.95 L10.65 174.75 M9.9 157.35 L8.05 155.6 6.05 153.95 0.65 153.25 0.4 134.25 0.0 129.4 0.05 129.05 0.75 128.85 Q0.9 129.85 4.65 134.5 L9.0 140.3 9.65 144.25 9.8 145.25 10.1 147.7 Q10.2 150.3 9.9 157.35 M36.05 147.45 L36.2 126.6 36.4 139.3 Q36.4 143.5 36.05 147.45 M51.35 193.85 L49.3 195.5 Q47.1 196.6 46.8 196.8 43.85 198.8 44.1 204.55 44.35 209.5 43.9 215.1 L42.75 230.45 41.25 212.5 40.4 201.35 Q39.5 197.0 43.65 194.6 45.75 193.4 48.1 193.05 L51.35 193.85 M59.7 196.8 L60.55 196.4 Q61.85 196.55 64.2 197.95 66.6 199.35 66.95 200.2 L67.2 202.55 67.9 209.1 65.7 208.7 Q62.6 208.7 62.4 225.05 62.1 249.4 61.05 256.8 60.0 252.1 59.5 247.1 L59.0 242.7 58.4 243.2 58.45 239.4 59.15 220.25 59.7 196.8 M29.35 224.75 Q28.7 227.15 27.15 236.85 L26.75 238.05 Q26.35 229.85 26.35 224.4 26.35 207.95 27.95 202.8 28.7 200.3 31.85 198.1 31.2 201.8 30.3 211.2 29.4 220.75 29.35 224.75" fill="#b3aa9e" fill-rule="evenodd" stroke="none"/>
      <path d="M71.9 15.95 L71.5 23.05 Q71.5 23.95 71.85 26.85 72.2 30.0 72.45 30.85 L72.55 59.6 70.7 73.1 70.05 77.9 Q69.15 86.2 69.15 89.7 L69.25 92.95 70.3 102.55 70.4 103.25 70.85 106.8 71.3 112.4 Q70.05 112.75 68.75 114.9 67.65 116.75 65.75 116.75 64.55 116.75 63.35 115.7 L61.4 113.7 61.3 107.15 Q61.3 105.0 62.2 104.4 62.75 104.05 64.2 103.85 67.05 103.05 67.05 95.4 67.05 93.05 66.35 91.25 66.4 96.3 65.75 98.3 L64.6 100.1 Q63.3 94.6 62.95 91.9 62.5 88.15 62.5 75.1 62.9 59.85 63.45 56.1 64.2 51.25 66.05 47.9 67.65 45.1 67.65 42.8 67.7 30.4 67.85 27.7 67.95 25.5 69.5 15.8 L71.9 15.95 M60.85 16.9 L61.6 16.5 60.25 20.45 60.85 16.9 M46.1 17.25 Q47.7 17.25 48.85 19.0 49.95 20.7 49.95 23.15 49.35 30.35 49.0 40.85 L49.4 38.95 50.9 33.9 Q52.35 29.65 52.95 28.85 L53.3 32.2 Q50.05 37.65 50.05 53.25 L50.65 74.8 Q49.45 63.0 49.35 56.85 49.2 45.1 48.9 40.85 L49.4 27.25 Q49.6 19.8 46.35 17.4 L46.1 17.25 M43.65 16.5 L44.0 20.45 44.15 24.0 Q44.15 27.1 43.3 30.5 42.4 34.05 42.35 36.25 L42.6 35.1 Q42.05 37.95 42.1 40.8 L42.1 40.9 Q42.05 42.65 40.95 43.9 39.75 45.15 38.05 45.15 39.95 41.2 40.3 33.7 40.6 27.75 39.9 16.15 L43.65 16.5 M46.1 49.25 L46.05 51.25 46.05 46.45 46.1 49.25 M34.1 16.35 L38.0 16.15 37.25 22.2 Q36.85 25.85 36.7 29.5 35.4 28.45 34.6 23.2 33.9 18.7 34.1 16.35 M18.5 37.6 L22.35 37.85 Q23.55 37.85 24.15 37.45 L24.95 36.55 26.1 52.75 27.55 75.1 27.55 77.0 28.2 62.95 28.4 47.9 30.05 48.0 28.9 47.95 29.5 70.15 30.65 110.85 Q30.65 103.15 30.8 96.9 31.05 84.9 31.9 80.1 L34.2 66.65 Q35.0 61.2 35.0 58.0 35.0 55.7 34.65 53.5 34.85 54.1 37.4 54.1 39.6 54.1 40.85 52.95 L42.55 50.65 41.8 67.8 Q41.8 76.55 42.25 90.95 L43.25 127.7 43.55 127.3 44.45 123.55 Q45.35 120.5 46.95 120.0 48.75 119.45 49.75 118.8 L51.45 117.6 53.05 117.85 53.05 124.95 Q52.45 137.55 52.25 152.4 L52.4 176.45 55.7 123.25 55.85 123.15 56.75 123.05 59.4 122.5 61.8 121.95 Q64.35 121.95 66.85 122.75 L70.15 123.2 71.85 124.55 72.0 130.9 71.85 135.9 71.8 137.7 72.7 153.8 72.7 156.85 72.8 159.25 73.0 166.05 72.7 168.85 72.65 169.1 72.1 170.6 71.85 171.2 70.3 173.35 Q68.4 175.6 67.55 177.1 L67.0 178.25 66.9 178.55 66.85 178.95 Q66.2 183.9 66.2 189.5 L64.35 187.9 63.4 187.25 Q62.9 187.25 62.5 187.65 L61.55 188.0 Q60.95 188.0 60.7 187.7 L60.6 187.4 60.45 180.7 Q62.15 172.1 62.75 166.75 63.15 162.85 63.15 158.05 L62.05 136.35 Q60.75 138.3 60.8 148.4 60.9 163.45 60.25 171.1 L59.3 156.7 59.0 157.7 Q57.4 165.95 56.65 176.9 L55.95 187.55 Q55.0 186.7 53.8 186.65 L52.3 186.4 Q51.15 185.7 51.15 177.65 L51.25 139.6 Q51.05 147.45 48.9 160.05 L46.5 172.5 44.9 180.15 Q44.35 183.1 43.75 183.95 L42.9 184.85 41.8 185.15 Q40.0 182.55 40.0 172.1 L41.1 162.3 Q41.1 115.95 40.35 103.3 39.6 90.6 39.6 86.85 L39.7 82.5 36.7 108.8 36.7 110.8 36.35 119.0 36.2 126.6 36.05 147.45 Q35.3 155.6 34.1 157.3 L33.0 157.55 Q33.75 155.25 34.1 152.35 34.5 150.0 33.6 151.25 L32.6 153.1 30.7 155.05 29.4 155.25 Q28.05 155.25 27.5 154.45 27.05 153.8 27.05 152.4 27.05 146.85 27.6 122.7 L28.1 98.4 27.5 118.35 Q27.2 128.15 25.95 134.6 L22.65 148.55 Q21.95 151.75 20.9 151.9 19.75 152.0 19.05 154.0 L18.05 147.45 Q16.9 141.05 15.55 139.25 13.3 136.15 8.65 130.5 L4.65 125.6 5.1 123.6 5.65 121.1 5.7 113.85 5.55 107.05 4.75 106.3 3.65 105.7 2.15 104.1 1.25 102.75 1.45 100.85 8.85 101.4 Q6.85 111.45 11.2 119.0 L14.8 125.0 Q16.65 128.55 17.05 132.25 19.15 43.65 18.5 37.6 M47.95 116.05 Q47.55 116.05 47.3 115.7 47.0 115.3 47.0 114.8 L47.95 116.05 M77.9 278.95 L78.4 294.55 Q78.4 298.35 77.85 299.2 L75.1 301.3 75.95 299.05 73.95 289.5 Q74.15 295.3 74.75 301.55 L75.05 301.35 71.9 303.8 Q70.45 304.55 68.55 303.55 L70.55 304.05 71.95 280.9 73.0 260.1 73.75 262.6 75.9 245.2 Q76.05 258.45 76.55 266.1 L76.6 266.6 76.65 267.2 76.6 271.8 Q76.75 276.4 77.9 278.95 M68.25 303.45 L67.5 303.15 67.95 303.3 Q67.95 282.25 67.65 277.9 L66.25 266.7 65.3 273.1 62.95 265.5 Q62.15 267.75 62.0 269.15 61.7 271.3 61.3 279.9 L56.9 279.4 52.2 278.85 Q52.15 270.7 54.8 257.8 56.8 247.75 58.4 243.2 L59.0 242.7 59.5 247.1 Q60.0 252.1 61.05 256.8 62.1 249.4 62.4 225.05 62.6 208.7 65.7 208.7 L67.9 209.1 68.0 210.2 68.8 222.95 Q69.6 232.8 70.9 234.45 70.65 246.75 70.85 279.1 70.95 288.75 68.25 303.45 M50.2 278.45 L47.65 277.8 Q49.15 275.15 50.1 271.5 L50.2 278.45 M43.7 275.8 Q42.05 274.05 42.15 269.7 42.65 262.5 42.35 257.8 41.8 248.95 41.55 232.65 41.4 223.5 40.3 221.35 40.75 215.3 40.4 201.35 L41.25 212.5 42.75 230.45 43.9 215.1 Q44.35 209.5 44.1 204.55 43.85 198.8 46.8 196.8 47.1 196.6 49.3 195.5 L51.35 193.85 Q53.15 194.65 54.55 194.65 53.6 196.55 52.7 209.8 52.15 218.5 51.9 226.25 L51.7 236.45 Q51.35 245.5 49.95 257.85 49.35 263.3 47.25 269.6 L47.3 274.6 Q46.85 276.05 43.7 275.8 M26.55 243.25 L25.4 242.95 Q24.35 242.65 23.05 241.8 L26.55 243.25 M22.5 241.45 Q17.0 239.65 16.1 235.2 L16.0 226.65 15.9 213.65 15.75 200.65 Q15.75 193.0 13.1 190.8 L11.3 189.15 Q10.45 187.95 10.45 185.4 L10.65 174.75 11.55 170.95 11.35 173.65 Q11.35 174.95 12.05 175.4 L13.85 176.15 Q17.05 177.55 19.3 183.5 20.25 186.0 20.05 190.55 L19.55 199.85 Q19.6 213.85 20.85 221.25 22.25 229.35 22.5 241.45 M0.0 129.4 L0.0 129.1 0.05 129.05 0.0 129.4 M0.4 127.3 L0.95 123.25 1.1 123.3 0.65 127.2 0.75 125.5 0.4 127.3 M0.5 127.35 L0.65 127.2 1.05 128.8 0.5 127.35 M9.0 140.3 L9.65 144.1 9.8 145.25 9.65 144.25 9.0 140.3 M60.55 196.4 L59.7 196.8 59.7 196.35 60.55 196.4 M31.85 198.1 Q32.95 197.2 33.35 210.2 L32.95 214.15 32.4 219.3 Q32.35 220.3 30.9 222.5 L29.35 224.75 Q29.4 220.75 30.3 211.2 31.2 201.8 31.85 198.1 M25.25 237.95 L25.65 238.85 25.85 239.9 25.3 240.6 25.25 237.95" fill="#9b9286" fill-rule="evenodd" stroke="none"/>
      <path d="M76.1 25.95 L77.05 23.9 Q79.05 23.35 79.5 19.85 80.05 15.9 80.55 15.1 L82.75 13.2 83.9 21.0 84.55 29.3 84.75 28.35 Q85.3 22.65 85.3 15.5 L85.2 9.35 84.1 9.15 83.65 9.1 81.6 8.8 87.9 9.6 85.75 9.4 87.05 21.6 Q87.8 28.55 87.7 36.8 87.4 56.9 89.6 64.5 L91.4 70.0 Q92.4 73.45 92.75 78.6 L92.95 76.5 93.3 58.25 93.25 20.8 Q94.15 20.2 94.8 18.65 L98.25 10.35 98.65 24.0 98.8 19.35 99.15 14.05 99.05 9.65 99.65 9.35 100.35 45.5 Q100.5 33.9 101.3 24.2 L102.75 8.7 107.4 8.95 106.75 8.95 106.75 18.85 Q107.4 48.75 107.55 74.05 L107.75 73.65 Q107.55 67.75 109.1 66.1 110.0 65.2 112.15 63.95 L113.05 64.2 113.1 71.3 Q112.6 92.3 112.6 98.75 L112.7 122.7 114.55 69.4 115.4 69.4 Q117.6 70.65 117.5 69.7 117.4 68.3 118.05 68.3 121.0 68.3 121.85 68.8 L122.75 69.55 124.55 71.6 124.4 87.0 124.2 120.75 Q124.2 126.65 123.1 131.0 122.1 134.75 120.75 135.95 120.2 135.75 119.65 134.95 L118.8 133.6 118.6 134.1 117.9 134.35 Q117.3 134.35 117.25 134.05 L117.35 133.75 117.25 127.05 116.75 106.1 116.6 112.15 116.65 103.1 Q116.1 106.95 115.45 120.1 L114.75 133.9 Q111.75 134.0 111.95 118.25 112.3 89.45 112.05 84.9 111.3 103.45 110.65 109.25 110.3 112.3 109.8 121.35 109.0 129.3 106.75 131.55 L106.05 127.5 Q105.7 124.6 105.7 119.75 L106.2 111.45 106.3 88.15 106.25 63.8 105.5 33.2 105.55 28.85 Q103.7 57.2 103.7 59.9 L103.65 65.35 103.45 79.7 Q103.8 85.05 103.5 93.8 103.25 96.3 103.15 100.5 103.1 102.05 102.4 103.65 L101.75 103.9 Q102.45 100.1 102.35 97.3 101.85 101.6 99.75 101.6 L98.9 101.4 98.65 101.15 98.4 98.75 98.95 58.05 Q98.6 65.95 97.6 76.3 95.7 96.4 93.85 100.35 L93.6 95.0 Q93.25 90.6 92.2 86.65 91.3 83.15 88.35 77.7 85.75 72.95 85.75 71.95 L85.95 58.3 Q85.85 53.65 84.5 51.2 83.75 49.85 80.25 47.65 76.95 45.55 76.7 44.65 76.15 42.45 76.1 38.15 L76.1 25.95 M117.25 127.05 L118.1 127.05 118.8 105.3 118.6 95.35 118.2 82.7 Q117.35 87.65 117.25 93.9 L117.25 127.05 M66.2 189.5 Q66.2 183.9 66.85 178.95 66.8 179.9 67.1 181.85 L67.5 191.6 67.6 192.75 67.2 202.55 66.95 200.2 66.2 189.5 M67.55 177.1 Q68.4 175.6 70.3 173.35 L71.85 171.2 Q70.85 173.25 67.55 177.1 M72.7 168.85 L73.0 166.05 72.75 168.55 72.7 168.85 M83.5 74.05 L83.35 73.65 83.65 69.6 83.75 69.7 83.5 74.05 M74.0 72.3 L74.25 69.35 74.4 68.5 74.0 72.3 M134.3 6.45 L135.15 27.05 134.9 23.15 134.75 23.4 133.8 24.45 133.65 11.55 134.3 6.45 M136.65 42.5 L136.6 42.95 136.55 42.3 136.65 42.5 M133.35 160.15 L133.35 164.25 133.2 167.75 133.35 160.15 M132.6 219.15 L132.95 239.4 132.7 247.5 Q126.85 247.75 125.45 248.55 125.8 246.6 125.4 241.05 L124.9 235.9 Q125.0 241.85 125.4 248.6 L124.2 254.3 Q124.0 254.8 124.1 255.8 124.8 263.7 124.8 290.35 124.8 293.2 124.25 294.75 L123.35 296.85 Q123.65 296.15 121.45 271.15 L121.5 255.25 121.35 225.3 120.55 213.1 120.55 214.55 Q120.3 214.55 120.0 219.45 L118.7 211.85 118.55 211.85 Q118.1 216.8 117.7 232.6 117.7 243.45 118.5 253.95 119.45 266.35 119.6 272.5 L116.75 261.6 116.0 246.25 116.0 189.85 116.1 189.55 Q116.95 192.4 117.1 195.6 117.4 200.9 117.65 203.1 L118.35 174.25 Q118.75 156.55 120.25 155.05 L121.35 155.6 Q121.95 155.95 122.5 155.95 123.4 155.75 124.35 153.3 L123.9 203.5 Q123.9 204.5 124.8 208.95 126.5 188.05 126.65 181.2 L127.25 182.1 Q129.55 185.9 129.75 189.7 129.95 193.65 130.35 194.4 L130.55 198.15 Q128.85 228.25 130.05 239.0 L130.5 242.2 130.7 243.15 Q131.35 238.05 131.8 231.7 L132.6 219.15 M122.65 297.6 L121.25 298.55 121.2 298.5 Q120.95 297.85 120.95 296.85 L121.1 284.3 121.6 289.35 Q121.95 294.2 122.65 297.6 M120.95 298.65 L120.25 298.75 Q118.35 298.75 117.2 296.75 116.25 295.1 116.1 292.45 L117.7 291.7 Q117.15 296.45 118.55 298.0 119.2 298.65 120.55 298.65 L120.95 298.65 M115.7 289.5 Q115.1 288.95 113.85 288.4 112.6 287.85 111.85 287.85 113.5 287.8 114.6 288.45 L115.7 289.5 M106.95 287.55 L102.7 287.75 100.95 288.8 99.3 290.1 Q99.85 289.1 100.35 288.65 101.15 288.0 102.7 287.75 101.8 286.5 101.8 285.0 L102.85 262.05 102.5 258.0 102.0 259.15 102.0 246.2 Q101.9 249.9 100.7 259.85 L99.0 274.65 100.05 258.1 100.3 247.95 Q100.3 241.65 99.35 236.7 L97.3 228.15 97.05 234.15 96.4 223.25 95.9 216.6 95.9 268.5 96.25 299.95 97.25 299.75 94.25 300.45 94.8 300.3 95.9 300.05 95.9 296.0 95.75 274.85 Q95.6 259.75 93.15 251.85 L92.9 253.05 Q92.65 257.85 92.3 274.15 L91.8 296.95 Q91.1 287.7 91.35 260.7 L91.15 262.25 89.4 268.35 Q87.7 273.9 87.0 275.25 L86.1 252.55 85.8 254.25 Q85.45 256.1 85.45 256.7 L85.6 263.4 85.7 279.05 84.45 279.35 83.8 279.4 83.65 262.6 Q83.2 264.0 82.8 261.4 82.8 264.25 82.25 267.25 81.75 269.8 81.35 270.4 L80.8 269.25 80.55 269.1 80.25 260.7 79.95 252.15 Q79.7 248.2 78.5 242.8 77.4 237.85 77.4 235.7 77.05 226.65 77.0 217.15 76.95 198.4 78.6 191.05 80.25 204.7 82.55 232.8 L82.65 208.7 81.7 184.75 82.1 180.65 Q82.5 177.05 82.35 175.95 L82.35 171.75 Q82.45 168.2 82.75 167.3 L85.8 159.15 Q86.7 156.65 86.7 155.2 86.25 146.95 86.4 142.7 86.6 136.2 89.65 117.3 L89.5 120.0 Q89.5 121.55 91.8 125.65 94.15 129.75 94.2 132.05 L94.25 141.35 94.2 152.1 Q94.65 181.45 97.4 210.4 L97.45 207.2 97.45 186.35 97.35 184.3 98.1 192.55 98.8 199.15 98.7 196.95 99.55 205.9 Q99.5 171.45 100.2 157.85 100.95 149.35 101.1 144.45 L102.45 143.6 Q102.9 148.25 103.45 149.75 L104.75 148.25 105.6 146.75 106.05 147.95 106.35 150.75 107.3 176.8 108.0 162.55 Q108.3 156.65 108.0 153.95 107.4 149.0 109.6 144.45 L112.1 140.2 Q112.75 140.7 114.15 140.85 115.1 140.9 115.1 141.6 115.1 153.3 114.0 165.6 L112.7 178.65 Q112.25 185.0 112.0 209.0 111.5 230.65 109.15 233.9 106.55 231.0 106.35 225.35 L106.35 227.05 Q105.55 231.1 106.35 233.8 107.1 236.5 109.15 236.95 111.7 235.75 112.4 228.75 L112.9 218.4 Q113.25 214.2 115.95 189.85 114.3 210.65 113.65 227.45 113.3 235.85 113.3 240.1 111.85 243.05 111.45 255.75 111.3 260.65 111.3 273.85 L111.45 278.6 111.8 284.3 108.5 284.6 108.3 252.9 107.15 287.4 106.95 287.55 M87.9 297.5 L87.85 296.1 88.15 291.8 87.9 297.5 M125.6 0.05 L128.35 0.45 128.35 35.0 128.0 34.85 Q128.25 32.15 127.1 22.85 125.7 11.6 125.6 0.05 M130.55 45.55 L130.6 43.25 130.6 45.45 130.55 45.55 M124.1 0.0 Q124.15 26.2 124.55 41.45 L124.4 41.45 124.25 52.3 Q123.5 63.1 120.3 63.1 119.6 63.1 118.95 62.1 L117.8 60.1 117.75 54.8 Q117.75 51.25 118.25 50.3 118.5 49.9 119.4 49.85 121.0 49.7 121.0 41.75 121.0 38.8 120.65 38.75 120.65 42.15 120.2 45.55 L119.8 46.25 119.6 46.45 Q119.1 43.2 118.9 40.1 118.45 34.55 118.45 21.05 118.8 4.95 119.2 0.2 L124.1 0.0 M111.75 21.55 Q111.3 13.65 110.95 1.15 L111.4 0.45 Q111.85 11.7 111.75 21.55 M134.3 47.85 Q134.2 43.65 134.75 42.6 L135.5 42.0 134.3 47.85 M91.1 145.5 L91.05 145.5 Q90.95 206.9 90.25 226.3 89.9 227.05 89.55 231.0 L89.75 230.65 91.3 227.6 Q92.5 225.4 92.5 224.45 92.5 192.4 92.2 180.9 91.6 166.3 91.1 145.5 M113.3 265.45 L113.45 279.0 113.1 283.1 113.3 265.45 M79.45 148.15 L79.55 145.7 79.55 148.95 79.45 150.25 79.5 147.3 79.45 148.15 M68.15 195.6 Q68.9 198.15 69.1 200.75 L69.4 205.15 69.4 207.2 69.55 206.5 70.2 204.75 Q70.9 216.2 71.95 230.0 72.4 234.0 73.1 236.0 L74.2 238.05 70.9 234.45 Q69.6 232.8 68.8 222.95 L68.0 210.2 68.15 195.6" fill="#8b8178" fill-rule="evenodd" stroke="none"/>
      <path d="M72.45 30.85 Q74.1 33.3 74.25 36.55 L74.05 39.5 74.0 43.25 73.55 50.45 72.55 59.6 72.45 30.85 M57.25 38.15 L57.3 56.95 57.15 73.95 Q56.85 85.0 55.35 93.15 54.0 100.4 54.0 111.0 54.0 112.65 56.45 113.1 57.05 113.1 57.7 112.25 L59.45 109.55 Q60.35 112.1 61.4 113.7 L63.35 115.7 Q64.55 116.75 65.75 116.75 67.65 116.75 68.75 114.9 70.05 112.75 71.3 112.4 L71.85 124.55 70.15 123.2 Q67.9 120.7 61.75 119.1 L53.8 117.35 53.05 132.95 53.05 124.95 53.05 117.85 53.05 117.3 51.45 117.6 49.75 118.8 Q48.75 119.45 46.95 120.0 45.35 120.5 44.45 123.55 L43.55 127.3 43.25 127.7 42.25 90.95 Q41.8 76.55 41.8 67.8 L42.55 50.65 42.15 49.1 41.85 48.4 43.05 43.6 43.15 66.7 Q43.25 73.55 43.6 76.35 43.65 73.7 44.7 64.9 L45.7 56.45 46.3 57.75 46.1 49.25 46.35 17.4 Q49.6 19.8 49.4 27.25 L48.9 40.85 Q49.2 45.1 49.35 56.85 49.45 63.0 50.65 74.8 L51.05 79.45 51.25 79.0 52.8 77.3 Q53.85 76.15 53.85 75.0 53.7 39.6 53.3 32.2 L52.95 28.85 Q52.35 29.65 50.9 33.9 L49.4 38.95 49.0 40.85 Q49.35 30.35 49.95 23.15 L51.7 23.55 51.7 28.75 53.15 23.7 55.95 23.55 Q56.7 27.75 56.65 29.15 56.35 36.9 56.4 46.4 L57.25 38.15 M43.65 16.5 L46.1 17.25 42.6 35.1 42.35 36.25 Q42.4 34.05 43.3 30.5 44.15 27.1 44.15 24.0 L44.0 20.45 43.65 16.5 M38.05 45.15 Q39.75 45.15 40.95 43.9 42.05 42.65 42.1 40.9 42.1 45.1 39.7 45.85 38.2 46.3 30.6 45.75 L29.75 45.8 Q33.55 48.2 35.6 48.9 L40.0 49.55 35.15 49.2 Q32.65 48.25 30.4 48.0 L30.05 48.0 28.4 47.9 28.2 62.95 27.55 77.0 27.55 75.1 26.1 52.75 24.95 36.55 Q25.9 31.1 25.75 28.55 L25.3 22.55 25.5 20.4 26.0 18.2 26.5 17.5 27.1 17.0 Q27.65 32.1 28.05 35.0 28.85 40.3 31.7 40.3 L34.0 42.45 Q36.2 44.7 38.05 45.15 M41.8 185.15 L42.9 184.85 43.75 183.95 Q44.35 183.1 44.9 180.15 L46.5 172.5 48.9 160.05 Q51.05 147.45 51.25 139.6 L51.15 177.65 Q51.15 185.7 52.3 186.4 L53.8 186.65 Q55.0 186.7 55.95 187.55 L56.65 176.9 Q57.4 165.95 59.0 157.7 L59.3 156.7 60.25 171.1 60.45 180.7 60.6 187.4 60.7 187.7 Q60.95 188.0 61.55 188.0 L62.5 187.65 Q62.9 187.25 63.4 187.25 L64.35 187.9 66.2 189.5 66.95 200.2 Q66.6 199.35 64.2 197.95 61.85 196.55 60.55 196.4 L59.7 196.35 58.25 196.05 58.45 202.3 Q59.5 211.65 57.3 220.05 L54.6 230.2 Q53.8 241.1 52.05 255.8 L51.35 263.6 Q51.0 267.4 50.1 271.5 49.15 275.15 47.65 277.8 L44.45 276.45 43.95 276.05 43.6 275.8 43.7 275.8 Q46.85 276.05 47.3 274.6 L47.25 269.6 Q49.35 263.3 49.95 257.85 51.35 245.5 51.7 236.45 L51.9 226.25 Q52.15 218.5 52.7 209.8 53.6 196.55 54.55 194.65 53.15 194.65 51.35 193.85 L48.1 193.05 Q45.75 193.4 43.65 194.6 39.5 197.0 40.4 201.35 40.75 215.3 40.3 221.35 39.5 220.65 38.6 220.65 33.6 220.65 30.9 230.75 30.15 233.35 29.1 238.3 28.2 242.15 27.35 243.05 L26.55 243.25 23.05 241.8 22.5 241.45 Q22.25 229.35 20.85 221.25 19.6 213.85 19.55 199.85 L20.05 190.55 Q20.25 186.0 19.3 183.5 17.05 177.55 13.85 176.15 L12.05 175.4 Q11.35 174.95 11.35 173.65 L11.55 170.95 Q11.55 168.4 10.65 165.0 10.85 162.1 10.65 159.5 L9.9 157.35 Q10.2 150.3 10.1 147.7 L9.8 145.25 9.65 144.1 9.0 140.3 4.65 134.5 Q0.9 129.85 0.75 128.85 L1.05 128.8 0.65 127.2 0.5 127.35 0.4 127.3 0.75 125.5 0.65 127.2 1.1 123.3 1.85 117.8 2.15 114.0 Q2.15 109.5 1.8 108.55 L0.85 105.8 1.25 102.75 2.15 104.1 3.65 105.7 4.75 106.3 5.55 107.05 5.7 113.85 5.65 121.1 5.1 123.6 4.65 125.6 8.65 130.5 Q13.3 136.15 15.55 139.25 16.9 141.05 18.05 147.45 L19.05 154.0 Q18.5 156.1 17.45 158.1 L21.05 172.2 22.0 172.2 22.95 174.7 23.45 177.4 22.55 183.3 Q21.6 188.0 21.6 191.3 L21.85 200.6 Q22.05 209.5 22.2 212.0 L22.3 212.45 22.4 209.4 22.35 206.5 Q22.35 195.95 24.8 185.45 26.55 177.8 27.85 175.65 L29.8 171.15 Q31.45 167.0 31.7 165.6 32.05 164.0 33.85 161.25 L36.0 157.6 Q36.05 160.85 35.6 164.85 35.6 166.7 37.45 173.8 39.5 181.4 41.25 185.3 L41.8 185.15 M47.95 116.05 Q51.1 116.0 52.3 109.0 53.05 104.7 53.05 97.05 53.05 92.65 52.25 89.2 51.35 86.25 51.2 85.3 L51.2 86.65 Q51.55 90.5 50.15 100.0 48.75 109.7 47.0 114.8 47.0 115.3 47.3 115.7 47.55 116.05 47.95 116.05 M48.1 75.9 Q47.2 57.75 46.3 57.75 L46.75 84.55 Q46.75 91.85 45.5 97.75 44.2 103.6 44.2 109.05 L44.45 110.95 Q44.7 112.1 44.9 112.2 48.85 111.05 48.85 94.1 L48.1 75.9 M68.55 303.55 L68.25 303.45 Q70.95 288.75 70.85 279.1 70.65 246.75 70.9 234.45 L74.2 238.05 74.85 239.65 75.05 240.1 Q75.8 242.6 75.9 245.2 L73.75 262.6 73.0 260.1 71.95 280.9 70.55 304.05 68.55 303.55 M33.0 157.55 L34.1 157.3 Q33.35 158.15 32.1 162.05 30.8 166.15 29.5 167.85 L31.2 163.25 33.0 157.55 M24.7 172.1 L26.8 170.65 28.6 169.15 Q28.6 170.35 27.45 171.25 26.3 172.1 24.7 172.1 M15.7 151.4 L15.85 148.3 16.05 145.8 Q16.05 145.1 9.9 138.05 L8.8 136.95 Q10.75 140.85 12.2 155.55 13.55 169.25 15.35 171.3 16.0 169.65 15.9 167.75 15.55 162.95 15.7 156.2 L16.65 159.05 17.45 158.1 15.7 151.4 M29.35 224.75 L30.9 222.5 Q32.35 220.3 32.4 219.3 L32.95 214.15 33.35 210.2 Q32.95 197.2 31.85 198.1 28.7 200.3 27.95 202.8 26.35 207.95 26.35 224.4 26.35 229.85 26.75 238.05 L27.15 236.85 Q28.7 227.15 29.35 224.75 M25.25 237.95 L25.3 240.6 25.85 239.9 Q26.95 240.05 26.2 229.25 L24.7 216.95 25.25 237.95" fill="#7c7367" fill-rule="evenodd" stroke="none"/>
      <path d="M60.25 20.45 L58.05 33.85 57.25 38.15 56.4 46.4 Q56.35 36.9 56.65 29.15 56.7 27.75 55.95 23.55 56.75 23.1 58.25 20.55 60.0 17.75 60.85 16.9 L60.25 20.45 M51.7 23.55 L53.15 23.7 51.7 28.75 51.7 23.55 M42.6 35.1 L46.1 17.25 46.35 17.4 46.1 49.25 46.3 57.75 45.7 56.45 44.7 64.9 Q43.65 73.7 43.6 76.35 43.25 73.55 43.15 66.7 L43.05 43.6 41.85 48.4 40.0 49.55 35.6 48.9 Q33.55 48.2 29.75 45.8 L30.6 45.75 Q38.2 46.3 39.7 45.85 42.1 45.1 42.1 40.9 L42.1 40.8 Q42.05 37.95 42.6 35.1 M46.1 49.25 L46.05 46.45 46.05 51.25 46.1 49.25 M48.1 75.9 L48.85 94.1 Q48.85 111.05 44.9 112.2 44.7 112.1 44.45 110.95 L44.2 109.05 Q44.2 103.6 45.5 97.75 46.75 91.85 46.75 84.55 L46.3 57.75 Q47.2 57.75 48.1 75.9 M52.2 278.85 L51.1 278.65 52.05 255.8 Q53.8 241.1 54.6 230.2 L57.3 220.05 Q59.5 211.65 58.45 202.3 L59.05 199.25 58.45 239.4 58.4 243.2 Q56.8 247.75 54.8 257.8 52.15 270.7 52.2 278.85 M0.0 129.1 L0.0 127.0 0.4 127.3 0.5 127.35 1.05 128.8 0.75 128.85 0.05 129.05 0.0 129.1 M34.1 157.3 Q35.3 155.6 36.05 147.45 36.4 143.5 36.4 139.3 L36.2 126.6 36.35 119.0 37.45 134.95 37.75 144.35 Q37.75 153.55 36.0 157.6 L33.85 161.25 Q32.05 164.0 31.7 165.6 31.45 167.0 29.8 171.15 L27.85 175.65 Q26.55 177.8 24.8 185.45 22.35 195.95 22.35 206.5 L22.4 209.4 22.3 212.45 22.2 212.0 Q22.05 209.5 21.85 200.6 L21.6 191.3 Q21.6 188.0 22.55 183.3 L23.45 177.4 22.95 174.7 22.0 172.2 21.55 171.15 24.7 172.1 Q26.3 172.1 27.45 171.25 28.6 170.35 28.6 169.15 L29.5 167.85 Q30.8 166.15 32.1 162.05 33.35 158.15 34.1 157.3 M15.7 156.2 Q15.55 162.95 15.9 167.75 16.0 169.65 15.35 171.3 13.55 169.25 12.2 155.55 10.75 140.85 8.8 136.95 L9.9 138.05 Q16.05 145.1 16.05 145.8 L15.85 148.3 15.7 151.4 15.7 156.2 M25.85 239.9 L25.65 238.85 25.25 237.95 24.7 216.95 26.2 229.25 Q26.95 240.05 25.85 239.9" fill="#635b52" fill-rule="evenodd" stroke="none"/>
      <path d="M103.65 65.35 L103.7 59.9 Q103.7 57.2 105.55 28.85 L105.5 33.2 106.25 63.8 106.3 88.15 106.2 111.45 105.7 119.75 Q105.7 124.6 106.05 127.5 L106.75 131.55 106.45 131.65 Q105.45 127.7 104.3 120.1 103.25 113.05 103.25 111.2 L103.45 103.95 104.2 96.15 104.45 90.0 103.65 65.35 M117.25 127.05 L117.25 93.9 Q117.35 87.65 118.2 82.7 L118.6 95.35 118.8 105.3 118.1 127.05 117.25 127.05 M122.75 69.55 L121.85 68.8 Q121.0 68.3 118.05 68.3 117.4 68.3 117.5 69.7 117.6 70.65 115.4 69.4 L114.55 69.4 112.7 122.7 112.6 98.75 Q112.6 92.3 113.1 71.3 L113.15 77.0 113.5 63.7 114.85 64.35 Q115.95 65.1 118.8 65.8 121.45 66.8 122.75 69.55 M113.05 64.2 L112.15 63.95 Q112.5 63.75 113.05 63.65 L113.05 64.2 M102.75 8.7 L101.3 24.2 Q100.5 33.9 100.35 45.5 L99.65 9.35 Q101.2 8.8 102.75 8.7 M93.25 20.8 L93.3 58.25 92.95 76.5 92.75 78.6 Q92.4 73.45 91.4 70.0 L89.6 64.5 Q87.4 56.9 87.7 36.8 87.8 28.55 87.05 21.6 L85.75 9.4 87.9 9.6 Q88.05 10.65 87.8 16.05 87.8 19.3 89.15 20.6 90.6 21.95 93.25 20.8 M83.15 75.4 L83.5 75.2 Q83.6 76.15 86.7 81.5 89.6 88.8 88.8 99.9 88.5 104.55 89.65 117.3 86.6 136.2 86.4 142.7 86.25 146.95 86.7 155.2 86.7 156.65 85.8 159.15 L82.75 167.3 Q82.45 168.2 82.35 171.75 L82.35 175.95 Q82.5 177.05 82.1 180.65 L81.7 184.75 82.65 208.7 82.55 232.8 Q80.25 204.7 78.6 191.05 76.95 198.4 77.0 217.15 77.05 226.65 77.4 235.7 77.4 237.85 78.5 242.8 79.7 248.2 79.95 252.15 L80.25 260.7 80.55 269.1 80.8 269.25 81.35 270.4 Q81.75 269.8 82.25 267.25 82.8 264.25 82.8 261.4 83.2 264.0 83.65 262.6 L83.8 279.4 Q78.55 278.65 77.55 272.75 77.45 266.5 76.8 265.35 L76.6 266.6 76.55 266.1 Q76.05 258.45 75.9 245.2 75.8 242.6 75.05 240.1 L75.05 236.95 Q75.35 230.95 75.05 223.4 L75.05 223.3 75.05 222.7 75.2 214.15 Q75.2 209.25 74.15 195.25 73.1 181.3 73.1 176.8 L73.15 173.4 73.95 171.9 Q74.5 170.8 75.35 165.85 L74.95 169.0 Q77.05 168.4 78.05 165.45 78.9 162.85 79.2 157.3 79.55 154.4 79.55 148.95 L81.2 132.45 Q82.1 121.95 82.25 110.55 L82.85 101.55 83.1 95.25 Q83.1 92.15 82.35 88.85 L82.1 84.8 81.9 84.15 Q82.6 80.7 82.7 77.25 L82.85 78.1 83.15 75.4 M133.65 3.8 L134.3 6.45 133.65 11.55 133.65 3.8 M136.6 42.95 L134.4 51.45 134.3 47.85 135.5 42.0 Q135.95 41.8 136.55 42.3 L136.6 42.95 M133.35 164.25 L133.35 181.7 133.2 190.35 132.55 197.15 132.15 200.65 132.6 219.15 131.8 231.7 Q131.35 238.05 130.7 243.15 L130.5 242.2 130.05 239.0 Q128.85 228.25 130.55 198.15 L130.85 200.7 131.5 194.45 Q132.65 192.25 132.85 187.3 L132.9 174.9 132.9 174.55 133.2 167.75 133.35 164.25 M125.45 248.55 L125.4 248.6 Q125.0 241.85 124.9 235.9 L125.4 241.05 Q125.8 246.6 125.45 248.55 M123.35 296.85 L122.65 297.65 122.65 297.6 Q121.95 294.2 121.6 289.35 L121.1 284.3 Q120.15 281.1 119.9 279.7 119.55 277.55 119.6 272.5 119.45 266.35 118.5 253.95 117.7 243.45 117.7 232.6 118.1 216.8 118.55 211.85 L118.7 211.85 120.0 219.45 Q120.3 214.55 120.55 214.55 L120.55 213.1 121.35 225.3 121.5 255.25 121.45 271.15 Q123.65 296.15 123.35 296.85 M117.8 60.1 L116.7 55.9 115.9 57.9 115.05 59.45 Q113.65 58.0 113.65 56.15 113.65 48.0 114.55 29.1 115.45 10.65 115.4 0.1 L119.2 0.2 Q118.8 4.95 118.45 21.05 118.45 34.55 118.9 40.1 119.1 43.2 119.6 46.45 L119.8 46.25 120.2 45.55 Q120.65 42.15 120.65 38.75 121.0 38.8 121.0 41.75 121.0 49.7 119.4 49.85 118.5 49.9 118.25 50.3 117.75 51.25 117.75 54.8 L117.8 60.1 M113.35 0.0 L113.35 0.05 Q113.4 16.65 113.55 21.35 113.55 22.55 112.9 23.8 L111.95 25.85 111.75 21.55 Q111.85 11.7 111.4 0.45 111.65 0.2 112.8 0.0 L113.35 0.0 M112.05 32.0 Q113.1 39.0 113.1 44.35 L113.4 54.0 Q113.15 60.8 110.2 62.45 L109.65 61.15 Q110.7 55.75 111.45 46.45 112.25 37.15 112.05 32.0 M98.7 196.95 L98.0 174.0 98.65 151.1 Q98.7 148.6 99.8 146.45 L101.1 144.45 Q100.95 149.35 100.2 157.85 99.5 171.45 99.55 205.9 L98.7 196.95 M102.45 143.6 Q105.55 143.55 107.8 141.5 109.95 139.4 110.25 139.4 L111.35 139.65 112.1 140.2 109.6 144.45 Q107.4 149.0 108.0 153.95 108.3 156.65 108.0 162.55 L107.3 176.8 106.35 150.75 106.05 147.95 105.6 146.75 104.75 148.25 103.45 149.75 Q102.9 148.25 102.45 143.6 M116.15 185.75 Q116.85 171.05 116.85 143.15 L117.35 142.75 Q119.2 143.1 121.15 146.6 L124.35 153.3 Q123.4 155.75 122.5 155.95 121.95 155.95 121.35 155.6 L120.25 155.05 Q118.75 156.55 118.35 174.25 L117.65 203.1 Q117.4 200.9 117.1 195.6 116.95 192.4 116.1 189.55 L116.15 185.75 M91.1 145.5 Q91.6 166.3 92.2 180.9 92.5 192.4 92.5 224.45 92.5 225.4 91.3 227.6 L89.75 230.65 89.55 231.0 Q89.9 227.05 90.25 226.3 90.95 206.9 91.05 145.5 L91.1 145.5 M113.3 240.1 L113.3 265.45 113.1 283.1 111.8 284.3 111.45 278.6 111.3 273.85 Q111.3 260.65 111.45 255.75 111.85 243.05 113.3 240.1 M108.5 284.6 L108.05 284.6 107.8 286.1 107.15 287.4 108.3 252.9 108.5 284.6 M67.9 209.1 L67.2 202.55 67.6 192.75 68.15 195.6 68.0 210.2 67.9 209.1 M97.25 299.75 L96.25 299.95 95.9 268.5 95.9 216.6 96.4 223.25 97.05 234.15 97.3 228.15 99.35 236.7 Q100.3 241.65 100.3 247.95 L100.05 258.1 99.0 274.65 Q98.65 277.1 97.25 299.75 M85.7 279.05 L85.6 263.4 85.45 256.7 Q85.45 256.1 85.8 254.25 L86.1 252.55 87.0 275.25 85.7 279.05" fill="#a1978b" fill-rule="evenodd" stroke="none"/>
      <path d="M0.0 127.0 Q0.05 112.3 0.85 105.8 L1.8 108.55 Q2.15 109.5 2.15 114.0 L1.85 117.8 1.1 123.3 0.95 123.25 0.4 127.3 0.0 127.0 M19.05 154.0 Q19.75 152.0 20.9 151.9 21.95 151.75 22.65 148.55 L25.95 134.6 Q27.2 128.15 27.5 118.35 L28.1 98.4 27.6 122.7 Q27.05 146.85 27.05 152.4 27.05 153.8 27.5 154.45 28.05 155.25 29.4 155.25 L30.7 155.05 32.6 153.1 33.6 151.25 Q34.5 150.0 34.1 152.35 33.75 155.25 33.0 157.55 L31.2 163.25 29.5 167.85 28.6 169.15 26.8 170.65 24.7 172.1 21.55 171.15 22.0 172.2 21.05 172.2 17.45 158.1 Q18.5 156.1 19.05 154.0 M15.7 151.4 L17.45 158.1 16.65 159.05 15.7 156.2 15.7 151.4" fill="#6d655a" fill-rule="evenodd" stroke="none"/>
      <path d="M51.1 278.65 L50.2 278.45 50.1 271.5 Q51.0 267.4 51.35 263.6 L52.05 255.8 51.1 278.65 M59.7 196.35 L59.7 196.8 59.15 220.25 58.45 239.4 59.05 199.25 58.45 202.3 58.25 196.05 59.7 196.35" fill="#898074" fill-rule="evenodd" stroke="none"/>
    </g>
  </defs>
</svg>
