<?xml version="1.0" encoding="UTF-8" standalone="no"?>
<svg xmlns:xlink="http://www.w3.org/1999/xlink" height="88.0px" width="84.0px" xmlns="http://www.w3.org/2000/svg">
  <g transform="matrix(1.0, 0.0, 0.0, 1.0, 0.0, 0.0)">
    <use height="90.1" id="widget_mc" transform="matrix(1.0, 0.0, 0.0, 1.0, -0.15, -1.35)" width="81.6" xlink:href="#sprite0"/>
  </g>
  <defs>
    <g id="sprite0" transform="matrix(1.0, 0.0, 0.0, 1.0, 33.3, 42.45)">
      <use height="90.1" transform="matrix(1.0, 0.0, 0.0, 1.0, -33.3, -42.45)" width="81.6" xlink:href="#sprite1"/>
    </g>
    <g id="sprite1" transform="matrix(1.0, 0.0, 0.0, 1.0, 33.3, 42.45)">
      <use height="25.7" transform="matrix(1.0, 0.0, 0.0, 1.0, -26.85, -6.25)" width="23.9" xlink:href="#shape0"/>
      <use height="83.7" transform="matrix(1.0, 0.0, 0.0, 1.0, -9.95, -39.55)" width="35.45" xlink:href="#shape1"/>
      <use height="5.4" transform="matrix(1.0, 0.0, 0.0, 1.0, -7.9, -4.05)" width="22.0" xlink:href="#sprite2"/>
      <use height="10.9" transform="matrix(1.0, 0.0, 0.0, 1.0, 19.15, 11.55)" width="5.75" xlink:href="#sprite3"/>
      <use height="26.75" transform="matrix(1.0, 0.0, 0.0, 1.0, 19.3, 10.5)" width="25.2" xlink:href="#shape4"/>
    </g>
    <g id="shape0" transform="matrix(1.0, 0.0, 0.0, 1.0, 11.9, 12.8)">
      <path d="M0.2 -9.55 L0.15 -9.5 Q-2.85 -7.9 -6.7 -8.2 -9.65 -8.4 -11.05 -9.15 L-11.9 -9.85 -11.3 -10.55 -9.25 -11.95 Q-7.3 -12.8 -5.55 -12.8 L-2.45 -12.25 Q-1.15 -11.85 -0.35 -10.65 L0.2 -9.55" fill="url(#gradient0)" fill-rule="evenodd" stroke="none"/>
      <path d="M0.15 -9.5 L0.2 -9.55 -0.35 -6.85 -0.2 -7.8 Q-3.05 -5.85 -6.15 -5.85 -8.9 -5.85 -11.5 -7.4 L-11.9 -9.85 -11.15 -8.9 Q-9.8 -7.9 -6.85 -7.8 -3.85 -7.65 -1.95 -8.35 -0.95 -8.75 0.15 -9.5 M-0.75 -4.65 L-1.05 -1.85 -1.3 2.05 Q-1.3 3.25 -0.6 3.7 L2.55 4.2 9.0 4.25 10.5 4.55 Q11.2 4.8 11.6 5.95 12.1 7.25 11.95 9.45 11.75 12.75 9.1 12.75 L3.15 12.85 Q-3.35 12.6 -6.0 11.1 -8.5 9.65 -9.55 6.3 -10.1 4.6 -10.45 0.8 L-11.0 -4.1 Q-9.45 -2.7 -6.2 -2.7 -3.05 -2.7 -0.8 -4.35 L-0.75 -4.65" fill="url(#gradient1)" fill-rule="evenodd" stroke="none"/>
      <path d="M-11.9 -9.85 L-11.05 -9.15 Q-9.65 -8.4 -6.7 -8.2 -2.85 -7.9 0.15 -9.5 -0.95 -8.75 -1.95 -8.35 -3.85 -7.65 -6.85 -7.8 -9.8 -7.9 -11.15 -8.9 L-11.9 -9.85" fill="#d1d1cc" fill-rule="evenodd" stroke="none"/>
      <path d="M-11.5 -7.4 Q-8.9 -5.85 -6.15 -5.85 -3.05 -5.85 -0.2 -7.8 L-0.35 -6.85 -0.75 -4.65 -0.8 -4.35 Q-3.05 -2.7 -6.2 -2.7 -9.45 -2.7 -11.0 -4.1 L-11.05 -4.15 -11.55 -7.45 -11.5 -7.4" fill="url(#gradient2)" fill-rule="evenodd" stroke="none"/>
    </g>
    <linearGradient gradientTransform="matrix(-0.0137, -0.001, -0.001, 0.0137, -6.45, -10.5)" gradientUnits="userSpaceOnUse" id="gradient0" spreadMethod="pad" x1="-819.2" x2="819.2">
      <stop offset="0.1607843137254902" stop-color="#bdbdb9"/>
      <stop offset="0.8784313725490196" stop-color="#3b3b38"/>
    </linearGradient>
    <linearGradient gradientTransform="matrix(0.0168, 0.0, 0.0, -0.0146, 1.65, 0.2)" gradientUnits="userSpaceOnUse" id="gradient1" spreadMethod="pad" x1="-819.2" x2="819.2">
      <stop offset="0.0" stop-color="#a1a1a1"/>
      <stop offset="0.1607843137254902" stop-color="#bdbdb9"/>
      <stop offset="0.8784313725490196" stop-color="#3b3b38"/>
      <stop offset="1.0" stop-color="#828280"/>
    </linearGradient>
    <linearGradient gradientTransform="matrix(0.006, 0.0, 0.0, -0.006, -5.5, -5.25)" gradientUnits="userSpaceOnUse" id="gradient2" spreadMethod="pad" x1="-819.2" x2="819.2">
      <stop offset="0.0" stop-color="#787876"/>
      <stop offset="1.0" stop-color="#262625"/>
    </linearGradient>
    <g id="shape1" transform="matrix(1.0, 0.0, 0.0, 1.0, 17.45, 41.8)">
      <path d="M-0.3 -33.7 Q-1.5 -33.95 -2.35 -34.85 -3.55 -36.05 -3.55 -37.75 -3.55 -39.45 -2.35 -40.6 -1.2 -41.8 0.5 -41.8 2.2 -41.8 3.35 -40.6 4.55 -39.45 4.55 -37.75 4.55 -36.05 3.35 -34.85 2.4 -33.9 1.15 -33.7 L0.5 -33.65 0.25 -33.65 0.0 -33.65 -0.3 -33.7" fill="url(#gradient3)" fill-rule="evenodd" stroke="none"/>
      <path d="M1.15 -33.7 Q1.75 -31.05 2.6 -29.3 L0.15 -29.15 -0.45 -29.15 0.25 -32.35 0.5 -33.65 1.15 -33.7 M3.5 -27.8 L5.55 -24.75 5.05 -25.45 0.05 -25.0 -1.65 -25.05 -1.4 -25.9 -1.0 -27.1 0.1 -27.1 3.7 -27.45 3.5 -27.8 M6.55 -23.4 L8.0 -21.75 11.55 -17.2 Q13.75 -14.15 14.85 -11.8 L15.0 -11.6 14.95 -11.6 15.35 -10.75 17.3 -4.85 Q18.25 -1.1 17.9 2.05 L17.65 13.65 17.6 16.1 17.6 16.4 17.1 32.8 Q9.8 37.5 0.2 37.5 L-6.05 36.95 Q-6.25 5.2 -6.05 2.8 L-3.9 2.9 3.85 2.5 Q8.95 1.85 9.8 -0.15 10.65 -2.05 9.7 -5.45 8.65 -9.25 6.05 -11.2 L5.5 -11.6 5.45 -11.6 Q2.2 -13.65 -4.05 -13.5 L-3.35 -17.85 -2.35 -22.4 0.0 -22.3 Q3.6 -22.3 6.55 -23.4 M17.05 35.55 L17.0 37.15 Q16.2 38.35 13.7 39.55 8.65 41.9 0.2 41.9 L-6.15 41.5 -6.05 41.5 -6.05 39.8 0.15 40.2 Q12.3 40.2 17.05 35.55 M-6.55 41.45 Q-10.4 40.85 -13.2 39.55 L-16.5 37.15 -16.55 35.65 Q-13.25 38.8 -6.55 39.75 L-6.55 41.45 M-16.6 32.85 L-17.45 1.95 -17.15 -0.9 Q-16.9 -4.6 -14.55 -10.75 L-14.15 -11.6 -14.2 -11.6 -14.05 -11.8 Q-12.95 -14.15 -10.75 -17.2 L-7.2 -21.75 -5.85 -23.2 -2.85 -22.5 -3.85 -17.85 -4.55 -13.5 -8.45 -13.25 -9.5 -13.0 -9.75 -12.95 -11.8 -11.75 -12.25 -11.35 Q-13.9 -9.8 -15.0 -7.25 L-15.5 -5.95 Q-16.6 -2.8 -15.8 -0.9 L-15.65 -0.55 -15.0 0.25 -14.9 0.35 -14.7 0.5 Q-13.15 1.45 -9.95 2.15 L-6.5 2.75 Q-6.75 4.85 -6.55 36.85 -12.0 35.75 -16.6 32.85 M-4.35 -25.35 L-2.7 -27.75 -2.95 -27.35 -1.5 -27.15 -1.9 -25.95 -2.15 -25.1 -4.35 -25.35 M-1.8 -29.25 Q-0.95 -31.0 -0.3 -33.7 L0.0 -33.65 -0.25 -32.4 -0.95 -29.2 -1.8 -29.25 M-3.55 -21.05 L-4.05 -21.5 -4.65 -21.4 -5.1 -20.75 -5.05 -20.0 -4.6 -19.6 Q-3.8 -19.35 -3.55 -20.35 L-3.55 -21.05 M-2.1 -19.75 Q-1.9 -19.45 -1.6 -19.45 -1.25 -19.4 -1.0 -19.65 L-0.7 -20.35 Q-0.65 -20.75 -0.9 -21.1 -1.1 -21.4 -1.45 -21.4 L-2.0 -21.15 -2.3 -20.5 -2.1 -19.75 M-5.35 -16.9 Q-6.1 -17.05 -6.4 -16.15 -6.65 -15.25 -5.9 -14.95 -5.6 -14.85 -5.3 -15.1 L-4.85 -15.7 Q-4.6 -16.6 -5.35 -16.9 M-1.65 -16.45 Q-1.85 -16.75 -2.2 -16.8 L-2.75 -16.55 -3.05 -15.85 -2.85 -15.15 -2.35 -14.8 Q-2.0 -14.75 -1.75 -15.05 L-1.45 -15.75 Q-1.4 -16.15 -1.65 -16.45 M-7.15 6.15 Q-7.15 5.15 -7.95 5.15 -8.75 5.15 -8.75 6.15 -8.75 7.15 -7.95 7.15 -7.15 7.15 -7.15 6.15 M-7.15 11.4 Q-7.15 10.4 -7.95 10.4 -8.75 10.4 -8.75 11.4 -8.75 12.4 -7.95 12.4 -7.15 12.4 -7.15 11.4 M-3.75 11.85 Q-3.75 10.85 -4.5 10.85 -5.3 10.85 -5.3 11.85 -5.3 12.8 -4.5 12.8 -3.75 12.8 -3.75 11.85 M-4.5 7.55 Q-3.75 7.55 -3.75 6.6 -3.75 5.6 -4.5 5.6 -5.3 5.6 -5.3 6.6 -5.3 7.55 -4.5 7.55 M-3.95 16.7 Q-4.2 16.4 -4.5 16.4 -4.85 16.4 -5.05 16.7 L-5.3 17.4 -5.05 18.1 Q-4.85 18.4 -4.5 18.4 L-3.95 18.1 -3.75 17.4 -3.95 16.7 M-7.15 17.0 Q-7.15 16.0 -7.95 16.0 -8.75 16.0 -8.75 17.0 -8.75 18.0 -7.95 18.0 -7.15 18.0 -7.15 17.0 M-8.75 22.9 Q-8.75 23.9 -7.95 23.9 -7.15 23.9 -7.15 22.9 -7.15 21.9 -7.95 21.9 -8.75 21.9 -8.75 22.9 M-4.5 24.35 L-3.95 24.05 -3.75 23.35 Q-3.75 22.35 -4.5 22.35 -5.3 22.35 -5.3 23.35 L-5.05 24.05 Q-4.85 24.35 -4.5 24.35 M-4.5 27.4 Q-4.85 27.4 -5.05 27.7 L-5.3 28.4 -5.05 29.1 Q-4.85 29.4 -4.5 29.4 L-3.95 29.1 -3.75 28.4 -3.95 27.7 Q-4.2 27.4 -4.5 27.4 M-8.75 28.0 Q-8.75 29.0 -7.95 29.0 -7.15 29.0 -7.15 28.0 -7.15 27.0 -7.95 27.0 -8.75 27.0 -8.75 28.0 M-7.15 33.25 Q-7.15 32.25 -7.95 32.25 -8.75 32.25 -8.75 33.25 -8.75 34.25 -7.95 34.25 -7.15 34.25 -7.15 33.25 M-4.5 34.65 L-3.95 34.35 -3.75 33.65 -3.95 32.95 Q-4.2 32.65 -4.5 32.65 -4.85 32.65 -5.05 32.95 L-5.3 33.65 -5.05 34.35 Q-4.85 34.65 -4.5 34.65" fill="url(#gradient4)" fill-rule="evenodd" stroke="none"/>
      <path d="M-6.15 41.5 L-6.3 41.5 -6.3 39.8 -6.05 39.8 -6.05 41.5 -6.15 41.5 M0.25 -33.65 L0.5 -33.65 0.25 -32.35 -0.45 -29.15 -0.7 -29.15 0.0 -32.35 0.25 -33.65 M-1.65 -25.05 L-1.9 -25.05 -1.65 -25.9 -1.25 -27.15 -1.0 -27.1 -1.4 -25.9 -1.65 -25.05 M-6.3 2.8 L-6.05 2.8 Q-6.25 5.2 -6.05 36.95 L-6.3 36.9 -6.35 5.35 -6.3 2.8 M-4.3 -13.5 L-3.6 -17.85 -2.6 -22.45 -2.35 -22.4 -3.35 -17.85 -4.05 -13.5 -4.3 -13.5" fill="#c2c2b8" fill-rule="evenodd" stroke="none"/>
      <path d="M-6.3 41.5 L-6.55 41.45 -6.55 39.75 -6.3 39.8 -6.3 41.5 M0.0 -33.65 L0.25 -33.65 0.0 -32.35 -0.7 -29.15 -0.95 -29.2 -0.25 -32.4 0.0 -33.65 M-1.9 -25.05 L-2.15 -25.1 -1.9 -25.95 -1.5 -27.15 -1.25 -27.15 -1.65 -25.9 -1.9 -25.05 M-6.5 2.75 L-6.3 2.8 -6.35 5.35 -6.3 36.9 -6.55 36.85 Q-6.75 4.85 -6.5 2.75 M-2.85 -22.5 L-2.6 -22.45 -3.6 -17.85 -4.3 -13.5 -4.55 -13.5 -3.85 -17.85 -2.85 -22.5" fill="#6e6e68" fill-rule="evenodd" stroke="none"/>
      <path d="M5.55 -24.75 L6.3 -23.65 6.55 -23.4 Q3.6 -22.3 0.0 -22.3 L-2.35 -22.4 -2.6 -22.45 -2.85 -22.5 -5.85 -23.2 -5.9 -23.2 -5.7 -23.4 -4.35 -25.35 -2.15 -25.1 -1.9 -25.05 -1.65 -25.05 0.05 -25.0 5.05 -25.45 5.55 -24.75" fill="url(#gradient5)" fill-rule="evenodd" stroke="none"/>
      <path d="M2.6 -29.3 L3.5 -27.8 3.7 -27.45 0.1 -27.1 -1.0 -27.1 -1.25 -27.15 -1.5 -27.15 -2.95 -27.35 -2.7 -27.75 -1.85 -29.25 -1.8 -29.25 -0.95 -29.2 -0.7 -29.15 -0.45 -29.15 0.15 -29.15 2.6 -29.3" fill="url(#gradient6)" fill-rule="evenodd" stroke="none"/>
      <path d="M9.8 -0.15 L9.95 -0.6 Q8.15 2.0 1.1 2.4 L-8.4 1.95 Q-12.75 1.2 -14.5 -0.45 -14.9 -4.05 -13.75 -6.65 -11.85 -11.1 -7.8 -12.35 -3.2 -13.8 5.45 -11.6 L5.5 -11.6 6.05 -11.2 Q8.65 -9.25 9.7 -5.45 10.65 -2.05 9.8 -0.15 M-9.75 -12.95 L-10.3 -12.7 -11.8 -11.75 -9.75 -12.95" fill="url(#gradient7)" fill-rule="evenodd" stroke="none"/>
      <path d="M-14.5 -0.45 Q-12.75 1.2 -8.4 1.95 L1.1 2.4 Q8.15 2.0 9.95 -0.6 L9.8 -0.15 Q8.95 1.85 3.85 2.5 L-3.9 2.9 -6.05 2.8 -6.3 2.8 -6.5 2.75 -9.95 2.15 Q-13.15 1.45 -14.7 0.5 L-14.9 0.35 -15.0 0.25 -15.65 -0.55 -15.0 -0.95 -14.75 -0.65 -14.5 -0.45" fill="#b9b9b5" fill-rule="evenodd" stroke="none"/>
      <path d="M-3.55 -21.05 L-3.55 -20.35 Q-3.8 -19.35 -4.6 -19.6 L-5.05 -20.0 -5.1 -20.75 -4.65 -21.4 -4.05 -21.5 -3.55 -21.05" fill="url(#gradient8)" fill-rule="evenodd" stroke="none"/>
      <path d="M-2.1 -19.75 L-2.3 -20.5 -2.0 -21.15 -1.45 -21.4 Q-1.1 -21.4 -0.9 -21.1 -0.65 -20.75 -0.7 -20.35 L-1.0 -19.65 Q-1.25 -19.4 -1.6 -19.45 -1.9 -19.45 -2.1 -19.75" fill="url(#gradient9)" fill-rule="evenodd" stroke="none"/>
      <path d="M-5.35 -16.9 Q-4.6 -16.6 -4.85 -15.7 L-5.3 -15.1 Q-5.6 -14.85 -5.9 -14.95 -6.65 -15.25 -6.4 -16.15 -6.1 -17.05 -5.35 -16.9" fill="url(#gradient10)" fill-rule="evenodd" stroke="none"/>
      <path d="M5.45 -11.6 Q-3.2 -13.8 -7.8 -12.35 -11.85 -11.1 -13.75 -6.65 -14.9 -4.05 -14.5 -0.45 L-14.75 -0.65 -15.0 -0.95 -15.3 -1.4 -15.5 -1.9 -15.6 -2.45 -15.6 -2.5 -15.55 -3.1 -15.3 -4.55 -15.3 -4.6 -15.05 -5.45 -14.75 -6.4 Q-13.8 -9.5 -10.3 -12.7 L-9.75 -12.95 -9.5 -13.0 -8.45 -13.25 -4.55 -13.5 -4.3 -13.5 -4.05 -13.5 Q2.2 -13.65 5.45 -11.6" fill="#3d3d3c" fill-rule="evenodd" stroke="none"/>
      <path d="M-1.65 -16.45 Q-1.4 -16.15 -1.45 -15.75 L-1.75 -15.05 Q-2.0 -14.75 -2.35 -14.8 L-2.85 -15.15 -3.05 -15.85 -2.75 -16.55 -2.2 -16.8 Q-1.85 -16.75 -1.65 -16.45" fill="url(#gradient11)" fill-rule="evenodd" stroke="none"/>
      <path d="M-15.0 -0.95 L-15.65 -0.55 -15.8 -0.9 Q-16.6 -2.8 -15.5 -5.95 L-15.0 -7.25 Q-13.9 -9.8 -12.25 -11.35 L-11.8 -11.75 -10.3 -12.7 Q-13.8 -9.5 -14.75 -6.4 L-15.05 -5.45 -15.3 -4.6 -15.3 -4.55 -15.55 -3.1 -15.6 -2.5 -15.6 -2.45 -15.5 -1.9 -15.3 -1.4 -15.0 -0.95" fill="#8a8a87" fill-rule="evenodd" stroke="none"/>
      <path d="M-7.15 6.15 Q-7.15 7.15 -7.95 7.15 -8.75 7.15 -8.75 6.15 -8.75 5.15 -7.95 5.15 -7.15 5.15 -7.15 6.15" fill="url(#gradient12)" fill-rule="evenodd" stroke="none"/>
      <path d="M-7.15 11.4 Q-7.15 12.4 -7.95 12.4 -8.75 12.4 -8.75 11.4 -8.75 10.4 -7.95 10.4 -7.15 10.4 -7.15 11.4" fill="url(#gradient13)" fill-rule="evenodd" stroke="none"/>
      <path d="M-4.5 7.55 Q-5.3 7.55 -5.3 6.6 -5.3 5.6 -4.5 5.6 -3.75 5.6 -3.75 6.6 -3.75 7.55 -4.5 7.55" fill="url(#gradient14)" fill-rule="evenodd" stroke="none"/>
      <path d="M-3.75 11.85 Q-3.75 12.8 -4.5 12.8 -5.3 12.8 -5.3 11.85 -5.3 10.85 -4.5 10.85 -3.75 10.85 -3.75 11.85" fill="url(#gradient15)" fill-rule="evenodd" stroke="none"/>
      <path d="M-3.95 16.7 L-3.75 17.4 -3.95 18.1 -4.5 18.4 Q-4.85 18.4 -5.05 18.1 L-5.3 17.4 -5.05 16.7 Q-4.85 16.4 -4.5 16.4 -4.2 16.4 -3.95 16.7" fill="url(#gradient16)" fill-rule="evenodd" stroke="none"/>
      <path d="M-7.15 17.0 Q-7.15 18.0 -7.95 18.0 -8.75 18.0 -8.75 17.0 -8.75 16.0 -7.95 16.0 -7.15 16.0 -7.15 17.0" fill="url(#gradient17)" fill-rule="evenodd" stroke="none"/>
      <path d="M-8.75 22.9 Q-8.75 21.9 -7.95 21.9 -7.15 21.9 -7.15 22.9 -7.15 23.9 -7.95 23.9 -8.75 23.9 -8.75 22.9" fill="url(#gradient18)" fill-rule="evenodd" stroke="none"/>
      <path d="M-4.5 24.35 Q-4.85 24.35 -5.05 24.05 L-5.3 23.35 Q-5.3 22.35 -4.5 22.35 -3.75 22.35 -3.75 23.35 L-3.95 24.05 -4.5 24.35" fill="url(#gradient19)" fill-rule="evenodd" stroke="none"/>
      <path d="M-4.5 27.4 Q-4.2 27.4 -3.95 27.7 L-3.75 28.4 -3.95 29.1 -4.5 29.4 Q-4.85 29.4 -5.05 29.1 L-5.3 28.4 -5.05 27.7 Q-4.85 27.4 -4.5 27.4" fill="url(#gradient20)" fill-rule="evenodd" stroke="none"/>
      <path d="M-8.75 28.0 Q-8.75 27.0 -7.95 27.0 -7.15 27.0 -7.15 28.0 -7.15 29.0 -7.95 29.0 -8.75 29.0 -8.75 28.0" fill="url(#gradient21)" fill-rule="evenodd" stroke="none"/>
      <path d="M-7.15 33.25 Q-7.15 34.25 -7.95 34.25 -8.75 34.25 -8.75 33.25 -8.75 32.25 -7.95 32.25 -7.15 32.25 -7.15 33.25" fill="url(#gradient22)" fill-rule="evenodd" stroke="none"/>
      <path d="M17.1 32.8 L17.1 34.0 Q16.9 33.7 16.55 33.7 16.2 33.7 16.0 34.0 15.75 34.25 15.75 34.65 15.75 35.6 16.55 35.6 L17.05 35.45 17.05 35.55 Q12.3 40.2 0.15 40.2 L-6.05 39.8 -6.3 39.8 -6.55 39.75 Q-13.25 38.8 -16.55 35.65 L-16.55 35.25 -16.4 35.3 Q-15.95 35.3 -15.95 34.35 -15.95 33.35 -16.4 33.35 L-16.6 33.45 -16.65 32.85 -16.6 32.85 Q-12.0 35.75 -6.55 36.85 L-6.3 36.9 -6.05 36.95 0.2 37.5 Q9.8 37.5 17.1 32.8 M14.0 36.4 L13.8 35.75 Q13.55 35.45 13.25 35.45 12.9 35.45 12.7 35.75 12.45 36.0 12.45 36.4 12.45 37.35 13.25 37.35 14.0 37.35 14.0 36.4 M6.2 38.5 Q6.2 37.55 5.4 37.55 4.6 37.55 4.6 38.5 L4.85 39.15 Q5.05 39.45 5.4 39.45 L5.95 39.15 6.2 38.5 M8.85 38.4 Q9.05 38.7 9.4 38.7 L9.95 38.4 10.2 37.75 Q10.2 36.8 9.4 36.8 8.6 36.8 8.6 37.75 8.6 38.15 8.85 38.4 M0.35 38.9 Q0.35 39.85 1.15 39.85 1.95 39.85 1.95 38.9 L1.7 38.25 Q1.5 37.95 1.15 37.95 0.8 37.95 0.6 38.25 0.35 38.5 0.35 38.9 M-11.45 36.05 Q-12.25 36.05 -12.25 37.0 L-12.0 37.65 -11.45 37.95 Q-11.1 37.95 -10.9 37.65 L-10.65 37.0 Q-10.65 36.05 -11.45 36.05 M-13.9 35.0 Q-14.1 34.7 -14.35 34.7 -15.05 34.7 -15.05 35.65 -15.05 36.6 -14.35 36.6 -13.7 36.6 -13.7 35.65 L-13.9 35.0 M-3.35 39.7 Q-3.0 39.7 -2.8 39.4 -2.55 39.15 -2.55 38.75 -2.55 37.8 -3.35 37.8 -4.15 37.8 -4.15 38.75 L-3.9 39.4 -3.35 39.7 M-7.35 38.7 L-7.1 38.05 Q-7.1 37.1 -7.9 37.1 -8.7 37.1 -8.7 38.05 L-8.45 38.7 -7.9 39.0 Q-7.55 39.0 -7.35 38.7" fill="url(#gradient23)" fill-rule="evenodd" stroke="none"/>
      <path d="M-4.5 34.65 Q-4.85 34.65 -5.05 34.35 L-5.3 33.65 -5.05 32.95 Q-4.85 32.65 -4.5 32.65 -4.2 32.65 -3.95 32.95 L-3.75 33.65 -3.95 34.35 -4.5 34.65" fill="url(#gradient24)" fill-rule="evenodd" stroke="none"/>
      <path d="M-16.55 35.25 Q-16.85 35.1 -16.85 34.35 L-16.6 33.45 -16.4 33.35 Q-15.95 33.35 -15.95 34.35 -15.95 35.3 -16.4 35.3 L-16.55 35.25" fill="url(#gradient25)" fill-rule="evenodd" stroke="none"/>
      <path d="M-13.9 35.0 L-13.7 35.65 Q-13.7 36.6 -14.35 36.6 -15.05 36.6 -15.05 35.65 -15.05 34.7 -14.35 34.7 -14.1 34.7 -13.9 35.0" fill="url(#gradient26)" fill-rule="evenodd" stroke="none"/>
      <path d="M-11.45 36.05 Q-10.65 36.05 -10.65 37.0 L-10.9 37.65 Q-11.1 37.95 -11.45 37.95 L-12.0 37.65 -12.25 37.0 Q-12.25 36.05 -11.45 36.05" fill="url(#gradient27)" fill-rule="evenodd" stroke="none"/>
      <path d="M-3.35 39.7 L-3.9 39.4 -4.15 38.75 Q-4.15 37.8 -3.35 37.8 -2.55 37.8 -2.55 38.75 -2.55 39.15 -2.8 39.4 -3.0 39.7 -3.35 39.7" fill="url(#gradient28)" fill-rule="evenodd" stroke="none"/>
      <path d="M-7.35 38.7 Q-7.55 39.0 -7.9 39.0 L-8.45 38.7 -8.7 38.05 Q-8.7 37.1 -7.9 37.1 -7.1 37.1 -7.1 38.05 L-7.35 38.7" fill="url(#gradient29)" fill-rule="evenodd" stroke="none"/>
      <path d="M14.0 36.4 Q14.0 37.35 13.25 37.35 12.45 37.35 12.45 36.4 12.45 36.0 12.7 35.75 12.9 35.45 13.25 35.45 13.55 35.45 13.8 35.75 L14.0 36.4" fill="url(#gradient30)" fill-rule="evenodd" stroke="none"/>
      <path d="M17.1 34.0 L17.35 34.65 Q17.35 35.25 17.05 35.45 L16.55 35.6 Q15.75 35.6 15.75 34.65 15.75 34.25 16.0 34.0 16.2 33.7 16.55 33.7 16.9 33.7 17.1 34.0" fill="url(#gradient31)" fill-rule="evenodd" stroke="none"/>
      <path d="M6.2 38.5 L5.95 39.15 5.4 39.45 Q5.05 39.45 4.85 39.15 L4.6 38.5 Q4.6 37.55 5.4 37.55 6.2 37.55 6.2 38.5" fill="url(#gradient32)" fill-rule="evenodd" stroke="none"/>
      <path d="M8.85 38.4 Q8.6 38.15 8.6 37.75 8.6 36.8 9.4 36.8 10.2 36.8 10.2 37.75 L9.95 38.4 9.4 38.7 Q9.05 38.7 8.85 38.4" fill="url(#gradient33)" fill-rule="evenodd" stroke="none"/>
      <path d="M0.35 38.9 Q0.35 38.5 0.6 38.25 0.8 37.95 1.15 37.95 1.5 37.95 1.7 38.25 L1.95 38.9 Q1.95 39.85 1.15 39.85 0.35 39.85 0.35 38.9" fill="url(#gradient34)" fill-rule="evenodd" stroke="none"/>
    </g>
    <radialGradient cx="0" cy="0" gradientTransform="matrix(0.0041, 0.0051, 0.0051, -0.0041, -0.9, -39.2)" gradientUnits="userSpaceOnUse" id="gradient3" r="819.2" spreadMethod="pad">
      <stop offset="0.1607843137254902" stop-color="#bdbdb9"/>
      <stop offset="0.8784313725490196" stop-color="#787871"/>
    </radialGradient>
    <linearGradient gradientTransform="matrix(0.0226, 0.0, 0.0, -0.0226, 1.1, 2.1)" gradientUnits="userSpaceOnUse" id="gradient4" spreadMethod="pad" x1="-819.2" x2="819.2">
      <stop offset="0.0" stop-color="#a1a1a1"/>
      <stop offset="0.1607843137254902" stop-color="#bdbdb9"/>
      <stop offset="0.8784313725490196" stop-color="#3b3b38"/>
      <stop offset="1.0" stop-color="#828280"/>
    </linearGradient>
    <linearGradient gradientTransform="matrix(0.0076, 0.0, 0.0, -0.0076, 0.35, -23.85)" gradientUnits="userSpaceOnUse" id="gradient5" spreadMethod="pad" x1="-819.2" x2="819.2">
      <stop offset="0.0" stop-color="#787876"/>
      <stop offset="1.0" stop-color="#262625"/>
    </linearGradient>
    <linearGradient gradientTransform="matrix(0.0041, 0.0, 0.0, -0.0041, 0.35, -28.2)" gradientUnits="userSpaceOnUse" id="gradient6" spreadMethod="pad" x1="-819.2" x2="819.2">
      <stop offset="0.0" stop-color="#787876"/>
      <stop offset="1.0" stop-color="#262625"/>
    </linearGradient>
    <linearGradient gradientTransform="matrix(0.0183, 0.0, 0.0, -0.0183, 1.25, -5.3)" gradientUnits="userSpaceOnUse" id="gradient7" spreadMethod="pad" x1="-819.2" x2="819.2">
      <stop offset="0.0" stop-color="#91918f"/>
      <stop offset="1.0" stop-color="#262625"/>
    </linearGradient>
    <radialGradient cx="0" cy="0" gradientTransform="matrix(0.0017, 5.0E-4, 5.0E-4, -0.0017, -4.45, -21.1)" gradientUnits="userSpaceOnUse" id="gradient8" r="819.2" spreadMethod="pad">
      <stop offset="0.1607843137254902" stop-color="#bdbdb9"/>
      <stop offset="0.8784313725490196" stop-color="#787871"/>
    </radialGradient>
    <radialGradient cx="0" cy="0" gradientTransform="matrix(0.0017, 1.0E-4, 1.0E-4, -0.0017, -1.75, -20.95)" gradientUnits="userSpaceOnUse" id="gradient9" r="819.2" spreadMethod="pad">
      <stop offset="0.1607843137254902" stop-color="#bdbdb9"/>
      <stop offset="0.8784313725490196" stop-color="#787871"/>
    </radialGradient>
    <radialGradient cx="0" cy="0" gradientTransform="matrix(0.0017, 5.0E-4, 5.0E-4, -0.0017, -5.75, -16.45)" gradientUnits="userSpaceOnUse" id="gradient10" r="819.2" spreadMethod="pad">
      <stop offset="0.1607843137254902" stop-color="#bdbdb9"/>
      <stop offset="0.8784313725490196" stop-color="#787871"/>
    </radialGradient>
    <radialGradient cx="0" cy="0" gradientTransform="matrix(0.0017, 1.0E-4, 1.0E-4, -0.0017, -2.5, -16.3)" gradientUnits="userSpaceOnUse" id="gradient11" r="819.2" spreadMethod="pad">
      <stop offset="0.1607843137254902" stop-color="#bdbdb9"/>
      <stop offset="0.8784313725490196" stop-color="#787871"/>
    </radialGradient>
    <radialGradient cx="0" cy="0" gradientTransform="matrix(0.0017, 0.0, 0.0, -0.0017, -8.2, 5.7)" gradientUnits="userSpaceOnUse" id="gradient12" r="819.2" spreadMethod="pad">
      <stop offset="0.1607843137254902" stop-color="#bdbdb9"/>
      <stop offset="0.8784313725490196" stop-color="#787871"/>
    </radialGradient>
    <radialGradient cx="0" cy="0" gradientTransform="matrix(0.0017, 0.0, 0.0, -0.0017, -8.2, 10.95)" gradientUnits="userSpaceOnUse" id="gradient13" r="819.2" spreadMethod="pad">
      <stop offset="0.1607843137254902" stop-color="#bdbdb9"/>
      <stop offset="0.8784313725490196" stop-color="#787871"/>
    </radialGradient>
    <radialGradient cx="0" cy="0" gradientTransform="matrix(0.0017, 0.0, 0.0, -0.0017, -4.8, 6.1)" gradientUnits="userSpaceOnUse" id="gradient14" r="819.2" spreadMethod="pad">
      <stop offset="0.1607843137254902" stop-color="#bdbdb9"/>
      <stop offset="0.8784313725490196" stop-color="#787871"/>
    </radialGradient>
    <radialGradient cx="0" cy="0" gradientTransform="matrix(0.0017, 0.0, 0.0, -0.0017, -4.8, 11.35)" gradientUnits="userSpaceOnUse" id="gradient15" r="819.2" spreadMethod="pad">
      <stop offset="0.1607843137254902" stop-color="#bdbdb9"/>
      <stop offset="0.8784313725490196" stop-color="#787871"/>
    </radialGradient>
    <radialGradient cx="0" cy="0" gradientTransform="matrix(0.0017, 0.0, 0.0, -0.0017, -4.8, 16.9)" gradientUnits="userSpaceOnUse" id="gradient16" r="819.2" spreadMethod="pad">
      <stop offset="0.1607843137254902" stop-color="#bdbdb9"/>
      <stop offset="0.8784313725490196" stop-color="#787871"/>
    </radialGradient>
    <radialGradient cx="0" cy="0" gradientTransform="matrix(0.0017, 0.0, 0.0, -0.0017, -8.2, 16.5)" gradientUnits="userSpaceOnUse" id="gradient17" r="819.2" spreadMethod="pad">
      <stop offset="0.1607843137254902" stop-color="#bdbdb9"/>
      <stop offset="0.8784313725490196" stop-color="#787871"/>
    </radialGradient>
    <radialGradient cx="0" cy="0" gradientTransform="matrix(0.0017, 0.0, 0.0, -0.0017, -8.2, 22.45)" gradientUnits="userSpaceOnUse" id="gradient18" r="819.2" spreadMethod="pad">
      <stop offset="0.1607843137254902" stop-color="#bdbdb9"/>
      <stop offset="0.8784313725490196" stop-color="#787871"/>
    </radialGradient>
    <radialGradient cx="0" cy="0" gradientTransform="matrix(0.0017, 0.0, 0.0, -0.0017, -4.8, 22.85)" gradientUnits="userSpaceOnUse" id="gradient19" r="819.2" spreadMethod="pad">
      <stop offset="0.1607843137254902" stop-color="#bdbdb9"/>
      <stop offset="0.8784313725490196" stop-color="#787871"/>
    </radialGradient>
    <radialGradient cx="0" cy="0" gradientTransform="matrix(0.0017, 0.0, 0.0, -0.0017, -4.8, 27.9)" gradientUnits="userSpaceOnUse" id="gradient20" r="819.2" spreadMethod="pad">
      <stop offset="0.1607843137254902" stop-color="#bdbdb9"/>
      <stop offset="0.8784313725490196" stop-color="#787871"/>
    </radialGradient>
    <radialGradient cx="0" cy="0" gradientTransform="matrix(0.0017, 0.0, 0.0, -0.0017, -8.2, 27.5)" gradientUnits="userSpaceOnUse" id="gradient21" r="819.2" spreadMethod="pad">
      <stop offset="0.1607843137254902" stop-color="#bdbdb9"/>
      <stop offset="0.8784313725490196" stop-color="#787871"/>
    </radialGradient>
    <radialGradient cx="0" cy="0" gradientTransform="matrix(0.0017, 0.0, 0.0, -0.0017, -8.2, 32.75)" gradientUnits="userSpaceOnUse" id="gradient22" r="819.2" spreadMethod="pad">
      <stop offset="0.1607843137254902" stop-color="#bdbdb9"/>
      <stop offset="0.8784313725490196" stop-color="#787871"/>
    </radialGradient>
    <linearGradient gradientTransform="matrix(0.0206, 0.0, 0.0, -0.0206, 0.25, 36.5)" gradientUnits="userSpaceOnUse" id="gradient23" spreadMethod="pad" x1="-819.2" x2="819.2">
      <stop offset="0.0" stop-color="#787876"/>
      <stop offset="1.0" stop-color="#262625"/>
    </linearGradient>
    <radialGradient cx="0" cy="0" gradientTransform="matrix(0.0017, 0.0, 0.0, -0.0017, -4.8, 33.15)" gradientUnits="userSpaceOnUse" id="gradient24" r="819.2" spreadMethod="pad">
      <stop offset="0.1607843137254902" stop-color="#bdbdb9"/>
      <stop offset="0.8784313725490196" stop-color="#787871"/>
    </radialGradient>
    <radialGradient cx="0" cy="0" gradientTransform="matrix(0.001, 0.0, 0.0, -0.0017, -16.55, 33.85)" gradientUnits="userSpaceOnUse" id="gradient25" r="819.2" spreadMethod="pad">
      <stop offset="0.1607843137254902" stop-color="#80807d"/>
      <stop offset="0.8784313725490196" stop-color="#474743"/>
    </radialGradient>
    <radialGradient cx="0" cy="0" gradientTransform="matrix(0.0014, 0.0, 0.0, -0.0017, -14.6, 35.2)" gradientUnits="userSpaceOnUse" id="gradient26" r="819.2" spreadMethod="pad">
      <stop offset="0.1607843137254902" stop-color="#80807d"/>
      <stop offset="0.8784313725490196" stop-color="#474743"/>
    </radialGradient>
    <radialGradient cx="0" cy="0" gradientTransform="matrix(0.0017, 0.0, 0.0, -0.0017, -11.7, 36.55)" gradientUnits="userSpaceOnUse" id="gradient27" r="819.2" spreadMethod="pad">
      <stop offset="0.1607843137254902" stop-color="#80807d"/>
      <stop offset="0.8784313725490196" stop-color="#474743"/>
    </radialGradient>
    <radialGradient cx="0" cy="0" gradientTransform="matrix(0.0017, 0.0, 0.0, -0.0017, -3.65, 38.3)" gradientUnits="userSpaceOnUse" id="gradient28" r="819.2" spreadMethod="pad">
      <stop offset="0.1607843137254902" stop-color="#80807d"/>
      <stop offset="0.8784313725490196" stop-color="#474743"/>
    </radialGradient>
    <radialGradient cx="0" cy="0" gradientTransform="matrix(0.0017, 0.0, 0.0, -0.0017, -8.15, 37.55)" gradientUnits="userSpaceOnUse" id="gradient29" r="819.2" spreadMethod="pad">
      <stop offset="0.1607843137254902" stop-color="#80807d"/>
      <stop offset="0.8784313725490196" stop-color="#474743"/>
    </radialGradient>
    <radialGradient cx="0" cy="0" gradientTransform="matrix(0.0017, 0.0, 0.0, -0.0017, 12.95, 35.95)" gradientUnits="userSpaceOnUse" id="gradient30" r="819.2" spreadMethod="pad">
      <stop offset="0.1607843137254902" stop-color="#4f4f4c"/>
      <stop offset="0.8784313725490196" stop-color="#242421"/>
    </radialGradient>
    <radialGradient cx="0" cy="0" gradientTransform="matrix(0.0017, 0.0, 0.0, -0.0017, 16.3, 34.2)" gradientUnits="userSpaceOnUse" id="gradient31" r="819.2" spreadMethod="pad">
      <stop offset="0.1607843137254902" stop-color="#4f4f4c"/>
      <stop offset="0.8784313725490196" stop-color="#242421"/>
    </radialGradient>
    <radialGradient cx="0" cy="0" gradientTransform="matrix(0.0017, 0.0, 0.0, -0.0017, 5.1, 38.05)" gradientUnits="userSpaceOnUse" id="gradient32" r="819.2" spreadMethod="pad">
      <stop offset="0.1607843137254902" stop-color="#80807d"/>
      <stop offset="0.8784313725490196" stop-color="#474743"/>
    </radialGradient>
    <radialGradient cx="0" cy="0" gradientTransform="matrix(0.0017, 0.0, 0.0, -0.0017, 9.1, 37.3)" gradientUnits="userSpaceOnUse" id="gradient33" r="819.2" spreadMethod="pad">
      <stop offset="0.1607843137254902" stop-color="#575754"/>
      <stop offset="0.8784313725490196" stop-color="#30302d"/>
    </radialGradient>
    <radialGradient cx="0" cy="0" gradientTransform="matrix(0.0017, 0.0, 0.0, -0.0017, 0.85, 38.45)" gradientUnits="userSpaceOnUse" id="gradient34" r="819.2" spreadMethod="pad">
      <stop offset="0.1607843137254902" stop-color="#80807d"/>
      <stop offset="0.8784313725490196" stop-color="#474743"/>
    </radialGradient>
    <g id="sprite2" transform="matrix(1.0, 0.0, 0.0, 1.0, 11.0, 2.7)">
      <use height="5.4" transform="matrix(1.0, 0.0, 0.0, 1.0, -10.95, -2.7)" width="21.95" xlink:href="#shape2"/>
    </g>
    <g id="shape2" transform="matrix(1.0, 0.0, 0.0, 1.0, 10.95, 2.7)">
      <path d="M9.8 -0.15 Q9.45 -0.35 9.65 -0.65 L10.15 -0.7 Q10.5 -0.45 10.3 -0.15 10.2 0.15 9.8 -0.15 M-9.1 -1.35 Q-9.25 -1.65 -9.05 -1.85 L-8.75 -1.8 Q-8.65 -1.45 -8.8 -1.3 L-9.1 -1.35" fill="#ffffff" fill-rule="evenodd" stroke="none"/>
      <path d="M7.6 -0.9 Q8.15 -1.55 9.0 -1.55 9.85 -1.55 10.4 -0.9 11.0 -0.3 11.0 0.6 11.0 1.45 10.4 2.1 9.85 2.7 9.0 2.7 8.2 2.7 7.6 2.1 7.0 1.45 7.0 0.6 7.0 -0.3 7.6 -0.9 M9.8 -0.15 Q10.2 0.15 10.3 -0.15 10.5 -0.45 10.15 -0.7 L9.65 -0.65 Q9.45 -0.35 9.8 -0.15 M9.75 2.0 L8.45 1.75 7.55 0.95 7.4 0.5 7.4 1.1 Q7.55 1.8 8.2 2.15 9.1 2.7 9.75 2.0 M-10.1 -2.35 Q-9.6 -2.8 -9.1 -2.65 -8.6 -2.5 -8.45 -1.85 -8.25 -1.2 -8.5 -0.4 -8.7 0.4 -9.25 0.85 -9.75 1.3 -10.25 1.15 -10.75 1.0 -10.9 0.35 L-10.85 -1.1 -10.1 -2.35 M-9.1 -1.35 L-8.8 -1.3 Q-8.65 -1.45 -8.75 -1.8 L-9.05 -1.85 Q-9.25 -1.65 -9.1 -1.35 M-9.65 0.8 Q-8.85 0.45 -8.7 -0.55 -9.0 0.15 -9.7 0.4 L-10.3 0.5 -10.5 0.4 Q-10.3 1.1 -9.65 0.8" fill="#3b3526" fill-rule="evenodd" stroke="none"/>
      <path d="M9.75 2.0 Q9.1 2.7 8.2 2.15 7.55 1.8 7.4 1.1 L7.4 0.5 7.55 0.95 8.45 1.75 9.75 2.0 M-9.65 0.8 Q-10.3 1.1 -10.5 0.4 L-10.3 0.5 -9.7 0.4 Q-9.0 0.15 -8.7 -0.55 -8.85 0.45 -9.65 0.8" fill="#63704d" fill-rule="evenodd" stroke="none"/>
    </g>
    <g id="sprite3" transform="matrix(1.0, 0.0, 0.0, 1.0, 2.85, 5.45)">
      <use height="10.9" transform="matrix(1.0, 0.0, 0.0, 1.0, -2.85, -5.45)" width="5.75" xlink:href="#shape3"/>
    </g>
    <g id="shape3" transform="matrix(1.0, 0.0, 0.0, 1.0, 2.85, 5.45)">
      <path d="M2.9 -1.05 L2.85 1.3 Q2.7 3.5 1.8 4.65 0.95 5.85 -0.15 5.3 -1.25 4.75 -2.05 2.75 -2.85 0.75 -2.85 -1.3 -2.85 -3.1 -1.75 -4.3 -0.9 -5.25 0.15 -5.45 1.9 -5.7 2.55 -3.3 L2.9 -1.05" fill="#cccccc" fill-rule="evenodd" stroke="none"/>
    </g>
    <g id="shape4" transform="matrix(1.0, 0.0, 0.0, 1.0, 12.55, 13.3)">
      <path d="M0.6 5.55 Q1.4 1.6 1.4 -2.7 1.4 -3.95 0.65 -4.4 -0.15 -4.9 -2.65 -4.9 L-8.6 -4.9 -11.1 -5.2 Q-11.85 -5.5 -12.3 -6.85 -12.75 -8.35 -12.35 -9.9 -11.9 -11.35 -10.4 -12.3 -9.2 -13.05 -8.3 -13.05 L-2.6 -13.3 Q3.6 -13.25 6.4 -11.8 9.05 -10.35 10.15 -7.0 10.75 -5.2 11.1 -1.45 11.3 0.8 12.05 5.4 L12.0 5.15 Q9.25 7.35 6.05 7.35 3.2 7.35 0.6 5.55 M12.45 7.9 L12.65 9.15 11.95 10.4 Q11.0 11.8 9.85 12.6 8.55 13.45 6.35 13.45 L2.65 12.9 Q1.3 12.55 0.45 10.65 L-0.15 8.85 0.0 8.2 Q2.4 10.05 6.05 10.05 10.05 10.05 12.45 7.9" fill="url(#gradient35)" fill-rule="evenodd" stroke="none"/>
      <path d="M0.6 5.55 Q3.2 7.35 6.05 7.35 9.25 7.35 12.0 5.15 L12.05 5.4 12.45 7.9 Q10.05 10.05 6.05 10.05 2.4 10.05 0.0 8.2 L0.55 5.5 0.6 5.55" fill="url(#gradient36)" fill-rule="evenodd" stroke="none"/>
    </g>
    <linearGradient gradientTransform="matrix(0.0154, 0.0, 0.0, -0.0154, 0.05, 0.05)" gradientUnits="userSpaceOnUse" id="gradient35" spreadMethod="pad" x1="-819.2" x2="819.2">
      <stop offset="0.0" stop-color="#a1a1a1"/>
      <stop offset="0.8784313725490196" stop-color="#4a4a47"/>
      <stop offset="1.0" stop-color="#828280"/>
    </linearGradient>
    <linearGradient gradientTransform="matrix(0.0066, 0.0, 0.0, -0.0066, 6.6, 7.6)" gradientUnits="userSpaceOnUse" id="gradient36" spreadMethod="pad" x1="-819.2" x2="819.2">
      <stop offset="0.0" stop-color="#575755"/>
      <stop offset="1.0" stop-color="#262625"/>
    </linearGradient>
  </defs>
</svg>
