<?xml version="1.0" encoding="UTF-8" standalone="no"?>
<svg xmlns:xlink="http://www.w3.org/1999/xlink" height="111.2px" width="286.3px" xmlns="http://www.w3.org/2000/svg">
  <g transform="matrix(1.0, 0.0, 0.0, 1.0, 0.0, 0.0)">
    <use height="111.2" transform="matrix(1.0, 0.0, 0.0, 1.0, 0.0, 0.0)" width="286.3" xlink:href="#shape0"/>
  </g>
  <defs>
    <g id="shape0" transform="matrix(1.0, 0.0, 0.0, 1.0, 0.0, 0.0)">
      <path d="M228.5 0.0 L228.4 2.05 Q228.35 4.35 228.45 5.3 L228.1 12.05 227.5 19.3 228.8 19.3 229.35 19.25 230.45 19.4 232.1 19.5 233.9 18.35 235.05 17.5 235.3 17.35 235.25 16.65 Q235.25 16.0 235.4 15.65 L235.9 14.1 235.95 15.65 236.0 16.5 236.3 17.0 236.7 16.95 Q237.6 16.8 238.7 15.85 L239.5 14.15 239.8 13.2 Q239.85 14.5 238.9 16.65 L238.15 17.15 Q237.4 17.4 237.25 17.55 L236.35 17.9 235.5 18.2 234.5 18.85 233.15 19.8 Q232.3 20.55 230.4 20.35 L228.8 20.25 227.5 20.2 227.35 20.15 226.5 25.75 Q225.9 29.75 225.95 30.4 L225.7 38.6 224.95 42.6 225.25 45.3 225.4 49.05 Q225.25 50.1 226.05 62.25 L227.65 61.45 Q230.95 60.05 231.7 60.0 L237.0 58.7 Q238.45 58.45 238.45 58.2 L238.45 58.15 238.25 56.85 237.6 55.25 236.8 53.7 236.7 52.55 236.65 51.25 237.0 49.0 237.8 46.35 238.25 45.75 238.65 45.5 238.15 46.5 237.6 49.6 238.7 49.45 239.65 49.2 240.65 48.4 239.25 49.75 Q238.55 50.2 238.1 50.25 L237.45 50.2 237.45 50.4 237.35 52.35 Q237.3 53.0 238.1 54.45 L239.1 56.6 239.9 57.7 240.4 57.35 Q241.35 56.4 243.3 55.05 L247.2 52.6 249.6 50.6 251.45 47.75 Q250.7 50.7 250.0 51.3 L246.1 54.05 240.95 57.85 239.9 58.75 Q239.4 59.2 238.5 59.25 L235.75 59.85 232.7 60.85 228.7 62.0 Q227.95 62.3 226.65 63.95 L226.25 64.45 Q226.4 65.95 226.9 68.35 227.4 70.8 227.75 71.55 228.25 72.65 227.65 79.5 L227.85 81.05 Q228.05 82.25 227.85 83.3 L227.7 84.2 228.35 84.15 229.0 84.05 230.45 83.85 232.1 82.7 234.4 80.35 Q234.6 80.1 235.4 79.65 L238.35 78.2 241.2 77.3 242.15 76.0 242.65 74.8 243.25 72.55 243.25 73.45 242.8 75.6 Q242.35 77.05 241.95 77.3 240.3 78.65 239.7 78.7 L237.2 79.45 Q236.55 79.6 234.95 81.1 233.6 82.4 232.6 83.6 L231.35 84.65 Q230.5 85.0 230.4 85.1 L229.15 85.85 Q228.35 86.35 227.8 87.1 L227.7 87.25 227.65 94.4 225.6 94.15 225.6 86.55 226.05 78.2 225.9 73.95 225.0 72.85 Q222.7 70.4 221.4 69.6 L219.75 68.55 218.5 67.8 217.1 66.85 215.95 66.3 Q215.1 66.1 214.6 65.6 L213.65 64.85 213.35 64.55 Q213.2 64.2 211.85 63.35 L209.6 62.15 207.95 60.75 Q206.6 59.25 205.1 58.2 L203.3 57.0 202.85 56.4 201.6 54.7 199.9 52.0 199.0 48.35 Q200.05 52.05 202.5 55.1 L204.5 56.9 207.25 58.8 209.75 61.4 210.7 61.85 211.75 61.7 212.35 61.45 212.75 61.05 213.25 60.1 213.7 59.35 213.8 59.0 Q213.9 58.65 214.05 58.6 214.3 58.5 214.35 56.9 L214.6 55.85 214.45 55.05 214.2 54.55 214.7 55.05 Q214.9 55.2 214.9 56.15 L214.4 59.2 213.85 60.45 Q213.8 61.05 213.0 61.95 L212.15 62.55 213.15 63.0 215.2 64.6 216.6 65.25 218.75 66.05 Q219.65 66.2 223.3 69.6 223.9 70.2 225.6 71.3 L225.35 69.4 224.3 54.9 Q223.5 42.2 223.65 41.1 L224.35 38.7 Q224.8 37.3 224.65 36.7 L224.55 34.85 223.45 34.3 Q222.75 33.9 222.15 33.85 L221.6 33.9 220.15 32.9 217.95 30.65 216.9 29.85 216.3 29.0 215.9 28.0 214.6 24.55 214.15 23.75 213.65 23.35 Q213.2 22.8 213.45 19.9 213.65 22.05 214.2 22.7 L215.2 23.9 216.1 25.75 216.55 26.9 217.15 28.3 217.7 28.1 Q218.05 28.0 218.2 27.5 L218.85 26.7 219.15 24.85 219.25 23.7 219.5 24.7 219.6 25.65 219.1 27.25 218.45 28.55 217.85 29.2 221.25 32.55 Q221.75 33.05 222.3 33.2 L223.15 33.3 224.7 33.55 225.0 31.85 225.15 29.3 225.45 25.6 Q227.4 15.6 227.6 10.75 L227.75 7.65 227.3 7.2 226.55 6.2 225.85 5.55 224.9 4.65 224.45 4.2 224.1 3.6 Q223.8 3.15 223.8 1.3 224.0 2.9 224.75 3.7 L225.65 4.35 226.65 5.05 227.5 6.15 227.8 6.5 228.5 0.0" fill="#403615" fill-rule="evenodd" stroke="none"/>
      <path d="M54.1 40.45 L54.85 42.85 55.9 46.1 Q58.05 51.5 58.5 53.65 L59.2 55.25 Q59.55 56.1 59.25 57.15 58.9 58.3 58.9 60.65 L58.95 64.65 58.85 67.9 58.85 69.9 Q58.9 70.5 59.55 71.7 L60.4 73.05 60.45 73.15 59.8 74.1 58.1 72.85 57.75 70.95 Q57.35 66.7 57.6 65.55 L57.95 62.1 58.0 58.7 58.1 57.6 57.95 56.8 57.95 56.75 56.25 56.55 54.1 56.75 51.95 57.1 50.55 56.8 49.0 56.3 47.6 55.75 46.4 55.05 43.55 53.1 Q43.2 52.95 43.0 52.35 L42.85 51.8 43.9 52.75 47.35 54.6 47.6 53.25 47.65 51.95 47.35 51.1 47.05 50.5 Q47.85 51.4 48.2 52.7 48.45 53.75 48.3 54.25 L48.05 54.95 48.25 55.1 50.6 55.9 53.35 55.8 56.35 55.45 57.9 54.9 57.7 54.15 Q57.2 53.3 56.05 49.85 L54.55 44.25 53.1 40.6 51.7 38.85 50.35 37.3 52.05 38.45 54.1 40.45" fill="#403615" fill-rule="evenodd" stroke="none"/>
      <path d="M10.5 83.0 Q11.9 84.9 12.3 87.15 L12.5 84.4 Q12.75 82.8 13.5 81.75 14.05 82.4 14.45 84.1 14.9 85.75 15.4 86.4 15.85 85.05 15.25 83.1 L14.15 79.85 Q15.7 81.45 16.7 85.0 18.5 78.9 21.65 76.7 22.4 78.1 22.3 81.05 L22.15 85.65 Q24.3 80.8 27.65 77.55 L26.35 83.15 Q25.85 86.6 27.55 88.6 28.2 86.85 28.7 86.1 L28.95 88.6 Q28.95 90.4 29.1 91.15 29.6 93.65 28.25 92.25 L25.8 92.2 Q25.15 93.45 23.8 92.75 L21.75 91.15 Q21.2 92.9 20.95 92.9 L19.4 91.5 Q19.05 92.15 18.7 93.9 L17.7 92.95 16.7 91.85 Q16.2 92.45 15.55 93.85 15.0 93.55 14.45 92.35 L13.5 90.7 12.75 92.3 11.65 93.75 10.5 92.1 9.45 90.3 Q9.25 90.6 9.15 91.45 L8.85 92.55 Q8.45 92.95 8.05 92.85 L7.1 92.5 Q6.5 92.35 5.75 92.5 5.65 92.55 5.05 92.95 L4.35 92.85 4.6 92.95 Q4.5 91.9 3.45 90.95 L1.4 89.5 Q2.75 89.7 4.65 91.1 4.35 89.7 2.65 88.1 L0.0 85.55 Q1.75 85.85 3.65 87.05 5.4 88.2 6.65 89.65 L6.7 86.85 Q6.65 85.15 7.3 84.2 8.15 84.95 8.4 86.9 8.85 85.4 7.95 83.45 L6.7 80.2 Q8.9 80.85 10.5 83.0" fill="#3c610c" fill-rule="evenodd" stroke="none"/>
      <path d="M275.85 80.95 Q277.45 79.4 279.7 78.9 L278.4 81.25 Q277.45 82.7 277.9 83.75 278.15 82.3 279.0 81.8 279.65 82.5 279.65 83.7 L279.65 85.75 Q280.85 84.7 282.6 83.85 284.55 82.9 286.3 82.65 L283.65 84.55 Q281.95 85.75 281.6 86.75 283.45 85.75 284.85 85.55 283.15 86.4 282.8 86.6 281.75 87.3 281.6 88.1 L281.9 88.0 281.2 88.1 280.45 87.75 279.1 87.8 278.2 88.05 277.4 87.85 Q277.2 87.65 277.1 87.05 277.05 86.45 276.8 86.2 L275.7 87.55 274.55 88.75 273.5 87.75 272.75 86.6 271.8 87.75 270.7 88.85 269.55 87.4 268.55 88.25 267.55 88.95 267.2 88.05 266.85 87.2 265.3 88.25 Q265.05 88.2 264.55 87.0 263.2 87.85 262.45 88.15 261.1 88.65 260.45 87.75 L259.0 88.25 Q258.0 88.45 258.0 87.85 256.65 88.85 257.15 87.05 L257.35 85.2 Q257.35 84.0 257.6 83.35 L258.75 85.2 Q260.45 83.75 260.05 81.25 L258.75 77.2 Q262.1 79.6 264.2 83.0 L264.1 79.65 Q264.0 77.5 264.75 76.5 267.95 78.1 269.6 82.5 270.75 79.8 272.25 78.7 L271.15 81.1 Q270.5 82.5 270.9 83.45 L271.9 81.8 Q272.35 80.6 272.85 80.1 273.6 80.85 273.8 82.0 L274.0 84.0 Q274.4 82.35 275.85 80.95" fill="#3c610c" fill-rule="evenodd" stroke="none"/>
      <path d="M115.95 85.6 Q116.35 84.5 116.7 84.2 L115.6 84.0 115.95 85.6 M248.25 66.95 L244.5 67.95 247.95 68.05 251.15 68.4 250.9 68.7 Q250.45 68.8 250.45 68.95 252.85 68.85 255.9 70.45 259.1 72.05 259.45 73.85 263.95 76.55 265.8 78.25 264.85 77.8 261.25 76.7 264.05 79.15 265.6 81.6 265.0 81.2 263.6 80.9 L261.3 80.4 Q261.7 80.8 262.0 82.0 L262.45 83.55 Q261.45 83.5 261.1 83.8 263.55 88.1 264.55 91.7 264.2 90.95 263.1 90.1 L261.4 88.7 261.45 90.15 Q261.4 91.35 261.5 91.8 L259.9 90.8 261.2 93.5 Q261.9 95.05 262.2 96.45 L260.65 95.0 259.05 93.5 258.65 95.2 Q258.3 96.4 258.45 97.15 L257.7 96.05 256.95 94.9 256.5 96.5 256.05 97.9 255.0 96.65 253.9 95.65 Q254.15 96.55 253.65 99.3 L252.35 98.3 251.85 100.75 249.95 99.7 248.15 100.1 245.85 100.65 Q244.3 103.65 243.65 103.9 242.5 104.35 239.65 103.9 237.25 103.55 235.9 104.65 234.3 103.2 232.75 103.45 231.3 103.7 230.15 105.5 L230.35 102.75 228.75 103.85 227.2 104.7 226.15 103.3 225.05 102.1 220.6 104.6 Q217.95 106.1 215.8 105.2 L215.4 106.45 Q215.0 107.45 214.95 107.95 212.8 106.8 210.05 107.05 207.0 107.35 206.15 109.25 L204.75 108.15 203.3 106.9 202.05 108.2 200.8 109.5 200.2 108.85 199.9 108.2 198.2 108.9 196.8 109.55 197.25 108.1 197.65 106.85 194.3 107.25 191.25 107.65 Q191.2 108.35 190.05 110.05 L188.15 108.85 Q186.85 107.95 186.25 107.35 L185.85 108.55 185.4 109.75 184.0 108.75 182.55 107.75 181.05 109.8 Q180.8 109.2 179.85 108.35 L178.6 106.85 177.35 110.5 176.1 109.2 175.05 110.2 173.95 111.2 Q174.15 110.6 173.95 109.2 173.7 107.8 173.9 107.2 173.3 107.15 172.15 108.0 L172.0 107.25 171.6 106.45 170.7 107.6 169.8 108.45 169.25 107.5 168.95 106.55 Q168.6 106.55 168.4 106.95 168.25 107.3 167.9 107.1 L165.75 104.2 Q165.75 104.8 165.05 104.8 162.95 102.25 159.2 102.3 L152.15 102.75 151.4 104.25 148.6 103.25 145.9 101.75 145.1 103.25 144.0 102.4 142.9 101.55 142.2 102.45 Q141.8 102.95 141.75 103.3 140.7 101.5 139.1 101.35 137.75 101.2 135.5 102.3 L136.75 100.3 137.75 98.45 135.9 98.55 134.05 98.85 Q134.8 97.7 134.9 96.75 L132.6 95.65 Q132.6 96.0 131.5 97.15 L129.75 96.05 Q128.5 95.45 128.0 94.75 L127.25 95.95 125.4 94.45 123.8 92.95 Q123.45 93.25 123.0 94.45 L122.55 93.65 122.1 92.85 121.7 93.7 121.0 94.3 Q120.55 93.25 120.45 91.3 L120.1 88.1 Q119.05 88.1 118.75 88.35 L118.65 87.45 Q118.6 86.95 118.2 86.75 L116.05 86.95 115.9 87.65 Q114.95 88.9 112.0 88.25 109.15 87.6 107.85 89.5 L106.55 89.6 105.5 89.7 Q104.8 89.0 104.9 88.45 104.55 88.45 104.2 88.75 L103.55 89.05 103.4 88.25 103.25 87.5 102.45 87.6 101.6 87.75 101.3 86.5 99.95 87.85 Q97.9 86.2 94.8 88.85 L96.4 88.55 98.2 88.25 Q97.5 90.1 94.85 90.75 L90.1 91.6 92.0 93.85 89.0 93.9 86.0 93.9 85.95 95.15 Q83.65 95.1 79.65 93.7 L79.45 94.65 79.25 95.85 Q76.1 95.7 73.95 94.4 73.75 94.4 73.5 94.85 L73.25 95.3 67.5 91.35 Q63.45 88.85 61.1 90.85 62.3 93.45 59.7 93.8 L54.65 93.4 54.8 93.9 54.95 94.65 52.75 94.4 50.3 93.85 Q49.25 94.75 48.5 94.75 47.8 94.75 46.3 94.0 L46.05 94.35 45.6 94.9 Q45.45 94.4 44.45 93.65 L43.0 92.35 41.25 94.45 41.1 94.0 40.95 93.5 39.45 93.9 37.95 94.3 Q38.95 92.55 38.45 91.15 37.95 89.85 36.15 89.05 35.9 89.0 35.5 89.5 L35.1 90.25 34.3 89.6 33.5 88.95 33.25 89.55 32.75 90.15 Q31.05 89.25 29.8 88.8 L29.4 89.25 28.8 89.7 27.5 87.65 Q26.9 86.6 26.95 85.65 L25.6 85.9 Q24.65 86.1 24.25 86.45 24.9 85.55 25.05 84.5 L25.4 82.5 24.9 82.7 24.35 83.1 22.2 78.7 22.95 77.2 23.65 75.7 21.3 76.2 24.2 73.7 Q26.05 72.15 26.85 70.9 L24.85 70.5 26.85 69.8 Q28.15 69.2 28.6 69.1 L28.4 68.8 27.95 68.45 30.55 68.0 32.65 67.1 31.05 66.1 Q35.1 66.3 36.4 64.8 L39.1 65.2 Q38.9 64.45 39.2 63.6 L39.5 62.45 41.4 63.55 Q40.95 62.75 41.2 61.9 L42.8 62.1 44.85 62.35 43.25 61.05 Q45.85 61.1 49.2 62.8 L47.25 61.2 Q48.75 61.05 51.05 62.1 L54.8 64.2 Q54.8 63.6 55.15 63.6 L56.45 64.6 57.75 65.85 58.4 65.3 59.55 66.25 60.65 67.5 61.35 66.9 63.65 68.55 68.05 67.8 72.7 66.4 72.1 65.75 78.3 63.2 Q81.05 62.45 85.2 63.2 L85.25 61.95 88.6 61.15 90.7 62.2 92.5 63.45 Q93.25 61.65 93.6 61.35 93.95 61.35 94.25 61.65 94.7 60.55 95.65 60.2 L95.95 61.55 96.2 62.65 97.25 61.45 102.55 62.3 103.45 64.75 103.85 63.85 Q105.15 65.6 112.3 71.3 118.0 76.7 114.25 79.0 L115.3 82.75 119.35 81.5 Q121.65 80.65 123.05 79.4 L122.15 78.4 Q122.75 78.1 123.2 76.95 L124.0 75.45 122.05 75.0 Q122.1 74.65 122.5 74.15 L123.15 73.25 122.4 73.05 121.85 72.85 127.2 72.9 Q126.35 72.45 125.95 71.55 L127.5 71.1 129.0 70.85 125.9 70.05 122.75 69.5 127.7 69.95 132.4 70.15 Q130.8 69.1 129.85 68.75 L133.55 69.0 137.45 69.55 Q135.1 68.2 133.9 67.75 L143.1 69.25 Q148.5 70.3 152.0 71.65 152.4 70.75 152.75 70.5 L154.7 72.75 Q155.85 73.85 157.2 74.15 158.1 77.0 161.05 76.1 162.25 75.7 165.9 73.45 L164.65 73.65 166.6 72.0 168.15 70.55 170.65 69.9 172.9 69.0 168.95 68.45 175.95 68.0 182.75 66.85 Q182.1 66.8 180.8 66.1 L187.3 66.85 193.75 67.55 193.45 66.6 Q194.75 66.7 196.9 67.45 L200.35 68.55 Q200.45 67.6 200.8 67.05 201.65 67.3 205.25 69.3 208.0 70.85 209.55 70.4 L209.85 71.0 210.15 71.65 Q211.55 70.45 212.3 69.8 L214.75 67.95 214.6 70.1 216.0 69.25 216.0 69.5 Q216.05 70.0 216.25 70.2 216.3 69.8 216.5 69.45 L217.05 68.7 Q217.65 69.65 219.2 71.0 219.6 71.0 220.6 70.15 L221.15 71.75 Q221.8 71.35 223.55 70.8 L225.65 69.85 Q225.6 70.75 225.85 71.4 L230.05 69.55 Q232.65 68.4 234.45 67.95 L233.05 68.8 Q239.8 65.5 248.25 66.95" fill="#2b4707" fill-rule="evenodd" stroke="none"/>
      <path d="M237.0 84.65 L239.35 87.65 241.85 90.65 Q241.45 89.15 239.85 85.85 238.35 82.7 238.0 80.85 240.05 81.25 242.5 84.15 L246.2 88.65 Q246.5 87.15 245.15 84.25 243.4 80.55 243.2 79.65 244.45 80.65 246.2 82.75 L249.0 85.85 248.4 83.5 Q248.0 81.95 248.2 81.0 249.35 81.45 250.5 82.75 L252.2 85.15 252.05 83.25 Q252.0 81.95 252.2 81.15 253.0 81.95 253.7 83.45 L254.85 85.85 Q254.85 83.65 255.0 82.65 L255.65 83.45 256.2 84.5 256.2 81.6 Q256.15 79.85 256.35 78.85 L257.25 80.3 257.85 81.85 Q257.85 81.45 258.3 80.8 L258.85 79.85 259.7 80.85 Q260.0 80.15 260.2 80.0 L261.9 81.65 262.45 83.55 Q261.45 83.5 261.1 83.8 263.55 88.1 264.55 91.7 264.2 90.95 263.1 90.1 L261.4 88.7 261.45 90.15 Q261.4 91.35 261.5 91.8 L259.9 90.8 261.2 93.5 Q261.9 95.05 262.2 96.45 L260.65 95.0 259.05 93.5 258.65 95.2 Q258.3 96.4 258.45 97.15 L257.7 96.05 256.95 94.9 256.5 96.5 256.05 97.9 255.0 96.65 253.9 95.65 Q254.15 96.55 253.65 99.3 L252.35 98.3 251.85 100.75 249.95 99.7 248.15 100.1 245.85 100.65 Q244.3 103.65 243.65 103.9 242.5 104.35 239.65 103.9 237.25 103.55 235.9 104.65 234.3 103.2 232.75 103.45 231.3 103.7 230.15 105.5 L230.35 102.75 228.75 103.85 227.2 104.7 226.15 103.3 225.05 102.1 220.6 104.6 Q217.95 106.1 215.8 105.2 L215.4 106.45 Q215.0 107.45 214.95 107.95 212.8 106.8 210.05 107.05 207.0 107.35 206.15 109.25 L204.75 108.15 203.3 106.9 202.05 108.2 200.8 109.5 200.2 108.85 199.9 108.2 198.2 108.9 196.8 109.55 197.25 108.1 197.65 106.85 194.3 107.25 191.25 107.65 Q191.2 108.35 190.05 110.05 L188.15 108.85 Q186.85 107.95 186.25 107.35 L185.85 108.55 185.4 109.75 184.0 108.75 182.55 107.75 181.05 109.8 Q180.8 109.2 179.85 108.35 L178.6 106.85 177.35 110.5 176.1 109.2 175.05 110.2 173.95 111.2 Q174.15 110.6 173.95 109.2 173.7 107.8 173.9 107.2 173.3 107.15 172.15 108.0 L172.0 107.25 171.6 106.45 170.7 107.6 169.8 108.45 169.25 107.5 168.95 106.55 Q168.6 106.55 168.4 106.95 168.25 107.3 167.9 107.1 L165.75 104.2 Q165.75 104.8 165.05 104.8 L163.3 103.2 163.7 101.0 164.7 101.9 165.5 102.85 166.0 101.1 166.35 99.35 168.2 101.15 Q169.35 102.4 170.2 102.85 L170.7 101.85 172.5 103.35 172.7 101.85 173.5 102.85 Q174.0 101.85 174.0 100.15 L174.85 102.65 175.5 100.1 176.0 97.5 176.7 99.65 Q177.7 97.35 178.5 96.5 179.05 97.4 179.35 99.5 L181.0 95.85 181.45 97.2 181.85 98.65 182.45 97.25 Q182.75 96.35 183.0 96.0 L183.7 98.65 Q184.55 98.0 185.55 96.0 L187.2 93.0 187.5 95.15 Q188.65 94.2 190.2 91.75 191.85 89.1 192.85 88.15 L193.05 90.5 193.0 93.0 Q193.65 92.1 194.35 89.65 L194.5 90.0 195.8 86.8 196.85 83.5 Q198.15 85.5 197.8 90.25 197.4 95.3 198.35 97.35 L199.0 96.85 201.2 99.15 201.7 98.5 205.35 99.7 Q207.75 100.35 208.35 99.0 208.7 99.35 209.2 99.35 L209.25 98.3 209.35 97.35 212.5 99.15 212.85 96.85 Q213.05 95.4 213.35 94.65 213.35 95.5 213.5 96.0 214.8 91.7 217.5 88.15 L217.35 92.25 Q217.45 94.4 218.35 96.15 L220.85 94.85 221.35 95.6 221.85 96.35 Q222.15 95.95 222.85 95.55 L223.85 94.85 224.25 95.45 224.7 95.85 226.8 94.5 Q228.1 93.75 229.2 93.5 229.95 94.65 229.35 96.65 231.35 95.35 232.5 95.0 L233.0 96.5 Q233.85 96.1 234.5 94.95 L235.35 93.0 235.95 94.35 236.5 95.85 236.75 93.0 Q236.75 91.1 237.0 90.15 238.0 90.7 238.75 92.2 L239.85 94.85 Q240.15 92.65 239.05 89.65 L237.0 84.65" fill="#274006" fill-rule="evenodd" stroke="none"/>
      <path d="M155.9 82.8 Q155.2 83.75 154.85 85.2 153.1 87.2 153.0 89.85 L153.05 92.95 Q153.1 94.65 153.5 96.0 L153.5 96.1 Q153.55 98.95 155.8 101.4 L155.7 102.4 152.55 102.55 151.8 104.05 149.0 103.1 146.25 101.65 145.9 102.3 145.5 103.2 144.35 102.4 143.25 101.55 142.55 102.45 142.15 103.35 Q141.05 101.55 139.45 101.45 138.05 101.35 135.85 102.5 L137.1 100.4 Q137.75 98.9 138.05 98.55 L136.2 98.7 Q134.9 98.7 134.35 99.05 135.1 97.75 135.1 96.9 L132.85 95.9 131.75 97.4 Q131.35 97.0 130.0 96.35 128.7 95.8 128.2 95.1 L127.45 96.3 125.55 94.85 123.95 93.4 Q123.6 93.7 123.2 94.9 L122.75 94.1 122.3 93.3 121.85 94.2 121.2 94.8 Q120.7 93.8 120.55 91.85 L120.15 88.6 118.8 88.85 118.8 88.8 121.45 84.55 Q122.8 83.2 123.7 82.85 L123.55 83.55 127.95 82.05 126.85 82.95 125.7 83.75 126.3 83.75 125.1 85.2 124.1 86.7 124.3 86.65 124.9 88.4 125.45 90.1 126.45 88.7 127.3 90.3 127.8 89.7 128.3 89.05 129.8 90.55 130.55 89.4 130.95 90.1 131.4 89.6 131.8 89.05 132.7 91.35 134.45 89.65 134.85 90.85 134.95 92.3 136.45 90.8 137.05 92.45 Q137.45 93.4 138.05 93.65 L138.55 91.0 139.8 92.3 141.05 93.45 Q141.5 92.75 141.4 91.65 L141.2 89.65 142.95 91.25 Q143.25 90.15 142.4 88.55 L140.8 86.05 Q143.05 88.65 144.3 89.3 L144.7 87.75 144.95 86.2 Q145.5 87.2 145.7 88.35 147.95 85.0 150.3 83.55 L150.6 84.35 150.55 85.25 Q151.5 83.45 153.05 82.05 153.3 83.05 153.2 83.9 154.1 83.75 155.9 82.8" fill="#274006" fill-rule="evenodd" stroke="none"/>
      <path d="M75.0 89.0 L76.6 87.25 76.45 88.55 Q76.15 89.95 75.7 90.4 L74.6 91.65 76.05 91.7 Q77.75 91.55 78.95 90.65 L80.85 89.25 78.6 93.25 Q84.45 91.15 85.35 90.0 L86.25 88.85 85.75 92.4 87.0 91.8 Q88.3 91.05 88.45 90.0 L88.75 87.85 89.5 89.9 90.2 88.35 90.25 86.15 91.2 88.35 91.25 88.85 Q93.75 87.5 93.95 86.4 L94.1 85.35 95.1 87.35 95.5 85.4 95.45 82.4 96.45 83.8 97.7 85.85 98.0 86.65 Q98.5 85.6 98.45 84.75 L98.35 83.4 101.45 85.85 101.2 83.6 100.85 81.6 102.1 82.85 Q103.45 84.25 103.75 85.25 L104.3 86.8 Q104.8 85.0 104.5 83.5 L104.55 83.35 105.5 84.45 106.45 85.5 106.3 83.45 106.0 81.4 Q106.85 81.95 107.9 83.2 L109.6 85.0 Q110.0 84.35 110.0 83.4 L109.85 81.7 111.75 83.95 112.0 82.05 Q112.95 82.5 114.4 84.3 L115.1 83.75 Q116.6 84.8 116.75 87.15 L116.6 91.15 116.25 89.65 114.7 91.1 113.15 92.5 112.65 91.8 111.5 92.9 110.35 94.1 110.1 93.35 109.85 92.6 107.3 94.0 Q105.65 94.85 104.55 94.8 L104.5 93.55 102.7 95.15 100.6 96.55 100.25 95.6 97.6 97.35 97.85 96.6 98.1 95.7 94.45 97.15 Q92.15 98.15 90.65 98.1 L90.45 97.3 Q89.95 97.4 88.5 98.05 L86.5 98.65 86.3 97.8 85.35 98.1 84.3 98.4 83.95 98.0 80.8 98.35 77.65 98.05 77.8 98.75 74.8 97.85 74.65 98.3 Q71.5 97.6 69.15 96.1 L65.15 92.6 63.45 95.3 Q62.5 96.45 60.6 96.75 L54.0 97.55 47.1 97.0 47.3 96.85 44.85 96.75 42.6 96.6 40.85 96.85 39.25 96.95 38.55 96.0 36.75 96.35 36.8 95.65 36.85 95.1 34.0 94.75 35.7 94.55 Q32.3 93.05 31.9 92.7 30.45 91.55 31.35 89.45 L31.55 89.85 32.05 88.9 32.35 87.9 Q32.9 89.05 33.9 89.8 L34.45 88.85 34.85 87.85 35.2 88.35 36.0 87.75 36.65 87.1 37.0 87.35 Q37.9 86.85 38.75 85.5 L40.65 85.1 42.4 84.15 42.1 85.3 43.6 84.95 43.05 85.75 42.45 86.5 Q44.05 86.15 46.1 84.9 45.6 85.6 45.15 86.85 45.95 86.35 47.4 84.45 L47.6 84.95 47.75 85.55 48.8 84.15 49.7 82.7 50.05 84.1 50.15 82.3 50.9 83.8 51.15 80.75 51.5 81.95 51.6 80.05 52.3 80.6 52.95 81.1 Q53.4 79.5 53.25 79.05 L53.85 79.3 54.45 79.55 Q54.25 78.5 54.8 77.9 55.35 77.25 56.7 77.3 L56.55 81.25 Q56.65 82.75 58.25 85.0 L58.25 86.25 58.15 87.45 Q59.25 88.85 60.25 89.15 L63.55 89.35 63.6 89.35 65.5 89.9 68.75 90.1 70.6 89.65 69.7 90.6 71.75 90.45 Q74.0 90.1 75.0 89.0" fill="#274006" fill-rule="evenodd" stroke="none"/>
      <path d="M93.6 61.35 Q93.95 61.35 94.25 61.65 94.7 60.55 95.65 60.2 L95.95 61.55 96.2 62.65 97.25 61.45 99.6 61.95 Q98.15 62.25 96.95 62.9 L95.7 63.85 Q94.65 64.45 94.05 65.2 91.25 64.9 87.15 66.05 L80.4 68.1 Q77.9 68.75 76.5 70.4 L76.25 70.55 76.95 68.85 Q75.6 69.0 73.6 69.9 L70.35 71.55 72.45 68.85 Q69.45 70.4 66.45 73.25 L66.5 71.85 Q65.5 72.8 64.45 74.35 L62.65 77.1 62.55 74.65 61.5 76.5 60.1 78.1 Q60.2 76.1 59.9 75.0 57.6 76.75 57.8 81.7 L58.45 81.55 58.55 83.55 58.65 85.55 Q58.2 85.1 57.8 84.05 L57.1 82.6 56.55 83.2 Q55.8 80.3 56.25 78.25 56.05 78.55 54.9 78.95 L55.5 76.1 54.35 76.2 55.35 74.85 56.1 73.35 55.45 73.3 58.7 71.3 Q56.8 70.05 53.7 70.5 L54.4 69.75 50.6 69.3 50.8 68.4 48.7 68.5 46.6 68.85 47.0 67.6 45.0 67.75 42.95 68.1 43.15 67.35 41.05 68.6 38.9 69.8 38.6 69.15 Q37.05 69.8 35.85 71.35 L35.8 70.6 35.9 70.0 33.65 71.75 34.05 70.55 Q33.2 70.8 31.8 72.0 L32.15 71.55 Q31.05 72.15 29.25 73.75 L28.9 73.4 Q27.75 75.05 26.4 78.1 L26.85 75.05 25.85 75.4 24.65 75.85 25.0 74.95 Q23.05 75.1 21.3 76.2 L24.2 73.7 Q26.05 72.15 26.85 70.9 L24.85 70.5 26.85 69.8 Q28.15 69.2 28.6 69.1 L28.4 68.8 27.95 68.45 30.55 68.0 32.65 67.1 31.05 66.1 Q35.1 66.3 36.4 64.8 L39.1 65.2 Q38.9 64.45 39.2 63.6 L39.5 62.45 41.4 63.55 Q40.95 62.75 41.2 61.9 L42.8 62.1 44.85 62.35 43.25 61.05 Q45.85 61.1 49.2 62.8 L47.25 61.2 Q48.75 61.05 51.05 62.1 L54.8 64.2 Q54.8 63.6 55.15 63.6 L56.45 64.6 57.75 65.85 58.4 65.3 59.55 66.25 60.65 67.5 61.35 66.9 63.65 68.55 68.05 67.8 72.7 66.4 72.1 65.75 78.3 63.2 Q81.05 62.45 85.2 63.2 L85.25 61.95 88.6 61.15 90.7 62.2 92.5 63.45 Q93.25 61.65 93.6 61.35" fill="#325208" fill-rule="evenodd" stroke="none"/>
      <path d="M165.9 73.45 L164.65 73.65 166.6 72.0 168.15 70.55 170.65 69.9 172.9 69.0 168.95 68.45 175.95 68.0 182.75 66.85 Q182.1 66.8 180.8 66.1 L187.3 66.85 193.75 67.55 193.45 66.6 Q194.75 66.7 196.9 67.45 L200.35 68.55 Q200.45 67.6 200.8 67.05 201.65 67.3 205.25 69.3 208.0 70.85 209.55 70.4 L209.85 71.0 210.15 71.65 210.2 71.6 Q209.4 73.0 207.15 74.5 L203.95 76.4 204.3 76.1 Q202.55 77.15 201.7 78.5 202.0 78.8 202.5 78.8 L200.0 84.0 Q198.6 87.0 197.9 89.4 197.25 87.45 197.7 85.3 L198.9 81.15 196.2 82.4 Q196.9 81.15 199.7 78.1 L198.1 78.3 196.35 78.45 198.55 77.0 200.8 75.55 Q200.85 74.9 201.5 74.3 L202.55 73.15 200.25 72.7 197.9 72.35 198.95 71.95 Q199.65 71.55 199.95 71.5 193.35 71.6 189.35 74.2 L190.25 72.7 Q188.75 72.75 186.8 73.35 L183.5 74.45 184.05 73.6 184.55 72.65 Q181.0 74.2 177.4 76.5 L177.55 75.7 177.65 74.85 Q174.95 75.8 170.4 80.7 L171.35 78.15 Q169.15 79.35 166.85 81.5 L166.9 80.75 Q163.95 83.9 163.15 86.9 L163.25 85.05 163.15 83.2 160.15 86.65 161.35 82.4 Q158.45 83.9 157.8 84.35 155.85 85.65 155.45 87.25 L156.65 87.15 156.5 90.85 156.0 94.5 155.35 90.3 154.7 92.3 154.2 94.4 Q153.95 93.3 154.0 91.65 L154.05 88.9 153.1 89.9 152.15 90.95 Q152.45 88.6 153.55 85.35 151.65 86.5 150.65 86.9 151.35 85.5 153.25 83.55 L156.25 80.35 154.55 80.6 156.65 78.55 Q155.65 77.1 153.4 76.1 L153.2 77.0 151.55 76.05 Q150.45 75.25 149.75 75.05 L149.75 75.9 149.7 76.75 Q148.2 75.65 147.1 75.35 L143.9 75.45 Q144.2 75.45 144.9 75.8 141.45 76.0 139.7 76.55 L140.95 73.95 136.75 75.65 136.95 74.6 Q135.4 75.1 133.3 76.45 L129.95 78.65 130.35 77.1 128.85 77.35 Q129.2 76.9 129.0 76.9 128.0 77.0 127.35 77.45 126.6 78.0 126.75 78.8 126.05 79.15 125.75 79.4 L126.2 80.35 125.05 80.45 125.85 80.8 Q119.85 81.45 116.3 82.9 L116.75 82.3 120.05 81.25 Q121.85 80.5 123.05 79.4 L122.15 78.4 Q122.75 78.1 123.2 76.95 L124.0 75.45 122.05 75.0 Q122.1 74.65 122.5 74.15 L123.15 73.25 122.4 73.05 121.85 72.85 127.2 72.9 Q126.35 72.45 125.95 71.55 L127.5 71.1 129.0 70.85 125.9 70.05 122.75 69.5 127.7 69.95 132.4 70.15 Q130.8 69.1 129.85 68.75 L133.55 69.0 137.45 69.55 Q135.1 68.2 133.9 67.75 L143.1 69.25 Q148.5 70.3 152.0 71.65 152.4 70.75 152.75 70.5 L154.7 72.75 Q155.85 73.85 157.2 74.15 158.1 77.0 161.05 76.1 162.25 75.7 165.9 73.45" fill="#325208" fill-rule="evenodd" stroke="none"/>
      <path d="M250.9 68.7 Q250.45 68.8 250.45 68.95 252.85 68.85 255.9 70.45 259.1 72.05 259.45 73.85 L259.75 74.05 256.05 73.45 252.45 72.8 252.8 72.35 252.95 71.9 250.45 71.85 247.95 71.85 248.4 71.25 248.85 70.5 Q247.0 70.2 243.8 71.15 L238.75 72.6 239.4 71.7 240.0 70.65 Q237.7 71.5 232.2 74.2 L232.6 72.85 Q231.4 73.4 230.05 74.55 L227.95 76.5 228.05 75.5 228.0 74.7 Q224.5 78.2 223.75 80.95 L224.1 80.55 Q223.6 86.2 222.95 89.4 222.55 88.65 222.2 86.85 L221.45 84.4 220.3 87.9 Q220.25 84.95 221.05 81.95 L219.2 83.1 221.5 79.5 219.8 80.2 Q220.35 79.25 221.75 77.7 L223.65 75.3 221.3 75.35 223.85 73.25 226.75 71.05 230.5 69.35 Q232.75 68.35 234.45 67.95 L233.05 68.8 Q239.8 65.5 248.25 66.95 L244.5 67.95 247.95 68.05 251.15 68.4 250.9 68.7" fill="#325208" fill-rule="evenodd" stroke="none"/>
      <path d="M95.3 62.25 L91.7 62.0 93.75 61.85 97.2 61.85 100.2 62.3 Q98.7 56.65 98.7 53.3 L98.7 50.05 99.6 54.9 Q100.6 60.05 101.35 61.4 L104.65 66.45 108.2 71.75 Q109.7 74.2 111.7 78.5 L113.3 74.75 Q115.0 70.45 115.2 67.5 115.65 60.3 114.85 54.95 113.35 45.15 113.35 43.65 113.35 42.7 113.85 40.35 L114.35 38.15 114.2 41.95 Q114.2 46.55 115.0 50.4 115.95 54.6 116.4 59.45 116.85 63.6 116.7 65.5 L116.2 68.7 Q121.5 66.4 123.2 63.95 124.3 62.4 124.55 60.35 L124.7 56.95 124.7 53.75 125.25 56.0 Q125.7 58.45 125.5 59.75 L125.2 61.85 126.75 61.45 Q128.45 60.8 129.1 59.6 L130.2 57.7 129.95 59.1 Q129.5 60.65 128.2 61.6 L124.85 63.65 123.9 64.85 122.0 66.9 Q120.85 67.95 115.85 70.85 L114.9 73.55 Q113.95 76.45 113.85 77.4 L113.7 80.15 116.05 82.35 Q118.65 84.65 120.0 85.2 L122.1 86.15 Q122.5 86.4 122.5 86.75 122.5 87.2 121.35 87.95 L122.2 88.85 122.2 89.6 Q122.25 90.5 122.7 91.15 113.45 84.35 111.25 79.8 109.1 75.25 106.45 70.8 103.05 65.1 101.1 63.85 99.3 62.75 95.3 62.25" fill="#403615" fill-rule="evenodd" stroke="none"/>
      <path d="M98.7 53.3 L98.7 50.05 99.8 56.1 99.8 60.85 Q98.7 55.65 98.7 53.3" fill="#54471c" fill-rule="evenodd" stroke="none"/>
      <path d="M114.85 54.95 Q113.35 45.15 113.35 43.65 L113.75 40.75 Q113.6 43.8 114.5 49.5 L115.8 58.2 Q116.3 62.85 115.55 68.15 114.9 72.8 113.95 74.2 112.8 75.85 112.55 79.85 111.7 78.85 111.7 78.5 L113.3 74.75 Q115.0 70.45 115.2 67.5 115.65 60.3 114.85 54.95" fill="#54471c" fill-rule="evenodd" stroke="none"/>
      <path d="M129.85 58.25 Q129.15 60.8 127.0 61.8 125.95 62.35 125.05 62.35 L125.25 61.85 Q128.25 61.2 129.1 59.6 L129.85 58.25" fill="#54471c" fill-rule="evenodd" stroke="none"/>
      <path d="M124.7 53.75 Q126.15 60.85 123.25 64.75 122.1 66.35 119.05 67.95 L116.05 69.6 116.2 68.7 Q121.5 66.4 123.2 63.95 124.3 62.4 124.55 60.35 L124.7 56.95 124.7 53.75" fill="#54471c" fill-rule="evenodd" stroke="none"/>
      <path d="M97.55 62.35 L93.85 62.05 91.7 62.0 93.75 61.85 97.2 61.85 100.1 62.3 100.4 62.85 97.55 62.35" fill="#54471c" fill-rule="evenodd" stroke="none"/>
    </g>
  </defs>
</svg>
