<?xml version="1.0" encoding="UTF-8" standalone="no"?>
<svg xmlns:xlink="http://www.w3.org/1999/xlink" height="120.0px" width="55.35px" xmlns="http://www.w3.org/2000/svg">
  <g transform="matrix(1.0, 0.0, 0.0, 1.0, 0.0, 0.0)">
    <use height="111.15" id="chicken" transform="matrix(1.0, 0.0, 0.0, 1.0, -77.25, 22.2)" width="153.0" xlink:href="#sprite0"/>
  </g>
  <defs>
    <g id="sprite0" transform="matrix(1.0, 0.0, 0.0, 1.0, 79.7, 34.7)">
      <use height="9.7" transform="matrix(0.9925, -0.0426, 0.0368, 0.8953, 13.9, 42.85)" width="7.9" xlink:href="#shape0"/>
      <use height="10.25" transform="matrix(0.8601, 0.2064, -0.4839, 1.0377, 18.7803, 35.3901)" width="15.45" xlink:href="#shape1"/>
      <use height="13.3" transform="matrix(0.8622, 0.4805, -0.5856, 0.7186, 17.0301, 47.044)" width="8.6" xlink:href="#shape2"/>
      <use height="21.6" transform="matrix(0.9816, 0.119, -0.2898, 0.9791, 3.8306, 16.3295)" width="16.35" xlink:href="#shape3"/>
      <use height="6.85" transform="matrix(0.9936, 0.0756, -0.2461, 0.9835, 9.6799, 21.6914)" width="6.9" xlink:href="#shape4"/>
      <use height="6.2" transform="matrix(0.9984, 0.0346, -0.2511, 0.9909, 34.4767, 1.9941)" width="13.7" xlink:href="#shape5"/>
      <use height="21.05" transform="matrix(0.9914, -0.1271, 0.1458, 0.9891, 25.7808, 7.678)" width="21.15" xlink:href="#shape6"/>
      <use height="4.3" transform="matrix(0.9984, 0.0346, -0.0158, 0.9991, 46.0529, 12.436)" width="3.75" xlink:href="#shape7"/>
      <use height="6.15" transform="matrix(0.9984, 0.0346, -0.0158, 0.9991, 45.9981, 7.9528)" width="6.85" xlink:href="#shape8"/>
      <use height="12.4" transform="matrix(0.1167, 0.0226, -0.0016, 0.1645, 47.8369, 8.9859)" width="26.1" xlink:href="#shape9"/>
      <use height="3.15" transform="matrix(0.9984, 0.0346, -0.0158, 0.9991, 46.4729, 9.5187)" width="6.45" xlink:href="#shape10"/>
      <use height="7.0" transform="matrix(0.9984, 0.0346, -0.0158, 0.9991, 44.906, 7.4033)" width="3.35" xlink:href="#shape11"/>
      <use height="26.6" transform="matrix(1.0, 0.0, 0.0, 1.0, 9.2, 21.85)" width="40.8" xlink:href="#shape12"/>
      <use height="5.2" transform="matrix(0.9984, 0.0346, -0.0158, 0.9991, 40.2452, 7.1107)" width="5.3" xlink:href="#sprite1"/>
      <use height="5.35" transform="matrix(0.9984, 0.0346, -0.0158, 0.9991, 36.4945, 8.0919)" width="3.5" xlink:href="#shape14"/>
      <use height="4.95" transform="matrix(0.9991, -0.0393, 0.0582, 0.9983, 29.8064, 19.8788)" width="3.85" xlink:href="#shape15"/>
      <use height="9.7" transform="matrix(0.985, -0.152, 0.1717, 1.1125, 23.8, 49.25)" width="7.9" xlink:href="#shape0"/>
      <use height="10.25" transform="matrix(0.7785, -0.3893, 0.6989, 0.8301, 17.0375, 43.5475)" width="15.45" xlink:href="#shape1"/>
      <use height="7.9" transform="matrix(0.9778, -0.204, 0.204, 0.9778, 23.9261, 58.5721)" width="19.5" xlink:href="#shape16"/>
      <use height="14.4" transform="matrix(0.9663, -0.0168, 0.0, 1.0139, 14.038, 27.3156)" width="24.85" xlink:href="#shape17"/>
    </g>
    <g id="shape0" transform="matrix(1.0, 0.0, 0.0, 1.0, 0.0, 0.0)">
      <path d="M5.15 2.55 L5.25 2.75 4.5 2.75 2.2 2.5 1.55 2.25 1.5 2.1 2.05 2.2 3.65 2.45 5.15 2.55 M5.3 2.85 L5.45 3.35 4.25 3.45 Q2.95 3.4 1.75 2.75 L1.65 2.55 1.65 2.45 1.8 2.5 2.5 2.7 5.3 2.85 M5.5 3.4 L5.65 3.75 2.15 3.55 2.05 3.4 3.3 3.7 5.5 3.4 M5.75 4.0 L5.75 3.95 5.9 4.25 5.9 4.3 6.05 4.8 6.05 4.85 Q5.7 4.7 5.05 4.85 L3.75 5.1 3.15 5.05 2.5 4.1 3.1 4.25 4.15 4.35 4.35 4.3 5.55 4.05 5.75 4.0 M6.2 5.2 L6.35 5.35 6.55 5.85 6.5 5.9 6.2 5.95 5.45 6.15 3.95 6.2 3.55 5.6 4.85 5.5 5.3 5.5 5.4 5.5 5.75 5.45 6.2 5.2 M6.75 6.25 L7.05 6.9 5.75 7.25 4.85 7.25 4.35 6.75 4.75 6.65 5.0 6.65 5.2 6.65 5.9 6.55 6.65 6.1 6.75 6.25 M7.15 7.15 L7.3 7.45 7.1 7.55 7.05 7.5 5.45 7.9 5.15 7.6 5.3 7.6 6.4 7.4 7.15 7.15 M7.35 7.55 L7.45 7.75 7.8 8.3 7.9 8.6 7.9 8.75 7.7 9.35 Q7.4 9.85 6.0 9.6 L5.4 9.1 5.5 9.05 6.25 8.65 6.5 8.6 6.7 8.55 6.65 8.35 6.25 8.4 5.9 8.5 5.9 8.4 5.7 8.2 5.9 8.15 5.95 8.15 7.05 7.8 7.15 7.75 7.35 7.55" fill="#ce4f19" fill-rule="evenodd" stroke="none"/>
      <path d="M5.4 9.1 L5.1 8.8 4.3 7.85 3.85 7.3 3.3 6.65 2.75 5.95 2.15 5.15 1.95 4.8 1.2 3.35 0.9 2.6 0.85 2.6 0.05 0.05 0.0 0.0 4.7 1.4 4.95 1.95 4.95 2.0 5.0 2.1 5.1 2.4 5.15 2.55 3.65 2.45 2.05 2.2 1.5 2.1 1.55 2.25 2.2 2.5 4.5 2.75 5.25 2.75 5.3 2.85 2.5 2.7 1.8 2.5 1.65 2.45 1.65 2.55 1.75 2.75 Q2.95 3.4 4.25 3.45 L5.45 3.35 5.5 3.4 3.3 3.7 2.05 3.4 2.15 3.55 5.65 3.75 5.7 3.9 5.75 4.0 5.55 4.05 4.35 4.3 4.15 4.35 3.1 4.25 2.5 4.1 3.15 5.05 3.75 5.1 5.05 4.85 Q5.7 4.7 6.05 4.85 L6.05 4.8 6.1 4.85 6.1 4.9 6.25 5.15 6.2 5.2 5.75 5.45 5.4 5.5 5.3 5.5 4.85 5.5 3.55 5.6 3.95 6.2 5.45 6.15 6.2 5.95 6.5 5.9 6.55 5.85 6.6 5.95 6.8 6.0 6.7 6.1 6.75 6.25 6.65 6.1 5.9 6.55 5.2 6.65 5.0 6.65 4.75 6.65 4.35 6.75 4.85 7.25 5.75 7.25 7.05 6.9 7.1 6.9 7.2 7.05 7.15 7.15 6.4 7.4 5.3 7.6 5.15 7.6 5.45 7.9 7.05 7.5 7.1 7.55 7.3 7.45 7.35 7.5 7.35 7.55 7.15 7.75 7.05 7.8 5.95 8.15 5.9 8.15 5.7 8.2 5.9 8.4 5.9 8.5 6.25 8.4 6.65 8.35 6.7 8.55 6.5 8.6 6.25 8.65 5.5 9.05 5.4 9.1" fill="#a84014" fill-rule="evenodd" stroke="none"/>
    </g>
    <g id="shape1" transform="matrix(1.0, 0.0, 0.0, 1.0, 7.55, 0.05)">
      <path d="M-4.95 0.4 L-5.0 0.3 -5.1 0.05 -1.15 1.35 3.3 2.0 Q4.7 2.0 7.9 2.95 L4.15 6.7 0.9 9.2 0.9 9.1 0.9 8.95 0.85 9.0 0.6 9.15 0.3 9.4 -0.35 9.65 -0.3 9.35 -0.5 9.6 -1.3 9.7 -1.65 9.6 -1.65 9.45 -1.65 9.35 -1.7 9.35 -3.1 9.2 -3.3 9.15 -3.65 9.05 -1.7 9.0 Q-1.25 8.95 -1.3 8.55 L-1.55 8.45 -1.7 8.55 -2.2 8.45 Q-2.3 8.25 -2.6 8.25 L-3.0 8.25 -3.15 8.15 -2.65 7.95 -2.45 7.7 -2.5 7.45 -3.85 7.7 -4.5 7.65 -3.6 6.45 -3.7 6.25 Q-4.6 6.25 -5.25 6.85 L-5.8 7.4 -5.95 7.3 -5.3 6.45 -3.95 5.4 -3.15 4.45 -3.05 4.05 -3.1 3.85 -3.15 3.8 -5.3 5.1 -4.35 4.05 -3.7 3.2 -3.4 2.4 -3.4 2.2 -3.45 2.1 -3.55 1.8 -4.0 2.2 -4.7 3.0 -5.55 4.35 -5.0 2.3 -4.95 2.5 -4.9 2.7 -4.75 2.85 -4.55 2.75 -4.65 2.2 -5.1 0.85 -5.15 0.5 -4.9 0.5 -4.85 0.45 -4.9 0.45 -4.95 0.4 M-0.05 9.75 L-1.3 10.2 -1.7 10.2 -3.0 9.95 -2.35 9.85 -2.0 9.75 -1.85 9.8 -2.0 9.8 -2.6 10.0 -1.85 10.0 -1.4 9.9 -1.3 9.85 -1.0 9.9 -0.05 9.75 M-6.05 0.0 L-6.2 -0.05 -6.0 0.0 -6.05 0.0 M-2.15 0.3 L-1.65 0.45 0.6 1.3 -2.15 0.3 M-4.05 2.85 L-4.85 3.75 -5.15 4.0 -4.95 3.4 -4.45 2.8 -3.75 2.3 -4.05 2.85 M-4.55 5.55 L-5.7 6.35 -5.7 6.2 Q-5.1 5.35 -4.15 5.0 L-4.55 5.55 M-5.5 2.3 L-5.4 2.35 -6.0 5.15 -5.85 3.45 -5.7 2.25 -5.5 2.3 M-4.85 7.95 L-4.8 8.0 -4.8 8.05 -4.9 8.0 -4.85 7.95 M-4.4 9.25 L-3.65 9.25 -3.55 9.3 -3.3 9.35 -2.85 9.5 -2.65 9.55 -3.4 9.85 -3.9 9.65 -4.4 9.25 M-4.6 8.95 L-4.7 8.9 -4.15 9.05 -4.0 9.1 -4.5 9.0 -4.6 8.95" fill="#e8e8e8" fill-rule="evenodd" stroke="none"/>
      <path d="M0.9 9.2 L0.25 9.6 -0.05 9.75 -1.0 9.9 -1.3 9.85 -1.4 9.9 -1.85 10.0 -2.6 10.0 -2.0 9.8 -1.85 9.8 -2.0 9.75 -2.35 9.85 -3.0 9.95 -3.2 9.95 -3.6 9.9 -3.45 9.85 -5.15 9.25 Q-7.45 8.1 -7.55 5.95 L-7.45 4.5 -7.5 3.9 -7.35 2.2 -7.3 1.7 -7.25 1.0 Q-6.95 0.65 -6.95 0.0 L-6.05 0.0 -6.0 0.0 -5.45 0.0 -5.35 0.2 -5.35 0.25 -5.15 0.8 -5.1 0.85 -4.65 2.2 -4.55 2.75 -4.75 2.85 -4.9 2.7 -4.95 2.5 -5.0 2.3 -5.55 4.35 -4.7 3.0 -4.0 2.2 -3.55 1.8 -3.45 2.1 -3.4 2.2 -3.4 2.4 -3.7 3.2 -4.35 4.05 -5.3 5.1 -3.15 3.8 -3.1 3.85 -3.05 4.05 -3.15 4.45 -3.95 5.4 -5.3 6.45 -5.95 7.3 -5.8 7.4 -5.25 6.85 Q-4.6 6.25 -3.7 6.25 L-3.6 6.45 -4.5 7.65 -3.85 7.7 -2.5 7.45 -2.45 7.7 -2.65 7.95 -3.15 8.15 -3.0 8.25 -2.6 8.25 Q-2.3 8.25 -2.2 8.45 L-1.7 8.55 -1.55 8.45 -1.3 8.55 Q-1.25 8.95 -1.7 9.0 L-3.65 9.05 -3.3 9.15 -3.1 9.2 -1.7 9.35 -1.65 9.35 -1.65 9.45 -1.65 9.6 -1.3 9.7 -0.5 9.6 -0.3 9.35 -0.35 9.65 0.3 9.4 0.6 9.15 0.85 9.0 0.9 8.95 0.9 9.1 0.9 9.2 M-4.9 0.5 L-4.95 0.4 -4.9 0.45 -4.85 0.45 -4.9 0.5 M-4.55 5.55 L-4.15 5.0 Q-5.1 5.35 -5.7 6.2 L-5.7 6.35 -4.55 5.55 M-4.05 2.85 L-3.75 2.3 -4.45 2.8 -4.95 3.4 -5.15 4.0 -4.85 3.75 -4.05 2.85 M-5.5 2.3 L-5.7 2.25 -5.85 3.45 -6.0 5.15 -5.4 2.35 -5.5 2.3 M-4.85 7.95 L-4.9 8.0 -4.8 8.05 -4.8 8.0 -4.85 7.95 M-4.6 8.95 L-4.5 9.0 -4.0 9.1 -4.15 9.05 -4.7 8.9 -4.6 8.95 M-4.4 9.25 L-3.9 9.65 -3.4 9.85 -2.65 9.55 -2.85 9.5 -3.3 9.35 -3.55 9.3 -3.65 9.25 -4.4 9.25" fill="#b9b9b9" fill-rule="evenodd" stroke="none"/>
    </g>
    <g id="shape2" transform="matrix(1.0, 0.0, 0.0, 1.0, 4.9, 0.35)">
      <path d="M1.55 3.4 L1.25 3.3 0.3 3.45 0.0 2.3 -0.35 1.3 -0.15 1.2 0.85 1.1 0.85 1.0 0.5 0.85 -0.4 1.15 -0.55 0.75 -0.6 0.7 -0.2 0.6 0.85 0.55 1.95 0.6 1.7 0.4 2.25 0.85 2.55 1.15 3.0 1.8 3.7 4.25 3.1 4.1 2.65 4.2 2.6 4.4 2.65 4.05 2.35 3.25 1.8 2.7 1.8 2.9 1.95 3.4 1.75 2.85 Q1.55 2.9 1.55 3.4 M1.55 0.35 L1.5 0.3 0.95 0.25 -0.7 0.4 -1.0 -0.15 1.05 0.0 1.55 0.35 M-0.05 4.1 L0.0 4.15 0.0 4.25 -0.05 4.1 M-1.8 12.05 L-1.2 11.5 -1.25 11.65 -0.85 11.65 -0.75 11.6 -1.15 11.4 -0.4 10.15 Q-0.25 10.15 0.05 10.3 L0.15 10.1 -0.25 9.9 -0.3 9.9 -0.25 9.8 0.1 8.45 0.45 8.25 0.75 8.55 0.85 8.5 Q0.25 10.75 -0.75 11.7 -1.8 12.7 -1.8 12.05 M0.9 8.3 L0.9 8.25 0.7 8.15 0.35 7.9 0.15 7.95 0.25 7.1 0.35 7.0 0.55 6.9 0.7 6.85 0.9 7.1 1.05 7.3 1.15 7.25 1.15 6.9 0.7 6.75 0.75 6.6 0.35 6.7 0.25 6.7 0.3 6.45 0.35 6.4 0.75 6.3 1.15 6.6 1.25 6.8 1.3 6.6 0.75 6.1 0.4 6.25 0.3 6.25 0.35 5.6 0.4 5.6 0.5 5.55 0.7 5.45 1.1 5.45 1.45 5.3 0.6 5.05 0.4 5.15 0.35 3.75 0.35 3.65 0.6 3.6 1.55 3.85 1.55 4.2 1.55 5.25 1.3 6.6 1.15 7.25 0.9 8.3 M0.0 2.3 L0.7 2.0 0.4 1.9 Q0.2 1.9 -0.05 2.05 L0.0 2.3 M0.45 4.15 L0.45 4.35 0.9 4.15 0.7 4.1 0.45 4.15 M1.55 11.2 L1.55 11.1 1.1 10.9 1.25 10.75 1.45 10.45 1.6 10.1 1.65 10.05 1.7 9.7 1.95 9.25 1.9 9.35 2.5 9.55 2.5 9.4 2.55 9.25 2.05 9.15 1.95 9.15 2.25 8.2 2.15 8.1 2.3 7.45 2.25 7.6 2.65 7.7 2.85 8.1 3.0 8.1 3.0 7.85 2.5 7.45 2.3 7.45 2.3 7.3 2.35 7.3 2.95 7.2 3.3 7.55 3.35 7.5 3.15 7.15 2.85 6.95 2.4 7.1 2.35 7.15 2.35 7.05 2.25 6.6 2.4 6.05 2.5 5.3 2.45 5.6 2.65 5.6 2.85 5.45 Q3.45 5.45 3.6 6.25 L3.7 5.9 3.65 6.3 Q3.3 8.75 1.8 10.8 L1.55 11.2 M3.7 5.9 L3.55 5.75 3.5 5.3 2.75 5.1 Q2.5 5.1 2.5 5.25 L2.5 5.3 2.55 4.5 2.6 4.4 3.35 4.35 3.7 4.65 3.7 4.25 3.7 5.9 M0.2 8.1 L0.15 8.1 0.15 8.05 0.2 8.1 M-0.2 12.95 L0.1 12.8 0.25 12.3 0.7 11.65 0.95 11.35 1.0 11.1 1.45 11.3 1.25 11.65 0.6 12.3 -0.2 12.95" fill="#ce4f19" fill-rule="evenodd" stroke="none"/>
      <path d="M1.7 0.4 L1.95 0.6 0.85 0.55 -0.2 0.6 -0.6 0.7 -0.55 0.75 -0.4 1.15 0.5 0.85 0.85 1.0 0.85 1.1 -0.15 1.2 -0.35 1.3 0.0 2.3 0.3 3.45 1.25 3.3 1.55 3.4 1.55 3.85 0.6 3.6 0.35 3.65 0.35 3.75 0.4 5.15 0.6 5.05 1.45 5.3 1.1 5.45 0.7 5.45 0.5 5.55 0.4 5.6 0.35 5.6 0.3 6.25 0.4 6.25 0.75 6.1 1.3 6.6 1.25 6.8 1.15 6.6 0.75 6.3 0.35 6.4 0.3 6.45 0.25 6.7 0.35 6.7 0.75 6.6 0.7 6.75 1.15 6.9 1.15 7.25 1.05 7.3 0.9 7.1 0.7 6.85 0.55 6.9 0.35 7.0 0.25 7.1 0.15 7.95 0.35 7.9 0.7 8.15 0.9 8.25 0.9 8.3 0.85 8.5 0.75 8.55 0.45 8.25 0.1 8.45 -0.25 9.8 -0.3 9.9 -0.25 9.9 0.15 10.1 0.05 10.3 Q-0.25 10.15 -0.4 10.15 L-1.15 11.4 -0.75 11.6 -0.85 11.65 -1.25 11.65 -1.2 11.5 -1.8 12.05 Q-0.5 10.2 -0.25 8.0 L0.0 4.25 0.0 4.15 -0.05 4.1 Q0.0 3.4 -0.55 2.85 -0.8 2.65 -1.0 2.5 L-4.8 6.8 Q-5.2 6.0 -4.3 5.0 -3.75 4.4 -3.35 3.6 L-1.85 0.7 -1.9 0.25 -1.0 -0.15 -0.7 0.4 0.95 0.25 1.5 0.3 1.55 0.35 1.7 0.4 M1.95 3.4 L1.8 2.9 1.8 2.7 2.35 3.25 2.65 4.05 2.6 4.4 2.65 4.2 3.1 4.1 3.7 4.25 3.7 4.65 3.35 4.35 2.6 4.4 2.55 4.5 2.5 5.3 2.5 5.25 Q2.5 5.1 2.75 5.1 L3.5 5.3 3.55 5.75 3.7 5.9 3.6 6.25 Q3.45 5.45 2.85 5.45 L2.65 5.6 2.45 5.6 2.5 5.3 2.4 6.05 2.25 6.6 2.35 7.05 2.35 7.15 2.4 7.1 2.85 6.95 3.15 7.15 3.35 7.5 3.3 7.55 2.95 7.2 2.35 7.3 2.3 7.3 2.3 7.45 2.5 7.45 3.0 7.85 3.0 8.1 2.85 8.1 2.65 7.7 2.25 7.6 2.3 7.45 2.15 8.1 2.25 8.2 1.95 9.15 2.05 9.15 2.55 9.25 2.5 9.4 2.5 9.55 1.9 9.35 1.95 9.25 1.7 9.7 1.65 10.05 1.6 10.1 1.45 10.45 1.25 10.75 1.1 10.9 1.55 11.1 1.55 11.2 1.5 11.3 1.45 11.3 1.0 11.1 0.95 11.35 0.7 11.65 0.25 12.3 0.1 12.8 -0.2 12.95 0.0 12.35 0.05 12.3 0.1 12.2 0.1 12.15 0.4 11.6 0.5 11.4 Q1.15 10.45 1.8 8.1 L1.95 7.35 1.95 3.4 M0.0 2.3 L-0.05 2.05 Q0.2 1.9 0.4 1.9 L0.7 2.0 0.0 2.3 M0.45 4.15 L0.7 4.1 0.9 4.15 0.45 4.35 0.45 4.15 M0.2 8.1 L0.15 8.05 0.15 8.1 0.2 8.1" fill="#a84014" fill-rule="evenodd" stroke="none"/>
    </g>
    <g id="shape3" transform="matrix(1.0, 0.0, 0.0, 1.0, 16.35, 10.8)">
      <path d="M-14.35 -2.9 L-14.7 -3.05 Q-15.55 -3.5 -15.8 -4.05 L-15.95 -4.8 -15.8 -5.1 Q-15.0 -6.05 -13.75 -5.8 L-13.65 -5.75 -13.7 -5.85 -14.05 -6.1 -14.6 -6.6 -14.75 -6.75 Q-15.65 -8.75 -14.05 -8.7 L-13.15 -8.55 -12.55 -8.4 -12.55 -8.65 -12.65 -8.95 Q-12.7 -12.05 -9.9 -10.0 L-9.6 -9.2 -9.1 -7.1 -9.1 -7.05 -9.25 -7.1 -9.3 -7.15 -9.7 -7.55 -10.85 -8.55 -11.35 -8.9 -11.5 -9.0 -11.45 -8.9 -11.3 -8.75 -10.35 -7.7 -9.95 -7.25 -12.25 -8.05 -10.65 -5.45 -10.9 -5.45 -10.95 -5.45 -10.95 -5.4 -12.6 -5.4 -12.75 -5.4 Q-11.75 -4.9 -10.9 -4.1 L-13.05 -5.35 -12.3 -3.65 -14.35 -2.9 M-10.05 4.55 L-10.8 4.4 -13.1 3.5 -13.35 3.25 Q-13.65 2.75 -13.6 2.1 L-13.65 2.05 Q-13.65 1.8 -13.9 1.65 L-13.95 1.6 -14.45 1.35 -15.6 0.65 Q-16.05 0.3 -16.3 -0.65 -16.55 -1.6 -15.75 -1.9 L-13.85 -2.1 -13.75 -2.1 -13.55 -2.15 -13.1 -1.1 -12.45 0.3 -12.55 0.4 -13.05 0.3 -12.75 0.4 -13.6 1.3 -12.6 0.55 -13.8 1.5 -13.8 1.55 -13.35 1.7 -13.3 1.75 Q-8.85 2.85 -4.5 4.5 L-4.65 4.55 -9.55 3.0 -9.65 3.0 -9.65 2.95 -10.35 2.75 -10.5 2.7 -10.55 2.7 -10.55 2.65 -11.05 2.5 -11.25 2.45 -11.3 2.4 -11.35 2.4 -11.85 2.25 -12.1 2.15 -12.25 2.35 -12.3 2.45 -12.35 2.5 -12.25 2.6 -11.85 3.1 -10.55 4.25 -12.15 2.35 -12.1 2.35 -10.05 4.55 -10.0 4.6 -10.05 4.6 -10.05 4.55 M-13.5 -2.45 L-13.5 -2.5 -13.8 -2.6 -14.2 -2.8 -13.4 -2.5 -13.35 -2.45 -13.4 -2.45 -13.5 -2.45 M-13.1 -2.2 L-5.45 2.1 -5.4 2.2 -13.15 -2.15 -13.1 -2.2 M-12.85 -1.75 L-11.3 0.6 Q-12.3 -0.3 -12.9 -1.75 L-12.85 -1.75 M-12.05 0.5 Q-12.9 -0.6 -13.3 -2.0 L-13.25 -2.0 -11.95 0.5 -12.05 0.5 M-11.65 0.85 L-11.75 0.8 -11.5 0.7 -11.65 0.85 M-11.9 0.75 L-11.85 0.8 -13.2 1.6 -13.25 1.6 -11.9 0.75 M-9.55 4.65 L-9.65 4.6 -9.85 4.6 -11.85 2.25 -11.75 2.3 -9.55 4.65 M-8.9 4.8 L-9.2 4.75 -11.1 2.55 -11.05 2.5 -8.9 4.8 M-8.45 4.85 L-8.75 4.8 -10.45 2.8 -10.4 2.75 -8.45 4.85 M-10.45 5.85 L-11.35 6.75 -11.6 7.3 Q-9.65 8.45 -7.5 8.0 -7.75 8.6 -8.3 9.15 L-8.4 9.25 -7.5 9.2 -8.1 9.55 -8.8 9.9 -8.5 9.9 -7.8 9.55 -6.95 9.15 Q-4.95 9.0 -3.1 8.3 L-4.3 9.15 -4.35 9.15 -4.9 9.45 Q-6.85 10.35 -9.05 10.75 L-9.9 10.7 -10.0 10.45 -9.65 9.7 -8.6 8.75 -8.55 8.8 -8.35 8.6 -7.9 8.35 -7.8 8.25 -7.95 8.3 -8.1 8.3 -8.95 8.4 -12.5 8.3 Q-13.1 8.15 -13.5 7.85 L-13.8 7.55 Q-13.9 7.05 -13.55 6.75 -13.15 6.3 -11.85 6.1 L-10.7 5.9 -10.45 5.85 M-12.5 2.3 L-12.4 2.45 -12.4 2.4 -12.45 2.3 -12.5 2.3 M-13.2 1.35 L-12.35 0.6 -13.1 1.3 -13.2 1.35" fill="#3a260a" fill-rule="evenodd" stroke="none"/>
      <path d="M-14.35 -2.9 L-12.3 -3.65 -13.05 -5.35 -10.9 -4.1 Q-11.75 -4.9 -12.75 -5.4 L-12.6 -5.4 -10.95 -5.4 -2.7 3.1 -6.0 1.5 -4.6 2.25 -2.2 3.55 -2.95 4.0 -6.2 2.65 -9.6 1.25 -11.3 0.7 -11.95 0.5 -13.25 -2.0 -13.3 -2.0 Q-12.9 -0.6 -12.05 0.5 L-12.5 0.4 -12.55 0.4 -12.45 0.3 -13.1 -1.1 -13.55 -2.15 -13.5 -2.15 -13.1 -2.2 -13.0 -2.2 -13.5 -2.45 -13.4 -2.45 -13.35 -2.45 -13.4 -2.5 -14.2 -2.8 -14.4 -2.9 -14.35 -2.9 M-10.9 -5.45 L-10.65 -5.45 -12.25 -8.05 -9.95 -7.25 -9.85 -7.2 -7.0 -4.2 -3.05 0.0 -1.05 2.3 -1.95 3.4 -4.65 0.65 -7.35 -2.15 -10.15 -4.95 -10.9 -5.45 M-9.25 -7.1 L-9.1 -7.05 -9.1 -7.1 -9.6 -9.2 -9.9 -10.0 -9.1 -9.3 -7.0 -7.15 -5.2 -5.35 Q-3.8 -4.1 -2.8 -2.5 L-0.95 0.6 -0.8 1.1 Q-0.7 1.6 -1.0 2.15 L-3.05 -0.65 -5.5 -3.5 -8.05 -6.0 -9.25 -7.1 M-10.05 4.55 L-12.1 2.35 -12.15 2.35 -10.55 4.25 -11.85 3.1 -12.25 2.6 -12.35 2.5 -12.3 2.45 -12.25 2.35 -12.1 2.15 -11.85 2.25 -11.35 2.4 -11.3 2.4 -11.25 2.45 -11.05 2.5 -10.55 2.65 -10.55 2.7 -10.5 2.7 -10.35 2.75 -9.65 2.95 -9.65 3.0 -9.55 3.0 -4.65 4.55 -5.1 4.7 Q-4.75 4.7 -4.5 5.0 -4.25 5.2 -4.4 5.45 L-4.8 5.55 -8.45 4.85 -10.4 2.75 -10.45 2.8 -8.75 4.8 -8.9 4.8 -11.05 2.5 -11.1 2.55 -9.2 4.75 -9.55 4.65 -11.75 2.3 -11.85 2.25 -9.85 4.6 -10.0 4.6 -10.05 4.55 M-4.5 4.5 Q-8.85 2.85 -13.3 1.75 L-13.35 1.7 -13.8 1.55 -13.8 1.5 -12.6 0.55 -13.6 1.3 -12.75 0.4 -11.9 0.75 -11.75 0.8 -11.65 0.85 -3.1 4.1 -4.5 4.5 M-12.85 -1.75 L-12.9 -1.75 Q-12.3 -0.3 -11.3 0.6 L-12.85 -1.75 M-13.1 -2.2 L-13.15 -2.15 -5.4 2.2 -5.45 2.1 -13.1 -2.2 M-11.9 0.75 L-13.25 1.6 -13.2 1.6 -11.85 0.8 -11.9 0.75 M-10.45 5.85 Q-5.75 5.15 -5.2 6.2 L-10.1 7.25 -6.85 6.85 -5.15 6.45 -5.2 6.55 -5.3 6.75 -4.65 6.8 -4.4 7.1 -4.35 7.25 -4.5 7.5 -4.55 7.5 -4.45 7.6 -4.35 7.65 -7.5 9.2 -8.4 9.25 -8.3 9.15 Q-7.75 8.6 -7.5 8.0 -9.65 8.45 -11.6 7.3 L-11.35 6.75 -10.45 5.85 M-6.95 9.15 L-5.4 8.45 -4.15 7.75 -4.15 7.8 -3.9 7.85 -3.25 7.5 -2.95 7.7 -3.1 8.3 Q-4.95 9.0 -6.95 9.15 M-8.6 8.75 L-8.35 8.6 -8.55 8.8 -8.6 8.75 M-13.2 1.35 L-13.1 1.3 -12.35 0.6 -13.2 1.35 M-12.5 2.3 L-12.45 2.3 -12.4 2.4 -12.4 2.45 -12.5 2.3" fill="#51350d" fill-rule="evenodd" stroke="none"/>
      <path d="M-11.5 -9.0 L-10.85 -8.55 -8.05 -6.0 -5.5 -3.5 -3.05 -0.65 -1.0 2.15 0.0 3.55 0.0 3.65 -1.05 2.3 -3.05 0.0 -7.0 -4.2 -9.85 -7.2 -11.3 -8.75 -11.5 -9.0 M-13.4 -7.65 L-10.15 -4.95 -7.35 -2.15 -4.65 0.65 -1.95 3.4 -1.9 3.4 -1.95 3.45 -0.9 4.75 -0.5 4.85 -0.55 4.95 -0.8 4.85 -0.85 4.9 -0.95 4.8 -3.1 4.1 -13.05 0.3 Q-11.3 0.55 -9.6 1.25 L-6.2 2.65 -2.95 4.0 -1.05 4.65 -2.2 3.55 -4.6 2.25 -6.6 1.1 -12.5 -3.4 -2.7 3.1 -13.4 -7.65 M-2.4 5.45 L-5.15 6.45 -6.85 6.85 -10.1 7.25 -5.2 6.2 -4.0 5.9 -2.4 5.45 M-8.5 9.9 L-8.8 9.9 -4.35 7.65 -2.6 6.8 -4.15 7.75 -5.4 8.45 -8.5 9.9" fill="#ffffff" fill-rule="evenodd" stroke="none"/>
    </g>
    <g id="shape4" transform="matrix(1.0, 0.0, 0.0, 1.0, 6.9, 6.85)">
      <path d="M-2.25 -6.2 L-2.15 -6.15 -1.75 -5.65 -1.7 -5.6 -1.65 -5.6 -1.1 -4.75 Q-0.65 -4.15 -0.5 -3.35 L-0.2 -2.15 -0.2 -0.85 -0.2 -0.75 0.0 0.0 -0.1 -0.05 Q-0.55 -3.4 -2.25 -6.2 M-5.15 -6.85 L-4.55 -6.6 -4.3 -6.35 -4.25 -6.3 -4.25 -6.2 -4.2 -6.15 -3.8 -5.45 -3.8 -5.6 -3.45 -4.5 -3.5 -4.55 -3.5 -4.5 Q-2.8 -3.1 -1.65 -1.85 -3.3 -3.15 -3.85 -5.05 L-3.9 -5.15 Q-4.45 -6.4 -5.15 -6.85 M-6.05 -4.4 L-6.05 -4.45 -5.35 -2.85 -5.4 -2.85 Q-5.9 -3.55 -6.05 -4.4" fill="#999999" fill-rule="evenodd" stroke="none"/>
      <path d="M-3.8 -5.6 L-3.45 -6.35 -2.95 -6.65 -2.5 -6.4 -2.25 -6.2 Q-0.55 -3.4 -0.1 -0.05 L-1.95 -0.45 -2.2 -0.55 -3.8 -1.35 Q-5.2 -2.05 -6.2 -3.35 L-6.6 -3.75 -6.6 -3.65 -6.4 -3.35 -5.3 -2.3 -5.0 -2.05 -4.6 -1.7 -5.05 -1.9 -5.1 -1.9 -6.05 -2.7 -6.6 -3.3 -6.65 -3.45 -6.9 -3.95 -6.85 -4.5 -6.85 -4.65 -6.7 -4.8 -6.35 -4.75 -6.15 -4.6 -6.2 -5.05 -6.15 -6.1 -5.9 -6.4 -5.85 -6.55 -5.3 -6.85 -5.15 -6.85 Q-4.45 -6.4 -3.9 -5.15 L-3.85 -5.05 Q-3.3 -3.15 -1.65 -1.85 -2.8 -3.1 -3.5 -4.5 L-3.5 -4.55 -3.45 -4.5 -3.8 -5.6 M-6.05 -4.4 Q-5.9 -3.55 -5.4 -2.85 L-5.35 -2.85 -6.05 -4.45 -6.05 -4.4 M-3.1 -6.0 L-3.05 -5.9 Q-2.85 -4.6 -1.85 -2.6 L-0.7 -0.55 -3.0 -2.4 Q-4.3 -3.6 -5.05 -5.45 L-5.05 -5.1 Q-4.8 -3.75 -2.65 -1.9 L-1.1 -0.7 Q-0.45 -0.25 -0.25 -0.15 L-0.2 -0.25 -0.65 -0.55 -1.95 -3.0 -2.9 -6.0 -3.05 -6.0 -3.1 -6.0" fill="#cccccc" fill-rule="evenodd" stroke="none"/>
      <path d="M-3.8 -1.35 L-3.6 -1.2 -4.6 -1.7 -5.0 -2.05 -5.3 -2.3 -6.4 -3.35 -6.6 -3.65 -6.6 -3.75 -6.2 -3.35 Q-5.2 -2.05 -3.8 -1.35 M-3.1 -6.0 L-3.05 -6.0 -2.9 -6.0 -1.95 -3.0 -0.65 -0.55 -0.2 -0.25 -0.25 -0.15 Q-0.45 -0.25 -1.1 -0.7 L-2.65 -1.9 Q-4.8 -3.75 -5.05 -5.1 L-5.05 -5.45 Q-4.3 -3.6 -3.0 -2.4 L-0.7 -0.55 -1.85 -2.6 Q-2.85 -4.6 -3.05 -5.9 L-3.1 -6.0" fill="#513c0d" fill-rule="evenodd" stroke="none"/>
    </g>
    <g id="shape5" transform="matrix(1.0, 0.0, 0.0, 1.0, 6.75, 3.05)">
      <path d="M1.95 -3.05 L2.6 -3.05 3.25 -2.3 3.55 -1.8 3.85 -0.95 4.15 -1.3 4.7 -1.55 Q5.6 -1.55 6.35 0.2 L6.55 1.1 6.95 3.1 Q6.2 2.05 4.75 1.65 L3.9 1.55 2.45 1.45 -0.15 1.85 -2.35 2.35 -3.65 2.85 -4.6 3.15 -6.0 1.85 -6.55 1.1 -6.75 0.3 -6.65 -0.05 -5.65 -0.1 -5.7 -0.6 -5.75 -1.05 -5.45 -1.55 -4.75 -1.8 -3.9 -1.9 -2.5 -1.55 -2.55 -1.8 -2.6 -2.15 Q-2.75 -2.7 -2.2 -2.85 -0.9 -3.05 0.15 -2.5 L0.6 -2.2 1.0 -1.85 Q1.0 -2.25 1.4 -2.65 L1.95 -3.05" fill="#ec1313" fill-rule="evenodd" stroke="none"/>
    </g>
    <g id="shape6" transform="matrix(1.0, 0.0, 0.0, 1.0, 7.45, 21.15)">
      <path d="M13.65 -13.4 L13.5 -12.3 13.4 -11.8 12.9 -9.05 12.8 -7.15 12.8 -6.95 12.8 -6.6 12.7 -3.5 12.1 -3.1 Q12.5 -3.15 12.4 -1.1 L12.4 -0.6 -7.45 -0.1 -5.5 -5.7 -5.2 -6.55 -5.05 -6.95 Q-2.7 -13.5 -1.8 -14.9 L-0.25 -17.25 Q2.55 -20.95 7.0 -21.15 L7.5 -21.15 8.05 -21.05 9.6 -20.7 9.75 -20.65 Q12.0 -19.6 13.0 -17.8 13.75 -16.3 13.7 -14.3 L13.7 -14.05 13.65 -13.4" fill="#ffffff" fill-rule="evenodd" stroke="none"/>
    </g>
    <g id="shape7" transform="matrix(1.0, 0.0, 0.0, 1.0, 1.85, 0.0)">
      <path d="M-1.75 1.9 L-1.6 1.25 -1.3 0.2 1.8 0.0 1.8 1.35 -0.35 1.65 Q-1.65 2.35 -1.75 1.9" fill="#9d0d0d" fill-rule="evenodd" stroke="none"/>
      <path d="M-1.75 1.9 Q-1.65 2.35 -0.35 1.65 L1.8 1.35 Q2.35 4.65 -0.25 4.25 L-0.8 4.1 -1.55 3.55 Q-2.0 3.2 -1.75 1.9" fill="#ec1313" fill-rule="evenodd" stroke="none"/>
    </g>
    <g id="shape8" transform="matrix(1.0, 0.0, 0.0, 1.0, 0.0, 3.05)">
      <path d="M0.05 -3.05 L0.75 -2.85 2.3 -2.3 4.2 -1.45 Q6.25 -0.35 6.7 1.2 7.05 1.65 6.7 1.6 4.3 1.15 1.55 2.55 L0.2 3.1 0.75 2.55 0.0 2.45 0.6 1.75 Q1.15 1.0 1.25 0.1 1.3 -0.8 0.45 -2.3 L0.2 -2.75 0.05 -2.8 0.05 -3.05" fill="#e3571c" fill-rule="evenodd" stroke="none"/>
    </g>
    <g id="shape9" transform="matrix(1.0, 0.0, 0.0, 1.0, 13.05, 6.2)">
      <path d="M10.2 -0.05 Q13.55 2.5 12.95 4.35 12.3 6.2 8.05 6.2 3.85 6.25 -1.5 4.45 -6.85 2.65 -10.2 0.1 -13.55 -2.45 -12.95 -4.3 -12.35 -6.15 -8.1 -6.2 -3.9 -6.2 1.5 -4.4 6.85 -2.6 10.2 -0.05" fill="url(#gradient0)" fill-rule="evenodd" stroke="none"/>
    </g>
    <linearGradient gradientTransform="matrix(0.0116, 0.0053, -0.0024, 0.0054, -3.7, -1.65)" gradientUnits="userSpaceOnUse" id="gradient0" spreadMethod="pad" x1="-819.2" x2="819.2">
      <stop offset="0.0" stop-color="#513c0d" stop-opacity="0.23529412"/>
      <stop offset="1.0" stop-color="#513c0d" stop-opacity="0.0"/>
    </linearGradient>
    <g id="shape10" transform="matrix(1.0, 0.0, 0.0, 1.0, -0.5, 1.5)">
      <path d="M2.15 -1.35 L2.35 -1.5 2.65 -1.45 2.95 -1.3 3.05 -1.05 2.9 -0.9 2.6 -0.9 2.3 -1.1 Q2.15 -1.2 2.15 -1.35" fill="#993300" fill-rule="evenodd" stroke="none"/>
      <path d="M3.75 1.2 L6.9 1.5 6.95 1.6 5.0 1.5 0.5 1.4 1.05 0.85 1.1 0.8 1.3 0.85 Q2.05 1.35 3.75 1.2" fill="#983912" fill-rule="evenodd" stroke="none"/>
    </g>
    <g id="shape11" transform="matrix(1.0, 0.0, 0.0, 1.0, 0.0, 3.55)">
      <path d="M1.4 3.35 L1.3 3.4 1.25 3.4 1.3 3.35 0.75 3.45 0.15 3.35 0.0 -2.7 0.65 -2.85 0.75 -3.15 0.05 -3.4 0.6 -3.55 1.2 -3.15 2.25 -2.0 Q3.35 -0.7 3.1 0.95 2.95 2.0 2.1 2.7 L2.0 2.85 1.85 3.0 1.4 3.35" fill="#ffffff" fill-rule="evenodd" stroke="none"/>
      <path d="M1.2 -3.15 L1.25 -3.15 1.7 -2.85 2.25 -2.3 2.5 -2.0 Q3.55 -0.7 3.3 0.95 L3.25 1.15 Q2.95 2.15 2.3 2.85 L1.55 3.4 1.45 3.4 1.4 3.35 1.85 3.0 2.0 2.85 2.1 2.7 Q2.95 2.0 3.1 0.95 3.35 -0.7 2.25 -2.0 L1.2 -3.15" fill="#666666" fill-rule="evenodd" stroke="none"/>
    </g>
    <g id="shape12" transform="matrix(1.0, 0.0, 0.0, 1.0, 20.7, 12.05)">
      <path d="M2.45 -10.35 L7.6 -11.05 14.75 -11.85 15.25 -11.9 17.75 -12.05 18.2 -11.6 18.45 -11.25 Q21.5 -5.15 18.9 1.1 L18.45 2.2 18.1 2.95 16.0 6.2 14.5 7.8 12.35 9.65 Q1.15 15.4 -4.4 14.0 L-12.3 11.7 -13.45 10.65 Q-16.95 8.45 -18.5 5.2 -19.05 4.15 -19.2 3.15 L-19.2 3.05 -19.6 2.15 -19.85 1.5 Q-20.1 0.05 -19.4 -1.2 L-20.05 -2.85 -20.15 -3.25 -20.0 -3.85 Q-19.5 -4.85 -18.3 -5.0 -18.6 -5.95 -18.05 -6.8 L-17.1 -7.3 -15.35 -7.2 -14.9 -7.0 Q-12.4 -8.3 -9.6 -8.3 L-8.7 -8.3 -5.15 -8.75 -3.45 -9.05 1.2 -10.0 2.45 -10.35" fill="#ffffff" fill-rule="evenodd" stroke="none"/>
      <path d="M17.6 -11.65 L17.7 -11.6 18.3 -8.9 18.45 -8.25 18.5 -7.8 18.6 -7.3 18.55 -5.7 18.15 -4.05 17.5 -1.55 17.5 -1.25 17.4 -0.65 17.15 0.4 16.65 1.15 15.95 2.0 14.1 3.1 14.05 2.9 16.5 -1.0 Q17.45 -2.65 17.85 -4.05 L18.05 -4.95 18.3 -6.55 18.3 -7.8 18.2 -8.25 18.05 -8.9 Q17.65 -9.9 17.65 -11.0 L17.6 -11.65 M15.75 -9.8 L15.75 -9.65 15.35 -8.4 15.1 -7.8 14.7 -7.2 14.45 -7.25 14.45 -7.5 14.55 -7.8 14.7 -8.4 15.5 -9.95 15.6 -10.15 15.75 -9.8 M17.25 -9.55 L17.25 -9.6 17.55 -9.4 17.65 -8.9 17.7 -8.25 17.65 -6.45 17.45 -6.35 17.35 -7.8 16.95 -9.4 17.25 -9.55 M15.2 -8.85 L15.2 -8.8 15.0 -8.3 14.8 -7.8 14.75 -7.65 15.0 -7.8 15.2 -8.3 15.2 -8.85 M16.3 -6.9 L16.35 -7.1 16.35 -6.95 16.35 -6.5 Q16.4 -4.3 15.25 -2.45 L14.65 -1.45 14.1 -0.35 13.05 0.9 Q12.3 1.7 11.25 1.8 L10.55 1.8 10.5 1.75 10.5 1.6 Q10.5 1.2 12.1 -0.25 L14.0 -2.1 14.6 -2.85 15.0 -3.4 16.3 -6.9 M19.75 -6.35 L19.6 -4.4 19.5 -4.25 Q19.25 -5.35 19.45 -6.55 L19.6 -6.5 19.75 -6.35 M14.15 -4.7 L14.15 -3.8 14.0 -3.2 13.45 -2.5 12.2 -1.3 12.15 -1.3 Q13.3 -2.3 13.75 -3.55 14.15 -4.75 13.85 -5.9 14.2 -5.8 14.2 -5.35 L14.15 -4.7 M11.25 -1.3 L10.8 -0.5 10.2 0.4 9.15 1.75 8.0 3.05 7.75 3.3 Q7.1 4.0 6.2 3.9 L6.05 3.85 6.0 3.8 Q5.95 3.6 6.25 3.2 L7.7 1.7 11.25 -1.3 M12.75 -0.1 L11.2 1.25 11.15 1.3 Q12.2 1.05 13.05 0.25 13.9 -0.55 14.1 -1.3 L12.75 -0.1 M18.85 -4.65 L18.85 -4.05 18.8 -2.0 18.75 -1.25 18.6 -0.25 18.2 1.15 17.5 2.55 Q16.4 4.35 14.35 5.75 L14.15 5.75 14.05 5.6 12.6 7.45 11.35 8.5 10.55 9.1 10.4 9.05 10.35 8.85 10.75 8.6 11.65 7.9 Q13.0 6.7 13.25 5.2 L13.4 5.3 Q13.65 5.55 14.65 3.8 L14.3 4.55 14.1 5.5 15.8 3.35 17.15 1.7 17.6 1.05 18.0 0.45 18.55 -1.25 18.55 -2.3 18.6 -3.6 18.65 -4.05 18.85 -4.65 M15.85 -4.25 L15.95 -4.5 15.95 -4.7 15.85 -4.25 M17.15 -0.25 L17.2 -1.25 17.2 -1.45 15.4 1.65 15.65 1.45 15.9 1.3 Q16.75 0.75 17.15 -0.15 L17.15 -0.25 M17.75 1.8 L18.2 0.85 17.15 2.05 16.6 2.8 15.1 4.7 15.25 4.65 17.15 2.75 17.3 2.55 17.75 1.8 M13.25 3.05 L12.8 4.15 12.2 5.2 12.2 5.25 Q12.85 4.9 13.6 3.15 13.8 4.25 12.0 5.95 L8.75 8.55 8.5 8.5 8.45 8.35 8.95 7.9 11.25 5.5 Q12.85 3.75 13.25 2.55 L13.3 2.6 13.25 3.05 M12.35 2.9 Q11.9 3.05 10.8 4.45 L9.4 6.05 7.7 7.6 4.95 8.9 4.0 8.9 3.85 8.85 3.8 8.65 Q3.8 8.15 6.1 6.85 L8.6 5.5 9.65 4.55 10.5 3.55 Q10.95 3.05 11.35 2.9 11.85 2.65 12.35 2.9 M10.2 7.2 L9.85 7.5 10.2 7.25 10.7 6.9 10.2 7.2 M12.45 8.75 Q12.8 8.55 13.05 8.5 L11.3 9.65 Q9.2 10.75 8.75 11.0 L8.7 11.0 7.95 11.4 7.45 11.75 6.3 12.05 5.35 12.0 4.75 12.0 4.7 11.9 4.7 11.55 4.85 11.1 5.1 10.95 5.1 10.25 5.45 10.2 5.8 10.25 5.8 10.3 5.75 10.4 5.55 10.45 5.55 10.4 5.35 10.4 5.3 10.7 5.3 10.85 7.9 10.2 8.6 9.9 8.95 9.8 9.0 9.85 9.15 9.8 8.45 10.5 7.5 11.2 7.35 11.3 8.0 11.05 8.1 11.1 8.15 11.1 8.65 10.9 Q8.8 10.75 9.4 10.5 L9.75 10.3 10.7 9.7 10.1 9.75 9.65 9.8 8.9 9.75 8.45 9.55 11.75 9.05 12.45 8.75 M8.1 2.6 L9.2 1.4 10.1 0.1 9.7 0.5 8.2 1.85 6.7 3.45 8.1 2.6 M4.7 8.45 Q5.0 8.25 6.4 7.6 L7.75 6.9 Q8.95 6.25 9.6 5.45 L7.25 6.9 Q5.35 7.9 4.8 8.35 L4.7 8.45 M1.85 11.2 L2.2 10.95 Q2.45 10.8 2.65 10.75 L2.35 11.0 Q1.85 11.3 1.85 11.5 1.85 11.8 2.85 11.7 L4.1 11.45 4.2 11.45 4.7 11.3 4.5 11.5 4.55 11.55 4.4 11.65 4.3 11.7 4.15 12.05 Q4.1 12.35 4.85 12.35 L5.95 12.05 5.7 12.15 5.4 12.25 4.45 12.65 4.55 12.7 1.85 13.5 1.55 13.55 1.3 13.55 1.25 13.5 1.2 13.5 1.2 13.45 1.2 13.35 1.2 13.3 1.2 13.2 1.2 13.1 1.2 13.05 1.6 13.05 0.8 13.0 Q0.85 13.45 0.4 13.6 L0.05 13.7 -0.4 13.7 -1.55 14.0 -1.1 14.15 -1.25 14.4 -2.0 14.35 -2.55 14.35 -2.6 14.4 -3.6 14.4 -3.85 14.3 -3.9 14.45 -4.7 14.55 Q-7.05 14.55 -12.5 11.55 L-12.45 11.45 -12.75 11.3 -12.95 11.2 -12.75 11.55 -13.3 11.55 -15.1 10.05 -16.05 9.2 -16.75 8.25 -17.5 7.3 -17.5 7.2 -18.15 6.2 Q-19.2 4.4 -19.75 2.4 L-19.75 2.25 -20.05 0.7 -20.05 -0.3 -19.95 -0.65 -19.95 -0.7 -19.85 -0.9 -20.45 -1.3 -19.75 -0.95 -19.6 -1.1 Q-21.25 -2.15 -20.45 -3.75 L-19.9 -4.3 -18.8 -4.6 Q-18.45 -5.0 -16.15 -5.0 L-17.95 -4.5 -18.3 -4.4 -16.2 -3.45 -16.0 -3.55 -13.55 -3.95 Q-14.55 -3.8 -14.4 -3.65 L-15.55 -3.35 Q-16.3 -3.1 -16.3 -2.75 L-15.05 -2.1 -15.1 -2.0 -15.3 -1.95 Q-15.95 -1.95 -16.35 -2.35 L-16.6 -2.75 -17.35 -2.5 -18.25 -2.05 -17.1 -1.65 -16.6 -1.55 -17.8 -1.65 -17.65 -1.55 -17.1 -1.0 -17.15 -0.85 Q-17.2 -0.75 -17.35 -0.75 L-18.2 -1.4 -18.6 -1.9 -19.65 -2.4 Q-19.1 -1.55 -18.2 -1.1 L-17.4 -0.65 -17.15 -0.45 -18.85 -0.9 -18.9 -0.4 -18.35 0.15 -18.45 0.15 -18.35 0.2 -17.5 0.3 -17.5 0.45 -17.95 0.5 -17.8 0.7 -17.0 1.35 -16.45 1.75 -15.45 2.4 -14.3 3.1 -14.3 3.35 -15.9 2.8 -16.05 2.85 Q-15.2 4.0 -13.6 4.65 L-13.6 4.75 -13.6 4.8 -13.7 4.85 -15.25 4.1 -16.15 3.2 -16.25 3.45 Q-16.45 3.65 -15.7 4.5 L-14.65 5.0 -13.35 4.85 -13.45 4.95 -14.7 5.55 -13.3 6.35 -13.45 6.65 -14.1 6.45 -15.25 5.45 -15.25 5.05 -14.8 5.0 -15.6 4.8 -15.7 4.85 -16.8 4.4 -15.8 5.7 -15.95 5.85 Q-16.7 5.5 -17.05 4.75 L-17.55 3.6 Q-17.7 4.7 -16.85 5.45 L-15.3 6.7 -15.0 6.95 -15.15 6.7 -15.1 6.55 -14.9 6.55 -14.4 6.6 -14.35 6.7 -13.45 6.95 -13.3 7.3 -14.45 7.15 -14.35 7.4 -14.25 7.5 -13.9 7.7 -13.7 7.65 -13.55 7.75 -13.55 7.9 -13.6 8.0 -13.55 8.05 -12.95 7.85 -12.85 8.05 -12.8 8.1 -12.95 8.15 -13.15 8.2 -12.8 8.55 -12.55 8.7 -12.15 9.05 -10.65 9.6 -10.3 9.75 -8.35 10.5 -8.6 10.75 -10.85 10.3 -9.85 11.3 Q-9.05 11.85 -7.4 11.85 L-7.35 11.9 -5.9 11.45 -5.75 11.75 -6.6 12.05 -7.6 12.6 -5.5 13.05 Q-5.5 12.35 -4.4 12.55 L-4.35 12.75 -5.05 12.9 -5.15 13.0 -3.6 13.45 -3.55 13.45 -3.5 13.25 -2.95 12.7 -2.8 12.8 -3.15 13.55 -2.6 13.65 -2.0 13.2 -1.7 13.0 -0.2 12.0 0.05 11.9 -0.45 12.3 -1.25 12.85 Q-2.2 13.55 -0.5 13.35 -0.3 13.2 -0.05 13.15 L0.05 13.1 2.05 12.5 2.35 12.45 3.55 12.05 3.2 12.2 2.85 12.6 2.4 12.85 1.75 13.15 1.8 13.2 2.6 13.0 3.4 12.85 3.65 12.7 3.65 12.6 3.6 12.55 3.6 12.4 3.65 12.2 3.75 11.95 1.0 11.95 Q1.35 11.5 1.85 11.2 M0.2 11.8 L0.05 11.9 0.15 11.8 0.2 11.8 M3.25 10.45 Q4.4 9.9 5.5 9.45 L6.7 9.0 6.75 9.15 Q4.8 10.25 3.5 10.55 L3.25 10.45 M4.95 11.7 L6.9 11.45 6.9 11.4 Q6.9 11.1 7.9 10.5 L8.35 10.25 7.9 10.4 Q6.9 10.85 6.6 11.0 L5.2 11.0 5.15 11.2 4.95 11.6 4.95 11.7 M7.95 9.4 Q9.15 8.8 9.5 8.7 L7.8 9.7 Q6.5 10.35 5.65 10.45 L7.95 9.4 M-20.4 -2.9 L-20.25 -2.5 -20.35 -3.25 -20.4 -2.9 M-19.75 -3.3 L-19.65 -3.25 -19.7 -3.2 -19.75 -3.2 -19.8 -3.05 -18.6 -2.2 -17.85 -2.75 -16.55 -3.05 -16.55 -3.1 -17.85 -3.65 -18.8 -4.35 -19.35 -4.05 -19.75 -3.3 M-15.05 -2.2 L-15.7 -2.6 -15.1 -2.3 -15.05 -2.2 M-9.9 12.05 Q-10.1 11.5 -10.75 11.0 L-11.25 10.15 -11.2 10.05 -11.25 10.05 -11.45 10.1 -11.5 10.25 -11.55 10.3 -12.05 10.15 -12.45 10.25 -12.2 10.4 Q-11.95 10.45 -11.75 10.7 L-11.7 10.75 Q-11.8 10.95 -12.05 10.95 L-12.1 10.95 -11.3 11.5 -10.15 11.95 -10.05 12.0 -9.9 12.05 M-9.15 12.0 L-7.95 12.5 -7.85 12.25 -8.1 12.25 Q-8.25 12.15 -9.15 12.0 M-17.1 2.8 L-17.3 2.7 -17.55 3.55 -17.4 3.65 Q-16.85 3.8 -16.4 4.1 L-16.75 3.35 -16.7 3.25 -16.4 3.2 -16.4 3.15 -16.35 2.9 -16.55 2.4 -15.8 2.45 -15.9 2.4 -16.75 1.85 -18.15 0.75 -18.3 0.8 -18.5 0.7 -18.3 1.3 -17.9 1.65 Q-17.5 1.95 -17.35 2.35 L-16.55 2.65 -17.1 3.15 -17.1 2.8 M-14.65 9.15 L-12.85 9.1 -12.75 9.1 -13.05 8.95 -13.65 8.6 -14.2 8.7 Q-14.75 8.8 -14.65 9.15 M-13.0 9.45 L-14.2 9.5 -12.75 10.5 -12.85 10.1 -12.1 9.8 -11.9 9.75 -12.5 9.25 -12.45 9.4 -12.45 9.7 -12.45 9.75 -12.6 9.8 -12.75 9.65 -13.0 9.45 M-11.45 9.65 L-11.7 9.5 -11.55 9.7 -11.45 9.65 M-11.15 12.0 L-11.1 12.1 -10.9 12.1 -11.15 12.0" fill="#cccccc" fill-rule="evenodd" stroke="none"/>
    </g>
    <g id="sprite1" transform="matrix(1.0, 0.0, 0.0, 1.0, 2.65, 2.6)">
      <use height="5.2" transform="matrix(1.0, 0.0, 0.0, 1.0, -2.6, -2.6)" width="5.2" xlink:href="#shape13"/>
    </g>
    <g id="shape13" transform="matrix(1.0, 0.0, 0.0, 1.0, 2.6, 2.6)">
      <path d="M2.6 -0.05 Q2.7 1.05 2.0 1.85 1.25 2.6 0.2 2.6 -0.9 2.6 -1.7 1.9 -2.5 1.15 -2.6 0.05 -2.65 -1.0 -2.0 -1.8 -1.3 -2.6 -0.2 -2.6 0.85 -2.6 1.7 -1.85 2.55 -1.1 2.6 -0.05" fill="#993300" fill-rule="evenodd" stroke="none"/>
      <path d="M1.75 -1.15 Q2.35 -0.65 2.4 0.15 2.5 0.9 1.95 1.4 1.5 1.95 0.7 2.0 -0.05 2.0 -0.65 1.45 -1.15 0.95 -1.25 0.2 -1.3 -0.6 -0.85 -1.1 -0.3 -1.65 0.45 -1.65 1.25 -1.7 1.75 -1.15" fill="#000000" fill-rule="evenodd" stroke="none"/>
      <path d="M-0.8 -0.05 Q-1.15 -0.05 -1.45 -0.3 L-1.65 -0.9 -1.5 -1.45 -0.95 -1.7 -0.35 -1.45 -0.05 -0.9 Q-0.05 -0.55 -0.3 -0.3 -0.45 -0.05 -0.8 -0.05" fill="#f6f6f6" fill-rule="evenodd" stroke="none"/>
      <path d="M0.2 -0.35 L0.35 -0.4 0.55 -0.35 0.6 -0.15 0.55 0.0 0.35 0.1 0.2 0.0 0.15 -0.15 0.2 -0.35" fill="#f6f6f6" fill-rule="evenodd" stroke="none"/>
    </g>
    <g id="shape14" transform="matrix(1.0, 0.0, 0.0, 1.0, 1.75, 2.65)">
      <path d="M-0.2 -2.35 L0.4 -2.65 0.3 -2.25 0.05 -2.1 -0.35 -1.9 -0.7 -1.75 -0.75 -1.75 -0.9 -1.7 -1.0 -1.65 -0.9 -1.8 -0.6 -1.95 0.0 -2.25 -0.65 -2.0 -0.75 -1.95 -0.4 -2.2 -0.2 -2.35 M-1.15 -0.25 L-1.3 -0.2 -0.8 -0.55 -1.15 -0.35 -1.4 -0.25 -1.3 -0.4 -1.1 -0.5 -0.65 -0.85 -1.1 -0.55 -0.5 -1.1 0.25 -1.6 0.25 -1.25 0.25 -1.1 -0.1 -0.8 -0.15 -0.75 -0.2 -0.75 -0.25 -0.75 -0.35 -0.7 -0.65 -0.5 -0.65 -0.55 -1.1 -0.3 -1.15 -0.25 M-0.75 0.35 L-0.35 0.0 0.25 -0.4 0.25 -0.25 0.25 -0.1 -0.15 0.2 -0.05 0.1 -0.45 0.3 -0.75 0.55 -1.1 0.65 -1.05 0.6 -0.9 0.5 -0.35 0.15 -0.75 0.35 M-0.45 1.15 L-0.3 1.0 -0.2 0.85 0.3 0.4 0.4 0.5 0.4 0.65 0.25 0.9 0.1 1.0 -0.3 1.3 -0.5 1.45 -0.55 1.5 -0.6 1.5 -0.5 1.25 -0.5 1.3 -0.1 1.0 0.05 0.85 -0.2 1.0 -0.25 1.0 -0.45 1.15 M0.1 2.25 L0.15 2.15 0.35 1.9 0.25 2.0 0.35 1.8 0.45 1.65 0.8 1.25 1.0 1.5 0.8 1.8 0.65 1.9 0.7 1.75 0.5 2.05 0.45 2.05 0.4 2.15 0.25 2.2 0.5 1.85 0.1 2.25 M1.55 2.05 L1.75 2.2 1.5 2.35 1.0 2.55 1.35 2.25 1.55 2.05" fill="#666666" fill-rule="evenodd" stroke="none"/>
      <path d="M-0.35 -1.9 L-0.25 -1.9 -0.6 -1.75 -0.55 -1.75 -0.35 -1.8 0.45 -2.0 -0.1 -1.8 -0.65 -1.45 -1.25 -1.1 -1.25 -1.15 -0.7 -1.5 -0.15 -1.75 -0.35 -1.7 -1.0 -1.5 -1.1 -1.45 -1.3 -1.4 -1.35 -1.4 -1.1 -1.5 -1.0 -1.65 -0.9 -1.7 -0.75 -1.75 -0.7 -1.75 -0.35 -1.9 M-0.9 -1.8 L-1.15 -1.65 -1.2 -1.65 -0.75 -1.95 -0.65 -2.0 0.0 -2.25 -0.6 -1.95 -0.9 -1.8 M-0.4 -2.2 L-0.45 -2.2 -0.7 -2.05 -0.7 -2.1 -0.45 -2.25 -0.2 -2.35 -0.4 -2.2 M-0.1 -0.8 L0.1 -0.95 0.9 -1.35 0.55 -1.15 1.15 -1.35 -0.05 -0.7 -0.2 -0.6 -1.05 -0.15 -1.05 -0.2 -1.15 -0.15 -0.75 -0.4 -1.1 -0.2 -1.6 0.05 -1.15 -0.25 -1.1 -0.3 -0.65 -0.55 -0.65 -0.5 -0.35 -0.7 -0.25 -0.75 -0.2 -0.75 -0.15 -0.75 -0.1 -0.8 M-1.3 -0.2 L-1.4 -0.15 -1.55 -0.05 -1.6 -0.05 -1.4 -0.25 -1.15 -0.35 -0.8 -0.55 -1.3 -0.2 M-1.3 -0.4 L-1.7 -0.15 -1.75 -0.2 -1.15 -0.55 -1.1 -0.55 -0.65 -0.85 -1.1 -0.5 -1.3 -0.4 M-0.75 0.35 L-0.35 0.15 -0.9 0.5 -1.05 0.6 -1.3 0.75 -0.85 0.4 -0.75 0.35 M-0.75 0.55 L-0.45 0.3 -0.05 0.1 -0.15 0.2 -0.25 0.25 -0.3 0.3 -0.35 0.3 -0.75 0.55 M-0.3 -1.35 L0.1 -1.55 -0.25 -1.3 -0.65 -1.05 -0.3 -1.35 M-0.45 1.15 L-0.25 1.0 -0.2 1.0 0.05 0.85 -0.1 1.0 -0.5 1.3 -0.5 1.25 -0.45 1.15 M-0.55 1.5 L-0.5 1.45 -0.3 1.3 0.1 1.0 0.25 0.9 0.3 0.9 0.2 1.0 -0.3 1.4 -0.8 1.85 -0.85 1.8 -0.55 1.5 M0.25 2.2 L0.15 2.3 -0.15 2.7 -0.15 2.65 0.1 2.25 0.5 1.85 0.25 2.2 M0.15 2.15 L0.05 2.25 -0.2 2.55 -0.2 2.5 0.0 2.25 0.25 2.0 0.35 1.9 0.15 2.15 M0.65 1.9 L0.55 2.05 0.4 2.3 0.35 2.4 0.25 2.4 0.1 2.6 0.05 2.6 0.05 2.55 0.15 2.35 0.2 2.3 0.3 2.25 0.4 2.15 0.45 2.05 0.5 2.05 0.7 1.75 0.65 1.9 M0.45 2.25 L0.75 1.95 0.6 2.15 0.45 2.25" fill="#ffffff" fill-rule="evenodd" stroke="none"/>
    </g>
    <g id="shape15" transform="matrix(1.0, 0.0, 0.0, 1.0, 1.9, 2.5)">
      <path d="M0.5 -0.4 Q-0.1 0.8 -0.95 1.55 L-1.1 1.45 -1.2 1.55 -1.15 1.6 -1.05 1.75 -1.3 2.0 -1.65 2.15 -1.85 2.1 -1.9 2.05 -1.9 1.9 -1.55 1.3 -1.15 0.85 -1.05 0.9 -1.0 0.8 -0.45 0.35 -0.35 0.4 0.6 -1.4 1.15 -2.5 Q1.1 -1.6 0.5 -0.4 M-0.45 2.3 L1.7 -0.9 1.25 0.0 -0.25 2.45 -0.45 2.3 M1.1 2.1 L1.05 1.95 1.3 1.35 Q1.6 0.75 1.95 0.65 L1.35 2.1 1.1 2.15 1.1 2.1" fill="#cccccc" fill-rule="evenodd" stroke="none"/>
    </g>
    <g id="shape16" transform="matrix(1.0, 0.0, 0.0, 1.0, 7.95, 0.0)">
      <path d="M11.45 2.65 L11.3 2.65 9.15 2.75 9.4 2.65 9.45 2.5 9.25 2.45 8.95 2.6 8.7 2.75 8.3 2.7 8.35 2.55 8.35 2.35 8.65 1.95 9.2 2.0 9.25 2.0 9.3 2.05 9.65 2.15 9.95 2.3 10.5 2.4 11.35 2.6 11.45 2.65 M8.35 1.9 Q7.95 2.15 7.95 2.65 L7.25 2.6 7.2 2.5 Q7.2 2.3 7.55 1.85 L7.5 1.8 7.7 1.85 7.7 1.8 7.85 1.85 8.35 1.9 M7.4 1.8 Q7.0 1.95 7.0 2.45 L7.0 2.55 6.5 2.5 6.55 2.5 6.6 2.15 6.55 2.1 6.5 2.1 6.8 1.75 6.85 1.7 7.4 1.8 M6.65 1.7 Q6.3 1.95 6.35 2.45 L6.4 2.5 5.2 2.35 5.0 2.35 Q5.05 2.0 5.4 1.7 L5.3 1.55 5.15 1.6 5.2 1.55 5.3 1.55 6.65 1.7 M4.95 1.45 L4.7 1.7 4.5 2.1 4.55 2.25 3.85 2.15 3.75 2.15 3.75 2.05 3.85 1.75 4.35 1.3 4.55 1.35 4.65 1.4 4.95 1.45 M4.0 1.2 L3.65 1.5 3.35 2.1 3.25 2.05 2.95 2.0 3.1 1.8 3.4 1.55 3.25 1.45 2.9 1.75 2.7 2.05 2.65 2.0 2.85 1.7 2.95 1.45 2.85 1.4 2.6 1.7 2.4 2.0 2.45 2.15 2.1 2.1 2.05 2.1 2.75 2.65 2.9 2.8 3.6 3.25 3.2 3.15 2.9 3.25 2.65 3.3 2.5 3.65 2.4 3.9 2.45 3.95 2.4 3.95 2.2 3.8 2.05 3.65 0.85 2.65 1.0 2.55 1.15 2.5 1.65 2.3 1.65 2.35 1.85 2.25 2.0 2.2 0.8 2.45 0.45 2.3 0.4 2.25 0.15 2.15 -0.4 1.95 1.1 1.3 1.0 1.25 -0.8 1.75 -0.9 1.75 -1.2 1.55 -0.9 1.45 0.8 0.8 1.05 0.7 -0.15 0.85 -1.55 1.2 -1.65 1.1 -1.75 1.05 -0.85 0.45 -0.5 0.35 Q0.0 0.1 -0.25 0.15 L0.25 0.0 1.0 0.1 1.65 0.5 2.2 0.8 2.6 0.9 4.0 1.2 M2.95 2.2 L2.95 2.1 3.15 2.2 3.3 2.25 2.95 2.2 M7.5 2.9 L8.25 2.95 7.95 2.95 7.5 2.9 M9.45 3.0 L10.7 2.9 10.55 2.95 9.45 3.0 M5.3 4.3 L6.1 4.75 Q5.55 4.8 5.4 5.05 L5.3 5.55 4.85 5.3 4.25 5.05 Q4.3 4.75 4.85 4.45 L5.3 4.3 M6.4 5.0 L6.7 5.15 6.25 5.45 6.0 5.9 5.85 5.85 5.6 5.75 6.0 5.25 6.4 5.0 M6.9 5.25 L8.15 5.95 8.65 6.4 9.2 7.0 9.0 6.9 8.3 6.75 7.6 6.55 Q7.4 6.45 7.5 6.3 L7.55 5.95 7.35 5.9 7.0 6.1 6.65 6.25 6.2 6.0 6.3 5.7 6.45 5.5 6.5 5.35 6.9 5.25 M3.75 3.3 L4.3 3.7 3.35 3.85 3.0 4.15 3.0 4.25 2.65 4.15 Q2.65 3.8 3.1 3.6 L3.65 3.3 3.75 3.3 M4.85 4.0 L5.1 4.2 Q4.05 4.25 4.05 4.95 L4.05 5.0 3.9 4.9 3.45 4.55 3.6 4.3 4.55 4.1 4.55 4.0 4.85 4.0 M4.65 2.15 L4.9 1.85 Q4.75 2.0 4.75 2.3 L4.7 2.3 4.65 2.15 M0.7 2.5 L0.75 2.5 0.7 2.5 M9.55 7.15 L9.5 7.1 9.55 7.1 9.55 7.15" fill="#e3571c" fill-rule="evenodd" stroke="none"/>
      <path d="M8.65 1.95 L8.35 2.35 8.35 2.55 8.3 2.7 8.7 2.75 8.95 2.6 9.25 2.45 9.45 2.5 9.4 2.65 9.15 2.75 11.3 2.65 11.45 2.65 11.55 2.9 10.7 2.9 9.45 3.0 9.1 3.0 8.3 2.95 8.25 2.95 7.5 2.9 7.25 2.9 6.95 2.85 6.9 2.85 6.8 2.85 6.7 2.85 5.75 2.7 5.7 2.7 4.15 2.45 3.3 2.25 3.15 2.2 2.95 2.1 2.95 2.2 2.8 2.15 2.75 2.15 2.45 2.15 2.4 2.0 2.6 1.7 2.85 1.4 2.95 1.45 2.85 1.7 2.65 2.0 2.7 2.05 2.9 1.75 3.25 1.45 3.4 1.55 3.1 1.8 2.95 2.0 3.25 2.05 3.35 2.1 3.65 1.5 4.0 1.2 4.35 1.3 3.85 1.75 3.75 2.05 3.75 2.15 3.85 2.15 4.55 2.25 4.5 2.1 4.7 1.7 4.95 1.45 5.15 1.55 5.2 1.55 5.15 1.6 5.3 1.55 5.4 1.7 Q5.05 2.0 5.0 2.35 L5.2 2.35 6.4 2.5 6.35 2.45 Q6.3 1.95 6.65 1.7 L6.85 1.7 6.8 1.75 6.5 2.1 6.55 2.1 6.6 2.15 6.55 2.5 6.5 2.5 7.0 2.55 7.0 2.45 Q7.0 1.95 7.4 1.8 L7.5 1.8 7.55 1.85 Q7.2 2.3 7.2 2.5 L7.25 2.6 7.95 2.65 Q7.95 2.15 8.35 1.9 L8.65 1.95 M5.1 4.2 L5.3 4.3 4.85 4.45 Q4.3 4.75 4.25 5.05 L4.85 5.3 5.3 5.55 5.4 5.05 Q5.55 4.8 6.1 4.75 L6.15 4.8 6.3 4.9 6.4 5.0 6.0 5.25 5.6 5.75 5.85 5.85 6.0 5.9 6.25 5.45 6.7 5.15 6.75 5.2 6.9 5.25 6.5 5.35 6.45 5.5 6.3 5.7 6.2 6.0 6.65 6.25 7.0 6.1 7.35 5.9 7.55 5.95 7.5 6.3 Q7.4 6.45 7.6 6.55 L8.3 6.75 9.0 6.9 9.2 7.0 9.55 7.45 9.75 7.9 9.7 7.9 8.75 7.45 7.25 6.85 6.9 6.75 Q5.1 6.1 3.75 5.2 L3.55 5.05 2.2 4.15 2.05 4.05 1.6 3.75 1.4 3.6 1.35 3.55 Q0.75 3.0 0.0 2.6 L-0.2 2.5 -0.8 2.4 -0.9 2.4 Q-1.35 2.15 -2.1 1.95 L-2.15 1.95 -3.25 1.65 -4.35 1.6 -7.95 1.2 Q-7.3 0.3 -5.05 0.35 L-5.0 0.35 -2.7 0.3 -2.65 0.3 -0.75 0.2 -0.25 0.15 Q0.0 0.1 -0.5 0.35 L-0.85 0.45 -1.75 1.05 -1.65 1.1 -1.55 1.2 -0.15 0.85 1.05 0.7 0.8 0.8 -0.9 1.45 -1.2 1.55 -0.9 1.75 -0.8 1.75 1.0 1.25 1.1 1.3 -0.4 1.95 0.15 2.15 0.4 2.25 0.45 2.3 0.8 2.45 2.0 2.2 1.85 2.25 1.65 2.35 1.65 2.3 1.15 2.5 1.0 2.55 0.85 2.65 2.05 3.65 2.2 3.8 2.4 3.95 2.45 3.95 2.4 3.9 2.5 3.65 2.65 3.3 2.9 3.25 3.2 3.15 3.6 3.25 3.75 3.3 3.65 3.3 3.1 3.6 Q2.65 3.8 2.65 4.15 L3.0 4.25 3.0 4.15 3.35 3.85 4.3 3.7 4.5 3.8 4.85 4.0 4.55 4.0 4.55 4.1 3.6 4.3 3.45 4.55 3.9 4.9 4.05 5.0 4.05 4.95 Q4.05 4.25 5.1 4.2 M4.65 2.15 L4.7 2.3 4.75 2.3 Q4.75 2.0 4.9 1.85 L4.65 2.15 M0.7 2.5 L0.75 2.5 0.7 2.5" fill="#b94716" fill-rule="evenodd" stroke="none"/>
    </g>
    <g id="shape17" transform="matrix(1.0, 0.0, 0.0, 1.0, 24.85, 0.05)">
      <path d="M-1.25 5.4 L-1.45 5.8 Q-2.0 7.0 -2.85 8.0 L-2.5 7.8 -2.1 7.55 Q-1.55 7.0 -1.3 6.3 L-0.75 4.6 -1.25 5.4 M-0.4 1.45 L-0.1 0.0 0.0 1.05 -0.05 1.65 Q-0.15 2.65 -0.4 3.65 L-1.4 7.0 -1.65 7.5 -2.1 7.95 -2.1 8.05 -2.35 8.5 -2.8 9.0 -5.45 11.4 Q-6.95 12.6 -8.9 13.55 -10.75 14.4 -11.75 14.35 L-12.55 14.3 -15.15 14.0 -17.95 13.2 Q-18.95 12.9 -19.05 12.65 L-19.1 12.35 -19.1 12.0 Q-19.1 11.85 -19.45 11.75 -19.6 11.65 -20.2 11.5 -21.3 11.15 -21.3 10.85 L-21.35 10.85 -21.3 10.8 -21.2 10.75 -21.05 10.8 -20.6 10.95 -19.15 11.5 -18.45 11.7 -18.0 12.5 -15.45 13.3 -12.6 13.45 -12.35 13.4 -10.8 12.95 -10.25 12.75 -8.05 11.5 -7.95 11.4 -6.95 10.2 -6.65 9.7 -7.05 9.95 -7.7 10.35 -7.95 10.15 -8.1 10.25 Q-9.55 11.25 -10.1 11.45 L-10.9 11.45 -11.0 11.4 -12.35 12.05 -13.35 12.05 -13.5 11.95 -13.55 11.75 -13.55 11.55 -13.55 11.5 -13.3 11.5 -13.05 11.6 Q-11.45 11.3 -10.55 10.65 L-9.95 10.2 -9.3 9.85 -9.1 10.05 -10.2 10.85 Q-9.05 10.55 -8.15 9.9 L-7.4 9.25 -6.8 8.75 -6.7 8.8 -6.65 8.95 -7.1 9.5 -6.65 9.25 Q-6.5 9.3 -6.45 9.4 L-6.3 9.1 -5.55 8.15 -5.4 8.2 -5.35 8.35 Q-5.35 8.75 -6.7 10.4 L-5.05 8.25 -4.0 6.45 -3.15 5.4 -3.35 6.3 Q-3.7 7.65 -4.5 8.75 L-3.5 7.5 -2.65 6.3 -2.4 5.9 Q-1.95 5.3 -1.95 4.6 L-2.0 4.05 -1.9 4.05 Q-1.7 5.05 -2.0 6.0 L-1.1 4.45 -0.75 3.75 -0.8 3.6 -0.6 2.85 -0.45 2.35 -0.4 1.45 M-7.9 10.85 L-9.4 11.85 -11.4 12.8 -12.25 12.8 -12.5 12.7 -12.4 12.55 -12.25 12.45 Q-10.6 12.1 -9.45 11.45 L-8.7 11.0 -8.1 10.65 -7.9 10.85 M-10.25 13.7 L-10.25 13.65 -10.3 13.65 -10.25 13.7 M-2.45 6.7 L-2.5 6.6 -2.9 7.0 -4.15 8.6 -3.55 8.2 Q-2.8 7.6 -2.45 6.7 M-5.4 9.3 L-5.2 9.05 -5.05 8.8 -5.4 9.3 M-20.85 9.0 Q-20.85 10.05 -21.2 10.45 -22.65 9.95 -23.55 9.35 -24.5 8.7 -24.45 8.15 -24.4 7.5 -24.05 7.65 L-23.65 7.7 -22.05 8.15 Q-20.85 8.55 -20.85 9.0" fill="#cccccc" fill-rule="evenodd" stroke="none"/>
      <path d="M-17.0 2.15 L-17.75 2.35 -16.4 1.9 -13.45 1.55 -11.95 1.55 -10.65 1.55 -10.25 1.45 -10.0 1.55 -5.3 0.85 -4.95 0.9 Q-4.8 1.0 -4.75 1.45 L-3.55 0.9 -2.35 0.5 Q-0.9 -0.05 -0.55 -0.05 0.0 -0.05 0.0 1.15 L-0.15 2.3 -1.35 5.85 -2.8 8.5 -3.55 9.3 -4.35 9.9 -5.15 10.85 -5.9 11.1 Q-5.95 11.1 -8.5 12.45 -11.4 13.75 -13.25 13.75 L-13.85 13.7 Q-15.0 13.35 -14.7 12.85 L-14.85 12.45 -14.8 12.4 -14.35 12.25 -14.15 12.15 -14.55 11.9 -15.2 11.5 -16.15 10.7 -16.6 10.85 -17.75 10.9 -18.15 10.9 -18.75 10.85 -20.6 10.4 -21.0 10.2 -19.05 10.7 -18.25 10.8 -17.7 10.85 -16.2 10.65 -16.65 10.25 -16.7 10.15 -16.75 10.15 -17.15 9.65 -17.85 8.45 -17.95 8.25 Q-18.7 8.45 -20.25 8.25 L-20.9 8.1 -22.8 7.75 -23.85 7.4 -23.9 7.35 -22.2 7.75 -20.9 8.0 -20.7 8.05 -20.25 8.1 -18.05 8.1 -18.1 8.0 -18.1 7.8 -18.15 7.45 -18.05 6.4 -17.9 6.2 -17.75 6.0 -17.75 5.55 -17.75 5.1 -17.15 4.55 -16.65 4.15 -16.65 4.05 -16.7 3.75 -16.85 3.5 Q-16.5 2.65 -15.7 2.45 L-16.05 2.45 Q-17.45 2.75 -16.95 4.0 L-16.95 4.05 -17.65 4.5 -17.9 4.75 -17.8 4.7 -17.9 4.8 -18.2 4.8 -19.85 4.95 -20.45 5.05 -20.95 5.15 -21.25 5.3 -21.0 5.15 -20.4 4.95 -19.8 4.85 -19.75 4.85 -18.2 4.75 -17.75 3.65 -17.0 2.15" fill="#ffffff" fill-rule="evenodd" stroke="none"/>
      <path d="M-14.8 12.4 L-15.6 12.45 -18.25 11.95 -19.7 11.5 Q-22.05 10.65 -21.45 10.0 L-21.35 10.05 -21.05 10.1 -20.85 10.2 -19.9 10.35 -19.5 10.45 -18.65 10.5 -18.15 10.5 -17.75 10.45 -17.55 10.45 -16.65 10.25 -16.2 10.65 -17.7 10.85 -18.25 10.8 -19.05 10.7 -21.0 10.2 -20.6 10.4 -18.75 10.85 -18.15 10.9 -17.75 10.9 -16.6 10.85 -16.15 10.7 -15.2 11.5 -14.55 11.9 -14.15 12.15 -14.35 12.25 -14.8 12.4 M-21.5 9.95 Q-23.2 9.15 -23.7 8.7 L-24.6 7.7 -24.85 7.15 -24.6 6.8 Q-24.35 6.5 -23.9 6.35 L-23.0 6.05 -22.45 5.9 -22.2 5.8 -21.75 4.85 -21.45 4.5 -20.5 3.65 -19.55 3.0 -19.35 2.9 -17.0 2.15 -17.75 3.65 -18.2 4.75 -19.75 4.85 -19.8 4.85 -20.4 4.95 -21.0 5.15 -21.25 5.3 -20.95 5.15 -20.45 5.05 -19.85 4.95 -18.2 4.8 -18.4 5.85 -20.15 5.85 -20.7 5.85 -22.35 5.9 -22.2 5.95 -20.75 6.05 -20.2 6.0 -20.1 6.0 -18.4 5.85 -18.45 6.15 -18.45 6.3 -18.35 6.2 -18.1 5.9 -18.15 5.55 -17.9 4.8 -17.8 4.7 -17.9 4.75 -17.65 4.5 -16.95 4.05 -16.95 4.0 Q-17.45 2.75 -16.05 2.45 L-15.7 2.45 Q-16.5 2.65 -16.85 3.5 L-16.7 3.75 -16.65 4.05 -16.65 4.15 -17.15 4.55 -17.75 5.1 -17.75 5.55 -17.75 6.0 -17.9 6.2 -18.05 6.4 -18.15 7.45 -18.1 7.8 -18.1 8.0 -18.05 8.1 -20.25 8.1 -20.7 8.05 -20.9 8.0 -22.2 7.75 -23.9 7.35 -23.85 7.4 -22.8 7.75 -20.9 8.1 -20.25 8.25 Q-18.7 8.45 -17.95 8.25 L-17.85 8.45 -17.15 9.65 -16.75 10.15 -17.05 10.2 -16.95 10.15 -17.45 10.25 -18.6 10.3 -19.05 10.25 -19.85 10.15 -21.5 9.9 -21.5 9.95" fill="#51350d" fill-rule="evenodd" stroke="none"/>
      <path d="M-21.45 10.0 L-21.5 9.95 -21.5 9.9 -19.85 10.15 -19.05 10.25 -18.6 10.3 -17.45 10.25 -16.95 10.15 -17.05 10.2 -16.75 10.15 -16.7 10.15 -16.65 10.25 -17.55 10.45 -17.75 10.45 -18.15 10.5 -18.65 10.5 -19.5 10.45 -19.9 10.35 -20.85 10.2 -21.05 10.1 -21.35 10.05 -21.45 10.0 M-18.4 5.85 L-20.1 6.0 -20.2 6.0 -20.75 6.05 -22.2 5.95 -22.35 5.9 -20.7 5.85 -20.15 5.85 -18.4 5.85" fill="#3a260a" fill-rule="evenodd" stroke="none"/>
      <path d="M-18.35 11.75 L-18.1 11.85 -17.9 11.9 -17.1 12.05 -16.8 12.1 -16.05 12.15 -15.65 12.15 -15.3 12.1 -15.15 12.1 -14.4 11.9 -14.0 12.3 -15.3 12.45 -15.75 12.4 -16.4 12.35 -18.05 11.9 -17.75 12.1 -16.15 12.45 -15.65 12.5 -15.3 12.5 -14.35 12.45 -13.95 12.3 -13.15 12.95 -12.25 13.5 -12.45 13.6 -13.5 13.8 -15.7 13.4 -16.95 13.0 Q-18.9 12.25 -18.45 11.7 L-18.4 11.7 -18.35 11.75" fill="#51350d" fill-rule="evenodd" stroke="none"/>
      <path d="M-2.4 5.9 Q-1.95 5.3 -1.95 4.6 -1.85 6.8 -3.3 8.5 L-4.55 9.8 Q-6.9 11.75 -9.8 12.8 L-12.35 13.4 -10.8 12.95 -10.25 12.75 -8.05 11.5 -7.95 11.4 -6.95 10.2 -6.65 9.7 -7.05 9.95 -7.7 10.35 -7.95 10.15 -8.1 10.25 Q-9.55 11.25 -10.1 11.45 L-10.9 11.45 -11.0 11.4 -12.35 12.05 -13.35 12.05 -13.5 11.95 -13.55 11.75 -13.55 11.55 -13.55 11.5 -13.3 11.5 -13.05 11.6 Q-11.45 11.3 -10.55 10.65 L-9.95 10.2 -9.3 9.85 -9.1 10.05 -10.2 10.85 Q-9.05 10.55 -8.15 9.9 L-7.4 9.25 -6.8 8.75 -6.7 8.8 -6.65 8.95 -7.1 9.5 -6.65 9.25 Q-6.5 9.3 -6.45 9.4 L-6.3 9.1 -5.55 8.15 -5.4 8.2 -5.35 8.35 Q-5.35 8.75 -6.7 10.4 L-5.05 8.25 -4.0 6.45 -3.15 5.4 -3.35 6.3 Q-3.7 7.65 -4.5 8.75 L-3.5 7.5 -2.65 6.3 -2.4 5.9 M-7.9 10.85 L-9.4 11.85 -11.4 12.8 -12.25 12.8 -12.5 12.7 -12.4 12.55 -12.25 12.45 Q-10.6 12.1 -9.45 11.45 L-8.7 11.0 -8.1 10.65 -7.9 10.85 M-2.45 6.7 L-2.5 6.6 -2.9 7.0 -4.15 8.6 -3.55 8.2 Q-2.8 7.6 -2.45 6.7 M-5.4 9.3 L-5.2 9.05 -5.05 8.8 -5.4 9.3" fill="#cccccc" fill-rule="evenodd" stroke="none"/>
    </g>
  </defs>
</svg>
