<?xml version="1.0" encoding="UTF-8" standalone="no"?>
<svg xmlns:xlink="http://www.w3.org/1999/xlink" height="48.1px" width="42.0px" xmlns="http://www.w3.org/2000/svg">
  <g transform="matrix(1.0, 0.0, 0.0, 1.0, 0.0, 0.0)">
    <use height="30.9" transform="matrix(1.0, 0.0, 0.0, 1.0, 14.4, 11.9)" width="23.35" xlink:href="#shape0"/>
    <use height="37.85" transform="matrix(0.8, 0.0, 0.0, 0.8, 14.66, 12.2)" width="28.4" xlink:href="#sprite0"/>
    <use height="36.4" transform="matrix(0.8, 0.0, 0.0, 0.8, 14.91, 13.2)" width="25.8" xlink:href="#sprite1"/>
    <use height="36.45" transform="matrix(0.8, 0.0, 0.0, 0.8, 14.66, 13.4)" width="25.8" xlink:href="#sprite2"/>
    <use height="1.5" transform="matrix(0.8, 0.0, 0.0, 0.8, 20.34, 41.35)" width="13.6" xlink:href="#sprite3"/>
    <use height="17.25" transform="matrix(0.8, 0.0, 0.0, 0.8, 19.05, 25.0)" width="13.55" xlink:href="#sprite4"/>
    <use height="17.25" transform="matrix(0.8, 0.0, 0.0, 0.8, 19.75, 25.6)" width="13.55" xlink:href="#sprite5"/>
    <use height="13.8" transform="matrix(1.0, 0.0, 0.0, 1.0, 19.35, 25.4)" width="10.85" xlink:href="#shape7"/>
    <use height="34.4" transform="matrix(0.8, 0.0, 0.0, 0.8, 15.4, 14.4)" width="23.3" xlink:href="#sprite6"/>
    <use height="27.8" transform="matrix(1.0, 0.0, 0.0, 1.0, 20.55, 11.2)" width="9.65" xlink:href="#shape9"/>
    <use height="3.65" transform="matrix(0.8, 0.0, 0.0, 0.8, 21.65, 11.15)" width="9.45" xlink:href="#sprite7"/>
    <use height="2.1" transform="matrix(0.8, 0.0, 0.0, 0.8, 22.3, 12.05)" width="1.95" xlink:href="#sprite8"/>
    <use height="2.05" transform="matrix(0.8, 0.0, 0.0, 0.8, 27.5, 11.85)" width="1.15" xlink:href="#sprite9"/>
    <use height="3.25" transform="matrix(1.0, 0.0, 0.0, 1.0, 22.15, 9.2)" width="6.1" xlink:href="#shape13"/>
    <use height="4.1" transform="matrix(0.8, 0.0, 0.0, 0.8, 25.45, 9.2)" width="3.45" xlink:href="#sprite10"/>
    <use height="39.6" transform="matrix(1.0, 0.0, 0.0, 1.0, 4.25, 8.5)" width="24.0" xlink:href="#shape15"/>
    <use height="37.85" transform="matrix(0.8, 0.0, 0.0, 0.8, 4.5, 17.55)" width="28.4" xlink:href="#sprite12"/>
    <use height="36.45" transform="matrix(0.8, 0.0, 0.0, 0.8, 4.75, 18.5)" width="25.8" xlink:href="#sprite13"/>
    <use height="36.45" transform="matrix(0.8, 0.0, 0.0, 0.8, 4.5, 18.65)" width="25.8" xlink:href="#sprite14"/>
    <use height="1.5" transform="matrix(0.8, 0.0, 0.0, 0.8, 10.19, 46.65)" width="13.6" xlink:href="#sprite15"/>
    <use height="17.25" transform="matrix(0.8, 0.0, 0.0, 0.8, 8.9, 30.3)" width="13.55" xlink:href="#sprite16"/>
    <use height="17.25" transform="matrix(0.8, 0.0, 0.0, 0.8, 9.6, 30.9)" width="13.55" xlink:href="#sprite17"/>
    <use height="13.8" transform="matrix(1.0, 0.0, 0.0, 1.0, 9.2, 30.7)" width="10.85" xlink:href="#shape20"/>
    <use height="34.5" transform="matrix(0.8, 0.0, 0.0, 0.8, 5.2, 19.65)" width="23.35" xlink:href="#sprite18"/>
    <use height="27.7" transform="matrix(1.0, 0.0, 0.0, 1.0, 10.35, 16.55)" width="9.7" xlink:href="#shape22"/>
    <use height="3.6" transform="matrix(0.8, 0.0, 0.0, 0.8, 11.41, 16.44)" width="9.5" xlink:href="#sprite19"/>
    <use height="2.15" transform="matrix(0.8, 0.0, 0.0, 0.8, 12.15, 17.35)" width="1.95" xlink:href="#sprite20"/>
    <use height="2.1" transform="matrix(0.8, 0.0, 0.0, 0.8, 17.35, 17.15)" width="1.15" xlink:href="#sprite21"/>
    <use height="3.25" transform="matrix(1.0, 0.0, 0.0, 1.0, 12.0, 14.5)" width="6.1" xlink:href="#shape25"/>
    <use height="4.05" transform="matrix(0.8, 0.0, 0.0, 0.8, 15.25, 14.5)" width="3.5" xlink:href="#sprite22"/>
    <use height="3.8" transform="matrix(1.0, 0.0, 0.0, 1.0, 11.95, 13.8)" width="6.15" xlink:href="#shape26"/>
  </g>
  <defs>
    <g id="shape0" transform="matrix(1.0, 0.0, 0.0, 1.0, -14.4, -11.9)">
      <path d="M36.85 30.3 Q37.65 28.1 37.3 25.75 36.95 23.4 35.95 23.85 L34.15 24.5 34.0 24.6 33.65 24.9 33.75 22.1 Q33.6 20.4 33.15 20.15 32.75 19.95 31.75 20.6 L31.15 20.95 30.6 21.3 30.6 20.85 Q30.85 18.9 30.1 18.4 29.9 18.3 29.55 18.65 29.2 19.1 28.65 18.95 28.2 18.85 28.15 15.55 L28.2 12.2 23.55 12.25 23.15 12.9 22.75 13.4 Q22.95 17.15 22.7 18.9 L22.35 18.45 Q22.2 18.2 22.0 18.3 21.5 18.65 21.35 19.2 20.65 19.65 20.9 21.6 L20.9 21.75 20.2 20.85 Q19.85 20.0 19.35 20.1 18.9 20.15 18.55 21.0 18.1 21.45 18.05 22.7 17.95 23.4 18.15 25.3 L17.85 25.4 Q17.35 25.45 17.2 24.95 16.95 24.2 16.4 23.8 15.8 23.4 15.3 24.4 14.75 25.45 14.75 27.05 14.7 28.95 15.2 30.45 15.75 32.15 16.8 33.2 L17.55 34.25 17.5 34.35 17.35 34.2 17.05 33.75 Q16.45 33.05 15.6 33.35 14.75 33.6 14.75 34.35 14.55 35.2 15.55 36.6 16.75 38.45 19.3 39.3 21.1 39.95 20.85 40.3 20.25 41.2 20.2 41.55 20.15 42.0 20.8 42.2 L25.0 42.5 27.4 42.5 30.5 42.05 31.25 41.55 30.65 40.3 Q30.4 39.9 32.4 39.35 35.15 38.6 36.55 36.6 37.85 34.7 37.2 34.0 36.7 33.4 35.15 33.6 34.7 33.65 34.3 33.85 L35.35 32.85 Q36.25 31.85 36.85 30.3 M37.75 34.6 Q37.75 35.4 36.75 36.8 35.55 38.45 33.5 39.3 L31.0 40.0 30.9 40.1 30.9 40.15 31.45 41.5 Q31.45 42.2 30.55 42.35 L28.15 42.8 25.0 42.8 20.75 42.45 Q19.9 42.35 19.9 41.6 19.95 41.2 20.55 40.15 L20.6 40.1 20.25 39.95 18.9 39.5 Q16.5 38.65 15.25 36.75 14.4 35.45 14.4 34.5 L14.4 34.35 Q14.45 33.75 14.95 33.35 15.35 33.0 15.95 32.95 L16.2 33.0 Q15.4 31.95 14.95 30.6 14.45 29.1 14.45 27.4 L14.45 26.9 Q14.45 25.5 14.9 24.5 15.4 23.4 16.1 23.4 L16.55 23.55 17.5 24.8 17.6 25.05 17.8 25.05 17.7 23.45 17.75 22.65 Q17.85 21.35 18.25 20.8 18.75 19.8 19.4 19.8 20.1 19.8 20.5 20.75 L20.55 20.8 Q20.6 19.45 21.1 19.05 L21.15 19.0 Q21.3 18.4 21.85 18.05 L22.15 17.95 22.5 18.05 22.55 16.15 22.45 13.4 22.45 13.35 22.55 13.25 22.9 12.75 23.4 12.05 23.5 12.0 28.55 11.9 28.55 12.2 28.45 15.0 28.55 17.4 28.75 18.65 28.95 18.7 29.35 18.45 29.55 18.25 29.95 18.05 30.25 18.15 Q30.9 18.6 30.95 20.15 L30.95 20.6 31.0 20.6 Q31.15 20.45 31.55 20.35 32.45 19.8 32.9 19.8 33.45 19.8 33.75 20.4 L34.05 22.1 34.1 22.9 34.0 24.2 34.9 23.95 35.85 23.6 36.2 23.5 Q36.9 23.55 37.35 24.65 37.7 25.6 37.7 27.05 37.7 28.85 37.15 30.4 36.5 32.1 35.35 33.25 L35.85 33.2 Q37.75 33.2 37.75 34.6" fill="#c7a040" fill-rule="evenodd" stroke="none"/>
    </g>
    <g id="sprite0" transform="matrix(1.0, 0.0, 0.0, 1.0, 0.05, 0.0)">
      <use height="37.85" transform="matrix(1.0, 0.0, 0.0, 1.0, -0.05, 0.0)" width="28.4" xlink:href="#shape1"/>
    </g>
    <g id="shape1" transform="matrix(1.0, 0.0, 0.0, 1.0, 0.05, 0.0)">
      <path d="M20.5 10.9 L21.25 10.45 Q22.55 9.65 23.05 9.9 23.6 10.25 23.75 12.35 23.9 14.1 23.65 15.85 L24.1 15.45 24.2 15.4 24.1 15.4 25.2 15.05 26.55 14.55 Q27.75 14.0 28.2 16.9 28.65 19.85 27.65 22.6 26.9 24.6 25.65 25.85 L24.5 27.1 Q24.95 26.85 25.5 26.75 27.45 26.45 28.1 27.2 28.9 28.1 27.25 30.5 25.5 32.95 22.1 33.9 19.6 34.6 19.9 35.1 20.65 36.2 20.65 36.65 20.6 37.1 19.7 37.3 L15.85 37.85 12.85 37.85 7.6 37.45 Q6.75 37.25 6.85 36.65 6.9 36.25 7.65 35.1 7.95 34.65 5.7 33.85 2.55 32.8 1.0 30.45 -0.2 28.7 0.0 27.65 0.05 26.7 1.1 26.4 2.15 26.05 2.9 26.9 L3.25 27.5 3.45 27.65 3.55 27.55 Q3.6 27.25 2.6 26.2 1.3 24.9 0.6 22.8 -0.05 20.9 0.05 18.55 0.0 16.55 0.7 15.25 1.35 13.95 2.1 14.5 2.8 14.95 3.1 15.9 3.3 16.55 3.9 16.45 L4.25 16.35 Q4.05 13.95 4.15 13.1 4.2 11.55 4.75 10.95 5.2 9.9 5.75 9.85 6.4 9.7 6.85 10.8 L7.7 11.9 7.7 11.7 Q7.4 9.3 8.25 8.75 L8.3 8.7 Q8.45 8.05 9.1 7.6 9.35 7.45 9.55 7.8 L9.95 8.35 Q10.25 6.15 10.05 1.5 L10.5 0.85 11.05 0.05 16.85 0.0 Q16.75 2.05 16.8 4.15 16.85 8.3 17.4 8.4 18.1 8.6 18.55 8.05 18.95 7.6 19.2 7.75 20.15 8.35 19.85 10.8 L19.85 11.35 Q20.2 10.9 20.5 10.9" fill="url(#gradient0)" fill-rule="evenodd" stroke="none"/>
    </g>
    <linearGradient gradientTransform="matrix(0.003, 0.0227, 0.0228, -0.0026, 13.55, 17.75)" gradientUnits="userSpaceOnUse" id="gradient0" spreadMethod="pad" x1="-819.2" x2="819.2">
      <stop offset="0.011764705882352941" stop-color="#c46900"/>
      <stop offset="1.0" stop-color="#522302"/>
    </linearGradient>
    <g id="sprite1" transform="matrix(1.0, 0.0, 0.0, 1.0, 0.05, 0.0)">
      <use height="36.4" transform="matrix(1.0, 0.0, 0.0, 1.0, -0.05, 0.0)" width="25.8" xlink:href="#shape2"/>
    </g>
    <g id="shape2" transform="matrix(1.0, 0.0, 0.0, 1.0, 0.05, 0.0)">
      <path d="M20.7 9.55 Q21.4 9.85 21.55 11.9 L21.5 15.0 Q21.4 15.95 22.15 16.1 22.7 16.2 23.0 15.5 23.45 14.5 24.1 14.05 25.1 13.35 25.55 16.25 26.0 19.2 25.1 21.75 24.35 23.8 23.1 25.1 22.1 26.1 22.15 26.4 22.35 27.95 23.6 26.35 24.75 25.0 25.5 26.05 26.25 27.1 24.7 29.4 23.15 31.7 20.05 32.65 17.75 33.35 18.05 33.8 L18.85 35.4 Q18.9 36.0 18.1 36.2 L12.85 36.4 7.6 36.0 Q6.75 35.8 6.85 35.2 6.9 34.8 7.65 33.65 7.95 33.2 5.65 32.45 2.55 31.4 1.0 29.0 -0.55 26.65 0.2 25.65 0.95 24.65 2.1 26.0 3.35 27.6 3.55 26.1 L2.6 24.8 Q1.3 23.45 0.6 21.4 -0.3 18.75 0.15 15.85 0.6 12.95 1.6 13.7 2.2 14.15 2.65 15.2 3.0 15.9 3.55 15.8 4.3 15.7 4.25 14.75 L4.15 11.65 Q4.3 9.6 5.0 9.3 5.7 9.05 6.2 10.4 6.75 11.65 7.3 11.45 7.85 11.3 7.7 10.25 7.4 7.9 8.25 7.35 8.5 7.2 8.7 7.7 8.95 8.25 9.55 8.1 10.4 7.9 10.05 0.05 L15.3 0.0 Q15.2 2.0 15.25 4.0 15.25 8.0 15.8 8.1 16.4 8.25 16.8 7.75 17.2 7.3 17.45 7.45 18.3 8.05 18.0 10.45 17.9 11.45 18.4 11.65 18.95 11.85 19.45 10.6 20.0 9.25 20.7 9.55" fill="#edcc56" fill-rule="evenodd" stroke="none"/>
    </g>
    <g id="sprite2" transform="matrix(1.0, 0.0, 0.0, 1.0, 0.05, 0.0)">
      <use height="36.45" transform="matrix(1.0, 0.0, 0.0, 1.0, -0.05, 0.0)" width="25.8" xlink:href="#shape3"/>
    </g>
    <g id="shape3" transform="matrix(1.0, 0.0, 0.0, 1.0, 0.05, 0.0)">
      <path d="M20.7 9.5 Q21.4 9.85 21.55 11.9 L21.5 15.0 Q21.4 15.95 22.15 16.1 22.7 16.2 23.05 15.5 23.5 14.45 24.1 14.0 25.1 13.3 25.55 16.2 26.0 19.15 25.1 21.75 24.35 23.8 23.1 25.05 22.1 26.05 22.15 26.35 22.35 27.9 23.6 26.3 24.75 24.95 25.5 26.0 26.25 27.05 24.7 29.35 23.15 31.7 20.05 32.65 17.75 33.35 18.05 33.8 L18.85 35.4 Q18.95 36.0 18.1 36.15 L12.85 36.4 7.6 36.0 Q6.75 35.8 6.85 35.2 6.9 34.8 7.65 33.65 7.95 33.2 5.7 32.4 2.55 31.35 1.0 29.0 -0.55 26.65 0.2 25.65 1.0 24.6 2.1 26.0 3.35 27.6 3.55 26.1 3.6 25.8 2.6 24.75 1.3 23.45 0.6 21.35 -0.3 18.75 0.15 15.8 0.6 12.95 1.6 13.7 2.2 14.15 2.65 15.15 3.0 15.9 3.55 15.8 4.3 15.7 4.25 14.7 L4.15 11.65 Q4.3 9.6 5.0 9.3 5.7 9.0 6.2 10.35 6.75 11.65 7.3 11.45 7.85 11.3 7.7 10.25 7.4 7.85 8.25 7.3 8.5 7.15 8.7 7.65 8.95 8.2 9.55 8.05 10.4 7.85 10.05 0.05 L15.3 0.0 Q15.2 1.95 15.25 3.95 15.25 7.95 15.8 8.1 16.4 8.25 16.8 7.75 17.2 7.3 17.45 7.45 18.3 8.0 18.0 10.4 17.9 11.45 18.4 11.6 18.95 11.8 19.5 10.55 20.05 9.2 20.7 9.5" fill="url(#gradient1)" fill-rule="evenodd" stroke="none"/>
    </g>
    <radialGradient cx="0" cy="0" gradientTransform="matrix(0.0279, -4.0E-4, 0.0, -0.0279, 12.45, 23.35)" gradientUnits="userSpaceOnUse" id="gradient1" r="819.2" spreadMethod="pad">
      <stop offset="0.011764705882352941" stop-color="#cc861c"/>
      <stop offset="1.0" stop-color="#662500"/>
    </radialGradient>
    <g id="sprite3" transform="matrix(1.0, 0.0, 0.0, 1.0, -0.05, 0.0)">
      <use height="1.5" transform="matrix(1.0, 0.0, 0.0, 1.0, 0.05, 0.0)" width="13.6" xlink:href="#shape4"/>
    </g>
    <g id="shape4" transform="matrix(1.0, 0.0, 0.0, 1.0, -0.05, 0.0)">
      <path d="M0.2 0.9 Q-0.55 0.6 2.4 0.15 4.1 -0.05 8.9 0.0 L13.65 0.4 Q13.3 1.0 10.15 1.4 L5.1 1.45 0.2 0.9" fill="#42210b" fill-rule="evenodd" stroke="none"/>
    </g>
    <g id="sprite4" transform="matrix(1.0, 0.0, 0.0, 1.0, 0.0, 0.0)">
      <use height="17.25" transform="matrix(1.0, 0.0, 0.0, 1.0, 0.0, 0.0)" width="13.55" xlink:href="#shape5"/>
    </g>
    <g id="shape5" transform="matrix(1.0, 0.0, 0.0, 1.0, 0.0, 0.0)">
      <path d="M6.65 0.0 Q10.05 0.05 11.95 3.25 13.55 5.9 13.55 9.35 13.55 13.25 12.7 14.8 11.25 17.3 6.85 17.25 2.9 17.2 1.35 15.2 0.0 13.45 0.0 9.5 0.0 5.65 1.8 2.9 3.7 -0.05 6.65 0.0" fill="#000000" fill-rule="evenodd" stroke="none"/>
    </g>
    <g id="sprite5" transform="matrix(1.0, 0.0, 0.0, 1.0, 0.0, 0.0)">
      <use height="17.25" transform="matrix(1.0, 0.0, 0.0, 1.0, 0.0, 0.0)" width="13.55" xlink:href="#shape6"/>
    </g>
    <g id="shape6" transform="matrix(1.0, 0.0, 0.0, 1.0, 0.0, 0.0)">
      <path d="M6.7 0.0 Q10.1 0.05 12.0 3.25 13.55 5.9 13.55 9.35 13.55 13.25 12.7 14.8 11.3 17.3 6.9 17.25 2.9 17.2 1.35 15.2 0.0 13.45 0.0 9.5 0.0 5.65 1.8 2.9 3.7 -0.05 6.7 0.0" fill="#fffed9" fill-rule="evenodd" stroke="none"/>
    </g>
    <g id="shape7" transform="matrix(1.0, 0.0, 0.0, 1.0, -19.35, -25.4)">
      <path d="M24.75 25.4 Q27.45 25.4 28.95 27.95 30.2 30.0 30.2 32.8 30.2 35.95 29.55 37.15 28.4 39.2 24.9 39.2 21.7 39.2 20.45 37.6 19.35 36.25 19.35 33.1 19.35 30.0 20.8 27.8 22.35 25.4 24.75 25.4" fill="url(#gradient2)" fill-rule="evenodd" stroke="none"/>
      <path d="M21.0 38.2 L24.65 37.8 28.6 38.2 Q27.3 39.2 24.9 39.2 22.3 39.2 21.0 38.2" fill="#bbc737" fill-rule="evenodd" stroke="none"/>
    </g>
    <radialGradient cx="0" cy="0" gradientTransform="matrix(0.0136, -2.0E-4, 0.0, -0.0136, 23.85, 28.65)" gradientUnits="userSpaceOnUse" id="gradient2" r="819.2" spreadMethod="pad">
      <stop offset="0.0" stop-color="#9dd950"/>
      <stop offset="1.0" stop-color="#66912c"/>
    </radialGradient>
    <g id="sprite6" transform="matrix(1.0, 0.0, 0.0, 1.0, 0.0, 0.0)">
      <use height="34.4" transform="matrix(1.0, 0.0, 0.0, 1.0, 0.0, 0.0)" width="23.3" xlink:href="#shape8"/>
    </g>
    <g id="shape8" transform="matrix(1.0, 0.0, 0.0, 1.0, 0.0, 0.0)">
      <path d="M22.7 21.55 Q22.0 23.4 20.9 24.5 20.0 25.4 20.0 25.6 19.9 26.4 20.45 26.75 21.0 27.1 21.55 26.5 22.6 25.35 23.1 25.8 23.65 26.3 22.25 28.3 20.8 30.35 18.0 31.15 15.95 31.7 16.2 32.15 L16.9 33.55 Q16.95 34.1 16.2 34.25 L11.5 34.35 6.8 33.9 Q6.05 33.7 6.15 33.2 L6.85 31.8 Q7.15 31.4 5.15 30.7 2.35 29.75 1.0 27.6 -0.35 25.5 0.1 25.15 0.5 24.8 1.65 25.9 2.35 26.55 3.15 26.15 3.95 25.7 3.7 24.85 L2.55 23.75 Q1.45 22.75 0.8 20.85 0.0 18.45 0.3 16.0 0.6 13.55 1.5 14.2 L2.75 15.45 Q3.3 16.0 3.85 15.9 4.5 15.8 4.3 15.0 4.0 13.35 4.1 12.25 4.3 10.4 4.8 10.15 5.35 9.95 5.8 11.15 6.25 12.3 6.85 12.15 7.4 12.0 7.3 11.1 7.1 8.95 7.85 8.5 8.1 8.35 8.3 8.8 8.5 9.3 9.0 9.2 10.05 8.95 10.0 0.0 L10.55 0.15 12.2 0.4 13.7 0.45 13.75 4.75 Q13.9 9.05 14.6 9.3 15.1 9.5 15.5 9.05 15.85 8.6 16.1 8.75 16.85 9.25 16.55 11.4 16.45 12.3 16.9 12.5 17.35 12.7 17.85 11.55 18.35 10.4 19.0 10.7 19.65 11.0 19.7 12.8 L19.55 15.5 Q19.5 16.35 20.15 16.5 20.65 16.6 20.95 16.0 21.4 15.05 21.95 14.7 22.85 14.05 23.2 16.65 23.55 19.3 22.7 21.55" fill="url(#gradient3)" fill-rule="evenodd" stroke="none"/>
    </g>
    <linearGradient gradientTransform="matrix(1.0E-4, 0.0223, 0.0223, 3.0E-4, 11.9, 2.15)" gradientUnits="userSpaceOnUse" id="gradient3" spreadMethod="pad" x1="-819.2" x2="819.2">
      <stop offset="0.011764705882352941" stop-color="#ffffff"/>
      <stop offset="1.0" stop-color="#000000"/>
    </linearGradient>
    <g id="shape9" transform="matrix(1.0, 0.0, 0.0, 1.0, -20.55, -11.2)">
      <path d="M20.9 27.75 L21.6 28.35 Q22.65 29.0 24.35 29.25 L25.85 29.5 Q25.85 28.7 25.15 28.0 L24.7 27.6 25.15 27.8 26.1 28.4 26.7 29.6 28.15 29.6 29.65 29.4 29.8 29.8 30.1 31.1 30.2 33.4 Q29.3 33.6 25.75 32.15 23.35 31.2 21.7 29.65 L20.55 28.35 20.7 28.0 20.9 27.75" fill="#6d8c43" fill-rule="evenodd" stroke="none"/>
      <path d="M22.3 29.0 L21.7 29.65 21.55 29.5 Q21.85 28.85 22.3 28.65 L22.55 28.8 22.3 29.0 M26.35 28.85 L25.75 29.0 25.45 28.4 25.95 28.3 26.1 28.4 26.35 28.85 M29.1 29.55 L29.65 29.4 29.85 29.9 Q29.55 30.65 29.55 31.2 L29.55 32.65 Q29.65 31.75 30.05 30.85 L30.1 31.1 30.2 33.4 29.95 33.4 30.15 32.25 29.45 33.35 29.35 33.3 29.3 31.2 29.0 33.25 28.95 33.2 28.95 30.6 28.35 33.1 27.55 32.85 27.55 30.35 26.8 32.6 26.1 32.3 26.2 30.65 25.95 31.1 25.55 32.1 24.9 31.8 25.25 30.0 24.95 30.4 Q24.65 30.95 24.5 31.6 L23.65 31.1 24.25 29.75 Q24.1 29.8 23.9 29.95 L23.2 30.8 22.35 30.25 22.95 29.3 22.65 29.4 22.05 30.0 21.75 29.7 22.95 28.9 23.6 29.1 23.15 29.55 22.95 30.2 23.35 29.8 24.3 29.2 24.35 29.25 24.85 29.35 24.55 29.8 Q24.15 30.6 24.2 30.85 L24.55 30.25 25.55 29.4 25.85 29.5 25.8 29.35 26.55 29.15 26.7 29.6 27.15 29.6 26.55 30.8 26.45 31.8 26.75 30.85 Q27.1 29.9 27.75 29.6 L28.4 29.6 28.05 30.25 Q27.85 30.9 27.95 31.7 28.25 30.25 29.1 29.55 M20.7 28.0 L20.9 27.75 21.15 28.0 21.9 28.45 21.25 29.2 20.55 28.35 20.7 28.0 M25.15 28.0 L24.7 27.6 Q25.15 27.6 25.7 28.05 L25.3 28.2 25.15 28.0" fill="#c5eba9" fill-rule="evenodd" stroke="none"/>
      <path d="M24.8 32.45 L26.45 35.85 Q27.1 37.1 26.55 38.15 25.9 39.2 24.45 38.95 23.35 38.8 23.1 37.4 22.85 36.15 23.55 35.15 L24.8 32.45" fill="#fcee21" fill-rule="evenodd" stroke="none"/>
      <path d="M24.6 33.8 L24.45 34.25 24.25 35.65 24.35 36.75 24.3 37.45 Q23.95 37.9 23.6 37.6 23.35 37.4 23.35 37.0 23.3 36.4 23.75 35.55 L24.6 33.8" fill="#ffffff" fill-rule="evenodd" stroke="none"/>
      <path d="M24.6 38.6 Q25.2 38.7 25.75 38.05 26.55 37.15 25.75 35.5 L26.25 36.3 Q26.7 37.25 26.35 38.0 25.95 38.7 25.2 38.7 L24.6 38.6" fill="#dbc037" fill-rule="evenodd" stroke="none"/>
      <path d="M24.15 27.2 Q23.95 26.8 24.15 26.25 L24.3 25.8 24.8 26.2 25.3 27.0 Q25.25 27.45 24.8 27.6 24.35 27.65 24.15 27.2" fill="#518c27" fill-rule="evenodd" stroke="none"/>
      <path d="M24.55 27.55 Q24.05 28.4 23.25 27.65 L22.55 26.8 22.75 26.7 23.6 26.55 24.45 26.85 Q24.75 27.2 24.55 27.55" fill="#62a82f" fill-rule="evenodd" stroke="none"/>
      <path d="M28.45 13.45 L26.1 13.95 23.35 13.8 Q22.1 13.6 21.8 12.85 21.5 12.15 22.35 11.75 L24.75 11.25 27.5 11.4 Q28.75 11.6 29.05 12.35 29.35 13.05 28.45 13.45" fill="url(#gradient4)" fill-rule="evenodd" stroke="none"/>
    </g>
    <linearGradient gradientTransform="matrix(0.0045, 1.0E-4, 1.0E-4, -0.0046, 25.4, 12.6)" gradientUnits="userSpaceOnUse" id="gradient4" spreadMethod="pad" x1="-819.2" x2="819.2">
      <stop offset="0.011764705882352941" stop-color="#cc861c"/>
      <stop offset="1.0" stop-color="#662500"/>
    </linearGradient>
    <g id="sprite7" transform="matrix(1.0, 0.0, 0.0, 1.0, 0.0, 0.0)">
      <use height="3.65" transform="matrix(1.0, 0.0, 0.0, 1.0, 0.0, 0.0)" width="9.45" xlink:href="#shape10"/>
    </g>
    <g id="shape10" transform="matrix(1.0, 0.0, 0.0, 1.0, 0.0, 0.0)">
      <path d="M8.5 2.9 L5.55 3.5 2.1 3.35 Q0.55 3.05 0.2 2.15 -0.2 1.25 0.9 0.75 2.0 0.25 3.85 0.15 L7.3 0.3 Q8.85 0.6 9.25 1.5 9.6 2.4 8.5 2.9 Z" fill="none" stroke="#edcc56" stroke-linecap="butt" stroke-linejoin="miter" stroke-width="0.25"/>
    </g>
    <g id="sprite8" transform="matrix(1.0, 0.0, 0.0, 1.0, 0.0, 0.0)">
      <use height="2.1" transform="matrix(1.0, 0.0, 0.0, 1.0, 0.0, 0.0)" width="1.95" xlink:href="#shape11"/>
    </g>
    <g id="shape11" transform="matrix(1.0, 0.0, 0.0, 1.0, 0.0, 0.0)">
      <path d="M1.0 0.0 L1.95 0.0 1.2 0.45 Q0.25 0.95 1.1 2.1 0.1 1.8 0.0 1.25 -0.1 0.0 1.0 0.0" fill="url(#gradient5)" fill-rule="evenodd" stroke="none"/>
    </g>
    <linearGradient gradientTransform="matrix(0.0, 0.0012, 0.0012, 0.0, 1.0, 0.6)" gradientUnits="userSpaceOnUse" id="gradient5" spreadMethod="pad" x1="-819.2" x2="819.2">
      <stop offset="0.011764705882352941" stop-color="#ffffff"/>
      <stop offset="1.0" stop-color="#000000"/>
    </linearGradient>
    <g id="sprite9" transform="matrix(1.0, 0.0, 0.0, 1.0, 0.0, 0.0)">
      <use height="2.05" transform="matrix(1.0, 0.0, 0.0, 1.0, 0.0, 0.0)" width="1.15" xlink:href="#shape12"/>
    </g>
    <g id="shape12" transform="matrix(1.0, 0.0, 0.0, 1.0, 0.0, 0.0)">
      <path d="M0.0 0.15 L0.55 0.0 Q1.15 0.05 1.15 0.9 1.15 1.75 0.5 2.05 L0.55 1.15 Q0.55 0.35 0.0 0.15" fill="#000000" fill-rule="evenodd" stroke="none"/>
    </g>
    <g id="shape13" transform="matrix(1.0, 0.0, 0.0, 1.0, -22.15, -9.2)">
      <path d="M27.95 12.0 L27.15 12.3 25.35 12.45 23.55 12.3 Q22.75 12.2 22.75 12.0 22.75 11.8 23.55 11.65 L25.35 11.5 27.15 11.65 Q27.95 11.8 27.95 12.0" fill="url(#gradient6)" fill-rule="evenodd" stroke="none"/>
      <path d="M28.25 9.2 L27.8 12.1 25.35 12.45 23.5 12.3 22.95 12.15 Q22.75 11.95 22.65 11.4 L22.15 9.2 28.25 9.2" fill="url(#gradient7)" fill-rule="evenodd" stroke="none"/>
    </g>
    <linearGradient gradientTransform="matrix(0.0031, 0.0, 0.0, -0.0031, 25.35, 12.0)" gradientUnits="userSpaceOnUse" id="gradient6" spreadMethod="pad" x1="-819.2" x2="819.2">
      <stop offset="0.011764705882352941" stop-color="#522304"/>
      <stop offset="1.0" stop-color="#a85202"/>
    </linearGradient>
    <linearGradient gradientTransform="matrix(0.0037, 0.0, 0.0, -0.0037, 25.2, 10.8)" gradientUnits="userSpaceOnUse" id="gradient7" spreadMethod="pad" x1="-819.2" x2="819.2">
      <stop offset="0.011764705882352941" stop-color="#ebd47d"/>
      <stop offset="0.32941176470588235" stop-color="#ffe99e"/>
      <stop offset="1.0" stop-color="#c9b054"/>
    </linearGradient>
    <g id="sprite10" transform="matrix(1.0, 0.0, 0.0, 1.0, 0.0, 0.0)">
      <use height="4.1" transform="matrix(1.0, 0.0, 0.0, 1.0, 0.0, 0.0)" width="3.45" xlink:href="#sprite11"/>
    </g>
    <g id="sprite11" transform="matrix(1.0, 0.0, 0.0, 1.0, 0.0, 0.0)">
      <use height="4.1" transform="matrix(1.0, 0.0, 0.0, 1.0, 0.0, 0.0)" width="3.45" xlink:href="#shape14"/>
    </g>
    <g id="shape14" transform="matrix(1.0, 0.0, 0.0, 1.0, 0.0, 0.0)">
      <path d="M3.45 0.0 L2.9 3.65 0.0 4.1 Q1.2 3.65 1.5 3.25 2.1 2.45 1.9 0.5 L3.45 0.0" fill="#a35700" fill-rule="evenodd" stroke="none"/>
    </g>
    <g id="shape15" transform="matrix(1.0, 0.0, 0.0, 1.0, -4.25, -8.5)">
      <path d="M28.25 9.15 Q28.25 9.4 27.35 9.6 L25.2 9.8 23.0 9.6 Q22.15 9.4 22.15 9.15 22.15 8.85 23.0 8.7 L25.2 8.5 27.35 8.7 Q28.25 8.85 28.25 9.15" fill="url(#gradient8)" fill-rule="evenodd" stroke="none"/>
      <path d="M22.9 10.05 Q23.15 10.3 23.05 10.65 L22.8 10.8 Q22.7 10.6 22.75 10.25 22.75 9.95 22.9 10.05" fill="url(#gradient9)" fill-rule="evenodd" stroke="none"/>
      <path d="M23.35 10.95 Q23.6 11.05 23.5 11.35 L23.3 11.4 23.2 11.05 Q23.2 10.8 23.35 10.95" fill="url(#gradient10)" fill-rule="evenodd" stroke="none"/>
      <path d="M24.1 10.3 L24.1 10.7 Q23.95 10.85 23.95 10.65 L23.95 10.35 Q24.05 10.15 24.1 10.3" fill="url(#gradient11)" fill-rule="evenodd" stroke="none"/>
      <path d="M25.55 10.8 Q25.8 10.8 25.75 11.15 L25.45 11.45 Q25.2 11.4 25.25 11.1 25.3 10.8 25.55 10.8" fill="url(#gradient12)" fill-rule="evenodd" stroke="none"/>
      <path d="M24.15 11.5 Q24.4 11.6 24.3 11.8 L23.95 12.0 Q23.75 11.9 23.85 11.65 23.95 11.45 24.15 11.5" fill="url(#gradient13)" fill-rule="evenodd" stroke="none"/>
      <path d="M23.15 11.75 L23.2 12.0 23.05 12.05 23.05 11.8 Q23.15 11.6 23.15 11.75" fill="url(#gradient14)" fill-rule="evenodd" stroke="none"/>
      <path d="M25.2 11.95 L25.2 12.25 24.95 12.25 24.95 12.0 Q25.15 11.8 25.2 11.95" fill="url(#gradient15)" fill-rule="evenodd" stroke="none"/>
      <path d="M27.55 10.4 L27.4 10.85 27.2 10.8 Q27.1 10.6 27.35 10.4 27.55 10.2 27.55 10.4" fill="url(#gradient16)" fill-rule="evenodd" stroke="none"/>
      <path d="M27.5 11.55 L27.5 11.9 27.35 11.9 Q27.2 11.85 27.35 11.65 27.5 11.4 27.5 11.55" fill="url(#gradient17)" fill-rule="evenodd" stroke="none"/>
      <path d="M23.6 9.2 L23.7 9.25 23.35 9.35 Q23.15 9.35 23.3 9.25 L23.6 9.2" fill="url(#gradient18)" fill-rule="evenodd" stroke="none"/>
      <path d="M24.65 8.65 Q24.95 8.65 24.85 8.8 L24.5 8.85 24.35 8.8 Q24.45 8.65 24.65 8.65" fill="url(#gradient19)" fill-rule="evenodd" stroke="none"/>
      <path d="M24.3 8.95 Q24.9 9.0 24.1 9.2 L24.05 9.0 24.3 8.95" fill="url(#gradient20)" fill-rule="evenodd" stroke="none"/>
      <path d="M26.15 9.0 Q26.6 9.0 26.35 9.2 L25.85 9.25 Q25.65 9.2 25.8 9.1 L26.15 9.0" fill="url(#gradient21)" fill-rule="evenodd" stroke="none"/>
      <path d="M26.9 9.25 Q27.2 9.3 26.95 9.4 L26.55 9.4 Q26.15 9.15 26.9 9.25" fill="url(#gradient22)" fill-rule="evenodd" stroke="none"/>
      <path d="M25.1 9.5 L25.2 9.6 24.8 9.7 24.75 9.6 25.1 9.5" fill="url(#gradient23)" fill-rule="evenodd" stroke="none"/>
      <path d="M27.5 8.85 Q27.95 8.9 27.35 9.05 27.15 9.0 27.25 8.9 L27.5 8.85" fill="url(#gradient24)" fill-rule="evenodd" stroke="none"/>
      <path d="M20.75 26.0 L20.85 26.0 21.4 25.7 Q22.25 25.2 22.75 25.2 23.35 25.2 23.55 25.85 L23.9 27.5 23.85 29.65 24.7 29.4 25.65 29.05 26.0 29.0 Q26.75 29.0 27.15 30.15 27.55 31.1 27.55 32.55 27.55 34.4 26.95 35.85 26.3 37.65 25.15 38.75 L25.7 38.7 Q27.55 38.7 27.55 40.05 27.55 40.9 26.6 42.25 25.4 43.95 23.35 44.7 L20.85 45.4 20.75 45.45 20.75 45.5 21.3 46.9 Q21.3 47.6 20.35 47.75 L17.95 48.1 14.85 48.05 10.55 47.7 Q9.75 47.5 9.75 46.8 9.75 46.45 10.4 45.35 L10.45 45.3 10.4 45.3 10.1 45.15 8.75 44.7 Q6.35 43.8 5.1 41.85 4.25 40.6 4.25 39.6 L4.25 39.45 Q4.3 38.85 4.75 38.45 5.2 38.1 5.8 38.1 L6.05 38.1 Q5.25 37.05 4.75 35.7 4.3 34.4 4.3 32.55 L4.3 32.0 Q4.3 30.6 4.75 29.6 5.25 28.55 5.95 28.55 L6.4 28.7 Q7.0 29.1 7.35 29.95 L7.4 30.2 7.55 30.25 7.65 30.25 7.55 28.6 7.55 27.8 Q7.7 26.5 8.1 26.0 8.55 25.0 9.25 24.95 9.95 25.0 10.35 25.95 L10.35 26.05 Q10.35 24.7 10.95 24.25 L10.95 24.2 Q11.15 23.6 11.7 23.3 L12.0 23.2 12.3 23.35 12.3 18.6 12.35 18.5 12.75 18.0 13.2 17.3 13.35 17.2 18.35 17.2 18.35 17.55 18.3 20.3 18.35 22.8 Q18.4 23.4 18.6 24.0 L18.75 24.0 Q18.95 24.0 19.15 23.8 L19.35 23.6 19.75 23.4 20.1 23.55 Q20.75 23.95 20.8 25.5 L20.75 26.0 M21.55 26.0 L20.95 26.3 Q20.75 26.3 20.45 26.65 L20.45 26.25 Q20.7 24.25 19.95 23.8 19.7 23.6 19.35 24.0 19.0 24.4 18.5 24.3 18.05 24.2 18.0 20.85 L18.05 17.55 13.4 17.55 12.95 18.15 12.6 18.65 12.65 20.75 12.55 24.15 12.2 23.7 Q12.05 23.4 11.85 23.55 11.35 23.8 11.2 24.4 L11.15 24.45 Q10.85 24.65 10.75 25.4 10.6 26.0 10.75 26.8 L10.75 26.95 10.05 26.05 Q9.7 25.2 9.15 25.25 8.7 25.35 8.35 26.15 7.95 26.65 7.85 27.85 7.75 29.15 7.95 30.45 L7.7 30.55 Q7.2 30.6 7.05 30.1 6.8 29.35 6.25 28.95 5.65 28.5 5.1 29.55 4.55 30.6 4.6 32.2 4.55 34.0 5.05 35.6 5.6 37.25 6.65 38.35 L7.4 39.4 7.35 39.5 Q7.2 39.55 7.15 39.4 L6.9 38.9 Q6.3 38.2 5.45 38.45 4.6 38.7 4.55 39.45 4.4 40.3 5.35 41.7 6.6 43.6 9.1 44.5 10.95 45.15 10.7 45.5 10.1 46.4 10.05 46.75 9.95 47.2 10.65 47.4 L14.85 47.8 17.25 47.8 20.35 47.4 Q21.05 47.25 21.1 46.9 21.1 46.6 20.5 45.65 20.2 45.25 22.2 44.75 24.95 44.0 26.35 42.1 27.7 40.2 27.05 39.45 26.55 38.85 24.95 39.05 24.4 39.1 24.15 39.3 L25.15 38.3 Q26.1 37.3 26.7 35.75 27.5 33.6 27.15 31.2 26.75 28.9 25.8 29.35 L24.0 29.9 23.95 29.95 23.85 30.0 23.95 30.0 23.5 30.3 23.55 27.55 Q23.45 25.85 22.95 25.6 22.6 25.4 21.55 26.0" fill="#c7a040" fill-rule="evenodd" stroke="none"/>
    </g>
    <linearGradient gradientTransform="matrix(-0.0046, 0.0011, 0.0011, 0.0046, 24.75, 9.25)" gradientUnits="userSpaceOnUse" id="gradient8" spreadMethod="pad" x1="-819.2" x2="819.2">
      <stop offset="0.0" stop-color="#ffe99e"/>
      <stop offset="1.0" stop-color="#c9b054"/>
    </linearGradient>
    <linearGradient gradientTransform="matrix(-1.0E-4, -6.0E-4, -6.0E-4, 1.0E-4, 22.9, 10.5)" gradientUnits="userSpaceOnUse" id="gradient9" spreadMethod="pad" x1="-819.2" x2="819.2">
      <stop offset="0.0" stop-color="#ffe99e"/>
      <stop offset="1.0" stop-color="#c9b054"/>
    </linearGradient>
    <linearGradient gradientTransform="matrix(0.0, -4.0E-4, -4.0E-4, 0.0, 23.35, 11.2)" gradientUnits="userSpaceOnUse" id="gradient10" spreadMethod="pad" x1="-819.2" x2="819.2">
      <stop offset="0.0" stop-color="#ffe99e"/>
      <stop offset="1.0" stop-color="#c9b054"/>
    </linearGradient>
    <linearGradient gradientTransform="matrix(0.0, -4.0E-4, -4.0E-4, 0.0, 24.0, 10.55)" gradientUnits="userSpaceOnUse" id="gradient11" spreadMethod="pad" x1="-819.2" x2="819.2">
      <stop offset="0.0" stop-color="#ffe99e"/>
      <stop offset="1.0" stop-color="#c9b054"/>
    </linearGradient>
    <linearGradient gradientTransform="matrix(0.0, -5.0E-4, -5.0E-4, 0.0, 25.55, 11.2)" gradientUnits="userSpaceOnUse" id="gradient12" spreadMethod="pad" x1="-819.2" x2="819.2">
      <stop offset="0.0" stop-color="#ffe99e"/>
      <stop offset="1.0" stop-color="#c9b054"/>
    </linearGradient>
    <linearGradient gradientTransform="matrix(0.0, -4.0E-4, -4.0E-4, 0.0, 24.1, 11.8)" gradientUnits="userSpaceOnUse" id="gradient13" spreadMethod="pad" x1="-819.2" x2="819.2">
      <stop offset="0.0" stop-color="#ffe99e"/>
      <stop offset="1.0" stop-color="#c9b054"/>
    </linearGradient>
    <linearGradient gradientTransform="matrix(0.0, -3.0E-4, -3.0E-4, 0.0, 23.15, 11.9)" gradientUnits="userSpaceOnUse" id="gradient14" spreadMethod="pad" x1="-819.2" x2="819.2">
      <stop offset="0.0" stop-color="#ffe99e"/>
      <stop offset="1.0" stop-color="#c9b054"/>
    </linearGradient>
    <linearGradient gradientTransform="matrix(0.0, -3.0E-4, -3.0E-4, 0.0, 25.1, 12.15)" gradientUnits="userSpaceOnUse" id="gradient15" spreadMethod="pad" x1="-819.2" x2="819.2">
      <stop offset="0.0" stop-color="#ffe99e"/>
      <stop offset="1.0" stop-color="#c9b054"/>
    </linearGradient>
    <linearGradient gradientTransform="matrix(0.0, -4.0E-4, -4.0E-4, 0.0, 27.35, 10.65)" gradientUnits="userSpaceOnUse" id="gradient16" spreadMethod="pad" x1="-819.2" x2="819.2">
      <stop offset="0.0" stop-color="#ffe99e"/>
      <stop offset="1.0" stop-color="#c9b054"/>
    </linearGradient>
    <linearGradient gradientTransform="matrix(0.0, -3.0E-4, -3.0E-4, 0.0, 27.35, 11.75)" gradientUnits="userSpaceOnUse" id="gradient17" spreadMethod="pad" x1="-819.2" x2="819.2">
      <stop offset="0.0" stop-color="#ffe99e"/>
      <stop offset="1.0" stop-color="#c9b054"/>
    </linearGradient>
    <linearGradient gradientTransform="matrix(-6.0E-4, 0.0, 0.0, 6.0E-4, 23.35, 9.25)" gradientUnits="userSpaceOnUse" id="gradient18" spreadMethod="pad" x1="-819.2" x2="819.2">
      <stop offset="0.0" stop-color="#ffe99e"/>
      <stop offset="1.0" stop-color="#c9b054"/>
    </linearGradient>
    <linearGradient gradientTransform="matrix(-6.0E-4, 0.0, 0.0, 6.0E-4, 24.55, 8.75)" gradientUnits="userSpaceOnUse" id="gradient19" spreadMethod="pad" x1="-819.2" x2="819.2">
      <stop offset="0.0" stop-color="#ffe99e"/>
      <stop offset="1.0" stop-color="#c9b054"/>
    </linearGradient>
    <linearGradient gradientTransform="matrix(-7.0E-4, 0.0, 0.0, 7.0E-4, 24.15, 9.05)" gradientUnits="userSpaceOnUse" id="gradient20" spreadMethod="pad" x1="-819.2" x2="819.2">
      <stop offset="0.0" stop-color="#ffe99e"/>
      <stop offset="1.0" stop-color="#c9b054"/>
    </linearGradient>
    <linearGradient gradientTransform="matrix(-9.0E-4, 0.0, 0.0, 9.0E-4, 25.95, 9.15)" gradientUnits="userSpaceOnUse" id="gradient21" spreadMethod="pad" x1="-819.2" x2="819.2">
      <stop offset="0.0" stop-color="#ffe99e"/>
      <stop offset="1.0" stop-color="#c9b054"/>
    </linearGradient>
    <linearGradient gradientTransform="matrix(-7.0E-4, 0.0, 0.0, 7.0E-4, 26.65, 9.35)" gradientUnits="userSpaceOnUse" id="gradient22" spreadMethod="pad" x1="-819.2" x2="819.2">
      <stop offset="0.0" stop-color="#ffe99e"/>
      <stop offset="1.0" stop-color="#c9b054"/>
    </linearGradient>
    <linearGradient gradientTransform="matrix(-7.0E-4, 0.0, 0.0, 7.0E-4, 24.9, 9.6)" gradientUnits="userSpaceOnUse" id="gradient23" spreadMethod="pad" x1="-819.2" x2="819.2">
      <stop offset="0.0" stop-color="#ffe99e"/>
      <stop offset="1.0" stop-color="#c9b054"/>
    </linearGradient>
    <linearGradient gradientTransform="matrix(-6.0E-4, 0.0, 0.0, 6.0E-4, 27.35, 8.95)" gradientUnits="userSpaceOnUse" id="gradient24" spreadMethod="pad" x1="-819.2" x2="819.2">
      <stop offset="0.0" stop-color="#ffe99e"/>
      <stop offset="1.0" stop-color="#c9b054"/>
    </linearGradient>
    <g id="sprite12" transform="matrix(1.0, 0.0, 0.0, 1.0, 0.0, 0.0)">
      <use height="37.85" transform="matrix(1.0, 0.0, 0.0, 1.0, 0.0, 0.0)" width="28.4" xlink:href="#shape16"/>
    </g>
    <g id="shape16" transform="matrix(1.0, 0.0, 0.0, 1.0, 0.0, 0.0)">
      <path d="M20.5 10.95 Q20.6 10.8 21.25 10.55 22.6 9.8 23.05 10.05 23.65 10.4 23.8 12.5 23.95 14.2 23.7 15.95 L24.25 15.55 24.15 15.55 25.2 15.15 26.6 14.75 Q27.8 14.2 28.25 17.1 28.7 20.05 27.7 22.75 26.9 24.8 25.7 26.05 L24.55 27.25 Q24.9 27.0 25.55 26.9 27.5 26.65 28.15 27.4 28.95 28.35 27.3 30.7 25.55 33.1 22.1 34.0 19.6 34.65 19.95 35.15 L20.7 36.7 Q20.65 37.15 19.75 37.35 L15.9 37.85 12.9 37.8 7.65 37.3 Q6.8 37.1 6.9 36.5 L7.7 34.95 Q8.0 34.5 5.7 33.7 2.6 32.6 1.05 30.2 -0.15 28.45 0.05 27.4 0.1 26.45 1.15 26.15 2.2 25.85 2.95 26.7 L3.3 27.3 Q3.35 27.5 3.5 27.45 L3.6 27.35 Q3.65 27.05 2.65 26.0 1.35 24.65 0.65 22.6 0.0 20.6 0.1 18.3 0.05 16.3 0.7 15.0 1.4 13.7 2.15 14.25 2.85 14.75 3.15 15.7 3.35 16.35 3.95 16.25 L4.25 16.15 Q4.05 14.5 4.15 12.9 4.3 11.4 4.75 10.75 5.2 9.75 5.8 9.65 6.45 9.55 6.9 10.65 7.35 11.6 7.75 11.75 L7.75 11.55 Q7.6 10.6 7.75 9.8 7.9 8.9 8.3 8.65 L8.35 8.6 Q8.5 7.85 9.15 7.5 9.4 7.35 9.6 7.7 L10.0 8.25 Q10.3 6.05 10.1 1.4 L10.55 0.75 11.1 0.0 16.9 0.0 Q16.8 2.05 16.85 4.15 16.9 8.3 17.45 8.45 18.1 8.6 18.55 8.1 18.95 7.6 19.25 7.8 20.2 8.4 19.9 10.9 L19.9 11.4 20.5 10.95" fill="url(#gradient25)" fill-rule="evenodd" stroke="none"/>
    </g>
    <linearGradient gradientTransform="matrix(0.0026, 0.0228, 0.0228, -0.0026, 13.6, 17.7)" gradientUnits="userSpaceOnUse" id="gradient25" spreadMethod="pad" x1="-819.2" x2="819.2">
      <stop offset="0.011764705882352941" stop-color="#c46900"/>
      <stop offset="1.0" stop-color="#522302"/>
    </linearGradient>
    <g id="sprite13" transform="matrix(1.0, 0.0, 0.0, 1.0, 0.0, 0.0)">
      <use height="36.45" transform="matrix(1.0, 0.0, 0.0, 1.0, 0.0, 0.0)" width="25.8" xlink:href="#shape17"/>
    </g>
    <g id="shape17" transform="matrix(1.0, 0.0, 0.0, 1.0, 0.0, 0.0)">
      <path d="M20.75 9.65 Q21.45 9.95 21.6 12.0 L21.5 15.1 Q21.45 16.05 22.2 16.2 22.75 16.3 23.05 15.6 23.5 14.65 24.15 14.2 25.15 13.5 25.6 16.4 26.05 19.35 25.1 21.9 24.4 23.95 23.15 25.2 22.15 26.2 22.2 26.5 22.3 27.3 22.7 27.25 L23.65 26.45 Q24.8 25.15 25.55 26.2 26.3 27.25 24.75 29.5 23.2 31.8 20.1 32.75 17.8 33.4 18.1 33.85 L18.9 35.45 Q18.95 36.05 18.15 36.2 L12.9 36.35 7.65 35.9 Q6.8 35.65 6.9 35.1 6.95 34.65 7.7 33.55 8.0 33.1 5.7 32.3 2.6 31.2 1.05 28.8 -0.55 26.4 0.25 25.4 1.0 24.4 2.15 25.8 3.4 27.4 3.6 25.9 L2.65 24.6 Q1.35 23.25 0.65 21.15 -0.25 18.5 0.2 15.6 0.65 12.7 1.65 13.5 2.25 13.95 2.7 15.0 3.05 15.75 3.6 15.65 4.35 15.55 4.25 14.55 L4.15 11.45 Q4.35 9.4 5.05 9.15 5.7 8.9 6.25 10.25 6.8 11.5 7.35 11.35 7.85 11.2 7.75 10.15 7.6 9.2 7.75 8.35 7.9 7.45 8.3 7.2 8.55 7.05 8.75 7.55 9.0 8.15 9.6 8.0 10.45 7.8 10.1 0.0 L15.35 0.0 Q15.25 2.0 15.3 4.0 15.3 8.0 15.85 8.1 16.45 8.3 16.85 7.8 17.2 7.35 17.45 7.5 18.35 8.1 18.05 10.45 17.95 11.5 18.45 11.7 19.0 11.9 19.5 10.65 20.05 9.35 20.75 9.65" fill="#edcc56" fill-rule="evenodd" stroke="none"/>
    </g>
    <g id="sprite14" transform="matrix(1.0, 0.0, 0.0, 1.0, 0.0, 0.0)">
      <use height="36.45" transform="matrix(1.0, 0.0, 0.0, 1.0, 0.0, 0.0)" width="25.8" xlink:href="#shape18"/>
    </g>
    <g id="shape18" transform="matrix(1.0, 0.0, 0.0, 1.0, 0.0, 0.0)">
      <path d="M20.75 9.65 Q21.45 10.0 21.6 12.05 L21.5 15.15 Q21.45 16.1 22.2 16.25 22.75 16.35 23.05 15.65 23.5 14.65 24.15 14.2 25.15 13.5 25.6 16.4 26.05 19.4 25.1 21.95 24.4 24.0 23.15 25.25 L22.2 26.5 Q22.3 27.35 22.7 27.3 L23.65 26.5 Q24.8 25.15 25.55 26.2 26.3 27.25 24.75 29.55 23.2 31.85 20.1 32.75 17.8 33.4 18.1 33.9 L18.9 35.5 Q18.95 36.1 18.15 36.25 L12.9 36.4 7.65 35.9 Q6.8 35.7 6.9 35.1 L7.7 33.55 Q8.0 33.1 5.7 32.3 2.6 31.2 1.05 28.8 -0.55 26.4 0.25 25.4 1.0 24.45 2.15 25.85 3.4 27.45 3.6 25.95 3.65 25.65 2.65 24.6 1.35 23.25 0.65 21.2 -0.25 18.55 0.2 15.65 0.65 12.75 1.65 13.5 2.25 13.95 2.7 15.0 3.05 15.75 3.6 15.65 4.35 15.55 4.25 14.6 L4.15 11.5 Q4.35 9.45 5.05 9.15 5.7 8.9 6.25 10.25 6.8 11.55 7.35 11.35 7.9 11.2 7.75 10.15 7.6 9.2 7.75 8.4 7.9 7.5 8.3 7.25 8.55 7.1 8.75 7.6 9.0 8.15 9.6 8.0 10.45 7.85 10.1 0.0 L15.35 0.0 Q15.25 2.0 15.3 4.0 15.3 8.0 15.85 8.15 16.45 8.3 16.85 7.8 17.25 7.35 17.5 7.5 18.35 8.1 18.05 10.5 17.95 11.5 18.45 11.7 19.0 11.95 19.5 10.7 20.05 9.35 20.75 9.65" fill="url(#gradient26)" fill-rule="evenodd" stroke="none"/>
    </g>
    <radialGradient cx="0" cy="0" gradientTransform="matrix(0.0279, 0.0, 0.0, -0.0279, 12.5, 23.35)" gradientUnits="userSpaceOnUse" id="gradient26" r="819.2" spreadMethod="pad">
      <stop offset="0.011764705882352941" stop-color="#cc861c"/>
      <stop offset="1.0" stop-color="#662500"/>
    </radialGradient>
    <g id="sprite15" transform="matrix(1.0, 0.0, 0.0, 1.0, -0.05, 0.0)">
      <use height="1.5" transform="matrix(1.0543, 0.0, 0.0, 1.0, 0.05, 0.0)" width="12.9" xlink:href="#shape19"/>
    </g>
    <g id="shape19" transform="matrix(1.0, 0.0, 0.0, 1.0, 0.0, 0.0)">
      <path d="M0.15 0.9 Q-0.25 0.75 0.3 0.55 L2.25 0.2 8.4 0.05 12.9 0.45 Q12.5 1.1 9.55 1.4 L4.8 1.45 0.15 0.9" fill="#42210b" fill-rule="evenodd" stroke="none"/>
    </g>
    <g id="sprite16" transform="matrix(1.0, 0.0, 0.0, 1.0, 0.0, 0.0)">
      <use height="17.25" transform="matrix(1.0, 0.0, 0.0, 1.0, 0.0, 0.0)" width="13.55" xlink:href="#shape5"/>
    </g>
    <g id="sprite17" transform="matrix(1.0, 0.0, 0.0, 1.0, 0.0, 0.0)">
      <use height="17.25" transform="matrix(1.0, 0.0, 0.0, 1.0, 0.0, 0.0)" width="13.55" xlink:href="#shape6"/>
    </g>
    <g id="shape20" transform="matrix(1.0, 0.0, 0.0, 1.0, -9.2, -30.7)">
      <path d="M14.55 30.7 Q17.3 30.75 18.8 33.3 20.05 35.4 20.05 38.15 20.05 41.3 19.35 42.5 18.25 44.55 14.75 44.5 11.55 44.45 10.3 42.85 9.2 41.45 9.2 38.3 9.2 35.2 10.65 33.0 12.15 30.65 14.55 30.7" fill="url(#gradient27)" fill-rule="evenodd" stroke="none"/>
      <path d="M10.85 43.4 L14.5 43.05 Q17.05 43.05 18.4 43.6 17.25 44.5 14.75 44.5 12.15 44.45 10.85 43.4" fill="#bbc737" fill-rule="evenodd" stroke="none"/>
    </g>
    <radialGradient cx="0" cy="0" gradientTransform="matrix(0.0136, 0.0, 0.0, -0.0136, 13.7, 33.9)" gradientUnits="userSpaceOnUse" id="gradient27" r="819.2" spreadMethod="pad">
      <stop offset="0.0" stop-color="#9dd950"/>
      <stop offset="1.0" stop-color="#66912c"/>
    </radialGradient>
    <g id="sprite18" transform="matrix(1.0, 0.0, 0.0, 1.0, 0.0, 0.0)">
      <use height="34.5" transform="matrix(1.0, 0.0, 0.0, 1.0, 0.0, 0.0)" width="23.35" xlink:href="#shape21"/>
    </g>
    <g id="shape21" transform="matrix(1.0, 0.0, 0.0, 1.0, 0.0, 0.0)">
      <path d="M22.75 21.8 Q22.05 23.6 20.95 24.7 L20.05 25.8 Q19.95 26.55 20.5 26.95 21.05 27.3 21.55 26.7 22.6 25.55 23.15 26.05 23.7 26.55 22.3 28.55 20.85 30.55 18.05 31.3 16.0 31.8 16.25 32.25 L16.95 33.7 Q17.0 34.2 16.25 34.35 14.8 34.65 11.55 34.4 L6.85 33.9 Q6.1 33.65 6.2 33.15 L6.9 31.8 Q7.2 31.4 5.2 30.65 2.4 29.65 1.05 27.5 -0.35 25.35 0.1 25.0 0.55 24.65 1.7 25.8 2.4 26.45 3.2 26.05 4.0 25.6 3.75 24.75 L2.6 23.7 Q1.5 22.65 0.85 20.7 0.05 18.3 0.35 15.85 0.6 13.4 1.5 14.1 L2.8 15.35 Q3.35 15.9 3.9 15.85 4.5 15.75 4.35 14.95 4.05 13.3 4.15 12.2 4.3 10.35 4.85 10.1 5.4 9.85 5.85 11.1 6.25 12.25 6.85 12.1 7.45 11.95 7.35 11.05 7.15 8.95 7.9 8.5 8.15 8.35 8.35 8.8 8.55 9.3 9.05 9.2 10.05 9.0 10.05 0.0 L10.6 0.2 12.25 0.45 13.75 0.55 13.8 4.85 Q13.95 9.15 14.65 9.4 15.15 9.6 15.55 9.15 15.9 8.75 16.1 8.9 16.9 9.4 16.6 11.55 16.5 12.45 16.95 12.6 17.4 12.8 17.9 11.7 18.4 10.55 19.0 10.85 19.65 11.15 19.75 12.95 L19.6 15.7 Q19.55 16.55 20.2 16.7 20.7 16.8 21.0 16.2 21.45 15.25 22.0 14.9 22.9 14.3 23.25 16.9 23.6 19.5 22.75 21.8" fill="url(#gradient28)" fill-rule="evenodd" stroke="none"/>
    </g>
    <linearGradient gradientTransform="matrix(-3.0E-4, 0.0223, 0.0223, 3.0E-4, 11.9, 2.2)" gradientUnits="userSpaceOnUse" id="gradient28" spreadMethod="pad" x1="-819.2" x2="819.2">
      <stop offset="0.011764705882352941" stop-color="#ffffff"/>
      <stop offset="1.0" stop-color="#000000"/>
    </linearGradient>
    <g id="shape22" transform="matrix(1.0, 0.0, 0.0, 1.0, -10.35, -16.55)">
      <path d="M15.0 33.05 L15.95 33.7 16.55 34.9 17.95 34.9 19.5 34.8 19.65 35.2 19.95 36.45 20.05 38.75 Q19.15 39.0 15.55 37.45 13.15 36.4 11.5 34.9 L10.35 33.55 10.75 32.95 11.45 33.55 Q12.5 34.2 14.15 34.5 L15.7 34.8 Q15.7 34.0 14.95 33.3 L14.55 32.9 15.0 33.05" fill="#6d8c43" fill-rule="evenodd" stroke="none"/>
      <path d="M12.15 34.25 L11.5 34.9 11.35 34.75 Q11.75 34.05 12.15 33.9 L12.4 34.0 12.15 34.25 M10.75 32.95 L10.95 33.2 11.7 33.7 11.1 34.45 10.35 33.55 10.75 32.95 M15.1 35.25 L14.8 35.7 14.35 36.85 13.5 36.4 14.1 35.0 13.75 35.2 13.0 36.1 12.2 35.5 12.75 34.55 12.5 34.65 11.9 35.2 11.55 34.95 12.75 34.15 13.45 34.35 12.95 34.8 12.75 35.45 13.15 35.05 Q13.6 34.65 14.1 34.5 L14.15 34.5 14.7 34.6 14.35 35.1 14.05 36.1 14.35 35.55 Q14.8 34.95 15.35 34.7 L15.7 34.8 15.65 34.6 16.35 34.45 16.55 34.9 16.95 34.9 16.4 36.15 16.3 37.05 16.55 36.2 Q16.95 35.2 17.55 34.9 L18.25 34.9 Q18.0 35.2 17.9 35.6 17.7 36.25 17.8 37.05 18.1 35.6 18.9 34.85 L19.5 34.8 19.65 35.25 19.4 36.6 19.4 38.0 Q19.45 37.05 19.9 36.2 L19.95 36.45 20.05 38.75 19.8 38.75 19.95 37.6 19.3 38.7 19.15 38.65 19.15 36.5 18.8 38.6 18.75 38.6 18.75 35.95 18.15 38.4 17.4 38.2 17.4 35.65 16.65 37.9 15.95 37.6 16.05 35.95 15.75 36.4 15.35 37.4 14.75 37.05 15.1 35.25 M15.15 33.45 L14.95 33.3 14.55 32.9 Q14.95 32.9 15.55 33.35 L15.15 33.45 M15.8 33.6 L15.95 33.7 16.2 34.2 15.6 34.35 15.3 33.7 15.8 33.6" fill="#c5eba9" fill-rule="evenodd" stroke="none"/>
      <path d="M14.6 37.75 L16.25 41.15 Q16.9 42.4 16.35 43.4 15.75 44.5 14.3 44.2 13.15 44.0 12.95 42.65 12.7 41.4 13.35 40.4 L14.25 38.75 14.6 37.75" fill="#fcee21" fill-rule="evenodd" stroke="none"/>
      <path d="M14.45 39.05 L14.3 39.55 14.1 40.9 14.2 42.0 14.15 42.75 13.45 42.9 Q13.15 42.65 13.15 42.25 L13.55 40.8 14.45 39.05" fill="#ffffff" fill-rule="evenodd" stroke="none"/>
      <path d="M15.55 40.8 L16.1 41.6 Q16.55 42.6 16.15 43.3 15.55 44.4 14.4 43.85 15.05 44.0 15.6 43.35 16.15 42.8 15.9 41.75 L15.55 40.8" fill="#dbc037" fill-rule="evenodd" stroke="none"/>
      <path d="M14.0 32.5 Q13.8 32.05 13.95 31.55 L14.15 31.1 14.65 31.45 Q15.15 31.9 15.15 32.3 15.1 32.75 14.65 32.85 14.2 32.95 14.0 32.5" fill="#518c27" fill-rule="evenodd" stroke="none"/>
      <path d="M14.35 32.8 Q13.9 33.65 13.1 32.95 L12.35 32.05 12.6 31.95 13.45 31.8 Q14.0 31.75 14.3 32.15 14.55 32.45 14.35 32.8" fill="#62a82f" fill-rule="evenodd" stroke="none"/>
      <path d="M18.3 18.8 L15.95 19.25 13.15 19.1 Q11.95 18.85 11.6 18.15 11.35 17.4 12.2 17.0 13.1 16.65 14.55 16.6 L17.35 16.7 Q18.55 16.95 18.9 17.65 19.15 18.4 18.3 18.8" fill="url(#gradient29)" fill-rule="evenodd" stroke="none"/>
    </g>
    <linearGradient gradientTransform="matrix(0.0045, 1.0E-4, 1.0E-4, -0.0046, 15.25, 17.9)" gradientUnits="userSpaceOnUse" id="gradient29" spreadMethod="pad" x1="-819.2" x2="819.2">
      <stop offset="0.011764705882352941" stop-color="#cc861c"/>
      <stop offset="1.0" stop-color="#662500"/>
    </linearGradient>
    <g id="sprite19" transform="matrix(1.0, 0.0, 0.0, 1.0, 0.05, -0.05)">
      <use height="3.6" transform="matrix(1.0054, 0.0, 0.0, 1.0, -0.05, 0.05)" width="9.45" xlink:href="#shape23"/>
    </g>
    <g id="shape23" transform="matrix(1.0, 0.0, 0.0, 1.0, 0.0, -0.05)">
      <path d="M8.5 2.95 L5.55 3.55 2.1 3.35 Q0.55 3.05 0.2 2.15 -0.2 1.25 0.9 0.75 2.0 0.3 3.85 0.2 L7.3 0.35 Q8.85 0.65 9.25 1.55 9.6 2.45 8.5 2.95 Z" fill="none" stroke="#edcc56" stroke-linecap="butt" stroke-linejoin="miter" stroke-width="0.25"/>
    </g>
    <g id="sprite20" transform="matrix(1.0, 0.0, 0.0, 1.0, 0.0, 0.0)">
      <use height="2.15" transform="matrix(1.0, 0.0, 0.0, 1.0, 0.0, 0.0)" width="1.95" xlink:href="#shape24"/>
    </g>
    <g id="shape24" transform="matrix(1.0, 0.0, 0.0, 1.0, 0.0, 0.0)">
      <path d="M1.0 0.05 L1.95 0.0 1.25 0.45 Q0.3 0.95 1.1 2.15 0.1 1.85 0.0 1.3 -0.1 0.0 1.0 0.05" fill="url(#gradient30)" fill-rule="evenodd" stroke="none"/>
    </g>
    <linearGradient gradientTransform="matrix(0.0, 0.0012, 0.0012, 0.0, 1.0, 0.65)" gradientUnits="userSpaceOnUse" id="gradient30" spreadMethod="pad" x1="-819.2" x2="819.2">
      <stop offset="0.011764705882352941" stop-color="#ffffff"/>
      <stop offset="1.0" stop-color="#000000"/>
    </linearGradient>
    <g id="sprite21" transform="matrix(1.0, 0.0, 0.0, 1.0, 0.0, 0.0)">
      <use height="2.05" transform="matrix(1.0, 0.0, 0.0, 1.0244, 0.0, 0.0)" width="1.15" xlink:href="#shape12"/>
    </g>
    <g id="shape25" transform="matrix(1.0, 0.0, 0.0, 1.0, -12.0, -14.5)">
      <path d="M17.75 17.3 Q17.75 17.75 15.2 17.75 12.6 17.75 12.6 17.3 12.6 16.8 15.2 16.8 17.75 16.8 17.75 17.3" fill="url(#gradient31)" fill-rule="evenodd" stroke="none"/>
      <path d="M18.1 14.5 L17.65 17.4 15.2 17.75 12.75 17.4 12.5 16.7 12.0 14.5 18.1 14.5" fill="url(#gradient32)" fill-rule="evenodd" stroke="none"/>
    </g>
    <linearGradient gradientTransform="matrix(0.0031, 0.0, 0.0, -0.0031, 15.2, 17.25)" gradientUnits="userSpaceOnUse" id="gradient31" spreadMethod="pad" x1="-819.2" x2="819.2">
      <stop offset="0.011764705882352941" stop-color="#522304"/>
      <stop offset="1.0" stop-color="#a85202"/>
    </linearGradient>
    <linearGradient gradientTransform="matrix(0.0037, 0.0, 0.0, -0.0037, 15.05, 16.15)" gradientUnits="userSpaceOnUse" id="gradient32" spreadMethod="pad" x1="-819.2" x2="819.2">
      <stop offset="0.011764705882352941" stop-color="#ebd47d"/>
      <stop offset="0.32941176470588235" stop-color="#ffe99e"/>
      <stop offset="1.0" stop-color="#c9b054"/>
    </linearGradient>
    <g id="sprite22" transform="matrix(1.0, 0.0, 0.0, 1.0, 0.0, 0.0)">
      <use height="4.05" transform="matrix(1.0, 0.0, 0.0, 1.0, 0.0, 0.0)" width="3.5" xlink:href="#sprite23"/>
    </g>
    <g id="sprite23" transform="matrix(1.0, 0.0, 0.0, 1.0, 0.0, 0.0)">
      <use height="4.1" transform="matrix(1.0145, 0.0, 0.0, 0.9878, 0.0, 0.0)" width="3.45" xlink:href="#shape14"/>
    </g>
    <g id="shape26" transform="matrix(1.0, 0.0, 0.0, 1.0, -11.95, -13.8)">
      <path d="M18.1 14.45 Q18.1 14.7 17.2 14.9 L15.0 15.1 12.85 14.9 Q11.95 14.7 11.95 14.45 11.95 14.2 12.85 14.0 L15.0 13.8 17.2 14.0 Q18.1 14.2 18.1 14.45" fill="url(#gradient33)" fill-rule="evenodd" stroke="none"/>
      <path d="M12.75 15.4 L12.9 15.95 Q12.75 16.3 12.65 16.05 L12.55 15.55 Q12.55 15.2 12.75 15.4" fill="url(#gradient34)" fill-rule="evenodd" stroke="none"/>
      <path d="M13.2 16.2 L13.35 16.65 13.15 16.7 13.05 16.35 Q13.05 16.15 13.2 16.2" fill="url(#gradient35)" fill-rule="evenodd" stroke="none"/>
      <path d="M13.95 15.6 L13.95 16.0 13.75 15.95 13.8 15.6 Q13.9 15.4 13.95 15.6" fill="url(#gradient36)" fill-rule="evenodd" stroke="none"/>
      <path d="M15.4 16.1 L15.6 16.45 15.3 16.8 Q15.05 16.7 15.1 16.4 15.15 16.1 15.4 16.1" fill="url(#gradient37)" fill-rule="evenodd" stroke="none"/>
      <path d="M14.0 16.8 Q14.25 16.9 14.15 17.15 14.0 17.4 13.8 17.3 13.6 17.2 13.7 16.95 13.75 16.75 14.0 16.8" fill="url(#gradient38)" fill-rule="evenodd" stroke="none"/>
      <path d="M13.0 17.0 L13.05 17.3 12.9 17.35 12.85 17.15 13.0 17.0" fill="url(#gradient39)" fill-rule="evenodd" stroke="none"/>
      <path d="M15.05 17.25 L15.05 17.55 14.8 17.6 14.8 17.3 15.05 17.25" fill="url(#gradient40)" fill-rule="evenodd" stroke="none"/>
      <path d="M17.35 15.7 L17.25 16.15 17.0 16.1 17.15 15.7 Q17.35 15.5 17.35 15.7" fill="url(#gradient41)" fill-rule="evenodd" stroke="none"/>
      <path d="M17.35 16.85 L17.35 17.2 17.15 17.2 17.2 16.95 Q17.35 16.75 17.35 16.85" fill="url(#gradient42)" fill-rule="evenodd" stroke="none"/>
      <path d="M13.4 14.5 L13.55 14.6 13.2 14.65 Q13.0 14.65 13.15 14.55 L13.4 14.5" fill="url(#gradient43)" fill-rule="evenodd" stroke="none"/>
      <path d="M14.5 13.95 Q14.8 13.95 14.7 14.05 L14.35 14.15 14.2 14.05 Q14.3 13.95 14.5 13.95" fill="url(#gradient44)" fill-rule="evenodd" stroke="none"/>
      <path d="M14.15 14.2 Q14.75 14.3 13.95 14.5 13.75 14.45 13.9 14.35 L14.15 14.2" fill="url(#gradient45)" fill-rule="evenodd" stroke="none"/>
      <path d="M15.95 14.3 L16.15 14.45 15.7 14.6 Q15.5 14.55 15.65 14.4 L15.95 14.3" fill="url(#gradient46)" fill-rule="evenodd" stroke="none"/>
      <path d="M16.75 14.55 Q17.05 14.6 16.75 14.7 L16.35 14.7 Q16.2 14.6 16.35 14.6 L16.75 14.55" fill="url(#gradient47)" fill-rule="evenodd" stroke="none"/>
      <path d="M14.95 14.8 L15.05 14.9 14.65 15.0 Q14.2 14.9 14.95 14.8" fill="url(#gradient48)" fill-rule="evenodd" stroke="none"/>
      <path d="M15.85 13.95 Q16.2 14.0 15.6 14.05 L15.6 13.95 15.85 13.95" fill="url(#gradient49)" fill-rule="evenodd" stroke="none"/>
      <path d="M17.35 14.15 Q17.8 14.2 17.15 14.35 L17.1 14.2 17.35 14.15" fill="url(#gradient50)" fill-rule="evenodd" stroke="none"/>
    </g>
    <linearGradient gradientTransform="matrix(-0.0046, 0.0011, 0.0011, 0.0046, 14.55, 14.55)" gradientUnits="userSpaceOnUse" id="gradient33" spreadMethod="pad" x1="-819.2" x2="819.2">
      <stop offset="0.0" stop-color="#ffe99e"/>
      <stop offset="1.0" stop-color="#c9b054"/>
    </linearGradient>
    <linearGradient gradientTransform="matrix(-1.0E-4, -6.0E-4, -6.0E-4, 1.0E-4, 12.75, 15.8)" gradientUnits="userSpaceOnUse" id="gradient34" spreadMethod="pad" x1="-819.2" x2="819.2">
      <stop offset="0.0" stop-color="#ffe99e"/>
      <stop offset="1.0" stop-color="#c9b054"/>
    </linearGradient>
    <linearGradient gradientTransform="matrix(0.0, -4.0E-4, -4.0E-4, 0.0, 13.2, 16.55)" gradientUnits="userSpaceOnUse" id="gradient35" spreadMethod="pad" x1="-819.2" x2="819.2">
      <stop offset="0.0" stop-color="#ffe99e"/>
      <stop offset="1.0" stop-color="#c9b054"/>
    </linearGradient>
    <linearGradient gradientTransform="matrix(0.0, -4.0E-4, -4.0E-4, 0.0, 13.85, 15.8)" gradientUnits="userSpaceOnUse" id="gradient36" spreadMethod="pad" x1="-819.2" x2="819.2">
      <stop offset="0.0" stop-color="#ffe99e"/>
      <stop offset="1.0" stop-color="#c9b054"/>
    </linearGradient>
    <linearGradient gradientTransform="matrix(0.0, -5.0E-4, -5.0E-4, 0.0, 15.35, 16.5)" gradientUnits="userSpaceOnUse" id="gradient37" spreadMethod="pad" x1="-819.2" x2="819.2">
      <stop offset="0.0" stop-color="#ffe99e"/>
      <stop offset="1.0" stop-color="#c9b054"/>
    </linearGradient>
    <linearGradient gradientTransform="matrix(0.0, -4.0E-4, -4.0E-4, 0.0, 13.95, 17.1)" gradientUnits="userSpaceOnUse" id="gradient38" spreadMethod="pad" x1="-819.2" x2="819.2">
      <stop offset="0.0" stop-color="#ffe99e"/>
      <stop offset="1.0" stop-color="#c9b054"/>
    </linearGradient>
    <linearGradient gradientTransform="matrix(0.0, -3.0E-4, -3.0E-4, 0.0, 12.95, 17.2)" gradientUnits="userSpaceOnUse" id="gradient39" spreadMethod="pad" x1="-819.2" x2="819.2">
      <stop offset="0.0" stop-color="#ffe99e"/>
      <stop offset="1.0" stop-color="#c9b054"/>
    </linearGradient>
    <linearGradient gradientTransform="matrix(0.0, -3.0E-4, -3.0E-4, 0.0, 14.95, 17.4)" gradientUnits="userSpaceOnUse" id="gradient40" spreadMethod="pad" x1="-819.2" x2="819.2">
      <stop offset="0.0" stop-color="#ffe99e"/>
      <stop offset="1.0" stop-color="#c9b054"/>
    </linearGradient>
    <linearGradient gradientTransform="matrix(0.0, -4.0E-4, -4.0E-4, 0.0, 17.2, 16.0)" gradientUnits="userSpaceOnUse" id="gradient41" spreadMethod="pad" x1="-819.2" x2="819.2">
      <stop offset="0.0" stop-color="#ffe99e"/>
      <stop offset="1.0" stop-color="#c9b054"/>
    </linearGradient>
    <linearGradient gradientTransform="matrix(0.0, -3.0E-4, -3.0E-4, 0.0, 17.2, 17.05)" gradientUnits="userSpaceOnUse" id="gradient42" spreadMethod="pad" x1="-819.2" x2="819.2">
      <stop offset="0.0" stop-color="#ffe99e"/>
      <stop offset="1.0" stop-color="#c9b054"/>
    </linearGradient>
    <linearGradient gradientTransform="matrix(-6.0E-4, 0.0, 0.0, 6.0E-4, 13.2, 14.6)" gradientUnits="userSpaceOnUse" id="gradient43" spreadMethod="pad" x1="-819.2" x2="819.2">
      <stop offset="0.0" stop-color="#ffe99e"/>
      <stop offset="1.0" stop-color="#c9b054"/>
    </linearGradient>
    <linearGradient gradientTransform="matrix(-6.0E-4, 0.0, 0.0, 6.0E-4, 14.35, 14.05)" gradientUnits="userSpaceOnUse" id="gradient44" spreadMethod="pad" x1="-819.2" x2="819.2">
      <stop offset="0.0" stop-color="#ffe99e"/>
      <stop offset="1.0" stop-color="#c9b054"/>
    </linearGradient>
    <linearGradient gradientTransform="matrix(-7.0E-4, 0.0, 0.0, 7.0E-4, 14.0, 14.35)" gradientUnits="userSpaceOnUse" id="gradient45" spreadMethod="pad" x1="-819.2" x2="819.2">
      <stop offset="0.0" stop-color="#ffe99e"/>
      <stop offset="1.0" stop-color="#c9b054"/>
    </linearGradient>
    <linearGradient gradientTransform="matrix(-9.0E-4, 0.0, 0.0, 9.0E-4, 15.75, 14.4)" gradientUnits="userSpaceOnUse" id="gradient46" spreadMethod="pad" x1="-819.2" x2="819.2">
      <stop offset="0.0" stop-color="#ffe99e"/>
      <stop offset="1.0" stop-color="#c9b054"/>
    </linearGradient>
    <linearGradient gradientTransform="matrix(-7.0E-4, 0.0, 0.0, 7.0E-4, 16.45, 14.6)" gradientUnits="userSpaceOnUse" id="gradient47" spreadMethod="pad" x1="-819.2" x2="819.2">
      <stop offset="0.0" stop-color="#ffe99e"/>
      <stop offset="1.0" stop-color="#c9b054"/>
    </linearGradient>
    <linearGradient gradientTransform="matrix(-7.0E-4, 0.0, 0.0, 7.0E-4, 14.75, 14.9)" gradientUnits="userSpaceOnUse" id="gradient48" spreadMethod="pad" x1="-819.2" x2="819.2">
      <stop offset="0.0" stop-color="#ffe99e"/>
      <stop offset="1.0" stop-color="#c9b054"/>
    </linearGradient>
    <linearGradient gradientTransform="matrix(-5.0E-4, 0.0, 0.0, 5.0E-4, 15.7, 14.0)" gradientUnits="userSpaceOnUse" id="gradient49" spreadMethod="pad" x1="-819.2" x2="819.2">
      <stop offset="0.0" stop-color="#ffe99e"/>
      <stop offset="1.0" stop-color="#c9b054"/>
    </linearGradient>
    <linearGradient gradientTransform="matrix(-6.0E-4, 0.0, 0.0, 6.0E-4, 17.2, 14.25)" gradientUnits="userSpaceOnUse" id="gradient50" spreadMethod="pad" x1="-819.2" x2="819.2">
      <stop offset="0.0" stop-color="#ffe99e"/>
      <stop offset="1.0" stop-color="#c9b054"/>
    </linearGradient>
  </defs>
</svg>
