<?xml version="1.0" encoding="UTF-8" standalone="no"?>
<svg xmlns:xlink="http://www.w3.org/1999/xlink" height="48.1px" width="42.0px" xmlns="http://www.w3.org/2000/svg">
  <g transform="matrix(1.0, 0.0, 0.0, 1.0, 0.0, 0.0)">
    <use height="28.0" transform="matrix(1.0, 0.0, 0.0, 1.0, 0.05, 11.5)" width="21.1" xlink:href="#shape0"/>
    <use height="34.3" transform="matrix(0.8, 0.0, 0.0, 0.8, 0.3, 11.8)" width="25.75" xlink:href="#sprite0"/>
    <use height="33.05" transform="matrix(0.8, 0.0, 0.0, 0.8, 0.46, 12.65)" width="23.45" xlink:href="#sprite1"/>
    <use height="33.05" transform="matrix(0.8, 0.0, 0.0, 0.8, 0.26, 12.8)" width="23.4" xlink:href="#sprite2"/>
    <use height="1.35" transform="matrix(0.8, 0.0, 0.0, 0.8, 5.44, 38.2)" width="12.3" xlink:href="#sprite3"/>
    <use height="15.65" transform="matrix(0.8, 0.0, 0.0, 0.8, 4.3, 23.35)" width="12.3" xlink:href="#sprite4"/>
    <use height="15.65" transform="matrix(0.8, 0.0, 0.0, 0.8, 4.9, 23.9)" width="12.3" xlink:href="#sprite5"/>
    <use height="12.55" transform="matrix(1.0, 0.0, 0.0, 1.0, 4.55, 23.7)" width="9.8" xlink:href="#shape7"/>
    <use height="31.25" transform="matrix(0.8, 0.0, 0.0, 0.8, 0.9, 13.75)" width="21.2" xlink:href="#sprite6"/>
    <use height="25.15" transform="matrix(1.0, 0.0, 0.0, 1.0, 5.55, 10.85)" width="8.8" xlink:href="#shape9"/>
    <use height="3.35" transform="matrix(0.8, 0.0, 0.0, 0.8, 6.55, 10.75)" width="8.6" xlink:href="#sprite7"/>
    <use height="1.9" transform="matrix(0.8, 0.0, 0.0, 0.8, 7.2, 11.64)" width="1.8" xlink:href="#sprite8"/>
    <use height="1.9" transform="matrix(0.8, 0.0, 0.0, 0.8, 11.9, 11.45)" width="1.05" xlink:href="#sprite9"/>
    <use height="2.95" transform="matrix(1.0, 0.0, 0.0, 1.0, 7.1, 9.0)" width="5.45" xlink:href="#shape13"/>
    <use height="3.7" transform="matrix(0.8, 0.0, 0.0, 0.8, 10.1, 9.0)" width="3.1" xlink:href="#sprite10"/>
    <use height="34.4" transform="matrix(1.0, 0.0, 0.0, 1.0, 7.05, 8.4)" width="34.95" xlink:href="#shape15"/>
    <use height="37.9" transform="matrix(0.8, 0.0, 0.0, 0.8, 19.0, 12.2)" width="28.4" xlink:href="#sprite12"/>
    <use height="36.4" transform="matrix(0.8, 0.0, 0.0, 0.8, 19.21, 13.2)" width="25.85" xlink:href="#sprite13"/>
    <use height="36.45" transform="matrix(0.8, 0.0, 0.0, 0.8, 18.96, 13.35)" width="25.85" xlink:href="#sprite14"/>
    <use height="1.5" transform="matrix(0.8, 0.0, 0.0, 0.8, 24.65, 41.35)" width="13.6" xlink:href="#sprite15"/>
    <use height="17.25" transform="matrix(0.8, 0.0, 0.0, 0.8, 23.35, 25.05)" width="13.6" xlink:href="#sprite16"/>
    <use height="17.25" transform="matrix(0.8, 0.0, 0.0, 0.8, 24.1, 25.6)" width="13.55" xlink:href="#sprite17"/>
    <use height="13.8" transform="matrix(1.0, 0.0, 0.0, 1.0, 23.7, 25.4)" width="10.85" xlink:href="#shape19"/>
    <use height="34.45" transform="matrix(0.8, 0.0, 0.0, 0.8, 19.7, 14.4)" width="23.35" xlink:href="#sprite18"/>
    <use height="27.75" transform="matrix(1.0, 0.0, 0.0, 1.0, 24.8, 11.25)" width="9.75" xlink:href="#shape21"/>
    <use height="3.6" transform="matrix(0.8, 0.0, 0.0, 0.8, 25.9, 11.19)" width="9.5" xlink:href="#sprite19"/>
    <use height="2.15" transform="matrix(0.8, 0.0, 0.0, 0.8, 26.6, 12.05)" width="2.0" xlink:href="#sprite20"/>
    <use height="2.1" transform="matrix(0.8, 0.0, 0.0, 0.8, 31.85, 11.85)" width="1.1" xlink:href="#sprite21"/>
    <use height="3.25" transform="matrix(1.0, 0.0, 0.0, 1.0, 26.5, 9.2)" width="6.05" xlink:href="#shape24"/>
    <use height="4.05" transform="matrix(0.8, 0.0, 0.0, 0.8, 29.75, 9.2)" width="3.45" xlink:href="#sprite22"/>
    <use height="39.6" transform="matrix(1.0, 0.0, 0.0, 1.0, 8.55, 8.5)" width="24.0" xlink:href="#shape25"/>
    <use height="37.85" transform="matrix(0.8, 0.0, 0.0, 0.8, 8.85, 17.55)" width="28.4" xlink:href="#sprite24"/>
    <use height="36.45" transform="matrix(0.8, 0.0, 0.0, 0.8, 9.06, 18.5)" width="25.85" xlink:href="#sprite25"/>
    <use height="36.45" transform="matrix(0.8, 0.0, 0.0, 0.8, 8.81, 18.7)" width="25.85" xlink:href="#sprite26"/>
    <use height="1.5" transform="matrix(0.8, 0.0, 0.0, 0.8, 14.49, 46.7)" width="13.6" xlink:href="#sprite27"/>
    <use height="17.25" transform="matrix(0.8, 0.0, 0.0, 0.8, 13.2, 30.3)" width="13.55" xlink:href="#sprite28"/>
    <use height="17.25" transform="matrix(0.8, 0.0, 0.0, 0.8, 13.9, 30.9)" width="13.55" xlink:href="#sprite29"/>
    <use height="13.8" transform="matrix(1.0, 0.0, 0.0, 1.0, 13.55, 30.7)" width="10.8" xlink:href="#shape28"/>
    <use height="34.45" transform="matrix(0.8, 0.0, 0.0, 0.8, 9.5, 19.7)" width="23.35" xlink:href="#sprite30"/>
    <use height="27.75" transform="matrix(1.0, 0.0, 0.0, 1.0, 14.65, 16.5)" width="9.7" xlink:href="#shape30"/>
    <use height="3.65" transform="matrix(0.8, 0.0, 0.0, 0.8, 15.75, 16.45)" width="9.45" xlink:href="#sprite31"/>
    <use height="2.1" transform="matrix(0.8, 0.0, 0.0, 0.8, 16.45, 17.35)" width="1.95" xlink:href="#sprite32"/>
    <use height="2.05" transform="matrix(0.8, 0.0, 0.0, 0.8, 21.7, 17.15)" width="1.1" xlink:href="#sprite33"/>
    <use height="3.25" transform="matrix(1.0, 0.0, 0.0, 1.0, 16.35, 14.5)" width="6.0" xlink:href="#shape33"/>
    <use height="4.1" transform="matrix(0.8, 0.0, 0.0, 0.8, 19.6, 14.5)" width="3.45" xlink:href="#sprite34"/>
    <use height="3.8" transform="matrix(1.0, 0.0, 0.0, 1.0, 16.3, 13.8)" width="6.05" xlink:href="#shape34"/>
  </g>
  <defs>
    <g id="shape0" transform="matrix(1.0, 0.0, 0.0, 1.0, -0.05, -11.5)">
      <path d="M17.95 23.0 L17.8 23.1 17.5 23.35 Q17.7 22.1 17.55 20.85 17.45 19.3 17.0 19.1 16.7 18.9 15.75 19.45 L15.15 19.75 14.75 20.1 14.75 19.7 Q14.95 17.85 14.25 17.45 14.05 17.3 13.75 17.7 L12.95 17.9 Q12.55 17.8 12.55 14.8 L12.55 11.8 8.35 11.8 7.95 12.3 7.6 12.8 Q7.75 16.2 7.55 17.8 L7.25 17.35 Q7.15 17.1 6.95 17.25 6.5 17.5 6.35 18.0 L6.35 18.05 Q5.75 18.4 5.9 20.2 L5.95 20.3 Q5.65 20.2 5.3 19.5 4.95 18.7 4.55 18.8 4.1 18.85 3.75 19.6 3.35 20.1 3.35 21.15 L3.4 23.5 3.15 23.55 Q2.75 23.65 2.55 23.15 L1.85 22.1 Q1.3 21.75 0.8 22.7 0.35 23.6 0.35 25.05 0.3 26.7 0.75 28.15 1.3 29.7 2.2 30.65 L2.9 31.65 2.8 31.7 2.7 31.6 2.4 31.15 Q1.9 30.55 1.15 30.75 0.35 30.95 0.35 31.7 0.25 32.5 1.05 33.7 2.15 35.5 4.45 36.25 6.1 36.8 5.9 37.1 L5.3 38.3 Q5.25 38.7 5.85 38.9 L9.65 39.2 11.8 39.25 14.6 38.9 Q15.3 38.7 15.3 38.4 L14.75 37.3 Q14.55 36.95 16.35 36.5 18.8 35.8 20.1 34.05 21.35 32.35 20.75 31.65 20.25 31.1 18.85 31.3 L18.1 31.5 19.0 30.6 Q19.85 29.7 20.35 28.3 21.1 26.35 20.75 24.2 20.45 22.1 19.55 22.5 L18.65 22.8 17.95 23.0 M16.75 18.75 Q17.3 18.7 17.55 19.3 L17.85 20.85 17.9 21.55 17.8 22.75 19.45 22.25 19.8 22.15 Q20.45 22.2 20.8 23.2 21.15 24.0 21.15 25.4 21.15 27.1 20.65 28.4 20.05 29.95 19.0 31.0 L19.5 30.95 Q21.15 30.95 21.15 32.2 21.15 32.95 20.3 34.2 19.2 35.7 17.35 36.45 L15.1 37.1 14.95 37.1 15.0 37.15 15.5 38.4 Q15.5 39.0 14.7 39.15 L12.45 39.5 9.65 39.5 5.75 39.1 Q5.0 38.9 5.0 38.35 5.0 37.9 5.65 37.0 L5.65 36.95 5.35 36.8 4.1 36.4 Q1.9 35.5 0.8 33.85 0.05 32.6 0.05 31.8 L0.05 31.65 Q0.1 31.1 0.55 30.75 0.95 30.45 1.45 30.45 L1.7 30.45 Q1.0 29.65 0.55 28.25 0.1 26.95 0.1 25.4 L0.1 24.9 Q0.1 23.7 0.5 22.75 0.95 21.75 1.55 21.75 1.85 21.75 2.0 21.9 2.6 22.3 2.8 23.05 L3.0 23.3 3.15 23.3 3.0 21.85 3.05 21.1 Q3.15 19.9 3.55 19.45 3.95 18.5 4.55 18.5 5.15 18.5 5.55 19.4 L5.6 19.5 Q5.6 18.3 6.1 17.9 L6.15 17.9 Q6.3 17.3 6.8 17.0 L7.05 16.9 7.35 17.05 7.4 15.3 7.35 12.85 7.35 12.7 7.4 12.65 7.75 12.2 8.15 11.55 8.25 11.5 12.85 11.5 12.85 11.8 12.75 14.3 12.85 16.5 13.1 17.65 13.2 17.7 13.55 17.5 Q13.9 17.15 14.15 17.1 L14.4 17.2 Q15.05 17.65 15.05 19.0 L15.0 19.5 15.1 19.5 Q15.25 19.3 15.6 19.2 16.4 18.75 16.75 18.75" fill="#c7a040" fill-rule="evenodd" stroke="none"/>
    </g>
    <g id="sprite0" transform="matrix(1.0, 0.0, 0.0, 1.0, 0.0, 0.0)">
      <use height="34.3" transform="matrix(1.0, 0.0, 0.0, 1.0, 0.0, 0.0)" width="25.75" xlink:href="#shape1"/>
    </g>
    <g id="shape1" transform="matrix(1.0, 0.0, 0.0, 1.0, 0.0, 0.0)">
      <path d="M20.85 9.1 Q21.4 9.4 21.55 11.3 21.7 12.9 21.45 14.45 L21.85 14.15 22.0 14.05 22.8 13.75 24.05 13.35 Q25.15 12.85 25.55 15.5 25.95 18.2 25.05 20.65 24.35 22.45 23.25 23.6 L22.3 24.6 23.15 24.35 Q24.9 24.1 25.5 24.8 26.25 25.7 24.7 27.8 23.1 30.0 20.0 30.85 17.75 31.45 18.05 31.9 18.75 32.9 18.7 33.25 18.7 33.65 17.85 33.85 L14.35 34.3 11.65 34.25 6.9 33.85 Q6.15 33.6 6.2 33.1 6.25 32.65 6.95 31.65 7.2 31.25 5.15 30.55 2.3 29.6 0.9 27.4 -0.1 25.9 0.0 24.85 0.05 23.95 1.0 23.7 1.95 23.45 2.6 24.2 L2.95 24.75 3.1 24.9 3.2 24.8 2.35 23.55 Q1.2 22.35 0.55 20.45 -0.05 18.65 0.05 16.55 0.0 14.75 0.6 13.6 1.2 12.45 1.9 12.9 2.55 13.35 2.8 14.2 3.0 14.8 3.55 14.7 L3.85 14.65 Q3.65 13.1 3.75 11.7 3.8 10.35 4.3 9.75 4.7 8.8 5.25 8.75 5.8 8.65 6.2 9.65 6.65 10.5 7.0 10.65 L6.95 10.5 Q6.75 8.25 7.5 7.8 L7.55 7.75 Q7.7 7.15 8.25 6.8 8.5 6.65 8.65 6.95 L9.05 7.5 Q9.3 5.5 9.1 1.25 L9.55 0.65 10.05 0.0 15.3 0.0 Q15.2 1.85 15.25 3.75 15.25 7.5 15.8 7.65 16.4 7.8 16.8 7.35 17.15 6.9 17.4 7.05 18.3 7.55 18.0 9.85 L18.0 10.35 18.55 9.95 Q18.65 9.8 19.25 9.55 20.45 8.85 20.85 9.1" fill="url(#gradient0)" fill-rule="evenodd" stroke="none"/>
    </g>
    <linearGradient gradientTransform="matrix(0.0024, 0.0207, 0.0207, -0.0024, 12.3, 16.05)" gradientUnits="userSpaceOnUse" id="gradient0" spreadMethod="pad" x1="-819.2" x2="819.2">
      <stop offset="0.011764705882352941" stop-color="#c46900"/>
      <stop offset="1.0" stop-color="#522302"/>
    </linearGradient>
    <g id="sprite1" transform="matrix(1.0, 0.0, 0.0, 1.0, 0.05, 0.0)">
      <use height="33.05" transform="matrix(1.0, 0.0, 0.0, 1.0, -0.05, 0.0)" width="23.45" xlink:href="#shape2"/>
    </g>
    <g id="shape2" transform="matrix(1.0, 0.0, 0.0, 1.0, 0.05, 0.0)">
      <path d="M21.45 24.0 Q22.45 22.8 23.15 23.75 23.85 24.75 22.45 26.8 21.0 28.9 18.2 29.7 16.15 30.25 16.4 30.7 L17.1 32.2 Q17.2 32.7 16.45 32.85 L11.65 33.0 6.9 32.55 Q6.15 32.35 6.25 31.85 L6.95 30.4 Q7.2 30.0 5.15 29.3 2.35 28.3 0.9 26.1 -0.5 23.95 0.2 23.05 0.9 22.15 1.9 23.4 L2.8 24.2 Q3.15 24.25 3.25 23.5 3.3 23.25 2.4 22.3 1.25 21.1 0.6 19.2 -0.25 16.8 0.15 14.15 0.55 11.55 1.5 12.25 2.05 12.65 2.45 13.6 2.75 14.3 3.25 14.2 3.95 14.1 3.9 13.25 L3.75 10.45 Q3.9 8.55 4.55 8.3 5.15 8.05 5.65 9.3 6.15 10.45 6.65 10.3 7.1 10.15 7.0 9.2 L7.0 7.6 Q7.15 6.75 7.5 6.55 L7.95 6.9 Q8.15 7.4 8.7 7.3 9.45 7.1 9.15 0.0 L13.9 0.0 13.85 3.6 Q13.9 7.25 14.35 7.4 14.9 7.55 15.25 7.1 15.6 6.65 15.85 6.8 16.65 7.35 16.35 9.5 16.25 10.4 16.7 10.6 17.2 10.8 17.7 9.7 18.2 8.45 18.8 8.75 19.45 9.05 19.6 10.9 L19.5 13.7 Q19.4 14.6 20.1 14.7 20.6 14.8 20.9 14.2 21.3 13.3 21.85 12.9 22.8 12.25 23.2 14.85 23.6 17.55 22.75 19.9 22.1 21.7 20.95 22.9 20.05 23.8 20.1 24.05 20.2 24.8 20.55 24.75 L21.45 24.0" fill="#edcc56" fill-rule="evenodd" stroke="none"/>
    </g>
    <g id="sprite2" transform="matrix(1.0, 0.0, 0.0, 1.0, 0.05, 0.0)">
      <use height="33.05" transform="matrix(1.0, 0.0, 0.0, 1.0, -0.05, 0.0)" width="23.4" xlink:href="#shape3"/>
    </g>
    <g id="shape3" transform="matrix(1.0, 0.0, 0.0, 1.0, 0.05, 0.0)">
      <path d="M21.4 24.0 Q22.45 22.85 23.1 23.75 23.8 24.75 22.4 26.8 21.0 28.9 18.15 29.7 16.1 30.25 16.4 30.7 L17.1 32.2 Q17.2 32.7 16.45 32.85 L11.65 33.0 6.9 32.6 Q6.15 32.35 6.2 31.85 6.25 31.4 6.95 30.4 7.2 30.0 5.15 29.3 2.3 28.35 0.9 26.15 -0.5 24.0 0.2 23.05 0.85 22.15 1.9 23.4 3.05 24.9 3.2 23.55 L2.35 22.3 Q1.2 21.1 0.55 19.2 -0.3 16.8 0.15 14.15 0.55 11.55 1.45 12.25 2.0 12.65 2.4 13.6 2.7 14.3 3.2 14.2 3.9 14.1 3.85 13.25 L3.75 10.45 Q3.9 8.6 4.55 8.3 5.15 8.05 5.65 9.3 6.1 10.45 6.6 10.3 7.1 10.15 6.95 9.25 6.75 7.0 7.5 6.55 7.7 6.45 7.9 6.9 8.15 7.4 8.65 7.3 9.45 7.1 9.1 0.0 L13.9 0.05 13.85 3.65 Q13.9 7.25 14.35 7.4 14.9 7.55 15.25 7.1 15.6 6.7 15.8 6.85 16.55 7.25 16.35 9.5 16.25 10.4 16.7 10.6 17.2 10.85 17.65 9.7 18.15 8.45 18.75 8.75 19.4 9.05 19.55 10.9 L19.45 13.7 Q19.4 14.6 20.1 14.7 20.6 14.8 20.9 14.2 21.3 13.3 21.85 12.9 22.8 12.25 23.2 14.85 23.6 17.55 22.75 19.9 22.1 21.7 20.95 22.9 20.05 23.8 20.1 24.05 20.25 25.4 21.4 24.0" fill="url(#gradient1)" fill-rule="evenodd" stroke="none"/>
    </g>
    <radialGradient cx="0" cy="0" gradientTransform="matrix(0.0253, 0.0, 0.0, -0.0253, 11.25, 21.2)" gradientUnits="userSpaceOnUse" id="gradient1" r="819.2" spreadMethod="pad">
      <stop offset="0.011764705882352941" stop-color="#cc861c"/>
      <stop offset="1.0" stop-color="#662500"/>
    </radialGradient>
    <g id="sprite3" transform="matrix(1.0, 0.0, 0.0, 1.0, -0.05, 0.0)">
      <use height="1.5" transform="matrix(0.9044, 0.0, 0.0, 0.9, 0.0452, 0.0)" width="13.6" xlink:href="#shape4"/>
    </g>
    <g id="shape4" transform="matrix(1.0, 0.0, 0.0, 1.0, -0.05, 0.0)">
      <path d="M0.2 0.9 Q-0.55 0.6 2.4 0.15 4.1 -0.05 8.9 0.0 L13.65 0.4 Q13.3 1.0 10.15 1.4 L5.1 1.45 0.2 0.9" fill="#42210b" fill-rule="evenodd" stroke="none"/>
    </g>
    <g id="sprite4" transform="matrix(1.0, 0.0, 0.0, 1.0, 0.0, 0.0)">
      <use height="17.25" transform="matrix(0.9077, 0.0, 0.0, 0.9072, 0.0, 0.0)" width="13.55" xlink:href="#shape5"/>
    </g>
    <g id="shape5" transform="matrix(1.0, 0.0, 0.0, 1.0, 0.0, 0.0)">
      <path d="M6.65 0.0 Q10.05 0.05 11.95 3.25 13.55 5.9 13.55 9.35 13.55 13.25 12.7 14.8 11.25 17.3 6.85 17.25 2.9 17.2 1.35 15.2 0.0 13.45 0.0 9.5 0.0 5.65 1.8 2.9 3.7 -0.05 6.65 0.0" fill="#000000" fill-rule="evenodd" stroke="none"/>
    </g>
    <g id="sprite5" transform="matrix(1.0, 0.0, 0.0, 1.0, 0.0, 0.0)">
      <use height="17.25" transform="matrix(0.9077, 0.0, 0.0, 0.9072, 0.0, 0.0)" width="13.55" xlink:href="#shape6"/>
    </g>
    <g id="shape6" transform="matrix(1.0, 0.0, 0.0, 1.0, 0.0, 0.0)">
      <path d="M6.7 0.0 Q10.1 0.05 12.0 3.25 13.55 5.9 13.55 9.35 13.55 13.25 12.7 14.8 11.3 17.3 6.9 17.25 2.9 17.2 1.35 15.2 0.0 13.45 0.0 9.5 0.0 5.65 1.8 2.9 3.7 -0.05 6.7 0.0" fill="#fffed9" fill-rule="evenodd" stroke="none"/>
    </g>
    <g id="shape7" transform="matrix(1.0, 0.0, 0.0, 1.0, -4.55, -23.7)">
      <path d="M9.4 23.7 Q11.85 23.75 13.2 26.1 14.35 28.0 14.35 30.5 14.35 33.3 13.75 34.45 12.75 36.3 9.55 36.25 6.65 36.2 5.55 34.75 4.55 33.5 4.55 30.6 4.55 27.85 5.85 25.85 7.25 23.7 9.4 23.7" fill="url(#gradient2)" fill-rule="evenodd" stroke="none"/>
      <path d="M6.05 35.25 L9.35 34.9 Q11.6 34.9 12.9 35.4 11.75 36.25 9.55 36.25 7.15 36.2 6.05 35.25" fill="#bbc737" fill-rule="evenodd" stroke="none"/>
    </g>
    <radialGradient cx="0" cy="0" gradientTransform="matrix(0.0124, 0.0, 0.0, -0.0124, 8.6, 26.65)" gradientUnits="userSpaceOnUse" id="gradient2" r="819.2" spreadMethod="pad">
      <stop offset="0.0" stop-color="#9dd950"/>
      <stop offset="1.0" stop-color="#66912c"/>
    </radialGradient>
    <g id="sprite6" transform="matrix(1.0, 0.0, 0.0, 1.0, 0.0, 0.0)">
      <use height="31.25" transform="matrix(1.0, 0.0, 0.0, 1.0, 0.0, 0.0)" width="21.2" xlink:href="#shape8"/>
    </g>
    <g id="shape8" transform="matrix(1.0, 0.0, 0.0, 1.0, 0.0, 0.0)">
      <path d="M21.1 15.3 Q21.4 17.7 20.6 19.75 20.0 21.4 19.0 22.4 L18.15 23.4 Q18.1 24.1 18.6 24.4 19.1 24.75 19.55 24.2 20.5 23.15 21.0 23.6 21.5 24.05 20.2 25.85 18.85 27.7 16.35 28.35 14.45 28.85 14.7 29.25 15.3 30.15 15.3 30.55 15.35 31.0 14.7 31.15 13.6 31.4 10.45 31.15 L6.15 30.7 Q5.5 30.55 5.6 30.05 5.65 29.65 6.25 28.8 6.5 28.45 4.65 27.75 2.15 26.85 0.9 24.9 -0.3 22.95 0.1 22.65 0.45 22.35 1.5 23.35 2.15 24.0 2.9 23.6 3.6 23.2 3.35 22.45 L2.35 21.45 Q1.3 20.5 0.75 18.75 0.0 16.6 0.3 14.35 0.55 12.15 1.35 12.75 L2.5 13.9 Q3.0 14.4 3.5 14.35 4.05 14.25 3.95 13.5 3.65 12.05 3.75 11.05 3.9 9.4 4.4 9.15 4.85 8.95 5.3 10.05 5.7 11.1 6.2 10.95 6.75 10.85 6.65 10.05 6.45 8.1 7.15 7.7 7.35 7.55 7.55 7.95 7.7 8.45 8.2 8.35 9.1 8.15 9.1 0.0 L9.6 0.15 11.1 0.4 12.45 0.45 12.5 4.35 Q12.65 8.3 13.25 8.5 13.75 8.7 14.1 8.3 14.4 7.95 14.6 8.05 15.35 8.55 15.05 10.45 14.95 11.25 15.35 11.45 15.8 11.6 16.2 10.6 16.7 9.55 17.2 9.8 17.8 10.1 17.9 11.75 L17.75 14.2 Q17.7 15.0 18.3 15.1 L19.05 14.65 Q19.4 13.8 19.9 13.5 20.75 12.95 21.1 15.3" fill="url(#gradient3)" fill-rule="evenodd" stroke="none"/>
    </g>
    <linearGradient gradientTransform="matrix(-2.0E-4, 0.0202, 0.0202, 2.0E-4, 10.8, 1.95)" gradientUnits="userSpaceOnUse" id="gradient3" spreadMethod="pad" x1="-819.2" x2="819.2">
      <stop offset="0.011764705882352941" stop-color="#ffffff"/>
      <stop offset="1.0" stop-color="#000000"/>
    </linearGradient>
    <g id="shape9" transform="matrix(1.0, 0.0, 0.0, 1.0, -5.55, -10.85)">
      <path d="M5.9 25.75 Q6.6 26.75 9.05 27.15 L10.4 27.4 Q10.4 26.7 9.75 26.05 L9.35 25.7 9.75 25.85 10.6 26.45 Q11.15 27.1 11.15 27.55 L12.45 27.55 13.85 27.4 14.0 27.75 14.25 28.9 14.35 31.0 Q13.55 31.2 10.3 29.85 8.15 28.9 6.6 27.5 L5.55 26.3 5.75 26.0 5.9 25.75" fill="#6d8c43" fill-rule="evenodd" stroke="none"/>
      <path d="M10.55 26.35 L10.6 26.45 10.9 26.85 10.35 27.0 10.05 26.45 10.55 26.35 M9.95 26.25 L9.75 26.05 9.35 25.7 9.7 25.8 10.3 26.1 9.95 26.25 M6.95 27.85 L6.7 27.55 7.75 26.85 8.35 27.05 7.95 27.45 7.75 28.05 8.1 27.7 8.95 27.15 9.05 27.15 9.55 27.25 9.2 27.7 Q8.9 28.4 8.95 28.65 L9.25 28.1 Q9.65 27.55 10.15 27.35 L10.4 27.4 10.4 27.3 11.05 27.1 11.15 27.55 11.55 27.55 Q11.15 28.05 11.1 28.65 L10.95 29.5 11.2 28.7 Q11.55 27.85 12.15 27.55 L12.45 27.55 12.75 27.5 12.4 28.15 Q12.2 28.75 12.35 29.5 12.6 28.15 13.35 27.5 L13.85 27.4 14.0 27.85 13.8 29.05 13.8 30.35 Q13.85 29.5 14.2 28.7 L14.25 28.9 14.35 31.0 14.15 31.0 14.3 30.0 13.7 30.95 13.55 30.9 13.55 29.0 13.25 30.9 13.15 30.85 13.15 28.5 12.7 30.7 11.95 30.5 11.95 28.2 11.3 30.25 10.6 29.95 10.75 28.5 10.5 28.9 10.15 29.75 9.55 29.5 9.85 27.85 9.6 28.25 9.15 29.3 8.4 28.9 8.95 27.65 8.65 27.85 Q8.25 28.1 8.0 28.6 L7.25 28.05 7.75 27.2 7.5 27.3 6.95 27.85 M7.45 26.75 L7.15 26.9 6.6 27.5 6.5 27.35 7.15 26.65 7.45 26.75 M5.55 26.3 L5.75 26.0 5.9 25.75 6.8 26.45 6.25 27.1 5.55 26.3" fill="#c5eba9" fill-rule="evenodd" stroke="none"/>
      <path d="M9.45 30.1 L10.95 33.2 Q11.55 34.35 11.0 35.3 10.5 36.25 9.15 35.95 8.15 35.8 7.9 34.55 7.7 33.4 8.3 32.5 L9.1 31.0 9.45 30.1" fill="#fcee21" fill-rule="evenodd" stroke="none"/>
      <path d="M9.3 31.3 L9.15 31.7 8.95 33.0 9.05 34.0 8.95 34.65 Q8.7 35.05 8.35 34.8 L8.15 34.2 Q8.1 33.75 8.5 32.9 L9.3 31.3" fill="#ffffff" fill-rule="evenodd" stroke="none"/>
      <path d="M10.35 32.9 L10.8 33.6 Q11.2 34.5 10.85 35.1 10.25 36.15 9.25 35.65 9.8 35.75 10.35 35.2 10.8 34.7 10.6 33.7 L10.35 32.9" fill="#dbc037" fill-rule="evenodd" stroke="none"/>
      <path d="M8.9 25.35 L8.8 24.5 8.95 24.1 9.45 24.4 Q9.95 24.8 9.9 25.15 9.9 25.6 9.5 25.7 9.05 25.75 8.9 25.35" fill="#518c27" fill-rule="evenodd" stroke="none"/>
      <path d="M9.25 25.65 Q8.75 26.4 8.05 25.75 L7.4 24.95 7.65 24.85 8.35 24.7 Q8.9 24.7 9.15 25.0 9.45 25.3 9.25 25.65" fill="#62a82f" fill-rule="evenodd" stroke="none"/>
      <path d="M12.75 12.9 L10.65 13.3 8.15 13.2 Q7.0 13.0 6.75 12.3 6.45 11.7 7.25 11.3 L9.4 10.9 11.95 11.05 Q13.05 11.25 13.35 11.9 13.55 12.55 12.75 12.9" fill="url(#gradient4)" fill-rule="evenodd" stroke="none"/>
    </g>
    <linearGradient gradientTransform="matrix(0.0041, 1.0E-4, 1.0E-4, -0.0042, 10.0, 12.1)" gradientUnits="userSpaceOnUse" id="gradient4" spreadMethod="pad" x1="-819.2" x2="819.2">
      <stop offset="0.011764705882352941" stop-color="#cc861c"/>
      <stop offset="1.0" stop-color="#662500"/>
    </linearGradient>
    <g id="sprite7" transform="matrix(1.0, 0.0, 0.0, 1.0, 0.0, 0.0)">
      <use height="3.35" transform="matrix(1.0, 0.0, 0.0, 1.0, 0.0, 0.0)" width="8.6" xlink:href="#shape10"/>
    </g>
    <g id="shape10" transform="matrix(1.0, 0.0, 0.0, 1.0, 0.0, 0.0)">
      <path d="M7.75 2.65 L5.1 3.2 1.95 3.05 Q0.55 2.8 0.2 1.95 -0.15 1.15 0.85 0.7 L3.55 0.15 6.65 0.35 Q8.05 0.6 8.4 1.45 8.75 2.25 7.75 2.65 Z" fill="none" stroke="#edcc56" stroke-linecap="butt" stroke-linejoin="miter" stroke-width="0.25"/>
    </g>
    <g id="sprite8" transform="matrix(1.0, 0.0, 0.0, 1.0, 0.0, -0.05)">
      <use height="1.9" transform="matrix(1.0, 0.0, 0.0, 1.0, 0.0, 0.05)" width="1.8" xlink:href="#shape11"/>
    </g>
    <g id="shape11" transform="matrix(1.0, 0.0, 0.0, 1.0, 0.0, -0.05)">
      <path d="M0.95 0.05 L1.8 0.05 1.15 0.45 Q0.25 0.85 1.0 1.95 0.1 1.7 0.05 1.2 -0.2 0.0 0.95 0.05" fill="url(#gradient5)" fill-rule="evenodd" stroke="none"/>
    </g>
    <linearGradient gradientTransform="matrix(0.0, 0.0011, 0.0011, 0.0, 0.9, 0.6)" gradientUnits="userSpaceOnUse" id="gradient5" spreadMethod="pad" x1="-819.2" x2="819.2">
      <stop offset="0.011764705882352941" stop-color="#ffffff"/>
      <stop offset="1.0" stop-color="#000000"/>
    </linearGradient>
    <g id="sprite9" transform="matrix(1.0, 0.0, 0.0, 1.0, 0.0, 0.0)">
      <use height="2.05" transform="matrix(0.913, 0.0, 0.0, 0.9268, 0.0, 0.0)" width="1.15" xlink:href="#shape12"/>
    </g>
    <g id="shape12" transform="matrix(1.0, 0.0, 0.0, 1.0, 0.0, 0.0)">
      <path d="M0.0 0.15 L0.55 0.0 Q1.15 0.05 1.15 0.9 1.15 1.75 0.5 2.05 L0.55 1.15 Q0.55 0.35 0.0 0.15" fill="#000000" fill-rule="evenodd" stroke="none"/>
    </g>
    <g id="shape13" transform="matrix(1.0, 0.0, 0.0, 1.0, -7.1, -9.0)">
      <path d="M12.35 11.55 Q12.35 11.95 9.95 11.95 7.6 11.95 7.6 11.55 7.6 11.4 8.35 11.25 L9.95 11.1 11.65 11.25 12.35 11.55" fill="url(#gradient6)" fill-rule="evenodd" stroke="none"/>
      <path d="M7.1 9.05 L12.55 9.0 12.35 10.5 12.15 11.7 9.95 11.95 8.25 11.85 7.75 11.7 7.55 11.0 7.1 9.05" fill="url(#gradient7)" fill-rule="evenodd" stroke="none"/>
    </g>
    <linearGradient gradientTransform="matrix(0.0029, 0.0, 0.0, -0.0029, 9.95, 11.55)" gradientUnits="userSpaceOnUse" id="gradient6" spreadMethod="pad" x1="-819.2" x2="819.2">
      <stop offset="0.011764705882352941" stop-color="#522304"/>
      <stop offset="1.0" stop-color="#a85202"/>
    </linearGradient>
    <linearGradient gradientTransform="matrix(0.0033, 0.0, 0.0, -0.0033, 9.85, 10.5)" gradientUnits="userSpaceOnUse" id="gradient7" spreadMethod="pad" x1="-819.2" x2="819.2">
      <stop offset="0.011764705882352941" stop-color="#ebd47d"/>
      <stop offset="0.32941176470588235" stop-color="#ffe99e"/>
      <stop offset="1.0" stop-color="#c9b054"/>
    </linearGradient>
    <g id="sprite10" transform="matrix(1.0, 0.0, 0.0, 1.0, 0.0, 0.0)">
      <use height="3.7" transform="matrix(1.0, 0.0, 0.0, 1.0, 0.0, 0.0)" width="3.1" xlink:href="#sprite11"/>
    </g>
    <g id="sprite11" transform="matrix(1.0, 0.0, 0.0, 1.0, 0.0, 0.0)">
      <use height="4.1" transform="matrix(0.8985, 0.0, 0.0, 0.9024, 0.0, 0.0)" width="3.45" xlink:href="#shape14"/>
    </g>
    <g id="shape14" transform="matrix(1.0, 0.0, 0.0, 1.0, 0.0, 0.0)">
      <path d="M3.45 0.0 L2.9 3.65 0.0 4.1 Q1.2 3.65 1.5 3.25 2.1 2.45 1.9 0.5 L3.45 0.0" fill="#a35700" fill-rule="evenodd" stroke="none"/>
    </g>
    <g id="shape15" transform="matrix(1.0, 0.0, 0.0, 1.0, -7.05, -8.4)">
      <path d="M12.55 9.0 Q12.55 9.2 11.75 9.4 L9.8 9.55 7.85 9.4 Q7.05 9.2 7.05 9.0 7.05 8.75 7.85 8.6 L9.8 8.4 11.75 8.6 Q12.55 8.75 12.55 9.0" fill="url(#gradient8)" fill-rule="evenodd" stroke="none"/>
      <path d="M7.75 9.8 L7.9 10.35 Q7.75 10.7 7.65 10.45 L7.55 9.95 Q7.6 9.7 7.75 9.8" fill="url(#gradient9)" fill-rule="evenodd" stroke="none"/>
      <path d="M8.15 10.6 L8.3 10.95 Q8.2 11.2 8.1 11.05 L8.0 10.7 Q8.05 10.5 8.15 10.6" fill="url(#gradient10)" fill-rule="evenodd" stroke="none"/>
      <path d="M8.8 10.0 L8.8 10.4 8.65 10.35 Q8.6 10.2 8.7 10.05 8.75 9.9 8.8 10.0" fill="url(#gradient11)" fill-rule="evenodd" stroke="none"/>
      <path d="M10.15 10.5 Q10.35 10.5 10.35 10.8 L10.05 11.1 Q9.85 11.05 9.9 10.75 9.95 10.5 10.15 10.5" fill="url(#gradient12)" fill-rule="evenodd" stroke="none"/>
      <path d="M8.9 11.1 L9.0 11.4 Q8.95 11.65 8.75 11.55 L8.6 11.3 Q8.7 11.1 8.9 11.1" fill="url(#gradient13)" fill-rule="evenodd" stroke="none"/>
      <path d="M7.95 11.3 L8.0 11.55 7.9 11.6 7.85 11.4 7.95 11.3" fill="url(#gradient14)" fill-rule="evenodd" stroke="none"/>
      <path d="M9.85 11.5 L9.85 11.8 9.6 11.8 Q9.55 11.7 9.65 11.55 9.75 11.35 9.85 11.5" fill="url(#gradient15)" fill-rule="evenodd" stroke="none"/>
      <path d="M11.95 10.1 L11.85 10.5 11.65 10.5 Q11.55 10.3 11.75 10.1 11.95 9.9 11.95 10.1" fill="url(#gradient16)" fill-rule="evenodd" stroke="none"/>
      <path d="M11.9 11.15 L11.75 11.5 11.75 11.25 Q11.9 11.05 11.9 11.15" fill="url(#gradient17)" fill-rule="evenodd" stroke="none"/>
      <path d="M8.35 9.0 L8.45 9.1 8.15 9.15 Q7.95 9.15 8.1 9.1 L8.35 9.0" fill="url(#gradient18)" fill-rule="evenodd" stroke="none"/>
      <path d="M9.35 8.5 L9.5 8.65 9.15 8.7 9.1 8.65 Q9.15 8.5 9.35 8.5" fill="url(#gradient19)" fill-rule="evenodd" stroke="none"/>
      <path d="M9.0 8.8 Q9.55 8.9 8.8 9.0 L8.8 8.9 9.0 8.8" fill="url(#gradient20)" fill-rule="evenodd" stroke="none"/>
      <path d="M10.7 8.85 L10.85 9.0 10.4 9.1 10.35 8.95 10.7 8.85" fill="url(#gradient21)" fill-rule="evenodd" stroke="none"/>
      <path d="M11.35 9.1 Q11.7 9.1 11.4 9.2 L11.0 9.2 Q10.7 8.95 11.35 9.1" fill="url(#gradient22)" fill-rule="evenodd" stroke="none"/>
      <path d="M9.75 9.3 Q10.15 9.3 9.5 9.5 L9.45 9.4 9.75 9.3" fill="url(#gradient23)" fill-rule="evenodd" stroke="none"/>
      <path d="M11.9 8.7 Q12.35 8.75 11.75 8.9 L11.7 8.75 11.9 8.7" fill="url(#gradient24)" fill-rule="evenodd" stroke="none"/>
      <path d="M32.5 15.5 L32.55 12.2 27.9 12.3 27.05 13.45 Q27.25 17.1 27.0 18.9 L26.7 18.45 Q26.55 18.2 26.35 18.3 25.8 18.6 25.7 19.2 L25.65 19.25 Q24.95 19.65 25.15 21.6 L25.2 21.7 Q24.8 21.6 24.55 20.85 24.15 19.95 23.65 20.1 23.2 20.1 22.8 20.95 22.45 21.4 22.35 22.7 L22.4 25.3 22.15 25.35 Q21.7 25.45 21.55 24.95 21.3 24.2 20.75 23.8 20.15 23.35 19.55 24.4 19.0 25.45 19.05 27.05 18.95 28.85 19.55 30.5 20.1 32.1 21.15 33.2 L21.9 34.25 21.75 34.35 21.6 34.25 21.35 33.75 Q20.75 33.1 19.9 33.3 19.1 33.55 19.0 34.3 18.95 35.25 19.8 36.55 21.1 38.5 23.55 39.3 25.35 39.9 25.15 40.3 L24.55 41.55 Q24.45 42.0 25.1 42.2 L29.35 42.5 31.75 42.5 34.75 42.1 Q35.55 41.9 35.55 41.5 L34.95 40.3 Q34.7 39.9 36.7 39.35 39.45 38.55 40.8 36.6 42.15 34.7 41.55 33.95 41.0 33.35 39.45 33.6 L38.6 33.9 Q38.75 33.6 39.6 32.85 40.55 31.85 41.15 30.3 41.95 28.1 41.6 25.75 41.25 23.45 40.25 23.9 L39.25 24.25 38.45 24.5 37.95 24.9 38.05 22.1 Q37.95 20.45 37.45 20.15 37.1 19.95 36.0 20.6 L35.4 20.9 34.95 21.3 34.95 20.9 Q35.15 18.9 34.4 18.4 34.15 18.3 33.85 18.7 33.5 19.1 32.95 18.95 32.55 18.85 32.5 15.5 M32.8 12.2 L32.85 17.45 33.1 18.7 33.25 18.7 33.6 18.5 34.25 18.05 34.55 18.15 Q35.25 18.6 35.25 20.1 L35.25 20.65 35.3 20.65 35.85 20.3 37.15 19.8 Q37.75 19.8 38.05 20.4 L38.35 22.1 38.3 24.2 39.15 23.95 40.15 23.6 40.5 23.5 Q41.2 23.5 41.65 24.7 L41.95 27.1 Q41.95 28.9 41.4 30.4 40.75 32.1 39.6 33.3 L40.15 33.25 Q42.0 33.25 42.0 34.55 42.0 35.45 41.05 36.8 39.85 38.5 37.75 39.3 L35.3 40.05 35.15 40.1 35.2 40.1 Q35.75 40.95 35.75 41.5 35.8 42.2 34.85 42.35 L33.75 42.6 32.4 42.8 29.3 42.8 25.0 42.5 Q24.15 42.25 24.2 41.65 24.2 41.15 24.9 40.1 L24.95 40.1 24.9 40.1 24.55 39.9 23.15 39.5 Q20.85 38.65 19.55 36.75 18.75 35.5 18.75 34.5 L18.75 34.3 Q18.75 33.75 19.25 33.35 19.7 32.95 20.25 32.95 L20.55 32.95 Q19.75 32.05 19.25 30.55 18.75 29.25 18.75 27.45 L18.75 26.9 Q18.75 25.5 19.2 24.5 19.65 23.45 20.35 23.4 L20.9 23.55 Q21.55 24.05 21.75 24.75 L22.0 25.1 22.1 25.1 22.0 23.45 22.05 22.7 Q22.1 21.5 22.55 20.8 23.0 19.8 23.75 19.75 24.35 19.75 24.8 20.7 L24.85 20.85 Q24.85 19.5 25.4 19.05 L25.4 19.0 Q25.65 18.3 26.15 18.05 L26.45 17.95 26.75 18.1 26.75 13.3 26.8 13.25 27.15 12.75 27.7 12.05 27.75 11.95 32.85 11.9 32.8 12.2" fill="#c7a040" fill-rule="evenodd" stroke="none"/>
    </g>
    <linearGradient gradientTransform="matrix(-0.0042, 9.0E-4, 9.0E-4, 0.0042, 9.35, 9.1)" gradientUnits="userSpaceOnUse" id="gradient8" spreadMethod="pad" x1="-819.2" x2="819.2">
      <stop offset="0.0" stop-color="#ffe99e"/>
      <stop offset="1.0" stop-color="#c9b054"/>
    </linearGradient>
    <linearGradient gradientTransform="matrix(-1.0E-4, -5.0E-4, -5.0E-4, 1.0E-4, 7.75, 10.2)" gradientUnits="userSpaceOnUse" id="gradient9" spreadMethod="pad" x1="-819.2" x2="819.2">
      <stop offset="0.0" stop-color="#ffe99e"/>
      <stop offset="1.0" stop-color="#c9b054"/>
    </linearGradient>
    <linearGradient gradientTransform="matrix(0.0, -4.0E-4, -4.0E-4, 0.0, 8.15, 10.9)" gradientUnits="userSpaceOnUse" id="gradient10" spreadMethod="pad" x1="-819.2" x2="819.2">
      <stop offset="0.0" stop-color="#ffe99e"/>
      <stop offset="1.0" stop-color="#c9b054"/>
    </linearGradient>
    <linearGradient gradientTransform="matrix(0.0, -3.0E-4, -3.0E-4, 0.0, 8.75, 10.25)" gradientUnits="userSpaceOnUse" id="gradient11" spreadMethod="pad" x1="-819.2" x2="819.2">
      <stop offset="0.0" stop-color="#ffe99e"/>
      <stop offset="1.0" stop-color="#c9b054"/>
    </linearGradient>
    <linearGradient gradientTransform="matrix(0.0, -4.0E-4, -4.0E-4, 0.0, 10.1, 10.85)" gradientUnits="userSpaceOnUse" id="gradient12" spreadMethod="pad" x1="-819.2" x2="819.2">
      <stop offset="0.0" stop-color="#ffe99e"/>
      <stop offset="1.0" stop-color="#c9b054"/>
    </linearGradient>
    <linearGradient gradientTransform="matrix(0.0, -3.0E-4, -3.0E-4, 0.0, 8.8, 11.4)" gradientUnits="userSpaceOnUse" id="gradient13" spreadMethod="pad" x1="-819.2" x2="819.2">
      <stop offset="0.0" stop-color="#ffe99e"/>
      <stop offset="1.0" stop-color="#c9b054"/>
    </linearGradient>
    <linearGradient gradientTransform="matrix(0.0, -2.0E-4, -2.0E-4, 0.0, 7.95, 11.5)" gradientUnits="userSpaceOnUse" id="gradient14" spreadMethod="pad" x1="-819.2" x2="819.2">
      <stop offset="0.0" stop-color="#ffe99e"/>
      <stop offset="1.0" stop-color="#c9b054"/>
    </linearGradient>
    <linearGradient gradientTransform="matrix(0.0, -3.0E-4, -3.0E-4, 0.0, 9.75, 11.7)" gradientUnits="userSpaceOnUse" id="gradient15" spreadMethod="pad" x1="-819.2" x2="819.2">
      <stop offset="0.0" stop-color="#ffe99e"/>
      <stop offset="1.0" stop-color="#c9b054"/>
    </linearGradient>
    <linearGradient gradientTransform="matrix(0.0, -4.0E-4, -4.0E-4, 0.0, 11.75, 10.35)" gradientUnits="userSpaceOnUse" id="gradient16" spreadMethod="pad" x1="-819.2" x2="819.2">
      <stop offset="0.0" stop-color="#ffe99e"/>
      <stop offset="1.0" stop-color="#c9b054"/>
    </linearGradient>
    <linearGradient gradientTransform="matrix(0.0, -2.0E-4, -2.0E-4, 0.0, 11.8, 11.35)" gradientUnits="userSpaceOnUse" id="gradient17" spreadMethod="pad" x1="-819.2" x2="819.2">
      <stop offset="0.0" stop-color="#ffe99e"/>
      <stop offset="1.0" stop-color="#c9b054"/>
    </linearGradient>
    <linearGradient gradientTransform="matrix(-5.0E-4, 0.0, 0.0, 5.0E-4, 8.15, 9.1)" gradientUnits="userSpaceOnUse" id="gradient18" spreadMethod="pad" x1="-819.2" x2="819.2">
      <stop offset="0.0" stop-color="#ffe99e"/>
      <stop offset="1.0" stop-color="#c9b054"/>
    </linearGradient>
    <linearGradient gradientTransform="matrix(-6.0E-4, 0.0, 0.0, 6.0E-4, 9.2, 8.65)" gradientUnits="userSpaceOnUse" id="gradient19" spreadMethod="pad" x1="-819.2" x2="819.2">
      <stop offset="0.0" stop-color="#ffe99e"/>
      <stop offset="1.0" stop-color="#c9b054"/>
    </linearGradient>
    <linearGradient gradientTransform="matrix(-6.0E-4, 0.0, 0.0, 6.0E-4, 8.9, 8.9)" gradientUnits="userSpaceOnUse" id="gradient20" spreadMethod="pad" x1="-819.2" x2="819.2">
      <stop offset="0.0" stop-color="#ffe99e"/>
      <stop offset="1.0" stop-color="#c9b054"/>
    </linearGradient>
    <linearGradient gradientTransform="matrix(-8.0E-4, 0.0, 0.0, 8.0E-4, 10.5, 8.95)" gradientUnits="userSpaceOnUse" id="gradient21" spreadMethod="pad" x1="-819.2" x2="819.2">
      <stop offset="0.0" stop-color="#ffe99e"/>
      <stop offset="1.0" stop-color="#c9b054"/>
    </linearGradient>
    <linearGradient gradientTransform="matrix(-7.0E-4, 0.0, 0.0, 7.0E-4, 11.15, 9.15)" gradientUnits="userSpaceOnUse" id="gradient22" spreadMethod="pad" x1="-819.2" x2="819.2">
      <stop offset="0.0" stop-color="#ffe99e"/>
      <stop offset="1.0" stop-color="#c9b054"/>
    </linearGradient>
    <linearGradient gradientTransform="matrix(-6.0E-4, 0.0, 0.0, 6.0E-4, 9.55, 9.4)" gradientUnits="userSpaceOnUse" id="gradient23" spreadMethod="pad" x1="-819.2" x2="819.2">
      <stop offset="0.0" stop-color="#ffe99e"/>
      <stop offset="1.0" stop-color="#c9b054"/>
    </linearGradient>
    <linearGradient gradientTransform="matrix(-5.0E-4, 0.0, 0.0, 5.0E-4, 11.8, 8.8)" gradientUnits="userSpaceOnUse" id="gradient24" spreadMethod="pad" x1="-819.2" x2="819.2">
      <stop offset="0.0" stop-color="#ffe99e"/>
      <stop offset="1.0" stop-color="#c9b054"/>
    </linearGradient>
    <g id="sprite12" transform="matrix(1.0, 0.0, 0.0, 1.0, 0.0, 0.0)">
      <use height="37.9" transform="matrix(1.0, 0.0, 0.0, 1.0, 0.0, 0.0)" width="28.4" xlink:href="#shape16"/>
    </g>
    <g id="shape16" transform="matrix(1.0, 0.0, 0.0, 1.0, 0.0, 0.0)">
      <path d="M20.5 10.9 Q20.6 10.75 21.25 10.5 22.6 9.7 23.05 9.95 23.65 10.3 23.8 12.4 23.95 14.1 23.7 15.85 L24.1 15.5 24.2 15.5 24.15 15.45 25.2 15.05 26.55 14.6 Q27.8 14.05 28.25 16.95 28.7 19.9 27.65 22.6 26.9 24.6 25.65 25.9 L24.6 27.05 25.55 26.75 Q27.5 26.45 28.15 27.2 28.95 28.15 27.25 30.5 25.55 32.95 22.1 33.95 19.6 34.65 19.95 35.15 20.7 36.25 20.65 36.65 20.65 37.15 19.7 37.35 L15.9 37.85 12.9 37.85 7.6 37.5 Q6.8 37.25 6.9 36.7 6.95 36.25 7.65 35.1 7.95 34.65 5.7 33.9 2.6 32.85 1.0 30.45 -0.1 28.8 0.0 27.65 0.1 26.7 1.1 26.4 2.15 26.1 2.9 26.95 L3.25 27.55 3.45 27.7 3.6 27.55 2.65 26.25 Q1.35 24.9 0.65 22.85 -0.05 20.8 0.05 18.55 0.0 16.55 0.7 15.25 1.4 13.95 2.15 14.5 2.85 15.0 3.15 15.95 3.35 16.55 3.95 16.45 L4.25 16.35 Q4.05 14.7 4.15 13.1 4.3 11.5 4.75 10.95 5.25 9.9 5.8 9.85 6.45 9.7 6.9 10.8 7.25 11.75 7.75 11.9 L7.7 11.75 Q7.4 9.3 8.3 8.8 L8.35 8.75 Q8.5 8.0 9.15 7.65 9.45 7.5 9.6 7.8 L10.0 8.4 Q10.3 6.15 10.05 1.55 L11.1 0.1 16.9 0.0 Q16.8 2.05 16.85 4.15 16.9 8.3 17.45 8.45 18.1 8.6 18.55 8.1 18.95 7.6 19.25 7.75 20.2 8.35 19.9 10.85 L19.9 11.4 Q20.25 10.9 20.5 10.9" fill="url(#gradient25)" fill-rule="evenodd" stroke="none"/>
    </g>
    <linearGradient gradientTransform="matrix(0.003, 0.0227, 0.0228, -0.0026, 13.6, 17.75)" gradientUnits="userSpaceOnUse" id="gradient25" spreadMethod="pad" x1="-819.2" x2="819.2">
      <stop offset="0.011764705882352941" stop-color="#c46900"/>
      <stop offset="1.0" stop-color="#522302"/>
    </linearGradient>
    <g id="sprite13" transform="matrix(1.0, 0.0, 0.0, 1.0, 0.05, 0.0)">
      <use height="36.4" transform="matrix(1.0019, 0.0, 0.0, 1.0, -0.0501, 0.0)" width="25.8" xlink:href="#shape17"/>
    </g>
    <g id="shape17" transform="matrix(1.0, 0.0, 0.0, 1.0, 0.05, 0.0)">
      <path d="M20.7 9.5 Q21.4 9.85 21.55 11.9 L21.5 15.0 Q21.4 15.95 22.15 16.1 22.7 16.2 23.05 15.45 23.5 14.45 24.1 14.0 25.1 13.3 25.55 16.2 26.0 19.15 25.1 21.75 24.4 23.8 23.1 25.05 22.1 26.1 22.15 26.35 22.35 27.9 23.6 26.3 24.75 24.95 25.5 26.0 26.25 27.05 24.7 29.35 23.15 31.7 20.05 32.65 17.75 33.35 18.05 33.8 L18.85 35.4 Q18.95 36.0 18.1 36.15 L12.85 36.4 7.6 36.0 Q6.8 35.8 6.85 35.2 6.9 34.75 7.65 33.6 7.95 33.15 5.7 32.4 2.55 31.4 1.0 29.0 -0.55 26.65 0.2 25.65 1.0 24.6 2.1 26.0 3.35 27.6 3.55 26.1 3.6 25.8 2.6 24.75 1.35 23.45 0.6 21.35 -0.3 18.75 0.15 15.8 0.6 12.9 1.6 13.7 2.25 14.15 2.7 15.15 3.0 15.9 3.55 15.8 4.3 15.7 4.25 14.7 L4.15 11.65 Q4.3 9.6 5.0 9.3 5.7 9.0 6.25 10.35 6.75 11.65 7.3 11.45 7.85 11.25 7.7 10.25 7.4 7.85 8.25 7.3 8.5 7.15 8.7 7.65 8.95 8.2 9.55 8.05 10.4 7.85 10.05 0.05 L15.3 0.0 Q15.2 1.95 15.25 3.95 15.25 7.95 15.8 8.1 16.4 8.25 16.8 7.75 17.2 7.25 17.45 7.45 18.3 8.0 18.0 10.4 17.9 11.4 18.4 11.6 19.0 11.8 19.5 10.55 20.05 9.2 20.7 9.5" fill="#edcc56" fill-rule="evenodd" stroke="none"/>
    </g>
    <g id="sprite14" transform="matrix(1.0, 0.0, 0.0, 1.0, 0.05, 0.0)">
      <use height="36.45" transform="matrix(1.0, 0.0, 0.0, 1.0, -0.05, 0.0)" width="25.85" xlink:href="#shape18"/>
    </g>
    <g id="shape18" transform="matrix(1.0, 0.0, 0.0, 1.0, 0.05, 0.0)">
      <path d="M20.75 9.55 Q21.45 9.9 21.6 11.95 L21.5 15.0 Q21.45 15.95 22.2 16.1 22.75 16.2 23.05 15.5 23.5 14.45 24.1 14.05 25.15 13.35 25.6 16.25 26.0 19.15 25.1 21.75 24.4 23.8 23.15 25.1 22.15 26.1 22.2 26.4 22.35 27.9 23.65 26.35 24.8 25.0 25.55 26.05 26.3 27.1 24.75 29.4 23.15 31.7 20.05 32.65 17.8 33.35 18.1 33.8 L18.9 35.4 Q18.95 36.0 18.15 36.2 L12.9 36.4 7.6 36.05 Q6.8 35.8 6.9 35.25 6.95 34.8 7.65 33.65 7.95 33.2 5.7 32.45 2.6 31.4 1.0 29.0 -0.55 26.65 0.2 25.65 1.0 24.6 2.1 26.0 3.4 27.65 3.6 26.1 L2.65 24.8 Q1.35 23.45 0.65 21.4 -0.25 18.8 0.2 15.85 0.65 12.95 1.65 13.7 2.25 14.15 2.7 15.2 3.05 15.9 3.6 15.8 4.35 15.7 4.25 14.75 L4.15 11.65 Q4.3 9.6 5.0 9.3 5.7 9.05 6.25 10.4 6.8 11.65 7.35 11.5 7.85 11.3 7.7 10.3 7.4 7.85 8.3 7.35 8.55 7.2 8.75 7.7 9.0 8.25 9.6 8.1 10.45 7.9 10.05 0.1 L15.35 0.0 Q15.25 2.0 15.3 4.0 15.3 8.0 15.85 8.1 16.45 8.25 16.85 7.75 17.2 7.3 17.45 7.45 18.35 8.05 18.05 10.45 17.95 11.45 18.45 11.65 19.0 11.85 19.5 10.6 20.05 9.25 20.75 9.55" fill="url(#gradient26)" fill-rule="evenodd" stroke="none"/>
    </g>
    <radialGradient cx="0" cy="0" gradientTransform="matrix(0.0279, -4.0E-4, 0.0, -0.0279, 12.45, 23.4)" gradientUnits="userSpaceOnUse" id="gradient26" r="819.2" spreadMethod="pad">
      <stop offset="0.011764705882352941" stop-color="#cc861c"/>
      <stop offset="1.0" stop-color="#662500"/>
    </radialGradient>
    <g id="sprite15" transform="matrix(1.0, 0.0, 0.0, 1.0, 0.0, 0.0)">
      <use height="1.5" transform="matrix(1.0, 0.0, 0.0, 1.0, 0.0, 0.0)" width="13.6" xlink:href="#shape4"/>
    </g>
    <g id="sprite16" transform="matrix(1.0, 0.0, 0.0, 1.0, 0.0, 0.0)">
      <use height="17.25" transform="matrix(1.0037, 0.0, 0.0, 1.0, 0.0, 0.0)" width="13.55" xlink:href="#shape5"/>
    </g>
    <g id="sprite17" transform="matrix(1.0, 0.0, 0.0, 1.0, 0.0, 0.0)">
      <use height="17.25" transform="matrix(1.0, 0.0, 0.0, 1.0, 0.0, 0.0)" width="13.55" xlink:href="#shape6"/>
    </g>
    <g id="shape19" transform="matrix(1.0, 0.0, 0.0, 1.0, -23.7, -25.4)">
      <path d="M33.25 27.9 Q34.55 30.05 34.55 32.8 34.55 35.9 33.85 37.15 32.7 39.2 29.15 39.2 26.0 39.25 24.75 37.65 23.7 36.25 23.7 33.1 23.7 30.05 25.15 27.8 26.65 25.45 29.05 25.4 31.75 25.4 33.25 27.9" fill="url(#gradient27)" fill-rule="evenodd" stroke="none"/>
      <path d="M25.35 38.2 L28.95 37.8 32.9 38.25 Q31.6 39.2 29.15 39.2 26.65 39.25 25.35 38.2" fill="#bbc737" fill-rule="evenodd" stroke="none"/>
    </g>
    <radialGradient cx="0" cy="0" gradientTransform="matrix(0.0136, -2.0E-4, 0.0, -0.0136, 28.15, 28.65)" gradientUnits="userSpaceOnUse" id="gradient27" r="819.2" spreadMethod="pad">
      <stop offset="0.0" stop-color="#9dd950"/>
      <stop offset="1.0" stop-color="#66912c"/>
    </radialGradient>
    <g id="sprite18" transform="matrix(1.0, 0.0, 0.0, 1.0, 0.0, 0.0)">
      <use height="34.45" transform="matrix(1.0, 0.0, 0.0, 1.0, 0.0, 0.0)" width="23.35" xlink:href="#shape20"/>
    </g>
    <g id="shape20" transform="matrix(1.0, 0.0, 0.0, 1.0, 0.0, 0.0)">
      <path d="M22.7 21.6 Q22.05 23.4 20.95 24.5 20.0 25.4 20.0 25.65 19.95 26.45 20.5 26.75 21.05 27.1 21.55 26.5 22.6 25.3 23.15 25.8 23.7 26.3 22.25 28.35 20.8 30.4 18.0 31.15 16.0 31.75 16.25 32.15 L16.95 33.6 Q17.0 34.1 16.25 34.25 L11.5 34.4 6.8 33.95 Q6.1 33.75 6.2 33.25 L6.9 31.85 Q7.2 31.45 5.15 30.7 2.4 29.75 1.0 27.6 -0.35 25.5 0.1 25.15 0.5 24.8 1.65 25.9 2.35 26.55 3.2 26.15 4.0 25.7 3.7 24.85 L2.55 23.8 Q1.45 22.8 0.8 20.85 0.05 18.45 0.35 16.0 0.6 13.55 1.5 14.25 L2.8 15.45 Q3.35 16.0 3.9 15.95 4.5 15.85 4.35 15.05 4.0 13.4 4.1 12.3 4.3 10.45 4.85 10.2 5.35 9.95 5.85 11.15 6.25 12.3 6.85 12.15 7.45 12.0 7.35 11.1 7.25 10.3 7.4 9.5 7.55 8.7 7.9 8.5 8.1 8.4 8.3 8.85 8.5 9.35 9.05 9.2 10.05 9.0 10.05 0.0 L10.6 0.2 12.25 0.45 13.75 0.5 13.8 4.8 Q13.95 9.1 14.65 9.35 15.15 9.55 15.55 9.1 15.9 8.65 16.1 8.8 16.9 9.35 16.6 11.45 16.45 12.3 16.9 12.5 17.4 12.7 17.9 11.6 18.4 10.4 19.0 10.7 19.65 11.0 19.75 12.8 L19.6 15.55 Q19.55 16.4 20.2 16.55 20.7 16.65 21.0 16.0 21.4 15.1 21.95 14.75 22.9 14.15 23.25 16.7 23.55 19.3 22.7 21.6" fill="url(#gradient28)" fill-rule="evenodd" stroke="none"/>
    </g>
    <linearGradient gradientTransform="matrix(1.0E-4, 0.0223, 0.0223, 3.0E-4, 11.9, 2.15)" gradientUnits="userSpaceOnUse" id="gradient28" spreadMethod="pad" x1="-819.2" x2="819.2">
      <stop offset="0.011764705882352941" stop-color="#ffffff"/>
      <stop offset="1.0" stop-color="#000000"/>
    </linearGradient>
    <g id="shape21" transform="matrix(1.0, 0.0, 0.0, 1.0, -24.8, -11.25)">
      <path d="M34.55 33.35 Q33.55 33.6 30.0 32.15 27.65 31.2 25.95 29.65 L24.8 28.3 24.95 28.0 25.15 27.7 25.9 28.3 Q26.95 29.0 28.65 29.25 L30.15 29.5 Q30.15 28.7 29.45 28.0 L28.95 27.6 29.45 27.75 30.35 28.4 Q30.95 29.1 30.95 29.6 L32.4 29.6 33.95 29.45 34.1 29.8 34.35 31.1 34.55 33.35" fill="#6d8c43" fill-rule="evenodd" stroke="none"/>
      <path d="M26.6 28.7 L26.9 28.8 26.55 29.0 25.95 29.65 25.8 29.5 Q26.2 28.85 26.6 28.7 M30.05 29.05 L29.75 28.4 30.3 28.3 30.35 28.4 30.7 28.85 30.05 29.05 M25.15 27.7 L25.4 27.95 26.15 28.5 Q25.9 28.7 25.55 29.25 L24.8 28.3 24.95 28.0 25.15 27.7 M29.6 28.15 L29.0 27.6 30.0 28.05 29.6 28.15 M33.35 29.5 L33.95 29.45 34.15 29.9 33.9 31.25 33.9 32.65 Q33.95 31.7 34.35 30.9 L34.35 31.1 34.55 33.35 34.3 33.35 34.4 32.25 33.75 33.3 33.6 33.3 33.55 31.15 33.3 33.25 33.2 33.25 33.2 30.6 32.65 33.1 31.9 32.85 31.9 30.3 31.15 32.6 30.35 32.3 30.55 30.65 30.25 31.1 29.85 32.1 29.2 31.8 29.55 29.95 29.3 30.4 Q28.95 30.95 28.75 31.6 L27.95 31.1 28.55 29.75 28.2 29.95 27.5 30.85 26.7 30.25 27.25 29.3 Q26.75 29.35 26.35 30.0 L26.05 29.7 27.2 28.9 27.95 29.1 27.45 29.55 27.2 30.2 27.6 29.8 Q28.1 29.4 28.55 29.25 L28.65 29.25 29.15 29.3 28.8 29.85 Q28.5 30.55 28.55 30.85 L28.85 30.3 29.8 29.45 30.15 29.5 30.15 29.3 30.85 29.15 30.95 29.6 31.4 29.6 30.9 30.85 30.75 31.75 31.0 30.9 Q31.4 29.9 32.05 29.6 L32.4 29.6 32.75 29.55 32.35 30.25 Q32.15 30.9 32.3 31.7 L32.55 30.9 Q32.9 30.0 33.35 29.5" fill="#c5eba9" fill-rule="evenodd" stroke="none"/>
      <path d="M29.1 32.5 L30.75 35.85 Q31.35 37.1 30.8 38.1 30.2 39.2 28.75 38.95 27.65 38.75 27.4 37.4 27.15 36.1 27.8 35.15 28.5 34.2 29.1 32.5" fill="#fcee21" fill-rule="evenodd" stroke="none"/>
      <path d="M28.95 33.75 L28.75 34.25 28.55 35.65 28.65 36.75 28.55 37.5 Q28.25 37.9 27.95 37.65 L27.6 37.0 Q27.55 36.6 28.0 35.55 L28.95 33.75" fill="#ffffff" fill-rule="evenodd" stroke="none"/>
      <path d="M30.05 35.5 L30.55 36.3 Q31.0 37.3 30.6 37.95 30.2 38.7 29.55 38.7 L29.05 38.6 Q29.55 38.65 30.1 38.05 30.9 37.15 30.05 35.5" fill="#dbc037" fill-rule="evenodd" stroke="none"/>
      <path d="M28.5 27.2 Q28.3 26.75 28.4 26.25 L28.55 25.8 29.1 26.15 Q29.6 26.6 29.55 27.0 29.55 27.5 29.15 27.6 28.7 27.7 28.5 27.2" fill="#518c27" fill-rule="evenodd" stroke="none"/>
      <path d="M28.85 27.5 Q28.35 28.35 27.55 27.7 L26.85 26.8 27.1 26.7 27.9 26.5 Q28.45 26.5 28.75 26.85 29.1 27.2 28.85 27.5" fill="#62a82f" fill-rule="evenodd" stroke="none"/>
      <path d="M32.75 13.5 L30.4 13.95 27.65 13.8 Q26.4 13.55 26.1 12.85 25.8 12.1 26.7 11.7 L29.05 11.3 31.8 11.4 Q33.05 11.65 33.35 12.35 33.65 13.1 32.75 13.5" fill="url(#gradient29)" fill-rule="evenodd" stroke="none"/>
    </g>
    <linearGradient gradientTransform="matrix(0.0045, 1.0E-4, 1.0E-4, -0.0046, 29.75, 12.6)" gradientUnits="userSpaceOnUse" id="gradient29" spreadMethod="pad" x1="-819.2" x2="819.2">
      <stop offset="0.011764705882352941" stop-color="#cc861c"/>
      <stop offset="1.0" stop-color="#662500"/>
    </linearGradient>
    <g id="sprite19" transform="matrix(1.0, 0.0, 0.0, 1.0, 0.0, -0.05)">
      <use height="3.6" transform="matrix(1.0054, 0.0, 0.0, 1.0, 0.0, 0.05)" width="9.45" xlink:href="#shape22"/>
    </g>
    <g id="shape22" transform="matrix(1.0, 0.0, 0.0, 1.0, 0.0, -0.05)">
      <path d="M8.5 2.95 L5.55 3.55 2.1 3.35 Q0.55 3.05 0.2 2.15 -0.2 1.25 0.9 0.75 2.0 0.3 3.85 0.2 L7.3 0.35 Q8.85 0.65 9.25 1.55 9.6 2.45 8.5 2.95 Z" fill="none" stroke="#edcc56" stroke-linecap="butt" stroke-linejoin="miter" stroke-width="0.25"/>
    </g>
    <g id="sprite20" transform="matrix(1.0, 0.0, 0.0, 1.0, 0.0, 0.0)">
      <use height="2.15" transform="matrix(1.0, 0.0, 0.0, 1.0, 0.0, 0.0)" width="2.0" xlink:href="#shape23"/>
    </g>
    <g id="shape23" transform="matrix(1.0, 0.0, 0.0, 1.0, 0.0, 0.0)">
      <path d="M1.05 0.05 L2.0 0.0 1.25 0.45 Q0.3 0.95 1.15 2.15 0.15 1.85 0.05 1.3 -0.05 0.8 0.15 0.45 0.4 0.0 1.05 0.05" fill="url(#gradient30)" fill-rule="evenodd" stroke="none"/>
    </g>
    <linearGradient gradientTransform="matrix(0.0, 0.0012, 0.0012, 0.0, 1.0, 0.65)" gradientUnits="userSpaceOnUse" id="gradient30" spreadMethod="pad" x1="-819.2" x2="819.2">
      <stop offset="0.011764705882352941" stop-color="#ffffff"/>
      <stop offset="1.0" stop-color="#000000"/>
    </linearGradient>
    <g id="sprite21" transform="matrix(1.0, 0.0, 0.0, 1.0, 0.0, 0.0)">
      <use height="2.05" transform="matrix(0.9565, 0.0, 0.0, 1.0244, 0.0, 0.0)" width="1.15" xlink:href="#shape12"/>
    </g>
    <g id="shape24" transform="matrix(1.0, 0.0, 0.0, 1.0, -26.5, -9.2)">
      <path d="M32.25 12.0 L29.65 12.45 Q27.1 12.45 27.1 12.0 27.1 11.5 29.65 11.5 32.25 11.5 32.25 12.0" fill="url(#gradient31)" fill-rule="evenodd" stroke="none"/>
      <path d="M32.1 12.1 L29.65 12.45 27.75 12.3 27.25 12.1 26.95 11.4 26.5 9.2 32.55 9.2 32.1 12.1" fill="url(#gradient32)" fill-rule="evenodd" stroke="none"/>
    </g>
    <linearGradient gradientTransform="matrix(0.0031, 0.0, 0.0, -0.0031, 29.65, 12.0)" gradientUnits="userSpaceOnUse" id="gradient31" spreadMethod="pad" x1="-819.2" x2="819.2">
      <stop offset="0.011764705882352941" stop-color="#522304"/>
      <stop offset="1.0" stop-color="#a85202"/>
    </linearGradient>
    <linearGradient gradientTransform="matrix(0.0037, 0.0, 0.0, -0.0037, 29.55, 10.85)" gradientUnits="userSpaceOnUse" id="gradient32" spreadMethod="pad" x1="-819.2" x2="819.2">
      <stop offset="0.011764705882352941" stop-color="#ebd47d"/>
      <stop offset="0.32941176470588235" stop-color="#ffe99e"/>
      <stop offset="1.0" stop-color="#c9b054"/>
    </linearGradient>
    <g id="sprite22" transform="matrix(1.0, 0.0, 0.0, 1.0, 0.0, 0.0)">
      <use height="4.05" transform="matrix(1.0, 0.0, 0.0, 1.0, 0.0, 0.0)" width="3.45" xlink:href="#sprite23"/>
    </g>
    <g id="sprite23" transform="matrix(1.0, 0.0, 0.0, 1.0, 0.0, 0.0)">
      <use height="4.1" transform="matrix(1.0, 0.0, 0.0, 0.9878, 0.0, 0.0)" width="3.45" xlink:href="#shape14"/>
    </g>
    <g id="shape25" transform="matrix(1.0, 0.0, 0.0, 1.0, -8.55, -8.5)">
      <path d="M31.65 8.7 Q32.55 8.9 32.55 9.15 32.55 9.4 31.65 9.6 L29.5 9.8 27.35 9.6 Q26.45 9.4 26.45 9.15 26.45 8.9 27.35 8.7 L29.5 8.5 31.65 8.7" fill="url(#gradient33)" fill-rule="evenodd" stroke="none"/>
      <path d="M27.15 10.1 L27.35 10.65 Q27.25 11.0 27.15 10.75 L27.0 10.25 Q27.0 9.9 27.15 10.1" fill="url(#gradient34)" fill-rule="evenodd" stroke="none"/>
      <path d="M27.65 10.9 Q27.9 11.1 27.8 11.35 L27.55 11.4 27.5 11.05 27.65 10.9" fill="url(#gradient35)" fill-rule="evenodd" stroke="none"/>
      <path d="M28.35 10.3 L28.4 10.7 28.25 10.65 28.35 10.3" fill="url(#gradient36)" fill-rule="evenodd" stroke="none"/>
      <path d="M29.85 10.8 Q30.15 10.85 30.05 11.15 30.0 11.5 29.75 11.5 L29.55 11.1 Q29.55 10.8 29.85 10.8" fill="url(#gradient37)" fill-rule="evenodd" stroke="none"/>
      <path d="M28.5 11.5 L28.6 11.85 Q28.5 12.1 28.3 12.0 L28.15 11.65 Q28.2 11.45 28.5 11.5" fill="url(#gradient38)" fill-rule="evenodd" stroke="none"/>
      <path d="M27.5 11.7 L27.55 12.0 27.35 12.05 27.35 11.85 27.5 11.7" fill="url(#gradient39)" fill-rule="evenodd" stroke="none"/>
      <path d="M29.55 11.95 L29.55 12.25 29.3 12.3 Q29.15 12.2 29.3 12.0 L29.55 11.95" fill="url(#gradient40)" fill-rule="evenodd" stroke="none"/>
      <path d="M31.85 10.4 L31.75 10.85 31.5 10.8 Q31.35 10.6 31.6 10.4 31.85 10.2 31.85 10.4" fill="url(#gradient41)" fill-rule="evenodd" stroke="none"/>
      <path d="M31.75 11.55 L31.75 11.9 31.65 11.9 31.65 11.65 31.75 11.55" fill="url(#gradient42)" fill-rule="evenodd" stroke="none"/>
      <path d="M27.9 9.2 L27.95 9.3 27.7 9.35 27.55 9.25 27.9 9.2" fill="url(#gradient43)" fill-rule="evenodd" stroke="none"/>
      <path d="M28.95 8.65 Q29.25 8.65 29.15 8.75 L28.8 8.85 28.7 8.75 Q28.75 8.65 28.95 8.65" fill="url(#gradient44)" fill-rule="evenodd" stroke="none"/>
      <path d="M28.6 8.9 Q29.2 9.0 28.4 9.2 L28.35 9.05 Q28.45 8.9 28.6 8.9" fill="url(#gradient45)" fill-rule="evenodd" stroke="none"/>
      <path d="M30.45 9.0 Q30.9 9.05 30.65 9.15 L30.15 9.3 Q29.95 9.25 30.1 9.1 L30.45 9.0" fill="url(#gradient46)" fill-rule="evenodd" stroke="none"/>
      <path d="M31.2 9.25 Q31.55 9.3 31.25 9.4 L30.8 9.4 30.85 9.3 31.2 9.25" fill="url(#gradient47)" fill-rule="evenodd" stroke="none"/>
      <path d="M29.4 9.5 Q29.7 9.5 29.55 9.6 L29.15 9.7 Q28.95 9.65 29.1 9.6 L29.4 9.5" fill="url(#gradient48)" fill-rule="evenodd" stroke="none"/>
      <path d="M30.35 8.65 L30.1 8.75 30.1 8.65 30.35 8.65" fill="url(#gradient49)" fill-rule="evenodd" stroke="none"/>
      <path d="M31.75 8.85 L31.95 8.95 31.65 9.05 31.55 8.9 31.75 8.85" fill="url(#gradient50)" fill-rule="evenodd" stroke="none"/>
      <path d="M17.6 17.25 L22.7 17.25 22.65 17.55 22.6 20.3 22.7 22.75 Q22.75 23.85 22.95 24.0 L23.1 24.05 23.45 23.85 23.65 23.6 24.05 23.4 24.4 23.5 Q25.1 24.0 25.1 25.5 L25.1 26.0 25.15 26.0 25.7 25.7 27.0 25.2 Q27.65 25.2 27.85 25.85 L28.15 27.5 28.2 28.3 28.15 29.65 29.0 29.35 29.95 29.1 Q30.15 28.95 30.35 28.95 31.05 29.0 31.5 30.15 L31.8 32.55 Q31.8 34.4 31.25 35.85 30.6 37.55 29.45 38.7 L29.95 38.7 Q31.85 38.7 31.85 40.05 31.85 40.95 30.9 42.25 29.7 43.9 27.6 44.7 L25.15 45.4 25.0 45.5 25.05 45.5 Q25.55 46.35 25.55 46.9 25.65 47.55 24.7 47.7 L23.6 47.95 22.25 48.1 19.15 48.1 14.85 47.7 Q14.0 47.5 14.05 46.85 14.05 46.3 14.75 45.35 L14.75 45.3 13.0 44.7 Q10.55 43.7 9.4 41.9 8.55 40.6 8.55 39.65 L8.55 39.45 Q8.6 38.85 9.05 38.45 9.5 38.1 10.1 38.1 L10.35 38.1 Q9.65 37.25 9.1 35.7 8.55 34.25 8.55 32.55 L8.6 32.2 8.6 32.05 Q8.6 30.65 9.0 29.65 9.55 28.55 10.2 28.5 L10.75 28.7 Q11.4 29.15 11.6 29.9 L11.75 30.2 11.85 30.25 11.95 30.25 11.85 27.85 Q11.95 26.5 12.4 26.0 12.8 24.95 13.55 24.95 14.2 24.95 14.6 25.95 L14.7 26.05 Q14.7 24.65 15.25 24.3 L15.25 24.25 Q15.4 23.65 16.0 23.3 L16.3 23.2 16.6 23.3 16.6 18.55 16.65 18.5 17.0 18.0 Q17.4 17.3 17.55 17.3 L17.6 17.25 M22.35 17.55 L17.75 17.5 16.9 18.7 16.95 20.75 16.85 24.15 16.55 23.7 Q16.4 23.45 16.15 23.55 15.65 23.85 15.55 24.4 L15.5 24.45 Q14.75 24.85 15.0 26.8 L15.05 26.95 14.35 26.1 Q14.0 25.2 13.5 25.3 13.05 25.3 12.65 26.15 12.3 26.5 12.15 27.9 L12.25 30.5 12.0 30.5 Q11.55 30.6 11.35 30.1 11.1 29.35 10.55 28.95 9.95 28.5 9.4 29.55 8.85 30.55 8.9 32.15 8.8 34.1 9.35 35.6 9.95 37.3 10.95 38.35 L11.7 39.4 11.6 39.5 11.45 39.4 11.15 38.9 Q10.55 38.25 9.75 38.45 8.95 38.7 8.85 39.45 8.75 40.35 9.65 41.7 10.95 43.65 13.4 44.5 15.2 45.1 14.95 45.5 14.35 46.35 14.35 46.75 14.3 47.2 14.95 47.4 L19.15 47.75 21.55 47.8 24.6 47.45 25.35 46.9 24.8 45.7 Q24.55 45.3 26.55 44.75 29.25 44.0 30.65 42.1 32.0 40.2 31.35 39.45 30.8 38.85 29.3 39.05 L28.45 39.3 29.45 38.3 Q30.4 37.3 30.95 35.75 31.8 33.6 31.45 31.25 31.1 28.9 30.1 29.3 L29.1 29.7 28.3 29.9 27.8 30.3 27.9 27.5 Q27.75 25.85 27.3 25.55 26.9 25.35 25.85 26.0 L25.25 26.3 24.75 26.7 24.75 26.25 24.75 24.75 Q24.6 24.0 24.25 23.75 24.0 23.65 23.7 24.05 23.35 24.45 22.8 24.3 22.35 24.15 22.3 20.85 L22.35 17.55" fill="#c7a040" fill-rule="evenodd" stroke="none"/>
    </g>
    <linearGradient gradientTransform="matrix(-0.0046, 0.0011, 0.0011, 0.0046, 29.0, 9.25)" gradientUnits="userSpaceOnUse" id="gradient33" spreadMethod="pad" x1="-819.2" x2="819.2">
      <stop offset="0.0" stop-color="#ffe99e"/>
      <stop offset="1.0" stop-color="#c9b054"/>
    </linearGradient>
    <linearGradient gradientTransform="matrix(-1.0E-4, -6.0E-4, -6.0E-4, 1.0E-4, 27.2, 10.5)" gradientUnits="userSpaceOnUse" id="gradient34" spreadMethod="pad" x1="-819.2" x2="819.2">
      <stop offset="0.0" stop-color="#ffe99e"/>
      <stop offset="1.0" stop-color="#c9b054"/>
    </linearGradient>
    <linearGradient gradientTransform="matrix(0.0, -4.0E-4, -4.0E-4, 0.0, 27.65, 11.25)" gradientUnits="userSpaceOnUse" id="gradient35" spreadMethod="pad" x1="-819.2" x2="819.2">
      <stop offset="0.0" stop-color="#ffe99e"/>
      <stop offset="1.0" stop-color="#c9b054"/>
    </linearGradient>
    <linearGradient gradientTransform="matrix(0.0, -4.0E-4, -4.0E-4, 0.0, 28.35, 10.5)" gradientUnits="userSpaceOnUse" id="gradient36" spreadMethod="pad" x1="-819.2" x2="819.2">
      <stop offset="0.0" stop-color="#ffe99e"/>
      <stop offset="1.0" stop-color="#c9b054"/>
    </linearGradient>
    <linearGradient gradientTransform="matrix(0.0, -5.0E-4, -5.0E-4, 0.0, 29.8, 11.2)" gradientUnits="userSpaceOnUse" id="gradient37" spreadMethod="pad" x1="-819.2" x2="819.2">
      <stop offset="0.0" stop-color="#ffe99e"/>
      <stop offset="1.0" stop-color="#c9b054"/>
    </linearGradient>
    <linearGradient gradientTransform="matrix(0.0, -4.0E-4, -4.0E-4, 0.0, 28.35, 11.8)" gradientUnits="userSpaceOnUse" id="gradient38" spreadMethod="pad" x1="-819.2" x2="819.2">
      <stop offset="0.0" stop-color="#ffe99e"/>
      <stop offset="1.0" stop-color="#c9b054"/>
    </linearGradient>
    <linearGradient gradientTransform="matrix(0.0, -3.0E-4, -3.0E-4, 0.0, 27.4, 11.9)" gradientUnits="userSpaceOnUse" id="gradient39" spreadMethod="pad" x1="-819.2" x2="819.2">
      <stop offset="0.0" stop-color="#ffe99e"/>
      <stop offset="1.0" stop-color="#c9b054"/>
    </linearGradient>
    <linearGradient gradientTransform="matrix(0.0, -3.0E-4, -3.0E-4, 0.0, 29.4, 12.1)" gradientUnits="userSpaceOnUse" id="gradient40" spreadMethod="pad" x1="-819.2" x2="819.2">
      <stop offset="0.0" stop-color="#ffe99e"/>
      <stop offset="1.0" stop-color="#c9b054"/>
    </linearGradient>
    <linearGradient gradientTransform="matrix(0.0, -4.0E-4, -4.0E-4, 0.0, 31.65, 10.7)" gradientUnits="userSpaceOnUse" id="gradient41" spreadMethod="pad" x1="-819.2" x2="819.2">
      <stop offset="0.0" stop-color="#ffe99e"/>
      <stop offset="1.0" stop-color="#c9b054"/>
    </linearGradient>
    <linearGradient gradientTransform="matrix(0.0, -3.0E-4, -3.0E-4, 0.0, 31.7, 11.75)" gradientUnits="userSpaceOnUse" id="gradient42" spreadMethod="pad" x1="-819.2" x2="819.2">
      <stop offset="0.0" stop-color="#ffe99e"/>
      <stop offset="1.0" stop-color="#c9b054"/>
    </linearGradient>
    <linearGradient gradientTransform="matrix(-6.0E-4, 0.0, 0.0, 6.0E-4, 27.7, 9.3)" gradientUnits="userSpaceOnUse" id="gradient43" spreadMethod="pad" x1="-819.2" x2="819.2">
      <stop offset="0.0" stop-color="#ffe99e"/>
      <stop offset="1.0" stop-color="#c9b054"/>
    </linearGradient>
    <linearGradient gradientTransform="matrix(-6.0E-4, 0.0, 0.0, 6.0E-4, 28.8, 8.75)" gradientUnits="userSpaceOnUse" id="gradient44" spreadMethod="pad" x1="-819.2" x2="819.2">
      <stop offset="0.0" stop-color="#ffe99e"/>
      <stop offset="1.0" stop-color="#c9b054"/>
    </linearGradient>
    <linearGradient gradientTransform="matrix(-7.0E-4, 0.0, 0.0, 7.0E-4, 28.5, 9.05)" gradientUnits="userSpaceOnUse" id="gradient45" spreadMethod="pad" x1="-819.2" x2="819.2">
      <stop offset="0.0" stop-color="#ffe99e"/>
      <stop offset="1.0" stop-color="#c9b054"/>
    </linearGradient>
    <linearGradient gradientTransform="matrix(-9.0E-4, 0.0, 0.0, 9.0E-4, 30.25, 9.1)" gradientUnits="userSpaceOnUse" id="gradient46" spreadMethod="pad" x1="-819.2" x2="819.2">
      <stop offset="0.0" stop-color="#ffe99e"/>
      <stop offset="1.0" stop-color="#c9b054"/>
    </linearGradient>
    <linearGradient gradientTransform="matrix(-7.0E-4, 0.0, 0.0, 7.0E-4, 30.95, 9.3)" gradientUnits="userSpaceOnUse" id="gradient47" spreadMethod="pad" x1="-819.2" x2="819.2">
      <stop offset="0.0" stop-color="#ffe99e"/>
      <stop offset="1.0" stop-color="#c9b054"/>
    </linearGradient>
    <linearGradient gradientTransform="matrix(-7.0E-4, 0.0, 0.0, 7.0E-4, 29.2, 9.6)" gradientUnits="userSpaceOnUse" id="gradient48" spreadMethod="pad" x1="-819.2" x2="819.2">
      <stop offset="0.0" stop-color="#ffe99e"/>
      <stop offset="1.0" stop-color="#c9b054"/>
    </linearGradient>
    <linearGradient gradientTransform="matrix(-5.0E-4, 0.0, 0.0, 5.0E-4, 30.15, 8.7)" gradientUnits="userSpaceOnUse" id="gradient49" spreadMethod="pad" x1="-819.2" x2="819.2">
      <stop offset="0.0" stop-color="#ffe99e"/>
      <stop offset="1.0" stop-color="#c9b054"/>
    </linearGradient>
    <linearGradient gradientTransform="matrix(-6.0E-4, 0.0, 0.0, 6.0E-4, 31.7, 8.95)" gradientUnits="userSpaceOnUse" id="gradient50" spreadMethod="pad" x1="-819.2" x2="819.2">
      <stop offset="0.0" stop-color="#ffe99e"/>
      <stop offset="1.0" stop-color="#c9b054"/>
    </linearGradient>
    <g id="sprite24" transform="matrix(1.0, 0.0, 0.0, 1.0, 0.0, 0.0)">
      <use height="37.85" transform="matrix(1.0, 0.0, 0.0, 1.0, 0.0, 0.0)" width="28.4" xlink:href="#shape26"/>
    </g>
    <g id="shape26" transform="matrix(1.0, 0.0, 0.0, 1.0, 0.0, 0.0)">
      <path d="M20.5 11.0 L21.25 10.6 Q22.55 9.8 23.05 10.05 23.65 10.4 23.8 12.5 23.95 14.25 23.7 16.0 L24.1 15.65 24.35 15.5 25.2 15.2 26.55 14.75 Q27.8 14.2 28.25 17.15 28.7 20.1 27.65 22.8 26.9 24.8 25.65 26.05 L24.6 27.2 25.55 26.9 Q27.45 26.65 28.15 27.4 28.95 28.35 27.25 30.7 25.5 33.1 22.1 34.05 19.6 34.7 19.95 35.2 20.7 36.35 20.65 36.75 20.65 37.2 19.7 37.4 L15.85 37.85 12.85 37.8 7.6 37.35 Q6.8 37.1 6.85 36.55 6.9 36.05 7.65 35.0 7.95 34.5 5.7 33.75 2.6 32.65 1.0 30.25 -0.1 28.55 0.0 27.4 0.1 26.45 1.1 26.15 2.15 25.9 2.9 26.75 L3.25 27.35 3.45 27.5 3.55 27.35 Q3.6 27.05 2.65 26.05 1.35 24.7 0.65 22.6 -0.05 20.75 0.05 18.3 0.0 16.3 0.7 15.05 1.35 13.75 2.1 14.3 2.8 14.8 3.15 15.75 3.35 16.35 3.95 16.25 L4.25 16.2 Q4.05 14.5 4.15 12.95 4.3 11.25 4.75 10.8 5.25 9.75 5.8 9.7 6.45 9.6 6.9 10.7 7.2 11.55 7.75 11.8 L7.7 11.6 Q7.4 9.15 8.3 8.65 L8.35 8.6 Q8.5 7.9 9.15 7.55 9.45 7.4 9.6 7.7 L10.0 8.3 Q10.25 6.1 10.05 1.45 L10.55 0.8 11.1 0.0 16.9 0.05 16.8 4.15 Q16.85 8.3 17.45 8.45 18.1 8.65 18.55 8.15 18.95 7.65 19.25 7.8 19.7 8.1 19.85 9.05 L19.85 10.9 19.85 11.45 Q20.2 11.0 20.5 11.0" fill="url(#gradient51)" fill-rule="evenodd" stroke="none"/>
    </g>
    <linearGradient gradientTransform="matrix(0.0026, 0.0228, 0.0228, -0.0026, 13.55, 17.75)" gradientUnits="userSpaceOnUse" id="gradient51" spreadMethod="pad" x1="-819.2" x2="819.2">
      <stop offset="0.011764705882352941" stop-color="#c46900"/>
      <stop offset="1.0" stop-color="#522302"/>
    </linearGradient>
    <g id="sprite25" transform="matrix(1.0, 0.0, 0.0, 1.0, 0.05, 0.0)">
      <use height="36.4" transform="matrix(1.0019, 0.0, 0.0, 1.0014, -0.0501, 0.0)" width="25.8" xlink:href="#shape17"/>
    </g>
    <g id="sprite26" transform="matrix(1.0, 0.0, 0.0, 1.0, 0.05, 0.0)">
      <use height="36.45" transform="matrix(1.0, 0.0, 0.0, 1.0, -0.05, 0.0)" width="25.85" xlink:href="#shape27"/>
    </g>
    <g id="shape27" transform="matrix(1.0, 0.0, 0.0, 1.0, 0.05, 0.0)">
      <path d="M20.75 9.65 Q21.45 9.95 21.6 12.0 L21.5 15.1 Q21.4 16.05 22.15 16.2 22.7 16.3 23.05 15.6 23.5 14.6 24.1 14.2 25.1 13.5 25.55 16.4 26.0 19.35 25.1 21.9 24.4 23.95 23.1 25.2 22.1 26.25 22.15 26.5 L23.65 26.45 Q24.8 25.15 25.55 26.2 26.3 27.25 24.75 29.5 23.15 31.8 20.05 32.75 17.8 33.4 18.1 33.85 L18.9 35.45 Q18.95 36.05 18.15 36.25 16.6 36.6 12.85 36.35 L7.6 35.9 Q6.8 35.65 6.85 35.1 6.9 34.6 7.65 33.55 7.95 33.05 5.7 32.3 2.6 31.2 1.0 28.8 -0.55 26.4 0.2 25.4 0.95 24.4 2.1 25.8 3.4 27.45 3.55 25.9 3.6 25.6 2.65 24.6 1.35 23.25 0.65 21.15 -0.25 18.5 0.2 15.6 0.6 12.75 1.65 13.5 2.25 13.95 2.7 15.0 3.0 15.75 3.55 15.65 4.3 15.55 4.25 14.55 L4.15 11.5 Q4.3 9.45 5.0 9.15 5.7 8.9 6.25 10.25 6.8 11.5 7.3 11.35 7.8 11.2 7.7 10.15 7.4 7.7 8.3 7.2 8.55 7.05 8.75 7.55 9.0 8.15 9.6 8.0 10.4 7.8 10.05 0.0 L15.35 0.0 Q15.25 2.0 15.3 4.0 15.3 8.0 15.85 8.15 16.4 8.3 16.85 7.8 17.2 7.35 17.45 7.5 18.35 8.1 18.05 10.45 17.9 11.5 18.4 11.7 18.95 11.9 19.5 10.65 20.05 9.35 20.75 9.65" fill="url(#gradient52)" fill-rule="evenodd" stroke="none"/>
    </g>
    <radialGradient cx="0" cy="0" gradientTransform="matrix(0.0279, 0.0, 0.0, -0.0279, 12.45, 23.35)" gradientUnits="userSpaceOnUse" id="gradient52" r="819.2" spreadMethod="pad">
      <stop offset="0.011764705882352941" stop-color="#cc861c"/>
      <stop offset="1.0" stop-color="#662500"/>
    </radialGradient>
    <g id="sprite27" transform="matrix(1.0, 0.0, 0.0, 1.0, -0.05, 0.0)">
      <use height="1.5" transform="matrix(1.0, 0.0, 0.0, 1.0, 0.05, 0.0)" width="13.6" xlink:href="#shape4"/>
    </g>
    <g id="sprite28" transform="matrix(1.0, 0.0, 0.0, 1.0, 0.0, 0.0)">
      <use height="17.25" transform="matrix(1.0, 0.0, 0.0, 1.0, 0.0, 0.0)" width="13.55" xlink:href="#shape5"/>
    </g>
    <g id="sprite29" transform="matrix(1.0, 0.0, 0.0, 1.0, 0.0, 0.0)">
      <use height="17.25" transform="matrix(1.0, 0.0, 0.0, 1.0, 0.0, 0.0)" width="13.55" xlink:href="#shape6"/>
    </g>
    <g id="shape28" transform="matrix(1.0, 0.0, 0.0, 1.0, -13.55, -30.7)">
      <path d="M18.85 30.7 Q21.55 30.7 23.1 33.3 24.35 35.4 24.35 38.15 24.35 41.3 23.7 42.5 22.55 44.5 19.0 44.5 15.85 44.45 14.6 42.85 13.55 41.45 13.55 38.3 13.55 35.2 14.95 33.0 16.5 30.65 18.85 30.7" fill="url(#gradient53)" fill-rule="evenodd" stroke="none"/>
      <path d="M15.15 43.4 L18.75 43.1 22.75 43.55 Q21.45 44.5 19.0 44.5 16.5 44.5 15.15 43.4" fill="#bbc737" fill-rule="evenodd" stroke="none"/>
    </g>
    <radialGradient cx="0" cy="0" gradientTransform="matrix(0.0136, 0.0, 0.0, -0.0136, 17.95, 33.9)" gradientUnits="userSpaceOnUse" id="gradient53" r="819.2" spreadMethod="pad">
      <stop offset="0.0" stop-color="#9dd950"/>
      <stop offset="1.0" stop-color="#66912c"/>
    </radialGradient>
    <g id="sprite30" transform="matrix(1.0, 0.0, 0.0, 1.0, 0.0, 0.0)">
      <use height="34.45" transform="matrix(1.0, 0.0, 0.0, 1.0, 0.0, 0.0)" width="23.35" xlink:href="#shape29"/>
    </g>
    <g id="shape29" transform="matrix(1.0, 0.0, 0.0, 1.0, 0.0, 0.0)">
      <path d="M22.7 21.75 Q22.05 23.6 20.95 24.65 20.0 25.55 20.0 25.75 19.95 26.55 20.5 26.9 21.05 27.25 21.55 26.65 22.6 25.5 23.15 26.0 23.7 26.5 22.25 28.5 20.8 30.5 18.0 31.25 16.0 31.8 16.25 32.2 L16.95 33.65 Q17.0 34.2 16.25 34.35 14.95 34.6 11.5 34.35 L6.8 33.85 Q6.05 33.65 6.15 33.15 6.2 32.75 6.9 31.75 7.15 31.35 5.15 30.6 2.35 29.6 1.0 27.45 -0.35 25.3 0.1 24.95 0.45 24.65 1.65 25.75 2.35 26.4 3.15 26.0 3.95 25.6 3.7 24.75 L2.55 23.65 Q1.45 22.6 0.8 20.7 0.05 18.3 0.35 15.85 0.6 13.4 1.5 14.05 L2.75 15.3 Q3.3 15.85 3.85 15.8 4.5 15.7 4.35 14.9 4.0 13.2 4.1 12.15 4.3 10.35 4.85 10.1 5.35 9.85 5.8 11.1 6.25 12.25 6.85 12.1 7.45 11.95 7.35 11.05 7.05 8.9 7.9 8.45 8.1 8.35 8.3 8.8 8.5 9.3 9.05 9.15 10.05 8.95 10.05 0.0 L12.25 0.45 13.75 0.5 13.8 4.8 Q13.95 9.1 14.65 9.4 15.15 9.6 15.55 9.15 15.9 8.7 16.1 8.85 16.45 9.1 16.6 9.9 L16.55 11.5 Q16.45 12.4 16.9 12.6 17.4 12.8 17.9 11.7 18.4 10.5 19.0 10.8 19.65 11.1 19.75 12.95 L19.6 15.65 Q19.55 16.5 20.2 16.65 20.65 16.75 20.95 16.15 21.4 15.25 21.95 14.9 22.9 14.3 23.25 16.9 23.55 19.5 22.7 21.75" fill="url(#gradient54)" fill-rule="evenodd" stroke="none"/>
    </g>
    <linearGradient gradientTransform="matrix(-3.0E-4, 0.0223, 0.0223, 3.0E-4, 11.9, 2.15)" gradientUnits="userSpaceOnUse" id="gradient54" spreadMethod="pad" x1="-819.2" x2="819.2">
      <stop offset="0.011764705882352941" stop-color="#ffffff"/>
      <stop offset="1.0" stop-color="#000000"/>
    </linearGradient>
    <g id="shape30" transform="matrix(1.0, 0.0, 0.0, 1.0, -14.65, -16.5)">
      <path d="M15.0 32.9 L15.75 33.55 Q16.8 34.25 18.5 34.5 L19.95 34.8 Q19.95 34.0 19.3 33.3 L18.8 32.9 19.3 33.05 20.2 33.7 20.8 34.9 22.25 34.9 23.75 34.8 23.95 35.15 24.2 36.45 24.35 38.7 23.45 38.65 19.85 37.45 Q17.5 36.45 15.8 34.9 L14.65 33.55 15.0 32.9" fill="#6d8c43" fill-rule="evenodd" stroke="none"/>
      <path d="M20.1 33.6 L20.2 33.7 20.55 34.15 19.9 34.3 19.6 33.7 20.1 33.6 M19.85 33.35 L19.45 33.5 19.3 33.3 18.8 32.9 Q19.2 32.9 19.85 33.35 M15.8 34.9 L15.65 34.7 Q16.05 34.05 16.4 33.9 L16.75 34.05 16.4 34.25 15.8 34.9 M16.2 35.25 L15.9 34.95 17.05 34.15 17.75 34.35 17.3 34.8 17.05 35.45 17.45 35.05 Q17.95 34.65 18.4 34.5 L18.5 34.5 19.0 34.6 18.65 35.1 18.35 36.1 18.65 35.55 Q19.1 34.95 19.65 34.7 L19.95 34.8 19.95 34.6 20.7 34.45 20.8 34.9 21.25 34.9 Q20.9 35.3 20.75 36.15 L20.55 37.1 20.85 36.2 Q21.2 35.25 21.85 34.9 L22.55 34.9 22.15 35.6 Q21.95 36.25 22.15 37.05 22.4 35.6 23.2 34.9 L23.75 34.8 23.95 35.25 23.75 36.6 23.75 38.0 Q23.75 37.1 24.15 36.25 L24.2 36.45 24.35 38.7 24.1 38.7 24.25 37.6 24.0 37.95 23.6 38.7 23.45 38.65 23.4 36.5 23.15 38.6 23.05 38.55 23.05 35.95 22.5 38.4 21.75 38.15 21.75 35.65 20.95 37.9 20.2 37.6 20.35 35.95 20.1 36.4 19.7 37.35 19.05 37.1 19.35 35.25 19.1 35.7 18.6 36.85 17.75 36.35 18.35 35.0 18.05 35.2 Q17.65 35.5 17.35 36.1 L16.5 35.5 17.1 34.55 16.8 34.7 16.2 35.25 M15.35 34.45 L14.65 33.55 15.0 32.9 15.25 33.15 16.0 33.7 15.35 34.45" fill="#c5eba9" fill-rule="evenodd" stroke="none"/>
      <path d="M18.95 37.75 L20.55 41.15 Q21.2 42.45 20.65 43.45 20.05 44.5 18.6 44.2 17.5 44.0 17.25 42.65 16.95 41.35 17.65 40.4 L18.55 38.7 18.95 37.75" fill="#fcee21" fill-rule="evenodd" stroke="none"/>
      <path d="M18.75 39.05 L18.6 39.5 18.35 40.9 18.5 42.05 18.4 42.75 Q18.1 43.15 17.75 42.9 L17.45 42.25 Q17.4 41.85 17.85 40.8 L18.75 39.05" fill="#ffffff" fill-rule="evenodd" stroke="none"/>
      <path d="M18.75 43.85 Q19.35 43.95 19.95 43.35 20.45 42.8 20.2 41.7 L19.9 40.8 20.4 41.65 Q20.85 42.6 20.45 43.3 20.05 44.0 19.35 44.0 L18.75 43.85" fill="#dbc037" fill-rule="evenodd" stroke="none"/>
      <path d="M18.35 32.5 Q18.15 32.05 18.25 31.5 L18.4 31.1 18.95 31.45 Q19.45 31.9 19.4 32.3 L18.95 32.9 Q18.5 32.95 18.35 32.5" fill="#518c27" fill-rule="evenodd" stroke="none"/>
      <path d="M18.7 32.8 Q18.15 33.65 17.35 32.9 L16.65 32.1 16.9 31.95 17.75 31.8 Q18.3 31.75 18.6 32.1 18.95 32.5 18.7 32.8" fill="#62a82f" fill-rule="evenodd" stroke="none"/>
      <path d="M22.6 18.75 L20.25 19.25 17.5 19.1 Q16.25 18.9 15.95 18.15 15.65 17.45 16.55 17.05 17.35 16.65 18.9 16.55 L21.65 16.7 Q22.9 16.9 23.15 17.65 23.5 18.35 22.6 18.75" fill="url(#gradient55)" fill-rule="evenodd" stroke="none"/>
    </g>
    <linearGradient gradientTransform="matrix(0.0045, 1.0E-4, 1.0E-4, -0.0046, 19.55, 17.9)" gradientUnits="userSpaceOnUse" id="gradient55" spreadMethod="pad" x1="-819.2" x2="819.2">
      <stop offset="0.011764705882352941" stop-color="#cc861c"/>
      <stop offset="1.0" stop-color="#662500"/>
    </linearGradient>
    <g id="sprite31" transform="matrix(1.0, 0.0, 0.0, 1.0, 0.0, 0.0)">
      <use height="3.65" transform="matrix(1.0, 0.0, 0.0, 1.0, 0.0, 0.0)" width="9.45" xlink:href="#shape31"/>
    </g>
    <g id="shape31" transform="matrix(1.0, 0.0, 0.0, 1.0, 0.0, 0.0)">
      <path d="M8.5 2.9 L5.55 3.5 2.1 3.35 Q0.55 3.05 0.2 2.15 -0.2 1.25 0.9 0.75 2.0 0.25 3.85 0.15 L7.3 0.3 Q8.85 0.6 9.25 1.5 9.6 2.4 8.5 2.9 Z" fill="none" stroke="#edcc56" stroke-linecap="butt" stroke-linejoin="miter" stroke-width="0.25"/>
    </g>
    <g id="sprite32" transform="matrix(1.0, 0.0, 0.0, 1.0, 0.0, 0.0)">
      <use height="2.1" transform="matrix(1.0, 0.0, 0.0, 1.0, 0.0, 0.0)" width="1.95" xlink:href="#shape32"/>
    </g>
    <g id="shape32" transform="matrix(1.0, 0.0, 0.0, 1.0, 0.0, 0.0)">
      <path d="M1.05 0.05 L1.95 0.0 1.25 0.45 Q0.3 0.95 1.1 2.1 0.1 1.8 0.05 1.3 -0.05 0.8 0.15 0.45 0.4 0.0 1.05 0.05" fill="url(#gradient56)" fill-rule="evenodd" stroke="none"/>
    </g>
    <linearGradient gradientTransform="matrix(0.0, 0.0012, 0.0012, 0.0, 1.0, 0.6)" gradientUnits="userSpaceOnUse" id="gradient56" spreadMethod="pad" x1="-819.2" x2="819.2">
      <stop offset="0.011764705882352941" stop-color="#ffffff"/>
      <stop offset="1.0" stop-color="#000000"/>
    </linearGradient>
    <g id="sprite33" transform="matrix(1.0, 0.0, 0.0, 1.0, 0.0, 0.0)">
      <use height="2.05" transform="matrix(0.9565, 0.0, 0.0, 1.0, 0.0, 0.0)" width="1.15" xlink:href="#shape12"/>
    </g>
    <g id="shape33" transform="matrix(1.0, 0.0, 0.0, 1.0, -16.35, -14.5)">
      <path d="M22.1 17.3 L21.35 17.6 19.5 17.75 17.7 17.6 Q16.95 17.5 16.95 17.3 16.95 17.1 17.7 16.95 L19.5 16.8 21.35 16.95 Q22.1 17.1 22.1 17.3" fill="url(#gradient57)" fill-rule="evenodd" stroke="none"/>
      <path d="M16.35 14.5 L22.35 14.5 22.15 16.1 21.95 17.4 19.5 17.75 17.6 17.6 17.05 17.45 16.75 16.7 16.35 14.5" fill="url(#gradient58)" fill-rule="evenodd" stroke="none"/>
    </g>
    <linearGradient gradientTransform="matrix(0.0031, 0.0, 0.0, -0.0031, 19.5, 17.3)" gradientUnits="userSpaceOnUse" id="gradient57" spreadMethod="pad" x1="-819.2" x2="819.2">
      <stop offset="0.011764705882352941" stop-color="#522304"/>
      <stop offset="1.0" stop-color="#a85202"/>
    </linearGradient>
    <linearGradient gradientTransform="matrix(0.0037, 0.0, 0.0, -0.0037, 19.35, 16.1)" gradientUnits="userSpaceOnUse" id="gradient58" spreadMethod="pad" x1="-819.2" x2="819.2">
      <stop offset="0.011764705882352941" stop-color="#ebd47d"/>
      <stop offset="0.32941176470588235" stop-color="#ffe99e"/>
      <stop offset="1.0" stop-color="#c9b054"/>
    </linearGradient>
    <g id="sprite34" transform="matrix(1.0, 0.0, 0.0, 1.0, 0.0, 0.0)">
      <use height="4.1" transform="matrix(1.0, 0.0, 0.0, 1.0, 0.0, 0.0)" width="3.45" xlink:href="#sprite35"/>
    </g>
    <g id="sprite35" transform="matrix(1.0, 0.0, 0.0, 1.0, 0.0, 0.0)">
      <use height="4.1" transform="matrix(1.0, 0.0, 0.0, 1.0, 0.0, 0.0)" width="3.45" xlink:href="#shape14"/>
    </g>
    <g id="shape34" transform="matrix(1.0, 0.0, 0.0, 1.0, -16.3, -13.8)">
      <path d="M22.35 14.45 L21.5 14.9 19.35 15.1 17.15 14.9 Q16.3 14.7 16.3 14.45 16.3 14.15 17.15 14.0 L19.35 13.8 21.5 14.0 Q22.35 14.15 22.35 14.45" fill="url(#gradient59)" fill-rule="evenodd" stroke="none"/>
      <path d="M17.0 15.35 Q17.25 15.6 17.15 15.95 17.05 16.3 16.95 16.1 L16.85 15.55 Q16.85 15.25 17.0 15.35" fill="url(#gradient60)" fill-rule="evenodd" stroke="none"/>
      <path d="M17.5 16.25 Q17.75 16.4 17.65 16.65 L17.4 16.7 17.35 16.35 Q17.35 16.1 17.5 16.25" fill="url(#gradient61)" fill-rule="evenodd" stroke="none"/>
      <path d="M18.2 15.6 L18.25 16.0 18.05 15.95 18.1 15.65 Q18.15 15.45 18.2 15.6" fill="url(#gradient62)" fill-rule="evenodd" stroke="none"/>
      <path d="M19.7 16.1 Q19.95 16.1 19.9 16.45 L19.6 16.75 19.35 16.4 Q19.4 16.1 19.7 16.1" fill="url(#gradient63)" fill-rule="evenodd" stroke="none"/>
      <path d="M18.35 16.8 L18.45 17.1 18.15 17.3 18.0 16.95 Q18.05 16.75 18.35 16.8" fill="url(#gradient64)" fill-rule="evenodd" stroke="none"/>
      <path d="M17.35 17.05 L17.35 17.3 17.2 17.35 17.15 17.1 Q17.25 16.9 17.35 17.05" fill="url(#gradient65)" fill-rule="evenodd" stroke="none"/>
      <path d="M19.35 17.25 L19.35 17.55 19.15 17.55 Q19.0 17.5 19.15 17.3 19.25 17.1 19.35 17.25" fill="url(#gradient66)" fill-rule="evenodd" stroke="none"/>
      <path d="M21.65 15.7 L21.55 16.15 21.35 16.1 Q21.2 15.9 21.45 15.7 21.65 15.5 21.65 15.7" fill="url(#gradient67)" fill-rule="evenodd" stroke="none"/>
      <path d="M21.6 16.85 L21.6 17.2 21.45 17.2 21.5 16.95 21.6 16.85" fill="url(#gradient68)" fill-rule="evenodd" stroke="none"/>
      <path d="M21.85 16.2 L21.75 16.45 21.75 16.3 21.85 16.2" fill="url(#gradient69)" fill-rule="evenodd" stroke="none"/>
      <path d="M17.75 14.5 L17.8 14.55 17.55 14.65 17.4 14.55 17.75 14.5" fill="url(#gradient70)" fill-rule="evenodd" stroke="none"/>
      <path d="M18.75 13.95 Q19.1 13.95 18.95 14.1 L18.65 14.15 18.55 14.1 18.75 13.95" fill="url(#gradient71)" fill-rule="evenodd" stroke="none"/>
      <path d="M18.45 14.25 Q19.05 14.3 18.25 14.5 L18.2 14.3 18.45 14.25" fill="url(#gradient72)" fill-rule="evenodd" stroke="none"/>
      <path d="M20.3 14.3 Q20.75 14.3 20.5 14.5 L20.0 14.55 Q19.8 14.5 19.95 14.4 L20.3 14.3" fill="url(#gradient73)" fill-rule="evenodd" stroke="none"/>
      <path d="M21.05 14.55 Q21.35 14.6 21.1 14.7 L20.65 14.7 20.7 14.55 21.05 14.55" fill="url(#gradient74)" fill-rule="evenodd" stroke="none"/>
      <path d="M19.25 14.8 L19.35 14.9 18.95 15.0 Q18.8 14.95 18.95 14.9 L19.25 14.8" fill="url(#gradient75)" fill-rule="evenodd" stroke="none"/>
      <path d="M21.6 14.15 Q22.1 14.2 21.45 14.35 L21.35 14.2 21.6 14.15" fill="url(#gradient76)" fill-rule="evenodd" stroke="none"/>
    </g>
    <linearGradient gradientTransform="matrix(-0.0046, 0.0011, 0.0011, 0.0046, 18.85, 14.55)" gradientUnits="userSpaceOnUse" id="gradient59" spreadMethod="pad" x1="-819.2" x2="819.2">
      <stop offset="0.0" stop-color="#ffe99e"/>
      <stop offset="1.0" stop-color="#c9b054"/>
    </linearGradient>
    <linearGradient gradientTransform="matrix(-1.0E-4, -6.0E-4, -6.0E-4, 1.0E-4, 17.05, 15.8)" gradientUnits="userSpaceOnUse" id="gradient60" spreadMethod="pad" x1="-819.2" x2="819.2">
      <stop offset="0.0" stop-color="#ffe99e"/>
      <stop offset="1.0" stop-color="#c9b054"/>
    </linearGradient>
    <linearGradient gradientTransform="matrix(0.0, -4.0E-4, -4.0E-4, 0.0, 17.5, 16.5)" gradientUnits="userSpaceOnUse" id="gradient61" spreadMethod="pad" x1="-819.2" x2="819.2">
      <stop offset="0.0" stop-color="#ffe99e"/>
      <stop offset="1.0" stop-color="#c9b054"/>
    </linearGradient>
    <linearGradient gradientTransform="matrix(0.0, -4.0E-4, -4.0E-4, 0.0, 18.15, 15.85)" gradientUnits="userSpaceOnUse" id="gradient62" spreadMethod="pad" x1="-819.2" x2="819.2">
      <stop offset="0.0" stop-color="#ffe99e"/>
      <stop offset="1.0" stop-color="#c9b054"/>
    </linearGradient>
    <linearGradient gradientTransform="matrix(0.0, -5.0E-4, -5.0E-4, 0.0, 19.65, 16.5)" gradientUnits="userSpaceOnUse" id="gradient63" spreadMethod="pad" x1="-819.2" x2="819.2">
      <stop offset="0.0" stop-color="#ffe99e"/>
      <stop offset="1.0" stop-color="#c9b054"/>
    </linearGradient>
    <linearGradient gradientTransform="matrix(0.0, -4.0E-4, -4.0E-4, 0.0, 18.2, 17.1)" gradientUnits="userSpaceOnUse" id="gradient64" spreadMethod="pad" x1="-819.2" x2="819.2">
      <stop offset="0.0" stop-color="#ffe99e"/>
      <stop offset="1.0" stop-color="#c9b054"/>
    </linearGradient>
    <linearGradient gradientTransform="matrix(0.0, -3.0E-4, -3.0E-4, 0.0, 17.25, 17.2)" gradientUnits="userSpaceOnUse" id="gradient65" spreadMethod="pad" x1="-819.2" x2="819.2">
      <stop offset="0.0" stop-color="#ffe99e"/>
      <stop offset="1.0" stop-color="#c9b054"/>
    </linearGradient>
    <linearGradient gradientTransform="matrix(0.0, -3.0E-4, -3.0E-4, 0.0, 19.25, 17.45)" gradientUnits="userSpaceOnUse" id="gradient66" spreadMethod="pad" x1="-819.2" x2="819.2">
      <stop offset="0.0" stop-color="#ffe99e"/>
      <stop offset="1.0" stop-color="#c9b054"/>
    </linearGradient>
    <linearGradient gradientTransform="matrix(0.0, -4.0E-4, -4.0E-4, 0.0, 21.5, 15.95)" gradientUnits="userSpaceOnUse" id="gradient67" spreadMethod="pad" x1="-819.2" x2="819.2">
      <stop offset="0.0" stop-color="#ffe99e"/>
      <stop offset="1.0" stop-color="#c9b054"/>
    </linearGradient>
    <linearGradient gradientTransform="matrix(0.0, -3.0E-4, -3.0E-4, 0.0, 21.55, 17.05)" gradientUnits="userSpaceOnUse" id="gradient68" spreadMethod="pad" x1="-819.2" x2="819.2">
      <stop offset="0.0" stop-color="#ffe99e"/>
      <stop offset="1.0" stop-color="#c9b054"/>
    </linearGradient>
    <linearGradient gradientTransform="matrix(0.0, -2.0E-4, -2.0E-4, 0.0, 21.8, 16.35)" gradientUnits="userSpaceOnUse" id="gradient69" spreadMethod="pad" x1="-819.2" x2="819.2">
      <stop offset="0.0" stop-color="#ffe99e"/>
      <stop offset="1.0" stop-color="#c9b054"/>
    </linearGradient>
    <linearGradient gradientTransform="matrix(-6.0E-4, 0.0, 0.0, 6.0E-4, 17.55, 14.55)" gradientUnits="userSpaceOnUse" id="gradient70" spreadMethod="pad" x1="-819.2" x2="819.2">
      <stop offset="0.0" stop-color="#ffe99e"/>
      <stop offset="1.0" stop-color="#c9b054"/>
    </linearGradient>
    <linearGradient gradientTransform="matrix(-6.0E-4, 0.0, 0.0, 6.0E-4, 18.65, 14.05)" gradientUnits="userSpaceOnUse" id="gradient71" spreadMethod="pad" x1="-819.2" x2="819.2">
      <stop offset="0.0" stop-color="#ffe99e"/>
      <stop offset="1.0" stop-color="#c9b054"/>
    </linearGradient>
    <linearGradient gradientTransform="matrix(-7.0E-4, 0.0, 0.0, 7.0E-4, 18.35, 14.35)" gradientUnits="userSpaceOnUse" id="gradient72" spreadMethod="pad" x1="-819.2" x2="819.2">
      <stop offset="0.0" stop-color="#ffe99e"/>
      <stop offset="1.0" stop-color="#c9b054"/>
    </linearGradient>
    <linearGradient gradientTransform="matrix(-9.0E-4, 0.0, 0.0, 9.0E-4, 20.1, 14.45)" gradientUnits="userSpaceOnUse" id="gradient73" spreadMethod="pad" x1="-819.2" x2="819.2">
      <stop offset="0.0" stop-color="#ffe99e"/>
      <stop offset="1.0" stop-color="#c9b054"/>
    </linearGradient>
    <linearGradient gradientTransform="matrix(-7.0E-4, 0.0, 0.0, 7.0E-4, 20.75, 14.65)" gradientUnits="userSpaceOnUse" id="gradient74" spreadMethod="pad" x1="-819.2" x2="819.2">
      <stop offset="0.0" stop-color="#ffe99e"/>
      <stop offset="1.0" stop-color="#c9b054"/>
    </linearGradient>
    <linearGradient gradientTransform="matrix(-7.0E-4, 0.0, 0.0, 7.0E-4, 19.05, 14.9)" gradientUnits="userSpaceOnUse" id="gradient75" spreadMethod="pad" x1="-819.2" x2="819.2">
      <stop offset="0.0" stop-color="#ffe99e"/>
      <stop offset="1.0" stop-color="#c9b054"/>
    </linearGradient>
    <linearGradient gradientTransform="matrix(-6.0E-4, 0.0, 0.0, 6.0E-4, 21.5, 14.25)" gradientUnits="userSpaceOnUse" id="gradient76" spreadMethod="pad" x1="-819.2" x2="819.2">
      <stop offset="0.0" stop-color="#ffe99e"/>
      <stop offset="1.0" stop-color="#c9b054"/>
    </linearGradient>
  </defs>
</svg>
