<?xml version="1.0" encoding="UTF-8" standalone="no"?>
<svg xmlns:xlink="http://www.w3.org/1999/xlink" height="124.0px" width="308.0px" xmlns="http://www.w3.org/2000/svg">
  <g transform="matrix(1.0, 0.0, 0.0, 1.0, 0.0, 0.0)">
    <use height="107.45" transform="matrix(1.0, 0.0, 0.0, 1.0, 11.0, 13.5)" width="274.5" xlink:href="#shape0"/>
    <use height="134.65" transform="matrix(1.0, 0.0, 0.0, 1.0, -41.0, 12.8)" width="331.15" xlink:href="#sprite0"/>
    <use height="107.45" transform="matrix(1.0, 0.0, 0.0, 1.0, 11.0, 13.5)" width="274.5" xlink:href="#sprite8"/>
    <use height="31.5" transform="matrix(1.0, 0.0, 0.0, 1.0, 9.6, 7.0)" width="292.0" xlink:href="#shape10"/>
  </g>
  <defs>
    <g id="shape0" transform="matrix(1.0, 0.0, 0.0, 1.0, -11.0, -13.5)">
      <path d="M265.3 96.2 Q267.1 104.3 266.45 108.2 265.6 113.4 260.4 114.2 257.55 114.65 254.05 114.2 L247.3 113.4 232.1 112.65 Q230.05 112.75 226.25 113.95 L218.75 116.3 Q208.0 119.3 197.95 117.75 L181.25 115.75 160.25 116.25 Q150.5 116.4 131.95 119.7 118.4 122.05 107.55 119.95 94.95 117.45 82.85 117.95 L61.25 119.5 Q49.0 120.2 40.55 119.0 31.85 117.75 30.9 115.0 30.65 114.35 32.15 111.3 34.25 107.0 35.3 103.3 39.4 89.1 34.6 68.45 29.4 46.1 19.65 27.55 14.8 18.3 11.0 13.5 L285.5 17.9 Q281.7 23.5 276.85 32.75 267.1 51.25 261.85 69.5 260.55 74.0 262.05 82.05 262.9 86.75 265.3 96.2" fill="#4f3b28" fill-rule="evenodd" stroke="none"/>
    </g>
    <g id="sprite0" transform="matrix(1.0, 0.0, 0.0, 1.0, 0.0, 0.0)">
      <clipPath id="clipPath0" transform="matrix(1.0, 0.0, 0.0, 1.0, 0.0, 0.0)">
        <use height="107.45" transform="matrix(1.0, 0.0, 0.0, 1.0, 52.0, 0.7)" width="274.5" xlink:href="#shape1"/>
      </clipPath>
      <g clip-path="url(#clipPath0)">
        <use height="109.25" transform="matrix(1.0, 0.0, 0.0, 1.0, 251.85, 0.0)" width="56.85" xlink:href="#sprite1"/>
        <use height="125.05" transform="matrix(1.0, 0.0, 0.0, 1.0, 77.35, 9.6)" width="94.05" xlink:href="#sprite2"/>
        <use height="126.6" transform="matrix(1.0, 0.0, 0.0, 1.0, 95.5, 2.8)" width="91.4" xlink:href="#sprite3"/>
        <use height="108.7" transform="matrix(1.0, 0.0, 0.0, 1.0, 247.4, 6.75)" width="30.55" xlink:href="#sprite4"/>
        <use height="108.7" transform="matrix(1.0, 0.0, 0.0, 1.0, 203.3, 6.75)" width="30.55" xlink:href="#sprite5"/>
        <use height="64.55" transform="matrix(1.0, 0.0, 0.0, 1.0, 0.5, 54.1)" width="330.65" xlink:href="#sprite6"/>
        <use height="88.55" transform="matrix(1.0, 0.0, 0.0, 1.0, 0.0, 17.75)" width="329.5" xlink:href="#sprite7"/>
      </g>
    </g>
    <g id="shape1" transform="matrix(1.0, 0.0, 0.0, 1.0, -52.0, -0.7)">
      <path d="M307.45 95.4 Q306.6 100.6 301.4 101.4 298.55 101.85 295.05 101.4 L288.3 100.6 273.1 99.85 Q271.05 99.95 267.25 101.15 L259.75 103.5 Q249.0 106.5 238.95 104.95 226.55 103.05 222.25 102.95 L201.25 103.45 Q191.5 103.6 172.95 106.9 159.4 109.25 148.55 107.15 135.95 104.65 123.85 105.15 L102.25 106.7 Q90.0 107.4 81.55 106.2 72.85 104.95 71.9 102.2 71.65 101.55 73.15 98.5 75.25 94.2 76.3 90.5 80.4 76.3 75.6 55.65 70.4 33.3 60.65 14.75 55.8 5.5 52.0 0.7 L326.5 5.1 Q322.7 10.7 317.85 19.95 308.1 38.45 302.85 56.7 301.55 61.2 303.05 69.25 303.9 73.95 306.3 83.4 308.1 91.5 307.45 95.4" fill="#ff0000" fill-rule="evenodd" stroke="none"/>
    </g>
    <g id="sprite1" transform="matrix(1.0, 0.0, 0.0, 1.0, 0.0, 0.0)">
      <use height="109.25" transform="matrix(1.0, 0.0, 0.0, 1.0, 0.0, 0.0)" width="56.85" xlink:href="#shape2"/>
    </g>
    <g id="shape2" transform="matrix(1.0, 0.0, 0.0, 1.0, 0.0, 0.0)">
      <path d="M41.25 48.9 Q40.5 72.45 44.85 90.75 47.0 99.9 49.3 104.35 L0.0 109.25 Q1.4 107.05 3.05 101.4 6.3 90.2 7.4 73.25 8.65 54.3 6.85 34.2 5.95 24.15 4.8 17.9 L56.85 0.0 Q54.85 3.7 51.9 11.7 46.05 27.6 41.25 48.9" fill="url(#gradient0)" fill-rule="evenodd" stroke="none"/>
    </g>
    <linearGradient gradientTransform="matrix(-0.0347, 0.0, 0.0, -0.0347, 28.45, 54.6)" gradientUnits="userSpaceOnUse" id="gradient0" spreadMethod="pad" x1="-819.2" x2="819.2">
      <stop offset="0.0" stop-color="#422811"/>
      <stop offset="0.6196078431372549" stop-color="#5a422b"/>
      <stop offset="1.0" stop-color="#2d1c0c"/>
    </linearGradient>
    <g id="sprite2" transform="matrix(1.0, 0.0, 0.0, 1.0, 0.0, 0.0)">
      <use height="125.05" transform="matrix(1.0, 0.0, 0.0, 1.0, 0.0, 0.0)" width="94.05" xlink:href="#shape3"/>
    </g>
    <g id="shape3" transform="matrix(1.0, 0.0, 0.0, 1.0, 0.0, 0.0)">
      <path d="M92.45 25.15 Q90.85 49.85 90.9 75.15 90.95 96.9 92.5 113.15 93.25 121.3 94.0 125.05 L0.0 109.05 Q4.05 103.6 7.85 95.5 15.45 79.25 14.4 65.8 12.45 40.95 6.55 18.0 3.6 6.5 1.0 0.0 L94.05 5.45 Q93.25 12.75 92.45 25.15" fill="url(#gradient1)" fill-rule="evenodd" stroke="none"/>
    </g>
    <linearGradient gradientTransform="matrix(-0.0574, 0.0, 0.0, -0.0574, 47.05, 62.55)" gradientUnits="userSpaceOnUse" id="gradient1" spreadMethod="pad" x1="-819.2" x2="819.2">
      <stop offset="0.0" stop-color="#422811"/>
      <stop offset="0.6196078431372549" stop-color="#5a422b"/>
      <stop offset="1.0" stop-color="#2d1c0c"/>
    </linearGradient>
    <g id="sprite3" transform="matrix(1.0, 0.0, 0.0, 1.0, 0.0, 0.0)">
      <use height="126.6" transform="matrix(1.0, 0.0, 0.0, 1.0, 0.0, 0.0)" width="91.4" xlink:href="#shape4"/>
    </g>
    <g id="shape4" transform="matrix(1.0, 0.0, 0.0, 1.0, 0.0, 0.0)">
      <path d="M88.35 25.55 Q84.9 50.6 83.0 76.15 81.4 98.1 81.65 114.55 81.75 122.8 82.2 126.6 L1.7 118.45 Q5.45 112.6 8.65 102.2 15.0 81.5 12.15 59.1 8.85 33.05 4.1 13.9 1.75 4.35 0.0 0.0 L91.4 5.65 Q90.05 13.05 88.35 25.55" fill="url(#gradient2)" fill-rule="evenodd" stroke="none"/>
    </g>
    <linearGradient gradientTransform="matrix(-0.0558, 0.0, 0.0, -0.0558, 45.7, 63.3)" gradientUnits="userSpaceOnUse" id="gradient2" spreadMethod="pad" x1="-819.2" x2="819.2">
      <stop offset="0.0" stop-color="#422811"/>
      <stop offset="0.6196078431372549" stop-color="#5a422b"/>
      <stop offset="1.0" stop-color="#2d1c0c"/>
    </linearGradient>
    <g id="sprite4" transform="matrix(1.0, 0.0, 0.0, 1.0, 0.0, 0.0)">
      <use height="108.7" transform="matrix(1.0, 0.0, 0.0, 1.0, 0.0, 0.0)" width="30.55" xlink:href="#shape5"/>
    </g>
    <g id="shape5" transform="matrix(1.0, 0.0, 0.0, 1.0, 0.0, 0.0)">
      <path d="M30.55 4.55 Q29.05 8.05 27.1 16.85 23.3 34.5 21.35 61.25 19.75 84.15 20.7 98.5 21.15 105.65 21.95 108.25 L0.0 108.7 Q1.4 107.45 2.7 102.05 5.3 91.25 4.85 70.45 L3.2 0.0 30.55 4.55" fill="url(#gradient3)" fill-rule="evenodd" stroke="none"/>
    </g>
    <linearGradient gradientTransform="matrix(-0.0186, 0.0, 0.0, -0.0186, 15.25, 54.35)" gradientUnits="userSpaceOnUse" id="gradient3" spreadMethod="pad" x1="-819.2" x2="819.2">
      <stop offset="0.0" stop-color="#422811"/>
      <stop offset="0.6196078431372549" stop-color="#5a422b"/>
      <stop offset="1.0" stop-color="#2d1c0c"/>
    </linearGradient>
    <g id="sprite5" transform="matrix(1.0, 0.0, 0.0, 1.0, 0.0, 0.0)">
      <use height="108.7" transform="matrix(1.0, 0.0, 0.0, 1.0, 0.0, 0.0)" width="30.55" xlink:href="#shape6"/>
    </g>
    <g id="shape6" transform="matrix(1.0, 0.0, 0.0, 1.0, 0.0, 0.0)">
      <path d="M30.55 4.55 Q29.05 8.05 27.1 16.85 23.3 34.5 21.35 61.25 19.75 84.15 20.7 98.5 21.15 105.65 21.95 108.25 L0.0 108.7 Q1.4 107.45 2.7 102.05 5.3 91.25 4.85 70.45 L3.2 0.0 30.55 4.55" fill="url(#gradient4)" fill-rule="evenodd" stroke="none"/>
    </g>
    <linearGradient gradientTransform="matrix(-0.0186, 0.0, 0.0, -0.0186, 15.3, 54.35)" gradientUnits="userSpaceOnUse" id="gradient4" spreadMethod="pad" x1="-819.2" x2="819.2">
      <stop offset="0.0" stop-color="#422811"/>
      <stop offset="0.6196078431372549" stop-color="#5a422b"/>
      <stop offset="1.0" stop-color="#2d1c0c"/>
    </linearGradient>
    <g id="sprite6" transform="matrix(1.0, 0.0, 0.0, 1.0, 0.0, 0.0)">
      <use height="64.55" transform="matrix(1.0, 0.0, 0.0, 1.0, 0.0, 0.0)" width="330.65" xlink:href="#shape7"/>
    </g>
    <g id="shape7" transform="matrix(1.0, 0.0, 0.0, 1.0, 0.0, 0.0)">
      <path d="M298.05 49.45 Q285.45 53.65 280.55 54.7 270.5 56.8 257.85 56.25 247.1 55.75 232.85 52.3 218.6 48.8 214.25 48.6 L194.7 47.4 Q181.45 45.95 169.55 42.15 163.05 40.1 157.75 41.25 154.2 42.0 147.75 45.4 139.75 49.65 134.75 51.55 125.45 55.0 113.9 56.4 94.25 58.8 67.9 60.1 L34.7 62.25 18.5 64.55 Q17.9 63.1 15.3 52.45 12.75 42.0 11.75 39.85 L11.7 39.8 Q15.8 41.0 19.25 41.0 23.9 41.0 31.15 39.05 41.95 36.15 68.75 35.2 L106.1 33.75 118.5 32.15 130.75 30.45 151.35 30.5 Q154.95 31.05 158.05 32.05 166.75 34.75 176.3 34.5 189.8 34.15 202.15 35.8 215.25 37.6 234.15 35.4 L245.15 34.5 Q250.1 34.5 252.85 36.2 258.85 40.0 269.7 40.45 280.65 40.9 292.15 37.75 300.5 35.45 308.7 37.8 L314.7 39.25 321.85 38.7 322.65 38.45 Q320.3 44.9 318.95 50.15 L309.1 48.6 Q303.55 47.65 298.05 49.45" fill="#57412a" fill-rule="evenodd" stroke="none"/>
      <path d="M329.05 17.8 Q326.1 18.05 322.9 19.15 308.7 24.05 303.2 25.3 291.9 27.8 277.8 27.35 265.85 26.95 250.0 23.25 234.2 19.55 229.3 19.4 L207.5 18.35 Q192.75 16.95 179.5 12.85 165.4 8.5 156.0 9.2 L141.85 11.05 118.25 14.55 Q95.75 17.6 65.6 19.3 L27.65 22.2 3.85 25.85 Q2.2 18.7 0.0 11.4 7.05 13.5 9.95 13.7 15.75 14.05 25.2 11.35 37.15 7.95 67.05 6.5 L108.7 4.3 122.5 2.35 136.2 0.25 159.2 0.0 Q162.95 0.55 166.7 1.65 176.4 4.6 187.05 4.15 L215.95 5.2 Q230.55 7.0 251.7 4.3 L264.0 3.1 Q269.6 3.05 272.65 4.95 279.25 9.1 291.35 9.45 303.6 9.8 316.55 6.05 324.2 3.9 330.65 4.9 329.45 11.85 329.05 17.8" fill="#57412a" fill-rule="evenodd" stroke="none"/>
    </g>
    <g id="sprite7" transform="matrix(1.0, 0.0, 0.0, 1.0, 0.0, 0.0)">
      <use height="88.55" transform="matrix(1.0, 0.0, 0.0, 1.0, 0.0, 0.0)" width="329.5" xlink:href="#shape8"/>
    </g>
    <g id="shape8" transform="matrix(1.0, 0.0, 0.0, 1.0, 0.0, 0.0)">
      <path d="M318.3 45.3 L285.3 44.0 Q259.65 43.25 239.05 41.05 209.25 37.25 201.7 36.9 192.35 36.5 178.65 41.25 165.5 45.8 150.2 47.75 L127.25 49.6 Q122.0 49.95 105.0 54.4 87.85 58.9 74.4 59.85 58.2 61.0 44.7 58.75 38.05 57.65 20.65 52.95 L18.45 52.4 17.95 51.3 Q15.0 44.55 10.4 37.45 17.75 36.4 26.7 38.45 42.45 42.0 56.65 41.25 70.65 40.5 77.75 35.9 80.95 33.8 87.2 33.7 L100.95 34.6 Q124.5 36.85 139.95 34.6 154.2 32.5 169.85 32.75 180.85 32.9 190.4 29.7 193.8 28.55 197.7 27.85 L220.3 27.6 233.65 29.35 247.0 30.9 Q249.65 31.15 285.15 32.0 312.05 32.7 322.8 35.55 L323.5 35.75 Q320.65 40.35 318.3 45.3" fill="#583818" fill-rule="evenodd" stroke="none"/>
      <path d="M329.5 9.9 Q326.25 15.4 323.95 20.4 L289.35 18.7 Q262.55 17.65 240.9 15.05 209.6 10.6 201.65 10.15 191.85 9.65 177.45 14.75 163.6 19.7 147.55 21.7 L123.4 23.5 Q117.9 23.85 100.05 28.65 82.1 33.45 67.9 34.4 50.85 35.5 36.6 32.9 29.7 31.65 11.1 26.3 L8.75 25.7 8.25 24.5 Q4.95 16.95 0.0 9.1 7.65 7.95 17.2 10.3 33.9 14.4 48.9 13.7 63.65 13.0 71.1 7.9 74.45 5.6 81.05 5.55 L95.55 6.7 Q120.4 9.45 136.7 7.05 151.7 4.85 168.2 5.25 179.75 5.5 189.75 2.05 193.55 0.8 197.5 0.1 L221.25 0.0 235.3 2.05 249.3 3.9 289.3 5.45 Q317.55 6.4 328.75 9.7 L329.5 9.9" fill="#583818" fill-rule="evenodd" stroke="none"/>
      <path d="M310.75 78.7 L276.95 77.0 228.45 73.95 191.15 69.95 Q181.8 69.5 168.1 73.55 154.85 77.45 139.5 79.05 L116.4 80.45 Q110.8 80.75 98.45 83.55 83.9 86.8 75.4 87.95 L38.0 88.55 27.8 87.0 Q27.55 80.25 25.15 71.4 L49.45 72.2 Q60.6 71.25 66.65 67.85 69.9 66.05 76.2 66.0 L90.05 66.95 Q113.65 69.15 129.3 67.3 L159.3 65.95 Q170.3 66.2 179.85 63.45 L187.15 61.95 209.7 61.9 223.05 63.55 236.35 65.1 274.05 66.4 Q300.7 67.2 311.45 69.8 311.05 74.65 311.4 78.75 L310.75 78.7" fill="#583818" fill-rule="evenodd" stroke="none"/>
    </g>
    <g id="sprite8" transform="matrix(1.0, 0.0, 0.0, 1.0, 0.0, 0.0)">
      <use height="107.45" transform="matrix(1.0, 0.0, 0.0, 1.0, 0.0, 0.0)" width="274.5" xlink:href="#shape9"/>
    </g>
    <g id="shape9" transform="matrix(1.0, 0.0, 0.0, 1.0, 0.0, 0.0)">
      <path d="M265.85 19.25 Q256.1 37.75 250.85 56.0 249.55 60.5 251.05 68.55 251.9 73.25 254.3 82.7 256.1 90.8 255.45 94.7 254.6 99.9 249.4 100.7 246.55 101.15 243.05 100.7 L236.3 99.9 221.1 99.15 Q219.05 99.25 215.25 100.45 L207.75 102.8 Q197.0 105.8 186.95 104.25 L170.25 102.25 149.25 102.75 Q139.5 102.9 120.95 106.2 107.4 108.55 96.55 106.45 83.95 103.95 71.85 104.45 L50.25 106.0 Q38.0 106.7 29.55 105.5 20.85 104.25 19.9 101.5 19.65 100.85 21.15 97.8 23.25 93.5 24.3 89.8 28.4 75.6 23.6 54.95 18.4 32.6 8.65 14.05 3.8 4.8 0.0 0.0 L274.5 4.4 Q270.7 10.0 265.85 19.25" fill="url(#gradient5)" fill-rule="evenodd" stroke="none"/>
    </g>
    <linearGradient gradientTransform="matrix(0.0, 0.0656, 0.0656, 0.0, 137.25, 53.8)" gradientUnits="userSpaceOnUse" id="gradient5" spreadMethod="pad" x1="-819.2" x2="819.2">
      <stop offset="0.0" stop-color="#422811"/>
      <stop offset="1.0" stop-color="#4f3b28" stop-opacity="0.0"/>
    </linearGradient>
    <g id="shape10" transform="matrix(1.0, 0.0, 0.0, 1.0, -9.6, -7.0)">
      <path d="M289.35 21.3 Q273.15 23.95 241.2 21.7 229.1 27.4 211.6 28.7 203.8 29.3 184.95 28.9 L150.65 30.0 Q128.3 31.25 116.2 30.9 106.7 32.45 82.4 29.55 L44.2 24.55 17.05 21.2 Q9.2 19.5 10.0 15.0 10.55 11.95 17.95 11.15 23.8 10.5 41.15 10.75 101.9 11.7 142.75 10.0 236.3 6.1 268.8 7.25 285.65 7.9 293.35 9.9 300.3 11.7 301.55 15.15 302.2 19.25 289.35 21.3" fill="#4f3b28" fill-rule="evenodd" stroke="none"/>
      <path d="M293.35 17.8 Q297.35 18.0 301.45 16.35 297.95 18.4 296.7 20.65 295.4 23.05 292.9 24.65 289.45 26.85 277.3 26.3 L255.05 24.45 Q250.45 24.1 243.95 25.4 L231.35 28.45 Q213.05 32.95 197.5 31.75 L171.45 29.65 Q164.95 29.45 155.55 31.75 L140.75 35.3 Q129.25 37.7 117.75 38.3 84.15 40.05 46.9 27.3 42.25 25.75 35.05 27.0 26.9 28.45 21.05 27.3 11.85 25.55 10.0 20.05 9.45 18.3 9.7 16.4 L10.05 14.85 Q11.4 12.15 16.9 15.55 24.95 20.45 28.6 21.15 32.65 21.95 39.95 20.55 47.3 19.2 53.85 20.4 L80.9 26.3 Q101.25 30.25 114.05 28.9 123.65 27.9 143.6 28.25 160.5 28.55 166.95 27.05 174.6 25.25 186.0 25.95 L205.7 27.6 Q211.65 27.95 229.65 22.8 246.65 17.95 254.1 19.25 262.9 20.8 267.55 19.6 275.05 17.7 280.0 17.5 284.4 17.35 293.35 17.8" fill="#684d38" fill-rule="evenodd" stroke="none"/>
      <path d="M283.75 17.35 Q283.75 16.85 286.15 16.5 L291.95 16.15 297.75 16.5 Q300.15 16.85 300.15 17.35 300.15 17.85 297.75 18.15 L291.95 18.5 286.15 18.15 Q283.75 17.85 283.75 17.35" fill="#684d38" fill-rule="evenodd" stroke="none"/>
      <path d="M292.9 22.9 L296.75 19.85 299.55 17.1 300.35 16.55 301.45 16.35 Q299.75 19.15 298.4 20.5 296.75 22.15 292.9 24.65 289.45 26.85 277.3 26.3 L255.05 24.45 Q250.45 24.1 243.95 25.4 L231.35 28.45 Q213.05 32.95 197.5 31.75 L171.45 29.65 Q164.95 29.45 155.55 31.75 L140.75 35.3 Q129.25 37.7 117.75 38.3 84.15 40.05 46.9 27.3 42.25 25.75 35.05 27.0 26.9 28.45 21.05 27.3 13.95 25.95 11.2 22.3 9.35 19.8 9.65 16.6 10.45 23.6 21.05 25.55 26.9 26.7 35.05 25.25 42.25 24.0 46.9 25.55 84.15 38.3 117.75 36.55 129.25 35.95 140.75 33.55 L155.55 30.0 Q164.95 27.7 171.45 27.9 L197.5 30.0 Q213.05 31.2 231.35 26.75 L243.95 23.65 Q250.45 22.35 255.05 22.7 L277.3 24.55 Q289.45 25.1 292.9 22.9" fill="#5c4532" fill-rule="evenodd" stroke="none"/>
      <path d="M200.8 23.85 Q200.8 25.8 194.5 27.2 188.25 28.55 179.35 28.55 170.45 28.55 164.2 27.2 157.9 25.8 157.9 23.85 157.9 21.9 164.2 20.55 170.45 19.15 179.35 19.15 188.25 19.15 194.5 20.55 200.8 21.9 200.8 23.85" fill="#684d38" fill-rule="evenodd" stroke="none"/>
      <path d="M198.25 22.2 Q198.25 23.8 193.2 24.95 L181.05 26.05 Q173.9 26.05 168.9 24.95 163.85 23.8 163.85 22.2 163.85 20.6 168.9 19.5 173.95 18.35 181.05 18.35 188.15 18.35 193.2 19.5 198.25 20.6 198.25 22.2" fill="#4f3b28" fill-rule="evenodd" stroke="none"/>
      <path d="M108.0 26.3 L107.45 26.65 106.15 26.8 104.85 26.65 Q104.3 26.5 104.3 26.3 104.3 25.85 106.15 25.85 108.0 25.85 108.0 26.3" fill="#684d38" fill-rule="evenodd" stroke="none"/>
      <path d="M116.25 25.2 Q116.25 25.65 114.4 25.65 112.55 25.65 112.55 25.2 112.55 24.75 114.4 24.75 116.25 24.75 116.25 25.2" fill="#684d38" fill-rule="evenodd" stroke="none"/>
      <path d="M59.7 24.05 Q59.7 24.55 57.4 24.9 L51.85 25.25 46.3 24.9 Q44.0 24.55 44.0 24.05 44.0 23.55 46.3 23.15 L51.85 22.8 57.4 23.15 Q59.7 23.55 59.7 24.05" fill="#4f3b28" fill-rule="evenodd" stroke="none"/>
      <path d="M17.3 21.95 Q17.3 22.3 15.85 22.3 14.4 22.3 14.4 21.95 14.4 21.65 15.85 21.65 17.3 21.65 17.3 21.95" fill="#4f3b28" fill-rule="evenodd" stroke="none"/>
      <path d="M20.15 22.3 L19.05 22.55 17.9 22.3 Q17.9 22.05 19.05 22.05 L20.15 22.3" fill="#4f3b28" fill-rule="evenodd" stroke="none"/>
      <path d="M37.2 17.05 Q37.2 17.85 33.2 18.4 L23.55 19.0 13.85 18.4 Q9.85 17.85 9.85 17.05 9.85 16.25 13.85 15.65 L23.55 15.1 33.2 15.65 Q37.2 16.25 37.2 17.05" fill="#684d38" fill-rule="evenodd" stroke="none"/>
      <path d="M46.75 21.3 Q46.75 21.65 44.95 21.9 L40.6 22.15 36.25 21.9 Q34.45 21.65 34.45 21.3 34.45 20.95 36.25 20.65 L40.6 20.4 44.95 20.65 Q46.75 20.95 46.75 21.3" fill="#684d38" fill-rule="evenodd" stroke="none"/>
      <path d="M52.4 19.95 Q52.4 20.4 49.2 20.4 L46.0 19.95 Q46.0 19.45 49.2 19.45 52.4 19.45 52.4 19.95" fill="#684d38" fill-rule="evenodd" stroke="none"/>
      <path d="M29.85 24.6 Q29.75 25.0 26.6 25.0 23.4 24.9 23.45 24.45 23.45 24.0 26.65 24.1 29.85 24.1 29.85 24.6" fill="#4f3b28" fill-rule="evenodd" stroke="none"/>
      <path d="M71.25 23.3 Q71.25 23.75 68.05 23.75 64.8 23.75 64.8 23.3 64.8 22.85 68.05 22.85 71.25 22.85 71.25 23.3" fill="#4f3b28" fill-rule="evenodd" stroke="none"/>
      <path d="M102.45 23.0 Q102.45 23.35 100.55 23.6 L96.0 23.85 91.45 23.6 Q89.55 23.35 89.55 23.0 89.55 22.65 91.45 22.4 L96.0 22.15 100.55 22.4 Q102.45 22.65 102.45 23.0" fill="#4f3b28" fill-rule="evenodd" stroke="none"/>
      <path d="M91.0 24.1 L88.55 24.4 86.05 24.1 Q86.05 23.75 88.55 23.75 91.0 23.75 91.0 24.1" fill="#4f3b28" fill-rule="evenodd" stroke="none"/>
      <path d="M239.25 18.9 L236.8 19.2 234.3 18.9 Q234.3 18.55 236.8 18.55 239.25 18.55 239.25 18.9" fill="#4f3b28" fill-rule="evenodd" stroke="none"/>
      <path d="M66.75 24.85 L64.25 25.2 61.75 24.85 64.25 24.55 66.75 24.85" fill="#4f3b28" fill-rule="evenodd" stroke="none"/>
      <path d="M37.6 16.1 Q37.6 16.75 34.4 17.2 L26.65 17.7 18.9 17.2 Q15.7 16.75 15.7 16.1 15.7 15.45 18.9 14.95 L26.65 14.5 34.4 14.95 Q37.6 15.45 37.6 16.1" fill="#4f3b28" fill-rule="evenodd" stroke="none"/>
      <path d="M146.05 25.3 Q146.05 26.1 142.05 26.65 L132.4 27.25 122.75 26.65 Q118.75 26.1 118.75 25.3 118.75 24.5 122.75 23.9 L132.4 23.35 142.05 23.9 Q146.05 24.5 146.05 25.3" fill="#684d38" fill-rule="evenodd" stroke="none"/>
      <path d="M231.85 23.05 Q231.85 23.5 229.45 23.85 L223.65 24.2 217.85 23.85 Q215.45 23.5 215.45 23.05 215.45 22.55 217.85 22.2 L223.65 21.85 229.45 22.2 Q231.85 22.55 231.85 23.05" fill="#684d38" fill-rule="evenodd" stroke="none"/>
      <path d="M293.55 18.2 Q293.55 18.55 291.75 18.8 L287.4 19.05 283.05 18.8 Q281.25 18.55 281.25 18.2 281.25 17.85 283.05 17.55 L287.4 17.3 291.75 17.55 Q293.55 17.85 293.55 18.2" fill="#684d38" fill-rule="evenodd" stroke="none"/>
      <path d="M299.45 16.05 Q299.45 16.5 296.25 16.5 L293.05 16.05 Q293.05 15.6 296.25 15.6 299.45 15.6 299.45 16.05" fill="#684d38" fill-rule="evenodd" stroke="none"/>
      <path d="M276.75 18.45 Q276.75 18.9 273.55 18.9 270.35 18.9 270.35 18.45 270.35 18.0 273.55 18.0 276.75 18.0 276.75 18.45" fill="#4f3b28" fill-rule="evenodd" stroke="none"/>
      <path d="M288.85 21.05 Q288.85 21.4 286.95 21.65 L282.4 21.9 277.85 21.65 Q276.0 21.4 276.0 21.05 276.0 20.7 277.85 20.45 L282.4 20.2 286.95 20.45 Q288.85 20.7 288.85 21.05" fill="#4f3b28" fill-rule="evenodd" stroke="none"/>
      <path d="M297.8 17.35 Q297.8 17.7 295.95 17.95 L291.4 18.2 286.85 17.95 Q284.95 17.7 284.95 17.35 284.95 17.0 286.85 16.75 L291.4 16.5 295.95 16.75 Q297.8 17.0 297.8 17.35" fill="#4f3b28" fill-rule="evenodd" stroke="none"/>
      <path d="M97.9 16.1 Q97.9 16.45 96.0 16.7 L91.45 16.95 86.9 16.7 Q85.05 16.45 85.05 16.1 85.05 15.75 86.9 15.5 L91.45 15.25 96.0 15.5 Q97.9 15.75 97.9 16.1" fill="#4f3b28" fill-rule="evenodd" stroke="none"/>
      <path d="M271.45 21.55 L268.95 21.9 266.45 21.55 268.95 21.25 271.45 21.55" fill="#4f3b28" fill-rule="evenodd" stroke="none"/>
      <path d="M234.25 19.45 L233.15 19.7 232.05 19.45 Q232.05 19.2 233.15 19.2 L234.25 19.45" fill="#4f3b28" fill-rule="evenodd" stroke="none"/>
      <path d="M292.45 19.0 L291.35 19.25 290.25 19.0 Q290.25 18.75 291.35 18.75 292.45 18.75 292.45 19.0" fill="#4f3b28" fill-rule="evenodd" stroke="none"/>
      <path d="M72.3 19.45 L69.8 19.8 67.3 19.45 Q67.3 19.15 69.8 19.15 L72.3 19.45" fill="#4f3b28" fill-rule="evenodd" stroke="none"/>
      <path d="M65.35 20.35 L62.85 20.7 60.35 20.35 62.85 20.05 65.35 20.35" fill="#4f3b28" fill-rule="evenodd" stroke="none"/>
      <path d="M146.5 24.35 Q146.5 25.0 143.3 25.45 L135.55 25.95 127.8 25.45 Q124.6 25.0 124.6 24.35 124.6 23.7 127.8 23.2 L135.55 22.75 143.3 23.2 Q146.5 23.7 146.5 24.35" fill="#4f3b28" fill-rule="evenodd" stroke="none"/>
      <path d="M99.4 25.35 Q99.4 26.15 95.4 26.75 L85.75 27.3 76.05 26.75 Q72.05 26.15 72.05 25.35 72.05 24.55 76.05 23.95 L85.75 23.4 95.4 23.95 Q99.4 24.55 99.4 25.35" fill="#684d38" fill-rule="evenodd" stroke="none"/>
      <path d="M99.8 24.15 Q99.8 24.7 95.65 25.1 L85.65 25.5 75.6 25.1 Q71.45 24.7 71.45 24.15 71.45 23.6 75.6 23.2 L85.65 22.8 95.65 23.2 Q99.8 23.6 99.8 24.15" fill="#4f3b28" fill-rule="evenodd" stroke="none"/>
      <path d="M205.35 20.0 Q209.35 20.55 209.35 21.35 209.35 22.15 205.35 22.75 L195.7 23.3 186.0 22.75 Q182.0 22.15 182.0 21.35 182.0 20.55 186.0 20.0 L195.7 19.4 205.35 20.0" fill="#684d38" fill-rule="evenodd" stroke="none"/>
      <path d="M263.85 13.85 Q263.85 13.5 265.65 13.25 L270.0 13.0 274.35 13.25 Q276.15 13.5 276.15 13.85 276.15 14.25 274.35 14.5 L270.0 14.75 265.65 14.5 Q263.85 14.25 263.85 13.85" fill="#684d38" fill-rule="evenodd" stroke="none"/>
      <path d="M286.25 14.15 Q286.25 13.8 288.05 13.5 L292.4 13.25 296.75 13.5 Q298.55 13.8 298.55 14.15 298.55 14.5 296.75 14.75 L292.4 15.0 288.05 14.75 Q286.25 14.5 286.25 14.15" fill="#684d38" fill-rule="evenodd" stroke="none"/>
      <path d="M279.7 15.65 Q279.7 15.15 282.9 15.15 286.1 15.15 286.1 15.65 L282.9 16.1 Q279.7 16.1 279.7 15.65" fill="#684d38" fill-rule="evenodd" stroke="none"/>
      <path d="M243.75 16.05 Q246.95 16.05 246.95 16.55 L243.75 17.0 Q240.55 17.0 240.55 16.55 240.55 16.05 243.75 16.05" fill="#4f3b28" fill-rule="evenodd" stroke="none"/>
      <path d="M246.9 17.35 L251.45 17.6 Q253.35 17.85 253.35 18.2 253.35 18.55 251.45 18.8 L246.9 19.05 242.35 18.8 Q240.45 18.55 240.45 18.2 240.45 17.85 242.35 17.6 L246.9 17.35" fill="#4f3b28" fill-rule="evenodd" stroke="none"/>
      <path d="M251.85 19.3 Q251.85 18.95 254.35 18.95 256.85 18.95 256.85 19.3 L254.35 19.6 251.85 19.3" fill="#4f3b28" fill-rule="evenodd" stroke="none"/>
      <path d="M181.6 20.4 Q181.6 19.75 184.8 19.3 L192.55 18.85 200.3 19.3 Q203.5 19.75 203.5 20.4 203.5 21.05 200.3 21.55 L192.55 22.0 184.8 21.55 Q181.6 21.05 181.6 20.4" fill="#4f3b28" fill-rule="evenodd" stroke="none"/>
      <path d="M111.2 27.85 Q111.2 29.0 108.05 29.75 L100.35 30.55 92.7 29.75 Q89.55 28.95 89.55 27.85 89.55 26.75 92.7 26.0 L100.35 25.2 108.05 26.0 Q111.2 26.75 111.2 27.85" fill="#684d38" fill-rule="evenodd" stroke="none"/>
      <path d="M214.0 26.9 Q214.0 27.55 212.1 28.05 L207.5 28.5 202.95 28.05 Q201.05 27.55 201.05 26.9 201.05 26.25 202.95 25.75 L207.5 25.3 212.1 25.75 Q214.0 26.25 214.0 26.9" fill="#684d38" fill-rule="evenodd" stroke="none"/>
      <path d="M145.25 27.6 Q145.25 28.1 143.8 28.45 L140.35 28.8 136.95 28.45 Q135.5 28.1 135.5 27.6 135.5 27.1 136.95 26.75 L140.35 26.4 143.8 26.75 Q145.25 27.1 145.25 27.6" fill="#684d38" fill-rule="evenodd" stroke="none"/>
      <path d="M123.2 31.85 Q123.2 32.45 120.65 32.45 118.1 32.45 118.1 31.85 L118.85 31.4 120.65 31.2 122.45 31.4 Q123.2 31.6 123.2 31.85" fill="#684d38" fill-rule="evenodd" stroke="none"/>
      <path d="M105.45 34.05 Q105.45 34.7 102.95 34.7 100.4 34.7 100.4 34.05 100.4 33.8 101.15 33.6 L102.95 33.4 104.75 33.6 105.45 34.05" fill="#4f3b28" fill-rule="evenodd" stroke="none"/>
      <path d="M111.5 26.6 Q111.5 27.5 109.0 28.15 L102.85 28.75 96.75 28.15 Q94.2 27.5 94.2 26.6 94.2 25.65 96.75 25.05 L102.85 24.4 109.0 25.05 Q111.5 25.65 111.5 26.6" fill="#4f3b28" fill-rule="evenodd" stroke="none"/>
      <path d="M91.95 22.5 Q91.95 23.0 89.55 23.3 L83.75 23.65 77.95 23.3 Q75.55 23.0 75.55 22.5 75.55 22.0 77.95 21.7 L83.75 21.35 89.55 21.7 Q91.95 22.0 91.95 22.5" fill="#684d38" fill-rule="evenodd" stroke="none"/>
    </g>
  </defs>
</svg>
