<?xml version="1.0" encoding="UTF-8" standalone="no"?>
<svg xmlns:xlink="http://www.w3.org/1999/xlink" height="186.1px" width="143.05px" xmlns="http://www.w3.org/2000/svg">
  <g transform="matrix(1.0, 0.0, 0.0, 1.0, 0.0, 0.0)">
    <use height="22.45" transform="matrix(1.0, 0.0, 0.0, 1.0, 11.75, 163.65)" width="91.15" xlink:href="#sprite0"/>
    <use height="29.95" transform="matrix(1.0, 0.0, 0.0, 1.0, 18.6, 154.8)" width="94.15" xlink:href="#shape1"/>
    <use height="8.85" transform="matrix(1.0, 0.0, 0.0, 1.0, 27.75, 156.3)" width="28.1" xlink:href="#sprite1"/>
    <use height="3.05" transform="matrix(1.0, 0.0, 0.0, 1.0, 62.4, 161.25)" width="11.35" xlink:href="#sprite2"/>
    <use height="2.6" transform="matrix(1.0, 0.0, 0.0, 1.0, 83.2, 160.25)" width="9.1" xlink:href="#sprite3"/>
    <use height="1.5" transform="matrix(1.0, 0.0, 0.0, 1.0, 52.8, 167.9)" width="4.85" xlink:href="#sprite4"/>
    <use height="2.15" transform="matrix(1.0, 0.0, 0.0, 1.0, 90.0, 165.35)" width="7.9" xlink:href="#sprite5"/>
    <use height="1.45" transform="matrix(1.0, 0.0, 0.0, 1.0, 100.05, 163.7)" width="4.5" xlink:href="#sprite6"/>
    <use height="1.5" transform="matrix(1.0, 0.0, 0.0, 1.0, 75.8, 157.95)" width="4.0" xlink:href="#sprite7"/>
    <use height="1.95" transform="matrix(1.0, 0.0, 0.0, 1.0, 81.75, 171.05)" width="7.85" xlink:href="#sprite8"/>
    <use height="2.2" transform="matrix(1.0, 0.0, 0.0, 1.0, 21.35, 163.1)" width="5.6" xlink:href="#sprite9"/>
    <use height="166.55" transform="matrix(1.0, 0.0, 0.0, 1.0, 0.0, 0.0)" width="143.05" xlink:href="#shape11"/>
  </g>
  <defs>
    <g id="sprite0" transform="matrix(1.0, 0.0, 0.0, 1.0, -0.05, 0.0)">
      <use height="22.45" transform="matrix(1.0, 0.0, 0.0, 1.0, 0.05, 0.0)" width="91.15" xlink:href="#shape0"/>
    </g>
    <g id="shape0" transform="matrix(1.0, 0.0, 0.0, 1.0, -0.05, 0.0)">
      <path d="M89.35 10.25 Q93.1 12.5 89.15 14.7 83.0 17.35 80.35 19.2 76.9 21.65 73.1 22.2 L66.45 22.45 60.2 22.25 52.1 22.05 Q47.95 22.05 42.2 20.45 L32.9 17.95 23.35 16.85 10.8 15.15 Q0.85 13.25 0.1 11.45 -0.45 10.15 3.8 8.6 11.7 5.6 17.55 3.6 28.55 -0.1 32.45 0.0 42.95 0.3 63.5 3.9 84.95 7.6 89.35 10.25" fill="#000000" fill-rule="evenodd" stroke="none"/>
    </g>
    <g id="shape1" transform="matrix(1.0, 0.0, 0.0, 1.0, -18.6, -154.8)">
      <path d="M40.25 177.55 L31.25 176.8 25.65 175.85 22.3 175.2 Q20.6 175.25 19.8 173.65 18.95 171.95 18.7 168.95 L18.65 166.35 31.25 164.75 71.85 165.45 112.6 167.3 Q112.75 168.65 112.35 170.95 111.95 173.35 111.4 173.65 L108.3 176.0 105.6 177.6 Q104.0 178.5 101.7 179.2 L98.65 180.1 95.6 182.05 Q93.15 183.7 91.65 184.25 L88.35 184.7 Q85.55 184.5 83.7 184.65 L78.35 184.35 73.25 183.45 61.65 182.3 Q57.2 182.3 49.8 179.1 47.6 178.2 40.25 177.55" fill="#734f26" fill-rule="evenodd" stroke="none"/>
      <path d="M25.75 173.2 Q24.55 173.2 23.85 172.4 23.4 171.9 22.95 172.1 L22.2 172.55 21.6 172.5 20.55 172.0 19.25 172.2 Q18.8 170.55 18.65 168.3 L18.65 166.35 31.25 164.75 32.25 164.75 Q44.3 167.15 54.55 167.9 L91.4 165.95 112.6 167.3 Q112.75 168.65 112.35 170.95 111.95 173.35 111.4 173.65 L111.05 173.9 111.4 171.85 110.35 172.0 108.4 172.55 Q108.1 172.55 107.45 173.15 L105.55 174.45 103.8 175.3 102.3 175.65 Q101.35 175.85 100.9 176.2 L100.25 176.9 Q99.85 177.3 98.05 177.7 L94.8 178.0 Q93.6 178.25 93.3 178.5 L92.75 178.95 91.85 179.1 91.1 179.05 Q90.8 179.1 91.0 180.25 L91.35 182.45 90.7 184.55 90.25 184.65 Q90.7 183.35 90.05 181.8 L89.3 180.55 85.35 181.05 Q83.35 181.45 81.7 180.65 80.8 180.25 80.0 180.35 L78.7 180.55 73.65 180.95 69.0 180.4 67.0 179.95 65.85 179.55 64.95 179.35 64.65 179.45 62.85 178.65 61.05 178.5 60.0 178.55 57.55 178.25 Q56.7 177.7 55.5 177.55 L53.25 177.5 51.55 177.15 Q51.25 176.85 50.15 176.3 L48.55 175.4 Q48.1 175.0 47.45 175.0 L46.1 174.85 43.9 174.45 40.75 173.9 39.1 173.75 39.0 174.15 35.3 173.9 33.1 173.35 25.75 173.2" fill="#7d5925" fill-rule="evenodd" stroke="none"/>
      <path d="M23.55 173.15 Q24.2 173.3 24.25 173.75 24.35 174.2 23.7 174.35 23.15 174.5 22.4 173.95 21.7 173.4 22.15 173.35 L22.95 173.2 23.55 173.15" fill="#6e655c" fill-rule="evenodd" stroke="none"/>
      <path d="M26.15 173.8 Q26.95 173.85 26.8 174.2 26.65 174.5 26.05 174.5 25.5 174.5 25.55 174.15 25.6 173.8 26.15 173.8" fill="#6e655c" fill-rule="evenodd" stroke="none"/>
      <path d="M35.05 174.15 Q36.0 174.2 35.9 174.7 L35.05 175.25 33.85 175.05 33.25 174.55 Q32.95 174.05 35.05 174.15" fill="#6e655c" fill-rule="evenodd" stroke="none"/>
      <path d="M36.45 174.7 Q37.05 174.8 37.1 175.2 37.2 175.6 36.45 175.65 35.8 175.7 36.0 175.2 36.2 174.7 36.45 174.7" fill="#6e655c" fill-rule="evenodd" stroke="none"/>
      <path d="M49.0 176.6 Q49.5 176.7 49.7 177.35 49.9 178.0 49.3 177.9 L47.75 177.45 Q46.9 177.05 46.85 176.8 46.75 176.55 47.5 176.5 L49.0 176.6" fill="#6e655c" fill-rule="evenodd" stroke="none"/>
      <path d="M55.5 178.05 Q56.0 178.05 56.55 179.05 57.1 180.0 56.6 180.0 55.3 180.0 54.05 178.95 53.6 178.5 54.2 178.25 L55.5 178.05" fill="#6e655c" fill-rule="evenodd" stroke="none"/>
      <path d="M59.45 179.05 Q60.2 179.1 60.4 179.65 60.6 180.25 60.0 180.4 58.95 180.7 57.95 179.8 57.5 179.35 58.1 179.15 L59.45 179.05" fill="#6e655c" fill-rule="evenodd" stroke="none"/>
      <path d="M80.05 183.0 Q79.2 183.0 78.7 182.65 L77.65 181.8 Q77.05 181.35 78.1 181.1 L80.0 180.95 Q81.1 181.0 81.7 181.7 82.25 182.3 81.9 182.7 L81.3 183.05 80.05 183.0" fill="#6e655c" fill-rule="evenodd" stroke="none"/>
      <path d="M84.8 181.6 Q85.3 181.55 85.2 182.0 85.15 182.5 84.7 182.65 L84.05 182.65 83.45 182.1 Q83.2 181.75 83.5 181.75 L84.8 181.6" fill="#6e655c" fill-rule="evenodd" stroke="none"/>
      <path d="M88.15 182.15 Q88.65 182.15 89.05 182.55 89.4 183.0 89.1 183.4 L88.5 183.65 87.7 183.4 Q87.2 183.35 87.45 182.75 87.65 182.15 88.15 182.15" fill="#6e655c" fill-rule="evenodd" stroke="none"/>
      <path d="M95.45 179.45 Q96.2 179.45 95.65 180.2 95.1 181.0 93.95 181.4 L92.85 181.3 92.65 180.4 Q92.4 180.0 93.2 179.7 L95.45 179.45" fill="#6e655c" fill-rule="evenodd" stroke="none"/>
      <path d="M98.35 178.75 Q98.85 178.75 98.85 179.15 L98.2 179.65 Q97.5 179.75 97.6 179.25 97.75 178.75 98.35 178.75" fill="#6e655c" fill-rule="evenodd" stroke="none"/>
      <path d="M108.5 173.15 L109.7 173.2 108.95 174.3 108.3 174.85 107.4 175.05 Q106.7 175.1 107.25 174.25 107.75 173.45 108.5 173.15" fill="#6e655c" fill-rule="evenodd" stroke="none"/>
      <path d="M105.65 174.9 Q106.2 174.75 106.3 175.2 106.4 175.6 106.1 175.85 L105.7 176.05 105.0 175.95 Q104.55 175.9 104.8 175.45 105.0 175.05 105.65 174.9" fill="#6e655c" fill-rule="evenodd" stroke="none"/>
      <path d="M33.1 172.3 L23.2 171.05 Q20.0 170.45 19.3 169.65 18.4 168.6 18.65 166.6 L19.05 164.75 27.55 163.15 Q36.65 161.5 39.95 161.5 L74.8 162.3 Q109.95 163.35 111.4 164.45 112.85 165.6 112.75 167.95 L112.3 170.1 103.3 174.55 Q102.0 175.2 97.9 176.25 93.7 177.3 91.35 178.4 88.75 179.6 84.3 179.35 L78.6 178.95 75.45 179.45 Q73.8 179.7 71.9 179.5 L68.3 178.8 65.8 178.1 61.8 177.9 Q58.55 177.7 56.2 176.6 52.95 175.1 46.5 174.0 L33.1 172.3" fill="#47751f" fill-rule="evenodd" stroke="none"/>
      <path d="M22.5 167.4 Q18.1 166.6 18.9 164.55 19.55 162.75 23.9 160.5 33.55 155.45 42.25 155.0 59.9 154.05 78.85 157.15 89.5 158.9 106.75 162.7 117.55 164.65 106.15 169.15 96.55 173.0 85.25 174.55 70.25 176.6 57.95 172.45 54.2 171.2 42.3 169.95 L22.5 167.4" fill="#719931" fill-rule="evenodd" stroke="none"/>
    </g>
    <g id="sprite1" transform="matrix(1.0, 0.0, 0.0, 1.0, 0.0, 0.0)">
      <use height="8.85" transform="matrix(1.0, 0.0, 0.0, 1.0, 0.0, 0.0)" width="28.1" xlink:href="#shape2"/>
    </g>
    <g id="shape2" transform="matrix(1.0, 0.0, 0.0, 1.0, 0.0, 0.0)">
      <path d="M28.1 7.35 L23.45 8.4 Q18.8 9.25 10.5 8.5 -3.0 7.3 0.85 3.55 2.25 2.3 5.25 1.25 8.5 0.15 11.8 0.0 14.7 -0.1 21.7 3.6 25.2 5.45 28.1 7.35" fill="#000000" fill-rule="evenodd" stroke="none"/>
    </g>
    <g id="sprite2" transform="matrix(1.0, 0.0, 0.0, 1.0, 0.05, 0.0)">
      <use height="3.05" transform="matrix(1.0, 0.0, 0.0, 1.0, -0.05, 0.0)" width="11.35" xlink:href="#shape3"/>
    </g>
    <g id="shape3" transform="matrix(1.0, 0.0, 0.0, 1.0, 0.05, 0.0)">
      <path d="M11.3 2.5 L10.2 2.95 Q8.65 3.2 4.75 2.95 0.5 2.7 0.0 1.45 -0.45 0.25 2.5 0.1 L9.7 0.35 Q10.45 0.65 11.3 2.5" fill="#000000" fill-rule="evenodd" stroke="none"/>
    </g>
    <g id="sprite3" transform="matrix(1.0, 0.0, 0.0, 1.0, 0.0, 0.05)">
      <use height="2.6" transform="matrix(1.0, 0.0, 0.0, 1.0, 0.0, -0.05)" width="9.1" xlink:href="#shape4"/>
    </g>
    <g id="shape4" transform="matrix(1.0, 0.0, 0.0, 1.0, 0.0, 0.05)">
      <path d="M9.1 1.45 L7.8 2.2 3.6 2.35 Q0.65 1.8 0.1 1.2 -0.45 0.6 1.6 0.2 4.4 -0.3 6.75 0.3 L9.1 1.45" fill="#000000" fill-rule="evenodd" stroke="none"/>
    </g>
    <g id="sprite4" transform="matrix(1.0, 0.0, 0.0, 1.0, 0.1, -0.05)">
      <use height="1.5" transform="matrix(1.0, 0.0, 0.0, 1.0, -0.1, 0.05)" width="4.85" xlink:href="#shape5"/>
    </g>
    <g id="shape5" transform="matrix(1.0, 0.0, 0.0, 1.0, 0.1, -0.05)">
      <path d="M1.65 0.05 Q3.8 -0.1 4.5 0.65 5.2 1.45 3.75 1.55 1.65 1.65 0.35 0.95 -0.95 0.25 1.65 0.05" fill="#000000" fill-rule="evenodd" stroke="none"/>
    </g>
    <g id="sprite5" transform="matrix(1.0, 0.0, 0.0, 1.0, 0.05, 0.0)">
      <use height="2.15" transform="matrix(1.0, 0.0, 0.0, 1.0, -0.05, 0.0)" width="7.9" xlink:href="#shape6"/>
    </g>
    <g id="shape6" transform="matrix(1.0, 0.0, 0.0, 1.0, 0.05, 0.0)">
      <path d="M3.7 0.1 Q6.15 0.35 7.35 1.0 8.5 1.7 7.0 2.0 4.25 2.55 0.9 1.35 -0.65 0.8 0.3 0.35 L3.7 0.1" fill="#000000" fill-rule="evenodd" stroke="none"/>
    </g>
    <g id="sprite6" transform="matrix(1.0, 0.0, 0.0, 1.0, 0.05, 0.0)">
      <use height="1.45" transform="matrix(1.0, 0.0, 0.0, 1.0, -0.05, 0.0)" width="4.5" xlink:href="#shape7"/>
    </g>
    <g id="shape7" transform="matrix(1.0, 0.0, 0.0, 1.0, 0.05, 0.0)">
      <path d="M2.25 0.0 Q3.7 0.0 4.25 0.55 4.8 1.05 4.0 1.3 L2.55 1.4 0.6 1.1 Q-0.55 0.95 0.3 0.5 1.15 0.0 2.25 0.0" fill="#000000" fill-rule="evenodd" stroke="none"/>
    </g>
    <g id="sprite7" transform="matrix(1.0, 0.0, 0.0, 1.0, 0.0, 0.0)">
      <use height="1.5" transform="matrix(1.0, 0.0, 0.0, 1.0, 0.0, 0.0)" width="4.0" xlink:href="#shape8"/>
    </g>
    <g id="shape8" transform="matrix(1.0, 0.0, 0.0, 1.0, 0.0, 0.0)">
      <path d="M2.6 0.0 Q3.75 0.05 3.95 0.6 4.15 1.15 3.15 1.4 2.35 1.6 1.7 1.4 L0.4 0.85 Q-0.4 0.55 0.35 0.25 L2.6 0.0" fill="#000000" fill-rule="evenodd" stroke="none"/>
    </g>
    <g id="sprite8" transform="matrix(1.0, 0.0, 0.0, 1.0, 0.1, 0.05)">
      <use height="1.95" transform="matrix(1.0, 0.0, 0.0, 1.0, -0.1, -0.05)" width="7.85" xlink:href="#shape9"/>
    </g>
    <g id="shape9" transform="matrix(1.0, 0.0, 0.0, 1.0, 0.1, 0.05)">
      <path d="M4.2 0.1 Q6.7 0.45 7.45 0.9 8.15 1.35 7.1 1.7 L4.65 1.85 1.1 1.2 Q-1.0 0.85 0.55 0.3 L4.2 0.1" fill="#000000" fill-rule="evenodd" stroke="none"/>
    </g>
    <g id="sprite9" transform="matrix(1.0, 0.0, 0.0, 1.0, 0.0, 0.0)">
      <use height="2.2" transform="matrix(1.0, 0.0, 0.0, 1.0, 0.0, 0.0)" width="5.6" xlink:href="#shape10"/>
    </g>
    <g id="shape10" transform="matrix(1.0, 0.0, 0.0, 1.0, 0.0, 0.0)">
      <path d="M2.15 0.0 L2.2 0.0 Q6.45 0.4 5.35 1.45 4.2 2.6 1.85 2.0 -0.15 1.5 0.0 0.85 0.15 0.2 2.15 0.0" fill="#000000" fill-rule="evenodd" stroke="none"/>
    </g>
    <g id="shape11" transform="matrix(1.0, 0.0, 0.0, 1.0, 0.0, 0.0)">
      <path d="M13.7 68.5 L11.55 72.4 11.35 78.6 Q10.8 85.0 9.1 85.7 6.55 86.8 3.8 85.35 L1.6 83.65 Q0.95 82.7 0.45 81.1 -0.45 77.85 0.5 74.45 1.85 69.75 5.8 67.45 L9.5 66.15 10.2 66.25 11.65 66.75 Q12.65 67.3 13.7 68.5" fill="#8c5d27" fill-rule="evenodd" stroke="none"/>
      <path d="M12.35 68.4 Q15.05 67.9 14.5 72.85 14.0 77.15 11.55 82.85 9.55 87.45 6.85 85.9 4.2 84.35 4.25 78.65 4.3 74.25 7.5 71.2 9.85 68.9 12.35 68.4" fill="#693e0c" fill-rule="evenodd" stroke="none"/>
      <path d="M9.2 69.0 Q10.3 68.15 10.35 67.5 10.4 67.05 9.85 66.7 L9.35 66.4 10.15 66.6 Q10.6 66.75 12.1 67.8 L11.65 67.9 9.2 69.0" fill="#9e6d34" fill-rule="evenodd" stroke="none"/>
      <path d="M0.85 80.25 L1.5 81.45 2.8 83.4 5.4 85.45 4.6 85.15 Q2.3 84.35 1.85 83.25 L0.85 80.25" fill="#784a17" fill-rule="evenodd" stroke="none"/>
      <path d="M36.95 162.45 L34.35 160.25 34.75 156.45 Q35.05 154.6 36.5 151.95 L37.95 149.65 52.2 151.55 Q53.05 150.45 54.35 149.55 56.9 147.75 59.0 148.8 61.15 149.85 62.95 154.7 L64.35 159.3 63.95 160.1 Q63.25 161.0 61.9 161.8 57.65 164.35 48.45 164.5 41.05 164.65 36.95 162.45" fill="#784912" fill-rule="evenodd" stroke="none"/>
      <path d="M36.95 162.45 L34.35 160.25 34.75 156.45 Q35.05 154.6 36.5 151.95 L37.95 149.65 43.8 150.4 46.85 153.45 45.6 155.75 Q44.45 158.55 45.1 160.9 45.85 163.85 52.05 164.3 L48.45 164.5 Q41.05 164.65 36.95 162.45" fill="#693e0c" fill-rule="evenodd" stroke="none"/>
      <path d="M46.5 159.15 L49.6 161.25 Q53.6 163.3 58.0 163.35 L54.35 164.05 Q49.75 163.2 48.45 161.6 L46.5 159.15" fill="#693e0c" fill-rule="evenodd" stroke="none"/>
      <path d="M39.45 153.45 Q37.2 152.85 37.35 151.2 L37.95 149.65 Q42.55 146.85 55.1 147.8 59.1 148.15 60.0 149.75 60.95 151.4 57.55 152.8 54.15 154.2 48.55 154.35 43.25 154.45 39.45 153.45" fill="#855114" fill-rule="evenodd" stroke="none"/>
      <path d="M62.85 160.05 Q62.75 159.4 61.15 157.05 60.15 155.6 58.7 154.55 L57.4 153.8 Q57.8 153.95 58.9 153.15 L60.3 152.25 60.7 152.1 61.4 153.2 Q62.15 154.6 62.5 155.9 63.15 158.05 62.85 160.05" fill="#9e6d34" fill-rule="evenodd" stroke="none"/>
      <path d="M37.0 91.65 Q40.7 90.5 43.25 90.75 44.5 90.9 45.0 91.25 L47.45 102.9 52.2 124.65 Q55.3 138.0 59.5 149.35 L59.2 150.0 57.6 151.4 Q54.2 153.45 46.85 153.45 41.25 153.45 39.1 151.6 L38.05 149.75 Q38.6 146.7 38.7 141.5 39.0 131.05 37.1 120.15 35.15 109.3 32.6 99.8 L30.4 92.45 31.5 92.75 Q33.3 92.8 37.0 91.65" fill="#8c5d27" fill-rule="evenodd" stroke="none"/>
      <path d="M31.6 92.85 L32.85 91.9 37.85 90.8 38.2 90.7 46.2 92.2 46.7 94.75 Q46.4 95.55 45.4 96.4 44.15 97.45 42.1 98.3 40.05 99.2 38.6 99.25 L35.7 99.55 38.2 110.2 Q40.75 121.45 41.05 124.5 L41.6 134.05 42.1 142.8 Q42.8 148.6 44.3 149.9 44.85 150.35 44.5 149.35 43.85 147.45 43.75 146.05 L43.2 135.0 42.65 125.75 43.75 130.35 Q44.9 135.5 45.25 138.15 L45.95 145.65 Q46.55 150.85 48.0 152.6 L47.65 152.6 Q42.05 152.6 39.9 150.8 L38.85 148.95 Q39.4 145.9 39.5 140.65 39.8 130.2 37.9 119.35 35.3 104.45 31.6 92.85" fill="#784a17" fill-rule="evenodd" stroke="none"/>
      <path d="M41.05 108.5 L41.55 112.25 Q41.8 114.8 42.2 115.8 42.65 116.85 43.2 120.15 L43.95 124.1 Q44.4 125.4 44.5 131.4 43.75 129.5 43.15 126.7 L41.9 120.9 Q41.1 116.7 40.95 114.3 40.85 111.9 39.85 108.0 L38.9 104.55 Q38.3 102.05 38.5 101.55 L39.1 101.45 Q39.4 101.45 40.05 104.2 L41.05 108.5" fill="#784a17" fill-rule="evenodd" stroke="none"/>
      <path d="M41.6 101.8 L42.7 104.2 Q43.95 106.6 44.4 106.85 L45.75 107.4 47.05 108.4 Q47.65 109.45 47.3 112.85 47.15 112.25 47.15 110.75 47.15 109.7 46.4 108.95 45.75 108.3 45.05 108.35 44.4 108.4 43.9 109.1 43.35 109.9 43.15 111.3 42.85 113.25 44.3 117.15 42.8 114.7 42.6 113.1 L42.6 110.7 42.6 107.3 42.05 103.5 41.6 101.8" fill="#784a17" fill-rule="evenodd" stroke="none"/>
      <path d="M42.25 99.7 Q42.65 98.5 43.6 100.6 44.5 102.65 44.5 103.9 L44.4 104.6 44.05 103.5 42.95 101.45 Q42.15 100.1 42.25 99.7" fill="#a16a2f" fill-rule="evenodd" stroke="none"/>
      <path d="M44.95 98.25 Q45.15 97.9 45.45 98.5 L45.75 101.6 Q45.85 102.35 45.35 101.0 L44.8 99.15 Q44.7 98.55 44.95 98.25" fill="#d4933d" fill-rule="evenodd" stroke="none"/>
      <path d="M45.4 110.3 Q46.3 109.6 46.85 113.3 47.4 116.95 46.85 117.5 46.35 117.95 45.75 117.0 45.1 116.1 44.6 114.35 43.75 111.6 45.4 110.3" fill="#784a17" fill-rule="evenodd" stroke="none"/>
      <path d="M48.05 129.55 L47.2 124.65 46.5 121.6 49.35 129.1 Q49.85 130.5 49.9 132.65 L49.95 135.55 Q50.05 136.65 51.1 141.65 L52.55 148.4 Q53.15 150.7 54.75 152.45 L53.9 152.75 51.95 153.1 Q50.5 146.0 50.3 142.7 50.2 141.0 49.15 135.85 48.1 130.7 48.05 129.55" fill="#784a17" fill-rule="evenodd" stroke="none"/>
      <path d="M47.65 134.15 L48.4 137.25 Q49.1 140.5 49.0 141.55 48.9 142.85 47.95 140.15 46.95 137.45 46.9 135.65 L46.55 132.2 46.15 130.05 Q46.1 129.3 46.65 130.7 47.25 132.1 47.65 134.15" fill="#784a17" fill-rule="evenodd" stroke="none"/>
      <path d="M51.9 129.2 L52.45 130.95 53.15 133.85 Q53.4 135.0 53.0 135.65 52.6 136.3 52.2 135.15 51.85 134.2 51.85 131.6 L51.9 129.2" fill="#9e6d34" fill-rule="evenodd" stroke="none"/>
      <path d="M48.55 117.7 Q48.95 117.2 49.65 118.95 L50.4 122.0 Q50.45 123.15 49.95 123.0 49.5 122.8 49.0 121.9 48.6 121.15 48.4 119.6 48.2 118.05 48.55 117.7" fill="#9e6d34" fill-rule="evenodd" stroke="none"/>
      <path d="M55.55 145.8 L54.35 139.1 54.75 140.95 Q55.25 143.05 55.7 144.15 L57.6 149.6 Q57.55 150.35 57.2 150.15 56.9 150.0 56.35 148.65 55.75 147.2 55.55 145.8" fill="#9e6d34" fill-rule="evenodd" stroke="none"/>
      <path d="M48.65 156.9 L48.65 155.15 49.6 156.7 51.25 159.15 Q52.15 160.4 54.7 162.25 L52.25 161.0 Q50.7 160.2 49.55 158.5 L48.65 156.9" fill="#693e0c" fill-rule="evenodd" stroke="none"/>
      <path d="M63.8 56.45 L64.9 56.65 Q66.25 57.0 67.5 57.85 71.55 60.65 73.25 67.7 75.25 76.15 72.8 81.7 70.35 87.2 66.05 83.85 62.5 81.05 60.35 72.15 L58.9 63.8 Q59.7 60.75 61.8 58.3 L63.8 56.45" fill="#6e4415" fill-rule="evenodd" stroke="none"/>
      <path d="M38.35 70.45 Q43.7 69.0 50.05 65.15 55.35 61.95 58.4 60.65 59.95 60.0 60.4 60.0 L58.25 63.55 Q56.4 68.15 57.95 73.35 59.0 77.0 61.5 80.3 L63.8 82.9 57.45 82.5 Q50.8 82.25 49.1 83.2 46.15 84.8 45.65 85.65 44.95 86.85 45.4 90.4 45.65 92.6 47.05 93.8 L45.4 95.7 Q42.7 97.7 37.5 98.3 L30.35 97.95 29.05 96.95 Q29.55 94.95 29.1 92.5 28.2 87.65 23.55 85.5 18.95 83.4 13.25 83.75 L8.45 84.55 Q7.25 83.55 6.5 81.75 4.95 78.15 7.15 74.25 8.6 71.65 11.2 70.55 12.5 70.0 13.5 69.95 21.4 71.65 25.9 71.7 33.15 71.8 38.35 70.45" fill="#8c5d27" fill-rule="evenodd" stroke="none"/>
      <path d="M56.45 62.15 L58.2 63.65 Q56.45 68.15 57.95 73.35 59.0 77.0 61.5 80.3 L63.8 82.9 57.45 82.5 Q50.8 82.25 49.1 83.2 46.15 84.8 45.65 85.65 44.95 86.85 45.4 90.4 45.65 92.6 47.05 93.8 L46.6 94.55 44.65 96.2 Q44.7 96.0 43.85 96.0 43.0 96.0 43.05 95.75 44.25 89.95 43.05 85.5 L41.5 82.15 47.1 81.15 Q52.95 79.6 53.45 76.35 54.0 72.7 55.05 67.7 56.15 62.35 56.45 62.15" fill="#784a17" fill-rule="evenodd" stroke="none"/>
      <path d="M14.05 82.9 L9.25 83.7 Q7.55 82.3 6.9 79.8 9.15 80.85 15.35 81.6 L24.25 82.9 Q32.45 85.2 33.1 96.55 L34.05 97.15 35.05 97.7 Q32.1 97.7 30.7 96.95 L29.85 96.15 Q30.35 94.15 29.9 91.7 29.0 86.85 24.4 84.7 19.8 82.55 14.05 82.9" fill="#784a17" fill-rule="evenodd" stroke="none"/>
      <path d="M63.8 56.45 L62.3 60.0 Q60.95 64.85 61.75 71.4 62.65 78.1 65.8 82.25 67.35 84.35 68.75 85.1 L64.85 84.9 61.95 84.4 60.55 84.05 Q59.3 83.05 57.9 81.05 55.2 77.05 54.8 72.2 54.45 67.35 55.5 63.25 L56.65 60.1 Q58.35 58.75 59.95 57.85 61.75 56.85 63.8 56.45" fill="#8c5d27" fill-rule="evenodd" stroke="none"/>
      <path d="M66.4 60.4 Q68.65 59.75 70.7 64.6 72.3 68.5 72.7 72.4 73.7 82.25 69.4 80.85 65.7 79.6 64.3 70.5 62.95 61.4 66.4 60.4" fill="url(#gradient0)" fill-rule="evenodd" stroke="none"/>
      <path d="M87.35 65.55 L71.0 68.5 64.35 69.15 64.2 68.35 Q64.2 67.5 64.65 67.3 L69.6 66.55 Q75.35 65.35 79.45 63.2 83.55 61.0 86.35 58.25 L88.35 55.95 87.35 65.55" fill="url(#gradient1)" fill-rule="evenodd" stroke="none"/>
      <path d="M86.35 77.25 Q82.15 74.05 77.95 73.75 73.75 73.4 69.1 73.9 L65.35 74.45 Q64.55 72.7 65.05 72.2 L71.15 71.25 82.95 69.75 Q87.65 69.3 91.15 70.75 92.9 71.5 93.7 72.3 L89.7 80.4 Q88.45 78.85 86.35 77.25" fill="url(#gradient2)" fill-rule="evenodd" stroke="none"/>
      <path d="M6.75 79.35 Q8.85 79.75 14.25 79.3 20.1 78.8 24.1 79.25 28.9 79.85 30.55 82.25 31.35 83.45 31.2 84.55 28.4 81.0 26.45 80.5 23.75 79.7 14.0 80.3 L8.2 79.95 6.75 79.35" fill="#784a17" fill-rule="evenodd" stroke="none"/>
      <path d="M7.65 77.0 L8.35 77.25 10.5 77.6 13.85 77.3 17.45 76.8 24.75 77.6 22.9 77.4 Q21.45 77.25 18.75 77.4 L12.75 78.05 8.6 77.75 7.65 77.0" fill="#784a17" fill-rule="evenodd" stroke="none"/>
      <path d="M11.1 74.25 L13.95 74.75 Q15.2 75.1 14.4 75.15 14.2 75.15 12.5 75.8 L9.8 76.1 Q8.3 75.9 9.1 75.0 9.9 74.15 11.1 74.25" fill="#784a17" fill-rule="evenodd" stroke="none"/>
      <path d="M12.15 72.5 L14.85 72.65 Q16.75 72.85 18.4 73.95 20.0 75.0 22.65 75.55 L24.3 75.9 Q20.3 75.9 18.2 74.45 17.0 73.6 14.45 72.95 L12.15 72.5" fill="#784a17" fill-rule="evenodd" stroke="none"/>
      <path d="M32.3 87.05 L33.55 89.4 Q34.85 92.0 35.35 93.5 36.7 97.2 34.85 97.35 34.1 97.4 34.3 96.45 L34.65 95.5 34.15 92.85 33.05 88.95 32.3 87.05" fill="#784a17" fill-rule="evenodd" stroke="none"/>
      <path d="M39.45 80.05 Q40.2 79.2 42.75 78.9 46.05 78.5 47.45 77.9 50.6 76.6 51.75 75.05 L50.7 76.75 Q49.15 78.5 46.95 78.95 L42.5 79.85 Q40.65 80.35 40.1 80.9 39.25 81.7 40.0 84.15 L39.25 82.7 Q38.65 81.1 39.45 80.05" fill="#784a17" fill-rule="evenodd" stroke="none"/>
      <path d="M51.45 73.4 L50.25 74.75 Q48.85 76.1 47.75 76.1 46.45 76.1 48.2 74.85 49.95 73.6 51.45 73.4" fill="#784a17" fill-rule="evenodd" stroke="none"/>
      <path d="M35.05 72.3 L36.25 72.15 38.65 71.7 Q45.05 70.05 48.05 68.7 50.6 67.6 52.25 65.75 54.0 65.2 51.95 67.25 49.95 69.25 46.2 70.35 40.6 72.0 35.05 72.3" fill="#9e6d34" fill-rule="evenodd" stroke="none"/>
      <path d="M23.7 73.75 L28.4 73.45 39.95 72.65 50.45 70.35 39.55 73.5 30.95 74.25 23.7 73.75" fill="#9e6d34" fill-rule="evenodd" stroke="none"/>
      <path d="M30.4 75.25 Q32.3 75.35 31.25 76.15 30.25 77.0 28.75 76.75 27.3 76.55 28.05 75.85 28.75 75.2 30.4 75.25" fill="#9e6d34" fill-rule="evenodd" stroke="none"/>
      <path d="M18.95 72.0 L21.1 72.65 Q19.5 72.95 17.7 72.25 L14.3 71.25 12.25 70.75 14.85 71.0 Q17.65 71.4 18.95 72.0" fill="#9e6d34" fill-rule="evenodd" stroke="none"/>
      <path d="M39.75 89.5 Q39.6 88.1 38.85 86.1 L38.05 83.75 Q38.0 83.05 38.6 83.8 L39.75 85.8 Q40.5 87.35 40.8 92.85 40.1 91.95 39.75 89.5" fill="#9e6d34" fill-rule="evenodd" stroke="none"/>
      <path d="M41.1 85.8 L41.6 86.25 Q42.1 87.0 42.25 88.35 42.45 90.5 41.6 91.85 L41.6 90.7 41.1 85.8" fill="#9e6d34" fill-rule="evenodd" stroke="none"/>
      <path d="M56.95 61.0 Q58.65 59.45 61.85 58.4 L58.35 61.1 Q56.95 62.1 56.2 64.9 L56.2 64.0 56.6 62.2 56.95 61.0" fill="#9e6d34" fill-rule="evenodd" stroke="none"/>
      <path d="M57.6 78.95 L58.75 80.25 Q60.15 81.65 61.7 82.2 63.25 82.75 63.7 81.95 L63.9 81.0 64.2 81.55 66.45 84.25 65.4 84.2 Q61.8 84.05 60.95 83.4 L59.0 80.95 57.6 78.95" fill="#784a17" fill-rule="evenodd" stroke="none"/>
      <path d="M36.8 94.5 Q41.4 94.15 44.05 92.65 L45.8 91.25 47.3 92.9 Q48.85 95.0 49.1 96.95 49.5 100.0 48.4 102.05 L47.25 103.5 44.7 104.85 Q41.6 106.15 38.65 106.15 L34.55 105.85 33.95 105.55 Q32.15 105.25 30.65 103.6 27.65 100.35 29.05 93.7 L30.15 94.35 Q32.2 94.9 36.8 94.5" fill="#784912" fill-rule="evenodd" stroke="none"/>
      <path d="M29.05 93.7 L29.75 94.2 33.65 94.65 Q32.75 99.15 35.8 102.5 39.55 106.65 46.5 103.95 42.55 106.15 38.65 106.15 L34.55 105.85 33.95 105.55 Q32.15 105.25 30.65 103.6 27.65 100.35 29.05 93.7" fill="#693e0c" fill-rule="evenodd" stroke="none"/>
      <path d="M40.9 102.7 Q42.7 103.9 44.5 104.2 L45.95 104.3 41.15 103.9 Q38.6 103.3 37.35 101.3 L36.55 99.4 37.65 100.3 Q39.1 101.5 40.9 102.7" fill="#693e0c" fill-rule="evenodd" stroke="none"/>
      <path d="M45.15 94.65 Q45.95 94.65 46.35 93.15 L46.95 93.9 Q47.55 94.9 47.7 96.25 48.0 98.45 47.15 101.05 L46.9 98.3 Q46.75 96.6 45.95 95.45 L45.15 94.65" fill="#9e6d34" fill-rule="evenodd" stroke="none"/>
      <path d="M30.5 160.65 L31.9 160.45 30.8 161.35 Q29.7 162.25 29.85 164.35 L29.7 164.75 Q30.05 164.9 32.5 163.85 34.95 162.8 34.8 160.7 L34.15 158.8 34.6 159.15 35.65 160.6 Q36.4 162.1 35.25 165.15 L36.3 164.65 Q37.5 163.8 38.15 162.1 38.85 160.4 38.05 157.85 L37.1 155.7 38.9 157.3 Q40.05 158.35 40.4 160.45 L40.5 162.35 41.1 161.5 42.4 160.25 43.2 159.65 42.75 160.45 Q42.25 161.4 42.05 162.45 41.8 164.05 42.45 165.85 L38.6 166.55 28.6 165.05 Q27.9 164.8 27.75 164.0 27.55 163.05 28.3 162.0 28.95 161.05 30.5 160.65" fill="#719931" fill-rule="evenodd" stroke="none"/>
      <path d="M92.8 142.0 L95.7 139.15 94.4 141.3 Q93.15 143.5 92.4 145.8 L93.0 145.9 95.1 145.45 Q96.7 144.8 97.55 143.15 97.1 145.95 95.3 147.0 93.4 148.15 91.65 147.95 L91.3 148.85 Q90.95 150.15 90.95 152.0 90.95 154.95 92.3 161.75 91.85 162.2 89.55 162.45 88.1 162.65 87.2 161.9 L86.55 161.15 Q86.4 159.85 86.5 157.7 86.75 153.45 88.2 149.45 89.6 145.65 92.8 142.0" fill="#8c5d27" fill-rule="evenodd" stroke="none"/>
      <path d="M90.55 162.3 L89.55 162.45 Q88.1 162.65 87.2 161.9 L86.55 161.15 Q86.4 159.85 86.5 157.7 86.75 153.45 88.2 149.45 88.95 147.4 90.2 145.45 87.7 151.05 87.75 155.35 87.8 159.05 88.5 160.65 89.15 162.05 90.55 162.3" fill="#784a17" fill-rule="evenodd" stroke="none"/>
      <path d="M91.85 147.3 L93.9 147.0 Q96.15 146.3 97.15 144.6 96.45 146.35 95.3 147.0 93.3 148.15 91.75 147.95 L91.85 147.3" fill="#784a17" fill-rule="evenodd" stroke="none"/>
      <path d="M78.4 126.5 Q79.35 126.5 77.75 129.05 75.1 133.25 74.0 136.1 L73.3 138.9 Q75.65 139.8 76.1 138.75 76.4 138.05 76.3 136.4 L76.25 134.75 Q76.55 134.35 76.95 136.45 77.4 138.65 76.7 140.4 75.85 142.5 72.85 141.9 72.4 146.3 72.55 150.65 72.7 155.3 73.5 157.4 L75.25 162.35 74.5 163.45 Q73.35 164.5 71.25 164.3 69.15 164.1 68.4 163.35 L68.05 162.65 Q67.5 156.0 68.3 148.75 65.4 148.05 64.15 146.55 63.05 145.2 63.5 142.25 63.9 139.8 64.75 138.35 66.45 135.6 66.95 136.9 67.1 137.3 66.15 139.65 65.2 142.05 65.65 143.45 66.25 145.4 68.75 145.4 L69.25 142.7 Q70.65 136.85 73.0 132.5 71.1 130.75 71.1 129.8 71.1 128.95 71.75 128.1 72.3 127.35 72.6 127.45 72.85 127.5 72.45 128.35 72.0 129.5 72.65 130.45 L73.7 131.25 Q75.05 129.0 76.4 127.7 77.65 126.5 78.4 126.5" fill="#8c5d27" fill-rule="evenodd" stroke="none"/>
      <path d="M64.15 146.55 Q63.05 145.2 63.5 142.25 63.9 139.8 64.75 138.35 L65.9 136.8 Q65.0 138.2 64.45 140.5 63.75 143.2 64.3 144.85 64.9 146.65 67.1 147.1 L69.2 147.2 69.4 147.9 69.35 150.7 Q68.85 154.85 69.0 158.15 69.2 163.55 71.25 163.95 L73.15 164.15 71.25 164.3 Q69.15 164.1 68.4 163.35 L68.05 162.65 Q67.5 156.0 68.3 148.75 65.4 148.05 64.15 146.55" fill="#784a17" fill-rule="evenodd" stroke="none"/>
      <path d="M71.1 129.8 Q71.1 128.9 71.8 128.1 71.25 129.55 71.85 130.4 72.6 131.4 74.05 132.15 L72.95 134.55 Q71.7 137.4 71.2 139.7 70.35 143.4 70.25 145.1 L68.75 145.35 69.25 142.7 Q70.65 136.85 73.0 132.5 71.1 130.75 71.1 129.8" fill="#784a17" fill-rule="evenodd" stroke="none"/>
      <path d="M72.95 140.6 L74.4 141.05 Q76.05 141.15 77.0 139.25 L76.7 140.4 Q75.9 142.45 73.0 141.95 L72.95 140.6" fill="#784a17" fill-rule="evenodd" stroke="none"/>
      <path d="M78.15 127.15 Q78.8 126.75 78.45 127.6 78.15 128.45 77.2 129.3 76.4 130.0 74.4 134.1 L72.55 138.0 Q72.55 137.6 73.5 134.95 74.15 133.2 76.05 130.15 77.75 127.4 78.15 127.15" fill="#9e6d34" fill-rule="evenodd" stroke="none"/>
      <path d="M71.85 145.3 L71.8 143.2 Q72.15 144.3 71.75 154.2 L72.15 161.6 Q71.6 160.3 71.45 158.6 70.8 151.25 71.4 149.15 71.8 147.7 71.85 145.3" fill="#9e6d34" fill-rule="evenodd" stroke="none"/>
      <path d="M73.3 158.95 Q73.65 160.1 73.4 160.7 73.2 161.35 72.9 160.4 72.6 159.5 72.85 158.85 73.05 158.15 73.3 158.95" fill="#9e6d34" fill-rule="evenodd" stroke="none"/>
      <path d="M137.5 31.4 L143.05 37.1 123.8 43.7 136.4 118.15 124.8 117.9 122.45 115.1 107.3 106.5 89.15 123.1 74.65 125.2 87.35 90.0 97.9 47.2 84.75 48.75 72.15 43.7 87.5 30.4 137.5 31.4" fill="#719931" fill-rule="evenodd" stroke="none"/>
      <path d="M122.5 36.05 L116.55 38.0 113.95 38.9 117.95 70.15 Q122.1 102.3 122.9 106.5 L124.8 117.9 97.25 102.5 74.65 125.2 90.75 41.0 72.15 43.7 94.3 13.05 Q101.6 2.9 104.35 0.0 L114.35 9.65 128.3 22.6 Q133.55 27.05 137.5 31.4 L122.5 36.05" fill="#47751f" fill-rule="evenodd" stroke="none"/>
      <path d="M90.6 21.1 L86.15 28.3 Q81.7 35.65 81.65 36.7 81.6 37.75 84.8 38.55 L88.0 39.15 86.75 39.2 76.4 40.35 90.6 21.1" fill="#395e19" fill-rule="evenodd" stroke="none"/>
      <path d="M77.45 119.45 L80.95 102.4 81.75 111.15 Q81.85 112.6 87.55 108.5 L86.2 110.0 77.45 119.45" fill="#395e19" fill-rule="evenodd" stroke="none"/>
      <path d="M102.25 101.7 Q108.1 104.75 114.9 106.9 L120.55 108.45 121.75 113.9 Q118.7 111.65 115.1 109.65 L107.3 104.95 102.25 101.7" fill="#395e19" fill-rule="evenodd" stroke="none"/>
      <path d="M132.25 29.45 L125.85 32.15 Q126.6 31.55 126.95 30.45 127.65 28.3 125.85 26.0 124.0 23.7 120.3 20.1 L117.0 17.0 Q120.2 18.6 132.25 29.45" fill="#719931" fill-rule="evenodd" stroke="none"/>
      <path d="M109.9 9.05 L113.65 12.85 Q115.55 15.0 114.15 15.45 112.8 15.9 111.15 14.85 L109.75 13.65 Q107.8 15.0 105.75 17.15 104.35 18.55 103.15 18.15 102.1 17.8 102.0 16.8 101.9 16.1 105.1 13.85 L108.35 11.7 107.15 10.3 Q106.0 8.7 106.3 7.7 106.7 6.55 107.55 6.9 108.3 7.25 109.9 9.05" fill="#a2ad2d" fill-rule="evenodd" stroke="none"/>
      <path d="M109.6 20.35 Q108.7 21.85 110.2 22.7 111.95 23.75 113.2 22.0 114.45 20.25 111.7 19.35 110.55 18.95 109.6 20.35 M112.5 17.15 Q116.0 18.6 115.95 21.6 115.95 24.35 113.45 25.25 111.2 26.05 109.25 24.95 107.25 23.85 107.2 21.55 107.15 19.2 108.9 17.8 110.6 16.4 112.5 17.15" fill="#a2ad2d" fill-rule="evenodd" stroke="none"/>
      <path d="M97.0 32.4 Q95.2 34.4 96.25 36.0 97.2 37.4 98.45 37.15 99.1 37.0 98.65 35.8 98.1 34.35 98.4 33.8 L99.9 33.75 Q100.9 34.6 101.25 36.35 101.95 39.9 98.55 39.9 96.25 39.85 94.65 37.55 92.75 34.8 94.85 31.4 97.0 27.95 102.2 27.8 106.85 27.65 108.75 29.7 110.9 32.0 110.35 34.7 109.9 37.15 108.3 37.35 106.25 37.6 106.75 35.85 107.5 33.2 106.7 31.95 105.7 30.5 102.4 30.4 98.85 30.3 97.0 32.4" fill="#a2ad2d" fill-rule="evenodd" stroke="none"/>
      <path d="M94.85 43.6 Q95.0 43.05 98.8 41.9 L103.5 40.65 Q104.55 40.45 105.3 40.9 106.1 41.3 105.55 41.8 L104.8 42.5 106.1 43.65 Q107.35 45.05 107.1 46.15 106.8 47.5 105.85 47.6 104.9 47.7 104.85 46.5 104.75 43.35 101.45 43.55 L96.8 45.1 Q94.25 45.9 94.85 43.6" fill="#a2ad2d" fill-rule="evenodd" stroke="none"/>
      <path d="M95.55 51.4 Q94.95 52.95 96.5 53.4 97.55 53.7 98.9 53.4 100.3 53.15 101.35 52.4 102.8 51.35 101.8 50.1 101.0 49.15 98.6 49.55 96.1 49.95 95.55 51.4 M97.4 48.0 Q99.9 47.4 101.8 47.95 103.9 48.55 104.4 50.35 105.15 53.05 101.0 54.7 96.9 56.35 94.85 54.65 92.95 53.05 93.95 50.8 94.95 48.65 97.4 48.0" fill="#a2ad2d" fill-rule="evenodd" stroke="none"/>
      <path d="M99.95 60.35 Q99.45 59.1 97.65 59.1 96.1 59.05 94.65 59.9 93.7 60.5 93.85 62.05 94.0 63.75 95.9 63.5 98.15 63.25 99.3 62.5 100.5 61.65 99.95 60.35 M111.5 60.7 Q113.85 60.2 113.65 62.35 113.45 64.45 111.2 64.8 L100.3 66.55 Q92.65 67.6 92.1 66.65 91.6 65.7 92.45 65.1 92.85 64.8 93.35 64.7 L92.8 64.1 Q92.2 63.15 92.15 61.3 92.05 58.5 96.65 57.4 101.25 56.35 102.3 58.7 103.0 60.25 102.4 61.7 L101.65 62.85 111.5 60.7" fill="#a2ad2d" fill-rule="evenodd" stroke="none"/>
      <path d="M93.4 71.55 Q92.25 72.2 92.35 74.05 92.5 76.05 94.7 75.8 97.35 75.5 98.65 74.55 100.0 73.55 99.4 72.05 98.8 70.55 96.8 70.55 95.05 70.55 93.4 71.55 M101.8 70.5 Q102.6 72.3 102.05 73.85 101.8 74.65 101.35 75.05 L112.75 72.55 Q115.45 71.95 115.25 74.45 115.05 76.95 112.45 77.35 L99.85 79.35 Q90.95 80.6 90.35 79.45 89.75 78.35 90.7 77.65 91.15 77.3 91.75 77.15 L91.1 76.45 Q90.45 75.35 90.35 73.15 90.2 69.8 95.4 68.75 100.55 67.65 101.8 70.5" fill="#a2ad2d" fill-rule="evenodd" stroke="none"/>
      <path d="M113.6 83.45 Q112.05 86.15 100.85 86.5 90.1 86.9 89.0 85.5 88.2 84.55 92.15 83.7 L103.2 81.85 Q115.5 79.95 113.6 83.45" fill="#a2ad2d" fill-rule="evenodd" stroke="none"/>
      <path d="M99.85 92.05 L98.75 91.15 Q97.7 93.0 99.0 94.9 100.35 96.85 100.65 94.8 100.85 93.25 99.85 92.05 M89.15 97.4 Q87.95 95.35 89.2 92.1 90.65 88.45 94.25 87.85 97.3 87.35 99.85 88.95 103.2 91.1 102.6 95.1 102.0 99.05 99.3 97.85 97.2 96.9 96.6 93.8 L96.45 90.9 94.85 90.9 Q93.05 91.05 92.0 92.0 90.85 93.0 91.4 95.75 91.9 98.35 91.45 98.6 90.25 99.2 89.15 97.4" fill="#a2ad2d" fill-rule="evenodd" stroke="none"/>
    </g>
    <linearGradient gradientTransform="matrix(0.0047, 0.012, 0.012, -0.0047, 68.35, 70.6)" gradientUnits="userSpaceOnUse" id="gradient0" spreadMethod="pad" x1="-819.2" x2="819.2">
      <stop offset="0.0" stop-color="#402507"/>
      <stop offset="1.0" stop-color="#8f5b1e"/>
    </linearGradient>
    <linearGradient gradientTransform="matrix(0.0147, 0.0, 0.0, -0.0147, 76.3, 62.55)" gradientUnits="userSpaceOnUse" id="gradient1" spreadMethod="pad" x1="-819.2" x2="819.2">
      <stop offset="0.0" stop-color="#33210d"/>
      <stop offset="1.0" stop-color="#8c602e"/>
    </linearGradient>
    <linearGradient gradientTransform="matrix(0.0176, 0.0, 0.0, -0.0176, 79.3, 75.0)" gradientUnits="userSpaceOnUse" id="gradient2" spreadMethod="pad" x1="-819.2" x2="819.2">
      <stop offset="0.0" stop-color="#33210d"/>
      <stop offset="1.0" stop-color="#8c602e"/>
    </linearGradient>
  </defs>
</svg>
