<?xml version="1.0" encoding="UTF-8" standalone="no"?>
<svg xmlns:xlink="http://www.w3.org/1999/xlink" height="50.8px" width="84.5px" xmlns="http://www.w3.org/2000/svg">
  <g transform="matrix(1.0, 0.0, 0.0, 1.0, 0.0, 0.0)">
    <use height="40.05" transform="matrix(0.8, 0.0, 0.0, 0.8, 10.0, 18.75)" width="80.65" xlink:href="#sprite0"/>
  </g>
  <defs>
    <g id="sprite0" transform="matrix(1.0, 0.0, 0.0, 1.0, 0.0, 0.0)">
      <use height="40.05" transform="matrix(1.0, 0.0, 0.0, 1.0, 0.0, 0.0)" width="80.65" xlink:href="#shape0"/>
    </g>
    <g id="shape0" transform="matrix(1.0, 0.0, 0.0, 1.0, 0.0, 0.0)">
      <path d="M80.15 12.1 L80.2 12.1 80.2 12.35 77.1 15.1 69.2 21.75 69.15 21.15 80.15 12.1" fill="#401008" fill-rule="evenodd" stroke="none"/>
      <path d="M80.3 12.8 L80.35 14.5 80.65 29.95 69.9 40.0 69.7 34.25 69.55 35.75 69.45 36.25 69.1 22.8 69.05 22.1 69.2 22.0 80.3 12.8 M80.2 12.1 L80.25 12.4 80.25 12.45 77.1 15.1 80.2 12.35 80.2 12.1" fill="url(#gradient0)" fill-rule="evenodd" stroke="none"/>
      <path d="M80.25 12.4 L80.35 12.7 80.3 12.8 69.2 22.0 69.05 22.1 69.1 21.8 69.2 21.75 77.1 15.1 80.25 12.45 80.25 12.4" fill="#a63c28" fill-rule="evenodd" stroke="none"/>
      <path d="M8.5 6.65 L14.5 4.8 38.2 5.2 34.65 5.2 28.55 5.15 14.85 5.0 12.2 5.7 Q11.3 5.85 8.3 6.75 L8.5 6.65 M11.7 7.4 L43.45 7.75 Q47.6 7.65 59.0 7.9 L59.55 7.95 71.8 8.15 Q72.2 7.9 76.95 5.55 L74.4 7.2 71.85 8.75 71.95 8.55 11.6 7.45 11.7 7.4" fill="#ffa185" fill-rule="evenodd" stroke="none"/>
      <path d="M6.7 7.35 L6.6 7.3 8.5 6.65 8.3 6.75 Q11.3 5.85 12.2 5.7 L14.85 5.0 28.55 5.15 34.65 5.2 38.2 5.2 77.15 5.5 77.1 5.65 74.4 7.2 76.95 5.55 Q72.2 7.9 71.8 8.15 L59.55 7.95 59.0 7.9 Q47.6 7.65 43.45 7.75 L11.7 7.4 8.3 7.35 6.7 7.35" fill="#ff5833" fill-rule="evenodd" stroke="none"/>
      <path d="M0.0 14.15 L0.0 14.1 0.15 13.95 0.95 12.95 0.8 13.15 0.65 13.35 0.45 13.6 4.1 10.65 Q6.1 8.45 7.3 7.95 L7.85 7.7 11.6 7.45 71.95 8.55 69.2 13.55 Q68.3 14.95 67.5 14.95 L66.25 14.9 36.95 14.85 45.3 15.2 0.55 14.45 0.55 14.4 1.4 14.45 9.6 14.4 2.6 14.25 0.0 14.15" fill="url(#gradient1)" fill-rule="evenodd" stroke="none"/>
      <path d="M0.15 20.0 L0.1 19.7 0.05 15.55 Q0.25 14.7 0.5 14.4 L0.55 14.4 0.55 14.45 0.5 16.05 Q0.35 17.9 0.55 19.5 L0.5 19.85 0.2 19.85 0.2 19.9 0.2 19.95 0.15 20.0 M0.8 13.15 L2.8 11.1 2.85 11.05 3.05 10.8 3.3 10.6 3.35 10.5 3.75 9.95 5.85 7.95 3.9 9.95 4.2 9.8 Q5.95 8.05 6.45 7.85 L7.1 7.65 Q7.15 7.5 7.5 7.5 L8.3 7.35 11.7 7.4 11.6 7.45 7.85 7.7 7.3 7.95 Q6.1 8.45 4.1 10.65 L0.45 13.6 0.65 13.35 0.8 13.15 M71.95 8.55 L71.85 8.75 69.0 15.6 45.3 15.2 36.95 14.85 66.25 14.9 67.5 14.95 Q68.3 14.95 69.2 13.55 L71.95 8.55 M1.4 14.45 L2.6 14.25 9.6 14.4 1.4 14.45" fill="#ff6342" fill-rule="evenodd" stroke="none"/>
      <path d="M77.1 5.65 L78.95 7.4 80.15 12.1 69.15 21.15 69.0 15.6 71.85 8.75 74.4 7.2 77.1 5.65" fill="url(#gradient2)" fill-rule="evenodd" stroke="none"/>
      <path d="M69.2 21.75 L69.1 21.8 69.0 21.5 69.0 21.45 2.55 19.95 0.5 19.85 0.55 19.5 Q0.35 17.9 0.5 16.05 L0.55 14.45 45.3 15.2 69.0 15.6 69.15 21.15 69.2 21.75" fill="url(#gradient3)" fill-rule="evenodd" stroke="none"/>
      <path d="M0.6 37.4 L0.3 21.35 0.3 20.8 0.25 20.65 2.55 20.7 2.75 20.7 3.25 20.8 3.55 20.95 3.85 20.95 4.65 20.95 7.25 20.9 31.75 21.6 39.65 21.7 64.55 22.2 68.4 22.2 68.8 21.95 37.4 21.3 37.4 21.25 64.65 21.75 68.65 21.7 69.0 21.5 69.1 21.8 69.05 22.1 69.1 22.8 69.05 22.25 69.15 27.9 Q69.2 34.65 68.65 36.15 L67.15 38.05 66.65 38.4 57.45 39.0 47.1 39.2 3.4 38.35 1.8 38.2 Q1.35 38.05 1.15 37.9 L1.1 37.85 0.9 37.75 0.6 37.4 M0.25 20.1 L0.15 20.0 0.2 19.95 0.2 19.9 0.2 19.85 0.5 19.85 2.55 19.95 0.2 19.9 2.7 20.2 2.95 20.3 0.8 20.15 0.4 20.15 0.3 20.15 0.25 20.1" fill="url(#gradient4)" fill-rule="evenodd" stroke="none"/>
      <path d="M2.55 19.95 L69.0 21.45 69.0 21.5 68.65 21.7 64.65 21.75 37.4 21.25 37.4 21.3 8.45 20.5 2.95 20.3 2.7 20.2 0.2 19.9 2.55 19.95" fill="#5f190b" fill-rule="evenodd" stroke="none"/>
      <path d="M69.1 22.8 L69.45 36.25 Q69.1 37.8 68.0 38.8 66.9 39.45 65.45 39.5 L47.1 39.2 57.45 39.0 66.65 38.4 67.15 38.05 68.65 36.15 Q69.2 34.65 69.15 27.9 L69.05 22.25 69.1 22.8" fill="#c24127" fill-rule="evenodd" stroke="none"/>
      <path d="M37.4 21.3 L68.8 21.95 68.4 22.2 64.55 22.2 39.65 21.7 31.75 21.6 7.25 20.9 4.75 20.85 Q4.6 20.55 3.75 20.55 L3.5 20.75 3.25 20.8 2.75 20.7 2.55 20.7 2.35 20.4 8.45 20.5 37.4 21.3" fill="#eb683f" fill-rule="evenodd" stroke="none"/>
      <path d="M69.9 40.0 L69.55 39.95 66.85 40.05 63.0 40.05 58.55 40.05 1.55 38.9 Q0.6 38.7 0.6 38.0 L0.6 37.4 0.9 37.75 1.1 37.85 1.15 37.9 Q1.35 38.05 1.8 38.2 L3.4 38.35 47.1 39.2 65.45 39.5 Q66.9 39.45 68.0 38.8 69.1 37.8 69.45 36.25 L69.55 35.75 69.7 34.25 69.9 40.0" fill="#6c2010" fill-rule="evenodd" stroke="none"/>
      <path d="M0.25 20.65 L0.15 20.6 0.15 20.45 0.15 20.4 0.25 20.2 0.35 20.2 0.4 20.15 0.8 20.15 2.35 20.4 2.55 20.7 0.25 20.65 M0.05 15.55 L0.0 14.15 2.6 14.25 1.4 14.45 0.55 14.4 0.5 14.4 Q0.25 14.7 0.05 15.55 M5.85 7.95 L6.45 7.3 6.7 7.35 8.3 7.35 7.5 7.5 Q7.15 7.5 7.1 7.65 L6.45 7.85 Q5.95 8.05 4.2 9.8 L3.9 9.95 5.85 7.95 M3.25 20.8 L3.5 20.75 3.75 20.55 Q4.6 20.55 4.75 20.85 L4.75 20.9 Q4.6 20.85 4.65 20.95 L3.85 20.95 3.55 20.95 3.25 20.8" fill="#ffaf9e" fill-rule="evenodd" stroke="none"/>
      <path d="M0.25 20.2 L0.25 20.1 0.3 20.15 0.4 20.15 0.35 20.2 0.25 20.2 M8.45 20.5 L2.35 20.4 0.8 20.15 2.95 20.3 8.45 20.5 M4.75 20.85 L7.25 20.9 4.65 20.95 Q4.6 20.85 4.75 20.9 L4.75 20.85" fill="#f05532" fill-rule="evenodd" stroke="none"/>
      <path d="M33.15 17.1 L34.2 17.35 Q35.6 17.65 35.85 18.3 36.15 19.05 36.25 20.8 L35.75 20.8 34.2 20.75 35.2 20.55 Q35.5 18.7 35.05 18.15 L34.05 17.65 33.15 17.1 M33.85 20.25 L33.95 20.7 33.95 20.75 33.95 21.15 33.95 21.2 33.95 21.6 34.1 21.7 34.7 21.65 35.2 21.7 36.05 21.7 36.15 21.65 36.2 21.9 36.15 22.6 36.1 22.8 35.85 24.5 35.65 25.0 Q35.45 26.05 34.25 26.7 L33.7 26.9 33.7 27.45 33.75 28.9 33.5 30.1 32.7 30.2 30.15 30.15 30.05 30.05 29.95 30.05 30.25 29.95 30.8 29.25 30.7 28.4 30.35 28.45 30.2 28.4 30.15 28.4 29.9 28.15 30.25 28.2 Q30.65 28.15 30.9 27.9 L31.15 27.3 31.15 26.85 31.2 26.65 31.35 26.05 31.5 25.75 31.75 26.25 31.75 26.45 31.7 26.6 31.7 26.65 31.65 27.05 31.65 27.2 31.6 27.3 Q31.35 28.1 30.9 28.35 31.45 28.1 31.65 27.3 L31.75 29.65 32.55 29.75 33.3 29.55 33.3 28.7 33.25 27.95 33.25 27.05 33.3 26.1 33.25 26.0 33.35 24.45 33.35 24.3 33.2 22.0 33.2 21.75 33.2 21.65 33.15 21.2 33.15 21.05 33.15 20.8 33.15 20.75 33.1 20.75 32.9 20.2 32.75 20.05 32.5 19.65 32.15 19.35 31.45 19.05 31.35 19.05 33.0 19.2 33.1 19.25 33.5 19.5 33.85 20.1 33.85 20.25 M30.35 25.6 L30.35 25.45 30.55 25.3 30.45 25.5 30.4 25.5 30.35 25.6 M30.6 25.3 L30.85 25.3 30.9 25.3 31.2 25.35 31.5 25.65 31.25 25.45 30.9 25.5 30.85 25.5 30.6 25.3 M33.8 25.35 L33.75 25.7 33.9 25.6 34.8 24.35 34.85 23.8 34.7 22.85 34.45 22.05 34.85 21.9 34.0 21.75 33.95 21.75 33.95 22.4 Q33.85 23.3 33.9 24.35 L33.8 25.35" fill="#4a4140" fill-rule="evenodd" stroke="none"/>
      <path d="M31.85 17.05 L32.4 17.0 32.0 17.1 32.0 17.25 Q31.15 17.4 30.75 17.65 34.15 17.35 34.8 18.55 L34.9 19.3 34.6 20.15 33.85 20.25 33.85 20.1 33.5 19.5 33.35 19.15 33.05 19.0 33.1 19.25 33.0 19.2 31.35 19.05 31.45 19.05 31.75 19.35 31.8 19.4 32.0 19.95 32.05 20.3 32.2 20.7 32.2 20.8 32.3 21.15 32.3 21.25 32.4 21.45 32.5 21.65 32.5 21.75 32.55 21.95 32.7 22.55 32.9 27.45 33.1 29.45 Q32.2 29.75 32.0 29.05 L32.0 27.75 32.05 27.35 32.1 26.55 32.1 26.45 31.95 25.9 31.95 25.85 Q31.9 24.65 31.2 24.65 L31.15 24.65 30.85 24.65 Q30.15 24.7 29.95 25.05 29.85 25.2 29.9 25.75 L29.9 25.95 29.65 26.2 29.65 26.4 29.65 26.45 29.55 27.3 29.6 27.6 29.7 27.5 29.85 26.7 30.05 26.45 Q30.15 26.15 30.4 25.95 30.75 25.65 30.9 25.7 L31.1 25.5 30.9 25.5 31.25 25.45 31.5 25.65 31.75 26.25 31.5 25.75 31.4 25.65 31.25 25.7 30.9 25.95 30.6 26.5 30.4 27.0 30.45 27.05 30.4 27.1 30.25 27.6 29.8 27.85 29.65 27.75 29.9 28.15 30.15 28.4 30.15 28.55 30.1 29.4 Q29.85 29.9 29.05 29.6 L28.85 28.85 28.5 26.2 28.4 24.5 28.4 24.4 28.4 24.15 28.4 24.0 28.55 24.1 29.05 24.25 29.25 24.1 29.35 23.2 29.35 23.0 Q29.6 22.65 29.35 22.65 L29.35 22.3 29.4 22.15 29.45 21.8 29.45 21.65 29.45 21.6 29.5 21.15 29.5 21.1 29.65 20.75 29.6 20.65 29.7 20.7 29.8 20.4 Q30.2 19.8 31.05 19.5 L30.7 19.2 30.3 19.45 29.8 19.65 29.3 20.35 28.7 20.25 28.3 19.65 28.25 19.85 28.7 18.75 29.4 17.65 Q30.35 17.15 31.85 17.05 M31.65 27.3 Q31.45 28.1 30.9 28.35 31.35 28.1 31.6 27.3 L31.65 27.2 31.65 27.3 M30.05 18.35 L31.3 18.05 31.1 17.8 30.75 17.7 Q29.8 17.8 29.45 18.15 29.1 18.6 28.9 19.45 L29.45 18.85 30.05 18.35 M28.75 22.0 L28.5 22.75 Q28.3 23.3 28.35 23.95 L28.25 22.75 28.35 21.55 28.4 21.55 Q28.25 21.8 28.7 22.0 L28.75 22.0 M30.45 23.9 Q29.9 23.95 29.6 24.25 L29.45 24.4 Q29.15 24.85 29.15 25.65 L29.15 25.95 29.2 26.05 Q29.2 26.6 29.35 26.75 L29.45 26.35 29.5 26.1 29.55 25.55 29.55 24.85 Q29.5 24.4 30.85 24.3 L31.25 24.25 31.3 24.2 31.65 24.2 31.3 23.9 30.95 23.9 30.45 23.9 M33.8 25.35 L33.9 24.35 Q33.85 23.3 33.95 22.4 34.4 23.05 34.35 23.75 L34.3 24.35 34.0 24.95 33.8 25.35 M32.35 28.5 L32.15 28.5 Q31.85 28.9 32.4 28.95 L32.35 28.5 M29.3 29.0 Q29.55 29.2 29.55 28.15 L29.2 28.35 29.3 29.0 M29.25 29.8 L29.1 29.7 29.05 29.6 29.25 29.8" fill="#b39e9a" fill-rule="evenodd" stroke="none"/>
      <path d="M33.15 17.1 L34.05 17.65 35.05 18.15 Q35.5 18.7 35.2 20.55 L34.2 20.75 33.95 20.7 33.85 20.25 34.6 20.15 34.9 19.3 34.8 18.55 Q34.15 17.35 30.75 17.65 31.15 17.4 32.0 17.25 L32.0 17.1 32.4 17.0 33.15 17.1 M31.45 19.05 L32.15 19.35 32.5 19.65 32.75 20.05 32.9 20.2 33.1 20.75 33.15 20.75 33.15 20.8 33.15 21.05 33.15 21.2 33.2 21.65 33.2 21.75 33.2 22.0 33.35 24.3 33.35 24.45 33.25 26.0 33.3 26.1 33.25 27.05 33.25 27.95 33.3 28.7 33.3 29.55 32.55 29.75 31.75 29.65 31.65 27.3 31.65 27.2 31.65 27.05 31.7 26.65 31.7 26.6 31.75 26.45 31.75 26.25 31.5 25.65 31.2 25.35 30.9 25.3 30.85 25.3 30.6 25.3 30.55 25.3 30.35 25.45 30.35 25.6 30.1 25.8 29.9 25.95 29.9 25.75 Q29.85 25.2 29.95 25.05 30.15 24.7 30.85 24.65 L31.15 24.65 31.2 24.65 Q31.9 24.65 31.95 25.85 L31.95 25.9 32.1 26.45 32.1 26.55 32.05 27.35 32.0 27.75 32.0 29.05 Q32.2 29.75 33.1 29.45 L32.9 27.45 32.7 22.55 32.55 21.95 32.5 21.75 32.5 21.65 32.4 21.45 32.3 21.25 32.3 21.15 32.2 20.8 32.2 20.7 32.05 20.3 32.0 19.95 31.8 19.4 31.75 19.35 31.45 19.05 M31.5 25.75 L31.35 26.05 31.2 26.65 31.15 26.85 31.15 27.3 30.9 27.9 Q30.65 28.15 30.25 28.2 L29.9 28.15 29.65 27.75 29.8 27.85 30.25 27.6 30.4 27.1 30.45 27.05 30.4 27.0 30.6 26.5 30.9 25.95 31.25 25.7 31.4 25.65 31.5 25.75 M30.15 28.4 L30.2 28.4 30.35 28.45 30.7 28.4 30.8 29.25 30.25 29.95 29.95 30.05 29.85 30.05 29.5 29.9 29.25 29.8 29.05 29.6 Q29.85 29.9 30.1 29.4 L30.15 28.55 30.15 28.4 M28.25 19.85 L28.3 19.65 28.7 20.25 29.3 20.35 29.15 20.65 28.25 20.55 28.25 19.85 M28.9 21.6 L28.75 22.0 28.7 22.0 Q28.25 21.8 28.4 21.55 L28.9 21.6 M33.95 22.4 L33.95 21.75 34.0 21.75 34.85 21.9 34.45 22.05 34.7 22.85 34.85 23.8 34.8 24.35 33.9 25.6 33.75 25.7 33.8 25.35 34.0 24.95 34.3 24.35 34.35 23.75 Q34.4 23.05 33.95 22.4" fill="#706361" fill-rule="evenodd" stroke="none"/>
      <path d="M35.75 20.8 L36.25 20.8 Q36.15 19.05 35.85 18.3 35.6 17.65 34.2 17.35 L33.15 17.1 32.4 17.0 31.85 17.05 Q32.25 16.9 32.8 16.7 L34.3 16.8 35.8 17.3 36.55 17.75 36.95 18.65 37.0 19.7 36.8 20.6 36.6 20.8 36.1 20.85 35.25 20.85 35.75 20.8 M30.15 30.15 L32.7 30.2 33.5 30.1 33.75 28.9 33.7 27.45 33.7 26.9 34.25 26.7 Q35.45 26.05 35.65 25.0 L35.85 24.5 36.1 22.8 36.15 22.6 36.2 21.9 36.25 23.25 36.4 24.75 36.35 25.15 36.45 26.15 Q36.35 26.7 35.75 27.0 L34.2 27.7 34.25 30.55 33.95 30.95 33.35 31.05 30.5 31.0 30.15 30.8 30.15 30.5 30.15 30.2 30.15 30.15" fill="#601a0b" fill-rule="evenodd" stroke="none"/>
      <path d="M33.5 19.5 L33.1 19.25 33.05 19.0 33.35 19.15 33.5 19.5 M30.05 18.35 L29.45 18.85 28.9 19.45 Q29.1 18.6 29.45 18.15 29.8 17.8 30.75 17.7 L31.1 17.8 31.3 18.05 30.05 18.35 M29.3 20.35 L29.8 19.65 30.3 19.45 30.7 19.2 31.05 19.5 Q30.2 19.8 29.8 20.4 L29.7 20.7 29.6 20.65 29.65 20.75 29.5 21.1 29.5 21.15 29.45 21.6 29.45 21.65 29.45 21.8 29.4 22.15 29.35 22.3 29.35 22.65 Q29.6 22.65 29.35 23.0 L29.35 23.2 29.25 24.1 29.05 24.25 28.55 24.1 28.4 24.0 28.35 24.0 28.35 23.95 Q28.3 23.3 28.5 22.75 L28.75 22.0 28.9 21.6 28.95 21.15 29.0 21.1 29.15 20.75 29.15 20.65 29.3 20.35 M29.9 25.95 L30.1 25.8 30.35 25.6 30.4 25.5 30.45 25.5 30.55 25.3 30.6 25.3 30.85 25.5 30.9 25.5 31.1 25.5 30.9 25.7 Q30.75 25.65 30.4 25.95 30.15 26.15 30.05 26.45 L29.85 26.7 29.7 27.5 29.6 27.6 29.55 27.3 29.65 26.45 29.65 26.4 29.65 26.2 29.9 25.95 M30.45 23.9 L30.95 23.9 31.3 23.9 31.65 24.2 31.3 24.2 31.25 24.25 30.85 24.3 Q29.5 24.4 29.55 24.85 L29.55 25.55 29.5 26.1 29.45 26.35 29.35 26.75 Q29.2 26.6 29.2 26.05 L29.15 25.95 29.15 25.65 Q29.15 24.85 29.45 24.4 L29.6 24.25 Q29.9 23.95 30.45 23.9 M29.3 29.0 L29.2 28.35 29.55 28.15 Q29.55 29.2 29.3 29.0 M32.35 28.5 L32.4 28.95 Q31.85 28.9 32.15 28.5 L32.35 28.5" fill="#faddd8" fill-rule="evenodd" stroke="none"/>
      <path d="M42.55 0.85 L41.3 1.25 40.6 1.2 41.45 0.7 39.25 0.45 34.65 0.4 Q31.65 0.25 30.85 1.3 28.65 3.25 27.2 5.75 L27.25 5.55 27.25 5.5 Q28.45 3.55 29.95 1.65 30.75 0.6 32.0 0.25 35.6 -0.2 39.2 0.15 41.0 0.15 42.55 0.85 M49.05 5.85 Q49.65 5.9 49.25 6.25 L48.95 6.35 48.8 6.45 48.7 6.4 48.3 6.25 49.05 5.85 M47.35 5.6 L46.7 5.95 46.55 5.9 Q46.55 5.65 46.75 5.65 L47.35 5.6 M26.1 5.75 L26.3 5.75 25.6 5.95 25.65 5.75 26.1 5.75 M25.55 6.05 L26.35 5.75 26.05 6.05 25.55 6.05" fill="#faddd8" fill-rule="evenodd" stroke="none"/>
      <path d="M41.3 1.25 L30.85 1.3 Q31.65 0.25 34.65 0.4 L39.25 0.45 41.45 0.7 40.6 1.2 41.3 1.25 M26.5 5.55 Q27.45 5.35 26.65 6.2 L26.45 6.4 Q25.05 6.95 24.15 6.05 L24.4 5.9 25.55 6.05 26.05 6.05 26.35 5.75 26.4 5.7 26.4 5.65 26.4 5.7 26.45 5.65 26.5 5.55 M48.7 6.4 L47.3 6.65 46.9 6.45 47.15 6.4 47.3 6.5 47.3 6.65 47.7 6.5 48.3 6.25 48.7 6.4" fill="#d1b9b5" fill-rule="evenodd" stroke="none"/>
      <path d="M41.3 1.25 L42.55 0.85 43.7 1.85 42.5 1.6 42.9 2.35 Q43.95 3.7 45.3 4.75 L45.65 5.1 46.05 6.15 46.15 6.2 46.2 6.2 46.7 5.95 47.35 5.6 47.7 5.6 47.4 5.9 47.6 5.9 48.05 5.85 48.1 6.0 47.15 6.35 47.2 6.25 Q47.15 5.75 47.15 6.35 L47.15 6.4 46.9 6.45 47.3 6.65 48.7 6.4 48.8 6.45 48.95 6.35 49.25 6.25 Q49.65 5.9 49.05 5.85 L48.2 5.6 49.55 5.9 49.9 6.15 Q49.0 6.85 47.95 7.2 46.4 7.45 45.35 6.2 L43.4 4.3 41.15 2.3 40.45 1.85 36.5 1.85 32.5 1.85 Q30.5 1.7 29.75 3.4 L29.1 4.55 28.3 5.6 Q26.15 7.3 23.35 6.65 L24.15 6.05 Q25.05 6.95 26.45 6.4 L26.65 6.2 Q27.45 5.35 26.5 5.55 L26.55 5.45 27.25 5.55 27.2 5.75 Q28.65 3.25 30.85 1.3 L41.3 1.25 M48.25 8.0 L48.5 7.9 48.4 8.0 48.25 8.0 M47.15 6.4 L47.3 6.4 47.3 6.5 47.15 6.4 M47.3 6.5 L47.7 6.5 47.3 6.65 47.3 6.5 M25.3 5.55 L26.55 5.45 26.1 5.75 25.65 5.75 25.4 5.75 Q25.3 5.85 25.3 5.55 M26.3 5.75 L26.4 5.7 26.35 5.75 25.55 6.05 24.4 5.9 25.05 5.65 25.6 5.95 26.3 5.75" fill="#b39e9a" fill-rule="evenodd" stroke="none"/>
      <path d="M46.2 6.2 L46.15 6.2 46.05 6.15 45.65 5.1 45.45 4.7 44.9 4.0 Q44.65 3.65 44.7 3.35 L45.1 3.55 46.6 5.45 46.2 6.2 M41.1 2.7 Q39.25 1.95 37.05 2.15 L32.65 2.15 36.25 1.95 39.7 2.0 Q40.8 1.85 41.1 2.7 M32.55 2.2 L31.45 2.9 Q30.3 4.0 29.65 5.4 L29.35 6.0 Q29.1 6.35 29.1 6.0 29.05 6.6 28.25 7.05 L28.1 7.1 26.1 7.5 23.55 7.1 26.55 7.05 Q27.5 6.95 28.15 6.45 L29.7 4.35 30.8 2.85 Q31.2 2.45 31.8 2.35 L32.55 2.2 M48.25 8.0 L45.65 7.6 44.25 6.0 45.5 6.95 46.5 7.45 47.7 7.65 Q49.1 7.45 49.9 6.15 L49.95 6.2 Q49.95 6.9 49.55 7.4 49.1 7.9 48.5 7.9 L48.25 8.0" fill="#4a4140" fill-rule="evenodd" stroke="none"/>
      <path d="M26.55 5.45 L26.5 5.55 26.45 5.65 26.4 5.7 26.4 5.65 26.4 5.7 26.3 5.75 26.1 5.75 26.55 5.45 M23.35 6.65 Q26.15 7.3 28.3 5.6 L29.1 4.55 29.75 3.4 Q30.5 1.7 32.5 1.85 L36.5 1.85 40.45 1.85 41.15 2.3 43.4 4.3 45.35 6.2 Q46.4 7.45 47.95 7.2 49.0 6.85 49.9 6.15 49.1 7.45 47.7 7.65 L46.5 7.45 45.5 6.95 44.25 6.0 43.85 5.6 43.3 4.9 41.3 2.75 41.1 2.7 Q40.8 1.85 39.7 2.0 L36.25 1.95 32.65 2.15 32.55 2.2 31.8 2.35 Q31.2 2.45 30.8 2.85 L29.7 4.35 28.15 6.45 Q27.5 6.95 26.55 7.05 L23.55 7.1 23.35 6.65 M48.2 5.6 L49.05 5.85 48.3 6.25 47.7 6.5 47.3 6.5 47.3 6.4 47.15 6.4 47.15 6.35 Q47.15 5.75 47.2 6.25 L47.15 6.35 48.1 6.0 48.05 5.85 47.6 5.9 47.4 5.9 47.7 5.6 48.2 5.6 M46.7 5.95 L46.2 6.2 46.6 5.45 46.75 5.65 Q46.55 5.65 46.55 5.9 L46.7 5.95 M45.65 5.1 L45.3 4.75 Q43.95 3.7 42.9 2.35 L42.5 1.6 43.7 1.85 45.1 3.55 44.7 3.35 Q44.65 3.65 44.9 4.0 L45.45 4.7 45.65 5.1 M25.05 5.65 L25.2 5.6 25.3 5.55 Q25.3 5.85 25.4 5.75 L25.65 5.75 25.6 5.95 25.05 5.65" fill="#706361" fill-rule="evenodd" stroke="none"/>
      <path d="M49.9 6.15 L49.55 5.9 51.3 6.25 51.2 7.05 50.95 7.3 Q49.85 7.95 48.4 8.0 L48.5 7.9 Q49.1 7.9 49.55 7.4 49.95 6.9 49.95 6.2 L49.9 6.15 M29.35 6.0 L30.7 6.55 28.1 7.1 28.25 7.05 Q29.05 6.6 29.1 6.0 29.1 6.35 29.35 6.0" fill="#883a2a" fill-rule="evenodd" stroke="none"/>
    </g>
    <linearGradient gradientTransform="matrix(0.0088, 0.0057, 0.0059, -0.009, 76.9, 30.95)" gradientUnits="userSpaceOnUse" id="gradient0" spreadMethod="pad" x1="-819.2" x2="819.2">
      <stop offset="0.0" stop-color="#692010"/>
      <stop offset="1.0" stop-color="#7d210e"/>
    </linearGradient>
    <linearGradient gradientTransform="matrix(0.0384, 0.004, 0.0052, -0.0386, 36.0, 14.15)" gradientUnits="userSpaceOnUse" id="gradient1" spreadMethod="pad" x1="-819.2" x2="819.2">
      <stop offset="0.0" stop-color="#ff4f2b"/>
      <stop offset="1.0" stop-color="#ba2d0d"/>
    </linearGradient>
    <linearGradient gradientTransform="matrix(0.0088, 7.0E-4, 0.001, -0.0088, 75.8, 20.6)" gradientUnits="userSpaceOnUse" id="gradient2" spreadMethod="pad" x1="-819.2" x2="819.2">
      <stop offset="0.0" stop-color="#692010"/>
      <stop offset="1.0" stop-color="#7d210e"/>
    </linearGradient>
    <linearGradient gradientTransform="matrix(0.0422, -0.005, -0.0036, -0.0421, 35.05, 21.5)" gradientUnits="userSpaceOnUse" id="gradient3" spreadMethod="pad" x1="-819.2" x2="819.2">
      <stop offset="0.0" stop-color="#e34627"/>
      <stop offset="1.0" stop-color="#a1230a"/>
    </linearGradient>
    <linearGradient gradientTransform="matrix(0.0379, 0.0139, 0.0151, -0.0383, 34.0, 32.1)" gradientUnits="userSpaceOnUse" id="gradient4" spreadMethod="pad" x1="-819.2" x2="819.2">
      <stop offset="0.0" stop-color="#e34627"/>
      <stop offset="1.0" stop-color="#a1230a"/>
    </linearGradient>
  </defs>
</svg>
