<?xml version="1.0" encoding="UTF-8" standalone="no"?>
<svg xmlns:xlink="http://www.w3.org/1999/xlink" height="23.8px" width="56.6px" xmlns="http://www.w3.org/2000/svg">
  <g transform="matrix(1.0, 0.0, 0.0, 1.0, 0.0, 0.0)">
    <use height="10.05" transform="matrix(1.0, 0.0, 0.0, 1.0, 16.9, 0.05)" width="18.0" xlink:href="#shape0"/>
    <use height="6.0" transform="matrix(1.6799, 0.0, 0.0, 1.6799, 16.816, 0.016)" width="10.7" xlink:href="#sprite0"/>
    <use height="5.95" transform="matrix(1.6799, 0.0, 0.0, 1.6799, 16.816, 0.1)" width="10.55" xlink:href="#sprite1"/>
    <use height="2.0" transform="matrix(1.6799, 0.0, 0.0, 1.6799, 29.15, 2.2)" width="2.6" xlink:href="#sprite2"/>
    <use height="2.75" transform="matrix(1.6799, 0.0, 0.0, 1.6799, 21.05, 1.9)" width="4.15" xlink:href="#sprite3"/>
    <use height="13.7" transform="matrix(1.0, 0.0, 0.0, 1.0, 0.0, 2.6)" width="32.7" xlink:href="#shape5"/>
    <use height="7.3" transform="matrix(1.6799, 0.0, 0.0, 1.6799, -0.002, 4.1)" width="12.7" xlink:href="#sprite4"/>
    <use height="7.25" transform="matrix(1.6799, 0.0, 0.0, 1.6799, 0.3, 4.184)" width="12.5" xlink:href="#sprite5"/>
    <use height="2.45" transform="matrix(1.6799, 0.0, 0.0, 1.6799, 1.55, 6.65)" width="3.05" xlink:href="#sprite6"/>
    <use height="3.35" transform="matrix(1.6799, 0.0, 0.0, 1.6799, 8.0, 6.4)" width="4.9" xlink:href="#sprite7"/>
    <use height="10.95" transform="matrix(1.0, 0.0, 0.0, 1.0, 2.6, 7.15)" width="54.0" xlink:href="#shape10"/>
    <use height="6.3" transform="matrix(1.6799, 0.0, 0.0, 1.6799, 37.732, 7.5)" width="11.2" xlink:href="#sprite8"/>
    <use height="6.25" transform="matrix(1.6799, 0.0, 0.0, 1.6799, 37.732, 7.584)" width="11.05" xlink:href="#sprite9"/>
    <use height="2.1" transform="matrix(1.6799, 0.0, 0.0, 1.6799, 50.7, 9.75)" width="2.65" xlink:href="#sprite10"/>
    <use height="2.9" transform="matrix(1.6799, 0.0, 0.0, 1.6799, 42.25, 9.5)" width="4.3" xlink:href="#sprite11"/>
    <use height="13.65" transform="matrix(1.0, 0.0, 0.0, 1.0, 12.15, 10.15)" width="42.15" xlink:href="#shape11"/>
    <use height="8.05" transform="matrix(1.6799, 0.0, 0.0, 1.6799, 12.098, 10.3)" width="13.95" xlink:href="#sprite12"/>
    <use height="8.05" transform="matrix(1.6799, 0.0, 0.0, 1.6799, 12.5, 10.3)" width="13.75" xlink:href="#sprite13"/>
    <use height="2.7" transform="matrix(1.6799, 0.0, 0.0, 1.6799, 13.9, 13.1)" width="3.35" xlink:href="#sprite14"/>
    <use height="3.7" transform="matrix(1.6799, 0.0, 0.0, 1.6799, 20.95, 12.85)" width="5.4" xlink:href="#sprite15"/>
    <use height="3.6" transform="matrix(1.0, 0.0, 0.0, 1.0, 15.0, 13.65)" width="13.65" xlink:href="#shape12"/>
  </g>
  <defs>
    <g id="shape0" transform="matrix(1.0, 0.0, 0.0, 1.0, -16.9, -0.05)">
      <path d="M33.75 1.85 Q35.95 3.45 33.85 6.65 31.5 10.35 24.95 10.1 18.65 9.85 17.2 5.5 15.8 1.1 20.5 0.1 21.9 -0.15 23.25 0.95 L25.1 2.8 Q25.8 3.45 27.05 3.4 28.3 3.3 29.0 2.55 31.15 0.1 33.75 1.85" fill="#b8b8b8" fill-rule="evenodd" stroke="none"/>
      <path d="M21.85 5.05 Q20.25 6.05 18.3 6.0 L17.3 5.75 17.05 4.95 18.3 5.65 Q19.65 6.0 21.85 5.05" fill="#666666" fill-rule="evenodd" stroke="none"/>
      <path d="M18.4 7.4 L19.55 8.0 Q21.5 8.5 22.95 7.05 22.35 8.1 20.35 8.4 L19.65 8.5 18.4 7.4" fill="#666666" fill-rule="evenodd" stroke="none"/>
      <path d="M27.8 3.2 L27.8 4.9 Q27.7 6.15 25.35 7.6 L26.35 6.3 Q27.45 4.95 27.05 3.4 L27.8 3.2" fill="#666666" fill-rule="evenodd" stroke="none"/>
      <path d="M23.45 1.1 L23.35 1.6 Q22.85 3.7 20.4 4.05 23.35 2.6 22.7 0.5 L23.45 1.1" fill="#666666" fill-rule="evenodd" stroke="none"/>
      <path d="M29.3 2.3 L30.05 3.95 Q30.4 5.3 29.15 6.25 29.65 5.65 29.5 4.2 29.4 3.4 28.65 2.8 L29.3 2.3" fill="#666666" fill-rule="evenodd" stroke="none"/>
      <path d="M21.1 2.05 L20.4 3.1 Q19.9 3.65 19.05 3.4 18.15 3.1 17.65 2.2 L17.55 2.05 18.4 1.0 18.55 1.8 19.15 2.55 Q20.0 3.05 20.4 2.55 20.85 2.1 20.5 1.6 L19.65 1.45 19.15 1.6 19.55 1.2 Q20.05 0.75 20.6 1.0 21.25 1.3 21.1 2.05" fill="#666666" fill-rule="evenodd" stroke="none"/>
      <path d="M25.1 2.8 L25.85 3.2 24.85 4.65 Q23.35 6.5 21.25 6.05 L21.85 6.05 23.2 5.5 Q25.05 4.3 24.95 2.6 L25.1 2.8" fill="#666666" fill-rule="evenodd" stroke="none"/>
      <path d="M18.3 4.3 Q19.4 5.2 20.85 4.8 19.8 5.4 18.55 5.15 17.8 5.05 16.95 4.05 L17.15 2.85 Q17.2 3.45 18.3 4.3" fill="#666666" fill-rule="evenodd" stroke="none"/>
      <path d="M32.5 6.3 L32.4 4.8 Q32.35 3.7 31.5 2.8 L29.9 1.7 30.85 1.3 31.85 2.35 Q33.45 4.15 32.5 6.3" fill="#666666" fill-rule="evenodd" stroke="none"/>
      <path d="M23.75 10.0 L25.8 9.5 Q27.95 9.0 28.8 7.0 28.75 7.85 27.95 8.75 27.2 9.6 25.6 10.1 L23.75 10.0" fill="#666666" fill-rule="evenodd" stroke="none"/>
      <path d="M22.15 8.9 Q23.75 8.5 24.55 6.8 24.25 7.9 23.2 8.85 L22.0 9.6 20.65 9.1 22.15 8.9" fill="#666666" fill-rule="evenodd" stroke="none"/>
      <path d="M28.15 9.85 Q30.15 9.15 30.4 6.3 L30.4 7.0 Q30.4 7.75 29.5 9.6 L27.8 9.95 28.15 9.85" fill="#666666" fill-rule="evenodd" stroke="none"/>
      <path d="M31.6 5.15 L31.65 5.65 Q32.1 6.9 31.1 9.0 L30.0 9.4 31.25 7.9 Q31.9 6.8 31.6 5.15" fill="#666666" fill-rule="evenodd" stroke="none"/>
      <path d="M33.85 5.65 Q34.0 3.4 32.65 2.2 L33.2 2.6 34.35 4.4 34.6 4.95 33.75 6.8 33.85 5.65" fill="#666666" fill-rule="evenodd" stroke="none"/>
    </g>
    <g id="sprite0" transform="matrix(1.0, 0.0, 0.0, 1.0, 0.05, 0.05)">
      <use height="6.3" transform="matrix(0.9554, 0.0, 0.0, 0.9524, -0.0455, -0.05)" width="11.2" xlink:href="#shape1"/>
    </g>
    <g id="shape1" transform="matrix(1.0, 0.0, 0.0, 1.0, 0.1, 0.0)">
      <path d="M10.4 4.25 Q8.9 6.45 4.95 6.3 1.0 6.15 0.1 3.4 -0.75 0.7 2.15 0.05 3.0 -0.15 3.9 0.6 L3.75 0.5 Q2.1 0.05 1.7 1.7 1.3 3.3 2.6 4.25 3.85 5.2 6.2 5.15 8.55 5.1 9.7 4.05 L10.65 2.5 Q10.8 1.7 10.5 1.2 11.7 2.3 10.4 4.25" fill="#000000" fill-rule="evenodd" stroke="none"/>
    </g>
    <g id="sprite1" transform="matrix(1.0, 0.0, 0.0, 1.0, 0.05, 0.0)">
      <use height="6.25" transform="matrix(0.9548, 0.0, 0.0, 0.952, -0.0455, -0.0024)" width="11.05" xlink:href="#shape2"/>
    </g>
    <g id="shape2" transform="matrix(1.0, 0.0, 0.0, 1.0, 0.1, -0.05)">
      <path d="M9.55 4.6 Q10.65 3.75 10.95 2.85 10.75 4.3 9.45 5.25 7.8 6.4 4.95 6.3 1.0 6.15 0.1 3.4 -0.75 0.7 2.15 0.05 L2.4 0.05 Q-0.15 0.75 0.6 3.25 1.0 4.6 2.55 5.25 4.2 6.0 6.7 5.75 8.25 5.6 9.55 4.6" fill="#000000" fill-rule="evenodd" stroke="none"/>
    </g>
    <g id="sprite2" transform="matrix(1.0, 0.0, 0.0, 1.0, 0.0, 0.0)">
      <use height="2.1" transform="matrix(0.9811, 0.0, 0.0, 0.9524, 0.0, 0.0)" width="2.65" xlink:href="#shape3"/>
    </g>
    <g id="shape3" transform="matrix(1.0, 0.0, 0.0, 1.0, 0.0, 0.0)">
      <path d="M1.4 0.65 L1.85 0.05 2.4 0.15 Q2.75 0.55 2.65 1.05 2.5 1.6 1.85 1.9 L0.45 2.05 Q-0.2 1.9 0.05 1.5 0.2 1.25 0.8 1.1 L1.4 0.65" fill="#ffffff" fill-rule="evenodd" stroke="none"/>
    </g>
    <g id="sprite3" transform="matrix(1.0, 0.0, 0.0, 1.0, 0.0, 0.0)">
      <use height="2.9" transform="matrix(0.9651, 0.0, 0.0, 0.9483, 0.0, 0.0)" width="4.3" xlink:href="#shape4"/>
    </g>
    <g id="shape4" transform="matrix(1.0, 0.0, 0.0, 1.0, 0.0, 0.0)">
      <path d="M4.3 2.0 Q4.4 2.4 3.9 2.65 L2.2 2.85 Q0.6 2.6 0.15 1.75 -0.2 1.15 0.2 0.45 0.45 0.0 0.85 0.0 1.15 0.05 1.3 0.3 L1.65 0.95 Q1.95 1.4 2.55 1.5 L3.75 1.7 Q4.25 1.8 4.3 2.0" fill="#ffffff" fill-rule="evenodd" stroke="none"/>
    </g>
    <g id="shape5" transform="matrix(1.0, 0.0, 0.0, 1.0, 0.0, -2.6)">
      <path d="M22.85 2.6 L23.7 3.65 Q24.1 4.55 25.55 4.7 26.65 4.8 25.45 4.9 L23.7 4.55 Q22.35 3.95 22.25 3.2 22.1 2.45 22.85 2.6" fill="#ffffff" fill-rule="evenodd" stroke="none"/>
      <path d="M32.25 2.8 L32.6 2.7 32.65 3.2 32.1 3.7 Q31.75 3.9 31.9 3.65 L32.25 2.8" fill="#ffffff" fill-rule="evenodd" stroke="none"/>
      <path d="M31.35 3.95 L31.5 4.15 31.15 4.4 30.75 4.45 Q30.65 4.3 31.35 3.95" fill="#ffffff" fill-rule="evenodd" stroke="none"/>
      <path d="M26.7 4.9 Q27.05 4.8 27.05 5.05 27.05 5.3 26.7 5.2 26.35 5.2 26.35 5.05 26.35 4.95 26.7 4.9" fill="#ffffff" fill-rule="evenodd" stroke="none"/>
      <path d="M1.25 12.1 Q-1.25 8.15 1.35 6.3 4.3 4.05 6.95 7.05 7.75 7.9 9.25 8.1 10.75 8.25 11.5 7.4 L13.7 5.15 Q15.3 3.8 16.95 4.15 22.6 5.3 20.9 10.6 19.25 16.0 11.75 16.3 4.1 16.55 1.25 12.1" fill="#b8b8b8" fill-rule="evenodd" stroke="none"/>
      <path d="M15.35 10.2 L16.9 10.7 19.5 10.85 21.0 10.0 20.75 10.95 19.5 11.25 16.65 10.75 15.35 10.2" fill="#666666" fill-rule="evenodd" stroke="none"/>
      <path d="M19.5 13.05 L17.95 14.4 17.2 14.3 14.8 13.3 14.6 13.1 Q16.15 14.3 18.05 13.7 L19.5 13.05" fill="#666666" fill-rule="evenodd" stroke="none"/>
      <path d="M8.4 7.9 L9.25 8.1 Q8.9 10.1 10.1 11.7 L11.25 13.2 Q8.5 11.5 8.3 9.95 L8.4 7.9" fill="#666666" fill-rule="evenodd" stroke="none"/>
      <path d="M13.5 5.4 L14.45 4.65 Q13.95 6.25 15.45 7.75 L17.15 8.9 Q16.4 8.85 15.6 8.4 13.95 7.5 13.6 5.9 L13.5 5.4" fill="#666666" fill-rule="evenodd" stroke="none"/>
      <path d="M6.65 6.75 L7.4 7.4 Q6.45 8.15 6.4 9.15 6.15 10.85 6.8 11.6 5.3 10.5 5.7 8.85 5.9 7.85 6.65 6.75" fill="#666666" fill-rule="evenodd" stroke="none"/>
      <path d="M20.35 6.65 Q19.65 7.75 18.65 8.1 17.7 8.35 17.15 7.85 16.45 7.25 16.3 6.5 16.15 5.55 16.8 5.2 17.9 4.8 18.55 6.0 L17.95 5.75 Q17.3 5.65 17.05 6.0 16.65 6.5 17.15 7.05 17.65 7.75 18.55 7.05 L19.25 6.15 19.4 5.2 20.5 6.5 20.35 6.65" fill="#666666" fill-rule="evenodd" stroke="none"/>
      <path d="M11.5 7.4 L11.75 7.25 Q11.65 9.25 13.75 10.7 15.1 11.5 16.05 11.45 13.6 11.95 11.75 9.6 L10.65 7.9 Q11.25 7.75 11.5 7.4" fill="#666666" fill-rule="evenodd" stroke="none"/>
      <path d="M19.55 9.25 Q20.85 8.15 20.9 7.4 L21.15 8.9 Q20.15 10.1 19.25 10.25 L17.4 10.2 16.55 9.85 Q18.25 10.35 19.55 9.25" fill="#666666" fill-rule="evenodd" stroke="none"/>
      <path d="M2.85 11.7 Q1.75 9.1 3.6 6.8 L4.8 5.55 5.9 6.05 Q4.85 6.5 4.05 7.4 3.0 8.5 2.95 9.85 L2.85 11.7" fill="#666666" fill-rule="evenodd" stroke="none"/>
      <path d="M7.2 12.55 Q8.15 14.95 10.75 15.65 L13.1 16.15 11.75 16.3 10.9 16.3 Q8.8 15.65 8.15 14.65 L7.4 13.2 7.2 12.55" fill="#666666" fill-rule="evenodd" stroke="none"/>
      <path d="M15.05 14.9 L16.8 15.15 15.2 15.7 Q14.6 15.45 13.75 14.8 L12.5 13.1 12.25 12.3 12.95 13.35 Q13.85 14.55 15.05 14.9" fill="#666666" fill-rule="evenodd" stroke="none"/>
      <path d="M8.0 16.0 L8.4 16.15 6.45 15.7 Q5.3 13.55 5.3 12.55 L5.3 11.7 Q5.65 15.15 8.0 16.0" fill="#666666" fill-rule="evenodd" stroke="none"/>
      <path d="M4.35 13.6 L5.8 15.55 4.45 14.95 Q3.35 12.55 3.8 10.85 L4.05 9.95 Q3.55 12.35 4.35 13.6" fill="#666666" fill-rule="evenodd" stroke="none"/>
      <path d="M1.15 10.85 L1.35 12.3 Q0.75 11.35 0.4 10.0 L0.65 9.35 Q1.5 7.3 2.85 6.5 1.0 8.0 1.15 10.85" fill="#666666" fill-rule="evenodd" stroke="none"/>
    </g>
    <g id="sprite4" transform="matrix(1.0, 0.0, 0.0, 1.0, 0.15, 0.0)">
      <use height="8.05" transform="matrix(0.9104, 0.0, 0.0, 0.9068, -0.1366, 0.0)" width="13.95" xlink:href="#shape6"/>
    </g>
    <g id="shape6" transform="matrix(1.0, 0.0, 0.0, 1.0, 0.15, 0.0)">
      <path d="M11.0 0.05 Q14.65 0.85 13.55 4.35 12.4 7.85 7.55 8.05 2.6 8.2 0.7 5.4 -0.95 2.95 0.6 1.55 0.15 2.2 0.45 3.2 0.7 4.3 1.6 5.15 3.0 6.5 5.95 6.55 8.9 6.65 10.45 5.45 12.1 4.2 11.6 2.15 11.1 0.05 9.05 0.65 L8.85 0.75 Q10.0 -0.2 11.0 0.05" fill="#000000" fill-rule="evenodd" stroke="none"/>
    </g>
    <g id="sprite5" transform="matrix(1.0, 0.0, 0.0, 1.0, 0.0, -0.05)">
      <use height="8.05" transform="matrix(0.9091, 0.0, 0.0, 0.9006, 0.0, 0.05)" width="13.75" xlink:href="#shape7"/>
    </g>
    <g id="shape7" transform="matrix(1.0, 0.0, 0.0, 1.0, 0.0, 0.0)">
      <path d="M10.95 0.05 Q14.6 0.85 13.5 4.35 12.35 7.85 7.5 8.05 3.95 8.2 1.9 6.65 0.25 5.45 0.0 3.6 0.45 4.75 1.75 5.85 3.35 7.2 5.25 7.35 8.4 7.65 10.45 6.75 12.4 5.85 12.9 4.15 13.8 0.95 10.65 0.0 L10.95 0.05" fill="#000000" fill-rule="evenodd" stroke="none"/>
    </g>
    <g id="sprite6" transform="matrix(1.0, 0.0, 0.0, 1.0, 0.0, 0.0)">
      <use height="2.7" transform="matrix(0.9104, 0.0, 0.0, 0.9074, 0.0, 0.0)" width="3.35" xlink:href="#shape8"/>
    </g>
    <g id="shape8" transform="matrix(1.0, 0.0, 0.0, 1.0, 0.0, 0.0)">
      <path d="M1.55 0.8 Q1.6 1.15 2.25 1.4 L3.25 1.95 Q3.55 2.4 2.7 2.65 L1.0 2.45 Q0.15 2.05 0.0 1.35 -0.1 0.65 0.3 0.2 L1.0 0.1 Q1.45 0.3 1.55 0.8" fill="#ffffff" fill-rule="evenodd" stroke="none"/>
    </g>
    <g id="sprite7" transform="matrix(1.0, 0.0, 0.0, 1.0, 0.0, 0.0)">
      <use height="3.7" transform="matrix(0.9074, 0.0, 0.0, 0.9054, 0.0, 0.0)" width="5.4" xlink:href="#shape9"/>
    </g>
    <g id="shape9" transform="matrix(1.0, 0.0, 0.0, 1.0, 0.0, 0.0)">
      <path d="M5.2 2.25 Q4.65 3.25 2.65 3.6 L0.55 3.4 Q-0.1 3.0 0.05 2.55 0.1 2.25 0.75 2.15 L2.2 1.9 Q2.95 1.75 3.35 1.2 L3.8 0.35 4.35 0.0 Q4.85 -0.05 5.15 0.55 5.65 1.4 5.2 2.25" fill="#ffffff" fill-rule="evenodd" stroke="none"/>
    </g>
    <g id="shape10" transform="matrix(1.0, 0.0, 0.0, 1.0, -2.6, -7.15)">
      <path d="M14.3 7.15 Q15.1 7.0 14.95 7.9 14.7 8.85 13.2 9.6 12.2 10.1 11.15 10.0 9.85 9.85 11.0 9.75 12.7 9.6 13.25 8.5 13.85 7.25 14.3 7.15" fill="#ffffff" fill-rule="evenodd" stroke="none"/>
      <path d="M3.1 7.3 Q3.25 8.0 3.55 8.4 3.85 8.75 3.35 8.5 2.85 8.25 2.7 7.85 2.45 7.4 2.75 7.25 L3.1 7.3" fill="#ffffff" fill-rule="evenodd" stroke="none"/>
      <path d="M4.3 8.85 Q5.05 9.25 4.85 9.4 L4.35 9.35 Q4.05 9.25 4.05 9.0 3.95 8.75 4.3 8.85" fill="#ffffff" fill-rule="evenodd" stroke="none"/>
      <path d="M9.65 9.95 Q10.1 10.0 10.1 10.2 L9.65 10.35 Q9.3 10.45 9.3 10.2 9.3 9.85 9.65 9.95" fill="#ffffff" fill-rule="evenodd" stroke="none"/>
      <path d="M55.45 9.4 Q57.7 11.0 55.5 14.45 53.1 18.35 46.3 18.1 39.65 17.8 38.15 13.2 36.7 8.65 41.6 7.6 43.1 7.25 44.5 8.5 L46.45 10.45 Q47.2 11.1 48.45 10.95 49.8 10.85 50.5 10.1 52.85 7.65 55.45 9.4" fill="#b8b8b8" fill-rule="evenodd" stroke="none"/>
      <path d="M43.0 12.8 Q41.3 13.9 39.4 13.7 L38.3 13.45 38.05 12.6 39.4 13.35 Q40.75 13.8 43.0 12.8" fill="#666666" fill-rule="evenodd" stroke="none"/>
      <path d="M39.4 15.2 Q40.05 15.7 40.65 15.8 42.65 16.4 44.2 14.9 43.5 15.9 41.4 16.3 L40.75 16.4 39.4 15.2" fill="#666666" fill-rule="evenodd" stroke="none"/>
      <path d="M49.2 10.75 Q49.4 11.5 49.2 12.55 49.15 13.95 46.7 15.4 L47.7 14.15 Q48.65 12.85 48.45 10.95 L49.2 10.75" fill="#666666" fill-rule="evenodd" stroke="none"/>
      <path d="M44.7 8.6 L44.6 9.1 Q44.1 11.25 41.5 11.7 44.6 10.2 43.85 8.0 L44.7 8.6" fill="#666666" fill-rule="evenodd" stroke="none"/>
      <path d="M50.05 10.45 L50.5 10.1 50.75 9.85 Q51.3 10.6 51.55 11.6 51.9 13.05 50.55 14.05 51.15 13.35 51.0 11.85 50.9 10.95 50.05 10.45" fill="#666666" fill-rule="evenodd" stroke="none"/>
      <path d="M38.55 9.6 Q38.95 8.9 39.5 8.5 39.65 9.7 40.25 10.1 L41.5 10.2 Q42.0 9.6 41.6 9.15 L40.75 9.0 40.25 9.15 40.65 8.65 41.75 8.5 Q42.4 8.75 42.25 9.6 L41.5 10.75 40.15 10.95 Q39.2 10.7 38.65 9.75 L38.55 9.6" fill="#666666" fill-rule="evenodd" stroke="none"/>
      <path d="M46.45 10.45 L47.2 10.85 46.2 12.3 Q45.2 13.55 43.7 13.9 L42.4 13.9 43.0 13.8 Q43.7 13.7 44.45 13.2 46.3 12.1 46.2 10.2 L46.45 10.45" fill="#666666" fill-rule="evenodd" stroke="none"/>
      <path d="M39.3 11.95 Q40.5 12.95 42.0 12.45 40.9 13.1 39.65 12.85 38.65 12.6 37.95 11.7 L38.15 10.45 Q38.45 11.25 39.3 11.95" fill="#666666" fill-rule="evenodd" stroke="none"/>
      <path d="M54.1 14.15 L54.0 12.45 Q53.9 11.35 53.0 10.35 52.25 9.6 51.4 9.25 L52.4 8.75 53.4 9.95 Q55.0 11.8 54.1 14.15" fill="#666666" fill-rule="evenodd" stroke="none"/>
      <path d="M50.25 14.8 Q50.15 15.65 49.4 16.65 48.7 17.55 46.95 18.1 L46.3 18.1 45.0 17.9 47.1 17.5 Q49.4 16.9 50.25 14.8" fill="#666666" fill-rule="evenodd" stroke="none"/>
      <path d="M43.35 16.8 Q45.0 16.4 45.8 14.65 45.5 15.7 44.45 16.75 L43.15 17.55 41.85 17.0 43.35 16.8" fill="#666666" fill-rule="evenodd" stroke="none"/>
      <path d="M49.55 17.8 Q51.65 17.05 51.9 14.15 L51.9 14.8 Q51.9 15.7 50.9 17.55 L49.2 17.9 49.55 17.8" fill="#666666" fill-rule="evenodd" stroke="none"/>
      <path d="M53.15 12.8 L53.25 13.35 Q53.65 14.8 52.65 16.9 L51.5 17.4 52.75 15.7 Q53.5 14.65 53.15 12.8" fill="#666666" fill-rule="evenodd" stroke="none"/>
      <path d="M54.35 9.75 L54.75 10.2 56.0 12.05 56.3 12.6 55.45 14.65 55.5 13.35 Q55.7 11.1 54.35 9.75" fill="#666666" fill-rule="evenodd" stroke="none"/>
    </g>
    <g id="sprite8" transform="matrix(1.0, 0.0, 0.0, 1.0, 0.1, 0.0)">
      <use height="6.3" transform="matrix(1.0, 0.0, 0.0, 1.0, -0.1, 0.0)" width="11.2" xlink:href="#shape1"/>
    </g>
    <g id="sprite9" transform="matrix(1.0, 0.0, 0.0, 1.0, 0.1, -0.05)">
      <use height="6.25" transform="matrix(1.0, 0.0, 0.0, 1.0, -0.1, 0.05)" width="11.05" xlink:href="#shape2"/>
    </g>
    <g id="sprite10" transform="matrix(1.0, 0.0, 0.0, 1.0, 0.0, 0.0)">
      <use height="2.1" transform="matrix(1.0, 0.0, 0.0, 1.0, 0.0, 0.0)" width="2.65" xlink:href="#shape3"/>
    </g>
    <g id="sprite11" transform="matrix(1.0, 0.0, 0.0, 1.0, 0.0, 0.0)">
      <use height="2.9" transform="matrix(1.0, 0.0, 0.0, 1.0, 0.0, 0.0)" width="4.3" xlink:href="#shape4"/>
    </g>
    <g id="shape11" transform="matrix(1.0, 0.0, 0.0, 1.0, -12.15, -10.15)">
      <path d="M44.0 10.2 Q44.35 10.25 44.95 11.35 45.45 12.3 46.85 12.45 48.05 12.55 46.8 12.6 L44.95 12.3 Q43.6 11.7 43.4 10.85 43.25 10.0 44.0 10.2" fill="#ffffff" fill-rule="evenodd" stroke="none"/>
      <path d="M53.85 10.35 Q54.5 10.25 54.25 10.75 L53.5 11.25 53.85 10.35" fill="#ffffff" fill-rule="evenodd" stroke="none"/>
      <path d="M52.85 11.6 L53.1 11.8 Q53.0 12.05 52.75 12.1 L52.35 12.1 Q52.15 12.05 52.85 11.6" fill="#ffffff" fill-rule="evenodd" stroke="none"/>
      <path d="M48.15 12.55 Q48.45 12.45 48.45 12.8 48.4 13.05 48.05 12.95 47.3 12.8 48.15 12.55" fill="#ffffff" fill-rule="evenodd" stroke="none"/>
      <path d="M19.8 13.55 Q20.65 14.55 22.25 14.65 23.95 14.8 24.85 13.95 L27.3 11.45 Q29.05 9.95 30.9 10.35 37.05 11.7 35.2 17.55 33.25 23.45 25.1 23.8 16.65 24.05 13.5 19.15 10.75 14.8 13.6 12.7 16.95 10.35 19.8 13.55" fill="#b8b8b8" fill-rule="evenodd" stroke="none"/>
      <path d="M29.15 17.0 L30.85 17.55 33.7 17.75 35.35 16.8 35.0 17.8 33.7 18.15 Q32.15 18.35 30.5 17.65 L29.15 17.0" fill="#666666" fill-rule="evenodd" stroke="none"/>
      <path d="M33.7 20.2 L32.0 21.7 31.15 21.5 Q29.5 21.2 28.4 20.45 L27.65 19.75 28.9 20.6 Q30.5 21.35 32.1 20.95 L33.7 20.2" fill="#666666" fill-rule="evenodd" stroke="none"/>
      <path d="M21.35 14.45 L22.35 14.65 Q21.9 17.0 23.25 18.65 L24.55 20.35 Q21.5 18.5 21.35 16.75 L21.35 14.45" fill="#666666" fill-rule="evenodd" stroke="none"/>
      <path d="M27.05 11.7 L28.05 10.85 Q27.45 12.6 29.15 14.3 L31.0 15.65 29.3 15.05 Q27.55 14.05 27.15 12.3 L27.05 11.7" fill="#666666" fill-rule="evenodd" stroke="none"/>
      <path d="M19.5 13.2 L20.35 13.95 Q19.25 14.7 19.15 15.9 19.0 17.75 19.65 18.6 17.95 17.3 18.4 15.55 18.75 14.05 19.5 13.2" fill="#666666" fill-rule="evenodd" stroke="none"/>
      <path d="M34.75 12.85 L34.6 13.1 Q33.85 14.3 32.65 14.65 31.65 14.95 31.0 14.4 30.25 13.7 30.15 12.85 29.9 11.95 30.75 11.5 31.85 11.0 32.6 12.35 31.4 11.8 30.9 12.35 30.5 12.95 31.0 13.6 L32.6 13.55 33.45 12.55 33.5 11.6 34.75 12.85" fill="#666666" fill-rule="evenodd" stroke="none"/>
      <path d="M24.85 13.95 L25.1 13.7 Q25.05 16.0 27.4 17.55 28.8 18.5 29.9 18.4 27.15 18.9 25.1 16.4 L23.85 14.55 Q24.55 14.3 24.85 13.95" fill="#666666" fill-rule="evenodd" stroke="none"/>
      <path d="M33.75 16.0 Q35.1 14.8 35.2 13.95 L35.45 15.65 Q34.5 16.8 33.35 17.15 L31.25 17.0 30.4 16.55 31.5 16.75 Q32.85 16.75 33.75 16.0" fill="#666666" fill-rule="evenodd" stroke="none"/>
      <path d="M15.3 18.65 Q15.05 17.9 14.95 16.9 14.85 14.9 16.15 13.35 L17.45 11.85 18.65 12.55 Q17.55 12.95 16.65 13.95 15.45 15.15 15.35 16.55 L15.3 18.65" fill="#666666" fill-rule="evenodd" stroke="none"/>
      <path d="M20.05 19.65 L21.0 21.1 Q22.25 22.55 24.0 23.05 L26.65 23.6 25.1 23.8 24.2 23.8 Q21.85 22.95 21.15 21.95 L20.25 20.35 20.05 19.65" fill="#666666" fill-rule="evenodd" stroke="none"/>
      <path d="M28.75 22.2 L30.65 22.45 29.0 23.1 Q28.2 22.85 27.4 22.0 26.45 21.25 26.05 20.2 L25.7 19.35 26.45 20.5 Q27.4 21.85 28.75 22.2" fill="#666666" fill-rule="evenodd" stroke="none"/>
      <path d="M20.9 23.45 L21.4 23.55 19.25 23.1 Q17.95 20.85 17.95 19.65 L17.95 18.65 18.5 20.7 Q19.3 22.85 20.9 23.45" fill="#666666" fill-rule="evenodd" stroke="none"/>
      <path d="M16.95 20.75 L18.55 22.95 17.05 22.3 Q15.95 19.5 16.3 17.75 L16.55 16.75 Q16.05 19.4 16.95 20.75" fill="#666666" fill-rule="evenodd" stroke="none"/>
      <path d="M13.5 17.75 L13.7 19.35 Q12.85 18.15 12.6 16.8 L12.85 16.05 Q13.75 13.9 15.3 12.95 L14.3 14.2 Q13.35 15.8 13.5 17.75" fill="#666666" fill-rule="evenodd" stroke="none"/>
    </g>
    <g id="sprite12" transform="matrix(1.0, 0.0, 0.0, 1.0, 0.15, 0.0)">
      <use height="8.05" transform="matrix(1.0, 0.0, 0.0, 1.0, -0.15, 0.0)" width="13.95" xlink:href="#shape6"/>
    </g>
    <g id="sprite13" transform="matrix(1.0, 0.0, 0.0, 1.0, 0.0, 0.0)">
      <use height="8.05" transform="matrix(1.0, 0.0, 0.0, 1.0, 0.0, 0.0)" width="13.75" xlink:href="#shape7"/>
    </g>
    <g id="sprite14" transform="matrix(1.0, 0.0, 0.0, 1.0, 0.0, 0.0)">
      <use height="2.7" transform="matrix(1.0, 0.0, 0.0, 1.0, 0.0, 0.0)" width="3.35" xlink:href="#shape8"/>
    </g>
    <g id="sprite15" transform="matrix(1.0, 0.0, 0.0, 1.0, 0.0, 0.0)">
      <use height="3.7" transform="matrix(1.0, 0.0, 0.0, 1.0, 0.0, 0.0)" width="5.4" xlink:href="#shape9"/>
    </g>
    <g id="shape12" transform="matrix(1.0, 0.0, 0.0, 1.0, -15.0, -13.65)">
      <path d="M27.9 13.7 Q28.8 13.45 28.65 14.45 28.4 15.55 26.7 16.3 25.55 16.9 24.35 16.8 22.75 16.65 24.25 16.55 26.1 16.4 26.8 15.15 27.45 13.8 27.9 13.7" fill="#ffffff" fill-rule="evenodd" stroke="none"/>
      <path d="M15.6 13.9 L16.05 15.05 Q16.3 15.4 15.8 15.15 15.3 14.9 15.1 14.45 14.85 14.05 15.2 13.8 15.55 13.55 15.6 13.9" fill="#ffffff" fill-rule="evenodd" stroke="none"/>
      <path d="M16.9 15.55 L17.55 16.15 16.95 16.15 Q16.65 16.0 16.65 15.65 16.55 15.4 16.9 15.55" fill="#ffffff" fill-rule="evenodd" stroke="none"/>
      <path d="M22.75 16.75 Q23.25 16.8 23.25 17.0 L22.85 17.25 Q22.45 17.3 22.45 17.0 22.35 16.65 22.75 16.75" fill="#ffffff" fill-rule="evenodd" stroke="none"/>
    </g>
  </defs>
</svg>
