<?xml version="1.0" encoding="UTF-8" standalone="no"?>
<svg xmlns:xlink="http://www.w3.org/1999/xlink" height="106.1px" width="125.95px" xmlns="http://www.w3.org/2000/svg">
  <g transform="matrix(1.0, 0.0, 0.0, 1.0, 0.0, 0.0)">
    <use height="41.1" transform="matrix(1.0, 0.0, 0.0, 1.0, 0.0, 65.0)" width="118.2" xlink:href="#shape0"/>
    <use height="76.25" transform="matrix(1.0, 0.0096, 0.0, 0.8507, 80.0, 12.4006)" width="34.3" xlink:href="#morphshape0"/>
    <use height="76.55" transform="matrix(1.0, 0.0, 0.0, 1.0, 40.95, 0.0)" width="32.8" xlink:href="#morphshape1"/>
    <use height="76.55" transform="matrix(1.0, 0.0, 0.0, 1.0, 22.25, 3.8)" width="29.7" xlink:href="#shape1"/>
    <use height="74.7" transform="matrix(1.2341, 0.0763, -0.2136, 0.9937, 71.6365, 7.5294)" width="18.65" xlink:href="#morphshape2"/>
    <use height="33.3" transform="matrix(1.0, 0.0, 0.0, 1.0, 95.3, 45.75)" width="30.6" xlink:href="#morphshape3"/>
    <use height="47.7" transform="matrix(1.0, 0.0, 0.0, 1.0, 10.6, 37.55)" width="22.05" xlink:href="#shape2"/>
    <use height="74.7" transform="matrix(1.0, 0.0, 0.0, 1.0, 78.95, 18.55)" width="19.45" xlink:href="#morphshape4"/>
    <use height="50.0" transform="matrix(1.0, 0.0, 0.0, 1.0, 24.85, 43.3)" width="21.0" xlink:href="#shape3"/>
    <use height="65.6" transform="matrix(1.0, 0.0, 0.0, 1.0, 40.3, 28.6)" width="25.25" xlink:href="#morphshape5"/>
    <use height="57.7" transform="matrix(1.0, 0.0, 0.0, 1.0, 55.4, 39.5)" width="24.05" xlink:href="#morphshape6"/>
  </g>
  <defs>
    <g id="shape0" transform="matrix(1.0, 0.0, 0.0, 1.0, 59.1, 20.55)">
      <path d="M-24.55 -20.55 Q-10.25 -20.55 -0.15 -16.05 10.0 -11.6 10.0 -5.25 10.0 1.1 -0.15 5.55 -10.25 10.0 -24.55 10.0 -38.85 10.0 -48.95 5.55 -59.1 1.1 -59.1 -5.25 -59.1 -11.6 -48.95 -16.05 -38.85 -20.55 -24.55 -20.55" fill="#4c3b2a" fill-rule="evenodd" stroke="none"/>
      <path d="M59.1 -3.6 Q59.1 2.75 48.95 7.2 38.85 11.7 24.55 11.7 10.25 11.7 0.1 7.2 -10.0 2.75 -10.0 -3.6 -10.0 -9.9 0.1 -14.35 10.25 -18.85 24.55 -18.85 38.85 -18.85 48.95 -14.35 59.1 -9.9 59.1 -3.6" fill="#4c3b2a" fill-rule="evenodd" stroke="none"/>
      <path d="M-2.3 -9.95 Q12.05 -9.95 22.15 -5.5 32.25 -1.05 32.25 5.3 32.25 11.65 22.15 16.1 12.05 20.55 -2.3 20.55 -16.6 20.55 -26.7 16.1 -36.8 11.65 -36.8 5.3 -36.8 -1.05 -26.7 -5.5 -16.6 -9.95 -2.3 -9.95" fill="#4c3b2a" fill-rule="evenodd" stroke="none"/>
    </g>
    <g id="morphshape0" transform="matrix(1.0, 0.0, 0.0, 1.0, 14.85, 76.3)">
      <path d="M-14.85 -7.6 L-4.95 -0.05 Q2.6 -17.15 8.55 -28.6 14.4 -39.75 15.55 -53.3 16.75 -67.6 17.25 -75.8 14.3 -69.6 4.3 -46.2 L-1.8 -33.0 Q-4.35 -27.4 -6.8 -22.85 -8.65 -19.25 -11.05 -15.05 -13.6 -10.75 -14.85 -7.6" fill="url(#gradient0)" fill-rule="evenodd" stroke="none"/>
      <path d="M-14.85 -7.6 Q-13.6 -10.75 -11.05 -15.05 -8.65 -19.25 -6.8 -22.85 -4.35 -27.4 -1.8 -33.0 L4.3 -46.2 Q14.3 -69.6 17.25 -75.8 16.75 -67.6 15.55 -53.3 14.4 -39.75 8.55 -28.6 2.6 -17.15 -4.95 -0.05 L-14.85 -7.6 Z" fill="none" stroke="#000000" stroke-linecap="round" stroke-linejoin="round" stroke-opacity="0.0" stroke-width="1.0"/>
    </g>
    <linearGradient gradientTransform="matrix(0.0253, -0.0367, -0.0368, -0.0255, 4.25, -38.1)" gradientUnits="userSpaceOnUse" id="gradient0" spreadMethod="pad" x1="-819.2" x2="819.2">
      <stop offset="0.09019607843137255" stop-color="#4c3b2a"/>
      <stop offset="0.25882352941176473" stop-color="#625d38"/>
      <stop offset="0.43529411764705883" stop-color="#747843"/>
      <stop offset="0.6196078431372549" stop-color="#818b4b"/>
      <stop offset="0.803921568627451" stop-color="#899750"/>
      <stop offset="1.0" stop-color="#8c9b51"/>
    </linearGradient>
    <g id="morphshape1" transform="matrix(1.0, 0.0, 0.0, 1.0, 14.85, 76.6)">
      <path d="M-15.0 -7.65 L-5.1 -0.1 Q2.45 -17.25 8.4 -28.65 14.2 -39.85 15.3 -53.3 16.5 -67.5 16.95 -76.0 14.0 -69.45 4.1 -46.35 L-2.0 -33.1 Q-4.45 -27.85 -6.9 -22.95 -8.95 -19.2 -11.15 -15.15 -13.65 -10.8 -14.85 -7.6" fill="url(#gradient1)" fill-rule="evenodd" stroke="none"/>
      <path d="M-14.85 -7.6 Q-13.65 -10.8 -11.15 -15.15 -8.95 -19.2 -6.9 -22.95 -4.45 -27.85 -2.0 -33.1 L4.1 -46.35 Q14.0 -69.45 16.95 -76.0 16.5 -67.5 15.3 -53.3 14.2 -39.85 8.4 -28.65 2.45 -17.25 -5.1 -0.1 L-15.0 -7.65" fill="none" stroke="#000000" stroke-linecap="round" stroke-linejoin="round" stroke-opacity="0.0" stroke-width="1.0"/>
    </g>
    <linearGradient gradientTransform="matrix(0.0252, -0.0365, -0.0368, -0.0255, 4.25, -38.1)" gradientUnits="userSpaceOnUse" id="gradient1" spreadMethod="pad" x1="-819.2" x2="819.2">
      <stop offset="0.09019607843137255" stop-color="#4c3b2a"/>
      <stop offset="0.25882352941176473" stop-color="#625d38"/>
      <stop offset="0.43529411764705883" stop-color="#747843"/>
      <stop offset="0.6196078431372549" stop-color="#818b4b"/>
      <stop offset="0.803921568627451" stop-color="#899750"/>
      <stop offset="1.0" stop-color="#8c9b51"/>
    </linearGradient>
    <g id="shape1" transform="matrix(1.0, 0.0, 0.0, 1.0, 14.85, 76.6)">
      <path d="M14.3 -48.95 Q13.05 -38.75 8.8 -27.75 4.25 -15.9 -4.95 -0.05 L-14.85 -7.6 Q-13.25 -10.6 -10.55 -14.3 -7.7 -18.25 -6.3 -20.7 -3.65 -25.25 -1.1 -31.95 L3.9 -46.5 Q8.7 -60.85 13.4 -76.6 15.75 -61.0 14.3 -48.95" fill="url(#gradient2)" fill-rule="evenodd" stroke="none"/>
    </g>
    <linearGradient gradientTransform="matrix(0.0252, -0.0364, -0.0368, -0.0255, 4.25, -38.1)" gradientUnits="userSpaceOnUse" id="gradient2" spreadMethod="pad" x1="-819.2" x2="819.2">
      <stop offset="0.09019607843137255" stop-color="#4c3b2a"/>
      <stop offset="0.25882352941176473" stop-color="#625d38"/>
      <stop offset="0.43529411764705883" stop-color="#747843"/>
      <stop offset="0.6196078431372549" stop-color="#818b4b"/>
      <stop offset="0.803921568627451" stop-color="#899750"/>
      <stop offset="1.0" stop-color="#8c9b51"/>
    </linearGradient>
    <g id="morphshape2" transform="matrix(1.0, 0.0, 0.0, 1.0, 9.05, 74.7)">
      <path d="M-7.1 -44.0 L-7.1 -43.95 -7.1 -43.95 Q-10.55 -28.95 -5.2 -0.15 L-5.0 -0.05 -4.4 0.0 6.85 -2.9 6.85 -2.9 6.9 -3.05 7.05 -3.6 6.95 -4.55 6.95 -4.65 3.85 -18.55 3.8 -18.75 3.5 -20.05 Q1.55 -28.45 1.35 -34.35 1.2 -36.9 1.35 -39.25 L1.35 -39.3 Q1.9 -47.45 4.7 -57.4 L5.4 -59.9 Q7.45 -67.4 9.35 -73.9 L9.35 -74.0 9.3 -74.05 Q-3.75 -59.1 -7.15 -44.2" fill="url(#gradient3)" fill-rule="evenodd" stroke="none"/>
      <path d="M-7.15 -44.2 Q-3.75 -59.1 9.3 -74.05 L9.35 -74.0 9.35 -73.9 Q7.45 -67.4 5.4 -59.9 L4.7 -57.4 Q1.9 -47.45 1.35 -39.3 L1.35 -39.25 Q1.2 -36.9 1.35 -34.35 1.55 -28.45 3.5 -20.05 L3.8 -18.75 3.85 -18.55 6.95 -4.65 6.95 -4.55 7.05 -3.6 6.9 -3.05 6.85 -2.9 6.85 -2.9 -4.4 0.0 -5.0 -0.05 -5.2 -0.15 Q-10.55 -28.95 -7.1 -43.95 L-7.1 -43.95 -7.1 -44.0" fill="none" stroke="#000000" stroke-linecap="round" stroke-linejoin="round" stroke-opacity="0.0" stroke-width="1.0"/>
    </g>
    <linearGradient gradientTransform="matrix(-0.0106, -0.0392, 0.0389, -0.0105, 2.2, -36.05)" gradientUnits="userSpaceOnUse" id="gradient3" spreadMethod="pad" x1="-819.2" x2="819.2">
      <stop offset="0.09019607843137255" stop-color="#4c3b2a"/>
      <stop offset="0.25882352941176473" stop-color="#625d38"/>
      <stop offset="0.43529411764705883" stop-color="#747843"/>
      <stop offset="0.6196078431372549" stop-color="#818b4b"/>
      <stop offset="0.803921568627451" stop-color="#899750"/>
      <stop offset="1.0" stop-color="#8c9b51"/>
    </linearGradient>
    <g id="morphshape3" transform="matrix(1.0, 0.0, 0.0, 1.0, 15.25, 33.3)">
      <path d="M-15.15 -2.05 L-6.6 -0.1 Q-5.9 -1.95 -4.5 -8.2 -3.2 -13.7 -1.4 -16.55 0.75 -20.95 7.4 -26.3 11.45 -29.75 15.35 -33.0 2.7 -29.75 -3.85 -23.6 -10.65 -17.35 -15.25 -1.95" fill="url(#gradient4)" fill-rule="evenodd" stroke="none"/>
      <path d="M-15.25 -1.95 Q-10.65 -17.35 -3.85 -23.6 2.7 -29.75 15.35 -33.0 11.45 -29.75 7.4 -26.3 0.75 -20.95 -1.4 -16.55 -3.2 -13.7 -4.5 -8.2 -5.9 -1.95 -6.6 -0.1 L-15.15 -2.05" fill="none" stroke="#000000" stroke-linecap="round" stroke-linejoin="round" stroke-opacity="0.0" stroke-width="1.0"/>
    </g>
    <linearGradient gradientTransform="matrix(0.0052, -0.0212, 0.0209, 0.0052, -0.25, -16.75)" gradientUnits="userSpaceOnUse" id="gradient4" spreadMethod="pad" x1="-819.2" x2="819.2">
      <stop offset="0.09019607843137255" stop-color="#4c3b2a"/>
      <stop offset="0.25882352941176473" stop-color="#625d38"/>
      <stop offset="0.43529411764705883" stop-color="#747843"/>
      <stop offset="0.6196078431372549" stop-color="#818b4b"/>
      <stop offset="0.803921568627451" stop-color="#899750"/>
      <stop offset="1.0" stop-color="#8c9b51"/>
    </linearGradient>
    <g id="shape2" transform="matrix(1.0, 0.0, 0.0, 1.0, 11.05, 47.7)">
      <path d="M11.0 -47.7 Q8.35 -43.1 5.6 -36.85 0.15 -24.3 -0.15 -15.8 L-0.3 -6.3 Q-0.3 -4.85 -1.25 0.0 L-11.05 -2.7 -8.5 -20.85 Q-7.35 -28.35 -5.85 -32.05 -4.05 -36.4 -0.3 -39.85 3.2 -43.05 11.0 -47.7" fill="url(#gradient5)" fill-rule="evenodd" stroke="none"/>
    </g>
    <linearGradient gradientTransform="matrix(0.0075, -0.0282, 0.0296, 0.0055, -1.8, -25.35)" gradientUnits="userSpaceOnUse" id="gradient5" spreadMethod="pad" x1="-819.2" x2="819.2">
      <stop offset="0.09019607843137255" stop-color="#4c3b2a"/>
      <stop offset="0.25882352941176473" stop-color="#625d38"/>
      <stop offset="0.43529411764705883" stop-color="#747843"/>
      <stop offset="0.6196078431372549" stop-color="#818b4b"/>
      <stop offset="0.803921568627451" stop-color="#899750"/>
      <stop offset="1.0" stop-color="#8c9b51"/>
    </linearGradient>
    <g id="morphshape4" transform="matrix(1.0, 0.0, 0.0, 1.0, 9.55, 74.7)">
      <path d="M-6.7 -44.15 Q-10.15 -29.2 -5.2 -0.15 L-4.55 -0.3 7.0 -3.25 7.0 -3.25 6.95 -3.95 6.9 -4.6 6.85 -5.05 Q6.65 -6.8 3.95 -19.1 L3.75 -20.0 Q1.7 -29.3 1.65 -36.15 1.6 -38.05 1.7 -39.75 2.3 -48.0 4.95 -57.9 L5.6 -60.15 Q7.35 -67.5 9.05 -74.7 L9.0 -74.65 Q-3.25 -58.9 -6.65 -44.05" fill="url(#gradient6)" fill-rule="evenodd" stroke="none"/>
      <path d="M-6.65 -44.05 Q-3.25 -58.9 9.0 -74.65 L9.05 -74.7 Q7.35 -67.5 5.6 -60.15 L4.95 -57.9 Q2.3 -48.0 1.7 -39.75 1.6 -38.05 1.65 -36.15 1.7 -29.3 3.75 -20.0 L3.95 -19.1 Q6.65 -6.8 6.85 -5.05 L6.9 -4.6 6.95 -3.95 7.0 -3.25 7.0 -3.25 -4.55 -0.3 -5.2 -0.15 Q-10.15 -29.2 -6.7 -44.15" fill="none" stroke="#000000" stroke-linecap="round" stroke-linejoin="round" stroke-opacity="0.0" stroke-width="1.0"/>
    </g>
    <linearGradient gradientTransform="matrix(-0.0106, -0.0391, 0.0389, -0.0105, 2.15, -36.05)" gradientUnits="userSpaceOnUse" id="gradient6" spreadMethod="pad" x1="-819.2" x2="819.2">
      <stop offset="0.09019607843137255" stop-color="#4c3b2a"/>
      <stop offset="0.25882352941176473" stop-color="#625d38"/>
      <stop offset="0.43529411764705883" stop-color="#747843"/>
      <stop offset="0.6196078431372549" stop-color="#818b4b"/>
      <stop offset="0.803921568627451" stop-color="#899750"/>
      <stop offset="1.0" stop-color="#8c9b51"/>
    </linearGradient>
    <g id="shape3" transform="matrix(1.0, 0.0, 0.0, 1.0, 10.5, 50.0)">
      <path d="M6.5 -38.7 Q2.45 -26.1 2.15 -19.45 1.85 -13.15 3.0 -8.55 L4.75 -0.8 -9.85 0.0 Q-12.25 -15.75 -5.5 -28.35 -2.95 -33.15 1.8 -39.2 L10.5 -50.0 6.5 -38.7" fill="url(#gradient7)" fill-rule="evenodd" stroke="none"/>
    </g>
    <linearGradient gradientTransform="matrix(-0.004, -0.0287, 0.0287, -0.0047, 0.45, -24.3)" gradientUnits="userSpaceOnUse" id="gradient7" spreadMethod="pad" x1="-819.2" x2="819.2">
      <stop offset="0.09019607843137255" stop-color="#4c3b2a"/>
      <stop offset="0.25882352941176473" stop-color="#625d38"/>
      <stop offset="0.43529411764705883" stop-color="#747843"/>
      <stop offset="0.6196078431372549" stop-color="#818b4b"/>
      <stop offset="0.803921568627451" stop-color="#899750"/>
      <stop offset="1.0" stop-color="#8c9b51"/>
    </linearGradient>
    <g id="morphshape5" transform="matrix(1.0, 0.0, 0.0, 1.0, 12.65, 65.6)">
      <path d="M-11.8 0.0 L5.8 -1.1 Q5.7 -2.75 4.0 -11.2 2.75 -17.5 3.35 -25.9 3.95 -34.65 8.35 -50.5 10.65 -59.2 12.4 -65.6 7.95 -59.0 2.65 -51.45 -2.85 -43.35 -6.4 -36.5 -14.4 -20.6 -11.85 0.0" fill="url(#gradient8)" fill-rule="evenodd" stroke="none"/>
      <path d="M-11.85 0.0 Q-14.4 -20.6 -6.4 -36.5 -2.85 -43.35 2.65 -51.45 7.95 -59.0 12.4 -65.6 10.65 -59.2 8.35 -50.5 3.95 -34.65 3.35 -25.9 2.75 -17.5 4.0 -11.2 5.7 -2.75 5.8 -1.1 L-11.8 0.0" fill="none" stroke="#000000" stroke-linecap="round" stroke-linejoin="round" stroke-opacity="0.0" stroke-width="1.0"/>
    </g>
    <linearGradient gradientTransform="matrix(-0.0067, -0.0376, 0.0376, -0.0067, 0.25, -31.85)" gradientUnits="userSpaceOnUse" id="gradient8" spreadMethod="pad" x1="-819.2" x2="819.2">
      <stop offset="0.09019607843137255" stop-color="#4c3b2a"/>
      <stop offset="0.25882352941176473" stop-color="#625d38"/>
      <stop offset="0.43529411764705883" stop-color="#747843"/>
      <stop offset="0.6196078431372549" stop-color="#818b4b"/>
      <stop offset="0.803921568627451" stop-color="#899750"/>
      <stop offset="1.0" stop-color="#8c9b51"/>
    </linearGradient>
    <g id="morphshape6" transform="matrix(1.0, 0.0, 0.0, 1.0, 10.9, 57.7)">
      <path d="M-10.6 -0.05 L5.1 -1.0 4.0 -10.05 Q3.1 -17.5 4.1 -25.15 5.05 -32.9 9.2 -43.1 13.1 -52.45 12.9 -57.55 10.85 -52.9 4.75 -45.65 -1.3 -38.5 -6.1 -29.15 -11.45 -18.7 -10.55 0.0" fill="url(#gradient9)" fill-rule="evenodd" stroke="none"/>
      <path d="M-10.55 0.0 Q-11.45 -18.7 -6.1 -29.15 -1.3 -38.5 4.75 -45.65 10.85 -52.9 12.9 -57.55 13.1 -52.45 9.2 -43.1 5.05 -32.9 4.1 -25.15 3.1 -17.5 4.0 -10.05 L5.1 -1.0 -10.6 -0.05" fill="none" stroke="#000000" stroke-linecap="round" stroke-linejoin="round" stroke-opacity="0.0" stroke-width="1.0"/>
    </g>
    <linearGradient gradientTransform="matrix(-0.0054, -0.0334, 0.0333, -0.0054, 2.0, -28.45)" gradientUnits="userSpaceOnUse" id="gradient9" spreadMethod="pad" x1="-819.2" x2="819.2">
      <stop offset="0.09019607843137255" stop-color="#4c3b2a"/>
      <stop offset="0.25882352941176473" stop-color="#625d38"/>
      <stop offset="0.43529411764705883" stop-color="#747843"/>
      <stop offset="0.6196078431372549" stop-color="#818b4b"/>
      <stop offset="0.803921568627451" stop-color="#899750"/>
      <stop offset="1.0" stop-color="#8c9b51"/>
    </linearGradient>
  </defs>
</svg>
