<?xml version="1.0" encoding="UTF-8" standalone="no"?>
<svg xmlns:xlink="http://www.w3.org/1999/xlink" height="106.1px" width="125.95px" xmlns="http://www.w3.org/2000/svg">
  <g transform="matrix(1.0, 0.0, 0.0, 1.0, 0.0, 0.0)">
    <use height="41.1" transform="matrix(1.0, 0.0, 0.0, 1.0, 0.0, 65.0)" width="118.2" xlink:href="#shape0"/>
    <use height="76.25" transform="matrix(1.0, 0.0096, 0.0, 0.8507, 80.0, 12.4006)" width="34.3" xlink:href="#morphshape0"/>
    <use height="76.55" transform="matrix(1.0, 0.0, 0.0, 1.0, 40.95, 0.0)" width="32.8" xlink:href="#morphshape1"/>
    <use height="76.55" transform="matrix(1.0, 0.0, 0.0, 1.0, 22.25, 3.8)" width="29.7" xlink:href="#shape1"/>
    <use height="73.5" transform="matrix(1.2341, 0.0763, -0.2136, 0.9937, 70.146, 8.6456)" width="20.2" xlink:href="#morphshape2"/>
    <use height="35.1" transform="matrix(1.0, 0.0, 0.0, 1.0, 95.3, 43.95)" width="30.65" xlink:href="#morphshape3"/>
    <use height="47.7" transform="matrix(1.0, 0.0, 0.0, 1.0, 10.6, 37.55)" width="22.05" xlink:href="#shape2"/>
    <use height="74.7" transform="matrix(1.0, 0.0, 0.0, 1.0, 79.45, 18.55)" width="18.65" xlink:href="#morphshape4"/>
    <use height="50.0" transform="matrix(1.0, 0.0, 0.0, 1.0, 24.85, 43.3)" width="21.0" xlink:href="#shape3"/>
    <use height="65.55" transform="matrix(1.0, 0.0, 0.0, 1.0, 40.3, 28.65)" width="25.25" xlink:href="#shape4"/>
    <use height="57.95" transform="matrix(1.0, 0.0, 0.0, 1.0, 55.05, 39.25)" width="23.45" xlink:href="#morphshape5"/>
  </g>
  <defs>
    <g id="shape0" transform="matrix(1.0, 0.0, 0.0, 1.0, 59.1, 20.55)">
      <path d="M-24.55 -20.55 Q-10.25 -20.55 -0.15 -16.05 10.0 -11.6 10.0 -5.25 10.0 1.1 -0.15 5.55 -10.25 10.0 -24.55 10.0 -38.85 10.0 -48.95 5.55 -59.1 1.1 -59.1 -5.25 -59.1 -11.6 -48.95 -16.05 -38.85 -20.55 -24.55 -20.55" fill="#4c3b2a" fill-rule="evenodd" stroke="none"/>
      <path d="M59.1 -3.6 Q59.1 2.75 48.95 7.2 38.85 11.7 24.55 11.7 10.25 11.7 0.1 7.2 -10.0 2.75 -10.0 -3.6 -10.0 -9.9 0.1 -14.35 10.25 -18.85 24.55 -18.85 38.85 -18.85 48.95 -14.35 59.1 -9.9 59.1 -3.6" fill="#4c3b2a" fill-rule="evenodd" stroke="none"/>
      <path d="M-2.3 -9.95 Q12.05 -9.95 22.15 -5.5 32.25 -1.05 32.25 5.3 32.25 11.65 22.15 16.1 12.05 20.55 -2.3 20.55 -16.6 20.55 -26.7 16.1 -36.8 11.65 -36.8 5.3 -36.8 -1.05 -26.7 -5.5 -16.6 -9.95 -2.3 -9.95" fill="#4c3b2a" fill-rule="evenodd" stroke="none"/>
    </g>
    <g id="morphshape0" transform="matrix(1.0, 0.0, 0.0, 1.0, 14.85, 76.3)">
      <path d="M-14.75 -7.65 L-4.85 -0.1 Q1.8 -17.9 8.5 -29.15 15.2 -40.35 16.3 -55.7 17.35 -71.15 19.4 -75.4 17.4 -74.25 4.55 -46.0 L-2.15 -33.5 Q-4.65 -28.65 -7.1 -24.0 -9.2 -19.75 -11.35 -15.5 -13.8 -10.85 -14.85 -7.6" fill="url(#gradient0)" fill-rule="evenodd" stroke="none"/>
      <path d="M-14.85 -7.6 Q-13.8 -10.85 -11.35 -15.5 -9.2 -19.75 -7.1 -24.0 -4.65 -28.65 -2.15 -33.5 L4.55 -46.0 Q17.4 -74.25 19.4 -75.4 17.35 -71.15 16.3 -55.7 15.2 -40.35 8.5 -29.15 1.8 -17.9 -4.85 -0.1 L-14.75 -7.65" fill="none" stroke="#000000" stroke-linecap="round" stroke-linejoin="round" stroke-opacity="0.0" stroke-width="1.0"/>
    </g>
    <linearGradient gradientTransform="matrix(0.0254, -0.0367, -0.0368, -0.0255, 4.25, -38.1)" gradientUnits="userSpaceOnUse" id="gradient0" spreadMethod="pad" x1="-819.2" x2="819.2">
      <stop offset="0.09019607843137255" stop-color="#4c3b2a"/>
      <stop offset="0.25882352941176473" stop-color="#625d38"/>
      <stop offset="0.43529411764705883" stop-color="#747843"/>
      <stop offset="0.6196078431372549" stop-color="#818b4b"/>
      <stop offset="0.803921568627451" stop-color="#899750"/>
      <stop offset="1.0" stop-color="#8c9b51"/>
    </linearGradient>
    <g id="morphshape1" transform="matrix(1.0, 0.0, 0.0, 1.0, 14.85, 76.6)">
      <path d="M-14.95 -7.65 L-5.05 -0.1 Q3.8 -16.2 8.65 -27.95 13.25 -39.0 14.45 -49.85 15.85 -62.35 14.05 -76.55 9.7 -62.65 3.9 -46.55 L-1.35 -32.3 Q-3.85 -25.9 -6.45 -21.25 -8.0 -18.5 -10.7 -14.5 -13.35 -10.65 -14.85 -7.6" fill="url(#gradient1)" fill-rule="evenodd" stroke="none"/>
      <path d="M-14.85 -7.6 Q-13.35 -10.65 -10.7 -14.5 -8.0 -18.5 -6.45 -21.25 -3.85 -25.9 -1.35 -32.3 L3.9 -46.55 Q9.7 -62.65 14.05 -76.55 15.85 -62.35 14.45 -49.85 13.25 -39.0 8.65 -27.95 3.8 -16.2 -5.05 -0.1 L-14.95 -7.65" fill="none" stroke="#000000" stroke-linecap="round" stroke-linejoin="round" stroke-opacity="0.0" stroke-width="1.0"/>
    </g>
    <linearGradient gradientTransform="matrix(0.0252, -0.0364, -0.0368, -0.0255, 4.25, -38.1)" gradientUnits="userSpaceOnUse" id="gradient1" spreadMethod="pad" x1="-819.2" x2="819.2">
      <stop offset="0.09019607843137255" stop-color="#4c3b2a"/>
      <stop offset="0.25882352941176473" stop-color="#625d38"/>
      <stop offset="0.43529411764705883" stop-color="#747843"/>
      <stop offset="0.6196078431372549" stop-color="#818b4b"/>
      <stop offset="0.803921568627451" stop-color="#899750"/>
      <stop offset="1.0" stop-color="#8c9b51"/>
    </linearGradient>
    <g id="shape1" transform="matrix(1.0, 0.0, 0.0, 1.0, 14.85, 76.6)">
      <path d="M14.3 -48.95 Q13.05 -38.75 8.8 -27.75 4.25 -15.9 -4.95 -0.05 L-14.85 -7.6 Q-13.25 -10.6 -10.55 -14.3 -7.7 -18.25 -6.3 -20.7 -3.65 -25.25 -1.1 -31.95 L3.9 -46.5 Q8.7 -60.85 13.4 -76.6 15.75 -61.0 14.3 -48.95" fill="url(#gradient2)" fill-rule="evenodd" stroke="none"/>
    </g>
    <linearGradient gradientTransform="matrix(0.0252, -0.0364, -0.0368, -0.0255, 4.25, -38.1)" gradientUnits="userSpaceOnUse" id="gradient2" spreadMethod="pad" x1="-819.2" x2="819.2">
      <stop offset="0.09019607843137255" stop-color="#4c3b2a"/>
      <stop offset="0.25882352941176473" stop-color="#625d38"/>
      <stop offset="0.43529411764705883" stop-color="#747843"/>
      <stop offset="0.6196078431372549" stop-color="#818b4b"/>
      <stop offset="0.803921568627451" stop-color="#899750"/>
      <stop offset="1.0" stop-color="#8c9b51"/>
    </linearGradient>
    <g id="morphshape2" transform="matrix(1.0, 0.0, 0.0, 1.0, 10.05, 73.5)">
      <path d="M-7.75 -44.45 L-7.75 -44.45 -7.75 -44.4 Q-11.2 -29.15 -5.25 -0.4 L-4.85 -0.1 -4.75 -0.1 6.7 -3.05 7.05 -3.55 7.05 -3.6 6.9 -4.55 3.55 -18.45 3.2 -19.6 3.2 -19.7 Q0.95 -28.45 0.8 -33.95 L0.8 -34.05 Q0.6 -36.5 0.7 -38.95 1.15 -46.85 4.2 -57.0 L5.0 -59.65 5.1 -59.85 Q7.5 -67.65 9.6 -73.45 L9.55 -73.5 9.25 -73.2 Q-4.45 -59.3 -7.75 -44.45" fill="url(#gradient3)" fill-rule="evenodd" stroke="none"/>
      <path d="M-7.75 -44.45 Q-4.45 -59.3 9.25 -73.2 L9.55 -73.5 9.6 -73.45 Q7.5 -67.65 5.1 -59.85 L5.0 -59.65 4.2 -57.0 Q1.15 -46.85 0.7 -38.95 0.6 -36.5 0.8 -34.05 L0.8 -33.95 Q0.95 -28.45 3.2 -19.7 L3.2 -19.6 3.55 -18.45 6.9 -4.55 7.05 -3.6 7.05 -3.55 6.7 -3.05 -4.75 -0.1 -4.85 -0.1 -5.25 -0.4 Q-11.2 -29.15 -7.75 -44.4 L-7.75 -44.45 -7.75 -44.45 Z" fill="none" stroke="#000000" stroke-linecap="round" stroke-linejoin="round" stroke-opacity="0.0" stroke-width="1.0"/>
    </g>
    <linearGradient gradientTransform="matrix(-0.0106, -0.0393, 0.0389, -0.0105, 2.25, -36.05)" gradientUnits="userSpaceOnUse" id="gradient3" spreadMethod="pad" x1="-819.2" x2="819.2">
      <stop offset="0.09019607843137255" stop-color="#4c3b2a"/>
      <stop offset="0.25882352941176473" stop-color="#625d38"/>
      <stop offset="0.43529411764705883" stop-color="#747843"/>
      <stop offset="0.6196078431372549" stop-color="#818b4b"/>
      <stop offset="0.803921568627451" stop-color="#899750"/>
      <stop offset="1.0" stop-color="#8c9b51"/>
    </linearGradient>
    <g id="morphshape3" transform="matrix(1.0, 0.0, 0.0, 1.0, 15.25, 35.1)">
      <path d="M-15.1 -1.9 L-6.55 0.05 Q-5.8 -1.1 -4.15 -7.4 -2.6 -13.25 -0.3 -16.8 2.05 -20.85 7.1 -25.7 L15.4 -34.5 Q3.55 -29.35 -3.1 -23.3 -9.85 -17.2 -15.25 -1.95" fill="url(#gradient4)" fill-rule="evenodd" stroke="none"/>
      <path d="M-15.25 -1.95 Q-9.85 -17.2 -3.1 -23.3 3.55 -29.35 15.4 -34.5 L7.1 -25.7 Q2.05 -20.85 -0.3 -16.8 -2.6 -13.25 -4.15 -7.4 -5.8 -1.1 -6.55 0.05 L-15.1 -1.9" fill="none" stroke="#000000" stroke-linecap="round" stroke-linejoin="round" stroke-opacity="0.0" stroke-width="1.0"/>
    </g>
    <linearGradient gradientTransform="matrix(0.0057, -0.0213, 0.0208, 0.0056, -0.5, -16.75)" gradientUnits="userSpaceOnUse" id="gradient4" spreadMethod="pad" x1="-819.2" x2="819.2">
      <stop offset="0.09019607843137255" stop-color="#4c3b2a"/>
      <stop offset="0.25882352941176473" stop-color="#625d38"/>
      <stop offset="0.43529411764705883" stop-color="#747843"/>
      <stop offset="0.6196078431372549" stop-color="#818b4b"/>
      <stop offset="0.803921568627451" stop-color="#899750"/>
      <stop offset="1.0" stop-color="#8c9b51"/>
    </linearGradient>
    <g id="shape2" transform="matrix(1.0, 0.0, 0.0, 1.0, 11.05, 47.7)">
      <path d="M11.0 -47.7 Q8.35 -43.1 5.6 -36.85 0.15 -24.3 -0.15 -15.8 L-0.3 -6.3 Q-0.3 -4.85 -1.25 0.0 L-11.05 -2.7 -8.5 -20.85 Q-7.35 -28.35 -5.85 -32.05 -4.05 -36.4 -0.3 -39.85 3.2 -43.05 11.0 -47.7" fill="url(#gradient5)" fill-rule="evenodd" stroke="none"/>
    </g>
    <linearGradient gradientTransform="matrix(0.0075, -0.0282, 0.0296, 0.0055, -1.8, -25.35)" gradientUnits="userSpaceOnUse" id="gradient5" spreadMethod="pad" x1="-819.2" x2="819.2">
      <stop offset="0.09019607843137255" stop-color="#4c3b2a"/>
      <stop offset="0.25882352941176473" stop-color="#625d38"/>
      <stop offset="0.43529411764705883" stop-color="#747843"/>
      <stop offset="0.6196078431372549" stop-color="#818b4b"/>
      <stop offset="0.803921568627451" stop-color="#899750"/>
      <stop offset="1.0" stop-color="#8c9b51"/>
    </linearGradient>
    <g id="morphshape4" transform="matrix(1.0, 0.0, 0.0, 1.0, 9.05, 74.7)">
      <path d="M-7.2 -44.1 L-7.2 -44.0 -7.2 -44.0 Q-10.65 -29.05 -5.4 -0.2 L-5.15 -0.15 -4.5 -0.15 6.75 -3.05 6.75 -3.05 6.75 -3.25 6.85 -3.8 6.8 -4.75 6.8 -4.85 3.75 -18.75 3.65 -19.0 3.4 -20.3 Q1.55 -28.6 1.3 -34.55 1.2 -37.1 1.4 -39.4 L1.4 -39.4 Q2.0 -47.6 4.75 -57.5 L5.4 -59.95 Q7.4 -67.35 9.25 -73.95 L9.25 -74.05 9.25 -74.15 Q-3.65 -59.0 -7.05 -44.15" fill="url(#gradient6)" fill-rule="evenodd" stroke="none"/>
      <path d="M-7.05 -44.15 Q-3.65 -59.0 9.25 -74.15 L9.25 -74.05 9.25 -73.95 Q7.4 -67.35 5.4 -59.95 L4.75 -57.5 Q2.0 -47.6 1.4 -39.4 L1.4 -39.4 Q1.2 -37.1 1.3 -34.55 1.55 -28.6 3.4 -20.3 L3.65 -19.0 3.75 -18.75 6.8 -4.85 6.8 -4.75 6.85 -3.8 6.75 -3.25 6.75 -3.05 6.75 -3.05 -4.5 -0.15 -5.15 -0.15 -5.4 -0.2 Q-10.65 -29.05 -7.2 -44.0 L-7.2 -44.0 -7.2 -44.1" fill="none" stroke="#000000" stroke-linecap="round" stroke-linejoin="round" stroke-opacity="0.0" stroke-width="1.0"/>
    </g>
    <linearGradient gradientTransform="matrix(-0.0106, -0.0392, 0.0389, -0.0105, 2.2, -36.05)" gradientUnits="userSpaceOnUse" id="gradient6" spreadMethod="pad" x1="-819.2" x2="819.2">
      <stop offset="0.09019607843137255" stop-color="#4c3b2a"/>
      <stop offset="0.25882352941176473" stop-color="#625d38"/>
      <stop offset="0.43529411764705883" stop-color="#747843"/>
      <stop offset="0.6196078431372549" stop-color="#818b4b"/>
      <stop offset="0.803921568627451" stop-color="#899750"/>
      <stop offset="1.0" stop-color="#8c9b51"/>
    </linearGradient>
    <g id="shape3" transform="matrix(1.0, 0.0, 0.0, 1.0, 10.5, 50.0)">
      <path d="M6.5 -38.7 Q2.45 -26.1 2.15 -19.45 1.85 -13.15 3.0 -8.55 L4.75 -0.8 -9.85 0.0 Q-12.25 -15.75 -5.5 -28.35 -2.95 -33.15 1.8 -39.2 L10.5 -50.0 6.5 -38.7" fill="url(#gradient7)" fill-rule="evenodd" stroke="none"/>
    </g>
    <linearGradient gradientTransform="matrix(-0.004, -0.0287, 0.0287, -0.0047, 0.45, -24.3)" gradientUnits="userSpaceOnUse" id="gradient7" spreadMethod="pad" x1="-819.2" x2="819.2">
      <stop offset="0.09019607843137255" stop-color="#4c3b2a"/>
      <stop offset="0.25882352941176473" stop-color="#625d38"/>
      <stop offset="0.43529411764705883" stop-color="#747843"/>
      <stop offset="0.6196078431372549" stop-color="#818b4b"/>
      <stop offset="0.803921568627451" stop-color="#899750"/>
      <stop offset="1.0" stop-color="#8c9b51"/>
    </linearGradient>
    <g id="shape4" transform="matrix(1.0, 0.0, 0.0, 1.0, 12.65, 65.55)">
      <path d="M2.1 -51.45 L12.6 -65.55 Q10.25 -59.05 7.8 -50.75 2.95 -34.25 2.6 -25.5 2.25 -17.2 3.65 -11.2 5.6 -2.7 5.75 -1.1 L-11.85 0.0 Q-14.8 -20.65 -6.65 -37.25 -3.6 -43.5 2.1 -51.45" fill="url(#gradient8)" fill-rule="evenodd" stroke="none"/>
    </g>
    <linearGradient gradientTransform="matrix(-0.0069, -0.0376, 0.0375, -0.0069, 0.45, -31.9)" gradientUnits="userSpaceOnUse" id="gradient8" spreadMethod="pad" x1="-819.2" x2="819.2">
      <stop offset="0.09019607843137255" stop-color="#4c3b2a"/>
      <stop offset="0.25882352941176473" stop-color="#625d38"/>
      <stop offset="0.43529411764705883" stop-color="#747843"/>
      <stop offset="0.6196078431372549" stop-color="#818b4b"/>
      <stop offset="0.803921568627451" stop-color="#899750"/>
      <stop offset="1.0" stop-color="#8c9b51"/>
    </linearGradient>
    <g id="morphshape5" transform="matrix(1.0, 0.0, 0.0, 1.0, 11.25, 57.95)">
      <path d="M-10.55 0.0 L5.15 -0.95 3.7 -9.95 Q2.65 -16.45 3.35 -23.95 4.0 -31.7 8.25 -43.8 11.4 -52.3 12.2 -57.7 9.65 -53.2 3.5 -45.55 -2.1 -38.45 -6.0 -30.75 -12.2 -18.5 -10.55 0.0" fill="url(#gradient9)" fill-rule="evenodd" stroke="none"/>
      <path d="M-10.55 0.0 Q-12.2 -18.5 -6.0 -30.75 -2.1 -38.45 3.5 -45.55 9.65 -53.2 12.2 -57.7 11.4 -52.3 8.25 -43.8 4.0 -31.7 3.35 -23.95 2.65 -16.45 3.7 -9.95 L5.15 -0.95 -10.55 0.0 Z" fill="none" stroke="#000000" stroke-linecap="round" stroke-linejoin="round" stroke-opacity="0.0" stroke-width="1.0"/>
    </g>
    <linearGradient gradientTransform="matrix(-0.0051, -0.0336, 0.0333, -0.0052, 1.35, -28.4)" gradientUnits="userSpaceOnUse" id="gradient9" spreadMethod="pad" x1="-819.2" x2="819.2">
      <stop offset="0.09019607843137255" stop-color="#4c3b2a"/>
      <stop offset="0.25882352941176473" stop-color="#625d38"/>
      <stop offset="0.43529411764705883" stop-color="#747843"/>
      <stop offset="0.6196078431372549" stop-color="#818b4b"/>
      <stop offset="0.803921568627451" stop-color="#899750"/>
      <stop offset="1.0" stop-color="#8c9b51"/>
    </linearGradient>
  </defs>
</svg>
