<?xml version="1.0" encoding="UTF-8" standalone="no"?>
<svg xmlns:xlink="http://www.w3.org/1999/xlink" height="106.1px" width="125.95px" xmlns="http://www.w3.org/2000/svg">
  <g transform="matrix(1.0, 0.0, 0.0, 1.0, 0.0, 0.0)">
    <use height="41.1" transform="matrix(1.0, 0.0, 0.0, 1.0, 0.0, 65.0)" width="118.2" xlink:href="#shape0"/>
    <use height="76.55" transform="matrix(1.0, 0.0096, 0.0, 0.8507, 80.0, 12.1454)" width="32.8" xlink:href="#morphshape0"/>
    <use height="76.55" transform="matrix(1.0, 0.0, 0.0, 1.0, 40.95, 0.0)" width="29.7" xlink:href="#shape1"/>
    <use height="76.55" transform="matrix(1.0, 0.0, 0.0, 1.0, 22.25, 3.8)" width="29.7" xlink:href="#shape1"/>
    <use height="72.55" transform="matrix(1.2341, 0.0763, -0.2136, 0.9937, 69.8814, 9.5858)" width="20.25" xlink:href="#shape2"/>
    <use height="35.1" transform="matrix(1.0, 0.0, 0.0, 1.0, 95.3, 43.95)" width="30.65" xlink:href="#morphshape1"/>
    <use height="47.7" transform="matrix(1.0, 0.0, 0.0, 1.0, 10.6, 37.55)" width="22.05" xlink:href="#shape3"/>
    <use height="73.5" transform="matrix(1.0, 0.0, 0.0, 1.0, 78.45, 19.75)" width="20.2" xlink:href="#morphshape2"/>
    <use height="50.0" transform="matrix(1.0, 0.0, 0.0, 1.0, 24.85, 43.3)" width="21.0" xlink:href="#shape4"/>
    <use height="65.55" transform="matrix(1.0, 0.0, 0.0, 1.0, 40.3, 28.65)" width="25.25" xlink:href="#shape5"/>
    <use height="57.95" transform="matrix(1.0, 0.0, 0.0, 1.0, 55.05, 39.25)" width="22.5" xlink:href="#shape6"/>
  </g>
  <defs>
    <g id="shape0" transform="matrix(1.0, 0.0, 0.0, 1.0, 59.1, 20.55)">
      <path d="M-24.55 -20.55 Q-10.25 -20.55 -0.15 -16.05 10.0 -11.6 10.0 -5.25 10.0 1.1 -0.15 5.55 -10.25 10.0 -24.55 10.0 -38.85 10.0 -48.95 5.55 -59.1 1.1 -59.1 -5.25 -59.1 -11.6 -48.95 -16.05 -38.85 -20.55 -24.55 -20.55" fill="#4c3b2a" fill-rule="evenodd" stroke="none"/>
      <path d="M59.1 -3.6 Q59.1 2.75 48.95 7.2 38.85 11.7 24.55 11.7 10.25 11.7 0.1 7.2 -10.0 2.75 -10.0 -3.6 -10.0 -9.9 0.1 -14.35 10.25 -18.85 24.55 -18.85 38.85 -18.85 48.95 -14.35 59.1 -9.9 59.1 -3.6" fill="#4c3b2a" fill-rule="evenodd" stroke="none"/>
      <path d="M-2.3 -9.95 Q12.05 -9.95 22.15 -5.5 32.25 -1.05 32.25 5.3 32.25 11.65 22.15 16.1 12.05 20.55 -2.3 20.55 -16.6 20.55 -26.7 16.1 -36.8 11.65 -36.8 5.3 -36.8 -1.05 -26.7 -5.5 -16.6 -9.95 -2.3 -9.95" fill="#4c3b2a" fill-rule="evenodd" stroke="none"/>
    </g>
    <g id="morphshape0" transform="matrix(1.0, 0.0, 0.0, 1.0, 14.85, 76.6)">
      <path d="M-14.85 -7.6 L-4.95 -0.05 Q2.25 -17.45 8.5 -28.8 14.65 -40.0 15.75 -54.2 16.9 -68.9 17.95 -75.75 15.35 -71.3 4.3 -46.2 L-2.05 -33.25 Q-4.5 -28.3 -6.95 -23.35 -9.1 -19.3 -11.2 -15.25 -13.7 -10.8 -14.85 -7.6" fill="url(#gradient0)" fill-rule="evenodd" stroke="none"/>
      <path d="M-14.85 -7.6 Q-13.7 -10.8 -11.2 -15.25 -9.1 -19.3 -6.95 -23.35 -4.5 -28.3 -2.05 -33.25 L4.3 -46.2 Q15.35 -71.3 17.95 -75.75 16.9 -68.9 15.75 -54.2 14.65 -40.0 8.5 -28.8 2.25 -17.45 -4.95 -0.05 L-14.85 -7.6 Z" fill="none" stroke="#000000" stroke-linecap="round" stroke-linejoin="round" stroke-opacity="0.0" stroke-width="1.0"/>
    </g>
    <linearGradient gradientTransform="matrix(0.0252, -0.0365, -0.0368, -0.0255, 4.25, -38.1)" gradientUnits="userSpaceOnUse" id="gradient0" spreadMethod="pad" x1="-819.2" x2="819.2">
      <stop offset="0.09019607843137255" stop-color="#4c3b2a"/>
      <stop offset="0.25882352941176473" stop-color="#625d38"/>
      <stop offset="0.43529411764705883" stop-color="#747843"/>
      <stop offset="0.6196078431372549" stop-color="#818b4b"/>
      <stop offset="0.803921568627451" stop-color="#899750"/>
      <stop offset="1.0" stop-color="#8c9b51"/>
    </linearGradient>
    <g id="shape1" transform="matrix(1.0, 0.0, 0.0, 1.0, 14.85, 76.6)">
      <path d="M14.3 -48.95 Q13.05 -38.75 8.8 -27.75 4.25 -15.9 -4.95 -0.05 L-14.85 -7.6 Q-13.25 -10.6 -10.55 -14.3 -7.7 -18.25 -6.3 -20.7 -3.65 -25.25 -1.1 -31.95 L3.9 -46.5 Q8.7 -60.85 13.4 -76.6 15.75 -61.0 14.3 -48.95" fill="url(#gradient1)" fill-rule="evenodd" stroke="none"/>
    </g>
    <linearGradient gradientTransform="matrix(0.0252, -0.0364, -0.0368, -0.0255, 4.25, -38.1)" gradientUnits="userSpaceOnUse" id="gradient1" spreadMethod="pad" x1="-819.2" x2="819.2">
      <stop offset="0.09019607843137255" stop-color="#4c3b2a"/>
      <stop offset="0.25882352941176473" stop-color="#625d38"/>
      <stop offset="0.43529411764705883" stop-color="#747843"/>
      <stop offset="0.6196078431372549" stop-color="#818b4b"/>
      <stop offset="0.803921568627451" stop-color="#899750"/>
      <stop offset="1.0" stop-color="#8c9b51"/>
    </linearGradient>
    <g id="shape2" transform="matrix(1.0, 0.0, 0.0, 1.0, 10.1, 72.55)">
      <path d="M10.15 -72.55 Q7.05 -66.6 4.15 -58.75 -1.55 -43.05 -0.25 -33.45 -0.2 -28.7 2.6 -19.2 L7.1 -3.15 -5.15 0.0 Q-12.45 -29.0 -8.95 -44.9 -5.55 -60.15 10.15 -72.55" fill="url(#gradient2)" fill-rule="evenodd" stroke="none"/>
    </g>
    <linearGradient gradientTransform="matrix(-0.0105, -0.039, 0.0389, -0.0105, 2.55, -36.15)" gradientUnits="userSpaceOnUse" id="gradient2" spreadMethod="pad" x1="-819.2" x2="819.2">
      <stop offset="0.09019607843137255" stop-color="#4c3b2a"/>
      <stop offset="0.25882352941176473" stop-color="#625d38"/>
      <stop offset="0.43529411764705883" stop-color="#747843"/>
      <stop offset="0.6196078431372549" stop-color="#818b4b"/>
      <stop offset="0.803921568627451" stop-color="#899750"/>
      <stop offset="1.0" stop-color="#8c9b51"/>
    </linearGradient>
    <g id="morphshape1" transform="matrix(1.0, 0.0, 0.0, 1.0, 15.25, 35.1)">
      <path d="M-15.35 -1.85 L-6.8 0.1 Q-6.0 -1.0 -4.3 -7.25 -2.7 -13.15 -0.35 -16.75 2.05 -20.75 7.05 -25.55 L15.4 -34.4 Q3.6 -29.2 -3.1 -23.2 -9.8 -17.15 -15.25 -1.95" fill="url(#gradient3)" fill-rule="evenodd" stroke="none"/>
      <path d="M-15.25 -1.95 Q-9.8 -17.15 -3.1 -23.2 3.6 -29.2 15.4 -34.4 L7.05 -25.55 Q2.05 -20.75 -0.35 -16.75 -2.7 -13.15 -4.3 -7.25 -6.0 -1.0 -6.8 0.1 L-15.35 -1.85" fill="none" stroke="#000000" stroke-linecap="round" stroke-linejoin="round" stroke-opacity="0.0" stroke-width="1.0"/>
    </g>
    <linearGradient gradientTransform="matrix(0.0057, -0.0215, 0.0208, 0.0056, -0.5, -16.75)" gradientUnits="userSpaceOnUse" id="gradient3" spreadMethod="pad" x1="-819.2" x2="819.2">
      <stop offset="0.09019607843137255" stop-color="#4c3b2a"/>
      <stop offset="0.25882352941176473" stop-color="#625d38"/>
      <stop offset="0.43529411764705883" stop-color="#747843"/>
      <stop offset="0.6196078431372549" stop-color="#818b4b"/>
      <stop offset="0.803921568627451" stop-color="#899750"/>
      <stop offset="1.0" stop-color="#8c9b51"/>
    </linearGradient>
    <g id="shape3" transform="matrix(1.0, 0.0, 0.0, 1.0, 11.05, 47.7)">
      <path d="M11.0 -47.7 Q8.35 -43.1 5.6 -36.85 0.15 -24.3 -0.15 -15.8 L-0.3 -6.3 Q-0.3 -4.85 -1.25 0.0 L-11.05 -2.7 -8.5 -20.85 Q-7.35 -28.35 -5.85 -32.05 -4.05 -36.4 -0.3 -39.85 3.2 -43.05 11.0 -47.7" fill="url(#gradient4)" fill-rule="evenodd" stroke="none"/>
    </g>
    <linearGradient gradientTransform="matrix(0.0075, -0.0282, 0.0296, 0.0055, -1.8, -25.35)" gradientUnits="userSpaceOnUse" id="gradient4" spreadMethod="pad" x1="-819.2" x2="819.2">
      <stop offset="0.09019607843137255" stop-color="#4c3b2a"/>
      <stop offset="0.25882352941176473" stop-color="#625d38"/>
      <stop offset="0.43529411764705883" stop-color="#747843"/>
      <stop offset="0.6196078431372549" stop-color="#818b4b"/>
      <stop offset="0.803921568627451" stop-color="#899750"/>
      <stop offset="1.0" stop-color="#8c9b51"/>
    </linearGradient>
    <g id="morphshape2" transform="matrix(1.0, 0.0, 0.0, 1.0, 10.05, 73.5)">
      <path d="M-8.6 -44.75 L-8.6 -44.7 -8.6 -44.65 Q-12.05 -28.95 -5.15 -0.45 L-5.0 0.1 -4.9 0.1 6.6 -2.9 7.05 -3.1 7.1 -3.15 6.9 -4.1 3.1 -18.0 2.75 -19.15 2.75 -19.2 Q0.05 -28.55 -0.05 -33.45 L-0.05 -33.5 Q-0.3 -35.7 -0.2 -38.15 0.05 -45.8 3.45 -56.15 L4.25 -58.7 4.35 -58.9 Q7.05 -66.45 9.9 -72.3 L9.85 -72.35 9.95 -72.6 Q-5.4 -59.95 -8.75 -44.8" fill="url(#gradient5)" fill-rule="evenodd" stroke="none"/>
      <path d="M-8.75 -44.8 Q-5.4 -59.95 9.95 -72.6 L9.85 -72.35 9.9 -72.3 Q7.05 -66.45 4.35 -58.9 L4.25 -58.7 3.45 -56.15 Q0.05 -45.8 -0.2 -38.15 -0.3 -35.7 -0.05 -33.5 L-0.05 -33.45 Q0.05 -28.55 2.75 -19.2 L2.75 -19.15 3.1 -18.0 6.9 -4.1 7.1 -3.15 7.05 -3.1 6.6 -2.9 -4.9 0.1 -5.0 0.1 -5.15 -0.45 Q-12.05 -28.95 -8.6 -44.65 L-8.6 -44.7 -8.6 -44.75" fill="none" stroke="#000000" stroke-linecap="round" stroke-linejoin="round" stroke-opacity="0.0" stroke-width="1.0"/>
    </g>
    <linearGradient gradientTransform="matrix(-0.0105, -0.039, 0.0389, -0.0105, 2.5, -36.15)" gradientUnits="userSpaceOnUse" id="gradient5" spreadMethod="pad" x1="-819.2" x2="819.2">
      <stop offset="0.09019607843137255" stop-color="#4c3b2a"/>
      <stop offset="0.25882352941176473" stop-color="#625d38"/>
      <stop offset="0.43529411764705883" stop-color="#747843"/>
      <stop offset="0.6196078431372549" stop-color="#818b4b"/>
      <stop offset="0.803921568627451" stop-color="#899750"/>
      <stop offset="1.0" stop-color="#8c9b51"/>
    </linearGradient>
    <g id="shape4" transform="matrix(1.0, 0.0, 0.0, 1.0, 10.5, 50.0)">
      <path d="M6.5 -38.7 Q2.45 -26.1 2.15 -19.45 1.85 -13.15 3.0 -8.55 L4.75 -0.8 -9.85 0.0 Q-12.25 -15.75 -5.5 -28.35 -2.95 -33.15 1.8 -39.2 L10.5 -50.0 6.5 -38.7" fill="url(#gradient6)" fill-rule="evenodd" stroke="none"/>
    </g>
    <linearGradient gradientTransform="matrix(-0.004, -0.0287, 0.0287, -0.0047, 0.45, -24.3)" gradientUnits="userSpaceOnUse" id="gradient6" spreadMethod="pad" x1="-819.2" x2="819.2">
      <stop offset="0.09019607843137255" stop-color="#4c3b2a"/>
      <stop offset="0.25882352941176473" stop-color="#625d38"/>
      <stop offset="0.43529411764705883" stop-color="#747843"/>
      <stop offset="0.6196078431372549" stop-color="#818b4b"/>
      <stop offset="0.803921568627451" stop-color="#899750"/>
      <stop offset="1.0" stop-color="#8c9b51"/>
    </linearGradient>
    <g id="shape5" transform="matrix(1.0, 0.0, 0.0, 1.0, 12.65, 65.55)">
      <path d="M2.1 -51.45 L12.6 -65.55 Q10.25 -59.05 7.8 -50.75 2.95 -34.25 2.6 -25.5 2.25 -17.2 3.65 -11.2 5.6 -2.7 5.75 -1.1 L-11.85 0.0 Q-14.8 -20.65 -6.65 -37.25 -3.6 -43.5 2.1 -51.45" fill="url(#gradient7)" fill-rule="evenodd" stroke="none"/>
    </g>
    <linearGradient gradientTransform="matrix(-0.0069, -0.0376, 0.0375, -0.0069, 0.45, -31.9)" gradientUnits="userSpaceOnUse" id="gradient7" spreadMethod="pad" x1="-819.2" x2="819.2">
      <stop offset="0.09019607843137255" stop-color="#4c3b2a"/>
      <stop offset="0.25882352941176473" stop-color="#625d38"/>
      <stop offset="0.43529411764705883" stop-color="#747843"/>
      <stop offset="0.6196078431372549" stop-color="#818b4b"/>
      <stop offset="0.803921568627451" stop-color="#899750"/>
      <stop offset="1.0" stop-color="#8c9b51"/>
    </linearGradient>
    <g id="shape6" transform="matrix(1.0, 0.0, 0.0, 1.0, 11.25, 57.95)">
      <path d="M2.3 -22.5 Q2.0 -15.2 3.25 -9.9 L5.15 -0.95 -10.55 0.0 Q-13.2 -18.25 -5.95 -32.9 -3.2 -38.45 1.9 -45.45 L11.25 -57.95 Q9.15 -52.2 7.0 -44.85 2.65 -30.25 2.3 -22.5" fill="url(#gradient8)" fill-rule="evenodd" stroke="none"/>
    </g>
    <linearGradient gradientTransform="matrix(-0.0052, -0.0338, 0.0333, -0.0052, 0.55, -28.2)" gradientUnits="userSpaceOnUse" id="gradient8" spreadMethod="pad" x1="-819.2" x2="819.2">
      <stop offset="0.09019607843137255" stop-color="#4c3b2a"/>
      <stop offset="0.25882352941176473" stop-color="#625d38"/>
      <stop offset="0.43529411764705883" stop-color="#747843"/>
      <stop offset="0.6196078431372549" stop-color="#818b4b"/>
      <stop offset="0.803921568627451" stop-color="#899750"/>
      <stop offset="1.0" stop-color="#8c9b51"/>
    </linearGradient>
  </defs>
</svg>
