<?xml version="1.0" encoding="UTF-8" standalone="no"?>
<svg xmlns:xlink="http://www.w3.org/1999/xlink" height="300.0px" width="150.0px" xmlns="http://www.w3.org/2000/svg">
  <g transform="matrix(1.0, 0.0, 0.0, 1.0, 0.0, 0.0)">
    <use height="312.0" transform="matrix(1.0, 0.0, 0.0, 1.0, -1.4, -2.05)" width="153.9" xlink:href="#sprite0"/>
  </g>
  <defs>
    <g id="sprite0" transform="matrix(1.0, 0.0, 0.0, 1.0, 76.4, 152.05)">
      <clipPath id="clipPath0" transform="matrix(1.0, 0.0, 0.0, 1.0, 76.4, 152.05)">
        <use height="310.95" transform="matrix(0.9753, 0.0, 0.0, 0.9648, -75.0126, -149.9804)" width="153.8" xlink:href="#shape0"/>
      </clipPath>
      <g clip-path="url(#clipPath0)">
        <use height="310.95" transform="matrix(1.0, 0.0, 0.0, 1.0, -76.4, -151.05)" width="153.8" xlink:href="#shape0"/>
        <use height="296.0" transform="matrix(1.0, 0.0, 0.0, 1.0, -70.05, -143.35)" width="143.0" xlink:href="#sprite1"/>
        <use height="312.0" transform="matrix(1.0, 0.0, 0.0, 1.0, -76.25, -152.05)" width="153.75" xlink:href="#shape2"/>
      </g>
    </g>
    <g id="shape0" transform="matrix(1.0, 0.0, 0.0, 1.0, 76.4, 151.05)">
      <path d="M77.4 159.9 L-76.4 159.9 -76.4 -151.05 77.4 -151.05 77.4 159.9" fill="#000000" fill-rule="evenodd" stroke="none"/>
    </g>
    <g id="sprite1" transform="matrix(1.0, 0.0, 0.0, 1.0, -4.45, 0.5)">
      <use height="296.0" transform="matrix(1.0, 0.0, 0.0, 1.0, 4.45, -0.5)" width="143.0" xlink:href="#shape1"/>
    </g>
    <g id="shape1" transform="matrix(1.0, 0.0, 0.0, 1.0, -4.45, 0.5)">
      <path d="M10.9 34.55 Q11.4 34.55 11.65 35.05 L10.15 35.05 Q10.4 34.55 10.9 34.55" fill="#b3b3b3" fill-rule="evenodd" stroke="none"/>
      <path d="M9.85 -0.5 Q9.6 -0.15 9.2 -0.15 8.75 -0.15 8.5 -0.5 L9.85 -0.5" fill="#b3b3b3" fill-rule="evenodd" stroke="none"/>
      <path d="M24.9 11.7 Q24.9 12.2 24.35 12.2 23.85 12.2 23.85 11.7 23.85 11.15 24.35 11.15 24.9 11.15 24.9 11.7" fill="#b3b3b3" fill-rule="evenodd" stroke="none"/>
      <path d="M46.65 9.1 Q46.65 8.7 47.0 8.4 47.3 8.1 47.75 8.1 48.15 8.1 48.45 8.4 L48.75 9.1 48.45 9.85 47.75 10.15 Q47.3 10.15 47.0 9.85 46.65 9.55 46.65 9.1" fill="#b3b3b3" fill-rule="evenodd" stroke="none"/>
      <path d="M46.3 12.95 Q46.3 12.2 47.05 12.2 47.75 12.2 47.75 12.95 L47.55 13.4 47.05 13.6 Q46.3 13.6 46.3 12.95" fill="#b3b3b3" fill-rule="evenodd" stroke="none"/>
      <path d="M48.05 2.6 L47.75 2.9 Q47.4 2.9 47.4 2.6 47.4 2.25 47.75 2.25 48.05 2.25 48.05 2.6" fill="#b3b3b3" fill-rule="evenodd" stroke="none"/>
      <path d="M40.45 6.9 Q40.45 7.4 39.95 7.4 39.45 7.4 39.45 6.9 39.45 6.4 39.95 6.4 40.45 6.4 40.45 6.9" fill="#b3b3b3" fill-rule="evenodd" stroke="none"/>
      <path d="M46.65 29.35 Q46.65 29.05 47.05 29.05 L47.4 29.35 Q47.4 29.75 47.05 29.75 46.65 29.75 46.65 29.35" fill="#b3b3b3" fill-rule="evenodd" stroke="none"/>
      <path d="M113.0 7.2 Q112.55 7.2 112.25 6.9 111.95 6.6 111.95 6.2 111.95 5.75 112.25 5.45 112.55 5.15 113.0 5.15 L113.7 5.45 114.0 6.2 113.7 6.9 113.0 7.2" fill="#b3b3b3" fill-rule="evenodd" stroke="none"/>
      <path d="M116.8 7.9 Q116.1 7.9 116.1 7.2 L116.3 6.7 116.8 6.5 117.3 6.7 117.5 7.2 Q117.5 7.9 116.8 7.9" fill="#b3b3b3" fill-rule="evenodd" stroke="none"/>
      <path d="M35.85 53.15 L35.6 53.75 35.0 54.0 34.4 53.75 Q34.1 53.5 34.1 53.15 34.1 52.3 35.0 52.3 35.85 52.3 35.85 53.15" fill="#b3b3b3" fill-rule="evenodd" stroke="none"/>
      <path d="M132.3 46.3 Q132.3 47.15 131.45 47.15 130.55 47.15 130.55 46.3 130.55 45.9 130.8 45.65 L131.45 45.4 Q131.8 45.4 132.05 45.65 L132.3 46.3" fill="#b3b3b3" fill-rule="evenodd" stroke="none"/>
      <path d="M146.1 59.0 Q146.1 58.5 146.6 58.5 147.15 58.5 147.15 59.0 147.15 59.5 146.6 59.5 146.1 59.5 146.1 59.0" fill="#b3b3b3" fill-rule="evenodd" stroke="none"/>
      <path d="M18.9 22.6 Q18.9 23.1 18.4 23.1 17.9 23.1 17.9 22.6 17.9 22.1 18.4 22.1 18.9 22.1 18.9 22.6" fill="#b3b3b3" fill-rule="evenodd" stroke="none"/>
      <path d="M22.35 23.95 Q22.35 24.8 21.45 24.8 20.6 24.8 20.6 23.95 20.6 23.6 20.85 23.35 21.1 23.1 21.45 23.1 22.35 23.1 22.35 23.95" fill="#b3b3b3" fill-rule="evenodd" stroke="none"/>
      <path d="M139.9 36.15 Q139.9 36.8 139.2 36.8 138.5 36.8 138.5 36.15 138.5 35.45 139.2 35.45 139.9 35.45 139.9 36.15" fill="#b3b3b3" fill-rule="evenodd" stroke="none"/>
      <path d="M120.85 36.45 L120.85 37.5" fill="none" stroke="#b3b3b3" stroke-linecap="round" stroke-linejoin="round" stroke-width="0.05"/>
      <path d="M110.7 37.15 L109.8 36.8 Q109.45 36.45 109.45 35.95 109.45 35.45 109.8 35.1 110.2 34.75 110.7 34.75 111.2 34.75 111.55 35.1 111.9 35.45 111.9 35.95 L111.55 36.8 110.7 37.15" fill="#b3b3b3" fill-rule="evenodd" stroke="none"/>
      <path d="M112.55 40.95 Q111.9 40.95 111.9 40.3 111.9 39.6 112.55 39.6 113.25 39.6 113.25 40.3 113.25 40.95 112.55 40.95" fill="#b3b3b3" fill-rule="evenodd" stroke="none"/>
      <path d="M115.7 38.4 Q115.7 38.9 115.2 38.9 114.7 38.9 114.7 38.4 114.7 37.9 115.2 37.9 115.7 37.9 115.7 38.4" fill="#b3b3b3" fill-rule="evenodd" stroke="none"/>
      <path d="M33.05 44.15 L33.05 44.05 33.1 44.1 33.1 44.15 33.45 46.1 35.4 46.5 33.45 46.85 33.1 48.8 33.1 48.85 33.05 48.9 33.05 48.8 32.7 46.85 30.8 46.5 32.7 46.1 33.05 44.15" fill="#b3b3b3" fill-rule="evenodd" stroke="none"/>
      <path d="M44.95 43.05 L45.05 43.05 45.0 43.1 44.95 43.1 43.0 43.45 42.6 45.35 42.25 43.45 40.3 43.1 40.25 43.1 40.2 43.05 40.3 43.05 42.25 42.7 42.6 40.8 43.0 42.7 44.95 43.05" fill="#b3b3b3" fill-rule="evenodd" stroke="none"/>
      <path d="M22.8 116.15 Q23.3 116.15 23.55 116.65 L22.0 116.65 Q22.25 116.15 22.8 116.15" fill="#b3b3b3" fill-rule="evenodd" stroke="none"/>
      <path d="M20.15 80.6 L20.4 79.95 Q20.65 79.7 21.0 79.7 L21.7 79.95 21.95 80.6 Q21.95 81.45 21.0 81.45 20.15 81.45 20.15 80.6" fill="#b3b3b3" fill-rule="evenodd" stroke="none"/>
      <path d="M36.25 93.8 Q35.75 93.8 35.75 93.3 35.75 92.8 36.25 92.8 36.75 92.8 36.75 93.3 36.75 93.8 36.25 93.8" fill="#b3b3b3" fill-rule="evenodd" stroke="none"/>
      <path d="M28.1 70.45 Q28.1 69.75 28.8 69.75 29.5 69.75 29.5 70.45 29.5 71.1 28.8 71.1 L28.3 70.9 28.1 70.45" fill="#b3b3b3" fill-rule="evenodd" stroke="none"/>
      <path d="M10.5 70.8 L10.5 71.85" fill="none" stroke="#b3b3b3" stroke-linecap="round" stroke-linejoin="round" stroke-width="0.05"/>
      <path d="M4.45 73.1 L4.45 72.3 4.75 72.2 Q5.35 72.2 5.35 72.7 5.35 73.2 4.75 73.2 L4.45 73.1" fill="#b3b3b3" fill-rule="evenodd" stroke="none"/>
      <path d="M60.65 90.75 L60.35 91.45 59.6 91.75 Q59.15 91.75 58.85 91.45 L58.55 90.75 Q58.55 90.3 58.85 90.0 59.15 89.7 59.6 89.7 L60.35 90.0 60.65 90.75" fill="#b3b3b3" fill-rule="evenodd" stroke="none"/>
      <path d="M59.6 94.5 Q59.6 95.2 58.85 95.2 58.2 95.2 58.2 94.5 58.2 93.8 58.85 93.8 59.6 93.8 59.6 94.5" fill="#b3b3b3" fill-rule="evenodd" stroke="none"/>
      <path d="M59.95 84.2 L59.6 84.55 Q59.2 84.55 59.2 84.2 59.2 83.85 59.6 83.85 59.95 83.85 59.95 84.2" fill="#b3b3b3" fill-rule="evenodd" stroke="none"/>
      <path d="M52.35 88.5 Q52.35 89.05 51.8 89.05 51.3 89.05 51.3 88.5 51.3 87.95 51.8 87.95 52.35 87.95 52.35 88.5" fill="#b3b3b3" fill-rule="evenodd" stroke="none"/>
      <path d="M58.55 111.0 Q58.55 110.65 58.85 110.65 59.2 110.65 59.2 111.0 L58.85 111.35 Q58.55 111.35 58.55 111.0" fill="#b3b3b3" fill-rule="evenodd" stroke="none"/>
      <path d="M47.55 71.0 L47.45 70.35 46.75 70.25 47.45 70.1 47.55 69.45 47.65 70.1 48.3 70.25 47.65 70.35 47.55 71.0" fill="#b3b3b3" fill-rule="evenodd" stroke="none"/>
      <path d="M123.85 87.75 Q123.85 87.35 124.15 87.05 124.45 86.75 124.85 86.75 125.3 86.75 125.6 87.05 L125.9 87.75 125.6 88.55 Q125.3 88.85 124.85 88.85 124.45 88.85 124.15 88.55 123.85 88.15 123.85 87.75" fill="#b3b3b3" fill-rule="evenodd" stroke="none"/>
      <path d="M129.35 88.85 Q129.35 89.5 128.7 89.5 128.0 89.5 128.0 88.85 128.0 88.1 128.7 88.1 129.35 88.1 129.35 88.85" fill="#b3b3b3" fill-rule="evenodd" stroke="none"/>
      <path d="M106.9 74.75 Q106.9 75.4 106.2 75.4 105.5 75.4 105.5 74.75 105.5 74.05 106.2 74.05 106.9 74.05 106.9 74.75" fill="#b3b3b3" fill-rule="evenodd" stroke="none"/>
      <path d="M109.65 75.9 Q109.65 76.45 109.15 76.45 108.6 76.45 108.6 75.9 108.6 75.4 109.15 75.4 109.65 75.4 109.65 75.9" fill="#b3b3b3" fill-rule="evenodd" stroke="none"/>
      <path d="M14.5 208.8 Q14.5 208.4 14.8 208.1 15.1 207.8 15.5 207.8 15.95 207.8 16.25 208.1 L16.55 208.8 16.25 209.55 15.5 209.85 Q15.1 209.85 14.8 209.55 14.5 209.25 14.5 208.8" fill="#b3b3b3" fill-rule="evenodd" stroke="none"/>
      <path d="M130.45 210.5 Q129.6 210.5 129.6 209.65 129.6 209.3 129.85 209.05 130.1 208.8 130.45 208.8 130.8 208.8 131.1 209.05 L131.35 209.65 Q131.35 210.5 130.45 210.5" fill="#b3b3b3" fill-rule="evenodd" stroke="none"/>
      <path d="M103.0 222.5 L103.5 222.7 103.7 223.2 Q103.7 223.95 103.0 223.95 102.3 223.95 102.3 223.2 L102.5 222.7 103.0 222.5" fill="#b3b3b3" fill-rule="evenodd" stroke="none"/>
      <path d="M107.85 226.6 Q108.55 226.35 108.55 225.65 L108.5 225.4 108.85 226.0 Q108.85 226.65 108.15 226.65 L107.85 226.6" fill="#b3b3b3" fill-rule="evenodd" stroke="none"/>
      <path d="M129.6 179.6 Q128.9 179.6 128.9 178.9 L128.95 178.8 130.25 178.8 130.3 178.9 130.1 179.4 129.6 179.6" fill="#b3b3b3" fill-rule="evenodd" stroke="none"/>
      <path d="M7.25 203.95 L4.45 204.45 4.45 203.4 7.25 203.9 7.35 203.9 7.45 203.95 7.25 203.95" fill="#b3b3b3" fill-rule="evenodd" stroke="none"/>
      <path d="M50.45 185.45 L50.1 187.4 49.75 185.45 47.8 185.1 49.75 184.75 50.1 182.85 50.45 184.75 52.45 185.1 50.45 185.45" fill="#b3b3b3" fill-rule="evenodd" stroke="none"/>
      <path d="M129.85 180.15 Q129.85 179.45 130.5 179.45 131.25 179.45 131.25 180.15 131.25 180.8 130.5 180.8 129.85 180.8 129.85 180.15" fill="#b3b3b3" fill-rule="evenodd" stroke="none"/>
      <path d="M147.45 180.2 L147.45 180.45 Q147.3 181.2 146.6 181.2 145.75 181.2 145.75 180.3 145.75 179.95 146.0 179.7 146.25 179.45 146.6 179.45 147.3 179.45 147.45 180.2" fill="#b3b3b3" fill-rule="evenodd" stroke="none"/>
      <path d="M68.15 215.5 Q68.15 214.6 69.0 214.6 69.35 214.6 69.6 214.9 L69.85 215.5 Q69.85 216.35 69.0 216.35 68.15 216.35 68.15 215.5" fill="#b3b3b3" fill-rule="evenodd" stroke="none"/>
      <path d="M84.15 228.7 Q83.65 228.7 83.65 228.2 83.65 227.7 84.15 227.7 84.7 227.7 84.7 228.2 84.7 228.7 84.15 228.7" fill="#b3b3b3" fill-rule="evenodd" stroke="none"/>
      <path d="M77.45 205.35 Q77.45 206.0 76.8 206.0 76.05 206.0 76.05 205.35 76.05 204.65 76.8 204.65 77.45 204.65 77.45 205.35" fill="#b3b3b3" fill-rule="evenodd" stroke="none"/>
      <path d="M58.4 205.7 L58.4 206.75" fill="none" stroke="#b3b3b3" stroke-linecap="round" stroke-linejoin="round" stroke-width="0.05"/>
      <path d="M49.45 209.5 Q49.45 208.8 50.1 208.8 50.8 208.8 50.8 209.5 50.8 210.15 50.1 210.15 49.45 210.15 49.45 209.5" fill="#b3b3b3" fill-rule="evenodd" stroke="none"/>
      <path d="M52.75 208.1 Q52.25 208.1 52.25 207.6 52.25 207.1 52.75 207.1 53.25 207.1 53.25 207.6 53.25 208.1 52.75 208.1" fill="#b3b3b3" fill-rule="evenodd" stroke="none"/>
      <path d="M107.85 226.6 L107.55 226.65 106.8 226.35 Q106.5 226.05 106.5 225.65 106.5 225.25 106.8 224.9 107.1 224.6 107.55 224.6 108.3 224.6 108.5 225.4 L108.55 225.65 Q108.55 226.35 107.85 226.6" fill="#b3b3b3" fill-rule="evenodd" stroke="none"/>
      <path d="M106.85 228.7 Q107.2 228.7 107.45 229.1 L106.25 229.1 Q106.4 228.7 106.85 228.7" fill="#b3b3b3" fill-rule="evenodd" stroke="none"/>
      <path d="M107.85 219.1 L107.55 219.45 Q107.2 219.45 107.2 219.1 107.2 218.75 107.55 218.75 107.85 218.75 107.85 219.1" fill="#b3b3b3" fill-rule="evenodd" stroke="none"/>
      <path d="M99.25 223.4 Q99.25 222.85 99.75 222.85 100.25 222.85 100.25 223.4 100.25 223.95 99.75 223.95 99.25 223.95 99.25 223.4" fill="#b3b3b3" fill-rule="evenodd" stroke="none"/>
      <path d="M99.75 196.9 L98.45 196.65 99.75 196.4 100.0 195.1 100.25 196.4 101.55 196.65 100.25 196.9 100.0 198.25 99.75 196.9" fill="#b3b3b3" fill-rule="evenodd" stroke="none"/>
      <path d="M95.5 204.35 L95.5 204.4 95.6 205.0 96.25 205.15 95.6 205.25 95.5 205.9 95.45 205.95 95.45 205.9 95.35 205.25 94.7 205.15 95.35 205.0 95.45 204.4 95.45 204.35 95.5 204.35" fill="#b3b3b3" fill-rule="evenodd" stroke="none"/>
      <path d="M65.7 277.9 Q66.55 277.9 66.55 278.75 66.55 279.6 65.7 279.6 64.85 279.6 64.85 278.75 64.85 278.4 65.1 278.15 65.35 277.9 65.7 277.9" fill="#b3b3b3" fill-rule="evenodd" stroke="none"/>
      <path d="M45.15 267.1 Q45.15 266.25 46.0 266.25 46.85 266.25 46.85 267.1 L46.6 267.7 46.0 267.95 45.4 267.7 45.15 267.1" fill="#b3b3b3" fill-rule="evenodd" stroke="none"/>
      <path d="M17.85 280.65 Q17.85 279.95 18.55 279.95 19.2 279.95 19.2 280.65 19.2 281.3 18.55 281.3 17.85 281.3 17.85 280.65" fill="#b3b3b3" fill-rule="evenodd" stroke="none"/>
      <path d="M23.7 284.1 Q23.0 284.1 23.0 283.4 L23.2 282.95 23.7 282.75 Q24.4 282.75 24.4 283.4 24.4 284.1 23.7 284.1" fill="#b3b3b3" fill-rule="evenodd" stroke="none"/>
      <path d="M79.2 255.55 Q78.65 255.55 78.65 255.05 78.65 254.55 79.2 254.55 79.7 254.55 79.7 255.05 79.7 255.55 79.2 255.55" fill="#b3b3b3" fill-rule="evenodd" stroke="none"/>
      <path d="M39.25 293.55 Q39.25 293.05 39.8 293.05 40.3 293.05 40.3 293.55 40.3 294.05 39.8 294.05 39.25 294.05 39.25 293.55" fill="#b3b3b3" fill-rule="evenodd" stroke="none"/>
      <path d="M101.45 252.5 L101.55 252.15 103.5 252.15 103.55 252.5 103.25 253.2 102.55 253.5 101.8 253.2 Q101.45 252.9 101.45 252.5" fill="#b3b3b3" fill-rule="evenodd" stroke="none"/>
      <path d="M101.85 256.9 L101.3 256.7 101.1 256.25 Q101.1 255.55 101.85 255.55 102.55 255.55 102.55 256.25 102.55 256.9 101.85 256.9" fill="#b3b3b3" fill-rule="evenodd" stroke="none"/>
      <path d="M101.85 273.05 L101.45 272.75 Q101.45 272.4 101.85 272.4 102.2 272.4 102.2 272.75 L101.85 273.05" fill="#b3b3b3" fill-rule="evenodd" stroke="none"/>
      <path d="M104.95 292.0 Q104.25 292.0 104.25 291.35 104.25 290.6 104.95 290.6 105.6 290.6 105.6 291.35 105.6 292.0 104.95 292.0" fill="#b3b3b3" fill-rule="evenodd" stroke="none"/>
      <path d="M74.1 293.45 L72.8 293.2 74.1 292.95 74.35 291.6 74.6 292.95 75.95 293.2 74.6 293.45 74.35 294.75 74.1 293.45" fill="#b3b3b3" fill-rule="evenodd" stroke="none"/>
      <path d="M78.4 289.0 L78.75 287.25 79.05 289.0 80.85 289.3 79.05 289.65 78.75 291.4 78.4 289.65 76.7 289.3 78.4 289.0" fill="#b3b3b3" fill-rule="evenodd" stroke="none"/>
      <path d="M136.4 269.5 L136.5 269.5 136.55 269.55 136.4 269.55 133.6 270.05 133.1 272.8 132.6 270.05 129.8 269.55 129.65 269.55 129.7 269.5 129.8 269.5 132.6 269.0 133.1 266.25 133.6 269.0 136.4 269.5" fill="#b3b3b3" fill-rule="evenodd" stroke="none"/>
      <path d="M136.5 277.85 L133.3 277.3 133.1 277.3 133.2 277.25 133.3 277.25 136.5 276.65 137.05 273.45 137.05 273.3 137.1 273.35 137.1 273.45 137.7 276.65 140.9 277.25 140.95 277.25 141.05 277.3 140.9 277.3 137.7 277.85 137.1 285.25 137.1 281.1 137.05 281.2 137.05 281.0 136.5 277.85" fill="#b3b3b3" fill-rule="evenodd" stroke="none"/>
      <path d="M106.15 294.85 Q106.8 294.85 106.95 295.5 L105.3 295.5 Q105.45 294.85 106.15 294.85" fill="#b3b3b3" fill-rule="evenodd" stroke="none"/>
      <path d="M25.4 276.65 Q24.7 276.65 24.7 275.95 24.7 275.25 25.4 275.25 26.1 275.25 26.1 275.95 26.1 276.65 25.4 276.65" fill="#b3b3b3" fill-rule="evenodd" stroke="none"/>
      <path d="M37.85 272.85 Q37.85 272.15 38.55 272.15 39.25 272.15 39.25 272.85 39.25 273.5 38.55 273.5 37.85 273.5 37.85 272.85" fill="#b3b3b3" fill-rule="evenodd" stroke="none"/>
      <path d="M41.45 275.25 Q42.3 275.25 42.3 276.1 42.3 277.0 41.45 277.0 L40.85 276.75 40.6 276.1 Q40.6 275.75 40.85 275.5 41.1 275.25 41.45 275.25" fill="#b3b3b3" fill-rule="evenodd" stroke="none"/>
      <path d="M43.75 279.9 Q43.75 279.35 44.25 279.35 44.75 279.35 44.75 279.9 44.75 280.4 44.25 280.4 43.75 280.4 43.75 279.9" fill="#b3b3b3" fill-rule="evenodd" stroke="none"/>
      <path d="M66.85 276.8 Q66.85 277.3 66.35 277.3 65.85 277.3 65.85 276.8 65.85 276.3 66.35 276.3 66.85 276.3 66.85 276.8" fill="#b3b3b3" fill-rule="evenodd" stroke="none"/>
      <path d="M89.05 265.1 Q89.05 264.6 89.55 264.6 90.05 264.6 90.05 265.1 90.05 265.65 89.55 265.65 89.05 265.65 89.05 265.1" fill="#b3b3b3" fill-rule="evenodd" stroke="none"/>
      <path d="M91.75 266.5 Q91.75 266.15 92.0 265.9 92.25 265.65 92.6 265.65 92.95 265.65 93.3 265.9 L93.55 266.5 Q93.55 267.35 92.6 267.35 91.75 267.35 91.75 266.5" fill="#b3b3b3" fill-rule="evenodd" stroke="none"/>
      <path d="M104.25 286.65 L104.25 286.7 104.6 288.65 106.55 289.0 104.6 289.35 104.25 291.35 104.25 291.4 104.2 291.45 104.2 291.35 103.85 289.35 101.95 289.0 103.85 288.65 104.2 286.7 104.2 286.6 104.25 286.65" fill="#b3b3b3" fill-rule="evenodd" stroke="none"/>
      <path d="M113.4 286.0 L111.5 285.65 111.4 285.65 111.35 285.6 111.5 285.6 113.4 285.3 113.75 283.35 114.1 285.3 116.1 285.6 116.2 285.6 116.15 285.65 116.1 285.65 114.1 286.0 113.75 287.9 113.4 286.0" fill="#b3b3b3" fill-rule="evenodd" stroke="none"/>
      <path d="M12.25 294.25 L12.5 295.5 12.0 295.5 12.25 294.25" fill="#b3b3b3" fill-rule="evenodd" stroke="none"/>
      <path d="M19.5 293.2 L19.45 293.2 19.4 293.15 19.5 293.15 21.4 292.8 21.8 290.9 21.8 290.85 21.85 290.8 21.85 290.9 22.2 292.8 24.1 293.15 24.2 293.15 24.15 293.2 24.1 293.2 22.2 293.55 21.85 295.45 21.85 295.5 21.8 295.5 21.8 295.45 21.4 293.55 19.5 293.2" fill="#b3b3b3" fill-rule="evenodd" stroke="none"/>
      <path d="M142.7 140.75 Q142.7 140.1 143.4 140.1 144.1 140.1 144.1 140.75 144.1 141.45 143.4 141.45 142.7 141.45 142.7 140.75" fill="#b3b3b3" fill-rule="evenodd" stroke="none"/>
      <path d="M30.0 158.3 Q30.0 157.85 30.35 157.55 30.65 157.25 31.05 157.25 31.5 157.25 31.8 157.55 L32.1 158.3 31.8 159.0 Q31.5 159.3 31.05 159.3 L30.35 159.0 Q30.0 158.7 30.0 158.3" fill="#b3b3b3" fill-rule="evenodd" stroke="none"/>
      <path d="M34.15 159.3 Q34.15 158.65 34.85 158.65 35.55 158.65 35.55 159.3 35.55 160.0 34.85 160.0 34.15 160.0 34.15 159.3" fill="#b3b3b3" fill-rule="evenodd" stroke="none"/>
      <path d="M11.7 145.2 L11.9 144.7 12.35 144.5 12.85 144.7 13.05 145.2 Q13.05 145.9 12.35 145.9 11.7 145.9 11.7 145.2" fill="#b3b3b3" fill-rule="evenodd" stroke="none"/>
      <path d="M15.85 146.4 Q15.85 146.9 15.3 146.9 14.8 146.9 14.8 146.4 14.8 145.9 15.3 145.9 15.85 145.9 15.85 146.4" fill="#b3b3b3" fill-rule="evenodd" stroke="none"/>
      <path d="M112.1 165.15 Q111.25 165.15 111.25 164.25 111.25 163.9 111.5 163.65 111.75 163.4 112.1 163.4 112.95 163.4 112.95 164.25 112.95 165.15 112.1 165.15" fill="#b3b3b3" fill-rule="evenodd" stroke="none"/>
      <path d="M102.1 159.65 Q102.6 159.65 102.6 160.15 102.6 160.7 102.1 160.7 101.55 160.7 101.55 160.15 101.55 159.65 102.1 159.65" fill="#b3b3b3" fill-rule="evenodd" stroke="none"/>
      <path d="M98.3 162.4 Q98.8 162.4 98.8 162.9 98.8 163.4 98.3 163.4 97.8 163.4 97.8 162.9 97.8 162.4 98.3 162.4" fill="#b3b3b3" fill-rule="evenodd" stroke="none"/>
      <path d="M99.35 165.85 Q98.8 165.85 98.8 165.35 98.8 164.85 99.35 164.85 99.85 164.85 99.85 165.35 99.85 165.85 99.35 165.85" fill="#b3b3b3" fill-rule="evenodd" stroke="none"/>
      <path d="M83.6 163.25 Q83.6 163.75 83.05 163.75 82.55 163.75 82.55 163.25 82.55 162.75 83.05 162.75 83.6 162.75 83.6 163.25" fill="#b3b3b3" fill-rule="evenodd" stroke="none"/>
      <path d="M83.75 167.2 Q83.25 167.2 83.25 166.7 83.25 166.2 83.75 166.2 84.25 166.2 84.25 166.7 84.25 167.2 83.75 167.2" fill="#b3b3b3" fill-rule="evenodd" stroke="none"/>
      <path d="M67.65 148.85 Q67.65 149.35 67.15 149.35 66.65 149.35 66.65 148.85 66.65 148.35 67.15 148.35 67.65 148.35 67.65 148.85" fill="#b3b3b3" fill-rule="evenodd" stroke="none"/>
      <path d="M70.45 149.85 Q70.45 150.4 69.95 150.4 69.45 150.4 69.45 149.85 69.45 149.35 69.95 149.35 70.45 149.35 70.45 149.85" fill="#b3b3b3" fill-rule="evenodd" stroke="none"/>
      <path d="M73.9 151.9 Q73.9 152.75 73.05 152.75 72.2 152.75 72.2 151.9 72.2 151.55 72.45 151.3 72.7 151.05 73.05 151.05 73.9 151.05 73.9 151.9" fill="#b3b3b3" fill-rule="evenodd" stroke="none"/>
    </g>
    <g id="shape2" transform="matrix(1.0, 0.0, 0.0, 1.0, 76.25, 152.05)">
      <path d="M48.9 -112.0 L48.9 -113.1 48.9 -112.0 M77.5 159.95 L-76.25 159.95 -76.25 -152.05 77.5 -152.05 77.5 159.95 M-69.75 -75.8 L-69.75 -76.9 -69.75 -75.8" fill="url(#gradient0)" fill-rule="evenodd" stroke="none"/>
      <path d="M48.9 -113.1 L48.9 -112.0 M-69.75 -76.9 L-69.75 -75.8" fill="none" stroke="#b3b3b3" stroke-linecap="round" stroke-linejoin="round" stroke-width="0.05"/>
    </g>
    <linearGradient gradientTransform="matrix(-2.0E-4, -0.2319, 0.1942, -1.0E-4, 17.6, 131.95)" gradientUnits="userSpaceOnUse" id="gradient0" spreadMethod="pad" x1="-819.2" x2="819.2">
      <stop offset="0.0" stop-color="#000000" stop-opacity="0.8"/>
      <stop offset="1.0" stop-color="#000000" stop-opacity="0.14901961"/>
    </linearGradient>
  </defs>
</svg>
