<?xml version="1.0" encoding="UTF-8" standalone="no"?>
<svg xmlns:xlink="http://www.w3.org/1999/xlink" height="49.75px" width="286.85px" xmlns="http://www.w3.org/2000/svg">
  <g transform="matrix(1.0, 0.0, 0.0, 1.0, 0.0, 0.0)">
    <use height="49.75" transform="matrix(1.0, 0.0, 0.0, 1.0, 0.0, 0.0)" width="286.85" xlink:href="#shape0"/>
  </g>
  <defs>
    <g id="shape0" transform="matrix(1.0, 0.0, 0.0, 1.0, 0.0, 0.0)">
      <path d="M67.3 3.45 Q71.75 2.25 77.8 1.2 L85.45 0.0 86.6 0.25 97.8 0.25 106.35 0.5 Q111.55 0.55 116.2 0.25 122.3 -0.25 119.45 1.85 L117.45 3.45 Q116.8 4.2 118.6 4.2 L138.35 4.6 158.1 5.0 Q161.5 5.0 166.85 3.6 L171.4 2.2 182.3 2.6 200.35 2.95 Q205.15 2.95 205.75 4.85 206.25 7.3 211.1 8.35 217.35 9.6 227.15 9.45 L243.85 8.35 Q248.95 7.85 251.85 6.5 253.75 6.1 261.05 9.1 268.55 12.25 264.75 13.0 L259.4 13.1 256.25 20.0 262.55 20.35 Q270.8 21.1 282.6 23.0 288.95 23.95 285.8 25.4 282.75 26.55 273.9 28.05 246.65 32.85 244.25 33.9 239.45 35.85 239.05 38.3 238.6 40.9 233.85 42.75 L230.6 44.5 230.15 44.2 Q224.85 39.85 215.75 41.15 L204.05 41.9 186.9 41.15 Q175.75 41.15 178.35 39.75 179.7 39.1 179.25 38.8 L172.25 38.45 Q162.4 38.45 155.85 42.25 152.9 43.9 151.4 44.4 149.05 45.1 145.4 44.5 138.8 43.2 128.55 46.4 L119.35 49.75 111.35 48.75 119.85 45.25 Q127.3 41.3 121.8 38.8 116.55 36.45 112.85 37.75 L108.35 39.5 Q104.9 40.95 100.95 41.75 96.7 42.8 95.45 42.55 94.75 42.45 94.6 41.25 94.25 38.3 85.85 37.75 L64.95 36.05 46.95 35.05 Q42.9 35.05 32.3 37.8 22.25 40.4 9.7 39.8 L0.35 39.4 Q-0.85 39.3 1.95 39.3 L14.55 38.8 Q23.85 36.9 30.55 32.9 L32.85 31.5 Q32.55 31.95 34.6 30.95 36.75 29.8 24.45 28.55 L11.35 26.95 Q11.35 26.45 11.95 26.45 L16.05 26.0 24.1 25.0 31.85 23.5 31.7 23.0 Q31.7 22.55 32.95 22.0 36.9 20.05 39.35 18.0 L26.55 17.0 12.45 16.5 4.95 16.0 3.35 15.6 Q3.2 15.5 3.95 15.35 6.9 14.6 8.95 13.1 11.3 11.25 16.7 11.5 L25.7 12.1 32.85 11.75 Q35.95 11.3 44.2 9.1 L45.05 8.95 40.95 8.1 37.6 7.25 Q35.95 6.65 32.95 4.2 L63.35 4.2 67.3 3.45 M52.1 10.25 L52.2 10.75 Q52.25 11.35 52.95 11.1 53.85 10.75 52.1 10.25" fill="url(#gradient0)" fill-rule="evenodd" stroke="none"/>
      <path d="M99.55 33.75 L107.4 33.45 110.65 33.4 113.4 33.95 116.4 34.45 118.6 33.95 122.85 33.05 Q122.2 34.1 120.85 34.55 120.0 34.9 119.15 35.55 L117.8 36.45 117.05 36.9 114.3 37.25 112.2 37.55 108.4 37.65 102.85 37.5 99.1 37.2 97.05 37.25 92.35 37.75 Q90.35 37.75 86.15 36.15 85.7 35.9 84.85 35.55 L83.1 35.45 78.95 35.45 Q77.05 35.35 74.65 34.5 71.9 33.6 69.6 33.45 L65.1 32.8 63.7 32.25 62.9 31.65 Q62.45 31.25 60.85 31.25 L55.15 30.55 55.6 29.9 Q55.9 29.15 53.85 28.75 L50.8 27.95 49.6 27.4 46.35 26.25 Q44.25 25.55 43.6 25.55 42.9 25.55 41.6 24.7 40.2 23.75 41.6 23.75 L43.6 23.35 44.95 23.0 46.65 23.5 48.6 23.85 49.7 23.85 51.35 24.0 52.85 24.45 54.65 24.5 56.85 24.85 57.85 25.75 58.6 26.7 60.55 26.55 63.2 26.05 66.45 26.45 Q68.4 26.95 69.2 27.9 69.75 28.45 69.95 29.4 70.4 30.1 72.6 30.75 L75.1 31.9 78.6 31.75 82.1 31.5 84.35 31.05 Q85.3 30.85 86.65 29.95 87.15 29.65 88.85 29.95 90.7 30.25 91.85 31.05 L93.85 32.75 95.15 33.75 96.35 33.95 97.35 33.9 99.55 33.75" fill="#665722" fill-rule="evenodd" stroke="none"/>
      <path d="M181.1 36.2 L183.9 37.15 184.85 37.45 182.3 37.15 175.35 37.15 171.85 37.4 169.25 38.25 166.1 38.7 Q165.65 38.4 164.85 38.25 L155.5 37.65 Q152.55 37.45 155.1 36.55 159.3 35.3 159.85 34.75 L160.55 34.2 161.5 33.95 162.9 33.25 163.15 32.95 163.1 32.3 Q163.2 32.05 164.15 32.05 L168.85 32.15 172.75 32.45 Q173.9 32.6 173.8 33.4 173.55 34.2 174.1 34.25 L177.4 35.25 178.6 35.65 179.25 35.55 181.1 36.2" fill="#665722" fill-rule="evenodd" stroke="none"/>
      <path d="M182.3 32.95 Q186.35 33.25 186.75 33.75 L185.9 34.75 Q185.6 35.25 185.05 35.0 L183.6 34.75 Q181.1 34.75 180.1 33.75 178.9 32.65 182.3 32.95" fill="#665722" fill-rule="evenodd" stroke="none"/>
      <path d="M219.6 30.15 Q218.35 29.7 218.4 29.05 218.55 28.25 219.65 27.65 220.95 26.9 222.6 26.9 225.0 26.9 226.9 28.0 228.75 29.0 228.35 29.55 L227.4 30.15 225.8 30.25 221.3 30.45 219.6 30.15" fill="#665722" fill-rule="evenodd" stroke="none"/>
      <path d="M212.9 32.45 L209.1 32.25 Q206.95 32.25 206.8 32.65 L206.05 33.75 Q204.85 34.55 202.1 35.2 L197.15 35.75 191.6 35.25 Q190.95 35.05 193.85 34.0 196.7 33.0 198.15 32.95 L201.65 32.45 201.35 31.05 Q200.9 30.35 203.35 29.75 L206.85 29.95 208.15 30.0 212.1 30.45 Q213.5 30.65 214.6 31.25 215.65 31.9 214.9 32.25 L212.9 32.45" fill="#665722" fill-rule="evenodd" stroke="none"/>
      <path d="M252.1 15.35 L254.0 15.25 256.3 15.35 Q257.5 15.35 256.85 16.0 256.0 16.6 255.1 16.85 254.05 17.1 252.55 17.95 251.0 18.7 251.75 18.85 252.55 19.0 251.9 19.5 251.3 19.9 250.1 20.2 249.2 20.35 248.1 20.85 L245.75 21.75 Q244.4 22.15 245.05 22.5 L246.35 23.35 Q246.7 23.85 246.1 24.1 L244.55 24.85 240.75 25.25 233.5 25.0 232.35 24.75 Q231.45 24.55 230.9 24.0 L229.6 23.25 227.3 21.95 225.8 20.5 Q225.5 20.1 227.8 20.25 L233.15 20.35 241.85 20.0 242.6 19.5 243.25 18.0 Q243.45 17.2 244.15 17.1 L247.1 16.85 250.15 16.0 252.1 15.35" fill="#665722" fill-rule="evenodd" stroke="none"/>
      <path d="M249.6 11.35 Q254.35 11.5 253.35 12.1 L250.6 13.0 248.6 13.1 245.05 12.7 Q242.7 12.4 244.6 11.75 L249.6 11.35" fill="#665722" fill-rule="evenodd" stroke="none"/>
      <path d="M215.25 11.0 Q219.65 11.5 220.75 12.45 221.2 12.9 220.6 13.85 220.3 14.3 219.1 14.6 L216.25 15.5 Q212.55 17.2 208.75 17.2 L206.0 16.85 Q205.15 16.6 206.05 16.35 L208.3 15.95 Q209.9 15.65 210.35 15.0 211.35 13.95 211.35 13.35 211.35 12.85 212.8 11.95 214.35 10.85 215.25 11.0" fill="#665722" fill-rule="evenodd" stroke="none"/>
      <path d="M203.35 6.1 L201.65 6.5 199.75 6.6 196.65 6.5 193.1 6.0 190.5 5.1 Q189.1 4.65 190.35 4.0 191.8 3.4 194.85 3.25 L202.85 2.95 204.35 3.1 204.55 3.6 Q204.65 4.2 204.15 5.25 L203.35 6.1" fill="#665722" fill-rule="evenodd" stroke="none"/>
      <path d="M166.6 14.25 L161.0 15.2 Q155.35 15.2 151.5 15.35 L148.8 15.5 141.1 15.2 138.6 14.85 135.7 14.35 128.15 13.5 Q126.8 13.3 129.05 13.0 L132.65 12.85 135.55 12.35 139.7 11.5 144.3 11.2 147.4 10.85 149.35 10.1 152.3 9.0 155.1 7.85 157.0 7.5 165.55 8.0 Q166.05 8.15 169.25 10.7 L169.75 11.35 171.55 12.85 172.15 13.35 171.05 13.2 166.6 14.25" fill="#665722" fill-rule="evenodd" stroke="none"/>
      <path d="M188.3 21.5 Q188.05 21.4 188.8 21.0 190.2 20.35 191.6 19.85 L191.5 21.85 Q191.35 22.65 190.35 22.85 L187.8 23.35 186.35 23.95 185.6 25.05 Q184.95 25.85 185.1 26.15 L184.8 27.05 184.05 27.95 183.3 28.55 182.9 29.05 Q183.15 29.3 182.9 29.95 L182.8 30.65 182.8 31.45 Q182.65 32.3 181.35 32.25 L177.9 31.95 170.05 31.25 169.75 31.2 170.0 31.2 172.85 31.05 175.6 30.9 Q176.45 30.6 177.25 30.25 L177.7 30.0 177.6 29.95 Q176.75 29.95 176.25 29.55 L173.9 28.5 Q172.2 27.85 171.75 27.25 L170.4 26.0 169.75 25.55 170.6 24.95 Q171.55 24.3 172.75 23.85 L181.3 22.0 181.3 22.75 Q183.2 22.05 187.5 21.75 L188.3 21.5" fill="#665722" fill-rule="evenodd" stroke="none"/>
      <path d="M184.3 18.35 Q182.9 18.6 179.9 18.35 L175.5 18.1 Q173.7 17.95 173.85 17.5 L175.1 16.6 177.1 16.2 Q178.1 16.1 181.8 14.85 L182.85 14.1 Q183.9 13.35 184.3 13.35 L187.3 12.6 189.1 12.35 190.35 12.5 190.6 13.0 Q190.85 13.3 190.75 13.75 L190.3 15.2 Q190.05 16.15 189.15 16.5 L187.1 17.5 Q186.1 18.2 184.3 18.35" fill="#665722" fill-rule="evenodd" stroke="none"/>
      <path d="M131.55 19.2 L126.15 19.85 125.15 20.25 122.95 20.7 120.2 21.1 118.45 21.2 Q117.65 21.2 116.1 22.25 L126.1 23.95 128.55 24.35 128.85 24.6 127.85 24.85 126.8 26.0 124.85 27.25 118.6 28.75 Q116.95 29.15 116.9 29.75 116.9 30.3 116.6 30.45 L113.65 30.5 101.85 29.75 103.8 28.75 Q106.1 27.65 108.1 27.4 110.0 27.1 110.8 26.55 L111.8 25.55 Q114.35 23.35 116.1 22.25 109.9 20.95 108.9 20.35 108.65 20.15 109.35 20.25 L110.4 20.45 114.65 20.5 117.3 20.2 119.15 19.85 119.6 19.2 119.6 18.0 119.45 17.35 124.45 17.85 130.05 18.6 Q132.85 19.2 131.55 19.2" fill="#665722" fill-rule="evenodd" stroke="none"/>
      <path d="M52.35 23.25 L57.2 22.6 Q57.5 25.7 56.8 25.95 L55.45 26.5 53.65 26.65 Q52.95 26.4 51.15 24.75 L49.65 23.25 52.35 23.25" fill="#5e5020" fill-rule="evenodd" stroke="none"/>
      <path d="M69.65 13.2 L70.15 12.35 Q70.6 11.7 71.35 11.85 L72.4 12.6 Q73.4 13.5 73.35 14.35 L71.8 15.25 70.4 15.45 69.1 15.5 67.7 15.6 66.85 15.5 67.55 14.85 68.85 13.85 69.65 13.2" fill="#5e5020" fill-rule="evenodd" stroke="none"/>
      <path d="M98.55 11.85 L98.6 12.5 Q98.05 12.25 97.4 12.5 96.9 12.95 95.6 12.95 L92.95 12.75 89.6 12.5 Q90.3 11.2 90.3 10.5 90.3 9.6 90.6 9.0 90.9 7.85 91.35 8.35 92.45 9.1 94.45 8.85 94.25 8.9 94.4 9.25 L94.7 9.6 96.55 10.1 97.65 10.6 Q98.25 11.0 98.55 11.85" fill="#5e5020" fill-rule="evenodd" stroke="none"/>
      <path d="M88.9 20.85 L91.7 21.85 Q94.2 22.7 94.55 23.5 94.9 24.3 93.05 24.6 L89.85 24.85 88.1 24.85 84.2 24.1 87.15 23.25 87.85 21.85 Q88.65 20.5 88.9 20.85" fill="#5e5020" fill-rule="evenodd" stroke="none"/>
      <path d="M114.35 3.2 Q114.95 2.65 116.6 2.6 118.15 2.55 117.55 3.2 L116.6 4.0 116.4 4.1 114.35 5.85 112.1 6.0 110.85 5.45 111.7 5.2 Q112.75 5.0 114.35 3.2" fill="#5e5020" fill-rule="evenodd" stroke="none"/>
      <path d="M144.1 10.75 Q142.8 10.95 141.35 11.45 L138.95 11.85 134.6 12.25 130.05 12.35 Q128.8 12.0 129.85 11.85 L131.1 11.7 134.2 11.2 135.85 10.35 Q136.5 9.85 136.15 9.85 L139.35 8.5 139.05 8.5 140.3 8.35 142.55 7.85 143.4 7.85 144.85 8.1 145.85 8.1 Q146.75 7.9 146.8 7.05 L147.65 7.2 148.55 7.45 150.1 7.6 154.6 8.35 Q151.5 9.45 149.4 9.6 L146.8 10.25 144.1 10.75" fill="#5e5020" fill-rule="evenodd" stroke="none"/>
      <path d="M175.6 31.5 L164.6 31.05 166.3 31.0 167.35 30.2 167.75 29.75 168.4 29.25 170.1 28.25 171.1 28.0 172.35 28.5 175.6 29.25 Q177.85 29.65 177.5 30.55 177.15 31.5 175.6 31.5" fill="#5e5020" fill-rule="evenodd" stroke="none"/>
      <path d="M210.35 15.0 Q210.55 15.7 209.25 16.1 L205.5 16.75 201.1 16.95 199.05 16.6 200.6 16.25 Q202.35 15.85 203.25 15.25 204.05 14.65 204.85 14.35 L206.35 13.85 208.35 14.0 Q210.3 14.4 210.35 15.0" fill="#5e5020" fill-rule="evenodd" stroke="none"/>
      <path d="M184.9 5.85 L187.35 6.85 Q189.7 8.1 189.15 8.75 188.6 9.55 185.6 9.75 L180.3 9.6 Q178.15 9.55 175.8 8.7 L173.8 7.85 175.15 7.25 Q176.85 6.55 178.05 5.85 L179.15 5.0 180.65 4.75 183.35 4.85 184.9 5.85" fill="#5e5020" fill-rule="evenodd" stroke="none"/>
      <path d="M232.05 15.0 Q232.3 14.3 233.3 14.75 L234.9 15.5 Q236.5 15.8 237.85 16.7 239.0 17.55 238.55 17.95 L232.5 18.6 229.6 18.25 229.35 17.95 231.35 16.35 231.9 15.75 232.05 15.0" fill="#5e5020" fill-rule="evenodd" stroke="none"/>
      <path d="M206.55 22.7 Q206.85 22.1 207.3 22.1 L213.35 22.6 Q216.15 23.2 216.15 24.2 216.15 24.95 215.15 25.4 L212.15 26.4 Q210.55 27.1 208.9 27.0 L205.75 26.8 Q202.6 26.8 200.6 25.5 200.0 25.1 201.15 24.75 L204.6 23.95 Q206.1 23.4 206.55 22.7" fill="#5e5020" fill-rule="evenodd" stroke="none"/>
      <path d="M139.6 26.4 L146.1 25.05 144.35 26.2 Q143.65 26.6 142.85 27.45 142.05 28.1 140.95 28.4 139.9 28.65 139.1 29.2 L137.35 30.0 135.2 30.25 132.65 30.0 Q129.95 29.65 128.2 28.65 127.95 28.4 128.85 28.25 L132.05 28.0 139.6 26.4" fill="#5e5020" fill-rule="evenodd" stroke="none"/>
      <path d="M146.85 32.0 Q145.55 31.7 145.0 31.05 144.35 30.5 145.85 29.75 147.15 29.05 148.8 28.8 L151.0 28.4 Q153.25 27.95 153.65 28.4 154.35 29.05 153.6 30.5 152.85 32.2 150.6 32.2 L146.85 32.0" fill="#5e5020" fill-rule="evenodd" stroke="none"/>
      <path d="M114.6 15.5 Q115.95 15.5 116.4 16.1 L119.2 17.1 Q121.7 18.25 120.15 18.85 L115.45 19.1 110.15 18.1 Q109.0 17.9 108.95 17.5 108.85 17.1 109.95 16.6 112.0 15.5 114.6 15.5" fill="#5e5020" fill-rule="evenodd" stroke="none"/>
      <path d="M89.15 7.35 Q89.75 7.8 89.15 8.5 88.75 9.05 89.1 10.2 89.25 11.0 88.3 11.0 87.0 11.0 86.05 10.45 85.1 9.85 85.1 9.2 85.1 7.25 88.45 7.0 L89.15 7.35" fill="#8a6f37" fill-rule="evenodd" stroke="none"/>
      <path d="M65.1 12.35 Q64.15 12.2 65.1 11.45 66.25 10.7 67.7 10.75 70.15 10.9 70.05 11.6 69.9 12.15 68.6 12.35 66.7 12.6 65.1 12.35" fill="#8a6f37" fill-rule="evenodd" stroke="none"/>
      <path d="M84.3 22.35 L82.6 22.1 81.1 21.95 79.2 22.0 78.65 21.75 80.45 19.5 Q81.05 18.75 82.05 18.75 L84.7 18.6 87.4 18.75 Q88.55 19.1 88.3 19.95 L87.95 20.5 Q87.7 20.5 87.15 21.0 L86.05 22.0 84.3 22.35" fill="#8a6f37" fill-rule="evenodd" stroke="none"/>
      <path d="M51.1 22.0 L55.2 21.75 Q57.1 21.75 55.95 23.25 54.9 24.6 53.65 24.85 L51.15 24.7 Q49.65 24.2 49.65 23.25 49.65 22.3 51.1 22.0" fill="#8a6f37" fill-rule="evenodd" stroke="none"/>
      <path d="M142.95 6.75 L140.1 7.0 Q139.65 7.1 138.45 7.75 137.4 8.45 136.45 8.5 135.5 8.65 135.05 8.95 L134.3 9.45 Q133.55 9.9 126.2 9.6 L127.2 8.5 Q128.25 7.3 128.65 7.2 L130.65 5.95 Q132.3 4.85 133.1 4.5 L135.45 4.25 138.95 4.25 Q141.2 4.25 143.85 4.95 146.55 5.55 145.85 6.1 145.2 6.7 142.95 6.75" fill="#8a6f37" fill-rule="evenodd" stroke="none"/>
      <path d="M182.75 5.2 Q182.55 5.85 182.4 5.7 182.2 5.2 181.6 5.2 L180.1 5.25 176.5 6.35 174.85 6.5 172.35 6.6 171.35 6.5 172.25 5.75 174.4 4.25 176.6 3.35 Q177.55 3.05 179.85 3.35 L182.4 3.95 Q183.0 4.15 182.75 5.2" fill="#8a6f37" fill-rule="evenodd" stroke="none"/>
      <path d="M203.25 13.7 L202.05 14.25 199.85 14.6 197.4 14.7 195.0 14.1 192.9 13.85 192.35 13.85 194.55 12.35 197.35 12.1 203.25 11.85 Q206.1 11.85 205.3 12.5 203.8 13.25 203.25 13.7" fill="#8a6f37" fill-rule="evenodd" stroke="none"/>
      <path d="M232.05 15.0 Q232.35 15.9 231.35 16.35 L230.1 16.5 228.65 16.35 227.3 16.1 225.35 15.85 Q224.1 15.85 224.9 15.0 L226.05 14.1 226.55 14.25 229.85 14.1 Q231.6 13.95 232.05 15.0" fill="#8a6f37" fill-rule="evenodd" stroke="none"/>
      <path d="M166.4 28.8 L164.6 28.95 Q163.8 28.35 163.0 28.05 L161.1 27.95 160.35 28.2 162.15 27.0 Q164.3 25.85 166.0 26.2 170.15 27.0 171.65 27.55 173.15 28.05 171.85 28.25 L166.4 28.8" fill="#8a6f37" fill-rule="evenodd" stroke="none"/>
      <path d="M108.35 20.6 L111.4 20.85 112.85 21.1 114.6 21.5 115.95 22.0 116.3 22.35 Q116.55 22.75 115.7 23.35 L113.6 24.25 Q112.9 24.45 111.85 25.05 110.7 25.85 110.1 26.05 L108.3 26.45 106.7 26.4 105.4 26.45 104.1 26.25 102.55 25.8 101.35 25.55 100.6 25.5 100.35 25.4 101.1 24.7 Q102.1 23.85 102.6 23.75 103.05 23.55 103.3 22.75 103.35 21.85 103.6 21.75 L104.35 21.6 105.9 20.85 108.35 20.6" fill="#7a642c" fill-rule="evenodd" stroke="none"/>
      <path d="M115.6 14.25 Q116.2 14.4 115.3 15.35 L113.1 15.5 Q111.75 15.5 110.4 16.0 109.9 16.25 108.3 16.0 L106.7 15.85 107.6 14.5 Q108.75 13.2 109.9 13.2 113.15 13.0 115.6 14.25" fill="#7a642c" fill-rule="evenodd" stroke="none"/>
      <path d="M166.35 22.85 L159.0 23.25 151.5 24.0 148.1 24.35 144.6 24.5 Q142.1 24.75 138.4 26.2 134.95 27.55 134.2 27.55 L129.15 27.4 131.35 25.25 132.55 23.5 134.05 22.35 134.65 21.85 134.85 21.2 Q135.0 20.9 137.35 20.5 L140.4 20.2 Q142.65 19.75 144.1 18.7 144.5 18.3 143.75 18.1 142.7 17.9 142.7 17.5 142.7 17.1 145.5 17.5 L149.4 18.2 156.85 18.5 161.65 18.5 164.5 18.7 166.55 19.5 Q167.55 20.0 167.0 20.0 165.2 19.8 163.85 20.0 162.25 20.35 162.55 20.6 L163.35 21.2 Q163.5 21.7 166.35 22.85" fill="#7a642c" fill-rule="evenodd" stroke="none"/>
      <path d="M66.9 28.75 Q66.1 28.5 66.3 28.45 L67.3 28.5 66.9 28.75" fill="#816535" fill-rule="evenodd" stroke="none"/>
    </g>
    <radialGradient cx="0" cy="0" gradientTransform="matrix(0.0, 0.0241, -0.1286, 0.0, 144.55, 20.5)" gradientUnits="userSpaceOnUse" id="gradient0" r="819.2" spreadMethod="pad">
      <stop offset="0.6666666666666666" stop-color="#6e5e25"/>
      <stop offset="1.0" stop-color="#577820"/>
    </radialGradient>
  </defs>
</svg>
