<?xml version="1.0" encoding="UTF-8" standalone="no"?>
<svg xmlns:xlink="http://www.w3.org/1999/xlink" height="172.4px" width="172.4px" xmlns="http://www.w3.org/2000/svg">
  <g transform="matrix(1.0, 0.0, 0.0, 1.0, 0.0, 0.0)">
    <use height="171.5" transform="matrix(1.0, 0.0, 0.0, 1.0, 0.0, 0.0)" width="171.55" xlink:href="#shape0"/>
    <use height="134.0" transform="matrix(1.0, 0.0, 0.0, 1.0, 19.2, 19.85)" width="134.0" xlink:href="#sprite0"/>
    <use height="26.35" transform="matrix(1.0, 0.0, 0.0, 1.0, 49.25, 40.0)" width="9.95" xlink:href="#sprite2"/>
    <use height="26.35" transform="matrix(1.0, 0.0, 0.0, 1.0, 104.75, 40.0)" width="18.3" xlink:href="#sprite4"/>
    <use height="26.35" transform="matrix(1.0, 0.0, 0.0, 1.0, 84.0, 40.0)" width="18.3" xlink:href="#sprite4"/>
    <use height="26.35" transform="matrix(1.0, 0.0, 0.0, 1.0, 63.0, 40.0)" width="18.3" xlink:href="#sprite4"/>
    <use height="73.8" transform="matrix(1.0, 0.0, 0.0, 1.0, 33.8, 70.35)" width="104.85" xlink:href="#sprite6"/>
    <use height="77.35" transform="matrix(1.0, 0.0, 0.0, 1.0, 32.05, 69.3)" width="107.95" xlink:href="#sprite7"/>
    <use height="64.7" transform="matrix(1.0464, 0.0, 0.0, 1.0464, 36.55, 74.1)" width="67.65" xlink:href="#sprite8"/>
    <use height="58.1" transform="matrix(-1.136, 0.0, 0.0, 1.136, 106.6611, 75.4926)" width="60.95" xlink:href="#sprite9"/>
    <use height="69.7" transform="matrix(1.0, 0.0, 0.0, 1.0, 35.95, 73.35)" width="101.35" xlink:href="#shape52"/>
    <use height="57.1" transform="matrix(1.0, 0.0, 0.0, 1.0, 27.25, 86.9)" width="118.7" xlink:href="#sprite73"/>
    <use height="55.75" transform="matrix(1.0, 0.0, 0.0, 1.0, 31.4, 28.1)" width="110.05" xlink:href="#sprite74"/>
    <use height="61.3" transform="matrix(1.0, 0.0, 0.0, 1.0, 31.4, 28.1)" width="110.05" xlink:href="#sprite75"/>
  </g>
  <defs>
    <g id="shape0" transform="matrix(1.0, 0.0, 0.0, 1.0, 0.0, 0.0)">
      <path d="M85.75 0.0 Q103.15 0.0 119.1 6.75 134.5 13.25 146.4 25.15 158.3 37.0 164.8 52.4 171.55 68.35 171.55 85.75 171.55 103.15 164.8 119.1 158.3 134.5 146.4 146.35 134.5 158.25 119.1 164.75 103.15 171.5 85.75 171.5 68.35 171.5 52.4 164.75 37.05 158.25 25.15 146.35 13.25 134.5 6.75 119.1 0.0 103.15 0.0 85.75 0.0 68.35 6.75 52.4 13.25 37.0 25.15 25.15 37.05 13.25 52.4 6.75 68.35 0.0 85.75 0.0" fill="#6b757b" fill-rule="evenodd" stroke="none"/>
      <path d="M85.75 0.0 Q103.15 0.0 119.1 6.75 134.5 13.25 146.4 25.15 158.3 37.0 164.8 52.4 171.55 68.35 171.55 85.75 171.55 103.15 164.8 119.1 158.3 134.5 146.4 146.35 134.5 158.25 119.1 164.75 103.15 171.5 85.75 171.5 68.35 171.5 52.4 164.75 37.05 158.25 25.15 146.35 13.25 134.5 6.75 119.1 0.0 103.15 0.0 85.75 0.0 68.35 6.75 52.4 13.25 37.0 25.15 25.15 37.05 13.25 52.4 6.75 68.35 0.0 85.75 0.0" fill="url(#gradient0)" fill-rule="evenodd" stroke="none"/>
      <path d="M57.6 19.05 Q71.05 13.35 85.8 13.35 100.5 13.35 113.95 19.05 126.95 24.55 137.0 34.55 147.0 44.55 152.5 57.55 158.2 71.0 158.2 85.75 158.2 100.5 152.5 113.95 147.0 126.95 137.0 136.95 126.95 146.95 113.95 152.45 100.5 158.15 85.8 158.15 71.05 158.15 57.6 152.45 44.6 146.95 34.6 136.95 24.55 126.95 19.05 113.95 13.35 100.5 13.35 85.75 13.35 71.0 19.05 57.55 24.55 44.55 34.6 34.55 44.6 24.55 57.6 19.05" fill="url(#gradient1)" fill-rule="evenodd" stroke="none"/>
    </g>
    <linearGradient gradientTransform="matrix(0.0, -0.1047, -0.1047, 0.0, 85.75, 85.75)" gradientUnits="userSpaceOnUse" id="gradient0" spreadMethod="pad" x1="-819.2" x2="819.2">
      <stop offset="0.00392156862745098" stop-color="#46231f"/>
      <stop offset="0.20784313725490197" stop-color="#77603d"/>
      <stop offset="0.5568627450980392" stop-color="#ab9969"/>
      <stop offset="0.7411764705882353" stop-color="#eeecd0"/>
      <stop offset="0.792156862745098" stop-color="#e6e0ad"/>
      <stop offset="1.0" stop-color="#b4a47a"/>
    </linearGradient>
    <linearGradient gradientTransform="matrix(0.0, -0.0884, -0.0884, 0.0, 85.75, 85.75)" gradientUnits="userSpaceOnUse" id="gradient1" spreadMethod="pad" x1="-819.2" x2="819.2">
      <stop offset="0.043137254901960784" stop-color="#b5a271"/>
      <stop offset="1.0" stop-color="#70634a"/>
    </linearGradient>
    <g id="sprite0" transform="matrix(1.0, 0.0, 0.0, 1.0, 0.0, 0.0)">
      <use height="134.0" transform="matrix(1.0, 0.0, 0.0, 1.0, 0.0, 0.0)" width="134.0" xlink:href="#shape1"/>
      <use height="118.7" transform="matrix(1.0, 0.0, 0.0, 1.0, 7.6, 5.5)" width="118.85" xlink:href="#sprite1"/>
    </g>
    <g id="shape1" transform="matrix(1.0, 0.0, 0.0, 1.0, 0.0, 0.0)">
      <path d="M133.15 67.0 Q133.15 94.4 113.75 113.8 94.35 133.2 67.0 133.2 39.6 133.2 20.2 113.8 0.8 94.4 0.8 67.0 0.8 39.6 20.2 20.2 39.6 0.8 67.0 0.8 94.35 0.8 113.75 20.2 133.15 39.6 133.15 67.0" fill="url(#gradient2)" fill-rule="evenodd" stroke="none"/>
      <path d="M67.0 1.65 Q39.95 1.65 20.8 20.8 1.65 39.95 1.65 67.0 1.65 94.1 20.8 113.2 39.95 132.35 67.0 132.35 94.1 132.35 113.2 113.2 132.35 94.1 132.35 67.0 132.35 39.95 113.2 20.8 94.1 1.65 67.0 1.65 M5.05 92.65 Q0.0 80.45 0.0 67.0 0.0 53.55 5.05 41.35 10.1 29.1 19.6 19.6 29.1 10.1 41.35 5.05 53.55 0.0 67.0 0.0 80.45 0.0 92.65 5.05 104.85 10.1 114.35 19.6 123.85 29.1 128.9 41.35 134.0 53.6 134.0 67.0 134.0 80.4 128.9 92.65 123.85 104.85 114.35 114.4 104.85 123.9 92.65 128.95 80.45 134.0 67.0 134.0 53.55 134.0 41.35 128.95 29.1 123.9 19.6 114.4 10.1 104.9 5.05 92.65" fill="#121937" fill-rule="evenodd" stroke="none"/>
    </g>
    <linearGradient gradientTransform="matrix(0.0, -0.0808, -0.0808, 0.0, 67.0, 67.0)" gradientUnits="userSpaceOnUse" id="gradient2" spreadMethod="pad" x1="-819.2" x2="819.2">
      <stop offset="0.09803921568627451" stop-color="#293556"/>
      <stop offset="0.396078431372549" stop-color="#3f5789"/>
      <stop offset="0.5529411764705883" stop-color="#49669f"/>
      <stop offset="0.9686274509803922" stop-color="#a8a3b4"/>
    </linearGradient>
    <g id="sprite1" transform="matrix(1.0, 0.0, 0.0, 1.0, 0.0, 0.0)">
      <use height="118.7" transform="matrix(1.0, 0.0, 0.0, 1.0, 0.0, 0.0)" width="118.85" xlink:href="#shape2"/>
    </g>
    <g id="shape2" transform="matrix(1.0, 0.0, 0.0, 1.0, 0.0, 0.0)">
      <path d="M118.85 59.35 Q118.85 83.9 101.45 101.3 84.05 118.7 59.4 118.7 34.8 118.7 17.4 101.3 0.0 83.9 0.0 59.35 0.0 34.8 17.4 17.4 34.8 0.0 59.4 0.0 84.05 0.0 101.45 17.4 118.85 34.8 118.85 59.35" fill="url(#gradient3)" fill-rule="evenodd" stroke="none"/>
    </g>
    <radialGradient cx="0" cy="0" gradientTransform="matrix(0.0725, 0.0, 0.0, -0.0725, 59.4, 59.35)" gradientUnits="userSpaceOnUse" id="gradient3" r="819.2" spreadMethod="pad">
      <stop offset="0.1411764705882353" stop-color="#92a4ba"/>
      <stop offset="0.5568627450980392" stop-color="#7483ad" stop-opacity="0.972549"/>
      <stop offset="1.0" stop-color="#5763a0" stop-opacity="0.9490196"/>
    </radialGradient>
    <g id="sprite2" transform="matrix(1.0, 0.0, 0.0, 1.0, 0.0, 0.0)">
      <use height="23.55" transform="matrix(1.0, 0.0, 0.0, 1.0, 0.0, 2.8)" width="9.95" xlink:href="#shape3"/>
      <use height="25.85" transform="matrix(1.0, 0.0, 0.0, 1.0, 0.0, 0.0)" width="9.95" xlink:href="#sprite3"/>
      <use height="25.85" transform="matrix(1.0, 0.0, 0.0, 1.0, 0.0, 0.0)" width="9.95" xlink:href="#sprite3"/>
    </g>
    <g id="shape3" transform="matrix(1.0, 0.0, 0.0, 1.0, 0.0, -2.8)">
      <path d="M9.95 23.2 L9.95 23.55 Q9.95 24.85 9.2 25.65 8.45 26.35 7.25 26.35 6.05 26.35 5.3 25.65 4.55 24.85 4.55 23.55 L4.55 23.2 Q4.6 24.4 5.3 25.15 6.05 25.85 7.25 25.85 8.45 25.85 9.2 25.15 9.9 24.4 9.95 23.2 M0.55 4.2 Q1.25 5.0 2.45 5.0 L4.55 5.0 4.55 5.5 2.45 5.5 Q1.25 5.5 0.55 4.7 0.0 4.05 0.0 3.0 L0.0 2.8 Q0.05 3.65 0.55 4.2" fill="#ffffff" fill-rule="evenodd" stroke="none"/>
    </g>
    <g id="sprite3" transform="matrix(1.0, 0.0, 0.0, 1.0, 0.0, 0.0)">
      <use height="25.85" transform="matrix(1.0, 0.0, 0.0, 1.0, 0.0, 0.0)" width="9.95" xlink:href="#shape4"/>
    </g>
    <g id="shape4" transform="matrix(1.0, 0.0, 0.0, 1.0, 0.0, 0.0)">
      <path d="M0.55 4.2 Q0.0 3.55 0.0 2.5 0.0 1.5 0.65 0.8 1.35 0.0 2.45 0.0 L7.55 0.0 Q8.7 0.0 9.35 0.75 9.95 1.45 9.95 2.6 L9.95 23.05 Q9.95 24.35 9.2 25.15 8.45 25.85 7.25 25.85 6.05 25.85 5.3 25.15 4.55 24.35 4.55 23.05 L4.55 5.0 2.45 5.0 Q1.25 5.0 0.55 4.2" fill="url(#gradient4)" fill-rule="evenodd" stroke="none"/>
    </g>
    <linearGradient gradientTransform="matrix(0.0, -0.0061, 0.0158, 0.0, 4.9, 12.95)" gradientUnits="userSpaceOnUse" id="gradient4" spreadMethod="pad" x1="-819.2" x2="819.2">
      <stop offset="0.07450980392156863" stop-color="#000000" stop-opacity="0.9882353"/>
      <stop offset="0.9647058823529412" stop-color="#000000" stop-opacity="0.6509804"/>
    </linearGradient>
    <g id="sprite4" transform="matrix(1.0, 0.0, 0.0, 1.0, 0.0, 0.0)">
      <use height="23.6" transform="matrix(1.0, 0.0, 0.0, 1.0, 0.0, 2.75)" width="18.3" xlink:href="#shape5"/>
      <use height="25.85" transform="matrix(1.0, 0.0, 0.0, 1.0, 0.0, 0.0)" width="18.3" xlink:href="#sprite5"/>
      <use height="25.85" transform="matrix(1.0, 0.0, 0.0, 1.0, 0.0, 0.0)" width="18.3" xlink:href="#sprite5"/>
    </g>
    <g id="shape5" transform="matrix(1.0, 0.0, 0.0, 1.0, 0.0, -2.75)">
      <path d="M11.9 5.0 L11.65 5.5 2.7 5.5 Q1.35 5.5 0.6 4.7 0.0 4.05 0.0 3.0 L0.0 2.75 Q0.05 3.65 0.6 4.2 1.35 5.0 2.7 5.0 L11.9 5.0 M18.3 3.1 Q18.3 3.8 17.45 5.5 L8.55 23.65 7.25 25.75 Q6.65 26.35 5.5 26.35 4.15 26.35 3.3 25.45 2.55 24.7 2.55 23.8 L2.6 23.6 Q2.65 24.3 3.3 24.95 4.15 25.85 5.5 25.85 6.65 25.85 7.25 25.25 L8.55 23.15 17.45 5.0 18.3 2.85 18.3 3.1" fill="#ffffff" fill-rule="evenodd" stroke="none"/>
    </g>
    <g id="sprite5" transform="matrix(1.0, 0.0, 0.0, 1.0, 0.0, 0.0)">
      <use height="25.85" transform="matrix(1.0, 0.0, 0.0, 1.0, 0.0, 0.0)" width="18.3" xlink:href="#shape6"/>
    </g>
    <g id="shape6" transform="matrix(1.0, 0.0, 0.0, 1.0, 0.0, 0.0)">
      <path d="M17.7 0.95 Q18.3 1.75 18.3 2.6 18.3 3.3 17.45 5.0 L8.55 23.15 7.25 25.25 Q6.65 25.85 5.5 25.85 4.15 25.85 3.3 24.95 2.55 24.2 2.55 23.3 2.55 22.85 2.8 22.35 L2.9 22.05 11.9 5.0 2.7 5.0 Q1.35 5.0 0.6 4.2 0.0 3.55 0.0 2.5 0.0 1.45 0.6 0.8 1.3 0.0 2.7 0.0 L15.7 0.0 Q16.95 0.0 17.7 0.95" fill="url(#gradient5)" fill-rule="evenodd" stroke="none"/>
    </g>
    <linearGradient gradientTransform="matrix(0.0, -0.0112, 0.0158, 0.0, 9.1, 12.95)" gradientUnits="userSpaceOnUse" id="gradient5" spreadMethod="pad" x1="-819.2" x2="819.2">
      <stop offset="0.07450980392156863" stop-color="#000000" stop-opacity="0.9882353"/>
      <stop offset="0.9647058823529412" stop-color="#000000" stop-opacity="0.6509804"/>
    </linearGradient>
    <g id="sprite6" transform="matrix(1.0, 0.0, 0.0, 1.0, 0.0, 0.0)">
      <use height="73.8" transform="matrix(1.0, 0.0, 0.0, 1.0, 0.0, 0.0)" width="104.85" xlink:href="#shape7"/>
    </g>
    <g id="shape7" transform="matrix(1.0, 0.0, 0.0, 1.0, 0.0, 0.0)">
      <path d="M87.45 33.0 L77.7 35.25 77.6 36.75 Q77.35 38.65 76.7 40.5 L75.2 45.0 Q76.95 58.25 75.95 60.5 74.95 62.75 70.7 65.75 L69.75 69.45 Q68.3 73.3 65.95 73.75 63.75 74.2 63.8 70.4 L63.7 65.75 Q63.1 65.15 61.1 64.65 L59.2 64.25 59.0 63.0 Q58.55 61.75 57.45 61.75 56.5 61.75 55.5 62.65 L53.95 63.75 52.0 63.35 Q50.75 62.95 50.2 63.5 49.1 64.6 46.45 65.25 L42.7 66.0 42.35 67.55 Q41.65 69.1 39.95 69.25 38.2 69.4 37.3 67.4 36.7 66.05 36.7 64.75 L36.2 62.6 35.7 61.0 32.7 61.5 31.15 64.15 Q29.25 66.75 27.7 66.75 26.4 66.75 25.85 64.65 25.15 62.25 23.95 61.75 21.35 60.7 19.7 55.75 19.3 54.5 17.6 53.45 15.75 52.4 14.7 53.25 14.3 53.6 13.15 55.8 12.3 57.45 10.7 57.75 8.95 58.05 8.35 55.65 L7.7 50.5 6.45 41.5 6.0 36.5 5.7 32.25 Q1.95 26.0 1.45 24.75 L0.25 21.65 Q-0.4 19.25 0.7 18.0 2.1 16.4 5.5 14.25 9.05 12.0 10.45 12.0 12.45 12.0 15.45 13.0 14.9 12.0 14.6 10.7 14.05 8.15 15.45 6.75 17.35 4.9 20.25 3.4 23.6 1.75 26.2 1.75 28.55 1.75 31.6 3.5 33.15 4.4 34.2 5.25 L37.7 13.75 42.8 15.3 Q48.0 16.95 48.45 17.75 L51.45 23.0 54.65 22.65 59.7 21.75 Q62.2 21.0 66.45 20.5 L67.95 17.75 69.45 16.4 Q70.95 14.75 70.95 13.5 70.95 10.7 72.15 7.55 74.0 2.85 77.7 1.25 82.35 -0.8 89.45 0.45 97.15 1.8 101.2 6.25 105.3 10.7 104.8 18.8 104.3 26.5 100.7 29.5 97.95 31.8 93.7 32.4 L87.45 33.0" fill="url(#gradient6)" fill-rule="evenodd" stroke="none"/>
    </g>
    <linearGradient gradientTransform="matrix(0.0, -0.057, -0.057, 0.0, 52.45, 31.55)" gradientUnits="userSpaceOnUse" id="gradient6" spreadMethod="pad" x1="-819.2" x2="819.2">
      <stop offset="0.0" stop-color="#211f1f"/>
      <stop offset="0.17254901960784313" stop-color="#242222"/>
      <stop offset="0.30980392156862746" stop-color="#2e2c2c"/>
      <stop offset="0.43529411764705883" stop-color="#3f3d3d"/>
      <stop offset="0.5529411764705883" stop-color="#565555"/>
      <stop offset="0.6666666666666666" stop-color="#747373"/>
      <stop offset="0.7725490196078432" stop-color="#9a9999"/>
      <stop offset="0.8784313725490196" stop-color="#c6c5c5"/>
      <stop offset="0.9803921568627451" stop-color="#f8f8f8"/>
      <stop offset="0.996078431372549" stop-color="#ffffff"/>
    </linearGradient>
    <g id="sprite7" transform="matrix(1.0, 0.0, 0.0, 1.0, 0.0, 0.0)">
      <use height="77.35" transform="matrix(1.0, 0.0, 0.0, 1.0, 0.0, 0.0)" width="107.95" xlink:href="#shape8"/>
    </g>
    <g id="shape8" transform="matrix(1.0, 0.0, 0.0, 1.0, 0.0, 0.0)">
      <path d="M106.55 19.85 Q107.05 11.75 102.95 7.3 98.9 2.85 91.2 1.5 84.1 0.25 79.45 2.3 75.75 3.9 73.9 8.6 72.7 11.75 72.7 14.55 72.7 15.8 71.2 17.45 L69.7 18.8 68.2 21.55 Q63.95 22.05 61.45 22.8 L56.4 23.7 53.2 24.05 50.2 18.8 Q49.75 18.0 44.55 16.35 L39.45 14.8 35.95 6.3 Q34.9 5.45 33.35 4.55 30.3 2.8 27.95 2.8 25.35 2.8 22.0 4.45 19.1 5.95 17.2 7.8 15.8 9.2 16.35 11.75 16.65 13.05 17.2 14.05 14.2 13.05 12.2 13.05 10.8 13.05 7.25 15.3 3.85 17.45 2.45 19.05 1.35 20.3 2.0 22.7 L3.2 25.8 Q3.7 27.05 7.45 33.3 L7.75 37.55 8.2 42.55 9.45 51.55 10.1 56.7 Q10.7 59.1 12.45 58.8 14.05 58.5 14.9 56.85 16.05 54.65 16.45 54.3 17.5 53.45 19.35 54.5 21.05 55.55 21.45 56.8 23.1 61.75 25.7 62.8 26.9 63.3 27.6 65.7 28.15 67.8 29.45 67.8 31.0 67.8 32.9 65.2 L34.45 62.55 37.45 62.05 37.95 63.65 38.45 65.8 Q38.45 67.1 39.05 68.45 39.95 70.45 41.7 70.3 43.4 70.15 44.1 68.6 L44.45 67.05 48.2 66.3 Q50.85 65.65 51.95 64.55 52.5 64.0 53.75 64.4 55.25 64.9 55.7 64.8 L57.25 63.7 Q58.25 62.8 59.2 62.8 60.3 62.8 60.75 64.05 L60.95 65.3 62.85 65.7 Q64.85 66.2 65.45 66.8 L65.55 71.45 Q65.5 75.25 67.7 74.8 70.05 74.35 71.5 70.5 L72.45 66.8 Q76.7 63.8 77.7 61.55 78.7 59.3 76.95 46.05 L78.45 41.55 Q79.1 39.7 79.35 37.8 L79.45 36.3 89.2 34.05 95.45 33.45 Q99.7 32.85 102.45 30.55 106.05 27.55 106.55 19.85 M104.15 6.6 Q108.4 11.25 107.9 19.8 107.4 27.8 103.65 31.0 100.7 33.5 97.05 34.55 L91.2 35.8 85.1 36.85 81.7 37.3 80.2 42.3 78.7 46.3 Q79.95 60.65 78.95 63.05 77.9 65.4 73.95 68.8 L71.75 72.75 Q69.1 76.8 66.7 77.3 64.4 77.75 64.3 73.85 L63.95 69.05 62.1 67.85 60.95 67.45 60.75 66.15 Q60.3 64.8 59.15 64.8 58.15 64.8 57.15 65.75 56.1 66.8 55.55 66.9 L53.55 66.5 Q52.3 66.05 51.7 66.65 50.6 67.8 47.85 68.5 L44.95 69.55 44.1 71.05 Q42.95 72.55 41.15 72.7 39.35 72.85 38.4 70.7 37.8 69.3 37.8 67.95 L37.3 65.7 36.8 64.05 35.2 64.8 32.85 67.45 Q30.15 70.05 28.55 70.05 27.2 70.05 26.6 67.8 25.95 65.3 24.7 64.8 21.95 63.7 20.3 58.55 19.85 57.2 19.15 56.7 18.25 56.1 17.2 57.05 L14.6 59.15 Q12.9 60.3 11.05 60.65 9.25 60.95 8.6 58.4 L7.95 53.0 6.65 43.55 6.2 38.3 5.9 33.85 Q2.05 27.3 1.5 26.0 L0.25 22.75 Q-0.4 20.25 0.75 18.9 2.25 17.15 5.9 14.7 9.75 12.05 11.2 12.05 L15.7 12.05 Q15.3 11.25 15.2 10.2 15.0 8.0 16.45 6.55 18.35 4.65 21.15 3.3 24.25 1.85 27.0 1.85 29.8 1.85 32.85 2.9 35.75 3.9 36.7 5.05 37.95 6.55 40.7 13.8 L45.55 15.3 Q50.5 16.95 50.95 17.8 L53.95 22.8 56.6 22.6 61.2 21.8 66.7 20.3 69.7 17.8 Q71.2 16.85 71.2 14.8 71.2 12.3 73.2 8.25 75.8 3.0 79.7 1.3 84.5 -0.85 91.95 0.5 99.95 1.9 104.15 6.6" fill="url(#gradient7)" fill-rule="evenodd" stroke="none"/>
    </g>
    <linearGradient gradientTransform="matrix(0.0, -0.02, -0.02, 0.0, 54.0, 90.95)" gradientUnits="userSpaceOnUse" id="gradient7" spreadMethod="pad" x1="-819.2" x2="819.2">
      <stop offset="0.0" stop-color="#211f1f"/>
      <stop offset="0.023529411764705882" stop-color="#3b3939"/>
      <stop offset="0.07058823529411765" stop-color="#646262"/>
      <stop offset="0.11764705882352941" stop-color="#898888"/>
      <stop offset="0.17254901960784313" stop-color="#a9a8a8"/>
      <stop offset="0.23137254901960785" stop-color="#c4c4c4"/>
      <stop offset="0.30196078431372547" stop-color="#dadada"/>
      <stop offset="0.3803921568627451" stop-color="#ebeaea"/>
      <stop offset="0.47843137254901963" stop-color="#f6f6f6"/>
      <stop offset="0.615686274509804" stop-color="#fdfdfd"/>
      <stop offset="0.996078431372549" stop-color="#ffffff"/>
    </linearGradient>
    <g id="sprite8" transform="matrix(1.0, 0.0, 0.0, 1.0, 0.0, 0.0)">
      <use height="64.7" transform="matrix(1.0, 0.0, 0.0, 1.0, 0.0, 0.0)" width="67.65" xlink:href="#shape9"/>
    </g>
    <g id="shape9" transform="matrix(1.0, 0.0, 0.0, 1.0, 0.0, 0.0)">
      <path d="M15.4 2.7 Q17.1 0.85 18.15 0.25 18.9 -0.2 22.05 0.25 L26.35 0.95 Q27.45 1.1 28.65 4.85 29.75 8.05 29.75 9.4 29.75 10.6 24.4 12.3 L29.0 12.3 Q29.75 12.3 31.1 13.25 32.4 13.65 33.85 11.6 34.4 10.75 37.8 12.3 39.5 13.1 41.05 14.0 L42.45 16.7 Q43.75 19.5 43.75 20.3 43.75 21.5 42.75 24.15 L44.75 24.35 47.85 24.4 Q48.7 24.25 50.3 25.65 L52.2 27.3 Q52.55 27.45 51.75 32.05 50.9 36.95 50.95 37.2 L53.15 43.0 55.55 41.7 Q58.2 40.45 59.4 40.3 61.35 40.1 67.65 43.0 L67.4 51.45 Q66.9 53.1 64.0 56.25 L63.05 56.35 62.55 56.0 62.15 60.35 Q61.55 64.7 60.65 64.7 59.7 64.7 59.85 61.35 L60.15 57.45 Q60.15 57.05 57.65 55.6 L54.6 53.85 Q54.15 53.55 53.8 50.25 L53.65 47.1 50.5 49.25 Q50.25 53.85 49.05 54.1 48.25 54.25 48.35 52.85 L48.55 51.45 46.15 51.65 44.2 55.55 37.2 55.55 Q36.0 59.15 35.3 59.4 34.85 59.55 34.25 57.3 L33.85 55.05 Q32.4 51.65 31.4 51.65 L25.85 51.45 Q25.45 51.45 24.25 54.1 L23.2 56.75 22.75 52.15 21.5 52.9 20.3 50.45 18.4 45.15 Q14.5 44.45 13.3 43.7 12.55 43.25 12.25 41.0 L12.1 38.85 11.15 41.55 9.95 39.35 9.15 43.6 Q8.2 47.8 7.25 47.8 6.35 47.8 6.5 45.5 L6.8 42.25 6.5 39.9 Q6.15 38.45 5.8 37.9 5.55 37.4 5.3 33.75 L5.1 29.2 Q5.1 28.45 6.2 26.85 L7.25 25.35 3.15 25.1 0.05 17.4 Q-0.4 16.45 2.65 13.55 L5.8 10.85 12.35 11.85 Q13.05 12.05 15.0 16.65 L17.9 16.65 19.85 13.3 16.45 12.8 Q15.9 12.6 14.7 9.55 13.55 6.5 13.55 5.55 13.55 4.75 15.4 2.7" fill="#c3e4e7" fill-opacity="0.21568628" fill-rule="evenodd" stroke="none"/>
    </g>
    <g id="sprite9" transform="matrix(1.0, 0.0, 0.0, 1.0, 11.85, 4.1)">
      <use height="58.1" transform="matrix(1.0, 0.0, 0.0, 1.0, -11.85, -4.1)" width="60.95" xlink:href="#sprite10"/>
      <use height="47.95" transform="matrix(1.0, 0.0, 0.0, 1.0, -10.5, -3.35)" width="58.55" xlink:href="#sprite72"/>
    </g>
    <g id="sprite10" transform="matrix(1.0, 0.0, 0.0, 1.0, 11.85, 4.1)">
      <use height="12.15" transform="matrix(1.0, 0.0, 0.0, 1.0, -11.3, 41.85)" width="11.15" xlink:href="#sprite11"/>
      <use height="8.6" transform="matrix(1.0, 0.0, 0.0, 1.0, 20.95, 38.0)" width="10.45" xlink:href="#sprite12"/>
      <use height="8.2" transform="matrix(1.0, 0.0, 0.0, 1.0, 11.8, 40.65)" width="8.75" xlink:href="#shape12"/>
      <use height="11.95" transform="matrix(1.0, 0.0, 0.0, 1.0, 37.85, 26.5)" width="6.05" xlink:href="#sprite13"/>
      <use height="3.1" transform="matrix(1.0, 0.0, 0.0, 1.0, 41.45, 17.65)" width="3.8" xlink:href="#shape14"/>
      <use height="7.6" transform="matrix(1.0, 0.0, 0.0, 1.0, 0.15, 37.0)" width="8.1" xlink:href="#sprite14"/>
      <use height="4.3" transform="matrix(1.0, 0.0, 0.0, 1.0, 23.55, 31.35)" width="13.15" xlink:href="#sprite15"/>
      <use height="14.55" transform="matrix(1.0, 0.0, 0.0, 1.0, 22.9, 21.75)" width="15.25" xlink:href="#sprite16"/>
      <use height="2.55" transform="matrix(1.0, 0.0, 0.0, 1.0, 29.75, 27.1)" width="6.7" xlink:href="#sprite17"/>
      <use height="6.85" transform="matrix(1.0, 0.0, 0.0, 1.0, 13.3, 13.1)" width="8.95" xlink:href="#sprite18"/>
      <use height="14.0" transform="matrix(1.0, 0.0, 0.0, 1.0, 8.7, 6.3)" width="14.1" xlink:href="#sprite19"/>
      <use height="3.65" transform="matrix(1.0, 0.0, 0.0, 1.0, 11.05, 12.6)" width="5.05" xlink:href="#sprite20"/>
      <use height="4.55" transform="matrix(1.0, 0.0, 0.0, 1.0, 34.8, 13.1)" width="10.55" xlink:href="#sprite21"/>
      <use height="12.4" transform="matrix(1.0, 0.0, 0.0, 1.0, 34.4, 5.8)" width="14.7" xlink:href="#sprite22"/>
      <use height="3.3" transform="matrix(1.0, 0.0, 0.0, 1.0, 36.95, 8.55)" width="5.25" xlink:href="#sprite23"/>
      <use height="4.55" transform="matrix(1.0, 0.0, 0.0, 1.0, 22.55, 3.2)" width="10.6" xlink:href="#sprite24"/>
      <use height="12.4" transform="matrix(1.0, 0.0, 0.0, 1.0, 22.2, -4.1)" width="14.65" xlink:href="#sprite25"/>
      <use height="3.3" transform="matrix(1.0, 0.0, 0.0, 1.0, 28.15, -4.1)" width="5.2" xlink:href="#sprite26"/>
      <use height="3.5" transform="matrix(1.0, 0.0, 0.0, 1.0, 20.15, 37.1)" width="11.1" xlink:href="#sprite27"/>
      <use height="12.2" transform="matrix(1.0, 0.0, 0.0, 1.0, 18.8, 29.0)" width="12.95" xlink:href="#sprite28"/>
      <use height="2.25" transform="matrix(1.0, 0.0, 0.0, 1.0, 20.3, 33.5)" width="5.6" xlink:href="#sprite29"/>
      <use height="3.55" transform="matrix(1.0, 0.0, 0.0, 1.0, 2.55, 24.95)" width="11.0" xlink:href="#sprite30"/>
      <use height="12.15" transform="matrix(1.0, 0.0, 0.0, 1.0, 0.95, 16.9)" width="13.15" xlink:href="#sprite31"/>
      <use height="2.25" transform="matrix(1.0, 0.0, 0.0, 1.0, 2.55, 21.55)" width="5.6" xlink:href="#sprite32"/>
      <use height="3.55" transform="matrix(1.0, 0.0, 0.0, 1.0, 22.4, 21.75)" width="11.0" xlink:href="#sprite33"/>
      <use height="12.15" transform="matrix(1.0, 0.0, 0.0, 1.0, 20.8, 13.75)" width="13.1" xlink:href="#sprite34"/>
      <use height="2.25" transform="matrix(1.0, 0.0, 0.0, 1.0, 22.35, 18.35)" width="5.6" xlink:href="#sprite35"/>
      <use height="3.6" transform="matrix(1.0, 0.0, 0.0, 1.0, 32.0, 25.2)" width="11.15" xlink:href="#sprite36"/>
      <use height="12.25" transform="matrix(1.0, 0.0, 0.0, 1.0, 31.5, 17.1)" width="12.8" xlink:href="#sprite37"/>
      <use height="2.15" transform="matrix(1.0, 0.0, 0.0, 1.0, 37.25, 21.6)" width="5.6" xlink:href="#sprite38"/>
      <use height="3.95" transform="matrix(1.0, 0.0, 0.0, 1.0, 11.5, 30.75)" width="12.25" xlink:href="#sprite39"/>
      <use height="13.45" transform="matrix(1.0, 0.0, 0.0, 1.0, 10.9, 21.85)" width="14.1" xlink:href="#sprite40"/>
      <use height="2.4" transform="matrix(1.0, 0.0, 0.0, 1.0, 17.25, 26.75)" width="6.2" xlink:href="#sprite41"/>
      <use height="3.6" transform="matrix(1.0, 0.0, 0.0, 1.0, -11.35, 40.4)" width="11.1" xlink:href="#sprite42"/>
      <use height="12.25" transform="matrix(1.0, 0.0, 0.0, 1.0, -11.85, 32.3)" width="12.8" xlink:href="#sprite43"/>
      <use height="2.15" transform="matrix(1.0, 0.0, 0.0, 1.0, -6.1, 36.8)" width="5.65" xlink:href="#sprite44"/>
      <use height="4.35" transform="matrix(1.0, 0.0, 0.0, 1.0, 0.35, 35.95)" width="10.9" xlink:href="#sprite45"/>
      <use height="12.45" transform="matrix(1.0, 0.0, 0.0, 1.0, 0.0, 28.4)" width="14.4" xlink:href="#sprite46"/>
      <use height="2.95" transform="matrix(1.0, 0.0, 0.0, 1.0, 2.3, 31.5)" width="5.35" xlink:href="#sprite47"/>
      <use height="4.35" transform="matrix(1.0, 0.0, 0.0, 1.0, 10.75, 21.4)" width="10.85" xlink:href="#sprite48"/>
      <use height="12.45" transform="matrix(1.0, 0.0, 0.0, 1.0, 10.35, 13.85)" width="14.4" xlink:href="#sprite49"/>
      <use height="2.95" transform="matrix(1.0, 0.0, 0.0, 1.0, 12.65, 16.95)" width="5.35" xlink:href="#sprite50"/>
      <use height="4.35" transform="matrix(1.0, 0.0, 0.0, 1.0, 9.35, 40.75)" width="10.5" xlink:href="#sprite51"/>
      <use height="12.25" transform="matrix(1.0, 0.0, 0.0, 1.0, 6.55, 33.15)" width="13.8" xlink:href="#sprite52"/>
      <use height="2.75" transform="matrix(1.0, 0.0, 0.0, 1.0, 8.5, 38.3)" width="5.5" xlink:href="#sprite53"/>
      <use height="4.35" transform="matrix(1.0, 0.0, 0.0, 1.0, 18.9, 13.9)" width="10.9" xlink:href="#sprite54"/>
      <use height="12.45" transform="matrix(1.0, 0.0, 0.0, 1.0, 18.55, 6.35)" width="14.4" xlink:href="#sprite55"/>
      <use height="2.95" transform="matrix(1.0, 0.0, 0.0, 1.0, 20.85, 9.45)" width="5.35" xlink:href="#sprite56"/>
      <use height="4.35" transform="matrix(1.0, 0.0, 0.0, 1.0, 28.0, 18.55)" width="10.9" xlink:href="#sprite57"/>
      <use height="12.45" transform="matrix(1.0, 0.0, 0.0, 1.0, 27.65, 11.0)" width="14.4" xlink:href="#sprite58"/>
      <use height="2.95" transform="matrix(1.0, 0.0, 0.0, 1.0, 29.95, 14.1)" width="5.35" xlink:href="#sprite59"/>
      <use height="5.15" transform="matrix(1.0, 0.0, 0.0, 1.0, 31.2, 0.7)" width="5.05" xlink:href="#sprite60"/>
      <use height="6.15" transform="matrix(1.0, 0.0, 0.0, 1.0, 42.75, 10.85)" width="5.15" xlink:href="#sprite61"/>
      <use height="4.8" transform="matrix(1.0, 0.0, 0.0, 1.0, 27.85, 11.35)" width="2.95" xlink:href="#sprite62"/>
      <use height="5.7" transform="matrix(1.0, 0.0, 0.0, 1.0, 36.25, 16.0)" width="4.3" xlink:href="#sprite63"/>
      <use height="6.3" transform="matrix(1.0, 0.0, 0.0, 1.0, 37.2, 21.4)" width="6.55" xlink:href="#sprite64"/>
      <use height="8.15" transform="matrix(1.0, 0.0, 0.0, 1.0, 30.05, 26.3)" width="6.7" xlink:href="#sprite65"/>
      <use height="7.15" transform="matrix(1.0, 0.0, 0.0, 1.0, 27.65, 31.65)" width="3.25" xlink:href="#sprite66"/>
      <use height="4.7" transform="matrix(1.0, 0.0, 0.0, 1.0, 16.35, 26.4)" width="6.7" xlink:href="#sprite67"/>
      <use height="6.9" transform="matrix(1.0, 0.0, 0.0, 1.0, 19.4, 18.45)" width="4.65" xlink:href="#sprite68"/>
      <use height="8.0" transform="matrix(1.0, 0.0, 0.0, 1.0, 17.65, 7.5)" width="4.0" xlink:href="#sprite69"/>
      <use height="7.2" transform="matrix(1.0, 0.0, 0.0, 1.0, 16.25, 34.65)" width="3.2" xlink:href="#sprite70"/>
      <use height="7.0" transform="matrix(1.0, 0.0, 0.0, 1.0, -5.3, 36.55)" width="5.65" xlink:href="#sprite71"/>
    </g>
    <g id="sprite11" transform="matrix(1.0, 0.0, 0.0, 1.0, 0.0, 0.0)">
      <use height="12.15" transform="matrix(1.0, 0.0, 0.0, 1.0, 0.0, 0.0)" width="11.15" xlink:href="#shape10"/>
    </g>
    <g id="shape10" transform="matrix(1.0, 0.0, 0.0, 1.0, 0.0, 0.0)">
      <path d="M5.35 2.15 L8.2 1.85 Q10.4 1.15 11.15 1.1 L10.05 2.0 9.55 2.65 9.2 2.75 8.85 2.8 Q7.25 3.2 6.15 5.1 5.5 6.3 5.5 8.65 L5.6 10.5 Q5.6 11.75 5.2 12.15 4.9 12.0 4.8 11.25 L4.7 10.15 4.55 8.0 4.35 5.65 3.95 4.0 Q3.75 4.1 3.65 4.65 L3.2 5.3 2.7 4.0 Q2.4 3.25 1.9 2.75 L0.7 1.5 Q-0.05 0.6 0.0 0.0 L1.65 1.0 3.5 2.15 5.35 2.15" fill="url(#gradient8)" fill-rule="evenodd" stroke="none"/>
    </g>
    <linearGradient gradientTransform="matrix(0.0057, 0.0028, 0.0028, -0.0057, 3.65, 4.4)" gradientUnits="userSpaceOnUse" id="gradient8" spreadMethod="pad" x1="-819.2" x2="819.2">
      <stop offset="0.0" stop-color="#ffffff" stop-opacity="0.63529414"/>
      <stop offset="1.0" stop-color="#97c9dd" stop-opacity="0.41960785"/>
    </linearGradient>
    <g id="sprite12" transform="matrix(1.0, 0.0, 0.0, 1.0, -1.0, 0.0)">
      <use height="8.6" transform="matrix(1.0, 0.0, 0.0, 1.0, 1.0, 0.0)" width="10.45" xlink:href="#shape11"/>
    </g>
    <g id="shape11" transform="matrix(1.0, 0.0, 0.0, 1.0, -1.0, 0.0)">
      <path d="M11.45 0.0 L11.45 0.15 11.2 1.2 10.65 2.15 Q10.3 2.85 10.1 3.6 9.95 4.55 9.6 4.65 L9.3 3.75 Q9.1 3.25 8.75 3.4 8.4 3.55 8.15 5.15 L7.75 8.6 Q7.4 8.7 7.15 7.5 L6.9 5.85 Q6.35 3.85 5.5 3.65 L4.6 3.65 3.75 3.3 2.35 3.1 1.25 2.5 1.0 2.35 6.45 2.8 7.2 2.85 7.95 2.8 8.45 2.45 8.95 2.0 10.15 0.85 Q11.0 0.1 11.45 0.0" fill="url(#gradient9)" fill-rule="evenodd" stroke="none"/>
    </g>
    <linearGradient gradientTransform="matrix(0.0054, 0.0027, 0.0027, -0.0054, 5.45, 2.25)" gradientUnits="userSpaceOnUse" id="gradient9" spreadMethod="pad" x1="-819.2" x2="819.2">
      <stop offset="0.0" stop-color="#ffffff" stop-opacity="0.63529414"/>
      <stop offset="1.0" stop-color="#97c9dd" stop-opacity="0.41960785"/>
    </linearGradient>
    <g id="shape12" transform="matrix(1.0, 0.0, 0.0, 1.0, -11.8, -40.65)">
      <path d="M20.55 40.65 L19.55 42.3 19.15 42.95 19.05 43.7 18.4 44.85 Q17.9 46.0 17.9 47.45 L17.95 48.15 17.85 48.8 Q17.4 49.05 17.1 48.15 16.55 46.6 16.55 45.15 16.3 45.1 16.05 45.45 L15.65 45.95 15.1 45.45 14.4 45.3 13.4 44.95 12.6 45.0 11.8 44.8 Q12.15 44.5 13.1 44.4 L14.55 44.3 16.55 44.0 17.55 43.3 18.4 42.45 20.55 40.65" fill="url(#gradient10)" fill-rule="evenodd" stroke="none"/>
    </g>
    <linearGradient gradientTransform="matrix(0.0039, 0.002, 0.002, -0.0039, 16.5, 43.45)" gradientUnits="userSpaceOnUse" id="gradient10" spreadMethod="pad" x1="-819.2" x2="819.2">
      <stop offset="0.0" stop-color="#ffffff" stop-opacity="0.63529414"/>
      <stop offset="1.0" stop-color="#97c9dd" stop-opacity="0.41960785"/>
    </linearGradient>
    <g id="sprite13" transform="matrix(1.0, 0.0, 0.0, 1.0, 0.05, 0.0)">
      <use height="11.95" transform="matrix(1.0, 0.0, 0.0, 1.0, -0.05, 0.0)" width="6.05" xlink:href="#shape13"/>
    </g>
    <g id="shape13" transform="matrix(1.0, 0.0, 0.0, 1.0, 0.05, 0.0)">
      <path d="M6.0 0.15 L5.85 0.25 5.9 1.6 5.6 3.15 5.0 4.35 Q4.7 4.95 4.65 5.65 L4.65 8.95 4.75 10.5 Q4.75 11.5 4.45 11.95 3.95 11.8 3.6 10.55 L3.3 8.8 3.0 4.3 2.65 3.25 Q2.35 2.85 2.0 3.65 1.85 4.0 2.0 5.35 2.15 6.55 1.65 6.95 1.15 6.85 1.05 5.2 L0.9 3.0 0.0 3.3 0.0 2.15 3.5 1.65 4.25 1.6 5.0 1.25 5.45 0.65 5.85 0.25 5.85 0.0 6.0 0.15" fill="url(#gradient11)" fill-rule="evenodd" stroke="none"/>
    </g>
    <linearGradient gradientTransform="matrix(0.0045, 0.0023, 0.0023, -0.0045, 3.25, 5.05)" gradientUnits="userSpaceOnUse" id="gradient11" spreadMethod="pad" x1="-819.2" x2="819.2">
      <stop offset="0.0" stop-color="#ffffff" stop-opacity="0.63529414"/>
      <stop offset="1.0" stop-color="#97c9dd" stop-opacity="0.41960785"/>
    </linearGradient>
    <g id="shape14" transform="matrix(1.0, 0.0, 0.0, 1.0, -41.45, -17.65)">
      <path d="M45.25 17.65 L44.9 18.15 Q44.6 18.5 44.7 19.4 L44.5 20.75 43.95 19.2 Q43.6 18.1 42.95 18.8 42.85 18.3 42.35 18.2 L41.45 17.95 43.45 17.85 45.25 17.65" fill="url(#gradient12)" fill-rule="evenodd" stroke="none"/>
    </g>
    <linearGradient gradientTransform="matrix(0.0022, 0.0011, 0.0011, -0.0022, 43.45, 18.5)" gradientUnits="userSpaceOnUse" id="gradient12" spreadMethod="pad" x1="-819.2" x2="819.2">
      <stop offset="0.0" stop-color="#ffffff" stop-opacity="0.63529414"/>
      <stop offset="1.0" stop-color="#97c9dd" stop-opacity="0.41960785"/>
    </linearGradient>
    <g id="sprite14" transform="matrix(1.0, 0.0, 0.0, 1.0, 0.0, 0.0)">
      <use height="7.6" transform="matrix(1.0, 0.0, 0.0, 1.0, 0.0, 0.0)" width="8.1" xlink:href="#shape15"/>
    </g>
    <g id="shape15" transform="matrix(1.0, 0.0, 0.0, 1.0, 0.0, 0.0)">
      <path d="M6.75 3.0 L8.1 3.65 7.45 4.4 Q7.05 4.8 6.65 4.8 L5.8 4.5 Q5.2 4.3 4.95 4.5 4.5 4.85 4.5 6.0 L4.55 7.6 Q4.1 7.75 4.05 6.75 L3.95 5.45 3.8 4.0 Q3.7 3.1 3.25 2.8 L3.05 2.9 2.75 2.8 2.6 2.6 2.55 2.3 2.3 1.3 Q1.95 0.9 1.25 0.55 L0.0 0.0 Q0.6 -0.05 2.1 0.6 L3.9 1.6 5.3 2.85 Q6.35 3.65 6.75 3.0" fill="url(#gradient13)" fill-rule="evenodd" stroke="none"/>
    </g>
    <linearGradient gradientTransform="matrix(0.0048, 0.0024, 0.0024, -0.0048, 2.95, 3.95)" gradientUnits="userSpaceOnUse" id="gradient13" spreadMethod="pad" x1="-819.2" x2="819.2">
      <stop offset="0.0" stop-color="#ffffff" stop-opacity="0.63529414"/>
      <stop offset="1.0" stop-color="#97c9dd" stop-opacity="0.41960785"/>
    </linearGradient>
    <g id="sprite15" transform="matrix(1.0, 0.0, 0.0, 1.0, -0.05, 0.0)">
      <use height="3.6" transform="matrix(1.1847, 0.0, 0.0, 1.1944, 0.05, 0.0097)" width="11.1" xlink:href="#shape16"/>
    </g>
    <g id="shape16" transform="matrix(1.0, 0.0, 0.0, 1.0, 0.0, -0.05)">
      <path d="M9.7 2.8 L6.25 3.35 4.0 3.6 Q3.45 3.4 1.85 2.4 L0.0 1.05 Q-0.15 0.8 1.5 0.45 L4.35 0.1 6.3 0.05 Q7.1 0.1 7.65 0.45 8.9 1.3 10.6 2.1 11.95 2.7 9.7 2.8" fill="#000000" fill-opacity="0.7176471" fill-rule="evenodd" stroke="none"/>
    </g>
    <g id="sprite16" transform="matrix(1.0, 0.0, 0.0, 1.0, 0.0, 0.0)">
      <use height="12.25" transform="matrix(1.1914, 0.0, 0.0, 1.187, 0.0, 0.0)" width="12.8" xlink:href="#shape17"/>
    </g>
    <g id="shape17" transform="matrix(1.0, 0.0, 0.0, 1.0, 0.0, 0.0)">
      <path d="M12.75 3.2 Q12.95 3.7 12.4 6.25 L12.05 10.55 11.2 11.1 9.75 11.25 5.25 12.25 4.0 12.05 2.85 11.2 Q0.1 9.6 0.0 9.2 L0.1 7.6 0.25 4.8 0.1 2.5 Q0.05 1.65 0.25 1.4 0.7 0.8 3.25 0.45 L6.2 0.1 Q7.5 -0.35 9.7 1.15 L11.7 2.4 Q12.7 3.0 12.75 3.2" fill="#c2e0ef" fill-opacity="0.7176471" fill-rule="evenodd" stroke="none"/>
    </g>
    <g id="sprite17" transform="matrix(1.0, 0.0, 0.0, 1.0, 0.0, -0.05)">
      <use height="2.15" transform="matrix(1.1858, 0.0, 0.0, 1.1861, 0.0, 0.0593)" width="5.65" xlink:href="#shape18"/>
    </g>
    <g id="shape18" transform="matrix(1.0, 0.0, 0.0, 1.0, 0.0, -0.05)">
      <path d="M5.6 1.75 L5.25 2.2 4.5 1.7 Q3.7 1.3 3.5 1.25 L1.9 1.3 0.25 1.45 Q-0.15 1.45 0.15 1.0 0.5 0.55 1.9 0.25 L4.55 0.1 Q5.05 0.15 5.4 0.6 5.75 1.1 5.6 1.75" fill="#88a6b4" fill-opacity="0.7176471" fill-rule="evenodd" stroke="none"/>
    </g>
    <g id="sprite18" transform="matrix(1.0, 0.0, 0.0, 1.0, 0.0, 0.0)">
      <use height="6.85" transform="matrix(1.0, 0.0, 0.0, 1.0, 0.0, 0.0)" width="8.95" xlink:href="#shape19"/>
    </g>
    <g id="shape19" transform="matrix(1.0, 0.0, 0.0, 1.0, 0.0, 0.0)">
      <path d="M6.75 4.3 L4.65 5.2 1.4 6.4 Q-0.6 7.4 0.25 6.2 L2.05 3.3 Q2.3 2.75 3.0 2.35 3.3 2.15 4.7 1.4 6.05 0.75 7.4 0.35 L8.95 0.15 8.05 2.2 6.75 4.3" fill="#000000" fill-opacity="0.7176471" fill-rule="evenodd" stroke="none"/>
    </g>
    <g id="sprite19" transform="matrix(1.0, 0.0, 0.0, 1.0, 0.0, 0.0)">
      <use height="14.0" transform="matrix(1.0, 0.0, 0.0, 1.0, 0.0, 0.0)" width="14.1" xlink:href="#shape20"/>
    </g>
    <g id="shape20" transform="matrix(1.0, 0.0, 0.0, 1.0, 0.0, 0.0)">
      <path d="M10.75 1.0 L11.7 3.05 14.1 6.75 Q14.2 7.2 12.6 9.9 L12.0 11.15 11.0 11.95 6.6 13.35 5.2 13.9 4.25 13.85 1.85 10.25 Q0.1 8.3 0.0 7.75 -0.05 7.6 0.55 6.6 L1.65 4.5 Q2.9 2.15 4.25 1.85 L6.95 0.75 Q9.35 -0.2 10.05 0.05 L10.75 1.0" fill="#c2e0ef" fill-opacity="0.7176471" fill-rule="evenodd" stroke="none"/>
    </g>
    <g id="sprite20" transform="matrix(1.0, 0.0, 0.0, 1.0, 0.0, 0.0)">
      <use height="3.65" transform="matrix(1.0, 0.0, 0.0, 1.0, 0.0, 0.0)" width="5.05" xlink:href="#shape21"/>
    </g>
    <g id="shape21" transform="matrix(1.0, 0.0, 0.0, 1.0, 0.0, 0.0)">
      <path d="M2.85 0.25 L4.75 0.1 Q5.25 0.3 4.9 0.5 L3.4 1.2 Q2.35 1.55 1.95 1.95 L1.3 2.8 0.9 3.6 Q0.75 3.75 0.35 3.4 -0.05 2.95 0.0 2.35 0.05 1.75 0.45 1.45 1.45 0.7 2.85 0.25" fill="#88a6b4" fill-opacity="0.7176471" fill-rule="evenodd" stroke="none"/>
    </g>
    <g id="sprite21" transform="matrix(1.0, 0.0, 0.0, 1.0, -0.05, 0.0)">
      <use height="4.55" transform="matrix(0.9953, 0.0, 0.0, 1.0, 0.05, 0.0)" width="10.6" xlink:href="#shape22"/>
    </g>
    <g id="shape22" transform="matrix(1.0, 0.0, 0.0, 1.0, 0.0, 0.0)">
      <path d="M1.15 1.2 Q-0.85 0.1 0.65 0.15 L4.05 0.0 Q4.7 -0.05 5.45 0.25 L7.15 1.2 9.55 2.85 Q10.8 3.85 10.55 4.05 L8.35 4.4 5.85 4.5 3.95 3.25 1.15 1.2" fill="#000000" fill-opacity="0.7176471" fill-rule="evenodd" stroke="none"/>
    </g>
    <g id="sprite22" transform="matrix(1.0, 0.0, 0.0, 1.0, 0.0, 0.0)">
      <use height="12.4" transform="matrix(1.0, 0.0, 0.0, 1.0, 0.0, 0.0)" width="14.7" xlink:href="#shape23"/>
    </g>
    <g id="shape23" transform="matrix(1.0, 0.0, 0.0, 1.0, 0.0, 0.0)">
      <path d="M12.4 2.4 Q14.5 3.85 14.7 4.6 L14.3 5.65 13.1 7.65 12.0 10.2 11.35 11.65 9.9 11.95 7.9 12.15 6.55 12.4 Q5.85 12.4 5.3 12.0 2.6 9.7 1.7 9.1 L0.5 8.25 Q-0.1 7.8 0.0 7.4 L1.65 3.4 2.15 1.85 Q2.45 0.75 2.7 0.5 L3.95 0.3 6.35 0.1 Q8.95 -0.25 9.95 0.75 L12.4 2.4" fill="#c2e0ef" fill-opacity="0.7176471" fill-rule="evenodd" stroke="none"/>
    </g>
    <g id="sprite23" transform="matrix(1.0, 0.0, 0.0, 1.0, 0.0, 0.0)">
      <use height="2.95" transform="matrix(0.9813, 0.0, 0.0, 1.1186, -9.0E-4, 0.0)" width="5.35" xlink:href="#shape24"/>
    </g>
    <g id="shape24" transform="matrix(1.0, 0.0, 0.0, 1.0, -0.05, 0.0)">
      <path d="M5.35 2.55 Q5.5 3.05 5.1 2.95 L3.65 2.15 Q2.7 1.6 2.15 1.5 L1.1 1.55 0.2 1.7 Q0.0 1.7 0.05 1.15 0.1 0.5 0.65 0.2 L1.6 0.05 Q2.85 0.35 4.05 1.15 5.2 1.95 5.35 2.55" fill="#88a6b4" fill-opacity="0.7176471" fill-rule="evenodd" stroke="none"/>
    </g>
    <g id="sprite24" transform="matrix(1.0, 0.0, 0.0, 1.0, 0.0, 0.0)">
      <use height="4.55" transform="matrix(1.0, 0.0, 0.0, 1.0, 0.0, 0.0)" width="10.6" xlink:href="#shape22"/>
    </g>
    <g id="sprite25" transform="matrix(1.0, 0.0, 0.0, 1.0, -0.05, 0.0)">
      <use height="12.4" transform="matrix(1.0, 0.0, 0.0, 1.0, 0.05, 0.0)" width="14.65" xlink:href="#shape25"/>
    </g>
    <g id="shape25" transform="matrix(1.0, 0.0, 0.0, 1.0, -0.05, 0.0)">
      <path d="M12.45 2.4 Q14.55 3.85 14.7 4.6 14.8 4.9 14.3 5.65 L13.15 7.65 12.05 10.2 11.35 11.65 9.95 11.95 7.9 12.15 6.55 12.4 Q5.9 12.4 5.35 12.0 L1.75 9.1 0.55 8.25 Q-0.05 7.8 0.05 7.4 L1.65 3.4 2.2 1.85 2.75 0.5 4.0 0.3 6.35 0.1 Q9.0 -0.25 10.0 0.75 L12.45 2.4" fill="#c2e0ef" fill-opacity="0.7176471" fill-rule="evenodd" stroke="none"/>
    </g>
    <g id="sprite26" transform="matrix(1.0, 0.0, 0.0, 1.0, 0.0, 0.0)">
      <use height="2.95" transform="matrix(0.972, 0.0, 0.0, 1.1186, -0.0014, 0.0)" width="5.35" xlink:href="#shape24"/>
    </g>
    <g id="sprite27" transform="matrix(1.0, 0.0, 0.0, 1.0, 0.05, -0.05)">
      <use height="3.55" transform="matrix(1.0091, 0.0, 0.0, 0.9859, -0.05, 0.05)" width="11.0" xlink:href="#shape26"/>
    </g>
    <g id="shape26" transform="matrix(1.0, 0.0, 0.0, 1.0, 0.0, 0.0)">
      <path d="M1.4 3.05 Q-0.8 3.05 0.5 2.35 L3.35 0.55 Q3.85 0.15 4.65 0.05 L6.6 0.0 9.5 0.25 Q11.15 0.45 11.0 0.75 L9.25 2.2 7.15 3.5 4.9 3.35 1.4 3.05" fill="#000000" fill-opacity="0.7176471" fill-rule="evenodd" stroke="none"/>
    </g>
    <g id="sprite28" transform="matrix(1.0, 0.0, 0.0, 1.0, 0.0, 0.0)">
      <use height="12.2" transform="matrix(1.0, 0.0, 0.0, 1.0, 0.0, 0.0)" width="12.95" xlink:href="#shape27"/>
    </g>
    <g id="shape27" transform="matrix(1.0, 0.0, 0.0, 1.0, 0.0, 0.0)">
      <path d="M12.55 1.2 L12.7 2.35 12.6 4.6 12.8 7.4 12.95 9.0 11.85 10.0 10.15 11.1 9.05 11.95 7.8 12.2 3.3 11.35 1.8 11.2 0.95 10.7 0.5 6.4 Q-0.15 3.9 0.05 3.35 0.1 3.15 1.05 2.55 L3.05 1.25 Q5.15 -0.3 6.55 0.05 L9.5 0.35 Q12.05 0.65 12.55 1.2" fill="#c2e0ef" fill-opacity="0.7176471" fill-rule="evenodd" stroke="none"/>
    </g>
    <g id="sprite29" transform="matrix(1.0, 0.0, 0.0, 1.0, 0.0, 0.05)">
      <use height="2.25" transform="matrix(1.0, 0.0, 0.0, 1.0, 0.0, -0.05)" width="5.6" xlink:href="#shape28"/>
    </g>
    <g id="shape28" transform="matrix(1.0, 0.0, 0.0, 1.0, 0.0, 0.0)">
      <path d="M5.45 0.8 Q5.8 1.2 5.4 1.25 L3.75 1.2 2.15 1.25 1.2 1.7 0.5 2.2 Q0.3 2.35 0.1 1.8 -0.1 1.2 0.2 0.7 0.5 0.2 1.05 0.1 L3.7 0.15 Q5.1 0.35 5.45 0.8" fill="#88a6b4" fill-opacity="0.7176471" fill-rule="evenodd" stroke="none"/>
    </g>
    <g id="sprite30" transform="matrix(1.0, 0.0, 0.0, 1.0, 0.0, 0.0)">
      <use height="3.55" transform="matrix(1.0, 0.0, 0.0, 1.0, 0.0, 0.0)" width="11.0" xlink:href="#shape26"/>
    </g>
    <g id="sprite31" transform="matrix(1.0, 0.0, 0.0, 1.0, 0.05, 0.0)">
      <use height="12.15" transform="matrix(1.0038, 0.0, 0.0, 1.0, -0.05, 0.0)" width="13.1" xlink:href="#shape29"/>
    </g>
    <g id="shape29" transform="matrix(1.0, 0.0, 0.0, 1.0, 0.0, 0.0)">
      <path d="M12.45 1.05 Q12.7 1.25 12.65 2.15 L12.65 4.45 12.95 7.2 13.1 8.8 12.05 9.8 10.4 11.0 9.3 11.85 8.05 12.15 3.5 11.4 2.05 11.35 Q1.35 11.25 1.2 10.85 L0.6 6.55 Q-0.1 4.05 0.05 3.5 0.1 3.35 1.05 2.7 L3.0 1.3 Q5.05 -0.3 6.45 0.05 L9.4 0.3 Q11.95 0.5 12.45 1.05" fill="#c2e0ef" fill-opacity="0.7176471" fill-rule="evenodd" stroke="none"/>
    </g>
    <g id="sprite32" transform="matrix(1.0, 0.0, 0.0, 1.0, 0.0, -0.05)">
      <use height="2.25" transform="matrix(1.0, 0.0, 0.0, 1.0, 0.0, 0.05)" width="5.6" xlink:href="#shape28"/>
    </g>
    <g id="sprite33" transform="matrix(1.0, 0.0, 0.0, 1.0, 0.0, 0.0)">
      <use height="3.55" transform="matrix(1.0, 0.0, 0.0, 1.0, 0.0, 0.0)" width="11.0" xlink:href="#shape26"/>
    </g>
    <g id="sprite34" transform="matrix(1.0, 0.0, 0.0, 1.0, 0.0, 0.0)">
      <use height="12.15" transform="matrix(1.0, 0.0, 0.0, 1.0, 0.0, 0.0)" width="13.1" xlink:href="#shape29"/>
    </g>
    <g id="sprite35" transform="matrix(1.0, 0.0, 0.0, 1.0, 0.0, 0.0)">
      <use height="2.25" transform="matrix(1.0, 0.0, 0.0, 1.0, 0.0, 0.0)" width="5.6" xlink:href="#shape28"/>
    </g>
    <g id="sprite36" transform="matrix(1.0, 0.0, 0.0, 1.0, 0.0, 0.0)">
      <use height="3.6" transform="matrix(1.0045, 0.0, 0.0, 1.0, 0.0, 0.0)" width="11.1" xlink:href="#shape16"/>
    </g>
    <g id="sprite37" transform="matrix(1.0, 0.0, 0.0, 1.0, -0.05, 0.0)">
      <use height="12.25" transform="matrix(1.0, 0.0, 0.0, 1.0, 0.05, 0.0)" width="12.8" xlink:href="#shape30"/>
    </g>
    <g id="shape30" transform="matrix(1.0, 0.0, 0.0, 1.0, -0.05, 0.0)">
      <path d="M12.8 3.2 Q13.0 3.75 12.4 6.3 L12.05 10.55 11.25 11.1 9.75 11.3 5.25 12.25 4.0 12.05 2.9 11.2 Q0.15 9.65 0.05 9.2 L0.15 7.6 0.3 4.8 0.15 2.5 Q0.05 1.65 0.25 1.4 0.75 0.8 3.3 0.45 L6.2 0.1 Q7.5 -0.3 9.75 1.15 L11.75 2.4 12.8 3.2" fill="#c2e0ef" fill-opacity="0.7176471" fill-rule="evenodd" stroke="none"/>
    </g>
    <g id="sprite38" transform="matrix(1.0, 0.0, 0.0, 1.0, 0.0, 0.0)">
      <use height="2.15" transform="matrix(0.9911, 0.0, 0.0, 1.0, 0.0, 0.0)" width="5.65" xlink:href="#shape18"/>
    </g>
    <g id="sprite39" transform="matrix(1.0, 0.0, 0.0, 1.0, 0.0, -0.05)">
      <use height="3.6" transform="matrix(1.1036, 0.0, 0.0, 1.0972, 0.0, 0.0549)" width="11.1" xlink:href="#shape16"/>
    </g>
    <g id="sprite40" transform="matrix(1.0, 0.0, 0.0, 1.0, 0.0, 0.0)">
      <use height="13.45" transform="matrix(1.0, 0.0, 0.0, 1.0, 0.0, 0.0)" width="14.1" xlink:href="#shape31"/>
    </g>
    <g id="shape31" transform="matrix(1.0, 0.0, 0.0, 1.0, 0.0, 0.0)">
      <path d="M14.05 3.5 Q14.25 4.1 13.65 6.9 L13.5 9.3 13.25 11.6 12.35 12.2 10.7 12.4 5.8 13.45 4.4 13.2 3.15 12.3 1.3 11.1 0.0 10.1 0.15 8.3 0.3 5.25 0.15 2.75 Q0.05 1.8 0.25 1.55 0.8 0.9 3.6 0.5 L6.8 0.1 Q8.25 -0.4 10.7 1.25 L12.9 2.65 Q14.0 3.3 14.05 3.5" fill="#c2e0ef" fill-opacity="0.7176471" fill-rule="evenodd" stroke="none"/>
    </g>
    <g id="sprite41" transform="matrix(1.0, 0.0, 0.0, 1.0, 0.0, 0.0)">
      <use height="2.15" transform="matrix(1.0974, 0.0, 0.0, 1.1163, 0.0, 0.0058)" width="5.65" xlink:href="#shape18"/>
    </g>
    <g id="sprite42" transform="matrix(1.0, 0.0, 0.0, 1.0, 0.0, -0.05)">
      <use height="3.6" transform="matrix(1.0, 0.0, 0.0, 1.0, 0.0, 0.05)" width="11.1" xlink:href="#shape16"/>
    </g>
    <g id="sprite43" transform="matrix(1.0, 0.0, 0.0, 1.0, 0.0, 0.0)">
      <use height="12.25" transform="matrix(1.0, 0.0, 0.0, 1.0, 0.0, 0.0)" width="12.8" xlink:href="#shape17"/>
    </g>
    <g id="sprite44" transform="matrix(1.0, 0.0, 0.0, 1.0, 0.0, -0.05)">
      <use height="2.15" transform="matrix(1.0, 0.0, 0.0, 1.0, 0.0, 0.05)" width="5.65" xlink:href="#shape18"/>
    </g>
    <g id="sprite45" transform="matrix(1.0, 0.0, 0.0, 1.0, 0.05, 0.0)">
      <use height="4.35" transform="matrix(1.0, 0.0, 0.0, 1.0, -0.05, 0.0)" width="10.9" xlink:href="#shape32"/>
    </g>
    <g id="shape32" transform="matrix(1.0, 0.0, 0.0, 1.0, 0.0, 0.0)">
      <path d="M1.2 1.45 Q-0.9 0.5 0.65 0.45 L4.0 0.05 5.4 0.2 7.2 1.0 Q8.45 1.55 9.7 2.4 11.15 3.3 10.85 3.5 L8.65 4.05 6.2 4.35 Q5.8 4.35 4.2 3.25 2.2 1.9 1.2 1.45" fill="#000000" fill-opacity="0.7176471" fill-rule="evenodd" stroke="none"/>
    </g>
    <g id="sprite46" transform="matrix(1.0, 0.0, 0.0, 1.0, 0.0, 0.0)">
      <use height="12.45" transform="matrix(1.0, 0.0, 0.0, 1.0, 0.0, 0.0)" width="14.4" xlink:href="#shape33"/>
    </g>
    <g id="shape33" transform="matrix(1.0, 0.0, 0.0, 1.0, 0.0, 0.0)">
      <path d="M11.95 2.0 Q14.15 3.35 14.4 4.05 L14.1 5.15 13.1 7.15 12.15 9.8 11.65 11.35 10.25 11.75 8.25 12.1 6.9 12.45 5.65 12.15 Q2.75 10.1 1.85 9.6 L0.55 8.85 Q-0.05 8.45 0.0 8.05 L1.3 3.95 Q1.75 1.35 2.1 0.95 2.2 0.8 3.35 0.6 L5.7 0.2 Q8.3 -0.35 9.4 0.55 L11.95 2.0" fill="#c2e0ef" fill-opacity="0.7176471" fill-rule="evenodd" stroke="none"/>
    </g>
    <g id="sprite47" transform="matrix(1.0, 0.0, 0.0, 1.0, 0.0, 0.0)">
      <use height="2.95" transform="matrix(1.0, 0.0, 0.0, 1.0, 0.0, 0.0)" width="5.35" xlink:href="#shape24"/>
    </g>
    <g id="sprite48" transform="matrix(1.0, 0.0, 0.0, 1.0, 0.0, 0.0)">
      <use height="4.35" transform="matrix(0.9954, 0.0, 0.0, 1.0, 0.0, 0.0)" width="10.9" xlink:href="#shape32"/>
    </g>
    <g id="sprite49" transform="matrix(1.0, 0.0, 0.0, 1.0, 0.0, 0.0)">
      <use height="12.45" transform="matrix(1.0, 0.0, 0.0, 1.0, 0.0, 0.0)" width="14.4" xlink:href="#shape34"/>
    </g>
    <g id="shape34" transform="matrix(1.0, 0.0, 0.0, 1.0, 0.0, 0.0)">
      <path d="M11.95 2.0 Q14.15 3.3 14.4 4.0 L14.1 5.1 13.05 7.15 12.15 9.8 11.65 11.35 10.25 11.75 8.25 12.1 6.9 12.45 5.65 12.15 1.85 9.55 0.55 8.85 Q-0.05 8.45 0.0 8.05 L1.3 3.95 Q1.75 1.35 2.1 0.95 2.2 0.8 3.35 0.6 L5.7 0.2 Q8.3 -0.35 9.35 0.55 L11.95 2.0" fill="#c2e0ef" fill-opacity="0.7176471" fill-rule="evenodd" stroke="none"/>
    </g>
    <g id="sprite50" transform="matrix(1.0, 0.0, 0.0, 1.0, 0.0, 0.0)">
      <use height="2.95" transform="matrix(1.0, 0.0, 0.0, 1.0, 0.0, 0.0)" width="5.35" xlink:href="#shape24"/>
    </g>
    <g id="sprite51" transform="matrix(1.0, 0.0, 0.0, 1.0, 0.0, 0.0)">
      <use height="4.35" transform="matrix(1.0, 0.0, 0.0, 1.0, 0.0, 0.0)" width="10.5" xlink:href="#shape35"/>
    </g>
    <g id="shape35" transform="matrix(1.0, 0.0, 0.0, 1.0, 0.0, 0.0)">
      <path d="M1.45 4.2 Q-0.8 4.65 0.45 3.7 L2.95 1.4 Q3.35 0.95 4.15 0.7 L6.05 0.35 8.95 0.0 Q10.6 -0.05 10.5 0.25 L9.05 2.0 7.2 3.65 4.95 3.95 1.45 4.2" fill="#000000" fill-opacity="0.7176471" fill-rule="evenodd" stroke="none"/>
    </g>
    <g id="sprite52" transform="matrix(1.0, 0.0, 0.0, 1.0, 0.0, 0.0)">
      <use height="12.25" transform="matrix(1.0, 0.0, 0.0, 1.0, 0.0, 0.0)" width="13.8" xlink:href="#shape36"/>
    </g>
    <g id="shape36" transform="matrix(1.0, 0.0, 0.0, 1.0, 0.0, 0.0)">
      <path d="M11.85 0.3 L12.25 1.4 12.6 3.65 13.35 6.3 13.8 7.85 11.5 10.45 10.6 11.5 Q10.1 11.95 9.4 12.0 L4.8 12.1 3.3 12.25 Q2.6 12.3 2.4 11.9 L1.1 7.8 Q-0.05 5.45 0.0 4.9 L0.85 3.9 2.55 2.25 Q4.35 0.25 5.75 0.4 L8.65 0.1 11.85 0.3" fill="#c2e0ef" fill-opacity="0.7176471" fill-rule="evenodd" stroke="none"/>
    </g>
    <g id="sprite53" transform="matrix(1.0, 0.0, 0.0, 1.0, 0.0, 0.05)">
      <use height="2.75" transform="matrix(1.0, 0.0, 0.0, 1.0, 0.0, -0.05)" width="5.5" xlink:href="#shape37"/>
    </g>
    <g id="shape37" transform="matrix(1.0, 0.0, 0.0, 1.0, 0.0, 0.05)">
      <path d="M5.25 0.35 Q5.7 0.65 5.3 0.8 L3.65 1.0 2.05 1.35 1.2 2.0 0.6 2.65 Q0.45 2.8 0.15 2.3 -0.15 1.75 0.1 1.15 0.3 0.65 0.8 0.45 L3.4 -0.05 Q4.8 -0.05 5.25 0.35" fill="#88a6b4" fill-opacity="0.7176471" fill-rule="evenodd" stroke="none"/>
    </g>
    <g id="sprite54" transform="matrix(1.0, 0.0, 0.0, 1.0, 0.0, 0.0)">
      <use height="4.35" transform="matrix(1.0, 0.0, 0.0, 1.0, 0.0, 0.0)" width="10.9" xlink:href="#shape32"/>
    </g>
    <g id="sprite55" transform="matrix(1.0, 0.0, 0.0, 1.0, 0.0, 0.0)">
      <use height="12.45" transform="matrix(1.0, 0.0, 0.0, 1.0, 0.0, 0.0)" width="14.4" xlink:href="#shape34"/>
    </g>
    <g id="sprite56" transform="matrix(1.0, 0.0, 0.0, 1.0, -0.05, 0.0)">
      <use height="2.95" transform="matrix(1.0, 0.0, 0.0, 1.0, 0.05, 0.0)" width="5.35" xlink:href="#shape24"/>
    </g>
    <g id="sprite57" transform="matrix(1.0, 0.0, 0.0, 1.0, 0.0, 0.0)">
      <use height="4.35" transform="matrix(1.0, 0.0, 0.0, 1.0, 0.0, 0.0)" width="10.9" xlink:href="#shape32"/>
    </g>
    <g id="sprite58" transform="matrix(1.0, 0.0, 0.0, 1.0, 0.0, 0.05)">
      <use height="12.45" transform="matrix(1.0, 0.0, 0.0, 1.0, 0.0, -0.05)" width="14.4" xlink:href="#shape38"/>
    </g>
    <g id="shape38" transform="matrix(1.0, 0.0, 0.0, 1.0, 0.0, 0.05)">
      <path d="M11.95 1.95 Q14.15 3.25 14.4 4.0 L14.1 5.1 Q13.2 6.75 13.05 7.15 L12.15 9.75 11.65 11.3 10.25 11.7 8.25 12.1 6.9 12.4 5.65 12.1 Q2.75 10.05 1.85 9.55 L0.55 8.8 Q-0.05 8.4 0.0 8.0 L1.3 3.9 1.65 2.25 Q1.85 1.15 2.1 0.9 L3.35 0.6 5.7 0.2 Q8.2 -0.4 9.35 0.5 L11.95 1.95" fill="#c2e0ef" fill-opacity="0.7176471" fill-rule="evenodd" stroke="none"/>
    </g>
    <g id="sprite59" transform="matrix(1.0, 0.0, 0.0, 1.0, -0.05, 0.0)">
      <use height="2.95" transform="matrix(1.0, 0.0, 0.0, 1.0, 0.05, 0.0)" width="5.35" xlink:href="#shape24"/>
    </g>
    <g id="sprite60" transform="matrix(1.0, 0.0, 0.0, 1.0, 0.05, 0.0)">
      <use height="5.15" transform="matrix(1.0, 0.0, 0.0, 1.0, -0.05, 0.0)" width="5.05" xlink:href="#shape39"/>
    </g>
    <g id="shape39" transform="matrix(1.0, 0.0, 0.0, 1.0, 0.05, 0.0)">
      <path d="M4.5 0.0 L5.0 0.85 4.2 1.75 3.35 2.55 Q2.35 3.65 2.15 5.15 1.8 5.25 1.2 4.35 0.6 3.45 0.0 3.5 -0.25 2.05 1.15 1.05 L2.45 0.35 3.5 0.25 4.5 0.0" fill="#4f6f7c" fill-opacity="0.7176471" fill-rule="evenodd" stroke="none"/>
    </g>
    <g id="sprite61" transform="matrix(1.0, 0.0, 0.0, 1.0, -0.05, 0.0)">
      <use height="6.15" transform="matrix(1.0, 0.0, 0.0, 1.0, 0.05, 0.0)" width="5.15" xlink:href="#shape40"/>
    </g>
    <g id="shape40" transform="matrix(1.0, 0.0, 0.0, 1.0, -0.05, 0.0)">
      <path d="M4.55 2.4 Q3.8 3.4 3.7 2.35 L2.9 4.2 2.7 4.95 2.35 5.65 Q1.75 6.35 0.05 6.1 -0.05 4.9 0.4 4.3 0.8 3.75 1.1 3.85 L1.85 3.95 Q2.5 3.85 2.75 2.95 L2.85 1.5 1.55 1.45 Q1.9 0.55 3.0 0.15 L4.85 0.3 5.2 0.8 Q5.3 1.4 4.55 2.4" fill="#4f6f7c" fill-opacity="0.7176471" fill-rule="evenodd" stroke="none"/>
    </g>
    <g id="sprite62" transform="matrix(1.0, 0.0, 0.0, 1.0, 0.0, -0.05)">
      <use height="4.8" transform="matrix(1.0, 0.0, 0.0, 1.0, 0.0, 0.05)" width="2.95" xlink:href="#shape41"/>
    </g>
    <g id="shape41" transform="matrix(1.0, 0.0, 0.0, 1.0, 0.0, -0.05)">
      <path d="M1.9 0.65 Q1.6 1.0 1.6 1.4 L1.55 2.2 1.2 3.9 Q0.75 5.05 0.05 4.8 -0.1 3.4 0.25 1.7 L0.5 0.95 1.05 0.5 Q1.95 0.1 2.95 0.05 2.3 0.15 1.9 0.65" fill="#4f6f7c" fill-opacity="0.7176471" fill-rule="evenodd" stroke="none"/>
    </g>
    <g id="sprite63" transform="matrix(1.0, 0.0, 0.0, 1.0, -0.05, 0.0)">
      <use height="5.7" transform="matrix(1.0, 0.0, 0.0, 1.0, 0.05, 0.0)" width="4.3" xlink:href="#shape42"/>
    </g>
    <g id="shape42" transform="matrix(1.0, 0.0, 0.0, 1.0, -0.05, 0.0)">
      <path d="M4.2 0.0 L4.35 0.65 Q4.05 1.2 3.8 3.0 3.6 4.65 3.0 5.3 2.45 5.9 0.05 5.6 -0.05 5.2 0.65 4.85 L1.7 4.3 Q2.85 3.4 2.55 2.45 L2.1 2.1 1.7 1.75 Q1.55 1.35 2.4 0.65 3.25 0.0 4.2 0.0" fill="#4f6f7c" fill-opacity="0.7176471" fill-rule="evenodd" stroke="none"/>
    </g>
    <g id="sprite64" transform="matrix(1.0, 0.0, 0.0, 1.0, 0.0, 0.0)">
      <use height="6.3" transform="matrix(1.0, 0.0, 0.0, 1.0, 0.0, 0.0)" width="6.55" xlink:href="#shape43"/>
    </g>
    <g id="shape43" transform="matrix(1.0, 0.0, 0.0, 1.0, 0.0, 0.0)">
      <path d="M6.05 0.1 L6.55 0.9 6.45 3.35 Q6.3 4.75 5.7 5.6 5.25 6.2 4.5 6.25 3.1 6.4 2.7 5.9 L3.45 5.55 4.05 5.1 4.05 4.3 3.7 3.65 Q3.15 3.3 2.1 4.45 0.95 5.65 0.2 5.4 0.15 4.95 0.75 4.6 L1.55 4.05 1.65 2.75 0.0 2.6 Q0.15 1.95 1.5 1.7 3.0 1.4 3.35 0.9 L3.7 0.35 Q3.85 0.15 4.2 0.05 L6.05 0.1" fill="#4f6f7c" fill-opacity="0.7176471" fill-rule="evenodd" stroke="none"/>
    </g>
    <g id="sprite65" transform="matrix(1.0, 0.0, 0.0, 1.0, 0.0, 0.0)">
      <use height="8.15" transform="matrix(1.0, 0.0, 0.0, 1.0, 0.0, 0.0)" width="6.7" xlink:href="#shape44"/>
    </g>
    <g id="shape44" transform="matrix(1.0, 0.0, 0.0, 1.0, 0.0, 0.0)">
      <path d="M5.7 0.0 L6.7 0.85 6.7 3.85 6.55 5.45 5.7 5.35 5.75 6.55 5.55 7.7 2.15 8.0 Q2.2 7.85 3.1 7.45 3.7 7.15 3.3 6.7 L2.6 6.5 Q2.15 6.4 2.35 5.85 L3.15 6.2 3.9 6.1 4.05 5.3 4.0 4.35 Q4.0 2.75 2.85 2.5 L1.45 2.5 0.0 2.5 Q0.05 1.15 2.4 0.5 L5.7 0.0" fill="#4f6f7c" fill-opacity="0.7176471" fill-rule="evenodd" stroke="none"/>
    </g>
    <g id="sprite66" transform="matrix(1.0, 0.0, 0.0, 1.0, 0.0, 0.0)">
      <use height="7.15" transform="matrix(1.0, 0.0, 0.0, 1.0, 0.0, 0.0)" width="3.25" xlink:href="#shape45"/>
    </g>
    <g id="shape45" transform="matrix(1.0, 0.0, 0.0, 1.0, 0.0, 0.0)">
      <path d="M2.9 0.0 L3.25 0.5 2.9 4.65 Q2.25 7.8 0.55 6.95 -0.45 6.45 0.45 2.5 0.65 1.65 1.35 0.9 2.15 0.0 2.9 0.0" fill="#4f6f7c" fill-opacity="0.7176471" fill-rule="evenodd" stroke="none"/>
    </g>
    <g id="sprite67" transform="matrix(1.0, 0.0, 0.0, 1.0, 0.0, 0.05)">
      <use height="4.7" transform="matrix(1.0, 0.0, 0.0, 1.0, 0.0, -0.05)" width="6.7" xlink:href="#shape46"/>
    </g>
    <g id="shape46" transform="matrix(1.0, 0.0, 0.0, 1.0, 0.0, 0.05)">
      <path d="M6.7 0.2 L6.7 1.2 6.3 1.9 5.7 2.7 2.7 4.65 Q2.45 4.4 2.65 3.6 L2.85 2.35 0.05 2.5 Q-0.15 1.7 0.45 1.0 1.0 0.3 1.8 0.2 L5.1 0.0 5.95 -0.05 6.7 0.2" fill="#4f6f7c" fill-opacity="0.7176471" fill-rule="evenodd" stroke="none"/>
    </g>
    <g id="sprite68" transform="matrix(1.0, 0.0, 0.0, 1.0, 0.0, 0.0)">
      <use height="6.9" transform="matrix(1.0, 0.0, 0.0, 1.0, 0.0, 0.0)" width="4.65" xlink:href="#shape47"/>
    </g>
    <g id="shape47" transform="matrix(1.0, 0.0, 0.0, 1.0, 0.0, 0.0)">
      <path d="M4.65 0.05 L4.65 1.2 4.45 1.9 4.3 2.7 3.45 4.7 2.3 6.15 Q1.45 7.2 0.0 6.8 0.05 6.0 1.05 5.35 L2.5 4.25 Q2.75 3.85 2.65 3.05 L1.5 3.1 0.3 3.15 0.45 1.65 Q0.7 0.75 1.3 0.4 1.85 0.1 2.95 0.05 L4.65 0.05" fill="#4f6f7c" fill-opacity="0.7176471" fill-rule="evenodd" stroke="none"/>
    </g>
    <g id="sprite69" transform="matrix(1.0, 0.0, 0.0, 1.0, 0.0, 0.0)">
      <use height="8.0" transform="matrix(1.0, 0.0, 0.0, 1.0, 0.0, 0.0)" width="4.0" xlink:href="#shape48"/>
    </g>
    <g id="shape48" transform="matrix(1.0, 0.0, 0.0, 1.0, 0.0, 0.0)">
      <path d="M0.75 0.0 L2.4 2.5 Q2.35 2.95 2.95 3.65 L3.75 4.8 3.95 5.95 Q4.25 8.25 2.85 8.0 2.25 7.85 2.1 6.85 L1.8 5.2 1.1 4.5 0.1 4.45 Q-0.1 3.5 0.2 2.2 L0.75 0.0" fill="#4f6f7c" fill-opacity="0.7176471" fill-rule="evenodd" stroke="none"/>
    </g>
    <g id="sprite70" transform="matrix(1.0, 0.0, 0.0, 1.0, 0.0, 0.0)">
      <use height="7.2" transform="matrix(1.0, 0.0, 0.0, 1.0, 0.0, 0.0)" width="3.2" xlink:href="#shape49"/>
    </g>
    <g id="shape49" transform="matrix(1.0, 0.0, 0.0, 1.0, 0.0, 0.0)">
      <path d="M1.65 0.15 L2.15 0.0 Q3.15 2.25 3.15 4.15 L3.2 5.25 3.15 6.35 Q2.95 7.35 1.15 7.15 1.05 6.65 1.4 5.8 L1.65 4.5 Q1.55 3.6 1.1 3.6 L0.0 3.6 Q0.15 1.95 1.65 0.15" fill="#4f6f7c" fill-opacity="0.7176471" fill-rule="evenodd" stroke="none"/>
    </g>
    <g id="sprite71" transform="matrix(1.0, 0.0, 0.0, 1.0, -0.05, 0.0)">
      <use height="7.0" transform="matrix(1.0, 0.0, 0.0, 1.0, 0.05, 0.0)" width="5.65" xlink:href="#shape50"/>
    </g>
    <g id="shape50" transform="matrix(1.0, 0.0, 0.0, 1.0, -0.05, 0.0)">
      <path d="M5.2 0.2 L5.7 1.85 Q5.45 2.45 5.6 3.8 5.75 5.1 5.55 5.7 5.2 6.55 3.55 6.8 L0.55 6.85 Q0.05 6.7 0.05 6.15 0.0 5.55 0.4 5.25 L0.7 5.8 1.15 6.2 2.0 6.2 2.85 5.95 Q3.35 5.65 3.2 5.15 3.05 4.6 2.4 4.65 L2.4 3.85 Q4.4 4.0 4.2 1.35 L2.25 1.3 Q2.35 0.7 3.55 0.25 L5.2 0.2" fill="#4f6f7c" fill-opacity="0.7176471" fill-rule="evenodd" stroke="none"/>
    </g>
    <g id="sprite72" transform="matrix(1.0, 0.0, 0.0, 1.0, 11.05, 3.8)">
      <use height="47.95" transform="matrix(1.0, 0.0, 0.0, 1.0, -11.05, -3.8)" width="58.55" xlink:href="#shape51"/>
    </g>
    <g id="shape51" transform="matrix(1.0, 0.0, 0.0, 1.0, 11.05, 3.8)">
      <path d="M20.85 26.4 Q21.5 27.3 21.4 27.6 L20.3 29.75 20.8 27.6 20.55 26.45 20.0 25.6 19.65 24.75 Q19.6 24.45 19.9 25.0 L20.85 26.4" fill="#f8f2f5" fill-rule="evenodd" stroke="none"/>
      <path d="M36.85 25.45 L36.55 29.0 36.5 29.8 Q36.55 27.25 36.0 26.45 35.6 25.85 34.75 25.75 L32.35 25.9 29.95 26.25 Q29.05 26.4 28.8 26.7 28.55 27.0 28.35 28.55 L28.15 31.0 27.8 33.8 Q27.6 28.95 27.25 27.55 L26.85 26.05 25.7 24.9 23.75 23.55 25.15 24.2 27.95 25.05 Q29.4 25.35 32.9 25.1 34.2 25.0 34.4 24.7 34.65 24.35 33.55 23.55 32.05 22.45 30.6 22.1 L29.45 21.95 30.05 21.8 31.15 21.75 34.15 23.3 35.9 24.3 Q36.9 25.05 36.85 25.45" fill="#f8f2f5" fill-rule="evenodd" stroke="none"/>
      <path d="M36.4 31.45 L36.2 33.25 36.1 33.4 Q35.7 33.0 35.7 32.6 L36.0 32.1 36.4 31.45" fill="#f8f2f5" fill-rule="evenodd" stroke="none"/>
      <path d="M10.5 12.95 Q9.9 13.4 9.85 13.95 9.8 14.75 10.8 16.55 L10.5 16.05 8.8 13.6 Q8.5 13.05 9.9 10.9 L11.45 8.5 Q11.85 8.1 12.8 8.0 L12.05 8.55 Q11.15 9.35 10.45 10.85 9.55 12.75 11.55 11.7 14.1 10.55 15.2 9.65 L17.65 6.8 16.75 8.6 Q16.35 9.35 16.4 9.9 L16.7 11.2 Q17.0 12.35 18.85 16.0 L17.45 14.05 16.35 12.35 15.25 11.2 Q14.8 11.05 12.3 12.1 10.95 12.65 10.5 12.95" fill="#f8f2f5" fill-rule="evenodd" stroke="none"/>
      <path d="M11.6 17.8 L12.2 18.15 12.6 18.35 12.65 19.15 12.5 19.05 11.6 17.8" fill="#f8f2f5" fill-rule="evenodd" stroke="none"/>
      <path d="M40.15 6.25 Q39.0 6.4 39.05 6.75 L40.0 7.65 Q42.75 9.2 43.75 9.5 L47.5 9.95 45.5 10.25 Q44.65 10.3 44.2 10.65 L43.35 11.65 41.65 14.2 40.5 16.1 41.35 13.85 42.15 11.95 42.5 10.4 41.8 9.65 40.15 8.45 38.4 7.45 Q37.7 7.15 37.2 7.45 36.75 7.7 36.05 8.8 L35.5 9.8 35.8 9.15 36.9 6.4 Q37.2 5.8 39.75 5.8 L42.65 5.8 Q43.15 5.85 43.8 6.6 L42.9 6.25 Q41.7 6.0 40.15 6.25" fill="#f8f2f5" fill-rule="evenodd" stroke="none"/>
      <path d="M34.45 12.45 L35.0 11.1 35.05 11.7 35.05 12.2 34.45 12.65 34.45 12.45" fill="#f8f2f5" fill-rule="evenodd" stroke="none"/>
      <path d="M45.7 14.4 L46.2 13.65 46.15 13.95 Q45.3 16.55 44.75 16.7 L42.35 16.95 44.45 16.15 45.25 15.35 45.7 14.4" fill="#f8f2f5" fill-rule="evenodd" stroke="none"/>
      <path d="M35.3 0.35 L33.3 0.65 Q32.5 0.7 32.05 1.05 L31.15 2.05 29.45 4.6 28.35 6.5 29.2 4.25 Q30.5 1.35 30.3 0.8 L29.65 0.05 27.95 -1.15 26.2 -2.15 Q25.55 -2.45 25.05 -2.15 L23.9 -0.8 23.35 0.2 23.65 -0.45 24.75 -3.2 Q25.05 -3.8 27.6 -3.8 L30.45 -3.8 Q31.0 -3.75 31.65 -3.0 L30.75 -3.35 Q29.55 -3.6 27.95 -3.35 26.85 -3.2 26.9 -2.85 26.95 -2.55 27.85 -1.95 30.4 -0.45 31.6 -0.1 L35.3 0.35" fill="#f8f2f5" fill-rule="evenodd" stroke="none"/>
      <path d="M23.85 0.8 L24.4 -0.55 Q24.3 -0.3 24.45 0.05 L24.45 0.55 23.8 1.0 23.85 0.8" fill="#f8f2f5" fill-rule="evenodd" stroke="none"/>
      <path d="M33.8 3.95 L34.35 3.2 34.25 3.5 33.65 5.1 Q33.25 6.15 32.9 6.25 L30.5 6.5 32.6 5.7 33.4 4.9 33.8 3.95" fill="#f8f2f5" fill-rule="evenodd" stroke="none"/>
      <path d="M25.0 29.1 L24.1 29.2 Q22.9 29.5 21.65 30.5 20.7 31.2 20.95 31.5 21.1 31.75 22.2 31.8 L26.35 31.65 Q27.9 31.35 29.85 30.25 L28.25 31.5 Q27.55 31.95 27.35 32.45 L27.0 33.75 Q26.75 34.9 26.65 39.0 26.35 37.65 26.35 36.65 L26.1 34.6 25.7 33.05 22.7 32.45 20.65 32.4 Q19.9 32.5 19.6 33.0 19.35 33.45 19.3 34.7 L19.25 35.6 19.25 35.15 18.85 32.2 Q18.85 31.5 21.1 30.3 L23.6 28.9 25.0 29.1" fill="#f8f2f5" fill-rule="evenodd" stroke="none"/>
      <path d="M19.4 37.2 L19.75 37.75 20.0 38.15 19.65 38.85 19.6 38.7 19.4 37.2" fill="#f8f2f5" fill-rule="evenodd" stroke="none"/>
      <path d="M30.4 35.05 L30.5 34.15 30.6 34.45 30.8 36.15 Q30.95 37.25 30.7 37.5 L28.7 38.85 30.15 37.2 Q30.5 36.75 30.45 36.05 L30.4 35.05" fill="#f8f2f5" fill-rule="evenodd" stroke="none"/>
      <path d="M7.1 17.0 L6.2 17.15 Q5.1 17.45 3.75 18.5 2.85 19.25 3.1 19.55 L4.35 19.8 6.35 19.8 8.5 19.5 Q10.05 19.15 12.0 18.05 L10.4 19.3 9.5 20.3 9.25 21.55 Q9.0 22.75 9.05 26.8 8.7 25.5 8.65 24.5 8.35 21.4 7.9 20.9 7.6 20.6 4.85 20.45 L2.85 20.45 Q2.15 20.55 1.85 21.05 1.55 21.5 1.55 22.75 L1.55 23.7 1.5 23.2 1.05 20.25 Q1.0 19.9 1.85 19.25 2.5 18.75 3.2 18.35 L5.7 16.85 7.1 17.0" fill="#f8f2f5" fill-rule="evenodd" stroke="none"/>
      <path d="M1.75 25.25 L2.1 25.8 2.35 26.2 2.05 26.9 2.0 26.75 1.75 25.25" fill="#f8f2f5" fill-rule="evenodd" stroke="none"/>
      <path d="M23.6 15.35 Q22.0 16.6 24.2 16.6 L28.35 16.35 Q29.9 16.0 31.8 14.85 L30.2 16.1 Q29.5 16.6 29.35 17.1 L29.05 18.4 Q28.8 19.55 28.85 23.65 L28.45 21.3 28.2 19.3 Q27.95 18.0 27.7 17.75 27.5 17.5 26.75 17.45 L24.7 17.25 22.65 17.25 Q21.95 17.35 21.65 17.85 21.4 18.3 21.35 19.6 L21.35 20.05 20.9 17.1 Q20.85 16.5 23.05 15.15 L25.5 13.7 26.95 13.8 26.0 14.0 Q25.05 14.2 23.6 15.35" fill="#f8f2f5" fill-rule="evenodd" stroke="none"/>
      <path d="M21.55 22.1 L21.95 22.65 22.2 23.05 21.9 23.75 21.8 23.6 21.55 22.1" fill="#f8f2f5" fill-rule="evenodd" stroke="none"/>
      <path d="M36.9 17.2 L37.4 17.05 38.3 17.0 40.85 18.35 42.3 19.2 43.15 20.15 42.85 23.15 42.85 23.5 Q42.8 21.6 42.4 21.0 42.1 20.5 41.35 20.4 L39.3 20.55 37.3 20.85 Q36.55 20.95 36.35 21.2 L35.95 22.75 35.8 24.8 35.5 27.15 Q35.35 23.05 35.05 21.9 L34.7 20.65 33.75 19.7 32.1 18.55 33.25 19.1 35.6 19.8 Q37.0 20.05 39.8 19.85 L41.05 19.5 Q41.25 19.2 40.35 18.55 38.95 17.55 37.85 17.35 L36.9 17.2" fill="#f8f2f5" fill-rule="evenodd" stroke="none"/>
      <path d="M42.7 25.2 L42.55 26.7 42.5 26.85 Q42.15 26.5 42.15 26.15 L42.4 25.75 42.7 25.2" fill="#f8f2f5" fill-rule="evenodd" stroke="none"/>
      <path d="M20.7 23.5 Q19.05 22.35 17.95 22.15 L16.95 22.0 17.5 21.85 18.5 21.8 Q19.05 21.95 21.3 23.25 L22.85 24.2 Q23.8 24.85 23.8 25.25 L23.45 28.5 Q23.4 26.75 23.0 26.15 22.6 25.6 21.85 25.55 L19.6 25.65 17.35 26.0 Q16.55 26.15 16.3 26.4 L15.9 28.1 15.7 30.35 15.4 32.95 14.9 27.15 14.5 25.75 13.45 24.75 11.65 23.45 12.95 24.05 Q14.45 24.65 15.55 24.85 16.9 25.15 20.1 24.9 21.3 24.8 21.5 24.55 21.75 24.25 20.7 23.5" fill="#f8f2f5" fill-rule="evenodd" stroke="none"/>
      <path d="M23.35 30.75 L23.15 32.4 23.1 32.6 22.7 31.85 22.95 31.4 23.35 30.75" fill="#f8f2f5" fill-rule="evenodd" stroke="none"/>
      <path d="M-6.25 32.2 L-5.75 32.05 -4.8 32.0 Q-4.3 32.15 -2.3 33.35 -1.55 33.7 -0.85 34.2 0.0 34.8 0.0 35.15 L-0.3 38.1 -0.3 38.45 Q-0.35 36.6 -0.75 35.95 -1.05 35.5 -1.8 35.4 L-3.8 35.55 -5.85 35.8 Q-6.55 35.95 -6.8 36.2 L-7.2 37.75 -7.35 39.8 -7.6 42.15 Q-7.8 38.05 -8.1 36.9 L-8.45 35.65 Q-8.65 35.15 -9.4 34.7 L-11.05 33.55 -9.85 34.1 -7.5 34.8 Q-6.15 35.05 -3.35 34.85 -2.25 34.75 -2.1 34.5 -1.85 34.2 -2.8 33.55 -4.05 32.7 -5.3 32.3 L-6.25 32.2" fill="#f8f2f5" fill-rule="evenodd" stroke="none"/>
      <path d="M-8.65 36.75 L-8.85 38.3 -8.9 38.45 -9.25 37.75 -9.0 37.35 -8.65 36.75" fill="#f8f2f5" fill-rule="evenodd" stroke="none"/>
      <path d="M5.15 28.95 Q4.05 29.25 4.1 29.6 L5.15 30.4 6.95 31.25 9.05 31.9 12.8 32.05 10.85 32.5 Q10.0 32.65 9.6 33.05 L8.8 34.1 7.3 36.8 6.35 38.75 7.0 36.45 7.6 34.5 7.85 32.9 7.15 32.2 5.35 31.2 3.55 30.3 2.35 30.45 Q1.9 30.75 1.35 31.85 L0.85 32.9 1.1 32.25 1.95 29.4 Q2.2 28.75 4.75 28.6 L6.3 28.4 7.6 28.3 Q8.15 28.35 8.85 29.05 L7.95 28.8 5.15 28.95" fill="#f8f2f5" fill-rule="evenodd" stroke="none"/>
      <path d="M0.0 35.85 L0.45 34.2 0.55 34.85 0.6 35.35 Q0.5 35.6 0.0 35.85" fill="#f8f2f5" fill-rule="evenodd" stroke="none"/>
      <path d="M15.55 14.4 Q14.4 14.7 14.5 15.05 L15.55 15.85 Q18.2 17.1 19.4 17.35 L23.15 17.5 21.2 17.95 Q20.35 18.1 19.95 18.5 L19.15 19.55 17.7 22.25 16.75 24.2 17.35 21.9 18.0 19.95 18.25 18.35 17.5 17.65 15.7 16.65 13.9 15.75 12.7 15.9 Q12.25 16.2 11.7 17.3 L11.2 18.35 11.45 17.7 12.35 14.85 Q12.6 14.2 15.15 14.05 L16.7 13.85 18.0 13.75 Q18.55 13.8 19.2 14.5 L18.3 14.2 15.55 14.4" fill="#f8f2f5" fill-rule="evenodd" stroke="none"/>
      <path d="M10.8 19.65 L10.9 20.3 11.0 20.8 10.4 21.25 10.4 21.1 10.8 19.65" fill="#f8f2f5" fill-rule="evenodd" stroke="none"/>
      <path d="M10.45 37.3 L8.45 37.65 Q7.75 37.85 7.55 38.4 7.35 38.9 7.55 40.15 L7.75 41.25 7.6 40.6 6.65 37.75 Q6.5 37.15 8.45 35.5 L10.65 33.6 12.05 33.5 11.15 33.8 Q10.05 34.4 9.0 35.55 8.25 36.45 8.55 36.7 L9.85 36.75 13.9 35.75 17.05 33.7 15.7 35.2 Q15.1 35.8 15.0 36.3 L14.95 37.65 Q14.9 38.85 15.65 42.85 L14.85 40.65 Q14.1 37.6 13.5 37.25 L10.45 37.3" fill="#f8f2f5" fill-rule="evenodd" stroke="none"/>
      <path d="M8.2 42.55 L8.65 43.05 8.95 43.4 8.8 44.15 8.7 44.0 8.2 42.55" fill="#f8f2f5" fill-rule="evenodd" stroke="none"/>
      <path d="M19.9 9.8 L19.4 10.85 19.65 10.2 Q20.3 7.8 20.5 7.35 20.75 6.7 23.3 6.55 L24.85 6.35 26.15 6.25 Q26.7 6.3 27.4 7.0 L26.45 6.7 23.7 6.9 Q22.6 7.2 22.65 7.55 22.75 7.85 23.7 8.35 L25.5 9.2 27.6 9.85 31.35 10.0 29.35 10.45 Q28.55 10.6 28.15 11.0 L27.35 12.05 25.85 14.75 24.9 16.7 Q25.15 15.35 25.55 14.4 L26.15 12.45 26.4 10.85 25.7 10.15 23.9 9.15 22.05 8.25 20.85 8.4 Q20.45 8.7 19.9 9.8" fill="#f8f2f5" fill-rule="evenodd" stroke="none"/>
      <path d="M19.0 12.15 L19.1 12.8 19.15 13.3 18.55 13.75 18.55 13.6 19.0 12.15" fill="#f8f2f5" fill-rule="evenodd" stroke="none"/>
      <path d="M29.95 13.05 L29.0 14.45 28.5 15.5 28.75 14.85 29.6 12.0 Q29.85 11.35 32.4 11.2 L33.95 11.0 35.25 10.9 36.5 11.65 35.55 11.4 32.8 11.6 Q31.7 11.85 31.75 12.2 31.85 12.5 32.8 13.0 35.45 14.25 36.7 14.55 L40.45 14.7 38.45 15.15 Q37.65 15.3 37.25 15.65 L36.45 16.7 34.95 19.4 34.0 21.35 Q34.25 20.0 34.65 19.1 35.7 16.2 35.5 15.55 L34.8 14.85 33.0 13.8 Q31.75 13.1 31.15 12.9 L29.95 13.05" fill="#f8f2f5" fill-rule="evenodd" stroke="none"/>
      <path d="M28.1 16.8 L28.2 17.45 28.25 17.95 27.65 18.45 27.65 18.25 28.1 16.8" fill="#f8f2f5" fill-rule="evenodd" stroke="none"/>
    </g>
    <g id="shape52" transform="matrix(1.0, 0.0, 0.0, 1.0, -35.95, -73.35)">
      <path d="M103.9 89.45 L105.3 87.6 105.8 86.6 106.15 85.8 107.35 80.85 107.55 80.25 107.5 80.25 107.65 80.0 108.15 79.15 108.3 78.6 108.4 78.55 108.75 78.15 109.8 76.95 110.95 75.95 Q113.5 74.2 117.2 74.0 L117.3 73.9 117.55 74.0 118.5 73.9 120.6 74.05 121.35 74.1 124.15 74.65 125.3 75.05 Q126.8 75.4 128.3 76.15 L129.3 76.6 129.3 76.65 129.5 76.65 130.8 77.4 131.45 77.75 132.95 78.9 133.2 79.0 133.2 79.05 134.65 80.5 135.5 81.75 136.05 82.85 136.45 83.95 Q136.9 85.85 136.55 87.45 136.05 89.0 134.7 90.15 L133.85 90.7 133.25 90.95 133.0 91.2 Q132.3 91.45 131.7 91.8 L129.8 92.2 127.7 92.5 127.65 92.5 121.2 93.25 120.35 93.3 119.25 93.6 Q116.95 94.3 114.95 95.1 L114.85 95.1 114.3 95.4 113.45 95.0 112.9 94.65 112.85 94.6 108.95 92.4 108.85 92.3 108.3 92.05 104.55 89.9 103.9 89.45 M116.5 82.1 Q117.1 83.2 118.5 83.95 L118.65 84.1 119.25 84.3 119.55 84.5 119.5 84.55 121.4 85.0 121.45 84.95 122.25 85.1 122.7 85.15 122.75 85.15 122.95 85.15 123.2 85.15 125.05 85.0 126.7 84.5 126.95 84.25 127.2 84.1 128.0 83.3 Q128.65 82.55 128.25 81.5 L128.0 80.85 127.9 80.7 127.7 80.3 127.45 80.05 Q126.8 79.4 125.85 78.9 L125.45 78.75 Q123.95 77.95 122.05 77.95 L122.45 77.55 123.35 77.7 126.1 78.6 126.6 78.8 126.2 78.55 Q124.6 77.55 122.75 77.2 L121.7 77.05 120.4 76.9 117.75 77.3 Q116.9 77.5 116.3 78.05 115.45 78.6 115.25 79.45 115.0 80.0 115.15 80.7 L115.45 82.1 115.8 82.8 116.1 83.2 116.0 82.65 116.5 82.1 M119.85 85.25 L120.6 85.75 121.65 86.2 121.7 86.25 123.8 86.85 124.8 86.9 126.1 86.75 Q128.4 86.25 129.05 84.4 L129.15 82.65 128.95 83.25 126.5 85.35 126.4 85.4 125.3 85.65 Q124.05 85.85 122.45 85.65 L120.85 85.45 119.85 85.25" fill="url(#gradient14)" fill-rule="evenodd" stroke="none"/>
      <path d="M80.5 98.15 L96.85 94.8 103.05 93.05 104.15 92.5 105.2 92.7 Q106.6 92.95 108.35 93.95 L110.0 95.0 Q111.15 95.9 111.0 96.45 L110.25 97.8 Q108.95 98.65 108.2 101.3 L106.7 106.85 105.15 111.85 105.0 112.2 101.55 109.65 92.55 104.05 89.6 102.35 Q84.95 99.7 82.7 98.8 L81.15 98.05 80.5 98.15" fill="url(#gradient15)" fill-rule="evenodd" stroke="none"/>
      <path d="M71.2 101.45 L71.15 101.3 74.35 100.1 80.5 98.15 81.15 98.05 82.7 98.8 Q84.95 99.7 89.6 102.35 L92.55 104.05 101.55 109.65 105.0 112.2 100.2 119.8 100.6 120.1 101.5 120.55 Q104.1 116.5 105.1 114.3 104.0 117.05 101.45 120.75 L71.2 101.45" fill="url(#gradient16)" fill-rule="evenodd" stroke="none"/>
      <path d="M103.9 89.45 L104.55 89.9 108.3 92.05 108.85 92.3 108.95 92.4 112.85 94.6 112.85 94.75 112.9 94.65 113.45 95.0 114.3 95.4 114.1 96.7 114.0 96.75 113.5 96.6 113.45 96.5 113.3 96.35 113.15 96.05 112.85 95.65 111.95 95.0 111.8 95.0 110.35 93.95 110.3 94.1 109.2 93.35 108.65 93.1 108.75 92.9 108.55 92.7 108.15 92.65 Q108.0 92.5 107.95 92.7 L107.9 92.7 106.5 91.45 105.95 91.0 105.95 91.2 104.35 90.3 103.85 89.5 103.9 89.45 M121.25 77.45 Q119.0 77.3 117.35 78.4 115.8 79.4 115.8 81.4 L115.85 81.8 116.0 82.65 116.1 83.2 115.8 82.8 115.45 82.1 115.15 80.7 Q115.0 80.0 115.25 79.45 115.45 78.6 116.3 78.05 116.9 77.5 117.75 77.3 L120.4 76.9 121.7 77.05 122.75 77.2 Q124.6 77.55 126.2 78.55 L126.6 78.8 126.1 78.6 123.35 77.7 122.45 77.55 121.25 77.45" fill="#687075" fill-rule="evenodd" stroke="none"/>
      <path d="M120.8 77.75 Q118.7 77.95 117.4 78.9 116.05 80.0 116.35 81.4 L115.85 81.8 115.8 81.4 Q115.8 79.4 117.35 78.4 119.0 77.3 121.25 77.45 121.0 77.55 120.8 77.75" fill="url(#gradient17)" fill-rule="evenodd" stroke="none"/>
      <path d="M121.35 77.95 L120.75 77.9 120.8 77.75 Q121.0 77.55 121.25 77.45 L122.45 77.55 122.05 77.95 122.0 77.9 121.35 77.95" fill="url(#gradient18)" fill-rule="evenodd" stroke="none"/>
      <path d="M116.35 81.4 Q116.05 80.0 117.4 78.9 118.7 77.95 120.8 77.75 L120.75 77.9 121.35 77.95 120.7 78.55 Q119.25 80.2 119.05 81.9 118.85 83.85 119.25 84.3 L118.65 84.1 118.5 83.95 Q117.1 83.2 116.5 82.1 L116.5 82.0 116.45 81.9 116.3 81.55 116.35 81.4 M125.45 78.75 L125.85 78.9 Q126.8 79.4 127.45 80.05 L127.7 80.3 127.9 80.7 128.0 80.85 128.25 81.5 Q128.65 82.55 128.0 83.3 L127.2 84.1 126.95 84.25 126.7 84.5 125.05 85.0 Q125.75 83.9 125.85 82.65 126.1 80.3 125.85 79.45 L125.45 78.75" fill="#191b1c" fill-rule="evenodd" stroke="none"/>
      <path d="M121.2 93.25 L127.65 92.5 127.7 92.5 129.8 92.2 131.7 91.8 Q132.3 91.45 133.0 91.2 L133.25 90.95 133.85 90.7 Q134.85 92.25 132.95 95.45 131.5 98.0 127.45 98.85 L121.55 99.45 117.75 99.55 Q116.7 99.25 116.75 97.35 116.95 95.7 120.85 93.35 L121.2 93.25 M119.25 84.3 Q118.85 83.85 119.05 81.9 119.25 80.2 120.7 78.55 L121.35 77.95 122.0 77.9 122.05 77.95 Q123.95 77.95 125.45 78.75 L125.85 79.45 Q126.1 80.3 125.85 82.65 125.75 83.9 125.05 85.0 L123.2 85.15 122.95 85.15 122.75 85.15 122.7 85.15 122.25 85.1 121.45 84.95 121.4 85.0 119.5 84.55 119.55 84.5 119.25 84.3" fill="#242729" fill-rule="evenodd" stroke="none"/>
      <path d="M116.35 81.4 L116.3 81.55 116.45 81.9 116.5 82.0 116.5 82.1 116.0 82.65 115.85 81.8 116.35 81.4" fill="url(#gradient19)" fill-rule="evenodd" stroke="none"/>
      <path d="M119.85 85.25 L120.85 85.45 122.45 85.65 Q124.05 85.85 125.3 85.65 L126.4 85.4 126.5 85.35 128.95 83.25 129.15 82.65 129.05 84.4 Q128.4 86.25 126.1 86.75 L124.8 86.9 123.8 86.85 121.7 86.25 121.65 86.2 120.6 85.75 119.85 85.25" fill="#1d2021" fill-rule="evenodd" stroke="none"/>
      <path d="M112.65 102.65 L112.15 102.35 112.0 102.35 110.0 101.2 110.1 100.95 110.9 99.1 111.1 97.35 111.0 96.45 Q111.15 95.9 110.0 95.0 L108.35 93.95 Q106.6 92.95 105.2 92.7 L104.15 92.5 103.05 93.05 103.85 89.5 104.35 90.3 105.95 91.2 105.95 91.0 106.5 91.45 107.9 92.7 107.95 92.7 Q108.0 92.5 108.15 92.65 L108.55 92.7 108.75 92.9 108.65 93.1 109.2 93.35 110.3 94.1 110.35 93.95 111.8 95.0 111.95 95.0 112.85 95.65 113.15 96.05 113.3 96.35 113.35 97.15 113.45 96.5 113.5 96.6 114.0 96.75 113.95 97.0 112.65 102.65" fill="#0b0d0d" fill-rule="evenodd" stroke="none"/>
      <path d="M110.0 101.2 L109.15 102.25 Q108.2 103.75 107.9 104.85 L106.9 108.7 105.6 113.45 102.75 119.85 101.05 122.55 70.95 102.55 71.15 101.45 71.2 101.45 101.45 120.75 Q104.0 117.05 105.1 114.3 L105.3 113.7 105.35 113.5 105.6 112.8 105.65 112.65 107.0 107.7 108.65 101.65 Q109.4 99.45 110.25 97.8 L111.0 96.45 111.1 97.35 110.9 99.1 110.1 100.95 110.0 101.2 M74.75 135.9 L74.65 136.0 74.5 135.9 74.75 135.9" fill="#454443" fill-rule="evenodd" stroke="none"/>
      <path d="M114.3 95.4 L114.85 95.1 114.95 95.1 Q116.95 94.3 119.25 93.6 L120.35 93.3 121.2 93.25 120.85 93.35 Q116.95 95.7 116.75 97.35 116.7 99.25 117.75 99.55 L121.55 99.45 127.45 98.85 Q131.5 98.0 132.95 95.45 134.85 92.25 133.85 90.7 L134.7 90.15 Q136.05 89.0 136.55 87.45 136.25 89.75 134.75 94.85 L134.7 94.85 Q134.25 96.15 133.0 97.35 130.45 99.25 126.05 99.7 L118.25 100.65 Q115.85 101.25 113.95 102.05 113.55 102.15 113.25 102.35 L113.05 102.45 112.65 102.65 113.95 97.0 114.0 96.75 114.1 96.7 114.3 95.4" fill="#1b1e1f" fill-rule="evenodd" stroke="none"/>
      <path d="M112.85 94.6 L112.9 94.65 112.85 94.75 112.85 94.6 M113.3 96.35 L113.45 96.5 113.35 97.15 113.3 96.35" fill="#543b16" fill-rule="evenodd" stroke="none"/>
      <path d="M113.95 102.05 L113.9 102.1 113.25 102.35 Q113.55 102.15 113.95 102.05" fill="#463111" fill-rule="evenodd" stroke="none"/>
      <path d="M105.0 112.2 L105.15 111.85 106.7 106.85 108.2 101.3 Q108.95 98.65 110.25 97.8 109.4 99.45 108.65 101.65 L107.0 107.7 105.65 112.65 105.6 112.8 105.35 113.5 105.3 113.7 105.1 114.3 Q104.1 116.5 101.5 120.55 L100.6 120.1 100.2 119.8 105.0 112.2" fill="#ac9f91" fill-rule="evenodd" stroke="none"/>
      <path d="M116.75 94.1 L118.55 93.35 120.2 93.05 126.4 92.4 Q130.85 91.5 133.1 90.4 135.3 89.25 136.35 87.4 136.8 87.1 136.8 87.15 135.4 91.45 125.75 93.3 115.95 94.55 114.95 95.2 L114.9 95.25 Q115.0 94.9 116.75 94.1" fill="url(#gradient20)" fill-rule="evenodd" stroke="none"/>
      <path d="M106.95 80.45 Q108.15 76.4 114.4 75.0 121.4 73.4 128.15 76.4 134.25 79.1 135.9 83.25 137.3 86.8 136.1 91.8 134.95 96.5 132.9 97.5 131.45 98.2 126.0 98.95 L118.9 100.0 Q116.15 100.75 112.9 103.0 L109.4 101.5 107.9 102.75 105.65 112.5 104.15 117.0 106.15 118.75 106.65 128.25 101.4 133.5 101.35 138.1 Q101.1 142.65 100.15 142.5 99.35 142.35 98.95 138.05 98.55 133.4 98.15 133.0 L95.05 131.05 Q92.65 129.65 92.65 129.25 L92.4 123.25 89.15 126.0 88.95 128.8 Q88.6 131.6 87.65 131.75 86.7 131.9 86.45 129.95 L86.4 128.0 84.15 127.75 83.75 129.7 Q83.2 131.7 82.4 132.0 L74.9 132.75 Q74.4 137.25 73.4 137.0 72.8 136.85 72.25 134.05 L71.65 130.75 70.6 128.7 Q69.65 127.15 69.15 127.0 L65.95 127.4 Q63.25 127.95 62.9 128.5 L62.6 131.55 Q62.45 134.0 61.4 134.0 60.45 134.0 60.85 131.65 61.3 129.25 60.9 129.25 60.4 129.25 60.7 129.35 L59.9 129.25 Q58.9 129.1 58.65 127.45 L58.15 125.25 56.15 123.5 56.9 120.5 Q51.15 120.5 50.4 119.75 49.9 119.25 49.3 119.2 L47.65 119.25 Q46.85 119.25 46.5 121.85 46.15 124.45 45.7 124.45 44.15 124.4 43.75 120.2 L43.65 116.0 Q42.9 112.5 42.9 111.5 L42.4 102.0 Q41.85 102.25 41.1 101.75 40.25 101.2 38.15 96.85 35.85 92.15 36.65 91.0 37.6 89.65 40.05 87.95 42.55 86.25 43.65 86.25 L47.6 86.9 50.4 87.5 52.4 92.25 55.15 92.75 54.65 89.25 52.5 85.15 Q50.45 80.9 50.9 80.25 51.65 79.25 54.45 76.9 57.5 74.35 58.15 74.5 63.85 75.9 64.65 77.0 L66.6 80.25 Q68.0 82.85 67.65 83.5 L66.3 86.85 69.4 89.25 Q70.65 87.0 71.9 87.0 73.0 87.0 75.6 87.75 78.4 88.55 78.9 89.25 L82.9 96.5 102.9 92.75 103.4 89.25 Q106.15 87.75 106.65 85.75 106.35 82.65 106.95 80.45 Z" fill="none" stroke="#231f20" stroke-linecap="butt" stroke-linejoin="miter" stroke-miterlimit="10.0" stroke-width="1.0"/>
      <path d="M83.2 96.45 L69.95 101.05 101.7 121.65 104.55 117.4" fill="none" stroke="#231f20" stroke-linecap="butt" stroke-linejoin="miter" stroke-miterlimit="10.0" stroke-width="1.0"/>
    </g>
    <linearGradient gradientTransform="matrix(0.0071, 0.0124, -0.0114, 0.0066, 120.3, 84.7)" gradientUnits="userSpaceOnUse" id="gradient14" spreadMethod="pad" x1="-819.2" x2="819.2">
      <stop offset="0.0" stop-color="#5b6469"/>
      <stop offset="0.34509803921568627" stop-color="#444c4f"/>
      <stop offset="0.7490196078431373" stop-color="#2f3437"/>
      <stop offset="1.0" stop-color="#272c2e"/>
    </linearGradient>
    <linearGradient gradientTransform="matrix(0.005, 0.008, 0.008, -0.005, 96.15, 107.25)" gradientUnits="userSpaceOnUse" id="gradient15" spreadMethod="pad" x1="-819.2" x2="819.2">
      <stop offset="0.0" stop-color="#d1cac4"/>
      <stop offset="1.0" stop-color="#585656"/>
    </linearGradient>
    <linearGradient gradientTransform="matrix(0.0137, 0.0086, 0.0086, -0.0137, 92.7, 109.6)" gradientUnits="userSpaceOnUse" id="gradient16" spreadMethod="pad" x1="-819.2" x2="819.2">
      <stop offset="0.0" stop-color="#f9f1eb"/>
      <stop offset="1.0" stop-color="#7e7a77"/>
    </linearGradient>
    <linearGradient gradientTransform="matrix(0.0086, 0.0085, 0.0085, -0.0086, 120.95, 86.7)" gradientUnits="userSpaceOnUse" id="gradient17" spreadMethod="pad" x1="-819.2" x2="819.2">
      <stop offset="0.0" stop-color="#5b6469"/>
      <stop offset="0.34509803921568627" stop-color="#444c4f"/>
      <stop offset="0.7490196078431373" stop-color="#2f3437"/>
      <stop offset="1.0" stop-color="#272c2e"/>
    </linearGradient>
    <linearGradient gradientTransform="matrix(0.001, 0.0, 0.0, 3.0E-4, 121.6, 77.7)" gradientUnits="userSpaceOnUse" id="gradient18" spreadMethod="pad" x1="-819.2" x2="819.2">
      <stop offset="0.0" stop-color="#5b6469"/>
      <stop offset="0.34509803921568627" stop-color="#444c4f"/>
      <stop offset="0.7490196078431373" stop-color="#2f3437"/>
      <stop offset="1.0" stop-color="#272c2e"/>
    </linearGradient>
    <linearGradient gradientTransform="matrix(4.0E-4, 0.0, 0.0, 8.0E-4, 116.15, 82.0)" gradientUnits="userSpaceOnUse" id="gradient19" spreadMethod="pad" x1="-819.2" x2="819.2">
      <stop offset="0.0" stop-color="#5b6469"/>
      <stop offset="0.34509803921568627" stop-color="#444c4f"/>
      <stop offset="0.7490196078431373" stop-color="#2f3437"/>
      <stop offset="1.0" stop-color="#272c2e"/>
    </linearGradient>
    <linearGradient gradientTransform="matrix(0.0155, -0.0088, -0.0054, -0.0177, 124.6, 87.3)" gradientUnits="userSpaceOnUse" id="gradient20" spreadMethod="pad" x1="-819.2" x2="819.2">
      <stop offset="0.0" stop-color="#818c91"/>
      <stop offset="0.20392156862745098" stop-color="#697376"/>
      <stop offset="0.5529411764705883" stop-color="#454c4f"/>
      <stop offset="0.8313725490196079" stop-color="#2f3437"/>
      <stop offset="1.0" stop-color="#272c2e"/>
    </linearGradient>
    <g id="sprite73" transform="matrix(1.0, 0.0, 0.0, 1.0, 0.0, 0.0)">
      <use height="57.1" transform="matrix(1.0, 0.0, 0.0, 1.0, 0.0, 0.0)" width="118.7" xlink:href="#shape53"/>
    </g>
    <g id="shape53" transform="matrix(1.0, 0.0, 0.0, 1.0, 0.0, 0.0)">
      <path d="M95.5 30.35 Q111.6 18.8 118.2 0.25 L118.7 0.0 Q117.85 23.85 100.6 40.45 83.35 57.1 59.3 57.1 35.75 57.1 18.6 41.0 1.5 25.0 0.0 1.7 6.9 19.7 22.75 30.75 39.0 42.1 58.85 42.1 79.1 42.1 95.5 30.35" fill="url(#gradient21)" fill-rule="evenodd" stroke="none"/>
    </g>
    <radialGradient cx="0" cy="0" gradientTransform="matrix(0.0568, 0.0, 0.0, -0.0568, 59.35, 28.55)" gradientUnits="userSpaceOnUse" id="gradient21" r="819.2" spreadMethod="pad">
      <stop offset="0.0" stop-color="#000000" stop-opacity="0.0"/>
      <stop offset="0.6509803921568628" stop-color="#000000" stop-opacity="0.4"/>
    </radialGradient>
    <g id="sprite74" transform="matrix(1.0, 0.0, 0.0, 1.0, 0.0, 0.0)">
      <use height="55.75" transform="matrix(1.0, 0.0, 0.0, 1.0, 0.0, 0.0)" width="110.05" xlink:href="#shape54"/>
    </g>
    <g id="shape54" transform="matrix(1.0, 0.0, 0.0, 1.0, 0.0, 0.0)">
      <path d="M96.05 17.95 Q102.75 25.35 106.5 34.35 110.05 42.8 110.05 50.3 110.05 52.65 109.55 54.75 106.75 38.15 93.35 25.25 77.5 10.05 55.0 10.05 32.15 10.05 16.5 25.2 3.05 38.25 0.45 55.75 0.0 54.05 0.0 51.5 0.0 43.25 3.5 34.5 7.2 25.25 13.95 17.8 30.0 0.0 55.0 0.0 79.7 0.0 96.05 17.95" fill="url(#gradient22)" fill-rule="evenodd" stroke="none"/>
    </g>
    <linearGradient gradientTransform="matrix(0.0, -0.034, -0.034, 0.0, 55.0, 27.9)" gradientUnits="userSpaceOnUse" id="gradient22" spreadMethod="pad" x1="-819.2" x2="819.2">
      <stop offset="0.12941176470588237" stop-color="#d9bbb3"/>
      <stop offset="0.9254901960784314" stop-color="#ffffff"/>
    </linearGradient>
    <g id="sprite75" transform="matrix(1.0, 0.0, 0.0, 1.0, 0.0, 0.0)">
      <use height="61.3" transform="matrix(1.0, 0.0, 0.0, 1.0, 0.0, 0.0)" width="110.05" xlink:href="#shape55"/>
    </g>
    <g id="shape55" transform="matrix(1.0, 0.0, 0.0, 1.0, 0.0, 0.0)">
      <path d="M106.5 34.35 Q110.05 42.8 110.05 50.3 110.05 57.7 105.7 59.65 102.2 61.2 93.95 59.6 L76.45 55.55 Q64.4 53.0 55.0 53.0 45.55 53.0 33.6 55.75 L16.1 60.2 Q7.8 62.1 4.35 60.7 0.0 58.9 0.0 51.5 0.0 43.25 3.5 34.5 7.2 25.25 13.95 17.8 30.0 0.0 55.0 0.0 79.7 0.0 96.05 17.95 102.75 25.35 106.5 34.35" fill="#ffffff" fill-rule="evenodd" stroke="none"/>
    </g>
  </defs>
</svg>
