<?xml version="1.0" encoding="UTF-8" standalone="no"?>
<svg xmlns:xlink="http://www.w3.org/1999/xlink" height="42.05px" width="44.85px" xmlns="http://www.w3.org/2000/svg">
  <g transform="matrix(1.0, 0.0, 0.0, 1.0, 0.0, 0.0)">
    <use height="10.8" transform="matrix(1.0, 0.0, 0.0, 1.0, 5.8, 31.25)" width="34.45" xlink:href="#shape0"/>
    <use height="12.7" transform="matrix(0.75, 0.0, 0.0, 0.75, 8.95, 32.5)" width="24.3" xlink:href="#sprite0"/>
    <use height="13.05" transform="matrix(0.75, 0.0, 0.0, 0.75, 25.85, 32.05)" width="17.2" xlink:href="#sprite1"/>
    <use height="12.55" transform="matrix(0.75, 0.0, 0.0, 0.75, 5.8, 31.25)" width="12.75" xlink:href="#sprite2"/>
    <use height="12.85" transform="matrix(1.0, 0.0, 0.0, 1.0, 5.65, 23.45)" width="34.95" xlink:href="#shape4"/>
    <use height="1.5" transform="matrix(0.75, 0.0, 0.0, 0.75, 16.15, 32.75)" width="3.55" xlink:href="#sprite3"/>
    <use height="1.35" transform="matrix(0.75, 0.0, 0.0, 0.75, 11.2, 29.2625)" width="1.9" xlink:href="#sprite4"/>
    <use height="0.75" transform="matrix(0.75, 0.0, 0.0, 0.75, 8.45, 30.95)" width="1.15" xlink:href="#sprite5"/>
    <use height="1.05" transform="matrix(0.75, 0.0, 0.0, 0.75, 11.05, 32.05)" width="1.3" xlink:href="#sprite6"/>
    <use height="1.45" transform="matrix(0.75, 0.0, 0.0, 0.75, 13.0625, 31.7)" width="1.75" xlink:href="#sprite7"/>
    <use height="1.35" transform="matrix(0.75, 0.0, 0.0, 0.75, 17.9125, 30.6)" width="2.35" xlink:href="#sprite8"/>
    <use height="1.0" transform="matrix(0.75, 0.0, 0.0, 0.75, 20.0, 31.0)" width="1.85" xlink:href="#sprite9"/>
    <use height="0.95" transform="matrix(0.75, 0.0, 0.0, 0.75, 15.3625, 30.05)" width="2.6" xlink:href="#sprite10"/>
    <use height="1.05" transform="matrix(0.75, 0.0, 0.0, 0.75, 14.95, 27.8)" width="1.4" xlink:href="#sprite11"/>
    <use height="1.4" transform="matrix(0.75, 0.0, 0.0, 0.75, 17.1625, 25.6625)" width="1.95" xlink:href="#sprite12"/>
    <use height="0.9" transform="matrix(0.75, 0.0, 0.0, 0.75, 19.8125, 25.25)" width="1.35" xlink:href="#sprite13"/>
    <use height="1.25" transform="matrix(0.75, 0.0, 0.0, 0.75, 21.9625, 25.25)" width="3.35" xlink:href="#sprite14"/>
    <use height="1.3" transform="matrix(0.75, 0.0, 0.0, 0.75, 26.3, 28.0)" width="2.05" xlink:href="#sprite15"/>
    <use height="1.4" transform="matrix(0.75, 0.0, 0.0, 0.75, 23.6, 27.65)" width="2.55" xlink:href="#sprite16"/>
    <use height="1.3" transform="matrix(0.75, 0.0, 0.0, 0.75, 20.35, 26.7125)" width="1.75" xlink:href="#sprite17"/>
    <use height="0.9" transform="matrix(0.75, 0.0, 0.0, 0.75, 25.5125, 29.75)" width="2.4" xlink:href="#sprite18"/>
    <use height="0.8" transform="matrix(0.75, 0.0, 0.0, 0.75, 22.3625, 29.9)" width="1.75" xlink:href="#sprite19"/>
    <use height="1.9" transform="matrix(0.75, 0.0, 0.0, 0.75, 21.6625, 32.05)" width="2.85" xlink:href="#sprite20"/>
    <use height="1.45" transform="matrix(0.75, 0.0, 0.0, 0.75, 25.95, 31.8)" width="2.4" xlink:href="#sprite21"/>
    <use height="0.75" transform="matrix(0.75, 0.0, 0.0, 0.75, 29.3125, 30.1)" width="1.3" xlink:href="#sprite22"/>
    <use height="0.9" transform="matrix(0.75, 0.0, 0.0, 0.75, 27.6625, 26.7)" width="1.7" xlink:href="#sprite23"/>
    <use height="1.55" transform="matrix(0.75, 0.0, 0.0, 0.75, 30.4, 27.2)" width="1.6" xlink:href="#sprite24"/>
    <use height="1.15" transform="matrix(0.75, 0.0, 0.0, 0.75, 32.35, 31.3)" width="1.65" xlink:href="#sprite25"/>
    <use height="0.8" transform="matrix(0.75, 0.0, 0.0, 0.75, 26.6875, 34.1)" width="0.95" xlink:href="#sprite26"/>
    <use height="11.7" transform="matrix(1.0, 0.0, 0.0, 1.0, 5.55, 24.9)" width="35.1" xlink:href="#shape10"/>
    <use height="26.05" transform="matrix(0.7469, -0.0681, 0.0681, 0.7469, 3.9456, 16.8667)" width="47.0" xlink:href="#sprite27"/>
    <use height="26.05" transform="matrix(0.7474, 0.0622, -0.0622, 0.7474, 5.7782, 6.46)" width="47.0" xlink:href="#sprite27"/>
    <use height="26.05" transform="matrix(0.75, 0.0031, -0.0031, 0.75, 4.6633, 0.0123)" width="47.0" xlink:href="#sprite27"/>
    <use height="21.05" transform="matrix(1.0, 0.0, 0.0, 1.0, 9.2, 9.55)" width="28.85" xlink:href="#shape14"/>
  </g>
  <defs>
    <g id="shape0" transform="matrix(1.0, 0.0, 0.0, 1.0, -5.8, -31.25)">
      <path d="M40.1 31.45 L40.25 31.4 Q38.8 36.05 34.05 39.0 29.2 42.05 23.05 42.05 16.8 42.05 11.95 39.0 7.15 35.95 5.8 31.25 L6.1 31.35 Q7.6 32.45 12.25 33.15 L23.2 33.9 33.85 33.2 Q38.5 32.55 40.1 31.45" fill="#d9d9d9" fill-rule="evenodd" stroke="none"/>
    </g>
    <g id="sprite0" transform="matrix(1.0, 0.0, 0.0, 1.0, 0.0, 0.0)">
      <use height="12.7" transform="matrix(1.0, 0.0, 0.0, 1.0, 0.0, 0.0)" width="24.3" xlink:href="#shape1"/>
    </g>
    <g id="shape1" transform="matrix(1.0, 0.0, 0.0, 1.0, 0.0, 0.0)">
      <path d="M24.3 1.7 L21.1 12.6 18.75 12.7 16.0 12.55 12.25 11.55 Q10.1 10.75 8.65 9.8 4.05 6.8 1.55 3.1 0.3 1.25 0.0 0.0 L2.65 0.55 Q9.55 1.85 18.95 1.85 L24.3 1.7" fill="url(#gradient0)" fill-rule="evenodd" stroke="none"/>
    </g>
    <linearGradient gradientTransform="matrix(0.0096, 0.0, 0.0, -0.0096, 11.35, 6.35)" gradientUnits="userSpaceOnUse" id="gradient0" spreadMethod="pad" x1="-819.2" x2="819.2">
      <stop offset="0.0" stop-color="#ffffff"/>
      <stop offset="1.0" stop-color="#000000"/>
    </linearGradient>
    <g id="sprite1" transform="matrix(1.0, 0.0, 0.0, 1.0, 0.0, 0.0)">
      <use height="13.05" transform="matrix(1.0, 0.0, 0.0, 1.0, 0.0, 0.0)" width="17.2" xlink:href="#shape2"/>
    </g>
    <g id="shape2" transform="matrix(1.0, 0.0, 0.0, 1.0, 0.0, 0.0)">
      <path d="M10.15 1.5 Q14.75 0.9 17.2 0.0 L15.8 2.95 Q13.9 5.9 10.0 8.9 7.1 11.1 2.35 12.7 L0.0 13.05 Q5.95 10.9 8.5 6.8 9.65 4.95 10.0 3.4 L10.15 1.5" fill="#595959" fill-rule="evenodd" stroke="none"/>
    </g>
    <g id="sprite2" transform="matrix(1.0, 0.0, 0.0, 1.0, 0.0, 0.0)">
      <use height="12.55" transform="matrix(1.0, 0.0, 0.0, 1.0, 0.0, 0.0)" width="12.75" xlink:href="#shape3"/>
    </g>
    <g id="shape3" transform="matrix(1.0, 0.0, 0.0, 1.0, 0.0, 0.0)">
      <path d="M12.75 12.55 Q7.95 10.75 4.6 7.45 1.2 4.15 0.0 0.0 L0.35 0.1 1.1 0.55 Q2.0 3.05 3.7 5.45 7.25 10.3 12.75 12.55" fill="#595959" fill-rule="evenodd" stroke="none"/>
    </g>
    <g id="shape4" transform="matrix(1.0, 0.0, 0.0, 1.0, -5.65, -23.45)">
      <path d="M35.1 25.4 Q40.1 27.3 40.1 29.9 40.1 32.55 35.1 34.4 30.15 36.3 23.1 36.3 16.1 36.3 11.1 34.4 6.15 32.55 6.15 29.9 6.15 27.3 11.1 25.4 16.1 23.55 23.1 23.55 30.15 23.55 35.1 25.4" fill="url(#gradient1)" fill-rule="evenodd" stroke="none"/>
      <path d="M40.6 29.45 L39.5 29.45 Q39.15 27.15 34.45 25.5 29.75 23.9 23.2 23.9 16.65 23.9 11.95 25.5 7.25 27.15 6.9 29.45 L5.65 29.45 Q6.25 26.9 11.2 25.2 16.3 23.45 23.1 23.45 29.95 23.45 35.0 25.2 40.0 26.9 40.6 29.45" fill="#f5f5f5" fill-rule="evenodd" stroke="none"/>
      <path d="M37.5 33.15 L34.9 34.25 29.8 35.35 22.3 35.95 Q19.3 35.85 14.6 34.8 10.5 33.85 9.55 33.3 L8.55 32.85 Q7.75 31.7 8.25 31.05 8.6 30.65 9.35 30.75 L10.0 30.9 Q10.15 29.65 11.2 29.25 12.2 28.8 12.6 29.0 L12.6 28.45 Q12.7 27.85 13.15 27.6 13.85 27.25 14.7 27.95 L14.95 27.7 Q15.25 27.4 15.8 27.3 L16.6 27.15 16.75 26.55 Q17.0 25.95 17.8 25.65 18.55 25.4 19.0 25.65 L19.3 25.95 19.6 25.55 Q20.0 25.2 20.5 25.15 21.35 25.05 21.7 25.45 L22.3 25.2 23.75 25.05 Q24.95 25.2 25.3 26.05 L25.75 25.85 26.8 25.8 Q27.6 26.05 27.45 26.6 L27.9 26.45 29.2 26.65 Q30.25 27.05 30.25 27.35 L30.65 27.1 31.7 26.95 Q32.6 27.15 32.8 28.35 L33.4 28.3 34.6 28.65 35.75 29.65 36.15 29.55 Q36.7 29.55 37.15 29.85 37.8 30.35 37.2 31.4 L37.9 31.35 Q38.65 31.45 38.85 31.85 39.1 32.35 37.5 33.15" fill="url(#gradient2)" fill-rule="evenodd" stroke="none"/>
      <path d="M9.95 31.25 L10.1 31.65 10.1 32.4 Q10.0 32.65 9.6 32.7 8.65 32.85 8.5 32.1 L9.05 32.1 Q9.6 32.1 9.95 31.25" fill="#672510" fill-rule="evenodd" stroke="none"/>
      <path d="M11.05 33.3 Q11.65 33.6 12.4 32.75 L12.25 33.05 Q11.75 34.2 10.6 33.95 10.15 33.85 10.1 33.45 10.0 33.25 10.2 32.75 L10.45 32.35 10.5 32.75 11.05 33.3" fill="#672510" fill-rule="evenodd" stroke="none"/>
      <path d="M24.25 32.4 L24.3 31.95 Q24.75 32.7 24.2 33.45 23.65 34.2 22.5 34.65 L22.45 34.8 23.25 35.0 24.75 34.75 25.45 34.2 25.6 33.9 25.6 34.65 26.0 34.75 26.35 34.95 27.2 34.8 27.85 34.25 27.35 34.05 26.6 33.9 25.55 33.65 24.95 33.05 24.7 32.95 Q25.15 32.85 25.15 32.4 25.2 32.1 25.55 31.9 L25.85 31.75 25.75 32.55 25.75 33.05 Q26.0 33.45 26.8 33.3 27.7 33.15 28.1 32.7 28.4 32.25 28.15 32.0 L27.95 31.75 28.35 32.1 Q28.75 32.5 28.75 32.85 L28.45 33.45 28.9 33.65 Q29.45 33.75 29.95 33.25 L30.7 32.25 Q30.85 33.35 30.2 33.8 29.05 34.65 28.1 34.35 L28.0 34.3 Q28.2 35.15 27.7 35.35 26.65 35.9 26.05 35.7 L25.15 35.25 24.85 35.4 19.65 35.65 18.5 35.3 16.45 35.35 Q15.2 35.0 15.1 34.2 L15.3 33.45 15.55 33.6 15.85 33.95 Q16.05 34.45 18.05 34.45 18.9 34.45 19.25 33.95 L19.45 33.45 19.5 34.2 19.9 34.65 Q20.3 35.05 20.65 34.95 20.95 34.85 20.95 34.35 L21.0 33.6 21.15 33.25 21.15 33.75 Q21.3 34.2 22.25 34.05 23.25 33.85 23.8 33.3 L24.25 32.4" fill="#672510" fill-rule="evenodd" stroke="none"/>
      <path d="M37.55 31.7 L38.65 31.8 35.95 33.65 33.7 34.5 31.45 34.65 30.55 34.35 30.5 34.15 31.7 34.15 33.95 33.3 32.5 33.35 31.65 33.2 32.05 33.05 33.3 32.4 Q34.45 31.7 34.3 30.9 L33.5 31.15 32.65 31.15 32.2 31.05 32.5 30.85 33.3 30.0 Q33.65 29.5 33.3 28.95 L32.85 28.5 33.55 28.6 34.65 28.8 Q35.2 29.0 35.35 29.55 35.4 29.9 35.75 29.9 36.7 29.9 37.1 30.45 37.5 30.95 36.75 31.45 L37.55 31.7" fill="#672510" fill-rule="evenodd" stroke="none"/>
      <path d="M32.3 29.1 L31.05 29.45 30.3 29.35 30.6 29.25 31.3 28.75 Q31.85 28.25 31.9 27.6 33.0 28.5 32.3 29.1" fill="#672510" fill-rule="evenodd" stroke="none"/>
      <path d="M30.2 30.9 Q30.9 30.6 30.6 30.15 L31.15 30.3 Q31.7 30.5 31.65 30.8 31.6 31.35 30.1 31.45 L29.25 31.35 29.1 31.25 30.2 30.9" fill="#672510" fill-rule="evenodd" stroke="none"/>
      <path d="M31.05 32.65 L30.8 32.4 30.7 32.2 30.85 32.1 31.15 32.1 31.75 31.9 32.2 31.65 31.8 32.45 31.05 32.65" fill="#672510" fill-rule="evenodd" stroke="none"/>
      <path d="M27.25 30.75 Q28.1 30.7 28.25 29.95 L28.3 30.7 27.8 31.35 26.2 31.7 Q25.25 31.65 25.05 31.15 L25.05 30.65 25.85 30.75 27.25 30.75" fill="#672510" fill-rule="evenodd" stroke="none"/>
      <path d="M28.25 29.95 Q27.85 30.0 27.85 29.65 L27.9 29.25 28.5 28.95 Q28.9 28.7 28.7 28.05 L29.1 28.1 29.55 28.6 29.15 29.45 Q28.75 29.9 28.25 29.95" fill="#672510" fill-rule="evenodd" stroke="none"/>
      <path d="M29.6 27.8 L29.0 27.85 28.65 27.7 29.1 27.6 Q29.4 27.45 29.4 26.95 L30.25 27.35 29.6 27.8" fill="#672510" fill-rule="evenodd" stroke="none"/>
      <path d="M23.2 31.6 Q22.45 31.7 22.2 31.2 L22.05 30.7 Q22.45 31.0 22.75 30.95 L23.3 30.85 25.35 29.75 25.25 30.1 24.9 30.4 24.35 31.05 Q23.85 31.5 23.2 31.6" fill="#672510" fill-rule="evenodd" stroke="none"/>
      <path d="M20.1 32.55 Q19.65 32.55 19.6 32.3 L19.7 32.0 20.65 32.1 21.7 31.35 21.7 31.65 21.2 32.25 20.1 32.55" fill="#672510" fill-rule="evenodd" stroke="none"/>
      <path d="M22.45 30.2 Q22.25 30.2 22.3 29.75 22.3 29.5 22.75 29.0 L23.2 28.55 23.1 28.95 Q23.2 29.25 23.95 29.15 25.25 29.0 26.25 28.05 L25.15 29.3 24.5 29.7 24.1 29.85 23.1 29.9 22.45 30.2" fill="#672510" fill-rule="evenodd" stroke="none"/>
      <path d="M14.75 32.35 L14.6 31.9 14.95 31.2 15.4 30.75 15.3 31.05 Q15.4 31.4 16.1 31.45 17.2 31.55 18.0 30.6 17.75 31.4 17.2 31.8 L15.7 32.45 14.95 33.3 13.45 33.45 Q14.4 33.3 14.65 32.85 L14.75 32.35" fill="#672510" fill-rule="evenodd" stroke="none"/>
      <path d="M15.5 29.15 L16.6 28.35 Q16.9 28.9 16.3 29.35 15.75 29.85 14.8 30.05 L14.2 30.6 13.65 30.45 13.35 30.3 13.35 30.0 13.15 30.7 Q12.6 31.8 11.3 31.75 10.55 31.7 10.2 31.3 L10.0 30.9 10.3 30.3 10.5 30.0 Q11.05 31.05 12.05 30.95 13.1 30.8 13.35 29.7 L13.4 29.9 14.2 29.85 14.65 29.2 14.8 29.3 15.5 29.15" fill="#672510" fill-rule="evenodd" stroke="none"/>
      <path d="M13.65 28.6 L14.8 28.45 14.95 28.2 14.6 28.95 14.4 29.0 13.9 28.95 13.45 29.15 13.15 29.35 12.85 28.95 12.75 28.65 12.75 28.45 13.0 28.5 13.65 28.6" fill="#672510" fill-rule="evenodd" stroke="none"/>
      <path d="M21.4 26.45 L20.85 26.65 20.2 26.55 19.45 26.7 18.75 27.15 18.3 27.65 18.35 27.95 Q18.2 27.95 17.95 27.75 L17.55 27.75 17.4 27.9 17.0 28.05 17.1 27.6 17.3 27.15 17.75 27.15 18.55 26.85 19.1 26.5 19.3 25.95 19.6 26.1 20.4 26.15 Q21.1 26.0 21.7 25.45 21.9 26.25 21.4 26.45" fill="#672510" fill-rule="evenodd" stroke="none"/>
      <path d="M18.35 29.2 L19.05 28.6 Q18.95 29.25 18.5 29.55 L17.8 30.0 Q17.6 29.7 17.1 29.75 L16.3 29.9 17.6 29.1 17.7 29.25 18.35 29.2" fill="#672510" fill-rule="evenodd" stroke="none"/>
      <path d="M19.9 27.75 L20.35 27.95 Q20.85 28.1 21.3 27.7 L22.25 26.85 Q21.9 28.05 21.35 28.35 L20.5 28.7 19.9 28.7 Q19.8 28.55 19.85 28.15 L19.9 27.75" fill="#672510" fill-rule="evenodd" stroke="none"/>
      <path d="M21.55 29.1 Q21.4 30.1 20.65 30.1 L19.55 29.9 19.75 29.65 19.9 29.5 20.25 29.65 20.95 29.65 21.55 29.1" fill="#672510" fill-rule="evenodd" stroke="none"/>
      <path d="M23.3 27.45 Q22.7 27.45 22.75 27.15 L22.9 26.75 23.95 26.65 Q24.85 26.5 24.6 25.9 25.0 25.45 25.3 26.05 L24.95 26.55 24.55 27.3 23.3 27.45" fill="#672510" fill-rule="evenodd" stroke="none"/>
      <path d="M24.9 27.65 L25.15 27.25 26.2 26.9 Q26.85 26.7 27.05 26.1 27.3 26.3 27.4 26.85 L26.95 27.2 Q26.75 27.3 26.65 27.55 L26.6 27.75 26.1 27.6 25.35 27.55 24.9 27.65" fill="#672510" fill-rule="evenodd" stroke="none"/>
    </g>
    <linearGradient gradientTransform="matrix(0.0207, 0.0, 0.0, -0.0207, 23.1, 29.9)" gradientUnits="userSpaceOnUse" id="gradient1" spreadMethod="pad" x1="-819.2" x2="819.2">
      <stop offset="0.0" stop-color="#7d7d7d"/>
      <stop offset="1.0" stop-color="#d4d4d4"/>
    </linearGradient>
    <linearGradient gradientTransform="matrix(0.0188, 0.0, 0.0, -0.0188, 23.5, 30.5)" gradientUnits="userSpaceOnUse" id="gradient2" spreadMethod="pad" x1="-819.2" x2="819.2">
      <stop offset="0.0" stop-color="#a8471d"/>
      <stop offset="1.0" stop-color="#732911"/>
    </linearGradient>
    <g id="sprite3" transform="matrix(1.0, 0.0, 0.0, 1.0, 0.0, 0.0)">
      <use height="1.5" transform="matrix(1.0, 0.0, 0.0, 1.0, 0.0, 0.0)" width="3.55" xlink:href="#shape5"/>
    </g>
    <g id="shape5" transform="matrix(1.0, 0.0, 0.0, 1.0, 0.0, 0.0)">
      <path d="M3.1 0.85 Q1.9 1.8 0.65 1.4 -0.5 1.05 0.4 0.55 1.25 0.05 2.3 0.0 4.25 -0.05 3.1 0.85" fill="#e67240" fill-rule="evenodd" stroke="none"/>
    </g>
    <g id="sprite4" transform="matrix(1.0, 0.0, 0.0, 1.0, 0.0, 0.05)">
      <use height="1.5" transform="matrix(0.5352, 0.0, 0.0, 0.9, 0.0, -0.05)" width="3.55" xlink:href="#shape5"/>
    </g>
    <g id="sprite5" transform="matrix(1.0, 0.0, 0.0, 1.0, 0.0, 0.0)">
      <use height="1.35" transform="matrix(0.4894, 0.0, 0.0, 0.5556, -0.0245, 0.0)" width="2.35" xlink:href="#shape6"/>
    </g>
    <g id="shape6" transform="matrix(1.0, 0.0, 0.0, 1.0, 0.05, 0.0)">
      <path d="M1.7 0.0 Q2.6 0.05 2.15 0.7 1.7 1.35 0.7 1.35 -0.4 1.35 0.15 0.65 0.65 -0.05 1.7 0.0" fill="#e67240" fill-rule="evenodd" stroke="none"/>
    </g>
    <g id="sprite6" transform="matrix(1.0, 0.0, 0.0, 1.0, 0.0, 0.0)">
      <use height="1.35" transform="matrix(0.5532, 0.0, 0.0, 0.7778, 0.0223, 0.0)" width="2.35" xlink:href="#shape6"/>
    </g>
    <g id="sprite7" transform="matrix(1.0, 0.0, 0.0, 1.0, 0.05, 0.0)">
      <use height="1.35" transform="matrix(0.7447, 0.0, 0.0, 1.0741, -0.0372, 0.0)" width="2.35" xlink:href="#shape6"/>
    </g>
    <g id="sprite8" transform="matrix(1.0, 0.0, 0.0, 1.0, 0.05, 0.0)">
      <use height="1.35" transform="matrix(1.0, 0.0, 0.0, 1.0, -0.05, 0.0)" width="2.35" xlink:href="#shape6"/>
    </g>
    <g id="sprite9" transform="matrix(1.0, 0.0, 0.0, 1.0, 0.0, 0.0)">
      <use height="1.4" transform="matrix(0.7255, 0.0, 0.0, 0.7143, 0.0, 0.0)" width="2.55" xlink:href="#shape7"/>
    </g>
    <g id="shape7" transform="matrix(1.0, 0.0, 0.0, 1.0, 0.0, 0.0)">
      <path d="M2.3 0.5 Q1.5 1.15 0.45 1.4 -0.25 1.5 0.1 0.85 0.4 0.15 1.05 0.05 3.15 -0.2 2.3 0.5" fill="#e67240" fill-rule="evenodd" stroke="none"/>
    </g>
    <g id="sprite10" transform="matrix(1.0, 0.0, 0.0, 1.0, 0.05, 0.0)">
      <use height="1.5" transform="matrix(0.7324, 0.0, 0.0, 0.6333, -0.05, 0.0)" width="3.55" xlink:href="#shape5"/>
    </g>
    <g id="sprite11" transform="matrix(1.0, 0.0, 0.0, 1.0, 0.0, 0.0)">
      <use height="1.5" transform="matrix(0.3944, 0.0, 0.0, 0.7, 0.0, 0.0)" width="3.55" xlink:href="#shape5"/>
    </g>
    <g id="sprite12" transform="matrix(1.0, 0.0, 0.0, 1.0, 0.05, 0.05)">
      <use height="1.4" transform="matrix(0.7647, 0.0, 0.0, 1.0, -0.05, -0.05)" width="2.55" xlink:href="#shape7"/>
    </g>
    <g id="sprite13" transform="matrix(1.0, 0.0, 0.0, 1.0, 0.05, 0.0)">
      <use height="1.5" transform="matrix(0.3803, 0.0, 0.0, 0.6, -0.05, 0.0)" width="3.55" xlink:href="#shape5"/>
    </g>
    <g id="sprite14" transform="matrix(1.0, 0.0, 0.0, 1.0, 0.05, 0.0)">
      <use height="1.25" transform="matrix(1.0, 0.0, 0.0, 1.0, -0.05, 0.0)" width="3.35" xlink:href="#shape8"/>
    </g>
    <g id="shape8" transform="matrix(1.0, 0.0, 0.0, 1.0, 0.05, 0.0)">
      <path d="M1.85 0.05 Q4.1 0.6 2.85 1.0 L0.4 1.1 Q-0.45 0.8 0.4 0.35 1.2 -0.1 1.85 0.05" fill="#e67240" fill-rule="evenodd" stroke="none"/>
    </g>
    <g id="sprite15" transform="matrix(1.0, 0.0, 0.0, 1.0, 0.0, 0.0)">
      <use height="1.5" transform="matrix(0.5775, 0.0, 0.0, 0.8667, 0.0, 0.0)" width="3.55" xlink:href="#shape5"/>
    </g>
    <g id="sprite16" transform="matrix(1.0, 0.0, 0.0, 1.0, 0.0, 0.0)">
      <use height="1.4" transform="matrix(1.0, 0.0, 0.0, 1.0, 0.0, 0.0)" width="2.55" xlink:href="#shape7"/>
    </g>
    <g id="sprite17" transform="matrix(1.0, 0.0, 0.0, 1.0, 0.0, 0.05)">
      <use height="1.5" transform="matrix(0.493, 0.0, 0.0, 0.8667, 0.0, -0.05)" width="3.55" xlink:href="#shape5"/>
    </g>
    <g id="sprite18" transform="matrix(1.0, 0.0, 0.0, 1.0, 0.05, 0.0)">
      <use height="1.5" transform="matrix(0.676, 0.0, 0.0, 0.6, -0.05, 0.0)" width="3.55" xlink:href="#shape5"/>
    </g>
    <g id="sprite19" transform="matrix(1.0, 0.0, 0.0, 1.0, 0.05, 0.0)">
      <use height="1.5" transform="matrix(0.493, 0.0, 0.0, 0.5333, -0.05, 0.0)" width="3.55" xlink:href="#shape5"/>
    </g>
    <g id="sprite20" transform="matrix(1.0, 0.0, 0.0, 1.0, 0.05, 0.0)">
      <use height="1.9" transform="matrix(1.0, 0.0, 0.0, 1.0, -0.05, 0.0)" width="2.85" xlink:href="#shape9"/>
    </g>
    <g id="shape9" transform="matrix(1.0, 0.0, 0.0, 1.0, 0.05, 0.0)">
      <path d="M1.6 0.05 Q3.6 -0.15 2.25 1.0 0.8 2.25 0.2 1.8 -0.3 1.45 0.3 0.8 0.9 0.15 1.6 0.05" fill="#e67240" fill-rule="evenodd" stroke="none"/>
    </g>
    <g id="sprite21" transform="matrix(1.0, 0.0, 0.0, 1.0, 0.0, 0.0)">
      <use height="1.5" transform="matrix(0.6761, 0.0, 0.0, 0.9667, 0.0, 0.0)" width="3.55" xlink:href="#shape5"/>
    </g>
    <g id="sprite22" transform="matrix(1.0, 0.0, 0.0, 1.0, 0.05, 0.0)">
      <use height="1.5" transform="matrix(0.3662, 0.0, 0.0, 0.5, -0.05, 0.0)" width="3.55" xlink:href="#shape5"/>
    </g>
    <g id="sprite23" transform="matrix(1.0, 0.0, 0.0, 1.0, 0.05, 0.0)">
      <use height="1.5" transform="matrix(0.4789, 0.0, 0.0, 0.6, -0.05, 0.0)" width="3.55" xlink:href="#shape5"/>
    </g>
    <g id="sprite24" transform="matrix(1.0, 0.0, 0.0, 1.0, 0.0, 0.0)">
      <use height="1.5" transform="matrix(0.4507, 0.0, 0.0, 1.0333, 0.0, 0.0)" width="3.55" xlink:href="#shape5"/>
    </g>
    <g id="sprite25" transform="matrix(1.0, 0.0, 0.0, 1.0, 0.0, 0.0)">
      <use height="1.5" transform="matrix(0.4648, 0.0, 0.0, 0.7667, 0.0, 0.0)" width="3.55" xlink:href="#shape5"/>
    </g>
    <g id="sprite26" transform="matrix(1.0, 0.0, 0.0, 1.0, -0.05, 0.0)">
      <use height="1.5" transform="matrix(0.2676, 0.0, 0.0, 0.5333, 0.05, 0.0)" width="3.55" xlink:href="#shape5"/>
    </g>
    <g id="shape10" transform="matrix(1.0, 0.0, 0.0, 1.0, -5.55, -24.9)">
      <path d="M20.3 29.85 Q21.7 29.95 20.8 30.45 19.85 31.05 19.4 30.75 19.05 30.5 19.45 30.15 19.75 29.8 20.3 29.85" fill="#672510" fill-rule="evenodd" stroke="none"/>
      <path d="M19.9 27.9 Q20.85 27.65 20.65 28.2 20.45 28.8 19.7 28.9 19.0 29.0 19.15 28.5 19.3 28.0 19.9 27.9" fill="#672510" fill-rule="evenodd" stroke="none"/>
      <path d="M17.8 29.05 Q18.85 29.05 18.7 29.55 18.55 30.05 17.6 30.05 16.7 30.05 16.9 29.55 17.05 29.05 17.8 29.05" fill="#672510" fill-rule="evenodd" stroke="none"/>
      <path d="M18.1 30.6 Q18.7 30.7 18.4 31.15 18.1 31.55 17.4 31.35 16.75 31.2 17.2 30.9 17.65 30.5 18.1 30.6" fill="#672510" fill-rule="evenodd" stroke="none"/>
      <path d="M22.15 25.3 Q23.2 25.2 22.95 25.9 22.7 26.6 22.0 26.55 21.35 26.5 21.4 25.95 21.4 25.35 22.15 25.3" fill="#672510" fill-rule="evenodd" stroke="none"/>
      <path d="M27.4 26.8 Q28.05 26.9 27.85 27.3 L27.1 27.55 Q26.65 27.45 26.75 27.05 26.85 26.7 27.4 26.8" fill="#672510" fill-rule="evenodd" stroke="none"/>
      <path d="M28.15 28.8 Q28.9 28.9 28.75 29.3 28.6 29.7 27.95 29.55 27.4 29.45 27.55 29.1 27.7 28.75 28.15 28.8" fill="#672510" fill-rule="evenodd" stroke="none"/>
      <path d="M30.25 27.95 Q31.3 28.05 30.85 28.5 30.45 29.0 29.8 28.85 29.2 28.7 29.4 28.3 29.65 27.9 30.25 27.95" fill="#672510" fill-rule="evenodd" stroke="none"/>
      <path d="M28.75 30.15 Q29.75 30.35 29.4 30.7 L28.35 30.8 Q27.75 30.6 28.1 30.35 28.45 30.1 28.75 30.15" fill="#672510" fill-rule="evenodd" stroke="none"/>
      <path d="M25.35 28.85 Q25.9 28.7 25.9 29.1 25.9 29.55 25.45 29.65 25.05 29.75 25.05 29.35 25.0 28.95 25.35 28.85" fill="#672510" fill-rule="evenodd" stroke="none"/>
      <path d="M24.7 31.05 Q25.3 31.05 25.2 31.5 25.1 31.9 24.45 31.95 23.85 32.0 24.05 31.55 24.25 31.05 24.7 31.05" fill="#672510" fill-rule="evenodd" stroke="none"/>
      <path d="M14.25 29.95 Q14.85 30.0 14.65 30.35 14.45 30.65 13.75 30.6 13.15 30.6 13.4 30.25 13.65 29.85 14.25 29.95" fill="#672510" fill-rule="evenodd" stroke="none"/>
      <path d="M24.4 26.55 Q25.05 26.35 25.05 26.85 25.05 27.35 24.6 27.25 L24.15 26.9 Q24.1 26.65 24.4 26.55" fill="#672510" fill-rule="evenodd" stroke="none"/>
      <path d="M20.2 29.4 Q21.65 29.55 20.75 30.05 19.75 30.65 19.3 30.35 18.95 30.1 19.3 29.75 19.7 29.4 20.2 29.4" fill="url(#gradient3)" fill-rule="evenodd" stroke="none"/>
      <path d="M19.75 27.45 Q20.8 27.25 20.55 27.8 20.35 28.35 19.6 28.5 18.9 28.6 19.05 28.05 19.15 27.6 19.75 27.45" fill="url(#gradient4)" fill-rule="evenodd" stroke="none"/>
      <path d="M17.7 28.65 Q18.7 28.65 18.6 29.15 18.45 29.65 17.5 29.65 16.6 29.65 16.75 29.15 16.95 28.65 17.7 28.65" fill="url(#gradient5)" fill-rule="evenodd" stroke="none"/>
      <path d="M18.0 30.15 Q18.6 30.3 18.3 30.7 17.95 31.1 17.3 30.95 16.65 30.8 17.1 30.45 17.55 30.1 18.0 30.15" fill="url(#gradient6)" fill-rule="evenodd" stroke="none"/>
      <path d="M22.0 24.9 Q23.05 24.8 22.85 25.5 22.6 26.2 21.9 26.1 21.25 26.1 21.25 25.5 21.3 24.9 22.0 24.9" fill="url(#gradient7)" fill-rule="evenodd" stroke="none"/>
      <path d="M27.35 26.4 Q27.95 26.45 27.7 26.85 27.5 27.2 27.0 27.15 26.55 27.0 26.65 26.65 26.8 26.3 27.35 26.4" fill="url(#gradient8)" fill-rule="evenodd" stroke="none"/>
      <path d="M28.0 28.35 Q28.8 28.5 28.65 28.85 28.45 29.25 27.85 29.1 27.25 29.0 27.4 28.65 27.55 28.35 28.0 28.35" fill="url(#gradient9)" fill-rule="evenodd" stroke="none"/>
      <path d="M30.2 27.55 Q31.2 27.65 30.8 28.1 30.35 28.6 29.65 28.45 29.05 28.3 29.3 27.9 29.5 27.5 30.2 27.55" fill="url(#gradient10)" fill-rule="evenodd" stroke="none"/>
      <path d="M28.65 29.75 Q29.65 29.95 29.35 30.3 L28.3 30.4 Q27.7 30.2 28.0 29.95 L28.65 29.75" fill="url(#gradient11)" fill-rule="evenodd" stroke="none"/>
      <path d="M25.3 28.45 Q25.8 28.3 25.8 28.7 L25.35 29.25 Q24.95 29.35 24.95 28.95 24.95 28.5 25.3 28.45" fill="url(#gradient12)" fill-rule="evenodd" stroke="none"/>
      <path d="M24.6 30.6 Q25.15 30.6 25.1 31.05 L24.4 31.5 Q23.8 31.6 23.95 31.1 24.1 30.6 24.6 30.6" fill="url(#gradient13)" fill-rule="evenodd" stroke="none"/>
      <path d="M14.15 29.5 Q14.7 29.55 14.55 29.9 14.35 30.25 13.7 30.2 13.0 30.15 13.3 29.8 13.55 29.45 14.15 29.5" fill="url(#gradient14)" fill-rule="evenodd" stroke="none"/>
      <path d="M24.35 26.1 Q25.0 25.9 25.0 26.4 24.95 26.95 24.55 26.85 24.15 26.8 24.1 26.5 24.05 26.25 24.35 26.1" fill="url(#gradient15)" fill-rule="evenodd" stroke="none"/>
      <path d="M39.5 29.4 L40.6 29.4 40.65 30.0 Q40.65 32.75 35.5 34.65 30.4 36.6 23.1 36.6 15.85 36.6 10.7 34.65 5.55 32.75 5.55 30.0 L5.65 29.4 6.9 29.4 6.9 29.75 Q6.9 32.2 11.65 33.9 16.45 35.6 23.2 35.6 29.95 35.6 34.75 33.9 39.5 32.2 39.5 29.75 L39.5 29.4" fill="#f5f5f5" fill-rule="evenodd" stroke="none"/>
    </g>
    <linearGradient gradientTransform="matrix(0.0011, 0.0, 0.0, -0.0011, 20.1, 29.9)" gradientUnits="userSpaceOnUse" id="gradient3" spreadMethod="pad" x1="-819.2" x2="819.2">
      <stop offset="0.0" stop-color="#c27c3a"/>
      <stop offset="1.0" stop-color="#a85d08"/>
    </linearGradient>
    <linearGradient gradientTransform="matrix(9.0E-4, 0.0, 0.0, -9.0E-4, 19.8, 27.95)" gradientUnits="userSpaceOnUse" id="gradient4" spreadMethod="pad" x1="-819.2" x2="819.2">
      <stop offset="0.0" stop-color="#c27c3a"/>
      <stop offset="1.0" stop-color="#a85d08"/>
    </linearGradient>
    <linearGradient gradientTransform="matrix(0.0011, 0.0, 0.0, -0.0011, 17.65, 29.1)" gradientUnits="userSpaceOnUse" id="gradient5" spreadMethod="pad" x1="-819.2" x2="819.2">
      <stop offset="0.0" stop-color="#c27c3a"/>
      <stop offset="1.0" stop-color="#a85d08"/>
    </linearGradient>
    <linearGradient gradientTransform="matrix(9.0E-4, 0.0, 0.0, -9.0E-4, 17.65, 30.6)" gradientUnits="userSpaceOnUse" id="gradient6" spreadMethod="pad" x1="-819.2" x2="819.2">
      <stop offset="0.0" stop-color="#c27c3a"/>
      <stop offset="1.0" stop-color="#a85d08"/>
    </linearGradient>
    <linearGradient gradientTransform="matrix(0.001, 0.0, 0.0, -0.001, 22.05, 25.5)" gradientUnits="userSpaceOnUse" id="gradient7" spreadMethod="pad" x1="-819.2" x2="819.2">
      <stop offset="0.0" stop-color="#c27c3a"/>
      <stop offset="1.0" stop-color="#a85d08"/>
    </linearGradient>
    <linearGradient gradientTransform="matrix(7.0E-4, 0.0, 0.0, -7.0E-4, 27.2, 26.75)" gradientUnits="userSpaceOnUse" id="gradient8" spreadMethod="pad" x1="-819.2" x2="819.2">
      <stop offset="0.0" stop-color="#c27c3a"/>
      <stop offset="1.0" stop-color="#a85d08"/>
    </linearGradient>
    <linearGradient gradientTransform="matrix(8.0E-4, 0.0, 0.0, -7.0E-4, 28.05, 28.8)" gradientUnits="userSpaceOnUse" id="gradient9" spreadMethod="pad" x1="-819.2" x2="819.2">
      <stop offset="0.0" stop-color="#c27c3a"/>
      <stop offset="1.0" stop-color="#a85d08"/>
    </linearGradient>
    <linearGradient gradientTransform="matrix(0.001, 0.0, 0.0, -0.001, 30.1, 28.0)" gradientUnits="userSpaceOnUse" id="gradient10" spreadMethod="pad" x1="-819.2" x2="819.2">
      <stop offset="0.0" stop-color="#c27c3a"/>
      <stop offset="1.0" stop-color="#a85d08"/>
    </linearGradient>
    <linearGradient gradientTransform="matrix(9.0E-4, 0.0, 0.0, -9.0E-4, 28.65, 30.1)" gradientUnits="userSpaceOnUse" id="gradient11" spreadMethod="pad" x1="-819.2" x2="819.2">
      <stop offset="0.0" stop-color="#c27c3a"/>
      <stop offset="1.0" stop-color="#a85d08"/>
    </linearGradient>
    <linearGradient gradientTransform="matrix(5.0E-4, 0.0, 0.0, -5.0E-4, 25.4, 28.8)" gradientUnits="userSpaceOnUse" id="gradient12" spreadMethod="pad" x1="-819.2" x2="819.2">
      <stop offset="0.0" stop-color="#c27c3a"/>
      <stop offset="1.0" stop-color="#a85d08"/>
    </linearGradient>
    <linearGradient gradientTransform="matrix(7.0E-4, 0.0, 0.0, -7.0E-4, 24.5, 31.05)" gradientUnits="userSpaceOnUse" id="gradient13" spreadMethod="pad" x1="-819.2" x2="819.2">
      <stop offset="0.0" stop-color="#c27c3a"/>
      <stop offset="1.0" stop-color="#a85d08"/>
    </linearGradient>
    <linearGradient gradientTransform="matrix(8.0E-4, 0.0, 0.0, -8.0E-4, 13.9, 29.85)" gradientUnits="userSpaceOnUse" id="gradient14" spreadMethod="pad" x1="-819.2" x2="819.2">
      <stop offset="0.0" stop-color="#c27c3a"/>
      <stop offset="1.0" stop-color="#a85d08"/>
    </linearGradient>
    <linearGradient gradientTransform="matrix(5.0E-4, 0.0, 0.0, -5.0E-4, 24.55, 26.45)" gradientUnits="userSpaceOnUse" id="gradient15" spreadMethod="pad" x1="-819.2" x2="819.2">
      <stop offset="0.0" stop-color="#c27c3a"/>
      <stop offset="1.0" stop-color="#a85d08"/>
    </linearGradient>
    <g id="sprite27" transform="matrix(1.0, 0.0, 0.0, 1.0, 0.05, 0.25)">
      <clipPath id="clipPath0" transform="matrix(1.0, 0.0, 0.0, 1.0, 0.05, 0.25)">
        <use height="24.35" transform="matrix(1.0, 0.0, 0.0, 1.0, -0.05, -0.25)" width="47.0" xlink:href="#shape11"/>
      </clipPath>
      <g clip-path="url(#clipPath0)">
        <use height="10.8" transform="matrix(1.3324, 0.0, 0.0, 1.3333, 0.3277, 10.4165)" width="34.45" xlink:href="#shape0"/>
        <use height="12.7" transform="matrix(1.0, 0.0, 0.0, 1.0, 4.55, 12.1)" width="24.3" xlink:href="#sprite0"/>
        <use height="13.05" transform="matrix(1.0, 0.0, 0.0, 1.0, 27.05, 11.5)" width="17.2" xlink:href="#sprite1"/>
        <use height="12.55" transform="matrix(1.0, 0.0, 0.0, 1.0, 0.35, 10.4)" width="12.75" xlink:href="#sprite2"/>
        <use height="17.1" transform="matrix(1.0, 0.0, 0.0, 1.0, 0.1, 0.0)" width="46.6" xlink:href="#shape12"/>
        <use height="1.5" transform="matrix(1.0, 0.0, 0.0, 1.0, 14.1, 12.4)" width="3.55" xlink:href="#sprite3"/>
        <use height="1.35" transform="matrix(1.0, 0.0, 0.0, 1.0, 7.5, 7.75)" width="1.9" xlink:href="#sprite4"/>
        <use height="0.75" transform="matrix(1.0, 0.0, 0.0, 1.0, 3.85, 10.05)" width="1.15" xlink:href="#sprite5"/>
        <use height="1.05" transform="matrix(1.0, 0.0, 0.0, 1.0, 7.3, 11.5)" width="1.3" xlink:href="#sprite6"/>
        <use height="1.45" transform="matrix(1.0, 0.0, 0.0, 1.0, 10.0, 11.0)" width="1.75" xlink:href="#sprite7"/>
        <use height="1.35" transform="matrix(1.0, 0.0, 0.0, 1.0, 16.5, 9.55)" width="2.35" xlink:href="#sprite8"/>
        <use height="1.0" transform="matrix(1.0, 0.0, 0.0, 1.0, 19.25, 10.1)" width="1.85" xlink:href="#sprite9"/>
        <use height="0.95" transform="matrix(1.0, 0.0, 0.0, 1.0, 13.1, 8.8)" width="2.6" xlink:href="#sprite10"/>
        <use height="1.05" transform="matrix(1.0, 0.0, 0.0, 1.0, 12.5, 5.85)" width="1.4" xlink:href="#sprite11"/>
        <use height="1.4" transform="matrix(1.0, 0.0, 0.0, 1.0, 15.5, 3.0)" width="1.95" xlink:href="#sprite12"/>
        <use height="0.9" transform="matrix(1.0, 0.0, 0.0, 1.0, 19.0, 2.4)" width="1.35" xlink:href="#sprite13"/>
        <use height="1.25" transform="matrix(1.0, 0.0, 0.0, 1.0, 21.85, 2.45)" width="3.35" xlink:href="#sprite14"/>
        <use height="1.3" transform="matrix(1.0, 0.0, 0.0, 1.0, 27.65, 6.1)" width="2.05" xlink:href="#sprite15"/>
        <use height="1.4" transform="matrix(1.0, 0.0, 0.0, 1.0, 24.05, 5.6)" width="2.55" xlink:href="#sprite16"/>
        <use height="1.3" transform="matrix(1.0, 0.0, 0.0, 1.0, 19.7, 4.35)" width="1.75" xlink:href="#sprite17"/>
        <use height="0.9" transform="matrix(1.0, 0.0, 0.0, 1.0, 26.6, 8.4)" width="2.4" xlink:href="#sprite18"/>
        <use height="0.8" transform="matrix(1.0, 0.0, 0.0, 1.0, 22.4, 8.65)" width="1.75" xlink:href="#sprite19"/>
        <use height="1.9" transform="matrix(1.0, 0.0, 0.0, 1.0, 21.5, 11.5)" width="2.85" xlink:href="#sprite20"/>
        <use height="1.45" transform="matrix(1.0, 0.0, 0.0, 1.0, 27.2, 11.15)" width="2.4" xlink:href="#sprite21"/>
        <use height="0.75" transform="matrix(1.0, 0.0, 0.0, 1.0, 31.7, 8.9)" width="1.3" xlink:href="#sprite22"/>
        <use height="0.9" transform="matrix(1.0, 0.0, 0.0, 1.0, 29.5, 4.35)" width="1.7" xlink:href="#sprite23"/>
        <use height="1.55" transform="matrix(1.0, 0.0, 0.0, 1.0, 33.1, 5.05)" width="1.6" xlink:href="#sprite24"/>
        <use height="1.15" transform="matrix(1.0, 0.0, 0.0, 1.0, 35.75, 10.5)" width="1.65" xlink:href="#sprite25"/>
        <use height="0.8" transform="matrix(1.0, 0.0, 0.0, 1.0, 28.2, 14.25)" width="0.95" xlink:href="#sprite26"/>
        <use height="23.9" transform="matrix(1.0, 0.0, 0.0, 1.0, 0.0, 1.9)" width="46.8" xlink:href="#shape13"/>
      </g>
    </g>
    <g id="shape11" transform="matrix(1.0, 0.0, 0.0, 1.0, 0.05, 0.25)">
      <path d="M27.9 -0.25 L28.65 -0.2 33.25 0.45 37.6 1.4 39.7 1.85 Q42.15 2.45 44.0 4.05 45.6 5.3 46.65 7.35 47.1 8.25 46.9 9.15 46.45 11.55 45.15 13.55 L42.45 17.1 39.1 20.15 Q37.25 21.5 36.1 21.5 34.95 21.5 31.9 22.7 28.8 23.9 27.75 23.55 L26.05 23.6 Q25.4 24.05 24.7 24.1 L23.6 24.0 22.25 23.35 19.35 23.2 16.2 23.35 Q14.95 23.05 14.1 22.4 13.25 21.75 11.85 21.75 L9.7 21.4 Q7.45 20.35 5.75 18.75 L2.55 15.15 Q1.3 13.35 0.5 11.35 0.0 10.05 -0.05 8.9 -0.15 7.6 0.55 6.65 1.7 5.15 3.45 4.05 4.9 3.0 6.6 2.4 8.5 1.75 10.35 1.35 L14.55 0.6 19.3 0.05 22.7 -0.25 27.9 -0.25" fill="#ff0000" fill-opacity="0.53333336" fill-rule="evenodd" stroke="none"/>
    </g>
    <g id="shape12" transform="matrix(1.0, 0.0, 0.0, 1.0, -0.1, 0.0)">
      <path d="M39.4 2.6 Q46.05 5.1 46.05 8.6 46.05 12.15 39.4 14.6 32.8 17.1 23.4 17.1 14.05 17.1 7.4 14.6 0.8 12.15 0.8 8.6 0.8 5.1 7.4 2.6 14.05 0.1 23.4 0.1 32.8 0.1 39.4 2.6" fill="url(#gradient16)" fill-rule="evenodd" stroke="none"/>
      <path d="M46.7 8.0 L45.25 8.0 Q44.8 4.9 38.5 2.75 32.25 0.6 23.5 0.6 14.8 0.6 8.55 2.75 2.25 4.9 1.8 8.0 L0.1 8.0 Q0.9 4.6 7.55 2.3 14.3 0.0 23.4 0.0 32.55 0.0 39.25 2.3 45.9 4.6 46.7 8.0" fill="#f5f5f5" fill-rule="evenodd" stroke="none"/>
      <path d="M42.6 12.95 L39.1 14.4 32.35 15.85 22.35 16.65 Q18.3 16.5 12.05 15.1 6.6 13.85 5.35 13.15 L4.0 12.55 Q2.95 11.0 3.6 10.15 4.05 9.6 5.05 9.7 L5.95 9.9 Q6.15 8.25 7.5 7.7 8.85 7.15 9.4 7.4 L9.4 6.65 Q9.55 5.85 10.15 5.55 11.05 5.05 12.2 6.0 L12.5 5.65 Q12.95 5.25 13.65 5.1 L14.75 4.9 Q14.75 4.55 14.9 4.15 15.25 3.35 16.3 2.95 L17.95 2.9 18.35 3.3 18.75 2.8 Q19.25 2.3 19.95 2.25 21.05 2.1 21.5 2.65 L22.3 2.35 24.25 2.15 Q25.85 2.35 26.35 3.45 L26.95 3.2 28.35 3.15 Q29.4 3.45 29.2 4.2 L29.8 4.0 31.5 4.25 Q32.9 4.8 32.95 5.2 L33.45 4.85 34.85 4.65 Q36.05 4.9 36.35 6.5 L37.1 6.45 Q37.95 6.5 38.75 6.9 40.0 7.6 40.25 8.25 L40.8 8.15 Q41.5 8.1 42.1 8.5 43.0 9.2 42.2 10.6 L43.15 10.55 Q44.15 10.65 44.4 11.2 44.7 11.85 42.6 12.95" fill="url(#gradient17)" fill-rule="evenodd" stroke="none"/>
      <path d="M5.85 10.4 L6.05 10.95 Q6.25 11.55 6.05 11.9 L5.4 12.3 Q4.1 12.55 3.9 11.5 L4.65 11.5 Q5.4 11.5 5.85 10.4" fill="#672510" fill-rule="evenodd" stroke="none"/>
      <path d="M7.3 13.15 Q8.1 13.5 9.1 12.4 L8.9 12.8 Q8.25 14.3 6.75 14.0 6.15 13.85 6.05 13.35 5.95 13.05 6.2 12.4 L6.5 11.85 6.6 12.4 Q6.8 12.95 7.3 13.15" fill="#672510" fill-rule="evenodd" stroke="none"/>
      <path d="M24.9 11.9 L25.0 11.35 Q25.6 12.35 24.85 13.35 24.1 14.35 22.6 14.9 L22.5 15.15 23.6 15.4 25.6 15.05 26.55 14.35 26.75 13.9 26.7 14.9 27.25 15.05 27.7 15.35 Q28.25 15.55 28.85 15.15 L29.7 14.4 29.05 14.15 28.05 13.9 26.65 13.6 25.85 12.8 25.55 12.65 Q26.1 12.5 26.15 11.9 26.2 11.55 26.65 11.25 L27.05 11.05 26.9 12.15 26.95 12.8 Q27.25 13.35 28.35 13.15 29.55 12.95 30.05 12.3 30.45 11.75 30.15 11.4 L29.85 11.05 30.4 11.5 30.9 12.5 Q30.9 13.15 30.55 13.35 L31.1 13.6 Q31.85 13.7 32.55 13.05 33.55 12.15 33.55 11.7 33.7 13.2 32.85 13.8 31.3 14.9 30.05 14.5 L29.9 14.45 Q30.2 15.6 29.55 15.85 28.1 16.6 27.3 16.3 L26.1 15.75 25.75 15.9 18.8 16.25 Q17.9 16.2 17.25 15.8 L14.55 15.85 Q12.85 15.4 12.75 14.3 L13.0 13.35 13.3 13.5 13.75 14.0 Q14.0 14.65 16.65 14.65 17.8 14.65 18.25 14.0 L18.5 13.3 18.6 14.35 19.1 14.9 Q19.65 15.45 20.1 15.3 20.5 15.2 20.55 14.55 L20.6 13.55 20.8 13.05 20.8 13.75 Q21.0 14.35 22.25 14.1 23.6 13.85 24.3 13.1 24.85 12.5 24.9 11.9" fill="#672510" fill-rule="evenodd" stroke="none"/>
      <path d="M42.65 11.0 L44.1 11.1 40.55 13.6 Q39.65 14.3 37.55 14.7 L34.5 14.9 Q33.6 14.8 33.35 14.5 L33.25 14.25 34.85 14.25 Q35.7 14.2 37.85 13.1 L35.95 13.2 34.8 13.0 35.35 12.8 37.0 11.9 Q38.5 11.0 38.3 9.9 L37.25 10.25 36.1 10.25 35.5 10.15 35.95 9.85 37.0 8.75 Q37.45 8.05 37.0 7.3 L36.4 6.75 37.35 6.85 38.8 7.1 Q39.5 7.4 39.75 8.15 39.8 8.6 40.25 8.6 41.5 8.6 42.05 9.3 42.6 10.0 41.6 10.65 L42.65 11.0" fill="#672510" fill-rule="evenodd" stroke="none"/>
      <path d="M35.65 7.55 Q35.1 8.05 34.0 8.0 L33.0 7.85 33.4 7.7 34.35 7.05 Q35.05 6.4 35.1 5.5 36.6 6.75 35.65 7.55" fill="#672510" fill-rule="evenodd" stroke="none"/>
      <path d="M32.85 9.9 Q33.8 9.5 33.4 8.9 L34.1 9.1 Q34.85 9.4 34.8 9.8 34.75 10.55 32.75 10.65 L31.6 10.55 31.4 10.4 32.85 9.9" fill="#672510" fill-rule="evenodd" stroke="none"/>
      <path d="M34.0 12.25 L33.65 11.95 33.55 11.65 33.7 11.55 34.15 11.5 34.9 11.25 35.5 10.9 35.0 12.0 34.0 12.25" fill="#672510" fill-rule="evenodd" stroke="none"/>
      <path d="M28.9 9.75 Q30.05 9.65 30.25 8.65 L30.3 9.65 Q30.25 10.1 29.65 10.5 28.8 11.05 27.5 11.0 26.25 10.95 26.0 10.25 L26.0 9.6 27.05 9.7 28.9 9.75" fill="#672510" fill-rule="evenodd" stroke="none"/>
      <path d="M30.25 8.65 Q29.7 8.75 29.7 8.25 L29.8 7.75 30.6 7.35 Q31.15 7.0 30.85 6.1 L31.4 6.2 Q31.95 6.4 32.0 6.85 32.05 7.4 31.45 8.0 30.9 8.6 30.25 8.65" fill="#672510" fill-rule="evenodd" stroke="none"/>
      <path d="M32.05 5.8 L31.25 5.85 30.8 5.65 31.4 5.5 Q31.8 5.3 31.8 4.65 L32.95 5.2 32.05 5.8" fill="#672510" fill-rule="evenodd" stroke="none"/>
      <path d="M25.05 10.1 Q24.4 10.75 23.5 10.85 22.55 11.0 22.2 10.35 L22.0 9.65 Q22.5 10.05 22.9 10.0 L23.65 9.85 Q24.35 9.8 26.4 8.4 L26.25 8.85 25.8 9.25 25.05 10.1" fill="#672510" fill-rule="evenodd" stroke="none"/>
      <path d="M19.4 12.15 Q18.8 12.15 18.75 11.8 L18.85 11.4 20.15 11.5 21.55 10.5 21.55 10.9 20.85 11.7 Q20.1 12.15 19.4 12.15" fill="#672510" fill-rule="evenodd" stroke="none"/>
      <path d="M22.55 9.0 Q22.25 9.0 22.3 8.4 22.35 8.05 22.95 7.4 L23.55 6.8 23.4 7.3 Q23.5 7.75 24.55 7.6 26.25 7.4 27.6 6.1 L26.1 7.8 25.25 8.35 24.75 8.5 23.4 8.6 22.55 9.0" fill="#672510" fill-rule="evenodd" stroke="none"/>
      <path d="M12.25 11.85 L12.05 11.25 Q12.0 10.95 12.55 10.3 L13.1 9.75 13.0 10.15 Q13.1 10.6 14.05 10.65 15.55 10.8 16.6 9.55 16.25 10.6 15.5 11.15 14.75 11.75 13.55 12.0 L12.5 13.1 10.55 13.3 Q11.8 13.15 12.15 12.55 12.4 12.15 12.25 11.85" fill="#672510" fill-rule="evenodd" stroke="none"/>
      <path d="M13.25 7.6 Q14.25 7.25 14.75 6.55 15.1 7.25 14.35 7.85 13.6 8.5 12.3 8.8 L11.5 9.55 10.8 9.35 10.4 9.15 10.4 8.75 10.15 9.65 Q9.4 11.1 7.65 11.05 6.65 11.0 6.2 10.45 L5.95 9.9 6.3 9.1 6.6 8.75 Q7.3 10.15 8.65 10.0 10.05 9.8 10.4 8.35 L10.45 8.6 11.55 8.55 12.1 7.65 12.3 7.8 13.25 7.6" fill="#672510" fill-rule="evenodd" stroke="none"/>
      <path d="M10.8 6.85 L12.3 6.65 12.5 6.35 12.05 7.3 11.8 7.4 11.1 7.35 Q10.9 7.35 10.5 7.6 L10.15 7.85 9.75 7.35 9.6 6.9 9.6 6.65 9.9 6.75 10.8 6.85" fill="#672510" fill-rule="evenodd" stroke="none"/>
      <path d="M21.1 4.0 L20.4 4.25 19.55 4.15 18.5 4.3 17.6 4.95 Q16.95 5.4 17.0 5.6 L17.05 6.0 16.5 5.75 Q16.25 5.6 16.0 5.75 L15.8 5.9 15.25 6.15 15.4 5.55 15.65 4.9 16.25 4.9 17.35 4.55 18.05 4.05 18.35 3.3 18.7 3.55 19.8 3.6 Q20.75 3.4 21.5 2.65 21.8 3.75 21.1 4.0" fill="#672510" fill-rule="evenodd" stroke="none"/>
      <path d="M17.05 7.65 Q17.85 7.4 18.0 6.85 17.85 7.7 17.25 8.15 L16.3 8.75 Q16.05 8.35 15.4 8.4 L14.3 8.6 Q15.2 8.1 16.05 7.55 L16.2 7.75 17.05 7.65" fill="#672510" fill-rule="evenodd" stroke="none"/>
      <path d="M19.1 5.75 L19.7 6.0 Q20.4 6.2 21.0 5.65 L22.25 4.55 Q21.8 6.15 21.05 6.5 L19.9 7.0 Q19.3 7.2 19.15 7.0 L19.05 6.25 19.1 5.75" fill="#672510" fill-rule="evenodd" stroke="none"/>
      <path d="M21.3 7.5 Q21.15 8.85 20.1 8.85 L18.65 8.6 18.9 8.25 19.15 8.05 19.6 8.25 20.5 8.25 21.3 7.5" fill="#672510" fill-rule="evenodd" stroke="none"/>
      <path d="M23.65 5.35 Q22.85 5.35 22.9 4.9 L23.1 4.4 24.55 4.25 Q25.75 4.05 25.4 3.25 25.9 2.65 26.35 3.45 L25.85 4.1 25.3 5.1 23.65 5.35" fill="#672510" fill-rule="evenodd" stroke="none"/>
      <path d="M25.8 5.6 L26.15 5.05 27.55 4.6 Q28.4 4.3 28.65 3.55 29.0 3.8 29.15 4.5 L28.55 5.0 28.15 5.45 28.05 5.75 27.4 5.5 26.4 5.45 25.8 5.6" fill="#672510" fill-rule="evenodd" stroke="none"/>
    </g>
    <linearGradient gradientTransform="matrix(0.0276, 0.0, 0.0, -0.0276, 23.4, 8.6)" gradientUnits="userSpaceOnUse" id="gradient16" spreadMethod="pad" x1="-819.2" x2="819.2">
      <stop offset="0.0" stop-color="#7d7d7d"/>
      <stop offset="1.0" stop-color="#d4d4d4"/>
    </linearGradient>
    <linearGradient gradientTransform="matrix(0.0251, 0.0, 0.0, -0.0251, 23.9, 9.4)" gradientUnits="userSpaceOnUse" id="gradient17" spreadMethod="pad" x1="-819.2" x2="819.2">
      <stop offset="0.0" stop-color="#a8471d"/>
      <stop offset="1.0" stop-color="#732911"/>
    </linearGradient>
    <g id="shape13" transform="matrix(1.0, 0.0, 0.0, 1.0, 0.0, -1.9)">
      <path d="M19.65 8.5 Q21.55 8.65 20.35 9.35 19.05 10.15 18.45 9.75 18.0 9.4 18.5 8.95 18.95 8.45 19.65 8.5" fill="#672510" fill-rule="evenodd" stroke="none"/>
      <path d="M19.1 5.9 Q20.4 5.6 20.15 6.35 19.85 7.1 18.85 7.25 17.95 7.4 18.1 6.75 18.3 6.05 19.1 5.9" fill="#672510" fill-rule="evenodd" stroke="none"/>
      <path d="M16.35 7.45 Q17.7 7.45 17.5 8.15 17.3 8.8 16.05 8.8 14.85 8.8 15.1 8.15 15.35 7.45 16.35 7.45" fill="#672510" fill-rule="evenodd" stroke="none"/>
      <path d="M16.7 9.5 Q17.55 9.65 17.15 10.25 16.7 10.8 15.8 10.55 14.95 10.35 15.55 9.9 16.15 9.4 16.7 9.5" fill="#672510" fill-rule="evenodd" stroke="none"/>
      <path d="M22.1 2.45 Q23.5 2.35 23.2 3.25 22.85 4.2 21.9 4.15 21.05 4.05 21.1 3.3 21.15 2.5 22.1 2.45" fill="#672510" fill-rule="evenodd" stroke="none"/>
      <path d="M29.15 4.45 Q30.0 4.6 29.7 5.1 29.4 5.6 28.7 5.45 28.1 5.3 28.25 4.8 28.4 4.35 29.15 4.45" fill="#672510" fill-rule="evenodd" stroke="none"/>
      <path d="M30.1 7.15 Q31.15 7.25 30.9 7.8 30.7 8.35 29.85 8.15 29.1 8.0 29.3 7.5 29.55 7.05 30.1 7.15" fill="#672510" fill-rule="evenodd" stroke="none"/>
      <path d="M32.95 6.0 Q34.3 6.15 33.75 6.75 33.2 7.4 32.3 7.2 31.5 7.0 31.8 6.45 32.1 5.95 32.95 6.0" fill="#672510" fill-rule="evenodd" stroke="none"/>
      <path d="M30.9 8.95 Q32.25 9.2 31.8 9.65 L30.4 9.8 Q29.6 9.55 30.05 9.2 30.55 8.85 30.9 8.95" fill="#672510" fill-rule="evenodd" stroke="none"/>
      <path d="M26.4 7.2 Q27.1 7.0 27.15 7.55 27.15 8.1 26.55 8.25 26.0 8.4 26.0 7.85 25.95 7.3 26.4 7.2" fill="#672510" fill-rule="evenodd" stroke="none"/>
      <path d="M25.55 10.15 Q26.3 10.15 26.2 10.7 26.05 11.25 25.2 11.3 24.4 11.4 24.65 10.8 24.9 10.15 25.55 10.15" fill="#672510" fill-rule="evenodd" stroke="none"/>
      <path d="M11.6 8.65 Q12.4 8.75 12.1 9.2 L10.95 9.55 Q10.1 9.5 10.45 9.05 10.8 8.55 11.6 8.65" fill="#672510" fill-rule="evenodd" stroke="none"/>
      <path d="M25.15 4.15 Q26.0 3.85 26.0 4.5 26.0 5.2 25.4 5.05 24.9 5.0 24.8 4.6 24.75 4.25 25.15 4.15" fill="#672510" fill-rule="evenodd" stroke="none"/>
      <path d="M19.55 7.95 Q21.45 8.1 20.25 8.8 18.9 9.6 18.35 9.2 17.85 8.85 18.35 8.4 18.85 7.9 19.55 7.95" fill="url(#gradient18)" fill-rule="evenodd" stroke="none"/>
      <path d="M18.95 5.3 Q20.3 5.05 20.0 5.8 19.7 6.55 18.7 6.7 17.8 6.85 18.0 6.15 18.15 5.5 18.95 5.3" fill="url(#gradient19)" fill-rule="evenodd" stroke="none"/>
      <path d="M16.2 6.9 Q17.55 6.9 17.4 7.6 17.2 8.25 15.9 8.25 14.7 8.25 14.95 7.6 15.2 6.9 16.2 6.9" fill="url(#gradient20)" fill-rule="evenodd" stroke="none"/>
      <path d="M16.6 8.95 Q17.4 9.1 17.0 9.65 16.55 10.2 15.65 10.0 14.8 9.8 15.4 9.35 16.0 8.85 16.6 8.95" fill="url(#gradient21)" fill-rule="evenodd" stroke="none"/>
      <path d="M21.95 1.9 Q23.35 1.8 23.05 2.7 22.75 3.65 21.8 3.55 20.9 3.5 20.95 2.75 21.0 1.95 21.95 1.9" fill="url(#gradient22)" fill-rule="evenodd" stroke="none"/>
      <path d="M29.05 3.9 Q29.85 4.0 29.55 4.5 29.25 5.0 28.6 4.9 28.0 4.75 28.15 4.25 28.3 3.8 29.05 3.9" fill="url(#gradient23)" fill-rule="evenodd" stroke="none"/>
      <path d="M29.95 6.55 Q31.0 6.7 30.8 7.2 30.55 7.75 29.7 7.55 28.95 7.4 29.15 6.95 29.35 6.5 29.95 6.55" fill="url(#gradient24)" fill-rule="evenodd" stroke="none"/>
      <path d="M32.85 5.45 Q34.2 5.6 33.65 6.2 33.05 6.85 32.15 6.65 31.35 6.45 31.65 5.9 31.95 5.4 32.85 5.45" fill="url(#gradient25)" fill-rule="evenodd" stroke="none"/>
      <path d="M30.8 8.4 Q32.1 8.65 31.7 9.1 L30.3 9.25 Q29.5 9.0 29.95 8.65 30.4 8.3 30.8 8.4" fill="url(#gradient26)" fill-rule="evenodd" stroke="none"/>
      <path d="M26.3 6.65 Q27.0 6.45 27.0 7.0 27.0 7.55 26.4 7.7 25.85 7.85 25.85 7.3 25.85 6.75 26.3 6.65" fill="url(#gradient27)" fill-rule="evenodd" stroke="none"/>
      <path d="M25.4 9.55 Q26.15 9.55 26.05 10.1 25.9 10.7 25.1 10.75 24.3 10.85 24.5 10.2 24.75 9.55 25.4 9.55" fill="url(#gradient28)" fill-rule="evenodd" stroke="none"/>
      <path d="M11.45 8.05 Q12.2 8.15 12.0 8.6 11.75 9.05 10.85 9.0 9.95 8.95 10.3 8.45 10.65 8.0 11.45 8.05" fill="url(#gradient29)" fill-rule="evenodd" stroke="none"/>
      <path d="M25.05 3.55 Q25.9 3.25 25.9 3.95 25.85 4.65 25.3 4.5 24.8 4.45 24.7 4.05 24.65 3.7 25.05 3.55" fill="url(#gradient30)" fill-rule="evenodd" stroke="none"/>
      <path d="M45.25 7.95 L46.7 7.95 46.8 8.75 Q46.8 12.4 39.95 14.95 33.1 17.5 23.4 17.5 13.7 17.5 6.85 14.95 0.0 12.4 0.0 8.75 L0.1 7.95 1.8 7.95 1.8 8.4 Q1.8 11.65 8.15 13.9 14.5 16.2 23.5 16.2 32.55 16.2 38.9 13.9 45.25 11.65 45.25 8.4 L45.25 7.95" fill="#f5f5f5" fill-rule="evenodd" stroke="none"/>
      <path d="M24.25 23.15 L25.4 22.95 27.35 22.4 29.9 22.45 Q31.4 22.85 36.35 20.6 41.3 18.35 37.45 22.35 33.6 26.3 21.65 25.7 9.7 25.05 8.65 21.0 L11.4 21.05 Q13.5 21.85 14.45 21.9 15.4 21.9 16.7 22.55 L19.1 22.75 Q20.25 22.35 21.5 22.75 L23.4 23.15 24.25 23.15" fill="#666666" fill-opacity="0.9843137" fill-rule="evenodd" stroke="none"/>
    </g>
    <linearGradient gradientTransform="matrix(0.0015, 0.0, 0.0, -0.0015, 19.4, 8.6)" gradientUnits="userSpaceOnUse" id="gradient18" spreadMethod="pad" x1="-819.2" x2="819.2">
      <stop offset="0.0" stop-color="#c27c3a"/>
      <stop offset="1.0" stop-color="#a85d08"/>
    </linearGradient>
    <linearGradient gradientTransform="matrix(0.0013, 0.0, 0.0, -0.0013, 19.0, 6.0)" gradientUnits="userSpaceOnUse" id="gradient19" spreadMethod="pad" x1="-819.2" x2="819.2">
      <stop offset="0.0" stop-color="#c27c3a"/>
      <stop offset="1.0" stop-color="#a85d08"/>
    </linearGradient>
    <linearGradient gradientTransform="matrix(0.0015, 0.0, 0.0, -0.0015, 16.15, 7.55)" gradientUnits="userSpaceOnUse" id="gradient20" spreadMethod="pad" x1="-819.2" x2="819.2">
      <stop offset="0.0" stop-color="#c27c3a"/>
      <stop offset="1.0" stop-color="#a85d08"/>
    </linearGradient>
    <linearGradient gradientTransform="matrix(0.0012, 0.0, 0.0, -0.0012, 16.15, 9.5)" gradientUnits="userSpaceOnUse" id="gradient21" spreadMethod="pad" x1="-819.2" x2="819.2">
      <stop offset="0.0" stop-color="#c27c3a"/>
      <stop offset="1.0" stop-color="#a85d08"/>
    </linearGradient>
    <linearGradient gradientTransform="matrix(0.0013, 0.0, 0.0, -0.0013, 22.0, 2.75)" gradientUnits="userSpaceOnUse" id="gradient22" spreadMethod="pad" x1="-819.2" x2="819.2">
      <stop offset="0.0" stop-color="#c27c3a"/>
      <stop offset="1.0" stop-color="#a85d08"/>
    </linearGradient>
    <linearGradient gradientTransform="matrix(9.0E-4, 0.0, 0.0, -9.0E-4, 28.85, 4.4)" gradientUnits="userSpaceOnUse" id="gradient23" spreadMethod="pad" x1="-819.2" x2="819.2">
      <stop offset="0.0" stop-color="#c27c3a"/>
      <stop offset="1.0" stop-color="#a85d08"/>
    </linearGradient>
    <linearGradient gradientTransform="matrix(0.001, 0.0, 0.0, -0.001, 30.0, 7.1)" gradientUnits="userSpaceOnUse" id="gradient24" spreadMethod="pad" x1="-819.2" x2="819.2">
      <stop offset="0.0" stop-color="#c27c3a"/>
      <stop offset="1.0" stop-color="#a85d08"/>
    </linearGradient>
    <linearGradient gradientTransform="matrix(0.0013, 0.0, 0.0, -0.0013, 32.7, 6.05)" gradientUnits="userSpaceOnUse" id="gradient25" spreadMethod="pad" x1="-819.2" x2="819.2">
      <stop offset="0.0" stop-color="#c27c3a"/>
      <stop offset="1.0" stop-color="#a85d08"/>
    </linearGradient>
    <linearGradient gradientTransform="matrix(0.0012, 0.0, 0.0, -0.0012, 30.8, 8.85)" gradientUnits="userSpaceOnUse" id="gradient26" spreadMethod="pad" x1="-819.2" x2="819.2">
      <stop offset="0.0" stop-color="#c27c3a"/>
      <stop offset="1.0" stop-color="#a85d08"/>
    </linearGradient>
    <linearGradient gradientTransform="matrix(7.0E-4, 0.0, 0.0, -7.0E-4, 26.45, 7.15)" gradientUnits="userSpaceOnUse" id="gradient27" spreadMethod="pad" x1="-819.2" x2="819.2">
      <stop offset="0.0" stop-color="#c27c3a"/>
      <stop offset="1.0" stop-color="#a85d08"/>
    </linearGradient>
    <linearGradient gradientTransform="matrix(9.0E-4, 0.0, 0.0, -9.0E-4, 25.25, 10.15)" gradientUnits="userSpaceOnUse" id="gradient28" spreadMethod="pad" x1="-819.2" x2="819.2">
      <stop offset="0.0" stop-color="#c27c3a"/>
      <stop offset="1.0" stop-color="#a85d08"/>
    </linearGradient>
    <linearGradient gradientTransform="matrix(0.0011, 0.0, 0.0, -0.0011, 11.15, 8.55)" gradientUnits="userSpaceOnUse" id="gradient29" spreadMethod="pad" x1="-819.2" x2="819.2">
      <stop offset="0.0" stop-color="#c27c3a"/>
      <stop offset="1.0" stop-color="#a85d08"/>
    </linearGradient>
    <linearGradient gradientTransform="matrix(7.0E-4, 0.0, 0.0, -7.0E-4, 25.3, 4.0)" gradientUnits="userSpaceOnUse" id="gradient30" spreadMethod="pad" x1="-819.2" x2="819.2">
      <stop offset="0.0" stop-color="#c27c3a"/>
      <stop offset="1.0" stop-color="#a85d08"/>
    </linearGradient>
    <g id="shape14" transform="matrix(1.0, 0.0, 0.0, 1.0, -9.2, -9.55)">
      <path d="M29.5 19.5 L29.45 19.6 Q29.45 20.2 30.0 20.1 L33.05 19.55 33.65 19.1 Q34.1 18.75 34.4 18.65 L36.6 17.95 Q37.55 17.55 37.4 16.95 37.4 16.15 36.6 16.35 L37.4 16.15 Q38.0 16.15 38.05 17.4 L37.85 18.4 37.85 18.45 37.75 18.5 Q37.4 19.1 36.25 19.15 35.55 19.25 35.45 18.8 35.4 18.25 35.25 19.1 L34.9 20.8 Q34.65 21.55 34.15 21.35 33.9 21.25 33.8 20.7 33.6 20.15 33.25 20.15 32.85 20.1 32.8 20.3 L31.8 20.65 Q31.7 20.65 31.55 20.5 31.4 20.45 30.95 21.15 L29.95 21.25 29.3 20.65 29.1 20.0 29.5 19.5 M12.1 9.75 L11.6 10.7 11.2 11.75 11.35 12.55 11.6 13.4 11.75 14.2 11.95 15.05 11.75 15.25 Q11.0 15.25 10.8 14.35 L10.55 13.55 10.25 13.0 9.7 11.95 9.65 10.9 9.7 10.05 Q10.1 9.55 11.35 9.55 L12.1 9.75 M11.3 14.45 L11.0 14.7 11.3 14.9 11.55 14.65 11.3 14.45 M11.3 10.05 L10.6 9.85 Q9.95 9.85 9.95 10.4 L10.1 10.75 Q10.25 10.95 10.65 10.95 L11.35 10.75 11.55 10.4 11.3 10.05 M12.4 26.0 L12.4 26.05 11.6 26.55 Q10.7 26.9 10.55 27.7 L10.55 28.95 Q10.55 30.15 10.1 30.05 L9.55 29.75 9.55 29.7 9.5 29.65 9.5 29.6 Q9.2 29.35 9.2 28.5 9.2 27.5 9.4 27.05 L9.95 26.35 10.1 26.65 10.55 26.8 11.6 26.45 12.15 26.05 12.05 25.9 12.35 26.0 12.4 26.0 M10.25 29.2 L10.1 29.1 Q9.8 29.1 9.8 29.4 L9.8 29.5 10.1 29.65 10.25 29.6 10.25 29.2" fill="#823114" fill-rule="evenodd" stroke="none"/>
      <path d="M29.1 20.0 L29.3 20.65 29.95 21.25 30.95 21.15 Q31.4 20.45 31.55 20.5 31.7 20.65 31.8 20.65 L32.8 20.3 Q32.85 20.1 33.25 20.15 33.6 20.15 33.8 20.7 33.9 21.25 34.15 21.35 34.65 21.55 34.9 20.8 L35.25 19.1 Q35.4 18.25 35.45 18.8 35.55 19.25 36.25 19.15 37.4 19.1 37.75 18.5 L37.7 18.75 35.75 20.25 35.5 21.75 Q35.15 23.05 34.25 23.05 33.25 23.1 33.45 22.1 33.6 21.1 32.75 21.25 31.85 21.4 31.4 21.75 L30.6 22.65 29.45 22.55 Q28.8 21.9 28.7 20.95 28.7 20.45 29.1 20.0 M12.1 9.75 L12.55 10.0 12.8 10.7 12.45 11.3 12.05 11.6 12.35 12.85 12.7 14.3 12.65 15.05 Q12.45 15.6 11.85 15.6 10.95 15.6 10.6 14.5 L10.55 13.55 10.8 14.35 Q11.0 15.25 11.75 15.25 L11.95 15.05 11.75 14.2 11.6 13.4 11.35 12.55 11.2 11.75 11.6 10.7 12.1 9.75 M9.55 29.75 L10.1 30.05 Q10.55 30.15 10.55 28.95 L10.55 27.7 Q10.7 26.9 11.6 26.55 L12.4 26.05 12.4 26.0 Q12.75 26.05 12.75 26.55 12.75 27.05 12.2 27.1 11.75 27.1 11.45 27.75 11.15 28.3 11.15 28.6 L11.3 29.85 Q11.45 30.85 10.4 30.55 9.8 30.3 9.55 29.75" fill="#672510" fill-rule="evenodd" stroke="none"/>
      <path d="M36.6 16.35 Q37.4 16.15 37.4 16.95 37.55 17.55 36.6 17.95 L34.4 18.65 Q34.1 18.75 33.65 19.1 L33.05 19.55 30.0 20.1 Q29.45 20.2 29.45 19.6 L29.5 19.5 Q29.3 19.2 31.85 18.85 34.5 18.55 35.3 17.65 L36.3 16.6 Q36.4 16.3 36.6 16.35 M11.3 10.05 L11.55 10.4 11.35 10.75 10.65 10.95 Q10.25 10.95 10.1 10.75 L9.95 10.4 Q9.95 9.85 10.6 9.85 L11.3 10.05 M11.3 14.45 L11.55 14.65 11.3 14.9 11.0 14.7 11.3 14.45 M12.05 25.9 L12.15 26.05 11.6 26.45 10.55 26.8 10.1 26.65 9.95 26.35 Q10.05 26.0 10.2 26.0 L10.75 25.95 11.3 25.75 12.05 25.9 M10.25 29.2 L10.25 29.6 10.1 29.65 9.8 29.5 9.8 29.4 Q9.8 29.1 10.1 29.1 L10.25 29.2" fill="#c45b2e" fill-rule="evenodd" stroke="none"/>
    </g>
  </defs>
</svg>
