<?xml version="1.0" encoding="UTF-8" standalone="no"?>
<svg xmlns:xlink="http://www.w3.org/1999/xlink" height="109.85px" width="227.5px" xmlns="http://www.w3.org/2000/svg">
  <g transform="matrix(1.0, 0.0, 0.0, 1.0, 0.0, 0.0)">
    <use height="5.0" transform="matrix(1.0, 0.0, 0.0, 1.0, 36.3, 123.6)" width="13.5" xlink:href="#sprite0"/>
    <use height="5.0" transform="matrix(1.0, 0.0, 0.0, 1.0, 178.05, 124.85)" width="13.5" xlink:href="#sprite1"/>
    <use height="107.95" transform="matrix(1.0, 0.0, 0.0, 1.0, 0.0, 20.1)" width="227.5" xlink:href="#shape1"/>
    <use height="8.0" transform="matrix(1.0, 0.0, 0.0, 1.0, 40.4, 72.15)" width="45.85" xlink:href="#sprite2"/>
    <use height="34.1" transform="matrix(1.0, 0.0, 0.0, 1.0, 42.65, 44.85)" width="40.4" xlink:href="#shape3"/>
    <use height="25.85" transform="matrix(1.0, 0.0, 0.0, 1.0, 48.35, 50.15)" width="34.35" xlink:href="#sprite3"/>
    <use height="35.15" transform="matrix(1.0, 0.0, 0.0, 1.0, 42.2, 45.15)" width="154.2" xlink:href="#shape5"/>
    <use height="8.0" transform="matrix(1.0, 0.0, 0.0, 1.0, 144.05, 72.15)" width="45.85" xlink:href="#sprite4"/>
    <use height="34.1" transform="matrix(1.0, 0.0, 0.0, 1.0, 147.25, 44.85)" width="40.4" xlink:href="#shape7"/>
    <use height="25.85" transform="matrix(1.0, 0.0, 0.0, 1.0, 147.6, 50.15)" width="34.35" xlink:href="#sprite5"/>
    <use height="59.05" transform="matrix(1.0, 0.0, 0.0, 1.0, 39.4, 20.0)" width="151.55" xlink:href="#shape9"/>
    <use height="20.0" transform="matrix(1.0, 0.0, 0.0, 1.0, 19.2, 105.95)" width="188.0" xlink:href="#sprite6"/>
    <use height="0.0" id="price_tag_pt" transform="matrix(1.0, 0.0, 0.0, 1.0, 113.7, 121.75)" width="0.0" xlink:href="#sprite8"/>
  </g>
  <defs>
    <g id="sprite0" transform="matrix(1.0, 0.0, 0.0, 1.0, 0.0, 0.0)">
      <use height="5.0" transform="matrix(1.0, 0.0, 0.0, 1.0, 0.0, 0.0)" width="13.5" xlink:href="#shape0"/>
    </g>
    <g id="shape0" transform="matrix(1.0, 0.0, 0.0, 1.0, 0.0, 0.0)">
      <path d="M13.5 2.5 Q13.5 3.55 11.55 4.3 9.55 5.0 6.75 5.0 3.95 5.0 2.0 4.3 0.0 3.55 0.0 2.5 0.0 1.5 2.0 0.75 4.0 0.0 6.75 0.0 9.55 0.0 11.55 0.75 13.5 1.5 13.5 2.5" fill="#141414" fill-rule="evenodd" stroke="none"/>
    </g>
    <g id="sprite1" transform="matrix(1.0, 0.0, 0.0, 1.0, 0.0, 0.0)">
      <use height="5.0" transform="matrix(1.0, 0.0, 0.0, 1.0, 0.0, 0.0)" width="13.5" xlink:href="#shape0"/>
    </g>
    <g id="shape1" transform="matrix(1.0, 0.0, 0.0, 1.0, 0.0, -20.1)">
      <path d="M34.8 108.05 L49.55 107.45 49.5 111.0 Q49.25 115.3 48.55 119.1 L46.8 127.1 43.8 127.85 40.45 127.75 39.55 127.1 37.4 120.9 Q36.1 117.05 35.3 112.15 L34.8 108.05" fill="#141414" fill-rule="evenodd" stroke="none"/>
      <path d="M37.55 108.05 L44.3 107.45 44.25 111.0 43.85 119.1 Q43.3 125.15 42.45 127.1 L39.7 127.1 38.75 120.9 Q38.15 117.05 37.8 112.15 L37.55 108.05" fill="#2b2b2b" fill-rule="evenodd" stroke="none"/>
      <path d="M39.3 108.05 L42.05 107.45 42.05 111.0 41.85 119.1 Q41.65 125.15 41.3 127.1 L40.2 127.1 39.8 120.9 39.4 112.15 39.3 108.05" fill="#4a4a4a" fill-rule="evenodd" stroke="none"/>
      <path d="M48.05 113.35 L47.55 115.85 35.8 115.85 34.8 113.35 48.05 113.35" fill="#141414" fill-rule="evenodd" stroke="none"/>
      <path d="M178.3 108.05 L193.05 107.45 193.0 111.0 Q192.75 115.3 192.05 119.1 L190.3 127.1 187.3 127.85 183.95 127.75 183.05 127.1 180.9 120.9 Q179.6 117.05 178.8 112.15 L178.3 108.05" fill="#141414" fill-rule="evenodd" stroke="none"/>
      <path d="M181.05 108.05 L187.8 107.45 187.75 111.0 187.35 119.1 Q186.8 125.15 185.95 127.1 L183.2 127.1 182.25 120.9 Q181.65 117.05 181.3 112.15 L181.05 108.05" fill="#2b2b2b" fill-rule="evenodd" stroke="none"/>
      <path d="M182.8 108.05 L185.55 107.45 185.55 111.0 185.35 119.1 Q185.15 125.15 184.8 127.1 L183.7 127.1 183.3 120.9 182.9 112.15 182.8 108.05" fill="#4a4a4a" fill-rule="evenodd" stroke="none"/>
      <path d="M191.55 113.35 L191.05 115.85 179.3 115.85 178.3 113.35 191.55 113.35" fill="#141414" fill-rule="evenodd" stroke="none"/>
      <path d="M22.45 96.65 L204.0 96.65 202.7 113.9 24.65 113.9 22.45 96.65" fill="#2b2b2b" fill-rule="evenodd" stroke="none"/>
      <path d="M22.45 96.65 L204.0 96.65 204.0 106.0 24.65 106.0 22.45 96.65" fill="#141414" fill-rule="evenodd" stroke="none"/>
      <path d="M179.0 73.8 L160.0 20.3 190.55 20.1 202.7 66.3 227.5 82.3 203.1 113.2 185.0 104.3 179.0 73.8" fill="#1e1e1e" fill-rule="evenodd" stroke="none"/>
      <path d="M44.7 74.65 L27.0 106.65 24.45 113.2 0.0 83.3 24.85 66.3 39.7 20.3 57.0 20.8 44.7 74.65" fill="#1e1e1e" fill-rule="evenodd" stroke="none"/>
      <path d="M183.75 106.55 L168.75 76.8 193.0 65.3 204.8 74.1 Q216.7 83.25 217.0 84.8 217.3 86.35 209.3 96.5 L201.25 106.3 183.75 106.55" fill="#141414" fill-rule="evenodd" stroke="none"/>
      <path d="M33.5 70.8 L45.0 23.3 182.5 24.3 195.5 70.8 33.5 70.8" fill="#141414" fill-rule="evenodd" stroke="none"/>
      <path d="M35.4 100.5 Q34.2 96.1 34.2 94.15 35.85 96.65 38.55 95.5 41.25 94.3 41.05 91.15 L41.35 92.5 42.4 96.45 Q42.95 98.15 44.9 99.15 45.75 99.6 48.85 100.45 51.55 101.2 52.6 102.1 L49.45 101.95 46.4 101.5 43.45 101.75 40.45 102.15 35.05 102.75 Q37.75 102.1 35.4 100.5" fill="#301212" fill-rule="evenodd" stroke="none"/>
      <path d="M24.25 106.15 L201.75 106.15 201.75 107.5 24.25 107.5 24.25 106.15" fill="#5e5a5b" fill-rule="evenodd" stroke="none"/>
      <path d="M30.55 107.5 L31.9 108.65 Q34.3 109.9 39.75 110.5 45.5 111.15 115.95 111.0 183.45 110.8 190.7 110.5 194.95 110.3 199.8 108.85 L203.75 107.5 202.7 113.9 25.5 113.5 Q24.9 113.9 24.4 110.4 L24.05 106.8 30.55 107.5" fill="#242424" fill-rule="evenodd" stroke="none"/>
      <path d="M24.75 110.45 L68.65 110.95 131.85 111.45 Q157.6 111.45 201.9 110.1 L203.1 113.2 24.65 113.2 24.75 110.45" fill="#1f1f1f" fill-rule="evenodd" stroke="none"/>
      <path d="M215.85 84.3 L193.5 66.0 202.7 66.3 227.5 82.3 215.85 84.3" fill="#404040" fill-rule="evenodd" stroke="none"/>
      <path d="M202.7 66.3 L205.85 70.3 Q209.25 74.55 210.5 75.8 212.5 77.8 216.0 82.8 L194.0 66.3 202.7 66.3" fill="#363636" fill-rule="evenodd" stroke="none"/>
      <path d="M202.7 66.3 Q203.0 67.8 202.0 69.3 201.4 70.25 202.0 72.0 L202.75 73.55 193.35 65.8 202.7 66.3" fill="#2b2b2b" fill-rule="evenodd" stroke="none"/>
      <path d="M226.0 81.1 L227.0 82.05 216.0 84.55 216.2 77.2 226.0 81.1" fill="#474747" fill-rule="evenodd" stroke="none"/>
      <path d="M227.2 81.65 L226.0 83.55 215.0 83.8 214.5 82.3 227.2 81.65" fill="#5e5a5b" fill-rule="evenodd" stroke="none"/>
      <path d="M216.0 84.8 L194.25 66.25 218.25 83.8 216.0 84.8" fill="#5e5a5b" fill-rule="evenodd" stroke="none"/>
      <path d="M34.5 65.3 L50.7 80.3 47.35 106.0 26.25 106.3 18.2 96.5 Q10.2 86.35 10.5 84.8 10.8 83.25 22.7 74.1 L34.5 65.3" fill="#141414" fill-rule="evenodd" stroke="none"/>
      <path d="M0.0 83.3 L24.85 66.3 34.0 66.0 11.7 84.3 0.0 83.3" fill="#404040" fill-rule="evenodd" stroke="none"/>
      <path d="M11.5 82.8 L13.5 80.05 Q15.75 77.05 17.0 75.8 19.0 73.8 24.85 66.3 L33.5 66.3 11.5 82.8" fill="#363636" fill-rule="evenodd" stroke="none"/>
      <path d="M1.55 82.1 L11.3 77.2 11.5 84.55 0.5 83.05 1.55 82.1" fill="#474747" fill-rule="evenodd" stroke="none"/>
      <path d="M0.35 82.65 L13.0 82.3 12.5 83.8 1.5 84.55 0.35 82.65" fill="#5e5a5b" fill-rule="evenodd" stroke="none"/>
      <path d="M9.25 83.8 L33.25 66.25 11.5 84.8 9.25 83.8" fill="#5e5a5b" fill-rule="evenodd" stroke="none"/>
      <path d="M39.4 20.85 L44.15 24.55 41.8 32.05 Q39.15 39.5 37.7 39.3 36.25 39.1 35.3 36.7 L34.7 34.3 39.4 20.85" fill="#303030" fill-rule="evenodd" stroke="none"/>
      <path d="M39.35 48.3 L34.0 66.0 24.85 66.3 30.7 49.65 31.3 52.15 Q32.25 54.5 33.7 53.65 36.0 52.3 39.35 48.3" fill="#242424" fill-rule="evenodd" stroke="none"/>
      <path d="M176.3 73.8 L174.0 73.65 172.0 73.65 181.5 71.8 185.35 79.65 Q182.35 78.0 180.7 76.3 179.2 74.85 176.3 73.8" fill="#301212" fill-rule="evenodd" stroke="none"/>
      <path d="M49.35 72.65 L55.35 75.0 45.0 80.3 49.0 76.0 Q49.7 75.0 49.35 72.65" fill="#301212" fill-rule="evenodd" stroke="none"/>
      <path d="M39.4 20.85 L45.0 23.3 44.7 26.3 39.4 20.85" fill="#5e5a5b" fill-rule="evenodd" stroke="none"/>
      <path d="M190.55 20.35 L186.05 24.35 186.2 23.0 190.55 20.35" fill="#5e5a5b" fill-rule="evenodd" stroke="none"/>
      <path d="M179.0 73.8 L187.35 65.65 191.35 67.0 202.85 76.2 Q214.3 85.5 214.0 86.3 212.65 89.75 206.45 96.9 L200.5 103.3 196.5 102.85 179.0 73.8" fill="#6a2b29" fill-rule="evenodd" stroke="none"/>
      <path d="M204.5 83.8 Q205.75 86.0 201.5 88.6 L197.0 90.8 Q196.0 90.55 194.95 89.95 192.8 88.7 192.5 86.8 192.2 84.95 185.55 79.2 L179.0 73.8 188.0 68.8 195.5 75.0 Q203.25 81.6 204.5 83.8" fill="#5e2726" fill-rule="evenodd" stroke="none"/>
      <path d="M197.0 90.8 L200.4 89.5 Q203.9 87.85 204.5 86.3 205.15 84.75 209.65 85.35 L214.0 86.3 200.5 103.3 196.5 102.85 197.0 90.8" fill="#4a1e1d" fill-rule="evenodd" stroke="none"/>
      <path d="M195.9 95.8 L199.45 95.25 Q203.5 94.35 206.0 92.8 210.0 90.3 214.0 86.3 L200.5 103.3 196.5 102.85 195.9 95.8" fill="#301212" fill-rule="evenodd" stroke="none"/>
      <path d="M49.5 73.8 L32.0 102.85 28.0 103.3 22.1 96.9 Q15.9 89.75 14.5 86.3 14.2 85.5 25.65 76.2 31.4 71.5 37.2 67.0 L41.2 65.65 49.5 73.8" fill="#6a2b29" fill-rule="evenodd" stroke="none"/>
      <path d="M41.95 79.2 Q35.3 84.95 35.0 86.8 34.7 88.7 32.55 89.95 L30.5 90.8 Q28.15 89.95 26.0 88.6 21.75 86.0 23.0 83.8 24.25 81.6 32.0 75.0 L39.5 68.8 48.5 73.8 Q45.25 76.3 41.95 79.2" fill="#5e2726" fill-rule="evenodd" stroke="none"/>
      <path d="M30.5 90.8 L31.0 102.85 27.0 103.3 13.5 86.3 17.9 85.35 Q22.4 84.75 23.0 86.3 23.65 87.85 27.15 89.5 L30.5 90.8" fill="#4a1e1d" fill-rule="evenodd" stroke="none"/>
      <path d="M31.6 95.8 L31.0 102.85 27.0 103.3 13.5 86.3 16.0 88.6 Q19.0 91.25 21.5 92.8 24.0 94.35 28.05 95.25 L31.6 95.8" fill="#301212" fill-rule="evenodd" stroke="none"/>
      <path d="M31.0 102.5 Q29.8 97.15 29.8 92.5 29.8 89.55 38.8 81.75 43.3 77.85 47.8 74.5 L179.0 73.8 187.85 80.7 Q196.75 88.25 197.0 91.5 197.3 95.25 196.6 99.25 L195.8 102.5 31.0 102.5" fill="#4a1e1d" fill-rule="evenodd" stroke="none"/>
      <path d="M29.85 93.75 L29.8 92.5 Q29.8 89.55 38.8 81.75 43.3 77.85 47.8 74.5 L63.05 73.95 Q83.9 73.35 111.7 73.05 139.5 72.75 162.0 73.25 L179.0 73.8 187.85 80.7 Q196.75 88.25 197.0 91.5 L197.05 92.3 180.95 93.15 136.0 93.75 Q97.8 94.2 86.65 93.8 70.1 93.2 29.85 93.75" fill="#5e2726" fill-rule="evenodd" stroke="none"/>
      <path d="M29.85 93.75 L29.8 92.5 46.55 92.25 Q65.7 92.0 77.8 92.3 103.0 92.9 149.25 91.8 L197.0 90.8 197.05 92.3 Q169.65 93.0 146.7 93.0 L114.95 93.35 Q95.45 93.6 84.0 93.3 71.7 93.0 49.55 93.35 L29.85 93.75" fill="#8c3a35" fill-rule="evenodd" stroke="none"/>
      <path d="M53.0 76.3 L50.45 77.3 Q51.75 75.85 56.1 75.85 60.2 75.8 62.0 76.8 L60.0 77.65 Q58.7 78.15 58.15 78.7 L68.85 79.05 Q75.3 79.2 79.5 77.8 L70.9 77.7 Q74.7 75.85 80.65 75.6 84.0 75.4 90.8 75.85 98.35 76.3 116.15 76.3 L137.3 74.85 Q150.5 73.65 158.3 74.4 L157.3 76.2 Q160.6 77.75 168.7 76.95 176.4 76.25 179.8 78.4 179.0 81.15 181.25 82.45 182.5 83.15 185.3 83.9 185.25 86.9 181.3 87.15 L175.5 86.8 168.0 87.35 160.65 88.35 Q154.5 89.0 145.1 88.75 L129.55 88.3 108.35 88.15 87.3 88.85 74.7 89.3 62.05 89.3 49.8 90.6 Q41.95 91.4 38.1 89.35 39.8 86.05 44.0 81.45 45.85 79.4 48.55 78.25 L53.0 76.3" fill="#6a2b29" fill-rule="evenodd" stroke="none"/>
      <path d="M42.4 86.75 Q42.95 85.45 44.95 84.15 L47.95 82.35 Q54.75 77.8 59.55 79.8 L54.85 79.8 60.5 80.5 66.5 81.3 Q69.2 81.45 73.25 80.4 L79.9 78.7 Q81.8 78.3 84.35 78.65 L88.75 79.3 Q90.55 79.55 93.25 79.35 L97.95 78.95 Q101.75 78.65 110.65 79.05 118.8 79.4 123.35 78.8 135.25 77.25 145.25 78.8 148.35 79.25 158.1 78.65 166.35 78.15 170.65 79.7 169.95 79.65 169.1 80.1 L167.8 80.8 Q169.2 82.2 172.45 82.65 L177.55 83.3 Q164.0 85.9 149.5 85.8 L135.35 85.55 121.45 84.3 Q110.2 82.75 97.75 84.95 L85.8 85.9 73.8 85.8 58.1 86.5 Q48.3 87.1 42.4 86.75" fill="#74302c" fill-rule="evenodd" stroke="none"/>
      <path d="M31.0 102.5 Q30.45 99.95 30.05 96.85 32.2 97.95 36.7 97.7 L43.15 97.45 47.65 98.35 52.25 98.8 Q56.75 98.5 62.55 98.75 L72.75 99.3 Q79.85 99.75 94.4 98.7 108.9 97.65 116.05 98.15 123.8 98.7 135.95 98.3 L156.15 97.8 176.35 98.2 Q187.85 98.15 195.9 95.8 L197.05 95.5 Q196.8 99.55 195.8 102.5 L31.0 102.5" fill="#301212" fill-rule="evenodd" stroke="none"/>
      <path d="M24.7 100.8 L196.5 100.8 196.5 102.85 24.7 102.85 24.7 100.8" fill="#301212" fill-rule="evenodd" stroke="none"/>
      <path d="M35.4 85.15 L34.65 87.6 Q34.3 90.2 36.1 90.8 37.7 91.35 51.4 91.1 65.5 90.85 67.0 91.15 L79.25 91.95 Q63.5 91.75 59.2 92.15 54.95 92.55 41.95 92.55 L29.8 92.5 Q29.6 92.25 29.65 91.8 29.7 90.85 30.75 89.8 L35.4 85.15" fill="#4a1e1d" fill-rule="evenodd" stroke="none"/>
      <path d="M74.25 91.5 L86.8 91.0 Q100.15 90.5 104.4 90.5 111.2 90.5 138.2 91.15 L101.5 92.5 74.25 91.5" fill="#4a1e1d" fill-rule="evenodd" stroke="none"/>
      <path d="M30.0 92.3 L29.35 91.65 32.2 89.05 38.0 83.0 Q42.5 77.75 44.7 73.0 L86.75 72.4 74.55 72.9 Q57.85 73.75 55.35 75.0 48.65 78.35 38.65 85.65 L30.0 92.3" fill="#4d1c1b" fill-rule="evenodd" stroke="none"/>
      <path d="M152.85 70.25 L136.7 69.65 182.7 70.3 184.2 73.5 Q186.3 77.25 189.35 80.3 194.0 85.0 198.7 89.0 L197.35 89.65 188.7 83.0 Q178.7 75.7 172.0 72.3 169.5 71.05 152.85 70.25" fill="#4d1c1b" fill-rule="evenodd" stroke="none"/>
      <path d="M204.5 86.3 Q204.0 85.3 204.5 83.8 204.8 82.85 201.1 79.35 L197.35 76.0 202.1 80.0 Q207.1 84.0 208.35 84.0 L212.35 83.65 214.0 86.3 209.7 85.3 206.1 85.55 204.5 86.3" fill="#8c3a35" fill-rule="evenodd" stroke="none"/>
      <path d="M13.5 86.3 L13.7 85.0 15.85 84.9 20.0 84.3 Q21.7 83.9 25.0 80.75 L28.0 77.65 23.0 83.8 Q21.95 84.95 22.4 85.75 L23.0 86.3 17.7 86.0 13.5 86.3" fill="#8c3a35" fill-rule="evenodd" stroke="none"/>
      <path d="M168.25 72.5 L181.5 71.8 Q184.0 71.5 186.25 70.1 L185.75 70.6 Q183.75 72.75 185.0 74.3 L197.0 90.8 189.15 82.1 Q180.9 73.5 179.0 73.8 177.15 74.1 167.4 73.5 L158.0 72.8 168.25 72.5" fill="#4a1e1d" fill-rule="evenodd" stroke="none"/>
      <path d="M39.5 68.8 L41.25 70.1 Q43.5 71.5 46.0 71.8 L69.5 72.8 48.5 73.8 Q46.65 73.5 38.4 82.1 L30.5 90.8 35.75 83.5 Q41.25 75.85 42.5 74.3 43.75 72.75 41.75 70.6 L39.5 68.8" fill="#4a1e1d" fill-rule="evenodd" stroke="none"/>
      <path d="M108.5 72.3 L125.35 71.95 Q123.25 72.3 121.2 73.45 117.0 75.75 117.0 79.8 116.95 85.9 117.4 92.85 L113.95 92.8 113.0 77.8 Q112.8 75.35 110.6 73.6 L108.5 72.3" fill="#4d1c1b" fill-rule="evenodd" stroke="none"/>
      <path d="M113.95 92.8 L117.4 92.85 117.0 102.8 114.0 103.3 113.95 92.8" fill="#301212" fill-rule="evenodd" stroke="none"/>
      <path d="M53.0 74.25 L47.1 71.35 58.5 72.3 Q65.05 72.85 172.0 72.3 177.65 72.3 180.75 71.3 L181.9 70.9 176.75 74.4 149.85 73.35 Q122.4 72.5 119.7 73.65 117.0 74.8 115.7 77.4 L115.0 79.8 Q114.5 76.8 113.15 74.4 112.3 72.85 104.95 72.7 L92.5 72.8 70.15 73.55 53.0 74.25" fill="#301212" fill-rule="evenodd" stroke="none"/>
      <path d="M113.6 84.05 L114.3 91.35 Q114.55 94.0 114.0 103.3 113.35 98.65 112.6 95.7 112.15 93.85 110.2 92.55 L108.35 91.65 Q109.85 91.0 111.3 90.3 113.15 89.45 113.55 86.65 L113.6 84.05" fill="#4d1c1b" fill-rule="evenodd" stroke="none"/>
      <path d="M117.75 87.6 Q118.2 89.9 119.0 90.3 120.35 91.0 122.4 91.3 120.3 92.55 119.0 94.75 118.2 96.15 117.5 99.6 L117.0 102.8 116.1 98.55 Q115.2 94.05 115.4 92.85 115.6 91.7 116.55 88.4 L117.5 85.35 117.75 87.6" fill="#4d1c1b" fill-rule="evenodd" stroke="none"/>
      <path d="M115.35 74.0 L115.7 83.05 Q116.1 92.4 116.35 94.0 116.7 96.5 116.0 104.0 L114.0 103.3 Q113.7 95.3 113.95 92.8 L115.35 74.0" fill="#301212" fill-rule="evenodd" stroke="none"/>
      <path d="M109.8 93.95 L105.35 92.65 107.3 92.55 Q109.55 92.3 111.0 91.65 112.45 91.05 113.2 88.2 L113.65 85.5 114.3 91.35 Q114.45 92.8 112.15 93.55 L109.8 93.95" fill="#8c3a35" fill-rule="evenodd" stroke="none"/>
      <path d="M131.7 92.0 L132.7 93.3 121.7 93.65 Q119.6 94.05 118.75 90.55 L118.35 87.0 118.75 88.8 Q119.3 90.7 120.35 91.3 L131.7 92.0" fill="#8c3a35" fill-rule="evenodd" stroke="none"/>
      <path d="M198.7 89.0 L199.8 91.55 Q200.9 94.25 200.7 95.3 200.35 97.0 200.5 103.3 L197.05 92.3 196.35 88.3 198.7 89.0" fill="#301212" fill-rule="evenodd" stroke="none"/>
      <path d="M33.0 88.3 L31.5 90.2 Q29.95 92.4 29.85 93.75 L29.05 102.9 28.15 97.1 Q27.4 91.15 28.0 90.3 28.65 89.5 30.9 88.8 L33.0 88.3" fill="#301212" fill-rule="evenodd" stroke="none"/>
      <path d="M45.95 31.3 L181.65 32.4 192.0 67.3 185.0 67.65 181.0 74.65 33.5 78.8 45.95 31.3" fill="#4d1c1b" fill-rule="evenodd" stroke="none"/>
      <path d="M47.0 27.3 L72.8 26.6 Q101.7 26.0 117.0 26.3 141.5 26.8 180.7 26.65 L181.75 32.3 Q139.05 32.8 104.05 32.3 82.2 32.0 62.15 32.2 L46.5 32.5 47.0 27.3" fill="#74302c" fill-rule="evenodd" stroke="none"/>
      <path d="M49.7 32.65 L48.7 32.0 63.7 31.4 Q80.8 30.8 91.6 30.8 L124.0 31.05 153.7 31.3 Q167.35 31.3 179.7 30.65 L178.0 32.0 162.45 31.8 137.8 32.25 Q116.3 32.6 105.65 32.3 94.6 32.0 71.05 32.3 L49.7 32.65" fill="#8c3a35" fill-rule="evenodd" stroke="none"/>
      <path d="M82.4 28.5 Q75.6 28.0 66.55 28.5 L58.85 29.2 Q54.1 29.4 51.35 28.05 54.9 26.35 61.6 26.55 L72.2 27.15 85.4 27.0 98.65 26.8 175.45 26.8 Q176.15 27.1 176.5 27.75 175.0 28.75 172.45 28.9 L168.15 28.8 Q156.0 28.8 151.1 28.5 130.0 27.15 106.2 28.75 94.95 29.45 82.4 28.5" fill="#6a2b29" fill-rule="evenodd" stroke="none"/>
      <path d="M97.7 26.8 Q105.8 26.85 111.8 27.15 L114.75 27.55 117.55 28.15 Q119.0 28.4 121.15 28.2 L124.75 27.8 139.95 27.15 149.2 27.0 158.45 26.8 166.9 26.4 Q173.55 26.45 174.2 28.75 L163.55 28.2 152.75 28.5 136.5 29.15 Q133.15 29.6 127.95 29.25 L119.4 28.8 105.9 29.0 Q97.9 29.1 92.35 28.75 89.7 28.6 84.3 28.9 79.0 29.25 76.35 29.05 L71.4 28.65 66.5 28.5 61.15 29.35 Q57.5 29.75 56.35 28.15 57.0 27.5 58.15 27.3 L60.15 27.15 55.85 27.15 58.0 26.8 Q63.15 26.4 70.8 26.55 L83.6 26.8 97.7 26.8" fill="#823631" fill-rule="evenodd" stroke="none"/>
      <path d="M82.25 39.15 L82.15 39.8 Q84.05 38.3 85.4 37.85 L84.75 38.6 84.25 39.35 88.4 36.45 92.15 33.4 Q89.2 36.35 87.7 38.85 85.1 43.2 87.9 44.75 L86.65 45.35 Q85.6 45.8 85.1 45.0 85.3 45.6 87.2 47.15 89.1 48.7 89.25 49.25 L85.25 48.0 81.35 46.8 Q80.7 46.8 78.95 47.9 L76.5 49.25 77.7 47.7 78.25 45.9 75.25 46.8 72.25 47.8 75.1 44.85 Q77.3 42.7 77.55 41.85 77.9 40.45 75.4 38.55 L71.75 36.05 77.95 38.55 78.0 37.65 78.05 36.65 Q81.4 39.3 82.25 39.15" fill="#3b1313" fill-rule="evenodd" stroke="none"/>
      <path d="M55.55 38.6 L55.0 37.35 56.2 38.15 57.55 38.7 57.45 39.35 59.0 38.5 Q60.7 37.6 61.45 37.35 L60.85 38.65 64.35 37.6 67.9 36.25 Q66.1 37.35 65.2 37.95 63.55 39.0 62.65 40.05 61.5 41.45 61.7 42.4 L62.2 44.7 61.05 43.7 Q60.65 45.1 61.7 46.55 L63.8 48.75 61.7 48.15 59.5 47.55 57.15 47.75 54.95 48.1 55.6 46.85 52.35 49.05 49.05 51.1 Q52.75 48.35 53.75 46.0 L52.2 46.6 Q54.3 44.8 53.9 43.25 53.7 42.5 51.85 40.3 L53.45 40.7 55.15 40.95 Q52.0 37.8 48.6 35.6 49.8 36.0 52.05 37.1 L55.55 38.6" fill="#3b1313" fill-rule="evenodd" stroke="none"/>
      <path d="M52.0 60.6 Q55.65 62.65 57.3 62.35 58.05 61.6 59.35 60.9 L62.0 59.65 61.2 60.95 60.25 62.2 Q61.1 61.55 63.85 60.3 L62.7 63.4 Q61.95 65.35 62.4 66.6 62.8 67.65 64.0 69.15 L66.2 71.3 Q62.6 70.0 61.05 69.05 L61.0 70.0 Q60.95 70.55 61.25 70.85 L58.75 69.9 56.3 68.85 Q53.7 70.05 51.8 71.65 L52.75 69.45 53.85 67.35 Q52.2 67.9 51.55 68.35 L52.25 67.15 53.4 66.1 51.55 65.05 49.95 63.7 52.35 64.05 49.3 60.9 Q47.0 58.65 46.75 57.55 L52.0 60.6" fill="#3b1313" fill-rule="evenodd" stroke="none"/>
      <path d="M67.65 51.5 L67.6 51.75 68.6 50.15 Q69.2 49.25 70.0 48.85 L70.1 49.85 Q71.15 48.75 72.85 47.9 74.5 47.1 76.05 46.85 75.1 47.4 73.4 49.05 71.5 50.85 71.4 51.5 71.25 52.4 72.45 53.4 L74.35 54.85 72.0 54.65 Q74.75 56.9 75.8 58.45 L73.35 57.35 Q71.75 56.7 70.6 56.65 69.45 56.6 68.2 57.25 L65.65 58.4 66.35 57.0 Q62.75 59.8 60.95 60.3 L63.05 58.0 Q64.45 56.45 64.8 55.55 65.3 54.25 64.4 53.1 L63.0 51.1 Q64.35 51.5 65.25 52.0 L63.55 49.7 61.75 47.5 Q63.3 47.75 64.95 49.3 L67.65 51.5" fill="#3b1313" fill-rule="evenodd" stroke="none"/>
      <path d="M74.8 60.65 L72.5 57.7 Q76.95 59.7 78.6 61.6 79.0 60.1 79.95 59.15 80.95 61.3 80.75 62.75 L81.7 63.0 Q84.1 60.6 88.45 58.9 85.45 61.65 84.35 63.1 82.4 65.65 84.8 67.2 L83.85 67.0 82.9 66.65 Q84.2 68.3 86.2 69.4 85.0 68.85 84.15 68.65 L82.05 68.55 80.05 69.5 Q80.0 68.75 80.1 68.4 L75.9 70.35 Q73.35 71.5 71.55 71.3 L73.95 70.25 75.85 68.7 74.8 68.95 Q77.3 67.5 76.45 66.15 74.85 64.55 74.4 63.45 L76.8 63.85 Q76.25 62.45 74.8 60.65" fill="#3b1313" fill-rule="evenodd" stroke="none"/>
      <path d="M55.6 42.1 Q56.6 41.3 57.9 41.3 59.2 41.3 60.0 42.1 60.8 42.9 60.6 44.0 60.45 45.15 59.4 45.95 58.4 46.75 57.1 46.75 55.8 46.75 55.0 45.95 54.2 45.15 54.4 44.0 54.55 42.9 55.6 42.1" fill="#2e1010" fill-rule="evenodd" stroke="none"/>
      <path d="M55.45 44.0 Q55.6 43.2 56.25 42.65 56.95 42.1 57.8 42.1 58.65 42.1 59.15 42.65 59.65 43.2 59.55 44.0 59.45 44.8 58.75 45.35 58.05 45.9 57.2 45.9 56.35 45.9 55.85 45.35 55.35 44.8 55.45 44.0" fill="#171717" fill-rule="evenodd" stroke="none"/>
      <path d="M58.9 43.7 Q58.85 44.25 58.35 44.6 57.85 45.0 57.25 45.0 56.65 45.0 56.3 44.6 55.95 44.25 56.0 43.7 56.1 43.15 56.55 42.75 57.05 42.4 57.65 42.4 58.25 42.4 58.6 42.75 59.0 43.15 58.9 43.7" fill="#292121" fill-rule="evenodd" stroke="none"/>
      <path d="M57.65 43.2 Q57.55 43.7 56.95 43.7 56.35 43.7 56.45 43.2 56.55 42.65 57.1 42.65 57.75 42.65 57.65 43.2" fill="#524242" fill-rule="evenodd" stroke="none"/>
      <path d="M84.2 43.85 Q84.05 44.95 83.0 45.75 82.0 46.55 80.7 46.55 79.4 46.55 78.6 45.75 77.8 45.0 78.0 43.85 78.15 42.7 79.2 41.9 80.2 41.1 81.5 41.1 82.8 41.1 83.6 41.9 84.4 42.7 84.2 43.85" fill="#2e1010" fill-rule="evenodd" stroke="none"/>
      <path d="M83.15 43.8 Q83.0 44.6 82.35 45.15 81.65 45.7 80.8 45.7 79.95 45.7 79.45 45.15 78.95 44.6 79.05 43.8 79.15 43.0 79.85 42.45 80.55 41.9 81.4 41.9 82.25 41.9 82.75 42.45 83.25 43.0 83.15 43.8" fill="#171717" fill-rule="evenodd" stroke="none"/>
      <path d="M82.5 43.5 L81.95 44.4 Q81.45 44.8 80.85 44.8 80.25 44.8 79.9 44.4 79.55 44.05 79.6 43.5 79.7 42.95 80.15 42.55 80.65 42.2 81.25 42.2 81.85 42.2 82.2 42.55 82.6 42.95 82.5 43.5" fill="#292121" fill-rule="evenodd" stroke="none"/>
      <path d="M81.2 43.0 Q81.2 43.55 80.55 43.55 79.95 43.55 80.05 43.0 80.15 42.5 80.7 42.5 81.3 42.5 81.2 43.0" fill="#524242" fill-rule="evenodd" stroke="none"/>
      <path d="M71.2 54.8 Q71.0 55.95 70.0 56.75 68.95 57.55 67.65 57.55 66.35 57.55 65.6 56.75 64.8 55.95 64.95 54.8 65.15 53.65 66.15 52.9 67.2 52.1 68.5 52.1 69.8 52.1 70.55 52.9 71.35 53.7 71.2 54.8" fill="#2e1010" fill-rule="evenodd" stroke="none"/>
      <path d="M70.1 54.8 Q70.0 55.6 69.3 56.15 68.65 56.7 67.8 56.7 66.95 56.7 66.45 56.15 65.95 55.6 66.05 54.8 66.15 54.0 66.85 53.45 67.5 52.9 68.35 52.9 69.2 52.9 69.7 53.45 70.2 54.0 70.1 54.8" fill="#171717" fill-rule="evenodd" stroke="none"/>
      <path d="M69.5 54.5 L68.95 55.4 Q68.45 55.8 67.85 55.8 67.25 55.8 66.9 55.4 66.55 55.05 66.6 54.5 66.7 53.95 67.15 53.55 67.65 53.2 68.25 53.2 68.85 53.2 69.2 53.55 69.6 53.95 69.5 54.5" fill="#292121" fill-rule="evenodd" stroke="none"/>
      <path d="M68.2 54.0 Q68.1 54.55 67.55 54.55 66.9 54.55 67.0 54.0 67.1 53.45 67.7 53.45 68.3 53.45 68.2 54.0" fill="#524242" fill-rule="evenodd" stroke="none"/>
      <path d="M55.15 65.4 Q55.3 64.3 56.35 63.5 57.35 62.7 58.65 62.7 59.95 62.7 60.75 63.5 61.55 64.3 61.35 65.4 61.2 66.55 60.15 67.35 59.15 68.15 57.85 68.15 56.55 68.15 55.75 67.35 54.95 66.55 55.15 65.4" fill="#2e1010" fill-rule="evenodd" stroke="none"/>
      <path d="M59.9 64.05 Q60.4 64.6 60.3 65.4 60.2 66.2 59.5 66.75 58.8 67.3 57.95 67.3 57.1 67.3 56.6 66.75 56.1 66.2 56.2 65.4 56.35 64.6 57.0 64.05 57.7 63.5 58.55 63.5 59.4 63.5 59.9 64.05" fill="#171717" fill-rule="evenodd" stroke="none"/>
      <path d="M59.35 64.15 Q59.75 64.55 59.65 65.1 L59.1 66.0 Q58.6 66.4 58.0 66.4 57.4 66.4 57.05 66.0 56.7 65.65 56.75 65.1 56.85 64.55 57.3 64.15 57.8 63.8 58.4 63.8 59.0 63.8 59.35 64.15" fill="#292121" fill-rule="evenodd" stroke="none"/>
      <path d="M58.4 64.6 Q58.3 65.1 57.7 65.1 57.1 65.1 57.2 64.6 57.3 64.05 57.85 64.05 58.4 64.05 58.4 64.6" fill="#524242" fill-rule="evenodd" stroke="none"/>
      <path d="M81.65 63.95 Q82.45 64.75 82.25 65.85 82.1 67.0 81.05 67.8 80.05 68.6 78.75 68.6 77.45 68.6 76.65 67.8 75.85 67.0 76.05 65.85 76.2 64.75 77.25 63.95 78.25 63.15 79.55 63.15 80.85 63.15 81.65 63.95" fill="#2e1010" fill-rule="evenodd" stroke="none"/>
      <path d="M80.8 64.5 Q81.3 65.05 81.2 65.85 81.1 66.65 80.4 67.2 79.7 67.75 78.85 67.75 78.0 67.75 77.5 67.2 77.0 66.65 77.1 65.85 77.25 65.05 77.9 64.5 78.6 63.95 79.45 63.95 80.3 63.95 80.8 64.5" fill="#171717" fill-rule="evenodd" stroke="none"/>
      <path d="M80.25 64.6 Q80.65 65.0 80.55 65.55 80.5 66.1 80.0 66.45 79.5 66.85 78.9 66.85 78.3 66.85 77.95 66.45 77.6 66.1 77.65 65.55 77.75 65.0 78.25 64.6 78.7 64.25 79.3 64.25 79.9 64.25 80.25 64.6" fill="#292121" fill-rule="evenodd" stroke="none"/>
      <path d="M78.1 65.05 Q78.2 64.5 78.75 64.5 79.4 64.5 79.3 65.05 79.2 65.55 78.6 65.55 78.0 65.55 78.1 65.05" fill="#524242" fill-rule="evenodd" stroke="none"/>
      <path d="M67.85 59.1 L68.35 59.9 Q68.45 59.25 68.9 58.75 L69.7 57.7 69.8 58.9 69.75 60.25 Q73.0 59.95 74.15 61.8 L72.4 62.45 70.4 62.45 Q70.05 63.95 71.15 65.5 72.2 66.95 73.8 67.5 L70.4 69.05 66.9 70.45 Q67.25 69.25 66.15 68.55 L64.3 67.2 Q65.25 66.25 64.95 65.7 64.7 65.2 63.3 65.3 L65.5 61.75 Q66.85 59.6 67.95 58.5 L67.85 59.1" fill="#551e1d" fill-rule="evenodd" stroke="none"/>
      <path d="M83.3 49.2 L83.25 49.8 86.05 50.95 89.05 50.75 Q88.05 52.85 87.65 56.0 87.3 55.65 86.6 55.5 L85.5 55.2 83.95 57.35 82.15 59.35 Q80.3 57.95 80.0 55.55 L76.15 55.8 Q78.15 54.15 77.55 52.65 77.05 51.5 74.75 50.2 L77.75 50.6 80.75 50.75 81.25 47.75 82.25 48.55 83.3 49.2" fill="#551e1d" fill-rule="evenodd" stroke="none"/>
      <path d="M69.25 36.3 L69.55 36.3 70.0 35.9 70.6 35.75 Q70.2 37.1 71.4 37.7 L73.85 38.45 Q73.15 39.75 72.35 40.15 74.9 40.9 76.2 40.85 75.3 42.55 73.9 43.7 L70.9 45.65 Q68.4 47.1 66.8 46.8 65.5 46.6 63.0 44.75 L65.9 42.9 Q65.85 40.85 62.9 41.05 63.85 39.85 65.85 38.4 67.6 37.1 69.25 36.3" fill="#551e1d" fill-rule="evenodd" stroke="none"/>
      <path d="M54.15 34.8 L54.5 34.5 60.15 34.15 Q63.85 33.95 65.15 34.8 64.25 35.6 62.2 35.65 L58.95 35.75 58.5 34.9 54.15 34.8" fill="#551e1d" fill-rule="evenodd" stroke="none"/>
      <path d="M77.15 34.8 L77.15 34.5 Q79.25 33.8 82.95 33.8 86.7 33.8 88.45 34.55 86.5 35.9 82.5 36.1 78.35 36.3 77.15 34.8" fill="#551e1d" fill-rule="evenodd" stroke="none"/>
      <path d="M82.85 70.2 L80.9 69.9 Q81.8 70.4 82.0 70.8 L75.8 71.4 79.65 69.4 Q82.15 68.4 82.85 70.2" fill="#551e1d" fill-rule="evenodd" stroke="none"/>
      <path d="M54.35 71.4 Q55.2 70.0 56.3 70.0 57.4 70.05 57.7 71.4 L54.3 71.7 54.35 71.4" fill="#551e1d" fill-rule="evenodd" stroke="none"/>
      <path d="M80.85 50.2 Q82.95 51.45 84.0 51.85 L86.85 51.6 Q87.15 52.6 86.6 53.65 83.7 53.2 82.55 56.75 81.7 56.4 81.65 55.65 L81.3 54.35 80.0 53.1 78.5 51.95 80.1 51.85 80.85 50.2" fill="#5f2320" fill-rule="evenodd" stroke="none"/>
      <path d="M68.65 61.65 Q68.8 62.4 69.45 62.55 70.2 62.7 71.05 62.1 70.75 62.45 71.0 63.1 L71.65 64.75 70.1 64.85 Q71.5 66.15 69.9 66.95 68.3 67.75 67.85 66.25 L66.8 66.2 65.85 65.95 67.0 63.05 Q67.8 61.55 68.65 61.65 L68.55 61.2 69.1 61.8 68.65 61.65" fill="#5f2320" fill-rule="evenodd" stroke="none"/>
      <path d="M69.05 39.9 L68.65 39.25 Q68.45 38.95 68.65 38.45 L70.15 39.85 Q70.65 39.5 72.1 39.05 71.25 40.5 71.1 41.95 L72.55 41.85 74.0 41.7 Q72.8 42.55 71.05 44.55 L68.2 47.4 67.3 45.3 Q66.65 44.15 65.15 44.4 67.7 43.2 67.45 42.2 67.25 41.45 64.95 40.2 L66.95 39.85 69.05 39.9" fill="#5f2320" fill-rule="evenodd" stroke="none"/>
      <path d="M83.2 70.2 Q77.9 71.25 75.2 71.1 75.65 70.85 77.8 70.15 79.35 69.6 80.15 68.7 82.0 69.95 83.2 70.2" fill="#5f2320" fill-rule="evenodd" stroke="none"/>
      <path d="M62.05 71.35 L55.0 71.9 Q55.55 70.6 57.05 70.75 L59.55 70.5 61.0 70.7 Q61.65 70.85 62.05 71.35" fill="#5f2320" fill-rule="evenodd" stroke="none"/>
      <path d="M55.4 37.3 Q54.65 36.4 55.4 35.1 L56.35 35.4 59.95 34.9 63.85 34.5 Q62.7 35.85 59.95 36.35 L55.4 37.3" fill="#5f2320" fill-rule="evenodd" stroke="none"/>
      <path d="M80.15 34.8 L79.85 34.5 83.55 34.4 87.3 34.25 Q86.0 35.55 83.0 35.75 80.0 35.9 80.15 34.8" fill="#5f2320" fill-rule="evenodd" stroke="none"/>
      <path d="M114.5 59.7 Q114.7 58.4 116.0 56.5 L117.95 53.4 Q118.8 51.5 118.15 50.25 L116.05 47.5 Q118.9 49.15 120.0 49.5 L120.25 49.5 119.95 49.55 Q119.75 49.6 119.95 49.75 121.65 49.95 124.3 48.55 127.1 47.05 128.45 47.0 128.35 48.0 127.05 49.75 125.45 51.8 125.2 52.45 124.45 54.35 124.8 55.4 L126.2 57.95 120.5 57.75 Q119.6 57.9 117.5 58.8 L114.5 59.7" fill="#3b1313" fill-rule="evenodd" stroke="none"/>
      <path d="M105.25 63.05 L102.5 60.1 105.25 61.0 Q107.05 61.55 108.0 62.0 L107.5 62.25 110.05 61.15 112.7 60.0 Q112.15 61.1 112.3 62.45 113.25 62.6 114.45 61.9 L116.45 60.75 Q113.8 64.35 114.25 66.0 114.5 66.95 116.55 68.45 L119.45 70.7 115.95 69.45 112.25 68.45 109.2 68.85 106.25 69.8 107.65 68.5 103.1 69.75 101.25 70.5 105.25 65.5 Q106.2 64.25 105.25 63.05" fill="#3b1313" fill-rule="evenodd" stroke="none"/>
      <path d="M134.8 39.05 L135.5 39.75 Q139.35 37.6 142.7 36.75 142.25 37.75 140.6 39.25 138.75 40.9 138.25 41.75 L138.75 41.5 Q136.9 43.05 138.1 44.9 139.05 46.4 141.0 47.25 138.25 46.35 134.25 46.75 132.85 46.85 131.25 47.7 L128.35 49.0 Q128.6 48.55 129.55 47.65 130.35 46.9 130.45 46.25 L127.0 46.2 128.25 44.15 Q129.0 42.9 129.0 41.95 129.0 40.6 127.65 39.45 L125.5 37.5 129.95 39.2 Q133.05 40.1 134.05 38.3 L134.8 39.05" fill="#3b1313" fill-rule="evenodd" stroke="none"/>
      <path d="M117.1 36.9 Q118.3 36.45 120.65 35.55 L117.95 37.25 Q116.3 38.3 115.4 39.35 114.25 40.75 114.45 41.7 L114.95 44.0 113.8 43.05 Q113.4 44.4 114.45 45.9 L116.55 48.1 114.45 47.45 112.25 46.85 109.9 47.05 107.7 47.4 108.0 46.8 108.35 46.2 105.1 48.35 101.8 50.4 Q105.6 47.6 106.5 45.3 L105.0 45.9 Q107.1 44.1 106.65 42.55 106.45 41.85 104.6 39.6 L106.2 40.0 107.9 40.25 Q104.95 37.25 101.35 34.9 102.55 35.3 104.8 36.4 L108.3 37.9 107.75 36.65 108.95 37.45 110.3 38.0 110.2 38.7 111.75 37.85 Q113.45 36.9 114.25 36.7 L113.6 37.95 117.1 36.9" fill="#3b1313" fill-rule="evenodd" stroke="none"/>
      <path d="M98.45 49.0 L103.5 47.75 100.65 50.25 Q98.1 52.35 98.1 52.75 98.1 53.45 99.0 54.55 100.0 55.7 100.1 56.3 L98.15 55.8 Q98.6 56.65 99.95 57.65 L102.1 59.25 Q100.65 58.6 99.0 58.55 L95.8 58.65 95.7 57.55 Q94.35 57.9 91.0 59.6 88.0 61.15 86.15 61.4 L88.8 59.4 91.05 57.25 88.2 58.0 86.45 58.4 89.2 56.85 Q91.85 54.95 91.4 53.35 L87.85 52.8 90.8 51.0 88.85 49.45 Q87.7 48.55 87.45 47.75 L90.4 48.5 93.45 49.2 98.45 49.0" fill="#3b1313" fill-rule="evenodd" stroke="none"/>
      <path d="M130.05 59.85 L129.8 59.0 Q130.8 59.65 132.25 60.1 L134.5 60.5 135.0 60.75 135.05 61.7 Q137.7 59.55 139.65 59.0 L137.35 61.5 Q135.75 63.15 135.95 64.25 136.15 65.2 138.15 66.35 140.2 67.55 140.45 68.45 138.0 67.45 136.75 67.25 L138.4 68.9 139.95 70.45 137.75 69.9 Q136.2 69.25 135.5 69.15 L133.45 69.2 Q133.35 69.2 131.55 69.95 L131.25 68.75 Q130.05 68.9 127.8 69.8 L124.25 70.95 Q127.95 67.0 127.05 63.0 L128.0 63.0 128.95 62.95 Q128.9 61.65 127.55 60.25 L125.2 58.05 127.8 59.55 Q129.5 60.55 130.45 60.7 L130.05 59.85" fill="#3b1313" fill-rule="evenodd" stroke="none"/>
      <path d="M113.35 43.3 Q113.2 44.45 112.15 45.25 111.15 46.05 109.85 46.05 108.55 46.05 107.75 45.25 106.95 44.45 107.15 43.3 107.3 42.2 108.35 41.4 109.35 40.6 110.65 40.6 111.95 40.6 112.75 41.4 113.55 42.2 113.35 43.3" fill="#2e1010" fill-rule="evenodd" stroke="none"/>
      <path d="M112.3 43.3 Q112.2 44.1 111.5 44.65 110.85 45.2 110.0 45.2 109.15 45.2 108.6 44.65 108.1 44.1 108.25 43.3 108.35 42.5 109.05 41.95 109.7 41.4 110.55 41.4 111.4 41.4 111.9 41.95 112.4 42.5 112.3 43.3" fill="#171717" fill-rule="evenodd" stroke="none"/>
      <path d="M111.65 43.0 Q111.6 43.55 111.1 43.9 110.65 44.3 110.05 44.3 109.45 44.3 109.05 43.9 108.7 43.55 108.75 43.0 108.85 42.45 109.35 42.05 109.8 41.7 110.4 41.7 111.0 41.7 111.35 42.05 111.75 42.45 111.65 43.0" fill="#292121" fill-rule="evenodd" stroke="none"/>
      <path d="M110.4 42.5 Q110.3 43.05 109.7 43.05 109.1 43.05 109.2 42.5 109.3 41.95 109.85 41.95 110.5 41.95 110.4 42.5" fill="#524242" fill-rule="evenodd" stroke="none"/>
      <path d="M97.75 53.05 Q97.6 54.15 96.55 54.95 95.55 55.75 94.25 55.75 92.95 55.75 92.15 54.95 91.35 54.15 91.55 53.05 91.7 51.9 92.75 51.1 93.75 50.3 95.05 50.3 96.35 50.3 97.15 51.1 97.95 51.9 97.75 53.05" fill="#2e1010" fill-rule="evenodd" stroke="none"/>
      <path d="M96.3 51.65 Q96.8 52.2 96.7 53.0 96.6 53.8 95.9 54.35 95.25 54.9 94.4 54.9 93.55 54.9 93.05 54.35 92.55 53.8 92.65 53.0 92.75 52.2 93.45 51.65 94.1 51.1 94.95 51.1 95.8 51.1 96.3 51.65" fill="#171717" fill-rule="evenodd" stroke="none"/>
      <path d="M96.1 52.7 Q96.0 53.25 95.5 53.6 95.05 54.0 94.45 54.0 93.85 54.0 93.5 53.6 93.15 53.25 93.2 52.7 93.3 52.15 93.75 51.8 94.2 51.4 94.8 51.4 95.4 51.4 95.8 51.8 96.2 52.2 96.1 52.7" fill="#292121" fill-rule="evenodd" stroke="none"/>
      <path d="M94.8 52.2 Q94.7 52.75 94.1 52.75 93.5 52.75 93.6 52.2 93.7 51.7 94.3 51.7 94.9 51.7 94.8 52.2" fill="#524242" fill-rule="evenodd" stroke="none"/>
      <path d="M136.35 41.2 Q137.15 42.0 136.95 43.15 136.8 44.25 135.75 45.05 134.75 45.85 133.45 45.85 132.15 45.85 131.35 45.05 130.55 44.3 130.75 43.15 130.9 42.0 131.95 41.2 132.95 40.4 134.25 40.4 135.55 40.4 136.35 41.2" fill="#2e1010" fill-rule="evenodd" stroke="none"/>
      <path d="M135.9 43.1 Q135.8 43.9 135.1 44.45 134.4 45.0 133.55 45.0 132.7 45.0 132.2 44.45 131.7 43.9 131.8 43.1 131.95 42.3 132.6 41.75 133.3 41.2 134.15 41.2 135.0 41.2 135.5 41.75 136.0 42.3 135.9 43.1" fill="#171717" fill-rule="evenodd" stroke="none"/>
      <path d="M135.25 42.8 Q135.2 43.35 134.7 43.7 134.2 44.1 133.6 44.1 133.0 44.1 132.65 43.7 132.3 43.35 132.35 42.8 132.45 42.25 132.9 41.9 133.4 41.5 134.0 41.5 134.6 41.5 134.95 41.9 135.35 42.25 135.25 42.8" fill="#292121" fill-rule="evenodd" stroke="none"/>
      <path d="M134.0 42.3 Q133.9 42.85 133.3 42.85 132.7 42.85 132.8 42.3 132.9 41.8 133.45 41.8 134.0 41.8 134.0 42.3" fill="#524242" fill-rule="evenodd" stroke="none"/>
      <path d="M123.95 54.15 Q123.75 55.3 122.75 56.05 121.7 56.85 120.4 56.85 119.15 56.85 118.35 56.05 117.55 55.3 117.7 54.15 117.9 53.0 118.9 52.2 119.95 51.4 121.25 51.4 122.55 51.4 123.3 52.2 124.1 53.0 123.95 54.15" fill="#2e1010" fill-rule="evenodd" stroke="none"/>
      <path d="M122.85 54.1 Q122.75 54.9 122.05 55.45 121.4 56.0 120.55 56.0 119.7 56.0 119.2 55.45 118.7 54.9 118.8 54.1 118.9 53.3 119.6 52.75 120.25 52.2 121.1 52.2 121.95 52.2 122.45 52.75 122.95 53.3 122.85 54.1" fill="#171717" fill-rule="evenodd" stroke="none"/>
      <path d="M122.25 53.8 L121.7 54.7 Q121.2 55.1 120.6 55.1 120.0 55.1 119.65 54.7 119.3 54.35 119.35 53.8 119.45 53.25 119.9 52.85 120.4 52.5 121.0 52.5 121.6 52.5 121.95 52.85 122.35 53.25 122.25 53.8" fill="#292121" fill-rule="evenodd" stroke="none"/>
      <path d="M120.95 53.3 Q120.85 53.85 120.3 53.85 119.75 53.85 119.75 53.3 119.85 52.75 120.45 52.75 121.05 52.75 120.95 53.3" fill="#524242" fill-rule="evenodd" stroke="none"/>
      <path d="M114.1 64.75 Q113.95 65.85 112.9 66.65 111.9 67.45 110.6 67.45 109.3 67.45 108.5 66.65 107.7 65.85 107.9 64.75 108.05 63.6 109.1 62.8 110.1 62.0 111.4 62.0 112.7 62.0 113.5 62.8 114.3 63.6 114.1 64.75" fill="#2e1010" fill-rule="evenodd" stroke="none"/>
      <path d="M113.05 64.7 Q112.95 65.5 112.25 66.05 111.6 66.6 110.75 66.6 109.9 66.6 109.35 66.05 108.85 65.5 109.0 64.7 109.1 63.9 109.8 63.35 110.45 62.8 111.3 62.8 112.15 62.8 112.65 63.35 113.15 63.9 113.05 64.7" fill="#171717" fill-rule="evenodd" stroke="none"/>
      <path d="M112.4 64.4 L111.85 65.3 Q111.4 65.7 110.8 65.7 110.2 65.7 109.8 65.3 109.45 64.95 109.5 64.4 109.6 63.85 110.1 63.45 110.55 63.1 111.15 63.1 111.75 63.1 112.1 63.45 112.5 63.85 112.4 64.4" fill="#292121" fill-rule="evenodd" stroke="none"/>
      <path d="M111.15 63.9 Q111.05 64.45 110.45 64.45 109.85 64.45 109.95 63.9 110.05 63.35 110.6 63.35 111.25 63.35 111.15 63.9" fill="#524242" fill-rule="evenodd" stroke="none"/>
      <path d="M134.4 63.25 Q135.2 64.05 135.0 65.15 134.85 66.3 133.8 67.1 132.8 67.9 131.5 67.9 130.2 67.9 129.4 67.1 128.6 66.3 128.8 65.15 128.95 64.05 130.0 63.25 131.0 62.45 132.3 62.45 133.6 62.45 134.4 63.25" fill="#2e1010" fill-rule="evenodd" stroke="none"/>
      <path d="M133.55 63.8 Q134.05 64.35 133.95 65.15 133.85 65.95 133.15 66.5 132.5 67.05 131.65 67.05 130.8 67.05 130.25 66.5 129.75 65.95 129.9 65.15 130.0 64.35 130.7 63.8 131.35 63.25 132.2 63.25 133.05 63.25 133.55 63.8" fill="#171717" fill-rule="evenodd" stroke="none"/>
      <path d="M133.05 63.9 Q133.4 64.3 133.3 64.85 L132.75 65.75 Q132.3 66.15 131.7 66.15 131.1 66.15 130.7 65.75 130.35 65.35 130.45 64.85 130.55 64.3 131.0 63.9 131.45 63.55 132.05 63.55 132.65 63.55 133.05 63.9" fill="#292121" fill-rule="evenodd" stroke="none"/>
      <path d="M132.05 64.35 Q131.95 64.9 131.35 64.9 130.75 64.9 130.85 64.35 130.95 63.8 131.5 63.8 132.15 63.8 132.05 64.35" fill="#524242" fill-rule="evenodd" stroke="none"/>
      <path d="M113.75 51.45 L115.25 53.65 Q115.4 55.1 114.4 56.25 L111.9 58.3 Q109.05 60.3 106.1 59.4 103.95 58.75 101.2 56.3 102.95 55.4 102.4 53.9 102.05 52.95 100.65 51.55 L102.75 51.45 Q103.7 51.15 104.15 50.4 105.6 49.5 107.7 48.95 L111.9 47.55 113.85 49.35 Q112.75 50.15 113.75 51.45" fill="#551e1d" fill-rule="evenodd" stroke="none"/>
      <path d="M122.5 57.0 L122.55 58.2 122.5 59.55 Q125.75 59.25 126.9 61.1 126.25 61.65 125.15 61.75 L123.15 61.75 Q122.8 63.25 123.9 64.8 124.95 66.25 126.55 66.8 L119.65 69.75 Q120.0 68.55 118.9 67.85 L117.05 66.5 Q118.0 65.55 117.7 65.0 117.45 64.5 116.05 64.65 L118.25 61.1 Q119.65 58.85 120.7 57.8 L120.6 58.4 121.1 59.2 Q121.2 58.55 121.65 58.05 L122.5 57.0" fill="#551e1d" fill-rule="evenodd" stroke="none"/>
      <path d="M136.1 48.5 L136.0 49.1 Q137.1 49.5 138.8 50.25 L141.8 50.05 Q140.9 52.0 140.45 55.3 140.1 54.95 139.35 54.8 L138.25 54.55 136.7 56.65 134.9 58.65 Q133.05 57.25 132.75 54.85 L128.9 55.1 Q130.9 53.45 130.3 51.95 129.8 50.8 127.55 49.5 L130.5 49.9 133.5 50.05 134.0 47.05 135.0 47.85 136.1 48.5" fill="#551e1d" fill-rule="evenodd" stroke="none"/>
      <path d="M122.0 35.6 L122.35 35.6 122.75 35.2 123.35 35.05 Q122.95 36.4 124.15 37.0 L126.6 37.75 Q125.95 39.05 125.1 39.45 127.35 40.2 128.95 40.15 128.05 41.85 126.65 43.0 L123.65 44.95 Q121.15 46.4 119.55 46.15 118.25 45.9 115.75 44.05 L118.65 42.2 Q118.6 41.2 117.7 40.7 116.9 40.25 115.65 40.35 116.65 39.15 118.6 37.7 120.4 36.4 122.0 35.6" fill="#551e1d" fill-rule="evenodd" stroke="none"/>
      <path d="M106.9 34.1 L107.25 33.8 112.9 33.45 Q116.6 33.25 117.9 34.1 117.0 34.9 114.95 34.95 L111.7 35.05 111.25 34.2 106.9 34.1" fill="#551e1d" fill-rule="evenodd" stroke="none"/>
      <path d="M129.9 34.1 L129.95 33.8 Q132.0 33.1 135.7 33.15 139.45 33.15 141.2 33.85 139.25 35.2 135.25 35.4 131.1 35.6 129.9 34.1" fill="#551e1d" fill-rule="evenodd" stroke="none"/>
      <path d="M135.65 69.5 L133.65 69.2 134.75 70.1 128.55 70.7 132.4 68.7 Q134.9 67.7 135.65 69.5" fill="#551e1d" fill-rule="evenodd" stroke="none"/>
      <path d="M107.1 70.7 Q107.95 69.3 109.05 69.35 110.15 69.35 110.45 70.7 L107.05 71.0 107.1 70.7" fill="#551e1d" fill-rule="evenodd" stroke="none"/>
      <path d="M109.6 50.8 L110.05 50.45 110.75 50.35 109.8 52.95 111.35 53.05 111.3 54.15 112.45 54.2 110.95 55.7 109.25 57.0 107.2 56.9 104.85 57.15 Q105.75 55.95 105.5 54.95 105.3 54.2 104.3 53.0 L106.5 52.7 Q106.2 52.1 106.15 51.3 L106.25 49.9 109.6 50.8" fill="#5f2320" fill-rule="evenodd" stroke="none"/>
      <path d="M133.6 49.5 Q135.45 50.7 136.75 51.15 L139.6 50.9 Q139.9 51.9 139.35 52.95 137.7 52.7 136.7 53.6 135.9 54.35 135.3 56.05 134.4 55.7 134.4 55.0 134.35 54.0 134.1 53.65 L132.75 52.4 131.25 51.25 132.85 51.15 133.6 49.5" fill="#5f2320" fill-rule="evenodd" stroke="none"/>
      <path d="M119.75 62.35 Q120.55 60.9 121.4 60.95 121.55 61.7 122.2 61.85 122.95 62.0 123.8 61.4 123.5 61.75 123.75 62.4 L124.4 64.05 122.85 64.15 Q124.25 65.45 122.65 66.25 121.05 67.05 120.6 65.55 L119.55 65.5 118.6 65.25 119.75 62.35 M121.4 60.95 L121.3 60.5 121.9 61.1 Q121.65 60.95 121.4 60.95" fill="#5f2320" fill-rule="evenodd" stroke="none"/>
      <path d="M121.8 39.2 L121.4 38.55 Q121.2 38.25 121.4 37.75 L122.9 39.15 124.9 38.35 Q124.1 39.6 123.85 41.25 L125.3 41.15 126.75 41.0 Q125.55 41.85 123.8 43.85 L121.0 46.7 120.05 44.6 Q119.4 43.45 117.9 43.7 120.45 42.5 120.2 41.5 119.95 40.75 117.7 39.55 118.55 39.2 119.7 39.15 L121.8 39.2" fill="#5f2320" fill-rule="evenodd" stroke="none"/>
      <path d="M135.95 69.5 Q130.65 70.55 127.95 70.4 L130.55 69.45 Q132.1 68.9 132.9 68.0 134.9 69.3 135.95 69.5" fill="#5f2320" fill-rule="evenodd" stroke="none"/>
      <path d="M107.75 71.2 Q108.3 69.9 109.8 70.05 L112.3 69.85 113.75 70.05 Q114.4 70.2 114.8 70.65 L107.75 71.2" fill="#5f2320" fill-rule="evenodd" stroke="none"/>
      <path d="M108.15 34.4 L109.15 34.7 112.7 34.2 116.65 33.8 Q115.5 35.15 112.7 35.65 108.95 36.25 108.15 36.6 107.4 35.7 108.15 34.4" fill="#5f2320" fill-rule="evenodd" stroke="none"/>
      <path d="M132.9 34.1 L132.6 33.8 136.3 33.7 140.05 33.55 Q138.75 34.85 135.75 35.05 132.75 35.2 132.9 34.1" fill="#5f2320" fill-rule="evenodd" stroke="none"/>
      <path d="M158.8 39.1 L160.4 39.5 162.1 39.75 Q159.15 36.65 155.6 34.35 156.8 34.75 159.05 35.85 L162.5 37.4 162.2 36.75 162.0 36.1 163.2 36.95 164.55 37.45 164.45 38.15 165.95 37.3 Q167.65 36.4 168.45 36.15 L168.1 36.8 167.8 37.45 Q169.95 37.0 174.85 35.05 L172.15 36.7 169.65 38.8 Q168.5 40.2 168.7 41.15 L169.15 43.45 168.0 42.5 Q167.6 43.85 168.65 45.35 L170.75 47.55 166.45 46.3 164.15 46.5 161.9 46.9 162.2 46.3 162.6 45.65 159.35 47.8 156.05 49.85 Q159.75 47.15 160.7 44.75 159.65 45.1 159.2 45.35 161.3 43.55 160.9 42.0 160.65 41.2 158.8 39.1" fill="#3b1313" fill-rule="evenodd" stroke="none"/>
      <path d="M147.65 48.7 L152.7 48.5 157.7 47.2 154.85 49.75 Q152.35 51.8 152.3 52.25 152.3 52.95 153.2 54.0 154.2 55.2 154.3 55.75 L153.35 55.5 152.4 55.25 Q152.85 56.1 154.2 57.1 L156.35 58.7 Q154.9 58.05 153.25 58.0 L150.05 58.15 149.95 57.0 Q148.65 57.35 145.25 59.05 142.25 60.6 140.4 60.85 L143.0 58.85 145.25 56.7 142.4 57.45 140.65 57.85 143.4 56.3 Q146.05 54.4 145.65 52.85 L142.05 52.25 145.0 50.45 143.1 48.9 Q141.9 48.0 141.65 47.25 L144.6 47.95 147.65 48.7" fill="#3b1313" fill-rule="evenodd" stroke="none"/>
      <path d="M179.85 46.7 Q181.45 45.85 183.05 45.6 L180.4 47.8 Q178.5 49.6 178.35 50.3 178.2 51.15 179.4 52.2 L181.35 53.65 179.0 53.4 Q181.8 55.75 182.75 57.25 L180.3 56.15 Q178.75 55.5 177.6 55.45 176.45 55.4 175.15 56.0 L172.65 57.15 173.3 55.75 Q170.0 58.5 167.9 59.1 L170.05 56.8 171.8 54.35 Q172.3 53.0 171.4 51.85 L170.0 49.85 Q171.05 50.15 172.2 50.75 L170.5 48.45 168.75 46.25 Q170.3 46.5 171.95 48.1 L174.65 50.3 174.6 50.5 175.55 48.9 Q176.2 48.0 176.95 47.6 L177.1 48.65 Q178.15 47.55 179.85 46.7" fill="#3b1313" fill-rule="evenodd" stroke="none"/>
      <path d="M153.05 60.25 L156.25 61.2 159.45 61.95 159.1 61.25 Q158.9 61.0 158.3 60.7 159.2 60.6 160.95 61.2 L163.3 61.7 Q164.1 61.6 165.55 60.75 167.05 59.85 167.75 59.75 L168.0 59.5 Q167.5 60.4 167.8 61.4 L170.7 59.8 168.7 64.4 Q167.9 67.05 169.95 68.45 L166.95 68.2 168.8 69.2 Q170.0 69.8 170.45 70.45 L166.5 69.65 Q164.0 68.9 162.5 69.0 160.75 69.1 157.2 70.35 153.75 71.5 151.85 71.5 L155.2 69.6 Q157.5 68.3 157.95 67.25 L156.55 67.2 158.8 65.8 Q159.9 65.15 159.45 64.05 159.0 63.05 156.5 61.85 L153.05 60.25" fill="#3b1313" fill-rule="evenodd" stroke="none"/>
      <path d="M167.6 42.8 Q167.4 43.95 166.4 44.75 165.35 45.55 164.05 45.55 162.8 45.55 162.0 44.75 161.2 43.95 161.35 42.8 161.55 41.65 162.55 40.85 163.6 40.05 164.9 40.05 166.15 40.05 166.95 40.85 167.75 41.65 167.6 42.8" fill="#2e1010" fill-rule="evenodd" stroke="none"/>
      <path d="M166.5 42.75 Q166.4 43.55 165.7 44.1 165.05 44.65 164.2 44.65 163.35 44.65 162.85 44.1 162.35 43.55 162.45 42.75 162.55 41.95 163.25 41.4 163.9 40.85 164.75 40.85 165.6 40.85 166.1 41.4 166.6 41.95 166.5 42.75" fill="#171717" fill-rule="evenodd" stroke="none"/>
      <path d="M165.9 42.45 L165.35 43.4 164.25 43.75 Q163.65 43.75 163.3 43.4 162.95 43.0 163.0 42.45 163.1 41.9 163.55 41.55 164.05 41.15 164.65 41.15 L165.6 41.55 Q166.0 41.9 165.9 42.45" fill="#292121" fill-rule="evenodd" stroke="none"/>
      <path d="M164.6 41.95 Q164.5 42.5 163.95 42.5 163.4 42.5 163.4 41.95 163.5 41.45 164.1 41.45 L164.5 41.6 164.6 41.95" fill="#524242" fill-rule="evenodd" stroke="none"/>
      <path d="M152.0 52.5 Q151.8 53.65 150.8 54.45 149.75 55.25 148.5 55.25 147.2 55.25 146.4 54.45 145.6 53.65 145.75 52.5 145.95 51.35 146.95 50.55 148.0 49.75 149.3 49.75 150.55 49.75 151.35 50.55 152.15 51.35 152.0 52.5" fill="#2e1010" fill-rule="evenodd" stroke="none"/>
      <path d="M150.9 52.45 Q150.8 53.25 150.15 53.8 149.45 54.35 148.6 54.35 147.75 54.35 147.25 53.8 146.75 53.25 146.85 52.45 146.95 51.65 147.65 51.1 148.3 50.55 149.15 50.55 150.0 50.55 150.55 51.1 151.05 51.65 150.9 52.45" fill="#171717" fill-rule="evenodd" stroke="none"/>
      <path d="M150.3 52.15 L149.75 53.1 148.65 53.45 Q148.05 53.45 147.7 53.1 147.35 52.7 147.4 52.15 147.5 51.6 147.95 51.25 148.45 50.85 149.05 50.85 149.65 50.85 150.0 51.25 150.4 51.6 150.3 52.15" fill="#292121" fill-rule="evenodd" stroke="none"/>
      <path d="M149.0 51.7 Q148.9 52.2 148.35 52.2 147.75 52.2 147.85 51.7 147.95 51.15 148.5 51.15 149.1 51.15 149.0 51.7" fill="#524242" fill-rule="evenodd" stroke="none"/>
      <path d="M178.15 53.6 Q178.0 54.75 176.95 55.55 175.95 56.35 174.65 56.35 173.35 56.35 172.55 55.55 171.75 54.75 171.95 53.6 172.1 52.5 173.15 51.65 174.15 50.85 175.45 50.85 176.75 50.85 177.55 51.65 178.35 52.45 178.15 53.6" fill="#2e1010" fill-rule="evenodd" stroke="none"/>
      <path d="M177.1 53.55 Q177.0 54.35 176.3 54.9 175.6 55.45 174.75 55.45 173.9 55.45 173.4 54.9 172.9 54.35 173.05 53.55 173.15 52.75 173.85 52.2 174.5 51.65 175.35 51.65 176.2 51.65 176.7 52.2 177.2 52.75 177.1 53.55" fill="#171717" fill-rule="evenodd" stroke="none"/>
      <path d="M176.45 53.25 L175.9 54.2 Q175.45 54.55 174.8 54.55 174.2 54.55 173.85 54.2 173.5 53.8 173.55 53.25 173.65 52.7 174.15 52.35 174.6 51.95 175.2 51.95 175.8 51.95 176.15 52.35 176.55 52.7 176.45 53.25" fill="#292121" fill-rule="evenodd" stroke="none"/>
      <path d="M175.2 52.75 Q175.1 53.3 174.5 53.3 173.9 53.3 174.0 52.75 174.1 52.25 174.65 52.25 L175.1 52.4 175.2 52.75" fill="#524242" fill-rule="evenodd" stroke="none"/>
      <path d="M168.35 64.2 Q168.15 65.35 167.15 66.15 166.1 66.95 164.8 66.95 163.55 66.95 162.75 66.15 161.95 65.35 162.1 64.2 162.3 63.05 163.3 62.25 164.35 61.45 165.65 61.45 166.9 61.45 167.7 62.25 168.5 63.05 168.35 64.2" fill="#2e1010" fill-rule="evenodd" stroke="none"/>
      <path d="M167.25 64.15 Q167.15 64.95 166.45 65.5 165.8 66.05 164.95 66.05 164.1 66.05 163.6 65.5 163.1 64.95 163.2 64.15 163.3 63.35 164.0 62.8 164.65 62.25 165.5 62.25 166.35 62.25 166.85 62.8 167.35 63.35 167.25 64.15" fill="#171717" fill-rule="evenodd" stroke="none"/>
      <path d="M166.65 63.85 L166.1 64.8 165.0 65.15 Q164.4 65.15 164.05 64.8 163.7 64.4 163.75 63.85 163.85 63.3 164.3 62.95 164.8 62.55 165.4 62.55 166.0 62.55 166.35 62.95 166.75 63.3 166.65 63.85" fill="#292121" fill-rule="evenodd" stroke="none"/>
      <path d="M165.35 63.35 Q165.25 63.9 164.7 63.9 164.15 63.9 164.15 63.35 164.25 62.85 164.85 62.85 165.1 62.85 165.25 63.0 L165.35 63.35" fill="#524242" fill-rule="evenodd" stroke="none"/>
      <path d="M157.0 50.9 Q157.95 50.6 158.3 49.9 159.8 49.0 161.9 48.4 L166.1 47.05 Q167.45 47.85 168.05 48.8 166.95 49.65 167.95 50.95 L169.45 53.15 Q169.65 54.55 168.65 55.75 L166.1 57.8 Q163.3 59.75 160.3 58.9 158.1 58.2 155.45 55.75 157.2 54.85 156.6 53.35 156.3 52.45 154.9 51.0 L157.0 50.9" fill="#551e1d" fill-rule="evenodd" stroke="none"/>
      <path d="M161.1 33.55 L161.5 33.25 167.15 32.9 Q170.85 32.7 172.15 33.55 171.25 34.4 169.2 34.45 166.85 34.4 165.9 34.5 L165.45 33.65 161.1 33.55" fill="#551e1d" fill-rule="evenodd" stroke="none"/>
      <path d="M161.35 70.15 Q162.15 68.75 163.3 68.8 164.4 68.8 164.7 70.2 L161.3 70.45 161.35 70.15" fill="#551e1d" fill-rule="evenodd" stroke="none"/>
      <path d="M160.4 50.75 L160.45 49.35 163.8 50.25 164.25 49.95 Q164.6 49.7 165.0 49.8 L164.05 52.4 165.6 52.5 Q165.75 52.75 165.5 53.6 L166.7 53.65 165.2 55.2 163.45 56.45 161.45 56.4 Q160.05 56.15 159.1 56.65 159.95 55.45 159.7 54.45 159.55 53.7 158.55 52.5 L160.7 52.15 Q160.4 51.6 160.4 50.75" fill="#5f2320" fill-rule="evenodd" stroke="none"/>
      <path d="M161.95 70.7 Q162.5 69.4 164.0 69.5 L166.5 69.3 167.95 69.5 Q168.65 69.65 169.05 70.1 L161.95 70.7" fill="#5f2320" fill-rule="evenodd" stroke="none"/>
      <path d="M162.4 33.85 L163.35 34.15 166.95 33.65 170.85 33.3 Q169.7 34.65 166.95 35.1 163.2 35.7 162.4 36.05 161.6 35.15 162.4 33.85" fill="#5f2320" fill-rule="evenodd" stroke="none"/>
      <path d="M149.15 60.1 Q149.7 59.55 150.7 59.35 L152.95 59.5 Q153.2 61.75 153.85 62.95 154.65 64.5 156.45 65.0 156.6 66.75 153.25 68.7 150.15 70.45 148.25 70.5 146.75 70.55 145.45 69.45 L143.25 67.4 140.45 66.1 Q138.65 65.15 138.8 64.0 L144.1 61.85 Q147.15 60.6 149.15 60.1" fill="#551e1d" fill-rule="evenodd" stroke="none"/>
      <path d="M98.45 61.0 Q100.5 61.1 100.75 62.25 100.85 62.6 100.25 63.5 99.6 64.4 99.75 65.0 99.85 65.55 100.4 65.95 L101.3 66.65 Q102.55 68.2 102.3 68.65 L100.0 69.55 Q96.5 70.6 94.25 70.5 92.1 70.35 88.8 68.35 85.2 66.1 85.75 64.3 85.95 63.65 87.95 62.3 89.7 61.1 90.55 60.8 L93.3 60.35 Q94.9 60.3 96.0 60.75 L95.5 60.75 98.45 61.0" fill="#551e1d" fill-rule="evenodd" stroke="none"/>
      <path d="M97.05 35.4 L98.5 35.45 100.75 37.15 102.75 39.0 102.5 39.65 Q102.15 40.25 102.25 40.5 L102.95 41.75 103.5 42.75 Q103.85 43.25 103.75 44.0 103.6 45.1 102.2 46.15 101.05 47.0 99.75 47.4 97.15 48.3 93.7 47.45 89.9 46.5 89.5 44.0 89.4 43.35 89.65 42.6 L90.05 41.3 89.8 39.2 Q89.95 37.75 91.35 36.25 92.05 35.55 92.75 35.25 L92.5 35.25 Q92.8 35.0 93.25 35.0 L94.45 35.2 95.55 35.55 97.05 35.4" fill="#551e1d" fill-rule="evenodd" stroke="none"/>
      <path d="M151.35 35.5 L154.5 35.35 Q156.95 35.95 158.75 37.7 157.6 38.6 159.1 41.05 160.65 43.5 158.55 45.05 156.8 46.35 154.35 46.75 L150.0 46.5 Q147.8 45.8 145.15 43.85 141.95 41.5 142.5 39.95 143.1 38.2 146.45 36.75 149.4 35.4 151.35 35.5" fill="#551e1d" fill-rule="evenodd" stroke="none"/>
      <path d="M152.5 37.0 L152.25 37.75 155.95 38.0 Q155.9 38.6 155.25 39.4 154.55 40.15 154.5 40.75 154.45 41.15 154.95 42.0 L155.45 43.05 Q155.3 44.15 154.0 44.45 L151.5 44.5 149.0 44.05 Q148.05 43.6 147.25 42.45 147.05 42.2 146.95 41.4 L146.55 40.4 Q146.2 40.05 145.2 39.85 L143.75 39.5 Q144.85 38.2 147.8 37.5 L152.5 37.0" fill="#5f2320" fill-rule="evenodd" stroke="none"/>
      <path d="M149.55 62.3 L148.75 61.75 Q150.85 61.55 151.5 62.25 150.4 63.4 151.95 65.6 153.15 67.25 150.3 67.9 148.8 68.25 146.9 67.2 L143.55 65.45 Q143.25 63.95 146.0 63.15 L149.55 62.3" fill="#5f2320" fill-rule="evenodd" stroke="none"/>
      <path d="M97.75 63.0 L97.55 62.85 Q96.55 63.75 97.0 65.05 L97.95 67.95 Q93.35 69.25 91.95 68.0 91.65 67.7 91.65 66.8 91.6 65.9 91.2 65.55 90.8 65.15 89.95 64.95 L88.5 64.7 Q89.0 62.05 92.55 61.75 95.65 61.5 97.55 62.85 L98.0 62.5 97.75 63.0" fill="#5f2320" fill-rule="evenodd" stroke="none"/>
      <path d="M97.5 38.5 L98.5 37.75 99.15 37.7 98.2 38.5 Q99.0 39.25 100.7 39.25 L101.35 42.25 Q101.75 44.05 101.0 44.75 100.1 45.55 97.25 45.6 L93.45 45.05 Q91.25 43.9 92.15 42.6 93.7 41.0 94.0 39.95 94.15 39.4 93.25 38.75 92.75 38.4 94.25 38.0 L95.85 38.1 97.5 38.5" fill="#5f2320" fill-rule="evenodd" stroke="none"/>
      <path d="M179.5 36.8 L179.0 36.55 180.25 35.55 Q181.3 36.35 182.05 38.6 182.65 40.45 182.75 42.05 182.9 44.4 180.95 44.9 178.3 45.1 177.0 45.55 L175.15 46.5 Q174.2 46.8 173.5 45.55 173.15 44.95 173.45 43.45 L174.0 41.3 Q174.55 39.2 175.9 37.95 177.45 36.45 179.5 36.8" fill="#551e1d" fill-rule="evenodd" stroke="none"/>
      <path d="M53.55 59.5 Q51.1 58.85 49.75 57.55 47.95 55.85 49.55 54.1 51.35 52.25 53.7 51.05 56.75 49.5 58.5 50.55 L58.2 50.15 59.95 51.85 Q61.8 53.55 60.6 55.65 59.5 57.45 57.5 58.65 55.3 59.95 53.55 59.5" fill="#551e1d" fill-rule="evenodd" stroke="none"/>
      <path d="M52.0 38.8 L51.75 39.05 52.9 43.45 Q53.15 46.0 51.5 47.55 49.5 49.5 46.8 50.2 43.55 51.0 43.5 48.05 43.5 47.25 44.05 45.7 L44.75 43.3 44.85 40.7 45.05 38.05 Q45.85 34.95 48.05 36.3 L52.0 38.8" fill="#551e1d" fill-rule="evenodd" stroke="none"/>
      <path d="M40.7 63.8 Q40.7 63.3 41.05 62.2 L41.5 60.55 41.45 59.05 Q41.35 58.0 41.5 57.55 42.2 55.75 43.3 56.35 44.15 56.8 45.05 58.5 L46.4 61.1 Q47.05 62.05 48.7 62.3 50.0 63.5 50.95 66.15 52.05 69.35 51.5 71.8 50.6 75.95 48.15 73.2 L44.95 68.4 Q44.4 67.65 42.25 66.25 40.75 65.25 40.7 63.8" fill="#551e1d" fill-rule="evenodd" stroke="none"/>
      <path d="M182.75 59.05 L182.25 58.3 Q183.9 58.4 184.55 58.85 185.15 59.35 185.75 61.05 186.45 62.95 186.35 63.65 186.25 64.55 185.0 65.55 183.1 67.05 180.15 68.5 176.75 70.15 175.0 70.05 172.05 69.9 171.2 66.85 170.9 65.65 171.6 64.15 L173.0 61.55 Q174.3 58.85 177.2 58.0 180.25 57.15 182.75 59.05" fill="#551e1d" fill-rule="evenodd" stroke="none"/>
      <path d="M178.25 60.05 L179.75 60.3 181.2 60.6 Q181.25 61.55 181.95 62.5 L183.25 64.0 Q178.35 67.3 175.75 67.5 173.05 67.75 173.7 65.95 174.4 63.9 173.55 63.75 174.1 61.85 176.35 60.8 177.65 60.15 178.75 60.25 L178.25 60.05" fill="#5f2320" fill-rule="evenodd" stroke="none"/>
      <path d="M179.55 39.5 Q180.6 40.65 180.1 41.8 179.75 42.65 178.3 42.95 L176.05 43.05 Q175.8 41.6 176.55 40.25 177.35 38.95 178.7 38.6 L179.55 39.5" fill="#5f2320" fill-rule="evenodd" stroke="none"/>
      <path d="M45.0 61.55 Q44.6 61.65 44.35 61.85 L47.15 64.95 Q50.0 68.4 48.45 69.0 47.55 69.35 45.15 65.65 43.25 62.7 44.35 61.85 L43.5 60.8 45.0 61.55" fill="#5f2320" fill-rule="evenodd" stroke="none"/>
      <path d="M53.05 53.9 Q53.35 52.8 54.35 52.25 L56.5 52.3 54.75 52.3 Q56.95 52.7 58.3 54.05 59.85 55.5 56.95 56.05 52.25 56.95 53.05 53.9" fill="#5f2320" fill-rule="evenodd" stroke="none"/>
      <path d="M47.5 40.3 L47.0 40.55 Q47.15 39.85 48.4 40.0 49.7 40.2 50.25 41.05 51.15 42.4 50.15 44.05 49.15 45.65 47.55 45.55 L47.75 42.6 Q47.95 40.65 47.5 40.3" fill="#5f2320" fill-rule="evenodd" stroke="none"/>
      <path d="M48.25 31.55 L41.25 66.55 36.2 67.0 47.0 27.3 48.25 31.55" fill="#612725" fill-rule="evenodd" stroke="none"/>
      <path d="M179.5 30.55 L180.75 26.3 192.6 68.0 187.5 67.55 179.5 30.55" fill="#612725" fill-rule="evenodd" stroke="none"/>
      <path d="M37.35 61.3 L37.7 62.95 Q38.2 64.5 39.0 64.3 40.35 64.0 41.5 60.55 L41.25 66.55 33.35 74.0 35.35 70.3 31.7 71.0 36.2 67.0 37.35 61.3" fill="#551e1d" fill-rule="evenodd" stroke="none"/>
      <path d="M185.75 61.05 L186.85 62.8 Q188.1 64.5 188.7 64.3 189.7 64.0 190.35 59.3 L192.6 68.0 197.7 71.65 Q194.35 70.65 193.0 70.65 192.2 70.65 191.7 71.0 L191.35 71.3 187.5 67.55 185.75 61.05" fill="#551e1d" fill-rule="evenodd" stroke="none"/>
      <path d="M180.75 26.3 L184.2 39.8 183.7 39.0 Q183.1 38.15 182.5 39.5 L182.0 41.0 179.35 32.3 180.75 26.3" fill="#551e1d" fill-rule="evenodd" stroke="none"/>
      <path d="M46.0 28.65 L48.2 33.1 46.0 44.3 Q45.0 41.3 45.0 39.65 45.0 38.6 44.2 39.35 L43.35 40.3 46.0 28.65" fill="#551e1d" fill-rule="evenodd" stroke="none"/>
      <path d="M42.2 72.65 Q50.55 70.95 62.35 70.55 L82.6 71.3 Q91.0 72.4 91.05 74.4 91.15 76.4 82.8 78.1 74.45 79.8 62.6 80.2 L42.4 79.45 Q34.0 78.35 33.95 76.35 33.9 74.35 42.2 72.65" fill="url(#gradient0)" fill-rule="evenodd" stroke="none"/>
    </g>
    <radialGradient cx="0" cy="0" gradientTransform="matrix(0.0335, -0.0011, -2.0E-4, -0.0056, 62.5, 75.4)" gradientUnits="userSpaceOnUse" id="gradient0" r="819.2" spreadMethod="pad">
      <stop offset="0.07450980392156863" stop-color="#000000" stop-opacity="0.29803923"/>
      <stop offset="1.0" stop-color="#000000" stop-opacity="0.0"/>
    </radialGradient>
    <g id="sprite2" transform="matrix(1.0, 0.0, 0.0, 1.0, 0.0, 0.0)">
      <use height="8.0" transform="matrix(1.0, 0.0, 0.0, 1.0, 0.0, 0.0)" width="45.85" xlink:href="#shape2"/>
    </g>
    <g id="shape2" transform="matrix(1.0, 0.0, 0.0, 1.0, 0.0, 0.0)">
      <path d="M43.75 4.65 L25.55 6.7 5.95 8.0 Q3.15 7.8 1.3 6.7 0.4 6.15 0.0 5.65 3.2 4.15 8.75 2.7 19.75 -0.2 31.25 0.0 43.2 0.2 45.4 2.2 46.2 2.9 45.5 3.7 44.9 4.35 43.75 4.65" fill="#1c1b1b" fill-rule="evenodd" stroke="none"/>
    </g>
    <g id="shape3" transform="matrix(1.0, 0.0, 0.0, 1.0, -42.65, -44.85)">
      <path d="M46.15 62.45 L45.8 55.75 Q45.65 54.4 44.15 51.4 42.7 48.55 42.65 47.35 42.6 45.9 47.65 45.6 L54.8 45.35 59.6 45.2 Q68.75 44.45 73.6 45.4 74.15 45.2 77.55 45.45 81.45 45.7 81.9 46.6 82.5 48.0 81.9 50.35 81.1 53.65 81.25 57.25 L81.2 62.85 Q81.25 67.4 82.05 68.75 83.0 70.3 83.05 72.75 83.1 75.1 82.3 75.8 81.75 76.35 79.45 76.45 L75.1 76.7 70.2 77.3 65.75 77.7 60.0 78.1 54.0 78.75 Q51.25 79.1 49.05 78.85 46.1 78.55 45.45 77.15 44.9 75.95 45.8 72.4 L46.55 68.2 Q46.3 67.45 46.15 62.45" fill="#333232" fill-rule="evenodd" stroke="none"/>
      <path d="M54.8 60.2 L55.75 59.15 54.9 58.95 Q55.3 57.9 56.5 57.85 L54.85 56.05 53.0 54.5 Q53.5 54.05 54.35 54.1 L55.9 54.35 54.0 52.9 52.45 51.25 57.55 51.5 55.15 51.45 Q56.3 51.65 58.45 53.25 L57.95 52.35 Q58.45 52.45 59.15 52.85 L60.25 53.5 Q60.05 51.8 60.35 50.4 62.9 53.15 64.0 53.95 L64.4 52.6 65.0 52.95 65.65 53.35 65.95 52.7 67.4 53.8 Q67.3 51.25 67.75 50.2 L69.5 52.8 Q69.5 51.6 70.0 50.35 L71.1 51.45 72.25 52.65 73.0 51.85 Q73.3 51.75 73.9 52.2 74.2 51.9 74.8 51.65 L75.7 51.25 75.6 52.9 77.8 51.9 Q79.2 51.15 79.9 50.95 L78.85 52.8 Q78.1 53.9 77.9 54.65 L78.8 53.9 78.1 57.8 77.3 61.65 77.9 61.8 77.4 63.4 Q79.15 64.3 79.35 65.95 L78.9 66.0 Q78.65 67.45 79.55 68.7 L80.95 70.85 Q79.35 69.55 78.45 69.0 76.75 68.0 76.75 69.85 L75.85 68.1 75.7 68.8 Q75.3 67.55 74.2 66.45 L73.6 67.2 73.0 67.9 72.35 67.1 71.75 66.3 71.0 66.9 70.25 67.6 68.45 66.0 67.95 66.8 67.55 67.6 67.0 66.85 Q65.95 68.95 65.0 69.35 L65.05 68.45 63.8 70.35 Q62.95 71.35 62.2 70.7 L61.35 71.3 60.5 71.8 61.05 71.05 61.7 70.4 57.5 72.35 Q54.95 73.55 53.15 73.85 53.35 73.3 54.15 72.5 55.0 71.7 55.15 71.1 L52.9 71.3 54.05 70.2 55.1 69.1 53.35 69.25 51.6 69.15 54.3 67.4 Q56.05 66.35 56.75 65.5 54.65 65.8 53.2 65.55 53.65 65.0 54.75 64.45 56.0 63.9 56.45 63.45 L53.2 63.35 56.0 60.4 54.8 60.2" fill="#3c3b3b" fill-rule="evenodd" stroke="none"/>
      <path d="M45.8 55.75 Q45.65 54.5 44.6 52.3 L43.0 48.85 Q45.6 49.5 46.6 50.45 47.5 51.35 48.55 54.55 49.7 57.85 49.9 60.55 L49.0 69.15 Q48.3 75.2 49.45 75.9 L54.5 76.05 Q57.45 75.5 59.4 74.65 L68.5 74.05 78.0 74.0 Q79.65 73.95 82.75 75.05 L82.3 75.8 Q81.75 76.35 79.45 76.45 L75.1 76.7 70.2 77.3 65.75 77.7 60.0 78.1 54.0 78.75 Q51.25 79.1 49.05 78.85 46.1 78.55 45.45 77.15 44.9 75.95 45.8 72.4 L46.55 68.2 Q46.3 67.45 46.15 62.45 L45.8 55.75" fill="#292828" fill-rule="evenodd" stroke="none"/>
      <path d="M49.25 47.4 L45.5 47.2 42.65 47.35 Q42.6 45.9 47.65 45.6 L54.8 45.35 59.6 45.2 Q68.75 44.45 73.6 45.4 74.15 45.2 77.55 45.45 81.45 45.7 81.9 46.6 L79.95 48.15 76.65 48.05 Q74.6 47.8 70.05 47.9 L61.45 48.05 49.25 47.4" fill="#403f3f" fill-rule="evenodd" stroke="none"/>
      <path d="M43.1 47.6 Q43.35 46.15 50.45 45.85 L59.4 45.65 Q61.3 45.45 64.2 45.55 L69.1 45.75 74.8 45.45 Q78.45 45.4 80.35 46.5 78.4 48.0 78.9 50.55 78.05 48.9 77.15 48.4 76.5 49.85 76.4 50.5 75.85 49.0 75.05 48.2 L75.05 50.55 Q74.15 48.75 72.9 47.9 L72.75 48.85 Q71.8 47.5 70.6 47.5 69.65 47.55 68.1 48.4 67.25 47.35 66.0 47.45 L65.7 48.25 65.4 49.0 64.4 47.8 Q64.25 49.1 64.4 50.4 63.8 48.5 62.3 47.6 60.65 46.5 59.75 48.7 L58.55 48.15 58.4 48.8 58.15 48.6 57.85 48.35 57.7 49.65 Q55.35 47.85 50.35 47.15 44.55 46.4 44.0 49.5 43.35 49.15 43.1 48.4 42.85 47.7 43.15 47.15 L43.1 47.6" fill="#403f3f" fill-rule="evenodd" stroke="none"/>
      <path d="M44.7 49.6 Q45.55 49.6 47.7 50.8 49.6 51.85 50.7 52.7 L48.45 52.95 50.15 54.15 49.3 54.15 Q50.25 55.05 51.3 55.4 48.5 55.05 50.05 56.7 L53.0 59.05 51.35 59.1 Q50.35 59.2 49.85 59.7 L50.3 60.25 49.3 61.1 50.2 61.25 51.05 61.4 50.15 63.4 48.95 65.35 52.7 65.85 50.4 67.15 Q49.05 68.0 48.45 69.05 L49.7 68.95 Q49.25 69.25 49.1 69.7 L48.75 70.6 49.35 70.75 Q48.0 73.8 48.35 75.6 48.8 77.9 52.1 77.55 53.9 77.3 56.2 75.85 58.65 74.3 59.55 72.65 59.35 73.25 59.4 74.55 L63.3 73.1 Q65.45 72.05 66.0 70.2 65.65 71.65 65.6 72.45 67.85 71.7 68.6 68.1 68.4 69.8 69.35 70.6 L69.65 69.9 70.05 70.4 Q71.05 69.95 71.9 68.95 L71.65 72.15 Q72.05 71.05 73.0 71.7 L74.65 73.2 74.85 71.55 76.7 73.1 76.9 72.25 77.15 71.55 77.8 72.35 78.3 73.3 78.55 72.2 78.9 71.25 Q79.55 73.8 81.2 74.95 L71.15 75.55 61.2 76.7 55.3 77.85 49.4 78.25 46.95 78.15 Q46.1 77.6 46.15 77.2 L46.45 75.9 46.75 73.05 46.8 70.15 Q46.6 68.05 46.55 64.45 L46.4 58.8 Q46.05 53.25 45.15 49.9 L44.7 49.6" fill="#242323" fill-rule="evenodd" stroke="none"/>
    </g>
    <g id="sprite3" transform="matrix(1.0, 0.0, 0.0, 1.0, 0.0, 0.0)">
      <use height="25.85" transform="matrix(1.0, 0.0, 0.0, 1.0, 0.0, 0.0)" width="34.35" xlink:href="#shape4"/>
    </g>
    <g id="shape4" transform="matrix(1.0, 0.0, 0.0, 1.0, 0.0, 0.0)">
      <path d="M33.2 0.0 L32.85 2.2 17.75 4.1 2.35 4.9 1.8 3.1 21.55 2.15 30.95 0.75 33.2 0.0" fill="#ffe2e2" fill-rule="evenodd" stroke="none"/>
      <path d="M34.05 15.85 L34.0 18.7 18.15 20.6 Q9.6 21.35 0.35 20.85 L1.35 19.15 21.55 18.2 31.05 16.75 34.05 15.85" fill="#ffe2e2" fill-rule="evenodd" stroke="none"/>
      <path d="M33.8 20.25 L33.75 22.1 18.35 23.9 0.0 25.85 0.35 23.15 21.8 22.15 Q30.4 21.4 33.8 20.25" fill="#ffe2e2" fill-rule="evenodd" stroke="none"/>
      <path d="M32.8 3.55 L32.4 4.9 17.3 6.6 1.9 7.6 1.45 6.55 21.15 5.25 Q30.7 4.45 32.8 3.55" fill="#ffe2e2" fill-rule="evenodd" stroke="none"/>
      <path d="M33.1 7.45 L33.5 8.9 18.35 10.75 2.95 11.6 2.45 10.05 22.2 8.95 Q31.75 8.15 33.1 7.45" fill="#ffe2e2" fill-rule="evenodd" stroke="none"/>
      <path d="M34.2 10.75 L33.8 12.2 18.65 13.95 3.3 14.9 2.8 13.75 22.55 12.55 Q32.1 11.7 34.2 10.75" fill="#ffe2e2" fill-rule="evenodd" stroke="none"/>
      <path d="M34.35 12.6 L33.95 13.7 18.8 15.35 3.4 16.4 3.0 15.55 22.7 14.2 Q32.25 13.4 34.35 12.6" fill="#ffe2e2" fill-rule="evenodd" stroke="none"/>
    </g>
    <g id="shape5" transform="matrix(1.0, 0.0, 0.0, 1.0, -42.2, -45.15)">
      <path d="M43.1 51.0 L43.35 51.6 42.75 48.95 Q43.1 50.25 45.45 52.0 47.8 53.7 48.0 55.2 L47.4 55.2 Q47.45 55.8 48.0 56.4 L48.75 57.55 48.6 59.2 48.2 60.75 Q48.1 61.75 48.35 63.75 48.55 65.65 48.35 66.8 47.85 70.9 47.85 72.3 L47.7 73.65 47.65 75.05 48.15 76.15 48.55 77.2 Q48.45 78.4 47.45 78.75 46.35 79.1 45.45 78.0 44.75 77.25 44.75 75.5 L44.95 72.7 Q45.65 65.2 45.5 61.7 45.3 56.7 43.1 51.0" fill="#1c1b1b" fill-rule="evenodd" stroke="none"/>
      <path d="M45.4 47.45 L47.55 47.65 51.0 47.95 54.35 47.95 Q55.7 48.05 56.0 48.65 56.05 48.5 56.5 48.95 L57.0 49.25 58.15 49.05 59.25 48.8 Q59.35 47.7 61.1 47.6 L63.8 47.6 64.2 48.05 64.55 48.4 65.35 48.15 66.1 47.9 68.7 47.8 Q70.4 47.7 71.15 48.25 L71.6 47.95 72.1 47.95 72.7 47.75 74.8 49.3 74.95 48.35 75.65 48.65 76.25 49.2 76.9 48.65 77.5 49.05 77.6 48.7 78.25 49.05 Q78.3 48.25 79.45 47.8 L81.4 47.4 79.6 48.15 Q78.65 48.75 78.8 49.75 L77.35 49.3 75.8 49.6 Q75.0 49.75 74.55 50.5 74.05 50.0 73.2 49.6 L71.75 48.9 69.85 49.1 67.7 48.8 63.9 49.0 Q63.1 48.15 61.65 48.45 60.2 48.8 59.85 49.85 L59.1 49.45 57.75 49.55 Q57.1 50.7 56.4 50.2 55.55 49.35 55.05 49.15 53.8 48.65 51.5 48.65 L47.8 48.65 Q45.3 48.4 44.5 47.4 L45.4 47.45" fill="#5a5959" fill-rule="evenodd" stroke="none"/>
      <path d="M48.85 52.05 L50.05 52.25 50.8 53.2 49.6 53.55 50.9 56.5 Q51.65 58.05 52.9 59.15 50.25 59.3 48.55 56.7 L49.3 56.75 49.15 53.5 Q48.85 52.05 47.85 51.1 L48.05 51.2 48.6 51.35 48.85 52.05" fill="#4d4d4d" fill-rule="evenodd" stroke="none"/>
      <path d="M51.6 64.75 L51.65 64.4 51.6 65.35 52.45 65.55 53.3 65.65 51.2 67.15 Q49.85 68.15 49.4 69.2 49.0 70.2 49.2 72.85 49.35 74.95 48.0 76.3 48.25 72.5 48.6 70.7 49.2 67.55 51.3 66.1 L49.65 65.75 Q50.35 64.65 51.6 64.75" fill="#4d4d4d" fill-rule="evenodd" stroke="none"/>
      <path d="M42.75 48.9 L44.25 49.95 46.3 52.05 Q46.65 52.65 46.9 56.05 47.1 59.25 47.65 59.7 L50.8 62.3 48.95 65.35 51.3 66.1 49.8 67.45 Q48.35 68.85 48.45 69.05 48.6 69.35 46.85 74.2 45.55 71.05 45.65 69.8 L45.75 65.25 Q45.6 61.25 44.8 58.9 44.0 56.6 43.3 52.55 L42.75 48.9" fill="#0a0909" fill-rule="evenodd" stroke="none"/>
      <path d="M48.6 46.0 L49.5 45.85 Q52.0 46.05 56.7 45.7 L63.9 45.4 67.5 45.3 71.1 45.2 75.15 45.25 Q78.0 45.4 78.6 46.2 77.9 46.15 76.9 46.6 L75.2 47.15 71.3 47.05 67.4 46.55 61.3 45.95 Q56.65 45.8 56.15 47.3 55.05 46.6 52.45 46.3 L48.6 46.0" fill="#4d4d4d" fill-rule="evenodd" stroke="none"/>
      <path d="M44.35 58.2 Q45.5 59.05 47.1 60.75 L46.6 60.55 46.95 61.6 47.45 62.65 46.35 62.4 Q46.65 63.3 47.45 64.45 L46.9 64.1 46.85 65.85 46.3 65.4 Q45.9 65.9 45.75 67.45 45.6 69.05 45.25 69.55 44.75 68.4 45.15 66.5 L45.6 63.4 45.2 60.65 Q44.85 59.1 44.35 58.25 L44.8 59.0 44.65 58.55 44.35 58.2" fill="#1c1b1b" fill-rule="evenodd" stroke="none"/>
      <path d="M42.2 47.8 L42.35 47.35 Q42.45 46.55 42.9 46.35 44.0 47.85 45.0 47.45 45.15 48.05 45.8 48.8 L46.65 50.0 Q46.95 50.9 46.35 54.3 L45.5 52.4 45.4 53.45 44.45 51.45 Q43.7 50.3 43.75 51.95 L43.35 50.9 43.05 49.8 Q42.45 47.55 42.2 47.8" fill="#1c1b1b" fill-rule="evenodd" stroke="none"/>
      <path d="M45.35 73.25 L45.6 70.65 46.3 72.05 Q46.1 70.35 47.15 69.7 47.2 71.65 46.7 75.35 L45.7 74.05 45.35 73.25" fill="#1c1b1b" fill-rule="evenodd" stroke="none"/>
      <path d="M47.4 75.3 Q48.9 77.0 48.45 78.6 47.45 79.1 46.75 78.9 46.0 78.65 45.4 77.55 L45.4 78.05 44.95 76.1 Q45.65 77.2 46.85 77.5 L46.65 76.35 47.25 77.0 47.4 75.3" fill="#0a0909" fill-rule="evenodd" stroke="none"/>
      <path d="M54.45 78.4 Q56.4 78.1 58.85 77.2 L65.05 75.0 64.45 75.6 67.2 74.5 66.45 75.25 69.7 73.45 Q69.45 74.0 69.15 75.6 L71.2 74.1 71.2 75.3 74.35 75.45 Q76.4 75.75 77.5 76.3 L70.9 77.25 64.2 77.85 57.9 78.4 54.6 78.4 54.45 78.4" fill="#121111" fill-rule="evenodd" stroke="none"/>
      <path d="M139.25 74.4 Q139.35 72.4 147.75 71.3 L167.95 70.55 Q179.8 70.95 188.1 72.65 196.45 74.35 196.4 76.35 196.35 78.35 187.9 79.45 L167.7 80.2 Q155.85 79.8 147.55 78.1 139.2 76.4 139.25 74.4" fill="url(#gradient1)" fill-rule="evenodd" stroke="none"/>
    </g>
    <radialGradient cx="0" cy="0" gradientTransform="matrix(-0.0335, -0.0011, 2.0E-4, -0.0056, 167.85, 75.4)" gradientUnits="userSpaceOnUse" id="gradient1" r="819.2" spreadMethod="pad">
      <stop offset="0.07450980392156863" stop-color="#000000" stop-opacity="0.29803923"/>
      <stop offset="1.0" stop-color="#000000" stop-opacity="0.0"/>
    </radialGradient>
    <g id="sprite4" transform="matrix(1.0, 0.0, 0.0, 1.0, 0.05, 0.0)">
      <use height="8.0" transform="matrix(1.0, 0.0, 0.0, 1.0, -0.05, 0.0)" width="45.85" xlink:href="#shape6"/>
    </g>
    <g id="shape6" transform="matrix(1.0, 0.0, 0.0, 1.0, 0.05, 0.0)">
      <path d="M45.8 5.65 Q45.45 6.15 44.5 6.7 42.65 7.8 39.85 8.0 L20.3 6.7 2.1 4.65 Q0.9 4.35 0.3 3.7 -0.4 2.9 0.4 2.2 2.6 0.2 14.55 0.0 26.1 -0.2 37.1 2.7 42.6 4.15 45.8 5.65" fill="#1c1b1b" fill-rule="evenodd" stroke="none"/>
    </g>
    <g id="shape7" transform="matrix(1.0, 0.0, 0.0, 1.0, -147.25, -44.85)">
      <path d="M184.2 62.45 L183.8 68.2 Q183.6 68.75 184.5 72.4 185.4 75.95 184.85 77.15 184.2 78.55 181.25 78.85 179.1 79.1 176.35 78.75 L170.35 78.1 164.6 77.7 155.25 76.7 150.85 76.45 Q148.55 76.35 148.0 75.8 147.2 75.1 147.25 72.75 147.35 70.3 148.3 68.75 149.1 67.4 149.15 62.85 L149.05 57.25 Q149.2 53.7 148.4 50.35 147.85 48.0 148.45 46.6 148.85 45.7 152.75 45.45 156.15 45.2 156.7 45.4 161.55 44.45 170.75 45.2 L175.5 45.35 182.65 45.6 Q187.7 45.9 187.65 47.35 187.6 48.55 186.15 51.4 184.65 54.4 184.5 55.75 L184.2 62.45" fill="#333232" fill-rule="evenodd" stroke="none"/>
      <path d="M156.4 52.2 Q157.05 51.75 157.35 51.85 L158.05 52.65 159.2 51.45 160.3 50.35 Q160.8 51.55 160.85 52.8 L162.6 50.2 Q163.1 51.45 162.9 53.8 L163.65 53.25 164.35 52.7 164.7 53.35 Q165.0 53.0 165.95 52.6 165.95 53.05 166.3 53.95 L169.95 50.4 Q170.25 51.6 170.05 53.5 L171.2 52.85 Q171.9 52.45 172.35 52.35 L171.9 53.25 Q174.05 51.65 175.2 51.45 L172.75 51.5 177.9 51.25 176.3 52.9 Q175.0 53.9 174.45 54.35 L175.95 54.1 Q176.8 54.05 177.3 54.5 L175.5 56.05 173.8 57.85 Q175.0 57.9 175.4 58.95 L174.6 59.15 175.5 60.2 174.35 60.4 175.65 61.9 177.1 63.35 175.5 63.45 173.85 63.45 175.6 64.45 Q176.7 65.0 177.1 65.55 175.75 65.8 173.55 65.5 174.3 66.35 176.0 67.4 L178.75 69.15 176.95 69.25 175.2 69.1 176.3 70.2 177.4 71.3 175.15 71.1 176.15 72.5 Q177.0 73.3 177.15 73.85 175.4 73.55 172.8 72.35 L168.6 70.4 169.3 71.05 169.8 71.8 168.1 70.7 Q167.35 71.35 166.55 70.35 L165.25 68.45 165.3 69.35 Q164.5 69.0 163.3 66.85 L162.8 67.6 162.35 66.8 161.9 66.0 160.05 67.6 159.3 66.9 158.6 66.3 158.0 67.1 157.35 67.9 156.75 67.2 156.1 66.45 Q155.15 67.4 154.6 68.8 L154.45 68.1 153.55 69.85 Q153.6 68.0 151.9 69.0 L149.4 70.85 Q149.5 70.4 150.75 68.7 151.65 67.45 151.4 66.0 L151.0 65.95 Q151.15 64.3 152.95 63.4 L152.7 62.6 152.4 61.8 153.0 61.65 152.2 57.8 151.5 53.9 152.45 54.65 151.5 52.8 150.4 50.95 Q151.15 51.15 152.5 51.9 L154.7 52.9 154.65 51.25 155.55 51.65 156.4 52.2" fill="#3c3b3b" fill-rule="evenodd" stroke="none"/>
      <path d="M184.5 55.75 L184.2 62.45 183.8 68.2 Q183.6 68.75 184.5 72.4 185.4 75.95 184.85 77.15 184.2 78.55 181.25 78.85 179.1 79.1 176.35 78.75 L170.35 78.1 164.6 77.7 155.25 76.7 150.85 76.45 Q148.55 76.35 148.0 75.8 L147.55 75.05 Q150.65 73.95 152.3 74.0 L161.8 74.05 170.9 74.65 Q172.85 75.5 175.85 76.05 L180.85 75.9 Q182.0 75.2 181.3 69.15 180.35 61.55 180.45 60.55 180.65 57.9 181.8 54.55 182.85 51.4 183.75 50.45 184.75 49.5 187.35 48.85 L185.75 52.3 Q184.65 54.5 184.5 55.75" fill="#292828" fill-rule="evenodd" stroke="none"/>
      <path d="M181.1 47.4 L168.9 48.05 160.25 47.9 Q155.7 47.8 153.65 48.05 L150.35 48.15 Q149.7 48.0 148.45 46.6 148.85 45.7 152.75 45.45 156.15 45.2 156.7 45.4 161.55 44.45 170.75 45.2 L175.5 45.35 182.65 45.6 Q187.7 45.9 187.65 47.35 182.25 46.95 181.1 47.4" fill="#403f3f" fill-rule="evenodd" stroke="none"/>
      <path d="M187.25 47.6 L187.2 47.15 Q187.45 47.7 187.2 48.4 186.95 49.15 186.3 49.5 185.75 46.4 180.0 47.15 175.0 47.85 172.6 49.65 L172.45 48.35 172.2 48.6 171.9 48.8 171.75 48.15 170.55 48.7 Q169.7 46.5 168.0 47.6 166.55 48.5 165.95 50.4 166.1 49.0 165.9 47.8 L164.95 49.0 164.65 48.25 164.3 47.45 Q163.05 47.35 162.2 48.4 160.65 47.55 159.75 47.5 158.55 47.5 157.55 48.85 L157.4 47.9 Q156.15 48.75 155.25 50.55 L155.25 48.2 Q154.4 49.15 153.9 50.5 L153.2 48.4 Q152.3 48.85 151.45 50.55 151.85 48.0 149.95 46.5 151.9 45.4 155.5 45.45 L161.25 45.75 166.1 45.55 Q169.0 45.45 170.9 45.65 L179.85 45.85 Q187.0 46.15 187.25 47.6" fill="#403f3f" fill-rule="evenodd" stroke="none"/>
      <path d="M185.6 49.6 L185.2 49.9 Q184.3 53.25 183.95 58.8 L183.8 64.45 183.5 70.15 183.55 73.05 183.85 75.9 184.2 77.2 183.4 78.15 182.2 78.35 180.9 78.25 175.05 77.85 169.15 76.7 159.15 75.55 149.1 74.95 Q150.85 73.75 151.4 71.25 L151.75 72.2 152.0 73.3 152.55 72.35 153.2 71.55 153.4 72.25 153.6 73.1 155.45 71.55 155.55 72.4 155.65 73.2 157.3 71.7 Q158.25 71.05 158.65 72.15 L158.4 68.95 Q159.25 69.95 160.25 70.4 L160.65 69.9 160.75 70.3 161.0 70.6 Q161.95 69.75 161.7 67.95 162.45 71.7 164.7 72.45 L164.4 70.25 Q164.9 72.05 167.05 73.1 L170.95 74.55 170.8 72.65 Q171.65 74.25 174.1 75.85 176.45 77.3 178.2 77.55 181.55 77.9 182.0 75.6 182.35 73.8 180.95 70.75 L181.55 70.6 181.25 69.7 180.65 68.95 181.3 69.0 181.9 69.05 Q181.35 68.0 179.9 67.15 L177.6 65.85 181.35 65.35 180.2 63.4 Q179.4 62.15 179.25 61.4 L180.15 61.25 181.0 61.1 180.0 60.25 180.45 59.7 Q179.95 59.2 179.0 59.1 L177.3 59.05 180.25 56.7 Q181.8 55.05 179.0 55.4 180.0 55.05 181.0 54.15 L180.2 54.15 181.85 52.95 179.6 52.7 Q180.8 51.8 182.6 50.8 184.75 49.6 185.6 49.6" fill="#242323" fill-rule="evenodd" stroke="none"/>
    </g>
    <g id="sprite5" transform="matrix(1.0, 0.0, 0.0, 1.0, 0.0, 0.0)">
      <use height="25.85" transform="matrix(1.0, 0.0, 0.0, 1.0, 0.0, 0.0)" width="34.35" xlink:href="#shape8"/>
    </g>
    <g id="shape8" transform="matrix(1.0, 0.0, 0.0, 1.0, 0.0, 0.0)">
      <path d="M1.2 0.0 L3.4 0.75 12.8 2.15 32.55 3.1 32.05 4.9 16.6 4.1 1.5 2.2 1.2 0.0" fill="#ffe2e2" fill-rule="evenodd" stroke="none"/>
      <path d="M0.35 15.85 L3.35 16.75 Q7.45 17.75 12.85 18.2 L33.05 19.15 34.05 20.85 Q24.75 21.35 16.25 20.6 L0.35 18.7 0.35 15.85" fill="#ffe2e2" fill-rule="evenodd" stroke="none"/>
      <path d="M0.55 20.25 Q3.95 21.4 12.55 22.15 L34.05 23.15 34.35 25.85 16.0 23.9 0.65 22.1 0.55 20.25" fill="#ffe2e2" fill-rule="evenodd" stroke="none"/>
      <path d="M1.55 3.55 Q3.65 4.45 13.2 5.25 L32.95 6.55 32.5 7.6 17.1 6.6 1.95 4.9 1.55 3.55" fill="#ffe2e2" fill-rule="evenodd" stroke="none"/>
      <path d="M1.3 7.45 Q2.6 8.15 12.15 8.95 L31.9 10.05 31.4 11.6 16.0 10.75 0.85 8.9 1.3 7.45" fill="#ffe2e2" fill-rule="evenodd" stroke="none"/>
      <path d="M0.15 10.75 Q2.3 11.7 11.85 12.55 L31.55 13.75 31.1 14.9 15.7 13.95 0.55 12.2 0.15 10.75" fill="#ffe2e2" fill-rule="evenodd" stroke="none"/>
      <path d="M0.0 12.6 Q2.15 13.4 11.65 14.2 L31.4 15.55 30.95 16.4 15.55 15.35 0.4 13.7 0.0 12.6" fill="#ffe2e2" fill-rule="evenodd" stroke="none"/>
    </g>
    <g id="shape9" transform="matrix(1.0, 0.0, 0.0, 1.0, -39.4, -20.0)">
      <path d="M187.55 48.95 L187.05 51.5 Q185.05 56.75 184.8 61.7 184.65 65.5 185.4 72.7 L185.6 75.5 Q185.55 77.2 184.9 78.0 183.95 79.1 182.9 78.75 181.85 78.4 181.8 77.2 L182.15 76.15 182.65 75.05 182.65 73.65 182.45 72.3 Q182.5 70.5 181.95 66.8 181.8 65.65 182.0 63.75 L182.1 60.75 181.7 59.2 Q181.45 58.15 181.6 57.55 181.7 57.05 182.3 56.4 L182.95 55.2 182.3 55.2 Q182.5 53.7 184.85 52.0 187.25 50.25 187.55 48.95" fill="#1c1b1b" fill-rule="evenodd" stroke="none"/>
      <path d="M184.9 47.45 L185.8 47.4 Q185.05 48.4 182.55 48.65 L178.8 48.65 Q176.5 48.65 175.25 49.15 L173.95 50.2 Q173.2 50.7 172.6 49.55 L171.2 49.45 Q170.9 49.75 170.45 49.85 170.1 48.8 168.7 48.45 167.25 48.15 166.45 49.0 L164.55 48.85 162.6 48.8 160.45 49.1 158.6 48.9 157.15 49.6 Q156.25 50.0 155.75 50.5 155.3 49.75 154.5 49.6 L152.95 49.3 152.25 49.55 151.5 49.75 Q151.65 48.75 150.75 48.15 L148.9 47.4 150.9 47.8 Q152.05 48.25 152.1 49.05 L152.7 48.7 152.85 49.05 153.45 48.65 154.05 49.2 154.7 48.65 155.4 48.35 155.5 49.3 157.6 47.75 158.7 47.95 159.15 48.25 Q159.9 47.7 161.6 47.8 L164.25 47.9 165.0 48.15 Q165.7 48.3 165.8 48.4 L166.15 48.05 166.5 47.6 169.25 47.6 Q171.0 47.7 171.05 48.8 L172.2 49.05 173.3 49.25 173.8 48.95 Q174.3 48.5 174.3 48.65 174.65 48.05 176.0 47.95 L179.35 47.95 182.8 47.65 184.9 47.45" fill="#5a5959" fill-rule="evenodd" stroke="none"/>
      <path d="M181.5 52.05 L181.7 51.35 182.25 51.2 182.45 51.1 Q181.45 52.05 181.15 53.5 L181.05 56.75 181.8 56.7 Q180.1 59.3 177.4 59.15 178.65 58.05 179.4 56.5 L180.7 53.55 179.5 53.2 Q179.75 52.5 180.3 52.25 L181.5 52.05" fill="#4d4d4d" fill-rule="evenodd" stroke="none"/>
      <path d="M178.7 64.75 Q179.95 64.65 180.65 65.75 L179.0 66.1 Q181.1 67.55 181.75 70.7 L182.35 76.3 Q181.0 74.95 181.1 72.85 181.3 70.15 180.9 69.2 180.5 68.15 179.15 67.15 L177.0 65.65 178.7 65.35 178.7 64.4 178.7 64.75" fill="#4d4d4d" fill-rule="evenodd" stroke="none"/>
      <path d="M187.55 48.9 L187.0 52.55 Q186.3 56.6 185.5 58.9 184.7 61.25 184.55 65.25 L184.65 69.8 Q184.8 71.05 183.5 74.2 L182.65 71.75 Q181.8 69.25 181.9 69.05 182.05 68.7 179.0 66.1 L181.35 65.35 179.55 62.3 182.65 59.7 Q183.2 59.25 183.45 56.05 183.65 52.6 184.0 52.05 184.5 51.2 186.1 49.95 186.85 49.35 187.55 48.9" fill="#0a0909" fill-rule="evenodd" stroke="none"/>
      <path d="M181.7 46.0 L177.85 46.3 Q175.3 46.6 174.2 47.3 173.65 45.8 169.05 45.95 L162.95 46.55 159.05 47.05 155.15 47.15 153.45 46.6 Q152.4 46.15 151.7 46.2 152.35 45.4 155.15 45.25 L159.25 45.2 162.85 45.3 166.4 45.4 173.6 45.7 Q178.3 46.05 180.8 45.85 L181.7 46.0" fill="#4d4d4d" fill-rule="evenodd" stroke="none"/>
      <path d="M183.7 60.55 L183.25 60.75 Q184.7 59.1 186.0 58.15 L185.5 59.0 185.85 58.4 Q184.95 60.05 184.7 63.4 184.65 64.1 185.15 66.5 185.55 68.4 185.05 69.55 184.75 69.05 184.6 67.45 184.45 65.9 184.05 65.4 183.65 65.65 183.5 65.85 L183.4 64.1 182.9 64.45 183.95 62.4 182.85 62.65 Q183.65 61.25 183.7 60.55" fill="#1c1b1b" fill-rule="evenodd" stroke="none"/>
      <path d="M188.15 47.8 Q188.0 47.65 187.25 49.8 L186.95 50.9 186.6 51.95 Q186.65 50.3 185.9 51.45 L184.9 53.45 184.8 52.4 183.95 54.3 183.65 52.1 Q183.5 50.65 183.7 50.0 183.85 49.6 184.55 48.8 L185.3 47.45 Q186.35 47.85 187.4 46.35 187.85 46.55 187.95 47.35 L188.15 47.8" fill="#1c1b1b" fill-rule="evenodd" stroke="none"/>
      <path d="M184.95 73.25 L184.6 74.05 183.6 75.35 Q183.15 71.25 183.2 69.7 184.2 70.4 184.0 72.05 L184.7 70.65 184.95 73.25" fill="#1c1b1b" fill-rule="evenodd" stroke="none"/>
      <path d="M184.95 78.05 L184.9 77.55 Q183.9 79.6 181.85 78.6 181.4 77.05 182.95 75.3 L183.1 77.0 183.65 76.35 183.5 77.5 Q184.65 77.15 185.35 76.1 L184.95 78.05" fill="#0a0909" fill-rule="evenodd" stroke="none"/>
      <path d="M177.8 78.6 L178.3 79.05 Q177.9 78.75 177.25 78.6 L177.8 78.6 M159.1 75.3 L159.1 74.1 161.15 75.6 160.6 73.45 Q163.25 75.05 163.85 75.25 L163.15 74.5 165.9 75.6 165.25 75.0 171.45 77.2 175.85 78.4 175.7 78.4 172.4 78.4 166.1 77.85 159.45 77.25 152.8 76.3 Q153.9 75.75 155.95 75.45 L159.1 75.3" fill="#121111" fill-rule="evenodd" stroke="none"/>
      <path d="M42.9 24.8 L39.7 20.3 190.35 20.0 187.25 24.55 42.9 24.8" fill="#404040" fill-rule="evenodd" stroke="none"/>
      <path d="M190.95 21.0 L186.7 24.8 151.75 23.8 165.25 23.65 182.6 23.3 Q185.85 23.15 188.75 22.05 L190.95 21.0" fill="#2b2b2b" fill-rule="evenodd" stroke="none"/>
      <path d="M40.05 20.6 L41.4 21.15 Q43.5 21.85 47.55 22.3 49.8 22.6 88.2 23.35 L126.1 24.05 44.15 24.55 39.4 20.85 40.05 20.6" fill="#2b2b2b" fill-rule="evenodd" stroke="none"/>
      <path d="M81.1 21.35 L61.0 20.3 178.1 20.8 Q131.3 22.8 114.1 22.55 L81.1 21.35" fill="#474747" fill-rule="evenodd" stroke="none"/>
      <path d="M43.8 23.15 L185.75 23.15 185.75 24.0 43.05 24.0 43.8 23.15" fill="#5e5a5b" fill-rule="evenodd" stroke="none"/>
    </g>
    <g id="sprite6" transform="matrix(1.0, 0.0, 0.0, 1.0, 0.0, 0.0)">
      <use height="20.0" transform="matrix(1.0, 0.0, 0.0, 1.0, 0.0, 0.0)" width="188.0" xlink:href="#sprite7"/>
    </g>
    <g id="sprite7" transform="matrix(1.0, 0.0, 0.0, 1.0, 0.0, 0.0)">
      <use height="20.0" transform="matrix(1.0, 0.0, 0.0, 1.0, 0.0, 0.0)" width="188.0" xlink:href="#shape10"/>
    </g>
    <g id="shape10" transform="matrix(1.0, 0.0, 0.0, 1.0, 0.0, 0.0)">
      <path d="M188.0 20.0 L0.0 20.0 22.0 2.6 167.0 0.0 188.0 20.0" fill="#000000" fill-rule="evenodd" stroke="none"/>
    </g>
  </defs>
</svg>
