<?xml version="1.0" encoding="UTF-8" standalone="no"?>
<svg xmlns:xlink="http://www.w3.org/1999/xlink" height="40.0px" width="40.0px" xmlns="http://www.w3.org/2000/svg">
  <g transform="matrix(1.0, 0.0, 0.0, 1.0, 0.0, 0.0)">
    <use height="11.2" transform="matrix(1.0, 0.0, 0.0, 1.0, 5.55, 22.25)" width="11.85" xlink:href="#shape0"/>
    <use height="4.3" transform="matrix(1.0, 0.0, 0.0, 1.0, 6.9, 22.7)" width="7.7" xlink:href="#sprite0"/>
    <use height="5.0" transform="matrix(1.0, 0.0, 0.0, 1.0, 5.6, 27.05)" width="3.9" xlink:href="#shape2"/>
    <use height="2.25" transform="matrix(1.0, 0.0, 0.0, 1.0, 8.15, 22.95)" width="4.4" xlink:href="#sprite1"/>
    <use height="11.8" transform="matrix(1.0, 0.0, 0.0, 1.0, 21.55, 23.85)" width="12.95" xlink:href="#shape4"/>
    <use height="5.0" transform="matrix(1.0, 0.0, 0.0, 1.0, 22.6, 24.35)" width="8.0" xlink:href="#sprite2"/>
    <use height="2.7" transform="matrix(1.0, 0.0, 0.0, 1.0, 23.65, 24.7)" width="4.5" xlink:href="#sprite3"/>
    <use height="15.75" transform="matrix(1.0, 0.0, 0.0, 1.0, 10.95, 24.25)" width="19.55" xlink:href="#shape7"/>
    <use height="5.1" transform="matrix(1.0, 0.0, 0.0, 1.0, 11.95, 28.4)" width="8.25" xlink:href="#sprite4"/>
    <use height="5.5" transform="matrix(1.0, 0.0, 0.0, 1.0, 12.05, 33.9)" width="5.65" xlink:href="#shape8"/>
    <use height="2.75" transform="matrix(1.0, 0.0, 0.0, 1.0, 13.05, 28.8)" width="4.65" xlink:href="#sprite5"/>
  </g>
  <defs>
    <g id="shape0" transform="matrix(1.0, 0.0, 0.0, 1.0, -5.55, -22.25)">
      <path d="M12.65 22.45 Q16.75 23.3 17.3 27.0 17.85 30.4 15.65 32.15 13.1 34.2 9.55 33.0 6.1 31.85 5.65 29.0 5.1 25.7 7.3 23.7 9.4 21.75 12.65 22.45" fill="url(#gradient0)" fill-rule="evenodd" stroke="none"/>
      <path d="M15.65 32.15 Q13.15 34.1 9.75 33.05 6.45 32.05 5.75 29.4 7.65 32.2 10.6 32.5 13.2 32.75 14.6 31.3 17.55 28.2 16.6 25.05 17.65 26.85 17.3 29.0 17.0 31.1 15.65 32.15" fill="#48498f" fill-rule="evenodd" stroke="none"/>
    </g>
    <radialGradient cx="0" cy="0" gradientTransform="matrix(0.006, 0.0092, 0.0085, -0.0073, 9.8, 25.75)" gradientUnits="userSpaceOnUse" id="gradient0" r="819.2" spreadMethod="pad">
      <stop offset="0.0" stop-color="#8589ff"/>
      <stop offset="1.0" stop-color="#404082"/>
    </radialGradient>
    <g id="sprite0" transform="matrix(1.0, 0.0, 0.0, 1.0, 0.0, 0.0)">
      <use height="4.25" transform="matrix(1.0, 0.0, 0.0, 1.0118, 0.0, 6.0E-4)" width="7.7" xlink:href="#shape1"/>
    </g>
    <g id="shape1" transform="matrix(1.0, 0.0, 0.0, 1.0, 0.0, -0.05)">
      <path d="M3.95 0.05 Q7.7 0.25 7.7 2.25 7.7 3.15 6.7 3.75 5.4 4.5 2.8 4.25 0.65 4.1 0.15 3.25 -0.25 2.6 0.35 1.65 0.9 0.8 2.1 0.35 L3.95 0.05" fill="#ffffff" fill-rule="evenodd" stroke="none"/>
    </g>
    <g id="shape2" transform="matrix(1.0, 0.0, 0.0, 1.0, -5.6, -27.05)">
      <path d="M6.4 27.25 L6.8 27.65 6.95 27.9 Q7.05 27.15 7.5 27.05 8.2 26.95 8.3 27.7 L8.2 28.4 8.5 28.2 9.1 28.3 9.4 29.0 9.2 29.5 8.8 29.55 9.2 29.75 Q9.55 30.0 9.5 30.4 9.4 31.0 8.9 30.8 9.2 31.65 8.6 31.85 8.0 32.05 7.95 31.55 7.95 32.1 7.6 32.05 7.2 32.0 7.15 31.45 L6.6 31.5 Q6.3 31.3 6.35 31.0 L6.45 30.8 Q6.05 31.0 5.8 30.55 5.65 30.25 5.9 30.05 L6.15 29.95 Q5.5 30.05 5.6 29.15 5.65 28.6 5.9 28.55 L6.15 28.55 Q5.6 28.25 5.9 27.6 6.05 27.15 6.4 27.25" fill="url(#gradient1)" fill-rule="evenodd" stroke="none"/>
      <path d="M7.75 28.5 Q9.0 29.75 8.5 30.7 7.95 31.7 6.95 30.8 6.0 30.0 6.45 28.8 6.9 27.65 7.75 28.5" fill="url(#gradient2)" fill-rule="evenodd" stroke="none"/>
    </g>
    <linearGradient gradientTransform="matrix(0.0014, 0.002, 0.0027, -0.0018, 7.55, 29.55)" gradientUnits="userSpaceOnUse" id="gradient1" spreadMethod="pad" x1="-819.2" x2="819.2">
      <stop offset="0.0" stop-color="#4f52a8"/>
      <stop offset="1.0" stop-color="#363670"/>
    </linearGradient>
    <linearGradient gradientTransform="matrix(-2.0E-4, -0.0016, -0.0021, 3.0E-4, 7.45, 29.75)" gradientUnits="userSpaceOnUse" id="gradient2" spreadMethod="pad" x1="-819.2" x2="819.2">
      <stop offset="0.0" stop-color="#4f52a8"/>
      <stop offset="1.0" stop-color="#363670"/>
    </linearGradient>
    <g id="sprite1" transform="matrix(1.0, 0.0, 0.0, 1.0, 0.0, 0.0)">
      <use height="2.25" transform="matrix(1.0, 0.0, 0.0, 1.0, 0.0, 0.0)" width="4.4" xlink:href="#shape3"/>
    </g>
    <g id="shape3" transform="matrix(1.0, 0.0, 0.0, 1.0, 0.0, 0.0)">
      <path d="M4.35 0.65 Q4.6 1.25 3.6 1.8 2.7 2.35 1.4 2.2 0.05 2.05 0.0 1.35 -0.05 0.95 0.6 0.5 1.3 0.0 2.05 0.0 4.05 -0.05 4.35 0.65" fill="#ffffff" fill-rule="evenodd" stroke="none"/>
    </g>
    <g id="shape4" transform="matrix(1.0, 0.0, 0.0, 1.0, -21.55, -23.85)">
      <path d="M27.9 23.85 Q32.4 23.75 33.9 27.5 35.3 30.9 33.4 33.25 31.15 36.05 27.2 35.6 23.3 35.2 22.15 32.4 20.8 29.05 22.6 26.45 24.4 23.9 27.9 23.85" fill="url(#gradient3)" fill-rule="evenodd" stroke="none"/>
      <path d="M33.4 33.25 Q31.3 35.9 27.45 35.65 23.7 35.4 22.35 32.75 25.0 35.25 28.2 34.85 31.0 34.5 32.1 32.6 34.5 28.7 32.7 25.65 34.25 27.25 34.4 29.6 34.55 31.85 33.4 33.25" fill="#48498f" fill-rule="evenodd" stroke="none"/>
    </g>
    <radialGradient cx="0" cy="0" gradientTransform="matrix(0.0084, 0.0082, 0.0072, -0.0097, 25.75, 27.95)" gradientUnits="userSpaceOnUse" id="gradient3" r="819.2" spreadMethod="pad">
      <stop offset="0.0" stop-color="#8589ff"/>
      <stop offset="1.0" stop-color="#404082"/>
    </radialGradient>
    <g id="sprite2" transform="matrix(1.0, 0.0, 0.0, 1.0, -0.05, 0.0)">
      <use height="5.1" transform="matrix(0.9756, 0.0, 0.0, 0.9802, 0.0488, 0.0)" width="8.2" xlink:href="#shape5"/>
    </g>
    <g id="shape5" transform="matrix(1.0, 0.0, 0.0, 1.0, -0.05, 0.0)">
      <path d="M3.6 0.2 Q7.7 -0.5 8.2 1.6 8.45 2.65 7.5 3.5 6.3 4.6 3.45 5.0 1.1 5.35 0.35 4.55 -0.2 3.95 0.2 2.8 0.6 1.75 1.7 1.0 2.7 0.35 3.6 0.2" fill="#ffffff" fill-rule="evenodd" stroke="none"/>
    </g>
    <g id="sprite3" transform="matrix(1.0, 0.0, 0.0, 1.0, 0.0, 0.05)">
      <use height="2.75" transform="matrix(0.9677, 0.0, 0.0, 0.9821, 0.0, -0.05)" width="4.65" xlink:href="#shape6"/>
    </g>
    <g id="shape6" transform="matrix(1.0, 0.0, 0.0, 1.0, 0.0, 0.0)">
      <path d="M4.55 0.35 Q4.95 0.95 4.0 1.8 3.2 2.55 1.75 2.75 0.25 2.9 0.0 2.15 -0.1 1.75 0.45 1.1 1.1 0.4 1.9 0.2 L4.55 0.35" fill="#ffffff" fill-rule="evenodd" stroke="none"/>
    </g>
    <g id="shape7" transform="matrix(1.0, 0.0, 0.0, 1.0, -10.95, -24.25)">
      <path d="M27.7 24.25 Q29.45 24.2 30.15 24.85 30.8 25.4 30.2 25.75 L28.15 26.2 25.8 25.9 Q25.05 25.5 25.85 24.85 26.65 24.25 27.7 24.25" fill="url(#gradient4)" fill-rule="evenodd" stroke="none"/>
      <path d="M26.8 25.1 L29.2 25.05 Q29.75 25.25 29.75 25.55 L29.15 26.05 27.75 26.25 26.35 26.05 Q25.8 25.85 25.95 25.6 26.15 25.3 26.8 25.1" fill="#664f35" fill-rule="evenodd" stroke="none"/>
      <path d="M27.85 25.15 Q28.85 25.1 29.05 25.4 29.25 25.65 28.85 25.9 L26.95 25.85 Q26.4 25.65 26.8 25.4 27.2 25.2 27.85 25.15" fill="url(#gradient5)" fill-rule="evenodd" stroke="none"/>
      <path d="M17.4 27.9 Q22.0 27.85 23.55 31.65 24.95 35.15 23.0 37.55 20.75 40.35 16.7 39.95 12.75 39.55 11.55 36.65 10.15 33.25 12.0 30.6 13.8 28.0 17.4 27.9" fill="url(#gradient6)" fill-rule="evenodd" stroke="none"/>
      <path d="M23.0 37.55 Q20.85 40.25 16.95 39.95 13.15 39.65 11.7 37.0 14.45 39.55 17.7 39.15 20.55 38.8 21.7 36.85 24.1 32.85 22.3 29.75 23.85 31.4 24.0 33.8 24.15 36.1 23.0 37.55" fill="#48498f" fill-rule="evenodd" stroke="none"/>
    </g>
    <linearGradient gradientTransform="matrix(-0.0065, -6.0E-4, -6.0E-4, 0.0065, 25.7, 25.05)" gradientUnits="userSpaceOnUse" id="gradient4" spreadMethod="pad" x1="-819.2" x2="819.2">
      <stop offset="0.0" stop-color="#4f52a8"/>
      <stop offset="1.0" stop-color="#363670"/>
    </linearGradient>
    <linearGradient gradientTransform="matrix(-0.0025, 0.0, 0.0, 0.0025, 27.7, 25.65)" gradientUnits="userSpaceOnUse" id="gradient5" spreadMethod="pad" x1="-819.2" x2="819.2">
      <stop offset="0.0" stop-color="#5c4820"/>
      <stop offset="1.0" stop-color="#473819"/>
    </linearGradient>
    <radialGradient cx="0" cy="0" gradientTransform="matrix(0.0086, 0.0084, 0.0073, -0.0099, 15.2, 32.1)" gradientUnits="userSpaceOnUse" id="gradient6" r="819.2" spreadMethod="pad">
      <stop offset="0.0" stop-color="#8589ff"/>
      <stop offset="1.0" stop-color="#404082"/>
    </radialGradient>
    <g id="sprite4" transform="matrix(1.0, 0.0, 0.0, 1.0, 0.0, 0.05)">
      <use height="5.1" transform="matrix(1.0061, 0.0, 0.0, 1.0, 3.0E-4, -0.05)" width="8.2" xlink:href="#shape5"/>
    </g>
    <g id="shape8" transform="matrix(1.0, 0.0, 0.0, 1.0, -12.05, -33.9)">
      <path d="M14.95 33.9 Q15.95 33.8 16.05 34.65 L15.9 35.4 16.3 35.2 17.15 35.3 Q17.6 35.65 17.55 36.1 L17.3 36.65 16.7 36.7 17.25 36.9 Q17.8 37.2 17.65 37.65 17.45 38.3 16.8 38.05 17.15 39.0 16.3 39.2 L15.5 39.1 15.4 38.85 Q15.35 39.45 14.8 39.4 L14.3 39.05 14.25 38.7 13.45 38.75 Q13.0 38.5 13.1 38.25 L13.25 38.0 Q12.65 38.2 12.3 37.65 12.1 37.35 12.45 37.15 L12.85 37.05 Q11.95 37.15 12.05 36.15 12.15 35.55 12.6 35.5 L12.95 35.55 Q12.15 35.15 12.55 34.45 12.85 33.95 13.3 34.1 L13.9 34.55 14.1 34.8 14.3 34.4 Q14.55 33.95 14.95 33.9" fill="url(#gradient7)" fill-rule="evenodd" stroke="none"/>
      <path d="M15.2 35.5 Q16.95 36.9 16.15 37.95 L13.95 38.0 Q12.65 37.05 13.3 35.8 14.0 34.5 15.2 35.5" fill="url(#gradient8)" fill-rule="evenodd" stroke="none"/>
    </g>
    <linearGradient gradientTransform="matrix(0.0019, 0.003, 0.003, -0.0019, 14.9, 36.65)" gradientUnits="userSpaceOnUse" id="gradient7" spreadMethod="pad" x1="-819.2" x2="819.2">
      <stop offset="0.0" stop-color="#4f52a8"/>
      <stop offset="1.0" stop-color="#363670"/>
    </linearGradient>
    <linearGradient gradientTransform="matrix(-2.0E-4, -0.0023, -0.0023, 2.0E-4, 14.75, 36.9)" gradientUnits="userSpaceOnUse" id="gradient8" spreadMethod="pad" x1="-819.2" x2="819.2">
      <stop offset="0.0" stop-color="#4f52a8"/>
      <stop offset="1.0" stop-color="#363670"/>
    </linearGradient>
    <g id="sprite5" transform="matrix(1.0, 0.0, 0.0, 1.0, 0.0, 0.05)">
      <use height="2.75" transform="matrix(1.0, 0.0, 0.0, 1.0, 0.0, -0.05)" width="4.65" xlink:href="#shape6"/>
    </g>
  </defs>
</svg>
