<?xml version="1.0" encoding="UTF-8" standalone="no"?>
<svg xmlns:xlink="http://www.w3.org/1999/xlink" height="40.1px" width="155.5px" xmlns="http://www.w3.org/2000/svg">
  <g transform="matrix(1.0, 0.0, 0.0, 1.0, 0.0, 0.0)">
    <use height="20.55" transform="matrix(1.0, 0.0, 0.0, 1.0, 9.1, 1.0)" width="140.55" xlink:href="#sprite0"/>
    <use height="18.7" transform="matrix(1.0, 0.0, 0.0, 1.0, 9.1, 11.1)" width="140.55" xlink:href="#sprite1"/>
    <use height="16.1" transform="matrix(1.0, 0.0, 0.0, 1.0, 9.1, 11.1)" width="140.55" xlink:href="#sprite2"/>
    <use height="22.5" transform="matrix(1.0, 0.0, 0.0, 1.0, 2.6, 2.95)" width="152.0" xlink:href="#shape1"/>
    <use height="19.65" transform="matrix(1.0, 0.0, 0.0, 1.0, 2.6, 5.8)" width="152.0" xlink:href="#sprite3"/>
    <use height="19.65" transform="matrix(1.0, 0.0, 0.0, 1.0, 2.6, 5.8)" width="152.0" xlink:href="#sprite4"/>
    <use height="29.75" transform="matrix(1.0, 0.0, 0.0, 1.0, 2.0, 2.15)" width="153.6" xlink:href="#shape3"/>
    <use height="11.25" transform="matrix(1.0, 0.0, 0.0, 1.0, 48.6, 10.8)" width="8.1" xlink:href="#sprite5"/>
    <use height="11.6" transform="matrix(1.0, 0.0, 0.0, 1.0, 41.3, 13.85)" width="13.45" xlink:href="#sprite6"/>
    <use height="15.75" transform="matrix(1.0, 0.0, 0.0, 1.0, 37.8, 8.1)" width="17.8" xlink:href="#shape6"/>
    <use height="13.75" transform="matrix(1.0, 0.0, 0.0, 1.0, 73.9, 9.3)" width="12.4" xlink:href="#sprite7"/>
    <use height="13.05" transform="matrix(1.0, 0.0, 0.0, 1.0, 70.45, 12.4)" width="14.65" xlink:href="#sprite8"/>
    <use height="15.75" transform="matrix(1.0, 0.0, 0.0, 1.0, 69.65, 8.1)" width="15.75" xlink:href="#shape9"/>
    <use height="11.15" transform="matrix(1.0, 0.0, 0.0, 1.0, 20.25, 10.8)" width="7.4" xlink:href="#sprite9"/>
    <use height="12.2" transform="matrix(1.0, 0.0, 0.0, 1.0, 10.4, 13.25)" width="13.45" xlink:href="#sprite10"/>
    <use height="15.75" transform="matrix(1.0, 0.0, 0.0, 1.0, 7.85, 8.1)" width="18.6" xlink:href="#shape11"/>
    <use height="11.25" transform="matrix(1.0, 0.0, 0.0, 1.0, 100.0, 10.8)" width="8.05" xlink:href="#sprite11"/>
    <use height="11.6" transform="matrix(1.0, 0.0, 0.0, 1.0, 101.9, 13.85)" width="13.45" xlink:href="#sprite12"/>
    <use height="15.75" transform="matrix(1.0, 0.0, 0.0, 1.0, 101.1, 8.1)" width="17.75" xlink:href="#shape12"/>
    <use height="11.15" transform="matrix(1.0, 0.0, 0.0, 1.0, 129.0, 10.8)" width="7.4" xlink:href="#sprite13"/>
    <use height="12.2" transform="matrix(1.0, 0.0, 0.0, 1.0, 132.8, 13.25)" width="13.45" xlink:href="#sprite14"/>
    <use height="15.75" transform="matrix(1.0, 0.0, 0.0, 1.0, 130.25, 8.1)" width="18.55" xlink:href="#shape13"/>
    <use height="0.0" id="price_tag_pt" transform="matrix(1.0, 0.0, 0.0, 1.0, 77.75, 35.45)" width="0.0" xlink:href="#sprite15"/>
  </g>
  <defs>
    <g id="sprite0" transform="matrix(1.0, 0.0, 0.0, 1.0, -36.0, -36.0)">
      <use height="16.1" transform="matrix(1.0, 0.0, 0.0, 1.2764, 36.0, 36.0003)" width="140.55" xlink:href="#shape0"/>
    </g>
    <g id="shape0" transform="matrix(1.0, 0.0, 0.0, 1.0, -36.0, -36.0)">
      <path d="M176.55 52.1 L36.0 52.1 36.0 36.0 176.55 36.0 176.55 52.1" fill="#000000" fill-rule="evenodd" stroke="none"/>
    </g>
    <g id="sprite1" transform="matrix(1.0, 0.0, 0.0, 1.0, -36.0, -36.0)">
      <use height="16.1" transform="matrix(1.0, 0.0, 0.0, 1.1615, 36.0, 36.0134)" width="140.55" xlink:href="#shape0"/>
    </g>
    <g id="sprite2" transform="matrix(1.0, 0.0, 0.0, 1.0, -36.0, -36.0)">
      <use height="16.1" transform="matrix(1.0, 0.0, 0.0, 1.0, 36.0, 36.0)" width="140.55" xlink:href="#shape0"/>
    </g>
    <g id="shape1" transform="matrix(1.0, 0.0, 0.0, 1.0, -2.6, -2.95)">
      <path d="M8.3 2.95 L148.4 2.95 154.6 5.8 154.6 23.85 2.6 23.85 2.6 5.8 8.3 2.95" fill="#363636" fill-rule="evenodd" stroke="none"/>
      <path d="M2.6 5.8 L154.6 5.8 154.6 25.45 2.6 25.45 2.6 5.8" fill="#141414" fill-rule="evenodd" stroke="none"/>
    </g>
    <g id="sprite3" transform="matrix(1.0, 0.0, 0.0, 1.0, 0.0, 0.0)">
      <use height="19.65" transform="matrix(1.0, 0.0, 0.0, 1.0, 0.0, 0.0)" width="152.0" xlink:href="#shape2"/>
    </g>
    <g id="shape2" transform="matrix(1.0, 0.0, 0.0, 1.0, 0.0, 0.0)">
      <path d="M152.0 19.65 L0.0 19.65 0.0 0.0 152.0 0.0 152.0 19.65" fill="url(#gradient0)" fill-rule="evenodd" stroke="none"/>
    </g>
    <linearGradient gradientTransform="matrix(0.0927, 0.0, 0.0, -0.0927, 76.65, 9.8)" gradientUnits="userSpaceOnUse" id="gradient0" spreadMethod="pad" x1="-819.2" x2="819.2">
      <stop offset="0.0" stop-color="#393939" stop-opacity="0.0"/>
      <stop offset="0.28627450980392155" stop-color="#858585" stop-opacity="0.34901962"/>
      <stop offset="0.5411764705882353" stop-color="#393939" stop-opacity="0.0"/>
      <stop offset="0.803921568627451" stop-color="#7f7f7f" stop-opacity="0.32156864"/>
      <stop offset="0.9647058823529412" stop-color="#393939" stop-opacity="0.0"/>
    </linearGradient>
    <g id="sprite4" transform="matrix(1.0, 0.0, 0.0, 1.0, 0.0, 0.0)">
      <use height="19.65" transform="matrix(1.0, 0.0, 0.0, 1.0, 0.0, 0.0)" width="152.0" xlink:href="#shape2"/>
    </g>
    <g id="shape3" transform="matrix(1.0, 0.0, 0.0, 1.0, -2.0, -2.15)">
      <path d="M91.0 17.0 Q91.0 23.2 87.15 27.55 83.3 31.9 77.85 31.9 72.35 31.9 68.5 27.55 64.65 23.2 64.65 17.0 64.65 10.85 68.5 6.5 72.4 2.15 77.85 2.15 83.3 2.15 87.15 6.5 91.0 10.85 91.0 17.0" fill="url(#gradient1)" fill-rule="evenodd" stroke="none"/>
      <path d="M54.9 6.5 Q58.75 10.85 58.75 17.0 58.75 23.2 54.9 27.55 51.05 31.9 45.55 31.9 40.05 31.9 36.2 27.55 32.35 23.2 32.35 17.0 32.35 10.85 36.2 6.5 40.1 2.15 45.55 2.15 51.0 2.15 54.9 6.5" fill="url(#gradient2)" fill-rule="evenodd" stroke="none"/>
      <path d="M15.15 2.15 Q20.6 2.15 24.5 6.5 28.35 10.85 28.35 17.0 28.35 23.2 24.5 27.55 20.65 31.9 15.15 31.9 9.7 31.9 5.85 27.55 2.0 23.2 2.0 17.0 2.0 10.85 5.85 6.5 9.7 2.15 15.15 2.15" fill="url(#gradient3)" fill-rule="evenodd" stroke="none"/>
      <path d="M98.85 17.0 Q98.85 10.85 102.7 6.5 106.6 2.15 112.05 2.15 117.5 2.15 121.35 6.5 125.2 10.85 125.2 17.0 125.2 23.2 121.35 27.55 117.5 31.9 112.05 31.9 106.55 31.9 102.7 27.55 98.85 23.2 98.85 17.0" fill="url(#gradient4)" fill-rule="evenodd" stroke="none"/>
      <path d="M129.25 17.0 Q129.25 10.85 133.1 6.5 137.0 2.15 142.45 2.15 147.9 2.15 151.75 6.5 155.6 10.85 155.6 17.0 155.6 23.2 151.75 27.55 147.9 31.9 142.45 31.9 136.95 31.9 133.1 27.55 129.25 23.2 129.25 17.0" fill="url(#gradient5)" fill-rule="evenodd" stroke="none"/>
      <path d="M2.6 5.55 L154.6 5.55 154.6 6.8 2.6 6.8 2.6 5.55" fill="#545051" fill-rule="evenodd" stroke="none"/>
    </g>
    <radialGradient cx="0" cy="0" gradientTransform="matrix(0.0165, 9.0E-4, 7.0E-4, -0.0183, 77.85, 17.0)" gradientUnits="userSpaceOnUse" id="gradient1" r="819.2" spreadMethod="pad">
      <stop offset="0.058823529411764705" stop-color="#ffeeba" stop-opacity="0.64705884"/>
      <stop offset="1.0" stop-color="#ffe4ba" stop-opacity="0.0"/>
    </radialGradient>
    <radialGradient cx="0" cy="0" gradientTransform="matrix(0.0165, 9.0E-4, 7.0E-4, -0.0183, 45.55, 17.0)" gradientUnits="userSpaceOnUse" id="gradient2" r="819.2" spreadMethod="pad">
      <stop offset="0.058823529411764705" stop-color="#ffeeba" stop-opacity="0.64705884"/>
      <stop offset="1.0" stop-color="#ffe4ba" stop-opacity="0.0"/>
    </radialGradient>
    <radialGradient cx="0" cy="0" gradientTransform="matrix(0.0165, 9.0E-4, 7.0E-4, -0.0183, 15.15, 17.0)" gradientUnits="userSpaceOnUse" id="gradient3" r="819.2" spreadMethod="pad">
      <stop offset="0.058823529411764705" stop-color="#ffeeba" stop-opacity="0.64705884"/>
      <stop offset="1.0" stop-color="#ffe4ba" stop-opacity="0.0"/>
    </radialGradient>
    <radialGradient cx="0" cy="0" gradientTransform="matrix(-0.0165, 9.0E-4, -7.0E-4, -0.0183, 112.05, 17.0)" gradientUnits="userSpaceOnUse" id="gradient4" r="819.2" spreadMethod="pad">
      <stop offset="0.058823529411764705" stop-color="#ffeeba" stop-opacity="0.64705884"/>
      <stop offset="1.0" stop-color="#ffe4ba" stop-opacity="0.0"/>
    </radialGradient>
    <radialGradient cx="0" cy="0" gradientTransform="matrix(-0.0165, 9.0E-4, -7.0E-4, -0.0183, 142.45, 17.0)" gradientUnits="userSpaceOnUse" id="gradient5" r="819.2" spreadMethod="pad">
      <stop offset="0.058823529411764705" stop-color="#ffeeba" stop-opacity="0.64705884"/>
      <stop offset="1.0" stop-color="#ffe4ba" stop-opacity="0.0"/>
    </radialGradient>
    <g id="sprite5" transform="matrix(1.0, 0.0, 0.0, 1.0, 0.0, 0.0)">
      <use height="11.15" transform="matrix(1.0946, 0.0, 0.0, 1.009, 0.0, 0.0)" width="7.4" xlink:href="#shape4"/>
    </g>
    <g id="shape4" transform="matrix(1.0, 0.0, 0.0, 1.0, 0.0, 0.0)">
      <path d="M0.0 5.6 Q0.0 3.3 1.1 1.65 2.15 0.0 3.7 0.0 5.25 0.0 6.3 1.65 7.4 3.3 7.4 5.6 7.4 7.9 6.3 9.5 5.25 11.15 3.7 11.15 2.15 11.15 1.1 9.5 0.0 7.9 0.0 5.6" fill="#000000" fill-rule="evenodd" stroke="none"/>
    </g>
    <g id="sprite6" transform="matrix(1.0, 0.0, 0.0, 1.0, 0.0, 0.0)">
      <use height="11.6" transform="matrix(1.0, 0.0, 0.0, 1.0, 0.0, 0.0)" width="13.45" xlink:href="#shape5"/>
    </g>
    <g id="shape5" transform="matrix(1.0, 0.0, 0.0, 1.0, 0.0, 0.0)">
      <path d="M6.75 0.0 Q9.55 0.0 11.5 1.95 13.45 3.9 13.45 6.65 13.45 9.55 11.25 11.6 L2.2 11.6 Q0.0 9.55 0.0 6.65 0.0 3.9 2.0 1.95 3.95 0.0 6.75 0.0" fill="#000000" fill-rule="evenodd" stroke="none"/>
    </g>
    <g id="shape6" transform="matrix(1.0, 0.0, 0.0, 1.0, -37.8, -8.1)">
      <path d="M55.6 16.3 Q55.6 19.05 54.45 20.4 53.0 22.05 49.3 22.1 46.7 22.15 44.9 20.4 43.05 18.7 43.05 16.3 43.05 13.9 44.9 12.25 46.7 10.6 49.3 10.5 55.6 10.35 55.6 16.3" fill="url(#gradient6)" fill-rule="evenodd" stroke="none"/>
      <path d="M54.35 16.3 Q54.35 18.7 52.7 20.4 51.05 22.1 48.7 22.1 46.35 22.1 44.7 20.4 43.05 18.7 43.05 16.3 43.05 13.9 44.7 12.2 46.35 10.5 48.7 10.5 51.05 10.5 52.7 12.2 54.35 13.9 54.35 16.3" fill="#616161" fill-rule="evenodd" stroke="none"/>
      <path d="M53.55 16.0 Q53.55 19.25 51.25 21.55 48.95 23.85 45.7 23.85 42.4 23.85 40.1 21.55 37.8 19.25 37.8 16.0 37.8 12.7 40.1 10.4 42.4 8.1 45.7 8.1 48.95 8.1 51.25 10.4 53.55 12.7 53.55 16.0" fill="#ffffff" fill-rule="evenodd" stroke="none"/>
      <path d="M53.55 16.0 Q53.55 19.25 51.25 21.55 48.95 23.85 45.7 23.85 42.4 23.85 40.1 21.55 37.8 19.25 37.8 16.0 37.8 12.7 40.1 10.4 42.4 8.1 45.7 8.1 48.95 8.1 51.25 10.4 53.55 12.7 53.55 16.0" fill="url(#gradient7)" fill-rule="evenodd" stroke="none"/>
    </g>
    <linearGradient gradientTransform="matrix(0.0, 0.0065, 0.0065, 0.0, 49.3, 16.3)" gradientUnits="userSpaceOnUse" id="gradient6" spreadMethod="pad" x1="-819.2" x2="819.2">
      <stop offset="0.03529411764705882" stop-color="#aba8a4"/>
      <stop offset="0.17647058823529413" stop-color="#b6b2ae"/>
      <stop offset="0.38823529411764707" stop-color="#cfc8c3"/>
      <stop offset="0.42745098039215684" stop-color="#beb8b3"/>
      <stop offset="0.5490196078431373" stop-color="#908c87"/>
      <stop offset="0.6392156862745098" stop-color="#74706b"/>
      <stop offset="0.6941176470588235" stop-color="#696661"/>
      <stop offset="1.0" stop-color="#857f7a"/>
    </linearGradient>
    <radialGradient cx="0" cy="0" fx="112.0" fy="0" gradientTransform="matrix(-0.0029, -0.0163, -0.0163, 0.0029, 44.4, 15.7)" gradientUnits="userSpaceOnUse" id="gradient7" r="819.2" spreadMethod="pad">
      <stop offset="0.24705882352941178" stop-color="#e3bb92" stop-opacity="0.0"/>
      <stop offset="0.396078431372549" stop-color="#d4ac83" stop-opacity="0.17254902"/>
      <stop offset="0.6352941176470588" stop-color="#b38c62" stop-opacity="0.54901963"/>
      <stop offset="0.6509803921568628" stop-color="#a9835b" stop-opacity="0.627451"/>
      <stop offset="0.6941176470588235" stop-color="#92704c" stop-opacity="0.8039216"/>
      <stop offset="0.7333333333333333" stop-color="#856543" stop-opacity="0.9098039"/>
      <stop offset="0.7686274509803922" stop-color="#806140" stop-opacity="0.9490196"/>
    </radialGradient>
    <g id="sprite7" transform="matrix(1.0, 0.0, 0.0, 1.0, 0.0, 0.0)">
      <use height="13.75" transform="matrix(1.0, 0.0, 0.0, 1.0, 0.0, 0.0)" width="12.4" xlink:href="#shape7"/>
    </g>
    <g id="shape7" transform="matrix(1.0, 0.0, 0.0, 1.0, 0.0, 0.0)">
      <path d="M10.6 2.15 Q12.4 4.25 12.4 7.3 12.4 9.35 11.5 11.15 10.55 12.85 9.05 13.75 L3.35 13.75 Q1.85 12.85 0.95 11.15 0.0 9.35 0.0 7.3 0.0 4.25 1.8 2.15 3.6 0.0 6.2 0.0 8.8 0.0 10.6 2.15" fill="#000000" fill-rule="evenodd" stroke="none"/>
    </g>
    <g id="sprite8" transform="matrix(1.0, 0.0, 0.0, 1.0, 0.0, 0.0)">
      <use height="13.05" transform="matrix(1.0, 0.0, 0.0, 1.0, 0.0, 0.0)" width="14.65" xlink:href="#shape8"/>
    </g>
    <g id="shape8" transform="matrix(1.0, 0.0, 0.0, 1.0, 0.0, 0.0)">
      <path d="M7.35 0.0 Q10.35 0.0 12.5 2.1 14.65 4.2 14.65 7.2 14.65 10.9 11.6 13.05 L3.05 13.05 Q1.65 12.05 0.85 10.55 0.0 8.95 0.0 7.2 0.0 4.2 2.15 2.1 4.3 0.0 7.35 0.0" fill="#000000" fill-rule="evenodd" stroke="none"/>
    </g>
    <g id="shape9" transform="matrix(1.0, 0.0, 0.0, 1.0, -69.65, -8.1)">
      <path d="M85.4 16.0 Q85.4 19.25 83.1 21.55 80.8 23.85 77.55 23.85 74.25 23.85 71.95 21.55 69.65 19.25 69.65 16.0 69.65 12.7 71.95 10.4 74.25 8.1 77.55 8.1 80.8 8.1 83.1 10.4 85.4 12.7 85.4 16.0" fill="#ffffff" fill-rule="evenodd" stroke="none"/>
      <path d="M85.4 16.0 Q85.4 19.25 83.1 21.55 80.8 23.85 77.55 23.85 74.25 23.85 71.95 21.55 69.65 19.25 69.65 16.0 69.65 12.7 71.95 10.4 74.25 8.1 77.55 8.1 80.8 8.1 83.1 10.4 85.4 12.7 85.4 16.0" fill="url(#gradient8)" fill-rule="evenodd" stroke="none"/>
    </g>
    <radialGradient cx="0" cy="0" fx="112.0" fy="0" gradientTransform="matrix(-0.0028, -0.0155, -0.0155, 0.0028, 76.9, 15.8)" gradientUnits="userSpaceOnUse" id="gradient8" r="819.2" spreadMethod="pad">
      <stop offset="0.24705882352941178" stop-color="#e3bb92" stop-opacity="0.0"/>
      <stop offset="0.38823529411764707" stop-color="#d4ac83" stop-opacity="0.17254902"/>
      <stop offset="0.611764705882353" stop-color="#b38c62" stop-opacity="0.54901963"/>
      <stop offset="0.6392156862745098" stop-color="#a9835b" stop-opacity="0.627451"/>
      <stop offset="0.7215686274509804" stop-color="#92704c" stop-opacity="0.8039216"/>
      <stop offset="0.796078431372549" stop-color="#856543" stop-opacity="0.9098039"/>
      <stop offset="0.8627450980392157" stop-color="#806140" stop-opacity="0.9490196"/>
    </radialGradient>
    <g id="sprite9" transform="matrix(1.0, 0.0, 0.0, 1.0, 0.0, 0.0)">
      <use height="11.15" transform="matrix(1.0, 0.0, 0.0, 1.0, 0.0, 0.0)" width="7.4" xlink:href="#shape4"/>
    </g>
    <g id="sprite10" transform="matrix(1.0, 0.0, 0.0, 1.0, 0.0, 0.0)">
      <use height="12.2" transform="matrix(1.0, 0.0, 0.0, 1.0, 0.0, 0.0)" width="13.45" xlink:href="#shape10"/>
    </g>
    <g id="shape10" transform="matrix(1.0, 0.0, 0.0, 1.0, 0.0, 0.0)">
      <path d="M10.5 12.2 L3.0 12.2 Q1.6 11.3 0.85 9.85 0.0 8.35 0.0 6.65 0.0 3.9 1.95 1.95 3.95 0.0 6.75 0.0 9.55 0.0 11.5 1.95 13.45 3.9 13.45 6.65 13.45 8.35 12.65 9.85 11.85 11.3 10.5 12.2" fill="#000000" fill-rule="evenodd" stroke="none"/>
    </g>
    <g id="shape11" transform="matrix(1.0, 0.0, 0.0, 1.0, -7.85, -8.1)">
      <path d="M15.55 12.3 Q17.95 10.65 21.0 10.65 23.75 10.65 25.2 12.3 26.45 13.75 26.45 16.25 26.45 18.75 25.2 20.2 23.75 21.85 21.0 21.85 17.95 21.85 15.55 20.2 13.1 18.55 13.1 16.25 13.1 14.0 15.55 12.3" fill="url(#gradient9)" fill-rule="evenodd" stroke="none"/>
      <path d="M15.2 12.3 Q17.25 10.65 19.8 10.65 22.15 10.65 23.35 12.3 24.4 13.75 24.4 16.25 24.4 18.75 23.35 20.2 22.15 21.85 19.8 21.85 17.25 21.85 15.2 20.2 13.1 18.55 13.1 16.25 13.1 14.0 15.2 12.3" fill="#545454" fill-rule="evenodd" stroke="none"/>
      <path d="M15.75 8.1 Q19.0 8.1 21.3 10.4 23.6 12.7 23.6 16.0 23.6 19.25 21.3 21.55 19.0 23.85 15.75 23.85 12.45 23.85 10.15 21.55 7.85 19.25 7.85 16.0 7.85 12.7 10.15 10.4 12.45 8.1 15.75 8.1" fill="#ffffff" fill-rule="evenodd" stroke="none"/>
      <path d="M15.75 8.1 Q19.0 8.1 21.3 10.4 23.6 12.7 23.6 16.0 23.6 19.25 21.3 21.55 19.0 23.85 15.75 23.85 12.45 23.85 10.15 21.55 7.85 19.25 7.85 16.0 7.85 12.7 10.15 10.4 12.45 8.1 15.75 8.1" fill="url(#gradient10)" fill-rule="evenodd" stroke="none"/>
    </g>
    <linearGradient gradientTransform="matrix(0.0, 0.0059, 0.0059, 0.0, 19.75, 16.4)" gradientUnits="userSpaceOnUse" id="gradient9" spreadMethod="pad" x1="-819.2" x2="819.2">
      <stop offset="0.03529411764705882" stop-color="#aba8a4"/>
      <stop offset="0.17647058823529413" stop-color="#b6b2ae"/>
      <stop offset="0.38823529411764707" stop-color="#cfc8c3"/>
      <stop offset="0.42745098039215684" stop-color="#beb8b3"/>
      <stop offset="0.5490196078431373" stop-color="#908c87"/>
      <stop offset="0.6392156862745098" stop-color="#74706b"/>
      <stop offset="0.6941176470588235" stop-color="#696661"/>
      <stop offset="1.0" stop-color="#857f7a"/>
    </linearGradient>
    <radialGradient cx="0" cy="0" fx="112.0" fy="0" gradientTransform="matrix(-0.0028, -0.0154, -0.0154, 0.0028, 13.45, 15.25)" gradientUnits="userSpaceOnUse" id="gradient10" r="819.2" spreadMethod="pad">
      <stop offset="0.24705882352941178" stop-color="#e3bb92" stop-opacity="0.0"/>
      <stop offset="0.4196078431372549" stop-color="#d4ac83" stop-opacity="0.17254902"/>
      <stop offset="0.6941176470588235" stop-color="#b38c62" stop-opacity="0.54901963"/>
      <stop offset="0.7137254901960784" stop-color="#a9835b" stop-opacity="0.627451"/>
      <stop offset="0.7725490196078432" stop-color="#92704c" stop-opacity="0.8039216"/>
      <stop offset="0.8274509803921568" stop-color="#856543" stop-opacity="0.9098039"/>
      <stop offset="0.8745098039215686" stop-color="#806140" stop-opacity="0.9490196"/>
    </radialGradient>
    <g id="sprite11" transform="matrix(1.0, 0.0, 0.0, 1.0, 0.0, 0.0)">
      <use height="11.15" transform="matrix(1.0878, 0.0, 0.0, 1.009, 0.0, 0.0)" width="7.4" xlink:href="#shape4"/>
    </g>
    <g id="sprite12" transform="matrix(1.0, 0.0, 0.0, 1.0, 0.0, 0.0)">
      <use height="11.6" transform="matrix(1.0, 0.0, 0.0, 1.0, 0.0, 0.0)" width="13.45" xlink:href="#shape5"/>
    </g>
    <g id="shape12" transform="matrix(1.0, 0.0, 0.0, 1.0, -101.1, -8.1)">
      <path d="M101.1 16.3 Q101.1 10.4 107.35 10.5 109.95 10.6 111.75 12.25 113.6 13.9 113.6 16.3 113.6 18.7 111.75 20.4 109.95 22.15 107.35 22.1 103.7 22.05 102.25 20.4 101.1 19.05 101.1 16.3" fill="url(#gradient11)" fill-rule="evenodd" stroke="none"/>
      <path d="M102.3 16.3 Q102.3 13.9 103.95 12.2 105.6 10.5 107.95 10.5 110.3 10.5 111.95 12.2 113.6 13.9 113.6 16.3 113.6 18.7 111.95 20.4 110.3 22.1 107.95 22.1 105.6 22.1 103.95 20.4 102.3 18.7 102.3 16.3" fill="#616161" fill-rule="evenodd" stroke="none"/>
      <path d="M103.1 16.0 Q103.1 12.7 105.4 10.4 107.75 8.1 111.0 8.1 114.25 8.1 116.55 10.4 118.85 12.7 118.85 16.0 118.85 19.25 116.55 21.55 114.25 23.85 111.0 23.85 107.75 23.85 105.4 21.55 103.1 19.25 103.1 16.0" fill="#ffffff" fill-rule="evenodd" stroke="none"/>
      <path d="M103.1 16.0 Q103.1 12.7 105.4 10.4 107.75 8.1 111.0 8.1 114.25 8.1 116.55 10.4 118.85 12.7 118.85 16.0 118.85 19.25 116.55 21.55 114.25 23.85 111.0 23.85 107.75 23.85 105.4 21.55 103.1 19.25 103.1 16.0" fill="url(#gradient12)" fill-rule="evenodd" stroke="none"/>
    </g>
    <linearGradient gradientTransform="matrix(0.0, -0.0065, 0.0065, 0.0, 107.35, 16.3)" gradientUnits="userSpaceOnUse" id="gradient11" spreadMethod="pad" x1="-819.2" x2="819.2">
      <stop offset="0.03529411764705882" stop-color="#aba8a4"/>
      <stop offset="0.17647058823529413" stop-color="#b6b2ae"/>
      <stop offset="0.38823529411764707" stop-color="#cfc8c3"/>
      <stop offset="0.42745098039215684" stop-color="#beb8b3"/>
      <stop offset="0.5490196078431373" stop-color="#908c87"/>
      <stop offset="0.6392156862745098" stop-color="#74706b"/>
      <stop offset="0.6941176470588235" stop-color="#696661"/>
      <stop offset="1.0" stop-color="#857f7a"/>
    </linearGradient>
    <radialGradient cx="0" cy="0" fx="112.0" fy="0" gradientTransform="matrix(0.0029, -0.0163, 0.0163, 0.0029, 112.3, 15.7)" gradientUnits="userSpaceOnUse" id="gradient12" r="819.2" spreadMethod="pad">
      <stop offset="0.24705882352941178" stop-color="#e3bb92" stop-opacity="0.0"/>
      <stop offset="0.39215686274509803" stop-color="#d4ac83" stop-opacity="0.17254902"/>
      <stop offset="0.6274509803921569" stop-color="#b38c62" stop-opacity="0.54901963"/>
      <stop offset="0.6431372549019608" stop-color="#a9835b" stop-opacity="0.627451"/>
      <stop offset="0.6862745098039216" stop-color="#92704c" stop-opacity="0.8039216"/>
      <stop offset="0.7254901960784313" stop-color="#856543" stop-opacity="0.9098039"/>
      <stop offset="0.7607843137254902" stop-color="#806140" stop-opacity="0.9490196"/>
    </radialGradient>
    <g id="sprite13" transform="matrix(1.0, 0.0, 0.0, 1.0, 0.0, 0.0)">
      <use height="11.15" transform="matrix(1.0, 0.0, 0.0, 1.0, 0.0, 0.0)" width="7.4" xlink:href="#shape4"/>
    </g>
    <g id="sprite14" transform="matrix(1.0, 0.0, 0.0, 1.0, 0.0, 0.0)">
      <use height="12.2" transform="matrix(1.0, 0.0, 0.0, 1.0, 0.0, 0.0)" width="13.45" xlink:href="#shape10"/>
    </g>
    <g id="shape13" transform="matrix(1.0, 0.0, 0.0, 1.0, -130.25, -8.1)">
      <path d="M130.25 16.25 Q130.25 13.75 131.5 12.3 132.95 10.65 135.7 10.65 138.7 10.65 141.1 12.3 143.55 14.0 143.55 16.25 143.55 18.5 141.1 20.2 138.7 21.85 135.7 21.85 132.95 21.85 131.5 20.2 130.25 18.75 130.25 16.25" fill="url(#gradient13)" fill-rule="evenodd" stroke="none"/>
      <path d="M132.25 16.25 Q132.25 13.75 133.3 12.3 134.5 10.65 136.9 10.65 139.45 10.65 141.45 12.3 143.55 14.0 143.55 16.25 143.55 18.5 141.45 20.2 139.45 21.85 136.9 21.85 134.5 21.85 133.3 20.2 132.25 18.75 132.25 16.25" fill="#545454" fill-rule="evenodd" stroke="none"/>
      <path d="M133.05 16.0 Q133.05 12.7 135.35 10.4 137.7 8.1 140.95 8.1 144.2 8.1 146.5 10.4 148.8 12.7 148.8 16.0 148.8 19.25 146.5 21.55 144.2 23.85 140.95 23.85 137.7 23.85 135.35 21.55 133.05 19.25 133.05 16.0" fill="#ffffff" fill-rule="evenodd" stroke="none"/>
      <path d="M133.05 16.0 Q133.05 12.7 135.35 10.4 137.7 8.1 140.95 8.1 144.2 8.1 146.5 10.4 148.8 12.7 148.8 16.0 148.8 19.25 146.5 21.55 144.2 23.85 140.95 23.85 137.7 23.85 135.35 21.55 133.05 19.25 133.05 16.0" fill="url(#gradient14)" fill-rule="evenodd" stroke="none"/>
    </g>
    <linearGradient gradientTransform="matrix(0.0, -0.0059, 0.0059, 0.0, 136.9, 16.4)" gradientUnits="userSpaceOnUse" id="gradient13" spreadMethod="pad" x1="-819.2" x2="819.2">
      <stop offset="0.03529411764705882" stop-color="#aba8a4"/>
      <stop offset="0.17647058823529413" stop-color="#b6b2ae"/>
      <stop offset="0.38823529411764707" stop-color="#cfc8c3"/>
      <stop offset="0.42745098039215684" stop-color="#beb8b3"/>
      <stop offset="0.5490196078431373" stop-color="#908c87"/>
      <stop offset="0.6392156862745098" stop-color="#74706b"/>
      <stop offset="0.6941176470588235" stop-color="#696661"/>
      <stop offset="1.0" stop-color="#857f7a"/>
    </linearGradient>
    <radialGradient cx="0" cy="0" fx="112.0" fy="0" gradientTransform="matrix(0.0027, -0.015, 0.015, 0.0027, 142.85, 15.5)" gradientUnits="userSpaceOnUse" id="gradient14" r="819.2" spreadMethod="pad">
      <stop offset="0.24705882352941178" stop-color="#e3bb92" stop-opacity="0.0"/>
      <stop offset="0.4117647058823529" stop-color="#d4ac83" stop-opacity="0.17254902"/>
      <stop offset="0.6784313725490196" stop-color="#b38c62" stop-opacity="0.54901963"/>
      <stop offset="0.7019607843137254" stop-color="#a9835b" stop-opacity="0.627451"/>
      <stop offset="0.7647058823529411" stop-color="#92704c" stop-opacity="0.8039216"/>
      <stop offset="0.8235294117647058" stop-color="#856543" stop-opacity="0.9098039"/>
      <stop offset="0.8745098039215686" stop-color="#806140" stop-opacity="0.9490196"/>
    </radialGradient>
  </defs>
</svg>
