<?xml version="1.0" encoding="UTF-8" standalone="no"?>
<svg xmlns:xlink="http://www.w3.org/1999/xlink" height="338.8px" width="126.0px" xmlns="http://www.w3.org/2000/svg">
  <g transform="matrix(1.0, 0.0, 0.0, 1.0, 0.0, 0.0)">
    <use height="22.35" transform="matrix(1.0, 0.0, 0.0, 1.0, 5.0, 337.0)" width="114.9" xlink:href="#sprite0"/>
    <use height="29.8" transform="matrix(1.0, 0.0, 0.0, 1.0, 0.0, 335.0)" width="126.0" xlink:href="#sprite1"/>
    <use height="154.7" transform="matrix(1.0, 0.0, 0.0, 1.0, 7.8, 204.6)" width="109.85" xlink:href="#shape2"/>
    <use height="13.3" transform="matrix(1.0, 0.0, 0.0, 0.9654, 31.85, 26.0)" width="57.0" xlink:href="#sprite2"/>
    <use height="201.2" transform="matrix(1.0, 0.0, 0.0, 1.0, 7.9, 27.9)" width="106.5" xlink:href="#shape4"/>
    <use height="0.0" id="price_tag_pt" transform="matrix(1.0, 0.0, 0.0, 1.0, 62.75, 360.8)" width="0.0" xlink:href="#sprite3"/>
  </g>
  <defs>
    <g id="sprite0" transform="matrix(1.0, 0.0, 0.0, 1.0, 0.0, 0.0)">
      <use height="22.35" transform="matrix(1.0, 0.0, 0.0, 1.0, 0.0, 0.0)" width="114.9" xlink:href="#shape0"/>
    </g>
    <g id="shape0" transform="matrix(1.0, 0.0, 0.0, 1.0, 0.0, 0.0)">
      <path d="M96.85 3.1 Q102.85 3.85 108.6 6.55 114.35 9.2 114.85 11.45 115.3 13.45 112.1 14.8 L103.55 17.1 95.35 19.75 Q89.2 21.7 83.55 22.1 78.5 22.5 69.9 22.25 59.3 21.95 53.55 22.1 44.05 22.35 33.05 21.75 L16.55 20.1 6.4 18.15 Q1.9 17.0 0.55 15.45 -0.7 14.0 0.95 12.25 L2.85 10.8 Q4.45 9.9 6.8 9.0 L10.5 7.4 Q12.9 6.15 21.55 4.0 31.55 1.6 40.85 0.45 49.7 -0.6 70.95 0.8 L96.85 3.1" fill="#000000" fill-rule="evenodd" stroke="none"/>
    </g>
    <g id="sprite1" transform="matrix(1.0, 0.0, 0.0, 1.0, 0.0, 0.0)">
      <use height="29.8" transform="matrix(1.0, 0.0, 0.0, 1.0, 0.0, 0.0)" width="126.0" xlink:href="#shape1"/>
    </g>
    <g id="shape1" transform="matrix(1.0, 0.0, 0.0, 1.0, 0.0, 0.0)">
      <path d="M125.85 12.1 Q126.35 14.6 124.9 16.8 123.5 18.85 120.2 20.95 117.25 22.8 107.8 24.5 99.65 26.0 91.15 26.7 L77.25 28.4 60.35 29.75 38.8 28.75 21.45 26.3 Q15.25 25.15 8.75 22.5 2.15 19.85 0.55 17.85 -0.75 16.15 1.0 13.95 L3.05 12.1 Q4.7 11.05 8.45 10.2 12.35 9.3 13.65 8.55 16.2 7.1 25.35 4.65 36.0 1.85 45.85 0.55 55.25 -0.7 77.85 0.9 L105.3 3.6 Q112.25 4.6 118.5 7.0 125.35 9.65 125.85 12.1" fill="url(#gradient0)" fill-rule="evenodd" stroke="none"/>
    </g>
    <radialGradient cx="0" cy="0" gradientTransform="matrix(0.0807, 0.0, 0.0, -0.018, 63.0, 14.9)" gradientUnits="userSpaceOnUse" id="gradient0" r="819.2" spreadMethod="pad">
      <stop offset="0.0" stop-color="#000000"/>
      <stop offset="1.0" stop-color="#000000" stop-opacity="0.0"/>
    </radialGradient>
    <g id="shape2" transform="matrix(1.0, 0.0, 0.0, 1.0, -7.8, -204.6)">
      <path d="M7.9 348.75 Q7.2 342.9 24.25 338.8 39.7 335.1 62.15 334.45 84.8 333.75 100.25 336.6 117.6 339.8 117.35 346.25 117.3 348.45 115.2 350.35 113.1 346.6 97.3 344.45 82.7 342.45 62.95 342.5 42.8 342.6 28.1 344.85 11.65 347.4 8.55 351.75 8.1 351.0 7.9 348.75" fill="#000000" fill-rule="evenodd" stroke="none"/>
      <path d="M7.9 344.7 Q9.7 342.35 17.7 339.85 33.65 334.9 64.45 334.1 95.25 333.3 109.4 338.0 116.45 340.35 117.35 342.85 L109.15 343.05 Q108.25 341.65 102.15 340.35 89.95 337.75 63.95 338.25 38.0 338.8 24.7 341.8 18.05 343.3 16.6 344.7 L7.9 344.7" fill="#44352d" fill-rule="evenodd" stroke="none"/>
      <path d="M26.7 341.4 Q28.55 340.55 33.8 339.65 44.35 337.8 61.55 337.4 78.75 337.0 94.3 339.25 102.05 340.4 106.4 341.6 L96.75 340.25 66.05 338.75 35.9 340.0 26.7 341.4" fill="#6e5448" fill-rule="evenodd" stroke="none"/>
      <path d="M7.9 344.7 Q10.85 346.25 19.2 347.85 35.9 350.95 63.0 350.95 87.75 350.95 105.05 346.9 113.65 344.9 117.35 342.85 L116.75 349.1 Q116.75 351.45 110.2 353.85 97.1 358.7 64.45 359.05 33.15 359.45 17.4 355.55 9.55 353.6 7.9 351.6 L7.9 344.7" fill="#281c19" fill-rule="evenodd" stroke="none"/>
      <path d="M43.95 352.15 L43.7 351.15 59.35 351.6 58.3 354.3 Q58.15 354.65 58.75 355.6 59.4 356.5 59.05 357.05 58.4 358.05 60.8 359.3 L41.05 358.8 42.8 356.55 Q42.6 356.25 42.55 355.75 42.5 354.8 43.3 354.05 44.1 353.25 43.95 352.15" fill="#382c25" fill-rule="evenodd" stroke="none"/>
      <path d="M48.3 351.8 L54.05 351.8 53.05 359.05 48.3 358.8 48.3 351.8" fill="#44352d" fill-rule="evenodd" stroke="none"/>
      <path d="M7.85 344.4 Q9.4 345.25 13.5 346.35 21.6 348.55 34.15 349.65 L33.4 351.0 33.1 352.0 Q32.8 353.2 32.95 354.0 L32.8 355.7 Q32.55 356.75 32.7 357.4 L32.8 358.05 Q19.4 356.7 12.3 353.95 10.05 353.1 8.75 352.2 L7.85 351.45 7.85 344.4" fill="#1a0e0c" fill-rule="evenodd" stroke="none"/>
      <path d="M7.85 351.45 L7.85 344.4 Q10.05 345.6 15.9 346.95 L16.7 348.75 17.15 355.5 Q12.35 354.25 9.65 352.75 L7.85 351.45" fill="#000000" fill-rule="evenodd" stroke="none"/>
      <path d="M71.8 358.9 L71.5 357.8 71.25 356.5 Q71.1 355.1 71.7 354.7 72.7 354.05 71.5 352.2 L77.05 350.6 Q95.35 349.6 108.3 346.15 114.8 344.4 117.65 342.85 L117.0 349.1 Q117.0 351.2 111.3 353.5 100.0 358.05 71.8 358.9" fill="#1a0e0c" fill-rule="evenodd" stroke="none"/>
      <path d="M117.0 349.1 L116.65 349.95 Q116.0 351.0 114.35 352.0 109.05 355.25 95.9 357.05 L95.9 348.9 96.65 348.55 Q105.95 347.05 112.7 344.8 116.1 343.7 117.65 342.85 L117.0 349.1" fill="#000000" fill-rule="evenodd" stroke="none"/>
      <path d="M28.3 346.8 Q44.8 349.3 62.75 349.1 85.55 348.8 99.65 345.9 106.7 344.45 109.15 343.05 L117.35 342.85 Q115.3 345.2 107.45 347.5 91.75 352.05 62.75 351.8 33.75 351.5 17.95 348.1 10.0 346.35 7.9 344.7 L15.4 344.3 Q20.05 345.6 28.3 346.8" fill="#44352d" fill-rule="evenodd" stroke="none"/>
      <path d="M7.9 344.7 Q10.9 346.1 17.45 347.6 30.45 350.5 48.0 350.75 75.95 351.15 93.4 349.75 L105.3 348.25 Q104.75 349.25 98.15 350.2 84.95 352.15 54.75 352.0 27.45 351.9 14.95 348.3 8.7 346.5 7.9 344.7" fill="#6e5448" fill-rule="evenodd" stroke="none"/>
      <path d="M77.95 341.75 Q69.75 345.1 62.25 345.1 54.95 345.1 45.55 341.3 39.1 338.7 33.85 335.4 27.7 331.55 19.45 328.75 12.05 326.25 10.95 325.35 7.95 322.8 7.8 320.8 7.65 319.5 8.7 318.6 L58.4 316.65 Q107.45 315.3 108.45 315.85 L113.1 318.5 Q116.0 321.3 112.1 324.85 L104.4 328.1 Q96.2 331.45 90.45 335.1 83.65 339.45 77.95 341.75" fill="#281c19" fill-rule="evenodd" stroke="none"/>
      <path d="M44.2 339.25 Q45.55 340.25 49.55 341.9 L52.55 343.65 Q47.2 342.25 41.4 339.45 37.2 337.5 33.85 335.4 27.7 331.55 19.45 328.75 12.05 326.25 10.95 325.35 7.95 322.8 7.8 320.8 7.65 319.5 8.7 318.6 L12.7 318.35 20.55 318.0 37.85 332.4 40.2 334.9 Q42.4 337.85 44.2 339.25" fill="#1a0e0c" fill-rule="evenodd" stroke="none"/>
      <path d="M96.65 315.75 Q108.05 315.6 108.45 315.85 L113.1 318.5 Q116.0 321.3 112.1 324.85 111.7 325.25 106.55 327.4 100.5 329.9 96.5 332.2 L95.55 332.6 Q93.9 333.15 88.1 336.85 81.55 340.95 78.9 342.25 73.65 344.1 66.3 344.85 L64.9 344.9 Q70.55 340.6 71.2 339.6 71.5 339.15 71.4 337.9 71.3 336.85 71.9 336.6 74.4 335.55 73.9 333.45 L72.9 331.6 76.9 319.25 96.65 315.75" fill="#1a0e0c" fill-rule="evenodd" stroke="none"/>
      <path d="M71.2 344.05 L75.4 341.6 81.9 336.6 86.35 332.35 88.9 329.6 113.5 317.8 Q116.55 320.75 112.1 324.85 L104.65 328.35 Q96.65 331.95 90.95 335.6 81.15 341.85 71.2 344.05" fill="#000000" fill-rule="evenodd" stroke="none"/>
      <path d="M61.55 310.0 Q81.65 309.9 95.85 311.85 111.75 314.1 113.95 318.2 117.0 323.9 101.05 328.05 86.25 331.95 65.2 332.25 41.3 332.6 23.7 328.6 4.25 324.2 9.0 317.4 11.3 314.1 27.25 312.05 42.05 310.1 61.55 310.0" fill="#6e5448" fill-rule="evenodd" stroke="none"/>
      <path d="M61.55 310.0 Q81.65 309.95 95.85 311.7 111.75 313.7 113.95 317.45 117.0 322.65 101.05 326.4 86.3 329.95 65.2 330.25 41.35 330.6 23.7 326.95 4.25 322.9 9.0 316.75 11.3 313.75 27.25 311.85 42.0 310.1 61.55 310.0" fill="#291f22" fill-rule="evenodd" stroke="none"/>
      <path d="M61.85 312.35 Q79.5 312.25 91.95 313.85 105.95 315.65 108.0 319.0 110.85 323.65 97.0 327.05 84.05 330.15 64.8 330.4 43.0 330.75 27.8 327.45 11.2 323.9 15.6 318.35 17.7 315.65 31.7 314.0 44.75 312.4 61.85 312.35" fill="#090003" fill-rule="evenodd" stroke="none"/>
      <path d="M25.45 323.85 Q21.55 322.5 19.25 320.95 L17.75 319.6 17.75 311.95 106.2 311.5 105.75 319.3 Q104.1 321.5 97.85 323.7 85.35 328.1 62.2 328.1 38.0 328.1 25.45 323.85" fill="#4f4744" fill-rule="evenodd" stroke="none"/>
      <path d="M46.4 323.4 L49.9 323.55 55.05 323.6 Q57.2 323.4 64.55 323.4 60.2 326.75 58.7 327.1 L55.45 327.35 52.9 327.25 Q49.9 326.6 49.05 325.75 L46.4 323.4" fill="#6b615c" fill-rule="evenodd" stroke="none"/>
      <path d="M17.75 311.95 L26.15 311.9 Q31.35 316.15 36.55 321.75 L38.35 323.15 Q40.2 324.65 40.4 325.25 40.6 326.0 41.3 327.05 28.75 325.65 22.0 322.5 L18.6 320.45 17.75 319.6 17.75 311.95" fill="#403a37" fill-rule="evenodd" stroke="none"/>
      <path d="M15.75 308.95 L18.35 308.95 25.9 316.85 25.9 318.0 Q25.9 319.25 26.15 319.95 L26.35 321.7 Q20.9 320.25 17.75 318.25 L15.75 316.6 15.75 308.95" fill="#383330" fill-rule="evenodd" stroke="none"/>
      <path d="M18.9 314.45 L20.0 319.95 15.9 317.45 15.75 308.95 18.9 314.45" fill="#262321" fill-rule="evenodd" stroke="none"/>
      <path d="M96.85 311.55 L106.2 311.5 105.75 319.3 Q104.35 321.15 99.25 323.15 89.1 327.15 70.55 327.9 69.35 326.55 70.55 325.75 71.5 325.15 71.85 324.4 L72.05 323.75 96.85 311.55" fill="#403a37" fill-rule="evenodd" stroke="none"/>
      <path d="M91.45 313.85 L96.4 312.9 104.95 310.85 106.2 310.85 105.65 319.6 Q104.35 320.9 100.4 322.55 92.55 325.8 79.4 327.6 L81.1 326.25 82.85 322.15 87.0 317.85 Q91.15 313.6 91.45 313.85" fill="#383330" fill-rule="evenodd" stroke="none"/>
      <path d="M97.35 315.8 Q102.15 313.2 105.5 311.55 L106.2 311.55 106.05 319.75 Q105.1 320.65 102.55 321.85 97.5 324.25 89.7 325.9 L93.2 318.1 97.35 315.8" fill="#262321" fill-rule="evenodd" stroke="none"/>
      <path d="M103.1 314.6 Q105.3 311.75 106.1 311.55 L106.2 311.55 106.05 319.75 Q104.4 321.2 99.95 322.95 L101.05 317.4 103.1 314.6" fill="#121010" fill-rule="evenodd" stroke="none"/>
      <path d="M90.5 305.6 Q103.7 307.5 105.7 310.5 109.65 316.45 95.5 320.2 82.9 323.55 62.85 323.8 42.75 324.0 29.85 320.9 15.3 317.4 18.55 311.25 20.5 307.5 33.75 305.5 45.5 303.7 62.15 303.75 78.25 303.8 90.5 305.6" fill="#91847d" fill-rule="evenodd" stroke="none"/>
      <path d="M90.45 305.5 Q103.7 307.25 105.7 310.05 109.65 315.6 95.45 319.15 82.85 322.25 62.75 322.5 42.55 322.7 29.65 319.8 15.05 316.5 18.3 310.75 20.25 307.25 33.5 305.35 45.3 303.7 62.0 303.75 78.15 303.85 90.45 305.5" fill="#262321" fill-rule="evenodd" stroke="none"/>
      <path d="M87.15 308.65 Q99.25 310.1 101.1 312.4 104.7 316.9 91.7 319.75 80.1 322.3 61.65 322.45 43.1 322.65 31.2 320.3 17.8 317.6 20.8 312.95 22.6 310.1 34.8 308.55 L60.95 307.25 87.15 308.65" fill="#171514" fill-rule="evenodd" stroke="none"/>
      <path d="M84.5 312.6 Q94.95 313.65 96.7 315.25 100.05 318.3 88.8 320.25 78.8 322.0 62.8 322.15 46.7 322.3 36.4 320.75 24.75 318.95 27.35 315.7 30.85 311.4 62.0 311.55 L84.5 312.6" fill="#000000" fill-rule="evenodd" stroke="none"/>
      <path d="M38.2 257.35 L38.4 313.65 37.8 314.4 Q36.85 315.1 35.15 315.05 33.25 314.95 32.45 314.15 L32.05 313.4 32.0 257.35 32.8 256.8 Q33.85 256.25 35.1 256.25 37.05 256.25 38.2 257.35" fill="#403a37" fill-rule="evenodd" stroke="none"/>
      <path d="M36.1 257.4 L38.3 257.3 38.8 313.05 36.9 314.9 36.1 257.4" fill="#211d1c" fill-rule="evenodd" stroke="none"/>
      <path d="M37.55 258.25 L38.3 257.3 38.9 313.3 37.8 314.15 37.55 258.25" fill="#000000" fill-rule="evenodd" stroke="none"/>
      <path d="M33.05 257.65 L33.15 314.55 31.95 313.6 31.9 256.55 33.05 257.65" fill="#1a1716" fill-rule="evenodd" stroke="none"/>
      <path d="M32.0 257.35 Q31.85 255.65 35.2 255.6 38.55 255.6 38.3 257.3 38.1 258.85 35.1 258.7 32.1 258.5 32.0 257.35" fill="#403a37" fill-rule="evenodd" stroke="none"/>
      <path d="M33.8 258.5 L34.8 258.1 35.4 312.3 34.1 311.9 Q33.9 300.05 34.05 292.65 L34.0 272.8 33.8 258.5" fill="#665d58" fill-rule="evenodd" stroke="none"/>
      <path d="M31.95 256.95 L32.35 257.35 34.55 257.9 Q37.05 258.1 38.3 257.3 L37.95 258.0 Q37.3 258.75 35.5 258.95 33.75 259.15 32.7 258.1 L31.95 256.95" fill="#665d58" fill-rule="evenodd" stroke="none"/>
      <path d="M32.8 312.4 L33.5 313.0 Q34.4 313.6 35.4 313.55 37.05 313.4 37.55 312.65 L37.65 314.55 Q36.3 315.15 34.55 315.05 L32.85 314.55 32.3 314.15 32.8 312.4" fill="#1a1716" fill-rule="evenodd" stroke="none"/>
      <path d="M89.2 257.35 L89.4 313.65 88.8 314.4 Q87.85 315.1 86.15 315.05 84.25 314.95 83.45 314.15 L83.05 313.4 83.0 257.35 83.8 256.8 Q84.85 256.25 86.1 256.25 88.05 256.25 89.2 257.35" fill="#403a37" fill-rule="evenodd" stroke="none"/>
      <path d="M87.1 257.4 L89.3 257.3 89.8 313.05 87.9 314.9 87.1 257.4" fill="#211d1c" fill-rule="evenodd" stroke="none"/>
      <path d="M88.55 258.25 L89.3 257.3 89.9 313.3 88.8 314.15 88.55 258.25" fill="#000000" fill-rule="evenodd" stroke="none"/>
      <path d="M84.05 257.65 L84.15 314.55 82.95 313.6 82.9 256.55 84.05 257.65" fill="#1a1716" fill-rule="evenodd" stroke="none"/>
      <path d="M83.0 257.35 Q82.85 255.65 86.2 255.6 89.55 255.6 89.3 257.3 89.1 258.85 86.1 258.7 83.1 258.5 83.0 257.35" fill="#403a37" fill-rule="evenodd" stroke="none"/>
      <path d="M84.8 258.5 L85.8 258.1 86.4 312.3 85.1 311.9 Q84.9 300.05 85.05 292.65 L85.0 272.8 84.8 258.5" fill="#665d58" fill-rule="evenodd" stroke="none"/>
      <path d="M82.95 256.95 L83.35 257.35 85.55 257.9 Q88.05 258.1 89.3 257.3 L88.95 258.0 Q88.3 258.75 86.5 258.95 84.75 259.15 83.7 258.1 L82.95 256.95" fill="#665d58" fill-rule="evenodd" stroke="none"/>
      <path d="M83.8 312.4 L84.5 313.0 Q85.4 313.6 86.4 313.55 88.05 313.4 88.55 312.65 L88.65 314.55 85.55 315.05 83.85 314.55 83.3 314.15 83.8 312.4" fill="#1a1716" fill-rule="evenodd" stroke="none"/>
      <path d="M38.2 206.35 L38.4 262.65 37.8 263.4 Q36.85 264.1 35.15 264.05 33.25 263.95 32.45 263.15 L32.05 262.4 32.0 206.35 32.8 205.8 Q33.85 205.25 35.1 205.25 37.05 205.25 38.2 206.35" fill="#403a37" fill-rule="evenodd" stroke="none"/>
      <path d="M36.1 206.4 L38.3 206.3 38.8 262.05 36.9 263.9 36.1 206.4" fill="#211d1c" fill-rule="evenodd" stroke="none"/>
      <path d="M37.55 207.25 L38.3 206.3 38.9 262.3 37.8 263.15 37.55 207.25" fill="#141212" fill-rule="evenodd" stroke="none"/>
      <path d="M33.05 206.65 L33.15 263.55 31.95 262.6 31.9 205.55 33.05 206.65" fill="#1a1716" fill-rule="evenodd" stroke="none"/>
      <path d="M32.0 206.35 Q31.85 204.65 35.2 204.6 38.55 204.6 38.3 206.3 38.1 207.85 35.1 207.7 32.1 207.5 32.0 206.35" fill="#403a37" fill-rule="evenodd" stroke="none"/>
      <path d="M33.8 207.5 L34.8 207.1 35.4 261.3 34.1 260.9 Q33.9 249.05 34.05 241.65 L34.0 221.8 33.8 207.5" fill="#665d58" fill-rule="evenodd" stroke="none"/>
      <path d="M31.95 205.95 L32.35 206.35 34.55 206.9 Q37.05 207.1 38.3 206.3 L37.95 207.0 Q37.3 207.75 35.5 207.95 33.75 208.15 32.7 207.1 L31.95 205.95" fill="#665d58" fill-rule="evenodd" stroke="none"/>
      <path d="M32.8 261.4 L33.5 262.0 Q34.4 262.6 35.4 262.55 37.05 262.4 37.55 261.65 L37.65 263.55 Q36.3 264.15 34.55 264.05 L32.85 263.55 32.3 263.15 32.8 261.4" fill="#1a1716" fill-rule="evenodd" stroke="none"/>
      <path d="M31.9 205.55 L32.15 205.8 Q32.85 204.5 35.7 204.65 38.55 204.8 38.3 206.3 L38.9 262.3 38.4 262.65 37.65 263.5 37.65 263.55 37.45 263.6 37.0 263.8 36.9 263.9 36.9 263.85 35.5 264.0 34.55 264.05 32.85 263.55 32.3 263.15 32.3 263.0 32.15 262.75 31.95 262.6 31.9 205.55" fill="url(#gradient1)" fill-rule="evenodd" stroke="none"/>
      <path d="M89.2 206.35 L89.4 262.65 88.8 263.4 Q87.85 264.1 86.15 264.05 84.25 263.95 83.45 263.15 L83.05 262.4 83.0 206.35 83.8 205.8 Q84.85 205.25 86.1 205.25 88.05 205.25 89.2 206.35" fill="#403a37" fill-rule="evenodd" stroke="none"/>
      <path d="M87.1 206.4 L89.3 206.3 89.8 262.05 87.9 263.9 87.1 206.4" fill="#211d1c" fill-rule="evenodd" stroke="none"/>
      <path d="M88.55 207.25 L89.3 206.3 89.9 262.3 88.8 263.15 88.55 207.25" fill="#141212" fill-rule="evenodd" stroke="none"/>
      <path d="M84.05 206.65 L84.15 263.55 82.95 262.6 82.9 205.55 84.05 206.65" fill="#1a1716" fill-rule="evenodd" stroke="none"/>
      <path d="M83.0 206.35 Q82.85 204.65 86.2 204.6 89.55 204.6 89.3 206.3 89.1 207.85 86.1 207.7 83.1 207.5 83.0 206.35" fill="#403a37" fill-rule="evenodd" stroke="none"/>
      <path d="M84.8 207.5 L85.8 207.1 86.4 261.3 85.1 260.9 Q84.9 249.05 85.05 241.65 L85.0 221.8 84.8 207.5" fill="#665d58" fill-rule="evenodd" stroke="none"/>
      <path d="M82.95 205.95 L83.35 206.35 85.55 206.9 Q88.05 207.1 89.3 206.3 L88.95 207.0 Q88.3 207.75 86.5 207.95 84.75 208.15 83.7 207.1 L82.95 205.95" fill="#665d58" fill-rule="evenodd" stroke="none"/>
      <path d="M83.8 261.4 L84.5 262.0 Q85.4 262.6 86.4 262.55 88.05 262.4 88.55 261.65 L88.65 263.55 85.55 264.05 83.85 263.55 83.3 263.15 83.8 261.4" fill="#1a1716" fill-rule="evenodd" stroke="none"/>
      <path d="M82.9 205.55 L83.15 205.8 Q83.85 204.5 86.7 204.65 89.55 204.8 89.3 206.3 L89.9 262.3 89.4 262.65 88.65 263.5 88.65 263.55 88.45 263.6 88.0 263.8 87.9 263.9 87.9 263.85 86.5 264.0 85.55 264.05 83.85 263.55 83.3 263.15 83.3 263.0 83.15 262.75 82.95 262.6 82.9 205.55" fill="url(#gradient2)" fill-rule="evenodd" stroke="none"/>
      <path d="M110.3 262.4 L112.55 264.35 111.6 268.7 11.85 268.85 10.4 264.55 14.0 261.95 110.3 262.4" fill="#0c0306" fill-rule="evenodd" stroke="none"/>
      <path d="M102.4 261.6 L106.45 264.6 17.4 264.2 19.55 261.35 102.4 261.6" fill="#403a3a" fill-rule="evenodd" stroke="none"/>
      <path d="M10.35 264.45 L24.35 251.95 32.8 251.85 17.3 264.35 10.35 264.45" fill="#0c0306" fill-rule="evenodd" stroke="none"/>
      <path d="M111.25 264.1 L105.4 264.45 91.7 252.35 97.9 252.35 111.25 264.1" fill="#0c0306" fill-rule="evenodd" stroke="none"/>
      <path d="M101.45 256.7 L101.45 260.35 20.4 260.35 20.6 256.7 101.45 256.7" fill="#0c0306" fill-rule="evenodd" stroke="none"/>
      <path d="M97.25 256.35 L99.4 258.45 24.15 258.45 26.4 256.35 97.25 256.35" fill="#403a3a" fill-rule="evenodd" stroke="none"/>
      <path d="M95.8 252.05 L95.8 255.1 24.2 255.1 24.35 252.05 95.8 252.05" fill="#0c0306" fill-rule="evenodd" stroke="none"/>
      <path d="M92.1 252.1 L94.45 253.6 27.55 253.35 31.3 251.85 92.1 252.1" fill="#403a3a" fill-rule="evenodd" stroke="none"/>
      <path d="M103.45 262.3 L105.0 263.8 18.7 263.3 19.85 261.8 103.45 262.3" fill="#91847d" fill-rule="evenodd" stroke="none"/>
      <path d="M96.7 256.4 L98.0 257.25 26.5 257.25 27.2 256.4 96.7 256.4" fill="#91847d" fill-rule="evenodd" stroke="none"/>
      <path d="M92.8 252.1 L93.55 252.75 30.6 252.4 31.3 252.1 92.8 252.1" fill="#91847d" fill-rule="evenodd" stroke="none"/>
      <path d="M27.9 251.95 L15.25 264.45 10.35 264.45 24.35 252.05 27.9 251.95" fill="#403a3a" fill-rule="evenodd" stroke="none"/>
      <path d="M112.65 264.45 L108.35 264.6 95.1 251.95 98.3 251.95 112.65 264.45" fill="#403a3a" fill-rule="evenodd" stroke="none"/>
      <path d="M27.9 251.95 L15.25 264.45 10.35 264.45 15.05 263.7 26.7 251.7 27.9 251.95" fill="#91847d" fill-rule="evenodd" stroke="none"/>
      <path d="M95.1 251.95 L95.8 252.05 108.8 263.95 112.65 264.45 108.35 264.6 95.1 251.95" fill="#91847d" fill-rule="evenodd" stroke="none"/>
      <path d="M67.8 332.05 L66.15 333.45 Q64.5 334.95 64.3 335.55 63.95 336.55 66.05 339.3 L64.15 340.3 Q62.25 341.45 62.05 342.05 L61.35 343.85 Q60.75 344.9 59.9 344.9 58.75 344.9 56.7 343.9 54.45 342.85 54.2 341.9 54.0 341.05 52.1 340.25 L50.2 339.6 49.1 338.95 Q48.0 338.05 48.2 336.6 48.4 335.15 47.2 333.2 L45.9 331.6 49.2 331.95 55.2 332.25 67.8 332.05" fill="#382c25" fill-rule="evenodd" stroke="none"/>
      <path d="M50.8 332.05 L58.8 332.05 58.35 333.2 Q58.0 334.55 58.8 335.8 59.35 336.7 59.25 338.35 L59.05 340.55 58.8 345.3 56.05 341.05 54.55 339.5 Q53.35 338.35 53.05 337.05 52.75 335.65 51.75 333.7 L50.8 332.05" fill="#44352d" fill-rule="evenodd" stroke="none"/>
      <path d="M21.3 328.75 L29.3 330.05 29.7 333.4 Q29.55 337.65 27.05 342.3 24.4 347.25 21.25 349.45 19.7 350.55 18.65 350.65 L10.65 347.95 12.9 346.7 Q15.4 345.0 16.9 342.55 19.6 338.25 20.75 333.05 L21.3 328.75" fill="#403a37" fill-rule="evenodd" stroke="none"/>
      <path d="M27.85 338.1 L27.25 340.05 26.1 343.05 Q25.35 344.4 23.25 346.1 23.45 345.6 23.3 345.0 22.95 343.8 21.25 343.35 L17.35 343.65 15.5 344.4 Q17.05 342.85 18.25 341.0 19.05 339.85 19.45 338.25 L19.75 336.9 20.8 337.8 Q22.2 338.7 23.65 338.8 25.95 338.95 27.85 338.1" fill="#6b615c" fill-rule="evenodd" stroke="none"/>
      <path d="M29.3 330.05 L32.4 330.6 32.2 334.3 Q31.6 338.65 29.4 342.1 26.1 347.2 24.55 349.9 L18.95 350.45 21.5 348.45 Q24.45 345.75 26.25 342.5 28.05 339.25 28.85 334.35 L29.3 330.05" fill="#262321" fill-rule="evenodd" stroke="none"/>
      <path d="M10.65 347.95 L14.95 345.05 15.05 346.35 Q15.6 347.75 17.8 347.95 21.35 348.3 24.9 347.9 L23.2 350.25 17.55 351.25 Q16.2 351.25 13.9 350.25 12.45 349.65 11.4 348.75 L10.65 347.95" fill="#141212" fill-rule="evenodd" stroke="none"/>
      <path d="M13.2 346.6 L13.65 347.9 Q14.35 349.2 15.7 349.4 L20.7 349.6 18.4 351.25 10.4 348.6 13.2 346.6" fill="#080707" fill-rule="evenodd" stroke="none"/>
      <path d="M27.55 336.6 Q26.75 334.4 24.55 334.1 22.35 333.8 20.9 334.75 20.2 335.2 19.9 335.75 L21.15 328.4 29.3 330.05 31.7 330.25 32.05 335.6 Q30.55 334.1 29.7 334.1 29.2 334.1 28.5 336.45 L27.9 338.75 27.55 336.6" fill="#141212" fill-rule="evenodd" stroke="none"/>
      <path d="M29.95 330.15 L29.4 332.4 Q27.15 331.0 24.8 330.65 L22.0 330.5 20.65 330.5 21.3 328.0 23.2 328.65 27.05 329.6 29.95 330.15" fill="#080707" fill-rule="evenodd" stroke="none"/>
      <path d="M28.65 335.35 L29.9 329.9 32.55 330.25 32.35 333.0 32.2 333.8 31.9 335.75 Q31.7 334.6 30.55 334.4 30.15 334.35 29.55 334.65 28.8 334.95 28.65 335.35 M32.35 333.0 Q32.45 332.4 32.4 333.1 32.3 334.05 32.35 333.0" fill="#080707" fill-rule="evenodd" stroke="none"/>
      <path d="M18.4 351.25 L21.9 348.1 25.7 348.1 24.7 350.6 18.4 351.25" fill="#080707" fill-rule="evenodd" stroke="none"/>
      <path d="M25.7 342.75 Q27.25 339.85 28.5 335.85 L29.4 332.4 29.15 335.15 Q28.45 338.7 26.4 342.75 24.6 346.2 22.5 348.25 L20.7 349.6 Q23.9 346.15 25.7 342.75" fill="#ad9f96" fill-rule="evenodd" stroke="none"/>
      <path d="M103.2 333.05 Q104.3 338.25 107.0 342.55 108.55 345.0 111.05 346.7 112.35 347.6 113.3 347.95 L105.25 350.65 Q104.25 350.55 102.65 349.45 99.55 347.25 96.9 342.3 94.35 337.65 94.25 333.4 L94.6 330.05 102.65 328.75 103.2 333.05" fill="#403a37" fill-rule="evenodd" stroke="none"/>
      <path d="M104.15 336.9 L104.45 338.25 Q104.85 339.85 105.65 341.0 L108.4 344.4 106.55 343.65 102.65 343.35 Q100.95 343.8 100.6 345.0 100.45 345.6 100.65 346.1 98.55 344.4 97.8 343.05 97.35 342.2 96.65 340.05 L96.1 338.1 97.3 338.5 100.3 338.8 Q102.6 338.6 104.15 336.9" fill="#6b615c" fill-rule="evenodd" stroke="none"/>
      <path d="M94.6 330.05 L95.05 334.35 Q95.85 339.25 97.65 342.5 99.45 345.75 102.4 348.45 L104.95 350.45 99.4 349.9 94.55 342.1 Q92.35 338.65 91.75 334.3 L91.55 330.6 94.6 330.05" fill="#262321" fill-rule="evenodd" stroke="none"/>
      <path d="M100.7 350.25 L99.05 347.9 101.25 348.05 106.1 347.95 Q108.3 347.75 108.85 346.35 L108.95 345.05 113.3 347.95 Q112.4 349.25 110.05 350.25 L107.35 351.15 106.4 351.25 100.7 350.25" fill="#141212" fill-rule="evenodd" stroke="none"/>
      <path d="M110.7 346.6 L113.55 348.6 105.55 351.25 103.2 349.6 104.9 349.65 108.2 349.4 Q109.6 349.2 110.3 347.9 L110.7 346.6" fill="#080707" fill-rule="evenodd" stroke="none"/>
      <path d="M104.0 335.75 L103.0 334.75 Q101.6 333.8 99.4 334.1 97.2 334.4 96.4 336.6 96.0 337.7 96.05 338.75 L95.45 336.45 Q94.75 334.1 94.2 334.1 93.65 334.1 92.75 334.85 L91.9 335.6 92.2 330.25 94.6 330.05 102.8 328.4 104.0 335.75" fill="#141212" fill-rule="evenodd" stroke="none"/>
      <path d="M93.95 330.15 L96.9 329.6 Q99.55 329.15 102.65 328.0 L103.3 330.5 99.15 330.65 Q97.7 330.85 95.95 331.65 L94.55 332.4 93.95 330.15" fill="#080707" fill-rule="evenodd" stroke="none"/>
      <path d="M91.4 330.25 L94.05 329.9 95.25 335.35 94.4 334.65 Q93.8 334.35 93.4 334.4 92.65 334.55 92.3 335.15 L92.05 335.75 91.75 333.8 91.6 332.8 91.4 330.25" fill="#080707" fill-rule="evenodd" stroke="none"/>
      <path d="M105.55 351.25 L99.2 350.6 98.2 348.1 102.05 348.1 105.55 351.25" fill="#080707" fill-rule="evenodd" stroke="none"/>
      <path d="M98.2 342.75 Q100.0 346.15 103.2 349.6 L101.45 348.25 Q99.3 346.2 97.55 342.75 95.45 338.7 94.8 335.15 L94.55 332.4 95.45 335.85 Q96.65 339.85 98.2 342.75" fill="#ad9f96" fill-rule="evenodd" stroke="none"/>
      <path d="M28.2 268.35 L28.95 319.75 24.85 318.7 Q23.0 318.15 22.3 317.7 L21.95 317.35 22.0 268.35 22.8 267.8 Q23.85 267.25 25.1 267.25 27.05 267.25 28.2 268.35" fill="#6b615c" fill-rule="evenodd" stroke="none"/>
      <path d="M26.1 268.4 L28.3 268.3 28.95 319.75 26.75 319.15 26.1 268.4" fill="#403a37" fill-rule="evenodd" stroke="none"/>
      <path d="M27.55 269.1 L28.3 268.3 28.95 319.75 27.85 319.5 27.55 269.1" fill="#141212" fill-rule="evenodd" stroke="none"/>
      <path d="M23.05 268.55 L23.15 318.2 21.95 317.35 21.9 267.55 23.05 268.55" fill="#403a37" fill-rule="evenodd" stroke="none"/>
      <path d="M22.0 268.35 Q21.85 266.65 25.2 266.6 28.55 266.6 28.3 268.3 28.1 269.85 25.1 269.7 22.1 269.5 22.0 268.35" fill="#6b615c" fill-rule="evenodd" stroke="none"/>
      <path d="M23.8 269.5 L24.8 269.1 25.3 317.25 24.0 316.9 24.05 303.65 24.0 283.8 23.8 269.5" fill="#91847d" fill-rule="evenodd" stroke="none"/>
      <path d="M21.95 267.95 L22.35 268.35 24.55 268.9 Q27.05 269.1 28.3 268.3 L27.95 269.0 Q27.3 269.75 25.5 269.95 23.75 270.15 22.7 269.1 L21.95 267.95" fill="#91847d" fill-rule="evenodd" stroke="none"/>
      <path d="M95.0 266.45 Q96.05 265.9 97.3 265.9 99.25 265.9 100.35 267.0 L100.05 317.3 Q100.1 317.75 97.15 318.65 L93.05 319.75 94.15 267.0 95.0 266.45" fill="#6b615c" fill-rule="evenodd" stroke="none"/>
      <path d="M96.25 267.05 L95.25 319.15 93.05 319.75 94.05 266.95 96.25 267.05" fill="#403a37" fill-rule="evenodd" stroke="none"/>
      <path d="M94.8 267.8 L94.15 319.5 93.05 319.75 94.05 266.95 94.8 267.8" fill="#141212" fill-rule="evenodd" stroke="none"/>
      <path d="M99.3 267.2 L100.45 266.2 100.05 317.3 98.8 318.15 99.3 267.2" fill="#403a37" fill-rule="evenodd" stroke="none"/>
      <path d="M94.05 266.95 Q93.8 265.2 97.15 265.25 100.55 265.25 100.35 267.0 100.25 268.2 97.3 268.4 94.25 268.55 94.05 266.95" fill="#6b615c" fill-rule="evenodd" stroke="none"/>
      <path d="M98.55 268.15 L98.3 282.85 98.1 303.2 98.0 316.8 96.7 317.2 97.55 267.8 98.55 268.15" fill="#91847d" fill-rule="evenodd" stroke="none"/>
      <path d="M100.25 266.85 L99.7 267.75 Q98.6 268.85 96.85 268.65 95.05 268.45 94.4 267.65 L94.05 266.95 95.0 267.35 97.8 267.55 Q99.7 267.35 100.25 266.85" fill="#91847d" fill-rule="evenodd" stroke="none"/>
      <path d="M28.2 213.6 L28.95 271.75 24.85 270.55 Q23.0 269.95 22.3 269.45 L21.95 269.05 22.0 213.6 22.8 213.0 Q23.85 212.35 25.1 212.35 27.05 212.35 28.2 213.6" fill="#6b615c" fill-rule="evenodd" stroke="none"/>
      <path d="M26.1 213.65 L28.3 213.5 28.95 271.75 26.75 271.1 26.1 213.65" fill="#403a37" fill-rule="evenodd" stroke="none"/>
      <path d="M27.55 214.45 L28.3 213.5 28.95 271.75 27.85 271.5 27.55 214.45" fill="#141212" fill-rule="evenodd" stroke="none"/>
      <path d="M23.05 213.8 L23.15 270.0 21.95 269.05 21.9 212.7 23.05 213.8" fill="#403a37" fill-rule="evenodd" stroke="none"/>
      <path d="M22.0 213.6 Q21.85 211.65 25.2 211.65 28.55 211.6 28.3 213.5 28.1 215.3 25.1 215.1 22.1 214.9 22.0 213.6" fill="#6b615c" fill-rule="evenodd" stroke="none"/>
      <path d="M23.8 214.85 L24.8 214.45 25.3 268.9 24.0 268.5 24.05 253.5 24.0 231.05 23.8 214.85" fill="#91847d" fill-rule="evenodd" stroke="none"/>
      <path d="M21.95 213.1 L22.35 213.55 24.55 214.2 Q27.05 214.45 28.3 213.5 L27.95 214.3 Q27.3 215.15 25.5 215.4 23.75 215.65 22.7 214.4 L21.95 213.1" fill="#91847d" fill-rule="evenodd" stroke="none"/>
      <path d="M21.9 212.7 L22.15 212.9 Q22.9 211.45 25.7 211.65 28.55 211.85 28.3 213.5 L28.95 271.75 27.85 271.5 27.85 271.45 23.15 269.9 23.15 270.0 22.85 269.75 22.05 269.25 21.95 269.05 21.9 212.7" fill="url(#gradient3)" fill-rule="evenodd" stroke="none"/>
      <path d="M95.15 211.1 L96.0 210.5 Q97.05 209.85 98.3 209.85 100.25 209.85 101.35 211.1 L101.05 267.05 Q101.1 267.55 98.15 268.55 L94.05 269.75 95.15 211.1" fill="#6b615c" fill-rule="evenodd" stroke="none"/>
      <path d="M97.25 211.15 L96.25 269.05 94.05 269.75 95.05 211.0 97.25 211.15" fill="#403a37" fill-rule="evenodd" stroke="none"/>
      <path d="M95.8 211.95 L95.15 269.5 94.05 269.75 95.05 211.0 95.8 211.95" fill="#141212" fill-rule="evenodd" stroke="none"/>
      <path d="M100.3 211.3 L101.45 210.2 101.05 267.05 99.8 268.0 100.3 211.3" fill="#403a37" fill-rule="evenodd" stroke="none"/>
      <path d="M101.35 211.1 Q101.25 212.4 98.3 212.6 95.25 212.8 95.05 211.0 94.8 209.1 98.15 209.1 101.55 209.15 101.35 211.1" fill="#6b615c" fill-rule="evenodd" stroke="none"/>
      <path d="M99.55 212.4 L99.3 228.7 99.1 251.35 99.0 266.5 97.7 266.9 98.55 211.95 99.55 212.4" fill="#91847d" fill-rule="evenodd" stroke="none"/>
      <path d="M101.25 210.95 L100.7 211.9 Q99.6 213.2 97.85 212.9 96.05 212.65 95.4 211.8 L95.05 211.0 96.0 211.45 98.8 211.7 Q100.7 211.45 101.25 210.95" fill="#91847d" fill-rule="evenodd" stroke="none"/>
      <path d="M101.2 210.4 L101.45 210.2 101.05 267.05 100.95 267.2 100.15 267.75 99.8 268.0 99.8 267.9 95.15 269.45 95.15 269.5 94.05 269.75 95.05 211.0 Q94.85 209.3 97.7 209.15 100.5 208.95 101.2 210.4" fill="url(#gradient4)" fill-rule="evenodd" stroke="none"/>
    </g>
    <linearGradient gradientTransform="matrix(0.0, 0.0265, 0.0265, 0.0, 35.4, 237.75)" gradientUnits="userSpaceOnUse" id="gradient1" spreadMethod="pad" x1="-819.2" x2="819.2">
      <stop offset="0.0" stop-color="#000000"/>
      <stop offset="0.06274509803921569" stop-color="#050405" stop-opacity="0.85490197"/>
      <stop offset="0.3333333333333333" stop-color="#161314" stop-opacity="0.3764706"/>
      <stop offset="0.6313725490196078" stop-color="#201c1d" stop-opacity="0.09019608"/>
      <stop offset="1.0" stop-color="#231f20" stop-opacity="0.0"/>
    </linearGradient>
    <linearGradient gradientTransform="matrix(0.0, 0.0262, 0.0262, 0.0, 86.4, 239.55)" gradientUnits="userSpaceOnUse" id="gradient2" spreadMethod="pad" x1="-819.2" x2="819.2">
      <stop offset="0.0" stop-color="#000000"/>
      <stop offset="0.06274509803921569" stop-color="#050405" stop-opacity="0.85490197"/>
      <stop offset="0.3333333333333333" stop-color="#161314" stop-opacity="0.3764706"/>
      <stop offset="0.6313725490196078" stop-color="#201c1d" stop-opacity="0.09019608"/>
      <stop offset="1.0" stop-color="#231f20" stop-opacity="0.0"/>
    </linearGradient>
    <linearGradient gradientTransform="matrix(0.0, 0.0323, 0.0323, 0.0, 25.45, 241.3)" gradientUnits="userSpaceOnUse" id="gradient3" spreadMethod="pad" x1="-819.2" x2="819.2">
      <stop offset="0.0" stop-color="#000000"/>
      <stop offset="0.06274509803921569" stop-color="#050405" stop-opacity="0.85490197"/>
      <stop offset="0.3333333333333333" stop-color="#161314" stop-opacity="0.3764706"/>
      <stop offset="0.6313725490196078" stop-color="#201c1d" stop-opacity="0.09019608"/>
      <stop offset="1.0" stop-color="#231f20" stop-opacity="0.0"/>
    </linearGradient>
    <linearGradient gradientTransform="matrix(0.0, 0.0318, 0.0318, 0.0, 97.75, 239.85)" gradientUnits="userSpaceOnUse" id="gradient4" spreadMethod="pad" x1="-819.2" x2="819.2">
      <stop offset="0.0" stop-color="#000000"/>
      <stop offset="0.06274509803921569" stop-color="#050405" stop-opacity="0.85490197"/>
      <stop offset="0.3333333333333333" stop-color="#161314" stop-opacity="0.3764706"/>
      <stop offset="0.6313725490196078" stop-color="#201c1d" stop-opacity="0.09019608"/>
      <stop offset="1.0" stop-color="#231f20" stop-opacity="0.0"/>
    </linearGradient>
    <g id="sprite2" transform="matrix(1.0, 0.0, 0.0, 1.0, 0.0, 0.0)">
      <use height="13.3" transform="matrix(1.0, 0.0, 0.0, 1.0, 0.0, 0.0)" width="57.0" xlink:href="#shape3"/>
    </g>
    <g id="shape3" transform="matrix(1.0, 0.0, 0.0, 1.0, 0.0, 0.0)">
      <path d="M49.6 13.3 L12.2 12.85 5.5 12.2 Q-1.0 11.05 0.15 8.85 1.95 5.35 8.3 2.95 16.65 -0.25 29.95 0.05 45.8 0.4 52.5 3.7 57.0 5.9 57.0 9.25 57.0 11.2 53.3 12.45 L49.6 13.3" fill="#000000" fill-rule="evenodd" stroke="none"/>
    </g>
    <g id="shape4" transform="matrix(1.0, 0.0, 0.0, 1.0, -7.9, -27.9)">
      <path d="M86.55 38.85 Q86.55 43.0 78.95 46.0 71.35 49.0 60.65 49.0 49.55 49.0 42.35 46.7 34.8 44.25 34.8 40.2 L35.05 36.35 35.25 34.2 41.35 31.3 Q49.7 28.45 60.65 28.7 74.25 29.0 81.05 31.6 84.45 32.95 85.15 34.2 L85.85 35.35 Q86.55 36.95 86.55 38.85" fill="#382c25" fill-rule="evenodd" stroke="none"/>
      <path d="M86.65 34.2 L87.4 35.35 Q88.1 36.95 88.1 38.85 88.1 40.05 87.35 41.2 83.5 41.45 75.25 38.0 L67.8 34.5 69.3 29.1 Q78.8 29.95 83.7 32.2 86.1 33.3 86.65 34.2" fill="#281c19" fill-rule="evenodd" stroke="none"/>
      <path d="M48.95 29.5 L48.25 38.35 36.35 43.35 Q34.9 41.95 34.9 40.2 L35.15 36.35 35.35 34.2 38.65 32.45 Q43.15 30.55 48.95 29.5" fill="#281c19" fill-rule="evenodd" stroke="none"/>
      <path d="M8.05 215.8 Q7.75 213.6 8.1 212.0 L8.55 210.8 113.55 211.8 114.2 212.8 Q114.7 214.3 114.05 216.8 113.15 220.3 100.55 223.05 85.6 226.3 61.55 226.3 36.1 226.3 20.7 222.35 8.55 219.25 8.05 215.8" fill="#281c19" fill-rule="evenodd" stroke="none"/>
      <path d="M8.05 212.8 Q7.75 210.6 11.35 208.5 L15.05 206.8 109.55 208.8 112.2 209.8 Q114.7 211.3 114.05 213.8 113.15 217.3 100.55 220.05 85.6 223.3 61.55 223.3 36.1 223.3 20.7 219.35 8.55 216.25 8.05 212.8" fill="#6e5448" fill-rule="evenodd" stroke="none"/>
      <path d="M10.5 212.25 Q10.2 210.25 13.7 208.35 15.5 207.6 17.25 206.8 L107.7 208.6 110.25 209.5 Q112.65 210.85 112.05 213.15 111.15 216.35 99.1 218.85 84.75 221.8 61.75 221.8 37.45 221.8 22.65 218.2 11.0 215.35 10.5 212.25" fill="#291f22" fill-rule="evenodd" stroke="none"/>
      <path d="M78.95 35.6 Q86.55 37.85 86.55 41.1 86.55 44.4 78.95 46.65 71.4 49.0 60.65 49.0 49.95 49.0 42.35 46.65 34.8 44.4 34.8 41.1 34.8 37.85 42.35 35.6 49.95 33.3 60.65 33.3 71.35 33.3 78.95 35.6" fill="#1a0e0c" fill-rule="evenodd" stroke="none"/>
      <path d="M44.2 43.5 L44.9 42.5 Q45.9 41.25 47.55 40.2 52.85 36.8 62.55 36.5 71.0 36.3 75.95 39.9 78.4 41.7 79.2 43.5 L79.2 152.6 111.05 213.6 Q106.55 215.55 98.35 217.5 82.0 221.3 63.55 221.3 45.45 221.3 27.45 216.8 18.45 214.55 13.05 212.25 L44.2 151.7 44.2 43.5" fill="#281c19" fill-rule="evenodd" stroke="none"/>
      <path d="M13.05 211.95 L15.05 206.8 17.1 208.7 Q19.95 210.95 24.0 212.8 36.85 218.8 56.55 218.8 71.25 218.8 91.85 213.8 102.2 211.3 109.55 208.8 L111.05 213.35 Q108.55 214.85 101.35 216.6 87.0 220.05 63.55 221.3 40.1 222.55 24.25 217.4 16.3 214.8 13.05 211.95" fill="#21120f" fill-rule="evenodd" stroke="none"/>
      <path d="M64.05 41.75 L63.6 49.05 Q63.3 54.6 62.55 59.6 62.3 61.3 62.85 68.75 L63.55 80.75 63.4 104.6 Q63.3 124.3 63.55 129.1 L64.55 156.6 64.8 162.85 65.05 172.55 64.55 180.45 Q64.05 186.05 64.05 188.1 64.05 190.3 63.0 195.2 61.8 200.75 61.55 203.3 61.05 208.85 62.05 219.35 L47.55 218.9 Q44.45 218.45 39.2 216.95 L34.55 215.5 Q38.05 205.6 39.05 201.5 39.5 199.6 42.25 194.05 44.8 188.95 45.05 187.05 45.3 185.3 46.75 181.5 48.5 176.85 49.55 172.55 50.3 169.35 51.0 163.4 L51.55 158.05 Q52.05 146.7 53.05 141.65 53.75 138.1 53.85 125.8 54.0 114.1 53.55 111.75 53.05 108.95 53.05 86.65 L52.85 71.95 Q52.75 60.15 53.05 57.65 53.55 53.5 52.55 42.2 L54.0 42.05 58.05 41.25 62.35 41.15 Q63.45 41.4 64.05 41.75" fill="#382c25" fill-rule="evenodd" stroke="none"/>
      <path d="M69.7 72.55 Q69.2 59.35 70.05 56.2 71.0 52.75 69.1 44.95 L67.05 37.85 74.55 39.0 Q76.75 40.25 78.2 42.05 L79.2 43.5 79.2 152.6 111.05 213.6 Q105.7 215.9 96.1 217.95 L74.05 220.8 Q73.55 210.95 73.05 207.8 72.85 206.6 72.5 198.4 72.1 190.4 71.55 187.05 70.45 180.5 70.6 175.25 70.75 170.2 70.55 169.15 69.6 164.55 70.25 160.15 L71.05 156.6 Q70.55 147.25 70.05 144.05 69.6 141.25 69.2 129.5 68.7 117.0 69.05 113.15 L69.55 101.7 70.05 89.5 69.7 72.55" fill="#21120f" fill-rule="evenodd" stroke="none"/>
      <path d="M44.2 43.5 L45.55 41.75 Q47.65 39.7 51.25 38.4 L51.55 38.35 49.55 44.85 Q47.55 51.85 47.55 54.5 47.55 56.55 49.1 69.05 50.45 81.7 49.55 86.7 48.6 91.9 48.75 111.95 L49.05 133.75 49.05 156.35 43.35 168.05 Q37.5 180.5 36.55 183.95 35.85 186.5 34.55 194.0 33.35 200.9 32.55 203.3 L28.0 216.9 Q18.65 214.65 13.05 212.25 L44.2 151.7 44.2 43.5" fill="#21120f" fill-rule="evenodd" stroke="none"/>
      <path d="M75.05 60.1 L74.55 39.0 Q76.75 40.25 78.2 42.05 L79.2 43.5 79.2 152.6 111.05 213.6 106.05 215.35 Q99.55 217.4 91.9 218.8 L90.55 216.0 90.5 211.9 Q90.1 207.3 88.55 204.9 87.35 203.0 84.75 195.6 82.1 188.1 80.55 185.6 78.65 182.5 77.2 170.65 76.05 161.55 76.05 157.6 L75.35 149.05 Q74.75 141.45 75.05 138.3 75.4 134.8 75.75 118.9 L76.05 100.6 75.55 81.25 75.05 60.1" fill="#080707" fill-rule="evenodd" stroke="none"/>
      <path d="M56.05 42.2 L59.05 41.6 60.05 73.1 59.85 88.55 Q59.75 102.15 60.05 105.45 60.55 110.75 60.05 146.95 L59.55 156.1 59.05 164.8 58.7 173.45 Q58.2 179.95 57.55 183.15 L54.6 193.05 Q52.3 200.15 52.05 201.5 51.55 204.4 52.55 216.95 L43.05 215.5 Q45.55 205.35 47.05 201.45 47.75 199.65 48.6 194.5 49.5 189.1 50.55 186.05 51.8 182.45 53.55 171.1 L56.55 150.35 Q55.55 119.95 56.55 112.7 57.15 108.2 56.95 93.4 L56.55 76.95 56.05 42.2" fill="#44352d" fill-rule="evenodd" stroke="none"/>
      <path d="M91.05 212.3 L94.05 215.8 83.55 217.3 Q83.05 208.8 84.05 206.65 84.7 205.35 87.95 208.7 L91.05 212.3" fill="#080707" fill-rule="evenodd" stroke="none"/>
      <path d="M81.55 196.8 Q82.45 195.9 83.8 198.3 85.1 200.6 83.05 201.3 81.0 202.0 80.7 199.9 80.4 197.9 81.55 196.8" fill="#080707" fill-rule="evenodd" stroke="none"/>
      <path d="M20.55 215.5 L16.05 212.6 Q15.1 212.05 15.0 209.6 L15.05 207.3 44.05 153.25 Q28.05 189.45 27.05 192.8 L25.85 198.05 25.05 202.45 Q24.55 204.9 20.55 215.5" fill="#080707" fill-rule="evenodd" stroke="none"/>
      <path d="M73.75 43.5 Q67.35 39.4 62.05 38.8 56.75 38.2 50.85 39.9 L46.05 41.75 45.45 48.45 Q44.95 55.8 45.55 59.1 46.2 62.45 45.2 108.15 L44.05 153.25 43.05 40.3 46.5 39.15 Q51.35 37.85 58.55 36.9 65.75 36.0 73.2 38.35 76.9 39.55 79.2 40.9 L79.05 47.55 Q76.95 45.6 73.75 43.5" fill="#080707" fill-rule="evenodd" stroke="none"/>
      <path d="M59.5 32.1 Q70.8 31.5 79.45 35.45 83.8 37.45 85.85 39.55 83.5 38.05 79.15 36.5 70.5 33.45 60.65 33.3 50.85 33.15 41.85 37.1 L34.8 41.1 36.15 39.85 Q37.95 38.3 40.4 36.95 48.25 32.7 59.5 32.1" fill="#6e5448" fill-rule="evenodd" stroke="none"/>
      <path d="M86.3 33.75 L86.3 37.85 82.0 34.4 Q77.2 30.9 74.75 30.9 L67.6 30.25 Q62.9 29.7 61.15 30.15 L53.05 30.9 Q46.25 31.55 42.4 32.8 38.25 34.2 36.4 36.0 35.25 37.15 35.25 38.1 L35.25 34.2 35.7 33.4 Q36.55 32.35 38.4 31.45 44.35 28.6 58.35 28.0 72.35 27.4 80.75 30.55 84.9 32.1 86.3 33.75" fill="#080707" fill-rule="evenodd" stroke="none"/>
      <path d="M94.85 227.3 L94.7 223.95 101.35 222.7 101.3 226.05 Q100.1 226.85 98.7 227.3 L96.25 227.45 94.85 227.3" fill="url(#gradient5)" fill-rule="evenodd" stroke="none"/>
      <path d="M83.0 228.9 L82.8 225.55 89.8 224.8 89.4 227.65 Q88.25 228.5 86.8 228.9 L84.4 229.05 83.0 228.9" fill="url(#gradient6)" fill-rule="evenodd" stroke="none"/>
      <path d="M28.3 227.3 Q25.9 227.7 24.5 227.3 L22.65 226.5 21.9 226.05 21.8 222.7 28.5 223.95 28.3 227.3" fill="url(#gradient7)" fill-rule="evenodd" stroke="none"/>
      <path d="M38.55 228.8 Q36.15 229.2 34.75 228.8 33.85 228.5 32.9 228.0 L32.15 227.55 32.05 224.55 38.75 225.45 38.55 228.8" fill="url(#gradient8)" fill-rule="evenodd" stroke="none"/>
    </g>
    <linearGradient gradientTransform="matrix(0.0, 0.0123, 0.0123, 0.0, 98.05, 230.4)" gradientUnits="userSpaceOnUse" id="gradient5" spreadMethod="pad" x1="-819.2" x2="819.2">
      <stop offset="0.0" stop-color="#000000"/>
      <stop offset="0.06274509803921569" stop-color="#050405" stop-opacity="0.85490197"/>
      <stop offset="0.3333333333333333" stop-color="#161314" stop-opacity="0.3764706"/>
      <stop offset="0.6313725490196078" stop-color="#201c1d" stop-opacity="0.09019608"/>
      <stop offset="1.0" stop-color="#231f20" stop-opacity="0.0"/>
    </linearGradient>
    <linearGradient gradientTransform="matrix(0.0, 0.0111, 0.0111, 0.0, 86.3, 231.75)" gradientUnits="userSpaceOnUse" id="gradient6" spreadMethod="pad" x1="-819.2" x2="819.2">
      <stop offset="0.0" stop-color="#000000"/>
      <stop offset="0.06274509803921569" stop-color="#050405" stop-opacity="0.85490197"/>
      <stop offset="0.3333333333333333" stop-color="#161314" stop-opacity="0.3764706"/>
      <stop offset="0.6313725490196078" stop-color="#201c1d" stop-opacity="0.09019608"/>
      <stop offset="1.0" stop-color="#231f20" stop-opacity="0.0"/>
    </linearGradient>
    <linearGradient gradientTransform="matrix(0.0, -0.0123, 0.0123, 0.0, 25.15, 230.4)" gradientUnits="userSpaceOnUse" id="gradient7" spreadMethod="pad" x1="-819.2" x2="819.2">
      <stop offset="0.0" stop-color="#000000"/>
      <stop offset="0.06274509803921569" stop-color="#050405" stop-opacity="0.85490197"/>
      <stop offset="0.3333333333333333" stop-color="#161314" stop-opacity="0.3764706"/>
      <stop offset="0.6313725490196078" stop-color="#201c1d" stop-opacity="0.09019608"/>
      <stop offset="1.0" stop-color="#231f20" stop-opacity="0.0"/>
    </linearGradient>
    <linearGradient gradientTransform="matrix(0.0, -0.0114, 0.0114, 0.0, 35.4, 231.7)" gradientUnits="userSpaceOnUse" id="gradient8" spreadMethod="pad" x1="-819.2" x2="819.2">
      <stop offset="0.0" stop-color="#000000"/>
      <stop offset="0.06274509803921569" stop-color="#050405" stop-opacity="0.85490197"/>
      <stop offset="0.3333333333333333" stop-color="#161314" stop-opacity="0.3764706"/>
      <stop offset="0.6313725490196078" stop-color="#201c1d" stop-opacity="0.09019608"/>
      <stop offset="1.0" stop-color="#231f20" stop-opacity="0.0"/>
    </linearGradient>
  </defs>
</svg>
