<?xml version="1.0" encoding="UTF-8" standalone="no"?>
<svg xmlns:xlink="http://www.w3.org/1999/xlink" height="159.25px" width="82.35px" xmlns="http://www.w3.org/2000/svg">
  <g transform="matrix(1.0, 0.0, 0.0, 1.0, 0.0, 0.0)">
    <use height="159.25" transform="matrix(1.0, 0.0, 0.0, 1.0, 0.0, 0.0)" width="82.35" xlink:href="#shape0"/>
  </g>
  <defs>
    <g id="shape0" transform="matrix(1.0, 0.0, 0.0, 1.0, 0.0, 0.0)">
      <path d="M5.25 61.0 Q5.2 57.8 6.25 55.55 7.25 53.35 8.75 53.25 7.5 53.45 6.75 55.5 5.85 57.75 5.9 61.0 5.95 63.95 7.0 66.2 8.05 68.35 9.4 68.6 L9.1 68.65 Q7.55 68.65 6.45 66.4 5.3 64.2 5.25 61.0" fill="url(#gradient0)" fill-rule="evenodd" stroke="none"/>
      <path d="M12.7 60.9 Q12.75 63.9 11.8 66.1 10.85 68.35 9.4 68.6 7.95 68.4 6.95 66.2 5.95 64.0 5.9 61.0 5.85 57.95 6.8 55.75 7.75 53.5 9.2 53.25 10.65 53.5 11.65 55.65 12.65 57.9 12.7 60.9" fill="url(#gradient1)" fill-rule="evenodd" stroke="none"/>
      <path d="M12.7 60.9 Q12.75 63.9 11.8 66.1 10.85 68.35 9.4 68.6 8.0 68.7 6.85 66.15 5.75 63.6 5.7 60.55 5.6 57.4 6.6 55.25 7.6 53.0 9.2 53.25 10.65 53.5 11.65 55.65 12.65 57.9 12.7 60.9" fill="url(#gradient2)" fill-rule="evenodd" stroke="none"/>
      <path d="M5.7 60.55 Q5.6 57.4 6.6 55.25 7.6 53.0 9.2 53.25 10.55 53.5 11.5 55.45 10.2 55.55 9.25 57.25 8.3 58.95 8.35 61.35 8.4 63.55 9.2 65.2 10.05 66.8 11.25 67.1 10.5 68.35 9.4 68.6 8.0 68.7 6.85 66.15 5.75 63.6 5.7 60.55" fill="url(#gradient3)" fill-rule="evenodd" stroke="none"/>
      <path d="M11.5 55.45 Q12.65 57.7 12.7 60.9 12.8 64.75 11.25 67.1 10.05 66.8 9.2 65.2 8.4 63.55 8.35 61.35 8.3 58.95 9.25 57.25 10.2 55.55 11.5 55.45" fill="url(#gradient4)" fill-rule="evenodd" stroke="none"/>
      <path d="M11.5 55.45 Q12.65 57.7 12.7 60.9 12.8 64.75 11.25 67.1 10.05 66.8 9.2 65.2 8.4 63.55 8.35 61.35 8.3 58.95 9.25 57.25 10.2 55.55 11.5 55.45" fill="url(#gradient5)" fill-rule="evenodd" stroke="none"/>
      <path d="M8.6 53.25 L8.65 49.0 9.4 53.35 8.6 53.25" fill="url(#gradient6)" fill-rule="evenodd" stroke="none"/>
      <path d="M20.55 9.85 L20.95 9.9 Q17.65 9.8 15.6 15.2 13.65 20.45 13.8 27.9 14.0 34.8 16.5 40.0 18.95 45.05 22.1 45.5 L21.35 45.6 Q17.8 45.7 15.15 40.55 12.5 35.35 12.35 27.95 12.15 20.55 14.6 15.25 17.0 9.95 20.55 9.85" fill="url(#gradient7)" fill-rule="evenodd" stroke="none"/>
      <path d="M29.6 27.5 Q29.75 34.5 27.6 39.65 25.4 44.8 22.1 45.5 18.75 45.0 16.4 40.0 14.0 34.95 13.8 27.9 13.65 20.9 15.85 15.75 18.0 10.6 21.3 9.9 24.65 10.4 27.05 15.4 29.45 20.5 29.6 27.5" fill="url(#gradient8)" fill-rule="evenodd" stroke="none"/>
      <path d="M29.6 27.5 Q29.75 34.5 27.6 39.65 25.4 44.8 22.1 45.5 18.9 45.85 16.15 39.9 13.5 34.05 13.35 26.9 13.2 19.6 15.35 14.6 17.65 9.35 21.3 9.9 24.65 10.4 27.05 15.4 29.45 20.5 29.6 27.5" fill="url(#gradient9)" fill-rule="evenodd" stroke="none"/>
      <path d="M26.8 14.95 Q23.65 15.15 21.55 19.15 19.45 23.2 19.55 28.75 19.7 33.85 21.65 37.6 23.55 41.35 26.35 42.05 24.45 45.05 22.1 45.5 18.9 45.85 16.15 39.9 13.5 34.05 13.35 26.9 13.2 19.6 15.35 14.6 17.65 9.35 21.3 9.9 24.4 10.35 26.8 14.95" fill="url(#gradient10)" fill-rule="evenodd" stroke="none"/>
      <path d="M26.8 14.95 Q29.45 20.15 29.6 27.5 29.75 36.6 26.35 42.05 23.55 41.35 21.65 37.6 19.7 33.85 19.55 28.75 19.45 23.2 21.55 19.15 23.65 15.15 26.8 14.95" fill="url(#gradient11)" fill-rule="evenodd" stroke="none"/>
      <path d="M26.8 14.95 Q29.45 20.15 29.6 27.5 29.75 36.6 26.35 42.05 23.55 41.35 21.65 37.6 19.7 33.85 19.55 28.75 19.45 23.2 21.55 19.15 23.65 15.15 26.8 14.95" fill="url(#gradient12)" fill-rule="evenodd" stroke="none"/>
      <path d="M19.95 9.9 L20.05 0.0 21.85 10.05 19.95 9.9" fill="url(#gradient13)" fill-rule="evenodd" stroke="none"/>
      <path d="M24.15 40.85 L18.4 44.4 18.7 54.45 16.2 42.2 23.45 40.05 24.15 40.85" fill="url(#gradient14)" fill-rule="evenodd" stroke="none"/>
      <path d="M22.95 45.05 L22.55 49.55 21.9 45.65 22.95 45.05" fill="url(#gradient15)" fill-rule="evenodd" stroke="none"/>
      <path d="M19.3 84.8 Q27.15 56.75 33.1 48.45 41.15 37.2 51.25 50.05 63.15 69.95 73.2 112.3 78.35 134.15 82.35 159.25 L8.65 159.25 Q9.55 146.9 11.35 131.4 14.95 100.4 19.3 84.8" fill="#ccaa7c" fill-rule="evenodd" stroke="none"/>
      <path d="M42.85 42.75 Q45.45 43.5 47.8 47.2 L52.5 55.9 Q44.95 54.4 38.35 62.85 31.9 71.15 25.65 89.95 20.55 105.35 17.05 133.85 15.3 148.1 14.55 159.25 L0.0 159.25 Q0.8 147.0 2.65 131.2 6.35 99.6 11.75 82.0 18.45 60.3 26.5 50.25 34.4 40.35 42.85 42.75" fill="#ccaa7c" fill-rule="evenodd" stroke="none"/>
      <path d="M13.45 82.0 Q20.25 59.9 27.25 50.5 34.45 40.85 42.75 43.25 48.45 44.9 54.15 55.9 45.5 47.15 38.25 53.6 29.9 60.95 21.55 89.25 16.95 104.8 14.0 133.6 12.55 148.0 12.0 159.25 L1.7 159.25 Q2.5 147.0 4.35 131.2 8.05 99.6 13.45 82.0" fill="url(#gradient16)" fill-rule="evenodd" stroke="none"/>
      <path d="M27.35 89.95 Q33.6 71.15 40.05 62.85 46.6 54.4 54.15 55.9 63.35 73.35 72.35 113.75 77.2 135.65 80.95 159.25 L16.25 159.25 Q17.0 148.1 18.75 133.85 22.25 105.35 27.35 89.95" fill="url(#gradient17)" fill-rule="evenodd" stroke="none"/>
      <path d="M18.15 84.8 Q25.3 59.35 34.0 51.35 43.6 42.45 54.15 55.9 63.35 73.35 72.45 113.75 77.35 135.5 81.25 159.25 L7.55 159.25 Q8.45 146.9 10.25 131.4 13.8 100.4 18.15 84.8" fill="url(#gradient18)" fill-rule="evenodd" stroke="none"/>
      <path d="M37.0 43.1 L37.2 29.95 38.7 42.95 37.0 43.1" fill="url(#gradient19)" fill-rule="evenodd" stroke="none"/>
      <path d="M40.7 42.75 L41.2 35.25 42.2 43.1 40.7 42.75" fill="url(#gradient20)" fill-rule="evenodd" stroke="none"/>
    </g>
    <linearGradient gradientTransform="matrix(-0.0047, 7.0E-4, 7.0E-4, 0.0047, 8.1, 61.05)" gradientUnits="userSpaceOnUse" id="gradient0" spreadMethod="pad" x1="-819.2" x2="819.2">
      <stop offset="0.0" stop-color="#2b1a11"/>
      <stop offset="0.023529411764705882" stop-color="#311f15"/>
      <stop offset="0.27058823529411763" stop-color="#685039"/>
      <stop offset="0.5019607843137255" stop-color="#937756"/>
      <stop offset="0.7058823529411765" stop-color="#b2936b"/>
      <stop offset="0.8784313725490196" stop-color="#c5a477"/>
      <stop offset="1.0" stop-color="#ccaa7c"/>
    </linearGradient>
    <linearGradient gradientTransform="matrix(0.0058, -9.0E-4, -9.0E-4, -0.0058, 10.15, 60.8)" gradientUnits="userSpaceOnUse" id="gradient1" spreadMethod="pad" x1="-819.2" x2="819.2">
      <stop offset="0.0" stop-color="#2b1a11"/>
      <stop offset="0.1803921568627451" stop-color="#301d13"/>
      <stop offset="0.3843137254901961" stop-color="#3d2818"/>
      <stop offset="0.596078431372549" stop-color="#533920"/>
      <stop offset="0.8117647058823529" stop-color="#72502b"/>
      <stop offset="1.0" stop-color="#936a37"/>
    </linearGradient>
    <linearGradient gradientTransform="matrix(-0.0074, 9.0E-4, 9.0E-4, 0.0074, 7.1, 61.15)" gradientUnits="userSpaceOnUse" id="gradient2" spreadMethod="pad" x1="-819.2" x2="819.2">
      <stop offset="0.0" stop-color="#171209"/>
      <stop offset="0.13333333333333333" stop-color="#1c140b"/>
      <stop offset="0.2784313725490196" stop-color="#291910"/>
      <stop offset="0.2980392156862745" stop-color="#2b1a11"/>
      <stop offset="0.4235294117647059" stop-color="#301d13"/>
      <stop offset="0.5686274509803921" stop-color="#3d2818"/>
      <stop offset="0.7137254901960784" stop-color="#533920"/>
      <stop offset="0.8666666666666667" stop-color="#72502b"/>
      <stop offset="1.0" stop-color="#936a37"/>
    </linearGradient>
    <radialGradient cx="0" cy="0" gradientTransform="matrix(0.0089, -1.0E-4, -2.0E-4, -0.0102, 7.4, 62.65)" gradientUnits="userSpaceOnUse" id="gradient3" r="819.2" spreadMethod="pad">
      <stop offset="0.0" stop-color="#593b2b"/>
      <stop offset="1.0" stop-color="#171209"/>
    </radialGradient>
    <linearGradient gradientTransform="matrix(-0.007, 8.0E-4, 8.0E-4, 0.007, 9.7, 61.5)" gradientUnits="userSpaceOnUse" id="gradient4" spreadMethod="pad" x1="-819.2" x2="819.2">
      <stop offset="0.0" stop-color="#171209"/>
      <stop offset="0.13333333333333333" stop-color="#1c140b"/>
      <stop offset="0.2784313725490196" stop-color="#291910"/>
      <stop offset="0.2980392156862745" stop-color="#2b1a11"/>
      <stop offset="0.4235294117647059" stop-color="#301d13"/>
      <stop offset="0.5686274509803921" stop-color="#3d2818"/>
      <stop offset="0.7137254901960784" stop-color="#533920"/>
      <stop offset="0.8666666666666667" stop-color="#72502b"/>
      <stop offset="1.0" stop-color="#936a37"/>
    </linearGradient>
    <radialGradient cx="0" cy="0" gradientTransform="matrix(0.0066, -1.0E-4, -1.0E-4, -0.0076, 5.9, 65.8)" gradientUnits="userSpaceOnUse" id="gradient5" r="819.2" spreadMethod="pad">
      <stop offset="0.0" stop-color="#593b2b"/>
      <stop offset="1.0" stop-color="#171209"/>
    </radialGradient>
    <radialGradient cx="0" cy="0" gradientTransform="matrix(0.001, 0.0, 0.0, -0.0029, 8.6, 52.9)" gradientUnits="userSpaceOnUse" id="gradient6" r="819.2" spreadMethod="pad">
      <stop offset="0.0" stop-color="#593b2b"/>
      <stop offset="1.0" stop-color="#171209"/>
    </radialGradient>
    <linearGradient gradientTransform="matrix(-0.0109, 0.0016, 0.0016, 0.011, 18.9, 28.05)" gradientUnits="userSpaceOnUse" id="gradient7" spreadMethod="pad" x1="-819.2" x2="819.2">
      <stop offset="0.0" stop-color="#2b1a11"/>
      <stop offset="0.023529411764705882" stop-color="#311f15"/>
      <stop offset="0.27058823529411763" stop-color="#685039"/>
      <stop offset="0.5019607843137255" stop-color="#937756"/>
      <stop offset="0.7058823529411765" stop-color="#b2936b"/>
      <stop offset="0.8784313725490196" stop-color="#c5a477"/>
      <stop offset="1.0" stop-color="#ccaa7c"/>
    </linearGradient>
    <linearGradient gradientTransform="matrix(0.0135, -0.0024, -0.0023, -0.0135, 23.75, 27.35)" gradientUnits="userSpaceOnUse" id="gradient8" spreadMethod="pad" x1="-819.2" x2="819.2">
      <stop offset="0.0" stop-color="#2b1a11"/>
      <stop offset="0.1803921568627451" stop-color="#301d13"/>
      <stop offset="0.3843137254901961" stop-color="#3d2818"/>
      <stop offset="0.596078431372549" stop-color="#533920"/>
      <stop offset="0.8117647058823529" stop-color="#72502b"/>
      <stop offset="1.0" stop-color="#936a37"/>
    </linearGradient>
    <linearGradient gradientTransform="matrix(-0.0171, 0.0022, 0.0021, 0.0172, 16.65, 28.25)" gradientUnits="userSpaceOnUse" id="gradient9" spreadMethod="pad" x1="-819.2" x2="819.2">
      <stop offset="0.0" stop-color="#171209"/>
      <stop offset="0.13333333333333333" stop-color="#1c140b"/>
      <stop offset="0.2784313725490196" stop-color="#291910"/>
      <stop offset="0.2980392156862745" stop-color="#2b1a11"/>
      <stop offset="0.4235294117647059" stop-color="#301d13"/>
      <stop offset="0.5686274509803921" stop-color="#3d2818"/>
      <stop offset="0.7137254901960784" stop-color="#533920"/>
      <stop offset="0.8666666666666667" stop-color="#72502b"/>
      <stop offset="1.0" stop-color="#936a37"/>
    </linearGradient>
    <radialGradient cx="0" cy="0" gradientTransform="matrix(0.0205, -6.0E-4, -5.0E-4, -0.0236, 17.35, 31.8)" gradientUnits="userSpaceOnUse" id="gradient10" r="819.2" spreadMethod="pad">
      <stop offset="0.0" stop-color="#593b2b"/>
      <stop offset="1.0" stop-color="#171209"/>
    </radialGradient>
    <linearGradient gradientTransform="matrix(-0.0162, 0.0021, 0.002, 0.0163, 22.65, 29.0)" gradientUnits="userSpaceOnUse" id="gradient11" spreadMethod="pad" x1="-819.2" x2="819.2">
      <stop offset="0.0" stop-color="#171209"/>
      <stop offset="0.13333333333333333" stop-color="#1c140b"/>
      <stop offset="0.2784313725490196" stop-color="#291910"/>
      <stop offset="0.2980392156862745" stop-color="#2b1a11"/>
      <stop offset="0.4235294117647059" stop-color="#301d13"/>
      <stop offset="0.5686274509803921" stop-color="#3d2818"/>
      <stop offset="0.7137254901960784" stop-color="#533920"/>
      <stop offset="0.8666666666666667" stop-color="#72502b"/>
      <stop offset="1.0" stop-color="#936a37"/>
    </linearGradient>
    <radialGradient cx="0" cy="0" gradientTransform="matrix(0.0153, -4.0E-4, -4.0E-4, -0.0176, 13.9, 39.05)" gradientUnits="userSpaceOnUse" id="gradient12" r="819.2" spreadMethod="pad">
      <stop offset="0.0" stop-color="#593b2b"/>
      <stop offset="1.0" stop-color="#171209"/>
    </radialGradient>
    <radialGradient cx="0" cy="0" gradientTransform="matrix(0.0023, -1.0E-4, -2.0E-4, -0.0067, 19.9, 9.1)" gradientUnits="userSpaceOnUse" id="gradient13" r="819.2" spreadMethod="pad">
      <stop offset="0.0" stop-color="#593b2b"/>
      <stop offset="1.0" stop-color="#171209"/>
    </radialGradient>
    <radialGradient cx="0" cy="0" gradientTransform="matrix(0.0089, -2.0E-4, 6.0E-4, 0.0254, 16.2, 42.75)" gradientUnits="userSpaceOnUse" id="gradient14" r="819.2" spreadMethod="pad">
      <stop offset="0.0" stop-color="#593b2b"/>
      <stop offset="1.0" stop-color="#171209"/>
    </radialGradient>
    <radialGradient cx="0" cy="0" gradientTransform="matrix(0.0013, 0.0, 1.0E-4, 0.0036, 21.8, 45.5)" gradientUnits="userSpaceOnUse" id="gradient15" r="819.2" spreadMethod="pad">
      <stop offset="0.0" stop-color="#593b2b"/>
      <stop offset="1.0" stop-color="#171209"/>
    </radialGradient>
    <radialGradient cx="0" cy="0" gradientTransform="matrix(0.066, 0.0, 0.0, -0.066, 16.1, 118.45)" gradientUnits="userSpaceOnUse" id="gradient16" r="819.2" spreadMethod="pad">
      <stop offset="0.0" stop-color="#593b2b"/>
      <stop offset="1.0" stop-color="#171209"/>
    </radialGradient>
    <radialGradient cx="0" cy="0" gradientTransform="matrix(0.084, 0.0, 0.0, -0.084, 23.55, 119.45)" gradientUnits="userSpaceOnUse" id="gradient17" r="819.2" spreadMethod="pad">
      <stop offset="0.0" stop-color="#593b2b"/>
      <stop offset="1.0" stop-color="#171209"/>
    </radialGradient>
    <radialGradient cx="0" cy="0" gradientTransform="matrix(0.0875, 0.0, 0.0, -0.0875, -27.7, 148.55)" gradientUnits="userSpaceOnUse" id="gradient18" r="819.2" spreadMethod="pad">
      <stop offset="0.0" stop-color="#593b2b"/>
      <stop offset="1.0" stop-color="#171209"/>
    </radialGradient>
    <radialGradient cx="0" cy="0" gradientTransform="matrix(0.0023, -1.0E-4, -2.0E-4, -0.006, 37.0, 41.75)" gradientUnits="userSpaceOnUse" id="gradient19" r="819.2" spreadMethod="pad">
      <stop offset="0.0" stop-color="#593b2b"/>
      <stop offset="1.0" stop-color="#171209"/>
    </radialGradient>
    <radialGradient cx="0" cy="0" gradientTransform="matrix(0.0018, 0.0, -1.0E-4, -0.0048, 40.65, 42.3)" gradientUnits="userSpaceOnUse" id="gradient20" r="819.2" spreadMethod="pad">
      <stop offset="0.0" stop-color="#593b2b"/>
      <stop offset="1.0" stop-color="#171209"/>
    </radialGradient>
  </defs>
</svg>
