<?xml version="1.0" encoding="UTF-8" standalone="no"?>
<svg xmlns:xlink="http://www.w3.org/1999/xlink" height="54.9px" width="50.1px" xmlns="http://www.w3.org/2000/svg">
  <g transform="matrix(1.0, 0.0, 0.0, 1.0, 0.0, 0.0)">
    <use height="70.3" id="pumpkin_mc" transform="matrix(1.0, 0.0, 0.0, 1.0, -22.65, -15.4)" width="72.75" xlink:href="#sprite0"/>
  </g>
  <defs>
    <g id="sprite0" transform="matrix(1.0, 0.0, 0.0, 1.0, 22.65, 15.4)">
      <use height="54.9" transform="matrix(1.0, 0.0, 0.0, 1.0, 0.0, 0.0)" width="50.1" xlink:href="#shape0"/>
      <use height="30.85" transform="matrix(1.0, 0.0, 0.0, 1.0, 2.2, 21.3)" width="45.35" xlink:href="#shape1"/>
    </g>
    <g id="shape0" transform="matrix(1.0, 0.0, 0.0, 1.0, 0.0, 0.0)">
      <path d="M39.5 53.75 L24.5 54.9 Q15.7 54.9 9.5 53.75 3.3 52.55 3.3 50.9 3.3 49.25 9.5 48.1 15.7 46.95 24.5 46.95 33.3 46.95 39.5 48.1 45.75 49.25 45.75 50.9 45.75 52.55 39.5 53.75" fill="url(#gradient0)" fill-rule="evenodd" stroke="none"/>
      <path d="M18.95 16.55 L21.1 15.6 24.95 15.05 Q27.15 15.05 28.95 15.8 30.6 16.45 30.85 17.15 31.1 18.0 30.75 18.45 L22.55 19.0 19.25 18.05 18.95 16.55" fill="url(#gradient1)" fill-rule="evenodd" stroke="none"/>
      <path d="M39.7 17.05 Q45.0 19.3 47.65 24.5 50.0 29.1 48.95 33.55 48.65 34.95 46.35 40.1 45.2 42.65 42.4 45.1 39.85 47.25 38.45 47.35 36.75 47.5 28.85 44.05 L24.95 17.8 Q26.15 16.3 33.05 15.65 35.95 15.4 39.7 17.05" fill="url(#gradient2)" fill-rule="evenodd" stroke="none"/>
      <path d="M40.7 20.0 Q44.6 22.4 46.0 26.3 47.35 30.3 46.45 35.15 45.65 39.35 43.65 42.25 41.9 44.85 39.4 46.8 36.75 48.9 34.1 49.75 31.85 50.5 29.35 50.7 L27.35 50.7 25.55 18.3 28.15 17.9 33.8 17.75 Q37.45 18.0 40.7 20.0" fill="url(#gradient3)" fill-rule="evenodd" stroke="none"/>
      <path d="M9.55 17.05 Q13.3 15.4 16.2 15.65 L21.1 16.55 Q24.35 17.35 24.75 18.3 L20.4 44.05 Q12.45 47.5 10.8 47.35 9.4 47.25 6.85 45.1 4.05 42.65 2.9 40.1 0.55 34.95 0.3 33.55 -0.7 29.1 1.6 24.5 4.25 19.3 9.55 17.05" fill="url(#gradient4)" fill-rule="evenodd" stroke="none"/>
      <path d="M2.4 26.55 Q3.15 23.45 6.25 20.95 8.7 19.0 11.45 18.1 14.15 17.2 20.75 18.25 L23.8 23.9 20.4 44.05 17.1 45.4 15.25 43.5 15.3 28.2 3.25 26.3 2.8 27.6 Q2.3 29.15 2.1 30.55 1.95 32.15 2.2 34.5 2.4 36.5 2.75 37.7 3.2 39.2 2.55 39.45 L1.15 36.3 Q0.35 34.4 0.1 32.7 L0.45 32.7 Q1.2 32.7 1.45 31.3 1.85 28.85 2.4 26.55" fill="#a96f24" fill-rule="evenodd" stroke="none"/>
      <path d="M15.3 28.2 L15.25 43.5 5.2 33.2 2.6 32.45 2.8 34.85 Q3.15 37.6 3.85 39.3 L5.45 43.35 5.2 43.45 Q3.6 41.75 2.9 40.1 L2.55 39.45 Q3.2 39.2 2.75 37.7 2.4 36.5 2.2 34.5 1.95 32.15 2.1 30.55 2.3 29.15 2.8 27.6 L3.25 26.3 15.3 28.2" fill="#a26921" fill-rule="evenodd" stroke="none"/>
      <path d="M17.1 45.4 Q12.0 47.5 10.8 47.35 9.9 47.3 8.3 46.2 6.65 45.1 5.2 43.45 L5.45 43.35 3.85 39.3 Q3.15 37.6 2.8 34.85 L2.6 32.45 5.2 33.2 17.1 45.4" fill="#905d1c" fill-rule="evenodd" stroke="none"/>
      <path d="M8.55 20.0 Q11.8 18.0 15.4 17.75 L23.7 18.3 21.9 50.7 Q18.75 50.95 15.1 49.75 12.45 48.9 9.85 46.8 7.3 44.85 5.55 42.25 3.55 39.35 2.8 35.15 1.85 30.3 3.25 26.3 4.65 22.4 8.55 20.0" fill="url(#gradient5)" fill-rule="evenodd" stroke="none"/>
      <path d="M23.5 18.3 L23.7 18.3 22.55 38.95 13.4 33.05 Q13.1 36.6 13.35 38.7 13.45 39.9 14.05 42.5 L14.6 45.55 Q14.65 46.5 13.55 47.1 L10.4 47.25 Q8.2 45.6 6.5 43.55 L9.95 43.8 Q11.25 43.35 11.65 41.9 L11.5 39.2 Q11.4 36.1 12.75 30.3 14.1 24.45 18.8 20.9 L22.0 19.0 23.5 18.3" fill="#a96f24" fill-rule="evenodd" stroke="none"/>
      <path d="M14.4 40.3 Q14.8 42.65 15.5 44.1 16.95 47.05 16.95 48.25 16.95 48.75 16.2 49.1 L13.95 49.3 Q12.15 48.5 10.4 47.25 L13.55 47.1 Q14.65 46.5 14.6 45.55 L14.05 42.5 Q13.45 39.9 13.35 38.7 13.1 36.6 13.4 33.05 L22.55 38.95 22.4 42.0 14.75 37.25 14.15 38.25 14.4 40.3" fill="#a26921" fill-rule="evenodd" stroke="none"/>
      <path d="M14.15 38.25 L14.75 37.25 22.4 42.0 22.0 48.25 20.55 47.9 19.95 47.85 20.25 48.3 Q20.45 48.8 19.55 49.6 18.85 50.25 17.0 50.25 L15.1 49.75 13.95 49.3 16.2 49.1 Q16.95 48.75 16.95 48.25 16.95 47.05 15.5 44.1 14.8 42.65 14.4 40.3 L14.15 38.25" fill="#905d1c" fill-rule="evenodd" stroke="none"/>
      <path d="M19.55 49.6 Q20.45 48.8 20.25 48.3 L19.95 47.85 20.55 47.9 22.0 48.25 21.9 50.7 17.0 50.25 Q18.85 50.25 19.55 49.6" fill="#6e4613" fill-rule="evenodd" stroke="none"/>
      <path d="M24.35 18.1 Q28.45 18.15 31.2 20.85 33.75 23.3 34.3 27.1 34.7 30.45 33.4 36.95 32.2 42.95 30.95 45.5 29.5 48.4 28.2 49.8 26.4 51.9 24.35 51.75 22.25 51.55 20.0 49.5 18.2 47.85 16.55 45.2 14.75 42.25 13.85 39.05 12.9 35.85 13.1 33.1 13.3 29.3 15.1 25.75 16.4 23.05 18.05 21.5 19.3 20.3 21.35 19.25 23.4 18.1 24.35 18.1" fill="url(#gradient6)" fill-rule="evenodd" stroke="none"/>
      <path d="M32.2 42.0 L30.5 45.4 Q29.05 48.0 27.65 48.65 25.7 49.6 23.6 49.5 21.5 49.45 19.55 48.3 L18.0 47.3 16.55 45.2 15.2 42.7 Q16.9 44.8 21.1 45.6 L27.0 45.75 Q28.75 45.25 30.45 43.2 L33.0 38.9 32.2 42.0" fill="#a96f24" fill-rule="evenodd" stroke="none"/>
      <path d="M30.5 45.4 L32.2 42.0 30.95 45.5 29.95 47.35 Q28.25 49.75 26.25 50.35 L22.9 50.5 Q21.35 50.3 19.7 49.25 L18.0 47.3 19.55 48.3 Q21.5 49.45 23.6 49.5 25.7 49.6 27.65 48.65 29.05 48.0 30.5 45.4" fill="#a26921" fill-rule="evenodd" stroke="none"/>
      <path d="M22.9 50.5 L26.25 50.35 Q28.25 49.75 29.95 47.35 27.2 52.0 24.35 51.75 22.0 51.5 19.7 49.25 21.35 50.3 22.9 50.5" fill="#6e4613" fill-rule="evenodd" stroke="none"/>
      <path d="M9.55 17.05 Q13.3 15.4 16.2 15.65 L19.65 16.2 Q22.0 15.05 24.95 15.05 27.7 15.05 29.6 16.1 L33.05 15.65 Q35.95 15.4 39.7 17.05 45.0 19.3 47.65 24.5 50.0 29.1 48.95 33.55 48.65 34.95 46.35 40.1 45.25 42.55 42.65 44.85 40.3 46.95 38.7 47.3 36.4 49.05 34.1 49.75 31.85 50.5 29.35 50.7 L27.35 50.7 27.35 50.65 Q25.9 51.85 24.35 51.75 22.95 51.6 21.55 50.7 18.45 50.8 15.1 49.75 12.95 49.1 10.5 47.3 8.95 46.95 6.6 44.85 4.0 42.5 2.9 40.1 0.55 34.95 0.3 33.55 -0.7 29.1 1.6 24.5 4.25 19.3 9.55 17.05" fill="url(#gradient7)" fill-rule="evenodd" stroke="none"/>
      <path d="M7.3 18.15 Q6.65 15.25 7.35 12.15 7.95 9.55 9.4 7.45 L9.35 7.4 9.45 7.4 9.5 7.35 9.55 7.45 Q12.2 7.8 15.15 9.25 18.4 10.85 20.65 13.15 L19.5 13.85 17.75 15.15 17.25 15.55 17.1 15.55 13.8 15.9 Q11.5 16.25 8.85 17.55 L8.2 18.0 7.3 18.15" fill="url(#gradient8)" fill-rule="evenodd" stroke="none"/>
      <path d="M39.15 7.45 Q40.5 9.15 41.2 12.15 41.9 15.25 41.25 18.15 L40.4 18.0 39.7 17.55 Q37.0 16.25 34.75 15.9 L31.4 15.55 31.35 15.55 30.8 15.15 29.05 13.85 27.9 13.15 29.4 11.8 Q31.35 10.25 33.4 9.25 36.4 7.75 39.0 7.45 L39.05 7.35 39.1 7.4 39.2 7.4 39.15 7.45" fill="url(#gradient9)" fill-rule="evenodd" stroke="none"/>
      <path d="M24.55 0.1 Q27.8 2.25 30.6 6.3 32.55 9.15 33.95 12.75 L34.95 15.8 33.0 16.2 Q30.8 16.75 29.75 17.25 28.2 18.0 24.45 16.95 L19.15 17.25 Q18.1 16.75 15.95 16.2 L13.95 15.8 14.95 12.75 Q16.35 9.15 18.3 6.3 21.0 2.45 24.35 0.1 L24.35 0.0 24.45 0.05 24.55 0.0 24.55 0.1" fill="url(#gradient10)" fill-rule="evenodd" stroke="none"/>
      <path d="M22.3 18.65 L22.1 18.55 Q20.65 14.8 20.45 12.25 20.3 10.65 20.3 8.75 L20.35 7.25 21.05 7.75 21.25 8.0 Q22.05 8.85 23.45 9.15 L26.1 9.3 Q27.1 9.2 27.85 8.75 L27.9 8.7 Q27.65 9.9 27.2 10.65 26.8 11.35 26.4 12.9 26.05 14.45 26.05 15.35 26.05 16.55 26.45 18.25 L25.35 18.05 25.2 18.05 Q23.75 17.9 22.3 18.65" fill="url(#gradient11)" fill-rule="evenodd" stroke="none"/>
      <path d="M21.6 9.85 Q21.35 9.75 20.8 8.5 L20.35 7.25 21.4 6.4 24.5 6.2 Q26.25 6.8 27.25 7.8 L27.9 8.7 27.55 9.4 Q26.9 10.1 25.65 9.95 L23.7 10.15 21.6 9.85" fill="url(#gradient12)" fill-rule="evenodd" stroke="none"/>
      <path d="M23.0 9.45 Q22.3 10.45 22.3 11.3 L22.4 13.35 22.3 15.3 22.15 14.3 21.7 11.1 21.6 10.35 Q21.55 9.9 21.75 9.65 L22.0 9.35 23.6 8.35 23.7 8.4 Q23.25 8.85 23.0 9.45" fill="#4e4906" fill-rule="evenodd" stroke="none"/>
      <path d="M23.9 9.65 L24.6 9.95 24.3 10.4 24.1 10.95 23.65 12.1 Q23.5 12.0 23.5 11.4 L23.55 10.6 Q23.65 9.9 23.9 9.65" fill="#4e4906" fill-rule="evenodd" stroke="none"/>
      <path d="M24.15 17.35 L24.2 16.5 24.1 15.05 Q24.05 14.1 24.25 13.7 L24.45 15.0 Q24.5 15.8 24.7 16.3 L24.7 13.05 Q24.75 14.7 25.2 15.6 L25.25 14.1 25.35 12.55 Q25.55 10.75 25.85 9.95 L27.7 9.15 27.25 11.45 26.9 12.25 Q26.5 13.15 26.4 14.2 26.25 15.4 26.25 16.55 L26.3 17.5 26.2 18.4 25.2 18.15 24.4 18.05 Q24.15 18.0 24.15 17.35" fill="#5c5708" fill-rule="evenodd" stroke="none"/>
      <path d="M12.85 22.45 Q15.4 21.45 17.05 22.2 18.25 22.7 18.6 23.7 18.85 24.4 18.3 25.4 L16.7 27.25 Q14.4 29.3 10.95 28.1 9.25 27.5 10.15 25.3 11.05 23.1 12.85 22.45" fill="url(#gradient13)" fill-rule="evenodd" stroke="none"/>
      <path d="M16.0 18.25 Q17.7 18.1 18.35 18.85 19.0 19.5 18.15 19.65 L16.65 19.9 15.0 19.9 Q14.3 19.75 14.75 19.05 15.1 18.35 16.0 18.25" fill="url(#gradient14)" fill-rule="evenodd" stroke="none"/>
      <path d="M9.1 20.35 Q11.4 20.6 10.05 22.75 8.75 24.95 6.85 25.3 5.25 25.55 4.6 24.75 3.9 23.9 4.55 22.75 5.15 21.7 6.65 20.95 8.05 20.25 9.1 20.35" fill="url(#gradient15)" fill-rule="evenodd" stroke="none"/>
      <path d="M11.85 16.95 L14.2 17.15 Q14.3 17.55 13.65 18.0 L12.0 18.55 9.95 18.85 Q9.15 18.85 9.95 18.0 10.75 17.1 11.85 16.95" fill="url(#gradient16)" fill-rule="evenodd" stroke="none"/>
      <path d="M31.15 23.0 Q32.55 22.9 33.4 23.35 L34.4 24.25 Q34.85 24.7 34.85 26.0 34.8 27.4 34.0 27.85 L31.85 28.0 Q30.7 27.6 29.8 26.6 28.9 25.7 29.4 24.35 29.9 23.05 31.15 23.0" fill="url(#gradient17)" fill-rule="evenodd" stroke="none"/>
      <path d="M41.2 28.0 Q39.4 27.4 39.3 26.3 39.2 25.1 39.95 24.0 40.8 22.8 42.15 22.65 43.35 22.5 44.5 23.2 45.55 23.75 45.7 24.45 45.9 25.15 45.6 26.05 45.3 27.25 44.25 27.85 L41.2 28.0" fill="url(#gradient18)" fill-rule="evenodd" stroke="none"/>
      <path d="M38.7 21.9 Q36.4 21.65 36.15 20.25 35.95 18.85 36.9 18.3 L39.1 18.15 Q40.75 18.55 41.6 19.4 42.4 20.35 41.75 21.2 40.95 22.15 38.7 21.9" fill="url(#gradient19)" fill-rule="evenodd" stroke="none"/>
      <path d="M31.25 17.1 Q34.35 17.05 34.55 18.3 34.65 19.15 33.55 19.95 L30.95 20.0 Q28.95 19.65 28.6 19.0 28.2 18.4 29.2 17.75 30.15 17.1 31.25 17.1" fill="url(#gradient20)" fill-rule="evenodd" stroke="none"/>
      <path d="M13.2 23.9 L16.85 23.7 Q17.85 24.1 18.2 24.95 18.35 25.5 17.9 26.3 L16.55 27.8 Q14.55 29.45 11.6 28.5 10.1 28.0 10.9 26.2 11.65 24.5 13.2 23.9" fill="url(#gradient21)" fill-rule="evenodd" stroke="none"/>
      <path d="M15.8 18.85 Q17.35 18.7 17.9 19.2 18.5 19.65 17.75 19.75 L15.0 19.95 Q14.35 19.85 14.7 19.35 15.0 18.85 15.8 18.85" fill="url(#gradient22)" fill-rule="evenodd" stroke="none"/>
      <path d="M9.3 21.4 Q11.25 21.55 10.1 23.3 9.05 25.0 7.45 25.3 6.05 25.55 5.5 24.85 4.95 24.2 5.5 23.3 6.0 22.45 7.3 21.9 8.45 21.3 9.3 21.4" fill="url(#gradient23)" fill-rule="evenodd" stroke="none"/>
      <path d="M12.15 17.55 Q13.95 17.2 14.15 17.55 14.25 17.85 13.7 18.15 L12.35 18.6 10.6 18.95 Q9.9 19.0 10.55 18.35 11.2 17.7 12.15 17.55" fill="url(#gradient24)" fill-rule="evenodd" stroke="none"/>
      <path d="M31.0 23.85 Q32.35 23.8 33.1 24.2 L34.0 24.95 Q34.45 25.35 34.45 26.5 34.4 27.7 33.65 28.1 L31.65 28.2 29.75 27.05 Q28.95 26.2 29.4 25.05 29.85 23.95 31.0 23.85" fill="url(#gradient25)" fill-rule="evenodd" stroke="none"/>
      <path d="M40.7 28.0 Q39.4 27.4 39.3 26.3 39.25 25.15 39.85 24.05 40.45 22.85 41.45 22.7 42.35 22.55 43.25 23.25 44.0 23.8 44.1 24.5 L44.05 26.1 Q43.8 27.25 43.0 27.85 L40.7 28.0" fill="url(#gradient26)" fill-rule="evenodd" stroke="none"/>
      <path d="M38.55 21.85 Q36.45 21.5 36.35 20.45 36.2 19.4 37.1 19.1 L39.15 19.15 Q40.65 19.65 41.3 20.35 42.0 21.05 41.3 21.6 L38.55 21.85" fill="url(#gradient27)" fill-rule="evenodd" stroke="none"/>
      <path d="M31.2 18.05 Q34.2 18.3 34.3 19.1 34.35 19.8 33.25 20.2 L30.75 20.05 Q28.9 19.6 28.6 19.1 28.25 18.7 29.25 18.35 L31.2 18.05" fill="url(#gradient28)" fill-rule="evenodd" stroke="none"/>
      <path d="M15.9 23.0 Q15.9 26.25 13.6 28.55 11.3 30.85 8.05 30.85 4.8 30.85 2.5 28.55 0.2 26.25 0.2 23.0 0.2 19.75 2.5 17.45 4.8 15.15 8.05 15.15 11.3 15.15 13.6 17.45 15.9 19.75 15.9 23.0" fill="url(#gradient29)" fill-rule="evenodd" stroke="none"/>
      <path d="M36.7 20.4 Q38.95 18.1 42.25 18.1 45.5 18.1 47.8 20.4 50.1 22.7 50.1 25.9 50.1 29.15 47.8 31.45 45.5 33.8 42.25 33.8 38.95 33.8 36.7 31.45 34.4 29.15 34.4 25.9 34.4 22.7 36.7 20.4" fill="url(#gradient30)" fill-rule="evenodd" stroke="none"/>
    </g>
    <radialGradient cx="0" cy="0" gradientTransform="matrix(0.0242, 0.0, 0.0, -0.0045, 24.5, 50.9)" gradientUnits="userSpaceOnUse" id="gradient0" r="819.2" spreadMethod="pad">
      <stop offset="0.16470588235294117" stop-color="#000000" stop-opacity="0.8"/>
      <stop offset="0.6352941176470588" stop-color="#000000" stop-opacity="0.1882353"/>
      <stop offset="1.0" stop-color="#000000" stop-opacity="0.0"/>
    </radialGradient>
    <radialGradient cx="0" cy="0" gradientTransform="matrix(-1.0E-4, 0.0051, 0.0124, 1.0E-4, 24.95, 14.25)" gradientUnits="userSpaceOnUse" id="gradient1" r="819.2" spreadMethod="pad">
      <stop offset="0.0" stop-color="#f5dc93"/>
      <stop offset="0.20392156862745098" stop-color="#f4c125"/>
      <stop offset="1.0" stop-color="#b47527"/>
    </radialGradient>
    <radialGradient cx="0" cy="0" gradientTransform="matrix(-0.0011, 0.0186, -0.0206, -9.0E-4, 37.6, 15.4)" gradientUnits="userSpaceOnUse" id="gradient2" r="819.2" spreadMethod="pad">
      <stop offset="0.0" stop-color="#f5dc93"/>
      <stop offset="0.20392156862745098" stop-color="#f4c125"/>
      <stop offset="1.0" stop-color="#b47527"/>
    </radialGradient>
    <radialGradient cx="0" cy="0" gradientTransform="matrix(-4.0E-4, 0.0258, -0.0285, -3.0E-4, 36.15, 19.0)" gradientUnits="userSpaceOnUse" id="gradient3" r="819.2" spreadMethod="pad">
      <stop offset="0.0" stop-color="#f5dc93"/>
      <stop offset="0.20392156862745098" stop-color="#f4c125"/>
      <stop offset="1.0" stop-color="#b47527"/>
    </radialGradient>
    <radialGradient cx="0" cy="0" gradientTransform="matrix(0.0011, 0.0186, 0.0206, -9.0E-4, 11.85, 15.4)" gradientUnits="userSpaceOnUse" id="gradient4" r="819.2" spreadMethod="pad">
      <stop offset="0.0" stop-color="#f5dc93"/>
      <stop offset="0.20392156862745098" stop-color="#f4c125"/>
      <stop offset="1.0" stop-color="#b47527"/>
    </radialGradient>
    <radialGradient cx="0" cy="0" gradientTransform="matrix(4.0E-4, 0.0258, 0.0285, -3.0E-4, 13.1, 19.0)" gradientUnits="userSpaceOnUse" id="gradient5" r="819.2" spreadMethod="pad">
      <stop offset="0.0" stop-color="#f5dc93"/>
      <stop offset="0.20392156862745098" stop-color="#f4c125"/>
      <stop offset="1.0" stop-color="#b47527"/>
    </radialGradient>
    <radialGradient cx="0" cy="0" gradientTransform="matrix(2.0E-4, 0.0244, 0.0239, -2.0E-4, 22.6, 24.7)" gradientUnits="userSpaceOnUse" id="gradient6" r="819.2" spreadMethod="pad">
      <stop offset="0.0" stop-color="#f5dc93"/>
      <stop offset="0.20392156862745098" stop-color="#f4c125"/>
      <stop offset="1.0" stop-color="#b47527"/>
    </radialGradient>
    <radialGradient cx="0" cy="0" gradientTransform="matrix(0.0, 0.044, 0.0368, 0.0, 23.3, 15.95)" gradientUnits="userSpaceOnUse" id="gradient7" r="819.2" spreadMethod="pad">
      <stop offset="0.4666666666666667" stop-color="#f4c125" stop-opacity="0.0"/>
      <stop offset="1.0" stop-color="#603c10"/>
    </radialGradient>
    <radialGradient cx="0" cy="0" gradientTransform="matrix(0.0065, 0.012, 0.0145, -0.0054, 9.65, 7.65)" gradientUnits="userSpaceOnUse" id="gradient8" r="819.2" spreadMethod="pad">
      <stop offset="0.0" stop-color="#f5dc93"/>
      <stop offset="0.20392156862745098" stop-color="#f4c125"/>
      <stop offset="1.0" stop-color="#b47527"/>
    </radialGradient>
    <radialGradient cx="0" cy="0" gradientTransform="matrix(-0.0065, 0.012, -0.0145, -0.0054, 38.9, 7.65)" gradientUnits="userSpaceOnUse" id="gradient9" r="819.2" spreadMethod="pad">
      <stop offset="0.0" stop-color="#f5dc93"/>
      <stop offset="0.20392156862745098" stop-color="#f4c125"/>
      <stop offset="1.0" stop-color="#b47527"/>
    </radialGradient>
    <radialGradient cx="0" cy="0" gradientTransform="matrix(0.0, 0.0228, 0.0228, 0.0, 24.55, 0.5)" gradientUnits="userSpaceOnUse" id="gradient10" r="819.2" spreadMethod="pad">
      <stop offset="0.0" stop-color="#f5dc93"/>
      <stop offset="0.20392156862745098" stop-color="#f4c125"/>
      <stop offset="1.0" stop-color="#b47527"/>
    </radialGradient>
    <radialGradient cx="0" cy="0" gradientTransform="matrix(1.0E-4, 0.0086, 0.0076, -1.0E-4, 23.7, 9.55)" gradientUnits="userSpaceOnUse" id="gradient11" r="819.2" spreadMethod="pad">
      <stop offset="0.0" stop-color="#9fab41"/>
      <stop offset="1.0" stop-color="#796d12"/>
    </radialGradient>
    <radialGradient cx="0" cy="0" gradientTransform="matrix(0.0, 0.0046, 0.0041, 0.0, 23.75, 6.8)" gradientUnits="userSpaceOnUse" id="gradient12" r="819.2" spreadMethod="pad">
      <stop offset="0.0" stop-color="#9fab41"/>
      <stop offset="1.0" stop-color="#796d12"/>
    </radialGradient>
    <linearGradient gradientTransform="matrix(0.0054, 0.0, 0.0, -0.0054, 14.25, 25.2)" gradientUnits="userSpaceOnUse" id="gradient13" spreadMethod="pad" x1="-819.2" x2="819.2">
      <stop offset="0.0" stop-color="#dbac46"/>
      <stop offset="1.0" stop-color="#f7e16c"/>
    </linearGradient>
    <linearGradient gradientTransform="matrix(0.0024, 0.0, 0.0, -0.0024, 16.55, 19.1)" gradientUnits="userSpaceOnUse" id="gradient14" spreadMethod="pad" x1="-819.2" x2="819.2">
      <stop offset="0.0" stop-color="#dbac46"/>
      <stop offset="1.0" stop-color="#f7e16c"/>
    </linearGradient>
    <linearGradient gradientTransform="matrix(0.0038, 0.0, 0.0, -0.0038, 7.4, 22.85)" gradientUnits="userSpaceOnUse" id="gradient15" spreadMethod="pad" x1="-819.2" x2="819.2">
      <stop offset="0.0" stop-color="#dbac46"/>
      <stop offset="1.0" stop-color="#f7e16c"/>
    </linearGradient>
    <linearGradient gradientTransform="matrix(0.0028, 0.0, 0.0, -0.0028, 11.9, 17.85)" gradientUnits="userSpaceOnUse" id="gradient16" spreadMethod="pad" x1="-819.2" x2="819.2">
      <stop offset="0.0" stop-color="#dbac46"/>
      <stop offset="1.0" stop-color="#f7e16c"/>
    </linearGradient>
    <linearGradient gradientTransform="matrix(0.0034, 0.0, 0.0, -0.0034, 32.05, 25.55)" gradientUnits="userSpaceOnUse" id="gradient17" spreadMethod="pad" x1="-819.2" x2="819.2">
      <stop offset="0.0" stop-color="#dbac46"/>
      <stop offset="1.0" stop-color="#f7e16c"/>
    </linearGradient>
    <linearGradient gradientTransform="matrix(0.004, 0.0, 0.0, -0.004, 42.55, 25.45)" gradientUnits="userSpaceOnUse" id="gradient18" spreadMethod="pad" x1="-819.2" x2="819.2">
      <stop offset="0.0" stop-color="#dbac46"/>
      <stop offset="1.0" stop-color="#f7e16c"/>
    </linearGradient>
    <linearGradient gradientTransform="matrix(0.0036, 0.0, 0.0, -0.0036, 39.1, 19.95)" gradientUnits="userSpaceOnUse" id="gradient19" spreadMethod="pad" x1="-819.2" x2="819.2">
      <stop offset="0.0" stop-color="#dbac46"/>
      <stop offset="1.0" stop-color="#f7e16c"/>
    </linearGradient>
    <linearGradient gradientTransform="matrix(0.0037, 0.0, 0.0, -0.0037, 31.5, 18.65)" gradientUnits="userSpaceOnUse" id="gradient20" spreadMethod="pad" x1="-819.2" x2="819.2">
      <stop offset="0.0" stop-color="#dbac46"/>
      <stop offset="1.0" stop-color="#f7e16c"/>
    </linearGradient>
    <radialGradient cx="0" cy="0" gradientTransform="matrix(0.0, -0.0271, -0.0289, 0.0, 23.5, 37.8)" gradientUnits="userSpaceOnUse" id="gradient21" r="819.2" spreadMethod="pad">
      <stop offset="0.0" stop-color="#fffef5"/>
      <stop offset="1.0" stop-color="#fee607"/>
    </radialGradient>
    <radialGradient cx="0" cy="0" gradientTransform="matrix(0.0, -0.0225, -0.0295, 0.0, 23.55, 33.15)" gradientUnits="userSpaceOnUse" id="gradient22" r="819.2" spreadMethod="pad">
      <stop offset="0.0" stop-color="#fffef5"/>
      <stop offset="1.0" stop-color="#fee607"/>
    </radialGradient>
    <radialGradient cx="0" cy="0" gradientTransform="matrix(0.0, -0.0265, -0.0284, 0.0, 22.6, 36.6)" gradientUnits="userSpaceOnUse" id="gradient23" r="819.2" spreadMethod="pad">
      <stop offset="0.0" stop-color="#fffef5"/>
      <stop offset="1.0" stop-color="#fee607"/>
    </radialGradient>
    <radialGradient cx="0" cy="0" gradientTransform="matrix(-0.0015, -0.023, -0.0288, 0.0019, 24.5, 32.7)" gradientUnits="userSpaceOnUse" id="gradient24" r="819.2" spreadMethod="pad">
      <stop offset="0.0" stop-color="#fffef5"/>
      <stop offset="1.0" stop-color="#fee607"/>
    </radialGradient>
    <radialGradient cx="0" cy="0" gradientTransform="matrix(0.0, -0.0291, -0.031, 0.0, 25.1, 38.35)" gradientUnits="userSpaceOnUse" id="gradient25" r="819.2" spreadMethod="pad">
      <stop offset="0.0" stop-color="#fffef5"/>
      <stop offset="1.0" stop-color="#fee607"/>
    </radialGradient>
    <radialGradient cx="0" cy="0" gradientTransform="matrix(0.0, -0.0332, -0.0251, 0.0, 28.4, 39.5)" gradientUnits="userSpaceOnUse" id="gradient26" r="819.2" spreadMethod="pad">
      <stop offset="0.0" stop-color="#fffef5"/>
      <stop offset="1.0" stop-color="#fee607"/>
    </radialGradient>
    <radialGradient cx="0" cy="0" gradientTransform="matrix(0.0022, -0.0244, -0.0304, -0.0027, 24.7, 33.65)" gradientUnits="userSpaceOnUse" id="gradient27" r="819.2" spreadMethod="pad">
      <stop offset="0.0" stop-color="#fffef5"/>
      <stop offset="1.0" stop-color="#fee607"/>
    </radialGradient>
    <radialGradient cx="0" cy="0" gradientTransform="matrix(0.002, -0.0232, -0.0319, -0.0028, 23.7, 33.05)" gradientUnits="userSpaceOnUse" id="gradient28" r="819.2" spreadMethod="pad">
      <stop offset="0.0" stop-color="#fffef5"/>
      <stop offset="1.0" stop-color="#fee607"/>
    </radialGradient>
    <radialGradient cx="0" cy="0" gradientTransform="matrix(0.0096, 0.0, 0.0, -0.0096, 8.05, 23.0)" gradientUnits="userSpaceOnUse" id="gradient29" r="819.2" spreadMethod="pad">
      <stop offset="0.0" stop-color="#fff5b3" stop-opacity="0.81960785"/>
      <stop offset="1.0" stop-color="#fee400" stop-opacity="0.0"/>
    </radialGradient>
    <radialGradient cx="0" cy="0" gradientTransform="matrix(0.0096, 0.0, 0.0, -0.0096, 42.25, 25.9)" gradientUnits="userSpaceOnUse" id="gradient30" r="819.2" spreadMethod="pad">
      <stop offset="0.0" stop-color="#fff5b3" stop-opacity="0.81960785"/>
      <stop offset="1.0" stop-color="#fee400" stop-opacity="0.0"/>
    </radialGradient>
    <g id="shape1" transform="matrix(1.0, 0.0, 0.0, 1.0, -2.2, -21.3)">
      <path d="M19.95 33.05 Q21.4 31.45 23.25 31.1 26.15 30.55 28.6 32.1 31.0 33.7 31.2 36.25 31.35 38.7 30.65 40.65 29.95 42.45 28.9 43.1 25.3 45.2 22.0 43.9 17.5 42.05 18.1 37.25 18.4 34.8 19.95 33.05" fill="url(#gradient31)" fill-rule="evenodd" stroke="none"/>
      <path d="M20.65 32.7 Q21.9 31.35 23.5 31.1 25.9 30.65 27.95 31.95 30.0 33.3 30.15 35.4 30.3 37.5 29.65 39.15 29.15 40.6 28.2 41.15 25.1 42.95 22.45 41.85 18.6 40.35 19.1 36.25 19.35 34.2 20.65 32.7" fill="url(#gradient32)" fill-rule="evenodd" stroke="none"/>
      <path d="M45.85 28.5 Q47.25 27.2 47.25 26.35 L47.25 25.4 47.5 25.95 Q47.65 26.7 47.25 28.0 L46.75 29.35 Q47.1 33.4 46.95 35.9 46.9 37.55 45.2 40.3 L43.55 42.65 44.15 41.4 45.3 38.55 Q45.9 36.5 45.9 35.15 L45.6 30.85 Q44.8 31.6 43.5 31.9 L43.4 36.95 Q43.4 38.75 42.75 40.85 42.2 42.75 41.65 43.5 L37.35 47.8 39.2 45.2 Q40.25 43.75 40.95 41.7 41.7 39.6 41.85 37.65 42.0 35.2 41.4 32.25 L39.4 32.35 38.5 32.3 39.15 34.5 Q39.65 36.55 39.15 38.6 38.05 43.0 35.05 45.75 33.7 47.0 30.4 49.3 L34.75 44.9 Q36.2 43.2 36.75 41.65 37.35 39.95 37.45 37.25 37.5 34.15 36.45 32.1 L33.4 31.6 34.55 35.75 Q35.05 38.05 34.3 40.8 33.65 43.15 32.75 44.05 31.7 45.1 29.65 48.75 30.4 46.25 31.7 44.15 32.6 42.6 32.8 41.4 L32.95 37.25 Q32.85 34.35 30.55 31.0 L24.85 30.25 19.1 31.05 Q16.8 34.25 16.7 37.25 16.6 40.25 16.8 41.4 17.05 42.65 17.95 44.15 19.1 46.15 19.9 48.35 L19.85 47.95 20.1 46.85 20.65 45.1 20.95 46.3 21.3 47.4 22.15 48.45 22.55 48.95 22.6 49.25 22.7 49.45 23.0 48.8 23.2 48.1 23.5 47.2 23.95 46.0 24.4 46.85 24.65 47.8 24.95 49.35 25.25 50.2 25.4 51.05 Q25.8 50.95 26.45 49.5 L26.85 48.6 27.2 47.75 27.35 46.55 Q27.35 45.8 27.6 45.35 27.8 45.45 27.85 45.9 L27.9 46.55 28.1 47.4 28.2 49.0 27.9 48.2 27.6 47.45 27.45 50.05 26.8 51.25 25.5 52.15 24.75 50.1 24.35 48.95 24.05 48.05 Q23.4 48.15 23.3 49.4 L23.0 51.05 Q22.9 50.5 21.95 49.6 L21.15 48.25 20.75 47.8 Q20.4 47.75 20.35 48.1 L20.4 48.85 20.45 50.4 20.15 49.9 19.95 49.3 19.8 48.7 19.75 48.75 19.45 47.85 Q17.75 44.8 16.9 44.05 16.0 43.15 15.35 40.8 14.65 38.05 15.15 35.75 15.65 33.35 16.3 31.6 L13.2 32.1 Q12.15 34.45 12.2 37.25 12.25 39.9 12.9 41.65 13.45 43.2 14.95 44.9 L19.2 49.3 14.6 45.75 Q11.65 42.95 10.55 38.6 10.05 36.55 10.5 34.5 L11.15 32.3 10.35 32.35 8.25 32.25 Q7.65 35.7 7.8 37.65 8.0 39.6 8.7 41.7 9.4 43.75 10.4 45.2 L12.3 47.8 8.05 43.5 Q7.5 42.75 6.9 40.85 6.25 38.7 6.25 36.95 L6.2 31.85 Q4.9 31.55 4.05 30.85 3.7 33.85 3.7 35.15 3.7 36.5 4.4 38.55 L5.5 41.4 6.15 42.65 4.45 40.3 Q2.8 37.55 2.65 35.9 L2.7 31.95 2.9 29.25 2.45 28.0 Q2.1 26.7 2.2 25.95 L2.45 25.4 2.45 26.35 Q2.45 27.2 3.9 28.5 5.45 30.05 7.2 30.45 L11.95 31.0 16.7 30.45 20.6 29.05 Q23.0 28.25 24.7 28.25 L25.0 28.25 Q26.75 28.25 29.15 29.05 L33.05 30.45 37.75 31.0 42.55 30.45 Q44.3 30.05 45.85 28.5" fill="url(#gradient33)" fill-rule="evenodd" stroke="none"/>
      <path d="M19.8 48.7 L19.55 47.95 19.9 48.55 19.8 48.7" fill="url(#gradient34)" fill-rule="evenodd" stroke="none"/>
      <path d="M11.15 32.3 L10.35 32.35 8.25 32.25 8.7 31.9 12.25 31.9 11.65 32.9 Q11.0 34.1 10.95 35.2 10.85 36.95 11.35 39.3 12.0 42.15 13.2 43.15 13.85 43.7 14.15 43.85 L14.95 44.9 19.2 49.3 14.6 45.75 Q11.65 42.95 10.55 38.6 10.05 36.55 10.5 34.5 L11.15 32.3" fill="url(#gradient35)" fill-rule="evenodd" stroke="none"/>
      <path d="M2.45 25.4 L2.45 26.35 Q2.45 26.85 3.3 27.9 L3.7 28.9 3.9 29.2 3.65 30.15 Q3.35 31.3 3.3 32.35 3.25 33.8 3.5 35.45 3.75 37.25 4.25 38.15 4.9 40.15 5.5 41.4 L6.15 42.65 4.45 40.3 Q2.8 37.55 2.65 35.9 L2.7 31.95 2.9 29.25 2.45 28.0 Q2.1 26.7 2.2 25.95 L2.45 25.4" fill="url(#gradient36)" fill-rule="evenodd" stroke="none"/>
      <path d="M6.85 31.4 L6.95 35.8 Q6.95 37.0 7.3 38.85 7.75 40.95 8.25 41.95 L9.55 44.1 9.8 44.15 12.3 47.8 8.05 43.5 Q7.5 42.75 6.9 40.85 6.25 38.7 6.25 36.95 L6.2 31.85 Q4.9 31.55 4.05 30.85 L4.85 30.7 5.8 31.15 6.85 31.4" fill="url(#gradient37)" fill-rule="evenodd" stroke="none"/>
      <path d="M13.9 31.75 L16.15 31.35 17.05 31.0 16.45 32.8 Q15.85 34.7 15.8 35.4 L15.9 38.15 16.05 40.5 Q16.2 41.15 17.05 42.15 17.3 43.1 17.95 44.15 19.1 46.15 19.9 48.35 L19.85 47.95 20.15 48.25 20.35 48.3 20.4 48.85 20.45 50.4 20.15 49.9 19.95 49.3 19.8 48.7 19.75 48.75 19.45 47.85 Q17.75 44.8 16.9 44.05 16.0 43.15 15.35 40.8 14.65 38.05 15.15 35.75 15.65 33.35 16.3 31.6 L13.2 32.1 13.9 31.75" fill="url(#gradient38)" fill-rule="evenodd" stroke="none"/>
      <path d="M27.6 47.65 L27.6 47.7 27.45 50.05 26.8 51.25 25.5 52.15 25.2 51.45 Q26.05 50.95 26.55 50.0 L27.0 48.6 27.2 47.75 27.6 47.65" fill="url(#gradient39)" fill-rule="evenodd" stroke="none"/>
      <path d="M20.5 47.85 L20.45 47.8 21.1 47.4 21.35 47.9 21.85 48.65 22.95 49.9 23.25 49.95 23.0 51.05 Q22.9 50.5 21.95 49.6 L21.15 48.25 20.75 47.8 20.5 47.85" fill="url(#gradient40)" fill-rule="evenodd" stroke="none"/>
      <path d="M45.6 30.85 Q44.8 31.6 43.5 31.9 L43.4 36.95 Q43.4 38.75 42.75 40.85 42.2 42.75 41.65 43.5 L37.35 47.8 39.2 45.2 40.0 43.85 Q41.0 43.15 41.4 42.0 L42.25 38.55 42.6 35.15 42.6 31.6 44.25 31.0 44.75 30.7 45.6 30.85" fill="url(#gradient41)" fill-rule="evenodd" stroke="none"/>
      <path d="M32.8 32.05 L32.7 31.5 33.4 31.6 34.55 35.75 Q35.05 38.05 34.3 40.8 33.65 43.15 32.75 44.05 31.7 45.1 29.65 48.75 30.4 46.25 31.7 44.2 L32.55 42.8 33.4 40.45 Q33.85 38.7 33.8 37.4 L33.55 34.5 33.15 32.8 32.8 32.05" fill="url(#gradient42)" fill-rule="evenodd" stroke="none"/>
      <path d="M46.75 27.5 L47.25 26.35 47.25 25.4 47.5 25.95 Q47.65 26.7 47.25 28.0 L46.75 29.35 Q47.1 33.4 46.95 35.9 46.9 37.55 45.2 40.3 L43.55 42.65 44.15 41.4 Q45.5 38.6 45.85 36.15 L45.95 35.4 Q46.15 33.5 45.85 30.25 L45.65 29.45 Q46.6 28.3 46.75 27.5" fill="url(#gradient43)" fill-rule="evenodd" stroke="none"/>
      <path d="M40.5 32.0 L41.4 32.25 39.4 32.35 38.5 32.3 39.15 34.5 Q39.65 36.55 39.15 38.6 38.05 43.0 35.05 45.75 33.7 47.0 30.4 49.3 L34.75 44.9 35.55 43.75 36.9 41.85 38.05 38.1 Q38.45 35.8 38.25 34.35 L37.9 32.5 37.8 32.1 39.4 32.1 40.5 32.0" fill="url(#gradient44)" fill-rule="evenodd" stroke="none"/>
      <path d="M39.9 36.6 Q39.9 42.95 35.4 47.45 30.95 51.95 24.55 51.95 18.25 51.95 13.75 47.45 9.3 42.95 9.3 36.6 9.3 30.25 13.75 25.75 18.25 21.3 24.55 21.3 30.95 21.3 35.4 25.75 39.9 30.3 39.9 36.6" fill="url(#gradient45)" fill-rule="evenodd" stroke="none"/>
    </g>
    <linearGradient gradientTransform="matrix(0.0, 0.0073, 0.0073, 0.0, 24.6, 37.0)" gradientUnits="userSpaceOnUse" id="gradient31" spreadMethod="pad" x1="-819.2" x2="819.2">
      <stop offset="0.0" stop-color="#dbac46"/>
      <stop offset="1.0" stop-color="#f7e16c"/>
    </linearGradient>
    <radialGradient cx="0" cy="0" gradientTransform="matrix(0.0, -0.0335, -0.0335, 0.0, 24.95, 49.5)" gradientUnits="userSpaceOnUse" id="gradient32" r="819.2" spreadMethod="pad">
      <stop offset="0.0" stop-color="#fffef5"/>
      <stop offset="1.0" stop-color="#fee607"/>
    </radialGradient>
    <radialGradient cx="0" cy="0" gradientTransform="matrix(0.0, -0.4694, -0.4693, 0.0, -238.6, 71.55)" gradientUnits="userSpaceOnUse" id="gradient33" r="819.2" spreadMethod="pad">
      <stop offset="0.0" stop-color="#fffef5"/>
      <stop offset="1.0" stop-color="#fee607"/>
    </radialGradient>
    <linearGradient gradientTransform="matrix(2.0E-4, 0.0, 0.0, -2.0E-4, 19.7, 48.35)" gradientUnits="userSpaceOnUse" id="gradient34" spreadMethod="pad" x1="-819.2" x2="819.2">
      <stop offset="0.0" stop-color="#dbac46"/>
      <stop offset="1.0" stop-color="#f7e16c"/>
    </linearGradient>
    <linearGradient gradientTransform="matrix(7.0E-4, 0.0095, 0.0095, -7.0E-4, 13.5, 37.65)" gradientUnits="userSpaceOnUse" id="gradient35" spreadMethod="pad" x1="-819.2" x2="819.2">
      <stop offset="0.0" stop-color="#dbac46"/>
      <stop offset="1.0" stop-color="#f7e16c"/>
    </linearGradient>
    <linearGradient gradientTransform="matrix(7.0E-4, 0.0095, 0.0095, -7.0E-4, 4.35, 38.3)" gradientUnits="userSpaceOnUse" id="gradient36" spreadMethod="pad" x1="-819.2" x2="819.2">
      <stop offset="0.0" stop-color="#dbac46"/>
      <stop offset="1.0" stop-color="#f7e16c"/>
    </linearGradient>
    <linearGradient gradientTransform="matrix(7.0E-4, 0.0095, 0.0095, -7.0E-4, 8.05, 38.05)" gradientUnits="userSpaceOnUse" id="gradient37" spreadMethod="pad" x1="-819.2" x2="819.2">
      <stop offset="0.0" stop-color="#dbac46"/>
      <stop offset="1.0" stop-color="#f7e16c"/>
    </linearGradient>
    <linearGradient gradientTransform="matrix(7.0E-4, 0.0095, 0.0095, -7.0E-4, 16.55, 37.4)" gradientUnits="userSpaceOnUse" id="gradient38" spreadMethod="pad" x1="-819.2" x2="819.2">
      <stop offset="0.0" stop-color="#dbac46"/>
      <stop offset="1.0" stop-color="#f7e16c"/>
    </linearGradient>
    <linearGradient gradientTransform="matrix(7.0E-4, 0.0095, 0.0095, -7.0E-4, 25.4, 36.75)" gradientUnits="userSpaceOnUse" id="gradient39" spreadMethod="pad" x1="-819.2" x2="819.2">
      <stop offset="0.0" stop-color="#dbac46"/>
      <stop offset="1.0" stop-color="#f7e16c"/>
    </linearGradient>
    <linearGradient gradientTransform="matrix(7.0E-4, 0.0095, 0.0095, -7.0E-4, 20.95, 37.05)" gradientUnits="userSpaceOnUse" id="gradient40" spreadMethod="pad" x1="-819.2" x2="819.2">
      <stop offset="0.0" stop-color="#dbac46"/>
      <stop offset="1.0" stop-color="#f7e16c"/>
    </linearGradient>
    <linearGradient gradientTransform="matrix(7.0E-4, 0.0089, 0.0089, -7.0E-4, 41.3, 37.45)" gradientUnits="userSpaceOnUse" id="gradient41" spreadMethod="pad" x1="-819.2" x2="819.2">
      <stop offset="0.0" stop-color="#dbac46"/>
      <stop offset="1.0" stop-color="#f7e16c"/>
    </linearGradient>
    <linearGradient gradientTransform="matrix(7.0E-4, 0.0089, 0.0089, -7.0E-4, 32.2, 38.15)" gradientUnits="userSpaceOnUse" id="gradient42" spreadMethod="pad" x1="-819.2" x2="819.2">
      <stop offset="0.0" stop-color="#dbac46"/>
      <stop offset="1.0" stop-color="#f7e16c"/>
    </linearGradient>
    <linearGradient gradientTransform="matrix(7.0E-4, 0.0089, 0.0089, -7.0E-4, 45.7, 37.1)" gradientUnits="userSpaceOnUse" id="gradient43" spreadMethod="pad" x1="-819.2" x2="819.2">
      <stop offset="0.0" stop-color="#dbac46"/>
      <stop offset="1.0" stop-color="#f7e16c"/>
    </linearGradient>
    <linearGradient gradientTransform="matrix(7.0E-4, 0.0089, 0.0089, -7.0E-4, 35.7, 37.85)" gradientUnits="userSpaceOnUse" id="gradient44" spreadMethod="pad" x1="-819.2" x2="819.2">
      <stop offset="0.0" stop-color="#dbac46"/>
      <stop offset="1.0" stop-color="#f7e16c"/>
    </linearGradient>
    <radialGradient cx="0" cy="0" gradientTransform="matrix(0.0187, 0.0, 0.0, -0.0187, 24.55, 36.6)" gradientUnits="userSpaceOnUse" id="gradient45" r="819.2" spreadMethod="pad">
      <stop offset="0.0" stop-color="#fff5b3" stop-opacity="0.81960785"/>
      <stop offset="1.0" stop-color="#fee400" stop-opacity="0.0"/>
    </radialGradient>
  </defs>
</svg>
