<?xml version="1.0" encoding="UTF-8" standalone="no"?>
<svg xmlns:xlink="http://www.w3.org/1999/xlink" height="66.8px" width="177.2px" xmlns="http://www.w3.org/2000/svg">
  <g transform="matrix(1.0, 0.0, 0.0, 1.0, 0.0, 0.0)">
    <use height="66.8" transform="matrix(1.0, 0.0, 0.0, 1.0, 0.0, 0.0)" width="177.2" xlink:href="#shape0"/>
  </g>
  <defs>
    <g id="shape0" transform="matrix(1.0, 0.0, 0.0, 1.0, 0.0, 0.0)">
      <path d="M38.75 25.75 L38.95 25.6 40.0 25.5 41.05 25.5 41.7 25.1 42.05 24.4 Q42.35 23.95 43.3 23.6 44.2 23.25 44.5 22.75 L44.85 21.55 45.0 20.35 45.8 15.0 46.45 11.65 46.75 8.6 46.75 26.4 42.65 26.1 38.75 25.75 M49.15 25.55 Q49.15 24.2 49.7 24.0 50.45 23.75 51.3 25.1 L53.8 28.5 53.15 28.3 53.1 28.25 51.85 27.5 Q50.95 27.0 49.65 26.75 L49.15 25.55 M57.55 28.0 Q57.5 24.5 57.7 22.1 57.9 20.25 59.05 15.05 60.0 10.95 60.05 8.3 L60.05 11.05 60.05 11.15 Q59.55 15.75 59.55 19.35 L59.55 24.1 Q59.6 25.45 60.1 26.7 L60.2 26.95 59.2 27.4 58.1 27.8 57.55 28.0 M92.55 24.8 L92.75 24.1 Q93.05 22.7 93.5 22.4 93.75 22.25 94.55 22.4 L95.55 22.35 Q95.95 22.05 96.1 21.15 L96.2 19.75 Q97.05 13.15 97.05 10.6 L96.95 6.85 Q96.95 4.6 97.3 3.05 97.2 11.8 97.7 16.8 L98.55 24.25 92.55 24.8 M104.2 23.65 Q104.8 23.15 105.65 22.85 L106.55 22.55 106.85 21.6 106.9 20.3 106.9 19.0 Q107.85 19.65 109.35 22.55 L109.7 23.15 107.2 23.45 106.1 23.55 105.75 23.55 105.65 23.55 105.3 23.6 104.2 23.65 M135.1 23.05 L135.25 22.6 Q135.7 21.3 136.2 17.7 136.95 13.05 136.95 5.85 L137.2 0.0 137.45 3.7 138.2 12.85 138.7 17.15 138.95 21.45 138.95 22.7 137.9 22.8 136.7 22.9 135.1 23.05 M142.15 22.5 L144.3 20.15 145.35 22.55 145.15 22.55 142.3 22.5 142.15 22.5 M149.5 22.9 L150.0 20.95 Q150.2 18.1 150.45 17.25 L151.2 22.1 151.4 23.1 149.5 22.9 M160.85 23.3 L161.0 21.75 160.9 19.7 Q161.05 11.05 161.9 4.45 L161.7 11.7 Q161.75 15.8 162.4 18.75 162.95 21.35 163.0 23.6 L162.65 23.5 162.6 23.5 162.35 23.45 162.2 23.45 161.4 23.35 161.15 23.3 160.85 23.3 M163.2 24.65 L163.85 24.75 165.5 24.75 171.7 23.7 174.6 23.55 177.2 23.3 174.25 24.0 170.95 24.65 167.65 24.9 164.35 25.35 159.9 26.65 156.95 27.1 154.0 27.7 Q153.4 27.9 152.35 28.5 L151.75 28.8 151.65 28.15 151.45 27.75 152.35 27.3 Q153.4 26.75 154.0 26.55 L156.95 25.95 159.9 25.5 163.2 24.65 M147.95 33.65 L147.45 37.7 146.95 47.05 146.75 48.9 Q146.55 47.15 145.75 43.95 144.9 40.6 144.7 38.95 144.45 36.85 144.45 30.4 L144.25 30.4 Q143.25 30.55 141.15 31.25 L138.05 32.0 Q133.35 32.65 130.95 33.5 L128.35 34.65 128.35 33.3 128.35 33.1 130.95 32.05 131.2 32.0 131.45 31.9 131.9 31.8 132.85 31.55 138.05 30.65 141.15 29.95 Q143.25 29.3 144.25 29.15 L147.5 28.7 148.25 28.6 148.4 29.1 147.2 29.65 Q147.8 30.75 147.9 32.25 L147.95 33.65 M125.25 37.65 L125.25 39.65 125.15 49.1 124.45 57.95 Q123.8 64.1 123.65 66.8 123.25 66.1 123.1 64.2 L122.95 61.7 121.8 54.6 120.3 47.6 Q119.65 44.3 118.9 38.3 L118.8 37.2 118.3 37.1 117.95 37.05 117.7 37.75 116.9 39.25 Q116.35 38.55 116.35 37.5 115.35 37.55 115.25 40.85 L115.35 45.05 Q115.15 47.7 113.75 56.0 112.9 60.95 112.7 64.5 L112.75 54.8 112.65 42.7 112.65 40.6 Q112.65 39.4 112.95 38.5 113.25 37.45 113.75 36.75 L111.1 36.55 106.15 36.45 106.15 38.0 105.85 40.75 104.4 46.75 Q103.6 50.0 103.6 52.55 L103.35 37.2 103.65 36.35 100.75 36.15 88.65 35.6 84.3 35.95 79.95 36.45 75.05 36.9 Q75.5 35.95 76.1 35.2 L79.95 34.9 84.3 34.5 88.65 34.2 100.75 34.7 111.1 34.95 114.75 35.1 118.3 35.4 Q121.1 35.75 124.7 34.5 L124.95 34.4 Q124.9 35.6 125.2 37.2 L125.25 37.65 M73.9 37.35 Q72.95 39.4 71.4 41.55 L70.9 38.65 70.55 37.05 70.5 37.05 Q70.85 36.2 71.35 35.75 L71.8 35.4 74.45 35.3 74.15 35.45 Q73.85 35.75 73.85 36.45 L73.9 37.35 M67.1 47.6 L66.7 52.95 Q66.25 57.75 65.15 60.55 64.75 58.05 64.85 53.75 L64.5 49.05 Q64.15 46.05 64.3 44.35 L64.55 36.9 62.25 36.8 55.6 35.95 50.45 35.35 45.25 35.3 42.2 35.0 39.15 34.65 37.65 34.55 37.85 34.35 39.05 33.4 39.35 33.05 42.2 33.35 45.25 33.65 50.45 33.8 55.6 34.35 62.25 35.15 67.45 35.35 Q67.0 36.15 67.0 37.85 L67.1 40.75 67.1 47.6 M33.6 38.75 L32.9 40.35 32.3 42.7 32.05 39.35 32.1 36.85 Q32.05 35.0 31.45 34.55 L30.55 35.0 30.3 33.9 18.6 32.1 9.25 29.85 0.25 27.45 5.3 27.85 9.25 28.75 13.0 29.15 18.6 30.4 20.15 30.7 33.8 32.55 33.5 35.7 33.6 38.75" fill="#b3aa9e" fill-rule="evenodd" stroke="none"/>
      <path d="M13.0 29.15 L9.25 28.15 0.0 25.75 5.3 26.3 9.25 27.15 13.15 27.55 14.9 27.0 Q15.85 26.6 16.8 26.7 19.7 26.95 25.35 26.55 L28.6 26.5 31.85 26.2 35.15 25.75 38.75 25.75 42.65 26.1 46.75 26.4 47.0 26.4 47.0 24.45 46.9 21.85 Q46.85 20.25 47.05 19.35 L47.8 22.0 49.15 25.55 49.65 26.75 Q50.95 27.0 51.85 27.5 L53.1 28.25 53.15 28.3 53.8 28.5 54.3 28.6 54.45 28.6 56.55 28.25 57.0 28.15 57.3 28.05 57.55 28.0 58.1 27.8 59.2 27.4 60.2 26.95 60.1 26.7 Q59.6 25.45 59.55 24.1 L59.55 19.35 Q59.55 15.75 60.05 11.15 L60.05 11.05 61.05 3.0 61.25 5.7 61.55 9.7 Q61.7 12.05 62.0 13.7 L63.8 22.95 64.3 25.7 64.35 25.95 65.9 26.05 69.25 26.4 75.2 26.65 77.0 26.4 78.7 25.8 84.85 24.95 91.15 24.85 91.55 24.85 87.3 25.4 Q84.6 25.8 81.25 26.85 77.95 27.9 73.5 27.95 L65.5 27.55 66.45 28.05 Q66.35 29.5 62.55 29.2 L56.55 28.8 55.7 29.05 54.35 29.7 52.85 29.95 50.75 29.75 51.0 30.35 50.1 29.6 49.9 29.55 46.9 28.9 40.3 28.2 33.75 27.75 24.0 28.4 22.5 28.75 Q21.15 29.05 20.75 29.85 L20.75 30.25 20.75 30.6 20.6 30.75 20.15 30.7 18.6 30.4 13.0 29.15 M100.7 24.0 L104.2 23.65 105.3 23.6 105.65 23.55 105.75 23.55 106.1 23.55 107.2 23.45 109.7 23.15 114.65 22.7 115.3 22.65 115.5 22.65 Q119.25 22.45 122.0 22.55 L125.1 22.8 125.2 22.8 134.1 23.15 135.1 23.05 136.7 22.9 137.9 22.8 138.95 22.7 140.5 22.6 142.1 22.5 142.15 22.5 142.3 22.5 145.15 22.55 145.35 22.55 146.05 22.6 148.35 22.8 148.65 22.8 149.05 22.85 149.5 22.9 151.4 23.1 154.8 23.35 154.85 23.35 154.95 23.35 158.65 23.25 158.8 23.25 160.55 23.3 160.85 23.3 161.15 23.3 161.4 23.35 162.2 23.45 162.35 23.45 160.75 23.85 150.5 25.6 145.0 25.95 143.8 25.9 143.3 25.1 142.5 24.45 135.15 24.1 126.25 25.4 126.2 26.3 122.75 26.75 119.3 27.0 115.4 27.45 Q112.9 27.7 111.5 27.45 L113.25 26.8 114.95 26.05 115.55 25.5 114.75 25.0 Q113.2 24.25 110.6 24.15 L106.3 24.1 Q103.05 24.25 100.85 24.05 L100.7 24.0 M165.8 23.65 L171.7 22.65 171.75 22.65 171.85 22.65 171.9 22.65 172.35 22.6 176.05 22.3 176.05 22.35 176.0 22.4 171.65 23.4 170.95 23.5 168.0 23.8 166.75 23.9 166.65 23.9 165.9 23.7 165.8 23.65 M147.85 39.8 Q147.75 39.15 147.8 38.1 L147.95 35.1 147.95 33.65 147.9 32.25 Q147.8 30.75 147.2 29.65 L148.4 29.1 148.7 28.95 150.0 28.95 Q149.7 29.05 149.55 29.65 149.4 30.2 149.4 31.25 L149.45 34.35 149.35 37.6 Q149.15 39.65 148.2 40.65 147.95 40.45 147.85 39.8 M125.4 38.15 L125.25 37.65 125.2 37.2 125.15 36.5 125.2 34.3 125.2 33.95 125.95 34.65 Q126.8 34.35 127.0 35.25 L127.05 36.7 Q126.8 39.15 125.65 38.55 L125.4 38.15 M34.8 38.55 Q34.55 36.9 34.75 35.5 34.8 34.85 35.0 34.35 35.3 33.4 36.0 33.05 L37.5 33.75 36.85 34.5 36.6 34.9 36.0 36.3 35.55 37.6 34.8 38.55 M68.1 36.9 L68.85 35.95 69.2 37.0 69.2 37.85 69.1 39.9 69.05 44.3 68.35 49.55 Q67.9 48.1 67.95 45.55 L68.0 43.3 67.9 41.5 Q67.75 40.45 67.85 39.15 L68.1 36.9" fill="#45403a" fill-rule="evenodd" stroke="none"/>
      <path d="M176.05 22.35 L177.2 22.15 171.65 23.4 176.0 22.4 176.05 22.35 M151.75 28.8 L151.65 29.9 151.15 34.45 149.7 44.75 147.95 55.05 148.0 49.35 147.95 43.6 147.85 40.85 147.85 39.8 Q147.95 40.45 148.2 40.65 149.15 39.65 149.35 37.6 L149.45 34.35 149.4 31.25 Q149.4 30.2 149.55 29.65 149.7 29.05 150.0 28.95 L148.7 28.95 148.4 29.1 148.25 28.6 148.2 28.5 150.45 27.15 Q151.15 27.35 151.45 27.75 L151.65 28.15 151.75 28.8 M128.35 34.65 L128.2 36.5 Q128.2 39.0 126.95 44.65 126.1 48.45 125.95 51.0 L125.95 45.1 125.9 41.5 125.4 38.15 125.65 38.55 Q126.8 39.15 127.05 36.7 L127.0 35.25 Q126.8 34.35 125.95 34.65 L125.2 33.95 125.2 34.3 125.15 36.5 125.2 37.2 Q124.9 35.6 124.95 34.4 L124.7 34.5 Q121.1 35.75 118.3 35.4 L114.75 35.1 111.1 34.95 100.75 34.7 88.65 34.2 84.3 34.5 79.95 34.9 76.1 35.2 Q75.5 35.95 75.05 36.9 73.95 39.1 73.85 41.25 L73.9 37.55 73.9 37.35 73.85 36.45 Q73.85 35.75 74.15 35.45 L74.45 35.3 71.8 35.4 71.35 35.75 Q70.85 36.2 70.5 37.05 L70.05 38.3 Q69.65 39.75 69.6 41.25 L69.6 49.5 68.85 54.05 68.4 56.0 Q68.1 57.25 67.65 57.75 67.1 54.5 67.1 47.6 L67.1 40.75 67.0 37.85 Q67.0 36.15 67.45 35.35 L62.25 35.15 55.6 34.35 50.45 33.8 45.25 33.65 42.2 33.35 39.35 33.05 39.05 33.4 37.85 34.35 37.65 34.55 Q36.45 35.85 35.95 38.05 35.7 39.05 35.7 40.6 L35.75 43.25 35.75 52.15 Q35.25 51.25 35.05 49.4 L34.75 46.55 33.75 40.0 33.6 38.75 33.5 35.7 33.8 32.55 20.15 30.7 20.6 30.75 32.5 32.4 Q30.25 31.75 30.15 31.45 31.5 30.55 34.75 30.65 L49.95 32.5 57.6 33.3 65.25 33.75 66.1 33.7 66.65 33.2 71.8 33.35 Q71.25 32.2 72.85 31.4 73.7 30.95 75.4 30.45 77.3 29.65 79.85 29.35 L88.9 28.25 90.8 28.05 92.8 27.9 96.65 27.15 100.45 26.5 107.3 26.0 109.6 26.1 Q109.1 26.5 108.1 26.75 L106.5 27.1 103.1 27.95 104.5 27.8 105.85 28.0 Q104.45 28.7 102.2 29.15 L98.45 29.8 96.45 30.1 94.6 30.6 Q97.35 30.9 101.25 30.7 L107.85 30.15 117.5 29.35 120.0 29.2 118.0 29.8 107.8 31.45 110.8 31.3 118.15 30.8 125.5 30.2 126.6 30.05 127.4 29.5 Q126.45 28.8 126.4 28.35 L128.85 28.05 131.25 27.85 135.0 27.15 138.7 26.7 Q138.2 27.3 136.8 27.5 L134.65 27.65 137.3 27.65 139.95 27.4 141.3 27.3 Q142.05 27.35 142.35 27.85 136.75 30.3 129.15 32.3 L131.05 32.0 131.2 32.0 130.95 32.05 128.35 33.1 128.35 33.3 128.35 34.65 M34.8 38.55 L35.55 37.6 36.0 36.3 36.6 34.9 36.85 34.5 37.5 33.75 36.0 33.05 Q35.3 33.4 35.0 34.35 34.8 34.85 34.75 35.5 34.55 36.9 34.8 38.55 M68.1 36.9 L67.85 39.15 Q67.75 40.45 67.9 41.5 L68.0 43.3 67.95 45.55 Q67.9 48.1 68.35 49.55 L69.05 44.3 69.1 39.9 69.2 37.85 69.2 37.0 68.85 35.95 68.1 36.9" fill="#635b52" fill-rule="evenodd" stroke="none"/>
      <path d="M91.55 24.85 L92.0 24.85 92.15 24.85 92.55 24.8 98.55 24.25 100.65 24.0 100.7 24.0 100.8 24.05 100.85 24.05 Q103.05 24.25 106.3 24.1 L110.6 24.15 Q113.2 24.25 114.75 25.0 L115.55 25.5 114.95 26.05 113.25 26.8 111.5 27.45 Q112.9 27.7 115.4 27.45 L119.3 27.0 122.75 26.75 126.2 26.3 126.25 25.4 135.15 24.1 142.5 24.45 143.3 25.1 143.8 25.9 145.0 25.95 150.5 25.6 160.75 23.85 162.35 23.45 162.6 23.5 162.65 23.5 163.0 23.6 163.85 23.75 163.9 23.75 164.5 23.8 165.5 23.7 165.8 23.65 165.9 23.7 166.65 23.9 166.35 23.95 166.1 23.95 164.35 24.25 163.2 24.65 159.9 25.5 156.95 25.95 154.0 26.55 Q153.4 26.75 152.35 27.3 L151.45 27.75 Q151.15 27.35 150.45 27.15 L148.2 28.5 148.25 28.6 147.5 28.7 144.25 29.15 Q143.25 29.3 141.15 29.95 L138.05 30.65 132.85 31.55 131.9 31.8 131.45 31.9 131.2 32.0 131.05 32.0 129.15 32.3 Q136.75 30.3 142.35 27.85 142.05 27.35 141.3 27.3 L139.95 27.4 137.3 27.65 134.65 27.65 136.8 27.5 Q138.2 27.3 138.7 26.7 L135.0 27.15 131.25 27.85 128.85 28.05 126.4 28.35 Q126.45 28.8 127.4 29.5 L126.6 30.05 125.5 30.2 118.15 30.8 110.8 31.3 107.8 31.45 118.0 29.8 120.0 29.2 117.5 29.35 107.85 30.15 101.25 30.7 Q97.35 30.9 94.6 30.6 L96.45 30.1 98.45 29.8 102.2 29.15 Q104.45 28.7 105.85 28.0 L104.5 27.8 103.1 27.95 106.5 27.1 108.1 26.75 Q109.1 26.5 109.6 26.1 L107.3 26.0 100.45 26.5 96.65 27.15 92.8 27.9 90.8 28.05 88.9 28.25 79.85 29.35 Q77.3 29.65 75.4 30.45 73.7 30.95 72.85 31.4 71.25 32.2 71.8 33.35 L66.65 33.2 66.1 33.7 65.25 33.75 57.6 33.3 49.95 32.5 34.75 30.65 Q31.5 30.55 30.15 31.45 30.25 31.75 32.5 32.4 L20.6 30.75 20.75 30.6 20.75 30.25 20.75 29.85 Q21.15 29.05 22.5 28.75 L24.0 28.4 33.75 27.75 40.3 28.2 46.9 28.9 49.9 29.55 50.1 29.6 51.0 30.35 50.75 29.75 52.85 29.95 54.35 29.7 55.7 29.05 56.55 28.8 62.55 29.2 Q66.35 29.5 66.45 28.05 L65.5 27.55 73.5 27.95 Q77.95 27.9 81.25 26.85 84.6 25.8 87.3 25.4 L91.55 24.85" fill="#514b44" fill-rule="evenodd" stroke="none"/>
    </g>
  </defs>
</svg>
