<?xml version="1.0" encoding="UTF-8" standalone="no"?>
<svg xmlns:xlink="http://www.w3.org/1999/xlink" height="20.95px" width="20.3px" xmlns="http://www.w3.org/2000/svg">
  <g transform="matrix(1.0, 0.0, 0.0, 1.0, 0.0, 0.0)">
    <use height="2.8" transform="matrix(1.0, 0.0, 0.0, 1.0, 5.25, 18.15)" width="13.95" xlink:href="#sprite0"/>
    <use height="20.45" transform="matrix(1.0, 0.0, 0.0, 1.0, 0.0, 0.0)" width="20.3" xlink:href="#shape1"/>
    <use height="2.7" transform="matrix(1.0, 0.0, 0.0, 1.0, 16.85, 17.0)" width="2.9" xlink:href="#sprite1"/>
    <use height="5.55" transform="matrix(1.0, 0.0, 0.0, 1.0, 16.7, 12.85)" width="2.6" xlink:href="#sprite2"/>
    <use height="9.4" transform="matrix(1.0, 0.0, 0.0, 1.0, 15.95, 7.6)" width="2.3" xlink:href="#sprite3"/>
    <use height="6.25" transform="matrix(1.0, 0.0, 0.0, 1.0, 14.2, 10.85)" width="1.5" xlink:href="#sprite4"/>
    <use height="11.9" transform="matrix(1.0, 0.0, 0.0, 1.0, 12.7, 6.05)" width="2.25" xlink:href="#sprite5"/>
    <use height="7.9" transform="matrix(1.0, 0.0, 0.0, 1.0, 12.5, 8.15)" width="0.4" xlink:href="#sprite6"/>
    <use height="10.4" transform="matrix(1.0, 0.0, 0.0, 1.0, 9.95, 8.1)" width="1.85" xlink:href="#sprite7"/>
    <use height="12.35" transform="matrix(1.0, 0.0, 0.0, 1.0, 5.35, 3.85)" width="4.4" xlink:href="#sprite8"/>
    <use height="10.2" transform="matrix(1.0, 0.0, 0.0, 1.0, 1.55, 6.75)" width="7.3" xlink:href="#sprite9"/>
    <use height="3.45" transform="matrix(1.0, 0.0, 0.0, 1.0, 4.95, 14.1)" width="3.55" xlink:href="#sprite10"/>
    <use height="0.25" transform="matrix(1.0, 0.0, 0.0, 1.0, 2.9, 16.75)" width="3.95" xlink:href="#sprite11"/>
  </g>
  <defs>
    <g id="sprite0" transform="matrix(1.0, 0.0, 0.0, 1.0, 0.0, 0.0)">
      <use height="2.8" transform="matrix(1.0, 0.0, 0.0, 1.0, 0.0, 0.0)" width="13.95" xlink:href="#shape0"/>
    </g>
    <g id="shape0" transform="matrix(1.0, 0.0, 0.0, 1.0, 0.0, 0.0)">
      <path d="M10.2 0.0 L13.95 2.35 10.65 2.3 9.0 2.5 7.35 2.1 4.6 2.8 2.75 1.55 0.0 1.9 2.0 0.4 10.2 0.0" fill="#36262c" fill-rule="evenodd" stroke="none"/>
    </g>
    <g id="shape1" transform="matrix(1.0, 0.0, 0.0, 1.0, 0.0, 0.0)">
      <path d="M7.3 18.2 L1.85 16.65 6.8 16.55 3.9 13.2 7.25 15.55 0.0 4.7 8.25 14.7 3.95 0.0 9.8 14.8 9.8 6.2 11.5 16.4 13.0 5.2 13.0 13.95 15.35 4.05 13.45 16.4 15.55 10.15 15.8 15.15 18.9 4.7 16.7 16.7 19.9 11.4 17.6 18.25 20.3 16.5 17.15 19.95 15.95 19.3 14.2 20.05 12.35 19.75 10.1 20.45 8.25 19.15 6.55 19.65 7.3 18.2" fill="#a48476" fill-rule="evenodd" stroke="none"/>
    </g>
    <g id="sprite1" transform="matrix(1.0, 0.0, 0.0, 1.0, 0.0, 0.0)">
      <use height="2.7" transform="matrix(1.0, 0.0, 0.0, 1.0, 0.0, 0.0)" width="2.9" xlink:href="#shape2"/>
    </g>
    <g id="shape2" transform="matrix(1.0, 0.0, 0.0, 1.0, 0.0, 0.0)">
      <path d="M0.0 2.45 L2.9 0.0 0.3 2.7 0.0 2.45" fill="#787b68" fill-rule="evenodd" stroke="none"/>
    </g>
    <g id="sprite2" transform="matrix(1.0, 0.0, 0.0, 1.0, 0.0, 0.0)">
      <use height="5.55" transform="matrix(1.0, 0.0, 0.0, 1.0, 0.0, 0.0)" width="2.6" xlink:href="#shape3"/>
    </g>
    <g id="shape3" transform="matrix(1.0, 0.0, 0.0, 1.0, 0.0, 0.0)">
      <path d="M0.0 5.3 L2.6 0.0 0.55 5.55 0.45 5.15 0.0 5.3" fill="#787b68" fill-rule="evenodd" stroke="none"/>
    </g>
    <g id="sprite3" transform="matrix(1.0, 0.0, 0.0, 1.0, 0.0, 0.0)">
      <use height="11.9" transform="matrix(1.0222, 0.0, 0.0, 0.7899, 0.0, 0.0)" width="2.25" xlink:href="#shape4"/>
    </g>
    <g id="shape4" transform="matrix(1.0, 0.0, 0.0, 1.0, 0.0, 0.0)">
      <path d="M0.0 11.9 L2.25 0.0 0.4 11.3 0.0 11.9" fill="#787b68" fill-rule="evenodd" stroke="none"/>
    </g>
    <g id="sprite4" transform="matrix(1.0, 0.0, 0.0, 1.0, 0.0, 0.0)">
      <use height="6.25" transform="matrix(1.0, 0.0, 0.0, 1.0, 0.0, 0.0)" width="1.5" xlink:href="#shape5"/>
    </g>
    <g id="shape5" transform="matrix(1.0, 0.0, 0.0, 1.0, 0.0, 0.0)">
      <path d="M0.0 6.25 L1.3 0.0 1.5 5.0 1.05 4.7 0.0 6.25" fill="#787b68" fill-rule="evenodd" stroke="none"/>
    </g>
    <g id="sprite5" transform="matrix(1.0, 0.0, 0.0, 1.0, 0.0, 0.0)">
      <use height="11.9" transform="matrix(1.0, 0.0, 0.0, 1.0, 0.0, 0.0)" width="2.25" xlink:href="#shape4"/>
    </g>
    <g id="sprite6" transform="matrix(1.0, 0.0, 0.0, 1.0, 0.0, 0.0)">
      <use height="7.9" transform="matrix(1.0, 0.0, 0.0, 1.0, 0.0, 0.0)" width="0.4" xlink:href="#shape6"/>
    </g>
    <g id="shape6" transform="matrix(1.0, 0.0, 0.0, 1.0, 0.0, 0.0)">
      <path d="M0.0 7.9 L0.35 0.0 0.4 6.5 0.0 7.9" fill="#787b68" fill-rule="evenodd" stroke="none"/>
    </g>
    <g id="sprite7" transform="matrix(1.0, 0.0, 0.0, 1.0, 0.0, 0.0)">
      <use height="10.4" transform="matrix(1.0, 0.0, 0.0, 1.0, 0.0, 0.0)" width="1.85" xlink:href="#shape7"/>
    </g>
    <g id="shape7" transform="matrix(1.0, 0.0, 0.0, 1.0, 0.0, 0.0)">
      <path d="M1.2 9.85 L0.0 0.0 1.85 10.4 1.4 9.65 1.2 9.85" fill="#787b68" fill-rule="evenodd" stroke="none"/>
    </g>
    <g id="sprite8" transform="matrix(1.0, 0.0, 0.0, 1.0, 0.0, 0.0)">
      <use height="12.35" transform="matrix(1.0, 0.0, 0.0, 1.0, 0.0, 0.0)" width="4.4" xlink:href="#shape8"/>
    </g>
    <g id="shape8" transform="matrix(1.0, 0.0, 0.0, 1.0, 0.0, 0.0)">
      <path d="M4.1 12.35 L0.0 0.0 4.4 11.6 4.0 10.9 4.1 12.35" fill="#787b68" fill-rule="evenodd" stroke="none"/>
    </g>
    <g id="sprite9" transform="matrix(1.0, 0.0, 0.0, 1.0, 0.0, 0.0)">
      <use height="10.2" transform="matrix(1.0, 0.0, 0.0, 1.0, 0.0, 0.0)" width="7.3" xlink:href="#shape9"/>
    </g>
    <g id="shape9" transform="matrix(1.0, 0.0, 0.0, 1.0, 0.0, 0.0)">
      <path d="M7.3 10.2 L0.0 0.0 7.1 8.7 6.65 8.6 7.3 10.2" fill="#787b68" fill-rule="evenodd" stroke="none"/>
    </g>
    <g id="sprite10" transform="matrix(1.0, 0.0, 0.0, 1.0, 0.0, 0.0)">
      <use height="3.45" transform="matrix(1.0, 0.0, 0.0, 1.0, 0.0, 0.0)" width="3.55" xlink:href="#shape10"/>
    </g>
    <g id="shape10" transform="matrix(1.0, 0.0, 0.0, 1.0, 0.0, 0.0)">
      <path d="M3.55 3.45 L0.0 0.0 2.45 1.75 3.55 3.45" fill="#787b68" fill-rule="evenodd" stroke="none"/>
    </g>
    <g id="sprite11" transform="matrix(1.0, 0.0, 0.0, 1.0, 0.0, 0.0)">
      <use height="0.25" transform="matrix(1.0, 0.0, 0.0, 1.0, 0.0, 0.0)" width="3.95" xlink:href="#shape11"/>
    </g>
    <g id="shape11" transform="matrix(1.0, 0.0, 0.0, 1.0, 0.0, 0.0)">
      <path d="M3.9 0.0 L3.95 0.25 0.0 0.0 3.9 0.0" fill="#787b68" fill-rule="evenodd" stroke="none"/>
    </g>
  </defs>
</svg>
