<?xml version="1.0" encoding="UTF-8" standalone="no"?>
<svg xmlns:xlink="http://www.w3.org/1999/xlink" height="146.65px" width="91.35px" xmlns="http://www.w3.org/2000/svg">
  <g transform="matrix(1.0, 0.0, 0.0, 1.0, 0.0, 0.0)">
    <use height="146.65" transform="matrix(1.0, 0.0, 0.0, 1.0, 0.0, 0.0)" width="91.35" xlink:href="#shape0"/>
  </g>
  <defs>
    <g id="shape0" transform="matrix(1.0, 0.0, 0.0, 1.0, 0.0, 0.0)">
      <path d="M80.1 73.55 Q87.7 110.15 91.35 146.65 L0.0 108.0 Q3.5 80.85 10.9 53.75 25.75 -0.45 45.35 0.0 64.9 0.4 80.1 73.55" fill="#3e382e" fill-rule="evenodd" stroke="none"/>
      <path d="M66.4 73.5 Q72.65 101.35 76.65 129.35 L10.65 104.0 Q14.15 83.0 19.9 61.85 31.4 19.5 42.65 18.65 53.9 17.85 66.4 73.5" fill="url(#gradient0)" fill-rule="evenodd" stroke="none"/>
    </g>
    <linearGradient gradientTransform="matrix(0.0011, 0.2439, 0.2439, -0.0011, 43.5, 81.2)" gradientUnits="userSpaceOnUse" id="gradient0" spreadMethod="pad" x1="-819.2" x2="819.2">
      <stop offset="0.0" stop-color="#deb96b"/>
      <stop offset="1.0" stop-color="#d8e8d9"/>
    </linearGradient>
  </defs>
</svg>
