<?xml version="1.0" encoding="UTF-8" standalone="no"?>
<svg xmlns:xlink="http://www.w3.org/1999/xlink" height="31.2px" width="50.5px" xmlns="http://www.w3.org/2000/svg">
  <g transform="matrix(1.0, 0.0, 0.0, 1.0, 0.0, 0.0)">
    <use height="16.25" transform="matrix(1.0, 0.0, 0.0, 1.0, 20.35, 6.65)" width="26.95" xlink:href="#shape0"/>
    <use height="2.7" transform="matrix(0.8, 0.0, 0.0, 0.8, 28.4, 7.95)" width="11.5" xlink:href="#sprite0"/>
    <use height="18.7" transform="matrix(0.8, 0.0, 0.0, 0.8, 20.31, 7.95)" width="33.65" xlink:href="#sprite1"/>
    <use height="3.45" transform="matrix(0.8, 0.0, 0.0, 0.8, 28.35, 7.35)" width="6.2" xlink:href="#sprite2"/>
    <use height="15.5" transform="matrix(0.8, 0.0, 0.0, 0.8, 20.35, 10.55)" width="32.45" xlink:href="#sprite3"/>
    <use height="13.15" transform="matrix(1.0, 0.0, 0.0, 1.0, 22.75, 7.75)" width="23.2" xlink:href="#shape5"/>
    <use height="13.85" transform="matrix(0.8, 0.0, 0.0, 0.8, 22.5, 11.81)" width="16.95" xlink:href="#sprite4"/>
    <use height="19.2" transform="matrix(1.0, 0.0, 0.0, 1.0, 3.25, 12.0)" width="30.25" xlink:href="#shape7"/>
    <use height="22.7" transform="matrix(0.8, 0.0, 0.0, 0.8, 5.35, 13.0)" width="35.2" xlink:href="#sprite5"/>
    <use height="3.45" transform="matrix(0.8, 0.0, 0.0, 0.8, 18.39, 13.15)" width="7.25" xlink:href="#sprite6"/>
    <use height="2.35" transform="matrix(0.8, 0.0, 0.0, 0.8, 18.45, 14.05)" width="7.05" xlink:href="#sprite7"/>
    <use height="1.45" transform="matrix(0.8, 0.0, 0.0, 0.8, 18.4, 14.5)" width="4.7" xlink:href="#sprite8"/>
    <use height="19.4" transform="matrix(0.8, 0.0, 0.0, 0.8, 6.4, 15.65)" width="33.9" xlink:href="#sprite9"/>
    <use height="15.85" transform="matrix(1.0, 0.0, 0.0, 1.0, 5.05, 13.1)" width="25.3" xlink:href="#shape13"/>
    <use height="15.8" transform="matrix(0.8, 0.0, 0.0, 0.8, 3.7, 15.7)" width="16.6" xlink:href="#sprite10"/>
    <use height="10.05" transform="matrix(0.8, 0.0, 0.0, 0.8, 4.49, 16.75)" width="10.3" xlink:href="#sprite11"/>
    <use height="4.4" transform="matrix(0.8, 0.0, 0.0, 0.8, 5.75, 18.1)" width="4.55" xlink:href="#sprite12"/>
  </g>
  <defs>
    <g id="shape0" transform="matrix(1.0, 0.0, 0.0, 1.0, -20.35, -6.65)">
      <path d="M37.95 22.9 Q32.1 22.9 28.5 21.7 25.15 20.55 22.95 18.05 20.4 15.25 20.35 12.05 20.3 8.3 24.2 7.1 26.95 6.25 29.75 7.0 L34.75 8.1 41.45 8.65 Q45.4 9.5 46.55 12.5 48.2 16.7 46.1 19.7 43.75 22.9 37.95 22.9" fill="url(#gradient0)" fill-rule="evenodd" stroke="none"/>
    </g>
    <linearGradient gradientTransform="matrix(-2.0E-4, 0.0064, 0.0064, 2.0E-4, 33.8, 13.85)" gradientUnits="userSpaceOnUse" id="gradient0" spreadMethod="pad" x1="-819.2" x2="819.2">
      <stop offset="0.0" stop-color="#b39345"/>
      <stop offset="1.0" stop-color="#6e5720"/>
    </linearGradient>
    <g id="sprite0" transform="matrix(1.0, 0.0, 0.0, 1.0, 0.0, 0.0)">
      <use height="2.65" transform="matrix(1.0, 0.0, 0.0, 1.0189, 0.0, 0.0)" width="11.5" xlink:href="#shape1"/>
    </g>
    <g id="shape1" transform="matrix(1.0, 0.0, 0.0, 1.0, 0.0, 0.0)">
      <path d="M7.9 0.2 L11.5 0.35 9.55 0.55 6.95 1.2 Q6.3 1.3 6.1 1.65 5.7 2.25 4.55 1.95 4.3 2.6 2.75 2.45 L0.0 2.65 Q0.0 2.2 1.75 2.05 L3.35 1.65 4.6 1.1 5.85 0.75 Q6.35 0.55 5.8 0.0 L7.9 0.2" fill="#ffd670" fill-rule="evenodd" stroke="none"/>
    </g>
    <g id="sprite1" transform="matrix(1.0, 0.0, 0.0, 1.0, 0.05, 0.0)">
      <use height="18.7" transform="matrix(1.0015, 0.0, 0.0, 1.0, -0.05, 0.0)" width="33.6" xlink:href="#shape2"/>
    </g>
    <g id="shape2" transform="matrix(1.0, 0.0, 0.0, 1.0, 0.0, 0.0)">
      <path d="M22.0 18.7 Q14.7 18.75 10.15 17.15 6.05 15.75 3.2 12.6 0.6 9.65 0.1 6.1 -0.45 2.1 2.5 0.0 L1.2 2.6 Q0.7 4.0 0.75 4.75 0.85 5.8 1.25 6.4 1.6 6.95 1.9 6.65 L2.0 5.5 Q1.9 4.8 2.35 5.5 2.95 6.35 4.3 7.2 5.55 8.0 6.55 8.25 L8.55 8.8 7.7 9.05 Q6.8 9.4 6.85 9.85 6.9 10.35 7.1 10.55 L8.05 10.85 Q9.05 11.05 9.55 11.45 9.95 11.55 8.5 12.3 L9.4 13.2 10.8 13.45 12.4 13.65 15.3 14.85 17.5 15.8 22.65 16.45 Q25.9 16.45 29.75 14.0 L33.6 11.2 Q33.0 14.95 29.65 16.9 26.65 18.65 22.0 18.7" fill="#000000" fill-rule="evenodd" stroke="none"/>
    </g>
    <g id="sprite2" transform="matrix(1.0, 0.0, 0.0, 1.0, 0.0, 0.0)">
      <use height="3.45" transform="matrix(1.0, 0.0, 0.0, 1.0, 0.0, 0.0)" width="6.2" xlink:href="#shape3"/>
    </g>
    <g id="shape3" transform="matrix(1.0, 0.0, 0.0, 1.0, 0.0, 0.0)">
      <path d="M5.95 1.55 L4.7 1.9 3.45 2.45 1.85 2.85 0.45 3.15 0.1 3.45 Q-0.05 3.4 0.05 2.95 0.1 2.5 0.55 2.25 L0.95 1.75 Q1.55 1.25 2.1 1.25 L2.55 1.2 2.4 0.6 2.7 0.25 Q2.95 0.05 3.2 0.0 L5.95 0.8 Q6.45 1.3 5.95 1.55" fill="#000000" fill-rule="evenodd" stroke="none"/>
    </g>
    <g id="sprite3" transform="matrix(1.0, 0.0, 0.0, 1.0, 0.0, 0.0)">
      <use height="15.5" transform="matrix(0.9985, 0.0, 0.0, 1.0, 0.0, 0.0)" width="32.5" xlink:href="#shape4"/>
    </g>
    <g id="shape4" transform="matrix(1.0, 0.0, 0.0, 1.0, 0.0, 0.0)">
      <path d="M22.0 15.5 Q14.65 15.45 10.15 13.9 6.0 12.5 3.2 9.4 1.4 7.4 0.55 4.9 -0.35 2.2 0.25 0.0 L0.35 2.1 Q0.5 4.1 1.7 5.6 L3.25 7.1 6.2 9.4 7.15 11.05 8.75 11.85 11.2 13.05 Q13.05 13.9 14.8 14.2 21.35 15.2 25.6 14.35 27.75 13.95 29.75 12.95 L32.5 11.05 Q29.45 15.5 22.0 15.5" fill="#000000" fill-rule="evenodd" stroke="none"/>
    </g>
    <g id="shape5" transform="matrix(1.0, 0.0, 0.0, 1.0, -22.75, -7.75)">
      <path d="M36.9 15.0 Q37.45 14.85 37.7 15.45 37.95 16.0 37.55 16.3 37.0 16.7 36.25 16.0 35.55 15.35 36.9 15.0" fill="url(#gradient1)" fill-rule="evenodd" stroke="none"/>
      <path d="M39.8 10.55 Q40.1 10.5 40.25 10.75 40.4 10.95 40.15 11.05 L39.55 10.9 Q39.3 10.55 39.8 10.55" fill="url(#gradient2)" fill-rule="evenodd" stroke="none"/>
      <path d="M33.65 12.85 Q34.25 12.9 34.45 13.3 34.65 13.7 34.1 13.9 33.5 14.1 33.1 13.45 32.7 12.75 33.65 12.85" fill="url(#gradient3)" fill-rule="evenodd" stroke="none"/>
      <path d="M42.65 19.3 Q43.0 19.15 43.3 19.3 43.55 19.4 43.25 19.7 L42.35 19.75 Q41.9 19.5 42.65 19.3" fill="url(#gradient4)" fill-rule="evenodd" stroke="none"/>
      <path d="M33.0 18.1 L33.65 18.5 Q33.95 18.9 33.55 19.0 33.05 19.15 32.55 18.6 32.1 18.05 33.0 18.1" fill="url(#gradient5)" fill-rule="evenodd" stroke="none"/>
      <path d="M29.55 10.65 Q29.95 10.65 30.05 10.9 L29.85 11.25 Q29.5 11.35 29.25 11.0 29.0 10.7 29.55 10.65" fill="url(#gradient6)" fill-rule="evenodd" stroke="none"/>
      <path d="M26.95 12.75 L27.35 13.15 Q27.45 13.5 26.95 13.55 26.4 13.7 26.15 13.05 25.95 12.45 26.95 12.75" fill="url(#gradient7)" fill-rule="evenodd" stroke="none"/>
      <path d="M29.8 15.15 Q30.25 15.15 30.6 15.55 30.95 15.95 30.35 16.1 29.6 16.25 29.2 15.7 28.8 15.1 29.8 15.15" fill="url(#gradient8)" fill-rule="evenodd" stroke="none"/>
      <path d="M27.15 15.85 Q27.45 15.8 27.6 16.05 L27.45 16.3 26.9 16.15 Q26.65 15.9 27.15 15.85" fill="url(#gradient9)" fill-rule="evenodd" stroke="none"/>
      <path d="M24.85 8.5 L25.15 8.8 Q25.25 9.1 24.95 9.2 L24.45 8.9 Q24.25 8.5 24.85 8.5" fill="url(#gradient10)" fill-rule="evenodd" stroke="none"/>
      <path d="M23.2 10.2 Q23.5 10.1 23.9 10.5 24.3 10.9 24.05 11.25 23.75 11.6 23.2 11.0 22.75 10.45 23.2 10.2" fill="url(#gradient11)" fill-rule="evenodd" stroke="none"/>
      <path d="M23.95 11.9 L24.3 12.25 Q24.4 12.65 24.1 12.6 L23.6 12.25 Q23.55 11.9 23.95 11.9" fill="url(#gradient12)" fill-rule="evenodd" stroke="none"/>
      <path d="M23.35 7.95 L23.2 8.4 Q22.85 8.75 22.8 8.55 L22.85 8.15 Q23.0 7.9 23.35 7.95" fill="url(#gradient13)" fill-rule="evenodd" stroke="none"/>
      <path d="M28.5 7.9 L28.55 8.1 Q28.45 8.3 28.2 8.3 L27.85 8.2 27.75 7.95 28.5 7.9" fill="url(#gradient14)" fill-rule="evenodd" stroke="none"/>
      <path d="M45.45 17.8 L45.9 17.9 45.85 18.35 Q45.6 18.6 45.25 18.35 44.9 18.1 45.45 17.8" fill="url(#gradient15)" fill-rule="evenodd" stroke="none"/>
      <path d="M39.15 20.2 Q39.45 20.25 39.4 20.6 39.35 20.95 39.0 20.9 38.55 20.9 38.5 20.5 38.35 20.15 39.15 20.2" fill="url(#gradient16)" fill-rule="evenodd" stroke="none"/>
    </g>
    <linearGradient gradientTransform="matrix(2.0E-4, -6.0E-4, 6.0E-4, 2.0E-4, 37.0, 15.85)" gradientUnits="userSpaceOnUse" id="gradient1" spreadMethod="pad" x1="-819.2" x2="819.2">
      <stop offset="0.0" stop-color="#856629"/>
      <stop offset="0.9882352941176471" stop-color="#967636"/>
    </linearGradient>
    <linearGradient gradientTransform="matrix(-1.0E-4, -2.0E-4, 2.0E-4, -1.0E-4, 39.9, 10.85)" gradientUnits="userSpaceOnUse" id="gradient2" spreadMethod="pad" x1="-819.2" x2="819.2">
      <stop offset="0.0" stop-color="#7a5e26"/>
      <stop offset="0.9882352941176471" stop-color="#96782d"/>
    </linearGradient>
    <linearGradient gradientTransform="matrix(1.0E-4, -5.0E-4, 5.0E-4, 1.0E-4, 33.8, 13.5)" gradientUnits="userSpaceOnUse" id="gradient3" spreadMethod="pad" x1="-819.2" x2="819.2">
      <stop offset="0.0" stop-color="#8f6e2c"/>
      <stop offset="0.9882352941176471" stop-color="#a18438"/>
    </linearGradient>
    <linearGradient gradientTransform="matrix(1.0E-4, -3.0E-4, 3.0E-4, 1.0E-4, 42.85, 19.55)" gradientUnits="userSpaceOnUse" id="gradient4" spreadMethod="pad" x1="-819.2" x2="819.2">
      <stop offset="0.0" stop-color="#695021"/>
      <stop offset="0.9882352941176471" stop-color="#856b28"/>
    </linearGradient>
    <linearGradient gradientTransform="matrix(-2.0E-4, -4.0E-4, 4.0E-4, -2.0E-4, 33.1, 18.6)" gradientUnits="userSpaceOnUse" id="gradient5" spreadMethod="pad" x1="-819.2" x2="819.2">
      <stop offset="0.0" stop-color="#7a5e26"/>
      <stop offset="0.9882352941176471" stop-color="#96782d"/>
    </linearGradient>
    <linearGradient gradientTransform="matrix(-1.0E-4, -3.0E-4, 3.0E-4, -1.0E-4, 29.6, 11.0)" gradientUnits="userSpaceOnUse" id="gradient6" spreadMethod="pad" x1="-819.2" x2="819.2">
      <stop offset="0.0" stop-color="#ad8639"/>
      <stop offset="0.9882352941176471" stop-color="#ba973f"/>
    </linearGradient>
    <linearGradient gradientTransform="matrix(-2.0E-4, -4.0E-4, 4.0E-4, -2.0E-4, 26.75, 13.2)" gradientUnits="userSpaceOnUse" id="gradient7" spreadMethod="pad" x1="-819.2" x2="819.2">
      <stop offset="0.0" stop-color="#ad8639"/>
      <stop offset="0.9882352941176471" stop-color="#ba973f"/>
    </linearGradient>
    <linearGradient gradientTransform="matrix(-2.0E-4, -4.0E-4, 4.0E-4, -2.0E-4, 29.9, 15.7)" gradientUnits="userSpaceOnUse" id="gradient8" spreadMethod="pad" x1="-819.2" x2="819.2">
      <stop offset="0.0" stop-color="#856629"/>
      <stop offset="0.9882352941176471" stop-color="#96782d"/>
    </linearGradient>
    <linearGradient gradientTransform="matrix(-1.0E-4, -2.0E-4, 2.0E-4, -1.0E-4, 27.25, 16.1)" gradientUnits="userSpaceOnUse" id="gradient9" spreadMethod="pad" x1="-819.2" x2="819.2">
      <stop offset="0.0" stop-color="#7a5e26"/>
      <stop offset="0.9882352941176471" stop-color="#96782d"/>
    </linearGradient>
    <linearGradient gradientTransform="matrix(-1.0E-4, -3.0E-4, 3.0E-4, -1.0E-4, 24.75, 8.9)" gradientUnits="userSpaceOnUse" id="gradient10" spreadMethod="pad" x1="-819.2" x2="819.2">
      <stop offset="0.0" stop-color="#ad8639"/>
      <stop offset="0.9882352941176471" stop-color="#ba973f"/>
    </linearGradient>
    <linearGradient gradientTransform="matrix(-2.0E-4, -5.0E-4, 5.0E-4, -2.0E-4, 23.55, 10.85)" gradientUnits="userSpaceOnUse" id="gradient11" spreadMethod="pad" x1="-819.2" x2="819.2">
      <stop offset="0.0" stop-color="#a37e36"/>
      <stop offset="0.9882352941176471" stop-color="#ba973f"/>
    </linearGradient>
    <linearGradient gradientTransform="matrix(-1.0E-4, -3.0E-4, 3.0E-4, -1.0E-4, 23.95, 12.3)" gradientUnits="userSpaceOnUse" id="gradient12" spreadMethod="pad" x1="-819.2" x2="819.2">
      <stop offset="0.0" stop-color="#a37e36"/>
      <stop offset="0.9882352941176471" stop-color="#ba973f"/>
    </linearGradient>
    <linearGradient gradientTransform="matrix(-1.0E-4, -3.0E-4, 3.0E-4, -1.0E-4, 23.05, 8.35)" gradientUnits="userSpaceOnUse" id="gradient13" spreadMethod="pad" x1="-819.2" x2="819.2">
      <stop offset="0.0" stop-color="#ad8639"/>
      <stop offset="0.9882352941176471" stop-color="#ba973f"/>
    </linearGradient>
    <linearGradient gradientTransform="matrix(-1.0E-4, -2.0E-4, 2.0E-4, -1.0E-4, 28.15, 8.1)" gradientUnits="userSpaceOnUse" id="gradient14" spreadMethod="pad" x1="-819.2" x2="819.2">
      <stop offset="0.0" stop-color="#ad8639"/>
      <stop offset="0.9882352941176471" stop-color="#ba973f"/>
    </linearGradient>
    <linearGradient gradientTransform="matrix(1.0E-4, -3.0E-4, 3.0E-4, 1.0E-4, 45.55, 18.2)" gradientUnits="userSpaceOnUse" id="gradient15" spreadMethod="pad" x1="-819.2" x2="819.2">
      <stop offset="0.0" stop-color="#695021"/>
      <stop offset="0.9882352941176471" stop-color="#856b28"/>
    </linearGradient>
    <linearGradient gradientTransform="matrix(0.0, -4.0E-4, 4.0E-4, 0.0, 39.0, 20.65)" gradientUnits="userSpaceOnUse" id="gradient16" spreadMethod="pad" x1="-819.2" x2="819.2">
      <stop offset="0.0" stop-color="#695021"/>
      <stop offset="0.9882352941176471" stop-color="#856b28"/>
    </linearGradient>
    <g id="sprite4" transform="matrix(1.0, 0.0, 0.0, 1.0, 0.0, 0.05)">
      <use height="13.85" transform="matrix(1.0, 0.0, 0.0, 1.0, 0.0, -0.05)" width="16.95" xlink:href="#shape6"/>
    </g>
    <g id="shape6" transform="matrix(1.0, 0.0, 0.0, 1.0, 0.0, 0.05)">
      <path d="M0.0 1.75 L5.85 0.2 Q8.1 -0.4 10.3 0.6 12.9 1.8 14.3 4.85 15.15 6.75 15.2 9.25 L15.25 12.25 Q15.6 13.55 16.95 13.8 11.9 13.8 9.9 12.75 7.85 11.65 0.0 1.75" fill="#000000" fill-rule="evenodd" stroke="none"/>
    </g>
    <g id="shape7" transform="matrix(1.0, 0.0, 0.0, 1.0, -3.25, -12.0)">
      <path d="M22.25 12.7 Q25.3 11.55 28.55 12.25 33.1 13.2 33.45 17.3 33.75 20.9 31.2 24.2 28.95 27.15 25.35 28.75 21.35 30.5 14.65 31.1 8.05 31.65 5.05 28.3 2.3 25.25 3.75 20.4 4.75 17.0 9.15 15.6 11.05 15.0 16.7 14.4 17.95 14.25 22.25 12.7" fill="url(#gradient17)" fill-rule="evenodd" stroke="none"/>
      <path d="M20.2 15.9 L19.9 15.7 18.5 15.55 Q18.25 15.3 17.65 15.2 L15.25 14.85 Q14.35 14.65 12.95 14.85 L11.3 15.1 16.7 14.4 18.55 14.05 Q18.15 14.55 18.6 14.7 L19.75 14.9 20.95 15.3 22.45 15.55 Q24.1 15.55 24.1 15.9 L21.55 15.95 20.2 15.9" fill="url(#gradient18)" fill-rule="evenodd" stroke="none"/>
    </g>
    <linearGradient gradientTransform="matrix(0.0025, 0.0081, 0.0081, -0.0025, 19.15, 23.3)" gradientUnits="userSpaceOnUse" id="gradient17" spreadMethod="pad" x1="-819.2" x2="819.2">
      <stop offset="0.0" stop-color="#b39345"/>
      <stop offset="1.0" stop-color="#6e5720"/>
    </linearGradient>
    <linearGradient gradientTransform="matrix(7.0E-4, 0.0021, 0.0021, -7.0E-4, 17.8, 15.9)" gradientUnits="userSpaceOnUse" id="gradient18" spreadMethod="pad" x1="-819.2" x2="819.2">
      <stop offset="0.0" stop-color="#997e38"/>
      <stop offset="1.0" stop-color="#9c7f3a"/>
    </linearGradient>
    <g id="sprite5" transform="matrix(1.0, 0.0, 0.0, 1.0, 0.0, 0.0)">
      <use height="22.7" transform="matrix(1.0, 0.0, 0.0, 1.0, 0.0, 0.0)" width="35.2" xlink:href="#shape8"/>
    </g>
    <g id="shape8" transform="matrix(1.0, 0.0, 0.0, 1.0, 0.0, 0.0)">
      <path d="M30.55 8.15 L32.55 6.05 Q33.0 5.25 33.0 6.0 33.0 7.15 33.2 7.3 33.55 7.55 33.9 6.9 34.3 6.2 34.3 5.1 34.3 4.25 33.55 2.7 L31.75 0.0 Q35.35 2.0 35.2 6.55 35.05 10.5 32.4 14.0 29.55 17.7 25.0 19.7 20.05 21.85 11.7 22.6 3.85 23.3 0.0 19.45 4.1 21.25 9.6 20.85 13.45 20.55 15.95 19.3 L18.85 17.65 Q20.7 16.9 22.05 16.05 L23.85 15.65 25.4 15.25 25.85 14.8 26.35 14.15 25.55 13.8 Q24.75 13.45 25.05 13.35 L25.65 13.05 26.65 12.55 27.7 12.1 27.95 11.3 Q27.95 10.8 26.9 10.55 L25.85 10.35 28.1 9.55 Q29.2 9.15 30.55 8.15" fill="#000000" fill-rule="evenodd" stroke="none"/>
    </g>
    <g id="sprite6" transform="matrix(1.0, 0.0, 0.0, 1.0, -0.05, 0.0)">
      <use height="3.45" transform="matrix(1.0, 0.0, 0.0, 1.0, 0.05, 0.0)" width="7.25" xlink:href="#shape9"/>
    </g>
    <g id="shape9" transform="matrix(1.0, 0.0, 0.0, 1.0, 0.0, 0.0)">
      <path d="M6.55 2.2 Q7.05 2.4 7.2 2.9 L7.2 3.45 Q7.2 3.0 5.1 3.0 L3.25 2.75 1.75 2.2 0.3 1.95 Q-0.3 1.75 0.3 1.1 L0.2 1.1 1.3 0.8 3.25 0.0 3.85 0.2 4.2 0.55 4.15 1.2 4.6 1.25 Q5.3 1.2 6.0 1.65 L6.15 1.9 6.55 2.2" fill="#ffe5a3" fill-rule="evenodd" stroke="none"/>
    </g>
    <g id="sprite7" transform="matrix(1.0, 0.0, 0.0, 1.0, 0.0, 0.0)">
      <use height="2.35" transform="matrix(1.0, 0.0, 0.0, 1.0, 0.0, 0.0)" width="7.05" xlink:href="#shape10"/>
    </g>
    <g id="shape10" transform="matrix(1.0, 0.0, 0.0, 1.0, 0.0, 0.0)">
      <path d="M3.75 1.9 L2.95 1.55 Q2.25 1.05 1.15 1.05 L0.05 0.75 Q-0.1 0.5 0.15 0.0 L0.9 0.05 1.55 0.05 1.65 0.35 Q1.7 0.55 2.2 0.6 L2.9 0.75 3.5 1.1 4.1 1.45 4.8 1.6 Q5.75 1.7 7.05 2.35 5.45 1.8 4.65 1.85 L3.75 1.9" fill="#ffe39e" fill-rule="evenodd" stroke="none"/>
    </g>
    <g id="sprite8" transform="matrix(1.0, 0.0, 0.0, 1.0, 0.0, 0.0)">
      <use height="1.45" transform="matrix(1.0, 0.0, 0.0, 1.0, 0.0, 0.0)" width="4.7" xlink:href="#shape11"/>
    </g>
    <g id="shape11" transform="matrix(1.0, 0.0, 0.0, 1.0, 0.0, 0.0)">
      <path d="M2.55 0.75 L0.75 0.55 Q0.3 0.5 0.1 0.2 L0.0 0.0 0.4 0.15 Q1.05 0.0 1.65 0.15 L3.1 0.65 4.7 1.3 3.7 1.35 Q3.25 0.85 2.55 0.75" fill="#ffd670" fill-rule="evenodd" stroke="none"/>
    </g>
    <g id="sprite9" transform="matrix(1.0, 0.0, 0.0, 1.0, 0.0, 0.0)">
      <use height="19.4" transform="matrix(1.0, 0.0, 0.0, 1.0, 0.0, 0.0)" width="33.9" xlink:href="#shape12"/>
    </g>
    <g id="shape12" transform="matrix(1.0, 0.0, 0.0, 1.0, 0.0, 0.0)">
      <path d="M33.45 2.4 L33.35 0.0 Q34.3 2.4 33.55 5.5 32.85 8.35 31.0 10.7 28.2 14.4 23.65 16.4 18.65 18.6 10.3 19.3 3.85 19.85 0.0 17.3 2.1 18.4 5.05 18.65 L12.15 18.3 18.35 17.15 Q20.35 16.65 22.35 15.55 L25.0 13.95 26.7 12.95 26.95 12.25 27.6 11.05 30.7 8.2 32.3 6.35 Q33.5 4.55 33.45 2.4" fill="#000000" fill-rule="evenodd" stroke="none"/>
    </g>
    <g id="shape13" transform="matrix(1.0, 0.0, 0.0, 1.0, -5.05, -13.1)">
      <path d="M14.95 22.25 Q16.55 22.5 15.85 23.3 15.05 24.15 14.4 23.75 13.9 23.45 14.15 22.8 14.35 22.1 14.95 22.25" fill="url(#gradient19)" fill-rule="evenodd" stroke="none"/>
      <path d="M11.15 17.6 Q11.75 17.55 11.5 17.9 11.15 18.3 10.8 18.2 10.55 18.1 10.7 17.85 L11.15 17.6" fill="url(#gradient20)" fill-rule="evenodd" stroke="none"/>
      <path d="M18.45 19.5 Q19.55 19.3 19.15 20.1 18.75 20.9 18.05 20.7 17.4 20.55 17.6 20.1 17.8 19.55 18.45 19.5" fill="url(#gradient21)" fill-rule="evenodd" stroke="none"/>
      <path d="M8.95 27.5 Q9.8 27.7 9.3 28.05 8.75 28.35 8.3 28.05 7.9 27.7 8.2 27.55 L8.95 27.5" fill="url(#gradient22)" fill-rule="evenodd" stroke="none"/>
      <path d="M19.75 25.25 Q20.8 25.1 20.35 25.8 19.85 26.45 19.25 26.3 18.75 26.2 19.05 25.7 19.35 25.3 19.75 25.25" fill="url(#gradient23)" fill-rule="evenodd" stroke="none"/>
      <path d="M22.9 16.7 Q23.5 16.65 23.25 17.05 23.0 17.45 22.6 17.35 22.2 17.3 22.35 17.0 22.45 16.7 22.9 16.7" fill="url(#gradient24)" fill-rule="evenodd" stroke="none"/>
      <path d="M26.05 18.75 Q27.15 18.3 26.95 18.95 26.75 19.7 26.1 19.65 25.55 19.6 25.65 19.25 L26.05 18.75" fill="url(#gradient25)" fill-rule="evenodd" stroke="none"/>
      <path d="M23.1 21.7 Q24.15 21.55 23.8 22.2 23.4 22.85 22.6 22.75 21.9 22.7 22.2 22.2 L23.1 21.7" fill="url(#gradient26)" fill-rule="evenodd" stroke="none"/>
      <path d="M26.15 22.2 Q26.75 22.2 26.5 22.5 26.3 22.8 25.9 22.7 25.55 22.7 25.65 22.45 25.8 22.2 26.15 22.2" fill="url(#gradient27)" fill-rule="evenodd" stroke="none"/>
      <path d="M27.95 13.85 Q28.6 13.7 28.45 14.25 28.35 14.75 27.95 14.65 27.6 14.55 27.65 14.25 27.65 13.9 27.95 13.85" fill="url(#gradient28)" fill-rule="evenodd" stroke="none"/>
      <path d="M30.0 15.55 Q30.6 15.75 30.1 16.45 29.55 17.15 29.15 16.8 28.85 16.5 29.25 15.95 29.65 15.5 30.0 15.55" fill="url(#gradient29)" fill-rule="evenodd" stroke="none"/>
      <path d="M29.35 17.5 Q29.85 17.45 29.8 17.85 29.75 18.25 29.3 18.3 28.95 18.35 29.0 17.9 L29.35 17.5" fill="url(#gradient30)" fill-rule="evenodd" stroke="none"/>
      <path d="M29.6 13.1 L30.2 13.3 30.3 13.7 Q30.25 13.9 29.8 13.55 29.4 13.15 29.6 13.1" fill="url(#gradient31)" fill-rule="evenodd" stroke="none"/>
      <path d="M23.75 13.55 L24.6 13.5 24.55 13.85 24.15 14.0 23.75 13.85 Q23.6 13.65 23.75 13.55" fill="url(#gradient32)" fill-rule="evenodd" stroke="none"/>
      <path d="M5.6 26.15 Q6.25 26.45 5.9 26.7 L5.2 26.8 Q4.95 26.65 5.1 26.3 5.25 26.0 5.6 26.15" fill="url(#gradient33)" fill-rule="evenodd" stroke="none"/>
      <path d="M12.95 28.2 Q13.85 28.1 13.8 28.5 L13.25 28.95 12.75 28.65 Q12.65 28.3 12.95 28.2" fill="url(#gradient34)" fill-rule="evenodd" stroke="none"/>
    </g>
    <linearGradient gradientTransform="matrix(2.0E-4, 7.0E-4, 7.0E-4, -2.0E-4, 15.1, 23.1)" gradientUnits="userSpaceOnUse" id="gradient19" spreadMethod="pad" x1="-819.2" x2="819.2">
      <stop offset="0.0" stop-color="#856629"/>
      <stop offset="0.9882352941176471" stop-color="#96782d"/>
    </linearGradient>
    <linearGradient gradientTransform="matrix(1.0E-4, 3.0E-4, 3.0E-4, -1.0E-4, 11.15, 17.9)" gradientUnits="userSpaceOnUse" id="gradient20" spreadMethod="pad" x1="-819.2" x2="819.2">
      <stop offset="0.0" stop-color="#7a5e26"/>
      <stop offset="0.9882352941176471" stop-color="#96782d"/>
    </linearGradient>
    <linearGradient gradientTransform="matrix(2.0E-4, 5.0E-4, 5.0E-4, -2.0E-4, 18.45, 20.2)" gradientUnits="userSpaceOnUse" id="gradient21" spreadMethod="pad" x1="-819.2" x2="819.2">
      <stop offset="0.0" stop-color="#8f6e2c"/>
      <stop offset="0.9882352941176471" stop-color="#9e7f2f"/>
    </linearGradient>
    <linearGradient gradientTransform="matrix(1.0E-4, 4.0E-4, 4.0E-4, -1.0E-4, 8.8, 27.9)" gradientUnits="userSpaceOnUse" id="gradient22" spreadMethod="pad" x1="-819.2" x2="819.2">
      <stop offset="0.0" stop-color="#7a5e26"/>
      <stop offset="0.9882352941176471" stop-color="#96782d"/>
    </linearGradient>
    <linearGradient gradientTransform="matrix(2.0E-4, 5.0E-4, 5.0E-4, -2.0E-4, 19.75, 25.85)" gradientUnits="userSpaceOnUse" id="gradient23" spreadMethod="pad" x1="-819.2" x2="819.2">
      <stop offset="0.0" stop-color="#7a5e26"/>
      <stop offset="0.9882352941176471" stop-color="#96782d"/>
    </linearGradient>
    <linearGradient gradientTransform="matrix(1.0E-4, 3.0E-4, 3.0E-4, -1.0E-4, 22.8, 17.1)" gradientUnits="userSpaceOnUse" id="gradient24" spreadMethod="pad" x1="-819.2" x2="819.2">
      <stop offset="0.0" stop-color="#a17c31"/>
      <stop offset="0.9882352941176471" stop-color="#a18130"/>
    </linearGradient>
    <linearGradient gradientTransform="matrix(1.0E-4, 4.0E-4, 4.0E-4, -1.0E-4, 26.35, 19.25)" gradientUnits="userSpaceOnUse" id="gradient25" spreadMethod="pad" x1="-819.2" x2="819.2">
      <stop offset="0.0" stop-color="#91702d"/>
      <stop offset="0.9882352941176471" stop-color="#a38332"/>
    </linearGradient>
    <linearGradient gradientTransform="matrix(2.0E-4, 5.0E-4, 5.0E-4, -2.0E-4, 23.0, 22.3)" gradientUnits="userSpaceOnUse" id="gradient26" spreadMethod="pad" x1="-819.2" x2="819.2">
      <stop offset="0.0" stop-color="#856629"/>
      <stop offset="0.9882352941176471" stop-color="#96782d"/>
    </linearGradient>
    <linearGradient gradientTransform="matrix(1.0E-4, 2.0E-4, 2.0E-4, -1.0E-4, 26.1, 22.5)" gradientUnits="userSpaceOnUse" id="gradient27" spreadMethod="pad" x1="-819.2" x2="819.2">
      <stop offset="0.0" stop-color="#7a5e26"/>
      <stop offset="0.9882352941176471" stop-color="#96782d"/>
    </linearGradient>
    <linearGradient gradientTransform="matrix(1.0E-4, 4.0E-4, 4.0E-4, -1.0E-4, 28.1, 14.3)" gradientUnits="userSpaceOnUse" id="gradient28" spreadMethod="pad" x1="-819.2" x2="819.2">
      <stop offset="0.0" stop-color="#ab8435"/>
      <stop offset="0.9882352941176471" stop-color="#997b2e"/>
    </linearGradient>
    <linearGradient gradientTransform="matrix(2.0E-4, 5.0E-4, 5.0E-4, -2.0E-4, 29.7, 16.3)" gradientUnits="userSpaceOnUse" id="gradient29" spreadMethod="pad" x1="-819.2" x2="819.2">
      <stop offset="0.0" stop-color="#96742e"/>
      <stop offset="0.9882352941176471" stop-color="#a38332"/>
    </linearGradient>
    <linearGradient gradientTransform="matrix(1.0E-4, 4.0E-4, 4.0E-4, -1.0E-4, 29.4, 17.95)" gradientUnits="userSpaceOnUse" id="gradient30" spreadMethod="pad" x1="-819.2" x2="819.2">
      <stop offset="0.0" stop-color="#96742e"/>
      <stop offset="0.9882352941176471" stop-color="#a38332"/>
    </linearGradient>
    <linearGradient gradientTransform="matrix(1.0E-4, 4.0E-4, 4.0E-4, -1.0E-4, 29.95, 13.5)" gradientUnits="userSpaceOnUse" id="gradient31" spreadMethod="pad" x1="-819.2" x2="819.2">
      <stop offset="0.0" stop-color="#ab8435"/>
      <stop offset="0.9882352941176471" stop-color="#997b2e"/>
    </linearGradient>
    <linearGradient gradientTransform="matrix(1.0E-4, 3.0E-4, 3.0E-4, -1.0E-4, 24.15, 13.75)" gradientUnits="userSpaceOnUse" id="gradient32" spreadMethod="pad" x1="-819.2" x2="819.2">
      <stop offset="0.0" stop-color="#ab8435"/>
      <stop offset="0.9882352941176471" stop-color="#997b2e"/>
    </linearGradient>
    <linearGradient gradientTransform="matrix(1.0E-4, 4.0E-4, 4.0E-4, -1.0E-4, 5.55, 26.55)" gradientUnits="userSpaceOnUse" id="gradient33" spreadMethod="pad" x1="-819.2" x2="819.2">
      <stop offset="0.0" stop-color="#7a5e26"/>
      <stop offset="0.9882352941176471" stop-color="#96782d"/>
    </linearGradient>
    <linearGradient gradientTransform="matrix(1.0E-4, 4.0E-4, 4.0E-4, -1.0E-4, 13.35, 28.6)" gradientUnits="userSpaceOnUse" id="gradient34" spreadMethod="pad" x1="-819.2" x2="819.2">
      <stop offset="0.0" stop-color="#7a5e26"/>
      <stop offset="0.9882352941176471" stop-color="#96782d"/>
    </linearGradient>
    <g id="sprite10" transform="matrix(1.0, 0.0, 0.0, 1.0, 0.0, 0.0)">
      <use height="15.8" transform="matrix(0.997, 0.0, 0.0, 1.0, 0.0, 0.0)" width="16.65" xlink:href="#shape14"/>
    </g>
    <g id="shape14" transform="matrix(1.0, 0.0, 0.0, 1.0, 0.0, -0.05)">
      <path d="M9.85 0.05 Q14.9 0.45 16.2 4.25 17.3 7.35 15.75 10.0 13.75 13.35 10.8 14.85 6.95 16.85 2.65 14.9 0.7 14.0 0.15 11.1 -0.55 7.55 1.95 3.3 2.85 1.8 5.9 0.8 8.55 -0.1 9.85 0.05" fill="#ffebba" fill-rule="evenodd" stroke="none"/>
    </g>
    <g id="sprite11" transform="matrix(1.0, 0.0, 0.0, 1.0, -0.05, 0.0)">
      <use height="10.05" transform="matrix(1.0, 0.0, 0.0, 1.0, 0.05, 0.0)" width="10.3" xlink:href="#shape15"/>
    </g>
    <g id="shape15" transform="matrix(1.0, 0.0, 0.0, 1.0, 0.0, 0.0)">
      <path d="M8.2 0.05 Q10.2 0.35 10.3 2.7 L9.95 6.1 Q9.9 7.1 7.4 8.55 5.0 10.0 3.35 10.05 1.75 10.15 0.8 9.2 -0.1 8.25 0.0 6.55 0.15 4.15 1.4 2.55 2.4 1.2 3.65 0.75 6.3 -0.25 8.2 0.05" fill="#ffe39e" fill-rule="evenodd" stroke="none"/>
    </g>
    <g id="sprite12" transform="matrix(1.0, 0.0, 0.0, 1.0, 0.0, 0.0)">
      <use height="4.4" transform="matrix(0.9891, 0.0, 0.0, 1.0, 5.0E-4, 0.0)" width="4.6" xlink:href="#shape16"/>
    </g>
    <g id="shape16" transform="matrix(1.0, 0.0, 0.0, 1.0, 0.05, 0.0)">
      <path d="M4.25 1.0 Q4.95 2.4 3.95 3.25 2.8 4.25 1.65 4.4 0.5 4.55 0.1 3.8 -0.3 3.1 0.45 1.75 1.2 0.35 2.1 0.1 3.55 -0.35 4.25 1.0" fill="#ffd670" fill-rule="evenodd" stroke="none"/>
    </g>
  </defs>
</svg>
