<?xml version="1.0" encoding="UTF-8" standalone="no"?>
<svg xmlns:xlink="http://www.w3.org/1999/xlink" height="70.05px" width="50.65px" xmlns="http://www.w3.org/2000/svg">
  <g transform="matrix(1.0, 0.0, 0.0, 1.0, 0.0, 0.0)">
    <use height="126.25" id="rookHead_mc" transform="matrix(1.0, 0.0, 0.0, 1.0, -32.2, -45.45)" width="112.4" xlink:href="#sprite0"/>
  </g>
  <defs>
    <g id="sprite0" transform="matrix(1.0, 0.0, 0.0, 1.0, 56.0, 73.75)">
      <use height="61.85" transform="matrix(1.0, 0.0, 0.0, 1.0, -21.7, -20.1)" width="46.15" xlink:href="#shape0"/>
      <use height="56.6" transform="matrix(1.0, 0.0, 0.0, 1.0, -22.3, -28.3)" width="44.65" xlink:href="#shape1"/>
      <use height="14.1" transform="matrix(1.0, 0.0, 0.0, 1.0, -19.1, -12.2)" width="9.1" xlink:href="#shape2"/>
      <use height="11.3" transform="matrix(1.0, 0.0, 0.0, 1.0, -22.05, -16.65)" width="16.3" xlink:href="#shape3"/>
      <use height="15.4" transform="matrix(1.0, 0.0, 0.0, 1.0, 1.0, -12.2)" width="13.95" xlink:href="#shape4"/>
      <use height="12.9" transform="matrix(1.0, 0.0, 0.0, 1.0, -3.65, -17.6)" width="20.45" xlink:href="#shape5"/>
      <use height="21.85" transform="matrix(1.0, 0.0, 0.0, 1.0, -9.5, 1.2)" width="15.1" xlink:href="#shape6"/>
      <use height="29.05" transform="matrix(1.0, 0.0, 0.0, 1.0, -14.6, -7.4)" width="20.05" xlink:href="#shape7"/>
    </g>
    <g id="shape0" transform="matrix(1.0, 0.0, 0.0, 1.0, 23.05, 30.95)">
      <path d="M16.35 -21.9 Q23.1 -12.8 23.1 0.0 23.1 12.8 16.35 21.85 9.6 30.9 0.05 30.9 -9.5 30.9 -16.3 21.85 -23.05 12.8 -23.05 0.0 -23.05 -12.8 -16.3 -21.9 -9.5 -30.95 0.05 -30.95 9.6 -30.95 16.35 -21.9" fill="url(#gradient0)" fill-rule="evenodd" stroke="none"/>
    </g>
    <radialGradient cx="0" cy="0" gradientTransform="matrix(0.0282, 0.0, 0.0, -0.0378, 0.05, 0.0)" gradientUnits="userSpaceOnUse" id="gradient0" r="819.2" spreadMethod="pad">
      <stop offset="0.6078431372549019" stop-color="#000000" stop-opacity="0.40784314"/>
      <stop offset="1.0" stop-color="#000000" stop-opacity="0.0"/>
    </radialGradient>
    <g id="shape1" transform="matrix(1.0, 0.0, 0.0, 1.0, 22.3, 28.3)">
      <path d="M-14.3 -17.55 L-14.55 -17.5 -11.4 -20.6 Q-7.7 -23.85 -5.0 -24.45 -0.65 -25.45 0.75 -26.6 L0.65 -25.55 1.2 -25.65 2.3 -26.55 Q3.05 -27.5 3.25 -28.3 4.05 -26.5 4.05 -25.3 L4.05 -24.15 Q4.35 -24.5 4.45 -25.7 L4.6 -27.35 5.35 -25.1 4.35 -23.75 Q3.6 -22.95 3.2 -23.05 2.75 -23.15 2.7 -23.6 L2.75 -24.55 Q2.55 -23.95 1.9 -23.8 L2.0 -25.35 0.1 -24.45 Q-1.35 -24.0 -1.5 -25.15 -2.3 -23.85 -2.6 -23.7 L-3.5 -23.75 -4.4 -23.9 -4.6 -22.5 -6.1 -22.75 -7.6 -22.5 Q-7.9 -22.3 -7.85 -21.6 L-7.8 -20.6 Q-8.95 -21.1 -9.3 -20.6 -9.6 -20.15 -9.15 -19.0 L-11.15 -19.0 Q-12.1 -18.8 -11.35 -17.65 -13.15 -17.55 -13.7 -16.35 L-14.9 -16.85 -14.3 -17.55" fill="#554254" fill-rule="evenodd" stroke="none"/>
      <path d="M-14.3 -17.55 L-14.9 -16.85 -13.7 -16.35 Q-13.15 -17.55 -11.35 -17.65 -12.1 -18.8 -11.15 -19.0 L-9.15 -19.0 Q-9.6 -20.15 -9.3 -20.6 -8.95 -21.1 -7.8 -20.6 L-7.85 -21.6 Q-7.9 -22.3 -7.6 -22.5 L-6.1 -22.75 -4.6 -22.5 -4.4 -23.9 -3.5 -23.75 -2.6 -23.7 Q-2.3 -23.85 -1.5 -25.15 -1.35 -24.0 0.1 -24.45 L2.0 -25.35 1.9 -23.8 Q2.55 -23.95 2.75 -24.55 L2.7 -23.6 Q2.75 -23.15 3.2 -23.05 3.6 -22.95 4.35 -23.75 L5.35 -25.1 5.55 -23.85 Q5.65 -23.15 6.75 -22.85 8.55 -22.4 9.85 -21.6 12.6 -19.85 13.8 -18.05 L14.0 -19.7 14.0 -20.15 14.5 -19.15 15.0 -17.4 15.0 -16.55 Q13.3 -17.85 11.9 -18.6 L10.5 -19.95 Q6.85 -22.5 4.25 -22.95 L4.3 -22.1 Q3.25 -22.9 0.9 -23.45 L0.9 -22.45 Q-0.9 -23.7 -2.6 -23.35 L-2.6 -22.05 -4.4 -22.55 -4.35 -21.2 -6.1 -22.3 -5.75 -19.25 -7.2 -19.65 -8.7 -19.95 -7.9 -18.85 -7.4 -17.6 -8.9 -18.2 -10.5 -18.7 Q-9.2 -17.5 -8.95 -16.65 L-10.75 -16.55 -12.7 -16.75 -11.55 -7.95 Q-11.1 -6.55 -6.85 -5.9 L-7.0 -5.3 Q-6.7 -3.7 -5.5 -3.1 L-3.3 -3.15 -3.95 10.45 -4.8 7.4 -7.65 6.1 Q-8.3 3.65 -9.95 0.4 -9.45 -1.65 -9.9 -2.9 L-10.95 -2.85 Q-11.25 -4.0 -12.2 -5.05 L-12.55 -5.0 -18.8 -4.75 Q-19.4 -3.25 -18.85 -1.5 -18.75 0.35 -18.25 1.5 L-18.1 4.7 -19.3 2.6 -19.3 4.75 Q-19.75 3.95 -20.0 2.3 -20.25 0.5 -20.55 -0.15 L-21.3 0.2 -21.5 0.6 Q-21.0 -0.75 -19.8 -2.15 L-19.65 -2.95 -20.5 -2.9 -19.45 -3.6 -18.55 -6.3 Q-18.15 -7.2 -17.7 -10.35 -17.3 -13.4 -16.85 -14.25 -15.95 -15.9 -14.3 -17.55 M15.0 -16.5 L16.1 -17.55 16.2 -16.35 15.55 -16.0 15.0 -16.5 M17.3 -7.45 L17.55 -7.05 17.85 -6.5 17.7 -6.75 17.3 -7.45 M19.25 4.4 L19.2 4.65 19.25 4.2 19.25 4.4 M19.1 5.8 L19.05 6.3 18.75 7.8 18.35 8.9 18.85 7.2 19.1 5.8 M-6.9 23.95 L-7.75 23.4 -9.5 22.1 -9.1 22.4 -6.9 23.95 M-19.95 5.7 L-20.0 5.65 -20.0 5.6 -19.8 5.9 -19.95 5.7 M1.05 -4.55 L0.95 -4.6 1.25 -4.85 1.05 -4.55 M18.65 -3.95 L19.45 -1.75 Q19.75 -0.25 19.2 0.35 L18.6 -1.1 18.45 3.4 Q18.15 5.85 17.1 7.55 L17.15 4.3 Q16.7 6.15 15.2 8.05 13.85 9.85 12.2 11.0 L12.8 8.85 12.95 6.6 Q12.1 7.85 10.5 8.85 L10.6 7.2 10.75 5.55 9.45 7.4 Q9.55 5.6 8.95 4.15 11.5 4.35 13.55 3.5 16.15 2.45 16.25 0.15 L14.15 0.75 15.85 -0.95 Q16.65 -1.9 16.7 -3.1 L16.65 -4.45 17.9 -4.9 18.65 -3.95" fill="#483648" fill-rule="evenodd" stroke="none"/>
      <path d="M16.2 -16.35 L16.2 -16.3 17.05 -14.15 17.45 -13.35 16.8 -14.25 15.55 -16.0 16.2 -16.35 M15.6 -10.7 L16.15 -9.75 16.7 -8.6 17.3 -7.45 17.7 -6.75 17.85 -6.5 17.9 -6.45 18.95 -5.25 20.45 -4.3 18.95 -4.25 19.9 -3.3 21.5 -0.8 21.55 -0.65 20.6 -0.9 20.55 -0.4 20.4 -0.55 20.5 0.15 20.5 0.3 Q20.45 1.55 20.05 2.45 L19.35 1.3 19.25 4.2 19.2 4.65 19.1 5.8 18.85 7.2 18.35 8.9 Q17.45 11.1 16.2 12.85 14.5 15.15 12.9 15.45 L14.45 10.7 12.35 13.95 Q10.9 15.7 9.25 15.95 10.7 14.05 10.75 12.85 9.95 14.2 8.7 14.5 8.9 13.95 8.9 11.85 L7.3 14.25 Q7.75 12.85 7.7 10.85 7.7 8.95 7.25 7.45 L5.8 4.4 Q5.2 3.2 3.9 1.9 L1.75 -0.3 -3.7 14.75 -4.15 15.2 -6.25 18.95 -6.35 19.35 -6.25 18.8 -6.2 16.75 -6.25 15.65 -6.55 11.9 Q-6.6 10.65 -7.1 8.25 L-7.65 6.1 -4.8 7.4 -3.95 10.45 -3.3 -3.15 Q-2.55 -3.6 -2.1 -4.8 L-2.0 -5.2 -1.9 -6.7 -1.85 -8.2 -1.5 -10.1 -1.0 -11.95 Q-1.9 -11.3 -2.45 -11.25 -2.6 -12.25 -1.75 -13.55 L-0.45 -15.6 -1.85 -14.4 -3.25 -13.15 -3.05 -17.9 Q-4.6 -14.65 -5.3 -11.95 -5.7 -13.2 -6.2 -13.65 L-6.1 -9.75 -7.7 -11.4 -6.8 -9.7 Q-6.25 -8.7 -6.35 -7.95 L-6.85 -5.9 Q-11.1 -6.55 -11.55 -7.95 L-12.7 -16.75 -10.75 -16.55 -8.95 -16.65 Q-9.2 -17.5 -10.5 -18.7 L-8.9 -18.2 -7.4 -17.6 -7.9 -18.85 -8.7 -19.95 -7.2 -19.65 -5.75 -19.25 -6.1 -22.3 -4.35 -21.2 -4.4 -22.55 -2.6 -22.05 -2.6 -23.35 Q-0.9 -23.7 0.9 -22.45 L0.9 -23.45 Q3.25 -22.9 4.3 -22.1 L4.25 -22.95 Q6.85 -22.5 10.5 -19.95 L11.9 -18.6 Q8.65 -20.5 5.6 -21.05 L6.75 -19.9 7.6 -18.5 Q6.8 -19.2 4.8 -19.95 L5.6 -18.85 6.35 -17.7 9.8 -12.05 10.0 -11.9 6.55 -12.0 Q4.65 -11.6 4.4 -10.35 L1.25 -4.85 0.95 -4.6 1.05 -4.55 1.0 -4.4 1.85 -2.2 Q2.3 -0.9 2.95 -0.15 4.1 1.2 6.05 2.0 L8.3 2.8 Q12.35 3.8 14.95 2.4 L12.05 2.25 13.15 1.1 14.0 -0.25 14.2 -1.1 Q14.85 -2.3 14.35 -3.8 L14.3 -5.25 Q14.25 -7.75 12.6 -9.85 L11.35 -11.25 11.1 -11.4 14.05 -10.95 15.6 -10.7 M-6.65 24.1 L-6.9 23.95 -9.1 22.4 -9.0 22.4 -7.65 22.3 Q-7.2 22.1 -6.8 21.1 L-6.55 20.25 Q-6.8 22.25 -6.65 24.1 M-20.0 5.6 L-20.05 5.55 -20.35 4.45 Q-20.65 3.5 -20.55 2.0 L-20.4 0.75 -22.3 2.7 -21.5 0.6 -21.3 0.2 -20.55 -0.15 Q-20.25 0.5 -20.0 2.3 -19.75 3.95 -19.3 4.75 L-19.3 2.6 -18.1 4.7 -18.25 1.5 Q-18.75 0.35 -18.85 -1.5 L-18.05 -0.05 -18.0 0.05 -17.0 1.7 Q-16.55 2.3 -16.5 2.8 -16.35 3.9 -16.95 7.7 L-17.85 6.05 -17.7 8.65 -18.95 7.2 -19.15 6.9 -19.2 6.75 -19.8 5.9 -20.0 5.6 M18.65 -3.95 L17.9 -4.9 16.65 -4.45 16.7 -3.1 Q16.65 -1.9 15.85 -0.95 L14.15 0.75 16.25 0.15 Q16.15 2.45 13.55 3.5 11.5 4.35 8.95 4.15 9.55 5.6 9.45 7.4 L10.75 5.55 10.6 7.2 10.5 8.85 Q12.1 7.85 12.95 6.6 L12.8 8.85 12.2 11.0 Q13.85 9.85 15.2 8.05 16.7 6.15 17.15 4.3 L17.1 7.55 Q18.15 5.85 18.45 3.4 L18.6 -1.1 19.2 0.35 Q19.75 -0.25 19.45 -1.75 L18.65 -3.95 M-9.95 0.4 L-10.75 -1.3 Q-10.7 -1.9 -10.95 -2.85 L-9.9 -2.9 Q-9.45 -1.65 -9.95 0.4" fill="#362835" fill-rule="evenodd" stroke="none"/>
      <path d="M15.0 -16.55 L15.0 -16.5 15.55 -16.0 16.8 -14.25 17.45 -13.35 17.5 -13.3 18.0 -12.65 16.4 -12.4 15.5 -11.1 15.55 -10.8 15.6 -10.7 14.05 -10.95 11.1 -11.4 11.35 -11.25 12.6 -9.85 Q14.25 -7.75 14.3 -5.25 L14.35 -3.8 Q14.0 -4.8 13.25 -5.5 12.5 -6.25 11.6 -6.5 L2.7 -2.4 Q3.95 0.35 6.8 1.55 9.25 2.6 12.4 2.4 11.3 2.45 8.85 1.15 12.65 1.15 14.0 -0.75 L14.2 -1.1 14.0 -0.25 13.15 1.1 12.05 2.25 14.95 2.4 Q12.35 3.8 8.3 2.8 L6.05 2.0 Q4.1 1.2 2.95 -0.15 2.3 -0.9 1.85 -2.2 L1.0 -4.4 1.05 -4.55 1.25 -4.85 4.4 -10.35 Q4.65 -11.6 6.55 -12.0 L10.0 -11.9 9.8 -12.05 6.35 -17.7 5.6 -18.85 4.8 -19.95 Q6.8 -19.2 7.6 -18.5 L6.75 -19.9 5.6 -21.05 Q8.65 -20.5 11.9 -18.6 13.3 -17.85 15.0 -16.55 M21.55 -0.65 L22.35 1.35 20.55 -0.4 20.6 -0.9 21.55 -0.65 M20.5 0.15 L20.6 1.45 20.4 3.2 19.95 4.8 19.4 2.65 19.25 4.4 19.25 4.2 19.35 1.3 20.05 2.45 Q20.45 1.55 20.5 0.3 L20.5 0.15 M18.75 7.8 Q18.0 11.15 16.6 13.7 14.9 16.8 12.95 18.8 L11.3 20.15 11.75 18.9 8.2 21.95 5.45 24.2 4.0 25.3 4.1 24.85 Q2.4 25.45 1.35 26.65 L0.1 28.3 -0.05 28.15 -0.2 28.3 -1.5 26.7 -2.8 25.7 -4.15 25.3 -4.1 25.5 -4.75 25.05 -6.25 24.3 -6.65 24.1 Q-6.8 22.25 -6.55 20.25 L-6.8 21.1 Q-7.2 22.1 -7.65 22.3 L-9.0 22.4 -9.1 22.4 -9.5 22.1 -10.55 21.2 -11.55 20.2 -11.4 20.65 -13.0 19.4 Q-14.95 17.5 -16.6 14.55 -17.9 12.25 -18.6 9.45 L-19.9 5.95 -19.95 5.7 -19.8 5.9 -19.2 6.75 -19.15 6.9 -18.95 7.2 -17.7 8.65 -17.85 6.05 -16.95 7.7 Q-16.35 3.9 -16.5 2.8 -16.55 2.3 -17.0 1.7 L-18.0 0.05 -18.05 -0.05 -17.1 0.9 Q-14.95 2.4 -12.85 1.6 -10.9 0.8 -10.75 -1.3 L-9.95 0.4 Q-8.3 3.65 -7.65 6.1 L-7.1 8.25 Q-6.6 10.65 -6.55 11.9 L-6.25 15.65 -6.2 16.75 -6.25 18.8 -6.35 19.35 -6.25 18.95 -4.15 15.2 -3.7 14.75 1.75 -0.3 3.9 1.9 Q5.2 3.2 5.8 4.4 L7.25 7.45 Q7.7 8.95 7.7 10.85 7.75 12.85 7.3 14.25 L8.9 11.85 Q8.9 13.95 8.7 14.5 9.95 14.2 10.75 12.85 10.7 14.05 9.25 15.95 10.9 15.7 12.35 13.95 L14.45 10.7 12.9 15.45 Q14.5 15.15 16.2 12.85 17.45 11.1 18.35 8.9 L18.75 7.8 M-6.85 -5.9 L-6.35 -7.95 Q-6.25 -8.7 -6.8 -9.7 L-7.7 -11.4 -6.1 -9.75 -6.2 -13.65 Q-5.7 -13.2 -5.3 -11.95 -4.6 -14.65 -3.05 -17.9 L-3.25 -13.15 -1.85 -14.4 -0.45 -15.6 -1.75 -13.55 Q-2.6 -12.25 -2.45 -11.25 -1.9 -11.3 -1.0 -11.95 L-1.5 -10.1 -1.85 -8.2 -1.9 -6.7 -2.0 -5.2 -2.1 -4.8 Q-2.55 -3.6 -3.3 -3.15 L-5.5 -3.1 Q-6.7 -3.7 -7.0 -5.3 L-6.85 -5.9" fill="#251b23" fill-rule="evenodd" stroke="none"/>
      <path d="M14.2 -1.1 L14.0 -0.75 Q12.65 1.15 8.85 1.15 11.3 2.45 12.4 2.4 9.25 2.6 6.8 1.55 3.95 0.35 2.7 -2.4 L11.6 -6.5 Q12.5 -6.25 13.25 -5.5 14.0 -4.8 14.35 -3.8 14.85 -2.3 14.2 -1.1 M-10.75 -1.3 Q-10.9 0.8 -12.85 1.6 -14.95 2.4 -17.1 0.9 L-18.05 -0.05 -18.85 -1.5 Q-19.4 -3.25 -18.8 -4.75 L-12.55 -5.0 -12.2 -5.05 Q-11.25 -4.0 -10.95 -2.85 -10.7 -1.9 -10.75 -1.3" fill="#090509" fill-rule="evenodd" stroke="none"/>
    </g>
    <g id="shape2" transform="matrix(1.0, 0.0, 0.0, 1.0, 4.9, 4.95)">
      <path d="M1.35 8.85 Q-0.75 9.65 -2.9 8.15 L-3.85 7.2 -4.65 5.75 Q-5.2 4.0 -4.6 2.5 -3.4 -1.1 1.65 2.25 L2.0 2.2 Q2.95 3.25 3.25 4.4 L3.45 5.95 Q3.3 8.05 1.35 8.85" fill="#090509" fill-rule="evenodd" stroke="none"/>
      <path d="M0.45 -4.45 Q1.7 -3.75 2.95 -2.15 4.25 -0.4 4.2 0.65 4.15 1.95 3.6 3.1 2.9 4.45 1.8 4.7 0.05 5.1 -1.45 4.65 -3.6 4.05 -4.0 1.95 -4.55 -1.0 -3.5 -3.25 -2.25 -5.85 0.45 -4.45" fill="url(#gradient1)" fill-rule="evenodd" stroke="none"/>
      <path d="M-3.05 0.3 L-2.9 -0.45 -2.45 -0.8 Q-1.85 -0.9 -1.75 0.15 -1.75 1.2 -2.35 1.3 -2.6 1.35 -2.85 1.05 L-3.05 0.3" fill="#090509" fill-rule="evenodd" stroke="none"/>
    </g>
    <radialGradient cx="0" cy="0" gradientTransform="matrix(0.0058, 0.0067, -0.0064, 0.0061, -1.35, -0.75)" gradientUnits="userSpaceOnUse" id="gradient1" r="819.2" spreadMethod="pad">
      <stop offset="0.0" stop-color="#faeed0"/>
      <stop offset="1.0" stop-color="#6a310e"/>
    </radialGradient>
    <g id="shape3" transform="matrix(1.0, 0.0, 0.0, 1.0, 8.15, 5.65)">
      <path d="M3.15 -3.5 L4.05 -2.5 Q2.3 -4.0 0.45 -4.3 -2.95 -4.8 -4.85 -3.8 L-3.0 -3.8 -5.1 -3.05 -3.45 -2.95 Q-6.0 -2.55 -7.15 -1.95 L-7.65 -1.85 -8.15 -1.75 -7.7 -2.2 -6.0 -3.5 -5.65 -3.9 Q-5.0 -4.4 -3.55 -5.0 -1.1 -6.0 0.35 -5.45 L2.3 -4.3 3.15 -3.5" fill="#554254" fill-rule="evenodd" stroke="none"/>
      <path d="M7.7 3.35 Q7.1 2.2 6.2 1.3 5.25 0.25 4.6 0.25 4.85 1.05 4.6 1.65 L0.45 -2.95 1.1 -1.7 Q1.45 -0.95 1.4 -0.35 -0.6 -2.45 -2.5 -2.9 -1.6 -1.7 -1.5 -0.95 -2.9 -1.85 -4.25 -2.15 -6.05 -2.55 -7.15 -1.8 L-7.1 -1.95 -7.65 -1.85 -7.15 -1.95 Q-6.0 -2.55 -3.45 -2.95 L-5.1 -3.05 -3.0 -3.8 -4.85 -3.8 Q-2.95 -4.8 0.45 -4.3 2.3 -4.0 4.05 -2.5 L3.15 -3.5 5.85 -0.1 Q8.75 4.3 8.0 4.7 8.2 4.5 7.75 3.35 L7.7 3.35 M-7.65 -0.55 L-7.45 -0.7 -7.15 -0.85 -7.65 -0.55" fill="#483648" fill-rule="evenodd" stroke="none"/>
      <path d="M-7.15 -1.8 Q-6.05 -2.55 -4.25 -2.15 -2.9 -1.85 -1.5 -0.95 -1.6 -1.7 -2.5 -2.9 -0.6 -2.45 1.4 -0.35 1.45 -0.95 1.1 -1.7 L0.45 -2.95 4.6 1.65 Q4.85 1.05 4.6 0.25 5.25 0.25 6.2 1.3 7.1 2.2 7.7 3.35 L7.05 3.1 6.25 2.5 Q5.75 2.15 5.3 2.2 L5.3 3.1 5.15 4.0 Q4.3 3.5 2.55 1.4 L2.8 2.55 Q2.8 3.05 2.1 3.2 L0.65 2.95 -0.6 2.1 -3.65 -0.25 Q-5.55 -1.45 -7.4 -0.95 L-7.45 -0.7 -7.65 -0.55 -7.15 -1.8" fill="#362835" fill-rule="evenodd" stroke="none"/>
      <path d="M7.7 3.35 L7.75 3.35 Q8.2 4.5 8.0 4.7 L7.9 4.7 4.9 5.65 Q2.15 5.9 -1.1 3.3 L-5.85 -0.65 -6.45 -0.9 -6.55 -0.95 -6.8 -0.95 -7.15 -0.85 -7.45 -0.7 -7.4 -0.95 Q-5.55 -1.45 -3.65 -0.25 L-0.6 2.1 0.65 2.95 2.1 3.2 Q2.8 3.05 2.8 2.55 L2.55 1.4 Q4.3 3.5 5.15 4.0 L5.3 3.1 5.3 2.2 Q5.75 2.15 6.25 2.5 L7.05 3.1 7.7 3.35" fill="#251b23" fill-rule="evenodd" stroke="none"/>
    </g>
    <g id="shape4" transform="matrix(1.0, 0.0, 0.0, 1.0, 6.3, 6.75)">
      <path d="M6.9 4.35 L6.7 5.2 5.85 6.55 4.75 7.7 7.65 7.85 Q5.05 9.25 1.0 8.25 L-1.25 7.45 Q-3.2 6.65 -4.35 5.3 -5.0 4.55 -5.45 3.25 L-6.3 1.05 -6.25 0.9 -6.05 0.6 -2.9 -4.9 Q-2.65 -6.15 -0.75 -6.55 L2.7 -6.45 3.3 -6.15 5.3 -4.4 Q6.95 -2.3 7.0 0.2 L7.05 1.65 Q6.7 0.65 5.95 -0.05 5.2 -0.8 4.3 -1.05 L-4.6 3.05 Q-3.35 5.8 -0.5 7.0 1.95 8.05 5.1 7.85 4.0 7.9 1.55 6.6 5.35 6.6 6.7 4.7 L6.9 4.35" fill="#251b23" fill-rule="evenodd" stroke="none"/>
      <path d="M7.05 1.65 Q7.55 3.15 6.9 4.35 L6.7 4.7 Q5.35 6.6 1.55 6.6 4.0 7.9 5.1 7.85 1.95 8.05 -0.5 7.0 -3.35 5.8 -4.6 3.05 L4.3 -1.05 Q5.2 -0.8 5.95 -0.05 6.7 0.65 7.05 1.65" fill="#090509" fill-rule="evenodd" stroke="none"/>
      <path d="M-0.7 -4.7 Q2.4 -6.35 4.0 -3.55 5.35 -1.2 4.85 1.95 4.45 4.2 1.95 4.95 L-1.95 5.15 Q-3.3 4.9 -4.15 3.5 -4.85 2.3 -5.0 0.9 -5.1 -0.25 -3.6 -2.15 -2.15 -3.95 -0.7 -4.7" fill="url(#gradient2)" fill-rule="evenodd" stroke="none"/>
      <path d="M2.15 -0.1 Q2.15 -1.25 3.0 -1.35 3.4 -1.4 3.65 -1.1 L3.95 -0.3 3.75 0.55 3.15 0.95 Q2.8 1.0 2.5 0.65 L2.15 -0.1" fill="#090509" fill-rule="evenodd" stroke="none"/>
    </g>
    <radialGradient cx="0" cy="0" gradientTransform="matrix(-0.0066, 0.0074, 0.0078, 0.0063, 1.55, -0.8)" gradientUnits="userSpaceOnUse" id="gradient2" r="819.2" spreadMethod="pad">
      <stop offset="0.0" stop-color="#faeed0"/>
      <stop offset="1.0" stop-color="#6a310e"/>
    </radialGradient>
    <g id="shape5" transform="matrix(1.0, 0.0, 0.0, 1.0, 10.2, 6.45)">
      <path d="M-7.55 0.1 L-7.3 -0.15 -6.7 -0.85 -6.65 -0.95 -5.0 -2.65 -4.2 -3.4 -3.4 -4.1 -2.65 -4.65 -0.75 -5.85 Q0.1 -6.3 0.85 -6.4 L1.05 -6.4 2.6 -6.35 2.55 -6.3 1.4 -5.8 -2.55 -3.35 -5.05 -1.25 -6.25 -0.55 -7.55 0.1" fill="#554254" fill-rule="evenodd" stroke="none"/>
      <path d="M-10.05 4.0 L-9.0 2.05 -6.85 1.85 Q-5.45 1.45 -5.05 0.9 -5.7 1.85 -5.65 2.9 L-1.2 -0.35 Q1.1 -1.7 3.05 -1.75 L1.25 -2.0 Q2.4 -2.95 5.0 -2.95 L1.1 -3.4 Q2.95 -5.0 6.1 -4.6 L7.1 -3.85 Q6.95 -3.6 7.1 -3.2 L7.35 -2.3 Q7.35 -1.55 6.95 -0.85 6.5 -0.15 5.75 0.2 L2.3 1.1 Q0.1 1.65 -0.9 2.7 L3.15 1.35 Q1.2 3.7 -4.1 4.9 -5.0 5.1 -6.9 4.9 -9.15 4.65 -10.05 4.0" fill="#362835" fill-rule="evenodd" stroke="none"/>
      <path d="M2.55 -6.3 Q3.85 -6.05 5.35 -5.1 8.0 -3.5 8.0 -2.8 L7.1 -3.85 6.1 -4.6 Q2.95 -5.0 1.1 -3.4 L5.0 -2.95 Q2.4 -2.95 1.25 -2.0 L3.05 -1.75 Q1.1 -1.7 -1.2 -0.35 L-5.65 2.9 Q-5.7 1.85 -5.05 0.9 -5.45 1.45 -6.85 1.85 L-9.0 2.05 -10.05 4.0 -10.05 4.45 Q-10.75 3.8 -7.55 0.1 L-6.25 -0.55 -5.05 -1.25 -2.55 -3.35 1.4 -5.8 2.55 -6.3" fill="#483648" fill-rule="evenodd" stroke="none"/>
      <path d="M8.0 -2.8 L9.85 -0.85 10.25 -0.25 9.05 -0.7 9.45 1.1 8.85 0.6 7.35 0.65 1.0 4.55 Q-3.3 7.05 -6.6 6.25 L-9.95 4.5 -10.05 4.45 -10.05 4.0 Q-9.15 4.65 -6.9 4.9 -5.0 5.1 -4.1 4.9 1.2 3.7 3.15 1.35 L-0.9 2.7 Q0.1 1.65 2.3 1.1 L5.75 0.2 Q6.5 -0.15 6.95 -0.85 7.35 -1.55 7.35 -2.3 L7.1 -3.2 Q6.95 -3.6 7.1 -3.85 L8.0 -2.8" fill="#251b23" fill-rule="evenodd" stroke="none"/>
    </g>
    <g id="shape6" transform="matrix(1.0, 0.0, 0.0, 1.0, 7.55, 10.9)">
      <path d="M2.95 -10.75 L3.25 -10.7 3.85 -10.55 5.15 -10.05 5.55 -9.8 6.55 -8.95 6.55 -8.9 6.55 -8.7 5.85 -8.55 6.1 -7.4 Q6.15 -5.6 4.95 -2.65 L3.0 2.35 Q2.25 3.9 0.55 5.2 L-4.55 8.95 -5.6 6.2 Q-6.6 2.8 -6.5 -0.35 -6.45 -1.95 -6.85 -2.8 L-7.3 -1.15 -7.3 -1.3 -6.9 -2.7 -5.1 -7.05 -5.0 -7.25 -4.75 -7.65 Q-3.25 -10.5 -2.15 -10.65 L1.9 -10.85 2.95 -10.75" fill="url(#gradient3)" fill-rule="evenodd" stroke="none"/>
      <path d="M-7.3 -1.15 L-6.85 -2.8 Q-6.45 -1.95 -6.5 -0.35 -6.6 2.8 -5.6 6.2 L-4.55 8.95 0.55 5.2 Q2.25 3.9 3.0 2.35 L4.95 -2.65 Q6.15 -5.6 6.1 -7.4 L5.85 -8.55 6.55 -8.7 6.65 -8.75 6.95 -8.35 7.4 -7.45 6.1 -2.6 Q4.9 1.55 2.9 4.4 L0.0 7.6 -2.6 9.6 -3.1 9.9 -3.2 9.95 -4.55 10.6 -5.35 10.85 -5.7 9.9 -5.8 9.45 -6.25 7.75 -7.2 4.3 Q-7.8 1.25 -7.35 -0.95 L-7.3 -1.15" fill="#504a46" fill-rule="evenodd" stroke="none"/>
      <path d="M2.95 -10.75 L1.9 -10.85 -2.15 -10.65 2.25 -10.85 2.95 -10.75 M6.55 -8.7 L6.55 -8.9 6.95 -8.35 Q7.7 -7.3 7.55 -6.3 7.45 -4.9 6.45 -1.65 5.05 2.75 3.1 5.25 1.2 7.65 -2.0 9.4 L-3.1 9.9 -2.6 9.6 0.0 7.6 2.9 4.4 Q4.9 1.55 6.1 -2.6 L7.4 -7.45 6.95 -8.35 6.65 -8.75 6.55 -8.7 M-4.55 10.6 L-5.1 10.9 -5.35 10.85 -4.55 10.6" fill="#403c38" fill-rule="evenodd" stroke="none"/>
    </g>
    <radialGradient cx="0" cy="0" gradientTransform="matrix(0.0222, 2.0E-4, 2.0E-4, -0.0241, -0.1, 13.55)" gradientUnits="userSpaceOnUse" id="gradient3" r="819.2" spreadMethod="pad">
      <stop offset="0.0" stop-color="#522818"/>
      <stop offset="1.0" stop-color="#160706"/>
    </radialGradient>
    <g id="shape7" transform="matrix(1.0, 0.0, 0.0, 1.0, 10.05, 14.5)">
      <path d="M-0.95 -14.15 L0.45 -14.5 Q1.85 -14.35 3.85 -12.4 5.65 -10.65 6.6 -8.8 7.1 -7.8 8.7 -5.45 L10.0 -2.95 Q10.1 -2.3 9.25 -2.5 L7.55 -2.95 Q5.45 -3.25 0.95 0.1 -1.5 1.9 -4.75 8.4 L-7.5 14.55 -7.8 10.65 Q-6.55 -2.2 -4.45 -7.6 L-2.35 -12.6 -0.95 -14.15 M1.2 -9.15 L1.2 -9.2 1.35 -9.8 1.35 -10.0 1.4 -10.2 1.4 -10.4 1.45 -10.55 1.45 -11.2 1.4 -11.4 1.4 -11.5 1.35 -11.7 1.25 -11.9 1.1 -12.0 1.05 -12.05 0.85 -12.0 0.8 -12.0 0.6 -11.9 0.5 -11.8 0.25 -11.6 0.15 -11.5 -0.05 -11.25 -0.2 -11.1 -0.2 -11.05 -0.25 -11.0 -1.0 -9.4 Q-1.35 -8.2 -0.75 -7.75 L0.35 -7.45 Q0.85 -7.35 1.2 -9.15 M0.9 -6.75 Q1.7 -7.2 1.75 -9.75 1.3 -7.45 0.65 -7.3 L0.0 -7.2 0.15 -6.8 0.9 -6.75 M0.25 -6.6 L0.3 -6.35 Q0.4 -6.1 0.85 -6.0 1.55 -5.85 2.15 -8.05 L1.95 -9.5 1.5 -7.4 Q1.1 -6.2 0.25 -6.6 M2.3 -4.7 Q4.15 -5.55 5.35 -5.35 6.7 -5.15 6.75 -5.7 6.8 -6.3 5.7 -6.85 L4.05 -6.7 Q2.95 -6.25 2.0 -5.2 L0.7 -3.8 2.3 -4.7 M-1.2 -10.0 L-1.1 -10.4 -0.6 -11.35 Q0.15 -12.45 0.9 -12.65 0.1 -12.75 -0.5 -12.0 L-1.2 -10.6 -1.2 -10.0" fill="#403c38" fill-rule="evenodd" stroke="none"/>
      <path d="M-0.25 -11.0 L-0.2 -11.05 -0.2 -11.1 -0.05 -11.25 0.15 -11.5 0.25 -11.6 0.5 -11.8 0.6 -11.9 0.8 -12.0 0.85 -12.0 1.05 -12.05 1.1 -12.0 1.25 -11.9 1.35 -11.7 1.4 -11.5 1.4 -11.4 1.45 -11.2 1.45 -10.55 1.4 -10.4 1.4 -10.2 1.35 -10.0 1.35 -9.8 1.2 -9.2 1.2 -9.15 0.35 -9.05 Q-0.2 -9.35 -0.35 -9.6 -0.65 -10.05 -0.25 -11.0" fill="#151015" fill-rule="evenodd" stroke="none"/>
      <path d="M-0.25 -11.0 Q-0.65 -10.05 -0.35 -9.6 -0.2 -9.35 0.35 -9.05 L1.2 -9.15 Q0.85 -7.35 0.35 -7.45 L-0.75 -7.75 Q-1.35 -8.2 -1.0 -9.4 L-0.25 -11.0 M0.25 -6.6 Q1.1 -6.2 1.5 -7.4 L1.95 -9.5 2.15 -8.05 Q1.55 -5.85 0.85 -6.0 0.4 -6.1 0.3 -6.35 L0.25 -6.6" fill="#2f2d29" fill-rule="evenodd" stroke="none"/>
      <path d="M-7.5 14.55 Q-8.2 12.4 -8.45 9.75 L-9.05 5.7 -9.4 2.1 -9.8 -0.25 Q-10.15 -1.5 -10.0 -2.55 -9.3 -7.0 -6.1 -10.4 -4.2 -12.45 -2.2 -13.6 L-1.4 -13.95 -1.05 -14.1 -0.9 -14.2 -0.95 -14.15 -2.35 -12.6 -2.25 -12.85 Q-3.8 -10.95 -5.1 -7.5 L-5.4 -6.55 -6.85 0.0 Q-7.9 5.8 -7.9 8.6 L-7.9 12.1 -7.8 10.65 -7.5 14.55 M0.9 -6.75 L0.15 -6.8 0.0 -7.2 0.65 -7.3 Q1.3 -7.45 1.75 -9.75 1.7 -7.2 0.9 -6.75 M2.3 -4.7 L0.7 -3.8 2.0 -5.2 Q2.95 -6.25 4.05 -6.7 L5.7 -6.85 Q6.8 -6.3 6.75 -5.7 6.7 -5.15 5.35 -5.35 4.15 -5.55 2.3 -4.7 M-1.2 -10.0 L-1.2 -10.6 -0.5 -12.0 Q0.1 -12.75 0.9 -12.65 0.15 -12.45 -0.6 -11.35 L-1.1 -10.4 -1.2 -10.0" fill="#5e5852" fill-rule="evenodd" stroke="none"/>
      <path d="M-2.35 -12.6 L-4.45 -7.6 Q-6.55 -2.2 -7.8 10.65 L-7.9 12.1 -7.9 8.6 Q-7.9 5.8 -6.85 0.0 L-5.4 -6.55 -5.1 -7.5 Q-3.8 -10.95 -2.25 -12.85 L-2.35 -12.6" fill="#817870" fill-rule="evenodd" stroke="none"/>
    </g>
  </defs>
</svg>
