<?xml version="1.0" encoding="UTF-8" standalone="no"?>
<svg xmlns:xlink="http://www.w3.org/1999/xlink" height="471.8px" width="343.45px" xmlns="http://www.w3.org/2000/svg">
  <g transform="matrix(1.0, 0.0, 0.0, 1.0, 0.0, 0.0)">
    <use height="471.8" transform="matrix(1.0, 0.0, 0.0, 1.0, 0.0, 0.0)" width="343.45" xlink:href="#shape0"/>
  </g>
  <defs>
    <g id="shape0" transform="matrix(1.0, 0.0, 0.0, 1.0, 0.0, 0.0)">
      <path d="M220.35 186.3 Q206.8 199.3 197.25 214.3 166.75 262.3 188.0 312.3 201.8 344.95 241.05 382.9 270.35 411.2 311.5 440.4 L311.75 440.55 Q327.75 452.85 334.8 458.85 345.35 467.9 343.0 468.55 L336.05 468.2 331.75 467.05 329.0 471.8 320.85 469.7 Q311.55 467.75 305.75 468.55 299.9 469.35 283.9 468.25 L265.0 466.4 Q255.2 465.15 249.25 463.8 240.2 461.75 229.05 465.7 225.6 466.95 222.3 468.6 220.7 469.45 219.75 470.05 L199.75 465.55 177.5 470.05 Q125.25 459.55 106.5 456.8 100.4 455.9 89.85 457.85 L69.95 462.25 Q43.5 468.4 32.5 464.55 21.3 460.65 28.25 448.2 33.1 439.5 45.95 427.85 74.7 404.3 84.0 390.3 96.5 371.55 82.5 323.05 78.15 307.9 71.65 291.6 L66.0 278.3 Q72.0 262.8 77.75 239.05 89.25 191.55 88.0 150.3 87.0 117.85 69.4 84.05 L62.65 95.65 Q51.65 106.0 44.0 111.0 L43.45 111.35 42.25 112.4 40.7 114.15 40.65 114.25 40.35 114.65 Q39.05 116.35 37.15 119.55 L36.1 121.4 36.1 121.45 35.1 123.3 35.1 123.4 34.15 125.3 33.25 127.2 29.1 137.1 27.7 140.9 27.65 140.95 Q34.35 115.9 36.0 112.65 37.2 110.25 43.65 101.95 49.85 93.95 54.3 89.0 58.4 84.4 61.5 70.15 55.7 60.85 49.1 52.15 41.0 67.8 35.65 71.3 29.0 75.65 20.0 80.3 L6.3 108.0 0.3 128.65 0.0 113.3 10.65 79.0 Q13.75 78.0 17.6 75.5 25.35 70.5 29.3 63.0 33.25 55.5 33.05 43.15 L32.0 32.3 114.0 24.3 107.1 37.0 108.0 35.65 116.5 37.1 Q125.8 38.35 130.0 37.3 134.15 36.25 138.65 27.05 140.9 22.4 142.3 18.0 L170.0 0.0 147.0 21.3 Q145.9 26.9 143.75 33.0 139.4 45.3 134.0 48.0 129.2 50.4 116.7 49.95 L100.75 48.55 90.0 68.3 130.0 122.3 128.0 180.3 232.0 176.3 Q227.15 179.8 220.35 186.3" fill="#8fb0a4" fill-rule="evenodd" stroke="none"/>
      <path d="M32.0 32.3 L114.0 24.3 66.0 35.65 82.0 71.65 104.0 149.65 117.3 123.65 115.3 221.0 168.0 200.3 134.65 285.65 163.3 265.0 161.3 367.65 183.3 361.65 181.7 366.35 Q179.95 372.2 179.4 378.15 177.55 397.15 188.0 409.65 196.05 419.3 229.8 438.95 252.7 452.3 283.9 468.25 L265.0 466.4 Q255.2 465.15 249.25 463.8 240.2 461.75 229.05 465.7 225.6 466.95 222.3 468.6 220.7 469.45 219.75 470.05 L199.75 465.55 177.75 470.0 Q165.1 457.25 158.0 443.0 150.95 428.95 154.65 407.5 155.85 400.8 157.95 394.05 L159.95 388.35 111.3 409.65 145.3 315.0 106.65 364.3 96.65 277.65 116.0 287.0 121.3 239.0 131.3 251.65 148.65 219.0 98.65 235.0 112.0 151.0 95.3 167.65 Q94.3 156.0 92.55 141.75 89.05 113.25 85.3 100.3 81.55 87.4 75.4 73.55 L70.0 62.3 66.25 75.4 Q61.75 89.25 58.0 93.0 L40.0 111.0 35.1 123.3 35.1 123.4 34.15 125.3 33.25 127.2 29.1 137.1 27.7 140.9 27.65 140.95 Q34.35 115.9 36.0 112.65 37.2 110.25 43.65 101.95 49.85 93.95 54.3 89.0 58.4 84.4 61.5 70.15 55.7 60.85 49.1 52.15 41.0 67.8 35.65 71.3 29.0 75.65 20.0 80.3 L6.3 108.0 0.3 128.65 0.0 113.3 10.65 79.0 Q13.75 78.0 17.6 75.5 25.35 70.5 29.3 63.0 33.25 55.5 33.05 43.15 L32.0 32.3" fill="#74a090" fill-rule="evenodd" stroke="none"/>
      <path d="M75.4 73.55 Q81.55 87.4 85.3 100.3 89.05 113.25 92.55 141.75 94.3 156.0 95.3 167.65 L112.0 151.0 98.65 235.0 148.65 219.0 131.3 251.65 121.3 239.0 116.0 287.0 96.65 277.65 106.65 364.3 145.3 315.0 111.3 409.65 159.95 388.35 157.95 394.05 Q155.85 400.8 154.65 407.5 150.95 428.95 158.0 443.0 165.1 457.25 177.75 470.0 L177.5 470.05 Q125.25 459.55 106.5 456.8 100.4 455.9 89.85 457.85 L69.95 462.25 Q43.5 468.4 32.5 464.55 21.3 460.65 28.25 448.2 33.1 439.5 45.95 427.85 74.7 404.3 84.0 390.3 96.5 371.55 82.5 323.05 78.15 307.9 71.65 291.6 L66.0 278.3 Q72.0 262.8 77.75 239.05 89.25 191.55 88.0 150.3 87.0 117.85 69.4 84.05 L62.65 95.65 Q51.65 106.0 44.0 111.0 L43.45 111.35 42.25 112.4 40.7 114.15 40.65 114.25 40.35 114.65 Q39.05 116.35 37.15 119.55 L36.1 121.4 36.1 121.45 35.1 123.3 40.0 111.0 58.0 93.0 Q61.75 89.25 66.25 75.4 L70.0 62.3 75.4 73.55" fill="#668d7f" fill-rule="evenodd" stroke="none"/>
      <path d="M93.3 86.0 L96.25 92.25 Q99.75 99.9 102.3 106.45 110.4 127.55 106.0 130.65 101.65 133.8 97.05 110.2 L93.3 86.0" fill="#74a090" fill-rule="evenodd" stroke="none"/>
      <path d="M153.65 262.65 Q145.3 263.7 160.45 233.6 165.2 224.15 171.75 212.8 L177.3 203.3 175.5 212.35 Q173.1 223.25 170.5 232.35 162.0 261.6 153.65 262.65" fill="#74a090" fill-rule="evenodd" stroke="none"/>
      <path d="M198.4 393.5 Q193.9 384.6 194.6 378.45 195.35 371.8 202.0 370.65 218.45 367.75 247.0 399.6 261.3 415.5 272.3 432.0 265.65 424.25 257.9 417.4 242.4 403.75 237.0 408.3 231.55 412.9 262.05 437.4 277.3 449.65 293.65 461.0 284.5 455.5 271.85 448.2 246.6 433.6 229.3 424.65 219.35 419.5 210.8 410.6 202.85 402.4 198.4 393.5" fill="#74a090" fill-rule="evenodd" stroke="none"/>
      <path d="M174.5 303.8 L176.25 311.9 Q178.15 321.65 179.05 329.75 181.95 355.6 173.5 355.3 165.05 355.0 168.95 329.35 170.15 321.4 172.45 311.8 L174.5 303.8" fill="#74a090" fill-rule="evenodd" stroke="none"/>
      <path d="M136.0 192.3 L149.5 183.8 212.5 182.8 152.5 189.3 121.5 212.3 121.0 193.3 136.0 192.3" fill="#74a090" fill-rule="evenodd" stroke="none"/>
      <path d="M219.0 180.35 L159.0 181.0 228.0 177.35 213.65 190.0 219.0 180.35" fill="#a1c6ba" fill-rule="evenodd" stroke="none"/>
      <path d="M182.5 198.7 Q183.8 203.75 184.5 208.95 186.65 225.55 181.65 237.0 176.65 248.45 169.35 254.85 165.65 258.1 163.0 259.0 166.1 254.15 169.55 247.35 176.55 233.8 178.65 224.0 180.75 214.2 181.25 203.45 L181.3 194.65 182.5 198.7" fill="#a1c6ba" fill-rule="evenodd" stroke="none"/>
      <path d="M193.0 359.35 L194.25 358.75 Q195.85 358.15 197.9 357.95 204.4 357.4 212.3 361.35 220.25 365.3 227.05 372.35 230.5 375.9 232.3 378.65 228.3 375.4 222.95 372.05 212.3 365.4 205.65 365.0 197.7 364.5 194.7 363.15 191.7 361.85 193.0 359.35" fill="#a1c6ba" fill-rule="evenodd" stroke="none"/>
      <path d="M180.6 304.6 Q191.2 332.75 191.0 340.65 190.8 348.6 184.5 354.9 181.4 358.1 178.3 359.65 179.25 358.85 180.35 355.95 182.6 350.2 183.65 340.0 184.7 329.8 177.45 302.85 L170.0 278.0 180.6 304.6" fill="#a1c6ba" fill-rule="evenodd" stroke="none"/>
      <path d="M304.3 451.65 Q298.05 446.05 287.25 433.95 L277.65 423.0 340.65 465.0 Q330.65 460.65 325.3 459.65 322.0 459.05 323.15 463.65 323.75 465.95 325.0 468.35 314.3 460.65 304.3 451.65" fill="#a1c6ba" fill-rule="evenodd" stroke="none"/>
      <path d="M127.65 125.0 L121.3 180.35 122.0 124.35 89.65 75.0 127.65 125.0" fill="#a1c6ba" fill-rule="evenodd" stroke="none"/>
      <path d="M82.0 36.0 L107.3 27.65 104.0 33.35 82.0 36.0" fill="#a1c6ba" fill-rule="evenodd" stroke="none"/>
      <path d="M42.35 48.45 L43.65 39.3 52.3 38.0 63.3 52.3 61.5 70.15 Q55.7 60.85 49.1 52.15 41.0 67.8 35.65 71.35 28.95 75.65 20.0 80.35 L6.3 108.0 0.3 128.65 0.3 127.85 2.65 112.0 14.0 81.0 21.5 76.05 Q30.0 69.95 35.0 64.3 40.0 58.7 42.35 48.45" fill="#668d7f" fill-rule="evenodd" stroke="none"/>
      <path d="M135.65 40.65 Q140.2 38.15 142.7 28.5 143.95 23.65 144.3 19.3 L170.0 0.0 147.0 21.35 Q145.9 26.95 143.75 33.05 139.4 45.3 134.0 48.0 129.2 50.4 116.7 49.95 L100.75 48.55 93.3 42.0 99.3 40.3 114.7 42.0 Q131.05 43.15 135.65 40.65" fill="#668d7f" fill-rule="evenodd" stroke="none"/>
    </g>
  </defs>
</svg>
