<?xml version="1.0" encoding="UTF-8" standalone="no"?>
<svg xmlns:xlink="http://www.w3.org/1999/xlink" height="117.2px" width="110.55px" xmlns="http://www.w3.org/2000/svg">
  <g transform="matrix(1.0, 0.0, 0.0, 1.0, 0.0, 0.0)">
    <use height="117.2" transform="matrix(1.0, 0.0, 0.0, 1.0, 0.0, 0.0)" width="110.55" xlink:href="#shape0"/>
  </g>
  <defs>
    <g id="shape0" transform="matrix(1.0, 0.0, 0.0, 1.0, 0.0, 0.0)">
      <path d="M23.8 28.1 Q32.1 41.15 45.15 57.8 L53.5 38.8 81.4 20.95 55.85 41.15 52.0 47.9 Q48.15 55.5 48.15 59.6 48.15 63.65 52.0 68.85 53.95 71.45 55.85 73.25 L76.65 53.05 110.55 48.9 76.65 56.6 66.25 67.2 Q55.65 78.4 54.7 81.55 51.35 92.7 60.7 104.9 65.35 111.0 70.7 114.85 L59.75 111.65 Q48.45 108.55 46.95 108.9 45.5 109.3 41.6 113.3 L38.05 117.2 Q38.95 115.6 39.15 113.9 39.6 110.5 36.25 110.1 32.9 109.75 25.9 111.95 22.45 113.05 19.6 114.25 L29.1 108.15 Q39.8 100.75 45.75 94.05 51.7 87.35 46.4 70.45 44.7 65.15 42.1 59.45 L39.85 54.85 17.25 27.5 Q18.45 26.9 0.0 31.05 L16.65 22.75 16.2 0.0 Q16.35 2.9 16.8 6.25 18.6 19.9 23.8 28.1" fill="#544f44" fill-rule="evenodd" stroke="none"/>
    </g>
  </defs>
</svg>
