<?xml version="1.0" encoding="UTF-8" standalone="no"?>
<svg xmlns:xlink="http://www.w3.org/1999/xlink" height="171.75px" width="171.75px" xmlns="http://www.w3.org/2000/svg">
  <g transform="matrix(1.0, 0.0, 0.0, 1.0, 0.0, 0.0)">
    <use height="171.75" transform="matrix(1.0, 0.0, 0.0, 1.0, 0.0, 0.0)" width="171.75" xlink:href="#shape0"/>
    <use height="128.6" transform="matrix(1.0, 0.0, 0.0, 1.0, 21.45, 19.25)" width="128.8" xlink:href="#sprite0"/>
    <use height="27.55" transform="matrix(1.0, 0.0, 0.0, 1.0, 77.05, 24.9)" width="17.6" xlink:href="#shape2"/>
    <use height="78.5" transform="matrix(1.0, 0.0, 0.0, 1.0, 46.75, 60.25)" width="73.6" xlink:href="#sprite1"/>
    <use height="78.7" transform="matrix(1.0, 0.0, 0.0, 1.0, 46.55, 59.2)" width="73.85" xlink:href="#shape4"/>
    <use height="70.85" transform="matrix(1.0, 0.0, 0.0, 1.0, 48.55, 62.85)" width="68.5" xlink:href="#sprite2"/>
    <use height="19.65" transform="matrix(1.0, 0.0, 0.0, 1.0, 42.5, 47.8)" width="86.65" xlink:href="#shape22"/>
    <use height="61.9" transform="matrix(1.0, 0.0, 0.0, 1.0, 21.55, 85.95)" width="128.6" xlink:href="#sprite13"/>
    <use height="60.45" transform="matrix(1.0, 0.0, 0.0, 1.0, 26.25, 22.25)" width="119.2" xlink:href="#sprite14"/>
    <use height="66.4" transform="matrix(1.0, 0.0, 0.0, 1.0, 26.25, 22.25)" width="119.2" xlink:href="#sprite15"/>
  </g>
  <defs>
    <g id="shape0" transform="matrix(1.0, 0.0, 0.0, 1.0, 0.0, 0.0)">
      <path d="M0.0 85.9 Q0.0 68.45 6.75 52.5 13.3 37.1 25.15 25.2 37.05 13.3 52.45 6.75 68.4 0.0 85.85 0.0 103.3 0.0 119.25 6.75 134.65 13.3 146.55 25.2 158.45 37.1 165.0 52.5 171.75 68.45 171.75 85.9 171.75 103.35 165.0 119.3 158.45 134.7 146.55 146.6 134.65 158.45 119.25 165.0 103.3 171.75 85.85 171.75 68.4 171.75 52.45 165.0 37.05 158.45 25.15 146.6 13.3 134.7 6.75 119.3 0.0 103.35 0.0 85.9" fill="#ffffff" fill-rule="evenodd" stroke="none"/>
      <path d="M57.95 19.85 Q71.3 14.2 85.85 14.2 100.4 14.2 113.75 19.85 126.6 25.3 136.55 35.2 146.45 45.15 151.9 58.0 157.55 71.35 157.55 85.9 157.55 100.45 151.9 113.8 146.45 126.65 136.55 136.6 126.6 146.5 113.75 151.95 100.4 157.6 85.85 157.6 71.3 157.6 57.95 151.95 45.1 146.5 35.15 136.6 25.25 126.65 19.8 113.8 14.15 100.45 14.15 85.9 14.15 71.35 19.8 58.0 25.25 45.15 35.15 35.2 45.1 25.3 57.95 19.85" fill="url(#gradient0)" fill-rule="evenodd" stroke="none"/>
      <path d="M34.5 34.55 Q44.8 24.3 58.05 18.8 71.3 13.3 85.85 13.3 100.4 13.3 113.65 18.8 126.95 24.3 137.2 34.55 147.5 44.85 152.95 58.1 158.45 71.35 158.45 85.9 158.45 100.45 152.95 113.7 147.5 126.95 137.2 137.25 126.95 147.55 113.65 153.0 100.4 158.5 85.85 158.5 71.3 158.5 58.05 153.0 44.8 147.55 34.5 137.25 24.2 126.95 18.75 113.7 13.25 100.45 13.25 85.9 13.25 71.35 18.75 58.1 24.25 44.85 34.5 34.55 M58.3 20.65 Q45.6 26.05 35.8 35.85 15.05 56.6 15.05 85.9 15.05 115.25 35.8 135.95 45.6 145.75 58.3 151.15 71.45 156.7 85.85 156.7 115.2 156.7 135.9 135.95 145.7 126.15 151.1 113.45 156.65 100.3 156.65 85.9 156.65 71.5 151.1 58.35 145.7 45.65 135.9 35.85 115.2 15.1 85.85 15.1 71.45 15.1 58.3 20.65" fill="#171e48" fill-rule="evenodd" stroke="none"/>
    </g>
    <linearGradient gradientTransform="matrix(0.0, -0.0875, -0.0875, 0.0, 85.85, 85.9)" gradientUnits="userSpaceOnUse" id="gradient0" spreadMethod="pad" x1="-819.2" x2="819.2">
      <stop offset="0.09803921568627451" stop-color="#253457"/>
      <stop offset="0.396078431372549" stop-color="#37568a"/>
      <stop offset="0.5529411764705883" stop-color="#3e649f"/>
      <stop offset="0.9686274509803922" stop-color="#aaa1b4"/>
    </linearGradient>
    <g id="sprite0" transform="matrix(1.0, 0.0, 0.0, 1.0, 0.0, 0.0)">
      <use height="128.6" transform="matrix(1.0, 0.0, 0.0, 1.0, 0.0, 0.0)" width="128.8" xlink:href="#shape1"/>
    </g>
    <g id="shape1" transform="matrix(1.0, 0.0, 0.0, 1.0, 0.0, 0.0)">
      <path d="M128.8 64.3 Q128.8 90.95 109.95 109.75 91.05 128.6 64.4 128.6 37.75 128.6 18.85 109.75 0.0 90.95 0.0 64.3 0.0 37.7 18.85 18.85 37.75 0.0 64.4 0.0 91.05 0.0 109.95 18.85 128.8 37.7 128.8 64.3" fill="url(#gradient1)" fill-rule="evenodd" stroke="none"/>
    </g>
    <radialGradient cx="0" cy="0" gradientTransform="matrix(0.0785, 0.0, 0.0, -0.0785, 64.4, 64.3)" gradientUnits="userSpaceOnUse" id="gradient1" r="819.2" spreadMethod="pad">
      <stop offset="0.1411764705882353" stop-color="#8ca5bb"/>
      <stop offset="0.5568627450980392" stop-color="#7082ad" stop-opacity="0.972549"/>
      <stop offset="1.0" stop-color="#5560a0" stop-opacity="0.9490196"/>
    </radialGradient>
    <g id="shape2" transform="matrix(1.0, 0.0, 0.0, 1.0, -77.05, -24.9)">
      <path d="M80.2 28.0 Q82.65 26.15 85.6 26.15 89.15 26.15 91.35 28.4 93.2 30.3 93.2 32.7 93.2 36.3 90.3 38.15 92.25 39.05 93.45 40.75 94.65 42.5 94.65 44.55 94.65 47.8 92.05 50.1 89.4 52.45 85.65 52.45 81.95 52.45 79.35 50.15 77.05 48.1 77.05 45.75 77.05 44.75 77.95 44.05 78.8 43.35 79.8 43.35 80.85 43.35 82.15 45.45 83.5 47.5 85.7 47.5 87.1 47.5 88.05 46.55 89.05 45.6 89.05 44.2 89.05 41.6 86.05 41.15 83.0 40.7 83.0 38.65 83.0 36.8 85.55 36.15 88.05 35.5 88.05 33.5 88.05 32.45 87.4 31.8 86.65 31.1 85.5 31.1 83.7 31.1 82.45 32.85 81.25 34.6 80.15 34.6 79.1 34.6 78.4 33.8 77.8 33.05 77.8 31.95 77.8 29.85 80.2 28.0" fill="#c0c3ef" fill-rule="evenodd" stroke="none"/>
      <path d="M85.6 24.9 Q89.15 24.9 91.35 27.15 93.2 29.05 93.2 31.45 93.2 35.05 90.3 36.9 92.25 37.8 93.45 39.5 94.65 41.25 94.65 43.3 94.65 46.55 92.05 48.85 89.4 51.2 85.65 51.2 81.95 51.2 79.35 48.9 77.05 46.85 77.05 44.5 77.05 43.5 77.95 42.8 78.8 42.1 79.8 42.1 80.85 42.1 82.15 44.2 83.5 46.25 85.7 46.25 87.1 46.25 88.05 45.3 89.05 44.35 89.05 42.95 89.05 40.35 86.05 39.9 83.0 39.45 83.0 37.4 83.0 35.55 85.55 34.9 88.05 34.25 88.05 32.25 88.05 31.2 87.4 30.55 86.65 29.85 85.5 29.85 83.7 29.85 82.45 31.6 81.25 33.35 80.15 33.35 79.1 33.35 78.4 32.55 77.8 31.8 77.8 30.7 77.8 28.6 80.2 26.75 82.65 24.9 85.6 24.9" fill="url(#gradient2)" fill-rule="evenodd" stroke="none"/>
    </g>
    <linearGradient gradientTransform="matrix(0.0, -0.016, -0.016, 0.0, 85.85, 38.05)" gradientUnits="userSpaceOnUse" id="gradient2" spreadMethod="pad" x1="-819.2" x2="819.2">
      <stop offset="0.2823529411764706" stop-color="#030f2c"/>
      <stop offset="0.396078431372549" stop-color="#05133d"/>
      <stop offset="0.803921568627451" stop-color="#0f1f74"/>
      <stop offset="1.0" stop-color="#142389"/>
    </linearGradient>
    <g id="sprite1" transform="matrix(1.0, 0.0, 0.0, 1.0, -0.05, 0.0)">
      <use height="78.5" transform="matrix(1.0, 0.0, 0.0, 1.0, 0.05, 0.0)" width="73.6" xlink:href="#shape3"/>
    </g>
    <g id="shape3" transform="matrix(1.0, 0.0, 0.0, 1.0, -0.05, 0.0)">
      <path d="M52.65 6.25 L52.6 5.95 50.95 6.6 52.65 6.25 M63.9 11.7 L64.1 11.8 Q65.5 12.4 66.4 13.7 68.4 15.2 68.9 17.5 L69.9 18.9 Q71.45 20.0 72.25 21.5 72.95 22.8 72.85 24.3 72.8 25.75 72.0 27.0 L72.0 27.65 Q73.05 29.4 72.95 31.65 L72.9 32.25 Q73.45 33.75 72.95 35.45 L73.0 35.5 Q74.1 37.6 73.3 39.85 L73.3 39.95 Q73.25 41.5 72.45 42.8 L72.05 44.3 72.05 44.75 72.0 45.0 71.8 46.35 71.35 47.4 Q72.0 48.85 71.75 50.45 71.5 52.0 70.45 53.25 L69.25 54.25 68.9 54.65 68.7 55.35 67.75 57.2 Q68.0 60.1 65.75 61.95 L65.4 62.2 Q66.05 65.1 64.05 67.25 62.2 69.2 59.7 68.95 L58.9 69.15 57.85 69.9 57.6 70.2 56.25 72.2 54.9 73.15 Q53.85 73.7 52.6 73.75 L52.1 73.85 51.25 74.65 Q49.45 76.0 47.1 75.85 45.75 76.2 43.8 75.9 L42.0 76.25 Q41.0 76.9 39.65 77.05 L39.45 77.05 37.7 77.05 35.05 77.2 33.05 77.35 32.55 77.6 29.9 78.25 27.2 78.0 25.85 77.95 23.25 78.15 Q20.6 79.1 18.25 77.6 L17.6 77.45 Q16.15 77.5 14.7 76.8 L13.65 76.1 11.65 75.3 Q8.05 74.7 6.15 72.25 L5.65 71.45 Q4.05 71.05 2.95 69.9 1.8 68.7 1.5 67.1 L1.45 66.6 1.4 66.45 Q-0.05 64.5 0.05 62.2 0.05 61.15 0.45 60.1 L0.75 58.95 Q0.6 57.45 1.4 56.0 L1.8 54.0 1.8 53.4 Q1.85 51.9 2.7 50.7 L3.1 48.9 3.05 48.3 Q2.9 46.2 3.9 44.15 L4.45 42.75 Q4.15 41.35 4.4 40.2 4.85 38.5 6.05 37.4 L6.3 35.9 6.5 34.45 6.6 34.1 6.6 33.8 Q6.7 32.15 7.65 30.85 L7.65 30.65 Q7.8 27.75 10.1 25.9 10.55 24.95 11.35 24.25 11.35 22.7 12.25 21.35 L12.55 21.0 Q12.9 19.55 14.1 18.35 14.7 16.95 15.85 16.05 16.1 14.4 17.15 13.2 L18.85 11.85 19.7 10.95 19.8 10.75 Q20.2 10.15 20.75 9.65 21.7 7.6 23.75 6.85 24.6 5.55 25.95 4.95 27.5 3.35 29.7 3.25 L29.95 3.15 Q31.1 1.85 32.9 1.45 L34.5 1.3 Q35.4 0.6 36.75 0.35 L38.9 0.25 40.0 0.5 Q41.35 -0.15 42.9 0.05 44.45 0.2 45.6 1.05 47.4 1.05 48.75 2.1 L49.55 2.25 49.8 2.35 52.55 1.85 52.65 1.8 52.75 1.8 Q54.55 1.75 56.05 2.7 57.5 3.65 58.15 5.25 L58.5 5.6 Q59.9 6.05 60.85 7.15 61.8 8.2 62.1 9.6 L63.2 10.6 63.9 11.7" fill="#ffffff" fill-rule="evenodd" stroke="none"/>
      <path d="M52.65 5.85 L52.7 5.9 52.8 6.2 52.75 6.3 52.7 6.35 50.95 6.7 50.8 6.65 50.9 6.5 52.55 5.85 52.65 5.85" fill="#ebc9ed" fill-rule="evenodd" stroke="none"/>
    </g>
    <g id="shape4" transform="matrix(1.0, 0.0, 0.0, 1.0, -46.55, -59.2)">
      <path d="M99.3 65.55 L99.25 65.25 97.55 65.9 99.3 65.55 M63.8 72.5 Q64.45 71.7 65.5 71.15 L66.35 70.25 66.45 70.05 Q66.85 69.45 67.4 68.95 68.35 66.9 70.4 66.15 71.25 64.85 72.55 64.25 74.2 62.6 76.35 62.55 L76.6 62.45 Q77.75 61.15 79.55 60.75 L81.15 60.6 Q82.1 59.9 83.4 59.65 L85.5 59.55 86.6 59.8 Q88.0 59.15 89.5 59.35 91.05 59.5 92.25 60.35 94.0 60.35 95.35 61.4 L96.15 61.55 96.45 61.65 99.2 61.15 99.3 61.1 99.4 61.1 Q101.2 61.05 102.7 62.0 104.15 62.95 104.8 64.55 L105.15 64.9 Q106.5 65.35 107.5 66.45 108.45 67.5 108.75 68.9 L109.8 69.9 110.55 71.0 110.75 71.1 Q112.15 71.7 113.05 73.0 115.05 74.5 115.55 76.8 L116.5 78.2 Q118.15 79.3 118.85 80.8 119.55 82.1 119.5 83.6 119.45 85.05 118.6 86.3 L118.6 86.9 118.6 86.95 Q119.7 88.8 119.6 90.95 L119.55 91.55 Q120.1 93.05 119.6 94.75 L119.6 94.8 Q120.75 96.9 119.95 99.15 L119.95 99.25 Q119.85 100.85 119.1 102.1 L118.7 103.65 118.65 104.05 118.65 104.3 118.45 105.65 118.0 106.7 Q118.6 108.2 118.35 109.75 118.1 111.35 117.05 112.55 L115.9 113.55 115.55 113.95 115.35 114.65 114.4 116.5 Q114.65 119.4 112.4 121.25 L112.05 121.5 Q112.7 124.4 110.65 126.55 108.9 128.45 106.3 128.3 L105.55 128.45 104.5 129.25 104.25 129.5 Q103.75 130.7 102.9 131.5 L101.55 132.45 Q100.5 132.95 99.25 133.05 L98.75 133.15 97.9 133.95 Q96.15 135.3 93.75 135.15 92.4 135.5 90.45 135.2 L88.65 135.55 Q87.65 136.2 86.3 136.35 L86.05 136.35 84.3 136.35 81.7 136.5 79.7 136.65 79.2 136.9 76.55 137.55 73.85 137.3 72.5 137.25 69.9 137.45 Q67.25 138.4 64.9 136.9 L64.25 136.75 Q62.65 136.85 61.35 136.1 L60.25 135.4 58.3 134.6 Q54.7 134.0 52.8 131.55 L52.3 130.75 Q50.7 130.35 49.6 129.2 48.45 128.0 48.15 126.4 L48.1 125.9 48.05 125.75 Q46.55 123.8 46.65 121.5 46.7 120.5 47.05 119.4 L47.35 118.25 Q47.3 116.7 48.05 115.3 48.1 114.4 48.45 113.3 L48.45 112.7 Q48.5 111.3 49.3 110.0 49.4 109.05 49.75 108.2 L49.7 107.6 Q49.55 105.5 50.55 103.45 L51.05 102.05 Q50.75 100.8 51.05 99.5 51.4 97.95 52.65 96.7 L52.95 95.25 53.15 93.75 53.25 93.4 53.25 93.1 Q53.25 91.6 54.3 90.15 L54.3 90.0 Q54.45 87.05 56.75 85.2 57.2 84.3 57.95 83.55 58.05 81.95 58.9 80.65 L59.2 80.3 Q59.6 78.75 60.7 77.7 61.4 76.25 62.5 75.35 62.75 73.7 63.8 72.5" fill="url(#gradient3)" fill-rule="evenodd" stroke="none"/>
      <path d="M63.8 72.5 Q62.75 73.7 62.5 75.35 61.4 76.25 60.7 77.7 59.6 78.75 59.2 80.3 L58.9 80.65 Q58.05 81.95 57.95 83.55 57.2 84.3 56.75 85.2 54.45 87.05 54.3 90.0 L54.3 90.15 Q53.25 91.6 53.25 93.1 L53.25 93.4 53.15 93.75 52.95 95.25 52.65 96.7 Q51.4 97.95 51.05 99.5 50.75 100.8 51.05 102.05 L50.55 103.45 Q49.55 105.5 49.7 107.6 L49.75 108.2 Q49.4 109.05 49.3 110.0 48.5 111.3 48.45 112.7 L48.45 113.3 Q48.1 114.4 48.05 115.3 47.3 116.7 47.35 118.25 L47.05 119.4 Q46.7 120.5 46.65 121.5 46.55 123.8 48.05 125.75 L48.1 125.9 48.15 126.4 Q48.45 128.0 49.6 129.2 50.7 130.35 52.3 130.75 L52.8 131.55 Q54.7 134.0 58.3 134.6 L60.25 135.4 61.35 136.1 Q62.65 136.85 64.25 136.75 L64.9 136.9 Q67.25 138.4 69.9 137.45 L72.5 137.25 73.85 137.3 76.55 137.55 79.2 136.9 79.7 136.65 81.7 136.5 84.3 136.35 86.05 136.35 86.3 136.35 Q87.65 136.2 88.65 135.55 L90.45 135.2 Q92.4 135.5 93.75 135.15 96.15 135.3 97.9 133.95 L98.75 133.15 99.25 133.05 Q100.5 132.95 101.55 132.45 L102.9 131.5 Q103.75 130.7 104.25 129.5 L104.5 129.25 105.55 128.45 106.3 128.3 Q108.9 128.45 110.65 126.55 112.7 124.4 112.05 121.5 L112.4 121.25 Q114.65 119.4 114.4 116.5 L115.35 114.65 115.55 113.95 115.9 113.55 117.05 112.55 Q118.1 111.35 118.35 109.75 118.6 108.2 118.0 106.7 L118.45 105.65 118.65 104.3 118.65 104.05 118.7 103.65 119.1 102.1 Q119.85 100.85 119.95 99.25 L119.95 99.15 Q120.75 96.9 119.6 94.8 L119.6 94.75 Q120.1 93.05 119.55 91.55 L119.6 90.95 Q119.7 88.8 118.6 86.95 L118.6 86.9 118.6 86.3 Q119.45 85.05 119.5 83.6 119.55 82.1 118.85 80.8 118.15 79.3 116.5 78.2 L115.55 76.8 Q115.05 74.5 113.05 73.0 112.15 71.7 110.75 71.1 L110.55 71.0 109.8 69.9 108.75 68.9 Q108.45 67.5 107.5 66.45 106.5 65.35 105.15 64.9 L104.8 64.55 Q104.15 62.95 102.7 62.0 101.2 61.05 99.4 61.1 L99.3 61.1 99.2 61.15 96.45 61.65 96.15 61.55 95.35 61.4 Q94.0 60.35 92.25 60.35 91.05 59.5 89.5 59.35 88.0 59.15 86.6 59.8 L85.5 59.55 83.4 59.65 Q82.1 59.9 81.15 60.6 L79.55 60.75 Q77.75 61.15 76.6 62.45 L76.35 62.55 Q74.2 62.6 72.55 64.25 71.25 64.85 70.4 66.15 68.35 66.9 67.4 68.95 66.85 69.45 66.45 70.05 L66.35 70.25 65.5 71.15 Q64.45 71.7 63.8 72.5 M99.3 65.55 L97.55 65.9 99.25 65.25 99.3 65.55" fill="none" stroke="#d1deef" stroke-linecap="butt" stroke-linejoin="round" stroke-width="0.25"/>
      <path d="M99.3 65.65 L97.6 66.0 97.55 66.0 97.45 65.95 97.5 65.8 99.2 65.15 99.3 65.15 99.35 65.25 99.4 65.5 99.4 65.6 99.3 65.65" fill="#a9abd8" fill-rule="evenodd" stroke="none"/>
      <path d="M64.45 80.5 Q64.55 79.1 65.7 78.45 L66.65 78.05 66.7 78.05 67.0 77.4 66.85 76.7 66.85 76.2 Q66.8 75.75 67.1 75.35 67.45 75.0 67.85 74.95 L68.1 74.95 68.7 75.1 68.85 74.7 68.85 74.05 Q69.1 73.55 69.5 73.4 L70.0 73.2 Q69.9 72.8 70.15 72.4 70.45 71.9 71.25 71.85 L71.3 71.2 Q71.3 70.8 71.6 70.5 71.9 70.2 72.3 70.15 72.8 70.15 73.15 70.4 L73.45 70.75 73.6 70.6 73.6 70.45 Q73.6 69.85 73.75 69.4 L73.8 69.15 Q73.9 68.2 74.85 68.1 L75.1 68.1 75.4 68.15 75.45 68.0 Q75.45 67.6 75.75 67.3 76.05 67.0 76.45 66.95 77.05 66.9 77.5 67.4 L77.55 67.35 Q77.75 66.75 78.35 66.45 L79.25 66.5 79.55 66.7 Q79.4 66.35 79.55 65.95 L79.65 65.7 Q79.9 65.15 80.45 65.05 L80.85 65.0 Q81.9 64.9 82.7 65.75 L83.2 65.3 83.2 65.0 Q83.3 64.0 84.2 64.0 L84.35 63.95 84.9 63.9 Q85.25 63.9 85.55 64.2 86.05 64.6 86.0 65.55 L85.95 66.3 86.05 66.3 Q86.85 64.6 88.5 63.75 89.4 63.4 89.9 64.15 L90.05 65.0 90.3 64.8 91.6 64.85 91.95 64.75 Q92.8 64.6 93.15 65.35 L93.25 65.85 94.55 65.7 95.0 65.8 Q95.7 65.9 95.95 66.5 97.55 65.75 99.6 65.5 100.65 65.5 100.8 66.45 100.9 67.4 100.05 67.65 L100.85 67.5 Q101.65 67.35 102.0 68.05 L102.1 68.85 103.6 69.0 Q104.5 69.25 104.5 70.15 L104.15 70.9 104.0 71.5 Q105.65 71.85 106.5 72.8 L106.8 73.45 107.15 74.05 108.4 74.95 108.95 75.15 109.6 75.75 109.75 76.1 Q111.15 76.7 111.3 78.05 L111.45 78.9 Q112.8 80.25 112.85 80.8 L112.85 81.1 Q114.5 81.95 114.95 82.8 115.35 83.45 114.85 84.0 L114.25 84.4 114.25 84.45 Q114.45 84.9 114.15 85.35 L114.05 85.55 114.25 86.7 114.05 87.8 114.05 87.9 114.65 88.9 Q115.3 89.75 115.2 90.75 L115.0 91.6 114.9 91.75 114.95 92.2 115.25 92.7 Q115.55 93.15 115.3 93.7 L115.2 93.95 114.9 94.75 115.4 96.1 115.65 96.7 Q116.15 97.4 115.55 98.1 L115.35 98.25 115.55 99.1 Q115.55 99.75 115.05 100.15 L114.55 100.4 114.8 101.25 114.35 102.6 114.25 102.75 114.2 102.95 114.15 103.05 114.3 103.8 114.25 104.1 114.25 104.35 Q114.0 105.05 113.4 105.3 L113.45 105.5 113.4 106.15 113.4 106.5 113.25 107.45 113.85 108.25 Q114.35 108.9 113.8 109.65 L113.0 110.0 111.4 112.0 111.15 113.4 Q111.0 114.0 110.45 114.15 L110.15 114.25 109.3 114.15 108.95 114.9 108.9 115.5 109.35 115.9 Q109.85 116.1 110.0 116.7 110.1 117.5 109.6 117.85 L109.35 118.0 Q108.65 118.35 107.75 118.0 L105.85 120.85 107.3 121.85 107.7 122.3 Q107.95 123.0 107.5 123.55 106.95 124.1 106.3 123.8 L105.75 123.55 104.7 124.15 103.25 123.9 103.05 124.15 102.95 124.65 Q102.7 125.5 101.65 125.65 L101.4 125.7 101.25 126.2 101.1 126.45 100.75 126.85 100.25 127.2 Q100.35 127.9 99.9 128.25 L99.5 128.55 98.7 128.65 98.55 128.7 97.55 128.85 96.45 128.75 96.15 129.25 95.65 129.55 Q95.75 130.05 95.25 130.45 94.65 130.9 93.85 130.75 L93.35 130.65 93.1 130.7 93.05 130.75 92.5 130.9 90.65 130.7 90.15 130.5 89.5 130.55 Q89.2 131.15 88.4 131.2 L87.65 130.95 87.0 131.05 86.85 131.25 86.8 131.35 85.9 132.0 85.75 132.0 83.8 131.75 82.7 132.2 81.7 131.95 81.6 131.95 80.9 132.15 79.95 132.15 78.75 132.1 78.05 131.9 77.75 132.6 77.3 132.95 76.25 133.15 74.35 132.85 73.8 132.95 72.8 132.8 72.45 132.85 72.15 132.85 71.85 132.85 69.5 132.75 68.65 133.15 67.15 133.1 66.8 132.5 65.6 132.6 65.4 132.5 64.95 132.2 64.3 132.3 63.35 132.2 Q63.0 132.1 62.8 131.65 L59.4 130.3 Q57.2 130.0 56.3 128.9 55.75 128.1 55.75 127.05 L55.55 126.85 55.3 126.3 53.4 126.5 Q52.6 126.35 52.5 125.6 52.4 125.25 52.55 124.95 L52.5 124.9 Q52.15 124.55 52.15 123.9 L52.2 123.8 Q51.0 122.7 51.05 121.7 51.15 120.95 51.4 120.45 L51.4 120.2 Q51.4 119.6 52.15 119.0 L51.85 118.45 51.8 118.2 Q51.55 117.5 52.2 117.05 L52.35 116.95 52.35 116.4 Q52.45 114.95 52.95 113.65 L52.8 112.95 Q52.9 112.35 53.45 111.85 L53.45 111.75 53.75 110.75 53.7 110.35 Q53.7 109.8 54.2 109.4 L54.45 108.8 54.55 108.65 54.4 108.45 Q54.1 108.05 54.1 107.3 54.0 106.25 54.65 105.05 L54.7 105.0 54.8 104.55 55.95 101.85 55.5 101.4 Q55.2 100.9 55.35 100.55 55.45 100.0 55.8 99.8 L56.9 99.15 56.95 99.0 57.2 97.8 Q57.05 97.5 57.05 97.0 57.05 96.6 57.35 96.15 L57.35 95.0 57.4 94.75 57.7 94.0 57.6 93.4 Q57.65 92.65 58.8 92.0 L58.7 91.65 58.65 91.35 58.7 90.85 58.7 90.15 Q58.7 89.1 59.8 88.45 L60.5 88.1 60.5 87.95 Q60.5 86.8 61.85 86.1 L61.9 86.1 61.9 86.0 Q61.9 85.6 62.15 85.25 L62.7 84.55 Q62.05 83.9 62.55 83.15 62.85 82.65 63.45 82.25 L63.4 81.65 Q63.5 80.7 64.45 80.5" fill="#171e48" fill-rule="evenodd" stroke="none"/>
    </g>
    <linearGradient gradientTransform="matrix(-0.0031, -0.0471, -0.0471, 0.0031, 82.8, 98.35)" gradientUnits="userSpaceOnUse" id="gradient3" spreadMethod="pad" x1="-819.2" x2="819.2">
      <stop offset="0.0" stop-color="#26313d"/>
      <stop offset="0.2196078431372549" stop-color="#3e4c5e"/>
      <stop offset="0.7019607843137254" stop-color="#7a90b1"/>
      <stop offset="1.0" stop-color="#a2bce7"/>
    </linearGradient>
    <g id="sprite2" transform="matrix(1.0, 0.0, 0.0, 1.0, 0.0, 0.0)">
      <clipPath id="clipPath0" transform="matrix(1.0, 0.0, 0.0, 1.0, 0.0, 0.0)">
        <use height="9.7" transform="matrix(7.2487, 0.0, 0.0, 7.268, 0.0, 0.25)" width="9.45" xlink:href="#shape5"/>
      </clipPath>
      <g clip-path="url(#clipPath0)">
        <use height="70.85" transform="matrix(1.0, 0.0, 0.0, 1.0, 3.0, 0.0)" width="64.85" xlink:href="#sprite3"/>
        <use height="16.8" transform="matrix(1.0, 0.0, 0.0, 1.0, 26.85, 49.35)" width="12.95" xlink:href="#sprite4"/>
        <use height="18.55" transform="matrix(1.0, 0.0, 0.0, 1.0, 45.55, 47.25)" width="15.6" xlink:href="#sprite5"/>
        <use height="13.4" transform="matrix(1.0, 0.0, 0.0, 1.0, 5.75, 36.6)" width="20.85" xlink:href="#sprite6"/>
        <use height="10.85" transform="matrix(1.0, 0.0, 0.0, 1.0, 40.7, 30.1)" width="10.3" xlink:href="#sprite7"/>
        <use height="19.9" transform="matrix(1.0, 0.0, 0.0, 1.0, 22.45, 14.45)" width="40.8" xlink:href="#sprite8"/>
      </g>
    </g>
    <g id="shape5" transform="matrix(1.0, 0.0, 0.0, 1.0, 0.0, 0.0)">
      <path d="M0.0 0.6 L8.85 0.0 9.45 9.15 0.6 9.7 0.0 0.6" fill="#ff0000" fill-rule="evenodd" stroke="none"/>
    </g>
    <g id="sprite3" transform="matrix(1.0, 0.0, 0.0, 1.0, 0.0, 0.0)">
      <clipPath id="clipPath1" transform="matrix(1.0, 0.0, 0.0, 1.0, 0.0, 0.0)">
        <use height="70.85" transform="matrix(1.0, 0.0, 0.0, 1.0, 0.0, 0.0)" width="64.85" xlink:href="#shape6"/>
      </clipPath>
      <g clip-path="url(#clipPath1)">
        <use height="67.55" transform="matrix(1.0, 0.0, 0.0, 1.0, 0.6, 1.9)" width="62.6" xlink:href="#shape7"/>
      </g>
    </g>
    <g id="shape6" transform="matrix(1.0, 0.0, 0.0, 1.0, 0.0, 0.0)">
      <path d="M3.25 4.15 L64.85 0.0 61.65 66.75 0.0 70.85 3.25 4.15" fill="#ff0000" fill-rule="evenodd" stroke="none"/>
    </g>
    <g id="shape7" transform="matrix(1.0, 0.0, 0.0, 1.0, -0.6, -1.9)">
      <path d="M62.4 20.55 L60.05 19.3 61.05 21.8 61.5 21.7 61.6 21.55 61.65 21.95 61.3 22.15 61.15 22.1 61.6 23.8 61.3 25.45 62.05 26.45 62.05 26.5 Q62.55 27.05 62.55 27.85 L62.45 28.3 62.35 28.35 62.15 27.6 61.9 26.9 61.8 27.05 62.1 28.1 62.3 29.7 62.75 30.4 62.4 30.45 62.45 30.5 62.55 30.9 62.15 31.7 61.9 31.95 62.3 32.35 62.8 33.55 63.2 34.5 61.8 32.65 61.55 34.5 61.85 35.15 62.9 36.15 62.85 36.4 62.75 36.5 61.9 35.75 61.8 36.1 61.8 36.2 61.85 36.35 61.45 36.5 61.5 36.5 61.65 37.0 61.35 37.7 61.95 38.0 62.15 38.35 61.8 39.25 61.8 38.5 61.7 38.1 61.1 38.25 61.55 39.4 61.5 39.5 60.85 38.4 60.7 38.55 60.8 38.85 60.6 39.1 60.55 39.15 60.95 39.35 61.25 39.8 61.65 39.6 61.45 40.15 61.55 40.55 61.65 40.9 61.65 41.2 61.2 41.5 Q60.55 41.55 60.0 41.2 L60.4 42.05 60.65 42.45 60.7 42.5 60.8 42.9 60.75 43.05 60.75 43.6 60.5 44.7 60.45 44.75 61.4 46.05 60.25 45.1 Q59.8 45.65 58.9 45.75 L58.55 45.65 58.55 45.95 58.6 46.1 58.6 46.35 59.0 46.25 60.25 46.25 60.4 46.35 60.45 46.65 58.85 48.6 58.75 48.7 58.55 50.25 58.3 50.35 58.4 49.05 57.3 50.05 56.95 50.45 56.9 50.4 56.95 50.25 56.6 50.4 56.65 50.85 56.35 51.55 56.25 52.95 57.35 54.1 57.4 54.15 57.3 54.15 57.1 54.2 Q56.3 54.25 55.65 53.3 L55.45 54.0 55.2 54.45 Q55.2 55.3 52.8 58.05 L52.7 58.15 55.15 59.9 55.15 59.95 52.6 58.3 51.75 59.3 53.3 60.0 53.3 60.1 53.05 60.2 Q52.25 60.2 51.4 59.7 L50.45 60.95 50.4 61.35 49.9 61.75 48.8 61.9 48.7 62.65 48.75 62.7 48.7 62.85 48.7 62.9 48.35 63.3 48.15 62.8 46.7 62.8 47.6 64.6 47.45 64.75 46.4 63.85 45.95 64.15 46.8 64.55 46.85 64.7 46.65 64.8 45.95 64.9 Q45.0 65.0 44.15 64.35 L44.1 64.95 43.75 65.7 43.65 65.65 43.65 65.5 43.7 65.0 43.4 65.1 42.3 65.95 42.35 66.5 43.05 66.75 42.7 66.8 42.2 66.8 42.2 66.75 41.55 66.5 41.35 66.65 41.75 66.7 41.25 66.7 40.85 66.95 39.5 66.85 38.75 66.55 36.9 66.65 37.0 67.15 36.8 67.25 Q36.55 67.25 36.55 66.85 L36.55 66.7 36.2 67.0 34.45 67.2 34.45 67.25 34.45 67.7 34.35 67.85 34.15 67.85 34.0 67.2 32.8 67.05 Q32.3 66.9 31.9 66.5 L31.85 66.8 Q33.6 67.85 34.25 68.05 32.95 68.15 31.8 67.55 31.65 68.15 31.1 68.25 L29.9 67.9 29.6 68.05 29.3 68.25 28.3 68.15 28.25 68.15 27.9 68.3 27.55 68.2 27.5 68.2 26.95 68.05 26.5 67.75 26.5 67.5 26.45 67.45 26.45 67.35 26.05 67.15 25.85 67.7 25.2 68.45 25.2 68.35 25.65 67.55 24.85 68.25 24.55 68.2 24.6 67.45 24.35 67.65 23.9 68.1 24.3 68.4 25.4 69.0 25.25 69.1 24.65 69.2 Q23.25 69.35 22.95 68.65 L22.85 68.55 22.95 68.4 23.0 68.05 22.85 68.05 22.45 67.75 21.85 68.2 21.95 68.35 22.55 68.8 22.65 68.85 22.15 69.0 21.4 68.85 20.85 68.9 20.55 68.9 19.95 68.85 20.0 68.95 Q18.7 69.4 18.4 68.75 L18.35 68.5 18.25 68.55 18.2 68.6 Q16.65 69.25 16.4 69.4 L16.35 69.25 Q16.35 68.95 16.95 68.65 L16.45 68.55 16.3 68.65 16.25 68.6 16.2 68.5 15.85 68.35 14.6 68.65 14.3 68.65 14.15 68.55 14.55 68.2 14.6 68.25 15.55 68.1 15.4 67.95 15.3 67.75 12.55 68.4 12.3 68.4 12.25 68.15 12.35 67.95 10.3 67.25 8.05 66.35 Q6.3 66.2 5.6 65.35 5.25 64.8 5.3 63.9 L5.4 63.45 4.9 63.35 4.85 63.25 4.9 62.35 4.5 62.15 4.35 62.25 4.1 61.95 Q3.55 62.5 2.65 62.6 L2.0 62.55 2.0 62.45 3.55 61.8 3.5 61.8 2.5 61.85 2.2 61.75 Q2.6 61.3 3.05 61.3 L2.75 61.1 2.55 61.0 1.85 61.25 1.75 61.25 1.7 61.15 2.15 60.7 Q0.6 59.65 0.6 58.95 0.6 58.3 0.9 58.05 1.3 57.7 3.1 57.25 L3.1 56.8 2.45 57.15 2.4 57.15 2.25 57.2 1.35 57.7 1.15 57.85 Q0.85 57.95 0.95 57.45 0.95 57.0 3.15 55.95 L3.2 55.85 3.35 55.25 2.5 55.4 2.15 56.1 2.05 56.05 2.25 55.4 1.6 55.4 1.35 55.35 1.3 55.1 1.7 54.85 1.95 54.3 1.9 53.6 Q2.0 51.65 3.0 50.1 L3.15 49.8 2.5 50.25 2.35 50.15 3.1 49.45 3.0 48.95 3.15 48.5 3.4 48.55 3.95 48.45 4.0 48.15 3.85 47.65 3.75 47.45 3.45 47.55 3.45 47.7 3.75 47.7 3.7 47.75 3.25 47.75 3.25 47.55 Q3.25 47.4 3.65 47.25 L3.65 47.2 4.15 45.8 3.75 44.85 Q3.8 43.6 4.3 42.05 L5.3 39.7 6.15 37.55 4.85 38.0 4.8 37.9 6.35 36.95 6.4 36.7 6.35 36.7 6.45 36.6 6.85 34.25 6.75 34.45 6.65 34.4 6.6 34.2 Q6.6 34.0 6.9 33.7 L6.9 32.3 6.95 32.15 7.75 30.55 7.2 30.7 7.15 30.6 Q7.25 30.35 8.05 30.0 L8.9 29.05 8.35 28.85 8.2 28.45 8.15 28.45 8.2 28.4 8.25 28.4 9.5 27.7 8.75 27.85 8.4 27.85 8.25 27.8 8.25 27.35 Q8.25 26.9 8.8 26.5 L11.1 25.85 11.4 25.6 11.3 25.2 10.65 25.75 10.6 25.6 10.7 25.4 10.05 25.4 10.05 25.15 Q10.05 24.35 11.45 24.0 L11.4 23.95 11.3 23.7 11.4 23.55 11.45 23.2 11.4 23.15 11.5 23.1 11.95 22.45 12.95 21.85 13.15 21.15 13.35 21.0 13.15 20.85 13.1 20.8 12.75 20.95 11.9 20.9 Q12.3 20.35 13.3 19.9 L13.6 19.55 Q14.2 19.15 14.8 19.2 L14.9 19.0 14.0 19.05 13.0 19.05 12.95 18.85 13.15 18.7 14.45 18.5 14.4 18.35 14.3 18.3 Q14.0 18.1 14.0 17.8 14.1 16.9 14.65 16.6 L15.85 16.15 16.1 15.8 16.75 14.55 16.65 14.45 16.4 13.75 16.4 13.2 16.6 13.2 17.2 14.05 17.4 13.85 18.6 12.8 18.25 12.45 18.5 12.25 19.05 12.5 19.25 12.3 18.45 11.7 18.35 11.55 18.6 11.45 19.25 11.85 19.6 11.9 19.9 11.6 19.95 11.5 Q19.5 11.45 19.5 11.0 L19.55 10.15 19.7 10.1 19.7 10.85 Q19.7 11.25 20.0 11.45 L20.9 10.65 20.7 9.7 20.85 8.4 20.9 8.4 21.05 10.15 21.1 10.45 21.6 10.0 21.65 10.0 22.25 9.5 22.25 9.4 22.65 8.75 23.35 8.05 23.15 7.65 23.35 6.35 23.6 6.35 Q23.85 7.15 24.75 7.95 L25.65 7.5 25.4 7.0 24.9 5.55 25.0 5.2 25.05 5.2 Q25.3 6.45 25.85 7.2 L25.9 6.5 25.85 6.2 25.9 6.15 25.9 5.85 26.15 5.85 26.2 6.15 26.7 7.0 27.55 6.7 27.45 6.55 Q26.9 5.75 26.9 5.3 L27.0 4.95 27.2 4.65 27.2 4.7 27.15 4.9 27.75 6.35 27.9 6.6 28.5 6.4 28.35 6.05 Q28.7 5.8 29.75 5.7 L29.95 5.95 29.95 6.0 30.25 5.9 29.05 3.5 29.15 3.25 Q30.2 3.05 30.7 4.2 L31.05 5.65 31.05 5.75 32.15 5.6 32.15 5.5 31.85 4.35 31.9 3.85 32.15 3.4 Q32.0 4.45 32.35 5.55 L32.55 5.55 32.75 2.25 33.2 2.15 33.35 2.65 33.0 5.45 34.25 5.35 34.4 4.55 34.45 4.55 34.4 5.35 35.1 5.3 35.4 4.1 Q36.0 2.6 37.45 1.9 36.6 2.6 35.9 4.35 L35.55 5.3 36.25 5.3 39.35 2.85 37.5 4.45 36.6 5.3 37.25 5.3 39.55 3.25 39.45 3.5 Q40.1 3.05 40.6 3.0 L37.8 5.3 38.6 5.35 39.7 4.8 Q41.65 3.95 42.95 3.95 L40.3 4.95 39.4 5.45 40.55 5.55 41.45 4.8 Q42.5 4.2 43.4 4.05 L41.4 5.15 40.8 5.6 42.9 5.95 44.35 4.95 Q46.0 4.0 48.15 3.75 46.55 4.1 44.6 5.2 L43.35 5.95 Q44.85 5.8 45.95 5.95 L43.7 6.15 45.65 6.75 46.25 6.55 Q47.0 6.25 47.9 6.1 L49.5 5.7 47.6 6.55 46.5 7.1 47.65 7.6 48.65 7.35 51.85 7.25 48.15 7.85 48.4 8.0 50.35 7.95 51.5 8.15 49.25 8.45 50.75 9.5 51.55 9.6 Q53.4 9.9 54.15 10.7 L54.05 10.85 53.2 10.6 51.9 10.45 52.25 10.8 53.55 10.85 Q54.15 10.9 54.45 11.4 L54.6 12.05 Q55.7 12.25 56.15 13.05 L57.0 13.3 57.2 13.8 56.65 13.75 Q57.05 14.05 57.55 14.2 58.55 14.5 58.7 15.4 L59.0 16.65 60.2 18.05 60.05 18.85 Q62.1 19.85 62.45 20.5 L62.4 20.55 M61.0 22.45 Q60.7 22.7 60.35 22.9 L60.8 23.35 60.9 23.5 60.9 23.9 61.2 24.2 61.15 23.15 61.0 22.45 M61.15 24.45 L60.95 24.25 60.95 24.3 60.2 24.0 60.2 24.25 61.1 24.6 61.15 24.45 M53.6 11.2 L52.5 11.0 53.2 11.7 54.3 11.9 53.6 11.2 M55.8 13.6 L55.65 13.6 55.5 13.7 55.7 13.75 55.8 13.6 M57.6 14.8 L57.9 15.5 57.9 15.55 57.65 15.75 57.15 15.75 57.15 15.9 57.1 15.9 56.3 16.0 57.0 16.5 57.25 16.4 58.4 16.25 58.45 16.15 58.5 15.9 58.2 15.0 Q57.9 14.5 57.2 14.4 L57.6 14.8 M58.05 16.85 L58.3 16.65 57.85 16.6 57.45 16.7 58.05 16.85 M58.45 16.95 L58.2 17.1 58.9 17.05 58.6 16.8 58.45 16.95 M59.1 18.3 L58.55 18.1 58.85 18.35 58.95 18.4 59.1 18.35 59.4 18.1 59.45 18.0 58.9 17.8 59.1 18.3 M59.5 18.55 L59.5 18.6 59.75 18.75 59.75 18.3 59.5 18.55 M55.4 12.65 Q55.05 12.25 54.5 12.45 L54.15 12.65 54.9 12.8 55.4 12.65 M59.65 20.0 L60.1 20.4 60.35 20.95 60.25 20.35 Q60.1 19.7 59.7 19.55 L59.8 19.8 59.65 19.7 59.6 19.9 59.65 20.0 M58.35 19.1 L57.75 19.25 57.85 19.5 58.15 19.5 58.2 19.45 58.25 19.2 58.35 19.15 58.35 19.1 M59.4 21.05 L59.75 21.3 59.75 21.35 60.0 21.35 60.0 21.3 59.45 20.95 59.4 21.05 M60.2 24.7 L60.6 24.95 60.8 24.95 60.7 24.85 60.2 24.55 60.15 24.65 60.2 24.7 M60.3 26.1 L60.6 25.85 59.9 25.55 59.85 25.6 60.3 26.1 M60.0 25.2 L59.95 25.45 60.75 25.65 60.8 25.65 60.25 25.25 60.0 25.2 M60.2 32.35 L60.0 32.15 60.0 33.0 60.2 33.15 60.2 32.35 M60.6 33.25 L61.4 33.15 61.45 32.3 61.4 32.3 61.25 32.4 61.1 32.4 61.0 32.55 60.9 32.55 60.9 32.45 60.85 32.4 60.5 32.4 60.45 32.6 60.5 33.2 60.6 33.25 M60.1 35.9 L60.1 35.95 60.3 36.25 60.65 36.1 60.15 35.7 60.1 35.9 M60.45 36.85 L60.8 37.6 Q61.3 37.55 61.45 37.3 L61.45 36.95 61.45 36.5 61.3 36.5 60.55 36.8 60.45 36.85 M60.0 37.1 L60.2 37.6 60.1 37.0 60.0 37.1 M60.55 38.0 L60.55 38.05 60.45 38.1 60.5 38.15 60.6 38.4 60.75 38.2 60.7 38.15 60.65 38.0 60.55 38.0 M59.3 38.9 L59.25 38.9 59.15 39.4 59.3 39.4 59.3 38.9 M60.2 40.05 L60.95 39.95 Q60.5 39.5 60.0 39.75 L60.2 40.05 M60.6 41.15 L61.2 41.1 61.3 40.9 Q61.4 40.6 61.15 40.45 L60.25 40.3 60.2 40.35 60.1 40.75 60.6 41.15 M59.95 43.65 L60.2 43.45 59.75 43.55 59.65 43.6 59.7 43.65 59.95 43.65 M59.75 44.8 L59.5 45.05 59.5 45.1 60.0 44.75 59.95 44.7 59.75 44.8 M59.6 44.2 L59.5 43.95 59.25 43.7 58.95 43.85 59.1 44.25 59.0 44.7 58.55 44.95 58.65 45.15 59.75 44.4 59.6 44.2 M59.95 44.0 L60.05 44.15 60.2 44.0 59.95 44.0 M57.5 47.75 L57.5 48.4 57.6 48.3 58.05 47.7 58.0 47.7 57.65 47.9 57.5 47.75 M56.6 47.35 L56.3 48.1 56.45 48.05 56.95 47.35 56.6 47.35 M55.95 48.85 L55.45 49.95 55.45 50.7 56.05 50.95 56.1 50.25 55.9 49.85 55.85 49.25 55.95 48.95 55.95 48.85 M56.85 48.1 L57.0 48.15 57.2 48.25 57.15 47.8 56.9 48.0 56.85 48.1 M57.6 49.05 L57.55 49.5 57.45 49.65 58.45 48.65 58.45 47.95 57.8 48.5 57.55 48.75 57.6 49.05 M60.1 46.6 L59.25 46.65 59.4 47.15 60.0 46.9 60.1 46.6 M58.9 47.05 L58.8 47.25 58.8 47.4 59.0 47.35 59.0 47.2 58.9 47.0 58.9 47.05 M61.6 26.55 L61.25 26.25 61.05 26.3 60.95 26.6 61.55 26.7 61.6 26.55 M60.9 27.05 L60.85 27.15 61.15 27.4 61.3 27.2 61.25 27.05 60.9 27.05 M61.3 27.65 L61.1 27.95 62.1 29.35 62.1 29.3 61.85 28.4 61.55 27.45 61.3 27.65 M61.5 30.45 L61.6 30.3 60.9 29.9 60.85 29.9 61.5 30.45 M60.75 33.6 L61.25 34.1 61.25 33.6 60.75 33.6 M23.4 8.1 L22.6 9.2 22.65 9.25 23.85 8.45 23.4 8.1 M26.1 7.0 L26.0 7.35 26.2 7.25 26.1 7.0 M14.85 17.45 L14.65 17.45 14.75 17.65 14.8 17.6 14.85 17.45 M10.4 24.95 L10.4 25.0 11.35 24.8 11.5 24.2 10.45 24.75 10.4 24.95 M10.6 26.4 L9.8 26.6 Q8.8 26.9 8.65 27.15 L8.6 27.35 8.6 27.45 10.0 26.95 10.3 26.75 10.6 26.4 M8.2 30.6 L8.05 31.5 8.0 31.55 9.0 31.15 10.0 30.95 10.2 30.75 9.2 30.95 8.6 30.9 9.6 30.55 9.7 30.55 9.3 30.15 9.0 30.2 8.75 30.2 8.35 30.35 8.2 30.6 M9.4 31.4 L9.05 31.65 9.2 31.8 9.3 31.65 9.6 31.4 9.4 31.4 M9.1 32.3 L8.85 32.55 9.05 32.55 9.15 32.35 9.1 32.3 M7.75 32.3 L7.4 32.9 7.25 33.45 7.5 33.3 7.5 33.25 7.85 32.4 7.75 32.3 M8.6 32.05 L8.45 32.25 8.6 32.4 8.8 32.15 8.6 32.05 M8.4 33.15 L8.1 33.65 8.05 33.6 8.0 33.4 8.0 33.3 7.85 33.4 7.75 33.7 7.7 33.8 8.7 33.55 8.85 33.4 8.9 33.0 8.8 33.0 8.4 33.15 M7.0 36.55 L6.8 36.5 6.75 36.5 6.75 36.7 7.0 36.55 M6.85 35.95 L7.8 35.1 7.4 35.1 Q7.05 35.1 6.9 35.75 L6.85 35.95 M8.95 35.25 L8.6 35.6 8.25 36.15 9.2 35.4 8.95 35.25 M7.75 34.8 L8.1 34.85 8.3 34.65 8.45 34.2 8.0 34.3 7.65 34.6 7.75 34.8 M5.85 39.8 L5.85 39.05 Q5.35 39.75 5.25 40.55 L5.55 40.55 6.0 40.0 5.85 39.8 M5.3 41.05 L5.25 41.1 5.2 41.4 5.3 41.45 5.3 41.05 M5.45 42.2 L4.75 42.95 5.25 41.85 4.75 41.7 4.6 41.85 4.55 42.0 4.5 43.0 5.7 42.95 6.0 42.7 6.1 42.55 5.45 42.55 5.45 42.2 M4.3 44.3 L4.15 44.85 4.2 45.35 4.45 45.5 Q4.55 44.8 4.95 44.15 L4.55 43.85 4.3 44.3 M5.05 45.45 L5.8 44.55 5.45 44.25 5.4 44.2 5.3 44.2 4.65 45.5 5.05 45.45 M4.95 46.7 Q4.95 46.5 5.5 45.85 L4.5 46.0 4.15 46.7 4.05 47.1 4.4 46.95 4.95 46.8 4.95 46.7 M4.95 47.0 L4.25 47.3 5.0 47.15 4.95 47.0 M4.35 47.85 L4.6 47.75 4.65 47.65 4.05 47.55 4.1 47.6 4.35 47.85 M3.95 49.25 L3.9 49.3 3.9 49.45 4.6 49.45 4.6 49.25 3.95 49.25 M5.5 43.35 L4.7 43.4 5.2 43.75 5.5 43.35 M5.65 45.25 L5.7 45.3 5.75 45.1 5.5 45.3 5.65 45.25 M28.6 67.65 L28.95 67.8 Q29.6 67.75 29.9 67.45 L29.85 67.45 29.5 67.15 29.65 66.65 28.85 66.75 28.85 66.8 28.65 67.6 28.6 67.65 M28.35 66.8 L27.4 66.9 28.1 67.4 28.15 67.4 28.3 67.0 28.35 66.8 M22.45 67.2 L21.9 67.2 21.8 67.65 21.8 67.8 22.45 67.2 M20.75 67.55 L20.6 67.85 21.1 68.3 21.15 68.25 21.2 67.4 20.75 67.55 M22.85 67.6 L22.85 67.7 23.0 67.7 23.1 67.2 23.0 67.2 22.85 67.6 M23.8 67.55 L24.1 67.15 23.9 67.15 23.8 67.55 M24.9 67.75 L25.7 67.05 25.1 67.1 24.95 67.2 24.9 67.65 24.9 67.75 M38.8 64.95 L39.15 65.1 39.2 64.65 38.75 64.8 38.8 64.95 M39.85 64.45 L40.7 65.05 41.4 65.8 41.95 65.65 41.9 65.3 41.1 64.9 41.05 64.9 41.15 65.0 Q40.2 64.8 40.05 64.45 L40.05 64.35 39.85 64.45 M36.9 66.1 L38.1 66.0 Q37.55 65.75 37.5 65.35 L37.5 65.2 37.1 65.3 36.9 66.1 M35.8 65.65 L36.05 65.8 36.45 66.1 36.6 66.1 36.7 65.4 35.8 65.65 M40.1 65.5 L40.7 65.8 40.8 65.8 40.25 65.15 Q39.9 64.9 39.65 64.9 L39.9 65.4 Q40.15 65.25 40.3 65.25 L40.1 65.5 M32.75 66.45 L33.7 66.7 33.2 66.3 33.2 66.15 33.15 66.15 32.35 66.25 32.75 66.45 M30.55 67.55 L30.15 67.55 30.85 67.85 Q31.35 67.75 31.5 67.4 L30.55 67.55 M35.15 65.8 L34.7 65.9 34.8 66.2 35.2 66.55 35.85 66.5 35.1 66.2 35.15 65.8 M5.45 49.8 L5.7 49.45 5.3 49.5 5.25 49.5 5.4 49.65 5.45 49.8 M4.55 49.9 L3.75 49.95 3.8 50.25 3.9 50.45 4.1 50.35 4.55 49.9 M3.8 50.95 L3.4 51.45 3.75 51.4 4.3 51.25 4.3 50.9 3.8 50.95 M3.35 50.3 L2.75 51.1 2.55 51.85 2.65 51.8 3.6 50.7 3.55 50.6 3.35 50.3 M3.75 52.5 L3.85 52.35 3.8 52.3 2.7 52.5 2.65 52.55 3.75 52.5 M2.3 53.9 L2.6 53.6 2.3 53.45 2.3 53.55 2.3 53.9 M2.45 52.95 L2.35 53.1 2.7 53.25 2.9 53.3 3.1 53.1 3.1 52.95 2.5 52.9 2.45 52.95 M4.2 53.0 L4.15 52.85 3.7 53.2 3.6 53.3 4.1 53.25 4.2 53.0 M3.15 54.0 L3.65 53.7 3.25 53.7 3.15 54.0 M3.15 58.75 L3.3 58.9 3.2 58.45 3.15 58.75 M1.15 58.5 L1.0 58.55 0.95 59.45 1.05 59.5 1.0 59.0 1.25 58.6 1.25 58.5 1.15 58.5 M1.85 57.8 L1.75 57.95 1.7 58.05 1.9 58.1 2.1 57.95 2.5 57.75 1.85 57.8 M2.2 59.95 L2.7 59.05 2.45 58.85 1.65 59.3 2.2 59.95 M3.35 60.8 L3.05 60.9 3.8 61.15 3.75 60.4 3.35 60.8 M4.95 61.65 L4.8 61.7 4.8 61.75 4.9 61.8 4.95 61.65 M8.75 64.5 L7.55 65.75 7.9 65.9 8.05 66.0 8.0 65.45 Q8.0 65.2 8.35 65.05 L9.05 64.65 8.75 64.5 M9.5 64.85 L8.95 65.25 8.85 65.5 9.2 65.45 9.25 65.45 9.65 64.95 9.5 64.85 M6.7 63.25 L6.35 64.05 6.5 64.15 6.95 64.05 7.0 63.4 7.0 63.35 6.9 63.3 6.7 63.25 M6.2 63.35 L5.75 63.4 6.1 63.85 6.35 63.3 6.2 63.35 M5.65 64.15 L5.8 64.7 5.95 64.3 5.65 64.15 M6.15 64.8 L6.25 65.15 6.55 65.2 6.85 64.55 6.9 64.5 6.2 64.4 6.15 64.8 M7.25 64.65 L7.2 64.65 7.2 65.15 7.35 65.05 7.75 64.5 7.5 64.55 7.25 64.65 M16.75 67.6 L16.9 67.65 18.2 67.1 17.05 67.0 17.05 67.1 16.75 67.6 M19.0 67.75 L19.05 67.85 19.2 67.8 19.15 67.7 19.0 67.75 M10.5 66.15 L10.3 66.15 9.75 66.45 10.25 66.7 10.75 66.85 10.95 66.35 11.15 66.1 10.9 66.1 10.5 66.15 M11.25 66.9 L11.35 66.4 11.1 66.8 11.25 66.95 11.25 66.9 M19.25 68.15 L19.5 68.45 19.9 68.8 19.9 68.6 19.4 68.1 19.25 68.15 M56.0 51.55 L55.4 51.25 55.4 51.55 55.95 52.55 56.0 51.55 M54.2 52.2 L54.45 52.2 54.45 51.8 54.2 52.2 M52.4 55.55 Q52.1 55.45 51.95 55.9 L51.95 56.45 52.0 56.45 52.45 55.6 52.4 55.55 M52.8 54.35 L52.3 55.05 52.6 55.2 52.8 54.35 M54.95 53.4 L55.0 53.5 55.2 53.45 55.15 53.2 54.95 53.4 M53.65 53.2 L53.6 53.3 53.6 53.4 53.75 53.45 53.75 53.2 53.65 53.2 M53.6 54.4 L53.5 55.3 53.6 55.3 53.75 54.5 53.6 54.4 M52.6 56.4 L53.25 56.35 53.0 56.05 52.6 56.4 M51.65 58.45 L51.5 58.7 Q51.05 58.55 50.9 58.05 L50.65 57.9 50.6 57.65 50.35 57.95 50.55 57.95 50.6 57.9 50.65 58.05 50.6 58.15 50.9 58.35 51.55 58.9 51.95 58.75 52.0 58.15 51.7 58.15 51.65 58.45 M52.4 57.5 L53.2 56.9 52.05 56.95 52.15 57.25 52.4 57.5 M51.05 59.4 L50.25 58.65 49.95 58.3 49.5 58.6 49.3 58.55 49.15 59.45 49.6 59.65 50.25 59.95 Q50.55 59.95 50.8 59.75 L51.15 59.5 51.05 59.4 M45.5 61.8 L45.7 61.7 45.65 61.45 45.6 61.45 45.4 61.75 45.5 61.8 M47.75 59.9 L47.1 60.4 47.25 60.6 47.4 60.5 48.1 60.5 48.1 60.45 47.85 60.4 47.75 59.95 47.75 59.9 M46.65 60.95 L46.15 61.6 46.1 61.65 47.1 61.25 46.7 60.9 46.65 60.95 M48.05 61.45 L48.05 61.2 47.9 61.3 48.05 61.45 M47.4 60.8 L47.6 61.0 47.75 60.85 47.4 60.8 M49.0 60.55 L48.9 61.4 49.2 61.35 49.25 61.3 49.5 61.25 49.55 61.15 49.55 61.0 49.35 60.55 49.0 60.55 M50.0 60.7 L49.9 60.5 49.7 60.55 49.9 60.95 49.8 61.3 49.9 61.3 50.0 61.2 50.05 61.0 50.0 60.7 M46.45 62.45 L46.8 62.45 48.1 62.35 47.5 61.6 46.3 62.15 46.45 62.45 M46.0 63.0 L45.35 62.5 44.6 62.85 44.4 63.15 44.45 63.2 45.45 63.85 Q45.95 63.7 46.05 63.55 L46.05 63.25 46.05 63.2 46.0 63.0 M43.75 64.8 L43.85 64.3 43.85 64.15 43.8 64.15 43.75 64.8 M41.2 64.5 L41.75 64.8 41.55 64.4 41.0 64.1 41.2 64.5 M42.5 63.25 L41.6 63.7 42.1 64.15 Q42.65 64.7 42.6 65.05 L42.95 65.0 42.75 64.15 42.5 63.25 M41.85 66.3 L42.15 66.4 42.1 66.15 41.85 66.3" fill="#fac81a" fill-rule="evenodd" stroke="none"/>
    </g>
    <g id="sprite4" transform="matrix(1.0, 0.0, 0.0, 1.0, 0.0, 0.0)">
      <clipPath id="clipPath2" transform="matrix(1.0, 0.0, 0.0, 1.0, 0.0, 0.0)">
        <use height="16.8" transform="matrix(1.0, 0.0, 0.0, 1.0, 0.0, 0.0)" width="12.95" xlink:href="#shape8"/>
      </clipPath>
      <g clip-path="url(#clipPath2)">
        <use height="15.95" transform="matrix(1.0, 0.0, 0.0, 1.0, 0.35, 0.3)" width="12.55" xlink:href="#shape9"/>
      </g>
    </g>
    <g id="shape8" transform="matrix(1.0, 0.0, 0.0, 1.0, 0.0, 0.0)">
      <path d="M0.9 0.0 L12.95 0.7 12.05 16.8 0.0 16.1 0.9 0.0" fill="#ff0000" fill-rule="evenodd" stroke="none"/>
    </g>
    <g id="shape9" transform="matrix(1.0, 0.0, 0.0, 1.0, -0.35, -0.3)">
      <path d="M12.9 1.85 Q6.8 2.9 4.25 6.2 3.6 7.05 3.4 8.15 5.7 5.7 9.0 5.8 L9.05 5.85 9.05 6.05 6.9 7.05 Q4.6 8.25 3.55 9.35 2.9 10.1 2.45 11.2 L2.4 12.3 2.65 13.2 2.85 14.4 2.85 14.5 3.0 15.3 2.9 16.15 2.5 16.25 2.15 16.1 2.05 16.15 0.8 11.75 0.6 9.8 0.35 9.95 0.6 9.75 0.65 8.15 Q0.8 5.6 1.95 3.65 3.45 1.05 6.3 0.3 L6.35 0.5 Q3.6 2.1 2.4 4.65 1.9 5.95 1.75 7.25 2.0 6.0 4.95 3.45 8.15 0.8 12.85 1.75 L12.9 1.85" fill="#aa1509" fill-rule="evenodd" stroke="none"/>
    </g>
    <g id="sprite5" transform="matrix(1.0, 0.0, 0.0, 1.0, 0.0, 0.0)">
      <clipPath id="clipPath3" transform="matrix(1.0, 0.0, 0.0, 1.0, 0.0, 0.0)">
        <use height="18.55" transform="matrix(1.0, 0.0, 0.0, 1.0, 0.0, 0.0)" width="15.6" xlink:href="#shape10"/>
      </clipPath>
      <g clip-path="url(#clipPath3)">
        <use height="14.95" transform="matrix(1.0, 0.0, 0.0, 1.0, 1.5, 1.3)" width="13.85" xlink:href="#shape11"/>
      </g>
    </g>
    <g id="shape10" transform="matrix(1.0, 0.0, 0.0, 1.0, 0.0, 0.0)">
      <path d="M3.9 0.0 L15.6 2.9 11.7 18.55 0.0 15.65 3.9 0.0" fill="#ff0000" fill-rule="evenodd" stroke="none"/>
    </g>
    <g id="shape11" transform="matrix(1.0, 0.0, 0.0, 1.0, -1.5, -1.3)">
      <path d="M15.35 4.05 Q9.25 3.9 6.05 6.7 5.3 7.35 4.8 8.45 7.55 6.5 10.75 7.2 L10.8 7.25 10.75 7.45 8.5 8.05 Q6.0 8.8 4.75 9.65 L3.3 11.3 3.05 12.35 3.15 13.3 3.15 14.5 3.1 14.6 3.1 15.4 2.85 16.2 2.4 16.25 2.1 16.05 2.0 16.05 1.6 11.5 1.75 9.55 1.5 9.65 1.75 9.5 2.1 7.95 Q2.7 5.55 4.25 3.75 6.25 1.45 9.1 1.3 L9.15 1.5 Q6.15 2.55 4.5 4.85 3.75 5.9 3.35 7.3 3.75 6.15 7.2 4.15 10.8 2.15 15.35 3.95 L15.35 4.05" fill="#aa1509" fill-rule="evenodd" stroke="none"/>
    </g>
    <g id="sprite6" transform="matrix(1.0, 0.0, 0.0, 1.0, 0.0, 0.0)">
      <clipPath id="clipPath4" transform="matrix(1.0, 0.0, 0.0, 1.0, 0.0, 0.0)">
        <use height="13.4" transform="matrix(1.0, 0.0, 0.0, 1.0, 0.0, 0.0)" width="20.85" xlink:href="#shape12"/>
      </clipPath>
      <g clip-path="url(#clipPath4)">
        <use height="12.25" transform="matrix(1.0, 0.0, 0.0, 1.0, 0.4, 0.65)" width="20.05" xlink:href="#shape13"/>
      </g>
    </g>
    <g id="shape12" transform="matrix(1.0, 0.0, 0.0, 1.0, 0.0, 0.0)">
      <path d="M0.0 1.35 L20.05 0.0 20.85 12.05 0.8 13.4 0.0 1.35" fill="#ff0000" fill-rule="evenodd" stroke="none"/>
    </g>
    <g id="shape13" transform="matrix(1.0, 0.0, 0.0, 1.0, -0.4, -0.65)">
      <path d="M13.45 0.8 Q15.55 1.3 17.75 2.7 20.05 4.15 20.4 5.7 20.7 7.3 19.4 8.4 18.1 9.65 17.05 9.5 16.85 12.05 14.2 12.05 L11.45 11.4 11.35 11.4 Q8.45 13.4 6.65 12.75 4.7 11.9 4.2 10.5 3.8 9.9 4.1 9.45 1.3 9.4 0.6 8.75 L0.4 7.85 Q0.25 5.85 2.6 3.75 4.05 2.4 6.4 1.2 L6.8 1.0 6.3 1.35 3.05 4.05 Q0.75 6.2 0.9 7.8 0.9 8.3 1.05 8.35 1.3 8.6 2.1 8.75 L4.3 8.6 Q5.6 6.4 6.6 6.35 L7.55 6.55 Q7.9 7.2 6.8 8.1 5.65 8.95 5.05 9.05 L4.65 10.35 4.75 10.45 Q6.9 12.85 9.85 11.4 L10.6 11.0 9.95 10.0 10.0 8.95 10.65 7.95 12.25 7.85 12.4 8.05 12.45 8.65 12.25 9.5 12.15 9.85 12.0 10.8 15.7 10.9 16.25 10.25 16.45 9.65 15.75 9.6 Q14.3 9.6 13.9 7.95 13.6 7.3 14.2 7.05 14.2 6.9 14.55 6.9 L16.05 6.9 Q16.6 6.95 17.15 7.65 L17.55 8.55 Q18.3 8.4 18.85 7.2 19.35 6.25 19.3 5.5 19.25 4.3 15.05 1.75 L13.45 0.8 M11.85 8.45 Q11.4 8.2 10.95 8.75 10.5 9.3 10.55 9.6 L10.65 9.95 10.65 10.05 10.95 10.4 11.3 10.45 11.4 10.45 11.6 9.85 11.7 9.65 11.85 8.6 11.85 8.45 M16.85 8.6 L16.2 7.8 14.95 7.65 Q13.95 8.2 15.35 8.8 L16.85 8.6 M5.3 8.1 L5.2 8.45 Q5.8 8.4 6.25 8.0 L7.1 7.05 7.1 6.9 Q6.75 7.0 6.2 7.45 L5.3 8.1" fill="#bf4213" fill-rule="evenodd" stroke="none"/>
      <path d="M15.05 1.75 Q19.25 4.3 19.3 5.5 19.35 6.25 18.85 7.2 18.3 8.4 17.55 8.55 L17.15 7.65 Q16.6 6.95 16.05 6.9 L14.55 6.9 Q14.2 6.9 14.2 7.05 13.6 7.3 13.9 7.95 14.3 9.6 15.75 9.6 L16.45 9.65 16.25 10.25 15.75 10.9 12.0 10.8 12.15 9.85 12.25 9.5 12.45 8.65 12.4 8.05 12.25 7.85 10.65 7.95 10.0 8.95 9.95 10.0 10.6 11.0 9.85 11.4 Q6.9 12.85 4.75 10.45 L4.65 10.35 5.05 9.05 Q5.65 8.95 6.8 8.1 7.9 7.2 7.55 6.55 L6.6 6.35 Q5.6 6.4 4.3 8.6 L2.1 8.75 Q1.3 8.6 1.05 8.35 0.9 8.3 0.9 7.8 0.75 6.2 3.05 4.05 L6.3 1.35 6.8 1.0 6.4 1.2 6.7 0.9 12.5 0.65 14.1 1.15 15.05 1.75 M11.85 8.45 L11.85 8.6 11.7 9.65 11.6 9.85 11.4 10.45 11.3 10.45 10.95 10.4 Q10.7 10.3 10.7 10.05 L10.65 9.95 10.55 9.6 Q10.5 9.3 10.95 8.75 11.4 8.2 11.85 8.45 M16.85 8.6 L15.35 8.8 Q13.95 8.2 14.95 7.65 L16.2 7.8 16.85 8.6 M5.3 8.1 L6.2 7.45 Q6.75 7.0 7.1 6.9 L7.1 7.05 6.25 8.0 Q5.8 8.4 5.2 8.45 L5.3 8.1" fill="#fac81a" fill-rule="evenodd" stroke="none"/>
    </g>
    <g id="sprite7" transform="matrix(1.0, 0.0, 0.0, 1.0, 0.0, 0.0)">
      <clipPath id="clipPath5" transform="matrix(1.0, 0.0, 0.0, 1.0, 0.0, 0.0)">
        <use height="9.7" transform="matrix(1.09, 0.0, 0.0, 1.1186, 0.0, 0.0)" width="9.45" xlink:href="#shape5"/>
      </clipPath>
      <g clip-path="url(#clipPath5)">
        <use height="10.15" transform="matrix(1.0, 0.0, 0.0, 1.0, 0.3, 0.35)" width="9.65" xlink:href="#shape14"/>
      </g>
    </g>
    <g id="shape14" transform="matrix(1.0, 0.0, 0.0, 1.0, -0.3, -0.35)">
      <path d="M9.95 4.4 Q9.65 6.2 6.4 8.2 2.05 7.1 0.7 3.85 L0.6 3.7 0.55 3.65 1.35 2.2 1.5 2.0 Q2.85 0.45 4.8 0.35 6.85 0.2 8.35 1.55 9.65 2.8 9.95 4.4 M8.75 8.15 Q6.65 12.3 2.35 9.1 0.0 7.25 0.35 4.35 2.2 8.3 6.6 9.15 8.6 7.95 9.85 6.0 L8.75 8.15" fill="#aa1509" fill-rule="evenodd" stroke="none"/>
    </g>
    <g id="sprite8" transform="matrix(1.0, 0.0, 0.0, 1.0, 0.0, 0.0)">
      <clipPath id="clipPath6" transform="matrix(1.0, 0.0, 0.0, 1.0, 0.0, 0.0)">
        <use height="18.95" transform="matrix(1.0, 0.0, 0.0, 1.0, 1.05, 0.0)" width="39.75" xlink:href="#shape15"/>
      </clipPath>
      <g clip-path="url(#clipPath6)">
        <use height="19.3" transform="matrix(1.0, 0.0, 0.0, 1.0, 0.0, 0.6)" width="18.1" xlink:href="#sprite9"/>
        <use height="15.25" transform="matrix(1.0, 0.0, 0.0, 1.0, 26.85, 2.0)" width="13.95" xlink:href="#sprite10"/>
        <use height="9.7" transform="matrix(1.0, 0.0, 0.0, 1.0, 2.05, 8.0)" width="9.45" xlink:href="#sprite11"/>
        <use height="8.8" transform="matrix(1.0, 0.0, 0.0, 1.0, 26.25, 7.7)" width="8.55" xlink:href="#sprite12"/>
      </g>
    </g>
    <g id="shape15" transform="matrix(1.0, 0.0, 0.0, 1.0, -1.05, 0.0)">
      <path d="M1.05 2.6 L39.7 0.0 40.8 16.4 2.15 18.95 1.05 2.6" fill="#ff0000" fill-rule="evenodd" stroke="none"/>
    </g>
    <g id="sprite9" transform="matrix(1.0, 0.0, 0.0, 1.0, 0.0, 0.0)">
      <clipPath id="clipPath7" transform="matrix(1.0, 0.0, 0.0, 1.0, 0.0, 0.0)">
        <use height="19.3" transform="matrix(1.0, 0.0, 0.0, 1.0, 0.0, 0.0)" width="18.1" xlink:href="#shape16"/>
      </clipPath>
      <g clip-path="url(#clipPath7)">
        <use height="16.3" transform="matrix(1.0, 0.0, 0.0, 1.0, 1.5, 1.5)" width="15.1" xlink:href="#shape17"/>
      </g>
    </g>
    <g id="shape16" transform="matrix(1.0, 0.0, 0.0, 1.0, 0.0, 0.0)">
      <path d="M14.45 0.0 L18.1 16.0 3.65 19.3 0.0 3.3 14.45 0.0" fill="#ff0000" fill-rule="evenodd" stroke="none"/>
    </g>
    <g id="shape17" transform="matrix(1.0, 0.0, 0.0, 1.0, -1.5, -1.5)">
      <path d="M12.6 2.75 Q15.2 4.45 15.95 7.7 16.65 10.95 15.05 13.5 13.55 16.25 10.55 16.9 7.6 17.6 5.05 15.8 2.45 14.1 1.75 10.9 1.0 7.8 2.6 5.05 4.15 2.4 7.1 1.7 10.05 1.0 12.6 2.75" fill="#000000" fill-rule="evenodd" stroke="none"/>
      <path d="M13.05 3.45 Q15.7 5.25 16.35 8.4 17.1 11.5 15.5 14.25 13.95 16.9 11.0 17.6 8.1 18.3 5.45 16.55 2.85 14.7 2.2 11.65 1.45 8.5 3.0 5.75 4.55 3.05 7.55 2.4 10.5 1.7 13.05 3.45" fill="#ffffff" fill-rule="evenodd" stroke="none"/>
    </g>
    <g id="sprite10" transform="matrix(1.0, 0.0, 0.0, 1.0, 0.0, 0.0)">
      <clipPath id="clipPath8" transform="matrix(1.0, 0.0, 0.0, 1.0, 0.0, 0.0)">
        <use height="9.7" transform="matrix(1.4762, 0.0, 0.0, 1.5722, 0.0, 0.0)" width="9.45" xlink:href="#shape5"/>
      </clipPath>
      <g clip-path="url(#clipPath8)">
        <use height="14.35" transform="matrix(1.0, 0.0, 0.0, 1.0, 0.5, 0.45)" width="12.95" xlink:href="#shape18"/>
      </g>
    </g>
    <g id="shape18" transform="matrix(1.0, 0.0, 0.0, 1.0, -0.5, -0.45)">
      <path d="M2.25 2.7 Q4.0 0.6 6.6 0.45 9.25 0.25 11.25 2.1 13.2 3.9 13.45 6.85 13.6 9.75 11.9 11.8 10.15 13.95 7.5 14.1 4.85 14.25 2.9 12.4 0.85 10.5 0.65 7.7 0.5 4.8 2.25 2.7" fill="#000000" fill-rule="evenodd" stroke="none"/>
      <path d="M2.05 3.4 Q3.8 1.3 6.4 1.15 9.1 1.0 11.05 2.8 13.1 4.8 13.25 7.55 13.45 10.35 11.7 12.5 10.0 14.65 7.35 14.8 4.7 15.0 2.7 13.1 0.65 11.2 0.5 8.4 0.3 5.65 2.05 3.4" fill="#ffffff" fill-rule="evenodd" stroke="none"/>
    </g>
    <g id="sprite11" transform="matrix(1.0, 0.0, 0.0, 1.0, 0.0, 0.0)">
      <clipPath id="clipPath9" transform="matrix(1.0, 0.0, 0.0, 1.0, 0.0, 0.0)">
        <use height="9.7" transform="matrix(1.0, 0.0, 0.0, 1.0, 0.0, 0.0)" width="9.45" xlink:href="#shape5"/>
      </clipPath>
      <g clip-path="url(#clipPath9)">
        <use height="9.15" transform="matrix(1.0, 0.0, 0.0, 1.0, 0.3, 0.3)" width="8.85" xlink:href="#shape19"/>
      </g>
    </g>
    <g id="shape19" transform="matrix(1.0, 0.0, 0.0, 1.0, -0.3, -0.3)">
      <path d="M4.35 0.3 Q6.95 0.1 8.7 2.5 9.55 4.85 8.75 7.1 L8.25 7.8 Q7.2 9.1 5.3 9.4 3.55 9.6 2.2 8.5 0.75 7.4 0.35 5.45 0.05 3.55 1.1 2.05 2.25 0.55 4.0 0.35 L4.35 0.3 M1.8 2.55 Q1.5 2.75 1.45 3.15 0.85 4.75 2.15 5.6 L2.1 5.65 4.9 5.6 Q6.1 3.8 5.2 2.7 4.25 1.6 3.0 1.8 2.55 1.8 1.8 2.55" fill="#000000" fill-rule="evenodd" stroke="none"/>
      <path d="M5.2 2.7 Q6.1 3.8 4.9 5.6 L2.1 5.65 2.15 5.6 Q0.85 4.75 1.45 3.15 1.5 2.75 1.8 2.55 2.55 1.8 3.0 1.8 4.25 1.6 5.2 2.7" fill="#ffffff" fill-rule="evenodd" stroke="none"/>
    </g>
    <g id="sprite12" transform="matrix(1.0, 0.0, 0.0, 1.0, 0.0, 0.0)">
      <clipPath id="clipPath10" transform="matrix(1.0, 0.0, 0.0, 1.0, 0.0, 0.0)">
        <use height="8.8" transform="matrix(1.0, 0.0, 0.0, 1.0, 0.0, 0.0)" width="8.55" xlink:href="#shape20"/>
      </clipPath>
      <g clip-path="url(#clipPath10)">
        <use height="7.7" transform="matrix(1.0, 0.0, 0.0, 1.0, 0.5, 0.55)" width="7.5" xlink:href="#shape21"/>
      </g>
    </g>
    <g id="shape20" transform="matrix(1.0, 0.0, 0.0, 1.0, 0.0, 0.0)">
      <path d="M0.0 1.2 L7.3 0.0 8.55 7.55 1.25 8.8 0.0 1.2" fill="#ff0000" fill-rule="evenodd" stroke="none"/>
    </g>
    <g id="shape21" transform="matrix(1.0, 0.0, 0.0, 1.0, -0.5, -0.55)">
      <path d="M7.8 5.9 L7.45 6.55 Q6.6 7.8 5.15 8.1 3.65 8.5 2.45 7.65 1.15 6.75 0.65 5.2 0.25 3.6 1.0 2.35 1.8 1.05 3.3 0.65 L3.6 0.6 Q5.75 0.25 7.45 2.1 8.3 3.95 7.8 5.9 M2.6 1.95 Q2.25 2.0 1.65 2.7 L1.4 3.2 Q1.0 4.6 2.2 5.2 L2.15 5.25 Q3.65 6.6 4.5 5.0 5.35 3.4 4.5 2.55 3.6 1.65 2.6 1.95" fill="#000000" fill-rule="evenodd" stroke="none"/>
      <path d="M4.5 2.55 Q5.35 3.4 4.5 5.0 3.65 6.6 2.15 5.25 L2.2 5.2 Q1.0 4.6 1.4 3.2 L1.65 2.7 Q2.25 2.0 2.6 1.95 3.6 1.65 4.5 2.55" fill="#ffffff" fill-rule="evenodd" stroke="none"/>
    </g>
    <g id="shape22" transform="matrix(1.0, 0.0, 0.0, 1.0, -42.5, -47.8)">
      <path d="M57.25 48.45 Q59.6 49.85 59.45 52.55 L59.4 54.0 60.55 54.9 Q61.55 55.65 62.0 56.85 62.45 58.0 62.2 59.25 61.9 60.7 60.85 61.65 60.0 62.45 59.0 62.65 L57.6 63.05 57.1 64.35 Q56.8 65.4 55.95 66.15 54.85 67.15 53.45 67.3 L52.75 67.35 50.85 66.8 Q49.8 66.25 49.2 65.35 L48.45 64.1 46.95 64.1 Q45.7 64.05 44.65 63.35 43.6 62.6 43.1 61.5 41.9 59.05 43.7 56.85 L44.6 55.75 44.15 54.35 Q43.8 53.15 44.15 51.95 44.5 50.7 45.4 49.85 46.7 48.6 48.6 48.7 L50.0 48.95 51.35 49.5 52.55 48.7 Q53.75 47.85 55.25 47.9 56.3 48.0 57.15 48.4 L57.25 48.45" fill="url(#gradient4)" fill-rule="evenodd" stroke="none"/>
      <path d="M57.25 48.45 Q59.6 49.85 59.45 52.55 L59.4 54.0 60.55 54.9 Q61.55 55.65 62.0 56.85 62.45 58.0 62.2 59.25 61.9 60.7 60.85 61.65 60.0 62.45 59.0 62.65 L57.6 63.05 57.1 64.35 Q56.8 65.4 55.95 66.15 54.85 67.15 53.45 67.3 L52.75 67.35 50.85 66.8 Q49.8 66.25 49.2 65.35 L48.45 64.1 46.95 64.1 Q45.7 64.05 44.65 63.35 43.6 62.6 43.1 61.5 41.9 59.05 43.7 56.85 L44.6 55.75 44.15 54.35 Q43.8 53.15 44.15 51.95 44.5 50.7 45.4 49.85 46.7 48.6 48.6 48.7 L50.0 48.95 51.35 49.5 52.55 48.7 Q53.75 47.85 55.25 47.9 56.3 48.0 57.15 48.4 L57.25 48.45 Z" fill="none" stroke="#d1deef" stroke-linecap="butt" stroke-linejoin="round" stroke-width="0.25"/>
      <path d="M53.95 50.75 L56.0 50.65 Q57.05 51.2 56.95 52.45 L56.8 55.2 59.0 56.9 Q59.95 57.55 59.7 58.75 L59.15 59.8 58.35 60.25 55.65 60.95 54.75 63.55 54.25 64.3 Q53.85 64.7 53.15 64.8 51.95 64.95 51.35 63.95 L49.85 61.65 47.05 61.55 Q45.9 61.55 45.4 60.45 44.8 59.35 45.65 58.45 L47.35 56.3 46.6 53.65 Q46.25 52.5 47.15 51.7 48.0 50.85 49.1 51.3 L51.7 52.3 53.95 50.75" fill="#171e48" fill-rule="evenodd" stroke="none"/>
      <path d="M54.5 51.5 L55.55 51.45 Q56.15 51.8 56.05 52.4 L55.9 55.6 58.45 57.6 Q58.95 57.9 58.85 58.6 L58.55 59.15 58.1 59.35 55.0 60.2 53.9 63.25 53.65 63.65 53.05 63.95 Q52.4 63.95 52.1 63.45 L50.3 60.75 47.1 60.65 Q46.45 60.65 46.2 60.1 45.95 59.5 46.3 59.0 L48.35 56.5 47.45 53.4 Q47.3 52.75 47.75 52.35 48.2 51.9 48.8 52.15 L51.8 53.3 54.5 51.5" fill="url(#gradient5)" fill-rule="evenodd" stroke="none"/>
      <path d="M54.5 51.5 L55.55 51.45 Q56.15 51.8 56.05 52.4 L55.9 55.6 58.45 57.6 Q58.95 57.9 58.85 58.6 L58.55 59.15 58.15 59.35 58.2 59.05 Q58.35 58.4 57.85 58.05 L55.3 56.05 55.45 52.85 Q55.45 52.25 54.95 51.9 L53.85 51.95 51.2 53.75 48.15 52.6 47.6 52.55 47.75 52.35 Q48.2 51.9 48.8 52.15 L51.8 53.3 54.5 51.5" fill="#f5fad7" fill-rule="evenodd" stroke="none"/>
      <path d="M126.3 49.85 Q127.2 50.7 127.55 51.95 127.9 53.15 127.55 54.35 L127.1 55.75 128.0 56.85 Q129.75 59.0 128.6 61.5 128.1 62.6 127.05 63.35 126.0 64.05 124.75 64.1 L123.25 64.1 122.5 65.35 120.85 66.8 Q120.05 67.25 118.95 67.35 L118.25 67.3 Q116.85 67.15 115.75 66.15 114.9 65.45 114.6 64.35 L114.1 63.05 112.7 62.65 Q111.7 62.45 110.85 61.65 109.8 60.7 109.5 59.25 109.25 58.0 109.7 56.85 110.15 55.65 111.15 54.9 L112.3 54.0 112.2 52.55 Q112.1 49.8 114.45 48.45 L114.55 48.4 Q115.4 48.0 116.45 47.9 117.95 47.85 119.15 48.7 L120.35 49.5 121.7 48.95 123.1 48.7 Q125.0 48.6 126.3 49.85" fill="url(#gradient6)" fill-rule="evenodd" stroke="none"/>
      <path d="M126.3 49.85 Q127.2 50.7 127.55 51.95 127.9 53.15 127.55 54.35 L127.1 55.75 128.0 56.85 Q129.75 59.0 128.6 61.5 128.1 62.6 127.05 63.35 126.0 64.05 124.75 64.1 L123.25 64.1 122.5 65.35 120.85 66.8 Q120.05 67.25 118.95 67.35 L118.25 67.3 Q116.85 67.15 115.75 66.15 114.9 65.45 114.6 64.35 L114.1 63.05 112.7 62.65 Q111.7 62.45 110.85 61.65 109.8 60.7 109.5 59.25 109.25 58.0 109.7 56.85 110.15 55.65 111.15 54.9 L112.3 54.0 112.2 52.55 Q112.1 49.8 114.45 48.45 L114.55 48.4 Q115.4 48.0 116.45 47.9 117.95 47.85 119.15 48.7 L120.35 49.5 121.7 48.95 123.1 48.7 Q125.0 48.6 126.3 49.85 Z" fill="none" stroke="#d1deef" stroke-linecap="butt" stroke-linejoin="round" stroke-width="0.25"/>
      <path d="M117.7 50.75 L120.0 52.3 122.6 51.3 Q123.7 50.85 124.55 51.7 125.45 52.5 125.1 53.65 L124.35 56.3 126.05 58.45 Q126.9 59.35 126.3 60.45 125.8 61.55 124.65 61.55 L121.85 61.65 120.35 63.95 Q119.7 64.95 118.55 64.8 117.85 64.7 117.45 64.3 L116.95 63.55 116.05 60.95 113.35 60.25 112.55 59.8 Q112.05 59.3 112.0 58.75 111.75 57.55 112.7 56.9 L114.9 55.2 114.75 52.45 Q114.65 51.2 115.7 50.65 L117.7 50.75" fill="#171e48" fill-rule="evenodd" stroke="none"/>
      <path d="M117.2 51.5 L119.9 53.3 122.9 52.15 Q123.5 51.9 123.95 52.35 124.4 52.75 124.25 53.4 L123.35 56.5 125.35 59.0 Q125.75 59.45 125.5 60.1 125.25 60.65 124.6 60.65 L121.4 60.75 119.6 63.45 Q119.3 63.95 118.65 63.95 L118.05 63.65 117.8 63.25 116.7 60.2 113.6 59.35 113.15 59.15 112.85 58.6 Q112.75 57.9 113.25 57.6 L115.8 55.6 115.65 52.4 Q115.55 51.8 116.15 51.45 L117.2 51.5" fill="url(#gradient7)" fill-rule="evenodd" stroke="none"/>
      <path d="M117.2 51.5 L119.9 53.3 122.9 52.15 Q123.5 51.9 123.95 52.35 L124.1 52.55 123.5 52.6 120.5 53.75 117.85 51.95 116.75 51.9 Q116.15 52.25 116.25 52.85 L116.4 56.05 113.85 58.05 Q113.35 58.35 113.45 59.05 L113.6 59.35 113.15 59.15 112.85 58.6 Q112.75 57.9 113.25 57.6 L115.8 55.6 115.65 52.4 Q115.55 51.8 116.15 51.45 L117.2 51.5" fill="#f5fad7" fill-rule="evenodd" stroke="none"/>
    </g>
    <linearGradient gradientTransform="matrix(0.0055, -0.0103, -0.0103, -0.0055, 52.55, 56.85)" gradientUnits="userSpaceOnUse" id="gradient4" spreadMethod="pad" x1="-819.2" x2="819.2">
      <stop offset="0.0" stop-color="#26313d"/>
      <stop offset="0.2196078431372549" stop-color="#3e4c5e"/>
      <stop offset="0.7019607843137254" stop-color="#7a90b1"/>
      <stop offset="1.0" stop-color="#a2bce7"/>
    </linearGradient>
    <linearGradient gradientTransform="matrix(0.0036, -0.0067, -0.0067, -0.0036, 52.55, 56.85)" gradientUnits="userSpaceOnUse" id="gradient5" spreadMethod="pad" x1="-819.2" x2="819.2">
      <stop offset="0.0" stop-color="#edbf35"/>
      <stop offset="0.29411764705882354" stop-color="#f0ca31"/>
      <stop offset="0.803921568627451" stop-color="#f9e728"/>
      <stop offset="0.9647058823529412" stop-color="#fcf226"/>
    </linearGradient>
    <linearGradient gradientTransform="matrix(0.0055, 0.0103, -0.0103, 0.0055, 119.15, 56.85)" gradientUnits="userSpaceOnUse" id="gradient6" spreadMethod="pad" x1="-819.2" x2="819.2">
      <stop offset="0.0" stop-color="#26313d"/>
      <stop offset="0.2196078431372549" stop-color="#3e4c5e"/>
      <stop offset="0.7019607843137254" stop-color="#7a90b1"/>
      <stop offset="1.0" stop-color="#a2bce7"/>
    </linearGradient>
    <linearGradient gradientTransform="matrix(-0.0069, -0.003, 0.003, -0.0069, 119.15, 56.85)" gradientUnits="userSpaceOnUse" id="gradient7" spreadMethod="pad" x1="-819.2" x2="819.2">
      <stop offset="0.0" stop-color="#edbf35"/>
      <stop offset="0.29411764705882354" stop-color="#f0ca31"/>
      <stop offset="0.803921568627451" stop-color="#f9e728"/>
      <stop offset="0.9647058823529412" stop-color="#fcf226"/>
    </linearGradient>
    <g id="sprite13" transform="matrix(1.0, 0.0, 0.0, 1.0, 0.0, 0.0)">
      <use height="61.9" transform="matrix(1.0, 0.0, 0.0, 1.0, 0.0, 0.0)" width="128.6" xlink:href="#shape23"/>
    </g>
    <g id="shape23" transform="matrix(1.0, 0.0, 0.0, 1.0, 0.0, 0.0)">
      <path d="M128.05 0.3 L128.6 0.0 Q127.65 25.85 109.0 43.85 90.25 61.9 64.25 61.9 38.7 61.9 20.15 44.45 1.6 27.05 0.0 1.85 7.45 21.35 24.65 33.35 42.2 45.65 63.75 45.65 85.7 45.65 103.5 32.9 120.9 20.4 128.05 0.3" fill="url(#gradient8)" fill-rule="evenodd" stroke="none"/>
    </g>
    <radialGradient cx="0" cy="0" gradientTransform="matrix(0.0616, 0.0, 0.0, -0.0616, 64.3, 30.95)" gradientUnits="userSpaceOnUse" id="gradient8" r="819.2" spreadMethod="pad">
      <stop offset="0.0" stop-color="#ccefe7" stop-opacity="0.0"/>
      <stop offset="0.09411764705882353" stop-color="#c2e4e4" stop-opacity="0.078431375"/>
      <stop offset="0.2549019607843137" stop-color="#a7c7dd" stop-opacity="0.29411766"/>
      <stop offset="0.4627450980392157" stop-color="#7d99d1" stop-opacity="0.6431373"/>
      <stop offset="0.6509803921568628" stop-color="#5369c5"/>
    </radialGradient>
    <g id="sprite14" transform="matrix(1.0, 0.0, 0.0, 1.0, 0.0, 0.0)">
      <use height="60.45" transform="matrix(1.0, 0.0, 0.0, 1.0, 0.0, 0.0)" width="119.2" xlink:href="#shape24"/>
    </g>
    <g id="shape24" transform="matrix(1.0, 0.0, 0.0, 1.0, 0.0, 0.0)">
      <path d="M104.05 19.45 Q111.3 27.45 115.4 37.25 119.2 46.4 119.2 54.5 119.2 57.2 118.65 59.3 115.7 41.35 101.15 27.35 84.0 10.9 59.6 10.9 34.8 10.9 17.85 27.35 3.25 41.5 0.5 60.45 0.0 58.6 0.0 55.8 0.0 46.9 3.8 37.4 7.8 27.35 15.1 19.3 32.5 0.0 59.6 0.0 86.35 0.0 104.05 19.45" fill="url(#gradient9)" fill-rule="evenodd" stroke="none"/>
    </g>
    <linearGradient gradientTransform="matrix(0.0, -0.0369, -0.0369, 0.0, 59.6, 30.2)" gradientUnits="userSpaceOnUse" id="gradient9" spreadMethod="pad" x1="-819.2" x2="819.2">
      <stop offset="0.12941176470588237" stop-color="#e2b8b2"/>
      <stop offset="0.9254901960784314" stop-color="#ffffff"/>
    </linearGradient>
    <g id="sprite15" transform="matrix(1.0, 0.0, 0.0, 1.0, 0.0, 0.0)">
      <use height="66.4" transform="matrix(1.0, 0.0, 0.0, 1.0, 0.0, 0.0)" width="119.2" xlink:href="#shape25"/>
    </g>
    <g id="shape25" transform="matrix(1.0, 0.0, 0.0, 1.0, 0.0, 0.0)">
      <path d="M115.4 37.25 Q119.2 46.4 119.2 54.5 119.2 62.55 114.5 64.65 110.7 66.35 101.75 64.6 L82.8 60.2 Q69.8 57.45 59.6 57.45 49.35 57.45 36.4 60.45 L17.45 65.25 Q8.45 67.3 4.7 65.75 0.0 63.85 0.0 55.8 0.0 46.9 3.8 37.4 7.8 27.35 15.1 19.3 32.5 0.0 59.6 0.0 86.35 0.0 104.05 19.45 111.3 27.45 115.4 37.25" fill="#ffffff" fill-rule="evenodd" stroke="none"/>
    </g>
  </defs>
</svg>
