<?xml version="1.0" encoding="UTF-8" standalone="no"?>
<svg xmlns:xlink="http://www.w3.org/1999/xlink" height="83.5px" width="105.05px" xmlns="http://www.w3.org/2000/svg">
  <g transform="matrix(1.0, 0.0, 0.0, 1.0, 0.0, 0.0)">
    <use height="42.8" transform="matrix(1.0, 0.0, 0.0, 1.0, 25.55, 40.7)" width="53.9" xlink:href="#shape0"/>
  </g>
  <defs>
    <g id="shape0" transform="matrix(1.0, 0.0, 0.0, 1.0, -25.55, -40.7)">
      <path d="M27.7 53.05 L28.5 52.3 Q29.5 51.55 30.4 51.4 L34.45 50.35 35.9 50.75 38.25 51.75 42.35 55.15 39.15 55.85 38.7 55.3 38.05 54.95 37.8 54.65 Q32.85 52.3 31.35 52.1 29.9 51.75 28.35 52.65 28.0 52.8 27.7 53.05" fill="url(#gradient0)" fill-rule="evenodd" stroke="none"/>
      <path d="M38.05 54.95 L38.7 55.3 39.15 55.85 40.5 57.65 Q40.0 58.5 38.4 57.5 L36.55 56.0 34.85 54.7 Q33.85 54.1 33.1 54.0 L32.1 54.1 31.05 54.75 Q30.0 55.5 29.8 56.4 29.45 58.25 30.4 61.35 31.35 64.35 32.8 66.1 33.95 67.5 36.75 69.15 L39.2 70.5 39.5 71.7 Q39.7 73.05 39.45 73.85 39.15 74.7 38.4 74.85 36.9 75.15 33.45 72.5 24.75 65.85 26.85 56.4 27.3 54.4 29.25 53.4 30.8 52.65 32.25 52.85 33.65 53.1 38.05 54.95" fill="url(#gradient1)" fill-rule="evenodd" stroke="none"/>
      <path d="M27.7 53.05 Q28.0 52.8 28.35 52.65 29.9 51.75 31.35 52.1 32.85 52.3 37.8 54.65 L38.05 54.95 Q33.65 53.1 32.25 52.85 30.8 52.65 29.25 53.4 27.3 54.4 26.85 56.4 24.75 65.85 33.45 72.5 36.9 75.15 38.4 74.85 37.35 77.0 32.55 73.05 23.85 65.95 25.95 55.8 26.35 54.0 27.7 53.05 M38.4 57.5 Q37.35 57.15 35.65 55.4 L34.85 54.7 36.55 56.0 38.4 57.5" fill="url(#gradient2)" fill-rule="evenodd" stroke="none"/>
      <path d="M62.1 76.3 L62.2 78.85 Q62.3 79.1 61.65 79.65 L59.4 81.15 Q55.35 83.2 49.05 83.5 L46.2 83.5 Q39.8 83.2 35.8 81.15 32.75 79.65 33.0 78.85 L34.0 55.85 47.65 56.75 61.25 55.85 61.95 73.35 59.75 72.3 58.05 70.9 56.95 72.25 Q55.8 74.0 55.55 76.45 55.3 79.4 57.95 80.55 L59.95 80.6 Q61.0 80.2 61.35 78.85 L62.1 76.3" fill="url(#gradient3)" fill-rule="evenodd" stroke="none"/>
      <path d="M62.1 76.3 L61.35 78.85 Q61.0 80.2 59.95 80.6 L57.95 80.55 Q55.3 79.4 55.55 76.45 55.8 74.0 56.95 72.25 L58.05 70.9 59.75 72.3 61.95 73.35 62.55 73.75 62.4 74.85 62.1 76.3" fill="#1f2224" fill-rule="evenodd" stroke="none"/>
      <path d="M36.7 56.35 L37.15 56.1 42.45 56.45 42.55 56.85 42.15 60.6 41.45 65.85 Q41.35 67.3 42.1 72.3 42.8 77.2 42.7 78.2 42.55 79.85 40.65 82.8 37.6 82.15 35.3 80.9 35.9 76.55 36.35 66.05 L36.7 56.35" fill="url(#gradient4)" fill-rule="evenodd" stroke="none"/>
      <path d="M59.3 56.0 L59.95 56.0 60.3 66.2 59.05 67.4 Q57.6 68.95 56.7 70.5 55.85 72.05 55.45 73.15 L55.3 73.9 55.3 71.6 Q55.4 69.15 55.85 68.35 56.3 67.55 56.25 66.85 L56.0 64.95 55.45 57.4 59.3 56.0" fill="url(#gradient5)" fill-rule="evenodd" stroke="none"/>
      <path d="M60.55 55.35 Q61.2 55.8 61.2 56.3 61.2 57.6 57.2 58.55 L47.45 59.45 37.75 58.55 Q33.75 57.6 33.75 56.3 33.75 56.05 33.9 55.75 L34.0 55.55 34.55 54.9 Q35.15 54.0 35.3 52.5 L35.35 52.3 35.5 52.3 39.55 52.05 44.0 53.25 47.45 53.15 50.85 53.25 55.25 52.05 59.3 52.3 59.5 52.3 59.55 52.5 Q59.7 54.35 60.55 55.35" fill="url(#gradient6)" fill-rule="evenodd" stroke="none"/>
      <path d="M60.55 54.8 Q61.2 55.25 61.2 55.75 61.2 57.1 57.2 58.0 53.15 58.95 47.45 58.95 L37.75 58.0 Q33.75 57.1 33.75 55.75 33.75 55.5 33.9 55.25 L34.0 55.0 34.55 54.4 Q35.15 53.45 35.3 51.95 L35.35 51.75 35.5 51.75 39.55 51.5 44.0 52.7 47.45 52.6 50.85 52.7 55.25 51.5 59.3 51.75 59.5 51.75 59.55 51.95 Q59.7 53.8 60.55 54.8" fill="url(#gradient7)" fill-rule="evenodd" stroke="none"/>
      <path d="M50.85 52.7 L55.25 51.5 55.65 51.55 52.3 53.55 53.2 53.6 55.0 53.8 51.65 54.45 45.7 54.2 41.8 54.45 Q41.5 55.05 42.0 56.0 L42.55 56.85 42.25 57.6 Q41.65 58.3 40.1 58.0 L37.3 57.35 Q36.45 57.15 36.85 57.05 L37.5 56.8 37.75 55.8 37.75 53.8 36.7 53.35 Q35.6 52.7 35.4 51.75 L35.5 51.75 39.55 51.5 44.0 52.7 47.45 52.6 50.85 52.7" fill="url(#gradient8)" fill-rule="evenodd" stroke="none"/>
      <path d="M59.1 51.75 L59.5 51.75 59.55 51.95 59.55 52.1 58.8 52.45 59.1 51.75" fill="url(#gradient9)" fill-rule="evenodd" stroke="none"/>
      <path d="M58.8 52.45 L58.25 53.3 58.0 53.9 Q58.0 54.5 59.05 55.75 L59.4 56.0 58.65 56.5 Q58.0 57.0 56.2 57.45 L54.45 57.85 55.2 57.15 56.25 55.7 Q56.7 54.8 56.35 54.35 56.15 54.05 55.0 53.8 L58.8 52.45" fill="url(#gradient10)" fill-rule="evenodd" stroke="none"/>
      <path d="M55.0 53.8 L53.2 53.6 52.3 53.55 55.65 51.55 59.1 51.75 58.8 52.45 55.0 53.8" fill="url(#gradient11)" fill-rule="evenodd" stroke="none"/>
      <path d="M55.0 53.8 L53.2 53.6 52.3 53.55 55.65 51.55 59.1 51.75 58.8 52.45 55.0 53.8" fill="url(#gradient12)" fill-rule="evenodd" stroke="none"/>
      <path d="M35.3 52.0 Q35.3 51.25 38.85 50.7 L47.5 50.15 56.15 50.7 Q59.7 51.25 59.7 52.0 59.7 52.75 56.15 53.3 L47.5 53.8 38.85 53.3 Q35.3 52.75 35.3 52.0 M37.4 51.85 Q37.4 52.4 40.45 52.85 L47.55 53.2 54.7 52.85 Q57.65 52.4 57.65 51.85 57.65 51.3 54.7 50.9 L47.55 50.5 40.45 50.9 Q37.4 51.3 37.4 51.85" fill="url(#gradient13)" fill-rule="evenodd" stroke="none"/>
      <path d="M37.4 51.85 Q37.4 51.3 40.45 50.9 L47.55 50.5 54.7 50.9 Q57.65 51.3 57.65 51.85 57.65 52.4 54.7 52.85 L47.55 53.2 40.45 52.85 Q37.4 52.4 37.4 51.85" fill="url(#gradient14)" fill-rule="evenodd" stroke="none"/>
      <path d="M47.35 40.85 L49.35 40.75 Q50.6 40.6 51.55 41.1 L52.3 41.65 52.45 41.8 52.9 42.35 Q53.3 43.05 53.7 44.7 L54.05 46.95 Q54.05 47.7 53.55 48.0 L53.4 48.05 53.35 48.05 53.35 47.95 53.55 46.7 Q53.75 46.15 53.3 44.75 52.8 43.2 51.95 42.3 51.1 41.55 49.4 41.4 L46.05 41.55 Q45.45 41.65 44.95 41.9 L44.25 42.7 44.15 42.9 44.1 43.35 44.05 44.55 44.0 44.9 44.0 45.35 44.0 46.1 44.1 49.05 44.1 49.25 Q44.25 51.05 43.9 51.65 L43.9 51.3 43.7 49.0 43.7 48.85 43.5 45.0 43.5 43.5 43.65 41.85 Q43.7 41.5 44.15 41.35 L45.95 40.95 47.35 40.85" fill="#6f7980" fill-rule="evenodd" stroke="none"/>
      <path d="M47.35 40.85 L45.95 40.95 44.15 41.35 43.35 41.4 47.35 40.85 M44.1 43.35 L44.15 42.9 44.25 42.7 44.95 41.9 Q45.45 41.65 46.05 41.55 L49.4 41.4 Q51.1 41.55 51.95 42.3 52.8 43.2 53.3 44.75 53.75 46.15 53.55 46.7 L53.35 47.95 53.3 47.75 Q53.0 46.8 52.2 46.5 51.4 46.25 50.75 46.8 50.5 47.0 50.4 47.35 L50.25 46.75 50.3 44.5 Q50.25 43.6 49.2 43.3 L45.4 43.2 44.1 43.35 M53.4 48.05 L53.55 48.0 53.45 48.15 53.4 48.05 M39.8 42.75 L39.7 43.1 39.7 42.8 39.8 42.75" fill="url(#gradient15)" fill-rule="evenodd" stroke="none"/>
      <path d="M44.15 41.35 Q43.7 41.5 43.65 41.85 L43.5 43.5 43.5 45.0 43.7 48.85 43.7 49.0 43.9 51.3 43.8 51.45 Q43.45 52.15 42.1 52.1 40.5 51.95 39.9 50.85 L39.7 50.55 Q39.2 49.55 39.15 47.65 39.1 45.9 39.55 43.85 L39.7 43.1 39.8 42.75 39.95 42.25 41.55 41.75 43.35 41.4 44.15 41.35 M44.1 49.05 L44.0 46.1 44.0 46.9 44.0 47.35 44.1 49.05" fill="url(#gradient16)" fill-rule="evenodd" stroke="none"/>
      <path d="M53.35 47.95 L53.35 48.05 53.4 48.05 53.45 48.15 54.25 51.0 49.8 50.55 Q49.8 49.85 49.95 49.05 50.05 47.95 50.4 47.35 50.5 47.0 50.75 46.8 51.4 46.25 52.2 46.5 53.0 46.8 53.3 47.75 L53.35 47.95" fill="#2d3033" fill-rule="evenodd" stroke="none"/>
      <path d="M43.9 51.3 L43.9 51.65 Q44.25 51.05 44.1 49.25 44.55 49.75 44.8 50.55 L45.75 53.55 39.3 53.05 39.5 51.35 39.7 50.55 39.9 50.85 Q40.5 51.95 42.1 52.1 43.45 52.15 43.8 51.45 L43.9 51.3" fill="#35393c" fill-rule="evenodd" stroke="none"/>
      <path d="M76.95 52.2 L77.15 52.25 77.4 52.6 77.4 52.65 76.95 52.55 Q76.5 52.35 76.65 52.2 L76.95 52.2 M79.3 57.0 L79.1 57.45 79.05 57.5 79.0 57.55 72.7 59.6 68.65 66.05 63.5 74.7 61.5 78.7 60.75 79.1 60.4 79.2 58.35 79.1 58.2 79.05 58.25 79.05 Q59.4 79.1 60.4 78.0 61.5 76.9 62.3 74.8 63.2 72.45 66.7 66.95 L70.9 60.55 Q71.65 59.35 71.3 58.35 L70.75 57.55 71.35 57.85 72.5 58.2 Q73.15 58.35 72.8 57.55 L71.1 54.9 69.9 53.05 Q71.2 54.45 73.15 55.4 74.95 56.35 76.6 56.7 78.3 57.05 79.35 56.7 L79.3 57.0 M72.45 54.55 L72.45 54.45 72.9 54.5 73.25 54.85 73.05 54.9 72.7 54.8 72.45 54.55 M71.5 53.4 L71.05 53.35 Q70.65 53.15 70.75 53.0 L71.25 53.05 71.5 53.4 M73.25 54.1 L72.95 53.75 73.45 53.8 73.8 54.15 73.25 54.1 M72.9 52.25 L73.35 52.3 73.65 52.65 73.1 52.6 Q72.75 52.4 72.9 52.25 M72.8 51.4 L72.55 51.1 73.05 51.15 73.35 51.45 72.8 51.4 M71.55 52.4 L72.0 52.45 72.3 52.8 71.8 52.75 Q71.4 52.55 71.55 52.4 M71.6 51.4 L71.9 51.75 71.4 51.75 Q71.0 51.55 71.1 51.35 L71.6 51.4 M71.55 50.45 L71.1 50.4 Q70.7 50.25 70.8 50.1 L71.3 50.15 Q71.7 50.35 71.55 50.45 M73.15 50.6 Q72.75 50.4 72.9 50.3 72.95 50.1 73.4 50.3 73.8 50.5 73.65 50.65 L73.15 50.6 M75.35 52.1 L74.85 52.05 74.6 51.7 75.15 51.75 Q75.5 51.9 75.35 52.1 M75.35 51.35 Q75.0 51.2 75.15 51.05 75.2 50.85 75.6 51.05 L75.9 51.4 75.35 51.35 M74.05 52.35 L74.55 52.4 74.85 52.75 74.3 52.7 Q73.9 52.55 74.05 52.35 M78.35 55.35 Q77.95 55.15 78.1 54.95 L78.6 55.0 78.85 55.35 78.35 55.35 M76.85 55.45 L76.55 55.1 77.1 55.15 77.35 55.5 76.85 55.45 M76.35 54.05 L76.85 54.1 77.1 54.45 76.6 54.45 Q76.2 54.2 76.35 54.05 M76.4 52.85 L76.65 53.2 76.15 53.15 Q75.75 52.95 75.9 52.8 L76.4 52.85 M78.0 54.0 Q77.6 53.85 77.75 53.65 L78.25 53.7 78.5 54.05 78.0 54.0 M75.35 54.15 L75.6 54.5 75.15 54.45 Q74.75 54.3 74.85 54.1 L75.35 54.15 M75.05 54.95 L75.25 55.35 75.1 55.4 74.75 55.3 74.5 54.95 Q74.65 54.8 75.05 54.95 M74.25 53.5 L73.8 53.45 73.5 53.1 Q73.6 52.95 74.0 53.1 L74.25 53.3 74.25 53.5 M75.45 53.6 L74.95 53.55 Q74.6 53.4 74.7 53.2 L75.2 53.25 75.45 53.6 M69.7 51.55 L70.2 51.6 70.45 51.95 69.95 51.9 Q69.55 51.7 69.7 51.55 M70.2 50.9 L69.75 50.85 Q69.35 50.65 69.45 50.5 L69.95 50.55 Q70.35 50.75 70.2 50.9" fill="#1c1e1f" fill-rule="evenodd" stroke="none"/>
      <path d="M68.75 50.0 L69.45 49.75 69.75 49.65 69.85 49.6 70.0 49.6 70.8 49.5 71.05 49.5 Q72.9 49.55 75.2 50.85 L75.55 51.0 75.65 51.05 75.85 51.2 76.05 51.3 76.95 52.2 76.65 52.2 Q76.5 52.35 76.95 52.55 L77.4 52.65 79.0 54.15 Q79.4 54.9 79.45 55.8 L79.45 55.95 79.45 56.2 79.45 56.3 79.4 56.35 Q78.3 56.7 76.7 56.35 75.05 56.0 73.35 55.1 L73.05 54.9 73.25 54.85 72.9 54.5 72.45 54.45 72.45 54.55 Q70.95 53.65 70.0 52.6 68.75 51.15 68.75 50.0 M78.0 54.0 L78.5 54.05 78.25 53.7 77.75 53.65 Q77.6 53.85 78.0 54.0 M76.4 52.85 L75.9 52.8 Q75.75 52.95 76.15 53.15 L76.65 53.2 76.4 52.85 M76.35 54.05 Q76.2 54.2 76.6 54.45 L77.1 54.45 76.85 54.1 76.35 54.05 M76.85 55.45 L77.35 55.5 77.1 55.15 76.55 55.1 76.85 55.45 M78.35 55.35 L78.85 55.35 78.6 55.0 78.1 54.95 Q77.95 55.15 78.35 55.35 M74.05 52.35 Q73.9 52.55 74.3 52.7 L74.85 52.75 74.55 52.4 74.05 52.35 M75.35 51.35 L75.9 51.4 75.6 51.05 Q75.2 50.85 75.15 51.05 75.0 51.2 75.35 51.35 M75.35 52.1 Q75.5 51.9 75.15 51.75 L74.6 51.7 74.85 52.05 75.35 52.1 M73.15 50.6 L73.65 50.65 Q73.8 50.5 73.4 50.3 72.95 50.1 72.9 50.3 72.75 50.4 73.15 50.6 M71.55 50.45 Q71.7 50.35 71.3 50.15 L70.8 50.1 Q70.7 50.25 71.1 50.4 L71.55 50.45 M71.6 51.4 L71.1 51.35 Q71.0 51.55 71.4 51.75 L71.9 51.75 71.6 51.4 M71.55 52.4 Q71.4 52.55 71.8 52.75 L72.3 52.8 72.0 52.45 71.55 52.4 M72.8 51.4 L73.35 51.45 73.05 51.15 72.55 51.1 72.8 51.4 M72.9 52.25 Q72.75 52.4 73.1 52.6 L73.65 52.65 73.35 52.3 72.9 52.25 M73.25 54.1 L73.8 54.15 73.45 53.8 72.95 53.75 73.25 54.1 M71.5 53.4 L71.25 53.05 70.75 53.0 Q70.65 53.15 71.05 53.35 L71.5 53.4 M75.45 53.6 L75.2 53.25 74.7 53.2 Q74.6 53.4 74.95 53.55 L75.45 53.6 M74.25 53.5 L74.25 53.3 74.0 53.1 Q73.6 52.95 73.5 53.1 L73.8 53.45 74.25 53.5 M75.05 54.95 Q74.65 54.8 74.5 54.95 L74.75 55.3 75.1 55.4 75.25 55.35 75.05 54.95 M75.35 54.15 L74.85 54.1 Q74.75 54.3 75.15 54.45 L75.6 54.5 75.35 54.15 M70.2 50.9 Q70.35 50.75 69.95 50.55 L69.45 50.5 Q69.35 50.65 69.75 50.85 L70.2 50.9 M69.7 51.55 Q69.55 51.7 69.95 51.9 L70.45 51.95 70.2 51.6 69.7 51.55" fill="url(#gradient17)" fill-rule="evenodd" stroke="none"/>
      <path d="M68.6 50.15 L68.75 50.0 Q68.75 51.15 70.0 52.6 70.95 53.65 72.45 54.55 L72.7 54.8 73.05 54.9 73.35 55.1 Q75.05 56.0 76.7 56.35 78.3 56.7 79.4 56.35 L79.35 56.7 Q78.3 57.05 76.6 56.7 74.95 56.35 73.15 55.4 71.2 54.45 69.9 53.05 L68.6 50.15" fill="url(#gradient18)" fill-rule="evenodd" stroke="none"/>
      <path d="M79.45 56.3 L79.3 57.0 79.35 56.7 79.4 56.35 79.45 56.3 M58.25 79.05 Q56.9 78.3 56.65 75.6 56.4 73.15 57.25 71.55 L58.1 70.35 Q58.45 70.35 62.4 65.25 L67.15 58.75 68.5 56.5 68.1 50.55 68.45 50.2 68.55 50.15 Q68.35 51.4 69.9 53.05 L71.1 54.9 72.8 57.55 Q73.15 58.35 72.5 58.2 L71.35 57.85 70.75 57.55 71.3 58.35 Q71.65 59.35 70.9 60.55 L66.7 66.95 Q63.2 72.45 62.3 74.8 61.5 76.9 60.4 78.0 59.4 79.1 58.25 79.05" fill="url(#gradient19)" fill-rule="evenodd" stroke="none"/>
      <path d="M68.55 50.15 L68.6 50.15 69.9 53.05 Q68.35 51.4 68.55 50.15" fill="url(#gradient20)" fill-rule="evenodd" stroke="none"/>
    </g>
    <linearGradient gradientTransform="matrix(0.009, 0.0, 0.0, -0.009, 35.0, 53.35)" gradientUnits="userSpaceOnUse" id="gradient0" spreadMethod="pad" x1="-819.2" x2="819.2">
      <stop offset="0.0" stop-color="#979ea1"/>
      <stop offset="0.8117647058823529" stop-color="#565d61"/>
    </linearGradient>
    <linearGradient gradientTransform="matrix(-2.0E-4, 0.0094, 0.0094, 2.0E-4, 33.5, 61.5)" gradientUnits="userSpaceOnUse" id="gradient1" spreadMethod="pad" x1="-819.2" x2="819.2">
      <stop offset="0.0" stop-color="#1b1e1f"/>
      <stop offset="1.0" stop-color="#42494d"/>
    </linearGradient>
    <linearGradient gradientTransform="matrix(-2.0E-4, 0.0101, 0.0101, 2.0E-4, 32.6, 61.25)" gradientUnits="userSpaceOnUse" id="gradient2" spreadMethod="pad" x1="-819.2" x2="819.2">
      <stop offset="0.0" stop-color="#979ea1"/>
      <stop offset="0.8117647058823529" stop-color="#565d61"/>
    </linearGradient>
    <linearGradient gradientTransform="matrix(0.0178, 0.0, 0.0, -0.0178, 47.65, 69.75)" gradientUnits="userSpaceOnUse" id="gradient3" spreadMethod="pad" x1="-819.2" x2="819.2">
      <stop offset="0.0" stop-color="#5b6469"/>
      <stop offset="0.1607843137254902" stop-color="#444c4f"/>
      <stop offset="0.34509803921568627" stop-color="#2f3437"/>
      <stop offset="0.4588235294117647" stop-color="#272c2e"/>
      <stop offset="0.6039215686274509" stop-color="#2b2f32"/>
      <stop offset="0.7411764705882353" stop-color="#353b3d"/>
      <stop offset="0.8784313725490196" stop-color="#454e50"/>
      <stop offset="1.0" stop-color="#5a6569"/>
    </linearGradient>
    <linearGradient gradientTransform="matrix(0.0053, 0.0, 0.0, -0.0053, 38.4, 69.45)" gradientUnits="userSpaceOnUse" id="gradient4" spreadMethod="pad" x1="-819.2" x2="819.2">
      <stop offset="0.0" stop-color="#ffffff" stop-opacity="0.32941177"/>
      <stop offset="1.0" stop-color="#ffffff" stop-opacity="0.0"/>
    </linearGradient>
    <linearGradient gradientTransform="matrix(4.0E-4, 0.009, 0.009, -4.0E-4, 57.45, 61.7)" gradientUnits="userSpaceOnUse" id="gradient5" spreadMethod="pad" x1="-819.2" x2="819.2">
      <stop offset="0.0" stop-color="#ffffff" stop-opacity="0.2"/>
      <stop offset="1.0" stop-color="#ffffff" stop-opacity="0.0"/>
    </linearGradient>
    <linearGradient gradientTransform="matrix(0.0168, 0.0, 0.0, -0.0168, 47.45, 55.75)" gradientUnits="userSpaceOnUse" id="gradient6" spreadMethod="pad" x1="-819.2" x2="819.2">
      <stop offset="0.0" stop-color="#495254"/>
      <stop offset="0.011764705882352941" stop-color="#4f585a"/>
      <stop offset="0.09019607843137255" stop-color="#767e80"/>
      <stop offset="0.15294117647058825" stop-color="#8e9598"/>
      <stop offset="0.18823529411764706" stop-color="#979ea1"/>
      <stop offset="0.8117647058823529" stop-color="#565d61"/>
    </linearGradient>
    <linearGradient gradientTransform="matrix(0.0168, 0.0, 0.0, -0.0168, 47.45, 55.2)" gradientUnits="userSpaceOnUse" id="gradient7" spreadMethod="pad" x1="-819.2" x2="819.2">
      <stop offset="0.0" stop-color="#495254"/>
      <stop offset="0.043137254901960784" stop-color="#454d4f"/>
      <stop offset="0.30196078431372547" stop-color="#2f3537"/>
      <stop offset="0.4588235294117647" stop-color="#272c2e"/>
      <stop offset="0.6039215686274509" stop-color="#2b2f32"/>
      <stop offset="0.7411764705882353" stop-color="#353b3d"/>
      <stop offset="0.8784313725490196" stop-color="#454e50"/>
      <stop offset="1.0" stop-color="#5a6569"/>
    </linearGradient>
    <linearGradient gradientTransform="matrix(0.0074, 5.0E-4, 5.0E-4, -0.0074, 38.45, 54.1)" gradientUnits="userSpaceOnUse" id="gradient8" spreadMethod="pad" x1="-819.2" x2="819.2">
      <stop offset="0.0" stop-color="#ffffff" stop-opacity="0.32941177"/>
      <stop offset="1.0" stop-color="#ffffff" stop-opacity="0.0"/>
    </linearGradient>
    <linearGradient gradientTransform="matrix(0.0074, 5.0E-4, 5.0E-4, -0.0074, 38.7, 50.6)" gradientUnits="userSpaceOnUse" id="gradient9" spreadMethod="pad" x1="-819.2" x2="819.2">
      <stop offset="0.0" stop-color="#ffffff" stop-opacity="0.32941177"/>
      <stop offset="1.0" stop-color="#ffffff" stop-opacity="0.0"/>
    </linearGradient>
    <linearGradient gradientTransform="matrix(-1.0E-4, 0.0047, 0.0047, 1.0E-4, 57.0, 54.15)" gradientUnits="userSpaceOnUse" id="gradient10" spreadMethod="pad" x1="-819.2" x2="819.2">
      <stop offset="0.0" stop-color="#ffffff" stop-opacity="0.2"/>
      <stop offset="1.0" stop-color="#ffffff" stop-opacity="0.0"/>
    </linearGradient>
    <linearGradient gradientTransform="matrix(0.0074, 5.0E-4, 5.0E-4, -0.0074, 38.65, 51.45)" gradientUnits="userSpaceOnUse" id="gradient11" spreadMethod="pad" x1="-819.2" x2="819.2">
      <stop offset="0.0" stop-color="#ffffff" stop-opacity="0.32941177"/>
      <stop offset="1.0" stop-color="#ffffff" stop-opacity="0.0"/>
    </linearGradient>
    <linearGradient gradientTransform="matrix(-1.0E-4, 0.0047, 0.0047, 1.0E-4, 55.7, 54.15)" gradientUnits="userSpaceOnUse" id="gradient12" spreadMethod="pad" x1="-819.2" x2="819.2">
      <stop offset="0.0" stop-color="#ffffff" stop-opacity="0.2"/>
      <stop offset="1.0" stop-color="#ffffff" stop-opacity="0.0"/>
    </linearGradient>
    <linearGradient gradientTransform="matrix(0.0149, 0.0, 0.0, -0.0149, 47.5, 52.0)" gradientUnits="userSpaceOnUse" id="gradient13" spreadMethod="pad" x1="-819.2" x2="819.2">
      <stop offset="0.0" stop-color="#979ea1"/>
      <stop offset="0.8117647058823529" stop-color="#565d61"/>
    </linearGradient>
    <linearGradient gradientTransform="matrix(0.0123, 0.0, 0.0, -0.0123, 47.55, 51.85)" gradientUnits="userSpaceOnUse" id="gradient14" spreadMethod="pad" x1="-819.2" x2="819.2">
      <stop offset="0.0" stop-color="#1b1e1f"/>
      <stop offset="1.0" stop-color="#42494d"/>
    </linearGradient>
    <linearGradient gradientTransform="matrix(0.0087, 0.0, 0.0, -0.0087, 46.8, 44.8)" gradientUnits="userSpaceOnUse" id="gradient15" spreadMethod="pad" x1="-819.2" x2="819.2">
      <stop offset="0.0" stop-color="#1b1e1f"/>
      <stop offset="1.0" stop-color="#42494d"/>
    </linearGradient>
    <linearGradient gradientTransform="matrix(2.0E-4, 0.0045, 0.0045, -2.0E-4, 41.85, 45.15)" gradientUnits="userSpaceOnUse" id="gradient16" spreadMethod="pad" x1="-819.2" x2="819.2">
      <stop offset="0.0" stop-color="#979ea1"/>
      <stop offset="0.8117647058823529" stop-color="#565d61"/>
    </linearGradient>
    <linearGradient gradientTransform="matrix(0.0047, 0.0036, 0.0036, -0.0047, 74.05, 52.8)" gradientUnits="userSpaceOnUse" id="gradient17" spreadMethod="pad" x1="-819.2" x2="819.2">
      <stop offset="0.0" stop-color="#5b6469"/>
      <stop offset="0.34509803921568627" stop-color="#444c4f"/>
      <stop offset="0.7490196078431373" stop-color="#2f3437"/>
      <stop offset="1.0" stop-color="#272c2e"/>
    </linearGradient>
    <linearGradient gradientTransform="matrix(0.0047, 0.0036, 0.0036, -0.0047, 73.35, 53.8)" gradientUnits="userSpaceOnUse" id="gradient18" spreadMethod="pad" x1="-819.2" x2="819.2">
      <stop offset="0.0" stop-color="#5b6469"/>
      <stop offset="0.058823529411764705" stop-color="#748186"/>
      <stop offset="0.1450980392156863" stop-color="#97a7ad"/>
      <stop offset="0.21568627450980393" stop-color="#acbec6"/>
      <stop offset="0.25882352941176473" stop-color="#b4c7cf"/>
      <stop offset="1.0" stop-color="#272c2e"/>
    </linearGradient>
    <linearGradient gradientTransform="matrix(0.0056, 0.004, 0.004, -0.0056, 68.15, 65.9)" gradientUnits="userSpaceOnUse" id="gradient19" spreadMethod="pad" x1="-819.2" x2="819.2">
      <stop offset="0.0" stop-color="#5b6469"/>
      <stop offset="0.1607843137254902" stop-color="#444c4f"/>
      <stop offset="0.34509803921568627" stop-color="#2f3437"/>
      <stop offset="0.4588235294117647" stop-color="#272c2e"/>
      <stop offset="0.6039215686274509" stop-color="#2b2f32"/>
      <stop offset="0.7411764705882353" stop-color="#353b3d"/>
      <stop offset="0.8784313725490196" stop-color="#454e50"/>
      <stop offset="1.0" stop-color="#5a6569"/>
    </linearGradient>
    <linearGradient gradientTransform="matrix(0.0047, 0.0036, 0.0036, -0.0047, 72.9, 54.4)" gradientUnits="userSpaceOnUse" id="gradient20" spreadMethod="pad" x1="-819.2" x2="819.2">
      <stop offset="0.0" stop-color="#5b6469"/>
      <stop offset="0.058823529411764705" stop-color="#748186"/>
      <stop offset="0.1450980392156863" stop-color="#97a7ad"/>
      <stop offset="0.21568627450980393" stop-color="#acbec6"/>
      <stop offset="0.25882352941176473" stop-color="#b4c7cf"/>
      <stop offset="1.0" stop-color="#272c2e"/>
    </linearGradient>
  </defs>
</svg>
