<?xml version="1.0" encoding="UTF-8" standalone="no"?>
<svg xmlns:xlink="http://www.w3.org/1999/xlink" height="106.1px" width="86.25px" xmlns="http://www.w3.org/2000/svg">
  <g transform="matrix(1.0, 0.0, 0.0, 1.0, 0.0, 0.0)">
    <use height="6.1" transform="matrix(1.0, 0.0, 0.0, 1.0, 62.1, 97.45)" width="19.1" xlink:href="#sprite0"/>
    <use height="4.65" transform="matrix(1.0, 0.0, 0.0, 1.0, 21.75, 100.75)" width="17.15" xlink:href="#sprite1"/>
    <use height="5.35" transform="matrix(1.0, 0.0, 0.0, 1.0, 41.2, 83.15)" width="17.15" xlink:href="#sprite2"/>
    <use height="6.2" transform="matrix(1.0, 0.0, 0.0, 1.0, 6.1, 87.4)" width="17.15" xlink:href="#sprite3"/>
    <use height="106.1" transform="matrix(1.0, 0.0, 0.0, 1.0, 0.0, 0.0)" width="86.25" xlink:href="#shape4"/>
    <use height="8.15" transform="matrix(1.0, 0.0, 0.0, 1.0, 26.45, 16.65)" width="8.8" xlink:href="#sprite4"/>
    <use height="8.15" transform="matrix(1.0, 0.0, 0.0, 1.0, 37.7, 26.65)" width="8.8" xlink:href="#sprite5"/>
    <use height="8.15" transform="matrix(1.0, 0.0, 0.0, 1.0, 16.7, 28.9)" width="8.8" xlink:href="#sprite6"/>
    <use height="8.15" transform="matrix(1.0, 0.0, 0.0, 1.0, 27.95, 37.4)" width="8.8" xlink:href="#sprite7"/>
  </g>
  <defs>
    <g id="sprite0" transform="matrix(1.0, 0.0, 0.0, 1.0, 0.0, -0.05)">
      <use height="6.1" transform="matrix(1.0, 0.0, 0.0, 1.0, 0.0, 0.05)" width="19.1" xlink:href="#shape0"/>
    </g>
    <g id="shape0" transform="matrix(1.0, 0.0, 0.0, 1.0, 0.0, -0.05)">
      <path d="M14.3 6.15 L9.8 5.75 Q7.0 5.4 3.3 4.3 2.95 4.15 2.95 4.8 1.85 4.3 0.9 3.1 0.0 1.95 0.0 1.2 0.0 -0.05 3.6 0.05 L10.8 0.55 Q13.7 0.75 16.0 1.6 18.25 2.4 19.1 3.55 16.65 5.3 14.3 6.15" fill="url(#gradient0)" fill-rule="evenodd" stroke="none"/>
    </g>
    <radialGradient cx="0" cy="0" gradientTransform="matrix(-0.0095, -5.0E-4, 0.0, -0.0039, 9.8, 3.65)" gradientUnits="userSpaceOnUse" id="gradient0" r="819.2" spreadMethod="pad">
      <stop offset="0.0" stop-color="#000000"/>
      <stop offset="1.0" stop-color="#000000" stop-opacity="0.0"/>
    </radialGradient>
    <g id="sprite1" transform="matrix(1.0, 0.0, 0.0, 1.0, 0.0, 0.0)">
      <use height="4.65" transform="matrix(1.0, 0.0, 0.0, 1.0, 0.0, 0.0)" width="17.15" xlink:href="#shape1"/>
    </g>
    <g id="shape1" transform="matrix(1.0, 0.0, 0.0, 1.0, 0.0, 0.0)">
      <path d="M12.3 4.3 L8.55 4.6 2.8 4.1 Q2.45 4.05 2.45 4.5 0.0 3.65 0.0 2.5 0.05 1.35 2.65 0.6 5.25 -0.15 8.85 0.0 L14.05 0.75 Q16.3 1.4 17.15 2.25 14.6 3.6 12.3 4.3" fill="url(#gradient1)" fill-rule="evenodd" stroke="none"/>
    </g>
    <radialGradient cx="0" cy="0" gradientTransform="matrix(-0.009, -3.0E-4, 1.0E-4, -0.0029, 8.8, 2.8)" gradientUnits="userSpaceOnUse" id="gradient1" r="819.2" spreadMethod="pad">
      <stop offset="0.0" stop-color="#000000"/>
      <stop offset="1.0" stop-color="#000000" stop-opacity="0.0"/>
    </radialGradient>
    <g id="sprite2" transform="matrix(1.0, 0.0, 0.0, 1.0, 0.0, 0.0)">
      <use height="5.35" transform="matrix(1.0, 0.0, 0.0, 1.0, 0.0, 0.0)" width="17.15" xlink:href="#shape2"/>
    </g>
    <g id="shape2" transform="matrix(1.0, 0.0, 0.0, 1.0, 0.0, 0.0)">
      <path d="M12.3 5.0 L8.55 5.3 Q6.2 5.6 2.8 4.7 2.45 4.65 2.45 5.2 0.0 4.15 0.0 2.85 0.05 1.55 2.65 0.7 5.25 -0.15 8.85 0.05 11.75 0.2 14.05 0.9 16.3 1.65 17.15 2.65 14.65 4.2 12.3 5.0" fill="url(#gradient2)" fill-rule="evenodd" stroke="none"/>
    </g>
    <radialGradient cx="0" cy="0" gradientTransform="matrix(-0.009, -4.0E-4, 0.0, -0.0033, 8.8, 3.25)" gradientUnits="userSpaceOnUse" id="gradient2" r="819.2" spreadMethod="pad">
      <stop offset="0.0" stop-color="#000000"/>
      <stop offset="1.0" stop-color="#000000" stop-opacity="0.0"/>
    </radialGradient>
    <g id="sprite3" transform="matrix(1.0, 0.0, 0.0, 1.0, 0.0, 0.0)">
      <use height="6.2" transform="matrix(1.0, 0.0, 0.0, 1.0, 0.0, 0.0)" width="17.15" xlink:href="#shape3"/>
    </g>
    <g id="shape3" transform="matrix(1.0, 0.0, 0.0, 1.0, 0.0, 0.0)">
      <path d="M12.3 5.75 L8.55 6.1 Q6.25 6.45 2.8 5.4 2.45 5.25 2.45 5.95 0.0 4.75 0.0 3.25 0.0 1.7 2.6 0.8 5.15 -0.15 8.8 0.05 11.75 0.25 14.05 1.1 16.3 1.95 17.15 3.1 14.4 5.0 12.3 5.75" fill="url(#gradient3)" fill-rule="evenodd" stroke="none"/>
    </g>
    <radialGradient cx="0" cy="0" gradientTransform="matrix(-0.009, -5.0E-4, 0.0, -0.0038, 8.75, 3.75)" gradientUnits="userSpaceOnUse" id="gradient3" r="819.2" spreadMethod="pad">
      <stop offset="0.0" stop-color="#000000"/>
      <stop offset="1.0" stop-color="#000000" stop-opacity="0.0"/>
    </radialGradient>
    <g id="shape4" transform="matrix(1.0, 0.0, 0.0, 1.0, 0.0, 0.0)">
      <path d="M52.7 4.8 L52.7 6.5 52.65 7.0 52.3 6.95 51.35 8.9 51.4 9.05 51.45 9.15 51.8 13.05 51.75 17.1 51.75 17.35 Q51.45 26.45 51.7 31.05 52.0 37.4 55.75 47.2 57.6 52.1 59.4 55.7 L21.0 56.0 23.3 55.75 56.65 52.6 56.4 52.2 56.65 52.2 56.6 52.1 56.65 52.1 52.05 43.15 Q50.75 40.25 49.25 33.4 47.85 26.9 47.8 24.25 L48.15 17.4 48.45 13.1 48.4 13.05 48.45 13.05 48.4 13.0 48.45 12.6 48.25 12.45 47.35 9.75 47.4 9.15 47.15 9.05 46.7 7.8 Q45.5 6.95 42.55 6.1 36.6 4.5 27.65 4.7 L22.05 5.2 23.05 5.0 Q31.6 3.6 39.4 4.7 46.5 5.7 48.65 6.5 49.9 6.95 50.65 7.85 L52.6 4.85 52.7 4.7 52.7 4.8 M33.65 67.35 L34.4 67.4 34.0 67.6 33.25 67.9 33.1 68.0 32.3 68.6 Q31.7 69.1 31.35 69.75 30.85 70.7 31.2 72.05 L31.4 72.75 31.5 72.75 31.5 73.0 31.55 73.0 80.7 70.3 80.85 71.55 77.0 71.75 76.95 71.75 76.85 73.1 76.1 73.15 75.45 73.2 74.6 73.3 74.05 73.35 73.4 73.4 72.5 73.45 71.8 73.5 71.7 73.5 71.7 72.65 71.8 72.65 76.85 72.35 76.9 71.75 70.65 72.1 70.7 73.2 71.15 81.2 71.2 90.95 71.2 102.3 68.45 99.35 66.05 75.5 65.85 72.35 64.7 72.4 53.75 72.95 53.25 73.0 52.65 73.0 52.1 73.05 51.3 73.1 50.55 73.15 50.05 73.15 49.9 73.15 49.25 73.2 49.25 76.2 49.2 87.55 46.5 84.55 Q46.75 83.8 46.7 80.65 L46.45 73.35 45.45 73.4 36.1 73.85 36.0 73.85 30.85 74.1 24.85 70.45 19.1 66.95 18.3 66.45 17.7 66.1 16.95 65.65 16.4 65.35 15.65 64.9 14.8 64.35 14.15 63.95 13.1 63.3 Q13.4 66.0 13.5 71.0 L13.55 80.75 13.5 92.1 10.8 89.15 Q11.05 88.4 11.0 85.25 11.0 78.9 9.85 66.8 L9.35 61.05 8.25 60.35 5.55 58.7 5.2 57.2 5.4 57.25 Q2.95 37.5 2.2 26.85 1.75 20.15 1.9 12.2 L2.2 5.6 3.4 5.85 3.1 12.05 Q2.95 20.0 3.4 26.7 4.1 37.05 6.5 55.95 L8.85 55.35 8.9 55.35 9.4 55.2 9.65 55.15 10.7 55.0 12.1 55.05 12.75 55.15 12.65 54.45 13.35 56.0 13.15 56.05 12.9 56.05 12.85 55.75 11.9 55.85 9.25 56.6 8.55 56.8 6.75 57.45 7.4 57.55 26.85 70.15 26.95 70.25 29.55 71.9 29.55 71.8 29.65 71.05 Q29.85 69.65 30.35 68.95 30.8 68.3 31.5 67.95 L32.05 67.7 32.9 67.45 33.45 67.4 33.65 67.35 M76.3 63.1 L73.25 61.05 76.1 60.95 76.3 63.1 M7.9 7.95 Q6.65 7.5 5.55 6.55 L4.7 5.7 6.95 6.45 Q9.3 7.35 9.9 7.95 L10.65 8.8 9.8 9.2 Q9.5 8.35 7.9 7.95 M9.0 11.25 L9.1 11.05 8.95 13.9 Q8.85 19.5 9.15 25.85 L9.5 31.15 9.9 36.65 9.6 34.55 Q8.15 22.8 8.3 16.65 8.35 12.95 9.0 11.25 M10.35 61.65 L10.35 61.7 10.3 62.05 Q10.25 63.85 10.75 68.35 L12.0 83.05 Q12.55 90.65 12.95 90.65 L12.8 84.25 12.3 66.65 12.3 62.8 10.35 61.65 M6.65 57.45 L6.7 57.45 6.65 57.3 6.65 57.45 M17.8 91.3 L17.8 92.75 14.35 93.45 14.4 91.25 Q15.0 92.05 16.55 91.9 L17.8 91.3 M34.5 75.7 L33.65 75.75 33.05 75.8 32.45 75.85 31.5 75.95 30.85 76.0 30.7 76.0 30.7 75.15 35.9 74.85 36.0 73.85 35.9 75.55 35.15 75.65 34.5 75.7 M34.5 104.0 L34.5 105.45 31.05 106.1 31.1 103.95 Q31.8 104.75 33.25 104.55 33.85 104.55 34.5 104.0 M29.0 74.3 L29.7 74.65 29.75 75.7 30.2 83.65 30.25 93.45 30.2 104.8 27.5 101.8 Q27.75 101.05 27.7 97.9 27.7 91.55 26.55 79.5 L26.0 72.85 27.0 73.35 27.05 74.35 27.0 74.75 Q26.95 76.55 27.45 81.05 L28.7 95.7 Q29.25 103.3 29.65 103.3 L29.5 96.95 29.0 79.3 29.0 74.3 M53.5 86.75 L53.5 88.2 50.05 88.85 50.1 86.7 Q50.8 87.5 52.25 87.3 52.85 87.3 53.5 86.75 M48.35 73.25 L47.3 73.3 47.7 78.45 Q48.25 86.05 48.65 86.05 L48.5 79.7 48.35 73.25 M75.45 101.55 L75.5 101.5 75.45 102.95 72.0 103.6 72.05 101.45 Q72.75 102.25 74.2 102.1 L75.45 101.55 M69.95 72.15 L67.95 72.25 Q67.9 74.05 68.45 78.55 L69.65 93.25 Q70.2 100.85 70.6 100.85 L70.45 94.45 Q70.2 79.95 69.95 76.85 L69.95 72.15" fill="#8e7350" fill-rule="evenodd" stroke="none"/>
      <path d="M52.65 7.0 L52.7 6.5 52.7 4.8 53.4 22.1 Q54.85 40.65 58.4 46.7 61.95 52.75 71.75 59.95 L73.25 61.05 76.3 63.1 80.9 65.95 72.3 66.65 57.05 65.85 47.3 66.55 41.2 66.85 47.15 67.05 Q53.7 67.25 56.4 67.05 60.05 66.75 70.25 66.85 L54.9 68.05 Q46.05 68.75 38.65 68.45 L34.0 68.1 34.2 67.7 34.0 67.6 34.4 67.4 33.65 67.35 29.45 64.85 32.7 67.25 32.8 67.3 32.45 67.2 Q25.55 65.35 19.55 62.1 17.85 61.2 15.85 58.75 L14.15 56.45 16.5 57.75 22.4 60.7 23.1 61.05 15.4 56.45 15.3 56.05 18.65 56.0 18.65 56.05 18.7 56.2 21.0 56.0 59.4 55.7 Q57.6 52.1 55.75 47.2 52.0 37.4 51.7 31.05 51.45 26.45 51.75 17.35 52.55 16.2 53.05 16.25 L52.85 11.15 52.75 7.0 52.65 7.0 M52.7 4.7 L52.6 4.85 51.55 5.2 50.4 5.35 Q49.15 5.7 45.05 4.65 39.25 3.15 35.7 2.7 L24.7 3.15 14.7 5.35 7.35 6.05 4.7 5.7 13.8 3.05 Q24.65 0.5 33.4 0.7 42.15 0.9 48.3 2.85 51.4 3.8 52.7 4.7 M50.55 4.7 Q47.85 3.65 44.0 2.65 36.3 0.65 30.65 0.95 25.05 1.25 17.15 3.0 L10.4 4.7 17.95 3.25 Q26.75 1.8 33.15 1.95 39.55 2.1 45.7 3.4 L50.55 4.7 M52.95 21.95 L52.4 17.7 52.45 22.05 52.65 29.2 Q52.9 32.95 55.65 40.2 53.9 34.95 53.65 29.95 L52.95 21.95 M10.6 46.2 L10.05 47.35 Q9.25 48.3 8.2 45.2 L8.65 45.7 Q6.7 37.15 6.25 32.95 L6.2 32.45 6.15 31.7 6.1 30.95 5.8 26.0 5.35 17.1 Q6.7 11.25 7.15 12.95 L8.3 16.65 Q8.15 22.8 9.6 34.55 L9.9 36.65 10.75 45.7 10.7 45.8 9.15 35.45 7.15 17.7 6.95 23.7 Q6.85 30.6 7.65 34.95 8.8 41.45 10.6 46.2 M15.65 64.9 L16.4 65.35 Q16.45 68.0 15.55 77.9 15.3 82.5 15.45 88.5 16.35 83.85 16.4 79.1 16.4 73.8 16.85 66.95 L16.95 65.65 17.7 66.1 17.45 69.85 16.95 77.5 17.0 80.65 Q17.05 83.5 16.7 89.15 L14.7 89.25 Q14.7 78.55 15.05 73.5 L15.65 64.9 M50.55 73.15 L51.3 73.1 51.25 73.3 Q51.0 77.9 51.15 83.95 52.05 79.3 52.1 74.5 L52.1 73.05 52.65 73.0 52.7 76.05 Q52.75 78.9 52.4 84.55 L50.4 84.7 Q50.4 77.7 50.55 73.15 M73.4 73.4 L74.05 73.35 74.05 75.15 Q74.2 77.55 73.2 88.1 73.0 92.65 73.1 98.7 74.0 94.05 74.05 89.3 L74.55 77.1 74.6 73.3 75.45 73.2 Q75.4 77.15 74.6 87.7 L74.65 90.8 Q74.7 93.65 74.35 99.35 L72.35 99.45 Q72.35 88.75 72.7 83.7 L73.25 76.85 73.4 73.4 M33.65 75.75 L34.5 75.7 34.15 82.55 33.65 90.2 33.7 93.3 33.4 101.8 31.4 101.95 Q31.4 91.25 31.75 86.2 L32.45 75.85 33.05 75.8 33.1 77.65 Q33.2 80.05 32.25 90.55 32.0 95.15 32.15 101.2 33.05 96.55 33.1 91.75 33.1 86.5 33.55 79.6 L33.65 75.75" fill="#d3b476" fill-rule="evenodd" stroke="none"/>
      <path d="M70.25 66.85 Q60.05 66.75 56.4 67.05 53.7 67.25 47.15 67.05 L41.2 66.85 47.3 66.55 57.05 65.85 72.3 66.65 74.0 66.85 70.25 66.85 M50.55 4.7 L45.7 3.4 Q39.55 2.1 33.15 1.95 26.75 1.8 17.95 3.25 L10.4 4.7 17.15 3.0 Q25.05 1.25 30.65 0.95 36.3 0.65 44.0 2.65 47.85 3.65 50.55 4.7 M52.95 21.95 L53.65 29.95 Q53.9 34.95 55.65 40.2 52.9 32.95 52.65 29.2 L52.45 22.05 52.4 17.7 52.95 21.95 M10.6 46.2 Q8.8 41.45 7.65 34.95 6.85 30.6 6.95 23.7 L7.15 17.7 9.15 35.45 10.7 45.8 10.6 46.2 M16.4 65.35 L16.95 65.65 16.85 66.95 Q16.4 73.8 16.4 79.1 16.35 83.85 15.45 88.5 15.3 82.5 15.55 77.9 16.45 68.0 16.4 65.35 M51.3 73.1 L52.1 73.05 52.1 74.5 Q52.05 79.3 51.15 83.95 51.0 77.9 51.25 73.3 L51.3 73.1 M74.05 73.35 L74.6 73.3 74.55 77.1 74.05 89.3 Q74.0 94.05 73.1 98.7 73.0 92.65 73.2 88.1 74.2 77.55 74.05 75.15 L74.05 73.35 M33.05 75.8 L33.65 75.75 33.55 79.6 Q33.1 86.5 33.1 91.75 33.05 96.55 32.15 101.2 32.0 95.15 32.25 90.55 33.2 80.05 33.1 77.65 L33.05 75.8" fill="#efd8bb" fill-rule="evenodd" stroke="none"/>
      <path d="M52.85 11.15 L53.05 16.25 Q52.55 16.2 51.75 17.35 L51.75 17.1 51.8 13.05 52.65 11.45 52.85 11.15 M15.4 56.45 L23.1 61.05 22.4 60.7 16.5 57.75 14.15 56.45 15.85 58.75 Q17.85 61.2 19.55 62.1 25.55 65.35 32.45 67.2 L28.95 67.45 Q27.55 67.75 24.65 66.2 20.9 64.05 18.55 62.85 13.5 60.4 12.55 58.55 12.2 57.95 12.35 57.45 L12.4 57.2 Q12.55 56.75 13.05 56.45 L13.1 56.4 13.45 56.2 13.7 56.05 14.4 55.8 14.7 56.0 14.75 56.05 15.4 56.45 M32.7 67.25 L29.45 64.85 33.65 67.35 33.45 67.4 33.45 67.3 32.7 67.25 M34.0 67.6 L34.2 67.7 34.0 68.1 38.65 68.45 Q46.05 68.75 54.9 68.05 L70.25 66.85 74.0 66.85 72.3 66.65 80.9 65.95 80.85 66.95 58.55 68.55 Q43.3 69.7 35.95 69.2 L32.3 68.6 33.1 68.0 33.2 68.05 33.25 67.9 34.0 67.6 M52.6 4.85 L50.65 7.85 Q49.9 6.95 48.65 6.5 46.5 5.7 39.4 4.7 31.6 3.6 23.05 5.0 L22.05 5.2 Q17.7 5.8 13.9 7.2 L10.65 8.8 9.9 7.95 Q9.3 7.35 6.95 6.45 L4.7 5.7 4.9 11.2 6.1 10.1 Q7.35 9.15 7.65 9.95 L8.4 12.2 9.0 11.25 Q8.35 12.95 8.3 16.65 L7.15 12.95 Q6.7 11.25 5.35 17.1 L5.8 26.0 6.1 30.95 6.15 31.7 6.2 32.45 6.25 32.95 Q6.7 37.15 8.65 45.7 L8.2 45.2 Q9.25 48.3 10.05 47.35 L10.6 46.2 10.7 45.8 10.75 45.7 11.15 49.2 11.2 49.6 11.5 51.95 10.15 54.45 Q8.9 53.05 7.65 50.0 L6.65 47.2 6.8 48.55 Q5.3 37.6 5.05 31.35 L4.75 15.3 4.7 5.7 5.55 6.55 Q6.65 7.5 7.9 7.95 6.2 7.5 5.25 6.55 L4.7 5.7 7.35 6.05 14.7 5.35 24.7 3.15 35.7 2.7 Q39.25 3.15 45.05 4.65 49.15 5.7 50.4 5.35 L51.55 5.2 52.6 4.85 M51.45 9.15 L51.4 9.05 51.35 8.9 52.3 6.95 51.45 9.15 M31.5 67.95 L31.5 67.5 32.05 67.7 31.5 67.95 M13.15 56.05 L13.35 56.0 14.2 55.7 14.4 55.8 12.6 56.25 13.15 56.05 M14.8 64.35 L15.65 64.9 15.05 73.5 Q14.7 78.55 14.7 89.25 L16.7 89.15 Q17.05 83.5 17.0 80.65 L16.95 77.5 17.45 69.85 17.7 66.1 18.3 66.45 17.45 78.25 Q17.0 83.1 17.3 90.65 L14.8 90.5 Q14.55 89.55 14.45 88.0 L14.25 83.35 14.25 79.75 Q14.35 74.25 14.8 64.35 M50.05 73.15 L50.55 73.15 Q50.4 77.7 50.4 84.7 L52.4 84.55 Q52.75 78.9 52.7 76.05 L52.65 73.0 53.25 73.0 53.15 73.7 Q52.7 78.55 53.0 86.05 L50.5 85.95 Q50.25 84.95 50.15 83.4 L49.95 78.75 50.0 75.7 50.05 73.15 M72.5 73.45 L73.4 73.4 73.25 76.85 72.7 83.7 Q72.35 88.75 72.35 99.45 L74.35 99.35 Q74.7 93.65 74.65 90.8 L74.6 87.7 Q75.4 77.15 75.45 73.2 L76.1 73.15 Q75.95 78.8 75.1 88.45 74.65 93.3 74.95 100.85 L72.45 100.7 Q72.2 99.75 72.1 98.2 L71.9 93.55 71.95 90.2 72.45 74.25 72.5 73.45 M34.5 75.7 L35.15 75.65 Q35.0 81.25 34.15 90.95 33.7 95.8 34.0 103.3 L31.5 103.2 Q31.25 102.2 31.15 100.65 L30.95 96.0 31.0 92.95 Q31.05 88.0 31.45 76.75 L31.5 75.95 32.45 75.85 31.75 86.2 Q31.4 91.25 31.4 101.95 L33.4 101.8 33.7 93.3 33.65 90.2 34.15 82.55 34.5 75.7" fill="#b79963" fill-rule="evenodd" stroke="none"/>
      <path d="M21.0 56.0 L18.7 56.2 18.65 56.05 18.65 56.0 15.3 56.05 14.75 56.05 14.7 56.0 14.4 55.8 14.2 55.7 13.35 56.0 12.65 54.45 12.6 54.4 11.8 52.6 11.5 51.95 11.2 49.6 11.15 49.2 10.75 45.7 9.9 36.65 9.5 31.15 9.15 25.85 Q8.85 19.5 8.95 13.9 L9.1 11.05 9.15 9.5 9.8 9.2 10.65 8.8 13.9 7.2 Q17.7 5.8 22.05 5.2 L27.65 4.7 Q36.6 4.5 42.55 6.1 45.5 6.95 46.7 7.8 L47.15 9.05 47.4 9.15 47.35 9.75 48.25 12.45 48.45 12.6 48.4 13.0 48.45 13.05 48.4 13.05 48.45 13.1 48.15 17.4 47.8 24.25 Q47.85 26.9 49.25 33.4 50.75 40.25 52.05 43.15 L56.65 52.1 56.6 52.1 56.65 52.2 56.4 52.2 56.65 52.6 23.3 55.75 21.0 56.0" fill="#6d5741" fill-rule="evenodd" stroke="none"/>
      <path d="M52.65 7.0 L52.75 7.0 52.85 11.15 52.65 11.45 51.8 13.05 51.45 9.15 52.3 6.95 52.65 7.0 M15.3 56.05 L15.4 56.45 14.75 56.05 15.3 56.05 M32.45 67.2 L32.8 67.3 32.7 67.25 33.45 67.3 33.45 67.4 32.9 67.45 32.05 67.7 31.5 67.5 31.5 67.95 Q30.8 68.3 30.35 68.95 29.85 69.65 29.65 71.05 L29.55 71.8 27.05 70.25 26.95 70.25 26.85 70.15 7.4 57.55 6.75 57.45 8.55 56.8 9.25 56.6 11.9 55.85 12.85 55.75 12.9 56.05 13.15 56.05 12.6 56.25 14.4 55.8 13.7 56.05 13.45 56.2 13.1 56.4 13.05 56.45 Q12.55 56.75 12.4 57.2 L12.35 57.45 Q12.2 57.95 12.55 58.55 13.5 60.4 18.55 62.85 20.9 64.05 24.65 66.2 27.55 67.75 28.95 67.45 L32.45 67.2 M3.4 5.85 L3.4 5.45 4.7 5.7 4.75 15.3 5.05 31.35 Q5.3 37.6 6.8 48.55 L6.65 47.2 7.65 50.0 Q8.9 53.05 10.15 54.45 L11.5 51.95 11.8 52.6 12.6 54.4 12.65 54.45 12.75 55.15 12.1 55.05 10.7 55.0 9.65 55.15 9.4 55.2 8.9 55.35 8.85 55.35 6.5 55.95 Q4.1 37.05 3.4 26.7 2.95 20.0 3.1 12.05 L3.4 5.85 M4.7 5.7 L5.25 6.55 Q6.2 7.5 7.9 7.95 9.5 8.35 9.8 9.2 L9.15 9.5 9.1 11.05 9.0 11.25 8.4 12.2 7.65 9.95 Q7.35 9.15 6.1 10.1 L4.9 11.2 4.7 5.7 M33.25 67.9 L33.2 68.05 33.1 68.0 33.25 67.9 M32.3 68.6 L35.95 69.2 Q43.3 69.7 58.55 68.55 L80.85 66.95 81.0 66.95 80.7 70.3 31.55 73.0 31.5 73.0 31.5 72.75 31.4 72.75 31.2 72.05 Q30.85 70.7 31.35 69.75 31.7 69.1 32.3 68.6 M10.35 61.65 L12.3 62.8 12.3 66.65 12.8 84.25 12.95 90.65 Q12.55 90.65 12.0 83.05 L10.75 68.35 Q10.25 63.85 10.3 62.05 L10.35 61.7 10.35 61.65 M14.15 63.95 L14.8 64.35 Q14.35 74.25 14.25 79.75 14.0 73.3 14.05 67.05 L14.15 63.95 M18.3 66.45 L19.1 66.95 19.0 67.7 Q18.05 76.6 18.0 78.7 L17.8 91.3 16.55 91.9 Q15.0 92.05 14.4 91.25 L14.45 88.0 Q14.55 89.55 14.8 90.5 L17.3 90.65 Q17.0 83.1 17.45 78.25 L18.3 66.45 M36.0 73.85 L36.1 73.85 Q36.1 76.7 35.7 80.4 34.75 89.3 34.7 91.35 L34.5 104.0 Q33.85 104.55 33.25 104.55 31.8 104.75 31.1 103.95 L31.15 100.65 Q31.25 102.2 31.5 103.2 L34.0 103.3 Q33.7 95.8 34.15 90.95 35.0 81.25 35.15 75.65 L35.9 75.55 36.0 73.85 M49.9 73.15 L50.05 73.15 50.0 75.7 49.9 73.15 M53.25 73.0 L53.75 72.95 53.7 74.1 53.5 86.75 Q52.85 87.3 52.25 87.3 50.8 87.5 50.1 86.7 L50.15 83.4 Q50.25 84.95 50.5 85.95 L53.0 86.05 Q52.7 78.55 53.15 73.7 L53.25 73.0 M71.8 73.5 L72.5 73.45 72.45 74.25 71.95 90.2 Q71.65 83.6 71.7 77.25 L71.8 73.5 M76.1 73.15 L76.85 73.1 76.95 71.75 77.0 71.75 76.65 77.9 Q75.75 86.65 75.7 88.9 75.45 95.05 75.45 101.55 L74.2 102.1 Q72.75 102.25 72.05 101.45 L72.1 98.2 Q72.2 99.75 72.45 100.7 L74.95 100.85 Q74.65 93.3 75.1 88.45 75.95 78.8 76.1 73.15 M6.65 57.45 L6.65 57.3 6.7 57.45 6.65 57.45 M30.85 76.0 L31.5 75.95 31.45 76.75 Q31.05 88.0 31.0 92.95 30.7 86.2 30.75 79.7 L30.85 76.0 M29.0 74.3 L29.0 79.3 29.5 96.95 29.65 103.3 Q29.25 103.3 28.7 95.7 L27.45 81.05 Q26.95 76.55 27.0 74.75 L27.05 74.35 27.0 73.35 29.0 74.3 M57.3 44.15 L57.15 43.8 57.15 43.75 57.3 44.15 M48.35 73.25 L48.5 79.7 48.65 86.05 Q48.25 86.05 47.7 78.45 L47.3 73.3 48.35 73.25 M69.95 72.15 L69.95 76.85 Q70.2 79.95 70.45 94.45 L70.6 100.85 Q70.2 100.85 69.65 93.25 L68.45 78.55 Q67.9 74.05 67.95 72.25 L69.95 72.15" fill="#a5895d" fill-rule="evenodd" stroke="none"/>
      <path d="M52.7 4.7 Q51.4 3.8 48.3 2.85 42.15 0.9 33.4 0.7 24.65 0.5 13.8 3.05 L4.7 5.7 11.2 3.1 Q19.8 0.45 30.4 0.05 41.05 -0.4 47.95 2.1 51.4 3.35 52.7 4.7" fill="#b5946b" fill-rule="evenodd" stroke="none"/>
      <path d="M29.55 71.8 L29.55 71.9 26.95 70.25 27.05 70.25 29.55 71.8 M8.25 60.35 L9.35 61.05 9.85 66.8 Q11.0 78.9 11.0 85.25 11.05 88.4 10.8 89.15 L13.5 92.1 13.55 80.75 13.5 71.0 Q13.4 66.0 13.1 63.3 L14.15 63.95 14.05 67.05 Q14.0 73.3 14.25 79.75 L14.25 83.35 14.45 88.0 14.4 91.25 14.35 93.45 10.3 90.0 Q10.55 85.4 8.5 63.7 L8.25 60.35 M24.85 70.45 L30.85 74.1 36.0 73.85 35.9 74.85 30.7 75.15 30.7 76.0 30.85 76.0 30.75 79.7 Q30.7 86.2 31.0 92.95 L30.95 96.0 31.15 100.65 31.1 103.95 31.05 106.1 27.0 102.7 Q27.25 98.05 25.2 76.4 L24.9 72.3 24.7 72.2 24.85 70.45 M45.45 73.4 L46.45 73.35 46.7 80.65 Q46.75 83.8 46.5 84.55 L49.2 87.55 49.25 76.2 49.25 73.2 49.9 73.15 50.0 75.7 49.95 78.75 50.15 83.4 50.1 86.7 50.05 88.85 46.0 85.45 Q46.15 82.6 45.45 73.4 M64.7 72.4 L65.85 72.35 66.05 75.5 68.45 99.35 71.2 102.3 71.2 90.95 71.15 81.2 70.7 73.2 70.65 72.1 76.9 71.75 76.85 72.35 71.8 72.65 71.7 72.65 71.7 73.5 71.8 73.5 71.7 77.25 Q71.65 83.6 71.95 90.2 L71.9 93.55 72.1 98.2 72.05 101.45 72.0 103.6 67.95 100.2 Q66.75 94.05 64.7 72.4 M27.0 73.35 L26.0 72.85 26.55 79.5 Q27.7 91.55 27.7 97.9 27.75 101.05 27.5 101.8 L30.2 104.8 30.25 93.45 30.2 83.65 29.75 75.7 29.7 74.65 29.0 74.3 27.0 73.35" fill="#7f664b" fill-rule="evenodd" stroke="none"/>
      <path d="M73.6 89.1 Q86.25 93.4 86.25 96.45 86.25 102.3 73.6 104.3 L42.4 105.7 Q24.85 105.7 12.45 102.55 0.0 99.4 0.0 94.95 0.0 90.5 12.45 87.35 24.85 84.2 42.4 84.2 59.05 84.2 73.6 89.1" fill="url(#gradient4)" fill-rule="evenodd" stroke="none"/>
      <path d="M9.8 11.4 L16.4 9.65 Q25.05 7.7 30.8 7.7 36.65 7.7 40.7 9.95 42.7 11.1 43.55 12.2 L45.0 16.55 Q46.45 21.3 46.45 23.35 46.45 26.0 48.05 33.0 49.7 40.25 51.15 43.35 53.15 47.7 56.15 52.8 L12.3 54.05 Q10.8 43.35 10.15 32.35 9.7 25.5 9.7 17.75 L9.8 11.4" fill="#ccc7a6" fill-rule="evenodd" stroke="none"/>
      <path d="M9.8 11.4 L16.4 9.65 Q25.05 7.7 30.8 7.7 36.65 7.7 40.65 9.75 42.65 10.8 43.45 11.8 L44.95 16.35 Q46.45 21.3 46.45 23.35 46.45 26.0 48.05 33.0 49.7 40.25 51.15 43.35 53.15 47.7 56.15 52.8 L12.3 54.05 Q10.8 43.35 10.15 32.35 9.7 25.5 9.7 17.75 L9.8 11.4" fill="url(#gradient5)" fill-rule="evenodd" stroke="none"/>
      <path d="M44.0 11.75 Q46.6 12.55 48.15 13.3 L47.85 18.55 Q47.5 24.2 47.5 26.1 47.5 28.55 48.9 34.95 50.35 41.7 51.65 44.55 53.5 48.55 56.15 53.2 L19.15 56.7 Q18.05 53.65 16.85 49.3 14.5 40.65 14.1 34.35 13.75 28.05 13.75 20.9 L13.8 15.05 20.0 12.75 Q28.05 10.2 33.4 10.2 38.75 10.2 44.0 11.75" fill="#edefce" fill-rule="evenodd" stroke="none"/>
      <path d="M43.2 11.1 Q46.3 11.9 48.15 12.8 L47.85 18.05 Q47.5 23.7 47.5 25.6 47.5 28.05 48.9 34.45 50.35 41.2 51.65 44.05 53.5 48.05 56.15 52.7 L19.15 56.2 Q18.05 53.15 16.85 48.8 14.5 40.15 14.1 33.85 13.75 27.55 13.75 20.4 L13.8 14.55 18.8 12.6 Q25.55 10.35 30.9 9.95 37.0 9.5 43.2 11.1" fill="url(#gradient6)" fill-rule="evenodd" stroke="none"/>
      <path d="M13.2 10.25 Q18.0 8.95 25.3 8.1 L38.65 8.5 Q41.7 9.1 43.3 9.85 L48.15 13.3 Q46.85 12.55 44.2 11.85 38.85 10.5 32.15 10.8 26.5 11.05 19.6 13.1 L13.8 15.05 9.8 11.35 13.2 10.25" fill="#edefce" fill-rule="evenodd" stroke="none"/>
      <path d="M11.1 15.8 L10.15 12.2 13.8 15.05 13.75 23.5 Q13.8 32.95 14.4 37.95 15.05 42.95 17.15 49.95 L19.15 55.9 Q17.5 53.0 15.85 49.0 12.55 41.05 12.4 35.7 12.1 22.1 11.1 15.8" fill="#b7a483" fill-rule="evenodd" stroke="none"/>
      <path d="M10.15 32.35 L9.9 27.6 Q12.6 48.65 14.5 50.3 16.65 52.2 17.4 53.7 L18.5 56.35 12.3 54.05 Q10.8 43.35 10.15 32.35" fill="#b7a483" fill-rule="evenodd" stroke="none"/>
      <path d="M9.8 11.35 L10.25 11.15 Q12.6 10.25 16.45 9.5 16.15 11.1 18.05 11.1 L29.9 10.35 18.45 13.3 15.4 14.4 13.8 15.05 9.8 11.35" fill="#e1e2c7" fill-rule="evenodd" stroke="none"/>
      <path d="M33.85 10.75 L37.4 9.6 Q39.5 8.9 32.55 7.8 36.85 8.0 40.35 8.95 L43.05 9.85 47.75 13.2 Q46.2 12.4 43.8 11.8 39.35 10.7 33.85 10.75" fill="#e1e2c7" fill-rule="evenodd" stroke="none"/>
      <path d="M44.1 11.5 Q47.05 12.35 48.15 13.3 46.9 12.7 44.15 12.1 38.65 10.95 31.15 11.1 23.65 11.25 18.0 13.15 L13.8 15.05 9.8 11.35 11.4 12.35 Q13.25 13.35 14.65 13.35 L19.75 12.1 Q24.55 10.75 29.2 10.45 38.25 9.85 44.1 11.5" fill="#f4f4e9" fill-rule="evenodd" stroke="none"/>
      <path d="M56.0 50.7 L76.35 64.35 34.0 66.2 11.8 54.55 16.45 55.65 56.0 50.7" fill="#8e7350" fill-rule="evenodd" stroke="none"/>
      <path d="M75.0 63.65 L34.3 65.25 16.45 55.65 16.1 53.5 Q15.95 51.25 16.8 50.85 L27.25 49.5 43.05 48.2 54.6 48.7 Q59.65 49.45 63.0 51.1 67.75 53.5 70.95 55.65 74.15 57.85 74.55 59.05 75.4 61.6 75.0 63.65" fill="#edefce" fill-rule="evenodd" stroke="none"/>
      <path d="M75.0 63.65 L34.3 65.25 16.45 55.65 16.1 53.5 Q15.95 51.25 16.8 50.85 L27.25 49.5 43.05 48.2 54.95 48.7 Q60.4 49.55 63.65 51.25 68.3 53.7 71.25 55.85 74.15 57.95 74.55 59.05 75.45 61.55 75.0 63.65" fill="url(#gradient7)" fill-rule="evenodd" stroke="none"/>
      <path d="M55.0 55.85 Q61.1 55.2 67.3 56.95 L74.4 58.8 74.55 59.05 Q75.3 61.6 75.0 63.65 L34.3 65.25 33.45 64.8 34.4 63.55 Q34.9 62.85 34.85 62.4 34.75 61.05 34.05 60.3 L33.35 59.85 40.1 58.3 Q48.2 56.55 55.0 55.85" fill="#d8d4b2" fill-rule="evenodd" stroke="none"/>
      <path d="M55.8 57.25 L67.9 58.0 74.4 58.8 74.55 59.05 Q75.3 61.6 75.0 63.65 L34.3 65.25 33.45 64.8 34.4 63.55 Q34.9 62.85 34.85 62.4 34.75 61.05 34.05 60.3 L33.35 59.85 40.5 58.65 55.8 57.25" fill="url(#gradient8)" fill-rule="evenodd" stroke="none"/>
      <path d="M33.8 60.75 Q35.2 62.45 34.55 65.25 L34.3 65.25 16.45 55.65 Q15.7 53.15 16.3 51.55 22.2 52.55 23.55 53.05 29.2 55.15 33.8 60.75" fill="#ccc7a6" fill-rule="evenodd" stroke="none"/>
      <path d="M34.55 60.2 Q35.25 60.85 35.1 62.5 L34.55 65.25 34.3 65.25 16.45 55.65 Q15.7 53.15 16.3 51.55 L22.3 52.45 Q27.2 54.0 34.55 60.2" fill="url(#gradient9)" fill-rule="evenodd" stroke="none"/>
      <path d="M55.65 56.6 Q64.1 56.3 70.15 57.65 73.2 58.3 74.55 59.05 L69.55 57.95 55.8 57.25 Q50.55 57.5 42.05 58.9 L34.55 60.2 41.45 58.55 Q49.55 56.8 55.65 56.6" fill="#f4f4e9" fill-rule="evenodd" stroke="none"/>
      <path d="M54.9 62.0 L74.65 59.65 74.75 59.95 Q75.15 62.35 75.0 63.65 L34.3 65.25 33.55 64.85 33.55 64.65 34.45 63.45 34.85 62.4 34.3 60.05 Q45.75 63.1 54.9 62.0" fill="#ccb79b" fill-rule="evenodd" stroke="none"/>
      <path d="M34.15 60.75 Q34.6 60.9 34.8 61.7 34.95 63.4 34.55 65.25 L34.3 65.25 16.45 55.65 Q15.7 53.15 16.3 51.55 17.15 52.75 20.1 55.05 23.3 57.45 25.15 58.05 L33.8 60.75 34.15 60.75" fill="#c4af91" fill-rule="evenodd" stroke="none"/>
      <path d="M31.4 60.5 L34.55 60.2 Q35.2 62.25 34.55 65.25 L34.3 65.25 16.45 55.65 Q15.85 54.0 16.15 52.15 L16.4 52.2 Q16.2 51.15 16.45 51.55 L16.9 52.2 16.9 52.25 17.8 53.7 Q20.85 58.25 24.25 59.3 28.05 60.5 31.4 60.5" fill="#b7a483" fill-rule="evenodd" stroke="none"/>
      <path d="M16.3 51.55 L20.05 51.95 Q24.2 52.6 26.25 53.7 30.65 56.05 34.55 60.2 L25.5 53.95 Q23.45 52.7 19.7 52.0 L16.3 51.55" fill="#f4f4e9" fill-rule="evenodd" stroke="none"/>
      <path d="M13.85 27.35 L13.8 18.85 14.65 37.45 Q14.9 41.2 16.15 46.3 L14.45 39.05 Q13.95 36.4 13.85 27.35" fill="#f4f4e9" fill-rule="evenodd" stroke="none"/>
      <path d="M45.15 37.6 Q46.4 36.8 46.95 36.75 L45.15 39.1 Q44.75 39.5 44.8 40.4 44.85 41.3 45.35 41.5 L47.15 43.3 45.05 42.75 43.9 42.85 43.15 43.2 43.8 45.5 42.65 44.15 Q42.35 43.75 42.2 43.15 L42.1 42.65 40.4 42.75 38.9 43.8 38.0 44.55 Q38.3 43.2 38.85 42.65 L40.45 41.2 Q40.85 39.5 40.1 39.0 L38.35 37.4 37.15 36.15 38.35 36.45 Q39.65 36.85 40.3 37.2 41.35 37.8 41.6 38.65 L42.75 38.65 Q43.65 38.5 45.15 37.6" fill="#c1ae99" fill-rule="evenodd" stroke="none"/>
      <path d="M44.85 40.65 Q44.85 41.65 44.2 42.3 43.6 43.0 42.65 43.0 41.75 43.0 41.1 42.3 40.45 41.6 40.45 40.65 40.45 39.65 41.1 38.95 41.75 38.25 42.65 38.25 43.6 38.25 44.2 38.95 44.85 39.65 44.85 40.65" fill="#b7a483" fill-rule="evenodd" stroke="none"/>
      <path d="M43.85 40.65 Q43.85 41.3 43.45 41.8 43.0 42.25 42.45 42.25 41.9 42.25 41.5 41.8 41.1 41.3 41.1 40.65 41.1 40.0 41.5 39.5 41.9 39.05 42.45 39.05 43.0 39.05 43.45 39.5 43.85 40.0 43.85 40.65" fill="#d8d4b2" fill-rule="evenodd" stroke="none"/>
      <path d="M43.85 40.15 L43.55 40.95 Q43.3 41.25 42.9 41.25 42.5 41.25 42.2 40.95 41.95 40.6 41.95 40.15 41.95 39.7 42.2 39.4 42.5 39.05 42.9 39.05 L43.55 39.4 43.85 40.15" fill="#edefce" fill-rule="evenodd" stroke="none"/>
      <path d="M27.85 28.0 Q29.15 28.4 29.8 28.75 30.85 29.35 31.1 30.2 L32.25 30.2 Q33.15 30.05 34.65 29.15 35.9 28.35 36.45 28.3 L34.65 30.65 Q34.25 31.05 34.3 31.95 34.35 32.85 34.85 33.05 L36.65 34.85 34.55 34.3 33.4 34.4 32.65 34.75 33.3 37.05 32.15 35.7 Q31.85 35.3 31.7 34.7 L31.6 34.2 29.85 34.3 28.4 35.35 27.5 36.1 Q27.8 34.75 28.35 34.2 L29.95 32.75 Q30.35 31.05 29.6 30.55 L27.85 28.95 26.65 27.7 27.85 28.0" fill="#c1ae99" fill-rule="evenodd" stroke="none"/>
      <path d="M34.35 32.2 Q34.35 33.2 33.7 33.85 33.1 34.55 32.15 34.55 31.25 34.55 30.6 33.85 29.95 33.15 29.95 32.2 29.95 31.2 30.6 30.5 31.25 29.8 32.15 29.8 33.1 29.8 33.7 30.5 34.35 31.2 34.35 32.2" fill="#b7a483" fill-rule="evenodd" stroke="none"/>
      <path d="M33.35 32.2 Q33.35 32.85 32.95 33.35 L31.95 33.8 Q31.4 33.8 31.0 33.35 30.6 32.85 30.6 32.2 30.6 31.55 31.0 31.05 31.4 30.6 31.95 30.6 32.5 30.6 32.95 31.05 33.35 31.55 33.35 32.2" fill="#d8d4b2" fill-rule="evenodd" stroke="none"/>
      <path d="M33.35 31.7 L33.05 32.5 Q32.8 32.8 32.4 32.8 32.0 32.8 31.7 32.5 L31.45 31.7 Q31.45 31.25 31.7 30.95 32.0 30.6 32.4 30.6 L33.05 30.95 33.35 31.7" fill="#edefce" fill-rule="evenodd" stroke="none"/>
      <path d="M20.85 40.5 Q20.45 40.05 19.1 39.25 L17.85 38.5 19.3 38.85 Q20.9 39.3 21.5 39.8 22.5 40.65 22.6 40.5 L23.85 39.95 25.7 38.15 25.5 41.7 Q25.35 42.9 26.6 43.7 L28.05 44.8 26.65 44.85 Q25.35 44.95 25.85 45.25 26.6 45.7 26.8 46.7 25.95 46.55 25.4 46.1 24.2 45.0 23.15 45.95 L20.75 47.5 Q21.75 45.35 21.2 43.85 20.85 42.9 18.8 42.5 L16.85 42.3 Q17.0 42.15 17.3 42.0 17.95 41.65 18.65 41.6 19.75 41.45 20.6 41.6 21.5 41.25 20.85 40.5" fill="#c1ae99" fill-rule="evenodd" stroke="none"/>
      <path d="M25.4 42.85 Q25.4 43.85 24.8 44.5 24.15 45.2 23.25 45.2 22.35 45.2 21.7 44.5 21.05 43.8 21.05 42.85 21.05 41.85 21.7 41.15 22.35 40.45 23.25 40.45 24.15 40.45 24.8 41.15 25.4 41.85 25.4 42.85" fill="#b7a483" fill-rule="evenodd" stroke="none"/>
      <path d="M24.4 42.85 Q24.4 43.5 24.0 43.95 23.6 44.45 23.05 44.45 22.5 44.45 22.1 43.95 21.7 43.5 21.7 42.85 21.7 42.2 22.1 41.7 22.5 41.25 23.05 41.25 23.6 41.25 24.0 41.7 24.4 42.2 24.4 42.85" fill="#d8d4b2" fill-rule="evenodd" stroke="none"/>
      <path d="M24.4 42.35 L24.1 43.15 Q23.85 43.45 23.45 43.45 23.05 43.45 22.8 43.15 22.5 42.8 22.5 42.35 22.5 41.9 22.8 41.6 23.05 41.25 23.45 41.25 23.85 41.25 24.1 41.6 24.4 41.9 24.4 42.35" fill="#edefce" fill-rule="evenodd" stroke="none"/>
      <path d="M45.05 16.75 L43.15 19.25 Q42.75 19.65 42.8 20.6 42.85 21.6 43.35 21.8 44.05 22.1 45.3 23.7 43.65 23.4 43.05 23.1 L41.85 23.25 41.05 23.6 41.75 26.0 40.55 24.6 40.05 23.55 39.95 23.0 38.1 23.1 36.55 24.2 35.6 25.0 35.85 24.25 36.5 23.0 38.2 21.5 Q38.6 19.65 37.8 19.15 L35.95 17.45 34.7 16.15 35.95 16.5 Q37.3 16.9 38.0 17.25 39.15 17.85 38.55 15.85 L39.55 16.7 Q40.6 17.5 40.95 17.45 41.05 17.45 41.8 17.8 L43.15 17.65 Q44.45 16.85 45.05 16.75" fill="#c1ae99" fill-rule="evenodd" stroke="none"/>
      <path d="M42.85 20.9 Q42.85 21.9 42.15 22.65 41.5 23.4 40.55 23.4 39.6 23.4 38.9 22.65 38.2 21.9 38.2 20.9 38.2 19.85 38.9 19.1 39.6 18.35 40.55 18.35 41.5 18.35 42.15 19.1 42.85 19.85 42.85 20.9" fill="#b7a483" fill-rule="evenodd" stroke="none"/>
      <path d="M41.75 20.9 Q41.75 21.6 41.35 22.1 40.95 22.6 40.35 22.6 39.75 22.6 39.35 22.1 38.9 21.6 38.9 20.9 38.9 20.2 39.35 19.7 39.75 19.2 40.35 19.2 40.95 19.2 41.35 19.7 41.75 20.2 41.75 20.9" fill="#d8d4b2" fill-rule="evenodd" stroke="none"/>
      <path d="M41.75 20.35 L41.45 21.2 40.8 21.55 Q40.4 21.55 40.1 21.2 39.8 20.85 39.8 20.35 39.8 19.85 40.1 19.55 40.4 19.2 40.8 19.2 L41.45 19.55 41.75 20.35" fill="#edefce" fill-rule="evenodd" stroke="none"/>
      <path d="M23.0 17.8 Q22.15 19.9 22.95 19.1 23.8 18.3 26.45 17.8 L24.65 19.6 Q23.95 20.45 23.85 21.7 23.7 22.85 24.2 23.0 25.05 23.25 26.55 24.55 L24.8 24.55 Q24.2 24.65 24.35 24.75 L25.15 25.35 Q25.75 26.0 26.15 27.0 L24.0 26.0 22.2 25.3 Q21.1 25.2 20.1 26.1 L17.45 28.45 18.65 26.1 19.7 24.8 Q18.55 22.2 17.55 21.85 L15.95 21.4 15.1 21.2 17.15 21.2 18.85 21.45 Q19.15 21.3 18.7 20.65 18.4 20.25 16.9 19.45 L15.45 18.7 16.65 18.85 Q18.0 19.1 18.75 19.5 L20.65 20.55 Q22.4 18.2 23.0 17.8" fill="#c1ae99" fill-rule="evenodd" stroke="none"/>
      <path d="M24.0 22.75 Q24.0 23.85 23.3 24.6 22.6 25.35 21.6 25.35 20.6 25.35 19.95 24.6 19.25 23.85 19.25 22.75 19.25 21.7 19.95 20.95 20.65 20.15 21.6 20.15 22.6 20.15 23.3 20.95 24.0 21.7 24.0 22.75" fill="#b7a483" fill-rule="evenodd" stroke="none"/>
      <path d="M22.9 22.75 L22.45 24.0 Q22.0 24.5 21.4 24.5 20.8 24.5 20.4 24.0 19.95 23.5 19.95 22.75 19.95 22.05 20.4 21.5 20.8 21.0 21.4 21.0 22.0 21.0 22.45 21.5 22.9 22.05 22.9 22.75" fill="#d8d4b2" fill-rule="evenodd" stroke="none"/>
      <path d="M22.9 22.25 L22.6 23.1 21.85 23.45 Q21.45 23.45 21.15 23.1 20.85 22.75 20.85 22.25 20.85 21.75 21.15 21.35 21.45 21.0 21.85 21.0 22.3 21.0 22.6 21.35 L22.9 22.25" fill="#edefce" fill-rule="evenodd" stroke="none"/>
    </g>
    <radialGradient cx="0" cy="0" gradientTransform="matrix(-0.0477, 0.0, 0.0, -0.0121, 43.1, 94.95)" gradientUnits="userSpaceOnUse" id="gradient4" r="819.2" spreadMethod="pad">
      <stop offset="0.0" stop-color="#000000" stop-opacity="0.21960784"/>
      <stop offset="1.0" stop-color="#000000" stop-opacity="0.0"/>
    </radialGradient>
    <linearGradient gradientTransform="matrix(-0.003, -0.0429, -0.0429, 0.003, 32.85, 38.5)" gradientUnits="userSpaceOnUse" id="gradient5" spreadMethod="pad" x1="-819.2" x2="819.2">
      <stop offset="0.0196078431372549" stop-color="#978156"/>
      <stop offset="0.1607843137254902" stop-color="#9f8a62" stop-opacity="0.9019608"/>
      <stop offset="0.41568627450980394" stop-color="#b5a482" stop-opacity="0.6431373"/>
      <stop offset="0.7529411764705882" stop-color="#d8ccb4" stop-opacity="0.23137255"/>
      <stop offset="0.9215686274509803" stop-color="#ebe3d1" stop-opacity="0.0"/>
    </linearGradient>
    <linearGradient gradientTransform="matrix(-0.0029, -0.07, -0.07, 0.0029, 34.5, 29.05)" gradientUnits="userSpaceOnUse" id="gradient6" spreadMethod="pad" x1="-819.2" x2="819.2">
      <stop offset="0.0196078431372549" stop-color="#978156"/>
      <stop offset="0.8352941176470589" stop-color="#e3d9c5" stop-opacity="0.09803922"/>
      <stop offset="0.9215686274509803" stop-color="#ebe3d1" stop-opacity="0.0"/>
    </linearGradient>
    <radialGradient cx="0" cy="0" gradientTransform="matrix(0.0531, 0.0, 0.0, -0.0202, 45.6, 52.0)" gradientUnits="userSpaceOnUse" id="gradient7" r="819.2" spreadMethod="pad">
      <stop offset="0.0" stop-color="#ebe3d1" stop-opacity="0.0"/>
      <stop offset="0.17647058823529413" stop-color="#d9ceb6" stop-opacity="0.21568628"/>
      <stop offset="0.5568627450980392" stop-color="#b5a482" stop-opacity="0.63529414"/>
      <stop offset="0.8431372549019608" stop-color="#9f8b62" stop-opacity="0.8980392"/>
      <stop offset="1.0" stop-color="#978156"/>
    </radialGradient>
    <linearGradient gradientTransform="matrix(2.0E-4, -0.0124, -0.0124, -2.0E-4, 54.15, 62.6)" gradientUnits="userSpaceOnUse" id="gradient8" spreadMethod="pad" x1="-819.2" x2="819.2">
      <stop offset="0.0196078431372549" stop-color="#978156"/>
      <stop offset="0.20784313725490197" stop-color="#a5916b" stop-opacity="0.83137256"/>
      <stop offset="0.596078431372549" stop-color="#c9bca0" stop-opacity="0.4"/>
      <stop offset="0.9215686274509803" stop-color="#ebe3d1" stop-opacity="0.0"/>
    </linearGradient>
    <linearGradient gradientTransform="matrix(-5.0E-4, -0.0178, -0.0178, 5.0E-4, 25.75, 62.95)" gradientUnits="userSpaceOnUse" id="gradient9" spreadMethod="pad" x1="-819.2" x2="819.2">
      <stop offset="0.0196078431372549" stop-color="#978156"/>
      <stop offset="0.19607843137254902" stop-color="#99845a" stop-opacity="0.96862745"/>
      <stop offset="0.3568627450980392" stop-color="#a18d65" stop-opacity="0.8784314"/>
      <stop offset="0.5137254901960784" stop-color="#ae9c77" stop-opacity="0.7294118"/>
      <stop offset="0.6666666666666666" stop-color="#c0b091" stop-opacity="0.5137255"/>
      <stop offset="0.8117647058823529" stop-color="#d6cbb3" stop-opacity="0.24313726"/>
      <stop offset="0.9215686274509803" stop-color="#ebe3d1" stop-opacity="0.0"/>
    </linearGradient>
    <g id="sprite4" transform="matrix(1.0, 0.0, 0.0, 1.0, 0.0, 0.0)">
      <use height="8.15" transform="matrix(1.0, 0.0, 0.0, 1.0, 0.0, 0.0)" width="8.8" xlink:href="#shape5"/>
    </g>
    <g id="shape5" transform="matrix(1.0, 0.0, 0.0, 1.0, 0.0, 0.0)">
      <path d="M3.45 0.05 Q7.95 -0.3 8.7 2.8 9.1 4.3 7.85 6.0 6.65 7.7 4.95 8.05 3.35 8.4 2.0 7.3 0.8 6.25 0.2 4.3 -0.35 2.5 0.7 1.3 1.65 0.15 3.45 0.05" fill="#e1e2c7" fill-rule="evenodd" stroke="none"/>
    </g>
    <g id="sprite5" transform="matrix(1.0, 0.0, 0.0, 1.0, 0.0, 0.0)">
      <use height="8.15" transform="matrix(1.0, 0.0, 0.0, 1.0, 0.0, 0.0)" width="8.8" xlink:href="#shape5"/>
    </g>
    <g id="sprite6" transform="matrix(1.0, 0.0, 0.0, 1.0, 0.0, 0.0)">
      <use height="8.15" transform="matrix(1.0, 0.0, 0.0, 1.0, 0.0, 0.0)" width="8.8" xlink:href="#shape5"/>
    </g>
    <g id="sprite7" transform="matrix(1.0, 0.0, 0.0, 1.0, 0.0, 0.0)">
      <use height="8.15" transform="matrix(1.0, 0.0, 0.0, 1.0, 0.0, 0.0)" width="8.8" xlink:href="#shape5"/>
    </g>
  </defs>
</svg>
