<?xml version="1.0" encoding="UTF-8" standalone="no"?>
<svg xmlns:xlink="http://www.w3.org/1999/xlink" height="16.75px" width="21.2px" xmlns="http://www.w3.org/2000/svg">
  <g transform="matrix(1.0, 0.0, 0.0, 1.0, 0.0, 0.0)">
    <use height="16.75" transform="matrix(1.0, 0.0, 0.0, 1.0, 0.0, 0.0)" width="21.2" xlink:href="#shape0"/>
  </g>
  <defs>
    <g id="shape0" transform="matrix(1.0, 0.0, 0.0, 1.0, 0.0, 0.0)">
      <path d="M9.65 13.15 L9.9 10.6 10.55 12.0 Q10.9 12.85 11.6 13.25 L12.65 13.8 13.75 15.3 12.3 14.25 Q11.3 13.55 10.6 13.3 L9.65 13.15" fill="url(#gradient0)" fill-rule="evenodd" stroke="none"/>
      <path d="M5.45 14.1 Q6.35 13.65 7.2 12.1 L6.2 12.1 2.75 12.2 3.05 12.8 4.5 14.55 5.45 14.1 M7.95 12.4 Q8.45 12.85 7.4 13.25 6.45 13.65 5.55 14.55 L4.85 15.4 4.05 15.3 3.55 14.3 2.6 13.15 1.8 12.5 1.25 11.05 3.35 11.65 Q4.65 12.0 6.15 11.65 L7.4 11.3 8.0 12.15 7.45 12.15 7.95 12.4" fill="#169013" fill-rule="evenodd" stroke="none"/>
      <path d="M9.35 10.4 L10.35 10.15 Q11.5 9.6 12.2 8.15 13.0 6.6 12.95 7.35 12.95 8.15 12.55 8.7 L10.4 11.65 Q9.9 12.3 9.55 11.4 L9.35 10.4" fill="url(#gradient1)" fill-rule="evenodd" stroke="none"/>
      <path d="M18.95 9.85 L17.6 11.3 Q16.2 12.95 15.75 13.95 15.3 15.0 15.3 13.85 L15.35 12.55 16.6 11.65 Q17.9 10.5 18.5 9.2 19.5 7.2 19.5 7.55 L18.95 9.85" fill="#9c2c23" fill-rule="evenodd" stroke="none"/>
      <path d="M19.35 11.85 L19.75 12.75 18.6 11.8 16.9 10.75 Q15.7 10.15 15.4 10.1 L15.8 9.65 15.9 9.05 Q16.05 8.7 16.6 9.45 17.4 10.65 19.35 11.85" fill="#9c2c23" fill-rule="evenodd" stroke="none"/>
      <path d="M18.55 3.85 Q17.3 3.8 15.85 5.3 L14.65 6.65 13.95 5.75 Q14.65 5.95 15.35 5.15 16.05 4.4 16.35 3.55 L19.05 3.55 Q20.6 3.9 18.55 3.85" fill="#9c2c23" fill-rule="evenodd" stroke="none"/>
      <path d="M17.45 6.25 L17.5 6.0 16.75 5.15 15.2 4.3 14.4 3.95 14.85 1.95 14.85 2.65 Q14.8 3.2 15.45 3.9 16.25 4.75 17.65 5.3 19.2 5.95 19.7 6.0 L17.45 6.25" fill="#9c2c23" fill-rule="evenodd" stroke="none"/>
      <path d="M20.15 4.25 L16.25 3.7 16.55 2.85 18.35 0.8 18.75 1.2 18.75 1.7 17.45 3.15 20.3 3.45 20.65 3.6 20.15 4.25" fill="#9c2c23" fill-rule="evenodd" stroke="none"/>
      <path d="M20.65 3.6 L17.45 3.15 17.95 2.55 19.7 2.8 18.4 0.5 18.5 0.05 19.2 0.15 20.65 3.6" fill="#d0382f" fill-rule="evenodd" stroke="none"/>
      <path d="M19.05 2.7 L18.4 1.15 16.25 3.7 16.05 3.1 18.5 0.05 19.7 2.8 19.05 2.7" fill="#e33d39" fill-rule="evenodd" stroke="none"/>
      <path d="M15.7 0.0 L16.15 0.65 15.8 0.75 12.9 0.85 14.1 2.4 14.05 2.85 13.6 3.25 12.0 1.05 11.8 0.2 15.7 0.0" fill="#9c2c23" fill-rule="evenodd" stroke="none"/>
      <path d="M13.65 3.55 L15.15 1.4 13.4 1.45 12.9 0.85 16.15 0.65 14.4 3.95 13.75 4.0 13.65 3.55" fill="#d0382f" fill-rule="evenodd" stroke="none"/>
      <path d="M11.5 0.75 L11.8 0.2 13.7 2.9 14.5 1.4 15.15 1.4 13.75 4.0 11.5 0.75" fill="#e33d39" fill-rule="evenodd" stroke="none"/>
      <path d="M14.05 7.5 L12.8 9.45 16.15 9.3 16.6 9.45 16.05 10.25 11.5 10.25 11.65 9.2 13.45 6.55 13.95 7.0 14.05 7.5" fill="#9c2c23" fill-rule="evenodd" stroke="none"/>
      <path d="M13.45 6.25 L13.5 5.65 14.3 5.65 16.6 9.45 12.75 9.45 13.25 8.65 15.3 8.65 13.45 6.25" fill="#d0382f" fill-rule="evenodd" stroke="none"/>
      <path d="M11.15 9.6 L13.5 5.65 15.35 8.65 14.55 8.65 13.55 6.95 11.55 10.25 11.15 9.6" fill="#e33d39" fill-rule="evenodd" stroke="none"/>
      <path d="M14.25 14.95 L14.25 15.45 13.85 15.9 12.05 13.75 11.8 12.9 15.75 12.4 16.25 13.05 15.9 13.2 13.0 13.45 14.25 14.95" fill="#9c2c23" fill-rule="evenodd" stroke="none"/>
      <path d="M13.9 16.15 L15.25 13.85 13.5 14.1 13.0 13.45 16.25 13.05 14.7 16.55 14.0 16.6 13.9 16.15" fill="#d0382f" fill-rule="evenodd" stroke="none"/>
      <path d="M11.55 13.45 L11.8 12.9 13.9 15.55 14.6 13.9 15.25 13.85 14.05 16.6 11.55 13.45" fill="#e33d39" fill-rule="evenodd" stroke="none"/>
      <path d="M18.95 13.6 L17.55 15.35 20.8 15.55 21.2 15.7 20.65 16.4 16.25 16.0 16.5 15.05 18.4 12.65 18.9 13.1 18.95 13.6" fill="#9c2c23" fill-rule="evenodd" stroke="none"/>
      <path d="M21.2 15.7 L17.55 15.35 18.1 14.65 20.1 14.85 18.5 12.35 18.6 11.8 19.35 11.85 21.2 15.7" fill="#d0382f" fill-rule="evenodd" stroke="none"/>
      <path d="M19.35 14.8 L18.5 13.05 16.3 16.0 15.95 15.35 18.6 11.8 20.1 14.85 19.35 14.8" fill="#e33d39" fill-rule="evenodd" stroke="none"/>
      <path d="M20.1 5.7 L20.6 6.35 20.2 6.5 17.3 6.7 18.55 8.25 18.55 8.75 18.1 9.15 16.35 6.95 16.15 6.1 20.1 5.7" fill="#9c2c23" fill-rule="evenodd" stroke="none"/>
      <path d="M20.6 6.35 L18.95 9.85 18.25 9.9 18.15 9.45 19.6 7.15 17.8 7.35 17.3 6.7 20.6 6.35" fill="#d0382f" fill-rule="evenodd" stroke="none"/>
      <path d="M18.9 7.2 L19.6 7.15 18.25 9.9 15.85 6.7 16.15 6.1 18.15 8.8 18.9 7.2" fill="#e33d39" fill-rule="evenodd" stroke="none"/>
      <path d="M10.95 11.6 Q10.95 12.7 10.2 13.45 9.45 14.2 8.4 14.2 7.3 14.2 6.55 13.45 5.75 12.7 5.75 11.6 5.75 10.55 6.55 9.8 7.3 9.0 8.4 9.0 9.45 9.0 10.2 9.8 10.95 10.55 10.95 11.6" fill="url(#gradient2)" fill-rule="evenodd" stroke="none"/>
      <path d="M6.4 15.05 Q6.4 15.75 5.9 16.25 5.4 16.75 4.7 16.75 4.0 16.75 3.5 16.25 3.0 15.75 3.0 15.05 3.0 14.35 3.5 13.85 4.0 13.35 4.7 13.35 5.4 13.35 5.9 13.85 6.4 14.35 6.4 15.05" fill="url(#gradient3)" fill-rule="evenodd" stroke="none"/>
      <path d="M3.9 12.2 Q3.9 13.05 3.35 13.6 2.8 14.15 1.95 14.15 1.15 14.15 0.55 13.6 0.0 13.05 0.0 12.2 0.0 11.4 0.55 10.8 1.15 10.25 1.95 10.25 2.8 10.25 3.35 10.8 3.9 11.4 3.9 12.2" fill="url(#gradient4)" fill-rule="evenodd" stroke="none"/>
    </g>
    <linearGradient gradientTransform="matrix(-6.0E-4, -4.0E-4, -4.0E-4, 6.0E-4, 11.45, 13.05)" gradientUnits="userSpaceOnUse" id="gradient0" spreadMethod="pad" x1="-819.2" x2="819.2">
      <stop offset="0.0" stop-color="#9c2c23"/>
      <stop offset="1.0" stop-color="#0e8712"/>
    </linearGradient>
    <linearGradient gradientTransform="matrix(-3.0E-4, 2.0E-4, 2.0E-4, 3.0E-4, 10.85, 10.05)" gradientUnits="userSpaceOnUse" id="gradient1" spreadMethod="pad" x1="-819.2" x2="819.2">
      <stop offset="0.0" stop-color="#ed4c47"/>
      <stop offset="1.0" stop-color="#2aa917"/>
    </linearGradient>
    <radialGradient cx="0" cy="0" gradientTransform="matrix(0.0, 0.0051, 0.0051, 0.0, 8.4, 9.9)" gradientUnits="userSpaceOnUse" id="gradient2" r="819.2" spreadMethod="pad">
      <stop offset="0.0" stop-color="#65f222"/>
      <stop offset="1.0" stop-color="#0e8712"/>
    </radialGradient>
    <radialGradient cx="0" cy="0" gradientTransform="matrix(0.0, 0.0033, 0.0033, 0.0, 4.7, 13.95)" gradientUnits="userSpaceOnUse" id="gradient3" r="819.2" spreadMethod="pad">
      <stop offset="0.0" stop-color="#65f222"/>
      <stop offset="1.0" stop-color="#0e8712"/>
    </radialGradient>
    <radialGradient cx="0" cy="0" gradientTransform="matrix(0.0, 0.0038, 0.0038, 0.0, 1.95, 10.95)" gradientUnits="userSpaceOnUse" id="gradient4" r="819.2" spreadMethod="pad">
      <stop offset="0.0" stop-color="#65f222"/>
      <stop offset="1.0" stop-color="#0e8712"/>
    </radialGradient>
  </defs>
</svg>
