<?xml version="1.0" encoding="UTF-8" standalone="no"?>
<svg xmlns:xlink="http://www.w3.org/1999/xlink" height="92.75px" width="1226.15px" xmlns="http://www.w3.org/2000/svg">
  <g transform="matrix(1.0, 0.0, 0.0, 1.0, 0.0, 0.0)">
    <use height="92.75" transform="matrix(1.0, 0.0, 0.0, 1.0, 0.0, 0.0)" width="1226.15" xlink:href="#shape0"/>
  </g>
  <defs>
    <g id="shape0" transform="matrix(1.0, 0.0, 0.0, 1.0, 0.0, 0.0)">
      <path d="M1222.8 34.2 Q1228.1 46.45 1225.05 59.55 1220.8 77.9 1199.6 84.85 1189.2 88.3 1126.2 90.1 1065.85 91.8 1035.35 90.2 1012.25 89.0 915.8 90.15 818.5 91.55 806.1 91.55 L666.7 92.55 Q537.35 93.2 496.45 91.55 455.45 89.85 341.5 90.2 L216.9 90.85 Q164.95 91.35 125.3 90.95 49.3 90.15 30.9 85.5 L23.9 83.15 Q11.15 78.25 5.45 70.15 0.4 63.05 0.05 52.2 -0.4 39.35 7.2 29.85 13.35 22.15 23.9 17.55 32.9 13.5 40.5 11.5 53.9 7.95 74.5 6.2 91.3 4.8 162.1 3.95 235.8 3.1 250.2 2.2 276.8 0.55 355.45 0.1 439.6 -0.35 480.8 1.55 525.9 3.6 601.8 4.3 679.35 5.0 710.05 3.55 736.5 2.3 816.1 2.15 L933.45 2.2 Q966.2 2.2 1021.25 3.55 L1083.05 4.85 Q1094.15 4.85 1115.1 4.1 1135.45 3.65 1155.55 4.85 L1173.55 6.5 Q1192.7 8.85 1198.65 12.2 1208.0 17.5 1212.55 21.2 1219.75 27.1 1222.8 34.2" fill="#496b15" fill-rule="evenodd" stroke="none"/>
      <path d="M13.3 43.7 Q15.35 44.3 15.35 45.15 15.35 46.0 13.3 46.65 L8.25 47.25 3.25 46.65 Q1.2 46.0 1.2 45.15 1.2 44.3 3.25 43.7 L8.25 43.1 13.3 43.7" fill="#456514" fill-rule="evenodd" stroke="none"/>
      <path d="M123.55 8.05 Q123.55 8.9 121.5 9.5 L116.5 10.1 111.45 9.5 Q109.4 8.9 109.4 8.05 109.4 7.2 111.45 6.55 L116.5 5.95 121.5 6.55 Q123.55 7.2 123.55 8.05" fill="#456514" fill-rule="evenodd" stroke="none"/>
      <path d="M189.75 6.5 Q189.75 7.35 187.7 8.0 L182.7 8.6 177.65 8.0 Q175.6 7.35 175.6 6.5 175.6 5.65 177.65 5.05 L182.7 4.45 187.7 5.05 Q189.75 5.65 189.75 6.5" fill="#456514" fill-rule="evenodd" stroke="none"/>
      <path d="M157.25 11.1 Q157.25 11.95 155.2 12.6 L150.15 13.2 145.15 12.6 Q143.1 11.95 143.1 11.1 143.1 10.25 145.15 9.65 L150.15 9.05 155.2 9.65 Q157.25 10.25 157.25 11.1" fill="#456514" fill-rule="evenodd" stroke="none"/>
      <path d="M134.8 33.75 Q136.9 34.35 136.9 35.2 136.9 36.05 134.8 36.7 L129.8 37.3 124.8 36.7 Q122.7 36.05 122.7 35.2 122.7 34.35 124.8 33.75 L129.8 33.15 134.8 33.75" fill="#456514" fill-rule="evenodd" stroke="none"/>
      <path d="M73.15 41.1 Q73.15 41.95 71.1 42.55 L66.1 43.15 61.05 42.55 Q59.0 41.95 59.0 41.1 59.0 40.25 61.05 39.6 L66.1 39.0 71.1 39.6 Q73.15 40.25 73.15 41.1" fill="#456514" fill-rule="evenodd" stroke="none"/>
      <path d="M89.5 19.0 Q89.5 19.85 87.45 20.5 L82.45 21.1 77.45 20.5 Q75.35 19.85 75.35 19.0 75.35 18.15 77.45 17.55 L82.45 16.95 87.45 17.55 Q89.5 18.15 89.5 19.0" fill="#456514" fill-rule="evenodd" stroke="none"/>
      <path d="M110.85 33.9 Q110.85 34.75 108.8 35.35 L103.8 35.95 98.8 35.35 Q96.7 34.75 96.7 33.9 96.7 33.05 98.8 32.4 L103.8 31.8 108.8 32.4 Q110.85 33.05 110.85 33.9" fill="#456514" fill-rule="evenodd" stroke="none"/>
      <path d="M212.4 10.6 L217.4 10.0 222.4 10.6 Q224.45 11.25 224.45 12.1 224.45 12.95 222.4 13.55 L217.4 14.15 212.4 13.55 Q210.3 12.95 210.3 12.1 210.3 11.25 212.4 10.6" fill="#456514" fill-rule="evenodd" stroke="none"/>
      <path d="M177.55 26.55 Q177.55 27.4 175.45 28.05 L170.45 28.65 165.45 28.05 Q163.4 27.4 163.4 26.55 163.4 25.7 165.45 25.1 L170.45 24.5 175.45 25.1 Q177.55 25.7 177.55 26.55" fill="#456514" fill-rule="evenodd" stroke="none"/>
      <path d="M104.15 52.2 Q104.15 53.05 102.1 53.7 L97.1 54.3 92.1 53.7 Q90.0 53.05 90.0 52.2 90.0 51.35 92.1 50.75 L97.1 50.15 102.1 50.75 Q104.15 51.35 104.15 52.2" fill="#456514" fill-rule="evenodd" stroke="none"/>
      <path d="M44.9 32.1 Q44.9 32.95 42.8 33.55 L37.8 34.15 32.8 33.55 Q30.75 32.95 30.75 32.1 30.75 31.25 32.8 30.6 L37.8 30.0 42.8 30.6 Q44.9 31.25 44.9 32.1" fill="#456514" fill-rule="evenodd" stroke="none"/>
      <path d="M214.15 31.05 Q216.2 31.65 216.2 32.5 216.2 33.35 214.15 34.0 L209.15 34.6 204.15 34.0 Q202.05 33.35 202.05 32.5 202.05 31.65 204.15 31.05 L209.15 30.45 214.15 31.05" fill="#456514" fill-rule="evenodd" stroke="none"/>
      <path d="M231.35 48.15 Q231.35 49.0 229.3 49.65 L224.25 50.25 219.25 49.65 Q217.2 49.0 217.2 48.15 217.2 47.3 219.25 46.7 L224.25 46.1 229.3 46.7 Q231.35 47.3 231.35 48.15" fill="#456514" fill-rule="evenodd" stroke="none"/>
      <path d="M64.55 60.3 Q64.55 61.15 62.5 61.8 L57.45 62.4 52.45 61.8 Q50.4 61.15 50.4 60.3 50.4 59.45 52.45 58.85 L57.45 58.25 62.5 58.85 Q64.55 59.45 64.55 60.3" fill="#456514" fill-rule="evenodd" stroke="none"/>
      <path d="M110.9 72.4 Q110.9 73.25 108.85 73.85 L103.8 74.45 98.8 73.85 Q96.75 73.25 96.75 72.4 96.75 71.55 98.8 70.9 L103.8 70.3 108.85 70.9 Q110.9 71.55 110.9 72.4" fill="#456514" fill-rule="evenodd" stroke="none"/>
      <path d="M82.95 78.9 Q82.95 79.75 80.9 80.35 L75.9 80.95 70.9 80.35 Q68.8 79.75 68.8 78.9 68.8 78.05 70.9 77.4 L75.9 76.8 80.9 77.4 Q82.95 78.05 82.95 78.9" fill="#456514" fill-rule="evenodd" stroke="none"/>
      <path d="M152.9 52.5 Q152.9 53.35 150.8 54.0 L145.8 54.6 140.8 54.0 Q138.7 53.35 138.7 52.5 138.7 51.65 140.8 51.05 L145.8 50.45 150.8 51.05 Q152.9 51.65 152.9 52.5" fill="#456514" fill-rule="evenodd" stroke="none"/>
      <path d="M185.3 60.4 Q185.3 61.25 183.2 61.85 L178.2 62.45 Q175.25 62.45 173.2 61.85 171.1 61.25 171.1 60.4 171.1 59.55 173.2 58.95 175.25 58.35 178.2 58.35 L183.2 58.95 Q185.3 59.55 185.3 60.4" fill="#456514" fill-rule="evenodd" stroke="none"/>
      <path d="M197.15 45.55 Q197.15 46.4 195.05 47.0 L190.05 47.6 185.05 47.0 Q182.95 46.4 182.95 45.55 182.95 44.7 185.05 44.05 L190.05 43.45 195.05 44.05 Q197.15 44.7 197.15 45.55" fill="#456514" fill-rule="evenodd" stroke="none"/>
      <path d="M235.65 74.85 Q235.65 75.7 233.55 76.35 L228.55 76.95 223.55 76.35 Q221.5 75.7 221.5 74.85 221.5 74.0 223.55 73.4 L228.55 72.8 233.55 73.4 Q235.65 74.0 235.65 74.85" fill="#456514" fill-rule="evenodd" stroke="none"/>
      <path d="M141.95 70.6 Q141.95 71.45 139.9 72.1 L134.85 72.7 129.85 72.1 Q127.8 71.45 127.8 70.6 127.8 69.75 129.85 69.15 131.9 68.55 134.85 68.55 L139.9 69.15 Q141.95 69.75 141.95 70.6" fill="#456514" fill-rule="evenodd" stroke="none"/>
      <path d="M186.05 84.15 Q186.05 85.0 184.0 85.6 L178.95 86.2 173.95 85.6 Q171.9 85.0 171.9 84.15 171.9 83.3 173.95 82.65 L178.95 82.05 184.0 82.65 Q186.05 83.3 186.05 84.15" fill="#456514" fill-rule="evenodd" stroke="none"/>
      <path d="M50.3 72.45 Q50.3 73.3 48.2 73.9 L43.2 74.5 38.2 73.9 Q36.15 73.3 36.15 72.45 36.15 71.6 38.2 70.95 L43.2 70.35 48.2 70.95 Q50.3 71.6 50.3 72.45" fill="#456514" fill-rule="evenodd" stroke="none"/>
      <path d="M167.45 73.2 Q167.45 74.05 165.4 74.65 L160.35 75.25 155.35 74.65 Q153.3 74.05 153.3 73.2 153.3 72.35 155.35 71.75 L160.35 71.15 165.4 71.75 Q167.45 72.35 167.45 73.2" fill="#456514" fill-rule="evenodd" stroke="none"/>
      <path d="M33.25 58.9 Q33.25 59.75 31.2 60.4 L26.15 61.0 21.15 60.4 Q19.1 59.75 19.1 58.9 19.1 58.05 21.15 57.45 L26.15 56.85 31.2 57.45 Q33.25 58.05 33.25 58.9" fill="#456514" fill-rule="evenodd" stroke="none"/>
      <path d="M213.45 70.1 Q213.45 70.95 211.4 71.55 L206.4 72.15 201.35 71.55 Q199.3 70.95 199.3 70.1 199.3 69.25 201.35 68.6 L206.4 68.0 211.4 68.6 Q213.45 69.25 213.45 70.1" fill="#456514" fill-rule="evenodd" stroke="none"/>
      <path d="M43.7 19.3 Q43.7 20.15 41.65 20.8 L36.65 21.4 31.6 20.8 Q29.55 20.15 29.55 19.3 29.55 18.45 31.6 17.85 L36.65 17.25 41.65 17.85 Q43.7 18.45 43.7 19.3" fill="#456514" fill-rule="evenodd" stroke="none"/>
      <path d="M73.15 11.6 Q73.15 12.45 71.1 13.1 L66.1 13.7 61.05 13.1 Q59.0 12.45 59.0 11.6 59.0 10.75 61.05 10.15 L66.1 9.55 71.1 10.15 Q73.15 10.75 73.15 11.6" fill="#456514" fill-rule="evenodd" stroke="none"/>
      <path d="M132.6 87.2 Q132.6 88.05 130.55 88.65 L125.55 89.2 120.5 88.6 Q118.45 87.95 118.45 87.1 118.45 86.25 120.55 85.65 L125.55 85.1 130.55 85.7 Q132.65 86.35 132.6 87.2" fill="#456514" fill-rule="evenodd" stroke="none"/>
      <path d="M427.5 4.95 L432.55 4.35 437.55 4.95 Q439.6 5.6 439.6 6.45 439.6 7.3 437.55 7.9 L432.55 8.5 427.5 7.9 Q425.45 7.3 425.45 6.45 425.45 5.6 427.5 4.95" fill="#456514" fill-rule="evenodd" stroke="none"/>
      <path d="M288.55 15.05 Q288.55 15.9 286.5 16.5 L281.5 17.1 276.45 16.5 Q274.4 15.9 274.4 15.05 274.4 14.2 276.45 13.55 L281.5 12.95 286.5 13.55 Q288.55 14.2 288.55 15.05" fill="#456514" fill-rule="evenodd" stroke="none"/>
      <path d="M368.75 16.5 Q368.75 17.35 366.7 18.0 L361.7 18.6 356.65 18.0 Q354.6 17.35 354.6 16.5 354.6 15.65 356.65 15.05 L361.7 14.45 366.7 15.05 Q368.75 15.65 368.75 16.5" fill="#456514" fill-rule="evenodd" stroke="none"/>
      <path d="M333.25 23.1 Q333.25 23.95 331.2 24.6 L326.15 25.2 321.15 24.6 Q319.1 23.95 319.1 23.1 319.1 22.25 321.15 21.65 L326.15 21.05 331.2 21.65 Q333.25 22.25 333.25 23.1" fill="#456514" fill-rule="evenodd" stroke="none"/>
      <path d="M309.9 37.2 Q309.9 38.05 307.8 38.7 L302.8 39.3 297.8 38.7 Q295.7 38.05 295.7 37.2 295.7 36.35 297.8 35.75 L302.8 35.15 307.8 35.75 Q309.9 36.35 309.9 37.2" fill="#456514" fill-rule="evenodd" stroke="none"/>
      <path d="M253.5 24.0 Q253.5 24.85 251.45 25.5 L246.45 26.1 241.45 25.5 Q239.35 24.85 239.35 24.0 239.35 23.15 241.45 22.55 L246.45 21.95 251.45 22.55 Q253.5 23.15 253.5 24.0" fill="#456514" fill-rule="evenodd" stroke="none"/>
      <path d="M275.85 37.9 Q275.85 38.75 273.8 39.35 L268.8 39.95 263.8 39.35 Q261.7 38.75 261.7 37.9 261.7 37.05 263.8 36.4 L268.8 35.8 273.8 36.4 Q275.85 37.05 275.85 37.9" fill="#456514" fill-rule="evenodd" stroke="none"/>
      <path d="M403.45 8.1 Q403.45 8.95 401.4 9.55 L396.4 10.15 391.4 9.55 Q389.3 8.95 389.3 8.1 389.3 7.25 391.4 6.6 L396.4 6.0 401.4 6.6 Q403.45 7.25 403.45 8.1" fill="#456514" fill-rule="evenodd" stroke="none"/>
      <path d="M343.55 40.55 Q343.55 41.4 341.45 42.05 L336.45 42.65 331.45 42.05 Q329.4 41.4 329.4 40.55 329.4 39.7 331.45 39.1 L336.45 38.5 341.45 39.1 Q343.55 39.7 343.55 40.55" fill="#456514" fill-rule="evenodd" stroke="none"/>
      <path d="M270.15 59.2 Q270.15 60.05 268.1 60.7 L263.1 61.3 258.1 60.7 Q256.0 60.05 256.0 59.2 256.0 58.35 258.1 57.75 L263.1 57.15 268.1 57.75 Q270.15 58.35 270.15 59.2" fill="#456514" fill-rule="evenodd" stroke="none"/>
      <path d="M375.15 35.45 L380.15 36.05 Q382.2 36.65 382.2 37.5 382.2 38.35 380.15 39.0 L375.15 39.6 370.15 39.0 Q368.05 38.35 368.05 37.5 368.05 36.65 370.15 36.05 L375.15 35.45" fill="#456514" fill-rule="evenodd" stroke="none"/>
      <path d="M406.35 46.15 Q406.35 47.0 404.3 47.65 L399.25 48.25 394.25 47.65 Q392.2 47.0 392.2 46.15 392.2 45.3 394.25 44.7 L399.25 44.1 404.3 44.7 Q406.35 45.3 406.35 46.15" fill="#456514" fill-rule="evenodd" stroke="none"/>
      <path d="M254.9 84.8 L259.9 85.4 Q261.95 86.05 261.95 86.9 261.95 87.75 259.9 88.35 L254.9 88.95 249.9 88.35 Q247.8 87.75 247.8 86.9 247.8 86.05 249.9 85.4 L254.9 84.8" fill="#456514" fill-rule="evenodd" stroke="none"/>
      <path d="M292.8 53.45 L297.8 54.05 Q299.9 54.65 299.9 55.5 299.9 56.35 297.8 57.0 L292.8 57.6 287.8 57.0 Q285.7 56.35 285.7 55.5 285.7 54.65 287.8 54.05 289.85 53.45 292.8 53.45" fill="#456514" fill-rule="evenodd" stroke="none"/>
      <path d="M332.3 61.4 Q332.3 62.25 330.2 62.85 L325.2 63.45 320.2 62.85 Q318.1 62.25 318.1 61.4 318.1 60.55 320.2 59.95 L325.2 59.35 330.2 59.95 Q332.3 60.55 332.3 61.4" fill="#456514" fill-rule="evenodd" stroke="none"/>
      <path d="M368.05 53.05 Q370.15 53.7 370.15 54.55 370.15 55.4 368.05 56.0 L363.05 56.6 358.05 56.0 Q355.95 55.4 355.95 54.55 355.95 53.7 358.05 53.05 L363.05 52.45 368.05 53.05" fill="#456514" fill-rule="evenodd" stroke="none"/>
      <path d="M390.65 68.85 Q390.65 69.7 388.55 70.35 L383.55 70.95 378.55 70.35 Q376.5 69.7 376.5 68.85 376.5 68.0 378.55 67.4 L383.55 66.8 388.55 67.4 Q390.65 68.0 390.65 68.85" fill="#456514" fill-rule="evenodd" stroke="none"/>
      <path d="M300.95 73.6 Q300.95 74.45 298.9 75.1 L293.85 75.7 288.85 75.1 Q286.8 74.45 286.8 73.6 286.8 72.75 288.85 72.15 L293.85 71.55 298.9 72.15 Q300.95 72.75 300.95 73.6" fill="#456514" fill-rule="evenodd" stroke="none"/>
      <path d="M337.05 83.15 Q337.05 84.0 335.0 84.6 L329.95 85.2 324.95 84.6 Q322.9 84.0 322.9 83.15 322.9 82.3 324.95 81.65 L329.95 81.05 335.0 81.65 Q337.05 82.3 337.05 83.15" fill="#456514" fill-rule="evenodd" stroke="none"/>
      <path d="M352.45 72.2 Q352.45 73.05 350.4 73.65 L345.35 74.25 340.35 73.65 Q338.3 73.05 338.3 72.2 338.3 71.35 340.35 70.75 L345.35 70.15 350.4 70.75 Q352.45 71.35 352.45 72.2" fill="#456514" fill-rule="evenodd" stroke="none"/>
      <path d="M373.45 84.1 Q373.45 84.95 371.4 85.55 L366.4 86.15 361.35 85.55 Q359.3 84.95 359.3 84.1 359.3 83.25 361.35 82.6 L366.4 82.0 371.4 82.6 Q373.45 83.25 373.45 84.1" fill="#456514" fill-rule="evenodd" stroke="none"/>
      <path d="M514.55 9.05 Q514.55 9.9 512.5 10.5 L507.5 11.1 502.45 10.5 Q500.4 9.9 500.4 9.05 500.4 8.2 502.45 7.55 L507.5 6.95 512.5 7.55 Q514.55 8.2 514.55 9.05" fill="#456514" fill-rule="evenodd" stroke="none"/>
      <path d="M578.7 6.05 Q580.75 6.65 580.75 7.5 580.75 8.35 578.7 9.0 L573.7 9.6 568.65 9.0 Q566.6 8.35 566.6 7.5 566.6 6.65 568.65 6.05 L573.7 5.45 578.7 6.05" fill="#456514" fill-rule="evenodd" stroke="none"/>
      <path d="M536.15 10.65 L541.15 10.05 546.2 10.65 Q548.25 11.25 548.25 12.1 548.25 12.95 546.2 13.6 L541.15 14.2 536.15 13.6 Q534.1 12.95 534.1 12.1 534.1 11.25 536.15 10.65" fill="#456514" fill-rule="evenodd" stroke="none"/>
      <path d="M527.9 36.2 Q527.9 37.05 525.8 37.7 L520.8 38.3 515.8 37.7 Q513.7 37.05 513.7 36.2 513.7 35.35 515.8 34.75 L520.8 34.15 525.8 34.75 Q527.9 35.35 527.9 36.2" fill="#456514" fill-rule="evenodd" stroke="none"/>
      <path d="M457.1 40.0 L462.1 40.6 Q464.15 41.25 464.15 42.1 464.15 42.95 462.1 43.55 L457.1 44.15 452.05 43.55 Q450.0 42.95 450.0 42.1 450.0 41.25 452.05 40.6 L457.1 40.0" fill="#456514" fill-rule="evenodd" stroke="none"/>
      <path d="M480.5 20.0 Q480.5 20.85 478.45 21.5 L473.45 22.1 468.45 21.5 Q466.35 20.85 466.35 20.0 466.35 19.15 468.45 18.55 L473.45 17.95 478.45 18.55 Q480.5 19.15 480.5 20.0" fill="#456514" fill-rule="evenodd" stroke="none"/>
      <path d="M494.8 32.8 L499.8 33.4 Q501.85 34.05 501.85 34.9 501.85 35.75 499.8 36.35 L494.8 36.95 489.8 36.35 Q487.7 35.75 487.7 34.9 487.7 34.05 489.8 33.4 L494.8 32.8" fill="#456514" fill-rule="evenodd" stroke="none"/>
      <path d="M615.45 13.1 Q615.45 13.95 613.4 14.55 L608.4 15.15 603.4 14.55 Q601.3 13.95 601.3 13.1 601.3 12.25 603.4 11.6 L608.4 11.0 613.4 11.6 Q615.45 12.25 615.45 13.1" fill="#456514" fill-rule="evenodd" stroke="none"/>
      <path d="M568.55 27.55 Q568.55 28.4 566.45 29.05 L561.45 29.65 556.45 29.05 Q554.4 28.4 554.4 27.55 554.4 26.7 556.45 26.1 L561.45 25.5 566.45 26.1 Q568.55 26.7 568.55 27.55" fill="#456514" fill-rule="evenodd" stroke="none"/>
      <path d="M495.15 53.2 Q495.15 54.05 493.1 54.7 L488.1 55.3 483.1 54.7 Q481.0 54.05 481.0 53.2 481.0 52.35 483.1 51.75 L488.1 51.15 493.1 51.75 Q495.15 52.35 495.15 53.2" fill="#456514" fill-rule="evenodd" stroke="none"/>
      <path d="M435.9 33.1 Q435.9 33.95 433.8 34.55 L428.8 35.15 423.8 34.55 Q421.75 33.95 421.75 33.1 421.75 32.25 423.8 31.6 L428.8 31.0 433.8 31.6 Q435.9 32.25 435.9 33.1" fill="#456514" fill-rule="evenodd" stroke="none"/>
      <path d="M607.2 33.5 Q607.2 34.35 605.15 35.0 L600.15 35.6 595.15 35.0 Q593.05 34.35 593.05 33.5 593.05 32.65 595.15 32.05 L600.15 31.45 605.15 32.05 Q607.2 32.65 607.2 33.5" fill="#456514" fill-rule="evenodd" stroke="none"/>
      <path d="M620.3 47.7 Q622.35 48.3 622.35 49.15 622.35 50.0 620.3 50.65 L615.25 51.25 Q612.35 51.25 610.25 50.65 608.2 50.0 608.2 49.15 608.2 48.3 610.25 47.7 L615.25 47.1 620.3 47.7" fill="#456514" fill-rule="evenodd" stroke="none"/>
      <path d="M455.55 61.3 Q455.55 62.15 453.5 62.8 L448.45 63.4 443.45 62.8 Q441.4 62.15 441.4 61.3 441.4 60.45 443.45 59.85 L448.45 59.25 453.5 59.85 Q455.55 60.45 455.55 61.3" fill="#456514" fill-rule="evenodd" stroke="none"/>
      <path d="M494.8 71.3 L499.85 71.9 Q501.9 72.55 501.9 73.4 501.9 74.25 499.85 74.85 L494.8 75.45 489.8 74.85 Q487.75 74.25 487.75 73.4 487.75 72.55 489.8 71.9 L494.8 71.3" fill="#456514" fill-rule="evenodd" stroke="none"/>
      <path d="M473.95 79.9 Q473.95 80.75 471.9 81.35 L466.9 81.95 461.9 81.35 Q459.8 80.75 459.8 79.9 459.8 79.05 461.9 78.4 464.0 77.8 466.9 77.8 L471.9 78.4 Q473.95 79.05 473.95 79.9" fill="#456514" fill-rule="evenodd" stroke="none"/>
      <path d="M536.8 51.45 L541.8 52.05 Q543.9 52.65 543.9 53.5 543.9 54.35 541.8 55.0 L536.8 55.6 531.8 55.0 Q529.7 54.35 529.7 53.5 529.7 52.65 531.8 52.05 L536.8 51.45" fill="#456514" fill-rule="evenodd" stroke="none"/>
      <path d="M576.3 61.4 Q576.3 62.25 574.2 62.85 L569.2 63.45 564.2 62.85 Q562.1 62.25 562.1 61.4 562.1 60.55 564.2 59.95 L569.2 59.35 574.2 59.95 Q576.3 60.55 576.3 61.4" fill="#456514" fill-rule="evenodd" stroke="none"/>
      <path d="M588.15 46.55 Q588.15 47.4 586.05 48.0 L581.05 48.6 576.05 48.0 Q573.95 47.4 573.95 46.55 573.95 45.7 576.05 45.05 L581.05 44.45 586.05 45.05 Q588.15 45.7 588.15 46.55" fill="#456514" fill-rule="evenodd" stroke="none"/>
      <path d="M626.65 75.85 Q626.65 76.7 624.55 77.35 L619.55 77.95 614.55 77.35 Q612.5 76.7 612.5 75.85 612.5 75.0 614.55 74.4 L619.55 73.8 624.55 74.4 Q626.65 75.0 626.65 75.85" fill="#456514" fill-rule="evenodd" stroke="none"/>
      <path d="M532.95 71.6 Q532.95 72.45 530.9 73.1 L525.85 73.7 520.85 73.1 Q518.8 72.45 518.8 71.6 518.8 70.75 520.85 70.15 L525.85 69.55 530.9 70.15 Q532.95 70.75 532.95 71.6" fill="#456514" fill-rule="evenodd" stroke="none"/>
      <path d="M577.05 85.15 Q577.05 86.0 575.0 86.6 L569.95 87.2 564.95 86.6 Q562.9 86.0 562.9 85.15 562.9 84.3 564.95 83.65 L569.95 83.05 575.0 83.65 Q577.05 84.3 577.05 85.15" fill="#456514" fill-rule="evenodd" stroke="none"/>
      <path d="M441.3 73.45 Q441.3 74.3 439.2 74.9 L434.2 75.5 429.2 74.9 Q427.15 74.3 427.15 73.45 427.15 72.6 429.2 71.95 L434.2 71.35 439.2 71.95 Q441.3 72.6 441.3 73.45" fill="#456514" fill-rule="evenodd" stroke="none"/>
      <path d="M558.45 74.2 Q558.45 75.05 556.4 75.65 L551.35 76.25 546.35 75.65 Q544.3 75.05 544.3 74.2 544.3 73.35 546.35 72.75 L551.35 72.15 556.4 72.75 Q558.45 73.35 558.45 74.2" fill="#456514" fill-rule="evenodd" stroke="none"/>
      <path d="M417.15 57.85 L422.2 58.45 Q424.25 59.05 424.25 59.9 424.25 60.75 422.2 61.4 L417.15 62.0 412.15 61.4 Q410.1 60.75 410.1 59.9 410.1 59.05 412.15 58.45 L417.15 57.85" fill="#456514" fill-rule="evenodd" stroke="none"/>
      <path d="M604.45 71.1 Q604.45 71.95 602.4 72.55 L597.4 73.15 592.35 72.55 Q590.3 71.95 590.3 71.1 590.3 70.25 592.35 69.6 L597.4 69.0 602.4 69.6 Q604.45 70.25 604.45 71.1" fill="#456514" fill-rule="evenodd" stroke="none"/>
      <path d="M425.7 18.3 Q425.7 19.15 423.65 19.8 L418.65 20.4 413.6 19.8 Q411.55 19.15 411.55 18.3 411.55 17.45 413.6 16.85 L418.65 16.25 423.65 16.85 Q425.7 17.45 425.7 18.3" fill="#456514" fill-rule="evenodd" stroke="none"/>
      <path d="M457.1 10.55 L462.1 11.15 Q464.15 11.75 464.15 12.6 464.15 13.45 462.1 14.1 L457.1 14.7 452.05 14.1 Q450.0 13.45 450.0 12.6 450.0 11.75 452.05 11.15 L457.1 10.55" fill="#456514" fill-rule="evenodd" stroke="none"/>
      <path d="M639.55 10.05 Q639.55 10.9 637.5 11.5 L632.5 12.1 627.45 11.5 Q625.4 10.9 625.4 10.05 625.4 9.2 627.45 8.55 L632.5 7.95 637.5 8.55 Q639.55 9.2 639.55 10.05" fill="#456514" fill-rule="evenodd" stroke="none"/>
      <path d="M719.75 11.5 Q719.75 12.35 717.7 13.0 L712.7 13.6 707.65 13.0 Q705.6 12.35 705.6 11.5 705.6 10.65 707.65 10.05 L712.7 9.45 717.7 10.05 Q719.75 10.65 719.75 11.5" fill="#456514" fill-rule="evenodd" stroke="none"/>
      <path d="M684.25 18.1 Q684.25 18.95 682.2 19.6 L677.15 20.2 672.15 19.6 Q670.1 18.95 670.1 18.1 670.1 17.25 672.15 16.65 L677.15 16.05 682.2 16.65 Q684.25 17.25 684.25 18.1" fill="#456514" fill-rule="evenodd" stroke="none"/>
      <path d="M660.9 32.2 Q660.9 33.05 658.8 33.7 L653.8 34.3 648.8 33.7 Q646.7 33.05 646.7 32.2 646.7 31.35 648.8 30.75 L653.8 30.15 658.8 30.75 Q660.9 31.35 660.9 32.2" fill="#456514" fill-rule="evenodd" stroke="none"/>
      <path d="M750.45 9.1 Q750.45 9.95 748.4 10.55 L743.4 11.15 738.4 10.55 Q736.3 9.95 736.3 9.1 736.3 8.25 738.4 7.6 L743.4 7.0 748.4 7.6 Q750.45 8.25 750.45 9.1" fill="#456514" fill-rule="evenodd" stroke="none"/>
      <path d="M694.55 35.55 Q694.55 36.4 692.45 37.05 L687.45 37.65 682.45 37.05 Q680.4 36.4 680.4 35.55 680.4 34.7 682.45 34.1 L687.45 33.5 692.45 34.1 Q694.55 34.7 694.55 35.55" fill="#456514" fill-rule="evenodd" stroke="none"/>
      <path d="M733.2 32.5 Q733.2 33.35 731.15 34.0 L726.15 34.6 721.15 34.0 Q719.05 33.35 719.05 32.5 719.05 31.65 721.15 31.05 L726.15 30.45 731.15 31.05 Q733.2 31.65 733.2 32.5" fill="#456514" fill-rule="evenodd" stroke="none"/>
      <path d="M757.35 41.15 Q757.35 42.0 755.3 42.65 L750.25 43.25 Q747.35 43.25 745.25 42.65 743.2 42.0 743.2 41.15 743.2 40.3 745.25 39.7 L750.25 39.1 755.3 39.7 Q757.35 40.3 757.35 41.15" fill="#456514" fill-rule="evenodd" stroke="none"/>
      <path d="M650.9 50.5 Q650.9 51.35 648.8 52.0 L643.8 52.6 638.8 52.0 Q636.7 51.35 636.7 50.5 636.7 49.65 638.8 49.05 L643.8 48.45 648.8 49.05 Q650.9 49.65 650.9 50.5" fill="#456514" fill-rule="evenodd" stroke="none"/>
      <path d="M683.3 56.4 Q683.3 57.25 681.2 57.85 L676.2 58.45 671.2 57.85 Q669.1 57.25 669.1 56.4 669.1 55.55 671.2 54.95 L676.2 54.35 681.2 54.95 Q683.3 55.55 683.3 56.4" fill="#456514" fill-rule="evenodd" stroke="none"/>
      <path d="M721.15 49.55 Q721.15 50.4 719.05 51.0 L714.05 51.6 709.05 51.0 Q706.95 50.4 706.95 49.55 706.95 48.7 709.05 48.05 L714.05 47.45 719.05 48.05 Q721.15 48.7 721.15 49.55" fill="#456514" fill-rule="evenodd" stroke="none"/>
      <path d="M741.65 63.85 Q741.65 64.7 739.55 65.35 L734.55 65.95 729.55 65.35 Q727.5 64.7 727.5 63.85 727.5 63.0 729.55 62.4 L734.55 61.8 739.55 62.4 Q741.65 63.0 741.65 63.85" fill="#456514" fill-rule="evenodd" stroke="none"/>
      <path d="M651.95 68.6 Q651.95 69.45 649.9 70.1 L644.85 70.7 639.85 70.1 Q637.8 69.45 637.8 68.6 637.8 67.75 639.85 67.15 641.9 66.55 644.85 66.55 L649.9 67.15 Q651.95 67.75 651.95 68.6" fill="#456514" fill-rule="evenodd" stroke="none"/>
      <path d="M688.05 78.15 Q688.05 79.0 686.0 79.6 L680.95 80.2 675.95 79.6 Q673.9 79.0 673.9 78.15 673.9 77.3 675.95 76.65 L680.95 76.05 686.0 76.65 Q688.05 77.3 688.05 78.15" fill="#456514" fill-rule="evenodd" stroke="none"/>
      <path d="M701.4 65.75 Q703.45 66.35 703.45 67.2 703.45 68.05 701.4 68.65 L696.35 69.25 691.35 68.65 Q689.3 68.05 689.3 67.2 689.3 66.35 691.35 65.75 L696.35 65.15 701.4 65.75" fill="#456514" fill-rule="evenodd" stroke="none"/>
      <path d="M724.45 79.1 Q724.45 79.95 722.4 80.55 L717.4 81.15 712.35 80.55 Q710.3 79.95 710.3 79.1 710.3 78.25 712.35 77.6 L717.4 77.0 722.4 77.6 Q724.45 78.25 724.45 79.1" fill="#456514" fill-rule="evenodd" stroke="none"/>
      <path d="M863.5 2.55 Q865.55 3.2 865.55 4.05 865.55 4.9 863.5 5.5 L858.5 6.1 853.45 5.5 Q851.4 4.9 851.4 4.05 851.4 3.2 853.45 2.55 L858.5 1.95 863.5 2.55" fill="#456514" fill-rule="evenodd" stroke="none"/>
      <path d="M899.25 7.1 Q899.25 7.95 897.2 8.6 L892.15 9.2 887.15 8.6 Q885.1 7.95 885.1 7.1 885.1 6.25 887.15 5.65 L892.15 5.05 897.2 5.65 Q899.25 6.25 899.25 7.1" fill="#456514" fill-rule="evenodd" stroke="none"/>
      <path d="M878.9 31.2 Q878.9 32.05 876.8 32.7 L871.8 33.3 866.8 32.7 Q864.7 32.05 864.7 31.2 864.7 30.35 866.8 29.75 L871.8 29.15 876.8 29.75 Q878.9 30.35 878.9 31.2" fill="#456514" fill-rule="evenodd" stroke="none"/>
      <path d="M815.15 37.1 Q815.15 37.95 813.1 38.55 L808.1 39.15 803.05 38.55 Q801.0 37.95 801.0 37.1 801.0 36.25 803.05 35.6 L808.1 35.0 813.1 35.6 Q815.15 36.25 815.15 37.1" fill="#456514" fill-rule="evenodd" stroke="none"/>
      <path d="M831.5 15.0 Q831.5 15.85 829.45 16.5 L824.45 17.1 819.45 16.5 Q817.35 15.85 817.35 15.0 817.35 14.15 819.45 13.55 L824.45 12.95 829.45 13.55 Q831.5 14.15 831.5 15.0" fill="#456514" fill-rule="evenodd" stroke="none"/>
      <path d="M852.85 29.9 Q852.85 30.75 850.8 31.35 L845.8 31.95 840.8 31.35 Q838.7 30.75 838.7 29.9 838.7 29.05 840.8 28.4 L845.8 27.8 850.8 28.4 Q852.85 29.05 852.85 29.9" fill="#456514" fill-rule="evenodd" stroke="none"/>
      <path d="M966.45 8.1 Q966.45 8.95 964.4 9.55 L959.4 10.15 954.4 9.55 Q952.3 8.95 952.3 8.1 952.3 7.25 954.4 6.6 L959.4 6.0 964.4 6.6 Q966.45 7.25 966.45 8.1" fill="#456514" fill-rule="evenodd" stroke="none"/>
      <path d="M919.55 22.55 Q919.55 23.4 917.45 24.05 L912.45 24.65 907.45 24.05 Q905.4 23.4 905.4 22.55 905.4 21.7 907.45 21.1 L912.45 20.5 917.45 21.1 Q919.55 21.7 919.55 22.55" fill="#456514" fill-rule="evenodd" stroke="none"/>
      <path d="M846.15 48.2 Q846.15 49.05 844.1 49.7 L839.1 50.3 834.1 49.7 Q832.0 49.05 832.0 48.2 832.0 47.35 834.1 46.75 836.15 46.15 839.1 46.15 L844.1 46.75 Q846.15 47.35 846.15 48.2" fill="#456514" fill-rule="evenodd" stroke="none"/>
      <path d="M779.8 26.0 L784.8 26.6 Q786.9 27.25 786.9 28.1 786.9 28.95 784.8 29.55 L779.8 30.15 774.8 29.55 Q772.75 28.95 772.75 28.1 772.75 27.25 774.8 26.6 L779.8 26.0" fill="#456514" fill-rule="evenodd" stroke="none"/>
      <path d="M958.2 28.5 Q958.2 29.35 956.15 30.0 L951.15 30.6 946.15 30.0 Q944.05 29.35 944.05 28.5 944.05 27.65 946.15 27.05 L951.15 26.45 956.15 27.05 Q958.2 27.65 958.2 28.5" fill="#456514" fill-rule="evenodd" stroke="none"/>
      <path d="M973.35 44.15 Q973.35 45.0 971.3 45.65 L966.25 46.25 961.25 45.65 Q959.2 45.0 959.2 44.15 959.2 43.3 961.25 42.7 L966.25 42.1 971.3 42.7 Q973.35 43.3 973.35 44.15" fill="#456514" fill-rule="evenodd" stroke="none"/>
      <path d="M806.55 56.3 Q806.55 57.15 804.5 57.8 L799.45 58.4 Q796.55 58.4 794.45 57.8 792.4 57.15 792.4 56.3 792.4 55.45 794.45 54.85 L799.45 54.25 804.5 54.85 Q806.55 55.45 806.55 56.3" fill="#456514" fill-rule="evenodd" stroke="none"/>
      <path d="M852.9 68.4 Q852.9 69.25 850.85 69.85 L845.8 70.45 840.8 69.85 Q838.75 69.25 838.75 68.4 838.75 67.55 840.8 66.9 L845.8 66.3 850.85 66.9 Q852.9 67.55 852.9 68.4" fill="#456514" fill-rule="evenodd" stroke="none"/>
      <path d="M822.9 73.4 Q824.95 74.05 824.95 74.9 824.95 75.75 822.9 76.35 L817.9 76.95 812.9 76.35 Q810.8 75.75 810.8 74.9 810.8 74.05 812.9 73.4 L817.9 72.8 822.9 73.4" fill="#456514" fill-rule="evenodd" stroke="none"/>
      <path d="M894.9 48.5 Q894.9 49.35 892.8 50.0 L887.8 50.6 Q884.9 50.6 882.8 50.0 880.7 49.35 880.7 48.5 880.7 47.65 882.8 47.05 L887.8 46.45 892.8 47.05 Q894.9 47.65 894.9 48.5" fill="#456514" fill-rule="evenodd" stroke="none"/>
      <path d="M927.3 56.4 Q927.3 57.25 925.2 57.85 L920.2 58.45 915.2 57.85 Q913.1 57.25 913.1 56.4 913.1 55.55 915.2 54.95 L920.2 54.35 925.2 54.95 Q927.3 55.55 927.3 56.4" fill="#456514" fill-rule="evenodd" stroke="none"/>
      <path d="M767.3 85.1 Q767.3 85.95 765.25 86.6 L760.2 87.2 755.2 86.6 Q753.15 85.95 753.15 85.1 753.15 84.25 755.2 83.65 L760.2 83.05 765.25 83.65 Q767.3 84.25 767.3 85.1" fill="#456514" fill-rule="evenodd" stroke="none"/>
      <path d="M939.15 41.55 Q939.15 42.4 937.05 43.0 L932.05 43.6 927.05 43.0 Q924.95 42.4 924.95 41.55 924.95 40.7 927.05 40.05 L932.05 39.45 937.05 40.05 Q939.15 40.7 939.15 41.55" fill="#456514" fill-rule="evenodd" stroke="none"/>
      <path d="M977.65 70.85 Q977.65 71.7 975.55 72.35 L970.55 72.95 965.55 72.35 Q963.5 71.7 963.5 70.85 963.5 70.0 965.55 69.4 L970.55 68.8 975.55 69.4 Q977.65 70.0 977.65 70.85" fill="#456514" fill-rule="evenodd" stroke="none"/>
      <path d="M883.95 66.6 Q883.95 67.45 881.9 68.1 L876.85 68.7 871.85 68.1 Q869.8 67.45 869.8 66.6 869.8 65.75 871.85 65.15 L876.85 64.55 881.9 65.15 Q883.95 65.75 883.95 66.6" fill="#456514" fill-rule="evenodd" stroke="none"/>
      <path d="M928.05 80.15 Q928.05 81.0 926.0 81.6 L920.95 82.2 915.95 81.6 Q913.9 81.0 913.9 80.15 913.9 79.3 915.95 78.65 L920.95 78.05 926.0 78.65 Q928.05 79.3 928.05 80.15" fill="#456514" fill-rule="evenodd" stroke="none"/>
      <path d="M792.3 68.45 Q792.3 69.3 790.2 69.9 L785.2 70.5 780.2 69.9 Q778.15 69.3 778.15 68.45 778.15 67.6 780.2 66.95 L785.2 66.35 790.2 66.95 Q792.3 67.6 792.3 68.45" fill="#456514" fill-rule="evenodd" stroke="none"/>
      <path d="M902.35 67.15 L907.4 67.75 Q909.45 68.35 909.45 69.2 909.45 70.05 907.4 70.65 L902.35 71.25 897.35 70.65 Q895.3 70.05 895.3 69.2 895.3 68.35 897.35 67.75 L902.35 67.15" fill="#456514" fill-rule="evenodd" stroke="none"/>
      <path d="M773.2 53.45 Q775.25 54.05 775.25 54.9 775.25 55.75 773.2 56.4 L768.15 57.0 763.15 56.4 Q761.1 55.75 761.1 54.9 761.1 54.05 763.15 53.45 L768.15 52.85 773.2 53.45" fill="#456514" fill-rule="evenodd" stroke="none"/>
      <path d="M955.45 66.1 Q955.45 66.95 953.4 67.55 L948.4 68.15 943.35 67.55 Q941.3 66.95 941.3 66.1 941.3 65.25 943.35 64.6 L948.4 64.0 953.4 64.6 Q955.45 65.25 955.45 66.1" fill="#456514" fill-rule="evenodd" stroke="none"/>
      <path d="M776.7 13.3 Q776.7 14.15 774.65 14.8 L769.65 15.4 764.6 14.8 Q762.55 14.15 762.55 13.3 762.55 12.45 764.6 11.85 L769.65 11.25 774.65 11.85 Q776.7 12.45 776.7 13.3" fill="#456514" fill-rule="evenodd" stroke="none"/>
      <path d="M815.15 7.6 Q815.15 8.45 813.1 9.1 L808.1 9.7 803.05 9.1 Q801.0 8.45 801.0 7.6 801.0 6.75 803.05 6.15 L808.1 5.55 813.1 6.15 Q815.15 6.75 815.15 7.6" fill="#456514" fill-rule="evenodd" stroke="none"/>
      <path d="M809.4 88.3 Q809.4 89.15 807.3 89.75 L802.3 90.35 797.3 89.75 Q795.2 89.15 795.2 88.3 795.2 87.45 797.3 86.8 L802.3 86.2 807.3 86.8 Q809.4 87.45 809.4 88.3" fill="#456514" fill-rule="evenodd" stroke="none"/>
      <path d="M880.6 86.2 Q880.6 87.05 878.55 87.65 L873.55 88.2 868.5 87.6 Q866.45 86.95 866.45 86.1 866.45 85.25 868.55 84.65 L873.55 84.1 878.55 84.7 Q880.65 85.35 880.6 86.2" fill="#456514" fill-rule="evenodd" stroke="none"/>
      <path d="M1023.5 8.95 L1028.5 9.55 Q1030.55 10.2 1030.55 11.05 1030.55 11.9 1028.5 12.5 L1023.5 13.1 1018.45 12.5 Q1016.4 11.9 1016.4 11.05 1016.4 10.2 1018.45 9.55 L1023.5 8.95" fill="#456514" fill-rule="evenodd" stroke="none"/>
      <path d="M1103.7 10.45 L1108.7 11.05 Q1110.75 11.65 1110.75 12.5 1110.75 13.35 1108.7 14.0 L1103.7 14.6 Q1100.75 14.6 1098.65 14.0 1096.6 13.35 1096.6 12.5 1096.6 11.65 1098.65 11.05 1100.75 10.45 1103.7 10.45" fill="#456514" fill-rule="evenodd" stroke="none"/>
      <path d="M1075.25 19.1 Q1075.25 19.95 1073.2 20.6 L1068.15 21.2 1063.15 20.6 Q1061.1 19.95 1061.1 19.1 1061.1 18.25 1063.15 17.65 L1068.15 17.05 1073.2 17.65 Q1075.25 18.25 1075.25 19.1" fill="#456514" fill-rule="evenodd" stroke="none"/>
      <path d="M1051.9 33.2 Q1051.9 34.05 1049.8 34.7 L1044.8 35.3 1039.8 34.7 Q1037.7 34.05 1037.7 33.2 1037.7 32.35 1039.8 31.75 L1044.8 31.15 1049.8 31.75 Q1051.9 32.35 1051.9 33.2" fill="#456514" fill-rule="evenodd" stroke="none"/>
      <path d="M995.5 20.0 Q995.5 20.85 993.45 21.5 L988.45 22.1 983.45 21.5 Q981.35 20.85 981.35 20.0 981.35 19.15 983.45 18.55 L988.45 17.95 993.45 18.55 Q995.5 19.15 995.5 20.0" fill="#456514" fill-rule="evenodd" stroke="none"/>
      <path d="M1017.85 33.9 Q1017.85 34.75 1015.8 35.35 L1010.8 35.95 1005.8 35.35 Q1003.7 34.75 1003.7 33.9 1003.7 33.05 1005.8 32.4 L1010.8 31.8 1015.8 32.4 Q1017.85 33.05 1017.85 33.9" fill="#456514" fill-rule="evenodd" stroke="none"/>
      <path d="M1143.45 11.1 Q1143.45 11.95 1141.4 12.55 L1136.4 13.15 1131.4 12.55 Q1129.3 11.95 1129.3 11.1 1129.3 10.25 1131.4 9.6 L1136.4 9.0 1141.4 9.6 Q1143.45 10.25 1143.45 11.1" fill="#456514" fill-rule="evenodd" stroke="none"/>
      <path d="M1085.55 36.55 Q1085.55 37.4 1083.45 38.05 L1078.45 38.65 1073.45 38.05 Q1071.4 37.4 1071.4 36.55 1071.4 35.7 1073.45 35.1 L1078.45 34.5 1083.45 35.1 Q1085.55 35.7 1085.55 36.55" fill="#456514" fill-rule="evenodd" stroke="none"/>
      <path d="M1010.1 53.75 Q1012.15 54.35 1012.15 55.2 1012.15 56.05 1010.1 56.7 L1005.1 57.3 1000.1 56.7 Q998.0 56.05 998.0 55.2 998.0 54.35 1000.1 53.75 L1005.1 53.15 1010.1 53.75" fill="#456514" fill-rule="evenodd" stroke="none"/>
      <path d="M1124.2 33.5 Q1124.2 34.35 1122.15 35.0 L1117.15 35.6 1112.15 35.0 Q1110.05 34.35 1110.05 33.5 1110.05 32.65 1112.15 32.05 L1117.15 31.45 1122.15 32.05 Q1124.2 32.65 1124.2 33.5" fill="#456514" fill-rule="evenodd" stroke="none"/>
      <path d="M1146.3 40.7 Q1148.35 41.3 1148.35 42.15 1148.35 43.0 1146.3 43.65 L1141.25 44.25 1136.25 43.65 Q1134.2 43.0 1134.2 42.15 1134.2 41.3 1136.25 40.7 L1141.25 40.1 1146.3 40.7" fill="#456514" fill-rule="evenodd" stroke="none"/>
      <path d="M1003.95 82.9 Q1003.95 83.75 1001.9 84.35 L996.9 84.95 991.9 84.35 Q989.8 83.75 989.8 82.9 989.8 82.05 991.9 81.4 L996.9 80.8 1001.9 81.4 Q1003.95 82.05 1003.95 82.9" fill="#456514" fill-rule="evenodd" stroke="none"/>
      <path d="M1041.9 51.5 Q1041.9 52.35 1039.8 53.0 L1034.8 53.6 1029.8 53.0 Q1027.7 52.35 1027.7 51.5 1027.7 50.65 1029.8 50.05 L1034.8 49.45 1039.8 50.05 Q1041.9 50.65 1041.9 51.5" fill="#456514" fill-rule="evenodd" stroke="none"/>
      <path d="M1062.2 55.95 L1067.2 55.35 1072.2 55.95 Q1074.3 56.55 1074.3 57.4 1074.3 58.25 1072.2 58.85 L1067.2 59.45 1062.2 58.85 Q1060.1 58.25 1060.1 57.4 1060.1 56.55 1062.2 55.95" fill="#456514" fill-rule="evenodd" stroke="none"/>
      <path d="M1105.05 48.45 L1110.05 49.05 Q1112.15 49.7 1112.15 50.55 1112.15 51.4 1110.05 52.0 L1105.05 52.6 1100.05 52.0 Q1097.95 51.4 1097.95 50.55 1097.95 49.7 1100.05 49.05 L1105.05 48.45" fill="#456514" fill-rule="evenodd" stroke="none"/>
      <path d="M1132.65 64.85 Q1132.65 65.7 1130.55 66.35 L1125.55 66.95 1120.55 66.35 Q1118.5 65.7 1118.5 64.85 1118.5 64.0 1120.55 63.4 L1125.55 62.8 1130.55 63.4 Q1132.65 64.0 1132.65 64.85" fill="#456514" fill-rule="evenodd" stroke="none"/>
      <path d="M1042.95 69.6 Q1042.95 70.45 1040.9 71.1 L1035.85 71.7 1030.85 71.1 Q1028.8 70.45 1028.8 69.6 1028.8 68.75 1030.85 68.15 L1035.85 67.55 1040.9 68.15 Q1042.95 68.75 1042.95 69.6" fill="#456514" fill-rule="evenodd" stroke="none"/>
      <path d="M1079.05 79.15 Q1079.05 80.0 1077.0 80.6 L1071.95 81.2 1066.95 80.6 Q1064.9 80.0 1064.9 79.15 1064.9 78.3 1066.95 77.65 L1071.95 77.05 1077.0 77.65 Q1079.05 78.3 1079.05 79.15" fill="#456514" fill-rule="evenodd" stroke="none"/>
      <path d="M1094.45 68.2 Q1094.45 69.05 1092.4 69.65 L1087.35 70.25 Q1084.4 70.25 1082.35 69.65 1080.3 69.05 1080.3 68.2 1080.3 67.35 1082.35 66.75 1084.4 66.15 1087.35 66.15 L1092.4 66.75 Q1094.45 67.35 1094.45 68.2" fill="#456514" fill-rule="evenodd" stroke="none"/>
      <path d="M1115.45 80.1 Q1115.45 80.95 1113.4 81.55 L1108.4 82.15 1103.35 81.55 Q1101.3 80.95 1101.3 80.1 1101.3 79.25 1103.35 78.6 L1108.4 78.0 1113.4 78.6 Q1115.45 79.25 1115.45 80.1" fill="#456514" fill-rule="evenodd" stroke="none"/>
      <path d="M1045.6 84.2 Q1045.6 85.05 1043.55 85.65 L1038.55 86.2 1033.5 85.6 Q1031.45 84.95 1031.45 84.1 1031.45 83.25 1033.55 82.65 L1038.55 82.1 1043.55 82.7 Q1045.65 83.35 1045.6 84.2" fill="#456514" fill-rule="evenodd" stroke="none"/>
      <path d="M1206.15 38.1 Q1206.15 38.95 1204.1 39.55 L1199.1 40.15 1194.05 39.55 Q1192.0 38.95 1192.0 38.1 1192.0 37.25 1194.05 36.6 L1199.1 36.0 1204.1 36.6 Q1206.15 37.25 1206.15 38.1" fill="#456514" fill-rule="evenodd" stroke="none"/>
      <path d="M1177.9 29.1 Q1177.9 29.95 1175.8 30.55 L1170.8 31.15 1165.8 30.55 Q1163.75 29.95 1163.75 29.1 1163.75 28.25 1165.8 27.6 L1170.8 27.0 1175.8 27.6 Q1177.9 28.25 1177.9 29.1" fill="#456514" fill-rule="evenodd" stroke="none"/>
      <path d="M1197.55 57.3 Q1197.55 58.15 1195.5 58.8 L1190.45 59.4 1185.45 58.8 Q1183.4 58.15 1183.4 57.3 1183.4 56.45 1185.45 55.85 L1190.45 55.25 1195.5 55.85 Q1197.55 56.45 1197.55 57.3" fill="#456514" fill-rule="evenodd" stroke="none"/>
      <path d="M1215.95 75.9 Q1215.95 76.75 1213.9 77.35 L1208.9 77.95 1203.9 77.35 Q1201.8 76.75 1201.8 75.9 1201.8 75.05 1203.9 74.4 L1208.9 73.8 1213.9 74.4 Q1215.95 75.05 1215.95 75.9" fill="#456514" fill-rule="evenodd" stroke="none"/>
      <path d="M1158.3 86.1 Q1158.3 86.95 1156.25 87.6 L1151.2 88.2 1146.2 87.6 Q1144.15 86.95 1144.15 86.1 1144.15 85.25 1146.2 84.65 L1151.2 84.05 1156.25 84.65 Q1158.3 85.25 1158.3 86.1" fill="#456514" fill-rule="evenodd" stroke="none"/>
      <path d="M1183.3 69.45 Q1183.3 70.3 1181.2 70.9 L1176.2 71.5 1171.2 70.9 Q1169.15 70.3 1169.15 69.45 1169.15 68.6 1171.2 67.95 L1176.2 67.35 1181.2 67.95 Q1183.3 68.6 1183.3 69.45" fill="#456514" fill-rule="evenodd" stroke="none"/>
      <path d="M1164.2 54.45 Q1166.25 55.05 1166.25 55.9 1166.25 56.75 1164.2 57.4 L1159.15 58.0 1154.15 57.4 Q1152.1 56.75 1152.1 55.9 1152.1 55.05 1154.15 54.45 L1159.15 53.85 1164.2 54.45" fill="#456514" fill-rule="evenodd" stroke="none"/>
      <path d="M1167.7 14.3 Q1167.7 15.15 1165.65 15.8 L1160.65 16.4 1155.6 15.8 Q1153.55 15.15 1153.55 14.3 1153.55 13.45 1155.6 12.85 L1160.65 12.25 1165.65 12.85 Q1167.7 13.45 1167.7 14.3" fill="#456514" fill-rule="evenodd" stroke="none"/>
    </g>
  </defs>
</svg>
