<?xml version="1.0" encoding="UTF-8" standalone="no"?>
<svg xmlns:xlink="http://www.w3.org/1999/xlink" height="57.6px" width="50.0px" xmlns="http://www.w3.org/2000/svg">
  <g transform="matrix(1.0, 0.0, 0.0, 1.0, 0.0, 0.0)">
    <use height="37.75" transform="matrix(1.0, 0.0, 0.0, 1.0, 14.25, 19.85)" width="19.6" xlink:href="#shape0"/>
    <use height="47.05" transform="matrix(0.8, 0.0, 0.0, 0.8, 14.25, 19.85)" width="11.25" xlink:href="#sprite0"/>
    <use height="29.8" transform="matrix(1.0, 0.0, 0.0, 1.0, 14.25, 24.1)" width="19.6" xlink:href="#shape2"/>
    <use height="4.05" transform="matrix(0.8, 0.0, 0.0, 0.8, 17.2, 41.55)" width="9.9" xlink:href="#sprite1"/>
    <use height="0.85" transform="matrix(0.8, 0.0, 0.0, 0.8, 23.7, 40.71)" width="2.7" xlink:href="#sprite2"/>
    <use height="1.65" transform="matrix(0.8, 0.0, 0.0, 0.8, 16.94, 37.56)" width="3.0" xlink:href="#sprite3"/>
    <use height="36.85" transform="matrix(0.8, 0.0, 0.0, 0.8, 14.25, 23.94)" width="24.5" xlink:href="#sprite4"/>
    <use height="34.6" transform="matrix(0.8, 0.0, 0.0, 0.8, 32.5, 24.09)" width="1.65" xlink:href="#sprite5"/>
    <use height="29.65" transform="matrix(1.0, 0.0, 0.0, 1.0, 14.25, 16.5)" width="19.6" xlink:href="#shape8"/>
    <use height="3.35" transform="matrix(0.8, 0.0, 0.0, 0.8, 18.4, 19.65)" width="11.65" xlink:href="#sprite6"/>
    <use height="2.45" transform="matrix(1.0, 0.0, 0.0, 1.0, 18.3, 19.35)" width="8.05" xlink:href="#shape10"/>
    <use height="12.75" transform="matrix(0.8, 0.0, 0.0, 0.8, 18.25, 11.55)" width="10.25" xlink:href="#sprite7"/>
    <use height="8.2" transform="matrix(1.0, 0.0, 0.0, 1.0, 26.25, 12.6)" width="0.2" xlink:href="#shape12"/>
    <use height="10.6" transform="matrix(0.8, 0.0, 0.0, 0.8, 23.3, 13.1)" width="3.15" xlink:href="#sprite8"/>
    <use height="10.05" transform="matrix(0.8, 0.0, 0.0, 0.8, 20.85, 13.65)" width="0.55" xlink:href="#sprite9"/>
    <use height="10.6" transform="matrix(0.8, 0.0, 0.0, 0.8, 18.8, 13.1)" width="2.15" xlink:href="#sprite10"/>
    <use height="10.35" transform="matrix(1.0, 0.0, 0.0, 1.0, 18.25, 11.5)" width="8.2" xlink:href="#shape16"/>
    <use height="9.35" transform="matrix(0.8, 0.0, 0.0, 0.8, 31.9, 30.4)" width="2.85" xlink:href="#sprite11"/>
    <use height="7.45" transform="matrix(1.0, 0.0, 0.0, 1.0, 31.5, 29.95)" width="4.05" xlink:href="#shape18"/>
    <use height="6.1" transform="matrix(0.8, 0.0, 0.0, 0.8, 32.89, 43.5)" width="1.6" xlink:href="#sprite12"/>
    <use height="4.7" transform="matrix(1.0, 0.0, 0.0, 1.0, 32.85, 43.15)" width="2.95" xlink:href="#shape20"/>
  </g>
  <defs>
    <g id="shape0" transform="matrix(1.0, 0.0, 0.0, 1.0, -14.25, -19.85)">
      <path d="M14.25 19.85 L33.85 19.85 33.85 54.45 33.8 54.45 33.75 54.4 Q33.45 55.75 30.65 56.65 27.85 57.6 24.05 57.6 20.25 57.6 17.45 56.65 14.65 55.75 14.35 54.4 L14.3 54.45 14.25 54.45 14.25 19.85" fill="#969696" fill-rule="evenodd" stroke="none"/>
      <path d="M14.25 19.85 L14.95 19.85 14.95 55.3 Q14.45 54.9 14.35 54.4 L14.3 54.45 14.25 54.45 14.25 19.85" fill="#737373" fill-rule="evenodd" stroke="none"/>
      <path d="M32.4 44.5 Q32.4 37.2 32.05 31.45 31.55 23.1 30.4 22.9 29.45 22.8 30.2 21.8 30.6 21.25 32.15 19.85 L33.05 19.85 33.05 55.4 31.75 56.2 Q32.4 53.6 32.4 44.5" fill="#b0b0b0" fill-rule="evenodd" stroke="none"/>
      <path d="M30.4 21.45 Q29.75 23.35 29.65 26.8 29.55 30.45 30.0 34.5 30.35 37.4 30.15 43.35 30.0 49.4 30.25 51.85 30.6 55.25 31.05 56.5 L27.5 57.35 27.85 56.5 Q28.75 54.6 28.4 49.1 L27.75 41.6 Q27.55 39.65 27.75 36.1 L28.15 30.25 Q28.2 27.9 27.35 25.05 L26.55 22.65 30.15 19.85 30.95 19.85 30.4 21.45" fill="#797a7d" fill-rule="evenodd" stroke="none"/>
    </g>
    <g id="sprite0" transform="matrix(1.0, 0.0, 0.0, 1.0, 0.0, 0.0)">
      <use height="47.05" transform="matrix(1.0, 0.0, 0.0, 1.0, 0.0, 0.0)" width="11.25" xlink:href="#shape1"/>
    </g>
    <g id="shape1" transform="matrix(1.0, 0.0, 0.0, 1.0, 0.0, 0.0)">
      <path d="M0.0 0.0 L11.25 0.0 Q10.35 2.45 9.6 5.85 8.7 10.15 8.7 13.5 8.7 16.2 9.75 27.75 10.7 37.95 10.35 42.0 L9.95 47.05 Q5.95 46.8 3.25 45.7 0.5 44.6 0.1 43.15 L0.05 43.25 0.0 43.25 0.0 0.0" fill="url(#gradient0)" fill-rule="evenodd" stroke="none"/>
    </g>
    <linearGradient gradientTransform="matrix(-0.0039, 0.0, 0.0, 0.0039, 6.15, 23.5)" gradientUnits="userSpaceOnUse" id="gradient0" spreadMethod="pad" x1="-819.2" x2="819.2">
      <stop offset="0.0" stop-color="#ffffff"/>
      <stop offset="1.0" stop-color="#ffffff" stop-opacity="0.0"/>
    </linearGradient>
    <g id="shape2" transform="matrix(1.0, 0.0, 0.0, 1.0, -14.25, -24.1)">
      <path d="M30.95 26.9 Q33.8 25.85 33.85 24.4 L33.85 50.8 33.8 50.8 33.75 50.7 Q33.45 52.05 30.65 53.0 27.85 53.9 24.05 53.9 20.25 53.9 17.45 53.0 14.65 52.05 14.35 50.7 L14.3 50.8 14.25 50.8 14.25 24.4 Q14.3 25.85 17.15 26.9 20.0 27.95 24.05 27.95 28.1 27.95 30.95 26.9" fill="#6e6e6e" fill-rule="evenodd" stroke="none"/>
      <path d="M30.95 26.6 Q33.8 25.55 33.85 24.1 L33.85 50.45 33.8 50.45 33.75 50.4 Q33.45 51.75 30.65 52.65 27.85 53.6 24.05 53.6 20.25 53.6 17.45 52.65 14.65 51.75 14.35 50.4 L14.3 50.45 14.25 50.45 14.25 24.1 Q14.3 25.55 17.15 26.6 20.0 27.6 24.05 27.6 28.1 27.6 30.95 26.6" fill="#50c262" fill-rule="evenodd" stroke="none"/>
      <path d="M14.25 48.1 Q14.3 49.55 17.15 50.6 20.0 51.6 24.05 51.6 28.1 51.6 30.95 50.6 33.8 49.55 33.85 48.1 L33.85 50.45 33.8 50.45 33.75 50.4 Q33.45 51.75 30.65 52.65 27.85 53.6 24.05 53.6 20.25 53.6 17.45 52.65 14.65 51.75 14.35 50.4 L14.3 50.45 14.25 50.45 14.25 48.1" fill="#90d167" fill-rule="evenodd" stroke="none"/>
      <path d="M14.25 44.1 Q14.3 45.55 17.15 46.6 20.0 47.6 24.05 47.6 28.1 47.6 30.95 46.6 33.8 45.55 33.85 44.1 L33.85 46.45 33.8 46.45 33.75 46.4 Q33.45 47.75 30.65 48.65 27.85 49.6 24.05 49.6 20.25 49.6 17.45 48.65 14.65 47.75 14.35 46.4 L14.3 46.45 14.25 46.45 14.25 44.1" fill="#90d167" fill-rule="evenodd" stroke="none"/>
      <path d="M33.85 40.05 L33.8 39.85 33.85 39.85 33.85 40.05 M14.25 40.1 Q14.3 41.55 17.15 42.6 20.0 43.6 24.05 43.6 28.1 43.6 30.95 42.6 33.8 41.55 33.85 40.1 L33.85 42.45 33.8 42.45 33.75 42.4 Q33.45 43.75 30.65 44.65 27.85 45.6 24.05 45.6 20.25 45.6 17.45 44.65 14.65 43.75 14.35 42.4 L14.3 42.45 14.25 42.45 14.25 40.1" fill="#90d167" fill-rule="evenodd" stroke="none"/>
      <path d="M14.25 36.1 Q14.3 37.55 17.15 38.6 20.0 39.6 24.05 39.6 28.1 39.6 30.95 38.6 33.8 37.55 33.85 36.1 L33.85 38.45 33.8 38.45 33.75 38.4 Q33.45 39.75 30.65 40.65 27.85 41.6 24.05 41.6 20.25 41.6 17.45 40.65 14.65 39.75 14.35 38.4 L14.3 38.45 14.25 38.45 14.25 36.1" fill="#90d167" fill-rule="evenodd" stroke="none"/>
      <path d="M14.25 32.1 Q14.3 33.55 17.15 34.6 20.0 35.6 24.05 35.6 28.1 35.6 30.95 34.6 33.8 33.55 33.85 32.1 L33.85 34.45 33.8 34.45 33.75 34.4 Q33.45 35.75 30.65 36.65 27.85 37.6 24.05 37.6 20.25 37.6 17.45 36.65 14.65 35.75 14.35 34.4 L14.3 34.45 14.25 34.45 14.25 32.1" fill="#90d167" fill-rule="evenodd" stroke="none"/>
      <path d="M30.95 30.6 Q33.8 29.55 33.85 28.1 L33.85 30.45 33.8 30.45 33.75 30.4 Q33.45 31.75 30.65 32.65 27.85 33.6 24.05 33.6 20.25 33.6 17.45 32.65 14.65 31.75 14.35 30.4 L14.3 30.45 14.25 30.45 14.25 28.1 Q14.3 29.55 17.15 30.6 20.0 31.6 24.05 31.6 28.1 31.6 30.95 30.6" fill="#90d167" fill-rule="evenodd" stroke="none"/>
      <path d="M33.85 26.45 L33.8 26.45 33.75 26.4 Q33.45 27.75 30.65 28.65 27.85 29.6 24.05 29.6 20.25 29.6 17.45 28.65 14.65 27.75 14.35 26.4 L14.3 26.45 14.25 26.45 14.25 24.1 Q14.3 25.55 17.15 26.6 20.0 27.6 24.05 27.6 28.1 27.6 30.95 26.6 33.8 25.55 33.85 24.1 L33.85 26.45" fill="#90d167" fill-rule="evenodd" stroke="none"/>
      <path d="M28.0 40.8 Q28.0 45.95 26.15 48.6 24.35 51.25 21.15 50.95 18.6 50.65 16.95 47.25 15.35 44.0 15.35 39.5 15.35 36.0 16.95 33.1 18.65 30.0 21.15 29.95 23.8 29.85 25.8 32.75 28.0 35.9 28.0 40.8" fill="#ffe8ab" fill-rule="evenodd" stroke="none"/>
      <path d="M17.3 40.4 Q17.3 38.15 18.35 36.35 19.4 34.4 21.0 34.35 22.65 34.25 23.95 36.1 25.3 38.1 25.3 41.2 25.3 44.45 24.15 46.2 22.95 47.8 21.0 47.6 19.35 47.45 18.35 45.3 17.3 43.2 17.3 40.4 M21.0 34.85 Q19.55 34.9 18.6 36.75 17.7 38.4 17.7 40.5 17.7 43.15 18.6 45.05 19.55 47.05 21.0 47.2 22.75 47.4 23.75 45.85 24.8 44.3 24.8 41.25 24.8 38.35 23.55 36.5 22.45 34.8 21.0 34.85" fill="#69a11d" fill-rule="evenodd" stroke="none"/>
      <path d="M25.65 40.4 Q26.35 40.8 26.45 41.65 26.65 42.9 25.45 44.0 23.9 45.4 20.95 45.1 18.5 44.85 17.1 42.3 15.85 40.0 16.5 38.3 17.0 37.0 18.2 37.1 19.5 37.2 20.4 38.75 21.25 40.2 22.3 40.5 L24.1 40.4 Q25.0 40.1 25.65 40.4" fill="#8c6239" fill-rule="evenodd" stroke="none"/>
    </g>
    <g id="sprite1" transform="matrix(1.0, 0.0, 0.0, 1.0, 0.0, 0.0)">
      <use height="4.05" transform="matrix(1.0, 0.0, 0.0, 1.0, 0.0, 0.0)" width="9.9" xlink:href="#shape3"/>
    </g>
    <g id="shape3" transform="matrix(1.0, 0.0, 0.0, 1.0, 0.0, 0.0)">
      <path d="M0.0 0.0 L1.05 1.3 Q2.4 2.65 4.1 3.2 L7.9 3.3 9.9 2.8 8.2 3.65 4.05 3.85 Q2.15 3.4 0.9 1.65 L0.0 0.0" fill="#000000" fill-rule="evenodd" stroke="none"/>
    </g>
    <g id="sprite2" transform="matrix(1.0, 0.0, 0.0, 1.0, 0.0, 0.05)">
      <use height="0.85" transform="matrix(1.0, 0.0, 0.0, 1.0, 0.0, -0.05)" width="2.7" xlink:href="#shape4"/>
    </g>
    <g id="shape4" transform="matrix(1.0, 0.0, 0.0, 1.0, 0.0, 0.05)">
      <path d="M0.0 0.4 Q0.9 -0.25 1.85 0.05 2.75 0.35 2.7 0.8 2.45 0.3 1.5 0.3 L0.0 0.4" fill="#ffffff" fill-rule="evenodd" stroke="none"/>
    </g>
    <g id="sprite3" transform="matrix(1.0, 0.0, 0.0, 1.0, -0.05, 0.05)">
      <use height="1.65" transform="matrix(1.0, 0.0, 0.0, 1.0, 0.05, -0.05)" width="3.0" xlink:href="#shape5"/>
    </g>
    <g id="shape5" transform="matrix(1.0, 0.0, 0.0, 1.0, -0.05, 0.05)">
      <path d="M1.45 0.65 Q0.35 0.45 0.05 1.25 L0.2 0.75 0.8 0.1 1.85 0.05 Q2.75 0.35 3.05 1.6 2.2 0.75 1.45 0.65" fill="#ffffff" fill-rule="evenodd" stroke="none"/>
    </g>
    <g id="sprite4" transform="matrix(1.0, 0.0, 0.0, 1.0, 0.0, -0.3)">
      <use height="36.85" transform="matrix(1.0, 0.0, 0.0, 1.0, 0.0, 0.3)" width="24.5" xlink:href="#shape6"/>
    </g>
    <g id="shape6" transform="matrix(1.0, 0.0, 0.0, 1.0, 0.0, -0.3)">
      <path d="M20.9 3.4 Q24.45 2.1 24.5 0.3 L24.5 33.3 24.45 33.3 24.4 33.15 Q24.0 34.85 20.5 36.0 17.0 37.15 12.25 37.15 7.5 37.15 4.0 36.0 0.5 34.85 0.1 33.15 L0.05 33.3 0.0 33.3 0.0 0.3 Q0.05 2.1 3.6 3.4 7.2 4.7 12.25 4.7 17.3 4.7 20.9 3.4" fill="url(#gradient1)" fill-rule="evenodd" stroke="none"/>
    </g>
    <linearGradient gradientTransform="matrix(0.015, 0.0, 0.0, -0.015, 12.25, 18.55)" gradientUnits="userSpaceOnUse" id="gradient1" spreadMethod="pad" x1="-819.2" x2="819.2">
      <stop offset="0.0" stop-color="#151515"/>
      <stop offset="0.30196078431372547" stop-color="#ffffff"/>
      <stop offset="1.0" stop-color="#000000"/>
    </linearGradient>
    <g id="sprite5" transform="matrix(1.0, 0.0, 0.0, 1.0, 0.0, -0.3)">
      <use height="34.6" transform="matrix(1.0, 0.0, 0.0, 1.0, 0.0, 0.3)" width="1.65" xlink:href="#shape7"/>
    </g>
    <g id="shape7" transform="matrix(1.0, 0.0, 0.0, 1.0, 0.0, -0.3)">
      <path d="M0.0 2.45 Q1.6 1.45 1.65 0.3 L1.65 33.25 1.6 33.25 1.55 33.15 Q1.35 34.1 0.0 34.9 L0.0 2.45" fill="#000000" fill-rule="evenodd" stroke="none"/>
    </g>
    <g id="shape8" transform="matrix(1.0, 0.0, 0.0, 1.0, -14.25, -16.5)">
      <path d="M33.85 20.05 Q33.85 21.55 30.95 22.6 28.1 23.6 24.05 23.6 20.0 23.6 17.15 22.6 14.25 21.55 14.25 20.05 14.25 18.6 17.15 17.55 20.0 16.5 24.05 16.5 28.1 16.5 30.95 17.55 33.85 18.6 33.85 20.05" fill="url(#gradient2)" fill-rule="evenodd" stroke="none"/>
      <path d="M21.35 45.6 Q22.65 45.8 24.6 45.65 L26.65 45.6 Q27.25 45.65 25.45 45.95 L21.7 46.15 19.05 45.8 17.25 45.3 18.3 45.2 21.35 45.6" fill="#8c6239" fill-rule="evenodd" stroke="none"/>
    </g>
    <linearGradient gradientTransform="matrix(0.0, 0.0039, 0.0039, 0.0, 24.05, 20.0)" gradientUnits="userSpaceOnUse" id="gradient2" spreadMethod="pad" x1="-819.2" x2="819.2">
      <stop offset="0.0" stop-color="#c2c2c2"/>
      <stop offset="1.0" stop-color="#8a8a8a"/>
    </linearGradient>
    <g id="sprite6" transform="matrix(1.0, 0.0, 0.0, 1.0, 0.0, 0.0)">
      <use height="3.35" transform="matrix(1.0, 0.0, 0.0, 1.0, 0.0, 0.0)" width="11.65" xlink:href="#shape9"/>
    </g>
    <g id="shape9" transform="matrix(1.0, 0.0, 0.0, 1.0, 0.0, 0.0)">
      <path d="M11.65 1.7 Q11.65 2.4 9.95 2.85 L5.8 3.35 1.7 2.85 Q0.0 2.4 0.0 1.7 0.0 1.0 1.7 0.5 L5.8 0.0 9.95 0.5 Q11.65 1.0 11.65 1.7" fill="#000000" fill-rule="evenodd" stroke="none"/>
    </g>
    <g id="shape10" transform="matrix(1.0, 0.0, 0.0, 1.0, -18.3, -19.35)">
      <path d="M26.35 20.6 Q26.35 21.1 25.2 21.45 L22.35 21.8 19.5 21.45 Q18.3 21.1 18.3 20.6 18.3 20.05 19.5 19.7 L22.35 19.35 25.2 19.7 Q26.35 20.05 26.35 20.6" fill="#575757" fill-rule="evenodd" stroke="none"/>
    </g>
    <g id="sprite7" transform="matrix(1.0, 0.0, 0.0, 1.0, 0.0, 0.0)">
      <use height="12.75" transform="matrix(1.0, 0.0, 0.0, 1.0, 0.0, 0.0)" width="10.25" xlink:href="#shape11"/>
    </g>
    <g id="shape11" transform="matrix(1.0, 0.0, 0.0, 1.0, 0.0, 0.0)">
      <path d="M10.25 1.35 L10.25 11.05 Q10.25 11.75 8.75 12.25 L5.1 12.75 1.5 12.25 Q0.0 11.75 0.0 11.05 L0.0 1.35 0.8 0.75 2.25 0.3 5.7 0.0 7.5 0.15 9.4 0.75 10.25 1.35" fill="#75aab5" fill-rule="evenodd" stroke="none"/>
    </g>
    <g id="shape12" transform="matrix(1.0, 0.0, 0.0, 1.0, -26.25, -12.6)">
      <path d="M26.45 12.6 L26.45 20.4 26.25 20.8 26.25 12.6 26.45 12.6" fill="#ffffff" fill-rule="evenodd" stroke="none"/>
    </g>
    <g id="sprite8" transform="matrix(1.0, 0.0, 0.0, 1.0, 0.0, 0.0)">
      <use height="10.6" transform="matrix(1.0, 0.0, 0.0, 1.0, 0.0, 0.0)" width="3.15" xlink:href="#shape13"/>
    </g>
    <g id="shape13" transform="matrix(1.0, 0.0, 0.0, 1.0, 0.0, 0.0)">
      <path d="M2.4 1.5 Q2.4 0.45 0.45 0.8 L3.15 0.0 3.15 9.9 Q1.95 10.6 0.0 10.6 L0.6 10.45 Q2.25 10.15 2.5 6.6 L2.4 1.5" fill="#000000" fill-rule="evenodd" stroke="none"/>
    </g>
    <g id="sprite9" transform="matrix(1.0, 0.0, 0.0, 1.0, 0.0, 0.0)">
      <use height="10.05" transform="matrix(1.0, 0.0, 0.0, 1.0, 0.0, 0.0)" width="0.55" xlink:href="#shape14"/>
    </g>
    <g id="shape14" transform="matrix(1.0, 0.0, 0.0, 1.0, 0.0, 0.0)">
      <path d="M0.0 10.0 L0.0 0.0 0.55 0.05 0.55 10.05 0.0 10.0" fill="#ffffff" fill-rule="evenodd" stroke="none"/>
    </g>
    <g id="sprite10" transform="matrix(1.0, 0.0, 0.0, 1.0, 0.0, 0.0)">
      <use height="10.6" transform="matrix(1.0, 0.0, 0.0, 1.0, 0.0, 0.0)" width="2.15" xlink:href="#shape15"/>
    </g>
    <g id="shape15" transform="matrix(1.0, 0.0, 0.0, 1.0, 0.0, 0.0)">
      <path d="M0.0 9.95 L0.0 0.0 2.15 0.65 2.15 10.6 Q0.85 10.45 0.0 9.95" fill="#ffffff" fill-rule="evenodd" stroke="none"/>
    </g>
    <g id="shape16" transform="matrix(1.0, 0.0, 0.0, 1.0, -18.25, -11.5)">
      <path d="M18.25 20.4 L18.25 12.6 18.4 12.6 18.4 20.8 18.25 20.4" fill="#ffffff" fill-rule="evenodd" stroke="none"/>
      <path d="M22.35 11.5 L25.25 11.85 Q26.45 12.2 26.45 12.7 26.45 13.2 25.25 13.55 L22.35 13.9 19.5 13.55 Q18.3 13.2 18.3 12.7 18.3 12.2 19.5 11.85 L22.35 11.5 M22.35 13.6 L25.1 13.3 Q26.2 13.0 26.2 12.6 26.2 12.2 25.1 11.95 L22.35 11.65 19.7 11.95 Q18.55 12.2 18.55 12.6 18.55 13.0 19.7 13.3 L22.35 13.6" fill="#ffffff" fill-rule="evenodd" stroke="none"/>
      <path d="M26.3 20.6 L26.45 20.65 25.25 21.45 22.35 21.85 19.5 21.55 Q18.35 21.2 18.25 20.6 L18.3 20.5 18.4 20.65 19.7 21.4 22.35 21.7 25.15 21.3 Q26.15 21.0 26.3 20.6" fill="#ffffff" fill-rule="evenodd" stroke="none"/>
    </g>
    <g id="sprite11" transform="matrix(1.0, 0.0, 0.0, 1.0, 0.0, 0.0)">
      <use height="9.35" transform="matrix(1.0, 0.0, 0.0, 1.0, 0.0, 0.0)" width="2.85" xlink:href="#shape17"/>
    </g>
    <g id="shape17" transform="matrix(1.0, 0.0, 0.0, 1.0, 0.0, 0.0)">
      <path d="M0.7 1.1 L1.3 0.05 2.15 0.1 Q3.0 0.45 2.8 1.8 L2.6 6.95 Q2.55 9.3 2.05 9.35 0.85 9.5 0.0 7.05 L0.7 1.1" fill="#000000" fill-rule="evenodd" stroke="none"/>
    </g>
    <g id="shape18" transform="matrix(1.0, 0.0, 0.0, 1.0, -31.5, -29.95)">
      <path d="M34.5 30.2 L34.35 37.25 33.35 37.4 32.45 36.8 Q31.5 35.8 31.5 33.55 31.5 31.75 32.5 30.65 32.95 30.15 33.45 29.95 L34.5 30.2" fill="#d9d9d9" fill-rule="evenodd" stroke="none"/>
      <path d="M32.45 33.75 Q32.45 32.35 33.0 31.25 33.55 30.2 34.2 30.2 34.8 30.2 35.15 31.2 35.55 32.15 35.55 33.7 35.55 35.2 35.15 36.2 34.8 37.25 34.2 37.25 33.55 37.25 33.0 36.2 32.45 35.2 32.45 33.75" fill="#949494" fill-rule="evenodd" stroke="none"/>
      <path d="M33.35 33.75 Q33.35 32.75 33.7 32.0 34.0 31.3 34.45 31.3 34.9 31.3 35.15 32.0 L35.4 33.55 35.15 35.2 Q34.85 36.2 34.45 36.2 34.0 36.2 33.7 35.5 33.35 34.8 33.35 33.75" fill="#4d4d4d" fill-rule="evenodd" stroke="none"/>
      <path d="M34.6 34.2 L34.9 31.55 35.2 31.65 35.35 32.45 35.35 34.3 Q35.1 35.75 34.35 36.1 L34.0 36.05 34.6 34.2" fill="#545454" fill-rule="evenodd" stroke="none"/>
      <path d="M34.9 31.55 L35.05 32.65 Q35.15 34.0 34.7 35.2 34.35 36.15 34.0 36.05 L34.9 31.55" fill="#878787" fill-rule="evenodd" stroke="none"/>
    </g>
    <g id="sprite12" transform="matrix(1.0, 0.0, 0.0, 1.0, -0.05, 0.0)">
      <use height="6.1" transform="matrix(1.0, 0.0, 0.0, 1.0, 0.05, 0.0)" width="1.6" xlink:href="#shape19"/>
    </g>
    <g id="shape19" transform="matrix(1.0, 0.0, 0.0, 1.0, -0.05, 0.0)">
      <path d="M1.65 0.6 L1.05 1.95 Q1.5 6.45 1.15 6.05 0.5 5.4 0.2 4.35 -0.2 2.85 0.4 1.45 L0.95 0.0 1.65 0.6" fill="#000000" fill-rule="evenodd" stroke="none"/>
    </g>
    <g id="shape20" transform="matrix(1.0, 0.0, 0.0, 1.0, -32.85, -43.15)">
      <path d="M33.85 43.15 L35.1 43.5 35.1 47.35 34.0 47.8 33.85 47.85 Q33.5 47.85 33.15 47.2 32.85 46.55 32.85 45.5 32.85 44.4 33.15 43.75 33.5 43.15 33.85 43.15" fill="url(#gradient3)" fill-rule="evenodd" stroke="none"/>
      <path d="M34.35 45.4 L34.55 44.05 Q34.75 43.5 35.1 43.5 35.35 43.5 35.6 44.05 L35.8 45.4 35.6 46.8 35.1 47.35 Q34.75 47.35 34.55 46.8 L34.35 45.4" fill="#545454" fill-rule="evenodd" stroke="none"/>
    </g>
    <linearGradient gradientTransform="matrix(1.0E-4, 0.0023, 0.0023, -1.0E-4, 34.0, 45.45)" gradientUnits="userSpaceOnUse" id="gradient3" spreadMethod="pad" x1="-819.2" x2="819.2">
      <stop offset="0.0" stop-color="#575757"/>
      <stop offset="0.30196078431372547" stop-color="#a8a8a8"/>
      <stop offset="1.0" stop-color="#454545"/>
    </linearGradient>
  </defs>
</svg>
