<?xml version="1.0" encoding="UTF-8" standalone="no"?>
<svg xmlns:xlink="http://www.w3.org/1999/xlink" height="32.75px" width="70.55px" xmlns="http://www.w3.org/2000/svg">
  <g transform="matrix(1.0, 0.0, 0.0, 1.0, 0.0, 0.0)">
    <use height="10.1" transform="matrix(1.0, 0.0, 0.0, 1.0, 24.7, 3.75)" width="34.85" xlink:href="#shape0"/>
    <use height="6.7" transform="matrix(0.75, 0.0, 0.0, 0.75, 25.1125, 6.65)" width="39.25" xlink:href="#sprite0"/>
    <use height="11.7" transform="matrix(1.0, 0.0, 0.0, 1.0, 24.7, 0.0)" width="34.45" xlink:href="#shape2"/>
    <use height="3.6" transform="matrix(0.75, 0.0, 0.0, 0.75, 45.3, 4.55)" width="13.05" xlink:href="#sprite1"/>
    <use height="5.6" transform="matrix(0.75, 0.0, 0.0, 0.75, 34.4, 1.35)" width="21.45" xlink:href="#sprite2"/>
    <use height="4.45" transform="matrix(0.75, 0.0, 0.0, 0.75, 26.95, 0.6)" width="18.9" xlink:href="#sprite3"/>
    <use height="13.05" transform="matrix(1.0, 0.0, 0.0, 1.0, 2.05, 16.2)" width="23.9" xlink:href="#shape6"/>
    <use height="13.65" transform="matrix(0.75, 0.0, 0.0, 0.75, 1.8625, 15.95)" width="28.7" xlink:href="#sprite4"/>
    <use height="14.5" transform="matrix(1.0, 0.0, 0.0, 1.0, 1.9, 12.85)" width="25.15" xlink:href="#shape8"/>
    <use height="11.85" transform="matrix(0.75, 0.0, 0.0, 0.75, 2.65, 13.15)" width="25.45" xlink:href="#sprite5"/>
    <use height="1.85" transform="matrix(0.75, 0.0, 0.0, 0.75, 6.55, 13.5)" width="13.65" xlink:href="#sprite6"/>
    <use height="9.75" transform="matrix(1.0, 0.0, 0.0, 1.0, 0.0, 7.85)" width="34.25" xlink:href="#shape11"/>
    <use height="6.95" transform="matrix(0.75, 0.0, 0.0, 0.75, 4.8, 10.15)" width="38.65" xlink:href="#sprite7"/>
    <use height="11.3" transform="matrix(1.0, 0.0, 0.0, 1.0, 0.25, 4.25)" width="33.8" xlink:href="#shape13"/>
    <use height="3.25" transform="matrix(0.75, 0.0, 0.0, 0.75, 3.95, 8.75)" width="13.1" xlink:href="#sprite8"/>
    <use height="4.95" transform="matrix(0.75, 0.0, 0.0, 0.75, 8.2875, 5.65)" width="21.6" xlink:href="#sprite9"/>
    <use height="3.9" transform="matrix(0.75, 0.0, 0.0, 0.75, 17.2, 4.7)" width="19.0" xlink:href="#sprite10"/>
    <use height="9.9" transform="matrix(1.0, 0.0, 0.0, 1.0, 32.9, 15.9)" width="27.65" xlink:href="#shape17"/>
    <use height="6.5" transform="matrix(0.75, 0.0, 0.0, 0.75, 36.7, 18.7875)" width="31.3" xlink:href="#sprite11"/>
    <use height="11.5" transform="matrix(1.0, 0.0, 0.0, 1.0, 32.95, 12.15)" width="27.3" xlink:href="#shape19"/>
    <use height="14.85" transform="matrix(0.75, 0.0, 0.0, 0.75, 41.3, 12.0)" width="23.45" xlink:href="#sprite12"/>
    <use height="3.25" transform="matrix(0.75, 0.0, 0.0, 0.75, 36.2, 17.0875)" width="7.5" xlink:href="#sprite13"/>
    <use height="5.8" transform="matrix(0.75, 0.0, 0.0, 0.75, 39.35, 13.75)" width="13.55" xlink:href="#sprite14"/>
    <use height="5.1" transform="matrix(0.75, 0.0, 0.0, 0.75, 46.4875, 12.4)" width="13.0" xlink:href="#sprite15"/>
    <use height="17.55" transform="matrix(1.0, 0.0, 0.0, 1.0, 39.0, 8.95)" width="31.1" xlink:href="#shape24"/>
    <use height="17.9" transform="matrix(0.75, 0.0, 0.0, 0.75, 39.4, 9.05)" width="35.45" xlink:href="#sprite16"/>
    <use height="18.85" transform="matrix(1.0, 0.0, 0.0, 1.0, 39.45, 5.25)" width="31.1" xlink:href="#shape26"/>
    <use height="2.35" transform="matrix(0.75, 0.0, 0.0, 0.75, 58.6, 15.3)" width="13.05" xlink:href="#sprite17"/>
    <use height="2.9" transform="matrix(0.75, 0.0, 0.0, 0.75, 48.85, 10.05)" width="21.75" xlink:href="#sprite18"/>
    <use height="2.9" transform="matrix(0.75, 0.0, 0.0, 0.75, 42.35, 6.4)" width="19.05" xlink:href="#sprite19"/>
    <use height="10.6" transform="matrix(1.0, 0.0, 0.0, 1.0, 16.55, 21.45)" width="28.0" xlink:href="#shape30"/>
    <use height="6.95" transform="matrix(0.75, 0.0, 0.0, 0.75, 16.9, 24.55)" width="31.9" xlink:href="#sprite20"/>
    <use height="12.3" transform="matrix(1.0, 0.0, 0.0, 1.0, 16.8, 17.45)" width="27.85" xlink:href="#shape31"/>
    <use height="15.95" transform="matrix(0.75, 0.0, 0.0, 0.75, 18.25, 17.25)" width="23.9" xlink:href="#sprite21"/>
    <use height="3.5" transform="matrix(0.75, 0.0, 0.0, 0.75, 35.65, 22.65)" width="7.65" xlink:href="#sprite22"/>
    <use height="6.25" transform="matrix(0.75, 0.0, 0.0, 0.75, 28.75, 19.45)" width="13.8" xlink:href="#sprite23"/>
    <use height="5.5" transform="matrix(0.75, 0.0, 0.0, 0.75, 20.95, 17.7)" width="13.3" xlink:href="#sprite24"/>
    <use height="18.75" transform="matrix(1.0, 0.0, 0.0, 1.0, 6.8, 14.0)" width="31.7" xlink:href="#shape36"/>
    <use height="19.15" transform="matrix(0.75, 0.0, 0.0, 0.75, 11.0, 14.1)" width="36.2" xlink:href="#sprite25"/>
    <use height="20.15" transform="matrix(1.0, 0.0, 0.0, 1.0, 6.35, 10.05)" width="31.75" xlink:href="#shape38"/>
    <use height="2.6" transform="matrix(0.75, 0.0, 0.0, 0.75, 8.55, 20.8)" width="13.3" xlink:href="#sprite26"/>
    <use height="3.15" transform="matrix(0.75, 0.0, 0.0, 0.75, 11.8375, 15.15)" width="22.2" xlink:href="#sprite27"/>
    <use height="3.1" transform="matrix(0.75, 0.0, 0.0, 0.75, 21.25, 10.85)" width="19.5" xlink:href="#sprite28"/>
  </g>
  <defs>
    <g id="shape0" transform="matrix(1.0, 0.0, 0.0, 1.0, -24.7, -3.75)">
      <path d="M50.05 8.85 L59.2 12.1 59.55 13.8 57.25 13.7 35.2 10.15 26.1 8.8 25.3 8.55 24.7 7.0 45.9 7.85 50.05 8.85" fill="url(#gradient0)" fill-rule="evenodd" stroke="none"/>
      <path d="M40.6 4.05 Q45.1 3.5 47.95 4.0 49.95 4.4 51.7 5.55 53.65 6.8 59.2 12.1 L58.3 12.2 48.25 10.0 24.7 7.0 Q33.9 4.9 40.6 4.05" fill="#cca658" fill-rule="evenodd" stroke="none"/>
      <path d="M32.05 10.15 L26.1 8.8 25.9 7.05 44.2 5.7 58.3 12.2 58.5 13.85 42.8 12.1 32.05 10.15" fill="#dbc674" fill-rule="evenodd" stroke="none"/>
      <path d="M41.35 4.45 L48.65 4.75 Q50.7 5.35 53.0 7.45 L58.3 12.2 40.9 9.85 Q32.35 8.7 25.9 7.05 34.75 5.25 41.35 4.45" fill="#ebd88d" fill-rule="evenodd" stroke="none"/>
      <path d="M52.6 11.95 Q52.9 11.5 53.35 11.95 53.85 12.4 53.7 12.75 L52.85 12.9 Q52.15 12.65 52.6 11.95" fill="url(#gradient1)" fill-rule="evenodd" stroke="none"/>
      <path d="M47.5 10.9 L47.6 11.4 Q47.5 11.95 46.75 12.05 46.05 12.2 45.55 11.5 L45.15 10.75 46.2 10.55 Q47.3 10.45 47.5 10.9" fill="url(#gradient2)" fill-rule="evenodd" stroke="none"/>
      <path d="M33.95 9.45 Q34.3 9.2 34.6 9.65 L34.75 10.25 33.7 10.35 Q32.95 10.15 33.95 9.45" fill="url(#gradient3)" fill-rule="evenodd" stroke="none"/>
    </g>
    <linearGradient gradientTransform="matrix(-0.0195, 0.0042, -0.0041, -0.0195, 42.1, 10.4)" gradientUnits="userSpaceOnUse" id="gradient0" spreadMethod="pad" x1="-819.2" x2="819.2">
      <stop offset="0.0" stop-color="#c4a04a"/>
      <stop offset="1.0" stop-color="#9c7832"/>
    </linearGradient>
    <linearGradient gradientTransform="matrix(-7.0E-4, 2.0E-4, -2.0E-4, -7.0E-4, 53.05, 12.4)" gradientUnits="userSpaceOnUse" id="gradient1" spreadMethod="pad" x1="-819.2" x2="819.2">
      <stop offset="0.0" stop-color="#94864e"/>
      <stop offset="1.0" stop-color="#c2af67"/>
    </linearGradient>
    <linearGradient gradientTransform="matrix(-0.0013, 4.0E-4, -4.0E-4, -0.0013, 46.45, 11.2)" gradientUnits="userSpaceOnUse" id="gradient2" spreadMethod="pad" x1="-819.2" x2="819.2">
      <stop offset="0.0" stop-color="#94864e"/>
      <stop offset="1.0" stop-color="#c2af67"/>
    </linearGradient>
    <linearGradient gradientTransform="matrix(-8.0E-4, 3.0E-4, -3.0E-4, -8.0E-4, 34.0, 9.95)" gradientUnits="userSpaceOnUse" id="gradient3" spreadMethod="pad" x1="-819.2" x2="819.2">
      <stop offset="0.0" stop-color="#94864e"/>
      <stop offset="1.0" stop-color="#c2af67"/>
    </linearGradient>
    <g id="sprite0" transform="matrix(1.0, 0.0, 0.0, 1.0, 0.05, 0.0)">
      <use height="6.95" transform="matrix(1.2304, 0.0, 0.0, 0.964, -0.05, 0.0)" width="31.9" xlink:href="#shape1"/>
    </g>
    <g id="shape1" transform="matrix(1.0, 0.0, 0.0, 1.0, 0.0, 0.0)">
      <path d="M31.9 6.4 L26.9 6.8 23.3 6.15 19.25 5.75 Q15.25 5.75 12.5 4.85 L9.45 3.8 7.45 3.35 Q7.0 3.5 6.95 4.2 L6.95 4.9 5.25 4.25 5.0 4.0 4.9 3.75 Q4.3 2.2 3.8 2.35 L2.8 2.1 1.6 1.7 Q0.9 1.6 0.3 1.15 -0.35 0.6 0.35 0.35 L5.8 0.0 15.15 0.25 Q18.95 0.55 25.8 3.5 29.25 5.0 31.9 6.4" fill="#664b16" fill-rule="evenodd" stroke="none"/>
    </g>
    <g id="shape2" transform="matrix(1.0, 0.0, 0.0, 1.0, -24.7, 0.0)">
      <path d="M54.5 6.4 L57.35 8.9 Q58.0 9.1 58.75 10.1 59.5 11.2 58.9 11.5 L57.2 11.6 54.0 11.4 49.15 11.05 41.5 10.25 Q38.65 10.05 34.0 8.7 31.3 7.9 30.85 9.1 30.55 9.7 29.7 9.65 28.9 9.55 28.65 8.95 28.15 7.75 26.65 7.45 25.55 7.3 25.15 6.7 24.6 6.0 25.6 5.4 L25.85 5.3 28.15 4.7 41.65 3.65 Q50.2 3.35 51.25 3.7 51.85 3.9 54.5 6.4" fill="#ffab0f" fill-rule="evenodd" stroke="none"/>
      <path d="M49.15 11.05 L41.5 10.25 Q38.65 10.05 34.0 8.7 31.3 7.9 30.85 9.1 30.55 9.7 29.7 9.65 28.9 9.55 28.65 8.95 L28.6 8.8 Q29.15 9.55 29.8 9.3 L30.3 8.8 30.5 8.2 Q30.6 7.85 31.45 7.75 L33.5 8.0 37.75 8.95 42.15 9.7 47.65 10.0 53.95 10.4 57.6 11.05 59.15 10.85 Q59.2 11.35 58.9 11.5 L57.2 11.6 54.0 11.4 49.15 11.05" fill="#d48900" fill-rule="evenodd" stroke="none"/>
      <path d="M27.35 7.1 Q27.95 7.15 28.1 7.55 L28.35 8.4 Q27.8 7.65 26.65 7.45 25.75 7.3 25.2 6.8 24.65 6.25 25.25 5.65 25.3 6.2 25.95 6.6 L27.35 7.1" fill="#dbbb46" fill-rule="evenodd" stroke="none"/>
      <path d="M29.25 7.45 L30.2 7.15 Q30.7 7.15 30.35 7.6 L29.8 8.5 29.4 8.8 Q29.1 8.7 29.05 8.15 29.05 7.55 29.25 7.45" fill="#fff0b8" fill-rule="evenodd" stroke="none"/>
      <path d="M26.05 5.65 Q26.5 5.65 26.95 6.0 27.5 6.35 27.1 6.5 26.7 6.65 26.1 6.2 25.5 5.75 26.05 5.65" fill="#fff0b8" fill-rule="evenodd" stroke="none"/>
      <path d="M57.95 10.3 L58.55 10.45 Q58.85 10.65 58.45 10.75 L57.7 10.75 Q57.3 10.5 57.95 10.3" fill="#fff0b8" fill-rule="evenodd" stroke="none"/>
      <path d="M28.45 5.8 Q29.65 6.1 29.6 6.35 29.5 6.55 28.8 6.6 28.35 6.65 28.2 6.2 28.1 5.7 28.45 5.8" fill="#d6561e" fill-rule="evenodd" stroke="none"/>
      <path d="M30.45 4.1 L43.2 5.05 Q43.75 5.35 44.35 7.0 L42.25 8.9 37.6 7.85 30.65 6.3 25.85 5.3 27.35 4.7 Q29.1 4.1 30.45 4.1" fill="#d48900" fill-rule="evenodd" stroke="none"/>
      <path d="M49.45 5.05 L58.45 8.35 58.75 10.1 56.5 9.95 34.95 6.35 26.05 4.9 25.25 4.7 24.7 3.1 45.4 4.05 49.45 5.05" fill="#9e6500" fill-rule="evenodd" stroke="none"/>
      <path d="M40.2 0.25 Q44.65 -0.25 47.35 0.25 49.35 0.65 51.05 1.8 52.95 3.05 58.45 8.35 L57.55 8.5 47.7 6.2 24.7 3.1 Q33.65 1.05 40.2 0.25" fill="#c98000" fill-rule="evenodd" stroke="none"/>
      <path d="M31.85 6.25 L26.05 4.9 25.8 3.2 43.7 1.9 57.55 8.5 57.8 10.1 42.4 8.3 31.85 6.25" fill="#dbc674" fill-rule="evenodd" stroke="none"/>
      <path d="M40.9 0.65 L48.1 0.95 Q50.1 1.6 52.3 3.7 L57.55 8.5 40.55 6.1 Q32.15 4.85 25.8 3.2 34.45 1.4 40.9 0.65" fill="#ffef9e" fill-rule="evenodd" stroke="none"/>
      <path d="M44.35 1.45 L46.2 1.4 Q46.95 1.6 46.75 2.2 L46.25 3.0 44.4 3.4 Q42.7 3.6 42.4 2.9 42.05 2.2 44.35 1.45" fill="url(#gradient4)" fill-rule="evenodd" stroke="none"/>
      <path d="M48.25 2.05 Q49.0 1.9 49.6 2.5 50.25 3.1 49.6 3.4 48.85 3.75 47.95 3.05 46.95 2.35 48.25 2.05" fill="url(#gradient5)" fill-rule="evenodd" stroke="none"/>
      <path d="M50.8 4.25 Q51.45 4.15 52.45 4.7 53.4 5.25 52.75 5.65 52.15 6.1 51.1 5.25 50.05 4.4 50.8 4.25" fill="url(#gradient6)" fill-rule="evenodd" stroke="none"/>
      <path d="M49.8 4.75 Q50.3 4.75 50.65 5.35 51.1 5.95 50.5 6.1 49.75 6.4 49.3 5.55 48.85 4.75 49.8 4.75" fill="url(#gradient7)" fill-rule="evenodd" stroke="none"/>
      <path d="M33.75 2.75 Q35.05 2.5 36.0 3.0 36.9 3.5 36.2 3.85 L33.7 3.7 Q32.0 3.1 33.75 2.75" fill="url(#gradient8)" fill-rule="evenodd" stroke="none"/>
      <path d="M38.4 1.55 L39.8 1.7 Q40.35 1.9 39.85 2.35 L38.3 2.25 Q37.3 1.65 38.4 1.55" fill="url(#gradient9)" fill-rule="evenodd" stroke="none"/>
      <path d="M29.85 2.5 Q30.3 2.5 30.7 2.8 31.15 3.1 30.35 3.4 29.45 3.7 29.15 3.1 28.8 2.55 29.85 2.5" fill="url(#gradient10)" fill-rule="evenodd" stroke="none"/>
      <path d="M41.35 4.15 Q41.85 4.3 42.0 4.65 42.1 5.1 41.4 5.3 40.6 5.5 40.45 4.65 40.35 3.85 41.35 4.15" fill="url(#gradient11)" fill-rule="evenodd" stroke="none"/>
      <path d="M52.75 8.45 Q52.9 8.95 52.6 9.15 L51.95 9.1 51.45 8.5 Q51.3 8.15 51.5 7.9 L52.2 7.85 52.75 8.45" fill="url(#gradient12)" fill-rule="evenodd" stroke="none"/>
      <path d="M48.9 9.2 L45.2 8.75 45.85 8.25 Q46.6 7.75 47.6 7.95 48.55 8.15 48.85 8.7 L48.9 9.2" fill="url(#gradient13)" fill-rule="evenodd" stroke="none"/>
      <path d="M33.55 5.35 L34.6 5.5 Q35.2 5.95 34.7 6.1 L33.65 5.95 Q33.05 5.55 33.55 5.35" fill="url(#gradient14)" fill-rule="evenodd" stroke="none"/>
    </g>
    <linearGradient gradientTransform="matrix(0.0027, 0.0, 0.0, -0.0027, 44.55, 2.35)" gradientUnits="userSpaceOnUse" id="gradient4" spreadMethod="pad" x1="-819.2" x2="819.2">
      <stop offset="0.0" stop-color="#edca6b"/>
      <stop offset="1.0" stop-color="#ffef9e"/>
    </linearGradient>
    <linearGradient gradientTransform="matrix(-6.0E-4, -4.0E-4, 4.0E-4, -6.0E-4, 48.75, 2.8)" gradientUnits="userSpaceOnUse" id="gradient5" spreadMethod="pad" x1="-819.2" x2="819.2">
      <stop offset="0.0" stop-color="#edca6b"/>
      <stop offset="1.0" stop-color="#ffef9e"/>
    </linearGradient>
    <linearGradient gradientTransform="matrix(-6.0E-4, -4.0E-4, 4.0E-4, -6.0E-4, 51.7, 5.05)" gradientUnits="userSpaceOnUse" id="gradient6" spreadMethod="pad" x1="-819.2" x2="819.2">
      <stop offset="0.0" stop-color="#edca6b"/>
      <stop offset="1.0" stop-color="#ffef9e"/>
    </linearGradient>
    <linearGradient gradientTransform="matrix(0.001, 0.0, 0.0, -0.001, 50.0, 5.45)" gradientUnits="userSpaceOnUse" id="gradient7" spreadMethod="pad" x1="-819.2" x2="819.2">
      <stop offset="0.0" stop-color="#edca6b"/>
      <stop offset="1.0" stop-color="#ffef9e"/>
    </linearGradient>
    <linearGradient gradientTransform="matrix(-7.0E-4, -5.0E-4, 5.0E-4, -7.0E-4, 34.75, 3.3)" gradientUnits="userSpaceOnUse" id="gradient8" spreadMethod="pad" x1="-819.2" x2="819.2">
      <stop offset="0.0" stop-color="#edca6b"/>
      <stop offset="1.0" stop-color="#ffef9e"/>
    </linearGradient>
    <linearGradient gradientTransform="matrix(-5.0E-4, -4.0E-4, 4.0E-4, -5.0E-4, 38.95, 2.0)" gradientUnits="userSpaceOnUse" id="gradient9" spreadMethod="pad" x1="-819.2" x2="819.2">
      <stop offset="0.0" stop-color="#edca6b"/>
      <stop offset="1.0" stop-color="#ffef9e"/>
    </linearGradient>
    <linearGradient gradientTransform="matrix(-5.0E-4, -3.0E-4, 4.0E-4, -5.0E-4, 29.95, 3.05)" gradientUnits="userSpaceOnUse" id="gradient10" spreadMethod="pad" x1="-819.2" x2="819.2">
      <stop offset="0.0" stop-color="#edca6b"/>
      <stop offset="1.0" stop-color="#ffef9e"/>
    </linearGradient>
    <linearGradient gradientTransform="matrix(-6.0E-4, -4.0E-4, 4.0E-4, -6.0E-4, 41.2, 4.75)" gradientUnits="userSpaceOnUse" id="gradient11" spreadMethod="pad" x1="-819.2" x2="819.2">
      <stop offset="0.0" stop-color="#edca6b"/>
      <stop offset="1.0" stop-color="#ffef9e"/>
    </linearGradient>
    <linearGradient gradientTransform="matrix(-3.0E-4, -7.0E-4, 7.0E-4, -3.0E-4, 52.15, 8.5)" gradientUnits="userSpaceOnUse" id="gradient12" spreadMethod="pad" x1="-819.2" x2="819.2">
      <stop offset="0.0" stop-color="#94864e"/>
      <stop offset="1.0" stop-color="#c2af67"/>
    </linearGradient>
    <linearGradient gradientTransform="matrix(-3.0E-4, -8.0E-4, 8.0E-4, -3.0E-4, 47.05, 8.8)" gradientUnits="userSpaceOnUse" id="gradient13" spreadMethod="pad" x1="-819.2" x2="819.2">
      <stop offset="0.0" stop-color="#94864e"/>
      <stop offset="1.0" stop-color="#c2af67"/>
    </linearGradient>
    <linearGradient gradientTransform="matrix(-2.0E-4, -5.0E-4, 5.0E-4, -2.0E-4, 34.15, 5.8)" gradientUnits="userSpaceOnUse" id="gradient14" spreadMethod="pad" x1="-819.2" x2="819.2">
      <stop offset="0.0" stop-color="#c4a149"/>
      <stop offset="1.0" stop-color="#dbc674"/>
    </linearGradient>
    <g id="sprite1" transform="matrix(1.0, 0.0, 0.0, 1.0, 0.0, 0.0)">
      <use height="3.6" transform="matrix(1.0, 0.0, 0.0, 1.0, 0.0, 0.0)" width="13.05" xlink:href="#shape3"/>
    </g>
    <g id="shape3" transform="matrix(1.0, 0.0, 0.0, 1.0, 0.0, 0.0)">
      <path d="M11.65 0.0 Q12.2 0.0 12.75 0.45 13.25 0.9 12.95 1.15 12.65 1.45 8.35 2.45 7.0 2.75 4.95 3.6 L1.55 3.1 0.0 3.05 5.9 1.3 Q10.45 0.0 11.65 0.0" fill="#965a00" fill-rule="evenodd" stroke="none"/>
    </g>
    <g id="sprite2" transform="matrix(1.0, 0.0, 0.0, 1.0, 0.0, 0.0)">
      <use height="5.6" transform="matrix(1.0, 0.0, 0.0, 1.0, 0.0, 0.0)" width="21.45" xlink:href="#shape4"/>
    </g>
    <g id="shape4" transform="matrix(1.0, 0.0, 0.0, 1.0, 0.0, 0.0)">
      <path d="M21.25 0.6 L19.25 1.35 15.25 2.35 7.5 4.7 4.8 5.6 1.55 5.2 0.0 4.75 11.2 1.9 Q18.75 -0.25 20.0 0.05 L21.3 0.2 Q21.65 0.25 21.25 0.6" fill="#965a00" fill-rule="evenodd" stroke="none"/>
    </g>
    <g id="sprite3" transform="matrix(1.0, 0.0, 0.0, 1.0, 0.0, 0.0)">
      <use height="4.45" transform="matrix(1.0, 0.0, 0.0, 1.0, 0.0, 0.0)" width="18.9" xlink:href="#shape5"/>
    </g>
    <g id="shape5" transform="matrix(1.0, 0.0, 0.0, 1.0, 0.0, 0.0)">
      <path d="M17.45 0.0 Q18.75 -0.05 18.9 0.25 19.15 0.7 16.25 1.4 L5.5 3.8 3.05 4.45 0.0 3.85 8.45 2.0 Q15.15 0.1 17.45 0.0" fill="#965a00" fill-rule="evenodd" stroke="none"/>
    </g>
    <g id="shape6" transform="matrix(1.0, 0.0, 0.0, 1.0, -2.05, -16.2)">
      <path d="M17.1 19.05 L25.95 27.8 25.6 29.25 Q18.65 26.5 13.9 24.3 9.2 22.1 2.05 17.8 L2.45 16.2 17.1 19.05" fill="#dbc674" fill-rule="evenodd" stroke="none"/>
      <path d="M2.45 16.2 L15.35 17.35 Q19.15 17.85 20.95 19.2 22.3 20.2 23.35 22.55 L25.95 27.8 13.2 22.0 Q6.95 19.05 2.45 16.2" fill="#ebd88d" fill-rule="evenodd" stroke="none"/>
      <path d="M7.9 20.05 Q8.25 19.9 8.35 20.35 L8.25 20.9 7.4 20.8 Q6.85 20.5 7.9 20.05" fill="url(#gradient15)" fill-rule="evenodd" stroke="none"/>
    </g>
    <linearGradient gradientTransform="matrix(-7.0E-4, 3.0E-4, 2.0E-4, -0.0012, 7.8, 20.6)" gradientUnits="userSpaceOnUse" id="gradient15" spreadMethod="pad" x1="-819.2" x2="819.2">
      <stop offset="0.0" stop-color="#94864e"/>
      <stop offset="1.0" stop-color="#c2af67"/>
    </linearGradient>
    <g id="sprite4" transform="matrix(1.0, 0.0, 0.0, 1.0, 0.05, 0.0)">
      <use height="13.65" transform="matrix(1.0, 0.0, 0.0, 1.0, -0.05, 0.0)" width="28.7" xlink:href="#shape7"/>
    </g>
    <g id="shape7" transform="matrix(1.0, 0.0, 0.0, 1.0, 0.05, 0.0)">
      <path d="M28.65 13.65 Q25.3 13.45 23.85 12.65 20.4 10.75 16.9 9.7 13.25 8.6 10.7 7.05 L8.15 5.35 Q6.8 4.45 6.35 4.45 5.9 4.45 5.65 5.05 L5.5 5.6 4.05 4.6 3.9 4.3 3.85 4.1 Q3.65 2.65 3.15 2.65 2.85 2.6 2.25 2.15 L1.25 1.45 0.15 0.65 Q-0.3 0.05 0.4 0.0 1.2 -0.05 5.6 1.2 10.3 2.5 14.35 3.95 17.9 5.25 23.6 9.55 L28.65 13.65" fill="#664b16" fill-rule="evenodd" stroke="none"/>
    </g>
    <g id="shape8" transform="matrix(1.0, 0.0, 0.0, 1.0, -1.9, -12.85)">
      <path d="M13.7 16.2 Q22.35 18.15 23.35 18.9 L24.9 21.95 26.3 24.7 Q26.75 25.0 26.95 26.05 27.25 27.15 26.65 27.35 L25.3 27.05 Q23.95 26.45 22.9 26.2 L19.2 24.8 Q15.85 23.3 13.5 22.45 11.4 21.65 8.2 19.4 6.4 18.1 5.65 19.0 5.2 19.55 4.55 19.3 3.95 19.1 4.0 18.5 4.0 17.3 2.9 16.75 2.15 16.3 1.95 15.7 1.75 15.0 2.8 14.7 4.6 14.15 13.7 16.2" fill="#ffab0f" fill-rule="evenodd" stroke="none"/>
      <path d="M4.0 18.3 Q4.1 19.1 4.75 19.0 L5.3 18.7 5.65 18.25 Q5.8 17.95 6.55 18.0 7.3 18.1 8.05 18.7 8.8 19.25 11.05 20.5 L14.2 22.1 18.4 23.55 Q22.0 24.75 23.2 25.3 25.4 26.2 25.75 26.65 L27.05 26.8 26.65 27.35 25.3 27.05 Q23.95 26.45 22.9 26.2 L19.2 24.8 Q15.85 23.3 13.5 22.45 11.4 21.65 8.2 19.4 6.4 18.1 5.65 19.0 5.2 19.55 4.55 19.3 3.95 19.1 4.0 18.5 L4.0 18.3" fill="#d48900" fill-rule="evenodd" stroke="none"/>
      <path d="M3.55 16.6 Q4.0 16.75 4.0 17.15 L3.9 17.95 Q3.75 17.2 2.9 16.75 L2.05 15.85 Q1.75 15.25 2.4 14.85 2.25 15.3 2.65 15.85 L3.55 16.6" fill="#dbbb46" fill-rule="evenodd" stroke="none"/>
      <path d="M4.95 17.3 L5.75 17.25 Q6.15 17.35 5.75 17.65 L5.05 18.3 4.6 18.5 Q4.4 18.35 4.6 17.85 L4.95 17.3" fill="#fff0b8" fill-rule="evenodd" stroke="none"/>
      <path d="M3.1 15.05 L3.65 15.55 Q3.95 15.95 3.6 16.0 L2.95 15.5 Q2.65 14.95 3.1 15.05" fill="#fff0b8" fill-rule="evenodd" stroke="none"/>
      <path d="M26.3 26.1 Q26.55 26.1 26.75 26.35 L26.55 26.6 Q26.2 26.65 25.95 26.35 25.75 26.1 26.3 26.1" fill="#fff0b8" fill-rule="evenodd" stroke="none"/>
      <path d="M18.0 15.7 L26.65 24.4 26.2 25.9 Q19.45 23.15 14.85 20.95 10.25 18.7 3.25 14.4 L3.7 12.85 18.0 15.7" fill="#dbc674" fill-rule="evenodd" stroke="none"/>
      <path d="M3.7 12.85 L16.3 13.95 Q20.0 14.5 21.75 15.85 23.1 16.85 24.1 19.15 L26.65 24.4 14.2 18.6 Q8.05 15.7 3.7 12.85" fill="#ffef9e" fill-rule="evenodd" stroke="none"/>
      <path d="M18.7 15.4 Q19.7 15.4 20.2 15.8 20.65 16.15 20.3 16.6 19.95 17.1 19.6 17.2 L18.05 17.15 Q16.65 16.9 16.65 16.25 16.65 15.55 18.7 15.4" fill="url(#gradient16)" fill-rule="evenodd" stroke="none"/>
      <path d="M10.0 14.2 Q11.1 14.25 11.65 14.95 12.25 15.55 11.55 15.7 10.85 15.9 9.7 15.0 8.5 14.1 10.0 14.2" fill="url(#gradient17)" fill-rule="evenodd" stroke="none"/>
      <path d="M14.05 14.2 Q14.75 14.3 15.1 14.65 15.4 14.95 14.85 15.25 14.25 15.55 13.7 14.8 13.1 14.05 14.05 14.2" fill="url(#gradient18)" fill-rule="evenodd" stroke="none"/>
      <path d="M7.05 13.15 Q7.4 13.25 7.6 13.6 7.9 13.95 7.15 14.0 6.35 14.05 6.3 13.5 6.25 13.0 7.05 13.15" fill="url(#gradient19)" fill-rule="evenodd" stroke="none"/>
      <path d="M15.45 17.05 L15.8 17.7 Q15.75 18.1 15.1 18.1 14.4 18.1 14.6 17.35 14.8 16.6 15.45 17.05" fill="url(#gradient20)" fill-rule="evenodd" stroke="none"/>
      <path d="M9.0 16.4 Q9.4 16.35 9.75 16.8 10.05 17.3 9.6 17.35 9.15 17.4 8.85 16.95 8.5 16.45 9.0 16.4" fill="url(#gradient21)" fill-rule="evenodd" stroke="none"/>
    </g>
    <linearGradient gradientTransform="matrix(-0.001, -7.0E-4, 0.0016, -8.0E-4, 18.5, 16.35)" gradientUnits="userSpaceOnUse" id="gradient16" spreadMethod="pad" x1="-819.2" x2="819.2">
      <stop offset="0.0" stop-color="#edca6b"/>
      <stop offset="1.0" stop-color="#ffef9e"/>
    </linearGradient>
    <linearGradient gradientTransform="matrix(-5.0E-4, -3.0E-4, 8.0E-4, -4.0E-4, 10.55, 14.95)" gradientUnits="userSpaceOnUse" id="gradient17" spreadMethod="pad" x1="-819.2" x2="819.2">
      <stop offset="0.0" stop-color="#c2af67"/>
      <stop offset="1.0" stop-color="#ebd88d"/>
    </linearGradient>
    <linearGradient gradientTransform="matrix(-4.0E-4, -2.0E-4, 6.0E-4, -3.0E-4, 14.35, 14.7)" gradientUnits="userSpaceOnUse" id="gradient18" spreadMethod="pad" x1="-819.2" x2="819.2">
      <stop offset="0.0" stop-color="#c2af67"/>
      <stop offset="1.0" stop-color="#ebd88d"/>
    </linearGradient>
    <linearGradient gradientTransform="matrix(-3.0E-4, -2.0E-4, 5.0E-4, -3.0E-4, 6.95, 13.65)" gradientUnits="userSpaceOnUse" id="gradient19" spreadMethod="pad" x1="-819.2" x2="819.2">
      <stop offset="0.0" stop-color="#c2af67"/>
      <stop offset="1.0" stop-color="#ebd88d"/>
    </linearGradient>
    <linearGradient gradientTransform="matrix(-4.0E-4, -2.0E-4, 6.0E-4, -3.0E-4, 15.1, 17.65)" gradientUnits="userSpaceOnUse" id="gradient20" spreadMethod="pad" x1="-819.2" x2="819.2">
      <stop offset="0.0" stop-color="#edca6b"/>
      <stop offset="1.0" stop-color="#ffef9e"/>
    </linearGradient>
    <linearGradient gradientTransform="matrix(-2.0E-4, -3.0E-4, 6.0E-4, 1.0E-4, 9.25, 16.9)" gradientUnits="userSpaceOnUse" id="gradient21" spreadMethod="pad" x1="-819.2" x2="819.2">
      <stop offset="0.0" stop-color="#94864e"/>
      <stop offset="1.0" stop-color="#c2af67"/>
    </linearGradient>
    <g id="sprite5" transform="matrix(1.0, 0.0, 0.0, 1.0, 0.0, 0.0)">
      <use height="11.85" transform="matrix(1.0, 0.0, 0.0, 1.0, 0.0, 0.0)" width="25.45" xlink:href="#shape9"/>
    </g>
    <g id="shape9" transform="matrix(1.0, 0.0, 0.0, 1.0, 0.0, 0.0)">
      <path d="M25.45 2.75 L18.2 4.65 14.6 5.45 12.5 5.8 10.5 8.15 Q9.45 9.5 9.15 11.85 1.4 7.6 0.05 6.65 -0.75 6.05 8.65 2.95 L18.25 0.0 24.0 2.1 25.45 2.75" fill="#664400" fill-rule="evenodd" stroke="none"/>
    </g>
    <g id="sprite6" transform="matrix(1.0, 0.0, 0.0, 1.0, 0.0, 0.0)">
      <use height="1.85" transform="matrix(1.0, 0.0, 0.0, 1.0, 0.0, 0.0)" width="13.65" xlink:href="#shape10"/>
    </g>
    <g id="shape10" transform="matrix(1.0, 0.0, 0.0, 1.0, 0.0, 0.0)">
      <path d="M6.15 0.5 L12.8 0.05 Q13.65 0.15 13.65 0.5 13.6 0.9 11.45 1.1 L6.6 1.5 3.55 1.65 1.75 1.85 0.0 0.85 6.15 0.5" fill="#785307" fill-rule="evenodd" stroke="none"/>
    </g>
    <g id="shape11" transform="matrix(1.0, 0.0, 0.0, 1.0, 0.0, -7.85)">
      <path d="M34.25 10.45 L33.75 11.9 32.95 12.15 23.95 13.65 13.45 15.45 2.35 17.45 0.0 17.6 0.25 16.0 9.15 12.7 13.25 11.7 34.25 10.45" fill="#9e6500" fill-rule="evenodd" stroke="none"/>
      <path d="M18.25 8.0 Q25.0 8.65 34.25 10.45 L11.05 13.75 1.15 16.05 0.25 16.0 Q5.5 10.9 7.35 9.65 9.0 8.5 11.0 8.15 13.75 7.6 18.25 8.0" fill="#c98000" fill-rule="evenodd" stroke="none"/>
      <path d="M33.1 10.5 L32.95 12.15 Q22.9 14.65 16.55 15.6 L1.0 17.6 1.15 16.05 14.8 9.65 33.1 10.5" fill="#dbc674" fill-rule="evenodd" stroke="none"/>
      <path d="M17.55 8.35 L33.1 10.5 Q26.75 12.2 18.25 13.5 L1.15 16.05 6.15 11.5 Q8.35 9.45 10.3 8.8 L17.55 8.35" fill="#ffd875" fill-rule="evenodd" stroke="none"/>
      <path d="M6.8 15.7 Q7.3 16.3 6.65 16.6 L5.75 16.45 Q5.6 16.15 6.05 15.7 6.55 15.3 6.8 15.7" fill="url(#gradient22)" fill-rule="evenodd" stroke="none"/>
      <path d="M11.8 14.55 Q11.95 14.15 13.1 14.2 L14.15 14.35 13.8 15.1 Q13.3 15.75 12.6 15.65 11.9 15.55 11.75 15.05 L11.8 14.55" fill="url(#gradient23)" fill-rule="evenodd" stroke="none"/>
      <path d="M25.2 12.9 Q26.8 13.95 24.5 13.7 24.3 13.55 24.55 13.15 24.85 12.7 25.2 12.9" fill="url(#gradient24)" fill-rule="evenodd" stroke="none"/>
    </g>
    <linearGradient gradientTransform="matrix(7.0E-4, 2.0E-4, 2.0E-4, -7.0E-4, 6.4, 16.1)" gradientUnits="userSpaceOnUse" id="gradient22" spreadMethod="pad" x1="-819.2" x2="819.2">
      <stop offset="0.0" stop-color="#c4a149"/>
      <stop offset="1.0" stop-color="#dbc674"/>
    </linearGradient>
    <linearGradient gradientTransform="matrix(0.0013, 4.0E-4, 4.0E-4, -0.0013, 12.85, 14.9)" gradientUnits="userSpaceOnUse" id="gradient23" spreadMethod="pad" x1="-819.2" x2="819.2">
      <stop offset="0.0" stop-color="#c4a149"/>
      <stop offset="1.0" stop-color="#dbc674"/>
    </linearGradient>
    <linearGradient gradientTransform="matrix(8.0E-4, 2.0E-4, 2.0E-4, -8.0E-4, 25.15, 13.4)" gradientUnits="userSpaceOnUse" id="gradient24" spreadMethod="pad" x1="-819.2" x2="819.2">
      <stop offset="0.0" stop-color="#c4a149"/>
      <stop offset="1.0" stop-color="#dbc674"/>
    </linearGradient>
    <g id="sprite7" transform="matrix(1.0, 0.0, 0.0, 1.0, 0.0, 0.0)">
      <use height="6.95" transform="matrix(1.0, 0.0, 0.0, 1.0, 0.0, 0.0)" width="38.65" xlink:href="#shape12"/>
    </g>
    <g id="shape12" transform="matrix(1.0, 0.0, 0.0, 1.0, 0.0, 0.0)">
      <path d="M31.7 0.05 Q37.3 -0.05 38.25 0.2 39.05 0.45 38.25 0.9 L36.7 1.4 35.25 1.85 34.05 2.1 Q33.65 2.0 33.1 2.65 L32.65 3.35 32.15 3.8 30.1 4.45 Q30.4 3.25 29.6 3.05 L27.15 3.5 23.45 4.55 15.25 5.6 Q11.15 5.75 5.95 6.8 L0.0 6.6 Q3.25 5.25 7.45 3.85 15.85 1.0 20.45 0.6 L31.7 0.05" fill="#664b16" fill-rule="evenodd" stroke="none"/>
    </g>
    <g id="shape13" transform="matrix(1.0, 0.0, 0.0, 1.0, -0.25, -4.25)">
      <path d="M33.0 8.8 L33.25 8.95 Q34.3 9.5 33.8 10.15 33.4 10.7 32.35 10.9 30.75 11.2 30.4 12.4 30.25 12.95 29.45 13.0 28.6 13.15 28.3 12.5 27.7 11.4 25.1 12.25 20.55 13.6 17.75 13.85 L10.2 14.8 5.35 15.25 2.2 15.5 0.55 15.4 Q-0.1 15.1 0.6 14.05 1.3 13.1 1.9 12.95 L4.6 10.5 Q7.05 8.1 7.65 7.9 L17.2 7.6 30.7 8.35 33.0 8.8" fill="#ffab0f" fill-rule="evenodd" stroke="none"/>
      <path d="M30.5 12.2 L30.4 12.4 Q30.25 12.95 29.45 13.0 28.6 13.15 28.3 12.5 27.7 11.4 25.1 12.25 20.55 13.6 17.75 13.85 L10.2 14.8 5.35 15.25 2.2 15.5 0.55 15.4 Q0.15 15.25 0.25 14.8 L1.75 14.95 5.35 14.25 11.65 13.75 17.05 13.35 21.35 12.55 25.55 11.55 27.6 11.25 Q28.45 11.35 28.55 11.65 L28.75 12.25 29.3 12.7 Q29.95 12.9 30.5 12.2" fill="#d48900" fill-rule="evenodd" stroke="none"/>
      <path d="M31.6 10.6 L32.95 10.1 Q33.55 9.7 33.6 9.2 34.25 9.7 33.7 10.25 33.25 10.75 32.35 10.9 31.15 11.15 30.7 11.8 L30.9 11.05 Q31.05 10.65 31.6 10.6" fill="#d48900" fill-rule="evenodd" stroke="none"/>
      <path d="M29.75 10.9 L29.95 11.6 29.65 12.25 29.2 11.95 28.65 11.05 Q28.3 10.75 28.8 10.75 L29.75 10.9" fill="#fff0b8" fill-rule="evenodd" stroke="none"/>
      <path d="M32.8 9.2 Q33.35 9.25 32.8 9.65 32.2 10.1 31.8 10.0 31.4 9.85 31.9 9.55 32.4 9.15 32.8 9.2" fill="#fff0b8" fill-rule="evenodd" stroke="none"/>
      <path d="M1.4 14.3 Q2.05 14.45 1.7 14.65 L0.9 14.7 Q0.55 14.6 0.85 14.4 L1.4 14.3" fill="#fff0b8" fill-rule="evenodd" stroke="none"/>
      <path d="M31.4 8.35 Q32.5 8.35 33.0 8.8 L26.35 10.45 20.95 11.65 14.05 12.85 1.2 13.95 4.45 11.9 31.4 8.35" fill="#d48900" fill-rule="evenodd" stroke="none"/>
      <path d="M34.05 6.75 L33.55 8.25 32.8 8.5 24.0 10.0 13.7 11.85 2.8 13.9 0.55 14.05 0.85 12.45 9.5 9.15 13.5 8.15 34.05 6.75" fill="#9e6500" fill-rule="evenodd" stroke="none"/>
      <path d="M18.4 4.45 Q25.0 5.05 34.05 6.75 L11.35 10.15 1.65 12.55 0.85 12.45 Q5.95 7.35 7.75 6.1 9.4 5.0 11.35 4.6 14.0 4.0 18.4 4.45" fill="#c98000" fill-rule="evenodd" stroke="none"/>
      <path d="M32.9 6.85 L32.8 8.5 Q22.95 11.05 16.75 12.05 L1.55 14.05 1.65 12.55 15.1 6.1 32.9 6.85" fill="#dbc674" fill-rule="evenodd" stroke="none"/>
      <path d="M17.75 4.8 Q24.25 5.35 32.9 6.85 26.7 8.55 18.4 9.9 L1.65 12.55 6.6 7.95 Q8.7 5.95 10.65 5.25 L17.75 4.8" fill="#ffef9e" fill-rule="evenodd" stroke="none"/>
      <path d="M14.35 5.65 Q16.75 6.25 16.45 7.0 16.15 7.6 14.45 7.5 L12.6 7.15 Q12.25 6.95 12.05 6.4 11.8 5.85 12.55 5.65 13.25 5.35 14.35 5.65" fill="url(#gradient25)" fill-rule="evenodd" stroke="none"/>
      <path d="M10.55 6.3 Q11.8 6.55 10.9 7.2 10.0 7.9 9.25 7.6 8.65 7.3 9.25 6.75 9.85 6.2 10.55 6.3" fill="url(#gradient26)" fill-rule="evenodd" stroke="none"/>
      <path d="M8.15 8.4 Q8.85 8.5 7.9 9.4 6.95 10.2 6.25 9.8 5.65 9.4 6.55 8.8 7.5 8.3 8.15 8.4" fill="url(#gradient27)" fill-rule="evenodd" stroke="none"/>
      <path d="M9.15 8.85 Q10.15 8.8 9.7 9.55 9.3 10.35 8.6 10.15 7.95 10.0 8.35 9.4 8.65 8.9 9.15 8.85" fill="url(#gradient28)" fill-rule="evenodd" stroke="none"/>
      <path d="M25.0 6.6 Q26.75 6.9 25.1 7.5 L22.6 7.75 Q21.9 7.4 22.75 6.9 23.65 6.4 25.0 6.6" fill="url(#gradient29)" fill-rule="evenodd" stroke="none"/>
      <path d="M20.3 5.6 Q21.4 5.65 20.5 6.25 L18.9 6.4 Q18.35 6.0 18.9 5.75 L20.3 5.6" fill="url(#gradient30)" fill-rule="evenodd" stroke="none"/>
      <path d="M28.85 6.3 Q29.9 6.35 29.6 6.85 29.35 7.45 28.4 7.15 27.55 6.9 28.0 6.55 28.45 6.25 28.85 6.3" fill="url(#gradient31)" fill-rule="evenodd" stroke="none"/>
      <path d="M17.55 8.1 Q18.55 7.8 18.45 8.6 18.4 9.4 17.55 9.2 16.8 9.0 16.9 8.65 17.05 8.25 17.55 8.1" fill="url(#gradient32)" fill-rule="evenodd" stroke="none"/>
      <path d="M6.4 12.4 Q6.5 12.05 6.95 11.8 7.45 11.6 7.65 11.8 7.9 12.1 7.75 12.45 L7.3 13.0 6.6 13.05 Q6.3 12.85 6.4 12.4" fill="url(#gradient33)" fill-rule="evenodd" stroke="none"/>
      <path d="M10.3 13.0 L10.4 12.55 Q10.6 12.0 11.55 11.8 12.5 11.65 13.3 12.1 L13.95 12.55 10.3 13.0" fill="url(#gradient34)" fill-rule="evenodd" stroke="none"/>
      <path d="M25.3 9.05 Q25.9 9.25 25.3 9.6 24.7 10.0 24.25 9.8 23.8 9.65 24.35 9.25 24.85 8.9 25.3 9.05" fill="url(#gradient35)" fill-rule="evenodd" stroke="none"/>
    </g>
    <linearGradient gradientTransform="matrix(6.0E-4, 0.0016, 0.0016, -6.0E-4, 14.25, 6.55)" gradientUnits="userSpaceOnUse" id="gradient25" spreadMethod="pad" x1="-819.2" x2="819.2">
      <stop offset="0.0" stop-color="#edca6b"/>
      <stop offset="1.0" stop-color="#ffef9e"/>
    </linearGradient>
    <linearGradient gradientTransform="matrix(3.0E-4, 7.0E-4, 7.0E-4, -2.0E-4, 10.1, 7.0)" gradientUnits="userSpaceOnUse" id="gradient26" spreadMethod="pad" x1="-819.2" x2="819.2">
      <stop offset="0.0" stop-color="#edca6b"/>
      <stop offset="1.0" stop-color="#ffef9e"/>
    </linearGradient>
    <linearGradient gradientTransform="matrix(0.0014, 0.0, 0.0, -0.0014, 7.2, 9.15)" gradientUnits="userSpaceOnUse" id="gradient27" spreadMethod="pad" x1="-819.2" x2="819.2">
      <stop offset="0.0" stop-color="#edca6b"/>
      <stop offset="1.0" stop-color="#ffef9e"/>
    </linearGradient>
    <linearGradient gradientTransform="matrix(3.0E-4, 7.0E-4, 7.0E-4, -2.0E-4, 9.05, 9.55)" gradientUnits="userSpaceOnUse" id="gradient28" spreadMethod="pad" x1="-819.2" x2="819.2">
      <stop offset="0.0" stop-color="#edca6b"/>
      <stop offset="1.0" stop-color="#ffef9e"/>
    </linearGradient>
    <linearGradient gradientTransform="matrix(0.0021, 0.0, 0.0, -0.0021, 24.1, 7.2)" gradientUnits="userSpaceOnUse" id="gradient29" spreadMethod="pad" x1="-819.2" x2="819.2">
      <stop offset="0.0" stop-color="#edca6b"/>
      <stop offset="1.0" stop-color="#ffef9e"/>
    </linearGradient>
    <linearGradient gradientTransform="matrix(0.0013, 0.0, 0.0, -0.0013, 19.75, 6.1)" gradientUnits="userSpaceOnUse" id="gradient30" spreadMethod="pad" x1="-819.2" x2="819.2">
      <stop offset="0.0" stop-color="#edca6b"/>
      <stop offset="1.0" stop-color="#ffef9e"/>
    </linearGradient>
    <linearGradient gradientTransform="matrix(2.0E-4, 6.0E-4, 6.0E-4, -2.0E-4, 28.8, 6.85)" gradientUnits="userSpaceOnUse" id="gradient31" spreadMethod="pad" x1="-819.2" x2="819.2">
      <stop offset="0.0" stop-color="#edca6b"/>
      <stop offset="1.0" stop-color="#ffef9e"/>
    </linearGradient>
    <linearGradient gradientTransform="matrix(9.0E-4, 0.0, 0.0, -9.0E-4, 17.65, 8.65)" gradientUnits="userSpaceOnUse" id="gradient32" spreadMethod="pad" x1="-819.2" x2="819.2">
      <stop offset="0.0" stop-color="#edca6b"/>
      <stop offset="1.0" stop-color="#ffef9e"/>
    </linearGradient>
    <linearGradient gradientTransform="matrix(-2.0E-4, 7.0E-4, 7.0E-4, 2.0E-4, 7.1, 12.45)" gradientUnits="userSpaceOnUse" id="gradient33" spreadMethod="pad" x1="-819.2" x2="819.2">
      <stop offset="0.0" stop-color="#c4a149"/>
      <stop offset="1.0" stop-color="#dbc674"/>
    </linearGradient>
    <linearGradient gradientTransform="matrix(-2.0E-4, 8.0E-4, 8.0E-4, 2.0E-4, 12.15, 12.6)" gradientUnits="userSpaceOnUse" id="gradient34" spreadMethod="pad" x1="-819.2" x2="819.2">
      <stop offset="0.0" stop-color="#c4a149"/>
      <stop offset="1.0" stop-color="#dbc674"/>
    </linearGradient>
    <linearGradient gradientTransform="matrix(-1.0E-4, 5.0E-4, 5.0E-4, 1.0E-4, 24.8, 9.45)" gradientUnits="userSpaceOnUse" id="gradient35" spreadMethod="pad" x1="-819.2" x2="819.2">
      <stop offset="0.0" stop-color="#c4a149"/>
      <stop offset="1.0" stop-color="#dbc674"/>
    </linearGradient>
    <g id="sprite8" transform="matrix(1.0, 0.0, 0.0, 1.0, 0.0, 0.0)">
      <use height="3.25" transform="matrix(1.0, 0.0, 0.0, 1.0, 0.0, 0.0)" width="13.1" xlink:href="#shape14"/>
    </g>
    <g id="shape14" transform="matrix(1.0, 0.0, 0.0, 1.0, 0.0, 0.0)">
      <path d="M1.35 0.0 Q2.65 0.0 7.15 1.1 L13.1 2.6 11.5 2.75 9.5 3.0 8.2 3.25 4.75 2.25 0.1 1.15 Q-0.2 0.9 0.3 0.45 0.75 0.0 1.35 0.0" fill="#965a00" fill-rule="evenodd" stroke="none"/>
    </g>
    <g id="sprite9" transform="matrix(1.0, 0.0, 0.0, 1.0, -0.05, 0.0)">
      <use height="4.95" transform="matrix(1.0, 0.0, 0.0, 1.0, 0.05, 0.0)" width="21.6" xlink:href="#shape15"/>
    </g>
    <g id="shape15" transform="matrix(1.0, 0.0, 0.0, 1.0, -0.05, 0.0)">
      <path d="M0.3 0.65 Q-0.15 0.3 0.2 0.25 L1.5 0.05 Q2.6 -0.2 10.35 1.6 L21.65 4.05 20.1 4.55 16.9 4.95 14.2 4.2 6.35 2.15 2.35 1.3 0.3 0.65" fill="#965a00" fill-rule="evenodd" stroke="none"/>
    </g>
    <g id="sprite10" transform="matrix(1.0, 0.0, 0.0, 1.0, 0.0, 0.0)">
      <use height="3.9" transform="matrix(1.0, 0.0, 0.0, 1.0, 0.0, 0.0)" width="19.0" xlink:href="#shape16"/>
    </g>
    <g id="shape16" transform="matrix(1.0, 0.0, 0.0, 1.0, 0.0, 0.0)">
      <path d="M1.45 0.0 L5.25 0.55 10.5 1.7 13.4 2.4 19.0 3.25 16.0 3.9 13.5 3.35 2.7 1.3 Q-0.2 0.7 0.0 0.3 0.15 0.0 1.45 0.0" fill="#965a00" fill-rule="evenodd" stroke="none"/>
    </g>
    <g id="shape17" transform="matrix(1.0, 0.0, 0.0, 1.0, -32.9, -15.9)">
      <path d="M40.15 20.9 L43.45 19.9 60.55 19.15 60.2 20.7 59.5 20.95 52.3 22.3 43.75 23.9 34.75 25.65 33.6 25.8 32.9 25.75 33.05 24.1 40.15 20.9" fill="url(#gradient36)" fill-rule="evenodd" stroke="none"/>
      <path d="M41.5 16.15 Q43.75 15.6 47.4 16.2 52.9 17.05 60.55 19.15 L58.85 19.55 41.75 22.0 33.75 24.15 33.05 24.1 35.25 21.3 38.6 17.6 Q39.9 16.45 41.5 16.15" fill="#cca658" fill-rule="evenodd" stroke="none"/>
      <path d="M44.65 17.8 L59.6 19.25 59.5 20.95 Q51.45 23.25 46.3 24.15 L38.05 25.3 33.7 25.75 33.75 24.15 44.65 17.8" fill="#dbc674" fill-rule="evenodd" stroke="none"/>
      <path d="M59.6 19.25 Q54.45 20.8 47.65 21.95 L33.75 24.15 37.7 19.5 Q39.4 17.45 41.0 16.8 L46.85 16.55 Q52.3 17.35 59.6 19.25" fill="#ebd88d" fill-rule="evenodd" stroke="none"/>
      <path d="M38.35 23.95 Q38.8 24.6 38.25 24.85 37.7 25.15 37.55 24.7 37.4 24.4 37.75 23.95 38.15 23.5 38.35 23.95" fill="url(#gradient37)" fill-rule="evenodd" stroke="none"/>
      <path d="M42.4 22.9 Q42.55 22.45 43.45 22.6 L44.3 22.75 Q44.05 24.25 43.1 24.1 42.5 23.95 42.4 23.4 L42.4 22.9" fill="url(#gradient38)" fill-rule="evenodd" stroke="none"/>
      <path d="M53.25 21.55 Q54.6 22.7 52.7 22.3 52.55 22.15 52.75 21.7 52.95 21.3 53.25 21.55" fill="url(#gradient39)" fill-rule="evenodd" stroke="none"/>
    </g>
    <linearGradient gradientTransform="matrix(0.0165, 0.0081, 9.0E-4, -0.0318, 46.7, 22.45)" gradientUnits="userSpaceOnUse" id="gradient36" spreadMethod="pad" x1="-819.2" x2="819.2">
      <stop offset="0.0" stop-color="#c4a04a"/>
      <stop offset="1.0" stop-color="#9c7832"/>
    </linearGradient>
    <linearGradient gradientTransform="matrix(6.0E-4, 4.0E-4, 1.0E-4, -0.0011, 38.05, 24.4)" gradientUnits="userSpaceOnUse" id="gradient37" spreadMethod="pad" x1="-819.2" x2="819.2">
      <stop offset="0.0" stop-color="#94864e"/>
      <stop offset="1.0" stop-color="#c2af67"/>
    </linearGradient>
    <linearGradient gradientTransform="matrix(0.0011, 8.0E-4, 2.0E-4, -0.0021, 43.3, 23.2)" gradientUnits="userSpaceOnUse" id="gradient38" spreadMethod="pad" x1="-819.2" x2="819.2">
      <stop offset="0.0" stop-color="#c4a149"/>
      <stop offset="1.0" stop-color="#dbc674"/>
    </linearGradient>
    <linearGradient gradientTransform="matrix(7.0E-4, 5.0E-4, 1.0E-4, -0.0012, 53.2, 22.1)" gradientUnits="userSpaceOnUse" id="gradient39" spreadMethod="pad" x1="-819.2" x2="819.2">
      <stop offset="0.0" stop-color="#b5882f"/>
      <stop offset="1.0" stop-color="#e6b95e"/>
    </linearGradient>
    <g id="sprite11" transform="matrix(1.0, 0.0, 0.0, 1.0, 0.0, -0.05)">
      <use height="6.5" transform="matrix(1.0, 0.0, 0.0, 1.0, 0.0, 0.05)" width="31.3" xlink:href="#shape18"/>
    </g>
    <g id="shape18" transform="matrix(1.0, 0.0, 0.0, 1.0, 0.0, -0.05)">
      <path d="M30.9 0.35 Q31.6 0.65 31.0 1.1 30.4 1.55 29.7 1.6 29.35 1.65 28.55 2.0 L27.55 2.25 Q27.2 2.15 26.8 2.85 L26.45 3.55 26.1 4.0 24.45 4.6 Q24.65 3.35 23.95 3.15 L22.0 3.55 19.0 4.55 Q16.25 5.4 12.4 5.4 9.05 5.5 4.85 6.4 L0.0 6.0 Q2.6 4.7 5.95 3.3 12.65 0.55 16.45 0.3 L25.55 0.05 30.9 0.35" fill="#664b16" fill-rule="evenodd" stroke="none"/>
    </g>
    <g id="shape19" transform="matrix(1.0, 0.0, 0.0, 1.0, -32.95, -12.15)">
      <path d="M48.8 15.9 Q58.1 16.45 59.65 17.6 60.55 18.2 60.15 18.85 59.85 19.45 59.0 19.6 57.7 19.9 57.5 21.1 57.35 21.7 56.7 21.8 56.05 21.85 55.75 21.2 55.25 20.05 53.15 20.8 49.45 22.15 47.2 22.3 L41.05 23.05 37.15 23.4 34.6 23.6 33.25 23.5 Q32.7 23.15 33.25 22.05 33.8 21.1 34.3 20.9 L36.4 18.4 Q38.35 16.0 38.8 15.8 39.9 15.35 48.8 15.9" fill="#ffab0f" fill-rule="evenodd" stroke="none"/>
      <path d="M45.1 21.55 Q50.8 20.75 52.95 19.95 L55.2 19.65 51.85 20.9 48.1 22.1 45.55 22.2 43.0 22.4 39.3 22.6 41.95 22.15 45.1 21.55" fill="#fff0b8" fill-rule="evenodd" stroke="none"/>
      <path d="M41.05 23.05 L37.15 23.4 34.6 23.6 33.25 23.5 Q32.95 23.25 33.0 22.85 33.45 23.2 34.25 23.05 L35.3 22.75 37.15 22.4 42.25 22.05 46.6 21.75 50.1 21.05 53.5 20.1 55.15 19.9 Q55.85 20.0 55.95 20.35 L56.1 20.95 56.55 21.4 Q57.15 21.65 57.55 20.95 L57.5 21.1 Q57.35 21.7 56.7 21.8 56.05 21.85 55.75 21.2 55.25 20.05 53.15 20.8 49.45 22.15 47.2 22.3 L41.05 23.05" fill="#d48900" fill-rule="evenodd" stroke="none"/>
      <path d="M58.4 19.25 L59.5 18.8 59.95 17.85 Q60.5 18.4 60.1 19.0 59.75 19.45 59.0 19.6 58.05 19.85 57.7 20.5 L57.85 19.7 Q57.9 19.3 58.4 19.25" fill="#dbbb46" fill-rule="evenodd" stroke="none"/>
      <path d="M56.85 19.6 L57.1 20.25 56.85 20.95 56.5 20.6 56.0 19.7 Q55.7 19.3 56.1 19.3 L56.85 19.6" fill="#fff0b8" fill-rule="evenodd" stroke="none"/>
      <path d="M59.3 17.85 Q59.75 17.95 59.3 18.35 58.85 18.8 58.5 18.65 58.15 18.55 58.6 18.2 58.95 17.8 59.3 17.85" fill="#fff0b8" fill-rule="evenodd" stroke="none"/>
      <path d="M33.9 22.3 Q34.45 22.45 34.15 22.7 L33.55 22.75 Q33.25 22.65 33.45 22.45 33.65 22.25 33.9 22.3" fill="#fff0b8" fill-rule="evenodd" stroke="none"/>
      <path d="M39.25 22.45 Q40.35 22.2 39.7 22.6 L39.2 23.05 38.75 23.35 Q38.45 23.35 38.5 23.0 38.55 22.6 39.25 22.45" fill="#d6561e" fill-rule="evenodd" stroke="none"/>
      <path d="M39.9 19.95 L53.95 18.15 55.6 18.7 48.85 20.4 42.25 21.5 38.3 21.9 39.9 19.95" fill="#d48900" fill-rule="evenodd" stroke="none"/>
      <path d="M59.9 16.9 L59.25 17.1 35.05 21.95 33.9 22.15 33.25 22.1 33.4 20.4 40.3 17.15 43.55 16.15 60.25 15.35 59.9 16.9" fill="url(#gradient40)" fill-rule="evenodd" stroke="none"/>
      <path d="M60.25 15.35 L58.6 15.7 41.85 18.25 34.05 20.5 33.4 20.4 35.55 17.65 Q37.9 14.65 38.8 13.9 40.05 12.75 41.65 12.4 43.8 11.9 47.4 12.4 52.8 13.25 60.25 15.35" fill="#c98000" fill-rule="evenodd" stroke="none"/>
      <path d="M44.75 14.05 L59.35 15.4 59.25 17.1 Q51.4 19.45 46.3 20.35 L38.3 21.55 34.0 22.1 34.05 20.5 44.75 14.05" fill="#dbc674" fill-rule="evenodd" stroke="none"/>
      <path d="M59.35 15.4 Q54.3 17.0 47.65 18.2 L34.05 20.5 37.9 15.8 Q39.55 13.75 41.15 13.1 L46.9 12.8 Q52.15 13.6 59.35 15.4" fill="#ffef9e" fill-rule="evenodd" stroke="none"/>
      <path d="M44.15 13.6 Q46.1 14.3 45.9 15.05 45.7 15.7 44.3 15.55 43.15 15.4 42.8 15.1 42.5 14.95 42.3 14.35 42.1 13.75 42.7 13.5 L44.15 13.6" fill="url(#gradient41)" fill-rule="evenodd" stroke="none"/>
      <path d="M41.05 14.2 Q42.1 14.45 41.45 15.1 40.75 15.85 40.1 15.5 39.55 15.2 40.0 14.65 40.5 14.05 41.05 14.2" fill="url(#gradient42)" fill-rule="evenodd" stroke="none"/>
      <path d="M39.2 16.3 Q39.8 16.45 39.05 17.35 38.25 18.15 37.75 17.75 37.2 17.3 37.9 16.75 38.65 16.2 39.2 16.3" fill="url(#gradient43)" fill-rule="evenodd" stroke="none"/>
      <path d="M40.0 16.85 Q40.85 16.8 40.55 17.65 40.2 18.4 39.6 18.2 39.1 18.0 39.4 17.4 39.65 16.85 40.0 16.85" fill="url(#gradient44)" fill-rule="evenodd" stroke="none"/>
      <path d="M52.85 14.9 Q54.3 15.25 53.0 15.85 L50.95 16.0 Q50.35 15.65 51.1 15.15 51.8 14.65 52.85 14.9" fill="url(#gradient45)" fill-rule="evenodd" stroke="none"/>
      <path d="M49.0 13.75 Q49.9 13.8 49.15 14.4 L47.9 14.5 Q47.45 14.05 47.9 13.85 L49.0 13.75" fill="url(#gradient46)" fill-rule="evenodd" stroke="none"/>
      <path d="M56.0 14.7 Q56.85 14.8 56.65 15.3 56.4 15.85 55.65 15.55 55.0 15.3 55.3 14.95 55.65 14.65 56.0 14.7" fill="url(#gradient47)" fill-rule="evenodd" stroke="none"/>
      <path d="M46.85 16.3 Q47.65 16.0 47.6 16.8 47.55 17.65 46.9 17.4 46.3 17.2 46.35 16.8 46.45 16.45 46.85 16.3" fill="url(#gradient48)" fill-rule="evenodd" stroke="none"/>
      <path d="M37.9 20.45 Q38.0 20.05 38.35 19.9 38.7 19.65 38.95 19.9 L39.05 20.55 38.65 21.1 38.1 21.15 Q37.85 20.95 37.9 20.45" fill="url(#gradient49)" fill-rule="evenodd" stroke="none"/>
      <path d="M41.15 21.25 L41.2 20.75 Q41.35 20.2 42.1 20.0 43.3 19.75 44.05 20.8 L41.15 21.25" fill="url(#gradient50)" fill-rule="evenodd" stroke="none"/>
      <path d="M53.2 17.45 Q53.65 17.7 53.2 18.1 L52.35 18.25 Q52.0 18.05 52.4 17.65 52.8 17.25 53.2 17.45" fill="url(#gradient51)" fill-rule="evenodd" stroke="none"/>
    </g>
    <linearGradient gradientTransform="matrix(0.0161, 0.0079, 9.0E-4, -0.0311, 46.75, 18.7)" gradientUnits="userSpaceOnUse" id="gradient40" spreadMethod="pad" x1="-819.2" x2="819.2">
      <stop offset="0.0" stop-color="#c4a04a"/>
      <stop offset="1.0" stop-color="#9c7832"/>
    </linearGradient>
    <linearGradient gradientTransform="matrix(0.0, 0.0012, 0.0016, -0.001, 44.1, 14.6)" gradientUnits="userSpaceOnUse" id="gradient41" spreadMethod="pad" x1="-819.2" x2="819.2">
      <stop offset="0.0" stop-color="#edca6b"/>
      <stop offset="1.0" stop-color="#ffef9e"/>
    </linearGradient>
    <linearGradient gradientTransform="matrix(0.0, 5.0E-4, 7.0E-4, -4.0E-4, 40.75, 14.9)" gradientUnits="userSpaceOnUse" id="gradient42" spreadMethod="pad" x1="-819.2" x2="819.2">
      <stop offset="0.0" stop-color="#edca6b"/>
      <stop offset="1.0" stop-color="#ffef9e"/>
    </linearGradient>
    <linearGradient gradientTransform="matrix(0.0, 4.0E-4, 6.0E-4, -4.0E-4, 38.5, 17.1)" gradientUnits="userSpaceOnUse" id="gradient43" spreadMethod="pad" x1="-819.2" x2="819.2">
      <stop offset="0.0" stop-color="#edca6b"/>
      <stop offset="1.0" stop-color="#ffef9e"/>
    </linearGradient>
    <linearGradient gradientTransform="matrix(0.0, 5.0E-4, 6.0E-4, -4.0E-4, 39.95, 17.6)" gradientUnits="userSpaceOnUse" id="gradient44" spreadMethod="pad" x1="-819.2" x2="819.2">
      <stop offset="0.0" stop-color="#edca6b"/>
      <stop offset="1.0" stop-color="#ffef9e"/>
    </linearGradient>
    <linearGradient gradientTransform="matrix(0.0, 6.0E-4, 8.0E-4, -5.0E-4, 52.15, 15.5)" gradientUnits="userSpaceOnUse" id="gradient45" spreadMethod="pad" x1="-819.2" x2="819.2">
      <stop offset="0.0" stop-color="#c2af67"/>
      <stop offset="1.0" stop-color="#ebd88d"/>
    </linearGradient>
    <linearGradient gradientTransform="matrix(0.0, 4.0E-4, 6.0E-4, -4.0E-4, 48.55, 14.15)" gradientUnits="userSpaceOnUse" id="gradient46" spreadMethod="pad" x1="-819.2" x2="819.2">
      <stop offset="0.0" stop-color="#c2af67"/>
      <stop offset="1.0" stop-color="#ebd88d"/>
    </linearGradient>
    <linearGradient gradientTransform="matrix(0.0, 4.0E-4, 5.0E-4, -3.0E-4, 55.95, 15.25)" gradientUnits="userSpaceOnUse" id="gradient47" spreadMethod="pad" x1="-819.2" x2="819.2">
      <stop offset="0.0" stop-color="#c2af67"/>
      <stop offset="1.0" stop-color="#ebd88d"/>
    </linearGradient>
    <linearGradient gradientTransform="matrix(0.0, 5.0E-4, 6.0E-4, -4.0E-4, 47.0, 16.9)" gradientUnits="userSpaceOnUse" id="gradient48" spreadMethod="pad" x1="-819.2" x2="819.2">
      <stop offset="0.0" stop-color="#e6b95e"/>
      <stop offset="1.0" stop-color="#ffd875"/>
    </linearGradient>
    <linearGradient gradientTransform="matrix(-3.0E-4, 5.0E-4, 8.0E-4, 0.0, 38.5, 20.55)" gradientUnits="userSpaceOnUse" id="gradient49" spreadMethod="pad" x1="-819.2" x2="819.2">
      <stop offset="0.0" stop-color="#94864e"/>
      <stop offset="1.0" stop-color="#c2af67"/>
    </linearGradient>
    <linearGradient gradientTransform="matrix(-4.0E-4, 6.0E-4, 0.0011, 0.0, 42.6, 21.0)" gradientUnits="userSpaceOnUse" id="gradient50" spreadMethod="pad" x1="-819.2" x2="819.2">
      <stop offset="0.0" stop-color="#c4a149"/>
      <stop offset="1.0" stop-color="#dbc674"/>
    </linearGradient>
    <linearGradient gradientTransform="matrix(-2.0E-4, 3.0E-4, 6.0E-4, 0.0, 52.8, 17.95)" gradientUnits="userSpaceOnUse" id="gradient51" spreadMethod="pad" x1="-819.2" x2="819.2">
      <stop offset="0.0" stop-color="#94864e"/>
      <stop offset="1.0" stop-color="#c2af67"/>
    </linearGradient>
    <g id="sprite12" transform="matrix(1.0, 0.0, 0.0, 1.0, 0.0, 0.0)">
      <use height="14.85" transform="matrix(1.0, 0.0, 0.0, 1.0, 0.0, 0.0)" width="23.45" xlink:href="#shape20"/>
    </g>
    <g id="shape20" transform="matrix(1.0, 0.0, 0.0, 1.0, 0.0, 0.0)">
      <path d="M12.9 10.65 L11.6 7.6 Q8.25 5.95 6.45 4.75 L0.0 0.65 1.6 0.4 7.75 0.0 16.15 5.85 Q24.3 11.8 23.35 12.15 L13.15 14.85 Q13.55 12.35 12.9 10.65" fill="#664b16" fill-rule="evenodd" stroke="none"/>
    </g>
    <g id="sprite13" transform="matrix(1.0, 0.0, 0.0, 1.0, 0.0, -0.05)">
      <use height="3.25" transform="matrix(1.0, 0.0, 0.0, 1.0, 0.0, 0.05)" width="7.5" xlink:href="#shape21"/>
    </g>
    <g id="shape21" transform="matrix(1.0, 0.0, 0.0, 1.0, 0.0, -0.05)">
      <path d="M6.45 2.9 L5.1 3.1 4.25 3.3 Q2.75 2.4 1.85 2.0 0.8 1.6 0.05 0.75 -0.15 0.45 0.2 0.2 L0.95 0.05 2.3 0.4 2.35 0.4 3.35 0.9 7.5 2.85 6.45 2.9" fill="#784000" fill-rule="evenodd" stroke="none"/>
    </g>
    <g id="sprite14" transform="matrix(1.0, 0.0, 0.0, 1.0, 0.0, 0.0)">
      <use height="5.8" transform="matrix(1.0, 0.0, 0.0, 1.0, 0.0, 0.0)" width="13.55" xlink:href="#shape22"/>
    </g>
    <g id="shape22" transform="matrix(1.0, 0.0, 0.0, 1.0, 0.0, 0.0)">
      <path d="M13.55 5.05 L12.55 5.5 11.35 5.75 10.45 5.8 8.55 4.8 3.1 2.1 0.95 1.15 0.15 0.55 Q-0.2 0.15 0.3 0.05 L1.15 0.0 2.6 0.35 Q3.2 0.55 5.75 1.7 L13.55 5.05" fill="#784000" fill-rule="evenodd" stroke="none"/>
    </g>
    <g id="sprite15" transform="matrix(1.0, 0.0, 0.0, 1.0, -0.05, 0.0)">
      <use height="5.1" transform="matrix(1.0, 0.0, 0.0, 1.0, 0.05, 0.0)" width="13.0" xlink:href="#shape23"/>
    </g>
    <g id="shape23" transform="matrix(1.0, 0.0, 0.0, 1.0, -0.05, 0.0)">
      <path d="M0.95 0.0 Q2.55 0.2 7.2 2.4 9.45 3.5 13.05 4.6 L11.1 5.1 Q10.2 4.65 9.4 4.4 7.0 3.65 1.95 1.5 -0.05 0.65 0.05 0.25 0.1 -0.1 0.95 0.0" fill="#785307" fill-rule="evenodd" stroke="none"/>
    </g>
    <g id="shape24" transform="matrix(1.0, 0.0, 0.0, 1.0, -39.0, -8.95)">
      <path d="M67.7 25.6 L47.95 15.3 39.75 11.1 39.05 10.6 39.0 8.95 58.8 16.45 62.45 18.7 70.1 24.7 69.85 26.5 Q68.4 26.1 67.7 25.6" fill="#9e6500" fill-rule="evenodd" stroke="none"/>
      <path d="M61.95 13.45 Q63.75 14.5 65.05 16.15 66.45 17.95 70.1 24.7 L69.25 24.55 60.4 19.25 39.0 8.95 44.5 9.55 55.0 11.2 Q59.5 12.1 61.95 13.45" fill="#c98000" fill-rule="evenodd" stroke="none"/>
      <path d="M68.9 26.15 Q60.4 22.45 54.55 19.5 50.9 17.7 44.95 14.2 L39.75 11.1 40.05 9.4 57.85 13.9 69.25 24.55 68.9 26.15" fill="#dbc674" fill-rule="evenodd" stroke="none"/>
      <path d="M62.4 14.35 Q64.15 15.65 65.65 18.35 L69.25 24.55 Q61.35 20.65 53.45 16.8 48.6 14.4 43.85 11.65 L40.05 9.4 45.4 10.1 55.6 11.8 Q60.1 12.7 62.4 14.35" fill="#ffd875" fill-rule="evenodd" stroke="none"/>
      <path d="M63.85 22.45 Q64.3 22.15 64.6 22.75 64.95 23.3 64.7 23.6 64.4 23.95 63.8 23.45 63.25 22.95 63.85 22.45" fill="url(#gradient52)" fill-rule="evenodd" stroke="none"/>
      <path d="M59.4 19.85 L59.3 20.35 Q59.05 20.85 58.3 20.75 57.6 20.65 57.3 19.8 L57.2 19.0 58.25 19.15 Q59.35 19.4 59.4 19.85" fill="url(#gradient53)" fill-rule="evenodd" stroke="none"/>
      <path d="M46.95 14.2 Q47.35 14.05 47.5 14.6 47.7 15.1 47.5 15.2 L46.45 14.95 Q45.75 14.55 46.95 14.2" fill="url(#gradient54)" fill-rule="evenodd" stroke="none"/>
    </g>
    <linearGradient gradientTransform="matrix(-7.0E-4, 0.0, 0.0, -7.0E-4, 64.15, 23.05)" gradientUnits="userSpaceOnUse" id="gradient52" spreadMethod="pad" x1="-819.2" x2="819.2">
      <stop offset="0.0" stop-color="#c4a149"/>
      <stop offset="1.0" stop-color="#dbc674"/>
    </linearGradient>
    <linearGradient gradientTransform="matrix(-0.0013, 0.0, 0.0, -0.0013, 58.3, 19.85)" gradientUnits="userSpaceOnUse" id="gradient53" spreadMethod="pad" x1="-819.2" x2="819.2">
      <stop offset="0.0" stop-color="#c4a149"/>
      <stop offset="1.0" stop-color="#dbc674"/>
    </linearGradient>
    <linearGradient gradientTransform="matrix(-8.0E-4, 0.0, 0.0, -8.0E-4, 46.9, 14.65)" gradientUnits="userSpaceOnUse" id="gradient54" spreadMethod="pad" x1="-819.2" x2="819.2">
      <stop offset="0.0" stop-color="#c4a149"/>
      <stop offset="1.0" stop-color="#dbc674"/>
    </linearGradient>
    <g id="sprite16" transform="matrix(1.0, 0.0, 0.0, 1.0, 0.0, 0.0)">
      <use height="17.9" transform="matrix(1.0, 0.0, 0.0, 1.0, 0.0, 0.0)" width="35.45" xlink:href="#shape25"/>
    </g>
    <g id="shape25" transform="matrix(1.0, 0.0, 0.0, 1.0, 0.0, 0.0)">
      <path d="M35.45 17.9 Q31.45 17.35 29.65 16.35 25.0 13.8 21.05 12.4 16.6 10.85 13.45 8.9 L10.2 6.7 Q8.5 5.6 8.0 5.55 7.5 5.5 7.25 6.15 L7.1 6.8 5.3 5.55 5.05 5.15 4.95 4.9 Q4.65 3.3 4.0 3.2 L2.9 2.6 1.6 1.7 Q0.85 1.4 0.25 0.7 -0.35 0.0 0.5 0.0 1.45 0.0 6.85 1.8 12.45 3.65 17.45 5.7 21.8 7.45 29.05 12.85 L35.45 17.9" fill="#664b16" fill-rule="evenodd" stroke="none"/>
    </g>
    <g id="shape26" transform="matrix(1.0, 0.0, 0.0, 1.0, -39.45, -5.25)">
      <path d="M60.85 20.5 Q56.7 18.55 53.85 17.35 51.25 16.3 47.3 13.5 44.95 11.9 44.15 12.85 43.65 13.35 42.9 13.05 42.15 12.7 42.1 12.1 42.05 10.75 40.65 10.0 39.7 9.5 39.5 8.8 39.2 8.0 40.35 7.7 L40.6 7.65 43.0 7.85 Q47.5 8.55 56.15 11.1 64.3 13.55 65.2 14.25 65.7 14.65 67.4 17.8 69.1 20.95 69.35 21.1 69.9 21.4 70.3 22.65 70.7 23.95 70.0 24.1 69.45 24.2 68.35 23.65 66.7 22.8 65.4 22.45 63.95 22.0 60.85 20.5" fill="#ffab0f" fill-rule="evenodd" stroke="none"/>
      <path d="M54.25 16.35 Q56.9 17.8 57.85 18.15 59.4 18.7 59.6 19.25 50.4 15.45 49.45 14.8 49.05 14.5 47.65 13.75 L46.1 12.85 44.85 12.15 44.1 11.95 44.85 11.85 Q46.15 12.05 48.7 13.4 L54.25 16.35" fill="#fff0b8" fill-rule="evenodd" stroke="none"/>
      <path d="M60.85 20.5 Q56.7 18.55 53.85 17.35 51.25 16.3 47.3 13.5 44.95 11.9 44.15 12.85 43.65 13.35 42.9 13.05 42.15 12.7 42.1 12.1 L42.1 11.85 Q42.4 12.7 43.1 12.7 L43.75 12.45 44.1 11.95 Q44.3 11.6 45.1 11.8 46.05 11.95 47.05 12.7 48.0 13.4 50.8 14.95 L54.7 17.05 59.75 19.05 Q64.15 20.75 65.65 21.4 L67.75 22.5 68.9 23.2 Q69.85 23.75 70.45 23.5 L70.0 24.1 Q69.45 24.2 68.35 23.65 66.7 22.8 65.4 22.45 63.95 22.0 60.85 20.5" fill="#d48900" fill-rule="evenodd" stroke="none"/>
      <path d="M41.45 9.85 Q42.0 10.15 42.05 10.55 L42.0 11.45 Q41.8 10.6 40.65 10.0 39.85 9.55 39.55 8.95 39.2 8.2 39.9 7.85 39.8 8.35 40.3 8.95 L41.45 9.85" fill="#d48900" fill-rule="evenodd" stroke="none"/>
      <path d="M43.15 10.8 L44.1 10.85 Q44.6 11.0 44.15 11.25 L43.4 11.95 Q43.1 12.35 42.85 12.15 42.6 11.95 42.75 11.35 42.9 10.85 43.15 10.8" fill="#fff0b8" fill-rule="evenodd" stroke="none"/>
      <path d="M40.75 8.1 Q41.1 8.2 41.5 8.7 41.85 9.25 41.45 9.25 41.05 9.25 40.6 8.65 40.2 8.0 40.75 8.1" fill="#fff0b8" fill-rule="evenodd" stroke="none"/>
      <path d="M69.45 22.65 L70.0 22.95 Q70.25 23.2 69.85 23.2 69.4 23.2 69.1 22.9 68.8 22.6 69.45 22.65" fill="#fff0b8" fill-rule="evenodd" stroke="none"/>
      <path d="M69.1 20.4 L70.3 22.7 68.15 22.2 64.45 20.65 59.6 18.45 53.35 15.35 47.1 12.0 43.0 9.1 40.9 7.4 45.85 7.85 69.1 20.4" fill="#d48900" fill-rule="evenodd" stroke="none"/>
      <path d="M68.2 21.85 Q67.5 21.35 48.95 11.6 L40.9 7.4 40.25 6.9 40.2 5.25 59.55 12.7 63.1 14.95 70.55 20.95 70.3 22.7 68.2 21.85" fill="#9e6500" fill-rule="evenodd" stroke="none"/>
      <path d="M62.65 9.7 Q64.35 10.7 65.65 12.35 67.0 14.2 70.55 20.95 L69.7 20.75 61.05 15.5 40.2 5.25 45.6 5.85 55.85 7.45 Q60.2 8.35 62.65 9.7" fill="#c98000" fill-rule="evenodd" stroke="none"/>
      <path d="M69.4 22.4 Q61.05 18.7 55.35 15.8 51.8 14.0 46.0 10.5 L40.9 7.4 41.25 5.65 58.6 10.15 69.7 20.75 69.4 22.4" fill="#dbc674" fill-rule="evenodd" stroke="none"/>
      <path d="M63.1 10.6 Q64.75 11.9 66.25 14.6 L69.7 20.75 54.3 13.1 Q49.6 10.7 44.95 7.95 L41.25 5.65 46.45 6.35 56.4 8.05 Q60.85 8.95 63.1 10.6" fill="#ffef9e" fill-rule="evenodd" stroke="none"/>
      <path d="M61.45 11.4 L60.7 12.0 58.8 11.8 Q57.1 11.45 57.05 10.65 56.95 9.85 59.4 9.95 60.55 10.0 61.15 10.45 61.75 10.9 61.45 11.4" fill="url(#gradient55)" fill-rule="evenodd" stroke="none"/>
      <path d="M62.9 11.75 Q63.6 11.8 64.05 12.6 64.45 13.35 63.75 13.45 62.95 13.55 62.25 12.55 61.6 11.6 62.9 11.75" fill="url(#gradient56)" fill-rule="evenodd" stroke="none"/>
      <path d="M64.6 14.6 Q65.3 14.7 66.0 15.55 66.75 16.35 66.05 16.6 65.3 16.8 64.6 15.65 63.9 14.5 64.6 14.6" fill="url(#gradient57)" fill-rule="evenodd" stroke="none"/>
      <path d="M63.55 14.8 Q64.0 14.95 64.15 15.6 64.4 16.3 63.7 16.3 62.95 16.3 62.75 15.35 62.6 14.45 63.55 14.8" fill="url(#gradient58)" fill-rule="evenodd" stroke="none"/>
      <path d="M48.95 7.75 Q50.25 7.95 50.95 8.75 51.7 9.5 50.9 9.65 50.05 9.75 48.55 8.65 47.15 7.55 48.95 7.75" fill="url(#gradient59)" fill-rule="evenodd" stroke="none"/>
      <path d="M53.7 8.1 L55.0 8.7 Q55.45 9.1 54.85 9.35 54.1 9.6 53.35 8.75 52.6 7.85 53.7 8.1" fill="url(#gradient60)" fill-rule="evenodd" stroke="none"/>
      <path d="M45.3 6.3 L46.0 6.85 Q46.35 7.3 45.5 7.3 44.5 7.3 44.4 6.7 44.3 6.05 45.3 6.3" fill="url(#gradient61)" fill-rule="evenodd" stroke="none"/>
      <path d="M55.65 11.5 Q56.15 11.8 56.15 12.25 56.15 12.65 55.35 12.6 54.55 12.55 54.7 11.75 54.8 10.9 55.65 11.5" fill="url(#gradient62)" fill-rule="evenodd" stroke="none"/>
      <path d="M65.2 19.2 L64.8 19.85 64.15 19.6 Q63.85 19.3 63.85 18.85 63.85 18.45 64.15 18.25 64.45 18.1 64.8 18.45 65.2 18.8 65.2 19.2" fill="url(#gradient63)" fill-rule="evenodd" stroke="none"/>
      <path d="M61.3 18.2 L61.25 18.7 57.85 17.1 58.6 16.85 60.4 17.1 Q61.25 17.6 61.3 18.2" fill="url(#gradient64)" fill-rule="evenodd" stroke="none"/>
      <path d="M47.95 10.15 Q48.45 10.15 48.85 10.7 49.25 11.2 48.75 11.25 48.25 11.35 47.8 10.75 47.35 10.2 47.95 10.15" fill="url(#gradient65)" fill-rule="evenodd" stroke="none"/>
    </g>
    <linearGradient gradientTransform="matrix(-0.001, -0.0014, 0.0014, -0.001, 59.25, 10.9)" gradientUnits="userSpaceOnUse" id="gradient55" spreadMethod="pad" x1="-819.2" x2="819.2">
      <stop offset="0.0" stop-color="#edca6b"/>
      <stop offset="1.0" stop-color="#ffef9e"/>
    </linearGradient>
    <linearGradient gradientTransform="matrix(-5.0E-4, -6.0E-4, 6.0E-4, -5.0E-4, 63.1, 12.55)" gradientUnits="userSpaceOnUse" id="gradient56" spreadMethod="pad" x1="-819.2" x2="819.2">
      <stop offset="0.0" stop-color="#edca6b"/>
      <stop offset="1.0" stop-color="#ffef9e"/>
    </linearGradient>
    <linearGradient gradientTransform="matrix(-4.0E-4, -6.0E-4, 6.0E-4, -4.0E-4, 65.25, 15.7)" gradientUnits="userSpaceOnUse" id="gradient57" spreadMethod="pad" x1="-819.2" x2="819.2">
      <stop offset="0.0" stop-color="#edca6b"/>
      <stop offset="1.0" stop-color="#ffef9e"/>
    </linearGradient>
    <linearGradient gradientTransform="matrix(-5.0E-4, -6.0E-4, 6.0E-4, -5.0E-4, 63.45, 15.55)" gradientUnits="userSpaceOnUse" id="gradient58" spreadMethod="pad" x1="-819.2" x2="819.2">
      <stop offset="0.0" stop-color="#edca6b"/>
      <stop offset="1.0" stop-color="#ffef9e"/>
    </linearGradient>
    <linearGradient gradientTransform="matrix(-5.0E-4, -7.0E-4, 7.0E-4, -5.0E-4, 49.65, 8.65)" gradientUnits="userSpaceOnUse" id="gradient59" spreadMethod="pad" x1="-819.2" x2="819.2">
      <stop offset="0.0" stop-color="#edca6b"/>
      <stop offset="1.0" stop-color="#ffef9e"/>
    </linearGradient>
    <linearGradient gradientTransform="matrix(-4.0E-4, -5.0E-4, 5.0E-4, -4.0E-4, 54.1, 8.7)" gradientUnits="userSpaceOnUse" id="gradient60" spreadMethod="pad" x1="-819.2" x2="819.2">
      <stop offset="0.0" stop-color="#edca6b"/>
      <stop offset="1.0" stop-color="#ffef9e"/>
    </linearGradient>
    <linearGradient gradientTransform="matrix(-4.0E-4, -5.0E-4, 5.0E-4, -4.0E-4, 45.25, 6.85)" gradientUnits="userSpaceOnUse" id="gradient61" spreadMethod="pad" x1="-819.2" x2="819.2">
      <stop offset="0.0" stop-color="#edca6b"/>
      <stop offset="1.0" stop-color="#ffef9e"/>
    </linearGradient>
    <linearGradient gradientTransform="matrix(-4.0E-4, -6.0E-4, 6.0E-4, -4.0E-4, 55.35, 12.05)" gradientUnits="userSpaceOnUse" id="gradient62" spreadMethod="pad" x1="-819.2" x2="819.2">
      <stop offset="0.0" stop-color="#edca6b"/>
      <stop offset="1.0" stop-color="#ffef9e"/>
    </linearGradient>
    <linearGradient gradientTransform="matrix(-1.0E-4, -8.0E-4, 8.0E-4, -1.0E-4, 64.5, 19.1)" gradientUnits="userSpaceOnUse" id="gradient63" spreadMethod="pad" x1="-819.2" x2="819.2">
      <stop offset="0.0" stop-color="#c4a149"/>
      <stop offset="1.0" stop-color="#dbc674"/>
    </linearGradient>
    <linearGradient gradientTransform="matrix(-1.0E-4, -9.0E-4, 9.0E-4, -1.0E-4, 59.6, 17.75)" gradientUnits="userSpaceOnUse" id="gradient64" spreadMethod="pad" x1="-819.2" x2="819.2">
      <stop offset="0.0" stop-color="#c4a149"/>
      <stop offset="1.0" stop-color="#dbc674"/>
    </linearGradient>
    <linearGradient gradientTransform="matrix(0.0, -5.0E-4, 5.0E-4, 0.0, 48.3, 10.75)" gradientUnits="userSpaceOnUse" id="gradient65" spreadMethod="pad" x1="-819.2" x2="819.2">
      <stop offset="0.0" stop-color="#c4a149"/>
      <stop offset="1.0" stop-color="#dbc674"/>
    </linearGradient>
    <g id="sprite17" transform="matrix(1.0, 0.0, 0.0, 1.0, 0.0, 0.0)">
      <use height="2.35" transform="matrix(1.0, 0.0, 0.0, 1.0, 0.0, 0.0)" width="13.05" xlink:href="#shape27"/>
    </g>
    <g id="shape27" transform="matrix(1.0, 0.0, 0.0, 1.0, 0.0, 0.0)">
      <path d="M12.0 0.8 Q12.55 1.0 12.9 1.6 13.2 2.15 12.85 2.35 L8.1 2.1 4.55 2.1 Q2.45 0.9 1.5 0.55 L0.0 0.0 6.15 0.2 12.0 0.8" fill="#965a00" fill-rule="evenodd" stroke="none"/>
    </g>
    <g id="sprite18" transform="matrix(1.0, 0.0, 0.0, 1.0, 0.0, 0.0)">
      <use height="2.9" transform="matrix(1.0, 0.0, 0.0, 1.0, 0.0, 0.0)" width="21.75" xlink:href="#shape28"/>
    </g>
    <g id="shape28" transform="matrix(1.0, 0.0, 0.0, 1.0, 0.0, 0.0)">
      <path d="M21.45 2.8 L19.3 2.85 15.2 2.55 7.1 2.3 4.3 2.3 Q1.95 1.4 1.35 0.9 L0.0 0.0 11.55 0.8 Q19.5 1.25 20.5 1.85 L21.65 2.4 Q21.95 2.6 21.45 2.8" fill="#965a00" fill-rule="evenodd" stroke="none"/>
    </g>
    <g id="sprite19" transform="matrix(1.0, 0.0, 0.0, 1.0, 0.0, 0.0)">
      <use height="2.9" transform="matrix(1.0, 0.0, 0.0, 1.0, 0.0, 0.0)" width="19.05" xlink:href="#shape29"/>
    </g>
    <g id="shape29" transform="matrix(1.0, 0.0, 0.0, 1.0, 0.0, 0.0)">
      <path d="M17.75 1.9 Q19.0 2.25 19.05 2.6 L16.15 2.8 5.2 1.75 2.7 1.55 0.0 0.0 5.2 0.8 8.55 0.95 14.3 1.4 17.75 1.9" fill="#965a00" fill-rule="evenodd" stroke="none"/>
    </g>
    <g id="shape30" transform="matrix(1.0, 0.0, 0.0, 1.0, -16.55, -21.45)">
      <path d="M35.95 21.7 Q37.6 22.05 38.95 23.25 40.45 24.6 44.55 30.2 L43.85 30.25 35.75 28.0 16.55 24.95 Q24.3 22.65 29.95 21.75 33.7 21.15 35.95 21.7" fill="#c98000" fill-rule="evenodd" stroke="none"/>
      <path d="M31.05 30.25 L22.35 28.2 17.55 26.85 17.5 25.0 32.7 23.5 43.85 30.25 43.9 32.05 31.05 30.25" fill="#dbc674" fill-rule="evenodd" stroke="none"/>
      <path d="M30.5 22.15 L36.5 22.45 Q38.15 23.1 39.85 25.3 L43.85 30.25 29.7 27.9 Q22.75 26.7 17.5 25.0 24.95 23.05 30.5 22.15" fill="#ffd875" fill-rule="evenodd" stroke="none"/>
      <path d="M39.15 30.05 L39.8 30.1 Q40.15 30.5 40.0 30.85 39.85 31.3 39.25 31.05 38.75 30.8 39.15 30.05" fill="url(#gradient66)" fill-rule="evenodd" stroke="none"/>
      <path d="M35.05 28.9 Q35.3 29.95 34.3 30.2 33.7 30.35 33.35 29.6 L33.1 28.8 34.0 28.6 Q34.9 28.45 35.05 28.9" fill="url(#gradient67)" fill-rule="evenodd" stroke="none"/>
      <path d="M23.95 27.5 Q24.25 27.25 24.5 27.7 L24.55 28.3 Q22.6 28.7 23.95 27.5" fill="url(#gradient68)" fill-rule="evenodd" stroke="none"/>
    </g>
    <linearGradient gradientTransform="matrix(4.0E-4, 7.0E-4, 7.0E-4, -4.0E-4, 39.35, 30.35)" gradientUnits="userSpaceOnUse" id="gradient66" spreadMethod="pad" x1="-819.2" x2="819.2">
      <stop offset="0.0" stop-color="#c4a149"/>
      <stop offset="1.0" stop-color="#dbc674"/>
    </linearGradient>
    <linearGradient gradientTransform="matrix(8.0E-4, 9.0E-4, 9.0E-4, -8.0E-4, 34.1, 29.15)" gradientUnits="userSpaceOnUse" id="gradient67" spreadMethod="pad" x1="-819.2" x2="819.2">
      <stop offset="0.0" stop-color="#c4a149"/>
      <stop offset="1.0" stop-color="#dbc674"/>
    </linearGradient>
    <linearGradient gradientTransform="matrix(5.0E-4, 8.0E-4, 8.0E-4, -5.0E-4, 23.95, 27.95)" gradientUnits="userSpaceOnUse" id="gradient68" spreadMethod="pad" x1="-819.2" x2="819.2">
      <stop offset="0.0" stop-color="#c4a149"/>
      <stop offset="1.0" stop-color="#dbc674"/>
    </linearGradient>
    <g id="sprite20" transform="matrix(1.0, 0.0, 0.0, 1.0, 0.0, 0.0)">
      <use height="6.95" transform="matrix(1.0, 0.0, 0.0, 1.0, 0.0, 0.0)" width="31.9" xlink:href="#shape1"/>
    </g>
    <g id="shape31" transform="matrix(1.0, 0.0, 0.0, 1.0, -16.8, -17.45)">
      <path d="M36.4 29.1 L30.1 28.3 Q27.8 28.15 24.1 26.7 21.95 25.85 21.4 27.1 21.15 27.8 20.5 27.7 19.8 27.65 19.65 27.0 19.35 25.75 18.1 25.45 17.25 25.25 16.9 24.6 16.55 23.9 17.45 23.25 19.05 22.05 28.55 21.4 37.6 20.8 38.75 21.3 39.2 21.55 41.15 24.15 L43.3 26.8 Q43.8 26.95 44.35 28.0 44.95 29.2 44.4 29.55 L43.0 29.65 40.35 29.5 36.4 29.1" fill="#ffab0f" fill-rule="evenodd" stroke="none"/>
      <path d="M36.85 28.85 L28.3 27.65 26.15 26.95 Q24.9 26.9 24.35 26.5 L23.8 26.1 23.75 25.95 31.4 27.55 35.15 27.75 39.1 28.3 Q40.05 28.65 39.05 28.85 38.05 29.05 36.85 28.85" fill="#fff0b8" fill-rule="evenodd" stroke="none"/>
      <path d="M40.35 29.5 L36.4 29.1 30.1 28.3 Q27.8 28.15 24.1 26.7 21.95 25.85 21.4 27.1 21.15 27.8 20.5 27.7 19.8 27.65 19.65 27.0 L19.6 26.8 Q20.0 27.55 20.6 27.35 L21.05 26.85 21.25 26.2 Q21.35 25.8 22.0 25.7 L23.75 25.95 27.2 26.95 30.7 27.7 35.2 28.0 40.4 28.4 42.25 28.75 43.35 29.1 44.65 28.9 44.4 29.55 43.0 29.65 40.35 29.5" fill="#d48900" fill-rule="evenodd" stroke="none"/>
      <path d="M18.7 25.0 L19.3 25.5 19.45 26.4 Q19.05 25.6 18.1 25.45 L17.0 24.7 Q16.6 24.1 17.1 23.5 17.1 24.1 17.65 24.55 18.1 24.95 18.7 25.0" fill="#dbbb46" fill-rule="evenodd" stroke="none"/>
      <path d="M20.3 25.4 L21.1 25.1 Q21.5 25.05 21.15 25.5 L20.65 26.5 20.3 26.85 Q20.05 26.7 20.05 26.1 20.05 25.5 20.3 25.4" fill="#fff0b8" fill-rule="evenodd" stroke="none"/>
      <path d="M17.8 23.5 Q18.15 23.5 18.55 23.85 18.95 24.25 18.6 24.4 18.25 24.55 17.8 24.05 17.35 23.6 17.8 23.5" fill="#fff0b8" fill-rule="evenodd" stroke="none"/>
      <path d="M43.7 28.3 L44.2 28.45 Q44.45 28.6 44.1 28.75 L43.45 28.75 Q43.15 28.5 43.7 28.3" fill="#fff0b8" fill-rule="evenodd" stroke="none"/>
      <path d="M43.65 27.45 L44.05 28.3 41.35 28.1 29.9 26.6 24.95 25.6 21.65 24.7 27.1 23.05 43.65 27.45" fill="#d48900" fill-rule="evenodd" stroke="none"/>
      <path d="M37.15 22.75 L44.25 26.25 44.4 28.05 42.55 27.95 25.1 24.2 17.8 22.75 17.2 22.45 16.85 20.8 33.85 21.75 37.15 22.75" fill="#9e6500" fill-rule="evenodd" stroke="none"/>
      <path d="M35.8 17.7 Q37.45 18.1 38.7 19.3 40.15 20.65 44.25 26.25 L43.55 26.35 35.6 23.95 18.55 21.25 16.85 20.8 Q24.45 18.6 29.95 17.75 33.6 17.15 35.8 17.7" fill="#c98000" fill-rule="evenodd" stroke="none"/>
      <path d="M31.0 26.25 Q27.8 25.65 22.5 24.1 L17.8 22.75 17.8 20.9 32.65 19.45 43.55 26.35 43.6 28.05 31.0 26.25" fill="#dbc674" fill-rule="evenodd" stroke="none"/>
      <path d="M30.45 18.1 L36.35 18.4 Q37.95 19.15 39.6 21.35 L43.55 26.35 29.7 23.9 Q22.9 22.6 17.8 20.9 25.05 19.0 30.45 18.1" fill="#ffef9e" fill-rule="evenodd" stroke="none"/>
      <path d="M33.25 19.0 L34.75 18.9 Q35.35 19.15 35.15 19.75 L34.65 20.6 33.1 21.05 Q31.7 21.25 31.45 20.5 31.3 19.75 33.25 19.0" fill="url(#gradient69)" fill-rule="evenodd" stroke="none"/>
      <path d="M36.4 19.6 Q37.0 19.45 37.45 20.05 37.95 20.65 37.4 21.0 36.8 21.4 36.05 20.65 35.35 19.9 36.4 19.6" fill="url(#gradient70)" fill-rule="evenodd" stroke="none"/>
      <path d="M38.3 21.9 Q38.85 21.75 39.55 22.35 40.35 22.95 39.8 23.4 39.25 23.85 38.5 22.95 37.7 22.05 38.3 21.9" fill="url(#gradient71)" fill-rule="evenodd" stroke="none"/>
      <path d="M37.45 22.45 Q37.85 22.45 38.1 23.05 38.4 23.65 37.9 23.9 37.3 24.15 36.95 23.3 36.6 22.4 37.45 22.45" fill="url(#gradient72)" fill-rule="evenodd" stroke="none"/>
      <path d="M24.4 20.35 Q25.45 20.1 26.2 20.65 26.95 21.2 26.3 21.55 L24.25 21.4 Q22.9 20.75 24.4 20.35" fill="url(#gradient73)" fill-rule="evenodd" stroke="none"/>
      <path d="M28.3 19.1 L29.45 19.25 Q29.9 19.5 29.4 19.95 L28.15 19.85 Q27.35 19.2 28.3 19.1" fill="url(#gradient74)" fill-rule="evenodd" stroke="none"/>
      <path d="M21.2 20.15 Q22.55 20.65 21.55 21.1 20.75 21.4 20.5 20.8 20.35 20.2 21.2 20.15" fill="url(#gradient75)" fill-rule="evenodd" stroke="none"/>
      <path d="M30.45 23.05 Q29.8 23.3 29.75 22.4 29.7 21.55 30.5 21.85 30.95 22.0 31.0 22.4 31.1 22.85 30.45 23.05" fill="url(#gradient76)" fill-rule="evenodd" stroke="none"/>
      <path d="M39.6 26.35 Q39.7 26.9 39.4 27.1 L38.85 27.05 38.5 26.45 Q38.4 26.05 38.6 25.75 L39.15 25.7 Q39.55 25.9 39.6 26.35" fill="url(#gradient77)" fill-rule="evenodd" stroke="none"/>
      <path d="M36.35 27.1 L33.3 26.7 33.85 26.2 Q34.6 25.65 35.35 25.85 36.1 26.05 36.3 26.6 L36.35 27.1" fill="url(#gradient78)" fill-rule="evenodd" stroke="none"/>
    </g>
    <linearGradient gradientTransform="matrix(-0.0012, -4.0E-4, 0.0014, -0.0013, 33.3, 20.05)" gradientUnits="userSpaceOnUse" id="gradient69" spreadMethod="pad" x1="-819.2" x2="819.2">
      <stop offset="0.0" stop-color="#edca6b"/>
      <stop offset="1.0" stop-color="#ffef9e"/>
    </linearGradient>
    <linearGradient gradientTransform="matrix(-5.0E-4, -2.0E-4, 6.0E-4, -5.0E-4, 36.7, 20.35)" gradientUnits="userSpaceOnUse" id="gradient70" spreadMethod="pad" x1="-819.2" x2="819.2">
      <stop offset="0.0" stop-color="#edca6b"/>
      <stop offset="1.0" stop-color="#ffef9e"/>
    </linearGradient>
    <linearGradient gradientTransform="matrix(-5.0E-4, -2.0E-4, 5.0E-4, -5.0E-4, 39.0, 22.75)" gradientUnits="userSpaceOnUse" id="gradient71" spreadMethod="pad" x1="-819.2" x2="819.2">
      <stop offset="0.0" stop-color="#edca6b"/>
      <stop offset="1.0" stop-color="#ffef9e"/>
    </linearGradient>
    <linearGradient gradientTransform="matrix(-5.0E-4, -2.0E-4, 6.0E-4, -5.0E-4, 37.55, 23.25)" gradientUnits="userSpaceOnUse" id="gradient72" spreadMethod="pad" x1="-819.2" x2="819.2">
      <stop offset="0.0" stop-color="#edca6b"/>
      <stop offset="1.0" stop-color="#ffef9e"/>
    </linearGradient>
    <linearGradient gradientTransform="matrix(-6.0E-4, -2.0E-4, 7.0E-4, -7.0E-4, 25.15, 21.0)" gradientUnits="userSpaceOnUse" id="gradient73" spreadMethod="pad" x1="-819.2" x2="819.2">
      <stop offset="0.0" stop-color="#c2af67"/>
      <stop offset="1.0" stop-color="#ebd88d"/>
    </linearGradient>
    <linearGradient gradientTransform="matrix(-4.0E-4, -1.0E-4, 5.0E-4, -5.0E-4, 28.75, 19.55)" gradientUnits="userSpaceOnUse" id="gradient74" spreadMethod="pad" x1="-819.2" x2="819.2">
      <stop offset="0.0" stop-color="#c2af67"/>
      <stop offset="1.0" stop-color="#ebd88d"/>
    </linearGradient>
    <linearGradient gradientTransform="matrix(-4.0E-4, -1.0E-4, 5.0E-4, -4.0E-4, 21.25, 20.75)" gradientUnits="userSpaceOnUse" id="gradient75" spreadMethod="pad" x1="-819.2" x2="819.2">
      <stop offset="0.0" stop-color="#c2af67"/>
      <stop offset="1.0" stop-color="#ebd88d"/>
    </linearGradient>
    <linearGradient gradientTransform="matrix(-5.0E-4, -2.0E-4, 6.0E-4, -5.0E-4, 30.35, 22.5)" gradientUnits="userSpaceOnUse" id="gradient76" spreadMethod="pad" x1="-819.2" x2="819.2">
      <stop offset="0.0" stop-color="#edca6b"/>
      <stop offset="1.0" stop-color="#ffef9e"/>
    </linearGradient>
    <linearGradient gradientTransform="matrix(-4.0E-4, -4.0E-4, 9.0E-4, -2.0E-4, 39.05, 26.45)" gradientUnits="userSpaceOnUse" id="gradient77" spreadMethod="pad" x1="-819.2" x2="819.2">
      <stop offset="0.0" stop-color="#c4a149"/>
      <stop offset="1.0" stop-color="#dbc674"/>
    </linearGradient>
    <linearGradient gradientTransform="matrix(-5.0E-4, -5.0E-4, 0.0011, -2.0E-4, 34.85, 26.9)" gradientUnits="userSpaceOnUse" id="gradient78" spreadMethod="pad" x1="-819.2" x2="819.2">
      <stop offset="0.0" stop-color="#c4a149"/>
      <stop offset="1.0" stop-color="#dbc674"/>
    </linearGradient>
    <g id="sprite21" transform="matrix(1.0, 0.0, 0.0, 1.0, 0.0, 0.0)">
      <use height="15.95" transform="matrix(1.0, 0.0, 0.0, 1.0, 0.0, 0.0)" width="23.9" xlink:href="#shape32"/>
    </g>
    <g id="shape32" transform="matrix(1.0, 0.0, 0.0, 1.0, 0.0, 0.0)">
      <path d="M23.9 0.7 L17.3 5.1 12.05 8.2 Q11.35 9.65 10.75 11.45 10.1 13.2 10.5 15.95 1.7 13.7 0.1 13.05 -0.85 12.7 7.5 6.3 L16.05 0.0 22.3 0.45 23.9 0.7" fill="#664b16" fill-rule="evenodd" stroke="none"/>
    </g>
    <g id="sprite22" transform="matrix(1.0, 0.0, 0.0, 1.0, 0.0, 0.0)">
      <use height="3.5" transform="matrix(1.0, 0.0, 0.0, 1.0, 0.0, 0.0)" width="7.65" xlink:href="#shape33"/>
    </g>
    <g id="shape33" transform="matrix(1.0, 0.0, 0.0, 1.0, 0.0, 0.0)">
      <path d="M5.35 0.4 L6.7 0.0 7.45 0.25 Q7.8 0.45 7.6 0.75 6.9 1.7 5.75 2.15 4.8 2.55 3.35 3.5 L1.1 3.1 0.0 3.05 4.25 0.95 5.35 0.35 5.35 0.4" fill="#785307" fill-rule="evenodd" stroke="none"/>
    </g>
    <g id="sprite23" transform="matrix(1.0, 0.0, 0.0, 1.0, 0.0, 0.0)">
      <use height="6.25" transform="matrix(1.0, 0.0, 0.0, 1.0, 0.0, 0.0)" width="13.8" xlink:href="#shape34"/>
    </g>
    <g id="shape34" transform="matrix(1.0, 0.0, 0.0, 1.0, 0.0, 0.0)">
      <path d="M13.65 0.65 L12.85 1.3 10.65 2.25 5.1 5.15 3.15 6.25 1.0 5.95 0.0 5.45 7.95 1.85 11.15 0.35 Q12.15 -0.05 12.65 0.0 L13.55 0.1 Q14.0 0.2 13.65 0.65" fill="#784000" fill-rule="evenodd" stroke="none"/>
    </g>
    <g id="sprite24" transform="matrix(1.0, 0.0, 0.0, 1.0, 0.0, 0.0)">
      <use height="5.5" transform="matrix(1.0, 0.0, 0.0, 1.0, 0.0, 0.0)" width="13.3" xlink:href="#shape35"/>
    </g>
    <g id="shape35" transform="matrix(1.0, 0.0, 0.0, 1.0, 0.0, 0.0)">
      <path d="M12.35 0.0 Q13.25 -0.1 13.3 0.25 13.4 0.7 11.35 1.6 5.6 4.15 3.75 4.7 2.9 4.95 2.0 5.5 L0.0 4.95 Q3.7 3.75 5.95 2.6 10.8 0.15 12.35 0.0" fill="#785307" fill-rule="evenodd" stroke="none"/>
    </g>
    <g id="shape36" transform="matrix(1.0, 0.0, 0.0, 1.0, -6.8, -14.0)">
      <path d="M38.5 14.0 L38.5 15.75 37.75 16.3 29.35 20.8 19.6 26.1 Q9.7 31.5 9.25 31.85 L7.0 32.75 6.8 30.9 14.6 24.5 18.3 22.05 38.5 14.0" fill="#9e6500" fill-rule="evenodd" stroke="none"/>
      <path d="M22.15 16.45 Q28.9 14.95 38.5 14.0 L16.7 25.0 7.7 30.7 6.8 30.9 Q10.5 23.65 11.95 21.7 13.25 19.9 15.1 18.85 17.65 17.4 22.15 16.45" fill="#c98000" fill-rule="evenodd" stroke="none"/>
      <path d="M37.4 14.45 L37.75 16.3 Q28.6 22.2 22.65 25.3 16.7 28.45 8.05 32.4 L7.7 30.7 19.3 19.3 37.4 14.45" fill="#dbc674" fill-rule="evenodd" stroke="none"/>
      <path d="M21.6 17.05 Q28.25 15.6 37.4 14.45 31.65 18.3 23.75 22.45 L7.7 30.7 11.35 24.1 Q12.85 21.15 14.65 19.8 17.0 18.0 21.6 17.05" fill="#ebd88d" fill-rule="evenodd" stroke="none"/>
      <path d="M13.15 28.45 Q13.8 29.05 13.2 29.5 12.6 30.0 12.3 29.65 12.05 29.35 12.4 28.75 12.7 28.15 13.15 28.45" fill="url(#gradient79)" fill-rule="evenodd" stroke="none"/>
      <path d="M17.7 25.65 Q17.8 25.15 18.85 24.9 L19.95 24.7 19.85 25.6 Q19.55 26.5 18.85 26.6 18.1 26.7 17.8 26.2 L17.7 25.65" fill="url(#gradient80)" fill-rule="evenodd" stroke="none"/>
      <path d="M29.9 20.65 Q29.65 20.55 29.8 20.05 29.95 19.5 30.4 19.6 32.25 20.25 29.9 20.65" fill="url(#gradient81)" fill-rule="evenodd" stroke="none"/>
    </g>
    <linearGradient gradientTransform="matrix(8.0E-4, 0.0, 0.0, -7.0E-4, 12.85, 29.05)" gradientUnits="userSpaceOnUse" id="gradient79" spreadMethod="pad" x1="-819.2" x2="819.2">
      <stop offset="0.0" stop-color="#c4a149"/>
      <stop offset="1.0" stop-color="#dbc674"/>
    </linearGradient>
    <linearGradient gradientTransform="matrix(0.0014, 0.0, 0.0, -0.0014, 18.85, 25.7)" gradientUnits="userSpaceOnUse" id="gradient80" spreadMethod="pad" x1="-819.2" x2="819.2">
      <stop offset="0.0" stop-color="#c4a149"/>
      <stop offset="1.0" stop-color="#dbc674"/>
    </linearGradient>
    <linearGradient gradientTransform="matrix(8.0E-4, 0.0, 0.0, -8.0E-4, 30.45, 20.15)" gradientUnits="userSpaceOnUse" id="gradient81" spreadMethod="pad" x1="-819.2" x2="819.2">
      <stop offset="0.0" stop-color="#c4a149"/>
      <stop offset="1.0" stop-color="#dbc674"/>
    </linearGradient>
    <g id="sprite25" transform="matrix(1.0, 0.0, 0.0, 1.0, 0.0, 0.0)">
      <use height="19.15" transform="matrix(1.0, 0.0, 0.0, 1.0, 0.0, 0.0)" width="36.2" xlink:href="#shape37"/>
    </g>
    <g id="shape37" transform="matrix(1.0, 0.0, 0.0, 1.0, 0.0, 0.0)">
      <path d="M35.7 0.0 Q36.55 0.0 35.95 0.75 L34.5 1.85 33.2 2.75 Q32.45 3.35 32.1 3.4 31.7 3.45 31.35 4.35 L31.1 5.25 30.75 5.9 28.95 7.25 Q28.85 5.85 28.0 5.9 27.5 5.95 25.75 7.2 L22.45 9.5 Q19.3 11.6 14.7 13.25 12.95 13.9 10.05 15.3 7.45 16.6 5.95 17.5 4.1 18.6 0.0 19.15 L6.5 13.75 Q13.9 8.0 18.35 6.1 23.55 3.9 29.2 1.95 34.75 0.0 35.7 0.0" fill="#664b16" fill-rule="evenodd" stroke="none"/>
    </g>
    <g id="shape38" transform="matrix(1.0, 0.0, 0.0, 1.0, -6.35, -10.05)">
      <path d="M37.15 12.7 Q38.3 13.0 38.05 13.8 37.75 14.55 36.85 15.1 35.4 15.95 35.35 17.35 35.3 18.05 34.55 18.4 33.75 18.75 33.25 18.15 32.4 17.15 30.05 18.85 26.0 21.85 23.35 23.0 20.35 24.25 16.15 26.4 L11.6 28.45 Q10.2 28.85 8.55 29.7 7.45 30.3 6.9 30.2 6.15 30.05 6.6 28.65 7.0 27.4 7.55 27.0 L9.55 23.45 Q11.25 20.05 11.75 19.65 13.0 18.7 23.75 15.5 35.0 12.2 37.15 12.7" fill="#ffab0f" fill-rule="evenodd" stroke="none"/>
      <path d="M32.9 17.15 L27.45 20.35 24.85 21.85 21.9 23.35 16.4 26.05 Q15.75 26.45 14.8 26.5 L13.95 26.5 Q16.75 25.0 18.85 24.1 27.1 20.35 29.2 18.45 30.3 17.5 32.05 17.05 33.85 16.6 32.9 17.15" fill="#fff0b8" fill-rule="evenodd" stroke="none"/>
      <path d="M32.25 17.05 Q33.1 16.85 33.3 17.2 L33.7 17.75 Q33.9 18.05 34.3 18.05 35.05 18.05 35.35 17.15 L35.35 17.35 Q35.3 18.05 34.55 18.4 33.75 18.75 33.25 18.15 32.4 17.15 30.05 18.85 26.0 21.85 23.35 23.0 20.35 24.25 16.15 26.4 L11.6 28.45 Q10.2 28.85 8.55 29.7 7.45 30.3 6.9 30.2 6.55 30.1 6.45 29.6 L8.0 29.3 9.2 28.5 Q9.7 28.15 11.35 27.35 12.75 26.65 17.35 24.85 L22.5 22.65 26.5 20.4 30.3 17.95 Q31.3 17.2 32.25 17.05" fill="#d48900" fill-rule="evenodd" stroke="none"/>
      <path d="M36.0 14.95 L37.15 14.05 Q37.7 13.35 37.6 12.85 38.3 13.2 37.95 13.95 L36.85 15.1 Q35.7 15.75 35.45 16.65 L35.4 15.7 Q35.5 15.25 36.0 14.95" fill="#d48900" fill-rule="evenodd" stroke="none"/>
      <path d="M34.25 16.0 L34.7 16.6 Q34.85 17.2 34.6 17.4 34.35 17.6 34.05 17.2 L33.25 16.45 Q32.8 16.2 33.25 16.0 33.75 15.85 34.25 16.0" fill="#fff0b8" fill-rule="evenodd" stroke="none"/>
      <path d="M36.75 13.1 Q37.3 12.95 36.85 13.6 L36.0 14.3 Q35.6 14.3 36.0 13.75 36.4 13.2 36.75 13.1" fill="#fff0b8" fill-rule="evenodd" stroke="none"/>
      <path d="M7.45 28.65 Q8.1 28.6 7.8 28.95 7.5 29.3 7.05 29.3 6.7 29.3 6.9 29.0 L7.45 28.65" fill="#fff0b8" fill-rule="evenodd" stroke="none"/>
      <path d="M34.6 12.85 L37.15 12.7 Q36.55 12.7 35.9 13.2 L30.25 17.25 Q26.7 19.8 20.8 22.45 L16.6 24.55 12.55 26.5 6.7 28.75 Q8.6 26.35 11.4 24.45 L20.35 17.2 26.8 15.15 Q33.45 13.05 34.6 12.85" fill="#d48900" fill-rule="evenodd" stroke="none"/>
      <path d="M37.3 10.05 L37.25 11.8 36.55 12.35 28.35 16.8 18.8 22.1 8.7 27.8 6.55 28.7 6.35 26.85 13.9 20.45 17.55 18.05 37.3 10.05" fill="#9e6500" fill-rule="evenodd" stroke="none"/>
      <path d="M21.3 12.4 Q27.9 11.0 37.3 10.05 L16.0 21.0 7.2 26.65 6.35 26.85 Q9.9 19.6 11.35 17.65 12.6 15.9 14.4 14.85 16.9 13.4 21.3 12.4" fill="#c98000" fill-rule="evenodd" stroke="none"/>
      <path d="M36.25 10.5 L36.55 12.35 Q27.65 18.25 21.85 21.3 16.0 24.4 7.55 28.4 L7.2 26.65 18.5 15.25 36.25 10.5" fill="#dbc674" fill-rule="evenodd" stroke="none"/>
      <path d="M20.75 13.0 L36.25 10.5 Q30.6 14.35 22.9 18.4 L7.2 26.65 10.75 20.05 Q12.25 17.15 13.95 15.8 16.25 14.0 20.75 13.0" fill="#ffef9e" fill-rule="evenodd" stroke="none"/>
      <path d="M17.7 15.05 Q20.2 15.0 20.1 15.85 20.05 16.65 18.3 17.05 L16.4 17.25 15.65 16.6 Q15.25 16.1 15.9 15.6 16.55 15.1 17.7 15.05" fill="url(#gradient82)" fill-rule="evenodd" stroke="none"/>
      <path d="M14.15 17.0 Q15.45 16.8 14.8 17.85 14.05 18.85 13.25 18.8 12.55 18.7 13.0 17.9 13.45 17.05 14.15 17.0" fill="url(#gradient83)" fill-rule="evenodd" stroke="none"/>
      <path d="M12.4 20.05 Q13.15 19.95 12.4 21.15 11.7 22.4 10.95 22.15 10.2 22.0 10.95 21.05 11.7 20.15 12.4 20.05" fill="url(#gradient84)" fill-rule="evenodd" stroke="none"/>
      <path d="M13.5 20.2 Q14.5 19.9 14.3 20.85 14.1 21.85 13.3 21.85 12.65 21.85 12.85 21.1 13.0 20.4 13.5 20.2" fill="url(#gradient85)" fill-rule="evenodd" stroke="none"/>
      <path d="M28.4 12.7 Q30.25 12.45 28.75 13.65 27.25 14.9 26.35 14.75 25.6 14.6 26.3 13.75 27.05 12.95 28.4 12.7" fill="url(#gradient86)" fill-rule="evenodd" stroke="none"/>
      <path d="M23.5 13.1 Q24.65 12.8 23.85 13.75 23.1 14.65 22.4 14.4 21.75 14.15 22.2 13.75 22.6 13.35 23.5 13.1" fill="url(#gradient87)" fill-rule="evenodd" stroke="none"/>
      <path d="M32.05 11.2 Q33.1 10.9 32.95 11.55 32.85 12.25 31.9 12.25 31.0 12.25 31.35 11.75 31.65 11.25 32.05 11.2" fill="url(#gradient88)" fill-rule="evenodd" stroke="none"/>
      <path d="M21.5 16.75 Q22.35 16.1 22.55 17.0 22.7 17.85 21.85 17.95 21.05 17.95 21.05 17.5 21.05 17.1 21.5 16.75" fill="url(#gradient89)" fill-rule="evenodd" stroke="none"/>
      <path d="M11.8 25.0 Q11.8 24.55 12.2 24.2 12.55 23.8 12.85 23.95 13.15 24.2 13.15 24.6 L12.85 25.35 12.2 25.65 Q11.85 25.6 11.8 25.0" fill="url(#gradient90)" fill-rule="evenodd" stroke="none"/>
      <path d="M15.85 24.4 L15.75 23.9 Q15.85 23.25 16.7 22.75 17.55 22.2 18.5 22.45 L19.25 22.75 15.85 24.4" fill="url(#gradient91)" fill-rule="evenodd" stroke="none"/>
      <path d="M29.35 15.3 Q29.95 15.35 29.55 15.95 29.1 16.55 28.6 16.45 28.05 16.45 28.45 15.85 28.9 15.25 29.35 15.3" fill="url(#gradient92)" fill-rule="evenodd" stroke="none"/>
    </g>
    <linearGradient gradientTransform="matrix(0.001, 0.0014, 0.0014, -0.001, 17.8, 16.1)" gradientUnits="userSpaceOnUse" id="gradient82" spreadMethod="pad" x1="-819.2" x2="819.2">
      <stop offset="0.0" stop-color="#edca6b"/>
      <stop offset="1.0" stop-color="#ffef9e"/>
    </linearGradient>
    <linearGradient gradientTransform="matrix(5.0E-4, 7.0E-4, 7.0E-4, -5.0E-4, 13.9, 17.9)" gradientUnits="userSpaceOnUse" id="gradient83" spreadMethod="pad" x1="-819.2" x2="819.2">
      <stop offset="0.0" stop-color="#edca6b"/>
      <stop offset="1.0" stop-color="#ffef9e"/>
    </linearGradient>
    <linearGradient gradientTransform="matrix(5.0E-4, 6.0E-4, 6.0E-4, -5.0E-4, 11.75, 21.2)" gradientUnits="userSpaceOnUse" id="gradient84" spreadMethod="pad" x1="-819.2" x2="819.2">
      <stop offset="0.0" stop-color="#edca6b"/>
      <stop offset="1.0" stop-color="#ffef9e"/>
    </linearGradient>
    <linearGradient gradientTransform="matrix(5.0E-4, 7.0E-4, 7.0E-4, -5.0E-4, 13.6, 21.05)" gradientUnits="userSpaceOnUse" id="gradient85" spreadMethod="pad" x1="-819.2" x2="819.2">
      <stop offset="0.0" stop-color="#edca6b"/>
      <stop offset="1.0" stop-color="#ffef9e"/>
    </linearGradient>
    <linearGradient gradientTransform="matrix(0.002, 0.0, 0.0, -0.002, 27.65, 13.75)" gradientUnits="userSpaceOnUse" id="gradient86" spreadMethod="pad" x1="-819.2" x2="819.2">
      <stop offset="0.0" stop-color="#edca6b"/>
      <stop offset="1.0" stop-color="#ffef9e"/>
    </linearGradient>
    <linearGradient gradientTransform="matrix(4.0E-4, 5.0E-4, 5.0E-4, -4.0E-4, 23.1, 13.75)" gradientUnits="userSpaceOnUse" id="gradient87" spreadMethod="pad" x1="-819.2" x2="819.2">
      <stop offset="0.0" stop-color="#edca6b"/>
      <stop offset="1.0" stop-color="#ffef9e"/>
    </linearGradient>
    <linearGradient gradientTransform="matrix(4.0E-4, 5.0E-4, 5.0E-4, -4.0E-4, 32.2, 11.75)" gradientUnits="userSpaceOnUse" id="gradient88" spreadMethod="pad" x1="-819.2" x2="819.2">
      <stop offset="0.0" stop-color="#edca6b"/>
      <stop offset="1.0" stop-color="#ffef9e"/>
    </linearGradient>
    <linearGradient gradientTransform="matrix(4.0E-4, 6.0E-4, 6.0E-4, -4.0E-4, 21.85, 17.35)" gradientUnits="userSpaceOnUse" id="gradient89" spreadMethod="pad" x1="-819.2" x2="819.2">
      <stop offset="0.0" stop-color="#edca6b"/>
      <stop offset="1.0" stop-color="#ffef9e"/>
    </linearGradient>
    <linearGradient gradientTransform="matrix(1.0E-4, 9.0E-4, 9.0E-4, -1.0E-4, 12.5, 24.85)" gradientUnits="userSpaceOnUse" id="gradient90" spreadMethod="pad" x1="-819.2" x2="819.2">
      <stop offset="0.0" stop-color="#c4a149"/>
      <stop offset="1.0" stop-color="#dbc674"/>
    </linearGradient>
    <linearGradient gradientTransform="matrix(1.0E-4, 9.0E-4, 9.0E-4, -1.0E-4, 17.5, 23.45)" gradientUnits="userSpaceOnUse" id="gradient91" spreadMethod="pad" x1="-819.2" x2="819.2">
      <stop offset="0.0" stop-color="#c4a149"/>
      <stop offset="1.0" stop-color="#dbc674"/>
    </linearGradient>
    <linearGradient gradientTransform="matrix(0.0, 6.0E-4, 6.0E-4, 0.0, 29.0, 15.95)" gradientUnits="userSpaceOnUse" id="gradient92" spreadMethod="pad" x1="-819.2" x2="819.2">
      <stop offset="0.0" stop-color="#c4a149"/>
      <stop offset="1.0" stop-color="#dbc674"/>
    </linearGradient>
    <g id="sprite26" transform="matrix(1.0, 0.0, 0.0, 1.0, 0.0, 0.0)">
      <use height="2.6" transform="matrix(1.0, 0.0, 0.0, 1.0, 0.0, 0.0)" width="13.3" xlink:href="#shape39"/>
    </g>
    <g id="shape39" transform="matrix(1.0, 0.0, 0.0, 1.0, 0.0, 0.0)">
      <path d="M13.3 0.0 L11.8 0.65 Q11.2 0.85 9.9 1.6 L8.7 2.25 5.05 2.25 0.2 2.5 Q-0.15 2.3 0.15 1.7 0.5 1.1 1.05 0.9 L7.05 0.25 13.3 0.0" fill="#965a00" fill-rule="evenodd" stroke="none"/>
    </g>
    <g id="sprite27" transform="matrix(1.0, 0.0, 0.0, 1.0, -0.05, 0.0)">
      <use height="3.15" transform="matrix(1.0, 0.0, 0.0, 1.0, 0.05, 0.0)" width="22.2" xlink:href="#shape40"/>
    </g>
    <g id="shape40" transform="matrix(1.0, 0.0, 0.0, 1.0, -0.05, 0.0)">
      <path d="M22.25 0.0 L20.9 1.0 19.15 1.95 17.9 2.5 15.0 2.5 6.75 2.75 2.55 3.1 0.4 3.0 Q-0.15 2.8 0.2 2.6 L1.4 2.0 Q2.5 1.35 10.5 0.9 L22.25 0.0" fill="#965a00" fill-rule="evenodd" stroke="none"/>
    </g>
    <g id="sprite28" transform="matrix(1.0, 0.0, 0.0, 1.0, 0.0, 0.0)">
      <use height="3.1" transform="matrix(1.0, 0.0, 0.0, 1.0, 0.0, 0.0)" width="19.5" xlink:href="#shape41"/>
    </g>
    <g id="shape41" transform="matrix(1.0, 0.0, 0.0, 1.0, 0.0, 0.0)">
      <path d="M1.35 2.0 L5.25 1.45 10.75 1.0 19.5 0.0 16.75 1.65 14.15 1.85 3.0 3.0 0.0 2.8 Q0.05 2.4 1.35 2.0" fill="#965a00" fill-rule="evenodd" stroke="none"/>
    </g>
  </defs>
</svg>
