<?xml version="1.0" encoding="UTF-8" standalone="no"?>
<svg xmlns:xlink="http://www.w3.org/1999/xlink" height="208.5px" width="131.55px" xmlns="http://www.w3.org/2000/svg">
  <g transform="matrix(1.0, 0.0, 0.0, 1.0, 0.0, 0.0)">
    <use height="208.5" transform="matrix(1.0, 0.0, 0.0, 1.0, 0.0, 0.0)" width="131.55" xlink:href="#shape0"/>
  </g>
  <defs>
    <g id="shape0" transform="matrix(1.0, 0.0, 0.0, 1.0, 0.0, 0.0)">
      <path d="M130.2 1.5 L130.2 1.0 1.75 1.0 1.75 1.25 1.05 1.25 1.05 24.15 0.05 24.15 0.05 0.0 131.55 0.0 131.55 207.7 130.2 206.85 130.2 1.5 M0.05 36.75 L0.3 36.75 Q0.3 38.35 0.55 39.5 L1.05 40.65 1.05 181.65 0.05 181.65 0.05 36.75 M0.3 194.25 Q0.35 195.6 0.55 196.55 L1.05 197.7 1.05 207.85 0.55 208.5 0.05 208.5 0.05 194.25 0.3 194.25" fill="#a8a799" fill-rule="evenodd" stroke="none"/>
      <path d="M1.05 24.15 L1.05 1.25 1.75 1.25 1.75 1.5 1.75 24.15 1.05 24.15 M1.75 36.75 L1.75 181.65 1.05 181.65 1.05 40.65 0.55 39.5 Q0.3 38.35 0.3 36.75 L1.75 36.75 M1.75 194.25 L1.75 206.85 1.95 206.85 1.05 208.0 1.05 207.85 1.05 197.7 0.55 196.55 Q0.35 195.6 0.3 194.25 L1.75 194.25" fill="#6c6a62" fill-rule="evenodd" stroke="none"/>
      <path d="M1.75 1.25 L1.75 1.0 130.2 1.0 130.2 1.5 1.75 1.5 1.75 1.25" fill="#e9e8d4" fill-rule="evenodd" stroke="none"/>
      <path d="M114.65 133.45 Q116.65 134.9 119.2 134.9 122.6 134.9 125.0 132.4 127.4 129.9 127.4 126.4 L127.25 124.6 128.2 127.15 Q129.05 130.55 127.45 133.5 125.85 136.45 122.8 137.15 119.75 137.85 117.05 135.95 115.55 134.9 114.65 133.45" fill="#c9c7ba" fill-rule="evenodd" stroke="none"/>
      <path d="M126.05 121.65 L125.0 120.4 Q122.6 117.9 119.2 117.9 115.85 117.9 113.45 120.4 112.45 121.45 111.9 122.65 L111.45 122.7 Q112.05 121.2 113.2 120.0 115.6 117.5 118.95 117.5 122.35 117.5 124.75 120.0 L126.05 121.65 M112.0 130.35 L112.25 130.85 111.95 130.35 112.0 130.35 M94.5 125.6 Q94.5 124.9 94.65 124.75 95.2 124.05 109.65 123.4 115.75 123.1 117.75 123.2 121.15 123.35 122.65 124.45 L123.3 125.1 122.9 124.8 Q121.4 123.7 118.0 123.55 115.9 123.45 109.9 123.75 95.45 124.4 94.9 125.1 94.7 125.35 94.65 126.8 94.65 128.15 94.8 128.85 L94.65 128.75 Q94.45 128.4 94.45 126.75 L94.45 126.5 94.5 125.85 94.5 125.6" fill="#f8f5e6" fill-rule="evenodd" stroke="none"/>
      <path d="M121.7 123.4 Q122.4 123.55 123.0 124.05 124.25 125.1 124.6 126.85 124.95 128.6 124.2 130.0 123.45 131.4 122.0 131.7 120.55 132.0 119.35 131.0 L118.75 130.4 Q121.4 130.05 122.65 129.05 123.45 128.35 123.75 127.15 L123.9 127.15 123.85 126.5 123.9 125.85 123.75 125.85 Q123.45 124.65 122.65 123.95 L121.7 123.4" fill="#7b7b6e" fill-rule="evenodd" stroke="none"/>
      <path d="M82.2 67.15 L87.45 67.15 87.45 68.15 81.25 68.1 82.2 67.15 M88.4 81.8 L94.55 81.8 94.5 67.15 101.65 67.1 91.9 56.75 91.9 56.7 102.65 68.1 95.5 68.15 95.55 82.8 88.4 82.8 88.4 81.8 M39.0 88.55 L40.2 88.55 40.2 86.25 40.15 86.25 40.15 76.8 52.2 76.8 52.2 76.75 52.25 76.75 52.25 64.75 64.25 64.75 64.25 52.75 76.25 52.75 76.25 51.4 77.45 51.4 77.45 53.95 65.45 53.95 65.45 65.95 53.45 65.95 53.45 77.95 53.4 77.95 53.4 78.0 41.35 78.0 41.35 87.5 41.4 87.5 41.4 89.75 39.0 89.75 39.0 88.55" fill="#f6f4e3" fill-rule="evenodd" stroke="none"/>
      <path d="M82.2 67.15 L80.25 67.1 90.9 55.7 91.9 56.75 101.65 67.1 94.5 67.15 94.55 81.8 88.4 81.8 87.4 81.8 87.45 68.15 87.45 67.15 82.2 67.15 M39.0 88.55 L37.8 88.55 37.8 74.25 49.7 74.25 49.7 62.2 61.7 62.2 61.7 50.2 76.25 50.2 76.25 51.4 76.25 52.75 64.25 52.75 64.25 64.75 52.25 64.75 52.25 76.75 52.2 76.75 52.2 76.8 40.15 76.8 40.15 86.25 40.2 86.25 40.2 88.55 39.0 88.55" fill="#959588" fill-rule="evenodd" stroke="none"/>
      <path d="M130.2 1.5 L130.2 206.85 1.95 206.85 1.75 206.85 1.75 194.25 2.55 194.25 2.55 181.65 1.75 181.65 1.75 36.75 2.55 36.75 2.55 24.15 1.75 24.15 1.75 1.5 130.2 1.5 M91.9 56.75 L90.9 55.7 80.25 67.1 82.2 67.15 81.25 68.1 87.45 68.15 87.4 81.8 88.4 81.8 88.4 82.8 95.55 82.8 95.5 68.15 102.65 68.1 91.9 56.7 91.9 56.75 M76.25 51.4 L76.25 50.2 61.7 50.2 61.7 62.2 49.7 62.2 49.7 74.25 37.8 74.25 37.8 88.55 39.0 88.55 39.0 89.75 41.4 89.75 41.4 87.5 41.35 87.5 41.35 78.0 53.4 78.0 53.4 77.95 53.45 77.95 53.45 65.95 65.45 65.95 65.45 53.95 77.45 53.95 77.45 51.4 76.25 51.4 M126.05 121.65 L124.75 120.0 Q122.35 117.5 118.95 117.5 115.6 117.5 113.2 120.0 112.05 121.2 111.45 122.7 L109.65 122.75 Q95.2 123.55 94.65 124.25 94.5 124.5 94.5 125.6 L94.5 125.85 94.45 126.5 94.45 126.75 Q94.45 128.4 94.65 128.75 L94.8 128.85 Q96.2 129.5 109.65 130.25 L111.95 130.35 112.25 130.85 112.3 130.9 113.45 132.4 114.65 133.45 Q115.55 134.9 117.05 135.95 119.75 137.85 122.8 137.15 125.85 136.45 127.45 133.5 129.05 130.55 128.2 127.15 L127.25 124.6 Q126.9 123.0 126.05 121.65" fill="url(#gradient0)" fill-rule="evenodd" stroke="none"/>
      <path d="M0.05 24.15 L1.05 24.15 1.75 24.15 2.55 24.15 2.55 36.75 1.75 36.75 0.3 36.75 0.05 36.75 0.0 36.75 0.0 24.15 0.05 24.15" fill="url(#gradient1)" fill-rule="evenodd" stroke="none"/>
      <path d="M111.9 122.65 Q112.45 121.45 113.45 120.4 115.85 117.9 119.2 117.9 122.6 117.9 125.0 120.4 L126.05 121.65 Q126.9 123.0 127.25 124.6 L127.4 126.4 Q127.4 129.9 125.0 132.4 122.6 134.9 119.2 134.9 116.65 134.9 114.65 133.45 L113.45 132.4 112.3 130.9 112.25 130.85 112.0 130.35 117.75 130.45 118.75 130.4 119.35 131.0 Q120.55 132.0 122.0 131.7 123.45 131.4 124.2 130.0 124.95 128.6 124.6 126.85 124.25 125.1 123.0 124.05 122.4 123.55 121.7 123.4 120.25 122.7 117.75 122.55 116.05 122.45 111.9 122.65" fill="url(#gradient2)" fill-rule="evenodd" stroke="none"/>
      <path d="M111.45 122.7 L111.9 122.65 Q116.05 122.45 117.75 122.55 120.25 122.7 121.7 123.4 L122.65 123.95 Q123.45 124.65 123.75 125.85 L123.9 125.85 123.85 126.5 123.9 127.15 123.75 127.15 Q123.45 128.35 122.65 129.05 121.4 130.05 118.75 130.4 L117.75 130.45 112.0 130.35 111.95 130.35 109.65 130.25 Q96.2 129.5 94.8 128.85 94.65 128.15 94.65 126.8 94.7 125.35 94.9 125.1 95.45 124.4 109.9 123.75 115.9 123.45 118.0 123.55 121.4 123.7 122.9 124.8 L123.3 125.1 122.65 124.45 Q121.15 123.35 117.75 123.2 115.75 123.1 109.65 123.4 95.2 124.05 94.65 124.75 94.5 124.9 94.5 125.6 94.5 124.5 94.65 124.25 95.2 123.55 109.65 122.75 L111.45 122.7" fill="url(#gradient3)" fill-rule="evenodd" stroke="none"/>
      <path d="M1.75 181.65 L2.55 181.65 2.55 194.25 1.75 194.25 0.3 194.25 0.05 194.25 0.0 194.25 0.0 181.65 0.05 181.65 1.05 181.65 1.75 181.65" fill="url(#gradient4)" fill-rule="evenodd" stroke="none"/>
    </g>
    <linearGradient gradientTransform="matrix(0.0, -0.1381, -0.1381, 0.0, 66.0, 75.7)" gradientUnits="userSpaceOnUse" id="gradient0" spreadMethod="pad" x1="-819.2" x2="819.2">
      <stop offset="0.0" stop-color="#e9e6da"/>
      <stop offset="1.0" stop-color="#d2d1be"/>
    </linearGradient>
    <linearGradient gradientTransform="matrix(0.0016, 0.0, 0.0, -0.0016, 1.3, 30.45)" gradientUnits="userSpaceOnUse" id="gradient1" spreadMethod="pad" x1="-819.2" x2="819.2">
      <stop offset="0.0" stop-color="#87847d"/>
      <stop offset="0.17647058823529413" stop-color="#e9e6d8"/>
      <stop offset="0.8274509803921568" stop-color="#a9aa9a"/>
      <stop offset="1.0" stop-color="#c3c3af"/>
    </linearGradient>
    <linearGradient gradientTransform="matrix(0.0056, 0.0103, 0.0103, -0.0056, 118.8, 125.6)" gradientUnits="userSpaceOnUse" id="gradient2" spreadMethod="pad" x1="-819.2" x2="819.2">
      <stop offset="0.0" stop-color="#cecac0"/>
      <stop offset="0.2823529411764706" stop-color="#c5c5b8"/>
      <stop offset="0.8274509803921568" stop-color="#707165"/>
      <stop offset="1.0" stop-color="#9d9d8c"/>
    </linearGradient>
    <linearGradient gradientTransform="matrix(0.018, 0.0, 0.0, -0.018, 109.15, 126.5)" gradientUnits="userSpaceOnUse" id="gradient3" spreadMethod="pad" x1="-819.2" x2="819.2">
      <stop offset="0.0" stop-color="#cecac0"/>
      <stop offset="0.2823529411764706" stop-color="#afaea2"/>
      <stop offset="0.8274509803921568" stop-color="#707165"/>
      <stop offset="1.0" stop-color="#9d9d8c"/>
    </linearGradient>
    <linearGradient gradientTransform="matrix(0.0016, 0.0, 0.0, -0.0016, 1.3, 187.95)" gradientUnits="userSpaceOnUse" id="gradient4" spreadMethod="pad" x1="-819.2" x2="819.2">
      <stop offset="0.0" stop-color="#87847d"/>
      <stop offset="0.17647058823529413" stop-color="#e9e6d8"/>
      <stop offset="0.8274509803921568" stop-color="#a9aa9a"/>
      <stop offset="1.0" stop-color="#c3c3af"/>
    </linearGradient>
  </defs>
</svg>
