<?xml version="1.0" encoding="UTF-8" standalone="no"?>
<svg xmlns:xlink="http://www.w3.org/1999/xlink" height="41.65px" width="161.0px" xmlns="http://www.w3.org/2000/svg">
  <g transform="matrix(1.0, 0.0, 0.0, 1.0, 0.0, 0.0)">
    <use height="41.65" transform="matrix(1.0, 0.0, 0.0, 1.0, 0.0, 0.0)" width="161.0" xlink:href="#shape0"/>
  </g>
  <defs>
    <g id="shape0" transform="matrix(1.0, 0.0, 0.0, 1.0, 0.0, 0.0)">
      <path d="M161.0 27.65 Q161.0 33.45 137.4 37.55 113.85 41.65 80.5 41.65 47.15 41.65 23.6 37.55 0.0 33.45 0.0 27.65 0.0 21.85 23.6 17.75 47.2 13.65 80.5 13.65 113.8 13.65 137.4 17.75 161.0 21.85 161.0 27.65" fill="url(#gradient0)" fill-rule="evenodd" stroke="none"/>
      <path d="M128.4 16.7 L129.7 16.25 Q130.7 15.65 129.45 15.05 L128.5 14.8 129.7 15.1 Q131.0 15.75 129.95 16.35 L128.4 16.95 128.4 16.7 M124.85 15.0 L125.15 15.75 124.8 15.0 124.5 14.4 124.25 13.95 124.1 13.7 124.0 13.55 123.6 13.0 124.45 12.2 125.3 10.75 125.8 9.25 Q126.0 8.3 125.7 8.4 L125.6 8.4 125.0 9.1 124.5 9.85 123.9 11.05 123.5 12.05 123.4 12.75 123.25 12.65 Q124.7 8.45 126.1 7.9 L126.55 7.85 126.15 7.9 126.75 8.75 Q127.2 9.35 127.2 10.1 127.35 11.3 126.3 12.6 L125.35 13.3 124.3 13.9 124.25 13.95 124.85 15.0 M137.55 21.0 L137.05 20.75 Q135.9 20.2 134.8 20.25 135.65 20.8 136.1 21.75 L136.35 22.4 136.25 23.25 Q135.9 23.9 134.85 24.1 L133.55 24.05 132.9 23.85 132.65 23.75 Q131.65 23.3 131.3 22.65 L131.35 22.9 Q131.15 22.4 131.45 22.2 L132.3 21.3 Q133.05 20.6 133.85 20.4 135.6 19.8 137.55 21.0 M134.1 20.7 L133.6 20.6 Q132.8 20.85 132.4 21.45 L131.9 22.0 Q131.65 22.3 131.7 22.5 131.75 22.8 132.45 23.1 L133.55 23.2 133.95 22.75 133.9 22.4 Q133.85 21.9 134.1 21.05 L134.1 20.7 M116.8 20.35 Q116.65 19.35 116.95 18.45 L117.15 17.95 117.2 17.9 117.65 16.8 117.85 16.35 118.45 14.7 Q119.4 12.65 120.5 12.05 L120.65 11.95 121.0 11.85 121.85 11.8 121.9 11.8 Q122.55 12.7 122.9 13.95 L123.2 15.35 123.2 15.45 123.3 16.25 Q123.45 18.05 123.05 19.4 L122.25 20.9 121.9 21.2 121.35 21.5 120.65 21.7 120.6 21.75 118.8 21.7 Q117.2 21.25 116.75 19.6 L116.8 20.35 M112.8 7.55 Q112.1 7.1 111.95 6.4 111.75 5.6 112.25 4.55 114.1 0.6 115.9 0.05 L116.45 0.0 115.95 0.05 116.65 0.95 Q117.1 1.55 117.1 2.35 117.1 3.5 115.75 4.55 L114.65 5.1 113.45 5.5 112.5 6.2 Q112.2 6.5 112.2 6.95 L112.8 7.55 M120.5 5.1 L121.45 4.35 Q123.25 3.55 124.0 5.65 124.45 6.95 124.4 8.0 L124.15 6.2 Q123.65 4.45 122.45 4.2 123.05 5.25 122.85 7.05 L122.4 8.9 121.95 9.55 Q121.45 10.1 120.8 10.15 L120.65 10.15 120.6 10.15 119.5 9.95 Q118.7 9.6 118.55 8.85 L118.6 9.5 118.55 9.3 Q118.45 8.8 118.7 8.3 L118.75 8.1 117.85 8.2 117.85 8.0 118.9 7.9 119.35 6.95 119.15 6.85 Q118.0 6.35 115.5 6.35 118.15 6.3 119.4 6.9 L119.7 6.2 120.5 5.1 M113.05 3.05 L112.65 3.9 Q112.45 4.4 112.55 4.75 L113.65 4.1 114.7 2.85 115.4 1.4 Q115.75 0.45 115.3 0.6 L115.2 0.6 113.8 1.95 Q113.25 2.55 113.05 3.05 M86.55 9.6 Q88.85 4.2 90.65 3.7 L91.1 3.65 90.7 3.7 91.4 4.85 Q91.85 5.6 91.85 6.6 91.9 8.1 90.5 9.7 L89.25 10.55 87.8 11.2 87.65 11.3 87.05 10.35 86.9 10.05 86.8 9.95 86.7 9.8 86.55 9.6 M86.9 10.05 L87.55 9.7 88.15 9.0 89.35 7.25 90.15 5.35 Q90.5 4.2 90.05 4.35 L89.95 4.35 88.4 6.05 Q87.75 6.95 87.55 7.55 L87.0 8.75 Q86.75 9.4 86.8 9.9 L86.9 10.05 M92.35 20.85 L93.05 19.0 Q94.05 16.75 95.3 16.2 L96.65 16.05 Q97.75 17.35 98.2 19.55 98.65 21.85 98.15 23.45 L98.05 23.85 97.65 24.6 96.4 25.55 95.4 25.85 95.35 25.85 93.7 25.8 Q92.35 25.55 91.7 24.5 L91.7 24.45 91.5 24.1 91.4 23.85 91.4 24.15 91.4 23.35 91.65 22.45 91.75 22.2 92.15 21.35 92.35 20.85 M99.1 17.85 Q100.5 19.7 100.85 21.5 100.55 20.1 99.5 18.45 L99.1 17.85 M70.55 21.55 L70.5 21.5 Q70.15 20.4 70.6 19.0 L70.7 18.6 71.55 16.55 71.75 16.05 71.7 16.25 71.6 16.6 71.2 17.6 Q70.9 18.4 71.1 18.9 L72.0 18.6 72.1 18.5 72.45 18.1 72.75 17.8 72.75 17.75 74.2 15.65 75.1 13.35 75.2 12.8 Q75.3 11.95 74.8 12.15 L74.65 12.15 Q74.0 12.55 73.5 13.25 L73.4 13.4 72.85 14.2 72.65 14.45 72.2 15.2 73.2 13.45 Q74.4 11.7 75.65 11.25 L76.45 11.1 75.7 11.25 76.9 12.55 Q77.65 13.4 77.75 14.6 L77.8 15.05 77.5 16.25 76.05 18.15 74.4 19.15 72.8 19.9 72.6 19.95 72.05 20.3 71.25 21.1 Q70.8 21.65 70.9 22.3 L71.8 23.05 Q70.8 22.55 70.55 21.55 M58.1 19.4 Q56.95 19.05 56.45 18.0 55.85 16.7 56.55 15.3 L57.9 12.0 Q59.0 9.7 60.55 9.05 62.75 8.1 65.1 10.0 65.1 9.25 65.4 8.45 L66.5 4.4 Q67.4 1.6 68.75 0.85 69.45 0.45 70.2 0.5 71.55 1.95 72.25 4.65 72.95 7.4 72.6 9.4 72.25 11.1 71.2 11.95 L71.1 12.0 70.85 12.15 70.4 12.4 70.25 12.45 67.85 12.7 67.4 12.6 67.75 13.3 66.0 10.85 Q64.1 8.85 62.2 8.75 63.7 9.85 64.4 12.05 65.15 14.25 64.65 15.85 L64.3 16.75 64.0 17.15 62.65 18.1 61.9 18.4 61.85 18.4 59.2 18.65 Q57.0 18.45 56.2 16.95 56.3 18.05 57.0 18.75 57.45 19.2 58.1 19.4 M77.75 11.25 Q78.4 11.45 79.05 12.0 L79.4 10.95 Q80.6 8.3 82.1 7.65 L83.65 7.45 Q84.95 8.85 85.5 11.6 86.05 14.35 85.45 16.25 L84.6 17.9 84.05 18.4 83.45 18.75 83.3 18.25 Q82.65 16.4 81.7 15.2 L82.15 14.0 82.1 12.85 Q82.05 11.9 82.45 9.1 82.65 7.55 81.65 8.1 80.4 8.9 79.65 11.0 L79.25 12.2 80.05 13.15 79.2 12.2 79.1 12.1 79.05 12.05 Q78.4 11.45 77.75 11.25 M106.7 5.85 L106.65 5.35 106.0 5.4 Q105.25 6.05 105.0 7.2 L104.8 8.25 104.75 9.05 Q104.9 9.3 105.55 9.35 106.25 9.35 106.5 8.95 L106.85 8.2 106.75 7.75 106.7 5.85 M104.45 9.55 L104.45 8.9 104.9 7.05 Q105.35 5.7 106.3 5.05 108.25 3.8 110.0 5.25 111.35 6.35 111.55 7.55 111.35 6.65 110.4 5.7 109.1 4.4 107.55 4.6 108.7 5.25 109.1 6.75 L109.3 7.85 109.2 8.55 Q108.95 9.4 108.05 9.75 L107.8 9.85 106.05 10.1 Q104.95 10.1 104.45 9.55 M109.65 12.65 L110.65 13.2 109.65 12.65 Q110.45 13.65 110.65 15.45 L110.7 16.25 110.6 17.4 110.3 18.4 110.05 18.85 109.45 19.45 108.6 19.8 108.3 19.9 108.25 19.9 106.3 19.75 Q104.85 19.3 104.55 18.05 L104.55 18.9 Q104.3 17.8 105.0 16.85 L106.35 14.55 Q107.35 13.0 108.4 12.7 L108.5 12.65 109.2 12.6 109.45 12.6 109.65 12.65 M102.85 29.4 Q102.65 28.9 102.95 28.7 L103.8 27.8 Q104.55 27.1 105.35 26.9 L108.35 27.1 109.05 27.5 108.55 27.25 108.35 27.15 Q107.3 26.7 106.3 26.75 107.15 27.3 107.6 28.25 L107.85 29.0 107.85 29.4 107.75 29.75 Q107.4 30.4 106.35 30.6 L104.85 30.5 104.6 30.4 104.4 30.35 Q103.2 29.9 102.8 29.15 L102.85 29.4 M108.65 13.6 Q109.0 12.75 108.45 12.85 L108.15 12.9 Q107.2 13.2 106.5 14.55 L105.7 16.0 Q105.2 16.9 105.25 17.25 105.25 17.75 106.05 18.05 106.95 18.4 107.45 17.7 L108.05 16.7 108.15 15.95 108.55 14.05 108.65 13.6 M92.3 15.15 L94.5 14.65 Q95.85 14.0 94.3 13.1 93.55 12.65 92.35 12.55 93.75 12.65 94.6 13.15 96.2 14.1 94.8 14.85 L92.3 15.45 92.3 15.15 M90.4 15.15 L90.4 15.4 89.0 15.1 88.9 14.85 90.4 15.15 M95.35 21.55 L95.3 20.6 95.6 17.45 Q95.85 16.1 94.9 16.6 L94.05 17.45 93.25 19.0 92.5 21.0 92.35 21.45 92.15 22.2 92.1 22.7 92.15 22.9 92.35 23.25 93.2 23.65 93.75 23.7 Q94.45 23.65 94.8 22.95 L95.35 21.55 M103.2 29.0 L103.95 29.6 105.05 29.7 105.45 29.25 105.4 28.9 Q105.35 28.4 105.6 27.55 L105.6 27.2 105.1 27.1 Q104.3 27.35 103.9 27.95 L103.4 28.5 Q103.15 28.8 103.2 29.0 M125.3 16.2 L125.25 16.05 125.25 16.0 125.2 15.85 125.15 15.75 125.2 15.85 125.25 16.0 125.3 16.05 125.3 16.2 M121.45 5.35 Q121.7 4.35 121.1 4.7 120.35 5.1 119.75 6.4 L118.9 8.35 Q118.9 8.7 119.4 8.95 119.9 9.15 120.25 8.75 L120.7 8.05 120.8 7.5 Q120.85 6.8 121.45 5.35 M120.3 12.35 Q119.3 12.85 118.65 14.75 L118.1 16.35 117.9 16.75 117.85 16.95 Q117.45 17.85 117.45 18.3 L117.45 18.45 117.5 18.6 Q117.6 19.2 118.45 19.45 119.45 19.8 119.95 18.8 L120.25 18.15 120.3 18.1 120.45 17.65 120.5 17.4 120.5 16.4 120.9 13.2 Q121.05 12.05 120.5 12.25 L120.3 12.35 M126.4 17.05 L125.55 16.95 125.5 16.75 126.4 16.85 126.4 16.9 126.4 17.05 M112.75 6.95 Q112.85 7.35 114.2 7.7 L115.4 7.95 115.4 8.1 114.25 7.85 Q112.75 7.45 112.75 6.95 M69.15 1.45 Q68.95 0.9 68.35 1.35 67.95 1.65 67.45 2.45 L66.7 4.45 66.1 6.95 Q65.7 8.5 65.8 9.05 66.0 9.85 67.1 10.05 68.35 10.3 68.8 9.1 L69.3 7.35 69.15 6.15 69.1 4.0 69.2 2.3 69.15 1.45 M52.95 2.9 L52.3 3.0 53.05 3.8 53.55 5.05 Q53.6 6.15 52.5 7.25 L51.5 7.85 50.4 8.3 49.55 9.0 Q49.3 9.45 49.35 9.75 L49.6 10.0 49.1 9.3 Q48.85 8.5 49.25 7.5 L49.9 5.95 49.85 6.05 49.55 6.9 Q49.35 7.35 49.5 7.7 49.9 7.7 50.5 6.95 L51.35 5.7 51.9 4.3 Q52.15 3.4 51.75 3.55 L51.65 3.55 50.95 4.25 50.4 4.95 50.25 5.2 Q51.2 3.4 52.25 3.0 L52.95 2.9 M52.45 10.55 L51.35 10.4 Q49.95 10.2 49.9 9.75 L49.9 9.7 Q49.95 10.1 51.25 10.3 L52.45 10.45 52.45 10.55 M55.1 8.95 L56.1 9.15 Q57.5 9.6 56.35 10.1 L54.0 10.55 54.0 10.45 54.0 10.4 56.1 9.95 Q57.2 9.55 55.85 9.1 L55.1 8.95 M60.95 9.55 Q60.75 9.1 60.05 9.45 58.7 10.3 58.15 12.0 L57.35 14.05 Q56.9 15.3 57.0 15.75 57.2 16.4 58.45 16.55 59.85 16.7 60.4 15.7 L61.0 14.3 60.9 13.35 Q60.7 12.15 61.0 10.2 L60.95 9.55 M47.65 10.2 L46.7 9.7 Q47.85 11.65 47.95 14.65 48.15 17.8 47.3 19.9 46.8 21.2 46.0 21.9 L45.55 22.2 44.9 22.5 44.6 22.6 44.5 22.65 41.65 22.5 Q39.65 21.8 39.25 19.55 L39.2 20.15 Q39.25 18.7 39.95 17.35 L41.95 13.2 Q43.5 10.3 45.1 9.75 46.45 9.25 47.65 10.2 M48.0 24.4 L48.25 24.4 47.9 24.75 Q47.65 25.05 47.7 25.25 47.75 25.55 48.45 25.85 L49.55 25.95 49.95 25.5 49.9 25.15 Q49.85 24.65 50.1 23.8 L50.25 23.7 50.85 23.0 50.85 22.95 Q52.15 22.9 53.55 23.75 L53.05 23.5 Q51.9 22.95 50.85 23.0 51.65 23.55 52.1 24.5 52.55 25.35 52.25 26.0 L52.2 26.1 52.1 26.25 Q51.7 26.7 50.85 26.85 L48.9 26.6 Q47.7 26.15 47.3 25.4 L47.35 25.65 Q47.15 25.15 47.45 24.95 L48.0 24.4 M50.5 15.65 L49.7 13.35 49.5 12.9 Q50.2 14.3 50.5 15.65 M52.8 26.95 L53.4 26.4 Q53.95 26.0 54.55 25.85 L54.75 25.8 Q56.7 25.2 58.9 26.5 L58.55 26.35 Q57.1 25.6 55.75 25.65 56.85 26.65 57.35 27.75 L57.55 28.2 Q57.85 29.05 57.55 29.8 L57.45 30.0 Q57.0 30.75 55.85 30.95 55.15 31.15 54.3 30.95 L53.4 30.65 Q51.85 30.0 51.35 28.95 51.3 28.55 51.6 28.35 L52.65 27.05 52.8 26.95 M51.9 28.75 Q51.95 29.1 52.85 29.6 L54.2 29.7 54.7 29.1 54.6 28.65 Q54.55 28.1 54.8 27.05 L54.85 26.75 54.85 26.25 Q54.7 25.9 54.2 26.1 53.8 26.25 53.55 26.45 L52.75 27.25 Q51.8 28.35 51.9 28.75 M71.75 22.2 L72.0 22.55 72.65 22.9 72.85 22.95 74.0 23.2 74.75 23.3 76.4 23.4 76.4 23.6 74.7 23.45 74.15 23.35 72.85 23.1 72.6 23.0 72.0 22.65 71.75 22.25 71.75 22.2 M78.85 23.3 L81.95 22.65 82.5 22.4 Q83.05 22.0 82.5 21.65 L81.55 21.25 78.4 20.85 82.0 21.25 82.45 21.45 82.8 21.6 Q83.8 22.2 82.5 22.8 L82.4 22.8 78.8 23.55 78.85 23.3 M27.6 21.4 Q27.4 20.9 27.7 20.7 L28.55 19.8 Q29.3 19.1 30.1 18.9 31.85 18.3 33.8 19.5 L33.3 19.25 Q32.15 18.7 31.05 18.75 31.9 19.3 32.35 20.25 32.8 21.1 32.5 21.75 L32.45 21.85 31.1 22.6 30.1 22.6 29.15 22.35 Q27.95 21.9 27.55 21.15 L27.6 21.4 M23.8 23.05 L23.6 22.95 Q22.55 22.5 21.55 22.55 22.3 23.0 22.75 23.8 23.05 24.35 22.95 24.8 L22.9 24.95 22.85 25.05 Q22.5 25.6 21.6 25.75 L20.2 25.7 20.15 25.65 19.8 25.55 Q18.7 25.2 18.4 24.55 L18.45 24.75 Q18.25 24.35 18.55 24.2 L19.35 23.45 Q20.0 22.85 20.7 22.7 22.15 22.2 23.8 23.05 M20.45 22.85 Q19.75 23.1 19.4 23.55 L18.75 24.45 19.45 24.95 19.95 25.1 20.4 25.0 20.7 24.8 20.75 24.65 20.75 24.35 Q20.65 23.9 20.9 23.2 L20.9 22.9 20.45 22.85 M38.65 11.9 Q38.5 11.05 37.75 10.1 36.65 8.7 35.1 8.65 36.05 9.45 36.35 11.0 36.5 12.1 36.15 12.85 L35.7 13.45 34.6 13.9 34.3 14.0 34.25 14.0 32.85 13.9 Q31.85 13.75 31.4 13.25 31.25 12.85 31.45 12.45 L32.1 10.75 Q32.75 9.4 33.8 8.95 35.85 8.0 37.4 9.65 38.5 10.8 38.65 11.9 M41.0 15.85 Q40.25 17.45 40.25 18.1 40.25 19.0 41.4 19.5 42.65 20.0 43.4 18.75 L44.3 16.95 44.4 15.65 Q44.5 14.4 45.25 11.45 45.7 9.7 44.55 10.2 44.05 10.45 43.4 11.25 42.65 12.15 42.2 13.25 L41.0 15.85 M34.1 9.25 Q33.95 8.95 33.45 9.25 32.55 9.8 32.2 10.9 L31.7 12.7 Q31.8 13.0 32.45 13.1 33.15 13.2 33.45 12.8 L33.9 12.15 33.85 11.65 Q33.8 11.05 34.1 9.8 L34.1 9.25 M30.35 19.2 L29.85 19.1 Q29.05 19.35 28.65 19.95 L28.15 20.5 Q27.9 20.8 27.95 21.0 L28.7 21.6 29.8 21.7 30.2 21.25 30.15 20.9 Q30.1 20.4 30.35 19.55 L30.35 19.2" fill="#eddaa1" fill-rule="evenodd" stroke="none"/>
      <path d="M128.5 14.8 L128.1 14.75 127.2 14.7 126.0 14.8 124.85 15.0 124.25 13.95 124.3 13.9 125.35 13.3 126.3 12.6 Q127.35 11.3 127.2 10.1 127.2 9.35 126.75 8.75 L126.15 7.9 126.55 7.85 Q127.2 7.85 127.85 8.55 L129.05 10.3 Q129.75 11.3 130.25 12.85 130.85 14.8 130.5 15.85 130.2 16.85 128.4 17.15 L128.4 16.95 129.95 16.35 Q131.0 15.75 129.7 15.1 L128.5 14.8 M131.35 22.9 L131.3 22.65 Q131.65 23.3 132.65 23.75 L132.9 23.85 133.55 24.05 134.85 24.1 Q135.9 23.9 136.25 23.25 L136.35 22.4 136.1 21.75 Q135.65 20.8 134.8 20.25 135.9 20.2 137.05 20.75 L137.55 21.0 138.4 21.55 139.0 22.15 Q139.25 22.55 138.6 23.2 L137.9 23.75 137.05 24.1 136.2 24.3 Q134.75 24.6 133.55 24.3 L133.0 24.15 132.35 23.9 Q131.45 23.5 131.35 22.9 M126.4 17.25 L125.6 17.2 125.65 17.55 126.1 19.95 Q126.25 21.4 125.55 22.05 124.55 23.0 120.6 22.8 L120.55 22.8 118.95 22.65 118.55 22.6 Q116.95 22.2 116.8 20.35 L116.75 19.6 Q117.2 21.25 118.8 21.7 L120.6 21.75 120.65 21.7 121.35 21.5 121.9 21.2 122.25 20.9 123.05 19.4 Q123.45 18.05 123.3 16.25 L123.2 15.45 123.2 15.35 122.9 13.95 Q122.55 12.7 121.9 11.8 L122.0 11.85 123.25 12.65 123.4 12.75 123.6 13.0 124.0 13.55 124.1 13.7 124.25 13.95 124.5 14.4 124.8 15.0 125.15 15.75 125.2 15.85 125.25 16.0 125.25 16.05 125.3 16.2 125.5 16.75 125.55 16.95 126.4 17.05 126.4 17.25 M115.4 8.2 L113.5 7.8 112.8 7.55 112.2 6.95 Q112.2 6.5 112.5 6.2 L113.45 5.5 114.65 5.1 115.75 4.55 Q117.1 3.5 117.1 2.35 117.1 1.55 116.65 0.95 L115.95 0.05 116.45 0.0 Q117.35 0.0 118.05 0.75 L118.1 0.8 119.4 2.65 Q120.1 3.55 120.45 5.0 L120.5 5.1 119.7 6.2 119.4 6.9 Q118.15 6.3 115.5 6.35 L115.35 6.35 Q112.9 6.4 112.75 6.9 L112.75 6.95 Q112.75 7.45 114.25 7.85 L115.4 8.1 115.4 8.2 M124.4 8.0 L124.3 8.6 124.15 10.0 Q123.95 10.7 123.3 10.9 L121.95 10.95 120.6 10.65 119.5 10.3 Q118.8 10.1 118.6 9.5 L118.55 8.85 Q118.7 9.6 119.5 9.95 L120.6 10.15 120.65 10.15 120.8 10.15 Q121.45 10.1 121.95 9.55 L122.4 8.9 122.85 7.05 Q123.05 5.25 122.45 4.2 123.65 4.45 124.15 6.2 L124.4 8.0 M86.55 9.6 L86.7 9.8 86.8 9.95 86.9 10.05 87.05 10.35 87.65 11.3 87.8 11.2 89.25 10.55 90.5 9.7 Q91.9 8.1 91.85 6.6 91.85 5.6 91.4 4.85 L90.7 3.7 91.1 3.65 Q92.05 3.65 92.85 4.7 L94.2 7.05 Q95.0 8.35 95.5 10.35 96.1 12.85 95.55 14.2 95.0 15.5 92.3 15.65 L92.3 15.45 94.8 14.85 Q96.2 14.1 94.6 13.15 93.75 12.65 92.35 12.55 L89.9 12.45 88.2 12.65 88.35 12.95 88.35 13.0 88.55 13.6 88.6 13.75 88.65 13.9 88.65 13.95 88.7 14.05 88.9 14.85 89.0 15.1 90.4 15.4 90.4 15.5 90.4 15.65 89.05 15.45 89.35 16.75 Q89.65 18.4 88.75 19.2 87.7 20.2 84.4 20.3 L83.75 20.3 83.7 21.4 83.45 22.05 83.35 22.15 82.5 22.95 Q81.3 23.55 78.85 23.75 L78.8 23.75 78.8 23.55 82.4 22.8 82.5 22.8 Q83.8 22.2 82.8 21.6 L82.45 21.45 82.0 21.25 78.4 20.85 77.0 20.85 75.65 20.95 72.8 21.4 72.6 21.5 72.05 21.75 71.75 22.15 71.75 22.2 71.75 22.25 72.0 22.65 72.6 23.0 72.85 23.1 74.15 23.35 74.7 23.45 76.4 23.6 76.4 23.65 76.4 23.85 74.6 23.7 72.95 23.45 72.85 23.45 72.6 23.4 72.5 23.35 72.1 23.2 71.8 23.05 70.9 22.3 Q70.8 21.65 71.25 21.1 L72.05 20.3 72.6 19.95 72.8 19.9 74.4 19.15 76.05 18.15 77.5 16.25 77.8 15.05 77.75 14.6 Q77.65 13.4 76.9 12.55 L75.7 11.25 76.45 11.1 75.65 11.25 Q74.4 11.7 73.2 13.45 L70.4 13.75 70.3 13.75 68.15 13.8 68.1 13.8 67.95 13.8 68.85 15.95 Q69.3 17.3 68.4 18.05 67.4 18.9 63.9 19.3 L62.15 19.45 62.05 19.45 59.5 19.55 58.55 19.5 58.1 19.4 Q57.45 19.2 57.0 18.75 56.3 18.05 56.2 16.95 57.0 18.45 59.2 18.65 L61.85 18.4 61.9 18.4 62.65 18.1 64.0 17.15 64.3 16.75 64.65 15.85 Q65.15 14.25 64.4 12.05 63.7 9.85 62.2 8.75 64.1 8.85 66.0 10.85 L67.75 13.3 67.4 12.6 67.85 12.7 70.25 12.45 70.4 12.4 70.85 12.15 71.1 12.0 71.2 11.95 Q72.25 11.1 72.6 9.4 72.95 7.4 72.25 4.65 71.55 1.95 70.2 0.5 L70.9 0.7 Q72.25 1.2 73.6 3.2 74.95 5.15 75.4 6.8 L76.3 9.65 76.45 11.1 77.75 11.25 Q78.4 11.45 79.05 12.05 L79.1 12.1 79.2 12.2 80.05 13.15 81.25 14.65 81.3 14.75 81.7 15.2 Q82.65 16.4 83.3 18.25 L83.45 18.75 84.05 18.4 84.6 17.9 85.45 16.25 Q86.05 14.35 85.5 11.6 84.95 8.85 83.65 7.45 85.1 7.7 86.55 9.6 M96.65 16.05 L96.85 16.1 97.45 16.35 97.55 16.4 99.1 17.85 99.5 18.45 Q100.55 20.1 100.85 21.5 L101.45 23.9 Q101.7 25.25 100.95 25.95 100.15 26.65 97.75 26.8 L95.5 26.8 95.4 26.8 93.85 26.7 Q91.7 26.55 91.45 24.5 L91.4 24.15 91.4 23.85 91.5 24.1 91.7 24.45 91.7 24.5 Q92.35 25.55 93.7 25.8 L95.35 25.85 95.4 25.85 96.4 25.55 97.65 24.6 98.05 23.85 98.15 23.45 Q98.65 21.85 98.2 19.55 97.75 17.35 96.65 16.05 M104.45 9.55 Q104.95 10.1 106.05 10.1 L107.8 9.85 108.05 9.75 Q108.95 9.4 109.2 8.55 L109.3 7.85 109.1 6.75 Q108.7 5.25 107.55 4.6 109.1 4.4 110.4 5.7 111.35 6.65 111.55 7.55 L111.85 8.7 Q111.9 9.35 111.2 9.7 L109.45 10.15 108.1 10.3 106.2 10.45 105.25 10.3 Q104.65 10.1 104.45 9.55 M110.65 13.2 L111.55 14.25 111.65 14.4 111.65 14.45 111.85 14.75 Q112.6 16.15 112.7 17.2 L113.0 19.05 Q113.1 20.1 112.4 20.55 111.6 21.05 109.7 20.95 L108.3 20.8 106.35 20.45 Q105.25 20.25 104.8 19.55 L104.55 18.9 104.55 18.05 Q104.85 19.3 106.3 19.75 L108.25 19.9 108.3 19.9 108.6 19.8 109.45 19.45 110.05 18.85 110.3 18.4 110.6 17.4 110.7 16.25 110.65 15.45 Q110.45 13.65 109.65 12.65 L110.65 13.2 M110.3 28.5 L110.5 28.65 110.45 29.3 110.1 29.7 Q109.45 30.45 107.85 30.8 L107.7 30.8 Q106.2 31.1 104.9 30.8 L104.5 30.65 104.3 30.6 Q103.0 30.1 102.85 29.4 L102.8 29.15 Q103.2 29.9 104.4 30.35 L104.6 30.4 104.85 30.5 106.35 30.6 Q107.4 30.4 107.75 29.75 L107.85 29.4 107.85 29.0 107.6 28.25 Q107.15 27.3 106.3 26.75 107.3 26.7 108.35 27.15 L108.55 27.25 109.05 27.5 109.1 27.5 109.5 27.75 109.7 27.9 109.9 28.05 110.3 28.5 M117.85 8.2 L118.75 8.1 118.7 8.3 117.85 8.35 117.85 8.2 M52.95 2.9 Q53.7 2.85 54.4 3.5 L55.15 4.35 55.65 5.1 55.7 5.15 Q56.45 5.95 56.9 7.25 57.45 8.85 56.95 9.65 56.45 10.45 54.2 10.65 L54.0 10.7 54.0 10.55 56.35 10.1 Q57.5 9.6 56.1 9.15 L55.1 8.95 54.8 8.9 53.05 8.9 52.25 8.95 Q49.85 9.2 49.9 9.65 L49.9 9.7 49.9 9.75 Q49.95 10.2 51.35 10.4 L52.45 10.55 53.75 10.55 53.75 10.7 52.95 10.7 52.45 10.7 50.6 10.45 49.6 10.0 49.35 9.75 Q49.3 9.45 49.55 9.0 L50.4 8.3 51.5 7.85 52.5 7.25 Q53.6 6.15 53.55 5.05 L53.05 3.8 52.3 3.0 52.95 2.9 M47.65 10.2 L48.5 11.1 49.3 12.45 49.5 12.9 49.7 13.35 50.5 15.65 50.8 17.7 51.15 20.95 Q51.2 22.2 50.85 22.95 L50.85 23.0 50.25 23.7 50.1 23.8 Q49.45 24.25 48.25 24.4 L48.0 24.4 46.1 24.4 44.55 24.25 44.5 24.25 41.7 23.75 Q40.4 23.5 39.8 22.6 L39.55 22.2 Q39.15 21.3 39.2 20.15 L39.25 19.55 Q39.65 21.8 41.65 22.5 L44.5 22.65 44.6 22.6 44.9 22.5 45.55 22.2 46.0 21.9 Q46.8 21.2 47.3 19.9 48.15 17.8 47.95 14.65 47.85 11.65 46.7 9.7 L47.65 10.2 M47.35 25.65 L47.3 25.4 Q47.7 26.15 48.9 26.6 L50.85 26.85 Q51.7 26.7 52.1 26.25 L52.2 26.1 52.25 26.0 Q52.55 25.35 52.1 24.5 51.65 23.55 50.85 23.0 51.9 22.95 53.05 23.5 L53.55 23.75 54.4 24.3 55.0 24.9 Q55.2 25.25 54.75 25.8 L54.55 25.85 Q53.95 26.0 53.4 26.4 L52.8 26.95 52.2 27.05 52.05 27.1 49.0 26.9 48.8 26.85 Q47.5 26.35 47.35 25.65 M61.05 28.8 L60.5 29.75 Q59.65 30.85 57.55 31.3 L57.5 31.35 54.35 31.3 53.55 31.0 Q52.5 30.65 51.85 29.95 51.4 29.45 51.35 28.95 51.85 30.0 53.4 30.65 L54.3 30.95 Q55.15 31.15 55.85 30.95 57.0 30.75 57.45 30.0 L57.55 29.8 Q57.85 29.05 57.55 28.2 L57.35 27.75 Q56.85 26.65 55.75 25.65 57.1 25.6 58.55 26.35 L58.9 26.5 60.2 27.5 60.95 28.35 61.05 28.8 M27.6 21.4 L27.55 21.15 Q27.95 21.9 29.15 22.35 L30.1 22.6 31.1 22.6 32.45 21.85 32.5 21.75 Q32.8 21.1 32.35 20.25 31.9 19.3 31.05 18.75 32.15 18.7 33.3 19.25 L33.8 19.5 34.65 20.05 35.25 20.65 Q35.5 21.05 34.85 21.7 L33.65 22.5 32.45 22.8 30.15 22.9 29.25 22.65 Q27.75 22.15 27.6 21.4 M18.45 24.75 L18.4 24.55 Q18.7 25.2 19.8 25.55 L20.15 25.65 20.2 25.7 21.6 25.75 Q22.5 25.6 22.85 25.05 L22.9 24.95 22.95 24.8 Q23.05 24.35 22.75 23.8 22.3 23.0 21.55 22.55 22.55 22.5 23.6 22.95 L23.8 23.05 24.75 23.6 25.3 24.1 Q25.5 24.45 24.95 25.0 L24.6 25.3 23.4 25.8 22.8 25.95 Q21.5 26.2 20.4 25.95 L19.9 25.8 Q18.6 25.45 18.45 24.75 M38.65 11.9 L38.65 12.1 38.8 13.3 Q38.75 13.95 38.0 14.25 L35.7 14.45 34.3 14.35 32.95 14.25 32.5 14.2 32.35 14.15 Q31.5 13.85 31.35 13.15 L31.4 13.25 Q31.85 13.75 32.85 13.9 L34.25 14.0 34.3 14.0 34.6 13.9 35.7 13.45 36.15 12.85 Q36.5 12.1 36.35 11.0 36.05 9.45 35.1 8.65 36.65 8.7 37.75 10.1 38.5 11.05 38.65 11.9" fill="#cdbc8b" fill-rule="evenodd" stroke="none"/>
      <path d="M128.5 14.8 L129.45 15.05 Q130.7 15.65 129.7 16.25 L128.4 16.7 128.4 16.3 128.9 16.35 128.4 16.2 128.4 15.95 Q129.2 15.85 129.4 15.6 L128.15 15.7 127.95 15.55 128.65 15.05 127.7 15.4 127.65 15.4 127.45 15.4 127.4 14.9 127.2 15.3 127.15 15.4 126.65 15.5 126.6 15.5 126.4 15.55 126.4 15.6 126.35 15.6 126.35 15.65 125.7 15.6 126.35 15.75 125.15 15.75 124.85 15.0 126.0 14.8 127.2 14.7 128.1 14.75 128.5 14.8 M92.25 14.55 L93.45 14.75 92.2 14.15 93.2 14.2 Q93.85 14.15 94.15 13.8 L93.1 13.85 92.0 13.75 93.3 13.05 92.5 13.25 91.7 13.45 91.65 12.7 91.4 13.25 90.85 13.5 Q89.85 13.7 88.5 13.05 L90.35 13.7 88.75 13.65 88.55 13.6 88.35 13.0 88.35 12.95 88.2 12.65 89.9 12.45 92.35 12.55 Q93.55 12.65 94.3 13.1 95.85 14.0 94.5 14.65 L92.3 15.15 92.3 14.6 92.25 14.55 M88.6 13.75 L88.8 13.8 89.6 13.75 90.35 13.75 88.65 13.9 88.6 13.75 M88.7 14.05 L90.55 14.1 89.55 14.55 90.35 14.55 90.35 14.8 90.4 14.8 90.4 15.15 88.9 14.85 88.7 14.05 M125.3 16.2 L125.3 16.05 126.35 16.05 126.35 16.15 126.4 16.15 125.8 16.45 126.4 16.4 126.4 16.75 126.4 16.85 125.5 16.75 125.3 16.2 M125.25 16.0 L125.2 15.85 126.35 15.8 126.35 15.85 125.25 16.0 M115.5 6.35 Q118.0 6.35 119.15 6.85 L119.35 6.95 118.9 7.9 117.85 8.0 117.85 7.75 118.35 7.8 117.85 7.7 117.85 7.65 117.65 7.45 118.15 7.5 119.0 7.3 117.25 7.25 117.2 7.2 118.25 6.8 116.85 7.0 116.8 6.55 116.6 6.85 116.15 7.0 113.95 6.6 115.85 7.15 115.8 7.15 115.7 7.15 115.65 7.2 115.55 7.2 115.45 7.25 113.65 7.15 115.35 7.35 115.35 7.5 115.0 7.6 115.35 7.65 115.4 7.95 114.2 7.7 Q112.85 7.35 112.75 6.95 L112.75 6.9 Q112.9 6.4 115.35 6.35 L115.5 6.35 M114.35 7.05 L112.95 6.8 114.4 7.15 115.7 7.15 114.35 7.05 M49.9 9.7 L49.9 9.65 Q49.85 9.2 52.25 8.95 L53.05 8.9 54.8 8.9 55.1 8.95 55.85 9.1 Q57.2 9.55 56.1 9.95 L54.0 10.4 54.05 10.0 55.2 10.1 54.15 9.8 55.0 9.75 55.75 9.5 54.1 9.6 54.1 9.55 55.0 9.15 54.05 9.35 53.9 9.25 53.8 9.2 53.7 9.15 53.65 9.0 53.6 9.15 53.45 9.1 53.4 9.1 53.0 9.1 52.35 9.2 52.35 9.55 50.95 9.3 52.4 9.65 51.35 9.65 50.05 9.55 51.4 9.75 52.4 9.75 52.4 9.8 50.7 9.85 52.4 9.9 52.4 10.0 52.0 10.15 52.45 10.15 52.45 10.2 52.45 10.45 51.25 10.3 Q49.95 10.1 49.9 9.7 M76.4 23.4 L74.75 23.3 74.0 23.2 72.85 22.95 72.65 22.9 72.0 22.55 71.75 22.2 71.75 22.15 72.05 21.75 72.6 21.5 72.8 21.4 75.65 20.95 77.0 20.85 78.4 20.85 81.55 21.25 82.5 21.65 Q83.05 22.0 82.5 22.4 L81.95 22.65 78.85 23.3 78.85 22.7 80.45 22.85 78.7 22.35 80.1 22.3 81.35 21.9 78.45 22.0 80.15 21.25 78.05 21.8 77.9 21.05 77.6 21.6 76.9 21.85 73.5 21.55 76.25 22.15 74.15 22.15 72.85 22.0 72.65 22.0 72.05 22.0 74.25 22.3 76.25 22.15 73.65 22.45 73.1 22.4 73.65 22.5 76.35 22.45 76.35 22.55 75.25 22.9 76.4 22.85 76.4 23.4" fill="#947e4d" fill-rule="evenodd" stroke="none"/>
      <path d="M134.1 20.7 L134.1 21.05 Q133.85 21.9 133.9 22.4 L133.95 22.75 133.55 23.2 132.45 23.1 Q131.75 22.8 131.7 22.5 131.65 22.3 131.9 22.0 L132.4 21.45 Q132.8 20.85 133.6 20.6 L134.1 20.7 M113.05 3.05 Q113.25 2.55 113.8 1.95 L115.2 0.6 115.3 0.6 Q115.75 0.45 115.4 1.4 L114.7 2.85 113.65 4.1 112.55 4.75 Q112.45 4.4 112.65 3.9 L113.05 3.05 M86.9 10.05 L86.8 9.9 Q86.75 9.4 87.0 8.75 L87.55 7.55 Q87.75 6.95 88.4 6.05 L89.95 4.35 90.05 4.35 Q90.5 4.2 90.15 5.35 L89.35 7.25 88.15 9.0 87.55 9.7 86.9 10.05 M106.7 5.85 L106.75 7.75 106.85 8.2 106.5 8.95 Q106.25 9.35 105.55 9.35 104.9 9.3 104.75 9.05 L104.8 8.25 105.0 7.2 Q105.25 6.05 106.0 5.4 L106.65 5.35 106.7 5.85 M108.65 13.6 L108.55 14.05 108.15 15.95 108.05 16.7 107.45 17.7 Q106.95 18.4 106.05 18.05 105.25 17.75 105.25 17.25 105.2 16.9 105.7 16.0 L106.5 14.55 Q107.2 13.2 108.15 12.9 L108.45 12.85 Q109.0 12.75 108.65 13.6 M95.35 21.55 L94.8 22.95 Q94.45 23.65 93.75 23.7 L93.2 23.65 92.35 23.25 92.15 22.9 92.1 22.7 92.15 22.2 92.35 21.45 92.5 21.0 93.25 19.0 94.05 17.45 94.9 16.6 Q95.85 16.1 95.6 17.45 L95.3 20.6 95.35 21.55 M123.4 12.75 L123.5 12.05 123.9 11.05 124.5 9.85 125.0 9.1 125.6 8.4 125.7 8.4 Q126.0 8.3 125.8 9.25 L125.3 10.75 124.45 12.2 123.6 13.0 123.4 12.75 M103.2 29.0 Q103.15 28.8 103.4 28.5 L103.9 27.95 Q104.3 27.35 105.1 27.1 L105.6 27.2 105.6 27.55 Q105.35 28.4 105.4 28.9 L105.45 29.25 105.05 29.7 103.95 29.6 103.2 29.0 M121.45 5.35 Q120.85 6.8 120.8 7.5 L120.7 8.05 120.25 8.75 Q119.9 9.15 119.4 8.95 118.9 8.7 118.9 8.35 L119.75 6.4 Q120.35 5.1 121.1 4.7 121.7 4.35 121.45 5.35 M120.3 12.35 L120.5 12.25 Q121.05 12.05 120.9 13.2 L120.5 16.4 120.5 17.4 120.45 17.65 120.3 18.1 120.25 18.15 119.95 18.8 Q119.45 19.8 118.45 19.45 117.6 19.2 117.5 18.6 L117.45 18.45 117.45 18.3 Q117.45 17.85 117.85 16.95 L117.9 16.75 118.1 16.35 118.65 14.75 Q119.3 12.85 120.3 12.35 M69.15 1.45 L69.2 2.3 69.1 4.0 69.15 6.15 69.3 7.35 68.8 9.1 Q68.35 10.3 67.1 10.05 66.0 9.85 65.8 9.05 65.7 8.5 66.1 6.95 L66.7 4.45 67.45 2.45 Q67.95 1.65 68.35 1.35 68.95 0.9 69.15 1.45 M50.25 5.2 L50.4 4.95 50.95 4.25 51.65 3.55 51.75 3.55 Q52.15 3.4 51.9 4.3 L51.35 5.7 50.5 6.95 Q49.9 7.7 49.5 7.7 49.35 7.35 49.55 6.9 L49.85 6.05 49.9 5.95 50.25 5.2 M60.95 9.55 L61.0 10.2 Q60.7 12.15 60.9 13.35 L61.0 14.3 60.4 15.7 Q59.85 16.7 58.45 16.55 57.2 16.4 57.0 15.75 56.9 15.3 57.35 14.05 L58.15 12.0 Q58.7 10.3 60.05 9.45 60.75 9.1 60.95 9.55 M48.25 24.4 Q49.45 24.25 50.1 23.8 49.85 24.65 49.9 25.15 L49.95 25.5 49.55 25.95 48.45 25.85 Q47.75 25.55 47.7 25.25 47.65 25.05 47.9 24.75 L48.25 24.4 M51.9 28.75 Q51.8 28.35 52.75 27.25 L53.55 26.45 Q53.8 26.25 54.2 26.1 54.7 25.9 54.85 26.25 L54.85 26.75 54.8 27.05 Q54.55 28.1 54.6 28.65 L54.7 29.1 54.2 29.7 52.85 29.6 Q51.95 29.1 51.9 28.75 M80.05 13.15 L79.25 12.2 79.65 11.0 Q80.4 8.9 81.65 8.1 82.65 7.55 82.45 9.1 82.05 11.9 82.1 12.85 L82.15 14.0 81.7 15.2 81.3 14.75 81.25 14.65 80.05 13.15 M72.2 15.2 L72.65 14.45 72.85 14.2 73.4 13.4 73.5 13.25 Q74.0 12.55 74.65 12.15 L74.8 12.15 Q75.3 11.95 75.2 12.8 L75.1 13.35 74.2 15.65 72.75 17.75 72.75 17.8 72.45 18.1 72.1 18.5 72.0 18.6 71.1 18.9 Q70.9 18.4 71.2 17.6 L71.6 16.6 71.7 16.25 71.75 16.05 71.85 15.9 72.2 15.2 M20.45 22.85 L20.9 22.9 20.9 23.2 Q20.65 23.9 20.75 24.35 L20.75 24.65 20.7 24.8 20.4 25.0 19.95 25.1 19.45 24.95 18.75 24.45 19.4 23.55 Q19.75 23.1 20.45 22.85 M41.0 15.85 L42.2 13.25 Q42.65 12.15 43.4 11.25 44.05 10.45 44.55 10.2 45.7 9.7 45.25 11.45 44.5 14.4 44.4 15.65 L44.3 16.95 43.4 18.75 Q42.65 20.0 41.4 19.5 40.25 19.0 40.25 18.1 40.25 17.45 41.0 15.85 M34.1 9.25 L34.1 9.8 Q33.8 11.05 33.85 11.65 L33.9 12.15 33.45 12.8 Q33.15 13.2 32.45 13.1 31.8 13.0 31.7 12.7 L32.2 10.9 Q32.55 9.8 33.45 9.25 33.95 8.95 34.1 9.25 M30.35 19.2 L30.35 19.55 Q30.1 20.4 30.15 20.9 L30.2 21.25 29.8 21.7 28.7 21.6 27.95 21.0 Q27.9 20.8 28.15 20.5 L28.65 19.95 Q29.05 19.35 29.85 19.1 L30.35 19.2" fill="#efe0b6" fill-rule="evenodd" stroke="none"/>
      <path d="M132.35 23.9 L133.0 24.15 133.55 24.3 Q133.6 24.85 134.05 25.1 L135.6 25.15 Q136.75 24.8 137.05 24.1 L137.9 23.75 138.6 23.8 Q138.85 25.5 135.7 25.7 L131.4 25.25 Q131.4 24.45 132.25 23.95 L132.35 23.9" fill="url(#gradient1)" fill-rule="evenodd" stroke="none"/>
      <path d="M133.55 24.3 Q134.75 24.6 136.2 24.3 L137.05 24.1 Q136.75 24.8 135.6 25.15 L134.05 25.1 Q133.6 24.85 133.55 24.3 M104.9 30.8 Q106.2 31.1 107.7 30.8 L107.85 30.8 107.6 32.25 Q106.6 32.5 105.75 31.9 105.1 31.45 104.9 30.8 M48.8 26.85 L49.0 26.9 52.05 27.1 Q51.75 28.7 50.1 28.45 48.8 28.3 48.7 27.6 L48.8 26.85 M57.5 31.35 L57.35 31.85 Q57.0 32.65 55.85 32.55 54.95 32.45 54.55 31.8 L54.35 31.3 57.5 31.35 M33.65 22.5 L33.65 22.55 33.6 23.4 Q33.35 24.4 32.35 24.55 31.5 24.7 30.8 24.0 L30.3 23.25 30.15 22.9 32.45 22.8 33.65 22.5 M20.4 25.95 Q21.5 26.2 22.8 25.95 L23.4 25.8 Q22.95 26.8 21.8 26.7 20.9 26.6 20.4 25.95" fill="#ac9c73" fill-rule="evenodd" stroke="none"/>
      <path d="M128.45 24.4 L129.05 24.4 129.1 24.65 129.55 25.0 130.0 25.3 129.65 26.2 Q129.3 26.7 128.25 26.6 L127.7 26.5 127.75 26.45 128.45 26.2 128.45 24.4" fill="url(#gradient2)" fill-rule="evenodd" stroke="none"/>
      <path d="M126.4 15.6 L126.4 15.55 126.6 15.5 126.4 15.6 M128.4 15.95 L128.4 16.2 128.4 16.3 128.4 16.7 128.4 16.95 128.4 17.15 128.45 24.4 128.45 26.2 127.75 26.45 Q127.25 26.55 126.65 25.95 L127.2 26.15 127.75 26.0 Q128.15 25.7 128.25 24.85 L128.25 23.35 128.2 21.05 128.0 19.0 128.0 17.8 127.6 17.55 126.8 17.3 126.4 16.9 126.4 16.85 126.4 16.75 126.4 16.15 126.85 16.25 126.9 16.25 127.15 16.2 127.15 16.15 127.35 16.15 127.4 16.2 127.65 16.5 128.05 16.7 128.1 16.75 128.15 16.95 128.15 17.15 128.15 17.2 128.3 17.65 128.4 15.95 M120.3 30.7 L120.4 30.8 120.25 30.65 120.3 30.7 M116.05 18.15 L115.9 18.05 115.75 17.95 115.8 18.0 116.4 18.15 117.05 18.0 117.2 17.9 117.15 17.95 116.95 18.45 116.9 18.45 116.05 18.15 M121.95 10.95 L121.85 11.8 121.0 11.85 120.75 11.7 120.55 11.45 120.5 11.4 120.55 11.2 120.6 10.65 121.95 10.95 M92.3 15.65 L92.35 20.85 92.15 21.35 91.9 16.35 Q91.8 16.1 91.5 16.1 L90.75 15.85 90.4 15.5 90.4 15.4 90.4 15.15 90.4 14.8 90.85 14.9 91.0 14.85 91.1 14.75 91.25 14.75 91.3 14.75 91.6 15.1 91.65 15.15 91.95 15.3 92.0 15.45 92.05 15.65 92.05 15.75 92.2 16.2 92.3 14.6 92.3 15.15 92.3 15.45 92.3 15.65 M97.75 26.8 L97.7 28.3 97.85 32.65 97.85 34.1 97.05 34.3 97.0 34.3 95.9 34.0 95.75 33.9 96.4 34.05 97.05 33.95 Q97.55 33.7 97.65 33.05 L97.6 31.85 97.55 30.05 97.35 28.4 97.3 27.45 96.85 27.25 95.9 27.05 95.5 26.8 97.75 26.8 M84.4 20.3 L84.2 22.4 84.1 26.5 84.1 27.35 84.05 28.35 83.35 28.5 82.75 28.35 82.35 28.05 82.4 28.05 82.85 28.25 83.4 28.15 Q83.8 27.9 83.9 27.25 L83.95 26.0 84.0 24.2 83.9 21.55 83.7 21.4 83.75 20.3 84.4 20.3 M78.75 24.35 L78.7 25.6 78.85 31.35 78.85 33.2 78.05 33.4 77.9 33.45 77.05 33.15 77.0 33.15 76.75 32.95 76.8 33.0 77.4 33.15 77.45 33.15 78.05 33.0 Q78.55 32.65 78.65 31.8 L78.65 31.35 78.6 30.25 78.55 27.9 78.35 25.8 78.3 24.55 Q78.2 24.3 77.85 24.3 L76.9 24.0 76.4 23.65 76.4 23.6 76.4 23.4 76.4 22.9 77.0 22.95 77.25 22.9 77.3 22.85 77.55 22.85 77.65 22.9 77.95 23.2 78.25 23.35 78.4 23.4 78.5 23.55 78.55 23.8 78.5 23.9 78.75 24.35 M63.9 19.3 L64.05 20.85 64.75 25.8 64.95 27.4 64.3 27.7 63.25 27.45 63.75 27.5 64.25 27.35 Q64.65 27.0 64.6 26.2 L64.45 24.85 64.15 22.85 63.75 21.0 63.6 19.95 Q63.55 19.75 63.2 19.75 L62.4 19.6 62.15 19.45 63.9 19.3 M109.45 10.15 L109.55 11.9 109.65 12.65 109.45 12.6 109.35 12.05 109.25 11.15 Q109.2 11.0 108.95 11.0 L108.4 10.85 108.2 10.65 108.15 10.6 108.1 10.4 108.1 10.3 109.45 10.15 M109.7 20.95 L109.6 22.9 109.7 26.95 109.7 27.9 109.5 27.75 109.55 27.25 109.55 26.15 109.4 22.15 109.1 21.95 108.6 21.75 108.35 21.5 108.3 21.35 108.3 21.3 108.3 20.8 109.7 20.95 M91.4 24.15 L91.45 24.5 Q91.1 24.45 90.7 24.05 L91.15 24.2 91.4 24.15 M117.85 16.35 L117.65 16.8 117.6 15.25 117.55 12.9 117.35 10.8 117.3 9.55 Q117.2 9.3 116.85 9.3 L115.9 9.0 115.4 8.65 115.4 7.9 116.0 7.95 116.3 7.85 116.55 7.85 116.8 8.0 116.95 8.2 117.25 8.35 117.4 8.4 117.5 8.9 117.75 9.35 117.7 10.6 117.85 16.35 M115.55 7.2 L115.65 7.2 115.55 7.25 115.4 7.3 115.4 7.25 115.45 7.25 115.55 7.2 M53.75 10.7 L53.75 10.55 53.55 10.4 53.4 10.4 52.75 10.2 52.4 10.0 52.4 9.9 52.4 9.8 52.4 9.75 52.4 9.65 52.4 9.55 52.8 9.6 53.0 9.55 53.2 9.5 53.45 9.75 53.75 9.85 53.85 10.15 54.0 10.45 54.0 10.55 54.0 10.7 54.0 11.2 54.1 14.55 54.1 15.7 53.55 15.8 53.05 15.75 52.75 15.6 52.6 15.5 53.05 15.65 53.55 15.55 53.95 14.85 53.95 13.9 53.75 10.7 M53.9 9.25 L54.05 9.35 54.1 9.4 53.9 9.25 M44.55 24.25 L46.1 24.4 45.75 31.4 45.65 32.95 45.1 33.1 44.55 33.0 44.3 32.65 44.7 32.85 45.1 32.75 45.55 31.8 45.6 30.5 45.65 28.55 45.6 26.8 45.65 25.75 45.35 25.5 44.75 25.25 44.45 24.95 44.55 24.25 M72.2 15.2 L71.85 15.9 70.9 15.65 70.4 15.3 70.4 13.75 73.2 13.45 72.2 15.2 M72.5 23.35 L72.6 23.4 72.85 23.45 72.85 24.05 72.05 24.25 Q71.45 24.35 70.75 23.8 L71.4 24.0 72.05 23.85 72.5 23.35 M76.4 22.3 L76.4 22.25 76.65 22.2 76.4 22.3 M34.3 14.35 L35.7 14.45 35.6 15.85 35.7 18.8 35.7 19.85 35.25 19.95 Q34.9 20.05 34.5 19.7 L34.85 19.8 35.25 19.75 35.55 19.1 35.55 18.25 35.55 17.05 35.4 15.95 35.4 15.3 Q35.35 15.15 35.1 15.15 L34.6 15.0 34.35 14.8 34.3 14.7 34.3 14.65 34.3 14.35" fill="#7d7254" fill-rule="evenodd" stroke="none"/>
      <path d="M127.45 26.5 L126.65 25.95 126.55 25.85 126.5 25.75 Q126.95 25.4 127.25 25.5 L127.65 25.0 127.75 23.1 127.6 18.85 Q127.55 18.1 126.45 17.85 L126.4 17.25 126.4 17.05 126.4 16.9 126.8 17.3 127.6 17.55 128.0 17.8 128.0 19.0 128.2 21.05 128.25 23.35 128.25 24.85 Q128.15 25.7 127.75 26.0 L127.2 26.15 126.65 25.95 Q127.25 26.55 127.75 26.45 L127.45 26.5 M120.6 22.8 L120.55 23.6 120.85 23.9 121.55 24.2 Q121.8 24.2 121.9 24.4 L121.85 25.35 121.9 26.95 121.85 28.75 121.75 29.95 Q121.65 30.6 121.25 30.8 L120.75 30.85 120.3 30.7 120.15 30.5 120.8 30.35 121.2 30.0 121.4 28.55 Q121.65 26.4 121.5 25.2 121.5 24.55 120.55 24.35 L120.5 24.35 120.55 22.8 120.6 22.8 M116.9 18.45 L116.65 18.45 Q116.35 18.4 116.05 18.15 L116.9 18.45 M115.8 18.0 L115.5 17.7 Q116.1 17.4 116.45 17.45 L116.95 16.95 117.05 15.0 Q117.05 11.7 116.85 10.6 116.75 9.85 115.5 9.6 L115.45 9.6 115.4 8.65 115.4 8.2 115.4 8.1 115.4 7.95 115.35 7.65 115.35 7.5 115.35 7.35 115.4 7.5 115.4 7.65 115.4 7.9 115.4 8.65 115.9 9.0 116.85 9.3 Q117.2 9.3 117.3 9.55 L117.35 10.8 117.55 12.9 117.6 15.25 117.65 16.8 117.2 17.9 117.05 18.0 116.4 18.15 115.8 18.0 M95.9 34.0 L95.5 33.75 95.55 33.75 96.45 33.5 96.95 33.15 97.05 31.65 Q97.05 29.1 96.85 28.3 96.75 27.6 95.5 27.5 L95.45 27.5 95.4 26.8 95.5 26.8 95.9 27.05 96.85 27.25 97.3 27.45 97.35 28.4 97.55 30.05 97.6 31.85 97.65 33.05 Q97.55 33.7 97.05 33.95 L96.4 34.05 95.75 33.9 95.9 34.0 M90.45 16.0 L90.4 15.65 90.4 15.5 90.75 15.85 91.5 16.1 Q91.8 16.1 91.9 16.35 L92.15 21.35 91.75 22.2 91.65 22.45 91.7 21.3 91.55 17.3 Q91.4 16.5 90.45 16.4 L90.45 16.0 M82.4 28.05 L82.2 27.85 82.95 27.7 83.35 27.3 83.5 25.8 83.55 22.35 83.45 22.05 83.7 21.4 83.9 21.55 84.0 24.2 83.95 26.0 83.9 27.25 Q83.8 27.9 83.4 28.15 L82.85 28.25 82.4 28.05 M76.8 33.0 L76.5 32.7 76.75 32.6 77.45 32.45 77.95 31.95 78.05 30.0 77.85 25.6 Q77.75 24.85 76.5 24.6 L76.45 24.6 76.4 23.85 76.4 23.65 76.9 24.0 77.85 24.3 Q78.2 24.3 78.3 24.55 L78.35 25.8 78.55 27.9 78.6 30.25 78.65 31.35 78.65 31.8 Q78.55 32.65 78.05 33.0 L77.45 33.15 77.4 33.15 76.8 33.0 M70.85 23.9 L70.5 23.6 Q71.1 23.3 71.45 23.35 L71.8 23.05 72.1 23.2 72.5 23.35 72.05 23.85 71.4 24.0 70.75 23.8 Q71.45 24.35 72.05 24.25 L70.85 23.9 M70.5 16.2 L70.45 16.2 70.4 15.3 70.3 13.75 70.4 13.75 70.4 15.3 70.9 15.65 71.85 15.9 71.75 16.05 71.55 16.55 70.5 16.2 M64.25 27.75 Q63.85 27.85 63.35 27.5 L63.25 27.45 63.2 27.4 63.0 27.2 Q63.4 26.9 63.7 26.9 L64.05 26.4 63.95 24.7 63.35 20.9 Q63.2 20.25 62.15 20.15 L62.05 19.5 62.05 19.45 62.15 19.45 62.4 19.6 63.2 19.75 Q63.55 19.75 63.6 19.95 L63.75 21.0 64.15 22.85 64.45 24.85 64.6 26.2 Q64.65 27.0 64.25 27.35 L63.75 27.5 63.25 27.45 64.3 27.7 64.25 27.75 M108.35 22.2 L108.3 21.35 108.35 21.5 108.6 21.75 109.1 21.95 109.4 22.15 109.55 26.15 109.55 27.25 109.5 27.75 109.1 27.5 109.2 27.4 109.25 26.0 109.15 22.9 Q109.1 22.3 108.35 22.2 M108.3 21.3 L108.3 20.8 108.3 21.3 M108.25 11.3 L108.2 10.85 108.2 10.65 108.4 10.85 108.95 11.0 Q109.2 11.0 109.25 11.15 L109.35 12.05 109.45 12.6 109.2 12.6 109.1 11.95 Q109.0 11.45 108.25 11.3 M90.4 14.8 L90.4 15.15 90.4 14.8 M91.4 23.35 L91.4 24.15 91.15 24.2 90.7 24.05 90.65 24.0 90.5 23.8 Q90.9 23.5 91.2 23.55 L91.4 23.35 M120.55 11.45 L120.75 11.7 121.0 11.85 120.65 11.95 120.5 12.05 120.55 11.45 M126.4 16.4 L126.4 16.15 126.4 16.75 126.4 16.4 M120.55 11.2 L120.6 10.65 120.55 11.2 M52.95 10.7 L53.75 10.7 53.95 13.9 53.95 14.85 53.55 15.55 53.05 15.65 52.6 15.5 52.75 15.6 52.45 15.4 52.5 15.4 53.1 15.25 53.45 14.95 53.55 13.8 53.4 11.2 52.95 10.7 M53.75 10.55 L52.45 10.55 52.45 10.45 52.45 10.2 52.45 10.15 52.4 10.0 52.75 10.2 53.4 10.4 53.55 10.4 53.75 10.55 M44.5 24.25 L44.55 24.25 44.45 24.95 44.75 25.25 45.35 25.5 45.65 25.75 45.6 26.8 45.65 28.55 45.6 30.5 45.55 31.8 45.1 32.75 44.7 32.85 44.3 32.65 44.55 33.0 44.35 32.8 44.15 32.5 44.75 32.3 45.1 31.9 45.25 30.3 45.3 26.65 Q45.3 25.85 44.5 25.75 L44.45 25.75 44.45 24.95 44.5 24.25 M76.4 23.4 L76.4 22.85 76.4 22.9 76.4 23.4 M76.35 22.55 L76.35 22.45 76.35 22.3 76.4 22.45 76.4 22.55 76.4 22.85 76.35 22.55 M34.5 19.7 L34.4 19.6 34.9 19.45 35.2 19.15 35.25 18.15 35.15 15.85 Q35.1 15.4 34.35 15.3 L34.3 14.7 34.35 14.8 34.6 15.0 35.1 15.15 Q35.35 15.15 35.4 15.3 L35.4 15.95 35.55 17.05 35.55 18.25 35.55 19.1 35.25 19.75 34.85 19.8 34.5 19.7 M34.3 14.65 L34.3 14.35 34.3 14.65" fill="#b2a377" fill-rule="evenodd" stroke="none"/>
      <path d="M127.75 26.45 L127.7 26.5 127.45 26.5 127.75 26.45 M126.55 25.85 L126.35 25.6 126.5 23.05 126.45 17.85 Q127.55 18.1 127.6 18.85 L127.75 23.1 127.65 25.0 127.25 25.5 Q126.95 25.4 126.5 25.75 L126.55 25.85 M120.15 30.5 L120.0 30.35 120.3 28.4 120.55 24.35 Q121.5 24.55 121.5 25.2 121.65 26.4 121.4 28.55 L121.2 30.0 120.8 30.35 120.15 30.5 M115.5 17.7 L115.35 17.55 115.55 14.95 115.5 9.6 Q116.75 9.85 116.85 10.6 117.05 11.7 117.05 15.0 L116.95 16.95 116.45 17.45 Q116.1 17.4 115.5 17.7 M95.55 33.75 L95.35 33.6 95.55 31.6 95.5 27.5 Q96.75 27.6 96.85 28.3 97.05 29.1 97.05 31.65 L96.95 33.15 96.45 33.5 95.55 33.75 M91.45 24.5 L90.75 24.15 90.35 23.65 90.5 21.25 90.45 16.0 90.45 16.4 Q91.4 16.5 91.55 17.3 L91.7 21.3 91.65 22.45 91.4 23.35 91.2 23.55 Q90.9 23.5 90.5 23.8 L90.65 24.0 90.7 24.05 Q91.1 24.45 91.45 24.5 M84.1 26.5 L84.1 26.85 84.1 27.35 84.1 26.5 M82.2 27.85 L82.1 27.75 82.3 25.7 82.5 22.95 83.35 22.15 83.45 22.05 83.55 22.35 83.5 25.8 83.35 27.3 82.95 27.7 82.2 27.85 M76.5 32.7 L76.35 32.55 76.55 29.95 76.5 24.6 Q77.75 24.85 77.85 25.6 L78.05 30.0 77.95 31.95 77.45 32.45 76.75 32.6 76.5 32.7 M71.95 24.3 Q71.45 24.35 70.9 23.95 L70.85 23.9 72.05 24.25 71.95 24.3 M70.5 23.6 L70.35 23.45 70.55 21.55 Q70.8 22.55 71.8 23.05 L71.45 23.35 Q71.1 23.3 70.5 23.6 M70.6 19.0 L70.5 16.2 71.55 16.55 70.7 18.6 70.6 19.0 M63.0 27.2 L62.9 27.1 62.75 24.8 62.05 19.5 62.15 20.15 Q63.2 20.25 63.35 20.9 L63.95 24.7 64.05 26.4 63.7 26.9 Q63.4 26.9 63.0 27.2 M108.35 27.1 L108.4 25.95 108.35 22.2 Q109.1 22.3 109.15 22.9 L109.25 26.0 109.2 27.4 109.1 27.5 109.05 27.5 108.35 27.1 M108.4 12.7 L108.25 11.3 Q109.0 11.45 109.1 11.95 L109.2 12.6 108.5 12.65 108.4 12.7 M52.45 10.7 L52.95 10.7 53.4 11.2 53.55 13.8 53.45 14.95 53.1 15.25 52.5 15.4 52.35 15.3 52.5 13.75 52.45 10.7 M34.4 19.6 L34.3 19.5 34.4 18.1 34.35 15.3 Q35.1 15.4 35.15 15.85 L35.25 18.15 35.2 19.15 34.9 19.45 34.4 19.6 M44.5 25.75 Q45.3 25.85 45.3 26.65 L45.25 30.3 45.1 31.9 44.75 32.3 44.15 32.5 44.05 32.35 44.3 30.2 44.5 25.75" fill="#d4c291" fill-rule="evenodd" stroke="none"/>
      <path d="M125.15 15.75 L126.35 15.75 125.7 15.6 126.35 15.65 126.35 15.75 126.35 15.8 125.2 15.85 125.15 15.75 M127.15 15.4 L127.2 15.3 127.4 14.9 127.45 15.4 127.15 15.4 M127.7 15.4 L128.65 15.05 127.95 15.55 127.7 15.4 M128.15 15.7 L129.4 15.6 Q129.2 15.85 128.4 15.95 L128.4 15.9 128.15 15.7 M128.4 16.2 L128.9 16.35 128.4 16.3 128.4 16.2 M88.55 13.6 L88.75 13.65 90.35 13.7 88.5 13.05 Q89.85 13.7 90.85 13.5 L91.4 13.25 91.65 12.7 91.7 13.45 92.5 13.25 93.3 13.05 92.0 13.75 93.1 13.85 94.15 13.8 Q93.85 14.15 93.2 14.2 L92.2 14.15 93.45 14.75 92.25 14.55 Q91.9 14.15 91.6 14.1 L91.25 14.1 90.95 14.1 90.35 14.25 90.35 14.55 89.55 14.55 90.55 14.1 88.7 14.05 88.65 13.95 88.65 13.9 90.35 13.75 89.6 13.75 88.8 13.8 88.6 13.75 88.55 13.6 M125.3 16.05 L125.25 16.0 126.35 15.85 126.35 16.05 125.3 16.05 M126.4 16.15 L126.4 16.4 125.8 16.45 126.4 16.15 M117.2 7.2 L116.95 7.1 115.85 7.15 113.95 6.6 116.15 7.0 116.6 6.85 116.8 6.55 116.85 7.0 118.25 6.8 117.2 7.2 M115.8 7.15 L115.7 7.2 115.65 7.2 115.7 7.15 115.8 7.15 M115.4 7.3 L115.35 7.3 115.35 7.35 113.65 7.15 115.45 7.25 115.4 7.25 115.4 7.3 M117.65 7.45 L117.25 7.25 119.0 7.3 118.15 7.5 117.65 7.45 M117.85 7.7 L118.35 7.8 117.85 7.75 117.85 7.7 M115.35 7.65 L115.0 7.6 115.35 7.5 115.35 7.65 M114.35 7.05 L115.7 7.15 114.4 7.15 112.95 6.8 114.35 7.05 M53.6 9.15 L53.65 9.0 53.7 9.15 53.6 9.15 M54.05 9.35 L55.0 9.15 54.1 9.55 54.1 9.4 54.05 9.35 M54.1 9.6 L55.75 9.5 55.0 9.75 54.15 9.8 55.2 10.1 54.05 10.0 54.1 9.6 M52.35 9.55 L52.4 9.55 52.4 9.65 50.95 9.3 52.35 9.55 M52.4 9.75 L51.4 9.75 50.05 9.55 51.35 9.65 52.4 9.65 52.4 9.75 M52.4 10.0 L52.45 10.15 52.0 10.15 52.4 10.0 M52.4 9.9 L50.7 9.85 52.4 9.8 52.4 9.9 M76.4 22.85 L75.25 22.9 76.35 22.55 76.4 22.85 M76.35 22.45 L73.65 22.5 73.1 22.4 73.65 22.45 76.25 22.15 74.25 22.3 72.05 22.0 72.65 22.0 72.85 22.0 74.15 22.15 76.25 22.15 73.5 21.55 76.9 21.85 77.6 21.6 77.9 21.05 78.05 21.8 80.15 21.25 78.45 22.0 81.35 21.9 80.1 22.3 78.7 22.35 80.45 22.85 78.85 22.7 78.85 22.65 77.95 22.1 76.65 22.2 76.4 22.25 76.4 22.3 76.35 22.3 76.35 22.45" fill="#6a5c37" fill-rule="evenodd" stroke="none"/>
      <path d="M126.35 15.65 L126.35 15.6 126.4 15.6 126.6 15.5 126.65 15.5 127.15 15.4 127.45 15.4 127.65 15.4 127.7 15.4 127.95 15.55 128.15 15.7 128.4 15.9 128.4 15.95 128.3 17.65 128.15 17.2 128.15 17.15 128.15 16.95 128.1 16.75 128.05 16.7 127.65 16.5 127.4 16.2 127.35 16.15 127.15 16.15 127.15 16.2 126.9 16.25 126.85 16.25 126.4 16.15 126.35 16.15 126.35 16.05 126.35 15.85 126.35 15.8 126.35 15.75 126.35 15.65 M78.8 23.75 L78.75 24.4 78.75 24.35 78.5 23.9 78.55 23.8 78.5 23.55 78.4 23.4 78.25 23.35 77.95 23.2 77.65 22.9 77.55 22.85 77.3 22.85 77.25 22.9 77.0 22.95 76.4 22.9 76.4 22.85 76.4 22.55 76.4 22.45 76.35 22.3 76.4 22.3 76.65 22.2 77.95 22.1 78.85 22.65 78.85 22.7 78.85 23.3 78.8 23.55 78.8 23.75 M90.35 14.55 L90.35 14.25 90.95 14.1 91.25 14.1 91.6 14.1 Q91.9 14.15 92.25 14.55 L92.3 14.6 92.2 16.2 92.05 15.75 92.05 15.65 92.0 15.45 91.95 15.3 91.65 15.15 91.6 15.1 91.3 14.75 91.25 14.75 91.1 14.75 91.0 14.85 90.85 14.9 90.4 14.8 90.35 14.8 90.35 14.55 M117.85 8.0 L117.85 8.2 117.85 8.35 117.75 9.4 117.75 9.35 117.5 8.9 117.4 8.4 117.25 8.35 116.95 8.2 116.8 8.0 116.55 7.85 116.3 7.85 116.0 7.95 115.4 7.9 115.4 7.65 115.4 7.5 115.35 7.35 115.35 7.3 115.4 7.3 115.55 7.25 115.65 7.2 115.55 7.2 115.65 7.2 115.7 7.2 115.8 7.15 115.85 7.15 116.95 7.1 117.2 7.2 117.25 7.25 117.65 7.45 117.85 7.65 117.85 7.7 117.85 7.75 117.85 8.0 M53.6 9.15 L53.7 9.15 53.8 9.2 53.9 9.25 54.1 9.4 54.1 9.55 54.1 9.6 54.05 10.0 54.0 10.4 54.0 10.45 53.85 10.15 53.75 9.85 53.45 9.75 53.2 9.5 53.0 9.55 52.8 9.6 52.4 9.55 52.35 9.55 52.35 9.2 53.0 9.1 53.4 9.1 53.45 9.1 53.6 9.15" fill="#605740" fill-rule="evenodd" stroke="none"/>
      <path d="M116.95 18.45 L116.9 18.45 116.95 18.45" fill="url(#gradient3)" fill-rule="evenodd" stroke="none"/>
      <path d="M109.7 26.95 L110.1 26.95 110.15 27.15 110.45 27.4 110.75 27.6 110.55 28.25 110.3 28.5 109.9 28.05 109.7 27.9 109.7 26.95" fill="url(#gradient4)" fill-rule="evenodd" stroke="none"/>
      <path d="M121.95 29.55 L122.5 29.6 122.5 29.8 122.9 30.1 123.3 30.4 122.95 31.05 121.65 31.25 121.2 31.1 121.85 31.0 121.95 29.55" fill="url(#gradient5)" fill-rule="evenodd" stroke="none"/>
      <path d="M110.45 29.3 Q111.45 29.6 111.65 30.25 111.85 31.0 111.05 31.7 L109.7 32.45 Q107.3 33.15 103.15 32.0 103.3 31.4 103.9 30.85 L104.3 30.6 104.5 30.65 104.9 30.8 Q105.1 31.45 105.75 31.9 106.6 32.5 107.6 32.25 L107.85 30.8 Q109.45 30.45 110.1 29.7 L110.45 29.3" fill="url(#gradient6)" fill-rule="evenodd" stroke="none"/>
      <path d="M97.85 32.65 L98.6 32.65 98.65 32.9 99.2 33.15 99.75 33.4 99.35 34.1 97.6 34.4 97.05 34.3 97.85 34.1 97.85 32.65" fill="url(#gradient7)" fill-rule="evenodd" stroke="none"/>
      <path d="M54.1 14.55 L54.65 14.55 54.65 14.75 55.05 14.95 Q55.3 15.15 55.45 15.15 L55.15 15.7 53.95 15.9 53.55 15.8 54.1 15.7 54.1 14.55" fill="url(#gradient8)" fill-rule="evenodd" stroke="none"/>
      <path d="M52.05 27.1 L52.2 27.05 52.8 26.95 52.65 27.05 51.6 28.35 Q51.3 28.55 51.35 28.95 51.4 29.45 51.85 29.95 52.5 30.65 53.55 31.0 L54.35 31.3 54.55 31.8 Q54.95 32.45 55.85 32.55 57.0 32.65 57.35 31.85 L57.5 31.35 57.55 31.3 Q59.65 30.85 60.5 29.75 L61.05 28.8 Q62.6 29.35 61.4 31.05 60.25 32.75 55.9 32.65 51.5 32.55 51.8 30.3 L49.45 29.95 Q47.7 29.5 47.6 28.8 47.55 28.05 48.35 27.7 L48.7 27.6 Q48.8 28.3 50.1 28.45 51.75 28.7 52.05 27.1" fill="url(#gradient9)" fill-rule="evenodd" stroke="none"/>
      <path d="M64.75 25.8 L65.35 25.75 65.4 25.95 65.9 26.2 66.35 26.45 66.1 27.3 Q65.8 27.75 64.8 27.75 L64.25 27.75 64.3 27.7 64.95 27.4 64.75 25.8" fill="url(#gradient10)" fill-rule="evenodd" stroke="none"/>
      <path d="M74.6 23.7 L74.35 24.05 Q73.9 24.5 72.6 24.4 L71.95 24.3 72.05 24.25 72.85 24.05 72.85 23.45 72.95 23.45 74.6 23.7" fill="url(#gradient11)" fill-rule="evenodd" stroke="none"/>
      <path d="M84.1 26.85 L84.7 26.9 84.7 27.1 85.15 27.4 85.55 27.7 85.2 28.4 83.85 28.6 83.35 28.5 84.05 28.35 84.1 27.35 84.1 26.85" fill="url(#gradient12)" fill-rule="evenodd" stroke="none"/>
      <path d="M19.9 25.8 L20.4 25.95 Q20.9 26.6 21.8 26.7 22.95 26.8 23.4 25.8 L24.6 25.3 25.0 25.75 Q25.45 26.65 23.9 27.3 L21.5 27.35 19.15 26.75 Q19.3 26.25 19.8 25.85 L19.9 25.8" fill="url(#gradient13)" fill-rule="evenodd" stroke="none"/>
      <path d="M35.7 18.8 L36.1 18.85 36.15 19.0 36.45 19.2 36.75 19.35 36.55 19.85 35.55 20.05 35.25 19.95 35.7 19.85 35.7 18.8" fill="url(#gradient14)" fill-rule="evenodd" stroke="none"/>
      <path d="M33.65 22.55 L35.35 22.55 Q35.85 24.55 33.1 24.85 30.75 25.05 29.15 24.3 29.5 23.4 30.3 23.25 L30.8 24.0 Q31.5 24.7 32.35 24.55 33.35 24.4 33.6 23.4 L33.65 22.55" fill="url(#gradient15)" fill-rule="evenodd" stroke="none"/>
      <path d="M45.75 31.4 L46.2 31.45 46.2 31.65 46.55 31.95 46.9 32.25 46.6 33.0 Q46.3 33.4 45.45 33.25 L45.1 33.1 45.65 32.95 45.75 31.4" fill="url(#gradient16)" fill-rule="evenodd" stroke="none"/>
      <path d="M78.85 31.35 L79.6 31.35 79.65 31.6 80.2 31.95 Q80.5 32.3 80.75 32.3 L80.35 33.2 Q79.9 33.7 78.6 33.6 L77.9 33.45 78.05 33.4 78.85 33.2 78.85 31.35" fill="url(#gradient17)" fill-rule="evenodd" stroke="none"/>
    </g>
    <radialGradient cx="0" cy="0" gradientTransform="matrix(0.0983, 0.0, 0.0, -0.0171, 80.5, 27.65)" gradientUnits="userSpaceOnUse" id="gradient0" r="819.2" spreadMethod="pad">
      <stop offset="0.0" stop-color="#000000" stop-opacity="0.35686275"/>
      <stop offset="0.9019607843137255" stop-color="#000000" stop-opacity="0.0"/>
    </radialGradient>
    <linearGradient gradientTransform="matrix(0.0044, 0.0, 0.0, -0.0044, 135.0, 24.65)" gradientUnits="userSpaceOnUse" id="gradient1" spreadMethod="pad" x1="-819.2" x2="819.2">
      <stop offset="0.0" stop-color="#000000" stop-opacity="0.2"/>
      <stop offset="1.0" stop-color="#000000" stop-opacity="0.2"/>
    </linearGradient>
    <linearGradient gradientTransform="matrix(0.0021, 0.0, 0.0, -0.0021, 128.3, 25.45)" gradientUnits="userSpaceOnUse" id="gradient2" spreadMethod="pad" x1="-819.2" x2="819.2">
      <stop offset="0.0" stop-color="#000000" stop-opacity="0.2"/>
      <stop offset="1.0" stop-color="#000000" stop-opacity="0.2"/>
    </linearGradient>
    <linearGradient gradientTransform="matrix(0.0025, 0.0, 0.0, -0.0025, 117.7, 17.45)" gradientUnits="userSpaceOnUse" id="gradient3" spreadMethod="pad" x1="-819.2" x2="819.2">
      <stop offset="0.0" stop-color="#000000" stop-opacity="0.2"/>
      <stop offset="1.0" stop-color="#000000" stop-opacity="0.2"/>
    </linearGradient>
    <linearGradient gradientTransform="matrix(0.0014, 0.0, 0.0, -0.0014, 109.6, 27.7)" gradientUnits="userSpaceOnUse" id="gradient4" spreadMethod="pad" x1="-819.2" x2="819.2">
      <stop offset="0.0" stop-color="#000000" stop-opacity="0.2"/>
      <stop offset="1.0" stop-color="#000000" stop-opacity="0.2"/>
    </linearGradient>
    <linearGradient gradientTransform="matrix(0.0019, 1.0E-4, 1.0E-4, -0.0019, 121.75, 30.4)" gradientUnits="userSpaceOnUse" id="gradient5" spreadMethod="pad" x1="-819.2" x2="819.2">
      <stop offset="0.0" stop-color="#000000" stop-opacity="0.2"/>
      <stop offset="1.0" stop-color="#000000" stop-opacity="0.2"/>
    </linearGradient>
    <linearGradient gradientTransform="matrix(0.0052, 0.0, 0.0, -0.0052, 107.4, 30.85)" gradientUnits="userSpaceOnUse" id="gradient6" spreadMethod="pad" x1="-819.2" x2="819.2">
      <stop offset="0.0" stop-color="#000000" stop-opacity="0.2"/>
      <stop offset="1.0" stop-color="#000000" stop-opacity="0.2"/>
    </linearGradient>
    <linearGradient gradientTransform="matrix(0.0025, 0.0, 0.0, -0.0025, 97.7, 33.5)" gradientUnits="userSpaceOnUse" id="gradient7" spreadMethod="pad" x1="-819.2" x2="819.2">
      <stop offset="0.0" stop-color="#000000" stop-opacity="0.2"/>
      <stop offset="1.0" stop-color="#000000" stop-opacity="0.2"/>
    </linearGradient>
    <linearGradient gradientTransform="matrix(0.0018, 0.0, 0.0, -0.0018, 54.0, 15.25)" gradientUnits="userSpaceOnUse" id="gradient8" spreadMethod="pad" x1="-819.2" x2="819.2">
      <stop offset="0.0" stop-color="#000000" stop-opacity="0.2"/>
      <stop offset="1.0" stop-color="#000000" stop-opacity="0.2"/>
    </linearGradient>
    <linearGradient gradientTransform="matrix(0.0087, 0.0, 0.0, -0.0087, 54.75, 29.35)" gradientUnits="userSpaceOnUse" id="gradient9" spreadMethod="pad" x1="-819.2" x2="819.2">
      <stop offset="0.0" stop-color="#000000" stop-opacity="0.2"/>
      <stop offset="1.0" stop-color="#000000" stop-opacity="0.2"/>
    </linearGradient>
    <linearGradient gradientTransform="matrix(0.002, -2.0E-4, -2.0E-4, -0.0013, 64.7, 26.75)" gradientUnits="userSpaceOnUse" id="gradient10" spreadMethod="pad" x1="-819.2" x2="819.2">
      <stop offset="0.0" stop-color="#000000" stop-opacity="0.2"/>
      <stop offset="1.0" stop-color="#000000" stop-opacity="0.2"/>
    </linearGradient>
    <linearGradient gradientTransform="matrix(0.0025, 0.0, 0.0, -0.0025, 72.7, 23.35)" gradientUnits="userSpaceOnUse" id="gradient11" spreadMethod="pad" x1="-819.2" x2="819.2">
      <stop offset="0.0" stop-color="#000000" stop-opacity="0.2"/>
      <stop offset="1.0" stop-color="#000000" stop-opacity="0.2"/>
    </linearGradient>
    <linearGradient gradientTransform="matrix(0.002, 1.0E-4, 1.0E-4, -0.0016, 83.9, 27.75)" gradientUnits="userSpaceOnUse" id="gradient12" spreadMethod="pad" x1="-819.2" x2="819.2">
      <stop offset="0.0" stop-color="#000000" stop-opacity="0.2"/>
      <stop offset="1.0" stop-color="#000000" stop-opacity="0.2"/>
    </linearGradient>
    <linearGradient gradientTransform="matrix(0.0036, 0.0, 0.0, -0.0036, 22.15, 26.15)" gradientUnits="userSpaceOnUse" id="gradient13" spreadMethod="pad" x1="-819.2" x2="819.2">
      <stop offset="0.0" stop-color="#000000" stop-opacity="0.2"/>
      <stop offset="1.0" stop-color="#000000" stop-opacity="0.2"/>
    </linearGradient>
    <linearGradient gradientTransform="matrix(0.0014, 0.0, 0.0, -0.0014, 35.6, 19.45)" gradientUnits="userSpaceOnUse" id="gradient14" spreadMethod="pad" x1="-819.2" x2="819.2">
      <stop offset="0.0" stop-color="#000000" stop-opacity="0.2"/>
      <stop offset="1.0" stop-color="#000000" stop-opacity="0.2"/>
    </linearGradient>
    <linearGradient gradientTransform="matrix(0.0038, 0.0, 0.0, -0.0038, 32.3, 23.7)" gradientUnits="userSpaceOnUse" id="gradient15" spreadMethod="pad" x1="-819.2" x2="819.2">
      <stop offset="0.0" stop-color="#000000" stop-opacity="0.2"/>
      <stop offset="1.0" stop-color="#000000" stop-opacity="0.2"/>
    </linearGradient>
    <linearGradient gradientTransform="matrix(0.0016, 1.0E-4, 1.0E-4, -0.0016, 45.55, 32.3)" gradientUnits="userSpaceOnUse" id="gradient16" spreadMethod="pad" x1="-819.2" x2="819.2">
      <stop offset="0.0" stop-color="#000000" stop-opacity="0.2"/>
      <stop offset="1.0" stop-color="#000000" stop-opacity="0.2"/>
    </linearGradient>
    <linearGradient gradientTransform="matrix(0.0025, 0.0, 0.0, -0.0025, 78.7, 32.45)" gradientUnits="userSpaceOnUse" id="gradient17" spreadMethod="pad" x1="-819.2" x2="819.2">
      <stop offset="0.0" stop-color="#000000" stop-opacity="0.2"/>
      <stop offset="1.0" stop-color="#000000" stop-opacity="0.2"/>
    </linearGradient>
  </defs>
</svg>
