<?xml version="1.0" encoding="UTF-8" standalone="no"?>
<svg xmlns:xlink="http://www.w3.org/1999/xlink" height="71.05px" width="63.65px" xmlns="http://www.w3.org/2000/svg">
  <g transform="matrix(1.0, 0.0, 0.0, 1.0, 0.0, 0.0)">
    <use height="71.05" transform="matrix(1.0, 0.0, 0.0, 1.0, 0.0, 0.0)" width="63.65" xlink:href="#shape0"/>
  </g>
  <defs>
    <g id="shape0" transform="matrix(1.0, 0.0, 0.0, 1.0, 0.0, 0.0)">
      <path d="M0.75 68.25 L33.05 54.5 63.65 52.5 61.15 71.05 0.0 69.3 0.75 68.25" fill="#25382e" fill-rule="evenodd" stroke="none"/>
      <path d="M0.65 69.0 L2.65 56.65 58.65 57.65 60.65 70.65 0.65 69.0" fill="#487a5c" fill-rule="evenodd" stroke="none"/>
      <path d="M60.65 70.65 L58.65 57.65 62.75 47.55 63.25 52.3 60.65 70.65" fill="#518d68" fill-rule="evenodd" stroke="none"/>
      <path d="M62.75 47.55 L58.65 57.65 2.65 56.65 20.25 48.55 62.75 47.55" fill="#7fb28f" fill-rule="evenodd" stroke="none"/>
      <path d="M4.15 55.8 L4.3 55.3 14.15 48.0 61.25 47.65 56.3 56.25 4.15 55.8" fill="#25382e" fill-rule="evenodd" stroke="none"/>
      <path d="M30.3 42.65 L55.5 44.65 56.0 55.65 4.3 55.3 6.0 18.8 30.65 18.05 30.3 42.65" fill="#487a5c" fill-rule="evenodd" stroke="none"/>
      <path d="M55.5 44.65 L60.25 42.05 60.75 47.55 56.0 55.65 55.5 44.65" fill="#518d68" fill-rule="evenodd" stroke="none"/>
      <path d="M30.65 18.05 L35.0 17.2 39.25 38.05 30.3 42.65 30.65 18.05" fill="#518d68" fill-rule="evenodd" stroke="none"/>
      <path d="M55.5 44.65 L30.3 42.65 39.25 38.05 60.25 42.05 55.5 44.65" fill="#7fb28f" fill-rule="evenodd" stroke="none"/>
      <path d="M6.0 18.8 L13.75 17.05 35.0 17.2 30.6 18.45 6.0 18.8" fill="#7fb28f" fill-rule="evenodd" stroke="none"/>
      <path d="M13.9 18.25 L13.3 18.1 13.15 17.95 12.5 10.55 14.5 11.3 14.8 17.8 Q14.55 18.3 13.9 18.25" fill="#487a5c" fill-rule="evenodd" stroke="none"/>
      <path d="M23.9 18.2 L23.4 18.0 23.35 17.8 23.25 11.3 25.5 11.8 24.55 17.9 Q24.5 18.2 23.9 18.2" fill="#487a5c" fill-rule="evenodd" stroke="none"/>
      <path d="M6.3 0.25 Q11.7 0.05 17.6 0.0 29.4 -0.05 31.85 0.95 34.6 2.05 35.55 6.9 36.45 11.6 34.9 12.2 33.6 12.7 20.05 12.4 L4.0 11.5 Q1.45 10.95 2.6 5.65 3.75 0.35 6.3 0.25" fill="#487a5c" fill-rule="evenodd" stroke="none"/>
      <path d="M7.0 2.05 L18.95 1.7 Q29.25 2.0 31.5 3.05 33.7 4.05 34.05 7.1 34.4 9.85 33.25 10.55 32.5 11.0 20.45 10.45 L5.75 9.8 Q3.2 9.8 4.2 6.15 5.25 2.6 7.0 2.05" fill="#25382e" fill-rule="evenodd" stroke="none"/>
      <path d="M19.65 3.75 Q21.3 3.85 21.3 6.6 21.25 9.35 19.45 9.15 17.7 8.95 17.9 6.3 18.15 3.65 19.65 3.75 M19.9 7.15 Q20.55 7.1 20.45 5.85 20.4 4.65 19.8 4.7 18.95 4.8 19.1 6.0 19.2 7.25 19.9 7.15" fill="#dd2736" fill-rule="evenodd" stroke="none"/>
      <path d="M15.15 3.55 Q16.85 3.65 16.8 6.4 16.8 9.2 15.0 9.0 13.25 8.8 13.45 6.15 13.65 3.5 15.15 3.55 M15.45 7.0 Q16.1 6.95 16.0 5.7 15.95 4.5 15.35 4.55 14.5 4.6 14.65 5.85 14.75 7.05 15.45 7.0" fill="#dd2736" fill-rule="evenodd" stroke="none"/>
      <path d="M25.7 3.9 Q27.35 4.0 27.35 6.75 27.3 9.55 25.5 9.35 23.75 9.15 23.95 6.5 24.15 3.85 25.7 3.9 M25.95 7.35 Q26.6 7.3 26.5 6.05 26.45 4.85 25.85 4.9 25.0 4.95 25.15 6.2 25.25 7.4 25.95 7.35" fill="#dd2736" fill-rule="evenodd" stroke="none"/>
      <path d="M29.7 4.0 Q31.4 4.1 31.35 6.85 31.35 9.65 29.55 9.45 27.8 9.25 28.0 6.6 28.2 3.95 29.7 4.0 M29.95 7.4 Q30.6 7.35 30.55 6.15 30.5 4.9 29.9 4.95 29.1 5.05 29.2 6.25 29.3 7.5 29.95 7.4" fill="#dd2736" fill-rule="evenodd" stroke="none"/>
      <path d="M22.6 8.1 Q23.05 8.1 23.1 8.6 23.15 9.1 22.8 9.15 22.45 9.25 22.25 8.65 22.05 8.1 22.6 8.1" fill="#dd2736" fill-rule="evenodd" stroke="none"/>
      <path d="M7.85 3.7 L9.5 3.75 9.55 4.5 Q7.95 3.6 7.75 4.65 7.7 4.95 8.25 5.2 L9.2 5.6 Q9.75 5.95 9.9 6.45 10.1 7.15 9.55 7.85 9.0 8.6 7.65 8.1 L6.45 7.45 7.05 6.75 7.8 7.3 8.95 7.45 Q9.9 6.45 7.65 5.65 6.85 5.4 7.05 4.7 7.2 4.05 7.85 3.7" fill="#dd2736" fill-rule="evenodd" stroke="none"/>
      <path d="M8.05 2.75 L8.4 2.7 8.3 8.8 7.75 8.75 8.05 2.75" fill="#dd2736" fill-rule="evenodd" stroke="none"/>
      <path d="M8.65 2.9 L8.9 2.8 9.0 8.65 8.5 8.65 8.65 2.9" fill="#dd2736" fill-rule="evenodd" stroke="none"/>
      <path d="M10.25 21.25 Q10.65 21.25 10.65 21.7 L10.25 22.15 9.75 21.7 Q9.7 21.25 10.25 21.25" fill="#25382e" fill-rule="evenodd" stroke="none"/>
      <path d="M12.0 21.25 Q12.4 21.25 12.4 21.7 12.4 22.15 12.0 22.15 11.6 22.15 11.5 21.7 11.45 21.25 12.0 21.25" fill="#25382e" fill-rule="evenodd" stroke="none"/>
      <path d="M13.75 21.25 Q14.15 21.25 14.15 21.7 14.15 22.15 13.75 22.15 13.35 22.15 13.25 21.7 13.2 21.25 13.75 21.25" fill="#25382e" fill-rule="evenodd" stroke="none"/>
      <path d="M15.55 21.25 Q15.95 21.25 15.95 21.7 15.95 22.15 15.55 22.15 15.15 22.15 15.1 21.7 15.0 21.25 15.55 21.25" fill="#25382e" fill-rule="evenodd" stroke="none"/>
      <path d="M17.35 21.25 Q17.75 21.25 17.75 21.7 17.75 22.15 17.35 22.15 16.95 22.15 16.9 21.7 16.8 21.25 17.35 21.25" fill="#25382e" fill-rule="evenodd" stroke="none"/>
      <path d="M19.3 21.25 Q19.7 21.25 19.7 21.7 19.7 22.15 19.3 22.15 18.9 22.15 18.85 21.7 18.75 21.25 19.3 21.25" fill="#25382e" fill-rule="evenodd" stroke="none"/>
      <path d="M21.0 21.25 Q21.4 21.25 21.4 21.7 21.4 22.15 21.0 22.15 20.6 22.15 20.5 21.7 20.45 21.25 21.0 21.25" fill="#25382e" fill-rule="evenodd" stroke="none"/>
      <path d="M22.75 21.25 Q23.15 21.25 23.15 21.7 23.15 22.15 22.75 22.15 22.35 22.15 22.25 21.7 22.2 21.25 22.75 21.25" fill="#25382e" fill-rule="evenodd" stroke="none"/>
      <path d="M24.35 21.25 Q24.75 21.25 24.75 21.7 24.75 22.15 24.35 22.15 23.95 22.15 23.9 21.7 23.8 21.25 24.35 21.25" fill="#25382e" fill-rule="evenodd" stroke="none"/>
      <path d="M10.25 22.75 Q10.65 22.75 10.65 23.2 L10.25 23.65 9.75 23.2 Q9.7 22.75 10.25 22.75" fill="#25382e" fill-rule="evenodd" stroke="none"/>
      <path d="M12.0 22.75 Q12.4 22.75 12.4 23.2 12.4 23.65 12.0 23.65 11.6 23.65 11.5 23.2 11.45 22.75 12.0 22.75" fill="#25382e" fill-rule="evenodd" stroke="none"/>
      <path d="M13.75 22.75 Q14.15 22.75 14.15 23.2 14.15 23.65 13.75 23.65 13.35 23.65 13.25 23.2 13.2 22.75 13.75 22.75" fill="#25382e" fill-rule="evenodd" stroke="none"/>
      <path d="M15.55 22.75 Q15.95 22.75 15.95 23.2 15.95 23.65 15.55 23.65 15.15 23.65 15.1 23.2 15.0 22.75 15.55 22.75" fill="#25382e" fill-rule="evenodd" stroke="none"/>
      <path d="M17.35 22.75 Q17.75 22.75 17.75 23.2 17.75 23.65 17.35 23.65 16.95 23.65 16.9 23.2 16.8 22.75 17.35 22.75" fill="#25382e" fill-rule="evenodd" stroke="none"/>
      <path d="M19.3 22.75 Q19.7 22.75 19.7 23.2 19.7 23.65 19.3 23.65 18.9 23.65 18.85 23.2 18.75 22.75 19.3 22.75" fill="#25382e" fill-rule="evenodd" stroke="none"/>
      <path d="M21.0 22.75 Q21.4 22.75 21.4 23.2 21.4 23.65 21.0 23.65 20.6 23.65 20.5 23.2 20.45 22.75 21.0 22.75" fill="#25382e" fill-rule="evenodd" stroke="none"/>
      <path d="M22.75 22.75 Q23.15 22.75 23.15 23.2 23.15 23.65 22.75 23.65 22.35 23.65 22.25 23.2 22.2 22.75 22.75 22.75" fill="#25382e" fill-rule="evenodd" stroke="none"/>
      <path d="M24.35 22.75 Q24.75 22.75 24.75 23.2 24.75 23.65 24.35 23.65 23.95 23.65 23.9 23.2 23.8 22.75 24.35 22.75" fill="#25382e" fill-rule="evenodd" stroke="none"/>
      <path d="M10.3 24.3 Q10.7 24.3 10.7 24.75 10.7 25.2 10.3 25.2 9.9 25.2 9.85 24.75 9.75 24.3 10.3 24.3" fill="#25382e" fill-rule="evenodd" stroke="none"/>
      <path d="M12.05 24.3 Q12.45 24.3 12.45 24.75 12.45 25.2 12.05 25.2 11.65 25.2 11.6 24.75 11.5 24.3 12.05 24.3" fill="#25382e" fill-rule="evenodd" stroke="none"/>
      <path d="M13.8 24.3 Q14.2 24.3 14.2 24.75 14.2 25.2 13.8 25.2 13.4 25.2 13.35 24.75 13.25 24.3 13.8 24.3" fill="#25382e" fill-rule="evenodd" stroke="none"/>
      <path d="M15.6 24.3 Q16.0 24.3 16.0 24.75 16.0 25.2 15.6 25.2 15.2 25.2 15.15 24.75 15.05 24.3 15.6 24.3" fill="#25382e" fill-rule="evenodd" stroke="none"/>
      <path d="M17.4 24.3 Q17.8 24.3 17.8 24.75 17.8 25.2 17.4 25.2 17.0 25.2 16.95 24.75 16.85 24.3 17.4 24.3" fill="#25382e" fill-rule="evenodd" stroke="none"/>
      <path d="M19.35 24.3 Q19.75 24.3 19.75 24.75 19.75 25.2 19.35 25.2 18.95 25.2 18.9 24.75 18.8 24.3 19.35 24.3" fill="#25382e" fill-rule="evenodd" stroke="none"/>
      <path d="M21.05 24.3 Q21.45 24.3 21.45 24.75 L21.05 25.2 Q20.65 25.2 20.6 24.75 20.5 24.3 21.05 24.3" fill="#25382e" fill-rule="evenodd" stroke="none"/>
      <path d="M22.8 24.3 Q23.2 24.3 23.2 24.75 23.2 25.2 22.8 25.2 22.4 25.2 22.35 24.75 22.25 24.3 22.8 24.3" fill="#25382e" fill-rule="evenodd" stroke="none"/>
      <path d="M24.4 24.3 Q24.8 24.3 24.8 24.75 24.8 25.2 24.4 25.2 24.0 25.2 23.95 24.75 23.85 24.3 24.4 24.3" fill="#25382e" fill-rule="evenodd" stroke="none"/>
      <path d="M10.25 26.05 Q10.65 26.05 10.65 26.5 L10.25 26.95 9.75 26.5 Q9.7 26.05 10.25 26.05" fill="#25382e" fill-rule="evenodd" stroke="none"/>
      <path d="M12.0 26.05 Q12.4 26.05 12.4 26.5 12.4 26.95 12.0 26.95 11.6 26.95 11.5 26.5 11.45 26.05 12.0 26.05" fill="#25382e" fill-rule="evenodd" stroke="none"/>
      <path d="M13.75 26.05 Q14.15 26.05 14.15 26.5 14.15 26.95 13.75 26.95 13.35 26.95 13.25 26.5 13.2 26.05 13.75 26.05" fill="#25382e" fill-rule="evenodd" stroke="none"/>
      <path d="M15.55 26.05 Q15.95 26.05 15.95 26.5 15.95 26.95 15.55 26.95 15.15 26.95 15.1 26.5 15.0 26.05 15.55 26.05" fill="#25382e" fill-rule="evenodd" stroke="none"/>
      <path d="M17.35 26.05 Q17.75 26.05 17.75 26.5 17.75 26.95 17.35 26.95 16.95 26.95 16.9 26.5 16.8 26.05 17.35 26.05" fill="#25382e" fill-rule="evenodd" stroke="none"/>
      <path d="M19.3 26.05 Q19.7 26.05 19.7 26.5 19.7 26.95 19.3 26.95 18.9 26.95 18.85 26.5 18.75 26.05 19.3 26.05" fill="#25382e" fill-rule="evenodd" stroke="none"/>
      <path d="M21.0 26.05 Q21.4 26.05 21.4 26.5 21.4 26.95 21.0 26.95 20.6 26.95 20.5 26.5 20.45 26.05 21.0 26.05" fill="#25382e" fill-rule="evenodd" stroke="none"/>
      <path d="M22.75 26.05 Q23.15 26.05 23.15 26.5 23.15 26.95 22.75 26.95 22.35 26.95 22.25 26.5 22.2 26.05 22.75 26.05" fill="#25382e" fill-rule="evenodd" stroke="none"/>
      <path d="M24.35 26.05 Q24.75 26.05 24.75 26.5 24.75 26.95 24.35 26.95 23.95 26.95 23.9 26.5 23.8 26.05 24.35 26.05" fill="#25382e" fill-rule="evenodd" stroke="none"/>
      <path d="M10.15 27.7 Q10.55 27.7 10.55 28.15 10.55 28.55 10.15 28.55 9.75 28.55 9.7 28.15 9.6 27.7 10.15 27.7" fill="#25382e" fill-rule="evenodd" stroke="none"/>
      <path d="M11.9 27.7 Q12.3 27.7 12.3 28.15 12.3 28.55 11.9 28.55 11.5 28.55 11.45 28.15 11.35 27.7 11.9 27.7" fill="#25382e" fill-rule="evenodd" stroke="none"/>
      <path d="M13.65 27.7 Q14.05 27.7 14.05 28.15 14.05 28.55 13.65 28.55 13.25 28.55 13.2 28.15 13.1 27.7 13.65 27.7" fill="#25382e" fill-rule="evenodd" stroke="none"/>
      <path d="M15.5 27.7 Q15.9 27.7 15.9 28.15 15.9 28.55 15.5 28.55 15.1 28.55 15.0 28.15 14.95 27.7 15.5 27.7" fill="#25382e" fill-rule="evenodd" stroke="none"/>
      <path d="M17.3 27.7 Q17.7 27.7 17.7 28.15 17.7 28.55 17.3 28.55 16.9 28.55 16.85 28.15 16.75 27.7 17.3 27.7" fill="#25382e" fill-rule="evenodd" stroke="none"/>
      <path d="M19.25 27.7 Q19.65 27.7 19.65 28.15 19.65 28.55 19.25 28.55 18.85 28.55 18.75 28.15 18.7 27.7 19.25 27.7" fill="#25382e" fill-rule="evenodd" stroke="none"/>
      <path d="M20.9 27.7 Q21.3 27.7 21.3 28.15 21.3 28.55 20.9 28.55 20.5 28.55 20.45 28.15 20.35 27.7 20.9 27.7" fill="#25382e" fill-rule="evenodd" stroke="none"/>
      <path d="M22.65 27.7 Q23.05 27.7 23.05 28.15 23.05 28.55 22.65 28.55 22.25 28.55 22.2 28.15 22.1 27.7 22.65 27.7" fill="#25382e" fill-rule="evenodd" stroke="none"/>
      <path d="M24.3 27.7 Q24.7 27.7 24.7 28.15 24.7 28.55 24.3 28.55 23.9 28.55 23.85 28.15 23.75 27.7 24.3 27.7" fill="#25382e" fill-rule="evenodd" stroke="none"/>
      <path d="M10.3 29.25 Q10.7 29.25 10.7 29.7 10.7 30.15 10.3 30.15 9.9 30.15 9.85 29.7 9.75 29.25 10.3 29.25" fill="#25382e" fill-rule="evenodd" stroke="none"/>
      <path d="M12.05 29.25 Q12.45 29.25 12.45 29.7 12.45 30.15 12.05 30.15 11.65 30.15 11.6 29.7 11.5 29.25 12.05 29.25" fill="#25382e" fill-rule="evenodd" stroke="none"/>
      <path d="M13.8 29.25 Q14.2 29.25 14.2 29.7 14.2 30.15 13.8 30.15 13.4 30.15 13.35 29.7 13.25 29.25 13.8 29.25" fill="#25382e" fill-rule="evenodd" stroke="none"/>
      <path d="M15.6 29.25 Q16.0 29.25 16.0 29.7 16.0 30.15 15.6 30.15 15.2 30.15 15.15 29.7 15.05 29.25 15.6 29.25" fill="#25382e" fill-rule="evenodd" stroke="none"/>
      <path d="M17.4 29.25 Q17.8 29.25 17.8 29.7 17.8 30.15 17.4 30.15 17.0 30.15 16.95 29.7 16.85 29.25 17.4 29.25" fill="#25382e" fill-rule="evenodd" stroke="none"/>
      <path d="M19.35 29.25 Q19.75 29.25 19.75 29.7 19.75 30.15 19.35 30.15 18.95 30.15 18.9 29.7 18.8 29.25 19.35 29.25" fill="#25382e" fill-rule="evenodd" stroke="none"/>
      <path d="M21.05 29.25 Q21.45 29.25 21.45 29.7 L21.05 30.15 Q20.65 30.15 20.6 29.7 20.5 29.25 21.05 29.25" fill="#25382e" fill-rule="evenodd" stroke="none"/>
      <path d="M22.8 29.25 Q23.2 29.25 23.2 29.7 23.2 30.15 22.8 30.15 22.4 30.15 22.35 29.7 22.25 29.25 22.8 29.25" fill="#25382e" fill-rule="evenodd" stroke="none"/>
      <path d="M24.4 29.25 Q24.8 29.25 24.8 29.7 24.8 30.15 24.4 30.15 24.0 30.15 23.95 29.7 23.85 29.25 24.4 29.25" fill="#25382e" fill-rule="evenodd" stroke="none"/>
      <path d="M10.1 30.8 Q10.5 30.8 10.5 31.25 10.5 31.7 10.1 31.7 9.7 31.7 9.65 31.25 9.55 30.8 10.1 30.8" fill="#25382e" fill-rule="evenodd" stroke="none"/>
      <path d="M11.85 30.8 Q12.25 30.8 12.25 31.25 12.25 31.7 11.85 31.7 11.45 31.7 11.4 31.25 11.3 30.8 11.85 30.8" fill="#25382e" fill-rule="evenodd" stroke="none"/>
      <path d="M13.6 30.8 Q14.0 30.8 14.0 31.25 14.0 31.7 13.6 31.7 13.2 31.7 13.15 31.25 13.05 30.8 13.6 30.8" fill="#25382e" fill-rule="evenodd" stroke="none"/>
      <path d="M15.4 30.8 Q15.8 30.8 15.8 31.25 15.8 31.7 15.4 31.7 15.0 31.7 14.95 31.25 14.85 30.8 15.4 30.8" fill="#25382e" fill-rule="evenodd" stroke="none"/>
      <path d="M17.25 30.8 Q17.65 30.8 17.65 31.25 17.65 31.7 17.25 31.7 16.85 31.7 16.75 31.25 16.7 30.8 17.25 30.8" fill="#25382e" fill-rule="evenodd" stroke="none"/>
      <path d="M19.15 30.8 Q19.55 30.8 19.55 31.25 19.55 31.7 19.15 31.7 18.75 31.7 18.7 31.25 18.6 30.8 19.15 30.8" fill="#25382e" fill-rule="evenodd" stroke="none"/>
      <path d="M20.85 30.8 Q21.25 30.8 21.25 31.25 21.25 31.7 20.85 31.7 20.45 31.7 20.4 31.25 20.3 30.8 20.85 30.8" fill="#25382e" fill-rule="evenodd" stroke="none"/>
      <path d="M22.6 30.8 Q23.0 30.8 23.0 31.25 23.0 31.7 22.6 31.7 22.2 31.7 22.15 31.25 22.05 30.8 22.6 30.8" fill="#25382e" fill-rule="evenodd" stroke="none"/>
      <path d="M24.25 30.8 Q24.65 30.8 24.65 31.25 24.65 31.7 24.25 31.7 L23.75 31.25 Q23.7 30.8 24.25 30.8" fill="#25382e" fill-rule="evenodd" stroke="none"/>
      <path d="M10.1 32.3 Q10.5 32.3 10.5 32.75 10.5 33.2 10.1 33.2 9.7 33.2 9.65 32.75 9.55 32.3 10.1 32.3" fill="#25382e" fill-rule="evenodd" stroke="none"/>
      <path d="M11.85 32.3 Q12.25 32.3 12.25 32.75 12.25 33.2 11.85 33.2 11.45 33.2 11.4 32.75 11.3 32.3 11.85 32.3" fill="#25382e" fill-rule="evenodd" stroke="none"/>
      <path d="M13.6 32.3 Q14.0 32.3 14.0 32.75 14.0 33.2 13.6 33.2 13.2 33.2 13.15 32.75 13.05 32.3 13.6 32.3" fill="#25382e" fill-rule="evenodd" stroke="none"/>
      <path d="M15.4 32.3 Q15.8 32.3 15.8 32.75 15.8 33.2 15.4 33.2 15.0 33.2 14.95 32.75 14.85 32.3 15.4 32.3" fill="#25382e" fill-rule="evenodd" stroke="none"/>
      <path d="M17.25 32.3 Q17.65 32.3 17.65 32.75 17.65 33.2 17.25 33.2 16.85 33.2 16.75 32.75 16.7 32.3 17.25 32.3" fill="#25382e" fill-rule="evenodd" stroke="none"/>
      <path d="M19.15 32.3 Q19.55 32.3 19.55 32.75 19.55 33.2 19.15 33.2 18.75 33.2 18.7 32.75 18.6 32.3 19.15 32.3" fill="#25382e" fill-rule="evenodd" stroke="none"/>
      <path d="M20.85 32.3 Q21.25 32.3 21.25 32.75 21.25 33.2 20.85 33.2 20.45 33.2 20.4 32.75 20.3 32.3 20.85 32.3" fill="#25382e" fill-rule="evenodd" stroke="none"/>
      <path d="M22.6 32.3 Q23.0 32.3 23.0 32.75 23.0 33.2 22.6 33.2 22.2 33.2 22.15 32.75 22.05 32.3 22.6 32.3" fill="#25382e" fill-rule="evenodd" stroke="none"/>
      <path d="M24.25 32.3 Q24.65 32.3 24.65 32.75 24.65 33.2 24.25 33.2 L23.75 32.75 Q23.7 32.3 24.25 32.3" fill="#25382e" fill-rule="evenodd" stroke="none"/>
      <path d="M10.05 33.7 Q10.45 33.7 10.45 34.15 10.45 34.55 10.05 34.55 9.65 34.55 9.6 34.15 9.5 33.7 10.05 33.7" fill="#25382e" fill-rule="evenodd" stroke="none"/>
      <path d="M11.8 33.7 Q12.2 33.7 12.2 34.15 12.2 34.55 11.8 34.55 11.4 34.55 11.35 34.15 11.25 33.7 11.8 33.7" fill="#25382e" fill-rule="evenodd" stroke="none"/>
      <path d="M13.55 33.7 Q13.95 33.7 13.95 34.15 13.95 34.55 13.55 34.55 13.15 34.55 13.1 34.15 13.0 33.7 13.55 33.7" fill="#25382e" fill-rule="evenodd" stroke="none"/>
      <path d="M15.35 33.7 Q15.75 33.7 15.75 34.15 15.75 34.55 15.35 34.55 14.95 34.55 14.9 34.15 14.8 33.7 15.35 33.7" fill="#25382e" fill-rule="evenodd" stroke="none"/>
      <path d="M17.15 33.7 Q17.55 33.7 17.55 34.15 17.55 34.55 17.15 34.55 16.75 34.55 16.7 34.15 16.6 33.7 17.15 33.7" fill="#25382e" fill-rule="evenodd" stroke="none"/>
      <path d="M19.1 33.7 Q19.5 33.7 19.5 34.15 19.5 34.55 19.1 34.55 18.7 34.55 18.65 34.15 18.55 33.7 19.1 33.7" fill="#25382e" fill-rule="evenodd" stroke="none"/>
      <path d="M20.8 33.7 Q21.2 33.7 21.2 34.15 21.2 34.55 20.8 34.55 20.4 34.55 20.35 34.15 20.25 33.7 20.8 33.7" fill="#25382e" fill-rule="evenodd" stroke="none"/>
      <path d="M22.55 33.7 Q22.95 33.7 22.95 34.15 22.95 34.55 22.55 34.55 22.15 34.55 22.1 34.15 22.0 33.7 22.55 33.7" fill="#25382e" fill-rule="evenodd" stroke="none"/>
      <path d="M24.15 33.7 Q24.55 33.7 24.55 34.15 24.55 34.55 24.15 34.55 23.75 34.55 23.7 34.15 23.6 33.7 24.15 33.7" fill="#25382e" fill-rule="evenodd" stroke="none"/>
      <path d="M32.75 42.2 L35.0 41.0 38.65 41.3 37.25 42.45 32.75 42.2" fill="#487a5c" fill-rule="evenodd" stroke="none"/>
      <path d="M43.05 42.0 L42.65 43.05 38.9 42.55 40.25 41.5 43.05 42.0" fill="#487a5c" fill-rule="evenodd" stroke="none"/>
      <path d="M44.4 42.15 L47.6 42.65 47.4 43.45 43.65 43.15 44.4 42.15" fill="#487a5c" fill-rule="evenodd" stroke="none"/>
      <path d="M48.6 42.7 L51.3 43.05 51.05 43.75 48.05 43.4 48.6 42.7" fill="#487a5c" fill-rule="evenodd" stroke="none"/>
      <path d="M52.5 43.05 L56.1 43.65 55.25 44.15 51.85 43.75 52.5 43.05" fill="#487a5c" fill-rule="evenodd" stroke="none"/>
      <path d="M37.1 39.55 L39.8 40.15 39.0 40.9 35.75 40.45 37.1 39.55" fill="#487a5c" fill-rule="evenodd" stroke="none"/>
      <path d="M40.9 40.3 L43.4 40.75 43.0 41.65 40.25 41.05 40.9 40.3" fill="#487a5c" fill-rule="evenodd" stroke="none"/>
      <path d="M44.8 41.0 L47.85 41.45 47.75 42.4 44.4 41.7 44.8 41.0" fill="#487a5c" fill-rule="evenodd" stroke="none"/>
      <path d="M49.15 41.55 L51.6 41.9 51.3 42.55 48.6 42.2 49.15 41.55" fill="#487a5c" fill-rule="evenodd" stroke="none"/>
      <path d="M53.15 42.0 L57.1 42.8 56.5 43.45 52.5 42.65 53.15 42.0" fill="#487a5c" fill-rule="evenodd" stroke="none"/>
      <path d="M40.15 39.65 L38.4 39.05 39.5 38.5 41.05 38.9 40.15 39.65" fill="#487a5c" fill-rule="evenodd" stroke="none"/>
      <path d="M41.9 39.05 L44.0 39.4 43.5 40.2 40.9 39.75 41.9 39.05" fill="#487a5c" fill-rule="evenodd" stroke="none"/>
      <path d="M45.6 39.65 L48.25 40.2 48.1 41.15 44.6 40.4 45.6 39.65" fill="#487a5c" fill-rule="evenodd" stroke="none"/>
      <path d="M49.4 40.4 L51.8 40.8 51.3 41.5 48.9 41.0 49.4 40.4" fill="#487a5c" fill-rule="evenodd" stroke="none"/>
      <path d="M54.05 41.15 L58.15 42.0 57.65 42.4 53.5 41.65 54.05 41.15" fill="#487a5c" fill-rule="evenodd" stroke="none"/>
      <path d="M31.3 18.9 L31.9 38.75 Q32.0 40.15 38.75 37.65 L31.15 41.05 31.3 18.9" fill="#46775a" fill-rule="evenodd" stroke="none"/>
      <path d="M31.8 18.5 L34.65 17.9 35.8 22.55 Q34.5 18.5 33.9 18.5 L31.8 18.5" fill="#7fb28f" fill-rule="evenodd" stroke="none"/>
      <path d="M32.0 11.9 L35.1 11.45 Q34.8 12.05 33.65 12.2 L21.6 12.2 15.4 11.95 9.3 11.7 5.6 11.65 Q3.55 11.45 3.25 10.65 2.5 8.8 2.8 6.2 2.95 4.7 3.85 2.95 4.8 1.1 5.65 0.8 5.0 1.65 4.4 2.9 3.2 5.45 3.3 7.65 3.45 10.05 4.45 10.7 L7.75 11.25 20.3 11.7 32.0 11.9" fill="#306548" fill-rule="evenodd" stroke="none"/>
      <path d="M32.15 1.3 Q33.15 1.95 34.2 4.0 35.1 5.7 35.3 6.75 35.5 7.9 35.15 9.3 L35.0 7.5 Q34.75 6.2 34.1 4.9 33.1 2.9 31.65 1.95 30.25 1.05 27.7 0.8 L13.85 0.15 21.4 0.15 Q30.8 0.4 32.15 1.3" fill="#7fb28f" fill-rule="evenodd" stroke="none"/>
      <path d="M8.6 48.7 L53.35 48.95 54.5 49.95 7.0 49.7 8.6 48.7" fill="#3b634c" fill-rule="evenodd" stroke="none"/>
      <path d="M6.6 52.2 L8.6 51.05 53.6 51.2 54.25 52.05 6.6 52.2" fill="#3b634c" fill-rule="evenodd" stroke="none"/>
      <path d="M6.85 53.95 L8.25 52.95 53.85 53.2 54.6 54.2 6.85 53.95" fill="#3b634c" fill-rule="evenodd" stroke="none"/>
      <path d="M6.75 19.45 L7.5 20.3 6.6 52.2 5.35 54.2 6.75 19.45" fill="#518d68" fill-rule="evenodd" stroke="none"/>
      <path d="M8.25 19.8 L29.75 19.2 29.5 20.3 8.25 19.8" fill="#7fb28f" fill-rule="evenodd" stroke="none"/>
      <path d="M55.5 54.95 L54.35 46.55 30.5 43.2 54.75 45.55 55.5 54.95" fill="#7fb28f" fill-rule="evenodd" stroke="none"/>
      <path d="M59.5 69.95 L56.85 59.8 3.6 57.3 57.75 58.7 59.5 69.95" fill="#7fb28f" fill-rule="evenodd" stroke="none"/>
    </g>
  </defs>
</svg>
