<?xml version="1.0" encoding="UTF-8" standalone="no"?>
<svg xmlns:xlink="http://www.w3.org/1999/xlink" height="271.35px" width="497.45px" xmlns="http://www.w3.org/2000/svg">
  <g transform="matrix(1.0, 0.0, 0.0, 1.0, 0.0, 0.0)">
    <use height="271.35" transform="matrix(1.0, 0.0, 0.0, 1.0, 0.0, 0.0)" width="497.45" xlink:href="#shape0"/>
  </g>
  <defs>
    <g id="shape0" transform="matrix(1.0, 0.0, 0.0, 1.0, 0.0, 0.0)">
      <path d="M15.55 32.15 L13.55 17.05 63.8 27.1 52.75 54.25 15.55 32.15" fill="#49828d" fill-rule="evenodd" stroke="none"/>
      <path d="M276.85 18.05 L54.75 32.15 13.55 17.05 244.7 0.0 276.85 18.05" fill="#a2bec6" fill-rule="evenodd" stroke="none"/>
      <path d="M448.7 32.15 L497.45 47.65 Q476.0 55.4 448.3 62.0 392.95 75.2 361.95 69.35 330.35 63.35 235.05 60.55 202.55 59.6 171.5 59.25 144.4 58.95 142.85 59.3 140.75 59.7 86.75 53.0 L33.15 46.2 0.0 34.15 124.55 25.85 Q254.25 17.5 280.2 17.05 301.9 16.7 341.35 25.6 L370.0 31.65 Q385.35 34.35 396.45 34.15 L435.15 32.9 448.7 32.15" fill="#a2bec6" fill-rule="evenodd" stroke="none"/>
      <path d="M106.0 90.75 Q104.75 77.35 81.5 66.3 74.2 62.85 65.6 60.05 L58.45 57.95 Q69.35 54.45 83.6 53.1 112.05 50.4 128.8 61.3 145.7 72.3 145.05 102.25 144.8 112.05 142.75 122.25 141.1 130.25 140.2 131.65 139.35 132.9 140.7 194.4 L142.2 255.6 122.3 270.9 92.15 266.35 86.6 151.75 Q91.95 141.85 97.05 129.3 107.25 104.15 106.0 90.75" fill="#49828d" fill-rule="evenodd" stroke="none"/>
      <path d="M0.0 34.15 L31.65 45.35 32.4 65.35 5.5 53.75 0.0 34.15" fill="#49828d" fill-rule="evenodd" stroke="none"/>
      <path d="M334.35 43.0 Q353.55 49.1 360.65 51.05 374.95 54.9 384.6 55.35 402.8 56.2 451.95 52.0 L497.45 47.65 Q476.95 61.2 449.0 74.05 393.05 99.75 355.7 96.3 336.35 94.5 318.5 90.0 313.1 88.65 291.1 81.95 276.15 77.4 265.6 76.0 250.95 74.05 233.85 75.95 198.15 79.9 176.15 102.5 156.2 122.95 152.45 152.8 147.0 196.2 174.2 237.6 187.8 258.3 202.5 270.3 L123.1 271.35 108.0 160.8 Q116.1 150.9 122.3 136.65 134.65 108.1 125.1 86.4 115.55 64.7 73.05 62.85 51.75 61.95 32.4 65.35 L31.65 45.35 79.4 42.35 150.1 39.35 218.65 36.55 285.1 32.7 Q294.45 32.25 308.25 35.45 317.45 37.6 334.35 43.0" fill="#6397a3" fill-rule="evenodd" stroke="none"/>
      <path d="M122.3 265.3 L120.35 251.05 186.4 253.9 Q191.7 260.2 197.0 265.3 L122.3 265.3" fill="#78a8c3" fill-rule="evenodd" stroke="none"/>
      <path d="M119.4 244.05 L118.25 235.9 173.4 236.35 179.35 245.0 119.4 244.05" fill="#448ca0" fill-rule="evenodd" stroke="none"/>
      <path d="M116.7 224.5 L115.55 215.8 162.5 216.3 Q164.65 221.1 166.75 225.0 L116.7 224.5" fill="#448ca0" fill-rule="evenodd" stroke="none"/>
      <path d="M156.15 198.95 L159.25 208.35 114.5 208.35 113.55 201.25 156.15 198.95" fill="#448ca0" fill-rule="evenodd" stroke="none"/>
      <path d="M112.3 192.25 L111.1 183.35 152.6 181.85 Q153.3 187.5 154.45 192.25 L112.3 192.25" fill="#78a8c3" fill-rule="evenodd" stroke="none"/>
      <path d="M109.8 173.8 L108.25 162.4 151.6 164.35 Q151.5 170.15 151.85 174.65 L109.8 173.8" fill="#448ca0" fill-rule="evenodd" stroke="none"/>
      <path d="M114.0 152.2 Q117.5 146.6 119.95 141.6 L154.35 142.45 Q153.1 147.7 152.45 152.6 L114.0 152.2" fill="#448ca0" fill-rule="evenodd" stroke="none"/>
      <path d="M123.0 135.0 Q125.05 130.0 126.3 125.6 L159.7 126.8 Q157.65 131.25 156.1 136.15 L123.0 135.0" fill="#448ca0" fill-rule="evenodd" stroke="none"/>
      <path d="M179.2 99.55 Q172.8 105.35 167.55 112.9 L128.75 113.7 Q129.3 109.65 129.2 105.45 L179.2 99.55" fill="#78a8c3" fill-rule="evenodd" stroke="none"/>
      <path d="M387.65 94.5 L336.7 93.85 Q325.5 91.95 314.0 88.8 L295.4 83.25 424.3 84.3 Q404.8 91.45 387.65 94.5" fill="#448ca0" fill-rule="evenodd" stroke="none"/>
      <path d="M206.55 82.55 Q197.15 86.25 188.8 91.85 L126.85 91.05 125.1 86.4 Q124.15 84.2 122.6 81.85 L206.55 82.55" fill="#448ca0" fill-rule="evenodd" stroke="none"/>
      <path d="M463.65 66.95 Q452.75 72.55 442.45 77.0 L270.35 76.75 Q253.5 73.75 233.85 75.95 L228.45 76.65 117.85 76.5 Q110.6 69.95 97.9 66.4 L463.65 66.95" fill="#78a8c3" fill-rule="evenodd" stroke="none"/>
      <path d="M476.55 60.1 L469.05 64.15 Q376.3 63.25 354.9 60.95 334.05 58.7 71.55 62.8 63.0 62.5 52.95 63.1 L32.35 63.4 31.85 50.65 Q287.8 44.85 308.0 44.85 320.55 44.85 339.25 50.4 359.75 56.5 364.95 56.95 377.55 58.05 476.55 60.1" fill="#448ca0" fill-rule="evenodd" stroke="none"/>
      <path d="M121.0 50.25 L121.0 57.5 97.4 58.0 97.1 49.95 121.0 50.25" fill="#6397a3" fill-rule="evenodd" stroke="none"/>
      <path d="M93.75 49.1 L114.5 48.65 121.0 50.25 97.1 50.1 93.75 49.1" fill="#a2bec6" fill-rule="evenodd" stroke="none"/>
      <path d="M97.1 50.15 L97.4 58.0 94.2 55.5 93.75 49.05 97.1 50.15" fill="#49828d" fill-rule="evenodd" stroke="none"/>
      <path d="M121.0 57.5 L97.4 58.0 111.0 56.75 121.0 57.5" fill="#2e4d5d" fill-rule="evenodd" stroke="none"/>
      <path d="M363.55 60.35 L363.55 68.75 336.35 69.25 336.0 60.0 363.55 60.35" fill="#6397a3" fill-rule="evenodd" stroke="none"/>
      <path d="M363.55 60.35 L336.0 60.2 332.15 59.0 356.05 58.5 363.55 60.35" fill="#a2bec6" fill-rule="evenodd" stroke="none"/>
      <path d="M332.15 59.0 L336.0 60.25 336.35 69.25 332.7 66.4 332.15 59.0" fill="#49828d" fill-rule="evenodd" stroke="none"/>
      <path d="M363.55 68.75 L336.35 69.25 352.05 67.85 363.55 68.75" fill="#2e4d5d" fill-rule="evenodd" stroke="none"/>
      <path d="M401.05 75.7 L401.05 83.0 377.45 83.45 377.15 75.4 401.05 75.7" fill="#6397a3" fill-rule="evenodd" stroke="none"/>
      <path d="M401.05 75.7 L377.15 75.55 373.8 74.55 394.55 74.1 401.05 75.7" fill="#a2bec6" fill-rule="evenodd" stroke="none"/>
      <path d="M373.85 74.5 L377.15 75.6 377.45 83.45 374.3 80.95 373.85 74.5" fill="#49828d" fill-rule="evenodd" stroke="none"/>
      <path d="M401.05 83.0 L377.45 83.45 391.05 82.2 401.05 83.0" fill="#2e4d5d" fill-rule="evenodd" stroke="none"/>
      <path d="M133.55 246.8 L165.2 247.2 165.2 256.8 133.95 257.4 133.55 246.8" fill="#6397a3" fill-rule="evenodd" stroke="none"/>
      <path d="M133.55 247.0 L129.15 245.6 156.6 245.05 165.2 247.2 133.55 247.0" fill="#a2bec6" fill-rule="evenodd" stroke="none"/>
      <path d="M129.15 245.6 L133.55 247.05 133.95 257.4 129.75 254.1 129.15 245.6" fill="#49828d" fill-rule="evenodd" stroke="none"/>
      <path d="M133.95 257.4 L141.45 256.7 152.0 255.8 165.2 256.8 133.95 257.4" fill="#2e4d5d" fill-rule="evenodd" stroke="none"/>
      <path d="M167.3 50.35 Q171.1 52.6 174.2 56.55 177.3 60.5 177.9 67.35 178.6 75.1 175.0 80.7 171.3 86.35 163.55 88.05 156.55 89.6 149.25 87.45 142.55 85.45 139.6 78.3 136.65 71.15 138.85 62.2 142.1 48.65 158.0 47.9 162.8 47.7 167.3 50.35" fill="#4d5d5c" fill-rule="evenodd" stroke="none"/>
      <path d="M172.55 56.1 Q175.65 60.1 176.8 67.5 177.85 74.15 173.35 80.25 167.95 87.6 157.55 87.65 146.9 87.7 142.15 80.35 138.1 74.15 139.3 65.15 140.3 57.35 145.45 53.15 150.55 49.0 158.35 49.5 167.95 50.05 172.55 56.1" fill="#738e8d" fill-rule="evenodd" stroke="none"/>
      <path d="M168.95 56.85 Q173.2 61.4 173.55 68.25 173.9 75.05 170.2 79.8 166.05 85.15 158.55 85.25 151.05 85.35 146.6 80.3 142.65 75.8 142.5 69.1 142.35 62.45 146.0 57.65 149.95 52.4 156.75 52.1 164.25 51.8 168.95 56.85" fill="#2e4d5d" fill-rule="evenodd" stroke="none"/>
      <path d="M166.2 56.75 Q168.95 58.9 169.65 60.95 170.4 63.25 170.4 64.85 170.4 66.8 169.05 66.75 168.05 66.7 167.8 64.05 167.45 60.6 166.65 59.4 165.6 57.75 163.25 56.0 L161.05 54.6 Q163.25 54.45 166.2 56.75" fill="#c3d3d8" fill-rule="evenodd" stroke="none"/>
    </g>
  </defs>
</svg>
