<?xml version="1.0" encoding="UTF-8" standalone="no"?>
<svg xmlns:xlink="http://www.w3.org/1999/xlink" height="40.2px" width="39.65px" xmlns="http://www.w3.org/2000/svg">
  <g transform="matrix(1.0, 0.0, 0.0, 1.0, 0.0, 0.0)">
    <use height="31.4" transform="matrix(1.0, 0.0, 0.0, 1.0, 0.05, 8.8)" width="36.95" xlink:href="#shape0"/>
    <use height="21.65" transform="matrix(1.0, 0.0, 0.0, 1.0, 1.85, 14.4)" width="26.7" xlink:href="#sprite0"/>
    <use height="12.85" transform="matrix(1.0, 0.0, 0.0, 1.0, 4.0, 19.05)" width="14.45" xlink:href="#sprite1"/>
    <use height="4.7" transform="matrix(1.0, 0.0, 0.0, 1.0, 7.3, 21.7)" width="3.75" xlink:href="#sprite2"/>
    <use height="31.1" transform="matrix(1.0, 0.0, 0.0, 1.0, 3.4, 9.1)" width="33.5" xlink:href="#sprite3"/>
    <use height="13.1" transform="matrix(1.0, 0.0, 0.0, 1.0, 1.95, 6.2)" width="30.3" xlink:href="#shape5"/>
    <use height="2.95" transform="matrix(1.0, 0.0, 0.0, 1.0, 13.75, 11.25)" width="8.2" xlink:href="#sprite4"/>
    <use height="0.95" transform="matrix(1.0, 0.0, 0.0, 1.0, 17.0, 11.2)" width="2.5" xlink:href="#sprite5"/>
    <use height="22.65" transform="matrix(1.0, 0.0, 0.0, 1.0, 12.0, 0.0)" width="13.55" xlink:href="#shape8"/>
    <use height="2.25" transform="matrix(1.0, 0.0, 0.0, 1.0, 4.2, 11.8)" width="2.95" xlink:href="#sprite6"/>
    <use height="3.4" transform="matrix(1.0, 0.0, 0.0, 1.0, 14.25, 14.6)" width="2.95" xlink:href="#sprite7"/>
    <use height="1.5" transform="matrix(1.0, 0.0, 0.0, 1.0, 13.75, 7.35)" width="1.65" xlink:href="#sprite8"/>
    <use height="5.5" transform="matrix(1.0, 0.0, 0.0, 1.0, 14.45, 3.95)" width="2.7" xlink:href="#sprite9"/>
  </g>
  <defs>
    <g id="shape0" transform="matrix(1.0, 0.0, 0.0, 1.0, -0.05, -8.8)">
      <path d="M21.7 9.15 Q33.55 11.1 36.2 19.5 38.25 25.85 35.0 31.45 32.65 35.55 28.55 37.85 23.0 41.0 15.7 39.9 6.3 38.5 2.2 31.85 -1.6 25.6 1.25 18.65 3.85 12.3 10.4 10.0 15.6 8.1 21.7 9.15" fill="url(#gradient0)" fill-rule="evenodd" stroke="none"/>
    </g>
    <radialGradient cx="0" cy="0" gradientTransform="matrix(0.0236, 0.0212, 0.0212, -0.0236, 11.9, 19.45)" gradientUnits="userSpaceOnUse" id="gradient0" r="819.2" spreadMethod="pad">
      <stop offset="0.0" stop-color="#9c1f4d"/>
      <stop offset="1.0" stop-color="#2e0918"/>
    </radialGradient>
    <g id="sprite0" transform="matrix(1.0, 0.0, 0.0, 1.0, 0.0, 0.0)">
      <use height="16.3" transform="matrix(1.3317, 0.0, 0.0, 1.3282, 0.0, 0.0)" width="20.05" xlink:href="#shape1"/>
    </g>
    <g id="shape1" transform="matrix(1.0, 0.0, 0.0, 1.0, 0.0, 0.0)">
      <path d="M18.75 3.6 Q21.15 7.5 19.1 11.55 17.7 14.35 14.45 15.55 11.25 16.75 7.65 16.0 4.0 15.3 2.2 13.6 0.35 11.8 0.05 8.65 -0.2 5.85 0.9 4.05 1.7 2.75 2.4 2.65 3.5 2.5 5.9 1.4 8.2 0.35 9.6 0.15 16.05 -0.75 18.75 3.6" fill="#ff8a85" fill-rule="evenodd" stroke="none"/>
    </g>
    <g id="sprite1" transform="matrix(1.0, 0.0, 0.0, 1.0, 0.0, 0.0)">
      <use height="12.85" transform="matrix(1.0, 0.0, 0.0, 1.0, 0.0, 0.0)" width="14.45" xlink:href="#shape2"/>
    </g>
    <g id="shape2" transform="matrix(1.0, 0.0, 0.0, 1.0, 0.0, 0.0)">
      <path d="M10.4 3.55 Q13.05 5.0 14.25 4.45 L14.4 7.8 Q14.25 9.3 12.5 10.85 10.3 12.75 7.3 12.85 4.1 13.0 2.05 10.95 0.15 9.05 0.0 6.25 -0.1 4.1 0.7 2.2 1.15 1.25 1.55 0.75 L1.75 0.8 4.85 0.95 Q6.2 0.75 7.05 0.0 L7.75 1.25 Q8.8 2.65 10.4 3.55" fill="#ff8a85" fill-rule="evenodd" stroke="none"/>
    </g>
    <g id="sprite2" transform="matrix(1.0, 0.0, 0.0, 1.0, 0.05, 0.0)">
      <use height="3.55" transform="matrix(1.3158, 0.0, 0.0, 1.3239, -0.05, 0.0)" width="2.85" xlink:href="#shape3"/>
    </g>
    <g id="shape3" transform="matrix(1.0, 0.0, 0.0, 1.0, 0.0, 0.0)">
      <path d="M1.4 0.0 Q3.25 0.2 2.7 2.15 2.15 4.1 0.9 3.3 -0.3 2.5 0.1 1.15 0.45 -0.15 1.4 0.0" fill="#ff8a85" fill-rule="evenodd" stroke="none"/>
    </g>
    <g id="sprite3" transform="matrix(1.0, 0.0, 0.0, 1.0, 0.05, -0.05)">
      <use height="23.4" transform="matrix(1.332, 0.0, 0.0, 1.3291, -0.05, 0.0665)" width="25.15" xlink:href="#shape4"/>
    </g>
    <g id="shape4" transform="matrix(1.0, 0.0, 0.0, 1.0, 0.0, -0.05)">
      <path d="M23.75 12.55 Q24.2 10.1 23.0 7.7 L21.7 5.8 Q21.15 6.65 19.9 6.85 L17.85 6.85 17.0 6.7 16.65 8.35 Q15.9 10.1 13.7 10.65 L10.05 10.9 Q8.8 10.65 7.7 9.65 L6.2 8.15 5.7 7.55 4.0 8.1 0.75 7.9 Q-1.15 6.95 1.65 4.0 3.95 1.65 6.7 0.15 7.4 -0.2 11.15 0.75 15.6 1.85 18.75 1.6 24.1 4.1 25.0 9.4 25.65 13.55 23.7 16.85 21.95 19.9 18.85 21.7 14.65 24.05 9.2 23.25 5.85 22.75 3.2 21.15 5.1 22.15 6.55 22.5 L11.65 22.85 Q16.95 22.35 20.2 19.25 22.95 16.6 23.75 12.55" fill="#000000" fill-rule="evenodd" stroke="none"/>
    </g>
    <g id="shape5" transform="matrix(1.0, 0.0, 0.0, 1.0, -1.95, -6.2)">
      <path d="M15.1 12.15 L13.65 11.6 Q12.2 10.9 12.2 9.85 12.2 8.45 13.35 7.45 14.65 6.3 16.95 6.2 19.5 6.05 21.45 7.3 23.35 8.6 22.3 9.9 18.75 14.45 15.1 12.15" fill="url(#gradient1)" fill-rule="evenodd" stroke="none"/>
      <path d="M10.7 10.4 Q12.8 10.7 15.45 12.1 17.1 12.35 16.15 13.35 L13.65 16.1 Q12.65 17.6 10.45 18.6 7.8 19.75 5.4 19.0 2.8 18.25 2.15 16.5 1.4 14.65 3.2 12.75 4.8 11.0 7.25 10.5 L10.7 10.4" fill="url(#gradient2)" fill-rule="evenodd" stroke="none"/>
      <path d="M32.1 12.65 Q32.6 14.75 31.4 16.1 30.2 17.5 27.65 17.5 25.5 17.5 23.45 15.55 L21.85 13.6 Q20.4 13.15 19.85 12.6 19.4 12.1 20.7 10.85 22.05 9.55 24.0 8.95 26.6 8.2 29.1 9.4 31.6 10.55 32.1 12.65" fill="url(#gradient3)" fill-rule="evenodd" stroke="none"/>
      <path d="M20.6 10.15 Q21.65 10.5 20.6 11.05 L21.25 11.05 Q21.95 11.1 21.9 11.45 21.9 12.1 21.1 12.25 22.3 12.85 21.4 13.3 L20.0 13.5 19.35 13.3 19.35 13.7 Q19.1 14.1 18.15 14.2 17.2 14.3 17.05 13.8 L17.1 13.45 Q16.95 14.3 15.7 14.0 14.85 13.8 15.0 13.2 L15.35 12.6 13.75 12.7 Q13.65 12.35 14.2 12.0 14.45 11.8 14.75 11.7 13.45 11.7 14.1 10.95 14.7 10.25 15.4 10.8 L15.3 10.45 Q15.35 10.05 15.9 10.05 16.85 10.05 16.7 10.65 L17.0 10.2 Q17.45 9.75 18.05 9.8 18.95 9.9 18.9 10.55 L19.35 10.2 20.6 10.15" fill="url(#gradient4)" fill-rule="evenodd" stroke="none"/>
    </g>
    <radialGradient cx="0" cy="0" gradientTransform="matrix(0.0068, 0.0045, 0.0061, -0.0051, 15.55, 8.45)" gradientUnits="userSpaceOnUse" id="gradient1" r="819.2" spreadMethod="pad">
      <stop offset="0.0" stop-color="#bad337"/>
      <stop offset="1.0" stop-color="#557522"/>
    </radialGradient>
    <radialGradient cx="0" cy="0" gradientTransform="matrix(0.0093, 0.0062, 0.0083, -0.0069, 6.6, 13.35)" gradientUnits="userSpaceOnUse" id="gradient2" r="819.2" spreadMethod="pad">
      <stop offset="0.0" stop-color="#bad337"/>
      <stop offset="1.0" stop-color="#557522"/>
    </radialGradient>
    <radialGradient cx="0" cy="0" gradientTransform="matrix(0.0084, 0.0056, 0.0075, -0.0062, 23.75, 11.65)" gradientUnits="userSpaceOnUse" id="gradient3" r="819.2" spreadMethod="pad">
      <stop offset="0.0" stop-color="#bad337"/>
      <stop offset="1.0" stop-color="#557522"/>
    </radialGradient>
    <radialGradient cx="0" cy="0" gradientTransform="matrix(0.0049, 0.0033, 0.0044, -0.0037, 16.35, 11.3)" gradientUnits="userSpaceOnUse" id="gradient4" r="819.2" spreadMethod="pad">
      <stop offset="0.0" stop-color="#bad337"/>
      <stop offset="1.0" stop-color="#557522"/>
    </radialGradient>
    <g id="sprite4" transform="matrix(1.0, 0.0, 0.0, 1.0, 0.0, 0.0)">
      <use height="2.95" transform="matrix(1.0, 0.0, 0.0, 1.0, 0.0, 0.0)" width="8.2" xlink:href="#shape6"/>
    </g>
    <g id="shape6" transform="matrix(1.0, 0.0, 0.0, 1.0, 0.0, 0.0)">
      <path d="M7.65 2.05 Q6.7 2.55 5.6 2.05 L5.6 2.45 Q5.35 2.85 4.4 2.95 3.15 3.1 3.3 2.25 3.0 2.95 1.95 2.75 1.25 2.6 1.25 2.15 L2.1 2.3 Q3.0 2.2 3.05 1.45 L3.4 1.65 3.9 1.75 4.35 1.2 Q6.0 2.45 6.4 2.05 6.75 1.6 6.4 1.2 L6.9 1.55 7.6 1.75 7.85 1.35 Q8.2 1.8 7.65 2.05" fill="#374d00" fill-rule="evenodd" stroke="none"/>
      <path d="M0.0 1.45 L0.0 1.4 0.7 1.4 1.9 1.1 1.55 1.35 0.0 1.45" fill="#374d00" fill-rule="evenodd" stroke="none"/>
      <path d="M6.8 0.65 Q7.8 0.9 8.1 0.0 L8.15 0.2 Q8.15 0.85 7.35 1.0 L6.8 0.65" fill="#374d00" fill-rule="evenodd" stroke="none"/>
    </g>
    <g id="sprite5" transform="matrix(1.0, 0.0, 0.0, 1.0, -0.05, 0.0)">
      <use height="0.7" transform="matrix(1.2821, 0.0, 0.0, 1.3571, 0.05, 0.0)" width="1.95" xlink:href="#shape7"/>
    </g>
    <g id="shape7" transform="matrix(1.0, 0.0, 0.0, 1.0, 0.0, 0.0)">
      <path d="M0.55 0.1 L0.6 0.0 0.65 0.0 1.65 0.1 Q2.2 0.25 1.7 0.5 L0.6 0.7 Q0.05 0.7 0.0 0.45 L0.15 0.25 0.55 0.1" fill="#000000" fill-rule="evenodd" stroke="none"/>
    </g>
    <g id="shape8" transform="matrix(1.0, 0.0, 0.0, 1.0, -12.0, 0.0)">
      <path d="M15.3 4.0 L12.45 3.8 Q11.85 3.8 12.05 2.75 12.25 1.65 13.15 0.85 14.4 -0.3 15.75 0.15 L16.2 1.45 Q16.45 3.0 15.3 4.0" fill="url(#gradient5)" fill-rule="evenodd" stroke="none"/>
      <path d="M15.75 0.15 Q17.4 2.7 18.15 6.85 18.55 9.0 18.6 11.45 18.6 11.85 17.8 11.95 L17.15 11.95 17.0 11.85 Q16.85 8.75 14.95 5.95 L13.15 4.15 12.25 3.7 Q13.45 3.8 14.7 2.7 15.65 1.85 15.8 0.9 L15.75 0.15" fill="url(#gradient6)" fill-rule="evenodd" stroke="none"/>
      <path d="M15.75 13.3 Q19.45 11.9 22.45 13.9 25.4 15.85 25.55 17.45 25.75 19.05 23.35 21.05 20.9 23.15 17.0 22.5 13.2 21.85 12.5 19.35 11.85 17.15 13.1 15.4 14.1 14.0 15.75 13.3" fill="url(#gradient7)" fill-rule="evenodd" stroke="none"/>
    </g>
    <linearGradient gradientTransform="matrix(5.0E-4, 0.003, 0.003, -5.0E-4, 14.05, 2.25)" gradientUnits="userSpaceOnUse" id="gradient5" spreadMethod="pad" x1="-819.2" x2="819.2">
      <stop offset="0.0" stop-color="#bad337"/>
      <stop offset="1.0" stop-color="#557522"/>
    </linearGradient>
    <linearGradient gradientTransform="matrix(0.0039, 0.0, 0.0, -0.0043, 15.45, 6.05)" gradientUnits="userSpaceOnUse" id="gradient6" spreadMethod="pad" x1="-819.2" x2="819.2">
      <stop offset="0.0" stop-color="#bad337"/>
      <stop offset="1.0" stop-color="#557522"/>
    </linearGradient>
    <radialGradient cx="0" cy="0" gradientTransform="matrix(0.0086, 0.0066, 0.0078, -0.0073, 16.55, 16.1)" gradientUnits="userSpaceOnUse" id="gradient7" r="819.2" spreadMethod="pad">
      <stop offset="0.0" stop-color="#bad337"/>
      <stop offset="1.0" stop-color="#557522"/>
    </radialGradient>
    <g id="sprite6" transform="matrix(1.0, 0.0, 0.0, 1.0, 0.05, 0.05)">
      <use height="1.65" transform="matrix(1.3409, 0.0, 0.0, 1.3636, -0.067, -0.05)" width="2.2" xlink:href="#shape9"/>
    </g>
    <g id="shape9" transform="matrix(1.0, 0.0, 0.0, 1.0, 0.05, 0.0)">
      <path d="M1.9 0.1 Q2.55 0.4 1.6 1.1 0.65 1.85 0.3 1.6 -0.4 1.2 0.35 0.5 1.15 -0.25 1.9 0.1" fill="#dff074" fill-rule="evenodd" stroke="none"/>
    </g>
    <g id="sprite7" transform="matrix(1.0, 0.0, 0.0, 1.0, 0.0, 0.0)">
      <use height="2.55" transform="matrix(1.3111, 0.0, 0.0, 1.3333, -0.0156, 0.0)" width="2.25" xlink:href="#shape10"/>
    </g>
    <g id="shape10" transform="matrix(1.0, 0.0, 0.0, 1.0, 0.05, 0.0)">
      <path d="M1.55 0.0 Q2.7 0.25 1.85 1.7 0.95 3.1 0.2 2.15 -0.3 1.5 0.2 0.7 0.75 -0.15 1.55 0.0" fill="#dff074" fill-rule="evenodd" stroke="none"/>
    </g>
    <g id="sprite8" transform="matrix(1.0, 0.0, 0.0, 1.0, 0.05, 0.0)">
      <use height="2.55" transform="matrix(0.7333, 0.0, 0.0, 0.5882, -0.0367, 0.0)" width="2.25" xlink:href="#shape10"/>
    </g>
    <g id="sprite9" transform="matrix(1.0, 0.0, 0.0, 1.0, 0.0, 0.0)">
      <use height="4.2" transform="matrix(1.3095, 0.0, 0.0, 1.3095, 0.0, -0.0155)" width="2.05" xlink:href="#shape11"/>
    </g>
    <g id="shape11" transform="matrix(1.0, 0.0, 0.0, 1.0, 0.0, 0.05)">
      <path d="M0.5 0.1 L1.35 1.5 2.0 3.5 2.0 4.1 1.7 3.35 1.05 1.9 0.2 0.6 Q-0.05 0.25 0.05 0.05 L0.5 0.1" fill="#dff074" fill-rule="evenodd" stroke="none"/>
    </g>
  </defs>
</svg>
