<?xml version="1.0" encoding="UTF-8" standalone="no"?>
<svg xmlns:xlink="http://www.w3.org/1999/xlink" height="256.85px" width="553.5px" xmlns="http://www.w3.org/2000/svg">
  <g transform="matrix(1.0, 0.0, 0.0, 1.0, 0.0, 0.0)">
    <use height="256.85" transform="matrix(1.0, 0.0, 0.0, 1.0, 0.0, 0.0)" width="553.5" xlink:href="#shape0"/>
  </g>
  <defs>
    <g id="shape0" transform="matrix(1.0, 0.0, 0.0, 1.0, 0.0, 0.0)">
      <path d="M365.7 165.2 Q474.4 217.15 553.5 256.85 L0.0 256.85 0.0 0.0 Q148.2 61.25 365.7 165.2" fill="#b3ab64" fill-rule="evenodd" stroke="none"/>
      <path d="M186.55 100.9 L181.5 93.85 175.95 100.7 181.5 90.2 186.55 100.9" fill="#a49a48" fill-rule="evenodd" stroke="none"/>
      <path d="M128.25 117.95 L124.8 113.15 121.05 117.8 124.8 110.7 128.25 117.95" fill="#a49a48" fill-rule="evenodd" stroke="none"/>
      <path d="M135.3 97.1 L131.85 92.3 128.1 96.95 131.85 89.8 135.3 97.1" fill="#a49a48" fill-rule="evenodd" stroke="none"/>
      <path d="M111.35 126.35 L108.6 122.55 105.65 126.25 108.6 120.6 111.35 126.35" fill="#a49a48" fill-rule="evenodd" stroke="none"/>
      <path d="M91.0 159.75 L86.35 153.2 81.2 159.55 86.35 149.85 91.0 159.75" fill="#a49a48" fill-rule="evenodd" stroke="none"/>
      <path d="M77.0 200.95 L71.25 208.1 77.0 197.15 82.3 208.35 77.0 200.95" fill="#a49a48" fill-rule="evenodd" stroke="none"/>
      <path d="M117.8 232.0 L112.35 224.4 106.4 231.75 112.35 220.5 117.8 232.0" fill="#a49a48" fill-rule="evenodd" stroke="none"/>
      <path d="M146.55 246.65 L143.05 241.75 139.2 246.5 143.05 239.2 146.55 246.65" fill="#a49a48" fill-rule="evenodd" stroke="none"/>
      <path d="M187.3 238.6 L183.85 233.75 180.05 238.45 183.85 231.25 187.3 238.6" fill="#a49a48" fill-rule="evenodd" stroke="none"/>
      <path d="M226.6 244.3 L221.5 237.15 215.9 244.1 221.5 233.5 226.6 244.3" fill="#a49a48" fill-rule="evenodd" stroke="none"/>
      <path d="M266.2 247.3 L260.8 239.85 254.95 247.05 260.8 236.0 266.2 247.3" fill="#a49a48" fill-rule="evenodd" stroke="none"/>
      <path d="M302.0 239.45 L297.35 232.95 292.3 239.25 297.35 229.6 302.0 239.45" fill="#a49a48" fill-rule="evenodd" stroke="none"/>
      <path d="M343.65 243.95 L341.05 240.35 338.25 243.85 341.05 238.45 343.65 243.95" fill="#a49a48" fill-rule="evenodd" stroke="none"/>
      <path d="M385.1 237.85 L382.2 233.8 379.0 237.75 382.2 231.7 385.1 237.85" fill="#a49a48" fill-rule="evenodd" stroke="none"/>
      <path d="M427.9 241.8 L422.55 234.3 416.7 241.55 422.55 230.45 427.9 241.8" fill="#a49a48" fill-rule="evenodd" stroke="none"/>
      <path d="M463.2 251.4 L458.2 244.4 452.7 251.15 458.2 240.8 463.2 251.4" fill="#a49a48" fill-rule="evenodd" stroke="none"/>
      <path d="M502.6 243.45 L497.4 236.2 491.75 243.25 497.4 232.45 502.6 243.45" fill="#a49a48" fill-rule="evenodd" stroke="none"/>
      <path d="M536.65 254.15 L533.7 250.05 530.5 254.05 533.7 247.95 536.65 254.15" fill="#a49a48" fill-rule="evenodd" stroke="none"/>
      <path d="M437.05 212.7 L432.15 205.85 426.8 212.45 432.15 202.3 437.05 212.7" fill="#a49a48" fill-rule="evenodd" stroke="none"/>
      <path d="M525.3 251.15 L520.8 244.9 515.95 250.95 520.8 241.7 525.3 251.15" fill="#a49a48" fill-rule="evenodd" stroke="none"/>
      <path d="M484.05 254.4 L478.75 247.05 473.0 254.2 478.75 243.25 484.05 254.4" fill="#a49a48" fill-rule="evenodd" stroke="none"/>
      <path d="M438.45 255.25 L433.9 248.9 429.0 255.05 433.9 245.65 438.45 255.25" fill="#a49a48" fill-rule="evenodd" stroke="none"/>
      <path d="M400.9 233.4 L396.35 239.05 400.9 230.4 405.1 239.25 400.9 233.4" fill="#a49a48" fill-rule="evenodd" stroke="none"/>
      <path d="M359.6 250.35 L356.35 245.9 352.85 250.2 356.35 243.55 359.6 250.35" fill="#a49a48" fill-rule="evenodd" stroke="none"/>
      <path d="M316.85 249.7 L314.05 245.75 310.95 249.55 314.05 243.7 316.85 249.7" fill="#a49a48" fill-rule="evenodd" stroke="none"/>
      <path d="M253.35 221.25 L247.95 213.75 242.1 221.0 247.95 209.9 253.35 221.25" fill="#a49a48" fill-rule="evenodd" stroke="none"/>
      <path d="M242.7 246.15 L237.45 252.65 242.7 242.7 247.5 252.85 242.7 246.15" fill="#a49a48" fill-rule="evenodd" stroke="none"/>
      <path d="M208.75 255.55 L204.75 250.05 200.45 255.4 204.75 247.15 208.75 255.55" fill="#a49a48" fill-rule="evenodd" stroke="none"/>
      <path d="M173.8 248.1 L168.2 240.35 162.15 247.85 168.2 236.3 173.8 248.1" fill="#a49a48" fill-rule="evenodd" stroke="none"/>
      <path d="M132.35 232.95 L129.5 229.0 126.4 232.85 129.5 227.0 132.35 232.95" fill="#a49a48" fill-rule="evenodd" stroke="none"/>
      <path d="M88.4 237.35 L85.75 233.65 82.9 237.2 85.75 231.75 88.4 237.35" fill="#a49a48" fill-rule="evenodd" stroke="none"/>
      <path d="M48.8 246.7 L43.8 239.75 38.4 246.45 43.8 236.15 48.8 246.7" fill="#a49a48" fill-rule="evenodd" stroke="none"/>
      <path d="M16.6 250.85 L11.0 243.05 4.95 250.6 11.0 239.05 16.6 250.85" fill="#a49a48" fill-rule="evenodd" stroke="none"/>
      <path d="M36.15 221.35 L32.95 216.9 29.45 221.25 32.95 214.6 36.15 221.35" fill="#a49a48" fill-rule="evenodd" stroke="none"/>
      <path d="M73.6 250.85 L70.85 246.95 67.8 250.7 70.85 244.95 73.6 250.85" fill="#a49a48" fill-rule="evenodd" stroke="none"/>
      <path d="M64.55 158.5 L59.3 151.2 53.6 158.25 59.3 147.4 64.55 158.5" fill="#a49a48" fill-rule="evenodd" stroke="none"/>
      <path d="M14.2 220.3 L10.8 215.6 7.15 220.15 10.8 213.15 14.2 220.3" fill="#a49a48" fill-rule="evenodd" stroke="none"/>
      <path d="M60.7 221.8 L55.6 214.65 50.0 221.6 55.6 210.95 60.7 221.8" fill="#a49a48" fill-rule="evenodd" stroke="none"/>
      <path d="M103.35 193.75 L98.15 186.5 92.5 193.55 98.15 182.75 103.35 193.75" fill="#a49a48" fill-rule="evenodd" stroke="none"/>
      <path d="M131.1 195.3 L128.15 191.15 124.9 195.15 128.15 189.05 131.1 195.3" fill="#a49a48" fill-rule="evenodd" stroke="none"/>
      <path d="M177.35 206.5 L173.75 201.45 169.8 206.35 173.75 198.85 177.35 206.5" fill="#a49a48" fill-rule="evenodd" stroke="none"/>
      <path d="M218.65 196.3 L214.1 190.0 209.15 196.1 214.1 186.7 218.65 196.3" fill="#a49a48" fill-rule="evenodd" stroke="none"/>
      <path d="M256.0 197.7 L251.45 191.4 246.55 197.5 251.45 188.15 256.0 197.7" fill="#a49a48" fill-rule="evenodd" stroke="none"/>
      <path d="M289.75 198.85 L287.1 195.15 284.25 198.7 287.1 193.25 289.75 198.85" fill="#a49a48" fill-rule="evenodd" stroke="none"/>
      <path d="M396.15 253.85 L393.5 250.15 390.65 253.7 393.5 248.25 396.15 253.85" fill="#a49a48" fill-rule="evenodd" stroke="none"/>
      <path d="M200.1 217.5 L197.5 213.85 194.6 217.4 197.5 211.95 200.1 217.5" fill="#a49a48" fill-rule="evenodd" stroke="none"/>
      <path d="M332.6 209.5 L328.05 203.1 323.05 209.3 328.05 199.85 332.6 209.5" fill="#a49a48" fill-rule="evenodd" stroke="none"/>
      <path d="M369.55 203.35 L366.15 198.6 362.45 203.2 366.15 196.15 369.55 203.35" fill="#a49a48" fill-rule="evenodd" stroke="none"/>
      <path d="M403.45 208.5 L398.4 214.8 403.45 205.1 408.15 215.0 403.45 208.5" fill="#a49a48" fill-rule="evenodd" stroke="none"/>
      <path d="M334.95 183.05 L332.15 179.15 329.1 182.95 332.15 177.15 334.95 183.05" fill="#a49a48" fill-rule="evenodd" stroke="none"/>
      <path d="M478.3 231.75 L475.5 227.85 472.45 231.6 475.5 225.85 478.3 231.75" fill="#a49a48" fill-rule="evenodd" stroke="none"/>
      <path d="M373.65 180.1 L368.6 173.1 363.15 179.85 368.6 169.45 373.65 180.1" fill="#a49a48" fill-rule="evenodd" stroke="none"/>
      <path d="M361.25 222.4 L357.5 217.15 353.4 222.25 357.5 214.5 361.25 222.4" fill="#a49a48" fill-rule="evenodd" stroke="none"/>
      <path d="M311.05 219.55 L305.5 211.85 299.45 219.35 305.5 207.85 311.05 219.55" fill="#a49a48" fill-rule="evenodd" stroke="none"/>
      <path d="M457.05 228.25 L451.5 220.5 445.45 228.0 451.5 216.5 457.05 228.25" fill="#a49a48" fill-rule="evenodd" stroke="none"/>
      <path d="M395.5 189.4 L392.3 185.0 388.85 189.25 392.3 182.7 395.5 189.4" fill="#a49a48" fill-rule="evenodd" stroke="none"/>
      <path d="M346.75 176.15 L344.15 172.5 341.3 176.05 344.15 170.6 346.75 176.15" fill="#a49a48" fill-rule="evenodd" stroke="none"/>
      <path d="M312.45 183.85 L309.55 179.9 306.45 183.75 309.55 177.85 312.45 183.85" fill="#a49a48" fill-rule="evenodd" stroke="none"/>
      <path d="M273.6 178.35 L270.75 174.35 267.6 178.2 270.75 172.3 273.6 178.35" fill="#a49a48" fill-rule="evenodd" stroke="none"/>
      <path d="M237.35 165.8 L232.95 159.75 228.25 165.6 232.95 156.6 237.35 165.8" fill="#a49a48" fill-rule="evenodd" stroke="none"/>
      <path d="M197.55 180.7 L193.55 175.1 189.15 180.55 193.55 172.2 197.55 180.7" fill="#a49a48" fill-rule="evenodd" stroke="none"/>
      <path d="M157.4 174.7 L151.4 182.15 157.4 170.75 162.95 182.4 157.4 174.7" fill="#a49a48" fill-rule="evenodd" stroke="none"/>
      <path d="M128.3 174.15 L122.8 166.5 116.85 173.9 122.8 162.55 128.3 174.15" fill="#a49a48" fill-rule="evenodd" stroke="none"/>
      <path d="M78.0 174.75 L74.35 179.3 78.0 172.35 81.35 179.45 78.0 174.75" fill="#a49a48" fill-rule="evenodd" stroke="none"/>
      <path d="M44.05 184.6 L41.05 180.5 37.85 184.5 41.05 178.35 44.05 184.6" fill="#a49a48" fill-rule="evenodd" stroke="none"/>
      <path d="M19.1 175.4 L14.15 168.5 8.75 175.2 14.15 164.95 19.1 175.4" fill="#a49a48" fill-rule="evenodd" stroke="none"/>
      <path d="M225.85 219.6 L221.05 212.95 215.85 219.4 221.05 209.5 225.85 219.6" fill="#a49a48" fill-rule="evenodd" stroke="none"/>
      <path d="M33.25 200.95 L28.15 193.85 22.55 200.75 28.15 190.15 33.25 200.95" fill="#a49a48" fill-rule="evenodd" stroke="none"/>
      <path d="M37.5 163.0 L32.8 156.5 27.75 162.8 32.8 153.15 37.5 163.0" fill="#a49a48" fill-rule="evenodd" stroke="none"/>
      <path d="M12.0 140.3 L8.8 135.85 5.3 140.15 8.8 133.55 12.0 140.3" fill="#a49a48" fill-rule="evenodd" stroke="none"/>
      <path d="M61.35 133.35 L57.05 127.35 52.35 133.15 57.05 124.25 61.35 133.35" fill="#a49a48" fill-rule="evenodd" stroke="none"/>
      <path d="M104.8 152.7 L99.7 145.6 94.1 152.5 99.7 141.9 104.8 152.7" fill="#a49a48" fill-rule="evenodd" stroke="none"/>
      <path d="M145.1 145.3 L140.15 138.4 134.8 145.05 140.15 134.9 145.1 145.3" fill="#a49a48" fill-rule="evenodd" stroke="none"/>
      <path d="M184.7 145.3 L181.35 140.7 177.75 145.2 181.35 138.3 184.7 145.3" fill="#a49a48" fill-rule="evenodd" stroke="none"/>
      <path d="M227.25 127.25 L221.85 119.75 216.05 127.0 221.85 115.9 227.25 127.25" fill="#a49a48" fill-rule="evenodd" stroke="none"/>
      <path d="M258.3 126.5 L255.0 121.95 251.45 126.35 255.0 119.6 258.3 126.5" fill="#a49a48" fill-rule="evenodd" stroke="none"/>
      <path d="M192.9 124.15 L188.8 118.5 184.4 124.0 188.8 115.6 192.9 124.15" fill="#a49a48" fill-rule="evenodd" stroke="none"/>
      <path d="M156.05 217.8 L150.8 210.5 145.1 217.55 150.8 206.75 156.05 217.8" fill="#a49a48" fill-rule="evenodd" stroke="none"/>
      <path d="M279.15 219.95 L276.4 216.2 273.5 219.85 276.4 214.25 279.15 219.95" fill="#a49a48" fill-rule="evenodd" stroke="none"/>
      <path d="M319.95 161.15 L316.15 155.85 312.0 161.0 316.15 153.1 319.95 161.15" fill="#a49a48" fill-rule="evenodd" stroke="none"/>
      <path d="M295.25 147.8 L291.5 142.5 287.35 147.6 291.5 139.8 295.25 147.8" fill="#a49a48" fill-rule="evenodd" stroke="none"/>
      <path d="M267.05 153.35 L262.15 146.5 256.8 153.15 262.15 142.95 267.05 153.35" fill="#a49a48" fill-rule="evenodd" stroke="none"/>
      <path d="M212.75 152.4 L209.5 147.85 205.9 152.25 209.5 145.45 212.75 152.4" fill="#a49a48" fill-rule="evenodd" stroke="none"/>
      <path d="M184.45 169.65 L178.8 161.85 172.7 169.4 178.8 157.8 184.45 169.65" fill="#a49a48" fill-rule="evenodd" stroke="none"/>
      <path d="M206.0 104.55 L202.5 99.65 198.65 104.4 202.5 97.1 206.0 104.55" fill="#a49a48" fill-rule="evenodd" stroke="none"/>
      <path d="M160.8 78.5 L157.95 82.05 160.8 76.6 163.45 82.2 160.8 78.5" fill="#a49a48" fill-rule="evenodd" stroke="none"/>
      <path d="M120.15 79.85 L116.4 84.45 120.15 77.35 123.55 84.6 120.15 79.85" fill="#a49a48" fill-rule="evenodd" stroke="none"/>
      <path d="M94.85 91.7 L89.35 84.0 83.35 91.45 89.35 80.05 94.85 91.7" fill="#a49a48" fill-rule="evenodd" stroke="none"/>
      <path d="M55.85 97.1 L51.25 90.7 46.3 96.9 51.25 87.45 55.85 97.1" fill="#a49a48" fill-rule="evenodd" stroke="none"/>
      <path d="M17.25 92.15 L11.55 84.25 5.4 91.9 11.55 80.2 17.25 92.15" fill="#a49a48" fill-rule="evenodd" stroke="none"/>
      <path d="M47.85 111.95 L44.55 107.4 41.0 111.85 44.55 105.05 47.85 111.95" fill="#a49a48" fill-rule="evenodd" stroke="none"/>
      <path d="M14.1 105.75 L10.8 101.15 7.25 105.6 10.8 98.8 14.1 105.75" fill="#a49a48" fill-rule="evenodd" stroke="none"/>
      <path d="M24.5 121.0 L20.8 115.85 16.8 120.85 20.8 113.15 24.5 121.0" fill="#a49a48" fill-rule="evenodd" stroke="none"/>
      <path d="M20.15 69.15 L17.55 65.55 14.75 69.05 17.55 63.7 20.15 69.15" fill="#a49a48" fill-rule="evenodd" stroke="none"/>
      <path d="M17.7 45.95 L13.8 40.55 9.55 45.8 13.8 37.75 17.7 45.95" fill="#a49a48" fill-rule="evenodd" stroke="none"/>
      <path d="M33.45 54.8 L29.55 49.35 25.3 54.6 29.55 46.5 33.45 54.8" fill="#a49a48" fill-rule="evenodd" stroke="none"/>
      <path d="M72.1 64.95 L66.6 57.3 60.6 64.75 66.6 53.35 72.1 64.95" fill="#a49a48" fill-rule="evenodd" stroke="none"/>
      <path d="M105.6 64.1 L102.45 59.75 99.05 63.95 102.45 57.5 105.6 64.1" fill="#a49a48" fill-rule="evenodd" stroke="none"/>
      <path d="M80.15 109.15 L75.2 115.25 80.15 105.9 84.65 115.45 80.15 109.15" fill="#a49a48" fill-rule="evenodd" stroke="none"/>
      <path d="M160.15 106.6 L154.8 99.15 149.0 106.35 154.8 95.35 160.15 106.6" fill="#a49a48" fill-rule="evenodd" stroke="none"/>
      <path d="M167.55 132.2 L163.5 126.5 159.05 132.0 163.5 123.55 167.55 132.2" fill="#a49a48" fill-rule="evenodd" stroke="none"/>
      <path d="M140.8 71.85 L136.1 65.25 130.95 71.65 136.1 61.85 140.8 71.85" fill="#a49a48" fill-rule="evenodd" stroke="none"/>
      <path d="M94.1 54.1 L90.35 48.85 86.25 53.95 90.35 46.15 94.1 54.1" fill="#a49a48" fill-rule="evenodd" stroke="none"/>
      <path d="M65.75 44.7 L60.8 37.85 55.45 44.5 60.8 34.3 65.75 44.7" fill="#a49a48" fill-rule="evenodd" stroke="none"/>
      <path d="M50.5 72.15 L45.5 65.15 40.05 71.9 45.5 61.6 50.5 72.15" fill="#a49a48" fill-rule="evenodd" stroke="none"/>
      <path d="M38.15 29.15 L35.0 33.1 38.15 27.1 41.05 33.2 38.15 29.15" fill="#a49a48" fill-rule="evenodd" stroke="none"/>
      <path d="M17.3 23.05 L12.15 15.85 6.5 22.8 12.15 12.15 17.3 23.05" fill="#a49a48" fill-rule="evenodd" stroke="none"/>
    </g>
  </defs>
</svg>
