<?xml version="1.0" encoding="UTF-8" standalone="no"?>
<svg xmlns:xlink="http://www.w3.org/1999/xlink" height="248.9px" width="168.8px" xmlns="http://www.w3.org/2000/svg">
  <g transform="matrix(1.0, 0.0, 0.0, 1.0, 0.0, 0.0)">
    <use height="248.9" transform="matrix(1.0, 0.0, 0.0, 1.0, 0.0, 0.0)" width="168.8" xlink:href="#sprite0"/>
  </g>
  <defs>
    <g id="sprite0" transform="matrix(1.0, 0.0, 0.0, 1.0, 0.0, 0.0)">
      <use height="248.9" transform="matrix(1.0, 0.0, 0.0, 1.0, 0.0, 0.0)" width="168.8" xlink:href="#shape0"/>
    </g>
    <g id="shape0" transform="matrix(1.0, 0.0, 0.0, 1.0, 0.0, 0.0)">
      <path d="M104.05 39.5 Q107.0 48.5 115.3 78.85 122.4 104.75 127.65 118.4 131.3 128.0 141.15 150.2 151.2 172.9 155.8 184.7 171.95 226.3 168.0 248.9 L0.0 248.3 Q0.75 240.35 4.8 225.65 7.4 216.0 15.7 188.9 22.65 166.1 27.8 145.05 L38.0 101.15 Q40.15 91.95 43.45 70.85 46.95 48.3 49.0 38.5 56.8 2.05 71.1 0.15 81.95 -1.3 90.45 10.05 97.4 19.35 104.05 39.5 M82.7 75.75 Q81.75 72.85 80.3 71.2 79.0 69.65 77.15 69.45 75.1 69.15 73.45 70.8 L75.1 70.45 Q76.0 70.3 76.45 70.9 76.55 71.45 74.95 75.5 74.1 79.15 74.25 81.95 74.45 85.1 74.75 86.55 75.45 89.45 77.05 90.5 76.4 91.05 75.55 90.9 L73.95 90.2 Q75.1 91.75 76.8 92.0 78.2 92.2 79.5 91.55 81.65 90.5 82.85 86.85 83.9 83.75 83.7 80.7 83.6 78.35 82.7 75.75 M55.15 71.55 L56.45 71.75 Q57.1 72.0 57.15 72.7 L56.45 74.25 55.6 75.9 Q55.0 77.75 54.85 80.35 54.55 86.6 56.55 88.35 56.05 89.8 54.05 88.25 54.85 89.65 56.15 90.0 L58.3 89.85 Q60.05 89.15 61.25 86.15 62.25 83.55 62.4 80.9 62.6 75.45 60.85 73.15 59.85 71.9 58.3 71.4 L55.15 71.55 M64.25 97.05 Q62.45 97.1 62.75 98.6 63.05 99.95 64.45 100.85 65.5 101.55 67.05 101.7 68.8 101.9 69.9 101.15 70.6 100.65 68.5 98.9 66.3 97.0 64.25 97.05" fill="#cfe5db" fill-rule="evenodd" stroke="none"/>
    </g>
  </defs>
</svg>
