<?xml version="1.0" encoding="UTF-8" standalone="no"?>
<svg xmlns:xlink="http://www.w3.org/1999/xlink" height="60.0px" width="213.25px" xmlns="http://www.w3.org/2000/svg">
  <g transform="matrix(1.0, 0.0, 0.0, 1.0, 0.0, 0.0)">
    <use height="57.0" transform="matrix(0.9814, 0.0, 0.0, 0.9474, 2.6298, 42.7528)" width="214.95" xlink:href="#sprite0"/>
    <use height="61.65" transform="matrix(1.0, 0.0, 0.0, 1.0, 0.4, 33.25)" width="211.05" xlink:href="#shape1"/>
    <use height="12.25" transform="matrix(1.0, 0.0, 0.0, 1.0, 81.2, 68.05)" width="53.5" xlink:href="#sprite1"/>
    <use height="13.65" transform="matrix(1.0, 0.0, 0.0, 1.0, 81.2, 65.05)" width="52.05" xlink:href="#shape3"/>
    <use height="9.75" transform="matrix(1.0, 0.0, 0.0, 1.0, 131.6, 60.65)" width="49.15" xlink:href="#sprite2"/>
    <use height="11.35" transform="matrix(1.0, 0.0, 0.0, 1.0, 132.7, 58.2)" width="47.3" xlink:href="#shape5"/>
    <use height="6.75" transform="matrix(1.0307, 0.0, 0.0, 1.0307, 144.4, 49.65)" width="39.35" xlink:href="#sprite3"/>
    <use height="7.45" transform="matrix(1.0, 0.0, 0.0, 1.0, 146.5, 47.95)" width="39.1" xlink:href="#shape7"/>
    <use height="7.45" transform="matrix(1.0307, 0.0, 0.0, 1.0307, 84.85, 52.45)" width="40.75" xlink:href="#sprite4"/>
    <use height="8.45" transform="matrix(1.0, 0.0, 0.0, 1.0, 85.85, 50.3)" width="41.7" xlink:href="#shape9"/>
    <use height="10.5" transform="matrix(1.0, 0.0, 0.0, 1.0, 33.5, 60.6)" width="47.75" xlink:href="#sprite5"/>
    <use height="11.3" transform="matrix(1.0, 0.0, 0.0, 1.0, 34.15, 58.45)" width="47.25" xlink:href="#shape11"/>
    <use height="6.8" transform="matrix(1.0307, 0.0, 0.0, 1.0307, 25.05, 49.9015)" width="38.45" xlink:href="#sprite6"/>
    <use height="7.45" transform="matrix(1.0, 0.0, 0.0, 1.0, 26.1, 48.45)" width="39.1" xlink:href="#shape13"/>
    <use height="5.65" transform="matrix(1.0934, 0.0, 0.0, 1.0934, 58.65, 43.65)" width="33.5" xlink:href="#sprite7"/>
    <use height="6.35" transform="matrix(1.0, 0.0, 0.0, 1.0, 58.95, 42.6)" width="36.15" xlink:href="#shape15"/>
    <use height="5.35" transform="matrix(1.0934, 0.0, 0.0, 1.0934, 116.5, 43.6)" width="32.0" xlink:href="#sprite8"/>
    <use height="6.65" transform="matrix(1.0, 0.0, 0.0, 1.0, 116.55, 42.2)" width="34.85" xlink:href="#shape17"/>
    <use height="4.6" transform="matrix(1.1902, 0.0, -0.0364, 1.0751, 90.1405, 38.9)" width="27.95" xlink:href="#sprite9"/>
    <use height="60.2" transform="matrix(1.0, 0.0, 0.0, 1.0, 0.4, 34.7)" width="211.05" xlink:href="#shape19"/>
    <use height="0.0" id="price_tag_pt" transform="matrix(1.0, 0.0, 0.0, 1.0, 107.15, 94.85)" width="0.0" xlink:href="#sprite10"/>
  </g>
  <defs>
    <g id="sprite0" transform="matrix(1.0, 0.0, 0.0, 1.0, -36.0, -36.05)">
      <use height="57.0" transform="matrix(1.0, 0.0, 0.0, 1.0, 36.0, 36.05)" width="214.95" xlink:href="#shape0"/>
    </g>
    <g id="shape0" transform="matrix(1.0, 0.0, 0.0, 1.0, -36.0, -36.05)">
      <path d="M250.95 63.5 Q251.05 75.3 219.65 83.95 188.3 92.6 143.75 93.05 99.25 93.45 67.7 85.4 36.1 77.35 36.0 65.55 35.9 53.75 67.3 45.1 98.7 36.45 143.2 36.05 187.75 35.6 219.3 43.65 250.85 51.7 250.95 63.5" fill="#000000" fill-rule="evenodd" stroke="none"/>
    </g>
    <g id="shape1" transform="matrix(1.0, 0.0, 0.0, 1.0, -0.4, -33.25)">
      <path d="M211.45 63.75 L211.2 65.75 Q211.3 68.6 210.3 70.3 207.3 75.9 198.75 80.1 195.0 81.95 190.3 83.5 L181.65 86.1 172.5 89.15 Q167.2 90.9 163.15 91.35 L135.0 94.15 Q119.2 95.3 106.7 94.7 L94.55 94.05 Q59.05 92.85 33.6 85.7 L32.45 85.45 Q21.7 82.85 12.7 78.7 -2.6 71.75 1.6 65.35 L0.4 65.35 1.5 64.8 1.45 63.75 Q1.45 51.1 32.2 42.2 62.95 33.25 106.45 33.25 149.95 33.25 180.7 42.2 211.45 51.1 211.45 63.75" fill="#eed37c" fill-rule="evenodd" stroke="none"/>
      <path d="M203.75 56.3 Q204.7 57.7 204.25 59.45 203.15 63.2 202.25 64.55 L201.2 65.5 200.0 66.45 Q199.65 66.85 199.35 67.6 L198.75 68.7 195.75 71.4 192.3 73.45 Q189.3 74.8 184.15 76.05 L175.8 78.2 161.5 82.5 Q148.6 86.1 137.05 84.6 132.9 84.05 125.35 84.75 117.55 85.4 113.55 85.0 L108.9 84.35 104.3 83.55 98.1 83.05 91.8 83.05 79.4 82.25 67.05 80.8 56.2 80.5 Q49.35 80.4 45.55 79.2 L43.5 78.3 Q42.15 77.65 41.4 77.45 L38.5 77.05 35.6 76.8 Q30.55 75.7 24.35 73.35 L19.9 71.2 15.55 68.85 12.3 67.2 Q10.8 66.15 10.1 64.45 L8.7 60.7 Q8.0 58.15 8.5 56.8 9.6 53.85 13.55 50.75 16.45 48.45 18.55 48.1 19.55 46.8 24.6 45.55 L32.55 43.85 Q42.35 41.0 51.8 39.75 L62.05 38.85 72.25 37.95 89.8 36.0 Q107.8 34.15 130.3 35.25 L140.7 36.15 151.05 37.3 155.35 37.65 Q157.85 37.9 159.55 38.5 L162.5 39.75 165.6 40.8 Q169.75 41.65 175.55 43.7 L185.35 47.2 193.55 50.1 Q198.05 51.85 201.2 54.05 203.05 55.3 203.75 56.3" fill="#d2b155" fill-rule="evenodd" stroke="none"/>
      <path d="M173.7 75.1 Q145.65 81.25 106.05 81.25 66.45 81.25 38.4 75.1 10.4 68.9 10.4 60.25 10.4 51.35 38.25 44.4 66.85 37.25 105.7 37.25 144.6 37.25 173.55 44.4 201.75 51.35 201.75 60.25 201.75 68.9 173.7 75.1" fill="#c5671e" fill-rule="evenodd" stroke="none"/>
      <path d="M166.0 41.55 L172.1 43.7 180.85 46.35 Q185.75 48.0 189.0 50.45 L196.65 53.85 Q201.55 55.95 202.3 59.35 202.85 61.65 201.25 63.05 L197.7 65.25 Q196.4 66.15 194.2 68.4 L190.7 71.45 Q187.35 73.55 181.6 74.75 L172.05 76.35 Q169.65 76.85 162.55 79.1 156.75 80.9 152.8 81.3 L125.3 84.1 Q121.25 84.5 117.1 84.0 113.65 83.6 109.05 82.45 105.95 81.65 101.95 81.45 L94.65 81.35 78.4 81.1 62.35 79.7 56.1 78.75 50.0 77.45 44.75 75.8 Q41.7 74.85 39.4 74.7 L28.85 73.4 Q23.25 72.2 19.05 69.7 5.3 61.7 9.7 58.75 L9.7 58.2 Q9.75 56.9 10.65 55.95 11.3 55.25 12.65 54.35 L14.8 52.75 Q17.7 50.05 19.9 48.8 22.3 47.35 26.05 46.35 41.45 42.3 57.4 40.7 L67.75 39.35 78.05 38.0 87.9 37.35 97.7 36.4 110.0 35.75 122.35 36.7 147.8 39.05 153.8 39.25 159.8 39.75 Q162.3 40.25 166.0 41.55" fill="#c5671e" fill-rule="evenodd" stroke="none"/>
      <path d="M160.7 78.0 Q156.6 78.9 151.45 79.0 L142.05 78.4 133.35 77.5 Q129.4 77.55 125.05 79.0 116.5 81.85 105.3 81.35 101.45 81.15 96.1 79.95 L87.05 77.95 77.05 76.9 Q72.85 76.75 67.05 77.05 51.9 77.7 52.0 72.1 49.25 70.75 45.0 71.2 L37.6 72.45 Q33.25 73.2 30.8 72.55 27.45 71.7 25.65 68.1 L24.0 65.45 Q23.1 64.5 21.35 63.7 19.25 63.0 18.55 62.5 17.45 61.7 18.3 59.95 18.8 58.95 20.6 58.0 22.8 56.8 23.3 56.3 24.4 55.2 24.85 53.65 L25.5 51.65 27.5 51.55 30.15 50.8 Q31.7 50.5 33.55 50.75 L37.1 51.45 Q47.9 53.6 61.65 53.95 70.95 54.2 86.35 53.6 120.25 52.35 151.35 52.35 L167.6 53.15 Q175.6 54.05 183.4 56.05 L191.1 56.85 Q196.3 57.5 197.7 59.7 200.15 63.45 194.65 65.75 191.15 67.2 186.05 67.7 L177.5 67.75 169.05 68.35 Q166.7 68.9 166.25 70.4 166.0 71.35 165.7 74.05 165.15 76.3 164.1 77.0 163.45 77.4 160.7 78.0 M25.5 51.65 L24.7 51.35 25.7 51.1 25.8 50.75 27.05 50.7 25.7 51.1 25.5 51.65" fill="#994e12" fill-rule="evenodd" stroke="none"/>
      <path d="M166.3 43.95 Q171.3 44.2 174.1 46.6 L176.7 49.25 Q177.9 50.4 180.05 50.75 L184.35 51.3 188.65 52.1 Q187.85 54.15 190.75 55.15 195.0 56.65 195.4 57.0 197.4 58.9 195.25 60.9 L190.4 63.75 Q186.45 65.7 178.0 66.15 169.5 66.55 165.75 68.35 167.5 73.65 159.95 75.85 154.8 77.35 148.15 77.05 L135.45 74.9 Q127.8 73.7 123.0 75.95 107.9 83.05 87.7 77.3 L82.6 75.45 Q79.75 74.4 77.4 74.35 L72.5 74.9 67.65 75.7 Q61.1 76.25 56.7 74.35 55.25 73.75 53.75 72.0 52.3 70.25 51.05 69.75 48.25 68.7 40.4 69.8 33.2 70.85 29.8 68.6 28.7 67.85 27.7 65.7 26.8 63.65 25.0 62.8 L20.8 61.45 Q18.15 60.4 18.75 58.45 19.1 57.25 21.8 56.2 L25.4 54.7 Q27.3 53.4 26.8 51.9 26.3 50.4 27.4 49.6 28.3 48.95 30.9 48.25 L34.7 47.05 Q39.8 44.7 46.4 44.7 L47.05 44.7 Q46.45 43.15 54.3 42.65 L64.05 42.3 68.3 42.3 72.4 42.05 76.5 40.9 80.7 40.35 Q87.95 40.35 102.05 39.75 L111.65 40.05 Q117.8 40.4 121.3 40.05 L130.7 40.35 140.05 41.35 144.2 41.1 Q146.9 40.85 148.45 41.1 150.0 41.3 153.1 42.45 L157.7 43.7 166.3 43.95" fill="#fff3b8" fill-rule="evenodd" stroke="none"/>
      <path d="M172.75 45.65 L174.1 46.6 176.7 49.25 Q177.9 50.4 180.05 50.75 L183.1 51.15 Q176.95 51.4 175.9 51.1 172.6 50.25 172.75 45.65" fill="#f8da7a" fill-rule="evenodd" stroke="none"/>
      <path d="M164.0 44.15 L167.55 44.55 Q166.6 45.9 164.15 45.9 L160.25 45.5 Q155.3 45.05 150.85 46.1 L144.9 46.25 139.05 45.8 132.65 46.35 Q128.0 46.65 126.75 45.55 127.2 45.05 128.45 44.65 129.65 44.3 130.1 43.75 L128.3 42.75 Q129.4 41.15 132.55 41.55 L130.8 41.05 140.45 40.75 Q146.0 40.7 150.05 41.6 L155.15 43.0 160.3 44.05 164.0 44.15" fill="#f8da7a" fill-rule="evenodd" stroke="none"/>
      <path d="M157.3 55.0 L147.25 55.3 137.25 55.8 Q134.75 56.1 130.95 55.85 L124.55 55.45 Q125.8 53.25 118.55 52.6 L109.6 51.8 Q110.2 50.5 111.45 49.9 L112.3 49.65 112.45 49.6 114.1 49.3 120.35 49.0 Q125.15 49.05 125.55 50.05 L115.95 49.75 122.0 50.55 127.05 50.75 Q130.15 50.8 131.8 51.85 L132.2 52.6 132.8 53.35 133.95 53.55 135.1 53.55 139.8 53.55 145.55 53.7 151.75 53.75 Q155.9 53.85 157.3 55.0" fill="#f8da7a" fill-rule="evenodd" stroke="none"/>
      <path d="M134.8 61.55 L141.75 60.85 148.55 61.2 Q144.2 62.5 138.15 62.75 L127.6 63.05 Q127.3 64.35 123.45 64.8 L118.35 65.0 118.35 64.3 119.05 64.05 Q117.85 62.55 114.6 62.6 L109.5 63.05 103.05 63.4 96.85 62.75 Q96.9 61.35 99.95 61.25 L104.05 61.55 109.55 61.3 114.85 60.55 120.8 59.75 126.75 60.1 130.45 60.9 132.05 61.0 128.8 61.3 131.8 61.45 134.8 61.55" fill="#f8da7a" fill-rule="evenodd" stroke="none"/>
      <path d="M127.85 67.25 L132.25 67.3 132.55 67.3 132.65 67.3 Q135.4 67.45 136.85 68.25 136.1 69.75 130.85 69.7 126.15 69.65 124.1 68.8 124.7 67.4 127.85 67.25" fill="#f8da7a" fill-rule="evenodd" stroke="none"/>
      <path d="M90.1 67.9 Q84.95 67.9 83.3 66.25 86.65 64.6 91.85 64.85 95.5 65.05 100.55 66.3 L100.3 66.3 Q102.95 66.55 104.55 67.45 L101.1 67.8 97.6 67.55 90.1 67.9" fill="#f8da7a" fill-rule="evenodd" stroke="none"/>
      <path d="M80.1 59.85 L77.05 60.05 Q76.75 60.25 76.0 62.0 75.5 63.1 73.75 62.8 72.6 62.6 72.15 61.95 L70.8 60.6 66.05 60.4 Q62.65 60.8 61.8 59.6 63.2 58.9 66.6 58.75 69.85 58.55 71.25 57.8 70.85 56.35 67.85 56.2 64.4 56.0 63.8 55.5 L66.45 55.2 69.25 55.2 71.25 54.8 73.25 54.5 Q72.6 52.75 66.9 53.15 61.15 53.55 60.35 51.55 L69.5 51.25 Q70.45 51.4 72.2 52.2 73.75 52.9 74.85 53.0 L81.8 52.4 Q86.7 52.0 88.0 53.7 L85.95 54.5 83.8 55.1 Q86.0 56.7 88.8 56.55 L86.3 57.05 92.05 56.8 95.65 56.8 Q97.95 57.05 96.5 58.25 95.55 59.1 92.55 59.15 L88.3 59.45 85.75 60.45 83.05 60.8 80.1 59.85" fill="#f8da7a" fill-rule="evenodd" stroke="none"/>
      <path d="M45.5 54.9 Q51.9 54.65 56.0 54.8 55.95 56.4 50.0 57.85 L42.3 59.2 Q40.6 59.5 39.0 59.2 L36.0 58.55 29.9 58.75 Q25.95 59.05 24.25 57.75 25.15 56.75 27.45 56.1 L29.75 55.8 27.4 55.25 30.45 55.1 35.0 55.3 45.5 54.9 M27.4 55.25 L26.05 55.5 Q26.15 55.1 26.55 55.05 L27.4 55.25" fill="#f8da7a" fill-rule="evenodd" stroke="none"/>
      <path d="M41.5 45.0 L45.8 44.85 52.65 44.25 Q56.9 43.95 59.3 44.75 59.05 46.05 52.45 46.25 L43.8 46.55 Q40.15 47.25 37.25 48.45 29.85 51.6 29.3 50.3 L27.55 52.05 Q25.75 49.75 30.35 47.85 32.85 46.85 37.3 45.7 L41.5 45.0" fill="#f8da7a" fill-rule="evenodd" stroke="none"/>
      <path d="M83.3 41.8 L94.05 42.55 Q92.55 43.35 88.75 43.6 L83.15 44.05 Q74.7 45.55 72.3 43.05 74.95 42.0 77.85 41.55 L83.3 41.8" fill="#f8da7a" fill-rule="evenodd" stroke="none"/>
      <path d="M125.25 39.1 Q129.3 39.25 130.55 40.85 L126.4 40.4 122.25 39.9 116.95 40.25 111.6 40.6 106.15 40.35 Q102.75 40.1 100.8 40.25 L94.4 40.9 87.85 41.25 Q89.5 40.15 92.9 39.05 96.35 38.0 96.95 38.75 L97.85 38.75 100.85 38.85 106.5 39.15 112.1 39.3 119.3 39.25 125.25 39.1" fill="#f8da7a" fill-rule="evenodd" stroke="none"/>
      <path d="M123.4 40.65 L120.3 40.55 103.75 40.05 91.25 41.25 Q83.25 42.0 79.15 40.25 L82.3 40.05 80.8 40.3 Q85.25 40.25 94.3 38.65 103.2 37.05 108.05 37.05 L120.25 38.05 132.05 40.2 135.6 40.75 133.8 41.05 132.1 41.35 132.2 41.55 129.35 41.6 126.5 40.85 123.4 40.65" fill="#f8da7a" fill-rule="evenodd" stroke="none"/>
      <path d="M123.05 41.6 L125.3 41.6 Q122.7 42.9 115.05 42.5 116.05 41.7 118.35 41.55 L122.05 41.55 121.8 41.5 123.05 41.6" fill="#f8da7a" fill-rule="evenodd" stroke="none"/>
      <path d="M103.05 46.3 L107.55 46.2 113.25 46.55 105.1 47.3 96.6 47.8 Q99.9 46.75 103.05 46.3" fill="#f8da7a" fill-rule="evenodd" stroke="none"/>
      <path d="M148.7 72.7 L154.15 72.0 159.45 70.7 Q161.8 70.3 163.95 69.15 L167.8 66.45 Q170.15 64.55 172.6 63.7 L178.05 62.45 184.8 61.6 Q189.9 60.7 190.5 58.8 190.7 58.1 188.3 55.65 186.35 53.65 188.6 52.35 188.0 54.2 190.9 55.2 194.95 56.55 195.4 57.0 197.4 58.9 195.25 60.9 L190.4 63.75 Q186.45 65.7 178.0 66.15 169.5 66.55 165.75 68.35 167.5 73.65 159.95 75.85 154.8 77.35 148.15 77.05 L135.45 74.9 Q127.8 73.7 123.0 75.95 107.9 83.05 87.7 77.3 L82.6 75.45 Q79.75 74.4 77.4 74.35 L72.5 74.9 67.65 75.7 Q61.1 76.25 56.7 74.35 55.25 73.75 53.75 72.0 52.3 70.25 51.05 69.75 48.25 68.7 40.4 69.8 33.2 70.85 29.8 68.6 28.7 67.85 27.7 65.7 26.8 63.65 25.0 62.8 L20.8 61.45 Q18.15 60.4 18.75 58.45 19.1 57.25 21.8 56.2 L25.4 54.7 Q27.25 53.4 26.8 51.9 26.3 50.45 27.35 49.65 L27.0 50.4 27.7 50.35 28.05 50.05 Q27.45 50.75 27.9 51.4 L28.7 52.6 29.35 52.95 Q30.0 53.2 30.05 53.7 30.15 54.2 29.7 54.75 L29.0 55.65 27.1 58.95 Q26.5 60.45 27.95 62.45 30.65 66.05 34.75 65.9 L42.65 64.7 52.05 65.05 Q54.75 65.45 57.3 66.9 L62.05 69.7 Q65.85 71.6 72.85 70.7 L84.1 69.35 Q87.0 69.35 90.35 70.55 L96.4 72.7 Q101.2 74.0 108.15 73.7 L123.75 72.7 128.75 71.75 133.8 71.0 141.25 71.8 148.7 72.7" fill="#f8da7a" fill-rule="evenodd" stroke="none"/>
      <path d="M139.25 54.5 L135.25 55.1 131.3 54.8 128.85 53.75 Q127.45 53.15 125.85 53.25 126.9 52.45 128.0 52.2 L128.55 52.15 128.8 52.1 129.5 52.05 131.3 52.05 130.5 52.75 Q132.5 54.75 139.25 54.5" fill="#e3c770" fill-rule="evenodd" stroke="none"/>
      <path d="M126.55 68.55 L129.0 68.1 132.0 68.05 Q131.45 69.55 126.55 69.3 L126.55 68.55" fill="#e3c770" fill-rule="evenodd" stroke="none"/>
      <path d="M116.55 60.8 L112.8 61.3 118.95 61.25 Q122.65 61.3 124.85 62.05 123.95 62.5 121.85 62.55 L118.55 62.55 111.5 63.4 104.55 63.05 Q105.65 61.55 110.1 61.05 L116.55 60.8" fill="#e3c770" fill-rule="evenodd" stroke="none"/>
      <path d="M82.75 51.8 L97.3 51.6 95.45 51.85 91.75 52.5 Q88.4 52.9 81.55 52.5 82.0 52.1 82.75 51.8" fill="#e3c770" fill-rule="evenodd" stroke="none"/>
      <path d="M78.2 58.75 L73.25 58.3 81.45 56.75 Q86.65 55.7 89.55 56.8 L81.3 57.55 87.7 57.25 Q92.0 57.25 93.6 58.3 92.25 59.15 88.8 59.25 L83.55 59.25 78.2 58.75" fill="#e3c770" fill-rule="evenodd" stroke="none"/>
      <path d="M159.35 75.3 L151.9 76.35 Q146.9 76.6 144.8 75.35 L154.8 74.5 Q160.5 73.5 163.3 70.05 L162.3 70.05 164.3 69.5 166.25 69.55 Q166.8 71.45 163.95 73.35 161.75 74.75 159.35 75.3" fill="#e3c770" fill-rule="evenodd" stroke="none"/>
      <path d="M185.55 65.4 L178.1 65.75 Q178.35 65.0 179.8 64.35 L181.3 63.45 180.55 63.05 181.5 63.05 181.3 63.45 Q183.0 64.05 185.9 63.45 188.7 62.9 191.25 61.55 190.35 64.4 185.55 65.4" fill="#e3c770" fill-rule="evenodd" stroke="none"/>
      <path d="M78.75 73.8 L72.05 74.55 61.75 75.2 Q53.75 74.75 54.35 71.3 59.85 75.45 66.1 74.3 L75.4 72.75 84.45 72.3 84.95 72.45 Q86.4 73.0 87.05 74.75 L82.9 74.45 78.75 73.8" fill="#e3c770" fill-rule="evenodd" stroke="none"/>
      <path d="M38.05 67.05 L38.8 66.8 42.5 66.55 Q43.05 69.65 35.6 69.7 28.1 69.75 28.85 67.05 L33.8 67.65 Q37.25 68.0 38.05 67.05" fill="#e3c770" fill-rule="evenodd" stroke="none"/>
      <path d="M44.55 56.9 L48.55 57.05 54.6 56.9 60.55 56.3 Q54.2 59.15 39.55 58.55 34.35 58.25 29.75 57.2 L25.05 57.3 20.4 57.8 Q21.05 57.65 23.05 56.0 24.7 54.6 25.55 55.05 L23.3 56.05 30.05 56.85 Q31.85 57.05 35.3 56.75 L40.6 56.55 44.55 56.9" fill="#e3c770" fill-rule="evenodd" stroke="none"/>
      <path d="M51.25 43.95 L55.3 44.55 64.55 45.1 54.9 45.8 45.5 45.3 Q45.25 45.4 45.05 45.55 L44.75 45.45 Q44.6 45.4 44.75 45.25 L45.5 45.3 45.8 45.05 47.35 43.3 51.25 43.95" fill="#e3c770" fill-rule="evenodd" stroke="none"/>
      <path d="M93.6 40.05 L96.55 39.25 99.55 38.8 100.3 38.55 103.55 39.05 102.3 39.95 105.25 40.3 108.1 40.55 Q106.35 41.7 100.85 41.25 96.3 40.9 93.6 40.05" fill="#e3c770" fill-rule="evenodd" stroke="none"/>
    </g>
    <g id="sprite1" transform="matrix(1.0, 0.0, 0.0, 1.0, 0.05, 0.0)">
      <use height="12.25" transform="matrix(1.0, 0.0, 0.0, 1.0, -0.05, 0.0)" width="53.5" xlink:href="#shape2"/>
    </g>
    <g id="shape2" transform="matrix(1.0, 0.0, 0.0, 1.0, 0.05, 0.0)">
      <path d="M48.2 2.05 Q54.65 3.7 53.15 6.65 52.4 8.15 49.0 9.05 L44.05 10.0 36.15 11.1 28.15 11.8 20.2 12.25 Q15.4 12.25 12.4 11.3 L7.5 9.9 Q4.55 9.05 2.7 8.1 0.3 6.95 0.0 5.5 -0.15 4.55 0.45 3.65 1.05 2.75 2.0 2.85 3.45 2.15 5.4 1.75 L10.7 1.0 Q28.25 -0.8 40.05 0.7 L48.2 2.05" fill="#000000" fill-rule="evenodd" stroke="none"/>
    </g>
    <g id="shape3" transform="matrix(1.0, 0.0, 0.0, 1.0, -81.2, -65.05)">
      <path d="M133.25 71.85 Q133.25 74.7 125.65 76.7 118.0 78.7 107.2 78.7 96.45 78.7 88.8 76.7 81.2 74.7 81.2 71.85 81.2 69.05 88.8 67.05 96.45 65.05 107.2 65.05 118.0 65.05 125.65 67.05 133.25 69.05 133.25 71.85" fill="#d66355" fill-rule="evenodd" stroke="none"/>
      <path d="M124.85 74.8 Q122.0 75.9 118.5 76.25 L111.9 76.6 Q99.8 77.15 96.25 76.95 83.55 76.2 84.7 71.1 L84.45 71.15 Q86.5 68.8 88.65 70.0 L92.35 72.4 95.35 72.3 98.25 72.1 Q98.95 72.3 99.85 73.0 L101.4 73.9 Q102.8 74.3 105.85 73.9 L110.45 73.7 Q112.95 74.05 114.85 73.75 117.8 73.25 115.75 71.15 116.75 70.85 120.9 71.25 124.4 71.6 125.4 70.6 L124.65 69.65 Q126.05 69.35 127.1 69.95 128.2 70.55 128.3 71.8 128.45 73.1 127.3 73.8 L124.85 74.8" fill="#c75c4f" fill-rule="evenodd" stroke="none"/>
      <path d="M128.0 67.75 L124.25 67.1 120.4 66.85 Q120.05 66.9 119.55 67.25 L118.6 67.65 116.65 67.3 114.7 66.95 112.1 67.1 109.25 67.05 100.9 66.65 Q101.2 68.4 97.4 68.6 L92.1 68.55 Q87.85 69.15 86.0 70.05 85.85 70.15 84.05 71.35 82.9 72.1 81.9 72.1 81.75 71.1 81.95 70.25 84.05 68.0 91.05 66.55 98.15 65.05 107.2 65.05 120.25 65.05 128.0 67.75" fill="#c75c4f" fill-rule="evenodd" stroke="none"/>
      <path d="M125.7 73.85 L127.75 72.5 130.0 71.0 129.05 70.9 130.4 70.85 132.65 70.55 132.75 70.55 133.25 71.85 Q133.25 74.7 125.65 76.7 118.0 78.7 107.2 78.7 L104.3 78.65 Q106.85 77.3 111.4 76.15 L117.6 75.45 121.75 74.95 Q124.1 74.65 125.7 73.85" fill="#c75c4f" fill-rule="evenodd" stroke="none"/>
      <path d="M123.35 67.7 Q130.1 69.35 130.1 71.7 130.1 74.05 123.35 75.75 116.6 77.4 107.05 77.4 97.5 77.4 90.75 75.75 84.0 74.05 84.0 71.7 84.0 70.65 85.55 69.65 84.7 70.35 84.7 71.05 84.7 73.1 91.1 74.6 97.5 76.05 106.55 76.05 115.6 76.05 121.95 74.6 128.35 73.1 128.35 71.05 128.35 69.0 122.05 67.5 L117.05 66.6 123.35 67.7" fill="#b35247" fill-rule="evenodd" stroke="none"/>
      <path d="M123.55 68.7 Q123.55 69.05 122.4 69.3 L119.65 69.55 116.9 69.3 Q115.75 69.05 115.75 68.7 115.75 68.35 116.9 68.15 L119.65 67.9 122.4 68.15 Q123.55 68.35 123.55 68.7" fill="#b35247" fill-rule="evenodd" stroke="none"/>
      <path d="M119.15 71.65 Q119.15 72.05 118.3 72.35 L116.25 72.65 114.25 72.35 Q113.4 72.05 113.4 71.65 113.4 71.2 114.25 70.95 L116.25 70.65 118.3 70.95 Q119.15 71.2 119.15 71.65" fill="#b35247" fill-rule="evenodd" stroke="none"/>
      <path d="M109.75 69.0 Q109.75 69.25 109.15 69.45 L107.8 69.65 106.4 69.45 105.85 69.0 Q105.85 68.4 107.8 68.4 109.75 68.4 109.75 69.0" fill="#b35247" fill-rule="evenodd" stroke="none"/>
      <path d="M108.7 73.15 Q108.7 73.55 107.95 73.85 L106.1 74.15 104.25 73.85 Q103.5 73.55 103.5 73.15 103.5 72.7 104.25 72.45 L106.1 72.15 107.95 72.45 Q108.7 72.7 108.7 73.15" fill="#b35247" fill-rule="evenodd" stroke="none"/>
      <path d="M104.0 71.15 Q104.0 71.65 101.9 71.65 99.85 71.65 99.85 71.15 99.85 70.65 101.9 70.65 104.0 70.65 104.0 71.15" fill="#b35247" fill-rule="evenodd" stroke="none"/>
      <path d="M96.45 73.5 Q96.45 73.95 95.35 74.3 L92.65 74.65 90.0 74.3 Q88.9 73.95 88.9 73.5 88.9 73.05 90.0 72.75 L92.65 72.4 95.35 72.75 Q96.45 73.05 96.45 73.5" fill="#b35247" fill-rule="evenodd" stroke="none"/>
      <path d="M97.75 70.0 L96.95 70.45 95.0 70.65 Q92.3 70.65 92.3 70.0 92.3 69.4 95.0 69.4 97.75 69.4 97.75 70.0" fill="#b35247" fill-rule="evenodd" stroke="none"/>
      <path d="M101.4 67.4 Q101.4 67.9 99.45 67.9 97.5 67.9 97.5 67.4 97.5 66.9 99.45 66.9 101.4 66.9 101.4 67.4" fill="#b35247" fill-rule="evenodd" stroke="none"/>
      <path d="M119.15 74.65 Q119.15 75.05 118.2 75.35 L116.0 75.65 113.75 75.35 Q112.85 75.05 112.85 74.65 112.85 74.2 113.75 73.95 L116.0 73.65 118.2 73.95 Q119.15 74.2 119.15 74.65" fill="#b35247" fill-rule="evenodd" stroke="none"/>
      <path d="M84.35 70.25 Q83.4 71.35 85.35 72.85 86.8 74.0 88.35 74.5 91.15 75.5 93.75 76.1 L91.1 76.0 87.8 75.7 Q84.25 74.95 83.6 73.7 83.05 72.8 83.1 71.5 83.15 70.0 84.35 70.25 M93.75 76.1 L94.45 76.15 97.25 76.6 99.1 76.85 93.75 76.1" fill="#ff7566" fill-rule="evenodd" stroke="none"/>
      <path d="M114.05 76.9 Q113.8 77.8 110.65 77.8 L106.35 77.65 103.8 77.4 102.35 77.25 108.1 76.75 114.05 76.9" fill="#ff7566" fill-rule="evenodd" stroke="none"/>
      <path d="M118.25 66.0 L120.8 66.75 123.3 67.5 119.25 66.85 115.5 66.9 Q112.7 66.9 112.2 66.4 112.65 65.9 114.2 65.8 L115.85 65.9 118.25 66.0" fill="#ff7566" fill-rule="evenodd" stroke="none"/>
    </g>
    <g id="sprite2" transform="matrix(1.0, 0.0, 0.0, 1.0, 0.0, 0.0)">
      <use height="9.75" transform="matrix(1.0, 0.0, 0.0, 1.0, 0.0, 0.0)" width="49.15" xlink:href="#shape4"/>
    </g>
    <g id="shape4" transform="matrix(1.0, 0.0, 0.0, 1.0, 0.0, 0.0)">
      <path d="M42.3 1.15 Q45.05 1.2 46.5 2.0 48.45 3.05 49.0 4.45 49.55 5.8 48.35 6.5 47.45 7.0 44.7 7.7 L40.9 8.7 Q38.65 9.5 34.35 9.7 L27.55 9.6 20.85 9.2 14.6 8.95 Q11.1 8.7 8.5 7.85 L4.0 6.6 Q1.3 5.7 0.0 4.15 0.35 3.45 1.25 2.95 2.1 2.4 2.7 2.5 L1.85 3.0 3.45 2.55 4.9 1.9 8.0 1.2 26.5 0.0 37.85 0.95 42.3 1.15" fill="#000000" fill-rule="evenodd" stroke="none"/>
    </g>
    <g id="shape5" transform="matrix(1.0, 0.0, 0.0, 1.0, -132.7, -58.2)">
      <path d="M156.35 58.2 Q166.15 58.2 173.05 59.85 180.0 61.5 180.0 63.85 180.0 66.2 173.05 67.9 166.15 69.55 156.35 69.55 146.55 69.55 139.65 67.9 132.7 66.2 132.7 63.85 132.7 61.5 139.65 59.85 146.6 58.2 156.35 58.2" fill="#d66355" fill-rule="evenodd" stroke="none"/>
      <path d="M145.55 64.2 L148.2 64.05 Q148.8 64.2 149.65 64.8 L151.05 65.55 Q152.3 65.9 155.1 65.55 L159.3 65.35 Q161.45 65.7 163.3 65.4 165.95 65.05 164.1 63.3 165.0 63.05 168.75 63.35 172.0 63.6 172.9 62.8 L172.15 62.05 174.4 62.25 Q175.4 62.75 175.5 63.8 175.6 64.85 174.55 65.45 L172.35 66.3 Q169.8 67.2 166.6 67.5 L160.6 67.8 Q148.85 68.2 146.4 68.05 134.8 67.45 135.9 63.2 L135.65 63.25 Q137.5 61.3 139.45 62.3 L142.8 64.3 145.55 64.2" fill="#c75c4f" fill-rule="evenodd" stroke="none"/>
      <path d="M160.8 59.9 L158.15 59.9 150.6 59.55 Q150.9 61.0 147.4 61.15 L142.6 61.1 Q138.9 61.6 137.05 62.35 L135.25 63.45 Q134.25 64.05 133.3 64.05 133.2 63.15 133.4 62.5 135.3 60.65 141.65 59.45 148.1 58.2 156.35 58.2 L167.05 58.8 Q171.9 59.4 175.2 60.45 L171.8 59.95 168.35 59.7 Q168.0 59.75 167.55 60.05 L166.7 60.35 164.9 60.1 163.1 59.75 160.8 59.9" fill="#c75c4f" fill-rule="evenodd" stroke="none"/>
      <path d="M156.35 69.55 L153.65 69.5 Q156.2 68.25 160.1 67.45 L165.8 66.8 169.55 66.45 173.15 65.5 175.0 64.4 177.05 63.15 176.15 63.05 177.4 63.0 179.45 62.75 179.55 62.75 180.0 63.85 Q180.0 66.2 173.05 67.9 166.15 69.55 156.35 69.55" fill="#c75c4f" fill-rule="evenodd" stroke="none"/>
      <path d="M156.2 68.45 Q147.55 68.45 141.4 67.05 135.25 65.65 135.25 63.75 135.25 62.85 136.65 62.05 135.85 62.6 135.85 63.2 135.85 64.9 141.65 66.1 147.5 67.3 155.7 67.3 163.95 67.3 169.75 66.1 175.55 64.9 175.55 63.2 175.55 61.5 169.8 60.25 L166.85 59.75 171.0 60.45 Q177.15 61.8 177.15 63.75 177.15 65.65 171.0 67.05 164.85 68.45 156.2 68.45" fill="#b35247" fill-rule="evenodd" stroke="none"/>
      <path d="M144.35 67.4 L141.7 67.3 138.7 67.05 Q135.45 66.45 134.85 65.4 134.35 64.6 134.4 63.55 134.45 62.3 135.55 62.5 134.7 63.45 136.45 64.7 137.75 65.6 139.2 66.05 L144.35 67.4" fill="#ff7566" fill-rule="evenodd" stroke="none"/>
      <path d="M151.95 68.3 L157.15 67.9 162.55 68.05 Q162.35 68.75 159.45 68.75 L155.55 68.65 153.25 68.45 151.95 68.3" fill="#ff7566" fill-rule="evenodd" stroke="none"/>
      <path d="M162.65 58.8 L164.3 58.95 166.35 59.0 168.7 59.65 170.9 60.25 167.25 59.7 163.85 59.75 Q161.35 59.75 160.85 59.3 161.25 58.9 162.65 58.8" fill="#ff7566" fill-rule="evenodd" stroke="none"/>
      <path d="M150.6 63.9 L149.75 64.45 147.7 64.65 145.65 64.45 144.8 63.9 Q144.8 63.6 145.65 63.4 L147.7 63.15 149.75 63.4 Q150.6 63.6 150.6 63.9" fill="#b35247" fill-rule="evenodd" stroke="none"/>
      <path d="M157.8 65.6 Q157.8 66.0 156.9 66.25 L154.8 66.5 152.7 66.25 Q151.8 66.0 151.8 65.6 151.8 65.2 152.7 64.9 L154.8 64.65 156.9 64.9 Q157.8 65.2 157.8 65.6" fill="#b35247" fill-rule="evenodd" stroke="none"/>
      <path d="M159.2 61.35 Q161.45 61.35 161.45 62.1 L160.8 62.65 159.2 62.85 157.6 62.65 156.95 62.1 Q156.95 61.75 157.6 61.55 L159.2 61.35" fill="#b35247" fill-rule="evenodd" stroke="none"/>
      <path d="M170.6 64.9 L169.75 65.45 167.7 65.65 165.65 65.45 Q164.8 65.2 164.8 64.9 164.8 64.6 165.65 64.4 L167.7 64.15 169.75 64.4 Q170.6 64.6 170.6 64.9" fill="#b35247" fill-rule="evenodd" stroke="none"/>
      <path d="M166.8 63.1 Q166.8 63.65 164.55 63.65 162.3 63.65 162.3 63.1 162.3 62.5 164.55 62.5 166.8 62.5 166.8 63.1" fill="#b35247" fill-rule="evenodd" stroke="none"/>
      <path d="M170.6 60.4 Q170.6 61.0 168.35 61.0 166.1 61.0 166.1 60.4 166.1 60.2 166.8 60.0 L168.35 59.85 Q170.6 59.85 170.6 60.4" fill="#b35247" fill-rule="evenodd" stroke="none"/>
      <path d="M142.6 63.85 Q142.6 64.5 139.95 64.5 L138.1 64.3 Q137.3 64.1 137.3 63.85 137.3 63.55 138.1 63.35 L139.95 63.15 141.8 63.35 Q142.6 63.55 142.6 63.85" fill="#b35247" fill-rule="evenodd" stroke="none"/>
      <path d="M146.95 61.5 Q146.95 61.85 146.15 62.1 L144.3 62.35 142.4 62.1 Q141.6 61.85 141.6 61.5 141.6 61.15 142.4 60.9 L144.3 60.65 146.15 60.9 Q146.95 61.15 146.95 61.5" fill="#b35247" fill-rule="evenodd" stroke="none"/>
      <path d="M156.95 60.85 Q156.95 61.05 156.3 61.2 L154.7 61.35 Q152.45 61.35 152.45 60.85 152.45 60.35 154.7 60.35 156.95 60.35 156.95 60.85" fill="#b35247" fill-rule="evenodd" stroke="none"/>
      <path d="M152.6 59.5 Q152.6 59.85 151.1 59.85 149.6 59.85 149.6 59.5 149.6 59.15 151.1 59.15 152.6 59.15 152.6 59.5" fill="#b35247" fill-rule="evenodd" stroke="none"/>
      <path d="M176.1 62.85 Q176.1 63.1 175.45 63.3 L173.85 63.5 172.3 63.3 Q171.6 63.1 171.6 62.85 171.6 62.55 172.3 62.35 L173.85 62.15 Q176.1 62.15 176.1 62.85" fill="#b35247" fill-rule="evenodd" stroke="none"/>
      <path d="M173.8 60.85 L173.3 60.65 176.1 61.35 176.1 61.95 173.15 61.5 Q171.15 61.0 170.4 60.5 171.4 60.1 173.8 60.85" fill="#ff7566" fill-rule="evenodd" stroke="none"/>
    </g>
    <g id="sprite3" transform="matrix(1.0, 0.0, 0.0, 1.0, 0.0, 0.0)">
      <use height="6.75" transform="matrix(1.0, 0.0, 0.0, 1.0, 0.0, 0.0)" width="39.35" xlink:href="#shape6"/>
    </g>
    <g id="shape6" transform="matrix(1.0, 0.0, 0.0, 1.0, 0.0, 0.0)">
      <path d="M35.7 1.55 L38.5 2.25 Q40.05 2.95 38.85 4.0 L37.05 4.75 35.0 5.2 Q27.6 7.05 20.85 6.7 L14.6 6.35 8.35 5.85 3.7 5.4 Q0.15 4.75 0.0 3.55 -0.1 2.3 1.6 1.65 3.0 1.05 4.35 1.2 L4.0 0.35 8.95 1.05 13.9 0.5 Q24.5 -0.9 35.7 1.55" fill="#000000" fill-rule="evenodd" stroke="none"/>
    </g>
    <g id="shape7" transform="matrix(1.0, 0.0, 0.0, 1.0, -146.5, -47.95)">
      <path d="M179.9 49.05 Q185.6 50.15 185.6 51.7 185.6 53.2 179.9 54.3 L166.1 55.4 Q157.95 55.4 152.25 54.3 146.5 53.2 146.5 51.7 146.5 50.15 152.25 49.05 157.95 47.95 166.1 47.95 174.2 47.95 179.9 49.05" fill="#d66355" fill-rule="evenodd" stroke="none"/>
      <path d="M161.7 52.75 Q162.8 52.95 165.05 52.8 L168.5 52.65 Q170.4 52.85 171.8 52.65 174.05 52.4 172.5 51.25 173.25 51.1 176.35 51.3 L179.75 51.0 179.2 50.5 181.05 50.6 Q181.85 50.95 181.9 51.65 182.0 52.35 181.2 52.7 L179.35 53.3 174.55 54.05 169.6 54.25 157.85 54.4 Q148.2 54.0 149.2 51.2 L148.95 51.25 Q150.5 50.0 152.1 50.65 L154.85 51.95 157.1 51.9 159.35 51.8 160.5 52.3 161.7 52.75" fill="#c75c4f" fill-rule="evenodd" stroke="none"/>
      <path d="M166.1 47.95 Q175.85 47.95 181.7 49.4 L178.85 49.1 176.0 48.95 175.3 49.15 174.65 49.35 173.15 49.2 171.65 49.0 167.6 49.05 161.35 48.85 Q161.55 49.8 158.65 49.85 L154.7 49.85 Q151.45 50.2 150.1 50.7 148.25 51.8 147.0 51.8 146.9 51.2 147.05 50.8 148.65 49.55 153.95 48.8 L166.1 47.95" fill="#c75c4f" fill-rule="evenodd" stroke="none"/>
      <path d="M185.25 50.95 Q185.6 51.25 185.6 51.7 185.6 53.2 179.9 54.3 L166.1 55.4 163.85 55.4 Q165.45 54.7 169.2 54.0 L173.85 53.6 176.95 53.4 180.0 52.75 181.55 52.05 Q182.65 51.4 183.2 51.2 L182.5 51.1 183.5 51.1 185.2 50.95 185.25 50.95" fill="#c75c4f" fill-rule="evenodd" stroke="none"/>
      <path d="M172.05 48.7 L178.2 49.4 Q183.3 50.3 183.3 51.55 183.3 52.85 178.2 53.75 L165.95 54.65 153.65 53.75 Q148.6 52.85 148.6 51.55 148.6 51.0 149.75 50.45 149.15 50.85 149.15 51.2 149.15 52.35 153.95 53.1 L165.55 53.95 177.15 53.1 Q181.95 52.35 181.95 51.2 181.95 50.1 177.2 49.3 L172.05 48.7" fill="#b35247" fill-rule="evenodd" stroke="none"/>
      <path d="M156.1 54.0 L154.0 53.9 151.45 53.75 Q148.9 53.45 148.3 52.65 147.95 52.15 147.95 51.45 148.0 50.65 148.9 50.8 148.15 51.4 149.6 52.2 150.6 52.75 151.85 53.1 L156.1 54.0" fill="#ff7566" fill-rule="evenodd" stroke="none"/>
      <path d="M163.5 54.65 L162.45 54.6 166.7 54.35 171.2 54.4 Q171.0 54.85 168.6 54.85 L165.4 54.8 163.5 54.65" fill="#ff7566" fill-rule="evenodd" stroke="none"/>
      <path d="M171.3 48.4 L172.4 48.4 174.35 48.5 176.3 48.9 178.0 49.3 175.1 48.95 172.25 48.95 169.8 48.7 Q170.1 48.4 171.3 48.4" fill="#ff7566" fill-rule="evenodd" stroke="none"/>
      <path d="M156.5 51.85 Q156.5 52.2 154.6 52.2 152.65 52.2 152.65 51.85 152.65 51.4 154.6 51.4 156.5 51.4 156.5 51.85" fill="#b35247" fill-rule="evenodd" stroke="none"/>
      <path d="M161.45 52.7 Q161.45 53.15 159.7 53.15 157.9 53.15 157.9 52.7 157.9 52.2 159.7 52.2 161.45 52.2 161.45 52.7" fill="#b35247" fill-rule="evenodd" stroke="none"/>
      <path d="M161.35 51.4 Q161.35 51.75 159.9 51.75 158.4 51.75 158.4 51.4 158.4 51.1 159.9 51.1 161.35 51.1 161.35 51.4" fill="#b35247" fill-rule="evenodd" stroke="none"/>
      <path d="M173.35 49.2 L171.0 49.55 168.65 49.2 Q168.65 48.8 171.0 48.8 173.35 48.8 173.35 49.2" fill="#b35247" fill-rule="evenodd" stroke="none"/>
      <path d="M176.5 50.55 L176.0 50.95 174.8 51.1 Q173.05 51.1 173.05 50.55 173.05 50.05 174.8 50.05 176.5 50.05 176.5 50.55" fill="#b35247" fill-rule="evenodd" stroke="none"/>
      <path d="M179.95 49.7 L178.45 49.85 176.9 49.7 178.45 49.55 179.95 49.7" fill="#b35247" fill-rule="evenodd" stroke="none"/>
      <path d="M170.4 50.5 Q170.4 50.9 168.65 50.9 166.85 50.9 166.85 50.5 166.85 50.15 168.65 50.15 170.4 50.15 170.4 50.5" fill="#b35247" fill-rule="evenodd" stroke="none"/>
      <path d="M176.35 53.1 Q176.35 53.35 175.6 53.5 L174.0 53.65 172.25 53.5 171.55 53.1 Q171.55 52.6 174.0 52.6 176.35 52.6 176.35 53.1" fill="#b35247" fill-rule="evenodd" stroke="none"/>
      <path d="M171.4 52.15 L169.55 52.5 Q167.7 52.5 167.7 52.15 167.7 51.75 169.55 51.75 171.4 51.75 171.4 52.15" fill="#b35247" fill-rule="evenodd" stroke="none"/>
      <path d="M164.9 49.75 Q164.9 50.25 162.7 50.25 160.5 50.25 160.5 49.75 160.5 49.35 162.7 49.35 164.9 49.35 164.9 49.75" fill="#b35247" fill-rule="evenodd" stroke="none"/>
      <path d="M160.5 49.2 L158.5 49.45 156.5 49.2 158.5 48.9 Q160.5 48.9 160.5 49.2" fill="#b35247" fill-rule="evenodd" stroke="none"/>
      <path d="M180.95 51.0 L179.15 51.2 177.3 51.0 179.15 50.75 180.95 51.0" fill="#b35247" fill-rule="evenodd" stroke="none"/>
    </g>
    <g id="sprite4" transform="matrix(1.0, 0.0, 0.0, 1.0, 0.0, 0.0)">
      <use height="7.45" transform="matrix(1.0, 0.0, 0.0, 1.0, 0.0, 0.0)" width="40.75" xlink:href="#shape8"/>
    </g>
    <g id="shape8" transform="matrix(1.0, 0.0, 0.0, 1.0, 0.0, 0.0)">
      <path d="M23.3 0.0 Q30.25 0.0 36.0 1.2 L39.05 1.85 Q41.05 2.55 40.7 3.9 40.5 4.65 39.15 5.15 L37.05 5.8 Q34.15 6.7 29.35 6.85 L21.55 6.95 16.95 7.35 Q14.15 7.6 12.35 7.35 L8.8 6.55 5.25 5.75 2.45 5.55 Q0.7 5.3 0.2 4.4 -0.7 2.65 2.35 1.6 L0.35 2.1 Q2.4 1.4 5.35 1.15 L10.55 0.8 23.3 0.0" fill="#000000" fill-rule="evenodd" stroke="none"/>
    </g>
    <g id="shape9" transform="matrix(1.0, 0.0, 0.0, 1.0, -85.85, -50.3)">
      <path d="M121.5 51.5 Q127.55 52.75 127.55 54.5 127.55 56.25 121.5 57.5 115.4 58.75 106.75 58.75 98.05 58.75 92.0 57.5 85.85 56.25 85.85 54.5 85.85 52.75 92.0 51.5 98.1 50.3 106.75 50.3 115.35 50.3 121.5 51.5" fill="#d66355" fill-rule="evenodd" stroke="none"/>
      <path d="M115.75 57.25 L110.45 57.45 Q101.35 57.8 97.95 57.65 87.6 57.2 88.7 54.05 L88.5 54.05 Q90.15 52.55 91.85 53.35 L94.8 54.8 97.2 54.75 99.6 54.65 Q100.1 54.75 100.8 55.2 L102.05 55.75 Q103.2 56.0 105.65 55.8 L109.3 55.65 Q111.5 55.85 112.9 55.65 115.2 55.4 113.6 54.1 114.4 53.9 117.7 54.15 120.5 54.35 121.35 53.75 L120.7 53.15 122.65 53.3 Q123.55 53.75 123.65 54.5 123.75 55.3 122.8 55.75 L120.85 56.3 Q118.6 57.05 115.75 57.25" fill="#c75c4f" fill-rule="evenodd" stroke="none"/>
      <path d="M106.75 50.3 Q117.1 50.3 123.4 52.0 L120.4 51.55 117.3 51.4 116.6 51.65 115.85 51.85 114.3 51.65 112.7 51.45 108.35 51.5 101.7 51.3 Q101.9 52.4 98.85 52.5 L94.6 52.45 89.75 53.35 Q89.7 53.35 88.15 54.2 L86.45 54.65 Q86.3 54.05 86.5 53.5 88.2 52.15 93.75 51.2 L106.75 50.3" fill="#c75c4f" fill-rule="evenodd" stroke="none"/>
      <path d="M125.3 53.9 L127.1 53.7 127.2 53.7 Q127.55 54.05 127.55 54.5 127.55 56.25 121.5 57.5 115.4 58.75 106.75 58.75 L104.35 58.75 Q106.5 57.85 110.05 57.2 L115.1 56.7 118.4 56.45 121.6 55.75 Q122.1 55.6 123.2 54.9 L125.0 54.0 124.2 53.9 125.3 53.9" fill="#c75c4f" fill-rule="evenodd" stroke="none"/>
      <path d="M118.6 56.15 Q123.7 55.3 123.7 54.0 123.7 52.7 118.6 51.8 L114.6 51.25 119.7 51.95 Q125.1 52.95 125.1 54.4 125.1 55.85 119.7 56.85 L106.6 57.9 93.55 56.85 Q88.15 55.85 88.15 54.4 88.15 53.75 89.4 53.15 88.65 53.6 88.65 54.0 88.65 55.3 93.8 56.15 L106.2 57.1 118.6 56.15" fill="#b35247" fill-rule="evenodd" stroke="none"/>
      <path d="M88.4 53.5 Q87.6 54.2 89.2 55.1 90.35 55.85 91.65 56.15 L96.25 57.2 93.85 57.1 91.2 56.85 Q88.35 56.4 87.8 55.65 87.35 55.05 87.4 54.3 87.45 53.35 88.4 53.5" fill="#ff7566" fill-rule="evenodd" stroke="none"/>
      <path d="M102.75 57.85 L107.4 57.55 112.2 57.6 Q112.0 58.15 109.45 58.15 L106.0 58.05 104.0 57.95 102.75 57.85" fill="#ff7566" fill-rule="evenodd" stroke="none"/>
      <path d="M115.55 50.9 L117.6 51.35 119.35 51.75 113.35 51.4 110.7 51.1 111.7 50.8 112.3 50.75 113.5 50.8 115.55 50.9" fill="#ff7566" fill-rule="evenodd" stroke="none"/>
      <path d="M96.55 54.65 Q96.55 55.1 94.5 55.1 92.4 55.1 92.4 54.65 92.4 54.25 94.5 54.25 L95.9 54.4 96.55 54.65" fill="#b35247" fill-rule="evenodd" stroke="none"/>
      <path d="M101.85 55.7 Q101.85 56.2 99.95 56.2 98.0 56.2 98.0 55.7 98.0 55.1 99.95 55.1 101.85 55.1 101.85 55.7" fill="#b35247" fill-rule="evenodd" stroke="none"/>
      <path d="M101.7 54.25 Q101.7 54.6 100.15 54.6 98.6 54.6 98.6 54.25 98.6 53.9 100.15 53.9 101.7 53.9 101.7 54.25" fill="#b35247" fill-rule="evenodd" stroke="none"/>
      <path d="M114.45 51.65 Q114.45 52.15 111.95 52.15 109.45 52.15 109.45 51.65 109.45 51.25 111.95 51.25 114.45 51.25 114.45 51.65" fill="#b35247" fill-rule="evenodd" stroke="none"/>
      <path d="M117.85 53.2 Q117.85 53.9 116.0 53.9 L114.75 53.7 114.15 53.2 Q114.15 52.95 114.75 52.8 L116.0 52.6 117.35 52.8 Q117.85 52.95 117.85 53.2" fill="#b35247" fill-rule="evenodd" stroke="none"/>
      <path d="M121.55 52.3 L119.9 52.5 118.3 52.3 119.9 52.15 121.55 52.3" fill="#b35247" fill-rule="evenodd" stroke="none"/>
      <path d="M111.4 53.15 Q111.4 53.65 109.45 53.65 107.55 53.65 107.55 53.15 107.55 52.75 109.45 52.75 111.4 52.75 111.4 53.15" fill="#b35247" fill-rule="evenodd" stroke="none"/>
      <path d="M117.7 56.15 Q117.7 56.4 116.95 56.55 L115.15 56.7 Q112.55 56.7 112.55 56.15 112.55 55.6 115.15 55.6 117.7 55.6 117.7 56.15" fill="#b35247" fill-rule="evenodd" stroke="none"/>
      <path d="M112.4 55.05 Q112.4 55.5 110.45 55.5 108.45 55.5 108.45 55.05 108.45 54.6 110.45 54.6 112.4 54.6 112.4 55.05" fill="#b35247" fill-rule="evenodd" stroke="none"/>
      <path d="M105.5 52.4 Q105.5 52.85 103.15 52.85 100.8 52.85 100.8 52.4 100.8 51.85 103.15 51.85 105.5 51.85 105.5 52.4" fill="#b35247" fill-rule="evenodd" stroke="none"/>
      <path d="M100.8 51.65 Q100.8 52.0 98.65 52.0 96.55 52.0 96.55 51.65 96.55 51.35 98.65 51.35 100.8 51.35 100.8 51.65" fill="#b35247" fill-rule="evenodd" stroke="none"/>
      <path d="M122.55 53.75 L120.65 54.0 118.75 53.75 Q118.75 53.45 120.65 53.45 L122.55 53.75" fill="#b35247" fill-rule="evenodd" stroke="none"/>
    </g>
    <g id="sprite5" transform="matrix(1.0, 0.0, 0.0, 1.0, 0.0, 0.0)">
      <use height="10.5" transform="matrix(1.0, 0.0, 0.0, 1.0, 0.0, 0.0)" width="47.75" xlink:href="#shape10"/>
    </g>
    <g id="shape10" transform="matrix(1.0, 0.0, 0.0, 1.0, 0.0, 0.0)">
      <path d="M42.2 1.85 Q44.5 2.4 46.3 3.65 48.8 5.25 47.05 6.6 45.65 7.7 43.05 8.1 L38.9 8.7 Q34.55 9.9 27.4 10.25 L20.25 10.5 13.2 9.7 8.15 8.9 Q5.1 8.45 3.2 7.5 L1.4 6.6 Q0.25 5.95 0.05 5.2 -0.3 3.95 1.0 3.1 1.5 2.75 2.05 2.6 L1.9 2.6 2.05 2.45 Q8.55 0.5 12.85 0.3 22.0 -0.15 27.6 0.05 35.95 0.3 42.2 1.85" fill="#000000" fill-rule="evenodd" stroke="none"/>
    </g>
    <g id="shape11" transform="matrix(1.0, 0.0, 0.0, 1.0, -34.15, -58.45)">
      <path d="M81.4 64.1 Q81.4 66.45 74.5 68.1 67.6 69.75 57.8 69.75 47.95 69.75 41.05 68.1 34.15 66.45 34.15 64.1 34.15 61.75 41.05 60.1 47.95 58.45 57.8 58.45 67.6 58.45 74.5 60.1 81.4 61.75 81.4 64.1" fill="#d66355" fill-rule="evenodd" stroke="none"/>
      <path d="M68.0 67.75 L62.0 68.05 Q50.35 68.45 47.8 68.3 36.25 67.7 37.3 63.45 L37.1 63.5 Q38.95 61.55 40.9 62.55 L44.25 64.5 47.0 64.45 49.65 64.3 Q50.25 64.45 51.1 65.0 51.9 65.6 52.5 65.75 53.75 66.1 56.55 65.8 L60.75 65.6 64.7 65.65 Q67.35 65.25 65.55 63.5 L70.2 63.6 Q73.4 63.85 74.3 63.05 L73.6 62.3 75.85 62.5 Q76.85 63.0 76.95 64.05 77.05 65.1 76.0 65.7 L73.8 66.55 Q71.25 67.45 68.0 67.75" fill="#c75c4f" fill-rule="evenodd" stroke="none"/>
      <path d="M68.1 60.6 L66.35 60.3 64.55 60.0 Q61.6 60.35 59.6 60.1 L52.05 59.8 Q52.3 61.25 48.8 61.4 L44.0 61.35 Q40.45 61.75 38.5 62.6 L36.7 63.65 Q35.65 64.3 34.75 64.25 34.6 63.5 34.8 62.75 36.75 60.85 43.1 59.65 49.5 58.45 57.8 58.45 69.75 58.45 76.65 60.7 L73.25 60.15 69.75 59.95 68.95 60.3 68.1 60.6" fill="#c75c4f" fill-rule="evenodd" stroke="none"/>
      <path d="M67.25 67.05 L70.95 66.65 Q73.1 66.4 74.6 65.75 L76.45 64.65 Q77.8 63.75 78.5 63.4 L77.8 63.3 78.85 63.25 80.9 63.0 80.95 63.0 81.4 64.1 Q81.4 66.45 74.5 68.1 67.6 69.75 57.8 69.75 L55.1 69.75 Q57.8 68.4 61.55 67.65 L67.25 67.05" fill="#c75c4f" fill-rule="evenodd" stroke="none"/>
      <path d="M65.05 59.6 L72.45 60.65 Q78.6 62.0 78.6 63.95 78.6 65.9 72.45 67.3 66.3 68.65 57.6 68.65 48.95 68.65 42.8 67.3 36.65 65.9 36.65 63.95 36.65 63.1 38.1 62.25 37.3 62.8 37.3 63.4 37.3 65.1 43.1 66.35 48.95 67.55 57.15 67.55 65.35 67.55 71.2 66.35 77.0 65.1 77.0 63.4 77.0 61.7 71.25 60.5 L65.05 59.6" fill="#b35247" fill-rule="evenodd" stroke="none"/>
      <path d="M36.95 62.75 Q36.1 63.65 37.9 64.9 39.3 65.9 40.65 66.25 L45.7 67.6 43.15 67.5 40.15 67.3 Q36.95 66.7 36.3 65.65 35.85 64.85 35.85 63.8 35.9 62.55 36.95 62.75" fill="#ff7566" fill-rule="evenodd" stroke="none"/>
      <path d="M54.7 68.7 L53.35 68.55 58.6 68.15 63.95 68.25 Q63.75 69.0 60.85 69.0 L57.0 68.85 54.7 68.7" fill="#ff7566" fill-rule="evenodd" stroke="none"/>
      <path d="M65.5 59.1 L67.8 59.2 70.15 59.85 72.15 60.4 68.7 59.95 65.3 59.95 Q62.75 59.95 62.3 59.55 62.7 59.15 64.1 59.05 L65.5 59.1" fill="#ff7566" fill-rule="evenodd" stroke="none"/>
      <path d="M43.9 63.75 Q46.2 63.75 46.2 64.3 46.2 64.9 43.9 64.9 41.55 64.9 41.55 64.3 41.55 63.75 43.9 63.75" fill="#b35247" fill-rule="evenodd" stroke="none"/>
      <path d="M52.2 65.65 L51.6 66.2 50.05 66.4 48.55 66.2 Q47.9 65.95 47.9 65.65 47.9 65.35 48.55 65.15 L50.05 64.9 51.6 65.15 Q52.2 65.35 52.2 65.65" fill="#b35247" fill-rule="evenodd" stroke="none"/>
      <path d="M52.05 63.75 L51.55 64.1 50.3 64.25 49.05 64.1 48.55 63.75 Q48.55 63.25 50.3 63.25 52.05 63.25 52.05 63.75" fill="#b35247" fill-rule="evenodd" stroke="none"/>
      <path d="M66.55 60.3 Q66.55 60.9 63.7 60.9 60.9 60.9 60.9 60.3 60.9 60.1 61.7 59.9 L63.7 59.75 65.75 59.9 Q66.55 60.1 66.55 60.3" fill="#b35247" fill-rule="evenodd" stroke="none"/>
      <path d="M70.4 62.4 L69.8 63.0 68.3 63.25 66.8 63.0 Q66.2 62.75 66.2 62.4 66.2 62.05 66.8 61.8 L68.3 61.55 69.8 61.8 Q70.4 62.05 70.4 62.4" fill="#b35247" fill-rule="evenodd" stroke="none"/>
      <path d="M74.55 61.15 L72.7 61.4 70.9 61.15 72.7 60.9 74.55 61.15" fill="#b35247" fill-rule="evenodd" stroke="none"/>
      <path d="M63.05 62.3 Q63.05 62.9 60.9 62.9 58.7 62.9 58.7 62.3 L59.35 61.9 60.9 61.75 Q63.05 61.75 63.05 62.3" fill="#b35247" fill-rule="evenodd" stroke="none"/>
      <path d="M70.2 66.3 L69.35 66.85 67.3 67.05 65.25 66.85 64.4 66.3 Q64.4 66.0 65.25 65.8 L67.3 65.55 69.35 65.8 70.2 66.3" fill="#b35247" fill-rule="evenodd" stroke="none"/>
      <path d="M64.2 64.8 Q64.2 65.4 61.95 65.4 59.7 65.4 59.7 64.8 59.7 64.6 60.4 64.4 L61.95 64.25 Q64.2 64.25 64.2 64.8" fill="#b35247" fill-rule="evenodd" stroke="none"/>
      <path d="M56.4 61.25 Q56.4 61.5 55.6 61.7 L53.7 61.9 51.85 61.7 Q51.05 61.5 51.05 61.25 51.05 60.95 51.85 60.75 L53.7 60.55 55.6 60.75 Q56.4 60.95 56.4 61.25" fill="#b35247" fill-rule="evenodd" stroke="none"/>
      <path d="M51.05 60.3 Q51.05 60.75 48.65 60.75 46.2 60.75 46.2 60.3 46.2 59.9 48.65 59.9 51.05 59.9 51.05 60.3" fill="#b35247" fill-rule="evenodd" stroke="none"/>
      <path d="M75.7 63.05 Q75.7 63.4 73.55 63.4 L71.4 63.05 Q71.4 62.75 73.55 62.75 L75.7 63.05" fill="#b35247" fill-rule="evenodd" stroke="none"/>
    </g>
    <g id="sprite6" transform="matrix(1.0, 0.0, 0.0, 1.0, 0.0, -0.05)">
      <use height="6.8" transform="matrix(1.0, 0.0, 0.0, 1.0, 0.0, 0.05)" width="38.45" xlink:href="#shape12"/>
    </g>
    <g id="shape12" transform="matrix(1.0, 0.0, 0.0, 1.0, 0.0, -0.05)">
      <path d="M38.4 3.1 Q39.05 4.95 28.55 6.0 L16.35 6.8 Q10.45 7.1 4.15 5.3 L1.9 4.7 Q0.2 4.15 0.05 3.6 -0.2 2.9 1.0 2.1 2.1 1.4 2.85 1.5 L2.15 1.8 5.1 1.9 8.0 1.5 18.2 0.45 Q27.45 -0.55 33.55 0.85 38.0 1.95 38.4 3.1" fill="#000000" fill-rule="evenodd" stroke="none"/>
    </g>
    <g id="shape13" transform="matrix(1.0, 0.0, 0.0, 1.0, -26.1, -48.45)">
      <path d="M65.2 52.15 Q65.2 53.65 59.5 54.8 L45.65 55.9 31.8 54.8 Q26.1 53.65 26.1 52.15 26.1 50.6 31.8 49.55 37.5 48.45 45.65 48.45 53.75 48.45 59.5 49.55 65.2 50.6 65.2 52.15" fill="#d66355" fill-rule="evenodd" stroke="none"/>
      <path d="M58.85 53.75 L54.1 54.55 49.15 54.75 37.4 54.9 Q27.85 54.5 28.65 51.75 L28.5 51.75 Q30.05 50.45 31.65 51.15 L34.45 52.45 36.7 52.35 38.9 52.25 Q39.4 52.35 40.05 52.75 L41.25 53.25 Q42.3 53.45 44.6 53.25 L48.05 53.15 Q49.95 53.35 51.35 53.15 53.55 52.9 52.05 51.75 52.8 51.6 55.95 51.8 L59.35 51.45 58.7 50.95 60.55 51.1 Q61.4 51.45 61.5 52.1 61.55 52.85 60.75 53.2 L58.85 53.75" fill="#c75c4f" fill-rule="evenodd" stroke="none"/>
      <path d="M61.25 49.9 L58.45 49.55 55.55 49.45 54.9 49.65 54.2 49.85 52.75 49.7 51.25 49.45 47.1 49.55 40.9 49.35 Q41.1 50.3 38.2 50.35 L34.25 50.35 Q31.4 50.55 29.7 51.2 L28.2 51.85 26.55 52.25 Q26.45 51.75 26.6 51.25 28.2 50.05 33.45 49.25 L45.65 48.45 Q55.35 48.45 61.25 49.9" fill="#c75c4f" fill-rule="evenodd" stroke="none"/>
      <path d="M59.55 53.25 L61.1 52.5 Q62.1 51.9 62.8 51.7 L62.0 51.6 63.05 51.6 64.75 51.45 64.8 51.45 Q65.2 51.75 65.2 52.15 65.2 53.65 59.5 54.8 L45.65 55.9 43.4 55.85 Q45.9 54.9 48.75 54.5 L53.45 54.05 56.55 53.8 59.55 53.25" fill="#c75c4f" fill-rule="evenodd" stroke="none"/>
      <path d="M53.0 49.3 L57.75 49.9 Q62.85 50.8 62.85 52.05 62.85 53.35 57.75 54.25 L45.5 55.15 33.25 54.25 Q28.15 53.35 28.15 52.05 28.15 51.5 29.35 50.95 28.65 51.35 28.65 51.7 28.65 52.85 33.5 53.6 L45.1 54.45 56.75 53.6 Q61.55 52.85 61.55 51.7 61.55 50.55 56.75 49.8 L53.0 49.3" fill="#b35247" fill-rule="evenodd" stroke="none"/>
      <path d="M33.5 54.4 L31.05 54.25 Q28.45 53.9 27.85 53.15 27.5 52.65 27.5 51.95 27.55 51.1 28.4 51.25 27.7 51.85 29.2 52.7 30.3 53.3 31.45 53.55 L35.85 54.5 33.5 54.4" fill="#ff7566" fill-rule="evenodd" stroke="none"/>
      <path d="M48.2 55.35 L44.95 55.25 42.0 55.05 46.3 54.8 50.75 54.9 Q50.55 55.35 48.2 55.35" fill="#ff7566" fill-rule="evenodd" stroke="none"/>
      <path d="M50.45 48.85 L50.9 48.85 51.95 48.85 53.9 48.95 55.9 49.4 57.65 49.75 54.65 49.45 49.4 49.2 Q49.65 48.9 50.45 48.85" fill="#ff7566" fill-rule="evenodd" stroke="none"/>
      <path d="M36.05 52.25 Q36.05 52.7 34.15 52.7 32.25 52.7 32.25 52.25 32.25 51.9 34.15 51.9 36.05 51.9 36.05 52.25" fill="#b35247" fill-rule="evenodd" stroke="none"/>
      <path d="M41.05 53.15 L40.5 53.5 39.25 53.65 37.95 53.5 37.45 53.15 Q37.45 52.7 39.25 52.7 41.05 52.7 41.05 53.15" fill="#b35247" fill-rule="evenodd" stroke="none"/>
      <path d="M40.9 51.9 Q40.9 52.2 39.45 52.2 L38.0 51.9 Q38.0 51.6 39.45 51.6 40.9 51.6 40.9 51.9" fill="#b35247" fill-rule="evenodd" stroke="none"/>
      <path d="M52.9 49.65 Q52.9 50.05 50.5 50.05 48.2 50.05 48.2 49.65 48.2 49.3 50.5 49.3 52.9 49.3 52.9 49.65" fill="#b35247" fill-rule="evenodd" stroke="none"/>
      <path d="M56.05 51.05 Q56.05 51.6 54.35 51.6 52.65 51.6 52.65 51.05 52.65 50.85 53.15 50.6 L54.35 50.45 Q56.05 50.45 56.05 51.05" fill="#b35247" fill-rule="evenodd" stroke="none"/>
      <path d="M59.5 50.2 L58.0 50.35 56.45 50.2 58.0 50.05 59.5 50.2" fill="#b35247" fill-rule="evenodd" stroke="none"/>
      <path d="M50.0 51.0 Q50.0 51.35 48.2 51.35 46.4 51.35 46.4 51.0 46.4 50.55 48.2 50.55 50.0 50.55 50.0 51.0" fill="#b35247" fill-rule="evenodd" stroke="none"/>
      <path d="M55.95 53.6 L53.5 54.05 Q51.1 54.05 51.1 53.6 51.1 53.1 53.5 53.1 55.95 53.1 55.95 53.6" fill="#b35247" fill-rule="evenodd" stroke="none"/>
      <path d="M50.95 52.65 Q50.95 53.0 49.1 53.0 47.2 53.0 47.2 52.65 47.2 52.2 49.1 52.2 50.95 52.2 50.95 52.65" fill="#b35247" fill-rule="evenodd" stroke="none"/>
      <path d="M44.5 50.25 Q44.5 50.7 42.3 50.7 40.05 50.7 40.05 50.25 40.05 49.85 42.3 49.85 44.5 49.85 44.5 50.25" fill="#b35247" fill-rule="evenodd" stroke="none"/>
      <path d="M40.05 49.65 L38.05 49.95 36.05 49.65 38.05 49.4 40.05 49.65" fill="#b35247" fill-rule="evenodd" stroke="none"/>
      <path d="M60.45 51.45 L58.65 51.7 56.85 51.45 58.65 51.25 60.45 51.45" fill="#b35247" fill-rule="evenodd" stroke="none"/>
    </g>
    <g id="sprite7" transform="matrix(1.0, 0.0, 0.0, 1.0, 0.0, 0.0)">
      <use height="5.65" transform="matrix(1.0, 0.0, 0.0, 1.0, 0.0, 0.0)" width="33.5" xlink:href="#shape14"/>
    </g>
    <g id="shape14" transform="matrix(1.0, 0.0, 0.0, 1.0, 0.0, 0.0)">
      <path d="M21.4 0.0 Q26.5 0.0 30.55 1.2 L32.85 1.85 Q33.95 2.35 33.15 3.2 32.4 4.05 29.65 4.6 L22.8 5.55 15.75 5.65 5.6 4.8 3.0 4.7 Q1.2 4.55 0.5 3.9 -0.45 2.95 0.35 1.9 1.15 0.9 2.15 1.0 L1.0 1.35 6.5 0.8 12.1 0.65 21.4 0.0" fill="#000000" fill-rule="evenodd" stroke="none"/>
    </g>
    <g id="shape15" transform="matrix(1.0, 0.0, 0.0, 1.0, -58.95, -42.6)">
      <path d="M95.1 45.8 Q95.1 47.1 89.8 48.0 L77.05 48.95 64.25 48.0 Q58.95 47.1 58.95 45.8 58.95 44.45 64.25 43.55 L77.05 42.6 89.8 43.55 Q95.1 44.45 95.1 45.8" fill="#d66355" fill-rule="evenodd" stroke="none"/>
      <path d="M89.3 47.15 L80.25 47.95 69.45 48.15 Q60.5 47.8 61.4 45.4 L61.25 45.4 Q62.6 44.3 64.15 44.9 L66.7 46.0 68.8 46.0 70.8 45.9 71.9 46.35 73.0 46.7 Q74.0 46.9 76.05 46.7 L79.3 46.6 82.3 46.65 Q84.4 46.45 82.95 45.45 83.65 45.3 86.5 45.5 L89.7 45.2 89.15 44.75 90.85 44.85 Q91.6 45.2 91.65 45.75 91.75 46.35 91.0 46.65 L89.3 47.15" fill="#c75c4f" fill-rule="evenodd" stroke="none"/>
      <path d="M91.45 43.85 L86.2 43.45 84.9 43.8 83.55 43.65 82.2 43.5 78.4 43.55 72.7 43.3 Q72.85 44.2 70.15 44.25 L66.5 44.25 62.3 44.9 Q60.6 45.9 59.45 45.9 59.35 45.4 59.5 45.0 60.9 43.9 65.8 43.25 L77.05 42.6 Q86.0 42.6 91.45 43.85" fill="#c75c4f" fill-rule="evenodd" stroke="none"/>
      <path d="M87.1 47.2 L89.9 46.7 91.25 46.05 Q92.25 45.55 92.85 45.4 L92.2 45.3 93.1 45.3 94.7 45.2 94.75 45.2 Q95.1 45.45 95.1 45.8 95.1 47.1 89.8 48.0 L77.05 48.95 74.95 48.95 Q76.85 48.3 79.9 47.75 L84.25 47.4 87.1 47.2" fill="#c75c4f" fill-rule="evenodd" stroke="none"/>
      <path d="M83.85 43.3 L88.2 43.8 Q92.9 44.6 92.9 45.65 92.9 46.75 88.2 47.6 L76.9 48.35 65.6 47.6 Q60.9 46.75 60.9 45.65 60.9 45.2 61.95 44.75 61.35 45.05 61.35 45.4 61.35 46.35 65.85 47.05 L76.55 47.7 87.25 47.05 Q91.7 46.35 91.7 45.4 91.7 44.4 87.35 43.75 L83.85 43.3" fill="#b35247" fill-rule="evenodd" stroke="none"/>
      <path d="M61.15 45.0 Q60.5 45.55 61.85 46.25 L63.95 47.0 67.95 47.75 63.55 47.6 Q61.0 47.1 60.6 46.65 60.25 46.15 60.25 45.6 60.3 44.9 61.15 45.0" fill="#ff7566" fill-rule="evenodd" stroke="none"/>
      <path d="M81.75 48.15 L79.4 48.5 76.45 48.45 74.7 48.35 73.65 48.3 77.65 48.1 81.75 48.15" fill="#ff7566" fill-rule="evenodd" stroke="none"/>
      <path d="M83.05 43.0 L84.65 43.05 86.5 43.45 87.7 43.7 85.35 43.45 80.5 43.2 81.85 42.95 83.05 43.0 81.3 43.0 83.3 43.05 83.05 43.0" fill="#ff7566" fill-rule="evenodd" stroke="none"/>
      <path d="M68.2 45.9 L66.45 46.2 64.65 45.9 Q64.65 45.55 66.45 45.55 68.2 45.55 68.2 45.9" fill="#b35247" fill-rule="evenodd" stroke="none"/>
      <path d="M72.8 46.65 Q72.8 47.05 71.15 47.05 69.45 47.05 69.45 46.65 69.45 46.2 71.15 46.2 72.8 46.2 72.8 46.65" fill="#b35247" fill-rule="evenodd" stroke="none"/>
      <path d="M72.7 45.55 L71.3 45.85 Q70.0 45.85 70.0 45.55 L71.3 45.3 72.7 45.55" fill="#b35247" fill-rule="evenodd" stroke="none"/>
      <path d="M81.6 43.3 Q83.7 43.3 83.7 43.65 83.7 44.0 81.6 44.0 79.4 44.0 79.4 43.65 79.4 43.3 81.6 43.3" fill="#b35247" fill-rule="evenodd" stroke="none"/>
      <path d="M86.65 44.8 Q86.65 45.3 85.1 45.3 83.5 45.3 83.5 44.8 83.5 44.35 85.1 44.35 86.65 44.35 86.65 44.8" fill="#b35247" fill-rule="evenodd" stroke="none"/>
      <path d="M89.85 44.1 L88.4 44.25 87.05 44.1 88.4 44.0 89.85 44.1" fill="#b35247" fill-rule="evenodd" stroke="none"/>
      <path d="M81.05 44.75 L79.4 45.05 Q77.75 45.05 77.75 44.75 77.75 44.4 79.4 44.4 81.05 44.4 81.05 44.75" fill="#b35247" fill-rule="evenodd" stroke="none"/>
      <path d="M86.5 47.05 Q86.5 47.4 84.3 47.4 L82.1 47.05 Q82.1 46.6 84.3 46.6 86.5 46.6 86.5 47.05" fill="#b35247" fill-rule="evenodd" stroke="none"/>
      <path d="M81.95 46.15 Q81.95 46.5 80.2 46.5 78.55 46.5 78.55 46.15 78.55 45.85 80.2 45.85 81.95 45.85 81.95 46.15" fill="#b35247" fill-rule="evenodd" stroke="none"/>
      <path d="M75.95 44.15 Q75.95 44.55 73.95 44.55 71.9 44.55 71.9 44.15 71.9 43.75 73.95 43.75 75.95 43.75 75.95 44.15" fill="#b35247" fill-rule="evenodd" stroke="none"/>
      <path d="M71.9 43.65 L70.05 43.85 68.2 43.65 70.05 43.45 71.9 43.65" fill="#b35247" fill-rule="evenodd" stroke="none"/>
      <path d="M90.7 45.2 L89.1 45.4 87.45 45.2 89.1 45.0 90.7 45.2" fill="#b35247" fill-rule="evenodd" stroke="none"/>
    </g>
    <g id="sprite8" transform="matrix(1.0, 0.0, 0.0, 1.0, 0.0, 0.0)">
      <use height="5.35" transform="matrix(1.0, 0.0, 0.0, 1.0, 0.0, 0.0)" width="32.0" xlink:href="#shape16"/>
    </g>
    <g id="shape16" transform="matrix(1.0, 0.0, 0.0, 1.0, 0.0, 0.0)">
      <path d="M28.6 4.4 L24.55 4.8 12.65 5.35 5.0 4.7 2.55 3.85 0.0 3.05 Q0.0 2.1 0.9 1.4 L1.7 1.0 Q1.55 0.2 4.5 0.05 L8.3 0.05 21.6 0.1 Q32.6 0.5 31.95 2.5 31.55 3.85 28.6 4.4" fill="#000000" fill-rule="evenodd" stroke="none"/>
    </g>
    <g id="shape17" transform="matrix(1.0, 0.0, 0.0, 1.0, -116.55, -42.2)">
      <path d="M151.4 45.5 Q151.4 46.9 146.35 47.85 L133.95 48.85 Q126.75 48.85 121.65 47.85 116.55 46.9 116.55 45.5 116.55 44.15 121.65 43.15 L133.95 42.2 146.35 43.15 Q151.4 44.15 151.4 45.5" fill="#d66355" fill-rule="evenodd" stroke="none"/>
      <path d="M126.0 45.75 L127.95 45.7 129.0 46.05 Q129.6 46.45 130.05 46.5 L133.05 46.55 136.15 46.45 Q141.85 46.8 139.7 45.2 140.35 45.05 143.1 45.25 L146.15 44.9 145.6 44.5 147.3 44.6 Q148.1 44.9 148.15 45.5 148.2 46.1 147.4 46.5 L145.8 47.0 141.5 47.7 137.1 47.85 126.6 48.05 Q118.0 47.65 118.9 45.2 L118.7 45.2 Q120.1 44.05 121.5 44.65 L123.95 45.8 126.0 45.75" fill="#c75c4f" fill-rule="evenodd" stroke="none"/>
      <path d="M127.35 43.95 L123.8 43.95 Q121.2 44.15 119.75 44.65 118.05 45.65 116.95 45.65 116.85 45.15 117.0 44.75 118.45 43.65 123.15 42.9 L133.95 42.2 Q142.6 42.2 147.9 43.55 L145.4 43.2 142.85 43.1 142.25 43.3 141.6 43.5 138.95 43.1 135.3 43.15 129.75 43.0 Q129.9 43.9 127.35 43.95" fill="#c75c4f" fill-rule="evenodd" stroke="none"/>
      <path d="M140.9 47.25 L143.7 47.05 146.4 46.5 149.3 45.15 148.9 45.1 149.5 45.05 151.05 44.9 151.1 44.9 151.4 45.5 Q151.4 46.9 146.35 47.85 L133.95 48.85 132.0 48.85 Q133.6 48.2 136.75 47.65 L140.9 47.25" fill="#c75c4f" fill-rule="evenodd" stroke="none"/>
      <path d="M141.75 43.05 L144.8 43.5 Q149.35 44.3 149.35 45.45 149.35 46.6 144.8 47.45 L133.85 48.25 122.95 47.45 Q118.4 46.6 118.4 45.45 118.4 44.9 119.45 44.5 118.85 44.8 118.85 45.15 118.85 46.15 123.15 46.9 L133.5 47.6 143.85 46.9 Q148.15 46.15 148.15 45.15 148.15 44.1 143.9 43.4 L141.75 43.05" fill="#b35247" fill-rule="evenodd" stroke="none"/>
      <path d="M144.9 44.0 Q144.9 44.45 142.3 44.45 139.65 44.45 139.65 44.0 139.65 43.6 142.3 43.6 L144.9 44.0" fill="#b35247" fill-rule="evenodd" stroke="none"/>
      <path d="M141.95 45.4 Q141.95 45.9 140.05 45.9 138.15 45.9 138.15 45.4 138.15 44.9 140.05 44.9 141.95 44.9 141.95 45.4" fill="#b35247" fill-rule="evenodd" stroke="none"/>
      <path d="M135.65 44.15 Q135.65 44.45 134.35 44.45 133.05 44.45 133.05 44.15 133.05 43.8 134.35 43.8 135.65 43.8 135.65 44.15" fill="#b35247" fill-rule="evenodd" stroke="none"/>
      <path d="M134.95 46.15 Q134.95 46.65 133.2 46.65 131.45 46.65 131.45 46.15 131.45 45.7 133.2 45.7 134.95 45.7 134.95 46.15" fill="#b35247" fill-rule="evenodd" stroke="none"/>
      <path d="M131.8 45.2 L130.4 45.4 129.0 45.2 Q129.0 44.9 130.4 44.9 131.8 44.9 131.8 45.2" fill="#b35247" fill-rule="evenodd" stroke="none"/>
      <path d="M126.75 46.35 L126.0 46.7 124.2 46.9 122.45 46.7 121.65 46.35 Q121.65 45.8 124.2 45.8 126.75 45.8 126.75 46.35" fill="#b35247" fill-rule="evenodd" stroke="none"/>
      <path d="M127.65 44.65 L125.75 44.9 123.95 44.65 Q123.95 44.3 125.75 44.3 127.65 44.3 127.65 44.65" fill="#b35247" fill-rule="evenodd" stroke="none"/>
      <path d="M130.05 43.35 L128.8 43.6 127.4 43.35 128.8 43.1 Q130.05 43.1 130.05 43.35" fill="#b35247" fill-rule="evenodd" stroke="none"/>
      <path d="M141.95 46.9 Q141.95 47.4 139.9 47.4 137.75 47.4 137.75 46.9 137.75 46.4 139.9 46.4 141.95 46.4 141.95 46.9" fill="#b35247" fill-rule="evenodd" stroke="none"/>
      <path d="M125.5 47.65 L125.4 47.65 123.15 47.55 120.95 47.45 Q118.6 47.1 118.1 46.45 117.8 46.0 117.8 45.35 117.85 44.6 118.6 44.75 117.95 45.3 119.3 46.0 L121.35 46.85 125.5 47.65" fill="#ff7566" fill-rule="evenodd" stroke="none"/>
      <path d="M130.7 48.15 L134.55 47.9 138.5 48.0 Q138.4 48.4 136.25 48.4 L133.35 48.35 130.7 48.15" fill="#ff7566" fill-rule="evenodd" stroke="none"/>
      <path d="M137.3 42.85 Q137.65 42.6 138.6 42.55 L139.8 42.6 141.35 42.7 143.1 43.05 144.8 43.4 142.0 43.1 137.3 42.85" fill="#ff7566" fill-rule="evenodd" stroke="none"/>
    </g>
    <g id="sprite9" transform="matrix(1.0, 0.0, 0.0, 1.0, 0.05, 0.0)">
      <use height="4.6" transform="matrix(1.0, 0.0, 0.0, 1.0, -0.05, 0.0)" width="27.95" xlink:href="#shape18"/>
    </g>
    <g id="shape18" transform="matrix(1.0, 0.0, 0.0, 1.0, 0.05, 0.0)">
      <path d="M25.95 3.6 L23.9 3.85 13.75 4.6 9.3 4.4 4.9 4.1 Q2.2 3.9 0.9 3.25 -0.35 2.65 0.05 1.85 0.5 1.05 1.9 0.9 L0.25 1.6 4.9 0.7 9.75 0.1 25.0 0.8 Q28.6 1.2 27.7 2.85 27.5 3.3 25.95 3.6" fill="#000000" fill-rule="evenodd" stroke="none"/>
    </g>
    <g id="shape19" transform="matrix(1.0, 0.0, 0.0, 1.0, -0.4, -34.7)">
      <path d="M123.5 40.45 Q123.5 41.6 118.7 42.45 L107.1 43.25 95.55 42.45 Q90.7 41.6 90.7 40.45 90.7 39.3 95.55 38.5 L107.1 37.65 118.7 38.5 Q123.5 39.3 123.5 40.45" fill="#d66355" fill-rule="evenodd" stroke="none"/>
      <path d="M99.65 40.6 L101.5 40.55 102.5 40.95 103.45 41.25 Q104.3 41.45 106.25 41.25 L109.15 41.2 Q114.6 41.55 112.5 40.2 113.15 40.05 115.7 40.2 L118.55 39.9 118.1 39.55 119.65 39.65 Q120.35 39.9 120.4 40.45 120.5 40.95 119.75 41.25 L118.2 41.6 110.05 42.35 100.2 42.5 Q92.1 42.2 93.0 40.1 L92.75 40.1 Q94.05 39.15 95.4 39.65 L97.75 40.7 99.65 40.6" fill="#c75c4f" fill-rule="evenodd" stroke="none"/>
      <path d="M91.2 39.8 Q92.5 38.85 96.9 38.3 L107.1 37.65 Q115.3 37.65 120.2 38.8 L117.85 38.55 115.4 38.4 114.9 38.6 114.3 38.75 113.05 38.6 111.8 38.4 108.4 38.5 103.15 38.35 Q103.35 39.05 100.9 39.1 L97.55 39.1 Q94.95 39.35 93.75 39.75 92.2 40.55 91.15 40.55 91.0 40.1 91.2 39.8" fill="#c75c4f" fill-rule="evenodd" stroke="none"/>
      <path d="M107.1 43.25 L105.25 43.2 Q107.2 42.55 109.7 42.2 L113.7 41.85 118.75 41.25 121.5 40.1 120.85 40.05 121.75 40.05 123.15 39.9 123.2 39.9 Q123.5 40.1 123.5 40.45 123.5 41.6 118.7 42.45 L107.1 43.25" fill="#c75c4f" fill-rule="evenodd" stroke="none"/>
      <path d="M96.75 42.0 Q92.45 41.3 92.45 40.35 92.45 39.9 93.45 39.55 92.9 39.85 92.9 40.1 92.9 40.95 96.95 41.55 L106.65 42.1 116.45 41.55 Q120.4 40.95 120.4 40.1 120.4 39.3 116.45 38.65 L117.25 38.8 Q121.55 39.4 121.55 40.35 121.55 41.3 117.25 42.0 L107.05 42.7 96.75 42.0" fill="#b35247" fill-rule="evenodd" stroke="none"/>
      <path d="M92.7 39.8 Q92.1 40.25 93.35 40.85 94.3 41.35 95.25 41.5 L98.75 42.2 94.9 42.0 Q92.75 41.8 92.2 41.2 91.9 40.85 91.9 40.3 91.95 39.65 92.7 39.8" fill="#ff7566" fill-rule="evenodd" stroke="none"/>
      <path d="M103.7 42.6 L104.0 42.6 107.7 42.45 111.35 42.5 109.25 42.8 106.55 42.75 104.95 42.7 103.7 42.6" fill="#ff7566" fill-rule="evenodd" stroke="none"/>
      <path d="M112.5 38.0 L114.05 38.05 115.65 38.35 117.1 38.6 114.7 38.4 110.25 38.25 111.5 38.0 112.5 38.0" fill="#ff7566" fill-rule="evenodd" stroke="none"/>
      <path d="M99.1 40.55 L97.5 40.85 Q95.85 40.85 95.85 40.55 95.85 40.25 97.5 40.25 99.1 40.25 99.1 40.55" fill="#b35247" fill-rule="evenodd" stroke="none"/>
      <path d="M103.3 41.2 Q103.3 41.55 101.75 41.55 100.25 41.55 100.25 41.2 100.25 40.85 101.75 40.85 103.3 40.85 103.3 41.2" fill="#b35247" fill-rule="evenodd" stroke="none"/>
      <path d="M103.15 40.25 L101.9 40.5 100.7 40.25 101.9 40.05 103.15 40.25" fill="#b35247" fill-rule="evenodd" stroke="none"/>
      <path d="M113.2 38.6 L111.25 38.85 109.3 38.6 111.25 38.3 Q113.2 38.3 113.2 38.6" fill="#b35247" fill-rule="evenodd" stroke="none"/>
      <path d="M115.85 39.6 Q115.85 40.05 114.4 40.05 113.0 40.05 113.0 39.6 113.0 39.15 114.4 39.15 115.85 39.15 115.85 39.6" fill="#b35247" fill-rule="evenodd" stroke="none"/>
      <path d="M118.75 39.0 L117.45 39.1 116.2 39.0 117.45 38.85 118.75 39.0" fill="#b35247" fill-rule="evenodd" stroke="none"/>
      <path d="M110.8 39.55 L109.3 39.85 107.75 39.55 109.3 39.3 110.8 39.55" fill="#b35247" fill-rule="evenodd" stroke="none"/>
      <path d="M115.7 41.55 L113.7 41.85 111.65 41.55 Q111.65 41.2 113.7 41.2 115.7 41.2 115.7 41.55" fill="#b35247" fill-rule="evenodd" stroke="none"/>
      <path d="M111.55 40.8 L110.0 41.05 108.45 40.8 Q108.45 40.5 110.0 40.5 111.55 40.5 111.55 40.8" fill="#b35247" fill-rule="evenodd" stroke="none"/>
      <path d="M106.15 39.05 L104.3 39.35 102.45 39.05 Q102.45 38.75 104.3 38.75 106.15 38.75 106.15 39.05" fill="#b35247" fill-rule="evenodd" stroke="none"/>
      <path d="M102.45 38.6 L100.8 38.8 99.1 38.6 100.8 38.4 102.45 38.6" fill="#b35247" fill-rule="evenodd" stroke="none"/>
      <path d="M119.55 39.9 L118.05 40.1 116.55 39.9 118.05 39.8 119.55 39.9" fill="#b35247" fill-rule="evenodd" stroke="none"/>
      <path d="M162.55 79.1 Q156.75 80.9 152.8 81.3 L125.3 84.1 Q121.25 84.5 117.1 84.0 113.65 83.6 109.05 82.45 105.95 81.65 101.95 81.45 L94.65 81.35 78.4 81.1 62.35 79.7 56.1 78.75 50.0 77.45 44.75 75.8 Q41.7 74.85 39.4 74.7 L28.85 73.4 Q23.25 72.2 19.05 69.7 5.45 61.75 9.7 58.75 9.6 57.05 10.65 55.95 11.3 55.25 12.65 54.35 L14.8 52.75 Q17.9 49.9 20.0 48.7 L20.05 48.8 15.35 53.95 Q12.4 57.4 12.3 59.8 12.15 63.05 14.5 64.7 L19.5 67.05 21.55 68.6 23.6 70.2 Q25.65 71.4 30.1 72.2 L37.25 73.05 44.3 74.05 52.1 76.3 56.8 77.2 61.35 78.2 62.6 79.0 63.8 79.7 65.5 79.75 67.3 79.35 74.55 79.1 78.45 79.6 82.25 80.35 Q84.25 80.7 87.4 80.25 L92.6 79.45 Q97.85 78.95 104.55 79.4 L116.3 80.55 Q135.7 82.55 159.25 76.85 L174.8 73.2 179.35 72.3 Q182.1 71.75 183.8 71.0 L186.65 69.3 189.55 67.55 Q192.35 66.4 194.2 65.0 L198.1 61.25 200.05 59.4 Q201.0 58.4 201.25 57.05 202.0 58.05 202.3 59.35 202.85 61.65 201.25 63.05 L197.7 65.25 Q196.4 66.15 194.2 68.4 L190.7 71.45 Q187.35 73.55 181.6 74.75 L172.05 76.35 Q169.65 76.85 162.55 79.1" fill="#994e12" fill-rule="evenodd" stroke="none"/>
      <path d="M206.65 68.3 Q209.0 65.75 208.95 62.2 208.9 60.05 207.65 55.6 211.45 59.55 211.45 63.75 L211.2 65.75 Q211.3 68.6 210.3 70.3 207.3 75.9 198.75 80.1 195.0 81.95 190.3 83.5 L181.65 86.1 172.5 89.15 Q167.2 90.9 163.15 91.35 L135.0 94.15 Q119.2 95.3 106.7 94.7 L94.55 94.05 Q59.05 92.85 33.6 85.7 L32.45 85.45 Q21.7 82.85 12.7 78.7 -2.6 71.75 1.6 65.35 L0.4 65.35 1.5 64.8 1.45 63.75 Q1.45 62.2 2.0 60.55 L4.15 63.85 6.45 67.35 Q9.95 71.15 12.4 72.6 16.9 75.35 24.55 77.35 L37.4 80.3 Q50.7 83.45 68.2 85.9 L99.4 89.6 Q121.15 92.05 141.1 88.6 L157.55 86.85 Q167.65 85.95 173.8 84.25 L183.55 81.7 Q188.9 80.05 192.7 77.6 L200.0 73.3 Q204.45 70.6 206.65 68.3" fill="#d2b155" fill-rule="evenodd" stroke="none"/>
      <path d="M132.25 88.0 Q142.6 87.75 146.05 86.7 148.55 85.9 161.35 84.5 174.1 83.1 177.4 82.05 183.7 80.05 200.7 73.35 L194.8 76.6 Q187.8 80.2 182.4 82.05 176.55 84.05 167.15 85.6 L152.4 87.35 114.75 89.35 Q101.15 89.85 88.35 88.85 L66.4 86.35 45.4 83.3 Q33.15 81.1 22.4 77.05 14.75 74.1 9.45 69.95 L5.7 66.35 11.65 70.3 Q18.15 74.45 21.05 75.7 24.4 77.15 41.65 80.7 58.55 84.2 64.05 84.7 L87.75 86.6 112.75 88.05 132.25 88.0" fill="#fae4af" fill-rule="evenodd" stroke="none"/>
      <path d="M127.4 86.55 Q127.4 87.15 126.05 87.6 L122.7 88.05 119.4 87.6 Q118.05 87.15 118.05 86.55 118.05 85.9 119.4 85.5 L122.7 85.05 126.05 85.5 Q127.4 85.9 127.4 86.55" fill="#d2b155" fill-rule="evenodd" stroke="none"/>
      <path d="M135.05 85.55 Q135.05 85.9 134.15 86.1 L131.9 86.35 129.65 86.1 Q128.7 85.9 128.7 85.55 128.7 85.2 129.65 84.95 L131.9 84.7 134.15 84.95 Q135.05 85.2 135.05 85.55" fill="#d2b155" fill-rule="evenodd" stroke="none"/>
      <path d="M43.4 77.7 Q43.4 78.55 42.15 79.1 40.95 79.7 39.2 79.7 37.5 79.7 36.25 79.1 35.05 78.55 35.05 77.7 35.05 76.9 36.25 76.3 37.5 75.7 39.2 75.7 40.95 75.7 42.15 76.3 43.4 76.9 43.4 77.7" fill="#d2b155" fill-rule="evenodd" stroke="none"/>
      <path d="M100.7 83.85 Q100.7 84.35 99.85 84.7 L97.7 85.05 95.6 84.7 Q94.7 84.35 94.7 83.85 94.7 83.35 95.6 83.05 96.45 82.7 97.7 82.7 99.0 82.7 99.85 83.05 100.7 83.35 100.7 83.85" fill="#d2b155" fill-rule="evenodd" stroke="none"/>
      <path d="M76.7 35.85 Q76.7 36.35 73.7 36.35 70.7 36.35 70.7 35.85 70.7 35.65 71.6 35.5 L73.7 35.35 Q76.7 35.35 76.7 35.85" fill="#d2b155" fill-rule="evenodd" stroke="none"/>
      <path d="M179.7 78.35 Q179.7 78.9 178.45 79.3 L175.4 79.7 172.35 79.3 Q171.05 78.9 171.05 78.35 171.05 77.8 172.35 77.4 L175.4 77.05 178.45 77.4 Q179.7 77.8 179.7 78.35" fill="#d2b155" fill-rule="evenodd" stroke="none"/>
      <path d="M197.4 49.05 L196.65 49.75 194.9 50.05 193.15 49.75 Q192.4 49.45 192.4 49.05 192.4 48.6 193.15 48.35 L194.9 48.05 196.65 48.35 Q197.4 48.6 197.4 49.05" fill="#d2b155" fill-rule="evenodd" stroke="none"/>
      <path d="M133.4 35.55 Q133.4 36.05 130.55 36.05 127.7 36.05 127.7 35.55 127.7 35.05 130.55 35.05 133.4 35.05 133.4 35.55" fill="#d2b155" fill-rule="evenodd" stroke="none"/>
      <path d="M143.05 37.7 Q143.05 38.1 142.25 38.4 L140.4 38.7 138.5 38.4 Q137.7 38.1 137.7 37.7 137.7 37.3 138.5 37.0 L140.4 36.7 142.25 37.0 Q143.05 37.3 143.05 37.7" fill="#d2b155" fill-rule="evenodd" stroke="none"/>
      <path d="M99.7 35.2 L98.65 35.55 96.05 35.7 93.5 35.55 92.4 35.2 Q92.4 34.7 96.05 34.7 99.7 34.7 99.7 35.2" fill="#d2b155" fill-rule="evenodd" stroke="none"/>
      <path d="M9.05 59.55 Q9.05 60.05 7.05 60.05 5.05 60.05 5.05 59.55 5.05 59.05 7.05 59.05 9.05 59.05 9.05 59.55" fill="#d2b155" fill-rule="evenodd" stroke="none"/>
      <path d="M15.7 68.2 L15.1 68.8 13.55 69.05 12.05 68.8 11.4 68.2 Q11.4 67.85 12.05 67.6 L13.55 67.35 15.1 67.6 Q15.7 67.85 15.7 68.2" fill="#d2b155" fill-rule="evenodd" stroke="none"/>
      <path d="M162.55 79.1 Q156.75 80.9 152.8 81.3 L125.3 84.1 Q121.25 84.5 117.1 84.0 113.65 83.6 109.05 82.45 105.95 81.65 101.95 81.45 L94.65 81.35 78.4 81.1 62.35 79.7 56.1 78.75 50.0 77.45 44.75 75.8 Q41.7 74.85 39.4 74.7 L28.85 73.4 Q23.25 72.2 19.05 69.7 5.45 61.75 9.7 58.75 9.6 57.05 10.65 55.95 L10.85 55.75 Q11.2 56.75 11.7 57.35 L11.05 56.7 Q8.7 64.2 20.45 68.55 26.2 70.7 37.75 72.35 L60.8 76.4 84.05 80.3 Q88.1 80.85 95.05 80.4 L106.05 80.0 118.45 81.0 Q125.8 81.55 130.95 81.1 L144.65 80.35 Q152.8 79.85 158.0 78.3 L174.7 72.75 Q178.25 71.6 184.5 70.3 189.8 68.9 193.4 65.95 194.85 64.75 197.15 61.8 L201.0 56.75 Q202.05 57.95 202.3 59.35 202.85 61.65 201.25 63.05 L197.7 65.25 Q196.4 66.15 194.2 68.4 L190.7 71.45 Q187.35 73.55 181.6 74.75 L172.05 76.35 Q169.65 76.85 162.55 79.1" fill="#994e12" fill-rule="evenodd" stroke="none"/>
      <path d="M204.05 74.3 L209.6 71.45 Q206.45 76.2 198.75 80.1 195.0 81.95 190.3 83.5 L181.65 86.1 172.5 89.15 Q167.2 90.9 163.15 91.35 L135.0 94.15 Q119.2 95.3 106.7 94.7 L94.55 94.05 Q59.05 92.85 33.6 85.7 L32.45 85.45 Q28.0 84.4 22.3 82.45 13.6 79.55 8.15 76.4 0.95 72.25 0.7 68.35 3.3 70.7 7.6 73.2 15.2 77.6 25.75 81.05 L26.25 81.4 61.8 88.55 Q70.0 90.4 84.35 91.75 L120.55 93.05 Q139.05 92.7 156.8 90.1 171.6 87.95 179.55 85.3 185.15 83.45 193.6 79.45 L204.05 74.3" fill="#b5973b" fill-rule="evenodd" stroke="none"/>
    </g>
  </defs>
</svg>
