<?xml version="1.0" encoding="UTF-8" standalone="no"?>
<svg xmlns:xlink="http://www.w3.org/1999/xlink" height="29.65px" width="67.85px" xmlns="http://www.w3.org/2000/svg">
  <g transform="matrix(1.0, 0.0, 0.0, 1.0, 0.0, 0.0)">
    <use height="29.65" transform="matrix(1.0, 0.0, 0.0, 1.0, 0.0, 0.0)" width="67.85" xlink:href="#shape0"/>
  </g>
  <defs>
    <g id="shape0" transform="matrix(1.0, 0.0, 0.0, 1.0, 0.0, 0.0)">
      <path d="M49.65 24.0 L49.0 23.75 47.4 23.4 Q46.25 19.0 50.4 17.6 52.55 16.85 57.95 16.85 L61.25 16.2 Q64.6 16.7 66.25 20.55 L66.65 21.85 Q67.05 24.4 63.25 24.2 L59.4 23.7 55.3 23.45 53.0 23.95 50.6 24.2 49.65 24.0 M3.0 7.6 Q3.85 7.1 5.15 6.6 7.6 5.65 8.5 5.0 L10.75 3.15 13.3 1.5 Q19.35 -1.35 27.85 1.2 29.0 1.55 41.2 6.65 39.7 9.2 37.4 10.15 29.15 13.8 22.35 8.85 20.5 7.5 19.6 7.45 18.65 7.4 16.65 8.6 12.45 11.05 9.1 11.65 6.85 12.1 5.1 10.75 3.55 9.6 3.0 7.6" fill="#dddee0" fill-rule="evenodd" stroke="none"/>
      <path d="M46.5 13.85 Q46.8 15.45 46.7 17.7 L46.45 20.0 45.7 20.0 43.55 20.15 41.15 20.65 41.2 20.6 41.75 19.9 42.3 19.2 43.4 18.1 43.65 16.7 Q43.65 15.1 42.4 13.95 L45.3 14.2 46.5 13.85" fill="#504a3f" fill-rule="evenodd" stroke="none"/>
      <path d="M46.5 13.85 L45.3 14.2 42.4 13.95 42.05 13.85 38.6 13.5 Q37.3 13.75 35.9 15.05 L33.7 16.6 33.3 16.75 29.3 16.45 25.15 15.5 24.85 15.5 21.95 15.7 21.85 15.7 19.45 16.1 18.6 16.2 12.4 17.4 8.05 17.8 5.95 17.55 Q3.2 16.95 1.65 15.4 L0.6 14.0 Q-1.05 11.1 1.95 8.35 L2.75 7.75 3.0 7.55 3.0 7.6 Q3.55 9.6 5.1 10.75 6.85 12.1 9.1 11.65 12.45 11.05 16.65 8.6 18.65 7.4 19.6 7.45 20.5 7.5 22.35 8.85 29.15 13.8 37.4 10.15 39.7 9.2 41.2 6.65 L41.65 6.85 Q44.45 8.05 46.5 10.45 48.55 12.85 46.5 13.85" fill="#ced1d6" fill-rule="evenodd" stroke="none"/>
      <path d="M49.65 24.0 L50.6 24.2 53.0 23.95 55.3 23.45 59.4 23.7 63.25 24.2 Q67.05 24.4 66.65 21.85 70.05 26.15 63.65 29.2 L57.5 29.55 Q52.8 29.2 51.55 28.25 49.35 26.6 49.65 24.0 M41.75 19.9 L41.2 20.6 41.75 19.9 M22.6 26.35 L21.0 26.35 Q16.65 26.2 12.55 25.1 L13.25 25.25 14.65 23.35 19.45 16.1 21.85 15.7 21.95 15.7 24.85 15.5 23.15 16.2 Q24.15 16.8 24.4 19.1 24.6 21.1 24.25 22.45 23.9 23.55 22.4 24.6 L19.65 26.25 22.6 26.35 M9.8 24.2 Q6.25 22.85 3.9 20.0 2.05 17.8 1.65 15.4 3.2 16.95 5.95 17.55 L8.05 17.8 7.95 19.3 Q7.8 21.95 8.15 23.45 L9.8 24.2" fill="#797061" fill-rule="evenodd" stroke="none"/>
      <path d="M32.05 24.3 L31.85 24.4 22.6 26.35 19.65 26.25 22.4 24.6 Q23.9 23.55 24.25 22.45 24.6 21.1 24.4 19.1 24.15 16.8 23.15 16.2 L24.85 15.5 25.15 15.5 29.3 16.45 33.3 16.75 33.7 16.6 36.2 16.45 Q39.55 16.55 39.05 18.1 37.55 18.35 35.25 19.7 L31.6 21.7 28.85 22.7 Q27.05 23.35 26.35 24.1 L32.05 24.3" fill="#706759" fill-rule="evenodd" stroke="none"/>
      <path d="M42.4 13.95 Q43.65 15.1 43.65 16.7 L43.4 18.1 42.3 19.2 41.75 19.9 41.2 20.6 41.15 20.65 Q39.4 21.1 36.45 22.35 L32.8 23.95 32.25 24.2 32.05 24.3 26.35 24.1 Q27.05 23.35 28.85 22.7 L31.6 21.7 35.25 19.7 Q37.55 18.35 39.05 18.1 39.55 16.55 36.2 16.45 L33.7 16.6 35.9 15.05 Q37.3 13.75 38.6 13.5 L42.05 13.85 42.4 13.95 M12.55 25.1 L9.95 24.25 9.8 24.2 8.15 23.45 Q7.8 21.95 7.95 19.3 L8.05 17.8 12.4 17.4 18.6 16.2 19.45 16.1 14.65 23.35 13.25 25.25 12.55 25.1" fill="#635b4f" fill-rule="evenodd" stroke="none"/>
    </g>
  </defs>
</svg>
