<?xml version="1.0" encoding="UTF-8" standalone="no"?>
<svg xmlns:xlink="http://www.w3.org/1999/xlink" height="40.0px" width="40.0px" xmlns="http://www.w3.org/2000/svg">
  <g transform="matrix(1.0, 0.0, 0.0, 1.0, 0.0, 0.0)">
    <use height="20.9" id="note" transform="matrix(1.558, 0.0, 0.0, 1.558, 3.4043, 3.7938)" width="20.9" xlink:href="#sprite0"/>
  </g>
  <defs>
    <g id="sprite0" transform="matrix(1.0, 0.0, 0.0, 1.0, 5.1, 4.85)">
      <use height="11.1" transform="matrix(1.0, 0.0, 0.0, 1.0, 0.0, 0.0)" width="11.1" xlink:href="#sprite1"/>
    </g>
    <g id="sprite1" transform="matrix(1.0, 0.0, 0.0, 1.0, 0.0, 0.0)">
      <use height="11.1" transform="matrix(1.0, 0.0, 0.0, 1.0, 0.0, 0.0)" width="11.1" xlink:href="#shape0"/>
    </g>
    <g id="shape0" transform="matrix(1.0, 0.0, 0.0, 1.0, 0.0, 0.0)">
      <path d="M4.3 6.8 Q4.8 7.3 5.55 7.3 6.3 7.3 6.85 6.8 7.35 6.3 7.35 5.55 7.35 4.8 6.85 4.3 6.3 3.75 5.55 3.75 4.8 3.75 4.3 4.3 3.75 4.8 3.75 5.55 3.75 6.3 4.3 6.8 M1.65 1.6 Q3.25 0.0 5.55 0.0 7.85 0.0 9.45 1.6 11.1 3.25 11.1 5.55 11.1 7.85 9.45 9.45 7.85 11.1 5.55 11.1 3.25 11.1 1.65 9.45 0.0 7.85 0.0 5.55 0.0 3.25 1.65 1.6" fill="url(#gradient0)" fill-rule="evenodd" stroke="none"/>
      <path d="M4.3 6.8 Q4.8 7.3 5.55 7.3 6.3 7.3 6.85 6.8 7.35 6.3 7.35 5.55 7.35 4.8 6.85 4.3 6.3 3.75 5.55 3.75 4.8 3.75 4.3 4.3 3.75 4.8 3.75 5.55 3.75 6.3 4.3 6.8 M2.5 2.5 Q3.75 1.2 5.55 1.2 7.35 1.2 8.65 2.5 9.9 3.75 9.9 5.55 9.9 7.35 8.65 8.65 7.35 9.9 5.55 9.9 3.75 9.9 2.5 8.65 1.2 7.35 1.2 5.55 1.2 3.75 2.5 2.5" fill="url(#gradient1)" fill-rule="evenodd" stroke="none"/>
    </g>
    <radialGradient cx="0" cy="0" gradientTransform="matrix(0.0, 0.0132, 0.0132, 0.0, 5.5, -0.2)" gradientUnits="userSpaceOnUse" id="gradient0" r="819.2" spreadMethod="pad">
      <stop offset="0.3137254901960784" stop-color="#ffffff"/>
      <stop offset="0.5019607843137255" stop-color="#f0f0f0"/>
      <stop offset="0.8627450980392157" stop-color="#cacaca"/>
      <stop offset="1.0" stop-color="#bababa"/>
    </radialGradient>
    <radialGradient cx="0" cy="0" gradientTransform="matrix(0.0, 0.0107, 0.0107, 0.0, 5.4, 0.95)" gradientUnits="userSpaceOnUse" id="gradient1" r="819.2" spreadMethod="pad">
      <stop offset="0.3137254901960784" stop-color="#e6e6e6"/>
      <stop offset="0.5333333333333333" stop-color="#d7d7d7"/>
      <stop offset="0.9607843137254902" stop-color="#b1b1b1"/>
      <stop offset="1.0" stop-color="#adadad"/>
    </radialGradient>
  </defs>
</svg>
