<?xml version="1.0" encoding="UTF-8" standalone="no"?>
<svg xmlns:xlink="http://www.w3.org/1999/xlink" height="191.4px" width="526.1px" xmlns="http://www.w3.org/2000/svg">
  <g transform="matrix(1.0, 0.0, 0.0, 1.0, 0.0, 0.0)">
    <use height="191.4" transform="matrix(1.0, 0.0, 0.0, 1.0, 0.0, 0.0)" width="526.1" xlink:href="#shape0"/>
    <use height="77.3" transform="matrix(2.0, 0.0, 0.0, 2.0, 126.0, 10.75)" width="196.3" xlink:href="#sprite0"/>
    <use height="74.8" transform="matrix(2.0, 0.0, 0.0, 2.0, 104.9, 38.25)" width="153.45" xlink:href="#sprite1"/>
    <use height="59.8" transform="matrix(2.0, 0.0, 0.0, 2.0, 28.3, 70.85)" width="128.9" xlink:href="#sprite2"/>
  </g>
  <defs>
    <g id="shape0" transform="matrix(1.0, 0.0, 0.0, 1.0, 0.0, 0.0)">
      <path d="M446.2 47.65 Q466.1 61.15 484.4 78.85 494.1 88.15 504.9 99.55 557.7 149.45 478.9 171.35 411.4 190.15 231.3 191.35 74.1 192.45 21.5 164.65 5.1 155.95 1.1 145.45 -0.1 142.15 0.0 139.05 L0.4 136.65 Q53.5 83.85 129.3 44.75 226.6 -5.35 308.3 0.65 385.4 6.25 446.2 47.65" fill="url(#gradient0)" fill-rule="evenodd" stroke="none"/>
    </g>
    <linearGradient gradientTransform="matrix(-0.0018, 0.1212, -0.1212, -0.0018, 263.1, 139.15)" gradientUnits="userSpaceOnUse" id="gradient0" spreadMethod="pad" x1="-819.2" x2="819.2">
      <stop offset="0.0" stop-color="#d9ebcf"/>
      <stop offset="0.5529411764705883" stop-color="#55bfc5"/>
      <stop offset="0.9921568627450981" stop-color="#27545b"/>
    </linearGradient>
    <g id="sprite0" transform="matrix(1.0, 0.0, 0.0, 1.0, 0.0, 0.0)">
      <use height="77.3" transform="matrix(1.0, 0.0, 0.0, 1.0, 0.0, 0.0)" width="196.3" xlink:href="#shape1"/>
    </g>
    <g id="shape1" transform="matrix(1.0, 0.0, 0.0, 1.0, 0.0, 0.0)">
      <path d="M190.9 74.45 L183.35 77.3 Q177.85 70.15 170.3 61.45 155.3 44.0 145.4 36.1 104.7 3.7 48.25 7.6 30.65 8.85 13.55 13.55 5.0 15.9 0.0 18.0 10.2 11.5 27.8 6.3 62.95 -4.05 99.8 2.55 140.0 9.75 172.15 40.65 188.25 56.1 196.3 70.1 L190.9 74.45" fill="url(#gradient1)" fill-rule="evenodd" stroke="none"/>
    </g>
    <linearGradient gradientTransform="matrix(-7.0E-4, 0.0502, -0.0502, -7.0E-4, 98.1, 42.2)" gradientUnits="userSpaceOnUse" id="gradient1" spreadMethod="pad" x1="-819.2" x2="819.2">
      <stop offset="0.00784313725490196" stop-color="#27545b"/>
      <stop offset="0.4470588235294118" stop-color="#36a3a7"/>
      <stop offset="1.0" stop-color="#c6e1b5"/>
    </linearGradient>
    <g id="sprite1" transform="matrix(1.0, 0.0, 0.0, 1.0, 0.0, 0.05)">
      <use height="74.8" transform="matrix(1.0, 0.0, 0.0, 1.0, 0.0, -0.05)" width="153.45" xlink:href="#shape2"/>
    </g>
    <g id="shape2" transform="matrix(1.0, 0.0, 0.0, 1.0, 0.0, 0.05)">
      <path d="M153.45 72.7 L121.9 74.75 Q113.85 52.75 97.1 35.95 78.3 17.1 53.25 9.95 33.85 4.4 15.0 6.65 5.55 7.75 0.0 9.95 7.65 5.7 21.8 2.75 50.05 -3.15 82.4 3.45 115.6 10.25 137.85 42.15 148.95 58.1 153.45 72.7" fill="url(#gradient2)" fill-rule="evenodd" stroke="none"/>
    </g>
    <linearGradient gradientTransform="matrix(-7.0E-4, 0.0482, -0.0482, -7.0E-4, 76.7, 40.5)" gradientUnits="userSpaceOnUse" id="gradient2" spreadMethod="pad" x1="-819.2" x2="819.2">
      <stop offset="0.00784313725490196" stop-color="#27545b"/>
      <stop offset="0.4470588235294118" stop-color="#36a3a7"/>
      <stop offset="1.0" stop-color="#c6e1b5"/>
    </linearGradient>
    <g id="sprite2" transform="matrix(1.0, 0.0, 0.0, 1.0, -0.8, 0.0)">
      <use height="59.8" transform="matrix(1.0, 0.0, 0.0, 1.0, 0.8, 0.0)" width="128.9" xlink:href="#shape3"/>
    </g>
    <g id="shape3" transform="matrix(1.0, 0.0, 0.0, 1.0, -0.8, 0.0)">
      <path d="M129.7 59.25 L91.2 59.8 Q85.95 50.55 78.3 40.1 62.95 19.15 50.95 13.1 34.95 5.0 15.9 12.2 6.95 15.6 0.8 20.4 L7.95 14.7 Q18.95 6.05 31.35 2.45 49.25 -2.75 68.2 3.1 91.5 10.3 112.9 35.5 123.65 48.1 129.7 59.25" fill="url(#gradient3)" fill-rule="evenodd" stroke="none"/>
    </g>
    <linearGradient gradientTransform="matrix(-6.0E-4, 0.0384, -0.0384, -6.0E-4, 64.7, 32.35)" gradientUnits="userSpaceOnUse" id="gradient3" spreadMethod="pad" x1="-819.2" x2="819.2">
      <stop offset="0.00784313725490196" stop-color="#27545b"/>
      <stop offset="0.4470588235294118" stop-color="#36a3a7"/>
      <stop offset="1.0" stop-color="#c6e1b5"/>
    </linearGradient>
  </defs>
</svg>
