<?xml version="1.0" encoding="UTF-8" standalone="no"?>
<svg xmlns:xlink="http://www.w3.org/1999/xlink" height="71.45px" width="391.9px" xmlns="http://www.w3.org/2000/svg">
  <g transform="matrix(1.0, 0.0, 0.0, 1.0, 0.0, 0.0)">
    <use height="71.45" transform="matrix(1.0, 0.0, 0.0, 1.0, 0.0, 0.0)" width="391.9" xlink:href="#shape0"/>
  </g>
  <defs>
    <g id="shape0" transform="matrix(1.0, 0.0, 0.0, 1.0, 0.0, 0.0)">
      <path d="M191.95 31.75 Q232.85 32.0 267.15 26.15 291.7 21.95 316.55 13.75 L334.3 7.6 Q343.7 4.3 348.8 2.9 362.95 -0.95 372.65 2.05 391.4 7.8 391.9 40.2 392.15 56.4 388.65 71.45 L7.95 71.45 Q2.65 56.1 0.7 39.55 -3.1 6.45 13.95 0.45 18.5 -1.15 31.0 3.0 L63.05 13.8 Q120.25 31.3 191.95 31.75" fill="url(#gradient0)" fill-rule="evenodd" stroke="none"/>
    </g>
    <radialGradient cx="0" cy="0" gradientTransform="matrix(0.2068, 0.0, 0.0, -0.0742, 195.3, 2.65)" gradientUnits="userSpaceOnUse" id="gradient0" r="819.2" spreadMethod="pad">
      <stop offset="0.0" stop-color="#3f1119" stop-opacity="0.25882354"/>
      <stop offset="1.0" stop-color="#000000" stop-opacity="0.0"/>
    </radialGradient>
  </defs>
</svg>
