<?xml version="1.0" encoding="UTF-8" standalone="no"?>
<svg xmlns:xlink="http://www.w3.org/1999/xlink" height="99.35px" width="64.5px" xmlns="http://www.w3.org/2000/svg">
  <g transform="matrix(1.0, 0.0, 0.0, 1.0, 0.0, 0.0)">
    <use height="17.25" transform="matrix(0.0, 1.4953, -3.7374, 0.0, 64.4818, -0.005)" width="66.45" xlink:href="#sprite0"/>
    <use height="12.95" transform="matrix(0.0, 1.8409, -3.5402, 0.0, 53.55, 25.15)" width="26.3" xlink:href="#sprite1"/>
    <use height="55.45" transform="matrix(1.0, 0.0, 0.0, 1.0, 5.25, 19.7)" width="53.95" xlink:href="#shape2"/>
    <use height="55.45" transform="matrix(1.0, 0.0, 0.0, 1.0, 5.25, 19.7)" width="53.95" xlink:href="#sprite2"/>
    <use height="29.05" transform="matrix(1.0, 0.0, 0.0, 1.0, 17.7, 33.2)" width="29.3" xlink:href="#shape4"/>
    <use height="0.0" id="price_tag_pt" transform="matrix(1.0, 0.0, 0.0, 1.0, 32.25, 80.45)" width="0.0" xlink:href="#sprite3"/>
  </g>
  <defs>
    <g id="sprite0" transform="matrix(1.0, 0.0, 0.0, 1.0, -6.45, 0.45)">
      <use height="17.25" transform="matrix(1.0, 0.0, 0.0, 1.0, 6.45, -0.45)" width="66.45" xlink:href="#shape0"/>
    </g>
    <g id="shape0" transform="matrix(1.0, 0.0, 0.0, 1.0, -6.45, 0.45)">
      <path d="M63.2 14.3 Q53.45 16.8 39.7 16.8 25.9 16.8 16.2 14.3 6.45 11.8 6.45 8.2 6.45 4.7 16.2 2.1 25.9 -0.45 39.7 -0.45 53.5 -0.45 63.2 2.1 72.9 4.7 72.9 8.2 72.9 11.8 63.2 14.3" fill="url(#gradient0)" fill-rule="evenodd" stroke="none"/>
    </g>
    <radialGradient cx="0" cy="0" gradientTransform="matrix(0.0303, 0.0, 0.0, -0.011, 39.7, 8.2)" gradientUnits="userSpaceOnUse" id="gradient0" r="819.2" spreadMethod="pad">
      <stop offset="0.0" stop-color="#001f20" stop-opacity="0.8509804"/>
      <stop offset="0.8745098039215686" stop-color="#231f20" stop-opacity="0.0"/>
    </radialGradient>
    <g id="sprite1" transform="matrix(1.0, 0.0, 0.0, 1.0, 0.0, 0.0)">
      <use height="12.95" transform="matrix(1.0, 0.0, 0.0, 1.0, 0.0, 0.0)" width="26.3" xlink:href="#shape1"/>
    </g>
    <g id="shape1" transform="matrix(1.0, 0.0, 0.0, 1.0, 0.0, 0.0)">
      <path d="M26.3 6.45 Q26.3 9.15 22.45 11.05 18.6 12.95 13.15 12.95 7.7 12.95 3.85 11.05 0.0 9.15 0.0 6.45 0.0 3.8 3.85 1.9 7.7 0.0 13.15 0.0 18.6 0.0 22.45 1.9 26.3 3.8 26.3 6.45" fill="#4f4f4f" fill-rule="evenodd" stroke="none"/>
    </g>
    <g id="shape2" transform="matrix(1.0, 0.0, 0.0, 1.0, -5.25, -19.7)">
      <path d="M36.35 20.2 Q35.15 21.05 35.05 22.5 34.95 24.05 36.55 25.05 38.0 25.95 39.1 27.8 L39.85 29.45 32.95 28.6 28.3 28.75 25.8 29.2 Q25.65 27.35 26.25 25.25 26.9 23.2 27.85 22.3 29.35 20.95 33.45 20.1 L36.35 20.2" fill="url(#gradient1)" fill-rule="evenodd" stroke="none"/>
      <path d="M27.85 22.55 Q29.15 21.3 32.6 20.35 35.8 19.5 36.45 19.85 L33.7 20.55 Q32.65 20.8 31.55 21.35 29.3 22.45 28.85 24.05 28.4 25.55 29.7 27.15 L31.1 28.45 25.2 29.15 Q25.05 27.3 25.95 25.35 26.7 23.7 27.85 22.55" fill="url(#gradient2)" fill-rule="evenodd" stroke="none"/>
      <path d="M51.05 31.25 Q49.9 32.35 50.4 34.2 50.85 35.85 50.35 37.9 L49.75 39.65 45.35 34.35 Q44.15 32.9 41.8 31.25 L39.7 29.9 Q40.85 28.4 42.75 27.3 44.6 26.2 45.9 26.25 47.95 26.25 51.55 28.45 55.15 30.7 53.55 30.5 52.05 30.3 51.05 31.25" fill="url(#gradient3)" fill-rule="evenodd" stroke="none"/>
      <path d="M49.25 28.05 L45.45 28.15 Q44.1 28.95 43.95 31.05 43.85 32.1 44.05 32.95 L39.3 29.4 Q40.45 27.95 42.45 27.15 44.1 26.45 45.7 26.4 47.55 26.35 50.7 28.05 53.65 29.65 53.85 30.35 L51.35 28.95 49.25 28.05" fill="url(#gradient4)" fill-rule="evenodd" stroke="none"/>
      <path d="M56.15 42.45 Q57.6 43.85 58.65 47.9 59.7 52.05 58.7 50.8 57.75 49.6 56.35 49.6 54.75 49.6 53.9 51.25 53.1 52.8 51.25 53.9 L49.6 54.75 50.1 47.85 Q50.25 46.0 49.7 43.2 L49.15 40.75 53.1 41.0 Q55.2 41.5 56.15 42.45" fill="url(#gradient5)" fill-rule="evenodd" stroke="none"/>
      <path d="M55.85 42.4 Q57.2 43.65 58.35 47.1 59.35 50.25 59.0 50.9 L58.2 48.2 57.3 46.05 Q56.1 43.85 54.45 43.5 52.9 43.15 51.4 44.5 L50.15 45.95 49.15 40.1 Q51.0 39.85 53.0 40.65 54.65 41.3 55.85 42.4" fill="url(#gradient6)" fill-rule="evenodd" stroke="none"/>
      <path d="M17.35 27.65 Q18.4 28.85 20.2 28.35 L23.9 28.45 25.65 29.1 20.25 33.4 Q18.8 34.55 17.05 36.85 L15.65 38.95 Q14.2 37.75 13.15 35.85 12.1 34.0 12.15 32.65 12.2 30.6 14.5 27.1 16.8 23.55 16.6 25.1 16.4 26.6 17.35 27.65" fill="url(#gradient7)" fill-rule="evenodd" stroke="none"/>
      <path d="M14.1 27.9 Q15.75 25.0 16.45 24.8 L14.05 29.35 Q13.25 31.7 14.05 33.15 14.85 34.55 16.9 34.75 L18.8 34.7 15.15 39.35 Q13.75 38.15 13.0 36.15 12.35 34.45 12.35 32.85 12.35 31.0 14.1 27.9" fill="url(#gradient8)" fill-rule="evenodd" stroke="none"/>
      <path d="M5.45 44.8 Q4.9 40.6 5.75 41.95 6.55 43.2 7.95 43.4 9.5 43.6 10.6 42.05 11.55 40.7 13.5 39.8 L15.25 39.15 13.9 45.9 Q13.3 48.8 13.95 53.1 12.1 53.15 10.1 52.35 8.1 51.6 7.25 50.55 6.0 48.95 5.45 44.8" fill="url(#gradient9)" fill-rule="evenodd" stroke="none"/>
      <path d="M5.45 41.8 L6.5 46.8 Q7.45 49.15 9.05 49.7 10.5 50.25 12.25 49.05 L13.65 47.8 13.9 53.7 Q12.05 53.75 10.15 52.7 8.55 51.85 7.5 50.6 6.3 49.2 5.65 45.7 5.0 42.4 5.45 41.8" fill="url(#gradient10)" fill-rule="evenodd" stroke="none"/>
      <path d="M14.85 53.75 L18.4 59.65 Q19.9 62.2 23.3 64.95 21.95 66.25 19.95 67.05 L16.6 67.6 Q14.6 67.25 11.45 64.55 8.2 61.8 9.7 62.2 11.15 62.6 12.3 61.85 13.6 60.95 13.4 59.05 13.2 57.35 14.0 55.4 L14.85 53.75" fill="url(#gradient11)" fill-rule="evenodd" stroke="none"/>
      <path d="M17.4 65.75 Q18.85 65.15 19.3 63.15 L19.5 61.25 23.65 65.45 Q22.3 66.7 20.2 67.2 L16.85 67.45 Q15.0 67.2 12.15 65.05 9.5 63.05 9.4 62.3 L13.6 65.3 Q15.85 66.4 17.4 65.75" fill="url(#gradient12)" fill-rule="evenodd" stroke="none"/>
      <path d="M30.95 66.3 L38.1 65.85 Q38.2 67.75 37.55 69.8 36.9 71.85 35.9 72.7 34.4 74.05 30.3 74.8 L27.4 74.65 Q28.65 73.8 28.75 72.4 28.85 70.8 27.25 69.8 25.8 68.9 24.8 67.0 L24.1 65.3 30.95 66.3" fill="#ebca96" fill-rule="evenodd" stroke="none"/>
      <path d="M30.95 66.3 L38.1 65.85 Q38.2 67.75 37.55 69.8 36.9 71.85 35.9 72.7 34.4 74.05 30.3 74.8 L27.4 74.65 Q28.65 73.8 28.75 72.4 28.85 70.8 27.25 69.8 25.8 68.9 24.8 67.0 L24.1 65.3 30.95 66.3" fill="url(#gradient13)" fill-rule="evenodd" stroke="none"/>
      <path d="M38.75 65.9 Q38.85 67.75 37.9 69.7 37.15 71.3 35.95 72.45 34.6 73.7 31.15 74.55 L27.3 74.95 32.25 73.6 Q34.55 72.55 35.0 70.95 35.45 69.45 34.15 67.8 L32.8 66.45 38.75 65.9" fill="url(#gradient14)" fill-rule="evenodd" stroke="none"/>
      <path d="M49.15 55.5 Q50.55 56.7 51.6 58.6 52.65 60.55 52.55 61.85 52.45 63.9 50.1 67.4 47.75 70.9 48.0 69.3 48.2 67.8 47.3 66.75 46.25 65.55 44.4 66.0 L40.7 65.8 39.0 65.15 44.5 60.95 Q46.85 59.15 49.15 55.5" fill="url(#gradient15)" fill-rule="evenodd" stroke="none"/>
      <path d="M47.8 59.7 L45.9 59.7 49.65 55.1 Q51.05 56.3 51.8 58.35 52.4 60.05 52.35 61.65 52.35 63.5 50.55 66.6 48.85 69.45 48.1 69.6 L49.6 67.2 50.6 65.15 Q51.45 62.75 50.65 61.3 49.85 59.95 47.8 59.7" fill="url(#gradient16)" fill-rule="evenodd" stroke="none"/>
      <path d="M51.1 47.95 Q51.1 56.1 45.6 61.85 40.1 67.6 32.3 67.6 24.5 67.6 19.0 61.85 13.45 56.1 13.45 47.95 13.45 40.1 18.6 34.4 24.05 28.3 32.3 28.3 40.1 28.3 45.6 34.05 51.1 39.8 51.1 47.95" fill="#896a54" fill-rule="evenodd" stroke="none"/>
      <path d="M51.1 47.45 Q51.1 55.35 45.6 61.0 40.1 66.6 32.3 66.6 24.5 66.6 19.0 61.0 13.45 55.35 13.45 47.45 13.45 39.8 18.6 34.2 24.05 28.3 32.3 28.3 40.1 28.3 45.6 33.9 51.1 39.5 51.1 47.45" fill="#ffcdb1" fill-rule="evenodd" stroke="none"/>
      <path d="M51.1 47.75 Q51.1 55.55 45.6 61.1 40.1 66.6 32.3 66.6 24.5 66.6 19.0 61.1 13.45 55.55 13.45 47.75 13.45 39.95 19.0 34.45 24.5 28.95 32.3 28.95 40.1 28.95 45.6 34.45 51.1 39.95 51.1 47.75" fill="url(#gradient17)" fill-rule="evenodd" stroke="none"/>
      <path d="M32.35 32.45 Q38.75 32.45 43.25 37.05 47.75 41.65 47.75 48.2 47.75 54.75 43.25 59.35 38.75 63.95 32.35 63.95 26.0 63.95 21.45 59.35 16.95 54.7 16.95 48.2 16.95 41.7 21.45 37.05 26.0 32.45 32.35 32.45" fill="#ffcdb1" fill-rule="evenodd" stroke="none"/>
      <path d="M32.35 32.45 Q38.75 32.45 43.25 36.95 47.75 41.45 47.75 47.85 47.75 54.25 43.25 58.75 38.75 63.25 32.35 63.25 26.0 63.25 21.45 58.75 16.95 54.25 16.95 47.85 16.95 41.5 21.45 36.95 26.0 32.45 32.35 32.45" fill="#896a54" fill-rule="evenodd" stroke="none"/>
    </g>
    <linearGradient gradientTransform="matrix(0.0, -0.0048, -0.0048, 0.0, 32.8, 27.2)" gradientUnits="userSpaceOnUse" id="gradient1" spreadMethod="pad" x1="-819.2" x2="819.2">
      <stop offset="0.01568627450980392" stop-color="#897059"/>
      <stop offset="0.0784313725490196" stop-color="#9e8566"/>
      <stop offset="0.15294117647058825" stop-color="#af9671"/>
      <stop offset="0.23529411764705882" stop-color="#b9a077"/>
      <stop offset="0.33725490196078434" stop-color="#bca379"/>
      <stop offset="0.984313725490196" stop-color="#ffdca3"/>
    </linearGradient>
    <linearGradient gradientTransform="matrix(3.0E-4, -0.0066, -0.0066, -3.0E-4, 30.8, 24.75)" gradientUnits="userSpaceOnUse" id="gradient2" spreadMethod="pad" x1="-819.2" x2="819.2">
      <stop offset="0.01568627450980392" stop-color="#897059"/>
      <stop offset="0.21176470588235294" stop-color="#9e8566"/>
      <stop offset="0.4392156862745098" stop-color="#af9671"/>
      <stop offset="0.6901960784313725" stop-color="#b9a077"/>
      <stop offset="1.0" stop-color="#bca379"/>
    </linearGradient>
    <linearGradient gradientTransform="matrix(0.0037, -0.0035, -0.0035, -0.0037, 45.95, 33.5)" gradientUnits="userSpaceOnUse" id="gradient3" spreadMethod="pad" x1="-819.2" x2="819.2">
      <stop offset="0.01568627450980392" stop-color="#897059"/>
      <stop offset="0.0784313725490196" stop-color="#9e8566"/>
      <stop offset="0.15294117647058825" stop-color="#af9671"/>
      <stop offset="0.23529411764705882" stop-color="#b9a077"/>
      <stop offset="0.33725490196078434" stop-color="#bca379"/>
      <stop offset="1.0" stop-color="#ffdca3"/>
    </linearGradient>
    <linearGradient gradientTransform="matrix(0.0047, -0.0046, -0.0046, -0.0047, 46.35, 30.05)" gradientUnits="userSpaceOnUse" id="gradient4" spreadMethod="pad" x1="-819.2" x2="819.2">
      <stop offset="0.01568627450980392" stop-color="#897059"/>
      <stop offset="0.21176470588235294" stop-color="#9e8566"/>
      <stop offset="0.4392156862745098" stop-color="#af9671"/>
      <stop offset="0.6901960784313725" stop-color="#b9a077"/>
      <stop offset="1.0" stop-color="#bca379"/>
    </linearGradient>
    <linearGradient gradientTransform="matrix(0.0042, 0.0, 0.0, -0.0042, 52.65, 47.7)" gradientUnits="userSpaceOnUse" id="gradient5" spreadMethod="pad" x1="-819.2" x2="819.2">
      <stop offset="0.01568627450980392" stop-color="#897059"/>
      <stop offset="0.0784313725490196" stop-color="#9e8566"/>
      <stop offset="0.15294117647058825" stop-color="#af9671"/>
      <stop offset="0.23529411764705882" stop-color="#b9a077"/>
      <stop offset="0.33725490196078434" stop-color="#bca379"/>
      <stop offset="0.996078431372549" stop-color="#f2d19a"/>
    </linearGradient>
    <linearGradient gradientTransform="matrix(0.0066, -1.0E-4, -1.0E-4, -0.0066, 54.9, 45.45)" gradientUnits="userSpaceOnUse" id="gradient6" spreadMethod="pad" x1="-819.2" x2="819.2">
      <stop offset="0.01568627450980392" stop-color="#897059"/>
      <stop offset="0.21176470588235294" stop-color="#9e8566"/>
      <stop offset="0.4392156862745098" stop-color="#af9671"/>
      <stop offset="0.6901960784313725" stop-color="#b9a077"/>
      <stop offset="1.0" stop-color="#bca379"/>
    </linearGradient>
    <linearGradient gradientTransform="matrix(-0.0041, -0.0051, -0.0051, 0.0041, 19.8, 33.15)" gradientUnits="userSpaceOnUse" id="gradient7" spreadMethod="pad" x1="-819.2" x2="819.2">
      <stop offset="0.01568627450980392" stop-color="#897059"/>
      <stop offset="0.0784313725490196" stop-color="#9e8566"/>
      <stop offset="0.15294117647058825" stop-color="#af9671"/>
      <stop offset="0.23529411764705882" stop-color="#b9a077"/>
      <stop offset="0.33725490196078434" stop-color="#bca379"/>
      <stop offset="1.0" stop-color="#ffdca3"/>
    </linearGradient>
    <linearGradient gradientTransform="matrix(-0.0045, -0.0048, -0.0048, 0.0045, 16.0, 32.3)" gradientUnits="userSpaceOnUse" id="gradient8" spreadMethod="pad" x1="-819.2" x2="819.2">
      <stop offset="0.01568627450980392" stop-color="#897059"/>
      <stop offset="0.21176470588235294" stop-color="#9e8566"/>
      <stop offset="0.4392156862745098" stop-color="#af9671"/>
      <stop offset="0.6901960784313725" stop-color="#b9a077"/>
      <stop offset="1.0" stop-color="#bca379"/>
    </linearGradient>
    <linearGradient gradientTransform="matrix(-0.0057, 0.0, 0.0, 0.0057, 12.95, 46.1)" gradientUnits="userSpaceOnUse" id="gradient9" spreadMethod="pad" x1="-819.2" x2="819.2">
      <stop offset="0.01568627450980392" stop-color="#897059"/>
      <stop offset="0.0784313725490196" stop-color="#9e8566"/>
      <stop offset="0.15294117647058825" stop-color="#af9671"/>
      <stop offset="0.23529411764705882" stop-color="#b9a077"/>
      <stop offset="0.33725490196078434" stop-color="#bca379"/>
      <stop offset="1.0" stop-color="#f2d19a"/>
    </linearGradient>
    <linearGradient gradientTransform="matrix(-0.0065, -7.0E-4, -7.0E-4, 0.0065, 8.6, 47.65)" gradientUnits="userSpaceOnUse" id="gradient10" spreadMethod="pad" x1="-819.2" x2="819.2">
      <stop offset="0.01568627450980392" stop-color="#897059"/>
      <stop offset="0.21176470588235294" stop-color="#9e8566"/>
      <stop offset="0.4392156862745098" stop-color="#af9671"/>
      <stop offset="0.6901960784313725" stop-color="#b9a077"/>
      <stop offset="1.0" stop-color="#bca379"/>
    </linearGradient>
    <linearGradient gradientTransform="matrix(-0.0044, 0.0033, 0.0033, 0.0044, 15.3, 62.25)" gradientUnits="userSpaceOnUse" id="gradient11" spreadMethod="pad" x1="-819.2" x2="819.2">
      <stop offset="0.01568627450980392" stop-color="#897059"/>
      <stop offset="0.0784313725490196" stop-color="#9e8566"/>
      <stop offset="0.15294117647058825" stop-color="#af9671"/>
      <stop offset="0.23529411764705882" stop-color="#b9a077"/>
      <stop offset="0.33725490196078434" stop-color="#bca379"/>
      <stop offset="0.996078431372549" stop-color="#edcc98"/>
    </linearGradient>
    <linearGradient gradientTransform="matrix(-0.0067, 0.0049, 0.0049, 0.0067, 13.25, 66.25)" gradientUnits="userSpaceOnUse" id="gradient12" spreadMethod="pad" x1="-819.2" x2="819.2">
      <stop offset="0.01568627450980392" stop-color="#897059"/>
      <stop offset="0.21176470588235294" stop-color="#9e8566"/>
      <stop offset="0.4392156862745098" stop-color="#af9671"/>
      <stop offset="0.6901960784313725" stop-color="#b9a077"/>
      <stop offset="1.0" stop-color="#bca379"/>
    </linearGradient>
    <linearGradient gradientTransform="matrix(0.0, 0.0066, 0.0066, 0.0, 31.1, 72.0)" gradientUnits="userSpaceOnUse" id="gradient13" spreadMethod="pad" x1="-819.2" x2="819.2">
      <stop offset="0.0196078431372549" stop-color="#806753"/>
      <stop offset="0.03137254901960784" stop-color="#866d57"/>
      <stop offset="0.09803921568627451" stop-color="#9e8566"/>
      <stop offset="0.16862745098039217" stop-color="#af9671"/>
      <stop offset="0.24313725490196078" stop-color="#b9a077"/>
      <stop offset="0.33725490196078434" stop-color="#bca379"/>
      <stop offset="0.9450980392156862" stop-color="#edcc98"/>
    </linearGradient>
    <linearGradient gradientTransform="matrix(-7.0E-4, 0.0118, 0.0118, 7.0E-4, 32.65, 77.1)" gradientUnits="userSpaceOnUse" id="gradient14" spreadMethod="pad" x1="-819.2" x2="819.2">
      <stop offset="0.01568627450980392" stop-color="#897059"/>
      <stop offset="0.21176470588235294" stop-color="#9e8566"/>
      <stop offset="0.4392156862745098" stop-color="#af9671"/>
      <stop offset="0.6901960784313725" stop-color="#b9a077"/>
      <stop offset="1.0" stop-color="#bca379"/>
    </linearGradient>
    <linearGradient gradientTransform="matrix(0.0037, 0.0037, 0.0037, -0.0037, 47.75, 63.95)" gradientUnits="userSpaceOnUse" id="gradient15" spreadMethod="pad" x1="-819.2" x2="819.2">
      <stop offset="0.01568627450980392" stop-color="#897059"/>
      <stop offset="0.0784313725490196" stop-color="#9e8566"/>
      <stop offset="0.15294117647058825" stop-color="#af9671"/>
      <stop offset="0.23529411764705882" stop-color="#b9a077"/>
      <stop offset="0.33725490196078434" stop-color="#bca379"/>
      <stop offset="0.9803921568627451" stop-color="#edcc98"/>
    </linearGradient>
    <linearGradient gradientTransform="matrix(0.0044, 0.0049, 0.0049, -0.0044, 50.25, 63.8)" gradientUnits="userSpaceOnUse" id="gradient16" spreadMethod="pad" x1="-819.2" x2="819.2">
      <stop offset="0.01568627450980392" stop-color="#897059"/>
      <stop offset="0.21176470588235294" stop-color="#9e8566"/>
      <stop offset="0.4392156862745098" stop-color="#af9671"/>
      <stop offset="0.6901960784313725" stop-color="#b9a077"/>
      <stop offset="1.0" stop-color="#bca379"/>
    </linearGradient>
    <linearGradient gradientTransform="matrix(0.0153, -0.0172, -0.0172, -0.0153, 31.85, 48.25)" gradientUnits="userSpaceOnUse" id="gradient17" spreadMethod="pad" x1="-819.2" x2="819.2">
      <stop offset="0.01568627450980392" stop-color="#897059"/>
      <stop offset="0.0784313725490196" stop-color="#9e8566"/>
      <stop offset="0.15294117647058825" stop-color="#af9671"/>
      <stop offset="0.23529411764705882" stop-color="#b9a077"/>
      <stop offset="0.33725490196078434" stop-color="#bca379"/>
      <stop offset="0.5333333333333333" stop-color="#ebca96"/>
      <stop offset="0.6784313725490196" stop-color="#b79e76"/>
      <stop offset="0.9607843137254902" stop-color="#91785e"/>
    </linearGradient>
    <g id="sprite2" transform="matrix(1.0, 0.0, 0.0, 1.0, 0.05, 0.1)">
      <use height="55.45" transform="matrix(1.0, 0.0, 0.0, 1.0, -0.05, -0.1)" width="53.95" xlink:href="#shape3"/>
    </g>
    <g id="shape3" transform="matrix(1.0, 0.0, 0.0, 1.0, 0.05, 0.1)">
      <path d="M22.35 9.05 L20.5 9.4 20.5 9.25 20.3 9.3 20.35 9.3 19.5 10.0 Q21.2 9.35 22.35 9.05 M32.85 9.45 L34.4 10.05 34.5 10.0 34.0 9.6 32.85 9.45 M40.6 6.45 Q42.35 6.45 45.45 8.2 48.3 9.8 48.55 10.5 L48.55 10.55 Q48.65 10.7 48.25 10.7 46.75 10.5 45.75 11.45 44.6 12.55 45.1 14.4 45.55 16.05 45.05 18.1 L44.45 19.85 43.8 19.05 44.35 20.3 Q46.9 20.15 49.35 21.7 50.4 22.15 50.85 22.65 52.3 24.05 53.35 28.1 54.4 32.25 53.4 31.0 52.45 29.8 51.05 29.8 49.45 29.8 48.6 31.45 47.55 33.45 44.7 34.8 L44.5 35.4 Q46.4 37.2 46.95 40.3 47.3 41.45 47.25 42.05 47.15 43.8 45.3 46.75 43.6 49.5 42.85 49.8 L42.8 49.8 Q42.6 49.9 42.7 49.5 42.9 48.0 42.0 46.95 40.95 45.75 39.1 46.2 L35.05 45.9 33.4 46.6 Q33.35 49.25 31.65 51.45 L30.6 52.9 Q29.1 54.25 25.0 55.0 L22.1 54.85 Q23.35 54.0 23.45 52.6 23.55 51.0 21.95 50.0 20.15 48.9 18.9 45.9 L18.25 45.55 18.35 45.65 Q16.35 47.5 13.1 47.7 L11.3 47.8 Q9.6 47.5 6.8 45.3 4.25 43.25 4.1 42.55 L4.1 42.5 4.4 42.4 Q5.85 42.8 7.0 42.05 8.3 41.15 8.1 39.25 7.8 36.85 9.2 34.55 8.7 33.15 8.5 31.9 L8.65 33.3 8.55 33.3 8.6 33.9 Q5.9 33.95 3.3 31.85 L1.95 30.75 Q0.7 29.15 0.15 25.0 -0.4 20.8 0.45 22.15 1.25 23.4 2.65 23.6 4.2 23.8 5.3 22.25 6.75 20.2 9.7 19.4 7.8 17.7 7.2 14.6 6.85 13.7 6.85 12.85 6.9 11.1 8.75 8.05 10.45 5.25 11.15 5.0 L11.3 5.3 Q11.1 6.8 12.05 7.85 13.1 9.05 14.9 8.55 17.1 8.0 19.9 9.1 19.75 6.5 21.55 3.95 22.0 3.05 22.55 2.5 24.05 1.15 28.15 0.3 L31.05 0.4 Q29.85 1.25 29.75 2.7 29.65 4.25 31.25 5.25 33.25 6.45 34.35 9.2 36.1 7.45 38.9 6.8 L40.6 6.45" fill="#897b62" fill-rule="evenodd" stroke="none"/>
    </g>
    <g id="shape4" transform="matrix(1.0, 0.0, 0.0, 1.0, -17.7, -33.2)">
      <path d="M47.0 47.7 Q47.0 53.75 42.7 58.0 38.45 62.25 32.35 62.25 26.3 62.25 22.0 58.0 17.7 53.75 17.7 47.7 17.7 41.7 22.0 37.45 26.3 33.2 32.35 33.2 38.4 33.2 42.7 37.45 47.0 41.7 47.0 47.7" fill="#ffebd2" fill-rule="evenodd" stroke="none"/>
      <path d="M47.0 47.7 Q47.0 53.75 42.7 58.0 38.45 62.25 32.35 62.25 26.3 62.25 22.0 58.0 17.7 53.75 17.7 47.7 17.7 41.7 22.0 37.45 26.3 33.2 32.35 33.2 38.4 33.2 42.7 37.45 47.0 41.7 47.0 47.7" fill="url(#gradient18)" fill-rule="evenodd" stroke="none"/>
      <path d="M24.55 45.3 Q25.0 45.9 25.0 46.75 25.0 47.6 24.55 48.2 24.1 48.8 23.45 48.8 22.8 48.8 22.35 48.2 21.9 47.6 21.9 46.75 21.9 45.9 22.35 45.3 22.8 44.7 23.45 44.7 24.1 44.7 24.55 45.3" fill="#665c4c" fill-rule="evenodd" stroke="none"/>
      <path d="M42.85 46.45 Q42.85 47.3 42.4 47.9 41.95 48.5 41.3 48.5 40.65 48.5 40.2 47.9 39.75 47.3 39.75 46.45 39.75 45.6 40.2 45.0 40.65 44.4 41.3 44.4 41.95 44.4 42.4 45.0 42.85 45.6 42.85 46.45" fill="#665c4c" fill-rule="evenodd" stroke="none"/>
      <path d="M26.1 51.7 L26.75 51.1 28.15 53.2 Q30.05 55.25 32.25 55.15 34.65 55.05 36.65 53.0 L38.2 51.0 38.75 51.45 Q38.35 52.55 37.35 53.65 35.35 55.9 32.4 56.1 29.8 56.3 27.7 54.0 L26.1 51.7" fill="#665c4c" fill-rule="evenodd" stroke="none"/>
    </g>
    <radialGradient cx="0" cy="0" gradientTransform="matrix(0.0179, 0.0, 0.0, -0.0177, 32.35, 47.7)" gradientUnits="userSpaceOnUse" id="gradient18" r="819.2" spreadMethod="pad">
      <stop offset="0.0" stop-color="#ffedd9"/>
      <stop offset="0.5764705882352941" stop-color="#ecd2b6"/>
      <stop offset="1.0" stop-color="#cfa88a"/>
    </radialGradient>
  </defs>
</svg>
