<?xml version="1.0" encoding="UTF-8" standalone="no"?>
<svg xmlns:xlink="http://www.w3.org/1999/xlink" height="283.35px" width="272.75px" xmlns="http://www.w3.org/2000/svg">
  <g transform="matrix(1.0, 0.0, 0.0, 1.0, 0.0, 0.0)">
    <use height="114.75" transform="matrix(1.0, 0.0, 0.0, 1.0, 16.05, 133.65)" width="230.15" xlink:href="#shape0"/>
    <use height="27.0" transform="matrix(1.0, 0.0, 0.0, 1.0, 35.2, 231.8)" width="200.45" xlink:href="#sprite0"/>
    <use height="283.35" transform="matrix(1.0, 0.0, 0.0, 1.0, 0.0, 0.0)" width="272.75" xlink:href="#shape2"/>
  </g>
  <defs>
    <g id="shape0" transform="matrix(1.0, 0.0, 0.0, 1.0, -16.05, -133.65)">
      <path d="M16.05 234.05 Q16.55 223.5 57.65 218.55 79.55 215.95 126.5 214.3 190.15 212.05 219.6 216.7 246.05 220.9 246.2 230.9 L16.05 234.05" fill="url(#gradient0)" fill-rule="evenodd" stroke="none"/>
      <path d="M203.75 217.35 L183.0 216.05 164.3 215.55 151.75 215.05 164.75 214.7 Q179.9 214.5 190.5 215.3 L213.5 217.05 Q224.45 218.1 228.7 219.55 232.75 220.95 237.5 224.0 239.9 225.55 241.45 226.8 238.85 225.3 235.3 223.65 228.25 220.35 223.7 219.55 L203.75 217.35" fill="#f5e5d6" fill-rule="evenodd" stroke="none"/>
      <path d="M101.25 216.8 L99.0 218.05 Q60.75 220.3 47.5 222.55 39.2 223.95 30.4 226.65 26.0 228.0 23.25 229.05 L26.3 226.95 Q29.8 224.7 32.0 224.05 38.4 222.2 55.75 220.05 L84.5 217.7 101.25 216.8" fill="#f5e5d6" fill-rule="evenodd" stroke="none"/>
      <path d="M65.75 244.4 Q29.8 241.2 30.15 234.05 30.5 227.4 60.95 223.3 87.45 219.7 125.5 219.3 177.65 218.7 192.55 219.45 232.95 221.45 233.65 230.9 234.25 239.35 206.85 242.85 186.3 245.45 135.85 246.35 95.2 247.05 65.75 244.4" fill="url(#gradient1)" fill-rule="evenodd" stroke="none"/>
      <path d="M122.35 228.15 Q126.95 226.9 129.95 224.55 L132.0 222.45 133.6 224.9 Q136.1 227.35 140.7 227.15 145.25 226.95 148.6 224.15 L151.0 221.45 154.15 224.7 Q158.0 227.9 161.35 227.45 164.7 227.05 168.55 225.05 L171.7 223.15 175.0 225.4 Q179.05 227.55 183.0 227.15 186.95 226.7 191.55 224.55 193.85 223.45 195.35 222.45 L196.85 225.55 Q199.15 228.55 203.3 228.15 207.45 227.7 210.6 226.05 L212.95 224.45 215.05 227.1 Q217.7 229.65 220.65 229.45 223.55 229.25 225.9 227.85 L227.65 226.45 233.5 230.5 233.65 230.9 Q234.25 239.35 206.85 242.85 186.3 245.45 135.85 246.35 100.35 247.0 72.4 245.0 38.95 242.55 31.9 237.05 L31.9 236.95 36.0 236.05 Q40.65 234.8 43.35 233.15 46.05 231.45 47.3 229.3 L48.0 227.45 50.85 230.65 Q54.5 233.65 58.7 232.8 62.85 231.95 66.7 228.95 L69.7 226.15 72.9 229.75 Q76.8 233.2 80.35 232.15 83.9 231.1 88.3 227.15 L92.0 223.45 95.5 226.2 Q99.6 228.8 102.7 228.15 105.85 227.55 108.9 224.95 L111.35 222.45 114.1 226.05 Q117.75 229.4 122.35 228.15" fill="url(#gradient2)" fill-rule="evenodd" stroke="none"/>
      <path d="M159.85 133.65 L153.85 156.65 150.3 186.55 Q147.4 217.55 150.85 223.15 155.45 230.7 155.95 237.95 156.55 246.1 150.85 247.65 142.4 249.9 133.1 245.6 129.15 243.8 128.2 241.7 127.15 239.4 130.35 237.65 134.3 235.45 139.95 235.1 142.8 234.9 144.85 235.15 L140.9 235.9 Q136.8 236.9 135.85 238.15 134.75 239.6 138.35 240.3 141.85 240.95 145.35 240.15 148.3 239.5 146.9 233.55 146.3 230.8 142.85 221.65 140.05 214.15 136.65 201.85 132.55 186.8 130.85 175.65 129.3 165.35 128.9 148.95 L128.85 134.65 159.85 133.65" fill="#939a9d" fill-rule="evenodd" stroke="none"/>
      <path d="M142.9 246.4 L149.4 246.75 Q152.8 246.5 154.95 244.35 153.7 246.85 150.85 247.65 142.4 249.9 133.1 245.6 129.15 243.8 128.2 241.7 127.15 239.4 130.35 237.65 L133.45 236.3 Q127.95 238.8 129.5 241.15 130.75 243.05 135.1 244.65 139.15 246.1 142.9 246.4" fill="#696f71" fill-rule="evenodd" stroke="none"/>
      <path d="M133.6 240.65 Q133.85 241.1 133.3 241.5 132.8 241.9 132.5 241.15 132.45 240.4 132.95 240.3 133.45 240.25 133.6 240.65" fill="#54585b" fill-rule="evenodd" stroke="none"/>
      <path d="M140.35 243.6 Q141.25 244.45 140.1 244.2 L140.0 243.85 Q140.0 243.5 140.35 243.6" fill="#54585b" fill-rule="evenodd" stroke="none"/>
      <path d="M151.5 243.55 Q151.65 243.85 151.3 244.25 151.0 244.7 150.65 244.0 150.55 243.35 151.0 243.3 151.4 243.2 151.5 243.55" fill="#54585b" fill-rule="evenodd" stroke="none"/>
      <path d="M146.5 242.1 Q147.0 243.1 146.35 243.25 145.65 243.5 145.55 242.9 145.4 242.5 145.75 242.1 146.1 241.65 146.5 242.1" fill="#54585b" fill-rule="evenodd" stroke="none"/>
      <path d="M152.4 231.8 Q152.8 232.35 152.3 232.75 151.8 233.2 151.45 232.55 151.2 231.65 151.7 231.55 152.25 231.45 152.4 231.8" fill="#54585b" fill-rule="evenodd" stroke="none"/>
      <path d="M152.8 237.5 Q153.45 237.65 153.3 238.0 153.05 238.4 152.85 238.2 L152.55 237.85 Q152.5 237.5 152.8 237.5" fill="#54585b" fill-rule="evenodd" stroke="none"/>
      <path d="M153.85 155.45 Q151.0 158.45 147.75 162.95 141.25 171.95 139.35 179.45 137.7 186.0 137.9 191.7 138.05 197.9 140.35 205.15 L147.0 224.85 Q150.9 237.4 149.0 238.95 147.4 240.35 144.85 240.6 L141.7 240.5 145.35 240.15 Q148.3 239.5 146.9 233.55 146.3 230.8 142.85 221.65 140.1 214.35 136.8 202.4 132.8 187.85 131.05 176.8 L154.0 142.95 153.85 155.45" fill="#696f71" fill-rule="evenodd" stroke="none"/>
      <path d="M148.0 170.5 Q148.5 171.1 148.1 171.25 147.6 171.45 147.55 171.15 147.25 170.9 147.5 170.6 147.75 170.25 148.0 170.5" fill="#54585b" fill-rule="evenodd" stroke="none"/>
      <path d="M145.3 182.25 Q145.85 183.55 144.65 184.25 143.45 184.95 143.0 183.35 142.8 181.75 143.9 181.55 145.0 181.4 145.3 182.25" fill="#54585b" fill-rule="evenodd" stroke="none"/>
      <path d="M144.95 197.6 Q145.5 197.25 145.8 197.8 146.1 198.85 145.35 199.05 144.55 199.2 144.55 198.45 144.45 197.95 144.95 197.6" fill="#54585b" fill-rule="evenodd" stroke="none"/>
      <path d="M145.95 209.15 Q146.6 209.7 146.1 210.45 L144.85 210.4 Q144.35 209.55 144.95 209.1 L145.95 209.15" fill="#54585b" fill-rule="evenodd" stroke="none"/>
      <path d="M149.85 224.6 Q150.2 225.05 149.85 225.5 149.45 226.0 149.1 225.3 148.95 224.95 149.25 224.6 149.55 224.2 149.85 224.6" fill="#54585b" fill-rule="evenodd" stroke="none"/>
      <path d="M148.65 188.25 Q149.0 189.1 148.35 189.3 147.65 189.45 147.65 188.85 147.55 188.4 148.0 188.1 148.45 187.8 148.65 188.25" fill="#54585b" fill-rule="evenodd" stroke="none"/>
      <path d="M142.7 190.05 Q142.8 191.15 142.1 191.05 141.35 190.9 141.6 190.45 141.5 190.1 141.95 189.8 142.45 189.5 142.7 190.05" fill="#54585b" fill-rule="evenodd" stroke="none"/>
      <path d="M143.9 173.55 Q144.3 174.6 143.5 174.05 143.3 173.8 143.5 173.6 L143.9 173.55" fill="#54585b" fill-rule="evenodd" stroke="none"/>
      <path d="M150.9 164.75 Q151.05 164.9 150.8 165.25 150.55 165.6 150.25 165.1 150.15 164.6 150.5 164.55 150.8 164.5 150.9 164.75" fill="#54585b" fill-rule="evenodd" stroke="none"/>
    </g>
    <linearGradient gradientTransform="matrix(0.1405, 0.0, 0.0, -0.1405, 131.15, 223.8)" gradientUnits="userSpaceOnUse" id="gradient0" spreadMethod="pad" x1="-819.2" x2="819.2">
      <stop offset="0.0" stop-color="#ebc8aa"/>
      <stop offset="1.0" stop-color="#f2ddc9"/>
    </linearGradient>
    <linearGradient gradientTransform="matrix(0.0, 0.0168, 0.0168, 0.0, 131.95, 235.8)" gradientUnits="userSpaceOnUse" id="gradient1" spreadMethod="pad" x1="-819.2" x2="819.2">
      <stop offset="0.0" stop-color="#b36940"/>
      <stop offset="1.0" stop-color="#2a211d"/>
    </linearGradient>
    <linearGradient gradientTransform="matrix(0.0, 0.0239, 0.0239, 0.0, 132.8, 240.2)" gradientUnits="userSpaceOnUse" id="gradient2" spreadMethod="pad" x1="-819.2" x2="819.2">
      <stop offset="0.0" stop-color="#cbdde7"/>
      <stop offset="1.0" stop-color="#85b7cd"/>
    </linearGradient>
    <g id="sprite0" transform="matrix(1.0, 0.0, 0.0, 1.0, 0.0, 0.0)">
      <use height="27.0" transform="matrix(1.0, 0.0, 0.0, 1.0, 0.0, 0.0)" width="200.45" xlink:href="#shape1"/>
    </g>
    <g id="shape1" transform="matrix(1.0, 0.0, 0.0, 1.0, 0.0, 0.0)">
      <path d="M184.45 2.1 Q186.45 3.6 189.75 4.0 193.1 4.4 197.1 2.55 L200.45 0.65 200.45 27.0 0.0 27.0 0.0 8.0 Q3.3 8.2 6.9 6.15 L9.8 4.0 10.7 4.85 Q11.95 5.8 13.8 6.0 15.7 6.2 18.8 4.95 L21.5 3.65 23.25 4.45 Q25.4 5.4 27.5 6.0 29.55 6.65 34.25 5.2 L38.5 3.65 41.1 5.15 Q44.25 6.65 47.15 6.65 50.05 6.65 53.9 5.0 55.8 4.2 57.15 3.35 L58.65 4.7 Q60.65 6.0 63.15 6.0 65.65 6.0 68.85 5.0 L71.5 4.0 73.9 4.25 78.8 4.0 86.5 2.0 88.5 3.55 Q91.0 5.15 93.5 5.35 96.0 5.55 102.0 2.8 L107.5 0.0 111.85 2.8 Q116.8 5.55 119.5 5.35 122.2 5.15 125.6 2.85 L128.5 0.65 130.55 2.3 Q133.1 4.05 135.8 4.65 138.5 5.3 143.3 3.05 L147.5 0.65 149.05 2.8 Q151.1 5.05 153.8 5.65 156.5 6.3 160.6 4.05 L164.1 1.65 166.0 3.85 Q168.55 6.0 172.1 6.0 175.25 6.0 179.5 3.35 181.6 2.0 183.1 0.65 L184.45 2.1" fill="url(#gradient3)" fill-rule="evenodd" stroke="none"/>
    </g>
    <linearGradient gradientTransform="matrix(0.0, 0.0186, 0.0186, 0.0, 100.25, 13.85)" gradientUnits="userSpaceOnUse" id="gradient3" spreadMethod="pad" x1="-819.2" x2="819.2">
      <stop offset="0.0" stop-color="#cbdde7"/>
      <stop offset="1.0" stop-color="#85b7cd"/>
    </linearGradient>
    <g id="shape2" transform="matrix(1.0, 0.0, 0.0, 1.0, 0.0, 0.0)">
      <path d="M87.0 87.55 Q85.9 81.2 84.35 79.65 81.6 76.9 74.3 81.2 64.8 86.8 60.85 87.15 54.3 87.8 51.65 79.8 50.85 77.3 50.5 74.2 L50.35 71.65 50.6 73.55 Q50.95 75.8 51.8 77.7 54.4 83.85 60.35 84.15 65.2 84.4 72.6 77.05 80.25 69.4 84.85 69.15 90.5 68.85 93.15 78.85 L95.45 88.5 Q97.0 94.65 98.85 98.65 102.6 106.8 114.1 111.8 119.85 114.3 124.85 115.15 L122.35 136.15 Q120.6 135.8 117.05 134.2 109.9 131.1 100.85 125.15 92.35 119.6 89.05 100.7 L87.0 87.55" fill="#939a9d" fill-rule="evenodd" stroke="none"/>
      <path d="M85.15 75.4 Q87.55 76.6 88.75 81.95 L90.25 91.15 Q91.6 98.5 93.55 105.05 96.65 115.4 100.15 119.05 103.5 122.55 107.2 124.6 109.05 125.6 110.25 125.9 107.15 118.15 105.9 113.55 105.2 110.95 104.4 105.8 108.75 109.6 115.2 112.25 L121.35 135.85 Q113.5 133.4 100.85 125.15 92.35 119.6 89.05 100.7 L87.0 87.55 Q85.9 81.2 84.35 79.65 81.6 76.9 74.3 81.2 64.8 86.8 60.85 87.15 54.3 87.8 51.65 79.8 50.85 77.3 50.5 74.2 L50.4 72.0 Q50.65 75.3 51.5 78.2 53.4 84.35 57.25 85.3 61.5 86.35 66.15 84.4 69.05 83.2 73.15 80.15 77.7 76.8 79.2 76.0 82.7 74.2 85.15 75.4" fill="#696f71" fill-rule="evenodd" stroke="none"/>
      <path d="M61.35 97.15 Q55.45 96.15 51.0 98.4 47.9 100.0 44.25 104.2 L38.0 110.85 Q34.1 114.15 29.35 114.65 20.3 115.6 12.4 110.7 L7.9 107.25 6.35 105.65 14.3 108.4 Q23.15 111.15 27.85 111.15 30.2 111.15 33.25 107.6 L39.35 99.85 Q48.55 88.8 59.85 89.65 66.7 90.2 70.35 92.85 73.3 95.05 75.4 99.9 L79.45 110.3 Q82.5 117.6 86.85 123.65 95.6 135.85 108.1 132.2 114.35 130.4 118.85 126.15 L130.35 147.15 Q123.5 148.55 114.0 148.7 95.0 149.1 81.85 143.15 74.85 140.0 72.25 132.4 70.6 127.5 70.3 117.7 69.95 107.6 69.0 104.25 67.15 98.15 61.35 97.15" fill="url(#gradient4)" fill-rule="evenodd" stroke="none"/>
      <path d="M61.35 97.15 Q55.45 96.15 51.0 98.4 47.9 100.0 44.25 104.2 L38.0 110.85 Q34.1 114.15 29.35 114.65 21.05 115.5 13.75 111.5 L6.35 105.65 10.5 108.45 Q15.7 111.5 21.0 112.8 29.0 114.8 35.25 110.55 39.1 107.9 44.5 100.65 48.2 95.7 55.05 94.3 61.1 93.15 65.0 95.15 68.65 97.0 69.95 99.0 71.6 101.5 72.5 107.8 73.65 115.4 76.4 123.8 79.6 133.4 82.7 136.65 85.5 139.55 90.05 140.4 L94.0 140.65 113.25 130.05 100.95 148.1 Q90.2 146.9 81.85 143.15 74.85 140.0 72.25 132.4 70.6 127.5 70.3 117.7 69.95 107.6 69.0 104.25 67.15 98.15 61.35 97.15" fill="#939a9d" fill-rule="evenodd" stroke="none"/>
      <path d="M61.35 97.15 Q55.45 96.15 51.0 98.4 47.9 100.0 44.25 104.2 L38.0 110.85 Q34.1 114.15 29.35 114.65 20.3 115.6 12.4 110.7 L7.9 107.25 6.35 105.65 Q11.5 110.2 16.4 112.25 20.9 114.05 26.45 114.3 L31.5 113.7 Q33.7 113.0 36.2 111.3 38.15 109.95 41.95 105.75 L47.25 99.65 Q51.25 95.0 61.35 95.7 69.35 96.25 71.2 107.4 L72.45 117.75 Q73.7 126.2 76.1 132.65 78.5 139.1 85.6 141.9 89.2 143.35 92.25 143.45 L90.3 146.1 Q86.15 145.05 81.85 143.15 74.85 140.0 72.25 132.4 70.6 127.5 70.3 117.7 69.95 107.6 69.0 104.25 67.15 98.15 61.35 97.15" fill="#696f71" fill-rule="evenodd" stroke="none"/>
      <path d="M201.45 89.35 Q200.7 106.75 197.3 116.65 193.9 126.65 180.3 137.65 173.5 143.15 167.35 146.65 L163.85 116.65 166.95 116.6 174.35 115.45 Q185.85 112.6 190.85 104.15 194.85 97.35 195.65 79.95 196.0 72.05 196.55 69.05 197.5 64.1 199.95 62.65 203.1 60.85 207.45 65.0 212.6 69.95 214.8 70.15 218.25 70.45 222.85 69.1 L226.8 67.65 222.55 70.75 Q217.6 73.85 213.8 73.65 211.0 73.5 205.55 69.35 203.75 68.0 203.0 68.05 202.05 68.2 201.8 70.65 201.6 72.9 201.45 89.35" fill="#939a9d" fill-rule="evenodd" stroke="none"/>
      <path d="M199.85 85.05 Q200.3 71.1 200.8 68.15 201.3 65.2 203.2 65.65 204.05 65.85 207.8 69.15 211.35 72.15 213.85 72.3 216.8 72.45 220.9 70.85 224.3 69.5 226.8 67.65 L222.55 70.75 Q217.6 73.85 213.8 73.65 211.0 73.5 205.55 69.35 203.75 68.0 203.0 68.05 202.05 68.2 201.8 70.65 201.6 72.9 201.45 89.35 200.7 106.75 197.3 116.65 193.25 128.5 175.4 141.35 L173.4 141.4 176.5 114.85 Q180.5 113.6 183.75 111.45 183.75 116.35 183.15 119.15 L181.75 125.8 186.35 123.75 Q191.25 120.95 192.9 117.05 196.1 109.3 197.1 105.7 199.45 97.15 199.85 85.05" fill="#696f71" fill-rule="evenodd" stroke="none"/>
      <path d="M238.8 89.65 Q241.75 93.55 245.5 102.35 249.95 112.85 251.3 115.3 254.7 121.3 258.3 121.65 265.2 122.3 269.95 119.05 271.7 117.8 272.75 116.55 270.8 119.3 268.05 121.85 261.8 127.7 256.8 126.15 252.9 124.95 243.1 112.65 234.1 101.4 231.3 102.15 229.6 102.6 226.9 108.4 L221.35 121.05 Q212.75 139.5 202.8 142.15 192.2 144.95 171.45 146.85 L152.85 148.15 154.35 125.15 159.05 126.1 170.45 127.65 Q188.45 129.15 197.8 124.15 202.75 121.5 206.85 114.6 208.8 111.35 213.35 101.35 217.15 93.0 219.95 89.5 224.05 84.3 229.3 84.15 234.55 84.0 238.8 89.65" fill="url(#gradient5)" fill-rule="evenodd" stroke="none"/>
      <path d="M231.3 102.15 Q229.6 102.6 226.9 108.4 L221.35 121.05 Q212.75 139.5 202.8 142.15 194.2 144.4 178.85 146.1 L171.15 143.55 174.4 132.3 183.7 133.3 Q194.55 133.7 202.35 130.65 209.5 127.85 217.85 113.55 L223.5 103.75 Q226.3 99.2 227.95 98.55 231.75 97.0 235.9 100.2 239.7 103.15 245.35 111.4 250.5 118.95 254.15 121.95 257.25 124.5 260.7 124.8 264.3 125.1 270.65 118.45 L272.2 117.05 272.25 117.1 Q269.25 121.1 265.95 123.6 260.9 127.4 256.8 126.15 252.9 124.95 243.1 112.65 234.1 101.4 231.3 102.15" fill="#939a9d" fill-rule="evenodd" stroke="none"/>
      <path d="M231.3 102.15 Q229.6 102.6 226.9 108.4 L221.35 121.05 Q212.75 139.5 202.8 142.15 195.4 144.1 182.8 145.65 L172.0 137.65 177.15 137.8 189.0 137.35 Q206.95 135.85 211.7 129.65 216.2 123.85 222.25 113.15 L228.85 101.65 Q230.45 99.55 232.9 100.15 234.9 100.65 236.35 102.3 L243.2 111.05 Q249.4 118.95 251.45 120.9 255.05 124.35 256.5 125.15 259.65 126.85 263.25 125.3 259.8 127.05 256.8 126.15 252.9 124.95 243.1 112.65 234.1 101.4 231.3 102.15" fill="#696f71" fill-rule="evenodd" stroke="none"/>
      <path d="M174.45 79.0 Q175.3 80.25 175.2 82.95 L176.5 83.85 178.1 85.4 Q183.65 97.1 182.8 110.85 182.1 122.75 176.85 134.05 L187.85 135.15 Q199.4 135.15 205.85 130.45 209.65 127.7 210.35 127.35 213.05 126.0 216.8 126.15 220.7 126.3 223.1 130.6 224.8 133.6 226.3 140.1 228.25 148.3 228.75 149.85 230.35 154.5 232.8 155.15 237.5 156.4 243.1 154.4 245.95 153.4 247.8 152.15 245.65 154.5 242.6 156.55 236.45 160.7 231.8 159.15 228.8 158.15 226.45 154.45 225.15 152.35 222.85 147.05 220.75 142.1 219.35 140.15 217.15 137.15 214.3 137.15 211.6 137.15 209.05 139.1 L204.15 143.55 Q196.55 150.2 184.35 151.15 172.55 152.0 161.2 151.55 152.4 156.6 149.45 159.35 142.8 165.55 138.1 177.4 122.1 217.75 120.95 221.2 113.3 243.7 118.3 247.6 123.55 251.7 127.75 251.5 131.35 251.35 131.65 248.9 131.8 247.45 127.0 247.6 L122.15 248.05 125.3 246.3 Q129.1 244.6 132.5 245.15 135.95 245.7 137.35 247.0 139.05 248.55 138.55 251.75 138.0 255.25 134.9 257.2 130.7 259.8 121.6 259.8 109.65 259.8 105.1 251.5 101.0 244.1 103.8 232.25 104.25 230.45 112.45 203.45 118.95 182.0 120.75 168.2 121.65 161.15 120.3 153.3 91.8 157.85 70.75 156.15 56.4 155.0 50.05 144.3 L46.2 136.9 Q44.25 133.45 41.75 133.15 39.05 132.8 37.45 134.9 36.45 136.15 35.0 140.05 31.75 148.65 26.75 150.65 20.5 153.15 13.25 151.15 9.65 150.15 7.25 148.65 L11.55 149.05 20.75 148.65 Q22.8 148.35 24.6 144.55 L28.0 136.35 Q33.25 124.5 42.75 123.65 48.15 123.15 51.6 126.9 52.8 128.15 56.95 135.2 60.3 140.9 64.05 143.25 69.5 146.65 78.25 145.65 88.5 144.45 98.6 139.5 106.25 135.7 113.25 130.05 109.6 120.2 108.2 115.5 105.7 107.25 104.95 100.3 104.85 99.3 107.1 98.25 109.4 97.2 109.5 96.15 109.65 94.95 107.9 91.2 106.2 87.65 106.7 86.25 109.3 78.45 114.75 71.85 120.4 65.05 127.6 61.4 144.6 52.8 160.95 65.0 169.25 71.2 174.45 79.0" fill="url(#gradient6)" fill-rule="evenodd" stroke="none"/>
      <path d="M174.7 79.8 Q175.35 80.45 175.2 82.95 L164.35 88.65 169.35 84.95 Q171.85 83.15 174.7 79.8" fill="#939a9d" fill-rule="evenodd" stroke="none"/>
      <path d="M177.7 90.15 L179.6 98.7 Q181.35 108.1 180.7 112.45 179.9 118.15 179.15 121.3 178.2 125.2 176.35 130.15 174.7 134.55 171.7 139.45 L169.0 143.45 169.0 141.8 157.35 142.8 161.35 140.2 Q166.0 136.45 169.35 130.8 172.7 125.2 174.2 112.95 L175.0 101.8 178.35 108.15 177.7 90.15" fill="#939a9d" fill-rule="evenodd" stroke="none"/>
      <path d="M121.35 68.45 Q122.7 67.0 124.75 67.85 125.75 68.25 126.5 68.95 126.45 67.9 126.75 66.75 127.3 64.45 128.85 63.8 130.4 63.2 132.1 64.45 L133.5 65.8 134.5 64.0 Q135.85 62.25 137.7 62.45 140.1 62.75 140.9 64.75 141.3 65.75 141.2 66.65 L143.5 65.15 Q146.2 64.0 148.5 65.8 150.8 67.6 150.9 69.95 150.95 71.15 150.5 71.95 L153.1 72.0 Q155.95 72.5 157.2 74.8 158.45 77.1 157.35 79.15 L156.0 80.8 157.6 81.45 Q159.25 82.6 159.7 84.95 160.1 87.35 158.7 88.9 L157.2 89.95 159.25 92.15 Q160.95 94.65 159.5 96.3 158.05 97.95 156.05 97.8 L154.35 97.3 153.8 99.9 Q152.9 102.6 151.0 102.8 149.15 103.0 147.15 101.35 L145.5 99.65 143.9 101.9 Q142.0 104.15 140.35 104.15 138.7 104.15 137.1 102.0 L135.85 99.8 133.85 101.4 Q131.4 102.9 129.0 102.45 126.7 102.05 125.85 99.15 L125.5 96.3 Q124.8 97.0 123.75 97.35 121.6 98.0 119.7 96.3 117.6 94.45 118.25 92.45 L119.35 90.8 117.6 90.25 Q115.8 89.35 115.5 87.45 115.2 85.6 116.55 84.25 117.25 83.6 118.0 83.3 117.35 82.75 116.85 81.8 115.85 79.9 116.7 77.8 117.5 75.7 119.35 75.1 L121.0 74.95 120.35 72.6 Q120.0 69.9 121.35 68.45" fill="#818e91" fill-rule="evenodd" stroke="none"/>
      <path d="M164.05 69.8 Q168.35 74.2 170.75 78.55 L165.25 80.3 162.55 74.55 Q159.3 68.4 156.8 66.2 153.2 63.1 149.2 61.6 L145.95 60.7 Q155.5 61.0 164.05 69.8" fill="#cdd1d2" fill-rule="evenodd" stroke="none"/>
      <path d="M135.7 66.95 Q141.65 66.75 147.5 71.25 152.8 75.3 154.2 79.8 155.6 84.4 155.2 89.25 154.7 94.85 151.85 96.45 148.95 98.1 142.8 98.1 137.5 98.1 131.2 96.95 125.1 95.9 121.9 91.75 118.35 87.1 120.35 80.65 122.35 74.15 126.95 70.45 131.0 67.15 135.7 66.95" fill="#494f51" fill-rule="evenodd" stroke="none"/>
      <path d="M125.3 91.1 Q127.65 93.2 129.65 93.8 140.3 97.05 147.75 96.4 151.5 96.1 153.1 95.1 150.85 96.8 148.65 97.2 L144.0 97.4 132.95 96.7 Q126.8 95.65 124.35 93.1 121.7 90.45 123.0 89.6 123.35 89.4 125.3 91.1" fill="#393d3f" fill-rule="evenodd" stroke="none"/>
      <path d="M148.2 84.45 Q148.2 81.8 146.35 77.45 145.2 74.75 142.0 72.5 L139.0 70.8 142.4 71.5 Q146.3 72.7 148.7 75.3 151.1 77.9 151.95 81.35 152.4 83.1 152.35 84.3 151.2 82.45 150.2 81.95 149.6 81.65 148.85 83.0 L148.2 84.45" fill="#aab2b5" fill-rule="evenodd" stroke="none"/>
      <path d="M50.05 144.3 L46.2 136.9 Q44.25 133.45 41.75 133.15 39.05 132.8 37.45 134.9 36.45 136.15 35.0 140.05 31.75 148.65 26.75 150.65 21.15 152.85 14.7 151.5 10.95 150.7 7.7 148.9 11.7 150.15 15.6 150.7 21.85 151.5 24.75 149.8 28.4 147.65 30.75 144.05 32.4 141.45 34.0 136.9 36.95 128.55 43.65 130.4 45.15 130.85 47.75 134.4 L53.05 141.85 Q60.95 152.4 68.9 152.9 L93.2 151.75 Q106.6 150.1 117.75 147.3 123.4 145.9 128.25 142.2 130.7 140.35 132.0 138.8 L130.3 153.5 Q128.0 170.1 124.85 179.8 122.35 187.55 113.5 212.5 106.0 235.2 106.5 242.95 107.05 251.2 112.25 254.9 115.65 257.25 121.5 257.8 L129.65 257.55 Q134.8 256.75 137.7 254.3 134.75 259.8 121.6 259.8 109.65 259.8 105.1 251.5 101.0 244.1 103.8 232.25 104.25 230.45 112.45 203.45 118.95 182.0 120.75 168.2 121.65 161.15 120.3 153.3 91.8 157.85 70.75 156.15 56.4 155.0 50.05 144.3" fill="#939a9d" fill-rule="evenodd" stroke="none"/>
      <path d="M202.65 138.95 Q208.95 134.3 212.5 133.2 L217.95 133.45 Q219.9 134.3 222.85 141.3 L227.15 151.8 Q229.25 156.2 234.35 157.0 240.55 157.95 247.8 152.15 245.65 154.5 242.6 156.55 236.45 160.7 231.8 159.15 228.8 158.15 226.45 154.45 225.15 152.35 222.85 147.05 220.75 142.1 219.35 140.15 217.15 137.15 214.3 137.15 211.6 137.15 209.05 139.1 L204.15 143.55 Q196.55 150.2 184.35 151.15 172.55 152.0 161.2 151.55 L165.05 150.65 177.5 148.3 Q188.3 146.45 191.7 145.3 196.35 143.7 202.65 138.95" fill="#939a9d" fill-rule="evenodd" stroke="none"/>
      <path d="M50.05 144.3 L46.2 136.9 Q44.25 133.45 41.75 133.15 39.05 132.8 37.45 134.9 36.45 136.15 35.0 140.05 31.75 148.65 26.75 150.65 20.5 153.15 13.25 151.15 9.65 150.15 7.25 148.65 L10.95 150.2 Q15.3 151.7 18.75 151.55 23.55 151.35 26.45 149.95 30.2 148.1 32.25 143.8 35.0 137.55 36.3 135.2 38.5 131.35 40.9 131.4 43.35 131.5 45.35 133.9 L48.25 138.55 Q51.0 143.25 53.45 146.0 58.3 151.5 64.15 153.15 70.8 155.1 87.25 154.7 103.25 154.3 111.15 152.3 L125.0 148.3 124.9 157.05 Q124.45 167.1 122.9 173.65 121.1 181.25 116.9 195.05 112.9 208.3 110.65 214.3 107.7 222.0 105.85 228.95 103.35 238.5 104.0 242.8 104.95 248.85 107.55 252.4 111.15 257.2 118.4 258.4 L129.55 258.9 Q132.1 258.5 135.05 257.1 130.9 259.8 121.6 259.8 109.65 259.8 105.1 251.5 101.0 244.1 103.8 232.25 104.25 230.45 112.45 203.45 118.95 182.0 120.75 168.2 121.65 161.15 120.3 153.3 91.8 157.85 70.75 156.15 56.4 155.0 50.05 144.3" fill="#696f71" fill-rule="evenodd" stroke="none"/>
      <path d="M222.85 147.05 Q220.75 142.1 219.35 140.15 217.15 137.15 214.3 137.15 211.6 137.15 209.05 139.1 L204.15 143.55 Q196.55 150.2 184.35 151.15 L168.55 151.7 Q168.7 151.55 169.0 151.55 L181.25 149.95 Q190.1 148.45 195.4 146.65 199.5 145.25 205.6 140.2 211.3 135.45 213.95 134.9 217.55 134.2 220.25 138.8 L224.85 149.3 Q227.15 154.65 230.35 156.75 233.05 158.5 237.1 158.3 240.15 158.15 244.25 155.15 246.35 153.65 247.8 152.15 245.65 154.5 242.6 156.55 236.45 160.7 231.8 159.15 228.8 158.15 226.45 154.45 225.15 152.35 222.85 147.05" fill="#696f71" fill-rule="evenodd" stroke="none"/>
      <path d="M106.35 96.85 L107.85 94.8 106.7 92.55 Q105.6 90.0 105.9 88.8 108.25 79.95 114.3 72.4 120.6 64.55 128.85 60.8 124.6 63.2 120.3 68.35 111.65 78.7 111.35 92.65 111.05 105.7 115.7 116.8 118.0 122.35 120.35 125.3 L113.25 130.05 Q109.65 120.25 108.2 115.5 105.7 107.2 104.95 100.3 104.85 99.15 106.35 96.85" fill="#939a9d" fill-rule="evenodd" stroke="none"/>
      <path d="M146.3 147.75 L149.85 138.8 149.1 146.1 Q148.65 153.6 150.0 154.3 151.4 155.0 156.45 153.35 L161.2 151.55 Q152.4 156.6 149.45 159.35 142.8 165.55 138.1 177.4 122.1 217.75 120.95 221.2 113.3 243.7 118.3 247.6 122.8 251.05 126.55 251.4 L126.5 251.45 120.8 251.05 Q114.9 249.65 113.85 244.65 112.75 239.3 118.1 221.0 122.35 206.5 127.7 192.8 132.25 181.2 139.85 163.45 L146.3 147.75" fill="#939a9d" fill-rule="evenodd" stroke="none"/>
      <path d="M124.65 247.35 L129.25 246.65 Q131.2 246.65 132.2 247.4 133.15 248.15 132.75 249.05 132.25 250.15 129.25 251.3 L129.15 251.25 Q131.5 250.65 131.65 248.9 131.8 247.45 127.0 247.6 L122.15 248.05 124.65 247.35" fill="#696f71" fill-rule="evenodd" stroke="none"/>
      <path d="M174.0 114.8 Q174.1 115.8 173.1 116.0 172.1 116.25 172.15 115.1 172.35 113.9 173.15 114.05 173.95 114.15 174.0 114.8" fill="#54585b" fill-rule="evenodd" stroke="none"/>
      <path d="M169.95 125.9 L169.55 126.3 Q169.15 126.35 169.2 125.85 169.45 125.35 169.75 125.5 L169.95 125.9" fill="#54585b" fill-rule="evenodd" stroke="none"/>
      <path d="M145.05 131.85 Q145.05 133.5 143.65 133.5 142.25 133.55 142.5 132.15 142.75 130.65 143.9 130.8 144.95 130.95 145.05 131.85" fill="#54585b" fill-rule="evenodd" stroke="none"/>
      <path d="M127.4 134.8 Q127.1 135.65 126.6 135.35 126.05 135.0 126.4 134.65 126.5 134.35 127.0 134.3 127.45 134.25 127.4 134.8" fill="#54585b" fill-rule="evenodd" stroke="none"/>
      <path d="M101.45 143.85 Q101.7 144.45 101.3 144.55 100.85 144.7 100.9 144.3 100.75 144.1 101.0 143.85 101.2 143.55 101.45 143.85" fill="#54585b" fill-rule="evenodd" stroke="none"/>
      <path d="M86.2 147.85 Q86.85 147.75 86.9 148.3 86.85 149.4 86.1 149.3 85.3 149.15 85.55 148.55 85.6 147.9 86.2 147.85" fill="#54585b" fill-rule="evenodd" stroke="none"/>
      <path d="M125.95 104.35 Q126.05 104.95 125.55 105.05 125.05 105.15 125.05 104.6 125.05 104.1 125.45 104.05 125.85 104.0 125.95 104.35" fill="#54585b" fill-rule="evenodd" stroke="none"/>
      <path d="M116.65 99.4 Q117.0 100.55 116.1 100.8 115.2 101.0 115.2 100.1 115.05 99.4 115.7 99.1 116.35 98.75 116.65 99.4" fill="#54585b" fill-rule="evenodd" stroke="none"/>
      <path d="M172.85 92.5 Q173.25 93.65 172.15 94.25 171.0 94.85 170.7 93.3 170.65 92.0 171.65 91.8 172.65 91.65 172.85 92.5" fill="#54585b" fill-rule="evenodd" stroke="none"/>
      <path d="M169.6 105.5 Q169.7 105.95 169.3 106.05 168.95 106.1 168.95 105.7 168.95 105.35 169.25 105.3 169.5 105.25 169.6 105.5" fill="#54585b" fill-rule="evenodd" stroke="none"/>
      <path d="M163.95 114.85 Q164.05 115.45 163.55 115.55 163.05 115.65 163.05 115.1 163.05 114.6 163.45 114.55 L163.95 114.85" fill="#54585b" fill-rule="evenodd" stroke="none"/>
      <path d="M160.1 104.25 Q160.5 105.4 159.4 106.0 158.25 106.6 157.95 105.05 157.9 103.75 158.9 103.55 159.9 103.4 160.1 104.25" fill="#54585b" fill-rule="evenodd" stroke="none"/>
      <path d="M178.5 98.4 Q178.35 97.25 179.4 96.85 180.45 96.45 180.8 97.45 181.3 99.2 179.9 99.5 178.5 99.85 178.5 98.4" fill="#54585b" fill-rule="evenodd" stroke="none"/>
      <path d="M167.45 139.45 Q167.7 141.45 165.95 141.8 164.2 142.15 164.3 140.1 164.45 138.5 165.9 138.3 167.3 138.1 167.45 139.45" fill="#54585b" fill-rule="evenodd" stroke="none"/>
      <path d="M138.7 150.7 Q138.95 152.5 137.65 152.55 136.35 152.55 136.55 151.4 136.5 150.55 137.4 150.1 138.35 149.65 138.7 150.7" fill="#54585b" fill-rule="evenodd" stroke="none"/>
      <path d="M134.95 162.1 Q134.85 162.1 134.85 163.0 134.7 163.7 133.8 162.8 133.65 161.9 134.2 161.8 134.75 161.7 134.95 162.1" fill="#54585b" fill-rule="evenodd" stroke="none"/>
      <path d="M130.75 173.6 Q130.95 174.6 130.1 174.8 129.25 175.0 129.25 174.05 129.25 173.15 129.95 173.05 130.65 172.95 130.75 173.6" fill="#54585b" fill-rule="evenodd" stroke="none"/>
      <path d="M174.15 83.75 Q174.5 84.6 173.85 84.8 173.15 84.95 173.15 84.3 173.05 83.85 173.45 83.6 173.9 83.3 174.15 83.75" fill="#54585b" fill-rule="evenodd" stroke="none"/>
      <path d="M141.75 60.2 L141.8 60.75 Q141.8 61.25 141.05 60.85 140.85 60.15 141.2 60.05 L141.75 60.2" fill="#54585b" fill-rule="evenodd" stroke="none"/>
      <path d="M117.05 107.85 Q117.25 108.25 116.6 108.75 115.95 109.25 115.65 108.2 115.85 107.15 116.45 107.3 117.05 107.4 117.05 107.85" fill="#54585b" fill-rule="evenodd" stroke="none"/>
      <path d="M113.25 91.2 L113.05 91.55 112.8 91.35 113.0 91.05 Q113.2 91.05 113.25 91.2" fill="#54585b" fill-rule="evenodd" stroke="none"/>
      <path d="M115.0 82.85 Q115.2 83.85 114.35 84.05 113.5 84.25 113.5 83.3 113.5 82.4 114.2 82.3 114.9 82.2 115.0 82.85" fill="#54585b" fill-rule="evenodd" stroke="none"/>
      <path d="M161.0 77.8 Q161.35 78.15 161.05 78.55 160.8 78.9 160.45 78.4 160.25 78.15 160.5 77.85 L161.0 77.8" fill="#54585b" fill-rule="evenodd" stroke="none"/>
      <path d="M155.15 69.25 Q155.3 69.4 155.05 69.75 154.8 70.1 154.5 69.6 154.4 69.1 154.75 69.05 155.05 69.0 155.15 69.25" fill="#54585b" fill-rule="evenodd" stroke="none"/>
      <path d="M179.1 105.9 Q179.45 106.3 179.1 106.75 178.7 107.2 178.3 106.55 178.1 106.1 178.5 105.8 L179.1 105.9" fill="#54585b" fill-rule="evenodd" stroke="none"/>
      <path d="M146.1 109.0 Q146.2 109.45 145.8 109.55 145.45 109.6 145.45 109.2 145.45 108.85 145.75 108.8 146.0 108.75 146.1 109.0" fill="#54585b" fill-rule="evenodd" stroke="none"/>
      <path d="M125.6 124.45 Q126.15 125.05 125.6 125.75 125.05 126.45 124.45 125.45 124.15 124.75 124.7 124.35 125.3 123.95 125.6 124.45" fill="#54585b" fill-rule="evenodd" stroke="none"/>
      <path d="M118.75 136.95 Q118.6 138.7 117.15 138.55 115.7 138.4 116.15 137.0 116.5 135.7 117.65 135.8 118.8 135.9 118.75 136.95" fill="#54585b" fill-rule="evenodd" stroke="none"/>
      <path d="M110.9 144.7 Q111.35 145.4 110.6 146.0 109.9 146.55 109.45 145.55 109.2 144.45 109.95 144.3 110.65 144.2 110.9 144.7" fill="#54585b" fill-rule="evenodd" stroke="none"/>
      <path d="M110.95 135.95 Q111.0 137.0 109.65 137.25 108.35 137.5 108.55 135.85 109.2 134.35 110.15 134.75 111.1 135.15 110.95 135.95" fill="#54585b" fill-rule="evenodd" stroke="none"/>
      <path d="M144.8 140.65 Q145.3 141.75 144.35 142.25 143.4 142.75 143.15 141.6 142.95 140.8 143.7 140.35 144.45 139.9 144.8 140.65" fill="#54585b" fill-rule="evenodd" stroke="none"/>
      <path d="M135.9 135.0 Q136.1 135.9 135.35 136.05 134.6 136.2 134.6 135.4 134.6 134.65 135.2 134.55 135.8 134.45 135.9 135.0" fill="#54585b" fill-rule="evenodd" stroke="none"/>
      <path d="M156.85 129.55 Q156.95 130.8 155.65 131.05 154.35 131.3 154.55 129.75 154.9 128.4 155.9 128.55 156.9 128.65 156.85 129.55" fill="#54585b" fill-rule="evenodd" stroke="none"/>
      <path d="M157.9 146.5 Q158.25 147.35 157.6 147.55 156.9 147.7 156.9 147.05 156.8 146.6 157.2 146.35 157.65 146.05 157.9 146.5" fill="#54585b" fill-rule="evenodd" stroke="none"/>
      <path d="M181.55 141.55 Q181.85 142.25 181.1 142.75 180.35 143.3 180.05 142.15 180.0 141.15 180.7 141.05 181.4 140.95 181.55 141.55" fill="#54585b" fill-rule="evenodd" stroke="none"/>
      <path d="M174.3 146.15 Q174.45 146.9 173.85 147.0 173.2 147.15 173.2 146.5 173.2 145.9 173.7 145.8 174.2 145.75 174.3 146.15" fill="#54585b" fill-rule="evenodd" stroke="none"/>
      <path d="M221.25 129.65 Q221.55 130.4 221.05 130.55 220.45 130.7 220.5 130.15 220.4 129.95 220.7 129.6 L221.25 129.65" fill="#54585b" fill-rule="evenodd" stroke="none"/>
      <path d="M224.3 139.5 Q224.4 139.95 224.0 140.05 223.65 140.1 223.65 139.7 223.65 139.35 223.95 139.3 224.2 139.25 224.3 139.5" fill="#54585b" fill-rule="evenodd" stroke="none"/>
      <path d="M212.4 130.8 Q211.8 132.65 211.2 131.0 211.4 130.15 211.9 130.3 212.4 130.4 212.4 130.8" fill="#54585b" fill-rule="evenodd" stroke="none"/>
      <path d="M196.2 138.6 Q196.3 139.55 195.35 139.8 194.35 140.0 194.4 138.85 194.65 137.55 195.4 137.8 196.1 138.0 196.2 138.6" fill="#54585b" fill-rule="evenodd" stroke="none"/>
      <path d="M188.0 137.9 Q188.3 138.1 188.05 138.5 187.8 138.9 187.45 138.5 187.15 137.9 187.5 137.8 L188.0 137.9" fill="#54585b" fill-rule="evenodd" stroke="none"/>
      <path d="M232.45 88.65 Q232.65 90.05 231.35 90.3 230.05 90.5 230.25 89.05 230.35 87.95 231.35 87.8 232.35 87.65 232.45 88.65" fill="#54585b" fill-rule="evenodd" stroke="none"/>
      <path d="M240.65 98.0 L240.75 98.3 240.5 98.3 240.45 98.1 240.65 98.0" fill="#54585b" fill-rule="evenodd" stroke="none"/>
      <path d="M222.8 95.25 Q223.3 96.25 222.55 96.5 221.8 96.75 221.65 96.1 221.4 95.45 221.95 95.1 222.45 94.7 222.8 95.25" fill="#54585b" fill-rule="evenodd" stroke="none"/>
      <path d="M216.7 104.55 Q217.3 105.6 216.3 106.5 215.3 107.4 214.65 105.8 214.35 104.5 215.35 104.1 216.35 103.7 216.7 104.55" fill="#54585b" fill-rule="evenodd" stroke="none"/>
      <path d="M213.3 114.0 L212.75 114.55 Q212.25 114.65 212.3 114.0 212.5 113.45 212.9 113.55 213.3 113.65 213.3 114.0" fill="#54585b" fill-rule="evenodd" stroke="none"/>
      <path d="M205.4 122.85 Q205.5 123.45 205.0 123.55 204.5 123.65 204.5 123.1 204.5 122.6 204.9 122.55 205.3 122.5 205.4 122.85" fill="#54585b" fill-rule="evenodd" stroke="none"/>
      <path d="M194.95 127.85 Q195.05 128.45 194.55 128.55 194.05 128.65 194.05 128.1 194.05 127.6 194.45 127.55 194.85 127.5 194.95 127.85" fill="#54585b" fill-rule="evenodd" stroke="none"/>
      <path d="M246.75 110.15 Q246.9 110.9 246.3 111.0 245.65 111.15 245.65 110.5 245.65 109.9 246.15 109.8 246.65 109.75 246.75 110.15" fill="#54585b" fill-rule="evenodd" stroke="none"/>
      <path d="M261.75 122.9 L261.75 123.3 Q261.6 123.5 261.35 123.2 261.2 122.85 261.45 122.8 L261.75 122.9" fill="#54585b" fill-rule="evenodd" stroke="none"/>
      <path d="M234.95 95.55 Q235.1 95.85 234.75 96.25 234.45 96.7 234.1 96.0 234.0 95.35 234.45 95.3 234.85 95.2 234.95 95.55" fill="#54585b" fill-rule="evenodd" stroke="none"/>
      <path d="M225.75 88.35 Q225.95 88.75 225.3 89.25 224.65 89.75 224.35 88.7 224.55 87.65 225.15 87.8 225.75 87.9 225.75 88.35" fill="#54585b" fill-rule="evenodd" stroke="none"/>
      <path d="M126.95 187.4 Q127.3 187.7 127.05 188.05 L126.5 188.0 126.45 187.5 Q126.5 187.2 126.95 187.4" fill="#54585b" fill-rule="evenodd" stroke="none"/>
      <path d="M120.8 195.45 Q120.55 194.45 121.2 194.35 121.75 194.2 122.05 194.6 122.45 195.25 121.8 195.75 121.2 196.25 120.8 195.45" fill="#54585b" fill-rule="evenodd" stroke="none"/>
      <path d="M130.9 180.0 Q131.05 180.15 130.8 180.5 130.55 180.85 130.25 180.35 130.15 179.85 130.5 179.8 130.8 179.75 130.9 180.0" fill="#54585b" fill-rule="evenodd" stroke="none"/>
      <path d="M134.9 145.75 Q135.05 145.9 134.8 146.25 134.55 146.6 134.25 146.1 134.15 145.6 134.5 145.55 134.8 145.5 134.9 145.75" fill="#54585b" fill-rule="evenodd" stroke="none"/>
      <path d="M177.7 123.8 Q177.1 125.65 176.5 124.0 176.7 123.15 177.2 123.3 177.7 123.4 177.7 123.8" fill="#54585b" fill-rule="evenodd" stroke="none"/>
      <path d="M117.2 215.45 Q117.25 216.5 115.9 216.75 114.6 217.0 114.8 215.35 115.45 213.85 116.4 214.25 117.35 214.65 117.2 215.45" fill="#54585b" fill-rule="evenodd" stroke="none"/>
      <path d="M111.4 237.65 Q111.8 238.05 111.1 238.95 110.45 239.85 109.65 238.55 109.55 236.95 110.4 237.05 111.15 237.1 111.4 237.65" fill="#54585b" fill-rule="evenodd" stroke="none"/>
      <path d="M110.75 247.1 L111.25 247.05 Q111.6 247.4 111.3 247.8 111.05 248.15 110.7 247.65 110.5 247.4 110.75 247.1" fill="#54585b" fill-rule="evenodd" stroke="none"/>
      <path d="M111.8 227.8 Q112.25 228.55 111.6 229.0 110.95 229.5 110.6 228.6 110.4 227.95 110.95 227.6 111.5 227.25 111.8 227.8" fill="#54585b" fill-rule="evenodd" stroke="none"/>
      <path d="M119.75 202.2 L119.55 202.55 119.3 202.35 119.5 202.05 119.75 202.2" fill="#54585b" fill-rule="evenodd" stroke="none"/>
      <path d="M125.9 192.5 Q126.05 192.65 125.8 193.0 125.55 193.35 125.25 192.85 125.15 192.35 125.5 192.3 125.8 192.25 125.9 192.5" fill="#54585b" fill-rule="evenodd" stroke="none"/>
      <path d="M119.45 208.35 Q119.7 208.95 119.3 209.05 118.85 209.2 118.9 208.8 118.75 208.6 119.0 208.35 119.2 208.05 119.45 208.35" fill="#54585b" fill-rule="evenodd" stroke="none"/>
      <path d="M121.25 254.95 Q120.7 254.55 121.0 254.1 121.3 253.65 121.65 253.85 122.3 254.15 122.05 254.75 121.8 255.35 121.25 254.95" fill="#54585b" fill-rule="evenodd" stroke="none"/>
      <path d="M128.65 254.85 Q129.15 255.8 128.25 255.4 127.95 254.85 128.25 254.8 L128.65 254.85" fill="#54585b" fill-rule="evenodd" stroke="none"/>
      <path d="M117.05 251.05 Q117.75 251.25 117.55 251.75 117.3 252.25 116.9 252.05 116.25 251.7 116.5 251.35 116.7 251.0 117.05 251.05" fill="#54585b" fill-rule="evenodd" stroke="none"/>
      <path d="M108.5 242.4 Q108.95 242.85 108.35 242.75 L108.3 242.6 Q108.25 242.35 108.5 242.4" fill="#54585b" fill-rule="evenodd" stroke="none"/>
      <path d="M115.3 220.8 Q115.55 221.15 115.3 221.3 115.0 221.4 114.95 221.15 114.85 221.0 115.0 220.8 115.15 220.65 115.3 220.8" fill="#54585b" fill-rule="evenodd" stroke="none"/>
      <path d="M135.1 250.45 Q135.1 250.95 134.55 251.05 134.05 251.15 134.15 250.5 134.25 250.1 134.7 250.05 135.2 250.0 135.1 250.45" fill="#54585b" fill-rule="evenodd" stroke="none"/>
      <path d="M146.6 154.4 Q146.9 155.15 146.35 155.3 145.75 155.45 145.8 154.9 145.75 154.6 146.0 154.3 146.25 154.0 146.6 154.4" fill="#54585b" fill-rule="evenodd" stroke="none"/>
      <path d="M145.1 159.5 Q145.2 159.95 144.8 160.05 144.45 160.1 144.45 159.7 144.45 159.35 144.75 159.3 145.0 159.25 145.1 159.5" fill="#54585b" fill-rule="evenodd" stroke="none"/>
      <path d="M135.8 178.75 Q135.9 179.85 134.9 180.05 133.85 180.2 134.0 179.0 134.1 178.15 134.95 178.05 135.75 177.95 135.8 178.75" fill="#54585b" fill-rule="evenodd" stroke="none"/>
      <path d="M127.6 199.25 Q127.7 199.7 127.3 199.8 126.95 199.85 126.95 199.45 126.95 199.1 127.25 199.05 127.5 199.0 127.6 199.25" fill="#54585b" fill-rule="evenodd" stroke="none"/>
      <path d="M148.25 156.15 Q148.7 156.6 148.1 156.5 L148.05 156.35 Q148.0 156.1 148.25 156.15" fill="#54585b" fill-rule="evenodd" stroke="none"/>
      <path d="M142.95 163.55 Q143.2 163.85 142.6 164.25 142.05 164.65 141.8 163.8 142.0 162.75 142.45 163.05 L142.95 163.55" fill="#54585b" fill-rule="evenodd" stroke="none"/>
      <path d="M27.95 143.5 Q28.55 144.1 28.05 144.5 L27.25 144.4 Q26.9 144.0 27.25 143.6 27.55 143.2 27.95 143.5" fill="#54585b" fill-rule="evenodd" stroke="none"/>
      <path d="M30.3 135.7 Q30.8 136.05 30.55 136.5 L29.85 136.55 Q29.5 136.2 29.75 135.85 30.0 135.5 30.3 135.7" fill="#54585b" fill-rule="evenodd" stroke="none"/>
      <path d="M42.4 126.0 Q42.75 126.2 42.55 126.5 L42.1 126.55 Q41.85 126.3 42.0 126.05 L42.4 126.0" fill="#54585b" fill-rule="evenodd" stroke="none"/>
      <path d="M57.85 139.95 Q59.35 141.15 58.35 142.65 57.4 144.15 56.0 142.65 54.9 141.2 55.9 140.15 56.9 139.1 57.85 139.95" fill="#54585b" fill-rule="evenodd" stroke="none"/>
      <path d="M68.9 148.9 Q69.45 149.15 69.3 149.75 69.1 150.35 68.45 149.95 67.95 149.5 68.25 149.1 68.55 148.7 68.9 148.9" fill="#54585b" fill-rule="evenodd" stroke="none"/>
      <path d="M77.4 151.1 Q77.85 151.7 77.1 152.5 76.35 153.25 75.7 152.05 75.55 150.45 76.4 150.55 77.2 150.6 77.4 151.1" fill="#54585b" fill-rule="evenodd" stroke="none"/>
      <path d="M50.35 129.4 Q50.6 130.55 49.65 130.8 48.65 131.0 48.65 129.9 48.65 128.95 49.45 128.85 50.25 128.7 50.35 129.4" fill="#54585b" fill-rule="evenodd" stroke="none"/>
      <path d="M33.45 130.45 Q33.75 130.5 33.75 131.0 33.8 131.45 33.15 131.2 32.75 130.9 33.0 130.6 33.2 130.3 33.45 130.45" fill="#54585b" fill-rule="evenodd" stroke="none"/>
      <path d="M18.05 110.2 L18.3 110.55 Q18.3 110.8 17.95 110.7 17.6 110.5 17.75 110.3 L18.05 110.2" fill="#54585b" fill-rule="evenodd" stroke="none"/>
      <path d="M22.75 112.05 Q23.25 112.3 23.05 113.0 22.85 113.65 22.05 113.15 21.5 112.45 21.95 112.1 L22.75 112.05" fill="#54585b" fill-rule="evenodd" stroke="none"/>
      <path d="M37.9 105.25 Q39.0 105.45 38.8 106.2 38.6 107.0 37.85 106.65 37.35 106.55 37.3 105.9 37.2 105.2 37.9 105.25" fill="#54585b" fill-rule="evenodd" stroke="none"/>
      <path d="M53.3 92.0 Q53.45 93.6 52.45 92.4 52.35 92.05 52.7 91.85 53.1 91.6 53.3 92.0" fill="#54585b" fill-rule="evenodd" stroke="none"/>
      <path d="M45.9 95.45 Q46.25 95.7 46.05 96.05 L45.55 96.0 45.5 95.6 Q45.5 95.25 45.9 95.45" fill="#54585b" fill-rule="evenodd" stroke="none"/>
      <path d="M88.15 133.6 Q89.25 132.2 90.85 133.2 92.45 134.2 90.9 135.7 88.95 136.95 88.1 135.7 87.35 134.45 88.15 133.6" fill="#54585b" fill-rule="evenodd" stroke="none"/>
      <path d="M97.05 136.25 L97.5 136.3 97.45 136.6 Q97.05 136.8 97.05 136.6 L97.05 136.25" fill="#54585b" fill-rule="evenodd" stroke="none"/>
      <path d="M83.4 127.7 L84.7 127.75 Q85.25 128.4 84.45 128.8 83.7 129.15 83.3 128.6 82.9 128.05 83.4 127.7" fill="#54585b" fill-rule="evenodd" stroke="none"/>
      <path d="M90.5 139.25 Q90.6 139.05 91.2 139.25 91.8 139.5 91.15 140.15 90.35 140.35 90.25 139.85 90.15 139.35 90.5 139.25" fill="#54585b" fill-rule="evenodd" stroke="none"/>
      <path d="M79.7 120.4 Q80.25 120.1 80.75 120.75 81.2 121.35 80.25 121.65 79.4 121.75 79.3 121.1 79.15 120.5 79.7 120.4" fill="#54585b" fill-rule="evenodd" stroke="none"/>
      <path d="M77.3 126.3 Q78.3 125.7 79.2 126.7 80.1 127.7 78.5 128.35 77.25 128.65 76.8 127.65 76.4 126.65 77.3 126.3" fill="#54585b" fill-rule="evenodd" stroke="none"/>
      <path d="M102.0 134.6 L102.25 134.55 102.25 134.75 102.05 134.8 102.0 134.6" fill="#54585b" fill-rule="evenodd" stroke="none"/>
      <path d="M76.0 113.2 L76.5 113.05 Q76.85 113.05 76.5 113.6 L76.05 113.55 Q75.8 113.4 76.0 113.2" fill="#54585b" fill-rule="evenodd" stroke="none"/>
      <path d="M74.35 118.45 Q75.0 117.65 75.9 118.25 76.85 118.85 75.9 119.7 L74.3 119.65 Q73.9 118.95 74.35 118.45" fill="#54585b" fill-rule="evenodd" stroke="none"/>
      <path d="M79.45 115.65 Q80.0 114.8 80.2 115.25 L80.25 115.75 79.8 116.05 Q79.4 116.1 79.45 115.65" fill="#54585b" fill-rule="evenodd" stroke="none"/>
      <path d="M70.9 97.95 Q71.05 97.15 71.7 97.3 72.35 97.4 72.15 98.05 71.75 98.85 71.3 98.6 70.95 98.35 70.9 97.95" fill="#54585b" fill-rule="evenodd" stroke="none"/>
      <path d="M73.45 105.0 Q74.1 104.4 74.95 105.0 75.75 105.6 74.75 106.35 73.7 106.85 73.3 106.15 72.95 105.4 73.45 105.0" fill="#54585b" fill-rule="evenodd" stroke="none"/>
      <path d="M63.7 92.35 Q64.6 91.5 65.2 92.2 65.85 92.95 65.0 93.35 64.45 93.8 63.85 93.35 63.2 92.9 63.7 92.35" fill="#54585b" fill-rule="evenodd" stroke="none"/>
      <path d="M214.2 112.5 Q214.65 112.4 214.7 112.75 214.8 113.15 214.4 113.15 214.0 113.15 213.95 112.85 213.9 112.55 214.2 112.5" fill="#54585b" fill-rule="evenodd" stroke="none"/>
      <path d="M200.65 126.7 Q200.95 126.75 200.95 127.25 201.0 127.7 200.35 127.45 199.95 127.15 200.2 126.85 200.4 126.55 200.65 126.7" fill="#54585b" fill-rule="evenodd" stroke="none"/>
      <path d="M241.45 100.95 L241.25 101.3 241.0 101.1 241.2 100.8 Q241.4 100.8 241.45 100.95" fill="#54585b" fill-rule="evenodd" stroke="none"/>
      <path d="M101.35 118.6 Q100.65 116.9 101.9 116.55 103.15 116.15 103.3 117.3 103.7 118.4 102.8 118.95 101.85 119.45 101.35 118.6" fill="#54585b" fill-rule="evenodd" stroke="none"/>
      <path d="M100.95 110.45 Q100.5 110.0 100.95 109.35 101.4 108.7 102.0 109.55 102.3 110.3 101.75 110.6 101.2 110.9 100.95 110.45" fill="#54585b" fill-rule="evenodd" stroke="none"/>
      <path d="M93.95 101.95 Q93.8 100.75 94.6 100.8 95.45 100.85 95.25 101.5 95.3 102.0 94.75 102.25 94.15 102.55 93.95 101.95" fill="#54585b" fill-rule="evenodd" stroke="none"/>
      <path d="M98.3 102.6 Q98.6 101.7 99.3 101.95 100.0 102.2 99.65 102.85 99.35 103.5 98.75 103.3 98.2 103.15 98.3 102.6" fill="#54585b" fill-rule="evenodd" stroke="none"/>
      <path d="M95.9 108.0 L96.35 107.95 Q96.6 108.1 96.3 108.35 95.7 108.7 95.9 108.0" fill="#54585b" fill-rule="evenodd" stroke="none"/>
      <path d="M85.35 72.05 Q84.95 71.6 85.3 71.5 85.8 71.35 85.65 71.6 L85.65 71.75 Q85.8 72.05 85.35 72.05" fill="#54585b" fill-rule="evenodd" stroke="none"/>
      <path d="M91.9 84.75 Q92.35 84.05 92.95 84.45 93.55 84.8 93.0 85.35 92.55 85.85 92.1 85.5 91.6 85.15 91.9 84.75" fill="#54585b" fill-rule="evenodd" stroke="none"/>
      <path d="M93.25 93.6 Q94.5 93.9 93.55 94.35 93.05 94.35 93.05 94.0 93.0 93.7 93.25 93.6" fill="#54585b" fill-rule="evenodd" stroke="none"/>
      <path d="M90.3 77.1 Q90.5 76.75 90.8 76.95 91.1 77.15 90.85 77.4 L90.35 77.5 Q90.15 77.3 90.3 77.1" fill="#54585b" fill-rule="evenodd" stroke="none"/>
      <path d="M79.4 74.25 Q78.8 74.35 78.7 73.85 78.55 73.35 79.1 73.35 79.6 73.35 79.65 73.75 79.75 74.15 79.4 74.25" fill="#54585b" fill-rule="evenodd" stroke="none"/>
      <path d="M73.85 77.5 Q73.55 77.55 73.5 77.35 73.5 77.1 73.75 77.1 74.0 77.1 74.05 77.3 L73.85 77.5" fill="#54585b" fill-rule="evenodd" stroke="none"/>
      <path d="M60.5 84.6 Q62.45 85.1 60.9 85.85 59.95 85.75 60.05 85.2 60.1 84.65 60.5 84.6" fill="#54585b" fill-rule="evenodd" stroke="none"/>
      <path d="M188.0 115.15 L189.75 115.25 Q190.5 116.1 189.4 116.65 188.4 117.15 187.9 116.4 187.4 115.65 188.0 115.15" fill="#54585b" fill-rule="evenodd" stroke="none"/>
      <path d="M187.4 120.5 L187.85 120.6 187.65 120.9 187.4 120.8 Q187.2 120.65 187.4 120.5" fill="#54585b" fill-rule="evenodd" stroke="none"/>
      <path d="M191.6 106.5 Q192.3 105.35 193.25 105.9 194.2 106.5 193.45 107.35 192.7 108.2 191.95 107.7 191.2 107.2 191.6 106.5" fill="#54585b" fill-rule="evenodd" stroke="none"/>
      <path d="M195.75 92.1 Q196.0 91.9 196.25 92.25 196.55 92.6 196.05 92.85 195.3 92.85 195.5 92.55 L195.75 92.1" fill="#54585b" fill-rule="evenodd" stroke="none"/>
      <path d="M196.2 97.9 L197.1 97.95 Q197.3 98.45 196.95 98.6 L196.2 98.5 Q195.95 98.15 196.2 97.9" fill="#54585b" fill-rule="evenodd" stroke="none"/>
      <path d="M197.2 77.1 Q197.8 76.45 198.25 76.9 198.65 77.4 198.2 77.75 L197.35 77.85 Q196.95 77.55 197.2 77.1" fill="#54585b" fill-rule="evenodd" stroke="none"/>
      <path d="M198.0 83.65 Q198.45 83.35 198.75 83.75 199.1 84.15 198.55 84.45 197.9 84.6 197.8 84.2 197.7 83.75 198.0 83.65" fill="#54585b" fill-rule="evenodd" stroke="none"/>
      <path d="M200.7 63.65 Q201.5 63.2 201.95 63.9 202.35 64.6 201.55 64.85 200.8 65.1 200.5 64.55 200.2 64.0 200.7 63.65" fill="#54585b" fill-rule="evenodd" stroke="none"/>
      <path d="M198.4 70.1 Q198.65 69.85 198.95 70.1 199.25 70.3 198.8 70.6 L198.3 70.5 Q198.15 70.25 198.4 70.1" fill="#54585b" fill-rule="evenodd" stroke="none"/>
      <path d="M206.2 64.65 Q206.7 64.55 206.8 65.1 206.9 65.6 206.3 65.55 205.65 65.4 205.8 65.05 205.9 64.65 206.2 64.65" fill="#54585b" fill-rule="evenodd" stroke="none"/>
      <path d="M211.55 69.8 Q212.05 69.7 212.1 70.1 212.2 70.5 211.75 70.5 211.35 70.5 211.3 70.15 211.25 69.85 211.55 69.8" fill="#54585b" fill-rule="evenodd" stroke="none"/>
      <path d="M215.2 70.95 Q215.65 70.85 215.8 71.25 215.9 71.65 215.45 71.65 L214.95 71.3 Q214.9 71.0 215.2 70.95" fill="#54585b" fill-rule="evenodd" stroke="none"/>
      <path d="M105.9 88.8 L106.85 90.25 Q107.95 91.85 108.7 92.45 109.85 93.45 110.5 94.8 L107.85 94.8 106.6 92.8 Q105.45 90.5 105.9 88.8" fill="#696f71" fill-rule="evenodd" stroke="none"/>
      <path d="M121.0 118.55 L119.95 118.9 Q123.25 114.8 123.0 113.65 122.85 112.9 121.1 111.35 L119.35 109.95 120.0 109.8 125.35 114.2 121.0 118.55" fill="#696f71" fill-rule="evenodd" stroke="none"/>
      <path d="M121.7 111.05 L120.0 109.8 127.5 114.05 121.0 118.55 122.55 116.95 Q124.05 115.05 123.75 113.8 123.45 112.55 121.7 111.05" fill="#cdd1d2" fill-rule="evenodd" stroke="none"/>
      <path d="M131.5 110.8 L136.0 116.05 134.85 116.4 130.7 111.15 131.5 110.8" fill="#696f71" fill-rule="evenodd" stroke="none"/>
      <path d="M135.85 116.9 L137.35 117.2 135.75 125.55 135.2 124.65 135.85 116.9" fill="#696f71" fill-rule="evenodd" stroke="none"/>
      <path d="M138.0 118.05 L139.2 117.55 143.25 124.8 142.25 124.55 138.0 118.05" fill="#696f71" fill-rule="evenodd" stroke="none"/>
      <path d="M138.75 107.55 L137.35 115.4 135.85 114.45 138.2 107.7 138.75 107.55" fill="#696f71" fill-rule="evenodd" stroke="none"/>
      <path d="M144.75 112.3 L138.1 115.3 138.25 114.3 143.25 112.3 144.75 112.3" fill="#696f71" fill-rule="evenodd" stroke="none"/>
      <path d="M137.0 114.55 L138.75 107.55 138.75 114.8 144.75 112.3 140.0 115.55 147.5 118.05 140.25 117.55 143.25 124.8 138.5 117.8 135.75 125.55 136.75 117.3 128.25 117.05 135.5 115.55 131.5 110.8 137.0 114.55" fill="#cdd1d2" fill-rule="evenodd" stroke="none"/>
      <path d="M155.75 111.3 L150.7 114.65 155.75 120.55 153.7 119.95 147.0 114.4 154.0 111.3 155.75 111.3" fill="#696f71" fill-rule="evenodd" stroke="none"/>
      <path d="M155.75 111.3 L154.2 112.5 Q152.65 113.95 152.5 115.05 152.35 116.15 154.05 118.45 L155.75 120.55 148.25 114.3 155.75 111.3" fill="#cdd1d2" fill-rule="evenodd" stroke="none"/>
      <path d="M227.45 85.95 L229.7 85.5 Q232.45 85.35 234.95 87.15 237.45 88.9 241.7 96.2 L245.45 103.15 243.65 100.45 Q243.2 100.05 243.65 102.2 L244.15 104.45 Q238.15 92.95 234.95 89.15 233.0 86.75 230.0 86.1 L227.45 85.95" fill="#cdd1d2" fill-rule="evenodd" stroke="none"/>
      <path d="M210.75 128.25 Q213.6 126.85 215.8 126.95 218.3 127.1 220.4 128.8 222.25 130.35 223.45 132.95 224.95 136.3 225.95 140.95 L224.4 137.1 Q222.25 132.65 219.45 129.95 216.65 127.25 212.2 128.2 L208.3 129.65 210.75 128.25" fill="#cdd1d2" fill-rule="evenodd" stroke="none"/>
      <path d="M113.35 210.8 Q114.05 212.6 113.45 212.95 113.15 213.15 112.7 212.95 L104.3 209.45 105.15 207.45 113.35 210.8" fill="#c8c9cb" fill-rule="evenodd" stroke="none"/>
      <path d="M106.15 208.95 L106.5 208.3 113.0 210.9 113.2 211.7 106.15 208.95" fill="#e9eaea" fill-rule="evenodd" stroke="none"/>
      <path d="M113.35 212.45 L113.0 212.9 106.65 210.15 106.55 209.55 113.35 212.45" fill="#a0a1a4" fill-rule="evenodd" stroke="none"/>
      <path d="M106.0 205.75 L105.35 208.8 103.3 213.15 101.9 212.95 104.35 208.95 104.75 205.15 106.0 205.75" fill="#939a9d" fill-rule="evenodd" stroke="none"/>
      <path d="M103.65 207.65 L102.9 210.1 101.85 210.4 103.0 206.9 103.65 207.65" fill="#939a9d" fill-rule="evenodd" stroke="none"/>
      <path d="M106.1 208.8 L107.5 210.65 106.85 211.95 105.0 209.3 106.1 208.8" fill="#939a9d" fill-rule="evenodd" stroke="none"/>
      <path d="M107.4 204.7 L108.7 205.15 109.5 208.3 108.0 212.65 106.25 214.1 105.0 214.2 107.5 211.3 108.55 207.8 107.4 204.7" fill="#939a9d" fill-rule="evenodd" stroke="none"/>
      <path d="M102.75 212.55 L104.5 212.8 104.4 209.95 102.75 212.55 M107.55 208.55 L105.65 209.4 106.9 211.05 107.55 208.55 M102.3 207.2 L104.65 204.55 107.4 204.7 108.55 207.8 107.3 212.05 105.0 214.2 101.65 213.45 101.05 210.3 102.3 207.2 M104.05 208.7 L103.05 207.4 102.3 209.65 104.05 208.7 M105.05 205.65 L105.05 208.45 106.65 205.95 105.05 205.65" fill="#696f71" fill-rule="evenodd" stroke="none"/>
      <path d="M15.05 240.4 L16.05 234.3 Q20.55 239.0 37.8 243.6 72.4 252.8 136.35 252.15 200.3 251.55 229.65 241.55 238.8 238.45 243.4 234.75 245.75 232.9 246.2 231.7 L247.0 238.65 Q248.05 246.2 249.35 249.5 250.65 252.75 258.0 259.05 261.65 262.15 265.05 264.65 260.3 267.3 253.05 270.4 238.6 276.6 226.3 278.8 209.95 281.7 162.0 282.8 118.95 283.8 79.35 282.95 46.0 282.25 19.65 274.7 6.5 270.95 0.0 267.3 L4.3 262.0 Q9.05 255.85 11.35 251.6 13.65 247.35 15.05 240.4" fill="url(#gradient7)" fill-rule="evenodd" stroke="none"/>
      <path d="M196.45 262.75 L197.0 271.85 217.8 270.05 230.8 266.05 229.1 257.05 224.15 259.2 196.45 262.75 M31.5 267.5 L35.85 269.4 61.95 271.6 61.95 262.3 55.95 261.9 33.0 258.4 31.5 267.5 M159.5 264.05 L160.05 273.8 174.7 273.7 195.55 271.95 195.0 262.95 185.0 264.2 159.5 264.05 M124.75 274.05 L158.55 273.85 158.0 264.0 124.75 264.25 124.75 274.05 M91.3 273.3 L91.6 264.35 63.45 262.4 63.45 271.75 78.75 273.05 91.3 273.3 M99.05 264.9 L93.1 264.45 92.8 273.35 123.25 274.0 123.25 264.3 99.05 264.9 M110.75 254.5 L110.45 263.1 141.9 262.4 141.6 257.2 143.1 257.1 143.4 262.4 176.6 262.65 176.25 255.5 177.75 255.45 178.1 262.65 184.95 262.7 210.85 259.4 210.55 245.15 212.05 245.1 212.35 259.2 223.75 257.75 244.35 248.75 242.9 237.25 244.4 237.05 245.8 248.1 248.5 246.9 248.95 248.35 246.0 249.65 246.05 250.05 244.7 250.2 230.5 256.4 232.25 265.6 256.8 258.05 258.15 259.2 252.05 261.05 253.7 270.1 252.3 270.75 250.6 261.5 218.05 271.55 214.4 271.85 214.55 280.25 213.05 280.4 212.9 272.0 179.15 274.85 179.8 282.3 178.3 282.35 177.65 274.95 174.75 275.2 142.1 275.45 141.75 283.2 140.25 283.2 140.6 275.45 110.8 275.25 111.15 283.35 109.65 283.35 109.3 275.2 78.75 274.55 78.55 282.95 77.05 282.9 77.25 274.45 48.1 271.95 48.1 280.55 46.6 280.35 46.6 271.8 35.5 270.85 17.05 262.75 15.75 273.5 14.3 273.05 15.6 262.1 7.0 258.35 7.9 257.1 30.1 266.85 31.5 258.2 31.35 258.2 18.15 247.15 17.95 247.15 17.95 246.95 14.25 243.85 14.65 242.25 17.95 245.0 17.95 235.45 19.45 235.45 19.45 246.25 32.0 256.75 47.4 259.1 48.25 249.05 49.75 249.2 48.85 259.3 56.15 260.4 77.6 261.9 77.6 253.15 79.1 253.15 79.1 262.0 99.05 263.4 108.95 263.15 109.25 254.45 110.75 254.5" fill="#bd7b54" fill-rule="evenodd" stroke="none"/>
      <path d="M16.05 234.05 L30.2 233.85 30.15 234.05 Q29.8 241.2 65.75 244.4 95.2 247.05 135.85 246.35 186.05 245.45 206.6 242.85 233.95 239.4 233.65 231.1 L246.2 230.9 Q246.4 245.4 213.25 252.35 182.75 258.7 126.0 258.3 73.5 257.95 49.65 254.05 15.35 248.55 16.05 234.05" fill="url(#gradient8)" fill-rule="evenodd" stroke="none"/>
      <path d="M233.2 243.55 Q227.55 246.7 219.6 249.2 210.35 252.1 200.2 253.3 L168.2 255.2 147.0 255.8 173.0 253.55 164.25 252.05 180.3 251.7 Q198.2 251.0 207.7 249.3 218.75 247.3 226.0 244.6 232.75 242.1 234.7 239.55 L237.75 235.35 Q239.1 233.65 240.2 233.8 241.8 234.05 239.9 237.35 237.75 241.0 233.2 243.55" fill="#f5e5d6" fill-rule="evenodd" stroke="none"/>
      <path d="M94.25 253.3 L105.25 255.3 93.7 255.0 64.5 253.05 Q48.2 251.5 37.4 248.35 28.35 245.75 24.75 242.55 22.1 240.2 23.15 238.5 L24.75 237.3 25.15 239.1 Q26.15 241.15 29.25 242.55 34.3 244.85 40.3 246.35 49.45 248.7 64.25 250.55 86.5 253.3 94.25 253.3" fill="#f5e5d6" fill-rule="evenodd" stroke="none"/>
      <path d="M127.35 249.7 Q99.3 251.0 81.0 249.3 57.7 247.1 48.45 245.35 37.55 243.3 32.0 239.55 L33.65 240.45 Q36.1 241.55 40.5 242.6 54.5 246.0 82.0 247.55 109.5 249.1 133.4 248.75 L151.75 248.05 127.35 249.7" fill="#dfa272" fill-rule="evenodd" stroke="none"/>
      <path d="M234.2 235.05 Q234.15 236.1 232.6 237.75 229.55 241.0 222.2 243.8 214.85 246.6 198.8 247.6 L154.75 249.3 205.7 244.8 Q220.5 243.5 228.85 239.15 233.0 236.95 234.2 235.05" fill="#dfa272" fill-rule="evenodd" stroke="none"/>
      <path d="M143.65 58.75 L147.65 58.85 Q150.0 59.8 150.15 60.45 150.25 60.95 148.85 60.9 147.4 60.85 146.15 60.3 L144.25 59.25 143.65 58.75" fill="#494f51" fill-rule="evenodd" stroke="none"/>
      <path d="M169.65 45.5 Q166.95 53.25 163.5 53.45 160.9 53.6 156.45 52.05 L152.7 52.15 Q151.95 53.6 150.85 57.15 L149.85 60.45 Q148.2 60.65 146.5 59.95 L144.0 58.8 145.95 54.65 Q148.15 50.1 149.5 48.15 150.75 46.3 154.7 47.7 159.5 49.35 160.5 49.15 162.4 48.7 164.9 42.8 L167.0 36.95 171.7 37.8 169.65 45.5" fill="#cacbcd" fill-rule="evenodd" stroke="none"/>
      <path d="M170.0 40.7 L171.05 40.75 Q169.9 45.55 168.35 48.7 166.1 53.3 163.5 53.45 160.9 53.6 156.45 52.05 L152.7 52.15 Q151.95 53.6 150.85 57.15 L149.85 60.45 Q148.2 60.65 146.5 59.95 L145.8 59.7 144.75 59.1 Q148.2 59.45 148.75 59.05 149.05 58.85 150.65 54.65 152.3 50.45 152.6 50.15 152.85 49.9 158.1 51.45 163.35 53.0 164.1 52.45 165.45 51.55 170.0 40.7" fill="#a0a1a4" fill-rule="evenodd" stroke="none"/>
      <path d="M166.0 42.4 L166.95 42.55 Q165.45 47.15 163.35 49.05 162.05 50.25 160.9 50.15 L160.0 49.8 160.6 49.75 Q161.4 49.6 162.5 49.05 163.6 48.5 164.9 45.4 L166.0 42.4" fill="#e9eaea" fill-rule="evenodd" stroke="none"/>
      <path d="M151.85 47.9 L150.95 48.35 Q149.95 49.0 149.5 50.15 L146.45 58.05 145.2 57.8 147.0 53.9 149.5 48.9 Q150.1 48.0 151.05 47.85 L151.85 47.9" fill="#e9eaea" fill-rule="evenodd" stroke="none"/>
      <path d="M172.35 10.15 Q184.25 9.7 192.8 7.25 197.05 6.0 198.95 4.85 L174.35 30.15 170.7 42.15 167.7 42.0 Q166.6 41.7 166.05 41.25 L165.7 40.8 165.35 29.8 146.1 5.55 152.1 8.1 Q160.5 10.55 172.35 10.15" fill="url(#gradient9)" fill-rule="evenodd" stroke="none"/>
      <path d="M187.9 14.0 L195.25 7.95 173.0 29.8 170.0 41.8 169.1 41.45 171.2 28.3 184.25 12.05 182.1 15.45 Q180.0 19.0 180.25 19.45 180.55 19.9 187.9 14.0" fill="#9b5e41" fill-rule="evenodd" stroke="none"/>
      <path d="M188.5 0.5 Q200.3 1.4 199.65 3.8 198.95 6.4 190.3 8.45 182.55 10.25 172.7 10.8 164.05 11.25 156.7 9.85 149.85 8.55 146.7 6.15 143.8 3.95 151.0 2.35 157.8 0.8 171.35 0.15 179.35 -0.25 188.5 0.5" fill="url(#gradient10)" fill-rule="evenodd" stroke="none"/>
      <path d="M169.7 13.15 L171.45 16.1 Q173.25 19.4 173.5 21.2 174.1 24.95 169.2 24.95 165.2 24.95 166.0 20.25 166.35 18.3 168.05 15.5 168.9 14.15 169.7 13.15" fill="#d5e8f7" fill-rule="evenodd" stroke="none"/>
      <path d="M169.7 14.35 L172.25 19.6 Q173.85 24.75 168.9 24.3 165.3 23.95 167.15 19.1 168.05 16.7 169.7 14.35" fill="#57b0e3" fill-rule="evenodd" stroke="none"/>
      <path d="M169.95 15.7 L170.9 17.35 Q171.9 19.1 172.0 19.9 172.35 22.2 171.5 22.5 170.85 22.7 170.95 20.4 L170.5 17.65 169.95 15.7" fill="#a2ceee" fill-rule="evenodd" stroke="none"/>
      <path d="M161.0 18.5 Q158.9 18.2 160.05 15.6 L161.6 13.05 163.05 16.0 Q163.9 18.9 161.0 18.5" fill="#d5e8f7" fill-rule="evenodd" stroke="none"/>
      <path d="M178.25 11.8 L179.95 14.9 Q181.1 18.05 178.2 18.1 176.2 18.15 177.05 15.0 L178.25 11.8" fill="#d5e8f7" fill-rule="evenodd" stroke="none"/>
      <path d="M161.4 18.2 Q160.65 18.15 160.35 17.4 160.05 16.8 160.75 15.35 L161.45 14.05 Q162.75 16.75 162.4 17.6 162.1 18.3 161.4 18.2" fill="#57b0e3" fill-rule="evenodd" stroke="none"/>
      <path d="M178.4 13.25 L179.25 15.35 Q180.0 17.5 178.35 17.35 177.3 17.25 177.75 15.2 L178.4 13.25" fill="#57b0e3" fill-rule="evenodd" stroke="none"/>
      <path d="M183.95 10.2 Q177.2 11.7 169.45 11.95 164.6 12.1 157.5 10.9 L151.35 9.7 167.1 27.05 168.25 41.3 Q168.25 41.9 167.5 41.65 L166.45 40.95 166.0 40.45 165.95 29.65 148.0 7.45 150.7 8.55 157.0 10.4 168.75 11.3 183.95 10.2" fill="#6d4733" fill-rule="evenodd" stroke="none"/>
      <path d="M192.4 7.55 Q184.15 9.8 175.5 10.3 168.8 10.7 162.05 10.05 154.95 9.35 151.4 7.8 L153.05 7.8 155.15 7.55 156.4 6.4 157.05 7.25 Q158.1 8.2 159.9 8.4 161.4 8.6 163.25 7.4 L164.6 8.15 Q166.05 8.9 166.65 8.8 168.15 8.55 169.5 7.3 L170.4 8.2 Q171.75 9.05 174.0 9.05 176.2 9.05 177.9 7.3 L180.2 7.9 183.15 8.05 Q184.0 7.4 186.0 6.65 L187.2 7.25 189.15 7.65 Q190.15 7.4 191.4 6.55 L192.4 7.55" fill="#9bc2d4" fill-rule="evenodd" stroke="none"/>
      <path d="M134.0 258.8 L175.4 257.3 Q202.95 255.6 216.45 252.05 232.55 247.85 240.35 242.9 244.25 240.45 244.95 238.8 244.2 240.8 240.3 243.7 232.5 249.45 216.7 253.8 200.25 258.35 167.75 259.95 144.6 261.1 120.0 260.55 L74.35 258.15 Q46.15 256.1 39.75 254.8 31.25 253.05 19.0 248.05 L14.0 259.8 Q12.25 263.8 8.75 269.55 L1.75 266.8 Q9.0 256.9 11.5 252.8 13.55 249.5 14.95 244.2 L16.0 239.55 16.55 240.9 Q17.55 242.6 19.45 244.3 25.65 249.7 39.25 252.8 53.95 256.2 86.8 257.85 114.2 259.25 134.0 258.8" fill="#b76b41" fill-rule="evenodd" stroke="none"/>
    </g>
    <linearGradient gradientTransform="matrix(-0.0491, 0.0682, 0.0682, 0.0491, 86.85, 100.7)" gradientUnits="userSpaceOnUse" id="gradient4" spreadMethod="pad" x1="-819.2" x2="819.2">
      <stop offset="0.0" stop-color="#c8cdce"/>
      <stop offset="1.0" stop-color="#9da6a9"/>
    </linearGradient>
    <linearGradient gradientTransform="matrix(-0.0491, 0.0682, 0.0682, 0.0491, 179.8, 167.65)" gradientUnits="userSpaceOnUse" id="gradient5" spreadMethod="pad" x1="-819.2" x2="819.2">
      <stop offset="0.0" stop-color="#c8cdce"/>
      <stop offset="1.0" stop-color="#9da6a9"/>
    </linearGradient>
    <linearGradient gradientTransform="matrix(-0.0491, 0.0682, 0.0682, 0.0491, 137.2, 136.95)" gradientUnits="userSpaceOnUse" id="gradient6" spreadMethod="pad" x1="-819.2" x2="819.2">
      <stop offset="0.0" stop-color="#c8cdce"/>
      <stop offset="1.0" stop-color="#9da6a9"/>
    </linearGradient>
    <linearGradient gradientTransform="matrix(-0.1554, 0.0026, 0.0026, 0.1554, 125.55, 257.95)" gradientUnits="userSpaceOnUse" id="gradient7" spreadMethod="pad" x1="-819.2" x2="819.2">
      <stop offset="0.0" stop-color="#e4b48b"/>
      <stop offset="1.0" stop-color="#d27948"/>
    </linearGradient>
    <linearGradient gradientTransform="matrix(0.1405, 0.0, 0.0, -0.1405, 131.15, 244.6)" gradientUnits="userSpaceOnUse" id="gradient8" spreadMethod="pad" x1="-819.2" x2="819.2">
      <stop offset="0.0" stop-color="#ebc8aa"/>
      <stop offset="1.0" stop-color="#f2ddc9"/>
    </linearGradient>
    <linearGradient gradientTransform="matrix(0.0323, 0.0, 0.0, -0.0323, 172.55, 23.55)" gradientUnits="userSpaceOnUse" id="gradient9" spreadMethod="pad" x1="-819.2" x2="819.2">
      <stop offset="0.0" stop-color="#84533a"/>
      <stop offset="1.0" stop-color="#bc8e71"/>
    </linearGradient>
    <linearGradient gradientTransform="matrix(0.0329, 0.0, 0.0, -0.0329, 172.8, 5.45)" gradientUnits="userSpaceOnUse" id="gradient10" spreadMethod="pad" x1="-819.2" x2="819.2">
      <stop offset="0.0" stop-color="#744b35"/>
      <stop offset="1.0" stop-color="#27201d"/>
    </linearGradient>
  </defs>
</svg>
