<?xml version="1.0" encoding="UTF-8" standalone="no"?>
<svg xmlns:xlink="http://www.w3.org/1999/xlink" height="82.3px" width="55.05px" xmlns="http://www.w3.org/2000/svg">
  <g transform="matrix(1.0, 0.0, 0.0, 1.0, 0.0, 0.0)">
    <use height="82.3" id="speakerBox_mc" transform="matrix(1.0, 0.0, 0.0, 1.0, -0.05, 0.0)" width="55.05" xlink:href="#sprite0"/>
  </g>
  <defs>
    <g id="sprite0" transform="matrix(1.0, 0.0, 0.0, 1.0, 27.5, 41.15)">
      <use height="52.45" transform="matrix(1.0, 0.0, 0.0, 1.0, -27.5, -11.3)" width="55.05" xlink:href="#shape0"/>
      <use height="45.3" transform="matrix(1.0, 0.0, 0.0, 1.0, -23.7, -13.7)" width="45.75" xlink:href="#shape1"/>
      <use height="23.15" transform="matrix(1.0, 0.0, 0.0, 1.0, -3.1, -10.25)" width="21.65" xlink:href="#morphshape0"/>
      <use height="26.15" transform="matrix(1.0, 0.0, 0.0, 1.0, -8.25, -8.85)" width="25.75" xlink:href="#morphshape1"/>
      <use height="28.1" transform="matrix(1.0, 0.0, 0.0, 1.0, -12.7, -6.45)" width="27.8" xlink:href="#morphshape2"/>
      <use height="16.7" transform="matrix(1.0, 0.0, 0.0, 1.0, 3.05, -9.75)" width="15.5" xlink:href="#morphshape3"/>
      <use height="22.7" transform="matrix(1.0, 0.0, 0.0, 1.0, -19.4, 5.6)" width="23.1" xlink:href="#morphshape4"/>
      <use height="25.5" transform="matrix(1.0, 0.0, 0.0, 1.0, -18.0, 1.45)" width="26.2" xlink:href="#morphshape5"/>
      <use height="28.1" transform="matrix(1.0, 0.0, 0.0, 1.0, -16.1, -3.1)" width="28.1" xlink:href="#morphshape6"/>
      <use height="16.6" transform="matrix(1.0, 0.0, 0.0, 1.0, -19.4, 12.0)" width="17.05" xlink:href="#morphshape7"/>
      <use height="23.35" transform="matrix(1.0, 0.0, 0.0, 1.0, -20.3, -10.45)" width="22.45" xlink:href="#morphshape8"/>
      <use height="26.9" transform="matrix(1.0, 0.0, 0.0, 1.0, -19.2, -9.6)" width="26.65" xlink:href="#morphshape9"/>
      <use height="28.2" transform="matrix(1.0, 0.0, 0.0, 1.0, -16.8, -6.55)" width="29.0" xlink:href="#morphshape10"/>
      <use height="16.75" transform="matrix(1.0, 0.0, 0.0, 1.0, -19.8, -9.85)" width="14.7" xlink:href="#morphshape11"/>
      <use height="21.95" transform="matrix(1.0, 0.0, 0.0, 1.0, -4.65, 6.85)" width="23.8" xlink:href="#morphshape12"/>
      <use height="25.55" transform="matrix(1.0, 0.0, 0.0, 1.0, -9.95, 1.4)" width="28.1" xlink:href="#morphshape13"/>
      <use height="28.0" transform="matrix(1.0, 0.0, 0.0, 1.0, -14.35, -3.45)" width="29.75" xlink:href="#morphshape14"/>
      <use height="16.0" transform="matrix(1.0, 0.0, 0.0, 1.0, 0.95, 12.65)" width="17.5" xlink:href="#morphshape15"/>
      <use height="22.3" transform="matrix(1.0, 0.0, 0.0, 1.0, -12.6, -41.15)" width="26.7" xlink:href="#shape2"/>
      <use height="10.85" transform="matrix(1.0, 0.0, 0.0, 1.0, -6.4, -36.9)" width="10.85" xlink:href="#shape3"/>
    </g>
    <g id="shape0" transform="matrix(1.0, 0.0, 0.0, 1.0, 27.5, 25.0)">
      <path d="M0.0 -25.0 Q11.4 -25.0 19.5 -17.3 27.55 -9.65 27.55 1.2 27.55 12.05 19.5 19.75 11.4 27.45 0.0 27.45 -11.4 27.45 -19.45 19.75 -27.5 12.1 -27.5 1.2 -27.5 -9.65 -19.45 -17.3 -11.4 -25.0 0.0 -25.0" fill="url(#gradient0)" fill-rule="evenodd" stroke="none"/>
    </g>
    <radialGradient cx="0" cy="0" gradientTransform="matrix(0.0336, 0.0, 0.0, -0.032, 0.0, 1.2)" gradientUnits="userSpaceOnUse" id="gradient0" r="819.2" spreadMethod="pad">
      <stop offset="0.5098039215686274" stop-color="#000000"/>
      <stop offset="0.5529411764705883" stop-color="#000000" stop-opacity="0.79607844"/>
      <stop offset="1.0" stop-color="#000000" stop-opacity="0.0"/>
    </radialGradient>
    <g id="shape1" transform="matrix(1.0, 0.0, 0.0, 1.0, 22.9, 22.65)">
      <path d="M19.95 10.55 Q22.3 6.0 22.3 0.45 22.3 -8.75 15.8 -15.25 9.3 -21.75 0.1 -21.75 -9.1 -21.75 -15.65 -15.25 -22.15 -8.75 -22.15 0.45 -22.15 7.45 -18.4 12.85 -22.9 7.15 -22.9 -0.4 -22.9 -9.6 -16.2 -16.15 -9.5 -22.65 0.0 -22.65 9.45 -22.65 16.15 -16.15 22.85 -9.6 22.85 -0.4 22.85 5.65 19.95 10.55" fill="#958475" fill-rule="evenodd" stroke="none"/>
      <path d="M19.35 0.35 Q19.35 -7.65 13.7 -13.3 8.1 -18.95 0.1 -18.95 -7.9 -18.95 -13.55 -13.3 -19.2 -7.65 -19.2 0.35 -19.2 8.35 -13.55 13.95 -7.9 19.6 0.1 19.6 8.1 19.6 13.7 13.95 19.35 8.35 19.35 0.35 M-18.4 12.85 Q-22.15 7.45 -22.15 0.45 -22.15 -8.75 -15.65 -15.25 -9.1 -21.75 0.1 -21.75 9.3 -21.75 15.8 -15.25 22.3 -8.75 22.3 0.45 22.3 6.0 19.95 10.55 18.4 13.55 15.8 16.15 9.3 22.65 0.1 22.65 -9.1 22.65 -15.65 16.15 L-18.4 12.85" fill="#62574c" fill-rule="evenodd" stroke="none"/>
      <path d="M19.35 0.35 Q19.35 8.35 13.7 13.95 8.1 19.6 0.1 19.6 -7.9 19.6 -13.55 13.95 -19.2 8.35 -19.2 0.35 -19.2 -7.65 -13.55 -13.3 -7.9 -18.95 0.1 -18.95 8.1 -18.95 13.7 -13.3 19.35 -7.65 19.35 0.35" fill="#332d28" fill-rule="evenodd" stroke="none"/>
      <path d="M-1.9 17.25 Q-2.3 17.25 -2.9 17.7 L-3.95 18.3 Q-2.9 19.1 -1.75 19.2 -0.5 19.3 0.45 18.5 0.0 18.45 -0.75 17.85 -1.45 17.25 -1.9 17.25 M-13.65 12.95 L-13.3 12.4 -13.0 11.8 -14.0 10.65 -15.0 9.45 Q-15.6 10.4 -14.95 11.45 L-13.65 12.95 M-10.85 14.15 L-11.8 13.15 Q-13.15 13.6 -12.4 14.5 L-10.9 15.8 -9.95 15.25 -10.85 14.15 M-16.0 9.35 Q-15.65 8.5 -16.05 7.5 L-17.0 5.8 -17.05 6.85 -16.65 8.35 -16.0 9.35 M-10.85 9.35 L-13.2 6.35 Q-13.5 7.15 -14.45 8.45 L-13.45 9.85 -12.3 11.05 -10.85 9.35 M0.65 13.25 L0.15 12.75 -0.7 12.1 -2.25 10.75 -3.45 12.0 -4.7 13.25 -1.95 15.45 -0.6 14.4 0.1 13.9 0.65 13.25 M-9.0 14.5 L-7.3 12.85 Q-8.75 11.3 -9.65 10.65 L-11.2 12.3 -9.0 14.5 M-5.95 14.1 L-6.85 14.85 Q-7.5 15.3 -7.75 15.65 L-6.5 16.7 Q-5.7 17.45 -5.15 17.45 L-4.2 17.0 Q-3.65 16.45 -3.25 16.4 L-4.55 15.2 -5.95 14.1 M-6.15 6.85 L-7.35 8.15 -8.5 9.5 -7.3 10.7 -6.05 11.8 -3.6 9.5 Q-4.6 8.15 -6.15 6.85 M-2.35 2.85 L-3.55 4.15 -4.7 5.5 -3.45 6.8 -2.15 8.0 -0.85 6.8 0.3 5.4 -1.0 4.1 -2.35 2.85 M-5.95 3.9 L-4.8 2.55 -3.7 1.2 -5.1 -0.25 -6.6 -1.65 -7.7 -0.35 -8.75 1.05 -7.45 2.55 -5.95 3.9 M-2.25 -6.1 L-3.65 -4.65 -4.95 -3.05 -2.25 -0.2 0.65 -3.15 -2.25 -6.1 M-10.1 2.45 L-11.2 3.8 -12.2 5.25 -9.85 8.0 Q-8.35 6.65 -7.5 5.3 -9.05 3.25 -10.1 2.45 M-12.2 2.35 L-11.2 0.95 -13.1 -1.45 -14.9 1.3 -13.35 3.7 -12.2 2.35 M-14.9 3.8 L-15.7 2.65 -16.2 3.7 -16.6 4.85 -16.0 6.05 -15.25 7.05 -14.1 4.95 -14.9 3.8 M-17.35 -1.15 Q-17.8 -0.05 -17.75 1.2 -17.75 2.5 -17.15 3.4 L-16.35 1.2 -17.35 -1.15 M-16.1 -3.75 Q-16.7 -2.95 -16.7 -2.4 L-16.3 -1.2 -15.6 -0.1 -13.9 -2.9 -14.65 -3.95 -15.35 -5.05 -16.1 -3.75 M-17.0 -3.55 L-16.05 -5.35 Q-15.55 -6.4 -16.05 -7.35 L-16.9 -5.6 Q-17.35 -4.5 -17.0 -3.55 M-10.95 -4.2 L-11.9 -2.9 -10.1 -0.5 Q-9.1 -1.45 -7.75 -3.15 L-9.95 -5.45 -10.95 -4.2 M-14.35 -6.5 Q-13.75 -5.15 -12.8 -4.2 L-11.85 -5.5 -10.9 -6.8 -12.65 -8.8 -14.35 -6.5 M-13.2 -9.65 L-13.9 -10.7 -15.0 -9.1 Q-15.6 -8.15 -14.8 -7.35 L-13.2 -9.65 M-10.9 -12.05 L-9.85 -13.2 -11.5 -13.25 -12.9 -11.85 Q-12.6 -11.2 -12.0 -10.9 L-10.9 -12.05 M-3.95 -10.35 L-3.35 -9.85 -2.05 -8.9 0.3 -11.0 Q-0.6 -12.2 -2.15 -13.0 -2.25 -12.7 -3.35 -11.95 L-4.4 -10.9 -3.95 -10.35 M-7.05 -10.6 L-7.95 -11.65 -9.0 -12.5 -11.45 -10.05 -9.75 -8.1 Q-9.2 -8.45 -8.4 -9.35 L-7.05 -10.6 M-5.85 -9.65 L-7.25 -8.35 -8.5 -6.9 -7.45 -5.65 -6.3 -4.6 -4.95 -6.05 -3.6 -7.55 -4.7 -8.65 -5.85 -9.65 M-4.35 -14.7 L-5.6 -15.3 Q-6.25 -14.65 -7.75 -13.55 L-5.6 -11.95 -4.4 -12.95 -3.25 -13.95 -4.35 -14.7 M-8.55 -14.15 L-7.5 -14.95 -6.5 -15.85 -8.35 -15.7 -9.75 -14.6 -8.55 -14.15 M-4.15 -16.05 L-3.0 -15.5 -1.9 -14.9 0.65 -16.4 -1.6 -17.4 -2.95 -16.8 -4.15 -16.05 M7.25 17.65 L6.25 17.3 5.35 16.75 4.15 17.65 2.9 18.5 5.3 18.75 7.25 17.65 M7.8 14.9 L6.7 15.9 8.4 16.85 10.5 15.15 Q10.15 15.0 9.7 14.55 L8.9 13.9 7.8 14.9 M3.05 15.2 L1.9 14.4 0.65 15.45 -0.6 16.5 Q-0.35 16.6 0.5 17.2 L1.75 17.8 3.1 17.0 4.25 16.0 3.05 15.2 M3.35 13.35 L4.5 14.2 5.6 15.05 6.75 14.1 7.9 13.15 6.95 12.05 5.9 11.05 Q4.6 11.95 3.35 13.35 M4.45 9.7 L1.75 6.95 -0.7 9.5 2.1 12.1 4.45 9.7 M9.7 6.75 L8.45 8.25 7.15 9.7 8.15 10.75 9.25 11.7 10.45 10.45 11.6 9.15 Q11.05 8.1 9.7 6.75 M13.05 10.9 L12.4 10.1 11.25 11.5 10.15 12.75 Q10.15 13.0 10.85 13.45 L11.5 14.1 Q12.5 13.45 13.65 11.7 L13.05 10.9 M13.5 8.75 L14.55 10.55 Q16.8 8.0 15.1 6.35 L13.5 8.75 M11.85 6.5 L12.85 7.6 13.7 6.4 14.5 5.15 Q13.45 3.25 12.85 2.75 L10.95 5.3 11.85 6.5 M17.1 2.35 L16.55 3.75 16.0 5.05 16.3 6.0 16.65 7.05 Q18.2 4.0 17.1 2.35 M13.95 1.3 L14.65 2.45 15.3 3.7 16.1 2.5 16.75 1.15 Q16.1 -0.5 15.45 -1.35 L13.95 1.3 M14.65 -2.9 Q13.5 -4.9 12.6 -5.55 L10.7 -2.95 12.85 -0.2 Q13.6 -0.75 14.65 -2.9 M15.4 -4.0 Q16.25 -5.1 15.75 -6.4 L14.4 -8.4 13.95 -7.55 13.5 -6.7 15.4 -4.0 M16.65 -4.5 L16.1 -2.6 16.65 -1.4 17.3 -0.3 Q18.0 -2.55 16.65 -4.5 M5.9 2.45 L4.55 4.05 3.2 5.6 5.8 8.3 Q7.8 6.5 8.5 5.3 L5.9 2.45 M7.35 0.85 L9.95 3.9 10.95 2.6 11.85 1.2 10.75 -0.3 9.5 -1.65 7.35 0.85 M4.65 0.95 L3.35 -0.45 2.0 -1.75 0.6 -0.2 -0.8 1.4 0.5 2.75 1.8 4.0 4.65 0.95 M2.1 -4.7 L4.55 -7.1 Q3.4 -8.5 1.65 -9.85 L-0.7 -7.65 Q0.05 -6.5 2.1 -4.7 M8.25 -3.15 L7.1 -4.5 5.8 -5.75 4.65 -4.45 3.55 -3.15 5.9 -0.6 8.25 -3.15 M9.35 -9.35 L8.25 -8.25 Q7.5 -7.6 7.25 -7.0 L9.5 -4.6 10.65 -5.8 Q11.6 -6.7 11.6 -7.1 L10.5 -8.3 9.35 -9.35 M5.45 -13.1 L3.1 -11.2 Q4.15 -9.85 5.9 -8.5 L8.15 -10.8 5.45 -13.1 M1.6 -17.1 Q2.7 -16.9 3.55 -17.45 L-0.45 -17.65 1.6 -17.1 M4.2 -14.15 L3.05 -14.95 1.75 -15.65 -0.6 -14.15 1.75 -12.25 4.2 -14.15 M6.2 -15.25 L7.0 -15.75 Q5.7 -16.5 5.1 -16.65 3.95 -16.95 3.1 -16.25 L5.35 -14.8 6.2 -15.25 M7.4 -14.4 Q6.9 -14.05 6.6 -13.95 L7.85 -12.8 9.05 -11.65 10.5 -13.0 9.35 -13.95 8.15 -14.8 7.4 -14.4 M12.6 -10.7 L11.6 -11.75 10.4 -10.5 Q11.3 -9.15 12.5 -8.1 L13.5 -9.55 12.6 -10.7 M12.15 -12.25 Q12.15 -12.0 13.0 -11.25 L13.95 -10.3 Q13.95 -10.85 14.1 -11.0 L14.65 -10.15 Q14.9 -9.65 14.75 -9.1 L16.2 -6.8 16.15 -7.25 Q16.1 -7.5 16.2 -7.55 L17.2 -4.4 18.0 -0.9 18.0 -0.55 Q17.95 -0.9 17.8 -0.35 L17.55 0.95 17.75 2.05 17.9 3.25 Q17.9 4.65 17.15 6.75 L16.1 9.6 Q16.0 9.6 16.05 9.45 L16.1 9.15 Q15.6 9.7 15.05 10.95 L14.1 12.85 14.05 12.5 13.05 13.5 12.05 14.5 12.15 14.75 12.3 14.95 12.2 15.0 11.75 15.4 11.35 15.7 Q10.9 15.55 10.2 16.2 L9.05 17.05 9.2 17.15 Q6.4 18.8 3.15 19.35 1.75 18.9 -0.3 19.6 L-3.4 19.25 -4.85 18.6 -5.55 18.75 -7.05 18.15 Q-6.6 18.15 -6.2 17.8 L-8.0 16.6 -9.75 16.7 Q-11.65 15.55 -13.25 13.85 -16.9 9.9 -17.45 6.35 L-17.55 4.2 Q-17.65 2.85 -18.15 2.55 L-18.15 -0.6 -17.9 -0.4 -17.6 -2.25 Q-17.4 -3.35 -17.6 -3.95 -17.15 -5.95 -15.95 -8.0 L-13.8 -11.55 Q-11.75 -13.25 -11.2 -14.05 -10.85 -14.45 -9.7 -15.05 -8.5 -15.65 -8.05 -16.25 L-6.25 -17.0 -4.4 -17.45 -5.45 -17.15 -6.3 -16.6 -4.4 -16.85 Q-3.85 -17.05 -2.8 -17.55 L-3.6 -17.55 -4.25 -17.65 -2.15 -17.9 -0.05 -18.15 1.45 -18.15 4.05 -17.6 6.35 -16.8 Q6.3 -16.8 6.1 -16.9 5.95 -16.95 5.9 -16.8 L7.85 -16.0 Q9.1 -15.6 9.6 -15.1 L8.95 -15.2 10.0 -14.2 11.05 -13.3 11.95 -13.4 Q12.5 -13.15 12.6 -12.7 L12.15 -12.25" fill="#1e1a17" fill-rule="evenodd" stroke="none"/>
    </g>
    <g id="morphshape0" transform="matrix(1.0, 0.0, 0.0, 1.0, 2.25, 19.45)">
      <path d="M-1.75 -18.95 Q4.6 -14.65 9.2 -10.0 13.8 -5.35 16.3 -1.85 18.75 1.65 18.9 3.2" fill="none" stroke="#898073" stroke-linecap="round" stroke-linejoin="round" stroke-width="1.0"/>
    </g>
    <g id="morphshape1" transform="matrix(1.0, 0.0, 0.0, 1.0, 7.4, 18.05)">
      <path d="M-6.65 -17.3 Q-0.05 -12.75 5.35 -7.5 10.75 -2.25 13.4 1.45 15.5 4.4 17.6 7.35" fill="none" stroke="#898073" stroke-linecap="round" stroke-linejoin="round" stroke-width="1.5"/>
    </g>
    <g id="morphshape2" transform="matrix(1.0, 0.0, 0.0, 1.0, 11.85, 15.65)">
      <path d="M-10.85 -14.65 Q-2.95 -7.5 2.6 -1.9 8.15 3.7 14.95 11.45" fill="none" stroke="#898073" stroke-linecap="round" stroke-linejoin="round" stroke-width="2.0"/>
    </g>
    <g id="morphshape3" transform="matrix(1.0, 0.0, 0.0, 1.0, -3.9, 18.95)">
      <path d="M4.2 -18.65 Q7.95 -15.55 11.75 -12.4 14.85 -9.45 16.8 -6.6 18.75 -3.8 19.1 -2.55" fill="none" stroke="#898073" stroke-linecap="round" stroke-linejoin="round" stroke-width="0.65"/>
    </g>
    <g id="morphshape4" transform="matrix(1.0, 0.0, 0.0, 1.0, 18.55, 3.6)">
      <path d="M-18.05 -3.1 Q-13.4 6.1 -9.05 10.1 -4.75 14.05 -1.4 16.15 1.95 18.25 4.05 18.6" fill="none" stroke="#898073" stroke-linecap="round" stroke-linejoin="round" stroke-width="1.0"/>
    </g>
    <g id="morphshape5" transform="matrix(1.0, 0.0, 0.0, 1.0, 17.15, 7.75)">
      <path d="M-16.4 -7.0 Q-11.0 1.35 -6.25 5.65 -2.05 9.35 2.2 13.05 5.95 16.1 8.3 17.0" fill="none" stroke="#898073" stroke-linecap="round" stroke-linejoin="round" stroke-width="1.5"/>
    </g>
    <g id="morphshape6" transform="matrix(1.0, 0.0, 0.0, 1.0, 15.25, 12.3)">
      <path d="M-14.25 -11.3 Q-7.45 -2.2 -1.2 3.35 5.3 9.05 11.85 14.8" fill="none" stroke="#898073" stroke-linecap="round" stroke-linejoin="round" stroke-width="2.0"/>
    </g>
    <g id="morphshape7" transform="matrix(1.0, 0.0, 0.0, 1.0, 18.55, -2.8)">
      <path d="M-18.25 3.1 Q-15.3 9.35 -11.9 12.45 -8.5 15.5 -5.9 17.2 -3.35 18.85 -1.8 19.1" fill="none" stroke="#898073" stroke-linecap="round" stroke-linejoin="round" stroke-width="0.65"/>
    </g>
    <g id="morphshape8" transform="matrix(1.0, 0.0, 0.0, 1.0, 19.45, 19.65)">
      <path d="M-18.95 3.2 Q-18.1 1.35 -15.5 -2.65 -12.95 -6.65 -8.85 -10.85 -4.8 -15.1 -1.85 -16.95 1.05 -18.9 2.5 -19.15" fill="none" stroke="#9e9385" stroke-linecap="round" stroke-linejoin="round" stroke-width="1.0"/>
    </g>
    <g id="morphshape9" transform="matrix(1.0, 0.0, 0.0, 1.0, 18.35, 18.8)">
      <path d="M-17.6 7.35 Q-16.55 5.1 -13.15 0.85 -9.8 -3.4 -5.35 -7.5 -0.95 -11.65 7.55 -18.05" fill="none" stroke="#9e9385" stroke-linecap="round" stroke-linejoin="round" stroke-width="1.5"/>
    </g>
    <g id="morphshape10" transform="matrix(1.0, 0.0, 0.0, 1.0, 15.95, 15.75)">
      <path d="M-14.95 11.45 L-9.9 5.25 Q-6.35 1.15 -2.0 -3.2 2.3 -7.6 12.05 -14.75" fill="none" stroke="#9e9385" stroke-linecap="round" stroke-linejoin="round" stroke-width="2.0"/>
    </g>
    <g id="morphshape11" transform="matrix(1.0, 0.0, 0.0, 1.0, 18.95, 19.05)">
      <path d="M-18.65 -2.6 Q-17.5 -5.6 -16.0 -7.75 -14.5 -9.95 -11.8 -12.95 -9.1 -15.95 -4.55 -18.75" fill="none" stroke="#9e9385" stroke-linecap="round" stroke-linejoin="round" stroke-width="0.65"/>
    </g>
    <g id="morphshape12" transform="matrix(1.0, 0.0, 0.0, 1.0, 3.8, 2.35)">
      <path d="M-3.3 19.1 Q5.05 13.95 9.3 9.95 13.5 5.9 19.5 -1.85" fill="none" stroke="#9e9385" stroke-linecap="round" stroke-linejoin="round" stroke-width="1.0"/>
    </g>
    <g id="morphshape13" transform="matrix(1.0, 0.0, 0.0, 1.0, 9.1, 7.8)">
      <path d="M-8.35 17.0 Q-6.7 15.8 -2.3 13.05 2.05 10.25 6.75 5.95 11.45 1.6 18.25 -7.05" fill="none" stroke="#9e9385" stroke-linecap="round" stroke-linejoin="round" stroke-width="1.5"/>
    </g>
    <g id="morphshape14" transform="matrix(1.0, 0.0, 0.0, 1.0, 13.5, 12.65)">
      <path d="M-12.5 14.35 Q-4.95 8.1 1.0 2.5 6.9 -3.1 15.25 -11.65" fill="none" stroke="#9e9385" stroke-linecap="round" stroke-linejoin="round" stroke-width="2.0"/>
    </g>
    <g id="morphshape15" transform="matrix(1.0, 0.0, 0.0, 1.0, -1.8, -3.45)">
      <path d="M2.1 19.15 Q8.3 15.9 11.95 12.6 15.6 9.25 19.0 3.75" fill="none" stroke="#9e9385" stroke-linecap="round" stroke-linejoin="round" stroke-width="0.65"/>
    </g>
    <g id="shape2" transform="matrix(1.0, 0.0, 0.0, 1.0, 13.35, 11.15)">
      <path d="M13.35 9.4 L12.9 10.65 Q12.45 11.15 11.85 11.15 L-9.15 11.15 Q-9.75 11.15 -11.25 9.35 -12.8 7.5 -12.8 6.8 L-10.65 -6.3 Q-10.65 -7.0 -10.2 -7.5 -9.75 -8.0 -9.15 -8.0 L9.75 -10.55 Q10.4 -10.55 11.85 -8.8 13.35 -7.0 13.35 -6.3 L13.35 9.4" fill="url(#gradient1)" fill-rule="evenodd" stroke="none"/>
      <path d="M10.65 6.3 Q10.65 7.0 10.2 7.5 9.8 8.0 9.15 8.0 L-11.8 8.0 Q-12.45 8.0 -12.9 7.5 -13.35 7.0 -13.35 6.3 L-13.35 -9.4 -12.9 -10.65 Q-12.45 -11.15 -11.8 -11.15 L9.15 -11.15 Q9.8 -11.15 10.2 -10.65 L10.65 -9.4 10.65 6.3" fill="url(#gradient2)" fill-rule="evenodd" stroke="none"/>
      <path d="M9.1 -10.65 L-0.6 -10.8 Q-10.45 -10.95 -11.25 -10.75 -12.05 -10.55 -12.5 -9.75 L-12.8 -9.0 -12.8 6.8 -13.1 7.25 -13.35 6.3 -13.35 -9.4 -12.9 -10.65 Q-12.45 -11.15 -11.8 -11.15 L9.1 -11.15 9.1 -10.65" fill="#b8ac9b" fill-rule="evenodd" stroke="none"/>
      <path d="M10.2 7.5 Q9.8 8.0 9.15 8.0 L-11.8 8.0 -12.65 7.75 Q-6.9 7.35 -0.05 7.45 L7.6 7.55 Q9.8 7.5 9.95 6.7 10.2 5.5 10.2 -9.85 L10.45 -10.25 10.65 -9.4 10.65 6.3 Q10.65 7.0 10.2 7.5" fill="#544e4a" fill-rule="evenodd" stroke="none"/>
      <path d="M4.75 -1.45 Q4.75 1.2 2.9 3.1 1.05 4.95 -1.6 4.95 -4.25 4.95 -6.15 3.1 -8.0 1.2 -8.0 -1.45 -8.0 -4.1 -6.15 -5.95 -4.25 -7.8 -1.6 -7.8 1.05 -7.8 2.9 -5.95 4.75 -4.05 4.75 -1.45" fill="#5a2116" fill-rule="evenodd" stroke="none"/>
      <path d="M7.05 -2.95 Q8.05 0.85 6.4 4.1 4.75 7.4 1.5 8.2 -1.75 9.05 -4.75 7.0 -7.7 4.9 -8.7 1.1 -9.65 -2.7 -8.05 -5.95 -6.45 -9.2 -3.2 -10.05 0.05 -10.9 3.05 -8.8 6.1 -6.75 7.05 -2.95" fill="url(#gradient3)" fill-rule="evenodd" stroke="none"/>
    </g>
    <linearGradient gradientTransform="matrix(0.0, 0.0056, 0.0056, 0.0, 0.3, 7.95)" gradientUnits="userSpaceOnUse" id="gradient1" spreadMethod="pad" x1="-819.2" x2="819.2">
      <stop offset="0.5098039215686274" stop-color="#000000" stop-opacity="0.3372549"/>
      <stop offset="0.5529411764705883" stop-color="#000000" stop-opacity="0.27058825"/>
      <stop offset="1.0" stop-color="#000000" stop-opacity="0.0"/>
    </linearGradient>
    <linearGradient gradientTransform="matrix(0.0017, 0.0136, 0.0136, -0.0017, -1.3, -1.4)" gradientUnits="userSpaceOnUse" id="gradient2" spreadMethod="pad" x1="-819.2" x2="819.2">
      <stop offset="0.0" stop-color="#96887b"/>
      <stop offset="0.3607843137254902" stop-color="#887b6f"/>
      <stop offset="1.0" stop-color="#665b50"/>
    </linearGradient>
    <radialGradient cx="0" cy="0" gradientTransform="matrix(0.0096, -0.0025, -0.0029, -0.0112, -0.85, -0.9)" gradientUnits="userSpaceOnUse" id="gradient3" r="819.2" spreadMethod="pad">
      <stop offset="0.5098039215686274" stop-color="#000000"/>
      <stop offset="0.5529411764705883" stop-color="#000000" stop-opacity="0.79607844"/>
      <stop offset="1.0" stop-color="#000000" stop-opacity="0.0"/>
    </radialGradient>
    <g id="shape3" transform="matrix(1.0, 0.0, 0.0, 1.0, 5.45, 5.45)">
      <path d="M5.4 0.0 Q5.4 2.25 3.8 3.85 2.25 5.4 -0.05 5.4 -2.3 5.4 -3.85 3.85 -5.45 2.25 -5.45 0.0 -5.45 -2.3 -3.85 -3.85 -2.3 -5.45 -0.05 -5.45 2.25 -5.45 3.8 -3.85 5.4 -2.3 5.4 0.0" fill="#dc6d59" fill-rule="evenodd" stroke="none"/>
      <path d="M5.2 0.2 Q5.2 2.35 3.65 3.9 2.15 5.4 -0.05 5.4 -2.2 5.4 -3.7 3.9 -5.25 2.35 -5.25 0.2 -5.25 -1.95 -3.7 -3.5 -2.2 -5.05 -0.05 -5.05 2.15 -5.05 3.65 -3.5 5.2 -1.95 5.2 0.2" fill="#d55134" fill-rule="evenodd" stroke="none"/>
      <path d="M1.2 -1.45 Q0.6 -1.2 -0.35 -1.1 L-1.9 -0.9 Q-3.35 -0.75 -3.65 0.6 -4.05 2.2 -2.95 4.05 L-2.3 4.9 Q-3.75 4.2 -4.6 2.75 L-4.6 0.3 Q-4.45 -1.15 -3.25 -2.05 -2.7 -2.5 -1.6 -2.55 L0.1 -2.75 Q1.85 -3.45 2.1 -4.6 L2.85 -4.15 2.9 -3.65 2.8 -2.4 Q2.55 -1.9 1.2 -1.45" fill="#dc6d59" fill-rule="evenodd" stroke="none"/>
      <path d="M2.1 -4.6 Q1.85 -3.45 0.1 -2.75 L-1.6 -2.55 Q-2.7 -2.5 -3.25 -2.05 -4.45 -1.15 -4.6 0.3 L-4.6 2.75 Q-5.25 1.55 -5.25 0.2 -5.25 -1.95 -3.7 -3.5 -2.2 -5.05 -0.05 -5.05 L2.1 -4.6" fill="#e49f93" fill-rule="evenodd" stroke="none"/>
      <path d="M5.2 0.2 Q5.2 2.35 3.65 3.9 2.15 5.4 -0.05 5.4 L-0.35 5.4 Q4.2 4.6 5.2 -0.15 L5.2 0.2" fill="#e49f93" fill-rule="evenodd" stroke="none"/>
    </g>
  </defs>
</svg>
