<?xml version="1.0" encoding="UTF-8" standalone="no"?>
<svg xmlns:xlink="http://www.w3.org/1999/xlink" height="53.5px" width="53.85px" xmlns="http://www.w3.org/2000/svg">
  <g transform="matrix(1.0, 0.0, 0.0, 1.0, 0.0, 0.0)">
    <use height="17.55" transform="matrix(1.0, 0.0, 0.0, 1.0, 0.45, 35.95)" width="52.9" xlink:href="#shape0"/>
  </g>
  <defs>
    <g id="shape0" transform="matrix(1.0, 0.0, 0.0, 1.0, -0.45, -35.95)">
      <path d="M0.75 49.55 L1.5 49.85 4.95 50.0 8.4 49.4 10.4 48.55 10.4 48.5 11.5 47.6 12.05 48.25 11.0 48.5 10.65 48.7 6.55 50.1 1.65 50.35 0.65 50.25 0.5 50.15 0.5 49.75 0.65 49.55 0.75 49.55" fill="#d1b262" fill-rule="evenodd" stroke="none"/>
      <path d="M22.4 40.15 L22.4 40.2 22.45 40.55 22.45 40.9 22.65 40.65 23.1 39.85 23.1 39.9 23.15 40.2 23.15 40.55 23.55 40.1 23.85 39.5 23.9 39.5 23.95 39.75 24.35 39.35 24.5 39.25 24.55 39.2 24.35 39.5 24.75 39.35 25.1 39.05 25.1 39.1 24.75 39.6 24.6 39.7 24.9 39.65 25.1 39.6 25.15 39.6 24.65 39.85 24.3 40.2 24.9 40.1 24.3 40.45 23.65 41.0 23.6 41.0 24.4 40.9 23.6 41.35 23.1 41.8 24.1 41.7 24.2 41.7 23.1 42.15 22.45 42.55 23.5 42.55 22.1 42.95 21.3 43.35 22.45 43.35 21.1 43.7 20.35 44.1 20.7 44.1 21.25 44.05 21.4 44.1 20.0 44.5 19.3 44.95 18.7 45.35 19.75 45.5 19.85 45.55 18.45 45.75 Q18.0 45.8 17.25 46.15 L17.9 46.3 18.0 46.35 16.6 46.5 15.8 46.7 16.0 46.7 15.35 46.85 15.15 46.9 16.85 46.95 15.9 47.1 15.3 47.25 14.95 47.45 13.45 48.15 13.35 48.15 13.55 48.15 12.4 48.35 11.95 48.25 11.6 47.95 11.65 47.8 11.6 47.75 Q11.45 47.7 11.55 47.45 L11.7 47.15 12.5 46.65 13.8 46.25 14.15 46.15 15.05 45.45 14.85 45.85 15.3 45.55 16.05 44.8 16.0 44.85 15.9 45.35 16.85 44.5 17.6 43.6 17.55 44.05 17.55 44.15 18.15 43.6 18.8 42.55 18.8 42.65 18.75 43.45 19.65 42.55 20.25 41.5 20.25 42.55 20.7 42.05 21.35 41.0 21.35 41.65 21.9 41.05 22.4 40.15" fill="#fbe494" fill-rule="evenodd" stroke="none"/>
      <path d="M22.9 41.55 L23.25 41.5 23.85 41.15 23.35 41.5 23.1 41.8 22.85 41.85 22.7 41.65 23.25 41.25 22.9 41.55" fill="#e3ca72" fill-rule="evenodd" stroke="none"/>
      <path d="M18.45 44.05 L18.25 44.3 Q17.8 44.6 18.75 44.4 L19.5 44.3 19.25 44.25 Q18.8 44.25 19.0 43.95 L18.45 44.05 M24.2 40.5 L23.6 41.0 23.25 41.05 Q23.2 40.95 23.3 40.8 L23.35 40.7 23.15 40.8 23.0 41.1 22.65 41.35 22.45 41.3 22.45 41.35 22.2 41.95 22.5 41.9 22.2 42.05 21.85 42.3 22.15 42.4 22.6 42.3 Q22.9 42.1 23.25 42.05 L22.6 42.4 22.45 42.55 22.15 42.55 21.3 42.7 20.8 42.85 Q20.35 43.0 20.4 43.15 L21.45 43.1 22.2 42.9 21.3 43.35 20.7 43.35 19.95 43.6 Q19.1 43.9 19.85 44.0 L20.55 43.95 20.1 44.15 20.2 44.15 18.7 44.5 17.95 44.75 17.6 45.15 Q17.65 45.35 18.1 45.35 L17.85 45.35 17.95 45.35 17.3 45.5 Q16.7 45.7 16.65 45.85 L17.65 45.8 19.4 45.55 18.1 45.8 17.25 46.15 15.7 46.25 Q15.45 46.4 15.55 46.5 L15.9 46.55 17.0 46.4 16.35 46.5 15.8 46.7 15.25 46.65 14.6 46.6 Q14.5 46.4 14.8 46.25 L14.65 46.05 14.25 46.45 14.05 46.6 14.4 46.8 15.0 46.85 16.0 46.7 15.3 46.85 16.15 46.9 14.8 47.0 13.4 47.3 13.2 47.55 13.7 47.7 Q14.3 47.8 15.4 47.2 14.9 47.85 13.75 48.1 L12.7 48.05 12.3 47.9 Q11.8 48.05 12.4 48.25 L13.55 48.15 12.45 48.45 Q11.45 48.5 11.6 47.85 L11.55 47.8 Q11.1 47.65 11.25 47.3 11.35 47.0 11.95 46.75 L13.9 46.2 12.95 46.5 Q12.0 46.85 11.85 47.25 L12.4 47.3 13.0 46.85 Q13.2 46.6 14.05 46.25 L13.8 46.4 14.0 46.4 15.1 45.4 14.75 45.9 15.45 45.45 15.1 45.7 14.9 46.05 15.3 45.9 15.75 45.35 16.05 44.8 15.9 45.3 16.45 44.9 17.65 43.55 16.8 44.75 16.4 45.25 16.6 45.3 17.4 44.5 17.4 44.6 17.55 44.15 17.8 43.95 18.25 43.45 18.1 43.7 Q18.0 44.0 18.15 44.05 L18.75 43.35 18.7 43.6 18.75 43.45 19.5 42.75 19.0 43.35 18.7 43.6 19.05 43.7 20.1 42.85 19.9 43.25 20.55 42.9 20.45 42.9 20.2 42.85 20.2 42.75 20.2 42.7 20.25 42.55 20.8 41.95 20.7 42.35 20.55 42.45 20.9 42.4 21.35 41.7 21.35 41.65 21.4 41.7 21.45 41.95 21.55 42.05 Q21.75 42.05 21.95 41.85 L22.4 41.1 22.45 40.95 22.8 40.45 22.75 40.65 Q22.7 40.9 22.8 40.95 23.0 41.15 23.15 40.55 L23.35 40.3 23.7 39.85 23.4 40.55 23.85 40.05 23.6 40.55 23.95 40.4 23.7 40.55 23.6 40.75 24.2 40.5" fill="#e3ca72" fill-rule="evenodd" stroke="none"/>
      <path d="M24.3 39.85 L24.15 40.1 24.3 40.2 24.0 40.3 23.9 40.35 23.85 40.3 24.05 40.1 24.3 39.85 24.2 39.85 24.15 39.85 24.2 39.65 24.55 39.2 24.25 39.75 24.7 39.5 25.1 39.1 24.9 39.5 24.3 39.85" fill="#e3ca72" fill-rule="evenodd" stroke="none"/>
      <path d="M13.45 46.4 L12.75 46.8 12.4 46.9 12.9 46.6 13.45 46.4" fill="#fff2cc" fill-rule="evenodd" stroke="none"/>
      <path d="M15.15 47.05 L14.05 47.55 Q13.7 47.6 13.7 47.45 L13.9 47.2 15.15 47.05" fill="#fff2cc" fill-rule="evenodd" stroke="none"/>
      <path d="M16.95 46.25 L16.25 46.4 Q15.65 46.5 16.0 46.35 L16.95 46.25" fill="#fff2cc" fill-rule="evenodd" stroke="none"/>
      <path d="M14.4 46.55 L14.65 46.75 14.3 46.7 14.25 46.6 Q14.35 46.5 14.4 46.55" fill="#fff2cc" fill-rule="evenodd" stroke="none"/>
      <path d="M15.45 45.55 L15.15 45.8 15.3 45.65 15.45 45.55" fill="#fff2cc" fill-rule="evenodd" stroke="none"/>
      <path d="M18.25 45.45 L17.55 45.7 17.2 45.8 Q17.05 45.8 17.25 45.65 L18.25 45.45" fill="#fff2cc" fill-rule="evenodd" stroke="none"/>
      <path d="M19.55 44.45 L18.6 45.0 18.3 45.0 18.35 44.75 Q18.6 44.55 19.55 44.45" fill="#fff2cc" fill-rule="evenodd" stroke="none"/>
      <path d="M17.3 44.3 L17.2 44.7 16.95 44.9 16.95 44.75 17.3 44.3" fill="#fff2cc" fill-rule="evenodd" stroke="none"/>
      <path d="M18.6 43.15 L18.35 43.8 18.2 43.8 18.25 43.6 18.6 43.15" fill="#fff2cc" fill-rule="evenodd" stroke="none"/>
      <path d="M20.0 42.25 L19.4 43.3 Q19.25 43.2 19.6 42.85 L20.0 42.25" fill="#fff2cc" fill-rule="evenodd" stroke="none"/>
      <path d="M21.15 43.45 L20.55 43.75 Q19.9 43.95 20.1 43.75 20.2 43.6 20.7 43.55 L21.15 43.45" fill="#fff2cc" fill-rule="evenodd" stroke="none"/>
      <path d="M22.2 42.65 L21.45 43.0 21.0 42.95 21.65 42.75 22.2 42.65" fill="#fff2cc" fill-rule="evenodd" stroke="none"/>
      <path d="M21.05 41.7 L21.1 41.85 21.05 42.1 20.85 42.25 20.85 42.15 21.05 41.7" fill="#fff2cc" fill-rule="evenodd" stroke="none"/>
      <path d="M22.2 40.9 Q22.0 41.7 21.8 41.75 L21.65 41.6 Q21.65 41.45 21.8 41.35 L22.2 40.9" fill="#fff2cc" fill-rule="evenodd" stroke="none"/>
      <path d="M23.0 40.35 L22.85 40.65 22.9 40.45 23.0 40.35" fill="#fff2cc" fill-rule="evenodd" stroke="none"/>
      <path d="M23.1 41.9 L22.6 42.15 22.3 42.1 Q22.35 42.05 22.75 41.95 L23.1 41.9" fill="#fff2cc" fill-rule="evenodd" stroke="none"/>
      <path d="M23.7 41.1 L23.25 41.35 23.45 41.2 23.7 41.1" fill="#fff2cc" fill-rule="evenodd" stroke="none"/>
      <path d="M24.35 40.25 L24.0 40.5 23.8 40.55 Q23.85 40.5 24.05 40.35 L24.35 40.25" fill="#fff2cc" fill-rule="evenodd" stroke="none"/>
      <path d="M23.85 39.8 L23.8 40.1 Q23.7 40.3 23.65 40.1 L23.85 39.8" fill="#fff2cc" fill-rule="evenodd" stroke="none"/>
      <path d="M22.6 41.45 L22.45 41.7 22.45 41.5 22.6 41.45" fill="#fff2cc" fill-rule="evenodd" stroke="none"/>
      <path d="M24.85 39.35 L24.5 39.55 24.45 39.5 24.55 39.5 24.85 39.35" fill="#fff2cc" fill-rule="evenodd" stroke="none"/>
      <path d="M16.85 46.5 L17.45 47.15 16.35 47.45 16.0 47.6 11.95 48.95 7.05 49.25 6.0 49.15 5.9 49.05 5.85 48.7 6.0 48.45 6.1 48.45 6.85 48.7 10.3 48.9 Q13.2 48.8 15.75 47.45 L15.8 47.45 16.85 46.5" fill="#d1b262" fill-rule="evenodd" stroke="none"/>
      <path d="M30.5 38.0 L30.15 38.5 29.95 38.6 30.5 38.5 30.55 38.5 30.0 38.8 29.65 39.1 30.3 38.95 30.35 38.95 29.65 39.35 29.0 39.9 28.95 39.95 29.8 39.75 29.85 39.75 Q29.55 39.85 28.95 40.25 L28.45 40.65 29.5 40.6 29.55 40.6 28.45 41.05 27.85 41.4 28.2 41.45 28.75 41.5 28.85 41.5 27.45 41.85 26.7 42.2 27.2 42.2 27.75 42.25 27.85 42.3 26.45 42.65 25.7 43.0 26.75 43.0 25.4 43.45 24.7 43.8 24.05 44.25 25.1 44.4 25.25 44.45 23.8 44.65 Q23.5 44.7 22.65 45.05 L23.3 45.2 23.35 45.25 21.95 45.35 21.15 45.6 21.4 45.6 20.7 45.75 20.55 45.8 22.25 45.9 21.25 46.0 20.7 46.15 20.35 46.35 18.85 47.0 18.7 47.1 18.95 47.1 18.05 47.2 17.75 47.2 17.3 47.15 17.0 46.85 17.05 46.7 16.95 46.65 16.95 46.3 17.1 46.05 17.9 45.55 19.15 45.1 19.55 45.05 20.45 44.3 20.45 44.4 20.2 44.75 20.7 44.45 21.4 43.7 21.4 43.8 21.25 44.1 21.25 44.2 22.25 43.45 23.0 42.4 23.0 42.5 22.9 43.1 23.55 42.5 24.2 41.45 24.2 41.5 24.15 42.3 25.0 41.5 25.6 40.4 25.6 40.45 25.65 40.9 25.6 41.5 26.1 40.95 26.7 39.9 26.7 39.95 26.75 40.4 26.75 40.55 27.3 39.95 27.8 39.05 27.8 39.1 27.85 39.85 28.05 39.6 28.5 38.75 28.5 38.8 28.5 39.1 28.5 39.4 28.9 39.05 29.25 38.4 29.25 38.45 29.3 38.65 29.7 38.25 29.9 38.15 29.9 38.1 29.75 38.4 30.5 38.0" fill="#fbe494" fill-rule="evenodd" stroke="none"/>
      <path d="M28.25 40.45 L28.6 40.4 29.2 40.1 28.7 40.45 28.45 40.65 28.2 40.7 28.1 40.55 28.4 40.3 28.6 40.15 28.25 40.45" fill="#e3ca72" fill-rule="evenodd" stroke="none"/>
      <path d="M24.9 43.2 L24.6 43.15 24.35 43.05 24.4 42.85 23.85 42.9 23.65 43.15 Q23.45 43.35 23.6 43.35 L24.1 43.3 24.9 43.2 M29.55 39.4 L28.95 39.95 Q28.5 40.15 28.7 39.7 L28.75 39.6 28.5 39.7 28.4 39.95 28.05 40.2 27.8 40.2 27.8 40.25 27.55 40.9 27.85 40.8 27.55 40.95 27.25 41.25 27.5 41.35 27.95 41.2 Q28.25 41.0 28.6 40.95 L28.0 41.3 27.85 41.4 27.15 41.5 26.5 41.65 26.2 41.75 Q25.7 41.95 25.8 42.05 L26.15 42.2 26.85 42.05 27.55 41.8 26.7 42.2 26.05 42.3 25.3 42.5 Q24.55 42.75 25.25 42.9 L26.2 42.75 Q25.8 42.9 25.45 43.1 L25.6 43.1 24.1 43.4 Q22.85 43.7 23.0 44.05 23.05 44.25 23.45 44.25 L23.2 44.3 23.35 44.3 22.7 44.4 22.05 44.75 Q21.95 45.1 23.0 44.75 L25.0 44.5 23.5 44.75 22.65 45.05 21.1 45.2 20.9 45.45 21.3 45.45 22.1 45.35 21.75 45.45 21.15 45.6 20.65 45.55 20.0 45.5 Q19.8 45.3 20.15 45.1 L20.0 45.0 20.0 44.95 19.65 45.35 19.45 45.5 19.75 45.7 20.35 45.7 21.35 45.6 20.7 45.8 21.35 45.8 20.15 45.9 18.75 46.2 18.55 46.5 19.1 46.6 Q19.7 46.75 20.8 46.1 20.3 46.75 19.1 46.95 L18.1 46.95 17.7 46.85 Q17.5 46.85 17.5 46.95 L17.75 47.15 18.95 47.1 17.8 47.35 Q16.85 47.45 16.95 46.75 16.5 46.55 16.6 46.25 16.75 45.95 17.35 45.65 18.35 45.15 19.3 45.1 L18.35 45.4 Q17.35 45.75 17.25 46.15 L17.75 46.25 18.35 45.8 Q18.6 45.55 19.4 45.15 L19.2 45.35 19.4 45.35 20.45 44.3 20.1 44.8 20.75 44.4 20.5 44.65 Q20.2 44.85 20.3 44.95 L20.7 44.75 21.15 44.3 21.4 43.7 21.25 44.2 21.85 43.8 23.0 42.45 22.15 43.7 21.75 44.15 21.95 44.2 22.8 43.4 22.75 43.5 22.9 43.1 23.15 42.9 23.65 42.35 23.5 42.65 Q23.35 42.9 23.55 42.9 23.85 42.95 24.15 42.25 L24.05 42.45 24.15 42.3 24.85 41.7 24.35 42.3 24.05 42.55 24.4 42.6 Q24.9 42.55 25.5 41.75 L25.25 42.2 Q25.55 41.9 25.95 41.8 L26.0 41.75 25.8 41.75 25.6 41.75 25.55 41.7 25.6 41.6 25.6 41.5 25.85 41.25 26.2 40.85 26.05 41.25 25.95 41.35 Q25.85 41.7 26.3 41.25 L26.75 40.55 26.8 40.6 26.8 40.85 26.95 40.95 27.35 40.75 27.8 40.0 27.8 39.85 27.95 39.7 28.15 39.35 28.15 39.55 Q28.1 39.8 28.2 39.85 28.35 40.0 28.5 39.4 L28.75 39.25 29.1 38.8 28.8 39.4 29.25 38.95 29.0 39.4 29.3 39.25 29.1 39.4 28.95 39.65 29.55 39.4" fill="#e3ca72" fill-rule="evenodd" stroke="none"/>
      <path d="M30.25 38.45 L29.7 38.8 Q29.45 38.9 29.55 39.05 L29.65 39.1 29.35 39.2 29.3 39.25 29.25 39.2 29.4 39.0 29.65 38.8 29.55 38.8 29.5 38.75 29.55 38.55 29.9 38.1 29.7 38.45 29.65 38.6 30.1 38.45 30.5 38.0 30.25 38.45" fill="#e3ca72" fill-rule="evenodd" stroke="none"/>
      <path d="M18.8 45.3 L18.15 45.7 17.75 45.8 Q17.75 45.7 18.25 45.5 L18.8 45.3" fill="#fff2cc" fill-rule="evenodd" stroke="none"/>
      <path d="M20.55 45.9 L19.4 46.45 19.05 46.4 Q19.0 46.2 19.3 46.1 L20.55 45.9" fill="#fff2cc" fill-rule="evenodd" stroke="none"/>
      <path d="M22.35 45.15 L21.65 45.35 Q21.05 45.45 21.4 45.2 L22.35 45.15" fill="#fff2cc" fill-rule="evenodd" stroke="none"/>
      <path d="M19.8 45.45 L20.0 45.65 19.7 45.6 19.65 45.5 19.8 45.45" fill="#fff2cc" fill-rule="evenodd" stroke="none"/>
      <path d="M23.6 44.35 L22.95 44.65 22.6 44.7 Q22.45 44.65 22.65 44.55 L23.6 44.35" fill="#fff2cc" fill-rule="evenodd" stroke="none"/>
      <path d="M24.95 43.35 L24.0 43.85 23.65 43.95 23.7 43.7 Q23.95 43.45 24.95 43.35" fill="#fff2cc" fill-rule="evenodd" stroke="none"/>
      <path d="M22.65 43.25 Q22.8 43.3 22.55 43.6 L22.3 43.8 22.3 43.7 22.65 43.25" fill="#fff2cc" fill-rule="evenodd" stroke="none"/>
      <path d="M23.95 42.05 L23.7 42.65 23.55 42.7 Q23.5 42.65 23.6 42.55 L23.95 42.05" fill="#fff2cc" fill-rule="evenodd" stroke="none"/>
      <path d="M25.4 41.15 L24.75 42.2 Q24.6 42.05 25.0 41.75 L25.4 41.15" fill="#fff2cc" fill-rule="evenodd" stroke="none"/>
      <path d="M26.55 42.4 L25.9 42.65 Q25.3 42.9 25.45 42.65 L26.05 42.45 26.55 42.4" fill="#fff2cc" fill-rule="evenodd" stroke="none"/>
      <path d="M27.55 41.6 L26.8 41.9 26.45 42.0 26.35 41.85 Q26.45 41.7 27.0 41.65 L27.55 41.6" fill="#fff2cc" fill-rule="evenodd" stroke="none"/>
      <path d="M26.45 40.6 L26.4 41.0 26.25 41.15 26.25 41.0 26.45 40.6" fill="#fff2cc" fill-rule="evenodd" stroke="none"/>
      <path d="M27.6 39.8 L27.15 40.65 27.0 40.55 27.2 40.25 27.6 39.8" fill="#fff2cc" fill-rule="evenodd" stroke="none"/>
      <path d="M28.45 40.8 L27.95 41.05 Q27.45 41.25 27.65 41.0 L28.1 40.85 28.45 40.8" fill="#fff2cc" fill-rule="evenodd" stroke="none"/>
      <path d="M28.85 40.1 L29.1 40.0 28.6 40.3 28.85 40.1" fill="#fff2cc" fill-rule="evenodd" stroke="none"/>
      <path d="M29.75 39.15 L29.2 39.5 29.45 39.25 29.75 39.15" fill="#fff2cc" fill-rule="evenodd" stroke="none"/>
      <path d="M29.2 38.7 L29.2 38.95 Q29.1 39.2 29.0 39.05 L29.2 38.7" fill="#fff2cc" fill-rule="evenodd" stroke="none"/>
      <path d="M27.95 40.35 Q28.05 40.75 27.85 40.6 L27.85 40.45 27.95 40.35" fill="#fff2cc" fill-rule="evenodd" stroke="none"/>
      <path d="M21.4 45.9 L22.1 46.45 20.55 46.85 20.0 47.05 14.05 48.85 7.05 49.55 5.6 49.55 5.4 49.45 5.4 49.05 Q5.5 48.85 5.7 48.85 L5.85 48.8 6.8 49.05 Q8.45 49.25 11.75 48.95 15.8 48.55 19.65 46.95 L19.75 46.9 Q21.25 46.25 21.4 45.9" fill="#d1b262" fill-rule="evenodd" stroke="none"/>
      <path d="M41.65 36.45 L41.7 36.45 40.9 36.8 40.4 37.15 41.35 36.95 41.4 36.95 Q41.0 37.05 40.35 37.4 L39.35 38.05 39.3 38.1 40.5 37.85 40.6 37.85 Q40.1 38.0 39.3 38.4 L38.5 38.9 40.0 38.7 40.1 38.7 38.45 39.25 37.55 39.7 39.0 39.65 37.0 40.2 Q36.35 40.35 35.85 40.65 L37.45 40.55 35.45 41.05 34.35 41.5 34.9 41.5 35.65 41.4 35.8 41.4 33.85 42.0 32.8 42.45 31.9 42.9 33.5 43.0 31.45 43.35 Q30.55 43.6 29.75 43.9 L29.95 43.9 30.65 44.0 30.8 44.05 28.75 44.3 27.55 44.55 27.9 44.55 26.95 44.75 26.65 44.85 29.1 44.75 27.7 45.0 26.85 45.15 26.3 45.4 24.15 46.25 23.95 46.25 24.3 46.25 22.55 46.55 21.95 46.5 21.5 46.2 21.6 46.05 21.5 46.05 Q21.3 45.95 21.45 45.7 L21.75 45.4 Q22.15 45.1 22.9 44.8 L24.8 44.25 25.35 44.15 26.75 43.3 26.65 43.4 26.35 43.8 27.05 43.45 28.15 42.6 27.9 43.0 27.8 43.15 29.35 42.25 30.5 41.15 30.5 41.25 30.35 41.7 30.3 41.85 31.3 41.15 32.35 40.05 32.35 40.15 32.15 40.95 33.5 40.0 34.45 38.85 34.5 38.9 34.35 39.95 35.1 39.4 36.1 38.25 36.1 38.75 36.05 38.9 36.9 38.25 37.7 37.3 37.7 38.05 38.0 37.8 38.7 36.95 38.75 36.95 38.75 37.3 38.75 37.6 39.35 37.15 39.85 36.45 39.9 36.5 39.9 36.7 40.8 36.15 40.55 36.45 41.7 35.95 41.1 36.5 40.85 36.65 41.65 36.45" fill="#fbe494" fill-rule="evenodd" stroke="none"/>
      <path d="M38.0 38.8 L38.4 38.5 38.75 38.35 38.25 38.7 38.75 38.55 39.55 38.3 38.9 38.6 38.5 38.9 38.15 38.95 38.0 38.8" fill="#e3ca72" fill-rule="evenodd" stroke="none"/>
      <path d="M31.4 41.85 Q31.05 42.05 31.25 42.05 L32.0 41.95 33.15 41.75 32.75 41.75 Q32.15 41.75 32.45 41.45 L31.65 41.6 31.4 41.85 M39.85 37.4 L39.55 37.5 39.3 37.8 Q39.35 38.0 40.15 37.5 L39.3 38.1 Q38.55 38.4 38.9 37.85 L39.0 37.75 38.7 37.85 38.45 38.2 38.0 38.45 37.6 38.45 37.6 38.5 37.25 39.15 37.65 39.05 37.15 39.25 36.7 39.55 37.1 39.65 37.75 39.5 Q38.2 39.25 38.65 39.15 L37.75 39.6 37.55 39.7 35.9 39.95 35.15 40.2 Q34.45 40.45 34.55 40.55 L36.05 40.45 37.15 40.1 35.85 40.65 34.95 40.7 33.8 41.0 Q32.75 41.4 33.65 41.45 L35.05 41.2 34.7 41.35 33.95 41.6 34.1 41.6 32.0 42.05 Q30.2 42.45 30.35 42.85 L30.95 43.0 30.6 43.05 30.85 43.0 29.9 43.25 28.9 43.65 30.35 43.5 33.15 43.05 30.95 43.45 29.75 43.9 27.5 44.15 27.2 44.4 27.8 44.4 28.85 44.25 28.4 44.35 27.55 44.55 26.85 44.6 25.95 44.6 Q25.7 44.35 26.2 44.15 L26.0 44.05 26.05 44.0 25.1 44.65 25.55 44.8 26.4 44.75 27.85 44.55 26.9 44.75 28.05 44.75 26.15 44.95 Q24.55 45.2 24.1 45.4 L23.75 45.7 24.55 45.8 Q25.35 45.85 27.0 45.1 26.2 45.8 24.55 46.15 L23.0 46.25 22.55 46.15 22.2 46.3 22.55 46.45 24.3 46.25 22.6 46.65 21.55 46.5 Q21.35 46.35 21.45 46.1 L21.4 46.1 Q20.8 45.95 21.05 45.6 21.25 45.3 22.15 44.95 23.6 44.35 24.95 44.2 L23.55 44.6 Q22.1 45.1 21.9 45.5 L22.65 45.55 23.6 45.0 Q23.95 44.75 25.1 44.25 L24.8 44.45 25.05 44.4 Q25.8 44.15 26.75 43.3 L26.2 43.85 26.9 43.5 26.75 43.6 26.4 43.95 26.95 43.8 27.65 43.25 28.15 42.6 27.85 43.15 28.75 42.65 Q29.5 42.2 30.5 41.15 L29.2 42.55 28.6 43.05 28.85 43.05 Q29.25 43.0 30.15 42.2 L30.05 42.3 30.3 41.85 30.7 41.6 31.45 41.0 31.2 41.35 Q31.0 41.6 31.25 41.6 L32.2 40.9 32.05 41.1 32.15 40.95 33.25 40.25 32.5 40.9 32.05 41.15 32.5 41.25 34.15 40.25 33.8 40.65 34.8 40.25 34.85 40.2 34.65 40.2 34.3 40.2 34.25 40.15 34.3 40.1 34.35 39.95 34.7 39.75 35.25 39.25 35.0 39.7 34.85 39.8 35.4 39.7 36.05 38.9 36.1 39.0 36.15 39.2 36.3 39.35 36.85 39.05 37.6 38.25 37.65 38.1 38.25 37.55 38.15 37.75 Q38.05 38.0 38.2 38.1 L38.75 37.6 39.1 37.4 39.6 36.9 39.1 37.6 39.8 37.05 39.4 37.55 39.85 37.4" fill="#e3ca72" fill-rule="evenodd" stroke="none"/>
      <path d="M41.65 36.0 L41.3 36.45 40.5 36.8 40.2 37.1 40.4 37.15 39.95 37.3 39.8 37.35 39.8 37.3 40.05 37.05 40.4 36.85 40.25 36.8 40.25 36.85 40.15 36.8 40.3 36.65 40.7 36.3 40.5 36.45 40.4 36.7 41.05 36.45 41.65 36.0" fill="#e3ca72" fill-rule="evenodd" stroke="none"/>
      <path d="M24.3 44.45 L23.25 44.95 22.7 45.1 Q22.65 45.0 23.5 44.7 L24.3 44.45" fill="#fff2cc" fill-rule="evenodd" stroke="none"/>
      <path d="M26.65 45.0 L25.0 45.55 24.45 45.55 Q24.4 45.35 24.9 45.25 L26.65 45.0" fill="#fff2cc" fill-rule="evenodd" stroke="none"/>
      <path d="M28.3 44.25 Q27.35 44.45 27.9 44.15 L29.3 44.0 28.3 44.25" fill="#fff2cc" fill-rule="evenodd" stroke="none"/>
      <path d="M25.65 44.5 L25.95 44.7 25.45 44.7 25.45 44.6 25.65 44.5" fill="#fff2cc" fill-rule="evenodd" stroke="none"/>
      <path d="M31.25 43.1 L30.25 43.4 29.7 43.5 29.8 43.35 31.25 43.1" fill="#fff2cc" fill-rule="evenodd" stroke="none"/>
      <path d="M33.2 41.95 L31.8 42.55 31.3 42.65 Q31.2 42.55 31.45 42.4 31.75 42.15 33.2 41.95" fill="#fff2cc" fill-rule="evenodd" stroke="none"/>
      <path d="M30.0 42.0 L29.8 42.4 29.45 42.65 Q29.3 42.65 29.45 42.5 L30.0 42.0" fill="#fff2cc" fill-rule="evenodd" stroke="none"/>
      <path d="M32.0 40.65 L31.55 41.35 31.3 41.35 31.4 41.2 32.0 40.65" fill="#fff2cc" fill-rule="evenodd" stroke="none"/>
      <path d="M34.1 39.65 L33.05 40.8 Q32.8 40.65 33.4 40.3 L34.1 39.65" fill="#fff2cc" fill-rule="evenodd" stroke="none"/>
      <path d="M35.6 40.8 L34.65 41.15 Q33.7 41.5 34.0 41.15 L34.9 40.9 35.6 40.8" fill="#fff2cc" fill-rule="evenodd" stroke="none"/>
      <path d="M37.15 39.85 L36.05 40.3 Q35.05 40.65 35.4 40.3 L36.3 39.95 37.15 39.85" fill="#fff2cc" fill-rule="evenodd" stroke="none"/>
      <path d="M35.6 39.0 L35.55 39.4 35.3 39.6 Q35.15 39.6 35.3 39.45 L35.6 39.0" fill="#fff2cc" fill-rule="evenodd" stroke="none"/>
      <path d="M37.35 38.1 Q37.0 38.9 36.65 38.95 36.4 39.05 36.45 38.85 L36.75 38.55 37.35 38.1" fill="#fff2cc" fill-rule="evenodd" stroke="none"/>
      <path d="M38.55 37.45 L38.3 37.8 38.4 37.6 38.55 37.45" fill="#fff2cc" fill-rule="evenodd" stroke="none"/>
      <path d="M38.5 39.0 L37.75 39.3 Q37.0 39.6 37.3 39.3 L38.5 39.0" fill="#fff2cc" fill-rule="evenodd" stroke="none"/>
      <path d="M39.45 38.15 L38.75 38.45 Q38.7 38.4 39.05 38.25 L39.45 38.15" fill="#fff2cc" fill-rule="evenodd" stroke="none"/>
      <path d="M39.75 36.8 L39.7 37.05 39.5 37.25 39.45 37.15 39.75 36.8" fill="#fff2cc" fill-rule="evenodd" stroke="none"/>
      <path d="M37.85 38.6 Q37.95 39.0 37.6 38.85 L37.65 38.7 37.85 38.6" fill="#fff2cc" fill-rule="evenodd" stroke="none"/>
      <path d="M17.85 49.15 L18.0 50.4 16.5 49.9 15.9 49.75 13.1 49.2 9.9 48.15 Q6.6 46.7 3.8 44.4 L2.7 43.4 2.65 43.2 2.95 42.65 Q3.15 42.45 3.3 42.55 L3.45 42.6 4.05 43.6 Q5.2 44.9 8.0 46.7 10.3 48.15 12.65 48.8 L15.75 49.4 15.8 49.4 17.85 49.15" fill="#d1b262" fill-rule="evenodd" stroke="none"/>
      <path d="M7.85 46.65 Q10.8 48.5 13.5 49.1 L15.85 49.55 14.05 49.3 Q12.05 48.9 10.3 48.1 8.65 47.4 6.95 46.25 5.15 45.1 4.45 44.3 L5.05 44.75 7.85 46.65" fill="#ffebb8" fill-rule="evenodd" stroke="none"/>
      <path d="M33.4 48.8 L33.35 48.9 33.05 49.4 32.45 50.1 33.5 49.9 Q34.7 49.45 35.1 49.05 L35.05 49.15 34.75 49.7 34.6 49.9 35.75 49.6 37.1 48.85 37.05 48.95 36.85 49.4 36.55 49.9 36.95 49.75 38.2 49.05 38.15 49.2 37.7 50.0 38.5 49.8 39.4 49.3 39.4 49.35 39.25 49.65 40.05 49.5 40.4 49.5 40.0 49.7 40.55 49.8 41.2 49.8 41.0 49.9 40.4 50.15 40.05 50.15 40.8 50.45 40.85 50.5 39.95 50.4 39.3 50.5 40.25 50.95 39.1 50.8 37.85 51.0 37.75 51.0 38.9 51.5 39.0 51.5 37.5 51.4 36.55 51.5 37.85 52.25 37.95 52.35 36.2 51.95 35.15 51.9 36.35 52.8 34.4 52.15 33.15 52.0 34.35 52.9 34.45 53.0 32.5 52.3 31.3 52.1 32.4 52.9 32.55 52.95 30.55 52.4 29.4 52.3 28.35 52.3 28.3 52.3 28.9 52.85 29.4 53.4 29.5 53.5 27.7 52.55 25.95 52.15 26.55 52.9 26.65 53.0 24.9 52.0 23.7 51.55 23.85 51.65 23.95 51.75 23.05 51.4 22.8 51.3 24.75 52.8 Q24.55 52.6 23.5 52.15 L22.65 51.85 22.1 51.85 19.75 51.45 19.55 51.4 19.85 51.6 18.25 50.8 17.8 50.35 Q17.55 49.9 17.7 49.7 L17.9 49.5 17.85 49.4 Q17.75 49.2 18.05 48.95 L18.5 48.75 19.85 48.8 21.75 49.35 22.25 49.55 24.0 49.4 23.35 49.75 24.15 49.75 25.6 49.4 25.55 49.5 25.0 49.9 26.85 49.75 28.6 49.1 27.9 49.9 29.2 49.65 30.85 48.9 30.35 49.55 30.0 49.95 31.75 49.6 Q32.95 49.2 33.4 48.8" fill="#fbe494" fill-rule="evenodd" stroke="none"/>
      <path d="M36.2 51.05 L36.75 50.95 37.15 51.0 36.9 51.0 36.5 51.05 Q36.35 51.15 36.95 51.3 L37.95 51.4 37.0 51.4 36.55 51.5 36.2 51.35 36.15 51.25 36.2 51.05" fill="#e3ca72" fill-rule="evenodd" stroke="none"/>
      <path d="M29.9 50.8 L29.15 50.45 28.75 50.6 Q27.95 50.7 29.15 51.15 L30.15 51.65 29.85 51.4 Q29.45 51.05 29.9 50.8 M32.25 50.45 L32.25 50.35 32.45 50.1 32.95 50.05 33.7 49.85 33.15 50.2 32.95 50.25 Q32.7 50.55 33.45 50.45 L34.6 49.9 34.45 50.35 Q34.25 50.5 34.45 50.6 L35.1 50.65 36.3 50.1 36.45 49.9 36.8 49.85 37.35 49.6 37.1 49.8 Q36.85 50.05 36.9 50.25 36.95 50.6 37.7 50.0 L38.1 49.9 38.9 49.65 38.0 50.2 38.35 50.15 38.9 50.0 38.25 50.4 38.55 50.45 38.4 50.45 Q38.0 50.45 37.95 50.6 37.95 50.9 38.9 50.8 L37.75 51.0 Q37.35 50.95 37.35 50.75 L37.65 50.45 37.75 50.4 37.45 50.35 37.0 50.6 36.45 50.6 36.2 50.35 36.1 50.45 35.35 51.0 35.75 51.15 35.2 51.1 34.65 51.15 Q34.55 51.35 34.85 51.55 L35.5 51.75 36.45 51.95 35.45 51.9 35.15 51.9 34.35 51.4 33.65 51.15 33.5 51.15 32.95 50.95 32.2 51.0 32.55 51.5 33.45 51.85 34.55 52.15 33.15 52.0 32.35 51.5 31.25 51.15 Q30.1 50.9 30.85 51.6 31.2 52.0 32.1 52.2 L30.95 52.0 31.05 52.1 29.05 51.3 27.9 50.95 Q27.25 50.9 27.2 51.15 27.1 51.5 27.65 51.85 L27.25 51.65 27.45 51.75 26.55 51.4 25.45 51.25 Q25.05 51.65 26.65 52.1 27.65 52.35 29.2 53.35 28.15 52.7 27.2 52.45 L25.95 52.15 Q24.55 51.05 23.95 51.0 23.5 50.95 23.55 51.15 L24.0 51.5 25.1 52.05 24.55 51.8 23.7 51.55 23.15 51.1 Q22.4 50.8 22.4 50.5 22.4 50.1 22.9 50.15 L22.9 49.85 22.9 49.8 22.1 50.0 21.75 50.0 21.95 50.55 22.65 51.05 23.95 51.75 23.0 51.4 23.7 51.95 22.3 51.1 Q20.85 50.35 20.35 50.35 19.8 50.35 19.85 50.5 L20.4 51.15 Q21.05 51.75 22.85 51.85 L20.1 51.65 18.9 50.7 18.6 50.25 Q18.25 50.1 18.2 50.25 18.1 50.35 18.35 50.7 18.7 51.15 19.85 51.6 19.5 51.7 18.25 50.95 17.55 50.6 17.5 50.1 17.45 49.75 17.75 49.5 L17.75 49.45 Q17.4 48.85 17.8 48.6 L19.15 48.45 Q20.75 48.65 21.9 49.4 L20.55 48.95 18.6 49.0 Q18.35 49.4 19.1 49.55 L20.25 49.5 22.0 49.55 21.6 49.6 Q21.35 49.65 21.85 49.75 L24.0 49.4 23.15 49.75 24.3 49.75 23.75 49.8 23.25 50.0 23.85 50.15 24.75 49.9 25.6 49.4 25.0 49.9 26.0 49.9 28.55 49.15 Q27.55 49.75 26.5 50.0 L25.65 50.25 25.8 50.45 27.5 50.2 27.35 50.3 27.9 49.9 28.4 49.85 29.45 49.55 29.0 49.8 Q28.6 50.05 28.8 50.25 29.1 50.45 30.1 49.85 L29.8 50.1 30.0 49.95 30.45 49.9 31.4 49.75 30.35 50.1 29.8 50.15 30.1 50.55 32.1 50.4 31.5 50.7 32.6 50.8 32.5 50.7 32.25 50.45" fill="#e3ca72" fill-rule="evenodd" stroke="none"/>
      <path d="M39.2 50.35 L39.3 50.5 38.85 50.45 38.75 50.4 38.75 50.3 39.1 50.15 39.55 50.1 39.45 50.0 39.4 49.95 39.6 49.75 40.4 49.5 Q40.15 49.55 39.95 49.75 L39.7 49.9 40.35 50.05 41.2 49.8 40.55 50.15 39.6 50.15 Q39.25 50.15 39.2 50.35" fill="#e3ca72" fill-rule="evenodd" stroke="none"/>
      <path d="M21.2 49.25 L20.05 49.2 Q19.4 49.3 19.5 49.0 L20.35 49.05 21.2 49.25" fill="#fff2cc" fill-rule="evenodd" stroke="none"/>
      <path d="M22.65 51.5 L20.9 51.15 Q20.45 50.95 20.55 50.75 L21.05 50.7 22.65 51.5" fill="#fff2cc" fill-rule="evenodd" stroke="none"/>
      <path d="M25.5 52.0 L24.55 51.65 24.1 51.4 Q24.0 51.3 24.3 51.3 24.65 51.3 25.5 52.0" fill="#fff2cc" fill-rule="evenodd" stroke="none"/>
      <path d="M22.2 50.25 L22.3 50.7 21.95 50.35 Q21.85 50.2 22.0 50.2 L22.2 50.25" fill="#fff2cc" fill-rule="evenodd" stroke="none"/>
      <path d="M24.3 49.9 L24.0 49.95 23.7 49.9 24.0 49.85 24.3 49.9" fill="#fff2cc" fill-rule="evenodd" stroke="none"/>
      <path d="M27.7 52.1 L26.65 51.85 26.15 51.65 Q26.05 51.5 26.35 51.5 26.75 51.5 27.7 52.1" fill="#fff2cc" fill-rule="evenodd" stroke="none"/>
      <path d="M28.5 51.75 L28.1 51.55 28.4 51.3 Q28.8 51.25 30.1 51.9 L28.5 51.75" fill="#fff2cc" fill-rule="evenodd" stroke="none"/>
      <path d="M27.5 49.9 L27.05 50.25 26.65 50.3 Q26.5 50.2 26.7 50.1 L27.5 49.9" fill="#fff2cc" fill-rule="evenodd" stroke="none"/>
      <path d="M30.05 49.5 L29.2 50.05 29.0 49.9 29.2 49.75 30.05 49.5" fill="#fff2cc" fill-rule="evenodd" stroke="none"/>
      <path d="M32.45 49.55 Q30.95 50.6 30.85 50.3 30.75 50.05 31.5 49.95 L32.45 49.55" fill="#fff2cc" fill-rule="evenodd" stroke="none"/>
      <path d="M32.8 52.05 L31.85 51.85 31.35 51.7 Q31.1 51.55 31.3 51.45 31.65 51.3 32.8 52.05" fill="#fff2cc" fill-rule="evenodd" stroke="none"/>
      <path d="M34.7 51.85 L33.55 51.65 33.05 51.5 Q32.8 51.35 33.05 51.25 33.4 51.1 34.7 51.85" fill="#fff2cc" fill-rule="evenodd" stroke="none"/>
      <path d="M34.2 49.75 L33.85 50.2 33.5 50.25 Q33.4 50.15 33.6 50.1 L34.2 49.75" fill="#fff2cc" fill-rule="evenodd" stroke="none"/>
      <path d="M36.25 49.65 Q35.35 50.45 35.05 50.35 34.8 50.3 34.95 50.1 35.1 49.95 35.4 49.9 L36.25 49.65" fill="#fff2cc" fill-rule="evenodd" stroke="none"/>
      <path d="M37.6 49.65 L37.15 49.9 37.4 49.7 37.6 49.65" fill="#fff2cc" fill-rule="evenodd" stroke="none"/>
      <path d="M36.45 51.65 L35.65 51.55 35.2 51.4 35.25 51.3 Q35.55 51.15 36.45 51.65" fill="#fff2cc" fill-rule="evenodd" stroke="none"/>
      <path d="M37.85 51.15 L37.05 51.1 37.45 51.05 37.85 51.15" fill="#fff2cc" fill-rule="evenodd" stroke="none"/>
      <path d="M39.35 50.65 L38.7 50.7 38.4 50.7 38.4 50.6 39.35 50.65" fill="#fff2cc" fill-rule="evenodd" stroke="none"/>
      <path d="M39.05 49.65 L38.85 49.95 38.55 50.0 38.6 49.9 39.05 49.65" fill="#fff2cc" fill-rule="evenodd" stroke="none"/>
      <path d="M36.2 50.7 L36.05 50.95 Q35.95 51.05 35.85 50.85 35.8 50.7 36.0 50.7 L36.2 50.7" fill="#fff2cc" fill-rule="evenodd" stroke="none"/>
      <path d="M40.15 50.3 L39.7 50.35 39.5 50.3 39.85 50.25 40.15 50.3" fill="#fff2cc" fill-rule="evenodd" stroke="none"/>
      <path d="M27.65 47.65 L25.45 47.45 25.4 47.45 Q20.75 47.65 16.25 49.2 12.7 50.45 11.05 51.4 L10.15 52.05 9.6 52.0 Q9.35 51.8 9.4 51.6 L9.55 51.45 11.0 50.75 Q14.95 49.05 18.7 48.2 L25.7 47.15 26.4 47.1 28.15 46.75 27.65 47.65" fill="#d1b262" fill-rule="evenodd" stroke="none"/>
      <path d="M49.75 46.6 L51.35 46.5 49.9 46.85 50.0 46.85 50.6 46.95 51.3 47.05 52.6 46.95 52.5 47.0 51.45 47.25 52.2 47.35 53.1 47.3 52.2 47.55 52.55 47.55 53.15 47.75 53.35 47.85 52.65 47.8 52.0 47.9 52.4 48.05 52.35 48.05 52.05 48.0 51.15 47.9 51.25 48.15 Q51.05 48.0 50.4 47.8 L49.55 47.6 49.75 47.9 49.85 48.25 Q49.6 48.05 48.7 47.75 L48.25 47.65 48.45 48.0 48.6 48.35 48.6 48.4 47.3 47.8 46.15 47.6 46.25 47.75 46.45 48.15 46.45 48.25 Q46.1 47.9 44.95 47.55 L43.9 47.35 44.3 47.9 44.55 48.35 Q44.15 48.05 42.95 47.7 L41.15 47.45 41.7 48.15 41.8 48.2 40.15 47.6 38.8 47.45 38.95 47.55 39.35 48.0 Q38.9 47.7 37.65 47.45 L35.6 47.3 36.15 47.65 36.2 47.65 34.7 47.4 33.8 47.4 34.3 47.6 34.4 47.65 32.6 47.5 32.0 47.65 29.7 48.0 28.25 47.95 27.8 47.8 Q27.55 47.6 27.7 47.45 L27.8 47.4 27.65 47.25 Q27.5 47.1 27.9 46.8 28.15 46.6 28.55 46.5 L30.5 45.9 30.1 46.05 30.35 46.05 33.0 45.8 33.65 45.8 34.6 45.6 36.2 45.15 33.65 46.2 33.95 46.15 35.05 45.9 34.7 46.05 36.1 45.8 38.3 45.1 38.15 45.15 37.5 45.55 37.25 45.7 39.3 45.45 41.55 44.75 41.45 44.85 39.95 45.65 41.1 45.7 42.4 45.65 44.7 45.25 44.6 45.35 43.15 45.85 44.5 45.8 46.8 45.35 46.7 45.4 45.1 46.05 46.5 45.9 48.85 45.45 48.7 45.55 47.9 45.9 47.3 46.15 48.45 46.15 50.45 45.9 50.3 45.9 49.6 46.15 48.7 46.45 49.75 46.6" fill="#fbe494" fill-rule="evenodd" stroke="none"/>
      <path d="M48.55 46.8 L49.25 46.85 48.2 46.8 48.2 46.6 48.3 46.55 48.7 46.45 49.2 46.55 50.1 46.6 49.1 46.65 Q48.4 46.65 48.55 46.8" fill="#e3ca72" fill-rule="evenodd" stroke="none"/>
      <path d="M47.75 46.7 L47.25 46.8 Q47.65 46.85 47.95 47.25 L48.0 47.3 48.35 47.1 49.0 47.15 49.4 47.35 49.75 47.3 49.6 47.3 Q48.95 46.95 49.9 46.85 L51.0 47.05 50.55 47.0 50.05 47.15 50.8 47.3 50.25 47.3 50.9 47.65 49.95 47.45 50.8 47.9 50.0 47.65 49.55 47.6 49.2 47.4 Q48.85 47.25 48.75 47.4 L48.85 47.75 49.05 47.9 48.55 47.7 48.2 47.65 48.1 47.5 Q47.45 47.1 46.95 47.05 L46.25 47.05 Q45.95 47.1 46.1 47.25 46.3 47.45 46.15 47.6 L46.1 47.55 Q45.65 47.2 45.05 47.15 L44.5 47.15 Q44.35 47.2 44.5 47.3 L44.7 47.3 45.15 47.6 43.9 47.35 43.8 47.25 43.7 47.2 43.7 47.15 44.05 46.95 44.3 46.85 44.25 46.85 42.95 46.9 43.55 47.15 41.4 47.0 Q40.95 47.15 40.95 47.25 L41.55 47.3 42.6 47.6 41.15 47.45 40.95 47.3 41.2 47.5 Q40.3 47.0 39.9 47.2 39.65 47.3 40.0 47.5 L40.4 47.65 39.35 47.45 38.8 47.45 38.35 47.1 38.5 47.2 36.75 46.9 36.45 47.05 37.35 47.25 Q38.4 47.5 39.35 47.95 L36.8 47.35 35.65 47.3 36.2 47.65 35.4 47.3 34.45 47.1 33.75 47.2 34.3 47.35 34.9 47.45 33.6 47.4 34.4 47.65 32.15 47.3 Q31.6 47.35 31.9 47.45 L32.25 47.5 30.35 47.45 29.1 47.45 Q28.25 47.5 28.4 47.8 L32.1 47.6 28.85 48.25 27.45 48.1 Q27.05 47.9 27.55 47.45 L27.6 47.4 Q27.4 47.2 27.55 46.95 27.7 46.6 28.6 46.35 L30.5 45.9 Q29.15 46.2 28.6 46.5 L28.3 46.85 28.75 46.9 29.2 46.55 Q29.65 46.2 30.8 45.9 L33.05 45.7 33.85 45.8 30.95 46.25 Q30.25 46.6 30.2 46.75 L30.7 46.85 33.05 46.4 35.1 45.65 35.2 45.6 33.9 46.15 35.0 45.9 33.4 46.4 Q32.9 46.5 32.45 46.75 L32.1 47.1 32.5 47.15 33.35 47.3 33.3 47.3 33.45 47.1 Q32.85 47.1 33.0 46.8 33.05 46.6 33.95 46.4 L34.7 46.05 36.75 45.6 35.0 46.1 Q34.5 46.2 34.4 46.35 L34.8 46.5 37.25 45.7 38.75 45.5 40.8 45.05 38.05 45.8 Q36.2 46.05 36.55 46.35 L38.8 46.05 38.6 46.1 39.0 46.0 38.4 46.45 39.1 46.6 40.45 46.4 42.9 45.85 42.7 45.9 44.05 45.8 Q42.95 45.95 42.5 46.25 41.6 46.65 42.85 46.6 L44.15 46.35 45.1 46.05 46.7 45.9 45.4 46.15 44.35 46.35 43.8 46.75 44.6 46.75 45.15 46.7 45.45 46.6 47.3 46.15 47.65 46.15 48.75 46.15 47.65 46.25 46.9 46.4 46.55 46.65 47.15 46.75 47.75 46.7 M41.8 46.15 L40.5 46.5 Q39.0 46.85 39.9 46.9 L40.35 47.0 41.2 46.8 Q40.75 46.6 41.35 46.35 L41.8 46.15" fill="#e3ca72" fill-rule="evenodd" stroke="none"/>
      <path d="M51.7 47.55 L52.75 47.55 53.35 47.85 52.5 47.65 51.7 47.75 51.95 47.85 52.3 48.05 51.6 47.85 51.4 47.7 51.5 47.65 51.6 47.55 51.15 47.5 50.8 47.4 50.8 47.3 50.95 47.3 51.45 47.25 51.3 47.4 51.7 47.55" fill="#e3ca72" fill-rule="evenodd" stroke="none"/>
      <path d="M31.35 47.65 L30.35 47.8 29.4 47.8 Q29.4 47.6 30.05 47.65 L31.35 47.65" fill="#fff2cc" fill-rule="evenodd" stroke="none"/>
      <path d="M33.55 46.1 L31.55 46.6 31.0 46.55 Q30.95 46.4 31.55 46.25 L33.55 46.1" fill="#fff2cc" fill-rule="evenodd" stroke="none"/>
      <path d="M36.8 45.8 L35.25 46.25 Q34.55 46.25 35.6 46.05 L36.8 45.8" fill="#fff2cc" fill-rule="evenodd" stroke="none"/>
      <path d="M32.7 46.95 L32.45 47.0 32.45 46.85 32.95 46.65 32.7 46.95" fill="#fff2cc" fill-rule="evenodd" stroke="none"/>
      <path d="M39.2 45.8 L37.55 46.15 37.4 46.05 38.0 45.9 39.2 45.8" fill="#fff2cc" fill-rule="evenodd" stroke="none"/>
      <path d="M41.8 46.0 L39.75 46.35 39.45 46.2 40.05 46.05 41.8 46.0" fill="#fff2cc" fill-rule="evenodd" stroke="none"/>
      <path d="M38.4 47.4 L37.6 47.2 Q37.35 47.15 37.55 47.1 L38.0 47.1 Q38.5 47.3 38.4 47.4" fill="#fff2cc" fill-rule="evenodd" stroke="none"/>
      <path d="M41.1 47.8 L40.25 47.55 Q40.0 47.5 40.05 47.45 L40.3 47.3 Q40.6 47.3 41.1 47.8" fill="#fff2cc" fill-rule="evenodd" stroke="none"/>
      <path d="M43.75 47.8 L42.75 47.45 Q42.0 47.35 42.15 47.2 L43.05 47.4 43.75 47.8" fill="#fff2cc" fill-rule="evenodd" stroke="none"/>
      <path d="M44.8 45.95 L42.95 46.35 Q42.5 46.2 43.65 46.05 L44.8 45.95" fill="#fff2cc" fill-rule="evenodd" stroke="none"/>
      <path d="M46.8 46.15 L44.85 46.55 Q44.35 46.4 45.5 46.25 L46.8 46.15" fill="#fff2cc" fill-rule="evenodd" stroke="none"/>
      <path d="M45.65 47.7 L45.1 47.4 Q44.9 47.35 45.05 47.3 L45.4 47.35 Q45.75 47.5 45.65 47.7" fill="#fff2cc" fill-rule="evenodd" stroke="none"/>
      <path d="M47.9 47.8 L47.0 47.6 46.6 47.45 Q46.45 47.3 46.75 47.25 47.15 47.2 47.9 47.8" fill="#fff2cc" fill-rule="evenodd" stroke="none"/>
      <path d="M49.4 47.85 L48.95 47.65 49.2 47.7 49.4 47.85" fill="#fff2cc" fill-rule="evenodd" stroke="none"/>
      <path d="M48.65 46.35 L47.3 46.6 Q46.75 46.45 47.75 46.4 L48.65 46.35" fill="#fff2cc" fill-rule="evenodd" stroke="none"/>
      <path d="M50.05 46.75 L49.6 46.85 49.15 46.75 49.6 46.7 50.05 46.75" fill="#fff2cc" fill-rule="evenodd" stroke="none"/>
      <path d="M51.5 47.15 L50.5 47.2 Q50.4 47.1 50.85 47.1 L51.5 47.15" fill="#fff2cc" fill-rule="evenodd" stroke="none"/>
      <path d="M50.95 47.9 L50.55 47.7 Q50.4 47.65 50.55 47.6 L50.8 47.65 Q51.1 47.8 50.95 47.9" fill="#fff2cc" fill-rule="evenodd" stroke="none"/>
      <path d="M48.15 47.05 L47.9 47.05 Q47.7 47.05 47.8 46.9 48.05 46.65 48.15 47.05" fill="#fff2cc" fill-rule="evenodd" stroke="none"/>
      <path d="M52.3 47.45 L51.6 47.45 51.85 47.4 52.3 47.45" fill="#fff2cc" fill-rule="evenodd" stroke="none"/>
      <path d="M19.7 48.65 L15.55 48.75 Q11.45 48.55 6.9 47.0 L5.25 46.35 5.05 46.15 Q4.9 45.85 5.15 45.45 L5.55 45.1 5.75 45.1 6.85 46.0 Q8.75 47.05 12.75 47.9 L19.05 48.4 22.85 47.8 22.9 47.8 Q24.9 47.3 25.2 46.65 L25.9 48.0 23.95 48.05 23.2 48.15 19.7 48.65" fill="#d1b262" fill-rule="evenodd" stroke="none"/>
      <path d="M12.5 47.95 L20.1 48.4 23.0 47.9 20.8 48.35 16.0 48.6 11.35 47.85 Q8.75 47.3 7.65 46.65 L8.5 46.9 12.5 47.95" fill="#ffebb8" fill-rule="evenodd" stroke="none"/>
      <path d="M52.55 37.85 L52.35 38.05 51.7 38.55 51.4 38.7 52.4 38.8 51.35 39.05 50.65 39.45 51.25 39.45 51.8 39.5 51.95 39.5 50.5 39.85 49.8 40.2 49.15 40.55 49.05 40.6 50.65 40.7 48.9 41.15 Q48.4 41.35 47.85 41.7 L49.85 42.05 47.65 42.3 46.45 42.7 48.0 43.2 48.2 43.25 45.65 43.3 44.1 43.6 44.95 43.85 45.9 44.15 46.05 44.2 43.5 44.25 42.05 44.5 42.7 44.7 43.65 44.95 43.85 45.0 41.3 45.15 39.9 45.55 38.65 45.95 40.4 46.75 40.55 46.85 38.0 46.55 35.8 46.75 36.85 47.35 37.0 47.45 34.5 47.0 33.0 47.0 33.4 47.15 32.15 47.1 31.85 47.1 Q33.4 47.35 34.75 48.0 L33.0 47.8 31.95 47.8 31.25 48.0 28.4 48.5 28.1 48.5 28.5 48.6 26.9 48.45 26.4 48.35 25.65 48.0 Q25.1 47.65 25.25 47.35 L25.4 47.1 25.3 46.95 Q25.1 46.8 25.35 46.35 L25.8 45.95 Q26.4 45.55 27.35 45.45 L29.8 45.3 30.5 45.3 Q31.8 44.85 32.4 44.4 L31.8 45.1 32.7 44.75 34.3 43.8 34.25 43.95 33.9 44.45 33.75 44.65 34.8 44.25 35.85 43.7 Q37.15 42.85 37.6 42.25 L37.6 42.4 37.15 43.35 38.55 42.6 40.15 41.1 40.1 41.25 39.6 42.6 41.55 41.5 43.1 39.9 42.6 41.8 43.65 41.1 45.2 39.5 44.95 40.65 46.1 39.85 47.4 38.45 47.4 38.55 47.15 39.85 47.6 39.55 48.75 38.25 48.75 38.35 48.55 39.5 49.4 38.95 50.25 38.0 50.25 38.1 50.2 38.45 51.1 38.0 51.45 37.85 51.5 37.8 51.1 38.2 51.8 38.1 52.55 37.85" fill="#fbe494" fill-rule="evenodd" stroke="none"/>
      <path d="M49.45 41.0 L48.35 41.35 47.85 41.7 47.4 41.65 Q47.15 41.6 47.3 41.3 47.35 41.15 47.85 41.0 L48.25 40.9 48.05 40.95 Q47.7 41.1 47.65 41.2 L48.2 41.25 49.45 41.0" fill="#e3ca72" fill-rule="evenodd" stroke="none"/>
      <path d="M38.4 43.85 Q37.6 44.25 39.15 44.35 L40.5 44.45 40.05 44.3 39.7 44.0 Q39.6 43.8 39.8 43.6 L38.85 43.55 38.4 43.85 M47.0 40.2 L47.05 39.95 47.4 39.7 48.0 39.2 47.75 39.55 Q47.6 39.95 47.75 40.15 47.95 40.45 48.55 39.5 L49.05 39.25 49.8 38.6 49.0 39.6 49.4 39.45 49.95 39.05 49.4 39.75 49.9 39.6 49.55 39.75 49.15 40.1 50.3 39.95 49.5 40.4 49.05 40.6 Q48.1 40.8 48.7 40.05 L48.8 39.95 48.45 40.0 48.0 40.45 47.4 40.7 46.95 40.55 46.9 40.65 46.25 41.6 46.75 41.6 46.1 41.75 45.55 42.1 45.95 42.4 46.75 42.4 47.95 42.2 46.75 42.6 46.45 42.7 44.0 42.5 43.45 42.55 Q42.55 42.65 42.6 42.9 L43.2 43.35 44.4 43.35 45.85 43.25 44.1 43.6 43.05 43.4 41.55 43.45 Q40.2 43.7 41.25 44.15 L43.0 44.3 41.6 44.6 39.1 44.5 37.6 44.65 Q36.8 44.8 36.85 45.15 L37.55 45.7 37.15 45.65 37.35 45.7 36.2 45.65 34.9 45.95 Q34.75 46.25 35.15 46.35 L36.65 46.4 40.0 46.75 37.4 46.55 35.8 46.75 33.05 46.25 Q32.5 46.4 32.6 46.6 32.7 46.85 33.3 46.85 L35.25 47.1 34.05 46.95 33.0 47.0 32.1 46.75 Q31.15 46.65 31.05 46.35 30.9 45.9 31.5 45.75 31.25 45.55 31.3 45.4 L31.3 45.35 30.45 45.9 30.05 46.05 30.5 46.6 31.6 46.9 33.3 47.15 32.15 47.15 33.2 47.5 31.15 47.1 28.6 46.95 Q27.95 47.2 28.05 47.4 28.15 47.55 28.95 47.9 L32.1 47.75 31.3 48.2 28.85 48.55 Q27.6 48.5 27.05 48.0 L26.5 47.6 Q26.05 47.55 26.05 47.8 L26.45 48.25 28.5 48.6 Q28.15 48.85 26.4 48.6 25.45 48.4 25.2 47.9 25.0 47.5 25.25 47.1 L25.15 47.1 Q24.55 46.55 24.9 46.05 25.25 45.6 26.4 45.35 28.35 44.9 30.0 45.3 L28.2 45.35 Q26.35 45.55 25.95 46.2 25.9 46.75 26.85 46.6 L28.15 46.1 Q28.6 45.75 30.15 45.4 L29.75 45.6 Q29.45 45.8 30.05 45.7 31.0 45.55 32.4 44.4 L31.6 45.15 32.95 44.7 32.3 45.0 31.8 45.45 32.5 45.35 Q33.15 45.1 33.5 44.7 L34.3 43.8 33.8 44.65 34.95 44.15 Q36.05 43.7 37.6 42.3 L35.6 44.1 34.7 44.75 35.05 44.9 Q35.5 45.0 36.8 43.9 L36.7 44.05 37.15 43.35 Q37.45 43.25 37.7 43.1 L38.75 42.4 38.4 42.85 Q38.05 43.25 38.3 43.4 38.8 43.6 39.7 42.45 L39.45 42.8 39.6 42.6 40.1 42.4 41.15 41.8 40.05 42.6 39.45 42.95 39.95 43.25 Q40.85 43.35 42.25 42.25 L41.7 42.85 Q42.4 42.5 43.0 42.5 L43.1 42.5 42.85 42.4 42.4 42.25 42.4 42.1 42.6 41.8 43.1 41.5 43.85 40.95 43.4 41.6 43.2 41.7 Q43.1 41.9 43.25 41.95 L43.85 41.75 44.9 40.8 44.95 40.65 44.95 41.25 Q44.75 41.5 45.05 41.5 L45.85 41.25 47.0 40.2" fill="#e3ca72" fill-rule="evenodd" stroke="none"/>
      <path d="M50.8 38.9 L50.6 38.8 50.55 38.75 Q50.45 38.65 50.65 38.45 L51.35 37.95 51.0 38.3 50.8 38.55 51.7 38.45 52.55 37.85 51.95 38.5 50.85 38.9 Q50.45 39.1 50.45 39.25 L50.65 39.45 50.1 39.5 49.95 39.55 49.9 39.45 50.25 39.15 50.8 38.9" fill="#e3ca72" fill-rule="evenodd" stroke="none"/>
      <path d="M27.75 45.8 L27.05 45.85 Q27.0 45.65 28.05 45.5 L29.1 45.45 27.75 45.8" fill="#fff2cc" fill-rule="evenodd" stroke="none"/>
      <path d="M31.75 47.3 L29.6 47.7 Q28.95 47.65 28.95 47.4 29.0 47.1 29.55 47.1 L31.75 47.3" fill="#fff2cc" fill-rule="evenodd" stroke="none"/>
      <path d="M35.25 46.75 L34.0 46.75 Q32.9 46.7 33.55 46.5 L35.25 46.75" fill="#fff2cc" fill-rule="evenodd" stroke="none"/>
      <path d="M30.7 46.15 L31.0 46.6 30.5 46.4 Q30.3 46.25 30.45 46.15 L30.7 46.15" fill="#fff2cc" fill-rule="evenodd" stroke="none"/>
      <path d="M33.0 44.85 Q32.3 45.35 32.3 45.15 L32.65 44.95 33.0 44.85" fill="#fff2cc" fill-rule="evenodd" stroke="none"/>
      <path d="M37.85 46.0 L36.55 46.15 35.85 46.1 Q35.65 46.0 36.0 45.85 L37.85 46.0" fill="#fff2cc" fill-rule="evenodd" stroke="none"/>
      <path d="M40.55 44.75 L38.65 45.3 38.05 45.2 Q37.95 45.05 38.3 44.85 L40.55 44.75" fill="#fff2cc" fill-rule="evenodd" stroke="none"/>
      <path d="M36.7 43.55 L36.3 44.15 35.85 44.4 Q35.65 44.3 35.85 44.15 L36.7 43.55" fill="#fff2cc" fill-rule="evenodd" stroke="none"/>
      <path d="M39.45 42.05 L38.75 43.0 38.45 43.0 38.65 42.7 39.45 42.05" fill="#fff2cc" fill-rule="evenodd" stroke="none"/>
      <path d="M42.3 41.15 Q41.0 42.95 40.75 42.65 40.55 42.4 41.35 41.95 L42.3 41.15" fill="#fff2cc" fill-rule="evenodd" stroke="none"/>
      <path d="M43.8 43.8 L42.5 44.0 41.9 44.05 Q41.55 43.95 41.75 43.8 L42.85 43.7 43.8 43.8" fill="#fff2cc" fill-rule="evenodd" stroke="none"/>
      <path d="M45.9 42.85 L44.45 43.1 43.75 43.1 Q43.45 43.0 43.65 42.8 L44.9 42.7 45.9 42.85" fill="#fff2cc" fill-rule="evenodd" stroke="none"/>
      <path d="M44.35 40.65 L44.2 41.3 Q43.95 41.6 43.8 41.5 43.65 41.45 43.85 41.3 L44.35 40.65" fill="#fff2cc" fill-rule="evenodd" stroke="none"/>
      <path d="M46.75 39.75 Q46.05 41.0 45.6 41.0 L45.4 40.75 Q45.55 40.45 45.85 40.3 L46.75 39.75" fill="#fff2cc" fill-rule="evenodd" stroke="none"/>
      <path d="M48.35 39.15 L47.9 39.65 48.1 39.3 48.35 39.15" fill="#fff2cc" fill-rule="evenodd" stroke="none"/>
      <path d="M47.8 41.9 L46.8 42.15 Q45.9 42.3 46.3 41.95 L47.15 41.85 47.8 41.9" fill="#fff2cc" fill-rule="evenodd" stroke="none"/>
      <path d="M49.2 40.75 Q48.35 41.3 48.3 41.0 48.25 40.9 48.7 40.8 L49.2 40.75" fill="#fff2cc" fill-rule="evenodd" stroke="none"/>
      <path d="M50.75 39.6 L50.05 39.85 49.7 40.0 49.6 39.9 50.2 39.65 50.75 39.6" fill="#fff2cc" fill-rule="evenodd" stroke="none"/>
      <path d="M50.0 38.55 L49.85 39.0 49.6 39.15 Q49.45 39.15 49.6 39.0 L50.0 38.55" fill="#fff2cc" fill-rule="evenodd" stroke="none"/>
      <path d="M47.15 40.9 Q47.15 41.6 46.8 41.25 46.7 41.05 46.9 40.95 L47.15 40.9" fill="#fff2cc" fill-rule="evenodd" stroke="none"/>
      <path d="M51.5 38.85 L51.05 39.05 50.8 39.1 Q50.8 39.0 51.15 38.9 L51.5 38.85" fill="#fff2cc" fill-rule="evenodd" stroke="none"/>
      <path d="M52.0 38.15 L51.3 38.45 51.25 38.35 51.5 38.3 52.0 38.15" fill="#fff2cc" fill-rule="evenodd" stroke="none"/>
    </g>
  </defs>
</svg>
