<?xml version="1.0" encoding="UTF-8" standalone="no"?>
<svg xmlns:xlink="http://www.w3.org/1999/xlink" height="49.55px" width="39.3px" xmlns="http://www.w3.org/2000/svg">
  <g transform="matrix(1.0, 0.0, 0.0, 1.0, 0.0, 0.0)">
    <use height="41.65" transform="matrix(1.0, 0.0, 0.0, 1.0, 2.3, 7.9)" width="37.0" xlink:href="#shape0"/>
    <use height="9.2" transform="matrix(1.0, 0.0, 0.0, 1.0, 8.95, 19.35)" width="21.65" xlink:href="#sprite0"/>
    <use height="29.1" transform="matrix(1.0, 0.0, 0.0, 1.0, 0.0, 0.0)" width="30.6" xlink:href="#shape2"/>
    <use height="16.25" transform="matrix(1.0, 0.0, 0.0, 1.0, 8.95, 12.85)" width="21.65" xlink:href="#sprite1"/>
  </g>
  <defs>
    <g id="shape0" transform="matrix(1.0, 0.0, 0.0, 1.0, -2.3, -7.9)">
      <path d="M30.4 20.05 Q29.7 20.4 29.25 19.8 28.85 19.15 29.5 18.7 L35.15 14.95 Q35.85 14.5 36.3 15.2 L36.4 15.8 36.05 16.25 30.4 20.05" fill="#161002" fill-rule="evenodd" stroke="none"/>
      <path d="M38.15 16.55 L36.4 16.8 Q35.5 16.6 34.95 15.85 34.45 15.05 34.65 14.15 34.85 13.25 35.7 12.75 36.55 12.25 37.45 12.45 38.4 12.65 38.9 13.45 39.45 14.25 39.2 15.15 39.0 16.05 38.15 16.55" fill="#786f69" fill-rule="evenodd" stroke="none"/>
      <path d="M37.65 15.7 L36.65 15.9 Q36.1 15.75 35.8 15.3 35.5 14.9 35.65 14.35 35.75 13.85 36.2 13.55 L37.2 13.4 Q37.75 13.5 38.05 13.95 38.35 14.4 38.25 14.9 L37.65 15.7" fill="#483629" fill-rule="evenodd" stroke="none"/>
      <path d="M7.15 10.75 L12.95 17.85 Q13.25 18.2 13.2 18.65 L12.75 19.35 11.9 19.6 Q11.45 19.55 11.15 19.2 L5.35 12.15 Q5.05 11.8 5.1 11.3 5.15 10.85 5.55 10.6 5.9 10.3 6.4 10.35 6.85 10.4 7.15 10.75" fill="#161002" fill-rule="evenodd" stroke="none"/>
      <path d="M8.0 9.05 Q8.85 10.05 8.7 11.3 8.55 12.6 7.5 13.4 6.45 14.2 5.15 14.05 3.85 13.9 3.0 12.9 2.15 11.9 2.3 10.65 2.45 9.35 3.5 8.55 4.55 7.75 5.85 7.9 7.15 8.05 8.0 9.05" fill="#786f69" fill-rule="evenodd" stroke="none"/>
      <path d="M6.95 9.9 Q7.4 10.45 7.35 11.2 7.25 11.9 6.65 12.35 6.05 12.8 5.3 12.75 4.55 12.65 4.05 12.05 3.6 11.5 3.7 10.75 3.75 10.05 4.35 9.6 4.95 9.15 5.7 9.25 6.45 9.3 6.95 9.9" fill="#483629" fill-rule="evenodd" stroke="none"/>
      <path d="M30.35 12.85 L31.1 13.05 31.5 13.7 31.3 14.45 29.3 16.9 Q29.05 17.25 28.6 17.3 L27.85 17.1 Q27.5 16.85 27.45 16.4 27.4 16.0 27.65 15.7 L29.65 13.25 Q29.9 12.9 30.35 12.85" fill="#161002" fill-rule="evenodd" stroke="none"/>
      <path d="M33.05 14.8 Q32.3 15.75 31.1 15.9 29.9 16.0 28.95 15.3 28.0 14.6 27.85 13.45 27.7 12.3 28.45 11.35 29.2 10.45 30.4 10.3 31.6 10.15 32.55 10.85 33.5 11.55 33.65 12.75 33.8 13.9 33.05 14.8" fill="#786f69" fill-rule="evenodd" stroke="none"/>
      <path d="M32.05 14.05 Q31.65 14.6 30.95 14.65 30.25 14.75 29.7 14.35 29.15 13.95 29.1 13.3 29.0 12.6 29.45 12.1 29.85 11.6 30.55 11.5 31.25 11.4 31.8 11.8 32.35 12.2 32.4 12.85 32.5 13.55 32.05 14.05" fill="#483629" fill-rule="evenodd" stroke="none"/>
      <path d="M23.3 48.0 Q23.35 48.6 22.9 49.05 22.5 49.5 21.9 49.55 L20.8 49.2 Q20.35 48.8 20.3 48.2 L18.55 20.8 Q18.5 20.2 18.95 19.75 19.35 19.3 20.0 19.25 20.6 19.2 21.05 19.6 21.5 20.0 21.55 20.6 L23.3 48.0" fill="#161002" fill-rule="evenodd" stroke="none"/>
      <path d="M19.1 28.0 L21.85 27.45 Q25.2 27.2 28.3 28.5 31.85 30.05 30.6 32.65 29.3 35.3 26.45 34.05 23.15 32.6 20.8 30.15 L19.1 28.0" fill="#444034" fill-rule="evenodd" stroke="none"/>
      <path d="M21.0 28.65 L22.9 28.25 Q25.3 28.05 27.5 29.0 30.0 30.05 29.1 31.95 28.15 33.8 26.2 32.9 23.9 31.85 22.2 30.15 L21.0 28.65" fill="#6f6b62" fill-rule="evenodd" stroke="none"/>
      <path d="M21.2 27.9 L19.8 30.25 Q17.75 32.95 14.65 34.8 12.0 36.4 10.4 33.95 8.75 31.45 12.1 29.5 15.05 27.8 18.4 27.7 L21.2 27.9" fill="#444034" fill-rule="evenodd" stroke="none"/>
      <path d="M19.4 28.75 L18.4 30.4 Q16.95 32.3 14.8 33.6 12.9 34.7 11.8 33.0 10.65 31.25 13.0 29.9 15.05 28.7 17.45 28.6 L19.4 28.75" fill="#6f6b62" fill-rule="evenodd" stroke="none"/>
      <path d="M20.75 24.9 L22.25 27.2 Q23.8 30.15 24.1 33.6 24.35 36.6 21.3 36.85 18.25 37.1 18.05 33.35 17.85 30.1 19.25 27.2 L20.75 24.9" fill="#444034" fill-rule="evenodd" stroke="none"/>
      <path d="M20.7 26.85 L21.75 28.45 Q22.85 30.55 23.05 32.95 23.2 35.05 21.1 35.2 18.95 35.4 18.8 32.8 18.65 30.5 19.65 28.45 L20.7 26.85" fill="#6f6b62" fill-rule="evenodd" stroke="none"/>
      <path d="M19.3 12.9 Q23.65 12.65 26.9 14.7 30.15 16.7 30.6 19.9 26.05 22.15 19.9 22.5 13.8 22.85 8.95 21.25 9.0 18.0 11.95 15.6 14.95 13.2 19.3 12.9" fill="#635449" fill-rule="evenodd" stroke="none"/>
    </g>
    <g id="sprite0" transform="matrix(1.0, 0.0, 0.0, 1.0, 0.0, 0.0)">
      <use height="9.2" transform="matrix(1.0, 0.0, 0.0, 1.0, 0.0, 0.0)" width="21.65" xlink:href="#shape1"/>
    </g>
    <g id="shape1" transform="matrix(1.0, 0.0, 0.0, 1.0, 0.0, 0.0)">
      <path d="M0.0 1.35 Q4.75 3.05 10.9 2.6 17.05 2.25 21.6 0.0 L21.65 0.45 Q21.85 3.8 18.8 6.35 15.8 8.9 11.3 9.15 6.85 9.45 3.5 7.25 0.2 5.1 0.0 1.75 L0.0 1.35" fill="#1a1a1a" fill-rule="evenodd" stroke="none"/>
    </g>
    <g id="shape2" transform="matrix(1.0, 0.0, 0.0, 1.0, 0.0, 0.0)">
      <path d="M8.95 21.25 Q13.8 22.85 19.9 22.5 26.05 22.15 30.6 19.9 L30.6 20.3 Q30.85 23.65 27.8 26.2 24.8 28.8 20.3 29.05 15.85 29.35 12.5 27.15 9.2 25.0 9.0 21.65 L8.95 21.25" fill="#483629" fill-rule="evenodd" stroke="none"/>
      <path d="M26.05 9.85 L24.75 14.15 Q24.6 14.75 24.05 15.05 L22.9 15.2 22.0 14.5 Q21.7 14.0 21.9 13.4 L23.15 9.1 Q23.3 8.5 23.85 8.2 L25.0 8.05 Q25.6 8.2 25.9 8.75 26.2 9.25 26.05 9.85" fill="#161002" fill-rule="evenodd" stroke="none"/>
      <path d="M29.05 8.8 Q28.55 10.4 27.05 11.25 25.5 12.1 23.8 11.65 22.1 11.2 21.25 9.75 20.35 8.3 20.85 6.65 21.3 5.05 22.85 4.2 24.35 3.35 26.05 3.8 27.75 4.25 28.65 5.7 29.5 7.2 29.05 8.8" fill="#786f69" fill-rule="evenodd" stroke="none"/>
      <path d="M27.25 8.35 Q27.0 9.3 26.15 9.75 L24.3 10.0 Q23.35 9.75 22.85 8.9 22.35 8.05 22.6 7.15 22.85 6.2 23.75 5.75 24.65 5.25 25.6 5.5 26.55 5.75 27.05 6.6 27.55 7.45 27.25 8.35" fill="#483629" fill-rule="evenodd" stroke="none"/>
      <path d="M17.45 3.75 L19.85 13.75 Q19.95 14.2 19.65 14.6 L18.9 15.05 18.0 14.85 Q17.6 14.6 17.5 14.15 L15.15 4.15 Q15.1 3.7 15.35 3.3 L16.1 2.85 17.0 3.0 17.45 3.75" fill="#161002" fill-rule="evenodd" stroke="none"/>
      <path d="M19.15 2.55 Q19.4 3.85 18.6 4.95 17.8 6.05 16.45 6.3 15.1 6.55 13.95 5.8 12.8 5.05 12.6 3.75 12.35 2.45 13.1 1.35 13.9 0.3 15.25 0.05 16.6 -0.2 17.75 0.55 18.9 1.25 19.15 2.55" fill="#786f69" fill-rule="evenodd" stroke="none"/>
      <path d="M17.75 2.85 Q17.85 3.55 17.45 4.2 L16.2 4.95 14.75 4.7 Q14.1 4.25 14.0 3.5 13.85 2.75 14.3 2.15 14.75 1.5 15.5 1.35 16.3 1.25 16.95 1.65 17.6 2.1 17.75 2.85" fill="#483629" fill-rule="evenodd" stroke="none"/>
      <path d="M14.2 11.8 L15.35 14.05 15.4 14.7 14.95 15.15 Q14.25 15.5 13.8 14.8 L12.65 12.5 12.6 11.9 13.05 11.4 Q13.35 11.25 13.7 11.4 L14.2 11.8" fill="#161002" fill-rule="evenodd" stroke="none"/>
      <path d="M15.1 10.65 Q15.55 11.5 15.25 12.45 14.9 13.35 14.0 13.75 L12.15 13.85 Q11.2 13.55 10.8 12.7 10.35 11.85 10.7 10.95 11.0 10.05 11.9 9.6 L13.75 9.5 Q14.65 9.8 15.1 10.65" fill="#786f69" fill-rule="evenodd" stroke="none"/>
      <path d="M14.2 11.1 Q14.45 11.6 14.25 12.1 14.05 12.65 13.55 12.85 L12.5 12.95 11.7 12.25 Q11.45 11.75 11.65 11.25 11.85 10.75 12.35 10.5 L13.4 10.45 14.2 11.1" fill="#483629" fill-rule="evenodd" stroke="none"/>
      <path d="M4.25 17.3 L10.55 19.85 11.0 20.3 10.95 20.9 10.5 21.3 9.85 21.25 3.55 18.75 3.15 18.3 Q3.0 17.95 3.15 17.65 L3.65 17.25 4.25 17.3" fill="#161002" fill-rule="evenodd" stroke="none"/>
      <path d="M3.35 15.45 Q4.25 15.8 4.55 16.7 4.85 17.55 4.45 18.4 4.05 19.25 3.15 19.55 L1.35 19.45 Q0.5 19.1 0.15 18.2 -0.15 17.35 0.25 16.5 0.65 15.65 1.6 15.35 L3.35 15.45" fill="#786f69" fill-rule="evenodd" stroke="none"/>
      <path d="M2.95 16.3 L3.6 17.0 3.55 18.0 2.8 18.65 1.8 18.6 Q1.3 18.4 1.1 17.9 0.9 17.4 1.15 16.9 1.4 16.4 1.9 16.25 L2.95 16.3" fill="#483629" fill-rule="evenodd" stroke="none"/>
    </g>
    <g id="sprite1" transform="matrix(1.0, 0.0, 0.0, 1.0, 0.0, 0.05)">
      <use height="16.25" transform="matrix(1.0, 0.0, 0.0, 1.0, 0.0, -0.05)" width="21.65" xlink:href="#shape3"/>
    </g>
    <g id="shape3" transform="matrix(1.0, 0.0, 0.0, 1.0, 0.0, 0.05)">
      <path d="M21.65 7.0 L21.65 7.4 Q21.9 10.75 18.85 13.3 15.85 15.9 11.35 16.15 6.9 16.45 3.55 14.25 0.25 12.1 0.05 8.75 L0.0 8.35 Q0.05 5.1 3.0 2.7 6.0 0.3 10.35 0.0 14.7 -0.25 17.95 1.8 21.2 3.8 21.65 7.0" fill="url(#gradient0)" fill-rule="evenodd" stroke="none"/>
      <path d="M21.65 7.0 L21.65 7.4 Q21.9 10.75 18.85 13.3 15.85 15.9 11.35 16.15 6.9 16.45 3.55 14.25 0.25 12.1 0.05 8.75 L0.0 8.35 Q0.05 5.1 3.0 2.7 6.0 0.3 10.35 0.0 14.7 -0.25 17.95 1.8 21.2 3.8 21.65 7.0" fill="url(#gradient1)" fill-rule="evenodd" stroke="none"/>
    </g>
    <linearGradient gradientTransform="matrix(0.0131, -0.0017, -0.0017, -0.0131, 10.85, 8.1)" gradientUnits="userSpaceOnUse" id="gradient0" spreadMethod="pad" x1="-819.2" x2="819.2">
      <stop offset="0.0" stop-color="#43362e"/>
      <stop offset="0.027450980392156862" stop-color="#50443d"/>
      <stop offset="0.1411764705882353" stop-color="#857c77"/>
      <stop offset="0.25098039215686274" stop-color="#b1aba8"/>
      <stop offset="0.35294117647058826" stop-color="#d3d0ce"/>
      <stop offset="0.4470588235294118" stop-color="#ebeae9"/>
      <stop offset="0.5294117647058824" stop-color="#faf9f9"/>
      <stop offset="0.596078431372549" stop-color="#ffffff"/>
      <stop offset="0.6352941176470588" stop-color="#f9f9f8"/>
      <stop offset="0.6901960784313725" stop-color="#e8e7e6"/>
      <stop offset="0.7568627450980392" stop-color="#cdc9c7"/>
      <stop offset="0.8274509803921568" stop-color="#a7a19d"/>
      <stop offset="0.9058823529411765" stop-color="#766c67"/>
      <stop offset="0.9058823529411765" stop-color="#766c67" stop-opacity="0.0"/>
      <stop offset="1.0" stop-color="#000000" stop-opacity="0.0"/>
    </linearGradient>
    <linearGradient gradientTransform="matrix(0.0131, -0.0017, -0.0017, -0.0131, 10.85, 8.1)" gradientUnits="userSpaceOnUse" id="gradient1" spreadMethod="pad" x1="-819.2" x2="819.2">
      <stop offset="0.0" stop-color="#000000" stop-opacity="0.0"/>
      <stop offset="0.9058823529411765" stop-color="#766c67" stop-opacity="0.0"/>
      <stop offset="0.9058823529411765" stop-color="#766c67"/>
      <stop offset="0.9882352941176471" stop-color="#3b2d25"/>
      <stop offset="1.0" stop-color="#33251c"/>
    </linearGradient>
  </defs>
</svg>
