<?xml version="1.0" encoding="UTF-8" standalone="no"?>
<svg xmlns:xlink="http://www.w3.org/1999/xlink" height="93.55px" width="91.0px" xmlns="http://www.w3.org/2000/svg">
  <g transform="matrix(1.0, 0.0, 0.0, 1.0, 0.0, 0.0)">
    <use height="18.85" transform="matrix(1.0, 0.0, 0.0, 1.0, 9.4, 77.9)" width="74.65" xlink:href="#shape0"/>
  </g>
  <defs>
    <g id="shape0" transform="matrix(1.0, 0.0, 0.0, 1.0, -9.4, -77.9)">
      <path d="M78.5 85.5 L81.1 85.5 82.5 85.25 82.65 85.15 82.7 85.2 Q80.5 86.0 76.95 85.25 L76.55 85.15 76.8 85.2 78.5 85.5 M84.0 85.7 L83.95 85.6 83.95 85.55 83.95 85.5 83.3 84.3 Q82.9 83.6 79.7 80.85 L76.6 78.2 74.9 78.25 Q73.1 78.4 72.3 79.05 L70.05 81.75 70.05 81.65 Q70.45 80.35 71.95 79.0 73.05 78.05 75.0 77.9 L76.7 78.0 79.75 80.65 Q82.9 83.45 83.3 84.15 L83.9 85.4 83.95 85.5 84.0 85.7 M70.65 83.6 Q71.8 85.0 74.65 85.9 L75.0 86.0 74.45 85.85 Q71.7 84.95 70.65 83.6 M73.85 83.9 L74.3 84.2 74.8 84.5 73.85 83.9" fill="url(#gradient0)" fill-rule="evenodd" stroke="none"/>
      <path d="M76.55 85.15 L76.95 85.25 Q80.5 86.0 82.7 85.2 L82.65 85.15 80.25 82.6 76.45 79.0 Q74.95 78.95 73.8 79.8 72.9 80.45 72.55 81.25 L72.25 82.1 72.3 82.15 73.25 83.4 73.6 83.7 73.85 83.9 74.8 84.5 74.9 84.55 76.15 85.05 76.3 85.1 76.55 85.15 M83.95 85.55 L84.0 85.95 84.0 86.05 Q82.85 86.95 80.4 86.95 78.05 86.95 75.3 86.1 L75.0 86.0 74.65 85.9 Q71.8 85.0 70.65 83.6 69.95 82.8 69.95 82.0 L69.95 81.9 69.95 81.85 70.05 81.75 72.3 79.05 Q73.1 78.4 74.9 78.25 L76.6 78.2 79.7 80.85 Q82.9 83.6 83.3 84.3 L83.95 85.5 83.95 85.55" fill="url(#gradient1)" fill-rule="evenodd" stroke="none"/>
      <path d="M82.5 85.25 L76.45 79.05 76.25 79.05 Q74.85 79.05 73.8 79.85 72.9 80.55 72.55 81.4 L72.3 82.15 72.25 82.1 72.55 81.25 Q72.9 80.45 73.8 79.8 74.95 78.95 76.45 79.0 L80.25 82.6 82.65 85.15 82.5 85.25 M84.0 86.05 L84.0 86.3 Q82.9 87.25 80.4 87.25 77.75 87.25 74.65 86.2 72.5 85.5 71.3 84.45 L70.65 83.8 Q69.9 82.9 69.95 82.0 69.95 82.8 70.65 83.6 71.7 84.95 74.45 85.85 L75.0 86.0 75.3 86.1 Q78.05 86.95 80.4 86.95 82.85 86.95 84.0 86.05" fill="url(#gradient2)" fill-rule="evenodd" stroke="none"/>
      <path d="M82.5 85.25 L81.1 85.5 78.5 85.5 76.25 82.85 76.0 82.9 76.2 82.85 76.25 79.05 76.45 79.05 82.5 85.25" fill="url(#gradient3)" fill-rule="evenodd" stroke="none"/>
      <path d="M84.0 86.05 L84.0 85.95 83.95 85.55 83.95 85.6 84.0 85.7 84.05 86.85 83.85 89.2 Q83.65 90.8 83.3 90.9 L80.35 91.25 Q77.6 91.35 75.9 90.65 L72.75 88.95 71.5 88.15 71.4 88.15 71.8 86.7 Q71.95 86.0 71.55 85.0 L71.3 84.45 Q72.5 85.5 74.65 86.2 77.75 87.25 80.4 87.25 82.9 87.25 84.0 86.3 L84.0 86.05" fill="url(#gradient4)" fill-rule="evenodd" stroke="none"/>
      <path d="M40.9 91.6 L40.55 93.3 Q40.05 94.6 36.0 94.9 L26.6 94.5 Q22.15 93.95 15.3 90.6 L9.4 87.35 13.05 84.85 Q17.25 82.2 20.3 81.3 23.3 80.45 28.6 80.05 L33.25 79.8 35.8 83.45 35.8 83.5 35.85 83.7 35.8 83.6 35.75 83.6 35.5 83.65 30.95 84.5 Q26.7 85.35 25.25 85.9 L23.0 86.75 28.65 86.5 31.2 86.2 33.65 85.65 36.05 85.2 36.4 86.25 27.0 87.05 24.25 87.35 24.0 87.25 23.25 87.45 21.05 87.65 21.75 87.95 21.65 88.0 21.15 88.3 Q20.85 88.6 21.15 88.9 L21.2 88.95 21.25 88.95 21.35 89.0 26.1 89.7 26.9 89.75 32.25 90.45 39.7 90.05 40.5 91.15 40.9 91.6" fill="url(#gradient5)" fill-rule="evenodd" stroke="none"/>
      <path d="M9.4 87.35 L15.3 90.6 Q22.15 93.95 26.6 94.5 L36.0 94.9 Q40.05 94.6 40.55 93.3 L40.9 91.6 42.8 94.05 42.9 94.3 42.75 94.5 41.25 95.0 40.8 95.1 32.3 95.6 Q23.6 95.5 15.65 91.4 L9.4 87.35" fill="url(#gradient6)" fill-rule="evenodd" stroke="none"/>
      <path d="M9.4 87.35 L15.65 91.4 Q23.6 95.5 32.3 95.6 L40.8 95.1 41.25 95.0 42.75 94.5 42.9 94.3 42.8 95.2 Q42.6 96.1 42.2 96.3 40.6 97.2 30.1 96.35 21.65 95.7 14.65 91.45 L9.4 87.35" fill="url(#gradient7)" fill-rule="evenodd" stroke="none"/>
      <path d="M36.05 85.2 L33.65 85.65 31.2 86.2 28.65 86.5 23.0 86.75 25.25 85.9 Q26.7 85.35 30.95 84.5 L35.5 83.65 35.75 83.6 35.8 83.6 35.85 83.7 35.85 83.75 35.9 83.8 47.4 83.8 47.7 84.05 48.3 85.25 47.55 85.3 46.9 85.4 43.5 84.9 37.65 85.25 36.05 85.2" fill="url(#gradient8)" fill-rule="evenodd" stroke="none"/>
      <path d="M36.4 86.25 L36.05 85.2 37.65 85.25 43.5 84.9 46.9 85.4 47.55 85.3 48.3 85.25 47.7 84.05 47.4 83.8 48.05 84.4 Q48.45 85.15 48.65 86.85 L48.45 85.75 47.8 86.05 47.75 86.05 47.75 86.1 43.4 86.5 37.15 86.5 36.9 86.2 36.4 86.25" fill="url(#gradient9)" fill-rule="evenodd" stroke="none"/>
      <path d="M39.7 90.05 L32.25 90.45 26.9 89.75 27.1 89.75 33.5 89.9 38.9 89.6 38.85 89.5 39.3 89.45 39.35 89.55 39.7 90.05 M21.75 87.95 L21.05 87.65 23.25 87.45 22.2 87.75 21.75 87.95 M24.25 87.35 L27.0 87.05 36.4 86.25 36.9 86.2 37.15 86.5 36.7 86.5 36.55 86.5 32.9 86.75 Q28.5 87.9 26.75 87.75 L24.7 87.45 24.25 87.35" fill="url(#gradient10)" fill-rule="evenodd" stroke="none"/>
      <path d="M21.65 88.0 L21.75 87.95 22.2 87.75 23.25 87.45 24.0 87.25 24.25 87.35 24.7 87.45 26.75 87.75 Q28.5 87.9 32.9 86.75 L36.55 86.5 36.7 86.5 37.15 86.5 43.4 86.5 47.75 86.1 Q47.95 86.55 46.45 87.4 44.9 88.25 43.9 88.15 L39.7 88.25 37.7 88.4 35.75 88.5 31.35 88.75 Q27.6 88.9 26.5 88.65 L21.65 88.0 M47.9 88.8 L48.5 88.25 Q47.95 88.25 48.15 87.65 48.3 87.0 47.8 86.05 L48.45 85.75 48.65 86.85 48.6 88.15 48.05 88.8 47.9 88.8" fill="url(#gradient11)" fill-rule="evenodd" stroke="none"/>
      <path d="M26.9 89.75 L26.1 89.7 21.35 89.0 21.25 88.95 21.2 88.95 21.15 88.9 Q20.85 88.6 21.15 88.3 L21.65 88.0 26.5 88.65 Q27.6 88.9 31.35 88.75 L35.75 88.5 37.7 88.4 39.7 88.25 43.9 88.15 Q44.9 88.25 46.45 87.4 47.95 86.55 47.75 86.1 L47.75 86.05 47.8 86.05 Q48.3 87.0 48.15 87.65 47.95 88.25 48.5 88.25 L47.9 88.8 39.9 89.35 39.75 89.4 39.3 89.45 38.85 89.5 38.9 89.6 33.5 89.9 27.1 89.75 26.9 89.75" fill="url(#gradient12)" fill-rule="evenodd" stroke="none"/>
      <path d="M48.05 84.4 L48.35 84.4 49.1 85.05 Q49.6 85.7 49.7 87.05 49.9 87.6 50.25 87.85 L50.85 88.05 49.95 88.1 48.6 88.15 48.65 86.85 Q48.45 85.15 48.05 84.4" fill="url(#gradient13)" fill-rule="evenodd" stroke="none"/>
      <path d="M48.35 84.4 L57.7 83.95 61.15 83.75 61.55 84.5 61.9 86.0 61.65 87.3 61.35 87.9 62.3 87.9 51.65 88.05 49.95 88.1 50.85 88.05 50.25 87.85 Q49.9 87.6 49.7 87.05 49.6 85.7 49.1 85.05 L48.35 84.4" fill="url(#gradient14)" fill-rule="evenodd" stroke="none"/>
      <path d="M76.25 79.05 L76.2 82.85 76.0 82.9 Q74.95 83.15 74.3 84.2 L73.85 83.9 73.6 83.7 73.25 83.4 72.3 82.15 72.55 81.4 Q72.9 80.55 73.8 79.85 74.85 79.05 76.25 79.05" fill="url(#gradient15)" fill-rule="evenodd" stroke="none"/>
      <path d="M71.3 84.45 L71.55 85.0 Q71.95 86.0 71.8 86.7 L71.4 88.15 66.85 88.15 62.45 88.0 63.3 87.0 63.25 85.25 63.05 84.35 Q62.7 83.75 61.9 83.45 L61.45 83.55 65.75 82.7 69.25 82.15 69.75 82.15 69.95 81.9 69.95 82.0 Q69.9 82.9 70.65 83.8 L71.3 84.45" fill="url(#gradient16)" fill-rule="evenodd" stroke="none"/>
      <path d="M61.15 83.75 L61.1 83.7 61.6 83.7 61.65 83.75 Q62.5 84.45 62.65 85.65 62.85 86.8 62.3 87.75 L62.3 87.9 61.35 87.9 61.65 87.3 61.9 86.0 61.55 84.5 61.15 83.75" fill="url(#gradient17)" fill-rule="evenodd" stroke="none"/>
      <path d="M61.6 83.7 L61.45 83.55 61.9 83.45 Q62.7 83.75 63.05 84.35 L63.25 85.25 63.3 87.0 62.45 88.0 62.25 87.95 62.3 87.9 62.3 87.75 Q62.85 86.8 62.65 85.65 62.5 84.45 61.65 83.75 L61.6 83.7" fill="url(#gradient18)" fill-rule="evenodd" stroke="none"/>
    </g>
    <linearGradient gradientTransform="matrix(0.0047, 0.0045, 0.0045, -0.0047, 75.8, 82.7)" gradientUnits="userSpaceOnUse" id="gradient0" spreadMethod="pad" x1="-819.2" x2="819.2">
      <stop offset="0.0" stop-color="#839499"/>
      <stop offset="1.0" stop-color="#5b6469"/>
    </linearGradient>
    <linearGradient gradientTransform="matrix(7.0E-4, 0.0055, 0.0055, -7.0E-4, 76.75, 82.0)" gradientUnits="userSpaceOnUse" id="gradient1" spreadMethod="pad" x1="-819.2" x2="819.2">
      <stop offset="0.0" stop-color="#2f3436"/>
      <stop offset="0.24705882352941178" stop-color="#5b6469"/>
      <stop offset="1.0" stop-color="#2e3336"/>
    </linearGradient>
    <linearGradient gradientTransform="matrix(7.0E-4, 0.0057, 0.0057, -7.0E-4, 76.7, 82.1)" gradientUnits="userSpaceOnUse" id="gradient2" spreadMethod="pad" x1="-819.2" x2="819.2">
      <stop offset="0.0" stop-color="#2f3436"/>
      <stop offset="0.24705882352941178" stop-color="#5b6469"/>
      <stop offset="1.0" stop-color="#606c70"/>
    </linearGradient>
    <linearGradient gradientTransform="matrix(7.0E-4, 0.0058, 0.0058, -7.0E-4, 76.8, 82.55)" gradientUnits="userSpaceOnUse" id="gradient3" spreadMethod="pad" x1="-819.2" x2="819.2">
      <stop offset="0.0" stop-color="#43494d"/>
      <stop offset="1.0" stop-color="#1f2324"/>
    </linearGradient>
    <linearGradient gradientTransform="matrix(0.0066, 0.0011, 0.0011, -0.0066, 77.3, 84.7)" gradientUnits="userSpaceOnUse" id="gradient4" spreadMethod="pad" x1="-819.2" x2="819.2">
      <stop offset="0.10980392156862745" stop-color="#151617"/>
      <stop offset="0.5098039215686274" stop-color="#3e4547"/>
      <stop offset="1.0" stop-color="#181b1c"/>
    </linearGradient>
    <linearGradient gradientTransform="matrix(-0.0023, -0.0083, -0.0071, 0.0019, 26.0, 90.3)" gradientUnits="userSpaceOnUse" id="gradient5" spreadMethod="pad" x1="-819.2" x2="819.2">
      <stop offset="0.0" stop-color="#2f3436"/>
      <stop offset="1.0" stop-color="#1f2324"/>
    </linearGradient>
    <linearGradient gradientTransform="matrix(-0.002, -0.0087, -0.0088, 8.0E-4, 26.6, 95.35)" gradientUnits="userSpaceOnUse" id="gradient6" spreadMethod="pad" x1="-819.2" x2="819.2">
      <stop offset="0.0" stop-color="#636c70"/>
      <stop offset="1.0" stop-color="#1f2324"/>
    </linearGradient>
    <linearGradient gradientTransform="matrix(-0.002, -0.0085, -0.0074, 0.002, 26.25, 91.1)" gradientUnits="userSpaceOnUse" id="gradient7" spreadMethod="pad" x1="-819.2" x2="819.2">
      <stop offset="0.0" stop-color="#181b1c"/>
      <stop offset="1.0" stop-color="#1f2324"/>
    </linearGradient>
    <linearGradient gradientTransform="matrix(-4.0E-4, -0.0023, -0.0023, 4.0E-4, 35.6, 85.7)" gradientUnits="userSpaceOnUse" id="gradient8" spreadMethod="pad" x1="-819.2" x2="819.2">
      <stop offset="0.0" stop-color="#2f3436"/>
      <stop offset="0.24705882352941178" stop-color="#5b6469"/>
      <stop offset="1.0" stop-color="#2e3336"/>
    </linearGradient>
    <linearGradient gradientTransform="matrix(-8.0E-4, -0.0032, -0.0032, 8.0E-4, 42.5, 86.45)" gradientUnits="userSpaceOnUse" id="gradient9" spreadMethod="pad" x1="-819.2" x2="819.2">
      <stop offset="0.0" stop-color="#2f3436"/>
      <stop offset="1.0" stop-color="#1f2324"/>
    </linearGradient>
    <linearGradient gradientTransform="matrix(-2.0E-4, -0.0016, -0.0016, -1.0E-4, 30.35, 90.2)" gradientUnits="userSpaceOnUse" id="gradient10" spreadMethod="pad" x1="-819.2" x2="819.2">
      <stop offset="0.0" stop-color="#1f2224"/>
      <stop offset="1.0" stop-color="#131617"/>
    </linearGradient>
    <linearGradient gradientTransform="matrix(-9.0E-4, -0.0035, -0.0035, 9.0E-4, 35.3, 89.45)" gradientUnits="userSpaceOnUse" id="gradient11" spreadMethod="pad" x1="-819.2" x2="819.2">
      <stop offset="0.0" stop-color="#0f1012"/>
      <stop offset="1.0" stop-color="#1f2224"/>
    </linearGradient>
    <linearGradient gradientTransform="matrix(-0.001, -0.0038, -0.0038, 0.001, 34.75, 88.65)" gradientUnits="userSpaceOnUse" id="gradient12" spreadMethod="pad" x1="-819.2" x2="819.2">
      <stop offset="0.0" stop-color="#14161a"/>
      <stop offset="1.0" stop-color="#16181a"/>
    </linearGradient>
    <linearGradient gradientTransform="matrix(2.0E-4, 0.0025, 0.0025, -2.0E-4, 45.95, 86.75)" gradientUnits="userSpaceOnUse" id="gradient13" spreadMethod="pad" x1="-819.2" x2="819.2">
      <stop offset="0.0" stop-color="#776e45"/>
      <stop offset="0.1843137254901961" stop-color="#887f4f"/>
      <stop offset="1.0" stop-color="#373320"/>
    </linearGradient>
    <linearGradient gradientTransform="matrix(2.0E-4, 0.0026, 0.0026, -2.0E-4, 55.35, 86.0)" gradientUnits="userSpaceOnUse" id="gradient14" spreadMethod="pad" x1="-819.2" x2="819.2">
      <stop offset="0.0" stop-color="#b8aa6a"/>
      <stop offset="0.1843137254901961" stop-color="#cbbd76"/>
      <stop offset="1.0" stop-color="#524d2f"/>
    </linearGradient>
    <linearGradient gradientTransform="matrix(7.0E-4, 0.0058, 0.0058, -7.0E-4, 73.8, 82.95)" gradientUnits="userSpaceOnUse" id="gradient15" spreadMethod="pad" x1="-819.2" x2="819.2">
      <stop offset="0.0" stop-color="#1f2224"/>
      <stop offset="1.0" stop-color="#1f2324"/>
    </linearGradient>
    <linearGradient gradientTransform="matrix(3.0E-4, -0.0028, 0.0028, 3.0E-4, 72.7, 84.5)" gradientUnits="userSpaceOnUse" id="gradient16" spreadMethod="pad" x1="-819.2" x2="819.2">
      <stop offset="0.0" stop-color="#2f3436"/>
      <stop offset="0.27450980392156865" stop-color="#50585c"/>
      <stop offset="0.3137254901960784" stop-color="#4a5155"/>
      <stop offset="0.49019607843137253" stop-color="#303538"/>
      <stop offset="0.6666666666666666" stop-color="#1e2123"/>
      <stop offset="0.8352941176470589" stop-color="#131516"/>
      <stop offset="1.0" stop-color="#0f1112"/>
    </linearGradient>
    <linearGradient gradientTransform="matrix(3.0E-4, 0.0045, 0.0045, -3.0E-4, 63.0, 83.0)" gradientUnits="userSpaceOnUse" id="gradient17" spreadMethod="pad" x1="-819.2" x2="819.2">
      <stop offset="0.0" stop-color="#b8aa6a"/>
      <stop offset="0.1843137254901961" stop-color="#cbbd76"/>
      <stop offset="1.0" stop-color="#524d2f"/>
    </linearGradient>
    <linearGradient gradientTransform="matrix(4.0E-4, 0.0032, 0.0032, -4.0E-4, 62.5, 85.7)" gradientUnits="userSpaceOnUse" id="gradient18" spreadMethod="pad" x1="-819.2" x2="819.2">
      <stop offset="0.0" stop-color="#3d4245"/>
      <stop offset="0.24705882352941178" stop-color="#181b1c"/>
      <stop offset="1.0" stop-color="#1f2324"/>
    </linearGradient>
  </defs>
</svg>
