<?xml version="1.0" encoding="UTF-8" standalone="no"?>
<svg xmlns:xlink="http://www.w3.org/1999/xlink" height="36.5px" width="42.05px" xmlns="http://www.w3.org/2000/svg">
  <g transform="matrix(1.0, 0.0, 0.0, 1.0, 0.0, 0.0)">
    <use height="36.5" transform="matrix(1.0, 0.0, 0.0, 1.0, 0.0, 0.0)" width="42.05" xlink:href="#shape0"/>
  </g>
  <defs>
    <g id="shape0" transform="matrix(1.0, 0.0, 0.0, 1.0, 0.0, 0.0)">
      <path d="M12.05 29.35 L7.7 36.2 Q7.45 36.55 7.1 36.5 L5.6 36.1 Q1.0 34.95 0.6 34.45 0.2 34.1 0.0 32.7 -0.1 31.95 2.85 29.35 L9.15 23.75 Q17.2 16.55 20.9 14.8 23.0 13.9 23.65 13.2 L24.05 11.85 Q24.6 7.65 26.9 4.45 29.65 0.75 33.85 0.05 L33.45 0.8 Q33.0 1.5 33.35 2.15 33.65 2.85 34.5 2.25 L37.05 0.05 37.1 0.0 36.75 1.05 Q36.35 1.8 36.7 2.45 37.0 3.15 37.9 2.6 38.6 2.05 39.35 0.55 L39.45 0.65 Q39.55 2.0 39.15 2.65 38.6 3.35 39.0 4.0 39.4 4.7 40.2 4.15 41.05 3.45 41.5 2.45 42.7 4.65 41.35 8.05 40.15 11.0 38.4 12.3 36.3 13.95 34.25 14.25 L28.4 14.9 Q24.75 15.5 23.45 16.35 L19.35 20.0 Q16.7 22.3 12.05 29.35" fill="url(#gradient0)" fill-rule="evenodd" stroke="none"/>
      <path d="M33.8 2.5 Q34.2 2.55 34.5 2.25 L37.0 0.1 35.0 2.3 Q34.05 3.3 33.8 2.5" fill="#e9e9e9" fill-rule="evenodd" stroke="none"/>
      <path d="M41.0 3.35 Q40.9 4.35 40.45 4.65 39.65 5.4 39.25 4.2 L40.2 4.15 41.0 3.35" fill="#e9e9e9" fill-rule="evenodd" stroke="none"/>
      <path d="M12.2 21.9 Q7.5 25.9 5.8 27.65 4.8 28.65 2.0 30.1 L9.15 23.75 Q17.2 16.55 20.9 14.8 23.0 13.9 23.65 13.2 L24.05 11.85 Q24.6 7.65 26.9 4.45 29.65 0.75 33.85 0.05 L32.15 1.0 Q30.25 2.0 28.35 3.55 26.35 5.05 25.6 8.5 L24.65 12.95 Q24.2 14.05 23.2 14.4 21.0 15.2 19.9 15.9 17.75 17.1 12.2 21.9" fill="#e9e9e9" fill-rule="evenodd" stroke="none"/>
      <path d="M36.6 2.25 Q36.8 3.25 37.9 2.6 38.6 2.05 39.35 0.55 39.2 2.2 38.05 3.0 L36.9 2.95 36.55 2.3 36.6 2.25" fill="#e9e9e9" fill-rule="evenodd" stroke="none"/>
      <path d="M2.8 33.35 L0.0 32.4 0.6 31.55 Q1.35 32.0 3.3 32.45 4.75 32.9 6.75 32.4 L6.6 32.6 6.7 33.1 2.8 33.35" fill="#f5f5f5" fill-rule="evenodd" stroke="none"/>
      <path d="M1.65 34.1 Q0.5 34.0 0.1 33.35 L0.0 32.7 0.0 32.4 2.8 33.35 6.7 33.1 6.9 34.0 6.7 33.4 6.6 34.4 5.95 35.0 Q5.65 35.1 3.7 34.4 L1.65 34.1" fill="#c2c2c2" fill-rule="evenodd" stroke="none"/>
      <path d="M12.55 28.65 L7.9 36.0 6.9 34.0 6.7 33.1 6.6 32.6 6.75 32.4 10.6 28.25 15.55 22.35 Q17.35 19.7 20.8 16.85 24.4 13.85 26.45 13.5 L32.1 13.5 Q36.25 13.45 38.4 12.3 36.3 13.95 34.25 14.25 L28.4 14.9 Q24.75 15.5 23.45 16.35 L19.35 20.0 Q16.85 22.2 12.55 28.65" fill="#7d7d7d" fill-rule="evenodd" stroke="none"/>
      <path d="M5.6 36.1 Q1.0 34.95 0.6 34.45 0.25 34.15 0.1 33.35 0.5 34.0 1.65 34.1 L3.7 34.4 Q5.65 35.1 5.95 35.0 L6.6 34.4 6.7 33.4 6.9 34.0 7.9 36.0 7.7 36.2 Q7.45 36.55 7.1 36.5 L5.6 36.1" fill="#878787" fill-rule="evenodd" stroke="none"/>
      <path d="M40.0 5.7 Q39.35 7.4 37.7 8.95 34.4 12.05 29.2 11.3 25.55 10.8 27.9 6.4 29.2 3.9 30.55 3.25 L33.55 3.15 35.25 3.35 35.75 3.6 36.7 4.4 37.6 4.55 Q38.35 4.1 40.0 5.7" fill="url(#gradient1)" fill-rule="evenodd" stroke="none"/>
      <path d="M29.5 13.95 L28.95 13.45 29.0 13.4 30.7 13.45 31.4 13.65 30.8 13.55 Q30.35 13.45 29.5 13.95" fill="#575757" fill-rule="evenodd" stroke="none"/>
      <path d="M6.9 34.0 L6.7 33.1 6.6 32.6 7.1 32.05 7.8 33.2 8.25 34.25 Q8.65 34.35 9.6 32.6 L11.9 28.1 Q13.05 26.0 16.75 22.25 20.0 18.85 19.95 18.55 19.85 17.75 15.55 22.35 17.35 19.7 20.8 16.85 24.4 13.85 26.45 13.5 L29.0 13.4 28.95 13.45 27.95 15.0 Q24.7 15.55 23.35 16.4 L19.35 20.0 Q16.85 22.2 12.55 28.65 L7.9 36.0 6.9 34.0" fill="#575757" fill-rule="evenodd" stroke="none"/>
      <path d="M28.95 13.45 L29.5 13.95 31.55 14.0 Q33.55 13.8 34.45 13.3 36.8 13.2 38.4 12.3 36.3 13.95 34.25 14.25 L28.4 14.9 27.95 15.0 28.95 13.45" fill="#575757" fill-rule="evenodd" stroke="none"/>
    </g>
    <linearGradient gradientTransform="matrix(0.0192, -0.0256, -0.0262, -0.023, 22.4, 18.25)" gradientUnits="userSpaceOnUse" id="gradient0" spreadMethod="pad" x1="-819.2" x2="819.2">
      <stop offset="0.0" stop-color="#9e9e9e"/>
      <stop offset="0.1843137254901961" stop-color="#eaeaea"/>
      <stop offset="0.5647058823529412" stop-color="#969696"/>
      <stop offset="0.7529411764705882" stop-color="#e3e3e3"/>
      <stop offset="1.0" stop-color="#9c9c9c"/>
    </linearGradient>
    <radialGradient cx="0" cy="0" gradientTransform="matrix(0.0092, -0.0053, -0.0039, -0.0068, 34.3, 9.4)" gradientUnits="userSpaceOnUse" id="gradient1" r="819.2" spreadMethod="pad">
      <stop offset="0.0" stop-color="#e3e3e3"/>
      <stop offset="1.0" stop-color="#969696"/>
    </radialGradient>
  </defs>
</svg>
