<?xml version="1.0" encoding="UTF-8" standalone="no"?>
<svg xmlns:xlink="http://www.w3.org/1999/xlink" height="68.7px" width="65.1px" xmlns="http://www.w3.org/2000/svg">
  <g transform="matrix(1.0, 0.0, 0.0, 1.0, 0.0, 0.0)">
    <use height="72.05" transform="matrix(1.0, 0.0, 0.0, 0.975, 1.4, 7.0002)" width="61.2" xlink:href="#sprite0"/>
    <use height="69.55" transform="matrix(1.0, 0.0, 0.0, 0.975, 1.2, 7.0002)" width="63.4" xlink:href="#sprite1"/>
    <use height="59.85" transform="matrix(0.9857, 0.0, 0.0, 0.9962, 1.8847, 1.6643)" width="64.0" xlink:href="#sprite2"/>
    <use height="81.15" transform="matrix(1.0, 0.0, 0.0, 1.0, 0.0, 2.25)" width="65.85" xlink:href="#shape3"/>
    <use height="0.0" id="price_tag_pt" transform="matrix(1.0, 0.0, 0.0, 1.0, 32.55, 77.8)" width="0.0" xlink:href="#sprite3"/>
  </g>
  <defs>
    <g id="sprite0" transform="matrix(1.0, 0.0, 0.0, 1.0, -36.0, -36.0)">
      <use height="72.05" transform="matrix(1.0, 0.0, 0.0, 1.0, 36.0, 36.0)" width="61.2" xlink:href="#shape0"/>
    </g>
    <g id="shape0" transform="matrix(1.0, 0.0, 0.0, 1.0, -36.0, -36.0)">
      <path d="M84.0 42.0 L84.55 42.9 84.7 43.1 86.1 45.95 86.65 47.65 86.95 48.9 88.05 49.55 88.1 49.6 88.15 49.6 89.0 50.2 90.85 51.8 Q94.6 55.45 96.2 61.05 L96.6 62.65 96.65 62.75 97.1 65.9 97.2 67.95 97.1 69.5 97.2 71.05 97.15 71.55 97.2 72.25 Q97.2 76.15 95.8 79.65 94.4 83.15 91.85 85.75 L91.9 86.2 91.9 87.9 91.85 88.2 91.9 88.55 Q91.9 95.05 87.75 99.65 83.6 104.25 77.8 104.25 L74.3 103.75 Q69.9 108.05 64.1 108.05 60.7 108.05 57.65 106.5 54.55 104.95 52.35 102.15 46.15 101.8 41.85 96.75 37.55 91.7 37.55 84.75 L37.55 81.95 37.65 79.65 Q36.0 75.9 36.0 71.9 L36.0 67.55 Q36.0 62.25 38.15 57.7 40.3 53.15 43.95 50.55 45.7 44.75 50.3 40.9 54.7 37.25 59.4 37.15 62.65 37.15 65.85 38.8 69.35 36.0 73.45 36.0 76.55 36.0 79.35 37.6 82.0 39.15 84.0 42.0" fill="#000000" fill-rule="evenodd" stroke="none"/>
    </g>
    <g id="sprite1" transform="matrix(1.0, 0.0, 0.0, 1.0, -36.0, -36.0)">
      <use height="69.55" transform="matrix(1.0, 0.0, 0.0, 1.0, 36.0, 36.0)" width="63.4" xlink:href="#shape1"/>
    </g>
    <g id="shape1" transform="matrix(1.0, 0.0, 0.0, 1.0, -36.0, -36.0)">
      <path d="M87.2 44.2 L87.9 45.6 88.8 48.45 90.0 49.1 90.05 49.15 90.75 49.6 90.95 49.7 92.8 51.25 92.85 51.25 Q96.75 54.8 98.4 60.2 L98.8 61.75 98.8 61.85 99.15 63.5 99.4 66.85 99.3 68.35 99.4 69.85 99.35 70.35 99.4 71.0 Q99.4 74.75 97.95 78.15 96.5 81.5 93.85 84.05 L93.9 84.5 93.85 85.3 93.9 86.75 Q93.9 93.0 89.6 97.45 85.35 101.9 79.3 101.9 L75.7 101.4 Q71.1 105.55 65.1 105.55 61.6 105.55 58.4 104.05 55.25 102.55 52.9 99.85 46.5 99.5 42.05 94.65 37.6 89.8 37.6 83.05 L37.6 80.35 37.7 78.15 Q36.0 74.6 36.0 70.65 L36.0 66.45 Q36.0 61.35 38.2 56.95 40.4 52.55 44.25 50.05 46.1 44.45 50.85 40.75 55.4 37.2 60.25 37.15 63.75 37.15 66.9 38.7 70.55 36.0 74.8 36.0 78.0 36.0 80.85 37.55 83.7 39.05 85.7 41.75 L86.45 42.85 87.2 44.2" fill="#000000" fill-rule="evenodd" stroke="none"/>
    </g>
    <g id="sprite2" transform="matrix(1.0, 0.0, 0.0, 1.0, -36.0, -36.0)">
      <use height="59.85" transform="matrix(1.0, 0.0, 0.0, 1.0, 36.0, 36.0)" width="64.0" xlink:href="#shape2"/>
    </g>
    <g id="shape2" transform="matrix(1.0, 0.0, 0.0, 1.0, -36.0, -36.0)">
      <path d="M86.3 41.1 L86.8 41.7 86.9 41.9 87.85 43.3 88.85 45.35 89.3 46.75 90.5 47.3 90.55 47.3 91.45 47.8 93.35 49.1 93.4 49.1 Q97.25 52.1 98.95 56.8 L99.4 58.15 99.4 58.25 99.75 59.65 99.9 60.85 100.0 62.55 99.9 63.8 100.0 65.1 99.95 65.55 100.0 66.1 Q100.0 69.3 98.55 72.25 97.05 75.15 94.4 77.3 L94.45 77.7 94.4 78.4 94.45 79.1 94.4 79.35 94.45 79.65 Q94.45 85.05 90.15 88.85 85.8 92.65 79.7 92.65 L76.05 92.25 Q71.45 95.85 65.35 95.85 61.8 95.85 58.6 94.55 55.4 93.25 53.1 90.9 46.6 90.6 42.1 86.45 37.6 82.25 37.6 76.5 L37.65 74.9 37.6 74.15 37.75 72.25 Q36.0 69.2 36.0 65.8 L36.0 62.2 Q36.0 57.8 38.25 54.0 40.45 50.25 44.3 48.1 46.15 43.25 51.0 40.05 55.55 37.05 60.5 36.95 63.85 36.95 67.2 38.35 70.75 36.0 75.15 36.0 78.4 36.0 81.3 37.35 84.15 38.65 86.15 40.95 L86.3 41.1" fill="#000000" fill-rule="evenodd" stroke="none"/>
    </g>
    <g id="shape3" transform="matrix(1.0, 0.0, 0.0, 1.0, 0.0, -2.25)">
      <path d="M40.55 2.25 Q45.65 2.25 49.65 5.65 53.65 8.95 54.95 14.3 58.65 16.05 62.05 21.05 65.85 26.7 65.85 32.15 65.85 36.3 64.3 40.05 62.75 43.75 59.95 46.5 L60.2 49.25 Q60.2 56.05 55.8 60.9 51.4 65.7 45.2 65.7 L41.5 65.2 Q36.8 69.7 30.6 69.7 27.0 69.7 23.75 68.05 20.5 66.45 18.15 63.5 11.55 63.1 7.0 57.8 2.4 52.5 2.4 45.25 2.4 42.9 2.9 40.8 0.75 36.55 0.75 31.8 0.75 27.4 4.1 22.05 6.65 17.9 9.2 15.9 11.05 10.4 15.95 6.8 20.65 3.35 25.65 3.3 29.1 3.3 32.45 4.85 36.15 2.25 40.55 2.25" fill="#eae6ed" fill-rule="evenodd" stroke="none"/>
      <path d="M51.35 7.2 L52.1 8.25 52.9 9.55 54.2 12.6 54.5 13.8 Q56.45 14.75 58.6 16.95 L57.75 22.0 54.1 20.65 Q53.1 17.0 52.1 15.0 L50.35 11.45 50.75 6.5 51.35 7.2" fill="#d4cad9" fill-rule="evenodd" stroke="none"/>
      <path d="M51.4 13.5 L53.75 11.4 54.45 13.6 56.85 14.95 55.55 19.5 52.65 18.25 51.4 13.5" fill="#bab3bf" fill-rule="evenodd" stroke="none"/>
      <path d="M1.4 27.4 L2.65 23.95 2.65 26.95 2.2 29.5 Q1.75 32.35 1.65 33.85 L1.3 35.85 Q0.75 33.7 0.75 31.1 0.75 29.45 1.4 27.4" fill="#ccc3d1" fill-rule="evenodd" stroke="none"/>
      <path d="M37.35 9.1 L32.05 10.75 27.85 9.25 28.05 3.85 28.6 3.6 Q30.7 4.0 32.45 4.85 34.45 3.45 36.6 2.85 L37.05 3.1 37.35 9.1" fill="#d9cfde" fill-rule="evenodd" stroke="none"/>
      <path d="M31.2 4.55 L32.45 4.85 34.2 3.85 35.2 9.1 33.05 10.75 30.2 9.25 31.2 4.55" fill="#ccc3d1" fill-rule="evenodd" stroke="none"/>
      <path d="M14.2 8.2 L14.35 8.05 14.8 13.15 12.35 16.7 10.65 19.5 9.7 21.3 6.4 23.65 6.65 18.7 Q8.45 16.45 9.7 15.45 11.1 11.3 14.2 8.2" fill="#d4cad9" fill-rule="evenodd" stroke="none"/>
      <path d="M9.7 15.45 L10.75 12.95 12.8 15.75 11.15 21.65 8.8 22.4 8.0 17.1 9.7 15.45" fill="#bab3bf" fill-rule="evenodd" stroke="none"/>
      <path d="M63.9 27.45 L64.65 25.3 Q65.85 28.5 65.85 31.45 L65.6 34.5 65.15 32.6 63.9 27.45" fill="#ccc3d1" fill-rule="evenodd" stroke="none"/>
      <path d="M40.55 6.3 Q45.65 6.3 49.65 9.5 53.65 12.7 54.95 17.7 59.85 19.75 62.85 24.35 65.85 28.9 65.85 34.4 65.85 38.3 64.3 41.85 62.8 45.35 59.95 47.95 L60.2 50.5 Q60.2 56.9 55.8 61.4 51.4 65.95 45.2 65.95 L41.5 65.45 Q36.85 69.7 30.6 69.7 27.0 69.7 23.75 68.15 20.5 66.65 18.15 63.85 11.55 63.5 7.0 58.55 2.4 53.6 2.4 46.75 2.4 44.5 2.9 42.5 0.75 38.6 0.75 34.1 0.75 29.4 3.05 25.4 5.3 21.4 9.2 19.15 11.1 13.85 15.65 10.6 20.15 7.35 25.65 7.35 29.15 7.35 32.45 8.8 36.3 6.3 40.55 6.3" fill="#ffffff" fill-rule="evenodd" stroke="none"/>
      <path d="M59.15 27.05 Q56.25 23.35 51.7 22.15 51.3 17.9 48.1 15.0 44.9 12.05 40.55 12.05 36.15 12.05 32.9 15.15 29.45 13.05 25.65 13.05 20.85 13.05 17.15 16.0 13.45 18.9 12.25 23.4 8.75 24.9 6.65 28.05 4.45 31.3 4.45 35.25 4.45 39.4 7.0 42.85 6.1 45.2 6.1 47.45 6.1 52.8 9.9 56.6 13.65 60.4 19.0 60.4 L19.9 60.3 Q21.65 62.95 24.45 64.45 27.3 66.0 30.6 66.0 33.55 66.0 36.15 64.7 38.7 63.5 40.5 61.3 42.85 62.35 45.2 62.35 49.9 62.35 53.2 59.05 56.5 55.75 56.5 51.1 56.5 49.3 55.75 47.2 58.65 45.35 60.35 42.3 62.1 39.15 62.1 35.55 62.1 30.75 59.15 27.05 M40.55 8.35 Q45.65 8.35 49.65 11.45 53.65 14.5 54.95 19.35 59.85 21.4 62.85 25.8 65.85 30.2 65.85 35.55 65.85 39.35 64.3 42.75 62.75 46.15 59.95 48.65 L60.2 51.1 Q60.2 57.3 55.8 61.65 51.4 66.05 45.2 66.05 L41.5 65.6 Q36.85 69.7 30.6 69.7 27.0 69.7 23.75 68.25 20.45 66.75 18.15 64.05 11.55 63.7 7.0 58.9 2.4 54.1 2.4 47.45 2.4 45.35 2.9 43.4 0.75 39.55 0.75 35.25 0.75 30.75 3.05 26.85 5.3 22.95 9.2 20.75 11.1 15.65 15.65 12.5 20.15 9.35 25.65 9.35 29.1 9.35 32.45 10.75 36.25 8.35 40.55 8.35" fill="#d4cad9" fill-rule="evenodd" stroke="none"/>
      <path d="M59.15 27.05 Q56.25 23.35 51.7 22.15 51.3 17.9 48.1 15.0 44.9 12.05 40.55 12.05 36.15 12.05 32.9 15.15 29.45 13.05 25.65 13.05 20.85 13.05 17.15 16.0 13.45 18.9 12.25 23.4 8.75 24.9 6.65 28.05 4.45 31.3 4.45 35.25 4.45 39.4 7.0 42.85 6.1 45.2 6.1 47.45 6.1 52.8 9.9 56.6 13.65 60.4 19.0 60.4 L19.9 60.3 Q21.65 62.95 24.45 64.45 27.3 66.0 30.6 66.0 33.55 66.0 36.15 64.7 38.7 63.5 40.5 61.3 42.85 62.35 45.2 62.35 49.9 62.35 53.2 59.05 56.5 55.75 56.5 51.1 56.5 49.3 55.75 47.2 58.65 45.35 60.35 42.3 62.1 39.15 62.1 35.55 62.1 30.75 59.15 27.05 M40.55 8.35 Q45.65 8.35 49.65 11.45 53.65 14.5 54.95 19.35 59.85 21.4 62.85 25.8 65.85 30.2 65.85 35.55 65.85 39.35 64.3 42.75 62.75 46.15 59.95 48.65 L60.2 51.1 Q60.2 57.3 55.8 61.65 51.4 66.05 45.2 66.05 L41.5 65.6 Q36.85 69.7 30.6 69.7 27.0 69.7 23.75 68.25 20.45 66.75 18.15 64.05 11.55 63.7 7.0 58.9 2.4 54.1 2.4 47.45 2.4 45.35 2.9 43.4 0.75 39.55 0.75 35.25 0.75 30.75 3.05 26.85 5.3 22.95 9.2 20.75 11.1 15.65 15.65 12.5 20.15 9.35 25.65 9.35 29.1 9.35 32.45 10.75 36.25 8.35 40.55 8.35" fill="url(#gradient0)" fill-rule="evenodd" stroke="none"/>
      <path d="M4.25 37.85 L4.45 35.25 62.1 35.55 62.25 39.15 Q62.25 43.1 61.2 44.65 60.15 46.2 58.15 47.95 L56.35 49.35 56.9 54.15 Q56.85 59.4 53.7 61.5 50.15 63.9 44.85 63.5 L40.2 62.65 Q39.55 63.9 37.95 65.15 34.75 67.65 30.05 67.65 24.95 67.65 21.9 64.85 L19.85 62.0 15.4 61.45 Q10.5 60.35 8.2 57.65 5.9 54.95 6.0 50.45 L6.55 46.5 Q5.2 44.5 4.55 42.15 4.1 40.7 4.25 37.85" fill="#6e497d" fill-rule="evenodd" stroke="none"/>
      <path d="M40.55 12.05 Q44.9 12.05 48.1 15.0 51.3 17.9 51.7 22.15 56.25 23.35 59.15 27.05 62.1 30.75 62.1 35.55 62.1 39.15 60.35 42.3 58.65 45.35 55.75 47.2 56.5 49.3 56.5 51.1 56.5 55.75 53.2 59.05 49.9 62.35 45.2 62.35 42.85 62.35 40.5 61.3 38.7 63.5 36.15 64.7 33.55 66.0 30.6 66.0 27.3 66.0 24.45 64.45 21.65 62.95 19.9 60.3 L19.0 60.4 Q13.65 60.4 9.9 56.6 6.1 52.8 6.1 47.45 6.1 45.2 7.0 42.85 4.45 39.4 4.45 35.25 4.45 31.3 6.65 28.05 8.75 24.9 12.25 23.4 13.45 18.9 17.15 16.0 20.85 13.05 25.65 13.05 29.45 13.05 32.9 15.15 36.15 12.05 40.55 12.05" fill="#b397c1" fill-rule="evenodd" stroke="none"/>
      <path d="M40.55 15.9 Q44.9 15.9 48.1 18.6 51.3 21.3 51.7 25.3 56.25 26.4 59.15 29.8 62.1 33.3 62.1 37.7 62.1 41.05 60.35 43.95 58.65 46.8 55.75 48.55 56.5 50.45 56.5 52.15 56.5 56.5 53.2 59.55 49.9 62.6 45.2 62.6 42.8 62.6 40.5 61.65 38.7 63.7 36.15 64.8 33.55 66.0 30.6 66.0 27.3 66.0 24.45 64.55 21.65 63.15 19.9 60.7 L19.0 60.8 Q13.7 60.8 9.9 57.3 6.1 53.75 6.1 48.8 6.1 46.7 7.0 44.5 4.45 41.3 4.45 37.4 4.45 33.75 6.65 30.75 8.75 27.8 12.25 26.4 13.45 22.2 17.15 19.55 20.9 16.8 25.65 16.8 29.4 16.8 32.9 18.75 36.15 15.9 40.55 15.9" fill="url(#gradient1)" fill-rule="evenodd" stroke="none"/>
      <path d="M40.55 12.05 Q44.9 12.05 48.1 15.0 51.3 17.9 51.7 22.15 56.25 23.35 59.15 27.05 62.1 30.75 62.1 35.55 L62.05 36.8 Q61.7 32.3 58.85 28.9 56.0 25.5 51.7 24.35 51.3 20.1 48.1 17.2 44.9 14.25 40.55 14.25 36.15 14.25 32.9 17.35 29.45 15.25 25.65 15.25 20.85 15.25 17.15 18.2 13.45 21.1 12.25 25.6 9.05 26.95 6.95 29.8 4.85 32.7 4.5 36.25 L4.45 35.25 Q4.45 31.3 6.65 28.05 8.75 24.9 12.25 23.4 13.45 18.9 17.15 16.0 20.85 13.05 25.65 13.05 29.45 13.05 32.9 15.15 36.15 12.05 40.55 12.05" fill="#9b79ad" fill-rule="evenodd" stroke="none"/>
      <path d="M17.2 6.8 Q17.7 6.1 18.85 5.65 19.75 5.25 20.55 5.2 L19.85 5.2 23.35 4.9 Q23.2 5.25 22.3 5.7 21.4 6.1 21.4 6.3 21.3 6.75 22.25 7.15 L23.55 7.65 20.75 8.45 17.7 9.2 18.5 8.35 17.05 8.75 Q17.3 7.45 18.85 6.55 L17.2 6.8" fill="#ffffff" fill-rule="evenodd" stroke="none"/>
      <path d="M44.85 3.7 L43.35 3.55 45.3 3.95 47.3 4.55 46.6 4.55 45.9 4.7 47.65 5.85 46.9 5.85 47.2 7.3 44.45 6.9 41.7 6.3 Q42.05 5.9 42.85 5.7 L44.2 5.2 Q44.0 4.6 42.95 4.25 L41.75 3.4 43.4 3.3 Q44.35 3.3 44.85 3.7" fill="#ffffff" fill-rule="evenodd" stroke="none"/>
      <path d="M0.0 83.4 L0.0 13.35 65.1 13.35 65.1 83.4 0.0 83.4" fill="#d4d4d4" fill-opacity="0.0" fill-rule="evenodd" stroke="none"/>
    </g>
    <linearGradient gradientTransform="matrix(0.0, -0.0656, -0.0656, 0.0, 33.3, 70.8)" gradientUnits="userSpaceOnUse" id="gradient0" spreadMethod="pad" x1="-819.2" x2="819.2">
      <stop offset="0.0" stop-color="#231f20"/>
      <stop offset="0.09019607843137255" stop-color="#231f20" stop-opacity="0.79607844"/>
      <stop offset="1.0" stop-color="#231f20" stop-opacity="0.0"/>
    </linearGradient>
    <linearGradient gradientTransform="matrix(0.0, -0.0299, -0.0299, 0.0, 33.35, 41.4)" gradientUnits="userSpaceOnUse" id="gradient1" spreadMethod="pad" x1="-819.2" x2="819.2">
      <stop offset="0.0" stop-color="#765985"/>
      <stop offset="1.0" stop-color="#9475a6"/>
    </linearGradient>
  </defs>
</svg>
