<?xml version="1.0" encoding="UTF-8" standalone="no"?>
<svg xmlns:xlink="http://www.w3.org/1999/xlink" height="53.95px" width="57.05px" xmlns="http://www.w3.org/2000/svg">
  <g transform="matrix(1.0, 0.0, 0.0, 1.0, 0.0, 0.0)">
    <use height="53.95" transform="matrix(1.0, 0.0, 0.0, 1.0, 0.0, 0.0)" width="57.05" xlink:href="#shape0"/>
  </g>
  <defs>
    <g id="shape0" transform="matrix(1.0, 0.0, 0.0, 1.0, 0.0, 0.0)">
      <path d="M51.15 45.85 L54.65 46.8 57.05 48.4 56.9 48.5 56.55 49.45 56.05 50.35 Q55.6 50.7 54.55 51.05 L52.95 51.6 49.6 52.95 Q44.95 54.5 36.9 53.7 L34.45 53.05 34.7 53.1 Q37.65 53.65 40.25 53.1 L41.05 52.9 Q43.0 52.45 44.35 51.35 44.7 51.0 45.1 51.1 L45.7 51.6 45.8 51.6 45.85 51.55 Q48.2 50.35 49.6 48.65 L49.8 48.4 49.9 48.3 50.6 47.2 51.15 45.85 M33.25 52.75 L32.95 52.9 32.45 52.55 33.25 52.75 M21.25 45.4 L19.3 45.45 17.4 44.5 17.1 44.3 17.05 44.3 17.95 44.5 18.0 44.55 18.15 44.55 18.65 44.6 20.4 44.3 20.45 44.2 20.85 44.15 21.25 45.4" fill="url(#gradient0)" fill-rule="evenodd" stroke="none"/>
      <path d="M3.6 17.2 Q2.0 16.5 1.1 15.5 L2.35 16.5 2.65 16.7 3.6 17.2 M0.45 14.55 L0.05 13.3 Q-0.4 10.3 2.95 6.25 6.2 2.4 9.55 1.25 13.1 0.05 15.35 0.0 L16.95 0.15 15.8 0.05 11.95 0.55 11.95 0.75 13.95 0.6 15.95 0.35 Q15.85 0.8 16.15 0.85 L16.75 0.95 16.95 1.3 Q16.9 1.55 17.0 1.8 L17.45 2.05 Q17.75 2.15 17.6 2.55 L16.85 2.9 Q16.2 3.0 16.15 3.4 L17.3 3.6 Q18.1 3.75 18.25 4.1 L18.15 4.95 18.35 5.15 16.65 5.2 16.85 5.9 Q15.3 6.3 13.2 5.95 L13.05 6.4 12.55 6.55 10.5 7.15 7.5 8.0 Q7.0 8.15 3.45 9.95 L2.2 11.15 0.95 12.3 Q0.6 12.75 0.55 13.35 L0.5 14.5 0.45 14.55 M18.75 0.5 L19.6 0.7 18.95 0.55 18.75 0.5 M26.9 5.3 L29.1 7.85 29.05 7.85 27.65 6.05 26.9 5.3 M14.45 1.55 L13.0 1.75 Q12.65 1.65 12.7 2.05 12.8 2.45 13.3 2.55 14.55 2.9 14.45 1.55 M11.1 3.9 L10.6 3.6 11.95 3.0 10.1 2.9 Q10.5 2.35 11.9 2.1 11.6 2.1 11.55 1.85 L11.4 1.4 10.35 1.3 10.15 1.2 8.05 2.55 Q6.65 3.25 5.7 4.2 L5.9 4.35 5.65 4.75 6.25 4.8 5.05 5.55 6.75 5.2 8.5 4.55 11.05 3.9 Q8.5 5.3 9.2 6.05 L7.75 6.7 Q6.8 7.1 6.6 7.6 9.1 7.85 12.5 5.3 L13.5 4.25 Q13.65 3.65 12.35 3.7 L12.3 3.65 11.4 3.7 11.1 3.9 M6.3 6.0 L5.65 6.0 Q5.45 6.25 5.55 6.65 7.2 6.8 7.1 5.95 L6.3 6.0 M3.85 6.45 Q3.0 6.35 2.6 7.25 L2.95 7.35 2.2 8.15 Q1.8 8.6 1.8 9.05 2.4 9.1 3.1 8.3 L4.2 7.1 Q4.85 7.05 4.9 6.75 5.05 6.15 4.3 6.35 L3.85 6.45 M4.2 8.65 Q4.7 8.8 5.05 8.4 5.35 8.0 5.25 7.5 L4.8 7.6 Q4.2 8.2 4.2 8.65" fill="#a37732" fill-rule="evenodd" stroke="none"/>
      <path d="M1.1 15.5 L0.45 14.55 0.5 14.5 0.55 13.35 Q0.6 12.75 0.95 12.3 L2.2 11.15 3.45 9.95 Q7.0 8.15 7.5 8.0 L10.5 7.15 12.55 6.55 13.05 6.4 13.2 5.95 Q15.3 6.3 16.85 5.9 L16.65 5.2 18.35 5.15 18.15 4.95 18.25 4.1 Q18.1 3.75 17.3 3.6 L16.15 3.4 Q16.2 3.0 16.85 2.9 L17.6 2.55 Q17.75 2.15 17.45 2.05 L17.0 1.8 Q16.9 1.55 16.95 1.3 L16.75 0.95 16.15 0.85 Q15.85 0.8 15.95 0.35 L13.95 0.6 11.95 0.75 11.95 0.55 15.8 0.05 16.95 0.15 18.2 0.35 18.75 0.5 18.95 0.55 Q19.4 0.85 19.35 1.1 19.85 1.45 20.9 1.7 L22.5 2.25 22.35 2.55 22.5 2.85 20.7 2.9 21.8 3.35 22.85 4.0 22.45 4.15 Q22.45 4.55 22.95 4.85 L21.7 4.75 22.15 5.3 21.15 5.4 21.25 6.3 12.1 7.4 Q7.0 8.45 3.55 10.65 1.6 11.9 1.25 13.45 0.95 14.75 1.1 15.5" fill="#916a30" fill-rule="evenodd" stroke="none"/>
      <path d="M5.95 18.05 L3.6 17.2 2.65 16.7 2.35 16.5 1.1 15.5 Q0.95 14.75 1.25 13.45 1.6 11.9 3.55 10.65 7.0 8.45 12.1 7.4 L21.25 6.3 21.15 5.4 22.15 5.3 21.7 4.75 22.95 4.85 Q22.45 4.55 22.45 4.15 L22.85 4.0 21.8 3.35 20.7 2.9 22.5 2.85 22.35 2.55 22.5 2.25 20.9 1.7 Q19.85 1.45 19.35 1.1 19.4 0.85 18.95 0.55 L19.6 0.7 Q21.45 1.25 23.65 2.75 L24.75 4.55 24.7 5.0 25.4 5.25 25.6 5.9 25.4 6.4 23.9 6.55 Q23.85 6.9 25.35 7.35 27.05 7.8 27.25 8.0 L27.75 8.5 26.2 9.2 25.1 8.7 Q21.45 7.2 15.05 7.8 9.05 8.35 5.15 10.65 2.0 12.5 2.0 13.95 2.0 15.2 4.55 16.45 L5.95 17.0 5.95 18.05" fill="#725525" fill-rule="evenodd" stroke="none"/>
      <path d="M23.65 2.75 L24.15 3.1 Q25.65 4.15 26.9 5.3 L27.65 6.05 29.05 7.85 27.75 8.5 27.25 8.0 Q27.05 7.8 25.35 7.35 23.85 6.9 23.9 6.55 L25.4 6.4 25.6 5.9 25.4 5.25 24.7 5.0 24.75 4.55 23.65 2.75" fill="#5d451f" fill-rule="evenodd" stroke="none"/>
      <path d="M11.05 3.9 L8.5 4.55 6.75 5.2 5.05 5.55 6.25 4.8 5.65 4.75 5.9 4.35 5.7 4.2 Q6.65 3.25 8.05 2.55 L10.15 1.2 10.35 1.3 11.4 1.4 11.55 1.85 Q11.6 2.1 11.9 2.1 10.5 2.35 10.1 2.9 L11.95 3.0 10.6 3.6 11.1 3.9 11.05 3.9" fill="#b58a45" fill-rule="evenodd" stroke="none"/>
      <path d="M39.65 4.15 L40.75 4.1 Q41.0 5.4 35.55 8.6 34.8 8.85 33.95 8.35 L32.55 7.65 Q31.25 7.3 29.35 8.3 L29.35 8.35 Q28.8 8.6 28.2 9.0 L28.15 9.05 27.0 9.8 Q25.05 10.95 24.0 11.0 L23.95 11.0 24.1 10.6 24.75 10.1 24.8 10.05 26.2 9.2 27.75 8.5 29.05 7.85 29.1 7.85 33.15 5.9 33.45 5.8 33.65 5.7 39.65 4.15 M14.45 1.55 Q14.55 2.9 13.3 2.55 12.8 2.45 12.7 2.05 12.65 1.65 13.0 1.75 L14.45 1.55 M11.05 3.9 L11.1 3.9 11.4 3.7 12.3 3.65 12.35 3.7 Q13.65 3.65 13.5 4.25 L12.5 5.3 Q9.1 7.85 6.6 7.6 6.8 7.1 7.75 6.7 L9.2 6.05 Q8.5 5.3 11.05 3.9 M4.2 8.65 Q4.2 8.2 4.8 7.6 L5.25 7.5 Q5.35 8.0 5.05 8.4 4.7 8.8 4.2 8.65 M3.85 6.45 L4.3 6.35 Q5.05 6.15 4.9 6.75 4.85 7.05 4.2 7.1 L3.1 8.3 Q2.4 9.1 1.8 9.05 1.8 8.6 2.2 8.15 L2.95 7.35 2.6 7.25 Q3.0 6.35 3.85 6.45 M6.3 6.0 L7.1 5.95 Q7.2 6.8 5.55 6.65 5.45 6.25 5.65 6.0 L6.3 6.0" fill="#ae833d" fill-rule="evenodd" stroke="none"/>
      <path d="M24.1 10.6 L23.8 10.9 23.55 11.0 22.95 11.15 21.9 11.05 22.95 10.3 Q23.65 9.85 23.6 8.95 L22.55 10.05 21.15 10.25 21.5 8.8 20.05 10.25 19.7 10.2 19.85 9.65 19.9 8.75 18.65 10.2 16.35 10.3 16.25 9.5 16.3 7.75 15.6 9.5 Q15.0 10.55 14.15 10.4 14.15 9.25 13.75 8.45 L13.45 9.8 12.95 10.6 12.7 10.65 12.1 10.0 11.65 9.1 11.5 9.95 11.5 10.85 Q11.05 10.8 10.45 10.45 L9.45 9.9 9.95 10.7 10.2 11.35 9.65 11.55 8.5 11.3 6.8 11.0 Q6.95 11.5 8.1 12.25 L8.05 12.3 4.45 12.2 Q5.25 12.85 6.6 12.95 L7.0 12.95 6.65 13.25 4.7 13.4 2.4 13.65 3.95 14.0 5.35 14.4 4.25 14.45 Q3.55 14.45 3.45 14.85 L4.95 15.2 5.9 15.25 5.95 17.0 4.55 16.45 Q2.0 15.2 2.0 13.95 2.0 12.5 5.15 10.65 9.05 8.35 15.05 7.8 21.45 7.2 25.1 8.7 L26.2 9.2 24.8 10.05 24.85 9.9 24.75 10.1 24.1 10.6 M31.4 52.3 L31.35 52.3 29.9 51.7 31.6 52.3 31.4 52.3 M27.3 50.85 L27.25 50.85 26.9 50.75 25.9 50.4 27.35 50.8 27.3 50.85 M24.9 50.15 L24.8 50.1 24.3 49.7 24.2 49.55 22.5 47.7 22.4 47.65 21.95 46.85 21.35 45.45 20.85 44.1 20.5 43.3 20.75 43.5 Q21.25 43.3 21.5 42.1 21.75 40.95 22.5 40.8 L22.4 43.65 Q22.45 45.7 23.35 45.6 L23.4 43.2 Q23.45 41.75 23.8 40.9 L23.75 44.8 Q23.95 47.2 25.05 48.35 25.9 49.3 26.85 49.35 L27.2 49.35 27.15 49.35 26.45 50.0 25.6 50.1 24.9 50.15 M5.3 41.0 L5.2 40.95 4.5 40.1 4.05 39.5 3.4 38.1 3.45 35.05 Q3.45 36.25 4.45 37.9 5.45 39.65 6.55 40.3 L6.15 38.2 Q7.2 39.4 8.25 39.75 L8.1 38.15 10.15 39.75 Q9.4 38.05 9.0 35.55 8.55 33.0 8.75 31.2 9.35 31.75 9.65 33.75 10.0 36.0 10.3 36.6 11.1 38.05 12.45 39.3 14.0 40.7 15.4 41.0 14.6 39.85 14.6 37.7 L15.8 39.35 Q16.4 40.45 17.25 40.35 17.35 39.5 18.35 39.1 L19.95 38.3 Q20.95 37.4 21.05 34.8 L21.35 31.1 Q21.45 28.8 20.8 27.5 L20.05 26.05 Q19.7 25.35 19.6 24.45 L19.25 22.8 18.4 21.3 Q17.1 19.4 16.05 18.65 L14.4 17.75 Q13.6 17.2 13.5 15.95 12.0 16.95 11.3 17.1 10.05 17.3 9.8 15.65 9.5 16.35 9.05 16.55 8.55 16.8 8.25 16.1 L7.0 17.75 6.6 17.4 6.25 16.8 6.0 17.2 5.95 15.05 6.6 14.8 7.2 14.35 8.7 13.85 9.45 13.35 10.15 12.95 10.55 13.05 11.0 13.15 11.5 12.85 12.0 12.55 13.7 12.3 14.9 12.35 15.0 12.8 Q14.95 13.25 15.2 13.35 L16.3 13.0 Q17.05 12.55 17.45 12.55 L18.4 12.9 19.55 13.2 19.45 14.85 Q19.4 16.05 19.6 16.5 19.85 17.1 20.6 17.65 L21.7 18.8 Q22.05 19.45 22.25 20.85 L22.8 22.95 Q23.15 23.7 24.4 25.05 L25.95 27.2 26.1 27.5 24.0 31.75 Q21.4 37.2 20.85 40.4 20.7 41.1 20.7 41.75 20.25 41.6 19.85 41.25 L19.75 42.4 19.5 42.35 19.5 42.45 Q18.1 42.5 16.85 41.95 L14.15 40.65 Q14.2 41.35 14.8 42.0 L16.05 42.85 15.65 43.0 15.0 42.75 14.5 42.85 14.15 43.0 13.45 42.8 Q12.15 42.3 11.25 41.3 11.15 41.65 11.2 41.95 10.4 41.65 9.8 41.95 9.25 41.35 7.95 41.3 L6.8 41.45 5.95 41.25 5.3 41.0 M28.3 21.75 L28.35 21.75 30.1 21.95 30.6 22.35 31.1 22.8 32.75 23.05 33.5 23.6 34.25 24.2 37.4 24.5 Q39.6 24.45 40.4 25.15 L40.95 26.2 41.4 27.3 42.4 28.3 43.3 29.3 Q44.05 30.7 44.25 34.1 44.4 37.4 43.9 39.35 L43.35 40.45 Q42.95 41.05 43.05 41.65 43.1 42.1 43.8 42.95 44.45 43.65 44.35 44.35 44.25 45.15 43.4 46.0 L42.0 47.3 40.15 49.85 39.1 51.75 38.95 52.0 37.6 52.15 35.4 51.9 33.15 51.7 32.3 51.85 31.45 51.85 29.8 51.0 28.95 50.75 28.25 50.3 Q28.05 50.1 27.95 49.5 L27.8 48.9 28.0 48.3 Q28.2 49.35 29.1 50.15 30.05 50.95 31.1 50.9 31.85 50.85 32.8 50.25 33.9 49.55 34.45 49.35 36.8 48.65 37.65 47.85 38.75 46.75 39.1 44.35 L39.3 41.85 Q39.35 40.3 39.65 39.4 40.35 37.25 40.25 34.55 40.15 31.45 38.9 29.8 37.9 28.45 35.5 26.95 L34.65 25.85 33.9 24.9 Q33.55 24.75 32.6 24.9 31.65 25.1 31.3 24.9 L30.8 24.25 30.45 23.65 29.2 23.45 27.9 23.4 27.95 23.0 28.3 21.75" fill="#af9765" fill-rule="evenodd" stroke="none"/>
      <path d="M23.8 10.9 L23.55 11.2 22.95 11.15 23.55 11.0 23.8 10.9 M22.6 13.85 Q22.65 14.7 23.05 15.55 L23.1 16.1 Q23.2 19.35 24.1 21.35 L25.05 22.7 26.05 23.9 27.05 25.4 26.1 27.5 25.95 27.2 24.4 25.05 Q23.15 23.7 22.8 22.95 L22.25 20.85 Q22.05 19.45 21.7 18.8 L20.6 17.65 Q19.85 17.1 19.6 16.5 19.4 16.05 19.45 14.85 L19.55 13.2 18.4 12.9 17.45 12.55 Q17.05 12.55 16.3 13.0 L15.2 13.35 Q14.95 13.25 15.0 12.8 L14.9 12.35 13.7 12.3 12.0 12.55 11.5 12.85 11.0 13.15 10.55 13.05 10.15 12.95 9.45 13.35 8.7 13.85 7.2 14.35 6.6 14.8 5.95 15.05 5.9 14.7 7.8 13.2 Q10.45 11.9 15.5 11.9 19.25 11.9 21.15 12.7 22.15 13.1 22.6 13.85 M31.95 52.4 L31.4 52.3 31.6 52.3 31.95 52.4 M38.95 52.0 L39.1 51.75 40.15 49.85 42.0 47.3 43.4 46.0 Q44.25 45.15 44.35 44.35 44.45 43.65 43.8 42.95 43.1 42.1 43.05 41.65 42.95 41.05 43.35 40.45 L43.9 39.35 Q44.4 37.4 44.25 34.1 44.05 30.7 43.3 29.3 L42.4 28.3 41.4 27.3 40.95 26.2 40.4 25.15 Q39.6 24.45 37.4 24.5 L34.25 24.2 33.5 23.6 32.75 23.05 31.1 22.8 30.6 22.35 30.1 21.95 28.35 21.75 28.3 21.75 28.35 21.5 28.6 20.4 31.15 21.6 Q31.6 22.75 33.5 23.0 L36.55 23.2 38.95 23.75 41.35 24.1 Q41.4 25.1 42.1 25.15 L43.5 25.3 Q44.45 25.65 45.05 26.7 L45.85 28.7 Q46.5 30.4 47.15 33.2 L48.3 37.7 Q49.1 40.45 48.75 42.25 48.55 43.1 47.75 44.4 L46.6 46.4 46.15 48.45 Q45.8 49.95 45.15 50.2 L44.35 50.1 43.7 49.85 Q43.25 49.95 42.95 50.15 L42.25 50.65 41.6 51.15 41.55 51.15 39.65 51.8 38.95 52.0 M20.05 10.25 L21.5 8.8 21.15 10.25 22.55 10.05 23.6 8.95 Q23.65 9.85 22.95 10.3 L21.9 11.05 21.8 11.0 20.75 10.45 20.05 10.25 M24.75 10.1 L24.85 9.9 24.8 10.05 24.75 10.1 M5.9 15.25 L4.95 15.2 3.45 14.85 Q3.55 14.45 4.25 14.45 L5.35 14.4 3.95 14.0 2.4 13.65 4.7 13.4 6.65 13.25 5.8 14.0 Q5.25 14.45 5.25 14.7 5.25 15.0 5.9 15.0 L5.9 15.25 M7.0 12.95 L6.6 12.95 Q5.25 12.85 4.45 12.2 L8.05 12.3 7.65 12.5 7.0 12.95 M8.1 12.25 Q6.95 11.5 6.8 11.0 L8.5 11.3 9.65 11.55 8.1 12.25 M10.2 11.35 L9.95 10.7 9.45 9.9 10.45 10.45 Q11.05 10.8 11.5 10.85 L11.5 9.95 11.65 9.1 12.1 10.0 12.7 10.65 Q11.45 10.85 10.2 11.35 M12.95 10.6 L13.45 9.8 13.75 8.45 Q14.15 9.25 14.15 10.4 15.0 10.55 15.6 9.5 L16.3 7.75 16.25 9.5 16.35 10.3 13.35 10.55 12.95 10.6 M18.65 10.2 L19.9 8.75 19.85 9.65 19.7 10.2 19.55 10.2 18.65 10.2 M11.2 41.95 Q11.15 41.65 11.25 41.3 12.15 42.3 13.45 42.8 L14.15 43.0 14.0 43.0 Q13.4 43.05 11.9 42.25 L11.2 41.95 M15.65 43.0 L16.05 42.85 14.8 42.0 Q14.2 41.35 14.15 40.65 L16.85 41.95 Q18.1 42.5 19.5 42.45 19.3 43.25 18.45 43.35 L17.0 43.45 16.1 43.2 15.65 43.0 M19.75 42.4 L19.85 41.25 Q20.25 41.6 20.7 41.75 L20.65 42.55 19.75 42.4" fill="#917e54" fill-rule="evenodd" stroke="none"/>
      <path d="M23.55 11.2 L23.05 11.9 22.55 11.65 Q20.7 10.8 18.0 10.7 L17.45 10.65 15.1 10.75 9.65 12.15 Q8.45 12.65 7.4 13.4 L7.8 13.2 5.9 14.7 5.9 15.0 Q5.25 15.0 5.25 14.7 5.25 14.45 5.8 14.0 L6.65 13.25 7.0 12.95 7.65 12.5 8.05 12.3 8.1 12.25 9.65 11.55 10.2 11.35 Q11.45 10.85 12.7 10.65 L12.95 10.6 13.35 10.55 16.35 10.3 18.65 10.2 19.55 10.2 19.7 10.2 20.05 10.25 20.75 10.45 21.8 11.0 21.9 11.05 22.95 11.15 23.55 11.2" fill="#c2aa78" fill-rule="evenodd" stroke="none"/>
      <path d="M27.65 50.9 L27.3 50.85 27.35 50.8 27.65 50.9 M21.95 46.85 L21.25 45.4 20.85 44.15 20.85 44.1 21.35 45.45 21.95 46.85 M6.3 41.85 L5.85 41.55 5.3 41.0 5.95 41.25 6.8 41.45 Q6.45 41.6 6.3 41.85 M4.05 39.5 Q2.5 36.95 2.85 33.0 3.15 29.9 4.8 25.0 5.85 21.9 5.95 18.05 L5.95 17.0 5.9 15.25 5.9 15.0 5.9 14.7 5.95 15.05 6.0 17.2 6.25 16.8 6.6 17.4 7.0 17.75 8.25 16.1 Q8.55 16.8 9.05 16.55 9.5 16.35 9.8 15.65 10.05 17.3 11.3 17.1 12.0 16.95 13.5 15.95 13.6 17.2 14.4 17.75 L16.05 18.65 Q17.1 19.4 18.4 21.3 L19.25 22.8 19.6 24.45 Q19.7 25.35 20.05 26.05 L20.8 27.5 Q21.45 28.8 21.35 31.1 L21.05 34.8 Q20.95 37.4 19.95 38.3 L18.35 39.1 Q17.35 39.5 17.25 40.35 16.4 40.45 15.8 39.35 L14.6 37.7 Q14.6 39.85 15.4 41.0 14.0 40.7 12.45 39.3 11.1 38.05 10.3 36.6 10.0 36.0 9.65 33.75 9.35 31.75 8.75 31.2 8.55 33.0 9.0 35.55 9.4 38.05 10.15 39.75 L8.1 38.15 8.25 39.75 Q7.2 39.4 6.15 38.2 L6.55 40.3 Q5.45 39.65 4.45 37.9 3.45 36.25 3.45 35.05 L3.4 38.1 4.05 39.5 M28.35 21.5 L28.3 21.75 27.95 23.0 27.9 23.15 28.35 21.5 M27.9 23.4 L29.2 23.45 30.45 23.65 30.8 24.25 31.3 24.9 Q31.65 25.1 32.6 24.9 33.55 24.75 33.9 24.9 L34.65 25.85 35.5 26.95 Q37.9 28.45 38.9 29.8 40.15 31.45 40.25 34.55 40.35 37.25 39.65 39.4 39.35 40.3 39.3 41.85 L39.1 44.35 Q38.75 46.75 37.65 47.85 36.8 48.65 34.45 49.35 33.9 49.55 32.8 50.25 31.85 50.85 31.1 50.9 30.05 50.95 29.1 50.15 28.2 49.35 28.0 48.3 L27.8 48.9 27.65 48.65 27.2 49.35 26.85 49.35 Q25.9 49.3 25.05 48.35 23.95 47.2 23.75 44.8 L23.8 40.9 Q23.45 41.75 23.4 43.2 L23.35 45.6 Q22.45 45.7 22.4 43.65 L22.5 40.8 Q21.75 40.95 21.5 42.1 21.25 43.3 20.75 43.5 L20.7 43.2 20.65 42.55 20.7 41.75 Q20.7 41.1 20.85 40.4 L22.05 39.75 Q23.85 38.65 24.65 37.2 L24.05 37.35 23.4 37.45 Q23.35 36.75 24.05 35.75 L25.25 34.15 25.35 34.0 Q23.95 38.7 25.25 40.9 L25.5 40.2 Q26.3 41.45 26.4 43.3 L28.6 42.95 Q29.5 42.5 30.25 41.3 L30.85 39.35 32.25 36.6 Q32.85 35.05 32.8 31.3 32.7 27.05 31.1 27.2 L28.8 27.4 27.95 28.35 28.4 27.0 26.95 28.25 27.4 25.85 27.9 23.4 M7.6 22.0 Q7.35 20.55 7.45 19.85 L6.6 19.65 Q6.25 20.5 6.0 22.35 L5.4 25.1 Q4.95 26.2 4.85 28.5 L4.3 31.9 Q5.05 30.8 5.15 29.1 L6.0 34.5 Q6.5 33.55 6.5 31.5 6.55 29.3 6.85 28.45 L7.45 29.0 7.8 26.65 7.85 24.25 7.6 22.0 M9.5 24.7 Q9.45 27.85 9.55 29.9 L10.25 29.05 11.25 32.4 Q11.9 34.35 12.9 35.6 13.2 35.0 13.1 33.45 13.0 31.9 13.25 31.3 14.7 33.45 15.8 33.65 16.35 32.0 16.3 29.15 16.25 26.5 15.75 24.6 15.2 22.75 13.85 21.1 12.2 19.15 10.6 19.25 L9.55 19.45 9.5 24.7" fill="#d0b989" fill-rule="evenodd" stroke="none"/>
      <path d="M23.05 11.9 L22.65 13.15 22.6 13.85 Q22.15 13.1 21.15 12.7 19.25 11.9 15.5 11.9 10.45 11.9 7.8 13.2 L7.4 13.4 Q8.45 12.65 9.65 12.15 L15.1 10.75 17.45 10.65 18.0 10.7 Q20.7 10.8 22.55 11.65 L23.05 11.9 M23.05 15.55 L23.35 16.0 24.45 17.4 Q24.85 21.25 26.3 23.05 L27.45 24.5 27.4 24.55 27.25 24.95 27.05 25.4 26.05 23.9 25.05 22.7 24.1 21.35 Q23.2 19.35 23.1 16.1 L23.05 15.55 M31.85 21.9 L33.4 22.4 Q38.0 23.75 43.6 23.35 L43.95 23.35 44.2 23.3 48.1 22.8 48.25 22.75 49.25 22.55 Q48.5 25.95 49.6 30.8 L51.7 40.5 51.75 41.5 Q51.85 43.9 51.15 45.85 L50.6 47.2 49.9 48.3 49.8 48.4 49.6 48.65 Q48.2 50.35 45.85 51.55 L45.8 51.6 45.7 51.6 45.1 51.1 Q44.7 51.0 44.35 51.35 43.0 52.45 41.05 52.9 L40.25 53.1 Q37.65 53.65 34.7 53.1 L34.45 53.05 33.25 52.75 32.45 52.55 31.95 52.4 31.6 52.3 29.9 51.7 29.75 51.65 27.65 50.9 27.35 50.8 25.9 50.4 24.75 50.15 24.9 50.15 25.6 50.1 26.45 50.0 27.15 49.35 27.2 49.35 27.65 48.65 27.8 48.9 27.95 49.5 Q28.05 50.1 28.25 50.3 L28.95 50.75 29.8 51.0 31.45 51.85 32.3 51.85 33.15 51.7 35.4 51.9 37.6 52.15 38.95 52.0 39.65 51.8 41.55 51.15 41.6 51.15 42.25 50.65 42.95 50.15 Q43.25 49.95 43.7 49.85 L44.35 50.1 45.15 50.2 Q45.8 49.95 46.15 48.45 L46.6 46.4 47.75 44.4 Q48.55 43.1 48.75 42.25 49.1 40.45 48.3 37.7 L47.15 33.2 Q46.5 30.4 45.85 28.7 L45.05 26.7 Q44.45 25.65 43.5 25.3 L42.1 25.15 Q41.4 25.1 41.35 24.1 L38.95 23.75 36.55 23.2 33.5 23.0 Q31.6 22.75 31.15 21.6 L31.85 21.9 M17.05 44.3 L16.95 44.25 Q16.3 44.1 15.05 44.25 L13.15 44.2 11.35 43.35 10.45 43.1 9.55 42.9 8.8 42.45 8.0 42.05 7.1 42.05 6.2 42.0 6.3 41.85 Q6.45 41.6 6.8 41.45 L7.95 41.3 Q9.25 41.35 9.8 41.95 10.4 41.65 11.2 41.95 L11.9 42.25 Q13.4 43.05 14.0 43.0 L14.15 43.0 14.5 42.85 15.0 42.75 15.65 43.0 16.1 43.2 17.0 43.45 18.45 43.35 Q19.3 43.25 19.5 42.45 L19.5 42.35 19.75 42.4 20.65 42.55 20.7 43.2 20.75 43.5 20.5 43.3 20.85 44.1 20.85 44.15 20.45 44.2 20.4 44.3 18.65 44.6 18.15 44.55 18.0 44.55 17.95 44.5 17.05 44.3" fill="#6a5d3d" fill-rule="evenodd" stroke="none"/>
      <path d="M27.95 23.0 L27.9 23.4 27.4 25.85 26.95 28.25 28.4 27.0 27.95 28.35 28.8 27.4 31.1 27.2 Q32.7 27.05 32.8 31.3 32.85 35.05 32.25 36.6 L30.85 39.35 30.25 41.3 Q29.5 42.5 28.6 42.95 L26.4 43.3 Q26.3 41.45 25.5 40.2 L25.25 40.9 Q23.95 38.7 25.35 34.0 L25.25 34.15 24.05 35.75 Q23.35 36.75 23.4 37.45 L24.05 37.35 24.65 37.2 Q23.85 38.65 22.05 39.75 L20.85 40.4 Q21.4 37.2 24.0 31.75 L26.1 27.5 27.05 25.4 27.25 24.95 27.4 24.55 27.45 24.5 27.8 23.35 27.9 23.15 27.95 23.0 M9.5 24.7 L9.55 19.45 10.6 19.25 Q12.2 19.15 13.85 21.1 15.2 22.75 15.75 24.6 16.25 26.5 16.3 29.15 16.35 32.0 15.8 33.65 14.7 33.45 13.25 31.3 13.0 31.9 13.1 33.45 13.2 35.0 12.9 35.6 11.9 34.35 11.25 32.4 L10.25 29.05 9.55 29.9 Q9.45 27.85 9.5 24.7 M7.6 22.0 L7.85 24.25 7.8 26.65 7.45 29.0 6.85 28.45 Q6.55 29.3 6.5 31.5 6.5 33.55 6.0 34.5 L5.15 29.1 Q5.05 30.8 4.3 31.9 L4.85 28.5 Q4.95 26.2 5.4 25.1 L6.0 22.35 Q6.25 20.5 6.6 19.65 L7.45 19.85 Q7.35 20.55 7.6 22.0" fill="#e2cc9d" fill-rule="evenodd" stroke="none"/>
      <path d="M51.45 9.15 L52.65 10.15 Q54.4 11.65 55.4 13.0 L55.6 13.4 Q53.65 11.85 52.7 11.3 50.9 10.25 49.3 10.35 48.3 10.45 47.65 11.0 46.95 11.6 46.85 12.55 L46.65 13.55 46.0 14.25 45.9 14.35 44.7 15.4 Q44.0 16.1 43.7 16.8 L43.3 18.4 42.5 19.85 Q41.45 20.85 39.45 20.95 35.95 21.25 30.0 20.15 L29.95 20.15 28.7 19.8 Q27.1 19.25 25.7 18.2 L24.4 17.0 23.0 15.1 22.75 14.65 22.7 14.45 22.65 13.9 Q22.6 12.85 23.1 11.95 L23.6 11.2 23.65 11.1 23.65 11.2 23.6 12.25 23.5 13.15 24.3 14.7 24.4 14.85 24.45 14.9 24.75 15.35 Q25.7 16.5 27.4 17.6 L28.8 18.4 31.3 19.25 35.5 19.7 37.35 19.2 39.05 18.35 40.7 17.7 Q41.45 17.25 41.65 16.35 L41.7 14.8 Q41.65 13.8 41.95 13.25 L42.75 12.5 42.95 12.3 Q43.65 11.75 43.8 11.2 43.9 10.7 43.05 8.1 42.35 6.0 43.4 5.6 L45.95 5.65 48.05 6.8 Q49.8 7.85 51.45 9.15" fill="#825e28" fill-rule="evenodd" stroke="none"/>
      <path d="M55.4 13.0 Q54.4 11.65 52.65 10.15 L51.45 9.15 Q54.05 11.15 55.4 13.0 M48.05 6.8 L45.95 5.65 43.4 5.6 Q42.35 6.0 43.05 8.1 43.9 10.7 43.8 11.2 43.65 11.75 42.95 12.3 L42.75 12.5 41.95 13.25 Q41.65 13.8 41.7 14.8 L41.65 16.35 Q41.45 17.25 40.7 17.7 L39.05 18.35 37.35 19.2 35.5 19.7 31.3 19.25 28.8 18.4 27.4 17.6 Q25.7 16.5 24.75 15.35 L24.45 14.9 24.4 14.85 24.3 14.7 23.5 13.15 23.6 12.25 23.65 11.2 23.65 11.1 23.6 11.2 23.1 11.95 Q22.6 12.85 22.65 13.9 L22.7 14.45 22.75 14.65 23.0 15.35 23.05 15.5 23.35 16.0 23.05 15.55 Q22.65 14.7 22.6 13.85 L22.65 13.15 23.05 11.9 23.55 11.2 23.8 10.9 24.1 10.6 23.95 11.0 24.0 11.0 Q25.05 10.95 27.0 9.8 L28.15 9.05 28.2 9.0 Q28.8 8.6 29.35 8.35 L29.35 8.3 Q31.25 7.3 32.55 7.65 L33.95 8.35 Q34.8 8.85 35.55 8.6 41.0 5.4 40.75 4.1 L39.65 4.15 41.7 4.15 Q44.3 4.5 48.05 6.8 M48.25 22.75 L49.25 22.5 49.7 22.4 50.05 22.3 49.25 22.55 48.25 22.75" fill="#976b2a" fill-rule="evenodd" stroke="none"/>
      <path d="M22.75 14.65 L23.0 15.1 24.4 17.0 25.7 18.2 Q27.1 19.25 28.7 19.8 L29.95 20.15 30.0 20.15 Q35.95 21.25 39.45 20.95 41.45 20.85 42.5 19.85 L43.3 18.4 43.7 16.8 Q44.0 16.1 44.7 15.4 L45.9 14.35 46.0 14.25 46.65 13.55 46.85 12.55 Q46.95 11.6 47.65 11.0 48.3 10.45 49.3 10.35 50.9 10.25 52.7 11.3 53.65 11.85 55.6 13.4 L55.7 13.45 Q56.45 14.6 56.65 15.5 57.3 18.15 54.8 20.1 L56.3 18.35 56.0 18.3 55.85 16.9 Q55.6 16.4 54.75 16.55 53.95 16.75 52.65 17.7 L50.7 19.1 49.55 19.7 49.2 19.75 47.55 19.85 44.85 20.4 42.15 20.95 37.3 21.05 32.45 20.85 30.35 20.65 28.6 20.25 28.25 20.15 28.6 20.35 31.15 21.6 31.85 21.9 31.15 21.6 28.6 20.4 25.4 18.25 24.45 17.4 23.35 16.0 23.05 15.5 23.0 15.35 22.75 14.65" fill="#755729" fill-rule="evenodd" stroke="none"/>
      <path d="M31.85 21.9 L31.15 21.6 28.6 20.35 28.25 20.15 28.6 20.25 30.35 20.65 32.45 20.85 37.3 21.05 42.15 20.95 44.85 20.4 47.55 19.85 49.2 19.75 49.55 19.7 50.7 19.1 52.65 17.7 Q53.95 16.75 54.75 16.55 55.6 16.4 55.85 16.9 L56.0 18.3 56.3 18.35 54.8 20.1 Q53.55 21.05 51.55 21.8 L50.05 22.3 49.7 22.4 49.25 22.5 48.25 22.75 48.1 22.8 44.2 23.3 43.95 23.35 43.6 23.35 Q38.0 23.75 33.4 22.4 L31.85 21.9" fill="#56401e" fill-rule="evenodd" stroke="none"/>
    </g>
    <linearGradient gradientTransform="matrix(0.0286, 0.0, 0.0, -0.0286, 37.25, 45.2)" gradientUnits="userSpaceOnUse" id="gradient0" spreadMethod="pad" x1="-819.2" x2="819.2">
      <stop offset="0.0" stop-color="#000000" stop-opacity="0.4392157"/>
      <stop offset="1.0" stop-color="#000000" stop-opacity="0.4392157"/>
    </linearGradient>
  </defs>
</svg>
