<?xml version="1.0" encoding="UTF-8" standalone="no"?>
<svg xmlns:xlink="http://www.w3.org/1999/xlink" height="40.3px" width="35.3px" xmlns="http://www.w3.org/2000/svg">
  <g transform="matrix(1.0, 0.0, 0.0, 1.0, 0.0, 0.0)">
    <use height="40.3" transform="matrix(1.0, 0.0, 0.0, 1.0, 0.0, 0.0)" width="35.3" xlink:href="#shape0"/>
  </g>
  <defs>
    <g id="shape0" transform="matrix(1.0, 0.0, 0.0, 1.0, 0.0, 0.0)">
      <path d="M17.55 34.9 Q17.95 33.6 18.9 31.95 20.75 28.7 23.5 27.2 26.4 25.6 29.05 25.6 L29.05 27.7 Q25.5 28.25 23.6 29.7 21.75 31.2 19.15 35.8 L17.55 34.9" fill="#3b6f5e" fill-rule="evenodd" stroke="none"/>
      <path d="M35.3 26.25 Q35.3 28.15 33.95 29.55 32.55 30.9 30.65 30.9 28.75 30.9 27.35 29.55 26.0 28.2 26.0 26.25 26.0 24.35 27.35 22.95 28.7 21.6 30.65 21.6 32.55 21.6 33.9 22.95 35.25 24.35 35.3 26.25" fill="#3b6f5e" fill-rule="evenodd" stroke="none"/>
      <path d="M33.8 26.25 Q33.8 27.55 32.9 28.5 31.95 29.45 30.65 29.45 29.35 29.45 28.4 28.5 27.45 27.55 27.45 26.25 27.45 24.95 28.4 24.0 29.3 23.1 30.65 23.05 31.95 23.05 32.9 24.0 33.8 24.95 33.8 26.25" fill="#27a168" fill-rule="evenodd" stroke="none"/>
      <path d="M17.8 34.9 L16.2 35.85 Q13.55 31.2 11.7 29.75 10.55 28.85 8.3 28.2 L6.25 27.75 6.25 25.65 7.95 25.85 Q10.0 26.25 11.8 27.25 14.55 28.7 16.45 31.95 L17.8 34.9" fill="#3b6f5e" fill-rule="evenodd" stroke="none"/>
      <path d="M0.05 26.35 Q0.0 24.4 1.4 23.05 2.75 21.7 4.65 21.7 6.55 21.65 7.95 23.05 9.3 24.4 9.3 26.3 9.3 28.2 7.95 29.6 6.6 30.95 4.7 30.95 2.75 30.95 1.4 29.6 0.05 28.25 0.05 26.35" fill="#3b6f5e" fill-rule="evenodd" stroke="none"/>
      <path d="M1.5 26.3 Q1.5 25.0 2.4 24.05 3.35 23.15 4.65 23.15 5.95 23.15 6.9 24.05 7.85 25.0 7.85 26.3 7.85 27.6 6.95 28.55 6.0 29.5 4.65 29.5 3.35 29.5 2.4 28.6 1.5 27.65 1.5 26.3" fill="#68c1a3" fill-rule="evenodd" stroke="none"/>
      <path d="M17.5 20.25 Q17.9 18.95 18.85 17.3 20.75 14.05 23.45 12.55 26.35 10.95 29.0 10.95 L29.0 13.05 Q25.45 13.6 23.6 15.05 21.75 16.5 19.1 21.15 L17.5 20.25" fill="#3b6f5e" fill-rule="evenodd" stroke="none"/>
      <path d="M35.25 11.6 Q35.25 13.5 33.9 14.9 32.55 16.25 30.6 16.25 28.7 16.25 27.3 14.9 25.95 13.5 25.95 11.6 25.95 9.7 27.3 8.3 28.7 6.95 30.6 6.95 32.5 6.95 33.9 8.3 35.25 9.7 35.25 11.6" fill="#3b6f5e" fill-rule="evenodd" stroke="none"/>
      <path d="M33.8 11.6 Q33.8 12.9 32.85 13.85 31.9 14.75 30.6 14.8 29.3 14.8 28.35 13.85 27.45 12.9 27.4 11.6 27.4 10.3 28.35 9.35 29.3 8.4 30.6 8.4 31.9 8.4 32.85 9.35 33.8 10.3 33.8 11.6" fill="#70d9a3" fill-rule="evenodd" stroke="none"/>
      <path d="M17.75 20.25 L16.2 21.15 Q13.5 16.55 11.65 15.1 10.5 14.2 8.25 13.55 L6.2 13.1 6.2 11.0 Q8.85 11.0 11.8 12.55 14.5 14.05 16.4 17.3 17.35 18.95 17.75 20.25" fill="#3b6f5e" fill-rule="evenodd" stroke="none"/>
      <path d="M0.0 11.65 Q0.0 9.75 1.35 8.4 2.7 7.05 4.6 7.0 6.55 7.0 7.9 8.35 9.25 9.75 9.25 11.65 9.3 13.55 7.95 14.95 6.55 16.3 4.65 16.3 2.75 16.3 1.35 14.95 0.0 13.6 0.0 11.65" fill="#3b6f5e" fill-rule="evenodd" stroke="none"/>
      <path d="M1.45 11.65 Q1.45 10.35 2.35 9.4 3.3 8.5 4.6 8.5 5.95 8.5 6.9 9.4 7.8 10.35 7.8 11.65 7.8 12.95 6.9 13.9 5.95 14.85 4.65 14.85 3.35 14.85 2.4 13.95 1.45 13.0 1.45 11.65" fill="#27a168" fill-rule="evenodd" stroke="none"/>
      <path d="M14.8 38.3 L14.7 5.55 20.4 5.55 20.4 38.3 Q20.35 40.35 17.55 40.3 14.75 40.2 14.8 38.3" fill="#3b6f5e" fill-rule="evenodd" stroke="none"/>
      <path d="M12.65 4.65 Q12.65 2.7 14.0 1.35 15.35 0.0 17.25 0.0 19.2 -0.05 20.55 1.35 21.9 2.7 21.9 4.6 21.9 6.5 20.55 7.9 19.2 9.25 17.3 9.25 15.4 9.25 14.0 7.9 12.65 6.55 12.65 4.65" fill="#3b6f5e" fill-rule="evenodd" stroke="none"/>
      <path d="M14.1 4.65 Q14.1 3.3 15.0 2.4 15.95 1.45 17.25 1.45 18.6 1.45 19.55 2.35 20.45 3.3 20.45 4.6 20.45 5.9 19.55 6.85 18.6 7.8 17.3 7.8 16.0 7.8 15.05 6.9 14.1 5.95 14.1 4.65" fill="#27a168" fill-rule="evenodd" stroke="none"/>
    </g>
  </defs>
</svg>
