<?xml version="1.0" encoding="UTF-8" standalone="no"?>
<svg xmlns:xlink="http://www.w3.org/1999/xlink" height="60.8px" width="61.7px" xmlns="http://www.w3.org/2000/svg">
  <g transform="matrix(1.0, 0.0, 0.0, 1.0, 0.0, 0.0)">
    <use height="60.8" transform="matrix(1.0, 0.0, 0.0, 1.0, 0.0, 15.25)" width="61.7" xlink:href="#shape0"/>
  </g>
  <defs>
    <g id="shape0" transform="matrix(1.0, 0.0, 0.0, 1.0, 0.0, -15.25)">
      <path d="M8.9 61.2 Q17.75 58.65 30.25 58.65 42.75 58.65 51.6 61.2 60.45 63.75 60.45 67.35 60.45 70.95 51.6 73.5 42.75 76.05 30.25 76.05 17.75 76.05 8.9 73.5 0.05 70.95 0.05 67.35 0.05 63.75 8.9 61.2" fill="url(#gradient0)" fill-rule="evenodd" stroke="none"/>
      <path d="M9.0 59.05 Q17.85 56.5 30.35 56.5 42.85 56.5 51.7 59.05 60.55 61.6 60.55 65.2 60.55 68.8 51.7 71.35 42.85 73.9 30.35 73.9 17.85 73.9 9.0 71.35 0.15 68.8 0.15 65.2 0.15 61.6 9.0 59.05" fill="url(#gradient1)" fill-rule="evenodd" stroke="none"/>
      <path d="M10.3 33.9 L11.55 29.05 13.95 28.75 13.95 50.35 Q13.95 57.65 13.2 63.45 L12.45 67.75 10.4 70.45 Q10.65 60.25 9.75 47.95 9.2 40.25 10.3 33.9" fill="#4c3325" fill-rule="evenodd" stroke="none"/>
      <path d="M13.0 38.8 L13.65 36.25 14.8 48.2 14.4 49.35 13.95 50.35 Q13.95 57.65 13.2 63.45 L12.45 67.75 11.85 63.55 Q11.7 62.55 12.15 55.6 L12.6 46.6 Q12.4 42.2 13.0 38.8" fill="#3f2a20" fill-rule="evenodd" stroke="none"/>
      <path d="M6.75 29.35 L11.55 29.05 11.1 37.1 Q10.65 46.35 10.65 52.15 10.65 64.15 9.75 70.45 L2.25 70.3 Q3.75 62.3 4.95 50.95 L6.35 35.35 6.75 29.35" fill="#63432e" fill-rule="evenodd" stroke="none"/>
      <path d="M8.4 29.25 Q7.85 32.55 7.65 37.75 7.55 41.05 7.6 50.4 7.7 58.0 7.35 61.0 L6.5 70.4 4.9 70.35 5.85 60.1 6.25 47.85 Q6.55 39.0 6.9 36.7 7.35 33.5 7.25 29.3 L8.4 29.25" fill="#543a2d" fill-rule="evenodd" stroke="none"/>
      <path d="M9.45 29.2 L11.25 29.05 Q9.05 38.05 9.45 42.25 9.8 45.75 9.7 52.45 L9.45 60.85 9.45 70.45 8.6 70.45 8.55 62.2 Q8.25 49.0 8.25 40.45 8.25 37.0 9.45 29.2" fill="#543a2d" fill-rule="evenodd" stroke="none"/>
      <path d="M11.25 40.75 Q11.25 42.85 10.5 46.15 L10.2 39.85 Q10.2 38.55 10.5 36.9 L10.8 35.5 11.05 37.35 11.25 40.75" fill="#543a2d" fill-rule="evenodd" stroke="none"/>
      <path d="M7.05 70.15 L7.8 66.4 8.55 70.45 7.05 70.15" fill="#543a2d" fill-rule="evenodd" stroke="none"/>
      <path d="M4.65 60.25 Q5.1 63.0 4.05 70.35 L3.15 70.3 3.1 70.3 3.6 61.7 4.3 56.35 4.65 60.25" fill="#543a2d" fill-rule="evenodd" stroke="none"/>
      <path d="M11.55 29.05 L13.5 28.8 13.35 31.9 12.85 31.9 Q12.35 32.2 12.45 33.4 L11.75 44.85 Q11.0 55.65 11.25 58.45 L11.85 66.25 11.85 68.35 10.85 69.9 Q11.3 67.05 11.1 63.85 L10.65 50.65 11.55 29.05" fill="#3f2a20" fill-rule="evenodd" stroke="none"/>
      <path d="M11.45 31.9 L6.6 32.05 6.65 29.1 11.55 29.05 11.45 31.9" fill="#4c3325" fill-rule="evenodd" stroke="none"/>
      <path d="M11.45 30.5 L6.6 30.6 6.65 29.1 11.55 29.05 11.45 30.5" fill="#3f2820" fill-rule="evenodd" stroke="none"/>
      <path d="M9.15 70.45 L10.8 45.7 10.7 58.2 10.4 70.45 9.15 70.45" fill="#754e34" fill-rule="evenodd" stroke="none"/>
      <path d="M6.25 42.8 L5.35 51.45 4.8 58.05 4.8 52.45 Q4.85 50.7 5.95 43.1 L7.05 35.8 6.25 42.8" fill="#754e34" fill-rule="evenodd" stroke="none"/>
      <path d="M7.55 52.25 L7.55 59.55 7.25 65.6 Q6.85 70.25 6.5 70.4 6.9 62.9 7.25 59.85 L7.5 54.55 7.55 52.25" fill="#754e34" fill-rule="evenodd" stroke="none"/>
      <path d="M51.45 33.9 Q52.75 40.25 52.1 47.95 51.05 60.25 51.35 70.45 L48.9 67.75 Q48.45 66.35 48.05 63.45 47.15 57.65 47.15 50.35 L47.15 28.75 50.0 29.05 51.45 33.9" fill="#4c3325" fill-rule="evenodd" stroke="none"/>
      <path d="M48.25 38.8 Q48.95 42.2 48.75 46.6 48.65 48.15 49.25 55.6 49.8 62.55 49.6 63.55 L48.9 67.75 Q48.45 66.35 48.05 63.45 47.15 57.65 47.15 50.35 L46.65 49.35 Q46.1 48.6 46.1 48.2 L47.5 36.25 48.25 38.8" fill="#3f2a20" fill-rule="evenodd" stroke="none"/>
      <path d="M55.65 29.35 L56.15 35.35 Q56.8 43.0 57.8 50.95 59.2 62.3 60.95 70.3 L52.1 70.45 Q51.05 64.15 51.05 52.15 L50.55 37.1 50.0 29.05 55.65 29.35" fill="#63432e" fill-rule="evenodd" stroke="none"/>
      <path d="M53.7 29.25 L55.05 29.3 Q54.95 33.6 55.45 36.7 55.9 39.0 56.25 47.85 L56.7 60.1 Q57.0 64.3 57.85 70.35 L55.95 70.4 54.95 61.0 Q54.55 58.0 54.65 50.4 L54.6 37.75 Q54.35 32.5 53.7 29.25" fill="#543a2d" fill-rule="evenodd" stroke="none"/>
      <path d="M52.45 29.2 Q53.9 37.05 53.9 40.45 53.9 49.0 53.5 62.2 L53.45 70.45 52.45 70.45 52.45 60.85 52.2 52.45 Q52.0 45.75 52.45 42.25 52.95 38.25 50.35 29.05 L52.45 29.2" fill="#543a2d" fill-rule="evenodd" stroke="none"/>
      <path d="M50.35 40.75 L50.6 37.35 50.85 35.5 51.2 36.9 51.55 39.85 51.2 46.15 Q50.35 42.85 50.35 40.75" fill="#543a2d" fill-rule="evenodd" stroke="none"/>
      <path d="M55.3 70.15 L53.5 70.45 54.4 66.4 55.3 70.15" fill="#543a2d" fill-rule="evenodd" stroke="none"/>
      <path d="M58.8 70.35 Q57.7 62.65 58.15 60.25 L58.5 56.35 59.35 61.7 Q59.4 65.8 60.0 70.3 L58.8 70.35" fill="#543a2d" fill-rule="evenodd" stroke="none"/>
      <path d="M50.35 29.05 L51.05 50.65 50.5 63.85 Q50.3 67.2 50.8 69.9 L49.6 68.35 49.6 66.25 Q49.6 65.0 50.35 58.45 50.65 55.65 49.75 44.85 48.85 33.9 48.9 33.4 49.05 32.2 48.45 31.9 L47.85 31.9 47.65 28.8 50.35 29.05" fill="#3f2a20" fill-rule="evenodd" stroke="none"/>
      <path d="M50.15 31.95 L50.15 29.2 55.75 29.1 55.85 32.05 50.15 31.95" fill="#4c3325" fill-rule="evenodd" stroke="none"/>
      <path d="M50.15 30.65 L50.15 29.15 55.75 29.1 55.85 30.7 50.15 30.65" fill="#3f2820" fill-rule="evenodd" stroke="none"/>
      <path d="M52.8 70.45 L51.35 70.45 50.95 58.2 50.85 45.7 52.8 70.45" fill="#754e34" fill-rule="evenodd" stroke="none"/>
      <path d="M56.25 42.8 L55.3 35.8 56.55 43.1 Q57.85 50.7 57.95 52.45 L57.95 58.05 57.3 51.45 56.25 42.8" fill="#754e34" fill-rule="evenodd" stroke="none"/>
      <path d="M54.7 53.0 L54.7 54.55 Q54.8 58.0 55.05 59.85 L55.95 70.4 Q55.5 70.25 55.05 65.6 L54.65 59.55 54.7 53.0" fill="#754e34" fill-rule="evenodd" stroke="none"/>
      <path d="M50.0 15.25 L61.7 25.65 0.05 25.65 11.75 15.25 50.0 15.25" fill="#775135" fill-rule="evenodd" stroke="none"/>
      <path d="M61.7 29.3 L0.05 29.3 0.05 25.65 61.7 25.65 61.7 29.3" fill="#63432e" fill-rule="evenodd" stroke="none"/>
      <path d="M49.05 29.35 L49.05 35.4 12.6 35.65 12.6 29.35 49.05 29.35" fill="#593b2b" fill-rule="evenodd" stroke="none"/>
      <path d="M49.05 29.35 L49.05 31.95 12.6 32.05 12.6 29.35 49.05 29.35" fill="#4f3327" fill-rule="evenodd" stroke="none"/>
      <path d="M49.05 29.35 L49.05 30.65 12.6 30.7 12.6 29.35 49.05 29.35" fill="#3f2820" fill-rule="evenodd" stroke="none"/>
      <path d="M13.05 62.05 L12.75 34.45 48.75 34.45 48.75 62.3 13.05 62.05" fill="#38241e" fill-rule="evenodd" stroke="none"/>
      <path d="M12.6 63.9 L12.3 41.35 48.75 41.35 48.75 64.1 12.6 63.9" fill="#593b2b" fill-rule="evenodd" stroke="none"/>
      <path d="M12.75 34.45 L16.55 34.45 16.65 38.35 12.75 41.35 12.75 34.45" fill="#2d1c18" fill-rule="evenodd" stroke="none"/>
      <path d="M37.65 26.4 L54.0 25.9 61.7 25.65 61.2 26.95 Q52.05 26.8 43.5 27.25 L29.55 27.95 Q21.4 28.3 17.7 28.0 L6.8 27.45 0.15 27.25 0.0 26.2 21.3 26.65 37.65 26.4" fill="#593b2b" fill-rule="evenodd" stroke="none"/>
      <path d="M61.7 29.35 L0.05 29.35 0.15 27.3 6.05 27.85 17.7 28.65 Q25.35 28.95 37.8 28.8 L43.2 28.3 51.0 27.9 56.6 28.15 60.15 28.5 61.7 29.35" fill="#593b2b" fill-rule="evenodd" stroke="none"/>
      <path d="M59.8 24.0 L61.1 25.15 0.05 25.65 1.55 24.3 Q10.1 25.15 31.05 24.85 L59.8 24.0" fill="#8e6042" fill-rule="evenodd" stroke="none"/>
      <path d="M37.5 16.75 L51.1 16.2 52.15 17.15 Q43.6 17.15 40.95 17.35 L35.4 18.05 30.75 18.25 24.85 17.2 18.75 16.45 8.9 17.75 10.3 16.5 20.25 16.0 37.5 16.75" fill="#6d4a31" fill-rule="evenodd" stroke="none"/>
      <path d="M25.45 19.5 L33.75 19.75 53.4 18.25 55.0 19.75 34.35 20.8 24.25 20.15 15.6 19.45 6.1 20.3 7.6 18.9 17.1 18.55 25.45 19.5" fill="#6d4a31" fill-rule="evenodd" stroke="none"/>
      <path d="M36.3 21.7 L56.65 21.2 57.9 22.3 Q39.1 22.3 33.9 22.6 L15.9 23.2 2.8 23.2 4.0 22.15 16.8 22.3 36.3 21.7" fill="#6d4a31" fill-rule="evenodd" stroke="none"/>
      <path d="M5.3 21.2 L8.2 20.7 13.5 20.35 21.45 20.8 12.75 21.4 5.3 21.2" fill="#6d4a31" fill-rule="evenodd" stroke="none"/>
      <path d="M26.8 24.05 L33.6 23.8 48.45 23.2 Q54.35 23.0 59.15 23.4 L59.65 23.85 50.7 23.8 47.1 23.75 42.45 23.95 23.25 24.25 26.8 24.05" fill="#6d4a31" fill-rule="evenodd" stroke="none"/>
      <path d="M12.45 42.95 L16.4 42.55 Q20.95 42.25 23.85 42.45 L32.95 42.9 Q38.65 43.05 40.95 42.85 L48.9 42.45 48.45 43.8 12.0 43.8 12.45 42.95" fill="#473026" fill-rule="evenodd" stroke="none"/>
      <path d="M12.3 46.0 L13.8 46.4 17.85 47.05 Q19.7 47.2 30.1 46.75 L42.3 46.3 49.2 46.9 48.75 48.1 Q44.25 47.05 41.1 47.35 L29.1 48.2 18.0 48.55 12.0 47.5 12.3 46.0" fill="#473026" fill-rule="evenodd" stroke="none"/>
      <path d="M21.75 63.25 Q26.9 63.65 39.75 63.25 L48.75 62.3 48.75 64.1 11.85 63.55 15.4 63.3 Q19.4 63.05 21.75 63.25" fill="#473026" fill-rule="evenodd" stroke="none"/>
      <path d="M12.15 61.15 L12.15 59.95 16.2 59.5 28.0 60.1 40.5 60.7 Q43.65 60.55 48.75 58.75 L49.5 60.7 45.6 61.15 33.1 61.4 19.2 61.0 14.0 60.85 12.15 61.15" fill="#473026" fill-rule="evenodd" stroke="none"/>
      <path d="M12.45 58.0 L12.45 56.8 18.3 56.65 23.1 57.05 28.5 57.55 35.15 57.2 41.7 56.5 Q45.15 56.2 48.9 56.5 L49.05 58.15 42.45 57.55 35.8 57.95 29.85 58.45 18.9 57.85 14.6 57.75 12.45 58.0" fill="#473026" fill-rule="evenodd" stroke="none"/>
      <path d="M12.3 54.55 L12.0 52.9 22.8 52.3 Q24.25 52.2 28.35 53.25 L33.9 54.4 38.0 54.25 42.45 53.8 48.6 53.65 48.75 55.0 46.65 54.55 42.65 54.8 36.3 55.3 29.8 54.85 24.0 53.8 Q21.85 53.45 16.85 53.95 L12.3 54.55" fill="#473026" fill-rule="evenodd" stroke="none"/>
      <path d="M12.6 50.2 L17.85 50.1 25.95 50.35 37.05 51.1 49.05 50.05 48.6 51.4 38.55 52.45 31.55 51.9 24.0 51.1 16.95 51.35 12.45 51.7 12.6 50.2" fill="#473026" fill-rule="evenodd" stroke="none"/>
      <path d="M15.5 62.1 L15.2 43.65 46.2 43.65 46.2 62.25 15.5 62.1" fill="#775135" fill-rule="evenodd" stroke="none"/>
      <path d="M16.75 61.0 L16.55 44.65 44.75 44.65 44.75 61.15 16.75 61.0" fill="#63432e" fill-rule="evenodd" stroke="none"/>
      <path d="M15.5 62.1 L15.2 43.65 16.55 44.65 16.75 61.0 15.5 62.1" fill="#3f2a20" fill-rule="evenodd" stroke="none"/>
      <path d="M44.75 44.65 L46.2 43.65 46.2 62.25 44.75 61.15 44.75 44.65" fill="#3f2a20" fill-rule="evenodd" stroke="none"/>
      <path d="M16.55 44.65 L15.2 43.65 46.2 43.65 44.75 44.65 16.55 44.65" fill="#2b1b18" fill-rule="evenodd" stroke="none"/>
      <path d="M16.55 44.65 L44.75 44.65 44.7 46.7 Q44.0 46.2 41.7 45.7 37.1 44.75 29.15 44.85 L19.05 45.55 16.55 46.1 16.55 44.65" fill="#775135" fill-rule="evenodd" stroke="none"/>
      <path d="M16.45 46.8 L17.95 47.15 21.05 47.5 24.9 47.1 29.6 46.5 Q33.0 46.25 41.2 47.7 L44.75 48.15 44.7 48.95 40.75 48.5 35.55 47.75 30.2 47.4 25.85 48.1 21.85 48.5 16.45 48.05 16.45 46.8" fill="#593b2b" fill-rule="evenodd" stroke="none"/>
      <path d="M16.55 50.55 L18.7 51.05 23.0 51.45 29.7 50.4 37.95 49.75 44.9 50.85 44.8 51.75 42.5 51.0 37.05 50.55 29.4 51.8 23.2 52.55 16.35 51.55 16.55 50.55" fill="#593b2b" fill-rule="evenodd" stroke="none"/>
      <path d="M16.7 53.7 L18.45 53.4 22.3 53.55 27.8 54.3 Q31.3 54.6 33.45 54.35 L37.25 53.4 Q39.3 52.7 41.0 52.8 L45.25 53.25 44.8 54.15 40.2 53.8 36.85 54.65 33.35 55.25 27.65 55.05 21.75 54.6 18.5 54.5 16.7 54.7 16.7 53.7" fill="#593b2b" fill-rule="evenodd" stroke="none"/>
      <path d="M17.0 56.6 L17.85 57.0 22.3 57.15 29.1 56.55 34.8 56.25 Q41.55 56.55 43.0 56.15 L44.9 56.05 44.9 57.05 35.45 57.15 28.2 57.8 22.2 58.4 18.75 57.9 16.7 57.5 17.0 56.6" fill="#593b2b" fill-rule="evenodd" stroke="none"/>
      <path d="M16.7 59.4 L18.7 59.65 22.55 59.75 28.3 59.05 34.9 58.65 45.15 59.75 44.8 60.75 33.45 59.85 23.2 60.75 16.75 61.0 16.7 59.4" fill="#593b2b" fill-rule="evenodd" stroke="none"/>
      <path d="M34.7 52.55 Q34.7 53.8 33.8 54.65 32.85 55.55 31.55 55.55 30.25 55.55 29.3 54.65 28.4 53.8 28.4 52.55 28.4 51.3 29.3 50.4 30.25 49.5 31.55 49.5 32.85 49.5 33.8 50.4 34.7 51.3 34.7 52.55" fill="url(#gradient2)" fill-rule="evenodd" stroke="none"/>
      <path d="M34.5 51.8 Q34.5 52.9 33.7 53.65 32.85 54.45 31.7 54.45 30.6 54.45 29.75 53.65 28.95 52.9 28.95 51.8 28.95 50.7 29.75 49.95 30.55 49.2 31.7 49.2 32.85 49.2 33.7 49.95 34.5 50.7 34.5 51.8" fill="#ad8759" fill-rule="evenodd" stroke="none"/>
      <path d="M34.35 51.6 Q34.35 52.45 33.7 53.05 33.05 53.65 32.1 53.65 31.15 53.65 30.5 53.05 29.85 52.45 29.85 51.6 29.85 50.75 30.5 50.2 31.15 49.6 32.1 49.6 33.05 49.6 33.7 50.2 34.35 50.75 34.35 51.6" fill="#bc9561" fill-rule="evenodd" stroke="none"/>
      <path d="M33.8 51.2 Q33.8 51.75 33.4 52.1 L32.45 52.45 Q31.9 52.45 31.5 52.1 31.1 51.75 31.1 51.2 31.1 50.65 31.5 50.3 31.9 49.9 32.45 49.9 33.0 49.9 33.4 50.3 33.8 50.65 33.8 51.2" fill="#cca16d" fill-rule="evenodd" stroke="none"/>
      <path d="M33.8 50.75 Q33.8 51.6 32.9 51.6 32.0 51.6 32.0 50.75 32.0 50.4 32.25 50.15 32.55 49.9 32.9 49.9 33.25 49.9 33.55 50.15 L33.8 50.75" fill="#e2b17d" fill-rule="evenodd" stroke="none"/>
      <path d="M12.6 29.35 L12.85 29.85 12.75 34.45 11.3 34.2 11.55 29.05 12.6 29.35" fill="#35231c" fill-rule="evenodd" stroke="none"/>
      <path d="M49.05 29.35 L50.15 29.2 50.45 35.55 48.75 34.45 49.05 29.35" fill="#35231c" fill-rule="evenodd" stroke="none"/>
      <path d="M48.75 34.45 L48.75 41.35 45.35 37.95 45.25 34.45 48.75 34.45" fill="#2d1c18" fill-rule="evenodd" stroke="none"/>
      <path d="M45.25 34.45 L45.35 37.95 16.65 38.35 16.55 34.45 45.25 34.45" fill="#231613" fill-rule="evenodd" stroke="none"/>
    </g>
    <radialGradient cx="0" cy="0" gradientTransform="matrix(0.0369, 0.0, 0.0, -0.0106, 30.25, 67.35)" gradientUnits="userSpaceOnUse" id="gradient0" r="819.2" spreadMethod="pad">
      <stop offset="0.0" stop-color="#000000" stop-opacity="0.2"/>
      <stop offset="1.0" stop-color="#000000" stop-opacity="0.0"/>
    </radialGradient>
    <radialGradient cx="0" cy="0" gradientTransform="matrix(0.0369, 0.0, 0.0, -0.0106, 30.35, 65.2)" gradientUnits="userSpaceOnUse" id="gradient1" r="819.2" spreadMethod="pad">
      <stop offset="0.0" stop-color="#000000" stop-opacity="0.2"/>
      <stop offset="1.0" stop-color="#000000" stop-opacity="0.0"/>
    </radialGradient>
    <linearGradient gradientTransform="matrix(-1.0E-4, -0.0181, -0.0181, 1.0E-4, 31.55, 51.45)" gradientUnits="userSpaceOnUse" id="gradient2" spreadMethod="pad" x1="-819.2" x2="819.2">
      <stop offset="0.0" stop-color="#231f20"/>
      <stop offset="0.09019607843137255" stop-color="#231f20" stop-opacity="0.79607844"/>
      <stop offset="1.0" stop-color="#231f20" stop-opacity="0.0"/>
    </linearGradient>
  </defs>
</svg>
