<?xml version="1.0" encoding="UTF-8" standalone="no"?>
<svg xmlns:xlink="http://www.w3.org/1999/xlink" height="48.55px" width="37.7px" xmlns="http://www.w3.org/2000/svg">
  <g transform="matrix(1.0, 0.0, 0.0, 1.0, 0.0, 0.0)">
    <use height="4.8" transform="matrix(0.75, 0.0, 0.0, 0.75, 16.85, 39.75)" width="19.85" xlink:href="#sprite0"/>
    <use height="4.3" transform="matrix(0.75, 0.0, 0.0, 0.75, 16.9, 39.75)" width="19.65" xlink:href="#sprite1"/>
    <use height="8.35" transform="matrix(0.75, 0.0, 0.0, 0.75, 16.9, 36.2)" width="19.7" xlink:href="#sprite2"/>
    <use height="7.55" transform="matrix(0.75, 0.0, 0.0, 0.75, 16.9, 36.8)" width="19.7" xlink:href="#sprite3"/>
    <use height="39.8" transform="matrix(0.75, 0.0, 0.0, 0.75, 16.15, 9.55)" width="22.25" xlink:href="#sprite4"/>
    <use height="25.55" transform="matrix(1.0, 0.0, 0.0, 1.0, 16.55, 13.85)" width="15.85" xlink:href="#shape5"/>
    <use height="5.65" transform="matrix(0.75, 0.0, 0.0, 0.75, 16.25, 7.3)" width="21.9" xlink:href="#sprite5"/>
    <use height="30.4" transform="matrix(1.0, 0.0, 0.0, 1.0, 16.65, 11.8)" width="15.65" xlink:href="#shape7"/>
    <use height="29.1" transform="matrix(0.75, 0.0, 0.0, 0.75, 17.7, 10.15)" width="7.4" xlink:href="#sprite6"/>
    <use height="25.15" transform="matrix(0.75, 0.0, 0.0, 0.75, 27.65, 10.5)" width="4.7" xlink:href="#sprite7"/>
    <use height="32.3" transform="matrix(1.0, 0.0, 0.0, 1.0, 16.15, 7.3)" width="16.6" xlink:href="#shape10"/>
    <use height="1.25" transform="matrix(0.75, 0.0, 0.0, 0.75, 27.3, 14.55)" width="1.85" xlink:href="#sprite8"/>
    <use height="15.5" transform="matrix(1.0, 0.0, 0.0, 1.0, 14.25, 1.45)" width="13.0" xlink:href="#shape12"/>
    <use height="4.9" transform="matrix(0.75, 0.0, 0.0, 0.75, 5.5625, 44.85)" width="20.3" xlink:href="#sprite9"/>
    <use height="4.35" transform="matrix(0.75, 0.0, 0.0, 0.75, 5.65, 44.85)" width="20.05" xlink:href="#sprite10"/>
    <use height="8.5" transform="matrix(0.75, 0.0, 0.0, 0.75, 5.65, 41.2)" width="20.1" xlink:href="#sprite11"/>
    <use height="7.7" transform="matrix(0.75, 0.0, 0.0, 0.75, 5.65, 41.8)" width="20.1" xlink:href="#sprite12"/>
    <use height="41.1" transform="matrix(0.75, 0.0, 0.0, 0.75, 4.85, 13.6)" width="22.75" xlink:href="#sprite13"/>
    <use height="26.1" transform="matrix(1.0, 0.0, 0.0, 1.0, 5.3, 18.35)" width="16.15" xlink:href="#shape18"/>
    <use height="5.75" transform="matrix(0.75, 0.0, 0.0, 0.75, 5.0, 11.6)" width="22.4" xlink:href="#sprite14"/>
    <use height="32.4" transform="matrix(1.0, 0.0, 0.0, 1.0, 5.35, 14.9)" width="16.0" xlink:href="#shape19"/>
    <use height="3.45" transform="matrix(0.75, 0.0, 0.0, 0.75, 5.9375, 16.05)" width="2.75" xlink:href="#sprite15"/>
    <use height="5.2" transform="matrix(1.0, 0.0, 0.0, 1.0, 8.3, 15.8)" width="9.75" xlink:href="#shape21"/>
    <use height="1.75" transform="matrix(0.75, 0.0, 0.0, 0.75, 13.7, 19.45)" width="2.25" xlink:href="#sprite16"/>
    <use height="1.55" transform="matrix(0.75, 0.0, 0.0, 0.75, 17.9, 18.3)" width="2.25" xlink:href="#sprite17"/>
    <use height="3.05" transform="matrix(0.75, 0.0, 0.0, 0.75, 14.2, 15.0)" width="3.35" xlink:href="#sprite18"/>
    <use height="0.95" transform="matrix(0.75, 0.0, 0.0, 0.75, 12.95, 18.1)" width="2.0" xlink:href="#sprite19"/>
    <use height="0.7" transform="matrix(0.75, 0.0, 0.0, 0.75, 11.3, 18.3)" width="1.75" xlink:href="#sprite20"/>
    <use height="0.85" transform="matrix(0.75, 0.0, 0.0, 0.75, 10.0875, 21.0375)" width="3.0" xlink:href="#sprite21"/>
    <use height="0.8" transform="matrix(0.75, 0.0, 0.0, 0.75, 14.55, 20.75)" width="1.8" xlink:href="#sprite22"/>
    <use height="1.25" transform="matrix(0.75, 0.0, 0.0, 0.75, 7.95, 18.9)" width="2.9" xlink:href="#sprite23"/>
    <use height="0.8" transform="matrix(0.75, 0.0, 0.0, 0.75, 6.05, 19.55)" width="1.75" xlink:href="#sprite24"/>
    <use height="1.8" transform="matrix(0.75, 0.0, 0.0, 0.75, 18.5875, 17.45)" width="3.25" xlink:href="#sprite25"/>
    <use height="29.7" transform="matrix(0.75, 0.0, 0.0, 0.75, 6.4875, 14.55)" width="7.5" xlink:href="#sprite26"/>
    <use height="25.7" transform="matrix(0.75, 0.0, 0.0, 0.75, 16.65, 14.9)" width="4.85" xlink:href="#sprite27"/>
    <use height="38.95" transform="matrix(1.0, 0.0, 0.0, 1.0, 4.85, 5.65)" width="19.3" xlink:href="#shape32"/>
  </g>
  <defs>
    <g id="sprite0" transform="matrix(1.0, 0.0, 0.0, 1.0, 0.0, 0.0)">
      <use height="4.8" transform="matrix(1.0, 0.0, 0.0, 1.0, 0.0, 0.0)" width="19.85" xlink:href="#shape0"/>
    </g>
    <g id="shape0" transform="matrix(1.0, 0.0, 0.0, 1.0, 0.0, 0.0)">
      <path d="M19.7 0.0 Q19.95 0.4 19.75 1.15 L18.5 2.35 Q16.7 3.65 13.8 4.4 L11.7 4.75 11.7 4.8 8.15 4.8 8.15 4.75 6.05 4.4 Q3.15 3.65 1.3 2.35 L0.05 1.15 Q-0.1 0.5 0.15 0.05 1.95 2.1 6.05 3.2 L8.15 3.5 8.15 3.55 11.7 3.55 11.7 3.5 13.8 3.2 Q17.95 2.1 19.7 0.0" fill="#5e473c" fill-rule="evenodd" stroke="none"/>
    </g>
    <g id="sprite1" transform="matrix(1.0, 0.0, 0.0, 1.0, 0.0, 0.0)">
      <use height="4.1" transform="matrix(1.0424, 0.0, 0.0, 1.0488, 0.0, 0.0)" width="18.85" xlink:href="#shape1"/>
    </g>
    <g id="shape1" transform="matrix(1.0, 0.0, 0.0, 1.0, 0.0, 0.0)">
      <path d="M13.15 3.1 Q17.45 1.95 18.85 0.05 L18.85 0.35 18.1 1.3 Q15.2 3.95 9.75 4.1 5.7 4.25 2.45 2.45 0.85 1.55 0.0 0.6 L0.0 0.05 0.05 0.0 1.45 1.25 Q3.15 2.4 5.75 3.1 L7.75 3.4 7.75 3.45 11.15 3.45 11.15 3.4 13.15 3.1" fill="#ffffff" fill-rule="evenodd" stroke="none"/>
    </g>
    <g id="sprite2" transform="matrix(1.0, 0.0, 0.0, 1.0, 0.0, 0.0)">
      <use height="8.35" transform="matrix(1.0, 0.0, 0.0, 1.0, 0.0, 0.0)" width="19.7" xlink:href="#shape2"/>
    </g>
    <g id="shape2" transform="matrix(1.0, 0.0, 0.0, 1.0, 0.0, 0.0)">
      <path d="M18.3 3.5 L19.7 4.7 18.45 5.9 Q16.65 7.2 13.75 7.95 L11.65 8.3 11.65 8.35 8.1 8.35 8.1 8.3 6.0 7.95 Q3.1 7.2 1.25 5.9 L0.0 4.7 1.4 3.5 Q2.5 2.7 7.3 0.6 L9.9 0.0 12.4 0.6 14.95 1.75 Q17.6 3.0 18.3 3.5" fill="url(#gradient0)" fill-rule="evenodd" stroke="none"/>
    </g>
    <linearGradient gradientTransform="matrix(0.0, 0.005, 0.005, 0.0, 9.85, 4.3)" gradientUnits="userSpaceOnUse" id="gradient0" spreadMethod="pad" x1="-819.2" x2="819.2">
      <stop offset="0.0" stop-color="#7a7a7a"/>
      <stop offset="1.0" stop-color="#ffffff"/>
    </linearGradient>
    <g id="sprite3" transform="matrix(1.0, 0.0, 0.0, 1.0, 0.0, 0.0)">
      <use height="7.55" transform="matrix(1.0, 0.0, 0.0, 1.0, 0.0, 0.0)" width="19.7" xlink:href="#shape3"/>
    </g>
    <g id="shape3" transform="matrix(1.0, 0.0, 0.0, 1.0, 0.0, 0.0)">
      <path d="M18.3 2.7 L19.7 3.9 18.45 5.1 Q16.65 6.4 13.75 7.15 L11.65 7.5 11.65 7.55 8.1 7.55 8.1 7.5 6.0 7.15 Q3.1 6.4 1.25 5.1 L0.0 3.9 1.4 2.7 Q1.9 2.35 6.75 0.0 L4.15 1.9 Q3.55 2.45 3.45 2.9 3.4 3.35 3.9 4.05 4.75 5.3 5.7 5.75 L8.95 6.4 13.7 5.95 Q16.2 5.25 17.3 4.15 18.15 3.3 17.3 2.1 L18.3 2.7" fill="#e3e3e3" fill-rule="evenodd" stroke="none"/>
    </g>
    <g id="sprite4" transform="matrix(1.0, 0.0, 0.0, 1.0, 0.0, -0.4)">
      <use height="39.75" transform="matrix(1.0, 0.0, 0.0, 1.0013, 0.0, 0.4006)" width="22.25" xlink:href="#shape4"/>
    </g>
    <g id="shape4" transform="matrix(1.0, 0.0, 0.0, 1.0, 0.0, -0.45)">
      <path d="M22.05 0.45 Q22.4 5.55 22.1 11.5 21.55 24.0 18.35 28.7 15.65 32.65 14.8 36.35 14.4 38.15 14.5 39.2 L14.1 39.7 Q13.25 40.25 11.15 40.2 L11.05 40.2 Q9.0 40.25 8.15 39.7 L7.75 39.2 Q7.85 38.15 7.4 36.35 6.55 32.65 3.9 28.7 0.9 24.3 0.2 13.05 -0.2 7.0 0.15 0.45 0.45 1.55 3.6 2.3 L11.1 3.05 Q15.65 3.05 18.85 2.25 21.8 1.45 22.05 0.45" fill="#ffffff" fill-rule="evenodd" stroke="none"/>
    </g>
    <g id="shape5" transform="matrix(1.0, 0.0, 0.0, 1.0, -16.55, -13.85)">
      <path d="M32.25 14.4 L32.25 13.85 32.4 14.0 32.25 14.4 Q32.5 17.0 32.3 20.15 31.95 27.2 29.65 30.75 27.75 33.7 27.15 36.5 26.85 37.85 26.9 38.65 L26.6 39.05 24.55 39.4 24.45 39.4 22.45 39.05 22.15 38.65 21.9 36.5 Q21.3 33.7 19.4 30.75 16.1 25.6 16.65 14.6 17.0 16.1 24.5 16.1 L30.05 15.5 Q31.9 15.05 32.25 14.4" fill="url(#gradient1)" fill-rule="evenodd" stroke="none"/>
    </g>
    <radialGradient cx="0" cy="0" gradientTransform="matrix(-3.0E-4, 0.0203, 0.0106, 2.0E-4, 22.05, 23.45)" gradientUnits="userSpaceOnUse" id="gradient1" r="819.2" spreadMethod="pad">
      <stop offset="0.0" stop-color="#ff6b2b"/>
      <stop offset="1.0" stop-color="#734216"/>
    </radialGradient>
    <g id="sprite5" transform="matrix(1.0, 0.0, 0.0, 1.0, 0.0, 0.0)">
      <use height="5.75" transform="matrix(0.9799, 0.0, 0.0, 0.9826, 0.0, 0.0)" width="22.35" xlink:href="#shape6"/>
    </g>
    <g id="shape6" transform="matrix(1.0, 0.0, 0.0, 1.0, 0.0, 0.0)">
      <path d="M22.35 2.9 Q22.35 4.1 19.1 4.95 L11.15 5.75 Q6.5 5.75 3.25 4.95 0.0 4.1 0.0 2.9 0.0 1.7 3.25 0.85 6.55 0.0 11.15 0.0 15.8 0.0 19.1 0.85 22.35 1.7 22.35 2.9" fill="#ffffff" fill-rule="evenodd" stroke="none"/>
    </g>
    <g id="shape7" transform="matrix(1.0, 0.0, 0.0, 1.0, -16.65, -11.8)">
      <path d="M24.9 13.45 Q31.1 13.1 31.9 13.55 32.65 13.95 31.85 14.9 31.0 16.0 28.9 16.85 27.1 17.6 23.85 17.65 L18.75 17.05 Q16.65 16.4 16.65 14.6 16.65 14.3 17.4 14.15 L18.75 13.9 24.9 13.45" fill="#ffd396" fill-rule="evenodd" stroke="none"/>
      <path d="M19.2 38.8 Q19.2 39.4 19.35 39.8 L20.1 40.65 20.85 41.5 Q20.95 41.75 19.9 41.5 18.85 41.25 18.15 40.7 L17.35 39.95 Q17.2 39.65 18.2 39.05 19.2 38.4 19.2 38.8" fill="#e3e3e3" fill-rule="evenodd" stroke="none"/>
      <path d="M27.55 41.4 Q29.05 41.25 28.6 41.6 28.2 42.05 27.2 42.2 26.45 42.3 26.75 41.9 27.1 41.45 27.55 41.4" fill="#e3e3e3" fill-rule="evenodd" stroke="none"/>
      <path d="M21.6 17.3 L18.6 16.85 Q17.5 16.4 17.05 15.2 L16.8 14.6 Q16.65 14.35 16.85 14.2 L17.4 13.95 18.15 13.5 18.65 13.0 19.55 12.75 21.2 12.45 Q22.1 12.3 22.95 12.45 L26.25 12.3 28.15 11.85 Q29.35 11.65 30.1 12.1 L32.25 13.6 32.1 14.3 31.35 14.95 Q30.05 15.9 29.25 16.25 27.7 17.0 26.1 17.0 L21.6 17.3" fill="url(#gradient2)" fill-rule="evenodd" stroke="none"/>
      <path d="M28.0 12.15 Q28.9 12.25 28.75 12.9 28.65 13.5 28.0 13.6 L26.95 13.4 Q26.4 13.1 26.6 12.75 26.75 12.45 27.25 12.3 L28.0 12.15" fill="#e07b41" fill-rule="evenodd" stroke="none"/>
    </g>
    <linearGradient gradientTransform="matrix(0.0095, 0.0, 0.0, -0.0095, 24.5, 14.55)" gradientUnits="userSpaceOnUse" id="gradient2" spreadMethod="pad" x1="-819.2" x2="819.2">
      <stop offset="0.0" stop-color="#ff6b2b"/>
      <stop offset="1.0" stop-color="#734216"/>
    </linearGradient>
    <g id="sprite6" transform="matrix(1.0, 0.0, 0.0, 1.0, 0.0, 0.0)">
      <use height="29.1" transform="matrix(1.0, 0.0, 0.0, 1.0, 0.0, 0.0)" width="7.4" xlink:href="#shape8"/>
    </g>
    <g id="shape8" transform="matrix(1.0, 0.0, 0.0, 1.0, 0.0, 0.0)">
      <path d="M4.4 1.5 Q6.95 17.15 7.35 24.7 7.55 29.45 6.2 29.05 L4.75 27.65 3.8 26.2 Q2.85 24.75 1.9 21.85 0.7 18.2 0.35 14.45 0.05 10.75 0.0 5.4 L0.1 0.0 4.4 1.5" fill="url(#gradient3)" fill-rule="evenodd" stroke="none"/>
    </g>
    <linearGradient gradientTransform="matrix(0.004, 0.0, 0.0, -0.004, 1.3, 14.55)" gradientUnits="userSpaceOnUse" id="gradient3" spreadMethod="pad" x1="-819.2" x2="819.2">
      <stop offset="0.0" stop-color="#ffffff"/>
      <stop offset="1.0" stop-color="#000000"/>
    </linearGradient>
    <g id="sprite7" transform="matrix(1.0, 0.0, 0.0, 1.0, 0.2, 0.0)">
      <use height="25.15" transform="matrix(1.0, 0.0, 0.0, 1.0, -0.2, 0.0)" width="4.7" xlink:href="#shape9"/>
    </g>
    <g id="shape9" transform="matrix(1.0, 0.0, 0.0, 1.0, 0.2, 0.0)">
      <path d="M2.0 0.5 L4.2 0.0 4.45 6.25 Q4.6 9.25 4.35 12.75 3.95 17.35 3.0 20.2 2.0 23.1 0.6 24.55 -0.9 26.1 0.45 23.6 2.25 20.15 2.25 15.55 L2.0 0.5" fill="url(#gradient4)" fill-rule="evenodd" stroke="none"/>
    </g>
    <linearGradient gradientTransform="matrix(0.0, 0.0113, 0.0113, 0.0, 2.25, 10.6)" gradientUnits="userSpaceOnUse" id="gradient4" spreadMethod="pad" x1="-819.2" x2="819.2">
      <stop offset="0.0" stop-color="#ffffff"/>
      <stop offset="1.0" stop-color="#000000"/>
    </linearGradient>
    <g id="shape10" transform="matrix(1.0, 0.0, 0.0, 1.0, -16.15, -7.3)">
      <path d="M32.7 9.4 Q32.7 10.25 30.3 10.9 L24.45 11.55 18.65 10.9 Q16.25 10.25 16.25 9.4 16.25 8.55 18.65 7.9 L24.45 7.3 30.3 7.9 Q32.7 8.55 32.7 9.4 M31.95 9.35 Q31.95 8.65 29.75 8.15 L24.5 7.7 19.25 8.15 Q17.1 8.65 17.1 9.35 17.1 10.0 19.25 10.5 L24.5 10.95 29.75 10.5 Q31.95 10.0 31.95 9.35" fill="#c9c9c9" fill-rule="evenodd" stroke="none"/>
      <path d="M32.6 9.05 Q32.85 13.4 32.65 18.05 32.25 27.25 29.85 30.8 27.95 33.75 27.35 36.45 27.0 37.85 27.1 38.6 27.1 39.6 24.6 39.6 L24.3 39.6 Q22.8 39.6 22.2 39.2 21.8 38.95 21.8 38.65 L21.55 36.45 Q20.9 33.75 19.0 30.8 16.8 27.5 16.3 19.1 16.0 14.3 16.25 9.35 L16.65 9.35 Q16.8 10.05 18.9 10.6 L24.45 11.15 30.05 10.55 Q32.25 9.95 32.25 9.2 L32.25 9.1 32.15 8.85 32.55 8.9 32.6 9.05 M24.45 11.55 Q20.25 11.55 17.75 10.6 L16.6 9.95 Q16.35 15.3 16.7 19.8 17.25 27.5 19.3 30.6 21.3 33.65 21.9 36.35 22.35 38.15 22.15 38.65 22.3 39.2 24.3 39.2 L24.6 39.2 26.25 39.0 26.7 38.6 Q26.65 37.8 27.0 36.35 27.6 33.6 29.55 30.6 31.65 27.5 32.2 19.7 32.55 14.75 32.25 9.95 31.5 10.7 29.2 11.15 L24.45 11.55" fill="#c9c9c9" fill-rule="evenodd" stroke="none"/>
      <path d="M22.4 12.8 Q22.7 12.8 22.65 13.15 L22.2 13.65 21.8 13.65 21.45 13.2 Q21.3 12.95 21.55 12.85 L22.4 12.8" fill="#e07b41" fill-rule="evenodd" stroke="none"/>
      <path d="M24.3 14.75 Q25.55 14.8 25.5 15.5 25.5 16.2 24.65 16.3 L23.85 16.15 23.4 15.55 Q23.15 15.25 23.45 15.0 L24.3 14.75" fill="#e07b41" fill-rule="evenodd" stroke="none"/>
      <path d="M26.55 14.6 L27.0 14.95 Q27.1 15.2 26.55 15.15 26.0 15.1 26.2 14.85 L26.55 14.6" fill="#e07b41" fill-rule="evenodd" stroke="none"/>
      <path d="M22.3 15.9 Q22.8 15.9 22.8 16.2 L22.4 16.7 22.1 16.75 21.6 16.4 Q21.25 16.25 21.6 16.05 L22.3 15.9" fill="#e07b41" fill-rule="evenodd" stroke="none"/>
    </g>
    <g id="sprite8" transform="matrix(1.0, 0.0, 0.0, 1.0, 0.0, 0.0)">
      <use height="1.3" transform="matrix(0.9737, 0.0, 0.0, 0.9615, 0.0, 0.0)" width="1.9" xlink:href="#shape11"/>
    </g>
    <g id="shape11" transform="matrix(1.0, 0.0, 0.0, 1.0, 0.0, 0.0)">
      <path d="M0.75 0.0 Q2.05 0.0 1.85 0.6 1.65 1.15 0.8 1.25 0.25 1.35 0.25 1.1 L0.15 0.5 Q-0.05 0.2 0.05 0.1 L0.75 0.0" fill="#8c471e" fill-rule="evenodd" stroke="none"/>
    </g>
    <g id="shape12" transform="matrix(1.0, 0.0, 0.0, 1.0, -14.25, -1.45)">
      <path d="M23.7 13.0 L24.6 13.15 Q25.05 13.35 24.45 13.45 23.15 13.7 23.05 13.05 22.95 12.75 23.15 12.85 L23.7 13.0" fill="#8c471e" fill-rule="evenodd" stroke="none"/>
      <path d="M22.95 14.0 Q23.8 14.0 23.6 14.2 L22.8 14.4 Q22.3 14.4 22.45 14.15 22.6 13.95 22.95 14.0" fill="#8c471e" fill-rule="evenodd" stroke="none"/>
      <path d="M26.25 16.1 L27.1 16.3 Q27.45 16.55 27.0 16.7 L26.55 16.8 25.85 16.55 Q25.3 16.4 25.55 16.25 L26.25 16.1" fill="#8c471e" fill-rule="evenodd" stroke="none"/>
      <path d="M23.15 16.55 Q23.8 16.55 23.55 16.7 L23.05 16.95 Q22.8 16.95 22.85 16.75 22.9 16.55 23.15 16.55" fill="#8c471e" fill-rule="evenodd" stroke="none"/>
      <path d="M22.05 14.75 Q23.55 14.9 23.1 15.2 L22.05 15.65 21.6 15.7 21.0 15.35 Q20.55 15.2 21.1 14.95 L22.05 14.75" fill="#8c471e" fill-rule="evenodd" stroke="none"/>
      <path d="M21.9 11.55 Q22.55 14.0 23.25 15.15 23.65 16.05 22.5 16.25 L21.65 16.15 21.4 15.95 20.05 11.3 21.9 11.55" fill="#bdaf93" fill-rule="evenodd" stroke="none"/>
      <path d="M21.75 4.05 Q21.35 4.85 20.55 4.75 L21.45 9.65 21.75 10.85 19.95 10.6 19.85 10.4 Q19.3 8.25 17.9 5.05 L15.0 5.15 Q14.25 5.0 14.25 4.4 14.25 4.1 14.55 3.15 15.15 1.55 16.6 1.75 L18.9 2.25 19.5 1.85 Q20.5 1.1 21.35 1.85 22.45 2.85 21.75 4.05" fill="#edcaa1" fill-rule="evenodd" stroke="none"/>
      <path d="M21.0 10.75 L19.95 10.6 19.85 10.4 Q19.3 8.25 17.9 5.05 L15.0 5.15 Q14.25 5.0 14.25 4.4 14.25 4.1 14.55 3.15 15.15 1.55 16.6 1.75 L18.25 2.1 16.15 2.4 Q15.05 3.35 15.7 4.45 16.05 4.95 17.1 4.85 L18.1 4.65 Q18.75 5.15 19.2 6.75 L20.15 9.2 21.0 10.75" fill="#ccae8b" fill-rule="evenodd" stroke="none"/>
      <path d="M19.65 2.9 L19.4 2.6 18.9 2.25 19.5 1.85 Q20.25 1.3 20.85 1.55 L20.9 1.65 20.35 1.95 19.8 2.55 19.65 2.9" fill="#edcaa1" fill-rule="evenodd" stroke="none"/>
      <path d="M20.7 2.2 L21.3 2.3 21.6 2.95 21.3 3.45 20.65 3.5 Q19.3 3.1 20.7 2.2" fill="#f5ebdf" fill-rule="evenodd" stroke="none"/>
      <path d="M16.45 2.9 Q16.85 2.6 17.35 2.6 17.85 2.6 18.0 2.9 18.2 3.15 17.9 3.45 L17.25 3.7 16.5 3.45 Q16.1 3.15 16.45 2.9" fill="#f5ebdf" fill-rule="evenodd" stroke="none"/>
      <path d="M19.6 4.85 Q20.2 4.4 20.35 6.35 20.4 8.0 20.8 9.05 L19.7 6.2 19.4 5.45 Q19.3 5.1 19.6 4.85" fill="#f5ebdf" fill-rule="evenodd" stroke="none"/>
    </g>
    <g id="sprite9" transform="matrix(1.0, 0.0, 0.0, 1.0, 0.05, 0.0)">
      <use height="4.9" transform="matrix(1.0, 0.0, 0.0, 1.0, -0.05, 0.0)" width="20.3" xlink:href="#shape13"/>
    </g>
    <g id="shape13" transform="matrix(1.0, 0.0, 0.0, 1.0, 0.05, 0.0)">
      <path d="M20.15 1.2 L18.9 2.4 Q17.0 3.7 14.05 4.5 L11.95 4.85 11.95 4.9 8.3 4.9 8.3 4.85 6.15 4.5 Q3.2 3.7 1.35 2.4 L0.05 1.2 Q-0.15 0.5 0.15 0.05 1.95 2.15 6.15 3.25 L8.3 3.6 8.3 3.65 11.95 3.65 11.95 3.6 14.05 3.25 Q18.4 2.1 20.15 0.0 20.4 0.4 20.15 1.2" fill="#5e473c" fill-rule="evenodd" stroke="none"/>
    </g>
    <g id="sprite10" transform="matrix(1.0, 0.0, 0.0, 1.0, 0.0, 0.0)">
      <use height="4.35" transform="matrix(1.0, 0.0, 0.0, 1.0, 0.0, 0.0)" width="20.05" xlink:href="#shape14"/>
    </g>
    <g id="shape14" transform="matrix(1.0, 0.0, 0.0, 1.0, 0.0, 0.0)">
      <path d="M14.0 3.25 Q16.7 2.55 18.45 1.4 19.65 0.65 20.05 0.0 L20.05 0.35 19.3 1.35 Q16.25 4.15 10.4 4.35 6.1 4.5 2.6 2.55 0.9 1.6 0.0 0.6 L0.0 0.0 0.05 0.0 Q1.75 2.1 6.1 3.25 L8.25 3.6 8.25 3.65 11.9 3.65 11.9 3.6 14.0 3.25" fill="#ffffff" fill-rule="evenodd" stroke="none"/>
    </g>
    <g id="sprite11" transform="matrix(1.0, 0.0, 0.0, 1.0, 0.0, 0.0)">
      <use height="8.5" transform="matrix(1.0, 0.0, 0.0, 1.0, 0.0, 0.0)" width="20.1" xlink:href="#shape15"/>
    </g>
    <g id="shape15" transform="matrix(1.0, 0.0, 0.0, 1.0, 0.0, 0.0)">
      <path d="M18.7 3.55 L20.1 4.8 18.85 6.0 Q16.95 7.3 14.0 8.1 L11.85 8.45 11.85 8.5 8.25 8.5 8.25 8.45 6.1 8.1 Q3.15 7.3 1.25 6.0 L0.0 4.8 1.4 3.55 Q2.5 2.75 7.45 0.6 L10.1 0.0 12.65 0.6 15.25 1.8 18.7 3.55" fill="url(#gradient5)" fill-rule="evenodd" stroke="none"/>
    </g>
    <linearGradient gradientTransform="matrix(0.0, 0.0051, 0.0051, 0.0, 10.05, 4.4)" gradientUnits="userSpaceOnUse" id="gradient5" spreadMethod="pad" x1="-819.2" x2="819.2">
      <stop offset="0.0" stop-color="#7a7a7a"/>
      <stop offset="1.0" stop-color="#ffffff"/>
    </linearGradient>
    <g id="sprite12" transform="matrix(1.0, 0.0, 0.0, 1.0, 0.0, 0.0)">
      <use height="7.7" transform="matrix(1.0, 0.0, 0.0, 1.0, 0.0, 0.0)" width="20.1" xlink:href="#shape16"/>
    </g>
    <g id="shape16" transform="matrix(1.0, 0.0, 0.0, 1.0, 0.0, 0.0)">
      <path d="M18.7 2.75 L20.1 4.0 18.85 5.2 Q16.95 6.5 14.0 7.3 L11.85 7.65 11.85 7.7 8.25 7.7 8.25 7.65 6.1 7.3 Q3.15 6.5 1.25 5.2 L0.0 4.0 1.4 2.75 Q2.25 2.15 6.85 0.0 L4.2 1.95 Q3.6 2.5 3.5 2.95 3.45 3.4 3.95 4.15 4.8 5.4 5.8 5.9 L9.15 6.55 14.0 6.05 Q16.55 5.4 17.65 4.25 18.5 3.4 17.65 2.15 L18.7 2.75" fill="#e3e3e3" fill-rule="evenodd" stroke="none"/>
    </g>
    <g id="sprite13" transform="matrix(1.0, 0.0, 0.0, 1.0, 0.0, 0.0)">
      <use height="41.1" transform="matrix(1.0, 0.0, 0.0, 1.0, 0.0, 0.0)" width="22.75" xlink:href="#shape17"/>
    </g>
    <g id="shape17" transform="matrix(1.0, 0.0, 0.0, 1.0, 0.0, 0.0)">
      <path d="M22.55 0.0 Q22.9 5.4 22.6 11.75 22.05 24.5 18.75 29.3 16.0 33.35 15.15 37.15 14.7 39.05 14.8 40.1 L14.4 40.6 11.4 41.1 11.3 41.1 8.35 40.6 7.9 40.1 Q8.0 39.05 7.6 37.15 6.7 33.35 4.0 29.3 0.9 24.8 0.2 13.3 -0.2 6.55 0.2 0.4 0.5 1.55 3.7 2.3 6.9 3.1 11.35 3.1 L19.25 2.25 Q22.55 1.4 22.55 0.2 L22.5 0.0 22.55 0.0" fill="#ffffff" fill-rule="evenodd" stroke="none"/>
    </g>
    <g id="shape18" transform="matrix(1.0, 0.0, 0.0, 1.0, -5.3, -18.35)">
      <path d="M21.45 18.5 L21.3 18.95 21.4 24.75 Q21.0 32.0 18.65 35.6 16.7 38.6 16.1 41.45 15.8 42.9 15.9 43.7 L15.6 44.05 Q15.0 44.45 13.5 44.45 L13.4 44.45 Q11.9 44.45 11.3 44.05 L11.0 43.7 Q11.1 42.9 10.8 41.45 10.15 38.6 8.2 35.6 6.0 32.15 5.45 26.2 5.15 22.85 5.4 19.1 5.75 20.6 13.4 20.6 L19.05 20.0 Q20.85 19.55 21.3 18.95 L21.3 18.35 21.45 18.5" fill="url(#gradient6)" fill-rule="evenodd" stroke="none"/>
    </g>
    <radialGradient cx="0" cy="0" gradientTransform="matrix(-3.0E-4, 0.0208, 0.0108, 2.0E-4, 10.9, 28.1)" gradientUnits="userSpaceOnUse" id="gradient6" r="819.2" spreadMethod="pad">
      <stop offset="0.0" stop-color="#ff6b2b"/>
      <stop offset="1.0" stop-color="#734216"/>
    </radialGradient>
    <g id="sprite14" transform="matrix(1.0, 0.0, 0.0, 1.0, 0.0, 0.0)">
      <use height="5.75" transform="matrix(1.0022, 0.0, 0.0, 1.0, 0.0, 0.0)" width="22.35" xlink:href="#shape6"/>
    </g>
    <g id="shape19" transform="matrix(1.0, 0.0, 0.0, 1.0, -5.35, -14.9)">
      <path d="M21.0 18.0 Q21.75 18.4 20.95 19.4 20.1 20.5 17.9 21.4 16.1 22.15 12.75 22.2 L7.5 21.6 Q5.35 20.9 5.35 19.1 5.35 18.8 6.15 18.65 L7.55 18.35 13.8 17.9 Q20.2 17.55 21.0 18.0" fill="#ffd396" fill-rule="evenodd" stroke="none"/>
      <path d="M7.95 43.8 L8.15 44.8 8.95 45.7 9.7 46.6 8.7 46.55 Q7.65 46.3 6.9 45.8 L6.1 45.0 Q5.95 44.7 6.95 44.05 7.95 43.4 7.95 43.8" fill="#e3e3e3" fill-rule="evenodd" stroke="none"/>
      <path d="M16.5 46.5 Q18.05 46.35 17.6 46.7 L16.15 47.3 Q15.4 47.4 15.75 47.0 16.05 46.55 16.5 46.5" fill="#e3e3e3" fill-rule="evenodd" stroke="none"/>
      <path d="M20.1 17.0 L21.1 17.6 21.3 18.45 20.85 19.25 Q20.25 19.8 18.6 20.6 L15.5 21.65 11.9 21.85 8.55 21.65 6.75 21.05 Q5.7 20.6 5.7 19.45 L6.05 18.75 6.3 18.5 6.25 18.25 5.85 17.3 Q5.85 17.15 6.15 16.95 L6.75 16.5 6.9 16.25 Q6.9 16.1 7.1 16.1 L9.1 16.25 Q9.5 16.4 9.75 16.65 L10.15 17.05 Q10.75 17.45 11.1 17.05 L11.65 16.2 Q11.85 15.9 12.6 15.5 13.25 15.2 13.75 15.05 L14.45 14.9 14.9 15.0 15.7 15.65 16.55 16.55 Q16.8 16.9 18.15 16.95 L20.1 17.0" fill="url(#gradient7)" fill-rule="evenodd" stroke="none"/>
    </g>
    <radialGradient cx="0" cy="0" gradientTransform="matrix(0.0171, -7.0E-4, -7.0E-4, -0.0171, 6.9, 19.1)" gradientUnits="userSpaceOnUse" id="gradient7" r="819.2" spreadMethod="pad">
      <stop offset="0.0" stop-color="#ff6b2b"/>
      <stop offset="1.0" stop-color="#734216"/>
    </radialGradient>
    <g id="sprite15" transform="matrix(1.0, 0.0, 0.0, 1.0, -0.05, 0.0)">
      <use height="3.45" transform="matrix(1.0, 0.0, 0.0, 1.0, 0.05, 0.0)" width="2.75" xlink:href="#shape20"/>
    </g>
    <g id="shape20" transform="matrix(1.0, 0.0, 0.0, 1.0, -0.05, 0.0)">
      <path d="M2.7 2.4 Q2.9 2.9 2.7 3.0 L1.85 3.35 0.9 3.4 Q0.55 3.25 0.3 2.65 -0.05 1.45 0.05 1.25 L1.65 0.05 Q1.95 -0.15 2.15 0.45 L2.4 1.5 2.7 2.4" fill="#f8bca1" fill-rule="evenodd" stroke="none"/>
    </g>
    <g id="shape21" transform="matrix(1.0, 0.0, 0.0, 1.0, -8.3, -15.8)">
      <path d="M12.0 15.8 Q12.85 15.75 13.2 16.3 13.6 16.85 13.2 17.15 12.55 17.75 12.0 17.55 L11.5 17.4 11.3 17.15 Q11.45 15.85 12.0 15.8" fill="#e07b41" fill-rule="evenodd" stroke="none"/>
      <path d="M16.9 17.8 Q17.8 17.9 18.0 18.35 18.2 18.8 17.85 19.1 L17.4 19.3 16.95 19.1 15.75 18.65 Q15.3 18.55 15.6 18.25 16.0 17.75 16.9 17.8" fill="#e07b41" fill-rule="evenodd" stroke="none"/>
      <path d="M12.35 19.25 L12.75 19.45 13.05 20.0 13.7 20.5 13.0 20.75 12.15 20.75 11.3 20.0 11.3 19.45 Q11.35 19.15 12.35 19.25" fill="#e07b41" fill-rule="evenodd" stroke="none"/>
      <path d="M9.2 19.85 L9.65 20.4 9.3 20.9 Q8.85 21.1 8.65 20.9 L8.3 20.4 Q8.7 19.65 9.2 19.85" fill="#e07b41" fill-rule="evenodd" stroke="none"/>
    </g>
    <g id="sprite16" transform="matrix(1.0, 0.0, 0.0, 1.0, 0.0, 0.0)">
      <use height="1.75" transform="matrix(1.0, 0.0, 0.0, 1.0, 0.0, 0.0)" width="2.25" xlink:href="#shape22"/>
    </g>
    <g id="shape22" transform="matrix(1.0, 0.0, 0.0, 1.0, 0.0, 0.0)">
      <path d="M0.55 0.0 L1.3 0.25 1.8 0.55 2.25 1.1 Q2.15 1.4 1.4 1.5 L0.0 1.75 Q0.5 1.55 0.65 1.05 L0.55 0.0" fill="#8c471e" fill-rule="evenodd" stroke="none"/>
    </g>
    <g id="sprite17" transform="matrix(1.0, 0.0, 0.0, 1.0, 0.0, 0.0)">
      <use height="1.55" transform="matrix(1.0227, 0.0, 0.0, 1.0, 0.0, 0.0)" width="2.2" xlink:href="#shape23"/>
    </g>
    <g id="shape23" transform="matrix(1.0, 0.0, 0.0, 1.0, 0.0, 0.0)">
      <path d="M0.0 1.5 Q0.75 1.0 0.85 0.5 L1.0 0.0 1.8 0.1 2.2 0.25 1.7 0.7 0.9 1.4 0.0 1.5" fill="#8c471e" fill-rule="evenodd" stroke="none"/>
    </g>
    <g id="sprite18" transform="matrix(1.0, 0.0, 0.0, 1.0, 0.0, 0.0)">
      <use height="3.05" transform="matrix(1.0, 0.0, 0.0, 1.0, 0.0, 0.0)" width="3.35" xlink:href="#shape24"/>
    </g>
    <g id="shape24" transform="matrix(1.0, 0.0, 0.0, 1.0, 0.0, 0.0)">
      <path d="M2.55 1.45 L3.15 2.15 3.3 2.6 1.45 2.95 0.15 3.05 Q-0.05 2.95 0.05 2.6 L0.2 1.65 Q0.2 0.85 0.6 0.15 0.75 -0.05 0.85 0.05 L1.2 0.5 1.4 0.7 2.55 1.45" fill="#8c471e" fill-rule="evenodd" stroke="none"/>
    </g>
    <g id="sprite19" transform="matrix(1.0, 0.0, 0.0, 1.0, 0.0, 0.0)">
      <use height="1.0" transform="matrix(1.0, 0.0, 0.0, 0.95, 0.0, 0.0)" width="2.0" xlink:href="#shape25"/>
    </g>
    <g id="shape25" transform="matrix(1.0, 0.0, 0.0, 1.0, 0.0, 0.0)">
      <path d="M1.0 0.0 Q2.85 0.1 1.35 0.85 0.55 1.25 0.05 0.45 -0.25 0.0 1.0 0.0" fill="#8c471e" fill-rule="evenodd" stroke="none"/>
    </g>
    <g id="sprite20" transform="matrix(1.0, 0.0, 0.0, 1.0, 0.0, 0.0)">
      <use height="0.75" transform="matrix(0.946, 0.0, 0.0, 0.9333, 0.0027, -0.0033)" width="1.85" xlink:href="#shape26"/>
    </g>
    <g id="shape26" transform="matrix(1.0, 0.0, 0.0, 1.0, 0.05, -0.05)">
      <path d="M1.2 0.05 Q2.1 0.0 1.65 0.45 1.2 0.9 0.45 0.8 -0.3 0.65 0.1 0.35 0.55 0.05 1.2 0.05" fill="#8c471e" fill-rule="evenodd" stroke="none"/>
    </g>
    <g id="sprite21" transform="matrix(1.0, 0.0, 0.0, 1.0, -0.05, -0.05)">
      <use height="0.85" transform="matrix(1.0, 0.0, 0.0, 1.0, 0.05, 0.05)" width="3.0" xlink:href="#shape27"/>
    </g>
    <g id="shape27" transform="matrix(1.0, 0.0, 0.0, 1.0, -0.05, -0.05)">
      <path d="M1.9 0.05 Q3.45 0.1 2.9 0.4 L1.65 0.85 Q0.6 1.0 0.1 0.35 -0.25 -0.05 1.9 0.05" fill="#8c471e" fill-rule="evenodd" stroke="none"/>
    </g>
    <g id="sprite22" transform="matrix(1.0, 0.0, 0.0, 1.0, 0.0, 0.0)">
      <use height="0.75" transform="matrix(0.973, 0.0, 0.0, 1.0667, 0.0014, 0.0033)" width="1.85" xlink:href="#shape26"/>
    </g>
    <g id="sprite23" transform="matrix(1.0, 0.0, 0.0, 1.0, 0.0, 0.0)">
      <use height="1.25" transform="matrix(1.0, 0.0, 0.0, 1.0, 0.0, 0.0)" width="2.9" xlink:href="#shape28"/>
    </g>
    <g id="shape28" transform="matrix(1.0, 0.0, 0.0, 1.0, 0.0, 0.0)">
      <path d="M2.85 0.45 Q3.1 0.95 2.5 1.15 L1.7 1.2 0.5 0.65 Q-0.9 0.1 1.75 0.0 2.6 -0.05 2.85 0.45" fill="#8c471e" fill-rule="evenodd" stroke="none"/>
    </g>
    <g id="sprite24" transform="matrix(1.0, 0.0, 0.0, 1.0, 0.0, 0.0)">
      <use height="1.0" transform="matrix(0.875, 0.0, 0.0, 0.8, 0.0, 0.0)" width="2.0" xlink:href="#shape25"/>
    </g>
    <g id="sprite25" transform="matrix(1.0, 0.0, 0.0, 1.0, -0.05, 0.0)">
      <use height="1.8" transform="matrix(1.0, 0.0, 0.0, 1.0, 0.05, 0.0)" width="3.25" xlink:href="#shape29"/>
    </g>
    <g id="shape29" transform="matrix(1.0, 0.0, 0.0, 1.0, -0.05, 0.0)">
      <path d="M2.5 0.2 Q3.25 0.2 3.3 0.75 3.35 1.2 2.9 1.55 L0.55 1.65 Q-0.25 1.5 0.2 0.95 L0.75 0.15 Q0.65 -0.05 1.25 0.05 L2.5 0.2" fill="#8c471e" fill-rule="evenodd" stroke="none"/>
    </g>
    <g id="sprite26" transform="matrix(1.0, 0.0, 0.0, 1.0, -0.05, 0.0)">
      <use height="29.7" transform="matrix(1.0, 0.0, 0.0, 1.0, 0.05, 0.0)" width="7.5" xlink:href="#shape30"/>
    </g>
    <g id="shape30" transform="matrix(1.0, 0.0, 0.0, 1.0, -0.05, 0.0)">
      <path d="M0.15 0.0 L4.5 1.5 Q7.15 17.5 7.5 25.25 7.75 30.1 6.35 29.65 L4.9 28.25 3.9 26.75 Q2.95 25.3 1.95 22.35 0.75 18.6 0.4 14.75 0.05 10.9 0.05 5.5 L0.15 0.0" fill="url(#gradient8)" fill-rule="evenodd" stroke="none"/>
    </g>
    <linearGradient gradientTransform="matrix(0.004, 0.0, 0.0, -0.004, 1.3, 14.85)" gradientUnits="userSpaceOnUse" id="gradient8" spreadMethod="pad" x1="-819.2" x2="819.2">
      <stop offset="0.0" stop-color="#ffffff"/>
      <stop offset="1.0" stop-color="#000000"/>
    </linearGradient>
    <g id="sprite27" transform="matrix(1.0, 0.0, 0.0, 1.0, 0.2, 0.0)">
      <use height="25.7" transform="matrix(1.0, 0.0, 0.0, 1.0, -0.2, 0.0)" width="4.85" xlink:href="#shape31"/>
    </g>
    <g id="shape31" transform="matrix(1.0, 0.0, 0.0, 1.0, 0.2, 0.0)">
      <path d="M2.1 0.5 L4.35 0.0 4.6 6.35 Q4.9 15.4 3.1 20.6 2.1 23.6 0.65 25.1 -0.9 26.7 0.45 24.1 2.35 20.5 2.35 15.85 L2.1 0.5" fill="url(#gradient9)" fill-rule="evenodd" stroke="none"/>
    </g>
    <linearGradient gradientTransform="matrix(0.0, 0.0115, 0.0115, 0.0, 2.3, 10.8)" gradientUnits="userSpaceOnUse" id="gradient9" spreadMethod="pad" x1="-819.2" x2="819.2">
      <stop offset="0.0" stop-color="#ffffff"/>
      <stop offset="1.0" stop-color="#000000"/>
    </linearGradient>
    <g id="shape32" transform="matrix(1.0, 0.0, 0.0, 1.0, -4.85, -5.65)">
      <path d="M8.1 12.5 Q5.85 12.95 5.85 13.7 5.85 14.4 8.1 14.9 L13.45 15.35 18.8 14.9 Q21.0 14.4 21.0 13.7 21.0 12.95 18.8 12.5 L13.45 12.0 8.1 12.5 M4.95 13.75 Q4.95 12.9 7.45 12.25 L13.35 11.6 19.3 12.25 Q21.75 12.9 21.75 13.75 21.75 14.65 19.3 15.3 L13.35 15.95 7.45 15.3 Q4.95 14.65 4.95 13.75" fill="#c9c9c9" fill-rule="evenodd" stroke="none"/>
      <path d="M21.7 13.4 Q22.0 17.85 21.75 22.55 21.3 32.0 18.9 35.65 16.95 38.6 16.35 41.45 16.0 42.8 16.05 43.65 L15.7 44.2 13.5 44.6 13.2 44.6 Q11.65 44.6 11.0 44.2 10.65 43.95 10.65 43.65 L10.4 41.45 Q9.75 38.6 7.8 35.65 5.55 32.25 5.0 23.7 4.7 18.9 5.0 13.7 L5.35 13.7 Q5.55 14.4 7.65 15.0 L13.35 15.6 19.1 14.95 Q21.3 14.35 21.3 13.55 L21.3 13.45 21.25 13.2 21.65 13.25 21.7 13.4 M13.35 15.95 Q8.9 15.95 6.55 15.0 L5.35 14.3 Q5.1 19.55 5.4 24.35 6.0 32.25 8.1 35.45 10.1 38.5 10.75 41.3 L11.0 43.7 11.5 44.0 13.2 44.25 13.5 44.25 Q15.6 44.25 15.7 43.65 15.6 42.75 15.95 41.3 16.6 38.45 18.6 35.45 20.7 32.25 21.3 24.3 21.6 19.3 21.35 14.3 20.6 15.05 18.2 15.5 L13.35 15.95" fill="#c9c9c9" fill-rule="evenodd" stroke="none"/>
      <path d="M17.45 19.45 Q18.35 19.35 18.1 19.85 17.8 20.35 17.05 20.45 L16.55 20.35 16.65 19.65 Q16.6 19.25 16.9 19.35 L17.45 19.45" fill="#8a461e" fill-rule="evenodd" stroke="none"/>
      <path d="M16.5 15.8 L18.3 15.5 16.95 20.15 Q16.6 20.6 15.9 20.5 14.75 20.25 15.15 19.4 15.8 18.2 16.5 15.8" fill="#bdaf93" fill-rule="evenodd" stroke="none"/>
      <path d="M23.85 7.4 L24.15 8.65 Q24.1 9.2 23.35 9.35 L21.5 9.45 20.5 9.3 Q19.1 12.5 18.55 14.6 L18.45 14.8 16.65 15.05 16.95 13.85 Q17.7 10.6 17.85 8.95 17.05 9.05 16.6 8.25 15.95 7.05 17.05 6.1 17.55 5.65 18.0 5.65 18.4 5.7 18.9 6.05 L19.5 6.5 21.8 5.95 Q23.25 5.75 23.85 7.4" fill="#edcaa1" fill-rule="evenodd" stroke="none"/>
      <path d="M23.35 9.35 L21.5 9.45 20.5 9.3 Q19.1 12.5 18.55 14.6 L18.45 14.8 17.4 15.0 Q18.9 12.1 19.2 11.0 19.65 9.35 20.3 8.85 22.2 9.5 22.65 8.65 23.35 7.65 22.25 6.6 L21.15 6.35 20.1 6.3 21.8 5.95 Q23.25 5.75 23.85 7.4 L24.15 8.65 Q24.1 9.2 23.35 9.35" fill="#ccae8b" fill-rule="evenodd" stroke="none"/>
      <path d="M18.75 7.1 Q18.6 6.5 18.05 6.2 L17.5 5.85 17.55 5.75 Q18.15 5.5 18.9 6.05 L19.5 6.5 19.0 6.85 18.75 7.1" fill="#edcaa1" fill-rule="evenodd" stroke="none"/>
      <path d="M17.7 6.4 Q18.55 6.95 18.4 7.35 18.3 7.6 17.75 7.7 L17.1 7.7 Q16.8 7.5 16.8 7.15 L17.1 6.55 17.7 6.4" fill="#f5ebdf" fill-rule="evenodd" stroke="none"/>
      <path d="M21.9 7.1 Q22.25 7.4 21.9 7.65 L21.15 7.9 20.5 7.65 Q20.2 7.4 20.4 7.1 20.55 6.8 21.0 6.8 21.5 6.8 21.9 7.1" fill="#f5ebdf" fill-rule="evenodd" stroke="none"/>
      <path d="M18.8 9.1 Q19.1 9.35 19.0 9.7 L18.7 10.4 17.65 13.1 18.05 10.6 Q18.15 8.6 18.8 9.1" fill="#f5ebdf" fill-rule="evenodd" stroke="none"/>
    </g>
  </defs>
</svg>
