<?xml version="1.0" encoding="UTF-8" standalone="no"?>
<svg xmlns:xlink="http://www.w3.org/1999/xlink" height="50.75px" width="137.05px" xmlns="http://www.w3.org/2000/svg">
  <g transform="matrix(1.0, 0.0, 0.0, 1.0, 0.0, 0.0)">
    <use height="50.75" transform="matrix(1.0, 0.0, 0.0, 1.0, 0.0, 0.0)" width="137.05" xlink:href="#shape0"/>
  </g>
  <defs>
    <g id="shape0" transform="matrix(1.0, 0.0, 0.0, 1.0, 0.0, 0.0)">
      <path d="M3.0 12.3 Q4.0 11.75 5.35 11.3 12.85 8.6 13.35 8.1 L16.7 6.8 Q17.95 6.55 19.45 5.35 L22.05 3.55 Q23.8 2.7 27.9 2.8 33.3 2.8 39.35 4.15 L44.4 5.3 Q47.25 6.0 49.2 6.95 51.0 7.8 51.85 8.7 50.6 11.7 46.55 13.8 42.6 15.85 38.95 15.45 34.3 15.0 30.3 13.45 27.15 12.25 22.35 9.45 20.6 8.45 18.85 9.0 17.75 9.35 15.25 10.65 10.3 12.85 6.05 13.1 4.3 13.25 3.0 12.3 M52.0 8.8 L52.35 9.3 52.55 9.75 52.55 9.85 52.0 8.8 M54.25 12.05 L59.35 7.85 Q63.3 4.6 66.7 2.85 70.9 0.65 75.1 0.15 L84.95 0.5 94.65 2.3 Q99.8 3.25 107.8 6.7 117.0 10.6 120.7 11.65 L122.55 11.95 121.95 11.9 Q121.45 13.3 119.9 14.45 113.45 18.9 102.65 19.9 L84.25 20.6 Q74.05 21.2 68.05 20.6 58.4 19.65 52.85 15.75 L51.5 14.45 51.85 14.1 54.25 12.05 M132.8 15.3 L133.3 16.3 133.2 16.1 133.2 16.0 132.8 15.3 M133.7 18.25 L133.25 19.65 132.5 20.65 133.7 18.25 M2.05 17.1 L1.4 16.95 2.95 17.2 2.05 17.1 M47.2 22.15 L47.2 21.65 47.2 22.05 47.2 22.15 M47.2 21.2 Q47.3 20.3 47.8 19.25 L47.55 19.85 47.2 21.2 M22.85 41.2 Q23.25 40.35 24.45 39.25 26.05 37.75 27.35 37.25 28.6 36.75 31.0 36.55 L34.7 36.15 40.4 35.25 Q44.05 35.2 45.4 37.35 44.5 36.0 42.65 35.5 43.3 37.5 42.5 39.2 41.65 41.05 39.35 41.6 30.8 43.5 22.85 41.2 M45.8 41.45 L45.7 41.9 45.6 42.1 45.8 41.45" fill="#dddee0" fill-rule="evenodd" stroke="none"/>
      <path d="M3.0 12.3 Q4.3 13.25 6.05 13.1 10.3 12.85 15.25 10.65 17.75 9.35 18.85 9.0 20.6 8.45 22.35 9.45 27.15 12.25 30.3 13.45 34.3 15.0 38.95 15.45 42.6 15.85 46.55 13.8 50.6 11.7 51.85 8.7 L51.85 8.65 52.0 8.8 52.55 9.85 52.6 9.95 52.6 10.0 52.7 10.5 52.75 11.7 52.6 13.35 50.3 14.0 Q48.95 14.3 48.2 14.9 47.7 15.3 47.2 16.35 46.8 17.15 45.9 17.5 L44.3 17.55 42.7 17.4 Q41.55 17.5 39.35 18.5 L38.0 19.05 36.05 19.45 33.25 19.0 33.15 18.95 32.65 18.8 29.35 17.6 Q27.3 16.85 24.35 16.65 L14.8 16.9 14.75 16.9 12.35 17.15 11.35 17.2 11.15 17.25 2.95 17.2 1.4 16.95 0.25 16.7 0.1 16.65 Q-0.5 14.15 3.0 12.3 M122.55 11.95 L125.75 12.25 126.0 12.3 126.35 12.3 Q129.0 12.55 130.65 13.45 L131.0 13.65 132.0 14.6 Q130.1 17.5 126.7 16.95 124.15 16.5 121.35 19.35 L116.75 23.8 Q113.15 25.95 108.65 25.95 L100.2 24.9 89.1 24.25 77.9 24.55 52.7 23.1 Q50.8 22.85 49.55 21.6 48.45 20.5 48.15 18.85 L51.5 14.45 52.85 15.75 Q58.4 19.65 68.05 20.6 74.05 21.2 84.25 20.6 L102.65 19.9 Q113.45 18.9 119.9 14.45 121.45 13.3 121.95 11.9 L122.55 11.95 M132.65 15.15 L132.8 15.3 133.2 16.0 132.65 15.15 M47.8 19.25 L47.9 19.15 47.55 19.85 47.8 19.25 M22.85 41.2 Q30.8 43.5 39.35 41.6 41.65 41.05 42.5 39.2 43.3 37.5 42.65 35.5 44.5 36.0 45.4 37.35 L45.75 38.0 45.8 38.1 45.8 38.15 45.85 38.3 45.8 41.45 45.6 42.1 Q44.65 44.8 42.75 45.95 40.25 47.5 35.75 46.6 L35.65 46.6 35.0 46.45 34.55 46.35 29.0 44.85 28.7 44.75 24.95 44.4 24.15 44.2 Q22.7 43.6 22.65 42.1 22.6 41.8 22.85 41.2" fill="#ced1d6" fill-rule="evenodd" stroke="none"/>
      <path d="M115.45 35.5 L112.7 35.8 113.25 35.7 115.45 35.5 M99.75 40.95 L94.85 41.25 95.65 41.25 94.8 38.6 Q93.8 35.15 92.8 29.75 L95.55 30.05 98.4 30.0 Q100.1 30.1 100.9 31.1 101.55 31.95 101.35 34.2 L100.85 37.6 Q100.5 40.0 97.8 41.2 L99.75 40.95 M85.15 37.8 L84.05 37.4 83.85 37.35 83.85 37.2 83.95 32.25 Q83.95 30.1 83.55 28.5 L84.0 28.6 85.55 28.85 Q85.9 31.6 85.45 35.2 L85.15 37.8 M62.8 34.45 L59.55 34.65 54.2 34.3 54.0 34.25 53.85 32.05 Q53.85 27.6 54.4 25.85 L54.6 25.3 60.75 24.8 62.05 24.75 Q62.35 26.35 62.35 29.65 L60.9 34.55 62.8 34.45 M46.55 22.5 L42.0 24.0 Q38.5 24.7 34.25 24.15 L24.7 22.4 21.2 21.6 22.5 21.85 Q24.3 21.3 25.25 20.5 L27.45 17.7 31.4 18.7 34.35 20.1 36.0 20.7 Q36.7 21.1 36.9 22.1 37.0 22.85 36.55 23.45 L35.9 24.3 40.8 24.15 Q43.8 23.75 46.55 22.45 L46.55 22.5 M15.4 20.35 L15.25 20.3 8.7 20.05 Q4.15 20.25 2.15 19.95 1.95 18.25 2.05 17.1 L2.95 17.2 11.15 17.25 11.35 17.2 12.35 17.15 14.75 16.9 14.8 16.9 14.85 17.35 15.4 20.35 M24.3 45.3 L24.15 44.35 24.15 44.2 24.95 44.4 28.7 44.75 29.0 44.85 34.55 46.35 Q33.6 47.65 32.15 48.1 30.25 48.7 28.35 47.45 26.5 46.15 24.3 45.3 M68.65 24.6 L69.0 24.6 69.1 24.6 70.7 24.75 Q72.3 25.0 75.05 26.0 L77.8 27.0 77.95 27.55 Q78.65 29.65 78.3 30.75 77.8 32.55 75.7 32.9 L72.15 33.1 66.2 34.3 Q67.45 27.45 68.65 24.6" fill="#797061" fill-rule="evenodd" stroke="none"/>
      <path d="M112.7 35.8 Q108.7 36.55 105.2 38.75 L99.75 40.95 97.8 41.2 Q100.5 40.0 100.85 37.6 L101.35 34.2 Q101.55 31.95 100.9 31.1 100.1 30.1 98.4 30.0 L95.55 30.05 92.8 29.75 92.45 27.4 94.05 27.35 96.05 27.45 100.15 27.5 104.05 28.1 112.1 30.55 Q115.6 31.05 118.45 29.25 L118.3 29.95 Q117.9 31.45 116.1 33.05 L113.25 35.7 112.7 35.8 M83.85 37.35 L83.85 37.4 79.05 36.8 78.25 36.75 72.3 35.75 66.3 34.6 66.1 34.55 66.2 34.3 72.15 33.1 75.7 32.9 Q77.8 32.55 78.3 30.75 78.65 29.65 77.95 27.55 L77.8 27.0 79.35 27.45 83.55 28.5 Q83.95 30.1 83.95 32.25 L83.85 37.2 83.85 37.35 M21.2 21.6 L18.1 20.95 15.4 20.35 14.85 17.35 14.8 16.9 24.35 16.65 27.45 17.7 25.25 20.5 Q24.3 21.3 22.5 21.85 L21.2 21.6 M38.0 19.05 L38.75 19.1 40.5 19.45 40.85 21.1 40.85 22.6 40.8 24.15 35.9 24.3 36.55 23.45 Q37.0 22.85 36.9 22.1 36.7 21.1 36.0 20.7 L34.35 20.1 31.4 18.7 33.15 18.95 33.25 19.0 36.05 19.45 38.0 19.05 M45.7 41.9 Q45.3 48.7 40.6 50.3 36.3 51.75 28.7 48.75 24.95 47.3 24.3 45.3 26.5 46.15 28.35 47.45 30.25 48.7 32.15 48.1 33.6 47.65 34.55 46.35 L35.0 46.45 35.65 46.6 35.75 46.6 Q40.25 47.5 42.75 45.95 44.65 44.8 45.6 42.1 L45.7 41.9 M62.8 34.45 L60.9 34.55 62.35 29.65 62.8 34.45" fill="#635b4f" fill-rule="evenodd" stroke="none"/>
      <path d="M52.55 9.75 L54.25 12.05 51.85 14.1 51.5 14.45 48.15 18.85 48.1 18.75 47.9 19.15 47.8 19.25 Q47.3 20.3 47.2 21.2 L47.2 21.65 47.2 22.15 46.55 22.45 Q43.8 23.75 40.8 24.15 L40.85 22.6 40.85 21.1 40.5 19.45 38.75 19.1 38.0 19.05 39.35 18.5 Q41.55 17.5 42.7 17.4 L44.3 17.55 45.9 17.5 Q46.8 17.15 47.2 16.35 47.7 15.3 48.2 14.9 48.95 14.3 50.3 14.0 L52.6 13.35 52.75 11.7 52.7 10.5 52.6 10.0 52.6 9.95 52.55 9.85 52.55 9.75 M133.25 19.65 L133.95 20.4 Q136.1 22.95 136.7 24.95 137.25 26.85 136.9 30.3 135.55 30.25 133.9 30.95 L131.0 32.15 Q127.4 33.6 120.8 34.7 L115.45 35.5 113.25 35.7 116.1 33.05 Q117.9 31.45 118.3 29.95 L118.45 29.25 119.9 28.1 Q120.75 27.35 121.9 24.95 122.9 22.75 124.0 22.1 125.15 21.35 128.4 21.55 131.4 21.75 132.5 20.65 L133.25 19.65 M27.45 17.7 L24.35 16.65 Q27.3 16.85 29.35 17.6 L32.65 18.8 33.15 18.95 31.4 18.7 27.45 17.7" fill="#504a3f" fill-rule="evenodd" stroke="none"/>
      <path d="M132.0 14.6 L132.05 14.5 132.65 15.15 133.2 16.0 133.2 16.1 133.3 16.3 133.4 16.5 133.65 17.4 133.7 18.2 133.7 18.25 132.5 20.65 Q131.4 21.75 128.4 21.55 125.15 21.35 124.0 22.1 122.9 22.75 121.9 24.95 120.75 27.35 119.9 28.1 L118.45 29.25 Q115.6 31.05 112.1 30.55 L104.05 28.1 100.15 27.5 96.05 27.45 94.05 27.35 92.45 27.4 92.05 27.45 90.3 28.15 88.7 28.85 Q87.5 29.05 85.55 28.85 L84.0 28.6 83.55 28.5 79.35 27.45 77.8 27.0 75.05 26.0 Q72.3 25.0 70.7 24.75 L69.1 24.6 69.0 24.6 68.65 24.6 68.1 24.55 66.3 24.6 65.75 24.6 62.05 24.75 60.75 24.8 54.6 25.3 52.95 25.45 Q47.6 25.4 47.2 22.15 L47.2 22.05 47.2 21.65 47.2 21.2 47.55 19.85 47.9 19.15 48.1 18.75 48.15 18.85 Q48.45 20.5 49.55 21.6 50.8 22.85 52.7 23.1 L77.9 24.55 89.1 24.25 100.2 24.9 108.65 25.95 Q113.15 25.95 116.75 23.8 L121.35 19.35 Q124.15 16.5 126.7 16.95 130.1 17.5 132.0 14.6" fill="#abb5c0" fill-rule="evenodd" stroke="none"/>
      <path d="M94.85 41.25 L90.05 40.25 89.15 39.9 87.75 39.2 87.5 39.05 87.25 38.9 87.0 38.75 85.8 38.1 85.15 37.8 85.45 35.2 Q85.9 31.6 85.55 28.85 87.5 29.05 88.7 28.85 L90.3 28.15 92.05 27.45 92.45 27.4 92.8 29.75 Q93.8 35.15 94.8 38.6 L95.65 41.25 94.85 41.25 M66.1 34.55 L65.05 34.45 64.15 34.45 63.35 34.45 62.8 34.45 62.35 29.65 Q62.35 26.35 62.05 24.75 L65.75 24.6 66.3 24.6 68.1 24.55 68.65 24.6 Q67.45 27.45 66.2 34.3 L66.1 34.55 M54.0 34.25 L52.6 33.75 Q50.1 32.75 48.5 31.3 L47.85 30.65 47.65 30.4 47.6 30.35 47.4 30.1 46.9 29.35 Q45.45 26.8 46.25 23.5 L46.55 22.5 46.55 22.45 47.2 22.15 Q47.6 25.4 52.95 25.45 L54.6 25.3 54.4 25.85 Q53.85 27.6 53.85 32.05 L54.0 34.25" fill="#867b6c" fill-rule="evenodd" stroke="none"/>
    </g>
  </defs>
</svg>
