<?xml version="1.0" encoding="UTF-8" standalone="no"?>
<svg xmlns:xlink="http://www.w3.org/1999/xlink" height="369.25px" width="278.25px" xmlns="http://www.w3.org/2000/svg">
  <g transform="matrix(1.0, 0.0, 0.0, 1.0, 0.0, 0.0)">
    <use height="37.95" transform="matrix(1.0, 0.0, 0.0, 1.0, 4.1, 331.3)" width="264.0" xlink:href="#shape0"/>
    <use height="28.15" transform="matrix(0.9697, 0.0, 0.0, 1.0, 52.4, 327.8)" width="199.5" xlink:href="#sprite0"/>
    <use height="355.9" transform="matrix(1.0, 0.0, 0.0, 1.0, 36.2, 0.0)" width="203.1" xlink:href="#shape2"/>
    <use height="41.0" transform="matrix(1.0, 0.0, 0.0, 1.0, 41.3, 1.6)" width="191.25" xlink:href="#sprite1"/>
    <use height="301.5" transform="matrix(1.0, 0.0, 0.0, 1.0, 38.15, 33.65)" width="197.4" xlink:href="#shape4"/>
    <use height="7.65" transform="matrix(1.0, 0.0, 0.0, 1.0, 38.15, 33.65)" width="197.4" xlink:href="#sprite2"/>
    <use height="268.0" transform="matrix(1.0, 0.0, 0.0, 1.0, 49.65, 51.05)" width="176.95" xlink:href="#shape6"/>
    <use height="265.05" transform="matrix(1.0327, 0.0, 0.0, 1.0111, 49.7, 51.05)" width="171.35" xlink:href="#sprite3"/>
    <use height="273.2" transform="matrix(1.0, 0.0, 0.0, 1.0, 1.9, 51.05)" width="224.7" xlink:href="#shape8"/>
    <use height="270.4" transform="matrix(1.0, 0.0, 0.0, 1.007, 8.25, 51.9)" width="44.3" xlink:href="#sprite4"/>
    <use height="165.1" transform="matrix(1.0, 0.0, 0.0, 1.0, 22.95, 100.75)" width="20.65" xlink:href="#shape10"/>
    <use height="161.7" transform="matrix(1.0, 0.0, 0.0, 1.007, 21.25, 100.75)" width="21.5" xlink:href="#sprite5"/>
    <use height="273.0" transform="matrix(1.0, 0.0, 0.0, 1.0, 6.25, 51.25)" width="266.8" xlink:href="#shape12"/>
    <use height="270.4" transform="matrix(1.0, 0.0, 0.0, 1.007, 222.4, 51.9)" width="44.25" xlink:href="#sprite6"/>
    <use height="165.1" transform="matrix(1.0, 0.0, 0.0, 1.0, 231.35, 100.75)" width="20.65" xlink:href="#shape14"/>
    <use height="161.7" transform="matrix(1.0, 0.0, 0.0, 1.007, 232.2, 100.75)" width="21.5" xlink:href="#sprite7"/>
    <use height="238.45" transform="matrix(1.0, 0.0, 0.0, 1.0, 266.7, 69.55)" width="2.0" xlink:href="#shape16"/>
  </g>
  <defs>
    <g id="shape0" transform="matrix(1.0, 0.0, 0.0, 1.0, -4.1, -331.3)">
      <path d="M42.75 336.85 Q81.45 331.3 136.15 331.3 190.8 331.3 229.45 336.85 268.1 342.45 268.1 350.3 268.1 358.15 229.45 363.7 190.8 369.25 136.15 369.25 81.5 369.25 42.75 363.7 4.1 358.15 4.1 350.3 4.1 342.45 42.75 336.85" fill="url(#gradient0)" fill-rule="evenodd" stroke="none"/>
    </g>
    <radialGradient cx="0" cy="0" gradientTransform="matrix(0.1611, 0.0, 0.0, -0.0231, 136.15, 350.3)" gradientUnits="userSpaceOnUse" id="gradient0" r="819.2" spreadMethod="pad">
      <stop offset="0.0" stop-color="#000000" stop-opacity="0.4392157"/>
      <stop offset="1.0" stop-color="#000000" stop-opacity="0.0"/>
    </radialGradient>
    <g id="sprite0" transform="matrix(1.0, 0.0, 0.0, 1.0, 0.0, 0.0)">
      <use height="28.15" transform="matrix(1.0, 0.0, 0.0, 1.0, 0.0, 0.0)" width="199.5" xlink:href="#shape1"/>
    </g>
    <g id="shape1" transform="matrix(1.0, 0.0, 0.0, 1.0, 0.0, 0.0)">
      <path d="M183.9 7.85 Q183.8 8.55 185.55 9.4 L187.35 10.4 Q186.4 10.25 187.2 11.05 L189.3 13.05 194.2 16.0 196.25 17.3 Q194.2 16.85 194.2 17.65 194.2 18.65 193.45 19.15 L191.75 20.1 Q190.95 20.6 191.05 21.45 L191.3 22.15 196.7 25.0 Q198.9 26.25 199.4 27.05 199.85 27.9 198.35 27.9 L189.2 28.1 188.0 27.6 183.05 27.05 173.5 27.5 164.7 28.1 159.9 27.75 154.95 26.65 147.6 25.75 138.0 24.2 Q134.25 23.3 132.4 23.5 129.3 23.75 125.2 23.35 L117.0 23.05 110.35 23.35 99.05 23.15 81.85 22.95 69.5 23.8 64.9 24.6 55.6 25.35 41.35 26.65 31.65 27.4 24.4 27.5 15.1 27.8 11.7 28.1 4.25 26.25 Q5.05 25.65 5.9 25.15 L0.0 22.15 3.75 15.15 9.05 23.75 10.75 23.35 Q13.65 23.0 17.1 21.7 21.1 20.25 21.9 18.85 22.65 17.6 26.6 15.9 28.75 14.95 32.25 13.5 33.75 12.8 35.5 10.75 L38.45 7.35 Q42.25 3.55 81.85 2.15 L124.3 0.4 Q144.9 -0.35 151.25 0.4 157.6 1.15 166.75 3.3 L179.95 6.55 Q183.95 7.5 183.9 7.85" fill="#000000" fill-rule="evenodd" stroke="none"/>
    </g>
    <g id="shape2" transform="matrix(1.0, 0.0, 0.0, 1.0, -36.2, 0.0)">
      <path d="M86.35 337.1 L95.85 335.85 Q99.15 335.65 100.6 335.9 L86.35 337.1 80.15 338.35 Q71.05 340.5 68.65 346.55 67.45 349.6 68.05 352.2 L61.25 355.9 53.8 354.05 49.45 348.5 Q49.55 347.5 50.0 346.0 50.95 343.0 52.9 340.5 L51.65 339.9 86.35 337.1" fill="url(#gradient1)" fill-rule="evenodd" stroke="none"/>
      <path d="M223.2 340.5 Q225.15 343.0 226.05 346.0 L226.6 348.5 222.25 354.05 214.85 355.9 208.0 352.2 Q208.65 349.6 207.45 346.55 205.05 340.5 195.95 338.35 L189.75 337.1 224.45 339.9 223.2 340.5 M175.5 335.9 L180.25 335.85 Q184.5 336.1 189.75 337.1 L175.5 335.9" fill="url(#gradient2)" fill-rule="evenodd" stroke="none"/>
      <path d="M56.3 332.3 L65.5 331.1 73.1 330.35 137.45 335.65 201.8 330.35 209.4 331.1 218.55 332.3 Q220.65 332.85 227.45 337.0 L230.8 339.65 Q234.3 343.0 235.05 346.35 235.8 349.7 235.5 353.15 L235.05 355.9 218.15 355.9 Q218.85 354.95 218.85 353.25 218.95 349.85 215.65 346.05 211.45 341.2 197.15 340.5 191.15 340.2 177.85 341.0 171.85 341.35 166.15 342.75 L161.65 344.1 Q159.85 343.2 156.95 342.45 151.15 341.0 145.5 341.85 139.5 342.8 137.45 345.15 L137.45 345.2 137.4 345.2 137.4 345.15 Q135.35 342.8 129.4 341.85 123.8 341.0 117.95 342.45 L113.2 344.1 Q111.55 343.45 108.7 342.75 103.0 341.35 97.05 341.0 83.5 340.2 76.9 340.5 61.85 341.2 57.65 346.05 54.35 349.85 55.2 353.25 55.6 354.95 56.7 355.9 L39.85 355.9 Q39.55 354.85 39.4 353.15 39.1 349.7 39.85 346.35 40.6 343.0 44.1 339.65 L47.45 337.0 51.1 334.85 Q55.0 332.65 56.3 332.3" fill="#532f12" fill-rule="evenodd" stroke="none"/>
      <path d="M53.8 330.05 L63.3 328.7 71.15 327.85 137.75 333.7 204.35 327.85 212.2 328.7 221.7 330.05 Q223.85 330.65 230.9 335.15 L234.35 338.1 Q237.95 341.75 238.75 345.45 239.55 349.1 239.2 352.85 L238.75 355.9 214.25 355.9 Q215.75 355.25 216.6 353.75 218.3 350.8 214.9 346.65 207.75 337.95 179.55 339.55 173.35 339.95 167.45 341.5 L162.8 342.95 Q160.95 341.95 157.95 341.15 151.9 339.55 146.1 340.5 142.3 341.15 139.85 342.5 138.4 343.3 137.8 344.1 L137.8 344.2 137.75 344.15 137.7 344.2 137.7 344.1 Q137.1 343.3 135.65 342.5 133.2 341.15 129.4 340.5 123.6 339.55 117.55 341.15 L112.7 342.95 Q111.0 342.25 108.05 341.5 102.15 339.95 95.95 339.55 67.8 337.95 60.6 346.65 57.25 350.8 58.9 353.75 59.75 355.25 61.25 355.9 L36.75 355.9 Q36.45 354.75 36.3 352.85 35.95 349.1 36.75 345.45 37.55 341.75 41.15 338.1 L44.6 335.15 48.4 332.85 Q52.45 330.45 53.8 330.05" fill="#774620" fill-rule="evenodd" stroke="none"/>
      <path d="M53.8 330.05 L63.3 328.7 71.15 327.85 137.75 333.7 204.35 327.85 212.2 328.7 221.7 330.05 Q223.85 330.65 230.9 335.15 L234.35 338.1 Q237.95 341.75 238.75 345.45 239.55 349.1 239.2 352.85 L238.75 355.9 214.25 355.9 Q215.75 355.25 216.6 353.75 218.3 350.8 214.9 346.65 207.75 337.95 179.55 339.55 173.35 339.95 167.45 341.5 L162.8 342.95 Q160.95 341.95 157.95 341.15 151.9 339.55 146.1 340.5 142.3 341.15 139.85 342.5 138.4 343.3 137.8 344.1 L137.8 344.2 137.75 344.15 137.7 344.2 137.7 344.1 Q137.1 343.3 135.65 342.5 133.2 341.15 129.4 340.5 123.6 339.55 117.55 341.15 L112.7 342.95 Q111.0 342.25 108.05 341.5 102.15 339.95 95.95 339.55 67.8 337.95 60.6 346.65 57.25 350.8 58.9 353.75 59.75 355.25 61.25 355.9 L36.75 355.9 Q36.45 354.75 36.3 352.85 35.95 349.1 36.75 345.45 37.55 341.75 41.15 338.1 L44.6 335.15 48.4 332.85 Q52.45 330.45 53.8 330.05" fill="url(#gradient3)" fill-rule="evenodd" stroke="none"/>
      <path d="M53.8 330.05 L63.3 328.7 71.15 327.85 137.75 333.7 204.35 327.85 212.2 328.7 221.7 330.05 Q223.85 330.65 230.9 335.15 L234.35 338.1 Q237.95 341.75 238.75 345.45 239.55 349.1 239.2 352.85 L238.75 355.9 214.25 355.9 Q215.75 355.25 216.6 353.75 218.3 350.8 214.9 346.65 207.75 337.95 179.55 339.55 173.35 339.95 167.45 341.5 L162.8 342.95 Q160.95 341.95 157.95 341.15 151.9 339.55 146.1 340.5 142.3 341.15 139.85 342.5 138.4 343.3 137.8 344.1 L137.8 344.2 137.75 344.15 137.7 344.2 137.7 344.1 Q137.1 343.3 135.65 342.5 133.2 341.15 129.4 340.5 123.6 339.55 117.55 341.15 L112.7 342.95 Q111.0 342.25 108.05 341.5 102.15 339.95 95.95 339.55 67.8 337.95 60.6 346.65 57.25 350.8 58.9 353.75 59.75 355.25 61.25 355.9 L36.75 355.9 Q36.45 354.75 36.3 352.85 35.95 349.1 36.75 345.45 37.55 341.75 41.15 338.1 L44.6 335.15 48.4 332.85 Q52.45 330.45 53.8 330.05" fill="url(#gradient4)" fill-rule="evenodd" stroke="none"/>
      <path d="M65.65 342.4 Q68.35 341.25 70.65 340.9 68.75 341.45 66.55 342.45 62.1 344.45 60.6 346.65 57.65 351.1 58.45 353.25 L58.85 354.25 Q58.2 354.2 57.85 353.4 57.2 351.9 58.65 348.5 60.35 344.65 65.65 342.4" fill="url(#gradient5)" fill-rule="evenodd" stroke="none"/>
      <path d="M203.9 341.1 L208.9 342.6 Q214.2 344.85 215.9 348.7 217.35 352.1 216.7 353.6 216.35 354.4 215.7 354.45 L216.1 353.45 Q216.95 351.3 213.95 346.85 212.45 344.65 208.05 342.65 L203.9 341.1" fill="url(#gradient6)" fill-rule="evenodd" stroke="none"/>
      <path d="M46.3 36.1 L41.3 33.7 Q42.25 31.35 44.65 28.95 49.4 24.05 56.65 23.55 L69.75 24.15 Q76.05 24.9 81.15 23.55 85.8 22.25 89.3 18.95 L91.9 15.85 94.0 17.35 Q96.6 19.05 99.15 20.1 107.3 23.35 111.85 18.65 116.25 14.1 114.05 10.45 113.4 9.3 112.1 8.4 L111.0 7.7 113.75 6.75 Q116.95 6.05 119.3 7.3 121.65 8.6 122.6 9.9 L123.05 10.95 Q123.5 9.9 124.5 8.4 126.55 5.45 129.25 3.25 133.35 0.0 136.95 0.0 140.5 0.0 144.6 3.25 147.35 5.45 149.4 8.4 L150.85 10.95 Q150.85 10.55 151.3 9.9 152.25 8.6 154.55 7.3 156.9 6.05 160.1 6.75 161.7 7.1 162.85 7.7 L161.75 8.4 Q160.5 9.3 159.8 10.45 157.65 14.1 162.05 18.65 166.6 23.35 174.75 20.1 178.8 18.45 181.95 15.85 L185.4 19.15 Q189.75 22.65 194.4 23.95 199.5 25.35 204.3 24.8 L215.95 24.35 Q223.25 24.85 228.6 29.35 231.3 31.55 232.55 33.7 L227.6 36.1 199.35 36.1 137.15 40.95 137.15 41.0 136.95 40.95 136.7 41.0 136.7 40.95 74.5 36.1 46.3 36.1" fill="#b6703a" fill-rule="evenodd" stroke="none"/>
      <path d="M46.3 37.7 L41.3 35.3 Q41.95 32.45 44.0 29.5 48.15 23.65 55.4 23.1 60.4 22.75 69.95 24.15 77.7 25.3 82.8 23.95 87.45 22.65 90.15 19.95 L91.9 17.45 94.0 18.95 Q96.6 20.7 99.15 21.7 107.3 25.0 111.85 20.3 116.25 15.75 114.05 11.25 113.4 9.85 112.1 8.65 L111.0 7.7 113.75 7.55 Q116.95 7.65 119.3 8.95 121.65 10.2 122.6 11.55 L123.05 12.6 Q123.5 11.55 124.5 10.05 126.55 7.05 129.25 4.85 133.35 1.6 136.95 1.6 140.5 1.6 144.6 4.85 147.35 7.05 149.4 10.05 L150.85 12.6 Q150.85 12.2 151.3 11.55 152.25 10.2 154.55 8.95 156.9 7.65 160.1 7.55 L162.85 7.7 161.75 8.65 Q160.5 9.85 159.8 11.25 157.65 15.75 162.05 20.3 166.6 25.0 174.75 21.7 178.8 20.05 181.95 17.45 L183.7 19.95 Q186.4 22.65 191.1 23.95 196.15 25.3 203.9 24.15 213.45 22.75 218.45 23.1 225.75 23.65 229.85 29.5 231.95 32.45 232.55 35.3 L227.6 37.7 199.35 37.7 137.15 42.55 137.15 42.6 136.95 42.55 136.7 42.6 136.7 42.55 74.5 37.7 46.3 37.7" fill="#774620" fill-rule="evenodd" stroke="none"/>
    </g>
    <linearGradient gradientTransform="matrix(0.0, 0.0077, 0.0077, 0.0, 75.05, 346.85)" gradientUnits="userSpaceOnUse" id="gradient1" spreadMethod="pad" x1="-819.2" x2="819.2">
      <stop offset="0.0" stop-color="#462a16"/>
      <stop offset="1.0" stop-color="#693e20"/>
    </linearGradient>
    <linearGradient gradientTransform="matrix(0.0, -0.0077, 0.0077, 0.0, 201.05, 346.85)" gradientUnits="userSpaceOnUse" id="gradient2" spreadMethod="pad" x1="-819.2" x2="819.2">
      <stop offset="0.0" stop-color="#462a16"/>
      <stop offset="1.0" stop-color="#693e20"/>
    </linearGradient>
    <linearGradient gradientTransform="matrix(0.0, 0.0103, 0.0103, 0.0, 137.75, 344.05)" gradientUnits="userSpaceOnUse" id="gradient3" spreadMethod="pad" x1="-819.2" x2="819.2">
      <stop offset="0.0" stop-color="#000000" stop-opacity="0.0"/>
      <stop offset="1.0" stop-color="#000000" stop-opacity="0.08627451"/>
    </linearGradient>
    <linearGradient gradientTransform="matrix(0.0, -0.0038, -0.0038, 0.0, 137.75, 335.55)" gradientUnits="userSpaceOnUse" id="gradient4" spreadMethod="pad" x1="-819.2" x2="819.2">
      <stop offset="0.0" stop-color="#000000" stop-opacity="0.0"/>
      <stop offset="1.0" stop-color="#000000" stop-opacity="0.08627451"/>
    </linearGradient>
    <linearGradient gradientTransform="matrix(0.0, 0.0051, 0.0051, 0.0, 64.15, 348.25)" gradientUnits="userSpaceOnUse" id="gradient5" spreadMethod="pad" x1="-819.2" x2="819.2">
      <stop offset="0.0" stop-color="#ca783f"/>
      <stop offset="1.0" stop-color="#693e20"/>
    </linearGradient>
    <linearGradient gradientTransform="matrix(0.0, -0.0051, 0.0051, 0.0, 210.4, 348.45)" gradientUnits="userSpaceOnUse" id="gradient6" spreadMethod="pad" x1="-819.2" x2="819.2">
      <stop offset="0.0" stop-color="#ca783f"/>
      <stop offset="1.0" stop-color="#693e20"/>
    </linearGradient>
    <g id="sprite1" transform="matrix(1.0, 0.0, 0.0, 1.0, 0.0, 0.0)">
      <use height="41.0" transform="matrix(1.0, 0.0, 0.0, 1.0, 0.0, 0.0)" width="191.25" xlink:href="#shape3"/>
    </g>
    <g id="shape3" transform="matrix(1.0, 0.0, 0.0, 1.0, 0.0, 0.0)">
      <path d="M177.15 21.5 Q184.45 22.05 188.55 27.9 190.65 30.85 191.25 33.7 L186.3 36.1 158.05 36.1 95.85 40.95 95.85 41.0 95.65 40.95 95.4 41.0 95.4 40.95 33.2 36.1 5.0 36.1 0.0 33.7 Q0.65 30.85 2.7 27.9 6.85 22.05 14.1 21.5 19.1 21.15 28.65 22.55 36.4 23.7 41.5 22.35 46.15 21.05 48.85 18.35 50.2 16.95 50.6 15.85 L52.7 17.35 Q55.3 19.1 57.85 20.1 66.0 23.4 70.55 18.7 74.95 14.15 72.75 9.65 72.1 8.25 70.8 7.05 L69.7 6.1 72.45 5.95 Q75.65 6.05 78.0 7.35 80.35 8.6 81.3 9.95 L81.75 11.0 83.2 8.45 Q85.25 5.45 87.95 3.25 92.05 0.0 95.65 0.0 99.2 0.0 103.3 3.25 106.05 5.45 108.1 8.45 L109.55 11.0 110.0 9.95 Q110.95 8.6 113.25 7.35 115.6 6.05 118.8 5.95 L121.55 6.1 Q119.6 7.45 118.5 9.65 116.35 14.15 120.75 18.7 125.3 23.4 133.45 20.1 137.5 18.45 140.65 15.85 L142.4 18.35 Q145.1 21.05 149.8 22.35 154.85 23.7 162.6 22.55 172.15 21.15 177.15 21.5" fill="url(#gradient7)" fill-rule="evenodd" stroke="none"/>
    </g>
    <linearGradient gradientTransform="matrix(0.0, 0.0146, 0.0146, 0.0, 95.65, 20.1)" gradientUnits="userSpaceOnUse" id="gradient7" spreadMethod="pad" x1="-819.2" x2="819.2">
      <stop offset="0.0" stop-color="#000000" stop-opacity="0.0"/>
      <stop offset="0.8666666666666667" stop-color="#000000" stop-opacity="0.61960787"/>
      <stop offset="1.0" stop-color="#000000" stop-opacity="0.92941177"/>
    </linearGradient>
    <g id="shape4" transform="matrix(1.0, 0.0, 0.0, 1.0, -38.15, -33.65)">
      <path d="M44.1 322.15 L45.05 319.95 53.75 313.4 136.75 314.75 219.75 313.4 228.45 319.95 229.4 322.15 230.95 327.75 Q231.5 330.6 230.25 333.15 229.65 334.45 228.9 335.15 L44.6 335.15 Q43.9 334.45 43.25 333.15 42.0 330.6 42.55 327.75 43.1 324.95 44.1 322.15" fill="#774620" fill-rule="evenodd" stroke="none"/>
      <path d="M48.2 324.6 L61.6 325.5 Q69.7 326.4 69.0 327.0 68.35 327.55 64.4 328.1 L57.2 328.75 Q53.9 329.0 42.4 328.85 L42.55 327.75 42.55 327.7 53.85 327.7 Q66.0 327.8 62.85 326.5 62.0 326.1 56.65 325.65 L47.95 325.25 43.15 325.1 43.3 324.6 48.2 324.6" fill="#885024" fill-rule="evenodd" stroke="none"/>
      <path d="M43.9 334.2 L47.25 334.55 57.95 335.15 44.6 335.15 43.9 334.2" fill="#885024" fill-rule="evenodd" stroke="none"/>
      <path d="M66.5 333.15 L59.55 334.25 43.15 332.85 42.75 331.75 55.05 333.2 64.8 332.85 72.05 331.6 84.65 331.15 Q93.45 331.1 96.9 331.3 L105.8 330.9 113.45 330.25 131.4 329.95 143.6 330.7 155.25 331.45 178.9 331.3 208.45 331.05 230.75 331.75 230.4 332.8 214.35 332.4 207.5 332.1 197.8 331.7 186.8 332.0 176.55 332.4 156.95 332.5 132.6 331.3 Q125.05 330.25 112.4 331.25 L97.6 332.25 Q93.35 332.05 85.2 332.0 L73.5 332.0 Q71.2 332.05 66.5 333.15" fill="#885024" fill-rule="evenodd" stroke="none"/>
      <path d="M175.35 334.7 L151.25 334.25 Q141.5 333.95 123.5 334.2 L102.8 334.55 92.4 333.9 83.4 333.2 77.7 333.9 71.0 335.15 66.7 335.15 74.65 333.75 79.9 332.85 86.0 332.55 94.15 333.25 101.4 333.85 148.4 333.45 Q164.0 333.35 196.85 334.15 204.65 334.15 215.05 333.75 222.65 333.45 229.95 333.65 L229.5 334.35 223.35 334.25 212.9 334.6 Q203.9 334.9 196.65 334.8 L175.35 334.7" fill="#885024" fill-rule="evenodd" stroke="none"/>
      <path d="M64.25 331.7 Q58.3 332.8 42.6 331.15 L42.4 329.65 48.45 330.8 Q53.85 331.75 60.2 331.0 L68.05 329.95 97.85 328.35 129.75 327.4 147.55 327.85 165.65 328.35 218.6 329.15 231.1 329.25 231.1 330.0 197.8 329.55 185.75 329.6 167.8 329.3 149.85 329.0 130.7 328.25 Q119.2 327.55 108.45 328.2 L87.65 329.55 72.7 330.4 64.25 331.7" fill="#885024" fill-rule="evenodd" stroke="none"/>
      <path d="M95.8 335.15 L89.55 335.1 88.0 335.15 83.55 335.15 88.15 334.25 Q90.2 333.95 95.8 335.15" fill="#885024" fill-rule="evenodd" stroke="none"/>
      <path d="M57.4 318.0 Q53.35 317.5 47.7 317.95 L48.9 317.05 Q54.9 316.85 58.15 316.95 L69.95 318.5 83.9 320.15 Q90.45 320.45 101.85 320.55 115.15 320.7 121.25 320.45 L136.45 319.5 Q146.35 318.95 152.9 319.35 159.65 319.8 169.45 319.35 L183.15 318.55 193.3 319.2 201.1 320.45 Q203.7 320.7 208.7 320.5 L222.85 319.65 227.65 319.35 228.45 319.95 228.7 320.55 225.45 320.45 Q221.0 320.25 211.05 320.75 L200.65 321.25 194.55 320.45 186.0 319.2 Q183.45 318.95 168.15 319.65 152.05 320.35 147.45 320.15 L127.5 320.9 105.4 321.9 93.25 321.8 83.4 321.35 69.95 319.9 57.4 318.0" fill="#885024" fill-rule="evenodd" stroke="none"/>
      <path d="M49.85 323.5 L43.65 323.55 43.9 322.75 65.2 323.4 80.65 324.7 93.6 325.55 Q111.3 325.55 130.7 324.75 150.05 323.95 164.25 323.95 L179.65 324.65 195.2 326.1 204.15 326.6 219.8 326.6 Q225.7 326.75 230.7 326.5 L230.9 327.4 230.4 327.4 Q225.85 327.7 220.05 327.6 213.35 327.5 208.45 327.7 L189.3 326.7 171.35 324.75 155.55 324.3 132.8 325.55 110.05 326.5 95.45 326.5 87.4 326.4 74.9 325.25 62.3 323.95 49.85 323.5" fill="#885024" fill-rule="evenodd" stroke="none"/>
      <path d="M53.55 313.55 L53.75 313.4 82.0 313.85 109.4 315.3 136.95 314.9 Q154.8 314.5 167.3 314.65 180.0 314.8 194.55 314.2 L215.05 313.6 219.95 313.55 221.45 314.65 210.1 315.0 201.8 315.2 184.0 315.5 Q170.2 315.7 164.95 315.45 159.85 315.2 136.95 315.65 L107.5 316.15 93.65 316.3 80.8 315.2 69.3 313.8 Q64.15 313.5 53.55 313.55" fill="#885024" fill-rule="evenodd" stroke="none"/>
      <path d="M44.45 321.3 L44.95 320.25 51.25 320.05 75.15 320.95 Q78.95 321.25 86.95 323.25 L94.5 323.75 125.95 322.6 158.6 321.6 174.4 321.75 Q179.85 321.45 188.95 322.05 L201.35 322.7 213.55 322.4 Q222.65 322.1 228.3 322.2 L229.4 322.2 229.75 323.25 Q225.8 323.1 215.05 323.5 L204.0 323.9 188.35 323.4 170.6 322.7 Q160.75 322.65 119.35 323.65 84.7 324.5 83.5 323.85 83.65 323.25 82.45 322.85 80.2 322.1 70.9 321.5 53.6 320.4 44.45 321.3" fill="#885024" fill-rule="evenodd" stroke="none"/>
      <path d="M59.1 315.3 Q54.9 315.0 51.35 315.2 L52.5 314.35 59.3 314.05 Q60.45 313.9 67.65 315.4 L77.75 317.05 90.5 317.5 102.55 317.9 108.3 317.2 116.75 316.65 Q146.7 316.65 153.15 317.05 158.45 317.4 166.65 317.15 L181.75 316.4 Q188.5 316.05 193.4 316.15 L201.35 316.65 208.2 317.15 215.05 317.35 224.65 317.1 226.35 318.35 219.1 318.55 208.2 318.45 200.9 317.45 Q194.55 316.5 163.55 318.15 160.0 318.35 146.1 317.75 131.6 317.15 125.25 317.35 L111.5 317.8 Q106.65 318.1 105.85 318.7 L98.55 319.05 81.3 318.15 68.6 316.8 59.1 315.3" fill="#885024" fill-rule="evenodd" stroke="none"/>
      <path d="M220.6 324.8 L195.3 325.7 Q170.15 326.05 134.3 326.05 98.4 326.05 73.25 325.7 L47.95 324.8 73.25 323.95 Q98.7 323.6 134.3 323.6 169.9 323.6 195.3 323.95 L220.6 324.8" fill="url(#gradient8)" fill-rule="evenodd" stroke="none"/>
      <path d="M67.55 60.05 Q45.3 56.05 45.55 51.65 45.8 47.3 42.45 43.75 L39.05 41.05 50.8 40.15 137.0 41.45 223.2 40.15 235.55 41.3 231.85 43.85 Q228.2 47.3 228.45 51.65 228.7 56.05 206.45 60.05 L184.15 63.15 137.0 56.2 89.85 63.15 Q78.7 62.05 67.55 60.05" fill="#533115" fill-rule="evenodd" stroke="none"/>
      <path d="M45.05 46.75 L228.65 46.75 228.65 319.95 45.05 319.95 45.05 46.75" fill="#844d23" fill-rule="evenodd" stroke="none"/>
      <path d="M38.15 33.65 L235.55 33.65 235.55 41.3 38.15 41.3 38.15 33.65" fill="#844d23" fill-rule="evenodd" stroke="none"/>
    </g>
    <radialGradient cx="0" cy="0" gradientTransform="matrix(0.1056, 0.0, 0.0, -0.0015, 134.3, 324.8)" gradientUnits="userSpaceOnUse" id="gradient8" r="819.2" spreadMethod="pad">
      <stop offset="0.054901960784313725" stop-color="#e57b2c" stop-opacity="0.92941177"/>
      <stop offset="1.0" stop-color="#c08529" stop-opacity="0.0"/>
    </radialGradient>
    <g id="sprite2" transform="matrix(1.0, 0.0, 0.0, 1.0, 0.0, 0.0)">
      <use height="7.65" transform="matrix(1.0, 0.0, 0.0, 1.0, 0.0, 0.0)" width="197.4" xlink:href="#shape5"/>
    </g>
    <g id="shape5" transform="matrix(1.0, 0.0, 0.0, 1.0, 0.0, 0.0)">
      <path d="M197.4 7.65 L0.0 7.65 0.0 0.0 197.4 0.0 197.4 7.65" fill="url(#gradient9)" fill-rule="evenodd" stroke="none"/>
    </g>
    <radialGradient cx="0" cy="0" gradientTransform="matrix(0.0853, 0.0, 0.0, -0.0739, 98.7, 3.85)" gradientUnits="userSpaceOnUse" id="gradient9" r="819.2" spreadMethod="pad">
      <stop offset="0.21176470588235294" stop-color="#000000" stop-opacity="0.0"/>
      <stop offset="0.8117647058823529" stop-color="#000000" stop-opacity="0.6509804"/>
      <stop offset="1.0" stop-color="#000000" stop-opacity="0.92941177"/>
    </radialGradient>
    <g id="shape6" transform="matrix(1.0, 0.0, 0.0, 1.0, -49.65, -51.05)">
      <path d="M49.65 51.05 L226.6 51.05 226.6 319.05 49.65 319.05 49.65 51.05" fill="#74451e" fill-rule="evenodd" stroke="none"/>
    </g>
    <g id="sprite3" transform="matrix(1.0, 0.0, 0.0, 1.0, 0.0, 0.0)">
      <use height="265.05" transform="matrix(1.0, 0.0, 0.0, 1.0, 0.0, 0.0)" width="171.35" xlink:href="#shape7"/>
    </g>
    <g id="shape7" transform="matrix(1.0, 0.0, 0.0, 1.0, 0.0, 0.0)">
      <path d="M171.35 265.05 L0.0 265.05 0.0 0.0 171.35 0.0 171.35 265.05" fill="url(#gradient10)" fill-rule="evenodd" stroke="none"/>
    </g>
    <radialGradient cx="0" cy="0" gradientTransform="matrix(0.1183, 0.0, 0.0, -0.1618, 85.65, 132.55)" gradientUnits="userSpaceOnUse" id="gradient10" r="819.2" spreadMethod="pad">
      <stop offset="0.0" stop-color="#000000" stop-opacity="0.36862746"/>
      <stop offset="1.0" stop-color="#000000" stop-opacity="0.9019608"/>
    </radialGradient>
    <g id="shape8" transform="matrix(1.0, 0.0, 0.0, 1.0, -1.9, -51.05)">
      <path d="M61.35 51.05 L61.35 305.9 52.05 316.05 51.3 59.25 52.05 51.05 61.35 51.05" fill="url(#gradient11)" fill-rule="evenodd" stroke="none"/>
      <path d="M214.3 51.05 L223.6 51.05 224.45 59.25 223.6 316.05 214.3 305.9 214.3 51.05" fill="url(#gradient12)" fill-rule="evenodd" stroke="none"/>
      <path d="M49.65 51.05 L52.05 51.05 52.05 316.05 222.45 316.05 222.45 51.05 226.6 51.05 226.6 319.05 49.65 319.05 49.65 51.05" fill="#925627" fill-rule="evenodd" stroke="none"/>
      <path d="M1.9 55.9 L49.5 51.25 52.55 51.95 39.35 63.1 6.25 66.05 1.9 55.9" fill="#a6683c" fill-rule="evenodd" stroke="none"/>
      <path d="M1.9 55.9 L8.25 56.2 20.25 67.35 14.25 131.45 21.55 317.05 8.25 324.25 1.9 323.8 1.9 55.9" fill="#92562c" fill-rule="evenodd" stroke="none"/>
      <path d="M40.35 123.95 Q37.05 100.25 32.45 100.75 27.8 101.3 24.55 125.95 21.25 150.55 21.25 184.9 21.25 219.2 24.55 242.9 27.8 266.6 32.45 265.8 37.05 265.0 40.35 240.4 43.6 215.75 43.6 181.75 43.6 147.75 40.35 123.95 M8.25 56.2 L52.55 51.95 52.55 315.95 8.25 324.25 8.25 56.2" fill="#925627" fill-rule="evenodd" stroke="none"/>
      <path d="M47.65 52.45 L48.9 52.3 48.8 73.95 Q48.8 82.7 49.1 85.55 49.95 93.85 49.95 106.55 L49.95 166.6 50.4 207.1 51.1 227.6 51.7 244.1 51.6 255.15 Q51.5 263.25 51.7 268.25 L52.55 285.4 52.55 315.95 52.2 316.05 Q51.95 299.5 52.15 292.15 52.3 285.1 51.45 276.75 50.55 267.8 50.55 260.4 L50.9 239.45 Q51.05 227.55 49.95 216.8 48.9 205.95 48.75 197.2 L48.8 190.75 Q49.1 188.35 49.1 162.6 L48.95 138.8 48.95 124.6 49.1 101.4 Q49.1 95.65 48.25 87.7 47.35 79.7 47.35 71.65 47.35 64.25 47.65 52.45" fill="#9c5c30" fill-rule="evenodd" stroke="none"/>
      <path d="M44.45 68.85 L44.7 65.15 44.75 55.25 44.75 52.7 45.95 52.6 45.9 70.8 Q45.9 76.55 46.5 84.8 L47.65 95.15 Q48.55 103.3 48.65 106.15 L48.3 112.5 Q47.8 116.95 47.8 121.35 L47.65 156.3 Q47.65 163.45 47.95 173.4 L48.25 185.9 47.95 194.95 47.65 202.3 Q47.65 204.3 48.4 213.05 L49.4 226.8 Q49.65 235.1 49.25 259.35 49.25 261.0 50.0 267.65 50.7 274.3 50.7 278.35 L50.55 306.75 50.45 316.35 49.35 316.55 49.65 284.8 Q49.65 274.35 48.95 266.55 48.3 259.1 48.35 249.35 L48.7 229.95 Q48.8 224.2 48.1 219.7 L46.85 211.8 Q46.45 208.65 46.35 202.75 46.25 198.25 46.65 195.0 47.05 191.5 47.05 187.1 L46.85 179.3 46.65 173.6 46.65 162.4 46.95 136.45 47.2 112.85 Q47.2 110.6 47.7 106.0 47.95 103.4 47.2 95.1 L45.25 79.0 Q44.3 72.3 44.45 68.85" fill="#9c5c30" fill-rule="evenodd" stroke="none"/>
      <path d="M34.45 264.15 L35.3 262.6 Q35.75 271.75 36.3 277.75 L37.05 291.55 37.3 310.7 37.15 318.85 36.35 319.0 Q36.75 308.75 36.75 302.2 36.75 291.1 35.85 281.95 34.95 272.9 34.45 264.15" fill="#9c5c30" fill-rule="evenodd" stroke="none"/>
      <path d="M23.95 261.2 L23.15 242.8 Q22.5 231.2 22.6 224.0 L23.4 233.55 Q23.5 237.15 24.15 245.85 24.7 253.65 24.7 258.45 L24.65 273.85 Q24.6 282.5 24.7 284.75 24.75 286.3 25.5 288.85 26.2 291.4 26.3 294.4 26.45 299.9 25.9 318.35 L25.85 321.0 24.7 321.2 25.3 313.05 25.45 301.65 Q25.35 293.7 24.4 290.95 23.5 288.2 23.5 286.25 L23.8 276.7 Q24.05 269.2 23.95 261.2" fill="#9c5c30" fill-rule="evenodd" stroke="none"/>
      <path d="M30.65 272.6 Q30.45 269.35 29.7 265.0 L29.35 263.15 Q30.4 265.05 31.35 265.6 31.9 268.8 31.9 273.0 31.9 278.55 32.55 288.65 33.2 298.85 33.2 304.9 L33.15 319.65 32.3 319.8 Q31.6 285.0 31.15 279.9 L30.65 272.6" fill="#9c5c30" fill-rule="evenodd" stroke="none"/>
      <path d="M26.3 265.3 Q26.4 261.3 27.05 260.5 27.7 259.75 27.8 263.45 27.9 266.35 29.0 273.95 L30.45 284.0 Q31.0 289.3 31.0 315.3 L31.0 320.05 30.15 320.2 30.15 312.05 29.9 297.0 29.4 283.6 Q29.05 277.75 27.65 270.85 L27.35 269.35 27.15 271.55 Q27.0 274.75 27.2 279.8 27.35 283.95 28.1 288.55 28.8 292.7 28.8 295.5 L28.3 320.55 27.1 320.75 27.65 296.5 Q27.75 292.85 27.15 289.15 26.5 285.05 26.45 281.25 26.2 268.5 26.3 265.3" fill="#9c5c30" fill-rule="evenodd" stroke="none"/>
      <path d="M42.55 56.5 L42.55 52.9 43.85 52.8 43.85 64.7 44.25 76.65 44.6 86.8 Q44.6 89.05 45.2 94.6 L46.05 102.55 46.5 108.95 Q46.7 113.75 46.35 122.3 L45.55 139.5 Q45.2 147.55 45.2 152.15 L44.6 169.55 43.85 185.7 Q43.75 191.2 44.45 208.0 44.5 208.95 46.05 217.15 47.5 224.95 47.5 229.7 L47.65 268.7 47.6 281.95 Q47.55 293.0 47.65 296.3 L48.0 316.8 47.3 316.95 47.0 298.45 46.8 278.5 46.8 251.65 46.85 233.3 Q46.75 228.1 45.45 219.85 44.75 215.2 43.85 211.85 43.2 209.35 43.05 207.25 43.6 194.6 43.6 181.75 L43.5 172.8 44.0 164.55 44.15 159.5 Q44.0 157.25 44.0 152.3 L44.1 144.2 44.6 131.9 Q44.75 127.4 45.8 118.05 46.25 113.9 45.3 105.25 L43.9 94.15 Q43.65 92.2 43.75 82.75 43.8 74.85 43.2 69.45 42.55 63.8 42.55 56.5" fill="#9c5c30" fill-rule="evenodd" stroke="none"/>
      <path d="M23.45 54.8 L24.2 54.7 24.25 55.4 Q24.55 60.05 25.45 63.95 L25.8 54.55 26.7 54.45 Q26.45 64.2 26.05 67.25 L25.75 69.45 24.85 65.75 Q23.85 60.9 23.45 54.8" fill="#9c5c30" fill-rule="evenodd" stroke="none"/>
      <path d="M19.1 68.55 L18.95 55.2 20.35 55.05 21.0 91.45 21.4 108.65 Q21.7 118.7 21.9 120.5 22.65 127.05 22.65 140.65 L22.65 144.65 Q22.2 150.55 21.9 156.9 L21.95 137.7 Q21.9 127.15 21.15 121.9 20.35 115.85 20.0 103.55 L19.55 83.75 19.1 68.55" fill="#9c5c30" fill-rule="evenodd" stroke="none"/>
      <path d="M8.25 273.65 L8.25 267.3 10.05 283.8 12.0 301.2 12.5 309.65 Q12.6 313.55 12.3 318.5 L12.0 323.55 11.4 323.7 11.7 316.25 Q11.8 307.85 11.4 301.85 11.05 296.05 9.9 287.85 8.7 279.2 8.25 273.65" fill="#9c5c30" fill-rule="evenodd" stroke="none"/>
      <path d="M32.95 71.85 Q32.95 65.85 33.25 61.85 L33.75 53.8 34.5 53.75 34.4 58.85 Q34.1 67.0 34.1 71.2 L34.05 77.95 Q34.0 81.85 34.1 83.75 34.2 85.35 34.6 87.75 L35.25 92.8 35.65 98.0 36.15 103.9 36.3 105.4 35.25 103.0 Q34.4 94.25 34.4 91.85 34.4 89.1 33.55 87.05 32.65 85.0 32.65 83.65 L32.8 81.35 32.95 71.85" fill="#9c5c30" fill-rule="evenodd" stroke="none"/>
      <path d="M32.25 265.8 L32.45 265.8 Q33.0 265.75 33.6 265.15 34.25 269.85 34.25 274.9 L34.7 295.3 35.1 316.9 35.1 319.2 34.3 319.35 34.4 306.85 Q34.3 296.7 33.55 284.55 L32.25 265.8" fill="#9c5c30" fill-rule="evenodd" stroke="none"/>
      <path d="M39.35 63.1 Q38.65 57.75 38.55 53.3 L39.4 53.2 Q39.5 59.35 40.8 68.95 41.6 74.6 42.15 83.0 42.8 93.0 42.7 101.6 L42.55 120.35 42.05 140.3 41.3 132.25 41.4 127.35 41.25 107.25 41.1 88.2 Q41.0 79.35 40.5 74.25 L39.35 63.1" fill="#9c5c30" fill-rule="evenodd" stroke="none"/>
      <path d="M37.45 73.45 L36.8 63.2 36.6 53.5 37.3 53.4 37.3 59.1 Q37.3 62.6 38.25 69.25 39.2 75.85 39.2 80.3 L38.9 104.15 39.75 111.6 Q40.6 120.1 40.55 125.45 L38.5 113.35 38.2 107.6 Q38.05 103.6 38.15 97.7 L38.2 85.4 38.05 79.2 Q37.75 77.8 37.45 73.45" fill="#9c5c30" fill-rule="evenodd" stroke="none"/>
      <path d="M11.1 57.7 L11.05 55.95 11.95 55.85 12.0 56.85 12.0 71.4 12.0 87.15 12.2 99.8 Q12.3 108.45 12.55 110.0 L13.4 116.85 Q13.9 122.2 13.9 125.95 13.9 129.05 14.3 133.8 L14.8 140.85 14.85 152.4 14.8 168.8 Q14.8 192.45 15.1 208.7 15.4 224.95 16.15 247.25 L16.2 256.3 16.15 266.7 Q16.15 271.45 17.05 284.95 L17.9 303.25 17.55 322.55 16.95 322.65 17.0 308.7 Q17.0 299.1 16.2 282.15 15.4 265.25 15.4 260.5 L14.95 233.2 14.05 193.85 13.75 166.8 13.9 155.3 Q14.0 148.6 13.75 142.8 L13.15 131.2 Q12.85 125.6 12.85 119.75 12.85 114.75 12.25 112.5 11.6 110.1 11.55 106.45 L11.55 96.1 11.55 83.8 11.1 57.7" fill="#9c5c30" fill-rule="evenodd" stroke="none"/>
      <path d="M37.3 262.9 L37.25 256.95 38.15 253.25 38.2 260.15 Q38.2 266.3 38.5 273.95 L39.05 286.4 39.7 297.9 40.1 306.6 39.65 318.35 38.6 318.55 39.05 308.95 38.65 295.85 37.75 278.25 Q37.4 271.2 37.3 262.9" fill="#9c5c30" fill-rule="evenodd" stroke="none"/>
      <path d="M9.9 168.1 Q9.6 163.2 9.1 159.95 L8.25 155.55 8.25 130.35 8.4 134.8 8.7 146.0 Q8.95 153.4 9.45 156.55 11.35 169.05 10.8 180.9 10.55 186.9 10.65 202.5 L10.8 223.85 11.25 241.35 Q11.65 253.25 11.4 258.3 11.1 264.1 11.2 269.0 L11.55 278.35 Q11.7 281.35 12.9 289.05 14.05 296.15 14.05 300.0 L14.15 310.0 14.2 323.15 13.4 323.3 13.45 320.45 13.45 305.3 Q13.25 295.3 12.4 291.1 11.3 285.6 10.95 282.95 10.4 279.5 10.2 275.65 L9.85 268.45 Q9.8 264.8 10.2 259.8 10.65 254.2 10.65 244.1 10.65 234.0 10.2 227.9 9.8 222.4 9.55 211.85 L9.3 196.6 9.85 183.65 Q10.25 174.1 9.9 168.1" fill="#9c5c30" fill-rule="evenodd" stroke="none"/>
      <path d="M13.0 57.0 L13.0 55.75 13.9 55.7 13.9 57.45 Q13.9 63.8 14.25 81.75 L14.8 105.3 Q14.95 109.15 16.05 117.45 17.1 125.6 17.15 127.9 L17.4 145.6 17.3 167.1 Q17.1 174.15 17.05 184.0 L17.15 196.25 17.9 209.25 Q18.5 220.55 18.5 225.8 L18.65 258.4 18.9 270.15 19.25 281.95 19.7 292.75 20.15 301.55 20.1 310.6 19.9 322.1 19.25 322.2 19.5 304.95 Q19.55 294.95 18.95 288.6 17.4 272.35 17.6 253.05 L17.75 236.65 17.6 218.85 Q17.45 210.75 16.85 202.95 16.3 195.95 16.3 192.75 L16.25 186.25 16.3 166.7 16.8 143.0 Q16.95 135.35 16.0 125.15 L14.3 111.5 Q13.7 106.9 13.45 91.75 L13.0 57.0" fill="#9c5c30" fill-rule="evenodd" stroke="none"/>
      <path d="M9.3 56.1 L10.1 56.05 10.35 95.5 Q10.35 128.1 11.1 131.25 13.5 141.55 13.3 150.25 L12.75 160.05 12.3 167.5 12.6 176.4 12.85 188.5 12.55 213.85 12.5 233.25 Q12.45 248.95 12.55 253.1 L13.1 269.1 Q13.6 280.2 13.9 282.1 L15.1 293.0 Q15.95 302.7 15.85 308.9 L15.75 322.85 15.1 323.0 15.1 305.05 Q15.1 299.6 14.35 292.9 L13.15 282.0 Q12.25 270.5 12.0 250.8 L11.85 214.2 Q11.8 209.45 12.1 199.15 12.45 189.3 12.3 184.15 L11.9 172.15 11.85 162.85 12.35 154.4 Q12.65 149.8 12.4 146.9 L10.95 135.75 Q9.75 126.8 9.75 120.9 L9.6 108.95 9.45 96.65 9.3 56.1" fill="#9c5c30" fill-rule="evenodd" stroke="none"/>
      <path d="M8.25 245.4 L8.9 240.85 Q9.0 238.75 8.4 231.05 L8.25 229.15 8.25 215.05 Q8.5 222.65 8.85 226.55 9.4 232.0 9.15 236.85 L8.7 246.85 8.25 258.35 8.25 245.4" fill="#9c5c30" fill-rule="evenodd" stroke="none"/>
      <path d="M8.25 56.2 L8.45 56.2 8.55 63.25 Q8.55 88.15 8.25 95.1 L8.25 56.2" fill="#9c5c30" fill-rule="evenodd" stroke="none"/>
      <path d="M8.25 165.3 L8.7 169.6 Q9.05 173.0 8.85 176.75 L8.25 182.8 8.25 165.3" fill="#9c5c30" fill-rule="evenodd" stroke="none"/>
      <path d="M15.0 55.6 L15.85 55.5 16.45 75.9 17.1 91.5 17.9 106.25 18.75 113.9 19.4 121.35 19.85 137.95 Q20.3 152.95 20.15 159.9 19.8 172.65 20.4 184.85 L21.3 194.95 21.7 208.5 21.0 217.3 20.55 224.45 Q20.45 227.15 21.1 236.35 L21.9 248.95 22.35 260.35 Q22.55 268.45 22.2 273.6 21.8 278.85 22.1 285.2 L22.65 294.25 23.25 301.2 Q23.65 305.55 23.65 310.1 23.65 314.05 23.05 321.5 L22.2 321.65 Q22.8 310.35 22.8 305.55 22.8 302.9 22.05 297.35 21.3 291.8 21.3 287.4 L21.55 274.15 21.6 258.95 Q21.3 247.8 20.15 237.15 L19.4 230.9 Q19.2 227.3 19.7 218.8 19.9 214.85 20.8 209.5 21.15 207.2 20.55 198.2 L19.4 183.9 Q18.95 179.45 18.95 174.0 L19.1 142.7 18.8 126.95 17.9 114.65 17.15 108.05 Q16.85 104.8 16.3 89.85 15.1 62.5 15.0 55.6" fill="#9c5c30" fill-rule="evenodd" stroke="none"/>
      <path d="M42.2 221.85 L42.45 217.8 Q44.35 226.0 44.15 232.25 43.75 243.5 43.75 250.35 L43.95 257.15 44.15 269.05 43.95 282.2 Q43.9 288.15 44.3 295.6 L45.4 317.3 44.25 317.5 44.3 309.7 Q44.3 300.25 43.55 287.95 L42.7 273.45 Q42.5 265.1 42.7 252.1 42.75 248.65 43.35 240.25 43.75 234.25 43.45 229.55 43.1 225.45 42.2 221.85" fill="#9c5c30" fill-rule="evenodd" stroke="none"/>
      <path d="M40.15 275.45 L40.25 253.5 40.35 240.2 41.0 234.75 41.1 257.55 41.1 275.2 Q41.1 282.85 41.55 285.95 42.85 295.4 42.85 312.85 L42.8 317.8 41.75 318.0 41.95 311.45 Q41.9 306.75 41.25 297.95 40.2 283.8 40.15 275.45" fill="#9c5c30" fill-rule="evenodd" stroke="none"/>
      <path d="M29.9 71.35 Q30.45 68.7 30.45 59.5 L30.5 54.1 31.85 54.0 31.75 66.2 31.75 71.15 Q31.75 73.95 31.45 75.1 L30.65 79.55 Q30.15 82.75 30.15 84.2 L30.05 87.4 Q30.05 89.05 30.6 89.35 32.15 90.15 32.65 91.0 34.1 93.35 34.1 99.7 L34.1 101.45 Q33.55 101.0 33.25 100.9 L32.8 96.45 Q32.25 92.75 31.6 92.1 30.9 92.0 30.45 91.5 L29.2 91.25 Q28.65 90.85 28.65 86.95 L28.35 82.2 Q28.15 80.9 28.65 77.0 L29.9 71.35" fill="#9c5c30" fill-rule="evenodd" stroke="none"/>
      <path d="M21.45 54.95 L22.1 54.9 Q22.0 64.45 22.35 67.1 L23.3 73.75 23.95 80.6 24.3 87.65 24.55 92.9 24.4 101.85 Q24.4 105.05 26.05 116.2 L25.05 122.15 25.0 121.7 Q24.15 116.45 23.6 107.8 23.1 100.05 23.1 94.35 23.1 92.1 23.65 90.35 23.95 89.4 23.1 83.1 22.05 75.1 21.7 69.85 21.45 65.4 21.45 57.25 L21.45 54.95" fill="#9c5c30" fill-rule="evenodd" stroke="none"/>
      <path d="M26.05 74.6 Q27.1 68.2 27.5 61.15 L27.9 54.35 28.65 54.3 Q27.75 69.35 26.75 77.95 26.2 82.8 26.3 85.3 L26.6 90.6 Q26.65 92.35 27.55 96.4 L29.35 104.4 28.45 106.7 26.0 94.35 Q24.95 88.4 25.0 84.2 25.05 80.35 26.05 74.6" fill="#9c5c30" fill-rule="evenodd" stroke="none"/>
    </g>
    <radialGradient cx="0" cy="0" gradientTransform="matrix(5.0E-4, -0.1561, -0.0138, -1.0E-4, 50.3, 183.1)" gradientUnits="userSpaceOnUse" id="gradient11" r="819.2" spreadMethod="pad">
      <stop offset="0.0" stop-color="#3d2512"/>
      <stop offset="1.0" stop-color="#26170a"/>
    </radialGradient>
    <radialGradient cx="0" cy="0" gradientTransform="matrix(-5.0E-4, -0.1561, 0.0138, -1.0E-4, 224.2, 184.05)" gradientUnits="userSpaceOnUse" id="gradient12" r="819.2" spreadMethod="pad">
      <stop offset="0.0" stop-color="#3d2512"/>
      <stop offset="1.0" stop-color="#26170a"/>
    </radialGradient>
    <g id="sprite4" transform="matrix(1.0, 0.0, 0.0, 1.0, 0.0, 0.0)">
      <use height="270.4" transform="matrix(1.0, 0.0, 0.0, 1.0, 0.0, 0.0)" width="44.3" xlink:href="#shape9"/>
    </g>
    <g id="shape9" transform="matrix(1.0, 0.0, 0.0, 1.0, 0.0, 0.0)">
      <path d="M0.0 4.2 L44.3 0.0 44.3 262.15 0.0 270.4 0.0 4.2 M32.1 71.5 Q28.8 47.95 24.2 48.45 19.55 49.0 16.3 73.45 13.0 97.9 13.0 132.0 13.0 166.05 16.3 189.6 19.55 213.15 24.2 212.35 28.8 211.55 32.1 187.15 35.35 162.65 35.35 128.9 35.35 95.1 32.1 71.5" fill="url(#gradient13)" fill-rule="evenodd" stroke="none"/>
    </g>
    <radialGradient cx="0" cy="0" gradientTransform="matrix(0.1208, 0.0, 0.0, -0.1182, 22.15, 135.25)" gradientUnits="userSpaceOnUse" id="gradient13" r="819.2" spreadMethod="pad">
      <stop offset="0.0" stop-color="#000000" stop-opacity="0.45882353"/>
      <stop offset="1.0" stop-color="#000000" stop-opacity="0.92941177"/>
    </radialGradient>
    <g id="shape10" transform="matrix(1.0, 0.0, 0.0, 1.0, -22.95, -100.75)">
      <path d="M32.45 100.75 Q37.05 100.25 40.35 123.95 43.6 147.75 43.6 181.75 43.6 215.75 40.35 240.4 37.05 265.0 32.45 265.8 27.8 266.6 24.55 242.9 23.6 235.9 22.95 228.0 23.55 234.25 24.3 239.85 27.3 262.7 31.5 261.95 35.75 261.3 38.75 237.25 41.75 213.25 41.75 180.0 41.75 147.75 38.9 124.75 36.05 101.85 31.95 100.9 L32.45 100.75" fill="#6d4220" fill-rule="evenodd" stroke="none"/>
    </g>
    <g id="sprite5" transform="matrix(1.0, 0.0, 0.0, 1.0, 0.0, 0.0)">
      <use height="161.7" transform="matrix(1.0, 0.0, 0.0, 1.0, 0.0, 0.0)" width="21.5" xlink:href="#shape11"/>
    </g>
    <g id="shape11" transform="matrix(1.0, 0.0, 0.0, 1.0, 0.0, 0.0)">
      <path d="M10.8 0.0 Q15.25 -0.5 18.35 22.75 21.5 46.05 21.5 79.4 21.5 112.75 18.35 136.85 15.25 161.0 10.8 161.7 6.3 162.45 3.15 139.2 0.0 116.0 0.0 82.4 0.0 48.7 3.15 24.65 6.3 0.5 10.8 0.0" fill="url(#gradient14)" fill-rule="evenodd" stroke="none"/>
    </g>
    <linearGradient gradientTransform="matrix(-0.0494, 0.048, 0.048, 0.0494, 12.85, 78.85)" gradientUnits="userSpaceOnUse" id="gradient14" spreadMethod="pad" x1="-819.2" x2="819.2">
      <stop offset="0.023529411764705882" stop-color="#e7f8f8"/>
      <stop offset="0.047058823529411764" stop-color="#d6efee"/>
      <stop offset="0.08235294117647059" stop-color="#c3e4e4"/>
      <stop offset="0.10588235294117647" stop-color="#bce0e0"/>
      <stop offset="0.34901960784313724" stop-color="#cdf0f0"/>
      <stop offset="0.5098039215686274" stop-color="#baebea"/>
      <stop offset="0.6235294117647059" stop-color="#b2e8e8"/>
      <stop offset="0.792156862745098" stop-color="#90d1d0"/>
      <stop offset="1.0" stop-color="#94e4e2"/>
    </linearGradient>
    <g id="shape12" transform="matrix(1.0, 0.0, 0.0, 1.0, -6.25, -51.25)">
      <path d="M6.25 188.75 Q6.25 138.35 6.55 104.5 6.8 69.55 7.25 69.55 7.65 69.55 7.95 104.5 L8.25 188.75 7.95 273.1 Q7.65 308.0 7.25 308.0 6.8 308.0 6.55 273.1 6.25 239.15 6.25 188.75" fill="#a6683c" fill-rule="evenodd" stroke="none"/>
      <path d="M268.7 66.05 L235.55 63.1 222.4 51.95 225.45 51.25 273.05 55.9 268.7 66.05" fill="#a6683c" fill-rule="evenodd" stroke="none"/>
      <path d="M273.05 55.9 L273.05 323.8 266.65 324.25 253.35 317.05 260.7 131.45 254.7 67.35 266.65 56.2 273.05 55.9" fill="#513118" fill-rule="evenodd" stroke="none"/>
      <path d="M234.6 123.95 Q231.35 147.65 231.35 181.75 231.35 215.85 234.6 240.4 237.85 265.0 242.5 265.8 247.1 266.6 250.4 242.9 253.7 219.15 253.7 184.9 253.7 150.6 250.4 125.95 247.1 101.3 242.5 100.75 237.85 100.25 234.6 123.95 M266.65 56.2 L266.65 324.25 222.4 315.95 222.4 51.95 266.65 56.2" fill="#925627" fill-rule="evenodd" stroke="none"/>
      <path d="M227.3 52.45 L227.6 71.65 Q227.6 79.7 226.75 87.7 225.85 95.65 225.85 101.4 L226.0 124.6 226.0 138.8 Q225.85 149.65 225.85 162.6 225.85 188.35 226.15 190.75 L226.2 197.2 Q226.05 205.95 224.95 216.8 223.9 227.5 224.05 239.45 L224.4 260.4 Q224.4 267.75 223.5 276.75 222.65 285.05 222.8 292.15 223.0 302.3 222.7 316.05 L222.4 315.95 222.4 285.4 223.25 268.25 223.35 255.15 223.25 244.1 223.85 227.6 224.55 207.1 224.95 166.6 224.95 106.55 Q224.95 93.65 225.85 85.55 226.15 82.75 226.15 73.95 L226.0 52.3 227.3 52.45" fill="#9c5c30" fill-rule="evenodd" stroke="none"/>
      <path d="M230.5 68.85 Q230.65 72.3 229.7 79.0 228.25 89.35 227.7 95.1 226.95 103.4 227.2 106.0 L227.7 112.85 228.0 136.45 228.3 162.4 228.3 173.6 228.1 179.3 Q227.85 182.15 227.85 187.1 227.85 191.55 228.3 195.0 228.7 198.25 228.6 202.75 228.5 208.55 228.1 211.8 L226.85 219.7 Q226.15 224.25 226.2 229.95 L226.55 249.35 Q226.65 259.15 225.95 266.55 225.25 274.4 225.25 284.8 225.25 298.5 225.6 316.55 L224.5 316.35 224.4 306.75 Q224.25 293.95 224.25 278.35 224.25 274.3 225.0 267.65 L225.7 259.35 Q225.25 235.1 225.55 226.8 225.7 222.5 226.55 213.05 L227.3 202.3 227.0 194.95 Q226.7 189.4 226.7 185.9 L227.0 173.4 227.3 156.3 227.15 121.35 Q227.15 116.85 226.65 112.5 226.2 108.35 226.25 106.15 226.35 103.3 227.3 95.15 L228.45 84.8 Q229.05 76.55 229.05 70.8 L228.95 52.6 230.2 52.7 230.2 55.25 230.25 65.15 230.5 68.85" fill="#9c5c30" fill-rule="evenodd" stroke="none"/>
      <path d="M240.5 264.15 L239.1 281.95 Q237.75 296.0 238.6 319.0 L237.75 318.85 237.6 310.7 Q237.5 302.65 237.9 291.55 238.25 281.8 238.65 277.75 L239.6 262.6 240.5 264.15" fill="#9c5c30" fill-rule="evenodd" stroke="none"/>
      <path d="M250.95 261.2 Q250.85 269.2 251.1 276.7 L251.4 286.25 Q251.4 288.2 250.5 290.95 249.6 293.7 249.5 301.65 249.4 311.05 250.25 321.2 L249.1 321.0 249.05 318.35 Q248.45 299.9 248.6 294.4 248.7 291.4 249.45 288.85 250.2 286.3 250.25 284.75 L250.3 273.85 250.25 258.45 Q250.25 253.65 250.8 245.85 L251.5 233.55 252.35 224.0 Q252.45 231.3 251.8 242.8 251.0 255.85 250.95 261.2" fill="#9c5c30" fill-rule="evenodd" stroke="none"/>
      <path d="M244.3 272.6 L243.75 279.9 Q243.2 285.9 242.65 319.8 L241.75 319.65 241.7 304.9 Q241.7 298.85 242.4 288.65 243.05 278.55 243.05 273.0 243.05 268.8 243.6 265.6 244.65 264.95 245.55 263.15 L245.25 265.0 Q244.5 269.35 244.3 272.6" fill="#9c5c30" fill-rule="evenodd" stroke="none"/>
      <path d="M248.6 265.3 L248.45 281.25 Q248.4 285.0 247.75 289.15 247.2 292.85 247.3 296.5 L247.85 320.75 246.65 320.55 Q246.1 302.9 246.1 295.5 246.1 292.75 246.8 288.55 247.6 283.95 247.75 279.8 L247.75 271.55 247.6 269.35 247.3 270.85 Q245.85 278.15 245.5 283.6 245.3 287.35 245.05 297.0 L244.8 312.05 244.75 320.2 243.9 320.05 243.9 315.3 Q243.9 289.8 244.5 284.0 L245.95 273.95 Q247.05 266.35 247.15 263.45 247.25 259.75 247.9 260.5 248.5 261.3 248.6 265.3" fill="#9c5c30" fill-rule="evenodd" stroke="none"/>
      <path d="M232.35 56.5 Q232.35 63.7 231.7 69.45 231.1 74.8 231.2 82.75 231.3 92.2 231.05 94.15 L229.6 105.25 Q228.7 113.85 229.15 118.05 230.2 127.2 230.35 131.9 L230.85 144.2 230.9 152.3 230.75 159.5 230.9 164.55 231.4 172.8 231.35 181.75 Q231.35 194.6 231.9 207.25 231.75 209.35 231.1 211.85 230.2 215.2 229.45 219.85 228.2 228.1 228.1 233.3 L228.15 251.65 228.1 266.45 228.15 278.5 227.65 316.95 226.95 316.8 227.3 296.3 227.35 281.95 227.3 268.7 227.45 229.7 Q227.45 224.95 228.9 217.15 L230.5 208.0 Q231.2 191.25 231.05 185.7 L230.35 169.55 229.75 152.15 229.4 139.5 228.6 122.3 Q228.2 113.8 228.4 108.95 L228.9 102.55 229.7 94.6 230.35 86.8 230.7 76.65 231.05 64.7 231.1 52.8 232.35 52.9 232.35 56.5" fill="#9c5c30" fill-rule="evenodd" stroke="none"/>
      <path d="M251.5 54.8 Q251.15 60.9 250.15 65.75 L249.2 69.45 248.9 67.25 Q248.55 64.25 248.2 54.45 L249.15 54.55 249.5 63.95 Q250.4 60.05 250.65 55.4 L250.7 54.7 251.5 54.8" fill="#9c5c30" fill-rule="evenodd" stroke="none"/>
      <path d="M255.85 68.55 L255.4 83.75 254.95 103.55 Q254.6 115.85 253.75 121.9 253.05 127.2 252.95 137.7 L253.05 156.9 252.3 144.65 252.3 140.65 Q252.3 127.05 253.05 120.5 253.5 116.5 253.9 91.45 L254.6 55.05 256.0 55.2 255.85 68.55" fill="#9c5c30" fill-rule="evenodd" stroke="none"/>
      <path d="M266.65 273.65 Q266.15 280.1 265.05 287.85 263.9 296.05 263.55 301.85 263.15 307.85 263.25 316.25 L263.5 323.7 262.95 323.55 262.65 318.5 Q262.35 313.5 262.4 309.65 262.5 306.3 262.95 301.2 L264.85 283.8 266.65 267.3 266.65 273.65" fill="#9c5c30" fill-rule="evenodd" stroke="none"/>
      <path d="M242.0 71.85 Q242.0 79.45 242.15 81.35 L242.3 83.65 Q242.3 85.0 241.45 87.05 240.55 89.1 240.55 91.85 L239.7 103.0 238.6 105.4 238.8 103.9 239.3 98.0 239.65 92.8 240.35 87.75 240.85 83.75 240.9 77.95 240.85 71.2 240.55 58.85 240.45 53.75 241.2 53.8 241.7 61.85 242.0 71.85" fill="#9c5c30" fill-rule="evenodd" stroke="none"/>
      <path d="M242.7 265.8 L241.35 284.55 Q240.6 296.75 240.55 306.85 L240.65 319.35 239.8 319.2 239.8 316.9 Q239.8 310.3 240.25 295.3 L240.7 274.9 Q240.7 270.1 241.3 265.15 241.95 265.75 242.5 265.8 L242.7 265.8" fill="#9c5c30" fill-rule="evenodd" stroke="none"/>
      <path d="M235.55 63.1 L234.4 74.25 Q233.9 79.4 233.85 88.2 L233.7 107.25 233.55 127.35 233.6 132.25 232.9 140.3 Q232.55 133.0 232.4 120.35 L232.25 101.6 Q232.15 93.05 232.8 83.0 233.35 74.75 234.1 68.95 235.35 60.15 235.55 53.2 L236.35 53.3 236.2 57.0 235.55 63.1" fill="#9c5c30" fill-rule="evenodd" stroke="none"/>
      <path d="M237.45 73.45 L236.9 79.2 236.75 85.4 236.8 97.7 236.75 107.6 236.4 113.35 Q235.25 119.1 234.4 125.45 234.35 120.1 235.15 111.6 L236.0 104.15 Q235.7 88.95 235.7 80.3 235.7 75.85 236.65 69.25 237.6 62.6 237.6 59.1 L237.6 53.4 238.35 53.5 238.15 63.2 237.45 73.45" fill="#9c5c30" fill-rule="evenodd" stroke="none"/>
      <path d="M263.85 57.7 L263.4 83.8 263.4 96.1 263.4 106.45 Q263.35 110.1 262.65 112.5 262.05 114.75 262.05 119.75 L261.75 131.2 261.15 142.8 Q260.9 148.6 261.0 155.3 L261.15 166.8 260.9 193.85 260.0 233.2 Q259.55 251.75 259.55 260.5 259.55 265.25 258.75 282.15 257.9 299.1 257.9 308.7 L258.0 322.65 257.35 322.55 Q257.0 310.0 257.0 303.25 257.0 298.4 257.9 284.95 258.8 271.45 258.8 266.7 L258.75 256.3 Q258.7 251.7 258.8 247.25 L259.85 208.7 260.15 168.8 260.1 152.4 Q260.05 143.5 260.15 140.85 L260.65 133.8 261.0 125.95 Q261.0 122.2 261.5 116.85 261.95 112.45 262.35 110.0 L262.75 99.8 262.95 87.15 262.95 71.4 262.95 56.85 263.0 55.85 263.9 55.95 263.85 57.7" fill="#9c5c30" fill-rule="evenodd" stroke="none"/>
      <path d="M237.6 262.9 L237.2 278.25 236.3 295.85 Q235.85 306.35 235.9 308.95 L236.35 318.55 235.3 318.35 234.85 306.6 235.25 297.9 235.85 286.4 236.4 273.95 236.75 260.15 236.8 253.25 Q237.15 255.1 237.65 256.95 L237.6 262.9" fill="#9c5c30" fill-rule="evenodd" stroke="none"/>
      <path d="M265.05 168.1 Q264.7 174.1 265.15 183.65 L265.65 196.6 265.45 211.85 264.75 227.9 Q264.3 234.0 264.3 244.1 264.3 254.2 264.75 259.8 L265.1 268.45 264.75 275.65 Q264.55 279.55 264.0 282.95 L262.5 291.1 Q261.65 295.3 261.45 305.3 L261.45 320.45 261.5 323.3 260.75 323.15 260.8 310.0 260.9 300.0 Q260.9 296.15 262.05 289.05 L263.4 278.35 263.75 269.0 Q263.85 264.1 263.55 258.3 263.3 253.25 263.7 241.35 L264.15 223.85 264.3 202.5 Q264.45 186.9 264.15 180.9 263.6 169.05 265.5 156.55 266.0 153.4 266.25 146.0 L266.55 134.8 266.65 130.35 266.65 155.55 265.85 159.95 Q265.35 163.25 265.05 168.1" fill="#9c5c30" fill-rule="evenodd" stroke="none"/>
      <path d="M261.9 57.0 L261.85 69.95 261.45 91.75 Q261.2 106.95 260.65 111.5 L258.95 125.15 Q257.95 135.35 258.15 143.0 L258.65 166.7 258.7 186.25 258.65 192.75 258.1 202.95 Q257.45 210.75 257.3 218.85 257.05 231.25 257.3 253.05 257.5 272.1 256.0 288.6 255.35 295.0 255.45 304.95 L255.7 322.2 255.05 322.1 254.8 301.55 255.25 292.75 255.7 281.95 Q256.3 266.55 256.3 258.4 L256.45 225.8 Q256.45 220.55 257.05 209.25 L257.75 196.25 257.85 184.0 257.6 167.1 Q257.4 160.4 257.5 145.6 L257.75 127.9 Q257.8 125.6 258.9 117.45 260.0 109.15 260.15 105.3 L260.7 81.75 261.0 57.45 261.05 55.7 261.9 55.75 261.9 57.0" fill="#9c5c30" fill-rule="evenodd" stroke="none"/>
      <path d="M265.65 56.1 L265.5 96.65 265.35 108.95 265.2 120.9 Q265.2 126.8 264.0 135.75 L262.5 146.9 Q262.25 149.8 262.6 154.4 L263.1 162.85 263.05 172.15 262.65 184.15 Q262.5 189.35 262.8 199.15 L263.1 214.2 263.05 231.5 262.95 250.8 Q262.75 269.75 261.75 282.0 L260.6 292.9 Q259.85 299.6 259.85 305.05 L259.85 323.0 259.2 322.85 259.1 308.9 Q259.0 302.75 259.85 293.0 260.45 286.05 261.0 282.1 261.3 280.2 261.8 269.1 L262.35 253.1 262.4 233.25 262.35 213.85 262.05 188.5 Q262.05 183.8 262.35 176.4 L262.65 167.5 262.2 160.05 261.6 150.25 Q261.4 141.75 263.85 131.25 264.4 128.85 264.55 114.15 L264.6 95.5 264.8 56.05 265.65 56.1" fill="#9c5c30" fill-rule="evenodd" stroke="none"/>
      <path d="M266.65 216.8 L266.55 231.05 Q265.95 238.8 266.05 240.85 266.1 242.3 266.65 245.4 L266.65 258.35 266.25 246.85 265.8 236.85 Q265.55 232.0 266.1 226.55 L266.65 216.8" fill="#9c5c30" fill-rule="evenodd" stroke="none"/>
      <path d="M266.65 56.2 L266.65 95.1 Q266.4 88.15 266.4 63.25 L266.5 56.2 266.65 56.2" fill="#9c5c30" fill-rule="evenodd" stroke="none"/>
      <path d="M266.65 165.3 L266.65 182.8 266.1 176.75 Q265.9 173.0 266.25 169.6 L266.65 165.3" fill="#9c5c30" fill-rule="evenodd" stroke="none"/>
      <path d="M259.95 55.6 L258.65 89.85 Q258.1 104.75 257.75 108.05 L257.0 114.65 Q256.4 122.25 256.15 126.95 255.85 133.65 255.85 142.7 L256.0 174.0 Q256.0 179.5 255.55 183.9 L254.35 198.2 Q253.75 207.2 254.15 209.5 255.05 214.95 255.25 218.8 255.75 227.3 255.55 230.9 L254.8 237.15 Q253.65 247.2 253.35 258.95 253.2 265.2 253.35 274.15 L253.6 287.4 Q253.6 291.8 252.9 297.35 252.15 302.9 252.15 305.55 252.15 309.25 252.7 321.65 L251.9 321.5 Q251.25 314.6 251.25 310.1 251.25 305.6 251.65 301.2 L252.3 294.25 252.85 285.2 Q253.15 278.85 252.75 273.6 252.4 268.45 252.6 260.35 L253.05 248.95 253.8 236.35 Q254.45 227.15 254.35 224.45 L253.9 217.3 253.25 208.5 253.6 194.95 254.5 184.85 Q255.15 173.45 254.8 159.9 254.6 152.95 255.05 137.95 L255.55 121.35 Q255.55 118.9 256.2 113.9 L257.0 106.25 257.8 91.5 258.5 75.9 259.1 55.5 259.95 55.6" fill="#9c5c30" fill-rule="evenodd" stroke="none"/>
      <path d="M232.75 221.85 Q231.75 225.8 231.5 229.55 231.15 234.25 231.6 240.25 L232.25 252.1 232.25 273.45 231.4 287.95 Q230.65 300.25 230.65 309.7 L230.65 317.5 229.5 317.3 230.65 295.6 Q231.05 288.2 230.95 282.2 L230.75 269.05 Q230.75 262.25 231.0 257.15 L231.2 250.35 230.75 232.25 Q230.55 226.45 232.45 217.8 L232.75 221.85" fill="#9c5c30" fill-rule="evenodd" stroke="none"/>
      <path d="M233.9 234.75 L234.6 240.2 234.7 253.5 234.8 275.45 Q234.75 283.8 233.7 297.95 233.05 306.75 233.0 311.45 232.95 314.8 233.2 318.0 L232.1 317.8 232.1 312.85 Q232.1 294.75 233.4 285.95 233.8 282.85 233.85 275.2 L233.85 257.55 233.9 234.75" fill="#9c5c30" fill-rule="evenodd" stroke="none"/>
      <path d="M245.05 71.35 L246.25 77.0 Q246.75 80.9 246.6 82.2 246.25 84.75 246.25 86.95 246.25 90.85 245.7 91.25 L244.5 91.5 243.35 92.1 Q242.7 92.75 242.15 96.45 241.75 98.85 241.7 100.9 L240.85 101.45 240.85 99.7 Q240.85 93.35 242.25 91.0 242.8 90.1 244.35 89.35 244.9 89.05 244.9 87.4 L244.8 84.2 244.3 79.55 243.45 75.1 Q243.2 73.95 243.2 71.15 L243.2 66.2 243.1 54.0 244.45 54.1 244.5 59.5 Q244.5 68.7 245.05 71.35" fill="#9c5c30" fill-rule="evenodd" stroke="none"/>
      <path d="M253.5 54.95 L253.5 57.25 253.25 69.85 251.85 83.1 Q251.0 89.4 251.3 90.35 251.85 92.1 251.85 94.35 251.85 99.9 251.35 107.8 250.75 116.4 249.95 121.7 L249.85 122.15 248.85 116.2 Q250.5 105.05 250.5 101.85 L250.4 92.9 250.6 87.65 250.95 80.6 Q251.05 77.5 251.6 73.75 L252.6 67.1 Q252.95 63.65 252.8 54.9 L253.5 54.95" fill="#9c5c30" fill-rule="evenodd" stroke="none"/>
      <path d="M247.45 61.15 Q247.8 68.25 248.9 74.6 249.9 80.4 249.95 84.2 250.0 88.4 248.95 94.35 L246.5 106.7 245.6 104.4 247.4 96.4 Q248.25 92.35 248.3 90.6 L248.6 85.3 Q248.7 82.75 248.15 77.95 247.05 67.6 246.25 54.3 L247.05 54.35 247.45 61.15" fill="#9c5c30" fill-rule="evenodd" stroke="none"/>
    </g>
    <g id="sprite6" transform="matrix(1.0, 0.0, 0.0, 1.0, 0.0, 0.0)">
      <use height="270.4" transform="matrix(1.0, 0.0, 0.0, 1.0, 0.0, 0.0)" width="44.25" xlink:href="#shape13"/>
    </g>
    <g id="shape13" transform="matrix(1.0, 0.0, 0.0, 1.0, 0.0, 0.0)">
      <path d="M12.2 71.5 Q8.95 95.0 8.95 128.9 8.95 162.75 12.2 187.15 15.45 211.55 20.1 212.35 24.7 213.15 28.0 189.6 31.3 166.0 31.3 132.0 31.3 97.95 28.0 73.45 24.7 49.0 20.1 48.45 15.45 47.95 12.2 71.5 M44.25 4.2 L44.25 270.4 0.0 262.15 0.0 0.0 44.25 4.2" fill="url(#gradient15)" fill-rule="evenodd" stroke="none"/>
    </g>
    <radialGradient cx="0" cy="0" gradientTransform="matrix(0.1208, 0.0, 0.0, -0.1182, 22.15, 135.25)" gradientUnits="userSpaceOnUse" id="gradient15" r="819.2" spreadMethod="pad">
      <stop offset="0.0" stop-color="#000000" stop-opacity="0.45882353"/>
      <stop offset="1.0" stop-color="#000000" stop-opacity="0.92941177"/>
    </radialGradient>
    <g id="shape14" transform="matrix(1.0, 0.0, 0.0, 1.0, -231.35, -100.75)">
      <path d="M242.5 100.75 L242.95 100.9 Q238.9 101.85 236.05 124.75 233.2 147.75 233.2 180.0 233.2 213.3 236.2 237.25 239.15 261.3 243.4 261.95 247.65 262.7 250.65 239.85 L252.0 228.0 250.4 242.9 Q247.1 266.6 242.5 265.8 237.85 265.0 234.6 240.4 231.35 215.85 231.35 181.75 231.35 147.65 234.6 123.95 237.85 100.25 242.5 100.75" fill="#6d4220" fill-rule="evenodd" stroke="none"/>
    </g>
    <g id="sprite7" transform="matrix(1.0, 0.0, 0.0, 1.0, 0.0, 0.0)">
      <use height="161.7" transform="matrix(1.0, 0.0, 0.0, 1.0, 0.0, 0.0)" width="21.5" xlink:href="#shape15"/>
    </g>
    <g id="shape15" transform="matrix(1.0, 0.0, 0.0, 1.0, 0.0, 0.0)">
      <path d="M10.7 0.0 Q15.15 0.5 18.35 24.65 21.5 48.8 21.5 82.4 21.5 115.95 18.35 139.2 15.15 162.45 10.7 161.7 6.3 161.0 3.15 136.85 0.0 112.75 0.0 79.4 0.0 46.05 3.15 22.75 6.25 -0.5 10.7 0.0" fill="url(#gradient16)" fill-rule="evenodd" stroke="none"/>
    </g>
    <linearGradient gradientTransform="matrix(0.0494, -0.048, 0.048, 0.0494, 8.65, 78.85)" gradientUnits="userSpaceOnUse" id="gradient16" spreadMethod="pad" x1="-819.2" x2="819.2">
      <stop offset="0.023529411764705882" stop-color="#e7f8f8"/>
      <stop offset="0.047058823529411764" stop-color="#d6efee"/>
      <stop offset="0.08235294117647059" stop-color="#c3e4e4"/>
      <stop offset="0.10588235294117647" stop-color="#bce0e0"/>
      <stop offset="0.34901960784313724" stop-color="#cdf0f0"/>
      <stop offset="0.5098039215686274" stop-color="#baebea"/>
      <stop offset="0.6235294117647059" stop-color="#b2e8e8"/>
      <stop offset="0.792156862745098" stop-color="#90d1d0"/>
      <stop offset="1.0" stop-color="#94e4e2"/>
    </linearGradient>
    <g id="shape16" transform="matrix(1.0, 0.0, 0.0, 1.0, -266.7, -69.55)">
      <path d="M268.7 188.75 L268.4 273.1 Q268.1 308.0 267.7 308.0 267.3 308.0 267.0 273.1 266.7 238.1 266.7 188.75 266.7 139.4 267.0 104.5 267.3 69.55 267.7 69.55 268.1 69.55 268.4 104.5 L268.7 188.75" fill="#945931" fill-rule="evenodd" stroke="none"/>
    </g>
  </defs>
</svg>
