<?xml version="1.0" encoding="UTF-8" standalone="no"?>
<svg xmlns:xlink="http://www.w3.org/1999/xlink" height="30.5px" width="164.25px" xmlns="http://www.w3.org/2000/svg">
  <g transform="matrix(1.0, 0.0, 0.0, 1.0, 0.0, 0.0)">
    <use height="30.5" transform="matrix(1.0, 0.0, 0.0, 1.0, 0.0, 0.0)" width="164.25" xlink:href="#shape0"/>
  </g>
  <defs>
    <g id="shape0" transform="matrix(1.0, 0.0, 0.0, 1.0, 0.0, 0.0)">
      <path d="M98.6 10.2 L80.45 15.5 Q97.2 8.55 98.35 8.35 L104.35 8.75 110.9 9.6 Q112.8 10.05 128.7 15.5 L109.0 10.85 98.6 10.2" fill="url(#gradient0)" fill-rule="evenodd" stroke="none"/>
      <path d="M149.45 15.4 L156.55 13.25 164.25 14.5 149.45 15.4" fill="url(#gradient1)" fill-rule="evenodd" stroke="none"/>
      <path d="M97.85 7.1 L109.75 7.7 122.05 13.1 110.7 9.05 106.35 8.45 102.75 8.15 98.75 7.95 Q98.1 7.95 94.15 9.55 L90.35 11.15 97.85 7.1" fill="#c0c5bc" fill-rule="evenodd" stroke="none"/>
      <path d="M132.4 20.5 Q133.1 20.8 138.4 20.6 L144.2 20.4 136.4 23.25 138.3 26.15 136.4 30.5 136.6 26.8 134.3 23.4 126.05 20.9 120.65 20.65 109.15 22.6 116.9 19.75 125.05 18.4 128.3 19.25 132.4 20.5" fill="url(#gradient2)" fill-rule="evenodd" stroke="none"/>
      <path d="M135.2 19.3 L141.15 19.8 134.45 20.2 132.8 20.2 130.65 19.75 125.0 17.7 129.25 18.3 132.0 18.85 135.2 19.3" fill="#c0c5bc" fill-rule="evenodd" stroke="none"/>
      <path d="M54.35 3.3 L60.7 5.35 52.2 5.85 41.05 8.65 32.55 11.55 21.65 14.45 30.1 10.85 38.55 7.9 27.7 4.3 15.0 2.65 0.0 4.8 7.15 2.85 Q14.1 0.95 15.3 1.05 L27.45 2.5 39.4 5.2 54.35 3.3" fill="url(#gradient3)" fill-rule="evenodd" stroke="none"/>
      <path d="M54.05 1.8 L60.5 5.0 54.65 3.3 51.3 3.05 49.45 3.65 47.4 4.05 43.45 4.05 40.1 4.15 40.95 3.8 42.25 3.45 47.55 3.2 50.2 2.8 54.05 1.8" fill="#c0c5bc" fill-rule="evenodd" stroke="none"/>
      <path d="M33.05 6.15 L37.45 7.9 30.5 10.1 Q29.15 10.6 25.85 12.15 L22.85 13.6 28.5 9.7 Q29.2 9.25 30.3 8.85 L31.9 8.25 33.75 7.35 29.9 5.6 28.6 5.25 27.35 4.95 25.55 4.55 24.05 4.25 28.35 4.45 33.05 6.15" fill="#c0c5bc" fill-rule="evenodd" stroke="none"/>
      <path d="M23.45 1.45 Q28.35 2.55 25.65 2.15 L18.9 1.25 14.3 1.0 9.15 1.8 5.35 2.65 7.85 1.55 9.85 1.15 12.55 0.35 Q13.65 -0.1 14.65 0.0 L15.8 0.25 23.45 1.45" fill="#c0c5bc" fill-rule="evenodd" stroke="none"/>
    </g>
    <linearGradient gradientTransform="matrix(-2.0E-4, -0.003, -0.003, 2.0E-4, 104.15, 9.8)" gradientUnits="userSpaceOnUse" id="gradient0" spreadMethod="pad" x1="-819.2" x2="819.2">
      <stop offset="0.0" stop-color="#202326"/>
      <stop offset="0.2" stop-color="#232629"/>
      <stop offset="0.3686274509803922" stop-color="#2d3132"/>
      <stop offset="0.5215686274509804" stop-color="#3e4241"/>
      <stop offset="0.6705882352941176" stop-color="#565a56"/>
      <stop offset="0.8117647058823529" stop-color="#747a72"/>
      <stop offset="0.9490196078431372" stop-color="#99a093"/>
      <stop offset="0.996078431372549" stop-color="#a7aea0"/>
    </linearGradient>
    <linearGradient gradientTransform="matrix(0.0011, -0.0029, -0.0029, -0.0011, 157.35, 13.6)" gradientUnits="userSpaceOnUse" id="gradient1" spreadMethod="pad" x1="-819.2" x2="819.2">
      <stop offset="0.0" stop-color="#202326"/>
      <stop offset="0.2" stop-color="#232629"/>
      <stop offset="0.3686274509803922" stop-color="#2d3132"/>
      <stop offset="0.5215686274509804" stop-color="#3e4241"/>
      <stop offset="0.6705882352941176" stop-color="#565a56"/>
      <stop offset="0.8117647058823529" stop-color="#747a72"/>
      <stop offset="0.9490196078431372" stop-color="#99a093"/>
      <stop offset="0.996078431372549" stop-color="#a7aea0"/>
    </linearGradient>
    <linearGradient gradientTransform="matrix(0.0, -0.004, -0.004, 0.0, 126.65, 20.65)" gradientUnits="userSpaceOnUse" id="gradient2" spreadMethod="pad" x1="-819.2" x2="819.2">
      <stop offset="0.0" stop-color="#202326"/>
      <stop offset="0.2" stop-color="#232629"/>
      <stop offset="0.3686274509803922" stop-color="#2d3132"/>
      <stop offset="0.5215686274509804" stop-color="#3e4241"/>
      <stop offset="0.6705882352941176" stop-color="#565a56"/>
      <stop offset="0.8117647058823529" stop-color="#747a72"/>
      <stop offset="0.9490196078431372" stop-color="#99a093"/>
      <stop offset="0.996078431372549" stop-color="#a7aea0"/>
    </linearGradient>
    <linearGradient gradientTransform="matrix(0.0011, -0.0068, -0.0068, -0.0011, 30.75, 2.4)" gradientUnits="userSpaceOnUse" id="gradient3" spreadMethod="pad" x1="-819.2" x2="819.2">
      <stop offset="0.0" stop-color="#202326"/>
      <stop offset="0.2" stop-color="#232629"/>
      <stop offset="0.3686274509803922" stop-color="#2d3132"/>
      <stop offset="0.5215686274509804" stop-color="#3e4241"/>
      <stop offset="0.6705882352941176" stop-color="#565a56"/>
      <stop offset="0.8117647058823529" stop-color="#747a72"/>
      <stop offset="0.9490196078431372" stop-color="#99a093"/>
      <stop offset="0.996078431372549" stop-color="#a7aea0"/>
    </linearGradient>
  </defs>
</svg>
