<?xml version="1.0" encoding="UTF-8" standalone="no"?>
<svg xmlns:xlink="http://www.w3.org/1999/xlink" height="72.95px" width="118.35px" xmlns="http://www.w3.org/2000/svg">
  <g transform="matrix(1.0, 0.0, 0.0, 1.0, 0.0, 0.0)">
    <use height="72.95" transform="matrix(1.0, 0.0, 0.0, 1.0, 0.0, 0.0)" width="118.35" xlink:href="#shape0"/>
  </g>
  <defs>
    <g id="shape0" transform="matrix(1.0, 0.0, 0.0, 1.0, 0.0, 0.0)">
      <path d="M19.9 57.5 Q20.4 58.35 19.85 62.15 19.75 63.05 19.2 63.6 L18.1 64.6 Q17.0 65.75 15.9 67.4 L15.45 68.45 Q15.25 69.05 14.85 69.25 L14.2 69.25 13.5 69.2 Q12.9 69.45 12.1 71.3 11.3 72.95 10.65 72.95 9.95 73.0 8.8 70.5 7.45 67.6 7.1 67.25 5.55 69.85 4.6 66.05 3.85 61.4 3.4 60.8 3.05 60.3 2.4 60.05 L1.5 59.5 Q1.3 59.2 1.2 58.15 L1.05 56.65 Q0.15 56.6 0.05 54.6 -0.05 53.1 0.2 51.85 0.35 50.15 0.6 49.25 1.0 47.65 2.1 48.0 L1.9 50.35 Q1.8 52.0 2.85 51.9 2.95 53.1 2.0 53.1 L2.4 55.2 Q2.75 56.4 3.55 56.8 4.75 57.4 7.3 56.45 L9.75 55.95 12.45 55.9 15.15 55.95 17.7 56.45 Q19.45 56.95 19.9 57.5" fill="#34240c" fill-rule="evenodd" stroke="none"/>
      <path d="M13.55 48.35 Q12.4 49.8 10.05 50.1 L6.65 50.2 3.4 49.75 3.75 47.6 Q3.3 46.6 3.85 45.9 L4.95 44.55 5.55 42.85 Q5.9 41.85 6.6 41.25 L7.15 40.95 7.8 40.5 8.05 39.65 Q8.2 39.0 8.5 38.9 L9.25 39.1 9.8 39.45 11.35 39.3 Q12.8 39.15 14.05 40.15 14.9 40.85 15.05 42.1 L14.9 44.6 Q14.55 47.1 13.55 48.35" fill="#34240c" fill-rule="evenodd" stroke="none"/>
      <path d="M4.95 41.4 Q5.25 42.2 4.5 42.85 L3.2 43.85 2.75 44.45 2.35 45.0 1.85 45.8 Q1.55 46.05 0.95 45.3 0.1 44.3 1.05 42.7 1.9 41.2 3.1 40.85 4.6 40.35 4.95 41.4" fill="#5c3f1a" fill-rule="evenodd" stroke="none"/>
      <path d="M6.0 40.2 Q4.7 39.75 5.05 38.9 5.35 38.1 6.6 38.35 7.8 38.6 7.7 39.6 7.6 40.55 6.35 40.3 L6.0 40.2" fill="#4b330f" fill-rule="evenodd" stroke="none"/>
      <path d="M10.4 39.3 Q9.25 39.4 9.25 38.6 9.25 37.8 10.4 37.85 11.4 37.85 11.5 38.5 11.55 39.15 10.5 39.3 L10.4 39.3" fill="#4b330f" fill-rule="evenodd" stroke="none"/>
      <path d="M13.85 38.55 L14.2 38.75 14.5 39.0 14.5 39.45 13.65 39.35 Q13.4 39.05 13.85 38.55" fill="#4b330f" fill-rule="evenodd" stroke="none"/>
      <path d="M1.6 50.75 L1.5 49.7 1.3 48.65 Q2.15 47.75 2.7 48.65 3.15 49.45 2.85 50.45 2.6 51.4 2.15 51.3 1.9 51.3 1.6 50.75" fill="#5c3f1a" fill-rule="evenodd" stroke="none"/>
      <path d="M2.35 53.1 L2.7 53.45 2.65 55.2 2.0 55.2 1.95 54.05 Q1.95 53.4 2.35 53.1" fill="#5c3f1a" fill-rule="evenodd" stroke="none"/>
      <path d="M33.4 57.4 Q26.45 60.8 22.45 60.8 L15.95 60.75 Q12.05 60.6 9.55 59.8 4.1 58.15 3.65 51.95 3.2 46.2 6.85 41.6 L12.05 40.15 Q13.55 40.15 15.4 41.4 17.35 42.7 18.7 42.8 20.5 42.95 23.5 41.95 26.65 40.85 28.15 40.85 L34.65 41.7 41.25 42.65 Q43.6 42.7 47.1 41.4 50.9 39.95 52.75 39.8 L56.55 39.65 Q58.6 39.5 60.0 38.5 L62.55 36.35 Q63.85 35.3 65.35 34.95 67.6 34.4 70.45 32.9 L75.45 30.2 79.8 27.4 Q82.3 25.7 84.25 25.35 L89.4 24.2 Q91.9 23.35 95.05 19.95 99.05 15.55 100.4 14.6 L108.95 8.75 Q114.15 5.7 118.35 5.1 L113.9 8.65 Q103.25 16.1 96.05 24.85 L94.6 27.1 93.1 29.15 Q91.15 31.0 86.9 32.0 82.3 33.1 80.55 34.35 77.7 36.45 70.85 42.85 64.8 48.45 60.8 50.85 57.55 52.8 52.65 53.55 L44.15 54.0 Q40.3 54.0 33.4 57.4" fill="#4b330f" fill-rule="evenodd" stroke="none"/>
      <path d="M20.0 53.65 L27.85 53.65 Q32.55 53.35 35.15 52.2 36.55 51.65 37.0 51.3 37.8 50.75 38.15 49.7 L32.35 49.75 39.25 48.8 46.1 47.95 49.05 47.8 Q50.45 47.65 51.8 46.9 L54.0 45.35 Q55.3 44.85 56.25 44.2 56.1 45.2 55.3 46.1 L58.9 44.65 Q61.15 43.8 62.4 43.0 L66.25 40.55 74.6 36.3 Q79.8 33.25 80.75 29.95 79.25 30.45 77.35 31.85 L74.15 34.0 Q76.35 31.95 79.2 30.3 82.85 28.15 85.0 28.4 L85.1 27.45 88.15 26.95 90.95 26.45 87.7 28.6 Q85.65 29.85 85.45 30.55 L86.4 30.6 87.35 30.65 Q86.35 31.5 85.0 31.8 L82.5 32.25 Q81.2 32.65 80.0 33.5 L77.9 35.2 74.8 37.8 71.55 40.15 68.2 41.9 Q66.0 42.9 64.95 43.7 L62.1 46.0 Q60.45 47.35 58.9 47.9 L54.3 48.65 Q51.15 49.2 50.7 50.4 L44.5 51.05 Q45.0 51.55 46.5 51.85 L48.6 52.5 43.6 52.45 38.6 52.65 Q37.2 52.9 35.45 53.8 L32.6 55.25 Q29.3 56.7 24.15 56.7 L15.3 56.45 17.85 57.5 20.5 58.25 13.7 58.0 Q9.6 57.5 7.5 55.8 6.35 54.85 5.1 52.6 3.65 50.1 3.8 48.65 L3.8 48.45 Q4.15 47.0 6.65 47.6 5.85 47.05 4.7 45.3 5.55 43.15 6.85 41.6 L7.9 41.3 Q7.7 44.25 10.2 47.15 12.6 49.9 15.5 50.5 L12.5 50.25 Q10.25 50.15 9.85 50.85 9.25 52.0 10.65 52.7 L13.05 53.4 20.0 53.65" fill="#402c08" fill-rule="evenodd" stroke="none"/>
      <path d="M110.2 9.35 L108.65 9.95 107.05 10.65 Q103.75 12.35 101.8 13.6 109.2 8.3 113.35 6.55 L113.55 6.55 111.95 8.15 Q111.3 8.75 110.2 9.35" fill="#402c08" fill-rule="evenodd" stroke="none"/>
      <path d="M91.3 26.15 Q90.95 25.45 91.2 23.3 93.0 22.2 95.8 19.1 98.9 15.7 100.4 14.6 L100.6 14.45 Q97.85 16.7 98.3 18.6 L91.65 25.8 91.3 26.15" fill="#402c08" fill-rule="evenodd" stroke="none"/>
      <path d="M27.95 41.3 L24.65 41.55 Q26.65 40.85 28.15 40.85 L34.25 41.6 Q30.95 42.6 27.0 42.65 L28.15 42.2 27.95 41.3" fill="#402c08" fill-rule="evenodd" stroke="none"/>
      <path d="M91.3 26.15 L91.4 26.3 90.95 26.45 91.3 26.15" fill="#34240c" fill-rule="evenodd" stroke="none"/>
      <path d="M33.4 57.4 Q26.45 60.8 22.45 60.8 L15.95 60.75 Q12.05 60.6 9.55 59.8 6.0 58.75 4.5 55.45 3.15 52.5 3.8 48.65 3.65 50.1 5.1 52.6 6.35 54.85 7.5 55.8 9.6 57.5 13.7 58.0 L20.5 58.25 17.85 57.5 15.3 56.45 24.15 56.7 Q29.3 56.7 32.6 55.25 L35.45 53.8 Q37.2 52.9 38.6 52.65 L43.6 52.45 48.6 52.5 46.5 51.85 Q45.0 51.55 44.5 51.05 L50.7 50.4 Q51.15 49.2 54.3 48.65 L58.9 47.9 Q60.45 47.35 62.1 46.0 L64.95 43.7 Q66.0 42.9 68.2 41.9 L71.55 40.15 74.8 37.8 77.9 35.2 80.0 33.5 Q81.2 32.65 82.5 32.25 L85.0 31.8 Q86.35 31.5 87.35 30.65 L86.4 30.6 85.45 30.55 Q85.65 29.85 87.7 28.6 L90.95 26.45 91.4 26.3 91.3 26.15 91.65 25.8 98.3 18.6 98.3 18.7 99.8 16.9 98.3 18.6 Q97.85 16.7 100.6 14.45 L101.8 13.6 Q103.75 12.35 107.05 10.65 L108.65 9.95 110.2 9.35 Q111.3 8.75 111.95 8.15 L113.55 6.55 113.35 6.55 Q115.95 5.45 118.35 5.1 L113.9 8.65 Q103.25 16.1 96.05 24.85 L94.6 27.1 93.1 29.15 Q91.15 31.0 86.9 32.0 82.3 33.1 80.55 34.35 77.7 36.45 70.85 42.85 64.8 48.45 60.8 50.85 57.55 52.8 52.65 53.55 L44.15 54.0 Q40.3 54.0 33.4 57.4" fill="#34240c" fill-rule="evenodd" stroke="none"/>
      <path d="M6.65 47.6 Q4.15 47.0 3.8 48.45 L4.7 45.3 Q5.85 47.05 6.65 47.6" fill="#34240c" fill-rule="evenodd" stroke="none"/>
      <path d="M32.85 47.6 L28.7 48.4 24.45 49.0 Q22.3 49.05 19.6 48.05 L15.0 46.55 23.95 47.55 32.85 47.6" fill="#402c08" fill-rule="evenodd" stroke="none"/>
      <path d="M61.7 41.5 L59.1 43.05 Q58.05 43.55 56.55 43.7 L50.25 44.05 Q46.95 44.35 43.95 45.1 L41.55 45.05 Q41.8 45.05 43.35 44.25 L45.4 43.25 51.0 42.45 57.65 41.2 Q62.2 40.05 64.35 39.8 63.6 40.2 61.7 41.5" fill="#402c08" fill-rule="evenodd" stroke="none"/>
      <path d="M57.55 39.55 Q57.05 40.0 56.05 40.25 L54.05 40.35 56.5 39.65 57.55 39.55" fill="#402c08" fill-rule="evenodd" stroke="none"/>
      <path d="M15.8 44.2 L12.85 44.15 14.0 44.65 Q11.2 44.65 10.3 43.05 12.2 43.1 15.8 44.2" fill="#402c08" fill-rule="evenodd" stroke="none"/>
      <path d="M27.7 43.5 Q32.55 43.85 38.0 42.3 L41.25 42.65 40.05 42.95 36.0 44.5 Q33.8 45.3 31.55 45.15 L26.9 45.4 22.35 46.15 20.0 46.5 17.25 46.1 14.0 44.65 16.1 44.65 18.0 44.75 15.8 44.2 20.8 43.65 Q25.45 43.35 27.7 43.5" fill="#5c3f1a" fill-rule="evenodd" stroke="none"/>
      <path d="M54.05 40.35 L46.75 41.5 Q50.8 39.95 52.65 39.8 53.05 40.2 54.05 40.35" fill="#5c3f1a" fill-rule="evenodd" stroke="none"/>
      <path d="M56.5 39.65 L54.05 40.35 Q53.05 40.2 52.65 39.8 L52.75 39.8 56.5 39.65" fill="#5c3f1a" fill-rule="evenodd" stroke="none"/>
      <path d="M12.85 44.15 L15.8 44.2 18.0 44.75 16.1 44.65 14.0 44.65 12.85 44.15" fill="#5c3f1a" fill-rule="evenodd" stroke="none"/>
      <path d="M16.85 50.7 Q19.6 49.8 23.65 50.15 27.8 50.55 30.3 52.0 L26.9 51.85 19.75 51.55 16.85 50.7" fill="#5c3f1a" fill-rule="evenodd" stroke="none"/>
      <path d="M32.35 45.95 L38.0 45.8 43.6 45.2 43.95 45.1 52.5 44.0 56.55 43.7 56.95 43.7 56.25 44.2 56.25 44.05 Q55.3 44.35 54.0 45.35 L49.8 46.15 45.4 46.2 38.8 46.6 Q34.85 46.8 32.35 45.95" fill="#5c3f1a" fill-rule="evenodd" stroke="none"/>
      <path d="M56.25 44.05 L56.25 44.2 Q55.3 44.85 54.0 45.35 55.3 44.35 56.25 44.05" fill="#5c3f1a" fill-rule="evenodd" stroke="none"/>
      <path d="M56.55 43.7 L52.5 44.0 43.95 45.1 Q46.95 44.35 50.25 44.05 L56.55 43.7" fill="#5c3f1a" fill-rule="evenodd" stroke="none"/>
      <path d="M89.55 24.15 L90.8 23.55 Q90.05 24.4 88.3 25.3 L90.45 25.6 88.3 26.15 86.1 26.65 Q85.15 27.1 84.15 27.5 82.9 28.0 82.35 27.9 L83.15 27.15 83.9 26.4 Q81.9 26.55 80.2 27.4 L76.9 29.45 75.4 30.45 74.1 31.55 Q73.65 32.05 72.55 34.1 71.65 35.8 70.85 36.25 L70.5 35.0 Q69.8 35.05 69.3 35.6 L68.45 36.3 66.35 36.7 64.25 36.95 Q63.55 37.1 61.15 38.6 59.25 39.75 58.1 39.4 L58.15 39.4 60.0 38.5 62.55 36.35 Q63.85 35.3 65.35 34.95 67.6 34.4 70.45 32.9 L75.45 30.2 79.8 27.4 Q82.3 25.7 84.25 25.35 L84.45 25.3 87.7 25.25 Q89.05 25.1 89.55 24.15" fill="#5c3f1a" fill-rule="evenodd" stroke="none"/>
      <path d="M89.55 24.15 Q89.05 25.1 87.7 25.25 L84.45 25.3 89.4 24.2 89.55 24.15" fill="#5c3f1a" fill-rule="evenodd" stroke="none"/>
      <path d="M67.0 39.35 Q66.05 39.7 64.15 41.05 62.4 42.3 61.3 42.55 L63.15 41.05 Q64.65 39.55 65.25 39.25 68.05 37.95 71.15 37.4 70.5 38.25 69.25 38.7 L67.0 39.35" fill="#5c3f1a" fill-rule="evenodd" stroke="none"/>
      <path d="M77.35 34.05 Q75.85 35.15 74.5 34.9 75.6 34.15 76.9 32.7 L78.3 31.65 79.25 31.7 Q78.75 33.05 77.35 34.05" fill="#5c3f1a" fill-rule="evenodd" stroke="none"/>
      <path d="M64.75 35.3 L66.6 34.65 68.4 34.3 68.55 34.85 70.3 34.65 69.35 35.3 Q68.65 35.75 68.8 36.25 69.4 35.65 70.75 36.0 69.95 36.1 69.2 36.85 68.45 37.6 69.6 37.55 68.55 37.6 67.1 38.85 65.55 40.1 64.7 40.15 63.6 40.3 62.95 39.7 L61.8 38.25 64.75 35.3" fill="#34240c" fill-rule="evenodd" stroke="none"/>
      <path d="M71.25 37.5 Q71.6 37.25 71.5 36.65 72.55 36.35 72.35 37.55 72.25 38.05 71.6 38.55 L70.65 39.45 71.45 39.6 Q71.3 40.35 70.15 41.25 68.95 42.15 68.2 42.05 L68.15 41.25 67.2 41.4 66.5 42.05 65.2 42.1 64.05 41.8 64.85 41.6 Q64.6 41.35 63.9 41.15 63.2 40.95 62.95 40.65 L64.85 40.85 66.6 40.5 67.1 40.15 67.6 40.3 68.25 39.55 Q68.6 39.05 69.1 39.2 L69.25 38.85 69.15 38.55 70.05 38.5 70.45 37.9 71.25 37.5" fill="#34240c" fill-rule="evenodd" stroke="none"/>
      <path d="M71.55 35.3 L70.75 34.6 Q71.15 34.2 71.9 34.4 L71.9 35.1 71.55 35.3" fill="#34240c" fill-rule="evenodd" stroke="none"/>
      <path d="M70.55 33.95 L69.85 33.9 Q69.65 33.15 70.55 33.3 71.15 33.35 71.0 33.8 L70.55 33.95" fill="#34240c" fill-rule="evenodd" stroke="none"/>
      <path d="M61.35 38.05 L61.45 38.4 62.15 39.2 63.55 40.5 Q62.9 40.6 62.6 40.15 L62.85 40.85 Q61.8 41.05 61.1 39.55 60.75 39.35 60.75 38.85 L61.2 38.05 61.1 37.8 61.35 38.05" fill="#5c3f1a" fill-rule="evenodd" stroke="none"/>
      <path d="M63.7 40.55 L65.4 39.55 67.2 39.35 Q67.05 40.45 65.85 40.7 L63.7 40.55" fill="#5c3f1a" fill-rule="evenodd" stroke="none"/>
      <path d="M69.2 36.8 Q70.6 36.0 70.9 37.0 71.05 37.6 70.35 37.9 L69.55 38.25 67.95 39.05 Q66.9 39.35 67.6 38.2 68.0 37.45 69.2 36.8" fill="#5c3f1a" fill-rule="evenodd" stroke="none"/>
      <path d="M73.8 8.0 L75.15 4.3 75.3 2.1 Q75.35 0.65 75.9 0.0 76.95 2.6 76.25 6.35 75.65 9.85 74.0 12.25 L70.1 17.95 Q68.0 21.5 67.95 24.35 67.95 26.15 68.7 31.9 69.15 37.1 67.5 38.75 66.6 39.7 64.8 39.85 62.9 39.95 62.05 38.95 61.25 38.05 61.4 35.55 61.5 33.8 62.0 31.9 L63.45 23.35 Q63.7 21.1 65.4 19.05 L68.9 15.65 Q72.15 12.6 73.8 8.0" fill="#4b330f" fill-rule="evenodd" stroke="none"/>
      <path d="M68.3 18.1 L68.85 17.6 Q68.2 19.0 67.5 21.45 L66.4 25.25 66.25 23.7 65.8 24.25 Q65.7 22.9 66.7 21.1 L68.3 18.1" fill="#402c08" fill-rule="evenodd" stroke="none"/>
      <path d="M66.85 28.5 L66.45 25.55 66.75 25.25 Q67.4 27.3 67.4 30.0 L67.15 34.7 Q65.9 34.45 65.5 36.3 65.15 38.0 63.7 37.35 L63.0 38.45 62.3 39.2 62.05 38.95 Q60.8 37.55 61.75 32.85 L62.0 33.8 62.3 38.05 Q63.0 37.35 63.35 35.55 L63.9 32.7 Q64.25 33.9 64.15 35.9 L65.1 31.75 Q65.6 32.7 65.3 35.25 L66.0 33.3 66.7 31.4 Q67.0 30.2 66.85 28.5" fill="#402c08" fill-rule="evenodd" stroke="none"/>
      <path d="M75.4 3.1 Q75.7 9.4 73.8 11.8 L72.4 13.25 71.8 13.6 73.55 10.4 Q74.5 8.7 74.15 7.05 L75.15 4.3 75.25 3.55 75.4 3.1" fill="#402c08" fill-rule="evenodd" stroke="none"/>
      <path d="M76.25 1.0 L75.4 3.1 75.35 1.5 Q75.45 0.6 75.9 0.0 L76.25 1.0" fill="#34240c" fill-rule="evenodd" stroke="none"/>
      <path d="M72.35 13.3 L70.85 15.6 68.85 17.6 69.35 16.55 Q69.9 15.55 72.35 13.3" fill="#34240c" fill-rule="evenodd" stroke="none"/>
      <path d="M73.8 11.8 Q75.7 9.4 75.4 3.1 L76.25 1.0 Q76.85 3.6 76.15 6.95 75.45 10.1 74.0 12.25 L70.1 17.95 Q68.0 21.5 67.95 24.35 67.95 26.15 68.7 31.9 69.15 37.1 67.5 38.75 66.65 39.6 65.0 39.8 63.3 39.95 62.3 39.2 L63.0 38.45 63.7 37.35 Q65.15 38.0 65.5 36.3 65.9 34.45 67.15 34.7 L67.4 30.0 Q67.4 27.3 66.75 25.25 L66.45 25.55 66.4 25.25 67.5 21.45 Q68.2 19.0 68.85 17.6 L70.85 15.6 72.35 13.3 73.8 11.8" fill="#34240c" fill-rule="evenodd" stroke="none"/>
      <path d="M64.25 25.0 L64.65 26.65 64.5 24.5 64.6 24.35 64.75 27.9 Q64.8 30.1 64.35 31.35 63.65 30.5 63.7 28.55 L63.9 25.5 64.25 25.0" fill="#402c08" fill-rule="evenodd" stroke="none"/>
      <path d="M66.25 30.65 Q65.75 30.2 65.75 29.2 L65.8 27.4 66.05 28.35 Q66.45 29.25 66.25 30.65" fill="#402c08" fill-rule="evenodd" stroke="none"/>
      <path d="M66.55 18.5 L68.6 17.1 67.05 19.35 65.05 21.45 65.75 20.2 66.55 18.5" fill="#402c08" fill-rule="evenodd" stroke="none"/>
      <path d="M62.25 34.2 L62.0 33.8 61.9 32.2 62.0 31.9 Q62.8 28.5 63.25 24.95 L63.2 28.4 63.1 31.45 Q63.0 33.3 62.25 34.2" fill="#5c3f1a" fill-rule="evenodd" stroke="none"/>
      <path d="M68.6 17.05 Q67.45 17.0 66.55 18.5 65.25 19.35 64.85 20.3 64.4 21.45 64.5 24.5 L64.25 25.0 Q64.0 23.85 63.9 22.35 L63.5 23.15 Q63.75 21.25 65.05 19.55 65.9 18.35 67.75 16.65 L69.3 16.1 68.6 17.1 68.6 17.05" fill="#5c3f1a" fill-rule="evenodd" stroke="none"/>
      <path d="M61.9 32.2 L62.0 33.8 61.75 32.85 61.9 32.2" fill="#5c3f1a" fill-rule="evenodd" stroke="none"/>
      <path d="M64.65 26.65 L64.25 25.0 64.5 24.5 64.65 26.65" fill="#5c3f1a" fill-rule="evenodd" stroke="none"/>
      <path d="M66.55 18.5 Q67.45 17.0 68.6 17.05 L68.6 17.1 66.55 18.5" fill="#5c3f1a" fill-rule="evenodd" stroke="none"/>
    </g>
  </defs>
</svg>
