<?xml version="1.0" encoding="UTF-8" standalone="no"?>
<svg xmlns:xlink="http://www.w3.org/1999/xlink" height="452.0px" width="42.8px" xmlns="http://www.w3.org/2000/svg">
  <g transform="matrix(1.0, 0.0, 0.0, 1.0, 0.0, 0.0)">
    <use height="452.0" transform="matrix(1.0, 0.0, 0.0, 1.0, 0.0, 0.0)" width="42.8" xlink:href="#sprite0"/>
  </g>
  <defs>
    <g id="sprite0" transform="matrix(1.0, 0.0, 0.0, 1.0, -3.75, -4.75)">
      <use height="440.6" transform="matrix(1.0, 0.0, 0.0, 1.0, 13.45, 16.15)" width="33.1" xlink:href="#shape0"/>
      <use height="132.65" transform="matrix(1.0, 0.0, 0.0, 1.0, 15.3, 22.1)" width="31.25" xlink:href="#sprite1"/>
      <use height="15.95" transform="matrix(1.0, 0.0, 0.0, 1.0, 11.9, 4.75)" width="3.85" xlink:href="#sprite2"/>
      <use height="15.85" transform="matrix(1.0, 0.0, 0.0, 1.0, 11.7, 4.85)" width="3.7" xlink:href="#shape3"/>
      <use height="10.6" transform="matrix(1.0, 0.0, 0.0, 1.0, 3.95, 9.25)" width="11.95" xlink:href="#sprite3"/>
      <use height="10.45" transform="matrix(1.0, 0.0, 0.0, 1.0, 3.75, 9.5)" width="12.05" xlink:href="#shape5"/>
    </g>
    <g id="shape0" transform="matrix(1.0, 0.0, 0.0, 1.0, -13.45, -16.15)">
      <path d="M33.55 150.2 Q34.3 149.4 35.35 149.4 36.45 149.4 37.2 150.2 37.95 150.95 37.95 152.0 L37.95 454.15 Q37.95 455.25 37.2 456.0 36.45 456.75 35.35 456.75 34.3 456.75 33.55 456.0 32.8 455.25 32.8 454.15 L32.8 152.0 Q32.8 150.95 33.55 150.2" fill="url(#gradient0)" fill-rule="evenodd" stroke="none"/>
      <path d="M35.35 153.0 L41.35 153.15 Q43.8 153.65 43.8 155.65 43.8 157.2 42.65 158.45 41.6 159.65 39.65 160.45 37.8 161.2 35.35 161.2 33.0 161.2 31.1 160.45 29.2 159.7 28.1 158.45 26.95 157.2 26.95 155.65 26.95 153.65 29.4 153.15 L35.35 153.0" fill="url(#gradient1)" fill-rule="evenodd" stroke="none"/>
      <path d="M15.6 18.85 L22.55 29.4 24.95 33.7 27.25 38.3 29.5 43.2 33.7 53.85 35.55 59.6 37.25 65.5 41.35 83.95 46.35 140.55 46.55 146.85 Q46.5 149.55 45.25 151.6 44.05 153.55 42.05 154.7 40.3 155.8 37.75 156.2 L33.0 156.0 Q30.7 155.5 28.7 154.1 26.65 152.7 25.5 150.5 24.3 148.2 24.2 145.15 L25.45 77.2 25.1 71.3 24.6 65.4 23.95 59.65 21.05 43.15 17.2 28.3 13.45 16.15 15.6 18.85" fill="url(#gradient2)" fill-rule="evenodd" stroke="none"/>
      <path d="M45.75 129.3 L46.5 143.55 43.6 144.8 Q42.0 145.4 39.9 145.85 L35.45 146.4 30.95 146.25 27.2 145.55 24.2 144.55 24.45 130.75 28.3 132.2 33.8 132.85 38.75 132.25 42.8 130.9 45.75 129.3" fill="url(#gradient3)" fill-rule="evenodd" stroke="none"/>
      <path d="M44.1 105.45 L45.0 117.6 Q42.8 118.7 40.95 119.2 38.25 119.95 35.4 120.1 L31.1 119.9 27.55 119.15 24.85 118.15 25.35 106.25 Q26.7 107.05 28.8 107.65 31.35 108.35 34.0 108.35 L38.1 107.85 41.55 106.75 44.1 105.45" fill="url(#gradient4)" fill-rule="evenodd" stroke="none"/>
      <path d="M25.6 97.35 L25.7 87.55 Q27.0 88.15 28.65 88.5 L32.95 88.85 Q35.6 88.7 38.2 87.65 40.25 86.75 41.6 85.65 L43.15 96.3 39.7 97.9 Q37.2 98.75 34.6 98.9 L29.3 98.5 25.6 97.35" fill="url(#gradient5)" fill-rule="evenodd" stroke="none"/>
      <path d="M35.15 69.2 L37.75 67.4 39.75 75.75 37.1 77.25 Q35.25 78.0 33.2 78.35 30.95 78.65 28.6 78.4 L25.5 77.7 25.05 70.05 27.55 70.6 Q29.15 70.85 31.2 70.55 33.3 70.2 35.15 69.2" fill="url(#gradient6)" fill-rule="evenodd" stroke="none"/>
      <path d="M32.55 50.8 L34.95 57.6 Q34.1 58.45 32.75 59.3 31.35 60.25 29.3 60.85 L26.45 61.35 24.15 61.35 23.3 55.0 27.05 54.5 Q28.85 53.95 30.5 52.75 L32.55 50.8" fill="url(#gradient7)" fill-rule="evenodd" stroke="none"/>
      <path d="M28.5 40.85 L31.25 47.35 29.35 48.8 Q28.3 49.55 26.75 50.1 24.75 50.85 22.65 51.05 L21.4 44.7 24.1 43.95 26.65 42.55 28.5 40.85" fill="url(#gradient8)" fill-rule="evenodd" stroke="none"/>
      <path d="M22.9 30.0 L25.35 34.45 Q24.2 35.8 22.45 36.65 L19.75 37.6 18.5 32.85 20.1 32.25 Q21.75 31.45 22.9 30.0" fill="url(#gradient9)" fill-rule="evenodd" stroke="none"/>
      <path d="M17.2 21.05 L20.05 25.3 18.35 26.55 16.9 27.3 15.35 22.35 15.6 22.2 Q16.5 21.7 17.2 21.05" fill="url(#gradient10)" fill-rule="evenodd" stroke="none"/>
    </g>
    <linearGradient gradientTransform="matrix(0.0031, 0.0, 0.0, -0.0031, 35.35, 303.1)" gradientUnits="userSpaceOnUse" id="gradient0" spreadMethod="pad" x1="-819.2" x2="819.2">
      <stop offset="0.00784313725490196" stop-color="#6e582d"/>
      <stop offset="0.5568627450980392" stop-color="#7a6741"/>
      <stop offset="1.0" stop-color="#6e582d"/>
    </linearGradient>
    <linearGradient gradientTransform="matrix(0.0103, 0.0, 0.0, -0.0103, 35.35, 157.1)" gradientUnits="userSpaceOnUse" id="gradient1" spreadMethod="pad" x1="-819.2" x2="819.2">
      <stop offset="0.00784313725490196" stop-color="#6e582d"/>
      <stop offset="0.5568627450980392" stop-color="#7a6741"/>
      <stop offset="1.0" stop-color="#6e582d"/>
    </linearGradient>
    <linearGradient gradientTransform="matrix(0.0202, 0.0, 0.0, -0.0202, 30.0, 86.25)" gradientUnits="userSpaceOnUse" id="gradient2" spreadMethod="pad" x1="-819.2" x2="819.2">
      <stop offset="0.00784313725490196" stop-color="#988b20"/>
      <stop offset="0.5568627450980392" stop-color="#9f953d"/>
      <stop offset="1.0" stop-color="#988b20"/>
    </linearGradient>
    <linearGradient gradientTransform="matrix(0.0178, 0.0, 0.0, -0.0178, 35.25, 137.9)" gradientUnits="userSpaceOnUse" id="gradient3" spreadMethod="pad" x1="-819.2" x2="819.2">
      <stop offset="0.00784313725490196" stop-color="#7f721b"/>
      <stop offset="0.5568627450980392" stop-color="#867c34"/>
      <stop offset="1.0" stop-color="#7f721b"/>
    </linearGradient>
    <linearGradient gradientTransform="matrix(0.0154, 0.0, 0.0, -0.0154, 35.25, 112.8)" gradientUnits="userSpaceOnUse" id="gradient4" spreadMethod="pad" x1="-819.2" x2="819.2">
      <stop offset="0.00784313725490196" stop-color="#7f721b"/>
      <stop offset="0.5568627450980392" stop-color="#867c34"/>
      <stop offset="1.0" stop-color="#7f721b"/>
    </linearGradient>
    <linearGradient gradientTransform="matrix(0.013, 0.0, 0.0, -0.013, 34.4, 92.3)" gradientUnits="userSpaceOnUse" id="gradient5" spreadMethod="pad" x1="-819.2" x2="819.2">
      <stop offset="0.00784313725490196" stop-color="#7f721b"/>
      <stop offset="0.5568627450980392" stop-color="#867c34"/>
      <stop offset="1.0" stop-color="#7f721b"/>
    </linearGradient>
    <linearGradient gradientTransform="matrix(0.0108, 0.0, 0.0, -0.0108, 32.7, 72.95)" gradientUnits="userSpaceOnUse" id="gradient6" spreadMethod="pad" x1="-819.2" x2="819.2">
      <stop offset="0.00784313725490196" stop-color="#7f721b"/>
      <stop offset="0.5568627450980392" stop-color="#867c34"/>
      <stop offset="1.0" stop-color="#7f721b"/>
    </linearGradient>
    <linearGradient gradientTransform="matrix(0.0093, 0.0, 0.0, -0.0093, 28.45, 56.1)" gradientUnits="userSpaceOnUse" id="gradient7" spreadMethod="pad" x1="-819.2" x2="819.2">
      <stop offset="0.00784313725490196" stop-color="#7f721b"/>
      <stop offset="0.5568627450980392" stop-color="#867c34"/>
      <stop offset="1.0" stop-color="#7f721b"/>
    </linearGradient>
    <linearGradient gradientTransform="matrix(0.0096, 0.0, 0.0, -0.0096, 25.75, 45.95)" gradientUnits="userSpaceOnUse" id="gradient8" spreadMethod="pad" x1="-819.2" x2="819.2">
      <stop offset="0.00784313725490196" stop-color="#7f721b"/>
      <stop offset="0.5568627450980392" stop-color="#867c34"/>
      <stop offset="1.0" stop-color="#7f721b"/>
    </linearGradient>
    <linearGradient gradientTransform="matrix(0.0072, 0.0, 0.0, -0.0072, 21.5, 33.8)" gradientUnits="userSpaceOnUse" id="gradient9" spreadMethod="pad" x1="-819.2" x2="819.2">
      <stop offset="0.00784313725490196" stop-color="#7f721b"/>
      <stop offset="0.5568627450980392" stop-color="#867c34"/>
      <stop offset="1.0" stop-color="#7f721b"/>
    </linearGradient>
    <linearGradient gradientTransform="matrix(0.0085, 0.0, 0.0, -0.0085, 17.35, 24.15)" gradientUnits="userSpaceOnUse" id="gradient10" spreadMethod="pad" x1="-819.2" x2="819.2">
      <stop offset="0.00784313725490196" stop-color="#7f721b"/>
      <stop offset="0.5568627450980392" stop-color="#867c34"/>
      <stop offset="1.0" stop-color="#7f721b"/>
    </linearGradient>
    <g id="sprite1" transform="matrix(1.0, 0.0, 0.0, 1.0, 0.0, 0.0)">
      <use height="132.65" transform="matrix(1.0, 0.0, 0.0, 1.0, 0.0, 0.0)" width="31.25" xlink:href="#shape1"/>
    </g>
    <g id="shape1" transform="matrix(1.0, 0.0, 0.0, 1.0, 0.0, 0.0)">
      <path d="M6.15 18.55 L7.45 23.7 8.65 28.95 10.6 39.9 11.35 45.55 11.95 51.3 12.35 57.05 12.65 62.9 12.85 74.7 11.9 126.9 Q12.0 129.5 12.45 131.25 10.75 129.7 9.9 127.8 8.9 125.55 8.9 123.05 L10.15 80.65 10.3 74.75 9.95 51.2 9.5 45.45 8.2 34.25 7.3 28.8 3.9 13.4 0.0 0.0 6.15 18.55" fill="#3d3817" fill-rule="evenodd" stroke="none"/>
      <path d="M5.0 3.6 L9.75 11.8 12.05 16.4 14.3 21.3 20.3 37.7 22.0 43.6 26.05 62.05 30.15 102.55 31.25 124.75 Q31.2 127.5 29.95 129.5 28.8 131.45 26.7 132.65 27.2 130.75 27.2 128.7 L26.75 112.05 23.4 62.6 22.5 56.5 20.1 44.55 18.65 38.75 17.1 33.1 11.45 17.35 2.65 0.05 5.0 3.6" fill="#3d3817" fill-rule="evenodd" stroke="none"/>
    </g>
    <g id="sprite2" transform="matrix(1.0, 0.0, 0.0, 1.0, 0.0, 0.0)">
      <use height="15.95" transform="matrix(1.0, 0.0, 0.0, 1.0, 0.0, 0.0)" width="3.85" xlink:href="#shape2"/>
    </g>
    <g id="shape2" transform="matrix(1.0, 0.0, 0.0, 1.0, 0.0, 0.0)">
      <path d="M3.6 15.95 L2.3 13.75 Q0.8 10.7 0.45 9.2 0.0 7.35 0.0 3.4 L0.1 0.0 1.55 3.2 Q3.0 6.8 3.45 8.9 4.0 11.05 3.8 13.6 L3.6 15.95" fill="url(#gradient11)" fill-rule="evenodd" stroke="none"/>
    </g>
    <linearGradient gradientTransform="matrix(0.0044, 0.0012, 0.001, -0.0036, 1.85, 7.95)" gradientUnits="userSpaceOnUse" id="gradient11" spreadMethod="pad" x1="-819.2" x2="819.2">
      <stop offset="0.00784313725490196" stop-color="#988b20"/>
      <stop offset="0.5568627450980392" stop-color="#9f953d"/>
      <stop offset="1.0" stop-color="#988b20"/>
    </linearGradient>
    <g id="shape3" transform="matrix(1.0, 0.0, 0.0, 1.0, -11.7, -4.85)">
      <path d="M15.4 20.7 L14.6 18.4 Q13.65 15.6 13.25 13.65 L12.2 8.05 11.7 4.85 12.85 8.15 14.5 13.9 15.25 18.5 15.4 20.7" fill="#b3a95d" fill-opacity="0.49803922" fill-rule="evenodd" stroke="none"/>
    </g>
    <g id="sprite3" transform="matrix(1.0, 0.0, 0.0, 1.0, 0.0, 0.0)">
      <use height="10.6" transform="matrix(1.0, 0.0, 0.0, 1.0, 0.0, 0.0)" width="11.95" xlink:href="#shape4"/>
    </g>
    <g id="shape4" transform="matrix(1.0, 0.0, 0.0, 1.0, 0.0, 0.0)">
      <path d="M11.95 10.6 L9.6 9.65 Q7.0 8.55 5.45 7.2 4.0 5.95 1.85 2.85 L0.0 0.0 3.05 1.8 7.85 5.15 Q9.4 6.55 10.8 8.7 L11.95 10.6" fill="url(#gradient12)" fill-rule="evenodd" stroke="none"/>
    </g>
    <linearGradient gradientTransform="matrix(0.0044, -0.0016, -0.0013, -0.0036, 5.95, 5.3)" gradientUnits="userSpaceOnUse" id="gradient12" spreadMethod="pad" x1="-819.2" x2="819.2">
      <stop offset="0.00784313725490196" stop-color="#988b20"/>
      <stop offset="0.5568627450980392" stop-color="#9f953d"/>
      <stop offset="1.0" stop-color="#988b20"/>
    </linearGradient>
    <g id="shape5" transform="matrix(1.0, 0.0, 0.0, 1.0, -3.75, -9.5)">
      <path d="M15.8 19.95 L13.85 18.6 10.0 15.7 6.0 11.85 3.75 9.5 6.6 11.55 11.2 15.15 14.45 18.35 15.8 19.95" fill="#b3a95d" fill-opacity="0.49803922" fill-rule="evenodd" stroke="none"/>
    </g>
  </defs>
</svg>
