<?xml version="1.0" encoding="UTF-8" standalone="no"?>
<svg xmlns:xlink="http://www.w3.org/1999/xlink" height="190.4px" width="89.95px" xmlns="http://www.w3.org/2000/svg">
  <g transform="matrix(1.0, 0.0, 0.0, 1.0, 0.0, 0.0)">
    <use height="190.4" transform="matrix(1.0, 0.0, 0.0, 1.0, 0.0, 0.0)" width="89.95" xlink:href="#shape0"/>
  </g>
  <defs>
    <g id="shape0" transform="matrix(1.0, 0.0, 0.0, 1.0, 0.0, 0.0)">
      <path d="M80.7 78.5 L81.7 79.25 Q88.3 84.4 88.35 90.4 88.4 94.2 85.35 100.15 L85.2 99.25 81.95 84.25 80.7 78.5 M82.25 125.9 Q86.15 134.75 86.65 136.95 89.9 150.4 89.95 163.9 90.05 179.75 85.5 190.4 82.15 187.15 79.65 178.55 76.9 169.2 74.35 165.95 74.55 167.45 74.35 169.95 L74.15 173.8 Q72.0 164.6 67.25 158.0 61.3 149.75 54.0 150.45 50.8 150.75 41.9 153.95 34.05 155.7 31.6 149.8 25.25 151.15 15.25 157.9 4.5 165.7 0.0 168.35 2.9 165.85 9.0 161.8 L17.4 155.7 Q25.95 148.15 25.5 136.3 31.7 138.65 37.45 135.65 43.1 132.7 44.7 126.7 47.0 118.1 44.8 113.45 42.45 108.4 34.25 106.35 38.2 102.15 38.35 99.35 38.5 97.0 36.2 95.05 45.2 95.0 48.95 102.15 50.45 104.95 51.65 109.95 L53.7 118.6 Q55.65 123.3 56.3 125.65 57.45 129.75 55.1 132.8 53.35 135.1 49.35 136.15 L40.65 136.85 41.55 137.15 35.55 137.5 Q35.3 142.0 41.9 143.3 L52.05 142.95 Q54.4 142.2 55.85 141.0 L57.4 139.6 Q58.1 139.1 61.95 142.85 L64.65 146.0 67.65 149.2 Q68.65 150.0 71.1 151.1 72.7 152.65 74.85 153.95 76.3 155.95 77.45 160.4 78.7 165.3 80.4 167.4 81.85 162.45 81.35 155.95 80.9 150.05 79.05 144.4 L74.85 134.75 Q71.75 126.9 73.5 124.75 75.4 122.5 77.75 124.25 80.6 126.4 81.5 126.15 L82.25 125.9 M33.9 93.55 L33.35 93.25 Q30.85 92.0 25.2 91.85 L23.4 91.85 32.9 90.8 Q32.95 91.65 33.65 93.0 L33.9 93.55 M16.55 91.75 L15.35 91.7 Q3.45 90.8 3.1 81.25 L13.25 80.25 Q20.65 79.1 21.8 76.4 22.6 74.6 21.1 72.55 L19.3 70.2 Q18.8 67.9 17.05 63.8 15.3 59.7 14.9 57.9 14.05 54.2 15.5 50.05 L18.2 42.65 20.85 30.25 Q22.7 21.8 24.8 16.45 31.05 0.6 43.75 0.0 L53.0 13.2 Q56.25 14.25 57.55 19.2 L33.15 5.0 Q33.8 9.3 30.2 15.55 25.75 23.3 25.2 25.65 24.65 27.85 24.8 30.65 L25.0 35.6 24.85 42.85 Q24.8 46.95 25.25 50.15 25.3 55.85 27.25 61.55 L30.25 64.3 30.9 66.35 Q31.35 67.75 31.15 68.5 30.6 70.4 28.0 70.7 25.2 71.0 24.55 72.3 23.95 73.45 24.8 76.6 25.65 79.75 25.0 80.9 23.2 84.05 17.95 84.9 L9.55 84.65 Q9.5 90.45 16.55 91.75" fill="#5e5140" fill-rule="evenodd" stroke="none"/>
      <path d="M80.7 78.5 L81.95 84.25 85.2 99.25 85.35 100.15 Q86.85 109.75 86.8 114.15 86.8 123.85 82.25 125.9 L81.5 126.15 Q80.6 126.4 77.75 124.25 75.4 122.5 73.5 124.75 71.75 126.9 74.85 134.75 L79.05 144.4 Q80.9 150.05 81.35 155.95 81.85 162.45 80.4 167.4 78.7 165.3 77.45 160.4 76.3 155.95 74.85 153.95 L76.05 154.6 75.75 148.5 Q75.35 144.95 74.05 142.8 L70.9 141.1 70.95 142.5 71.0 143.95 Q66.5 145.75 69.85 149.75 L71.1 151.1 Q68.65 150.0 67.65 149.2 L64.65 146.0 61.95 142.85 Q58.1 139.1 57.4 139.6 L55.85 141.0 Q54.4 142.2 52.05 142.95 L41.9 143.3 Q35.3 142.0 35.55 137.5 L41.55 137.15 Q46.8 138.8 53.3 139.1 62.05 139.45 65.45 136.35 70.95 131.3 66.5 122.85 65.3 120.55 62.5 116.1 60.25 112.3 60.0 110.0 L58.1 111.15 Q58.25 112.9 60.3 119.7 61.9 124.8 60.95 128.2 59.25 134.3 53.0 135.8 L49.35 136.15 Q53.35 135.1 55.1 132.8 57.45 129.75 56.3 125.65 55.65 123.3 53.7 118.6 L51.65 109.95 Q50.45 104.95 48.95 102.15 45.2 95.0 36.2 95.05 L34.45 95.1 33.9 93.55 33.65 93.0 Q32.95 91.65 32.9 90.8 L23.4 91.85 18.95 92.0 16.55 91.75 Q9.5 90.45 9.55 84.65 L17.95 84.9 Q23.2 84.05 25.0 80.9 25.65 79.75 24.8 76.6 23.95 73.45 24.55 72.3 25.2 71.0 28.0 70.7 30.6 70.4 31.15 68.5 31.35 67.75 30.9 66.35 L30.25 64.3 27.25 61.55 Q25.3 55.85 25.25 50.15 24.8 46.95 24.85 42.85 L25.0 35.6 24.8 30.65 Q24.65 27.85 25.2 25.65 25.75 23.3 30.2 15.55 33.8 9.3 33.15 5.0 L57.55 19.2 85.2 35.35 Q75.2 41.8 78.35 65.4 79.05 70.75 80.7 78.5 M27.85 38.05 Q28.8 43.25 31.55 52.1 32.7 55.85 34.55 65.1 36.25 73.55 37.75 77.75 33.55 78.75 30.85 75.6 31.35 79.25 29.35 81.65 27.5 83.9 23.95 84.5 38.15 85.85 44.95 87.65 57.0 90.85 58.3 100.95 63.05 95.05 61.4 79.35 60.5 70.8 57.95 55.95 L27.85 23.6 Q26.35 29.45 27.85 38.05" fill="#4e4539" fill-rule="evenodd" stroke="none"/>
      <path d="M27.85 38.05 Q26.35 29.45 27.85 23.6 L57.95 55.95 Q60.5 70.8 61.4 79.35 63.05 95.05 58.3 100.95 57.0 90.85 44.95 87.65 38.15 85.85 23.95 84.5 27.5 83.9 29.35 81.65 31.35 79.25 30.85 75.6 33.55 78.75 37.75 77.75 36.25 73.55 34.55 65.1 32.7 55.85 31.55 52.1 28.8 43.25 27.85 38.05 M49.35 136.15 L53.0 135.8 Q59.25 134.3 60.95 128.2 61.9 124.8 60.3 119.7 58.25 112.9 58.1 111.15 L60.0 110.0 Q60.25 112.3 62.5 116.1 65.3 120.55 66.5 122.85 70.95 131.3 65.45 136.35 62.05 139.45 53.3 139.1 46.8 138.8 41.55 137.15 L40.65 136.85 49.35 136.15 M71.1 151.1 L69.85 149.75 Q66.5 145.75 71.0 143.95 L70.95 142.5 70.9 141.1 74.05 142.8 Q75.35 144.95 75.75 148.5 L76.05 154.6 74.85 153.95 Q72.7 152.65 71.1 151.1" fill="#3f3832" fill-rule="evenodd" stroke="none"/>
    </g>
  </defs>
</svg>
