<?xml version="1.0" encoding="UTF-8" standalone="no"?>
<svg xmlns:xlink="http://www.w3.org/1999/xlink" height="34.65px" width="47.75px" xmlns="http://www.w3.org/2000/svg">
  <g transform="matrix(1.0, 0.0, 0.0, 1.0, 0.0, 0.0)">
    <use height="25.9" transform="matrix(1.0, 0.0, 0.0, 1.0, 0.0, 8.75)" width="47.75" xlink:href="#shape0"/>
  </g>
  <defs>
    <g id="shape0" transform="matrix(1.0, 0.0, 0.0, 1.0, 0.0, -8.75)">
      <path d="M19.3 15.0 L19.0 17.65 15.6 18.45 Q11.45 19.1 7.7 18.6 1.85 17.75 0.6 17.0 L0.6 14.35 Q1.15 13.85 2.5 13.3 5.2 12.25 9.25 12.25 15.1 12.25 17.8 13.65 19.15 14.3 19.3 15.0" fill="#a3a3a3" fill-rule="evenodd" stroke="none"/>
      <path d="M18.8 16.55 L16.6 25.25 Q16.5 26.05 14.5 26.75 12.4 27.5 9.75 27.5 7.05 27.5 4.9 26.75 2.9 26.05 2.9 25.2 L2.9 25.15 0.75 16.55 9.75 17.45 18.8 16.55" fill="url(#gradient0)" fill-rule="evenodd" stroke="none"/>
      <path d="M17.9 20.05 L17.1 20.55 13.05 21.25 4.3 20.65 Q2.45 20.25 1.5 19.7 L1.4 19.4 1.15 18.05 1.25 16.15 18.1 19.0 17.9 20.05" fill="#8a8a8a" fill-rule="evenodd" stroke="none"/>
      <path d="M19.45 14.65 L18.65 14.65 Q18.6 13.7 16.0 13.05 13.45 12.35 9.85 12.35 L3.65 13.05 Q1.1 13.7 1.05 14.65 L0.05 14.65 Q0.4 13.6 3.15 12.85 L9.75 12.15 16.3 12.85 Q19.1 13.6 19.45 14.65" fill="#ffffff" fill-rule="evenodd" stroke="none"/>
      <path d="M4.9 12.65 Q5.0 13.45 4.25 14.1 5.5 13.1 5.05 14.0 L4.5 15.0 Q4.25 15.35 3.5 15.45 2.3 14.4 2.3 13.9 2.3 13.65 2.9 13.75 L3.5 13.9 Q1.85 12.9 2.15 12.55 L3.1 12.6 Q1.9 11.65 2.3 11.25 2.65 10.95 3.25 11.5 L2.85 10.85 Q2.5 10.1 2.65 9.95 3.4 9.25 3.6 11.2 L3.85 10.65 Q4.15 10.15 4.3 10.4 4.6 10.8 3.9 11.8 L4.3 11.4 Q4.75 11.05 4.8 11.4 4.9 11.85 4.3 12.65 L4.5 12.45 Q4.8 12.15 4.9 12.65" fill="#547526" fill-rule="evenodd" stroke="none"/>
      <path d="M18.35 15.65 Q18.35 16.2 15.8 17.45 12.8 18.9 9.9 18.7 1.9 18.15 1.35 16.05 L1.35 15.25 1.6 14.5 2.05 14.05 2.3 13.65 Q2.2 13.1 2.8 12.6 L4.2 11.5 4.9 11.4 5.8 11.25 7.1 10.45 7.8 10.35 8.45 10.2 8.7 9.8 Q8.85 9.6 9.25 9.5 L10.65 9.05 11.8 8.85 Q12.5 8.9 12.9 9.35 L13.9 10.05 14.9 10.45 15.95 11.2 16.1 12.0 Q16.25 12.65 16.5 12.75 L16.9 12.95 17.25 13.45 17.45 14.1 17.7 14.55 Q18.35 15.05 18.35 15.65" fill="url(#gradient1)" fill-rule="evenodd" stroke="none"/>
      <path d="M16.75 13.1 L16.5 13.9 Q16.5 14.25 16.8 14.25 L17.1 14.15 16.95 14.45 Q16.3 15.05 16.8 15.2 L17.05 15.05 17.15 14.85 17.35 14.75 17.5 14.9 17.65 15.35 17.7 15.3 17.75 15.6 18.3 16.2 Q18.5 16.5 17.5 17.2 16.45 17.95 10.9 18.5 L4.45 18.75 2.5 17.8 1.6 16.95 Q1.3 15.55 1.35 15.25 L1.45 14.8 1.9 14.5 1.9 14.9 2.5 15.3 2.95 14.95 3.4 14.45 3.3 14.25 2.8 14.0 2.5 13.65 2.5 13.25 3.3 12.25 3.45 12.85 3.6 13.4 Q3.7 13.6 4.05 13.65 L4.7 13.6 4.95 13.4 4.5 12.7 4.6 12.3 4.7 12.05 5.05 12.45 5.15 12.6 Q5.3 12.65 5.35 12.5 L5.35 12.25 Q5.35 12.05 5.5 12.1 L5.8 12.3 6.15 12.75 6.7 12.85 7.0 12.6 6.8 12.2 6.55 11.85 6.5 11.45 Q6.55 10.95 7.05 10.5 L6.95 10.75 7.0 11.2 7.1 11.5 7.3 11.55 7.7 11.45 7.85 11.25 7.75 11.0 7.9 10.8 8.1 10.6 8.2 10.45 8.7 10.1 8.75 9.8 9.1 10.05 9.2 10.25 9.15 10.45 9.0 10.8 8.7 10.9 Q8.25 10.8 8.15 11.15 L8.25 11.45 8.05 11.75 Q7.9 12.0 8.05 11.95 L8.25 11.65 8.4 11.35 8.85 11.05 9.2 10.65 9.5 9.65 10.05 9.45 Q9.85 9.7 9.75 10.1 L9.5 10.85 9.65 10.95 9.9 10.8 10.1 10.55 10.1 10.6 9.8 11.1 9.4 11.45 Q8.7 11.85 8.65 12.05 L8.85 12.9 8.85 13.25 8.85 13.4 9.5 13.25 9.85 13.1 9.9 13.0 9.35 12.25 9.4 11.9 9.6 11.9 9.85 12.1 10.2 12.85 10.65 13.15 11.0 13.45 10.3 13.6 9.15 13.85 9.05 14.0 8.75 14.05 8.25 14.0 7.8 14.35 7.35 14.9 Q7.15 15.1 7.4 15.25 L7.95 15.5 Q8.2 15.65 8.25 15.4 L8.2 14.65 Q8.3 14.45 8.5 14.65 L9.0 14.75 Q9.3 14.8 9.1 15.15 L8.65 15.85 8.3 16.2 Q8.1 16.75 8.45 16.7 L8.85 16.8 9.1 16.5 9.3 15.8 9.5 15.15 9.7 14.8 10.0 14.65 10.6 14.75 11.05 15.05 11.4 15.45 11.15 15.65 Q10.9 15.35 10.5 15.4 L10.05 15.45 Q9.75 15.5 9.65 15.85 L9.35 16.4 Q9.3 16.65 9.55 16.65 L10.15 16.7 10.3 16.45 10.7 16.05 11.4 15.9 Q11.65 16.0 11.1 16.35 L10.75 16.55 Q10.65 16.6 10.7 16.75 L10.9 17.1 11.3 17.05 11.85 16.45 12.5 16.05 13.25 15.55 13.9 14.75 Q14.3 14.4 14.7 14.45 L15.2 14.75 15.55 14.75 15.75 14.4 15.95 13.9 16.3 13.25 16.5 13.0 16.7 13.0 16.75 13.1" fill="url(#gradient2)" fill-rule="evenodd" stroke="none"/>
      <path d="M13.3 9.65 L14.15 10.1 13.85 10.25 13.5 10.65 12.95 11.1 13.05 11.45 13.3 11.65 13.65 11.4 14.05 11.35 14.25 11.4 14.1 11.45 Q14.0 11.5 14.05 11.65 L14.0 12.05 14.25 12.1 14.85 12.15 14.9 12.05 15.2 12.0 15.7 12.2 15.85 12.35 16.0 12.5 15.95 13.0 15.3 12.85 14.7 12.6 14.1 12.8 Q13.2 13.05 13.0 13.25 L12.15 13.85 11.7 13.8 11.15 13.6 10.45 12.5 10.0 12.05 10.15 11.45 10.5 10.85 11.5 10.4 12.0 9.9 12.05 9.0 12.3 9.3 12.4 10.05 12.3 10.7 12.0 10.85 12.0 11.0 12.35 11.05 12.7 10.85 12.85 10.4 12.9 9.95 12.8 9.7 12.85 9.6 13.2 9.7 13.3 9.65" fill="url(#gradient3)" fill-rule="evenodd" stroke="none"/>
      <path d="M4.7 11.35 L5.9 11.15 5.75 11.35 5.75 11.5 4.75 11.7 Q3.9 11.9 3.65 12.25 L2.9 13.15 Q2.35 14.05 2.65 14.2 L3.4 14.45 4.35 15.05 4.1 15.45 2.9 15.0 Q2.25 14.45 2.2 13.75 2.15 13.45 2.25 13.25 L2.7 12.65 Q3.1 12.0 3.55 11.65 L4.1 11.4 4.7 11.35" fill="url(#gradient4)" fill-rule="evenodd" stroke="none"/>
      <path d="M13.6 11.95 Q13.5 12.2 12.8 12.35 L12.2 12.35 12.1 12.25 Q11.65 12.05 11.45 11.65 11.15 11.25 11.4 10.85 11.5 10.65 11.95 10.55 L12.9 10.6 13.55 11.3 13.6 11.95" fill="url(#gradient5)" fill-rule="evenodd" stroke="none"/>
      <path d="M9.2 10.85 L8.7 11.3 7.95 11.85 7.45 12.25 7.1 12.65 6.6 13.1 4.85 13.75 4.9 14.05 5.15 14.6 5.75 14.95 6.5 15.5 Q6.85 16.0 6.9 17.05 7.0 17.65 6.3 17.65 L5.9 17.5 Q6.35 16.05 5.85 15.65 L4.7 14.7 4.2 14.05 Q4.75 13.85 5.1 13.5 L5.4 13.2 6.2 12.75 6.65 12.35 6.45 12.05 Q7.55 11.85 8.3 11.15 L8.85 10.65 8.95 10.25 Q8.9 9.85 9.4 9.3 L10.05 9.1 10.2 9.05 9.8 9.45 9.55 10.0 9.4 10.5 9.2 10.85" fill="url(#gradient6)" fill-rule="evenodd" stroke="none"/>
      <path d="M16.9 15.05 L17.1 14.75 17.3 15.05 17.55 15.75 17.5 16.75 Q17.25 17.4 16.3 17.85 15.1 18.45 11.55 18.65 L5.7 18.3 Q3.8 17.85 2.2 16.75 L1.0 15.75 1.4 14.25 1.7 14.5 1.9 14.5 1.5 15.45 1.5 16.0 Q1.85 16.05 2.3 15.35 3.0 14.3 4.1 13.85 L4.75 13.5 5.1 13.05 5.8 12.5 6.5 12.6 5.7 13.1 5.3 13.65 4.75 14.1 Q3.65 14.55 3.5 14.85 L3.1 15.45 Q2.85 16.05 3.05 16.45 L3.35 17.05 3.95 17.05 Q4.9 16.95 5.2 15.95 L5.7 15.35 6.25 14.65 6.6 13.65 7.2 12.85 7.85 12.4 7.8 11.85 7.45 11.25 7.3 11.05 7.9 10.95 8.1 11.25 8.45 11.85 8.45 12.45 8.05 12.85 7.6 13.15 Q7.4 13.3 7.35 13.6 L6.75 14.85 6.1 15.65 5.65 16.25 5.5 16.65 5.75 16.9 6.8 17.15 7.8 17.2 8.5 16.6 Q8.9 16.05 8.9 15.55 L9.1 14.8 9.9 14.1 10.75 13.65 11.05 13.05 10.85 11.65 11.3 11.65 Q11.55 11.85 11.5 12.85 L11.1 13.9 10.35 14.5 Q9.6 15.0 9.55 15.45 L9.0 17.0 Q8.9 17.35 9.35 17.65 L10.75 17.8 12.65 17.85 Q13.55 17.85 13.6 17.15 L13.45 15.75 13.3 14.85 Q13.3 14.55 13.6 14.15 L14.0 13.45 13.5 12.45 Q12.9 11.8 13.1 11.6 L13.45 10.95 14.0 11.25 13.8 11.45 Q13.6 11.75 13.85 12.05 L14.35 12.95 Q14.55 13.55 14.3 13.85 L13.9 14.6 Q13.7 15.0 13.9 15.45 14.55 16.85 15.1 16.75 L15.8 16.55 Q16.15 16.4 15.95 16.05 L15.5 15.4 Q15.3 15.05 15.4 14.7 L15.8 14.15 Q16.0 13.85 15.85 13.55 L15.3 12.75 15.5 12.45 Q16.3 12.85 16.3 13.6 L15.9 14.4 Q15.65 14.8 15.9 15.15 L16.4 15.75 16.7 16.2 Q16.7 16.45 17.0 16.5 L17.3 16.25 17.1 15.55 16.9 15.05" fill="url(#gradient7)" fill-rule="evenodd" stroke="none"/>
      <path d="M12.25 8.85 L12.3 9.25 Q12.5 9.95 12.3 10.45 L11.6 10.8 10.75 11.1 10.4 11.55 10.25 11.95 10.25 12.05 10.5 12.3 11.9 13.45 Q12.3 13.7 12.6 14.45 12.7 15.05 12.15 15.6 L11.4 16.05 Q10.9 16.25 10.7 16.4 L10.35 17.15 10.3 17.65 9.25 17.45 10.0 16.4 10.75 15.75 11.7 15.25 Q12.45 14.8 12.0 14.25 L11.1 13.45 10.5 13.25 Q10.1 13.1 10.05 12.8 L9.65 12.15 9.35 11.9 9.85 11.65 10.45 10.85 11.3 10.3 11.75 9.95 11.7 9.45 Q11.65 8.9 11.25 8.75 L11.8 8.75 12.25 8.85" fill="url(#gradient8)" fill-rule="evenodd" stroke="none"/>
      <path d="M13.95 12.05 L14.5 12.05 14.1 12.65 13.7 13.1 13.0 13.65 12.1 14.3 11.75 14.75 12.6 15.15 14.9 15.75 16.0 16.55 15.15 16.85 14.1 16.0 13.3 15.8 12.1 15.65 Q11.35 15.45 11.0 15.05 L10.8 14.6 11.95 13.4 12.55 12.95 13.25 12.65 13.95 12.05" fill="url(#gradient9)" fill-rule="evenodd" stroke="none"/>
      <path d="M3.3 14.25 L4.05 14.05 4.95 14.25 Q5.4 14.75 5.2 15.4 L4.85 16.05 4.7 16.25 4.1 16.25 3.55 16.05 3.5 15.95 3.1 15.1 3.1 14.95 3.3 14.25" fill="url(#gradient10)" fill-rule="evenodd" stroke="none"/>
      <path d="M16.7 13.0 L16.95 13.15 17.15 13.25 17.3 13.5 17.55 14.05 17.7 14.45 18.0 14.8 18.3 15.35 17.35 16.0 16.9 15.95 16.55 15.6 16.0 15.25 15.25 14.85 Q14.95 14.55 15.2 14.15 L15.75 13.3 Q16.15 12.65 15.65 12.0 L16.0 12.15 16.4 12.8 Q16.55 13.25 15.9 13.95 15.7 14.1 15.8 14.4 L16.1 14.75 17.05 15.5 17.8 15.45 Q18.05 15.2 17.5 14.75 17.15 14.45 17.15 13.95 L16.7 13.0" fill="url(#gradient11)" fill-rule="evenodd" stroke="none"/>
      <path d="M15.9 11.9 L15.05 11.6 Q14.6 11.3 14.5 10.45 14.5 10.05 14.1 9.95 L14.9 10.45 14.9 10.65 15.5 11.4 16.1 11.65 16.2 12.15 15.9 11.9" fill="url(#gradient12)" fill-rule="evenodd" stroke="none"/>
      <path d="M5.1 12.45 L4.55 12.7 4.0 12.8 3.75 12.7 3.5 12.25 Q3.45 11.9 3.8 11.5 4.05 11.25 4.5 11.15 L5.1 11.2 Q5.45 11.3 5.45 11.8 L5.1 12.45" fill="url(#gradient13)" fill-rule="evenodd" stroke="none"/>
      <path d="M10.6 15.25 Q11.85 15.7 11.9 16.05 12.1 16.65 11.6 17.25 L10.8 17.25 11.4 16.0 Q11.4 15.6 10.1 15.45 L8.35 15.45 Q8.1 15.45 8.1 14.7 L7.9 13.45 6.75 12.6 5.9 11.9 5.9 11.3 6.0 11.0 6.5 10.8 Q6.7 10.55 7.1 10.45 L6.9 10.85 Q6.6 11.15 6.9 11.9 L7.3 12.5 Q8.4 13.25 8.55 13.5 L8.5 14.05 Q8.4 14.45 8.85 14.6 L10.6 15.25" fill="url(#gradient14)" fill-rule="evenodd" stroke="none"/>
      <path d="M12.1 18.25 L12.1 17.45 Q12.25 16.5 12.95 16.2 14.5 15.55 14.9 14.85 L15.25 13.4 Q16.15 14.85 16.1 16.0 16.05 16.75 15.4 17.4 L14.3 18.05 12.1 18.25" fill="url(#gradient15)" fill-rule="evenodd" stroke="none"/>
      <path d="M14.9 15.55 L15.1 15.9 15.3 15.5 15.5 14.75 15.45 15.5 15.25 15.9 15.6 15.8 15.9 15.55 15.5 16.05 15.1 16.2 15.1 16.25 14.8 16.65 15.25 16.65 15.8 16.45 15.25 16.8 14.55 16.95 14.2 17.4 12.9 17.9 12.5 17.85 12.65 17.45 13.0 16.6 12.9 16.9 12.9 17.45 13.2 17.5 13.6 16.1 13.6 16.7 13.7 17.4 14.1 17.2 14.4 16.85 14.15 16.25 14.2 15.55 14.3 16.2 14.55 16.65 14.7 16.5 14.95 16.05 14.8 15.7 14.75 15.4 14.9 15.55" fill="url(#gradient16)" fill-rule="evenodd" stroke="none"/>
      <path d="M10.95 9.05 L11.15 9.15 11.25 9.35 11.4 9.85 10.9 9.6 10.3 9.45 10.45 9.25 10.95 9.05" fill="#ebffbf" fill-rule="evenodd" stroke="none"/>
      <path d="M10.1 10.05 Q10.45 10.05 10.15 10.4 L9.75 10.5 9.75 10.4 9.9 10.2 Q9.95 10.05 10.1 10.05" fill="#ebffbf" fill-rule="evenodd" stroke="none"/>
      <path d="M10.7 10.2 Q11.35 10.2 10.9 10.35 L10.3 10.7 Q10.0 10.95 10.3 10.45 10.45 10.2 10.7 10.2" fill="#ebffbf" fill-rule="evenodd" stroke="none"/>
      <path d="M4.0 11.5 L4.3 11.3 4.6 11.25 4.7 11.45 4.4 11.55 4.1 11.65 4.0 11.65 4.0 11.5" fill="#ebffbf" fill-rule="evenodd" stroke="none"/>
      <path d="M3.5 13.05 L3.55 13.1 3.35 13.3 Q3.15 13.45 3.3 13.85 3.3 14.15 2.85 14.0 2.5 13.85 2.75 13.4 2.9 13.25 3.5 13.05" fill="#ebffbf" fill-rule="evenodd" stroke="none"/>
      <path d="M6.05 12.2 Q6.3 12.25 5.95 12.45 5.75 12.55 5.7 12.35 5.65 12.25 5.75 12.2 L6.05 12.2" fill="#ebffbf" fill-rule="evenodd" stroke="none"/>
      <path d="M6.1 13.65 L6.1 13.95 5.8 14.45 5.6 14.45 5.5 14.05 Q5.4 13.75 6.1 13.65" fill="#ebffbf" fill-rule="evenodd" stroke="none"/>
      <path d="M8.55 12.85 L8.7 13.05 8.65 13.25 8.35 12.95 Q8.25 12.8 8.55 12.85" fill="#ebffbf" fill-rule="evenodd" stroke="none"/>
      <path d="M10.65 11.85 Q10.9 11.95 10.7 12.35 L10.4 12.1 Q10.3 11.85 10.65 11.85" fill="#ebffbf" fill-rule="evenodd" stroke="none"/>
      <path d="M12.3 12.05 L12.15 12.05 11.85 11.85 Q11.6 11.85 11.55 11.7 L11.5 11.3 11.55 11.05 11.9 11.2 11.9 11.45 Q11.9 11.65 12.05 11.65 12.5 11.85 12.3 12.05" fill="#ebffbf" fill-rule="evenodd" stroke="none"/>
      <path d="M10.25 14.95 L10.45 15.25 9.9 15.2 9.9 15.05 10.25 14.95" fill="#ebffbf" fill-rule="evenodd" stroke="none"/>
      <path d="M7.3 15.4 L7.6 15.55 7.5 15.7 6.9 15.4 Q6.8 15.35 7.0 15.35 L7.3 15.4" fill="#ebffbf" fill-rule="evenodd" stroke="none"/>
      <path d="M13.0 12.85 L13.4 12.85 13.65 13.15 13.5 13.15 13.0 12.85 12.1 12.85 11.1 12.9 11.2 12.7 11.1 12.65 12.7 12.6 13.0 12.85" fill="#ebffbf" fill-rule="evenodd" stroke="none"/>
      <path d="M4.2 14.35 Q4.45 14.4 4.35 14.55 L4.1 14.65 3.45 14.7 3.3 14.65 3.4 14.45 4.2 14.35" fill="#ebffbf" fill-rule="evenodd" stroke="none"/>
      <path d="M14.95 11.7 L15.55 12.65 14.75 13.05 Q14.1 13.0 13.65 12.1 13.3 11.45 13.3 10.9 L13.45 10.45 14.15 9.95 14.95 11.7" fill="url(#gradient17)" fill-rule="evenodd" stroke="none"/>
      <path d="M15.3 12.7 L14.55 12.1 Q13.85 11.3 13.9 10.35 14.05 9.55 14.8 10.05 15.5 10.45 15.75 11.2 16.25 12.75 15.3 12.7" fill="#68ab2e" fill-rule="evenodd" stroke="none"/>
      <path d="M15.65 12.2 Q15.5 12.55 14.9 12.1 14.3 11.65 14.25 11.05 14.05 9.65 15.05 10.55 L15.6 11.35 15.65 12.2" fill="#6aa338" fill-rule="evenodd" stroke="none"/>
      <path d="M10.4 16.5 L10.85 15.45 11.65 15.85 Q11.95 16.4 11.55 17.3 11.1 18.4 10.3 18.45 L9.5 18.2 10.4 16.5" fill="url(#gradient18)" fill-rule="evenodd" stroke="none"/>
      <path d="M11.05 15.65 L11.0 16.6 Q10.8 17.65 10.0 18.1 9.3 18.5 9.2 17.65 9.1 16.8 9.55 16.2 10.5 14.85 11.05 15.65" fill="#7fc743" fill-rule="evenodd" stroke="none"/>
      <path d="M10.4 15.65 Q10.8 15.6 10.8 16.25 10.8 17.05 10.3 17.45 9.4 18.45 9.5 17.15 L9.75 16.2 Q10.05 15.7 10.4 15.65" fill="#8cd64d" fill-rule="evenodd" stroke="none"/>
      <path d="M8.7 10.55 L9.6 9.85 10.1 10.65 Q10.05 11.65 9.3 12.2 L7.75 12.35 6.9 11.3 8.7 10.55" fill="url(#gradient19)" fill-rule="evenodd" stroke="none"/>
      <path d="M9.7 10.35 L9.1 11.05 Q8.3 11.8 7.4 11.65 6.55 11.55 7.1 10.8 7.5 10.05 8.25 9.85 9.85 9.3 9.7 10.35" fill="#7fc743" fill-rule="evenodd" stroke="none"/>
      <path d="M9.2 9.95 Q9.55 10.15 9.1 10.7 L8.05 11.4 Q6.7 11.6 7.55 10.6 7.9 10.25 8.4 10.05 L9.2 9.95" fill="#8cd64d" fill-rule="evenodd" stroke="none"/>
      <path d="M9.9 11.25 L9.7 11.45 9.5 11.3 Q9.3 11.05 9.5 10.85 L9.7 11.0 9.9 11.25" fill="#ffffff" fill-rule="evenodd" stroke="none"/>
      <path d="M11.25 16.05 Q11.6 16.05 11.6 16.2 L11.45 16.3 11.25 16.05" fill="#ffffff" fill-rule="evenodd" stroke="none"/>
      <path d="M8.25 18.05 L8.35 18.25 8.3 19.05 Q8.2 19.65 7.65 19.95 6.6 20.05 5.75 19.45 5.05 19.05 5.05 18.75 L5.4 18.65 5.75 18.65 Q5.0 18.25 4.9 17.8 4.8 17.5 5.15 17.55 L5.55 17.65 Q4.55 17.15 4.45 16.7 4.35 16.45 4.7 16.4 L5.1 16.45 Q4.5 16.25 4.4 15.75 4.3 15.45 4.7 15.6 L5.1 15.8 Q4.5 15.3 4.6 14.95 4.65 14.7 4.9 14.95 L5.1 15.15 5.0 15.0 4.85 14.45 Q4.8 14.05 5.0 14.1 L5.6 14.8 5.7 14.55 Q5.8 14.35 5.95 14.5 L6.35 15.4 6.45 15.1 Q6.6 14.85 6.75 15.1 L6.95 16.2 7.15 15.9 Q7.35 15.65 7.45 15.95 L7.5 17.1 7.75 16.85 Q8.05 16.6 8.1 16.85 L8.05 18.3 8.25 18.05" fill="#60872b" fill-rule="evenodd" stroke="none"/>
      <path d="M5.85 15.85 L5.5 15.7 5.05 15.25 5.45 15.55 5.7 15.55 5.4 15.1 5.1 14.45 5.8 15.45 5.85 15.25 5.9 14.75 5.95 15.7 6.05 15.9 6.2 16.55 6.3 16.45 6.65 15.4 6.6 16.25 6.3 16.9 6.5 17.75 7.15 16.4 6.65 18.1 6.85 19.25 Q7.2 19.3 7.45 18.95 L7.75 17.7 7.7 18.9 7.25 19.65 6.55 19.85 Q6.45 19.85 6.5 19.6 L6.4 19.15 5.5 18.05 6.6 18.95 6.55 18.85 6.45 18.15 6.1 17.9 4.9 16.85 5.5 17.3 6.3 17.75 6.1 17.2 6.05 16.8 5.55 16.5 4.8 15.85 5.6 16.3 6.05 16.55 6.05 16.4 5.85 15.85" fill="url(#gradient20)" fill-rule="evenodd" stroke="none"/>
      <path d="M18.9 14.95 L19.5 14.95 19.5 18.15 Q19.45 19.25 16.6 20.05 13.75 20.85 9.75 20.85 5.75 20.85 2.9 20.05 0.1 19.3 0.0 18.15 L0.0 14.95 0.45 14.95 Q0.7 15.85 3.35 16.45 L9.7 17.1 15.95 16.45 Q18.6 15.85 18.9 14.95" fill="url(#gradient21)" fill-rule="evenodd" stroke="none"/>
      <path d="M18.65 14.65 L19.45 14.65 19.5 14.9 Q19.5 16.05 16.65 16.85 L9.75 17.65 Q5.7 17.65 2.85 16.85 0.0 16.05 0.0 14.9 L0.05 14.65 1.05 14.65 1.0 14.65 Q1.0 15.65 3.6 16.3 L9.85 17.0 16.05 16.3 Q18.65 15.65 18.65 14.65" fill="#ffffff" fill-rule="evenodd" stroke="none"/>
      <path d="M35.5 21.3 L29.5 20.2 28.1 19.65 28.1 16.9 30.1 15.85 Q32.9 14.7 37.1 14.7 43.15 14.7 46.0 16.15 47.4 16.85 47.6 17.6 L47.25 20.35 43.7 21.15 Q39.3 21.85 35.5 21.3" fill="#a3a3a3" fill-rule="evenodd" stroke="none"/>
      <path d="M47.0 19.25 L44.7 28.25 Q44.6 29.1 42.55 29.85 40.35 30.65 37.6 30.65 34.75 30.65 32.55 29.85 30.5 29.05 30.5 28.2 L28.25 19.25 37.65 20.1 47.0 19.25" fill="url(#gradient22)" fill-rule="evenodd" stroke="none"/>
      <path d="M46.25 21.75 L46.1 22.85 45.25 23.4 41.0 24.1 31.9 23.5 29.05 22.5 28.9 22.2 28.65 20.75 28.7 18.8 46.25 21.75" fill="#8a8a8a" fill-rule="evenodd" stroke="none"/>
      <path d="M37.6 14.65 Q41.55 14.65 44.45 15.4 47.3 16.1 47.7 17.25 L46.85 17.25 Q46.8 16.25 44.1 15.55 L37.7 14.85 31.25 15.55 Q28.6 16.25 28.5 17.25 L27.5 17.25 Q27.85 16.1 30.75 15.4 L37.6 14.65" fill="#ffffff" fill-rule="evenodd" stroke="none"/>
      <path d="M47.1 13.65 Q47.1 14.1 45.95 14.65 47.2 14.3 46.95 14.8 L46.1 15.5 Q46.6 15.35 46.3 15.9 45.95 16.65 44.9 16.85 46.6 16.7 45.7 17.2 L44.65 17.75 43.5 17.6 43.3 16.7 Q43.15 15.8 43.3 15.55 43.5 15.3 43.95 15.75 L44.4 16.25 44.05 15.3 Q43.7 14.4 44.0 14.25 44.5 14.15 44.8 14.85 L44.65 14.05 Q44.5 13.3 44.8 13.25 45.3 13.15 45.5 14.0 L45.55 13.15 Q45.65 12.35 45.9 12.3 46.95 12.15 46.05 13.9 L46.55 13.6 47.1 13.65" fill="#547526" fill-rule="evenodd" stroke="none"/>
      <path d="M41.95 12.4 Q42.3 12.55 42.9 12.85 L44.05 13.65 44.2 14.45 Q44.35 15.15 44.65 15.25 L45.1 15.45 45.4 16.0 45.65 16.65 Q45.7 17.05 45.9 17.1 46.55 17.6 46.55 18.25 46.55 18.85 43.9 20.1 40.75 21.65 37.75 21.45 29.45 20.85 28.9 18.65 L28.9 17.85 29.1 17.05 29.5 16.55 29.85 16.2 Q29.8 15.7 30.3 15.05 31.5 14.05 31.8 13.95 L32.5 13.85 33.5 13.65 34.25 13.25 34.85 12.85 35.55 12.75 36.2 12.6 36.5 12.2 Q36.65 11.95 37.05 11.85 L38.5 11.4 39.7 11.2 Q40.45 11.25 40.9 11.7 L41.95 12.4" fill="url(#gradient23)" fill-rule="evenodd" stroke="none"/>
      <path d="M41.9 17.35 Q42.3 17.0 42.7 17.05 L43.3 17.3 43.65 17.35 43.85 16.95 44.05 16.45 44.4 15.8 44.6 15.5 44.85 15.5 44.9 15.65 44.6 16.45 44.9 16.8 45.3 16.7 45.1 17.0 Q44.35 17.65 44.95 17.8 L45.15 17.65 45.3 17.45 45.5 17.35 45.65 17.5 45.85 17.95 45.9 17.9 45.95 18.25 46.5 18.85 Q46.7 19.2 45.7 19.9 44.55 20.7 38.75 21.3 L32.05 21.5 Q31.1 21.25 30.1 20.5 L29.1 19.65 28.9 17.85 28.95 17.35 29.35 17.1 29.45 17.5 30.1 17.9 30.5 17.55 31.0 17.05 30.9 16.85 30.3 16.55 30.05 16.15 Q29.9 16.0 30.1 15.75 L30.9 14.75 31.05 15.4 31.2 15.9 Q31.3 16.15 31.7 16.2 32.6 16.25 32.6 15.9 L32.1 15.25 Q32.1 15.05 32.25 14.8 L32.35 14.5 32.7 14.9 32.85 15.05 33.0 15.0 33.05 14.7 33.1 14.6 33.5 14.8 33.85 15.25 34.45 15.4 34.7 15.1 34.5 14.65 34.25 14.25 Q34.15 14.2 34.2 13.85 L34.5 13.2 34.75 12.9 34.7 13.2 34.75 13.65 34.8 13.95 35.1 14.05 35.5 13.95 35.6 13.7 35.5 13.45 35.65 13.25 35.85 13.05 36.0 12.85 36.5 12.5 36.55 12.15 36.7 12.25 36.9 12.45 37.0 12.6 36.95 12.85 36.8 13.25 36.5 13.3 Q35.95 13.25 35.95 13.55 L36.0 13.95 35.8 14.25 Q35.7 14.45 35.85 14.45 L36.05 14.15 36.2 13.8 36.65 13.5 37.05 13.05 37.35 12.05 37.9 11.8 37.65 12.5 37.3 13.25 37.5 13.35 37.7 13.25 37.9 12.95 Q38.05 12.85 38.0 13.0 L37.65 13.55 37.25 13.9 36.7 14.2 Q36.5 14.3 36.45 14.55 L36.65 15.45 36.65 15.8 36.7 15.95 37.35 15.75 Q37.9 15.7 37.75 15.45 L37.2 14.7 37.25 14.35 37.45 14.4 37.7 14.6 38.1 15.3 38.5 15.65 38.9 16.05 38.15 16.1 36.95 16.4 36.9 16.5 36.55 16.6 36.0 16.55 Q35.75 16.6 35.55 16.9 L35.1 17.5 Q34.9 17.7 35.15 17.85 L35.7 18.15 Q36.0 18.25 36.05 18.0 L35.95 17.5 35.95 17.2 36.1 17.1 36.3 17.25 36.8 17.35 Q37.1 17.4 36.9 17.75 L36.45 18.45 36.1 18.85 36.0 19.25 36.25 19.4 36.65 19.45 36.9 19.15 37.1 18.4 37.3 17.75 37.5 17.4 Q37.6 17.25 37.85 17.25 L38.5 17.3 39.3 18.05 39.1 18.3 Q38.75 18.0 38.4 18.0 L37.9 18.05 Q37.6 18.1 37.5 18.45 L37.2 19.05 37.4 19.3 38.05 19.35 38.15 19.1 38.6 18.7 39.3 18.55 Q39.55 18.65 39.0 19.05 L38.65 19.2 38.55 19.45 38.85 19.8 39.2 19.75 39.75 19.1 40.5 18.7 41.25 18.15 41.9 17.35" fill="url(#gradient24)" fill-rule="evenodd" stroke="none"/>
      <path d="M40.75 12.05 Q40.7 11.9 40.8 11.95 L41.2 12.1 41.3 12.05 42.2 12.5 41.85 12.65 41.5 13.05 40.9 13.55 41.05 13.9 41.3 14.1 41.7 13.85 42.1 13.8 42.3 13.85 42.15 13.9 42.05 14.15 42.05 14.45 Q42.05 14.6 42.3 14.6 L42.9 14.65 43.0 14.5 43.3 14.45 43.75 14.65 43.95 14.85 44.1 15.0 44.1 15.5 43.4 15.3 42.8 15.1 42.15 15.3 Q41.3 15.45 41.0 15.75 L40.1 16.4 39.6 16.35 Q39.2 16.25 39.1 16.15 38.5 15.05 38.3 15.05 L37.85 14.5 38.0 13.9 38.1 13.6 38.4 13.25 39.4 12.8 39.95 12.25 40.0 11.35 40.25 11.65 40.35 12.45 40.2 13.1 39.9 13.3 39.9 13.4 40.3 13.45 40.65 13.3 40.9 12.3 40.75 12.05" fill="url(#gradient25)" fill-rule="evenodd" stroke="none"/>
      <path d="M32.4 14.15 L31.5 14.5 31.25 14.7 30.95 14.95 30.45 15.65 Q29.9 16.6 30.15 16.75 L30.95 17.05 32.0 17.6 31.7 18.1 30.5 17.6 Q29.8 17.05 29.7 16.3 L29.8 15.85 30.25 15.2 30.5 14.8 31.15 14.1 31.7 13.85 32.35 13.8 33.6 13.6 33.45 13.8 Q33.3 13.95 33.45 13.95 L33.65 13.95 32.4 14.15" fill="url(#gradient26)" fill-rule="evenodd" stroke="none"/>
      <path d="M41.7 14.8 Q41.95 15.05 41.8 15.45 41.7 15.65 40.95 15.85 L40.35 15.85 40.2 15.75 39.5 15.15 Q39.2 14.65 39.5 14.25 39.6 14.05 40.1 13.95 L41.05 14.0 Q41.65 14.3 41.7 14.8" fill="url(#gradient27)" fill-rule="evenodd" stroke="none"/>
      <path d="M37.65 11.85 L37.25 12.9 37.05 13.25 36.5 13.75 35.75 14.3 35.2 14.7 Q34.85 15.4 34.3 15.65 L32.5 16.3 32.55 16.65 32.85 17.15 33.5 17.55 34.2 18.1 34.65 19.7 Q34.7 20.35 34.0 20.4 L33.55 20.2 Q34.05 18.7 33.5 18.25 L32.3 17.25 31.8 16.6 32.15 16.45 32.7 16.05 33.05 15.7 33.9 15.25 34.35 14.85 34.1 14.55 Q35.3 14.35 36.1 13.6 L36.7 13.1 36.75 12.65 Q36.7 12.45 37.0 12.05 L37.25 11.65 37.4 11.65 Q37.65 11.65 37.9 11.45 L38.05 11.45 37.65 11.85" fill="url(#gradient28)" fill-rule="evenodd" stroke="none"/>
      <path d="M44.4 16.1 L44.05 16.95 Q43.75 17.4 44.0 17.75 L44.55 18.35 44.8 18.85 45.15 19.15 45.5 18.85 45.3 18.15 45.1 17.65 45.3 17.3 45.5 17.65 45.75 18.4 45.7 19.4 44.4 20.6 Q43.2 21.25 39.5 21.45 L33.3 21.05 Q31.35 20.55 29.7 19.45 L28.5 18.4 28.9 16.85 29.25 17.05 29.35 17.1 29.0 18.05 29.0 18.65 29.25 18.6 29.85 17.95 Q30.65 16.85 31.75 16.45 L32.4 16.05 32.75 15.55 33.5 15.0 34.15 15.05 33.4 15.65 32.95 16.2 32.4 16.65 31.1 17.45 30.7 18.05 Q30.4 18.65 30.6 19.05 L30.9 19.7 31.55 19.75 Q32.45 19.65 32.9 18.6 L33.35 17.95 33.95 17.25 34.3 16.25 Q34.5 15.65 34.9 15.4 L35.6 14.85 35.55 14.25 35.2 13.65 35.05 13.5 35.65 13.4 35.9 13.65 36.2 14.35 Q36.35 14.95 35.85 15.35 L35.35 15.65 Q35.15 15.85 35.1 16.1 L34.5 17.45 33.75 18.25 33.3 18.9 33.2 19.3 33.45 19.6 35.55 19.85 36.3 19.25 36.7 18.2 36.9 17.35 37.7 16.65 38.65 16.25 38.9 15.55 38.85 14.55 38.7 14.1 39.25 14.1 Q39.5 14.3 39.4 15.35 L38.95 16.45 38.25 17.05 37.65 17.5 37.4 18.05 36.8 19.65 Q36.7 20.05 37.15 20.3 L38.65 20.45 40.6 20.55 Q41.55 20.6 41.6 19.85 L41.45 18.35 41.3 17.45 Q41.3 17.15 41.65 16.7 L42.0 16.05 Q42.05 15.75 41.5 15.0 40.9 14.25 41.1 14.05 L41.45 13.35 42.05 13.7 41.8 13.9 Q41.65 14.2 41.9 14.5 42.75 15.8 42.35 16.45 L41.9 17.2 Q41.7 17.6 41.9 18.05 42.65 19.6 43.2 19.45 L43.9 19.25 Q44.25 19.05 44.05 18.7 L43.6 18.0 Q43.35 17.65 43.5 17.25 L43.9 16.7 Q44.1 16.45 43.9 16.05 L43.35 15.25 43.55 14.95 44.0 15.25 Q44.45 15.65 44.4 16.1" fill="url(#gradient29)" fill-rule="evenodd" stroke="none"/>
      <path d="M39.15 11.05 L39.7 11.1 40.2 11.25 40.3 11.6 Q40.45 12.35 40.25 12.85 L39.5 13.25 38.65 13.5 38.3 14.0 38.1 14.45 38.1 14.55 38.35 14.8 Q38.75 15.4 39.85 16.0 40.3 16.25 40.6 17.05 40.65 17.65 40.1 18.2 L39.3 18.7 Q38.75 18.9 38.6 19.05 L38.2 19.85 38.1 20.35 37.1 20.15 37.9 19.05 Q38.1 18.65 38.7 18.4 L39.65 17.85 Q40.4 17.35 39.95 16.8 L39.0 16.05 38.35 15.8 37.9 15.25 37.5 14.65 37.15 14.4 37.7 14.1 38.3 13.25 Q38.45 13.0 39.2 12.7 L39.7 12.35 39.65 11.8 Q39.6 11.45 39.35 11.25 L39.15 11.05" fill="url(#gradient30)" fill-rule="evenodd" stroke="none"/>
      <path d="M42.0 14.5 L42.5 14.55 42.1 15.15 41.7 15.65 40.95 16.15 Q40.5 16.35 40.05 16.85 L39.7 17.35 40.55 17.75 43.0 18.4 44.1 19.2 43.25 19.55 42.15 18.65 41.3 18.45 40.1 18.25 Q39.3 18.05 38.9 17.65 L38.7 17.2 39.9 15.95 Q40.0 15.8 41.25 15.15 L42.0 14.5" fill="url(#gradient31)" fill-rule="evenodd" stroke="none"/>
      <path d="M32.9 18.05 L32.75 18.35 32.5 18.7 32.3 18.85 31.7 18.85 31.1 18.65 31.0 18.55 30.65 17.7 30.65 17.55 Q30.65 17.05 30.9 16.85 L31.65 16.65 Q32.3 16.5 32.6 16.85 33.1 17.3 32.9 18.05" fill="url(#gradient32)" fill-rule="evenodd" stroke="none"/>
      <path d="M44.1 14.65 L44.5 15.25 Q44.65 15.65 43.95 16.5 43.8 16.65 43.9 16.95 L44.2 17.35 45.2 18.1 46.0 18.05 Q46.2 17.85 45.7 17.35 45.3 17.0 45.3 16.5 L45.1 15.9 44.85 15.5 45.1 15.65 45.3 15.75 45.5 16.05 45.7 16.65 45.85 17.0 46.2 17.35 46.5 17.95 45.55 18.65 Q44.95 18.8 44.7 18.2 44.6 18.05 44.1 17.85 L43.3 17.45 Q43.05 17.1 43.25 16.7 L43.9 15.85 Q44.3 15.1 43.7 14.45 L44.1 14.65" fill="url(#gradient33)" fill-rule="evenodd" stroke="none"/>
      <path d="M42.1 12.35 Q42.5 12.45 42.9 12.85 L43.0 13.05 Q43.25 13.65 43.65 13.85 L44.25 14.1 44.3 14.65 44.05 14.4 43.1 14.05 Q42.65 13.75 42.55 12.85 L42.3 12.45 42.1 12.35" fill="url(#gradient34)" fill-rule="evenodd" stroke="none"/>
      <path d="M37.2 11.15 Q37.55 10.8 38.05 10.75 38.7 10.7 39.05 11.05 39.4 11.25 39.4 11.65 L38.9 12.35 Q38.6 12.65 38.35 12.65 L38.2 12.65 37.3 12.45 Q36.75 12.2 36.85 11.75 L37.2 11.15" fill="url(#gradient35)" fill-rule="evenodd" stroke="none"/>
      <path d="M33.7 13.4 L34.2 13.2 34.85 12.85 34.6 13.3 Q34.35 13.55 34.65 14.4 L35.1 15.0 35.7 15.45 36.35 16.05 36.3 16.65 Q36.15 17.05 36.65 17.2 L38.5 17.85 Q39.75 18.35 39.9 18.7 40.05 19.35 39.5 20.0 L38.7 19.9 Q39.3 19.2 39.3 18.6 39.3 18.2 37.9 18.05 L36.1 18.05 Q35.9 18.05 35.9 17.3 L35.65 16.05 34.5 15.1 33.55 14.4 33.55 13.75 33.7 13.4" fill="url(#gradient36)" fill-rule="evenodd" stroke="none"/>
      <path d="M34.05 17.5 L34.5 16.6 34.55 17.1 34.85 18.05 Q35.25 18.8 36.9 19.5 37.65 19.85 37.75 20.75 L37.7 21.65 35.45 21.45 Q34.85 21.25 34.3 20.75 33.65 20.05 33.6 19.3 33.55 18.55 34.05 17.5" fill="url(#gradient37)" fill-rule="evenodd" stroke="none"/>
      <path d="M36.95 21.25 Q35.8 21.0 35.55 20.75 L35.2 20.25 34.5 20.15 33.9 19.8 34.5 19.95 34.95 20.0 34.7 19.55 34.6 19.45 34.2 19.3 33.9 19.05 33.8 18.85 34.1 19.05 34.5 19.2 34.3 18.8 34.2 18.0 34.45 18.75 34.7 19.2 35.0 18.65 34.95 19.0 34.8 19.35 35.05 19.85 35.2 20.0 35.5 19.5 35.55 18.85 35.6 19.6 35.35 20.2 35.7 20.5 36.1 20.75 36.15 19.45 36.5 20.2 36.65 20.85 36.95 20.8 36.85 19.9 37.2 20.8 37.4 21.25 Q37.45 21.45 36.95 21.25" fill="url(#gradient38)" fill-rule="evenodd" stroke="none"/>
      <path d="M38.85 11.45 L39.1 11.5 39.15 11.7 39.3 12.25 Q39.3 12.3 38.8 11.95 L38.15 11.8 38.3 11.6 38.85 11.45" fill="#ebffbf" fill-rule="evenodd" stroke="none"/>
      <path d="M38.0 12.45 Q38.3 12.4 38.05 12.8 L37.6 12.9 37.6 12.85 37.7 12.6 Q37.75 12.45 38.0 12.45" fill="#ebffbf" fill-rule="evenodd" stroke="none"/>
      <path d="M38.6 12.6 Q39.2 12.6 38.8 12.75 L38.1 13.1 Q37.9 13.35 38.2 12.85 38.3 12.6 38.6 12.6" fill="#ebffbf" fill-rule="evenodd" stroke="none"/>
      <path d="M37.95 10.95 L38.05 11.15 37.7 11.4 37.45 11.55 37.25 11.3 37.5 11.05 37.95 10.95" fill="#ebffbf" fill-rule="evenodd" stroke="none"/>
      <path d="M32.0 14.55 L32.1 14.65 31.9 14.85 31.75 15.1 31.8 15.45 Q31.8 15.75 31.35 15.6 30.9 15.45 31.3 14.95 31.3 14.85 32.0 14.55" fill="#ebffbf" fill-rule="evenodd" stroke="none"/>
      <path d="M33.1 14.2 L33.25 14.3 33.0 14.45 32.7 14.4 Q32.7 14.1 33.1 14.2" fill="#ebffbf" fill-rule="evenodd" stroke="none"/>
      <path d="M33.8 16.2 L33.8 16.5 33.5 17.05 33.3 17.05 33.2 16.65 Q33.1 16.3 33.8 16.2" fill="#ebffbf" fill-rule="evenodd" stroke="none"/>
      <path d="M36.35 15.4 L36.5 15.55 36.45 15.75 36.1 15.45 36.35 15.4" fill="#ebffbf" fill-rule="evenodd" stroke="none"/>
      <path d="M38.5 14.35 Q38.8 14.45 38.6 14.85 L38.45 14.8 38.3 14.55 38.3 14.4 38.5 14.35" fill="#ebffbf" fill-rule="evenodd" stroke="none"/>
      <path d="M39.95 14.65 L40.1 14.8 40.3 14.9 Q40.55 15.05 40.3 15.4 L39.75 15.65 39.55 15.25 39.6 14.75 Q39.55 14.5 39.65 14.5 L39.95 14.65" fill="#ebffbf" fill-rule="evenodd" stroke="none"/>
      <path d="M38.1 17.55 Q38.4 17.55 38.3 17.85 L37.75 17.8 37.75 17.65 38.1 17.55" fill="#ebffbf" fill-rule="evenodd" stroke="none"/>
      <path d="M35.1 18.0 L35.35 18.2 35.25 18.35 34.9 18.25 34.6 18.05 Q34.5 17.95 34.7 17.95 L35.1 18.0" fill="#ebffbf" fill-rule="evenodd" stroke="none"/>
      <path d="M40.9 14.55 L39.8 14.6 39.9 14.45 39.8 14.35 41.5 14.25 41.8 14.5 42.25 14.6 42.5 14.85 Q42.5 15.05 42.3 14.85 L41.8 14.5 40.9 14.55" fill="#ebffbf" fill-rule="evenodd" stroke="none"/>
      <path d="M31.8 16.9 L32.0 17.15 31.7 17.25 31.0 17.3 30.9 17.25 31.0 17.05 31.8 16.9" fill="#ebffbf" fill-rule="evenodd" stroke="none"/>
      <path d="M44.3 15.05 L44.9 16.05 44.1 16.45 Q43.45 16.4 42.9 15.45 42.55 14.85 42.6 14.2 L42.7 13.7 43.5 13.2 44.3 15.05" fill="url(#gradient39)" fill-rule="evenodd" stroke="none"/>
      <path d="M44.65 16.05 L43.9 15.45 Q43.1 14.65 43.25 13.65 43.35 12.8 44.1 13.3 44.9 13.8 45.1 14.5 45.7 16.2 44.65 16.05" fill="#68ab2e" fill-rule="evenodd" stroke="none"/>
      <path d="M45.0 15.55 L44.25 15.45 Q43.65 15.05 43.5 14.35 43.4 13.6 43.7 13.5 L44.35 13.85 44.95 14.65 45.0 15.55" fill="#6aa338" fill-rule="evenodd" stroke="none"/>
      <path d="M34.2 13.7 L35.35 13.55 35.4 14.45 Q35.05 15.05 34.05 15.15 L32.7 14.9 32.3 14.6 32.15 13.7 34.2 13.7" fill="url(#gradient40)" fill-rule="evenodd" stroke="none"/>
      <path d="M35.3 13.85 L34.4 14.25 32.5 14.1 Q31.75 13.65 32.55 13.15 33.3 12.65 34.05 12.75 35.75 12.9 35.3 13.85" fill="#7fc743" fill-rule="evenodd" stroke="none"/>
      <path d="M34.95 13.25 Q35.2 13.6 34.55 13.95 L33.25 14.1 Q31.9 13.7 33.1 13.15 L34.15 12.95 Q34.7 13.0 34.95 13.25" fill="#8cd64d" fill-rule="evenodd" stroke="none"/>
      <path d="M35.55 17.0 L35.75 15.85 36.7 16.05 37.0 16.55 37.25 17.75 Q37.1 18.75 36.25 19.0 L34.85 18.9 35.55 17.0" fill="url(#gradient41)" fill-rule="evenodd" stroke="none"/>
      <path d="M36.2 16.05 L36.3 17.05 Q36.2 18.15 35.45 18.75 34.8 19.25 34.55 18.35 34.35 17.5 34.7 16.85 35.5 15.25 36.2 16.05" fill="#7fc743" fill-rule="evenodd" stroke="none"/>
      <path d="M35.5 16.15 Q35.9 16.05 36.05 16.75 36.1 17.5 35.7 18.05 34.9 19.1 34.75 17.85 34.7 17.3 34.95 16.85 35.15 16.25 35.5 16.15" fill="#8cd64d" fill-rule="evenodd" stroke="none"/>
      <path d="M36.95 16.6 L37.0 16.9 36.7 16.9 36.4 16.65 Q36.4 16.55 36.65 16.5 L36.95 16.6" fill="#ffffff" fill-rule="evenodd" stroke="none"/>
      <path d="M35.05 14.25 L35.1 14.65 34.9 14.55 34.9 14.3 Q35.0 14.15 35.05 14.25" fill="#ffffff" fill-rule="evenodd" stroke="none"/>
      <path d="M41.35 16.1 L41.7 16.05 41.75 16.15 41.6 15.55 Q41.55 15.1 41.75 15.2 L42.4 15.9 42.5 15.65 Q42.65 15.45 42.75 15.65 L43.2 16.6 43.3 16.25 Q43.45 16.05 43.6 16.25 43.9 16.65 43.8 17.4 L44.0 17.05 44.3 17.1 Q44.5 17.65 44.35 18.35 L44.65 18.05 45.0 18.1 44.9 19.6 45.15 19.3 Q45.35 19.1 45.2 20.4 45.1 21.0 44.5 21.3 43.45 21.45 42.55 20.85 41.8 20.35 41.8 20.05 41.8 19.9 42.2 19.9 L42.55 19.95 Q41.75 19.5 41.65 19.05 41.55 18.75 41.95 18.85 L42.35 18.95 Q41.3 18.4 41.15 17.9 41.1 17.65 41.45 17.65 L41.85 17.65 Q41.3 17.45 41.15 16.95 41.1 16.65 41.5 16.75 L41.9 16.95 Q41.3 16.45 41.35 16.1" fill="#60872b" fill-rule="evenodd" stroke="none"/>
      <path d="M41.85 15.55 L42.2 16.0 42.6 16.65 42.65 16.45 42.7 15.85 42.8 16.9 43.05 17.75 43.15 17.65 43.5 16.6 43.45 17.45 43.15 18.1 43.3 19.0 44.05 17.6 43.5 19.4 43.7 20.6 43.9 20.55 44.3 20.25 44.65 18.95 44.7 19.4 44.55 20.25 44.1 21.05 43.4 21.25 43.3 20.9 43.25 20.45 42.3 19.3 43.45 20.25 43.4 20.2 43.3 19.45 42.9 19.2 41.7 18.1 42.3 18.55 43.15 19.0 42.95 18.45 42.85 18.0 42.35 17.7 41.6 17.05 42.85 17.75 42.85 17.6 42.7 17.0 42.3 16.85 41.8 16.4 42.25 16.75 42.55 16.75 42.2 16.25 41.85 15.55" fill="url(#gradient42)" fill-rule="evenodd" stroke="none"/>
      <path d="M47.1 17.55 L47.75 17.55 47.75 20.9 Q47.7 22.05 44.7 22.9 41.75 23.7 37.6 23.7 33.45 23.7 30.5 22.9 27.5 22.05 27.45 20.9 L27.45 17.55 27.9 17.55 Q28.2 18.45 30.95 19.15 L37.5 19.8 44.1 19.15 Q46.8 18.45 47.1 17.55" fill="url(#gradient43)" fill-rule="evenodd" stroke="none"/>
      <path d="M46.85 17.25 L47.7 17.25 47.75 17.5 Q47.75 18.7 44.8 19.55 L37.6 20.4 Q33.35 20.4 30.4 19.55 27.45 18.7 27.45 17.5 L27.5 17.25 28.5 17.25 Q28.5 18.25 31.15 18.95 L37.7 19.65 44.2 18.95 Q46.9 18.25 46.9 17.25 L46.85 17.25" fill="#ffffff" fill-rule="evenodd" stroke="none"/>
      <path d="M31.05 23.9 L27.3 24.75 Q22.8 25.45 18.8 24.9 12.4 24.05 11.05 23.25 L11.05 20.3 13.1 19.2 Q16.1 18.05 20.45 18.05 26.8 18.05 29.7 19.55 31.2 20.25 31.4 21.05 L31.05 23.9" fill="#a3a3a3" fill-rule="evenodd" stroke="none"/>
      <path d="M21.0 23.65 L30.8 22.75 28.4 32.2 Q28.3 33.05 26.15 33.85 23.9 34.65 21.0 34.65 18.05 34.65 15.7 33.8 13.55 33.0 13.55 32.1 L13.55 32.05 11.2 22.75 21.0 23.65" fill="url(#gradient44)" fill-rule="evenodd" stroke="none"/>
      <path d="M30.0 25.35 L29.8 26.55 28.95 27.05 Q27.5 27.65 24.5 27.85 L15.05 27.2 12.05 26.15 11.9 25.85 11.65 24.3 11.7 22.3 30.0 25.35" fill="#8a8a8a" fill-rule="evenodd" stroke="none"/>
      <path d="M20.95 17.95 L28.1 18.75 Q31.1 19.5 31.5 20.65 L30.65 20.65 Q30.55 19.65 27.75 18.9 25.0 18.2 21.05 18.2 L14.35 18.9 Q11.55 19.65 11.5 20.65 L10.4 20.65 Q10.85 19.5 13.85 18.75 L20.95 17.95" fill="#ffffff" fill-rule="evenodd" stroke="none"/>
      <path d="M22.55 13.6 Q22.55 14.1 21.35 14.65 22.65 14.25 22.4 14.8 L21.4 15.55 Q22.0 15.35 21.7 15.95 21.35 16.75 20.25 16.9 22.0 16.8 21.05 17.25 L19.95 17.85 18.85 17.7 18.6 16.8 Q18.45 15.85 18.6 15.6 18.75 15.3 19.3 15.75 L19.7 16.25 19.3 15.3 Q19.0 14.35 19.3 14.25 19.9 14.15 20.1 14.85 L19.95 14.05 Q19.85 13.25 20.15 13.2 20.7 13.05 20.9 13.95 L20.95 13.05 Q21.05 12.25 21.3 12.2 22.4 12.05 21.45 13.85 L22.0 13.55 22.55 13.6" fill="#547526" fill-rule="evenodd" stroke="none"/>
      <path d="M28.3 18.6 L28.75 18.85 29.1 19.35 29.3 20.05 29.6 20.55 Q30.3 21.05 30.3 21.7 30.3 22.3 27.5 23.65 24.25 25.25 21.1 25.05 12.45 24.45 11.9 22.15 L11.9 21.25 12.1 20.5 Q12.15 20.25 12.55 20.0 L12.9 19.55 Q12.85 19.05 13.4 18.45 L14.9 17.25 15.7 17.15 16.7 16.95 Q17.5 16.7 18.1 16.1 L18.85 16.0 19.5 15.85 19.9 15.4 Q19.95 15.15 20.4 15.1 L21.9 14.55 23.2 14.35 Q23.9 14.45 24.45 14.9 L26.5 16.1 Q27.6 16.65 27.7 16.9 L27.9 17.75 Q28.0 18.5 28.3 18.6" fill="url(#gradient45)" fill-rule="evenodd" stroke="none"/>
      <path d="M20.25 15.7 L20.35 15.85 20.3 16.05 20.15 16.45 19.8 16.6 Q19.35 16.45 19.25 16.85 L19.3 17.25 19.1 17.5 Q18.95 17.8 19.1 17.7 L19.3 17.45 19.5 17.05 20.0 16.8 20.4 16.3 20.7 15.25 21.3 15.0 21.0 15.7 20.7 16.5 20.85 16.65 21.1 16.45 21.4 16.25 21.0 16.85 20.6 17.2 20.1 17.45 19.8 17.85 19.85 18.35 20.0 18.8 19.95 19.15 20.0 19.3 Q20.3 19.45 20.7 19.1 L21.1 19.0 21.15 18.85 20.55 18.05 20.6 17.65 20.8 17.7 Q21.05 17.75 21.1 17.9 L21.5 18.65 21.9 19.05 Q22.4 19.3 22.3 19.4 L21.55 19.5 20.3 19.8 20.25 19.95 19.9 20.0 19.3 20.0 Q19.1 20.0 18.9 20.3 L18.35 20.95 Q18.15 21.2 18.45 21.3 L19.05 21.65 19.3 21.45 19.3 20.95 19.3 20.65 19.4 20.55 19.6 20.7 20.15 20.8 Q20.5 20.8 20.3 21.25 L19.75 21.9 19.45 22.3 19.3 22.75 Q19.3 22.95 19.55 22.9 L19.95 23.0 20.3 22.65 20.5 21.9 20.7 21.25 20.9 20.85 Q21.0 20.7 21.25 20.65 L21.9 20.75 22.8 21.5 22.5 21.8 Q22.2 21.45 21.8 21.45 L21.3 21.5 20.9 21.9 20.6 22.55 Q20.5 22.8 20.75 22.85 L21.4 22.9 21.55 22.65 22.05 22.25 22.75 22.05 22.4 22.5 22.05 22.7 Q21.95 22.75 22.0 22.95 L22.3 23.3 22.65 23.3 23.25 22.65 23.95 22.25 24.75 21.65 25.5 20.8 Q25.9 20.4 26.3 20.45 26.65 20.45 26.9 20.75 L27.3 20.8 27.5 20.4 27.7 19.85 28.05 19.2 28.3 18.85 28.5 18.85 28.6 19.0 28.3 19.85 28.6 20.25 29.0 20.15 28.8 20.45 Q27.95 21.1 28.65 21.25 L28.9 21.15 29.0 20.85 29.2 20.8 29.35 20.95 29.55 21.45 29.6 21.4 29.7 21.7 30.25 22.35 Q30.45 22.7 29.4 23.45 28.25 24.3 22.2 24.9 L15.2 25.1 Q14.25 24.85 13.1 24.05 12.1 23.4 12.1 23.15 L11.9 21.3 11.95 20.85 12.4 20.5 12.5 20.95 13.1 21.4 13.6 21.0 14.1 20.45 Q14.3 20.35 13.95 20.25 13.5 20.1 13.4 19.95 L13.1 19.55 Q12.95 19.35 13.1 19.1 L14.0 18.1 14.1 18.75 14.3 19.25 14.8 19.6 15.5 19.5 15.75 19.3 15.3 18.55 15.35 18.1 15.5 17.85 15.85 18.25 16.0 18.45 16.2 18.3 16.2 18.05 16.3 17.9 16.7 18.1 17.1 18.6 17.7 18.7 18.0 18.45 17.8 18.0 17.5 17.6 Q17.4 17.45 17.45 17.15 L17.75 16.45 18.05 16.2 17.95 16.45 Q17.9 16.75 18.0 16.9 L18.05 17.25 18.3 17.3 18.8 17.25 18.9 17.0 18.8 16.7 18.9 16.5 19.15 16.25 19.3 16.1 19.65 16.0 19.85 15.75 19.9 15.4 20.1 15.45 20.25 15.7" fill="url(#gradient46)" fill-rule="evenodd" stroke="none"/>
      <path d="M25.75 15.75 L25.4 15.85 25.1 16.3 24.45 16.85 24.55 17.2 24.85 17.4 25.2 17.15 25.65 17.05 25.85 17.15 25.7 17.2 25.6 17.45 25.6 17.8 25.85 17.9 26.5 17.95 26.6 17.85 26.9 17.8 Q27.35 17.9 27.4 18.05 L27.6 18.15 27.75 18.35 27.7 18.85 27.05 18.65 26.4 18.45 25.7 18.65 Q24.85 18.85 24.5 19.1 L23.6 19.8 23.1 19.75 22.5 19.5 21.7 18.35 21.25 17.85 21.4 17.25 21.5 16.85 21.8 16.5 22.85 16.05 23.45 15.5 23.5 14.5 23.7 14.85 23.9 15.7 Q23.9 16.25 23.7 16.4 L23.4 16.55 23.4 16.65 23.75 16.75 24.15 16.6 24.4 15.55 24.3 15.3 24.3 15.2 24.7 15.3 24.85 15.25 25.75 15.75" fill="url(#gradient47)" fill-rule="evenodd" stroke="none"/>
      <path d="M16.65 17.05 Q16.5 17.25 16.65 17.25 L15.5 17.45 14.55 17.85 14.3 18.05 14.05 18.3 13.5 19.05 Q12.95 20.0 13.25 20.2 L14.05 20.45 15.1 21.05 14.85 21.6 13.5 21.05 Q12.85 20.45 12.75 19.7 L12.85 19.2 13.3 18.5 13.55 18.1 14.25 17.45 14.8 17.15 15.5 17.05 16.8 16.85 16.65 17.05" fill="url(#gradient48)" fill-rule="evenodd" stroke="none"/>
      <path d="M26.3 15.95 Q26.5 16.25 26.3 16.65 26.2 16.9 25.5 17.05 L24.85 17.05 24.7 16.95 23.95 16.3 Q23.65 15.8 23.9 15.45 24.1 15.2 24.55 15.05 L25.5 15.1 Q26.15 15.45 26.3 15.95" fill="url(#gradient49)" fill-rule="evenodd" stroke="none"/>
      <path d="M17.35 17.85 Q18.7 17.6 19.45 16.85 L20.0 16.35 20.1 15.9 20.35 15.25 20.6 14.85 20.75 14.85 21.3 14.65 21.4 14.65 21.05 15.05 20.75 15.65 20.6 16.15 20.4 16.55 19.9 17.05 19.1 17.6 18.5 18.05 17.55 19.0 15.65 19.7 15.7 20.05 16.0 20.6 16.7 21.0 Q17.2 21.25 17.45 21.6 L17.8 22.4 17.9 23.25 Q17.95 23.9 17.25 23.95 L16.75 23.75 Q17.3 22.25 16.7 21.75 L15.5 20.7 14.9 20.0 15.9 19.45 16.25 19.1 17.1 18.6 17.6 18.15 17.35 17.85" fill="url(#gradient50)" fill-rule="evenodd" stroke="none"/>
      <path d="M27.65 18.65 L28.1 19.5 27.7 20.4 Q27.4 20.85 27.65 21.2 L28.25 21.85 28.5 22.3 Q28.5 22.65 28.9 22.65 L29.2 22.4 29.0 21.65 28.75 21.1 28.95 20.75 29.2 21.05 29.5 21.85 29.4 22.95 Q29.1 23.65 28.1 24.15 26.8 24.85 22.95 25.05 L16.5 24.65 Q14.5 24.1 12.75 22.95 L11.5 21.85 11.9 20.25 12.3 20.5 12.4 20.5 12.0 21.5 12.0 22.1 Q12.35 22.2 12.9 21.45 13.7 20.25 14.9 19.85 L15.55 19.45 15.9 18.9 16.7 18.3 17.4 18.45 16.6 19.0 16.15 19.6 15.55 20.05 Q14.45 20.5 14.2 20.9 L13.75 21.5 Q13.45 22.15 13.7 22.6 L14.0 23.25 14.7 23.3 Q15.65 23.15 16.05 22.1 L16.55 21.45 17.15 20.65 17.55 19.6 18.2 18.7 18.9 18.2 18.85 17.6 18.5 16.95 18.3 16.8 18.9 16.65 19.2 17.0 19.5 17.65 Q19.7 18.25 19.1 18.7 L18.65 19.05 18.35 19.5 17.7 20.85 16.95 21.75 16.5 22.45 16.4 22.85 Q16.3 23.05 16.65 23.1 L17.75 23.4 18.85 23.45 19.65 22.75 20.1 21.65 20.2 20.8 Q20.35 20.4 21.0 20.05 L22.0 19.6 22.35 18.9 22.3 17.85 22.1 17.4 22.7 17.4 22.8 17.65 22.85 18.7 22.4 19.85 21.65 20.5 Q20.8 21.05 20.75 21.5 L20.1 23.2 Q20.0 23.6 20.5 23.9 L22.1 24.05 24.1 24.15 Q25.1 24.2 25.1 23.4 L25.0 21.85 24.85 20.85 25.2 20.15 25.55 19.4 Q25.6 19.1 25.05 18.3 24.45 17.6 24.6 17.35 L24.95 16.65 25.6 17.0 25.35 17.25 Q25.2 17.5 25.45 17.85 L25.95 18.85 Q26.15 19.45 25.9 19.85 L25.45 20.6 Q25.25 21.05 25.5 21.5 26.15 23.15 26.8 22.95 L27.55 22.75 Q27.9 22.6 27.7 22.2 L27.25 21.45 Q27.0 21.05 27.1 20.7 L27.5 20.1 Q27.75 19.85 27.55 19.45 L26.95 18.6 27.2 18.3 27.65 18.65" fill="url(#gradient51)" fill-rule="evenodd" stroke="none"/>
      <path d="M22.6 14.25 L23.2 14.25 23.7 14.4 23.75 14.8 Q23.9 15.6 23.7 16.05 L22.95 16.45 22.05 16.8 21.7 17.25 21.5 17.75 21.5 17.85 21.75 18.1 Q22.1 18.65 23.3 19.4 23.8 19.65 24.1 20.45 24.15 21.05 23.6 21.65 L22.75 22.2 22.05 22.55 Q21.75 22.8 21.6 23.4 L21.5 23.9 20.45 23.7 21.25 22.55 Q21.45 22.2 22.1 21.85 L23.1 21.35 Q23.9 20.8 23.45 20.2 L22.45 19.4 21.75 19.15 21.3 18.65 20.85 17.95 20.5 17.7 21.05 17.45 21.7 16.5 Q21.85 16.25 22.65 15.95 L23.15 15.6 23.1 15.0 22.8 14.45 22.6 14.25" fill="url(#gradient52)" fill-rule="evenodd" stroke="none"/>
      <path d="M26.0 17.65 L26.5 17.7 26.1 18.3 25.7 18.85 24.9 19.4 23.95 20.15 23.6 20.65 24.5 21.05 27.05 21.7 28.2 22.55 27.3 22.9 26.15 22.0 25.3 21.75 24.0 21.6 Q23.15 21.4 22.75 20.9 L22.5 20.45 23.8 19.15 25.2 18.3 26.0 17.65" fill="url(#gradient53)" fill-rule="evenodd" stroke="none"/>
      <path d="M18.45 19.6 L19.45 19.5 Q20.1 19.85 20.1 20.6 L19.9 21.4 19.8 21.65 19.25 21.8 18.6 21.8 18.45 21.7 17.8 20.95 17.75 20.85 Q17.55 20.3 17.75 20.05 17.9 19.85 18.45 19.6" fill="url(#gradient54)" fill-rule="evenodd" stroke="none"/>
      <path d="M27.4 17.8 L27.75 17.95 28.0 18.2 28.2 18.65 Q28.35 19.15 27.6 19.9 27.5 20.1 27.55 20.4 L27.85 20.8 Q28.45 21.05 28.9 21.6 29.25 22.05 29.7 21.5 29.95 21.25 29.4 20.8 L29.0 19.9 28.75 19.25 28.5 18.85 28.8 19.05 29.05 19.1 29.25 19.4 29.45 20.05 29.55 20.45 29.9 20.8 30.25 21.45 29.25 22.1 28.75 22.05 28.35 21.65 27.75 21.35 26.9 20.85 Q26.65 20.5 26.9 20.1 L27.5 19.25 Q27.9 18.5 27.4 17.8" fill="url(#gradient55)" fill-rule="evenodd" stroke="none"/>
      <path d="M26.15 16.1 L25.9 15.7 25.65 15.6 Q26.05 15.65 26.5 16.1 L26.6 16.3 Q26.85 16.95 27.25 17.1 L27.9 17.4 27.95 17.95 27.7 17.7 26.7 17.3 Q26.25 17.05 26.15 16.1" fill="url(#gradient56)" fill-rule="evenodd" stroke="none"/>
      <path d="M17.0 16.05 Q17.45 15.65 17.9 15.6 18.6 15.55 18.95 15.9 L19.3 16.5 18.75 17.25 18.2 17.6 18.05 17.6 17.1 17.4 Q16.55 17.05 16.65 16.65 16.65 16.4 17.0 16.05" fill="url(#gradient57)" fill-rule="evenodd" stroke="none"/>
      <path d="M16.9 16.65 L17.45 16.45 18.1 16.1 17.85 16.6 Q17.55 16.85 17.9 17.7 L18.25 18.1 18.65 18.3 19.7 19.45 Q19.85 19.7 21.65 20.35 L22.7 21.2 Q23.2 21.7 23.3 22.25 23.5 22.85 22.95 23.5 L22.1 23.45 22.75 22.1 Q22.8 21.65 21.8 20.95 20.85 20.25 20.4 20.25 19.6 20.25 18.9 19.4 L17.7 18.45 16.8 17.7 16.8 17.05 16.9 16.65" fill="url(#gradient58)" fill-rule="evenodd" stroke="none"/>
      <path d="M19.05 24.25 L16.65 24.05 15.5 23.25 Q14.75 22.6 14.7 21.8 14.7 21.05 15.15 19.9 L15.65 18.95 15.7 19.5 16.0 20.5 Q16.4 21.25 18.1 22.0 18.9 22.35 19.1 23.3 L19.05 24.25" fill="url(#gradient59)" fill-rule="evenodd" stroke="none"/>
      <path d="M26.15 18.0 L26.35 17.65 Q26.6 17.3 26.8 17.25 27.05 17.15 27.0 17.6 L26.8 18.2 26.65 18.45 26.9 18.15 Q27.2 17.9 27.25 18.15 27.3 18.55 26.65 19.05 L27.1 18.85 Q27.55 18.7 27.45 19.05 L26.7 19.8 27.15 19.75 Q27.55 19.75 27.45 20.05 27.3 20.55 26.2 21.1 27.1 20.75 26.95 21.25 L26.0 22.2 26.4 22.15 26.8 22.25 26.0 23.1 Q25.05 23.7 23.95 23.6 23.3 23.25 23.25 22.65 L23.15 21.8 23.3 21.5 23.5 21.8 Q23.3 20.7 23.45 20.25 23.5 20.0 23.85 20.25 L24.1 20.5 Q24.0 19.75 24.15 19.25 24.3 18.9 24.5 19.2 L24.7 19.5 24.7 19.05 24.9 18.3 Q25.2 17.9 25.3 18.65 L25.8 17.65 26.05 17.7 26.15 18.0" fill="#60872b" fill-rule="evenodd" stroke="none"/>
      <path d="M16.8 22.05 L16.55 22.7 16.9 23.05 17.3 23.25 17.4 22.5 17.4 21.9 17.7 22.7 17.9 23.4 18.2 23.35 18.15 22.8 18.1 22.45 18.5 23.35 18.65 23.8 18.2 23.85 16.75 23.25 16.4 22.8 15.65 22.65 15.15 22.4 15.05 22.25 15.65 22.45 16.1 22.5 15.85 22.05 15.75 22.0 15.3 21.8 15.0 21.5 14.9 21.3 15.25 21.55 15.65 21.65 15.45 21.25 15.35 20.45 15.6 21.25 15.85 21.65 16.05 21.3 16.2 21.1 16.1 21.45 15.95 21.85 16.25 22.3 16.4 22.5 16.7 22.0 16.8 21.3 16.8 22.05" fill="url(#gradient60)" fill-rule="evenodd" stroke="none"/>
      <path d="M26.35 18.3 L26.0 18.85 26.1 18.85 26.3 18.85 26.8 18.45 26.25 19.0 25.9 19.1 25.7 19.7 25.7 19.9 27.0 19.15 26.2 19.85 25.7 20.15 25.6 20.6 25.4 21.2 26.9 20.25 25.25 21.65 25.1 22.45 25.1 22.5 26.25 21.5 25.3 22.7 25.2 23.2 25.1 23.5 24.65 23.45 24.35 23.3 Q24.05 23.0 23.9 22.45 L23.8 21.6 23.8 21.15 23.9 21.65 24.15 22.5 Q24.45 22.9 24.8 22.85 L25.05 21.6 24.45 19.7 25.2 21.2 25.35 20.25 25.1 19.5 25.0 18.65 25.4 19.75 25.5 19.9 25.7 19.2 25.75 19.0 25.85 17.9 25.9 18.5 25.9 18.7 26.7 17.6 26.35 18.3" fill="url(#gradient61)" fill-rule="evenodd" stroke="none"/>
      <path d="M22.3 14.6 L22.5 14.7 22.6 14.9 22.8 15.45 22.25 15.15 21.55 15.0 21.7 14.8 22.3 14.6" fill="#ebffbf" fill-rule="evenodd" stroke="none"/>
      <path d="M21.4 15.65 Q21.7 15.65 21.45 16.05 L21.0 16.15 21.1 15.85 21.4 15.65" fill="#ebffbf" fill-rule="evenodd" stroke="none"/>
      <path d="M22.05 15.85 Q22.7 15.85 22.2 16.0 L21.5 16.4 Q21.2 16.7 21.6 16.1 21.7 15.85 22.05 15.85" fill="#ebffbf" fill-rule="evenodd" stroke="none"/>
      <path d="M17.8 15.8 L17.9 16.0 17.55 16.25 17.25 16.45 17.1 16.15 17.35 15.9 17.8 15.8" fill="#ebffbf" fill-rule="evenodd" stroke="none"/>
      <path d="M15.1 17.85 Q15.3 17.8 15.25 17.95 L15.0 18.2 14.9 18.45 14.9 18.85 14.45 18.95 Q14.1 18.85 14.35 18.25 L15.1 17.85" fill="#ebffbf" fill-rule="evenodd" stroke="none"/>
      <path d="M16.3 17.5 L16.45 17.65 16.2 17.75 15.9 17.7 Q15.85 17.45 16.3 17.5" fill="#ebffbf" fill-rule="evenodd" stroke="none"/>
      <path d="M17.0 19.6 L17.0 19.9 16.7 20.45 16.5 20.45 16.35 20.05 Q16.25 19.7 17.0 19.6" fill="#ebffbf" fill-rule="evenodd" stroke="none"/>
      <path d="M19.7 18.7 Q19.95 18.75 19.8 19.1 19.7 19.2 19.45 18.85 L19.45 18.65 19.7 18.7" fill="#ebffbf" fill-rule="evenodd" stroke="none"/>
      <path d="M21.9 17.65 Q22.2 17.75 22.05 18.2 L21.7 17.9 Q21.55 17.55 21.9 17.65" fill="#ebffbf" fill-rule="evenodd" stroke="none"/>
      <path d="M23.45 17.95 L23.6 18.1 23.8 18.25 Q24.1 18.4 23.8 18.7 L23.55 18.95 23.2 19.0 23.0 18.65 23.05 18.1 23.1 17.85 23.45 17.95" fill="#ebffbf" fill-rule="evenodd" stroke="none"/>
      <path d="M21.5 21.0 Q21.85 21.05 21.7 21.3 L21.15 21.25 21.15 21.05 21.5 21.0" fill="#ebffbf" fill-rule="evenodd" stroke="none"/>
      <path d="M18.35 21.45 L18.65 21.65 18.5 21.85 18.1 21.7 17.85 21.5 17.95 21.45 18.35 21.45" fill="#ebffbf" fill-rule="evenodd" stroke="none"/>
      <path d="M24.25 15.45 Q24.5 15.45 24.4 15.55 L24.25 15.75 24.7 16.25 24.95 16.5 24.8 16.5 24.0 15.9 24.0 15.65 24.25 15.45" fill="#ebffbf" fill-rule="evenodd" stroke="none"/>
      <path d="M18.7 19.8 Q19.0 19.8 18.95 20.0 L18.7 20.2 Q18.25 20.25 18.05 20.45 L17.9 20.45 17.9 20.25 Q18.25 19.8 18.7 19.8" fill="#ebffbf" fill-rule="evenodd" stroke="none"/>
      <path d="M29.35 20.85 L30.0 21.95 29.15 22.4 Q28.45 22.25 27.9 21.35 27.5 20.65 27.6 20.05 L27.7 19.5 28.5 18.95 29.35 20.85" fill="url(#gradient62)" fill-rule="evenodd" stroke="none"/>
      <path d="M29.7 22.0 L28.9 21.3 Q28.1 20.45 28.25 19.45 28.35 18.55 29.15 19.05 29.95 19.6 30.2 20.35 30.75 22.05 29.7 22.0" fill="#68ab2e" fill-rule="evenodd" stroke="none"/>
      <path d="M30.1 21.45 Q29.9 21.8 29.3 21.3 28.7 20.85 28.55 20.15 28.35 18.7 29.45 19.65 L30.05 20.5 30.1 21.45" fill="#6aa338" fill-rule="evenodd" stroke="none"/>
      <path d="M21.9 14.1 L23.05 13.55 23.4 14.45 Q23.25 15.15 22.3 15.6 L20.9 15.85 20.45 15.65 19.95 14.85 21.9 14.1" fill="url(#gradient63)" fill-rule="evenodd" stroke="none"/>
      <path d="M23.05 13.85 L22.3 14.65 Q21.4 15.35 20.4 15.1 19.55 14.95 20.1 14.15 20.7 13.4 21.45 13.25 23.2 12.85 23.05 13.85" fill="#7fc743" fill-rule="evenodd" stroke="none"/>
      <path d="M22.5 13.45 Q22.9 13.65 22.4 14.25 21.85 14.85 21.15 14.85 19.7 15.0 20.7 13.95 L21.6 13.4 22.5 13.45" fill="#8cd64d" fill-rule="evenodd" stroke="none"/>
      <path d="M14.5 17.65 L15.05 16.55 15.9 17.05 Q16.3 18.05 15.9 18.95 15.45 19.9 14.5 19.85 L13.1 19.3 14.5 17.65" fill="url(#gradient64)" fill-rule="evenodd" stroke="none"/>
      <path d="M15.4 16.9 L15.15 17.95 Q14.7 19.05 13.75 19.4 12.9 19.7 13.05 18.7 13.1 17.8 13.7 17.25 14.2 16.65 14.7 16.55 15.15 16.4 15.4 16.9" fill="#7fc743" fill-rule="evenodd" stroke="none"/>
      <path d="M14.7 16.85 Q15.1 16.85 15.0 17.6 14.85 18.35 14.3 18.75 13.1 19.6 13.4 18.25 13.5 17.7 13.9 17.25 14.3 16.85 14.7 16.85" fill="#8cd64d" fill-rule="evenodd" stroke="none"/>
      <path d="M15.95 17.7 L15.9 18.05 15.65 18.0 Q15.3 17.85 15.4 17.6 L15.7 17.55 15.95 17.7" fill="#ffffff" fill-rule="evenodd" stroke="none"/>
      <path d="M22.85 14.45 L23.05 14.85 22.85 14.85 22.75 14.65 22.85 14.45" fill="#ffffff" fill-rule="evenodd" stroke="none"/>
      <path d="M30.9 21.0 L31.55 21.0 31.55 24.45 Q31.5 25.7 28.4 26.55 L20.95 27.45 Q16.65 27.45 13.55 26.55 10.45 25.7 10.35 24.45 L10.35 21.0 10.9 21.0 Q11.2 22.0 14.05 22.65 L20.9 23.3 27.7 22.65 Q30.6 22.0 30.9 21.0" fill="url(#gradient65)" fill-rule="evenodd" stroke="none"/>
      <path d="M30.65 20.65 L31.5 20.65 31.55 20.95 Q31.55 22.2 28.45 23.05 25.35 23.95 20.95 23.95 16.55 23.95 13.5 23.05 10.35 22.2 10.35 20.95 L10.4 20.65 11.5 20.65 11.5 20.7 Q11.5 21.75 14.3 22.5 L21.05 23.25 Q25.05 23.25 27.85 22.5 30.65 21.75 30.65 20.7 L30.65 20.65" fill="#ffffff" fill-rule="evenodd" stroke="none"/>
    </g>
    <linearGradient gradientTransform="matrix(0.011, 0.0, 0.0, -0.011, 9.75, 22.05)" gradientUnits="userSpaceOnUse" id="gradient0" spreadMethod="pad" x1="-819.2" x2="819.2">
      <stop offset="0.0" stop-color="#d9d9d9"/>
      <stop offset="0.3215686274509804" stop-color="#ffffff"/>
      <stop offset="1.0" stop-color="#bdbdbd"/>
    </linearGradient>
    <radialGradient cx="0" cy="0" gradientTransform="matrix(0.0038, 0.0115, 0.0115, -0.0038, 8.3, 10.9)" gradientUnits="userSpaceOnUse" id="gradient1" r="819.2" spreadMethod="pad">
      <stop offset="0.0" stop-color="#f6fccc"/>
      <stop offset="1.0" stop-color="#87bb44"/>
    </radialGradient>
    <radialGradient cx="0" cy="0" gradientTransform="matrix(0.0037, 0.0113, 0.0113, -0.0037, 8.3, 11.4)" gradientUnits="userSpaceOnUse" id="gradient2" r="819.2" spreadMethod="pad">
      <stop offset="0.0" stop-color="#d3db97"/>
      <stop offset="1.0" stop-color="#75b327"/>
    </radialGradient>
    <radialGradient cx="0" cy="0" gradientTransform="matrix(0.0015, 0.0047, 0.0047, -0.0015, 12.5, 10.05)" gradientUnits="userSpaceOnUse" id="gradient3" r="819.2" spreadMethod="pad">
      <stop offset="0.0" stop-color="#bedb7f"/>
      <stop offset="1.0" stop-color="#96cf4f"/>
    </radialGradient>
    <radialGradient cx="0" cy="0" gradientTransform="matrix(0.0012, 0.0037, 0.0037, -0.0012, 3.7, 12.05)" gradientUnits="userSpaceOnUse" id="gradient4" r="819.2" spreadMethod="pad">
      <stop offset="0.0" stop-color="#83ab4f"/>
      <stop offset="1.0" stop-color="#739c40"/>
    </radialGradient>
    <linearGradient gradientTransform="matrix(4.0E-4, 8.0E-4, 8.0E-4, -4.0E-4, 12.5, 11.5)" gradientUnits="userSpaceOnUse" id="gradient5" spreadMethod="pad" x1="-819.2" x2="819.2">
      <stop offset="0.0" stop-color="#ffe000"/>
      <stop offset="1.0" stop-color="#fff7b5"/>
    </linearGradient>
    <radialGradient cx="0" cy="0" gradientTransform="matrix(0.0023, 0.0072, 0.0072, -0.0023, 6.85, 10.7)" gradientUnits="userSpaceOnUse" id="gradient6" r="819.2" spreadMethod="pad">
      <stop offset="0.0" stop-color="#83ab4f"/>
      <stop offset="1.0" stop-color="#739c40"/>
    </radialGradient>
    <radialGradient cx="0" cy="0" gradientTransform="matrix(0.0034, 0.0105, 0.0105, -0.0034, 7.75, 12.55)" gradientUnits="userSpaceOnUse" id="gradient7" r="819.2" spreadMethod="pad">
      <stop offset="0.0" stop-color="#afd67c"/>
      <stop offset="1.0" stop-color="#709c39"/>
    </radialGradient>
    <radialGradient cx="0" cy="0" gradientTransform="matrix(0.0022, 0.0066, 0.0066, -0.0022, 10.65, 10.6)" gradientUnits="userSpaceOnUse" id="gradient8" r="819.2" spreadMethod="pad">
      <stop offset="0.0" stop-color="#83ab4f"/>
      <stop offset="1.0" stop-color="#739c40"/>
    </radialGradient>
    <radialGradient cx="0" cy="0" gradientTransform="matrix(0.0014, 0.0044, 0.0044, -0.0014, 12.9, 13.05)" gradientUnits="userSpaceOnUse" id="gradient9" r="819.2" spreadMethod="pad">
      <stop offset="0.0" stop-color="#86b548"/>
      <stop offset="1.0" stop-color="#5b802d"/>
    </radialGradient>
    <linearGradient gradientTransform="matrix(1.0E-4, 9.0E-4, 9.0E-4, -1.0E-4, 4.2, 15.25)" gradientUnits="userSpaceOnUse" id="gradient10" spreadMethod="pad" x1="-819.2" x2="819.2">
      <stop offset="0.0" stop-color="#ffe000"/>
      <stop offset="1.0" stop-color="#fff7b5"/>
    </linearGradient>
    <radialGradient cx="0" cy="0" gradientTransform="matrix(0.0011, 0.0034, 0.0034, -0.0011, 16.4, 12.8)" gradientUnits="userSpaceOnUse" id="gradient11" r="819.2" spreadMethod="pad">
      <stop offset="0.0" stop-color="#83ab4f"/>
      <stop offset="1.0" stop-color="#739c40"/>
    </radialGradient>
    <radialGradient cx="0" cy="0" gradientTransform="matrix(6.0E-4, 0.0019, 0.0019, -6.0E-4, 14.9, 10.45)" gradientUnits="userSpaceOnUse" id="gradient12" r="819.2" spreadMethod="pad">
      <stop offset="0.0" stop-color="#83ab4f"/>
      <stop offset="1.0" stop-color="#739c40"/>
    </radialGradient>
    <linearGradient gradientTransform="matrix(-6.0E-4, 3.0E-4, -2.0E-4, -6.0E-4, 4.5, 12.05)" gradientUnits="userSpaceOnUse" id="gradient13" spreadMethod="pad" x1="-819.2" x2="819.2">
      <stop offset="0.0" stop-color="#ffe000"/>
      <stop offset="1.0" stop-color="#fff7b5"/>
    </linearGradient>
    <radialGradient cx="0" cy="0" gradientTransform="matrix(0.0019, 0.0058, 0.0058, -0.0019, 8.3, 11.9)" gradientUnits="userSpaceOnUse" id="gradient14" r="819.2" spreadMethod="pad">
      <stop offset="0.0" stop-color="#83ab4f"/>
      <stop offset="1.0" stop-color="#608c2b"/>
    </radialGradient>
    <radialGradient cx="0" cy="0" gradientTransform="matrix(-0.0013, 0.0041, -0.0041, -0.0013, 14.45, 14.45)" gradientUnits="userSpaceOnUse" id="gradient15" r="819.2" spreadMethod="pad">
      <stop offset="0.0" stop-color="#83ab4f"/>
      <stop offset="1.0" stop-color="#668a38"/>
    </radialGradient>
    <radialGradient cx="0" cy="0" gradientTransform="matrix(-0.0019, 0.0043, -0.0043, -0.0019, 15.45, 14.45)" gradientUnits="userSpaceOnUse" id="gradient16" r="819.2" spreadMethod="pad">
      <stop offset="0.0" stop-color="#95c755"/>
      <stop offset="1.0" stop-color="#6e963e"/>
    </radialGradient>
    <radialGradient cx="0" cy="0" gradientTransform="matrix(-0.0014, -0.0029, -0.0029, 0.0014, 15.2, 12.9)" gradientUnits="userSpaceOnUse" id="gradient17" r="819.2" spreadMethod="pad">
      <stop offset="0.0" stop-color="#639c35"/>
      <stop offset="0.30980392156862746" stop-color="#79bd40"/>
      <stop offset="1.0" stop-color="#699632"/>
    </radialGradient>
    <radialGradient cx="0" cy="0" gradientTransform="matrix(-0.0014, 0.0028, 0.0028, 0.0014, 11.25, 15.6)" gradientUnits="userSpaceOnUse" id="gradient18" r="819.2" spreadMethod="pad">
      <stop offset="0.0" stop-color="#639c35"/>
      <stop offset="0.30980392156862746" stop-color="#79bd40"/>
      <stop offset="1.0" stop-color="#699632"/>
    </radialGradient>
    <radialGradient cx="0" cy="0" gradientTransform="matrix(-0.0032, 0.0019, 0.0019, 0.0032, 10.1, 10.45)" gradientUnits="userSpaceOnUse" id="gradient19" r="819.2" spreadMethod="pad">
      <stop offset="0.0" stop-color="#639c35"/>
      <stop offset="0.30980392156862746" stop-color="#79bd40"/>
      <stop offset="1.0" stop-color="#699632"/>
    </radialGradient>
    <radialGradient cx="0" cy="0" gradientTransform="matrix(0.0019, 0.0058, -0.0058, 0.0019, 5.1, 14.6)" gradientUnits="userSpaceOnUse" id="gradient20" r="819.2" spreadMethod="pad">
      <stop offset="0.0" stop-color="#537525"/>
      <stop offset="1.0" stop-color="#547828"/>
    </radialGradient>
    <linearGradient gradientTransform="matrix(0.0119, 0.0, 0.0, -0.0119, 9.75, 17.9)" gradientUnits="userSpaceOnUse" id="gradient21" spreadMethod="pad" x1="-819.2" x2="819.2">
      <stop offset="0.0" stop-color="#d9d9d9"/>
      <stop offset="0.3215686274509804" stop-color="#ffffff"/>
      <stop offset="1.0" stop-color="#bdbdbd"/>
    </linearGradient>
    <linearGradient gradientTransform="matrix(0.0114, 0.0, 0.0, -0.0114, 37.65, 24.9)" gradientUnits="userSpaceOnUse" id="gradient22" spreadMethod="pad" x1="-819.2" x2="819.2">
      <stop offset="0.0" stop-color="#d9d9d9"/>
      <stop offset="0.3215686274509804" stop-color="#ffffff"/>
      <stop offset="1.0" stop-color="#bdbdbd"/>
    </linearGradient>
    <radialGradient cx="0" cy="0" gradientTransform="matrix(0.0039, 0.012, 0.012, -0.0039, 36.05, 13.3)" gradientUnits="userSpaceOnUse" id="gradient23" r="819.2" spreadMethod="pad">
      <stop offset="0.0" stop-color="#f6fccc"/>
      <stop offset="1.0" stop-color="#87bb44"/>
    </radialGradient>
    <radialGradient cx="0" cy="0" gradientTransform="matrix(0.0038, 0.0117, 0.0117, -0.0038, 36.1, 13.85)" gradientUnits="userSpaceOnUse" id="gradient24" r="819.2" spreadMethod="pad">
      <stop offset="0.0" stop-color="#d3db97"/>
      <stop offset="1.0" stop-color="#75b327"/>
    </radialGradient>
    <radialGradient cx="0" cy="0" gradientTransform="matrix(0.0016, 0.0049, 0.0049, -0.0016, 40.45, 12.4)" gradientUnits="userSpaceOnUse" id="gradient25" r="819.2" spreadMethod="pad">
      <stop offset="0.0" stop-color="#bedb7f"/>
      <stop offset="1.0" stop-color="#96cf4f"/>
    </radialGradient>
    <radialGradient cx="0" cy="0" gradientTransform="matrix(0.0013, 0.0038, 0.0038, -0.0013, 31.3, 14.5)" gradientUnits="userSpaceOnUse" id="gradient26" r="819.2" spreadMethod="pad">
      <stop offset="0.0" stop-color="#83ab4f"/>
      <stop offset="1.0" stop-color="#739c40"/>
    </radialGradient>
    <linearGradient gradientTransform="matrix(4.0E-4, 8.0E-4, 8.0E-4, -4.0E-4, 40.65, 14.95)" gradientUnits="userSpaceOnUse" id="gradient27" spreadMethod="pad" x1="-819.2" x2="819.2">
      <stop offset="0.0" stop-color="#ffe000"/>
      <stop offset="1.0" stop-color="#fff7b5"/>
    </linearGradient>
    <radialGradient cx="0" cy="0" gradientTransform="matrix(0.0024, 0.0075, 0.0075, -0.0024, 34.55, 13.1)" gradientUnits="userSpaceOnUse" id="gradient28" r="819.2" spreadMethod="pad">
      <stop offset="0.0" stop-color="#83ab4f"/>
      <stop offset="1.0" stop-color="#739c40"/>
    </radialGradient>
    <radialGradient cx="0" cy="0" gradientTransform="matrix(0.0035, 0.0109, 0.0109, -0.0035, 35.5, 15.05)" gradientUnits="userSpaceOnUse" id="gradient29" r="819.2" spreadMethod="pad">
      <stop offset="0.0" stop-color="#afd67c"/>
      <stop offset="1.0" stop-color="#709c39"/>
    </radialGradient>
    <radialGradient cx="0" cy="0" gradientTransform="matrix(0.0022, 0.0069, 0.0069, -0.0022, 38.5, 13.05)" gradientUnits="userSpaceOnUse" id="gradient30" r="819.2" spreadMethod="pad">
      <stop offset="0.0" stop-color="#83ab4f"/>
      <stop offset="1.0" stop-color="#739c40"/>
    </radialGradient>
    <radialGradient cx="0" cy="0" gradientTransform="matrix(0.0015, 0.0046, 0.0046, -0.0015, 40.9, 15.55)" gradientUnits="userSpaceOnUse" id="gradient31" r="819.2" spreadMethod="pad">
      <stop offset="0.0" stop-color="#86b548"/>
      <stop offset="1.0" stop-color="#5b802d"/>
    </radialGradient>
    <linearGradient gradientTransform="matrix(1.0E-4, 9.0E-4, 9.0E-4, -1.0E-4, 31.8, 17.85)" gradientUnits="userSpaceOnUse" id="gradient32" spreadMethod="pad" x1="-819.2" x2="819.2">
      <stop offset="0.0" stop-color="#ffe000"/>
      <stop offset="1.0" stop-color="#fff7b5"/>
    </linearGradient>
    <radialGradient cx="0" cy="0" gradientTransform="matrix(0.0011, 0.0035, 0.0035, -0.0011, 44.5, 15.3)" gradientUnits="userSpaceOnUse" id="gradient33" r="819.2" spreadMethod="pad">
      <stop offset="0.0" stop-color="#83ab4f"/>
      <stop offset="1.0" stop-color="#739c40"/>
    </radialGradient>
    <radialGradient cx="0" cy="0" gradientTransform="matrix(6.0E-4, 0.002, 0.002, -6.0E-4, 43.0, 12.85)" gradientUnits="userSpaceOnUse" id="gradient34" r="819.2" spreadMethod="pad">
      <stop offset="0.0" stop-color="#83ab4f"/>
      <stop offset="1.0" stop-color="#739c40"/>
    </radialGradient>
    <linearGradient gradientTransform="matrix(7.0E-4, 5.0E-4, 5.0E-4, -7.0E-4, 38.15, 11.8)" gradientUnits="userSpaceOnUse" id="gradient35" spreadMethod="pad" x1="-819.2" x2="819.2">
      <stop offset="0.0" stop-color="#ffe000"/>
      <stop offset="1.0" stop-color="#fff7b5"/>
    </linearGradient>
    <radialGradient cx="0" cy="0" gradientTransform="matrix(0.002, 0.0061, 0.0061, -0.002, 36.1, 14.35)" gradientUnits="userSpaceOnUse" id="gradient36" r="819.2" spreadMethod="pad">
      <stop offset="0.0" stop-color="#83ab4f"/>
      <stop offset="1.0" stop-color="#608c2b"/>
    </radialGradient>
    <radialGradient cx="0" cy="0" gradientTransform="matrix(0.0014, 0.0043, 0.0043, -0.0014, 35.3, 17.65)" gradientUnits="userSpaceOnUse" id="gradient37" r="819.2" spreadMethod="pad">
      <stop offset="0.0" stop-color="#83ab4f"/>
      <stop offset="1.0" stop-color="#668a38"/>
    </radialGradient>
    <radialGradient cx="0" cy="0" gradientTransform="matrix(0.002, 0.0044, 0.0044, -0.002, 34.3, 17.65)" gradientUnits="userSpaceOnUse" id="gradient38" r="819.2" spreadMethod="pad">
      <stop offset="0.0" stop-color="#95c755"/>
      <stop offset="1.0" stop-color="#6e963e"/>
    </radialGradient>
    <radialGradient cx="0" cy="0" gradientTransform="matrix(-0.0014, -0.003, -0.003, 0.0014, 44.5, 16.3)" gradientUnits="userSpaceOnUse" id="gradient39" r="819.2" spreadMethod="pad">
      <stop offset="0.0" stop-color="#639c35"/>
      <stop offset="0.30980392156862746" stop-color="#79bd40"/>
      <stop offset="1.0" stop-color="#699632"/>
    </radialGradient>
    <radialGradient cx="0" cy="0" gradientTransform="matrix(-0.0033, 1.0E-4, 1.0E-4, 0.0033, 35.45, 14.0)" gradientUnits="userSpaceOnUse" id="gradient40" r="819.2" spreadMethod="pad">
      <stop offset="0.0" stop-color="#639c35"/>
      <stop offset="0.30980392156862746" stop-color="#79bd40"/>
      <stop offset="1.0" stop-color="#699632"/>
    </radialGradient>
    <radialGradient cx="0" cy="0" gradientTransform="matrix(-0.001, 0.0037, 0.0037, 0.001, 36.55, 15.9)" gradientUnits="userSpaceOnUse" id="gradient41" r="819.2" spreadMethod="pad">
      <stop offset="0.0" stop-color="#639c35"/>
      <stop offset="0.30980392156862746" stop-color="#79bd40"/>
      <stop offset="1.0" stop-color="#699632"/>
    </radialGradient>
    <radialGradient cx="0" cy="0" gradientTransform="matrix(0.002, 0.0061, -0.0061, 0.002, 41.9, 15.75)" gradientUnits="userSpaceOnUse" id="gradient42" r="819.2" spreadMethod="pad">
      <stop offset="0.0" stop-color="#537525"/>
      <stop offset="1.0" stop-color="#547828"/>
    </radialGradient>
    <linearGradient gradientTransform="matrix(0.0124, 0.0, 0.0, -0.0124, 37.6, 20.65)" gradientUnits="userSpaceOnUse" id="gradient43" spreadMethod="pad" x1="-819.2" x2="819.2">
      <stop offset="0.0" stop-color="#d9d9d9"/>
      <stop offset="0.3215686274509804" stop-color="#ffffff"/>
      <stop offset="1.0" stop-color="#bdbdbd"/>
    </linearGradient>
    <linearGradient gradientTransform="matrix(0.0119, 0.0, 0.0, -0.0119, 21.0, 28.65)" gradientUnits="userSpaceOnUse" id="gradient44" spreadMethod="pad" x1="-819.2" x2="819.2">
      <stop offset="0.0" stop-color="#d9d9d9"/>
      <stop offset="0.3215686274509804" stop-color="#ffffff"/>
      <stop offset="1.0" stop-color="#bdbdbd"/>
    </linearGradient>
    <radialGradient cx="0" cy="0" gradientTransform="matrix(0.0041, 0.0125, 0.0125, -0.0041, 19.35, 16.6)" gradientUnits="userSpaceOnUse" id="gradient45" r="819.2" spreadMethod="pad">
      <stop offset="0.0" stop-color="#f6fccc"/>
      <stop offset="1.0" stop-color="#87bb44"/>
    </radialGradient>
    <radialGradient cx="0" cy="0" gradientTransform="matrix(0.004, 0.0123, 0.0123, -0.004, 19.35, 17.15)" gradientUnits="userSpaceOnUse" id="gradient46" r="819.2" spreadMethod="pad">
      <stop offset="0.0" stop-color="#d3db97"/>
      <stop offset="1.0" stop-color="#75b327"/>
    </radialGradient>
    <radialGradient cx="0" cy="0" gradientTransform="matrix(0.0017, 0.0052, 0.0052, -0.0017, 23.9, 15.65)" gradientUnits="userSpaceOnUse" id="gradient47" r="819.2" spreadMethod="pad">
      <stop offset="0.0" stop-color="#bedb7f"/>
      <stop offset="1.0" stop-color="#96cf4f"/>
    </radialGradient>
    <radialGradient cx="0" cy="0" gradientTransform="matrix(0.0013, 0.004, 0.004, -0.0013, 14.45, 17.85)" gradientUnits="userSpaceOnUse" id="gradient48" r="819.2" spreadMethod="pad">
      <stop offset="0.0" stop-color="#83ab4f"/>
      <stop offset="1.0" stop-color="#739c40"/>
    </radialGradient>
    <linearGradient gradientTransform="matrix(4.0E-4, 8.0E-4, 8.0E-4, -4.0E-4, 25.1, 16.1)" gradientUnits="userSpaceOnUse" id="gradient49" spreadMethod="pad" x1="-819.2" x2="819.2">
      <stop offset="0.0" stop-color="#ffe000"/>
      <stop offset="1.0" stop-color="#fff7b5"/>
    </linearGradient>
    <radialGradient cx="0" cy="0" gradientTransform="matrix(0.0025, 0.0078, 0.0078, -0.0025, 17.8, 16.4)" gradientUnits="userSpaceOnUse" id="gradient50" r="819.2" spreadMethod="pad">
      <stop offset="0.0" stop-color="#83ab4f"/>
      <stop offset="1.0" stop-color="#739c40"/>
    </radialGradient>
    <radialGradient cx="0" cy="0" gradientTransform="matrix(0.0037, 0.0114, 0.0114, -0.0037, 18.85, 18.4)" gradientUnits="userSpaceOnUse" id="gradient51" r="819.2" spreadMethod="pad">
      <stop offset="0.0" stop-color="#afd67c"/>
      <stop offset="1.0" stop-color="#709c39"/>
    </radialGradient>
    <radialGradient cx="0" cy="0" gradientTransform="matrix(0.0023, 0.0072, 0.0072, -0.0023, 21.9, 16.25)" gradientUnits="userSpaceOnUse" id="gradient52" r="819.2" spreadMethod="pad">
      <stop offset="0.0" stop-color="#83ab4f"/>
      <stop offset="1.0" stop-color="#739c40"/>
    </radialGradient>
    <radialGradient cx="0" cy="0" gradientTransform="matrix(0.0016, 0.0048, 0.0048, -0.0016, 24.85, 18.75)" gradientUnits="userSpaceOnUse" id="gradient53" r="819.2" spreadMethod="pad">
      <stop offset="0.0" stop-color="#86b548"/>
      <stop offset="1.0" stop-color="#5b802d"/>
    </radialGradient>
    <linearGradient gradientTransform="matrix(4.0E-4, 9.0E-4, 9.0E-4, -4.0E-4, 19.0, 20.75)" gradientUnits="userSpaceOnUse" id="gradient54" spreadMethod="pad" x1="-819.2" x2="819.2">
      <stop offset="0.0" stop-color="#ffe000"/>
      <stop offset="1.0" stop-color="#fff7b5"/>
    </linearGradient>
    <radialGradient cx="0" cy="0" gradientTransform="matrix(0.0012, 0.0037, 0.0037, -0.0012, 28.2, 18.65)" gradientUnits="userSpaceOnUse" id="gradient55" r="819.2" spreadMethod="pad">
      <stop offset="0.0" stop-color="#83ab4f"/>
      <stop offset="1.0" stop-color="#739c40"/>
    </radialGradient>
    <radialGradient cx="0" cy="0" gradientTransform="matrix(7.0E-4, 0.0021, 0.0021, -7.0E-4, 26.6, 16.05)" gradientUnits="userSpaceOnUse" id="gradient56" r="819.2" spreadMethod="pad">
      <stop offset="0.0" stop-color="#83ab4f"/>
      <stop offset="1.0" stop-color="#739c40"/>
    </radialGradient>
    <linearGradient gradientTransform="matrix(8.0E-4, 5.0E-4, 5.0E-4, -8.0E-4, 18.05, 16.65)" gradientUnits="userSpaceOnUse" id="gradient57" spreadMethod="pad" x1="-819.2" x2="819.2">
      <stop offset="0.0" stop-color="#ffe000"/>
      <stop offset="1.0" stop-color="#fff7b5"/>
    </linearGradient>
    <radialGradient cx="0" cy="0" gradientTransform="matrix(0.0021, 0.0064, 0.0064, -0.0021, 19.45, 17.65)" gradientUnits="userSpaceOnUse" id="gradient58" r="819.2" spreadMethod="pad">
      <stop offset="0.0" stop-color="#83ab4f"/>
      <stop offset="1.0" stop-color="#608c2b"/>
    </radialGradient>
    <radialGradient cx="0" cy="0" gradientTransform="matrix(0.0014, 0.0045, 0.0045, -0.0014, 16.5, 20.05)" gradientUnits="userSpaceOnUse" id="gradient59" r="819.2" spreadMethod="pad">
      <stop offset="0.0" stop-color="#83ab4f"/>
      <stop offset="1.0" stop-color="#668a38"/>
    </radialGradient>
    <radialGradient cx="0" cy="0" gradientTransform="matrix(0.0021, 0.0046, 0.0046, -0.0021, 15.45, 20.05)" gradientUnits="userSpaceOnUse" id="gradient60" r="819.2" spreadMethod="pad">
      <stop offset="0.0" stop-color="#95c755"/>
      <stop offset="1.0" stop-color="#6e963e"/>
    </radialGradient>
    <radialGradient cx="0" cy="0" gradientTransform="matrix(-0.0021, 0.0063, 0.0063, 0.0021, 26.65, 17.8)" gradientUnits="userSpaceOnUse" id="gradient61" r="819.2" spreadMethod="pad">
      <stop offset="0.0" stop-color="#537525"/>
      <stop offset="1.0" stop-color="#547828"/>
    </radialGradient>
    <radialGradient cx="0" cy="0" gradientTransform="matrix(-0.0015, -0.0031, -0.0031, 0.0015, 29.6, 22.2)" gradientUnits="userSpaceOnUse" id="gradient62" r="819.2" spreadMethod="pad">
      <stop offset="0.0" stop-color="#639c35"/>
      <stop offset="0.30980392156862746" stop-color="#79bd40"/>
      <stop offset="1.0" stop-color="#699632"/>
    </radialGradient>
    <radialGradient cx="0" cy="0" gradientTransform="matrix(-0.0033, 0.0013, 0.0013, 0.0033, 23.3, 14.0)" gradientUnits="userSpaceOnUse" id="gradient63" r="819.2" spreadMethod="pad">
      <stop offset="0.0" stop-color="#639c35"/>
      <stop offset="0.30980392156862746" stop-color="#79bd40"/>
      <stop offset="1.0" stop-color="#699632"/>
    </radialGradient>
    <radialGradient cx="0" cy="0" gradientTransform="matrix(-0.0022, 0.0034, 0.0034, 0.0022, 15.8, 16.9)" gradientUnits="userSpaceOnUse" id="gradient64" r="819.2" spreadMethod="pad">
      <stop offset="0.0" stop-color="#639c35"/>
      <stop offset="0.30980392156862746" stop-color="#79bd40"/>
      <stop offset="1.0" stop-color="#699632"/>
    </radialGradient>
    <linearGradient gradientTransform="matrix(0.0129, 0.0, 0.0, -0.0129, 20.95, 24.25)" gradientUnits="userSpaceOnUse" id="gradient65" spreadMethod="pad" x1="-819.2" x2="819.2">
      <stop offset="0.0" stop-color="#d9d9d9"/>
      <stop offset="0.3215686274509804" stop-color="#ffffff"/>
      <stop offset="1.0" stop-color="#bdbdbd"/>
    </linearGradient>
  </defs>
</svg>
