<?xml version="1.0" encoding="UTF-8" standalone="no"?>
<svg xmlns:xlink="http://www.w3.org/1999/xlink" height="256.6px" width="203.55px" xmlns="http://www.w3.org/2000/svg">
  <g transform="matrix(1.0, 0.0, 0.0, 1.0, 0.0, 0.0)">
    <use height="256.6" transform="matrix(1.0, 0.0, 0.0, 1.0, 0.0, 0.0)" width="203.55" xlink:href="#sprite0"/>
  </g>
  <defs>
    <g id="sprite0" transform="matrix(1.0, 0.0, 0.0, 1.0, -0.05, 0.0)">
      <use height="256.6" transform="matrix(1.0, 0.0, 0.0, 1.0, 0.05, 0.0)" width="203.55" xlink:href="#shape0"/>
    </g>
    <g id="shape0" transform="matrix(1.0, 0.0, 0.0, 1.0, -0.05, 0.0)">
      <path d="M129.2 65.05 Q129.35 68.45 131.1 70.8 132.8 73.15 135.1 73.0 137.4 72.9 138.9 70.35 140.45 67.85 140.3 64.4 140.15 60.95 138.45 58.6 136.7 56.3 134.4 56.4 132.1 56.55 130.6 59.1 129.1 61.6 129.2 65.05 M111.05 73.6 Q114.0 73.6 116.05 71.1 118.1 68.55 118.1 65.0 118.1 61.45 116.05 58.9 114.0 56.4 111.05 56.4 108.15 56.4 106.05 58.9 104.0 61.45 104.0 65.0 104.0 68.55 106.05 71.1 108.15 73.6 111.05 73.6 M170.6 137.15 Q176.7 161.55 184.95 187.95 194.95 219.7 197.95 230.4 202.75 247.45 203.6 256.6 L0.95 256.6 Q-3.7 230.45 15.95 182.5 21.55 168.8 33.8 142.65 45.8 117.05 50.25 106.0 L66.0 65.75 Q74.65 43.9 80.9 31.95 89.1 16.3 97.5 8.65 107.05 0.0 118.35 0.0 128.25 0.0 135.05 7.75 140.9 14.4 145.25 27.85 148.3 37.35 152.0 55.6 157.0 80.35 158.45 86.4 L170.6 137.15" fill="#cfe5db" fill-rule="evenodd" stroke="none"/>
    </g>
  </defs>
</svg>
