<?xml version="1.0" encoding="UTF-8" standalone="no"?>
<svg xmlns:xlink="http://www.w3.org/1999/xlink" height="166.9px" width="87.35px" xmlns="http://www.w3.org/2000/svg">
  <g transform="matrix(1.0, 0.0, 0.0, 1.0, 0.0, 0.0)">
    <use height="166.9" transform="matrix(1.0, 0.0, 0.0, 1.0, 0.0, 0.0)" width="87.35" xlink:href="#shape0"/>
  </g>
  <defs>
    <g id="shape0" transform="matrix(1.0, 0.0, 0.0, 1.0, 0.0, 0.0)">
      <path d="M29.65 31.75 Q34.05 38.95 47.15 66.15 L59.35 91.9 57.35 92.85 Q55.35 94.9 55.65 100.55 55.9 106.2 67.9 136.25 73.9 151.25 79.85 165.15 73.45 162.6 65.45 160.15 49.4 155.25 41.35 155.6 L18.05 157.5 0.0 158.25 Q7.0 131.45 9.5 119.1 11.05 111.35 8.75 99.4 L6.2 89.0 Q8.9 85.5 12.0 80.35 18.3 70.05 20.6 61.8 22.9 53.6 19.1 25.95 17.2 12.15 14.85 0.0 16.8 5.05 19.65 11.55 25.3 24.55 29.65 31.75" fill="#252421" fill-rule="evenodd" stroke="none"/>
      <path d="M16.05 7.2 L14.85 0.0 Q31.3 30.9 34.6 37.7 L60.15 92.3 58.0 93.3 Q55.85 94.95 55.85 98.3 55.85 101.65 71.6 134.6 79.5 151.1 87.35 166.9 L79.85 165.15 Q72.85 150.3 65.8 134.7 51.6 103.55 51.1 99.95 50.55 96.35 52.85 93.65 L55.2 91.7 16.05 7.2" fill="#4f4a3c" fill-rule="evenodd" stroke="none"/>
    </g>
  </defs>
</svg>
