<?xml version="1.0" encoding="UTF-8" standalone="no"?>
<svg xmlns:xlink="http://www.w3.org/1999/xlink" height="38.9px" width="62.9px" xmlns="http://www.w3.org/2000/svg">
  <g transform="matrix(1.0, 0.0, 0.0, 1.0, 0.0, 0.0)">
    <use height="18.85" transform="matrix(1.0, 0.0, 0.0, 1.0, 15.45, 20.5)" width="31.2" xlink:href="#shape0"/>
    <use height="12.1" transform="matrix(0.75, 0.0, 0.0, 0.75, 15.8375, 26.8)" width="21.3" xlink:href="#sprite0"/>
    <use height="24.45" transform="matrix(1.0, 0.0, 0.0, 1.0, 15.05, 12.7)" width="31.95" xlink:href="#shape2"/>
    <use height="2.05" transform="matrix(0.75, 0.0, 0.0, 0.75, 25.4, 25.15)" width="11.85" xlink:href="#sprite1"/>
    <use height="3.75" transform="matrix(0.75, 0.0, 0.0, 0.75, 19.85, 20.85)" width="27.4" xlink:href="#sprite2"/>
    <use height="3.1" transform="matrix(0.75, 0.0, 0.0, 0.75, 15.55, 17.25)" width="40.35" xlink:href="#sprite3"/>
    <use height="1.85" transform="matrix(0.75, 0.0, 0.0, 0.75, 17.8, 13.95)" width="28.9" xlink:href="#sprite4"/>
    <use height="0.65" transform="matrix(0.75, 0.0, 0.0, 0.75, 18.725, 17.25)" width="1.95" xlink:href="#sprite5"/>
    <use height="0.75" transform="matrix(0.75, 0.0, 0.0, 0.75, 23.05, 16.75)" width="3.3" xlink:href="#sprite6"/>
    <use height="0.4" transform="matrix(0.75, 0.0, 0.0, 0.75, 25.7, 17.15)" width="1.25" xlink:href="#sprite7"/>
    <use height="0.9" transform="matrix(0.75, 0.0, 0.0, 0.75, 33.45, 16.7)" width="3.25" xlink:href="#sprite8"/>
    <use height="0.65" transform="matrix(0.75, 0.0, 0.0, 0.75, 35.3625, 15.25)" width="2.2" xlink:href="#sprite9"/>
    <use height="0.7" transform="matrix(0.75, 0.0, 0.0, 0.75, 19.6, 15.45)" width="1.7" xlink:href="#sprite10"/>
    <use height="0.35" transform="matrix(0.75, 0.0, 0.0, 0.75, 22.55, 13.6)" width="2.2" xlink:href="#sprite11"/>
    <use height="1.05" transform="matrix(0.75, 0.0, 0.0, 0.75, 16.85, 19.8875)" width="3.9" xlink:href="#sprite12"/>
    <use height="1.1" transform="matrix(0.75, 0.0, 0.0, 0.75, 19.2, 20.3)" width="2.3" xlink:href="#sprite13"/>
    <use height="0.8" transform="matrix(0.75, 0.0, 0.0, 0.75, 30.5, 19.3375)" width="3.2" xlink:href="#sprite14"/>
    <use height="0.8" transform="matrix(0.75, 0.0, 0.0, 0.75, 38.8625, 19.95)" width="2.7" xlink:href="#sprite15"/>
    <use height="1.15" transform="matrix(0.75, 0.0, 0.0, 0.75, 29.4, 23.2)" width="3.45" xlink:href="#sprite16"/>
    <use height="0.9" transform="matrix(0.75, 0.0, 0.0, 0.75, 24.05, 24.1)" width="2.15" xlink:href="#sprite17"/>
    <use height="1.25" transform="matrix(0.75, 0.0, 0.0, 0.75, 25.55, 24.7)" width="2.7" xlink:href="#sprite18"/>
    <use height="1.05" transform="matrix(0.75, 0.0, 0.0, 0.75, 34.3625, 22.95)" width="2.6" xlink:href="#sprite19"/>
    <use height="19.9" transform="matrix(1.0, 0.0, 0.0, 1.0, 21.15, 16.45)" width="31.15" xlink:href="#shape17"/>
    <use height="12.1" transform="matrix(-0.75, 0.0, 0.0, 0.75, 51.9125, 22.75)" width="21.3" xlink:href="#sprite0"/>
    <use height="24.45" transform="matrix(1.0, 0.0, 0.0, 1.0, 20.7, 8.65)" width="32.0" xlink:href="#shape18"/>
    <use height="2.05" transform="matrix(-0.75, 0.0, 0.0, 0.75, 42.35, 21.1)" width="11.85" xlink:href="#sprite1"/>
    <use height="3.75" transform="matrix(-0.75, 0.0, 0.0, 0.75, 47.9, 16.8)" width="27.4" xlink:href="#sprite2"/>
    <use height="3.1" transform="matrix(-0.75, 0.0, 0.0, 0.75, 52.2, 13.2)" width="40.35" xlink:href="#sprite3"/>
    <use height="1.85" transform="matrix(-0.75, 0.0, 0.0, 0.75, 49.95, 9.9)" width="28.9" xlink:href="#sprite4"/>
    <use height="0.65" transform="matrix(-0.75, 0.0, 0.0, 0.75, 49.025, 13.2)" width="1.95" xlink:href="#sprite5"/>
    <use height="0.75" transform="matrix(-0.75, 0.0, 0.0, 0.75, 44.7, 12.7)" width="3.3" xlink:href="#sprite6"/>
    <use height="0.4" transform="matrix(-0.75, 0.0, 0.0, 0.75, 42.05, 13.1)" width="1.25" xlink:href="#sprite7"/>
    <use height="0.9" transform="matrix(-0.75, 0.0, 0.0, 0.75, 34.3, 12.65)" width="3.25" xlink:href="#sprite8"/>
    <use height="0.65" transform="matrix(-0.75, 0.0, 0.0, 0.75, 32.3875, 11.2)" width="2.2" xlink:href="#sprite9"/>
    <use height="0.7" transform="matrix(-0.75, 0.0, 0.0, 0.75, 48.15, 11.4)" width="1.7" xlink:href="#sprite10"/>
    <use height="0.35" transform="matrix(-0.75, 0.0, 0.0, 0.75, 45.2, 9.55)" width="2.2" xlink:href="#sprite11"/>
    <use height="1.05" transform="matrix(-0.75, 0.0, 0.0, 0.75, 50.9, 15.8375)" width="3.9" xlink:href="#sprite12"/>
    <use height="1.1" transform="matrix(-0.75, 0.0, 0.0, 0.75, 48.55, 16.25)" width="2.3" xlink:href="#sprite13"/>
    <use height="0.8" transform="matrix(-0.75, 0.0, 0.0, 0.75, 37.25, 15.2875)" width="3.2" xlink:href="#sprite14"/>
    <use height="0.8" transform="matrix(-0.75, 0.0, 0.0, 0.75, 28.8875, 15.9)" width="2.7" xlink:href="#sprite15"/>
    <use height="1.15" transform="matrix(-0.75, 0.0, 0.0, 0.75, 38.35, 19.15)" width="3.45" xlink:href="#sprite16"/>
    <use height="0.9" transform="matrix(-0.75, 0.0, 0.0, 0.75, 43.7, 20.05)" width="2.15" xlink:href="#sprite17"/>
    <use height="1.25" transform="matrix(-0.75, 0.0, 0.0, 0.75, 42.2, 20.65)" width="2.7" xlink:href="#sprite18"/>
    <use height="1.05" transform="matrix(-0.75, 0.0, 0.0, 0.75, 33.3875, 18.9)" width="2.6" xlink:href="#sprite19"/>
  </g>
  <defs>
    <g id="shape0" transform="matrix(1.0, 0.0, 0.0, 1.0, -15.45, -20.5)">
      <path d="M46.55 24.75 L46.65 27.6 39.15 33.3 30.9 39.35 28.2 34.8 28.75 31.25 31.95 29.3 Q35.5 27.3 36.9 27.2 39.15 27.0 46.55 24.75" fill="url(#gradient0)" fill-rule="evenodd" stroke="none"/>
      <path d="M45.9 25.2 L45.9 28.15 39.15 33.3 31.85 38.7 31.55 35.4 31.8 33.5 29.45 30.8 Q34.95 27.35 36.9 27.2 38.65 27.1 44.8 25.3 L45.9 25.2" fill="#e6b95e" fill-rule="evenodd" stroke="none"/>
      <path d="M16.05 30.25 L15.6 28.65 Q15.45 27.85 15.45 26.75 L15.55 25.85 31.25 27.2 30.6 33.7 30.9 39.35 24.05 36.6 Q19.65 34.7 17.4 32.25 L16.05 30.25" fill="url(#gradient1)" fill-rule="evenodd" stroke="none"/>
      <path d="M15.55 25.8 Q15.85 23.0 19.95 21.75 25.1 20.1 29.55 20.6 L37.8 22.45 46.55 24.75 35.95 31.0 31.55 35.4 30.8 35.85 26.15 34.5 Q20.85 32.65 17.55 30.0 15.3 28.2 15.55 25.8" fill="#cca658" fill-rule="evenodd" stroke="none"/>
      <path d="M38.55 30.1 Q34.5 32.9 31.55 35.4 28.05 34.75 25.05 33.25 20.85 31.1 18.85 29.55 15.85 27.1 16.95 25.25 19.05 21.6 27.15 21.0 30.1 20.85 38.3 23.0 L45.9 25.2 Q42.9 27.1 38.55 30.1" fill="#ebd88d" fill-rule="evenodd" stroke="none"/>
    </g>
    <linearGradient gradientTransform="matrix(0.0113, 0.0, 0.0, -0.0113, 37.4, 32.1)" gradientUnits="userSpaceOnUse" id="gradient0" spreadMethod="pad" x1="-819.2" x2="819.2">
      <stop offset="0.0" stop-color="#c4a04a"/>
      <stop offset="1.0" stop-color="#9c7832"/>
    </linearGradient>
    <linearGradient gradientTransform="matrix(0.0197, 0.0151, 0.0151, -0.0197, 16.55, 23.85)" gradientUnits="userSpaceOnUse" id="gradient1" spreadMethod="pad" x1="-819.2" x2="819.2">
      <stop offset="0.0" stop-color="#fdcb53"/>
      <stop offset="1.0" stop-color="#d48801"/>
    </linearGradient>
    <g id="sprite0" transform="matrix(1.0, 0.0, 0.0, 1.0, -0.05, 0.0)">
      <use height="12.1" transform="matrix(1.0, 0.0, 0.0, 1.0, 0.05, 0.0)" width="21.3" xlink:href="#shape1"/>
    </g>
    <g id="shape1" transform="matrix(1.0, 0.0, 0.0, 1.0, -0.05, 0.0)">
      <path d="M20.0 12.0 L18.95 11.3 Q18.5 10.95 17.85 10.95 17.15 10.95 16.8 11.3 L15.45 11.45 15.3 10.35 Q15.25 10.0 14.2 9.6 L12.45 9.2 Q10.2 9.2 8.8 8.3 8.1 7.85 7.05 7.9 L5.35 7.95 Q4.65 7.9 3.65 6.9 2.8 6.05 2.6 5.45 L1.95 4.0 1.2 2.55 0.6 1.9 0.05 1.3 Q-0.15 0.6 2.05 0.05 3.45 -0.35 12.8 5.5 22.1 11.35 21.3 11.85 L20.0 12.0" fill="#4d2f0b" fill-rule="evenodd" stroke="none"/>
    </g>
    <g id="shape2" transform="matrix(1.0, 0.0, 0.0, 1.0, -15.05, -12.7)">
      <path d="M32.6 36.0 Q32.55 35.3 33.2 34.65 33.85 34.0 34.3 34.35 34.8 34.65 34.75 35.4 34.7 36.1 34.25 36.65 33.75 37.25 33.25 37.15 32.65 37.0 32.6 36.0" fill="url(#gradient2)" fill-rule="evenodd" stroke="none"/>
      <path d="M35.45 33.05 Q36.0 32.45 36.15 33.6 36.25 34.75 35.55 34.65 34.95 34.65 35.0 34.0 35.05 33.45 35.45 33.05" fill="url(#gradient3)" fill-rule="evenodd" stroke="none"/>
      <path d="M39.3 30.25 Q40.5 29.9 40.1 31.25 39.7 32.7 38.9 32.6 38.2 32.55 38.3 31.55 38.45 30.5 39.3 30.25" fill="url(#gradient4)" fill-rule="evenodd" stroke="none"/>
      <path d="M42.15 28.0 Q42.75 27.75 42.9 28.2 43.1 28.5 42.9 29.0 L42.3 29.65 Q41.8 29.85 41.5 29.45 41.15 29.05 41.4 28.65 41.6 28.2 42.15 28.0" fill="url(#gradient5)" fill-rule="evenodd" stroke="none"/>
      <path d="M44.15 27.15 Q44.55 27.5 44.25 27.9 L43.5 28.0 Q43.2 27.75 43.55 27.35 43.95 26.95 44.15 27.15" fill="url(#gradient6)" fill-rule="evenodd" stroke="none"/>
      <path d="M45.4 27.95 Q45.1 28.15 44.85 27.75 44.7 27.45 45.15 26.9 45.5 26.3 45.6 26.65 45.75 27.75 45.4 27.95" fill="url(#gradient7)" fill-rule="evenodd" stroke="none"/>
      <path d="M45.55 23.3 L45.7 24.1 Q46.05 25.5 44.25 25.7 43.2 25.8 42.7 26.35 L42.0 27.6 41.45 28.95 Q41.1 29.65 40.15 30.1 L38.8 31.0 37.65 32.3 36.3 33.2 35.0 33.65 33.55 34.75 32.25 35.6 Q31.8 35.85 30.9 35.4 L28.95 34.3 25.6 33.45 22.95 32.85 Q21.65 32.0 19.85 32.3 19.3 32.4 18.5 31.8 L17.4 30.75 Q17.1 30.45 17.15 29.7 L17.05 28.65 16.2 27.95 Q15.55 27.6 15.4 27.15 15.2 26.6 15.5 26.2 L16.3 25.35 16.7 24.6 16.6 23.65 Q16.5 23.1 17.85 22.0 19.05 21.0 19.55 20.9 24.15 20.45 33.05 20.75 42.5 21.15 43.95 22.05 L45.55 23.3" fill="#7a5215" fill-rule="evenodd" stroke="none"/>
      <path d="M45.6 23.55 L45.7 24.1 Q46.05 25.5 44.25 25.7 43.2 25.8 42.7 26.35 L42.0 27.6 41.45 28.95 Q41.1 29.65 40.15 30.1 L38.8 31.0 37.65 32.3 36.3 33.2 35.0 33.65 33.55 34.75 32.25 35.6 Q31.8 35.85 30.75 35.25 30.9 34.6 31.35 34.55 32.0 34.5 32.65 34.0 L33.35 33.3 Q33.5 33.15 34.5 32.75 L35.9 32.15 37.95 30.3 39.35 29.35 Q40.4 28.85 40.7 28.55 41.1 28.2 41.3 27.05 41.55 25.9 41.85 25.5 42.3 25.05 43.6 24.95 L45.05 24.8 Q45.45 24.75 45.6 23.55" fill="#5e4007" fill-rule="evenodd" stroke="none"/>
      <path d="M17.4 30.75 Q17.1 30.45 17.15 29.7 L17.05 28.65 16.2 27.95 Q15.55 27.6 15.4 27.15 15.2 26.55 15.65 26.0 16.05 26.9 17.05 27.7 17.75 28.25 17.75 29.1 L17.95 30.3 19.25 31.1 20.85 31.45 Q21.45 31.35 22.35 31.75 L24.0 32.5 26.1 32.9 28.3 33.4 Q30.3 34.45 31.35 34.55 31.75 34.6 31.8 35.7 L30.6 35.25 28.95 34.3 25.6 33.45 22.95 32.85 Q21.65 32.0 19.85 32.3 19.3 32.4 18.5 31.8 L17.4 30.75" fill="#634506" fill-rule="evenodd" stroke="none"/>
      <path d="M47.0 22.0 Q47.1 22.5 46.8 23.45 46.8 24.3 45.95 24.4 L45.7 23.95 Q45.3 23.4 43.9 24.75 42.85 25.9 40.8 26.75 L39.0 28.05 37.15 29.65 35.1 31.2 33.6 32.45 Q31.7 33.8 30.3 33.7 L29.1 33.55 28.45 33.7 28.35 34.35 Q28.35 34.85 27.95 35.2 27.15 35.85 26.45 34.5 L26.15 33.65 25.5 32.75 Q25.1 32.4 23.95 31.95 L21.7 30.95 19.8 29.75 18.4 28.35 Q17.65 27.5 17.1 27.3 L15.95 27.0 15.2 26.85 Q15.05 26.7 15.15 26.25 L15.1 25.05 Q15.15 24.1 16.05 23.65 17.75 22.35 18.3 22.15 21.4 20.85 31.9 20.45 41.6 20.1 44.65 20.65 46.8 21.05 47.0 22.0" fill="#e3b309" fill-rule="evenodd" stroke="none"/>
      <path d="M45.85 20.95 Q47.1 21.6 46.55 22.2 L45.2 22.9 Q43.75 23.45 42.75 24.95 42.45 25.5 41.4 25.9 39.95 26.4 39.15 26.95 L36.95 28.5 35.0 30.4 Q32.85 32.85 30.15 32.85 27.95 32.85 26.4 31.9 L21.9 29.25 Q18.8 27.0 17.45 26.4 L15.95 25.35 15.3 24.4 16.1 23.55 Q16.85 23.0 17.55 22.8 L20.5 21.1 Q23.0 19.6 24.0 19.5 28.05 19.3 36.0 19.75 44.5 20.25 45.85 20.95" fill="#ffd129" fill-rule="evenodd" stroke="none"/>
      <path d="M15.6 25.4 L15.8 25.75 15.65 26.05 15.7 26.2 15.85 26.45 15.65 26.8 15.3 26.65 15.3 26.25 15.3 25.6 15.35 25.2 15.6 25.4" fill="#ffeda8" fill-rule="evenodd" stroke="none"/>
      <path d="M27.0 33.45 Q27.35 33.5 27.45 34.05 L27.35 34.9 Q27.1 35.3 26.55 34.15 26.4 33.9 26.55 33.65 L27.0 33.45" fill="#ffeda8" fill-rule="evenodd" stroke="none"/>
      <path d="M31.15 32.45 Q32.7 32.35 34.25 31.1 L33.1 32.1 32.3 32.55 30.6 32.8 28.3 32.7 27.3 32.4 29.2 32.55 31.15 32.45" fill="#ffeda8" fill-rule="evenodd" stroke="none"/>
      <path d="M46.2 23.5 L46.2 24.0 Q46.1 24.1 45.95 23.85 45.8 23.65 45.95 23.4 46.1 23.15 46.2 23.5" fill="#ffeda8" fill-rule="evenodd" stroke="none"/>
      <path d="M32.5 31.1 L31.0 30.6 29.4 30.8 27.5 31.2 Q26.7 31.15 25.9 30.4 25.15 29.7 24.7 29.7 L23.1 29.4 21.7 28.65 Q21.15 28.3 20.8 28.45 20.4 28.65 20.4 29.3 L20.15 30.0 19.45 29.95 Q19.05 29.9 18.85 29.45 L18.4 28.35 Q18.15 27.9 18.3 27.1 18.45 26.35 18.25 26.05 18.0 25.65 16.9 25.15 L15.3 24.4 Q14.85 24.15 15.25 23.6 L16.05 22.75 Q17.85 20.95 19.25 20.9 L31.7 19.8 44.05 19.35 Q46.0 19.65 45.85 20.95 L45.3 21.65 44.4 22.5 43.75 23.1 42.5 23.75 Q41.7 24.15 41.7 24.85 L41.8 26.25 Q41.75 27.0 41.25 27.2 L39.9 27.25 38.65 27.15 37.5 27.35 Q36.6 27.7 35.95 29.75 35.8 30.2 36.3 30.35 L37.35 30.75 Q37.9 31.05 37.9 31.7 37.95 32.35 37.35 32.75 L36.35 32.9 Q35.85 32.65 35.9 32.15 35.95 31.8 35.55 31.7 L35.0 31.45 Q34.8 30.95 33.6 31.25 L32.5 31.1" fill="#ebac65" fill-rule="evenodd" stroke="none"/>
      <path d="M45.75 20.25 L45.85 20.95 45.3 21.65 44.4 22.5 43.75 23.1 42.5 23.75 41.9 24.2 Q42.05 23.55 42.6 23.25 L44.1 22.15 45.15 21.15 Q45.75 20.8 45.75 20.25" fill="#d1944f" fill-rule="evenodd" stroke="none"/>
      <path d="M31.35 29.85 L32.45 30.4 33.75 30.85 34.7 30.8 35.2 30.95 35.95 31.45 Q36.5 31.55 36.55 32.05 L36.8 32.55 Q37.05 32.8 37.35 32.75 L36.35 32.9 Q35.85 32.65 35.9 32.15 35.95 31.8 35.55 31.7 L35.0 31.45 Q34.8 30.95 33.6 31.25 L32.5 31.1 31.0 30.6 29.4 30.8 27.5 31.2 Q26.7 31.15 25.9 30.4 25.15 29.7 24.7 29.7 L23.1 29.4 21.7 28.65 Q21.15 28.3 20.8 28.45 20.4 28.65 20.4 29.3 L20.15 30.0 19.45 29.95 18.8 29.4 Q19.95 29.7 20.1 28.7 20.2 28.15 20.7 28.05 L21.6 28.2 22.7 28.85 23.95 29.25 25.2 29.6 Q25.85 29.85 26.1 30.05 26.25 30.2 26.5 29.95 L26.7 29.55 Q26.7 29.4 28.8 29.55 L31.35 29.85" fill="#d1944f" fill-rule="evenodd" stroke="none"/>
      <path d="M18.25 26.05 Q18.0 25.65 16.9 25.15 L15.3 24.4 Q15.05 24.3 15.05 24.0 L15.75 24.25 Q16.65 24.45 17.55 25.05 18.65 25.8 18.4 26.4 L18.35 26.55 18.25 26.05" fill="#d1944f" fill-rule="evenodd" stroke="none"/>
      <path d="M37.5 27.35 Q36.6 27.7 35.95 29.75 35.8 30.15 36.15 30.3 L36.95 30.55 36.0 30.3 35.45 29.85 Q35.25 29.65 35.4 29.3 L36.0 28.1 36.6 27.1 Q37.2 26.45 38.0 26.65 L40.7 26.95 Q41.55 26.85 41.8 25.85 L41.8 26.25 Q41.75 27.0 41.25 27.2 L39.9 27.25 38.65 27.15 37.5 27.35" fill="#d1944f" fill-rule="evenodd" stroke="none"/>
      <path d="M15.85 23.35 Q16.05 23.4 15.85 23.7 L15.45 23.85 Q15.3 23.8 15.45 23.55 15.65 23.25 15.85 23.35" fill="#ffd4a1" fill-rule="evenodd" stroke="none"/>
      <path d="M18.45 27.8 L18.5 27.25 18.8 27.0 Q19.05 27.0 19.05 28.1 L19.35 28.5 19.6 28.75 19.35 29.1 18.9 29.1 18.65 28.6 18.45 27.8" fill="#ffd4a1" fill-rule="evenodd" stroke="none"/>
      <path d="M19.55 27.6 Q19.95 27.75 19.8 27.95 L19.5 28.2 Q19.35 28.15 19.35 27.9 19.4 27.6 19.55 27.6" fill="#ffd4a1" fill-rule="evenodd" stroke="none"/>
      <path d="M18.9 26.25 L19.15 26.65 Q19.15 26.9 18.8 26.8 18.45 26.7 18.6 26.4 18.7 26.1 18.9 26.25" fill="#ffd4a1" fill-rule="evenodd" stroke="none"/>
      <path d="M33.65 30.0 L34.35 30.15 Q34.75 30.4 34.5 30.5 L33.85 30.6 33.15 30.4 Q32.8 30.1 33.65 30.0" fill="#ffd4a1" fill-rule="evenodd" stroke="none"/>
      <path d="M35.6 30.75 L36.25 30.9 36.45 31.3 36.1 31.35 35.7 31.1 35.45 30.9 Q35.45 30.75 35.6 30.75" fill="#ffd4a1" fill-rule="evenodd" stroke="none"/>
      <path d="M37.2 31.6 Q37.95 31.65 37.35 32.4 L37.05 32.45 36.75 32.1 Q36.6 31.95 36.8 31.75 36.95 31.55 37.2 31.6" fill="#ffd4a1" fill-rule="evenodd" stroke="none"/>
      <path d="M35.15 28.8 L35.5 28.5 35.4 28.65 35.25 29.15 35.05 29.4 34.95 29.15 35.15 28.8" fill="#ffd4a1" fill-rule="evenodd" stroke="none"/>
      <path d="M39.3 26.1 L40.0 26.05 41.0 25.8 Q41.6 25.65 40.9 26.55 L40.05 26.7 38.95 26.5 Q38.55 26.4 38.8 26.15 L39.3 26.1" fill="#ffd4a1" fill-rule="evenodd" stroke="none"/>
      <path d="M41.25 24.55 L41.3 24.85 Q41.2 25.1 40.95 24.95 40.75 24.85 40.95 24.65 L41.25 24.55" fill="#ffd4a1" fill-rule="evenodd" stroke="none"/>
      <path d="M43.4 22.2 Q43.7 22.2 43.5 22.35 L43.15 22.6 42.75 22.75 42.4 22.7 42.8 22.45 43.4 22.2" fill="#ffd4a1" fill-rule="evenodd" stroke="none"/>
      <path d="M46.35 16.95 L46.45 19.8 38.95 25.5 30.75 31.55 28.0 27.0 28.55 23.45 31.8 21.5 Q35.3 19.5 36.7 19.4 38.95 19.2 46.35 16.95" fill="url(#gradient8)" fill-rule="evenodd" stroke="none"/>
      <path d="M45.65 17.4 L45.7 20.35 38.95 25.5 31.65 30.9 31.35 27.6 31.65 25.7 29.25 23.0 Q34.85 19.55 36.7 19.4 L44.6 17.5 45.65 17.4" fill="#e6b95e" fill-rule="evenodd" stroke="none"/>
      <path d="M31.05 19.4 L30.45 25.9 30.75 31.55 23.85 28.8 Q19.5 26.9 17.25 24.45 L15.85 22.45 15.45 20.85 Q15.15 19.55 15.35 18.05 L31.05 19.4" fill="url(#gradient9)" fill-rule="evenodd" stroke="none"/>
      <path d="M31.35 27.6 L30.6 28.05 Q28.65 27.65 25.95 26.7 20.65 24.85 17.35 22.2 15.15 20.4 15.35 18.0 15.65 15.2 19.75 13.95 24.9 12.3 29.4 12.8 31.2 13.0 37.65 14.65 L46.35 16.95 35.7 23.2 31.35 27.6" fill="#c98000" fill-rule="evenodd" stroke="none"/>
      <path d="M38.35 22.3 Q34.3 25.1 31.35 27.6 27.8 26.9 24.85 25.45 20.6 23.3 18.6 21.75 15.6 19.3 16.75 17.45 18.9 13.8 26.95 13.2 29.9 13.05 38.1 15.2 L45.65 17.4 Q42.65 19.3 38.35 22.3" fill="#ffd875" fill-rule="evenodd" stroke="none"/>
      <path d="M28.2 22.25 Q30.2 22.3 30.9 22.8 31.5 23.25 30.9 23.7 29.4 25.15 26.4 23.95 25.7 23.65 26.6 22.95 27.5 22.25 28.2 22.25" fill="url(#gradient10)" fill-rule="evenodd" stroke="none"/>
      <path d="M23.3 19.65 Q25.5 19.7 24.55 20.4 23.55 21.2 22.65 20.85 21.9 20.55 22.3 20.1 22.65 19.65 23.3 19.65" fill="url(#gradient11)" fill-rule="evenodd" stroke="none"/>
      <path d="M29.75 15.45 Q32.25 15.45 32.55 16.1 32.8 16.8 31.1 17.15 28.6 17.75 27.5 16.35 27.0 15.55 29.75 15.45" fill="url(#gradient12)" fill-rule="evenodd" stroke="none"/>
      <path d="M34.3 15.65 Q35.15 15.75 34.95 16.05 34.7 16.45 33.9 16.35 33.2 16.3 33.4 15.95 33.6 15.6 34.3 15.65" fill="url(#gradient13)" fill-rule="evenodd" stroke="none"/>
      <path d="M39.0 15.85 Q39.85 15.9 40.25 16.2 40.65 16.5 40.25 16.7 L39.2 16.95 37.8 16.8 Q37.1 16.5 37.65 16.2 38.1 15.8 39.0 15.85" fill="url(#gradient14)" fill-rule="evenodd" stroke="none"/>
      <path d="M35.8 19.15 Q37.25 19.05 37.2 19.55 L36.3 20.25 35.2 20.45 34.1 20.1 Q33.5 19.8 34.2 19.5 L35.8 19.15" fill="url(#gradient15)" fill-rule="evenodd" stroke="none"/>
      <path d="M28.8 18.45 Q29.7 18.5 29.7 19.0 29.75 19.35 29.4 19.8 L26.55 19.9 Q25.3 19.65 26.3 19.05 27.3 18.45 28.8 18.45" fill="url(#gradient16)" fill-rule="evenodd" stroke="none"/>
      <path d="M33.0 27.65 Q32.95 26.95 33.6 26.3 34.2 25.65 34.65 25.95 35.15 26.3 35.1 27.05 L34.65 28.35 Q34.15 28.9 33.6 28.8 33.0 28.65 33.0 27.65" fill="url(#gradient17)" fill-rule="evenodd" stroke="none"/>
      <path d="M36.15 24.45 Q36.65 24.45 36.45 25.25 36.3 26.1 35.8 25.9 35.4 25.7 35.65 25.05 35.85 24.5 36.15 24.45" fill="url(#gradient18)" fill-rule="evenodd" stroke="none"/>
      <path d="M42.45 20.35 Q43.9 20.25 43.35 21.05 42.85 21.9 41.9 22.0 41.1 22.05 41.45 21.25 41.75 20.4 42.45 20.35" fill="url(#gradient19)" fill-rule="evenodd" stroke="none"/>
      <path d="M38.95 25.5 L38.7 24.65 Q38.55 23.75 39.15 23.45 39.75 23.15 40.05 23.75 L40.3 24.4 38.95 25.5" fill="url(#gradient20)" fill-rule="evenodd" stroke="none"/>
      <path d="M44.35 18.75 Q45.15 18.75 44.85 19.3 L44.1 19.8 Q43.7 19.75 43.9 19.25 44.05 18.75 44.35 18.75" fill="url(#gradient21)" fill-rule="evenodd" stroke="none"/>
    </g>
    <linearGradient gradientTransform="matrix(1.0E-4, 0.0014, 0.0014, -1.0E-4, 33.7, 35.8)" gradientUnits="userSpaceOnUse" id="gradient2" spreadMethod="pad" x1="-819.2" x2="819.2">
      <stop offset="0.0" stop-color="#b5882f"/>
      <stop offset="1.0" stop-color="#e6b95e"/>
    </linearGradient>
    <linearGradient gradientTransform="matrix(1.0E-4, 9.0E-4, 9.0E-4, -1.0E-4, 35.55, 33.9)" gradientUnits="userSpaceOnUse" id="gradient3" spreadMethod="pad" x1="-819.2" x2="819.2">
      <stop offset="0.0" stop-color="#b5882f"/>
      <stop offset="1.0" stop-color="#e6b95e"/>
    </linearGradient>
    <linearGradient gradientTransform="matrix(1.0E-4, 0.0012, 0.0012, -1.0E-4, 39.25, 31.5)" gradientUnits="userSpaceOnUse" id="gradient4" spreadMethod="pad" x1="-819.2" x2="819.2">
      <stop offset="0.0" stop-color="#b5882f"/>
      <stop offset="1.0" stop-color="#e6b95e"/>
    </linearGradient>
    <linearGradient gradientTransform="matrix(1.0E-4, 9.0E-4, 9.0E-4, -1.0E-4, 42.15, 28.9)" gradientUnits="userSpaceOnUse" id="gradient5" spreadMethod="pad" x1="-819.2" x2="819.2">
      <stop offset="0.0" stop-color="#b5882f"/>
      <stop offset="1.0" stop-color="#e6b95e"/>
    </linearGradient>
    <linearGradient gradientTransform="matrix(0.0, 5.0E-4, 5.0E-4, 0.0, 43.9, 27.65)" gradientUnits="userSpaceOnUse" id="gradient6" spreadMethod="pad" x1="-819.2" x2="819.2">
      <stop offset="0.0" stop-color="#b5882f"/>
      <stop offset="1.0" stop-color="#e6b95e"/>
    </linearGradient>
    <linearGradient gradientTransform="matrix(1.0E-4, 7.0E-4, 7.0E-4, -1.0E-4, 45.25, 27.35)" gradientUnits="userSpaceOnUse" id="gradient7" spreadMethod="pad" x1="-819.2" x2="819.2">
      <stop offset="0.0" stop-color="#b5882f"/>
      <stop offset="1.0" stop-color="#e6b95e"/>
    </linearGradient>
    <linearGradient gradientTransform="matrix(0.0113, 0.0, 0.0, -0.0113, 37.2, 24.3)" gradientUnits="userSpaceOnUse" id="gradient8" spreadMethod="pad" x1="-819.2" x2="819.2">
      <stop offset="0.0" stop-color="#c4a04a"/>
      <stop offset="1.0" stop-color="#9c7832"/>
    </linearGradient>
    <linearGradient gradientTransform="matrix(0.0108, 0.0077, 0.0077, -0.0108, 22.35, 20.85)" gradientUnits="userSpaceOnUse" id="gradient9" spreadMethod="pad" x1="-819.2" x2="819.2">
      <stop offset="0.0" stop-color="#fdcb53"/>
      <stop offset="1.0" stop-color="#d48801"/>
    </linearGradient>
    <linearGradient gradientTransform="matrix(0.0011, 0.0015, 0.0015, -0.0011, 28.75, 23.5)" gradientUnits="userSpaceOnUse" id="gradient10" spreadMethod="pad" x1="-819.2" x2="819.2">
      <stop offset="0.0" stop-color="#e6b95e"/>
      <stop offset="1.0" stop-color="#ffd875"/>
    </linearGradient>
    <linearGradient gradientTransform="matrix(6.0E-4, 8.0E-4, 8.0E-4, -6.0E-4, 23.5, 20.25)" gradientUnits="userSpaceOnUse" id="gradient11" spreadMethod="pad" x1="-819.2" x2="819.2">
      <stop offset="0.0" stop-color="#e6b95e"/>
      <stop offset="1.0" stop-color="#ffd875"/>
    </linearGradient>
    <linearGradient gradientTransform="matrix(0.0031, 0.0, 0.0, -0.0031, 30.0, 16.4)" gradientUnits="userSpaceOnUse" id="gradient12" spreadMethod="pad" x1="-819.2" x2="819.2">
      <stop offset="0.0" stop-color="#e6b95e"/>
      <stop offset="1.0" stop-color="#ffd875"/>
    </linearGradient>
    <linearGradient gradientTransform="matrix(4.0E-4, 5.0E-4, 5.0E-4, -4.0E-4, 34.2, 16.05)" gradientUnits="userSpaceOnUse" id="gradient13" spreadMethod="pad" x1="-819.2" x2="819.2">
      <stop offset="0.0" stop-color="#e6b95e"/>
      <stop offset="1.0" stop-color="#ffd875"/>
    </linearGradient>
    <linearGradient gradientTransform="matrix(7.0E-4, 9.0E-4, 9.0E-4, -7.0E-4, 38.95, 16.5)" gradientUnits="userSpaceOnUse" id="gradient14" spreadMethod="pad" x1="-819.2" x2="819.2">
      <stop offset="0.0" stop-color="#e6b95e"/>
      <stop offset="1.0" stop-color="#ffd875"/>
    </linearGradient>
    <linearGradient gradientTransform="matrix(7.0E-4, 0.001, 0.001, -7.0E-4, 35.6, 19.75)" gradientUnits="userSpaceOnUse" id="gradient15" spreadMethod="pad" x1="-819.2" x2="819.2">
      <stop offset="0.0" stop-color="#e6b95e"/>
      <stop offset="1.0" stop-color="#ffd875"/>
    </linearGradient>
    <linearGradient gradientTransform="matrix(9.0E-4, 0.0012, 0.0012, -9.0E-4, 28.0, 19.45)" gradientUnits="userSpaceOnUse" id="gradient16" spreadMethod="pad" x1="-819.2" x2="819.2">
      <stop offset="0.0" stop-color="#e6b95e"/>
      <stop offset="1.0" stop-color="#ffd875"/>
    </linearGradient>
    <linearGradient gradientTransform="matrix(1.0E-4, 0.0014, 0.0014, -1.0E-4, 34.05, 27.45)" gradientUnits="userSpaceOnUse" id="gradient17" spreadMethod="pad" x1="-819.2" x2="819.2">
      <stop offset="0.0" stop-color="#b5882f"/>
      <stop offset="1.0" stop-color="#e6b95e"/>
    </linearGradient>
    <linearGradient gradientTransform="matrix(1.0E-4, 7.0E-4, 7.0E-4, -1.0E-4, 36.0, 25.25)" gradientUnits="userSpaceOnUse" id="gradient18" spreadMethod="pad" x1="-819.2" x2="819.2">
      <stop offset="0.0" stop-color="#b5882f"/>
      <stop offset="1.0" stop-color="#e6b95e"/>
    </linearGradient>
    <linearGradient gradientTransform="matrix(1.0E-4, 8.0E-4, 8.0E-4, -1.0E-4, 42.45, 21.2)" gradientUnits="userSpaceOnUse" id="gradient19" spreadMethod="pad" x1="-819.2" x2="819.2">
      <stop offset="0.0" stop-color="#b5882f"/>
      <stop offset="1.0" stop-color="#e6b95e"/>
    </linearGradient>
    <linearGradient gradientTransform="matrix(1.0E-4, 0.0011, 0.0011, -1.0E-4, 39.5, 24.5)" gradientUnits="userSpaceOnUse" id="gradient20" spreadMethod="pad" x1="-819.2" x2="819.2">
      <stop offset="0.0" stop-color="#b5882f"/>
      <stop offset="1.0" stop-color="#e6b95e"/>
    </linearGradient>
    <linearGradient gradientTransform="matrix(0.0, 5.0E-4, 5.0E-4, 0.0, 44.4, 19.3)" gradientUnits="userSpaceOnUse" id="gradient21" spreadMethod="pad" x1="-819.2" x2="819.2">
      <stop offset="0.0" stop-color="#b5882f"/>
      <stop offset="1.0" stop-color="#e6b95e"/>
    </linearGradient>
    <g id="sprite1" transform="matrix(1.0, 0.0, 0.0, 1.0, 0.0, 0.0)">
      <use height="2.05" transform="matrix(1.0, 0.0, 0.0, 1.0, 0.0, 0.0)" width="11.85" xlink:href="#shape3"/>
    </g>
    <g id="shape3" transform="matrix(1.0, 0.0, 0.0, 1.0, 0.0, 0.0)">
      <path d="M10.35 1.25 L5.75 1.75 3.6 1.95 1.95 2.05 1.2 1.8 Q0.9 1.5 0.6 1.5 L0.0 1.25 1.0 1.05 4.85 0.8 9.0 0.3 11.85 0.0 10.35 1.25" fill="#784000" fill-rule="evenodd" stroke="none"/>
    </g>
    <g id="sprite2" transform="matrix(1.0, 0.0, 0.0, 1.0, 0.0, 0.0)">
      <use height="3.75" transform="matrix(1.0, 0.0, 0.0, 1.0, 0.0, 0.0)" width="27.4" xlink:href="#shape4"/>
    </g>
    <g id="shape4" transform="matrix(1.0, 0.0, 0.0, 1.0, 0.0, 0.0)">
      <path d="M27.4 0.0 L24.6 1.95 20.95 2.15 16.65 2.55 10.5 3.35 7.75 3.6 5.7 3.6 2.4 3.75 0.9 3.45 Q0.2 3.15 0.0 2.8 -0.15 2.5 0.95 2.25 L2.6 2.0 9.45 1.5 18.65 0.75 27.4 0.0" fill="#784000" fill-rule="evenodd" stroke="none"/>
    </g>
    <g id="sprite3" transform="matrix(1.0, 0.0, 0.0, 1.0, 0.0, 0.0)">
      <use height="3.1" transform="matrix(1.0, 0.0, 0.0, 1.0, 0.0, 0.0)" width="40.35" xlink:href="#shape5"/>
    </g>
    <g id="shape5" transform="matrix(1.0, 0.0, 0.0, 1.0, 0.0, 0.0)">
      <path d="M38.05 1.5 L23.2 2.25 8.1 2.75 2.7 3.05 0.6 2.9 Q0.0 2.6 0.0 2.3 0.0 1.9 1.15 1.55 L11.35 0.6 18.7 0.5 25.4 0.4 30.85 0.1 35.8 0.05 40.35 0.1 38.05 1.5" fill="#784000" fill-rule="evenodd" stroke="none"/>
    </g>
    <g id="sprite4" transform="matrix(1.0, 0.0, 0.0, 1.0, 0.0, 0.0)">
      <use height="1.85" transform="matrix(1.0, 0.0, 0.0, 1.0, 0.0, 0.0)" width="28.9" xlink:href="#shape6"/>
    </g>
    <g id="shape6" transform="matrix(1.0, 0.0, 0.0, 1.0, 0.0, 0.0)">
      <path d="M25.65 0.65 L28.9 1.5 17.7 1.5 6.35 1.7 2.85 1.85 0.45 1.8 Q-0.4 1.7 0.3 1.25 0.95 0.85 1.55 0.75 L6.35 0.2 15.55 0.0 24.3 0.25 25.65 0.65" fill="#784000" fill-rule="evenodd" stroke="none"/>
    </g>
    <g id="sprite5" transform="matrix(1.0, 0.0, 0.0, 1.0, -0.1, 0.0)">
      <use height="1.25" transform="matrix(0.7222, 0.0, 0.0, 0.52, 0.1, 0.0)" width="2.7" xlink:href="#shape7"/>
    </g>
    <g id="shape7" transform="matrix(1.0, 0.0, 0.0, 1.0, 0.0, 0.0)">
      <path d="M2.65 0.3 Q2.8 0.65 2.25 1.0 L1.55 1.25 0.5 1.0 Q-0.3 0.9 0.15 0.45 0.55 0.05 1.15 0.0 L2.65 0.3" fill="#784000" fill-rule="evenodd" stroke="none"/>
    </g>
    <g id="sprite6" transform="matrix(1.0, 0.0, 0.0, 1.0, 0.0, 0.0)">
      <use height="0.9" transform="matrix(1.0154, 0.0, 0.0, 0.8333, 0.0, 0.0)" width="3.25" xlink:href="#shape8"/>
    </g>
    <g id="shape8" transform="matrix(1.0, 0.0, 0.0, 1.0, 0.0, 0.0)">
      <path d="M2.05 0.75 L0.75 0.85 Q0.05 1.0 0.0 0.65 -0.05 0.25 0.85 0.1 L2.3 0.05 Q3.0 0.15 3.2 0.55 3.4 0.9 2.05 0.75" fill="#784000" fill-rule="evenodd" stroke="none"/>
    </g>
    <g id="sprite7" transform="matrix(1.0, 0.0, 0.0, 1.0, 0.0, 0.0)">
      <use height="1.05" transform="matrix(0.4808, 0.0, 0.0, 0.381, -0.024, 0.0)" width="2.6" xlink:href="#shape9"/>
    </g>
    <g id="shape9" transform="matrix(1.0, 0.0, 0.0, 1.0, 0.05, 0.0)">
      <path d="M1.75 0.0 Q3.25 0.0 1.95 0.7 L0.2 0.95 Q-0.35 0.8 0.4 0.4 1.1 0.0 1.75 0.0" fill="#784000" fill-rule="evenodd" stroke="none"/>
    </g>
    <g id="sprite8" transform="matrix(1.0, 0.0, 0.0, 1.0, 0.0, 0.0)">
      <use height="0.9" transform="matrix(1.0, 0.0, 0.0, 1.0, 0.0, 0.0)" width="3.25" xlink:href="#shape8"/>
    </g>
    <g id="sprite9" transform="matrix(1.0, 0.0, 0.0, 1.0, 0.05, 0.0)">
      <use height="0.65" transform="matrix(1.0, 0.0, 0.0, 1.0, -0.05, 0.0)" width="2.2" xlink:href="#shape10"/>
    </g>
    <g id="shape10" transform="matrix(1.0, 0.0, 0.0, 1.0, 0.05, 0.0)">
      <path d="M1.1 0.0 Q2.7 0.15 1.85 0.4 L0.25 0.65 Q-0.25 0.55 0.1 0.25 0.5 -0.05 1.1 0.0" fill="#784000" fill-rule="evenodd" stroke="none"/>
    </g>
    <g id="sprite10" transform="matrix(1.0, 0.0, 0.0, 1.0, 0.0, 0.0)">
      <use height="1.05" transform="matrix(0.6538, 0.0, 0.0, 0.6667, 0.0173, 0.0)" width="2.6" xlink:href="#shape9"/>
    </g>
    <g id="sprite11" transform="matrix(1.0, 0.0, 0.0, 1.0, 0.0, 0.0)">
      <use height="0.35" transform="matrix(1.0, 0.0, 0.0, 1.0, 0.0, 0.0)" width="2.2" xlink:href="#shape11"/>
    </g>
    <g id="shape11" transform="matrix(1.0, 0.0, 0.0, 1.0, 0.0, 0.0)">
      <path d="M1.3 0.35 L0.0 0.2 1.95 0.15 Q2.7 0.25 1.3 0.35" fill="#784000" fill-rule="evenodd" stroke="none"/>
    </g>
    <g id="sprite12" transform="matrix(1.0, 0.0, 0.0, 1.0, 0.0, -0.05)">
      <use height="1.05" transform="matrix(1.0, 0.0, 0.0, 1.0, 0.0, 0.05)" width="3.9" xlink:href="#shape12"/>
    </g>
    <g id="shape12" transform="matrix(1.0, 0.0, 0.0, 1.0, 0.0, -0.05)">
      <path d="M3.4 0.05 Q4.55 0.05 3.0 0.6 L0.55 1.1 Q-0.25 1.0 0.1 0.6 0.45 0.2 0.95 0.1 L3.4 0.05" fill="#784000" fill-rule="evenodd" stroke="none"/>
    </g>
    <g id="sprite13" transform="matrix(1.0, 0.0, 0.0, 1.0, 0.0, 0.0)">
      <use height="0.8" transform="matrix(0.7188, 0.0, 0.0, 1.375, 0.0, 0.0188)" width="3.2" xlink:href="#shape13"/>
    </g>
    <g id="shape13" transform="matrix(1.0, 0.0, 0.0, 1.0, 0.0, -0.05)">
      <path d="M1.75 0.05 Q3.35 0.1 3.2 0.35 L2.45 0.8 1.35 0.8 0.15 0.45 Q-0.25 0.25 0.4 0.1 L1.75 0.05" fill="#784000" fill-rule="evenodd" stroke="none"/>
    </g>
    <g id="sprite14" transform="matrix(1.0, 0.0, 0.0, 1.0, 0.0, -0.05)">
      <use height="0.8" transform="matrix(1.0, 0.0, 0.0, 1.0, 0.0, 0.05)" width="3.2" xlink:href="#shape13"/>
    </g>
    <g id="sprite15" transform="matrix(1.0, 0.0, 0.0, 1.0, 0.05, 0.0)">
      <use height="0.8" transform="matrix(1.0, 0.0, 0.0, 1.0, -0.05, 0.0)" width="2.7" xlink:href="#shape14"/>
    </g>
    <g id="shape14" transform="matrix(1.0, 0.0, 0.0, 1.0, 0.05, 0.0)">
      <path d="M1.95 0.0 L2.65 0.2 2.3 0.5 1.25 0.75 0.1 0.65 Q-0.3 0.45 0.4 0.2 L1.95 0.0" fill="#784000" fill-rule="evenodd" stroke="none"/>
    </g>
    <g id="sprite16" transform="matrix(1.0, 0.0, 0.0, 1.0, 0.0, 0.0)">
      <use height="1.15" transform="matrix(1.0, 0.0, 0.0, 1.0, 0.0, 0.0)" width="3.45" xlink:href="#shape15"/>
    </g>
    <g id="shape15" transform="matrix(1.0, 0.0, 0.0, 1.0, 0.0, 0.0)">
      <path d="M3.4 0.45 Q3.65 0.95 2.5 1.1 0.2 1.35 0.0 0.7 -0.1 0.1 1.65 0.0 3.1 -0.05 3.4 0.45" fill="#784000" fill-rule="evenodd" stroke="none"/>
    </g>
    <g id="sprite17" transform="matrix(1.0, 0.0, 0.0, 1.0, 0.0, 0.0)">
      <use height="0.9" transform="matrix(1.0, 0.0, 0.0, 1.0, 0.0, 0.0)" width="2.15" xlink:href="#shape16"/>
    </g>
    <g id="shape16" transform="matrix(1.0, 0.0, 0.0, 1.0, 0.0, 0.0)">
      <path d="M0.75 0.0 L2.05 0.4 Q2.5 0.85 1.15 0.9 -0.15 0.95 0.0 0.45 0.2 0.0 0.75 0.0" fill="#784000" fill-rule="evenodd" stroke="none"/>
    </g>
    <g id="sprite18" transform="matrix(1.0, 0.0, 0.0, 1.0, 0.0, 0.0)">
      <use height="1.25" transform="matrix(1.0, 0.0, 0.0, 1.0, 0.0, 0.0)" width="2.7" xlink:href="#shape7"/>
    </g>
    <g id="sprite19" transform="matrix(1.0, 0.0, 0.0, 1.0, 0.05, 0.0)">
      <use height="1.05" transform="matrix(1.0, 0.0, 0.0, 1.0, -0.05, 0.0)" width="2.6" xlink:href="#shape9"/>
    </g>
    <g id="shape17" transform="matrix(1.0, 0.0, 0.0, 1.0, -21.15, -16.45)">
      <path d="M35.35 36.35 L21.5 23.7 48.75 28.65 Q45.35 33.65 35.35 36.35" fill="#000000" fill-opacity="0.2509804" fill-rule="evenodd" stroke="none"/>
      <path d="M21.2 20.7 L21.15 23.55 28.65 29.25 36.85 35.3 39.6 30.75 39.0 27.2 Q37.55 26.25 35.8 25.25 32.25 23.25 30.9 23.15 28.65 22.95 21.2 20.7" fill="url(#gradient22)" fill-rule="evenodd" stroke="none"/>
      <path d="M21.9 21.15 L21.9 24.1 28.65 29.25 35.9 34.65 36.2 31.35 35.95 29.45 38.3 26.75 Q32.85 23.3 30.9 23.15 29.1 23.05 22.95 21.25 L21.9 21.15" fill="#e6b95e" fill-rule="evenodd" stroke="none"/>
      <path d="M51.7 26.2 L52.15 24.6 52.3 22.7 52.2 21.8 36.5 23.15 37.15 29.65 36.85 35.3 43.7 32.55 Q48.1 30.65 50.35 28.2 L51.7 26.2" fill="url(#gradient23)" fill-rule="evenodd" stroke="none"/>
      <path d="M52.2 21.75 Q51.9 18.95 47.85 17.7 42.65 16.05 38.2 16.55 L29.95 18.4 21.2 20.7 31.8 26.95 36.2 31.35 36.95 31.8 41.6 30.45 Q46.9 28.6 50.2 25.95 52.45 24.15 52.2 21.75" fill="#cca658" fill-rule="evenodd" stroke="none"/>
      <path d="M29.2 26.05 Q33.25 28.85 36.2 31.35 39.75 30.7 42.7 29.2 46.95 27.05 48.9 25.5 51.9 23.05 50.85 21.2 48.7 17.55 40.65 16.95 37.65 16.8 29.45 18.95 L21.9 21.15 Q24.9 23.05 29.2 26.05" fill="#ebd88d" fill-rule="evenodd" stroke="none"/>
    </g>
    <linearGradient gradientTransform="matrix(-0.0113, 0.0, 0.0, -0.0113, 30.35, 28.05)" gradientUnits="userSpaceOnUse" id="gradient22" spreadMethod="pad" x1="-819.2" x2="819.2">
      <stop offset="0.0" stop-color="#c4a04a"/>
      <stop offset="1.0" stop-color="#9c7832"/>
    </linearGradient>
    <linearGradient gradientTransform="matrix(-0.0197, 0.0151, -0.0151, -0.0197, 51.2, 19.8)" gradientUnits="userSpaceOnUse" id="gradient23" spreadMethod="pad" x1="-819.2" x2="819.2">
      <stop offset="0.0" stop-color="#fdcb53"/>
      <stop offset="1.0" stop-color="#d48801"/>
    </linearGradient>
    <g id="shape18" transform="matrix(1.0, 0.0, 0.0, 1.0, -20.7, -8.65)">
      <path d="M35.15 31.95 Q35.2 31.25 34.55 30.6 33.9 29.95 33.45 30.3 33.0 30.6 33.0 31.35 33.05 32.05 33.5 32.6 34.0 33.2 34.5 33.1 35.1 32.95 35.15 31.95" fill="url(#gradient24)" fill-rule="evenodd" stroke="none"/>
      <path d="M32.3 29.0 Q31.75 28.4 31.65 29.55 31.5 30.7 32.2 30.6 32.85 30.6 32.75 29.95 32.7 29.4 32.3 29.0" fill="url(#gradient25)" fill-rule="evenodd" stroke="none"/>
      <path d="M28.45 26.2 Q27.25 25.85 27.65 27.2 28.05 28.65 28.85 28.55 29.55 28.5 29.45 27.5 29.3 26.45 28.45 26.2" fill="url(#gradient26)" fill-rule="evenodd" stroke="none"/>
      <path d="M25.65 23.95 Q25.05 23.7 24.85 24.15 24.65 24.45 24.85 24.95 L25.45 25.6 Q25.95 25.8 26.25 25.4 26.6 25.0 26.4 24.6 L25.65 23.95" fill="url(#gradient27)" fill-rule="evenodd" stroke="none"/>
      <path d="M23.6 23.1 Q23.2 23.45 23.55 23.85 L24.25 23.95 Q24.55 23.7 24.2 23.3 23.85 22.9 23.6 23.1" fill="url(#gradient28)" fill-rule="evenodd" stroke="none"/>
      <path d="M22.35 23.9 Q22.65 24.1 22.9 23.7 23.05 23.4 22.65 22.85 22.25 22.25 22.2 22.6 22.0 23.7 22.35 23.9" fill="url(#gradient29)" fill-rule="evenodd" stroke="none"/>
      <path d="M22.2 19.25 Q22.05 19.5 22.05 20.05 21.7 21.45 23.55 21.65 24.55 21.75 25.05 22.3 L25.8 23.55 26.3 24.9 27.6 26.05 28.95 26.95 30.15 28.25 Q30.85 29.0 31.5 29.15 L32.75 29.6 34.2 30.7 35.5 31.55 36.85 31.35 38.85 30.25 Q39.75 29.8 42.15 29.4 L44.85 28.8 Q46.1 27.95 47.9 28.25 48.45 28.35 49.25 27.75 L50.4 26.7 Q50.7 26.4 50.6 25.65 L50.7 24.6 Q50.85 24.35 51.6 23.9 L52.35 23.1 Q52.55 22.55 52.25 22.15 L51.45 21.3 51.05 20.55 51.15 19.6 Q51.25 19.05 49.95 17.95 L48.2 16.85 Q43.6 16.4 34.7 16.7 25.25 17.1 23.8 18.0 L22.2 19.25" fill="#7a5215" fill-rule="evenodd" stroke="none"/>
      <path d="M22.15 19.5 L22.05 20.05 Q21.7 21.45 23.55 21.65 24.55 21.75 25.05 22.3 L25.8 23.55 26.3 24.9 27.6 26.05 28.95 26.95 30.15 28.25 Q30.85 29.0 31.5 29.15 L32.75 29.6 34.2 30.7 35.5 31.55 Q36.0 31.8 37.05 31.2 36.85 30.55 36.4 30.5 35.75 30.45 35.1 29.95 L34.4 29.25 Q34.25 29.1 33.3 28.7 L31.85 28.1 Q30.85 27.5 29.8 26.25 L28.4 25.3 Q27.35 24.8 27.05 24.5 26.7 24.15 26.45 23.0 26.25 21.85 25.9 21.45 25.45 21.0 24.15 20.9 L22.7 20.75 Q22.35 20.7 22.15 19.5" fill="#5e4007" fill-rule="evenodd" stroke="none"/>
      <path d="M50.4 26.7 Q50.7 26.4 50.6 25.65 L50.7 24.6 Q50.85 24.35 51.6 23.9 L52.35 23.1 Q52.55 22.5 52.1 21.95 51.7 22.85 50.7 23.65 50.0 24.2 50.0 25.05 L49.8 26.25 48.5 27.05 46.95 27.4 Q46.35 27.3 45.4 27.7 45.05 27.8 43.75 28.45 L41.7 28.85 39.45 29.35 Q37.45 30.4 36.4 30.5 36.0 30.55 35.95 31.65 L37.15 31.2 38.85 30.25 Q39.75 29.8 42.15 29.4 L44.85 28.8 Q46.1 27.95 47.9 28.25 48.45 28.35 49.25 27.75 L50.4 26.7" fill="#634506" fill-rule="evenodd" stroke="none"/>
      <path d="M20.75 17.95 Q20.65 18.45 20.95 19.4 20.95 20.25 21.8 20.35 L22.05 19.9 Q22.45 19.35 23.85 20.7 24.9 21.85 26.95 22.7 27.85 23.1 28.8 24.0 L30.6 25.6 32.65 27.15 34.2 28.4 Q36.05 29.75 37.45 29.65 L38.65 29.5 Q39.15 29.45 39.3 29.65 L39.45 30.3 Q39.45 30.8 39.8 31.15 40.6 31.8 41.3 30.45 L41.6 29.6 Q41.8 29.1 42.25 28.7 42.65 28.35 43.8 27.9 45.3 27.35 46.05 26.9 L47.95 25.7 49.35 24.3 Q50.1 23.45 50.7 23.25 L51.8 22.95 52.55 22.8 52.65 22.2 52.65 21.0 Q52.6 20.05 51.7 19.6 50.0 18.3 49.45 18.1 46.35 16.8 35.85 16.4 26.15 16.05 23.1 16.6 21.0 17.0 20.75 17.95" fill="#e3b309" fill-rule="evenodd" stroke="none"/>
      <path d="M21.9 16.9 Q20.65 17.55 21.2 18.15 21.5 18.45 22.55 18.85 24.0 19.4 25.0 20.9 25.35 21.45 26.4 21.85 27.8 22.35 28.65 22.9 L30.8 24.45 32.75 26.35 Q34.95 28.8 37.65 28.8 39.8 28.8 41.4 27.85 L45.9 25.2 Q48.95 22.95 50.3 22.35 L51.8 21.3 52.45 20.35 51.65 19.5 Q50.9 18.95 50.25 18.75 L47.25 17.05 Q44.75 15.55 43.75 15.45 39.7 15.25 31.75 15.7 23.25 16.2 21.9 16.9" fill="#ffd129" fill-rule="evenodd" stroke="none"/>
      <path d="M52.15 21.35 Q51.9 21.5 51.95 21.7 L52.1 22.0 52.05 22.15 Q51.9 22.2 51.9 22.4 L52.1 22.75 52.45 22.6 52.45 22.2 52.45 21.55 52.4 21.15 52.15 21.35" fill="#ffeda8" fill-rule="evenodd" stroke="none"/>
      <path d="M40.8 29.4 Q40.4 29.45 40.3 30.0 40.2 30.55 40.4 30.85 40.65 31.25 41.2 30.1 L41.2 29.6 40.8 29.4" fill="#ffeda8" fill-rule="evenodd" stroke="none"/>
      <path d="M36.6 28.4 Q35.05 28.3 33.5 27.05 L34.65 28.05 35.45 28.5 37.15 28.75 39.45 28.65 40.45 28.35 38.55 28.5 36.6 28.4" fill="#ffeda8" fill-rule="evenodd" stroke="none"/>
      <path d="M21.55 19.45 Q21.4 19.8 21.55 19.95 L21.8 19.8 21.8 19.35 Q21.65 19.1 21.55 19.45" fill="#ffeda8" fill-rule="evenodd" stroke="none"/>
      <path d="M35.25 27.05 L36.75 26.55 38.35 26.75 40.25 27.15 Q41.1 27.1 41.85 26.35 42.6 25.65 43.05 25.65 L44.7 25.35 Q45.55 25.05 46.05 24.6 46.65 24.25 46.95 24.4 47.35 24.6 47.35 25.25 47.35 25.85 47.6 25.95 L48.3 25.9 Q48.75 25.85 48.9 25.4 L49.35 24.3 Q49.6 23.85 49.45 23.05 49.35 22.3 49.5 22.0 49.75 21.6 50.85 21.1 L52.45 20.35 Q52.9 20.1 52.5 19.55 L51.7 18.7 Q49.9 16.9 48.5 16.85 L36.05 15.75 23.7 15.3 Q21.75 15.6 21.9 16.9 21.95 17.25 22.45 17.6 L23.35 18.45 24.0 19.05 25.25 19.7 Q26.05 20.1 26.05 20.8 L25.95 22.2 Q26.0 22.95 26.5 23.15 L27.85 23.2 29.1 23.1 30.3 23.3 Q31.2 23.65 31.8 25.7 31.95 26.15 31.45 26.3 L30.4 26.7 Q29.85 27.0 29.85 27.65 29.85 28.3 30.4 28.7 L31.4 28.85 Q31.9 28.6 31.85 28.1 31.8 27.75 32.25 27.65 L32.75 27.4 Q32.95 26.9 34.15 27.2 L35.25 27.05" fill="#ebac65" fill-rule="evenodd" stroke="none"/>
      <path d="M22.05 16.2 Q21.85 16.5 21.9 16.9 21.95 17.25 22.45 17.6 L23.35 18.45 24.0 19.05 25.25 19.7 25.85 20.15 Q25.7 19.5 25.2 19.2 L23.65 18.1 22.65 17.1 Q22.0 16.75 22.05 16.2" fill="#d1944f" fill-rule="evenodd" stroke="none"/>
      <path d="M36.4 25.8 Q36.3 25.8 35.3 26.35 L34.05 26.8 33.05 26.75 32.55 26.9 31.8 27.4 Q31.25 27.5 31.2 28.0 L30.95 28.5 30.4 28.7 31.4 28.85 Q31.9 28.6 31.85 28.1 31.8 27.75 32.25 27.65 L32.75 27.4 Q32.95 26.9 34.15 27.2 L35.25 27.05 36.75 26.55 38.35 26.75 40.25 27.15 Q41.1 27.1 41.85 26.35 42.6 25.65 43.05 25.65 L44.7 25.35 Q45.55 25.05 46.05 24.6 46.65 24.25 46.95 24.4 47.35 24.6 47.35 25.25 47.35 25.85 47.6 25.95 L48.3 25.9 48.95 25.35 Q47.8 25.65 47.65 24.65 47.55 24.1 47.1 24.0 L46.2 24.15 45.05 24.8 43.8 25.2 Q43.3 25.25 42.6 25.55 41.9 25.8 41.7 26.0 L41.25 25.9 41.1 25.5 Q41.1 25.35 39.0 25.5 L36.4 25.8" fill="#d1944f" fill-rule="evenodd" stroke="none"/>
      <path d="M49.5 22.0 Q49.75 21.6 50.85 21.1 L52.45 20.35 52.7 19.95 52.0 20.2 Q51.1 20.4 50.25 21.0 49.1 21.75 49.35 22.35 L49.4 22.5 49.5 22.0" fill="#d1944f" fill-rule="evenodd" stroke="none"/>
      <path d="M30.3 23.3 Q31.2 23.65 31.8 25.7 31.95 26.1 31.65 26.25 L30.8 26.5 31.8 26.25 32.3 25.8 32.4 25.25 31.8 24.05 31.2 23.05 Q30.55 22.4 29.75 22.6 L27.05 22.9 Q26.2 22.8 25.95 21.8 L25.95 22.2 Q26.0 22.95 26.5 23.15 L27.85 23.2 29.1 23.1 30.3 23.3" fill="#d1944f" fill-rule="evenodd" stroke="none"/>
      <path d="M51.9 19.3 Q51.75 19.35 51.9 19.65 52.15 19.95 52.3 19.8 52.5 19.75 52.3 19.5 52.1 19.2 51.9 19.3" fill="#ffd4a1" fill-rule="evenodd" stroke="none"/>
      <path d="M49.1 24.55 L49.3 23.75 49.25 23.2 48.95 22.95 Q48.7 22.95 48.7 24.05 L48.45 24.45 48.15 24.7 48.45 25.05 48.9 25.05 49.1 24.55" fill="#ffd4a1" fill-rule="evenodd" stroke="none"/>
      <path d="M48.2 23.55 Q47.85 23.7 47.95 23.9 48.05 24.15 48.3 24.15 L48.4 23.85 48.2 23.55" fill="#ffd4a1" fill-rule="evenodd" stroke="none"/>
      <path d="M48.85 22.2 L48.6 22.6 Q48.6 22.85 48.95 22.75 49.35 22.65 49.2 22.35 49.05 22.05 48.85 22.2" fill="#ffd4a1" fill-rule="evenodd" stroke="none"/>
      <path d="M34.1 25.95 L33.45 26.1 Q33.0 26.35 33.25 26.45 L33.9 26.55 34.65 26.35 Q34.95 26.05 34.1 25.95" fill="#ffd4a1" fill-rule="evenodd" stroke="none"/>
      <path d="M32.15 26.7 L31.5 26.85 Q31.15 27.1 31.3 27.25 L31.65 27.3 32.1 27.05 32.3 26.85 32.15 26.7" fill="#ffd4a1" fill-rule="evenodd" stroke="none"/>
      <path d="M30.55 27.55 Q29.85 27.6 30.45 28.35 L30.75 28.4 31.05 28.05 30.95 27.7 Q30.8 27.5 30.55 27.55" fill="#ffd4a1" fill-rule="evenodd" stroke="none"/>
      <path d="M32.6 24.75 L32.25 24.45 32.35 24.6 32.55 25.1 32.7 25.35 32.8 25.1 32.6 24.75" fill="#ffd4a1" fill-rule="evenodd" stroke="none"/>
      <path d="M28.5 22.05 L27.75 22.0 26.75 21.75 Q26.15 21.6 26.85 22.5 L27.75 22.65 28.8 22.45 Q29.2 22.35 28.95 22.1 L28.5 22.05" fill="#ffd4a1" fill-rule="evenodd" stroke="none"/>
      <path d="M26.55 20.5 Q26.35 20.55 26.45 20.8 26.55 21.05 26.8 20.9 L26.85 20.6 26.55 20.5" fill="#ffd4a1" fill-rule="evenodd" stroke="none"/>
      <path d="M24.35 18.15 Q24.05 18.15 24.25 18.3 L24.6 18.55 25.05 18.7 25.35 18.65 24.95 18.4 24.35 18.15" fill="#ffd4a1" fill-rule="evenodd" stroke="none"/>
      <path d="M21.4 12.9 L21.3 15.75 28.8 21.45 37.05 27.5 39.75 22.95 39.2 19.4 36.0 17.45 Q32.45 15.45 31.05 15.35 28.8 15.15 21.4 12.9" fill="url(#gradient30)" fill-rule="evenodd" stroke="none"/>
      <path d="M22.1 13.35 L22.05 16.3 28.8 21.45 36.1 26.85 36.4 23.55 36.15 21.65 38.55 18.95 Q32.9 15.5 31.05 15.35 L23.15 13.45 22.1 13.35" fill="#e6b95e" fill-rule="evenodd" stroke="none"/>
      <path d="M36.75 15.35 L37.35 21.85 37.05 27.5 43.9 24.75 Q48.3 22.85 50.55 20.4 L51.9 18.4 52.35 16.8 Q52.6 15.5 52.4 14.0 L36.75 15.35" fill="url(#gradient31)" fill-rule="evenodd" stroke="none"/>
      <path d="M36.4 23.55 L37.15 24.0 41.8 22.65 Q47.1 20.8 50.4 18.15 52.65 16.35 52.4 13.95 52.1 11.15 48.0 9.9 42.85 8.25 38.4 8.75 L30.15 10.6 21.4 12.9 32.05 19.15 36.4 23.55" fill="#c98000" fill-rule="evenodd" stroke="none"/>
      <path d="M29.4 18.25 Q33.45 21.05 36.4 23.55 39.95 22.85 42.9 21.4 47.15 19.25 49.15 17.7 52.15 15.25 51.0 13.4 48.9 9.75 40.8 9.15 37.85 9.0 29.7 11.15 L22.1 13.35 29.4 18.25" fill="#ffd875" fill-rule="evenodd" stroke="none"/>
      <path d="M39.55 18.2 Q37.55 18.25 36.9 18.75 36.25 19.2 36.85 19.65 38.4 21.1 41.35 19.9 42.05 19.6 41.15 18.9 40.25 18.2 39.55 18.2" fill="url(#gradient32)" fill-rule="evenodd" stroke="none"/>
      <path d="M44.45 15.6 Q42.3 15.65 43.2 16.35 44.2 17.15 45.15 16.8 45.9 16.5 45.45 16.05 45.1 15.6 44.45 15.6" fill="url(#gradient33)" fill-rule="evenodd" stroke="none"/>
      <path d="M38.0 11.4 Q35.5 11.4 35.25 12.05 34.95 12.75 36.65 13.1 39.15 13.7 40.25 12.3 40.8 11.5 38.0 11.4" fill="url(#gradient34)" fill-rule="evenodd" stroke="none"/>
      <path d="M33.45 11.6 Q32.6 11.7 32.85 12.0 33.05 12.4 33.85 12.3 34.55 12.25 34.35 11.9 34.15 11.55 33.45 11.6" fill="url(#gradient35)" fill-rule="evenodd" stroke="none"/>
      <path d="M28.8 11.8 Q27.9 11.85 27.5 12.15 27.15 12.45 27.5 12.65 L28.55 12.9 30.0 12.75 Q30.65 12.45 30.15 12.15 29.65 11.75 28.8 11.8" fill="url(#gradient36)" fill-rule="evenodd" stroke="none"/>
      <path d="M31.95 15.1 Q30.5 15.0 30.55 15.5 L31.45 16.2 32.55 16.4 33.65 16.05 Q34.25 15.75 33.55 15.45 L31.95 15.1" fill="url(#gradient37)" fill-rule="evenodd" stroke="none"/>
      <path d="M38.95 14.4 Q38.1 14.45 38.05 14.95 L38.35 15.75 41.2 15.85 Q42.45 15.6 41.45 15.0 40.5 14.4 38.95 14.4" fill="url(#gradient38)" fill-rule="evenodd" stroke="none"/>
      <path d="M34.8 23.6 Q34.8 22.9 34.2 22.25 33.55 21.6 33.1 21.9 32.6 22.25 32.65 23.0 32.7 23.7 33.15 24.3 33.6 24.85 34.15 24.75 34.75 24.6 34.8 23.6" fill="url(#gradient39)" fill-rule="evenodd" stroke="none"/>
      <path d="M31.65 20.4 Q31.1 20.4 31.3 21.2 31.5 22.05 31.95 21.85 32.4 21.65 32.1 21.0 L31.65 20.4" fill="url(#gradient40)" fill-rule="evenodd" stroke="none"/>
      <path d="M25.3 16.3 Q23.85 16.2 24.4 17.0 24.9 17.85 25.85 17.95 26.65 18.0 26.3 17.2 26.0 16.35 25.3 16.3" fill="url(#gradient41)" fill-rule="evenodd" stroke="none"/>
      <path d="M28.8 21.45 L29.1 20.6 Q29.25 19.7 28.65 19.4 28.05 19.1 27.7 19.7 L27.45 20.35 28.8 21.45" fill="url(#gradient42)" fill-rule="evenodd" stroke="none"/>
      <path d="M23.4 14.7 Q22.65 14.7 22.9 15.25 L23.65 15.75 Q24.05 15.7 23.85 15.2 23.7 14.7 23.4 14.7" fill="url(#gradient43)" fill-rule="evenodd" stroke="none"/>
    </g>
    <linearGradient gradientTransform="matrix(-1.0E-4, 0.0014, -0.0014, -1.0E-4, 34.05, 31.75)" gradientUnits="userSpaceOnUse" id="gradient24" spreadMethod="pad" x1="-819.2" x2="819.2">
      <stop offset="0.0" stop-color="#b5882f"/>
      <stop offset="1.0" stop-color="#e6b95e"/>
    </linearGradient>
    <linearGradient gradientTransform="matrix(-1.0E-4, 9.0E-4, -9.0E-4, -1.0E-4, 32.2, 29.85)" gradientUnits="userSpaceOnUse" id="gradient25" spreadMethod="pad" x1="-819.2" x2="819.2">
      <stop offset="0.0" stop-color="#b5882f"/>
      <stop offset="1.0" stop-color="#e6b95e"/>
    </linearGradient>
    <linearGradient gradientTransform="matrix(-1.0E-4, 0.0012, -0.0012, -1.0E-4, 28.5, 27.45)" gradientUnits="userSpaceOnUse" id="gradient26" spreadMethod="pad" x1="-819.2" x2="819.2">
      <stop offset="0.0" stop-color="#b5882f"/>
      <stop offset="1.0" stop-color="#e6b95e"/>
    </linearGradient>
    <linearGradient gradientTransform="matrix(-1.0E-4, 9.0E-4, -9.0E-4, -1.0E-4, 25.6, 24.85)" gradientUnits="userSpaceOnUse" id="gradient27" spreadMethod="pad" x1="-819.2" x2="819.2">
      <stop offset="0.0" stop-color="#b5882f"/>
      <stop offset="1.0" stop-color="#e6b95e"/>
    </linearGradient>
    <linearGradient gradientTransform="matrix(0.0, 5.0E-4, -5.0E-4, 0.0, 23.85, 23.6)" gradientUnits="userSpaceOnUse" id="gradient28" spreadMethod="pad" x1="-819.2" x2="819.2">
      <stop offset="0.0" stop-color="#b5882f"/>
      <stop offset="1.0" stop-color="#e6b95e"/>
    </linearGradient>
    <linearGradient gradientTransform="matrix(-1.0E-4, 7.0E-4, -7.0E-4, -1.0E-4, 22.5, 23.3)" gradientUnits="userSpaceOnUse" id="gradient29" spreadMethod="pad" x1="-819.2" x2="819.2">
      <stop offset="0.0" stop-color="#b5882f"/>
      <stop offset="1.0" stop-color="#e6b95e"/>
    </linearGradient>
    <linearGradient gradientTransform="matrix(-0.0113, 0.0, 0.0, -0.0113, 30.55, 20.25)" gradientUnits="userSpaceOnUse" id="gradient30" spreadMethod="pad" x1="-819.2" x2="819.2">
      <stop offset="0.0" stop-color="#c4a04a"/>
      <stop offset="1.0" stop-color="#9c7832"/>
    </linearGradient>
    <linearGradient gradientTransform="matrix(-0.0108, 0.0077, -0.0077, -0.0108, 45.4, 16.8)" gradientUnits="userSpaceOnUse" id="gradient31" spreadMethod="pad" x1="-819.2" x2="819.2">
      <stop offset="0.0" stop-color="#fdcb53"/>
      <stop offset="1.0" stop-color="#d48801"/>
    </linearGradient>
    <linearGradient gradientTransform="matrix(-0.0011, 0.0015, -0.0015, -0.0011, 39.0, 19.45)" gradientUnits="userSpaceOnUse" id="gradient32" spreadMethod="pad" x1="-819.2" x2="819.2">
      <stop offset="0.0" stop-color="#e6b95e"/>
      <stop offset="1.0" stop-color="#ffd875"/>
    </linearGradient>
    <linearGradient gradientTransform="matrix(-6.0E-4, 8.0E-4, -8.0E-4, -6.0E-4, 44.25, 16.2)" gradientUnits="userSpaceOnUse" id="gradient33" spreadMethod="pad" x1="-819.2" x2="819.2">
      <stop offset="0.0" stop-color="#e6b95e"/>
      <stop offset="1.0" stop-color="#ffd875"/>
    </linearGradient>
    <linearGradient gradientTransform="matrix(-0.0031, 0.0, 0.0, -0.0031, 37.8, 12.35)" gradientUnits="userSpaceOnUse" id="gradient34" spreadMethod="pad" x1="-819.2" x2="819.2">
      <stop offset="0.0" stop-color="#e6b95e"/>
      <stop offset="1.0" stop-color="#ffd875"/>
    </linearGradient>
    <linearGradient gradientTransform="matrix(-4.0E-4, 5.0E-4, -5.0E-4, -4.0E-4, 33.6, 12.0)" gradientUnits="userSpaceOnUse" id="gradient35" spreadMethod="pad" x1="-819.2" x2="819.2">
      <stop offset="0.0" stop-color="#e6b95e"/>
      <stop offset="1.0" stop-color="#ffd875"/>
    </linearGradient>
    <linearGradient gradientTransform="matrix(-7.0E-4, 9.0E-4, -9.0E-4, -7.0E-4, 28.8, 12.45)" gradientUnits="userSpaceOnUse" id="gradient36" spreadMethod="pad" x1="-819.2" x2="819.2">
      <stop offset="0.0" stop-color="#e6b95e"/>
      <stop offset="1.0" stop-color="#ffd875"/>
    </linearGradient>
    <linearGradient gradientTransform="matrix(-7.0E-4, 0.001, -0.001, -7.0E-4, 32.15, 15.7)" gradientUnits="userSpaceOnUse" id="gradient37" spreadMethod="pad" x1="-819.2" x2="819.2">
      <stop offset="0.0" stop-color="#e6b95e"/>
      <stop offset="1.0" stop-color="#ffd875"/>
    </linearGradient>
    <linearGradient gradientTransform="matrix(-9.0E-4, 0.0012, -0.0012, -9.0E-4, 39.75, 15.4)" gradientUnits="userSpaceOnUse" id="gradient38" spreadMethod="pad" x1="-819.2" x2="819.2">
      <stop offset="0.0" stop-color="#e6b95e"/>
      <stop offset="1.0" stop-color="#ffd875"/>
    </linearGradient>
    <linearGradient gradientTransform="matrix(-1.0E-4, 0.0014, -0.0014, -1.0E-4, 33.7, 23.4)" gradientUnits="userSpaceOnUse" id="gradient39" spreadMethod="pad" x1="-819.2" x2="819.2">
      <stop offset="0.0" stop-color="#b5882f"/>
      <stop offset="1.0" stop-color="#e6b95e"/>
    </linearGradient>
    <linearGradient gradientTransform="matrix(-1.0E-4, 7.0E-4, -7.0E-4, -1.0E-4, 31.75, 21.2)" gradientUnits="userSpaceOnUse" id="gradient40" spreadMethod="pad" x1="-819.2" x2="819.2">
      <stop offset="0.0" stop-color="#b5882f"/>
      <stop offset="1.0" stop-color="#e6b95e"/>
    </linearGradient>
    <linearGradient gradientTransform="matrix(-1.0E-4, 8.0E-4, -8.0E-4, -1.0E-4, 25.35, 17.15)" gradientUnits="userSpaceOnUse" id="gradient41" spreadMethod="pad" x1="-819.2" x2="819.2">
      <stop offset="0.0" stop-color="#b5882f"/>
      <stop offset="1.0" stop-color="#e6b95e"/>
    </linearGradient>
    <linearGradient gradientTransform="matrix(-1.0E-4, 0.0011, -0.0011, -1.0E-4, 28.25, 20.45)" gradientUnits="userSpaceOnUse" id="gradient42" spreadMethod="pad" x1="-819.2" x2="819.2">
      <stop offset="0.0" stop-color="#b5882f"/>
      <stop offset="1.0" stop-color="#e6b95e"/>
    </linearGradient>
    <linearGradient gradientTransform="matrix(0.0, 5.0E-4, -5.0E-4, 0.0, 23.4, 15.25)" gradientUnits="userSpaceOnUse" id="gradient43" spreadMethod="pad" x1="-819.2" x2="819.2">
      <stop offset="0.0" stop-color="#b5882f"/>
      <stop offset="1.0" stop-color="#e6b95e"/>
    </linearGradient>
  </defs>
</svg>
