<?xml version="1.0" encoding="UTF-8" standalone="no"?>
<svg xmlns:xlink="http://www.w3.org/1999/xlink" height="40.0px" width="46.85px" xmlns="http://www.w3.org/2000/svg">
  <g transform="matrix(1.0, 0.0, 0.0, 1.0, 0.0, 0.0)">
    <use height="20.3" transform="matrix(1.0, 0.0, 0.0, 1.0, -0.95, 24.8)" width="52.45" xlink:href="#shape0"/>
  </g>
  <defs>
    <g id="shape0" transform="matrix(1.0, 0.0, 0.0, 1.0, 0.95, -24.8)">
      <path d="M43.55 30.5 Q45.7 31.3 45.9 33.35 46.0 34.4 45.65 35.25 45.05 37.6 43.1 38.3 L41.25 38.5 Q40.3 38.25 38.85 37.4 L28.75 32.0 Q28.55 31.45 28.5 30.65 28.45 29.05 29.35 27.85 30.4 26.5 31.85 26.4 L33.1 26.6 33.5 26.7 43.55 30.5" fill="url(#gradient0)" fill-rule="evenodd" stroke="none"/>
      <path d="M33.95 27.45 Q32.5 28.05 31.75 29.85 31.15 31.4 31.2 33.3 L29.9 32.65 30.2 30.65 Q30.5 29.5 31.1 28.95 32.3 27.95 33.95 27.45" fill="url(#gradient1)" fill-rule="evenodd" stroke="none"/>
      <path d="M36.65 36.2 L36.85 35.4 36.85 35.6 Q37.1 34.4 38.0 33.15 38.8 32.0 39.7 31.45 L38.7 32.65 38.5 32.9 Q37.95 33.8 37.7 34.85 L37.1 36.45 36.65 36.2" fill="url(#gradient2)" fill-rule="evenodd" stroke="none"/>
      <path d="M39.75 30.7 Q37.8 32.1 37.35 33.15 L37.1 33.75 Q37.4 32.35 38.1 31.55 39.0 30.45 40.45 30.0 L40.95 29.9 Q40.5 30.1 39.75 30.7" fill="url(#gradient3)" fill-rule="evenodd" stroke="none"/>
      <path d="M30.25 29.1 Q29.8 29.85 29.45 30.9 L29.35 32.35 28.75 32.0 28.65 31.75 28.85 30.8 29.4 29.1 Q29.95 28.2 30.8 27.65 31.75 27.0 32.7 27.2 31.25 27.15 30.25 29.1" fill="url(#gradient4)" fill-rule="evenodd" stroke="none"/>
      <path d="M40.6 34.9 Q40.2 35.85 40.2 36.8 L40.35 38.15 38.85 37.4 38.6 37.25 38.95 36.25 Q39.6 35.2 40.6 34.9" fill="url(#gradient5)" fill-rule="evenodd" stroke="none"/>
      <path d="M37.7 34.85 L38.7 32.65 Q39.45 31.8 41.2 31.05 L40.95 31.25 Q39.3 32.65 38.55 35.35 L38.1 37.0 37.35 36.55 37.7 34.85" fill="url(#gradient6)" fill-rule="evenodd" stroke="none"/>
      <path d="M32.05 30.65 Q31.6 31.7 31.4 33.4 L31.35 33.4 31.55 32.25 Q31.7 30.95 32.05 30.65" fill="url(#gradient7)" fill-rule="evenodd" stroke="none"/>
      <path d="M35.5 28.55 L36.55 28.6 37.1 28.6 36.2 28.9 35.15 29.4 Q33.75 29.75 33.2 30.5 L32.8 31.55 32.6 32.65 32.45 33.95 31.5 33.45 Q32.5 29.2 35.5 28.55" fill="url(#gradient8)" fill-rule="evenodd" stroke="none"/>
      <path d="M30.05 29.85 L29.7 31.7 29.8 32.6 29.35 32.35 30.05 29.85" fill="url(#gradient9)" fill-rule="evenodd" stroke="none"/>
      <path d="M35.6 31.65 Q36.15 30.2 36.65 30.5 L35.6 31.65" fill="url(#gradient10)" fill-rule="evenodd" stroke="none"/>
      <path d="M38.65 29.4 L39.2 29.1 Q38.55 29.65 37.45 31.65 37.15 32.3 37.0 33.45 L36.75 35.25 36.6 36.15 35.85 35.75 36.2 33.55 Q36.4 32.2 36.9 31.45 38.05 29.8 38.65 29.4" fill="url(#gradient11)" fill-rule="evenodd" stroke="none"/>
      <path d="M35.6 31.65 L35.35 32.85 Q35.15 34.15 35.45 35.55 L34.25 34.9 34.55 33.25 Q34.65 32.6 35.6 31.65" fill="url(#gradient12)" fill-rule="evenodd" stroke="none"/>
      <path d="M40.85 35.4 Q41.05 33.75 42.4 32.75 43.6 31.8 45.3 31.75 46.4 33.3 45.65 35.25 44.85 38.25 42.1 38.5 40.55 37.45 40.85 35.4" fill="#878678" fill-rule="evenodd" stroke="none"/>
      <path d="M42.5 35.5 Q42.6 34.7 43.25 34.25 43.8 33.8 44.6 33.75 45.15 34.5 44.8 35.45 44.4 36.85 43.1 37.0 42.35 36.5 42.5 35.5" fill="#59594f" fill-rule="evenodd" stroke="none"/>
      <path d="M32.35 39.0 Q31.35 35.8 32.15 33.75 32.95 31.65 35.65 31.05 38.15 30.5 40.2 32.1 41.8 33.4 42.95 35.9 44.1 38.4 43.25 41.35 42.25 44.65 39.3 45.05 36.35 45.4 34.65 43.65 33.4 42.35 32.35 39.0" fill="url(#gradient13)" fill-rule="evenodd" stroke="none"/>
      <path d="M32.4 39.5 Q31.6 36.85 32.25 35.2 32.9 33.45 35.05 32.95 38.8 32.1 40.95 36.9 41.85 38.95 41.15 41.4 40.4 44.15 38.0 44.4 35.6 44.7 34.25 43.3 33.25 42.2 32.4 39.5" fill="url(#gradient14)" fill-rule="evenodd" stroke="none"/>
      <path d="M34.5 39.45 Q33.75 36.95 35.7 36.5 37.35 36.2 38.35 38.3 38.75 39.2 38.45 40.3 38.05 41.5 37.0 41.65 35.95 41.8 35.35 41.15 34.9 40.7 34.5 39.45" fill="url(#gradient15)" fill-rule="evenodd" stroke="none"/>
      <path d="M25.1 44.8 L23.75 45.0 Q22.25 44.9 21.6 43.1 21.1 41.75 21.85 40.45 L22.7 39.45 34.95 36.6 36.15 36.65 Q37.1 36.85 37.5 37.8 L37.75 39.55 Q37.6 40.4 37.0 40.7 L25.1 44.8" fill="url(#gradient16)" fill-rule="evenodd" stroke="none"/>
      <path d="M25.2 41.55 Q26.0 43.5 24.9 44.85 L24.35 45.0 Q25.5 43.7 24.75 41.8 24.2 40.4 23.4 39.8 L22.7 39.45 23.5 39.25 Q24.55 39.85 25.2 41.55" fill="url(#gradient17)" fill-rule="evenodd" stroke="none"/>
      <path d="M24.75 41.8 Q25.5 43.7 24.35 45.0 22.35 45.25 21.6 43.1 21.1 41.75 21.85 40.45 L22.7 39.45 23.4 39.8 Q24.2 40.4 24.75 41.8" fill="url(#gradient18)" fill-rule="evenodd" stroke="none"/>
      <path d="M24.75 41.8 Q25.5 43.7 24.35 45.0 22.35 45.25 21.6 43.1 21.1 41.75 21.85 40.45 L22.7 39.45 23.4 39.8 Q24.2 40.4 24.75 41.8" fill="url(#gradient19)" fill-rule="evenodd" stroke="none"/>
      <path d="M26.0 27.75 Q25.85 29.75 25.2 30.2 L7.75 27.2 Q-1.0 25.6 -0.95 25.1 L5.05 24.95 15.2 25.7 25.75 26.5 26.0 27.75" fill="url(#gradient20)" fill-rule="evenodd" stroke="none"/>
      <path d="M24.15 28.6 Q24.05 27.45 24.9 26.85 25.3 26.55 25.75 26.5 27.1 27.35 26.3 28.95 L25.2 30.2 Q24.25 29.75 24.15 28.6" fill="#9e9e9e" fill-rule="evenodd" stroke="none"/>
      <path d="M14.3 30.75 L16.8 31.1 Q16.8 31.85 16.4 32.5 15.9 33.25 15.1 33.1 14.45 32.95 14.35 32.15 L14.3 30.75" fill="#a7aaab" fill-rule="evenodd" stroke="none"/>
      <path d="M24.0 30.45 Q24.3 30.6 24.1 31.15 L23.65 31.8 22.65 32.0 21.65 31.95 20.8 32.0 20.0 31.75 Q19.9 31.55 20.1 31.0 L20.15 30.25 24.0 30.45" fill="#a7aaab" fill-rule="evenodd" stroke="none"/>
      <path d="M23.5 33.1 L24.3 33.95 Q24.45 34.6 24.15 34.8 L23.3 34.75 Q23.05 34.5 23.15 33.9 L23.5 33.1" fill="#a7aaab" fill-rule="evenodd" stroke="none"/>
      <path d="M25.65 35.95 L29.3 36.1 28.95 36.7 28.5 37.1 27.7 37.15 26.85 37.1 Q25.65 37.1 25.5 36.75 25.45 36.6 25.55 36.35 L25.65 35.95" fill="#a7aaab" fill-rule="evenodd" stroke="none"/>
      <path d="M45.8 36.1 L50.0 38.25 Q49.65 38.8 48.15 38.65 L46.15 38.15 Q45.35 37.8 45.3 37.3 45.3 36.9 45.8 36.1" fill="#a7aaab" fill-rule="evenodd" stroke="none"/>
      <path d="M49.0 35.45 L50.8 36.1 Q50.7 36.55 49.85 36.5 L48.7 36.25 Q48.35 35.45 49.0 35.45" fill="#a7aaab" fill-rule="evenodd" stroke="none"/>
      <path d="M48.0 32.45 L50.65 33.6 49.15 33.9 Q47.95 33.85 47.7 33.45 L47.65 32.45 48.0 32.45" fill="#a7aaab" fill-rule="evenodd" stroke="none"/>
      <path d="M27.0 25.45 L29.0 25.6 Q29.05 26.2 28.65 26.25 L27.85 26.1 27.0 26.05 Q26.5 25.95 26.65 25.45 L27.0 25.45" fill="#a7aaab" fill-rule="evenodd" stroke="none"/>
      <path d="M22.15 31.45 L20.85 31.25 Q20.1 30.95 20.35 30.3 L22.2 29.95 Q23.35 29.8 23.65 30.75 L22.15 31.45" fill="#d9dcde" fill-rule="evenodd" stroke="none"/>
      <path d="M23.65 32.75 L24.8 33.1 Q24.7 33.55 24.2 33.75 L23.35 33.6 Q23.2 33.35 23.3 33.1 23.4 32.8 23.65 32.75" fill="#d9dcde" fill-rule="evenodd" stroke="none"/>
      <path d="M16.8 30.75 L16.5 31.45 Q16.4 32.0 15.3 31.8 14.25 31.6 14.5 30.95 L16.8 30.75" fill="#d9dcde" fill-rule="evenodd" stroke="none"/>
      <path d="M28.3 34.75 L30.3 35.75 Q29.75 36.6 28.05 36.55 26.3 36.5 25.8 35.65 L27.1 35.3 Q27.9 35.1 28.3 34.75" fill="#d9dcde" fill-rule="evenodd" stroke="none"/>
      <path d="M49.3 37.6 L49.5 38.1 Q48.6 38.9 46.2 37.1 45.4 36.5 45.75 35.5 L49.3 37.6" fill="#d9dcde" fill-rule="evenodd" stroke="none"/>
      <path d="M50.0 35.1 L51.5 35.6 50.2 35.8 Q49.05 35.8 49.0 35.45 48.95 35.1 49.35 35.05 L50.0 35.1" fill="#d9dcde" fill-rule="evenodd" stroke="none"/>
      <path d="M50.0 32.45 L50.5 33.1 48.75 33.3 Q47.55 33.1 47.85 32.3 L50.0 32.45" fill="#d9dcde" fill-rule="evenodd" stroke="none"/>
      <path d="M27.5 25.45 L29.8 25.25 Q30.05 26.1 28.55 26.1 27.05 26.05 27.15 25.45 L27.5 25.45" fill="#d9dcde" fill-rule="evenodd" stroke="none"/>
    </g>
    <linearGradient gradientTransform="matrix(-0.0021, 0.0048, 0.0042, 0.0019, 36.9, 32.8)" gradientUnits="userSpaceOnUse" id="gradient0" spreadMethod="pad" x1="-819.2" x2="819.2">
      <stop offset="0.0" stop-color="#d4d0b1"/>
      <stop offset="0.27450980392156865" stop-color="#e2e3cd"/>
      <stop offset="0.7490196078431373" stop-color="#9a998d"/>
      <stop offset="1.0" stop-color="#72706a"/>
    </linearGradient>
    <linearGradient gradientTransform="matrix(-0.0023, 0.0044, 0.0044, 0.0023, 31.8, 29.7)" gradientUnits="userSpaceOnUse" id="gradient1" spreadMethod="pad" x1="-819.2" x2="819.2">
      <stop offset="0.0" stop-color="#6d6b5a"/>
      <stop offset="0.27450980392156865" stop-color="#aaab99"/>
      <stop offset="1.0" stop-color="#726f64"/>
    </linearGradient>
    <linearGradient gradientTransform="matrix(-0.0023, 0.0044, 0.0044, 0.0023, 38.4, 33.1)" gradientUnits="userSpaceOnUse" id="gradient2" spreadMethod="pad" x1="-819.2" x2="819.2">
      <stop offset="0.0" stop-color="#6d6b5a"/>
      <stop offset="0.27450980392156865" stop-color="#aaab99"/>
      <stop offset="1.0" stop-color="#726f64"/>
    </linearGradient>
    <linearGradient gradientTransform="matrix(-0.0023, 0.0044, 0.0044, 0.0023, 38.3, 33.05)" gradientUnits="userSpaceOnUse" id="gradient3" spreadMethod="pad" x1="-819.2" x2="819.2">
      <stop offset="0.0" stop-color="#6d6b5a"/>
      <stop offset="0.27450980392156865" stop-color="#aaab99"/>
      <stop offset="1.0" stop-color="#726f64"/>
    </linearGradient>
    <linearGradient gradientTransform="matrix(-0.0023, 0.0044, 0.0044, 0.0023, 30.55, 29.1)" gradientUnits="userSpaceOnUse" id="gradient4" spreadMethod="pad" x1="-819.2" x2="819.2">
      <stop offset="0.0" stop-color="#6d6b5a"/>
      <stop offset="0.27450980392156865" stop-color="#aaab99"/>
      <stop offset="1.0" stop-color="#726f64"/>
    </linearGradient>
    <linearGradient gradientTransform="matrix(-0.0023, 0.0044, 0.0044, 0.0023, 41.05, 34.45)" gradientUnits="userSpaceOnUse" id="gradient5" spreadMethod="pad" x1="-819.2" x2="819.2">
      <stop offset="0.0" stop-color="#6d6b5a"/>
      <stop offset="0.27450980392156865" stop-color="#aaab99"/>
      <stop offset="1.0" stop-color="#726f64"/>
    </linearGradient>
    <linearGradient gradientTransform="matrix(-0.0023, 0.0044, 0.0044, 0.0023, 39.1, 33.45)" gradientUnits="userSpaceOnUse" id="gradient6" spreadMethod="pad" x1="-819.2" x2="819.2">
      <stop offset="0.0" stop-color="#6d6b5a"/>
      <stop offset="0.27450980392156865" stop-color="#aaab99"/>
      <stop offset="1.0" stop-color="#726f64"/>
    </linearGradient>
    <linearGradient gradientTransform="matrix(-0.0023, 0.0044, 0.0044, 0.0023, 32.65, 30.15)" gradientUnits="userSpaceOnUse" id="gradient7" spreadMethod="pad" x1="-819.2" x2="819.2">
      <stop offset="0.0" stop-color="#6d6b5a"/>
      <stop offset="0.27450980392156865" stop-color="#aaab99"/>
      <stop offset="1.0" stop-color="#726f64"/>
    </linearGradient>
    <linearGradient gradientTransform="matrix(-0.0023, 0.0044, 0.0044, 0.0023, 34.25, 31.0)" gradientUnits="userSpaceOnUse" id="gradient8" spreadMethod="pad" x1="-819.2" x2="819.2">
      <stop offset="0.0" stop-color="#6d6b5a"/>
      <stop offset="0.27450980392156865" stop-color="#aaab99"/>
      <stop offset="1.0" stop-color="#726f64"/>
    </linearGradient>
    <linearGradient gradientTransform="matrix(-0.0023, 0.0044, 0.0044, 0.0023, 30.9, 29.25)" gradientUnits="userSpaceOnUse" id="gradient9" spreadMethod="pad" x1="-819.2" x2="819.2">
      <stop offset="0.0" stop-color="#6d6b5a"/>
      <stop offset="0.27450980392156865" stop-color="#aaab99"/>
      <stop offset="1.0" stop-color="#726f64"/>
    </linearGradient>
    <linearGradient gradientTransform="matrix(-0.0023, 0.0044, 0.0044, 0.0023, 35.75, 31.75)" gradientUnits="userSpaceOnUse" id="gradient10" spreadMethod="pad" x1="-819.2" x2="819.2">
      <stop offset="0.0" stop-color="#6d6b5a"/>
      <stop offset="0.27450980392156865" stop-color="#aaab99"/>
      <stop offset="1.0" stop-color="#726f64"/>
    </linearGradient>
    <linearGradient gradientTransform="matrix(-0.0023, 0.0044, 0.0044, 0.0023, 37.35, 32.55)" gradientUnits="userSpaceOnUse" id="gradient11" spreadMethod="pad" x1="-819.2" x2="819.2">
      <stop offset="0.0" stop-color="#6d6b5a"/>
      <stop offset="0.27450980392156865" stop-color="#aaab99"/>
      <stop offset="1.0" stop-color="#726f64"/>
    </linearGradient>
    <linearGradient gradientTransform="matrix(-0.0023, 0.0044, 0.0044, 0.0023, 36.2, 31.95)" gradientUnits="userSpaceOnUse" id="gradient12" spreadMethod="pad" x1="-819.2" x2="819.2">
      <stop offset="0.0" stop-color="#6d6b5a"/>
      <stop offset="0.27450980392156865" stop-color="#aaab99"/>
      <stop offset="1.0" stop-color="#726f64"/>
    </linearGradient>
    <linearGradient gradientTransform="matrix(0.0017, -0.0066, 0.0066, 0.0017, 37.95, 38.45)" gradientUnits="userSpaceOnUse" id="gradient13" spreadMethod="pad" x1="-819.2" x2="819.2">
      <stop offset="0.0" stop-color="#2f3436"/>
      <stop offset="0.27450980392156865" stop-color="#50585c"/>
      <stop offset="0.3137254901960784" stop-color="#4a5155"/>
      <stop offset="0.49019607843137253" stop-color="#303538"/>
      <stop offset="0.6666666666666666" stop-color="#1e2123"/>
      <stop offset="0.8352941176470589" stop-color="#131516"/>
      <stop offset="1.0" stop-color="#0f1112"/>
    </linearGradient>
    <linearGradient gradientTransform="matrix(-8.0E-4, 0.0064, -0.0064, -8.0E-4, 36.8, 39.05)" gradientUnits="userSpaceOnUse" id="gradient14" spreadMethod="pad" x1="-819.2" x2="819.2">
      <stop offset="0.0" stop-color="#2f3436"/>
      <stop offset="1.0" stop-color="#0f1112"/>
    </linearGradient>
    <linearGradient gradientTransform="matrix(-4.0E-4, 0.0028, -0.0028, -4.0E-4, 36.5, 39.25)" gradientUnits="userSpaceOnUse" id="gradient15" spreadMethod="pad" x1="-819.2" x2="819.2">
      <stop offset="0.0" stop-color="#121314"/>
      <stop offset="1.0" stop-color="#0f1112"/>
    </linearGradient>
    <linearGradient gradientTransform="matrix(7.0E-4, -0.0027, 0.0027, 7.0E-4, 29.65, 40.85)" gradientUnits="userSpaceOnUse" id="gradient16" spreadMethod="pad" x1="-819.2" x2="819.2">
      <stop offset="0.0" stop-color="#2f3436"/>
      <stop offset="0.27450980392156865" stop-color="#50585c"/>
      <stop offset="0.3137254901960784" stop-color="#4a5155"/>
      <stop offset="0.49019607843137253" stop-color="#303538"/>
      <stop offset="0.6666666666666666" stop-color="#1e2123"/>
      <stop offset="0.8352941176470589" stop-color="#131516"/>
      <stop offset="1.0" stop-color="#0f1112"/>
    </linearGradient>
    <linearGradient gradientTransform="matrix(8.0E-4, -0.0031, 0.0031, 8.0E-4, 24.4, 42.25)" gradientUnits="userSpaceOnUse" id="gradient17" spreadMethod="pad" x1="-819.2" x2="819.2">
      <stop offset="0.0" stop-color="#717b82"/>
      <stop offset="1.0" stop-color="#0f1112"/>
    </linearGradient>
    <linearGradient gradientTransform="matrix(8.0E-4, -0.0031, 0.0031, 8.0E-4, 23.2, 42.6)" gradientUnits="userSpaceOnUse" id="gradient18" spreadMethod="pad" x1="-819.2" x2="819.2">
      <stop offset="0.0" stop-color="#717b82"/>
      <stop offset="1.0" stop-color="#0f1112"/>
    </linearGradient>
    <linearGradient gradientTransform="matrix(8.0E-4, -0.0029, 0.0029, 8.0E-4, 23.2, 42.65)" gradientUnits="userSpaceOnUse" id="gradient19" spreadMethod="pad" x1="-819.2" x2="819.2">
      <stop offset="0.0" stop-color="#242729"/>
      <stop offset="1.0" stop-color="#0f1112"/>
    </linearGradient>
    <linearGradient gradientTransform="matrix(-7.0E-4, 0.0041, 0.0041, 7.0E-4, 12.35, 27.55)" gradientUnits="userSpaceOnUse" id="gradient20" spreadMethod="pad" x1="-819.2" x2="819.2">
      <stop offset="0.0" stop-color="#8a9396"/>
      <stop offset="0.27450980392156865" stop-color="#dee1e3"/>
      <stop offset="0.2784313725490196" stop-color="#dbdfe1"/>
      <stop offset="0.35294117647058826" stop-color="#aeb1b3"/>
      <stop offset="0.4235294117647059" stop-color="#898c8d"/>
      <stop offset="0.4980392156862745" stop-color="#6c6f70"/>
      <stop offset="0.5686274509803921" stop-color="#575a5b"/>
      <stop offset="0.6392156862745098" stop-color="#4b4e4e"/>
      <stop offset="0.7058823529411765" stop-color="#474a4a"/>
    </linearGradient>
  </defs>
</svg>
