<?xml version="1.0" encoding="UTF-8" standalone="no"?>
<svg xmlns:xlink="http://www.w3.org/1999/xlink" height="40.0px" width="46.85px" xmlns="http://www.w3.org/2000/svg">
  <g transform="matrix(1.0, 0.0, 0.0, 1.0, 0.0, 0.0)">
    <use height="29.25" transform="matrix(0.9986, 0.0484, -0.0484, 0.9986, 8.6117, 2.0149)" width="30.3" xlink:href="#shape0"/>
    <use height="22.6" transform="matrix(1.0252, -0.0137, -0.1364, 0.9992, 18.1, 12.75)" width="22.15" xlink:href="#shape1"/>
    <use height="21.35" transform="matrix(1.0252, -0.0137, -0.1364, 0.9992, 17.5006, 20.1387)" width="20.45" xlink:href="#morphshape0"/>
    <use height="18.45" transform="matrix(1.0252, -0.0137, -0.1364, 0.9992, 17.4737, 9.467)" width="24.4" xlink:href="#morphshape1"/>
    <use height="17.9" transform="matrix(1.0252, -0.0137, -0.1364, 0.9992, 18.4313, 12.197)" width="20.7" xlink:href="#morphshape2"/>
    <use height="14.25" transform="matrix(0.9984, -0.0185, -0.063, 1.0211, 25.7897, 22.093)" width="15.1" xlink:href="#shape2"/>
    <use height="15.3" transform="matrix(0.9958, 0.0877, -0.0877, 0.9958, 32.1281, 28.1713)" width="14.6" xlink:href="#shape3"/>
  </g>
  <defs>
    <g id="shape0" transform="matrix(1.0, 0.0, 0.0, 1.0, -0.3, 0.25)">
      <path d="M0.3 -0.2 Q0.7 -0.65 5.65 3.65 L14.0 11.0 30.6 25.8 26.75 29.0 10.15 11.3 Q-0.15 0.3 0.3 -0.2" fill="url(#gradient0)" fill-rule="evenodd" stroke="none"/>
    </g>
    <linearGradient gradientTransform="matrix(-0.002, 0.0021, 0.0022, 0.0021, 14.25, 14.1)" gradientUnits="userSpaceOnUse" id="gradient0" spreadMethod="pad" x1="-819.2" x2="819.2">
      <stop offset="0.0" stop-color="#8a9396"/>
      <stop offset="0.27450980392156865" stop-color="#dee1e3"/>
      <stop offset="0.2784313725490196" stop-color="#dbdfe1"/>
      <stop offset="0.35294117647058826" stop-color="#aeb1b3"/>
      <stop offset="0.4235294117647059" stop-color="#898c8d"/>
      <stop offset="0.4980392156862745" stop-color="#6c6f70"/>
      <stop offset="0.5686274509803921" stop-color="#575a5b"/>
      <stop offset="0.6392156862745098" stop-color="#4b4e4e"/>
      <stop offset="0.7058823529411765" stop-color="#474a4a"/>
    </linearGradient>
    <g id="shape1" transform="matrix(1.0, 0.0, 0.0, 1.0, 0.0, 0.0)">
      <path d="M3.7 0.1 Q5.0 -0.2 6.7 0.45 L8.05 1.35 8.1 1.45 7.25 1.3 7.55 1.25 5.35 0.85 Q4.55 0.55 3.25 1.3 3.55 1.1 3.2 0.95 3.2 0.45 3.7 0.1 M8.8 1.85 L9.4 2.25 18.35 10.6 16.45 10.4 12.75 11.6 15.0 10.5 Q15.85 9.85 13.2 10.9 L12.2 11.4 11.85 11.3 12.5 10.95 12.85 10.8 12.95 10.75 13.05 10.7 13.55 10.55 14.3 10.2 16.3 9.9 Q16.1 9.8 16.4 9.55 16.65 9.25 16.3 9.1 L15.2 9.15 14.5 9.1 Q14.5 8.8 13.9 8.2 14.15 7.45 14.0 7.15 13.9 6.8 13.2 6.8 L12.55 5.6 10.8 4.05 9.9 3.85 Q10.4 3.6 9.75 3.35 L8.85 3.05 8.7 2.4 Q9.0 2.1 8.8 1.85 M19.0 11.2 L21.9 13.9 21.95 14.25 21.8 13.85 19.6 11.8 19.0 11.2 M5.05 6.1 L5.1 6.05 5.65 5.75 Q6.2 5.4 6.65 5.15 L7.05 4.95 7.75 4.3 7.85 3.9 Q7.65 3.3 4.7 4.8 L5.1 3.85 5.1 3.8 Q5.75 3.5 6.5 3.35 6.1 3.6 5.8 3.95 L5.8 4.0 8.2 3.35 8.9 3.4 Q9.5 3.5 7.85 4.65 L8.45 4.6 Q7.6 4.85 7.0 5.6 L7.05 5.7 Q7.8 5.7 8.65 5.2 L9.35 4.9 9.7 4.85 Q10.25 5.2 10.45 6.1 L10.3 6.55 Q9.75 6.75 9.2 7.05 L9.15 6.95 9.25 6.5 7.35 7.55 7.85 6.7 8.55 6.55 Q10.0 6.35 8.7 5.95 L8.65 5.95 Q11.35 4.05 6.75 6.25 L5.05 6.1 M12.75 8.55 L12.55 8.65 12.45 8.8 12.15 8.9 Q12.5 8.6 12.75 8.55 M12.3 9.6 L12.6 9.5 12.65 9.5 Q12.5 9.75 12.9 9.75 13.8 9.25 13.6 9.55 L13.45 9.8 13.05 9.9 12.6 10.1 Q12.7 9.85 12.4 9.85 12.1 9.85 12.3 9.6 M12.65 7.3 L13.2 7.45 13.6 7.2 Q13.75 8.1 12.8 8.5 11.4 8.1 12.65 7.3 M12.6 7.25 Q10.4 7.85 11.25 7.35 12.15 6.85 8.8 8.4 L8.3 8.3 8.45 8.15 8.6 8.0 Q9.0 8.2 9.65 7.65 10.65 6.8 11.9 6.75 L12.3 6.95 12.6 7.25 M6.45 1.35 Q5.6 1.25 5.25 1.8 3.7 2.55 5.05 2.3 L4.75 2.4 4.4 2.6 4.05 2.25 Q4.1 1.6 5.7 1.25 L6.45 1.35 M4.45 3.15 L7.45 2.4 7.65 2.3 8.2 2.3 Q8.7 2.3 7.95 2.7 7.75 2.25 6.9 2.55 L5.85 2.8 5.0 3.15 Q4.75 3.25 4.55 3.45 L4.45 3.15" fill="#dcd1aa" fill-rule="evenodd" stroke="none"/>
      <path d="M0.2 3.75 Q0.35 3.0 1.0 1.95 L1.05 2.0 Q1.15 2.25 2.4 1.3 L2.2 1.75 0.55 4.0 0.3 4.55 0.55 3.7 0.25 4.1 0.2 3.75 M21.95 14.25 L21.85 14.4 22.15 16.3 22.0 16.05 20.55 13.95 Q19.4 12.15 18.85 13.95 18.3 15.7 17.45 15.25 L15.8 15.2 13.25 15.9 10.4 15.15 9.8 15.85 9.35 15.5 8.55 14.3 Q8.1 13.45 7.95 13.65 L7.0 13.75 6.8 12.15 Q6.6 12.95 6.15 12.55 5.65 12.15 5.7 11.85 L5.85 11.0 5.75 10.35 Q5.55 10.15 4.5 10.85 L4.6 9.35 Q4.5 7.9 3.95 8.45 L3.5 8.75 Q3.4 8.55 2.9 9.0 3.05 8.5 2.75 8.4 L2.65 8.1 2.5 7.8 Q2.3 7.7 2.6 6.55 1.7 7.7 1.55 7.05 1.35 6.5 1.05 7.05 0.6 6.85 1.15 4.7 L2.0 3.0 Q1.55 3.95 1.85 4.1 1.6 5.0 1.85 5.45 L2.25 4.8 Q2.95 3.95 4.0 3.7 4.65 4.2 3.65 4.65 L2.7 5.25 3.5 5.45 4.15 6.0 Q4.65 5.25 5.55 5.0 6.0 5.35 5.65 5.75 L5.1 6.05 5.05 6.1 4.65 6.4 4.4 6.7 4.55 7.5 4.9 7.9 5.2 7.7 Q5.35 7.65 5.45 7.85 L5.5 8.0 Q5.85 7.4 6.55 7.2 7.15 7.7 6.15 8.3 L5.9 8.55 5.85 8.65 6.15 8.5 5.6 9.35 7.05 8.55 6.85 8.85 6.9 9.0 7.4 8.9 6.65 10.4 Q7.7 9.85 7.7 10.1 L8.15 9.85 Q9.2 8.45 11.25 8.1 11.9 8.8 10.55 9.0 9.4 9.2 8.8 10.15 L8.6 10.5 Q7.65 12.6 8.2 12.6 L8.75 12.0 8.5 11.9 Q8.3 11.85 8.4 11.65 9.05 10.25 10.25 9.4 10.85 10.0 9.85 10.7 L9.5 11.2 9.4 11.5 Q9.55 11.4 9.6 11.6 9.75 12.05 8.9 13.15 L10.2 12.45 Q10.75 12.95 9.5 14.25 11.2 13.05 11.0 13.7 L10.9 13.95 Q11.25 13.2 13.3 13.55 15.35 13.85 15.55 13.2 15.75 12.55 16.4 12.25 17.0 11.95 18.2 11.8 19.35 11.6 19.6 11.8 L21.8 13.85 21.95 14.25 M10.75 11.9 L10.95 11.6 Q11.25 11.35 11.65 11.3 L11.75 11.4 Q12.4 11.9 11.05 11.95 L10.75 11.9 M7.25 1.3 L7.2 1.25 6.7 1.35 6.45 1.35 5.7 1.25 5.35 1.15 Q4.25 1.0 2.75 1.95 L3.1 1.35 3.25 1.3 Q4.55 0.55 5.35 0.85 L7.55 1.25 7.25 1.3" fill="#a0987a" fill-rule="evenodd" stroke="none"/>
      <path d="M22.15 16.3 L22.1 16.95 Q21.75 20.3 19.1 21.65 16.4 23.1 14.05 22.35 12.75 21.95 12.1 21.3 L0.45 7.4 Q-0.25 5.8 0.1 4.25 L0.15 3.8 0.2 3.75 0.25 4.1 0.55 3.7 0.3 4.55 0.55 4.0 2.2 1.75 3.15 1.0 Q1.8 2.6 2.15 2.7 L2.0 3.0 1.15 4.7 Q0.6 6.85 1.05 7.05 1.35 6.5 1.55 7.05 1.7 7.7 2.6 6.55 2.3 7.7 2.5 7.8 L2.65 8.1 2.75 8.4 Q3.05 8.5 2.9 9.0 3.4 8.55 3.5 8.75 L3.95 8.45 Q4.5 7.9 4.6 9.35 L4.5 10.85 Q5.55 10.15 5.75 10.35 L5.85 11.0 5.7 11.85 Q5.65 12.15 6.15 12.55 6.6 12.95 6.8 12.15 L7.0 13.75 7.95 13.65 Q8.1 13.45 8.55 14.3 L9.35 15.5 9.8 15.85 10.4 15.15 13.25 15.9 15.8 15.2 17.45 15.25 Q18.3 15.7 18.85 13.95 19.4 12.15 20.55 13.95 L22.0 16.05 22.15 16.3" fill="#696450" fill-rule="evenodd" stroke="none"/>
      <path d="M8.05 1.35 L7.65 1.0 Q8.0 0.9 8.55 1.5 L8.8 1.85 Q9.0 2.1 8.7 2.4 L8.85 3.05 9.75 3.35 Q10.4 3.6 9.9 3.85 L10.8 4.05 12.55 5.6 13.2 6.8 Q13.9 6.8 14.0 7.15 14.15 7.45 13.9 8.2 14.5 8.8 14.5 9.1 L15.2 9.15 16.3 9.1 Q16.65 9.25 16.4 9.55 16.1 9.8 16.3 9.9 L14.3 10.2 13.55 10.55 13.05 10.7 12.95 10.75 12.85 10.8 12.5 10.95 11.85 11.3 11.75 11.4 11.65 11.3 Q11.25 11.35 10.95 11.6 L10.75 11.9 10.55 11.95 Q10.45 12.0 10.5 11.85 11.25 10.65 12.6 10.1 L13.05 9.9 13.45 9.8 13.6 9.55 Q13.8 9.25 12.9 9.75 12.5 9.75 12.65 9.5 L12.6 9.5 12.3 9.6 10.95 10.05 Q10.6 10.2 10.8 9.9 11.1 9.35 11.75 9.05 L12.15 8.9 12.45 8.8 12.55 8.65 12.75 8.55 12.8 8.5 Q13.75 8.1 13.6 7.2 L13.2 7.45 12.65 7.3 12.75 7.2 12.6 7.25 12.3 6.95 11.9 6.75 Q10.65 6.8 9.65 7.65 9.0 8.2 8.6 8.0 L8.95 7.2 9.2 7.05 Q9.75 6.75 10.3 6.55 L10.45 6.1 Q10.25 5.2 9.7 4.85 L9.35 4.9 8.65 5.2 Q7.8 5.7 7.05 5.7 L7.0 5.6 Q7.6 4.85 8.45 4.6 L7.85 4.65 Q9.5 3.5 8.9 3.4 L8.2 3.35 5.8 4.0 5.8 3.95 Q6.1 3.6 6.5 3.35 L7.8 3.15 8.0 2.9 7.95 2.7 Q8.7 2.3 8.2 2.3 L7.65 2.3 7.45 2.4 4.45 3.15 3.65 3.45 Q3.55 3.5 3.6 3.35 L4.4 2.6 4.75 2.4 5.05 2.3 Q3.7 2.55 5.25 1.8 5.6 1.25 6.45 1.35 L6.7 1.35 7.2 1.25 7.25 1.3 8.1 1.45 8.05 1.35" fill="#faeec1" fill-rule="evenodd" stroke="none"/>
      <path d="M1.0 1.95 L1.35 1.6 Q2.0 0.95 2.7 0.55 L3.2 0.3 3.7 0.1 Q3.2 0.45 3.2 0.95 3.55 1.1 3.25 1.3 L3.1 1.35 2.75 1.95 Q4.25 1.0 5.35 1.15 L5.7 1.25 Q4.1 1.6 4.05 2.25 L4.4 2.6 3.6 3.35 Q3.55 3.5 3.65 3.45 L4.45 3.15 4.55 3.45 Q4.75 3.25 5.0 3.15 L5.85 2.8 6.9 2.55 Q7.75 2.25 7.95 2.7 L8.0 2.9 7.8 3.15 6.5 3.35 Q5.75 3.5 5.1 3.8 L5.1 3.85 4.7 4.8 Q7.65 3.3 7.85 3.9 L7.75 4.3 7.05 4.95 6.65 5.15 Q6.2 5.4 5.65 5.75 6.0 5.35 5.55 5.0 4.65 5.25 4.15 6.0 L3.5 5.45 2.7 5.25 3.65 4.65 Q4.65 4.2 4.0 3.7 2.95 3.95 2.25 4.8 L1.85 5.45 Q1.6 5.0 1.85 4.1 1.55 3.95 2.0 3.0 L2.15 2.7 Q1.8 2.6 3.15 1.0 L2.2 1.75 2.4 1.3 Q1.15 2.25 1.05 2.0 L1.0 1.95 M18.35 10.6 L19.0 11.2 19.6 11.8 Q19.35 11.6 18.2 11.8 17.0 11.95 16.4 12.25 15.75 12.55 15.55 13.2 15.35 13.85 13.3 13.55 11.25 13.2 10.9 13.95 L11.0 13.7 Q11.2 13.05 9.5 14.25 10.75 12.95 10.2 12.45 L8.9 13.15 Q9.75 12.05 9.6 11.6 9.55 11.4 9.4 11.5 L9.5 11.2 9.85 10.7 Q10.85 10.0 10.25 9.4 9.05 10.25 8.4 11.65 8.3 11.85 8.5 11.9 L8.75 12.0 8.2 12.6 Q7.65 12.6 8.6 10.5 L8.8 10.15 Q9.4 9.2 10.55 9.0 11.9 8.8 11.25 8.1 9.2 8.45 8.15 9.85 L7.7 10.1 Q7.7 9.85 6.65 10.4 L7.4 8.9 6.9 9.0 6.85 8.85 7.05 8.55 5.6 9.35 6.15 8.5 5.85 8.65 5.9 8.55 6.15 8.3 Q7.15 7.7 6.55 7.2 5.85 7.4 5.5 8.0 L5.45 7.85 Q5.35 7.65 5.2 7.7 L4.9 7.9 4.55 7.5 4.4 6.7 4.65 6.4 5.05 6.1 6.75 6.25 Q11.35 4.05 8.65 5.95 L8.7 5.95 Q10.0 6.35 8.55 6.55 L7.85 6.7 7.35 7.55 9.25 6.5 9.15 6.95 9.2 7.05 8.95 7.2 8.6 8.0 8.45 8.15 8.3 8.3 8.8 8.4 Q12.15 6.85 11.25 7.35 10.4 7.85 12.6 7.25 L12.75 7.2 12.65 7.3 Q11.4 8.1 12.8 8.5 L12.75 8.55 Q12.5 8.6 12.15 8.9 L11.75 9.05 Q11.1 9.35 10.8 9.9 10.6 10.2 10.95 10.05 L12.3 9.6 Q12.1 9.85 12.4 9.85 12.7 9.85 12.6 10.1 11.25 10.65 10.5 11.85 10.45 12.0 10.55 11.95 L10.75 11.9 11.05 11.95 Q12.4 11.9 11.75 11.4 L11.85 11.3 12.2 11.4 13.2 10.9 Q15.85 9.85 15.0 10.5 L12.75 11.6 16.45 10.4 18.35 10.6" fill="#c0b692" fill-rule="evenodd" stroke="none"/>
    </g>
    <g id="morphshape0" transform="matrix(1.0, 0.0, 0.0, 1.0, -0.4, -7.4)">
      <path d="M6.4 18.35 Q7.15 18.55 7.75 18.45 9.1 17.85 10.45 17.7 11.45 16.35 12.05 14.8 L12.65 13.4 Q13.4 12.05 13.8 12.35 14.3 12.4 14.25 12.3 M7.25 27.85 L9.45 27.65 Q12.75 27.0 14.7 24.6 16.1 22.95 16.35 20.6 16.65 18.1 16.35 16.4 17.25 15.65 16.65 15.05 16.35 14.75 16.25 14.4" fill="none" stroke="#c0b692" stroke-linecap="round" stroke-linejoin="round" stroke-width="0.5"/>
    </g>
    <g id="morphshape1" transform="matrix(1.0, 0.0, 0.0, 1.0, 1.05, 3.3)">
      <path d="M6.8 6.5 Q6.8 5.2 5.2 3.1 3.4 2.9 3.75 3.8 4.35 5.1 4.75 5.0 L5.25 5.45 Q5.8 5.9 6.4 5.8 5.65 -0.95 5.15 -0.6 4.9 -0.3 4.65 0.5 4.4 2.65 6.75 4.55 L6.95 4.7 9.15 -0.35 Q10.35 -0.85 11.15 -0.25 L11.85 0.2 Q12.35 0.6 12.8 1.25 M9.1 9.6 Q9.25 8.25 7.7 6.05 6.1 5.75 6.55 6.6 7.25 7.85 7.75 7.7 L7.8 7.85 8.25 8.15 Q8.85 8.55 9.5 8.4 8.6 0.85 7.95 2.85 L7.75 3.15 Q7.5 5.1 10.7 6.2 L11.0 6.35 13.2 1.3 Q15.0 0.6 16.4 1.0 L17.5 1.35 Q18.15 1.6 18.75 2.1" fill="none" stroke="#c0b692" stroke-linecap="round" stroke-linejoin="round" stroke-width="0.5"/>
    </g>
    <g id="morphshape2" transform="matrix(1.0, 0.0, 0.0, 1.0, -0.25, 0.55)">
      <path d="M0.65 7.95 L0.7 7.0 Q1.5 3.55 4.15 2.25 L5.45 1.7 Q4.9 5.7 5.05 5.5 5.25 5.25 5.55 4.9 L6.45 4.45 Q6.7 4.4 6.75 4.6 6.85 4.75 7.0 4.65 6.8 4.65 6.75 4.7 L7.5 4.35 Q8.0 4.2 8.25 4.2 L8.45 4.25 8.5 4.35 9.4 3.7 11.0 3.45 11.15 3.5 11.5 3.55 13.45 4.5 Q13.7 4.5 13.65 4.45 L13.6 4.55 Q13.4 4.7 13.2 4.95 L12.85 5.15 12.15 5.5 10.25 3.8 10.25 3.85 Q10.2 3.9 10.0 4.05 9.4 4.7 7.65 5.7 L7.6 5.75 6.6 5.45 6.35 5.5 6.4 5.45 6.1 5.8 6.65 6.2 6.4 6.1 6.0 6.25 Q5.8 6.35 6.0 5.85 M2.1 10.1 Q2.5 9.2 3.4 8.2 4.3 10.6 4.25 9.6 L3.8 9.75 Q4.2 7.25 6.05 5.75 6.8 5.15 7.55 4.7 L11.8 4.95 12.3 4.85 13.0 4.6 13.05 4.55 Q13.2 4.5 13.15 4.7 L13.0 4.85 Q12.2 4.65 11.05 4.7 L10.4 4.85 Q8.05 5.5 6.65 8.05 L6.0 8.45 6.65 7.85 6.8 8.0 Q7.1 8.4 7.55 8.5 L7.7 8.55 7.6 8.5 Q7.2 8.2 7.55 7.65 7.65 7.35 7.5 7.45 L7.35 7.4 M7.15 11.8 L7.25 10.95 Q8.45 9.9 10.55 8.9 L13.85 7.75 Q14.55 8.55 14.4 9.05 L14.1 9.7 13.6 10.35 13.5 10.45 Q13.0 11.0 12.2 11.45 11.7 11.3 11.25 10.55 M7.15 11.3 Q7.3 8.9 9.85 7.4 11.15 6.8 12.4 6.65 L13.9 6.6 Q14.9 6.65 15.25 7.1 L15.2 7.4 14.95 7.65 14.55 8.2 Q14.05 8.7 13.2 9.15 12.25 9.65 11.25 10.0 M10.55 16.1 Q10.2 15.75 10.1 14.75 10.4 12.1 11.5 11.1 L12.85 10.3 13.6 10.05 Q14.45 8.5 15.65 8.35 L16.2 8.4 16.35 8.6 Q16.45 8.9 16.35 9.05 15.9 9.4 16.85 9.35 17.35 9.35 17.8 9.5 L18.25 9.65 Q18.8 9.9 18.95 10.1 L16.55 9.9 16.4 11.05 Q16.25 12.1 15.8 13.1 15.4 13.95 14.9 14.65 L14.75 14.95" fill="none" stroke="#c0b692" stroke-linecap="round" stroke-linejoin="round" stroke-width="0.5"/>
    </g>
    <g id="shape2" transform="matrix(1.0, 0.0, 0.0, 1.0, -0.55, -0.15)">
      <path d="M13.85 9.7 Q16.0 6.55 13.3 3.95 10.3 1.05 5.5 4.3 3.5 5.75 2.75 8.4 1.95 11.4 4.05 13.05 5.75 14.4 7.55 14.25 5.0 14.85 2.45 12.85 -0.15 10.85 0.85 7.15 1.75 3.9 4.2 2.2 6.7 0.5 8.95 0.2 11.75 -0.1 13.8 1.8 16.0 3.9 15.55 6.35 15.25 8.0 13.85 9.7" fill="url(#gradient1)" fill-rule="evenodd" stroke="none"/>
      <path d="M7.55 14.25 Q5.75 14.4 4.05 13.05 1.95 11.4 2.75 8.4 3.5 5.75 5.5 4.3 10.3 1.05 13.3 3.95 16.0 6.55 13.85 9.7 L12.1 11.6 Q9.75 13.65 8.2 14.1 L7.55 14.25 M5.95 8.9 Q5.6 10.25 6.55 11.0 7.5 11.7 8.4 11.45 9.05 11.25 10.1 10.35 12.25 8.45 10.65 6.9 9.25 5.55 7.2 7.1 6.3 7.7 5.95 8.9" fill="url(#gradient2)" fill-rule="evenodd" stroke="none"/>
      <path d="M5.95 8.9 Q6.3 7.7 7.2 7.1 9.25 5.55 10.65 6.9 12.25 8.45 10.1 10.35 9.05 11.25 8.4 11.45 7.5 11.7 6.55 11.0 5.6 10.25 5.95 8.9" fill="url(#gradient3)" fill-rule="evenodd" stroke="none"/>
    </g>
    <linearGradient gradientTransform="matrix(-0.0054, 0.0052, 0.0052, 0.0054, 7.4, 7.45)" gradientUnits="userSpaceOnUse" id="gradient1" spreadMethod="pad" x1="-819.2" x2="819.2">
      <stop offset="0.0" stop-color="#2f3436"/>
      <stop offset="0.27450980392156865" stop-color="#50585c"/>
      <stop offset="0.3137254901960784" stop-color="#4a5155"/>
      <stop offset="0.49019607843137253" stop-color="#303538"/>
      <stop offset="0.6666666666666666" stop-color="#1e2123"/>
      <stop offset="0.8352941176470589" stop-color="#131516"/>
      <stop offset="1.0" stop-color="#0f1112"/>
    </linearGradient>
    <linearGradient gradientTransform="matrix(0.0044, -0.0055, -0.0055, -0.0044, 8.2, 8.65)" gradientUnits="userSpaceOnUse" id="gradient2" spreadMethod="pad" x1="-819.2" x2="819.2">
      <stop offset="0.0" stop-color="#2f3436"/>
      <stop offset="1.0" stop-color="#0f1112"/>
    </linearGradient>
    <linearGradient gradientTransform="matrix(0.002, -0.0025, -0.0025, -0.002, 8.4, 9.0)" gradientUnits="userSpaceOnUse" id="gradient3" spreadMethod="pad" x1="-819.2" x2="819.2">
      <stop offset="0.0" stop-color="#121314"/>
      <stop offset="1.0" stop-color="#0f1112"/>
    </linearGradient>
    <g id="shape3" transform="matrix(1.0, 0.0, 0.0, 1.0, -0.2, 0.9)">
      <path d="M9.4 13.25 L9.3 13.15 3.75 6.45 0.45 2.55 Q0.0 1.95 0.4 1.05 0.75 0.2 1.6 -0.45 2.5 -1.1 3.5 -0.8 L4.65 -0.15 13.9 8.85 Q12.55 8.85 11.0 10.05 9.25 11.35 9.4 13.25" fill="url(#gradient4)" fill-rule="evenodd" stroke="none"/>
      <path d="M9.4 13.25 Q9.25 11.35 11.0 10.05 12.55 8.85 13.9 8.85 L14.55 9.5 13.7 9.45 Q12.6 9.55 11.3 10.55 L9.85 13.1 9.85 13.4 9.85 13.6 9.85 13.75 9.4 13.35 9.4 13.25" fill="url(#gradient5)" fill-rule="evenodd" stroke="none"/>
      <path d="M14.55 9.5 L14.8 10.9 Q14.75 12.5 13.55 13.55 12.9 14.1 12.25 14.3 L11.8 14.4 Q10.8 14.55 9.85 13.75 L9.85 13.6 9.85 13.4 9.85 13.1 11.3 10.55 Q12.6 9.55 13.7 9.45 L14.55 9.5" fill="url(#gradient6)" fill-rule="evenodd" stroke="none"/>
    </g>
    <linearGradient gradientTransform="matrix(-0.0022, 0.0021, 0.0021, 0.0022, 7.25, 6.85)" gradientUnits="userSpaceOnUse" id="gradient4" spreadMethod="pad" x1="-819.2" x2="819.2">
      <stop offset="0.0" stop-color="#2f3436"/>
      <stop offset="0.27450980392156865" stop-color="#50585c"/>
      <stop offset="0.3137254901960784" stop-color="#4a5155"/>
      <stop offset="0.49019607843137253" stop-color="#303538"/>
      <stop offset="0.6666666666666666" stop-color="#1e2123"/>
      <stop offset="0.8352941176470589" stop-color="#131516"/>
      <stop offset="1.0" stop-color="#0f1112"/>
    </linearGradient>
    <linearGradient gradientTransform="matrix(-0.0025, 0.0024, 0.0024, 0.0025, 11.35, 11.15)" gradientUnits="userSpaceOnUse" id="gradient5" spreadMethod="pad" x1="-819.2" x2="819.2">
      <stop offset="0.0" stop-color="#717b82"/>
      <stop offset="1.0" stop-color="#0f1112"/>
    </linearGradient>
    <linearGradient gradientTransform="matrix(-0.0023, 0.0023, 0.0023, 0.0023, 12.25, 12.2)" gradientUnits="userSpaceOnUse" id="gradient6" spreadMethod="pad" x1="-819.2" x2="819.2">
      <stop offset="0.0" stop-color="#242729"/>
      <stop offset="1.0" stop-color="#0f1112"/>
    </linearGradient>
  </defs>
</svg>
