<?xml version="1.0" encoding="UTF-8" standalone="no"?>
<svg xmlns:xlink="http://www.w3.org/1999/xlink" height="77.35px" width="114.75px" xmlns="http://www.w3.org/2000/svg">
  <g transform="matrix(1.0, 0.0, 0.0, 1.0, 0.0, 0.0)">
    <use height="77.35" transform="matrix(1.0, 0.0, 0.0, 1.0, 0.0, 0.0)" width="114.75" xlink:href="#shape0"/>
  </g>
  <defs>
    <g id="shape0" transform="matrix(1.0, 0.0, 0.0, 1.0, 0.0, 0.0)">
      <path d="M49.7 66.4 L46.0 66.05 34.85 64.9 28.05 64.45 23.55 64.2 22.0 64.15 10.2 63.65 4.95 63.55 4.0 63.5 3.1 63.65 Q2.4 63.9 2.1 64.7 L1.75 66.15 1.4 68.05 1.4 68.15 Q0.8 70.2 0.25 70.6 L1.85 62.4 77.35 67.05 77.45 67.4 77.25 67.4 72.25 67.3 66.85 67.05 62.0 67.05 56.45 66.95 56.0 66.9 52.85 66.6 49.7 66.4" fill="#949494" fill-rule="evenodd" stroke="none"/>
      <path d="M46.0 66.05 L49.7 66.4 40.65 65.95 42.95 67.7 43.7 68.65 Q44.0 69.35 43.5 69.7 L42.0 69.9 40.45 69.8 35.05 69.25 Q34.55 69.15 34.25 68.9 33.85 68.55 34.3 68.2 L31.85 68.15 29.5 68.15 31.8 68.95 Q33.55 69.7 32.75 70.3 L32.15 70.45 31.5 70.4 28.35 70.4 Q25.3 70.4 25.0 69.85 L25.95 69.45 20.25 68.8 15.35 68.45 13.95 68.4 13.4 68.65 11.9 68.75 12.1 69.4 9.1 69.35 3.75 68.85 1.4 68.05 1.75 66.15 2.1 64.7 Q2.4 63.9 3.1 63.65 L4.0 63.5 4.95 63.55 10.2 63.65 22.0 64.15 23.55 64.2 31.0 65.4 37.1 65.9 40.65 65.95 46.0 66.05 M56.45 66.95 L62.0 67.05 66.85 67.05 72.25 67.3 77.25 67.4 77.45 67.4 78.8 74.45 78.85 74.75 79.15 76.35 79.35 77.35 78.55 77.3 78.6 76.35 Q79.0 75.4 78.35 73.6 L77.45 71.9 76.4 70.3 75.7 68.7 Q75.4 69.25 75.25 70.1 L75.05 70.9 73.85 71.35 72.55 71.3 Q71.95 71.1 72.1 70.45 L69.65 71.55 66.45 71.55 63.45 71.2 Q63.4 70.8 63.9 70.4 L64.6 69.8 57.8 68.5 Q56.9 68.55 56.3 67.9 56.15 67.55 56.45 66.95 M0.15 71.15 L0.25 70.6 0.25 70.65 0.15 71.15" fill="url(#gradient0)" fill-rule="evenodd" stroke="none"/>
      <path d="M49.7 66.4 L52.85 66.6 56.0 66.9 56.45 66.95 Q56.15 67.55 56.3 67.9 56.9 68.55 57.8 68.5 L64.6 69.8 63.9 70.4 Q63.4 70.8 63.45 71.2 L66.45 71.55 69.65 71.55 72.1 70.45 Q71.95 71.1 72.55 71.3 L73.85 71.35 75.05 70.9 75.25 70.1 Q75.4 69.25 75.7 68.7 L76.4 70.3 77.45 71.9 78.35 73.6 Q79.0 75.4 78.6 76.35 78.6 74.6 78.0 73.85 L77.75 74.95 Q77.6 75.55 77.0 75.65 L76.0 75.7 74.95 75.65 73.05 75.3 72.2 74.45 71.55 74.05 Q71.0 73.65 71.25 73.35 L71.95 72.65 70.8 72.45 69.55 72.55 67.1 72.55 66.35 72.65 67.45 73.4 68.75 73.85 70.65 74.65 69.1 74.9 67.5 74.65 66.05 74.35 Q65.05 74.2 64.85 74.55 L64.8 74.8 64.6 75.05 63.45 75.0 61.1 74.75 55.3 74.25 53.35 73.95 51.35 73.8 50.5 73.9 50.1 74.3 49.3 74.45 48.45 74.4 42.65 74.05 39.95 73.45 37.2 72.8 33.25 72.15 32.6 71.9 31.75 71.8 17.45 71.65 7.15 71.4 2.25 71.3 Q1.0 71.05 0.25 70.65 L0.25 70.6 Q0.8 70.2 1.4 68.15 L1.4 68.05 3.75 68.85 9.1 69.35 12.1 69.4 11.9 68.75 13.4 68.65 13.95 68.4 15.35 68.45 20.25 68.8 25.95 69.45 25.0 69.85 Q25.3 70.4 28.35 70.4 L31.5 70.4 32.15 70.45 32.75 70.3 Q33.55 69.7 31.8 68.95 L29.5 68.15 31.85 68.15 34.3 68.2 Q33.85 68.55 34.25 68.9 34.55 69.15 35.05 69.25 L40.45 69.8 42.0 69.9 43.5 69.7 Q44.0 69.35 43.7 68.65 L42.95 67.7 40.65 65.95 49.7 66.4" fill="#4f4f4f" fill-rule="evenodd" stroke="none"/>
      <path d="M23.55 64.2 L28.05 64.45 34.85 64.9 46.0 66.05 40.65 65.95 37.1 65.9 31.0 65.4 23.55 64.2 M0.25 70.65 Q1.0 71.05 2.25 71.3 L7.15 71.4 17.45 71.65 31.75 71.8 32.6 71.9 33.25 72.15 37.2 72.8 39.95 73.45 42.65 74.05 48.45 74.4 49.3 74.45 50.1 74.3 50.5 73.9 51.35 73.8 53.35 73.95 55.3 74.25 61.1 74.75 63.45 75.0 64.6 75.05 64.8 74.8 64.85 74.55 Q65.05 74.2 66.05 74.35 L67.5 74.65 69.1 74.9 70.65 74.65 68.75 73.85 67.45 73.4 66.35 72.65 67.1 72.55 69.55 72.55 70.8 72.45 71.95 72.65 71.25 73.35 Q71.0 73.65 71.55 74.05 L72.2 74.45 73.05 75.3 74.95 75.65 76.0 75.7 77.0 75.65 Q77.6 75.55 77.75 74.95 L78.0 73.85 Q78.6 74.6 78.6 76.35 L78.55 77.3 0.0 71.9 0.15 71.15 0.25 70.65" fill="#3d3d3d" fill-rule="evenodd" stroke="none"/>
      <path d="M77.45 67.4 L77.35 67.05 99.1 53.05 98.7 53.95 97.85 54.85 96.35 55.9 95.05 56.75 93.75 57.55 93.15 57.9 92.2 58.6 91.35 59.3 89.75 60.1 Q88.9 60.7 88.0 61.25 L83.5 64.15 81.75 65.4 79.9 66.15 78.7 67.0 Q77.95 67.55 78.1 68.5 L78.25 69.75 78.6 71.9 78.7 73.4 78.8 74.45 77.45 67.4 M78.9 74.8 L78.9 74.9 78.95 75.15 79.35 76.2 Q79.6 76.85 79.45 77.3 L79.35 77.25 79.15 76.35 78.85 74.75 78.9 74.8" fill="#757575" fill-rule="evenodd" stroke="none"/>
      <path d="M78.25 69.75 L78.1 68.5 Q77.95 67.55 78.7 67.0 L79.9 66.15 81.75 65.4 83.5 64.15 88.0 61.25 Q88.9 60.7 89.75 60.1 L91.35 59.3 92.2 58.6 93.15 57.9 94.1 57.9 95.45 58.05 Q96.1 58.25 96.25 58.9 L96.0 60.25 95.3 61.4 Q94.2 63.15 91.85 62.9 L92.35 61.85 Q92.75 61.05 92.5 60.8 91.45 61.2 89.8 62.85 L88.95 63.25 Q88.25 63.6 88.35 63.9 L88.95 63.95 89.35 64.25 89.5 65.05 Q89.55 65.6 88.9 65.85 L87.75 66.05 87.8 66.8 87.75 67.4 87.4 67.55 86.95 67.7 86.85 68.15 85.85 68.2 84.6 68.65 83.9 68.8 Q83.55 68.95 83.6 69.4 L83.25 69.4 83.5 69.45 Q83.5 69.8 81.25 69.95 L80.05 70.45 79.6 70.8 79.15 70.55 78.75 70.15 78.25 69.75 M97.85 54.85 L98.7 53.95 99.1 53.05 99.5 52.8 99.6 52.8 100.3 52.4 99.65 52.75 98.1 39.8 110.15 32.5 111.0 32.45 112.95 44.05 112.95 44.1 113.0 44.05 114.65 51.35 114.55 51.05 113.2 52.35 112.75 52.4 Q113.25 51.6 112.7 49.85 L112.6 48.6 112.45 47.3 Q112.3 47.55 112.1 49.45 L112.1 50.05 111.95 50.65 Q111.65 51.45 110.2 52.55 109.55 53.1 108.6 53.25 L106.85 53.3 104.5 52.95 103.35 52.1 Q102.65 51.5 102.6 51.1 102.65 52.85 103.5 54.1 103.85 54.55 103.65 54.6 L103.0 54.8 Q102.85 54.95 102.8 55.45 L102.5 56.05 101.85 56.35 101.2 56.6 100.85 56.9 100.5 56.85 99.7 56.95 99.5 56.7 99.35 56.4 Q99.2 56.2 98.55 56.05 L97.85 55.65 Q97.7 55.35 97.85 54.85 M78.8 74.45 L78.9 74.8 78.85 74.75 78.8 74.45 M79.45 77.3 L79.35 77.35 79.15 76.35 79.35 77.25 79.45 77.3 M107.75 40.65 L108.4 40.3 109.65 39.6 Q108.3 38.3 106.85 38.45 105.5 38.55 104.5 39.85 L104.35 40.05 Q103.3 41.45 103.05 43.6 104.75 42.35 107.75 40.65 M109.7 43.45 L111.35 42.45 Q110.9 41.2 110.25 40.35 L108.45 41.35 108.5 41.4 Q106.15 42.7 104.55 43.8 103.6 44.4 102.95 44.9 L103.2 47.25 108.9 43.95 109.7 43.45 M110.6 48.15 L108.5 49.25 105.05 51.15 105.4 51.5 Q106.75 52.75 108.1 52.6 109.55 52.45 110.6 50.95 111.65 49.55 111.9 47.35 L110.85 48.0 110.6 48.15 M110.3 47.15 L111.45 46.45 112.0 46.1 111.95 45.1 111.8 44.05 111.65 43.45 110.6 44.1 110.5 44.2 110.0 44.45 103.45 48.25 104.2 50.0 104.45 50.35 Q105.5 49.7 107.95 48.4 L110.3 47.15" fill="#383838" fill-rule="evenodd" stroke="none"/>
      <path d="M93.15 57.9 L93.75 57.55 95.05 56.75 96.35 55.9 97.85 54.85 Q97.7 55.35 97.85 55.65 L98.55 56.05 Q99.2 56.2 99.35 56.4 L99.5 56.7 99.7 56.95 100.5 56.85 100.85 56.9 101.2 56.6 101.85 56.35 102.5 56.05 102.8 55.45 Q102.85 54.95 103.0 54.8 L103.65 54.6 Q103.85 54.55 103.5 54.1 102.65 52.85 102.6 51.1 102.65 51.5 103.35 52.1 L104.5 52.95 106.85 53.3 108.6 53.25 Q109.55 53.1 110.2 52.55 111.65 51.45 111.95 50.65 L112.1 50.05 112.1 49.45 Q112.3 47.55 112.45 47.3 L112.6 48.6 112.7 49.85 Q113.25 51.6 112.75 52.4 L113.2 52.35 111.7 53.7 108.95 55.7 107.8 56.25 106.75 56.85 102.85 59.55 100.25 60.8 98.65 61.8 Q97.25 62.35 96.7 62.7 L91.9 66.25 87.9 68.8 84.05 71.5 82.5 73.05 80.9 74.5 Q80.1 75.05 78.95 75.15 L78.9 74.9 78.9 74.8 78.8 74.45 78.7 73.4 78.6 71.9 78.25 69.75 78.75 70.15 79.15 70.55 79.6 70.8 80.05 70.45 81.25 69.95 Q83.5 69.8 83.5 69.45 L83.25 69.4 83.6 69.4 Q83.55 68.95 83.9 68.8 L84.6 68.65 85.85 68.2 86.85 68.15 86.95 67.7 87.4 67.55 87.75 67.4 87.8 66.8 87.75 66.05 88.9 65.85 Q89.55 65.6 89.5 65.05 L89.35 64.25 88.95 63.95 88.35 63.9 Q88.25 63.6 88.95 63.25 L89.8 62.85 Q91.45 61.2 92.5 60.8 92.75 61.05 92.35 61.85 L91.85 62.9 Q94.2 63.15 95.3 61.4 L96.0 60.25 96.25 58.9 Q96.1 58.25 95.45 58.05 L94.1 57.9 93.15 57.9 M28.2 53.95 L85.2 57.15 73.85 64.55 14.75 60.6 27.5 53.9 28.2 53.95" fill="#2e2e2e" fill-rule="evenodd" stroke="none"/>
      <path d="M36.8 33.65 L43.45 30.45 110.25 32.4 110.2 32.45 110.15 32.5 98.1 39.8 80.1 39.15 81.45 39.15 64.85 38.25 31.75 36.6 38.0 33.1 36.8 33.65 M106.35 33.35 L44.4 31.6 33.95 36.55 97.9 38.45 106.35 33.35 M29.25 37.3 L29.1 37.3 29.25 37.25 29.25 37.3" fill="#696461" fill-rule="evenodd" stroke="none"/>
      <path d="M80.1 39.15 L98.1 39.8 99.65 52.75 100.3 52.4 99.6 52.8 99.5 52.8 28.85 49.05 28.85 48.55 29.1 37.3 29.25 37.3 29.0 48.75 29.05 48.45 29.3 43.35 Q29.7 37.8 29.9 37.6 L80.1 39.15 M110.15 32.5 L110.2 32.45 111.0 32.45 110.15 32.5" fill="url(#gradient1)" fill-rule="evenodd" stroke="none"/>
      <path d="M107.75 40.65 Q107.0 40.15 106.3 39.95 L104.5 39.85 Q105.5 38.55 106.85 38.45 108.3 38.3 109.65 39.6 L108.4 40.3 107.75 40.65 M108.5 41.4 L108.45 41.35 110.25 40.35 Q110.9 41.2 111.35 42.45 L109.7 43.45 109.0 42.0 108.5 41.4 M105.4 51.5 Q106.95 51.6 108.2 50.75 109.45 49.95 110.05 48.45 L110.6 48.15 110.85 48.0 111.9 47.35 Q111.65 49.55 110.6 50.95 109.55 52.45 108.1 52.6 106.75 52.75 105.4 51.5 M110.0 44.45 L110.5 44.2 110.6 44.1 111.65 43.45 111.8 44.05 111.95 45.1 112.0 46.1 111.45 46.45 110.3 47.15 110.1 45.2 110.0 44.45" fill="#404040" fill-rule="evenodd" stroke="none"/>
      <path d="M104.5 39.85 L106.3 39.95 Q107.0 40.15 107.75 40.65 104.75 42.35 103.05 43.6 103.3 41.45 104.35 40.05 L104.5 39.85 M108.5 41.4 L109.0 42.0 109.7 43.45 108.9 43.95 103.2 47.25 102.95 44.9 Q103.6 44.4 104.55 43.8 106.15 42.7 108.5 41.4 M105.4 51.5 L105.05 51.15 108.5 49.25 110.6 48.15 110.05 48.45 Q109.45 49.95 108.2 50.75 106.95 51.6 105.4 51.5 M110.0 44.45 L110.1 45.2 110.3 47.15 107.95 48.4 Q105.5 49.7 104.45 50.35 L104.2 50.0 103.45 48.25 110.0 44.45" fill="#262626" fill-rule="evenodd" stroke="none"/>
      <path d="M77.35 67.05 L1.85 62.4 28.85 48.55 28.85 49.05 99.5 52.8 99.1 53.05 77.35 67.05 M112.95 44.05 L113.0 44.05 112.95 44.1 112.95 44.05 M85.2 57.15 L85.25 57.15 87.1 55.9 28.05 52.6 28.05 52.65 26.75 52.55 11.75 60.4 14.75 60.6 73.85 64.55 85.2 57.15" fill="url(#gradient2)" fill-rule="evenodd" stroke="none"/>
      <path d="M78.95 75.15 Q80.1 75.05 80.9 74.5 L82.5 73.05 84.05 71.5 87.9 68.8 91.9 66.25 96.7 62.7 Q97.25 62.35 98.65 61.8 L100.25 60.8 102.85 59.55 106.75 56.85 107.8 56.25 108.95 55.7 111.7 53.7 113.2 52.35 114.55 51.05 114.65 51.35 114.75 51.9 79.45 77.3 Q79.6 76.85 79.35 76.2 L78.95 75.15" fill="#242424" fill-rule="evenodd" stroke="none"/>
      <path d="M28.05 52.65 L28.05 52.6 87.1 55.9 85.25 57.15 85.2 57.15 28.2 53.95 28.05 52.65" fill="#4a4a4a" fill-rule="evenodd" stroke="none"/>
      <path d="M106.35 33.35 L97.9 38.45 33.95 36.55 44.4 31.6 106.35 33.35" fill="url(#gradient3)" fill-rule="evenodd" stroke="none"/>
      <path d="M36.8 33.65 L38.0 33.1 31.75 36.6 64.85 38.25 81.45 39.15 80.1 39.15 29.9 37.6 Q29.7 37.8 29.3 43.35 L29.05 48.45 29.0 48.75 29.25 37.3 29.25 37.25 29.25 37.1 36.8 33.65" fill="#928c87" fill-rule="evenodd" stroke="none"/>
      <path d="M28.05 52.65 L28.2 53.95 27.5 53.9 14.75 60.6 11.75 60.4 26.75 52.55 28.05 52.65" fill="#595959" fill-rule="evenodd" stroke="none"/>
      <path d="M35.05 14.8 Q34.8 14.85 34.55 15.1 L34.05 15.45 33.6 15.35 33.5 14.85 33.0 14.75 32.4 14.8 32.1 14.75 31.8 14.8 31.25 15.35 30.55 16.2 Q30.05 16.65 29.55 16.45 28.9 15.95 28.45 16.0 L27.95 16.35 27.55 16.85 Q27.05 17.75 27.85 19.0 28.15 19.5 28.05 19.85 L27.4 20.5 26.8 20.75 26.9 18.75 Q27.15 16.6 28.8 15.55 29.9 14.85 31.4 14.75 L34.6 14.75 35.25 14.75 35.2 14.8 35.05 14.8 M26.8 24.45 L26.8 22.45 27.65 22.7 27.9 22.85 Q28.1 23.15 27.95 23.6 27.8 24.15 26.8 24.45 M26.85 25.75 L27.3 25.8 27.55 26.05 27.55 27.05 27.4 27.45 26.9 27.5 26.9 26.65 26.85 25.75" fill="#a59f9a" fill-rule="evenodd" stroke="none"/>
      <path d="M26.8 20.75 L27.4 20.5 28.05 19.85 Q28.15 19.5 27.85 19.0 27.05 17.75 27.55 16.85 L27.95 16.35 28.45 16.0 Q28.9 15.95 29.55 16.45 30.05 16.65 30.55 16.2 L31.25 15.35 31.8 14.8 32.1 14.75 32.4 14.8 33.0 14.75 33.5 14.85 33.6 15.35 34.05 15.45 34.55 15.1 Q34.8 14.85 35.05 14.8 L34.55 15.4 Q34.25 16.6 33.95 16.65 33.65 16.7 33.55 16.1 L33.3 15.35 33.1 15.25 32.65 15.25 Q32.35 15.3 32.2 15.55 L31.95 16.05 Q31.25 17.45 30.8 17.6 30.25 17.8 29.05 17.2 28.5 16.95 28.25 17.75 28.05 18.45 28.35 18.95 L28.85 19.4 29.15 19.85 28.4 21.0 Q27.95 21.4 27.6 21.45 L27.5 21.45 26.8 21.45 26.8 20.75 M26.8 24.45 Q27.8 24.15 27.95 23.6 28.1 23.15 27.9 22.85 L27.65 22.7 26.8 22.45 26.8 22.2 27.6 22.45 28.4 22.5 28.65 22.55 28.85 22.8 Q29.1 23.4 28.85 23.95 L28.2 24.55 28.05 24.6 27.5 24.65 27.3 24.7 Q27.0 24.8 27.05 25.05 L27.35 25.4 28.3 25.55 28.5 26.15 28.45 26.85 28.45 27.55 28.15 28.05 27.95 28.15 27.65 28.15 27.4 28.15 Q27.2 28.7 28.45 28.9 28.7 29.7 27.35 29.7 L27.0 29.65 26.95 29.65 26.9 27.5 27.4 27.45 27.55 27.05 27.55 26.05 27.3 25.8 26.85 25.75 26.8 24.45" fill="#8f8985" fill-rule="evenodd" stroke="none"/>
      <path d="M35.05 14.8 L35.2 14.8 35.25 14.75 35.85 14.75 35.15 15.7 Q35.0 16.1 35.0 16.85 L34.95 18.1 33.9 18.3 Q33.3 18.35 33.05 17.9 32.9 17.6 32.9 16.5 32.9 16.0 33.05 15.75 L33.3 15.35 33.55 16.1 Q33.65 16.7 33.95 16.65 34.25 16.6 34.55 15.4 L35.05 14.8 M26.8 20.75 L26.8 21.45 27.5 21.45 Q27.85 21.9 28.85 22.05 L30.2 21.95 30.4 22.9 30.3 23.85 Q29.85 24.6 28.95 24.7 L28.05 24.6 28.2 24.55 28.85 23.95 Q29.1 23.4 28.85 22.8 L28.65 22.55 28.4 22.5 27.6 22.45 26.8 22.2 26.8 22.45 26.8 24.45 26.8 20.75 M27.6 21.45 Q27.95 21.4 28.4 21.0 L29.15 19.85 28.85 19.4 28.35 18.95 Q28.05 18.45 28.25 17.75 28.5 16.95 29.05 17.2 30.25 17.8 30.8 17.6 31.25 17.45 31.95 16.05 L32.2 15.55 Q32.35 15.3 32.65 15.25 L33.1 15.25 32.4 16.15 Q32.05 16.8 32.05 17.95 L32.0 18.75 31.35 18.9 30.65 18.9 Q30.0 18.85 29.55 18.45 L28.55 17.4 Q28.45 18.25 29.35 19.1 L30.05 19.5 Q30.05 20.1 30.7 20.45 30.65 21.1 29.75 21.3 L27.6 21.45 M37.05 14.8 L35.85 14.75 38.2 14.8 37.05 14.8 M28.15 28.05 L28.45 27.55 28.45 26.85 28.5 26.15 28.3 25.55 27.35 25.4 27.05 25.05 Q27.0 24.8 27.3 24.7 L27.5 24.65 Q28.15 25.35 29.8 25.35 30.0 26.45 29.8 27.6 L28.8 28.0 28.15 28.05 M26.8 24.45 L26.85 25.75 26.9 26.65 26.8 24.45 M27.0 29.65 L27.35 29.7 Q28.7 29.7 28.45 28.9 27.2 28.7 27.4 28.15 L27.65 28.15 27.5 28.25 28.85 28.65 29.9 28.8 30.7 28.65 30.7 30.3 30.15 30.7 Q29.15 31.1 27.9 30.35 L27.0 29.8 27.0 29.65 M27.05 31.05 L27.05 31.35 27.0 30.3 27.05 31.05" fill="#736f6b" fill-rule="evenodd" stroke="none"/>
      <path d="M27.5 21.45 L27.6 21.45 29.75 21.3 Q30.65 21.1 30.7 20.45 L31.1 20.6 31.15 21.7 31.3 23.2 31.3 24.1 30.8 24.65 30.15 24.8 30.8 25.05 31.6 25.0 31.65 26.0 31.75 26.7 31.8 27.4 Q31.7 27.55 31.75 27.65 L30.35 27.9 30.9 28.0 31.45 28.1 31.6 28.55 31.65 29.05 31.7 30.0 31.55 30.95 Q31.2 31.75 29.95 31.75 L28.65 31.45 27.05 31.05 27.0 30.3 27.0 30.1 26.95 29.75 27.0 29.8 27.9 30.35 Q29.15 31.1 30.15 30.7 L30.7 30.3 30.7 28.65 29.9 28.8 28.85 28.65 27.5 28.25 27.65 28.15 27.95 28.15 28.15 28.05 28.8 28.0 29.8 27.6 Q30.0 26.45 29.8 25.35 28.15 25.35 27.5 24.65 L28.05 24.6 28.95 24.7 Q29.85 24.6 30.3 23.85 L30.4 22.9 30.2 21.95 28.85 22.05 Q27.85 21.9 27.5 21.45 M33.1 15.25 L33.3 15.35 33.05 15.75 Q32.9 16.0 32.9 16.5 32.9 17.6 33.05 17.9 33.3 18.35 33.9 18.3 L34.95 18.1 35.0 16.85 Q35.0 16.1 35.15 15.7 L35.85 14.75 37.05 14.8 Q36.5 14.9 36.05 15.75 35.65 16.45 35.55 17.1 L35.6 18.4 34.95 18.9 34.15 18.95 33.35 18.7 Q32.9 18.35 32.8 17.8 L32.8 16.75 Q32.15 17.75 32.15 19.7 L32.1 20.05 31.8 20.1 Q31.3 20.15 30.55 19.8 L30.05 19.5 29.35 19.1 Q28.45 18.25 28.55 17.4 L29.55 18.45 Q30.0 18.85 30.65 18.9 L31.35 18.9 32.0 18.75 32.05 17.95 Q32.05 16.8 32.4 16.15 L33.1 15.25" fill="#5d5a57" fill-rule="evenodd" stroke="none"/>
      <path d="M30.05 19.5 L30.55 19.8 Q31.3 20.15 31.8 20.1 L32.1 20.05 32.15 19.7 Q32.15 17.75 32.8 16.75 L32.8 17.8 Q32.9 18.35 33.35 18.7 L34.15 18.95 34.95 18.9 35.6 18.4 35.55 17.1 Q35.65 16.45 36.05 15.75 36.5 14.9 37.05 14.8 L38.2 14.8 39.9 14.85 39.3 20.45 36.1 20.2 32.55 20.3 Q32.25 20.6 32.1 26.1 L32.05 29.0 32.05 29.2 32.05 31.55 Q31.55 32.5 29.4 32.5 28.05 32.5 27.4 31.95 L27.05 31.35 27.05 31.05 28.65 31.45 29.95 31.75 Q31.2 31.75 31.55 30.95 L31.7 30.0 31.65 29.05 31.6 28.55 31.45 28.1 30.9 28.0 30.35 27.9 31.75 27.65 Q31.7 27.55 31.8 27.4 L31.75 26.7 31.65 26.0 31.6 25.0 30.8 25.05 30.15 24.8 30.8 24.65 31.3 24.1 31.3 23.2 31.15 21.7 31.1 20.6 30.7 20.45 Q30.05 20.1 30.05 19.5" fill="#464542" fill-rule="evenodd" stroke="none"/>
      <path d="M32.85 28.95 L36.05 27.9 36.05 28.0 32.9 28.95 32.25 29.15 32.85 28.95" fill="#696461" fill-rule="evenodd" stroke="none"/>
      <path d="M27.05 31.35 L27.4 31.95 Q28.05 32.5 29.4 32.5 31.55 32.5 32.05 31.55 L32.05 29.2 32.05 29.0 32.85 28.95 32.25 29.15 32.9 28.95 33.85 29.0 Q35.25 29.25 35.25 30.6 L34.8 31.7 Q36.0 31.75 36.0 32.6 36.0 32.8 34.2 33.75 L23.65 32.85 21.15 32.75 Q21.6 32.2 23.75 31.25 L27.0 30.1 27.0 30.3 27.05 31.35" fill="#5e5e5e" fill-rule="evenodd" stroke="none"/>
      <path d="M34.2 33.75 L35.8 33.85 34.85 60.9 32.9 60.6 30.9 60.15 Q30.75 46.1 29.8 40.9 29.2 37.7 25.0 36.2 L20.9 35.4 21.0 32.75 21.15 32.75 23.65 32.85 34.2 33.75" fill="url(#gradient4)" fill-rule="evenodd" stroke="none"/>
      <path d="M33.8 4.5 L43.85 0.0 48.85 0.15 Q39.9 4.15 38.5 4.35 L33.8 4.5" fill="#928c87" fill-rule="evenodd" stroke="none"/>
      <path d="M48.85 0.15 L48.85 56.55 39.2 61.4 39.2 44.45 39.9 4.5 48.85 0.15" fill="url(#gradient5)" fill-rule="evenodd" stroke="none"/>
      <path d="M33.8 4.5 L38.5 4.35 Q39.9 4.15 48.85 0.15 L39.9 4.5 39.2 44.45 39.15 46.8 39.0 5.15 36.35 4.7 33.8 4.5" fill="#bcb5af" fill-rule="evenodd" stroke="none"/>
      <path d="M39.2 61.4 L33.7 61.15 33.8 4.5 36.35 4.7 39.0 5.15 39.15 46.8 39.2 44.45 39.2 61.4" fill="url(#gradient6)" fill-rule="evenodd" stroke="none"/>
      <path d="M52.6 5.15 L56.8 5.0 Q58.25 4.85 67.0 0.95 L58.25 5.15 58.25 5.2 57.65 41.3 57.5 47.45 57.3 5.85 Q57.25 5.55 55.05 5.4 L54.7 5.35 52.5 5.2 52.1 5.15 52.6 5.15" fill="#bcb5af" fill-rule="evenodd" stroke="none"/>
      <path d="M58.25 5.2 L58.25 5.15 67.0 0.95 Q58.25 4.85 56.8 5.0 L52.6 5.15 62.3 0.8 67.0 0.95 67.3 0.95 58.25 5.2 M52.5 5.2 L54.7 5.35 55.05 5.4 52.2 5.3 52.5 5.2" fill="#928c87" fill-rule="evenodd" stroke="none"/>
      <path d="M55.05 5.4 Q57.25 5.55 57.3 5.85 L57.5 47.45 57.65 41.3 57.65 52.15 57.6 62.65 52.1 62.4 52.2 5.3 55.05 5.4" fill="url(#gradient7)" fill-rule="evenodd" stroke="none"/>
      <path d="M67.3 15.45 L67.55 15.45 67.7 15.45 68.15 15.35 68.25 15.35 68.6 15.4 69.0 15.45 69.45 15.65 68.9 16.15 Q68.4 16.4 68.25 16.6 L67.55 17.4 Q67.35 18.1 67.05 18.15 66.25 18.25 66.4 16.75 66.55 15.5 67.3 15.45 M67.75 15.55 L67.15 15.8 Q66.95 16.0 67.0 16.45 67.55 16.65 67.8 16.45 L68.05 16.15 68.15 15.8 67.75 15.55 M69.8 18.3 Q69.55 18.15 69.55 17.55 69.55 16.3 70.45 16.05 L72.05 16.05 72.8 16.35 70.9 18.05 70.75 18.35 69.8 18.3 M70.25 16.5 Q70.0 16.75 70.25 16.95 L70.85 16.85 71.3 16.45 70.75 16.3 Q70.45 16.2 70.25 16.5 M72.5 17.85 Q73.6 17.05 74.65 17.05 L75.5 17.35 75.85 17.8 76.05 18.55 75.95 19.45 Q75.45 20.15 74.65 20.15 L73.5 20.0 72.8 20.1 72.15 20.3 Q71.55 20.35 71.65 19.6 71.75 18.5 72.4 17.95 L72.5 17.85 M74.55 17.45 L73.9 17.35 Q73.45 17.3 72.95 17.8 72.45 18.3 73.25 18.15 L74.15 18.05 Q74.6 17.95 74.55 17.45 M76.0 22.2 L76.65 21.55 77.5 22.45 77.35 23.2 Q77.2 23.45 76.65 23.55 L75.1 23.65 Q73.85 23.6 74.0 23.15 L74.5 23.1 75.45 22.6 75.65 22.8 76.35 22.85 Q76.7 22.7 76.65 22.3 L76.25 22.1 76.0 22.2 M73.65 24.8 L74.9 24.65 76.2 24.6 77.3 23.95 78.0 24.7 Q78.0 26.2 76.9 26.5 L75.1 26.45 74.8 26.2 74.6 25.85 73.85 25.4 Q73.25 25.05 73.65 24.8 M76.65 24.85 L76.55 24.55 75.75 24.85 Q75.2 25.15 75.5 25.45 L75.9 25.6 76.3 25.55 76.5 25.25 76.65 24.85 M76.3 28.05 L76.95 27.6 77.55 27.3 78.4 27.5 78.45 28.6 77.95 29.15 76.8 29.8 Q75.3 30.05 74.15 29.3 73.65 28.95 73.9 28.7 74.15 28.45 74.65 28.45 L76.3 28.05 M76.8 28.3 L76.45 28.6 Q76.45 28.95 77.0 28.95 L77.65 28.7 77.25 28.05 76.8 28.3" fill="#8f8985" fill-rule="evenodd" stroke="none"/>
      <path d="M69.0 15.45 L69.5 15.45 Q74.5 15.8 76.45 17.6 77.6 18.65 78.25 25.45 78.7 30.4 78.5 32.05 L78.25 32.75 78.45 31.4 78.45 31.3 78.45 29.05 78.3 29.2 77.25 30.1 75.05 30.3 73.25 29.85 Q72.9 29.7 72.9 29.25 L72.9 28.2 73.15 28.1 73.35 28.15 74.5 28.15 Q76.55 28.15 76.55 27.05 L74.7 27.15 Q73.45 27.05 73.0 26.55 72.55 26.1 72.75 25.0 72.8 24.6 73.1 24.55 L73.8 24.55 75.05 24.55 Q75.7 24.4 75.95 23.9 L74.4 23.8 Q73.45 23.7 73.0 23.2 L73.4 23.1 74.65 22.75 Q75.85 22.25 76.15 21.55 L75.0 21.85 73.95 22.05 Q72.35 22.05 71.75 21.4 71.35 20.9 71.65 19.6 71.55 20.35 72.15 20.3 L72.8 20.1 73.5 20.0 74.65 20.15 Q75.45 20.15 75.95 19.45 L76.05 18.55 75.85 17.8 75.5 17.35 74.65 17.05 Q73.6 17.05 72.5 17.85 L73.05 17.2 71.9 17.75 Q71.3 18.1 71.05 18.65 L70.8 19.3 70.3 20.2 70.25 20.5 70.1 20.4 Q69.35 19.8 69.3 19.15 L69.3 19.5 69.25 17.65 Q69.3 16.95 69.5 16.4 L69.0 17.0 Q68.6 17.65 68.55 17.85 L68.6 18.9 68.5 19.95 Q67.2 19.75 66.4 18.95 66.15 18.7 66.15 17.95 L66.1 16.65 Q66.15 15.75 66.45 15.4 L67.3 15.45 Q66.55 15.5 66.4 16.75 66.25 18.25 67.05 18.15 67.35 18.1 67.55 17.4 L68.25 16.6 Q68.4 16.4 68.9 16.15 L69.45 15.65 69.0 15.45 M69.8 18.3 L70.75 18.35 70.9 18.05 72.8 16.35 72.05 16.05 70.45 16.05 Q69.55 16.3 69.55 17.55 69.55 18.15 69.8 18.3 M72.15 28.55 L72.15 29.6 72.1 28.0 72.1 27.8 72.15 28.55 M72.15 30.6 L72.2 30.85 72.15 30.8 72.15 30.6 M65.45 21.9 L66.9 21.85 66.2 21.9 65.45 21.9 M75.45 22.6 L74.5 23.1 74.0 23.15 Q73.85 23.6 75.1 23.65 L76.65 23.55 Q77.2 23.45 77.35 23.2 L77.5 22.45 76.65 21.55 76.0 22.2 75.45 22.6 M73.65 24.8 Q73.25 25.05 73.85 25.4 L74.6 25.85 74.8 26.2 75.1 26.45 76.9 26.5 Q78.0 26.2 78.0 24.7 L77.3 23.95 76.2 24.6 74.9 24.65 73.65 24.8 M76.3 28.05 L74.65 28.45 Q74.15 28.45 73.9 28.7 73.65 28.95 74.15 29.3 75.3 30.05 76.8 29.8 L77.95 29.15 78.45 28.6 78.4 27.5 77.55 27.3 76.95 27.6 76.3 28.05" fill="#736f6b" fill-rule="evenodd" stroke="none"/>
      <path d="M66.05 15.35 L66.5 15.35 66.45 15.4 Q66.15 15.75 66.1 16.65 L66.15 17.95 Q66.15 18.7 66.4 18.95 67.2 19.75 68.5 19.95 L68.6 18.9 68.55 17.85 Q68.6 17.65 69.0 17.0 L69.5 16.4 Q69.3 16.95 69.25 17.65 L68.8 19.3 69.0 20.45 66.9 20.3 Q65.3 19.95 64.9 19.1 64.3 17.65 64.8 16.7 L66.0 15.4 66.05 15.35 M78.45 31.3 L76.75 32.05 73.25 31.85 73.2 31.85 73.05 31.7 72.65 31.15 72.55 30.9 72.55 30.85 72.5 29.55 72.45 28.8 72.65 28.1 73.15 28.1 72.9 28.2 72.9 29.25 Q72.9 29.7 73.25 29.85 L75.05 30.3 77.25 30.1 78.3 29.2 78.45 29.05 78.45 31.3 M74.5 28.15 Q76.3 28.05 76.15 27.5 L75.7 27.45 75.15 27.65 73.5 27.4 72.4 26.35 72.4 25.45 72.5 24.55 73.1 24.4 73.55 24.05 72.6 23.95 Q71.95 23.75 72.25 23.2 L73.2 23.0 74.15 22.9 74.9 22.4 74.35 22.35 73.8 22.4 72.35 22.25 Q71.35 22.15 71.0 21.7 70.6 21.15 70.95 20.1 71.2 19.25 71.7 18.65 71.3 18.8 71.0 19.1 L70.8 19.3 71.05 18.65 Q71.3 18.1 71.9 17.75 L73.05 17.2 72.5 17.85 72.4 17.95 Q71.75 18.5 71.65 19.6 71.35 20.9 71.75 21.4 72.35 22.05 73.95 22.05 L75.0 21.85 76.15 21.55 Q75.85 22.25 74.65 22.75 L73.4 23.1 73.0 23.2 Q73.45 23.7 74.4 23.8 L75.95 23.9 Q75.7 24.4 75.05 24.55 L73.8 24.55 73.1 24.55 Q72.8 24.6 72.75 25.0 72.55 26.1 73.0 26.55 73.45 27.05 74.7 27.15 L76.55 27.05 Q76.55 28.15 74.5 28.15 M70.25 20.5 L70.15 20.95 69.3 19.5 69.3 19.15 Q69.35 19.8 70.1 20.4 L70.25 20.5" fill="#6a6662" fill-rule="evenodd" stroke="none"/>
      <path d="M66.05 15.35 L66.0 15.4 64.8 16.7 Q64.3 17.65 64.9 19.1 65.3 19.95 66.9 20.3 L69.0 20.45 68.8 19.3 69.25 17.65 69.3 19.5 70.15 20.95 70.25 20.5 70.3 20.2 70.8 19.3 71.0 19.1 Q71.3 18.8 71.7 18.65 71.2 19.25 70.95 20.1 70.6 21.15 71.0 21.7 71.35 22.15 72.35 22.25 L73.8 22.4 74.35 22.35 74.9 22.4 74.15 22.9 73.2 23.0 72.25 23.2 Q71.95 23.75 72.6 23.95 L73.55 24.05 73.1 24.4 72.5 24.55 72.4 25.45 72.4 26.35 73.5 27.4 75.15 27.65 75.7 27.45 76.15 27.5 Q76.3 28.05 74.5 28.15 L73.35 28.15 73.15 28.1 72.65 28.1 72.45 28.8 72.5 29.55 72.55 30.85 72.55 30.9 72.65 31.15 73.05 31.7 73.2 31.85 73.25 31.85 76.75 32.05 78.45 31.3 78.45 31.4 77.55 32.3 76.9 32.55 76.45 32.8 75.4 32.85 Q73.65 32.85 72.85 32.05 72.4 31.65 72.2 30.85 L72.15 30.6 72.15 29.6 72.15 28.55 72.15 27.8 72.2 25.75 71.95 23.7 71.5 22.7 70.7 22.25 70.25 21.8 Q69.4 21.1 66.55 21.1 65.5 21.15 64.75 20.5 L64.0 19.35 Q63.65 18.75 63.75 17.45 63.75 16.9 64.15 16.35 L64.8 15.55 64.85 15.45 64.95 15.4 65.95 15.35 66.05 15.35" fill="#514e4b" fill-rule="evenodd" stroke="none"/>
      <path d="M57.65 41.3 L58.25 5.2 67.3 0.95 67.3 15.45 66.45 15.4 66.5 15.35 66.05 15.35 65.95 15.35 65.55 15.1 Q65.0 14.45 64.25 14.45 63.2 14.45 62.4 15.6 61.6 16.8 61.6 18.4 61.6 20.05 62.35 21.4 63.1 22.7 64.1 22.7 L64.4 22.7 64.65 22.7 Q65.5 22.7 66.2 21.9 L66.9 21.85 67.3 21.8 67.3 24.05 67.0 24.0 65.6 23.95 65.45 23.75 65.1 23.4 64.45 23.15 63.65 23.6 Q63.3 24.05 63.3 24.7 63.3 25.35 63.65 25.85 63.95 26.4 64.4 26.4 L64.55 26.4 64.65 26.4 Q65.15 26.4 65.45 25.95 L65.7 25.55 66.0 25.55 67.3 25.6 67.3 31.2 67.1 31.15 59.9 34.2 59.95 34.2 59.9 34.25 59.55 34.25 Q58.75 38.55 58.15 45.75 L57.65 52.15 57.65 41.3" fill="url(#gradient8)" fill-rule="evenodd" stroke="none"/>
      <path d="M65.55 15.1 L65.95 15.35 64.95 15.4 64.85 15.45 Q63.45 16.35 63.2 18.05 L63.1 18.8 63.1 18.85 63.1 18.95 Q63.1 20.65 64.3 21.45 64.85 21.85 65.45 21.9 L66.2 21.9 Q65.5 22.7 64.65 22.7 L64.4 22.7 Q63.55 22.55 62.95 21.55 62.25 20.4 62.25 18.75 62.25 17.1 62.95 15.95 63.65 14.8 64.65 14.8 65.15 14.8 65.55 15.1 M65.1 23.4 L65.45 23.75 65.6 23.95 64.8 23.9 64.55 24.1 64.45 24.25 64.4 24.25 64.4 24.3 64.25 24.7 Q64.25 25.2 64.55 25.6 L65.7 25.55 65.45 25.95 Q65.15 26.4 64.65 26.4 L64.55 26.4 Q64.15 26.35 63.9 25.95 63.55 25.5 63.55 24.85 63.55 24.2 63.9 23.75 64.2 23.3 64.65 23.3 L65.1 23.4" fill="#585552" fill-rule="evenodd" stroke="none"/>
      <path d="M67.75 15.55 L68.15 15.8 68.05 16.15 67.8 16.45 Q67.55 16.65 67.0 16.45 66.95 16.0 67.15 15.8 L67.75 15.55 M70.25 16.5 Q70.45 16.2 70.75 16.3 L71.3 16.45 70.85 16.85 70.25 16.95 Q70.0 16.75 70.25 16.5 M74.55 17.45 Q74.6 17.95 74.15 18.05 L73.25 18.15 Q72.45 18.3 72.95 17.8 73.45 17.3 73.9 17.35 L74.55 17.45 M76.0 22.2 L76.25 22.1 76.65 22.3 Q76.7 22.7 76.35 22.85 L75.65 22.8 75.45 22.6 76.0 22.2 M76.65 24.85 L76.5 25.25 76.3 25.55 75.9 25.6 75.5 25.45 Q75.2 25.15 75.75 24.85 L76.55 24.55 76.65 24.85 M76.8 28.3 L77.25 28.05 77.65 28.7 77.0 28.95 Q76.45 28.95 76.45 28.6 L76.8 28.3" fill="#a59f9a" fill-rule="evenodd" stroke="none"/>
      <path d="M64.85 15.45 L64.8 15.55 64.15 16.35 Q63.75 16.9 63.75 17.45 63.65 18.75 64.0 19.35 L64.75 20.5 Q65.5 21.15 66.55 21.1 69.4 21.1 70.25 21.8 L70.7 22.25 71.5 22.7 71.95 23.7 72.2 25.75 72.15 27.8 72.15 28.55 72.1 27.8 72.1 27.55 72.05 26.85 72.0 26.25 Q71.75 22.9 70.8 22.4 69.65 21.8 67.45 21.8 L67.3 21.8 66.9 21.85 65.45 21.9 Q64.85 21.85 64.3 21.45 63.1 20.65 63.1 18.95 L63.1 18.85 63.1 18.8 63.2 18.05 Q63.45 16.35 64.85 15.45" fill="#2e2e2e" fill-rule="evenodd" stroke="none"/>
      <path d="M64.4 22.7 L64.1 22.7 Q63.1 22.7 62.35 21.4 61.6 20.05 61.6 18.4 61.6 16.8 62.4 15.6 63.2 14.45 64.25 14.45 65.0 14.45 65.55 15.1 65.15 14.8 64.65 14.8 63.65 14.8 62.95 15.95 62.25 17.1 62.25 18.75 62.25 20.4 62.95 21.55 63.55 22.55 64.4 22.7 M64.55 26.4 L64.4 26.4 Q63.95 26.4 63.65 25.85 63.3 25.35 63.3 24.7 63.3 24.05 63.65 23.6 L64.45 23.15 65.1 23.4 64.65 23.3 Q64.2 23.3 63.9 23.75 63.55 24.2 63.55 24.85 63.55 25.5 63.9 25.95 64.15 26.35 64.55 26.4" fill="#373634" fill-rule="evenodd" stroke="none"/>
      <path d="M72.2 30.85 Q72.4 31.65 72.85 32.05 73.65 32.85 75.4 32.85 L76.45 32.8 76.9 32.55 77.55 32.3 78.45 31.4 78.25 32.75 78.0 33.0 77.9 33.1 77.85 33.15 Q76.95 33.75 75.5 33.75 L73.55 33.75 72.35 33.75 Q72.0 33.7 71.7 33.45 71.4 33.1 71.65 32.8 L71.6 32.65 72.05 32.8 72.1 31.55 72.15 31.15 72.15 30.8 72.2 30.85 M64.45 24.25 L65.0 24.2 Q64.85 24.65 65.95 24.75 L67.4 24.8 68.25 25.05 68.7 25.75 68.75 26.7 68.6 26.35 68.15 25.8 68.1 25.8 68.05 25.75 67.3 25.6 66.0 25.55 65.7 25.55 64.55 25.6 Q64.25 25.2 64.25 24.7 L64.4 24.3 64.4 24.25 64.45 24.25 M68.8 27.2 L68.9 28.35 68.85 29.4 69.05 30.45 69.9 31.2 70.25 31.3 70.25 31.4 70.25 32.0 70.25 32.6 70.65 32.65 Q71.0 32.75 71.05 33.0 71.15 33.3 70.55 33.3 L69.3 33.25 68.9 33.1 68.75 32.9 68.8 31.5 68.8 30.2 68.8 27.35 68.8 27.2" fill="#3c3938" fill-rule="evenodd" stroke="none"/>
      <path d="M65.6 23.95 L67.0 24.0 67.3 24.05 Q69.4 24.2 69.8 24.5 70.35 24.9 70.25 31.3 L69.9 31.2 69.05 30.45 68.85 29.4 68.9 28.35 68.8 27.2 68.6 26.35 68.75 26.7 68.7 25.75 68.25 25.05 67.4 24.8 65.95 24.75 Q64.85 24.65 65.0 24.2 L64.45 24.25 64.55 24.1 64.8 23.9 65.6 23.95 M68.8 30.2 L68.8 31.5 68.75 31.5 68.75 31.3 68.8 30.2" fill="#4e4a48" fill-rule="evenodd" stroke="none"/>
      <path d="M78.5 32.05 L81.3 32.25 81.3 32.35 78.75 33.4 81.3 32.25 73.55 35.15 64.9 34.5 Q65.45 32.45 67.1 31.15 L67.3 31.2 68.75 31.3 68.75 31.5 68.8 31.5 68.75 32.9 68.9 33.1 69.3 33.25 70.55 33.3 Q71.15 33.3 71.05 33.0 71.0 32.75 70.65 32.65 L70.25 32.6 70.25 32.0 70.25 31.4 72.1 31.55 72.05 32.8 71.6 32.65 71.65 32.8 Q71.4 33.1 71.7 33.45 72.0 33.7 72.35 33.75 L73.55 33.75 75.5 33.75 Q76.95 33.75 77.85 33.15 L77.9 33.1 78.0 33.0 78.25 32.75 78.5 32.05" fill="url(#gradient9)" fill-rule="evenodd" stroke="none"/>
      <path d="M73.85 40.0 L71.95 40.1 70.55 40.3 Q69.1 40.6 68.6 41.15 L66.35 43.05 Q64.55 44.85 64.1 47.65 63.35 52.15 63.6 62.05 L59.75 61.8 59.75 61.35 59.75 34.3 59.9 34.25 59.95 34.2 60.05 34.2 60.95 34.35 64.8 34.9 73.05 35.75 Q73.35 35.75 73.6 37.1 L73.85 40.0" fill="url(#gradient10)" fill-rule="evenodd" stroke="none"/>
      <path d="M73.6 37.1 Q73.35 35.75 73.05 35.75 L64.8 34.9 64.5 34.85 60.3 34.15 64.9 34.5 73.55 35.15 81.3 32.25 78.75 33.4 77.65 33.85 Q74.0 35.55 73.9 35.75 L73.85 40.0 73.7 37.9 73.6 37.1" fill="#828282" fill-rule="evenodd" stroke="none"/>
      <path d="M81.3 32.35 L80.9 36.0 74.4 40.0 73.85 40.0 73.9 35.75 Q74.0 35.55 77.65 33.85 L78.75 33.4 81.3 32.35 M73.85 40.0 L73.6 37.1 73.7 37.9 73.85 40.0" fill="#383838" fill-rule="evenodd" stroke="none"/>
      <path d="M64.8 34.9 L60.95 34.35 60.05 34.2 59.95 34.2 59.9 34.2 67.1 31.15 Q65.45 32.45 64.9 34.5 L60.3 34.15 64.5 34.85 64.8 34.9" fill="#454545" fill-rule="evenodd" stroke="none"/>
      <path d="M70.55 40.3 Q69.1 41.25 68.8 41.9 68.3 42.95 67.85 45.9 67.45 48.9 67.5 50.65 L67.85 57.35 63.6 62.05 Q63.35 52.15 64.1 47.65 64.55 44.85 66.35 43.05 L68.6 41.15 Q69.1 40.6 70.55 40.3" fill="#2b2b2b" fill-rule="evenodd" stroke="none"/>
      <path d="M59.75 61.35 L57.6 62.65 57.65 52.15 58.15 45.75 Q58.75 38.55 59.55 34.25 L59.9 34.25 59.75 34.3 59.75 61.35" fill="url(#gradient11)" fill-rule="evenodd" stroke="none"/>
    </g>
    <linearGradient gradientTransform="matrix(0.07, 0.0, 0.0, -0.07, 57.35, 59.65)" gradientUnits="userSpaceOnUse" id="gradient0" spreadMethod="pad" x1="-819.2" x2="819.2">
      <stop offset="0.0" stop-color="#5c5c5c"/>
      <stop offset="1.0" stop-color="#525252"/>
    </linearGradient>
    <linearGradient gradientTransform="matrix(0.0513, 0.0, 0.0, -0.0513, 70.9, 41.6)" gradientUnits="userSpaceOnUse" id="gradient1" spreadMethod="pad" x1="-819.2" x2="819.2">
      <stop offset="0.0" stop-color="#575757"/>
      <stop offset="1.0" stop-color="#424242"/>
    </linearGradient>
    <linearGradient gradientTransform="matrix(0.0571, 0.0, 0.0, -0.0571, 57.95, 54.5)" gradientUnits="userSpaceOnUse" id="gradient2" spreadMethod="pad" x1="-819.2" x2="819.2">
      <stop offset="0.0" stop-color="#7d7d7d"/>
      <stop offset="1.0" stop-color="#4f4f4f"/>
    </linearGradient>
    <linearGradient gradientTransform="matrix(0.0442, 0.0, 0.0, -0.0442, 70.15, 35.05)" gradientUnits="userSpaceOnUse" id="gradient3" spreadMethod="pad" x1="-819.2" x2="819.2">
      <stop offset="0.0" stop-color="#201f1e"/>
      <stop offset="1.0" stop-color="#424242"/>
    </linearGradient>
    <linearGradient gradientTransform="matrix(0.0092, 0.0, 0.0, -0.0092, 28.5, 44.45)" gradientUnits="userSpaceOnUse" id="gradient4" spreadMethod="pad" x1="-819.2" x2="819.2">
      <stop offset="0.0" stop-color="#575757"/>
      <stop offset="0.5568627450980392" stop-color="#424242"/>
      <stop offset="1.0" stop-color="#2e2e2e"/>
    </linearGradient>
    <linearGradient gradientTransform="matrix(0.0, 0.0331, 0.0331, 0.0, 43.15, 29.15)" gradientUnits="userSpaceOnUse" id="gradient5" spreadMethod="pad" x1="-819.2" x2="819.2">
      <stop offset="0.0" stop-color="#585552"/>
      <stop offset="0.30980392156862746" stop-color="#54524f"/>
      <stop offset="0.6078431372549019" stop-color="#494745"/>
      <stop offset="0.9058823529411765" stop-color="#363535"/>
      <stop offset="1.0" stop-color="#2e2e2e"/>
    </linearGradient>
    <linearGradient gradientTransform="matrix(0.0027, 0.0342, 0.0342, -0.0027, 36.65, 35.35)" gradientUnits="userSpaceOnUse" id="gradient6" spreadMethod="pad" x1="-819.2" x2="819.2">
      <stop offset="0.0" stop-color="#6b6b6b"/>
      <stop offset="1.0" stop-color="#4f4f4f"/>
    </linearGradient>
    <linearGradient gradientTransform="matrix(0.0026, 0.034, 0.034, -0.0026, 54.8, 32.4)" gradientUnits="userSpaceOnUse" id="gradient7" spreadMethod="pad" x1="-819.2" x2="819.2">
      <stop offset="0.0" stop-color="#6b6b6b"/>
      <stop offset="1.0" stop-color="#4f4f4f"/>
    </linearGradient>
    <linearGradient gradientTransform="matrix(0.0, 0.033, 0.033, 0.0, 61.55, 28.6)" gradientUnits="userSpaceOnUse" id="gradient8" spreadMethod="pad" x1="-819.2" x2="819.2">
      <stop offset="0.0" stop-color="#585552"/>
      <stop offset="0.30980392156862746" stop-color="#54524f"/>
      <stop offset="0.6078431372549019" stop-color="#494745"/>
      <stop offset="0.9058823529411765" stop-color="#363535"/>
      <stop offset="1.0" stop-color="#2e2e2e"/>
    </linearGradient>
    <linearGradient gradientTransform="matrix(0.013, 0.0, 0.0, -0.013, 70.6, 33.3)" gradientUnits="userSpaceOnUse" id="gradient9" spreadMethod="pad" x1="-819.2" x2="819.2">
      <stop offset="0.0" stop-color="#6b6b6b"/>
      <stop offset="1.0" stop-color="#4f4f4f"/>
    </linearGradient>
    <linearGradient gradientTransform="matrix(0.0, 0.0176, 0.0176, 0.0, 70.5, 46.4)" gradientUnits="userSpaceOnUse" id="gradient10" spreadMethod="pad" x1="-819.2" x2="819.2">
      <stop offset="0.0" stop-color="#575757"/>
      <stop offset="0.5568627450980392" stop-color="#424242"/>
      <stop offset="1.0" stop-color="#2e2e2e"/>
    </linearGradient>
    <linearGradient gradientTransform="matrix(0.0, 0.033, 0.033, 0.0, 62.2, 28.6)" gradientUnits="userSpaceOnUse" id="gradient11" spreadMethod="pad" x1="-819.2" x2="819.2">
      <stop offset="0.0" stop-color="#2f2e2d"/>
      <stop offset="1.0" stop-color="#2e2e2e"/>
    </linearGradient>
  </defs>
</svg>
