<?xml version="1.0" encoding="UTF-8" standalone="no"?>
<svg xmlns:xlink="http://www.w3.org/1999/xlink" height="48.35px" width="47.35px" xmlns="http://www.w3.org/2000/svg">
  <g transform="matrix(1.0, 0.0, 0.0, 1.0, 0.0, 0.0)">
    <use height="48.35" transform="matrix(1.0, 0.0, 0.0, 1.0, 0.0, 0.0)" width="47.35" xlink:href="#shape0"/>
  </g>
  <defs>
    <g id="shape0" transform="matrix(1.0, 0.0, 0.0, 1.0, 0.0, 0.0)">
      <path d="M47.35 43.3 Q47.35 45.4 40.4 46.9 33.5 48.35 23.7 48.35 13.85 48.35 6.95 46.9 0.0 45.4 0.0 43.3 0.0 41.2 6.95 39.75 13.85 38.25 23.7 38.25 33.5 38.25 40.4 39.75 47.35 41.2 47.35 43.3" fill="url(#gradient0)" fill-rule="evenodd" stroke="none"/>
      <path d="M39.65 1.85 Q40.95 1.95 41.0 2.55 L40.75 3.2 40.4 3.45 40.3 2.65 39.65 1.85 M10.15 5.0 L10.25 5.05 10.65 5.2 14.55 5.5 18.75 5.8 21.55 6.65 24.2 7.5 Q26.45 7.9 29.85 6.55 31.05 6.1 33.0 6.0 L35.4 6.05 35.6 6.1 35.6 6.15 35.25 6.35 32.6 6.6 29.7 7.35 25.75 7.8 22.7 7.35 20.55 6.45 16.1 5.9 11.2 5.75 Q9.35 5.65 9.45 5.15 L9.9 4.7 10.15 5.0" fill="#6b9eb2" fill-rule="evenodd" stroke="none"/>
      <path d="M10.1 4.2 Q10.2 4.65 11.4 4.7 L14.95 4.7 18.5 5.0 20.65 5.9 22.65 6.65 24.65 6.9 27.1 6.7 30.25 5.8 33.95 5.4 35.85 5.85 37.8 4.8 38.85 4.4 40.0 3.8 39.95 4.4 36.8 6.25 35.75 6.9 35.65 6.95 35.65 6.55 35.65 6.5 35.65 6.25 35.6 6.15 35.6 6.1 35.4 6.05 33.0 6.0 Q31.05 6.1 29.85 6.55 26.45 7.9 24.2 7.5 L21.55 6.65 18.75 5.8 14.55 5.5 10.65 5.2 10.25 5.05 10.15 5.0 9.95 4.55 10.0 4.35 10.1 4.2" fill="#ffffff" fill-rule="evenodd" stroke="none"/>
      <path d="M40.35 3.6 L42.5 2.35 40.8 3.95 39.95 4.5 36.6 6.6 35.8 7.05 33.15 8.5 30.6 10.0 30.6 10.25 30.5 10.25 29.4 10.4 29.35 10.4 29.25 10.45 29.0 10.5 29.0 10.3 22.65 9.35 14.3 8.3 6.7 7.45 3.95 7.15 5.45 6.95 11.25 7.25 27.85 9.0 30.95 8.6 35.25 6.35 35.6 6.15 35.65 6.25 35.65 6.5 35.65 6.55 35.65 6.95 35.75 6.9 36.8 6.25 39.95 4.4 40.0 3.8 38.85 4.4 40.35 3.6 M6.55 17.5 Q7.2 17.7 7.6 18.45 8.2 19.5 8.2 21.0 8.15 22.35 7.35 23.0 L5.1 23.15 Q4.2 22.75 4.05 21.55 4.2 22.6 5.05 22.95 L7.25 22.85 Q8.1 22.2 8.1 20.9 8.1 19.45 7.55 18.45 7.15 17.75 6.55 17.5" fill="#bef0fe" fill-rule="evenodd" stroke="none"/>
      <path d="M36.6 6.6 L36.5 6.85 Q36.4 7.45 36.7 7.75 L37.95 7.95 Q37.35 8.35 36.8 8.2 L36.35 7.9 Q36.0 7.55 35.8 7.05 L36.6 6.6" fill="#d6f2fa" fill-rule="evenodd" stroke="none"/>
      <path d="M35.9 15.5 L36.15 15.4 36.4 15.35 36.45 15.3 37.3 14.75 38.3 14.5 39.0 14.8 39.1 14.85 38.85 14.8 38.25 14.9 37.3 15.55 35.7 15.9 34.8 15.8 34.4 15.5 34.4 15.45 34.55 15.55 34.8 15.6 35.15 15.6 35.25 15.6 35.9 15.5 M41.45 18.15 L41.5 18.15 41.65 18.2 41.8 18.25 41.85 18.25 42.15 18.35 42.0 18.35 41.15 18.25 Q40.6 18.0 40.6 17.55 L40.75 17.7 40.85 17.8 40.9 17.85 41.05 17.95 41.1 18.0 41.45 18.15 M40.1 29.95 L40.05 29.9 39.95 29.2 40.0 28.45 40.05 27.0 Q40.15 26.25 40.55 25.65 L41.15 24.85 41.2 23.85 41.3 22.4 Q41.45 21.6 42.1 21.4 L42.35 21.35 42.25 21.55 42.1 21.65 Q41.55 22.35 41.55 23.5 L41.7 25.45 41.65 25.5 Q40.65 26.1 40.5 27.2 L40.5 27.95 40.45 28.55 Q40.2 29.45 40.7 29.95 L40.75 30.0 40.1 29.95" fill="#7faa49" fill-rule="evenodd" stroke="none"/>
      <path d="M33.85 12.45 L34.1 12.95 34.25 13.75 Q34.35 14.5 34.6 14.85 L34.95 15.3 35.55 15.55 35.25 15.6 35.15 15.6 34.8 15.6 34.55 15.55 34.4 15.45 34.3 15.4 Q33.85 15.1 34.0 13.7 L33.85 12.45 M40.6 15.7 L40.7 15.8 40.8 16.4 Q40.8 17.3 40.95 17.6 L41.2 18.0 41.05 17.95 40.9 17.85 40.85 17.8 40.75 17.7 Q40.15 17.1 40.3 16.55 L40.6 15.95 40.6 15.7 M42.3 20.2 L41.75 20.9 Q41.5 21.05 41.2 21.15 L40.55 21.3 40.2 21.35 40.4 21.1 41.0 20.6 41.65 20.5 42.3 20.2 M39.15 22.75 Q38.9 23.9 38.45 24.3 L38.05 24.6 36.3 24.6 34.95 24.7 Q34.45 24.8 34.35 25.1 L33.85 25.9 33.55 26.55 32.5 28.5 31.65 29.25 31.4 29.4 30.7 29.8 30.35 29.85 30.7 29.4 31.8 28.15 32.55 26.5 33.1 25.45 Q33.4 24.75 33.8 24.5 34.3 24.1 35.4 24.1 L37.4 24.1 38.4 23.85 39.0 22.95 39.1 22.85 39.15 22.75" fill="#334f5c" fill-rule="evenodd" stroke="none"/>
      <path d="M28.5 35.9 L31.55 34.9 34.65 33.7 38.65 31.05 38.55 32.95 35.1 35.2 33.05 36.3 31.55 37.0 29.05 38.1 28.45 38.2 28.45 38.05 28.45 37.9 28.45 37.5 28.5 36.75 28.5 35.9" fill="#594b29" fill-rule="evenodd" stroke="none"/>
      <path d="M28.25 38.2 L28.35 38.2 28.35 38.25 28.4 38.2 28.45 38.2 29.05 38.1 31.55 37.0 33.05 36.3 33.0 38.55 33.0 38.7 33.0 38.85 32.95 39.35 32.7 40.15 31.3 41.4 29.75 42.45 Q29.15 42.8 27.55 43.25 L27.65 43.1 28.1 42.35 28.15 41.45 28.25 38.2" fill="#524525" fill-rule="evenodd" stroke="none"/>
      <path d="M15.1 43.1 L15.5 42.4 18.65 40.05 Q18.7 41.4 18.95 41.85 L19.15 42.1 19.05 42.1 19.2 42.15 19.75 42.35 24.35 42.95 24.5 42.95 27.55 43.25 28.65 43.25 Q30.05 43.1 32.2 41.5 L34.5 39.6 34.9 39.15 34.1 38.9 33.0 38.85 33.0 38.7 34.6 38.85 Q35.8 39.05 36.05 39.35 L33.4 41.25 29.85 43.8 28.15 44.15 19.05 43.1 15.9 42.95 15.1 43.1" fill="#9d8444" fill-rule="evenodd" stroke="none"/>
      <path d="M33.0 38.85 L34.1 38.9 34.9 39.15 34.5 39.6 32.2 41.5 Q30.05 43.1 28.65 43.25 L27.55 43.25 Q29.15 42.8 29.75 42.45 L31.3 41.4 32.7 40.15 32.95 39.35 33.0 38.85 M19.2 42.15 L19.05 42.1 19.15 42.1 19.2 42.15" fill="#715e2c" fill-rule="evenodd" stroke="none"/>
      <path d="M14.5 34.6 L19.45 35.1 24.75 35.5 28.05 35.9 28.25 37.7 28.35 38.2 28.25 38.2 27.8 38.2 26.8 38.15 18.55 37.4 12.1 36.55 Q12.0 36.1 12.05 34.7 L12.1 34.7 12.85 34.75 13.6 34.7 13.75 34.6 14.5 34.6 M15.5 42.4 L15.1 43.1 16.6 43.3 20.75 43.8 25.35 44.45 28.8 45.05 29.05 46.45 29.1 46.4 29.1 46.45 29.1 46.6 29.1 46.95 29.1 46.65 29.05 46.5 29.05 46.95 29.15 47.6 29.15 47.45 29.4 47.7 29.35 47.75 29.1 47.8 23.5 47.35 19.1 46.8 15.25 46.1 Q14.7 45.85 14.6 44.7 14.55 43.8 15.0 43.05 L15.5 42.4 M28.45 38.2 L28.4 38.2 28.45 38.05 28.45 38.2" fill="#957e41" fill-rule="evenodd" stroke="none"/>
      <path d="M28.45 35.9 L28.5 35.9 28.5 36.75 28.45 37.5 28.45 37.9 28.45 38.05 28.4 38.2 28.35 38.25 28.35 38.2 28.25 37.7 28.05 35.9 28.45 35.9 M27.8 38.2 L28.25 38.2 28.15 41.45 28.1 42.35 27.65 43.1 27.6 43.1 27.8 42.35 27.8 38.2 M29.05 46.45 L28.8 45.05 25.35 44.45 20.75 43.8 16.6 43.3 15.1 43.1 15.9 42.95 19.05 43.1 28.15 44.15 29.85 43.8 33.4 41.25 36.05 39.35 34.1 41.1 31.95 42.85 29.0 44.95 29.05 46.45" fill="#b99c54" fill-rule="evenodd" stroke="none"/>
      <path d="M29.05 11.55 L28.55 11.8 26.15 11.8 25.7 11.85 24.45 12.4 23.95 12.75 23.7 12.85 22.5 13.05 21.85 13.2 20.2 14.7 19.9 15.15 19.75 15.45 18.65 16.65 18.6 16.35 18.6 15.95 Q18.5 15.75 18.25 16.25 L18.1 16.45 17.7 16.75 17.05 17.25 16.65 18.1 16.65 18.9 16.75 19.1 Q16.4 20.15 16.4 20.5 L16.45 20.8 16.5 20.95 16.3 20.4 16.25 20.3 Q16.1 19.85 16.1 18.9 16.1 18.05 16.35 17.65 16.8 16.65 17.0 16.4 L18.05 15.55 19.15 14.75 20.1 13.25 Q20.6 12.45 22.05 12.15 L24.3 11.55 Q25.05 11.1 26.3 11.1 28.1 11.0 29.0 10.5 L29.05 11.55 M23.85 18.95 Q25.4 18.6 26.3 20.05 27.0 21.2 26.95 22.85 26.95 24.35 25.9 25.05 L23.15 25.2 Q21.8 24.65 21.85 22.85 21.85 24.5 23.15 25.0 L25.85 24.85 Q26.85 24.15 26.85 22.7 26.9 21.15 26.2 20.0 25.35 18.65 23.85 18.95 M3.55 15.75 L3.5 15.6 Q3.35 15.25 3.55 14.7 L4.05 14.05 4.7 13.55 Q5.05 12.8 5.35 12.55 L6.15 12.4 7.35 12.65 7.75 12.9 Q7.75 13.2 7.15 13.1 L6.1 12.85 5.55 12.85 5.3 13.4 4.8 14.0 4.0 14.6 Q3.65 14.95 3.55 15.75 M23.95 27.4 L24.05 27.5 23.65 27.5 22.15 27.25 22.0 27.2 21.75 27.3 21.5 27.3 21.15 27.4 20.05 27.4 18.95 27.6 18.8 28.2 18.5 28.6 18.1 29.3 18.1 30.1 18.0 29.75 18.0 29.05 18.25 28.5 18.7 27.7 Q18.7 27.2 19.2 27.05 L20.2 27.05 21.25 27.0 21.85 26.75 22.8 26.85 Q23.15 26.95 23.95 27.4" fill="#b4dc84" fill-rule="evenodd" stroke="none"/>
      <path d="M5.15 11.35 L5.15 11.75 4.6 12.5 Q4.1 12.85 3.65 12.5 L3.35 12.15 3.65 12.35 4.4 12.25 4.6 12.0 4.75 11.95 4.95 11.75 5.15 11.35 M4.2 18.7 L4.15 19.0 Q4.0 19.6 3.25 19.5 L3.05 18.85 3.25 19.05 3.65 18.85 4.2 18.7 M6.0 10.75 L6.05 10.8 Q6.6 11.35 7.05 11.05 L7.25 10.55 7.15 10.0 7.45 10.55 Q7.6 11.3 7.15 11.45 6.6 11.7 6.2 11.2 L6.0 10.75 M10.1 15.05 L10.35 15.35 Q10.65 15.9 10.15 16.5 L9.15 17.15 Q8.6 17.4 7.8 17.15 L5.25 16.65 4.75 16.5 4.6 16.45 4.85 16.4 4.7 16.45 5.4 16.35 6.2 16.5 7.65 16.7 8.85 16.65 Q9.85 16.4 10.15 15.85 L10.2 15.8 10.2 15.7 10.25 15.55 10.2 15.3 10.1 15.05 M9.15 19.85 L9.65 20.15 11.05 20.4 Q11.55 20.45 12.0 20.0 L12.9 19.35 13.05 18.9 Q13.55 19.15 13.45 19.6 L12.85 20.15 11.95 20.5 Q11.05 21.15 10.25 20.95 L9.45 20.5 9.15 19.85" fill="#548195" fill-rule="evenodd" stroke="none"/>
      <path d="M30.6 10.25 L30.6 10.55 30.4 22.85 30.15 30.05 30.15 30.2 29.25 30.1 29.15 30.1 29.15 29.95 29.25 29.1 29.35 23.3 29.35 15.35 29.1 12.65 29.05 11.55 29.0 10.5 29.25 10.45 29.35 10.4 29.4 10.4 30.5 10.25 30.6 10.25" fill="#a6d56c" fill-rule="evenodd" stroke="none"/>
      <path d="M20.75 23.55 L21.1 24.55 Q21.25 24.8 21.75 25.1 L22.95 25.35 24.2 25.65 25.75 26.5 26.45 27.2 26.8 27.35 27.05 27.65 27.2 27.75 27.25 28.05 27.65 28.15 27.7 28.6 27.9 29.0 28.75 29.1 29.25 29.1 29.15 29.95 29.1 29.95 28.05 29.75 27.95 29.75 27.8 29.7 27.35 29.3 27.3 29.2 27.2 28.85 Q27.1 28.25 26.8 28.1 L26.05 27.5 Q25.65 26.75 24.55 26.4 L22.35 25.65 21.55 25.25 Q21.05 24.9 20.9 24.35 L20.8 23.85 20.75 23.75 20.75 23.65 20.75 23.55 M9.35 14.35 L9.45 14.45 9.55 14.5 9.85 14.75 10.1 15.05 10.2 15.3 10.25 15.55 10.2 15.7 10.2 15.8 10.15 15.85 Q9.85 16.4 8.85 16.65 L7.65 16.7 6.2 16.5 5.4 16.35 4.7 16.45 4.85 16.4 5.35 16.2 5.95 16.0 6.55 16.2 7.25 16.35 9.3 16.15 9.85 15.5 9.75 14.95 9.4 14.45 9.3 14.35 9.35 14.35 M19.75 31.35 L20.2 31.15 20.75 31.15 21.05 31.35 22.55 31.75 23.75 31.4 24.55 30.85 24.65 29.95 Q24.65 28.8 24.25 28.4 L24.1 28.0 24.3 27.7 Q24.9 28.3 25.05 29.05 L25.1 29.2 25.15 29.8 25.1 30.9 24.4 31.7 22.85 31.95 21.5 31.75 20.15 31.35 19.75 31.35" fill="#628436" fill-rule="evenodd" stroke="none"/>
      <path d="M5.5 24.1 L6.6 25.05 7.75 27.45 Q8.4 28.45 9.65 28.65 L9.45 28.65 7.95 28.4 Q7.1 27.95 6.5 26.65 L6.1 25.3 5.5 24.1 M14.1 27.75 L14.8 29.7 15.05 30.8 15.35 31.55 14.55 30.5 Q14.2 29.9 14.2 29.25 L14.1 27.8 14.1 27.75 M15.45 31.65 L15.8 32.45 Q15.95 32.95 15.55 33.35 15.0 34.0 15.05 34.6 L14.5 34.6 13.75 34.6 13.8 34.5 13.8 34.15 13.85 33.5 14.55 33.05 15.4 32.75 Q15.8 32.35 15.45 31.65 M17.05 21.5 L17.3 21.7 Q18.6 22.6 19.9 22.8 20.5 22.9 20.7 23.5 L20.75 23.55 20.75 23.65 20.75 23.75 20.8 23.85 19.1 23.35 18.7 23.15 17.95 22.5 17.35 21.85 17.05 21.5 M27.65 29.65 L27.8 29.7 27.95 29.75 28.05 29.75 29.1 29.95 29.05 30.15 28.9 30.25 28.45 30.35 27.65 29.65 M27.3 29.2 L27.05 28.9 26.6 28.35 Q26.05 28.1 25.15 27.0 L24.4 26.8 Q23.3 26.7 22.85 26.3 L22.4 25.7 22.35 25.65 24.55 26.4 Q25.65 26.75 26.05 27.5 L26.8 28.1 Q27.1 28.25 27.2 28.85 L27.3 29.2 M18.85 31.1 L19.75 31.35 20.15 31.35 21.5 31.75 22.85 31.95 24.4 31.7 25.1 30.9 25.15 29.8 25.1 29.2 25.05 29.05 24.95 28.65 25.35 29.15 25.55 29.75 25.4 31.2 25.2 31.75 24.8 32.1 24.1 32.45 22.45 32.5 20.4 31.95 19.85 31.9 19.2 31.55 18.85 31.1" fill="#426677" fill-rule="evenodd" stroke="none"/>
      <path d="M3.3 24.05 L3.35 23.95 3.75 23.55 4.05 23.45 4.1 23.45 4.75 23.6 5.5 24.1 6.1 25.3 6.5 26.65 Q7.1 27.95 7.95 28.4 L9.45 28.65 9.65 28.65 Q10.4 28.5 10.85 28.1 L11.95 27.2 Q12.55 26.8 13.3 26.9 13.9 26.95 14.05 27.45 L14.0 27.5 13.0 27.65 12.15 27.7 11.3 28.2 11.0 28.55 10.65 28.85 9.65 28.95 8.65 28.9 Q6.95 28.9 6.2 28.2 5.45 27.45 5.3 26.6 5.2 25.35 4.8 24.7 4.5 24.1 4.1 24.05 L3.3 24.05" fill="#908061" fill-rule="evenodd" stroke="none"/>
      <path d="M30.15 30.2 L30.1 30.85 30.15 32.15 29.95 33.45 Q29.5 34.55 28.7 35.45 L28.6 35.5 29.1 33.4 29.1 30.7 29.15 30.1 29.25 30.1 30.15 30.2" fill="#7fafbc" fill-rule="evenodd" stroke="none"/>
      <path d="M18.55 37.4 L26.8 38.15 27.8 38.2 27.8 42.35 27.6 43.1 27.65 43.1 27.55 43.25 24.5 42.95 24.35 42.95 19.75 42.35 19.2 42.15 19.15 42.1 18.95 41.85 Q18.7 41.4 18.65 40.05 L18.6 39.55 18.55 37.4" fill="#846e35" fill-rule="evenodd" stroke="none"/>
      <path d="M36.8 8.2 L38.05 7.95 Q39.2 7.2 39.0 6.85 38.75 6.45 38.85 6.3 L39.95 4.5 40.8 3.95 42.5 2.35 Q43.3 3.1 43.65 4.35 L43.65 4.6 43.9 13.85 43.9 21.45 43.7 21.25 42.35 21.35 42.1 21.4 Q41.45 21.6 41.3 22.4 L41.2 23.85 41.15 24.85 40.55 25.65 Q40.15 26.25 40.05 27.0 L40.0 28.45 39.95 29.2 40.05 29.9 40.1 29.95 39.0 30.75 38.65 31.05 34.65 33.7 31.55 34.9 28.5 35.9 28.45 35.9 28.5 35.8 28.7 35.45 Q29.5 34.55 29.95 33.45 L30.15 32.15 30.1 30.85 30.15 30.2 30.15 30.05 30.2 30.05 30.2 30.0 30.25 29.95 30.35 29.85 30.7 29.8 31.4 29.4 31.65 29.25 32.5 28.5 33.55 26.55 33.85 25.9 34.35 25.1 Q34.45 24.8 34.95 24.7 L36.3 24.6 38.05 24.6 38.45 24.3 Q38.9 23.9 39.15 22.75 L39.45 22.35 40.2 21.35 40.55 21.3 41.2 21.15 Q41.5 21.05 41.75 20.9 L42.3 20.2 42.6 19.5 42.55 18.7 42.2 18.35 42.15 18.35 41.85 18.25 41.8 18.25 41.65 18.2 41.5 18.15 41.45 18.15 41.2 18.0 40.95 17.6 Q40.8 17.3 40.8 16.4 L40.7 15.8 40.6 15.7 40.3 15.45 39.1 14.85 39.0 14.8 38.3 14.5 37.3 14.75 36.45 15.3 36.4 15.35 36.15 15.4 35.9 15.5 35.55 15.55 34.95 15.3 34.6 14.85 Q34.35 14.5 34.25 13.75 L34.1 12.95 33.85 12.45 Q33.55 11.2 32.5 10.75 L30.95 10.5 30.6 10.55 30.6 10.25 30.6 10.0 33.15 8.5 35.8 7.05 Q36.0 7.55 36.35 7.9 L36.8 8.2" fill="url(#gradient1)" fill-rule="evenodd" stroke="none"/>
      <path d="M40.4 3.45 L40.75 3.2 41.0 2.55 Q40.95 1.95 39.65 1.85 L39.1 1.55 39.8 1.6 Q42.05 1.85 42.5 2.35 L40.35 3.6 40.4 3.45 M10.1 4.2 L10.0 4.35 9.95 4.55 9.9 4.7 9.45 5.15 Q9.35 5.65 11.2 5.75 L16.1 5.9 20.55 6.45 22.7 7.35 25.75 7.8 29.7 7.35 32.6 6.6 35.25 6.35 30.95 8.6 27.85 9.0 11.25 7.25 5.45 6.95 3.95 7.15 4.75 6.2 Q6.9 4.75 10.9 2.7 15.7 0.25 17.45 0.15 L17.95 0.15 21.15 0.15 18.3 0.6 15.95 1.25 13.85 2.35 13.15 2.6 12.1 2.8 10.25 4.05 10.1 4.2" fill="url(#gradient2)" fill-rule="evenodd" stroke="none"/>
      <path d="M39.65 1.85 L40.3 2.65 40.4 3.45 40.35 3.6 38.85 4.4 37.8 4.8 35.85 5.85 33.95 5.4 30.25 5.8 27.1 6.7 24.65 6.9 22.65 6.65 20.65 5.9 18.5 5.0 14.95 4.7 11.4 4.7 Q10.2 4.65 10.1 4.2 L10.25 4.05 12.1 2.8 13.15 2.6 13.85 2.35 15.95 1.25 18.3 0.6 21.15 0.15 21.25 0.15 25.2 0.0 30.7 0.45 36.9 1.1 39.1 1.55 39.65 1.85 M9.95 4.55 L10.15 5.0 9.9 4.7 9.95 4.55" fill="url(#gradient3)" fill-rule="evenodd" stroke="none"/>
      <path d="M39.95 4.5 L38.85 6.3 Q38.75 6.45 39.0 6.85 39.2 7.2 38.05 7.95 L36.8 8.2 Q37.35 8.35 37.95 7.95 L36.7 7.75 Q36.4 7.45 36.5 6.85 L36.6 6.6 39.95 4.5" fill="url(#gradient4)" fill-rule="evenodd" stroke="none"/>
      <path d="M30.6 10.55 L30.95 10.5 32.5 10.75 Q33.55 11.2 33.85 12.45 L34.0 13.7 Q33.85 15.1 34.3 15.4 L34.4 15.45 34.4 15.5 34.8 15.8 35.7 15.9 37.3 15.55 38.25 14.9 38.85 14.8 39.1 14.85 40.3 15.45 40.6 15.7 40.6 15.95 40.3 16.55 Q40.15 17.1 40.75 17.7 L40.6 17.55 Q40.6 18.0 41.15 18.25 L42.0 18.35 42.15 18.35 42.2 18.35 42.55 18.7 42.6 19.5 42.3 20.2 41.65 20.5 41.0 20.6 40.4 21.1 40.2 21.35 39.45 22.35 39.15 22.75 39.1 22.85 39.0 22.95 38.4 23.85 37.4 24.1 35.4 24.1 Q34.3 24.1 33.8 24.5 33.4 24.75 33.1 25.45 L32.55 26.5 31.8 28.15 30.7 29.4 30.35 29.85 30.25 29.95 30.2 30.0 30.2 30.05 30.15 30.05 30.4 22.85 30.6 10.55" fill="url(#gradient5)" fill-rule="evenodd" stroke="none"/>
      <path d="M35.55 15.55 L35.9 15.5 35.25 15.6 35.55 15.55 M41.2 18.0 L41.45 18.15 41.1 18.0 41.05 17.95 41.2 18.0 M16.3 20.4 L16.5 20.95 16.45 20.8 16.4 20.5 Q16.4 20.15 16.75 19.1 L16.65 18.9 16.65 18.1 17.05 17.25 17.7 16.75 18.1 16.45 18.25 16.25 Q18.5 15.75 18.6 15.95 L18.6 16.35 18.65 16.65 19.75 15.45 19.9 15.15 20.2 14.7 21.85 13.2 22.5 13.05 23.7 12.85 23.95 12.75 24.45 12.4 25.7 11.85 26.15 11.8 28.55 11.8 29.05 11.55 29.1 12.65 29.35 15.35 29.35 23.3 29.25 29.1 28.75 29.1 27.9 29.0 27.7 28.6 27.65 28.15 27.25 28.05 27.2 27.75 27.05 27.65 26.8 27.35 26.45 27.2 25.75 26.5 24.2 25.65 22.95 25.35 21.75 25.1 Q21.25 24.8 21.1 24.55 L20.75 23.55 20.7 23.5 Q20.5 22.9 19.9 22.8 18.6 22.6 17.3 21.7 L17.05 21.5 16.6 21.1 16.3 20.4 M21.85 22.85 Q21.8 24.65 23.15 25.2 L25.9 25.05 Q26.95 24.35 26.95 22.85 27.0 21.2 26.3 20.05 25.4 18.6 23.85 18.95 L23.8 18.95 23.7 19.0 Q22.15 19.75 22.05 21.3 L21.9 21.85 Q21.8 22.4 21.85 22.85 M27.65 29.65 L27.35 29.3 27.8 29.7 27.65 29.65" fill="url(#gradient6)" fill-rule="evenodd" stroke="none"/>
      <path d="M42.35 21.35 L43.7 21.25 43.9 21.45 44.15 21.7 44.2 22.8 44.25 23.9 44.25 25.2 43.9 26.5 43.6 26.9 43.4 27.4 42.15 28.6 41.85 29.05 41.5 29.45 40.8 29.95 40.75 30.0 40.7 29.95 Q40.2 29.45 40.45 28.55 L40.5 27.95 40.5 27.2 Q40.65 26.1 41.65 25.5 L41.7 25.45 41.55 23.5 Q41.55 22.35 42.1 21.65 L42.25 21.55 42.35 21.35" fill="url(#gradient7)" fill-rule="evenodd" stroke="none"/>
      <path d="M28.7 35.45 L28.5 35.8 28.45 35.9 28.05 35.9 24.75 35.5 19.45 35.1 14.5 34.6 15.05 34.6 Q15.0 34.0 15.55 33.35 15.95 32.95 15.8 32.45 L15.45 31.65 15.4 31.6 15.35 31.55 15.05 30.8 14.8 29.7 14.1 27.75 14.0 27.5 14.05 27.45 Q13.9 26.95 13.3 26.9 12.55 26.8 11.95 27.2 L10.85 28.1 Q10.4 28.5 9.65 28.65 8.4 28.45 7.75 27.45 L6.6 25.05 5.5 24.1 4.75 23.6 4.1 23.45 4.05 23.45 3.75 23.55 3.35 23.95 3.3 24.05 3.15 24.45 2.95 18.65 3.05 18.85 3.25 19.5 Q4.0 19.6 4.15 19.0 L4.2 18.7 4.4 18.65 Q4.15 19.2 4.05 20.05 L4.0 21.05 4.05 21.55 Q4.2 22.75 5.1 23.15 L7.35 23.0 Q8.15 22.35 8.2 21.0 8.2 19.5 7.6 18.45 7.2 17.7 6.55 17.5 L5.6 17.45 Q5.1 17.55 4.75 18.05 L4.75 17.95 4.5 17.4 4.0 17.05 Q3.35 16.5 2.95 16.75 L2.9 16.8 2.85 13.95 3.0 11.45 3.05 11.7 3.35 12.15 3.65 12.5 Q4.1 12.85 4.6 12.5 L5.15 11.75 5.15 11.35 5.1 10.85 4.75 10.45 4.05 9.9 3.4 10.0 3.1 10.5 Q3.35 8.3 3.95 7.15 L6.7 7.45 14.3 8.3 22.65 9.35 29.0 10.3 29.0 10.5 Q28.1 11.0 26.3 11.1 25.05 11.1 24.3 11.55 L22.05 12.15 Q20.6 12.45 20.1 13.25 L19.15 14.75 18.05 15.55 17.0 16.4 Q16.8 16.65 16.35 17.65 16.1 18.05 16.1 18.9 16.1 19.85 16.25 20.3 L16.3 20.4 16.6 21.1 17.05 21.5 17.35 21.85 17.95 22.5 18.7 23.15 19.1 23.35 20.8 23.85 20.9 24.35 Q21.05 24.9 21.55 25.25 L22.35 25.65 22.4 25.7 22.85 26.3 Q23.3 26.7 24.4 26.8 L25.15 27.0 Q26.05 28.1 26.6 28.35 L27.05 28.9 27.3 29.2 27.35 29.3 27.65 29.65 28.45 30.35 28.9 30.25 29.05 30.15 29.1 29.95 29.15 29.95 29.15 30.1 29.1 30.7 29.1 33.4 28.6 35.5 28.7 35.45 M7.15 10.0 L7.1 9.95 6.65 9.55 Q6.25 9.4 6.05 9.55 5.8 9.75 5.85 10.2 5.85 10.55 6.0 10.75 L6.2 11.2 Q6.6 11.7 7.15 11.45 7.6 11.3 7.45 10.55 L7.15 10.0 M7.35 12.65 L6.15 12.4 5.35 12.55 Q5.05 12.8 4.7 13.55 L4.05 14.05 3.55 14.7 Q3.35 15.25 3.5 15.6 L3.55 15.75 3.6 15.8 Q3.85 16.2 4.45 16.4 L4.6 16.45 4.75 16.5 5.25 16.65 7.8 17.15 Q8.6 17.4 9.15 17.15 L10.15 16.5 Q10.65 15.9 10.35 15.35 L10.1 15.05 9.85 14.75 9.55 14.5 9.45 14.45 9.35 14.35 8.3 13.45 7.35 12.65 M13.05 18.9 L12.45 18.35 11.55 17.7 Q11.05 17.3 10.65 17.4 10.25 17.5 9.6 18.15 9.0 18.85 8.95 19.35 L9.0 19.55 9.15 19.85 9.45 20.5 10.25 20.95 Q11.05 21.15 11.95 20.5 L12.85 20.15 13.45 19.6 Q13.55 19.15 13.05 18.9 M4.05 31.85 L3.85 31.4 3.95 31.6 4.05 31.85 M23.95 27.4 Q23.15 26.95 22.8 26.85 L21.85 26.75 21.25 27.0 20.2 27.05 19.2 27.05 Q18.7 27.2 18.7 27.7 L18.25 28.5 18.0 29.05 18.0 29.75 18.1 30.1 18.6 30.9 18.85 31.1 19.2 31.55 19.85 31.9 20.4 31.95 22.45 32.5 24.1 32.45 24.8 32.1 25.2 31.75 25.4 31.2 25.55 29.75 25.35 29.15 24.95 28.65 Q24.65 27.85 23.95 27.4" fill="url(#gradient8)" fill-rule="evenodd" stroke="none"/>
      <path d="M9.15 19.85 L9.0 19.55 8.95 19.35 Q9.0 18.85 9.6 18.15 10.25 17.5 10.65 17.4 11.05 17.3 11.55 17.7 L12.45 18.35 13.05 18.9 12.9 19.35 12.0 20.0 Q11.55 20.45 11.05 20.4 L9.65 20.15 9.15 19.85" fill="url(#gradient9)" fill-rule="evenodd" stroke="none"/>
      <path d="M23.85 18.95 Q25.35 18.65 26.2 20.0 26.9 21.15 26.85 22.7 26.85 24.15 25.85 24.85 L23.15 25.0 Q21.85 24.5 21.85 22.85 21.8 22.4 21.9 21.85 L22.05 21.3 Q22.15 19.75 23.7 19.0 L23.8 18.95 23.85 18.95 M23.9 19.5 Q22.7 19.75 22.35 21.8 22.05 23.85 23.35 24.35 L25.55 24.25 Q26.35 23.65 26.35 22.5 26.35 21.2 25.8 20.35 25.1 19.25 23.9 19.5" fill="url(#gradient10)" fill-rule="evenodd" stroke="none"/>
      <path d="M23.9 19.5 Q25.1 19.25 25.8 20.35 26.35 21.2 26.35 22.5 26.35 23.65 25.55 24.25 L23.35 24.35 Q22.05 23.85 22.35 21.8 22.7 19.75 23.9 19.5" fill="url(#gradient11)" fill-rule="evenodd" stroke="none"/>
      <path d="M6.0 10.75 Q5.85 10.55 5.85 10.2 5.8 9.75 6.05 9.55 6.25 9.4 6.65 9.55 L7.1 9.95 7.15 10.0 7.25 10.55 7.05 11.05 Q6.6 11.35 6.05 10.8 L6.0 10.75" fill="url(#gradient12)" fill-rule="evenodd" stroke="none"/>
      <path d="M3.55 15.75 Q3.65 14.95 4.0 14.6 L4.8 14.0 5.3 13.4 5.55 12.85 6.1 12.85 7.15 13.1 Q7.75 13.2 7.75 12.9 L7.35 12.65 8.3 13.45 9.35 14.35 9.3 14.35 9.4 14.45 9.75 14.95 9.85 15.5 9.3 16.15 7.25 16.35 6.55 16.2 5.95 16.0 5.35 16.2 4.85 16.4 4.6 16.45 4.45 16.4 Q3.85 16.2 3.6 15.8 L3.55 15.75" fill="url(#gradient13)" fill-rule="evenodd" stroke="none"/>
      <path d="M3.1 10.5 L3.4 10.0 4.05 9.9 4.75 10.45 5.1 10.85 5.15 11.35 4.95 11.75 4.75 11.95 4.6 12.0 4.4 12.25 3.65 12.35 3.35 12.15 3.05 11.7 3.0 11.45 3.0 10.8 3.1 10.5" fill="url(#gradient14)" fill-rule="evenodd" stroke="none"/>
      <path d="M2.9 16.8 L2.95 16.75 Q3.35 16.5 4.0 17.05 L4.5 17.4 4.75 17.95 4.75 18.05 4.4 18.65 4.2 18.7 3.65 18.85 3.25 19.05 3.05 18.85 2.95 18.65 2.8 18.05 Q2.65 17.05 2.9 16.8" fill="url(#gradient15)" fill-rule="evenodd" stroke="none"/>
      <path d="M4.4 20.05 Q4.65 18.2 5.65 17.95 6.7 17.7 7.25 18.7 7.7 19.55 7.65 20.7 7.65 21.75 7.0 22.25 L5.25 22.35 Q4.15 21.9 4.4 20.05" fill="url(#gradient16)" fill-rule="evenodd" stroke="none"/>
      <path d="M4.75 18.05 Q5.1 17.55 5.6 17.45 L6.55 17.5 Q7.15 17.75 7.55 18.45 8.1 19.45 8.1 20.9 8.1 22.2 7.25 22.85 L5.05 22.95 Q4.2 22.6 4.05 21.55 L4.0 21.05 4.05 20.05 Q4.15 19.2 4.4 18.65 L4.75 18.05 M4.4 20.05 Q4.15 21.9 5.25 22.35 L7.0 22.25 Q7.65 21.75 7.65 20.7 7.7 19.55 7.25 18.7 6.7 17.7 5.65 17.95 4.65 18.2 4.4 20.05" fill="url(#gradient17)" fill-rule="evenodd" stroke="none"/>
      <path d="M3.15 24.45 L3.3 24.05 4.1 24.05 Q4.5 24.1 4.8 24.7 5.2 25.35 5.3 26.6 5.45 27.45 6.2 28.2 6.95 28.9 8.65 28.9 L9.65 28.95 10.65 28.85 11.0 28.55 11.3 28.2 12.15 27.7 13.0 27.65 14.0 27.5 14.1 27.75 14.1 27.8 14.2 29.25 Q14.2 29.9 14.55 30.5 L15.35 31.55 15.4 31.6 15.45 31.65 Q15.8 32.35 15.4 32.75 L14.55 33.05 13.85 33.5 13.8 34.15 13.8 34.5 13.75 34.6 13.6 34.7 12.85 34.75 12.1 34.7 12.05 34.7 9.9 34.45 8.9 34.45 8.2 34.3 7.5 34.1 5.4 33.75 Q4.7 33.45 4.15 32.45 L4.05 31.85 3.95 31.6 3.85 31.4 3.3 30.45 Q2.95 29.7 2.95 28.45 L2.95 25.45 3.15 24.45" fill="url(#gradient18)" fill-rule="evenodd" stroke="none"/>
      <path d="M18.1 30.1 L18.1 29.3 18.5 28.6 18.8 28.2 18.95 27.6 20.05 27.4 21.15 27.4 21.5 27.3 21.75 27.3 22.0 27.2 22.15 27.25 23.65 27.5 24.05 27.5 23.95 27.4 Q24.65 27.85 24.95 28.65 L25.05 29.05 Q24.9 28.3 24.3 27.7 L24.1 28.0 24.25 28.4 Q24.65 28.8 24.65 29.95 L24.55 30.85 23.75 31.4 22.55 31.75 21.05 31.35 20.75 31.15 20.2 31.15 19.75 31.35 18.85 31.1 18.6 30.9 18.1 30.1" fill="url(#gradient19)" fill-rule="evenodd" stroke="none"/>
      <path d="M29.35 47.75 L29.4 47.7 29.15 47.45 29.15 47.6 29.05 46.95 29.05 46.5 29.1 46.65 29.1 46.95 29.1 46.6 29.1 46.45 29.1 46.4 29.05 46.45 29.0 44.95 31.95 42.85 34.1 41.1 36.05 39.35 36.7 40.85 36.7 40.9 36.75 41.0 36.65 41.9 36.15 42.25 Q34.65 43.5 34.05 44.3 L33.6 44.65 29.75 47.6 29.7 47.65 29.35 47.75" fill="#6d5c32" fill-rule="evenodd" stroke="none"/>
      <path d="M29.55 9.4 L29.4 9.65 29.25 32.4 Q29.25 34.25 28.45 35.85 L24.75 35.45 19.45 35.05 13.75 34.45 13.6 34.65 12.85 34.7 12.1 34.65 9.9 34.4 8.9 34.4 8.2 34.25 7.5 34.05 5.4 33.7 Q4.7 33.4 4.15 32.4 L3.95 31.65 3.8 31.25 3.3 30.4 Q2.95 29.65 2.95 28.4 L2.95 25.4 3.15 24.3 Q2.85 17.7 2.9 14.55 2.9 9.1 3.95 7.1 L15.35 7.95 29.55 9.4" fill="url(#gradient20)" fill-rule="evenodd" stroke="none"/>
      <path d="M43.65 4.3 L43.65 4.55 43.9 12.3 43.85 21.35 44.15 21.65 44.2 22.75 44.25 23.85 44.25 25.15 43.9 26.45 43.6 26.85 43.4 27.35 42.15 28.55 41.85 29.0 41.5 29.4 40.8 29.9 40.05 29.85 Q36.65 32.6 34.65 33.65 L31.55 34.85 28.45 35.85 Q29.25 34.25 29.25 32.4 L29.4 9.65 29.55 9.4 Q30.0 9.0 33.55 7.4 L38.9 4.75 40.9 3.45 42.5 2.3 Q43.3 3.05 43.65 4.3" fill="url(#gradient21)" fill-rule="evenodd" stroke="none"/>
    </g>
    <radialGradient cx="0" cy="0" gradientTransform="matrix(0.0273, 0.0, 0.0, -0.005, 24.75, 44.2)" gradientUnits="userSpaceOnUse" id="gradient0" r="819.2" spreadMethod="pad">
      <stop offset="0.18823529411764706" stop-color="#000000" stop-opacity="0.92941177"/>
      <stop offset="0.8235294117647058" stop-color="#000000" stop-opacity="0.0"/>
    </radialGradient>
    <linearGradient gradientTransform="matrix(0.006, 0.0157, 0.0155, -0.0058, 36.45, 21.15)" gradientUnits="userSpaceOnUse" id="gradient1" spreadMethod="pad" x1="-819.2" x2="819.2">
      <stop offset="0.0" stop-color="#4d7c93"/>
      <stop offset="1.0" stop-color="#314b57"/>
    </linearGradient>
    <linearGradient gradientTransform="matrix(0.0235, 0.0, 1.0E-4, -0.0231, 23.25, 4.8)" gradientUnits="userSpaceOnUse" id="gradient2" spreadMethod="pad" x1="-819.2" x2="819.2">
      <stop offset="0.0" stop-color="#a8e0f1"/>
      <stop offset="1.0" stop-color="#87c9dd"/>
    </linearGradient>
    <linearGradient gradientTransform="matrix(0.0186, 0.0, 1.0E-4, -0.0183, 25.15, 4.1)" gradientUnits="userSpaceOnUse" id="gradient3" spreadMethod="pad" x1="-819.2" x2="819.2">
      <stop offset="0.0" stop-color="#ffffff"/>
      <stop offset="1.0" stop-color="#d2f1fa"/>
    </linearGradient>
    <linearGradient gradientTransform="matrix(0.015, 0.0, 1.0E-4, -0.0148, 27.9, 6.05)" gradientUnits="userSpaceOnUse" id="gradient4" spreadMethod="pad" x1="-819.2" x2="819.2">
      <stop offset="0.0" stop-color="#9dacb3"/>
      <stop offset="1.0" stop-color="#a6d2dd"/>
    </linearGradient>
    <linearGradient gradientTransform="matrix(0.0161, 0.0, 1.0E-4, -0.0158, 29.4, 20.2)" gradientUnits="userSpaceOnUse" id="gradient5" spreadMethod="pad" x1="-819.2" x2="819.2">
      <stop offset="0.0" stop-color="#83a35c"/>
      <stop offset="1.0" stop-color="#527524"/>
    </linearGradient>
    <linearGradient gradientTransform="matrix(0.0162, 0.0, 1.0E-4, -0.0159, 29.35, 20.2)" gradientUnits="userSpaceOnUse" id="gradient6" spreadMethod="pad" x1="-819.2" x2="819.2">
      <stop offset="0.0" stop-color="#afda7b"/>
      <stop offset="1.0" stop-color="#5d8428"/>
    </linearGradient>
    <linearGradient gradientTransform="matrix(0.0032, 0.0, 0.0, -0.0031, 40.35, 25.65)" gradientUnits="userSpaceOnUse" id="gradient7" spreadMethod="pad" x1="-819.2" x2="819.2">
      <stop offset="0.0" stop-color="#83a35c"/>
      <stop offset="1.0" stop-color="#527524"/>
    </linearGradient>
    <linearGradient gradientTransform="matrix(0.0058, 0.0181, 0.0178, -0.0057, 17.15, 21.8)" gradientUnits="userSpaceOnUse" id="gradient8" spreadMethod="pad" x1="-819.2" x2="819.2">
      <stop offset="0.0" stop-color="#85c6dd"/>
      <stop offset="1.0" stop-color="#497586"/>
    </linearGradient>
    <linearGradient gradientTransform="matrix(0.0085, 0.0026, 0.0026, -0.0084, 11.35, 19.05)" gradientUnits="userSpaceOnUse" id="gradient9" spreadMethod="pad" x1="-819.2" x2="819.2">
      <stop offset="0.0" stop-color="#afda7b"/>
      <stop offset="1.0" stop-color="#5d8428"/>
    </linearGradient>
    <linearGradient gradientTransform="matrix(-5.0E-4, -0.0033, -0.0032, 4.0E-4, 24.3, 22.2)" gradientUnits="userSpaceOnUse" id="gradient10" spreadMethod="pad" x1="-819.2" x2="819.2">
      <stop offset="0.0" stop-color="#7ca34a"/>
      <stop offset="1.0" stop-color="#516735"/>
    </linearGradient>
    <radialGradient cx="0" cy="0" gradientTransform="matrix(0.0029, 0.0035, 0.0034, -0.003, 23.6, 20.95)" gradientUnits="userSpaceOnUse" id="gradient11" r="819.2" spreadMethod="pad">
      <stop offset="0.0" stop-color="#75684d"/>
      <stop offset="1.0" stop-color="#2e281d"/>
    </radialGradient>
    <linearGradient gradientTransform="matrix(0.0086, 0.0026, 0.0026, -0.0084, 12.45, 12.1)" gradientUnits="userSpaceOnUse" id="gradient12" spreadMethod="pad" x1="-819.2" x2="819.2">
      <stop offset="0.0" stop-color="#afda7b"/>
      <stop offset="1.0" stop-color="#5d8428"/>
    </linearGradient>
    <linearGradient gradientTransform="matrix(0.0085, 0.0026, 0.0026, -0.0084, 10.3, 15.85)" gradientUnits="userSpaceOnUse" id="gradient13" spreadMethod="pad" x1="-819.2" x2="819.2">
      <stop offset="0.0" stop-color="#afda7b"/>
      <stop offset="1.0" stop-color="#5d8428"/>
    </linearGradient>
    <linearGradient gradientTransform="matrix(0.0085, 0.0026, 0.0026, -0.0084, 11.1, 13.3)" gradientUnits="userSpaceOnUse" id="gradient14" spreadMethod="pad" x1="-819.2" x2="819.2">
      <stop offset="0.0" stop-color="#afda7b"/>
      <stop offset="1.0" stop-color="#5d8428"/>
    </linearGradient>
    <linearGradient gradientTransform="matrix(0.0072, 0.0022, 0.0022, -0.0071, 7.9, 19.25)" gradientUnits="userSpaceOnUse" id="gradient15" spreadMethod="pad" x1="-819.2" x2="819.2">
      <stop offset="0.0" stop-color="#afda7b"/>
      <stop offset="1.0" stop-color="#5d8428"/>
    </linearGradient>
    <radialGradient cx="0" cy="0" gradientTransform="matrix(0.0024, 0.0031, 0.0028, -0.0027, 5.45, 19.25)" gradientUnits="userSpaceOnUse" id="gradient16" r="819.2" spreadMethod="pad">
      <stop offset="0.0" stop-color="#75684d"/>
      <stop offset="1.0" stop-color="#2e281d"/>
    </radialGradient>
    <linearGradient gradientTransform="matrix(-4.0E-4, -0.003, -0.0029, 4.0E-4, 6.0, 20.4)" gradientUnits="userSpaceOnUse" id="gradient17" spreadMethod="pad" x1="-819.2" x2="819.2">
      <stop offset="0.0" stop-color="#4d7c93"/>
      <stop offset="1.0" stop-color="#314b57"/>
    </linearGradient>
    <linearGradient gradientTransform="matrix(0.0077, 0.0, 0.0, -0.0076, 9.25, 29.1)" gradientUnits="userSpaceOnUse" id="gradient18" spreadMethod="pad" x1="-819.2" x2="819.2">
      <stop offset="0.0" stop-color="#897655"/>
      <stop offset="1.0" stop-color="#675d47"/>
    </linearGradient>
    <linearGradient gradientTransform="matrix(0.0105, 0.004, 0.004, -0.0103, 22.15, 29.5)" gradientUnits="userSpaceOnUse" id="gradient19" spreadMethod="pad" x1="-819.2" x2="819.2">
      <stop offset="0.0" stop-color="#afda7b"/>
      <stop offset="1.0" stop-color="#5d8428"/>
    </linearGradient>
    <linearGradient gradientTransform="matrix(3.0E-4, -0.0031, -0.0031, -3.0E-4, 15.15, 33.6)" gradientUnits="userSpaceOnUse" id="gradient20" spreadMethod="pad" x1="-819.2" x2="819.2">
      <stop offset="0.3176470588235294" stop-color="#000000" stop-opacity="0.35686275"/>
      <stop offset="0.8235294117647058" stop-color="#000000" stop-opacity="0.0"/>
    </linearGradient>
    <linearGradient gradientTransform="matrix(-0.0021, -0.0042, -0.0042, 0.0021, 39.95, 27.75)" gradientUnits="userSpaceOnUse" id="gradient21" spreadMethod="pad" x1="-819.2" x2="819.2">
      <stop offset="0.3176470588235294" stop-color="#000000" stop-opacity="0.24705882"/>
      <stop offset="0.8235294117647058" stop-color="#000000" stop-opacity="0.0"/>
    </linearGradient>
  </defs>
</svg>
