<?xml version="1.0" encoding="UTF-8" standalone="no"?>
<svg xmlns:xlink="http://www.w3.org/1999/xlink" height="42.05px" width="44.2px" xmlns="http://www.w3.org/2000/svg">
  <g transform="matrix(1.0, 0.0, 0.0, 1.0, 0.0, 0.0)">
    <use height="22.65" transform="matrix(1.0, 0.0, 0.0, 1.0, 9.65, 19.4)" width="24.75" xlink:href="#shape0"/>
    <use height="25.4" transform="matrix(0.9, 0.0, 0.0, 0.9, 10.4, 12.25)" width="26.9" xlink:href="#sprite0"/>
  </g>
  <defs>
    <g id="shape0" transform="matrix(1.0, 0.0, 0.0, 1.0, -9.65, -19.4)">
      <path d="M32.8 28.5 L34.4 34.9 Q32.05 38.0 30.9 38.55 L29.4 39.55 28.75 40.15 Q25.85 41.5 24.1 41.85 22.4 42.25 19.3 41.85 17.1 40.35 15.75 40.15 13.25 39.75 12.65 39.15 L9.8 36.05 Q9.65 35.4 9.65 34.5 9.65 32.85 10.35 32.0 L11.65 30.25 12.1 29.5 Q12.9 25.95 14.05 24.2 15.2 22.5 17.35 20.75 L20.45 19.4 25.85 20.75 30.3 21.5 30.55 24.8 32.8 28.5" fill="url(#gradient0)" fill-rule="evenodd" stroke="none"/>
      <path d="M28.05 23.2 Q29.2 22.8 30.3 21.5 L30.55 24.8 32.8 28.5 34.4 34.9 Q32.05 38.0 30.9 38.55 L29.4 39.55 28.75 40.15 Q25.85 41.5 24.1 41.85 22.4 42.25 19.3 41.85 17.1 40.35 15.75 40.15 13.25 39.75 12.65 39.15 L11.2 37.6 12.8 38.55 15.65 38.7 20.65 39.6 Q23.8 38.45 23.9 38.1 L24.3 34.05 25.35 33.25 Q25.6 30.95 25.35 30.15 L24.45 29.05 23.8 28.5 24.2 25.1 25.65 24.3 28.05 23.2" fill="#97b4c4" fill-rule="evenodd" stroke="none"/>
      <path d="M24.1 41.85 Q22.4 42.25 19.3 41.85 17.1 40.35 15.75 40.15 L13.9 39.8 17.2 39.6 20.65 39.6 20.65 40.15 Q20.8 40.65 22.1 40.65 L25.2 40.35 Q25.85 40.25 26.5 39.1 L27.3 35.45 29.2 35.2 31.65 34.15 32.05 35.2 Q32.25 35.7 33.05 35.05 33.9 34.4 33.8 32.55 L34.4 34.9 Q32.05 38.0 30.9 38.55 L29.4 39.55 28.75 40.15 Q25.85 41.5 24.1 41.85" fill="#7d9aab" fill-rule="evenodd" stroke="none"/>
      <path d="M30.3 21.5 L28.6 22.95 25.85 24.0 Q25.15 24.2 24.6 24.7 L24.2 25.1 19.65 22.4 17.95 22.05 16.85 21.15 17.35 20.6 18.1 20.0 20.45 19.4 26.1 20.2 26.95 20.7 28.05 21.15 30.3 21.5" fill="#e3f3ff" fill-rule="evenodd" stroke="none"/>
      <path d="M12.4 31.7 L10.35 32.0 10.65 31.2 12.1 29.5 14.15 29.65 16.1 30.2 Q17.05 30.45 17.5 30.75 L19.55 31.2 17.6 31.7 15.7 31.5 12.4 31.7" fill="#e3f3ff" fill-rule="evenodd" stroke="none"/>
      <path d="M23.55 32.95 L23.8 34.2 20.65 33.7 20.1 34.4 18.95 35.45 Q18.2 36.05 16.85 36.55 L18.0 35.2 19.45 33.45 21.05 33.05 23.55 32.95" fill="#e3f3ff" fill-rule="evenodd" stroke="none"/>
      <path d="M24.8 33.7 L25.6 32.0 25.25 33.6 24.5 34.6 24.7 35.45 24.1 36.9 23.9 38.1 23.15 38.9 21.1 39.45 14.35 38.5 18.3 38.5 18.9 38.55 20.3 38.5 Q21.4 38.3 22.05 37.4 L23.8 34.8 24.8 33.7" fill="#e3f3ff" fill-rule="evenodd" stroke="none"/>
      <path d="M15.25 33.05 L16.25 31.6 17.6 31.7 19.55 31.2 20.55 33.15 19.45 33.45 16.85 36.55 15.5 36.45 14.45 36.5 13.9 36.65 14.8 34.95 15.25 33.05" fill="#9fc0d4" fill-rule="evenodd" stroke="none"/>
      <path d="M23.8 34.2 L23.8 34.8 22.85 35.4 21.9 36.65 20.65 36.65 21.3 34.95 21.0 34.25 20.65 33.7 23.8 34.2" fill="#9fc0d4" fill-rule="evenodd" stroke="none"/>
      <path d="M21.55 26.95 L22.0 26.85 22.95 26.85 22.4 27.8 20.8 28.3 19.45 27.9 20.65 27.65 21.55 26.95" fill="#9fc0d4" fill-rule="evenodd" stroke="none"/>
      <path d="M11.4 32.1 L12.45 31.85 14.25 31.6 Q13.85 32.7 13.55 32.7 L13.05 32.45 12.55 32.2 11.4 32.1" fill="#ffffff" fill-rule="evenodd" stroke="none"/>
      <path d="M12.65 33.05 Q13.45 33.05 13.45 33.7 13.45 34.35 12.8 34.2 12.2 34.05 12.2 33.6 12.2 33.05 12.65 33.05" fill="#ffffff" fill-rule="evenodd" stroke="none"/>
      <path d="M13.55 34.4 Q14.35 34.3 14.1 35.25 13.9 36.15 13.05 35.95 12.35 35.75 12.7 35.05 13.05 34.45 13.55 34.4" fill="#ffffff" fill-rule="evenodd" stroke="none"/>
      <path d="M11.2 33.6 Q11.85 33.6 11.7 34.25 11.55 34.9 10.95 34.95 10.3 35.05 10.4 34.35 10.55 33.6 11.2 33.6" fill="#ffffff" fill-rule="evenodd" stroke="none"/>
      <path d="M14.75 31.7 Q15.4 31.7 15.4 32.3 15.45 32.95 14.6 33.15 13.8 33.35 13.95 32.55 14.1 31.7 14.75 31.7" fill="#ffffff" fill-rule="evenodd" stroke="none"/>
      <path d="M15.1 24.55 Q15.7 24.15 15.7 24.95 15.7 25.7 14.9 25.95 14.05 26.3 14.2 25.65 14.35 25.05 15.1 24.55" fill="#ffffff" fill-rule="evenodd" stroke="none"/>
      <path d="M17.05 23.75 Q17.8 23.85 17.75 24.45 17.7 25.05 16.85 25.1 16.05 25.15 16.2 24.45 16.4 23.7 17.05 23.75" fill="#ffffff" fill-rule="evenodd" stroke="none"/>
      <path d="M19.05 25.5 Q19.9 25.15 20.75 25.95 21.6 26.65 21.1 27.05 L18.8 27.25 Q18.05 27.05 18.3 26.4 18.45 25.7 19.05 25.5" fill="#ffffff" fill-rule="evenodd" stroke="none"/>
      <path d="M17.1 26.95 Q17.95 26.9 17.5 27.65 17.1 28.35 16.45 28.2 15.8 28.05 16.15 27.55 16.55 27.0 17.1 26.95" fill="#ffffff" fill-rule="evenodd" stroke="none"/>
      <path d="M13.9 26.85 Q14.95 26.4 15.05 27.2 15.15 28.05 14.4 28.2 13.8 28.35 13.65 27.75 13.45 27.1 13.9 26.85" fill="#ffffff" fill-rule="evenodd" stroke="none"/>
      <path d="M21.1 29.85 Q21.85 30.05 21.4 30.75 21.0 31.4 20.3 31.2 19.7 31.0 20.15 30.35 20.55 29.65 21.1 29.85" fill="#ffffff" fill-rule="evenodd" stroke="none"/>
      <path d="M23.15 30.65 Q23.7 30.5 24.2 31.1 24.7 31.7 24.0 32.1 L23.0 32.3 22.3 32.0 Q21.75 31.95 22.15 31.35 22.5 30.75 23.15 30.65" fill="#ffffff" fill-rule="evenodd" stroke="none"/>
      <path d="M22.85 29.85 L21.95 29.9 Q21.6 29.65 21.9 29.25 L22.85 29.2 Q23.55 29.55 22.85 29.85" fill="#ffffff" fill-rule="evenodd" stroke="none"/>
      <path d="M22.45 25.2 Q23.05 25.5 22.9 26.05 22.65 26.65 21.9 26.4 21.1 26.1 21.55 25.5 21.9 24.95 22.45 25.2" fill="#ffffff" fill-rule="evenodd" stroke="none"/>
      <path d="M20.05 24.05 Q20.65 24.15 20.6 24.35 L19.85 24.6 Q19.25 24.7 19.3 24.3 19.4 23.9 20.05 24.05" fill="#ffffff" fill-rule="evenodd" stroke="none"/>
      <path d="M23.25 20.35 Q24.25 20.35 23.7 21.3 23.2 22.25 22.0 22.35 20.75 22.55 21.55 21.45 22.35 20.35 23.25 20.35" fill="#ffffff" fill-rule="evenodd" stroke="none"/>
      <path d="M25.0 21.25 Q25.6 21.15 25.75 21.75 25.85 22.25 24.9 22.2 24.0 22.15 24.25 21.7 24.55 21.3 25.0 21.25" fill="#ffffff" fill-rule="evenodd" stroke="none"/>
      <path d="M29.45 22.1 Q27.4 23.85 26.35 24.15 25.65 24.3 24.85 24.75 L24.2 25.1 23.15 24.55 21.4 23.35 23.4 23.55 24.5 23.45 25.65 23.2 28.45 22.35 29.45 22.1" fill="#ffffff" fill-rule="evenodd" stroke="none"/>
      <path d="M19.2 21.0 Q20.25 20.9 20.3 21.45 20.35 22.0 19.35 22.1 18.5 22.15 18.55 21.65 18.6 21.1 19.2 21.0" fill="#ffffff" fill-rule="evenodd" stroke="none"/>
      <path d="M19.45 35.85 Q20.4 35.85 19.85 36.45 19.3 37.0 18.4 36.9 17.5 36.85 18.0 36.35 18.55 35.85 19.45 35.85" fill="#ffffff" fill-rule="evenodd" stroke="none"/>
      <path d="M16.25 37.2 Q17.05 37.3 16.9 37.65 16.7 38.0 15.85 38.0 15.05 38.0 15.35 37.6 15.7 37.15 16.25 37.2" fill="#ffffff" fill-rule="evenodd" stroke="none"/>
      <path d="M19.05 37.4 Q19.95 37.35 19.7 37.8 19.45 38.3 18.7 38.3 17.95 38.3 18.1 37.9 18.25 37.5 19.05 37.4" fill="#ffffff" fill-rule="evenodd" stroke="none"/>
      <path d="M26.85 25.4 Q27.85 25.25 27.45 26.3 27.1 27.3 25.95 27.4 24.8 27.6 25.25 26.55 25.75 25.55 26.85 25.4" fill="#c1dae8" fill-rule="evenodd" stroke="none"/>
      <path d="M28.45 26.05 Q29.4 25.95 29.2 26.75 28.95 27.6 28.1 27.4 27.3 27.3 27.6 26.75 27.85 26.2 28.45 26.05" fill="#c1dae8" fill-rule="evenodd" stroke="none"/>
      <path d="M31.0 27.9 Q32.15 27.9 31.9 28.55 L30.7 29.4 Q29.9 29.55 30.2 28.75 30.55 27.9 31.0 27.9" fill="#c1dae8" fill-rule="evenodd" stroke="none"/>
      <path d="M27.35 29.1 Q28.55 29.2 28.3 30.2 28.05 31.2 26.95 31.4 25.9 31.6 26.2 30.35 26.5 29.0 27.35 29.1" fill="#c1dae8" fill-rule="evenodd" stroke="none"/>
      <path d="M29.65 31.35 Q30.65 31.35 30.2 32.15 29.75 32.95 28.85 32.85 28.05 32.8 28.5 32.05 28.95 31.35 29.65 31.35" fill="#c1dae8" fill-rule="evenodd" stroke="none"/>
      <path d="M32.25 32.7 Q32.9 32.7 33.1 33.3 33.25 33.9 32.55 34.05 31.9 34.15 31.8 33.45 31.75 32.7 32.25 32.7" fill="#c1dae8" fill-rule="evenodd" stroke="none"/>
      <path d="M27.35 33.55 Q28.5 33.4 28.55 34.5 28.6 35.6 27.3 35.45 26.05 35.35 26.25 34.5 26.5 33.65 27.35 33.55" fill="#c1dae8" fill-rule="evenodd" stroke="none"/>
      <path d="M29.8 33.6 Q30.75 33.35 30.85 34.0 31.0 34.55 30.1 34.8 29.4 35.0 29.45 34.4 29.5 33.75 29.8 33.6" fill="#c1dae8" fill-rule="evenodd" stroke="none"/>
    </g>
    <radialGradient cx="0" cy="0" gradientTransform="matrix(0.0212, 0.0, 0.0, -0.0212, 18.5, 29.65)" gradientUnits="userSpaceOnUse" id="gradient0" r="819.2" spreadMethod="pad">
      <stop offset="0.0" stop-color="#e5f1f7"/>
      <stop offset="1.0" stop-color="#89adc4"/>
    </radialGradient>
    <g id="sprite0" transform="matrix(1.0, 0.0, 0.0, 1.0, 0.0, 0.0)">
      <use height="25.4" transform="matrix(1.0, 0.0, 0.0, 1.0, 0.0, 0.0)" width="26.9" xlink:href="#shape1"/>
    </g>
    <g id="shape1" transform="matrix(1.0, 0.0, 0.0, 1.0, 0.0, 0.0)">
      <path d="M26.9 12.7 Q26.9 17.95 22.95 21.7 19.05 25.4 13.45 25.4 7.85 25.4 3.95 21.7 0.0 17.95 0.0 12.7 0.0 7.4 3.95 3.7 7.85 0.0 13.45 0.0 19.05 0.0 22.95 3.7 26.9 7.4 26.9 12.7" fill="url(#gradient1)" fill-rule="evenodd" stroke="none"/>
    </g>
    <radialGradient cx="0" cy="0" gradientTransform="matrix(0.0164, 0.0, 0.0, -0.0155, 13.45, 12.7)" gradientUnits="userSpaceOnUse" id="gradient1" r="819.2" spreadMethod="pad">
      <stop offset="0.0" stop-color="#ffffff"/>
      <stop offset="1.0" stop-color="#ffffff" stop-opacity="0.0"/>
    </radialGradient>
  </defs>
</svg>
