<?xml version="1.0" encoding="UTF-8" standalone="no"?>
<svg xmlns:xlink="http://www.w3.org/1999/xlink" height="52.45px" width="265.05px" xmlns="http://www.w3.org/2000/svg">
  <g transform="matrix(1.0, 0.0, 0.0, 1.0, 0.0, 0.0)">
    <use height="52.45" transform="matrix(1.0, 0.0, 0.0, 1.0, 0.0, 0.0)" width="265.05" xlink:href="#shape0"/>
  </g>
  <defs>
    <g id="shape0" transform="matrix(1.0, 0.0, 0.0, 1.0, 0.0, 0.0)">
      <path d="M243.4 3.85 Q245.75 2.0 246.2 0.8 246.45 3.95 247.0 7.75 248.05 15.3 249.35 18.6 250.65 21.85 258.0 28.15 261.65 31.25 265.05 33.75 260.3 36.4 253.05 39.5 238.6 45.7 226.3 47.9 209.95 50.8 162.0 51.9 118.95 52.9 79.35 52.05 46.0 51.35 19.65 43.8 6.5 40.05 0.0 36.4 L4.3 31.1 Q9.05 24.95 11.35 20.7 13.65 16.45 15.05 9.5 L16.05 3.4 Q20.55 8.1 37.8 12.7 72.4 21.9 136.35 21.25 200.3 20.65 229.65 10.65 238.8 7.55 243.4 3.85" fill="url(#gradient0)" fill-rule="evenodd" stroke="none"/>
      <path d="M61.95 40.7 L61.95 31.4 55.95 31.0 33.0 27.5 31.5 36.6 35.85 38.5 61.95 40.7 M91.3 42.4 L91.6 33.45 63.45 31.5 63.45 40.85 78.75 42.15 91.3 42.4 M123.25 43.1 L123.25 33.4 99.05 34.0 93.1 33.55 92.8 42.45 123.25 43.1 M124.75 33.35 L124.75 43.15 158.55 42.95 158.0 33.1 124.75 33.35 M195.55 41.05 L195.0 32.05 185.0 33.3 159.5 33.15 160.05 42.9 174.7 42.8 195.55 41.05 M229.1 26.15 L224.15 28.3 196.45 31.85 197.0 40.95 217.8 39.15 230.8 35.15 229.1 26.15 M244.4 6.15 L245.8 17.2 248.5 16.0 248.95 17.45 246.0 18.75 246.05 19.15 244.7 19.3 230.5 25.5 232.25 34.7 256.8 27.15 258.15 28.3 252.05 30.15 253.7 39.2 252.3 39.85 250.6 30.6 218.05 40.65 214.4 40.95 214.55 49.35 213.05 49.5 212.9 41.1 179.15 43.95 179.8 51.4 178.3 51.45 177.65 44.05 174.75 44.3 142.1 44.55 141.75 52.3 140.25 52.3 140.6 44.55 110.8 44.35 111.15 52.45 109.65 52.45 109.3 44.3 78.75 43.65 78.55 52.05 77.05 52.0 77.25 43.55 48.1 41.05 48.1 49.65 46.6 49.45 46.6 40.9 35.5 39.95 17.05 31.85 15.75 42.6 14.3 42.15 15.6 31.2 7.0 27.45 7.9 26.2 30.1 35.95 31.5 27.3 31.35 27.3 18.15 16.25 17.95 16.25 17.95 16.05 14.25 12.95 14.65 11.35 17.95 14.1 17.95 4.55 19.45 4.55 19.45 15.35 32.0 25.85 47.4 28.2 48.25 18.15 49.75 18.3 48.85 28.4 56.15 29.5 77.6 31.0 77.6 22.25 79.1 22.25 79.1 31.1 99.05 32.5 108.95 32.25 109.25 23.55 110.75 23.6 110.45 32.2 141.9 31.5 141.6 26.3 143.1 26.2 143.4 31.5 176.6 31.75 176.25 24.6 177.75 24.55 178.1 31.75 184.95 31.8 210.85 28.5 210.55 14.25 212.05 14.2 212.35 28.3 223.75 26.85 244.35 17.85 242.9 6.35 244.4 6.15" fill="#bd7b54" fill-rule="evenodd" stroke="none"/>
      <path d="M206.6 11.95 Q233.95 8.5 233.65 0.2 L246.2 0.0 Q246.4 14.5 213.25 21.45 182.75 27.8 126.0 27.4 73.5 27.05 49.65 23.15 15.35 17.65 16.05 3.15 L30.2 2.95 30.15 3.15 Q29.8 10.3 65.75 13.5 95.2 16.15 135.85 15.45 186.05 14.55 206.6 11.95" fill="url(#gradient1)" fill-rule="evenodd" stroke="none"/>
      <path d="M219.6 18.3 Q210.35 21.2 200.2 22.4 L168.2 24.3 147.0 24.9 173.0 22.65 164.25 21.15 180.3 20.8 Q198.2 20.1 207.7 18.4 218.75 16.4 226.0 13.7 232.75 11.2 234.7 8.65 L237.75 4.45 Q239.1 2.75 240.2 2.9 241.8 3.15 239.9 6.45 237.75 10.1 233.2 12.65 227.55 15.8 219.6 18.3" fill="#f5e5d6" fill-rule="evenodd" stroke="none"/>
      <path d="M94.25 22.4 L105.25 24.4 93.7 24.1 64.5 22.15 Q48.2 20.6 37.4 17.45 28.35 14.85 24.75 11.65 22.1 9.3 23.15 7.6 23.7 6.8 24.75 6.4 L25.15 8.2 Q26.15 10.25 29.25 11.65 34.3 13.95 40.3 15.45 49.45 17.8 64.25 19.65 86.5 22.4 94.25 22.4" fill="#f5e5d6" fill-rule="evenodd" stroke="none"/>
      <path d="M127.35 18.8 Q99.3 20.1 81.0 18.4 57.7 16.2 48.45 14.45 37.55 12.4 32.0 8.65 L33.65 9.55 Q36.1 10.65 40.5 11.7 54.5 15.1 82.0 16.65 109.5 18.2 133.4 17.85 L151.75 17.15 127.35 18.8" fill="#dfa272" fill-rule="evenodd" stroke="none"/>
      <path d="M234.2 4.15 Q234.15 5.2 232.6 6.85 229.55 10.1 222.2 12.9 214.85 15.7 198.8 16.7 L154.75 18.4 205.7 13.9 Q220.5 12.6 228.85 8.25 233.0 6.05 234.2 4.15" fill="#dfa272" fill-rule="evenodd" stroke="none"/>
    </g>
    <linearGradient gradientTransform="matrix(-0.1554, 0.0026, 0.0026, 0.1554, 125.55, 27.05)" gradientUnits="userSpaceOnUse" id="gradient0" spreadMethod="pad" x1="-819.2" x2="819.2">
      <stop offset="0.0" stop-color="#e4b48b"/>
      <stop offset="1.0" stop-color="#d27948"/>
    </linearGradient>
    <linearGradient gradientTransform="matrix(0.1405, 0.0, 0.0, -0.1405, 131.15, 13.7)" gradientUnits="userSpaceOnUse" id="gradient1" spreadMethod="pad" x1="-819.2" x2="819.2">
      <stop offset="0.0" stop-color="#ebc8aa"/>
      <stop offset="1.0" stop-color="#f2ddc9"/>
    </linearGradient>
  </defs>
</svg>
