<?xml version="1.0" encoding="UTF-8" standalone="no"?>
<svg xmlns:xlink="http://www.w3.org/1999/xlink" height="43.05px" width="20.25px" xmlns="http://www.w3.org/2000/svg">
  <g transform="matrix(1.0, 0.0, 0.0, 1.0, 0.0, 0.0)">
    <use height="43.05" transform="matrix(1.0, 0.0, 0.0, 1.0, 0.0, 0.0)" width="20.25" xlink:href="#shape0"/>
  </g>
  <defs>
    <g id="shape0" transform="matrix(1.0, 0.0, 0.0, 1.0, 0.0, 0.0)">
      <path d="M8.8 7.8 Q9.8 6.9 11.05 6.85 12.15 6.8 12.8 8.0 13.4 9.05 13.3 10.35 L13.2 11.2 12.7 11.3 Q12.05 11.45 11.95 12.0 11.8 12.5 12.5 12.6 L12.3 12.8 Q11.05 14.2 8.55 14.35 6.05 14.5 5.75 13.0 5.55 11.8 6.5 10.75 L8.05 10.6 Q9.6 9.8 9.55 8.9 9.55 8.35 9.0 7.95 L8.8 7.8" fill="url(#gradient0)" fill-rule="evenodd" stroke="none"/>
      <path d="M13.2 11.2 L13.3 10.35 Q13.4 9.05 12.8 8.0 12.15 6.8 11.05 6.85 9.8 6.9 8.8 7.8 L7.95 7.45 Q6.7 7.1 5.95 8.35 5.4 9.4 6.2 10.45 L6.5 10.75 Q5.55 11.8 5.75 13.0 6.05 14.5 8.55 14.35 11.05 14.2 12.3 12.8 L12.5 12.6 12.55 12.6 13.95 12.45 15.1 11.75 Q15.5 10.95 15.05 10.55 L14.45 10.3 Q14.15 10.25 13.95 10.55 L13.6 11.0 13.2 11.2 M10.4 5.55 Q10.85 5.35 10.55 4.5 10.3 3.65 9.5 3.75 8.4 3.9 8.0 4.35 7.55 4.8 8.05 5.3 8.5 5.75 9.3 5.8 L10.4 5.55 M7.9 16.5 L8.0 16.5 8.15 16.5 Q8.5 16.4 8.0 16.0 L7.2 15.9 Q5.45 15.55 4.9 14.55 L3.95 13.25 3.0 12.25 Q1.85 10.7 1.75 9.5 L1.75 8.7 1.8 8.4 1.9 6.9 Q2.4 4.45 3.9 2.9 5.55 1.15 8.0 0.75 L10.85 0.8 Q12.65 1.05 13.55 1.65 L15.7 3.8 Q16.85 5.35 17.05 6.3 17.55 9.0 16.9 10.65 15.9 13.1 15.0 13.65 L12.5 14.8 10.9 15.4 11.45 15.3 Q11.95 15.25 12.0 15.45 L12.0 15.5 10.7 16.0 Q9.95 16.2 11.8 16.3 L11.95 16.25 Q14.5 15.5 16.1 13.35 16.95 12.25 17.4 11.0 16.8 12.8 15.4 14.2 13.85 15.75 11.9 16.35 L9.5 16.65 7.9 16.5 M15.3 6.55 Q14.25 6.75 14.6 7.85 14.9 8.95 15.95 8.55 16.75 8.2 16.45 7.3 16.15 6.4 15.3 6.55" fill="url(#gradient1)" fill-rule="evenodd" stroke="none"/>
      <path d="M8.8 7.8 L9.0 7.95 Q9.55 8.35 9.55 8.9 9.6 9.8 8.05 10.6 L6.5 10.75 6.2 10.45 Q5.4 9.4 5.95 8.35 6.7 7.1 7.95 7.45 L8.8 7.8" fill="url(#gradient2)" fill-rule="evenodd" stroke="none"/>
      <path d="M10.4 5.55 L9.3 5.8 Q8.5 5.75 8.05 5.3 7.55 4.8 8.0 4.35 8.4 3.9 9.5 3.75 10.3 3.65 10.55 4.5 10.85 5.35 10.4 5.55" fill="url(#gradient3)" fill-rule="evenodd" stroke="none"/>
      <path d="M15.3 6.55 Q16.15 6.4 16.45 7.3 16.75 8.2 15.95 8.55 14.9 8.95 14.6 7.85 14.25 6.75 15.3 6.55" fill="url(#gradient4)" fill-rule="evenodd" stroke="none"/>
      <path d="M17.4 11.0 Q16.95 12.25 16.1 13.35 14.5 15.5 11.95 16.25 L11.8 16.3 Q9.95 16.2 10.7 16.0 L12.0 15.5 12.0 15.45 Q11.95 15.25 11.45 15.3 L10.9 15.4 12.5 14.8 15.0 13.65 Q15.9 13.1 16.9 10.65 17.55 9.0 17.05 6.3 16.85 5.35 15.7 3.8 L13.55 1.65 Q12.65 1.05 10.85 0.8 L8.0 0.75 Q5.55 1.15 3.9 2.9 2.4 4.45 1.9 6.9 L1.8 8.4 1.75 8.7 1.75 9.5 Q1.85 10.7 3.0 12.25 L3.95 13.25 4.9 14.55 Q5.45 15.55 7.2 15.9 L8.0 16.0 Q8.5 16.4 8.15 16.5 L8.0 16.5 7.9 16.5 7.85 16.5 6.0 15.9 4.95 15.3 3.1 13.7 2.65 13.1 1.9 11.85 Q1.2 10.4 1.15 8.7 L1.15 8.55 1.15 8.3 Q1.15 4.85 3.6 2.45 6.0 0.0 9.5 0.0 12.95 0.0 15.4 2.45 17.8 4.85 17.8 8.3 L17.4 11.0" fill="url(#gradient5)" fill-rule="evenodd" stroke="none"/>
      <path d="M7.9 16.5 L9.5 16.65 11.9 16.35 11.7 16.7 Q9.25 18.1 11.55 24.8 12.15 26.7 12.1 27.75 L10.05 27.8 Q7.75 27.75 6.95 26.95 L6.85 26.85 7.6 25.55 8.05 24.65 8.1 24.45 8.65 22.85 9.15 19.65 Q9.25 17.95 8.0 16.6 L7.9 16.5 M3.2 33.5 L3.4 33.05 3.45 33.05 3.35 33.2 Q4.2 34.75 7.35 35.85 13.35 37.9 16.55 36.6 L17.05 36.35 Q16.85 37.55 15.4 38.55 13.4 39.95 10.75 40.15 7.95 40.35 5.65 39.15 L4.05 38.1 3.55 37.65 Q2.75 36.75 2.55 35.9 2.65 34.95 3.05 33.85 L3.2 33.5 M5.75 28.75 L6.3 29.45 6.65 29.65 9.25 30.55 9.4 30.55 Q12.55 31.2 14.65 30.55 L14.9 31.3 Q15.35 32.45 15.0 33.35 L14.35 33.3 Q10.9 33.1 7.65 32.15 5.55 31.55 4.6 30.8 L5.75 28.75" fill="url(#gradient6)" fill-rule="evenodd" stroke="none"/>
      <path d="M12.5 12.6 Q11.8 12.5 11.95 12.0 12.05 11.45 12.7 11.3 L13.2 11.2 13.6 11.0 13.95 10.55 Q14.15 10.25 14.45 10.3 L15.05 10.55 Q15.5 10.95 15.1 11.75 L13.95 12.45 12.55 12.6 12.5 12.6" fill="url(#gradient7)" fill-rule="evenodd" stroke="none"/>
      <path d="M11.7 16.7 L11.0 19.95 11.0 20.15 11.05 20.5 11.65 22.9 11.95 23.9 11.9 23.9 12.0 24.1 12.0 24.15 12.55 25.45 13.7 27.55 12.1 27.75 Q12.15 26.7 11.55 24.8 9.25 18.1 11.7 16.7 M17.5 35.45 L17.55 36.4 Q17.55 38.85 16.25 39.9 15.1 40.85 11.8 41.15 L7.0 40.95 Q4.85 40.4 3.3 38.65 L3.05 38.3 2.7 37.6 2.55 36.75 2.55 36.7 2.55 36.25 2.55 35.9 Q2.75 36.75 3.55 37.65 L4.05 38.1 5.65 39.15 Q7.95 40.35 10.75 40.15 13.4 39.95 15.4 38.55 16.85 37.55 17.05 36.35 L16.55 36.6 Q13.35 37.9 7.35 35.85 4.2 34.75 3.35 33.2 L3.45 33.05 3.7 33.2 4.1 33.45 4.6 33.7 6.1 34.35 11.3 35.5 11.4 35.5 16.3 35.6 17.5 35.45 M6.3 28.95 L6.4 29.0 8.35 29.75 8.75 29.85 10.05 30.0 13.4 29.7 14.7 29.45 14.85 29.7 15.5 30.5 15.55 30.6 16.9 33.3 15.0 33.35 Q15.35 32.45 14.9 31.3 L14.65 30.55 Q12.55 31.2 9.4 30.55 L9.25 30.55 6.65 29.65 6.3 29.45 5.75 28.75 5.85 28.65 6.3 28.95" fill="#d4bc53" fill-rule="evenodd" stroke="none"/>
      <path d="M18.95 25.85 Q19.65 28.0 15.7 29.15 L16.95 29.7 16.95 29.75 17.05 31.15 17.25 31.55 17.4 31.9 15.65 30.65 15.55 30.6 15.5 30.5 14.85 29.4 14.7 29.45 13.4 29.7 10.05 30.0 8.75 29.85 8.35 29.75 6.4 29.0 6.3 28.95 5.85 28.6 5.65 28.45 5.25 27.95 5.8 28.35 5.95 28.45 7.05 29.1 10.0 29.45 14.5 28.95 14.65 28.9 15.15 28.8 Q17.6 28.15 18.4 26.9 L18.95 25.85 M20.25 33.05 L19.95 34.2 18.35 35.25 17.5 35.45 16.3 35.6 11.4 35.5 11.3 35.5 6.1 34.35 4.6 33.7 4.1 33.45 3.7 33.2 3.45 33.05 3.3 32.95 2.6 32.4 Q1.65 31.55 1.25 30.6 L3.15 32.6 Q4.35 33.45 6.9 34.0 16.3 36.15 19.05 34.05 L20.25 33.05 M18.85 38.7 L18.9 39.3 Q18.9 42.2 12.95 42.9 L12.8 42.9 12.6 42.95 12.35 42.95 12.2 43.0 11.95 43.0 11.7 43.05 11.55 43.05 11.35 43.05 11.1 43.05 10.95 43.05 6.2 42.65 5.0 42.3 4.3 42.0 4.2 41.95 4.05 41.9 3.6 41.7 2.15 40.8 1.65 40.35 Q0.9 39.7 0.5 38.85 L2.7 40.9 Q4.05 41.7 6.5 41.95 15.75 43.05 17.95 40.1 L18.85 38.7 M7.85 23.75 L8.15 23.75 8.1 24.45 8.05 24.65 7.6 25.55 7.05 25.85 Q6.9 25.9 6.8 26.0 L6.75 25.95 6.85 25.55 Q7.0 25.15 7.3 24.95 L7.85 23.75 M17.0 25.95 Q16.35 25.4 14.85 25.4 L14.65 25.4 14.15 25.45 13.0 25.5 12.55 25.45 12.0 24.15 12.0 24.1 11.9 23.9 11.95 23.9 13.75 23.85 Q13.2 24.2 13.6 24.55 L14.55 24.9 15.6 24.9 16.6 25.05 Q17.2 25.45 17.0 25.95 M5.65 28.45 L5.1 28.7 4.9 28.8 4.8 28.8 4.5 28.85 4.25 28.9 4.1 28.95 4.05 28.8 4.3 28.45 Q4.7 28.05 5.15 27.9 L5.2 27.9 5.65 28.45" fill="#bbca4f" fill-rule="evenodd" stroke="none"/>
      <path d="M11.95 23.9 Q13.75 23.75 15.55 23.95 18.1 24.25 18.7 25.3 L18.95 25.85 18.4 26.9 Q17.6 28.15 15.15 28.8 L14.65 28.9 14.5 28.95 10.0 29.45 7.05 29.1 5.95 28.45 5.8 28.35 5.25 27.95 5.65 28.45 5.85 28.6 6.3 28.95 5.85 28.65 5.65 28.45 5.2 27.9 Q4.8 27.3 4.75 26.65 L4.7 26.4 Q4.65 24.8 6.4 24.1 L7.85 23.75 7.3 24.95 Q7.0 25.15 6.85 25.55 L6.75 25.95 6.8 26.0 Q6.35 26.35 6.85 26.85 L6.95 26.95 Q7.75 27.75 10.05 27.8 L12.1 27.75 13.7 27.55 15.1 27.25 Q17.6 26.65 17.25 26.2 L17.0 25.95 Q17.2 25.45 16.6 25.05 L15.6 24.9 14.55 24.9 13.6 24.55 Q13.2 24.2 13.75 23.85 L11.95 23.9 M17.75 25.8 Q17.95 24.6 16.75 24.6 16.5 24.6 16.65 24.95 L17.1 25.3 Q17.6 25.25 17.75 25.8 M9.85 28.8 L11.9 28.5 14.0 28.1 15.55 27.65 13.95 28.0 12.0 28.35 9.2 28.45 Q7.3 28.1 6.45 27.6 L6.4 27.6 6.0 27.25 5.75 26.65 5.75 26.6 Q5.8 25.85 6.1 25.35 L6.35 24.95 6.05 24.95 Q5.7 25.0 5.5 25.45 L5.25 26.05 Q5.2 26.35 5.3 26.65 L5.8 27.5 5.95 27.65 6.25 27.9 Q7.1 28.6 8.4 28.75 L9.85 28.8" fill="url(#gradient8)" fill-rule="evenodd" stroke="none"/>
      <path d="M9.85 28.8 L8.4 28.75 Q7.1 28.6 6.25 27.9 L5.95 27.65 5.8 27.5 5.3 26.65 Q5.2 26.35 5.25 26.05 L5.5 25.45 Q5.7 25.0 6.05 24.95 L6.35 24.95 6.1 25.35 Q5.8 25.85 5.75 26.6 L5.75 26.65 6.0 27.25 6.4 27.6 6.45 27.6 Q7.3 28.1 9.2 28.45 L12.0 28.35 13.95 28.0 15.55 27.65 14.0 28.1 11.9 28.5 9.85 28.8 M17.75 25.8 Q17.6 25.25 17.1 25.3 L16.65 24.95 Q16.5 24.6 16.75 24.6 17.95 24.6 17.75 25.8 M17.5 31.15 Q17.45 30.7 17.8 30.8 18.8 31.1 18.85 31.85 L18.65 32.55 Q18.65 31.9 18.0 31.75 17.5 31.6 17.5 31.15 M2.3 30.5 Q1.6 29.3 2.0 28.4 L2.55 27.8 Q3.3 27.15 3.9 27.55 3.7 27.65 3.4 27.9 2.85 28.4 2.5 29.25 1.85 30.65 6.25 32.55 8.05 33.4 15.0 33.9 L9.8 33.55 Q6.75 33.25 5.1 32.6 3.15 31.85 2.3 30.5 M0.75 36.25 L1.1 35.4 Q1.4 34.8 1.8 34.8 L2.15 34.9 1.8 35.4 1.3 37.25 Q1.2 38.35 2.45 39.4 L4.95 40.9 Q6.6 41.75 12.9 41.8 11.65 42.0 8.15 41.8 5.55 41.65 4.05 41.0 2.4 40.3 1.45 38.8 0.6 37.4 0.75 36.25" fill="#fafd7f" fill-rule="evenodd" stroke="none"/>
      <path d="M16.95 29.75 L17.1 29.75 Q19.75 30.65 20.15 32.35 L20.25 33.05 19.05 34.05 Q16.3 36.15 6.9 34.0 4.35 33.45 3.15 32.6 L1.25 30.6 Q1.65 31.55 2.6 32.4 0.5 30.65 1.15 28.65 1.8 26.8 4.35 26.65 L4.75 26.65 Q4.8 27.3 5.2 27.9 L5.15 27.9 Q4.7 28.05 4.3 28.45 L4.05 28.8 4.1 28.95 Q3.35 29.2 3.9 30.05 L4.6 30.8 Q5.55 31.55 7.65 32.15 10.9 33.1 14.35 33.3 L15.0 33.35 16.9 33.3 Q17.75 33.15 17.8 32.85 17.9 32.45 17.4 31.9 L17.25 31.55 17.05 31.15 16.95 29.75 M3.4 33.05 L3.3 32.95 3.45 33.05 3.4 33.05 M15.5 30.5 L14.85 29.7 14.7 29.45 14.85 29.4 15.5 30.5 M17.5 31.15 Q17.5 31.6 18.0 31.75 18.65 31.9 18.65 32.55 L18.85 31.85 Q18.8 31.1 17.8 30.8 17.45 30.7 17.5 31.15 M2.3 30.5 Q3.15 31.85 5.1 32.6 6.75 33.25 9.8 33.55 L15.0 33.9 Q8.05 33.4 6.25 32.55 1.85 30.65 2.5 29.25 2.85 28.4 3.4 27.9 3.7 27.65 3.9 27.55 3.3 27.15 2.55 27.8 L2.0 28.4 Q1.6 29.3 2.3 30.5" fill="url(#gradient9)" fill-rule="evenodd" stroke="none"/>
      <path d="M17.55 36.4 L18.6 37.85 18.85 38.7 17.95 40.1 Q15.75 43.05 6.5 41.95 4.05 41.7 2.7 40.9 L0.5 38.85 Q0.9 39.7 1.65 40.35 -0.2 38.7 0.0 36.55 0.2 34.25 2.6 33.6 L3.2 33.5 3.05 33.85 Q2.65 34.95 2.55 35.9 L2.55 36.25 2.55 36.7 2.55 36.75 2.7 37.6 3.05 38.3 3.3 38.65 Q4.85 40.4 7.0 40.95 L11.8 41.15 Q15.1 40.85 16.25 39.9 17.55 38.85 17.55 36.4 M0.75 36.25 Q0.6 37.4 1.45 38.8 2.4 40.3 4.05 41.0 5.55 41.65 8.15 41.8 11.65 42.0 12.9 41.8 6.6 41.75 4.95 40.9 L2.45 39.4 Q1.2 38.35 1.3 37.25 L1.8 35.4 2.15 34.9 1.8 34.8 Q1.4 34.8 1.1 35.4 L0.75 36.25" fill="url(#gradient10)" fill-rule="evenodd" stroke="none"/>
      <path d="M10.75 0.7 L12.05 1.05 Q13.05 1.4 13.5 2.2 L14.1 3.15 Q15.55 4.05 15.8 4.65 15.95 5.0 15.35 4.85 L13.7 4.55 12.65 4.5 12.1 4.4 Q11.75 4.4 12.2 4.95 L12.75 5.45 9.2 5.35 6.55 6.4 6.15 6.5 6.95 5.55 Q7.2 4.9 6.45 5.4 L4.55 7.0 3.55 8.05 Q3.2 7.9 2.95 7.35 L2.8 7.2 2.75 7.95 Q2.55 8.7 2.35 8.1 2.15 7.55 2.65 5.55 3.25 3.4 4.85 2.1 6.2 1.05 8.0 0.75 L10.75 0.7" fill="url(#gradient11)" fill-rule="evenodd" stroke="none"/>
      <path d="M9.55 18.55 L9.8 21.05 10.1 23.5 10.25 24.45 10.15 25.35 9.5 26.1 Q9.15 26.4 9.2 27.0 L8.0 26.85 Q7.75 26.6 8.1 25.85 L8.85 24.0 Q9.55 21.35 9.4 18.8 L9.55 18.55" fill="url(#gradient12)" fill-rule="evenodd" stroke="none"/>
      <path d="M10.0 31.25 L9.75 31.5 8.4 31.25 6.25 31.05 5.85 31.35 5.8 31.5 Q5.25 31.3 5.15 30.9 5.1 30.65 5.5 29.95 L5.9 29.25 6.3 29.45 Q7.0 30.05 9.25 30.55 L10.0 30.75 Q12.0 31.15 11.0 31.05 L10.0 31.25" fill="url(#gradient13)" fill-rule="evenodd" stroke="none"/>
      <path d="M3.75 34.3 Q3.9 34.15 4.1 34.3 L5.0 34.9 Q5.9 35.4 9.25 36.5 L11.9 37.05 10.0 37.4 8.0 37.3 Q8.3 38.3 8.0 38.5 7.8 38.6 7.2 38.05 6.45 37.45 6.15 37.4 5.3 37.2 5.3 37.9 L5.9 38.75 6.5 39.3 Q5.9 39.25 4.4 38.3 L4.05 38.1 3.55 37.65 3.5 37.2 3.65 37.05 3.15 36.2 Q2.85 35.65 3.2 35.05 L3.75 34.3" fill="url(#gradient14)" fill-rule="evenodd" stroke="none"/>
    </g>
    <radialGradient cx="0" cy="0" gradientTransform="matrix(0.0024, 0.0048, 0.0048, -0.0024, 9.3, 9.25)" gradientUnits="userSpaceOnUse" id="gradient0" r="819.2" spreadMethod="pad">
      <stop offset="0.0" stop-color="#f8e775"/>
      <stop offset="1.0" stop-color="#d8ab4d"/>
    </radialGradient>
    <radialGradient cx="0" cy="0" gradientTransform="matrix(0.0053, 0.0106, 0.0106, -0.0053, 9.0, 5.3)" gradientUnits="userSpaceOnUse" id="gradient1" r="819.2" spreadMethod="pad">
      <stop offset="0.0" stop-color="#fdfd76"/>
      <stop offset="1.0" stop-color="#ebbf61"/>
    </radialGradient>
    <radialGradient cx="0" cy="0" gradientTransform="matrix(0.0012, 0.0023, 0.0023, -0.0012, 7.55, 8.5)" gradientUnits="userSpaceOnUse" id="gradient2" r="819.2" spreadMethod="pad">
      <stop offset="0.0" stop-color="#f8e775"/>
      <stop offset="1.0" stop-color="#d8ab4d"/>
    </radialGradient>
    <radialGradient cx="0" cy="0" gradientTransform="matrix(7.0E-4, 0.0015, 0.0015, -7.0E-4, 9.15, 4.4)" gradientUnits="userSpaceOnUse" id="gradient3" r="819.2" spreadMethod="pad">
      <stop offset="0.0" stop-color="#f8e775"/>
      <stop offset="1.0" stop-color="#d8ab4d"/>
    </radialGradient>
    <radialGradient cx="0" cy="0" gradientTransform="matrix(6.0E-4, 0.0013, 0.0013, -6.0E-4, 15.45, 7.2)" gradientUnits="userSpaceOnUse" id="gradient4" r="819.2" spreadMethod="pad">
      <stop offset="0.0" stop-color="#f8e775"/>
      <stop offset="1.0" stop-color="#d8ab4d"/>
    </radialGradient>
    <radialGradient cx="0" cy="0" gradientTransform="matrix(0.0194, 0.0, 0.0, -0.0194, 9.65, 3.45)" gradientUnits="userSpaceOnUse" id="gradient5" r="819.2" spreadMethod="pad">
      <stop offset="0.0" stop-color="#fdfd89"/>
      <stop offset="1.0" stop-color="#f0cb7b"/>
    </radialGradient>
    <radialGradient cx="0" cy="0" gradientTransform="matrix(0.0073, 0.0146, 0.0146, -0.0073, 9.75, 30.1)" gradientUnits="userSpaceOnUse" id="gradient6" r="819.2" spreadMethod="pad">
      <stop offset="0.0" stop-color="#fdfd76"/>
      <stop offset="1.0" stop-color="#ebbf61"/>
    </radialGradient>
    <radialGradient cx="0" cy="0" gradientTransform="matrix(9.0E-4, 0.0017, 0.0017, -9.0E-4, 13.35, 10.85)" gradientUnits="userSpaceOnUse" id="gradient7" r="819.2" spreadMethod="pad">
      <stop offset="0.0" stop-color="#f8e775"/>
      <stop offset="1.0" stop-color="#d8ab4d"/>
    </radialGradient>
    <radialGradient cx="0" cy="0" gradientTransform="matrix(0.0068, 0.0079, 0.0065, -0.007, 11.8, 27.05)" gradientUnits="userSpaceOnUse" id="gradient8" r="819.2" spreadMethod="pad">
      <stop offset="0.0" stop-color="#fdfd76"/>
      <stop offset="1.0" stop-color="#b8da4a"/>
    </radialGradient>
    <radialGradient cx="0" cy="0" gradientTransform="matrix(0.0057, 0.0114, 0.0114, -0.0057, 10.25, 31.85)" gradientUnits="userSpaceOnUse" id="gradient9" r="819.2" spreadMethod="pad">
      <stop offset="0.0" stop-color="#fdfd76"/>
      <stop offset="1.0" stop-color="#b8da4a"/>
    </radialGradient>
    <radialGradient cx="0" cy="0" gradientTransform="matrix(0.0077, 0.0127, 0.0096, -0.0087, 9.2, 38.9)" gradientUnits="userSpaceOnUse" id="gradient10" r="819.2" spreadMethod="pad">
      <stop offset="0.0" stop-color="#fdfd76"/>
      <stop offset="1.0" stop-color="#b8da4a"/>
    </radialGradient>
    <radialGradient cx="0" cy="0" gradientTransform="matrix(0.0124, -0.0017, -0.0012, -0.0103, 8.4, 0.7)" gradientUnits="userSpaceOnUse" id="gradient11" r="819.2" spreadMethod="pad">
      <stop offset="0.0" stop-color="#fefec4"/>
      <stop offset="1.0" stop-color="#eefc7d" stop-opacity="0.25882354"/>
    </radialGradient>
    <radialGradient cx="0" cy="0" gradientTransform="matrix(0.0038, 0.0, 0.0, -0.009, 8.05, 23.2)" gradientUnits="userSpaceOnUse" id="gradient12" r="819.2" spreadMethod="pad">
      <stop offset="0.0" stop-color="#fefec4"/>
      <stop offset="1.0" stop-color="#eefc7d" stop-opacity="0.25882354"/>
    </radialGradient>
    <radialGradient cx="0" cy="0" gradientTransform="matrix(0.0049, 0.0, 0.0, -0.0117, 5.6, 30.5)" gradientUnits="userSpaceOnUse" id="gradient13" r="819.2" spreadMethod="pad">
      <stop offset="0.0" stop-color="#fefec4"/>
      <stop offset="1.0" stop-color="#eefc7d" stop-opacity="0.25882354"/>
    </radialGradient>
    <radialGradient cx="0" cy="0" gradientTransform="matrix(0.0073, 0.0, 0.0, -0.0175, 3.75, 37.0)" gradientUnits="userSpaceOnUse" id="gradient14" r="819.2" spreadMethod="pad">
      <stop offset="0.0" stop-color="#fefec4"/>
      <stop offset="1.0" stop-color="#eefc7d" stop-opacity="0.25882354"/>
    </radialGradient>
  </defs>
</svg>
