<?xml version="1.0" encoding="UTF-8" standalone="no"?>
<svg xmlns:xlink="http://www.w3.org/1999/xlink" height="84.45px" width="71.8px" xmlns="http://www.w3.org/2000/svg">
  <g transform="matrix(1.0, 0.0, 0.0, 1.0, 0.0, 0.0)">
    <use height="84.45" transform="matrix(1.0, 0.0, 0.0, 1.0, 0.0, 0.0)" width="71.8" xlink:href="#shape0"/>
  </g>
  <defs>
    <g id="shape0" transform="matrix(1.0, 0.0, 0.0, 1.0, 0.0, 0.0)">
      <path d="M58.9 17.3 L66.45 20.75 59.3 55.1 51.85 58.8 52.8 84.45 41.65 83.8 38.8 44.15 58.9 17.3" fill="url(#gradient0)" fill-rule="evenodd" stroke="none"/>
      <path d="M42.3 69.4 L42.45 68.3 52.2 69.6 52.25 70.7 42.3 69.4" fill="#bd877c" fill-rule="evenodd" stroke="none"/>
      <path d="M53.55 45.65 L53.9 44.55 61.0 46.85 60.8 47.95 53.55 45.65" fill="#bd877c" fill-rule="evenodd" stroke="none"/>
      <path d="M42.55 56.75 L42.9 55.7 51.85 58.9 51.9 60.1 42.55 56.75" fill="#bd877c" fill-rule="evenodd" stroke="none"/>
      <path d="M56.95 28.4 L57.0 27.3 64.95 27.85 64.75 29.0 56.95 28.4" fill="#bd877c" fill-rule="evenodd" stroke="none"/>
      <path d="M55.4 36.05 L55.55 34.95 63.2 36.25 63.0 37.35 55.4 36.05" fill="#bd877c" fill-rule="evenodd" stroke="none"/>
      <path d="M58.4 20.55 L58.8 18.5 63.5 16.35 66.45 20.75 66.0 22.4 58.4 20.55" fill="#bd877c" fill-rule="evenodd" stroke="none"/>
      <path d="M35.0 12.45 Q42.85 12.4 59.95 13.1 L52.55 50.3 43.1 52.35 41.85 83.8 4.6 80.35 9.65 8.9 Q28.6 12.5 35.0 12.45" fill="url(#gradient1)" fill-rule="evenodd" stroke="none"/>
      <path d="M42.7 44.55 L43.1 35.15 15.65 33.45 14.4 42.75 32.15 44.55 42.7 44.55 M44.15 15.9 L45.3 16.0 44.4 25.7 57.05 27.3 56.9 28.35 56.9 28.4 33.05 25.45 32.25 33.35 55.5 34.9 55.4 36.05 44.2 35.25 43.8 44.55 53.7 44.55 53.5 45.65 31.25 45.6 29.95 53.95 42.8 55.7 42.65 56.8 18.8 53.55 14.0 53.35 13.0 64.85 19.5 64.55 42.45 68.3 42.25 69.4 26.2 66.8 25.05 82.2 23.9 82.1 25.1 66.6 19.45 65.65 5.4 66.35 5.5 65.25 11.85 64.9 12.9 53.35 6.4 53.1 6.45 52.0 18.85 52.4 28.85 53.8 30.1 45.45 7.1 43.15 7.2 42.0 13.3 42.65 14.5 33.35 7.85 32.95 7.95 31.85 31.1 33.3 31.9 25.35 8.55 23.5 8.65 22.35 17.1 23.05 17.75 13.4 18.85 13.45 18.2 23.1 34.4 24.4 43.3 25.55 44.15 15.9" fill="#9e5e56" fill-rule="evenodd" stroke="none"/>
      <path d="M58.8 18.5 L58.4 20.55 9.1 17.0 9.3 14.0 27.85 12.3 58.8 18.5" fill="#93554e" fill-rule="evenodd" stroke="none"/>
      <path d="M23.75 19.85 L24.4 19.15 Q25.35 18.45 27.0 18.6 28.2 18.75 28.85 19.85 L29.95 19.4 32.0 19.1 Q33.25 19.35 32.85 21.35 L33.3 21.75 Q33.8 22.3 33.85 23.1 34.0 24.35 31.85 25.85 L32.45 26.8 Q32.95 28.0 32.5 29.25 32.05 30.5 31.6 30.7 L31.25 30.6 32.0 31.9 Q32.65 33.35 32.1 34.35 31.25 36.0 30.6 35.6 L31.25 36.65 Q31.8 37.9 31.5 38.75 31.0 40.1 30.35 39.85 29.5 43.0 28.1 43.0 L26.45 42.65 25.85 42.25 25.05 43.05 Q24.05 43.8 22.85 43.75 21.7 43.65 21.0 43.2 L20.5 42.75 19.9 43.7 Q19.15 44.65 18.1 44.5 17.1 44.35 16.65 43.85 L16.35 43.35 15.25 43.35 Q14.15 43.15 14.0 42.1 13.85 41.1 14.8 40.4 L15.75 39.85 Q15.0 37.85 15.75 36.35 16.2 35.4 16.95 35.4 L17.6 35.6 Q16.35 33.85 16.85 32.35 17.15 31.4 17.55 30.85 L17.85 30.5 17.2 30.0 Q16.65 29.25 16.85 28.25 17.1 27.2 18.1 26.75 L19.0 26.5 Q17.75 24.0 18.5 23.1 19.25 22.25 20.5 22.25 L20.1 21.15 Q19.9 19.95 20.75 19.75 L23.75 19.85" fill="#cb9878" fill-rule="evenodd" stroke="none"/>
      <path d="M36.6 53.9 L38.35 54.1 Q39.25 54.75 39.1 56.6 L39.55 56.6 Q40.0 56.8 40.0 57.5 40.0 58.6 38.1 59.6 L38.6 59.95 Q39.05 60.55 39.0 61.85 38.9 63.2 37.95 63.9 L37.0 64.35 37.65 64.7 Q38.25 65.2 38.25 66.0 38.25 67.25 36.6 67.85 L37.2 68.2 Q37.75 68.8 37.35 70.0 36.75 71.85 35.85 71.75 L36.35 72.35 Q36.75 73.1 36.35 74.1 36.0 75.15 35.25 75.2 L34.6 75.1 Q34.0 76.75 32.6 77.5 31.75 77.95 30.45 76.9 L29.35 75.75 Q28.25 76.75 26.75 77.0 25.8 77.15 25.2 76.2 L24.75 75.25 Q23.6 76.35 22.35 76.35 21.55 76.35 21.35 75.2 L21.25 74.0 Q20.75 72.5 21.25 71.0 21.55 70.05 22.2 69.35 L22.75 68.85 Q21.75 68.35 21.85 67.1 21.95 66.3 22.85 65.1 L23.75 64.0 Q22.6 62.85 22.85 61.85 23.0 61.25 23.9 60.6 L24.75 60.1 Q23.1 58.85 23.5 57.75 23.7 57.05 24.9 56.7 L26.0 56.5 Q25.6 55.25 26.25 54.1 26.65 53.4 27.75 53.5 L28.75 53.75 29.0 53.05 Q29.45 52.35 30.75 52.5 31.85 52.6 32.35 53.75 L32.75 52.85 Q33.3 52.05 34.1 52.5 35.35 53.25 35.5 54.1 L36.6 53.9" fill="#cb9878" fill-rule="evenodd" stroke="none"/>
      <path d="M21.5 21.1 L31.6 20.75 29.35 40.6 15.85 42.5 21.5 21.1" fill="#a35855" fill-rule="evenodd" stroke="none"/>
      <path d="M27.5 54.5 L37.6 56.15 33.65 75.1 21.85 74.15 27.5 54.5" fill="#a35855" fill-rule="evenodd" stroke="none"/>
      <path d="M61.8 7.55 L60.9 18.85 0.0 13.1 5.4 0.0 61.8 7.55" fill="#a35855" fill-rule="evenodd" stroke="none"/>
      <path d="M23.45 22.9 L29.95 22.0 27.85 38.95 18.45 40.3 23.45 22.9" fill="#714240" fill-rule="evenodd" stroke="none"/>
      <path d="M29.25 56.2 L35.65 56.7 32.1 73.55 24.3 72.9 29.25 56.2" fill="#714240" fill-rule="evenodd" stroke="none"/>
      <path d="M61.8 7.55 L71.8 16.2 70.55 22.55 60.9 18.85 61.8 7.55" fill="#ad6862" fill-rule="evenodd" stroke="none"/>
      <path d="M59.3 55.1 L51.85 58.8 43.1 52.35 52.55 50.3 59.3 55.1" fill="#b07a6f" fill-rule="evenodd" stroke="none"/>
      <path d="M34.1 60.0 Q34.5 58.35 33.75 57.75 L32.85 57.3 32.25 57.1 34.8 57.3 34.1 60.0" fill="#b87f74" fill-rule="evenodd" stroke="none"/>
      <path d="M26.8 23.1 L29.05 22.6 28.4 26.65 Q28.4 24.2 28.05 23.65 27.8 23.3 27.3 23.15 L26.8 23.1" fill="#b87f74" fill-rule="evenodd" stroke="none"/>
    </g>
    <linearGradient gradientTransform="matrix(0.0103, 0.0016, 0.0016, -0.0103, 52.25, 50.85)" gradientUnits="userSpaceOnUse" id="gradient0" spreadMethod="pad" x1="-819.2" x2="819.2">
      <stop offset="0.0" stop-color="#c5988d"/>
      <stop offset="1.0" stop-color="#d2b3aa"/>
    </linearGradient>
    <linearGradient gradientTransform="matrix(0.0277, 0.0023, 0.0023, -0.0277, 29.3, 46.65)" gradientUnits="userSpaceOnUse" id="gradient1" spreadMethod="pad" x1="-819.2" x2="819.2">
      <stop offset="0.0" stop-color="#a8655c"/>
      <stop offset="1.0" stop-color="#c08e82"/>
    </linearGradient>
  </defs>
</svg>
