<?xml version="1.0" encoding="UTF-8" standalone="no"?>
<svg xmlns:xlink="http://www.w3.org/1999/xlink" height="172.4px" width="171.85px" xmlns="http://www.w3.org/2000/svg">
  <g transform="matrix(1.0, 0.0, 0.0, 1.0, 0.0, 0.0)">
    <use height="172.4" transform="matrix(1.0, 0.0, 0.0, 1.0, 0.0, 0.0)" width="171.85" xlink:href="#shape0"/>
    <use height="56.9" transform="matrix(1.0, 0.0, 0.0, 1.0, 26.95, 85.95)" width="118.15" xlink:href="#sprite0"/>
    <use height="20.95" transform="matrix(1.0, 0.0, 0.0, 1.0, 39.7, 51.4)" width="92.6" xlink:href="#shape2"/>
    <use height="61.0" transform="matrix(1.0, 0.0, 0.0, 1.0, 31.25, 27.45)" width="109.5" xlink:href="#sprite1"/>
  </g>
  <defs>
    <g id="shape0" transform="matrix(1.0, 0.0, 0.0, 1.0, 0.0, 0.0)">
      <path d="M110.95 3.75 L114.25 4.85 114.2 7.05 Q114.45 12.95 114.15 23.4 113.75 35.55 113.8 39.9 L113.7 45.35 113.55 56.2 113.4 61.65 112.85 75.25 112.55 79.75 Q111.95 87.95 112.1 96.1 L112.15 99.4 Q112.2 110.1 112.95 131.6 113.4 150.95 112.15 164.0 L111.95 167.4 111.9 167.75 109.35 168.5 109.4 167.05 Q110.8 144.75 111.0 134.3 111.3 116.05 109.55 101.75 L109.35 98.5 Q108.75 89.2 109.2 82.25 L109.55 76.95 Q111.25 50.2 110.55 30.2 L110.65 24.65 110.95 3.75" fill="#d99e58" fill-rule="evenodd" stroke="none"/>
      <path d="M105.2 2.2 L109.8 3.4 109.4 30.2 109.35 52.1 Q109.3 64.95 108.75 74.1 L108.45 79.0 107.9 84.2 Q107.5 87.35 107.8 89.35 107.8 94.75 108.25 100.15 L108.55 103.7 Q110.45 116.05 109.7 135.55 108.6 162.95 108.7 167.5 L108.7 168.7 105.85 169.45 105.9 166.15 Q108.0 145.15 108.3 137.75 108.85 121.75 106.2 109.55 L104.9 104.9 103.4 100.15 Q102.3 97.15 103.6 92.0 105.15 85.9 105.0 83.65 L105.3 78.8 Q105.9 70.35 105.45 57.2 L104.85 35.25 105.2 2.2" fill="#d99e58" fill-rule="evenodd" stroke="none"/>
      <path d="M115.2 5.15 L116.55 5.7 116.15 26.0 Q115.9 38.3 116.2 46.4 L116.15 50.45 Q115.85 63.3 115.2 70.95 L114.55 80.15 Q113.6 96.05 113.5 125.1 113.05 108.5 113.75 97.6 L113.8 93.95 Q114.05 83.65 114.45 75.55 L114.75 65.15 Q114.65 53.65 114.8 47.85 L114.85 44.45 115.2 5.15" fill="#d99e58" fill-rule="evenodd" stroke="none"/>
      <path d="M123.55 53.45 Q123.5 45.5 123.8 31.25 L124.1 9.0 125.05 9.5 124.75 30.5 Q124.5 43.9 124.55 51.55 L124.4 76.45 124.65 82.45 124.35 88.4 Q121.25 104.0 121.0 125.2 120.9 130.9 121.55 162.0 L121.55 164.0 121.3 164.15 120.55 157.1 Q119.35 141.65 120.75 119.8 122.75 95.0 123.45 82.4 L123.35 76.3 123.55 53.45" fill="#d99e58" fill-rule="evenodd" stroke="none"/>
      <path d="M117.25 49.3 Q116.9 40.6 117.15 27.65 L117.6 6.1 122.55 8.2 122.1 29.55 Q121.8 42.35 122.05 50.9 L121.5 83.4 118.55 121.35 Q117.4 142.95 119.6 159.55 119.8 162.1 119.25 165.05 L114.8 166.8 115.15 162.5 115.7 122.0 Q115.95 96.9 116.4 81.45 L116.9 73.55 Q117.35 65.35 117.25 54.0 L117.25 49.3" fill="#d99e58" fill-rule="evenodd" stroke="none"/>
      <path d="M98.7 0.95 L100.2 1.2 Q100.2 11.65 100.7 21.15 L100.9 37.7 101.0 57.5 Q100.95 68.7 100.1 77.35 L99.85 82.5 99.05 95.65 99.1 100.05 100.6 104.1 102.25 108.85 103.45 113.65 Q105.05 123.65 104.0 136.3 103.4 143.85 100.95 159.05 100.15 163.9 101.35 167.95 L101.8 170.3 100.85 170.45 Q100.25 167.05 99.95 163.65 L99.8 159.2 101.0 152.05 Q103.55 136.55 103.8 129.15 104.25 115.9 100.15 106.5 L98.35 101.2 97.75 96.9 Q97.1 89.85 98.9 83.25 L99.25 78.45 Q100.25 59.3 99.5 36.85 L99.1 14.8 Q98.75 7.05 98.7 0.95" fill="#d99e58" fill-rule="evenodd" stroke="none"/>
      <path d="M77.85 0.4 L80.75 0.2 80.8 20.9 80.6 79.8 Q80.25 112.35 79.2 138.65 L79.3 143.2 Q79.35 145.2 79.7 147.7 L80.0 152.4 Q80.65 161.3 80.45 166.25 L80.35 171.6 77.95 171.4 77.95 170.6 77.15 161.35 76.95 158.25 76.65 152.1 76.6 137.45 77.9 77.85 Q78.5 43.4 77.9 18.25 L77.85 0.4" fill="#d99e58" fill-rule="evenodd" stroke="none"/>
      <path d="M81.65 0.15 L83.25 0.1 83.3 26.25 83.5 54.55 Q83.5 73.2 83.75 83.0 83.75 87.55 82.75 109.25 81.95 125.3 82.9 135.65 L82.9 140.65 82.75 150.6 82.75 171.7 81.45 171.65 81.4 152.2 80.9 138.2 Q80.85 125.2 81.65 80.0 82.3 43.8 81.65 21.75 L81.65 0.15" fill="#d99e58" fill-rule="evenodd" stroke="none"/>
      <path d="M84.15 0.05 L85.95 0.0 91.5 0.2 91.5 52.8 Q91.65 58.05 91.45 62.7 L91.0 90.65 Q90.8 95.1 90.9 101.3 L91.0 111.45 Q90.8 118.0 91.2 128.15 L91.75 144.75 91.8 149.45 91.75 158.8 92.1 162.05 93.6 171.4 85.95 171.8 83.6 171.7 84.0 153.3 84.05 138.25 Q83.1 118.0 83.85 81.25 84.65 41.55 84.15 24.05 L84.15 0.05" fill="#d99e58" fill-rule="evenodd" stroke="none"/>
      <path d="M101.85 1.5 L103.1 1.75 Q102.85 16.1 103.45 26.05 L103.55 31.95 104.25 56.15 Q104.35 70.0 102.55 79.9 L102.1 85.0 Q101.7 87.55 101.6 90.3 102.0 95.1 103.0 100.9 L103.95 106.25 105.1 110.95 Q107.45 123.05 106.45 139.65 105.85 149.2 103.95 168.15 L104.0 169.85 103.9 169.9 103.7 167.85 Q103.2 166.05 103.25 163.45 L103.4 159.05 Q105.25 143.35 105.75 135.55 106.6 122.05 104.55 112.2 L103.25 107.65 101.4 102.6 Q100.8 100.4 100.55 97.2 L100.3 91.75 100.4 88.4 100.8 85.0 101.1 80.4 Q102.75 71.25 102.35 56.65 101.8 35.55 101.9 32.4 L101.85 21.2 101.85 1.5" fill="#d99e58" fill-rule="evenodd" stroke="none"/>
      <path d="M72.2 1.15 L76.8 0.5 76.85 17.35 Q77.2 43.9 76.7 76.6 L75.35 135.85 75.35 141.95 75.5 148.0 75.75 152.6 76.8 171.05 76.8 171.3 72.65 170.75 71.45 150.2 71.2 145.8 71.05 142.1 71.0 138.4 Q71.0 110.15 71.75 63.1 L72.0 59.9 Q72.55 53.95 72.55 46.5 L72.2 33.1 72.4 16.5 72.25 10.85 72.2 1.15" fill="#d99e58" fill-rule="evenodd" stroke="none"/>
      <path d="M92.75 0.3 L94.95 0.5 Q95.05 23.3 95.4 38.6 L95.55 43.25 96.25 59.2 Q96.5 68.2 95.6 74.95 L94.7 87.8 Q94.05 93.3 94.7 99.15 L95.15 102.85 96.25 107.95 Q98.45 116.8 98.65 127.7 98.75 136.4 97.55 147.95 L96.3 159.45 96.35 162.65 Q96.5 167.1 97.2 171.05 L95.55 171.25 Q94.65 167.0 94.0 162.2 L93.65 158.85 93.15 149.0 92.95 144.05 Q92.4 136.85 92.45 126.7 L92.65 109.7 92.45 104.1 Q92.1 95.7 92.0 87.15 L92.5 70.2 92.75 45.95 92.75 0.3" fill="#d99e58" fill-rule="evenodd" stroke="none"/>
      <path d="M125.95 55.85 Q125.5 45.85 125.5 32.85 L125.7 9.8 126.35 10.15 126.75 33.4 127.2 56.6 127.05 73.6 127.0 84.65 126.85 88.25 Q121.75 107.9 122.85 135.15 122.95 143.45 123.9 150.7 L124.95 162.35 123.35 163.2 123.0 160.05 Q118.35 126.55 125.4 88.4 L125.95 82.5 126.0 76.55 126.1 72.55 126.0 60.65 125.95 55.85" fill="#d99e58" fill-rule="evenodd" stroke="none"/>
      <path d="M67.6 4.2 L67.9 1.95 71.05 1.35 71.05 14.3 Q70.8 23.05 70.95 46.2 71.05 66.5 70.5 78.1 70.0 96.8 70.0 129.05 L70.25 149.25 70.35 150.5 71.5 167.95 71.65 170.6 68.8 170.05 68.7 161.6 68.25 152.95 67.55 137.7 Q66.55 116.0 67.6 75.2 68.7 32.9 67.95 12.9 L67.6 8.5 67.6 4.2" fill="#d99e58" fill-rule="evenodd" stroke="none"/>
      <path d="M95.55 5.95 L95.35 0.55 98.1 0.9 98.35 36.15 Q98.6 59.85 97.9 75.75 L97.5 80.1 97.05 84.45 Q96.2 90.9 96.95 97.6 L98.6 106.7 Q101.5 119.45 101.85 129.15 102.35 141.55 98.95 151.7 98.35 153.65 98.35 156.1 L98.3 160.3 98.5 164.15 Q98.75 167.15 99.6 170.7 L98.85 170.8 Q98.2 166.65 98.05 162.1 L97.95 158.7 98.65 149.25 Q99.9 135.8 99.85 127.9 99.85 116.2 97.6 106.85 L96.35 101.7 95.8 98.3 Q95.0 92.8 95.55 87.75 L96.3 73.95 Q97.15 60.85 96.8 41.3 L96.7 36.9 95.55 5.95" fill="#d99e58" fill-rule="evenodd" stroke="none"/>
      <path d="M163.1 75.65 L163.35 72.85 164.05 107.25 Q163.7 113.25 163.95 121.8 L163.55 122.7 163.55 122.45 Q163.4 114.35 163.55 106.1 L163.1 75.65" fill="#d99e58" fill-rule="evenodd" stroke="none"/>
      <path d="M49.9 40.8 L50.9 45.35 51.65 55.2 Q49.95 48.35 49.4 44.2 48.9 41.0 50.05 36.8 49.55 39.0 49.9 40.8" fill="#d99e58" fill-rule="evenodd" stroke="none"/>
      <path d="M147.2 126.9 L147.4 145.8 147.05 146.2 Q146.95 138.5 147.2 126.9" fill="#d99e58" fill-rule="evenodd" stroke="none"/>
      <path d="M138.15 57.4 Q138.75 48.65 137.75 36.65 L135.75 16.0 Q138.65 18.1 140.0 19.25 140.35 30.6 141.65 39.8 142.0 43.4 141.8 47.9 L141.15 56.0 140.8 60.6 Q139.8 71.6 139.5 77.1 L138.65 106.45 Q138.0 117.0 138.25 129.9 138.4 138.5 139.15 153.25 L135.5 156.0 Q134.3 140.9 133.85 132.65 133.2 119.65 133.55 109.1 L134.15 100.65 135.3 94.3 135.75 89.95 135.9 85.7 135.85 82.85 138.15 57.4" fill="#d99e58" fill-rule="evenodd" stroke="none"/>
      <path d="M168.2 69.8 L168.0 60.55 Q171.85 72.85 171.85 85.9 171.85 96.8 169.05 107.7 L168.8 94.45 168.2 69.8" fill="#d99e58" fill-rule="evenodd" stroke="none"/>
      <path d="M62.15 89.85 L62.8 83.2 Q62.3 115.55 63.5 139.65 L63.55 143.5 63.55 168.8 61.35 168.2 62.1 144.8 62.15 139.55 61.05 114.85 Q60.6 100.6 62.15 89.85" fill="#d99e58" fill-rule="evenodd" stroke="none"/>
      <path d="M52.55 123.15 L53.55 129.1 54.45 135.25 Q53.05 129.9 52.55 123.15" fill="#d99e58" fill-rule="evenodd" stroke="none"/>
      <path d="M162.55 53.6 Q162.4 51.3 162.4 48.9 L162.45 46.9 Q164.5 50.95 166.05 55.05 L166.9 63.45 166.95 69.15 167.55 93.0 167.6 112.55 165.2 118.95 165.1 96.1 164.4 73.4 164.4 67.9 163.55 63.1 Q163.05 61.1 162.85 58.25 L162.55 53.6" fill="#d99e58" fill-rule="evenodd" stroke="none"/>
      <path d="M148.5 55.5 L148.9 27.55 151.2 30.15 Q150.5 44.05 150.5 51.05 L150.7 56.1 151.35 69.3 151.85 82.5 151.7 107.25 151.4 124.3 Q151.2 134.4 151.4 141.45 L148.75 144.4 Q148.25 133.1 148.3 125.65 148.4 115.4 149.45 106.9 L149.6 102.4 149.6 97.65 149.25 93.0 149.15 84.1 148.65 60.7 148.5 55.5" fill="#d99e58" fill-rule="evenodd" stroke="none"/>
      <path d="M142.35 57.1 Q143.1 50.5 142.4 40.8 141.4 30.0 141.15 24.6 L140.85 19.9 146.15 24.7 146.55 56.1 146.2 86.6 146.55 98.4 146.5 106.5 Q145.25 123.7 145.75 147.45 L140.45 152.25 139.2 136.95 Q138.35 130.25 139.2 120.3 L140.6 103.55 140.9 90.05 140.8 78.9 142.35 57.1" fill="#d99e58" fill-rule="evenodd" stroke="none"/>
      <path d="M154.9 55.25 L154.6 50.55 Q154.55 44.05 155.4 35.5 L159.35 41.35 159.25 43.6 Q159.1 45.9 159.2 48.65 159.3 54.1 160.5 63.8 L162.05 79.25 162.75 124.25 Q160.4 128.95 157.25 133.75 L157.65 114.05 157.4 85.65 157.55 79.85 Q157.65 76.5 157.35 74.15 155.35 60.7 154.9 55.25" fill="#d99e58" fill-rule="evenodd" stroke="none"/>
      <path d="M151.05 55.05 Q150.8 46.6 151.85 30.9 L154.75 34.55 153.45 43.75 153.3 47.2 Q153.25 49.15 153.75 50.7 L154.15 55.9 Q154.6 61.15 155.8 71.55 156.65 80.8 156.25 87.3 L156.2 112.0 Q155.2 122.1 155.8 135.8 L152.8 139.75 152.3 125.4 Q152.2 117.5 152.85 111.1 L153.0 106.7 152.9 83.5 152.3 71.65 151.5 59.9 151.05 55.05" fill="#d99e58" fill-rule="evenodd" stroke="none"/>
      <path d="M127.7 35.05 L127.35 10.7 Q130.5 12.45 133.85 14.65 L134.15 21.45 Q134.65 32.7 136.45 40.95 137.25 48.55 136.85 54.3 L136.05 57.55 135.35 60.75 133.85 73.95 Q133.65 76.9 133.8 80.9 L134.1 87.6 134.15 90.75 132.45 100.0 Q126.65 127.7 132.45 154.45 L133.1 157.6 Q130.2 159.55 125.8 161.95 L125.0 157.1 Q124.4 154.3 123.9 150.7 123.2 142.85 122.85 135.15 122.85 125.35 124.45 111.4 L127.2 88.0 127.5 84.1 Q127.9 77.75 127.7 72.35 L128.0 59.45 127.7 35.05" fill="#d99e58" fill-rule="evenodd" stroke="none"/>
      <path d="M29.3 37.55 L29.1 32.6 Q27.8 28.55 26.75 23.8 L29.3 21.45 Q30.3 26.6 31.25 30.0 31.9 32.2 31.85 35.15 L31.6 40.15 31.2 45.2 29.45 57.75 Q28.4 65.3 28.25 70.25 L28.45 85.9 Q28.4 88.75 28.7 94.55 L28.9 103.25 28.75 106.75 Q28.85 127.65 27.8 138.95 27.0 142.95 28.15 146.25 L28.35 149.55 24.4 145.75 23.7 140.4 Q23.5 137.35 23.9 135.0 25.3 129.7 25.2 121.05 25.05 110.2 25.4 107.05 L25.4 70.45 Q25.65 69.1 25.15 66.35 24.65 63.6 24.85 62.4 L27.85 49.95 Q29.2 43.05 29.3 37.55" fill="#d99e58" fill-rule="evenodd" stroke="none"/>
      <path d="M35.55 16.45 L37.35 28.45 Q38.15 35.25 37.75 40.6 L37.5 45.4 36.6 57.4 Q36.1 64.5 36.05 69.2 L36.1 73.45 36.85 114.0 36.95 118.5 Q37.3 126.2 36.9 133.6 L36.6 138.7 36.05 155.75 32.3 152.9 32.35 142.55 Q33.2 132.05 33.2 111.55 L33.15 68.4 Q33.2 63.2 34.25 54.95 L35.95 41.45 36.25 37.0 36.15 28.05 34.95 22.9 33.45 18.0 35.55 16.45" fill="#d99e58" fill-rule="evenodd" stroke="none"/>
      <path d="M39.5 38.7 L39.35 33.5 Q39.25 29.65 38.4 24.45 L36.85 15.5 Q39.15 13.9 41.9 12.2 42.8 18.25 42.85 26.7 L42.75 41.2 Q42.15 47.9 43.05 52.55 L43.15 53.05 Q43.5 57.25 44.95 64.85 46.55 73.1 46.95 76.6 47.8 84.35 46.45 90.35 44.75 101.5 44.35 114.1 44.05 123.85 44.5 137.65 L44.5 161.1 38.2 157.25 38.35 143.6 38.25 132.95 38.4 119.7 38.7 69.8 38.7 64.7 Q39.7 49.5 39.5 38.7" fill="#d99e58" fill-rule="evenodd" stroke="none"/>
      <path d="M43.7 36.8 Q45.05 29.45 45.15 23.9 45.3 16.9 43.65 11.2 L49.1 8.35 Q51.9 15.2 49.8 26.95 47.45 40.15 48.4 45.2 L52.3 65.55 Q53.35 85.45 52.9 103.35 L52.35 106.05 Q51.0 113.25 51.85 122.25 L53.15 131.05 Q53.7 135.9 53.55 139.7 L53.45 143.6 Q53.3 148.4 52.0 164.8 L46.35 162.05 46.7 155.0 Q47.05 146.65 47.0 141.0 L46.85 137.45 Q46.2 134.15 45.7 129.7 44.7 115.1 46.75 97.45 L46.75 97.3 47.45 91.8 47.75 88.9 47.95 87.4 Q48.95 79.25 47.9 70.0 47.0 62.6 44.5 52.55 L43.4 47.6 Q43.25 42.95 43.7 36.8" fill="#d99e58" fill-rule="evenodd" stroke="none"/>
      <path d="M50.7 7.6 Q54.6 5.85 58.0 4.7 L58.05 5.45 Q57.9 8.9 60.05 16.75 62.0 23.8 61.2 28.05 L59.45 34.65 Q58.6 38.5 59.2 41.3 61.65 56.85 61.1 78.25 60.8 90.5 59.7 114.9 59.7 118.5 60.65 125.95 61.65 133.3 61.6 137.1 L61.55 142.15 61.05 155.1 60.85 168.05 54.05 165.6 55.0 153.1 Q55.5 145.85 55.6 140.6 L55.65 136.3 Q55.55 133.9 53.8 123.2 52.5 115.1 53.35 110.0 55.95 94.1 55.25 78.25 L55.3 76.6 Q55.3 72.6 54.45 67.6 53.35 57.1 50.9 45.35 L50.4 39.8 Q50.15 37.75 50.4 35.55 L50.8 34.3 52.9 29.3 54.8 24.1 Q55.65 20.45 53.9 15.7 51.6 10.35 50.7 7.6" fill="#d99e58" fill-rule="evenodd" stroke="none"/>
      <path d="M0.15 90.0 L0.35 79.4 Q1.25 67.1 5.75 55.15 L5.6 71.9 4.85 101.5 4.8 105.7 4.95 114.4 Q0.75 102.35 0.15 90.0" fill="#d99e58" fill-rule="evenodd" stroke="none"/>
      <path d="M7.6 50.85 Q9.85 45.7 12.6 41.3 L12.45 53.8 12.45 66.55 12.2 76.8 Q11.75 89.25 11.7 98.1 L11.7 102.4 Q11.25 106.65 11.4 114.05 L11.3 125.6 11.05 127.9 Q8.6 123.4 7.0 119.7 6.5 109.35 6.8 103.95 L6.9 100.1 7.5 73.0 7.6 63.1 Q7.4 58.3 7.6 50.85" fill="#d99e58" fill-rule="evenodd" stroke="none"/>
      <path d="M19.6 37.25 L19.5 32.9 19.4 31.7 23.05 27.5 23.6 31.35 23.85 36.55 Q24.0 42.8 23.05 54.65 22.05 66.85 22.1 72.65 L22.3 103.45 Q22.35 107.45 22.85 115.75 23.0 122.9 21.45 127.15 20.35 130.6 20.35 134.6 20.35 137.65 21.0 142.0 18.6 139.25 16.35 136.15 16.45 134.0 17.0 132.05 18.4 126.8 18.05 117.75 17.65 106.8 18.05 103.1 L17.95 97.6 Q17.85 89.8 18.1 77.95 L18.35 67.6 Q18.4 63.0 19.05 52.45 19.65 42.65 19.6 37.25" fill="#d99e58" fill-rule="evenodd" stroke="none"/>
      <path d="M13.8 39.4 L17.45 34.15 Q17.7 41.65 17.5 51.55 L17.1 69.0 17.0 73.7 Q16.65 92.15 16.65 97.35 L16.65 102.05 16.55 118.05 Q16.5 127.6 15.05 134.05 L15.0 134.25 Q13.5 132.1 12.15 129.75 L12.25 128.35 Q13.1 115.9 12.95 103.65 L12.95 99.2 Q12.9 91.75 13.2 77.05 L13.55 66.4 Q14.05 51.0 13.8 39.4" fill="#d99e58" fill-rule="evenodd" stroke="none"/>
      <path d="M26.65 39.5 L26.85 34.9 Q25.6 31.1 24.5 26.0 L25.35 25.1 26.95 31.3 27.45 35.95 Q28.0 43.6 26.35 50.1 24.9 56.4 24.4 59.65 23.7 64.9 24.25 69.05 L24.5 76.9 24.65 84.3 24.8 106.25 Q25.0 112.7 24.2 125.6 23.35 138.4 23.6 144.85 L21.5 142.6 Q21.2 138.85 21.45 136.5 21.55 134.35 22.8 120.55 23.65 110.85 23.3 104.4 L23.4 72.15 Q22.9 65.6 24.4 55.7 L26.65 39.5" fill="#d99e58" fill-rule="evenodd" stroke="none"/>
      <path d="M32.55 44.7 L32.8 39.55 Q32.4 32.45 30.7 20.25 L32.15 19.05 Q33.15 25.0 34.7 30.0 35.3 32.15 35.3 35.15 L35.1 40.25 34.5 45.3 32.4 57.9 Q31.25 65.35 31.45 70.7 L31.5 75.95 Q32.05 82.05 31.95 90.25 L31.65 104.35 31.6 109.05 31.8 126.65 Q32.0 137.35 30.95 144.2 L30.85 151.75 28.85 149.95 28.75 147.05 28.0 142.1 Q27.65 139.15 28.3 136.95 29.6 130.65 30.0 123.2 30.25 118.1 30.1 109.35 L29.8 105.2 29.8 94.6 Q29.85 88.0 29.45 84.0 L29.2 68.8 29.15 64.35 Q29.2 61.7 29.8 59.9 31.95 52.6 32.55 44.7" fill="#d99e58" fill-rule="evenodd" stroke="none"/>
      <path d="M63.25 7.25 Q62.9 5.9 63.25 3.45 L63.3 3.05 66.75 2.2 Q66.4 4.8 66.5 8.05 L66.8 12.05 Q67.55 15.25 67.55 22.15 L66.75 81.05 Q66.1 117.15 66.85 140.15 L67.05 150.2 Q66.8 154.05 67.1 159.95 L67.6 169.8 64.65 169.1 64.6 136.05 64.15 126.65 Q63.65 120.5 63.65 117.35 63.45 106.05 64.25 75.15 64.95 48.45 64.15 32.95 64.15 32.0 64.7 30.5 L65.6 28.05 Q65.9 23.85 64.95 17.7 L63.25 7.25" fill="#d99e58" fill-rule="evenodd" stroke="none"/>
      <path d="M59.75 8.1 Q59.35 6.45 59.1 4.35 L61.65 3.55 61.7 5.5 62.15 8.85 Q64.15 18.7 64.15 30.5 L63.05 70.85 61.95 47.1 Q61.35 33.0 62.65 23.1 63.3 19.7 62.1 15.35 L59.75 8.1" fill="#d99e58" fill-rule="evenodd" stroke="none"/>
      <path d="M0.05 85.9 Q0.05 83.7 0.35 79.4 L0.15 90.0 0.05 85.9" fill="#af6924" fill-rule="evenodd" stroke="none"/>
      <path d="M5.75 55.15 L6.8 52.5 6.7 59.25 6.65 59.55 6.55 69.85 5.8 101.55 5.75 106.05 5.7 116.4 4.95 114.4 4.8 105.7 4.85 101.5 5.6 71.9 5.75 55.15" fill="#af6924" fill-rule="evenodd" stroke="none"/>
      <path d="M6.8 52.5 L7.6 50.85 Q7.4 58.3 7.6 63.1 L7.5 73.0 6.9 100.1 6.8 103.95 Q6.5 109.35 7.0 119.7 L6.0 117.2 5.9 101.25 6.6 69.55 6.8 52.5" fill="#af6924" fill-rule="evenodd" stroke="none"/>
      <path d="M12.45 53.8 L12.6 41.3 13.8 39.4 Q14.05 51.0 13.55 66.4 L13.2 77.05 Q12.9 91.75 12.95 99.2 L12.95 103.65 Q13.1 115.9 12.25 128.35 L12.15 129.75 11.05 127.9 11.3 125.6 11.4 114.05 Q11.25 106.65 11.7 102.4 L11.7 98.1 Q11.75 89.25 12.2 76.8 L12.45 66.55 12.45 53.8" fill="#af6924" fill-rule="evenodd" stroke="none"/>
      <path d="M17.5 51.55 Q17.7 41.65 17.45 34.15 L19.4 31.7 19.5 32.9 19.6 37.25 Q19.65 42.65 19.05 52.45 18.4 63.0 18.35 67.6 L18.1 77.95 Q17.85 89.8 17.95 97.6 L18.05 103.1 Q17.65 106.8 18.05 117.75 18.4 126.8 17.0 132.05 16.45 134.0 16.35 136.15 L15.0 134.25 15.05 134.05 Q16.5 127.6 16.55 118.05 L16.65 102.05 16.65 97.35 Q16.65 92.15 17.0 73.7 L17.1 69.0 17.5 51.55" fill="#af6924" fill-rule="evenodd" stroke="none"/>
      <path d="M23.85 36.55 L23.6 31.35 23.05 27.5 24.5 26.0 Q25.6 31.1 26.85 34.9 L26.65 39.5 24.4 55.7 Q22.9 65.6 23.4 72.15 L23.3 104.4 Q23.65 110.85 22.8 120.55 21.55 134.35 21.45 136.5 21.2 138.85 21.5 142.6 L21.0 142.0 Q20.35 137.65 20.35 134.6 20.35 130.6 21.45 127.15 23.0 122.9 22.85 115.75 22.35 107.45 22.3 103.45 L22.1 72.65 Q22.05 66.85 23.05 54.65 24.0 42.8 23.85 36.55" fill="#af6924" fill-rule="evenodd" stroke="none"/>
      <path d="M27.45 35.95 L26.95 31.3 25.35 25.1 26.75 23.8 Q27.8 28.55 29.1 32.6 L29.3 37.55 Q29.2 43.05 27.85 49.95 L24.85 62.4 Q24.65 63.6 25.15 66.35 25.65 69.1 25.4 70.45 L25.4 107.05 Q25.05 110.2 25.2 121.05 25.3 129.7 23.9 135.0 23.5 137.35 23.7 140.4 L24.4 145.75 23.6 144.85 Q23.35 138.4 24.2 125.6 25.0 112.7 24.8 106.25 L24.65 84.3 24.5 76.9 24.25 69.05 Q23.7 64.9 24.4 59.65 24.9 56.4 26.35 50.1 28.0 43.6 27.45 35.95" fill="#af6924" fill-rule="evenodd" stroke="none"/>
      <path d="M31.6 40.15 L31.85 35.15 Q31.9 32.2 31.25 30.0 30.3 26.6 29.3 21.45 L30.7 20.25 Q32.4 32.45 32.8 39.55 L32.55 44.7 Q31.95 52.6 29.8 59.9 29.2 61.7 29.15 64.35 L29.2 68.8 29.45 84.0 Q29.85 88.0 29.8 94.6 L29.8 105.2 30.1 109.35 Q30.25 118.1 30.0 123.2 29.6 130.65 28.3 136.95 27.65 139.15 28.0 142.1 L28.75 147.05 28.85 149.95 28.35 149.55 28.15 146.25 Q27.0 142.95 27.8 138.95 28.85 127.65 28.75 106.75 L28.9 103.25 28.7 94.55 Q28.4 88.75 28.45 85.9 L28.25 70.25 Q28.4 65.3 29.45 57.75 L31.2 45.2 31.6 40.15" fill="#af6924" fill-rule="evenodd" stroke="none"/>
      <path d="M34.95 22.9 L36.15 28.05 36.25 37.0 35.95 41.45 34.25 54.95 Q33.2 63.2 33.15 68.4 L33.2 111.55 Q33.2 132.05 32.35 142.55 L32.3 152.9 30.85 151.75 30.95 144.2 Q32.0 137.35 31.8 126.65 L31.6 109.05 31.65 104.35 31.95 90.25 Q32.05 82.05 31.5 75.95 L31.45 70.7 Q31.25 65.35 32.4 57.9 L34.5 45.3 35.1 40.25 35.3 35.15 Q35.3 32.15 34.7 30.0 33.15 25.0 32.15 19.05 L33.45 18.0 34.95 22.9" fill="#af6924" fill-rule="evenodd" stroke="none"/>
      <path d="M36.85 15.5 L38.4 24.45 Q39.25 29.65 39.35 33.5 L39.5 38.7 Q39.7 49.5 38.7 64.7 L38.7 69.8 38.4 119.7 38.25 132.95 38.35 143.6 38.2 157.25 37.0 156.4 37.4 149.45 37.7 120.3 38.05 95.0 Q38.35 79.4 37.95 69.8 L37.95 65.0 Q38.0 60.75 38.4 54.15 L39.05 43.25 39.2 38.9 39.25 33.45 Q39.2 30.15 38.6 28.05 37.35 21.9 36.75 15.55 L36.85 15.5" fill="#af6924" fill-rule="evenodd" stroke="none"/>
      <path d="M36.15 16.0 L38.35 28.4 Q39.25 35.5 38.55 41.1 L38.15 45.7 37.0 57.25 Q36.55 63.75 36.95 68.65 L37.0 73.5 37.2 117.65 36.85 156.3 36.05 155.75 36.6 138.7 36.9 133.6 Q37.3 126.2 36.95 118.5 L36.85 114.0 36.1 73.45 36.05 69.2 Q36.1 64.5 36.6 57.4 L37.5 45.4 37.75 40.6 Q38.15 35.25 37.35 28.45 L35.55 16.45 36.15 16.0" fill="#af6924" fill-rule="evenodd" stroke="none"/>
      <path d="M36.75 15.55 Q37.35 21.9 38.6 28.05 39.2 30.15 39.25 33.45 L39.2 38.9 39.05 43.25 38.4 54.15 Q38.0 60.75 37.95 65.0 L37.95 69.8 Q38.35 79.4 38.05 95.0 L37.7 120.3 37.2 144.7 37.2 117.65 37.0 73.5 36.95 68.65 Q36.55 63.75 37.0 57.25 L38.15 45.7 38.55 41.1 Q39.25 35.5 38.35 28.4 L36.15 16.0 36.75 15.55" fill="#af6924" fill-rule="evenodd" stroke="none"/>
      <path d="M46.45 90.35 Q47.8 84.35 46.95 76.6 46.55 73.1 44.95 64.85 43.5 57.25 43.15 53.05 L44.95 60.4 47.15 73.5 47.45 80.05 Q47.65 87.0 45.55 108.1 43.8 125.8 45.4 136.65 L45.05 161.4 44.5 161.1 44.5 137.65 Q44.05 123.85 44.35 114.1 44.75 101.5 46.45 90.35" fill="#af6924" fill-rule="evenodd" stroke="none"/>
      <path d="M43.7 36.8 Q43.25 42.95 43.4 47.6 42.65 43.7 43.05 40.3 L43.7 36.8" fill="#af6924" fill-rule="evenodd" stroke="none"/>
      <path d="M45.7 129.7 Q44.95 122.35 45.35 113.6 L45.85 106.4 Q44.95 118.9 45.7 129.7" fill="#af6924" fill-rule="evenodd" stroke="none"/>
      <path d="M42.75 41.2 L42.85 26.7 Q42.8 18.25 41.9 12.2 L42.45 11.9 43.3 17.0 44.0 22.15 Q44.35 26.15 43.8 31.75 L42.75 41.2" fill="#af6924" fill-rule="evenodd" stroke="none"/>
      <path d="M43.5 50.6 L43.4 47.6 44.5 52.55 Q47.0 62.6 47.9 70.0 48.95 79.25 47.95 87.4 L47.75 88.9 Q48.25 82.2 47.15 73.5 46.5 67.3 44.95 60.4 43.85 53.9 43.5 50.6" fill="#af6924" fill-rule="evenodd" stroke="none"/>
      <path d="M43.7 36.8 L44.4 24.1 Q44.5 16.95 43.45 11.3 L43.65 11.2 Q45.3 16.9 45.15 23.9 45.05 29.45 43.7 36.8" fill="#af6924" fill-rule="evenodd" stroke="none"/>
      <path d="M42.75 41.2 Q42.7 46.45 43.05 51.6 L43.15 53.05 43.05 52.55 Q42.15 47.9 42.75 41.2" fill="#af6924" fill-rule="evenodd" stroke="none"/>
      <path d="M46.4 140.7 L45.9 131.3 Q46.3 134.75 46.85 137.45 L47.0 141.0 Q47.05 146.65 46.7 155.0 L46.35 162.05 45.85 161.85 45.95 158.85 46.4 140.7" fill="#af6924" fill-rule="evenodd" stroke="none"/>
      <path d="M47.45 80.05 L47.15 73.5 Q48.25 82.2 47.75 88.9 L46.75 97.3 46.75 97.45 Q45.65 106.95 45.35 113.6 44.95 122.35 45.7 129.7 L46.4 140.7 45.95 158.85 45.85 161.85 45.05 161.4 45.4 136.65 Q43.8 125.8 45.55 108.1 47.65 87.0 47.45 80.05" fill="#af6924" fill-rule="evenodd" stroke="none"/>
      <path d="M43.8 31.75 Q44.35 26.15 44.0 22.15 L43.3 17.0 42.45 11.9 43.45 11.3 Q44.5 16.95 44.4 24.1 L43.7 36.8 43.05 40.3 Q42.65 43.7 43.4 47.6 L43.5 50.6 Q43.85 53.9 44.95 60.4 L43.15 53.05 43.05 51.6 Q42.7 46.45 42.75 41.2 L43.8 31.75" fill="#af6924" fill-rule="evenodd" stroke="none"/>
      <path d="M55.3 76.6 L55.25 78.25 54.45 67.6 Q55.3 72.6 55.3 76.6" fill="#af6924" fill-rule="evenodd" stroke="none"/>
      <path d="M52.25 14.9 Q52.9 19.15 51.95 25.45 L50.4 35.4 50.05 36.8 Q48.9 41.0 49.4 44.2 49.95 48.35 51.65 55.2 L52.3 65.55 48.4 45.2 Q47.45 40.15 49.8 26.95 51.9 15.2 49.1 8.35 L50.0 7.9 50.95 10.15 52.25 14.9" fill="#af6924" fill-rule="evenodd" stroke="none"/>
      <path d="M52.35 106.05 L52.9 103.35 52.85 106.1 Q52.35 112.5 52.35 117.65 L52.35 117.85 Q52.15 120.2 52.55 123.15 53.05 129.9 54.45 135.25 L54.4 141.65 Q54.05 149.35 52.75 165.1 L52.0 164.8 Q53.3 148.4 53.45 143.6 L53.55 139.7 Q53.7 135.9 53.15 131.05 L51.85 122.25 Q51.0 113.25 52.35 106.05" fill="#af6924" fill-rule="evenodd" stroke="none"/>
      <path d="M50.4 7.75 L50.7 7.6 Q51.6 10.35 53.9 15.7 55.65 20.45 54.8 24.1 L52.9 29.3 50.8 34.3 52.15 30.25 53.35 26.05 Q53.75 23.3 53.4 20.3 L52.25 14.9 Q51.85 12.25 50.95 10.15 L50.4 7.75" fill="#af6924" fill-rule="evenodd" stroke="none"/>
      <path d="M51.65 55.2 L50.9 45.35 Q53.35 57.1 54.45 67.6 L51.65 55.2" fill="#af6924" fill-rule="evenodd" stroke="none"/>
      <path d="M52.85 106.1 L53.25 101.65 Q54.2 96.1 54.35 90.5 L55.25 78.25 Q55.95 94.1 53.35 110.0 52.5 115.1 53.8 123.2 55.55 133.9 55.65 136.3 L55.6 140.6 Q55.5 145.85 55.0 153.1 L54.05 165.6 53.3 165.35 54.25 153.15 54.7 140.95 54.6 135.9 54.45 135.25 53.55 129.1 52.55 123.15 52.35 117.65 52.85 106.1" fill="#af6924" fill-rule="evenodd" stroke="none"/>
      <path d="M54.35 90.5 L53.25 101.65 52.9 103.35 Q53.35 85.45 52.3 65.55 54.75 79.95 54.35 90.5" fill="#af6924" fill-rule="evenodd" stroke="none"/>
      <path d="M49.9 40.8 Q49.55 39.0 50.05 36.8 L50.4 35.55 Q50.15 37.75 50.4 39.8 L50.9 45.35 49.9 40.8" fill="#af6924" fill-rule="evenodd" stroke="none"/>
      <path d="M53.25 101.65 L52.85 106.1 52.9 103.35 53.25 101.65" fill="#af6924" fill-rule="evenodd" stroke="none"/>
      <path d="M54.35 90.5 Q54.75 79.95 52.3 65.55 L51.65 55.2 54.45 67.6 55.25 78.25 54.35 90.5" fill="#af6924" fill-rule="evenodd" stroke="none"/>
      <path d="M50.0 7.9 L50.4 7.75 50.95 10.15 50.0 7.9" fill="#af6924" fill-rule="evenodd" stroke="none"/>
      <path d="M53.35 26.05 L52.15 30.25 50.8 34.3 50.4 35.4 51.95 25.45 Q52.9 19.15 52.25 14.9 L53.4 20.3 Q53.75 23.3 53.35 26.05" fill="#af6924" fill-rule="evenodd" stroke="none"/>
      <path d="M54.4 141.65 L54.45 135.25 54.6 135.9 54.7 140.95 54.25 153.15 53.3 165.35 52.75 165.1 Q54.05 149.35 54.4 141.65" fill="#af6924" fill-rule="evenodd" stroke="none"/>
      <path d="M58.05 5.45 L58.0 4.7 59.1 4.35 Q59.35 6.45 59.75 8.1 L62.1 15.35 Q63.3 19.7 62.65 23.1 61.35 33.0 61.95 47.1 L63.05 70.85 62.8 83.2 62.15 89.85 Q60.6 100.6 61.05 114.85 L62.15 139.55 62.1 144.8 61.35 168.2 60.85 168.05 61.05 155.1 61.55 142.15 61.6 137.1 Q61.65 133.3 60.65 125.95 59.7 118.5 59.7 114.9 60.8 90.5 61.1 78.25 61.65 56.85 59.2 41.3 58.6 38.5 59.45 34.65 L61.2 28.05 Q62.0 23.8 60.05 16.75 57.9 8.9 58.05 5.45" fill="#af6924" fill-rule="evenodd" stroke="none"/>
      <path d="M61.7 5.5 L61.65 3.55 63.3 3.05 63.25 3.45 Q62.9 5.9 63.25 7.25 L64.95 17.7 Q65.9 23.85 65.6 28.05 L64.7 30.5 Q64.15 32.0 64.15 32.95 64.95 48.45 64.25 75.15 63.45 106.05 63.65 117.35 63.65 120.5 64.15 126.65 L64.6 136.05 64.65 169.1 63.55 168.8 63.55 143.5 63.5 139.65 Q62.3 115.55 62.8 83.2 63.15 77.65 63.05 70.85 L64.15 30.5 Q64.15 18.7 62.15 8.85 L61.7 5.5" fill="#af6924" fill-rule="evenodd" stroke="none"/>
      <path d="M66.5 8.05 Q66.4 4.8 66.75 2.2 L67.9 1.95 67.6 4.2 67.6 8.5 67.95 12.9 Q68.7 32.9 67.6 75.2 66.55 116.0 67.55 137.7 L68.25 152.95 68.7 161.6 68.8 170.05 67.6 169.8 67.1 159.95 Q66.8 154.05 67.05 150.2 L66.85 140.15 Q66.1 117.15 66.75 81.05 L67.55 22.15 Q67.55 15.25 66.8 12.05 L66.5 8.05" fill="#af6924" fill-rule="evenodd" stroke="none"/>
      <path d="M71.2 149.5 L71.05 142.1 71.2 145.8 71.45 150.2 72.65 170.75 72.45 170.7 72.45 170.4 Q71.45 160.4 71.2 149.5 M70.75 100.25 Q70.75 78.55 71.75 63.1 71.0 110.15 71.0 138.4 L71.0 139.8 70.95 137.3 70.75 100.25" fill="#af6924" fill-rule="evenodd" stroke="none"/>
      <path d="M71.05 8.1 L71.05 1.35 71.2 1.3 71.25 6.05 71.05 8.1" fill="#af6924" fill-rule="evenodd" stroke="none"/>
      <path d="M70.95 46.2 Q70.8 23.3 71.05 14.5 71.6 37.05 70.95 71.7 L70.3 100.2 Q70.25 87.45 70.5 78.1 71.05 66.5 70.95 46.2" fill="#af6924" fill-rule="evenodd" stroke="none"/>
      <path d="M72.0 1.15 L72.2 1.15 72.25 10.85 72.4 16.5 72.2 33.1 Q71.8 20.8 72.0 14.55 L72.0 1.15" fill="#af6924" fill-rule="evenodd" stroke="none"/>
      <path d="M72.2 33.1 L72.55 46.5 Q72.55 53.95 72.0 59.9 L71.75 63.1 72.2 33.1" fill="#af6924" fill-rule="evenodd" stroke="none"/>
      <path d="M71.25 6.05 L71.2 1.3 72.0 1.15 72.0 14.55 Q71.8 20.8 72.2 33.1 L71.75 63.1 Q70.75 78.55 70.75 100.25 L70.95 137.3 71.2 149.5 Q71.45 160.4 72.45 170.4 L72.45 170.7 71.75 170.6 71.5 167.95 70.35 150.5 70.3 149.0 70.15 144.7 70.0 140.3 70.0 129.05 70.95 71.7 Q71.6 37.05 71.05 14.5 L71.25 6.05" fill="#af6924" fill-rule="evenodd" stroke="none"/>
      <path d="M76.8 0.5 L77.85 0.4 77.9 18.25 Q78.5 43.4 77.9 77.85 L76.6 137.45 76.65 152.1 76.95 158.25 77.15 161.35 77.95 170.6 77.95 171.4 76.8 171.3 76.8 171.05 75.75 152.6 75.5 148.0 75.35 141.95 75.35 135.85 76.7 76.6 Q77.2 43.9 76.85 17.35 L76.8 0.5" fill="#af6924" fill-rule="evenodd" stroke="none"/>
      <path d="M80.75 0.2 L81.65 0.15 81.65 21.75 Q82.3 43.8 81.65 80.0 80.85 125.2 80.9 138.2 L81.4 152.2 81.45 171.65 80.35 171.6 80.45 166.25 Q80.65 161.3 80.0 152.4 L79.7 147.7 Q79.35 145.2 79.3 143.2 L79.2 138.65 Q80.25 112.35 80.6 79.8 L80.8 20.9 80.75 0.2" fill="#af6924" fill-rule="evenodd" stroke="none"/>
      <path d="M83.25 0.1 L84.15 0.05 84.15 24.05 Q84.65 41.55 83.85 81.25 83.1 118.0 84.05 138.25 L84.0 153.3 83.6 171.7 82.75 171.7 82.75 150.6 82.9 140.65 82.9 135.65 Q81.95 125.3 82.75 109.25 83.75 87.55 83.75 83.0 83.5 73.2 83.5 54.55 L83.3 26.25 83.25 0.1" fill="#af6924" fill-rule="evenodd" stroke="none"/>
      <path d="M91.5 0.2 L92.75 0.3 92.75 45.95 92.5 70.2 92.0 87.15 Q92.1 95.7 92.45 104.1 L92.65 109.7 92.45 126.7 Q92.4 136.85 92.95 144.05 L93.15 149.0 93.65 158.85 94.0 162.2 Q94.65 167.0 95.55 171.25 L93.6 171.4 92.1 162.05 91.75 158.8 91.8 149.45 91.75 144.75 91.2 128.15 Q90.8 118.0 91.0 111.45 L90.9 101.3 Q90.8 95.1 91.0 90.65 L91.45 62.7 Q91.65 58.05 91.5 52.8 L91.5 0.2" fill="#af6924" fill-rule="evenodd" stroke="none"/>
      <path d="M94.95 0.5 L95.35 0.55 95.55 5.95 96.7 36.9 96.8 41.3 Q97.15 60.85 96.3 73.95 L95.55 87.75 Q95.0 92.8 95.8 98.3 L96.35 101.7 97.6 106.85 Q99.85 116.2 99.85 127.9 99.9 135.8 98.65 149.25 L97.95 158.7 98.05 162.1 Q98.2 166.65 98.85 170.8 L97.2 171.05 Q96.5 167.1 96.35 162.65 L96.3 159.45 97.55 147.95 Q98.75 136.4 98.65 127.7 98.45 116.8 96.25 107.95 L95.15 102.85 94.7 99.15 Q94.05 93.3 94.7 87.8 L95.6 74.95 Q96.5 68.2 96.25 59.2 L95.55 43.25 95.4 38.6 Q95.05 23.3 94.95 0.5" fill="#af6924" fill-rule="evenodd" stroke="none"/>
      <path d="M98.1 0.9 L98.7 0.95 Q98.75 7.05 99.1 14.8 L99.5 36.85 Q100.25 59.3 99.25 78.45 L98.9 83.25 Q97.1 89.85 97.75 96.9 L98.35 101.2 100.15 106.5 Q104.25 115.9 103.8 129.15 103.55 136.55 101.0 152.05 L99.8 159.2 99.95 163.65 Q100.25 167.05 100.85 170.45 L99.6 170.7 Q98.75 167.15 98.5 164.15 L98.3 160.3 98.35 156.1 Q98.35 153.65 98.95 151.7 102.35 141.55 101.85 129.15 101.5 119.45 98.6 106.7 L96.95 97.6 Q96.2 90.9 97.05 84.45 L97.5 80.1 97.9 75.75 Q98.6 59.85 98.35 36.15 L98.1 0.9" fill="#af6924" fill-rule="evenodd" stroke="none"/>
      <path d="M100.2 1.2 L101.85 1.5 101.85 21.2 101.9 32.4 Q101.8 35.55 102.35 56.65 102.75 71.25 101.1 80.4 L100.8 85.0 100.4 88.4 100.3 91.75 100.55 97.2 Q100.8 100.4 101.4 102.6 L103.25 107.65 104.55 112.2 Q106.6 122.05 105.75 135.55 105.25 143.35 103.4 159.05 L103.25 163.45 Q103.2 166.05 103.7 167.85 L103.9 169.9 101.8 170.3 101.35 167.95 Q100.15 163.9 100.95 159.05 103.4 143.85 104.0 136.3 105.05 123.65 103.45 113.65 L102.25 108.85 100.6 104.1 99.1 100.05 99.05 95.65 99.85 82.5 100.1 77.35 Q100.95 68.7 101.0 57.5 L100.9 37.7 100.7 21.15 Q100.2 11.65 100.2 1.2" fill="#af6924" fill-rule="evenodd" stroke="none"/>
      <path d="M104.85 35.25 L105.45 57.2 Q105.9 70.35 105.3 78.8 L105.0 83.65 Q105.15 85.9 103.6 92.0 102.3 97.15 103.4 100.15 L104.9 104.9 106.2 109.55 Q108.85 121.75 108.3 137.75 108.0 145.15 105.9 166.15 L105.85 169.45 104.0 169.85 103.95 168.15 Q105.85 149.2 106.45 139.65 107.45 123.05 105.1 110.95 L103.95 106.25 103.0 100.9 Q102.0 95.1 101.6 90.3 101.7 87.55 102.1 85.0 L102.55 79.9 Q104.35 70.0 104.25 56.15 L103.55 31.95 103.45 26.05 Q102.85 16.1 103.1 1.75 L105.2 2.2 104.85 35.25" fill="#af6924" fill-rule="evenodd" stroke="none"/>
      <path d="M109.8 3.4 L110.95 3.75 110.65 24.65 110.55 30.2 Q111.25 50.2 109.55 76.95 L109.2 82.25 Q108.75 89.2 109.35 98.5 L109.55 101.75 Q111.3 116.05 111.0 134.3 110.8 144.75 109.4 167.05 L109.35 168.5 108.7 168.7 108.7 167.5 Q108.6 162.95 109.7 135.55 110.45 116.05 108.55 103.7 L108.25 100.15 Q107.8 94.75 107.8 89.35 107.5 87.35 107.9 84.2 L108.45 79.0 108.75 74.1 Q109.3 64.95 109.35 52.1 L109.4 30.2 109.8 3.4" fill="#af6924" fill-rule="evenodd" stroke="none"/>
      <path d="M114.2 7.05 L114.25 4.85 115.2 5.15 114.85 44.45 114.8 47.85 Q114.65 53.65 114.75 65.15 L114.45 75.55 Q114.05 83.65 113.8 93.95 L113.75 97.6 Q113.05 108.5 113.5 125.1 113.4 154.7 112.9 167.45 L111.9 167.75 111.95 167.4 112.15 164.0 Q113.4 150.95 112.95 131.6 112.2 110.1 112.15 99.4 L112.1 96.1 Q111.95 87.95 112.55 79.75 L112.85 75.25 113.4 61.65 113.55 56.2 113.7 45.35 113.8 39.9 Q113.75 35.55 114.15 23.4 114.45 12.95 114.2 7.05" fill="#af6924" fill-rule="evenodd" stroke="none"/>
      <path d="M116.55 5.7 L117.6 6.1 117.15 27.65 Q116.9 40.6 117.25 49.3 L117.25 54.0 Q117.35 65.35 116.9 73.55 L116.4 81.45 Q115.95 96.9 115.7 122.0 L115.15 162.5 114.8 166.8 113.05 167.4 113.35 164.8 Q114.05 156.15 113.95 144.95 L113.5 125.1 Q113.6 96.05 114.55 80.15 L115.2 70.95 Q115.85 63.3 116.15 50.45 L116.2 46.4 Q115.9 38.3 116.15 26.0 L116.55 5.7" fill="#af6924" fill-rule="evenodd" stroke="none"/>
      <path d="M113.5 125.1 L113.95 144.95 Q114.05 156.15 113.35 164.8 L113.05 167.4 112.9 167.45 Q113.4 154.7 113.5 125.1" fill="#af6924" fill-rule="evenodd" stroke="none"/>
      <path d="M122.05 50.9 Q121.8 42.35 122.1 29.55 L122.55 8.2 124.1 9.0 123.8 31.25 Q123.5 45.5 123.55 53.45 L123.35 76.3 123.45 82.4 Q122.75 95.0 120.75 119.8 119.35 141.65 120.55 157.1 L121.3 164.15 119.25 165.05 Q119.8 162.1 119.6 159.55 117.4 142.95 118.55 121.35 L121.5 83.4 122.05 50.9" fill="#af6924" fill-rule="evenodd" stroke="none"/>
      <path d="M124.55 51.55 Q124.5 43.9 124.75 30.5 L125.05 9.5 125.7 9.8 125.5 32.85 Q125.5 45.85 125.95 55.85 L126.0 60.65 126.1 72.55 126.0 76.55 125.95 82.5 125.4 88.4 Q118.35 126.55 123.0 160.05 L123.35 163.2 121.55 164.0 121.55 162.0 Q120.9 130.9 121.0 125.2 121.25 104.0 124.35 88.4 L124.65 82.45 124.4 76.45 124.55 51.55" fill="#af6924" fill-rule="evenodd" stroke="none"/>
      <path d="M127.2 56.6 L126.75 33.4 126.35 10.15 127.35 10.7 127.7 35.05 128.0 59.45 127.7 72.35 Q127.9 77.75 127.5 84.1 L127.2 88.0 124.45 111.4 Q122.85 125.35 122.85 135.15 121.75 107.9 126.85 88.25 L127.0 84.65 127.05 73.6 127.2 56.6" fill="#af6924" fill-rule="evenodd" stroke="none"/>
      <path d="M123.9 150.7 Q122.95 143.45 122.85 135.15 123.2 142.85 123.9 150.7" fill="#af6924" fill-rule="evenodd" stroke="none"/>
      <path d="M125.0 157.1 L125.8 161.95 124.95 162.35 123.9 150.7 Q124.4 154.3 125.0 157.1" fill="#af6924" fill-rule="evenodd" stroke="none"/>
      <path d="M134.15 21.45 Q134.4 25.4 134.8 28.5 L136.45 40.95 Q134.65 32.7 134.15 21.45" fill="#af6924" fill-rule="evenodd" stroke="none"/>
      <path d="M135.15 92.7 L135.85 82.85 135.9 85.7 135.75 89.95 135.3 94.3 134.15 100.65 Q134.5 97.1 135.15 92.7" fill="#af6924" fill-rule="evenodd" stroke="none"/>
      <path d="M136.05 57.55 L136.85 54.3 136.55 57.65 134.5 74.45 Q134.95 79.55 134.6 86.1 L134.3 89.9 134.15 90.75 134.1 87.6 133.8 80.9 Q133.65 76.9 133.85 73.95 L135.35 60.75 136.05 57.55" fill="#af6924" fill-rule="evenodd" stroke="none"/>
      <path d="M134.1 92.1 L132.45 101.8 Q127.8 129.95 132.45 154.45 126.65 127.7 132.45 100.0 L134.15 90.75 134.1 92.1" fill="#af6924" fill-rule="evenodd" stroke="none"/>
      <path d="M137.75 55.3 L138.25 51.6 Q138.05 44.4 137.1 33.65 L135.5 15.85 135.75 16.0 137.75 36.65 Q138.75 48.65 138.15 57.4 L135.85 82.85 136.0 73.95 136.75 64.0 137.2 59.0 Q137.25 57.8 137.75 55.3" fill="#af6924" fill-rule="evenodd" stroke="none"/>
      <path d="M134.1 19.8 L133.85 14.65 134.0 14.75 134.1 19.8" fill="#af6924" fill-rule="evenodd" stroke="none"/>
      <path d="M133.55 109.1 Q133.2 119.65 133.85 132.65 134.3 140.9 135.5 156.0 L134.9 156.4 Q133.9 147.25 132.35 139.4 131.05 132.35 131.5 123.55 131.7 119.45 133.05 108.05 L134.15 100.65 133.55 109.1" fill="#af6924" fill-rule="evenodd" stroke="none"/>
      <path d="M137.25 44.2 Q138.25 48.3 136.85 54.3 137.25 48.55 136.45 40.95 L137.25 44.2" fill="#af6924" fill-rule="evenodd" stroke="none"/>
      <path d="M134.0 14.75 L135.5 15.85 137.1 33.65 Q138.05 44.4 138.25 51.6 L137.75 55.3 Q137.25 57.8 137.2 59.0 L136.75 64.0 136.0 73.95 135.15 92.7 Q134.5 97.1 134.15 100.65 L133.05 108.05 Q131.7 119.45 131.5 123.55 131.05 132.35 132.35 139.4 133.9 147.25 134.9 156.4 L133.2 157.55 132.45 154.45 Q127.8 129.95 132.45 101.8 L134.1 92.1 134.15 90.75 134.3 89.9 134.6 86.1 Q134.95 79.55 134.5 74.45 L136.55 57.65 136.85 54.3 Q138.25 48.3 137.25 44.2 L136.45 40.95 134.8 28.5 Q134.4 25.4 134.15 21.45 L134.0 14.75" fill="#af6924" fill-rule="evenodd" stroke="none"/>
      <path d="M141.15 56.0 L141.8 47.9 Q142.0 43.4 141.65 39.8 140.35 30.6 140.0 19.25 L140.85 19.9 141.15 24.6 Q141.4 30.0 142.4 40.8 143.1 50.5 142.35 57.1 L140.8 78.9 140.9 90.05 140.6 103.55 139.2 120.3 Q138.35 130.25 139.2 136.95 L140.45 152.25 139.15 153.25 Q138.4 138.5 138.25 129.9 138.0 117.0 138.65 106.45 L139.5 77.1 Q139.8 71.6 140.8 60.6 L141.15 56.0" fill="#af6924" fill-rule="evenodd" stroke="none"/>
      <path d="M146.55 56.1 L146.15 24.7 147.55 26.15 147.75 106.2 Q147.3 115.4 147.2 126.9 146.95 138.5 147.05 146.2 L145.75 147.45 Q145.25 123.7 146.5 106.5 L146.55 98.4 146.2 86.6 146.55 56.1" fill="#af6924" fill-rule="evenodd" stroke="none"/>
      <path d="M147.55 26.15 L148.9 27.55 148.5 55.5 148.65 60.7 149.15 84.1 149.25 93.0 149.6 97.65 149.6 102.4 149.45 106.9 Q148.4 115.4 148.3 125.65 148.25 133.1 148.75 144.4 L147.4 145.8 147.2 126.9 Q147.5 116.25 148.15 106.9 L148.05 102.2 147.75 97.5 147.55 26.15" fill="#af6924" fill-rule="evenodd" stroke="none"/>
      <path d="M147.6 92.35 L147.75 97.5 148.05 102.2 148.15 106.9 Q147.5 116.25 147.2 126.9 147.3 115.4 147.75 106.2 L147.6 92.35" fill="#af6924" fill-rule="evenodd" stroke="none"/>
      <path d="M150.7 56.1 L150.5 51.05 Q150.5 44.05 151.2 30.15 L151.85 30.9 Q150.8 46.6 151.05 55.05 L151.5 59.9 152.3 71.65 152.9 83.5 153.0 106.7 152.85 111.1 Q152.2 117.5 152.3 125.4 L152.8 139.75 151.4 141.45 Q151.2 134.4 151.4 124.3 L151.7 107.25 151.85 82.5 151.35 69.3 150.7 56.1" fill="#af6924" fill-rule="evenodd" stroke="none"/>
      <path d="M153.75 50.7 Q153.25 49.15 153.3 47.2 L153.45 43.75 154.75 34.55 155.4 35.5 Q154.55 44.05 154.6 50.55 L154.9 55.25 Q155.35 60.7 157.35 74.15 157.65 76.5 157.55 79.85 L157.4 85.65 157.9 96.05 157.65 114.05 157.25 133.75 155.8 135.8 Q155.2 122.1 156.2 112.0 L156.25 87.3 Q156.65 80.8 155.8 71.55 154.6 61.15 154.15 55.9 L153.75 50.7" fill="#af6924" fill-rule="evenodd" stroke="none"/>
      <path d="M159.2 48.65 Q159.1 45.9 159.25 43.6 L159.35 41.35 160.85 43.95 Q160.3 53.9 162.7 65.65 L163.35 72.85 163.1 75.65 163.55 106.1 Q163.4 114.35 163.55 122.45 L163.55 122.7 162.75 124.25 162.05 79.25 160.5 63.8 Q159.3 54.1 159.2 48.65" fill="#af6924" fill-rule="evenodd" stroke="none"/>
      <path d="M161.2 55.1 Q160.55 49.0 161.1 44.4 L162.45 46.9 162.4 48.9 Q162.4 51.3 162.55 53.6 L162.85 58.25 Q163.05 61.1 163.55 63.1 L164.4 67.9 164.4 73.4 165.1 96.1 165.2 118.95 163.95 121.8 Q163.7 113.25 164.05 107.25 L163.35 72.85 Q163.6 70.15 163.25 68.25 L162.7 65.65 161.2 55.1" fill="#af6924" fill-rule="evenodd" stroke="none"/>
      <path d="M163.25 68.25 Q163.6 70.15 163.35 72.85 L162.7 65.65 163.25 68.25" fill="#af6924" fill-rule="evenodd" stroke="none"/>
      <path d="M168.0 60.55 L168.2 69.8 168.8 94.45 169.05 107.7 167.6 112.55 167.55 93.0 166.95 69.15 166.9 63.45 166.05 55.05 168.0 60.55" fill="#af6924" fill-rule="evenodd" stroke="none"/>
      <path d="M6.75 53.1 Q13.3 37.7 25.2 25.8 37.1 13.9 52.5 7.35 68.45 0.6 85.9 0.6 103.35 0.6 119.3 7.35 134.7 13.9 146.6 25.8 158.45 37.7 165.0 53.1 171.75 69.05 171.75 86.5 171.75 103.95 165.0 119.9 158.45 135.3 146.6 147.2 134.7 159.1 119.3 165.65 103.35 172.4 85.9 172.4 68.45 172.4 52.5 165.65 37.05 159.1 25.2 147.2 13.3 135.3 6.75 119.9 0.0 103.95 0.0 86.5 0.0 69.05 6.75 53.1" fill="url(#gradient0)" fill-rule="evenodd" stroke="none"/>
      <path d="M57.75 19.1 Q71.2 13.4 85.95 13.4 100.7 13.4 114.15 19.1 127.2 24.6 137.2 34.65 147.25 44.65 152.75 57.7 158.45 71.15 158.45 85.9 158.45 100.65 152.75 114.1 147.25 127.15 137.2 137.15 127.2 147.2 114.15 152.7 100.7 158.4 85.95 158.4 71.2 158.4 57.75 152.7 44.7 147.2 34.7 137.15 24.65 127.15 19.15 114.1 13.45 100.65 13.45 85.9 13.45 71.15 19.15 57.7 24.65 44.65 34.7 34.65 44.7 24.6 57.75 19.1" fill="url(#gradient1)" fill-rule="evenodd" stroke="none"/>
      <path d="M20.15 85.9 Q20.15 58.7 39.45 39.35 58.8 20.05 86.0 20.05 113.25 20.05 132.6 39.35 151.9 58.65 151.9 85.9 151.9 113.15 132.6 132.5 113.25 151.8 86.0 151.8 58.75 151.8 39.45 132.5 20.15 113.15 20.15 85.9" fill="url(#gradient2)" fill-rule="evenodd" stroke="none"/>
      <path d="M20.95 85.9 Q20.95 112.85 40.0 131.9 59.05 150.95 86.0 150.95 112.95 150.95 132.0 131.9 151.05 112.85 151.05 85.9 151.05 58.95 132.0 39.9 112.95 20.85 86.0 20.85 59.05 20.85 40.0 39.9 20.95 58.95 20.95 85.9 M38.85 38.75 Q48.3 29.3 60.5 24.25 72.65 19.2 86.0 19.2 99.4 19.2 111.55 24.25 123.75 29.3 133.2 38.75 142.65 48.2 147.7 60.4 152.7 72.55 152.7 85.9 152.7 99.25 147.7 111.45 142.65 123.6 133.2 133.05 123.75 142.5 111.55 147.55 99.4 152.6 86.0 152.6 72.65 152.6 60.5 147.55 48.3 142.5 38.85 133.05 29.4 123.6 24.35 111.45 19.3 99.25 19.3 85.9 19.3 72.55 24.35 60.4 29.4 48.2 38.85 38.75" fill="#4f1972" fill-rule="evenodd" stroke="none"/>
      <path d="M26.85 83.75 Q26.85 59.3 44.2 42.0 61.5 24.7 86.0 24.7 110.5 24.7 127.85 42.0 145.2 59.3 145.2 83.75 145.2 108.25 127.85 125.55 110.55 142.85 86.0 142.85 61.5 142.85 44.2 125.55 26.85 108.25 26.85 83.75" fill="url(#gradient3)" fill-rule="evenodd" stroke="none"/>
      <path d="M78.1 39.6 Q78.1 42.5 75.2 46.35 L70.2 52.3 76.25 52.3 Q78.8 52.3 78.8 54.45 78.8 55.5 78.1 56.1 77.45 56.65 76.45 56.65 L65.4 56.65 Q64.25 56.65 63.6 56.1 62.85 55.55 62.85 54.45 62.85 53.6 63.6 52.75 L67.8 48.0 Q70.3 45.15 71.8 42.9 72.95 41.25 72.95 39.85 72.95 38.8 72.3 38.05 71.6 37.3 70.6 37.3 68.6 37.3 67.8 40.0 66.95 42.65 65.45 42.65 64.3 42.65 63.65 41.9 63.05 41.25 63.05 40.25 63.05 37.15 65.4 34.95 67.7 32.75 70.8 32.75 73.9 32.75 75.95 34.6 78.1 36.5 78.1 39.6" fill="#c3b0ec" fill-rule="evenodd" stroke="none"/>
      <path d="M82.2 44.35 L83.1 36.25 Q83.4 34.4 83.95 33.75 84.45 33.15 85.7 33.15 L93.65 33.15 Q94.75 33.15 95.4 33.75 96.05 34.3 96.05 35.2 96.05 37.7 93.75 37.7 L87.55 37.7 87.05 41.2 89.5 40.85 Q92.45 40.85 94.45 42.9 96.35 44.95 96.35 47.9 96.35 52.1 94.1 54.55 91.8 57.05 87.6 57.05 85.4 57.05 83.1 55.9 80.35 54.55 80.35 52.6 80.35 51.7 81.0 51.05 81.65 50.35 82.6 50.35 83.15 50.35 84.8 51.4 86.5 52.45 87.7 52.45 89.35 52.45 90.3 51.1 91.2 49.85 91.2 48.15 91.2 46.6 90.4 45.75 89.55 44.8 88.05 44.8 87.05 44.8 86.0 45.35 84.95 45.9 84.15 45.9 83.25 45.9 82.7 45.35 82.2 44.85 82.2 44.35" fill="#c3b0ec" fill-rule="evenodd" stroke="none"/>
      <path d="M102.25 37.7 L100.3 37.7 Q99.2 37.7 98.6 37.0 98.05 36.35 98.05 35.4 98.05 34.5 98.65 33.85 99.3 33.15 100.3 33.15 L105.0 33.15 Q106.05 33.15 106.65 33.8 107.2 34.45 107.2 35.5 L107.2 54.25 Q107.2 55.45 106.5 56.15 105.8 56.85 104.7 56.85 103.6 56.85 102.95 56.15 102.25 55.45 102.25 54.25 L102.25 37.7" fill="#c3b0ec" fill-rule="evenodd" stroke="none"/>
      <path d="M78.1 38.6 Q78.1 41.5 75.2 45.35 L70.2 51.3 76.25 51.3 Q78.8 51.3 78.8 53.45 78.8 54.5 78.1 55.1 77.45 55.65 76.45 55.65 L65.4 55.65 Q64.25 55.65 63.6 55.1 62.85 54.55 62.85 53.45 62.85 52.6 63.6 51.75 L67.8 47.0 Q70.3 44.15 71.8 41.9 72.95 40.25 72.95 38.85 72.95 37.8 72.3 37.05 71.6 36.3 70.6 36.3 68.6 36.3 67.8 39.0 66.95 41.65 65.45 41.65 64.3 41.65 63.65 40.9 63.05 40.25 63.05 39.25 63.05 36.15 65.4 33.95 67.7 31.75 70.8 31.75 73.9 31.75 75.95 33.6 78.1 35.5 78.1 38.6" fill="url(#gradient4)" fill-rule="evenodd" stroke="none"/>
      <path d="M95.4 32.75 Q96.05 33.3 96.05 34.2 96.05 36.7 93.75 36.7 L87.55 36.7 87.05 40.2 89.5 39.85 Q92.45 39.85 94.45 41.9 96.35 43.95 96.35 46.9 96.35 51.1 94.1 53.55 91.8 56.05 87.6 56.05 85.4 56.05 83.1 54.9 80.35 53.55 80.35 51.6 80.35 50.7 81.0 50.05 81.65 49.35 82.6 49.35 83.15 49.35 84.8 50.4 86.5 51.45 87.7 51.45 89.35 51.45 90.3 50.1 91.2 48.85 91.2 47.15 91.2 45.6 90.4 44.75 89.55 43.8 88.05 43.8 87.05 43.8 86.0 44.35 84.95 44.9 84.15 44.9 83.25 44.9 82.7 44.35 82.2 43.85 82.2 43.35 L83.1 35.25 Q83.4 33.4 83.95 32.75 84.45 32.15 85.7 32.15 L93.65 32.15 Q94.75 32.15 95.4 32.75" fill="url(#gradient5)" fill-rule="evenodd" stroke="none"/>
      <path d="M102.25 36.7 L100.3 36.7 Q99.2 36.7 98.6 36.0 98.05 35.35 98.05 34.4 98.05 33.5 98.65 32.85 99.3 32.15 100.3 32.15 L105.0 32.15 Q106.05 32.15 106.65 32.8 107.2 33.45 107.2 34.5 L107.2 53.25 Q107.2 54.45 106.5 55.15 105.8 55.85 104.7 55.85 103.6 55.85 102.95 55.15 102.25 54.45 102.25 53.25 L102.25 36.7" fill="url(#gradient6)" fill-rule="evenodd" stroke="none"/>
      <path d="M39.2 91.5 L39.2 91.15 Q39.5 88.35 41.05 86.35 43.3 83.45 47.8 82.8 54.05 81.1 59.35 77.7 62.7 75.4 70.15 74.35 74.95 73.7 75.95 72.95 L76.2 72.75 Q78.65 70.6 82.65 68.5 86.25 66.45 95.1 65.05 L98.0 64.85 Q104.75 64.85 110.35 69.25 114.85 72.3 119.05 76.05 L122.15 78.75 125.1 81.3 Q132.8 88.15 133.4 97.7 134.3 105.15 132.2 112.9 129.75 121.5 121.25 123.65 115.05 125.15 108.5 125.15 L106.65 125.1 Q101.6 124.95 91.65 124.95 83.85 125.4 76.25 124.0 68.2 122.55 60.25 119.7 L60.15 119.7 52.75 116.75 52.6 116.65 45.2 113.75 45.1 113.65 Q41.9 112.25 40.4 108.85 L40.4 108.75 Q37.0 100.45 39.2 91.5" fill="#c3b0ec" fill-rule="evenodd" stroke="none"/>
      <path d="M39.2 90.65 L39.2 90.35 Q39.5 87.5 41.05 85.5 43.3 82.6 47.8 81.95 54.05 80.25 59.35 76.85 62.85 74.5 70.15 73.55 75.0 72.85 75.95 72.15 L76.2 71.9 Q78.5 69.9 82.65 67.7 86.25 65.6 95.1 64.25 L98.0 64.05 Q104.8 64.05 110.35 68.4 114.45 71.2 119.05 75.2 L125.1 80.5 Q132.8 87.4 133.4 96.85 134.3 104.35 132.2 112.05 129.75 120.65 121.25 122.8 115.05 124.3 108.5 124.3 L106.65 124.3 Q101.6 124.15 91.65 124.15 84.05 124.6 76.25 123.15 68.2 121.8 60.25 118.85 L60.15 118.85 45.2 112.9 45.1 112.85 Q41.95 111.45 40.4 108.0 L40.4 107.95 Q37.0 99.6 39.2 90.65" fill="url(#gradient7)" fill-rule="evenodd" stroke="none"/>
      <path d="M59.25 76.75 Q62.75 74.45 70.15 73.4 74.8 72.8 75.9 72.05 L76.15 71.8 Q78.3 69.85 82.6 67.55 86.3 65.5 95.1 64.1 L98.0 63.9 Q104.75 63.9 110.45 68.3 114.95 71.4 119.1 75.1 L125.15 80.4 Q133.0 87.4 133.5 96.85 134.45 104.1 132.35 112.05 129.85 120.75 121.3 122.9 114.85 124.45 108.5 124.45 L106.65 124.4 Q101.55 124.25 91.65 124.25 83.75 124.7 76.2 123.25 68.3 121.9 60.2 119.0 L45.2 113.0 45.1 112.95 Q41.85 111.5 40.3 108.05 L40.25 108.0 Q36.85 99.5 39.05 90.65 L39.1 90.3 Q39.35 87.5 40.95 85.45 43.25 82.5 47.8 81.85 54.05 80.15 59.25 76.75" fill="url(#gradient8)" fill-rule="evenodd" stroke="none"/>
      <path d="M59.25 76.75 Q62.75 74.45 70.15 73.4 74.8 72.8 75.9 72.05 L76.15 71.8 Q78.3 69.85 82.6 67.55 86.3 65.5 95.1 64.1 L98.0 63.9 Q104.75 63.9 110.45 68.3 114.95 71.4 119.1 75.1 L125.15 80.4 Q133.0 87.4 133.5 96.85 134.45 104.1 132.35 112.05 129.85 120.75 121.3 122.9 114.85 124.45 108.5 124.45 L106.65 124.4 Q101.55 124.25 91.65 124.25 83.75 124.7 76.2 123.25 68.3 121.9 60.2 119.0 L45.2 113.0 45.1 112.95 Q41.85 111.5 40.3 108.05 L40.25 108.0 Q36.85 99.5 39.05 90.65 L39.1 90.3 Q39.35 87.5 40.95 85.45 43.25 82.5 47.8 81.85 54.05 80.15 59.25 76.75 Z" fill="none" stroke="#c3b0ec" stroke-linecap="butt" stroke-linejoin="miter" stroke-width="0.25"/>
      <path d="M42.95 106.9 Q39.8 99.2 41.95 90.95 L41.95 90.65 Q42.5 85.5 48.4 84.65 55.25 82.8 60.85 79.15 63.75 77.2 70.55 76.25 76.75 75.35 78.0 74.0 80.15 72.1 83.95 70.1 87.35 68.2 95.5 66.95 102.8 66.0 108.7 70.6 L108.8 70.65 Q113.25 73.75 117.2 77.25 L120.25 79.9 123.3 82.6 Q130.2 88.75 130.65 97.1 131.55 103.95 129.55 111.35 127.5 118.45 120.6 120.15 114.8 121.55 108.5 121.55 L106.75 121.55 Q101.6 121.4 91.55 121.4 84.05 121.85 76.75 120.45 68.85 119.1 61.2 116.3 L46.25 110.35 Q44.05 109.35 42.95 106.9" fill="#31074f" fill-rule="evenodd" stroke="none"/>
      <path d="M116.55 78.0 L122.65 83.35 Q129.2 89.2 129.65 97.2 L128.75 99.35 Q124.45 106.75 115.8 108.2 120.8 104.95 123.4 102.55 130.8 96.35 124.0 89.15 118.35 82.95 111.65 79.55 110.65 78.85 110.45 78.15 109.0 74.75 108.15 71.45 112.8 74.65 116.55 78.0" fill="#e6aa93" fill-rule="evenodd" stroke="none"/>
      <path d="M115.0 98.3 Q120.95 99.85 122.05 99.65 123.15 99.65 123.55 98.6 124.4 97.7 118.55 96.3 114.2 95.15 102.85 90.5 92.4 85.95 87.45 79.55 89.1 79.85 90.8 78.75 L92.15 77.7 92.95 77.25 94.3 75.85 95.2 75.1 Q97.3 72.3 100.1 70.85 100.1 70.15 99.35 69.95 94.95 69.7 90.35 71.75 L86.05 73.6 84.85 74.5 Q84.85 74.65 84.55 74.65 L84.55 74.95 84.4 75.7 Q83.55 77.9 81.05 78.15 L77.55 78.75 75.4 78.45 74.8 78.15 56.95 85.3 Q59.35 86.85 68.1 84.7 76.35 82.8 78.0 81.95 L79.95 81.05 Q92.8 88.35 102.7 93.25 107.45 95.9 115.0 98.3 M50.1 93.7 Q45.25 90.35 48.6 85.65 55.7 83.7 61.4 80.0 64.05 78.15 70.7 77.25 77.25 76.35 78.75 74.65 80.75 72.9 84.4 71.0 87.65 69.15 95.65 67.95 102.6 67.05 108.15 71.45 109.1 74.95 110.45 78.15 110.65 78.85 111.65 79.55 118.35 82.95 124.0 89.15 130.8 96.35 123.4 102.55 120.8 104.95 115.8 108.2 L112.0 108.5 105.25 108.2 Q90.25 106.55 77.85 98.45 71.25 100.0 64.6 99.35 56.05 98.4 50.1 93.7" fill="#c65953" fill-rule="evenodd" stroke="none"/>
      <path d="M118.55 96.3 Q124.4 97.7 123.55 98.6 123.15 99.65 122.05 99.65 120.95 99.85 115.0 98.3 107.45 95.9 102.7 93.25 92.8 88.35 79.95 81.05 L78.0 81.95 Q76.35 82.8 68.1 84.7 59.35 86.85 56.95 85.3 L74.8 78.15 75.4 78.45 77.55 78.75 81.05 78.15 Q83.55 77.9 84.4 75.7 L84.55 74.95 84.55 74.65 Q84.85 74.65 84.85 74.5 L86.05 73.6 90.35 71.75 Q94.95 69.7 99.35 69.95 100.1 70.15 100.1 70.85 97.3 72.3 95.2 75.1 L94.3 75.85 92.95 77.25 92.15 77.7 90.8 78.75 Q89.15 79.85 87.45 79.55 92.4 85.95 102.85 90.5 114.2 95.15 118.55 96.3" fill="#e4cfbe" fill-rule="evenodd" stroke="none"/>
      <path d="M48.6 85.65 Q45.25 90.35 50.1 93.7 56.05 98.4 64.6 99.35 71.25 100.0 77.85 98.45 90.25 106.55 105.25 108.2 L96.3 107.4 81.35 105.6 67.45 103.15 Q61.35 101.9 54.35 99.95 46.35 97.85 42.95 91.1 L42.95 90.65 Q43.4 86.3 48.6 85.65" fill="#e6aa93" fill-rule="evenodd" stroke="none"/>
      <path d="M43.85 106.5 Q40.8 99.1 42.95 91.1 46.35 97.85 54.35 99.95 61.4 101.9 67.5 103.15 L81.35 105.6 96.3 107.4 105.25 108.2 112.0 108.5 115.8 108.2 Q124.45 106.75 128.75 99.35 L129.65 97.2 Q130.5 103.85 128.6 111.1 126.7 117.6 120.35 119.15 113.55 120.75 106.8 120.55 L91.55 120.35 Q84.45 120.85 76.95 119.45 69.4 118.2 61.55 115.35 L46.6 109.4 Q44.75 108.6 43.85 106.5" fill="#aa7c6b" fill-rule="evenodd" stroke="none"/>
      <path d="M115.35 53.75 Q116.05 52.65 117.2 52.05 118.15 51.55 119.3 51.55 120.9 51.55 122.1 52.45 L123.35 53.4 124.9 52.9 126.35 52.65 Q128.2 52.65 129.65 54.0 130.55 54.95 130.85 56.25 131.15 57.5 130.75 58.75 L130.25 60.25 131.2 61.55 Q132.0 62.6 132.1 63.9 132.2 65.25 131.6 66.4 131.0 67.6 129.9 68.25 128.8 68.95 127.45 68.95 L125.8 68.9 124.9 70.2 Q123.6 72.15 121.1 72.15 L120.4 72.1 Q118.95 71.9 117.85 70.8 117.1 70.05 116.7 68.9 L116.25 67.4 114.7 66.9 Q113.65 66.6 112.85 65.8 111.8 64.75 111.55 63.25 111.35 61.95 111.85 60.7 112.35 59.5 113.45 58.75 L114.75 57.8 114.7 56.2 Q114.7 54.9 115.35 53.75" fill="url(#gradient9)" fill-rule="evenodd" stroke="none"/>
      <path d="M115.3 53.7 Q116.0 52.6 117.2 51.95 118.35 51.4 119.7 51.5 121.1 51.6 122.15 52.4 L123.4 53.3 124.85 52.8 127.45 52.7 Q128.75 53.0 129.7 53.95 130.65 54.9 130.95 56.2 131.25 57.55 130.85 58.8 L130.3 60.25 131.25 61.5 Q132.1 62.6 132.2 63.9 132.3 65.25 131.65 66.45 131.05 67.65 129.95 68.35 128.8 69.0 127.45 69.0 L125.85 69.0 124.95 70.25 Q123.6 72.25 121.1 72.25 L120.4 72.2 Q118.95 72.0 117.8 70.9 116.95 70.05 116.65 68.9 L116.2 67.45 114.7 67.0 Q113.75 66.75 112.75 65.85 111.7 64.8 111.45 63.25 111.25 61.9 111.75 60.65 112.25 59.45 113.4 58.65 L114.65 57.75 114.6 56.2 Q114.6 54.85 115.3 53.7" fill="url(#gradient10)" fill-rule="evenodd" stroke="none"/>
      <path d="M115.3 53.7 Q116.0 52.6 117.2 51.95 118.35 51.4 119.7 51.5 121.1 51.6 122.15 52.4 L123.4 53.3 124.85 52.8 127.45 52.7 Q128.75 53.0 129.7 53.95 130.65 54.9 130.95 56.2 131.25 57.55 130.85 58.8 L130.3 60.25 131.25 61.5 Q132.1 62.6 132.2 63.9 132.3 65.25 131.65 66.45 131.05 67.65 129.95 68.35 128.8 69.0 127.45 69.0 L125.85 69.0 124.95 70.25 Q123.6 72.25 121.1 72.25 L120.4 72.2 Q118.95 72.0 117.8 70.9 116.95 70.05 116.65 68.9 L116.2 67.45 114.7 67.0 Q113.75 66.75 112.75 65.85 111.7 64.8 111.45 63.25 111.25 61.9 111.75 60.65 112.25 59.45 113.4 58.65 L114.65 57.75 114.6 56.2 Q114.6 54.85 115.3 53.7 Z" fill="none" stroke="#c3b0ec" stroke-linecap="butt" stroke-linejoin="miter" stroke-width="0.25"/>
      <path d="M117.15 51.9 Q118.3 51.3 119.75 51.4 121.2 51.5 122.2 52.3 L123.4 53.2 124.8 52.7 127.45 52.6 Q128.85 52.95 129.75 53.85 130.7 54.8 131.05 56.2 131.35 57.5 130.95 58.8 L130.45 60.25 131.35 61.45 Q132.2 62.55 132.3 63.9 132.4 65.25 131.75 66.5 131.15 67.7 130.0 68.4 128.85 69.1 127.45 69.1 L125.9 69.1 125.05 70.3 Q123.65 72.35 121.1 72.35 L120.35 72.3 Q118.9 72.1 117.75 70.95 116.85 70.15 116.55 68.95 L116.1 67.55 114.65 67.1 Q113.5 66.7 112.7 65.9 111.6 64.85 111.35 63.25 111.15 61.9 111.65 60.65 112.2 59.4 113.3 58.6 L114.55 57.7 114.5 56.2 Q114.5 54.85 115.2 53.7 115.95 52.5 117.15 51.9 M115.4 53.75 Q114.7 54.9 114.75 56.2 L114.75 57.8 113.45 58.75 Q112.35 59.5 111.85 60.7 111.35 61.95 111.55 63.25 111.8 64.7 112.85 65.75 113.6 66.6 114.7 66.9 L116.25 67.4 116.75 68.9 Q117.05 69.95 117.9 70.8 118.9 71.85 120.4 72.1 L122.9 71.75 Q124.15 71.25 124.9 70.2 L125.8 68.9 127.45 68.9 Q128.75 68.9 129.9 68.25 131.0 67.55 131.6 66.4 132.2 65.25 132.1 63.95 131.95 62.65 131.15 61.55 L130.2 60.25 130.75 58.75 Q131.15 57.5 130.85 56.25 130.55 54.95 129.6 54.0 128.75 53.15 127.4 52.8 L124.9 52.9 123.35 53.45 122.1 52.5 Q120.9 51.6 119.3 51.6 118.15 51.6 117.25 52.05 116.05 52.65 115.4 53.75" fill="#c3b0ec" fill-rule="evenodd" stroke="none"/>
      <path d="M127.8 55.85 Q128.75 56.7 128.3 57.9 L127.35 60.75 129.1 63.1 Q129.9 64.05 129.3 65.25 128.75 66.35 127.45 66.35 L124.5 66.3 122.8 68.7 Q122.05 69.8 120.8 69.55 120.15 69.45 119.7 69.0 L119.2 68.15 118.3 65.35 115.5 64.45 Q115.0 64.3 114.65 63.95 114.2 63.5 114.05 62.85 113.9 61.55 114.9 60.85 L117.3 59.15 117.3 56.2 Q117.2 54.95 118.4 54.35 L120.55 54.5 122.9 56.3 125.7 55.35 Q126.95 54.95 127.8 55.85" fill="#31074f" fill-rule="evenodd" stroke="none"/>
      <path d="M118.85 55.2 L120.0 55.3 122.75 57.35 126.0 56.25 Q126.65 56.0 127.15 56.5 127.65 57.0 127.4 57.6 L126.3 60.9 128.35 63.65 Q128.75 64.25 128.45 64.8 128.1 65.4 127.45 65.4 L124.0 65.35 122.0 68.2 Q121.6 68.75 120.95 68.6 120.65 68.6 120.35 68.3 L120.1 67.85 119.05 64.55 115.75 63.55 115.3 63.3 115.0 62.7 Q114.9 62.0 115.45 61.6 L118.3 59.65 118.25 56.15 Q118.25 55.5 118.85 55.2" fill="url(#gradient11)" fill-rule="evenodd" stroke="none"/>
      <path d="M118.85 55.2 L120.0 55.3 122.75 57.35 126.0 56.25 Q126.65 56.0 127.15 56.5 L127.25 56.75 126.65 56.75 123.4 57.85 120.6 55.8 119.45 55.7 Q118.85 56.05 118.85 56.7 L118.9 60.15 116.1 62.15 Q115.55 62.45 115.65 63.2 L115.8 63.55 115.75 63.55 115.3 63.3 115.0 62.7 Q114.9 62.0 115.45 61.6 L118.3 59.65 118.25 56.15 Q118.25 55.5 118.85 55.2" fill="#e0dbf7" fill-rule="evenodd" stroke="none"/>
      <path d="M41.15 56.25 Q41.45 54.95 42.4 54.0 43.75 52.65 45.65 52.65 L47.15 52.9 48.65 53.4 49.95 52.45 Q51.1 51.55 52.7 51.55 53.85 51.55 54.8 52.05 56.0 52.65 56.65 53.75 57.35 54.9 57.3 56.2 L57.3 57.8 58.6 58.75 Q59.7 59.5 60.2 60.7 60.75 61.95 60.5 63.25 60.25 64.75 59.2 65.8 L57.3 66.9 55.8 67.4 55.3 68.9 Q54.95 70.05 54.15 70.8 53.15 71.85 51.6 72.1 L50.9 72.15 Q48.5 72.15 47.1 70.2 L46.2 68.9 44.55 68.95 Q43.25 68.95 42.15 68.25 41.0 67.55 40.45 66.4 39.8 65.25 39.9 63.9 40.05 62.6 40.85 61.55 L41.8 60.25 41.3 58.75 Q40.85 57.5 41.15 56.25" fill="url(#gradient12)" fill-rule="evenodd" stroke="none"/>
      <path d="M42.35 53.95 Q43.25 53.0 44.6 52.7 L47.15 52.8 48.65 53.3 49.9 52.4 Q50.9 51.6 52.3 51.5 L54.85 51.95 Q56.05 52.6 56.75 53.7 57.45 54.85 57.4 56.2 L57.4 57.75 58.65 58.65 Q59.75 59.45 60.25 60.65 60.8 61.9 60.6 63.25 60.4 64.7 59.25 65.85 L57.35 67.0 55.85 67.45 55.4 68.9 Q55.1 70.0 54.2 70.9 53.1 72.0 51.65 72.2 L50.9 72.25 Q48.5 72.25 47.05 70.25 L46.15 69.0 44.55 69.0 Q43.2 69.0 42.1 68.35 40.95 67.65 40.35 66.45 39.7 65.25 39.85 63.9 39.95 62.6 40.75 61.5 L41.7 60.25 41.2 58.8 Q40.8 57.5 41.1 56.2 41.4 54.9 42.35 53.95" fill="url(#gradient13)" fill-rule="evenodd" stroke="none"/>
      <path d="M42.35 53.95 Q43.25 53.0 44.6 52.7 L47.15 52.8 48.65 53.3 49.9 52.4 Q50.9 51.6 52.3 51.5 L54.85 51.95 Q56.05 52.6 56.75 53.7 57.45 54.85 57.4 56.2 L57.4 57.75 58.65 58.65 Q59.75 59.45 60.25 60.65 60.8 61.9 60.6 63.25 60.4 64.7 59.25 65.85 L57.35 67.0 55.85 67.45 55.4 68.9 Q55.1 70.0 54.2 70.9 53.1 72.0 51.65 72.2 L50.9 72.25 Q48.5 72.25 47.05 70.25 L46.15 69.0 44.55 69.0 Q43.2 69.0 42.1 68.35 40.95 67.65 40.35 66.45 39.7 65.25 39.85 63.9 39.95 62.6 40.75 61.5 L41.7 60.25 41.2 58.8 Q40.8 57.5 41.1 56.2 41.4 54.9 42.35 53.95 Z" fill="none" stroke="#c3b0ec" stroke-linecap="butt" stroke-linejoin="miter" stroke-width="0.25"/>
      <path d="M42.25 53.85 Q43.2 52.95 44.6 52.6 L47.2 52.7 48.6 53.2 49.8 52.3 Q50.85 51.5 52.3 51.4 53.75 51.3 54.9 51.9 56.15 52.5 56.85 53.7 57.55 54.85 57.5 56.2 L57.5 57.7 58.7 58.6 Q59.8 59.4 60.35 60.65 60.9 61.9 60.7 63.25 60.45 64.8 59.3 65.9 58.5 66.75 57.35 67.1 L55.95 67.55 55.5 68.95 Q55.1 70.15 54.3 70.95 53.2 72.05 51.65 72.3 L50.9 72.35 Q48.35 72.35 46.95 70.3 L46.1 69.1 44.55 69.1 Q43.2 69.1 42.05 68.4 40.9 67.7 40.25 66.5 39.6 65.25 39.75 63.9 39.85 62.55 40.7 61.45 L41.6 60.25 41.1 58.8 Q40.65 57.55 40.95 56.2 41.3 54.85 42.25 53.85 M41.2 56.25 Q40.9 57.5 41.3 58.75 L41.8 60.25 40.85 61.55 Q40.05 62.65 39.95 63.95 39.85 65.25 40.45 66.4 41.05 67.55 42.15 68.25 43.25 68.9 44.55 68.9 L46.2 68.9 47.15 70.2 Q47.9 71.25 49.15 71.75 L51.6 72.1 Q53.05 71.9 54.15 70.8 55.0 69.95 55.3 68.9 L55.75 67.4 57.3 66.9 59.2 65.75 Q60.3 64.7 60.5 63.25 60.7 61.95 60.2 60.7 59.7 59.5 58.6 58.75 L57.3 57.8 57.3 56.2 Q57.3 54.9 56.65 53.75 55.95 52.65 54.8 52.05 L52.75 51.6 Q51.1 51.6 49.95 52.5 L48.65 53.45 47.15 52.9 44.65 52.8 Q43.3 53.15 42.4 54.0 41.5 54.95 41.2 56.25" fill="#c3b0ec" fill-rule="evenodd" stroke="none"/>
      <path d="M44.2 55.85 Q45.1 54.95 46.3 55.35 L49.1 56.3 51.5 54.5 53.65 54.35 Q54.75 54.9 54.75 56.2 L54.7 59.15 57.1 60.85 Q58.1 61.55 57.95 62.85 57.85 63.5 57.4 63.95 57.1 64.3 56.55 64.45 L53.7 65.35 52.85 68.15 52.35 69.0 Q51.9 69.5 51.2 69.55 49.9 69.8 49.25 68.7 L47.5 66.3 44.55 66.35 Q43.3 66.35 42.75 65.25 42.1 64.15 42.9 63.1 L44.65 60.75 43.7 57.9 Q43.35 56.65 44.2 55.85" fill="#31074f" fill-rule="evenodd" stroke="none"/>
      <path d="M53.2 55.2 Q53.8 55.55 53.8 56.15 L53.75 59.65 56.55 61.6 Q57.1 62.0 57.0 62.7 L56.7 63.3 56.25 63.55 52.95 64.55 51.95 67.85 51.65 68.3 Q51.35 68.6 51.05 68.6 50.45 68.75 50.0 68.2 L48.0 65.35 44.55 65.4 Q43.9 65.4 43.55 64.8 43.3 64.15 43.65 63.65 L45.75 60.9 44.65 57.6 Q44.4 57.0 44.9 56.5 45.4 56.0 46.0 56.25 L49.3 57.35 52.05 55.3 53.2 55.2" fill="url(#gradient14)" fill-rule="evenodd" stroke="none"/>
      <path d="M52.55 55.7 L51.4 55.8 48.65 57.85 45.35 56.75 44.75 56.75 44.9 56.5 Q45.4 56.0 46.0 56.25 L49.3 57.35 52.05 55.3 53.2 55.2 Q53.8 55.55 53.8 56.15 L53.75 59.65 56.55 61.6 Q57.1 62.0 57.0 62.7 L56.7 63.3 56.25 63.55 56.35 63.2 Q56.5 62.55 55.95 62.15 L53.1 60.15 53.15 56.7 Q53.15 56.0 52.55 55.7" fill="#e0dbf7" fill-rule="evenodd" stroke="none"/>
      <path d="M39.2 91.5 L39.2 91.15 Q39.5 88.35 41.05 86.35 43.3 83.45 47.8 82.8 54.05 81.1 59.35 77.7 62.7 75.4 70.15 74.35 74.95 73.7 75.95 72.95 L76.2 72.75 Q78.65 70.6 82.65 68.5 86.25 66.45 95.1 65.05 L98.0 64.85 Q104.75 64.85 110.35 69.25 114.85 72.3 119.05 76.05 L122.15 78.75 125.1 81.3 Q132.8 88.15 133.4 97.7 134.3 105.15 132.2 112.9 129.75 121.5 121.25 123.65 115.05 125.15 108.5 125.15 L106.65 125.1 Q101.6 124.95 91.65 124.95 83.85 125.4 76.25 124.0 68.2 122.55 60.25 119.7 L60.15 119.7 52.75 116.75 52.6 116.65 45.2 113.75 45.1 113.65 Q41.9 112.25 40.4 108.85 L40.4 108.75 Q37.0 100.45 39.2 91.5" fill="#c3b0ec" fill-rule="evenodd" stroke="none"/>
      <path d="M39.2 90.65 L39.2 90.35 Q39.5 87.5 41.05 85.5 43.3 82.6 47.8 81.95 54.05 80.25 59.35 76.85 62.85 74.5 70.15 73.55 75.0 72.85 75.95 72.15 L76.2 71.9 Q78.5 69.9 82.65 67.7 86.25 65.6 95.1 64.25 L98.0 64.05 Q104.8 64.05 110.35 68.4 114.45 71.2 119.05 75.2 L125.1 80.5 Q132.8 87.4 133.4 96.85 134.3 104.35 132.2 112.05 129.75 120.65 121.25 122.8 115.05 124.3 108.5 124.3 L106.65 124.3 Q101.6 124.15 91.65 124.15 84.05 124.6 76.25 123.15 68.2 121.8 60.25 118.85 L60.15 118.85 45.2 112.9 45.1 112.85 Q41.95 111.45 40.4 108.0 L40.4 107.95 Q37.0 99.6 39.2 90.65" fill="url(#gradient15)" fill-rule="evenodd" stroke="none"/>
      <path d="M59.25 76.75 Q62.75 74.45 70.15 73.4 74.8 72.8 75.9 72.05 L76.15 71.8 Q78.3 69.85 82.6 67.55 86.3 65.5 95.1 64.1 L98.0 63.9 Q104.75 63.9 110.45 68.3 114.95 71.4 119.1 75.1 L125.15 80.4 Q133.0 87.4 133.5 96.85 134.45 104.1 132.35 112.05 129.85 120.75 121.3 122.9 114.85 124.45 108.5 124.45 L106.65 124.4 Q101.55 124.25 91.65 124.25 83.75 124.7 76.2 123.25 68.3 121.9 60.2 119.0 L45.2 113.0 45.1 112.95 Q41.85 111.5 40.3 108.05 L40.25 108.0 Q36.85 99.5 39.05 90.65 L39.1 90.3 Q39.35 87.5 40.95 85.45 43.25 82.5 47.8 81.85 54.05 80.15 59.25 76.75" fill="url(#gradient16)" fill-rule="evenodd" stroke="none"/>
      <path d="M59.25 76.75 Q62.75 74.45 70.15 73.4 74.8 72.8 75.9 72.05 L76.15 71.8 Q78.3 69.85 82.6 67.55 86.3 65.5 95.1 64.1 L98.0 63.9 Q104.75 63.9 110.45 68.3 114.95 71.4 119.1 75.1 L125.15 80.4 Q133.0 87.4 133.5 96.85 134.45 104.1 132.35 112.05 129.85 120.75 121.3 122.9 114.85 124.45 108.5 124.45 L106.65 124.4 Q101.55 124.25 91.65 124.25 83.75 124.7 76.2 123.25 68.3 121.9 60.2 119.0 L45.2 113.0 45.1 112.95 Q41.85 111.5 40.3 108.05 L40.25 108.0 Q36.85 99.5 39.05 90.65 L39.1 90.3 Q39.35 87.5 40.95 85.45 43.25 82.5 47.8 81.85 54.05 80.15 59.25 76.75 Z" fill="none" stroke="#c3b0ec" stroke-linecap="butt" stroke-linejoin="miter" stroke-width="0.25"/>
      <path d="M42.95 106.9 Q39.8 99.2 41.95 90.95 L41.95 90.65 Q42.5 85.5 48.4 84.65 55.25 82.8 60.85 79.15 63.75 77.2 70.55 76.25 76.75 75.35 78.0 74.0 80.15 72.1 83.95 70.1 87.35 68.2 95.5 66.95 102.8 66.0 108.7 70.6 L108.8 70.65 Q113.25 73.75 117.2 77.25 L120.25 79.9 123.3 82.6 Q130.2 88.75 130.65 97.1 131.55 103.95 129.55 111.35 127.5 118.45 120.6 120.15 114.8 121.55 108.5 121.55 L106.75 121.55 Q101.6 121.4 91.55 121.4 84.05 121.85 76.75 120.45 68.85 119.1 61.2 116.3 L46.25 110.35 Q44.05 109.35 42.95 106.9" fill="#31074f" fill-rule="evenodd" stroke="none"/>
      <path d="M116.55 78.0 L122.65 83.35 Q129.2 89.2 129.65 97.2 L128.75 99.35 Q124.45 106.75 115.8 108.2 120.8 104.95 123.4 102.55 130.8 96.35 124.0 89.15 118.35 82.95 111.65 79.55 110.65 78.85 110.45 78.15 109.0 74.75 108.15 71.45 112.8 74.65 116.55 78.0" fill="#e6aa93" fill-rule="evenodd" stroke="none"/>
      <path d="M115.0 98.3 Q120.95 99.85 122.05 99.65 123.15 99.65 123.55 98.6 124.4 97.7 118.55 96.3 114.2 95.15 102.85 90.5 92.4 85.95 87.45 79.55 89.1 79.85 90.8 78.75 L92.15 77.7 92.95 77.25 94.3 75.85 95.2 75.1 Q97.3 72.3 100.1 70.85 100.1 70.15 99.35 69.95 94.95 69.7 90.35 71.75 L86.05 73.6 84.85 74.5 Q84.85 74.65 84.55 74.65 L84.55 74.95 84.4 75.7 Q83.55 77.9 81.05 78.15 L77.55 78.75 75.4 78.45 74.8 78.15 56.95 85.3 Q59.35 86.85 68.1 84.7 76.35 82.8 78.0 81.95 L79.95 81.05 Q92.8 88.35 102.7 93.25 107.45 95.9 115.0 98.3 M50.1 93.7 Q45.25 90.35 48.6 85.65 55.7 83.7 61.4 80.0 64.05 78.15 70.7 77.25 77.25 76.35 78.75 74.65 80.75 72.9 84.4 71.0 87.65 69.15 95.65 67.95 102.6 67.05 108.15 71.45 109.1 74.95 110.45 78.15 110.65 78.85 111.65 79.55 118.35 82.95 124.0 89.15 130.8 96.35 123.4 102.55 120.8 104.95 115.8 108.2 L112.0 108.5 105.25 108.2 Q90.25 106.55 77.85 98.45 71.25 100.0 64.6 99.35 56.05 98.4 50.1 93.7" fill="#c65953" fill-rule="evenodd" stroke="none"/>
      <path d="M118.55 96.3 Q124.4 97.7 123.55 98.6 123.15 99.65 122.05 99.65 120.95 99.85 115.0 98.3 107.45 95.9 102.7 93.25 92.8 88.35 79.95 81.05 L78.0 81.95 Q76.35 82.8 68.1 84.7 59.35 86.85 56.95 85.3 L74.8 78.15 75.4 78.45 77.55 78.75 81.05 78.15 Q83.55 77.9 84.4 75.7 L84.55 74.95 84.55 74.65 Q84.85 74.65 84.85 74.5 L86.05 73.6 90.35 71.75 Q94.95 69.7 99.35 69.95 100.1 70.15 100.1 70.85 97.3 72.3 95.2 75.1 L94.3 75.85 92.95 77.25 92.15 77.7 90.8 78.75 Q89.15 79.85 87.45 79.55 92.4 85.95 102.85 90.5 114.2 95.15 118.55 96.3" fill="#e4cfbe" fill-rule="evenodd" stroke="none"/>
      <path d="M48.6 85.65 Q45.25 90.35 50.1 93.7 56.05 98.4 64.6 99.35 71.25 100.0 77.85 98.45 90.25 106.55 105.25 108.2 L96.3 107.4 81.35 105.6 67.45 103.15 Q61.35 101.9 54.35 99.95 46.35 97.85 42.95 91.1 L42.95 90.65 Q43.4 86.3 48.6 85.65" fill="#e6aa93" fill-rule="evenodd" stroke="none"/>
      <path d="M43.85 106.5 Q40.8 99.1 42.95 91.1 46.35 97.85 54.35 99.95 61.4 101.9 67.5 103.15 L81.35 105.6 96.3 107.4 105.25 108.2 112.0 108.5 115.8 108.2 Q124.45 106.75 128.75 99.35 L129.65 97.2 Q130.5 103.85 128.6 111.1 126.7 117.6 120.35 119.15 113.55 120.75 106.8 120.55 L91.55 120.35 Q84.45 120.85 76.95 119.45 69.4 118.2 61.55 115.35 L46.6 109.4 Q44.75 108.6 43.85 106.5" fill="#aa7c6b" fill-rule="evenodd" stroke="none"/>
    </g>
    <linearGradient gradientTransform="matrix(0.0, -0.1048, -0.1048, 0.0, 85.9, 86.5)" gradientUnits="userSpaceOnUse" id="gradient0" spreadMethod="pad" x1="-819.2" x2="819.2">
      <stop offset="0.0196078431372549" stop-color="#7f3a06"/>
      <stop offset="0.12549019607843137" stop-color="#8e5524" stop-opacity="0.8509804"/>
      <stop offset="0.3568627450980392" stop-color="#ad8965" stop-opacity="0.54901963"/>
      <stop offset="0.5686274509803921" stop-color="#c6b39a" stop-opacity="0.3137255"/>
      <stop offset="0.7529411764705882" stop-color="#d8d0c0" stop-opacity="0.14117648"/>
      <stop offset="0.8980392156862745" stop-color="#e3e3d8" stop-opacity="0.03529412"/>
      <stop offset="0.9882352941176471" stop-color="#e7e9e0" stop-opacity="0.0"/>
    </linearGradient>
    <linearGradient gradientTransform="matrix(0.0, -0.0885, -0.0885, 0.0, 85.95, 85.9)" gradientUnits="userSpaceOnUse" id="gradient1" spreadMethod="pad" x1="-819.2" x2="819.2">
      <stop offset="0.0" stop-color="#eed9c2"/>
      <stop offset="0.08627450980392157" stop-color="#e5ccb5" stop-opacity="0.8745098"/>
      <stop offset="0.3176470588235294" stop-color="#d0ae97" stop-opacity="0.5921569"/>
      <stop offset="0.5176470588235295" stop-color="#c39c84" stop-opacity="0.41960785"/>
      <stop offset="0.6549019607843137" stop-color="#bf967e" stop-opacity="0.35686275"/>
      <stop offset="1.0" stop-color="#582d22"/>
    </linearGradient>
    <linearGradient gradientTransform="matrix(0.0, -0.0804, -0.0804, 0.0, 86.0, 85.9)" gradientUnits="userSpaceOnUse" id="gradient2" spreadMethod="pad" x1="-819.2" x2="819.2">
      <stop offset="0.054901960784313725" stop-color="#391d4c"/>
      <stop offset="0.34509803921568627" stop-color="#5b457e"/>
      <stop offset="0.5686274509803921" stop-color="#7966a8"/>
      <stop offset="0.6392156862745098" stop-color="#7d6ba8"/>
      <stop offset="0.7254901960784313" stop-color="#887aa7"/>
      <stop offset="0.8117647058823529" stop-color="#9b93a5"/>
      <stop offset="0.9058823529411765" stop-color="#b5b5a3"/>
      <stop offset="1.0" stop-color="#d6e0a0"/>
    </linearGradient>
    <radialGradient cx="0" cy="0" gradientTransform="matrix(0.0722, 0.0, 0.0, -0.0722, 86.0, 83.75)" gradientUnits="userSpaceOnUse" id="gradient3" r="819.2" spreadMethod="pad">
      <stop offset="0.5019607843137255" stop-color="#8f81e0"/>
      <stop offset="0.6392156862745098" stop-color="#8678ce" stop-opacity="0.90588236"/>
      <stop offset="0.9058823529411765" stop-color="#6f60a1" stop-opacity="0.65882355"/>
      <stop offset="1.0" stop-color="#67578f" stop-opacity="0.5686275"/>
    </radialGradient>
    <linearGradient gradientTransform="matrix(0.0, -0.0146, -0.0146, 0.0, 70.8, 43.7)" gradientUnits="userSpaceOnUse" id="gradient4" spreadMethod="pad" x1="-819.2" x2="819.2">
      <stop offset="0.2196078431372549" stop-color="#2f104e"/>
      <stop offset="0.5098039215686274" stop-color="#472480"/>
      <stop offset="0.9372549019607843" stop-color="#6e43d1"/>
    </linearGradient>
    <linearGradient gradientTransform="matrix(0.0, -0.0146, -0.0146, 0.0, 88.35, 44.1)" gradientUnits="userSpaceOnUse" id="gradient5" spreadMethod="pad" x1="-819.2" x2="819.2">
      <stop offset="0.2196078431372549" stop-color="#2f104e"/>
      <stop offset="0.5098039215686274" stop-color="#472480"/>
      <stop offset="0.9372549019607843" stop-color="#6e43d1"/>
    </linearGradient>
    <linearGradient gradientTransform="matrix(0.0, -0.0145, -0.0145, 0.0, 102.65, 44.0)" gradientUnits="userSpaceOnUse" id="gradient6" spreadMethod="pad" x1="-819.2" x2="819.2">
      <stop offset="0.2196078431372549" stop-color="#2f104e"/>
      <stop offset="0.5098039215686274" stop-color="#472480"/>
      <stop offset="0.9372549019607843" stop-color="#6e43d1"/>
    </linearGradient>
    <linearGradient gradientTransform="matrix(0.0, -0.0368, -0.0368, 0.0, 86.0, 94.15)" gradientUnits="userSpaceOnUse" id="gradient7" spreadMethod="pad" x1="-819.2" x2="819.2">
      <stop offset="0.054901960784313725" stop-color="#4a3462"/>
      <stop offset="0.5058823529411764" stop-color="#736194"/>
      <stop offset="0.9372549019607843" stop-color="#9e8fc7"/>
    </linearGradient>
    <linearGradient gradientTransform="matrix(0.0, -0.0369, -0.0369, 0.0, 86.0, 94.15)" gradientUnits="userSpaceOnUse" id="gradient8" spreadMethod="pad" x1="-819.2" x2="819.2">
      <stop offset="0.14901960784313725" stop-color="#6b49a5"/>
      <stop offset="0.9372549019607843" stop-color="#a897d3"/>
    </linearGradient>
    <linearGradient gradientTransform="matrix(0.0, 0.0126, -0.0126, 0.0, 121.8, 61.85)" gradientUnits="userSpaceOnUse" id="gradient9" spreadMethod="pad" x1="-819.2" x2="819.2">
      <stop offset="0.054901960784313725" stop-color="#8e5b86"/>
      <stop offset="0.9882352941176471" stop-color="#cfacca"/>
    </linearGradient>
    <linearGradient gradientTransform="matrix(0.0, -0.0127, -0.0127, 0.0, 121.8, 61.85)" gradientUnits="userSpaceOnUse" id="gradient10" spreadMethod="pad" x1="-819.2" x2="819.2">
      <stop offset="0.14901960784313725" stop-color="#6b49a5"/>
      <stop offset="0.9372549019607843" stop-color="#a897d3"/>
    </linearGradient>
    <linearGradient gradientTransform="matrix(-0.0059, -0.0059, 0.0059, -0.0059, 122.5, 61.15)" gradientUnits="userSpaceOnUse" id="gradient11" spreadMethod="pad" x1="-819.2" x2="819.2">
      <stop offset="0.0" stop-color="#7c46f4"/>
      <stop offset="0.27058823529411763" stop-color="#7e4af4"/>
      <stop offset="0.4470588235294118" stop-color="#8354f3"/>
      <stop offset="0.596078431372549" stop-color="#8c66f2"/>
      <stop offset="0.7333333333333333" stop-color="#997df1"/>
      <stop offset="0.8588235294117647" stop-color="#aa9bef"/>
      <stop offset="0.9764705882352941" stop-color="#bebeed"/>
      <stop offset="1.0" stop-color="#c3c6ed"/>
    </linearGradient>
    <linearGradient gradientTransform="matrix(0.0, -0.0126, -0.0126, 0.0, 50.25, 61.85)" gradientUnits="userSpaceOnUse" id="gradient12" spreadMethod="pad" x1="-819.2" x2="819.2">
      <stop offset="0.054901960784313725" stop-color="#8e5b86"/>
      <stop offset="0.9882352941176471" stop-color="#cfacca"/>
    </linearGradient>
    <linearGradient gradientTransform="matrix(0.0, 0.0127, -0.0127, 0.0, 50.25, 61.85)" gradientUnits="userSpaceOnUse" id="gradient13" spreadMethod="pad" x1="-819.2" x2="819.2">
      <stop offset="0.14901960784313725" stop-color="#6b49a5"/>
      <stop offset="0.9372549019607843" stop-color="#a897d3"/>
    </linearGradient>
    <linearGradient gradientTransform="matrix(0.0059, -0.0059, -0.0059, -0.0059, 49.55, 61.15)" gradientUnits="userSpaceOnUse" id="gradient14" spreadMethod="pad" x1="-819.2" x2="819.2">
      <stop offset="0.0" stop-color="#7c46f4"/>
      <stop offset="0.27058823529411763" stop-color="#7e4af4"/>
      <stop offset="0.4470588235294118" stop-color="#8354f3"/>
      <stop offset="0.596078431372549" stop-color="#8c66f2"/>
      <stop offset="0.7333333333333333" stop-color="#997df1"/>
      <stop offset="0.8588235294117647" stop-color="#aa9bef"/>
      <stop offset="0.9764705882352941" stop-color="#bebeed"/>
      <stop offset="1.0" stop-color="#c3c6ed"/>
    </linearGradient>
    <linearGradient gradientTransform="matrix(0.0, -0.0368, -0.0368, 0.0, 86.0, 94.15)" gradientUnits="userSpaceOnUse" id="gradient15" spreadMethod="pad" x1="-819.2" x2="819.2">
      <stop offset="0.054901960784313725" stop-color="#4a3462"/>
      <stop offset="0.5058823529411764" stop-color="#736194"/>
      <stop offset="0.9372549019607843" stop-color="#9e8fc7"/>
    </linearGradient>
    <linearGradient gradientTransform="matrix(0.0, -0.0369, -0.0369, 0.0, 86.0, 94.15)" gradientUnits="userSpaceOnUse" id="gradient16" spreadMethod="pad" x1="-819.2" x2="819.2">
      <stop offset="0.14901960784313725" stop-color="#6b49a5"/>
      <stop offset="0.9372549019607843" stop-color="#a897d3"/>
    </linearGradient>
    <g id="sprite0" transform="matrix(1.0, 0.0, 0.0, 1.0, 0.0, 0.0)">
      <use height="56.9" transform="matrix(1.0, 0.0, 0.0, 1.0, 0.0, 0.0)" width="118.15" xlink:href="#shape1"/>
    </g>
    <g id="shape1" transform="matrix(1.0, 0.0, 0.0, 1.0, 0.0, 0.0)">
      <path d="M95.1 30.2 Q111.05 18.75 117.65 0.3 L118.15 0.0 Q117.3 23.75 100.15 40.3 82.9 56.9 59.0 56.9 35.55 56.9 18.5 40.85 1.5 24.9 0.0 1.7 6.85 19.6 22.65 30.65 38.8 41.95 58.55 41.95 78.75 41.95 95.1 30.2" fill="url(#gradient17)" fill-rule="evenodd" stroke="none"/>
    </g>
    <radialGradient cx="0" cy="0" gradientTransform="matrix(0.0566, 0.0, 0.0, -0.0566, 59.05, 28.45)" gradientUnits="userSpaceOnUse" id="gradient17" r="819.2" spreadMethod="pad">
      <stop offset="0.050980392156862744" stop-color="#4f1972"/>
      <stop offset="0.5215686274509804" stop-color="#4c2675"/>
      <stop offset="0.6392156862745098" stop-color="#4b2a75"/>
    </radialGradient>
    <g id="shape2" transform="matrix(1.0, 0.0, 0.0, 1.0, -39.7, -51.4)">
      <path d="M115.35 53.75 Q116.05 52.65 117.2 52.05 118.15 51.55 119.3 51.55 120.9 51.55 122.1 52.45 L123.35 53.4 124.9 52.9 126.35 52.65 Q128.2 52.65 129.65 54.0 130.55 54.95 130.85 56.25 131.15 57.5 130.75 58.75 L130.25 60.25 131.2 61.55 Q132.0 62.6 132.1 63.9 132.2 65.25 131.6 66.4 131.0 67.6 129.9 68.25 128.8 68.95 127.45 68.95 L125.8 68.9 124.9 70.2 Q123.6 72.15 121.1 72.15 L120.4 72.1 Q118.95 71.9 117.85 70.8 117.1 70.05 116.7 68.9 L116.25 67.4 114.7 66.9 Q113.65 66.6 112.85 65.8 111.8 64.75 111.55 63.25 111.35 61.95 111.85 60.7 112.35 59.5 113.45 58.75 L114.75 57.8 114.7 56.2 Q114.7 54.9 115.35 53.75" fill="url(#gradient18)" fill-rule="evenodd" stroke="none"/>
      <path d="M115.3 53.7 Q116.0 52.6 117.2 51.95 118.35 51.4 119.7 51.5 121.1 51.6 122.15 52.4 L123.4 53.3 124.85 52.8 127.45 52.7 Q128.75 53.0 129.7 53.95 130.65 54.9 130.95 56.2 131.25 57.55 130.85 58.8 L130.3 60.25 131.25 61.5 Q132.1 62.6 132.2 63.9 132.3 65.25 131.65 66.45 131.05 67.65 129.95 68.35 128.8 69.0 127.45 69.0 L125.85 69.0 124.95 70.25 Q123.6 72.25 121.1 72.25 L120.4 72.2 Q118.95 72.0 117.8 70.9 116.95 70.05 116.65 68.9 L116.2 67.45 114.7 67.0 Q113.75 66.75 112.75 65.85 111.7 64.8 111.45 63.25 111.25 61.9 111.75 60.65 112.25 59.45 113.4 58.65 L114.65 57.75 114.6 56.2 Q114.6 54.85 115.3 53.7" fill="url(#gradient19)" fill-rule="evenodd" stroke="none"/>
      <path d="M115.3 53.7 Q116.0 52.6 117.2 51.95 118.35 51.4 119.7 51.5 121.1 51.6 122.15 52.4 L123.4 53.3 124.85 52.8 127.45 52.7 Q128.75 53.0 129.7 53.95 130.65 54.9 130.95 56.2 131.25 57.55 130.85 58.8 L130.3 60.25 131.25 61.5 Q132.1 62.6 132.2 63.9 132.3 65.25 131.65 66.45 131.05 67.65 129.95 68.35 128.8 69.0 127.45 69.0 L125.85 69.0 124.95 70.25 Q123.6 72.25 121.1 72.25 L120.4 72.2 Q118.95 72.0 117.8 70.9 116.95 70.05 116.65 68.9 L116.2 67.45 114.7 67.0 Q113.75 66.75 112.75 65.85 111.7 64.8 111.45 63.25 111.25 61.9 111.75 60.65 112.25 59.45 113.4 58.65 L114.65 57.75 114.6 56.2 Q114.6 54.85 115.3 53.7 Z" fill="none" stroke="#c3b0ec" stroke-linecap="butt" stroke-linejoin="miter" stroke-width="0.25"/>
      <path d="M117.15 51.9 Q118.3 51.3 119.75 51.4 121.2 51.5 122.2 52.3 L123.4 53.2 124.8 52.7 127.45 52.6 Q128.85 52.95 129.75 53.85 130.7 54.8 131.05 56.2 131.35 57.5 130.95 58.8 L130.45 60.25 131.35 61.45 Q132.2 62.55 132.3 63.9 132.4 65.25 131.75 66.5 131.15 67.7 130.0 68.4 128.85 69.1 127.45 69.1 L125.9 69.1 125.05 70.3 Q123.65 72.35 121.1 72.35 L120.35 72.3 Q118.9 72.1 117.75 70.95 116.85 70.15 116.55 68.95 L116.1 67.55 114.65 67.1 Q113.5 66.7 112.7 65.9 111.6 64.85 111.35 63.25 111.15 61.9 111.65 60.65 112.2 59.4 113.3 58.6 L114.55 57.7 114.5 56.2 Q114.5 54.85 115.2 53.7 115.95 52.5 117.15 51.9 M115.4 53.75 Q114.7 54.9 114.75 56.2 L114.75 57.8 113.45 58.75 Q112.35 59.5 111.85 60.7 111.35 61.95 111.55 63.25 111.8 64.7 112.85 65.75 113.6 66.6 114.7 66.9 L116.25 67.4 116.75 68.9 Q117.05 69.95 117.9 70.8 118.9 71.85 120.4 72.1 L122.9 71.75 Q124.15 71.25 124.9 70.2 L125.8 68.9 127.45 68.9 Q128.75 68.9 129.9 68.25 131.0 67.55 131.6 66.4 132.2 65.25 132.1 63.95 131.95 62.65 131.15 61.55 L130.2 60.25 130.75 58.75 Q131.15 57.5 130.85 56.25 130.55 54.95 129.6 54.0 128.75 53.15 127.4 52.8 L124.9 52.9 123.35 53.45 122.1 52.5 Q120.9 51.6 119.3 51.6 118.15 51.6 117.25 52.05 116.05 52.65 115.4 53.75" fill="#c3b0ec" fill-rule="evenodd" stroke="none"/>
      <path d="M127.8 55.85 Q128.75 56.7 128.3 57.9 L127.35 60.75 129.1 63.1 Q129.9 64.05 129.3 65.25 128.75 66.35 127.45 66.35 L124.5 66.3 122.8 68.7 Q122.05 69.8 120.8 69.55 120.15 69.45 119.7 69.0 L119.2 68.15 118.3 65.35 115.5 64.45 Q115.0 64.3 114.65 63.95 114.2 63.5 114.05 62.85 113.9 61.55 114.9 60.85 L117.3 59.15 117.3 56.2 Q117.2 54.95 118.4 54.35 L120.55 54.5 122.9 56.3 125.7 55.35 Q126.95 54.95 127.8 55.85" fill="#31074f" fill-rule="evenodd" stroke="none"/>
      <path d="M118.85 55.2 L120.0 55.3 122.75 57.35 126.0 56.25 Q126.65 56.0 127.15 56.5 127.65 57.0 127.4 57.6 L126.3 60.9 128.35 63.65 Q128.75 64.25 128.45 64.8 128.1 65.4 127.45 65.4 L124.0 65.35 122.0 68.2 Q121.6 68.75 120.95 68.6 120.65 68.6 120.35 68.3 L120.1 67.85 119.05 64.55 115.75 63.55 115.3 63.3 115.0 62.7 Q114.9 62.0 115.45 61.6 L118.3 59.65 118.25 56.15 Q118.25 55.5 118.85 55.2" fill="url(#gradient20)" fill-rule="evenodd" stroke="none"/>
      <path d="M118.85 55.2 L120.0 55.3 122.75 57.35 126.0 56.25 Q126.65 56.0 127.15 56.5 L127.25 56.75 126.65 56.75 123.4 57.85 120.6 55.8 119.45 55.7 Q118.85 56.05 118.85 56.7 L118.9 60.15 116.1 62.15 Q115.55 62.45 115.65 63.2 L115.8 63.55 115.75 63.55 115.3 63.3 115.0 62.7 Q114.9 62.0 115.45 61.6 L118.3 59.65 118.25 56.15 Q118.25 55.5 118.85 55.2" fill="#e0dbf7" fill-rule="evenodd" stroke="none"/>
      <path d="M41.15 56.25 Q41.45 54.95 42.4 54.0 43.75 52.65 45.65 52.65 L47.15 52.9 48.65 53.4 49.95 52.45 Q51.1 51.55 52.7 51.55 53.85 51.55 54.8 52.05 56.0 52.65 56.65 53.75 57.35 54.9 57.3 56.2 L57.3 57.8 58.6 58.75 Q59.7 59.5 60.2 60.7 60.75 61.95 60.5 63.25 60.25 64.75 59.2 65.8 L57.3 66.9 55.8 67.4 55.3 68.9 Q54.95 70.05 54.15 70.8 53.15 71.85 51.6 72.1 L50.9 72.15 Q48.5 72.15 47.1 70.2 L46.2 68.9 44.55 68.95 Q43.25 68.95 42.15 68.25 41.0 67.55 40.45 66.4 39.8 65.25 39.9 63.9 40.05 62.6 40.85 61.55 L41.8 60.25 41.3 58.75 Q40.85 57.5 41.15 56.25" fill="url(#gradient21)" fill-rule="evenodd" stroke="none"/>
      <path d="M42.35 53.95 Q43.25 53.0 44.6 52.7 L47.15 52.8 48.65 53.3 49.9 52.4 Q50.9 51.6 52.3 51.5 L54.85 51.95 Q56.05 52.6 56.75 53.7 57.45 54.85 57.4 56.2 L57.4 57.75 58.65 58.65 Q59.75 59.45 60.25 60.65 60.8 61.9 60.6 63.25 60.4 64.7 59.25 65.85 L57.35 67.0 55.85 67.45 55.4 68.9 Q55.1 70.0 54.2 70.9 53.1 72.0 51.65 72.2 L50.9 72.25 Q48.5 72.25 47.05 70.25 L46.15 69.0 44.55 69.0 Q43.2 69.0 42.1 68.35 40.95 67.65 40.35 66.45 39.7 65.25 39.85 63.9 39.95 62.6 40.75 61.5 L41.7 60.25 41.2 58.8 Q40.8 57.5 41.1 56.2 41.4 54.9 42.35 53.95" fill="url(#gradient22)" fill-rule="evenodd" stroke="none"/>
      <path d="M42.35 53.95 Q43.25 53.0 44.6 52.7 L47.15 52.8 48.65 53.3 49.9 52.4 Q50.9 51.6 52.3 51.5 L54.85 51.95 Q56.05 52.6 56.75 53.7 57.45 54.85 57.4 56.2 L57.4 57.75 58.65 58.65 Q59.75 59.45 60.25 60.65 60.8 61.9 60.6 63.25 60.4 64.7 59.25 65.85 L57.35 67.0 55.85 67.45 55.4 68.9 Q55.1 70.0 54.2 70.9 53.1 72.0 51.65 72.2 L50.9 72.25 Q48.5 72.25 47.05 70.25 L46.15 69.0 44.55 69.0 Q43.2 69.0 42.1 68.35 40.95 67.65 40.35 66.45 39.7 65.25 39.85 63.9 39.95 62.6 40.75 61.5 L41.7 60.25 41.2 58.8 Q40.8 57.5 41.1 56.2 41.4 54.9 42.35 53.95 Z" fill="none" stroke="#c3b0ec" stroke-linecap="butt" stroke-linejoin="miter" stroke-width="0.25"/>
      <path d="M42.25 53.85 Q43.2 52.95 44.6 52.6 L47.2 52.7 48.6 53.2 49.8 52.3 Q50.85 51.5 52.3 51.4 53.75 51.3 54.9 51.9 56.15 52.5 56.85 53.7 57.55 54.85 57.5 56.2 L57.5 57.7 58.7 58.6 Q59.8 59.4 60.35 60.65 60.9 61.9 60.7 63.25 60.45 64.8 59.3 65.9 58.5 66.75 57.35 67.1 L55.95 67.55 55.5 68.95 Q55.1 70.15 54.3 70.95 53.2 72.05 51.65 72.3 L50.9 72.35 Q48.35 72.35 46.95 70.3 L46.1 69.1 44.55 69.1 Q43.2 69.1 42.05 68.4 40.9 67.7 40.25 66.5 39.6 65.25 39.75 63.9 39.85 62.55 40.7 61.45 L41.6 60.25 41.1 58.8 Q40.65 57.55 40.95 56.2 41.3 54.85 42.25 53.85 M41.2 56.25 Q40.9 57.5 41.3 58.75 L41.8 60.25 40.85 61.55 Q40.05 62.65 39.95 63.95 39.85 65.25 40.45 66.4 41.05 67.55 42.15 68.25 43.25 68.9 44.55 68.9 L46.2 68.9 47.15 70.2 Q47.9 71.25 49.15 71.75 L51.6 72.1 Q53.05 71.9 54.15 70.8 55.0 69.95 55.3 68.9 L55.75 67.4 57.3 66.9 59.2 65.75 Q60.3 64.7 60.5 63.25 60.7 61.95 60.2 60.7 59.7 59.5 58.6 58.75 L57.3 57.8 57.3 56.2 Q57.3 54.9 56.65 53.75 55.95 52.65 54.8 52.05 L52.75 51.6 Q51.1 51.6 49.95 52.5 L48.65 53.45 47.15 52.9 44.65 52.8 Q43.3 53.15 42.4 54.0 41.5 54.95 41.2 56.25" fill="#c3b0ec" fill-rule="evenodd" stroke="none"/>
      <path d="M44.2 55.85 Q45.1 54.95 46.3 55.35 L49.1 56.3 51.5 54.5 53.65 54.35 Q54.75 54.9 54.75 56.2 L54.7 59.15 57.1 60.85 Q58.1 61.55 57.95 62.85 57.85 63.5 57.4 63.95 57.1 64.3 56.55 64.45 L53.7 65.35 52.85 68.15 52.35 69.0 Q51.9 69.5 51.2 69.55 49.9 69.8 49.25 68.7 L47.5 66.3 44.55 66.35 Q43.3 66.35 42.75 65.25 42.1 64.15 42.9 63.1 L44.65 60.75 43.7 57.9 Q43.35 56.65 44.2 55.85" fill="#31074f" fill-rule="evenodd" stroke="none"/>
      <path d="M53.2 55.2 Q53.8 55.55 53.8 56.15 L53.75 59.65 56.55 61.6 Q57.1 62.0 57.0 62.7 L56.7 63.3 56.25 63.55 52.95 64.55 51.95 67.85 51.65 68.3 Q51.35 68.6 51.05 68.6 50.45 68.75 50.0 68.2 L48.0 65.35 44.55 65.4 Q43.9 65.4 43.55 64.8 43.3 64.15 43.65 63.65 L45.75 60.9 44.65 57.6 Q44.4 57.0 44.9 56.5 45.4 56.0 46.0 56.25 L49.3 57.35 52.05 55.3 53.2 55.2" fill="url(#gradient23)" fill-rule="evenodd" stroke="none"/>
      <path d="M52.55 55.7 L51.4 55.8 48.65 57.85 45.35 56.75 44.75 56.75 44.9 56.5 Q45.4 56.0 46.0 56.25 L49.3 57.35 52.05 55.3 53.2 55.2 Q53.8 55.55 53.8 56.15 L53.75 59.65 56.55 61.6 Q57.1 62.0 57.0 62.7 L56.7 63.3 56.25 63.55 56.35 63.2 Q56.5 62.55 55.95 62.15 L53.1 60.15 53.15 56.7 Q53.15 56.0 52.55 55.7" fill="#e0dbf7" fill-rule="evenodd" stroke="none"/>
    </g>
    <linearGradient gradientTransform="matrix(0.0, 0.0126, -0.0126, 0.0, 121.8, 61.85)" gradientUnits="userSpaceOnUse" id="gradient18" spreadMethod="pad" x1="-819.2" x2="819.2">
      <stop offset="0.054901960784313725" stop-color="#8e5b86"/>
      <stop offset="0.9882352941176471" stop-color="#cfacca"/>
    </linearGradient>
    <linearGradient gradientTransform="matrix(0.0, -0.0127, -0.0127, 0.0, 121.8, 61.85)" gradientUnits="userSpaceOnUse" id="gradient19" spreadMethod="pad" x1="-819.2" x2="819.2">
      <stop offset="0.14901960784313725" stop-color="#6b49a5"/>
      <stop offset="0.9372549019607843" stop-color="#a897d3"/>
    </linearGradient>
    <linearGradient gradientTransform="matrix(-0.0059, -0.0059, 0.0059, -0.0059, 122.5, 61.15)" gradientUnits="userSpaceOnUse" id="gradient20" spreadMethod="pad" x1="-819.2" x2="819.2">
      <stop offset="0.0" stop-color="#6f87fe"/>
      <stop offset="0.14901960784313725" stop-color="#7389fe"/>
      <stop offset="0.3215686274509804" stop-color="#7f8cfe"/>
      <stop offset="0.5058823529411764" stop-color="#9493fe"/>
      <stop offset="0.6980392156862745" stop-color="#b39bfe"/>
      <stop offset="0.8980392156862745" stop-color="#daa5fe"/>
      <stop offset="1.0" stop-color="#f1abfe"/>
    </linearGradient>
    <linearGradient gradientTransform="matrix(0.0, -0.0126, -0.0126, 0.0, 50.25, 61.85)" gradientUnits="userSpaceOnUse" id="gradient21" spreadMethod="pad" x1="-819.2" x2="819.2">
      <stop offset="0.054901960784313725" stop-color="#8e5b86"/>
      <stop offset="0.9882352941176471" stop-color="#cfacca"/>
    </linearGradient>
    <linearGradient gradientTransform="matrix(0.0, 0.0127, -0.0127, 0.0, 50.25, 61.85)" gradientUnits="userSpaceOnUse" id="gradient22" spreadMethod="pad" x1="-819.2" x2="819.2">
      <stop offset="0.14901960784313725" stop-color="#6b49a5"/>
      <stop offset="0.9372549019607843" stop-color="#a897d3"/>
    </linearGradient>
    <linearGradient gradientTransform="matrix(0.0059, -0.0059, -0.0059, -0.0059, 49.55, 61.15)" gradientUnits="userSpaceOnUse" id="gradient23" spreadMethod="pad" x1="-819.2" x2="819.2">
      <stop offset="0.0" stop-color="#6f87fe"/>
      <stop offset="0.14901960784313725" stop-color="#7389fe"/>
      <stop offset="0.3215686274509804" stop-color="#7f8cfe"/>
      <stop offset="0.5058823529411764" stop-color="#9493fe"/>
      <stop offset="0.6980392156862745" stop-color="#b39bfe"/>
      <stop offset="0.8980392156862745" stop-color="#daa5fe"/>
      <stop offset="1.0" stop-color="#f1abfe"/>
    </linearGradient>
    <g id="sprite1" transform="matrix(1.0, 0.0, 0.0, 1.0, 0.0, 0.0)">
      <use height="55.5" transform="matrix(1.0, 0.0, 0.0, 1.0, 0.0, 0.0)" width="109.5" xlink:href="#sprite2"/>
      <use height="61.0" transform="matrix(1.0, 0.0, 0.0, 1.0, 0.0, 0.0)" width="109.5" xlink:href="#sprite3"/>
    </g>
    <g id="sprite2" transform="matrix(1.0, 0.0, 0.0, 1.0, 0.0, 0.0)">
      <use height="55.5" transform="matrix(1.0, 0.0, 0.0, 1.0, 0.0, 0.0)" width="109.5" xlink:href="#shape3"/>
    </g>
    <g id="shape3" transform="matrix(1.0, 0.0, 0.0, 1.0, 0.0, 0.0)">
      <path d="M95.6 17.9 Q102.25 25.25 106.0 34.2 109.5 42.6 109.5 50.05 109.5 52.65 109.05 54.45 106.25 37.95 92.9 25.1 77.15 10.0 54.75 10.0 32.0 10.0 16.45 25.1 3.0 38.1 0.45 55.5 0.0 53.8 0.0 51.25 0.0 43.05 3.5 34.35 7.2 25.1 13.9 17.7 29.85 0.0 54.75 0.0 79.35 0.0 95.6 17.9" fill="url(#gradient24)" fill-rule="evenodd" stroke="none"/>
    </g>
    <linearGradient gradientTransform="matrix(0.0, -0.0339, -0.0339, 0.0, 54.75, 27.75)" gradientUnits="userSpaceOnUse" id="gradient24" spreadMethod="pad" x1="-819.2" x2="819.2">
      <stop offset="0.12941176470588237" stop-color="#e2b8b2"/>
      <stop offset="0.9254901960784314" stop-color="#ffffff"/>
    </linearGradient>
    <g id="sprite3" transform="matrix(1.0, 0.0, 0.0, 1.0, 0.0, 0.0)">
      <use height="61.0" transform="matrix(1.0, 0.0, 0.0, 1.0, 0.0, 0.0)" width="109.5" xlink:href="#shape4"/>
    </g>
    <g id="shape4" transform="matrix(1.0, 0.0, 0.0, 1.0, 0.0, 0.0)">
      <path d="M106.0 34.2 Q109.5 42.6 109.5 50.05 109.5 57.45 105.2 59.35 101.7 60.95 93.45 59.3 L76.05 55.3 Q64.1 52.75 54.75 52.75 45.3 52.75 33.45 55.5 L16.05 59.9 Q7.75 61.8 4.3 60.4 0.0 58.65 0.0 51.25 0.0 43.05 3.5 34.35 7.2 25.1 13.9 17.7 29.85 0.0 54.75 0.0 79.35 0.0 95.6 17.9 102.25 25.25 106.0 34.2" fill="#ffffff" fill-rule="evenodd" stroke="none"/>
    </g>
  </defs>
</svg>
