<?xml version="1.0" encoding="UTF-8" standalone="no"?>
<svg xmlns:xlink="http://www.w3.org/1999/xlink" height="97.2px" width="115.35px" xmlns="http://www.w3.org/2000/svg">
  <g transform="matrix(1.0, 0.0, 0.0, 1.0, 0.0, 0.0)">
    <use height="76.55" transform="matrix(1.0, 0.0096, 0.0, 0.8507, 69.4, 12.1454)" width="30.35" xlink:href="#morphshape0"/>
    <use height="76.55" transform="matrix(1.0, 0.0, 0.0, 1.0, 30.35, 0.0)" width="30.35" xlink:href="#morphshape0"/>
    <use height="76.25" transform="matrix(1.0, 0.0, 0.0, 1.0, 11.65, 4.1)" width="34.3" xlink:href="#morphshape1"/>
    <use height="73.1" transform="matrix(1.2341, 0.0763, -0.2136, 0.9937, 59.3989, 9.0393)" width="20.25" xlink:href="#morphshape2"/>
    <use height="33.3" transform="matrix(1.0, 0.0, 0.0, 1.0, 84.7, 45.75)" width="30.6" xlink:href="#morphshape3"/>
    <use height="47.2" transform="matrix(1.0, 0.0, 0.0, 1.0, 0.0, 38.05)" width="23.45" xlink:href="#morphshape4"/>
    <use height="73.1" transform="matrix(1.0, 0.0, 0.0, 1.0, 67.8, 20.15)" width="20.25" xlink:href="#morphshape2"/>
    <use height="50.75" transform="matrix(1.0, 0.0, 0.0, 1.0, 14.75, 42.55)" width="19.65" xlink:href="#morphshape5"/>
    <use height="65.6" transform="matrix(1.0, 0.0, 0.0, 1.0, 29.7, 28.6)" width="25.25" xlink:href="#morphshape6"/>
    <use height="57.95" transform="matrix(1.0, 0.0, 0.0, 1.0, 44.45, 39.25)" width="23.45" xlink:href="#morphshape7"/>
  </g>
  <defs>
    <g id="morphshape0" transform="matrix(1.0, 0.0, 0.0, 1.0, 14.85, 76.6)">
      <path d="M-14.85 -7.6 L-4.95 -0.05 Q4.25 -15.9 8.8 -27.75 13.05 -38.75 14.3 -48.95 15.75 -61.0 13.4 -76.6 8.7 -60.85 3.9 -46.5 L-1.1 -31.95 Q-3.65 -25.25 -6.3 -20.7 -7.7 -18.25 -10.55 -14.3 -13.25 -10.6 -14.85 -7.6" fill="url(#gradient0)" fill-rule="evenodd" stroke="none"/>
      <path d="M-14.85 -7.6 Q-13.25 -10.6 -10.55 -14.3 -7.7 -18.25 -6.3 -20.7 -3.65 -25.25 -1.1 -31.95 L3.9 -46.5 Q8.7 -60.85 13.4 -76.6 15.75 -61.0 14.3 -48.95 13.05 -38.75 8.8 -27.75 4.25 -15.9 -4.95 -0.05 L-14.85 -7.6 Z" fill="none" stroke="#000000" stroke-linecap="round" stroke-linejoin="round" stroke-opacity="0.0" stroke-width="1.0"/>
    </g>
    <linearGradient gradientTransform="matrix(0.0437, -0.0631, -0.0368, -0.0255, 4.25, -38.1)" gradientUnits="userSpaceOnUse" id="gradient0" spreadMethod="pad" x1="-819.2" x2="819.2">
      <stop offset="0.2" stop-color="#ffffff" stop-opacity="0.0"/>
      <stop offset="1.0" stop-color="#8a834a"/>
    </linearGradient>
    <g id="morphshape1" transform="matrix(1.0, 0.0, 0.0, 1.0, 14.85, 76.3)">
      <path d="M-14.75 -7.6 L-4.85 -0.05 Q3.0 -16.95 8.7 -28.5 14.25 -39.6 15.4 -52.55 16.65 -66.45 16.6 -75.95 13.35 -68.05 4.25 -46.25 L-1.65 -32.8 Q-4.25 -26.95 -6.7 -22.45 -8.45 -19.1 -10.95 -14.9 -13.55 -10.7 -14.85 -7.6" fill="url(#gradient1)" fill-rule="evenodd" stroke="none"/>
      <path d="M-14.85 -7.6 Q-13.55 -10.7 -10.95 -14.9 -8.45 -19.1 -6.7 -22.45 -4.25 -26.95 -1.65 -32.8 L4.25 -46.25 Q13.35 -68.05 16.6 -75.95 16.65 -66.45 15.4 -52.55 14.25 -39.6 8.7 -28.5 3.0 -16.95 -4.85 -0.05 L-14.75 -7.6" fill="none" stroke="#000000" stroke-linecap="round" stroke-linejoin="round" stroke-opacity="0.0" stroke-width="1.0"/>
    </g>
    <linearGradient gradientTransform="matrix(0.0437, -0.0631, -0.0368, -0.0255, 4.25, -38.1)" gradientUnits="userSpaceOnUse" id="gradient1" spreadMethod="pad" x1="-819.2" x2="819.2">
      <stop offset="0.2" stop-color="#ffffff" stop-opacity="0.0"/>
      <stop offset="1.0" stop-color="#8a834a"/>
    </linearGradient>
    <g id="morphshape2" transform="matrix(1.0, 0.0, 0.0, 1.0, 10.1, 73.1)">
      <path d="M-8.95 -44.9 Q-12.45 -29.05 -5.15 -0.2 L-5.15 0.0 7.0 -3.15 7.1 -3.15 7.1 -3.15 7.05 -3.45 7.05 -3.55 2.7 -18.8 2.6 -19.2 Q-0.2 -28.7 -0.25 -33.45 L-0.35 -34.55 Q-1.25 -43.8 3.95 -58.35 L4.15 -58.75 Q7.05 -66.55 10.15 -72.45 L10.15 -72.55 Q-5.55 -60.15 -8.95 -44.9" fill="url(#gradient2)" fill-rule="evenodd" stroke="none"/>
      <path d="M-8.95 -44.9 Q-5.55 -60.15 10.15 -72.55 L10.15 -72.45 Q7.05 -66.55 4.15 -58.75 L3.95 -58.35 Q-1.25 -43.8 -0.35 -34.55 L-0.25 -33.45 Q-0.2 -28.7 2.6 -19.2 L2.7 -18.8 7.05 -3.55 7.05 -3.45 7.1 -3.15 7.1 -3.15 7.0 -3.15 -5.15 0.0 -5.15 -0.2 Q-12.45 -29.05 -8.95 -44.9 Z" fill="none" stroke="#000000" stroke-linecap="round" stroke-linejoin="round" stroke-opacity="0.0" stroke-width="1.0"/>
    </g>
    <linearGradient gradientTransform="matrix(0.0153, 0.0547, -0.0388, 0.0109, 2.55, -36.15)" gradientUnits="userSpaceOnUse" id="gradient2" spreadMethod="pad" x1="-819.2" x2="819.2">
      <stop offset="0.0" stop-color="#8a834a"/>
      <stop offset="0.8823529411764706" stop-color="#ffffff" stop-opacity="0.0"/>
    </linearGradient>
    <g id="morphshape3" transform="matrix(1.0, 0.0, 0.0, 1.0, 15.25, 33.3)">
      <path d="M-15.25 -1.95 L-6.7 0.0 Q-5.8 -4.4 -4.9 -8.75 -3.85 -13.95 -2.5 -16.2 -0.55 -21.0 7.6 -26.75 11.65 -29.6 15.3 -31.5 1.9 -30.1 -4.65 -23.9 -11.45 -17.5 -15.25 -1.95" fill="url(#gradient3)" fill-rule="evenodd" stroke="none"/>
      <path d="M-15.25 -1.95 Q-11.45 -17.5 -4.65 -23.9 1.9 -30.1 15.3 -31.5 11.65 -29.6 7.6 -26.75 -0.55 -21.0 -2.5 -16.2 -3.85 -13.95 -4.9 -8.75 -5.8 -4.4 -6.7 0.0 L-15.25 -1.95 Z" fill="none" stroke="#000000" stroke-linecap="round" stroke-linejoin="round" stroke-opacity="0.0" stroke-width="1.0"/>
    </g>
    <linearGradient gradientTransform="matrix(-0.0081, 0.0385, -0.0211, -0.0044, 0.0, -16.65)" gradientUnits="userSpaceOnUse" id="gradient3" spreadMethod="pad" x1="-819.2" x2="819.2">
      <stop offset="0.0" stop-color="#8a834a"/>
      <stop offset="0.8823529411764706" stop-color="#ffffff" stop-opacity="0.0"/>
    </linearGradient>
    <g id="morphshape4" transform="matrix(1.0, 0.0, 0.0, 1.0, 11.05, 47.2)">
      <path d="M-11.05 -2.65 L-1.25 0.05 0.1 -9.35 Q1.05 -15.05 2.75 -22.55 4.4 -30.1 8.4 -37.1 12.4 -44.05 12.4 -47.05 7.85 -42.5 3.9 -39.6 -0.1 -36.75 -2.7 -32.65 -5.3 -28.55 -6.8 -22.3 L-11.05 -2.7" fill="url(#gradient4)" fill-rule="evenodd" stroke="none"/>
      <path d="M-11.05 -2.7 L-6.8 -22.3 Q-5.3 -28.55 -2.7 -32.65 -0.1 -36.75 3.9 -39.6 7.85 -42.5 12.4 -47.05 12.4 -44.05 8.4 -37.1 4.4 -30.1 2.75 -22.55 1.05 -15.05 0.1 -9.35 L-1.25 0.05 -11.05 -2.65" fill="none" stroke="#000000" stroke-linecap="round" stroke-linejoin="round" stroke-opacity="0.0" stroke-width="1.0"/>
    </g>
    <linearGradient gradientTransform="matrix(-0.0131, 0.0575, -0.0298, -0.0045, -0.1, -25.0)" gradientUnits="userSpaceOnUse" id="gradient4" spreadMethod="pad" x1="-819.2" x2="819.2">
      <stop offset="0.0" stop-color="#8a834a"/>
      <stop offset="0.8823529411764706" stop-color="#ffffff" stop-opacity="0.0"/>
    </linearGradient>
    <g id="morphshape5" transform="matrix(1.0, 0.0, 0.0, 1.0, 10.0, 50.75)">
      <path d="M-9.8 0.0 L4.8 -0.8 3.45 -7.95 Q2.35 -13.2 3.8 -19.7 5.25 -26.4 8.1 -37.4 10.05 -45.05 9.05 -50.45 7.6 -46.2 3.25 -39.3 -0.65 -32.75 -4.9 -25.7 -10.4 -16.1 -9.85 0.0" fill="url(#gradient5)" fill-rule="evenodd" stroke="none"/>
      <path d="M-9.85 0.0 Q-10.4 -16.1 -4.9 -25.7 -0.65 -32.75 3.25 -39.3 7.6 -46.2 9.05 -50.45 10.05 -45.05 8.1 -37.4 5.25 -26.4 3.8 -19.7 2.35 -13.2 3.45 -7.95 L4.8 -0.8 -9.8 0.0" fill="none" stroke="#000000" stroke-linecap="round" stroke-linejoin="round" stroke-opacity="0.0" stroke-width="1.0"/>
    </g>
    <linearGradient gradientTransform="matrix(0.0082, 0.0535, -0.0287, 0.0051, 0.45, -24.3)" gradientUnits="userSpaceOnUse" id="gradient5" spreadMethod="pad" x1="-819.2" x2="819.2">
      <stop offset="0.0" stop-color="#8a834a"/>
      <stop offset="0.8823529411764706" stop-color="#ffffff" stop-opacity="0.0"/>
    </linearGradient>
    <g id="morphshape6" transform="matrix(1.0, 0.0, 0.0, 1.0, 12.65, 65.6)">
      <path d="M-11.75 0.05 L5.85 -1.05 Q5.7 -2.65 3.75 -11.15 2.35 -17.15 2.7 -25.45 3.05 -34.2 7.85 -50.65 10.3 -59.0 12.6 -65.5 7.45 -58.5 2.2 -51.4 -3.5 -43.45 -6.6 -37.15 -14.75 -20.65 -11.85 0.0" fill="url(#gradient6)" fill-rule="evenodd" stroke="none"/>
      <path d="M-11.85 0.0 Q-14.75 -20.65 -6.6 -37.15 -3.5 -43.45 2.2 -51.4 7.45 -58.5 12.6 -65.5 10.3 -59.0 7.85 -50.65 3.05 -34.2 2.7 -25.45 2.35 -17.15 3.75 -11.15 5.7 -2.65 5.85 -1.05 L-11.75 0.05" fill="none" stroke="#000000" stroke-linecap="round" stroke-linejoin="round" stroke-opacity="0.0" stroke-width="1.0"/>
    </g>
    <linearGradient gradientTransform="matrix(0.0106, 0.0645, -0.0376, 0.0062, 0.55, -31.9)" gradientUnits="userSpaceOnUse" id="gradient6" spreadMethod="pad" x1="-819.2" x2="819.2">
      <stop offset="0.0" stop-color="#8a834a"/>
      <stop offset="0.8823529411764706" stop-color="#ffffff" stop-opacity="0.0"/>
    </linearGradient>
    <g id="morphshape7" transform="matrix(1.0, 0.0, 0.0, 1.0, 11.25, 57.95)">
      <path d="M-10.55 0.0 L5.15 -0.95 3.25 -9.9 Q2.0 -15.2 2.3 -22.5 2.65 -30.25 7.0 -44.85 9.15 -52.2 11.25 -57.95 6.55 -51.7 1.9 -45.45 -3.2 -38.45 -5.95 -32.9 -13.2 -18.25 -10.55 0.0" fill="url(#gradient7)" fill-rule="evenodd" stroke="none"/>
      <path d="M-10.55 0.0 Q-13.2 -18.25 -5.95 -32.9 -3.2 -38.45 1.9 -45.45 6.55 -51.7 11.25 -57.95 9.15 -52.2 7.0 -44.85 2.65 -30.25 2.3 -22.5 2.0 -15.2 3.25 -9.9 L5.15 -0.95 -10.55 0.0 Z" fill="none" stroke="#000000" stroke-linecap="round" stroke-linejoin="round" stroke-opacity="0.0" stroke-width="1.0"/>
    </g>
    <linearGradient gradientTransform="matrix(0.0094, 0.0576, -0.0333, 0.0055, 0.45, -28.2)" gradientUnits="userSpaceOnUse" id="gradient7" spreadMethod="pad" x1="-819.2" x2="819.2">
      <stop offset="0.0" stop-color="#8a834a"/>
      <stop offset="0.8823529411764706" stop-color="#ffffff" stop-opacity="0.0"/>
    </linearGradient>
  </defs>
</svg>
