<?xml version="1.0" encoding="UTF-8" standalone="no"?>
<svg xmlns:xlink="http://www.w3.org/1999/xlink" height="97.2px" width="115.35px" xmlns="http://www.w3.org/2000/svg">
  <g transform="matrix(1.0, 0.0, 0.0, 1.0, 0.0, 0.0)">
    <use height="76.55" transform="matrix(1.0, 0.0096, 0.0, 0.8507, 69.4, 12.1454)" width="30.35" xlink:href="#morphshape0"/>
    <use height="75.7" transform="matrix(1.0, 0.0, 0.0, 1.0, 30.35, 0.85)" width="34.3" xlink:href="#morphshape1"/>
    <use height="76.55" transform="matrix(1.0, 0.0, 0.0, 1.0, 11.65, 3.8)" width="32.8" xlink:href="#morphshape2"/>
    <use height="74.7" transform="matrix(1.2341, 0.0763, -0.2136, 0.9937, 60.4194, 7.4913)" width="19.45" xlink:href="#morphshape3"/>
    <use height="33.3" transform="matrix(1.0, 0.0, 0.0, 1.0, 84.7, 45.75)" width="30.6" xlink:href="#morphshape4"/>
    <use height="47.7" transform="matrix(1.0, 0.0, 0.0, 1.0, 0.0, 37.55)" width="22.05" xlink:href="#shape0"/>
    <use height="73.1" transform="matrix(1.0, 0.0, 0.0, 1.0, 67.8, 20.15)" width="20.25" xlink:href="#morphshape5"/>
    <use height="50.35" transform="matrix(1.0, 0.0, 0.0, 1.0, 14.25, 42.95)" width="21.0" xlink:href="#morphshape6"/>
    <use height="65.65" transform="matrix(1.0, 0.0, 0.0, 1.0, 30.25, 28.55)" width="24.35" xlink:href="#morphshape7"/>
    <use height="57.7" transform="matrix(1.0, 0.0, 0.0, 1.0, 44.8, 39.5)" width="24.05" xlink:href="#morphshape8"/>
  </g>
  <defs>
    <g id="morphshape0" transform="matrix(1.0, 0.0, 0.0, 1.0, 14.85, 76.6)">
      <path d="M-14.8 -7.7 L-4.9 -0.15 Q4.25 -16.0 8.8 -27.85 13.1 -38.85 14.35 -49.15 15.8 -61.25 13.5 -76.6 8.85 -61.15 3.9 -46.5 L-1.1 -31.95 Q-3.65 -25.25 -6.3 -20.7 -7.7 -18.25 -10.55 -14.3 -13.25 -10.6 -14.85 -7.6" fill="url(#gradient0)" fill-rule="evenodd" stroke="none"/>
      <path d="M-14.85 -7.6 Q-13.25 -10.6 -10.55 -14.3 -7.7 -18.25 -6.3 -20.7 -3.65 -25.25 -1.1 -31.95 L3.9 -46.5 Q8.85 -61.15 13.5 -76.6 15.8 -61.25 14.35 -49.15 13.1 -38.85 8.8 -27.85 4.25 -16.0 -4.9 -0.15 L-14.8 -7.7" fill="none" stroke="#000000" stroke-linecap="round" stroke-linejoin="round" stroke-opacity="0.0" stroke-width="1.0"/>
    </g>
    <linearGradient gradientTransform="matrix(0.0437, -0.0631, -0.0368, -0.0255, 4.25, -38.1)" gradientUnits="userSpaceOnUse" id="gradient0" spreadMethod="pad" x1="-819.2" x2="819.2">
      <stop offset="0.2" stop-color="#ffffff" stop-opacity="0.0"/>
      <stop offset="1.0" stop-color="#8a834a"/>
    </linearGradient>
    <g id="morphshape1" transform="matrix(1.0, 0.0, 0.0, 1.0, 14.85, 75.75)">
      <path d="M-14.85 -7.6 L-4.95 -0.05 Q1.6 -17.95 8.4 -29.15 15.2 -40.4 16.25 -55.95 17.25 -71.55 19.45 -75.45 17.55 -74.8 4.45 -46.1 L-2.35 -33.7 -7.2 -24.25 -11.45 -15.6 Q-13.85 -10.9 -14.85 -7.6" fill="url(#gradient1)" fill-rule="evenodd" stroke="none"/>
      <path d="M-14.85 -7.6 Q-13.85 -10.9 -11.45 -15.6 L-7.2 -24.25 -2.35 -33.7 4.45 -46.1 Q17.55 -74.8 19.45 -75.45 17.25 -71.55 16.25 -55.95 15.2 -40.4 8.4 -29.15 1.6 -17.95 -4.95 -0.05 L-14.85 -7.6 Z" fill="none" stroke="#000000" stroke-linecap="round" stroke-linejoin="round" stroke-opacity="0.0" stroke-width="1.0"/>
    </g>
    <linearGradient gradientTransform="matrix(0.0437, -0.0631, -0.0368, -0.0255, 4.25, -38.1)" gradientUnits="userSpaceOnUse" id="gradient1" spreadMethod="pad" x1="-819.2" x2="819.2">
      <stop offset="0.2" stop-color="#ffffff" stop-opacity="0.0"/>
      <stop offset="1.0" stop-color="#8a834a"/>
    </linearGradient>
    <g id="morphshape2" transform="matrix(1.0, 0.0, 0.0, 1.0, 14.85, 76.6)">
      <path d="M-14.9 -7.6 L-5.0 -0.05 Q3.7 -16.3 8.7 -28.0 13.45 -39.05 14.65 -50.25 16.0 -63.0 14.5 -76.4 10.35 -63.5 3.95 -46.45 L-1.4 -32.3 Q-3.9 -26.05 -6.5 -21.4 -8.1 -18.55 -10.75 -14.55 -13.4 -10.65 -14.85 -7.6" fill="url(#gradient2)" fill-rule="evenodd" stroke="none"/>
      <path d="M-14.85 -7.6 Q-13.4 -10.65 -10.75 -14.55 -8.1 -18.55 -6.5 -21.4 -3.9 -26.05 -1.4 -32.3 L3.95 -46.45 Q10.35 -63.5 14.5 -76.4 16.0 -63.0 14.65 -50.25 13.45 -39.05 8.7 -28.0 3.7 -16.3 -5.0 -0.05 L-14.9 -7.6" fill="none" stroke="#000000" stroke-linecap="round" stroke-linejoin="round" stroke-opacity="0.0" stroke-width="1.0"/>
    </g>
    <linearGradient gradientTransform="matrix(0.0437, -0.0631, -0.0368, -0.0255, 4.25, -38.1)" gradientUnits="userSpaceOnUse" id="gradient2" spreadMethod="pad" x1="-819.2" x2="819.2">
      <stop offset="0.2" stop-color="#ffffff" stop-opacity="0.0"/>
      <stop offset="1.0" stop-color="#8a834a"/>
    </linearGradient>
    <g id="morphshape3" transform="matrix(1.0, 0.0, 0.0, 1.0, 9.55, 74.7)">
      <path d="M-7.05 -44.3 Q-10.5 -29.25 -5.2 -0.3 L-4.65 -0.25 6.9 -3.2 6.9 -3.2 7.0 -3.8 6.95 -4.45 6.9 -4.9 Q6.3 -7.9 3.8 -18.95 L3.6 -19.85 Q1.4 -29.35 1.4 -35.9 1.35 -37.75 1.45 -39.45 1.95 -47.55 4.75 -57.55 L5.4 -59.8 Q7.4 -67.35 9.3 -74.3 L9.25 -74.25 Q-3.65 -59.1 -7.05 -44.2" fill="url(#gradient3)" fill-rule="evenodd" stroke="none"/>
      <path d="M-7.05 -44.2 Q-3.65 -59.1 9.25 -74.25 L9.3 -74.3 Q7.4 -67.35 5.4 -59.8 L4.75 -57.55 Q1.95 -47.55 1.45 -39.45 1.35 -37.75 1.4 -35.9 1.4 -29.35 3.6 -19.85 L3.8 -18.95 Q6.3 -7.9 6.9 -4.9 L6.95 -4.45 7.0 -3.8 6.9 -3.2 6.9 -3.2 -4.65 -0.25 -5.2 -0.3 Q-10.5 -29.25 -7.05 -44.3" fill="none" stroke="#000000" stroke-linecap="round" stroke-linejoin="round" stroke-opacity="0.0" stroke-width="1.0"/>
    </g>
    <linearGradient gradientTransform="matrix(0.0153, 0.0547, -0.0388, 0.0109, 2.55, -36.15)" gradientUnits="userSpaceOnUse" id="gradient3" spreadMethod="pad" x1="-819.2" x2="819.2">
      <stop offset="0.0" stop-color="#8a834a"/>
      <stop offset="0.8823529411764706" stop-color="#ffffff" stop-opacity="0.0"/>
    </linearGradient>
    <g id="morphshape4" transform="matrix(1.0, 0.0, 0.0, 1.0, 15.25, 33.3)">
      <path d="M-15.25 -1.95 L-6.7 0.0 Q-5.8 -4.4 -4.9 -8.75 -3.85 -13.95 -2.5 -16.2 -0.55 -21.0 7.6 -26.75 11.65 -29.6 15.3 -31.5 1.9 -30.1 -4.65 -23.9 -11.45 -17.5 -15.25 -1.95" fill="url(#gradient4)" fill-rule="evenodd" stroke="none"/>
      <path d="M-15.25 -1.95 Q-11.45 -17.5 -4.65 -23.9 1.9 -30.1 15.3 -31.5 11.65 -29.6 7.6 -26.75 -0.55 -21.0 -2.5 -16.2 -3.85 -13.95 -4.9 -8.75 -5.8 -4.4 -6.7 0.0 L-15.25 -1.95 Z" fill="none" stroke="#000000" stroke-linecap="round" stroke-linejoin="round" stroke-opacity="0.0" stroke-width="1.0"/>
    </g>
    <linearGradient gradientTransform="matrix(-0.0081, 0.0385, -0.0211, -0.0044, 0.0, -16.65)" gradientUnits="userSpaceOnUse" id="gradient4" spreadMethod="pad" x1="-819.2" x2="819.2">
      <stop offset="0.0" stop-color="#8a834a"/>
      <stop offset="0.8823529411764706" stop-color="#ffffff" stop-opacity="0.0"/>
    </linearGradient>
    <g id="shape0" transform="matrix(1.0, 0.0, 0.0, 1.0, 11.05, 47.7)">
      <path d="M11.0 -47.7 Q8.35 -43.1 5.6 -36.85 0.15 -24.3 -0.15 -15.8 L-0.3 -6.3 Q-0.3 -4.85 -1.25 0.0 L-11.05 -2.7 -8.5 -20.85 Q-7.35 -28.35 -5.85 -32.05 -4.05 -36.4 -0.3 -39.85 3.2 -43.05 11.0 -47.7" fill="url(#gradient5)" fill-rule="evenodd" stroke="none"/>
    </g>
    <linearGradient gradientTransform="matrix(-0.0131, 0.0575, -0.0298, -0.0045, -0.1, -25.0)" gradientUnits="userSpaceOnUse" id="gradient5" spreadMethod="pad" x1="-819.2" x2="819.2">
      <stop offset="0.0" stop-color="#8a834a"/>
      <stop offset="0.8823529411764706" stop-color="#ffffff" stop-opacity="0.0"/>
    </linearGradient>
    <g id="morphshape5" transform="matrix(1.0, 0.0, 0.0, 1.0, 10.1, 73.1)">
      <path d="M-8.65 -44.8 Q-12.15 -29.15 -5.3 -0.15 L-5.15 -0.15 6.95 -3.3 7.0 -3.35 7.0 -3.35 6.95 -3.65 6.95 -3.8 2.8 -19.1 2.7 -19.35 Q0.25 -28.4 0.1 -33.65 L0.05 -34.95 Q-0.8 -44.2 4.2 -58.55 L4.35 -58.95 Q7.15 -66.95 9.9 -72.95 L9.85 -72.9 Q-5.1 -59.85 -8.5 -44.7" fill="url(#gradient6)" fill-rule="evenodd" stroke="none"/>
      <path d="M-8.5 -44.7 Q-5.1 -59.85 9.85 -72.9 L9.9 -72.95 Q7.15 -66.95 4.35 -58.95 L4.2 -58.55 Q-0.8 -44.2 0.05 -34.95 L0.1 -33.65 Q0.25 -28.4 2.7 -19.35 L2.8 -19.1 6.95 -3.8 6.95 -3.65 7.0 -3.35 7.0 -3.35 6.95 -3.3 -5.15 -0.15 -5.3 -0.15 Q-12.15 -29.15 -8.65 -44.8" fill="none" stroke="#000000" stroke-linecap="round" stroke-linejoin="round" stroke-opacity="0.0" stroke-width="1.0"/>
    </g>
    <linearGradient gradientTransform="matrix(0.0153, 0.0547, -0.0388, 0.0109, 2.55, -36.15)" gradientUnits="userSpaceOnUse" id="gradient6" spreadMethod="pad" x1="-819.2" x2="819.2">
      <stop offset="0.0" stop-color="#8a834a"/>
      <stop offset="0.8823529411764706" stop-color="#ffffff" stop-opacity="0.0"/>
    </linearGradient>
    <g id="morphshape6" transform="matrix(1.0, 0.0, 0.0, 1.0, 10.5, 50.35)">
      <path d="M-9.95 0.0 L4.65 -0.8 3.0 -8.4 Q1.9 -13.15 2.45 -19.5 3.0 -26.2 6.8 -38.5 8.75 -44.55 10.2 -50.15 6.5 -45.1 2.05 -39.3 -2.5 -33.15 -5.4 -27.9 -11.9 -15.85 -9.85 0.0" fill="url(#gradient7)" fill-rule="evenodd" stroke="none"/>
      <path d="M-9.85 0.0 Q-11.9 -15.85 -5.4 -27.9 -2.5 -33.15 2.05 -39.3 6.5 -45.1 10.2 -50.15 8.75 -44.55 6.8 -38.5 3.0 -26.2 2.45 -19.5 1.9 -13.15 3.0 -8.4 L4.65 -0.8 -9.95 0.0" fill="none" stroke="#000000" stroke-linecap="round" stroke-linejoin="round" stroke-opacity="0.0" stroke-width="1.0"/>
    </g>
    <linearGradient gradientTransform="matrix(0.0082, 0.0535, -0.0287, 0.0051, 0.45, -24.3)" gradientUnits="userSpaceOnUse" id="gradient7" spreadMethod="pad" x1="-819.2" x2="819.2">
      <stop offset="0.0" stop-color="#8a834a"/>
      <stop offset="0.8823529411764706" stop-color="#ffffff" stop-opacity="0.0"/>
    </linearGradient>
    <g id="morphshape7" transform="matrix(1.0, 0.0, 0.0, 1.0, 12.1, 65.65)">
      <path d="M-11.9 0.05 L5.7 -1.05 Q5.65 -5.25 5.4 -11.05 5.0 -18.95 7.15 -27.75 9.25 -36.55 11.15 -48.7 12.75 -59.85 10.95 -65.6 9.8 -60.05 5.55 -51.25 1.4 -42.55 -5.1 -32.1 -12.25 -20.35 -11.85 0.0" fill="url(#gradient8)" fill-rule="evenodd" stroke="none"/>
      <path d="M-11.85 0.0 Q-12.25 -20.35 -5.1 -32.1 1.4 -42.55 5.55 -51.25 9.8 -60.05 10.95 -65.6 12.75 -59.85 11.15 -48.7 9.25 -36.55 7.15 -27.75 5.0 -18.95 5.4 -11.05 5.65 -5.25 5.7 -1.05 L-11.9 0.05" fill="none" stroke="#000000" stroke-linecap="round" stroke-linejoin="round" stroke-opacity="0.0" stroke-width="1.0"/>
    </g>
    <linearGradient gradientTransform="matrix(0.0106, 0.0645, -0.0376, 0.0062, 0.55, -31.9)" gradientUnits="userSpaceOnUse" id="gradient8" spreadMethod="pad" x1="-819.2" x2="819.2">
      <stop offset="0.0" stop-color="#8a834a"/>
      <stop offset="0.8823529411764706" stop-color="#ffffff" stop-opacity="0.0"/>
    </linearGradient>
    <g id="morphshape8" transform="matrix(1.0, 0.0, 0.0, 1.0, 10.9, 57.7)">
      <path d="M-10.45 0.0 L5.25 -0.95 4.1 -9.95 Q3.2 -17.35 4.15 -25.0 5.05 -32.75 9.25 -43.0 13.1 -52.3 12.95 -57.45 10.85 -52.85 4.7 -45.55 -1.3 -38.45 -6.05 -29.1 -11.45 -18.65 -10.55 0.0" fill="url(#gradient9)" fill-rule="evenodd" stroke="none"/>
      <path d="M-10.55 0.0 Q-11.45 -18.65 -6.05 -29.1 -1.3 -38.45 4.7 -45.55 10.85 -52.85 12.95 -57.45 13.1 -52.3 9.25 -43.0 5.05 -32.75 4.15 -25.0 3.2 -17.35 4.1 -9.95 L5.25 -0.95 -10.45 0.0" fill="none" stroke="#000000" stroke-linecap="round" stroke-linejoin="round" stroke-opacity="0.0" stroke-width="1.0"/>
    </g>
    <linearGradient gradientTransform="matrix(0.0094, 0.0576, -0.0333, 0.0055, 0.45, -28.2)" gradientUnits="userSpaceOnUse" id="gradient9" spreadMethod="pad" x1="-819.2" x2="819.2">
      <stop offset="0.0" stop-color="#8a834a"/>
      <stop offset="0.8823529411764706" stop-color="#ffffff" stop-opacity="0.0"/>
    </linearGradient>
  </defs>
</svg>
