<?xml version="1.0" encoding="UTF-8" standalone="no"?>
<svg xmlns:xlink="http://www.w3.org/1999/xlink" height="249.85px" width="2157.3px" xmlns="http://www.w3.org/2000/svg">
  <g transform="matrix(1.0, 0.0, 0.0, 1.0, 0.0, 0.0)">
    <use height="249.85" transform="matrix(1.0, 0.0, 0.0, 1.0, 0.0, 0.0)" width="2157.3" xlink:href="#shape0"/>
  </g>
  <defs>
    <g id="shape0" transform="matrix(1.0, 0.0, 0.0, 1.0, 0.0, 0.0)">
      <path d="M84.75 76.3 Q166.65 53.9 315.9 36.6 465.2 19.3 658.8 9.8 859.2 0.0 1078.65 0.0 1298.05 0.0 1498.5 9.8 1692.1 19.3 1841.4 36.6 1990.65 53.9 2072.55 76.3 2157.3 99.55 2157.3 124.95 2157.3 150.35 2072.55 173.6 1990.65 196.0 1841.4 213.3 1692.1 230.55 1498.5 240.05 1298.1 249.85 1078.65 249.85 859.2 249.85 658.8 240.05 465.2 230.55 315.9 213.3 166.65 196.0 84.75 173.6 0.0 150.35 0.0 124.95 0.0 99.55 84.75 76.3" fill="url(#gradient0)" fill-rule="evenodd" stroke="none"/>
    </g>
    <radialGradient cx="0" cy="0" gradientTransform="matrix(1.3169, 0.0, 0.0, -0.1525, 1078.65, 124.95)" gradientUnits="userSpaceOnUse" id="gradient0" r="819.2" spreadMethod="pad">
      <stop offset="0.0" stop-color="#000000" stop-opacity="0.34901962"/>
      <stop offset="1.0" stop-color="#000000" stop-opacity="0.0"/>
    </radialGradient>
  </defs>
</svg>
