<?xml version="1.0" encoding="UTF-8" standalone="no"?>
<svg xmlns:xlink="http://www.w3.org/1999/xlink" height="106.7px" width="151.4px" xmlns="http://www.w3.org/2000/svg">
  <g transform="matrix(1.0, 0.0, 0.0, 1.0, 0.0, 0.0)">
    <use height="47.95" transform="matrix(1.0, 0.0, 0.0, 1.0, 7.3, 42.65)" width="138.85" xlink:href="#shape0"/>
    <use height="31.9" transform="matrix(1.0, 0.0, 0.0, 1.0, 0.0, 74.8)" width="151.4" xlink:href="#sprite0"/>
    <use height="31.65" transform="matrix(1.0, 0.0, 0.0, 1.0, 4.25, 73.1)" width="144.8" xlink:href="#sprite1"/>
    <use height="78.25" transform="matrix(1.0, 0.0, 0.0, 1.0, 6.8, 23.85)" width="140.85" xlink:href="#shape3"/>
    <use height="69.0" transform="matrix(1.0, 0.0, 0.0, 1.0, 19.7, 22.4)" width="29.3" xlink:href="#sprite2"/>
    <use height="89.2" transform="matrix(1.0, 0.0, 0.0, 1.0, 41.5, 8.2)" width="35.7" xlink:href="#sprite3"/>
    <use height="93.85" transform="matrix(1.0, 0.0, 0.0, 1.0, 73.3, 8.2)" width="20.95" xlink:href="#sprite4"/>
    <use height="78.75" transform="matrix(1.0, 0.0, 0.0, 1.0, 98.45, 16.0)" width="22.7" xlink:href="#sprite5"/>
    <use height="34.2" transform="matrix(1.0, 0.0, 0.0, 1.0, 121.7, 57.95)" width="8.2" xlink:href="#sprite6"/>
    <use height="63.1" transform="matrix(1.0, 0.0, 0.0, 1.0, 85.3, 28.8)" width="27.3" xlink:href="#shape9"/>
    <use height="17.15" transform="matrix(1.0, 0.0, 0.0, 1.0, 72.4, 57.95)" width="7.7" xlink:href="#sprite7"/>
    <use height="13.6" transform="matrix(1.0, 0.0, 0.0, 1.0, 72.5, 42.4)" width="6.6" xlink:href="#sprite8"/>
    <use height="14.55" transform="matrix(1.0, 0.0, 0.0, 1.0, 65.6, 75.5)" width="5.05" xlink:href="#sprite9"/>
    <use height="26.9" transform="matrix(1.0, 0.0, 0.0, 1.0, 43.0, 48.95)" width="13.8" xlink:href="#sprite10"/>
    <use height="6.0" transform="matrix(1.0, 0.0, 0.0, 1.0, 61.95, 27.55)" width="3.1" xlink:href="#sprite11"/>
    <use height="14.45" transform="matrix(1.0, 0.0, 0.0, 1.0, 43.6, 75.3)" width="9.05" xlink:href="#sprite12"/>
    <use height="49.95" transform="matrix(1.0, 0.0, 0.0, 1.0, 23.25, 33.1)" width="98.5" xlink:href="#shape16"/>
    <use height="50.15" transform="matrix(1.0, 0.0, 0.0, 1.0, 28.05, 8.15)" width="94.8" xlink:href="#sprite13"/>
    <use height="55.75" transform="matrix(1.0, 0.0, 0.0, 1.0, 14.0, 0.0)" width="125.85" xlink:href="#shape18"/>
    <use height="15.65" transform="matrix(1.0, 0.0, 0.0, 1.0, 55.5, 2.9)" width="71.4" xlink:href="#sprite14"/>
    <use height="2.0" transform="matrix(1.0, 0.0, 0.0, 1.0, 109.45, 11.2)" width="9.25" xlink:href="#sprite15"/>
    <use height="11.95" transform="matrix(1.0, 0.0, 0.0, 1.0, 22.25, 6.75)" width="55.0" xlink:href="#sprite16"/>
    <use height="3.15" transform="matrix(1.0, 0.0, 0.0, 1.0, 50.45, 9.6)" width="13.4" xlink:href="#sprite17"/>
    <use height="24.05" transform="matrix(1.0, 0.0, 0.0, 1.0, 14.45, 12.45)" width="78.05" xlink:href="#sprite18"/>
    <use height="6.4" transform="matrix(1.0, 0.0, 0.0, 1.0, 18.7, 31.2)" width="37.15" xlink:href="#sprite19"/>
    <use height="5.8" transform="matrix(1.0, 0.0, 0.0, 1.0, 92.85, 24.85)" width="4.6" xlink:href="#sprite20"/>
    <use height="11.55" transform="matrix(1.0, 0.0, 0.0, 1.0, 94.4, 23.45)" width="11.85" xlink:href="#sprite21"/>
    <use height="12.7" transform="matrix(1.0, 0.0, 0.0, 1.0, 108.5, 17.85)" width="31.35" xlink:href="#sprite22"/>
    <use height="2.5" transform="matrix(1.0, 0.0, 0.0, 1.0, 128.55, 29.05)" width="6.75" xlink:href="#sprite23"/>
    <use height="10.7" transform="matrix(1.0, 0.0, 0.0, 1.0, 106.85, 29.4)" width="30.45" xlink:href="#sprite24"/>
    <use height="63.35" transform="matrix(1.0, 0.0, 0.0, 1.0, 30.2, 40.4)" width="79.95" xlink:href="#shape30"/>
  </g>
  <defs>
    <g id="shape0" transform="matrix(1.0, 0.0, 0.0, 1.0, -7.3, -42.65)">
      <path d="M131.7 89.05 Q132.6 77.55 138.45 70.6 141.4 67.1 144.15 65.9 138.2 70.6 136.85 80.25 136.2 85.1 136.7 88.95 135.35 89.65 133.4 89.45 L131.7 89.05" fill="url(#gradient0)" fill-rule="evenodd" stroke="none"/>
      <path d="M134.6 89.85 Q135.5 78.35 140.9 74.85 143.6 73.1 146.15 73.65 140.0 74.3 137.8 82.3 136.7 86.3 136.8 90.15 135.5 90.85 134.9 90.45 L134.6 89.85" fill="url(#gradient1)" fill-rule="evenodd" stroke="none"/>
      <path d="M128.85 88.5 Q129.75 62.15 136.45 49.75 139.8 43.55 142.95 42.65 136.0 47.35 133.95 68.7 132.95 79.4 133.35 89.15 131.3 89.8 129.85 89.2 L128.85 88.5" fill="url(#gradient2)" fill-rule="evenodd" stroke="none"/>
      <path d="M19.4 86.45 L18.55 86.85 Q17.35 87.2 15.55 86.85 15.9 81.15 15.0 74.95 13.25 62.45 7.3 59.75 L9.0 60.45 Q11.1 61.65 12.9 63.9 18.65 71.1 19.4 86.45" fill="url(#gradient3)" fill-rule="evenodd" stroke="none"/>
      <path d="M22.55 86.3 L21.7 86.8 Q20.5 87.25 18.7 86.8 19.05 79.6 18.2 71.7 16.45 55.9 10.5 52.45 L12.2 53.35 Q14.3 54.85 16.1 57.7 21.85 66.85 22.55 86.3" fill="url(#gradient4)" fill-rule="evenodd" stroke="none"/>
    </g>
    <linearGradient gradientTransform="matrix(0.0, -0.0161, -0.0161, 0.0, 137.9, 80.1)" gradientUnits="userSpaceOnUse" id="gradient0" spreadMethod="pad" x1="-819.2" x2="819.2">
      <stop offset="0.0" stop-color="#242224"/>
      <stop offset="0.15294117647058825" stop-color="#323628"/>
      <stop offset="0.7254901960784313" stop-color="#627d37"/>
      <stop offset="0.9921568627450981" stop-color="#75993d"/>
    </linearGradient>
    <linearGradient gradientTransform="matrix(0.0, -0.0116, -0.0116, 0.0, 140.4, 83.85)" gradientUnits="userSpaceOnUse" id="gradient1" spreadMethod="pad" x1="-819.2" x2="819.2">
      <stop offset="0.0" stop-color="#242224"/>
      <stop offset="0.1803921568627451" stop-color="#24373c"/>
      <stop offset="0.7411764705882353" stop-color="#267483"/>
      <stop offset="1.0" stop-color="#268c9f"/>
    </linearGradient>
    <linearGradient gradientTransform="matrix(0.0, -0.0318, -0.0318, 0.0, 135.9, 70.85)" gradientUnits="userSpaceOnUse" id="gradient2" spreadMethod="pad" x1="-819.2" x2="819.2">
      <stop offset="0.0" stop-color="#242224"/>
      <stop offset="0.1803921568627451" stop-color="#37323c"/>
      <stop offset="0.7411764705882353" stop-color="#716283"/>
      <stop offset="1.0" stop-color="#87759f"/>
    </linearGradient>
    <linearGradient gradientTransform="matrix(0.0, 0.017, -0.0186, 0.0, 13.35, 76.15)" gradientUnits="userSpaceOnUse" id="gradient3" spreadMethod="pad" x1="-819.2" x2="819.2">
      <stop offset="0.0" stop-color="#268c9f"/>
      <stop offset="0.25882352941176473" stop-color="#267483"/>
      <stop offset="0.8196078431372549" stop-color="#24373c"/>
      <stop offset="1.0" stop-color="#242224"/>
    </linearGradient>
    <linearGradient gradientTransform="matrix(0.0, 0.0178, -0.0195, 0.0, 16.55, 76.55)" gradientUnits="userSpaceOnUse" id="gradient4" spreadMethod="pad" x1="-819.2" x2="819.2">
      <stop offset="0.0" stop-color="#454d9f"/>
      <stop offset="0.25882352941176473" stop-color="#3e4383"/>
      <stop offset="0.8196078431372549" stop-color="#2a2a3c"/>
      <stop offset="1.0" stop-color="#242224"/>
    </linearGradient>
    <g id="sprite0" transform="matrix(1.0, 0.0, 0.0, 1.0, 0.0, 0.0)">
      <use height="31.9" transform="matrix(1.0, 0.0, 0.0, 1.0, 0.0, 0.0)" width="151.4" xlink:href="#shape1"/>
    </g>
    <g id="shape1" transform="matrix(1.0, 0.0, 0.0, 1.0, 0.0, 0.0)">
      <path d="M138.25 14.0 Q144.7 14.95 148.4 16.0 L150.2 16.55 Q151.35 17.05 151.4 17.8 151.45 18.85 149.35 19.4 L141.0 20.35 Q138.75 20.5 136.35 21.5 L131.6 23.55 122.4 23.85 114.25 22.0 109.95 21.3 105.75 21.4 Q105.35 21.6 107.15 22.5 108.85 23.4 109.8 23.6 L113.2 24.3 Q115.15 24.7 116.5 25.3 118.65 26.3 117.7 27.15 117.0 27.8 114.85 28.25 L111.2 28.65 106.2 29.25 90.15 31.35 72.85 31.85 62.0 30.75 50.85 29.9 Q41.6 30.3 44.1 28.6 44.95 28.05 46.7 27.7 L49.15 27.15 Q50.5 26.55 49.95 26.4 L48.15 26.2 46.45 26.25 43.5 26.55 35.9 26.95 28.0 26.35 20.1 25.75 13.25 26.15 9.85 25.9 Q9.55 24.65 14.6 23.2 21.15 21.25 22.9 20.15 23.45 19.3 21.0 18.75 L16.65 18.25 Q14.55 18.15 8.8 18.2 L0.35 17.95 Q-0.75 17.0 1.75 16.05 L5.9 14.85 11.3 13.15 Q14.6 12.15 16.55 11.2 20.95 9.15 26.2 7.75 L36.25 5.45 39.85 4.65 Q61.85 0.25 79.4 0.05 88.9 -0.05 92.7 0.15 100.25 0.6 105.65 2.4 108.15 3.25 111.7 4.95 L117.65 7.8 Q127.95 12.45 138.25 14.0" fill="#0d5069" fill-rule="evenodd" stroke="none"/>
    </g>
    <g id="sprite1" transform="matrix(1.0, 0.0, 0.0, 1.0, 0.0, 0.0)">
      <use height="31.65" transform="matrix(1.0, 0.0, 0.0, 1.0, 0.0, 0.0)" width="144.8" xlink:href="#shape2"/>
    </g>
    <g id="shape2" transform="matrix(1.0, 0.0, 0.0, 1.0, 0.0, 0.0)">
      <path d="M143.85 19.95 L141.9 20.1 135.95 20.6 132.2 20.65 128.5 20.85 130.2 21.95 Q130.6 22.5 129.7 22.95 L128.05 23.45 Q121.45 24.75 109.95 22.65 L106.45 21.95 102.9 21.6 Q97.45 21.6 99.9 23.2 L103.55 25.15 109.15 26.5 Q111.1 27.0 110.45 27.85 109.9 28.65 108.3 28.8 L104.85 29.05 101.35 29.25 91.15 30.45 81.75 31.3 72.3 31.55 65.35 31.05 58.4 30.9 54.9 30.75 50.5 30.45 47.9 30.55 Q45.85 30.5 45.7 29.75 45.6 29.2 48.6 27.9 50.8 26.9 48.25 26.45 L43.1 25.9 37.6 26.05 Q27.85 25.85 23.05 26.15 L10.0 26.55 Q9.25 25.05 15.75 23.85 23.8 22.35 25.5 21.2 22.05 18.25 13.25 18.6 2.55 19.05 0.35 18.45 -1.15 17.8 3.75 16.5 L10.25 14.8 15.25 13.1 Q18.3 12.15 20.1 11.2 24.15 9.1 29.0 7.7 L38.3 5.4 41.7 4.65 Q62.0 0.25 78.3 0.05 87.1 -0.05 90.6 0.15 97.6 0.6 102.6 2.4 104.95 3.25 108.25 4.95 L113.7 7.8 Q116.45 9.15 122.1 11.35 L125.55 12.95 Q127.65 14.0 129.0 14.3 L138.5 17.05 141.7 17.75 Q143.55 18.15 144.8 18.8 L144.8 19.0 Q144.95 19.8 143.85 19.95" fill="#529676" fill-rule="evenodd" stroke="none"/>
    </g>
    <g id="shape3" transform="matrix(1.0, 0.0, 0.0, 1.0, -6.8, -23.85)">
      <path d="M122.1 33.9 L121.75 39.2 Q121.75 43.65 122.5 48.5 123.15 52.9 124.1 55.8 124.85 58.05 126.0 63.35 L128.5 75.3 Q129.85 81.75 134.3 85.4 137.65 88.25 143.65 89.95 148.5 91.35 147.45 92.05 L141.65 92.2 Q139.05 91.9 134.75 92.3 L128.1 91.9 Q124.0 90.95 124.6 91.9 125.2 92.85 128.9 93.85 132.3 94.75 129.9 95.15 L120.75 95.45 108.95 93.9 Q101.95 92.65 99.85 93.7 97.7 95.2 103.55 97.4 L113.2 100.5 108.45 100.85 103.4 100.5 79.65 101.95 Q77.15 102.25 71.9 101.8 L64.15 101.45 57.7 102.05 Q53.2 102.3 54.4 101.3 55.0 100.65 59.3 99.3 63.6 97.95 64.35 97.25 64.0 96.35 60.4 96.8 L54.0 97.4 Q42.1 97.3 35.1 97.5 L17.95 98.7 Q16.4 98.1 18.35 97.3 19.4 96.85 21.9 96.1 L25.55 94.7 27.9 92.85 Q28.15 91.1 22.55 90.8 L12.35 91.2 7.0 90.95 Q5.95 90.2 9.95 88.95 L14.1 87.5 Q16.1 86.5 18.35 84.4 20.15 82.65 22.05 78.55 24.0 74.4 25.5 69.1 26.8 64.4 28.0 55.8 L29.9 39.85 30.95 30.4 Q30.85 31.0 30.9 29.5 31.15 24.45 75.55 23.9 97.75 23.65 119.9 24.4 L120.0 24.2 121.25 28.6 Q122.2 32.3 122.1 33.9" fill="url(#gradient5)" fill-rule="evenodd" stroke="none"/>
    </g>
    <linearGradient gradientTransform="matrix(0.0731, 0.0, 0.0, -0.0731, 79.4, 62.95)" gradientUnits="userSpaceOnUse" id="gradient5" spreadMethod="pad" x1="-819.2" x2="819.2">
      <stop offset="0.0" stop-color="#3a3866"/>
      <stop offset="0.07450980392156863" stop-color="#373557"/>
      <stop offset="0.27450980392156865" stop-color="#2f2d36"/>
      <stop offset="0.3803921568627451" stop-color="#2c2a29"/>
      <stop offset="0.4627450980392157" stop-color="#2e2c33"/>
      <stop offset="0.596078431372549" stop-color="#34324e"/>
      <stop offset="0.6980392156862745" stop-color="#3a3866"/>
      <stop offset="1.0" stop-color="#44828c"/>
    </linearGradient>
    <g id="sprite2" transform="matrix(1.0, 0.0, 0.0, 1.0, 0.0, 0.1)">
      <use height="69.0" transform="matrix(1.0, 0.0, 0.0, 1.0, 0.0, -0.1)" width="29.3" xlink:href="#shape4"/>
    </g>
    <g id="shape4" transform="matrix(1.0, 0.0, 0.0, 1.0, 0.0, 0.1)">
      <path d="M28.85 6.3 L26.4 13.4 24.05 19.15 Q21.1 26.35 18.65 39.35 15.75 54.8 12.65 61.4 10.95 64.9 8.85 67.25 L7.1 68.9 3.25 68.35 0.0 68.2 Q1.9 67.15 4.0 64.95 5.95 62.95 7.3 60.75 8.95 58.15 10.1 54.8 L12.35 47.05 14.2 38.9 Q15.15 34.4 16.5 30.95 17.95 27.25 18.4 17.4 18.6 7.75 18.9 3.7 L29.1 2.6 Q29.55 4.1 28.85 6.3 M18.9 3.7 L17.75 3.8 Q16.25 7.0 18.25 1.2 19.35 -2.05 18.95 2.8 L18.9 3.7" fill="url(#gradient6)" fill-rule="evenodd" stroke="none"/>
    </g>
    <linearGradient gradientTransform="matrix(0.033, -0.0059, -0.0059, -0.033, -0.05, 36.8)" gradientUnits="userSpaceOnUse" id="gradient6" spreadMethod="pad" x1="-819.2" x2="819.2">
      <stop offset="0.0" stop-color="#242224"/>
      <stop offset="0.15294117647058825" stop-color="#27252e"/>
      <stop offset="0.41568627450980394" stop-color="#302e49"/>
      <stop offset="0.6470588235294118" stop-color="#3a3866"/>
      <stop offset="1.0" stop-color="#44828c"/>
    </linearGradient>
    <g id="sprite3" transform="matrix(1.0, 0.0, 0.0, 1.0, 0.0, 0.0)">
      <use height="89.2" transform="matrix(1.0, 0.0, 0.0, 1.0, 0.0, 0.0)" width="35.7" xlink:href="#shape5"/>
    </g>
    <g id="shape5" transform="matrix(1.0, 0.0, 0.0, 1.0, 0.0, 0.0)">
      <path d="M26.35 17.55 Q26.75 14.6 27.65 11.7 L30.9 0.25 35.7 0.0 33.4 7.2 Q31.0 15.25 30.6 19.55 L29.65 29.45 Q29.0 35.0 27.65 40.25 26.6 44.3 23.55 53.95 21.05 62.6 21.05 66.6 L20.75 76.6 20.45 83.65 Q20.45 86.35 19.25 88.55 L9.9 89.2 0.0 89.0 Q2.4 87.65 6.55 81.4 11.85 73.45 14.2 64.65 L18.45 47.3 Q20.35 39.0 21.35 36.35 L23.55 31.15 Q24.5 28.7 25.25 24.65 L26.35 17.55" fill="url(#gradient7)" fill-rule="evenodd" stroke="none"/>
    </g>
    <linearGradient gradientTransform="matrix(0.0417, -0.0075, -0.0075, -0.0417, -0.1, 48.9)" gradientUnits="userSpaceOnUse" id="gradient7" spreadMethod="pad" x1="-819.2" x2="819.2">
      <stop offset="0.0" stop-color="#242224"/>
      <stop offset="0.15294117647058825" stop-color="#27252e"/>
      <stop offset="0.41568627450980394" stop-color="#302e49"/>
      <stop offset="0.6470588235294118" stop-color="#3a3866"/>
      <stop offset="1.0" stop-color="#44828c"/>
    </linearGradient>
    <g id="sprite4" transform="matrix(1.0, 0.0, 0.0, 1.0, 0.0, 0.0)">
      <use height="93.85" transform="matrix(1.0, 0.0, 0.0, 1.0, 0.0, 0.0)" width="20.95" xlink:href="#shape6"/>
    </g>
    <g id="shape6" transform="matrix(1.0, 0.0, 0.0, 1.0, 0.0, 0.0)">
      <path d="M17.95 39.3 Q14.25 49.15 10.2 63.2 8.9 67.6 8.8 81.05 L9.0 93.65 Q3.6 94.15 0.0 93.45 L1.5 86.25 Q2.65 80.8 3.0 76.85 3.7 69.3 8.4 54.65 L11.25 45.85 Q12.75 40.8 13.15 37.8 L13.9 27.3 Q14.35 19.6 14.65 18.05 L17.35 0.0 20.95 0.0 Q18.25 12.95 18.25 19.75 18.25 23.2 18.9 30.0 19.2 35.9 17.95 39.3" fill="url(#gradient8)" fill-rule="evenodd" stroke="none"/>
    </g>
    <linearGradient gradientTransform="matrix(0.0304, -0.0055, -0.0055, -0.0304, -2.65, 49.7)" gradientUnits="userSpaceOnUse" id="gradient8" spreadMethod="pad" x1="-819.2" x2="819.2">
      <stop offset="0.0" stop-color="#242224"/>
      <stop offset="0.15294117647058825" stop-color="#27252e"/>
      <stop offset="0.41568627450980394" stop-color="#302e49"/>
      <stop offset="0.6470588235294118" stop-color="#3a3866"/>
      <stop offset="1.0" stop-color="#44828c"/>
    </linearGradient>
    <g id="sprite5" transform="matrix(1.0, 0.0, 0.0, 1.0, 0.1, 0.0)">
      <use height="78.75" transform="matrix(1.0, 0.0, 0.0, 1.0, -0.1, 0.0)" width="22.7" xlink:href="#shape7"/>
    </g>
    <g id="shape7" transform="matrix(1.0, 0.0, 0.0, 1.0, 0.1, 0.0)">
      <path d="M20.3 17.25 Q17.9 23.9 17.5 27.1 17.05 31.15 15.65 36.55 14.15 42.3 12.4 46.35 9.45 53.4 8.85 62.2 8.55 66.6 11.5 78.0 L6.25 77.35 Q0.95 77.05 0.65 78.6 -0.8 79.95 0.6 69.6 2.0 59.0 4.35 53.45 6.85 47.6 9.5 39.75 12.2 31.85 13.3 27.1 14.25 23.15 15.8 18.65 L18.1 12.45 Q19.3 9.05 20.5 0.0 22.3 6.85 22.6 11.25 L20.3 17.25" fill="url(#gradient9)" fill-rule="evenodd" stroke="none"/>
    </g>
    <linearGradient gradientTransform="matrix(0.028, -0.005, -0.005, -0.028, -1.6, 42.15)" gradientUnits="userSpaceOnUse" id="gradient9" spreadMethod="pad" x1="-819.2" x2="819.2">
      <stop offset="0.0" stop-color="#242224"/>
      <stop offset="0.15294117647058825" stop-color="#27252e"/>
      <stop offset="0.41568627450980394" stop-color="#302e49"/>
      <stop offset="0.6470588235294118" stop-color="#3a3866"/>
      <stop offset="1.0" stop-color="#44828c"/>
    </linearGradient>
    <g id="sprite6" transform="matrix(1.0, 0.0, 0.0, 1.0, 0.0, 0.0)">
      <use height="34.2" transform="matrix(1.0, 0.0, 0.0, 1.0, 0.0, 0.0)" width="8.2" xlink:href="#shape8"/>
    </g>
    <g id="shape8" transform="matrix(1.0, 0.0, 0.0, 1.0, 0.0, 0.0)">
      <path d="M3.0 0.0 L6.8 17.35 6.75 21.7 Q6.8 26.6 7.15 29.2 7.55 32.2 8.2 34.2 L3.6 33.55 2.95 33.75 Q2.3 33.55 1.6 32.55 0.25 30.65 0.05 26.85 -0.2 22.6 1.8 13.7 3.0 8.55 3.0 0.0" fill="url(#gradient10)" fill-rule="evenodd" stroke="none"/>
    </g>
    <linearGradient gradientTransform="matrix(0.007, -0.0013, -0.0013, -0.007, -0.5, 18.2)" gradientUnits="userSpaceOnUse" id="gradient10" spreadMethod="pad" x1="-819.2" x2="819.2">
      <stop offset="0.0" stop-color="#242224"/>
      <stop offset="0.15294117647058825" stop-color="#27252e"/>
      <stop offset="0.41568627450980394" stop-color="#302e49"/>
      <stop offset="0.6470588235294118" stop-color="#3a3866"/>
      <stop offset="1.0" stop-color="#44828c"/>
    </linearGradient>
    <g id="shape9" transform="matrix(1.0, 0.0, 0.0, 1.0, -85.3, -28.8)">
      <path d="M95.7 73.55 Q98.0 71.55 98.5 75.1 99.05 78.45 97.7 83.05 96.4 87.7 95.0 88.7 93.45 89.8 92.95 85.15 92.45 80.65 93.45 77.45 94.2 74.95 95.7 73.55" fill="url(#gradient11)" fill-rule="evenodd" stroke="none"/>
      <path d="M106.9 29.45 Q109.95 27.7 111.7 30.7 113.5 33.8 111.6 38.7 109.4 44.35 107.1 46.65 104.5 49.25 103.7 45.3 102.8 41.0 103.75 35.9 104.75 30.65 106.9 29.45" fill="url(#gradient12)" fill-rule="evenodd" stroke="none"/>
      <path d="M105.65 50.85 Q107.25 49.95 106.75 52.8 106.25 55.65 104.45 57.45 102.55 59.4 103.05 55.75 103.55 52.1 105.65 50.85" fill="url(#gradient13)" fill-rule="evenodd" stroke="none"/>
      <path d="M95.4 52.35 Q99.05 50.95 99.1 55.95 99.2 60.75 96.15 66.9 93.95 71.25 91.4 71.1 88.9 70.9 89.05 66.9 89.25 62.4 90.75 58.3 92.55 53.45 95.4 52.35" fill="url(#gradient14)" fill-rule="evenodd" stroke="none"/>
      <path d="M86.75 84.65 Q88.4 82.95 88.85 85.55 89.25 88.15 87.35 90.75 85.4 93.4 85.3 89.9 85.15 86.3 86.75 84.65" fill="url(#gradient15)" fill-rule="evenodd" stroke="none"/>
    </g>
    <linearGradient gradientTransform="matrix(0.0122, -0.0034, -0.0036, -0.0129, 103.3, 78.7)" gradientUnits="userSpaceOnUse" id="gradient11" spreadMethod="pad" x1="-819.2" x2="819.2">
      <stop offset="0.0" stop-color="#3a3866"/>
      <stop offset="1.0" stop-color="#44828c"/>
    </linearGradient>
    <linearGradient gradientTransform="matrix(0.0176, -0.0032, -0.0032, -0.0176, 112.3, 37.3)" gradientUnits="userSpaceOnUse" id="gradient12" spreadMethod="pad" x1="-819.2" x2="819.2">
      <stop offset="0.0" stop-color="#3a3866"/>
      <stop offset="1.0" stop-color="#44828c"/>
    </linearGradient>
    <linearGradient gradientTransform="matrix(0.0072, -0.0013, -0.0013, -0.0072, 106.4, 54.05)" gradientUnits="userSpaceOnUse" id="gradient13" spreadMethod="pad" x1="-819.2" x2="819.2">
      <stop offset="0.0" stop-color="#3a3866"/>
      <stop offset="1.0" stop-color="#44828c"/>
    </linearGradient>
    <linearGradient gradientTransform="matrix(0.015, 7.0E-4, 6.0E-4, -0.0142, 103.2, 62.1)" gradientUnits="userSpaceOnUse" id="gradient14" spreadMethod="pad" x1="-819.2" x2="819.2">
      <stop offset="0.0" stop-color="#3a3866"/>
      <stop offset="1.0" stop-color="#44828c"/>
    </linearGradient>
    <linearGradient gradientTransform="matrix(0.0066, -0.0012, -0.0012, -0.0066, 91.05, 87.2)" gradientUnits="userSpaceOnUse" id="gradient15" spreadMethod="pad" x1="-819.2" x2="819.2">
      <stop offset="0.0" stop-color="#3a3866"/>
      <stop offset="1.0" stop-color="#44828c"/>
    </linearGradient>
    <g id="sprite7" transform="matrix(1.0, 0.0, 0.0, 1.0, 0.0, 0.0)">
      <use height="17.15" transform="matrix(1.0, 0.0, 0.0, 1.0, 0.0, 0.0)" width="7.7" xlink:href="#shape10"/>
    </g>
    <g id="shape10" transform="matrix(1.0, 0.0, 0.0, 1.0, 0.0, 0.0)">
      <path d="M3.35 0.95 Q5.55 -0.75 6.7 0.65 7.75 1.9 7.7 5.1 7.55 12.7 3.9 16.35 L1.2 16.4 Q0.2 15.0 0.05 11.8 -0.35 3.85 3.35 0.95" fill="url(#gradient16)" fill-rule="evenodd" stroke="none"/>
    </g>
    <linearGradient gradientTransform="matrix(0.0138, -0.0025, -0.0025, -0.0138, 12.35, 7.05)" gradientUnits="userSpaceOnUse" id="gradient16" spreadMethod="pad" x1="-819.2" x2="819.2">
      <stop offset="0.0" stop-color="#3a3866"/>
      <stop offset="1.0" stop-color="#44828c"/>
    </linearGradient>
    <g id="sprite8" transform="matrix(1.0, 0.0, 0.0, 1.0, 0.15, 0.0)">
      <use height="13.6" transform="matrix(1.0, 0.0, 0.0, 1.0, -0.15, 0.0)" width="6.6" xlink:href="#shape11"/>
    </g>
    <g id="shape11" transform="matrix(1.0, 0.0, 0.0, 1.0, 0.15, 0.0)">
      <path d="M1.1 3.4 Q2.5 0.65 3.9 0.1 5.15 -0.35 5.85 1.1 7.55 4.65 4.55 10.5 1.75 16.0 0.4 11.75 -0.95 7.5 1.1 3.4" fill="url(#gradient17)" fill-rule="evenodd" stroke="none"/>
    </g>
    <linearGradient gradientTransform="matrix(0.0133, -0.0062, -0.0062, -0.0133, 11.3, 2.9)" gradientUnits="userSpaceOnUse" id="gradient17" spreadMethod="pad" x1="-819.2" x2="819.2">
      <stop offset="0.0" stop-color="#3a3866"/>
      <stop offset="1.0" stop-color="#44828c"/>
    </linearGradient>
    <g id="sprite9" transform="matrix(1.0, 0.0, 0.0, 1.0, 0.1, 0.05)">
      <use height="14.55" transform="matrix(1.0, 0.0, 0.0, 1.0, -0.1, -0.05)" width="5.05" xlink:href="#shape12"/>
    </g>
    <g id="shape12" transform="matrix(1.0, 0.0, 0.0, 1.0, 0.1, 0.05)">
      <path d="M3.4 0.25 Q4.25 0.9 4.65 2.95 5.7 7.9 3.35 12.8 2.2 15.2 1.25 14.25 0.45 13.45 0.15 10.6 -0.7 3.4 1.45 0.75 2.45 -0.5 3.4 0.25" fill="url(#gradient18)" fill-rule="evenodd" stroke="none"/>
    </g>
    <linearGradient gradientTransform="matrix(0.0089, -0.0016, -0.0016, -0.0089, 7.9, 6.25)" gradientUnits="userSpaceOnUse" id="gradient18" spreadMethod="pad" x1="-819.2" x2="819.2">
      <stop offset="0.0" stop-color="#3a3866"/>
      <stop offset="1.0" stop-color="#44828c"/>
    </linearGradient>
    <g id="sprite10" transform="matrix(1.0, 0.0, 0.0, 1.0, 0.0, 0.0)">
      <use height="26.9" transform="matrix(1.0, 0.0, 0.0, 1.0, 0.0, 0.0)" width="13.8" xlink:href="#shape13"/>
    </g>
    <g id="shape13" transform="matrix(1.0, 0.0, 0.0, 1.0, 0.0, 0.0)">
      <path d="M5.4 4.55 Q6.85 3.7 7.85 4.7 8.9 1.25 11.0 0.25 13.25 -0.75 13.7 2.4 14.15 5.35 12.9 8.5 11.45 12.25 9.3 12.25 9.15 16.5 8.1 19.95 5.95 27.15 2.8 26.9 -0.25 26.7 0.0 20.65 0.25 14.8 1.65 10.5 3.1 5.95 5.4 4.55" fill="url(#gradient19)" fill-rule="evenodd" stroke="none"/>
    </g>
    <linearGradient gradientTransform="matrix(0.026, -0.0047, -0.0047, -0.026, 22.85, 10.7)" gradientUnits="userSpaceOnUse" id="gradient19" spreadMethod="pad" x1="-819.2" x2="819.2">
      <stop offset="0.0" stop-color="#3a3866"/>
      <stop offset="1.0" stop-color="#44828c"/>
    </linearGradient>
    <g id="sprite11" transform="matrix(1.0, 0.0, 0.0, 1.0, 0.05, 0.1)">
      <use height="6.0" transform="matrix(1.0, 0.0, 0.0, 1.0, -0.05, -0.1)" width="3.1" xlink:href="#shape14"/>
    </g>
    <g id="shape14" transform="matrix(1.0, 0.0, 0.0, 1.0, 0.05, 0.1)">
      <path d="M2.9 0.65 Q3.45 2.2 1.95 4.7 0.5 7.15 0.1 4.6 -0.35 2.05 0.8 0.8 2.4 -0.9 2.9 0.65" fill="url(#gradient20)" fill-rule="evenodd" stroke="none"/>
    </g>
    <linearGradient gradientTransform="matrix(0.0053, -0.001, -0.001, -0.0053, 4.8, 2.3)" gradientUnits="userSpaceOnUse" id="gradient20" spreadMethod="pad" x1="-819.2" x2="819.2">
      <stop offset="0.0" stop-color="#3a3866"/>
      <stop offset="1.0" stop-color="#44828c"/>
    </linearGradient>
    <g id="sprite12" transform="matrix(1.0, 0.0, 0.0, 1.0, 0.1, 0.1)">
      <use height="14.45" transform="matrix(1.0, 0.0, 0.0, 1.0, -0.1, -0.1)" width="9.05" xlink:href="#shape15"/>
    </g>
    <g id="shape15" transform="matrix(1.0, 0.0, 0.0, 1.0, 0.1, 0.1)">
      <path d="M6.55 6.4 Q2.15 14.75 0.5 14.35 -1.1 13.95 1.7 8.0 4.5 2.0 7.3 0.35 10.9 -1.75 6.55 6.4" fill="url(#gradient21)" fill-rule="evenodd" stroke="none"/>
    </g>
    <linearGradient gradientTransform="matrix(0.0166, -0.003, -0.003, -0.0166, 14.5, 5.35)" gradientUnits="userSpaceOnUse" id="gradient21" spreadMethod="pad" x1="-819.2" x2="819.2">
      <stop offset="0.0" stop-color="#3a3866"/>
      <stop offset="1.0" stop-color="#44828c"/>
    </linearGradient>
    <g id="shape16" transform="matrix(1.0, 0.0, 0.0, 1.0, -23.25, -33.1)">
      <path d="M117.2 68.45 Q119.8 67.3 120.95 69.0 122.0 70.5 121.65 73.65 121.35 76.6 120.0 79.25 118.55 82.1 116.65 82.85 114.8 83.6 113.8 81.8 112.9 80.2 113.0 77.3 113.3 70.2 117.2 68.45" fill="url(#gradient22)" fill-rule="evenodd" stroke="none"/>
      <path d="M118.9 60.6 Q117.45 62.95 116.45 62.5 115.6 62.15 115.45 59.9 115.0 54.35 117.75 50.0 119.25 47.7 120.3 47.95 121.25 48.25 121.5 50.4 122.05 55.7 118.9 60.6" fill="url(#gradient23)" fill-rule="evenodd" stroke="none"/>
      <path d="M35.8 33.6 Q37.8 31.2 37.05 40.25 36.3 49.3 34.3 51.15 32.3 53.05 32.9 44.65 33.55 36.25 35.8 33.6" fill="url(#gradient24)" fill-rule="evenodd" stroke="none"/>
      <path d="M31.05 54.95 Q32.8 53.0 32.4 57.0 32.05 60.9 30.35 64.95 29.55 66.85 29.1 66.1 28.65 65.5 28.7 63.25 28.8 57.45 31.05 54.95" fill="url(#gradient25)" fill-rule="evenodd" stroke="none"/>
      <path d="M26.05 76.4 Q27.65 75.0 27.3 77.35 26.9 79.7 24.9 81.95 22.8 84.35 23.4 81.2 24.05 78.1 26.05 76.4" fill="url(#gradient26)" fill-rule="evenodd" stroke="none"/>
    </g>
    <linearGradient gradientTransform="matrix(0.0161, -0.0029, -0.0029, -0.0161, 113.5, 76.2)" gradientUnits="userSpaceOnUse" id="gradient22" spreadMethod="pad" x1="-819.2" x2="819.2">
      <stop offset="0.0" stop-color="#3a3866"/>
      <stop offset="1.0" stop-color="#44828c"/>
    </linearGradient>
    <linearGradient gradientTransform="matrix(0.0125, -0.0022, -0.0022, -0.0125, 115.4, 55.8)" gradientUnits="userSpaceOnUse" id="gradient23" spreadMethod="pad" x1="-819.2" x2="819.2">
      <stop offset="0.0" stop-color="#3a3866"/>
      <stop offset="1.0" stop-color="#44828c"/>
    </linearGradient>
    <linearGradient gradientTransform="matrix(-0.0098, -0.0025, -0.0025, 0.0098, 31.8, 41.45)" gradientUnits="userSpaceOnUse" id="gradient24" spreadMethod="pad" x1="-819.2" x2="819.2">
      <stop offset="0.0" stop-color="#3a3866"/>
      <stop offset="1.0" stop-color="#44828c"/>
    </linearGradient>
    <linearGradient gradientTransform="matrix(-0.0091, -0.0019, -0.0019, 0.0091, 26.1, 59.4)" gradientUnits="userSpaceOnUse" id="gradient25" spreadMethod="pad" x1="-819.2" x2="819.2">
      <stop offset="0.0" stop-color="#3a3866"/>
      <stop offset="1.0" stop-color="#44828c"/>
    </linearGradient>
    <linearGradient gradientTransform="matrix(-0.0102, -0.0019, -0.0019, 0.0102, 20.5, 78.5)" gradientUnits="userSpaceOnUse" id="gradient26" spreadMethod="pad" x1="-819.2" x2="819.2">
      <stop offset="0.0" stop-color="#3a3866"/>
      <stop offset="1.0" stop-color="#44828c"/>
    </linearGradient>
    <g id="sprite13" transform="matrix(1.0, 0.0, 0.0, 1.0, 0.0, 0.0)">
      <use height="50.15" transform="matrix(1.0, 0.0, 0.0, 1.0, 0.0, 0.0)" width="94.8" xlink:href="#shape17"/>
    </g>
    <g id="shape17" transform="matrix(1.0, 0.0, 0.0, 1.0, 0.0, 0.0)">
      <path d="M84.9 46.85 Q84.25 45.35 83.4 44.9 82.15 44.25 79.85 45.55 L76.7 47.7 Q73.6 49.75 71.55 49.8 72.25 49.75 73.1 49.1 L74.2 47.9 71.15 48.2 68.0 48.15 Q64.65 47.6 61.15 45.6 52.8 40.7 47.7 43.15 49.65 42.1 52.25 41.9 L49.05 41.9 45.9 42.4 Q45.1 42.7 43.4 44.05 41.8 45.25 40.7 45.45 39.55 45.65 37.95 44.95 36.2 44.0 35.3 43.7 L32.75 43.85 30.3 45.0 Q29.1 45.55 27.9 47.05 L25.9 49.4 Q24.9 50.35 23.3 50.1 L20.2 49.1 Q18.5 48.2 17.45 47.95 L14.65 47.5 Q14.8 48.2 15.5 48.6 L16.95 48.95 15.85 49.55 13.05 49.4 6.3 47.05 Q1.95 45.65 0.0 47.3 L0.7 41.8 1.0 38.25 0.8 34.5 Q0.7 32.6 1.1 32.35 1.6 31.95 1.8 30.15 2.5 24.15 7.1 17.4 10.5 12.4 15.0 8.5 19.6 4.5 27.95 2.05 36.0 -0.35 42.7 0.05 57.65 1.0 77.85 11.8 86.45 16.4 90.55 25.35 93.45 31.75 94.8 42.75 94.15 43.2 93.2 44.75 L91.6 47.3 Q90.65 48.65 88.6 48.3 86.55 47.95 86.0 46.55 85.8 47.1 85.75 47.85 85.75 48.65 86.05 49.05 L84.9 46.85" fill="url(#gradient27)" fill-rule="evenodd" stroke="none"/>
    </g>
    <linearGradient gradientTransform="matrix(6.0E-4, -0.0268, -0.0268, -6.0E-4, 47.85, 26.9)" gradientUnits="userSpaceOnUse" id="gradient27" spreadMethod="pad" x1="-819.2" x2="819.2">
      <stop offset="0.0" stop-color="#242224"/>
      <stop offset="0.15294117647058825" stop-color="#27252e"/>
      <stop offset="0.41568627450980394" stop-color="#302e49"/>
      <stop offset="0.6470588235294118" stop-color="#3a3866"/>
      <stop offset="1.0" stop-color="#44828c"/>
    </linearGradient>
    <g id="shape18" transform="matrix(1.0, 0.0, 0.0, 1.0, -14.0, 0.0)">
      <path d="M123.8 45.75 Q122.7 44.2 120.75 45.45 L118.05 47.85 119.2 46.15 Q119.9 45.05 120.0 44.25 118.75 46.0 116.45 46.5 113.9 47.1 113.05 44.85 112.8 45.4 112.8 46.1 112.8 46.8 113.05 47.2 L112.0 45.15 Q111.35 43.65 110.5 43.2 109.25 42.55 107.0 43.85 L103.9 46.0 Q100.8 48.0 98.85 48.1 99.55 48.05 100.4 47.4 L101.45 46.2 98.8 46.4 96.2 46.5 94.7 46.3 Q94.0 46.3 93.25 46.75 92.05 47.45 91.1 49.0 90.15 50.6 90.25 51.8 90.0 49.85 90.55 48.3 L91.15 46.8 Q91.5 45.7 90.9 45.4 90.3 45.1 89.55 45.9 89.05 46.45 88.8 47.1 88.25 48.6 88.25 50.35 88.3 52.2 88.95 53.55 88.2 52.4 87.95 50.7 L87.5 46.45 Q87.15 43.85 85.7 42.6 83.8 40.9 80.45 40.65 77.45 40.45 75.4 41.4 77.45 40.35 79.9 40.15 L75.75 40.6 71.7 41.3 68.05 40.8 Q65.3 40.5 64.9 41.8 64.75 42.35 65.3 42.65 L66.5 42.8 62.25 42.55 58.1 42.3 Q56.7 42.85 55.65 44.05 L53.8 46.25 Q51.45 48.6 48.45 47.4 46.75 46.45 45.7 46.2 L44.35 46.05 42.95 45.8 Q43.35 47.25 45.25 47.25 L42.4 47.1 35.25 46.5 Q31.15 46.95 29.35 49.7 30.45 47.8 30.65 46.8 25.9 50.75 25.95 49.0 25.85 50.35 26.8 51.35 25.7 50.25 25.4 48.75 L24.65 45.35 Q23.95 46.0 23.8 47.15 23.7 48.2 24.05 49.15 23.5 48.1 23.5 46.9 L23.7 44.9 Q23.85 43.55 23.5 42.95 22.7 41.65 22.1 42.7 21.45 43.75 22.45 44.65 20.15 42.65 19.25 40.55 16.6 34.1 23.1 27.3 28.05 22.1 36.65 18.05 38.75 17.0 41.55 16.0 57.25 10.5 78.35 13.0 L95.25 15.25 Q105.25 17.1 111.3 20.45 115.15 22.6 119.1 28.05 124.05 34.8 126.05 36.65 128.65 39.0 129.55 42.45 130.65 46.35 128.25 48.4 126.8 49.7 126.3 52.65 L126.2 55.75 126.0 53.55 Q125.9 52.2 126.05 51.3 L126.2 48.95 Q126.05 47.15 124.95 47.7 124.55 47.9 124.3 49.5 124.1 50.9 124.25 51.4 124.0 50.6 124.25 48.55 124.45 46.65 123.8 45.75" fill="url(#gradient28)" fill-rule="evenodd" stroke="none"/>
      <path d="M135.95 35.15 Q132.85 40.15 132.1 41.85 L130.7 45.75 Q129.6 48.05 127.6 48.1 125.5 48.15 125.55 44.55 125.6 43.15 125.0 42.95 124.2 42.65 121.85 44.1 122.7 43.55 122.9 42.85 123.15 42.05 121.95 41.85 121.0 41.7 119.95 42.75 L118.2 44.25 Q116.75 44.95 115.3 43.95 114.05 43.05 113.5 41.5 113.25 42.0 113.25 42.75 113.2 43.4 113.45 43.8 L112.45 41.8 Q111.8 40.3 110.95 39.85 109.7 39.2 107.45 40.5 L104.35 42.65 Q101.25 44.65 99.25 44.75 99.95 44.7 100.8 44.05 101.6 43.45 101.85 42.85 L99.4 43.15 96.5 43.1 93.65 43.0 Q92.05 43.05 90.95 43.6 91.5 42.9 92.3 42.35 L90.75 42.05 Q89.85 42.15 89.6 42.85 89.95 41.15 89.2 41.7 88.45 42.2 88.5 43.5 L88.15 41.6 Q87.95 40.4 87.45 39.8 86.95 39.2 85.85 38.75 L83.95 38.15 76.15 37.95 Q78.0 37.1 80.35 36.8 L74.1 37.35 71.5 38.65 Q69.95 39.5 68.8 39.65 L66.2 39.5 63.7 38.6 Q61.25 37.75 58.15 39.3 56.95 39.85 56.0 40.95 L54.25 42.95 Q51.9 45.2 48.85 44.05 47.2 43.1 46.15 42.9 L44.75 42.7 43.4 42.45 Q43.6 43.15 44.25 43.55 L45.6 43.9 42.85 43.75 36.95 42.8 Q33.55 42.7 31.5 44.5 32.3 42.95 33.8 42.55 32.65 42.5 31.6 42.9 30.5 43.35 29.85 44.15 L28.85 45.9 Q28.2 46.85 27.1 46.75 26.0 46.7 25.25 45.05 24.4 43.1 23.85 42.75 23.35 42.4 22.55 42.35 L21.15 42.2 Q19.9 41.9 18.85 40.45 12.15 30.15 14.7 20.3 17.35 9.9 28.8 7.45 L30.85 7.1 Q38.2 6.15 44.35 6.95 L52.55 7.95 60.75 7.5 68.1 5.45 Q72.6 4.1 75.6 3.8 L86.75 1.65 Q93.8 0.05 97.95 0.0 113.2 -0.3 126.2 6.0 142.8 14.05 139.2 28.3 138.5 31.05 135.95 35.15" fill="url(#gradient29)" fill-rule="evenodd" stroke="none"/>
    </g>
    <linearGradient gradientTransform="matrix(5.0E-4, -0.0224, -0.0224, -5.0E-4, 74.35, 34.7)" gradientUnits="userSpaceOnUse" id="gradient28" spreadMethod="pad" x1="-819.2" x2="819.2">
      <stop offset="0.0" stop-color="#00263d"/>
      <stop offset="0.5450980392156862" stop-color="#00562e"/>
      <stop offset="1.0" stop-color="#599d4a"/>
    </linearGradient>
    <linearGradient gradientTransform="matrix(6.0E-4, -0.0258, -0.0258, -6.0E-4, 76.95, 25.1)" gradientUnits="userSpaceOnUse" id="gradient29" spreadMethod="pad" x1="-819.2" x2="819.2">
      <stop offset="0.0" stop-color="#043842"/>
      <stop offset="0.3686274509803922" stop-color="#167040"/>
      <stop offset="1.0" stop-color="#82d671"/>
    </linearGradient>
    <g id="sprite14" transform="matrix(1.0, 0.0, 0.0, 1.0, 0.0, 0.0)">
      <use height="15.65" transform="matrix(1.0, 0.0, 0.0, 1.0, 0.0, 0.0)" width="71.4" xlink:href="#shape19"/>
    </g>
    <g id="shape19" transform="matrix(1.0, 0.0, 0.0, 1.0, 0.0, 0.0)">
      <path d="M50.7 3.7 Q54.35 6.35 51.4 9.3 48.5 12.1 59.4 11.3 64.85 10.95 68.7 12.15 70.6 12.75 71.4 13.45 67.95 12.3 61.95 13.4 52.25 15.2 47.9 15.5 37.6 16.15 31.5 14.15 25.8 12.2 28.65 10.05 30.85 8.4 34.6 7.5 L37.9 6.95 Q35.0 7.45 34.85 9.05 34.75 10.75 38.25 10.7 44.15 10.55 46.25 8.3 48.3 6.1 44.9 4.3 42.0 2.8 36.45 3.2 32.95 3.5 27.05 4.75 L15.8 6.75 Q9.65 7.5 4.4 7.05 L0.6 6.55 Q-1.05 6.05 1.95 5.15 12.2 3.4 17.75 1.75 L23.85 0.55 28.5 0.0 Q18.1 3.25 12.0 4.0 19.3 4.65 26.4 3.1 34.85 1.2 37.95 1.1 46.75 0.8 50.7 3.7" fill="#64c671" fill-rule="evenodd" stroke="none"/>
    </g>
    <g id="sprite15" transform="matrix(1.0, 0.0, 0.0, 1.0, 0.0, 0.05)">
      <use height="2.0" transform="matrix(1.0, 0.0, 0.0, 1.0, 0.0, -0.05)" width="9.25" xlink:href="#shape20"/>
    </g>
    <g id="shape20" transform="matrix(1.0, 0.0, 0.0, 1.0, 0.0, 0.05)">
      <path d="M9.25 1.0 Q5.3 2.05 1.9 1.95 -0.4 1.85 0.1 1.1 0.55 0.35 2.15 0.05 4.65 -0.4 9.25 1.0" fill="#64c671" fill-rule="evenodd" stroke="none"/>
    </g>
    <g id="sprite16" transform="matrix(1.0, 0.0, 0.0, 1.0, 0.0, 0.0)">
      <use height="11.95" transform="matrix(1.0, 0.0, 0.0, 1.0, 0.0, 0.0)" width="55.0" xlink:href="#shape21"/>
    </g>
    <g id="shape21" transform="matrix(1.0, 0.0, 0.0, 1.0, 0.0, 0.0)">
      <path d="M42.8 8.9 Q33.45 11.6 26.0 11.9 20.95 12.15 17.0 10.45 12.25 8.45 14.55 5.15 L14.3 6.7 Q14.65 8.45 17.85 9.25 L25.45 9.6 29.25 9.0 25.4 8.5 Q21.2 7.7 19.55 6.3 17.3 4.4 11.1 3.35 L0.0 3.65 Q4.65 0.5 11.95 0.05 17.35 -0.25 22.7 0.95 21.7 0.75 21.7 2.25 21.65 3.65 22.2 4.45 22.7 5.25 24.1 5.7 L26.4 6.2 Q30.45 7.15 36.75 7.35 L45.5 6.45 Q51.95 6.0 55.0 8.55 54.25 8.0 52.5 7.75 48.7 7.15 42.8 8.9" fill="#64c671" fill-rule="evenodd" stroke="none"/>
    </g>
    <g id="sprite17" transform="matrix(1.0, 0.0, 0.0, 1.0, 0.0, 0.0)">
      <use height="3.15" transform="matrix(1.0, 0.0, 0.0, 1.0, 0.0, 0.0)" width="13.4" xlink:href="#shape22"/>
    </g>
    <g id="shape22" transform="matrix(1.0, 0.0, 0.0, 1.0, 0.0, 0.0)">
      <path d="M0.0 0.0 L3.75 1.25 Q8.45 2.35 13.4 1.85 10.6 2.85 7.55 3.1 1.4 3.65 0.0 0.0" fill="#64c671" fill-rule="evenodd" stroke="none"/>
    </g>
    <g id="sprite18" transform="matrix(1.0, 0.0, 0.0, 1.0, 0.0, 0.05)">
      <use height="24.05" transform="matrix(1.0, 0.0, 0.0, 1.0, 0.0, -0.05)" width="78.05" xlink:href="#shape23"/>
    </g>
    <g id="shape23" transform="matrix(1.0, 0.0, 0.0, 1.0, 0.0, 0.05)">
      <path d="M68.15 10.6 Q60.35 9.3 52.7 11.95 44.8 14.65 46.9 18.5 48.7 21.9 53.65 23.15 L58.2 23.75 53.0 24.0 Q47.05 23.85 43.6 21.8 38.75 18.4 36.4 17.2 32.5 15.25 27.75 16.2 1.15 21.5 0.1 11.5 -0.25 8.35 0.65 6.2 2.15 2.45 7.25 0.65 13.2 -1.45 17.95 2.65 19.9 4.35 20.35 6.3 20.8 8.4 19.35 9.9 16.3 12.95 9.65 12.55 3.0 12.15 3.5 8.95 3.95 6.5 7.7 6.35 L11.35 6.65 8.55 6.9 Q5.85 7.4 6.05 8.65 6.35 10.15 9.55 10.35 12.75 10.55 15.3 9.2 17.9 7.8 15.35 5.7 12.75 3.6 8.7 4.2 4.55 4.8 2.25 7.7 -0.1 10.55 1.8 12.7 4.35 15.5 10.1 15.15 14.6 14.85 19.9 12.8 24.9 10.9 31.85 8.95 39.9 6.75 45.05 6.15 41.75 7.05 38.5 8.25 32.0 10.65 32.35 12.1 32.7 13.7 34.2 13.6 35.2 13.5 38.25 12.25 58.95 3.7 72.35 9.2 81.55 12.95 75.95 17.15 70.7 21.1 61.2 20.6 52.75 20.2 52.4 16.9 52.0 13.6 59.9 12.7 66.35 12.0 70.3 12.65 72.25 13.0 72.9 13.5 L67.95 13.15 Q62.6 13.1 60.8 14.8 58.65 16.85 61.9 17.85 65.15 18.85 70.25 17.7 75.75 16.5 75.5 14.2 75.3 11.8 68.15 10.6" fill="#64c671" fill-rule="evenodd" stroke="none"/>
    </g>
    <g id="sprite19" transform="matrix(1.0, 0.0, 0.0, 1.0, 0.0, 0.0)">
      <use height="6.4" transform="matrix(1.0, 0.0, 0.0, 1.0, 0.0, 0.0)" width="37.15" xlink:href="#shape24"/>
    </g>
    <g id="shape24" transform="matrix(1.0, 0.0, 0.0, 1.0, 0.0, 0.0)">
      <path d="M35.85 4.6 L37.15 5.9 Q35.8 4.85 33.8 3.85 29.85 1.9 26.9 2.25 L17.55 4.75 Q10.65 6.7 6.95 6.35 3.0 6.0 1.1 4.05 0.15 3.05 0.0 2.15 1.2 2.85 3.5 3.2 8.05 3.85 13.4 2.05 16.3 1.1 19.85 0.5 27.0 -0.7 30.45 1.1 33.9 2.9 35.85 4.6" fill="#64c671" fill-rule="evenodd" stroke="none"/>
    </g>
    <g id="sprite20" transform="matrix(1.0, 0.0, 0.0, 1.0, 0.0, 0.0)">
      <use height="5.8" transform="matrix(1.0, 0.0, 0.0, 1.0, 0.0, 0.0)" width="4.6" xlink:href="#shape25"/>
    </g>
    <g id="shape25" transform="matrix(1.0, 0.0, 0.0, 1.0, 0.0, 0.0)">
      <path d="M2.2 0.0 Q6.25 3.35 3.5 4.9 2.15 5.7 0.0 5.8 2.7 4.6 2.7 2.15 2.75 0.95 2.2 0.0" fill="#64c671" fill-rule="evenodd" stroke="none"/>
    </g>
    <g id="sprite21" transform="matrix(1.0, 0.0, 0.0, 1.0, 0.0, 0.0)">
      <use height="11.55" transform="matrix(1.0, 0.0, 0.0, 1.0, 0.0, 0.0)" width="11.85" xlink:href="#shape26"/>
    </g>
    <g id="shape26" transform="matrix(1.0, 0.0, 0.0, 1.0, 0.0, 0.0)">
      <path d="M3.8 0.0 Q6.35 0.55 8.55 1.75 13.0 4.2 11.45 7.55 9.9 10.95 4.8 11.45 L0.0 11.3 Q9.2 9.4 7.4 4.5 6.55 2.05 3.8 0.0" fill="#64c671" fill-rule="evenodd" stroke="none"/>
    </g>
    <g id="sprite22" transform="matrix(1.0, 0.0, 0.0, 1.0, 0.0, 0.05)">
      <use height="12.7" transform="matrix(1.0, 0.0, 0.0, 1.0, 0.0, -0.05)" width="31.35" xlink:href="#shape27"/>
    </g>
    <g id="shape27" transform="matrix(1.0, 0.0, 0.0, 1.0, 0.0, 0.05)">
      <path d="M24.0 0.4 Q26.5 0.85 27.9 1.45 21.85 0.7 18.05 3.9 15.7 5.95 13.05 6.2 L10.85 6.0 Q12.65 5.7 13.7 5.2 15.05 4.55 14.5 3.9 13.75 3.05 9.5 3.8 5.1 4.6 5.2 6.25 5.3 8.15 8.9 8.15 12.65 8.2 17.25 6.15 21.2 4.4 26.0 3.8 L30.0 3.55 Q31.65 6.25 31.25 9.75 31.05 11.45 30.5 12.65 29.6 11.0 26.6 10.25 23.15 9.4 18.6 10.35 12.55 11.55 7.35 10.45 2.25 9.35 0.35 6.6 -1.25 4.25 4.2 2.45 7.25 1.45 13.6 0.4 19.0 -0.45 24.0 0.4" fill="#64c671" fill-rule="evenodd" stroke="none"/>
    </g>
    <g id="sprite23" transform="matrix(1.0, 0.0, 0.0, 1.0, 0.1, 0.05)">
      <use height="2.5" transform="matrix(1.0, 0.0, 0.0, 1.0, -0.1, -0.05)" width="6.75" xlink:href="#shape28"/>
    </g>
    <g id="shape28" transform="matrix(1.0, 0.0, 0.0, 1.0, 0.1, 0.05)">
      <path d="M3.95 0.05 Q7.85 0.7 6.1 1.75 4.35 2.8 1.45 2.25 -1.05 1.75 0.5 0.75 2.0 -0.3 3.95 0.05" fill="#64c671" fill-rule="evenodd" stroke="none"/>
    </g>
    <g id="sprite24" transform="matrix(1.0, 0.0, 0.0, 1.0, 0.05, 0.0)">
      <use height="10.7" transform="matrix(1.0, 0.0, 0.0, 1.0, -0.05, 0.0)" width="30.45" xlink:href="#shape29"/>
    </g>
    <g id="shape29" transform="matrix(1.0, 0.0, 0.0, 1.0, 0.05, 0.0)">
      <path d="M30.4 4.55 L25.8 10.7 18.2 7.8 Q15.4 6.75 13.25 7.0 L8.35 8.05 1.95 8.3 Q-1.2 7.8 0.65 6.15 4.25 2.95 12.85 1.15 17.8 0.1 21.5 0.0 19.35 0.3 17.75 0.9 14.6 2.05 17.45 3.6 20.05 5.0 25.95 4.5 30.7 4.1 30.4 4.55" fill="#64c671" fill-rule="evenodd" stroke="none"/>
    </g>
    <g id="shape30" transform="matrix(1.0, 0.0, 0.0, 1.0, -30.2, -40.4)">
      <path d="M30.2 97.7 Q32.8 93.75 34.9 88.2 39.05 77.05 36.5 69.05 L37.35 70.9 Q38.25 73.4 38.6 76.4 39.8 86.05 35.15 97.5 L30.2 97.7" fill="url(#gradient30)" fill-rule="evenodd" stroke="none"/>
      <path d="M102.65 93.3 Q105.0 90.55 106.7 86.75 110.15 79.2 107.15 74.05 L107.9 75.15 Q108.7 76.65 109.05 78.65 110.2 84.9 106.55 93.45 L102.65 93.3" fill="url(#gradient31)" fill-rule="evenodd" stroke="none"/>
      <path d="M43.75 97.25 L38.15 97.4 Q39.5 92.5 40.6 84.8 42.75 69.35 41.4 55.15 L43.8 68.75 Q45.8 84.85 43.75 97.25" fill="url(#gradient32)" fill-rule="evenodd" stroke="none"/>
      <path d="M103.9 93.3 L100.15 93.45 Q98.7 81.05 100.1 64.95 L101.75 51.35 Q100.85 65.55 102.3 80.85 103.0 88.5 103.9 93.3" fill="url(#gradient33)" fill-rule="evenodd" stroke="none"/>
      <path d="M110.15 61.45 Q106.0 72.2 104.95 83.1 104.35 89.5 104.85 93.35 L101.75 93.35 Q102.35 81.95 107.05 68.75 L110.15 61.45" fill="url(#gradient34)" fill-rule="evenodd" stroke="none"/>
      <path d="M43.35 97.3 Q42.85 88.45 44.2 76.9 46.95 53.85 56.25 40.4 52.7 46.15 50.05 56.15 44.75 76.15 49.35 97.25 L43.35 97.3" fill="url(#gradient35)" fill-rule="evenodd" stroke="none"/>
      <path d="M92.35 80.1 Q95.05 75.95 97.25 74.7 91.25 80.0 89.65 91.95 88.8 97.95 89.2 102.9 L85.7 103.15 84.6 103.0 Q87.0 88.45 92.35 80.1" fill="url(#gradient36)" fill-rule="evenodd" stroke="none"/>
      <path d="M69.85 84.45 Q74.75 90.55 77.45 102.75 L73.2 102.5 Q73.3 98.4 72.4 93.6 70.6 84.05 65.55 80.8 L66.8 81.5 Q68.35 82.55 69.85 84.45" fill="url(#gradient37)" fill-rule="evenodd" stroke="none"/>
      <path d="M86.5 83.65 L87.8 81.85 Q89.4 80.15 91.2 80.7 90.45 80.5 89.35 81.3 87.15 82.95 85.5 88.05 L86.5 83.65" fill="url(#gradient38)" fill-rule="evenodd" stroke="none"/>
      <path d="M76.4 89.45 L75.4 98.25 Q75.2 96.7 75.4 94.4 L75.35 91.3 Q74.8 87.8 72.95 86.4 L71.2 85.65 Q73.8 85.6 75.35 87.55 76.15 88.5 76.4 89.45" fill="url(#gradient39)" fill-rule="evenodd" stroke="none"/>
      <path d="M83.95 74.0 L81.6 78.45 82.4 76.4 83.0 74.75 Q83.45 72.8 82.75 71.65 L82.0 70.9 Q83.4 71.45 83.8 72.75 L83.95 74.0" fill="url(#gradient40)" fill-rule="evenodd" stroke="none"/>
      <path d="M86.1 87.05 Q84.0 95.35 86.0 103.3 L80.65 103.75 76.85 103.55 75.6 103.3 Q74.85 99.2 75.5 93.8 76.6 84.65 81.55 77.65 89.55 66.35 86.55 59.85 L86.95 62.05 Q86.8 64.75 84.35 67.05 81.55 69.7 77.6 68.15 73.2 66.45 72.35 60.25 71.4 53.1 77.1 49.7 82.7 46.35 87.95 50.25 92.4 53.55 92.85 60.8 93.25 67.4 90.35 75.25 L86.1 87.05" fill="url(#gradient41)" fill-rule="evenodd" stroke="none"/>
      <path d="M90.75 56.75 Q89.55 53.0 86.7 51.6 84.65 50.55 81.85 50.85 79.2 51.1 77.05 53.75 74.85 56.35 74.75 59.45 74.65 61.35 75.35 63.05 76.15 65.05 77.75 66.05 79.8 67.35 81.7 67.0 83.6 66.6 84.9 64.7 86.05 63.0 85.95 60.35 85.85 57.9 84.85 56.5 84.0 55.25 82.5 55.25 81.1 55.2 80.25 56.3 79.35 57.4 79.45 59.4 79.55 61.4 80.7 62.0 81.85 62.55 82.45 61.65 83.0 60.8 82.55 59.8 L83.0 60.6 Q83.35 61.6 82.75 62.3 81.75 63.6 80.1 62.8 78.3 62.0 78.15 59.4 78.0 56.7 79.6 55.15 81.05 53.7 82.95 54.0 84.85 54.3 86.05 56.35 87.35 58.55 87.1 61.45 86.85 64.35 85.3 66.25 83.85 67.95 81.85 68.45 L79.1 68.55 Q77.25 68.3 75.85 67.3 L75.65 67.15 Q74.6 66.4 73.8 65.15 72.0 62.4 72.2 58.55 72.35 54.9 74.15 52.3 76.2 49.3 79.8 48.45 83.25 47.65 86.55 49.2 89.65 50.6 91.3 54.0 93.25 58.15 92.75 64.7 92.3 70.65 90.15 76.25 89.1 79.05 88.1 80.65 L91.15 71.45 Q91.95 68.45 92.0 64.9 92.0 60.6 90.75 56.75" fill="#6eb360" fill-rule="evenodd" stroke="none"/>
      <path d="M81.65 58.9 Q82.45 60.2 81.9 61.15 81.4 62.05 80.65 61.0 79.95 59.9 80.35 58.9 80.9 57.55 81.65 58.9" fill="#93c688" fill-rule="evenodd" stroke="none"/>
      <path d="M84.2 57.35 Q84.3 58.0 83.4 58.0 82.5 58.0 82.0 57.25 81.6 56.7 81.95 56.4 82.25 56.15 82.85 56.15 84.0 56.2 84.2 57.35" fill="#93c688" fill-rule="evenodd" stroke="none"/>
      <path d="M85.1 59.7 Q85.8 60.05 85.6 61.1 85.4 62.15 84.85 61.9 84.4 61.7 84.55 60.6 84.75 59.55 85.1 59.7" fill="#93c688" fill-rule="evenodd" stroke="none"/>
      <path d="M83.9 64.0 Q85.1 64.35 83.7 65.5 82.35 66.65 81.4 66.2 80.6 65.8 81.95 64.8 83.3 63.85 83.9 64.0" fill="#93c688" fill-rule="evenodd" stroke="none"/>
      <path d="M75.7 61.75 Q75.9 60.65 77.0 61.4 78.05 62.15 78.75 63.6 80.0 66.3 77.6 65.2 76.55 64.75 76.0 63.45 75.55 62.35 75.7 61.75" fill="#93c688" fill-rule="evenodd" stroke="none"/>
      <path d="M77.5 54.15 L78.5 54.1 Q78.75 54.45 78.45 55.3 77.25 58.95 76.55 57.65 76.1 56.75 76.45 55.6 76.8 54.55 77.5 54.15" fill="#93c688" fill-rule="evenodd" stroke="none"/>
      <path d="M85.9 52.05 Q87.05 52.35 87.75 53.35 88.5 54.3 88.25 55.1 88.0 55.95 86.65 55.25 L84.05 53.4 Q83.25 52.75 83.85 52.25 84.5 51.7 85.9 52.05" fill="#93c688" fill-rule="evenodd" stroke="none"/>
      <path d="M89.3 60.25 Q90.25 59.2 90.85 60.9 91.4 62.5 91.15 64.0 90.9 65.35 90.2 65.9 89.45 66.5 89.1 65.3 88.75 64.15 88.9 62.3 89.0 60.6 89.3 60.25" fill="#93c688" fill-rule="evenodd" stroke="none"/>
      <path d="M88.45 70.6 Q90.8 69.95 89.35 74.5 87.85 79.05 86.3 77.9 84.95 76.9 86.15 73.8 87.3 70.9 88.45 70.6" fill="#93c688" fill-rule="evenodd" stroke="none"/>
      <path d="M84.55 82.35 Q85.6 81.75 85.2 84.2 84.8 86.6 84.0 86.45 83.25 86.3 83.55 84.5 83.8 82.75 84.55 82.35" fill="#93c688" fill-rule="evenodd" stroke="none"/>
      <path d="M83.75 91.6 Q84.35 91.3 84.35 92.6 84.35 93.9 83.85 94.35 83.4 94.8 83.35 93.35 83.3 91.85 83.75 91.6" fill="#93c688" fill-rule="evenodd" stroke="none"/>
    </g>
    <linearGradient gradientTransform="matrix(0.0029, -0.0464, -0.0464, -0.0029, 36.2, 62.7)" gradientUnits="userSpaceOnUse" id="gradient30" spreadMethod="pad" x1="-819.2" x2="819.2">
      <stop offset="0.0" stop-color="#20141b"/>
      <stop offset="1.0" stop-color="#303b3b"/>
    </linearGradient>
    <linearGradient gradientTransform="matrix(0.002, -0.0311, -0.0311, -0.002, 107.1, 69.8)" gradientUnits="userSpaceOnUse" id="gradient31" spreadMethod="pad" x1="-819.2" x2="819.2">
      <stop offset="0.0" stop-color="#20141b"/>
      <stop offset="1.0" stop-color="#303b3b"/>
    </linearGradient>
    <linearGradient gradientTransform="matrix(0.0042, -0.0678, -0.0678, -0.0042, 44.35, 46.1)" gradientUnits="userSpaceOnUse" id="gradient32" spreadMethod="pad" x1="-819.2" x2="819.2">
      <stop offset="0.0" stop-color="#20141b"/>
      <stop offset="1.0" stop-color="#303b3b"/>
    </linearGradient>
    <linearGradient gradientTransform="matrix(-0.0029, 0.0462, -0.0673, -0.0042, 99.7, 42.35)" gradientUnits="userSpaceOnUse" id="gradient33" spreadMethod="pad" x1="-819.2" x2="819.2">
      <stop offset="0.0" stop-color="#303b3b"/>
      <stop offset="1.0" stop-color="#20141b"/>
    </linearGradient>
    <linearGradient gradientTransform="matrix(-0.0024, 0.0383, -0.0558, -0.0035, 105.65, 50.75)" gradientUnits="userSpaceOnUse" id="gradient34" spreadMethod="pad" x1="-819.2" x2="819.2">
      <stop offset="0.0" stop-color="#303b3b"/>
      <stop offset="1.0" stop-color="#20141b"/>
    </linearGradient>
    <linearGradient gradientTransform="matrix(0.0058, -0.0922, -0.0922, -0.0058, 52.05, 27.55)" gradientUnits="userSpaceOnUse" id="gradient35" spreadMethod="pad" x1="-819.2" x2="819.2">
      <stop offset="0.0" stop-color="#20141b"/>
      <stop offset="1.0" stop-color="#303b3b"/>
    </linearGradient>
    <linearGradient gradientTransform="matrix(0.002, -0.0191, -0.0164, -0.0018, 90.9, 88.9)" gradientUnits="userSpaceOnUse" id="gradient36" spreadMethod="pad" x1="-819.2" x2="819.2">
      <stop offset="0.0" stop-color="#242224"/>
      <stop offset="0.1803921568627451" stop-color="#2a2a3c"/>
      <stop offset="0.7411764705882353" stop-color="#3e4383"/>
      <stop offset="1.0" stop-color="#454d9f"/>
    </linearGradient>
    <linearGradient gradientTransform="matrix(0.0053, 0.0136, 0.0136, -0.0053, 70.75, 89.8)" gradientUnits="userSpaceOnUse" id="gradient37" spreadMethod="pad" x1="-819.2" x2="819.2">
      <stop offset="0.0" stop-color="#6eb361"/>
      <stop offset="0.6745098039215687" stop-color="#00697d"/>
      <stop offset="1.0" stop-color="#001726"/>
    </linearGradient>
    <linearGradient gradientTransform="matrix(0.0024, -0.0226, -0.0226, -0.0024, 88.8, 80.0)" gradientUnits="userSpaceOnUse" id="gradient38" spreadMethod="pad" x1="-819.2" x2="819.2">
      <stop offset="0.0" stop-color="#043840"/>
      <stop offset="0.3254901960784314" stop-color="#00562e"/>
      <stop offset="1.0" stop-color="#6eb360"/>
    </linearGradient>
    <linearGradient gradientTransform="matrix(-0.0128, 0.0288, -0.0305, -0.0135, 76.95, 74.95)" gradientUnits="userSpaceOnUse" id="gradient39" spreadMethod="pad" x1="-819.2" x2="819.2">
      <stop offset="0.0" stop-color="#6eb360"/>
      <stop offset="0.6745098039215687" stop-color="#00562e"/>
      <stop offset="1.0" stop-color="#043840"/>
    </linearGradient>
    <linearGradient gradientTransform="matrix(0.0028, -0.0271, -0.0271, -0.0028, 83.45, 68.0)" gradientUnits="userSpaceOnUse" id="gradient40" spreadMethod="pad" x1="-819.2" x2="819.2">
      <stop offset="0.0" stop-color="#043840"/>
      <stop offset="0.3254901960784314" stop-color="#00562e"/>
      <stop offset="1.0" stop-color="#6eb360"/>
    </linearGradient>
    <linearGradient gradientTransform="matrix(0.0035, -0.0335, -0.0335, -0.0035, 81.6, 70.25)" gradientUnits="userSpaceOnUse" id="gradient41" spreadMethod="pad" x1="-819.2" x2="819.2">
      <stop offset="0.0" stop-color="#043840"/>
      <stop offset="0.3254901960784314" stop-color="#00562e"/>
      <stop offset="1.0" stop-color="#6eb360"/>
    </linearGradient>
  </defs>
</svg>
