<?xml version="1.0" encoding="UTF-8" standalone="no"?>
<svg xmlns:xlink="http://www.w3.org/1999/xlink" height="51.05px" width="40.85px" xmlns="http://www.w3.org/2000/svg">
  <g transform="matrix(1.0, 0.0, 0.0, 1.0, 0.0, 0.0)">
    <use height="51.05" transform="matrix(1.0, 0.0, 0.0, 1.0, 0.0, 0.0)" width="40.85" xlink:href="#shape0"/>
  </g>
  <defs>
    <g id="shape0" transform="matrix(1.0, 0.0, 0.0, 1.0, 0.0, 0.0)">
      <path d="M11.9 41.05 L11.65 41.45 11.6 43.35 Q12.05 43.35 12.05 43.85 L12.45 44.05 12.5 42.5 Q12.3 42.1 12.4 41.75 L12.55 41.5 12.6 40.35 11.9 41.05 M12.25 36.7 L12.3 37.05 12.0 37.65 11.85 38.8 12.65 38.05 12.7 35.55 12.6 35.7 12.2 36.75 12.25 36.7 M23.05 41.5 L22.8 39.0 22.65 39.3 22.65 40.3 Q22.9 40.65 22.7 41.05 L22.75 42.75 22.9 42.7 23.1 42.75 23.1 42.3 22.95 41.75 23.05 41.5 M16.9 13.95 Q17.25 12.6 16.2 11.95 L14.7 11.45 Q15.6 13.55 16.05 14.15 L16.3 14.0 16.9 13.95 M14.65 5.25 Q14.8 5.05 15.15 5.0 L15.45 4.95 15.15 5.6 Q14.95 6.05 14.2 6.05 L14.65 5.25 M23.6 2.95 L23.95 3.55 Q23.4 3.55 23.2 3.2 L23.0 2.7 23.6 2.95 M23.55 1.65 L24.35 2.3 24.95 4.25 25.0 4.2 Q25.2 3.45 25.7 3.3 L26.45 3.15 Q26.3 3.8 25.95 3.9 L25.05 4.2 24.95 4.35 25.6 5.2 26.4 5.65 Q27.0 1.65 27.45 0.9 27.9 0.2 28.85 0.05 L30.05 0.1 Q28.65 0.8 28.35 1.7 28.15 2.2 28.05 4.35 L28.25 4.3 28.7 3.6 29.15 3.4 29.45 3.35 29.15 3.95 28.7 4.25 28.25 4.35 28.05 4.5 27.55 7.75 Q29.2 7.45 29.95 6.9 L30.95 5.5 31.4 3.9 31.25 3.8 30.65 3.85 30.3 3.7 30.15 3.5 30.65 3.4 31.3 3.8 31.4 3.85 31.6 3.45 31.5 3.35 30.75 3.0 30.45 2.6 30.35 2.3 31.0 2.5 31.55 3.3 31.6 3.4 31.65 3.3 Q32.1 2.5 33.0 2.55 L33.75 2.75 33.2 2.85 Q32.6 3.0 32.35 3.45 32.1 3.9 32.0 5.4 L32.15 5.45 33.2 5.1 33.85 5.2 34.2 5.4 33.4 5.8 Q32.95 6.05 32.15 5.5 L32.0 5.55 31.65 6.65 30.3 8.15 34.35 7.7 Q35.65 7.25 37.0 6.15 L38.35 4.8 38.4 4.95 38.4 5.0 38.4 5.15 38.35 5.4 38.6 5.4 39.6 4.65 40.4 4.55 40.85 4.7 40.1 5.4 38.55 5.5 38.3 5.55 38.2 5.75 38.3 5.85 39.3 5.9 Q39.65 5.95 40.0 6.55 L39.2 6.6 Q38.95 6.6 38.25 5.9 L38.15 5.85 37.9 6.3 37.7 6.5 37.5 6.8 37.05 7.25 36.85 7.5 36.35 7.9 35.85 8.2 Q33.65 9.4 29.05 9.65 24.6 9.9 23.55 10.6 22.65 11.2 22.75 12.65 L27.65 12.85 31.9 13.15 33.75 12.35 34.95 11.35 35.1 11.15 Q35.25 11.7 34.25 12.8 L35.25 12.4 35.95 12.5 36.35 12.75 35.5 13.2 Q34.9 13.45 34.15 12.9 L33.9 13.15 34.8 13.25 Q35.2 13.25 35.45 13.85 L34.7 13.85 Q34.3 13.85 33.85 13.2 L32.95 13.8 27.95 14.1 27.8 14.9 Q27.75 15.45 26.85 15.8 L26.9 14.7 Q26.9 14.35 27.35 14.0 L27.1 14.0 26.3 14.0 26.35 13.9 23.95 14.15 Q23.35 14.5 23.4 14.9 L23.7 15.95 Q24.0 16.25 23.75 16.7 L23.85 16.95 Q24.4 17.15 24.4 17.75 L24.25 18.3 24.75 21.1 Q25.15 21.35 25.25 22.25 L24.95 23.3 Q25.3 27.2 24.4 28.8 L24.4 28.95 25.05 29.9 25.15 29.9 Q25.9 30.2 25.9 31.1 L27.55 33.55 27.65 33.55 Q28.3 33.8 28.3 34.75 28.8 35.7 29.35 38.25 L29.5 38.55 29.5 39.2 30.25 45.35 30.25 45.4 Q30.55 45.4 30.6 45.55 L30.75 45.75 Q31.3 45.85 31.3 46.05 31.3 46.25 30.7 46.35 L30.35 46.3 29.35 46.45 28.3 46.35 28.25 46.35 27.9 46.4 Q27.35 46.4 27.35 46.2 L27.3 46.2 26.85 45.9 Q26.75 45.6 27.3 45.6 L27.3 45.55 Q27.2 45.3 27.6 45.3 L27.7 45.3 27.65 45.1 Q27.65 43.1 27.0 39.5 L26.9 39.4 Q26.6 38.9 26.65 38.55 L26.75 38.35 26.75 38.3 26.25 36.45 Q25.5 36.45 25.7 35.5 L23.5 33.15 23.1 33.0 23.4 33.4 23.55 33.45 Q24.35 33.7 24.15 34.6 L24.8 35.6 Q25.35 36.5 25.6 38.45 L25.65 38.6 25.85 41.15 26.1 41.4 Q26.3 41.8 26.0 42.25 L25.9 42.4 25.9 46.35 26.05 46.6 26.15 46.65 26.55 46.95 26.55 47.0 26.8 47.3 Q26.9 47.85 26.15 47.85 L25.8 47.8 24.85 48.05 23.9 47.85 23.85 47.85 23.55 47.9 Q23.0 48.0 23.0 47.65 L23.0 47.6 22.95 47.6 Q22.15 47.6 22.2 47.35 22.2 46.9 22.8 46.8 L23.05 46.55 23.1 44.0 22.15 44.25 21.2 44.05 21.15 44.05 20.85 44.1 Q20.35 44.2 20.35 43.85 L20.35 43.8 20.25 43.8 Q19.9 43.8 19.8 43.4 19.8 43.0 20.25 43.0 L20.6 43.1 20.85 43.0 20.8 40.9 Q20.45 40.35 20.8 40.1 L20.75 39.05 Q20.45 38.65 20.7 38.4 20.55 36.6 20.15 35.95 L18.9 34.2 18.05 35.8 18.0 36.15 17.95 38.45 Q18.25 38.75 17.95 39.2 L17.95 40.3 18.0 40.2 18.1 40.45 18.0 41.0 18.05 43.15 18.0 43.4 Q18.45 43.5 18.45 43.95 18.9 43.95 18.9 44.3 18.9 44.7 18.45 44.7 L18.15 44.65 17.3 44.9 17.15 44.9 17.25 46.1 Q17.7 46.55 17.4 47.15 L17.6 49.0 17.9 49.45 Q18.4 49.45 18.4 49.85 L18.35 50.0 18.65 50.35 Q18.65 50.85 18.05 50.85 L17.65 50.75 16.5 51.05 15.4 50.85 15.3 50.85 14.95 50.95 Q14.35 50.95 14.35 50.6 L14.35 50.55 14.25 50.55 Q13.75 50.65 13.75 50.1 13.75 49.7 14.25 49.6 L14.45 49.65 14.5 49.55 14.4 47.55 14.35 47.45 Q13.85 46.65 14.3 46.0 L14.3 45.95 14.2 45.95 13.95 45.85 13.9 45.85 13.15 45.9 12.4 45.65 12.15 45.65 Q11.65 45.55 11.75 45.3 11.75 45.0 12.15 45.0 L12.4 44.7 12.45 44.4 Q12.3 44.6 12.05 44.6 L11.75 44.55 11.1 44.75 11.3 45.0 Q11.6 45.0 11.6 45.15 L11.5 45.3 11.55 45.45 11.25 45.65 11.2 45.65 10.85 45.8 10.7 45.75 10.65 45.75 10.05 45.8 Q9.65 45.75 9.45 45.55 L9.25 45.55 8.95 45.3 9.0 45.2 8.95 45.15 9.2 44.9 9.3 44.95 9.45 44.85 9.45 44.6 9.25 44.4 9.25 44.35 9.2 44.35 Q8.8 44.45 8.8 44.0 8.8 43.55 9.2 43.55 9.4 43.55 9.45 43.7 L9.7 41.95 9.6 42.05 Q9.35 41.7 9.85 41.35 L9.8 41.3 Q9.6 40.8 9.95 40.25 10.1 38.65 10.4 37.3 10.2 36.75 10.6 36.35 11.05 34.3 11.55 33.7 L12.65 32.3 12.65 32.05 11.55 33.05 Q11.55 33.9 10.9 33.7 L10.3 34.3 Q10.4 35.2 9.7 35.05 L9.7 35.0 9.1 35.85 Q8.6 36.8 8.25 39.25 L8.3 39.2 8.55 39.55 Q8.7 40.0 8.1 40.4 7.75 42.85 7.75 44.8 L7.85 45.05 Q8.3 45.05 8.3 45.4 L8.3 45.45 8.55 45.9 Q8.45 46.4 7.95 46.3 L7.9 46.3 7.9 46.35 Q7.8 46.7 7.25 46.6 L6.9 46.5 6.8 46.45 5.7 46.55 4.6 46.15 4.2 46.2 Q3.6 46.1 3.6 45.65 3.7 45.25 4.25 45.25 4.35 44.65 4.9 44.75 5.0 42.35 5.25 40.35 L5.1 40.2 Q4.9 39.7 5.15 39.2 L5.45 38.75 5.7 37.0 5.75 36.9 Q6.15 35.1 6.75 34.1 L7.45 33.1 Q7.45 32.25 8.2 32.0 L8.3 32.0 8.6 31.65 Q8.6 30.7 9.3 30.55 L9.5 30.5 10.9 28.85 Q10.9 28.15 11.65 27.8 L11.4 26.6 Q11.25 26.25 11.25 25.75 11.25 24.95 11.55 24.5 L11.9 22.9 Q12.75 19.8 13.35 18.15 L13.5 17.65 13.6 17.5 13.65 17.05 13.7 17.15 14.0 15.4 13.8 14.95 13.9 14.6 13.35 13.95 13.1 13.85 12.85 13.85 11.95 14.7 10.75 14.85 11.4 14.05 11.75 13.85 8.9 14.45 4.05 14.6 3.7 15.55 Q3.5 16.15 2.35 16.35 L2.65 15.05 Q2.75 14.65 3.45 14.25 2.85 13.7 2.5 12.8 L2.45 12.75 1.25 13.05 0.55 12.8 0.15 12.5 1.1 12.2 Q1.75 12.0 2.45 12.7 2.1 11.65 2.25 11.3 L3.15 12.4 Q4.0 13.2 5.0 13.45 L8.95 13.1 13.4 12.4 13.1 11.3 8.9 11.25 Q6.3 11.1 4.6 10.25 3.5 9.7 2.6 8.45 L2.4 8.5 1.9 9.35 Q1.7 9.7 1.0 9.7 L1.35 8.95 Q1.55 8.45 2.4 8.45 L2.5 8.4 2.3 8.3 1.1 8.55 0.35 8.35 0.0 8.05 0.95 7.7 Q1.45 7.55 2.35 8.25 L2.45 8.25 Q1.95 7.45 2.1 7.1 L3.45 8.35 Q4.75 9.35 6.0 9.7 L6.35 9.8 Q4.65 8.45 4.65 7.05 L5.1 3.45 4.05 3.1 Q3.75 3.05 3.5 2.6 L3.35 2.15 4.35 2.3 Q4.8 2.45 5.1 3.15 L5.1 2.75 4.45 1.7 3.9 1.35 4.3 1.35 4.1 1.25 3.1 1.4 Q2.85 1.45 2.55 1.15 L2.25 0.9 3.05 0.7 4.15 1.2 Q4.5 1.2 4.5 1.35 L4.45 1.4 Q5.75 1.5 5.95 2.9 L6.0 4.15 5.95 5.65 6.4 4.95 Q6.5 4.75 6.85 4.7 L7.2 4.65 6.9 5.3 Q6.7 5.75 6.0 5.75 6.0 7.2 6.55 8.0 7.55 9.4 9.35 9.9 L12.3 9.9 12.65 9.7 12.4 9.0 Q11.75 7.95 10.25 7.7 L11.5 7.35 Q12.5 7.3 13.15 7.95 L13.65 8.8 Q14.0 8.2 13.8 7.75 13.5 7.0 12.15 6.45 10.4 5.75 9.5 4.9 9.15 4.6 8.7 3.5 L8.55 3.35 7.3 3.45 Q7.0 3.5 6.6 3.15 L6.3 2.8 7.3 2.6 Q7.95 2.45 8.6 3.35 L8.65 3.35 Q8.5 2.7 8.65 2.45 L8.75 2.7 9.15 3.4 9.35 3.35 9.8 2.55 Q9.95 2.35 10.3 2.25 L10.6 2.2 10.35 2.9 Q10.15 3.35 9.4 3.35 L9.2 3.5 10.4 4.7 12.05 5.3 14.1 6.05 14.2 6.05 14.2 6.1 Q15.7 6.8 15.65 8.0 15.6 9.15 15.05 10.05 L16.1 10.15 17.6 8.9 18.0 7.7 17.9 7.55 16.9 7.25 16.45 6.75 16.3 6.4 17.15 6.55 Q17.75 6.7 17.95 7.55 L18.05 7.6 Q18.0 5.85 18.1 5.15 18.2 4.05 19.3 3.95 L19.5 3.95 19.65 3.9 19.7 3.95 19.3 4.2 Q18.85 4.6 18.75 5.05 L18.8 5.6 19.05 5.6 19.75 5.05 20.3 5.0 20.6 5.05 20.1 5.55 19.5 5.7 19.05 5.65 18.8 5.7 19.15 8.4 Q19.15 9.55 17.7 10.65 18.8 11.15 19.0 11.95 L19.05 12.2 Q19.65 11.2 19.9 9.5 L20.3 6.9 Q20.7 5.6 21.9 5.25 L23.05 5.1 22.35 5.5 Q21.55 6.1 21.35 6.8 L21.25 8.1 Q21.6 7.0 22.1 6.85 L23.2 6.55 Q23.0 7.5 22.55 7.7 L21.3 8.25 21.35 9.7 22.1 9.25 21.95 9.2 22.0 9.2 22.15 9.25 23.75 8.75 Q25.25 8.1 25.75 7.35 L26.1 6.65 Q24.45 6.05 24.2 5.15 L24.0 3.8 23.85 3.8 22.7 3.9 22.05 3.5 22.35 3.35 22.95 3.3 23.8 3.75 23.95 3.7 23.95 3.55 23.8 2.4 23.15 1.85 22.75 1.7 22.85 1.7 22.95 1.65 23.05 1.65 23.2 1.6 23.3 1.6 23.45 1.65 23.55 1.65" fill="#797946" fill-rule="evenodd" stroke="none"/>
    </g>
  </defs>
</svg>
