<?xml version="1.0" encoding="UTF-8" standalone="no"?>
<svg xmlns:xlink="http://www.w3.org/1999/xlink" height="282.95px" width="123.4px" xmlns="http://www.w3.org/2000/svg">
  <g transform="matrix(1.0, 0.0, 0.0, 1.0, 0.0, 0.0)">
    <use height="282.95" transform="matrix(1.0, 0.0, 0.0, 1.0, 0.0, 0.0)" width="123.4" xlink:href="#shape0"/>
  </g>
  <defs>
    <g id="shape0" transform="matrix(1.0, 0.0, 0.0, 1.0, 0.0, 0.0)">
      <path d="M120.55 274.25 L121.8 275.1 100.05 279.6 Q78.3 282.1 59.8 282.85 48.25 283.3 27.25 282.0 L8.55 280.6 11.45 278.75 120.55 274.25" fill="#924b4b" fill-rule="evenodd" stroke="none"/>
      <path d="M55.2 82.55 Q43.4 45.3 32.3 15.1 L41.8 14.4 Q51.1 30.45 63.75 54.45 89.1 102.55 105.95 142.65 122.85 182.7 123.4 232.5 123.65 257.4 120.55 274.25 L100.3 278.75 Q97.2 271.15 93.4 256.55 85.85 227.3 82.3 192.15 78.8 157.0 55.2 82.55" fill="url(#gradient0)" fill-rule="evenodd" stroke="none"/>
      <path d="M42.45 13.8 L41.8 14.4 32.3 14.95 32.25 14.55 42.45 13.8" fill="#8e574f" fill-rule="evenodd" stroke="none"/>
      <path d="M6.8 4.6 L32.3 15.1 Q48.45 47.35 65.3 86.0 99.05 163.25 102.8 195.1 106.55 227.0 103.8 256.05 102.45 270.6 100.3 278.75 87.85 280.4 70.5 281.25 35.85 282.9 11.45 278.75 22.95 273.5 30.7 264.85 34.5 260.55 48.8 240.1 75.05 202.6 43.55 99.85 33.7 67.75 19.25 32.95 12.05 15.55 6.8 4.6" fill="url(#gradient1)" fill-rule="evenodd" stroke="none"/>
      <path d="M41.8 14.4 L42.15 14.95 32.5 15.65 32.3 15.1 41.8 14.4" fill="#8e574f" fill-rule="evenodd" stroke="none"/>
      <path d="M44.65 41.4 L44.45 40.3 55.0 38.1 55.55 39.15 44.65 41.4" fill="#bd877c" fill-rule="evenodd" stroke="none"/>
      <path d="M49.75 28.45 L50.35 29.55 39.1 30.15 39.05 29.05 49.75 28.45" fill="#bd877c" fill-rule="evenodd" stroke="none"/>
      <path d="M51.15 53.9 L51.0 52.8 62.1 51.3 62.65 52.4 51.15 53.9" fill="#bd877c" fill-rule="evenodd" stroke="none"/>
      <path d="M57.0 67.1 L56.6 66.05 67.65 61.9 68.15 62.9 57.0 67.1" fill="#bd877c" fill-rule="evenodd" stroke="none"/>
      <path d="M82.9 92.2 L83.4 93.25 69.95 97.15 69.65 96.05 82.9 92.2" fill="#bd877c" fill-rule="evenodd" stroke="none"/>
      <path d="M64.0 83.15 L63.6 82.05 75.8 77.85 76.3 78.85 64.0 83.15" fill="#bd877c" fill-rule="evenodd" stroke="none"/>
      <path d="M77.0 113.65 L76.65 112.55 90.45 108.0 90.95 109.05 77.0 113.65" fill="#bd877c" fill-rule="evenodd" stroke="none"/>
      <path d="M81.95 125.65 L81.65 124.55 96.25 120.5 96.7 121.55 81.95 125.65" fill="#bd877c" fill-rule="evenodd" stroke="none"/>
      <path d="M87.45 139.4 L87.15 138.3 102.2 133.95 102.65 135.0 87.45 139.4" fill="#bd877c" fill-rule="evenodd" stroke="none"/>
      <path d="M107.35 146.1 L107.75 147.1 91.75 153.15 91.35 152.05 107.35 146.1" fill="#bd877c" fill-rule="evenodd" stroke="none"/>
      <path d="M101.95 190.15 L101.65 189.05 118.5 184.3 118.75 185.45 101.95 190.15" fill="#bd877c" fill-rule="evenodd" stroke="none"/>
      <path d="M98.2 172.9 L97.9 171.8 114.55 167.5 114.85 168.6 98.2 172.9" fill="#bd877c" fill-rule="evenodd" stroke="none"/>
      <path d="M123.05 221.35 L123.1 222.5 104.95 227.4 104.65 226.3 123.05 221.35" fill="#bd877c" fill-rule="evenodd" stroke="none"/>
      <path d="M121.65 204.35 L121.75 205.5 104.75 211.4 104.35 210.3 121.65 204.35" fill="#bd877c" fill-rule="evenodd" stroke="none"/>
      <path d="M103.7 263.9 L103.4 262.8 122.6 256.85 122.5 258.05 103.7 263.9" fill="#bd877c" fill-rule="evenodd" stroke="none"/>
      <path d="M123.3 242.4 L123.3 243.55 104.2 247.9 103.95 246.8 123.3 242.4" fill="#bd877c" fill-rule="evenodd" stroke="none"/>
      <path d="M53.85 138.7 L53.6 137.55 71.45 137.95 71.05 125.75 50.85 125.85 50.55 124.75 81.4 124.55 81.8 125.65 72.15 125.7 72.6 137.95 86.65 138.25 87.05 139.4 53.85 138.7" fill="#9e5e56" fill-rule="evenodd" stroke="none"/>
      <path d="M59.05 168.7 L58.9 167.55 73.5 169.15 73.5 153.05 56.7 152.95 56.5 151.8 91.55 152.05 91.55 153.15 74.6 153.05 74.6 169.25 97.8 171.75 98.05 172.6 98.0 172.9 59.05 168.7" fill="#9e5e56" fill-rule="evenodd" stroke="none"/>
      <path d="M74.4 188.3 L60.5 187.35 60.45 186.2 101.85 189.05 101.75 190.15 75.55 188.35 74.15 206.05 104.2 210.25 104.3 211.4 60.0 205.25 60.1 204.1 73.05 205.9 74.4 188.3" fill="#9e5e56" fill-rule="evenodd" stroke="none"/>
      <path d="M104.8 226.3 L104.8 227.4 72.6 227.4 71.15 246.55 104.05 246.8 104.05 247.9 43.65 247.5 44.45 246.4 70.05 246.55 71.5 227.4 55.3 227.4 55.7 226.3 104.8 226.3" fill="#9e5e56" fill-rule="evenodd" stroke="none"/>
      <path d="M103.05 262.8 L102.95 263.95 66.85 264.6 65.85 281.45 64.7 281.45 65.7 264.65 30.25 265.3 31.25 264.15 103.05 262.8" fill="#9e5e56" fill-rule="evenodd" stroke="none"/>
      <path d="M44.55 40.45 L44.55 41.4 22.4 40.6 21.95 39.45 34.75 39.95 35.45 29.9 17.45 28.6 16.95 27.45 39.1 29.05 39.0 30.15 36.55 30.0 35.9 39.95 44.5 40.3 44.55 40.45" fill="#9e5e56" fill-rule="evenodd" stroke="none"/>
      <path d="M68.35 97.1 L42.2 95.5 41.85 94.35 69.65 96.0 69.8 96.4 69.75 97.15 69.5 97.15 71.55 112.15 76.55 112.5 76.8 113.15 76.75 113.65 46.95 111.4 46.65 110.25 70.4 112.05 68.35 97.1" fill="#9e5e56" fill-rule="evenodd" stroke="none"/>
      <path d="M32.05 65.75 L31.65 64.6 36.75 64.9 36.5 53.15 27.15 52.7 26.75 51.55 50.35 52.75 50.85 53.9 37.65 53.2 37.85 64.95 56.4 66.0 56.8 66.85 56.75 67.15 32.05 65.75" fill="#9e5e56" fill-rule="evenodd" stroke="none"/>
      <path d="M39.35 86.7 L39.25 80.15 37.05 79.85 36.65 78.7 63.55 82.0 63.8 82.55 63.75 83.15 40.4 80.3 40.55 90.3 39.35 86.7" fill="#9e5e56" fill-rule="evenodd" stroke="none"/>
      <path d="M32.35 14.55 L32.25 15.65 11.15 14.1 10.65 12.9 32.35 14.55" fill="#9e5e56" fill-rule="evenodd" stroke="none"/>
      <path d="M2.0 0.0 L38.5 12.5 37.5 20.5 0.0 13.0 2.0 0.0" fill="#a35855" fill-rule="evenodd" stroke="none"/>
      <path d="M50.5 17.0 L37.5 20.5 38.5 12.5 51.5 12.0 50.5 17.0" fill="#ad6862" fill-rule="evenodd" stroke="none"/>
      <path d="M2.0 0.0 L21.5 2.5 51.5 12.0 38.5 12.5 2.0 0.0" fill="#c28e86" fill-rule="evenodd" stroke="none"/>
    </g>
    <linearGradient gradientTransform="matrix(0.0254, -3.0E-4, -3.0E-4, -0.0254, 66.9, 146.65)" gradientUnits="userSpaceOnUse" id="gradient0" spreadMethod="pad" x1="-819.2" x2="819.2">
      <stop offset="0.0" stop-color="#c5988d"/>
      <stop offset="1.0" stop-color="#d2b3aa"/>
    </linearGradient>
    <linearGradient gradientTransform="matrix(0.0599, 0.0, 0.0, -0.0599, 55.9, 143.15)" gradientUnits="userSpaceOnUse" id="gradient1" spreadMethod="pad" x1="-819.2" x2="819.2">
      <stop offset="0.0" stop-color="#a8655c"/>
      <stop offset="1.0" stop-color="#c08e82"/>
    </linearGradient>
  </defs>
</svg>
