<?xml version="1.0" encoding="UTF-8" standalone="no"?>
<svg xmlns:xlink="http://www.w3.org/1999/xlink" height="60.95px" width="31.1px" xmlns="http://www.w3.org/2000/svg">
  <g transform="matrix(1.0, 0.0, 0.0, 1.0, 0.0, 0.0)">
    <use height="60.95" transform="matrix(1.0, 0.0, 0.0, 1.0, 4.75, 0.0)" width="20.85" xlink:href="#sprite0"/>
    <use height="46.2" transform="matrix(1.0, 0.0, 0.0, 1.0, 0.0, 2.45)" width="31.1" xlink:href="#shape1"/>
  </g>
  <defs>
    <g id="sprite0" transform="matrix(1.0, 0.0, 0.0, 1.0, 0.0, 0.0)">
      <use height="60.95" transform="matrix(1.0, 0.0, 0.0, 1.0, 0.0, 0.0)" width="20.85" xlink:href="#shape0"/>
    </g>
    <g id="shape0" transform="matrix(1.0, 0.0, 0.0, 1.0, 0.0, 0.0)">
      <path d="M20.85 0.0 L20.15 53.3 0.0 60.95 0.7 7.65 20.85 0.0" fill="#ffeccd" fill-rule="evenodd" stroke="none"/>
    </g>
    <g id="shape1" transform="matrix(1.0, 0.0, 0.0, 1.0, 0.0, -2.45)">
      <path d="M31.0 5.65 L18.5 10.3 18.6 7.15 31.1 2.45 31.0 5.65" fill="#24200e" fill-rule="evenodd" stroke="none"/>
      <path d="M12.5 12.55 L0.0 17.25 0.05 14.05 12.55 9.35 12.5 12.55" fill="#24200e" fill-rule="evenodd" stroke="none"/>
      <path d="M20.55 43.85 L20.35 43.95 20.4 44.0 20.7 43.9 Q20.9 43.85 20.8 43.95 L20.5 44.0 20.4 44.05 20.65 44.0 20.5 44.05 20.95 44.05 20.75 44.2 20.7 44.2 Q20.4 44.3 20.8 44.3 L21.0 44.35 20.35 44.5 21.0 44.5 21.0 44.65 20.85 44.75 21.1 44.8 21.15 45.0 20.85 45.1 20.45 45.05 20.6 45.1 21.05 45.15 21.1 45.25 20.95 45.35 Q20.55 45.3 20.85 45.4 L21.1 45.45 20.85 45.45 21.1 45.55 20.85 45.5 21.15 45.65 20.8 45.65 21.15 45.7 20.6 45.7 Q21.35 46.05 21.15 46.3 L20.6 46.15 20.95 46.35 21.1 46.35 21.25 46.5 20.75 46.3 20.9 46.4 19.75 45.95 19.8 46.0 19.25 45.8 20.05 46.1 20.4 46.3 20.5 46.3 20.8 46.45 20.4 46.3 20.5 46.4 21.0 46.6 20.65 46.5 21.1 46.7 21.3 46.85 20.45 46.5 21.25 46.85 20.8 46.7 Q21.25 46.9 20.85 46.8 L21.0 46.85 20.65 46.75 20.8 46.85 20.6 46.8 20.9 47.0 21.05 47.05 21.0 47.0 21.1 47.0 21.05 47.05 21.25 47.15 21.05 47.05 21.25 47.2 20.85 47.1 20.65 47.0 20.55 47.0 21.2 47.3 21.15 47.3 21.2 47.35 20.5 47.05 21.05 47.35 20.75 47.2 21.1 47.4 20.5 47.2 19.55 46.75 19.65 46.85 20.85 47.45 20.65 47.45 20.75 47.5 21.0 47.7 19.8 47.1 20.1 47.3 20.3 47.4 20.5 47.55 20.9 47.75 20.95 47.8 21.1 47.95 20.7 47.8 20.4 47.55 20.45 47.65 20.4 47.6 20.1 47.45 20.0 47.45 20.15 47.55 20.05 47.5 20.0 47.45 19.75 47.3 19.05 47.0 19.15 47.1 19.7 47.35 19.95 47.65 19.55 47.4 19.45 47.5 19.9 47.8 20.2 47.95 20.1 47.95 20.15 48.0 19.35 47.5 19.1 47.4 19.4 47.7 Q19.2 47.65 19.25 47.75 L19.35 47.85 18.95 47.7 18.9 47.65 18.85 47.65 18.95 47.8 18.75 47.65 18.75 47.7 18.5 47.5 18.4 47.5 18.5 47.6 18.75 47.75 Q18.9 47.9 18.7 47.85 L18.5 47.7 18.4 47.65 17.95 47.3 17.8 47.15 18.05 47.35 17.8 47.1 Q18.15 47.3 17.75 46.95 L18.35 47.4 18.5 47.45 17.85 47.0 18.05 47.1 17.75 46.85 17.95 46.8 18.15 46.9 17.85 46.6 17.9 46.5 18.1 46.55 17.95 46.15 18.3 46.35 18.45 46.4 17.9 46.1 Q18.25 46.2 17.75 45.85 L17.8 45.85 18.0 45.85 18.3 45.95 17.8 45.65 18.05 45.65 17.8 45.4 17.65 45.2 17.9 45.3 17.65 45.1 17.65 44.95 17.55 45.3 16.9 45.75 Q16.55 45.9 16.35 45.6 L16.25 45.25 16.25 45.35 16.2 45.6 16.0 45.65 15.95 45.3 15.95 45.45 16.0 45.85 15.7 45.8 Q15.4 45.55 15.35 45.6 15.2 45.45 15.2 45.75 L14.8 45.2 Q14.6 45.05 14.65 45.3 L14.4 44.85 14.2 44.15 Q14.05 43.65 14.2 43.7 L14.35 43.45 14.5 43.85 Q14.45 43.35 14.6 43.45 L15.0 43.95 15.05 44.1 15.05 43.8 15.1 44.05 15.1 43.7 15.2 44.15 15.15 43.8 15.15 43.5 Q15.25 43.65 15.25 43.45 L15.3 43.65 15.4 43.25 15.55 43.05 15.6 43.4 15.6 43.0 Q15.65 43.35 15.65 42.85 L15.7 42.9 15.7 42.7 15.75 42.95 Q15.7 42.7 15.8 42.85 L15.85 42.95 15.9 42.9 15.9 42.95 15.95 42.7 16.0 43.3 Q16.1 42.95 16.4 42.95 L16.45 43.25 16.5 43.0 16.55 43.2 16.6 43.05 16.6 43.35 16.7 43.0 16.7 43.2 16.75 43.1 16.75 43.3 16.8 43.25 16.95 42.8 16.95 42.9 17.1 42.8 17.1 43.3 17.2 42.6 17.3 42.7 17.25 43.7 17.3 43.6 17.5 42.75 17.45 43.35 17.6 42.5 17.6 42.75 17.65 42.45 17.7 42.8 17.65 43.05 17.7 42.9 17.7 42.95 17.8 42.65 17.9 42.35 17.85 42.65 18.1 42.05 18.0 42.35 Q18.05 42.5 18.1 42.3 L18.2 42.4 18.25 42.15 18.25 42.35 18.3 42.25 18.3 42.35 Q18.55 41.85 18.55 42.25 L18.7 41.85 18.6 42.15 18.6 42.3 18.65 42.2 18.7 42.25 18.6 42.6 18.85 42.05 18.9 42.15 18.85 42.4 18.75 42.7 18.95 42.25 18.9 42.4 19.05 42.2 19.15 42.1 19.2 42.2 19.15 42.45 19.4 42.3 19.3 42.45 19.4 42.45 19.25 42.95 19.6 42.4 Q19.5 42.65 19.65 42.55 L19.7 42.65 19.45 42.95 Q19.3 43.2 19.5 43.0 19.7 42.8 19.65 42.9 L19.9 42.55 Q20.15 42.45 19.85 42.8 L20.1 42.65 20.2 42.9 20.0 43.3 20.15 43.3 19.95 43.4 20.2 43.35 20.55 43.3 20.35 43.4 20.65 43.35 20.05 43.7 20.35 43.65 20.0 43.85 20.2 43.8 20.2 43.9 20.45 43.7 20.75 43.7 20.55 43.85 M17.85 44.85 L17.8 44.95 17.8 44.9 17.65 44.95 17.95 45.05 17.9 44.8 17.9 44.85 17.85 44.9 17.85 44.85 M17.8 44.85 L17.75 44.8 17.7 44.85 17.7 44.9 17.8 44.9 17.8 44.85 M20.95 47.8 L20.85 47.75 21.0 47.85 20.95 47.8 M17.9 45.3 L17.85 45.35 17.9 45.3" fill="#825f3e" fill-rule="evenodd" stroke="none"/>
      <path d="M17.95 36.35 L18.05 36.95 18.0 36.9 18.15 37.4 18.15 37.05 18.1 36.8 18.2 36.85 18.15 36.6 18.0 36.15 18.05 36.0 18.05 36.2 Q18.2 36.35 18.15 35.85 L18.25 36.25 18.2 36.4 18.2 36.7 18.3 36.55 18.3 36.65 Q18.45 37.4 18.45 36.95 L18.4 36.55 18.55 36.2 18.65 36.65 Q18.4 36.25 18.5 36.85 L18.45 37.3 18.7 38.05 18.7 37.9 18.6 37.3 18.7 36.95 18.8 37.4 Q18.9 37.25 19.05 37.4 L19.05 36.85 Q18.9 36.55 18.9 36.25 L18.95 36.55 Q19.05 36.95 19.05 36.55 L19.15 37.5 19.25 37.75 Q19.25 37.4 19.4 37.25 L19.55 37.4 19.65 37.2 19.8 37.9 19.85 37.75 19.8 37.7 19.8 37.6 19.85 37.75 19.9 37.35 19.95 37.85 20.0 37.7 20.0 38.1 20.1 38.2 20.15 38.0 20.1 37.75 Q20.15 37.65 20.2 37.7 L20.3 37.7 20.3 37.95 20.35 37.8 Q20.35 38.4 20.45 38.0 L20.35 38.65 20.35 38.1 20.25 37.95 20.25 38.2 20.3 38.05 20.3 38.65 20.25 38.85 20.2 38.55 20.1 38.9 Q20.1 38.7 20.05 38.85 L19.95 39.05 20.0 38.3 19.9 38.15 19.9 38.95 19.85 38.7 19.8 39.1 19.5 39.0 19.45 38.75 19.3 39.2 19.15 39.2 19.0 39.05 18.5 39.45 18.5 39.15 18.45 39.05 18.45 39.55 Q18.25 39.2 18.25 39.85 L18.2 39.6 18.15 39.85 17.95 39.65 17.8 39.4 17.85 40.0 17.6 39.8 17.4 40.25 17.15 40.5 17.05 40.2 16.9 40.6 16.65 40.75 16.5 40.3 Q16.25 40.05 16.6 40.75 16.55 40.7 16.5 40.8 L16.4 40.7 16.4 41.0 Q16.25 40.85 16.25 41.0 L16.05 40.75 16.2 41.2 Q16.1 41.05 16.05 41.2 L15.85 41.15 16.0 41.4 15.85 41.4 15.8 41.5 15.75 41.4 15.75 41.5 Q15.85 41.8 15.4 41.5 L15.35 41.8 15.25 41.9 15.15 41.85 15.3 42.05 15.1 41.95 Q15.3 42.05 15.1 42.0 L15.05 42.0 14.9 42.0 14.7 41.95 Q15.15 42.1 14.6 41.95 L14.85 42.05 15.1 42.25 14.7 42.35 14.35 42.45 14.75 42.4 Q13.75 42.65 14.5 42.5 L14.3 42.55 14.75 42.65 15.2 42.7 16.0 43.65 16.25 44.15 16.4 44.75 16.1 45.05 16.25 45.1 16.5 45.0 16.8 45.35 16.55 45.55 16.75 45.4 16.65 45.5 17.0 45.25 Q17.25 45.3 17.3 45.75 17.35 46.25 17.5 46.35 17.45 46.5 17.8 46.5 L17.75 47.3 17.85 47.5 18.05 47.45 17.25 48.45 16.75 48.55 16.4 48.5 16.6 48.15 Q16.15 48.45 16.05 48.15 L16.15 47.45 16.25 47.35 15.95 47.45 16.15 47.25 15.8 47.4 16.1 47.05 15.85 47.25 15.55 47.4 15.4 47.25 15.55 47.15 15.1 47.15 14.75 47.0 15.1 46.75 14.6 46.95 14.6 46.9 14.4 46.85 14.5 46.85 Q14.6 46.65 14.25 46.85 L14.45 46.7 14.35 46.7 14.35 46.6 14.3 46.65 14.25 46.6 14.25 46.55 14.3 46.5 14.25 46.45 14.15 46.45 14.55 46.25 14.05 46.05 13.85 45.7 14.1 45.45 13.85 45.5 14.0 45.35 13.75 45.35 14.05 45.2 13.7 45.25 13.9 45.15 13.75 45.1 13.7 45.05 13.9 45.0 Q14.1 44.8 13.7 45.0 L13.5 44.95 13.35 44.85 13.45 44.85 13.25 44.65 13.65 44.4 13.0 44.55 13.05 44.4 13.0 44.3 13.55 44.15 13.95 44.0 13.8 43.9 12.95 44.0 13.5 43.85 12.65 43.95 12.85 43.85 12.55 43.9 12.55 43.8 12.85 43.7 13.1 43.65 12.9 43.55 12.95 43.55 Q13.25 43.25 12.55 43.6 L12.3 43.5 12.6 43.45 12.0 43.35 12.3 43.35 12.15 43.2 Q12.0 43.15 12.2 43.05 L12.0 43.1 12.2 43.0 12.2 42.95 12.05 42.9 12.1 42.9 11.9 42.75 11.95 42.5 Q11.4 42.5 11.55 42.35 L11.8 42.4 11.85 42.3 11.9 42.25 11.85 42.2 11.9 42.1 12.25 42.15 12.05 42.05 11.95 41.95 11.7 41.9 11.75 41.85 12.0 41.8 12.35 41.85 11.85 41.7 12.0 41.7 11.8 41.6 11.7 41.45 11.85 41.35 Q11.9 41.25 12.1 41.25 L11.9 41.0 12.1 41.1 12.05 40.95 12.55 41.0 12.0 40.7 12.15 40.65 Q12.0 40.45 12.25 40.5 L12.6 40.75 12.65 40.7 12.55 40.5 12.2 40.3 12.25 40.25 12.4 40.25 12.25 40.05 12.5 39.85 12.95 39.95 12.85 39.75 12.8 39.8 12.7 39.7 12.85 39.75 13.05 39.95 12.95 39.7 12.8 39.4 13.0 39.5 12.85 39.25 13.35 39.7 13.3 39.45 13.55 39.7 13.5 39.55 13.55 39.5 13.25 39.3 13.15 39.05 13.4 39.15 13.6 39.25 13.6 39.2 13.55 39.1 13.7 39.2 13.55 39.0 13.65 39.1 13.5 38.7 13.7 38.8 Q13.95 39.0 13.75 38.65 L13.8 38.7 13.8 38.45 14.2 39.0 Q14.35 38.85 13.9 38.4 L14.05 38.3 14.3 38.35 14.2 38.15 14.4 38.0 14.7 38.1 14.85 38.5 14.85 38.35 14.6 37.95 Q14.7 37.65 14.9 37.9 L14.8 37.65 Q15.05 38.25 15.05 37.9 L15.0 37.65 Q14.95 37.5 15.05 37.6 L15.15 37.85 Q15.0 37.25 15.2 37.5 L15.35 37.8 15.25 37.45 15.6 37.9 Q15.5 37.05 15.9 37.05 L15.95 37.2 15.95 37.0 16.15 37.55 16.15 37.15 16.05 37.0 Q16.2 37.15 16.15 36.8 L16.25 37.15 16.6 38.35 16.6 38.3 16.75 38.7 16.55 38.0 16.55 37.6 16.5 37.5 16.5 37.45 16.55 37.6 16.6 37.45 Q16.45 37.25 16.45 36.9 L16.6 37.25 16.45 36.75 16.45 36.6 16.5 36.55 16.75 37.4 16.65 36.7 16.75 37.0 16.75 36.9 Q16.75 36.7 16.85 37.05 L16.8 36.75 16.95 37.05 16.95 36.9 17.05 37.05 17.0 36.7 16.95 36.7 16.95 36.6 16.95 36.35 17.0 36.5 17.0 36.3 17.1 36.55 17.05 36.25 17.2 36.65 17.2 36.85 17.3 37.0 17.2 36.2 17.25 36.35 17.25 36.55 17.45 36.95 17.45 36.6 17.45 36.65 17.4 36.25 17.7 36.85 17.75 37.3 17.9 37.9 17.95 37.7 17.7 36.4 17.9 36.85 Q18.0 37.25 17.95 36.85 L17.9 36.45 17.95 36.35 M11.95 42.35 Q11.8 42.3 11.95 42.3 L12.0 42.25 11.9 42.25 11.95 42.3 12.0 42.35 12.1 42.45 11.95 42.35" fill="#825f3e" fill-rule="evenodd" stroke="none"/>
      <path d="M15.85 26.2 L15.9 26.4 Q16.0 26.05 16.9 25.7 L16.85 26.15 Q16.9 25.8 17.1 25.7 L17.25 25.7 17.45 25.65 17.45 25.7 17.6 25.65 17.75 25.6 17.7 25.85 Q17.85 25.65 17.8 25.85 L17.85 26.0 17.9 25.9 18.05 26.05 18.05 26.1 18.2 26.15 17.95 26.45 Q18.3 26.45 18.65 26.8 L19.0 27.45 18.7 27.65 19.05 27.75 18.85 27.9 19.15 28.0 18.75 28.05 19.15 28.25 18.95 28.25 19.1 28.4 19.1 28.5 18.9 28.5 19.0 28.6 19.2 28.65 18.95 28.65 19.25 28.85 19.35 29.05 19.25 29.05 19.25 29.25 19.3 29.5 19.0 29.45 Q18.8 29.4 18.85 29.5 L19.1 29.7 19.45 29.85 19.25 30.2 18.7 29.95 18.45 29.9 18.3 29.8 18.3 30.05 18.95 30.7 18.55 30.5 19.1 31.0 18.85 30.95 19.05 31.15 18.65 31.2 18.45 31.05 18.5 31.25 18.45 31.25 18.45 31.4 18.7 31.6 18.75 31.55 18.75 31.85 18.55 31.65 18.75 32.35 18.55 32.1 Q18.4 32.1 18.4 32.35 L18.4 32.45 18.35 32.55 18.5 32.5 18.7 32.55 18.35 32.75 18.2 32.65 18.2 32.6 18.15 32.6 18.1 32.75 18.05 32.65 18.1 32.75 18.1 32.8 18.1 32.9 18.05 33.15 18.15 33.1 18.55 33.3 Q18.55 33.5 18.1 33.5 L18.2 33.3 17.85 33.25 17.85 33.3 Q18.05 33.5 17.9 33.65 L17.75 33.4 17.6 33.4 17.55 33.4 17.55 33.5 17.55 33.6 17.85 33.65 17.6 33.75 17.4 33.75 17.5 34.25 17.8 34.2 18.0 34.2 Q18.25 33.95 18.65 33.95 L18.35 34.05 18.3 34.15 18.25 34.2 17.4 34.4 17.2 34.55 17.7 34.75 Q17.5 34.9 17.6 35.05 L17.8 35.25 17.15 35.45 Q17.55 35.3 17.4 35.45 L17.3 35.45 17.3 35.6 17.4 35.7 17.2 35.7 17.3 35.75 16.95 35.8 16.85 35.9 17.05 36.0 17.3 35.95 17.4 36.1 17.4 36.3 17.1 36.3 17.3 36.4 Q16.7 36.4 17.0 36.5 L16.4 36.35 16.65 36.35 17.0 36.3 Q17.6 36.15 16.9 36.15 L17.0 36.25 16.4 36.2 16.45 36.25 Q16.2 36.25 16.2 36.15 L16.5 36.1 16.15 35.95 16.2 35.85 16.0 35.7 16.75 35.75 16.85 35.6 16.1 35.55 16.35 35.5 15.9 35.4 15.95 34.9 16.2 34.85 16.05 34.85 15.95 34.85 15.85 34.75 15.7 34.6 15.75 34.45 15.65 34.4 Q15.5 34.3 15.6 34.5 L15.55 34.7 15.8 35.05 Q15.8 35.35 15.55 34.95 L15.5 35.05 15.6 35.3 15.25 35.35 Q15.1 35.45 14.8 35.2 L14.85 35.35 14.7 35.1 14.7 35.4 14.7 35.75 14.55 35.6 14.65 35.9 14.2 35.3 14.2 35.65 13.95 35.35 14.0 35.6 13.95 35.55 Q13.85 35.35 13.85 35.6 L14.1 35.8 14.1 36.1 Q14.05 35.95 13.8 35.95 L13.8 36.25 Q13.65 36.25 13.65 36.05 L13.75 36.0 13.6 35.85 13.55 35.9 Q13.75 36.45 13.55 36.3 L13.5 36.0 13.35 35.9 13.4 36.15 13.35 36.05 13.25 36.3 13.15 36.5 12.8 36.3 12.35 36.4 12.35 36.35 11.85 36.4 11.9 35.8 11.85 35.6 11.45 35.65 11.15 35.95 10.7 35.25 Q10.5 34.85 10.7 34.6 L10.45 34.45 10.45 33.75 Q10.5 33.35 10.85 33.3 L11.25 33.45 Q11.5 33.45 11.15 33.25 L10.7 33.2 10.75 32.85 11.05 32.65 10.85 32.5 11.2 32.45 11.05 32.3 11.25 32.4 11.1 32.2 11.15 32.1 11.35 32.25 Q11.05 31.7 11.35 31.75 L11.65 31.9 11.65 31.75 11.45 31.65 12.1 31.75 Q11.75 30.75 12.7 30.5 L12.75 30.65 12.8 30.55 12.8 30.4 13.05 30.9 Q13.25 31.0 13.15 30.45 L13.05 30.3 13.2 30.3 13.2 30.05 13.4 30.55 13.4 30.4 13.55 30.95 13.75 31.55 13.8 31.5 13.9 31.85 14.0 32.0 13.75 31.2 13.65 30.75 13.6 30.6 13.65 30.5 13.75 30.35 13.75 30.5 Q13.6 30.55 13.7 30.7 L13.9 30.7 14.0 30.55 Q13.75 30.4 13.95 30.0 L14.05 30.25 14.15 30.35 14.25 30.05 14.15 29.85 Q14.15 29.6 14.3 29.7 L14.5 29.6 14.45 30.1 14.55 30.5 14.7 30.1 14.75 29.6 14.8 30.15 15.05 30.0 Q15.25 29.85 15.2 30.2 L15.3 29.9 15.4 30.3 15.75 30.25 15.8 30.5 16.15 30.25 15.95 30.2 15.9 29.95 Q15.9 30.15 16.1 30.1 L16.4 30.0 16.45 28.85 16.45 28.65 16.4 28.55 15.5 28.75 Q15.35 28.7 14.9 29.15 L13.0 29.1 Q12.15 28.95 11.8 28.65 11.3 28.25 11.15 27.6 L10.95 26.55 11.45 26.7 12.15 27.1 12.95 27.45 Q13.45 27.55 13.5 27.15 L13.7 27.45 Q13.75 26.45 15.05 27.05 L15.1 27.2 15.2 26.8 15.3 27.05 15.3 26.8 15.35 26.65 15.6 27.05 15.5 26.75 Q15.4 26.3 15.6 26.35 L15.85 26.2 M17.25 33.5 L17.35 33.45 17.3 33.35 17.2 33.4 17.25 33.5" fill="#825f3e" fill-rule="evenodd" stroke="none"/>
      <path d="M17.15 31.0 L17.1 30.95 Q17.1 30.8 17.3 30.8 L17.15 31.0" fill="#825f3e" fill-rule="evenodd" stroke="none"/>
      <path d="M19.0 32.15 Q18.95 32.05 19.05 32.1 L19.15 32.2 19.0 32.15" fill="#825f3e" fill-rule="evenodd" stroke="none"/>
      <path d="M17.8 20.0 L17.9 20.4 17.75 20.4 17.95 20.6 Q17.95 20.85 18.1 20.9 L17.75 21.75 17.25 22.45 17.15 22.55 17.2 22.65 17.3 22.7 17.3 22.85 17.2 22.8 Q17.4 22.95 17.2 22.95 17.05 22.85 17.1 23.05 L17.15 23.25 16.8 22.8 16.7 22.9 17.0 23.25 16.8 23.1 17.0 23.5 16.6 23.7 16.4 23.55 16.55 23.9 Q16.45 24.0 16.5 24.05 L16.3 24.2 16.1 24.2 15.65 24.95 15.5 24.75 15.3 24.55 15.6 25.1 Q15.3 24.95 15.4 25.55 L15.25 25.35 15.2 25.65 14.9 25.6 14.65 25.35 14.75 26.05 14.3 25.95 13.9 26.5 13.25 26.85 13.2 26.55 Q12.95 27.0 12.4 26.9 L11.55 26.8 11.75 26.35 11.55 26.35 11.3 26.7 11.05 26.6 10.95 26.35 10.8 26.35 10.55 26.45 10.15 26.0 10.05 26.05 10.05 25.95 10.15 26.0 10.3 25.75 10.2 25.75 10.1 25.65 9.8 25.9 9.5 25.4 Q9.15 25.15 9.3 24.85 L9.0 24.9 8.95 24.4 8.8 24.0 9.1 23.9 8.8 23.85 Q8.6 23.55 8.8 23.15 L9.1 22.6 Q8.95 22.1 9.5 21.0 L9.6 21.05 Q9.45 20.9 9.7 20.8 L9.65 20.5 9.8 20.5 9.95 20.55 Q9.85 20.45 10.05 20.35 L10.2 20.2 10.4 20.05 10.55 19.9 10.7 20.05 10.7 19.9 Q10.6 19.75 10.85 19.95 L10.65 19.75 11.0 19.35 11.2 18.75 11.55 18.95 11.2 18.2 12.15 18.15 12.05 17.9 12.75 16.9 13.55 15.95 16.45 14.15 17.35 16.85 17.9 18.05 Q18.2 18.8 18.15 19.6 L17.8 20.0 M15.4 20.5 L15.45 20.5 15.4 20.45 15.45 20.4 15.5 20.4 15.45 20.3 15.25 20.3 15.85 20.35 Q15.55 20.1 15.35 19.35 L15.65 19.15 15.35 19.1 15.5 19.0 15.25 18.95 15.6 18.85 15.2 18.75 15.4 18.7 15.25 18.65 15.2 18.55 15.4 18.5 15.25 18.5 15.05 18.5 15.3 18.4 14.95 18.4 15.2 18.7 14.9 18.8 14.55 18.35 14.35 18.15 14.25 18.0 14.2 18.2 14.55 19.0 14.35 18.75 14.65 19.3 Q14.6 19.35 14.45 19.2 L14.6 19.4 14.5 19.45 14.25 19.3 14.1 19.1 14.1 19.3 14.05 19.25 14.1 19.4 14.3 19.65 14.3 19.85 14.15 19.6 14.35 20.25 14.2 20.0 Q14.05 19.95 14.05 20.2 L14.05 20.3 14.2 20.4 Q14.25 20.6 14.4 20.5 L14.25 20.65 14.8 20.6 15.2 20.55 15.1 21.0 15.35 20.55 15.4 20.55 15.4 20.5 M13.85 20.45 L13.85 20.4 13.8 20.4 13.85 20.45 M13.25 22.8 L13.25 22.85 13.25 22.8 M13.05 22.65 L12.8 22.45 12.55 22.3 12.55 22.35 12.75 22.5 12.55 22.6 12.1 22.55 12.25 22.7 12.3 22.7 12.25 22.7 12.0 22.55 12.15 22.75 12.4 22.95 12.2 22.9 12.45 23.05 11.8 22.8 12.0 23.0 11.7 22.9 11.8 23.0 11.8 23.05 12.1 23.1 12.35 23.2 12.1 23.2 12.3 23.3 12.1 23.25 Q11.3 22.85 11.9 23.25 L12.0 23.25 12.1 23.3 12.0 23.25 11.85 23.3 12.1 23.35 12.0 23.3 12.4 23.4 12.15 23.45 12.2 23.45 12.35 23.5 11.7 23.6 12.3 23.55 12.35 23.55 12.4 23.5 12.0 23.9 12.15 23.8 12.45 23.5 Q12.55 23.4 12.6 23.4 L12.55 23.45 Q12.1 24.0 12.45 23.65 L12.55 23.5 12.6 23.45 12.55 23.55 12.55 23.65 12.5 23.9 12.65 23.4 12.65 23.2 12.7 23.75 12.7 23.25 12.7 23.05 12.8 23.5 13.0 24.6 13.1 24.85 13.0 24.3 13.0 23.95 12.9 23.8 12.95 23.75 13.0 23.95 13.0 23.75 12.8 23.2 12.95 23.55 12.8 23.1 12.8 22.95 13.1 23.7 12.8 22.85 13.0 23.35 13.0 23.2 13.1 23.35 13.0 23.05 13.15 23.35 13.15 23.2 13.25 23.35 13.15 23.05 13.0 22.9 12.95 22.7 13.05 22.85 13.0 22.65 13.15 22.85 13.05 22.65" fill="#825f3e" fill-rule="evenodd" stroke="none"/>
    </g>
  </defs>
</svg>
