<?xml version="1.0" encoding="UTF-8" standalone="no"?>
<svg xmlns:xlink="http://www.w3.org/1999/xlink" height="40.3px" width="35.3px" xmlns="http://www.w3.org/2000/svg">
  <g transform="matrix(1.0, 0.0, 0.0, 1.0, 0.0, 0.0)">
    <use height="40.3" transform="matrix(1.0, 0.0, 0.0, 1.0, 0.0, 0.0)" width="35.3" xlink:href="#shape0"/>
  </g>
  <defs>
    <g id="shape0" transform="matrix(1.0, 0.0, 0.0, 1.0, 0.0, 0.0)">
      <path d="M17.55 34.9 Q17.95 33.6 18.9 31.95 20.8 28.7 23.5 27.2 26.4 25.6 29.05 25.6 L29.1 27.75 Q25.5 28.25 23.65 29.75 21.8 31.2 19.15 35.85 L17.55 34.9" fill="#284b40" fill-rule="evenodd" stroke="none"/>
      <path d="M35.3 26.25 Q35.3 28.15 33.95 29.55 32.6 30.9 30.7 30.9 28.75 30.9 27.4 29.55 26.05 28.2 26.05 26.3 26.0 24.35 27.4 23.0 28.75 21.65 30.65 21.65 32.55 21.6 33.95 23.0 35.3 24.35 35.3 26.25" fill="#284b40" fill-rule="evenodd" stroke="none"/>
      <path d="M33.85 26.25 Q33.85 27.55 32.95 28.5 32.0 29.45 30.65 29.45 29.35 29.45 28.4 28.55 27.5 27.6 27.5 26.3 27.5 24.95 28.4 24.05 29.35 23.1 30.65 23.1 31.95 23.1 32.9 24.0 33.85 24.95 33.85 26.25" fill="#1c7d51" fill-rule="evenodd" stroke="none"/>
      <path d="M17.85 34.9 L16.25 35.85 Q13.6 31.25 11.75 29.75 10.55 28.85 8.3 28.25 L6.3 27.8 6.3 25.7 8.0 25.9 Q10.05 26.3 11.85 27.25 14.6 28.75 16.5 32.0 17.45 33.6 17.85 34.9" fill="#284b40" fill-rule="evenodd" stroke="none"/>
      <path d="M0.05 26.35 Q0.05 24.45 1.4 23.05 2.75 21.7 4.7 21.7 6.6 21.7 7.95 23.05 9.3 24.4 9.35 26.35 9.35 28.25 8.0 29.65 6.6 31.0 4.7 31.0 2.8 31.0 1.4 29.65 0.05 28.3 0.05 26.35" fill="#284b40" fill-rule="evenodd" stroke="none"/>
      <path d="M1.5 26.35 Q1.5 25.05 2.45 24.1 3.4 23.2 4.7 23.15 6.0 23.15 6.95 24.1 7.85 25.05 7.85 26.35 7.9 27.65 6.95 28.6 6.0 29.55 4.7 29.55 3.4 29.55 2.45 28.6 1.5 27.65 1.5 26.35" fill="#559e85" fill-rule="evenodd" stroke="none"/>
      <path d="M17.5 20.25 Q17.9 18.95 18.85 17.3 20.75 14.05 23.45 12.55 26.35 10.95 29.05 10.95 L29.05 13.1 Q25.45 13.6 23.6 15.1 21.75 16.55 19.1 21.2 L17.5 20.25" fill="#284b40" fill-rule="evenodd" stroke="none"/>
      <path d="M35.25 11.6 Q35.25 13.5 33.9 14.9 32.55 16.25 30.65 16.25 28.7 16.25 27.35 14.9 26.0 13.55 26.0 11.65 25.95 9.7 27.35 8.35 28.7 7.0 30.6 7.0 32.5 6.95 33.9 8.35 35.25 9.7 35.25 11.6" fill="#284b40" fill-rule="evenodd" stroke="none"/>
      <path d="M33.8 11.6 Q33.8 12.9 32.9 13.85 31.95 14.8 30.65 14.8 29.3 14.8 28.4 13.9 27.45 12.95 27.45 11.6 27.45 10.3 28.35 9.35 29.3 8.45 30.6 8.45 31.9 8.45 32.85 9.35 33.8 10.3 33.8 11.6" fill="#5db588" fill-rule="evenodd" stroke="none"/>
      <path d="M17.8 20.25 L16.2 21.2 Q13.55 16.55 11.7 15.1 10.5 14.2 8.25 13.6 L6.25 13.15 6.25 11.05 Q8.9 11.0 11.8 12.6 14.55 14.05 16.45 17.3 L17.8 20.25" fill="#284b40" fill-rule="evenodd" stroke="none"/>
      <path d="M0.0 11.7 Q0.0 9.8 1.35 8.4 2.7 7.05 4.65 7.05 6.55 7.05 7.9 8.4 9.25 9.75 9.3 11.7 9.3 13.6 7.95 15.0 6.55 16.35 4.65 16.35 2.75 16.35 1.35 15.0 0.0 13.6 0.0 11.7" fill="#284b40" fill-rule="evenodd" stroke="none"/>
      <path d="M1.45 11.7 Q1.45 10.4 2.4 9.45 3.35 8.5 4.65 8.5 5.95 8.5 6.9 9.45 7.8 10.4 7.8 11.7 7.85 13.0 6.9 13.95 6.0 14.85 4.65 14.9 3.35 14.9 2.4 13.95 1.45 13.0 1.45 11.7" fill="#1c7d51" fill-rule="evenodd" stroke="none"/>
      <path d="M14.8 38.35 L14.7 5.6 20.4 5.55 20.45 38.35 Q20.4 40.4 17.6 40.3 14.8 40.25 14.8 38.35" fill="#284b40" fill-rule="evenodd" stroke="none"/>
      <path d="M12.65 4.65 Q12.65 2.75 14.0 1.35 15.35 0.0 17.25 0.0 19.2 0.0 20.55 1.35 21.9 2.7 21.9 4.65 21.95 6.55 20.6 7.9 19.25 9.25 17.3 9.3 15.4 9.3 14.0 7.95 12.65 6.55 12.65 4.65" fill="#284b40" fill-rule="evenodd" stroke="none"/>
      <path d="M14.1 4.65 Q14.1 3.35 15.0 2.4 15.95 1.45 17.25 1.45 18.6 1.45 19.55 2.4 20.45 3.35 20.45 4.65 20.45 5.95 19.55 6.9 18.6 7.8 17.3 7.8 16.0 7.85 15.05 6.9 14.1 5.95 14.1 4.65" fill="#1c7d51" fill-rule="evenodd" stroke="none"/>
    </g>
  </defs>
</svg>
