<?xml version="1.0" encoding="UTF-8" standalone="no"?>
<svg xmlns:xlink="http://www.w3.org/1999/xlink" height="40.0px" width="46.85px" xmlns="http://www.w3.org/2000/svg">
  <g transform="matrix(1.0, 0.0, 0.0, 1.0, 0.0, 0.0)">
    <use height="27.9" transform="matrix(0.9733, -0.2504, 0.2165, 0.9717, -5.45, 4.9)" width="24.45" xlink:href="#shape0"/>
    <use height="22.6" transform="matrix(0.9733, -0.2504, 0.2851, 0.9906, 10.9, 15.15)" width="22.15" xlink:href="#shape1"/>
    <use height="20.1" transform="matrix(0.9733, -0.2504, 0.2851, 0.9906, 24.3769, 19.6624)" width="14.95" xlink:href="#morphshape0"/>
    <use height="15.65" transform="matrix(0.9733, -0.2504, 0.2851, 0.9906, 8.9373, 12.1439)" width="15.7" xlink:href="#morphshape1"/>
    <use height="17.05" transform="matrix(0.9733, -0.2504, 0.2851, 0.9906, 10.9865, 14.5426)" width="20.7" xlink:href="#morphshape2"/>
    <use height="14.45" transform="matrix(0.9733, -0.2504, 0.2165, 0.9717, 23.7, 23.95)" width="15.4" xlink:href="#shape2"/>
    <use height="14.7" transform="matrix(0.9733, -0.2504, 0.2165, 0.9717, 31.7, 29.15)" width="15.1" xlink:href="#shape3"/>
  </g>
  <defs>
    <g id="shape0" transform="matrix(1.0, 0.0, 0.0, 1.0, 0.0, 0.0)">
      <path d="M17.2 13.95 Q14.75 13.85 14.2 15.5 L11.0 12.45 5.85 6.8 1.15 1.2 0.45 0.0 1.5 0.4 Q1.6 1.0 2.8 2.5 L11.3 11.1 13.9 14.1 Q13.9 13.8 14.25 13.55 14.9 12.85 16.3 12.95 L17.2 13.95" fill="#8b7d4c" fill-rule="evenodd" stroke="none"/>
      <path d="M17.2 13.95 L23.85 20.1 23.85 20.2 24.4 22.95 24.4 23.1 24.45 23.65 Q24.55 25.2 23.9 25.55 23.45 25.75 24.15 27.75 L24.25 27.9 6.0 8.25 Q-0.85 0.55 0.15 0.0 L0.45 0.0 1.15 1.2 5.85 6.8 11.0 12.45 14.2 15.5 Q14.75 13.85 17.2 13.95" fill="#595030" fill-rule="evenodd" stroke="none"/>
      <path d="M6.05 3.75 L9.2 6.65 9.85 7.15 14.95 11.9 Q15.0 12.3 14.45 12.2 L12.65 11.15 Q11.55 10.6 10.55 9.15 L8.95 7.4 4.35 2.9 Q3.55 2.1 4.0 2.15 L6.05 3.75" fill="#ccb66f" fill-rule="evenodd" stroke="none"/>
      <path d="M0.45 0.0 Q1.7 0.05 6.05 3.75 L4.0 2.15 Q3.55 2.1 4.35 2.9 L8.95 7.4 10.55 9.15 Q11.55 10.6 12.65 11.15 L14.45 12.2 Q15.0 12.3 14.95 11.9 L16.3 12.95 Q14.9 12.85 14.25 13.55 13.9 13.8 13.9 14.1 L11.3 11.1 2.8 2.5 Q1.6 1.0 1.5 0.4 L0.45 0.0" fill="#9d8c55" fill-rule="evenodd" stroke="none"/>
    </g>
    <g id="shape1" transform="matrix(1.0, 0.0, 0.0, 1.0, 0.0, 0.0)">
      <path d="M22.15 16.3 L22.0 16.05 20.55 13.95 Q19.4 12.15 18.6 13.5 17.75 14.8 16.75 14.3 15.75 13.8 15.6 14.45 15.45 15.0 14.15 15.7 L10.4 15.15 9.8 15.85 9.5 15.7 9.1 15.35 Q8.55 15.7 7.65 14.5 L7.0 12.8 6.9 13.15 Q6.6 12.95 6.45 12.3 6.3 11.5 6.0 11.45 L5.7 11.4 5.4 11.35 4.7 10.35 Q4.7 10.8 4.15 10.15 3.55 9.7 3.45 9.3 L3.5 8.75 3.25 8.65 Q3.05 8.5 3.25 7.95 L3.4 7.45 2.55 7.8 2.4 7.8 2.4 7.65 2.0 7.85 Q1.7 7.7 1.55 7.05 L1.3 6.2 Q0.6 6.85 1.15 4.7 L1.5 3.65 Q1.5 3.95 1.85 4.1 1.6 5.0 2.9 3.9 1.6 6.6 2.0 6.25 2.35 5.9 3.15 6.45 L3.3 6.55 Q4.0 6.15 4.75 5.9 L4.75 5.85 6.2 4.7 6.2 4.9 6.65 5.0 6.05 5.9 5.95 6.2 6.05 6.2 6.05 6.3 Q5.05 7.4 5.75 8.2 L6.5 7.05 7.0 6.45 7.1 6.4 7.55 6.7 Q8.4 5.8 10.45 5.7 L10.2 5.95 9.15 6.1 Q8.35 6.35 7.85 6.75 8.85 6.25 9.9 6.1 L11.25 6.0 11.25 6.1 10.9 6.15 Q10.25 6.25 9.95 6.55 L10.45 6.9 9.35 7.15 Q7.65 7.4 6.4 8.55 L7.1 8.6 6.7 9.5 Q7.15 9.85 7.6 9.7 L7.5 10.2 7.35 10.75 7.95 11.75 8.15 12.0 Q7.9 11.05 8.7 9.8 9.3 9.75 10.0 9.35 L10.05 9.35 9.35 10.4 Q8.7 11.25 8.45 12.25 L9.0 12.55 9.15 12.05 9.25 12.35 10.0 11.5 10.05 11.5 10.1 11.65 10.6 11.05 11.45 10.5 11.7 10.4 11.45 10.75 11.7 10.95 11.4 11.1 11.75 11.3 Q10.6 11.75 9.85 12.6 L9.9 13.7 11.2 12.7 11.0 13.7 10.9 13.95 Q11.25 13.2 12.7 13.2 L14.9 13.4 Q15.65 13.65 15.05 12.5 14.45 11.3 16.5 11.55 L19.6 11.8 21.8 13.85 21.95 14.25 21.85 14.4 22.15 16.3 M1.45 2.75 L0.55 4.0 0.3 4.55 0.55 3.7 0.25 4.1 0.2 3.75 Q0.35 3.0 1.0 1.95 L1.05 2.0 1.55 2.4 1.45 2.75 M13.15 10.0 L13.25 10.0 13.25 10.15 13.15 10.2 13.15 10.0 M7.25 1.3 L7.2 1.25 6.7 1.35 6.45 1.35 5.7 1.25 5.35 1.15 4.15 1.05 4.1 1.05 Q4.85 0.55 5.75 0.7 L7.55 1.25 7.25 1.3 M5.8 2.9 L5.75 3.0 6.05 3.3 Q5.2 3.55 4.45 4.1 L4.35 4.15 2.65 5.75 Q2.4 4.75 3.2 4.05 L4.45 3.25 4.95 3.0 Q4.8 3.2 4.95 3.45 L5.25 3.5 5.65 3.1 5.8 2.9" fill="#a0987a" fill-rule="evenodd" stroke="none"/>
      <path d="M3.7 0.1 Q5.0 -0.2 6.7 0.45 L8.05 1.35 8.1 1.45 7.25 1.3 7.55 1.25 5.75 0.7 Q4.85 0.55 4.1 1.05 L3.2 0.95 Q-0.8 3.45 3.7 0.1 M8.8 1.85 L9.4 2.25 18.35 10.6 16.45 10.4 14.5 10.9 15.0 10.5 14.8 10.5 Q15.85 10.25 15.9 9.85 L16.3 9.9 15.85 9.7 15.7 9.5 15.55 9.55 15.5 9.5 15.95 9.4 15.8 9.15 15.55 9.05 15.5 8.9 15.35 8.7 Q15.2 8.45 13.9 8.2 14.15 7.45 14.0 7.15 L13.3 6.45 12.9 6.35 13.1 6.3 12.75 5.95 12.2 5.9 11.25 4.95 11.6 5.0 Q11.5 4.5 10.9 4.45 L10.55 4.45 10.2 4.3 10.5 3.8 Q10.4 3.6 9.75 3.35 L8.85 3.05 9.05 2.4 8.8 1.85 M19.0 11.2 L21.9 13.9 21.95 14.25 21.8 13.85 19.6 11.8 19.0 11.2 M11.7 10.95 L11.45 10.75 11.7 10.4 11.45 10.5 11.25 10.15 11.75 9.25 12.75 8.55 12.55 8.65 14.15 9.1 13.9 9.1 Q12.6 9.25 11.8 9.85 L13.1 10.0 13.15 10.0 13.15 10.2 11.7 10.95 M10.6 11.05 L10.1 11.65 10.05 11.5 Q9.6 10.6 10.35 9.7 L10.6 9.4 10.15 9.7 10.0 9.7 10.2 9.25 Q10.15 9.25 10.05 9.35 L10.0 9.35 Q9.3 9.75 8.7 9.8 L8.45 9.8 Q8.75 8.6 10.05 8.05 L10.65 7.85 10.6 7.85 Q10.15 8.35 10.75 8.55 10.85 8.1 11.2 7.95 L13.25 7.25 13.2 7.45 13.5 7.55 13.55 7.55 13.55 7.6 13.95 7.7 Q13.75 8.1 12.8 8.5 L12.75 8.5 11.95 8.8 11.6 8.95 Q11.6 9.7 10.8 10.75 L10.6 11.05 M11.25 6.1 L11.25 6.0 9.9 6.1 Q8.85 6.25 7.85 6.75 8.35 6.35 9.15 6.1 L10.2 5.95 10.45 5.7 Q8.4 5.8 7.55 6.7 L7.1 6.4 7.0 6.45 6.5 7.05 5.75 8.2 Q5.05 7.4 6.05 6.3 L6.1 6.45 6.15 6.5 8.25 5.45 Q9.2 4.95 10.2 4.9 11.45 5.5 11.55 5.95 L11.3 6.0 11.4 6.05 11.25 6.1 M6.05 6.2 L5.95 6.2 6.05 5.9 6.65 5.0 6.2 4.9 6.2 4.7 6.5 4.15 6.05 3.95 4.45 4.1 Q5.2 3.55 6.05 3.3 L6.3 3.35 7.8 2.9 7.65 2.65 8.2 2.7 Q8.45 2.75 8.5 2.95 L7.8 3.3 Q7.7 3.35 7.7 3.55 L8.9 3.9 9.15 4.0 8.35 4.05 Q7.45 4.0 7.1 4.5 7.45 4.85 7.95 4.85 L7.35 5.25 6.25 5.95 6.05 6.2 M11.5 6.7 L12.6 6.4 12.65 6.4 13.2 7.1 13.1 7.05 12.55 6.9 12.3 6.9 12.75 6.85 11.5 6.7 M13.25 10.0 L13.45 9.9 13.35 10.15 13.25 10.15 13.25 10.0 M14.55 10.55 Q14.4 11.0 13.25 11.4 12.7 11.6 12.25 11.4 L12.2 11.4 12.1 11.3 12.65 11.15 14.35 10.6 14.55 10.55 M6.45 1.35 Q5.6 1.25 5.25 1.8 L6.1 1.9 8.05 2.15 7.2 2.45 7.35 2.6 6.4 2.5 5.95 2.7 5.8 2.8 5.8 2.85 5.8 2.9 5.65 3.1 5.25 3.5 4.95 3.45 Q4.8 3.2 4.95 3.0 L4.45 3.25 4.4 2.75 4.05 2.25 Q4.1 1.6 5.7 1.25 L6.45 1.35 M10.05 4.05 L10.0 4.4 9.35 4.4 9.3 4.1 9.5 4.25 10.05 4.05" fill="#dcd1aa" fill-rule="evenodd" stroke="none"/>
      <path d="M22.15 16.3 L22.1 16.95 Q21.75 20.3 19.1 21.65 16.4 23.1 14.05 22.35 12.75 21.95 12.1 21.3 L0.45 7.4 Q-0.25 5.8 0.1 4.25 L0.15 3.8 0.2 3.75 0.25 4.1 0.55 3.7 0.3 4.55 0.55 4.0 1.45 2.75 2.2 2.15 Q1.8 2.6 1.5 3.65 L1.15 4.7 Q0.6 6.85 1.3 6.2 L1.55 7.05 Q1.7 7.7 2.0 7.85 L2.4 7.65 2.4 7.8 2.55 7.8 3.4 7.45 3.25 7.95 Q3.05 8.5 3.25 8.65 L3.5 8.75 3.45 9.3 Q3.55 9.7 4.15 10.15 4.7 10.8 4.7 10.35 L5.4 11.35 5.7 11.4 6.0 11.45 Q6.3 11.5 6.45 12.3 6.6 12.95 6.9 13.15 L7.0 12.8 7.65 14.5 Q8.55 15.7 9.1 15.35 L9.5 15.7 9.8 15.85 10.4 15.15 14.15 15.7 Q15.45 15.0 15.6 14.45 15.75 13.8 16.75 14.3 17.75 14.8 18.6 13.5 19.4 12.15 20.55 13.95 L22.0 16.05 22.15 16.3" fill="#696450" fill-rule="evenodd" stroke="none"/>
      <path d="M8.05 1.35 L7.65 1.0 Q8.0 0.9 8.55 1.5 L8.8 1.85 9.05 2.4 8.85 3.05 9.75 3.35 Q10.4 3.6 10.5 3.8 L10.2 4.3 10.55 4.45 10.9 4.45 Q11.5 4.5 11.6 5.0 L11.25 4.95 12.2 5.9 12.75 5.95 13.1 6.3 12.9 6.35 13.3 6.45 14.0 7.15 Q14.15 7.45 13.9 8.2 15.2 8.45 15.35 8.7 L15.5 8.9 15.55 9.05 15.8 9.15 15.95 9.4 15.5 9.5 15.55 9.55 15.7 9.5 15.85 9.7 16.3 9.9 15.9 9.85 Q15.85 10.25 14.8 10.5 L14.55 10.55 14.35 10.6 12.65 11.15 12.1 11.3 11.75 11.3 11.4 11.1 11.7 10.95 13.15 10.2 13.25 10.15 13.35 10.15 13.45 9.9 13.25 10.0 13.15 10.0 13.1 10.0 11.8 9.85 Q12.6 9.25 13.9 9.1 L14.15 9.1 12.55 8.65 12.75 8.55 12.8 8.5 Q13.75 8.1 13.95 7.7 L13.55 7.6 13.55 7.55 13.5 7.55 13.2 7.45 13.25 7.25 11.2 7.95 Q10.85 8.1 10.75 8.55 10.15 8.35 10.6 7.85 L10.65 7.85 Q11.3 7.0 12.3 6.9 L12.55 6.9 13.1 7.05 13.2 7.1 12.65 6.4 12.6 6.4 11.5 6.7 11.2 6.8 10.45 6.9 9.95 6.55 Q10.25 6.25 10.9 6.15 L11.25 6.1 11.4 6.05 11.3 6.0 11.55 5.95 Q11.45 5.5 10.2 4.9 9.2 4.95 8.25 5.45 L6.15 6.5 6.1 6.45 6.05 6.3 6.05 6.2 6.25 5.95 7.35 5.25 7.95 4.85 Q7.45 4.85 7.1 4.5 7.45 4.0 8.35 4.05 L9.15 4.0 8.9 3.9 7.7 3.55 Q7.7 3.35 7.8 3.3 L8.5 2.95 Q8.45 2.75 8.2 2.7 L7.65 2.65 7.8 2.9 6.3 3.35 6.05 3.3 5.75 3.0 5.8 2.9 5.8 2.85 5.8 2.8 5.95 2.7 6.4 2.5 7.35 2.6 7.2 2.45 8.05 2.15 6.1 1.9 5.25 1.8 Q5.6 1.25 6.45 1.35 L6.7 1.35 7.2 1.25 7.25 1.3 8.1 1.45 8.05 1.35 M10.05 4.05 L9.5 4.25 9.3 4.1 9.35 4.4 10.0 4.4 10.05 4.05" fill="#faeec1" fill-rule="evenodd" stroke="none"/>
      <path d="M1.5 3.65 Q1.8 2.6 2.2 2.15 L1.45 2.75 1.55 2.4 1.05 2.0 1.0 1.95 1.35 1.6 Q2.0 0.95 2.7 0.55 L3.2 0.3 3.7 0.1 Q-0.8 3.45 3.2 0.95 L4.1 1.05 4.15 1.05 5.35 1.15 5.7 1.25 Q4.1 1.6 4.05 2.25 L4.4 2.75 4.45 3.25 3.2 4.05 Q2.4 4.75 2.65 5.75 L4.35 4.15 4.45 4.1 6.05 3.95 6.5 4.15 6.2 4.7 4.75 5.85 4.75 5.9 Q4.0 6.15 3.3 6.55 L3.15 6.45 Q2.35 5.9 2.0 6.25 1.6 6.6 2.9 3.9 1.6 5.0 1.85 4.1 1.5 3.95 1.5 3.65 M18.35 10.6 L19.0 11.2 19.6 11.8 16.5 11.55 Q14.45 11.3 15.05 12.5 15.65 13.65 14.9 13.4 L12.7 13.2 Q11.25 13.2 10.9 13.95 L11.0 13.7 11.2 12.7 9.9 13.7 9.85 12.6 Q10.6 11.75 11.75 11.3 L12.1 11.3 12.2 11.4 12.25 11.4 Q12.7 11.6 13.25 11.4 14.4 11.0 14.55 10.55 L14.8 10.5 15.0 10.5 14.5 10.9 16.45 10.4 18.35 10.6 M11.45 10.5 L10.6 11.05 10.8 10.75 Q11.6 9.7 11.6 8.95 L11.95 8.8 12.75 8.5 12.8 8.5 12.75 8.55 11.75 9.25 11.25 10.15 11.45 10.5 M10.05 11.5 L10.0 11.5 9.25 12.35 9.15 12.05 9.0 12.55 8.45 12.25 Q8.7 11.25 9.35 10.4 L10.05 9.35 Q10.15 9.25 10.2 9.25 L10.0 9.7 10.15 9.7 10.6 9.4 10.35 9.7 Q9.6 10.6 10.05 11.5 M8.7 9.8 Q7.9 11.05 8.15 12.0 L7.95 11.75 7.35 10.75 7.5 10.2 7.6 9.7 Q7.15 9.85 6.7 9.5 L7.1 8.6 6.4 8.55 Q7.65 7.4 9.35 7.15 L10.45 6.9 11.2 6.8 11.5 6.7 12.75 6.85 12.3 6.9 Q11.3 7.0 10.65 7.85 L10.05 8.05 Q8.75 8.6 8.45 9.8 L8.7 9.8" fill="#c0b692" fill-rule="evenodd" stroke="none"/>
    </g>
    <g id="morphshape0" transform="matrix(1.0, 0.0, 0.0, 1.0, -11.65, -7.5)">
      <path d="M12.15 9.95 Q12.5 10.45 12.7 10.65 13.0 10.7 14.4 11.5 16.7 11.5 17.8 12.05 L18.55 12.55 Q19.1 12.95 19.45 13.5 M13.0 19.5 Q15.4 20.45 18.7 19.0 21.85 17.15 21.75 16.0 21.75 15.8 21.5 15.7" fill="none" stroke="#c0b692" stroke-linecap="round" stroke-linejoin="round" stroke-width="0.5"/>
    </g>
    <g id="morphshape1" transform="matrix(1.0, 0.0, 0.0, 1.0, 1.05, 3.3)">
      <path d="M7.4 0.9 Q6.75 0.5 4.75 -0.7 2.25 1.05 2.1 3.25 L2.25 4.45 2.6 6.0 2.95 7.0 Q3.4 7.85 3.9 8.2 3.4 2.05 3.15 2.05 2.0 2.5 0.95 5.1 -0.5 8.7 3.0 9.9 L5.25 4.85 6.45 4.4 Q7.4 4.1 8.2 4.25 L9.25 4.45 Q9.95 4.7 10.6 5.2" fill="none" stroke="#c0b692" stroke-linecap="round" stroke-linejoin="round" stroke-width="0.5"/>
    </g>
    <g id="morphshape2" transform="matrix(1.0, 0.0, 0.0, 1.0, -0.25, 0.55)">
      <path d="M1.9 7.6 L1.8 6.6 Q1.85 4.55 3.15 3.1 4.35 2.45 6.05 2.05 L6.05 6.0 5.65 5.6 Q5.3 5.15 4.9 4.9 L4.55 4.65 Q4.1 4.35 3.85 4.55 3.4 4.3 3.2 4.15 3.05 4.2 3.0 4.3 2.85 4.4 3.05 4.7 L3.15 4.75 4.7 4.55 4.75 4.95 5.05 5.2 6.7 6.15 6.85 6.2 6.85 6.3 6.6 6.1 6.45 6.0 6.25 5.7 6.1 4.8 6.4 6.7 6.35 6.6 Q6.3 6.35 6.05 6.2 L5.15 5.65 Q4.75 5.35 4.25 5.1 L4.35 4.95 4.8 4.1 5.55 2.6 6.45 1.75 6.85 1.55 7.5 1.3 Q8.85 0.8 10.0 1.2 L10.45 1.35 Q11.0 1.65 11.45 2.15 L11.95 3.05 11.9 3.6 M2.1 9.25 Q3.45 7.2 5.1 5.95 L4.25 7.9 Q5.1 6.55 6.1 5.55 L9.7 6.1 Q9.85 5.45 8.6 5.95 7.3 6.75 6.5 7.55 L5.55 8.25 5.9 7.8 6.3 7.6 6.35 7.25 Q6.45 6.9 6.6 6.65 6.95 6.2 7.5 6.0 7.7 5.9 7.65 6.15 L7.45 6.3 M7.15 8.5 Q7.5 7.25 9.4 6.15 10.85 5.55 11.7 5.4 L13.0 5.5 13.25 5.4 13.6 5.45 Q13.35 6.25 12.7 6.6 12.1 6.95 11.35 7.05 M7.75 13.8 Q7.8 12.4 9.25 10.7 10.4 9.1 11.6 7.95 12.7 6.9 13.7 6.6 14.15 6.95 14.1 7.2 14.05 7.55 13.9 7.6 M7.95 13.45 Q7.95 12.0 8.6 11.15 10.8 9.55 12.15 9.0 11.65 11.6 13.65 9.25 L14.9 8.3 17.1 8.5 16.85 8.4 16.4 8.75 15.5 9.2 15.55 9.15 Q15.6 9.0 15.7 9.1 L15.9 9.2 M8.85 15.0 Q8.75 13.85 11.05 12.5 11.4 14.7 11.35 14.35 11.6 12.55 12.5 11.6 L17.35 10.95 16.55 10.4 Q16.1 10.3 15.5 10.65 18.8 9.5 18.9 9.45 L18.25 9.85 18.1 9.95 Q17.35 10.2 16.7 10.7 16.05 11.0 15.5 11.5 L14.7 12.2" fill="none" stroke="#c0b692" stroke-linecap="round" stroke-linejoin="round" stroke-width="0.5"/>
    </g>
    <g id="shape2" transform="matrix(1.0, 0.0, 0.0, 1.0, 0.0, 0.0)">
      <path d="M15.25 4.4 L15.4 5.35 15.25 5.05 15.3 5.9 14.35 4.5 Q13.85 3.7 12.95 3.2 12.4 2.85 11.8 2.65 9.4 2.0 6.9 3.55 4.5 4.8 3.5 7.4 L3.1 8.3 2.85 9.65 Q2.45 11.55 2.95 12.55 L3.0 12.65 Q3.45 13.65 5.2 14.4 L5.3 14.45 4.45 14.35 4.2 14.3 3.8 14.2 3.35 14.05 3.25 14.0 2.65 13.75 Q2.0 13.45 1.5 13.0 L1.15 12.65 0.95 12.35 1.25 12.45 Q1.6 12.45 1.8 11.4 1.9 9.7 2.2 9.0 L2.3 8.65 2.55 7.85 Q3.3 5.55 5.0 4.0 5.6 3.35 6.5 2.85 L6.6 2.8 7.7 2.45 Q8.65 1.95 9.6 1.95 9.75 1.8 9.95 1.8 L10.3 1.8 11.65 2.05 12.3 2.3 12.9 2.55 13.4 2.85 13.85 3.1 14.6 4.05 14.85 4.35 15.25 4.4" fill="#6f643d" fill-rule="evenodd" stroke="none"/>
      <path d="M15.4 5.35 L15.25 4.4 15.3 4.25 15.4 5.1 15.4 5.35 M15.05 3.55 Q14.95 3.75 13.25 2.65 L12.65 2.25 14.15 2.0 14.7 2.75 15.05 3.55 M0.15 7.15 L0.4 6.3 Q0.6 7.0 1.15 6.7 L4.45 3.65 Q7.15 1.25 9.95 1.8 L7.3 2.25 Q4.9 2.95 3.2 5.5 L1.6 8.7 1.0 9.75 Q0.85 9.95 0.25 9.75 L0.05 9.6 0.2 10.65 Q-0.1 9.25 0.05 7.95 L0.15 7.15" fill="#b1a061" fill-rule="evenodd" stroke="none"/>
      <path d="M3.0 12.65 L2.95 12.55 Q2.45 11.55 2.85 9.65 L3.35 10.75 4.25 11.7 Q4.9 12.15 5.7 12.3 L6.75 12.25 7.1 11.5 7.5 12.0 Q7.9 12.65 7.35 13.3 7.0 13.9 6.1 13.8 L4.15 13.25 3.0 12.65 M14.35 4.5 L15.3 5.9 15.25 5.05 15.4 5.35 15.15 7.2 14.9 7.65 14.75 7.85 14.65 8.05 13.95 8.65 13.65 9.15 Q12.75 9.8 12.25 8.95 L13.2 9.0 13.95 8.05 Q14.6 7.15 14.75 5.7 14.75 5.1 14.35 4.5" fill="#675d37" fill-rule="evenodd" stroke="none"/>
      <path d="M15.25 4.4 L14.85 4.35 14.6 4.05 13.85 3.1 13.4 2.85 12.9 2.55 12.3 2.3 11.65 2.05 10.3 1.8 9.95 1.8 Q9.75 1.8 9.6 1.95 8.65 1.95 7.7 2.45 L6.6 2.8 6.5 2.85 Q5.6 3.35 5.0 4.0 3.3 5.55 2.55 7.85 L2.3 8.65 2.2 9.0 Q1.9 9.7 1.8 11.4 1.6 12.45 1.25 12.45 L0.95 12.35 0.65 11.75 0.4 11.0 0.2 10.65 0.05 9.6 0.25 9.75 Q0.85 9.95 1.0 9.75 L1.6 8.7 3.2 5.5 Q4.9 2.95 7.3 2.25 L9.95 1.8 11.15 1.75 12.65 2.25 13.25 2.65 Q14.95 3.75 15.05 3.55 L15.2 4.05 15.3 4.25 15.25 4.4" fill="#877a4b" fill-rule="evenodd" stroke="none"/>
      <path d="M11.2 0.3 Q11.55 0.5 11.1 0.75 L10.45 0.95 8.8 1.0 Q7.2 1.15 6.1 1.65 L3.75 3.2 2.2 4.4 Q1.8 4.55 2.1 3.85 2.3 3.1 2.95 2.45 L4.3 1.4 Q7.1 -0.3 10.25 0.1 L10.6 0.2 11.1 0.25 11.2 0.3" fill="#cfbc79" fill-rule="evenodd" stroke="none"/>
      <path d="M12.65 2.25 L11.15 1.75 9.95 1.8 Q7.15 1.25 4.45 3.65 L1.15 6.7 Q0.6 7.0 0.4 6.3 L0.15 7.15 Q0.25 6.55 0.5 6.0 1.45 3.05 4.3 1.4 L2.95 2.45 Q2.3 3.1 2.1 3.85 1.8 4.55 2.2 4.4 L3.75 3.2 6.1 1.65 Q7.2 1.15 8.8 1.0 L10.45 0.95 11.1 0.75 Q11.55 0.5 11.2 0.3 L12.65 0.75 14.15 2.0 12.65 2.25" fill="#bdaa68" fill-rule="evenodd" stroke="none"/>
      <path d="M11.6 3.85 Q12.1 4.65 10.85 4.5 L9.05 4.8 7.4 5.75 6.55 6.35 6.2 6.15 Q5.7 5.75 5.9 5.45 6.25 4.4 7.6 3.65 L9.75 3.15 11.6 3.85" fill="#a09059" fill-rule="evenodd" stroke="none"/>
      <path d="M3.5 7.4 Q4.5 4.8 6.9 3.55 9.4 2.0 11.8 2.65 12.4 2.85 12.95 3.2 L13.0 3.3 Q14.05 4.9 14.15 5.55 14.25 6.8 13.45 7.6 12.75 8.2 11.6 7.9 L10.75 7.6 8.85 7.0 Q7.45 7.1 6.85 8.9 L5.3 8.55 Q4.35 8.3 3.8 7.7 L3.5 7.4 M11.6 3.85 L9.75 3.15 7.6 3.65 Q6.25 4.4 5.9 5.45 5.7 5.75 6.2 6.15 L6.55 6.35 7.4 5.75 9.05 4.8 10.85 4.5 Q12.1 4.65 11.6 3.85" fill="#87794a" fill-rule="evenodd" stroke="none"/>
      <path d="M2.85 9.65 L3.1 8.3 3.5 7.4 3.8 7.7 Q4.35 8.3 5.3 8.55 L6.85 8.9 6.7 9.35 Q6.4 10.15 6.65 10.7 L7.1 11.5 6.75 12.25 5.7 12.3 Q4.9 12.15 4.25 11.7 L3.35 10.75 2.85 9.65 M12.95 3.2 Q13.85 3.7 14.35 4.5 14.75 5.1 14.75 5.7 14.6 7.15 13.95 8.05 L13.2 9.0 12.25 8.95 12.15 9.0 11.6 7.9 Q12.75 8.2 13.45 7.6 14.25 6.8 14.15 5.55 14.05 4.9 13.0 3.3 L12.95 3.2" fill="#756a3f" fill-rule="evenodd" stroke="none"/>
      <path d="M5.2 14.4 Q3.45 13.65 3.0 12.65 L4.15 13.25 6.1 13.8 Q7.0 13.9 7.35 13.3 7.9 12.65 7.5 12.0 L7.1 11.5 6.65 10.7 Q6.4 10.15 6.7 9.35 L6.85 8.9 Q7.45 7.1 8.85 7.0 L10.75 7.6 11.6 7.9 12.15 9.0 12.25 8.95 Q12.75 9.8 13.65 9.15 L13.95 8.65 14.65 8.05 14.75 7.85 14.9 7.65 15.15 7.2 15.2 7.2 14.2 9.4 13.65 10.35 13.4 10.7 10.75 13.2 Q9.2 14.15 7.0 14.3 L6.75 14.35 5.2 14.4" fill="#4a4328" fill-rule="evenodd" stroke="none"/>
    </g>
    <g id="shape3" transform="matrix(1.0, 0.0, 0.0, 1.0, 0.0, 0.0)">
      <path d="M6.6 2.95 L6.75 3.0 12.8 8.8 12.9 9.0 12.95 9.5 13.15 9.75 13.7 9.8 14.2 10.35 13.35 10.2 Q12.65 10.1 11.85 10.6 12.0 10.2 12.3 10.05 12.5 9.8 11.75 9.7 11.15 9.45 11.3 8.9 11.4 8.6 11.15 8.45 L10.6 8.1 Q9.65 7.8 8.2 6.15 L6.6 4.65 Q5.5 3.8 5.55 3.0 5.45 2.5 5.85 2.5 L6.6 2.95" fill="#ccb66f" fill-rule="evenodd" stroke="none"/>
      <path d="M12.9 9.0 L13.7 9.8 14.5 10.6 14.4 10.6 13.55 10.45 Q12.7 10.6 12.0 11.45 L12.15 11.25 11.4 10.95 11.45 10.8 11.35 10.9 10.0 9.85 3.45 3.3 Q3.55 2.7 4.25 2.2 L5.6 1.85 6.6 2.95 5.85 2.5 Q5.45 2.5 5.55 3.0 5.5 3.8 6.6 4.65 L8.2 6.15 Q9.65 7.8 10.6 8.1 L11.15 8.45 Q11.4 8.6 11.3 8.9 11.15 9.45 11.75 9.7 12.5 9.8 12.3 10.05 12.0 10.2 11.85 10.6 12.65 10.1 13.35 10.2 L14.2 10.35 13.7 9.8 13.15 9.75 12.95 9.5 12.9 9.0" fill="#9d8c55" fill-rule="evenodd" stroke="none"/>
      <path d="M10.85 14.2 L0.5 3.55 Q-0.5 2.2 0.5 1.15 2.6 -0.85 4.35 0.7 L4.45 0.8 3.75 0.8 Q1.85 0.9 1.45 2.45 1.3 3.2 1.8 3.95 L3.0 5.25 9.95 12.0 11.35 10.9 11.45 10.8 11.4 10.95 Q10.55 11.8 10.5 12.35 L10.55 13.2 10.9 13.65 Q10.8 14.15 10.95 14.3 L11.05 14.45 10.85 14.2" fill="#595030" fill-rule="evenodd" stroke="none"/>
      <path d="M4.45 0.8 L5.6 1.85 4.25 2.2 Q3.55 2.7 3.45 3.3 L10.0 9.85 11.35 10.9 9.95 12.0 3.0 5.25 1.8 3.95 Q1.3 3.2 1.45 2.45 1.85 0.9 3.75 0.8 L4.45 0.8 M12.0 11.45 L11.8 11.7 11.25 12.5 11.15 12.85 Q10.85 13.3 10.9 13.65 L10.55 13.2 10.5 12.35 Q10.55 11.8 11.4 10.95 L12.15 11.25 12.0 11.45" fill="#8b7d4c" fill-rule="evenodd" stroke="none"/>
      <path d="M10.85 14.4 L10.85 14.2 11.05 14.45 10.85 14.4 M10.9 13.65 Q10.85 13.3 11.15 12.85 L11.25 12.5 11.8 11.7 12.0 11.45 Q12.7 10.6 13.55 10.45 L14.4 10.6 14.5 10.65 14.8 11.1 Q15.1 11.75 15.0 12.4 14.65 11.7 13.95 11.9 11.9 12.25 11.5 14.45 L11.05 14.45 10.95 14.3 Q10.8 14.15 10.9 13.65" fill="#ae9c5f" fill-rule="evenodd" stroke="none"/>
      <path d="M14.5 10.6 L14.95 11.25 15.0 12.55 Q13.75 14.15 12.35 14.35 L11.5 14.45 Q11.9 12.25 13.95 11.9 14.65 11.7 15.0 12.4 15.1 11.75 14.8 11.1 L14.5 10.65 14.4 10.6 14.5 10.6" fill="#c1ad6a" fill-rule="evenodd" stroke="none"/>
      <path d="M15.0 12.55 L14.85 12.9 14.75 13.0 Q13.8 14.6 12.25 14.7 L10.9 14.45 10.85 14.4 11.05 14.45 11.5 14.45 12.35 14.35 Q13.75 14.15 15.0 12.55" fill="#e0cc87" fill-rule="evenodd" stroke="none"/>
    </g>
  </defs>
</svg>
