<?xml version="1.0" encoding="UTF-8" standalone="no"?>
<svg xmlns:xlink="http://www.w3.org/1999/xlink" height="27.25px" width="73.85px" xmlns="http://www.w3.org/2000/svg">
  <g transform="matrix(1.0, 0.0, 0.0, 1.0, 0.0, 0.0)">
    <use height="27.25" transform="matrix(1.0, 0.0, 0.0, 1.0, 0.0, 0.0)" width="73.85" xlink:href="#shape0"/>
  </g>
  <defs>
    <g id="shape0" transform="matrix(1.0, 0.0, 0.0, 1.0, 0.0, 0.0)">
      <path d="M69.9 18.1 Q71.5 18.8 72.5 19.7 L73.2 20.15 73.6 20.85 70.9 21.25 69.05 21.1 66.5 20.65 66.5 20.55 67.05 19.5 68.15 19.35 70.9 19.35 Q70.9 18.35 68.8 18.2 L67.5 18.15 67.5 18.0 67.3 17.1 67.8 17.25 69.9 18.1 M64.05 24.4 Q63.85 26.2 64.0 27.25 62.55 27.4 61.2 25.55 L60.95 25.2 60.05 23.3 60.5 23.25 Q60.8 23.9 61.4 24.15 L62.9 26.15 63.4 26.0 63.05 24.35 64.1 24.0 64.05 24.4 M56.85 24.35 L55.15 25.25 Q54.6 24.3 54.9 22.85 L55.3 21.15 55.4 20.4 53.4 19.5 55.3 19.55 56.0 21.2 55.8 21.7 Q55.4 22.85 55.8 23.45 56.6 23.45 57.1 22.55 57.65 22.95 58.45 23.15 L56.85 24.35 M53.15 19.4 L51.6 18.4 50.2 17.1 Q48.85 15.75 49.05 15.3 49.25 14.6 51.75 14.35 L53.6 14.35 53.25 15.5 53.25 15.6 51.4 16.2 Q51.9 17.7 52.15 18.0 52.55 18.4 53.1 18.55 L53.35 19.5 53.15 19.4 M56.6 11.95 L56.25 10.5 Q55.8 8.35 56.45 7.85 57.7 6.9 58.75 9.65 L58.8 9.9 58.2 10.35 57.35 11.4 56.6 11.95 M35.6 5.05 L35.75 4.9 Q36.8 4.25 37.6 4.15 38.2 4.8 37.8 6.55 L37.3 6.25 Q35.95 5.7 35.6 5.05 M39.75 11.45 Q41.1 12.0 41.25 12.75 L39.8 12.85 38.75 12.8 38.4 12.75 38.4 12.2 39.15 12.1 38.5 11.55 38.65 10.95 39.45 11.3 39.75 11.45 M29.3 15.35 L27.5 17.15 Q27.4 13.75 28.45 11.8 L29.35 12.05 30.1 12.05 29.95 12.55 29.85 13.0 29.85 13.45 31.55 12.2 31.7 12.1 32.5 12.7 32.75 12.9 Q31.5 13.3 29.95 14.7 L29.3 15.35 M7.8 6.0 L8.0 5.5 8.25 5.15 8.85 5.75 Q9.75 6.8 9.45 7.45 L8.9 7.9 8.0 7.75 6.4 7.45 Q6.0 7.7 6.0 8.7 L6.05 10.1 Q5.15 9.8 4.5 9.35 4.85 9.05 4.85 8.25 4.9 7.5 5.25 7.2 L6.4 7.05 6.95 7.15 7.5 7.0 8.05 6.85 Q8.35 6.3 7.8 6.0 M2.85 4.3 Q2.9 5.55 3.4 6.3 3.35 7.75 3.85 8.8 L3.45 8.25 Q2.8 7.2 2.85 5.7 L2.25 5.8 0.0 5.55 Q1.35 4.7 2.1 4.45 L2.85 4.3" fill="#3a4d0d" fill-rule="evenodd" stroke="none"/>
      <path d="M66.25 14.45 Q67.95 15.0 68.75 15.6 69.85 16.55 69.9 18.1 L67.8 17.25 67.3 17.1 66.55 15.05 66.25 14.45 M70.9 21.25 Q72.15 22.9 73.85 23.65 71.2 24.75 66.35 24.45 L64.05 24.4 64.1 24.0 64.75 23.55 66.5 20.65 69.05 21.1 70.9 21.25 M61.2 25.55 L60.55 25.75 Q60.3 24.55 58.4 26.55 56.7 28.4 56.8 25.0 L56.85 24.35 58.45 23.15 60.05 23.3 60.95 25.2 61.2 25.55 M55.3 21.15 L54.7 20.9 Q53.15 20.2 52.85 19.9 L53.15 19.4 53.35 19.5 53.4 19.5 55.4 20.4 55.3 21.15 M39.1 9.05 Q40.2 10.35 39.75 11.45 L39.45 11.3 38.65 10.95 38.95 9.9 39.1 9.05 M38.75 12.8 L38.5 13.05 Q38.05 13.55 38.6 14.8 L36.8 14.45 35.0 14.55 Q33.8 14.4 33.2 14.55 L31.2 15.35 Q29.9 16.05 29.3 15.75 L29.3 15.35 29.95 14.7 Q31.5 13.3 32.75 12.9 L33.45 13.35 35.05 13.9 37.6 13.95 38.4 13.1 38.4 12.75 38.75 12.8 M4.5 9.35 Q5.15 9.8 6.05 10.1 L6.0 8.7 Q6.0 7.7 6.4 7.45 L8.0 7.75 8.9 7.9 8.85 8.9 7.25 9.1 7.25 10.55 Q5.9 10.7 5.05 10.1 L4.45 9.4 4.5 9.35 M2.25 5.8 L2.85 5.7 Q2.8 7.2 3.45 8.25 L3.0 8.15 2.1 8.2 Q2.0 6.95 2.25 5.8" fill="#222d06" fill-rule="evenodd" stroke="none"/>
      <path d="M67.5 18.15 L68.8 18.2 Q70.9 18.35 70.9 19.35 L68.15 19.35 67.05 19.5 67.5 18.15 M61.4 24.15 L62.45 24.35 63.05 24.35 63.4 26.0 62.9 26.15 61.4 24.15 M53.1 18.55 Q52.55 18.4 52.15 18.0 51.9 17.7 51.4 16.2 L53.25 15.6 Q52.8 17.05 53.1 18.55 M56.0 21.2 L56.1 21.5 57.1 22.55 Q56.6 23.45 55.8 23.45 55.4 22.85 55.8 21.7 L56.0 21.2 M30.1 12.05 L30.55 12.0 31.6 12.1 31.7 12.1 31.55 12.2 29.85 13.45 29.85 13.0 29.95 12.55 30.1 12.05 M38.4 12.2 L38.4 11.95 38.5 11.55 39.15 12.1 38.4 12.2 M7.8 6.0 Q8.35 6.3 8.05 6.85 L7.5 7.0 6.95 7.15 6.4 7.05 6.5 7.0 Q7.2 6.85 7.5 6.5 L7.8 6.0 M5.25 7.2 Q4.9 7.5 4.85 8.25 4.85 9.05 4.5 9.35 L4.45 9.4 4.3 9.5 3.85 8.8 Q3.35 7.75 3.4 6.3 4.0 7.15 5.25 7.2" fill="#2f3f09" fill-rule="evenodd" stroke="none"/>
      <path d="M58.8 9.9 Q59.25 9.55 59.85 9.4 L61.75 9.3 Q62.7 9.6 62.85 10.85 63.1 12.3 63.65 12.7 L65.15 13.2 Q65.8 13.6 66.25 14.45 L66.55 15.05 67.3 17.1 67.5 18.0 67.5 18.15 67.05 19.5 66.5 20.55 66.5 20.65 64.75 23.55 64.1 24.0 63.05 24.35 62.45 24.35 61.4 24.15 Q60.8 23.9 60.5 23.25 L60.05 23.3 58.45 23.15 Q57.65 22.95 57.1 22.55 L56.1 21.5 56.0 21.2 55.3 19.55 53.4 19.5 53.35 19.5 53.1 18.55 Q52.8 17.05 53.25 15.6 L53.25 15.5 53.6 14.35 54.55 11.65 54.4 12.15 Q54.8 11.7 55.3 11.8 L56.25 12.0 56.6 11.95 57.35 11.4 58.2 10.35 58.8 9.9 M64.95 14.0 Q64.2 14.15 63.75 14.65 63.2 15.3 63.4 15.9 L64.1 15.2 64.65 14.4 Q64.35 15.6 64.4 16.0 65.3 15.45 64.8 14.5 L64.95 14.0 M60.95 20.7 L61.45 22.35 Q61.9 23.6 62.55 23.85 62.75 23.25 62.45 22.3 L62.0 21.15 Q62.2 21.55 62.75 21.55 L62.65 20.5 62.5 19.5 64.7 19.25 64.05 18.5 64.7 17.9 65.25 17.3 Q64.6 17.2 63.6 17.65 L61.9 18.1 62.65 17.25 63.3 16.4 61.45 17.0 Q61.25 16.55 61.4 15.3 61.7 14.1 61.35 13.45 61.0 14.4 60.35 14.55 L60.05 13.6 60.1 16.5 59.9 16.1 59.75 16.3 59.7 16.5 59.75 15.65 58.55 14.95 Q58.6 13.65 58.9 13.0 L59.2 14.15 59.55 15.25 59.85 13.15 Q60.1 11.7 60.85 11.45 L60.6 10.45 59.1 10.55 58.05 11.0 57.8 13.5 57.9 14.65 57.55 14.5 Q57.7 15.4 58.2 16.2 57.6 15.55 56.95 15.55 57.15 16.3 57.8 17.1 56.95 16.65 55.75 17.1 56.1 18.25 58.25 18.65 L56.8 19.75 57.7 19.5 57.7 20.3 Q58.35 20.4 58.65 19.6 58.5 20.85 58.7 21.55 59.45 21.3 59.95 20.25 L59.95 20.35 Q59.85 21.8 60.25 22.35 60.75 21.8 60.85 20.7 L60.95 20.7 M56.7 16.8 L56.1 13.85 55.4 13.65 54.1 13.2 Q53.65 16.25 54.4 17.75 L54.3 15.95 55.5 16.65 56.7 16.8 M28.45 11.8 Q27.25 11.2 27.2 9.25 27.2 6.6 29.4 6.3 L29.7 7.05 Q29.65 4.0 30.3 2.8 31.25 1.1 34.05 1.8 35.45 2.15 35.45 3.0 L35.55 4.9 35.6 5.05 Q35.95 5.7 37.3 6.25 L37.8 6.55 38.95 7.7 39.1 9.05 38.95 9.9 38.65 10.95 38.5 11.55 38.4 11.95 38.4 12.2 38.4 12.75 38.4 13.1 37.6 13.95 35.05 13.9 33.45 13.35 32.75 12.9 32.5 12.7 31.7 12.1 31.6 12.1 30.55 12.0 30.1 12.05 29.35 12.05 28.45 11.8 M31.7 2.75 L31.25 2.15 Q30.3 2.45 29.95 4.0 29.7 5.45 30.15 6.4 L31.0 4.95 Q30.9 6.65 31.05 7.3 L31.45 5.5 Q31.8 4.4 32.3 3.85 L32.85 4.55 Q33.15 3.8 32.75 2.85 32.3 1.85 31.7 2.75 M33.8 7.5 Q34.0 7.05 33.85 6.4 L33.6 5.25 Q32.9 5.65 32.9 7.3 L32.0 5.55 32.05 7.15 31.75 8.65 30.45 8.65 30.85 8.7 Q30.35 9.0 30.15 9.6 L31.45 9.4 31.45 9.95 31.9 9.85 Q32.8 11.35 33.8 11.6 L33.55 9.8 Q34.4 10.65 35.15 10.45 L34.9 10.1 Q35.45 10.65 36.2 10.65 L35.75 9.95 35.1 9.35 35.9 8.05 35.15 8.0 35.1 7.45 34.4 7.45 33.8 7.5 M6.1 4.75 Q6.25 3.9 5.95 3.15 L5.1 2.7 Q4.4 3.4 4.85 4.05 5.3 4.75 6.1 4.75 M8.25 5.15 L8.0 5.5 7.8 6.0 7.5 6.5 Q7.2 6.85 6.5 7.0 L6.4 7.05 5.25 7.2 Q4.0 7.15 3.4 6.3 2.9 5.55 2.85 4.3 L2.8 4.05 1.55 3.95 Q1.3 3.8 1.3 2.85 1.4 1.5 2.15 1.2 L4.0 1.1 Q5.35 -0.7 7.45 0.45 9.65 1.6 8.9 3.65 L8.25 5.15" fill="#8f7dbe" fill-rule="evenodd" stroke="none"/>
      <path d="M58.55 14.95 L59.75 15.65 59.7 16.5 59.75 16.3 59.9 16.1 60.1 16.5 60.05 13.6 60.35 14.55 Q61.0 14.4 61.35 13.45 61.7 14.1 61.4 15.3 61.25 16.55 61.45 17.0 L63.3 16.4 62.65 17.25 61.9 18.1 63.6 17.65 Q64.6 17.2 65.25 17.3 L64.7 17.9 64.05 18.5 64.7 19.25 62.5 19.5 62.65 20.5 62.75 21.55 Q62.2 21.55 62.0 21.15 L62.45 22.3 Q62.75 23.25 62.55 23.85 61.9 23.6 61.45 22.35 L60.95 20.7 Q61.4 20.65 61.6 20.25 62.05 19.7 61.35 19.0 L60.45 17.9 59.75 18.05 59.6 17.9 59.35 17.15 59.3 17.6 59.6 17.9 59.75 18.55 Q60.05 19.45 60.5 19.65 59.95 20.0 59.95 20.25 59.45 21.3 58.7 21.55 58.5 20.85 58.65 19.6 58.35 20.4 57.7 20.3 L57.7 19.5 56.8 19.75 58.25 18.65 Q56.1 18.25 55.75 17.1 56.95 16.65 57.8 17.1 57.15 16.3 56.95 15.55 57.6 15.55 58.2 16.2 57.7 15.4 57.55 14.5 L57.9 14.65 Q58.05 15.65 58.5 16.1 L58.55 14.95 M60.85 20.7 Q60.75 21.8 60.25 22.35 59.85 21.8 59.95 20.35 L60.3 20.6 60.85 20.7 M33.8 7.5 L34.4 7.45 35.1 7.45 35.15 8.0 35.9 8.05 35.1 9.35 35.75 9.95 36.2 10.65 Q35.45 10.65 34.9 10.1 L35.15 10.45 Q34.4 10.65 33.55 9.8 L33.8 11.6 Q32.8 11.35 31.9 9.85 L31.45 9.95 31.45 9.4 30.15 9.6 Q30.35 9.0 30.85 8.7 L30.45 8.65 31.75 8.65 32.05 7.15 32.0 5.55 32.9 7.3 Q32.9 5.65 33.6 5.25 L33.85 6.4 Q34.0 7.05 33.8 7.5 M33.65 9.05 Q34.1 8.25 32.95 8.35 L32.75 7.7 Q31.75 8.3 32.15 9.55 33.2 9.8 33.65 9.05" fill="#6a5d8e" fill-rule="evenodd" stroke="none"/>
      <path d="M64.95 14.0 L64.8 14.5 Q65.3 15.45 64.4 16.0 64.35 15.6 64.65 14.4 L64.1 15.2 63.4 15.9 Q63.2 15.3 63.75 14.65 64.2 14.15 64.95 14.0 M57.9 14.65 L57.8 13.5 58.05 11.0 59.1 10.55 60.6 10.45 60.85 11.45 Q60.1 11.7 59.85 13.15 L59.55 15.25 59.2 14.15 58.9 13.0 Q58.6 13.65 58.55 14.95 L58.5 16.1 Q58.05 15.65 57.9 14.65 M56.7 16.8 L55.5 16.65 54.3 15.95 54.4 17.75 Q53.65 16.25 54.1 13.2 L55.4 13.65 56.1 13.85 56.7 16.8 M31.7 2.75 Q32.3 1.85 32.75 2.85 33.15 3.8 32.85 4.55 L32.3 3.85 Q31.8 4.4 31.45 5.5 L31.05 7.3 Q30.9 6.65 31.0 4.95 L30.15 6.4 Q29.7 5.45 29.95 4.0 30.3 2.45 31.25 2.15 L31.7 2.75" fill="#a48fda" fill-rule="evenodd" stroke="none"/>
      <path d="M60.95 20.7 L60.85 20.7 60.3 20.6 59.95 20.35 59.95 20.25 Q59.95 20.0 60.5 19.65 60.05 19.45 59.75 18.55 L59.6 17.9 59.3 17.6 59.35 17.15 59.6 17.9 59.75 18.05 60.45 17.9 61.35 19.0 Q62.05 19.7 61.6 20.25 61.4 20.65 60.95 20.7 M33.65 9.05 Q33.2 9.8 32.15 9.55 31.75 8.3 32.75 7.7 L32.95 8.35 Q34.1 8.25 33.65 9.05 M6.1 4.75 Q5.3 4.75 4.85 4.05 4.4 3.4 5.1 2.7 L5.95 3.15 Q6.25 3.9 6.1 4.75" fill="#b68423" fill-rule="evenodd" stroke="none"/>
    </g>
  </defs>
</svg>
