<?xml version="1.0" encoding="UTF-8" standalone="no"?>
<svg xmlns:xlink="http://www.w3.org/1999/xlink" height="39.0px" width="56.4px" xmlns="http://www.w3.org/2000/svg">
  <g transform="matrix(1.0, 0.0, 0.0, 1.0, 0.0, 0.0)">
    <use height="10.25" transform="matrix(1.0, 0.0, 0.0, 1.0, 17.0, 15.2)" width="17.45" xlink:href="#shape0"/>
    <use height="6.2" transform="matrix(1.65, 0.0, 0.0, 1.65, 17.0175, 15.2)" width="10.55" xlink:href="#sprite0"/>
    <use height="6.15" transform="matrix(1.65, 0.0, 0.0, 1.65, 17.0175, 15.2825)" width="10.4" xlink:href="#sprite1"/>
    <use height="2.1" transform="matrix(1.65, 0.0, 0.0, 1.65, 29.0, 17.35)" width="2.55" xlink:href="#sprite2"/>
    <use height="2.85" transform="matrix(1.65, 0.0, 0.0, 1.65, 21.15, 17.1175)" width="4.05" xlink:href="#sprite3"/>
    <use height="14.2" transform="matrix(1.0, 0.0, 0.0, 1.0, 0.5, 17.75)" width="31.8" xlink:href="#shape5"/>
    <use height="7.4" transform="matrix(1.65, 0.0, 0.0, 1.65, 0.5025, 19.75)" width="12.8" xlink:href="#sprite4"/>
    <use height="7.35" transform="matrix(1.65, 0.0, 0.0, 1.65, 0.9, 19.8325)" width="12.6" xlink:href="#sprite5"/>
    <use height="2.5" transform="matrix(1.65, 0.0, 0.0, 1.65, 2.1, 22.3)" width="3.1" xlink:href="#sprite6"/>
    <use height="3.4" transform="matrix(1.65, 0.0, 0.0, 1.65, 8.5, 22.0675)" width="4.95" xlink:href="#sprite7"/>
    <use height="11.6" transform="matrix(1.0, 0.0, 0.0, 1.0, 3.1, 22.1)" width="53.25" xlink:href="#shape10"/>
    <use height="7.05" transform="matrix(1.65, 0.0, 0.0, 1.65, 36.6675, 22.05)" width="11.95" xlink:href="#sprite8"/>
    <use height="7.0" transform="matrix(1.65, 0.0, 0.0, 1.65, 36.6675, 22.1325)" width="11.8" xlink:href="#sprite9"/>
    <use height="2.4" transform="matrix(1.65, 0.0, 0.0, 1.65, 50.2, 24.4675)" width="2.85" xlink:href="#sprite10"/>
    <use height="3.2" transform="matrix(1.65, 0.0, 0.0, 1.65, 41.3, 24.25)" width="4.6" xlink:href="#sprite11"/>
    <use height="14.0" transform="matrix(1.0, 0.0, 0.0, 1.0, 12.25, 24.95)" width="41.7" xlink:href="#shape11"/>
    <use height="8.05" transform="matrix(1.65, 0.0, 0.0, 1.65, 12.3525, 25.7)" width="13.9" xlink:href="#sprite12"/>
    <use height="8.05" transform="matrix(1.65, 0.0, 0.0, 1.65, 12.6, 25.7)" width="13.75" xlink:href="#sprite13"/>
    <use height="2.75" transform="matrix(1.65, 0.0, 0.0, 1.65, 13.95, 28.5)" width="3.35" xlink:href="#sprite14"/>
    <use height="3.7" transform="matrix(1.65, 0.0, 0.0, 1.65, 21.0, 28.25)" width="5.4" xlink:href="#sprite15"/>
    <use height="3.5" transform="matrix(1.0, 0.0, 0.0, 1.0, 15.0, 29.0)" width="13.4" xlink:href="#shape13"/>
  </g>
  <defs>
    <g id="shape0" transform="matrix(1.0, 0.0, 0.0, 1.0, -17.0, -15.2)">
      <path d="M23.2 16.1 L24.9 18.0 Q25.65 18.65 26.9 18.6 28.05 18.4 28.7 17.65 30.95 15.3 33.35 17.0 35.5 18.65 33.4 21.95 31.1 25.7 24.85 25.45 18.75 25.2 17.35 20.75 15.95 16.25 20.45 15.3 21.85 14.95 23.2 16.1" fill="#68a337" fill-rule="evenodd" stroke="none"/>
    </g>
    <g id="sprite0" transform="matrix(1.0, 0.0, 0.0, 1.0, 0.05, 0.0)">
      <use height="7.05" transform="matrix(0.8828, 0.0, 0.0, 0.8794, -0.0441, 0.0)" width="11.95" xlink:href="#shape1"/>
    </g>
    <g id="shape1" transform="matrix(1.0, 0.0, 0.0, 1.0, 0.05, 0.0)">
      <path d="M11.15 4.75 Q9.5 7.2 5.3 7.05 1.1 6.85 0.15 3.8 -0.8 0.75 2.35 0.05 3.2 -0.2 4.15 0.65 L4.0 0.55 Q2.25 0.05 1.8 1.9 1.4 3.7 2.75 4.75 4.1 5.8 6.65 5.75 9.15 5.7 10.4 4.55 11.15 3.75 11.4 2.8 11.6 1.95 11.25 1.35 12.55 2.6 11.15 4.75" fill="#000000" fill-rule="evenodd" stroke="none"/>
    </g>
    <g id="sprite1" transform="matrix(1.0, 0.0, 0.0, 1.0, 0.05, -0.05)">
      <use height="7.0" transform="matrix(0.8814, 0.0, 0.0, 0.8786, -0.0441, 0.0439)" width="11.8" xlink:href="#shape2"/>
    </g>
    <g id="shape2" transform="matrix(1.0, 0.0, 0.0, 1.0, 0.05, -0.05)">
      <path d="M11.75 3.15 Q11.55 4.75 10.1 5.85 8.35 7.15 5.3 7.05 1.1 6.85 0.15 3.8 -0.8 0.75 2.35 0.05 L2.55 0.05 Q-0.15 0.85 0.65 3.65 1.1 5.15 2.75 5.9 4.5 6.7 7.2 6.45 8.85 6.3 10.25 5.1 L11.75 3.15" fill="#000000" fill-rule="evenodd" stroke="none"/>
    </g>
    <g id="sprite2" transform="matrix(1.0, 0.0, 0.0, 1.0, 0.0, 0.0)">
      <use height="2.4" transform="matrix(0.8947, 0.0, 0.0, 0.875, 0.0, 0.0063)" width="2.85" xlink:href="#shape3"/>
    </g>
    <g id="shape3" transform="matrix(1.0, 0.0, 0.0, 1.0, 0.0, 0.05)">
      <path d="M1.5 0.7 Q1.6 0.25 1.95 0.05 L2.6 0.15 Q2.95 0.6 2.85 1.15 2.7 1.8 2.0 2.15 L0.5 2.3 Q-0.2 2.1 0.05 1.7 0.25 1.45 0.9 1.2 L1.5 0.7" fill="#ffffff" fill-rule="evenodd" stroke="none"/>
    </g>
    <g id="sprite3" transform="matrix(1.0, 0.0, 0.0, 1.0, 0.0, 0.05)">
      <use height="3.2" transform="matrix(0.8804, 0.0, 0.0, 0.8906, 0.0, -0.05)" width="4.6" xlink:href="#shape4"/>
    </g>
    <g id="shape4" transform="matrix(1.0, 0.0, 0.0, 1.0, 0.0, 0.0)">
      <path d="M4.6 2.2 Q4.7 2.65 4.15 2.95 L2.35 3.15 Q0.65 2.85 0.15 1.95 -0.2 1.25 0.2 0.45 0.45 -0.05 0.9 0.0 L1.4 0.3 1.8 1.1 Q2.1 1.55 2.75 1.7 L4.0 1.9 Q4.55 1.95 4.6 2.2" fill="#ffffff" fill-rule="evenodd" stroke="none"/>
    </g>
    <g id="shape5" transform="matrix(1.0, 0.0, 0.0, 1.0, -0.5, -17.75)">
      <path d="M22.8 17.75 Q23.1 17.85 23.6 18.9 24.0 19.8 25.4 20.0 26.4 20.05 25.25 20.15 24.45 20.25 23.6 19.8 22.3 19.25 22.2 18.4 22.05 17.6 22.8 17.75" fill="#ffffff" fill-rule="evenodd" stroke="none"/>
      <path d="M31.85 17.9 Q32.5 17.85 32.25 18.35 L31.5 18.85 31.85 17.9" fill="#ffffff" fill-rule="evenodd" stroke="none"/>
      <path d="M30.95 19.25 Q31.1 19.1 31.1 19.3 L30.85 19.65 Q29.6 20.0 30.95 19.25" fill="#ffffff" fill-rule="evenodd" stroke="none"/>
      <path d="M26.55 20.05 Q26.8 20.0 26.8 20.25 L26.5 20.5 Q26.15 20.4 26.15 20.3 L26.55 20.05" fill="#ffffff" fill-rule="evenodd" stroke="none"/>
      <path d="M1.75 27.8 Q-0.75 23.85 1.8 21.95 4.7 19.75 7.45 22.7 8.15 23.6 9.65 23.8 11.15 23.95 11.95 23.1 L14.1 20.9 Q15.7 19.5 17.35 19.8 22.95 20.95 21.2 26.25 19.55 31.6 12.15 31.95 4.55 32.2 1.75 27.8" fill="#75ad45" fill-rule="evenodd" stroke="none"/>
    </g>
    <g id="sprite4" transform="matrix(1.0, 0.0, 0.0, 1.0, 0.15, 0.0)">
      <use height="8.05" transform="matrix(0.9209, 0.0, 0.0, 0.9193, -0.1381, 0.0)" width="13.9" xlink:href="#shape6"/>
    </g>
    <g id="shape6" transform="matrix(1.0, 0.0, 0.0, 1.0, 0.15, 0.0)">
      <path d="M10.95 0.05 Q14.6 0.85 13.5 4.35 12.4 7.85 7.5 8.05 2.6 8.25 0.7 5.45 -0.95 3.0 0.55 1.6 0.15 2.25 0.4 3.25 0.7 4.35 1.6 5.2 3.0 6.55 5.95 6.6 8.85 6.65 10.45 5.45 12.1 4.25 11.55 2.2 11.05 0.1 9.0 0.7 L8.85 0.75 Q9.85 -0.15 10.95 0.05" fill="#000000" fill-rule="evenodd" stroke="none"/>
    </g>
    <g id="sprite5" transform="matrix(1.0, 0.0, 0.0, 1.0, 0.0, -0.05)">
      <use height="7.35" transform="matrix(1.0, 0.0, 0.0, 1.0, 0.0, 0.05)" width="12.6" xlink:href="#shape7"/>
    </g>
    <g id="shape7" transform="matrix(1.0, 0.0, 0.0, 1.0, 0.0, -0.05)">
      <path d="M9.75 0.05 L10.0 0.05 Q13.4 0.75 12.35 3.95 11.35 7.2 6.85 7.4 3.6 7.55 1.7 6.15 0.2 5.0 0.0 3.35 0.35 4.4 1.6 5.35 3.05 6.6 4.8 6.75 7.65 7.05 9.6 6.2 11.35 5.4 11.8 3.85 12.6 0.85 9.75 0.05" fill="#000000" fill-rule="evenodd" stroke="none"/>
    </g>
    <g id="sprite6" transform="matrix(1.0, 0.0, 0.0, 1.0, 0.0, 0.0)">
      <use height="2.75" transform="matrix(0.9254, 0.0, 0.0, 0.9091, 0.0, 0.0)" width="3.35" xlink:href="#shape8"/>
    </g>
    <g id="shape8" transform="matrix(1.0, 0.0, 0.0, 1.0, 0.0, 0.0)">
      <path d="M1.55 0.85 Q1.65 1.25 2.3 1.45 3.05 1.7 3.25 1.95 3.6 2.45 2.75 2.65 L1.0 2.45 Q0.15 2.05 0.0 1.35 -0.1 0.7 0.3 0.2 L1.05 0.1 Q1.5 0.3 1.55 0.85" fill="#ffffff" fill-rule="evenodd" stroke="none"/>
    </g>
    <g id="sprite7" transform="matrix(1.0, 0.0, 0.0, 1.0, 0.0, 0.05)">
      <use height="3.7" transform="matrix(0.9167, 0.0, 0.0, 0.9189, 0.0, -0.05)" width="5.4" xlink:href="#shape9"/>
    </g>
    <g id="shape9" transform="matrix(1.0, 0.0, 0.0, 1.0, 0.0, 0.0)">
      <path d="M5.2 2.25 Q4.6 3.25 2.65 3.6 L0.55 3.4 Q-0.1 3.05 0.0 2.55 0.05 2.25 0.7 2.15 L2.2 1.95 Q2.95 1.8 3.3 1.25 L3.75 0.35 Q3.95 0.05 4.35 0.0 4.8 0.0 5.15 0.55 5.6 1.45 5.2 2.25" fill="#ffffff" fill-rule="evenodd" stroke="none"/>
    </g>
    <g id="shape10" transform="matrix(1.0, 0.0, 0.0, 1.0, -3.1, -22.1)">
      <path d="M14.6 22.85 Q15.45 22.6 15.25 23.6 15.1 24.5 13.6 25.25 12.55 25.75 11.55 25.7 10.25 25.5 11.4 25.45 13.05 25.25 13.6 24.1 L14.6 22.85" fill="#ffffff" fill-rule="evenodd" stroke="none"/>
      <path d="M3.65 23.05 Q3.8 23.8 4.05 24.1 4.3 24.45 3.8 24.2 3.3 23.95 3.15 23.55 3.0 23.1 3.2 22.95 L3.65 23.05" fill="#ffffff" fill-rule="evenodd" stroke="none"/>
      <path d="M4.7 24.5 L5.35 25.1 4.8 25.0 4.55 24.7 Q4.45 24.45 4.7 24.5" fill="#ffffff" fill-rule="evenodd" stroke="none"/>
      <path d="M10.05 25.6 L10.5 25.85 10.05 26.1 9.75 25.85 Q9.75 25.5 10.05 25.6" fill="#ffffff" fill-rule="evenodd" stroke="none"/>
      <path d="M55.1 24.1 Q57.5 25.9 55.2 29.7 52.65 33.95 45.45 33.7 38.55 33.35 36.95 28.3 35.4 23.3 40.6 22.15 42.15 21.8 43.65 23.1 L45.65 25.25 Q46.45 26.0 47.75 25.85 49.2 25.7 49.9 24.85 52.4 22.05 55.1 24.1" fill="#68a337" fill-rule="evenodd" stroke="none"/>
    </g>
    <g id="sprite8" transform="matrix(1.0, 0.0, 0.0, 1.0, 0.05, 0.0)">
      <use height="7.05" transform="matrix(1.0, 0.0, 0.0, 1.0, -0.05, 0.0)" width="11.95" xlink:href="#shape1"/>
    </g>
    <g id="sprite9" transform="matrix(1.0, 0.0, 0.0, 1.0, 0.05, -0.05)">
      <use height="7.0" transform="matrix(1.0, 0.0, 0.0, 1.0, -0.05, 0.05)" width="11.8" xlink:href="#shape2"/>
    </g>
    <g id="sprite10" transform="matrix(1.0, 0.0, 0.0, 1.0, 0.0, 0.05)">
      <use height="2.4" transform="matrix(1.0, 0.0, 0.0, 1.0, 0.0, -0.05)" width="2.85" xlink:href="#shape3"/>
    </g>
    <g id="sprite11" transform="matrix(1.0, 0.0, 0.0, 1.0, 0.0, 0.0)">
      <use height="3.2" transform="matrix(1.0, 0.0, 0.0, 1.0, 0.0, 0.0)" width="4.6" xlink:href="#shape4"/>
    </g>
    <g id="shape11" transform="matrix(1.0, 0.0, 0.0, 1.0, -12.25, -24.95)">
      <path d="M43.15 25.0 Q43.5 25.1 44.05 26.25 44.65 27.35 46.1 27.5 47.45 27.55 46.05 27.75 L44.05 27.25 Q42.65 26.6 42.5 25.7 42.35 24.75 43.15 25.0" fill="#ffffff" fill-rule="evenodd" stroke="none"/>
      <path d="M53.45 25.2 L53.8 25.1 Q54.05 25.25 53.9 25.6 L53.3 26.25 Q52.9 26.5 53.05 26.15 L53.45 25.2" fill="#ffffff" fill-rule="evenodd" stroke="none"/>
      <path d="M52.4 26.6 Q52.65 26.5 52.65 26.75 L52.3 27.1 51.8 27.1 Q51.65 27.0 52.4 26.6" fill="#ffffff" fill-rule="evenodd" stroke="none"/>
      <path d="M47.45 27.55 Q47.75 27.5 47.75 27.8 L47.35 28.05 47.05 27.8 47.45 27.55" fill="#ffffff" fill-rule="evenodd" stroke="none"/>
      <path d="M27.05 26.9 Q28.8 25.45 30.6 25.75 36.65 27.1 34.8 32.85 33.0 38.65 24.9 38.95 16.6 39.3 13.6 34.4 10.9 30.15 13.6 28.15 16.9 25.7 19.8 29.0 20.65 29.9 22.2 30.05 23.85 30.2 24.75 29.4 L27.05 26.9" fill="#75ad45" fill-rule="evenodd" stroke="none"/>
    </g>
    <g id="sprite12" transform="matrix(1.0, 0.0, 0.0, 1.0, 0.15, 0.0)">
      <use height="8.05" transform="matrix(1.0, 0.0, 0.0, 1.0, -0.15, 0.0)" width="13.9" xlink:href="#shape6"/>
    </g>
    <g id="sprite13" transform="matrix(1.0, 0.0, 0.0, 1.0, 0.0, 0.0)">
      <use height="8.05" transform="matrix(1.0, 0.0, 0.0, 1.0, 0.0, 0.0)" width="13.75" xlink:href="#shape12"/>
    </g>
    <g id="shape12" transform="matrix(1.0, 0.0, 0.0, 1.0, 0.0, 0.0)">
      <path d="M10.95 0.05 Q14.6 0.85 13.5 4.35 12.4 7.85 7.5 8.05 3.95 8.2 1.9 6.7 0.2 5.5 0.0 3.65 0.4 4.75 1.75 5.85 3.4 7.2 5.3 7.4 8.4 7.7 10.5 6.75 12.45 5.9 12.9 4.2 13.75 1.0 10.65 0.05 L10.6 0.0 10.95 0.05" fill="#000000" fill-rule="evenodd" stroke="none"/>
    </g>
    <g id="sprite14" transform="matrix(1.0, 0.0, 0.0, 1.0, 0.0, 0.0)">
      <use height="2.75" transform="matrix(1.0, 0.0, 0.0, 1.0, 0.0, 0.0)" width="3.35" xlink:href="#shape8"/>
    </g>
    <g id="sprite15" transform="matrix(1.0, 0.0, 0.0, 1.0, 0.0, 0.0)">
      <use height="3.7" transform="matrix(1.0, 0.0, 0.0, 1.0, 0.0, 0.0)" width="5.4" xlink:href="#shape9"/>
    </g>
    <g id="shape13" transform="matrix(1.0, 0.0, 0.0, 1.0, -15.0, -29.0)">
      <path d="M27.65 29.05 Q28.55 28.8 28.4 29.9 28.2 30.95 26.55 31.7 25.4 32.3 24.25 32.2 23.0 32.05 24.2 31.85 25.9 31.7 26.55 30.45 27.25 29.15 27.65 29.05" fill="#ffffff" fill-rule="evenodd" stroke="none"/>
      <path d="M15.6 29.3 L16.1 30.4 Q16.35 30.8 15.85 30.55 15.25 30.3 15.1 29.8 14.85 29.3 15.2 29.15 15.5 29.0 15.6 29.3" fill="#ffffff" fill-rule="evenodd" stroke="none"/>
      <path d="M16.85 30.95 Q17.65 31.35 17.5 31.55 L16.9 31.45 Q16.6 31.35 16.6 31.05 16.5 30.8 16.85 30.95" fill="#ffffff" fill-rule="evenodd" stroke="none"/>
      <path d="M22.7 32.1 Q23.1 32.2 23.1 32.35 L22.7 32.5 Q22.35 32.6 22.35 32.3 22.35 32.05 22.7 32.1" fill="#ffffff" fill-rule="evenodd" stroke="none"/>
    </g>
  </defs>
</svg>
