<?xml version="1.0" encoding="UTF-8" standalone="no"?>
<svg xmlns:xlink="http://www.w3.org/1999/xlink" height="29.45px" width="46.0px" xmlns="http://www.w3.org/2000/svg">
  <g transform="matrix(1.0, 0.0, 0.0, 1.0, 0.0, 0.0)">
    <use height="24.8" transform="matrix(1.0, 0.0, 0.0, 1.0, 4.5, 4.65)" width="37.0" xlink:href="#sprite0"/>
  </g>
  <defs>
    <g id="sprite0" transform="matrix(1.0, 0.0, 0.0, 1.0, 0.0, 0.0)">
      <use height="24.8" transform="matrix(1.0, 0.0, 0.0, 1.0, 0.0, 0.0)" width="37.0" xlink:href="#shape0"/>
    </g>
    <g id="shape0" transform="matrix(1.0, 0.0, 0.0, 1.0, 0.0, 0.0)">
      <path d="M37.0 15.95 Q37.0 17.5 31.7 18.55 26.35 19.65 18.85 19.65 L6.05 18.55 Q0.7 17.5 0.7 15.95 0.7 14.45 6.05 13.35 11.35 12.25 18.85 12.25 26.35 12.25 31.7 13.35 37.0 14.45 37.0 15.95" fill="url(#gradient0)" fill-rule="evenodd" stroke="none"/>
      <path d="M36.95 15.65 L35.75 15.65 35.8 15.55 Q35.8 14.35 30.85 13.45 L18.95 12.6 7.05 13.45 Q2.1 14.35 2.1 15.55 L2.1 15.65 0.8 15.65 Q1.35 14.25 6.5 13.25 L18.85 12.25 31.2 13.25 Q36.35 14.25 36.95 15.65" fill="#ffffff" fill-rule="evenodd" stroke="none"/>
      <path d="M32.7 18.75 L27.35 19.7 21.35 20.5 3.55 18.2 4.2 16.0 5.8 15.0 6.7 14.55 Q7.7 14.05 8.05 14.05 L9.35 13.8 10.95 13.5 17.45 13.1 20.0 12.8 Q22.05 12.55 22.5 12.8 22.95 13.1 24.15 13.4 L25.5 13.75 28.4 13.5 29.0 13.55 Q29.65 13.7 29.75 13.9 29.9 14.25 32.15 15.35 L32.95 16.1 33.65 16.95 33.4 17.85 32.7 18.75" fill="#bf5d00" fill-rule="evenodd" stroke="none"/>
      <path d="M16.0 17.4 L15.0 18.5 14.55 17.3 14.3 16.0 14.3 15.5 Q14.3 15.05 14.4 15.05 L15.75 15.85 16.0 17.4" fill="#ffcf1c" fill-rule="evenodd" stroke="none"/>
      <path d="M16.25 16.35 L18.5 16.65 Q18.65 16.85 18.2 18.15 L17.3 18.15 15.0 18.5 14.95 18.05 14.95 17.15 16.25 16.35" fill="#db9d00" fill-rule="evenodd" stroke="none"/>
      <path d="M17.15 14.6 L18.1 15.7 18.5 16.65 15.95 17.1 14.95 17.15 Q14.45 16.0 14.45 15.5 L14.4 15.05 17.15 14.6" fill="#ffdc57" fill-rule="evenodd" stroke="none"/>
      <path d="M18.7 12.9 L17.65 14.0 Q17.3 13.3 17.25 12.8 L17.0 11.55 17.0 11.05 17.05 10.55 18.4 11.4 18.7 12.9" fill="#ffcf1c" fill-rule="evenodd" stroke="none"/>
      <path d="M18.9 11.9 L21.2 12.15 20.9 13.65 19.95 13.7 18.5 13.85 17.65 14.0 17.6 13.6 17.6 12.65 18.9 11.9" fill="#db9d00" fill-rule="evenodd" stroke="none"/>
      <path d="M19.85 10.1 L20.75 11.25 21.2 12.15 18.65 12.6 17.6 12.65 17.1 11.05 17.05 10.55 19.85 10.1" fill="#ffdc57" fill-rule="evenodd" stroke="none"/>
      <path d="M4.6 16.1 L3.6 17.15 Q3.2 16.5 3.15 15.95 L2.9 14.75 2.9 14.25 2.95 13.75 4.35 14.6 4.6 16.1" fill="#ffcf1c" fill-rule="evenodd" stroke="none"/>
      <path d="M3.6 17.15 L3.5 15.85 4.85 15.05 5.9 15.1 7.1 15.35 Q7.25 15.6 6.8 16.85 L5.9 16.85 3.6 17.15" fill="#db9d00" fill-rule="evenodd" stroke="none"/>
      <path d="M5.75 13.25 L6.7 14.45 7.1 15.35 4.55 15.8 3.5 15.85 3.0 14.25 2.95 13.75 5.75 13.25" fill="#ffdc57" fill-rule="evenodd" stroke="none"/>
      <path d="M10.25 13.65 L8.4 12.1 8.15 11.05 9.05 11.1 11.1 11.0 13.4 10.9 Q14.9 14.45 14.45 14.75 14.0 15.05 10.25 13.65" fill="#e8512e" fill-rule="evenodd" stroke="none"/>
      <path d="M8.15 11.05 L8.45 11.65 Q9.0 12.4 10.35 13.2 12.45 14.35 13.7 14.6 L14.55 14.6 13.65 16.65 Q12.0 16.8 9.6 15.5 7.4 14.3 7.1 13.35 L8.15 11.05" fill="#ba2400" fill-rule="evenodd" stroke="none"/>
      <path d="M12.65 11.3 Q12.05 12.8 10.95 12.75 10.2 12.7 9.8 12.2 9.4 11.65 9.8 11.45 L11.35 11.3 12.65 11.3" fill="#cc2700" fill-rule="evenodd" stroke="none"/>
      <path d="M13.25 11.55 L13.6 12.35 13.9 13.7 Q13.85 14.2 13.0 13.9 12.1 13.6 12.2 13.05 L12.7 12.15 13.25 11.55" fill="#cc2700" fill-rule="evenodd" stroke="none"/>
      <path d="M11.15 11.75 Q11.25 12.1 10.95 12.2 L10.55 12.15 10.4 11.9 Q10.45 11.75 10.8 11.75 L11.15 11.75" fill="#d69635" fill-rule="evenodd" stroke="none"/>
      <path d="M13.0 12.6 L13.2 13.05 13.1 13.25 12.75 13.2 Q12.5 13.05 12.75 12.8 12.85 12.65 13.0 12.6" fill="#d69635" fill-rule="evenodd" stroke="none"/>
      <path d="M12.85 12.8 Q12.95 12.7 13.0 12.9 L12.95 13.1 12.8 12.95 12.85 12.8" fill="#ffffff" fill-rule="evenodd" stroke="none"/>
      <path d="M10.75 11.9 L10.55 11.95 10.6 11.85 10.75 11.9" fill="#ffffff" fill-rule="evenodd" stroke="none"/>
      <path d="M23.0 11.9 L20.75 11.15 20.1 10.4 20.95 10.1 22.8 9.35 24.95 8.6 Q27.55 11.15 27.25 11.6 L23.0 11.9" fill="#e8512e" fill-rule="evenodd" stroke="none"/>
      <path d="M26.55 11.7 L27.35 11.45 27.2 13.45 23.0 13.7 20.6 13.05 19.95 12.65 20.1 10.4 20.6 10.8 22.9 11.5 26.55 11.7" fill="#ba2400" fill-rule="evenodd" stroke="none"/>
      <path d="M24.35 9.15 L24.25 9.95 Q24.0 10.8 23.3 10.95 L22.05 10.8 Q21.5 10.5 21.75 10.2 21.9 10.05 23.15 9.6 L24.35 9.15" fill="#cc2700" fill-rule="evenodd" stroke="none"/>
      <path d="M25.0 9.2 L25.65 9.8 26.45 10.85 Q26.6 11.3 25.65 11.3 24.7 11.35 24.55 10.8 L24.75 9.85 25.0 9.2" fill="#cc2700" fill-rule="evenodd" stroke="none"/>
      <path d="M23.15 10.05 Q23.35 10.3 23.15 10.45 L22.7 10.55 22.55 10.4 Q22.5 10.25 22.85 10.15 L23.15 10.05" fill="#d69635" fill-rule="evenodd" stroke="none"/>
      <path d="M25.2 10.15 L25.4 10.25 25.55 10.5 25.5 10.7 25.15 10.75 Q24.9 10.7 25.0 10.4 L25.2 10.15" fill="#d69635" fill-rule="evenodd" stroke="none"/>
      <path d="M25.1 10.4 Q25.2 10.25 25.25 10.4 L25.25 10.6 25.15 10.55 25.1 10.4" fill="#ffffff" fill-rule="evenodd" stroke="none"/>
      <path d="M22.85 10.25 Q23.15 10.4 22.65 10.4 22.6 10.35 22.7 10.25 L22.85 10.25" fill="#ffffff" fill-rule="evenodd" stroke="none"/>
      <path d="M31.3 15.85 L30.55 16.65 28.95 14.15 27.7 12.2 28.85 10.7 Q30.1 9.2 30.4 9.35 30.9 9.6 31.65 13.45 L31.3 15.85" fill="#e8512e" fill-rule="evenodd" stroke="none"/>
      <path d="M32.45 9.05 Q33.45 10.35 33.55 13.1 33.7 15.55 33.05 16.3 L30.55 16.65 Q31.25 16.1 31.2 13.65 31.1 11.25 30.65 10.05 L30.2 9.35 32.45 9.05" fill="#ba2400" fill-rule="evenodd" stroke="none"/>
      <path d="M28.4 12.65 L29.3 12.65 Q30.2 12.75 30.5 13.35 30.9 14.0 30.65 14.65 30.4 15.25 30.05 15.05 L29.1 13.8 28.4 12.65" fill="#cc2700" fill-rule="evenodd" stroke="none"/>
      <path d="M28.3 12.05 L28.85 11.3 29.8 10.3 Q30.25 10.1 30.45 11.0 30.65 11.9 30.15 12.15 L29.1 12.15 28.3 12.05" fill="#cc2700" fill-rule="evenodd" stroke="none"/>
      <path d="M29.6 13.7 L29.75 13.6 30.05 13.65 30.2 14.0 30.05 14.25 29.75 14.0 29.6 13.7" fill="#d69635" fill-rule="evenodd" stroke="none"/>
      <path d="M29.3 11.65 L29.6 11.3 29.85 11.3 29.95 11.6 29.3 11.65" fill="#d69635" fill-rule="evenodd" stroke="none"/>
      <path d="M29.6 11.7 Q29.45 11.65 29.6 11.55 L29.75 11.5 29.75 11.65 29.6 11.7" fill="#ffffff" fill-rule="evenodd" stroke="none"/>
      <path d="M29.9 14.0 Q29.9 13.85 30.0 13.95 L30.05 14.1 29.9 14.1 29.9 14.0" fill="#ffffff" fill-rule="evenodd" stroke="none"/>
      <path d="M29.0 15.95 L28.55 18.35 27.05 19.7 24.5 17.1 24.2 15.75 29.0 15.95" fill="#ff6945" fill-rule="evenodd" stroke="none"/>
      <path d="M31.6 15.05 L31.4 16.15 29.75 17.45 27.15 17.9 Q26.95 17.65 25.55 16.7 L24.2 15.75 27.4 15.35 31.6 15.05" fill="#e8512e" fill-rule="evenodd" stroke="none"/>
      <path d="M31.95 17.25 Q31.1 18.2 29.0 19.0 L27.05 19.7 26.75 17.55 29.3 16.55 Q31.35 15.6 31.6 15.05 L31.95 17.25" fill="#ba2400" fill-rule="evenodd" stroke="none"/>
      <path d="M25.55 15.7 L30.0 15.25 Q30.45 15.2 30.4 15.45 L29.75 15.95 28.4 16.05 27.05 15.9 25.55 15.7" fill="#cc2700" fill-rule="evenodd" stroke="none"/>
      <path d="M25.0 15.85 L27.05 16.1 28.05 16.35 Q28.4 16.55 28.1 16.7 27.2 17.4 26.45 17.0 25.85 16.7 25.35 16.25 L25.0 15.85" fill="#cc2700" fill-rule="evenodd" stroke="none"/>
      <path d="M28.6 15.6 L29.05 15.5 29.6 15.5 Q29.8 15.8 29.2 15.8 L28.6 15.6" fill="#d69635" fill-rule="evenodd" stroke="none"/>
      <path d="M26.6 16.4 L27.05 16.45 Q27.45 16.5 27.5 16.65 L27.3 16.85 26.95 16.85 26.6 16.4" fill="#d69635" fill-rule="evenodd" stroke="none"/>
      <path d="M27.15 16.55 L27.3 16.55 27.35 16.65 27.15 16.7 Q27.0 16.6 27.15 16.55" fill="#ffffff" fill-rule="evenodd" stroke="none"/>
      <path d="M29.3 15.5 L29.55 15.55 29.45 15.65 29.2 15.65 29.3 15.5" fill="#ffffff" fill-rule="evenodd" stroke="none"/>
      <path d="M9.15 16.0 L14.25 15.35 14.15 16.6 11.55 19.85 9.85 18.55 9.15 16.0" fill="#d6340d" fill-rule="evenodd" stroke="none"/>
      <path d="M14.25 15.35 L11.3 17.9 8.45 17.65 6.65 16.45 6.35 15.35 14.25 15.35" fill="#e8512e" fill-rule="evenodd" stroke="none"/>
      <path d="M6.35 15.35 Q6.7 15.85 8.95 16.65 L11.7 17.5 11.55 19.85 9.45 19.25 Q7.15 18.55 6.2 17.65 L6.35 15.35" fill="#ba2400" fill-rule="evenodd" stroke="none"/>
      <path d="M12.8 15.5 L11.25 15.8 9.85 16.1 8.35 16.1 7.7 15.65 Q7.6 15.35 8.1 15.35 L12.8 15.5" fill="#cc2700" fill-rule="evenodd" stroke="none"/>
      <path d="M13.4 15.6 L12.0 16.9 Q11.2 17.4 10.2 16.7 9.95 16.55 10.25 16.35 10.6 16.1 11.3 16.0 L13.4 15.6" fill="#cc2700" fill-rule="evenodd" stroke="none"/>
      <path d="M9.6 15.65 L8.95 15.85 Q8.3 15.95 8.5 15.65 L9.1 15.6 9.6 15.65" fill="#d69635" fill-rule="evenodd" stroke="none"/>
      <path d="M11.8 16.3 L11.45 16.8 11.1 16.85 10.85 16.65 Q10.85 16.5 11.35 16.4 L11.8 16.3" fill="#d69635" fill-rule="evenodd" stroke="none"/>
      <path d="M11.2 16.5 L11.0 16.65 11.05 16.5 11.2 16.5" fill="#ffffff" fill-rule="evenodd" stroke="none"/>
      <path d="M8.85 15.6 L8.95 15.65 Q8.9 15.8 8.75 15.75 L8.6 15.65 8.85 15.6" fill="#ffffff" fill-rule="evenodd" stroke="none"/>
      <path d="M16.25 10.25 L19.7 12.2 18.35 13.15 13.55 14.45 13.95 12.6 16.25 10.25" fill="#d6340d" fill-rule="evenodd" stroke="none"/>
      <path d="M19.7 12.2 L15.45 12.8 Q15.05 12.9 14.6 12.05 L14.15 11.25 14.4 9.35 15.4 8.3 19.7 12.2" fill="#e8512e" fill-rule="evenodd" stroke="none"/>
      <path d="M15.4 8.3 Q15.05 8.9 15.45 10.65 15.85 12.35 16.1 12.65 L13.55 14.45 13.0 12.95 Q12.65 11.95 12.75 10.9 L12.9 10.1 15.4 8.3" fill="#ba2400" fill-rule="evenodd" stroke="none"/>
      <path d="M18.8 11.6 Q18.2 11.45 17.6 11.1 L16.55 10.6 Q15.85 10.25 15.75 9.9 15.6 9.45 15.8 9.2 16.0 9.0 16.25 9.2 L18.8 11.6" fill="#cc2700" fill-rule="evenodd" stroke="none"/>
      <path d="M18.95 12.0 L16.85 12.35 Q15.95 12.35 16.05 11.3 16.1 11.0 16.5 11.0 16.85 11.0 17.35 11.3 L18.95 12.0" fill="#cc2700" fill-rule="evenodd" stroke="none"/>
      <path d="M16.85 10.15 L16.25 10.0 Q15.8 9.75 16.25 9.65 L16.85 10.15" fill="#d69635" fill-rule="evenodd" stroke="none"/>
      <path d="M17.35 11.75 L16.65 11.95 Q16.45 12.05 16.4 11.85 L16.5 11.6 Q16.75 11.4 17.35 11.75" fill="#d69635" fill-rule="evenodd" stroke="none"/>
      <path d="M16.85 11.6 L16.7 11.75 16.6 11.65 16.75 11.55 16.85 11.6" fill="#ffffff" fill-rule="evenodd" stroke="none"/>
      <path d="M16.5 9.75 L16.45 9.9 16.25 9.8 16.3 9.7 16.5 9.75" fill="#ffffff" fill-rule="evenodd" stroke="none"/>
      <path d="M19.4 18.65 L17.0 18.05 16.35 17.25 17.2 16.85 18.95 15.9 21.05 14.85 Q23.9 17.4 23.6 17.9 23.3 18.35 19.4 18.65" fill="#e8512e" fill-rule="evenodd" stroke="none"/>
      <path d="M16.35 17.25 L16.85 17.65 19.25 18.2 22.9 18.05 23.65 17.7 23.75 19.95 22.7 20.35 19.55 20.6 17.0 20.15 16.4 19.7 16.35 17.25" fill="#ba2400" fill-rule="evenodd" stroke="none"/>
      <path d="M20.5 15.5 Q20.6 17.15 19.6 17.55 L18.3 17.5 Q17.75 17.2 18.0 16.9 L19.35 16.1 20.5 15.5" fill="#cc2700" fill-rule="evenodd" stroke="none"/>
      <path d="M21.15 15.5 L21.8 16.1 22.7 17.15 Q22.9 17.6 21.95 17.75 21.05 17.85 20.85 17.3 20.75 17.05 20.95 16.25 L21.15 15.5" fill="#cc2700" fill-rule="evenodd" stroke="none"/>
      <path d="M19.35 16.55 L19.4 17.05 18.95 17.15 18.8 17.0 19.05 16.7 19.35 16.55" fill="#d69635" fill-rule="evenodd" stroke="none"/>
      <path d="M21.4 16.55 L21.75 16.85 21.75 17.1 21.45 17.15 Q21.2 17.15 21.25 16.85 L21.4 16.55" fill="#d69635" fill-rule="evenodd" stroke="none"/>
      <path d="M21.35 16.75 Q21.4 16.6 21.5 16.75 L21.5 17.0 21.4 16.95 21.35 16.75" fill="#ffffff" fill-rule="evenodd" stroke="none"/>
      <path d="M19.1 16.85 Q19.3 16.95 18.9 17.0 L18.9 16.85 19.1 16.85" fill="#ffffff" fill-rule="evenodd" stroke="none"/>
      <path d="M12.45 10.3 L12.65 12.15 12.5 13.65 Q12.2 14.7 12.2 15.6 L10.7 14.95 10.6 14.95 Q10.1 13.1 10.7 12.35 L12.45 10.3" fill="#db9d00" fill-rule="evenodd" stroke="none"/>
      <path d="M12.2 15.6 L9.65 15.05 8.45 14.7 7.75 13.1 7.75 12.85 11.1 12.7 11.85 14.0 12.2 15.6" fill="#ffcf1c" fill-rule="evenodd" stroke="none"/>
      <path d="M12.4 10.3 L12.15 12.05 11.85 14.0 9.6 13.5 7.7 12.85 10.55 11.15 12.4 10.3" fill="#ffdc57" fill-rule="evenodd" stroke="none"/>
      <path d="M25.0 14.15 L22.5 14.4 21.55 13.85 22.25 13.2 23.7 11.65 25.4 10.0 Q29.05 11.45 28.95 11.95 28.8 12.5 25.0 14.15" fill="#e8512e" fill-rule="evenodd" stroke="none"/>
      <path d="M24.75 13.75 Q27.2 13.1 28.3 12.35 L28.95 11.75 29.75 13.9 Q28.6 15.15 25.85 15.95 L23.15 16.35 22.4 16.2 21.55 13.85 22.2 14.05 24.75 13.75" fill="#ba2400" fill-rule="evenodd" stroke="none"/>
      <path d="M25.1 10.75 L25.35 11.6 Q25.45 12.6 24.9 13.05 24.3 13.55 23.6 13.45 22.95 13.35 23.05 12.95 L24.15 11.75 25.1 10.75" fill="#cc2700" fill-rule="evenodd" stroke="none"/>
      <path d="M25.75 10.55 L26.6 10.85 27.8 11.6 Q28.15 11.95 27.3 12.4 L26.0 12.35 25.8 11.3 25.75 10.55" fill="#cc2700" fill-rule="evenodd" stroke="none"/>
      <path d="M24.35 12.2 Q24.65 12.35 24.5 12.65 L24.15 12.9 Q23.95 12.95 23.9 12.8 23.8 12.7 24.05 12.45 L24.35 12.2" fill="#d69635" fill-rule="evenodd" stroke="none"/>
      <path d="M26.35 11.45 L26.55 11.45 26.75 11.6 26.9 11.9 26.6 12.05 Q26.3 12.1 26.3 11.75 L26.35 11.45" fill="#d69635" fill-rule="evenodd" stroke="none"/>
      <path d="M26.35 11.7 Q26.4 11.6 26.5 11.65 L26.6 11.85 26.45 11.85 26.35 11.7" fill="#ffffff" fill-rule="evenodd" stroke="none"/>
      <path d="M24.1 12.5 Q24.35 12.55 24.0 12.75 L23.95 12.65 24.1 12.5" fill="#ffffff" fill-rule="evenodd" stroke="none"/>
      <path d="M15.25 13.6 L20.65 12.15 20.75 13.45 18.45 17.4 16.4 16.25 15.25 13.6" fill="#d6340d" fill-rule="evenodd" stroke="none"/>
      <path d="M20.65 12.15 L17.85 15.35 14.8 15.5 12.65 14.5 12.15 13.3 20.65 12.15" fill="#e8512e" fill-rule="evenodd" stroke="none"/>
      <path d="M12.15 13.3 L12.7 13.65 15.15 14.35 18.25 14.85 18.45 17.4 16.05 17.1 13.25 16.35 12.3 15.85 12.15 13.3" fill="#ba2400" fill-rule="evenodd" stroke="none"/>
      <path d="M19.1 12.5 L17.45 13.1 16.05 13.55 14.45 13.8 Q13.7 13.7 13.6 13.45 13.5 13.2 14.0 13.1 L19.1 12.5" fill="#cc2700" fill-rule="evenodd" stroke="none"/>
      <path d="M19.8 12.5 L18.45 14.15 16.45 14.25 Q16.15 14.1 16.5 13.85 16.85 13.55 17.55 13.3 L19.8 12.5" fill="#cc2700" fill-rule="evenodd" stroke="none"/>
      <path d="M15.65 13.15 L15.05 13.5 Q14.3 13.7 14.5 13.3 L15.15 13.15 15.65 13.15" fill="#d69635" fill-rule="evenodd" stroke="none"/>
      <path d="M18.15 13.55 L17.85 14.1 17.45 14.25 17.2 14.0 Q17.15 13.85 17.65 13.7 L18.15 13.55" fill="#d69635" fill-rule="evenodd" stroke="none"/>
      <path d="M17.55 13.85 Q17.75 13.85 17.6 14.0 L17.35 14.0 17.35 13.85 17.55 13.85" fill="#ffffff" fill-rule="evenodd" stroke="none"/>
      <path d="M14.85 13.25 L15.0 13.3 14.75 13.4 14.6 13.35 14.85 13.25" fill="#ffffff" fill-rule="evenodd" stroke="none"/>
      <path d="M20.45 15.8 L22.0 15.7 24.45 16.85 22.7 17.55 21.2 17.75 19.85 17.85 19.25 17.95 19.5 16.4 19.5 16.25 20.45 15.8" fill="#db9d00" fill-rule="evenodd" stroke="none"/>
      <path d="M21.8 16.15 L20.7 17.25 19.85 17.6 19.25 17.95 19.1 15.35 19.2 14.1 20.6 13.1 20.8 12.95 21.8 16.15" fill="#ffdc57" fill-rule="evenodd" stroke="none"/>
      <path d="M24.45 16.85 L22.65 17.05 20.75 17.25 Q20.6 17.05 20.6 14.9 L20.75 12.95 23.15 15.25 24.45 16.85" fill="#ffcf1c" fill-rule="evenodd" stroke="none"/>
      <path d="M19.65 10.45 L21.95 9.0 25.7 7.85 28.65 6.7 28.55 8.3 28.55 8.35 Q26.15 10.1 24.8 10.1 L19.65 10.45" fill="#ffdc57" fill-rule="evenodd" stroke="none"/>
      <path d="M28.65 6.7 Q29.15 8.0 29.25 9.0 L29.35 10.25 27.35 11.85 27.05 12.05 25.1 9.55 26.6 8.05 28.65 6.7" fill="#db9d00" fill-rule="evenodd" stroke="none"/>
      <path d="M19.45 10.4 L20.85 10.1 23.6 9.2 26.5 8.1 Q26.75 8.15 27.05 10.15 L27.05 12.1 23.15 11.05 20.7 10.55 19.45 10.4" fill="#ffcf1c" fill-rule="evenodd" stroke="none"/>
      <path d="M34.25 14.05 L35.3 14.2 34.25 15.4 32.5 15.55 31.4 14.5 34.25 14.05" fill="#ffdc57" fill-rule="evenodd" stroke="none"/>
      <path d="M31.4 14.5 L32.9 14.55 33.65 15.8 Q33.4 17.9 33.15 17.95 L32.2 17.8 31.45 17.55 31.55 16.7 31.45 15.25 31.4 14.5" fill="#ffcf1c" fill-rule="evenodd" stroke="none"/>
      <path d="M35.3 14.2 L35.6 16.85 34.25 17.65 33.15 17.95 32.9 15.5 32.9 14.55 33.65 14.4 34.75 14.2 35.3 14.2" fill="#db9d00" fill-rule="evenodd" stroke="none"/>
      <path d="M18.75 19.5 L30.2 18.5 Q35.15 17.6 36.95 16.05 35.9 19.8 30.8 22.3 25.65 24.8 18.85 24.8 12.15 24.8 7.0 22.35 2.0 19.95 0.8 16.25 2.75 17.7 7.6 18.6 L18.75 19.5" fill="url(#gradient1)" fill-rule="evenodd" stroke="none"/>
      <path d="M35.75 15.65 L36.95 15.65 37.0 15.95 Q37.0 17.5 31.7 18.55 26.35 19.65 18.85 19.65 L6.05 18.55 Q0.7 17.5 0.7 15.95 L0.8 15.65 2.1 15.65 Q2.3 16.85 7.2 17.7 L18.95 18.55 30.7 17.7 Q35.6 16.85 35.75 15.65" fill="#ffffff" fill-rule="evenodd" stroke="none"/>
      <path d="M31.5 8.65 Q36.8 9.35 36.9 10.9 37.0 12.45 31.85 13.9 26.6 15.3 19.05 15.75 11.55 16.25 6.2 15.55 0.8 14.8 0.7 13.25 0.6 11.75 5.85 10.3 11.1 8.9 18.6 8.4 26.15 7.95 31.5 8.65" fill="url(#gradient2)" fill-rule="evenodd" stroke="none"/>
      <path d="M36.9 10.6 L35.7 10.65 35.7 10.6 Q35.6 9.35 30.65 8.85 25.7 8.3 18.7 8.75 11.7 9.2 6.85 10.4 2.0 11.55 2.1 12.8 L2.1 12.85 0.75 12.95 Q1.25 11.5 6.35 10.15 11.55 8.9 18.6 8.4 25.7 7.95 30.95 8.55 36.2 9.25 36.9 10.6" fill="#ffffff" fill-rule="evenodd" stroke="none"/>
      <path d="M28.8 9.05 Q29.45 9.05 29.6 9.3 L30.8 10.05 32.1 10.65 32.95 11.35 33.7 12.1 33.5 13.05 32.85 13.95 27.6 15.25 21.6 16.45 3.7 15.3 4.2 13.1 5.75 11.95 6.65 11.45 7.95 10.9 9.25 10.55 Q10.25 10.15 10.8 10.15 L17.3 9.3 19.75 8.85 22.25 8.75 23.95 9.25 25.35 9.5 28.2 9.0 28.8 9.05" fill="#bf5d00" fill-rule="evenodd" stroke="none"/>
      <path d="M16.1 13.7 L15.15 14.8 Q14.75 14.2 14.65 13.65 L14.3 12.45 14.3 11.95 14.3 11.45 15.75 12.2 16.1 13.7" fill="#ffcf1c" fill-rule="evenodd" stroke="none"/>
      <path d="M15.15 14.8 L15.0 13.5 16.25 12.65 18.55 12.8 Q18.7 13.05 18.3 14.3 L17.4 14.35 15.9 14.6 15.15 14.8" fill="#db9d00" fill-rule="evenodd" stroke="none"/>
      <path d="M17.05 10.8 L18.1 11.9 18.55 12.8 16.0 13.4 15.0 13.5 Q14.45 12.45 14.4 11.95 L14.3 11.45 17.05 10.8" fill="#ffdc57" fill-rule="evenodd" stroke="none"/>
      <path d="M18.45 9.1 L17.55 10.2 17.0 9.05 16.7 7.8 16.65 7.3 16.65 6.85 18.1 7.55 18.45 9.1" fill="#ffcf1c" fill-rule="evenodd" stroke="none"/>
      <path d="M17.55 10.2 L17.35 8.9 18.6 8.0 20.9 8.15 Q21.1 8.35 20.7 9.65 L19.8 9.7 17.55 10.2" fill="#db9d00" fill-rule="evenodd" stroke="none"/>
      <path d="M19.45 6.15 L20.45 7.25 20.9 8.15 18.4 8.8 17.35 8.9 16.75 7.3 16.65 6.85 19.45 6.15" fill="#ffdc57" fill-rule="evenodd" stroke="none"/>
      <path d="M4.65 13.15 L3.7 14.3 3.15 13.15 2.85 11.9 2.8 11.4 Q2.8 10.9 2.9 10.95 L4.25 11.6 4.65 13.15" fill="#ffcf1c" fill-rule="evenodd" stroke="none"/>
      <path d="M4.75 12.1 L7.1 12.25 6.9 13.75 5.95 13.8 3.7 14.3 3.6 13.9 3.55 13.0 4.75 12.1" fill="#db9d00" fill-rule="evenodd" stroke="none"/>
      <path d="M7.1 12.25 L4.5 12.85 3.55 13.0 2.9 11.4 2.9 10.95 5.6 10.25 6.6 11.3 7.1 12.25" fill="#ffdc57" fill-rule="evenodd" stroke="none"/>
      <path d="M10.1 10.35 L8.15 8.95 7.8 7.9 8.75 7.85 10.75 7.6 13.05 7.45 Q14.75 10.85 14.35 11.15 13.9 11.5 10.1 10.35" fill="#e8512e" fill-rule="evenodd" stroke="none"/>
      <path d="M13.65 11.05 L14.45 11.0 13.65 13.1 12.55 13.15 Q11.15 12.95 9.55 12.15 8.15 11.55 7.4 10.8 L6.95 10.25 7.8 7.9 8.15 8.5 10.2 9.85 Q12.35 10.95 13.65 11.05" fill="#ba2400" fill-rule="evenodd" stroke="none"/>
      <path d="M12.35 7.8 Q11.85 9.4 10.75 9.45 10.0 9.45 9.55 8.9 9.15 8.4 9.5 8.15 L11.0 7.95 12.35 7.8" fill="#cc2700" fill-rule="evenodd" stroke="none"/>
      <path d="M13.0 8.05 L13.35 8.85 13.75 10.15 Q13.75 10.7 12.85 10.45 11.95 10.2 12.0 9.6 12.0 9.35 12.45 8.65 L13.0 8.05" fill="#cc2700" fill-rule="evenodd" stroke="none"/>
      <path d="M10.9 8.4 L10.75 8.85 10.3 8.85 10.15 8.55 10.55 8.45 10.9 8.4" fill="#d69635" fill-rule="evenodd" stroke="none"/>
      <path d="M12.8 9.15 L13.05 9.55 12.95 9.75 12.6 9.7 Q12.35 9.65 12.55 9.3 L12.8 9.15" fill="#d69635" fill-rule="evenodd" stroke="none"/>
      <path d="M12.65 9.3 L12.75 9.4 12.75 9.6 12.65 9.5 12.65 9.3" fill="#ffffff" fill-rule="evenodd" stroke="none"/>
      <path d="M10.5 8.55 Q10.65 8.75 10.3 8.6 L10.35 8.55 10.5 8.55" fill="#ffffff" fill-rule="evenodd" stroke="none"/>
      <path d="M22.7 7.8 L20.4 7.2 19.7 6.45 20.55 6.1 22.35 5.25 24.4 4.35 Q27.25 6.75 26.95 7.2 L22.7 7.8" fill="#e8512e" fill-rule="evenodd" stroke="none"/>
      <path d="M22.65 7.35 Q25.0 7.6 26.25 7.3 L26.95 7.0 27.05 9.1 Q25.6 9.75 22.8 9.55 L20.4 9.1 19.75 8.7 19.7 6.45 20.25 6.8 Q21.05 7.25 22.65 7.35" fill="#ba2400" fill-rule="evenodd" stroke="none"/>
      <path d="M23.95 4.95 Q24.0 6.45 22.95 6.85 L21.7 6.75 Q21.1 6.45 21.35 6.2 21.5 6.0 22.7 5.45 23.35 5.15 23.95 4.95" fill="#cc2700" fill-rule="evenodd" stroke="none"/>
      <path d="M24.6 4.9 L25.2 5.5 26.05 6.5 Q26.25 6.9 25.3 7.0 24.4 7.1 24.25 6.6 24.1 6.35 24.35 5.65 L24.6 4.9" fill="#cc2700" fill-rule="evenodd" stroke="none"/>
      <path d="M22.75 5.9 Q23.0 6.15 22.7 6.35 L22.3 6.4 Q22.1 6.45 22.1 6.3 L22.45 6.0 22.75 5.9" fill="#d69635" fill-rule="evenodd" stroke="none"/>
      <path d="M24.8 5.9 L25.1 6.2 25.15 6.45 24.85 6.5 Q24.55 6.45 24.65 6.15 L24.8 5.9" fill="#d69635" fill-rule="evenodd" stroke="none"/>
      <path d="M24.7 6.1 L24.85 6.1 24.85 6.3 24.75 6.25 24.7 6.1" fill="#ffffff" fill-rule="evenodd" stroke="none"/>
      <path d="M22.45 6.1 L22.25 6.25 22.25 6.15 22.45 6.1" fill="#ffffff" fill-rule="evenodd" stroke="none"/>
      <path d="M25.2 10.85 L23.6 12.6 22.5 12.85 22.6 9.85 22.7 7.6 24.55 7.05 26.55 6.8 Q26.85 7.3 25.2 10.85" fill="#e8512e" fill-rule="evenodd" stroke="none"/>
      <path d="M24.75 10.75 Q26.1 8.75 26.4 7.5 L26.45 6.65 28.5 7.7 Q28.45 9.35 27.0 11.65 L25.35 13.6 24.7 14.0 22.5 12.85 23.1 12.55 Q23.9 12.05 24.75 10.75" fill="#ba2400" fill-rule="evenodd" stroke="none"/>
      <path d="M23.0 8.35 L23.8 8.85 Q24.45 9.45 24.35 10.15 24.25 10.9 23.7 11.25 L23.05 11.2 22.95 9.65 23.0 8.35" fill="#cc2700" fill-rule="evenodd" stroke="none"/>
      <path d="M23.3 7.75 L24.15 7.45 25.5 7.2 Q26.05 7.3 25.7 8.15 25.3 9.05 24.75 8.9 L23.9 8.35 23.3 7.75" fill="#cc2700" fill-rule="evenodd" stroke="none"/>
      <path d="M23.4 9.85 L23.55 9.9 23.8 10.1 23.75 10.5 23.45 10.6 23.35 10.2 23.4 9.85" fill="#d69635" fill-rule="evenodd" stroke="none"/>
      <path d="M24.35 8.05 L24.55 7.95 24.75 7.9 25.05 8.05 24.95 8.35 Q24.75 8.55 24.55 8.35 L24.35 8.05" fill="#d69635" fill-rule="evenodd" stroke="none"/>
      <path d="M24.55 8.25 Q24.45 8.1 24.65 8.1 L24.8 8.2 24.7 8.25 24.55 8.25" fill="#ffffff" fill-rule="evenodd" stroke="none"/>
      <path d="M23.45 10.2 Q23.7 10.1 23.55 10.45 L23.45 10.4 23.45 10.2" fill="#ffffff" fill-rule="evenodd" stroke="none"/>
      <path d="M29.0 11.35 L28.7 13.9 27.2 15.35 24.6 12.85 24.15 11.5 29.0 11.35" fill="#ff6945" fill-rule="evenodd" stroke="none"/>
      <path d="M24.15 11.5 L31.5 10.35 31.4 11.5 29.8 12.85 Q27.6 13.8 27.25 13.45 L24.15 11.5" fill="#e8512e" fill-rule="evenodd" stroke="none"/>
      <path d="M31.5 10.35 L31.95 12.5 Q31.15 13.55 29.15 14.45 L27.2 15.35 26.8 13.15 27.3 13.0 29.25 11.95 Q31.25 10.9 31.5 10.35" fill="#ba2400" fill-rule="evenodd" stroke="none"/>
      <path d="M25.5 11.45 L29.9 10.7 30.35 10.8 Q30.3 11.05 29.75 11.3 L28.35 11.55 27.0 11.5 25.5 11.45" fill="#cc2700" fill-rule="evenodd" stroke="none"/>
      <path d="M24.95 11.6 L27.05 11.7 28.0 11.9 Q28.35 12.0 28.1 12.15 27.2 13.0 26.5 12.65 L25.35 11.95 24.95 11.6" fill="#cc2700" fill-rule="evenodd" stroke="none"/>
      <path d="M28.55 11.1 L29.0 11.0 29.55 10.95 Q29.85 11.25 29.15 11.2 L28.7 11.2 28.55 11.1" fill="#d69635" fill-rule="evenodd" stroke="none"/>
      <path d="M26.6 12.05 L27.05 12.1 27.45 12.2 27.35 12.45 27.0 12.45 26.6 12.05" fill="#d69635" fill-rule="evenodd" stroke="none"/>
      <path d="M27.15 12.15 L27.3 12.1 27.3 12.2 27.15 12.25 Q27.0 12.2 27.15 12.15" fill="#ffffff" fill-rule="evenodd" stroke="none"/>
      <path d="M29.25 10.95 L29.45 11.0 29.35 11.1 29.15 11.05 29.25 10.95" fill="#ffffff" fill-rule="evenodd" stroke="none"/>
      <path d="M9.15 12.75 L14.25 11.8 14.2 13.0 11.8 16.45 10.05 15.3 9.15 12.75" fill="#d6340d" fill-rule="evenodd" stroke="none"/>
      <path d="M14.25 11.8 L12.95 13.0 11.45 14.5 Q11.1 14.95 8.65 14.5 L6.7 13.35 6.35 12.25 14.25 11.8" fill="#e8512e" fill-rule="evenodd" stroke="none"/>
      <path d="M6.35 12.25 L6.8 12.6 9.0 13.4 11.8 14.15 11.8 16.45 9.65 16.05 Q8.2 15.65 7.1 15.1 L6.3 14.6 6.35 12.25" fill="#ba2400" fill-rule="evenodd" stroke="none"/>
      <path d="M12.8 12.0 L11.2 12.4 9.9 12.75 8.4 12.85 Q7.75 12.75 7.65 12.45 7.6 12.25 8.05 12.2 L12.8 12.0" fill="#cc2700" fill-rule="evenodd" stroke="none"/>
      <path d="M13.4 12.05 L12.05 13.5 10.2 13.4 Q9.95 13.25 10.3 13.05 10.6 12.75 11.25 12.65 L13.4 12.05" fill="#cc2700" fill-rule="evenodd" stroke="none"/>
      <path d="M9.55 12.35 L8.95 12.65 Q8.2 12.75 8.5 12.45 L9.1 12.35 9.55 12.35" fill="#d69635" fill-rule="evenodd" stroke="none"/>
      <path d="M11.8 12.95 L11.45 13.4 11.15 13.45 Q10.95 13.45 10.9 13.3 10.9 13.15 11.35 13.0 L11.8 12.95" fill="#d69635" fill-rule="evenodd" stroke="none"/>
      <path d="M11.25 13.1 L11.25 13.25 11.05 13.3 11.05 13.15 11.25 13.1" fill="#ffffff" fill-rule="evenodd" stroke="none"/>
      <path d="M8.8 12.35 Q9.0 12.35 8.95 12.45 L8.7 12.55 8.6 12.45 8.8 12.35" fill="#ffffff" fill-rule="evenodd" stroke="none"/>
      <path d="M15.6 5.3 L16.8 8.05 16.45 9.8 12.65 7.4 11.8 6.2 15.6 5.3" fill="#d6340d" fill-rule="evenodd" stroke="none"/>
      <path d="M17.1 6.75 Q15.85 8.15 15.4 7.85 L11.8 6.2 Q12.95 5.7 14.0 5.15 L17.0 3.75 17.55 4.95 17.1 6.75" fill="#e8512e" fill-rule="evenodd" stroke="none"/>
      <path d="M17.0 3.75 L18.7 6.05 Q18.6 7.25 17.5 8.6 L16.6 9.75 16.45 9.8 14.9 7.55 16.15 5.9 Q17.15 4.45 17.0 3.75" fill="#ba2400" fill-rule="evenodd" stroke="none"/>
      <path d="M12.85 5.9 L15.9 4.4 16.3 4.5 Q16.5 4.75 16.15 5.15 15.95 5.5 15.25 5.6 L14.1 5.75 12.85 5.9" fill="#cc2700" fill-rule="evenodd" stroke="none"/>
      <path d="M12.5 6.15 L14.2 5.95 15.1 6.0 15.4 6.3 Q15.1 7.3 14.3 7.05 L13.05 6.45 12.5 6.15" fill="#cc2700" fill-rule="evenodd" stroke="none"/>
      <path d="M15.05 5.1 L15.35 4.85 15.8 4.75 15.9 4.95 15.6 5.1 15.25 5.05 15.05 5.1" fill="#d69635" fill-rule="evenodd" stroke="none"/>
      <path d="M14.1 6.4 L14.45 6.35 14.9 6.45 14.85 6.75 14.6 6.75 14.1 6.4" fill="#d69635" fill-rule="evenodd" stroke="none"/>
      <path d="M14.55 6.35 Q14.65 6.2 14.8 6.45 L14.65 6.5 14.55 6.35" fill="#ffffff" fill-rule="evenodd" stroke="none"/>
      <path d="M15.6 4.8 L15.75 4.8 15.75 4.9 15.55 4.9 15.6 4.8" fill="#ffffff" fill-rule="evenodd" stroke="none"/>
      <path d="M19.55 14.75 L17.15 14.3 16.4 13.55 Q16.85 13.3 17.25 13.1 L18.9 12.0 20.95 10.85 Q23.9 13.2 23.7 13.65 23.4 14.15 19.55 14.75" fill="#e8512e" fill-rule="evenodd" stroke="none"/>
      <path d="M23.95 15.7 L22.9 16.2 19.8 16.65 17.3 16.35 16.6 16.05 16.4 13.55 16.95 13.9 19.35 14.3 23.0 13.9 23.75 13.5 23.95 15.7" fill="#ba2400" fill-rule="evenodd" stroke="none"/>
      <path d="M20.5 11.5 Q20.7 13.15 19.7 13.6 L18.4 13.7 Q17.8 13.45 18.05 13.1 L19.35 12.2 20.5 11.5" fill="#cc2700" fill-rule="evenodd" stroke="none"/>
      <path d="M21.15 11.4 L21.85 12.05 22.75 13.0 Q23.0 13.5 22.05 13.65 21.15 13.85 20.9 13.3 L20.95 12.25 21.15 11.4" fill="#cc2700" fill-rule="evenodd" stroke="none"/>
      <path d="M19.4 12.7 Q19.65 12.9 19.45 13.15 L19.05 13.3 18.85 13.15 19.1 12.85 19.4 12.7" fill="#d69635" fill-rule="evenodd" stroke="none"/>
      <path d="M21.45 12.45 L21.65 12.6 21.8 12.8 21.8 13.05 21.5 13.15 Q21.25 13.05 21.35 12.75 L21.45 12.45" fill="#d69635" fill-rule="evenodd" stroke="none"/>
      <path d="M21.35 12.75 Q21.4 12.6 21.5 12.75 L21.6 12.95 21.45 12.9 21.35 12.75" fill="#ffffff" fill-rule="evenodd" stroke="none"/>
      <path d="M19.15 12.95 Q19.45 13.1 19.0 13.1 L19.0 13.0 Q19.05 12.9 19.15 12.95" fill="#ffffff" fill-rule="evenodd" stroke="none"/>
      <path d="M8.25 12.6 L8.4 11.35 8.4 11.0 Q8.5 10.5 8.9 9.9 L9.55 8.05 10.9 9.0 10.95 9.05 Q11.05 10.95 10.35 11.5 L8.15 13.15 8.25 12.6" fill="#ffdc57" fill-rule="evenodd" stroke="none"/>
      <path d="M10.0 11.1 L9.55 9.65 9.6 8.75 9.55 8.05 11.95 9.1 13.1 9.8 13.35 11.45 13.25 11.75 10.0 11.1" fill="#db9d00" fill-rule="evenodd" stroke="none"/>
      <path d="M8.2 13.15 L9.6 9.7 9.95 9.8 Q10.5 10.0 11.65 10.7 12.95 11.35 13.35 11.7 L10.15 12.75 8.2 13.15" fill="#ffcf1c" fill-rule="evenodd" stroke="none"/>
      <path d="M30.95 10.5 L29.7 8.75 29.7 7.75 30.45 8.0 32.25 8.45 34.25 8.9 Q34.8 12.25 34.35 12.35 33.85 12.55 30.95 10.5" fill="#e8512e" fill-rule="evenodd" stroke="none"/>
      <path d="M29.7 7.75 L29.8 8.35 Q30.15 9.2 31.2 10.1 32.75 11.6 33.75 12.1 L34.45 12.3 33.3 13.85 Q31.85 13.6 30.0 11.9 29.0 10.9 28.55 10.1 L28.3 9.45 29.7 7.75" fill="#ba2400" fill-rule="evenodd" stroke="none"/>
      <path d="M33.5 9.05 Q32.7 10.2 31.8 9.85 31.1 9.65 30.9 9.15 30.65 8.6 31.0 8.5 L32.35 8.75 33.5 9.05" fill="#cc2700" fill-rule="evenodd" stroke="none"/>
      <path d="M33.95 9.4 Q34.3 10.85 34.15 11.45 L33.3 11.4 Q32.6 10.9 32.75 10.4 L33.4 9.8 Q33.65 9.55 33.95 9.4" fill="#cc2700" fill-rule="evenodd" stroke="none"/>
      <path d="M32.15 9.1 L31.9 9.35 31.55 9.3 31.5 9.05 31.85 9.0 32.15 9.1" fill="#d69635" fill-rule="evenodd" stroke="none"/>
      <path d="M33.55 10.25 L33.65 10.65 33.5 10.8 Q33.4 10.9 33.25 10.7 33.1 10.5 33.3 10.4 L33.55 10.25" fill="#d69635" fill-rule="evenodd" stroke="none"/>
      <path d="M33.4 10.35 L33.5 10.45 33.4 10.6 33.35 10.55 33.4 10.35" fill="#ffffff" fill-rule="evenodd" stroke="none"/>
      <path d="M31.8 9.05 Q31.9 9.4 31.6 9.1 L31.65 9.1 Q31.75 9.0 31.8 9.05" fill="#ffffff" fill-rule="evenodd" stroke="none"/>
      <path d="M15.05 10.0 L20.35 8.2 20.55 9.5 18.55 13.55 16.4 12.6 15.05 10.0" fill="#d6340d" fill-rule="evenodd" stroke="none"/>
      <path d="M20.35 8.2 L19.2 9.7 Q17.95 11.2 17.85 11.55 17.55 12.05 14.75 11.95 L12.55 11.0 11.95 9.9 20.35 8.2" fill="#e8512e" fill-rule="evenodd" stroke="none"/>
      <path d="M11.95 9.9 L12.5 10.15 15.0 10.7 18.15 11.0 18.55 13.55 16.15 13.4 13.25 12.85 12.25 12.45 11.95 9.9" fill="#ba2400" fill-rule="evenodd" stroke="none"/>
      <path d="M18.9 8.6 L17.3 9.3 15.85 9.9 14.3 10.2 Q13.55 10.15 13.4 9.9 13.3 9.65 13.85 9.6 L18.9 8.6" fill="#cc2700" fill-rule="evenodd" stroke="none"/>
      <path d="M19.55 8.55 Q19.25 9.45 18.35 10.3 17.65 11.0 16.35 10.5 16.05 10.4 16.4 10.05 L17.35 9.5 19.55 8.55" fill="#cc2700" fill-rule="evenodd" stroke="none"/>
      <path d="M15.5 9.5 L14.85 9.85 14.4 9.9 14.3 9.75 14.95 9.55 15.5 9.5" fill="#d69635" fill-rule="evenodd" stroke="none"/>
      <path d="M17.95 9.7 L17.7 10.3 17.3 10.45 Q17.1 10.5 17.05 10.3 17.0 10.15 17.45 9.9 L17.95 9.7" fill="#d69635" fill-rule="evenodd" stroke="none"/>
      <path d="M17.45 10.0 L17.45 10.15 17.25 10.2 17.25 10.05 17.45 10.0" fill="#ffffff" fill-rule="evenodd" stroke="none"/>
      <path d="M14.65 9.6 L14.85 9.7 14.6 9.8 14.45 9.75 14.65 9.6" fill="#ffffff" fill-rule="evenodd" stroke="none"/>
      <path d="M22.8 13.4 L21.35 13.75 19.95 13.9 19.4 14.05 19.55 12.45 19.55 12.4 20.4 11.85 21.95 11.65 24.5 12.65 23.95 12.85 22.8 13.4" fill="#db9d00" fill-rule="evenodd" stroke="none"/>
      <path d="M21.75 12.15 L20.75 13.25 19.95 13.65 19.4 14.05 Q19.1 12.55 19.1 11.5 L19.05 10.2 20.4 9.1 20.65 9.0 21.75 12.15" fill="#ffdc57" fill-rule="evenodd" stroke="none"/>
      <path d="M24.5 12.65 L20.8 13.25 20.55 10.9 20.55 8.95 23.05 11.15 24.5 12.65" fill="#ffcf1c" fill-rule="evenodd" stroke="none"/>
      <path d="M13.85 12.6 L13.2 11.2 13.8 11.2 15.3 11.15 17.9 10.85 19.3 11.25 19.8 11.35 Q17.45 12.4 16.65 12.9 L14.95 12.95 13.9 12.65 13.85 12.6" fill="#ffdc57" fill-rule="evenodd" stroke="none"/>
      <path d="M13.3 12.0 L13.2 11.2 13.85 11.45 14.9 11.7 16.3 12.5 16.15 15.45 15.85 15.45 14.1 14.65 13.7 13.5 13.3 12.0" fill="#db9d00" fill-rule="evenodd" stroke="none"/>
      <path d="M19.9 11.25 L18.0 13.2 16.15 15.5 Q15.85 15.1 15.45 13.75 L14.95 11.95 14.9 11.65 17.05 11.65 19.9 11.25" fill="#ffcf1c" fill-rule="evenodd" stroke="none"/>
      <path d="M20.7 4.05 L21.0 3.55 21.3 3.15 21.95 4.65 21.25 6.3 19.85 6.85 20.7 4.05" fill="#ffdc57" fill-rule="evenodd" stroke="none"/>
      <path d="M19.85 6.85 L20.55 5.5 22.05 5.35 Q23.8 6.5 23.7 6.8 L22.6 8.1 21.85 7.65 20.55 7.1 19.85 6.85" fill="#ffcf1c" fill-rule="evenodd" stroke="none"/>
      <path d="M23.8 4.05 L23.95 5.65 23.7 6.8 21.4 5.95 20.55 5.5 21.1 3.65 21.3 3.15 23.8 4.05" fill="#db9d00" fill-rule="evenodd" stroke="none"/>
      <path d="M18.95 15.65 Q25.3 15.2 30.35 13.95 35.2 12.6 36.95 11.0 36.1 14.8 31.2 17.65 26.2 20.5 19.4 20.9 12.7 21.35 7.45 19.25 2.25 17.1 0.8 13.55 2.85 14.85 7.8 15.45 12.8 16.05 18.95 15.65" fill="url(#gradient3)" fill-rule="evenodd" stroke="none"/>
      <path d="M35.7 10.65 L36.9 10.6 36.9 10.9 Q37.0 12.45 31.85 13.9 26.6 15.3 19.05 15.75 11.55 16.25 6.2 15.55 0.8 14.8 0.7 13.25 L0.75 12.95 2.1 12.85 Q2.35 14.05 7.3 14.6 12.25 15.1 19.1 14.65 25.95 14.2 30.8 13.05 35.65 11.9 35.7 10.65" fill="#ffffff" fill-rule="evenodd" stroke="none"/>
      <path d="M3.95 17.8 Q3.95 17.65 4.1 17.75 L4.15 17.95 4.05 17.95 3.95 17.8" fill="#ffffff" fill-rule="evenodd" stroke="none"/>
      <path d="M30.9 7.2 Q36.05 8.6 35.9 10.15 35.8 11.65 30.55 12.35 25.15 13.05 17.7 12.55 10.3 12.05 5.15 10.55 -0.1 9.15 0.0 7.65 0.15 6.1 5.5 5.4 10.8 4.7 18.25 5.2 25.7 5.7 30.9 7.2" fill="url(#gradient4)" fill-rule="evenodd" stroke="none"/>
      <path d="M35.9 9.8 L34.75 9.7 34.75 9.65 Q34.85 8.4 30.05 7.25 25.2 6.05 18.3 5.55 11.35 5.1 6.5 5.6 1.55 6.1 1.45 7.35 L1.45 7.4 0.15 7.3 Q0.8 5.95 6.0 5.3 11.2 4.7 18.25 5.2 25.3 5.7 30.35 7.0 35.45 8.35 35.9 9.8" fill="#ffffff" fill-rule="evenodd" stroke="none"/>
      <path d="M27.6 7.1 L28.2 7.2 Q28.85 7.3 28.85 7.55 29.05 7.9 31.15 9.2 L31.9 10.05 32.55 10.9 32.25 11.75 31.55 12.55 26.15 13.15 20.15 13.55 Q18.65 13.55 2.7 10.05 L3.5 7.95 6.1 6.6 7.45 6.2 8.75 6.1 10.3 5.9 16.8 5.9 19.3 5.85 21.8 6.0 Q22.15 6.35 23.35 6.7 L24.65 7.2 27.6 7.1" fill="#bf5d00" fill-rule="evenodd" stroke="none"/>
      <path d="M22.1 9.0 L21.0 9.95 20.65 8.75 20.5 7.5 20.5 7.0 Q20.55 6.5 20.65 6.55 L21.95 7.4 22.1 9.0" fill="#ffcf1c" fill-rule="evenodd" stroke="none"/>
      <path d="M21.0 9.95 L21.0 8.65 22.35 7.95 Q24.5 8.2 24.6 8.4 24.7 8.6 24.2 9.85 L23.3 9.8 21.0 9.95" fill="#db9d00" fill-rule="evenodd" stroke="none"/>
      <path d="M23.4 6.25 L24.25 7.5 24.6 8.4 22.0 8.65 21.0 8.65 Q20.65 7.55 20.65 7.05 L20.65 6.55 23.4 6.25" fill="#ffdc57" fill-rule="evenodd" stroke="none"/>
      <path d="M19.45 11.2 L19.4 12.65 18.3 12.05 17.3 11.3 16.95 10.95 16.75 10.55 18.3 10.25 19.45 11.2" fill="#ffcf1c" fill-rule="evenodd" stroke="none"/>
      <path d="M18.95 10.3 L19.8 9.6 20.85 8.95 21.6 10.3 20.9 10.95 19.4 12.65 19.1 12.4 18.5 11.75 18.95 10.3" fill="#db9d00" fill-rule="evenodd" stroke="none"/>
      <path d="M18.45 8.35 L19.95 8.6 20.85 8.95 19.2 11.0 18.5 11.75 17.1 10.85 16.75 10.55 18.45 8.35" fill="#ffdc57" fill-rule="evenodd" stroke="none"/>
      <path d="M3.9 8.0 L2.85 9.05 2.45 7.8 2.3 6.55 2.35 6.05 Q2.35 5.6 2.45 5.65 L3.75 6.5 3.9 8.0" fill="#ffcf1c" fill-rule="evenodd" stroke="none"/>
      <path d="M2.85 9.05 L2.85 7.7 4.2 7.0 5.25 7.15 6.4 7.45 6.0 8.9 5.05 8.85 2.85 9.05" fill="#db9d00" fill-rule="evenodd" stroke="none"/>
      <path d="M5.2 5.3 L6.1 6.5 6.4 7.45 3.85 7.7 2.85 7.7 2.45 6.05 2.45 5.65 5.2 5.3" fill="#ffdc57" fill-rule="evenodd" stroke="none"/>
      <path d="M9.7 5.95 L7.95 4.35 7.7 3.25 8.65 3.4 10.65 3.4 12.85 3.5 Q14.15 7.1 13.65 7.35 13.2 7.6 9.7 5.95" fill="#e8512e" fill-rule="evenodd" stroke="none"/>
      <path d="M7.7 3.25 Q7.75 4.15 9.8 5.55 11.8 6.85 12.95 7.2 L13.8 7.25 12.75 9.2 11.7 9.05 Q10.3 8.65 8.85 7.75 6.85 6.4 6.55 5.5 L7.7 3.25" fill="#ba2400" fill-rule="evenodd" stroke="none"/>
      <path d="M12.15 3.8 Q11.45 5.3 10.35 5.15 9.65 5.05 9.35 4.55 9.0 3.95 9.35 3.8 L10.85 3.8 12.15 3.8" fill="#cc2700" fill-rule="evenodd" stroke="none"/>
      <path d="M12.75 4.1 L13.0 5.0 13.3 6.3 Q13.2 6.8 12.3 6.45 11.5 6.1 11.55 5.5 L12.2 4.7 12.75 4.1" fill="#cc2700" fill-rule="evenodd" stroke="none"/>
      <path d="M10.6 4.2 Q10.75 4.55 10.4 4.6 L10.05 4.55 9.95 4.25 10.3 4.2 10.6 4.2" fill="#d69635" fill-rule="evenodd" stroke="none"/>
      <path d="M12.4 5.15 L12.55 5.55 12.45 5.75 12.1 5.75 Q11.9 5.5 12.15 5.35 L12.4 5.15" fill="#d69635" fill-rule="evenodd" stroke="none"/>
      <path d="M12.25 5.35 L12.4 5.4 12.3 5.6 12.25 5.55 12.25 5.35" fill="#ffffff" fill-rule="evenodd" stroke="none"/>
      <path d="M24.15 7.35 L21.9 6.4 21.35 5.55 22.3 5.4 24.15 4.75 Q25.05 4.4 26.3 4.2 28.7 6.9 28.4 7.25 L24.15 7.35" fill="#e8512e" fill-rule="evenodd" stroke="none"/>
      <path d="M21.35 5.55 L21.85 6.0 Q22.6 6.55 24.1 6.9 L28.5 7.1 28.2 9.15 Q26.7 9.65 24.05 9.1 22.55 8.75 21.7 8.25 L21.05 7.8 21.35 5.55" fill="#ba2400" fill-rule="evenodd" stroke="none"/>
      <path d="M25.7 4.65 Q25.6 6.2 24.55 6.4 23.8 6.55 23.3 6.15 22.75 5.8 23.05 5.55 L24.45 5.05 25.7 4.65" fill="#cc2700" fill-rule="evenodd" stroke="none"/>
      <path d="M26.35 4.75 L26.95 5.4 27.65 6.5 Q27.75 6.95 26.8 6.95 25.9 6.9 25.8 6.35 25.75 6.1 26.0 5.45 L26.35 4.75" fill="#cc2700" fill-rule="evenodd" stroke="none"/>
      <path d="M24.4 5.5 L24.35 5.9 23.95 5.95 23.75 5.75 24.15 5.55 24.4 5.5" fill="#d69635" fill-rule="evenodd" stroke="none"/>
      <path d="M26.45 5.75 L26.75 6.1 Q26.75 6.5 26.35 6.3 26.15 6.25 26.25 5.95 L26.45 5.75" fill="#d69635" fill-rule="evenodd" stroke="none"/>
      <path d="M26.35 5.9 L26.5 6.0 26.5 6.2 26.35 6.1 26.35 5.9" fill="#ffffff" fill-rule="evenodd" stroke="none"/>
      <path d="M24.1 5.65 Q24.3 5.8 23.9 5.75 L23.95 5.7 Q24.05 5.6 24.1 5.65" fill="#ffffff" fill-rule="evenodd" stroke="none"/>
      <path d="M22.85 4.2 L20.55 4.75 19.55 4.35 21.25 1.95 22.55 0.15 Q26.25 1.1 26.2 1.6 26.2 2.1 22.85 4.2" fill="#e8512e" fill-rule="evenodd" stroke="none"/>
      <path d="M25.7 2.05 L26.2 1.4 27.3 3.35 Q26.4 4.7 23.9 5.85 L21.5 6.6 20.75 6.55 19.55 4.35 20.2 4.5 22.55 3.85 Q24.75 2.95 25.7 2.05" fill="#ba2400" fill-rule="evenodd" stroke="none"/>
      <path d="M22.45 0.9 Q23.3 2.3 22.6 3.15 22.1 3.7 21.45 3.7 20.8 3.65 20.85 3.35 L21.65 2.0 22.45 0.9" fill="#cc2700" fill-rule="evenodd" stroke="none"/>
      <path d="M22.95 0.6 L23.85 0.8 Q24.8 1.1 25.1 1.35 25.5 1.7 24.7 2.2 L23.55 2.3 23.15 1.4 22.95 0.6" fill="#cc2700" fill-rule="evenodd" stroke="none"/>
      <path d="M21.95 2.4 L22.1 2.5 22.15 2.8 21.9 3.1 21.6 3.05 21.7 2.7 21.95 2.4" fill="#d69635" fill-rule="evenodd" stroke="none"/>
      <path d="M23.65 1.4 L23.85 1.45 24.15 1.55 24.25 1.75 24.05 1.95 Q23.75 2.05 23.7 1.7 L23.65 1.4" fill="#d69635" fill-rule="evenodd" stroke="none"/>
      <path d="M23.75 1.65 Q23.7 1.5 23.85 1.6 L24.05 1.75 23.9 1.8 23.75 1.65" fill="#ffffff" fill-rule="evenodd" stroke="none"/>
      <path d="M21.75 2.75 Q22.0 2.75 21.7 3.0 L21.65 2.9 21.75 2.75" fill="#ffffff" fill-rule="evenodd" stroke="none"/>
      <path d="M26.1 9.7 L25.45 12.1 23.85 13.35 21.5 10.55 21.3 9.2 26.1 9.7" fill="#ff6945" fill-rule="evenodd" stroke="none"/>
      <path d="M26.7 11.25 L24.05 11.5 21.3 9.2 24.5 9.05 28.65 9.05 28.4 10.1 26.7 11.25" fill="#e8512e" fill-rule="evenodd" stroke="none"/>
      <path d="M29.0 9.1 L29.2 11.3 Q28.3 12.15 26.15 12.85 L24.2 13.4 24.05 11.2 26.6 10.35 Q28.7 9.65 29.0 9.1" fill="#ba2400" fill-rule="evenodd" stroke="none"/>
      <path d="M22.65 9.3 L27.1 9.15 Q27.55 9.1 27.5 9.35 27.35 9.55 26.8 9.75 L25.45 9.8 24.1 9.6 22.65 9.3" fill="#cc2700" fill-rule="evenodd" stroke="none"/>
      <path d="M22.1 9.4 L24.1 9.75 Q24.75 9.85 25.05 10.05 25.35 10.25 25.1 10.4 24.0 11.0 23.45 10.6 L22.45 9.75 22.1 9.4" fill="#cc2700" fill-rule="evenodd" stroke="none"/>
      <path d="M25.65 9.35 L26.7 9.35 Q26.9 9.7 26.25 9.55 L25.8 9.45 25.65 9.35" fill="#d69635" fill-rule="evenodd" stroke="none"/>
      <path d="M23.6 10.0 Q24.45 10.1 24.45 10.3 L24.25 10.55 Q24.05 10.6 23.95 10.45 L23.6 10.0" fill="#d69635" fill-rule="evenodd" stroke="none"/>
      <path d="M24.15 10.2 L24.3 10.2 24.35 10.3 24.15 10.35 Q24.0 10.25 24.15 10.2" fill="#ffffff" fill-rule="evenodd" stroke="none"/>
      <path d="M26.4 9.35 L26.6 9.35 26.45 9.5 26.25 9.45 Q26.2 9.35 26.4 9.35" fill="#ffffff" fill-rule="evenodd" stroke="none"/>
      <path d="M8.4 8.25 L13.45 8.0 13.3 9.2 10.45 12.25 8.95 10.85 8.4 8.25" fill="#d6340d" fill-rule="evenodd" stroke="none"/>
      <path d="M13.45 8.0 L12.05 8.95 10.4 10.3 Q10.0 10.65 7.6 9.85 L5.9 8.5 5.7 7.4 13.45 8.0" fill="#e8512e" fill-rule="evenodd" stroke="none"/>
      <path d="M5.7 7.4 Q6.0 7.9 8.15 8.85 L10.8 9.9 10.45 12.25 8.5 11.5 Q6.25 10.65 5.35 9.7 L5.7 7.4" fill="#ba2400" fill-rule="evenodd" stroke="none"/>
      <path d="M12.0 8.0 L10.5 8.25 9.1 8.35 7.6 8.25 Q7.0 8.05 6.95 7.8 6.9 7.55 7.35 7.55 L12.0 8.0" fill="#cc2700" fill-rule="evenodd" stroke="none"/>
      <path d="M12.6 8.2 L11.1 9.35 Q10.45 9.7 9.35 9.0 9.1 8.85 9.5 8.65 L10.45 8.45 12.6 8.2" fill="#cc2700" fill-rule="evenodd" stroke="none"/>
      <path d="M8.9 7.9 L8.25 8.05 Q7.5 8.1 7.8 7.85 L8.4 7.85 8.9 7.9" fill="#d69635" fill-rule="evenodd" stroke="none"/>
      <path d="M10.95 8.7 L10.55 9.2 10.25 9.2 10.05 9.0 Q10.1 8.85 10.5 8.8 L10.95 8.7" fill="#d69635" fill-rule="evenodd" stroke="none"/>
      <path d="M10.4 8.85 L10.35 9.05 10.15 9.0 10.2 8.85 10.4 8.85" fill="#ffffff" fill-rule="evenodd" stroke="none"/>
      <path d="M8.15 7.8 L8.25 7.9 8.0 7.95 7.9 7.85 8.15 7.8" fill="#ffffff" fill-rule="evenodd" stroke="none"/>
      <path d="M8.7 5.1 L5.75 4.7 4.45 3.5 8.4 1.5 9.85 1.4 8.7 5.1" fill="#d6340d" fill-rule="evenodd" stroke="none"/>
      <path d="M6.7 5.6 L6.5 4.75 Q6.35 3.75 6.65 3.65 L9.85 1.4 9.65 3.85 9.2 7.1 7.9 6.9 6.7 5.6" fill="#e8512e" fill-rule="evenodd" stroke="none"/>
      <path d="M9.2 7.1 L6.5 7.3 Q5.5 6.65 4.95 5.05 L4.45 3.5 7.15 3.3 7.9 5.25 Q8.6 6.85 9.2 7.1" fill="#ba2400" fill-rule="evenodd" stroke="none"/>
      <path d="M9.6 2.45 L9.3 5.85 8.95 6.1 Q8.65 6.1 8.5 5.7 8.35 5.25 8.6 4.6 L9.05 3.55 9.6 2.45" fill="#cc2700" fill-rule="evenodd" stroke="none"/>
      <path d="M9.5 2.0 L8.85 3.55 8.4 4.3 7.95 4.4 Q7.3 3.65 7.85 3.05 L9.5 2.0" fill="#cc2700" fill-rule="evenodd" stroke="none"/>
      <path d="M9.15 4.7 L9.05 5.5 Q8.7 5.75 8.85 5.2 L9.15 4.7" fill="#d69635" fill-rule="evenodd" stroke="none"/>
      <path d="M8.5 3.2 Q8.35 3.85 8.05 3.9 L7.85 3.7 7.95 3.5 Q8.15 3.35 8.5 3.2" fill="#d69635" fill-rule="evenodd" stroke="none"/>
      <path d="M8.3 3.65 L8.25 3.75 8.1 3.8 Q8.05 3.75 8.15 3.65 8.25 3.5 8.3 3.65" fill="#ffffff" fill-rule="evenodd" stroke="none"/>
      <path d="M9.15 5.3 L9.05 5.45 8.9 5.35 9.05 5.2 9.15 5.3" fill="#ffffff" fill-rule="evenodd" stroke="none"/>
      <path d="M14.3 3.65 L12.05 2.9 11.4 2.05 12.3 1.7 14.1 0.9 Q15.0 0.4 16.2 0.0 18.85 2.75 18.5 3.15 18.25 3.6 14.3 3.65" fill="#e8512e" fill-rule="evenodd" stroke="none"/>
      <path d="M17.85 3.3 L18.6 2.95 18.55 5.2 Q17.05 5.95 14.35 5.6 12.85 5.4 11.9 4.9 L11.3 4.45 11.4 2.05 11.95 2.5 Q12.7 2.95 14.25 3.2 L17.85 3.3" fill="#ba2400" fill-rule="evenodd" stroke="none"/>
      <path d="M15.7 0.6 Q15.65 2.25 14.65 2.6 L13.35 2.45 Q12.75 2.15 13.1 1.85 13.2 1.65 14.45 1.1 L15.7 0.6" fill="#cc2700" fill-rule="evenodd" stroke="none"/>
      <path d="M16.3 0.6 Q17.5 1.75 17.7 2.4 17.9 2.9 16.95 2.9 15.95 3.0 15.85 2.35 15.8 2.15 16.05 1.4 L16.3 0.6" fill="#cc2700" fill-rule="evenodd" stroke="none"/>
      <path d="M14.4 1.6 L14.45 2.05 14.0 2.15 13.85 2.0 14.15 1.7 14.4 1.6" fill="#d69635" fill-rule="evenodd" stroke="none"/>
      <path d="M16.45 1.65 L16.8 2.05 16.75 2.3 16.45 2.3 Q16.15 2.25 16.3 1.95 L16.45 1.65" fill="#d69635" fill-rule="evenodd" stroke="none"/>
      <path d="M16.4 1.9 L16.6 1.95 16.6 2.15 16.45 2.1 16.4 1.9" fill="#ffffff" fill-rule="evenodd" stroke="none"/>
      <path d="M14.15 1.85 Q14.45 2.0 14.0 2.0 L14.0 1.85 14.15 1.85" fill="#ffffff" fill-rule="evenodd" stroke="none"/>
      <path d="M10.55 4.8 L10.6 4.8 Q10.5 6.75 9.75 7.15 L7.35 8.5 7.55 7.95 7.8 6.75 Q7.85 6.25 8.5 5.4 L9.45 3.75 10.55 4.8" fill="#ffdc57" fill-rule="evenodd" stroke="none"/>
      <path d="M9.5 6.75 L9.25 5.3 9.4 4.35 9.45 3.75 11.55 5.05 12.6 5.8 12.6 7.55 12.55 7.75 9.5 6.75" fill="#db9d00" fill-rule="evenodd" stroke="none"/>
      <path d="M7.4 8.5 L8.25 6.95 9.25 5.35 9.5 5.45 11.1 6.5 12.6 7.8 9.4 8.35 7.4 8.5" fill="#ffcf1c" fill-rule="evenodd" stroke="none"/>
      <path d="M29.0 6.75 L28.0 4.85 28.05 3.95 28.85 4.3 30.5 4.9 Q31.4 5.1 32.4 5.65 32.55 9.0 32.05 9.15 31.6 9.15 29.0 6.75" fill="#e8512e" fill-rule="evenodd" stroke="none"/>
      <path d="M28.05 3.95 L28.1 4.55 29.25 6.4 31.55 8.75 32.25 9.05 30.9 10.4 Q29.45 9.95 27.9 8.05 L26.7 6.1 26.55 5.45 28.05 3.95" fill="#ba2400" fill-rule="evenodd" stroke="none"/>
      <path d="M31.7 5.7 Q30.75 6.75 29.85 6.25 L29.05 5.4 Q28.9 4.9 29.25 4.8 29.6 4.8 31.7 5.7" fill="#cc2700" fill-rule="evenodd" stroke="none"/>
      <path d="M32.15 6.1 Q32.25 7.55 32.0 8.1 31.8 8.5 31.2 7.9 30.55 7.4 30.75 6.95 30.9 6.75 31.5 6.45 L32.15 6.1" fill="#cc2700" fill-rule="evenodd" stroke="none"/>
      <path d="M30.3 5.55 L30.05 5.8 29.75 5.65 29.65 5.4 30.0 5.4 30.3 5.55" fill="#d69635" fill-rule="evenodd" stroke="none"/>
      <path d="M31.65 6.9 L31.6 7.3 31.5 7.45 31.2 7.25 Q31.1 7.05 31.3 6.95 L31.65 6.9" fill="#d69635" fill-rule="evenodd" stroke="none"/>
      <path d="M31.4 7.0 L31.5 7.1 31.35 7.2 31.3 7.05 31.4 7.0" fill="#ffffff" fill-rule="evenodd" stroke="none"/>
      <path d="M30.0 5.5 Q30.1 5.85 29.8 5.5 L30.0 5.5" fill="#ffffff" fill-rule="evenodd" stroke="none"/>
      <path d="M15.5 6.05 L20.9 5.0 20.9 6.35 18.4 10.05 16.4 8.8 15.5 6.05" fill="#d6340d" fill-rule="evenodd" stroke="none"/>
      <path d="M20.9 5.0 L17.95 7.95 Q17.6 8.45 14.85 7.95 L12.85 6.8 12.4 5.55 20.9 5.0" fill="#e8512e" fill-rule="evenodd" stroke="none"/>
      <path d="M12.4 5.55 L12.9 5.95 15.3 6.75 18.35 7.5 18.4 10.05 16.05 9.55 13.25 8.6 12.35 8.1 12.4 5.55" fill="#ba2400" fill-rule="evenodd" stroke="none"/>
      <path d="M19.4 5.25 L17.75 5.7 16.25 6.05 14.65 6.2 Q13.95 6.05 13.85 5.8 13.75 5.55 14.3 5.5 L19.4 5.25" fill="#cc2700" fill-rule="evenodd" stroke="none"/>
      <path d="M20.05 5.3 L18.6 6.85 16.65 6.75 Q16.3 6.65 16.7 6.35 17.05 6.1 17.75 5.9 L20.05 5.3" fill="#cc2700" fill-rule="evenodd" stroke="none"/>
      <path d="M15.95 5.6 Q15.7 5.85 15.25 5.95 14.5 6.1 14.7 5.7 L15.4 5.6 15.95 5.6" fill="#d69635" fill-rule="evenodd" stroke="none"/>
      <path d="M18.3 6.15 L18.0 6.75 17.65 6.85 Q17.35 6.8 17.4 6.6 17.35 6.45 17.85 6.35 L18.3 6.15" fill="#d69635" fill-rule="evenodd" stroke="none"/>
      <path d="M17.75 6.45 Q18.05 6.5 17.55 6.6 L17.55 6.45 17.75 6.45" fill="#ffffff" fill-rule="evenodd" stroke="none"/>
      <path d="M15.15 5.65 L15.2 5.75 14.95 5.85 14.85 5.7 15.15 5.65" fill="#ffffff" fill-rule="evenodd" stroke="none"/>
      <path d="M33.45 11.0 L32.95 11.1 31.75 11.5 30.25 11.6 28.85 11.6 28.3 11.7 28.65 10.1 28.65 10.05 29.55 9.65 Q30.65 9.35 31.15 9.65 L33.45 11.0" fill="#db9d00" fill-rule="evenodd" stroke="none"/>
      <path d="M30.9 10.05 L29.7 11.1 28.9 11.35 28.3 11.7 Q28.25 10.15 28.35 9.1 L28.45 7.9 29.9 6.9 30.1 6.85 30.9 10.05" fill="#ffdc57" fill-rule="evenodd" stroke="none"/>
      <path d="M31.7 11.0 L29.8 11.05 Q29.65 10.85 29.85 8.8 L30.1 6.8 32.25 9.3 33.45 10.95 31.7 11.0" fill="#ffcf1c" fill-rule="evenodd" stroke="none"/>
      <path d="M18.25 4.2 L17.4 5.5 16.9 4.1 16.55 2.75 16.55 2.15 16.55 1.6 17.9 2.5 18.25 4.2" fill="#db9d00" fill-rule="evenodd" stroke="none"/>
      <path d="M17.25 4.0 L18.4 3.0 19.45 3.05 20.5 3.25 Q20.7 3.5 20.4 4.95 L19.55 5.05 18.15 5.3 17.4 5.5 17.25 4.0" fill="#ffcf1c" fill-rule="evenodd" stroke="none"/>
      <path d="M19.1 1.1 L20.15 2.35 20.6 3.4 18.25 4.0 17.3 4.15 16.65 2.3 16.6 1.75 19.1 1.1" fill="#ffdc57" fill-rule="evenodd" stroke="none"/>
      <path d="M17.65 12.35 Q23.95 12.8 29.05 12.2 34.0 11.6 35.9 10.2 34.6 13.9 29.35 16.0 24.05 18.1 17.3 17.65 10.75 17.2 5.9 14.4 1.05 11.65 0.1 7.9 1.95 9.5 6.7 10.75 11.55 11.9 17.65 12.35" fill="url(#gradient5)" fill-rule="evenodd" stroke="none"/>
      <path d="M15.7 7.15 L16.85 7.3 15.75 8.6 13.85 8.75 12.65 7.65 15.7 7.15" fill="#ffdc57" fill-rule="evenodd" stroke="none"/>
      <path d="M12.65 7.65 L14.25 7.7 15.1 9.05 Q14.8 11.25 14.55 11.35 L13.55 11.15 12.75 10.9 12.8 9.95 12.75 8.45 12.65 7.65" fill="#ffcf1c" fill-rule="evenodd" stroke="none"/>
      <path d="M16.85 7.3 L17.2 10.15 15.7 11.0 14.55 11.35 14.25 8.7 14.25 7.7 15.05 7.5 16.25 7.3 16.85 7.3" fill="#db9d00" fill-rule="evenodd" stroke="none"/>
      <path d="M34.75 9.7 L35.9 9.8 35.9 10.15 Q35.8 11.65 30.55 12.35 25.15 13.05 17.7 12.55 10.3 12.05 5.15 10.55 -0.1 9.15 0.0 7.65 L0.15 7.3 1.45 7.4 Q1.55 8.6 6.35 9.8 11.1 10.95 17.9 11.4 24.7 11.9 29.6 11.4 34.45 10.9 34.75 9.7" fill="#ffffff" fill-rule="evenodd" stroke="none"/>
      <path d="M13.85 12.6 L13.2 11.2 13.8 11.2 15.3 11.15 17.9 10.85 19.3 11.25 19.8 11.35 Q17.45 12.4 16.65 12.9 L14.95 12.95 13.9 12.65 13.85 12.6" fill="#ffdc57" fill-rule="evenodd" stroke="none"/>
      <path d="M13.3 12.0 L13.2 11.2 13.85 11.45 14.9 11.7 16.3 12.5 16.15 15.45 15.85 15.45 14.1 14.65 13.7 13.5 13.3 12.0" fill="#db9d00" fill-rule="evenodd" stroke="none"/>
      <path d="M19.9 11.25 L18.0 13.2 16.15 15.5 Q15.85 15.1 15.45 13.75 L14.95 11.95 14.9 11.65 17.05 11.65 19.9 11.25" fill="#ffcf1c" fill-rule="evenodd" stroke="none"/>
      <path d="M18.95 15.65 Q25.3 15.2 30.35 13.95 35.2 12.6 36.95 11.0 36.1 14.8 31.2 17.65 26.2 20.5 19.4 20.9 12.7 21.35 7.45 19.25 2.25 17.1 0.8 13.55 2.85 14.85 7.8 15.45 12.8 16.05 18.95 15.65" fill="url(#gradient6)" fill-rule="evenodd" stroke="none"/>
      <path d="M35.7 10.65 L36.9 10.6 36.9 10.9 Q37.0 12.45 31.85 13.9 26.6 15.3 19.05 15.75 11.55 16.25 6.2 15.55 0.8 14.8 0.7 13.25 L0.75 12.95 2.1 12.85 Q2.35 14.05 7.3 14.6 12.25 15.1 19.1 14.65 25.95 14.2 30.8 13.05 35.65 11.9 35.7 10.65" fill="#ffffff" fill-rule="evenodd" stroke="none"/>
      <path d="M34.25 14.05 L35.3 14.2 34.25 15.4 32.5 15.55 31.4 14.5 34.25 14.05" fill="#ffdc57" fill-rule="evenodd" stroke="none"/>
      <path d="M31.4 14.5 L32.9 14.55 33.65 15.8 Q33.4 17.9 33.15 17.95 L32.2 17.8 31.45 17.55 31.55 16.7 31.45 15.25 31.4 14.5" fill="#ffcf1c" fill-rule="evenodd" stroke="none"/>
      <path d="M35.3 14.2 L35.6 16.85 34.25 17.65 33.15 17.95 32.9 15.5 32.9 14.55 33.65 14.4 34.75 14.2 35.3 14.2" fill="#db9d00" fill-rule="evenodd" stroke="none"/>
      <path d="M18.75 19.5 L30.2 18.5 Q35.15 17.6 36.95 16.05 35.9 19.8 30.8 22.3 25.65 24.8 18.85 24.8 12.15 24.8 7.0 22.35 2.0 19.95 0.8 16.25 2.75 17.7 7.6 18.6 L18.75 19.5" fill="url(#gradient7)" fill-rule="evenodd" stroke="none"/>
      <path d="M35.75 15.65 L36.95 15.65 37.0 15.95 Q37.0 17.5 31.7 18.55 26.35 19.65 18.85 19.65 L6.05 18.55 Q0.7 17.5 0.7 15.95 L0.8 15.65 2.1 15.65 Q2.3 16.85 7.2 17.7 L18.95 18.55 30.7 17.7 Q35.6 16.85 35.75 15.65" fill="#ffffff" fill-rule="evenodd" stroke="none"/>
    </g>
    <linearGradient gradientTransform="matrix(-0.0268, 0.0, 0.0, 0.0268, 21.4, 15.95)" gradientUnits="userSpaceOnUse" id="gradient0" spreadMethod="pad" x1="-819.2" x2="819.2">
      <stop offset="0.0" stop-color="#ffffff"/>
      <stop offset="1.0" stop-color="#a9cad1"/>
    </linearGradient>
    <linearGradient gradientTransform="matrix(0.0221, 0.0, 0.0, -0.0221, 18.85, 20.45)" gradientUnits="userSpaceOnUse" id="gradient1" spreadMethod="pad" x1="-819.2" x2="819.2">
      <stop offset="0.0" stop-color="#ffffff"/>
      <stop offset="1.0" stop-color="#a9cad1"/>
    </linearGradient>
    <linearGradient gradientTransform="matrix(-0.0267, 0.0017, 0.0017, 0.0267, 21.35, 11.9)" gradientUnits="userSpaceOnUse" id="gradient2" spreadMethod="pad" x1="-819.2" x2="819.2">
      <stop offset="0.0" stop-color="#ffffff"/>
      <stop offset="1.0" stop-color="#a9cad1"/>
    </linearGradient>
    <linearGradient gradientTransform="matrix(0.022, -0.0014, -0.0014, -0.022, 19.15, 16.55)" gradientUnits="userSpaceOnUse" id="gradient3" spreadMethod="pad" x1="-819.2" x2="819.2">
      <stop offset="0.0" stop-color="#ffffff"/>
      <stop offset="1.0" stop-color="#a9cad1"/>
    </linearGradient>
    <linearGradient gradientTransform="matrix(-0.0265, -0.0018, -0.0018, 0.0265, 20.5, 9.1)" gradientUnits="userSpaceOnUse" id="gradient4" spreadMethod="pad" x1="-819.2" x2="819.2">
      <stop offset="0.0" stop-color="#ffffff"/>
      <stop offset="1.0" stop-color="#a9cad1"/>
    </linearGradient>
    <linearGradient gradientTransform="matrix(0.0219, 0.0015, 0.0015, -0.0219, 17.65, 13.3)" gradientUnits="userSpaceOnUse" id="gradient5" spreadMethod="pad" x1="-819.2" x2="819.2">
      <stop offset="0.0" stop-color="#ffffff"/>
      <stop offset="1.0" stop-color="#a9cad1"/>
    </linearGradient>
    <linearGradient gradientTransform="matrix(0.022, -0.0014, -0.0014, -0.022, 19.15, 16.55)" gradientUnits="userSpaceOnUse" id="gradient6" spreadMethod="pad" x1="-819.2" x2="819.2">
      <stop offset="0.0" stop-color="#ffffff"/>
      <stop offset="1.0" stop-color="#a9cad1"/>
    </linearGradient>
    <linearGradient gradientTransform="matrix(0.0221, 0.0, 0.0, -0.0221, 18.85, 20.45)" gradientUnits="userSpaceOnUse" id="gradient7" spreadMethod="pad" x1="-819.2" x2="819.2">
      <stop offset="0.0" stop-color="#ffffff"/>
      <stop offset="1.0" stop-color="#a9cad1"/>
    </linearGradient>
  </defs>
</svg>
