<?xml version="1.0" encoding="UTF-8" standalone="no"?>
<svg xmlns:xlink="http://www.w3.org/1999/xlink" height="29.45px" width="46.0px" xmlns="http://www.w3.org/2000/svg">
  <g transform="matrix(1.0, 0.0, 0.0, 1.0, 0.0, 0.0)">
    <use height="29.45" transform="matrix(1.0, 0.0, 0.0, 1.0, 4.35, 0.0)" width="37.35" xlink:href="#sprite0"/>
  </g>
  <defs>
    <g id="sprite0" transform="matrix(1.0, 0.0, 0.0, 1.0, 0.0, 0.0)">
      <use height="29.45" transform="matrix(1.0, 0.0, 0.0, 1.0, 0.0, 0.0)" width="37.35" xlink:href="#shape0"/>
    </g>
    <g id="shape0" transform="matrix(1.0, 0.0, 0.0, 1.0, 0.0, 0.0)">
      <path d="M37.35 20.6 Q37.35 22.15 32.05 23.2 L19.2 24.3 Q11.7 24.3 6.4 23.2 1.05 22.15 1.05 20.6 1.05 19.1 6.4 18.0 11.7 16.9 19.2 16.9 26.7 16.9 32.05 18.0 37.35 19.1 37.35 20.6" fill="url(#gradient0)" fill-rule="evenodd" stroke="none"/>
      <path d="M37.3 20.3 L36.1 20.3 36.15 20.2 Q36.15 19.0 31.2 18.1 L19.3 17.25 7.4 18.1 Q2.45 19.0 2.45 20.2 L2.45 20.3 1.15 20.3 Q1.7 18.9 6.85 17.9 L19.2 16.9 31.55 17.9 Q36.7 18.9 37.3 20.3" fill="#ffffff" fill-rule="evenodd" stroke="none"/>
      <path d="M33.05 23.4 L27.7 24.35 21.7 25.15 3.9 22.85 4.55 20.65 6.15 19.65 7.05 19.2 Q8.05 18.7 8.4 18.7 L9.7 18.45 11.3 18.15 17.8 17.75 20.35 17.45 Q22.4 17.2 22.85 17.45 23.3 17.75 24.5 18.05 L25.85 18.4 28.75 18.15 29.35 18.2 Q30.0 18.35 30.1 18.55 30.25 18.9 32.5 20.0 L33.3 20.75 34.0 21.6 33.75 22.5 33.05 23.4" fill="#bf5d00" fill-rule="evenodd" stroke="none"/>
      <path d="M16.35 22.05 L15.35 23.15 14.9 21.95 14.65 20.65 14.65 20.15 14.75 19.7 16.1 20.5 16.35 22.05" fill="#ffcf1c" fill-rule="evenodd" stroke="none"/>
      <path d="M16.6 21.0 L18.85 21.3 Q19.0 21.5 18.55 22.8 L17.65 22.8 15.35 23.15 15.3 22.7 15.3 21.8 16.6 21.0" fill="#db9d00" fill-rule="evenodd" stroke="none"/>
      <path d="M17.5 19.25 L18.45 20.35 18.85 21.3 16.3 21.75 15.3 21.8 Q14.8 20.65 14.8 20.15 L14.75 19.7 17.5 19.25" fill="#ffdc57" fill-rule="evenodd" stroke="none"/>
      <path d="M19.05 17.55 L18.0 18.65 Q17.65 17.95 17.6 17.45 L17.35 16.2 17.35 15.7 17.4 15.2 18.75 16.05 19.05 17.55" fill="#ffcf1c" fill-rule="evenodd" stroke="none"/>
      <path d="M19.25 16.55 L21.55 16.8 21.25 18.3 20.3 18.35 18.85 18.5 18.0 18.65 17.95 18.25 17.95 17.3 19.25 16.55" fill="#db9d00" fill-rule="evenodd" stroke="none"/>
      <path d="M20.2 14.75 L21.1 15.9 21.55 16.8 19.0 17.25 17.95 17.3 17.45 15.7 17.4 15.2 20.2 14.75" fill="#ffdc57" fill-rule="evenodd" stroke="none"/>
      <path d="M4.95 20.75 L3.95 21.8 Q3.55 21.15 3.5 20.6 L3.25 19.4 3.25 18.9 3.3 18.4 4.7 19.25 4.95 20.75" fill="#ffcf1c" fill-rule="evenodd" stroke="none"/>
      <path d="M3.95 21.8 L3.85 20.5 5.2 19.7 6.25 19.75 7.45 20.0 Q7.6 20.25 7.15 21.5 L6.25 21.5 3.95 21.8" fill="#db9d00" fill-rule="evenodd" stroke="none"/>
      <path d="M6.1 17.9 L7.05 19.1 7.45 20.0 4.9 20.45 3.85 20.5 3.35 18.9 3.3 18.4 6.1 17.9" fill="#ffdc57" fill-rule="evenodd" stroke="none"/>
      <path d="M10.6 18.3 L8.75 16.75 8.5 15.7 9.4 15.75 11.45 15.65 13.75 15.55 Q15.25 19.1 14.8 19.4 14.35 19.7 10.6 18.3" fill="#e8512e" fill-rule="evenodd" stroke="none"/>
      <path d="M8.5 15.7 L8.8 16.3 10.7 17.85 Q12.8 19.0 14.05 19.25 L14.9 19.25 14.0 21.3 Q12.35 21.45 9.95 20.15 7.75 18.95 7.45 18.0 L8.5 15.7" fill="#ba2400" fill-rule="evenodd" stroke="none"/>
      <path d="M13.0 15.95 Q12.4 17.45 11.3 17.4 10.55 17.35 10.15 16.85 9.75 16.3 10.15 16.1 L11.7 15.95 13.0 15.95" fill="#cc2700" fill-rule="evenodd" stroke="none"/>
      <path d="M13.6 16.2 L13.95 17.0 14.25 18.35 Q14.2 18.85 13.35 18.55 12.45 18.25 12.55 17.7 12.55 17.45 13.05 16.8 L13.6 16.2" fill="#cc2700" fill-rule="evenodd" stroke="none"/>
      <path d="M11.5 16.4 Q11.6 16.75 11.3 16.85 L10.9 16.8 10.75 16.55 Q10.8 16.4 11.15 16.4 L11.5 16.4" fill="#d69635" fill-rule="evenodd" stroke="none"/>
      <path d="M13.35 17.25 L13.55 17.7 13.45 17.9 13.1 17.85 Q12.85 17.7 13.1 17.45 L13.35 17.25" fill="#d69635" fill-rule="evenodd" stroke="none"/>
      <path d="M13.2 17.45 Q13.3 17.35 13.35 17.55 L13.3 17.75 13.15 17.6 13.2 17.45" fill="#ffffff" fill-rule="evenodd" stroke="none"/>
      <path d="M11.1 16.55 L10.9 16.6 10.95 16.5 11.1 16.55" fill="#ffffff" fill-rule="evenodd" stroke="none"/>
      <path d="M23.35 16.55 L21.1 15.8 20.45 15.05 21.3 14.75 23.15 14.0 Q24.1 13.6 25.3 13.25 27.9 15.8 27.6 16.25 L23.35 16.55" fill="#e8512e" fill-rule="evenodd" stroke="none"/>
      <path d="M26.9 16.35 L27.7 16.1 27.55 18.1 23.35 18.35 20.95 17.7 20.3 17.3 20.45 15.05 20.95 15.45 Q21.7 15.9 23.25 16.15 L26.9 16.35" fill="#ba2400" fill-rule="evenodd" stroke="none"/>
      <path d="M24.7 13.8 L24.6 14.6 Q24.35 15.45 23.65 15.6 L22.4 15.45 Q21.85 15.15 22.1 14.85 L23.5 14.25 24.7 13.8" fill="#cc2700" fill-rule="evenodd" stroke="none"/>
      <path d="M25.35 13.85 L26.0 14.45 26.8 15.5 Q26.95 15.95 26.0 15.95 25.05 16.0 24.9 15.45 24.85 15.2 25.1 14.5 L25.35 13.85" fill="#cc2700" fill-rule="evenodd" stroke="none"/>
      <path d="M23.5 14.7 Q23.7 14.95 23.5 15.1 L23.05 15.2 22.9 15.05 23.2 14.8 23.5 14.7" fill="#d69635" fill-rule="evenodd" stroke="none"/>
      <path d="M25.55 14.8 L25.75 14.9 25.9 15.15 25.85 15.35 25.5 15.4 Q25.25 15.35 25.35 15.05 L25.55 14.8" fill="#d69635" fill-rule="evenodd" stroke="none"/>
      <path d="M25.45 15.05 Q25.55 14.9 25.6 15.05 L25.6 15.25 25.5 15.2 25.45 15.05" fill="#ffffff" fill-rule="evenodd" stroke="none"/>
      <path d="M23.2 14.9 Q23.5 15.05 23.0 15.05 22.95 15.0 23.05 14.9 L23.2 14.9" fill="#ffffff" fill-rule="evenodd" stroke="none"/>
      <path d="M31.65 20.5 L30.9 21.3 29.3 18.8 28.05 16.85 29.2 15.35 Q30.45 13.85 30.75 14.0 31.25 14.25 32.0 18.1 L31.65 20.5" fill="#e8512e" fill-rule="evenodd" stroke="none"/>
      <path d="M32.8 13.7 Q33.8 15.0 33.9 17.75 34.05 20.2 33.4 20.95 L30.9 21.3 Q31.6 20.75 31.55 18.3 31.45 15.9 31.0 14.7 L30.55 14.0 32.8 13.7" fill="#ba2400" fill-rule="evenodd" stroke="none"/>
      <path d="M28.75 17.3 L29.65 17.3 Q30.55 17.4 30.85 18.0 31.25 18.65 31.0 19.3 30.75 19.9 30.4 19.7 L29.45 18.45 28.75 17.3" fill="#cc2700" fill-rule="evenodd" stroke="none"/>
      <path d="M28.65 16.7 L29.2 15.95 30.15 14.95 Q30.6 14.75 30.8 15.65 31.0 16.55 30.5 16.8 L29.45 16.8 28.65 16.7" fill="#cc2700" fill-rule="evenodd" stroke="none"/>
      <path d="M29.95 18.35 L30.1 18.25 30.4 18.3 30.55 18.65 30.4 18.9 30.1 18.65 29.95 18.35" fill="#d69635" fill-rule="evenodd" stroke="none"/>
      <path d="M29.65 16.3 L29.95 15.95 30.2 15.95 30.3 16.25 29.65 16.3" fill="#d69635" fill-rule="evenodd" stroke="none"/>
      <path d="M29.95 16.35 Q29.8 16.3 29.95 16.2 30.05 16.1 30.1 16.15 L30.1 16.3 29.95 16.35" fill="#ffffff" fill-rule="evenodd" stroke="none"/>
      <path d="M30.25 18.65 Q30.25 18.5 30.35 18.6 L30.4 18.75 30.25 18.75 30.25 18.65" fill="#ffffff" fill-rule="evenodd" stroke="none"/>
      <path d="M29.35 20.6 L28.9 23.0 27.4 24.35 24.85 21.75 24.55 20.4 29.35 20.6" fill="#ff6945" fill-rule="evenodd" stroke="none"/>
      <path d="M31.95 19.7 L31.75 20.8 30.1 22.1 Q27.85 22.85 27.5 22.55 L25.9 21.35 24.55 20.4 27.75 20.0 31.95 19.7" fill="#e8512e" fill-rule="evenodd" stroke="none"/>
      <path d="M32.3 21.9 Q31.45 22.85 29.35 23.65 L27.4 24.35 27.1 22.2 29.65 21.2 Q31.7 20.25 31.95 19.7 L32.3 21.9" fill="#ba2400" fill-rule="evenodd" stroke="none"/>
      <path d="M25.9 20.35 L30.35 19.9 Q30.8 19.85 30.75 20.1 L30.1 20.6 28.75 20.7 27.4 20.55 25.9 20.35" fill="#cc2700" fill-rule="evenodd" stroke="none"/>
      <path d="M25.35 20.5 L27.4 20.75 28.4 21.0 Q28.75 21.2 28.45 21.35 27.55 22.05 26.8 21.65 L25.7 20.9 25.35 20.5" fill="#cc2700" fill-rule="evenodd" stroke="none"/>
      <path d="M28.95 20.25 L29.4 20.15 29.95 20.15 Q30.15 20.45 29.55 20.45 L28.95 20.25" fill="#d69635" fill-rule="evenodd" stroke="none"/>
      <path d="M26.95 21.05 L27.4 21.1 27.85 21.3 27.65 21.5 27.3 21.5 26.95 21.05" fill="#d69635" fill-rule="evenodd" stroke="none"/>
      <path d="M27.5 21.2 L27.65 21.2 27.7 21.3 27.5 21.35 Q27.35 21.25 27.5 21.2" fill="#ffffff" fill-rule="evenodd" stroke="none"/>
      <path d="M29.65 20.15 L29.9 20.2 29.8 20.3 29.55 20.3 29.65 20.15" fill="#ffffff" fill-rule="evenodd" stroke="none"/>
      <path d="M9.5 20.65 L14.6 20.0 14.5 21.25 11.9 24.5 10.2 23.2 9.5 20.65" fill="#d6340d" fill-rule="evenodd" stroke="none"/>
      <path d="M14.6 20.0 L11.65 22.55 8.8 22.3 7.0 21.1 6.7 20.0 14.6 20.0" fill="#e8512e" fill-rule="evenodd" stroke="none"/>
      <path d="M6.7 20.0 Q7.05 20.5 9.3 21.3 L12.05 22.15 11.9 24.5 9.8 23.9 Q7.5 23.2 6.55 22.3 L6.7 20.0" fill="#ba2400" fill-rule="evenodd" stroke="none"/>
      <path d="M13.15 20.15 L11.6 20.45 10.2 20.75 8.7 20.75 8.05 20.3 Q7.95 20.0 8.45 20.0 L13.15 20.15" fill="#cc2700" fill-rule="evenodd" stroke="none"/>
      <path d="M13.75 20.25 Q13.35 20.9 12.35 21.55 11.55 22.05 10.55 21.35 10.3 21.2 10.6 21.0 10.95 20.75 11.65 20.65 L13.75 20.25" fill="#cc2700" fill-rule="evenodd" stroke="none"/>
      <path d="M9.95 20.3 L9.3 20.5 Q8.65 20.6 8.85 20.3 L9.45 20.25 9.95 20.3" fill="#d69635" fill-rule="evenodd" stroke="none"/>
      <path d="M12.15 20.95 L11.8 21.45 11.45 21.5 11.2 21.3 Q11.2 21.15 11.7 21.05 L12.15 20.95" fill="#d69635" fill-rule="evenodd" stroke="none"/>
      <path d="M11.55 21.15 L11.35 21.3 11.4 21.15 11.55 21.15" fill="#ffffff" fill-rule="evenodd" stroke="none"/>
      <path d="M9.2 20.25 L9.3 20.3 9.1 20.4 8.95 20.3 9.2 20.25" fill="#ffffff" fill-rule="evenodd" stroke="none"/>
      <path d="M16.6 14.9 L20.05 16.85 18.7 17.8 13.9 19.1 14.3 17.25 16.6 14.9" fill="#d6340d" fill-rule="evenodd" stroke="none"/>
      <path d="M20.05 16.85 L15.8 17.45 Q15.4 17.55 14.95 16.7 L14.5 15.9 14.75 14.0 15.75 12.95 20.05 16.85" fill="#e8512e" fill-rule="evenodd" stroke="none"/>
      <path d="M15.75 12.95 Q15.4 13.55 15.8 15.3 16.2 17.0 16.45 17.3 L13.9 19.1 13.35 17.6 Q13.0 16.6 13.1 15.55 L13.25 14.75 15.75 12.95" fill="#ba2400" fill-rule="evenodd" stroke="none"/>
      <path d="M19.15 16.25 L17.95 15.75 16.9 15.25 Q16.2 14.9 16.1 14.55 15.95 14.1 16.15 13.85 16.35 13.65 16.6 13.85 L19.15 16.25" fill="#cc2700" fill-rule="evenodd" stroke="none"/>
      <path d="M19.3 16.65 L17.2 17.0 Q16.3 17.0 16.4 15.95 16.45 15.65 16.85 15.65 L17.7 15.95 19.3 16.65" fill="#cc2700" fill-rule="evenodd" stroke="none"/>
      <path d="M17.2 14.8 L16.6 14.65 Q16.15 14.4 16.6 14.3 16.85 14.2 17.2 14.8" fill="#d69635" fill-rule="evenodd" stroke="none"/>
      <path d="M17.7 16.4 L17.0 16.6 Q16.8 16.7 16.75 16.5 L16.85 16.25 Q17.1 16.05 17.7 16.4" fill="#d69635" fill-rule="evenodd" stroke="none"/>
      <path d="M17.2 16.25 L17.05 16.4 16.95 16.3 17.1 16.2 17.2 16.25" fill="#ffffff" fill-rule="evenodd" stroke="none"/>
      <path d="M16.85 14.4 L16.8 14.55 16.6 14.45 16.65 14.35 16.85 14.4" fill="#ffffff" fill-rule="evenodd" stroke="none"/>
      <path d="M19.75 23.3 L17.35 22.7 16.7 21.9 17.55 21.5 19.3 20.55 Q20.2 20.0 21.4 19.5 24.25 22.05 23.95 22.55 23.65 23.0 19.75 23.3" fill="#e8512e" fill-rule="evenodd" stroke="none"/>
      <path d="M16.7 21.9 L17.2 22.3 19.6 22.85 23.25 22.7 24.0 22.35 24.1 24.6 23.05 25.0 19.9 25.25 17.35 24.8 16.75 24.35 16.7 21.9" fill="#ba2400" fill-rule="evenodd" stroke="none"/>
      <path d="M20.85 20.15 Q20.95 21.8 19.95 22.2 L18.65 22.15 Q18.1 21.85 18.35 21.55 L19.7 20.75 20.85 20.15" fill="#cc2700" fill-rule="evenodd" stroke="none"/>
      <path d="M21.5 20.15 L22.15 20.75 23.05 21.8 Q23.25 22.25 22.3 22.4 21.4 22.5 21.2 21.95 21.1 21.7 21.3 20.9 L21.5 20.15" fill="#cc2700" fill-rule="evenodd" stroke="none"/>
      <path d="M19.7 21.2 L19.75 21.7 19.3 21.8 19.15 21.65 Q19.1 21.5 19.4 21.35 L19.7 21.2" fill="#d69635" fill-rule="evenodd" stroke="none"/>
      <path d="M21.75 21.2 L22.1 21.5 22.1 21.75 21.8 21.8 Q21.55 21.8 21.6 21.5 L21.75 21.2" fill="#d69635" fill-rule="evenodd" stroke="none"/>
      <path d="M21.7 21.4 Q21.75 21.25 21.85 21.4 L21.85 21.65 21.75 21.6 21.7 21.4" fill="#ffffff" fill-rule="evenodd" stroke="none"/>
      <path d="M19.45 21.5 L19.25 21.65 19.25 21.5 19.45 21.5" fill="#ffffff" fill-rule="evenodd" stroke="none"/>
      <path d="M12.8 14.95 L13.0 16.8 12.85 18.3 Q12.55 19.35 12.55 20.25 L11.05 19.6 10.95 19.6 Q10.45 17.75 11.05 17.0 L12.8 14.95" fill="#db9d00" fill-rule="evenodd" stroke="none"/>
      <path d="M12.55 20.25 L10.0 19.7 8.8 19.35 8.1 17.75 8.1 17.5 11.45 17.35 12.2 18.65 12.55 20.25" fill="#ffcf1c" fill-rule="evenodd" stroke="none"/>
      <path d="M12.75 14.95 L12.5 16.7 12.2 18.65 9.95 18.15 8.05 17.5 10.9 15.8 12.75 14.95" fill="#ffdc57" fill-rule="evenodd" stroke="none"/>
      <path d="M25.35 18.8 L22.85 19.05 21.9 18.5 22.6 17.85 24.05 16.3 25.75 14.65 Q29.4 16.1 29.3 16.6 29.15 17.15 25.35 18.8" fill="#e8512e" fill-rule="evenodd" stroke="none"/>
      <path d="M25.1 18.4 Q27.55 17.75 28.65 17.0 L29.3 16.4 30.1 18.55 Q28.95 19.8 26.2 20.6 L23.5 21.0 22.75 20.85 21.9 18.5 22.55 18.7 25.1 18.4" fill="#ba2400" fill-rule="evenodd" stroke="none"/>
      <path d="M25.45 15.4 L25.7 16.25 Q25.8 17.25 25.25 17.7 24.65 18.2 23.95 18.1 23.3 18.0 23.4 17.6 L24.5 16.4 25.45 15.4" fill="#cc2700" fill-rule="evenodd" stroke="none"/>
      <path d="M26.1 15.2 L26.95 15.5 28.15 16.25 Q28.5 16.6 27.65 17.05 L26.35 17.0 Q26.2 16.8 26.15 15.95 L26.1 15.2" fill="#cc2700" fill-rule="evenodd" stroke="none"/>
      <path d="M24.7 16.85 Q25.0 17.0 24.85 17.3 L24.5 17.55 Q24.3 17.6 24.25 17.45 24.15 17.35 24.4 17.1 L24.7 16.85" fill="#d69635" fill-rule="evenodd" stroke="none"/>
      <path d="M26.7 16.1 L26.9 16.1 27.1 16.25 27.25 16.55 Q27.25 16.7 26.95 16.7 26.65 16.75 26.65 16.4 L26.7 16.1" fill="#d69635" fill-rule="evenodd" stroke="none"/>
      <path d="M26.7 16.35 Q26.75 16.25 26.85 16.3 L26.95 16.5 26.8 16.5 26.7 16.35" fill="#ffffff" fill-rule="evenodd" stroke="none"/>
      <path d="M24.45 17.15 Q24.7 17.2 24.35 17.4 L24.3 17.3 24.45 17.15" fill="#ffffff" fill-rule="evenodd" stroke="none"/>
      <path d="M15.6 18.25 L21.0 16.8 21.1 18.1 18.8 22.05 16.75 20.9 15.6 18.25" fill="#d6340d" fill-rule="evenodd" stroke="none"/>
      <path d="M21.0 16.8 L18.2 20.0 15.15 20.15 13.0 19.15 12.5 17.95 21.0 16.8" fill="#e8512e" fill-rule="evenodd" stroke="none"/>
      <path d="M12.5 17.95 L13.05 18.3 Q13.9 18.7 15.5 19.0 L18.6 19.5 18.8 22.05 16.4 21.75 13.6 21.0 12.65 20.5 12.5 17.95" fill="#ba2400" fill-rule="evenodd" stroke="none"/>
      <path d="M19.45 17.15 L17.8 17.75 16.4 18.2 14.8 18.45 Q14.05 18.35 13.95 18.1 13.85 17.85 14.35 17.75 L19.45 17.15" fill="#cc2700" fill-rule="evenodd" stroke="none"/>
      <path d="M20.15 17.15 L18.8 18.8 16.8 18.9 Q16.5 18.75 16.85 18.5 17.2 18.2 17.9 17.95 L20.15 17.15" fill="#cc2700" fill-rule="evenodd" stroke="none"/>
      <path d="M16.0 17.8 L15.4 18.15 Q14.65 18.35 14.85 17.95 L15.5 17.8 16.0 17.8" fill="#d69635" fill-rule="evenodd" stroke="none"/>
      <path d="M18.5 18.2 L18.2 18.75 17.8 18.9 17.55 18.65 Q17.5 18.5 18.0 18.35 L18.5 18.2" fill="#d69635" fill-rule="evenodd" stroke="none"/>
      <path d="M17.9 18.5 Q18.1 18.5 17.95 18.65 L17.7 18.65 17.7 18.5 17.9 18.5" fill="#ffffff" fill-rule="evenodd" stroke="none"/>
      <path d="M15.2 17.9 Q15.4 17.85 15.35 17.95 L15.1 18.05 14.95 18.0 Q15.0 17.9 15.2 17.9" fill="#ffffff" fill-rule="evenodd" stroke="none"/>
      <path d="M20.8 20.45 L22.35 20.35 24.8 21.5 23.05 22.2 21.55 22.4 20.2 22.5 19.6 22.6 19.85 21.05 19.85 20.9 20.8 20.45" fill="#db9d00" fill-rule="evenodd" stroke="none"/>
      <path d="M22.15 20.8 L21.05 21.9 20.2 22.25 19.6 22.6 19.45 20.0 19.55 18.75 20.95 17.75 21.15 17.6 22.15 20.8" fill="#ffdc57" fill-rule="evenodd" stroke="none"/>
      <path d="M24.8 21.5 L23.0 21.7 21.1 21.9 Q20.95 21.7 20.95 19.55 L21.1 17.6 23.5 19.9 24.8 21.5" fill="#ffcf1c" fill-rule="evenodd" stroke="none"/>
      <path d="M20.0 15.1 L22.3 13.65 26.05 12.5 29.0 11.35 28.9 12.95 28.9 13.0 Q26.5 14.75 25.15 14.75 L20.0 15.1" fill="#ffdc57" fill-rule="evenodd" stroke="none"/>
      <path d="M29.0 11.35 Q29.5 12.65 29.6 13.65 L29.7 14.9 27.7 16.5 27.4 16.7 25.45 14.2 26.95 12.7 29.0 11.35" fill="#db9d00" fill-rule="evenodd" stroke="none"/>
      <path d="M19.8 15.05 L21.2 14.75 23.95 13.85 26.85 12.75 Q27.1 12.8 27.4 14.8 L27.4 16.75 23.5 15.7 21.05 15.2 19.8 15.05" fill="#ffcf1c" fill-rule="evenodd" stroke="none"/>
      <path d="M34.6 18.7 L35.65 18.85 34.6 20.05 32.85 20.2 31.75 19.15 34.6 18.7" fill="#ffdc57" fill-rule="evenodd" stroke="none"/>
      <path d="M31.75 19.15 L33.25 19.2 34.0 20.45 Q33.75 22.55 33.5 22.6 L32.55 22.45 31.8 22.2 31.9 21.35 31.8 19.9 31.75 19.15" fill="#ffcf1c" fill-rule="evenodd" stroke="none"/>
      <path d="M35.65 18.85 L35.95 21.5 34.6 22.3 33.5 22.6 33.25 20.15 33.25 19.2 34.0 19.05 35.1 18.85 35.65 18.85" fill="#db9d00" fill-rule="evenodd" stroke="none"/>
      <path d="M19.1 24.15 Q25.5 24.15 30.55 23.15 35.5 22.25 37.3 20.7 36.25 24.45 31.15 26.95 26.0 29.45 19.2 29.45 12.5 29.45 7.35 27.0 2.35 24.6 1.15 20.9 3.1 22.35 7.95 23.25 L19.1 24.15" fill="url(#gradient1)" fill-rule="evenodd" stroke="none"/>
      <path d="M36.1 20.3 L37.3 20.3 37.35 20.6 Q37.35 22.15 32.05 23.2 L19.2 24.3 Q11.7 24.3 6.4 23.2 1.05 22.15 1.05 20.6 L1.15 20.3 2.45 20.3 Q2.65 21.5 7.55 22.35 L19.3 23.2 31.05 22.35 Q35.95 21.5 36.1 20.3" fill="#ffffff" fill-rule="evenodd" stroke="none"/>
      <path d="M31.85 13.3 Q37.15 14.0 37.25 15.55 37.35 17.1 32.2 18.55 26.95 19.95 19.4 20.4 11.9 20.9 6.55 20.2 1.15 19.45 1.05 17.9 0.95 16.4 6.2 14.95 11.45 13.55 18.95 13.05 26.5 12.6 31.85 13.3" fill="url(#gradient2)" fill-rule="evenodd" stroke="none"/>
      <path d="M37.25 15.25 L36.05 15.3 36.05 15.25 Q35.95 14.0 31.0 13.5 26.05 12.95 19.05 13.4 12.05 13.85 7.2 15.05 2.35 16.2 2.45 17.45 L2.45 17.5 1.1 17.6 Q1.6 16.15 6.7 14.8 11.9 13.55 18.95 13.05 26.05 12.6 31.3 13.2 36.55 13.9 37.25 15.25" fill="#ffffff" fill-rule="evenodd" stroke="none"/>
      <path d="M29.15 13.7 Q29.8 13.7 29.95 13.95 L31.15 14.7 32.45 15.3 33.3 16.0 34.05 16.75 33.85 17.7 Q33.6 18.45 33.2 18.6 L27.95 19.9 21.95 21.1 4.05 19.95 4.55 17.75 6.1 16.6 7.0 16.1 8.3 15.55 9.6 15.2 Q10.6 14.8 11.15 14.8 L17.65 13.95 20.1 13.5 22.6 13.4 24.3 13.9 25.7 14.15 28.55 13.65 29.15 13.7" fill="#bf5d00" fill-rule="evenodd" stroke="none"/>
      <path d="M16.45 18.35 L15.5 19.45 Q15.1 18.85 15.0 18.3 L14.65 17.1 14.65 16.6 14.65 16.1 16.1 16.85 16.45 18.35" fill="#ffcf1c" fill-rule="evenodd" stroke="none"/>
      <path d="M15.5 19.45 L15.35 18.15 16.6 17.3 18.9 17.45 Q19.05 17.7 18.65 18.95 L17.75 19.0 16.25 19.25 15.5 19.45" fill="#db9d00" fill-rule="evenodd" stroke="none"/>
      <path d="M17.4 15.45 L18.45 16.55 18.9 17.45 16.35 18.05 15.35 18.15 14.75 16.6 14.65 16.1 17.4 15.45" fill="#ffdc57" fill-rule="evenodd" stroke="none"/>
      <path d="M18.8 13.75 L17.9 14.85 17.35 13.7 17.05 12.45 17.0 11.95 17.0 11.5 18.45 12.2 18.8 13.75" fill="#ffcf1c" fill-rule="evenodd" stroke="none"/>
      <path d="M17.9 14.85 L17.7 13.55 18.95 12.65 21.25 12.8 Q21.45 13.0 21.05 14.3 L20.15 14.35 17.9 14.85" fill="#db9d00" fill-rule="evenodd" stroke="none"/>
      <path d="M19.8 10.8 L20.8 11.9 21.25 12.8 18.75 13.45 17.7 13.55 17.1 11.95 17.0 11.5 19.8 10.8" fill="#ffdc57" fill-rule="evenodd" stroke="none"/>
      <path d="M5.0 17.8 L4.05 18.95 3.5 17.8 3.2 16.55 3.15 16.05 Q3.15 15.55 3.25 15.6 L4.6 16.25 5.0 17.8" fill="#ffcf1c" fill-rule="evenodd" stroke="none"/>
      <path d="M5.1 16.75 L7.45 16.9 7.25 18.4 6.3 18.45 4.05 18.95 3.95 18.55 3.9 17.65 5.1 16.75" fill="#db9d00" fill-rule="evenodd" stroke="none"/>
      <path d="M7.45 16.9 L4.85 17.5 3.9 17.65 3.25 16.05 3.25 15.6 5.95 14.9 6.95 15.95 7.45 16.9" fill="#ffdc57" fill-rule="evenodd" stroke="none"/>
      <path d="M10.45 15.0 L8.5 13.6 8.15 12.55 9.1 12.5 11.1 12.25 13.4 12.1 Q15.1 15.5 14.7 15.8 14.25 16.15 10.45 15.0" fill="#e8512e" fill-rule="evenodd" stroke="none"/>
      <path d="M14.0 15.7 L14.8 15.65 14.0 17.75 12.9 17.8 Q11.5 17.6 9.9 16.8 L7.75 15.45 7.3 14.9 8.15 12.55 8.5 13.15 Q9.15 13.8 10.55 14.5 12.7 15.6 14.0 15.7" fill="#ba2400" fill-rule="evenodd" stroke="none"/>
      <path d="M12.7 12.45 Q12.2 14.05 11.1 14.1 10.35 14.1 9.9 13.55 9.5 13.05 9.85 12.8 L11.35 12.6 12.7 12.45" fill="#cc2700" fill-rule="evenodd" stroke="none"/>
      <path d="M13.35 12.7 L13.7 13.5 14.1 14.8 Q14.1 15.35 13.2 15.1 12.3 14.85 12.35 14.25 L12.8 13.3 13.35 12.7" fill="#cc2700" fill-rule="evenodd" stroke="none"/>
      <path d="M11.25 13.05 L11.1 13.5 10.65 13.5 10.5 13.2 10.9 13.1 11.25 13.05" fill="#d69635" fill-rule="evenodd" stroke="none"/>
      <path d="M13.15 13.8 L13.4 14.2 13.3 14.4 12.95 14.35 Q12.7 14.3 12.9 13.95 L13.15 13.8" fill="#d69635" fill-rule="evenodd" stroke="none"/>
      <path d="M13.0 13.95 L13.1 14.05 13.1 14.25 13.0 14.15 13.0 13.95" fill="#ffffff" fill-rule="evenodd" stroke="none"/>
      <path d="M10.85 13.2 Q11.0 13.4 10.65 13.25 L10.7 13.2 10.85 13.2" fill="#ffffff" fill-rule="evenodd" stroke="none"/>
      <path d="M23.05 12.45 L20.75 11.85 20.05 11.1 20.9 10.75 22.7 9.9 24.75 9.0 Q27.6 11.4 27.3 11.85 27.0 12.25 23.05 12.45" fill="#e8512e" fill-rule="evenodd" stroke="none"/>
      <path d="M20.6 11.45 L23.0 12.0 Q25.35 12.25 26.6 11.95 L27.3 11.65 27.4 13.75 23.15 14.2 20.75 13.75 20.1 13.35 20.05 11.1 20.6 11.45" fill="#ba2400" fill-rule="evenodd" stroke="none"/>
      <path d="M24.3 9.6 Q24.35 11.1 23.3 11.5 L22.05 11.4 Q21.45 11.1 21.7 10.85 L23.05 10.1 24.3 9.6" fill="#cc2700" fill-rule="evenodd" stroke="none"/>
      <path d="M24.95 9.55 L25.55 10.15 26.4 11.15 Q26.6 11.55 25.65 11.65 24.75 11.75 24.6 11.25 24.45 11.0 24.7 10.3 L24.95 9.55" fill="#cc2700" fill-rule="evenodd" stroke="none"/>
      <path d="M23.1 10.55 Q23.35 10.8 23.05 11.0 L22.65 11.05 Q22.45 11.1 22.45 10.95 L22.8 10.65 23.1 10.55" fill="#d69635" fill-rule="evenodd" stroke="none"/>
      <path d="M25.15 10.55 L25.45 10.85 25.5 11.1 25.2 11.15 Q24.9 11.1 25.0 10.8 L25.15 10.55" fill="#d69635" fill-rule="evenodd" stroke="none"/>
      <path d="M25.05 10.75 L25.2 10.75 25.2 10.95 25.1 10.9 25.05 10.75" fill="#ffffff" fill-rule="evenodd" stroke="none"/>
      <path d="M22.8 10.75 L22.6 10.9 22.6 10.8 22.8 10.75" fill="#ffffff" fill-rule="evenodd" stroke="none"/>
      <path d="M25.55 15.5 L23.95 17.25 22.85 17.5 22.95 14.5 23.05 12.25 24.9 11.7 26.9 11.45 Q27.2 11.95 25.55 15.5" fill="#e8512e" fill-rule="evenodd" stroke="none"/>
      <path d="M25.1 15.4 L26.75 12.15 26.8 11.3 28.85 12.35 Q28.8 14.0 27.35 16.3 26.5 17.65 25.7 18.25 L25.05 18.65 22.85 17.5 23.45 17.2 25.1 15.4" fill="#ba2400" fill-rule="evenodd" stroke="none"/>
      <path d="M23.35 13.0 L24.15 13.5 Q24.8 14.1 24.7 14.8 24.6 15.55 24.05 15.9 L23.4 15.85 23.3 14.3 23.35 13.0" fill="#cc2700" fill-rule="evenodd" stroke="none"/>
      <path d="M23.65 12.4 L24.5 12.1 25.85 11.85 Q26.4 11.95 26.05 12.8 25.65 13.7 25.1 13.55 24.85 13.55 24.25 13.0 L23.65 12.4" fill="#cc2700" fill-rule="evenodd" stroke="none"/>
      <path d="M23.75 14.5 L23.9 14.55 24.15 14.75 24.1 15.15 23.8 15.25 23.7 14.85 23.75 14.5" fill="#d69635" fill-rule="evenodd" stroke="none"/>
      <path d="M24.7 12.7 L24.9 12.6 25.1 12.55 25.4 12.7 25.3 13.0 Q25.1 13.2 24.9 13.0 L24.7 12.7" fill="#d69635" fill-rule="evenodd" stroke="none"/>
      <path d="M24.9 12.9 Q24.8 12.75 25.0 12.75 25.15 12.75 25.15 12.85 L25.05 12.9 24.9 12.9" fill="#ffffff" fill-rule="evenodd" stroke="none"/>
      <path d="M23.8 14.85 Q24.05 14.75 23.9 15.1 L23.8 15.05 23.8 14.85" fill="#ffffff" fill-rule="evenodd" stroke="none"/>
      <path d="M29.35 16.0 L29.05 18.55 27.55 20.0 24.95 17.5 24.5 16.15 29.35 16.0" fill="#ff6945" fill-rule="evenodd" stroke="none"/>
      <path d="M24.5 16.15 L31.85 15.0 31.75 16.15 30.15 17.5 Q27.95 18.45 27.6 18.1 L24.5 16.15" fill="#e8512e" fill-rule="evenodd" stroke="none"/>
      <path d="M31.85 15.0 L32.3 17.15 Q31.5 18.2 29.5 19.1 L27.55 20.0 27.15 17.8 27.65 17.65 29.6 16.6 31.85 15.0" fill="#ba2400" fill-rule="evenodd" stroke="none"/>
      <path d="M25.85 16.1 L30.25 15.35 30.7 15.45 30.1 15.95 28.7 16.2 27.35 16.15 25.85 16.1" fill="#cc2700" fill-rule="evenodd" stroke="none"/>
      <path d="M25.3 16.25 L27.4 16.35 28.35 16.55 Q28.7 16.65 28.45 16.8 27.55 17.65 26.85 17.3 L25.7 16.6 25.3 16.25" fill="#cc2700" fill-rule="evenodd" stroke="none"/>
      <path d="M28.9 15.75 L29.35 15.65 29.9 15.6 Q30.2 15.9 29.5 15.85 L29.05 15.85 28.9 15.75" fill="#d69635" fill-rule="evenodd" stroke="none"/>
      <path d="M26.95 16.7 L27.4 16.75 27.8 16.85 27.7 17.1 27.35 17.1 26.95 16.7" fill="#d69635" fill-rule="evenodd" stroke="none"/>
      <path d="M27.5 16.8 L27.65 16.75 27.65 16.85 27.5 16.9 Q27.35 16.85 27.5 16.8" fill="#ffffff" fill-rule="evenodd" stroke="none"/>
      <path d="M29.6 15.6 L29.8 15.65 29.7 15.75 29.5 15.7 29.6 15.6" fill="#ffffff" fill-rule="evenodd" stroke="none"/>
      <path d="M9.5 17.4 L14.6 16.45 14.55 17.65 12.15 21.1 10.4 19.95 9.5 17.4" fill="#d6340d" fill-rule="evenodd" stroke="none"/>
      <path d="M14.6 16.45 L13.3 17.65 11.8 19.15 Q11.45 19.6 9.0 19.15 L7.05 18.0 6.7 16.9 14.6 16.45" fill="#e8512e" fill-rule="evenodd" stroke="none"/>
      <path d="M6.7 16.9 L7.15 17.25 Q7.95 17.7 9.35 18.05 L12.15 18.8 12.15 21.1 10.0 20.7 Q8.55 20.3 7.45 19.75 L6.65 19.25 6.7 16.9" fill="#ba2400" fill-rule="evenodd" stroke="none"/>
      <path d="M13.15 16.65 L11.55 17.05 10.25 17.4 8.75 17.5 8.0 17.1 Q7.95 16.9 8.4 16.85 L13.15 16.65" fill="#cc2700" fill-rule="evenodd" stroke="none"/>
      <path d="M13.75 16.7 L12.4 18.15 10.55 18.05 Q10.3 17.9 10.65 17.7 10.95 17.4 11.6 17.3 L13.75 16.7" fill="#cc2700" fill-rule="evenodd" stroke="none"/>
      <path d="M9.9 17.0 L9.3 17.3 Q8.55 17.4 8.85 17.1 L9.45 17.0 9.9 17.0" fill="#d69635" fill-rule="evenodd" stroke="none"/>
      <path d="M12.15 17.6 L11.8 18.05 11.5 18.1 11.25 17.95 Q11.25 17.8 11.7 17.65 L12.15 17.6" fill="#d69635" fill-rule="evenodd" stroke="none"/>
      <path d="M11.6 17.75 L11.6 17.9 11.4 17.95 11.4 17.8 11.6 17.75" fill="#ffffff" fill-rule="evenodd" stroke="none"/>
      <path d="M9.15 17.0 L9.3 17.1 9.05 17.2 8.95 17.1 9.15 17.0" fill="#ffffff" fill-rule="evenodd" stroke="none"/>
      <path d="M15.95 9.95 L17.15 12.7 16.8 14.45 13.0 12.05 12.15 10.85 15.95 9.95" fill="#d6340d" fill-rule="evenodd" stroke="none"/>
      <path d="M17.45 11.4 Q16.2 12.8 15.75 12.5 L12.15 10.85 14.35 9.8 17.35 8.4 17.9 9.6 17.45 11.4" fill="#e8512e" fill-rule="evenodd" stroke="none"/>
      <path d="M17.35 8.4 L19.05 10.7 Q18.95 11.9 17.85 13.25 L16.95 14.4 16.8 14.45 15.25 12.2 16.5 10.55 Q17.5 9.1 17.35 8.4" fill="#ba2400" fill-rule="evenodd" stroke="none"/>
      <path d="M13.2 10.55 L16.25 9.05 Q16.6 8.9 16.65 9.15 16.85 9.4 16.5 9.8 16.3 10.15 15.6 10.25 L14.45 10.4 13.2 10.55" fill="#cc2700" fill-rule="evenodd" stroke="none"/>
      <path d="M12.85 10.8 L14.55 10.6 15.45 10.65 15.75 10.95 Q15.45 11.95 14.65 11.7 L13.4 11.1 12.85 10.8" fill="#cc2700" fill-rule="evenodd" stroke="none"/>
      <path d="M15.4 9.75 L15.7 9.5 16.15 9.4 16.25 9.6 15.95 9.75 15.6 9.7 15.4 9.75" fill="#d69635" fill-rule="evenodd" stroke="none"/>
      <path d="M14.45 11.05 L14.8 11.0 15.25 11.1 15.2 11.4 14.95 11.4 14.45 11.05" fill="#d69635" fill-rule="evenodd" stroke="none"/>
      <path d="M14.9 11.0 Q15.0 10.85 15.15 11.1 L15.0 11.15 14.9 11.0" fill="#ffffff" fill-rule="evenodd" stroke="none"/>
      <path d="M15.95 9.45 L16.1 9.45 16.1 9.55 15.9 9.55 15.95 9.45" fill="#ffffff" fill-rule="evenodd" stroke="none"/>
      <path d="M19.9 19.4 L17.5 18.95 16.75 18.2 17.6 17.75 19.25 16.65 Q20.15 16.05 21.3 15.5 24.25 17.85 24.05 18.3 23.75 18.8 19.9 19.4" fill="#e8512e" fill-rule="evenodd" stroke="none"/>
      <path d="M24.3 20.35 L23.25 20.85 20.15 21.3 17.65 21.0 Q17.35 20.8 16.95 20.7 L16.75 18.2 17.3 18.55 19.7 18.95 23.35 18.55 24.1 18.15 24.3 20.35" fill="#ba2400" fill-rule="evenodd" stroke="none"/>
      <path d="M20.85 16.15 Q21.05 17.8 20.05 18.25 L18.75 18.35 Q18.15 18.1 18.4 17.75 L19.7 16.85 20.85 16.15" fill="#cc2700" fill-rule="evenodd" stroke="none"/>
      <path d="M21.5 16.05 L22.2 16.7 23.1 17.65 Q23.35 18.15 22.4 18.3 21.5 18.5 21.25 17.95 L21.3 16.9 21.5 16.05" fill="#cc2700" fill-rule="evenodd" stroke="none"/>
      <path d="M19.75 17.35 Q20.0 17.55 19.8 17.8 L19.4 17.95 19.2 17.8 Q19.15 17.7 19.45 17.5 L19.75 17.35" fill="#d69635" fill-rule="evenodd" stroke="none"/>
      <path d="M21.8 17.1 L22.0 17.25 22.15 17.45 22.15 17.7 21.85 17.8 Q21.6 17.7 21.7 17.4 L21.8 17.1" fill="#d69635" fill-rule="evenodd" stroke="none"/>
      <path d="M21.7 17.4 Q21.75 17.25 21.85 17.4 L21.95 17.6 21.8 17.55 21.7 17.4" fill="#ffffff" fill-rule="evenodd" stroke="none"/>
      <path d="M19.5 17.6 Q19.8 17.75 19.35 17.75 L19.35 17.65 Q19.4 17.55 19.5 17.6" fill="#ffffff" fill-rule="evenodd" stroke="none"/>
      <path d="M8.5 17.8 L8.6 17.25 8.75 16.0 8.75 15.65 Q8.85 15.15 9.25 14.55 L9.9 12.7 11.25 13.65 11.3 13.7 Q11.4 15.6 10.7 16.15 L8.5 17.8" fill="#ffdc57" fill-rule="evenodd" stroke="none"/>
      <path d="M10.35 15.75 L9.9 14.3 9.95 13.4 9.9 12.7 12.3 13.75 13.45 14.45 13.7 16.1 13.6 16.4 10.35 15.75" fill="#db9d00" fill-rule="evenodd" stroke="none"/>
      <path d="M8.55 17.8 L9.95 14.35 10.3 14.45 12.0 15.35 Q13.3 16.0 13.7 16.35 L10.5 17.4 8.55 17.8" fill="#ffcf1c" fill-rule="evenodd" stroke="none"/>
      <path d="M31.3 15.15 L30.05 13.4 30.05 12.4 30.8 12.65 32.6 13.1 34.6 13.55 Q35.15 16.9 34.7 17.0 34.2 17.2 31.3 15.15" fill="#e8512e" fill-rule="evenodd" stroke="none"/>
      <path d="M30.05 12.4 L30.15 13.0 Q30.5 13.85 31.55 14.75 L34.1 16.75 34.8 16.95 33.65 18.5 Q32.2 18.25 30.35 16.55 29.35 15.55 28.9 14.75 L28.65 14.1 30.05 12.4" fill="#ba2400" fill-rule="evenodd" stroke="none"/>
      <path d="M33.85 13.7 Q33.05 14.85 32.15 14.5 31.45 14.3 31.25 13.8 31.0 13.25 31.35 13.15 L32.7 13.4 33.85 13.7" fill="#cc2700" fill-rule="evenodd" stroke="none"/>
      <path d="M34.3 14.05 Q34.65 15.5 34.5 16.1 L33.65 16.05 Q32.95 15.55 33.1 15.05 L33.75 14.45 34.3 14.05" fill="#cc2700" fill-rule="evenodd" stroke="none"/>
      <path d="M32.5 13.75 L32.25 14.0 31.9 13.95 31.85 13.7 32.2 13.65 32.5 13.75" fill="#d69635" fill-rule="evenodd" stroke="none"/>
      <path d="M33.9 14.9 L34.0 15.3 33.85 15.45 33.6 15.35 Q33.45 15.15 33.65 15.05 L33.9 14.9" fill="#d69635" fill-rule="evenodd" stroke="none"/>
      <path d="M33.75 15.0 L33.85 15.1 33.75 15.25 33.7 15.2 33.75 15.0" fill="#ffffff" fill-rule="evenodd" stroke="none"/>
      <path d="M32.15 13.7 Q32.25 14.05 31.95 13.75 L32.0 13.75 32.15 13.7" fill="#ffffff" fill-rule="evenodd" stroke="none"/>
      <path d="M15.4 14.65 L20.7 12.85 20.9 14.15 18.9 18.2 16.75 17.25 15.4 14.65" fill="#d6340d" fill-rule="evenodd" stroke="none"/>
      <path d="M20.7 12.85 L19.55 14.35 Q18.3 15.85 18.2 16.2 17.9 16.7 15.1 16.6 L12.9 15.65 12.3 14.55 20.7 12.85" fill="#e8512e" fill-rule="evenodd" stroke="none"/>
      <path d="M12.3 14.55 L12.85 14.8 15.35 15.35 18.5 15.65 18.9 18.2 16.5 18.05 13.6 17.5 12.6 17.1 12.3 14.55" fill="#ba2400" fill-rule="evenodd" stroke="none"/>
      <path d="M19.25 13.25 L17.65 13.95 16.2 14.55 14.65 14.85 Q13.9 14.8 13.75 14.55 13.65 14.3 14.2 14.25 L19.25 13.25" fill="#cc2700" fill-rule="evenodd" stroke="none"/>
      <path d="M19.9 13.2 Q19.6 14.1 18.7 14.95 18.0 15.65 16.7 15.15 16.4 15.05 16.75 14.7 L17.7 14.15 19.9 13.2" fill="#cc2700" fill-rule="evenodd" stroke="none"/>
      <path d="M15.85 14.15 L15.2 14.5 14.75 14.55 14.65 14.4 15.3 14.2 15.85 14.15" fill="#d69635" fill-rule="evenodd" stroke="none"/>
      <path d="M18.3 14.35 L18.05 14.95 17.65 15.1 17.4 14.95 Q17.35 14.8 17.8 14.55 L18.3 14.35" fill="#d69635" fill-rule="evenodd" stroke="none"/>
      <path d="M17.8 14.65 L17.8 14.8 17.6 14.85 17.6 14.7 17.8 14.65" fill="#ffffff" fill-rule="evenodd" stroke="none"/>
      <path d="M15.0 14.25 Q15.25 14.2 15.2 14.35 L14.95 14.45 14.8 14.4 15.0 14.25" fill="#ffffff" fill-rule="evenodd" stroke="none"/>
      <path d="M23.15 18.05 L21.7 18.4 20.3 18.55 19.75 18.7 19.9 17.1 19.9 17.05 20.75 16.5 Q21.8 16.05 22.3 16.3 L24.85 17.3 24.3 17.5 23.15 18.05" fill="#db9d00" fill-rule="evenodd" stroke="none"/>
      <path d="M22.1 16.8 L21.1 17.9 Q20.85 17.95 20.3 18.3 L19.75 18.7 Q19.45 17.2 19.45 16.15 L19.4 14.85 20.75 13.75 21.0 13.65 22.1 16.8" fill="#ffdc57" fill-rule="evenodd" stroke="none"/>
      <path d="M24.85 17.3 L21.15 17.9 Q21.0 17.7 20.9 15.55 L20.9 13.6 23.4 15.8 24.85 17.3" fill="#ffcf1c" fill-rule="evenodd" stroke="none"/>
      <path d="M14.2 17.25 L13.55 15.85 14.15 15.85 15.65 15.8 18.25 15.5 19.65 15.9 20.15 16.0 Q17.8 17.05 17.0 17.55 L15.3 17.6 14.25 17.3 14.2 17.25" fill="#ffdc57" fill-rule="evenodd" stroke="none"/>
      <path d="M13.65 16.65 L13.55 15.85 14.2 16.1 15.25 16.35 16.65 17.15 16.5 20.1 16.2 20.1 14.45 19.3 14.05 18.15 13.65 16.65" fill="#db9d00" fill-rule="evenodd" stroke="none"/>
      <path d="M20.25 15.9 Q19.1 16.75 18.35 17.85 L16.5 20.15 15.8 18.4 15.3 16.6 15.25 16.3 17.4 16.3 20.25 15.9" fill="#ffcf1c" fill-rule="evenodd" stroke="none"/>
      <path d="M21.05 8.7 L21.35 8.2 21.65 7.8 22.3 9.3 21.6 10.95 20.2 11.5 21.05 8.7" fill="#ffdc57" fill-rule="evenodd" stroke="none"/>
      <path d="M20.2 11.5 L20.9 10.15 22.4 10.0 Q24.15 11.15 24.05 11.45 L22.95 12.75 22.2 12.3 20.9 11.75 20.2 11.5" fill="#ffcf1c" fill-rule="evenodd" stroke="none"/>
      <path d="M24.15 8.7 L24.3 10.3 24.05 11.45 21.75 10.6 20.9 10.15 21.45 8.3 21.65 7.8 24.15 8.7" fill="#db9d00" fill-rule="evenodd" stroke="none"/>
      <path d="M19.3 20.3 Q25.65 19.85 30.7 18.6 35.55 17.25 37.3 15.65 36.45 19.45 31.55 22.3 26.55 25.15 19.75 25.55 13.05 26.0 7.8 23.9 2.6 21.75 1.15 18.2 3.2 19.5 8.15 20.1 13.15 20.7 19.3 20.3" fill="url(#gradient3)" fill-rule="evenodd" stroke="none"/>
      <path d="M36.05 15.3 L37.25 15.25 37.25 15.55 Q37.35 17.1 32.2 18.55 26.95 19.95 19.4 20.4 11.9 20.9 6.55 20.2 1.15 19.45 1.05 17.9 L1.1 17.6 2.45 17.5 Q2.7 18.7 7.65 19.25 12.6 19.75 19.45 19.3 26.3 18.85 31.15 17.7 36.0 16.55 36.05 15.3" fill="#ffffff" fill-rule="evenodd" stroke="none"/>
      <path d="M4.3 22.45 Q4.3 22.3 4.45 22.4 L4.5 22.6 4.4 22.6 4.3 22.45" fill="#ffffff" fill-rule="evenodd" stroke="none"/>
      <path d="M31.25 11.85 Q36.4 13.25 36.25 14.8 36.15 16.3 30.9 17.0 25.5 17.7 18.05 17.2 10.65 16.7 5.5 15.2 0.25 13.8 0.35 12.3 0.5 10.75 5.85 10.05 11.15 9.35 18.6 9.85 26.05 10.35 31.25 11.85" fill="url(#gradient4)" fill-rule="evenodd" stroke="none"/>
      <path d="M36.25 14.45 L35.1 14.35 35.1 14.3 Q35.2 13.05 30.4 11.9 25.55 10.7 18.65 10.2 11.7 9.75 6.85 10.25 1.9 10.75 1.8 12.0 L1.8 12.05 0.5 11.95 Q1.15 10.6 6.35 9.95 11.55 9.35 18.6 9.85 25.65 10.35 30.7 11.65 35.8 13.0 36.25 14.45" fill="#ffffff" fill-rule="evenodd" stroke="none"/>
      <path d="M27.95 11.75 L28.55 11.85 Q29.2 11.95 29.2 12.2 29.4 12.55 31.5 13.85 L32.25 14.7 32.9 15.55 32.6 16.4 31.9 17.2 26.5 17.8 20.5 18.2 Q19.0 18.2 3.05 14.7 L3.85 12.6 6.45 11.25 7.8 10.85 9.1 10.75 10.65 10.55 17.15 10.55 19.65 10.5 22.15 10.65 Q22.5 11.0 23.7 11.35 L25.0 11.85 27.95 11.75" fill="#bf5d00" fill-rule="evenodd" stroke="none"/>
      <path d="M22.45 13.65 L21.35 14.6 21.0 13.4 20.85 12.15 20.85 11.65 21.0 11.2 22.3 12.05 22.45 13.65" fill="#ffcf1c" fill-rule="evenodd" stroke="none"/>
      <path d="M21.35 14.6 L21.35 13.3 22.7 12.6 24.95 13.05 24.55 14.5 23.65 14.45 21.35 14.6" fill="#db9d00" fill-rule="evenodd" stroke="none"/>
      <path d="M23.75 10.9 L24.6 12.15 24.95 13.05 22.35 13.3 21.35 13.3 Q21.0 12.2 21.0 11.7 L21.0 11.2 23.75 10.9" fill="#ffdc57" fill-rule="evenodd" stroke="none"/>
      <path d="M19.8 15.85 L19.75 17.3 18.65 16.7 17.65 15.95 17.3 15.6 17.1 15.2 18.65 14.9 19.8 15.85" fill="#ffcf1c" fill-rule="evenodd" stroke="none"/>
      <path d="M19.3 14.95 L20.15 14.25 21.2 13.6 Q21.45 13.7 21.95 14.95 L21.25 15.6 19.75 17.3 19.45 17.05 18.85 16.4 19.3 14.95" fill="#db9d00" fill-rule="evenodd" stroke="none"/>
      <path d="M18.8 13.0 L20.3 13.25 21.2 13.6 19.55 15.65 18.85 16.4 17.45 15.5 17.1 15.2 18.8 13.0" fill="#ffdc57" fill-rule="evenodd" stroke="none"/>
      <path d="M4.25 12.65 L3.2 13.7 Q2.85 13.0 2.8 12.45 L2.65 11.2 2.7 10.7 Q2.7 10.25 2.8 10.3 L4.1 11.15 4.25 12.65" fill="#ffcf1c" fill-rule="evenodd" stroke="none"/>
      <path d="M3.2 13.7 L3.2 12.35 4.55 11.65 5.6 11.8 6.75 12.1 6.35 13.55 5.4 13.5 3.2 13.7" fill="#db9d00" fill-rule="evenodd" stroke="none"/>
      <path d="M5.55 9.95 L6.45 11.15 6.75 12.1 4.2 12.35 3.2 12.35 2.8 10.7 2.8 10.3 5.55 9.95" fill="#ffdc57" fill-rule="evenodd" stroke="none"/>
      <path d="M10.05 10.6 L8.3 9.0 8.05 7.9 9.0 8.05 11.0 8.05 13.2 8.15 Q14.5 11.75 14.0 12.0 13.55 12.25 10.05 10.6" fill="#e8512e" fill-rule="evenodd" stroke="none"/>
      <path d="M8.05 7.9 Q8.1 8.8 10.15 10.2 12.15 11.5 13.3 11.85 L14.15 11.9 13.1 13.85 12.05 13.7 Q10.65 13.3 9.2 12.4 7.2 11.05 6.9 10.15 L8.05 7.9" fill="#ba2400" fill-rule="evenodd" stroke="none"/>
      <path d="M12.5 8.45 Q11.8 9.95 10.7 9.8 L9.7 9.2 Q9.35 8.6 9.7 8.45 L11.2 8.45 12.5 8.45" fill="#cc2700" fill-rule="evenodd" stroke="none"/>
      <path d="M13.1 8.75 L13.35 9.65 13.65 10.95 Q13.55 11.45 12.65 11.1 11.85 10.75 11.9 10.15 L12.55 9.35 13.1 8.75" fill="#cc2700" fill-rule="evenodd" stroke="none"/>
      <path d="M10.95 8.85 Q11.1 9.2 10.75 9.25 L10.4 9.2 10.3 8.9 10.65 8.85 10.95 8.85" fill="#d69635" fill-rule="evenodd" stroke="none"/>
      <path d="M12.75 9.8 L12.9 10.2 12.8 10.4 12.45 10.4 Q12.25 10.15 12.5 10.0 L12.75 9.8" fill="#d69635" fill-rule="evenodd" stroke="none"/>
      <path d="M12.6 10.0 L12.75 10.05 12.65 10.25 12.6 10.2 12.6 10.0" fill="#ffffff" fill-rule="evenodd" stroke="none"/>
      <path d="M24.5 12.0 L22.25 11.05 21.7 10.2 22.65 10.05 24.5 9.4 26.65 8.85 Q29.05 11.55 28.75 11.9 L24.5 12.0" fill="#e8512e" fill-rule="evenodd" stroke="none"/>
      <path d="M21.7 10.2 L22.2 10.65 Q22.95 11.2 24.45 11.55 L28.85 11.75 28.55 13.8 Q27.05 14.3 24.4 13.75 22.9 13.4 22.05 12.9 L21.4 12.45 21.7 10.2" fill="#ba2400" fill-rule="evenodd" stroke="none"/>
      <path d="M26.05 9.3 Q25.95 10.85 24.9 11.05 24.15 11.2 23.65 10.8 23.1 10.45 23.4 10.2 L24.8 9.7 26.05 9.3" fill="#cc2700" fill-rule="evenodd" stroke="none"/>
      <path d="M26.7 9.4 L27.3 10.05 28.0 11.15 Q28.1 11.6 27.15 11.6 26.25 11.55 26.15 11.0 L26.35 10.1 26.7 9.4" fill="#cc2700" fill-rule="evenodd" stroke="none"/>
      <path d="M24.75 10.15 L24.7 10.55 24.3 10.6 24.1 10.4 24.5 10.2 24.75 10.15" fill="#d69635" fill-rule="evenodd" stroke="none"/>
      <path d="M26.8 10.4 L27.1 10.75 Q27.1 11.15 26.7 10.95 26.5 10.9 26.6 10.6 L26.8 10.4" fill="#d69635" fill-rule="evenodd" stroke="none"/>
      <path d="M26.7 10.55 L26.85 10.65 26.85 10.85 26.7 10.75 26.7 10.55" fill="#ffffff" fill-rule="evenodd" stroke="none"/>
      <path d="M24.45 10.3 Q24.65 10.45 24.25 10.4 L24.3 10.35 Q24.4 10.25 24.45 10.3" fill="#ffffff" fill-rule="evenodd" stroke="none"/>
      <path d="M23.2 8.85 L20.9 9.4 19.9 9.0 21.6 6.6 22.9 4.8 Q26.6 5.75 26.55 6.25 26.55 6.75 23.2 8.85" fill="#e8512e" fill-rule="evenodd" stroke="none"/>
      <path d="M26.05 6.7 L26.55 6.05 27.65 8.0 Q26.75 9.35 24.25 10.5 L21.85 11.25 21.1 11.2 19.9 9.0 20.55 9.15 22.9 8.5 26.05 6.7" fill="#ba2400" fill-rule="evenodd" stroke="none"/>
      <path d="M22.8 5.55 Q23.65 6.95 22.95 7.8 22.45 8.35 21.8 8.35 21.15 8.3 21.2 8.0 L22.0 6.65 22.8 5.55" fill="#cc2700" fill-rule="evenodd" stroke="none"/>
      <path d="M23.3 5.25 L24.2 5.45 Q25.15 5.75 25.45 6.0 25.85 6.35 25.05 6.85 L23.9 6.95 23.5 6.05 23.3 5.25" fill="#cc2700" fill-rule="evenodd" stroke="none"/>
      <path d="M22.3 7.05 L22.45 7.15 22.5 7.45 22.25 7.75 21.95 7.7 22.05 7.35 22.3 7.05" fill="#d69635" fill-rule="evenodd" stroke="none"/>
      <path d="M24.0 6.05 L24.2 6.1 24.5 6.2 24.6 6.4 24.4 6.6 Q24.1 6.7 24.05 6.35 L24.0 6.05" fill="#d69635" fill-rule="evenodd" stroke="none"/>
      <path d="M24.1 6.3 Q24.05 6.15 24.2 6.25 L24.4 6.4 24.25 6.45 24.1 6.3" fill="#ffffff" fill-rule="evenodd" stroke="none"/>
      <path d="M22.1 7.4 Q22.35 7.4 22.05 7.65 L22.0 7.55 22.1 7.4" fill="#ffffff" fill-rule="evenodd" stroke="none"/>
      <path d="M26.45 14.35 L25.8 16.75 24.2 18.0 21.85 15.2 21.65 13.85 26.45 14.35" fill="#ff6945" fill-rule="evenodd" stroke="none"/>
      <path d="M27.05 15.9 L24.4 16.15 21.65 13.85 24.85 13.7 29.0 13.7 28.75 14.75 27.05 15.9" fill="#e8512e" fill-rule="evenodd" stroke="none"/>
      <path d="M29.35 13.75 L29.55 15.95 Q28.65 16.8 26.5 17.5 L24.55 18.05 24.4 15.85 26.95 15.0 Q29.05 14.3 29.35 13.75" fill="#ba2400" fill-rule="evenodd" stroke="none"/>
      <path d="M23.0 13.95 L27.45 13.8 Q27.9 13.75 27.85 14.0 27.7 14.2 27.15 14.4 L25.8 14.45 24.45 14.25 23.0 13.95" fill="#cc2700" fill-rule="evenodd" stroke="none"/>
      <path d="M22.45 14.05 L24.45 14.4 Q25.1 14.5 25.4 14.7 25.7 14.9 25.45 15.05 24.35 15.65 23.8 15.25 L22.8 14.4 22.45 14.05" fill="#cc2700" fill-rule="evenodd" stroke="none"/>
      <path d="M26.0 14.0 L27.05 14.0 Q27.25 14.35 26.6 14.2 L26.15 14.1 26.0 14.0" fill="#d69635" fill-rule="evenodd" stroke="none"/>
      <path d="M23.95 14.65 Q24.8 14.75 24.8 14.95 L24.6 15.2 24.3 15.1 23.95 14.65" fill="#d69635" fill-rule="evenodd" stroke="none"/>
      <path d="M24.5 14.85 L24.65 14.85 24.7 14.95 24.5 15.0 Q24.35 14.9 24.5 14.85" fill="#ffffff" fill-rule="evenodd" stroke="none"/>
      <path d="M26.75 14.0 L26.95 14.0 26.8 14.15 26.6 14.1 Q26.55 14.0 26.75 14.0" fill="#ffffff" fill-rule="evenodd" stroke="none"/>
      <path d="M8.75 12.9 L13.8 12.65 13.65 13.85 10.8 16.9 9.3 15.5 8.75 12.9" fill="#d6340d" fill-rule="evenodd" stroke="none"/>
      <path d="M13.8 12.65 L12.4 13.6 10.75 14.95 Q10.35 15.3 7.95 14.5 L6.25 13.15 6.05 12.05 13.8 12.65" fill="#e8512e" fill-rule="evenodd" stroke="none"/>
      <path d="M6.05 12.05 Q6.35 12.55 8.5 13.5 L11.15 14.55 10.8 16.9 8.85 16.15 Q6.6 15.3 5.7 14.35 L6.05 12.05" fill="#ba2400" fill-rule="evenodd" stroke="none"/>
      <path d="M12.35 12.65 L10.85 12.9 9.45 13.0 7.95 12.9 Q7.35 12.7 7.3 12.45 7.25 12.2 7.7 12.2 L12.35 12.65" fill="#cc2700" fill-rule="evenodd" stroke="none"/>
      <path d="M12.95 12.85 L11.45 14.0 Q10.8 14.35 9.7 13.65 9.45 13.5 9.85 13.3 L10.8 13.1 12.95 12.85" fill="#cc2700" fill-rule="evenodd" stroke="none"/>
      <path d="M9.25 12.55 L8.6 12.7 Q7.85 12.75 8.15 12.5 L8.75 12.5 9.25 12.55" fill="#d69635" fill-rule="evenodd" stroke="none"/>
      <path d="M11.3 13.35 L10.9 13.85 10.6 13.85 10.4 13.65 10.85 13.45 11.3 13.35" fill="#d69635" fill-rule="evenodd" stroke="none"/>
      <path d="M10.75 13.5 L10.7 13.7 10.5 13.65 Q10.45 13.55 10.55 13.5 L10.75 13.5" fill="#ffffff" fill-rule="evenodd" stroke="none"/>
      <path d="M8.5 12.45 L8.6 12.55 8.35 12.6 8.25 12.5 8.5 12.45" fill="#ffffff" fill-rule="evenodd" stroke="none"/>
      <path d="M9.05 9.75 L6.1 9.35 4.8 8.15 8.75 6.15 10.2 6.05 9.05 9.75" fill="#d6340d" fill-rule="evenodd" stroke="none"/>
      <path d="M7.05 10.25 L6.85 9.4 Q6.7 8.4 7.0 8.3 L10.2 6.05 10.0 8.5 9.55 11.75 8.25 11.55 7.05 10.25" fill="#e8512e" fill-rule="evenodd" stroke="none"/>
      <path d="M9.55 11.75 L6.85 11.95 Q5.85 11.3 5.3 9.7 L4.8 8.15 7.5 7.95 8.25 9.9 Q8.95 11.5 9.55 11.75" fill="#ba2400" fill-rule="evenodd" stroke="none"/>
      <path d="M9.95 7.1 L9.65 10.5 9.3 10.75 Q9.0 10.75 8.85 10.35 8.7 9.9 8.95 9.25 L9.4 8.2 9.95 7.1" fill="#cc2700" fill-rule="evenodd" stroke="none"/>
      <path d="M9.85 6.65 L9.2 8.2 8.75 8.95 8.3 9.05 Q7.65 8.3 8.2 7.7 L9.85 6.65" fill="#cc2700" fill-rule="evenodd" stroke="none"/>
      <path d="M9.5 9.35 L9.4 10.15 Q9.05 10.4 9.2 9.85 L9.5 9.35" fill="#d69635" fill-rule="evenodd" stroke="none"/>
      <path d="M8.85 7.85 Q8.7 8.5 8.4 8.55 L8.2 8.35 8.3 8.15 8.85 7.85" fill="#d69635" fill-rule="evenodd" stroke="none"/>
      <path d="M8.65 8.3 L8.6 8.4 8.45 8.45 Q8.4 8.4 8.5 8.3 8.6 8.15 8.65 8.3" fill="#ffffff" fill-rule="evenodd" stroke="none"/>
      <path d="M9.5 9.95 L9.4 10.1 9.25 10.0 9.4 9.85 9.5 9.95" fill="#ffffff" fill-rule="evenodd" stroke="none"/>
      <path d="M14.65 8.3 L12.4 7.55 11.75 6.7 12.65 6.35 14.45 5.55 Q15.35 5.05 16.55 4.65 19.2 7.4 18.85 7.8 L14.65 8.3" fill="#e8512e" fill-rule="evenodd" stroke="none"/>
      <path d="M18.95 7.6 L18.9 9.85 Q17.4 10.6 14.7 10.25 13.2 10.05 12.25 9.55 L11.65 9.1 11.75 6.7 12.3 7.15 Q13.05 7.6 14.6 7.85 L18.2 7.95 18.95 7.6" fill="#ba2400" fill-rule="evenodd" stroke="none"/>
      <path d="M16.05 5.25 Q16.0 6.9 15.0 7.25 L13.7 7.1 Q13.1 6.8 13.45 6.5 13.55 6.3 14.8 5.75 L16.05 5.25" fill="#cc2700" fill-rule="evenodd" stroke="none"/>
      <path d="M16.65 5.25 Q17.85 6.4 18.05 7.05 18.25 7.55 17.3 7.55 16.3 7.65 16.2 7.0 L16.4 6.05 16.65 5.25" fill="#cc2700" fill-rule="evenodd" stroke="none"/>
      <path d="M14.75 6.25 L14.8 6.7 14.35 6.8 14.2 6.65 14.5 6.35 14.75 6.25" fill="#d69635" fill-rule="evenodd" stroke="none"/>
      <path d="M16.8 6.3 L17.15 6.7 17.1 6.95 16.8 6.95 Q16.5 6.9 16.65 6.6 L16.8 6.3" fill="#d69635" fill-rule="evenodd" stroke="none"/>
      <path d="M16.75 6.55 L16.95 6.6 16.95 6.8 16.8 6.75 16.75 6.55" fill="#ffffff" fill-rule="evenodd" stroke="none"/>
      <path d="M14.5 6.5 Q14.8 6.65 14.35 6.65 L14.35 6.5 14.5 6.5" fill="#ffffff" fill-rule="evenodd" stroke="none"/>
      <path d="M10.9 9.45 L10.95 9.45 Q10.85 11.4 10.1 11.8 L7.7 13.15 7.9 12.6 8.15 11.4 Q8.2 10.9 8.85 10.05 L9.8 8.4 10.9 9.45" fill="#ffdc57" fill-rule="evenodd" stroke="none"/>
      <path d="M9.85 11.4 L9.6 9.95 9.75 9.0 9.8 8.4 11.9 9.7 12.95 10.45 12.95 12.2 12.9 12.4 9.85 11.4" fill="#db9d00" fill-rule="evenodd" stroke="none"/>
      <path d="M7.75 13.15 L8.6 11.6 9.6 10.0 9.85 10.1 11.45 11.15 12.95 12.45 9.75 13.0 7.75 13.15" fill="#ffcf1c" fill-rule="evenodd" stroke="none"/>
      <path d="M29.35 11.4 L28.35 9.5 28.4 8.6 29.2 8.95 30.85 9.55 32.75 10.3 Q32.9 13.65 32.4 13.8 31.95 13.8 29.35 11.4" fill="#e8512e" fill-rule="evenodd" stroke="none"/>
      <path d="M28.4 8.6 L28.45 9.2 29.6 11.05 31.9 13.4 32.6 13.7 31.25 15.05 Q29.8 14.6 28.25 12.7 L27.05 10.75 26.9 10.1 28.4 8.6" fill="#ba2400" fill-rule="evenodd" stroke="none"/>
      <path d="M32.05 10.35 Q31.1 11.4 30.2 10.9 L29.4 10.05 Q29.25 9.55 29.6 9.45 29.95 9.45 32.05 10.35" fill="#cc2700" fill-rule="evenodd" stroke="none"/>
      <path d="M32.5 10.75 Q32.6 12.2 32.35 12.75 32.15 13.15 31.55 12.55 30.9 12.05 31.1 11.6 31.25 11.4 31.85 11.1 L32.5 10.75" fill="#cc2700" fill-rule="evenodd" stroke="none"/>
      <path d="M30.65 10.2 L30.4 10.45 30.1 10.3 30.0 10.05 30.35 10.05 30.65 10.2" fill="#d69635" fill-rule="evenodd" stroke="none"/>
      <path d="M32.0 11.55 L31.95 11.95 31.85 12.1 31.55 11.9 Q31.45 11.7 31.65 11.6 L32.0 11.55" fill="#d69635" fill-rule="evenodd" stroke="none"/>
      <path d="M31.75 11.65 L31.85 11.75 31.7 11.85 31.65 11.7 31.75 11.65" fill="#ffffff" fill-rule="evenodd" stroke="none"/>
      <path d="M30.35 10.15 Q30.45 10.5 30.15 10.15 L30.35 10.15" fill="#ffffff" fill-rule="evenodd" stroke="none"/>
      <path d="M15.85 10.7 L21.25 9.65 21.25 11.0 18.75 14.7 16.75 13.45 15.85 10.7" fill="#d6340d" fill-rule="evenodd" stroke="none"/>
      <path d="M21.25 9.65 L18.3 12.6 Q17.95 13.1 15.2 12.6 L13.2 11.45 12.75 10.2 21.25 9.65" fill="#e8512e" fill-rule="evenodd" stroke="none"/>
      <path d="M12.75 10.2 L13.25 10.6 15.65 11.4 18.7 12.15 18.75 14.7 16.4 14.2 13.6 13.25 12.7 12.75 12.75 10.2" fill="#ba2400" fill-rule="evenodd" stroke="none"/>
      <path d="M19.75 9.9 L18.1 10.35 16.6 10.7 15.0 10.85 Q14.3 10.7 14.2 10.45 14.1 10.2 14.65 10.15 L19.75 9.9" fill="#cc2700" fill-rule="evenodd" stroke="none"/>
      <path d="M20.4 9.95 L18.95 11.5 17.0 11.4 Q16.65 11.3 17.05 11.0 L18.1 10.55 20.4 9.95" fill="#cc2700" fill-rule="evenodd" stroke="none"/>
      <path d="M16.3 10.25 L15.6 10.6 Q14.85 10.75 15.05 10.35 L15.75 10.25 16.3 10.25" fill="#d69635" fill-rule="evenodd" stroke="none"/>
      <path d="M18.65 10.8 L18.35 11.4 18.0 11.5 Q17.7 11.45 17.75 11.25 17.7 11.1 18.2 11.0 L18.65 10.8" fill="#d69635" fill-rule="evenodd" stroke="none"/>
      <path d="M18.1 11.1 Q18.4 11.15 17.9 11.25 L17.9 11.1 18.1 11.1" fill="#ffffff" fill-rule="evenodd" stroke="none"/>
      <path d="M15.5 10.3 Q15.7 10.3 15.55 10.4 L15.3 10.5 15.2 10.35 15.5 10.3" fill="#ffffff" fill-rule="evenodd" stroke="none"/>
      <path d="M33.8 15.65 L33.3 15.75 32.1 16.15 30.6 16.25 29.2 16.25 28.65 16.35 29.0 14.75 29.0 14.7 29.9 14.3 Q31.0 14.0 31.5 14.3 L33.8 15.65" fill="#db9d00" fill-rule="evenodd" stroke="none"/>
      <path d="M31.25 14.7 L30.05 15.75 29.25 16.0 28.65 16.35 Q28.6 14.8 28.7 13.75 L28.8 12.55 30.25 11.55 30.45 11.5 31.25 14.7" fill="#ffdc57" fill-rule="evenodd" stroke="none"/>
      <path d="M32.05 15.65 L30.15 15.7 Q30.0 15.5 30.2 13.45 L30.45 11.45 32.6 13.95 33.8 15.6 32.05 15.65" fill="#ffcf1c" fill-rule="evenodd" stroke="none"/>
      <path d="M18.6 8.85 L17.75 10.15 17.25 8.75 16.9 7.4 16.9 6.8 16.9 6.25 18.25 7.15 18.6 8.85" fill="#db9d00" fill-rule="evenodd" stroke="none"/>
      <path d="M17.6 8.65 L18.75 7.65 19.8 7.7 20.85 7.9 Q21.05 8.15 20.75 9.6 L19.9 9.7 18.5 9.95 17.75 10.15 17.6 8.65" fill="#ffcf1c" fill-rule="evenodd" stroke="none"/>
      <path d="M19.45 5.75 L20.5 7.0 20.95 8.05 18.6 8.65 17.65 8.8 17.0 6.95 16.95 6.4 19.45 5.75" fill="#ffdc57" fill-rule="evenodd" stroke="none"/>
      <path d="M18.0 17.0 Q24.3 17.45 29.4 16.85 34.35 16.25 36.25 14.85 34.95 18.55 29.7 20.65 24.4 22.75 17.65 22.3 11.1 21.85 6.25 19.05 1.4 16.3 0.45 12.55 2.3 14.15 7.05 15.4 11.9 16.55 18.0 17.0" fill="url(#gradient5)" fill-rule="evenodd" stroke="none"/>
      <path d="M16.05 11.8 L17.2 11.95 16.1 13.25 14.2 13.4 13.0 12.3 16.05 11.8" fill="#ffdc57" fill-rule="evenodd" stroke="none"/>
      <path d="M13.0 12.3 L14.6 12.35 15.45 13.7 Q15.15 15.9 14.9 16.0 L13.9 15.8 13.1 15.55 13.15 14.6 13.1 13.1 13.0 12.3" fill="#ffcf1c" fill-rule="evenodd" stroke="none"/>
      <path d="M17.2 11.95 L17.55 14.8 16.05 15.65 14.9 16.0 14.6 13.35 14.6 12.35 15.4 12.15 16.6 11.95 17.2 11.95" fill="#db9d00" fill-rule="evenodd" stroke="none"/>
      <path d="M35.1 14.35 L36.25 14.45 36.25 14.8 Q36.15 16.3 30.9 17.0 25.5 17.7 18.05 17.2 10.65 16.7 5.5 15.2 0.25 13.8 0.35 12.3 L0.5 11.95 1.8 12.05 Q1.9 13.25 6.7 14.45 11.45 15.6 18.25 16.05 25.05 16.55 29.95 16.05 34.8 15.55 35.1 14.35" fill="#ffffff" fill-rule="evenodd" stroke="none"/>
      <path d="M36.3 9.25 Q36.3 10.8 31.0 11.85 25.65 12.95 18.15 12.95 10.65 12.95 5.35 11.85 0.0 10.8 0.0 9.25 0.0 7.75 5.35 6.65 10.65 5.55 18.15 5.55 25.65 5.55 31.0 6.65 36.3 7.75 36.3 9.25" fill="url(#gradient6)" fill-rule="evenodd" stroke="none"/>
      <path d="M36.25 8.95 L35.05 8.95 35.1 8.85 Q35.1 7.65 30.15 6.75 L18.25 5.9 6.35 6.75 Q1.4 7.65 1.4 8.85 L1.4 8.95 0.1 8.95 Q0.65 7.55 5.8 6.55 L18.15 5.55 30.5 6.55 Q35.65 7.55 36.25 8.95" fill="#ffffff" fill-rule="evenodd" stroke="none"/>
      <path d="M32.0 12.05 L26.65 13.0 20.65 13.8 2.85 11.5 3.5 9.3 5.1 8.3 6.0 7.85 7.35 7.35 8.65 7.1 10.25 6.8 16.75 6.4 19.3 6.1 Q21.35 5.85 21.8 6.1 22.25 6.4 23.45 6.7 L24.8 7.05 27.7 6.8 28.3 6.85 Q28.95 7.0 29.05 7.2 29.2 7.55 31.45 8.65 L32.25 9.4 32.95 10.25 32.7 11.15 32.0 12.05" fill="#bf5d00" fill-rule="evenodd" stroke="none"/>
      <path d="M15.3 10.7 L14.3 11.8 13.85 10.6 13.6 9.3 13.6 8.8 13.7 8.35 15.05 9.15 15.3 10.7" fill="#ffcf1c" fill-rule="evenodd" stroke="none"/>
      <path d="M15.55 9.65 L17.8 9.95 Q17.95 10.15 17.5 11.45 L16.6 11.45 14.3 11.8 14.25 11.35 14.25 10.45 15.55 9.65" fill="#db9d00" fill-rule="evenodd" stroke="none"/>
      <path d="M16.45 7.9 L17.4 9.0 17.8 9.95 15.25 10.4 14.25 10.45 Q13.75 9.3 13.75 8.8 L13.7 8.35 16.45 7.9" fill="#ffdc57" fill-rule="evenodd" stroke="none"/>
      <path d="M18.0 6.2 L16.95 7.3 Q16.6 6.6 16.55 6.1 L16.3 4.85 16.3 4.35 16.35 3.85 17.7 4.7 18.0 6.2" fill="#ffcf1c" fill-rule="evenodd" stroke="none"/>
      <path d="M18.2 5.2 L20.5 5.45 20.2 6.95 19.25 7.0 17.8 7.15 16.95 7.3 16.9 6.9 16.9 5.95 18.2 5.2" fill="#db9d00" fill-rule="evenodd" stroke="none"/>
      <path d="M19.15 3.4 L20.05 4.55 20.5 5.45 17.95 5.9 16.9 5.95 16.4 4.35 16.35 3.85 19.15 3.4" fill="#ffdc57" fill-rule="evenodd" stroke="none"/>
      <path d="M3.9 9.4 L2.9 10.45 Q2.5 9.8 2.45 9.25 L2.2 8.05 2.2 7.55 2.25 7.05 3.65 7.9 3.9 9.4" fill="#ffcf1c" fill-rule="evenodd" stroke="none"/>
      <path d="M2.9 10.45 L2.8 9.15 4.15 8.35 5.2 8.4 6.4 8.65 Q6.55 8.9 6.1 10.15 L5.2 10.15 2.9 10.45" fill="#db9d00" fill-rule="evenodd" stroke="none"/>
      <path d="M5.05 6.55 L6.0 7.75 6.4 8.65 3.85 9.1 2.8 9.15 2.3 7.55 2.25 7.05 5.05 6.55" fill="#ffdc57" fill-rule="evenodd" stroke="none"/>
      <path d="M9.55 6.95 L7.7 5.4 7.45 4.35 8.35 4.4 10.4 4.3 12.7 4.2 Q14.2 7.75 13.75 8.05 13.3 8.35 9.55 6.95" fill="#e8512e" fill-rule="evenodd" stroke="none"/>
      <path d="M7.45 4.35 L7.75 4.95 Q8.3 5.7 9.65 6.5 11.75 7.65 13.0 7.9 L13.85 7.9 12.95 9.95 Q11.3 10.1 8.9 8.8 6.7 7.6 6.4 6.65 L7.45 4.35" fill="#ba2400" fill-rule="evenodd" stroke="none"/>
      <path d="M11.95 4.6 Q11.35 6.1 10.25 6.05 9.5 6.0 9.1 5.5 8.7 4.95 9.1 4.75 L10.65 4.6 11.95 4.6" fill="#cc2700" fill-rule="evenodd" stroke="none"/>
      <path d="M12.55 4.85 L12.9 5.65 13.2 7.0 Q13.15 7.5 12.3 7.2 11.4 6.9 11.5 6.35 L12.0 5.45 12.55 4.85" fill="#cc2700" fill-rule="evenodd" stroke="none"/>
      <path d="M10.45 5.05 Q10.55 5.4 10.25 5.5 L9.85 5.45 9.7 5.2 Q9.75 5.05 10.1 5.05 L10.45 5.05" fill="#d69635" fill-rule="evenodd" stroke="none"/>
      <path d="M12.3 5.9 L12.5 6.35 12.4 6.55 12.05 6.5 Q11.8 6.35 12.05 6.1 L12.3 5.9" fill="#d69635" fill-rule="evenodd" stroke="none"/>
      <path d="M12.15 6.1 Q12.25 6.0 12.3 6.2 L12.25 6.4 12.1 6.25 12.15 6.1" fill="#ffffff" fill-rule="evenodd" stroke="none"/>
      <path d="M10.05 5.2 L9.85 5.25 9.9 5.15 10.05 5.2" fill="#ffffff" fill-rule="evenodd" stroke="none"/>
      <path d="M22.3 5.2 L20.05 4.45 19.4 3.7 20.25 3.4 22.1 2.65 24.25 1.9 Q26.85 4.45 26.55 4.9 L22.3 5.2" fill="#e8512e" fill-rule="evenodd" stroke="none"/>
      <path d="M25.85 5.0 L26.65 4.75 26.5 6.75 22.3 7.0 19.9 6.35 19.25 5.95 19.4 3.7 19.9 4.1 Q20.65 4.55 22.2 4.8 L25.85 5.0" fill="#ba2400" fill-rule="evenodd" stroke="none"/>
      <path d="M23.65 2.45 L23.55 3.25 Q23.3 4.1 22.6 4.25 L21.35 4.1 Q20.8 3.8 21.05 3.5 L22.45 2.9 23.65 2.45" fill="#cc2700" fill-rule="evenodd" stroke="none"/>
      <path d="M24.3 2.5 L24.95 3.1 25.75 4.15 Q25.9 4.6 24.95 4.6 24.0 4.65 23.85 4.1 23.8 3.85 24.05 3.15 L24.3 2.5" fill="#cc2700" fill-rule="evenodd" stroke="none"/>
      <path d="M22.45 3.35 Q22.65 3.6 22.45 3.75 L22.0 3.85 21.85 3.7 22.15 3.45 22.45 3.35" fill="#d69635" fill-rule="evenodd" stroke="none"/>
      <path d="M24.5 3.45 L24.7 3.55 24.85 3.8 24.8 4.0 24.45 4.05 Q24.2 4.0 24.3 3.7 L24.5 3.45" fill="#d69635" fill-rule="evenodd" stroke="none"/>
      <path d="M24.4 3.7 Q24.5 3.55 24.55 3.7 L24.55 3.9 24.45 3.85 24.4 3.7" fill="#ffffff" fill-rule="evenodd" stroke="none"/>
      <path d="M22.15 3.55 Q22.45 3.7 21.95 3.7 21.9 3.65 22.0 3.55 L22.15 3.55" fill="#ffffff" fill-rule="evenodd" stroke="none"/>
      <path d="M30.6 9.15 L29.85 9.95 28.25 7.45 27.0 5.5 28.15 4.0 Q29.4 2.5 29.7 2.65 30.2 2.9 30.95 6.75 L30.6 9.15" fill="#e8512e" fill-rule="evenodd" stroke="none"/>
      <path d="M31.75 2.35 Q32.75 3.65 32.85 6.4 33.0 8.85 32.35 9.6 L29.85 9.95 Q30.55 9.4 30.5 6.95 30.4 4.55 29.95 3.35 L29.5 2.65 31.75 2.35" fill="#ba2400" fill-rule="evenodd" stroke="none"/>
      <path d="M27.7 5.95 L28.6 5.95 Q29.5 6.05 29.8 6.65 30.2 7.3 29.95 7.95 29.7 8.55 29.35 8.35 L28.4 7.1 27.7 5.95" fill="#cc2700" fill-rule="evenodd" stroke="none"/>
      <path d="M27.6 5.35 L28.15 4.6 29.1 3.6 Q29.55 3.4 29.75 4.3 29.95 5.2 29.45 5.45 L28.4 5.45 27.6 5.35" fill="#cc2700" fill-rule="evenodd" stroke="none"/>
      <path d="M28.9 7.0 L29.05 6.9 29.35 6.95 29.5 7.3 29.35 7.55 29.05 7.3 28.9 7.0" fill="#d69635" fill-rule="evenodd" stroke="none"/>
      <path d="M28.6 4.95 L28.9 4.6 29.15 4.6 29.25 4.9 28.6 4.95" fill="#d69635" fill-rule="evenodd" stroke="none"/>
      <path d="M28.9 5.0 Q28.75 4.95 28.9 4.85 29.0 4.75 29.05 4.8 L29.05 4.95 28.9 5.0" fill="#ffffff" fill-rule="evenodd" stroke="none"/>
      <path d="M29.2 7.3 Q29.2 7.15 29.3 7.25 L29.35 7.4 29.2 7.4 29.2 7.3" fill="#ffffff" fill-rule="evenodd" stroke="none"/>
      <path d="M28.3 9.25 L27.85 11.65 26.35 13.0 23.8 10.4 23.5 9.05 28.3 9.25" fill="#ff6945" fill-rule="evenodd" stroke="none"/>
      <path d="M30.9 8.35 L30.7 9.45 29.05 10.75 26.45 11.2 24.85 10.0 23.5 9.05 26.7 8.65 30.9 8.35" fill="#e8512e" fill-rule="evenodd" stroke="none"/>
      <path d="M31.25 10.55 Q30.4 11.5 28.3 12.3 L26.35 13.0 26.05 10.85 28.6 9.85 Q30.65 8.9 30.9 8.35 L31.25 10.55" fill="#ba2400" fill-rule="evenodd" stroke="none"/>
      <path d="M24.85 9.0 L29.3 8.55 Q29.75 8.5 29.7 8.75 L29.05 9.25 27.7 9.35 26.35 9.2 24.85 9.0" fill="#cc2700" fill-rule="evenodd" stroke="none"/>
      <path d="M24.3 9.15 L26.35 9.4 27.35 9.65 Q27.7 9.85 27.4 10.0 26.5 10.7 25.75 10.3 L24.65 9.55 24.3 9.15" fill="#cc2700" fill-rule="evenodd" stroke="none"/>
      <path d="M27.9 8.9 L28.35 8.8 28.9 8.8 Q29.1 9.1 28.5 9.1 L27.9 8.9" fill="#d69635" fill-rule="evenodd" stroke="none"/>
      <path d="M25.9 9.7 L26.35 9.75 Q26.75 9.8 26.8 9.95 L26.6 10.15 26.25 10.15 25.9 9.7" fill="#d69635" fill-rule="evenodd" stroke="none"/>
      <path d="M26.45 9.85 L26.6 9.85 26.65 9.95 26.45 10.0 Q26.3 9.9 26.45 9.85" fill="#ffffff" fill-rule="evenodd" stroke="none"/>
      <path d="M28.6 8.8 L28.85 8.85 28.75 8.95 28.5 8.95 28.6 8.8" fill="#ffffff" fill-rule="evenodd" stroke="none"/>
      <path d="M8.45 9.3 L13.55 8.65 13.45 9.9 10.85 13.15 9.15 11.85 8.45 9.3" fill="#d6340d" fill-rule="evenodd" stroke="none"/>
      <path d="M13.55 8.65 L10.6 11.2 7.75 10.95 5.95 9.75 5.65 8.65 13.55 8.65" fill="#e8512e" fill-rule="evenodd" stroke="none"/>
      <path d="M5.65 8.65 Q6.0 9.15 8.25 9.95 L11.0 10.8 10.85 13.15 8.75 12.55 Q6.45 11.85 5.5 10.95 L5.65 8.65" fill="#ba2400" fill-rule="evenodd" stroke="none"/>
      <path d="M12.1 8.8 L10.55 9.1 9.15 9.4 7.65 9.4 7.0 8.95 Q6.9 8.65 7.4 8.65 L12.1 8.8" fill="#cc2700" fill-rule="evenodd" stroke="none"/>
      <path d="M12.7 8.9 L11.3 10.2 Q10.5 10.7 9.5 10.0 9.25 9.85 9.55 9.65 9.9 9.4 10.6 9.3 L12.7 8.9" fill="#cc2700" fill-rule="evenodd" stroke="none"/>
      <path d="M8.9 8.95 L8.25 9.15 Q7.6 9.25 7.8 8.95 L8.4 8.9 8.9 8.95" fill="#d69635" fill-rule="evenodd" stroke="none"/>
      <path d="M11.1 9.6 L10.75 10.1 10.4 10.15 10.15 9.95 Q10.15 9.8 10.65 9.7 L11.1 9.6" fill="#d69635" fill-rule="evenodd" stroke="none"/>
      <path d="M10.5 9.8 L10.3 9.95 10.35 9.8 10.5 9.8" fill="#ffffff" fill-rule="evenodd" stroke="none"/>
      <path d="M8.15 8.9 L8.25 8.95 Q8.2 9.1 8.05 9.05 L7.9 8.95 8.15 8.9" fill="#ffffff" fill-rule="evenodd" stroke="none"/>
      <path d="M15.55 3.55 L19.0 5.5 17.65 6.45 12.85 7.75 13.25 5.9 15.55 3.55" fill="#d6340d" fill-rule="evenodd" stroke="none"/>
      <path d="M19.0 5.5 L14.75 6.1 Q14.35 6.2 13.9 5.35 L13.45 4.55 13.7 2.65 14.7 1.6 19.0 5.5" fill="#e8512e" fill-rule="evenodd" stroke="none"/>
      <path d="M14.7 1.6 Q14.35 2.2 14.75 3.95 15.15 5.65 15.4 5.95 L12.85 7.75 12.3 6.25 Q11.95 5.25 12.05 4.2 L12.2 3.4 14.7 1.6" fill="#ba2400" fill-rule="evenodd" stroke="none"/>
      <path d="M18.1 4.9 L16.9 4.4 15.85 3.9 15.05 3.2 Q14.9 2.75 15.1 2.5 15.3 2.3 15.55 2.5 L18.1 4.9" fill="#cc2700" fill-rule="evenodd" stroke="none"/>
      <path d="M18.25 5.3 L16.15 5.65 Q15.25 5.65 15.35 4.6 15.4 4.3 15.8 4.3 L16.65 4.6 18.25 5.3" fill="#cc2700" fill-rule="evenodd" stroke="none"/>
      <path d="M16.15 3.45 L15.55 3.3 Q15.1 3.05 15.55 2.95 15.8 2.85 16.15 3.45" fill="#d69635" fill-rule="evenodd" stroke="none"/>
      <path d="M16.65 5.05 L15.95 5.25 Q15.75 5.35 15.7 5.15 L15.8 4.9 16.65 5.05" fill="#d69635" fill-rule="evenodd" stroke="none"/>
      <path d="M16.15 4.9 L16.0 5.05 15.9 4.95 16.05 4.85 16.15 4.9" fill="#ffffff" fill-rule="evenodd" stroke="none"/>
      <path d="M15.8 3.05 L15.75 3.2 15.55 3.1 15.6 3.0 15.8 3.05" fill="#ffffff" fill-rule="evenodd" stroke="none"/>
      <path d="M18.7 11.95 L16.3 11.35 15.65 10.55 16.5 10.15 18.25 9.2 20.35 8.15 Q23.2 10.7 22.9 11.2 22.6 11.65 18.7 11.95" fill="#e8512e" fill-rule="evenodd" stroke="none"/>
      <path d="M15.65 10.55 L16.15 10.95 18.55 11.5 22.2 11.35 22.95 11.0 23.05 13.25 22.0 13.65 18.85 13.9 16.3 13.45 15.7 13.0 15.65 10.55" fill="#ba2400" fill-rule="evenodd" stroke="none"/>
      <path d="M19.8 8.8 Q19.9 10.45 18.9 10.85 L17.6 10.8 Q17.05 10.5 17.3 10.2 L18.65 9.4 19.8 8.8" fill="#cc2700" fill-rule="evenodd" stroke="none"/>
      <path d="M20.45 8.8 L21.1 9.4 Q21.85 10.05 22.0 10.45 22.2 10.9 21.25 11.05 20.35 11.15 20.15 10.6 20.05 10.35 20.25 9.55 L20.45 8.8" fill="#cc2700" fill-rule="evenodd" stroke="none"/>
      <path d="M18.65 9.85 L18.7 10.35 18.25 10.45 18.1 10.3 18.35 10.0 18.65 9.85" fill="#d69635" fill-rule="evenodd" stroke="none"/>
      <path d="M20.7 9.85 L21.05 10.15 21.05 10.4 20.75 10.45 Q20.5 10.45 20.55 10.15 L20.7 9.85" fill="#d69635" fill-rule="evenodd" stroke="none"/>
      <path d="M20.65 10.05 Q20.7 9.9 20.8 10.05 L20.8 10.3 20.7 10.25 20.65 10.05" fill="#ffffff" fill-rule="evenodd" stroke="none"/>
      <path d="M18.4 10.15 L18.2 10.3 18.2 10.15 18.4 10.15" fill="#ffffff" fill-rule="evenodd" stroke="none"/>
      <path d="M11.75 3.6 L11.95 5.45 11.8 6.95 Q11.5 8.0 11.5 8.9 L10.0 8.25 9.9 8.25 Q9.4 6.4 10.0 5.65 L11.75 3.6" fill="#db9d00" fill-rule="evenodd" stroke="none"/>
      <path d="M11.5 8.9 L8.95 8.35 7.75 8.0 7.05 6.4 7.05 6.15 10.4 6.0 11.15 7.3 11.5 8.9" fill="#ffcf1c" fill-rule="evenodd" stroke="none"/>
      <path d="M11.7 3.6 L11.45 5.35 11.15 7.3 8.9 6.8 7.0 6.15 Q8.55 5.15 9.85 4.45 11.15 3.8 11.7 3.6" fill="#ffdc57" fill-rule="evenodd" stroke="none"/>
      <path d="M24.3 7.45 L21.8 7.7 20.85 7.15 21.55 6.5 23.0 4.95 24.7 3.3 Q28.35 4.75 28.25 5.25 28.1 5.8 24.3 7.45" fill="#e8512e" fill-rule="evenodd" stroke="none"/>
      <path d="M24.05 7.05 Q26.5 6.4 27.6 5.65 L28.25 5.05 29.05 7.2 Q27.9 8.45 25.15 9.25 L22.45 9.65 21.7 9.5 20.85 7.15 21.5 7.35 24.05 7.05" fill="#ba2400" fill-rule="evenodd" stroke="none"/>
      <path d="M24.4 4.05 L24.65 4.9 Q24.75 5.9 24.2 6.35 23.6 6.85 22.9 6.75 22.25 6.65 22.35 6.25 L23.45 5.05 24.4 4.05" fill="#cc2700" fill-rule="evenodd" stroke="none"/>
      <path d="M25.05 3.85 L25.9 4.15 27.1 4.9 Q27.45 5.25 26.6 5.7 L25.3 5.65 Q25.15 5.45 25.1 4.6 L25.05 3.85" fill="#cc2700" fill-rule="evenodd" stroke="none"/>
      <path d="M23.65 5.5 Q23.95 5.65 23.8 5.95 L23.45 6.2 Q23.25 6.25 23.2 6.1 23.1 6.0 23.35 5.75 L23.65 5.5" fill="#d69635" fill-rule="evenodd" stroke="none"/>
      <path d="M25.65 4.75 L25.85 4.75 26.05 4.9 26.2 5.2 25.9 5.35 Q25.6 5.4 25.6 5.05 L25.65 4.75" fill="#d69635" fill-rule="evenodd" stroke="none"/>
      <path d="M25.65 5.0 Q25.7 4.9 25.8 4.95 L25.9 5.15 25.75 5.15 25.65 5.0" fill="#ffffff" fill-rule="evenodd" stroke="none"/>
      <path d="M23.4 5.8 Q23.65 5.85 23.3 6.05 L23.25 5.95 23.4 5.8" fill="#ffffff" fill-rule="evenodd" stroke="none"/>
      <path d="M14.55 6.9 L19.95 5.45 20.05 6.75 17.75 10.7 15.7 9.55 14.55 6.9" fill="#d6340d" fill-rule="evenodd" stroke="none"/>
      <path d="M19.95 5.45 L17.15 8.65 14.1 8.8 11.95 7.8 11.45 6.6 19.95 5.45" fill="#e8512e" fill-rule="evenodd" stroke="none"/>
      <path d="M11.45 6.6 L12.0 6.95 14.45 7.65 17.55 8.15 17.75 10.7 15.35 10.4 12.55 9.65 11.6 9.15 11.45 6.6" fill="#ba2400" fill-rule="evenodd" stroke="none"/>
      <path d="M18.4 5.8 L16.75 6.4 15.35 6.85 13.75 7.1 Q13.0 7.0 12.9 6.75 12.8 6.5 13.3 6.4 L18.4 5.8" fill="#cc2700" fill-rule="evenodd" stroke="none"/>
      <path d="M19.1 5.8 L17.75 7.45 15.75 7.55 Q15.45 7.4 15.8 7.15 L16.85 6.6 19.1 5.8" fill="#cc2700" fill-rule="evenodd" stroke="none"/>
      <path d="M14.95 6.45 Q14.8 6.7 14.35 6.8 13.6 7.0 13.8 6.6 L14.45 6.45 14.95 6.45" fill="#d69635" fill-rule="evenodd" stroke="none"/>
      <path d="M17.45 6.85 L17.15 7.4 16.75 7.55 16.5 7.3 Q16.45 7.15 16.95 7.0 L17.45 6.85" fill="#d69635" fill-rule="evenodd" stroke="none"/>
      <path d="M16.85 7.15 Q17.05 7.15 16.9 7.3 L16.65 7.3 16.65 7.15 16.85 7.15" fill="#ffffff" fill-rule="evenodd" stroke="none"/>
      <path d="M14.15 6.55 Q14.35 6.5 14.3 6.6 L14.05 6.7 13.9 6.65 14.15 6.55" fill="#ffffff" fill-rule="evenodd" stroke="none"/>
      <path d="M19.75 9.1 L21.3 9.0 23.75 10.15 22.0 10.85 20.5 11.05 19.15 11.15 18.55 11.25 18.8 9.7 18.8 9.55 19.75 9.1" fill="#db9d00" fill-rule="evenodd" stroke="none"/>
      <path d="M21.1 9.45 L20.0 10.55 19.15 10.9 18.55 11.25 18.4 8.65 18.5 7.4 19.9 6.4 20.1 6.25 21.1 9.45" fill="#ffdc57" fill-rule="evenodd" stroke="none"/>
      <path d="M23.75 10.15 L21.95 10.35 20.05 10.55 Q19.9 10.35 19.9 8.2 L20.05 6.25 22.45 8.55 23.75 10.15" fill="#ffcf1c" fill-rule="evenodd" stroke="none"/>
      <path d="M18.95 3.75 L21.25 2.3 25.0 1.15 27.95 0.0 27.85 1.6 27.85 1.65 Q25.45 3.4 24.1 3.4 L18.95 3.75" fill="#ffdc57" fill-rule="evenodd" stroke="none"/>
      <path d="M27.95 0.0 Q28.45 1.3 28.55 2.3 L28.65 3.55 26.65 5.15 26.35 5.35 24.4 2.85 25.9 1.35 27.95 0.0" fill="#db9d00" fill-rule="evenodd" stroke="none"/>
      <path d="M18.75 3.7 L20.15 3.4 22.9 2.5 25.8 1.4 Q26.05 1.45 26.35 3.45 L26.35 5.4 22.45 4.35 20.0 3.85 18.75 3.7" fill="#ffcf1c" fill-rule="evenodd" stroke="none"/>
      <path d="M33.55 7.35 L34.6 7.5 33.55 8.7 31.8 8.85 30.7 7.8 33.55 7.35" fill="#ffdc57" fill-rule="evenodd" stroke="none"/>
      <path d="M30.7 7.8 L32.2 7.85 32.95 9.1 Q32.7 11.2 32.45 11.25 L31.5 11.1 30.75 10.85 30.85 10.0 30.75 8.55 30.7 7.8" fill="#ffcf1c" fill-rule="evenodd" stroke="none"/>
      <path d="M34.6 7.5 L34.9 10.15 33.55 10.95 32.45 11.25 32.2 8.8 32.2 7.85 32.95 7.7 34.05 7.5 34.6 7.5" fill="#db9d00" fill-rule="evenodd" stroke="none"/>
      <path d="M18.05 12.8 L29.5 11.8 Q34.45 10.9 36.25 9.35 35.2 13.1 30.1 15.6 24.95 18.1 18.15 18.1 11.45 18.1 6.3 15.65 1.3 13.25 0.1 9.55 2.05 11.0 6.9 11.9 L18.05 12.8" fill="url(#gradient7)" fill-rule="evenodd" stroke="none"/>
      <path d="M35.05 8.95 L36.25 8.95 36.3 9.25 Q36.3 10.8 31.0 11.85 25.65 12.95 18.15 12.95 10.65 12.95 5.35 11.85 0.0 10.8 0.0 9.25 L0.1 8.95 1.4 8.95 Q1.6 10.15 6.5 11.0 L18.25 11.85 30.0 11.0 Q34.9 10.15 35.05 8.95" fill="#ffffff" fill-rule="evenodd" stroke="none"/>
      <path d="M31.25 14.7 L30.05 15.75 29.25 16.0 28.65 16.35 Q28.6 14.8 28.7 13.75 L28.8 12.55 30.25 11.55 30.45 11.5 31.25 14.7" fill="#ffdc57" fill-rule="evenodd" stroke="none"/>
      <path d="M32.05 15.65 L30.15 15.7 Q30.0 15.5 30.2 13.45 L30.45 11.45 32.6 13.95 33.8 15.6 32.05 15.65" fill="#ffcf1c" fill-rule="evenodd" stroke="none"/>
      <path d="M18.0 17.0 Q24.3 17.45 29.4 16.85 34.35 16.25 36.25 14.85 34.95 18.55 29.7 20.65 24.4 22.75 17.65 22.3 11.1 21.85 6.25 19.05 1.4 16.3 0.45 12.55 2.3 14.15 7.05 15.4 11.9 16.55 18.0 17.0" fill="url(#gradient8)" fill-rule="evenodd" stroke="none"/>
      <path d="M35.1 14.35 L36.25 14.45 36.25 14.8 Q36.15 16.3 30.9 17.0 25.5 17.7 18.05 17.2 10.65 16.7 5.5 15.2 0.25 13.8 0.35 12.3 L0.5 11.95 1.8 12.05 Q1.9 13.25 6.7 14.45 11.45 15.6 18.25 16.05 25.05 16.55 29.95 16.05 34.8 15.55 35.1 14.35" fill="#ffffff" fill-rule="evenodd" stroke="none"/>
      <path d="M14.2 17.25 L13.55 15.85 14.15 15.85 15.65 15.8 18.25 15.5 19.65 15.9 20.15 16.0 Q17.8 17.05 17.0 17.55 L15.3 17.6 14.25 17.3 14.2 17.25" fill="#ffdc57" fill-rule="evenodd" stroke="none"/>
      <path d="M13.65 16.65 L13.55 15.85 14.2 16.1 15.25 16.35 16.65 17.15 16.5 20.1 16.2 20.1 14.45 19.3 14.05 18.15 13.65 16.65" fill="#db9d00" fill-rule="evenodd" stroke="none"/>
      <path d="M20.25 15.9 Q19.1 16.75 18.35 17.85 L16.5 20.15 15.8 18.4 15.3 16.6 15.25 16.3 17.4 16.3 20.25 15.9" fill="#ffcf1c" fill-rule="evenodd" stroke="none"/>
      <path d="M19.3 20.3 Q25.65 19.85 30.7 18.6 35.55 17.25 37.3 15.65 36.45 19.45 31.55 22.3 26.55 25.15 19.75 25.55 13.05 26.0 7.8 23.9 2.6 21.75 1.15 18.2 3.2 19.5 8.15 20.1 13.15 20.7 19.3 20.3" fill="url(#gradient9)" fill-rule="evenodd" stroke="none"/>
      <path d="M36.05 15.3 L37.25 15.25 37.25 15.55 Q37.35 17.1 32.2 18.55 26.95 19.95 19.4 20.4 11.9 20.9 6.55 20.2 1.15 19.45 1.05 17.9 L1.1 17.6 2.45 17.5 Q2.7 18.7 7.65 19.25 12.6 19.75 19.45 19.3 26.3 18.85 31.15 17.7 36.0 16.55 36.05 15.3" fill="#ffffff" fill-rule="evenodd" stroke="none"/>
      <path d="M34.6 18.7 L35.65 18.85 34.6 20.05 32.85 20.2 31.75 19.15 34.6 18.7" fill="#ffdc57" fill-rule="evenodd" stroke="none"/>
      <path d="M31.75 19.15 L33.25 19.2 34.0 20.45 Q33.75 22.55 33.5 22.6 L32.55 22.45 31.8 22.2 31.9 21.35 31.8 19.9 31.75 19.15" fill="#ffcf1c" fill-rule="evenodd" stroke="none"/>
      <path d="M35.65 18.85 L35.95 21.5 34.6 22.3 33.5 22.6 33.25 20.15 33.25 19.2 34.0 19.05 35.1 18.85 35.65 18.85" fill="#db9d00" fill-rule="evenodd" stroke="none"/>
      <path d="M19.1 24.15 Q25.5 24.15 30.55 23.15 35.5 22.25 37.3 20.7 36.25 24.45 31.15 26.95 26.0 29.45 19.2 29.45 12.5 29.45 7.35 27.0 2.35 24.6 1.15 20.9 3.1 22.35 7.95 23.25 L19.1 24.15" fill="url(#gradient10)" fill-rule="evenodd" stroke="none"/>
      <path d="M36.1 20.3 L37.3 20.3 37.35 20.6 Q37.35 22.15 32.05 23.2 L19.2 24.3 Q11.7 24.3 6.4 23.2 1.05 22.15 1.05 20.6 L1.15 20.3 2.45 20.3 Q2.65 21.5 7.55 22.35 L19.3 23.2 31.05 22.35 Q35.95 21.5 36.1 20.3" fill="#ffffff" fill-rule="evenodd" stroke="none"/>
    </g>
    <linearGradient gradientTransform="matrix(-0.0268, 0.0, 0.0, 0.0268, 21.75, 20.6)" gradientUnits="userSpaceOnUse" id="gradient0" spreadMethod="pad" x1="-819.2" x2="819.2">
      <stop offset="0.0" stop-color="#ffffff"/>
      <stop offset="1.0" stop-color="#a9cad1"/>
    </linearGradient>
    <linearGradient gradientTransform="matrix(0.0221, 0.0, 0.0, -0.0221, 19.2, 25.1)" gradientUnits="userSpaceOnUse" id="gradient1" spreadMethod="pad" x1="-819.2" x2="819.2">
      <stop offset="0.0" stop-color="#ffffff"/>
      <stop offset="1.0" stop-color="#a9cad1"/>
    </linearGradient>
    <linearGradient gradientTransform="matrix(-0.0267, 0.0017, 0.0017, 0.0267, 21.7, 16.55)" gradientUnits="userSpaceOnUse" id="gradient2" spreadMethod="pad" x1="-819.2" x2="819.2">
      <stop offset="0.0" stop-color="#ffffff"/>
      <stop offset="1.0" stop-color="#a9cad1"/>
    </linearGradient>
    <linearGradient gradientTransform="matrix(0.022, -0.0014, -0.0014, -0.022, 19.5, 21.2)" gradientUnits="userSpaceOnUse" id="gradient3" spreadMethod="pad" x1="-819.2" x2="819.2">
      <stop offset="0.0" stop-color="#ffffff"/>
      <stop offset="1.0" stop-color="#a9cad1"/>
    </linearGradient>
    <linearGradient gradientTransform="matrix(-0.0265, -0.0018, -0.0018, 0.0265, 20.85, 13.75)" gradientUnits="userSpaceOnUse" id="gradient4" spreadMethod="pad" x1="-819.2" x2="819.2">
      <stop offset="0.0" stop-color="#ffffff"/>
      <stop offset="1.0" stop-color="#a9cad1"/>
    </linearGradient>
    <linearGradient gradientTransform="matrix(0.0219, 0.0015, 0.0015, -0.0219, 18.0, 17.95)" gradientUnits="userSpaceOnUse" id="gradient5" spreadMethod="pad" x1="-819.2" x2="819.2">
      <stop offset="0.0" stop-color="#ffffff"/>
      <stop offset="1.0" stop-color="#a9cad1"/>
    </linearGradient>
    <linearGradient gradientTransform="matrix(-0.0268, 0.0, 0.0, 0.0268, 20.7, 9.25)" gradientUnits="userSpaceOnUse" id="gradient6" spreadMethod="pad" x1="-819.2" x2="819.2">
      <stop offset="0.0" stop-color="#ffffff"/>
      <stop offset="1.0" stop-color="#a9cad1"/>
    </linearGradient>
    <linearGradient gradientTransform="matrix(0.0221, 0.0, 0.0, -0.0221, 18.15, 13.75)" gradientUnits="userSpaceOnUse" id="gradient7" spreadMethod="pad" x1="-819.2" x2="819.2">
      <stop offset="0.0" stop-color="#ffffff"/>
      <stop offset="1.0" stop-color="#a9cad1"/>
    </linearGradient>
    <linearGradient gradientTransform="matrix(0.0219, 0.0015, 0.0015, -0.0219, 18.0, 17.95)" gradientUnits="userSpaceOnUse" id="gradient8" spreadMethod="pad" x1="-819.2" x2="819.2">
      <stop offset="0.0" stop-color="#ffffff"/>
      <stop offset="1.0" stop-color="#a9cad1"/>
    </linearGradient>
    <linearGradient gradientTransform="matrix(0.022, -0.0014, -0.0014, -0.022, 19.5, 21.2)" gradientUnits="userSpaceOnUse" id="gradient9" spreadMethod="pad" x1="-819.2" x2="819.2">
      <stop offset="0.0" stop-color="#ffffff"/>
      <stop offset="1.0" stop-color="#a9cad1"/>
    </linearGradient>
    <linearGradient gradientTransform="matrix(0.0221, 0.0, 0.0, -0.0221, 19.2, 25.1)" gradientUnits="userSpaceOnUse" id="gradient10" spreadMethod="pad" x1="-819.2" x2="819.2">
      <stop offset="0.0" stop-color="#ffffff"/>
      <stop offset="1.0" stop-color="#a9cad1"/>
    </linearGradient>
  </defs>
</svg>
