<?xml version="1.0" encoding="UTF-8" standalone="no"?>
<svg xmlns:xlink="http://www.w3.org/1999/xlink" height="59.35px" width="52.8px" xmlns="http://www.w3.org/2000/svg">
  <g transform="matrix(1.0, 0.0, 0.0, 1.0, 0.0, 0.0)">
    <use height="46.15" transform="matrix(0.9569, 0.0209, -0.023, 1.053, 15.382, 9.5063)" width="24.7" xlink:href="#shape0"/>
    <use height="18.1" transform="matrix(0.9571, 0.0017, -0.0055, 1.0531, 15.0171, 39.1235)" width="24.2" xlink:href="#shape1"/>
    <use height="46.1" transform="matrix(0.9569, 0.0209, -0.023, 1.053, 15.3831, 9.4536)" width="24.75" xlink:href="#shape2"/>
    <use height="9.65" transform="matrix(0.8736, 0.0, 0.0, 1.3127, 22.8138, -4.6172)" width="10.55" xlink:href="#shape3"/>
  </g>
  <defs>
    <g id="shape0" transform="matrix(1.0, 0.0, 0.0, 1.0, 12.35, 19.55)">
      <path d="M5.2 -18.6 Q6.55 -17.75 6.5 -16.9 6.45 -16.0 5.35 -15.3 L5.1 2.4 Q9.6 4.4 11.45 9.0 13.3 13.7 11.45 18.45 9.55 23.3 4.9 25.45 0.2 27.6 -4.6 25.7 -9.35 23.85 -11.35 19.15 -13.3 14.4 -11.45 9.45 -10.45 6.95 -8.55 5.05 -6.7 3.25 -4.35 2.35 L-4.2 -9.7 -4.15 -9.85 -4.05 -15.45 Q-5.15 -16.15 -5.15 -17.15 -5.15 -17.95 -4.0 -18.6 0.45 -20.5 5.2 -18.6" fill="url(#gradient0)" fill-rule="evenodd" stroke="none"/>
    </g>
    <linearGradient gradientTransform="matrix(0.0108, 0.0014, 0.0014, -0.0109, 1.2, 0.5)" gradientUnits="userSpaceOnUse" id="gradient0" spreadMethod="pad" x1="-819.2" x2="819.2">
      <stop offset="0.00784313725490196" stop-color="#d9eaee" stop-opacity="0.54901963"/>
      <stop offset="1.0" stop-color="#93bac2" stop-opacity="0.69803923"/>
    </linearGradient>
    <g id="shape1" transform="matrix(1.0, 0.0, 0.0, 1.0, 11.95, -8.35)">
      <path d="M-0.15 14.65 L7.35 14.2 Q10.65 13.6 12.1 12.4 L12.25 14.9 Q12.0 19.9 8.35 23.2 4.65 26.65 -0.35 26.45 -5.4 26.25 -8.75 22.55 -12.2 18.9 -11.95 13.85 L-11.65 11.75 Q-10.1 12.85 -7.05 13.65 -3.9 14.5 -0.15 14.65" fill="url(#gradient1)" fill-rule="evenodd" stroke="none"/>
      <path d="M12.05 11.95 Q12.0 13.25 8.45 14.0 L-0.05 14.55 Q-4.95 14.3 -8.4 13.25 -11.85 12.2 -11.85 10.95 -11.8 9.65 -8.25 8.95 L0.2 8.4 Q5.15 8.6 8.65 9.7 12.1 10.75 12.05 11.95" fill="url(#gradient2)" fill-rule="evenodd" stroke="none"/>
      <path d="M-11.8 11.0 Q-11.8 12.2 -8.4 13.25 -4.95 14.3 -0.05 14.55 L8.45 14.0 Q11.9 13.2 12.1 12.0 11.95 13.45 9.1 14.25 5.8 15.2 0.1 15.0 -5.65 14.75 -9.0 13.45 -11.85 12.4 -11.8 11.0" fill="#f7e3db" fill-rule="evenodd" stroke="none"/>
      <path d="M2.8 16.95 Q2.8 17.55 2.3 18.05 1.8 18.45 1.05 18.45 0.35 18.45 -0.15 17.95 -0.6 17.4 -0.55 16.8 -0.6 16.1 -0.05 15.65 0.5 15.15 1.2 15.25 1.85 15.3 2.35 15.8 2.9 16.25 2.8 16.95" fill="url(#gradient3)" fill-rule="evenodd" stroke="none"/>
      <path d="M-3.15 19.8 Q-3.1 20.45 -3.65 20.9 L-4.9 21.35 -6.05 20.85 -6.5 19.65 Q-6.45 18.95 -5.95 18.55 -5.4 18.1 -4.7 18.2 -4.0 18.2 -3.55 18.65 -3.05 19.15 -3.15 19.8" fill="url(#gradient4)" fill-rule="evenodd" stroke="none"/>
      <path d="M8.9 17.3 Q8.85 18.2 7.9 18.2 6.9 18.15 6.9 17.15 6.95 16.2 7.9 16.25 9.0 16.35 8.9 17.3" fill="url(#gradient5)" fill-rule="evenodd" stroke="none"/>
    </g>
    <radialGradient cx="0" cy="0" gradientTransform="matrix(0.0079, 0.0183, 0.0183, -0.0079, -2.5, 10.45)" gradientUnits="userSpaceOnUse" id="gradient1" r="819.2" spreadMethod="pad">
      <stop offset="0.0" stop-color="#e5c3a8" stop-opacity="0.6666667"/>
      <stop offset="0.9882352941176471" stop-color="#73411a" stop-opacity="0.84705883"/>
    </radialGradient>
    <radialGradient cx="0" cy="0" gradientTransform="matrix(0.0058, 0.0141, 0.0135, -0.0061, -2.5, 7.75)" gradientUnits="userSpaceOnUse" id="gradient2" r="819.2" spreadMethod="pad">
      <stop offset="0.0" stop-color="#d1bdb8" stop-opacity="0.6666667"/>
      <stop offset="0.9882352941176471" stop-color="#c19d8c" stop-opacity="0.84705883"/>
    </radialGradient>
    <radialGradient cx="0" cy="0" gradientTransform="matrix(6.0E-4, 0.0025, 0.0025, -6.0E-4, 0.9, 16.35)" gradientUnits="userSpaceOnUse" id="gradient3" r="819.2" spreadMethod="pad">
      <stop offset="0.0" stop-color="#ffffff"/>
      <stop offset="0.16470588235294117" stop-color="#efe0da"/>
      <stop offset="0.8588235294117647" stop-color="#73573f" stop-opacity="0.84705883"/>
      <stop offset="1.0" stop-color="#9f8075" stop-opacity="0.84705883"/>
    </radialGradient>
    <radialGradient cx="0" cy="0" gradientTransform="matrix(6.0E-4, 0.0025, 0.0025, -6.0E-4, -5.0, 19.15)" gradientUnits="userSpaceOnUse" id="gradient4" r="819.2" spreadMethod="pad">
      <stop offset="0.0" stop-color="#ffffff"/>
      <stop offset="0.16470588235294117" stop-color="#efe0da"/>
      <stop offset="0.8588235294117647" stop-color="#73573f" stop-opacity="0.84705883"/>
      <stop offset="1.0" stop-color="#9f8075" stop-opacity="0.84705883"/>
    </radialGradient>
    <radialGradient cx="0" cy="0" gradientTransform="matrix(4.0E-4, 0.0015, 0.0015, -4.0E-4, 7.8, 16.9)" gradientUnits="userSpaceOnUse" id="gradient5" r="819.2" spreadMethod="pad">
      <stop offset="0.0" stop-color="#ffffff"/>
      <stop offset="0.16470588235294117" stop-color="#efe0da"/>
      <stop offset="0.8588235294117647" stop-color="#73573f" stop-opacity="0.84705883"/>
      <stop offset="1.0" stop-color="#9f8075" stop-opacity="0.84705883"/>
    </radialGradient>
    <g id="shape2" transform="matrix(1.0, 0.0, 0.0, 1.0, 12.35, 19.6)">
      <path d="M11.35 8.8 Q13.4 13.55 11.5 18.35 9.6 23.2 4.95 25.35 0.25 27.45 -4.5 25.65 -9.25 23.75 -11.3 19.05 -13.3 14.3 -11.45 9.45 -9.55 4.6 -4.85 2.5 -0.15 0.35 4.6 2.2 9.35 4.1 11.35 8.8" fill="url(#gradient6)" fill-rule="evenodd" stroke="none"/>
      <path d="M11.5 18.35 Q9.6 23.2 4.95 25.35 0.25 27.45 -4.5 25.65 -9.25 23.75 -11.3 19.05 -13.3 14.3 -11.45 9.45 -9.55 4.6 -4.85 2.5 -0.15 0.35 4.6 2.2 9.35 4.1 11.35 8.8 13.4 13.55 11.5 18.35 M11.4 18.15 Q13.25 13.4 11.25 8.75 9.25 4.1 4.6 2.3 -0.1 0.5 -4.7 2.5 -9.25 4.6 -11.1 9.4 -13.0 14.1 -10.95 18.75 -8.95 23.45 -4.35 25.25 0.35 27.0 4.9 24.95 9.5 22.85 11.4 18.15" fill="url(#gradient7)" fill-rule="evenodd" stroke="none"/>
      <path d="M6.8 10.65 Q7.15 12.35 6.95 13.8 7.2 16.25 5.4 18.05 2.0 21.5 -7.8 18.25 -10.65 17.35 -10.95 13.7 -11.2 10.6 -9.6 7.75 -8.9 6.45 -7.45 5.4 -6.35 4.6 -5.85 4.55 -5.7 4.5 -5.6 5.0 -5.1 5.65 -3.25 6.3 L1.15 6.7 3.2 6.35 Q6.1 7.3 6.8 10.65" fill="url(#gradient8)" fill-rule="evenodd" stroke="none"/>
      <path d="M9.3 11.1 Q8.65 8.65 7.0 6.8 L5.4 5.35 Q5.95 4.85 5.05 3.15 L7.2 4.55 Q9.7 6.4 10.6 8.7 11.55 10.95 11.5 13.6 L11.25 15.85 9.25 16.2 9.6 15.15 Q9.8 13.55 9.3 11.1" fill="url(#gradient9)" fill-rule="evenodd" stroke="none"/>
      <path d="M3.75 2.65 Q5.2 3.1 5.15 3.85 5.1 4.55 3.8 5.05 L2.8 5.35 3.65 5.0 Q4.9 4.6 4.95 3.9 4.95 3.2 3.6 2.75 2.25 2.2 0.3 2.15 -1.65 2.15 -3.0 2.65 -4.45 3.05 -4.5 3.8 -4.5 4.45 -3.35 4.95 L-1.95 5.4 -3.4 5.0 Q-4.7 4.45 -4.65 3.75 -4.6 3.05 -3.1 2.55 L0.3 2.05 Q2.3 2.05 3.75 2.65" fill="url(#gradient10)" fill-rule="evenodd" stroke="none"/>
      <path d="M3.5 5.1 L0.2 5.55 Q-1.8 5.55 -3.15 5.0 -4.5 4.5 -4.5 3.8 -4.45 3.05 -3.0 2.65 -1.65 2.15 0.3 2.15 2.25 2.2 3.6 2.75 4.95 3.2 4.95 3.9 4.95 4.6 3.5 5.1" fill="url(#gradient11)" fill-rule="evenodd" stroke="none"/>
      <path d="M4.65 -15.0 Q2.85 -14.2 0.5 -14.3 -1.9 -14.4 -3.6 -15.15 -5.3 -15.95 -5.3 -17.1 -5.2 -18.15 -3.5 -18.9 -1.8 -19.65 0.6 -19.6 3.05 -19.55 4.75 -18.75 6.4 -17.95 6.4 -16.85 6.35 -15.8 4.65 -15.0 M3.85 -16.15 Q5.2 -16.65 5.25 -17.35 5.2 -18.1 3.9 -18.7 L0.6 -19.3 -2.65 -18.8 Q-4.1 -18.3 -4.1 -17.6 -4.1 -16.85 -2.75 -16.25 -1.4 -15.75 0.55 -15.7 L3.85 -16.15" fill="url(#gradient12)" fill-rule="evenodd" stroke="none"/>
      <path d="M0.5 -14.3 L3.6 -14.75 Q4.9 -15.15 5.2 -15.85 L5.05 3.55 5.1 3.9 Q5.1 4.7 3.65 5.25 L0.3 5.8 Q-1.7 5.75 -3.0 5.15 -4.4 4.55 -4.4 3.75 L-4.35 3.4 -4.15 -16.0 Q-3.8 -15.3 -2.55 -14.85 -1.25 -14.3 0.5 -14.3" fill="url(#gradient13)" fill-rule="evenodd" stroke="none"/>
      <path d="M0.45 -14.4 Q3.2 -14.45 4.55 -15.25 L4.4 3.1 Q4.4 3.9 3.15 4.45 L0.3 4.95 Q-1.4 4.95 -2.6 4.35 -3.75 3.8 -3.75 3.0 L-3.65 2.65 -3.5 -15.4 Q-2.15 -14.5 0.45 -14.4" fill="url(#gradient14)" fill-rule="evenodd" stroke="none"/>
      <path d="M0.55 5.55 L1.7 5.6 0.3 5.65 -2.15 5.35 -2.25 5.25 0.55 5.55" fill="url(#gradient15)" fill-rule="evenodd" stroke="none"/>
      <path d="M-4.15 -16.1 L-3.85 -15.65 -3.9 2.0 -3.9 2.2 Q-3.9 3.4 -3.25 4.25 L-3.45 4.4 Q-3.8 4.1 -4.05 4.15 L-4.0 4.4 -3.7 4.65 -3.7 4.75 Q-4.45 4.15 -4.45 3.65 L-4.35 3.35 -4.15 -16.1" fill="url(#gradient16)" fill-rule="evenodd" stroke="none"/>
      <path d="M4.8 -14.75 L4.75 -15.1 4.15 -14.95 4.2 -15.05 5.2 -15.95 5.05 3.4 5.1 3.8 4.55 4.65 4.1 4.35 4.5 3.55 4.7 2.95 4.8 -14.75" fill="url(#gradient17)" fill-rule="evenodd" stroke="none"/>
      <path d="M-2.9 -15.0 L-1.4 -14.6 -1.6 4.8 -1.7 5.0 -1.6 5.1 -1.6 5.15 -2.2 4.85 -2.35 4.85 -2.25 5.25 -3.7 4.65 -3.45 4.4 -2.75 4.75 -3.25 4.25 -3.05 4.2 -2.9 -15.0" fill="url(#gradient18)" fill-rule="evenodd" stroke="none"/>
      <path d="M-3.45 4.4 L-3.25 4.25 -2.75 4.75 -3.45 4.4" fill="url(#gradient19)" fill-rule="evenodd" stroke="none"/>
      <path d="M-3.45 4.4 L-3.25 4.25 -2.75 4.75 -3.45 4.4" fill="url(#gradient20)" fill-rule="evenodd" stroke="none"/>
      <path d="M4.1 -14.9 L4.15 -14.95 4.0 4.25 4.1 4.35 3.5 4.85 4.2 4.85 3.05 5.35 3.2 4.95 3.05 4.9 2.4 5.15 2.65 -14.6 3.2 -14.7 4.1 -14.9" fill="url(#gradient21)" fill-rule="evenodd" stroke="none"/>
      <path d="M4.15 -14.95 L4.1 -14.9 3.2 -14.7 4.2 -15.05 4.15 -14.95" fill="url(#gradient22)" fill-rule="evenodd" stroke="none"/>
      <path d="M4.15 -14.95 L4.1 -14.9 3.2 -14.7 4.2 -15.05 4.15 -14.95" fill="url(#gradient23)" fill-rule="evenodd" stroke="none"/>
      <path d="M3.5 4.85 L4.1 4.35 4.55 4.65 4.2 4.85 3.5 4.85" fill="url(#gradient24)" fill-rule="evenodd" stroke="none"/>
      <path d="M3.5 4.85 L4.1 4.35 4.55 4.65 4.2 4.85 3.5 4.85" fill="url(#gradient25)" fill-rule="evenodd" stroke="none"/>
      <path d="M-0.5 5.25 L-1.6 5.1 -1.7 5.0 -1.6 4.8 -0.9 4.9 Q0.05 5.2 -0.5 5.25" fill="#ffffff" fill-rule="evenodd" stroke="none"/>
      <path d="M0.35 5.3 L0.05 5.35 -0.05 5.2 0.2 5.05 Q0.5 5.1 0.35 5.3" fill="#ffffff" fill-rule="evenodd" stroke="none"/>
      <path d="M3.85 -16.15 L0.55 -15.7 Q-1.4 -15.75 -2.75 -16.25 -4.1 -16.85 -4.1 -17.6 -4.1 -18.3 -2.65 -18.8 L0.6 -19.3 3.9 -18.7 Q5.2 -18.1 5.25 -17.35 5.2 -16.65 3.85 -16.15" fill="url(#gradient26)" fill-rule="evenodd" stroke="none"/>
      <path d="M4.65 -15.0 Q2.85 -14.2 0.5 -14.3 -1.9 -14.4 -3.6 -15.15 -5.3 -15.95 -5.3 -17.1 -5.2 -18.15 -3.5 -18.9 -1.8 -19.65 0.6 -19.6 3.05 -19.55 4.75 -18.75 6.4 -17.95 6.4 -16.85 6.35 -15.8 4.65 -15.0 M6.0 -17.05 Q6.05 -17.95 4.5 -18.7 2.85 -19.4 0.6 -19.45 -1.7 -19.5 -3.35 -18.8 -4.9 -18.2 -5.0 -17.2 -4.95 -16.25 -3.4 -15.5 -1.8 -14.8 0.5 -14.85 2.75 -14.7 4.4 -15.45 6.0 -16.1 6.0 -17.05" fill="url(#gradient27)" fill-rule="evenodd" stroke="none"/>
      <path d="M3.85 -16.15 L0.55 -15.7 Q-1.4 -15.75 -2.75 -16.25 -4.1 -16.85 -4.1 -17.6 -4.1 -18.3 -2.65 -18.8 L-2.2 -18.9 -2.5 -18.8 Q-3.8 -18.35 -3.8 -17.65 -3.85 -16.9 -2.55 -16.4 -1.3 -15.85 0.6 -15.85 L3.7 -16.25 Q5.0 -16.75 5.0 -17.45 5.05 -18.1 4.0 -18.65 5.25 -18.05 5.25 -17.35 5.2 -16.65 3.85 -16.15" fill="url(#gradient28)" fill-rule="evenodd" stroke="none"/>
      <path d="M5.25 -17.35 Q5.2 -16.65 3.85 -16.15 L0.55 -15.7 Q-1.4 -15.75 -2.75 -16.25 -4.1 -16.85 -4.1 -17.6 -4.1 -18.3 -2.65 -18.8 L-1.8 -19.05 -2.5 -18.85 Q-3.75 -18.4 -3.75 -17.7 -3.8 -16.95 -2.55 -16.4 L0.5 -15.95 3.65 -16.35 Q4.95 -16.85 4.9 -17.5 4.95 -18.25 3.75 -18.75 L3.25 -18.9 3.9 -18.7 Q5.2 -18.1 5.25 -17.35" fill="url(#gradient29)" fill-rule="evenodd" stroke="none"/>
      <path d="M3.9 12.85 L4.55 12.0 3.15 11.05 2.7 11.35 Q0.9 10.0 -1.55 10.1 -2.8 10.15 -4.15 10.85 -5.1 11.4 -5.6 12.15 L-5.75 12.2 -7.6 12.15 -7.7 12.2 Q-7.2 10.5 -5.25 9.4 -3.45 8.35 -1.65 8.35 2.1 8.25 4.55 10.7 5.95 12.2 6.4 13.8 5.45 13.25 4.2 13.25 L3.9 12.85 M-5.65 16.85 L-6.15 17.15 -4.8 19.05 -4.3 18.8 Q-3.1 19.85 -1.2 19.9 1.5 20.05 3.15 18.15 L4.35 16.4 5.8 15.15 6.5 14.15 6.55 14.9 Q6.7 17.05 4.6 19.15 2.4 21.7 -1.15 21.6 -4.9 21.45 -6.7 18.65 -8.45 16.15 -7.95 13.15 L-7.85 13.1 -7.25 14.15 -6.1 15.45 -5.65 16.85" fill="url(#gradient30)" fill-rule="evenodd" stroke="none"/>
      <path d="M2.7 11.35 L3.15 11.05 4.55 12.0 3.9 12.85 3.45 13.25 -2.0 17.2 Q-3.15 17.85 -4.3 18.8 L-4.8 19.05 -6.15 17.15 -5.65 16.85 -4.65 16.15 0.05 13.1 2.7 11.35" fill="url(#gradient31)" fill-rule="evenodd" stroke="none"/>
      <path d="M1.65 7.45 L7.45 6.75 8.2 9.0 9.15 13.4 Q9.4 16.2 8.4 21.45 L6.55 22.3 -1.0 22.85 Q-4.4 22.65 -6.85 21.7 L-8.55 20.55 Q-10.05 19.3 -10.6 16.65 -11.05 13.05 -9.75 9.1 L-8.3 5.95 Q-4.85 7.75 1.65 7.45 M3.9 12.85 L4.2 13.25 3.7 13.3 3.45 13.25 3.9 12.85 M6.4 13.8 Q5.95 12.2 4.55 10.7 2.1 8.25 -1.65 8.35 -3.45 8.35 -5.25 9.4 -7.2 10.5 -7.7 12.2 L-8.15 12.6 -7.85 13.1 -7.95 13.15 Q-8.45 16.15 -6.7 18.65 -4.9 21.45 -1.15 21.6 2.4 21.7 4.6 19.15 6.7 17.05 6.55 14.9 L6.5 14.15 6.65 13.9 6.4 13.8 M-5.6 12.15 Q-5.1 11.4 -4.15 10.85 -2.8 10.15 -1.55 10.1 0.9 10.0 2.7 11.35 L0.05 13.1 Q0.05 12.7 -0.2 12.4 L-1.45 12.35 Q-2.15 12.7 -2.15 13.55 -3.85 12.6 -5.6 12.15 M-4.65 16.15 L-5.65 16.85 -6.1 15.45 -5.0 16.1 -4.65 16.15 M-4.3 18.8 Q-3.15 17.85 -2.0 17.2 L-2.35 17.8 -2.6 18.05 -2.05 18.35 -0.95 18.55 0.1 18.5 -0.15 17.8 -0.3 16.5 0.5 16.85 3.2 16.8 4.35 16.4 3.15 18.15 Q1.5 20.05 -1.2 19.9 -3.1 19.85 -4.3 18.8" fill="url(#gradient32)" fill-rule="evenodd" stroke="none"/>
      <path d="M4.2 13.25 Q5.45 13.25 6.4 13.8 L6.65 13.9 6.5 14.15 5.8 15.15 4.35 16.4 3.2 16.8 0.5 16.85 -0.3 16.5 -0.15 17.8 0.1 18.5 -0.95 18.55 -2.05 18.35 -2.6 18.05 -2.35 17.8 -2.0 17.2 3.45 13.25 3.7 13.3 4.2 13.25 M-7.7 12.2 L-7.6 12.15 -5.75 12.2 -5.6 12.15 Q-3.85 12.6 -2.15 13.55 -2.15 12.7 -1.45 12.35 L-0.2 12.4 Q0.05 12.7 0.05 13.1 L-4.65 16.15 -5.0 16.1 -6.1 15.45 -7.25 14.15 -7.85 13.1 -8.15 12.6 -7.7 12.2" fill="url(#gradient33)" fill-rule="evenodd" stroke="none"/>
    </g>
    <radialGradient cx="0" cy="0" gradientTransform="matrix(0.0027, 0.019, 0.0174, -0.0025, -0.4, 10.05)" gradientUnits="userSpaceOnUse" id="gradient6" r="819.2" spreadMethod="pad">
      <stop offset="0.0" stop-color="#ffffff" stop-opacity="0.47843137"/>
      <stop offset="0.7098039215686275" stop-color="#ffffff" stop-opacity="0.08235294"/>
      <stop offset="0.8666666666666667" stop-color="#ffffff" stop-opacity="0.2"/>
      <stop offset="1.0" stop-color="#ffffff" stop-opacity="0.02745098"/>
    </radialGradient>
    <radialGradient cx="0" cy="0" gradientTransform="matrix(0.0201, -0.0174, -0.0174, -0.0201, -8.1, 20.15)" gradientUnits="userSpaceOnUse" id="gradient7" r="819.2" spreadMethod="pad">
      <stop offset="0.0" stop-color="#ffffff" stop-opacity="0.9490196"/>
      <stop offset="1.0" stop-color="#8a9b9e"/>
    </radialGradient>
    <radialGradient cx="0" cy="0" gradientTransform="matrix(0.0028, 0.0134, 0.0152, -0.0026, -0.5, 5.15)" gradientUnits="userSpaceOnUse" id="gradient8" r="819.2" spreadMethod="pad">
      <stop offset="0.0" stop-color="#ffffff" stop-opacity="0.5882353"/>
      <stop offset="1.0" stop-color="#ffffff" stop-opacity="0.0"/>
    </radialGradient>
    <radialGradient cx="0" cy="0" gradientTransform="matrix(0.0018, 0.0088, 0.0098, -0.002, 8.95, 4.9)" gradientUnits="userSpaceOnUse" id="gradient9" r="819.2" spreadMethod="pad">
      <stop offset="0.0" stop-color="#ffffff" stop-opacity="0.61960787"/>
      <stop offset="1.0" stop-color="#ffffff" stop-opacity="0.02745098"/>
    </radialGradient>
    <linearGradient gradientTransform="matrix(0.0052, 0.002, 0.002, -0.0052, 0.25, 3.8)" gradientUnits="userSpaceOnUse" id="gradient10" spreadMethod="pad" x1="-819.2" x2="819.2">
      <stop offset="0.0" stop-color="#ffffff" stop-opacity="0.9490196"/>
      <stop offset="1.0" stop-color="#abd9db"/>
    </linearGradient>
    <linearGradient gradientTransform="matrix(0.0049, 0.0011, 0.0011, -0.0049, 0.45, 3.9)" gradientUnits="userSpaceOnUse" id="gradient11" spreadMethod="pad" x1="-819.2" x2="819.2">
      <stop offset="0.0" stop-color="#000000" stop-opacity="0.24705882"/>
      <stop offset="1.0" stop-color="#000000" stop-opacity="0.02745098"/>
    </linearGradient>
    <linearGradient gradientTransform="matrix(-9.0E-4, -0.0035, -0.0035, 9.0E-4, 0.5, -16.95)" gradientUnits="userSpaceOnUse" id="gradient12" spreadMethod="pad" x1="-819.2" x2="819.2">
      <stop offset="0.0" stop-color="#ffffff" stop-opacity="0.21960784"/>
      <stop offset="1.0" stop-color="#ffffff" stop-opacity="0.02745098"/>
    </linearGradient>
    <linearGradient gradientTransform="matrix(0.0059, 1.0E-4, 3.0E-4, -0.0117, 0.45, -5.1)" gradientUnits="userSpaceOnUse" id="gradient13" spreadMethod="pad" x1="-819.2" x2="819.2">
      <stop offset="0.0" stop-color="#ffffff" stop-opacity="0.21960784"/>
      <stop offset="1.0" stop-color="#ffffff" stop-opacity="0.02745098"/>
    </linearGradient>
    <linearGradient gradientTransform="matrix(0.0051, 1.0E-4, 2.0E-4, -0.0101, 0.45, -5.2)" gradientUnits="userSpaceOnUse" id="gradient14" spreadMethod="pad" x1="-819.2" x2="819.2">
      <stop offset="0.0" stop-color="#ffffff" stop-opacity="0.21960784"/>
      <stop offset="1.0" stop-color="#ffffff" stop-opacity="0.02745098"/>
    </linearGradient>
    <linearGradient gradientTransform="matrix(0.0058, 1.0E-4, 3.0E-4, -0.0115, 0.3, 5.45)" gradientUnits="userSpaceOnUse" id="gradient15" spreadMethod="pad" x1="-819.2" x2="819.2">
      <stop offset="0.0" stop-color="#ffffff" stop-opacity="0.9490196"/>
      <stop offset="1.0" stop-color="#abd9db"/>
    </linearGradient>
    <linearGradient gradientTransform="matrix(0.0067, 2.0E-4, 3.0E-4, -0.0132, 1.1, -5.55)" gradientUnits="userSpaceOnUse" id="gradient16" spreadMethod="pad" x1="-819.2" x2="819.2">
      <stop offset="0.0" stop-color="#b7c6c7" stop-opacity="0.9490196"/>
      <stop offset="1.0" stop-color="#95bdbf"/>
    </linearGradient>
    <linearGradient gradientTransform="matrix(0.0056, 0.0, 0.0, -0.0056, -0.1, -5.6)" gradientUnits="userSpaceOnUse" id="gradient17" spreadMethod="pad" x1="-819.2" x2="819.2">
      <stop offset="0.0" stop-color="#ffffff" stop-opacity="0.9490196"/>
      <stop offset="1.0" stop-color="#9aafb8"/>
    </linearGradient>
    <linearGradient gradientTransform="matrix(-1.0E-4, 0.0056, 0.011, 3.0E-4, -2.4, -5.7)" gradientUnits="userSpaceOnUse" id="gradient18" spreadMethod="pad" x1="-819.2" x2="819.2">
      <stop offset="0.0" stop-color="#ffffff" stop-opacity="0.41960785"/>
      <stop offset="1.0" stop-color="#ffffff" stop-opacity="0.02745098"/>
    </linearGradient>
    <linearGradient gradientTransform="matrix(0.0058, 1.0E-4, 3.0E-4, -0.0114, 0.3, 4.6)" gradientUnits="userSpaceOnUse" id="gradient19" spreadMethod="pad" x1="-819.2" x2="819.2">
      <stop offset="0.0" stop-color="#ffffff" stop-opacity="0.9490196"/>
      <stop offset="1.0" stop-color="#abd9db"/>
    </linearGradient>
    <linearGradient gradientTransform="matrix(-1.0E-4, 0.0024, 0.0047, 1.0E-4, -3.0, 0.55)" gradientUnits="userSpaceOnUse" id="gradient20" spreadMethod="pad" x1="-819.2" x2="819.2">
      <stop offset="0.0" stop-color="#ffffff" stop-opacity="0.41960785"/>
      <stop offset="1.0" stop-color="#ffffff" stop-opacity="0.02745098"/>
    </linearGradient>
    <linearGradient gradientTransform="matrix(1.0E-4, -0.0056, 0.011, 3.0E-4, 3.45, -5.7)" gradientUnits="userSpaceOnUse" id="gradient21" spreadMethod="pad" x1="-819.2" x2="819.2">
      <stop offset="0.0" stop-color="#ffffff" stop-opacity="0.13725491"/>
      <stop offset="1.0" stop-color="#ffffff" stop-opacity="0.02745098"/>
    </linearGradient>
    <linearGradient gradientTransform="matrix(0.0062, 2.0E-4, 3.0E-4, -0.0123, 0.6, -14.95)" gradientUnits="userSpaceOnUse" id="gradient22" spreadMethod="pad" x1="-819.2" x2="819.2">
      <stop offset="0.0" stop-color="#ffffff"/>
      <stop offset="1.0" stop-color="#abd9db"/>
    </linearGradient>
    <linearGradient gradientTransform="matrix(1.0E-4, -0.0024, 0.0048, 1.0E-4, 3.6, -10.85)" gradientUnits="userSpaceOnUse" id="gradient23" spreadMethod="pad" x1="-819.2" x2="819.2">
      <stop offset="0.0" stop-color="#ffffff" stop-opacity="0.13725491"/>
      <stop offset="1.0" stop-color="#ffffff" stop-opacity="0.02745098"/>
    </linearGradient>
    <linearGradient gradientTransform="matrix(0.0062, 1.0E-4, 3.0E-4, -0.0122, 0.45, 4.55)" gradientUnits="userSpaceOnUse" id="gradient24" spreadMethod="pad" x1="-819.2" x2="819.2">
      <stop offset="0.0" stop-color="#ffffff"/>
      <stop offset="1.0" stop-color="#abd9db"/>
    </linearGradient>
    <linearGradient gradientTransform="matrix(0.0, -0.0024, 0.0047, 1.0E-4, 4.1, 0.6)" gradientUnits="userSpaceOnUse" id="gradient25" spreadMethod="pad" x1="-819.2" x2="819.2">
      <stop offset="0.0" stop-color="#ffffff" stop-opacity="0.13725491"/>
      <stop offset="1.0" stop-color="#ffffff" stop-opacity="0.02745098"/>
    </linearGradient>
    <linearGradient gradientTransform="matrix(0.0057, 1.0E-4, 2.0E-4, -0.0106, 0.55, -17.5)" gradientUnits="userSpaceOnUse" id="gradient26" spreadMethod="pad" x1="-819.2" x2="819.2">
      <stop offset="0.0" stop-color="#000000" stop-opacity="0.08627451"/>
      <stop offset="1.0" stop-color="#bcd9db" stop-opacity="0.41960785"/>
    </linearGradient>
    <linearGradient gradientTransform="matrix(-9.0E-4, -0.0035, -0.0035, 9.0E-4, 0.5, -16.95)" gradientUnits="userSpaceOnUse" id="gradient27" spreadMethod="pad" x1="-819.2" x2="819.2">
      <stop offset="0.0" stop-color="#ffffff" stop-opacity="0.9490196"/>
      <stop offset="1.0" stop-color="#9aafb8"/>
    </linearGradient>
    <linearGradient gradientTransform="matrix(0.005, 0.002, 0.002, -0.005, 0.55, -17.5)" gradientUnits="userSpaceOnUse" id="gradient28" spreadMethod="pad" x1="-819.2" x2="819.2">
      <stop offset="0.0" stop-color="#ffffff" stop-opacity="0.9490196"/>
      <stop offset="1.0" stop-color="#abd9db"/>
    </linearGradient>
    <linearGradient gradientTransform="matrix(0.0057, 1.0E-4, 2.0E-4, -0.0106, 0.55, -17.5)" gradientUnits="userSpaceOnUse" id="gradient29" spreadMethod="pad" x1="-819.2" x2="819.2">
      <stop offset="0.0" stop-color="#ffffff" stop-opacity="0.9490196"/>
      <stop offset="1.0" stop-color="#9aafb8"/>
    </linearGradient>
    <radialGradient cx="0" cy="0" gradientTransform="matrix(0.0065, 0.0145, 0.0145, -0.0065, -3.35, 8.65)" gradientUnits="userSpaceOnUse" id="gradient30" r="819.2" spreadMethod="pad">
      <stop offset="0.0" stop-color="#c47a61"/>
      <stop offset="0.1803921568627451" stop-color="#b37055"/>
      <stop offset="0.49411764705882355" stop-color="#9c6043"/>
      <stop offset="0.7803921568627451" stop-color="#8d5738"/>
      <stop offset="1.0" stop-color="#885434"/>
    </radialGradient>
    <radialGradient cx="0" cy="0" gradientTransform="matrix(0.0063, 0.0149, 0.0139, -0.0066, -3.35, 8.65)" gradientUnits="userSpaceOnUse" id="gradient31" r="819.2" spreadMethod="pad">
      <stop offset="0.0" stop-color="#c47a61"/>
      <stop offset="0.1803921568627451" stop-color="#b37055"/>
      <stop offset="0.49411764705882355" stop-color="#9c6043"/>
      <stop offset="0.7803921568627451" stop-color="#8d5738"/>
      <stop offset="1.0" stop-color="#885434"/>
    </radialGradient>
    <radialGradient cx="0" cy="0" gradientTransform="matrix(0.0069, 0.023, 0.0234, -0.0068, -3.6, 8.65)" gradientUnits="userSpaceOnUse" id="gradient32" r="819.2" spreadMethod="pad">
      <stop offset="0.0" stop-color="#fbf5e2"/>
      <stop offset="0.07058823529411765" stop-color="#f6f0db"/>
      <stop offset="0.43137254901960786" stop-color="#e3dcc1"/>
      <stop offset="0.7490196078431373" stop-color="#d7d0b1"/>
      <stop offset="1.0" stop-color="#d3ccac"/>
    </radialGradient>
    <radialGradient cx="0" cy="0" gradientTransform="matrix(0.0048, 0.0116, 0.0108, -0.005, -3.9, 12.15)" gradientUnits="userSpaceOnUse" id="gradient33" r="819.2" spreadMethod="pad">
      <stop offset="0.0" stop-color="#5b4768"/>
      <stop offset="0.27058823529411763" stop-color="#4f3e5a"/>
      <stop offset="0.6784313725490196" stop-color="#42354a"/>
      <stop offset="1.0" stop-color="#3d3145"/>
    </radialGradient>
    <g id="shape3" transform="matrix(1.0, 0.0, 0.0, 1.0, 5.25, 9.65)">
      <path d="M3.05 -7.0 L3.0 -7.0 2.4 -7.2 2.15 -7.8 2.0 -7.65 1.9 -7.4 1.65 -7.2 0.4 -7.25 -1.8 -7.25 -2.7 -7.5 Q-3.05 -7.5 -3.8 -7.85 -4.45 -7.9 -4.75 -8.2 L-5.25 -8.4 -4.4 -8.85 -0.95 -9.6 2.9 -9.4 Q2.75 -9.25 3.0 -9.1 L4.25 -9.05 3.7 -9.2 5.3 -8.7 4.6 -7.8 4.2 -7.65 3.65 -7.8 2.85 -7.95 2.55 -7.9 2.6 -7.6 2.8 -7.35 2.9 -7.25 3.05 -7.05 3.15 -6.95 3.05 -7.0 M4.2 -8.6 Q4.65 -8.5 4.85 -8.75 L4.2 -8.8 4.2 -8.6 M-1.2 -9.1 L-1.65 -9.05 Q-3.1 -9.0 -3.1 -8.55 -2.65 -8.4 -1.7 -8.55 L-1.1 -8.65 Q-0.95 -8.75 -0.95 -8.95 L-1.2 -9.1 M-0.25 -7.95 Q0.3 -7.95 0.4 -8.25 L-0.1 -8.4 -0.7 -8.4 -1.05 -8.0 -0.25 -7.95" fill="#a78a56" fill-rule="evenodd" stroke="none"/>
      <path d="M3.1 -6.95 L3.05 -7.0 3.15 -6.95 3.1 -6.95 M3.0 -7.0 L-2.45 -7.05 -4.2 -7.65 -5.25 -8.4 -4.75 -8.2 Q-4.45 -7.9 -3.8 -7.85 -3.05 -7.5 -2.7 -7.5 L-1.8 -7.25 0.4 -7.25 1.65 -7.2 1.9 -7.4 2.0 -7.65 2.15 -7.8 2.4 -7.2 3.0 -7.0" fill="#cba769" fill-rule="evenodd" stroke="none"/>
      <path d="M-4.5 -2.1 L-4.2 -1.8 -3.3 -1.75 -2.9 -1.45 -2.7 -1.1 -2.5 -0.95 -2.3 -0.9 -0.9 -0.65 Q-0.6 -0.7 -0.2 -0.95 L0.45 -1.15 0.6 -1.25 0.85 -1.3 1.1 -1.6 1.45 -1.45 1.95 -1.35 Q2.2 -1.5 2.15 -1.9 L2.1 -2.35 2.3 -2.7 2.6 -3.25 2.45 -3.6 2.85 -4.25 3.25 -4.9 3.05 -5.45 2.65 -5.75 2.15 -6.3 0.2 -6.9 1.7 -6.9 2.7 -6.8 Q2.7 -6.45 3.25 -6.4 L3.95 -6.5 4.35 -7.65 4.45 -7.7 4.55 -7.1 4.45 -6.3 4.4 -5.25 4.25 -4.75 4.05 -4.45 3.95 -3.45 4.05 -2.6 Q4.15 -2.0 3.7 -1.85 L3.4 -1.65 3.2 -1.35 2.4 -1.05 1.75 -0.6 -0.1 -0.4 -1.55 -0.4 -2.25 -0.55 -3.0 -0.9 -3.75 -1.05 -4.4 -1.3 -4.45 -1.35 -4.5 -2.1 M3.3 -4.2 L3.0 -4.15 Q2.7 -4.1 2.7 -3.75 2.65 -3.45 2.95 -3.3 3.3 -3.2 3.35 -3.55 L3.3 -4.2" fill="#735e39" fill-rule="evenodd" stroke="none"/>
      <path d="M4.35 -7.65 L3.95 -6.5 3.25 -6.4 Q2.7 -6.45 2.7 -6.8 L1.7 -6.9 0.2 -6.9 2.15 -6.3 2.65 -5.75 3.05 -5.45 3.25 -4.9 2.85 -4.25 2.45 -3.6 2.6 -3.25 2.3 -2.7 2.1 -2.35 2.15 -1.9 Q2.2 -1.5 1.95 -1.35 L1.45 -1.45 1.1 -1.6 0.85 -1.3 0.6 -1.25 0.45 -1.15 -0.2 -0.95 Q-0.6 -0.7 -0.9 -0.65 L-2.3 -0.9 -2.5 -0.95 -2.7 -1.1 -2.9 -1.45 -3.3 -1.75 -4.2 -1.8 -4.5 -2.1 -4.55 -3.2 -4.35 -2.85 Q-4.0 -2.4 -3.6 -2.5 -3.4 -2.6 -3.35 -2.85 -2.9 -2.2 -2.3 -2.05 L-1.65 -2.0 Q-1.35 -1.9 -1.35 -1.55 L-0.85 -1.65 -0.65 -2.2 0.0 -2.15 Q-0.05 -2.7 0.55 -2.85 L0.9 -2.95 1.05 -3.25 1.0 -4.05 0.75 -4.35 Q0.6 -4.5 0.5 -4.25 L-0.05 -4.75 -0.3 -5.55 Q-0.8 -6.15 -1.65 -6.5 -2.1 -6.75 -2.35 -6.95 L-2.5 -7.05 -2.45 -7.05 3.0 -7.0 3.05 -7.0 3.1 -6.95 3.3 -6.65 Q3.4 -6.4 3.75 -6.5 4.15 -6.55 4.15 -7.4 L4.15 -7.65 4.2 -7.65 4.35 -7.65 M1.85 -5.25 Q1.95 -5.85 1.65 -6.1 L1.4 -6.05 Q1.1 -6.05 1.15 -5.5 1.25 -4.95 1.55 -4.9 1.85 -4.9 1.85 -5.25 M1.55 -3.5 L1.4 -3.65 1.35 -3.0 1.65 -3.0 1.55 -3.5 M0.3 -1.75 L0.1 -1.95 Q-0.2 -1.4 0.0 -1.3 0.4 -1.05 0.55 -1.55 L0.3 -1.75" fill="#8b7347" fill-rule="evenodd" stroke="none"/>
      <path d="M4.2 -8.6 L4.2 -8.8 4.85 -8.75 Q4.65 -8.5 4.2 -8.6" fill="url(#gradient34)" fill-rule="evenodd" stroke="none"/>
      <path d="M4.45 -7.7 L4.35 -7.65 4.2 -7.65 4.15 -7.65 3.65 -7.8 4.2 -7.65 4.6 -7.8 4.45 -7.7 M-2.45 -7.05 L-2.5 -7.05 -2.35 -6.95 Q-2.1 -6.75 -1.65 -6.5 -0.8 -6.15 -0.3 -5.55 L-0.05 -4.75 0.5 -4.25 Q0.6 -4.5 0.75 -4.35 L1.0 -4.05 1.05 -3.25 0.9 -2.95 0.55 -2.85 Q-0.05 -2.7 0.0 -2.15 L-0.65 -2.2 -0.85 -1.65 -1.35 -1.55 Q-1.35 -1.9 -1.65 -2.0 L-2.3 -2.05 Q-2.9 -2.2 -3.35 -2.85 -3.4 -2.6 -3.6 -2.5 -4.0 -2.4 -4.35 -2.85 L-4.55 -3.2 -4.55 -3.25 -4.55 -3.4 -4.35 -3.45 Q-4.2 -4.05 -4.6 -3.95 L-4.8 -5.4 -5.25 -8.4 -4.2 -7.65 -2.45 -7.05 M2.55 -7.9 L2.6 -7.8 2.6 -7.6 2.55 -7.9 M5.3 -8.7 L4.7 -1.25 4.85 -4.55 4.95 -5.5 5.3 -8.7 M-2.55 -0.25 Q-3.15 -0.4 -3.55 -0.65 L-3.75 -0.8 -2.55 -0.25 M-3.75 -6.6 Q-4.3 -6.55 -4.2 -5.6 L-3.95 -5.0 Q-3.7 -4.75 -3.5 -4.75 L-3.1 -5.1 Q-3.0 -5.4 -3.05 -5.8 L-3.35 -6.4 -3.75 -6.6 M-1.65 -5.55 L-1.9 -5.5 Q-2.75 -5.0 -2.25 -4.1 -1.8 -3.1 -0.95 -3.5 -0.35 -3.7 -0.6 -4.85 -0.7 -5.35 -0.95 -5.5 L-1.65 -5.55 M-2.85 -4.2 L-3.2 -4.25 -3.4 -3.95 -3.4 -3.5 Q-3.25 -3.15 -2.55 -3.25 -2.5 -4.05 -2.85 -4.2" fill="#a58d54" fill-rule="evenodd" stroke="none"/>
      <path d="M4.15 -7.65 L4.15 -7.4 Q4.15 -6.55 3.75 -6.5 3.4 -6.4 3.3 -6.65 3.6 -6.5 3.9 -6.85 L4.0 -7.3 3.7 -7.7 2.6 -7.8 2.55 -7.9 2.85 -7.95 3.65 -7.8 4.15 -7.65" fill="#615031" fill-rule="evenodd" stroke="none"/>
      <path d="M2.9 -9.4 L3.5 -9.25 3.7 -9.2 4.25 -9.05 3.0 -9.1 Q2.75 -9.25 2.9 -9.4" fill="url(#gradient35)" fill-rule="evenodd" stroke="none"/>
      <path d="M3.3 -6.65 L3.1 -6.95 3.15 -6.95 3.05 -7.05 2.9 -7.25 2.8 -7.35 2.6 -7.6 2.6 -7.8 3.7 -7.7 4.0 -7.3 3.9 -6.85 Q3.6 -6.5 3.3 -6.65" fill="url(#gradient36)" fill-rule="evenodd" stroke="none"/>
      <path d="M-4.4 -1.3 L-3.75 -1.05 -3.0 -0.9 -2.25 -0.55 -1.55 -0.4 -0.1 -0.4 1.75 -0.6 2.4 -1.05 3.2 -1.35 3.4 -1.65 3.7 -1.85 Q4.15 -2.0 4.05 -2.6 L3.95 -3.45 4.05 -4.45 4.25 -4.75 4.4 -5.25 4.45 -6.3 4.55 -7.1 4.45 -7.7 4.6 -7.8 5.3 -8.7 4.95 -5.5 Q4.65 -5.45 4.7 -4.95 4.7 -4.6 4.85 -4.55 L4.7 -1.25 3.95 -0.55 0.2 0.0 -1.1 -0.05 -2.55 -0.25 -3.75 -0.8 -4.4 -1.3" fill="#4d4027" fill-rule="evenodd" stroke="none"/>
      <path d="M4.95 -5.5 L4.85 -4.55 Q4.7 -4.6 4.7 -4.95 4.65 -5.45 4.95 -5.5" fill="url(#gradient37)" fill-rule="evenodd" stroke="none"/>
      <path d="M3.3 -4.2 L3.35 -3.55 Q3.3 -3.2 2.95 -3.3 2.65 -3.45 2.7 -3.75 2.7 -4.1 3.0 -4.15 L3.3 -4.2" fill="url(#gradient38)" fill-rule="evenodd" stroke="none"/>
      <path d="M1.85 -5.25 Q1.85 -4.9 1.55 -4.9 1.25 -4.95 1.15 -5.5 1.1 -6.05 1.4 -6.05 L1.65 -6.1 Q1.95 -5.85 1.85 -5.25" fill="url(#gradient39)" fill-rule="evenodd" stroke="none"/>
      <path d="M1.55 -3.5 L1.65 -3.0 1.35 -3.0 1.4 -3.65 1.55 -3.5" fill="url(#gradient40)" fill-rule="evenodd" stroke="none"/>
      <path d="M0.3 -1.75 L0.55 -1.55 Q0.4 -1.05 0.0 -1.3 -0.2 -1.4 0.1 -1.95 L0.3 -1.75" fill="url(#gradient41)" fill-rule="evenodd" stroke="none"/>
      <path d="M-3.75 -6.6 L-3.35 -6.4 -3.05 -5.8 Q-3.0 -5.4 -3.1 -5.1 L-3.5 -4.75 Q-3.7 -4.75 -3.95 -5.0 L-4.2 -5.6 Q-4.3 -6.55 -3.75 -6.6" fill="url(#gradient42)" fill-rule="evenodd" stroke="none"/>
      <path d="M-1.2 -9.1 L-0.95 -8.95 Q-0.95 -8.75 -1.1 -8.65 L-1.7 -8.55 Q-2.65 -8.4 -3.1 -8.55 -3.1 -9.0 -1.65 -9.05 L-1.2 -9.1" fill="url(#gradient43)" fill-rule="evenodd" stroke="none"/>
      <path d="M-0.25 -7.95 L-1.05 -8.0 -0.7 -8.4 -0.1 -8.4 0.4 -8.25 Q0.3 -7.95 -0.25 -7.95" fill="url(#gradient44)" fill-rule="evenodd" stroke="none"/>
      <path d="M-1.65 -5.55 L-0.95 -5.5 Q-0.7 -5.35 -0.6 -4.85 -0.35 -3.7 -0.95 -3.5 -1.8 -3.1 -2.25 -4.1 -2.75 -5.0 -1.9 -5.5 L-1.65 -5.55" fill="url(#gradient45)" fill-rule="evenodd" stroke="none"/>
      <path d="M-4.55 -3.4 L-4.6 -3.95 Q-4.2 -4.05 -4.35 -3.45 L-4.55 -3.4" fill="url(#gradient46)" fill-rule="evenodd" stroke="none"/>
      <path d="M-2.85 -4.2 Q-2.5 -4.05 -2.55 -3.25 -3.25 -3.15 -3.4 -3.5 L-3.4 -3.95 -3.2 -4.25 -2.85 -4.2" fill="url(#gradient47)" fill-rule="evenodd" stroke="none"/>
    </g>
    <linearGradient gradientTransform="matrix(-5.0E-4, 0.0, 0.0, 5.0E-4, 4.55, -8.7)" gradientUnits="userSpaceOnUse" id="gradient34" spreadMethod="pad" x1="-819.2" x2="819.2">
      <stop offset="0.0" stop-color="#c1a064"/>
      <stop offset="1.0" stop-color="#706341"/>
    </linearGradient>
    <linearGradient gradientTransform="matrix(-0.002, 0.0, 0.0, 0.0022, 4.75, -9.2)" gradientUnits="userSpaceOnUse" id="gradient35" spreadMethod="pad" x1="-819.2" x2="819.2">
      <stop offset="0.0" stop-color="#c1a064"/>
      <stop offset="1.0" stop-color="#706341"/>
    </linearGradient>
    <linearGradient gradientTransform="matrix(-1.0E-4, -8.0E-4, -9.0E-4, 1.0E-4, 3.3, -7.2)" gradientUnits="userSpaceOnUse" id="gradient36" spreadMethod="pad" x1="-819.2" x2="819.2">
      <stop offset="0.0" stop-color="#c1a064"/>
      <stop offset="1.0" stop-color="#706341"/>
    </linearGradient>
    <linearGradient gradientTransform="matrix(-1.0E-4, -6.0E-4, -6.0E-4, 1.0E-4, 4.85, -4.9)" gradientUnits="userSpaceOnUse" id="gradient37" spreadMethod="pad" x1="-819.2" x2="819.2">
      <stop offset="0.0" stop-color="#c1a064"/>
      <stop offset="1.0" stop-color="#706341"/>
    </linearGradient>
    <linearGradient gradientTransform="matrix(-1.0E-4, -5.0E-4, -6.0E-4, 1.0E-4, 3.05, -3.7)" gradientUnits="userSpaceOnUse" id="gradient38" spreadMethod="pad" x1="-819.2" x2="819.2">
      <stop offset="0.0" stop-color="#c1a064"/>
      <stop offset="1.0" stop-color="#706341"/>
    </linearGradient>
    <linearGradient gradientTransform="matrix(-1.0E-4, -7.0E-4, -7.0E-4, 1.0E-4, 1.55, -5.5)" gradientUnits="userSpaceOnUse" id="gradient39" spreadMethod="pad" x1="-819.2" x2="819.2">
      <stop offset="0.0" stop-color="#c1a064"/>
      <stop offset="1.0" stop-color="#706341"/>
    </linearGradient>
    <linearGradient gradientTransform="matrix(-1.0E-4, -4.0E-4, -4.0E-4, 1.0E-4, 1.5, -3.35)" gradientUnits="userSpaceOnUse" id="gradient40" spreadMethod="pad" x1="-819.2" x2="819.2">
      <stop offset="0.0" stop-color="#c1a064"/>
      <stop offset="1.0" stop-color="#706341"/>
    </linearGradient>
    <linearGradient gradientTransform="matrix(-1.0E-4, -5.0E-4, -5.0E-4, 0.0, 0.2, -1.55)" gradientUnits="userSpaceOnUse" id="gradient41" spreadMethod="pad" x1="-819.2" x2="819.2">
      <stop offset="0.0" stop-color="#c1a064"/>
      <stop offset="1.0" stop-color="#706341"/>
    </linearGradient>
    <linearGradient gradientTransform="matrix(-2.0E-4, -0.0011, -0.0012, 2.0E-4, -3.6, -5.65)" gradientUnits="userSpaceOnUse" id="gradient42" spreadMethod="pad" x1="-819.2" x2="819.2">
      <stop offset="0.0" stop-color="#c1a064"/>
      <stop offset="1.0" stop-color="#706341"/>
    </linearGradient>
    <linearGradient gradientTransform="matrix(-0.0013, 0.0, 0.0, 0.0014, -1.8, -8.8)" gradientUnits="userSpaceOnUse" id="gradient43" spreadMethod="pad" x1="-819.2" x2="819.2">
      <stop offset="0.0" stop-color="#c1a064"/>
      <stop offset="1.0" stop-color="#706341"/>
    </linearGradient>
    <linearGradient gradientTransform="matrix(-9.0E-4, 0.0, 0.0, 0.001, -0.1, -8.15)" gradientUnits="userSpaceOnUse" id="gradient44" spreadMethod="pad" x1="-819.2" x2="819.2">
      <stop offset="0.0" stop-color="#c1a064"/>
      <stop offset="1.0" stop-color="#706341"/>
    </linearGradient>
    <linearGradient gradientTransform="matrix(-2.0E-4, -0.0013, -0.0014, 2.0E-4, -1.45, -4.45)" gradientUnits="userSpaceOnUse" id="gradient45" spreadMethod="pad" x1="-819.2" x2="819.2">
      <stop offset="0.0" stop-color="#c1a064"/>
      <stop offset="1.0" stop-color="#706341"/>
    </linearGradient>
    <linearGradient gradientTransform="matrix(0.0, -3.0E-4, -4.0E-4, 0.0, -4.5, -3.65)" gradientUnits="userSpaceOnUse" id="gradient46" spreadMethod="pad" x1="-819.2" x2="819.2">
      <stop offset="0.0" stop-color="#c1a064"/>
      <stop offset="1.0" stop-color="#706341"/>
    </linearGradient>
    <linearGradient gradientTransform="matrix(-1.0E-4, -6.0E-4, -7.0E-4, 1.0E-4, -2.95, -3.7)" gradientUnits="userSpaceOnUse" id="gradient47" spreadMethod="pad" x1="-819.2" x2="819.2">
      <stop offset="0.0" stop-color="#c1a064"/>
      <stop offset="1.0" stop-color="#706341"/>
    </linearGradient>
  </defs>
</svg>
