<?xml version="1.0" encoding="UTF-8" standalone="no"?>
<svg xmlns:xlink="http://www.w3.org/1999/xlink" height="38.75px" width="48.95px" xmlns="http://www.w3.org/2000/svg">
  <g transform="matrix(1.0, 0.0, 0.0, 1.0, 0.0, 0.0)">
    <use height="26.35" transform="matrix(1.0, 0.0, 0.0, 1.0, 0.0, 4.25)" width="19.75" xlink:href="#shape0"/>
    <use height="24.55" transform="matrix(1.0, 0.0, 0.0, 1.0, 2.6, 5.95)" width="16.6" xlink:href="#sprite0"/>
    <use height="23.9" transform="matrix(1.0, 0.0, 0.0, 1.0, 0.0, 5.95)" width="4.0" xlink:href="#sprite1"/>
    <use height="6.95" transform="matrix(1.0, 0.0, 0.0, 1.0, 3.5, 15.4)" width="13.65" xlink:href="#shape3"/>
    <use height="3.15" transform="matrix(1.0, 0.0, 0.0, 1.0, 10.95, 15.75)" width="6.2" xlink:href="#sprite2"/>
    <use height="5.2" transform="matrix(1.0, 0.0, 0.0, 1.0, 10.9, 13.4)" width="5.35" xlink:href="#shape5"/>
    <use height="5.0" transform="matrix(1.0, 0.0, 0.0, 1.0, 10.9, 13.6)" width="5.35" xlink:href="#sprite3"/>
    <use height="7.2" transform="matrix(1.0, 0.0, 0.0, 1.0, 3.9, 15.85)" width="11.0" xlink:href="#shape6"/>
    <use height="6.6" transform="matrix(1.0, 0.0, 0.0, 1.0, 3.9, 15.85)" width="11.0" xlink:href="#sprite4"/>
    <use height="27.05" transform="matrix(1.0, 0.0, 0.0, 1.0, 3.5, 7.7)" width="45.5" xlink:href="#shape8"/>
    <use height="25.2" transform="matrix(1.0, 0.0, 0.0, 1.0, 28.4, 9.45)" width="17.75" xlink:href="#sprite5"/>
    <use height="24.45" transform="matrix(1.0, 0.0, 0.0, 1.0, 44.7, 9.45)" width="4.3" xlink:href="#sprite6"/>
    <use height="8.45" transform="matrix(1.0, 0.0, 0.0, 1.0, 34.8, 17.3)" width="11.5" xlink:href="#shape11"/>
    <use height="4.3" transform="matrix(1.0, 0.0, 0.0, 1.0, 41.3, 17.6)" width="5.0" xlink:href="#sprite7"/>
    <use height="6.35" transform="matrix(1.0, 0.0, 0.0, 1.0, 41.2, 15.2)" width="4.05" xlink:href="#shape12"/>
    <use height="6.2" transform="matrix(1.0, 0.0, 0.0, 1.0, 41.2, 15.35)" width="4.05" xlink:href="#sprite8"/>
    <use height="7.95" transform="matrix(1.0, 0.0, 0.0, 1.0, 35.2, 18.6)" width="9.8" xlink:href="#shape13"/>
    <use height="7.25" transform="matrix(1.0, 0.0, 0.0, 1.0, 35.2, 18.6)" width="9.8" xlink:href="#sprite9"/>
    <use height="26.1" transform="matrix(1.0, 0.0, 0.0, 1.0, 7.2, 12.65)" width="38.25" xlink:href="#shape15"/>
    <use height="24.3" transform="matrix(1.0, 0.0, 0.0, 1.0, 8.95, 14.4)" width="18.2" xlink:href="#sprite10"/>
    <use height="24.25" transform="matrix(1.0, 0.0, 0.0, 1.0, 7.2, 14.4)" width="4.35" xlink:href="#sprite11"/>
    <use height="7.35" transform="matrix(1.0, 0.0, 0.0, 1.0, 10.55, 23.3)" width="14.75" xlink:href="#shape18"/>
    <use height="3.55" transform="matrix(1.0, 0.0, 0.0, 1.0, 18.7, 23.6)" width="6.6" xlink:href="#sprite12"/>
    <use height="5.5" transform="matrix(1.0, 0.0, 0.0, 1.0, 18.6, 21.3)" width="5.65" xlink:href="#shape19"/>
    <use height="5.3" transform="matrix(1.0, 0.0, 0.0, 1.0, 18.6, 21.5)" width="5.65" xlink:href="#sprite13"/>
    <use height="7.3" transform="matrix(1.0, 0.0, 0.0, 1.0, 11.0, 24.1)" width="12.1" xlink:href="#shape20"/>
    <use height="6.65" transform="matrix(1.0, 0.0, 0.0, 1.0, 11.0, 24.1)" width="12.1" xlink:href="#sprite14"/>
    <use height="6.1" transform="matrix(1.0, 0.0, 0.0, 1.0, 10.55, 27.9)" width="13.1" xlink:href="#shape22"/>
  </g>
  <defs>
    <g id="shape0" transform="matrix(1.0, 0.0, 0.0, 1.0, 0.0, -4.25)">
      <path d="M16.0 8.1 L19.15 5.15 19.3 5.25 19.15 8.4 16.15 8.75 16.0 8.1" fill="url(#gradient0)" fill-rule="evenodd" stroke="none"/>
      <path d="M18.75 10.05 L2.5 9.0 2.9 4.25 19.15 5.15 18.75 10.05" fill="url(#gradient1)" fill-rule="evenodd" stroke="none"/>
      <path d="M13.6 11.6 L19.25 6.8 19.75 28.8 16.55 30.6 13.6 11.6" fill="url(#gradient2)" fill-rule="evenodd" stroke="none"/>
      <path d="M17.6 30.0 L19.2 6.85 19.25 6.85 19.75 28.8 17.6 30.0" fill="url(#gradient3)" fill-rule="evenodd" stroke="none"/>
      <path d="M16.55 30.6 L17.75 27.65 19.75 28.75 19.75 28.8 16.55 30.6" fill="url(#gradient4)" fill-rule="evenodd" stroke="none"/>
      <path d="M16.55 30.5 L0.0 29.65 2.65 5.95 19.2 6.85 16.55 30.5" fill="url(#gradient5)" fill-rule="evenodd" stroke="none"/>
      <path d="M2.3 8.95 L18.85 9.95 18.65 11.7 2.1 10.55 2.3 8.95" fill="url(#gradient6)" fill-rule="evenodd" stroke="none"/>
      <path d="M2.4 8.05 L18.9 9.0 18.8 10.05 2.3 8.95 2.4 8.05" fill="url(#gradient7)" fill-rule="evenodd" stroke="none"/>
    </g>
    <linearGradient gradientTransform="matrix(0.0017, 1.0E-4, 1.0E-4, -0.0017, 17.85, 6.95)" gradientUnits="userSpaceOnUse" id="gradient0" spreadMethod="pad" x1="-819.2" x2="819.2">
      <stop offset="0.0" stop-color="#fff6e8"/>
      <stop offset="1.0" stop-color="#b09a74"/>
    </linearGradient>
    <linearGradient gradientTransform="matrix(0.0086, 4.0E-4, 4.0E-4, -0.0086, 11.8, 7.2)" gradientUnits="userSpaceOnUse" id="gradient1" spreadMethod="pad" x1="-819.2" x2="819.2">
      <stop offset="0.0" stop-color="#fff6e8"/>
      <stop offset="1.0" stop-color="#dec8a4"/>
    </linearGradient>
    <linearGradient gradientTransform="matrix(-9.0E-4, 0.0129, 0.0129, 9.0E-4, 16.8, 17.95)" gradientUnits="userSpaceOnUse" id="gradient2" spreadMethod="pad" x1="-819.2" x2="819.2">
      <stop offset="0.0" stop-color="#876533"/>
      <stop offset="1.0" stop-color="#dbbc8e"/>
    </linearGradient>
    <linearGradient gradientTransform="matrix(0.0036, 0.001, 0.001, -0.0036, 18.7, 18.5)" gradientUnits="userSpaceOnUse" id="gradient3" spreadMethod="pad" x1="-819.2" x2="819.2">
      <stop offset="0.0" stop-color="#7d5b2a"/>
      <stop offset="1.0" stop-color="#d4b68a"/>
    </linearGradient>
    <linearGradient gradientTransform="matrix(0.0021, 0.0014, 0.0014, -0.0021, 16.95, 28.85)" gradientUnits="userSpaceOnUse" id="gradient4" spreadMethod="pad" x1="-819.2" x2="819.2">
      <stop offset="0.0" stop-color="#87622d"/>
      <stop offset="1.0" stop-color="#d4b68a"/>
    </linearGradient>
    <linearGradient gradientTransform="matrix(0.009, 0.0118, 0.0118, -0.009, 9.05, 17.55)" gradientUnits="userSpaceOnUse" id="gradient5" spreadMethod="pad" x1="-819.2" x2="819.2">
      <stop offset="0.0" stop-color="#fff6e8"/>
      <stop offset="1.0" stop-color="#dec8a4"/>
    </linearGradient>
    <linearGradient gradientTransform="matrix(0.0088, 4.0E-4, 4.0E-4, -0.0088, 11.5, 10.35)" gradientUnits="userSpaceOnUse" id="gradient6" spreadMethod="pad" x1="-819.2" x2="819.2">
      <stop offset="0.00784313725490196" stop-color="#ffffff"/>
      <stop offset="1.0" stop-color="#fae5c6"/>
    </linearGradient>
    <linearGradient gradientTransform="matrix(0.0087, 4.0E-4, 4.0E-4, -0.0087, 11.6, 9.1)" gradientUnits="userSpaceOnUse" id="gradient7" spreadMethod="pad" x1="-819.2" x2="819.2">
      <stop offset="0.00784313725490196" stop-color="#ffb13b"/>
      <stop offset="1.0" stop-color="#d18c19"/>
    </linearGradient>
    <g id="sprite0" transform="matrix(1.0, 0.0, 0.0, 1.0, 0.0, 0.0)">
      <use height="24.55" transform="matrix(1.003, 0.0, 0.0, 1.0, 0.0, 0.0)" width="16.55" xlink:href="#shape1"/>
    </g>
    <g id="shape1" transform="matrix(1.0, 0.0, 0.0, 1.0, 0.0, 0.0)">
      <path d="M15.55 4.2 Q15.8 2.5 15.65 1.85 15.55 1.2 14.4 1.2 L0.0 0.3 0.0 0.0 16.55 0.9 13.95 24.55 7.5 24.25 8.3 24.25 Q11.0 24.3 12.45 23.2 L13.3 22.1 15.55 4.2" fill="#ffffff" fill-rule="evenodd" stroke="none"/>
    </g>
    <g id="sprite1" transform="matrix(1.0, 0.0, 0.0, 1.0, 0.0, 0.0)">
      <use height="23.9" transform="matrix(1.0, 0.0, 0.0, 1.0, 0.0, 0.0)" width="4.0" xlink:href="#shape2"/>
    </g>
    <g id="shape2" transform="matrix(1.0, 0.0, 0.0, 1.0, 0.0, 0.0)">
      <path d="M2.65 0.0 L3.55 0.05 2.4 11.35 Q1.5 20.6 1.55 21.05 1.7 23.15 4.0 23.9 L0.0 23.7 2.65 0.0" fill="#d18619" fill-rule="evenodd" stroke="none"/>
    </g>
    <g id="shape3" transform="matrix(1.0, 0.0, 0.0, 1.0, -3.5, -15.4)">
      <path d="M3.5 19.25 L4.9 18.75 9.35 18.45 Q12.3 18.6 14.15 19.45 L15.4 20.3 Q12.85 22.35 10.45 22.35 L4.8 21.65 3.5 19.25" fill="url(#gradient8)" fill-rule="evenodd" stroke="none"/>
      <path d="M16.5 15.4 L17.15 15.7 16.9 16.45 10.95 18.9 11.45 18.2 16.5 15.4" fill="url(#gradient9)" fill-rule="evenodd" stroke="none"/>
    </g>
    <linearGradient gradientTransform="matrix(0.0073, 3.0E-4, 3.0E-4, -0.0073, 9.45, 20.35)" gradientUnits="userSpaceOnUse" id="gradient8" spreadMethod="pad" x1="-819.2" x2="819.2">
      <stop offset="0.00784313725490196" stop-color="#5e3b07"/>
      <stop offset="1.0" stop-color="#543400"/>
    </linearGradient>
    <linearGradient gradientTransform="matrix(0.0034, 5.0E-4, 5.0E-4, -0.0031, 14.05, 17.2)" gradientUnits="userSpaceOnUse" id="gradient9" spreadMethod="pad" x1="-819.2" x2="819.2">
      <stop offset="0.00784313725490196" stop-color="#eb9514"/>
      <stop offset="1.0" stop-color="#ad6c00"/>
    </linearGradient>
    <g id="sprite2" transform="matrix(1.0, 0.0, 0.0, 1.0, 0.0, 0.0)">
      <use height="5.3" transform="matrix(1.0974, 0.0, 0.0, 0.5943, 0.0, 0.0)" width="5.65" xlink:href="#shape4"/>
    </g>
    <g id="shape4" transform="matrix(1.0, 0.0, 0.0, 1.0, 0.0, 0.0)">
      <path d="M5.65 0.0 L5.55 0.85 0.0 5.3 0.1 5.0 5.65 0.0" fill="#000000" fill-rule="evenodd" stroke="none"/>
    </g>
    <g id="shape5" transform="matrix(1.0, 0.0, 0.0, 1.0, -10.9, -13.4)">
      <path d="M15.55 13.4 L16.25 13.6 16.15 14.45 10.9 18.6 11.25 17.75 15.55 13.4" fill="url(#gradient10)" fill-rule="evenodd" stroke="none"/>
    </g>
    <linearGradient gradientTransform="matrix(0.0035, -3.0E-4, -3.0E-4, -0.0035, 13.6, 15.95)" gradientUnits="userSpaceOnUse" id="gradient10" spreadMethod="pad" x1="-819.2" x2="819.2">
      <stop offset="0.00784313725490196" stop-color="#eb9514"/>
      <stop offset="1.0" stop-color="#ad6c00"/>
    </linearGradient>
    <g id="sprite3" transform="matrix(1.0, 0.0, 0.0, 1.0, 0.0, 0.0)">
      <use height="5.3" transform="matrix(0.9469, 0.0, 0.0, 0.9434, 0.0, 0.0)" width="5.65" xlink:href="#shape4"/>
    </g>
    <g id="shape6" transform="matrix(1.0, 0.0, 0.0, 1.0, -3.9, -15.85)">
      <path d="M8.0 16.2 L8.1 16.2 Q8.4 15.85 8.85 15.85 9.15 15.85 9.5 16.2 9.85 15.85 10.25 15.85 11.05 15.95 11.2 16.75 L11.75 16.65 Q12.45 16.65 12.65 17.4 13.65 17.5 13.65 18.55 14.25 18.75 14.15 19.2 L14.15 19.25 Q14.45 19.4 14.55 19.9 15.0 20.0 14.9 20.5 14.9 21.1 14.45 21.0 L14.25 20.95 13.8 21.1 Q12.95 22.55 11.6 22.95 L8.7 22.8 Q6.7 22.35 5.95 21.7 5.7 21.45 5.6 20.9 L5.25 20.95 Q4.55 20.95 4.4 20.4 3.9 20.15 3.9 19.6 4.0 18.95 4.55 18.8 L4.55 18.7 Q4.65 17.9 5.4 17.9 L5.65 17.4 Q5.9 17.15 6.2 17.2 L6.55 17.25 6.8 16.85 Q7.15 16.15 8.0 16.2" fill="#ffffff" fill-rule="evenodd" stroke="none"/>
    </g>
    <g id="sprite4" transform="matrix(1.0, 0.0, 0.0, 1.0, 0.0, 0.0)">
      <use height="6.6" transform="matrix(1.0, 0.0, 0.0, 1.0, 0.0, 0.0)" width="11.0" xlink:href="#shape7"/>
    </g>
    <g id="shape7" transform="matrix(1.0, 0.0, 0.0, 1.0, 0.0, 0.0)">
      <path d="M9.8 4.55 Q10.3 4.15 9.65 4.1 9.3 4.1 9.05 4.4 8.8 4.65 9.05 4.8 9.35 4.95 9.8 4.55 M9.5 3.75 Q9.9 3.35 9.35 3.3 9.1 3.25 8.75 3.55 8.4 3.85 8.7 3.95 9.0 4.1 9.5 3.75 M6.85 5.3 Q6.6 5.8 7.3 5.85 8.05 5.95 8.3 5.15 8.55 4.4 7.6 4.65 7.05 4.85 6.85 5.3 M5.45 5.9 Q6.2 5.9 6.25 5.3 6.3 4.7 5.5 4.8 5.05 4.9 4.9 5.4 4.75 5.95 5.45 5.9 M7.25 3.7 Q6.85 3.65 6.55 4.05 6.2 4.4 6.55 4.55 6.95 4.65 7.45 4.2 7.9 3.75 7.25 3.7 M8.6 2.05 Q8.15 2.05 7.9 2.7 7.6 3.35 8.15 3.4 8.7 3.5 8.9 2.8 9.15 2.1 8.6 2.05 M10.65 4.05 Q11.1 4.15 11.0 4.65 L10.8 5.1 10.55 5.15 10.35 5.1 9.9 5.25 9.4 5.9 6.85 6.6 2.65 5.05 3.8 5.1 Q4.65 5.05 4.65 4.3 L5.5 4.1 Q6.2 3.8 6.0 3.2 L6.25 3.3 6.8 3.25 Q7.25 2.95 7.3 2.1 L7.6 2.1 8.05 1.85 8.15 1.4 7.9 1.0 7.8 0.95 7.3 1.1 Q7.15 0.3 6.35 0.2 5.95 0.2 5.6 0.55 5.35 0.2 5.0 0.2 4.55 0.15 4.3 0.55 L4.2 0.55 Q3.35 0.45 3.05 1.2 2.8 1.35 2.8 1.6 L2.45 1.55 Q2.15 1.5 1.95 1.75 L1.7 2.25 Q0.95 2.25 0.85 3.05 L0.9 3.15 Q0.25 3.35 0.25 3.95 L0.45 4.55 Q0.0 4.3 0.0 3.75 0.1 3.1 0.65 2.95 L0.65 2.85 Q0.75 2.05 1.5 2.05 L1.75 1.55 Q2.0 1.3 2.3 1.35 L2.65 1.4 2.9 1.0 Q3.25 0.3 4.1 0.35 L4.2 0.35 Q4.5 0.0 4.95 0.0 5.25 0.0 5.6 0.35 5.95 0.0 6.35 0.0 7.15 0.1 7.3 0.9 L7.85 0.8 Q8.55 0.8 8.75 1.55 9.75 1.65 9.75 2.7 10.35 2.9 10.25 3.35 L10.25 3.4 Q10.55 3.55 10.65 4.05" fill="#000000" fill-rule="evenodd" stroke="none"/>
    </g>
    <g id="shape8" transform="matrix(1.0, 0.0, 0.0, 1.0, -3.5, -7.7)">
      <path d="M3.5 19.25 Q5.6 20.8 8.45 21.15 11.75 21.55 15.4 20.3 15.0 22.65 13.25 24.2 11.4 25.7 9.1 25.55 6.75 25.35 5.15 23.55 3.55 21.75 3.5 19.25" fill="url(#gradient11)" fill-rule="evenodd" stroke="none"/>
      <path d="M31.8 11.7 L31.7 12.35 28.45 12.05 28.25 8.85 28.45 8.7 31.8 11.7" fill="url(#gradient12)" fill-rule="evenodd" stroke="none"/>
      <path d="M45.85 7.7 L46.3 12.5 28.85 13.75 28.45 8.7 45.85 7.7" fill="url(#gradient13)" fill-rule="evenodd" stroke="none"/>
      <path d="M34.4 15.25 L31.25 34.75 27.8 32.9 28.35 10.4 34.4 15.25" fill="url(#gradient14)" fill-rule="evenodd" stroke="none"/>
      <path d="M30.1 34.15 L27.8 32.9 28.35 10.45 28.4 10.45 30.1 34.15" fill="url(#gradient15)" fill-rule="evenodd" stroke="none"/>
      <path d="M31.25 34.75 L27.8 32.9 Q28.9 32.25 30.0 31.75 L31.25 34.75" fill="url(#gradient16)" fill-rule="evenodd" stroke="none"/>
      <path d="M46.15 9.45 L49.0 33.65 31.25 34.65 28.4 10.45 46.15 9.45" fill="url(#gradient17)" fill-rule="evenodd" stroke="none"/>
      <path d="M46.7 14.1 L29.0 15.4 28.8 13.6 46.5 12.5 46.7 14.1" fill="url(#gradient18)" fill-rule="evenodd" stroke="none"/>
      <path d="M46.5 12.5 L28.8 13.75 28.7 12.7 46.4 11.55 46.5 12.5" fill="url(#gradient19)" fill-rule="evenodd" stroke="none"/>
    </g>
    <linearGradient gradientTransform="matrix(0.0073, 3.0E-4, 3.0E-4, -0.0073, 9.35, 22.55)" gradientUnits="userSpaceOnUse" id="gradient11" spreadMethod="pad" x1="-819.2" x2="819.2">
      <stop offset="0.00784313725490196" stop-color="#bf7910"/>
      <stop offset="1.0" stop-color="#8f5900"/>
    </linearGradient>
    <linearGradient gradientTransform="matrix(-0.0018, 1.0E-4, -1.0E-4, -0.0018, 29.85, 10.55)" gradientUnits="userSpaceOnUse" id="gradient12" spreadMethod="pad" x1="-819.2" x2="819.2">
      <stop offset="0.0" stop-color="#fff6e8"/>
      <stop offset="1.0" stop-color="#b09a74"/>
    </linearGradient>
    <linearGradient gradientTransform="matrix(0.0107, -5.0E-4, -5.0E-4, -0.0107, 36.4, 10.75)" gradientUnits="userSpaceOnUse" id="gradient13" spreadMethod="pad" x1="-819.2" x2="819.2">
      <stop offset="0.0" stop-color="#fff6e8"/>
      <stop offset="1.0" stop-color="#dec8a4"/>
    </linearGradient>
    <linearGradient gradientTransform="matrix(-4.0E-4, -0.0132, 0.0132, -4.0E-4, 30.95, 21.8)" gradientUnits="userSpaceOnUse" id="gradient14" spreadMethod="pad" x1="-819.2" x2="819.2">
      <stop offset="0.0" stop-color="#876533"/>
      <stop offset="1.0" stop-color="#dbbc8e"/>
    </linearGradient>
    <linearGradient gradientTransform="matrix(-0.0039, -7.0E-4, 7.0E-4, -0.0039, 28.9, 22.4)" gradientUnits="userSpaceOnUse" id="gradient15" spreadMethod="pad" x1="-819.2" x2="819.2">
      <stop offset="0.0" stop-color="#7d5b2a"/>
      <stop offset="1.0" stop-color="#d4b68a"/>
    </linearGradient>
    <linearGradient gradientTransform="matrix(-0.0024, -0.0013, 0.0013, -0.0024, 30.75, 32.95)" gradientUnits="userSpaceOnUse" id="gradient16" spreadMethod="pad" x1="-819.2" x2="819.2">
      <stop offset="0.0" stop-color="#87622d"/>
      <stop offset="1.0" stop-color="#d4b68a"/>
    </linearGradient>
    <linearGradient gradientTransform="matrix(0.0125, 0.0104, 0.0104, -0.0125, 39.2, 22.45)" gradientUnits="userSpaceOnUse" id="gradient17" spreadMethod="pad" x1="-819.2" x2="819.2">
      <stop offset="0.0" stop-color="#fff6e8"/>
      <stop offset="1.0" stop-color="#dec8a4"/>
    </linearGradient>
    <linearGradient gradientTransform="matrix(0.0111, -8.0E-4, -8.0E-4, -0.0111, 37.65, 13.85)" gradientUnits="userSpaceOnUse" id="gradient18" spreadMethod="pad" x1="-819.2" x2="819.2">
      <stop offset="0.00784313725490196" stop-color="#ffffff"/>
      <stop offset="1.0" stop-color="#fae5c6"/>
    </linearGradient>
    <linearGradient gradientTransform="matrix(0.0108, -6.0E-4, -6.0E-4, -0.0108, 37.7, 12.65)" gradientUnits="userSpaceOnUse" id="gradient19" spreadMethod="pad" x1="-819.2" x2="819.2">
      <stop offset="0.00784313725490196" stop-color="#ffb13b"/>
      <stop offset="1.0" stop-color="#d18c19"/>
    </linearGradient>
    <g id="sprite5" transform="matrix(1.0, 0.0, 0.0, 1.0, 0.0, 0.0)">
      <use height="25.2" transform="matrix(1.0, 0.0, 0.0, 1.0, 0.0, 0.0)" width="17.75" xlink:href="#shape9"/>
    </g>
    <g id="shape9" transform="matrix(1.0, 0.0, 0.0, 1.0, 0.0, 0.0)">
      <path d="M4.45 23.8 Q5.95 24.9 8.9 24.85 L9.7 24.85 2.85 25.2 0.0 1.0 17.7 0.0 17.75 0.25 2.35 1.3 Q1.1 1.3 0.95 1.95 0.8 2.65 1.1 4.4 L3.5 22.7 4.45 23.8" fill="#d18619" fill-rule="evenodd" stroke="none"/>
    </g>
    <g id="sprite6" transform="matrix(1.0, 0.0, 0.0, 1.0, 0.0, 0.0)">
      <use height="24.45" transform="matrix(1.0, 0.0, 0.0, 1.0, 0.0, 0.0)" width="4.3" xlink:href="#shape10"/>
    </g>
    <g id="shape10" transform="matrix(1.0, 0.0, 0.0, 1.0, 0.0, 0.0)">
      <path d="M1.45 0.0 L4.3 24.2 0.0 24.45 Q1.6 23.95 2.2 22.9 L2.65 21.5 1.7 11.6 0.45 0.05 1.45 0.0" fill="#ffffff" fill-rule="evenodd" stroke="none"/>
    </g>
    <g id="shape11" transform="matrix(1.0, 0.0, 0.0, 1.0, -34.8, -17.3)">
      <path d="M41.35 25.75 L36.25 25.7 34.8 23.25 35.95 22.5 Q37.55 21.75 39.8 21.6 42.45 21.4 44.2 22.15 L45.45 22.9 Q43.5 25.5 41.35 25.75" fill="url(#gradient20)" fill-rule="evenodd" stroke="none"/>
      <path d="M45.7 17.3 L46.3 17.6 46.2 18.4 41.3 21.9 41.65 21.05 45.7 17.3" fill="url(#gradient21)" fill-rule="evenodd" stroke="none"/>
    </g>
    <linearGradient gradientTransform="matrix(0.0065, -7.0E-4, -6.0E-4, -0.0074, 40.15, 23.7)" gradientUnits="userSpaceOnUse" id="gradient20" spreadMethod="pad" x1="-819.2" x2="819.2">
      <stop offset="0.00784313725490196" stop-color="#5e3b07"/>
      <stop offset="1.0" stop-color="#543400"/>
    </linearGradient>
    <linearGradient gradientTransform="matrix(0.003, 0.0, 0.0, -0.0032, 43.8, 19.6)" gradientUnits="userSpaceOnUse" id="gradient21" spreadMethod="pad" x1="-819.2" x2="819.2">
      <stop offset="0.00784313725490196" stop-color="#eb9514"/>
      <stop offset="1.0" stop-color="#ad6c00"/>
    </linearGradient>
    <g id="sprite7" transform="matrix(1.0, 0.0, 0.0, 1.0, 0.0, 0.0)">
      <use height="5.3" transform="matrix(0.8849, 0.0, 0.0, 0.8113, 0.0, 0.0)" width="5.65" xlink:href="#shape4"/>
    </g>
    <g id="shape12" transform="matrix(1.0, 0.0, 0.0, 1.0, -41.2, -15.2)">
      <path d="M44.6 15.2 L45.2 15.35 45.25 16.3 41.2 21.55 41.4 20.55 44.6 15.2" fill="url(#gradient22)" fill-rule="evenodd" stroke="none"/>
    </g>
    <linearGradient gradientTransform="matrix(0.003, -8.0E-4, -6.0E-4, -0.0034, 43.2, 18.3)" gradientUnits="userSpaceOnUse" id="gradient22" spreadMethod="pad" x1="-819.2" x2="819.2">
      <stop offset="0.00784313725490196" stop-color="#eb9514"/>
      <stop offset="1.0" stop-color="#ad6c00"/>
    </linearGradient>
    <g id="sprite8" transform="matrix(1.0, 0.0, 0.0, 1.0, 0.0, 0.0)">
      <use height="5.3" transform="matrix(0.7168, 0.0, 0.0, 1.1698, 0.0, 0.0)" width="5.65" xlink:href="#shape4"/>
    </g>
    <g id="shape13" transform="matrix(1.0, 0.0, 0.0, 1.0, -35.2, -18.6)">
      <path d="M44.15 21.85 Q44.55 22.05 44.6 22.55 45.0 22.65 45.0 23.15 45.1 23.8 44.7 23.8 L44.5 23.75 44.15 24.0 44.1 24.0 Q43.6 25.75 42.45 26.3 L39.9 26.5 Q38.05 26.25 37.3 25.65 L36.85 24.8 36.55 24.9 Q35.95 25.0 35.7 24.4 35.3 24.25 35.2 23.6 35.1 22.85 35.65 22.6 L35.6 22.5 35.75 21.85 Q35.95 21.55 36.25 21.5 36.2 21.15 36.4 20.9 L36.85 20.6 37.15 20.65 37.35 20.15 Q37.55 19.35 38.3 19.25 L38.4 19.25 Q38.65 18.8 39.0 18.8 39.3 18.7 39.6 19.1 L40.25 18.6 Q40.95 18.6 41.2 19.45 41.45 19.3 41.65 19.3 42.35 19.2 42.6 20.0 43.0 20.0 43.25 20.35 L43.6 21.15 Q44.15 21.25 44.15 21.8 L44.15 21.85" fill="#ffffff" fill-rule="evenodd" stroke="none"/>
    </g>
    <g id="sprite9" transform="matrix(1.0, 0.0, 0.0, 1.0, 0.0, 0.0)">
      <use height="7.25" transform="matrix(1.0, 0.0, 0.0, 1.0, 0.0, 0.0)" width="9.8" xlink:href="#shape14"/>
    </g>
    <g id="shape14" transform="matrix(1.0, 0.0, 0.0, 1.0, 0.0, 0.0)">
      <path d="M5.1 6.65 Q5.8 6.6 5.75 5.9 5.65 5.25 5.0 5.45 4.55 5.6 4.55 6.2 4.5 6.75 5.1 6.65 M8.5 4.15 Q8.2 4.15 8.0 4.5 7.85 4.85 8.1 4.95 8.4 5.1 8.75 4.6 9.1 4.1 8.5 4.15 M8.15 3.25 L7.65 3.6 Q7.4 4.0 7.65 4.1 8.0 4.2 8.35 3.75 8.7 3.3 8.15 3.25 M5.85 5.0 L6.6 4.5 Q6.95 3.95 6.35 4.0 L5.75 4.45 Q5.5 4.9 5.85 5.0 M7.5 5.45 Q7.6 4.6 6.8 5.0 6.35 5.2 6.25 5.75 6.1 6.35 6.7 6.35 7.4 6.3 7.5 5.45 M7.3 2.0 Q6.95 2.05 6.8 2.8 6.65 3.55 7.1 3.55 7.6 3.55 7.7 2.75 7.8 1.95 7.3 2.0 M8.05 1.75 L8.4 2.55 Q8.95 2.65 8.95 3.2 L8.95 3.25 Q9.35 3.45 9.4 3.95 9.8 4.05 9.8 4.55 L9.65 5.05 9.5 5.2 9.3 5.15 8.95 5.4 8.9 5.4 8.6 6.15 6.4 7.25 2.5 6.05 3.55 6.0 Q4.25 5.8 4.15 4.95 4.3 5.1 4.85 4.65 5.4 4.25 5.2 3.6 L5.9 3.5 Q6.25 3.15 6.15 2.2 6.65 2.25 6.8 1.85 6.95 1.3 6.55 0.9 L6.45 0.9 6.0 1.1 Q5.75 0.15 5.1 0.25 4.7 0.25 4.45 0.7 4.2 0.35 3.85 0.4 3.55 0.4 3.3 0.9 L3.2 0.9 Q2.5 0.9 2.3 1.75 L2.1 2.25 1.85 2.2 Q1.15 2.3 1.25 3.1 0.55 3.2 0.65 4.1 L0.65 4.2 Q0.2 4.45 0.2 5.2 L0.45 5.8 Q0.0 5.55 0.0 5.0 -0.1 4.25 0.45 4.0 L0.4 3.9 Q0.35 3.55 0.55 3.25 0.75 2.95 1.05 2.9 1.0 2.55 1.2 2.3 1.4 2.05 1.65 2.0 L1.95 2.05 2.15 1.55 Q2.35 0.75 3.1 0.65 L3.2 0.65 Q3.45 0.2 3.8 0.2 4.1 0.1 4.4 0.5 4.65 0.05 5.05 0.0 5.75 0.0 6.0 0.85 6.25 0.7 6.45 0.7 7.15 0.6 7.4 1.4 7.8 1.4 8.05 1.75" fill="#000000" fill-rule="evenodd" stroke="none"/>
    </g>
    <g id="shape15" transform="matrix(1.0, 0.0, 0.0, 1.0, -7.2, -12.65)">
      <path d="M45.45 22.9 Q45.4 25.6 44.05 27.5 42.65 29.4 40.6 29.5 38.5 29.6 36.85 27.8 35.2 26.0 34.8 23.25 36.8 24.65 39.4 24.7 42.35 24.75 45.45 22.9" fill="url(#gradient23)" fill-rule="evenodd" stroke="none"/>
      <path d="M23.7 15.9 L27.0 12.75 27.2 12.85 27.15 16.05 23.9 16.55 23.7 15.9" fill="url(#gradient24)" fill-rule="evenodd" stroke="none"/>
      <path d="M26.8 17.8 L8.95 17.45 9.2 12.65 27.0 12.75 26.8 17.8" fill="url(#gradient25)" fill-rule="evenodd" stroke="none"/>
      <path d="M21.25 19.55 L27.2 14.4 28.75 36.75 25.35 38.75 21.25 19.55" fill="url(#gradient26)" fill-rule="evenodd" stroke="none"/>
      <path d="M28.75 36.75 L26.5 38.1 26.55 33.85 27.15 14.45 27.2 14.45 28.75 36.75" fill="url(#gradient27)" fill-rule="evenodd" stroke="none"/>
      <path d="M25.35 38.75 L26.5 35.75 28.75 36.75 25.35 38.75" fill="url(#gradient28)" fill-rule="evenodd" stroke="none"/>
      <path d="M25.35 38.7 L7.2 38.65 9.0 14.4 27.15 14.45 25.35 38.7" fill="url(#gradient29)" fill-rule="evenodd" stroke="none"/>
      <path d="M8.75 17.45 Q15.55 17.3 26.9 17.65 L26.75 19.4 Q18.25 19.05 8.65 19.05 L8.75 17.45" fill="url(#gradient30)" fill-rule="evenodd" stroke="none"/>
      <path d="M8.8 16.5 Q17.35 16.4 26.95 16.7 L26.85 17.75 Q19.65 17.45 8.75 17.45 L8.8 16.5" fill="url(#gradient31)" fill-rule="evenodd" stroke="none"/>
    </g>
    <linearGradient gradientTransform="matrix(0.0065, -7.0E-4, -6.0E-4, -0.0074, 40.35, 26.1)" gradientUnits="userSpaceOnUse" id="gradient23" spreadMethod="pad" x1="-819.2" x2="819.2">
      <stop offset="0.00784313725490196" stop-color="#bf7910"/>
      <stop offset="1.0" stop-color="#8f5900"/>
    </linearGradient>
    <linearGradient gradientTransform="matrix(0.0018, 0.0, 0.0, -0.0018, 25.65, 14.65)" gradientUnits="userSpaceOnUse" id="gradient24" spreadMethod="pad" x1="-819.2" x2="819.2">
      <stop offset="0.0" stop-color="#fff6e8"/>
      <stop offset="1.0" stop-color="#b09a74"/>
    </linearGradient>
    <linearGradient gradientTransform="matrix(0.0095, 0.0, 0.0, -0.0095, 19.05, 15.2)" gradientUnits="userSpaceOnUse" id="gradient25" spreadMethod="pad" x1="-819.2" x2="819.2">
      <stop offset="0.0" stop-color="#fff6e8"/>
      <stop offset="1.0" stop-color="#dec8a4"/>
    </linearGradient>
    <linearGradient gradientTransform="matrix(-3.0E-4, 0.0132, 0.0132, 3.0E-4, 25.05, 25.9)" gradientUnits="userSpaceOnUse" id="gradient26" spreadMethod="pad" x1="-819.2" x2="819.2">
      <stop offset="0.0" stop-color="#876533"/>
      <stop offset="1.0" stop-color="#dbbc8e"/>
    </linearGradient>
    <linearGradient gradientTransform="matrix(0.0038, 9.0E-4, 9.0E-4, -0.0038, 27.2, 26.35)" gradientUnits="userSpaceOnUse" id="gradient27" spreadMethod="pad" x1="-819.2" x2="819.2">
      <stop offset="0.0" stop-color="#7d5b2a"/>
      <stop offset="1.0" stop-color="#d4b68a"/>
    </linearGradient>
    <linearGradient gradientTransform="matrix(0.0023, 0.0015, 0.0015, -0.0023, 25.8, 36.95)" gradientUnits="userSpaceOnUse" id="gradient28" spreadMethod="pad" x1="-819.2" x2="819.2">
      <stop offset="0.0" stop-color="#87622d"/>
      <stop offset="1.0" stop-color="#d4b68a"/>
    </linearGradient>
    <linearGradient gradientTransform="matrix(0.0099, 0.0118, 0.0118, -0.0099, 16.6, 25.85)" gradientUnits="userSpaceOnUse" id="gradient29" spreadMethod="pad" x1="-819.2" x2="819.2">
      <stop offset="0.0" stop-color="#fff6e8"/>
      <stop offset="1.0" stop-color="#dec8a4"/>
    </linearGradient>
    <linearGradient gradientTransform="matrix(0.0096, 0.0, 0.0, -0.0096, 18.85, 18.4)" gradientUnits="userSpaceOnUse" id="gradient30" spreadMethod="pad" x1="-819.2" x2="819.2">
      <stop offset="0.00784313725490196" stop-color="#ffffff"/>
      <stop offset="1.0" stop-color="#fae5c6"/>
    </linearGradient>
    <linearGradient gradientTransform="matrix(0.0096, 0.0, 0.0, -0.0096, 18.95, 17.15)" gradientUnits="userSpaceOnUse" id="gradient31" spreadMethod="pad" x1="-819.2" x2="819.2">
      <stop offset="0.00784313725490196" stop-color="#ffb13b"/>
      <stop offset="1.0" stop-color="#d18c19"/>
    </linearGradient>
    <g id="sprite10" transform="matrix(1.0, 0.0, 0.0, 1.0, 0.0, 0.0)">
      <use height="24.3" transform="matrix(1.0028, 0.0, 0.0, 1.0, 0.0, 0.0)" width="18.15" xlink:href="#shape16"/>
    </g>
    <g id="shape16" transform="matrix(1.0, 0.0, 0.0, 1.0, 0.0, 0.0)">
      <path d="M17.2 3.5 L17.25 1.05 Q17.05 0.4 15.8 0.5 L0.0 0.25 0.0 0.0 18.15 0.05 16.35 24.3 9.35 24.3 10.15 24.25 Q13.15 24.15 14.7 23.0 15.45 22.4 15.6 21.85 L17.2 3.5" fill="#ffffff" fill-rule="evenodd" stroke="none"/>
    </g>
    <g id="sprite11" transform="matrix(1.0, 0.0, 0.0, 1.0, 0.0, 0.0)">
      <use height="24.25" transform="matrix(1.0, 0.0, 0.0, 1.0, 0.0, 0.0)" width="4.35" xlink:href="#shape17"/>
    </g>
    <g id="shape17" transform="matrix(1.0, 0.0, 0.0, 1.0, 0.0, 0.0)">
      <path d="M1.8 0.0 L2.8 0.0 2.05 11.55 1.55 21.45 2.05 22.85 Q2.7 23.85 4.35 24.25 L0.0 24.25 1.8 0.0" fill="#d18619" fill-rule="evenodd" stroke="none"/>
    </g>
    <g id="shape18" transform="matrix(1.0, 0.0, 0.0, 1.0, -10.55, -23.3)">
      <path d="M10.55 27.9 L12.05 27.35 16.9 26.75 Q20.15 26.8 22.25 27.55 23.25 27.95 23.65 28.35 20.95 30.6 18.3 30.65 L12.1 30.25 10.55 27.9" fill="url(#gradient32)" fill-rule="evenodd" stroke="none"/>
      <path d="M24.6 23.3 L25.3 23.6 25.05 24.35 18.7 27.15 19.2 26.4 24.6 23.3" fill="url(#gradient33)" fill-rule="evenodd" stroke="none"/>
    </g>
    <linearGradient gradientTransform="matrix(0.008, 0.0, 0.0, -0.008, 17.1, 28.7)" gradientUnits="userSpaceOnUse" id="gradient32" spreadMethod="pad" x1="-819.2" x2="819.2">
      <stop offset="0.00784313725490196" stop-color="#5e3b07"/>
      <stop offset="1.0" stop-color="#543400"/>
    </linearGradient>
    <linearGradient gradientTransform="matrix(0.0038, 4.0E-4, 4.0E-4, -0.0034, 22.0, 25.25)" gradientUnits="userSpaceOnUse" id="gradient33" spreadMethod="pad" x1="-819.2" x2="819.2">
      <stop offset="0.00784313725490196" stop-color="#eb9514"/>
      <stop offset="1.0" stop-color="#ad6c00"/>
    </linearGradient>
    <g id="sprite12" transform="matrix(1.0, 0.0, 0.0, 1.0, 0.0, 0.0)">
      <use height="5.3" transform="matrix(1.1681, 0.0, 0.0, 0.6698, 0.0, 0.0)" width="5.65" xlink:href="#shape4"/>
    </g>
    <g id="shape19" transform="matrix(1.0, 0.0, 0.0, 1.0, -18.6, -21.3)">
      <path d="M23.5 21.3 L24.25 21.5 24.2 22.35 18.6 26.8 18.95 25.95 23.5 21.3" fill="url(#gradient34)" fill-rule="evenodd" stroke="none"/>
    </g>
    <linearGradient gradientTransform="matrix(0.0038, -5.0E-4, -5.0E-4, -0.0038, 21.4, 24.05)" gradientUnits="userSpaceOnUse" id="gradient34" spreadMethod="pad" x1="-819.2" x2="819.2">
      <stop offset="0.00784313725490196" stop-color="#eb9514"/>
      <stop offset="1.0" stop-color="#ad6c00"/>
    </linearGradient>
    <g id="sprite13" transform="matrix(1.0, 0.0, 0.0, 1.0, 0.0, 0.0)">
      <use height="5.3" transform="matrix(1.0, 0.0, 0.0, 1.0, 0.0, 0.0)" width="5.65" xlink:href="#shape4"/>
    </g>
    <g id="shape20" transform="matrix(1.0, 0.0, 0.0, 1.0, -11.0, -24.1)">
      <path d="M22.65 28.0 Q23.1 28.1 23.1 28.55 23.1 29.15 22.6 29.15 L22.4 29.05 21.95 29.25 21.9 29.25 Q21.05 30.75 19.6 31.25 18.6 31.55 16.4 31.2 14.2 30.9 13.35 30.25 13.05 30.0 12.9 29.45 L12.5 29.55 Q11.85 29.55 11.55 29.0 11.0 28.8 11.0 28.2 11.0 27.55 11.7 27.35 L11.7 27.25 Q11.7 26.5 12.55 26.4 12.55 26.1 12.8 25.9 13.05 25.65 13.4 25.65 L13.75 25.7 14.05 25.25 Q14.4 24.55 15.35 24.55 L15.45 24.55 Q15.75 24.15 16.2 24.15 16.65 24.15 16.95 24.5 17.25 24.1 17.8 24.1 18.6 24.1 18.85 24.95 19.15 24.8 19.4 24.8 20.25 24.8 20.5 25.55 20.95 25.55 21.3 25.9 L21.6 26.65 Q22.2 26.8 22.2 27.3 L22.65 28.0" fill="#ffffff" fill-rule="evenodd" stroke="none"/>
    </g>
    <g id="sprite14" transform="matrix(1.0, 0.0, 0.0, 1.0, 0.0, 0.0)">
      <use height="6.65" transform="matrix(1.0, 0.0, 0.0, 1.0, 0.0, 0.0)" width="12.1" xlink:href="#shape21"/>
    </g>
    <g id="shape21" transform="matrix(1.0, 0.0, 0.0, 1.0, 0.0, 0.0)">
      <path d="M8.1 5.85 Q8.95 5.9 9.15 5.1 9.4 4.35 8.35 4.65 7.8 4.85 7.55 5.35 7.35 5.85 8.1 5.85 M6.1 4.95 Q5.55 5.05 5.45 5.55 5.35 6.1 6.1 6.05 6.9 6.0 6.9 5.4 6.9 4.75 6.1 4.95 M7.15 4.1 Q6.8 4.45 7.2 4.6 7.65 4.7 8.15 4.2 8.65 3.7 7.9 3.7 7.45 3.7 7.15 4.1 M9.7 2.65 Q9.9 1.95 9.3 1.95 8.85 1.95 8.6 2.65 8.35 3.35 8.9 3.35 9.5 3.4 9.7 2.65 M10.8 4.45 Q11.3 4.05 10.55 4.0 10.15 4.0 9.9 4.3 9.65 4.6 9.95 4.75 10.3 4.9 10.8 4.45 M10.35 3.6 Q10.85 3.2 10.2 3.15 9.9 3.15 9.55 3.45 9.2 3.8 9.5 3.9 9.85 4.05 10.35 3.6 M10.3 1.8 L10.6 2.55 Q11.2 2.7 11.2 3.2 11.55 3.4 11.65 3.9 12.1 4.0 12.1 4.45 L11.85 4.95 11.6 5.05 11.4 4.95 10.95 5.15 10.9 5.15 10.4 5.85 7.6 6.65 3.05 5.3 4.25 5.3 Q5.15 5.2 5.15 4.4 L6.0 4.2 Q6.75 3.85 6.55 3.25 L6.8 3.35 7.4 3.25 Q7.9 2.95 7.9 2.05 L8.2 2.05 8.7 1.75 Q9.05 1.35 8.5 0.9 L8.4 0.9 7.85 1.05 Q7.6 0.2 6.8 0.2 6.3 0.2 6.0 0.6 5.7 0.25 5.3 0.25 4.85 0.25 4.55 0.65 L4.45 0.65 Q3.55 0.65 3.2 1.35 L2.95 1.8 2.6 1.75 Q2.25 1.75 2.0 2.0 1.75 2.2 1.75 2.5 0.9 2.6 0.9 3.35 L0.95 3.45 Q0.3 3.6 0.3 4.3 L0.5 4.9 Q0.0 4.65 0.0 4.1 0.0 3.45 0.7 3.25 L0.7 3.15 Q0.7 2.4 1.55 2.3 1.55 2.0 1.8 1.8 2.05 1.55 2.4 1.55 L2.75 1.6 3.05 1.15 Q3.4 0.45 4.35 0.45 L4.45 0.45 Q4.75 0.05 5.2 0.05 5.65 0.05 5.95 0.4 6.25 0.0 6.8 0.0 7.6 0.0 7.85 0.85 L8.4 0.7 Q9.25 0.7 9.5 1.45 9.95 1.45 10.3 1.8" fill="#000000" fill-rule="evenodd" stroke="none"/>
    </g>
    <g id="shape22" transform="matrix(1.0, 0.0, 0.0, 1.0, -10.55, -27.9)">
      <path d="M10.55 27.9 Q12.9 29.35 16.05 29.55 19.7 29.85 23.65 28.35 23.3 30.8 21.4 32.45 19.5 34.1 16.95 34.0 14.4 33.95 12.55 32.2 10.7 30.45 10.55 27.9" fill="url(#gradient35)" fill-rule="evenodd" stroke="none"/>
    </g>
    <linearGradient gradientTransform="matrix(0.008, 0.0, 0.0, -0.008, 17.1, 30.95)" gradientUnits="userSpaceOnUse" id="gradient35" spreadMethod="pad" x1="-819.2" x2="819.2">
      <stop offset="0.00784313725490196" stop-color="#bf7910"/>
      <stop offset="1.0" stop-color="#8f5900"/>
    </linearGradient>
  </defs>
</svg>
