<?xml version="1.0" encoding="UTF-8" standalone="no"?>
<svg xmlns:xlink="http://www.w3.org/1999/xlink" height="117.7px" width="102.2px" xmlns="http://www.w3.org/2000/svg">
  <g transform="matrix(1.0, 0.0, 0.0, 1.0, 0.0, 0.0)">
    <use height="13.4" transform="matrix(1.0, 0.0, 0.0, 1.0, 25.7, 104.3)" width="50.8" xlink:href="#shape0"/>
  </g>
  <defs>
    <g id="shape0" transform="matrix(1.0, 0.0, 0.0, 1.0, -25.7, -104.3)">
      <path d="M30.05 115.65 L30.35 115.7 30.7 115.8 32.45 115.75 33.25 115.55 34.0 115.05 34.05 115.05 34.1 115.05 Q34.7 115.0 35.8 113.85 36.05 113.6 35.7 114.2 L34.85 115.25 Q34.15 115.85 33.2 116.1 L31.0 116.25 29.45 115.65 29.0 115.25 29.75 115.6 30.05 115.65 M38.85 111.75 L38.8 111.7 42.4 110.85 73.9 104.3 73.95 104.3 74.05 104.35 74.5 104.6 74.5 104.65 Q74.05 104.35 70.2 105.2 L56.45 108.1 43.55 110.9 40.35 111.75 38.85 111.75" fill="#7f796d" fill-rule="evenodd" stroke="none"/>
      <path d="M74.5 104.65 L74.55 104.65 74.6 104.75 Q74.95 105.25 74.65 105.5 L69.6 106.45 44.05 111.7 39.1 113.0 Q38.95 113.15 38.75 113.25 L38.5 113.55 38.25 114.15 37.8 114.8 37.7 114.9 35.9 116.55 Q34.5 117.55 33.4 117.65 L31.25 117.6 Q30.25 117.4 29.35 116.85 28.55 116.35 28.0 116.15 L27.05 115.85 Q26.6 115.7 26.45 115.55 L26.05 115.05 26.05 115.0 Q25.9 114.7 26.05 114.5 L26.1 114.55 26.9 114.75 27.95 114.8 Q28.55 114.95 28.55 115.15 L28.6 115.4 29.05 115.9 Q29.65 116.45 30.9 116.85 L33.5 116.9 35.3 116.1 Q36.1 115.65 36.7 114.2 36.1 113.7 35.8 113.05 L36.6 112.45 37.75 112.85 37.55 112.4 37.7 112.05 37.7 112.0 38.45 111.8 40.25 111.95 44.6 111.0 50.95 109.7 61.4 107.55 70.75 105.55 73.1 105.25 Q74.25 105.05 74.5 104.65" fill="#322f28" fill-rule="evenodd" stroke="none"/>
      <path d="M74.5 104.65 Q74.25 105.05 73.1 105.25 L70.75 105.55 61.4 107.55 50.95 109.7 44.6 111.0 40.25 111.95 38.45 111.8 38.85 111.75 40.35 111.75 43.55 110.9 56.45 108.1 70.2 105.2 Q74.05 104.35 74.5 104.65 M37.7 112.05 L37.55 112.4 37.75 112.85 36.6 112.45 35.8 113.05 Q36.1 113.7 36.7 114.2 36.1 115.65 35.3 116.1 L33.5 116.9 30.9 116.85 Q29.65 116.45 29.05 115.9 L28.6 115.4 28.55 115.15 Q28.55 114.95 27.95 114.8 L26.9 114.75 26.1 114.55 26.95 114.1 28.5 114.15 29.5 114.5 29.45 114.8 Q29.3 115.05 29.45 115.25 L30.05 115.65 29.75 115.6 29.0 115.25 29.45 115.65 31.0 116.25 33.2 116.1 Q34.15 115.85 34.85 115.25 L35.7 114.2 Q36.05 113.6 35.8 113.85 34.7 115.0 34.1 115.05 L34.05 115.05 34.5 114.65 35.5 113.4 35.8 113.05 Q36.4 112.45 37.2 112.15 L37.7 112.05" fill="#575246" fill-rule="evenodd" stroke="none"/>
      <path d="M38.15 112.65 L41.1 112.9 48.95 112.9 57.75 112.65 67.55 112.35 74.0 112.1 75.15 112.0 66.75 112.1 65.3 112.1 70.7 111.95 76.05 111.5 76.05 112.25 75.3 112.5 71.5 112.8 63.3 113.1 52.85 113.45 Q46.3 113.75 42.2 113.55 L35.75 113.0 34.85 112.25 34.0 111.3 Q33.3 110.7 31.85 110.6 30.35 110.55 29.45 111.1 28.25 111.85 28.1 112.75 L26.65 112.65 Q26.25 112.65 25.9 112.95 L26.05 112.65 26.6 112.25 27.45 111.85 28.6 111.0 Q29.35 110.3 30.05 110.1 L31.85 109.75 Q33.55 109.55 36.1 111.05 L36.95 111.6 36.7 111.6 36.1 111.75 35.9 111.9 35.9 111.85 35.85 111.95 35.65 112.1 35.65 112.2 Q35.65 112.75 36.4 112.95 L37.55 113.05 38.15 112.9 38.15 112.65 M32.95 110.0 L30.1 110.2 Q28.45 110.7 28.3 111.75 L28.8 111.15 Q29.6 110.55 30.85 110.3 32.2 110.05 33.25 110.3 L34.75 110.9 35.6 111.25 Q34.45 110.25 32.95 110.0 M26.75 112.35 L26.55 112.45 27.1 112.35 27.95 112.4 Q27.8 112.15 27.3 112.2 L26.75 112.35 M37.9 112.55 L37.8 112.7 36.9 112.9 36.55 112.8 37.3 112.75 37.65 112.5 37.9 112.55" fill="#575246" fill-rule="evenodd" stroke="none"/>
      <path d="M76.05 111.5 L76.1 111.5 76.3 111.85 Q76.55 112.25 76.45 112.7 76.3 113.35 75.95 113.35 L45.65 114.15 41.1 114.0 38.05 113.8 37.35 113.75 37.25 113.75 37.0 113.7 35.95 113.4 34.9 112.8 33.75 111.9 Q32.75 111.25 31.65 111.35 L29.7 111.75 Q29.05 112.0 28.9 112.35 L28.85 112.85 28.9 113.3 28.05 113.7 26.65 113.85 Q25.45 113.75 25.75 113.15 L25.85 112.95 25.9 112.95 Q26.25 112.65 26.65 112.65 L28.1 112.75 Q28.25 111.85 29.45 111.1 30.35 110.55 31.85 110.6 33.3 110.7 34.0 111.3 L34.85 112.25 35.75 113.0 42.2 113.55 Q46.3 113.75 52.85 113.45 L63.3 113.1 71.5 112.8 75.3 112.5 76.05 112.25 76.05 111.5 M37.65 112.3 L37.65 112.4 37.65 112.5 37.3 112.75 36.55 112.8 36.9 112.9 37.8 112.7 37.9 112.55 37.9 112.45 37.9 112.3 38.05 112.35 38.15 112.45 38.15 112.65 38.15 112.9 37.55 113.05 36.4 112.95 Q35.65 112.75 35.65 112.2 L35.65 112.1 35.85 111.95 35.9 111.85 35.9 111.9 36.4 112.45 Q36.65 112.55 36.65 111.75 36.65 111.65 36.8 111.65 L37.0 111.95 37.2 112.5 37.55 112.05 37.65 112.3" fill="#322f28" fill-rule="evenodd" stroke="none"/>
      <path d="M37.65 112.4 L37.9 112.45 37.9 112.55 37.65 112.5 37.65 112.4 M26.75 112.35 L27.3 112.2 Q27.8 112.15 27.95 112.4 L27.1 112.35 26.55 112.45 26.75 112.35 M32.95 110.0 Q34.45 110.25 35.6 111.25 L34.75 110.9 33.25 110.3 Q32.2 110.05 30.85 110.3 29.6 110.55 28.8 111.15 L28.3 111.75 Q28.45 110.7 30.1 110.2 L32.95 110.0" fill="#7f796d" fill-rule="evenodd" stroke="none"/>
      <path d="M36.95 111.6 L37.6 112.05 37.65 112.3 37.55 112.05 37.2 112.5 37.0 111.95 36.8 111.65 Q36.65 111.65 36.65 111.75 36.65 112.55 36.4 112.45 L35.9 111.9 36.1 111.75 36.7 111.6 36.95 111.6" fill="#635d50" fill-rule="evenodd" stroke="none"/>
    </g>
  </defs>
</svg>
