<?xml version="1.0" encoding="UTF-8" standalone="no"?>
<svg xmlns:xlink="http://www.w3.org/1999/xlink" height="90.0px" width="216.0px" xmlns="http://www.w3.org/2000/svg">
  <g transform="matrix(1.0, 0.0, 0.0, 1.0, 0.0, 0.0)">
    <use height="91.65" transform="matrix(1.0, 0.0, 0.0, 1.0, 34.15, 16.7)" width="131.55" xlink:href="#shape0"/>
  </g>
  <defs>
    <g id="shape0" transform="matrix(1.0, 0.0, 0.0, 1.0, -34.15, -16.7)">
      <path d="M63.4 57.9 L68.45 57.9 68.25 58.2 Q67.5 59.75 67.25 61.15 66.9 63.7 68.05 66.15 69.85 70.0 73.95 72.1 77.75 74.05 80.5 75.3 L80.55 75.4 Q82.5 76.65 83.2 78.3 L83.35 78.7 74.5 78.65 Q74.2 76.95 71.95 75.75 L71.2 75.3 68.7 74.05 65.55 71.55 Q63.5 69.85 62.5 65.75 61.85 63.4 62.25 61.15 62.6 59.55 63.4 57.9" fill="url(#gradient0)" fill-rule="evenodd" stroke="none"/>
      <path d="M68.7 74.05 L65.75 71.8 Q63.2 69.6 62.15 65.6 61.6 63.4 62.0 61.15 62.25 59.55 63.1 57.9 L63.4 57.9 Q62.6 59.55 62.25 61.15 61.85 63.4 62.5 65.75 63.5 69.85 65.55 71.55 L68.7 74.05" fill="url(#gradient1)" fill-rule="evenodd" stroke="none"/>
      <path d="M68.8 57.9 L71.7 57.9 Q70.95 59.55 70.95 61.15 70.95 63.3 72.3 65.45 74.7 69.65 78.6 71.65 L84.0 74.6 Q85.4 75.6 86.3 77.1 L83.4 78.7 83.35 78.7 83.2 78.3 Q82.5 76.65 80.55 75.4 L80.5 75.3 74.25 72.0 Q70.2 69.85 68.5 66.05 67.4 63.65 67.75 61.15 68.0 59.65 68.7 58.1 L68.8 57.9" fill="url(#gradient2)" fill-rule="evenodd" stroke="none"/>
      <path d="M68.45 57.9 L68.8 57.9 68.7 58.1 Q68.0 59.65 67.75 61.15 67.4 63.65 68.5 66.05 70.2 69.85 74.25 72.0 L80.5 75.3 Q77.75 74.05 73.95 72.1 69.85 70.0 68.05 66.15 66.9 63.7 67.25 61.15 67.5 59.75 68.25 58.2 L68.45 57.9" fill="url(#gradient3)" fill-rule="evenodd" stroke="none"/>
      <path d="M73.25 74.75 Q75.45 73.6 78.5 73.6 81.5 73.6 83.65 74.75 85.85 75.95 85.85 77.5 85.85 79.15 83.65 80.35 81.5 81.45 78.5 81.45 75.4 81.45 73.25 80.35 71.1 79.15 71.1 77.5 71.1 75.95 73.25 74.75" fill="url(#gradient4)" fill-rule="evenodd" stroke="none"/>
      <path d="M89.35 78.85 Q80.5 79.55 75.25 78.95 L79.0 76.7 80.65 76.65 82.3 76.75 Q82.5 77.8 89.35 78.85" fill="url(#gradient5)" fill-rule="evenodd" stroke="none"/>
      <path d="M77.3 79.05 L74.0 79.4 Q73.6 79.05 70.4 78.85 75.2 77.6 75.9 77.2 L77.8 75.65 77.3 79.05" fill="url(#gradient6)" fill-rule="evenodd" stroke="none"/>
      <path d="M135.1 57.9 L135.45 57.9 Q136.25 59.55 136.5 61.15 136.9 63.4 136.4 65.6 135.3 69.6 132.8 71.8 L129.85 74.05 132.95 71.55 Q135.0 69.85 136.05 65.75 136.65 63.4 136.25 61.15 135.95 59.55 135.1 57.9" fill="url(#gradient7)" fill-rule="evenodd" stroke="none"/>
      <path d="M129.85 74.05 L127.3 75.3 126.6 75.75 Q124.3 76.95 124.05 78.65 L115.15 78.7 115.35 78.3 Q116.05 76.65 118.0 75.4 L118.05 75.3 124.55 72.1 Q128.65 70.0 130.45 66.15 131.6 63.7 131.25 61.15 131.0 59.75 130.25 58.2 L130.1 57.9 135.1 57.9 Q135.95 59.55 136.25 61.15 136.65 63.4 136.05 65.75 135.0 69.85 132.95 71.55 L129.85 74.05" fill="url(#gradient8)" fill-rule="evenodd" stroke="none"/>
      <path d="M129.7 57.9 L130.1 57.9 130.25 58.2 Q131.0 59.75 131.25 61.15 131.6 63.7 130.45 66.15 128.65 70.0 124.55 72.1 L118.05 75.3 124.25 72.0 Q128.3 69.85 130.0 66.05 131.1 63.65 130.75 61.15 130.5 59.65 129.85 58.1 L129.7 57.9" fill="url(#gradient9)" fill-rule="evenodd" stroke="none"/>
      <path d="M115.15 78.7 L115.1 78.7 112.25 77.1 Q113.1 75.6 114.5 74.6 115.95 73.65 119.9 71.65 123.8 69.65 126.25 65.45 127.55 63.3 127.55 61.15 127.6 59.55 126.85 57.9 L129.7 57.9 129.85 58.1 Q130.5 59.65 130.75 61.15 131.1 63.65 130.0 66.05 128.3 69.85 124.25 72.0 L118.05 75.3 118.0 75.4 Q116.05 76.65 115.35 78.3 L115.15 78.7" fill="url(#gradient10)" fill-rule="evenodd" stroke="none"/>
      <path d="M113.45 75.0 Q115.5 73.85 118.35 73.85 121.2 73.85 123.25 75.0 125.3 76.2 125.3 77.75 125.3 79.4 123.25 80.6 121.2 81.7 118.35 81.7 115.5 81.7 113.45 80.6 111.4 79.4 111.4 77.75 111.4 76.2 113.45 75.0" fill="url(#gradient11)" fill-rule="evenodd" stroke="none"/>
      <path d="M128.8 79.05 Q120.45 79.75 115.55 79.15 L119.05 76.9 120.65 76.85 122.2 76.95 Q122.35 78.0 128.8 79.05" fill="url(#gradient12)" fill-rule="evenodd" stroke="none"/>
      <path d="M117.45 79.25 L114.35 79.6 Q114.0 79.25 110.95 79.05 115.45 77.8 116.1 77.4 117.15 76.8 117.9 75.85 L117.45 79.25" fill="url(#gradient13)" fill-rule="evenodd" stroke="none"/>
      <path d="M58.7 97.35 Q56.6 95.8 54.75 93.85 51.4 90.4 49.85 84.1 48.25 77.65 50.7 71.45 53.05 65.7 58.25 59.8 L58.3 59.8 58.25 59.85 Q53.55 65.5 51.05 71.7 48.55 77.95 50.2 84.4 51.75 90.75 54.5 93.4 L58.7 97.35" fill="url(#gradient14)" fill-rule="evenodd" stroke="none"/>
      <path d="M58.3 59.8 L65.4 60.05 64.5 61.0 Q59.1 66.85 57.2 72.55 54.85 78.95 57.4 84.95 59.9 90.95 65.35 94.25 L73.95 99.4 74.05 99.55 Q76.65 101.4 77.7 104.0 L77.9 104.65 66.45 104.6 Q66.0 101.95 62.95 100.05 L62.0 99.4 58.7 97.35 54.5 93.4 Q51.75 90.75 50.2 84.4 48.55 77.95 51.05 71.7 53.55 65.5 58.25 59.85 L58.3 59.8" fill="url(#gradient15)" fill-rule="evenodd" stroke="none"/>
      <path d="M64.5 61.0 L65.45 60.05 68.9 60.1 Q64.25 65.45 61.95 71.0 59.35 77.2 62.75 83.9 66.15 90.45 71.35 93.6 L78.45 98.2 Q80.35 99.75 81.55 102.2 L77.95 104.65 77.9 104.65 77.7 104.0 Q76.65 101.4 74.05 99.55 L73.95 99.4 65.8 94.1 Q60.4 90.85 58.0 84.8 55.5 78.8 57.7 72.35 59.7 66.55 64.5 61.0" fill="url(#gradient16)" fill-rule="evenodd" stroke="none"/>
      <path d="M64.5 61.0 Q59.7 66.55 57.7 72.35 55.5 78.8 58.0 84.8 60.4 90.85 65.8 94.1 L73.95 99.4 65.35 94.25 Q59.9 90.95 57.4 84.95 54.85 78.95 57.2 72.55 59.1 66.85 64.5 61.0" fill="url(#gradient17)" fill-rule="evenodd" stroke="none"/>
      <path d="M63.5 101.65 Q66.8 100.5 71.35 100.5 75.85 100.5 79.1 101.65 82.35 102.85 82.35 104.4 82.35 106.05 79.1 107.25 75.85 108.35 71.35 108.35 66.75 108.35 63.5 107.25 60.25 106.05 60.25 104.4 60.25 102.85 63.5 101.65" fill="url(#gradient18)" fill-rule="evenodd" stroke="none"/>
      <path d="M88.75 103.3 Q74.0 102.15 76.65 104.6 L88.1 105.9 Q74.8 106.6 66.95 106.0 L72.55 103.8 75.05 103.7 Q75.6 103.7 75.8 101.3 L88.75 103.3" fill="url(#gradient19)" fill-rule="evenodd" stroke="none"/>
      <path d="M69.8 105.95 L64.85 106.3 59.45 105.75 67.7 104.1 Q69.3 103.5 70.55 102.55 L69.8 105.95" fill="url(#gradient20)" fill-rule="evenodd" stroke="none"/>
      <path d="M116.3 101.05 Q119.6 99.9 124.15 99.9 128.65 99.9 131.9 101.05 135.15 102.25 135.15 103.8 135.15 105.45 131.9 106.65 128.65 107.75 124.15 107.75 119.55 107.75 116.3 106.65 113.05 105.45 113.05 103.8 113.05 102.25 116.3 101.05" fill="url(#gradient21)" fill-rule="evenodd" stroke="none"/>
      <path d="M140.6 105.05 Q127.3 105.75 119.45 105.15 L125.1 102.9 127.55 102.85 130.05 102.95 Q130.35 104.0 140.6 105.05" fill="url(#gradient22)" fill-rule="evenodd" stroke="none"/>
      <path d="M122.5 105.25 L117.55 105.6 112.15 105.05 120.4 103.4 Q122.0 102.8 123.25 101.85 L122.5 105.25" fill="url(#gradient23)" fill-rule="evenodd" stroke="none"/>
      <path d="M119.45 104.8 L119.4 104.8 115.8 102.3 Q117.0 99.9 118.9 98.4 120.8 96.9 125.95 93.8 131.2 90.65 134.55 84.05 138.0 77.4 135.4 71.2 133.1 65.6 128.4 60.25 L131.85 60.2 132.8 61.15 Q137.6 66.65 139.6 72.55 141.85 78.95 139.35 84.95 136.9 90.95 131.55 94.25 126.3 97.45 123.4 99.55 L123.25 99.65 Q120.7 101.55 119.65 104.15 L119.45 104.8" fill="url(#gradient24)" fill-rule="evenodd" stroke="none"/>
      <path d="M132.8 61.15 L131.9 60.2 139.05 60.0 139.1 60.05 Q143.75 65.7 146.25 71.9 148.75 78.1 147.15 84.5 145.55 90.9 142.8 93.6 L138.65 97.5 135.35 99.55 134.35 100.15 Q131.35 102.1 130.85 104.75 L119.45 104.8 119.65 104.15 Q120.7 101.55 123.25 99.65 L123.4 99.55 132.0 94.45 Q137.45 91.15 139.95 85.15 142.45 79.1 140.15 72.7 138.2 67.05 132.8 61.15" fill="url(#gradient25)" fill-rule="evenodd" stroke="none"/>
      <path d="M139.05 60.0 L139.1 60.0 Q144.3 65.8 146.65 71.65 149.1 77.85 147.5 84.25 145.95 90.55 142.6 94.0 L138.65 97.5 142.8 93.6 Q145.55 90.9 147.15 84.5 148.75 78.1 146.25 71.9 143.75 65.7 139.1 60.05 L139.05 60.0" fill="url(#gradient26)" fill-rule="evenodd" stroke="none"/>
      <path d="M123.4 99.55 Q126.3 97.45 131.55 94.25 136.9 90.95 139.35 84.95 141.85 78.95 139.6 72.55 137.6 66.65 132.8 61.15 138.2 67.05 140.15 72.7 142.45 79.1 139.95 85.15 137.45 91.15 132.0 94.45 L123.4 99.55" fill="url(#gradient27)" fill-rule="evenodd" stroke="none"/>
      <path d="M139.75 51.65 L128.55 54.6 60.95 54.5 57.9 51.2 63.35 45.7 133.45 45.7 139.75 51.65" fill="#000000" fill-rule="evenodd" stroke="none"/>
      <path d="M139.4 60.85 L57.65 60.85 57.65 51.5 139.4 51.5 139.4 60.85" fill="url(#gradient28)" fill-rule="evenodd" stroke="none"/>
      <path d="M57.2 54.7 L57.2 54.9 Q59.15 54.7 59.25 53.4 61.7 52.55 62.4 51.05 L62.3 51.05 62.6 50.95 62.65 50.95 63.05 51.1 63.05 51.4 Q62.0 53.05 59.7 53.85 L59.0 54.85 Q58.2 55.45 57.55 55.45 56.9 55.45 56.9 55.0 L57.2 54.7" fill="url(#gradient29)" fill-rule="evenodd" stroke="none"/>
      <path d="M62.3 51.05 L62.4 51.05 Q61.7 52.55 59.25 53.4 59.15 54.7 57.2 54.9 L57.2 54.7 57.2 52.3 Q57.2 51.1 58.75 51.05 L62.3 51.05" fill="url(#gradient30)" fill-rule="evenodd" stroke="none"/>
      <path d="M57.2 57.9 L56.9 57.65 Q56.9 57.3 57.55 57.3 58.2 57.3 59.0 57.85 L59.7 58.7 Q62.0 59.45 63.05 60.95 L63.05 61.2 62.65 61.35 62.6 61.35 62.3 61.2 62.4 61.2 Q61.7 59.85 59.25 59.05 59.15 57.9 57.2 57.75 L57.2 57.9" fill="url(#gradient31)" fill-rule="evenodd" stroke="none"/>
      <path d="M57.2 57.9 L57.2 57.75 Q59.15 57.9 59.25 59.05 61.7 59.85 62.4 61.2 L62.3 61.2 58.75 61.2 Q57.2 61.2 57.2 60.15 L57.2 57.9" fill="url(#gradient32)" fill-rule="evenodd" stroke="none"/>
      <path d="M140.0 54.7 L140.0 54.9 Q138.0 54.7 137.95 53.4 135.5 52.55 134.75 51.05 L134.85 51.05 138.4 51.05 Q139.95 51.1 140.0 52.3 L140.0 54.7" fill="url(#gradient33)" fill-rule="evenodd" stroke="none"/>
      <path d="M134.85 51.05 L134.75 51.05 Q135.5 52.55 137.95 53.4 138.0 54.7 140.0 54.9 L140.0 54.7 140.25 55.0 Q140.25 55.45 139.6 55.45 138.95 55.45 138.2 54.85 137.55 54.3 137.45 53.85 135.15 53.05 134.15 51.4 L134.15 51.1 134.55 50.95 134.85 51.05" fill="url(#gradient34)" fill-rule="evenodd" stroke="none"/>
      <path d="M134.85 61.2 L134.55 61.35 134.15 61.2 134.15 60.95 Q135.15 59.45 137.45 58.7 137.55 58.3 138.2 57.85 138.95 57.3 139.6 57.3 140.25 57.3 140.25 57.65 L140.0 57.9 140.0 57.75 Q138.0 57.9 137.95 59.05 135.5 59.85 134.75 61.2 L134.85 61.2" fill="url(#gradient35)" fill-rule="evenodd" stroke="none"/>
      <path d="M140.0 57.9 L140.0 60.15 Q139.95 61.2 138.4 61.2 L134.85 61.2 134.75 61.2 Q135.5 59.85 137.95 59.05 138.0 57.9 140.0 57.75 L140.0 57.9" fill="url(#gradient36)" fill-rule="evenodd" stroke="none"/>
      <path d="M130.4 41.5 L130.2 41.4 Q129.35 40.05 128.95 39.85 126.85 38.7 122.85 38.8 L72.75 38.9 Q68.35 38.9 67.4 40.0 67.15 40.1 66.4 41.45 L66.3 41.65 63.35 41.5 Q60.85 41.25 60.75 40.4 L60.75 40.25 60.9 39.85 61.55 39.15 65.4 35.8 Q66.95 34.15 71.55 34.15 L125.35 34.15 Q129.7 34.1 131.9 35.7 L136.15 39.15 136.75 39.8 137.3 40.95 137.25 41.1 Q137.15 41.5 134.3 41.5 L130.4 41.5" fill="url(#gradient37)" fill-rule="evenodd" stroke="none"/>
      <path d="M130.2 41.4 L130.4 41.5 66.3 41.65 66.4 41.45 67.4 40.3 Q68.35 39.2 72.75 39.2 97.75 39.1 122.85 39.15 126.85 39.05 128.95 40.15 L130.2 41.4" fill="#3e3e3e" fill-rule="evenodd" stroke="none"/>
      <path d="M137.3 40.95 L136.75 39.8 136.15 39.15 131.9 35.7 Q129.7 34.1 125.35 34.15 L71.55 34.15 Q66.95 34.15 65.4 35.8 L61.55 39.15 60.9 39.85 60.75 40.25 60.2 40.1 Q60.25 39.35 61.15 38.75 L64.65 35.4 Q66.95 33.5 71.45 33.65 L126.15 33.65 Q130.65 33.5 133.0 35.4 L137.6 39.8 137.5 40.6 137.3 41.1 137.3 40.95" fill="#565656" fill-rule="evenodd" stroke="none"/>
      <path d="M66.4 41.45 Q67.15 40.1 67.4 40.0 68.35 38.9 72.75 38.9 L122.85 38.8 Q126.85 38.7 128.95 39.85 129.35 40.05 130.2 41.4 L128.95 40.15 Q126.85 39.05 122.85 39.15 97.75 39.1 72.75 39.2 68.35 39.2 67.4 40.3 L66.4 41.45" fill="#232323" fill-rule="evenodd" stroke="none"/>
      <path d="M98.5 41.0 Q98.5 41.85 93.3 42.35 L80.65 42.85 67.95 42.35 Q62.75 41.85 62.75 41.0 62.75 40.3 67.95 39.75 L80.65 39.25 93.3 39.75 Q98.5 40.3 98.5 41.0" fill="url(#gradient38)" fill-rule="evenodd" stroke="none"/>
      <path d="M93.75 39.5 Q93.75 40.5 89.8 41.15 L80.35 42.0 70.8 41.15 Q67.35 40.55 66.9 39.75 L66.85 39.5 Q66.85 38.5 70.8 37.75 L80.35 37.0 89.8 37.75 Q91.95 38.15 92.9 38.65 93.75 39.0 93.75 39.5 M72.8 39.8 Q72.8 40.15 73.35 40.5 73.8 40.9 75.0 41.1 L80.05 41.75 85.0 41.1 Q87.1 40.55 87.1 39.8 L87.1 39.6 Q86.85 38.95 85.0 38.35 L80.05 37.85 75.0 38.35 Q72.8 39.0 72.8 39.8" fill="url(#gradient39)" fill-rule="evenodd" stroke="none"/>
      <path d="M72.8 39.8 Q72.8 39.0 75.0 38.35 L80.05 37.85 85.0 38.35 Q86.85 38.95 87.1 39.6 L87.1 39.8 Q87.1 40.55 85.0 41.1 L80.05 41.75 75.0 41.1 Q73.8 40.9 73.35 40.5 72.8 40.15 72.8 39.8 M73.5 39.8 Q73.5 40.1 73.95 40.4 L75.4 40.9 80.05 41.45 84.6 40.9 Q86.45 40.45 86.45 39.8 L86.45 39.6 Q86.2 39.15 84.6 38.65 L80.05 38.2 75.4 38.65 Q73.5 39.15 73.5 39.8" fill="#6f1500" fill-rule="evenodd" stroke="none"/>
      <path d="M73.5 39.8 Q73.5 39.15 75.4 38.65 L80.05 38.2 84.6 38.65 Q86.2 39.15 86.45 39.6 L86.45 39.8 Q86.45 40.45 84.6 40.9 L80.05 41.45 75.4 40.9 73.95 40.4 Q73.5 40.1 73.5 39.8" fill="url(#gradient40)" fill-rule="evenodd" stroke="none"/>
      <path d="M80.15 39.6 L84.3 39.8 Q86.05 40.05 86.05 40.4 86.05 40.7 84.4 41.1 L80.65 41.55 76.45 41.2 Q74.35 40.7 74.35 40.4 74.35 40.05 76.0 39.8 L80.15 39.6" fill="url(#gradient41)" fill-rule="evenodd" stroke="none"/>
      <path d="M76.7 18.1 Q75.9 17.95 75.85 17.65 L75.85 17.6 Q75.85 17.25 76.9 17.0 L79.45 16.8 81.6 16.95 Q81.2 17.7 79.75 17.75 L76.7 18.1 M84.7 38.25 L84.7 39.9 Q84.55 40.25 83.45 40.5 L83.4 40.5 80.9 40.9 79.8 40.55 Q78.6 40.1 78.6 39.85 L78.65 39.75 81.0 39.3 Q83.3 39.15 84.3 38.35 L84.65 38.25 84.7 38.25" fill="#5a1200" fill-rule="evenodd" stroke="none"/>
      <path d="M82.35 19.05 L82.85 18.95 83.0 18.75 84.2 19.25 Q87.2 20.9 88.4 25.15 L88.5 25.4 88.55 25.65 88.7 26.3 Q87.35 27.4 80.5 27.4 L75.35 27.25 72.45 27.0 Q70.55 26.75 70.25 26.3 L70.45 25.85 70.45 25.75 70.5 25.3 Q71.85 20.8 75.05 19.15 75.25 19.0 75.4 18.95 L77.25 19.5 79.5 19.8 Q81.8 19.8 82.35 19.05" fill="url(#gradient42)" fill-rule="evenodd" stroke="none"/>
      <path d="M75.9 18.75 L76.9 19.15 79.45 19.4 81.3 19.25 81.95 19.15 82.0 19.15 82.35 19.05 Q81.8 19.8 79.5 19.8 L77.25 19.5 75.4 18.95 75.9 18.75 M77.0 18.2 L76.9 18.1 76.7 18.1 79.75 17.75 Q81.2 17.7 81.6 16.95 L81.95 17.0 82.3 17.15 82.1 17.35 Q81.75 17.95 81.0 18.05 L79.45 18.0 77.0 18.2 M80.9 40.9 L80.05 40.9 76.8 40.6 76.8 40.45 Q77.45 40.05 78.65 39.75 L78.6 39.85 Q78.6 40.1 79.8 40.55 L80.9 40.9" fill="#480e00" fill-rule="evenodd" stroke="none"/>
      <path d="M75.85 17.65 Q75.9 17.95 76.7 18.1 L76.9 18.1 77.0 18.2 79.45 18.35 81.8 18.2 Q81.85 18.1 81.95 18.1 L82.1 18.1 Q83.0 17.95 83.0 17.6 L83.0 18.6 82.9 18.85 82.85 18.95 82.35 19.05 82.0 19.15 81.95 19.15 81.3 19.25 79.45 19.4 76.9 19.15 75.9 18.75 75.85 18.6 75.85 17.65" fill="#a72d0e" fill-rule="evenodd" stroke="none"/>
      <path d="M83.0 17.6 Q83.0 17.95 82.1 18.1 L81.95 18.1 Q81.85 18.1 81.8 18.2 L79.45 18.35 77.0 18.2 79.45 18.0 81.0 18.05 Q81.75 17.95 82.1 17.35 L82.3 17.15 Q83.0 17.35 83.0 17.6 M76.8 40.6 L75.25 40.25 75.2 38.5 76.7 39.0 78.0 39.25 79.8 39.3 80.05 39.3 82.7 38.95 84.3 38.35 Q83.3 39.15 81.0 39.3 L78.65 39.75 Q77.45 40.05 76.8 40.45 L76.8 40.6 M70.25 26.3 Q70.55 26.75 72.45 27.0 L75.35 27.25 80.5 27.4 Q87.35 27.4 88.7 26.3 L88.8 27.0 88.2 27.1 87.45 27.2 80.45 27.65 79.6 27.65 77.5 27.65 75.95 27.6 71.7 27.2 70.85 27.05 70.1 26.95 70.15 26.8 70.25 26.3" fill="#370b00" fill-rule="evenodd" stroke="none"/>
      <path d="M91.05 26.75 L90.95 26.85 90.8 27.1 90.8 27.2 89.25 27.65 89.1 27.7 87.85 27.9 86.8 28.0 85.6 28.15 84.9 28.2 80.7 28.4 79.6 28.4 75.2 28.25 71.35 27.9 71.1 27.9 70.5 27.7 69.6 27.6 68.45 27.2 68.2 26.85 68.15 26.6 68.45 26.85 69.0 27.1 69.15 27.15 69.4 27.2 69.6 27.25 71.35 27.6 75.9 28.0 79.6 28.1 80.7 28.1 87.85 27.6 88.2 27.55 88.4 27.55 89.25 27.3 91.05 26.75" fill="#531200" fill-rule="evenodd" stroke="none"/>
      <path d="M89.35 25.4 L89.8 25.4 90.8 25.75 91.1 25.95 91.3 26.3 91.05 26.75 89.25 27.3 88.4 27.55 88.2 27.55 87.85 27.6 80.7 28.1 79.6 28.1 75.9 28.0 71.35 27.6 69.6 27.25 69.4 27.2 69.15 27.15 69.1 27.1 69.0 27.1 68.45 26.85 68.15 26.6 67.95 26.3 68.0 26.1 Q68.3 25.6 69.9 25.4 68.5 25.7 68.5 26.15 L68.6 26.4 Q68.95 26.75 70.1 26.95 L70.85 27.05 71.7 27.2 75.95 27.6 77.5 27.65 79.6 27.65 80.45 27.65 87.45 27.2 88.2 27.1 88.8 27.0 89.8 26.8 Q90.5 26.6 90.65 26.3 L90.75 26.15 90.75 26.0 Q90.6 25.7 89.7 25.45 L89.35 25.4" fill="url(#gradient43)" fill-rule="evenodd" stroke="none"/>
      <path d="M69.9 25.4 L70.5 25.3 70.45 25.75 70.45 25.85 70.25 26.3 70.15 26.8 70.1 26.95 Q68.95 26.75 68.6 26.4 L68.5 26.15 Q68.5 25.7 69.9 25.4" fill="url(#gradient44)" fill-rule="evenodd" stroke="none"/>
      <path d="M90.8 27.2 L90.55 27.65 90.0 29.15 89.2 32.9 89.1 33.75 88.9 34.05 88.7 34.65 87.25 36.5 85.4 37.85 85.35 37.9 84.7 38.25 84.65 38.25 84.3 38.35 82.7 38.95 80.05 39.3 79.8 39.3 78.0 39.25 76.7 39.0 75.2 38.5 74.95 38.35 72.7 36.85 Q71.7 36.0 71.05 34.95 L70.85 34.6 70.2 32.75 69.1 29.0 68.45 27.2 69.6 27.6 70.5 27.7 71.1 27.9 71.35 27.9 75.2 28.25 79.6 28.4 80.7 28.4 84.9 28.2 85.6 28.15 86.8 28.0 87.85 27.9 89.1 27.7 89.25 27.65 90.8 27.2 M69.0 27.1 L69.1 27.1 69.15 27.15 69.0 27.1" fill="url(#gradient45)" fill-rule="evenodd" stroke="none"/>
      <path d="M88.4 25.15 L88.55 25.3 88.85 25.35 89.1 25.4 89.35 25.4 89.7 25.45 Q90.6 25.7 90.75 26.0 L90.75 26.15 90.65 26.3 Q90.5 26.6 89.8 26.8 L88.8 27.0 88.7 26.3 88.55 25.65 88.5 25.4 88.4 25.15" fill="url(#gradient46)" fill-rule="evenodd" stroke="none"/>
      <path d="M71.05 34.95 L70.85 34.6 70.2 32.75 69.1 29.0 68.45 27.2 69.6 27.6 70.5 27.7 71.1 27.9 71.35 27.9 75.2 28.25 Q74.6 28.3 74.05 29.45 73.35 30.5 73.35 31.8 73.35 35.0 76.4 36.7 L76.65 36.85 76.7 36.9 Q77.2 37.2 77.6 37.3 79.2 38.0 81.0 38.0 83.7 38.0 86.35 36.4 L88.7 34.65 87.25 36.5 Q86.25 37.3 84.25 38.0 82.15 38.7 80.7 38.85 L77.5 38.6 74.75 37.8 72.45 36.1 71.4 35.25 71.05 34.95" fill="#000000" fill-opacity="0.14901961" fill-rule="evenodd" stroke="none"/>
      <path d="M87.25 36.5 L85.4 37.85 85.35 37.9 84.7 38.25 84.65 38.25 82.7 38.95 80.05 39.3 79.8 39.3 78.0 39.25 76.7 39.0 75.2 38.5 74.95 38.35 72.7 36.85 Q71.7 36.0 71.05 34.95 L71.4 35.25 72.45 36.1 74.75 37.8 77.5 38.6 80.7 38.85 Q82.15 38.7 84.25 38.0 86.25 37.3 87.25 36.5" fill="url(#gradient47)" fill-rule="evenodd" stroke="none"/>
      <path d="M75.2 28.25 L79.6 28.4 80.7 28.4 85.6 28.15 81.7 29.0 Q75.9 30.3 75.9 34.1 75.9 35.9 76.65 36.85 L76.4 36.7 Q73.35 35.0 73.35 31.8 73.35 30.5 74.05 29.45 74.6 28.3 75.2 28.25" fill="#000000" fill-opacity="0.078431375" fill-rule="evenodd" stroke="none"/>
      <path d="M75.95 27.6 L71.7 27.2 70.1 26.95 Q70.2 26.3 70.45 25.75 L70.5 25.3 Q71.95 20.2 75.9 18.75 L76.9 19.15 79.45 19.4 81.95 19.15 82.85 18.95 Q82.05 19.8 80.55 19.95 L76.9 20.0 Q75.05 19.95 73.35 21.65 L72.75 22.45 Q71.8 23.6 71.8 24.75 71.8 26.8 75.95 27.6" fill="#000000" fill-opacity="0.14901961" fill-rule="evenodd" stroke="none"/>
      <path d="M72.75 22.45 L72.7 23.2 Q72.7 25.35 75.6 26.3 77.8 27.1 80.4 27.1 87.5 27.1 88.5 25.4 L88.55 25.65 88.8 27.0 87.45 27.2 80.45 27.65 79.6 27.65 77.5 27.65 75.95 27.6 Q71.8 26.8 71.8 24.75 71.8 23.6 72.75 22.45" fill="#000000" fill-opacity="0.078431375" fill-rule="evenodd" stroke="none"/>
      <path d="M83.85 19.4 Q86.5 21.45 87.55 24.0 L88.25 25.6 85.15 26.1 Q84.55 24.05 82.95 20.85 L82.85 20.45 Q82.85 19.95 83.3 19.65 L83.85 19.4" fill="url(#gradient48)" fill-rule="evenodd" stroke="none"/>
      <path d="M84.3 26.3 L82.4 26.4 Q82.3 24.95 81.45 22.25 L81.35 21.9 81.45 21.25 81.8 20.95 Q83.25 22.8 83.95 25.0 L84.3 26.3" fill="url(#gradient49)" fill-rule="evenodd" stroke="none"/>
      <path d="M87.15 30.65 Q87.4 30.55 87.85 31.85 88.25 33.2 87.55 34.7 86.95 36.3 85.4 36.2 83.85 36.1 85.35 34.6 86.8 33.55 86.5 31.3 L86.65 30.95 Q86.85 30.65 87.15 30.65" fill="url(#gradient50)" fill-rule="evenodd" stroke="none"/>
      <path d="M72.7 41.45 L72.65 41.45 70.8 41.15 Q67.35 40.55 66.9 39.75 L66.85 39.5 67.25 38.95 67.2 39.15 Q67.2 40.0 70.15 40.25 L73.1 40.3 73.35 40.5 Q73.8 40.9 75.0 41.1 L75.05 41.15 74.25 41.25 72.75 41.45 72.7 41.45 M85.65 38.65 L85.7 38.2 85.15 37.9 84.6 37.8 86.35 37.55 88.05 37.8 90.1 38.3 89.05 38.2 87.95 38.85 86.9 39.3 Q86.55 38.95 85.65 38.65" fill="#000000" fill-opacity="0.2509804" fill-rule="evenodd" stroke="none"/>
      <path d="M73.1 40.3 L73.9 40.3 73.95 40.4 74.35 40.55 75.4 40.9 75.85 41.0 80.05 41.45 84.6 40.9 Q86.45 40.45 86.45 39.8 L86.45 39.6 86.25 39.45 85.35 38.9 85.65 38.65 Q86.55 38.95 86.9 39.3 L87.1 39.6 87.1 39.8 Q87.1 40.55 85.0 41.1 L80.05 41.75 75.05 41.15 75.0 41.1 Q73.8 40.9 73.35 40.5 L73.1 40.3" fill="#000000" fill-opacity="0.36862746" fill-rule="evenodd" stroke="none"/>
      <path d="M90.1 38.3 L91.05 38.6 Q92.8 39.15 92.8 39.8 L91.65 40.85 89.8 41.15 87.35 41.55 80.35 42.0 72.7 41.45 72.75 41.45 74.25 41.25 75.05 41.15 80.05 41.75 85.0 41.1 Q87.1 40.55 87.1 39.8 L87.1 39.6 86.9 39.3 87.95 38.85 89.05 38.2 90.1 38.3" fill="#000000" fill-opacity="0.32941177" fill-rule="evenodd" stroke="none"/>
      <path d="M116.45 39.15 L129.05 39.65 Q134.3 40.2 134.3 40.95 134.3 41.75 129.05 42.25 L116.45 42.8 103.75 42.25 Q98.55 41.75 98.55 40.95 98.55 40.2 103.75 39.65 L116.45 39.15" fill="url(#gradient51)" fill-rule="evenodd" stroke="none"/>
      <path d="M109.3 39.7 Q109.3 40.05 109.75 40.3 L111.2 40.8 115.8 41.35 120.35 40.8 Q122.2 40.35 122.2 39.7 L122.2 39.55 Q122.0 39.05 120.35 38.55 L115.8 38.1 111.2 38.55 Q109.3 39.1 109.3 39.7 M108.6 39.7 Q108.6 38.9 110.75 38.25 L115.8 37.75 120.8 38.25 Q122.65 38.85 122.9 39.5 L122.9 39.7 Q122.9 40.5 120.8 41.0 L115.8 41.65 110.75 41.0 Q109.6 40.8 109.15 40.4 108.6 40.05 108.6 39.7" fill="#6f1500" fill-rule="evenodd" stroke="none"/>
      <path d="M109.3 39.7 Q109.3 39.1 111.2 38.55 L115.8 38.1 120.35 38.55 Q122.0 39.05 122.2 39.55 L122.2 39.7 Q122.2 40.35 120.35 40.8 L115.8 41.35 111.2 40.8 109.75 40.3 Q109.3 40.05 109.3 39.7" fill="url(#gradient52)" fill-rule="evenodd" stroke="none"/>
      <path d="M108.6 39.7 Q108.6 40.05 109.15 40.4 109.6 40.8 110.75 41.0 L115.8 41.65 120.8 41.0 Q122.9 40.5 122.9 39.7 L122.9 39.5 Q122.65 38.85 120.8 38.25 L115.8 37.75 110.75 38.25 Q108.6 38.9 108.6 39.7 M102.7 39.65 L102.65 39.4 Q102.65 38.4 106.6 37.65 L116.15 36.9 125.6 37.65 Q127.7 38.05 128.65 38.55 129.55 38.9 129.55 39.4 129.55 40.4 125.6 41.05 L116.15 41.9 106.6 41.05 Q103.15 40.5 102.7 39.65" fill="url(#gradient53)" fill-rule="evenodd" stroke="none"/>
      <path d="M120.1 39.7 Q121.8 40.0 121.8 40.3 121.8 40.6 120.2 41.0 L116.45 41.45 112.25 41.1 Q110.15 40.6 110.15 40.3 110.15 40.0 111.8 39.7 L115.95 39.5 120.1 39.7" fill="url(#gradient54)" fill-rule="evenodd" stroke="none"/>
      <path d="M112.5 18.0 L112.65 18.0 112.8 18.1 115.25 18.25 117.6 18.1 Q117.6 18.0 117.75 18.0 L117.9 18.0 Q118.8 17.85 118.8 17.55 L118.8 18.55 118.7 18.75 118.6 18.85 118.1 19.0 117.8 19.05 117.75 19.05 117.1 19.15 115.25 19.3 112.65 19.05 Q111.8 18.9 111.65 18.65 L111.65 18.55 111.65 17.6 Q111.65 17.85 112.5 18.0" fill="#a72d0e" fill-rule="evenodd" stroke="none"/>
      <path d="M112.8 18.1 L112.65 18.0 112.5 18.0 115.55 17.65 Q117.0 17.6 117.4 16.85 L117.75 16.9 118.1 17.05 117.9 17.25 116.8 17.95 115.25 17.9 112.8 18.1 M111.65 18.65 Q111.8 18.9 112.65 19.05 L115.25 19.3 117.1 19.15 117.75 19.05 117.8 19.05 118.1 19.0 Q117.6 19.7 115.3 19.7 L113.05 19.45 111.2 18.85 111.65 18.65 M116.7 40.8 L115.8 40.8 112.6 40.5 112.6 40.35 114.4 39.65 114.4 39.75 Q114.4 40.05 115.6 40.5 L116.7 40.8" fill="#480e00" fill-rule="evenodd" stroke="none"/>
      <path d="M112.5 18.0 Q111.65 17.85 111.65 17.6 L111.65 17.55 Q111.65 17.15 112.65 16.9 L115.25 16.7 117.4 16.85 Q117.0 17.6 115.55 17.65 L112.5 18.0 M120.5 38.2 L120.5 39.8 Q120.35 40.15 119.25 40.4 L119.2 40.4 116.7 40.8 115.6 40.5 Q114.4 40.05 114.4 39.75 L114.4 39.65 116.8 39.2 Q119.05 39.1 120.1 38.25 L120.45 38.2 120.5 38.2" fill="#5a1200" fill-rule="evenodd" stroke="none"/>
      <path d="M118.1 19.0 L118.6 18.85 118.8 18.65 120.0 19.15 Q123.0 20.85 124.2 25.05 L124.3 25.3 124.35 25.55 124.5 26.2 124.5 26.25 Q123.1 27.3 116.25 27.3 L111.15 27.2 108.25 26.9 Q106.35 26.65 106.05 26.25 L106.2 25.75 106.2 25.65 106.3 25.2 Q107.6 20.7 110.8 19.05 L111.2 18.85 113.05 19.45 115.3 19.7 Q117.6 19.7 118.1 19.0" fill="url(#gradient55)" fill-rule="evenodd" stroke="none"/>
      <path d="M118.8 17.55 Q118.8 17.85 117.9 18.0 L117.75 18.0 Q117.6 18.0 117.6 18.1 L115.25 18.25 112.8 18.1 115.25 17.9 116.8 17.95 117.9 17.25 118.1 17.05 Q118.8 17.25 118.8 17.55 M112.6 40.5 L111.05 40.15 111.0 38.4 112.5 38.9 113.8 39.15 115.6 39.2 115.8 39.2 118.5 38.85 120.1 38.25 Q119.05 39.1 116.8 39.2 L114.4 39.65 112.6 40.35 112.6 40.5 M106.05 26.25 Q106.35 26.65 108.25 26.9 L111.15 27.2 116.25 27.3 Q123.1 27.3 124.5 26.25 L124.6 26.9 124.0 27.0 123.25 27.1 116.25 27.55 115.35 27.55 113.3 27.55 111.7 27.5 107.5 27.1 106.65 26.95 105.9 26.85 105.95 26.7 106.05 26.25" fill="#370b00" fill-rule="evenodd" stroke="none"/>
      <path d="M105.7 25.3 L106.3 25.2 106.2 25.65 106.2 25.75 106.05 26.25 105.95 26.7 105.9 26.85 Q104.75 26.65 104.35 26.3 L104.3 26.05 Q104.3 25.6 105.7 25.3" fill="url(#gradient56)" fill-rule="evenodd" stroke="none"/>
      <path d="M125.25 25.3 L125.6 25.35 126.6 25.65 126.9 25.85 127.1 26.2 126.8 26.65 125.0 27.25 124.2 27.45 124.0 27.45 123.6 27.5 116.5 28.0 115.35 28.0 111.65 27.9 107.1 27.5 105.4 27.2 105.2 27.1 104.95 27.05 104.9 27.0 104.8 27.0 104.25 26.8 103.9 26.5 103.75 26.2 103.8 26.0 Q104.1 25.5 105.7 25.3 104.3 25.6 104.3 26.05 L104.35 26.3 Q104.75 26.65 105.9 26.85 L106.65 26.95 107.5 27.1 111.7 27.5 113.3 27.55 115.35 27.55 116.25 27.55 123.25 27.1 124.0 27.0 124.6 26.9 125.6 26.7 126.45 26.25 126.55 26.05 126.55 25.9 Q126.4 25.6 125.5 25.4 L125.25 25.3" fill="url(#gradient57)" fill-rule="evenodd" stroke="none"/>
      <path d="M126.8 26.65 L126.75 26.8 126.6 27.0 126.6 27.1 125.0 27.55 124.9 27.6 123.6 27.8 122.6 27.9 121.35 28.1 120.7 28.15 116.5 28.3 115.35 28.3 111.0 28.15 107.1 27.8 106.9 27.8 106.3 27.65 105.4 27.5 104.25 27.1 104.0 26.8 103.9 26.5 104.25 26.8 104.8 27.0 104.95 27.05 105.2 27.1 105.4 27.2 107.1 27.5 111.65 27.9 115.35 28.0 116.5 28.0 123.6 27.5 124.0 27.45 124.2 27.45 125.0 27.25 126.8 26.65" fill="#531200" fill-rule="evenodd" stroke="none"/>
      <path d="M126.6 27.1 L126.3 27.55 125.8 29.05 124.95 32.8 124.9 33.65 124.7 33.95 124.5 34.55 123.05 36.4 121.2 37.75 121.15 37.8 Q120.8 37.95 120.5 38.2 L120.45 38.2 120.1 38.25 118.5 38.85 115.8 39.2 115.6 39.2 113.8 39.15 112.5 38.9 111.0 38.4 110.75 38.25 108.45 36.8 106.85 34.85 106.65 34.55 106.0 32.65 104.9 28.9 104.25 27.1 105.4 27.5 106.3 27.65 106.9 27.8 107.1 27.8 111.0 28.15 115.35 28.3 116.5 28.3 120.7 28.15 121.35 28.1 122.6 27.9 123.6 27.8 124.9 27.6 125.0 27.55 126.6 27.1 M104.8 27.0 L104.9 27.0 104.95 27.05 104.8 27.0" fill="url(#gradient58)" fill-rule="evenodd" stroke="none"/>
      <path d="M124.2 25.05 L124.35 25.2 124.65 25.25 124.9 25.3 125.25 25.3 125.5 25.4 Q126.4 25.6 126.55 25.9 L126.55 26.05 126.45 26.25 125.6 26.7 124.6 26.9 124.5 26.25 124.5 26.2 124.35 25.55 124.3 25.3 124.2 25.05" fill="url(#gradient59)" fill-rule="evenodd" stroke="none"/>
      <path d="M111.0 28.15 L115.35 28.3 116.5 28.3 121.35 28.1 117.5 28.9 Q111.65 30.2 111.65 34.0 111.65 35.8 112.45 36.8 112.3 36.65 112.15 36.6 109.15 34.9 109.15 31.7 109.15 30.45 109.85 29.35 110.4 28.2 111.0 28.15" fill="#000000" fill-opacity="0.078431375" fill-rule="evenodd" stroke="none"/>
      <path d="M106.85 34.85 L106.65 34.55 106.0 32.65 104.9 28.9 104.25 27.1 105.4 27.5 106.3 27.65 106.9 27.8 107.1 27.8 111.0 28.15 Q110.4 28.2 109.85 29.35 109.15 30.45 109.15 31.7 109.15 34.9 112.15 36.6 112.3 36.65 112.45 36.8 L112.5 36.85 113.4 37.25 Q115.0 37.9 116.8 37.9 119.45 37.9 122.15 36.35 123.75 35.4 124.5 34.55 L123.05 36.4 Q122.05 37.25 120.05 37.9 L116.5 38.75 113.3 38.5 110.55 37.75 108.25 36.0 107.15 35.15 106.85 34.85" fill="#000000" fill-opacity="0.14901961" fill-rule="evenodd" stroke="none"/>
      <path d="M123.05 36.4 L121.2 37.75 121.15 37.8 Q120.8 37.95 120.5 38.2 L120.45 38.2 118.5 38.85 115.8 39.2 115.6 39.2 113.8 39.15 112.5 38.9 111.0 38.4 110.75 38.25 108.45 36.8 106.85 34.85 107.15 35.15 108.25 36.0 110.55 37.75 113.3 38.5 116.5 38.75 120.05 37.9 Q122.05 37.25 123.05 36.4" fill="url(#gradient60)" fill-rule="evenodd" stroke="none"/>
      <path d="M111.7 27.5 L107.5 27.1 105.9 26.85 106.2 25.65 106.3 25.2 Q107.75 20.1 111.65 18.65 111.8 18.9 112.65 19.05 L115.25 19.3 117.75 19.05 118.6 18.85 Q117.85 19.7 116.35 19.9 L112.7 19.9 Q110.85 19.9 109.15 21.55 L108.5 22.35 Q107.55 23.5 107.55 24.65 107.55 26.7 111.7 27.5" fill="#000000" fill-opacity="0.14901961" fill-rule="evenodd" stroke="none"/>
      <path d="M108.5 22.35 L108.45 23.1 Q108.45 25.25 111.4 26.25 113.55 27.0 116.2 27.0 123.3 27.0 124.3 25.3 L124.35 25.55 124.6 26.9 123.25 27.1 116.25 27.55 115.35 27.55 113.3 27.55 111.7 27.5 Q107.55 26.7 107.55 24.65 107.55 23.5 108.5 22.35" fill="#000000" fill-opacity="0.078431375" fill-rule="evenodd" stroke="none"/>
      <path d="M119.65 19.3 Q122.3 21.35 123.35 23.9 L124.05 25.5 120.95 26.0 Q120.35 23.95 118.75 20.8 L118.6 20.35 Q118.6 19.9 119.05 19.55 L119.65 19.3" fill="url(#gradient61)" fill-rule="evenodd" stroke="none"/>
      <path d="M122.95 30.55 Q123.2 30.45 123.6 31.8 124.05 33.1 123.35 34.6 122.75 36.2 121.2 36.1 119.65 36.0 121.15 34.55 122.6 33.45 122.3 31.2 L122.45 30.9 Q122.65 30.55 122.95 30.55" fill="url(#gradient62)" fill-rule="evenodd" stroke="none"/>
      <path d="M117.6 20.85 Q119.0 22.7 119.75 24.95 L120.1 26.25 118.2 26.3 Q118.1 24.9 117.2 22.2 L117.15 21.8 117.25 21.15 117.6 20.85" fill="url(#gradient63)" fill-rule="evenodd" stroke="none"/>
      <path d="M108.45 41.4 L106.6 41.05 Q103.15 40.5 102.7 39.65 L102.65 39.4 Q102.65 39.15 103.05 38.85 L102.95 39.05 Q102.95 39.9 105.95 40.15 L108.9 40.2 109.15 40.4 Q109.6 40.8 110.75 41.0 L110.85 41.05 110.05 41.15 108.5 41.4 108.45 41.4 M121.45 38.55 L121.5 38.1 120.95 37.8 120.35 37.75 Q120.4 37.45 122.15 37.45 L123.85 37.75 125.85 38.2 124.85 38.1 Q124.65 38.1 123.75 38.75 123.25 39.15 122.65 39.2 122.35 38.85 121.45 38.55" fill="#000000" fill-opacity="0.2509804" fill-rule="evenodd" stroke="none"/>
      <path d="M125.85 38.2 L126.85 38.5 Q128.6 39.05 128.6 39.7 128.6 40.05 127.45 40.75 L125.6 41.05 123.1 41.45 116.15 41.9 108.45 41.4 108.5 41.4 110.05 41.15 110.85 41.05 115.8 41.65 120.8 41.0 Q122.9 40.5 122.9 39.7 L122.9 39.5 122.65 39.2 Q123.25 39.15 123.75 38.75 124.65 38.1 124.85 38.1 L125.85 38.2" fill="#000000" fill-opacity="0.32941177" fill-rule="evenodd" stroke="none"/>
      <path d="M108.9 40.2 L109.7 40.2 109.75 40.3 110.15 40.5 111.2 40.8 111.65 40.95 115.8 41.35 120.35 40.8 Q122.2 40.35 122.2 39.7 L122.2 39.55 122.05 39.35 121.15 38.8 121.45 38.55 Q122.35 38.85 122.65 39.2 L122.9 39.5 122.9 39.7 Q122.9 40.5 120.8 41.0 L115.8 41.65 110.85 41.05 110.75 41.0 Q109.6 40.8 109.15 40.4 L108.9 40.2" fill="#000000" fill-opacity="0.36862746" fill-rule="evenodd" stroke="none"/>
      <path d="M138.15 41.05 Q137.95 41.95 135.0 41.95 L62.7 41.95 Q59.6 41.95 59.5 40.95 L59.65 40.35 60.4 39.5 61.15 38.75 60.75 39.6 60.75 40.25 60.75 40.4 Q60.85 41.25 63.85 41.25 L133.9 41.25 Q136.75 41.25 136.95 40.45 L136.95 40.25 137.2 39.7 137.25 39.45 137.3 39.5 137.95 40.25 Q138.25 40.65 138.15 41.05" fill="#565656" fill-rule="evenodd" stroke="none"/>
      <path d="M59.5 40.95 Q59.6 41.95 62.7 41.95 L135.0 41.95 Q137.95 41.95 138.15 41.05 L138.15 47.15 Q137.6 50.7 135.15 50.7 L62.0 50.7 Q59.45 50.15 59.5 47.4 L59.5 40.95" fill="url(#gradient64)" fill-rule="evenodd" stroke="none"/>
      <path d="M99.85 95.95 Q72.65 95.95 53.35 93.35 34.15 90.7 34.15 87.0 34.15 83.25 53.35 80.65 72.65 78.0 99.85 78.0 127.15 78.0 146.4 80.65 165.7 83.25 165.7 87.0 165.7 90.7 146.4 93.35 127.1 95.95 99.85 95.95" fill="url(#gradient65)" fill-rule="evenodd" stroke="none"/>
    </g>
    <linearGradient gradientTransform="matrix(-0.0077, -0.0101, 0.0182, -0.0097, 69.3, 62.15)" gradientUnits="userSpaceOnUse" id="gradient0" spreadMethod="pad" x1="-819.2" x2="819.2">
      <stop offset="0.0" stop-color="#272727"/>
      <stop offset="0.4549019607843137" stop-color="#414141"/>
      <stop offset="0.7490196078431373" stop-color="#333333"/>
      <stop offset="1.0" stop-color="#121212"/>
    </linearGradient>
    <linearGradient gradientTransform="matrix(-0.0069, 0.0229, -0.0173, -0.003, 65.0, 63.05)" gradientUnits="userSpaceOnUse" id="gradient1" spreadMethod="pad" x1="-819.2" x2="819.2">
      <stop offset="0.0" stop-color="#121212"/>
      <stop offset="0.4549019607843137" stop-color="#c5c5c5"/>
      <stop offset="0.7490196078431373" stop-color="#535353"/>
      <stop offset="1.0" stop-color="#121212"/>
    </linearGradient>
    <linearGradient gradientTransform="matrix(-0.0073, -0.0209, 0.0204, -0.0054, 73.7, 46.65)" gradientUnits="userSpaceOnUse" id="gradient2" spreadMethod="pad" x1="-819.2" x2="819.2">
      <stop offset="0.0" stop-color="#121212"/>
      <stop offset="0.4549019607843137" stop-color="#414141"/>
      <stop offset="0.7490196078431373" stop-color="#333333"/>
      <stop offset="1.0" stop-color="#121212"/>
    </linearGradient>
    <linearGradient gradientTransform="matrix(0.0085, 0.0, -7.0E-4, 0.015, 74.15, 63.1)" gradientUnits="userSpaceOnUse" id="gradient3" spreadMethod="pad" x1="-819.2" x2="819.2">
      <stop offset="0.0" stop-color="#121212"/>
      <stop offset="0.4549019607843137" stop-color="#cbcbcb"/>
      <stop offset="0.7490196078431373" stop-color="#333333"/>
      <stop offset="1.0" stop-color="#121212"/>
    </linearGradient>
    <radialGradient cx="0" cy="0" gradientTransform="matrix(0.009, 0.0, 0.0, -0.0048, 78.5, 77.5)" gradientUnits="userSpaceOnUse" id="gradient4" r="819.2" spreadMethod="pad">
      <stop offset="0.08627450980392157" stop-color="#000000" stop-opacity="0.5686275"/>
      <stop offset="0.7098039215686275" stop-color="#000000" stop-opacity="0.0"/>
    </radialGradient>
    <radialGradient cx="0" cy="0" gradientTransform="matrix(0.0017, 0.0, 0.0, -0.0025, 80.65, 78.15)" gradientUnits="userSpaceOnUse" id="gradient5" r="819.2" spreadMethod="pad">
      <stop offset="0.1607843137254902" stop-color="#000000" stop-opacity="0.27058825"/>
      <stop offset="0.4117647058823529" stop-color="#000000" stop-opacity="0.27058825"/>
    </radialGradient>
    <radialGradient cx="0" cy="0" gradientTransform="matrix(0.0021, 0.0, 0.0, -0.0032, 75.75, 77.65)" gradientUnits="userSpaceOnUse" id="gradient6" r="819.2" spreadMethod="pad">
      <stop offset="0.1607843137254902" stop-color="#000000" stop-opacity="0.27058825"/>
      <stop offset="0.4117647058823529" stop-color="#000000" stop-opacity="0.27058825"/>
    </radialGradient>
    <linearGradient gradientTransform="matrix(0.0069, 0.0229, 0.0173, -0.003, 133.55, 63.05)" gradientUnits="userSpaceOnUse" id="gradient7" spreadMethod="pad" x1="-819.2" x2="819.2">
      <stop offset="0.0" stop-color="#121212"/>
      <stop offset="0.4549019607843137" stop-color="#c5c5c5"/>
      <stop offset="0.7490196078431373" stop-color="#535353"/>
      <stop offset="1.0" stop-color="#121212"/>
    </linearGradient>
    <linearGradient gradientTransform="matrix(0.0077, -0.0101, -0.0182, -0.0097, 129.2, 62.15)" gradientUnits="userSpaceOnUse" id="gradient8" spreadMethod="pad" x1="-819.2" x2="819.2">
      <stop offset="0.0" stop-color="#272727"/>
      <stop offset="0.4549019607843137" stop-color="#414141"/>
      <stop offset="0.7490196078431373" stop-color="#333333"/>
      <stop offset="1.0" stop-color="#121212"/>
    </linearGradient>
    <linearGradient gradientTransform="matrix(-0.0085, 0.0, 7.0E-4, 0.015, 124.45, 63.1)" gradientUnits="userSpaceOnUse" id="gradient9" spreadMethod="pad" x1="-819.2" x2="819.2">
      <stop offset="0.0" stop-color="#121212"/>
      <stop offset="0.4549019607843137" stop-color="#cbcbcb"/>
      <stop offset="0.7490196078431373" stop-color="#333333"/>
      <stop offset="1.0" stop-color="#121212"/>
    </linearGradient>
    <linearGradient gradientTransform="matrix(0.0073, -0.0209, -0.0204, -0.0054, 124.8, 46.65)" gradientUnits="userSpaceOnUse" id="gradient10" spreadMethod="pad" x1="-819.2" x2="819.2">
      <stop offset="0.0" stop-color="#121212"/>
      <stop offset="0.4549019607843137" stop-color="#414141"/>
      <stop offset="0.7490196078431373" stop-color="#333333"/>
      <stop offset="1.0" stop-color="#121212"/>
    </linearGradient>
    <radialGradient cx="0" cy="0" gradientTransform="matrix(0.0085, 0.0, 0.0, -0.0048, 118.35, 77.75)" gradientUnits="userSpaceOnUse" id="gradient11" r="819.2" spreadMethod="pad">
      <stop offset="0.08627450980392157" stop-color="#000000" stop-opacity="0.5686275"/>
      <stop offset="0.7098039215686275" stop-color="#000000" stop-opacity="0.0"/>
    </radialGradient>
    <radialGradient cx="0" cy="0" gradientTransform="matrix(0.0016, 0.0, 0.0, -0.0025, 120.65, 78.35)" gradientUnits="userSpaceOnUse" id="gradient12" r="819.2" spreadMethod="pad">
      <stop offset="0.1607843137254902" stop-color="#000000" stop-opacity="0.27058825"/>
      <stop offset="0.4117647058823529" stop-color="#000000" stop-opacity="0.27058825"/>
    </radialGradient>
    <radialGradient cx="0" cy="0" gradientTransform="matrix(0.002, 0.0, 0.0, -0.0032, 116.0, 77.85)" gradientUnits="userSpaceOnUse" id="gradient13" r="819.2" spreadMethod="pad">
      <stop offset="0.1607843137254902" stop-color="#000000" stop-opacity="0.27058825"/>
      <stop offset="0.4117647058823529" stop-color="#000000" stop-opacity="0.27058825"/>
    </radialGradient>
    <linearGradient gradientTransform="matrix(-0.0074, 0.0359, -0.0224, -0.0047, 53.2, 80.1)" gradientUnits="userSpaceOnUse" id="gradient14" spreadMethod="pad" x1="-819.2" x2="819.2">
      <stop offset="0.0" stop-color="#121212"/>
      <stop offset="0.4549019607843137" stop-color="#c5c5c5"/>
      <stop offset="0.7490196078431373" stop-color="#535353"/>
      <stop offset="1.0" stop-color="#121212"/>
    </linearGradient>
    <linearGradient gradientTransform="matrix(-0.0105, -0.0158, 0.0229, -0.0152, 58.8, 78.65)" gradientUnits="userSpaceOnUse" id="gradient15" spreadMethod="pad" x1="-819.2" x2="819.2">
      <stop offset="0.0" stop-color="#272727"/>
      <stop offset="0.4549019607843137" stop-color="#414141"/>
      <stop offset="0.7490196078431373" stop-color="#333333"/>
      <stop offset="1.0" stop-color="#121212"/>
    </linearGradient>
    <linearGradient gradientTransform="matrix(-0.0106, -0.0327, 0.0259, -0.0084, 63.6, 54.4)" gradientUnits="userSpaceOnUse" id="gradient16" spreadMethod="pad" x1="-819.2" x2="819.2">
      <stop offset="0.0" stop-color="#121212"/>
      <stop offset="0.4549019607843137" stop-color="#414141"/>
      <stop offset="0.7490196078431373" stop-color="#333333"/>
      <stop offset="1.0" stop-color="#121212"/>
    </linearGradient>
    <linearGradient gradientTransform="matrix(0.0109, 0.0, 0.0, 0.0234, 65.0, 80.2)" gradientUnits="userSpaceOnUse" id="gradient17" spreadMethod="pad" x1="-819.2" x2="819.2">
      <stop offset="0.0" stop-color="#121212"/>
      <stop offset="0.4549019607843137" stop-color="#cbcbcb"/>
      <stop offset="0.7490196078431373" stop-color="#333333"/>
      <stop offset="1.0" stop-color="#121212"/>
    </linearGradient>
    <radialGradient cx="0" cy="0" gradientTransform="matrix(0.0135, 0.0, 0.0, -0.0048, 71.35, 104.4)" gradientUnits="userSpaceOnUse" id="gradient18" r="819.2" spreadMethod="pad">
      <stop offset="0.08627450980392157" stop-color="#000000" stop-opacity="0.5686275"/>
      <stop offset="0.7098039215686275" stop-color="#000000" stop-opacity="0.0"/>
    </radialGradient>
    <radialGradient cx="0" cy="0" gradientTransform="matrix(0.0025, 0.0, 0.0, -0.0025, 75.05, 105.2)" gradientUnits="userSpaceOnUse" id="gradient19" r="819.2" spreadMethod="pad">
      <stop offset="0.1607843137254902" stop-color="#000000" stop-opacity="0.27058825"/>
      <stop offset="0.4117647058823529" stop-color="#000000" stop-opacity="0.27058825"/>
    </radialGradient>
    <radialGradient cx="0" cy="0" gradientTransform="matrix(0.0032, 0.0, 0.0, -0.0032, 67.45, 104.55)" gradientUnits="userSpaceOnUse" id="gradient20" r="819.2" spreadMethod="pad">
      <stop offset="0.1607843137254902" stop-color="#000000" stop-opacity="0.27058825"/>
      <stop offset="0.4117647058823529" stop-color="#000000" stop-opacity="0.27058825"/>
    </radialGradient>
    <radialGradient cx="0" cy="0" gradientTransform="matrix(0.0135, 0.0, 0.0, -0.0048, 124.15, 103.8)" gradientUnits="userSpaceOnUse" id="gradient21" r="819.2" spreadMethod="pad">
      <stop offset="0.08627450980392157" stop-color="#000000" stop-opacity="0.5686275"/>
      <stop offset="0.7098039215686275" stop-color="#000000" stop-opacity="0.0"/>
    </radialGradient>
    <radialGradient cx="0" cy="0" gradientTransform="matrix(0.0025, 0.0, 0.0, -0.0025, 127.55, 104.35)" gradientUnits="userSpaceOnUse" id="gradient22" r="819.2" spreadMethod="pad">
      <stop offset="0.1607843137254902" stop-color="#000000" stop-opacity="0.27058825"/>
      <stop offset="0.4117647058823529" stop-color="#000000" stop-opacity="0.27058825"/>
    </radialGradient>
    <radialGradient cx="0" cy="0" gradientTransform="matrix(0.0032, 0.0, 0.0, -0.0032, 120.15, 103.85)" gradientUnits="userSpaceOnUse" id="gradient23" r="819.2" spreadMethod="pad">
      <stop offset="0.1607843137254902" stop-color="#000000" stop-opacity="0.27058825"/>
      <stop offset="0.4117647058823529" stop-color="#000000" stop-opacity="0.27058825"/>
    </radialGradient>
    <linearGradient gradientTransform="matrix(0.0106, -0.0327, -0.0259, -0.0084, 133.75, 54.6)" gradientUnits="userSpaceOnUse" id="gradient24" spreadMethod="pad" x1="-819.2" x2="819.2">
      <stop offset="0.0" stop-color="#121212"/>
      <stop offset="0.4549019607843137" stop-color="#414141"/>
      <stop offset="0.7490196078431373" stop-color="#333333"/>
      <stop offset="1.0" stop-color="#121212"/>
    </linearGradient>
    <linearGradient gradientTransform="matrix(0.0105, -0.0158, -0.0229, -0.0152, 138.55, 78.8)" gradientUnits="userSpaceOnUse" id="gradient25" spreadMethod="pad" x1="-819.2" x2="819.2">
      <stop offset="0.0" stop-color="#272727"/>
      <stop offset="0.4549019607843137" stop-color="#414141"/>
      <stop offset="0.7490196078431373" stop-color="#333333"/>
      <stop offset="1.0" stop-color="#121212"/>
    </linearGradient>
    <linearGradient gradientTransform="matrix(0.0074, 0.0359, 0.0224, -0.0047, 144.1, 80.3)" gradientUnits="userSpaceOnUse" id="gradient26" spreadMethod="pad" x1="-819.2" x2="819.2">
      <stop offset="0.0" stop-color="#121212"/>
      <stop offset="0.4549019607843137" stop-color="#c5c5c5"/>
      <stop offset="0.7490196078431373" stop-color="#535353"/>
      <stop offset="1.0" stop-color="#121212"/>
    </linearGradient>
    <linearGradient gradientTransform="matrix(-0.0109, 0.0, 0.0, 0.0234, 132.35, 80.35)" gradientUnits="userSpaceOnUse" id="gradient27" spreadMethod="pad" x1="-819.2" x2="819.2">
      <stop offset="0.0" stop-color="#121212"/>
      <stop offset="0.4549019607843137" stop-color="#cbcbcb"/>
      <stop offset="0.7490196078431373" stop-color="#333333"/>
      <stop offset="1.0" stop-color="#121212"/>
    </linearGradient>
    <linearGradient gradientTransform="matrix(0.0499, 0.0, 0.0, 0.0057, 98.5, 56.2)" gradientUnits="userSpaceOnUse" id="gradient28" spreadMethod="pad" x1="-819.2" x2="819.2">
      <stop offset="0.0" stop-color="#121212"/>
      <stop offset="0.4549019607843137" stop-color="#4d4d4d"/>
      <stop offset="0.7490196078431373" stop-color="#343434"/>
      <stop offset="1.0" stop-color="#121212"/>
    </linearGradient>
    <linearGradient gradientTransform="matrix(-0.0032, 0.0031, -0.001, -6.0E-4, 62.4, 51.95)" gradientUnits="userSpaceOnUse" id="gradient29" spreadMethod="pad" x1="-819.2" x2="819.2">
      <stop offset="0.011764705882352941" stop-color="#b59000"/>
      <stop offset="0.4549019607843137" stop-color="#ffffff"/>
      <stop offset="0.7529411764705882" stop-color="#ffcf00"/>
      <stop offset="1.0" stop-color="#a3860c"/>
    </linearGradient>
    <linearGradient gradientTransform="matrix(-0.0029, 0.0, -1.0E-4, -0.002, 59.65, 50.7)" gradientUnits="userSpaceOnUse" id="gradient30" spreadMethod="pad" x1="-819.2" x2="819.2">
      <stop offset="0.011764705882352941" stop-color="#b59000"/>
      <stop offset="0.4549019607843137" stop-color="#ffffff"/>
      <stop offset="0.7529411764705882" stop-color="#ffcf00"/>
      <stop offset="1.0" stop-color="#a3860c"/>
    </linearGradient>
    <linearGradient gradientTransform="matrix(-0.0032, -0.0028, -0.001, 6.0E-4, 62.4, 60.4)" gradientUnits="userSpaceOnUse" id="gradient31" spreadMethod="pad" x1="-819.2" x2="819.2">
      <stop offset="0.011764705882352941" stop-color="#b59000"/>
      <stop offset="0.4549019607843137" stop-color="#ffffff"/>
      <stop offset="0.7529411764705882" stop-color="#ffcf00"/>
      <stop offset="1.0" stop-color="#a3860c"/>
    </linearGradient>
    <linearGradient gradientTransform="matrix(-0.0029, 0.0, -1.0E-4, 0.0018, 59.65, 61.55)" gradientUnits="userSpaceOnUse" id="gradient32" spreadMethod="pad" x1="-819.2" x2="819.2">
      <stop offset="0.011764705882352941" stop-color="#b59000"/>
      <stop offset="0.4549019607843137" stop-color="#ffffff"/>
      <stop offset="0.7529411764705882" stop-color="#ffcf00"/>
      <stop offset="1.0" stop-color="#a3860c"/>
    </linearGradient>
    <linearGradient gradientTransform="matrix(0.0029, 0.0, 1.0E-4, -0.002, 137.5, 50.7)" gradientUnits="userSpaceOnUse" id="gradient33" spreadMethod="pad" x1="-819.2" x2="819.2">
      <stop offset="0.011764705882352941" stop-color="#b59000"/>
      <stop offset="0.4549019607843137" stop-color="#ffffff"/>
      <stop offset="0.7529411764705882" stop-color="#ffcf00"/>
      <stop offset="1.0" stop-color="#a3860c"/>
    </linearGradient>
    <linearGradient gradientTransform="matrix(0.0032, 0.0031, 0.001, -6.0E-4, 134.75, 51.95)" gradientUnits="userSpaceOnUse" id="gradient34" spreadMethod="pad" x1="-819.2" x2="819.2">
      <stop offset="0.011764705882352941" stop-color="#b59000"/>
      <stop offset="0.4549019607843137" stop-color="#ffffff"/>
      <stop offset="0.7529411764705882" stop-color="#ffcf00"/>
      <stop offset="1.0" stop-color="#a3860c"/>
    </linearGradient>
    <linearGradient gradientTransform="matrix(0.0032, -0.0028, 0.001, 6.0E-4, 134.75, 60.4)" gradientUnits="userSpaceOnUse" id="gradient35" spreadMethod="pad" x1="-819.2" x2="819.2">
      <stop offset="0.011764705882352941" stop-color="#b59000"/>
      <stop offset="0.4549019607843137" stop-color="#ffffff"/>
      <stop offset="0.7529411764705882" stop-color="#ffcf00"/>
      <stop offset="1.0" stop-color="#a3860c"/>
    </linearGradient>
    <linearGradient gradientTransform="matrix(0.0029, 0.0, 1.0E-4, 0.0018, 137.5, 61.55)" gradientUnits="userSpaceOnUse" id="gradient36" spreadMethod="pad" x1="-819.2" x2="819.2">
      <stop offset="0.011764705882352941" stop-color="#b59000"/>
      <stop offset="0.4549019607843137" stop-color="#ffffff"/>
      <stop offset="0.7529411764705882" stop-color="#ffcf00"/>
      <stop offset="1.0" stop-color="#a3860c"/>
    </linearGradient>
    <linearGradient gradientTransform="matrix(0.0444, 0.0, 0.0, 0.0043, 94.8, 39.25)" gradientUnits="userSpaceOnUse" id="gradient37" spreadMethod="pad" x1="-819.2" x2="819.2">
      <stop offset="0.0" stop-color="#121212"/>
      <stop offset="0.4549019607843137" stop-color="#4d4d4d"/>
      <stop offset="0.7490196078431373" stop-color="#343434"/>
      <stop offset="1.0" stop-color="#121212"/>
    </linearGradient>
    <radialGradient cx="0" cy="0" gradientTransform="matrix(0.0196, 0.0, 0.0, 0.0024, 80.65, 41.0)" gradientUnits="userSpaceOnUse" id="gradient38" r="819.2" spreadMethod="pad">
      <stop offset="0.00392156862745098" stop-color="#000000"/>
      <stop offset="1.0" stop-color="#000000" stop-opacity="0.0"/>
    </radialGradient>
    <radialGradient cx="0" cy="0" gradientTransform="matrix(0.024, 0.0, 0.0, 0.024, 84.1, 38.35)" gradientUnits="userSpaceOnUse" id="gradient39" r="819.2" spreadMethod="pad">
      <stop offset="0.0" stop-color="#840000"/>
      <stop offset="0.4470588235294118" stop-color="#832715"/>
      <stop offset="0.7843137254901961" stop-color="#b24116"/>
      <stop offset="1.0" stop-color="#ca9588"/>
    </radialGradient>
    <radialGradient cx="0" cy="0" gradientTransform="matrix(0.0122, 0.0, 0.0, 0.0102, 81.35, 40.4)" gradientUnits="userSpaceOnUse" id="gradient40" r="819.2" spreadMethod="pad">
      <stop offset="0.00392156862745098" stop-color="#660000"/>
      <stop offset="0.4470588235294118" stop-color="#6c2011"/>
      <stop offset="0.7843137254901961" stop-color="#8f2902"/>
      <stop offset="1.0" stop-color="#a86a5b"/>
    </radialGradient>
    <radialGradient cx="0" cy="0" gradientTransform="matrix(0.0073, 0.0, 0.0, 0.002, 80.1, 40.4)" gradientUnits="userSpaceOnUse" id="gradient41" r="819.2" spreadMethod="pad">
      <stop offset="0.00392156862745098" stop-color="#000000"/>
      <stop offset="1.0" stop-color="#000000" stop-opacity="0.0"/>
    </radialGradient>
    <radialGradient cx="0" cy="0" fx="188.8" fy="0" gradientTransform="matrix(0.0208, 0.0, 0.0, 0.015, 81.15, 21.85)" gradientUnits="userSpaceOnUse" id="gradient42" r="819.2" spreadMethod="pad">
      <stop offset="0.0" stop-color="#840000"/>
      <stop offset="0.4470588235294118" stop-color="#832715"/>
      <stop offset="0.7843137254901961" stop-color="#b24116"/>
      <stop offset="1.0" stop-color="#ca9588"/>
    </radialGradient>
    <linearGradient gradientTransform="matrix(0.0104, 0.0, 0.0, 0.0017, 85.15, 26.95)" gradientUnits="userSpaceOnUse" id="gradient43" spreadMethod="pad" x1="-819.2" x2="819.2">
      <stop offset="0.0" stop-color="#cfa696"/>
      <stop offset="1.0" stop-color="#f5d4cc"/>
    </linearGradient>
    <linearGradient gradientTransform="matrix(-7.0E-4, 7.0E-4, -7.0E-4, -7.0E-4, 69.85, 26.45)" gradientUnits="userSpaceOnUse" id="gradient44" spreadMethod="pad" x1="-819.2" x2="819.2">
      <stop offset="0.0" stop-color="#ab9389"/>
      <stop offset="1.0" stop-color="#dbc2bc"/>
    </linearGradient>
    <radialGradient cx="0" cy="0" gradientTransform="matrix(0.0167, 0.0, 0.0, 0.0154, 81.45, 28.55)" gradientUnits="userSpaceOnUse" id="gradient45" r="819.2" spreadMethod="pad">
      <stop offset="0.0" stop-color="#840000"/>
      <stop offset="0.4470588235294118" stop-color="#832715"/>
      <stop offset="0.7843137254901961" stop-color="#b24116"/>
      <stop offset="1.0" stop-color="#ca9588"/>
    </radialGradient>
    <linearGradient gradientTransform="matrix(0.0014, 0.0, 0.0, 0.0011, 89.55, 26.1)" gradientUnits="userSpaceOnUse" id="gradient46" spreadMethod="pad" x1="-819.2" x2="819.2">
      <stop offset="0.0" stop-color="#ab9389"/>
      <stop offset="1.0" stop-color="#dbc2bc"/>
    </linearGradient>
    <linearGradient gradientTransform="matrix(-0.0099, -7.0E-4, 2.0E-4, -0.0027, 70.15, 34.65)" gradientUnits="userSpaceOnUse" id="gradient47" spreadMethod="pad" x1="-819.2" x2="819.2">
      <stop offset="0.011764705882352941" stop-color="#2b0000" stop-opacity="0.7490196"/>
      <stop offset="0.44313725490196076" stop-color="#641f12" stop-opacity="0.33333334"/>
      <stop offset="0.7843137254901961" stop-color="#782707" stop-opacity="0.0"/>
      <stop offset="1.0" stop-color="#a47a6f" stop-opacity="0.0"/>
    </linearGradient>
    <linearGradient gradientTransform="matrix(-0.0022, -0.0043, 9.0E-4, -3.0E-4, 88.4, 22.9)" gradientUnits="userSpaceOnUse" id="gradient48" spreadMethod="pad" x1="-819.2" x2="819.2">
      <stop offset="0.00784313725490196" stop-color="#ffffff" stop-opacity="0.7490196"/>
      <stop offset="1.0" stop-color="#ffffff" stop-opacity="0.0"/>
    </linearGradient>
    <linearGradient gradientTransform="matrix(-0.0013, -0.0037, 4.0E-4, -3.0E-4, 84.25, 24.05)" gradientUnits="userSpaceOnUse" id="gradient49" spreadMethod="pad" x1="-819.2" x2="819.2">
      <stop offset="0.00784313725490196" stop-color="#ffffff" stop-opacity="0.7490196"/>
      <stop offset="1.0" stop-color="#ffffff" stop-opacity="0.0"/>
    </linearGradient>
    <linearGradient gradientTransform="matrix(0.0013, -0.0035, 5.0E-4, 1.0E-4, 87.75, 34.6)" gradientUnits="userSpaceOnUse" id="gradient50" spreadMethod="pad" x1="-819.2" x2="819.2">
      <stop offset="0.00784313725490196" stop-color="#ffffff" stop-opacity="0.7490196"/>
      <stop offset="1.0" stop-color="#ffffff" stop-opacity="0.0"/>
    </linearGradient>
    <radialGradient cx="0" cy="0" gradientTransform="matrix(0.0196, 0.0, 0.0, 0.0024, 116.45, 40.95)" gradientUnits="userSpaceOnUse" id="gradient51" r="819.2" spreadMethod="pad">
      <stop offset="0.00392156862745098" stop-color="#000000"/>
      <stop offset="1.0" stop-color="#000000" stop-opacity="0.0"/>
    </radialGradient>
    <radialGradient cx="0" cy="0" gradientTransform="matrix(0.0122, 0.0, 0.0, 0.0102, 117.15, 40.3)" gradientUnits="userSpaceOnUse" id="gradient52" r="819.2" spreadMethod="pad">
      <stop offset="0.00392156862745098" stop-color="#660000"/>
      <stop offset="0.4470588235294118" stop-color="#6c2011"/>
      <stop offset="0.7843137254901961" stop-color="#8f2902"/>
      <stop offset="1.0" stop-color="#a86a5b"/>
    </radialGradient>
    <radialGradient cx="0" cy="0" gradientTransform="matrix(0.024, 0.0, 0.0, 0.024, 119.9, 38.25)" gradientUnits="userSpaceOnUse" id="gradient53" r="819.2" spreadMethod="pad">
      <stop offset="0.0" stop-color="#840000"/>
      <stop offset="0.4470588235294118" stop-color="#832715"/>
      <stop offset="0.7843137254901961" stop-color="#b24116"/>
      <stop offset="1.0" stop-color="#ca9588"/>
    </radialGradient>
    <radialGradient cx="0" cy="0" gradientTransform="matrix(0.0073, 0.0, 0.0, 0.002, 115.85, 40.3)" gradientUnits="userSpaceOnUse" id="gradient54" r="819.2" spreadMethod="pad">
      <stop offset="0.00392156862745098" stop-color="#000000"/>
      <stop offset="1.0" stop-color="#000000" stop-opacity="0.0"/>
    </radialGradient>
    <radialGradient cx="0" cy="0" fx="188.8" fy="0" gradientTransform="matrix(0.0208, 0.0, 0.0, 0.015, 116.95, 21.75)" gradientUnits="userSpaceOnUse" id="gradient55" r="819.2" spreadMethod="pad">
      <stop offset="0.0" stop-color="#840000"/>
      <stop offset="0.4470588235294118" stop-color="#832715"/>
      <stop offset="0.7843137254901961" stop-color="#b24116"/>
      <stop offset="1.0" stop-color="#ca9588"/>
    </radialGradient>
    <linearGradient gradientTransform="matrix(-7.0E-4, 7.0E-4, -7.0E-4, -7.0E-4, 105.65, 26.35)" gradientUnits="userSpaceOnUse" id="gradient56" spreadMethod="pad" x1="-819.2" x2="819.2">
      <stop offset="0.0" stop-color="#ab9389"/>
      <stop offset="1.0" stop-color="#dbc2bc"/>
    </linearGradient>
    <linearGradient gradientTransform="matrix(0.0104, 0.0, 0.0, 0.0017, 120.95, 26.85)" gradientUnits="userSpaceOnUse" id="gradient57" spreadMethod="pad" x1="-819.2" x2="819.2">
      <stop offset="0.0" stop-color="#cfa696"/>
      <stop offset="1.0" stop-color="#f5d4cc"/>
    </linearGradient>
    <radialGradient cx="0" cy="0" gradientTransform="matrix(0.0167, 0.0, 0.0, 0.0154, 117.2, 28.45)" gradientUnits="userSpaceOnUse" id="gradient58" r="819.2" spreadMethod="pad">
      <stop offset="0.0" stop-color="#840000"/>
      <stop offset="0.4470588235294118" stop-color="#832715"/>
      <stop offset="0.7843137254901961" stop-color="#b24116"/>
      <stop offset="1.0" stop-color="#ca9588"/>
    </radialGradient>
    <linearGradient gradientTransform="matrix(0.0014, 0.0, 0.0, 0.0011, 125.35, 26.0)" gradientUnits="userSpaceOnUse" id="gradient59" spreadMethod="pad" x1="-819.2" x2="819.2">
      <stop offset="0.0" stop-color="#ab9389"/>
      <stop offset="1.0" stop-color="#dbc2bc"/>
    </linearGradient>
    <linearGradient gradientTransform="matrix(-0.0099, -7.0E-4, 2.0E-4, -0.0027, 105.95, 34.55)" gradientUnits="userSpaceOnUse" id="gradient60" spreadMethod="pad" x1="-819.2" x2="819.2">
      <stop offset="0.011764705882352941" stop-color="#2b0000" stop-opacity="0.7490196"/>
      <stop offset="0.44313725490196076" stop-color="#641f12" stop-opacity="0.33333334"/>
      <stop offset="0.7843137254901961" stop-color="#782707" stop-opacity="0.0"/>
      <stop offset="1.0" stop-color="#a47a6f" stop-opacity="0.0"/>
    </linearGradient>
    <linearGradient gradientTransform="matrix(-0.0022, -0.0043, 9.0E-4, -3.0E-4, 124.2, 22.8)" gradientUnits="userSpaceOnUse" id="gradient61" spreadMethod="pad" x1="-819.2" x2="819.2">
      <stop offset="0.00784313725490196" stop-color="#ffffff" stop-opacity="0.7490196"/>
      <stop offset="1.0" stop-color="#ffffff" stop-opacity="0.0"/>
    </linearGradient>
    <linearGradient gradientTransform="matrix(0.0013, -0.0035, 5.0E-4, 1.0E-4, 123.55, 34.55)" gradientUnits="userSpaceOnUse" id="gradient62" spreadMethod="pad" x1="-819.2" x2="819.2">
      <stop offset="0.00784313725490196" stop-color="#ffffff" stop-opacity="0.7490196"/>
      <stop offset="1.0" stop-color="#ffffff" stop-opacity="0.0"/>
    </linearGradient>
    <linearGradient gradientTransform="matrix(-0.0013, -0.0037, 4.0E-4, -3.0E-4, 120.05, 24.0)" gradientUnits="userSpaceOnUse" id="gradient63" spreadMethod="pad" x1="-819.2" x2="819.2">
      <stop offset="0.00784313725490196" stop-color="#ffffff" stop-opacity="0.7490196"/>
      <stop offset="1.0" stop-color="#ffffff" stop-opacity="0.0"/>
    </linearGradient>
    <linearGradient gradientTransform="matrix(0.0681, 0.0, 0.0, 0.0054, 113.25, 55.95)" gradientUnits="userSpaceOnUse" id="gradient64" spreadMethod="pad" x1="-819.2" x2="819.2">
      <stop offset="0.0" stop-color="#121212"/>
      <stop offset="0.4549019607843137" stop-color="#4d4d4d"/>
      <stop offset="0.7490196078431373" stop-color="#343434"/>
      <stop offset="1.0" stop-color="#121212"/>
    </linearGradient>
    <radialGradient cx="0" cy="0" gradientTransform="matrix(0.0733, 0.0, 0.0, -0.01, 99.85, 87.0)" gradientUnits="userSpaceOnUse" id="gradient65" r="819.2" spreadMethod="pad">
      <stop offset="0.0" stop-color="#000000" stop-opacity="0.21960784"/>
      <stop offset="1.0" stop-color="#000000" stop-opacity="0.0"/>
    </radialGradient>
  </defs>
</svg>
