<?xml version="1.0" encoding="UTF-8" standalone="no"?>
<svg xmlns:xlink="http://www.w3.org/1999/xlink" height="53.65px" width="39.9px" xmlns="http://www.w3.org/2000/svg">
  <g transform="matrix(1.0, 0.0, 0.0, 1.0, 0.0, 0.0)">
    <use height="4.35" transform="matrix(1.0, 0.0, 0.0, 1.0, 0.9, 39.45)" width="18.05" xlink:href="#sprite0"/>
    <use height="3.9" transform="matrix(1.0, 0.0, 0.0, 1.0, 1.0, 39.45)" width="17.8" xlink:href="#sprite1"/>
    <use height="7.55" transform="matrix(1.0, 0.0, 0.0, 1.0, 1.0, 35.15)" width="17.9" xlink:href="#sprite2"/>
    <use height="6.85" transform="matrix(1.0, 0.0, 0.0, 1.0, 1.0, 35.85)" width="17.9" xlink:href="#sprite3"/>
    <use height="36.55" transform="matrix(1.0, 0.0, 0.0, 1.0, 0.0, 2.4)" width="20.3" xlink:href="#sprite4"/>
    <use height="31.0" transform="matrix(1.0, 0.0, 0.0, 1.0, 0.6, 7.95)" width="19.15" xlink:href="#shape5"/>
    <use height="5.15" transform="matrix(1.0, 0.0, 0.0, 1.0, 0.15, 0.0)" width="19.95" xlink:href="#sprite5"/>
    <use height="38.45" transform="matrix(1.0, 0.0, 0.0, 1.0, 0.65, 3.95)" width="18.95" xlink:href="#shape7"/>
    <use height="8.3" transform="matrix(1.0, 0.0, 0.0, 1.0, 1.4, 3.55)" width="16.15" xlink:href="#sprite6"/>
    <use height="26.45" transform="matrix(1.0, 0.0, 0.0, 1.0, 1.9, 3.5)" width="6.75" xlink:href="#sprite7"/>
    <use height="22.9" transform="matrix(1.0, 0.0, 0.0, 1.0, 14.05, 3.95)" width="4.25" xlink:href="#sprite8"/>
    <use height="39.2" transform="matrix(1.0, 0.0, 0.0, 1.0, 0.0, 0.0)" width="20.2" xlink:href="#shape11"/>
  </g>
  <defs>
    <g id="sprite0" transform="matrix(1.0, 0.0, 0.0, 1.0, 0.0, 0.0)">
      <use height="4.9" transform="matrix(0.8892, 0.0, 0.0, 0.8878, 0.0055, 0.0)" width="20.3" xlink:href="#shape0"/>
    </g>
    <g id="shape0" transform="matrix(1.0, 0.0, 0.0, 1.0, 0.05, 0.0)">
      <path d="M18.6 1.35 L20.1 0.0 Q20.35 0.4 20.15 1.2 L18.9 2.4 Q17.0 3.7 14.05 4.5 L11.9 4.85 11.9 4.9 8.3 4.9 8.3 4.85 6.15 4.5 Q3.2 3.7 1.3 2.4 L0.05 1.2 Q-0.15 0.55 0.1 0.05 1.7 2.1 6.15 3.25 L8.3 3.6 8.3 3.65 11.9 3.65 11.9 3.6 14.05 3.25 Q16.8 2.55 18.6 1.35" fill="#5e473c" fill-rule="evenodd" stroke="none"/>
    </g>
    <g id="sprite1" transform="matrix(1.0, 0.0, 0.0, 1.0, 0.0, 0.0)">
      <use height="4.25" transform="matrix(0.9082, 0.0, 0.0, 0.9176, 0.0, 0.0)" width="19.6" xlink:href="#shape1"/>
    </g>
    <g id="shape1" transform="matrix(1.0, 0.0, 0.0, 1.0, 0.0, 0.0)">
      <path d="M13.7 3.15 Q16.3 2.5 18.05 1.35 L19.6 0.0 19.6 0.3 18.85 1.35 Q15.6 4.05 10.15 4.25 5.95 4.4 2.55 2.5 0.85 1.55 0.0 0.55 L0.0 0.0 Q1.65 2.05 5.95 3.15 L8.05 3.5 8.05 3.55 11.6 3.55 11.6 3.5 13.7 3.15" fill="#ffffff" fill-rule="evenodd" stroke="none"/>
    </g>
    <g id="sprite2" transform="matrix(1.0, 0.0, 0.0, 1.0, 0.0, 0.0)">
      <use height="8.5" transform="matrix(0.8883, 0.0, 0.0, 0.8882, 0.0, 0.0)" width="20.15" xlink:href="#shape2"/>
    </g>
    <g id="shape2" transform="matrix(1.0, 0.0, 0.0, 1.0, 0.0, 0.0)">
      <path d="M18.7 3.55 L20.15 4.8 18.85 6.0 Q17.0 7.3 14.05 8.1 L11.9 8.45 11.9 8.5 8.25 8.5 8.25 8.45 6.1 8.1 Q3.15 7.3 1.3 6.0 L0.0 4.8 1.45 3.55 Q2.55 2.75 7.5 0.6 L10.15 0.0 12.65 0.6 15.25 1.8 18.7 3.55" fill="url(#gradient0)" fill-rule="evenodd" stroke="none"/>
    </g>
    <linearGradient gradientTransform="matrix(0.0, 0.0051, 0.0051, 0.0, 10.05, 4.4)" gradientUnits="userSpaceOnUse" id="gradient0" spreadMethod="pad" x1="-819.2" x2="819.2">
      <stop offset="0.0" stop-color="#7a7a7a"/>
      <stop offset="1.0" stop-color="#ffffff"/>
    </linearGradient>
    <g id="sprite3" transform="matrix(1.0, 0.0, 0.0, 1.0, 0.0, 0.0)">
      <use height="7.7" transform="matrix(0.8905, 0.0, 0.0, 0.8896, 0.0, 0.0)" width="20.1" xlink:href="#shape3"/>
    </g>
    <g id="shape3" transform="matrix(1.0, 0.0, 0.0, 1.0, 0.0, 0.0)">
      <path d="M18.7 2.75 L20.1 4.0 18.85 5.2 Q16.95 6.5 14.0 7.3 L11.9 7.65 11.9 7.7 8.25 7.7 8.25 7.65 6.1 7.3 Q3.15 6.5 1.3 5.2 L0.0 4.0 1.45 2.75 Q2.05 2.3 6.85 0.0 L4.25 1.95 Q3.6 2.45 3.55 2.9 3.45 3.45 3.95 4.15 4.8 5.4 5.8 5.85 L9.15 6.5 14.0 6.05 Q16.5 5.4 17.65 4.25 18.5 3.4 17.7 2.15 L18.7 2.75" fill="#e3e3e3" fill-rule="evenodd" stroke="none"/>
    </g>
    <g id="sprite4" transform="matrix(1.0, 0.0, 0.0, 1.0, 0.05, 0.0)">
      <use height="38.6" transform="matrix(0.9485, 0.0, 0.0, 0.9469, -0.0474, 0.0)" width="21.4" xlink:href="#shape4"/>
    </g>
    <g id="shape4" transform="matrix(1.0, 0.0, 0.0, 1.0, 0.05, 0.0)">
      <path d="M21.15 0.0 Q21.5 5.1 21.25 11.05 20.7 23.0 17.6 27.55 15.0 31.35 14.2 34.85 13.8 36.65 13.9 37.65 L13.5 38.15 Q12.7 38.65 10.7 38.6 L10.6 38.6 Q8.6 38.65 7.8 38.15 L7.4 37.65 Q7.5 36.65 7.1 34.85 6.3 31.35 3.7 27.55 0.8 23.3 0.15 12.5 -0.2 6.7 0.15 0.4 0.4 1.45 3.45 2.2 L10.65 2.9 18.1 2.1 Q21.15 1.35 21.15 0.2 L21.1 0.0 21.15 0.0" fill="#ffffff" fill-rule="evenodd" stroke="none"/>
    </g>
    <g id="shape5" transform="matrix(1.0, 0.0, 0.0, 1.0, -0.6, -7.95)">
      <path d="M19.55 7.95 L19.75 8.15 19.6 8.65 Q19.9 11.75 19.65 15.65 19.2 24.2 16.4 28.5 14.1 32.1 13.4 35.45 13.0 37.1 13.1 38.05 L12.75 38.5 10.25 38.95 10.15 38.95 Q8.35 39.0 7.65 38.5 L7.3 38.05 7.05 35.45 Q6.3 32.1 4.0 28.5 -0.05 22.15 0.7 8.9 1.1 10.7 10.2 10.7 L16.95 9.95 Q19.15 9.4 19.6 8.65 L19.55 7.95" fill="url(#gradient1)" fill-rule="evenodd" stroke="none"/>
    </g>
    <radialGradient cx="0" cy="0" gradientTransform="matrix(-3.0E-4, 0.0247, 0.0129, 2.0E-4, 7.2, 19.6)" gradientUnits="userSpaceOnUse" id="gradient1" r="819.2" spreadMethod="pad">
      <stop offset="0.0" stop-color="#ffef9c"/>
      <stop offset="1.0" stop-color="#ccb04b"/>
    </radialGradient>
    <g id="sprite5" transform="matrix(1.0, 0.0, 0.0, 1.0, 0.0, 0.0)">
      <use height="5.75" transform="matrix(0.8926, 0.0, 0.0, 0.8956, 0.0, 0.0)" width="22.35" xlink:href="#shape6"/>
    </g>
    <g id="shape6" transform="matrix(1.0, 0.0, 0.0, 1.0, 0.0, 0.0)">
      <path d="M22.35 2.9 Q22.35 4.1 19.1 4.95 L11.2 5.75 Q6.55 5.75 3.3 4.95 0.0 4.1 0.0 2.9 0.0 1.7 3.3 0.85 6.55 0.0 11.2 0.0 15.8 0.0 19.1 0.85 22.35 1.7 22.35 2.9" fill="#ffffff" fill-rule="evenodd" stroke="none"/>
    </g>
    <g id="shape7" transform="matrix(1.0, 0.0, 0.0, 1.0, -0.65, -3.95)">
      <path d="M10.65 7.5 Q18.2 7.05 19.15 7.6 20.05 8.1 19.1 9.3 18.05 10.6 15.55 11.65 13.4 12.55 9.45 12.6 5.55 12.6 3.15 11.85 0.65 11.05 0.65 8.9 0.65 8.5 1.6 8.35 L3.25 8.05 10.65 7.5" fill="#fffbf5" fill-rule="evenodd" stroke="none"/>
      <path d="M3.0 11.45 Q1.7 11.15 1.05 10.0 0.3 8.8 1.15 7.95 2.55 6.65 6.4 6.3 L10.15 5.85 Q12.6 5.55 14.55 5.8 19.5 6.4 19.6 8.15 19.65 9.65 15.45 11.2 10.05 13.2 3.0 11.45" fill="url(#gradient2)" fill-rule="evenodd" stroke="none"/>
      <path d="M3.5 6.05 L7.35 8.85 Q10.55 11.65 7.15 11.5 3.5 11.4 2.15 9.95 1.15 8.9 1.5 7.55 1.85 6.25 3.5 6.05" fill="#fffaf2" fill-rule="evenodd" stroke="none"/>
      <path d="M3.5 6.05 Q6.65 4.7 10.1 4.65 L15.8 5.3 Q18.25 5.75 17.85 7.45 17.5 9.05 15.0 10.55 12.8 11.85 8.8 11.7 5.25 11.55 3.65 10.55 1.6 9.25 1.8 7.9 1.95 6.7 3.5 6.05" fill="url(#gradient3)" fill-rule="evenodd" stroke="none"/>
      <path d="M5.9 4.4 L7.15 6.6 Q8.1 8.75 6.45 8.75 4.6 8.75 3.7 7.85 2.9 7.15 3.05 6.15 3.2 5.45 4.55 4.85 L5.9 4.4" fill="#fffaf2" fill-rule="evenodd" stroke="none"/>
      <path d="M6.1 4.5 L10.4 3.95 Q11.3 4.0 13.2 4.6 14.9 5.15 13.3 6.75 11.65 8.4 8.95 8.75 6.5 9.05 5.6 8.75 4.75 8.5 3.75 7.25 2.9 6.2 3.85 5.4 4.6 4.8 6.1 4.5" fill="url(#gradient4)" fill-rule="evenodd" stroke="none"/>
      <path d="M3.75 38.25 L3.95 39.4 4.85 40.5 5.8 41.55 Q5.9 41.9 4.6 41.55 3.35 41.15 2.45 40.55 1.7 40.05 1.5 39.6 1.35 39.25 2.55 38.5 3.75 37.75 3.75 38.25" fill="#e3e3e3" fill-rule="evenodd" stroke="none"/>
      <path d="M13.9 41.4 Q15.7 41.25 15.15 41.7 14.65 42.2 13.45 42.35 12.55 42.5 12.95 41.95 13.35 41.45 13.9 41.4" fill="#e3e3e3" fill-rule="evenodd" stroke="none"/>
      <path d="M4.4 6.05 L5.25 6.2 5.35 6.85 Q5.35 7.4 7.05 7.2 6.0 7.9 4.9 7.55 4.1 7.3 4.05 6.7 4.0 6.1 4.4 6.05" fill="#fffacf" fill-rule="evenodd" stroke="none"/>
      <path d="M3.5 8.4 Q6.1 10.2 8.0 10.2 L5.3 10.4 Q3.85 10.25 3.25 9.8 L2.7 8.85 Q2.5 8.35 2.8 8.2 3.05 8.05 3.5 8.4" fill="#fffacf" fill-rule="evenodd" stroke="none"/>
      <path d="M14.75 7.1 Q15.65 7.1 15.3 7.55 14.9 8.05 14.4 7.95 13.95 7.9 14.15 7.5 14.3 7.1 14.75 7.1" fill="#faf09b" fill-rule="evenodd" stroke="none"/>
      <path d="M18.15 7.95 Q19.4 7.9 19.0 8.45 L18.05 9.1 Q17.65 9.2 17.7 8.6 17.75 8.0 18.15 7.95" fill="#faf09b" fill-rule="evenodd" stroke="none"/>
      <path d="M13.3 8.3 Q14.15 8.0 14.2 8.6 14.25 9.2 13.55 9.2 12.95 9.2 13.0 8.8 13.0 8.4 13.3 8.3" fill="#faf09b" fill-rule="evenodd" stroke="none"/>
    </g>
    <linearGradient gradientTransform="matrix(0.0257, 0.0, 0.0, -0.0257, 22.25, 8.95)" gradientUnits="userSpaceOnUse" id="gradient2" spreadMethod="pad" x1="-819.2" x2="819.2">
      <stop offset="0.0" stop-color="#ffef9c"/>
      <stop offset="1.0" stop-color="#ccb04b"/>
    </linearGradient>
    <linearGradient gradientTransform="matrix(0.0098, 0.0, 0.0, -0.0098, 9.85, 8.2)" gradientUnits="userSpaceOnUse" id="gradient3" spreadMethod="pad" x1="-819.2" x2="819.2">
      <stop offset="0.0" stop-color="#ffef9c"/>
      <stop offset="1.0" stop-color="#ccb04b"/>
    </linearGradient>
    <linearGradient gradientTransform="matrix(0.0065, 0.0, 0.0, -0.0065, 8.65, 6.4)" gradientUnits="userSpaceOnUse" id="gradient4" spreadMethod="pad" x1="-819.2" x2="819.2">
      <stop offset="0.0" stop-color="#ffef9c"/>
      <stop offset="1.0" stop-color="#ccb04b"/>
    </linearGradient>
    <g id="sprite6" transform="matrix(1.0, 0.0, 0.0, 1.0, 0.0, 0.0)">
      <use height="8.3" transform="matrix(1.0, 0.0, 0.0, 1.0, 0.0, 0.0)" width="16.15" xlink:href="#shape8"/>
    </g>
    <g id="shape8" transform="matrix(1.0, 0.0, 0.0, 1.0, 0.0, 0.0)">
      <path d="M11.25 1.9 L13.15 1.45 Q14.3 1.35 14.8 1.75 15.25 2.15 15.2 2.85 L14.9 4.2 Q14.65 5.2 13.85 5.7 L14.75 5.65 15.7 5.75 16.15 6.2 15.85 6.85 15.15 7.0 14.15 7.2 12.5 7.5 Q10.75 7.55 11.85 6.2 L13.95 3.35 Q14.15 2.85 13.65 2.5 L12.65 2.4 11.5 3.0 Q10.7 3.4 10.05 4.0 L8.95 5.75 7.7 7.5 Q6.95 8.2 6.45 8.3 L5.55 8.1 Q4.9 7.85 5.25 6.2 5.45 5.3 6.45 3.85 7.3 2.55 9.05 1.15 9.75 0.55 9.4 0.55 8.05 0.5 7.1 1.0 5.95 1.6 4.35 3.5 2.35 6.15 1.15 6.25 L0.2 6.15 0.0 5.6 Q-0.1 5.05 0.95 3.6 L2.2 2.1 3.05 1.4 4.05 0.7 4.45 0.5 4.95 0.5 Q5.2 0.55 4.95 0.75 L4.6 1.05 4.1 1.6 3.15 2.3 2.0 3.65 1.15 4.8 1.15 4.95 1.45 5.05 Q1.8 5.15 3.1 3.5 4.95 1.25 6.45 0.55 7.3 0.15 8.55 0.05 L10.05 0.05 Q10.95 0.15 10.45 1.1 L9.35 2.3 7.35 4.1 Q5.9 5.5 6.25 6.95 L6.6 6.65 8.35 4.2 Q9.35 2.55 11.25 1.9" fill="#ff3e03" fill-rule="evenodd" stroke="none"/>
    </g>
    <g id="sprite7" transform="matrix(1.0, 0.0, 0.0, 1.0, 0.0, 0.0)">
      <use height="26.45" transform="matrix(1.0, 0.0, 0.0, 1.0, 0.0, 0.0)" width="6.75" xlink:href="#shape9"/>
    </g>
    <g id="shape9" transform="matrix(1.0, 0.0, 0.0, 1.0, 0.0, 0.0)">
      <path d="M1.75 19.9 Q0.65 16.6 0.35 13.15 0.05 9.75 0.0 4.9 L0.1 0.0 4.0 1.35 Q6.35 15.6 6.7 22.5 6.9 26.8 5.65 26.4 L4.35 25.15 3.45 23.8 Q2.6 22.6 1.75 19.9" fill="url(#gradient5)" fill-rule="evenodd" stroke="none"/>
    </g>
    <linearGradient gradientTransform="matrix(0.0036, 0.0, 0.0, -0.0036, 1.15, 13.2)" gradientUnits="userSpaceOnUse" id="gradient5" spreadMethod="pad" x1="-819.2" x2="819.2">
      <stop offset="0.0" stop-color="#ffffff"/>
      <stop offset="1.0" stop-color="#000000"/>
    </linearGradient>
    <g id="sprite8" transform="matrix(1.0, 0.0, 0.0, 1.0, 0.15, 0.0)">
      <use height="22.9" transform="matrix(1.0, 0.0, 0.0, 1.0, -0.15, 0.0)" width="4.25" xlink:href="#shape10"/>
    </g>
    <g id="shape10" transform="matrix(1.0, 0.0, 0.0, 1.0, 0.15, 0.0)">
      <path d="M1.85 0.45 L3.85 0.0 4.05 5.7 Q4.35 13.6 2.7 18.35 1.8 21.0 0.55 22.35 -0.8 23.75 0.4 21.45 2.05 18.2 2.05 14.15 L1.85 0.45" fill="url(#gradient6)" fill-rule="evenodd" stroke="none"/>
    </g>
    <linearGradient gradientTransform="matrix(0.0, 0.0102, 0.0102, 0.0, 2.05, 9.65)" gradientUnits="userSpaceOnUse" id="gradient6" spreadMethod="pad" x1="-819.2" x2="819.2">
      <stop offset="0.0" stop-color="#ffffff"/>
      <stop offset="1.0" stop-color="#000000"/>
    </linearGradient>
    <g id="shape11" transform="matrix(1.0, 0.0, 0.0, 1.0, 0.0, 0.0)">
      <path d="M17.2 0.75 Q20.1 1.5 20.1 2.6 20.1 3.65 17.2 4.4 L10.15 5.15 3.1 4.4 Q0.15 3.65 0.15 2.6 0.15 1.5 3.1 0.75 6.0 0.0 10.15 0.0 L17.2 0.75 M10.2 4.45 L16.6 3.9 Q19.2 3.3 19.2 2.5 19.2 1.65 16.6 1.1 L10.2 0.5 3.85 1.1 Q1.2 1.7 1.2 2.5 1.2 3.3 3.85 3.9 L10.2 4.45" fill="#c9c9c9" fill-rule="evenodd" stroke="none"/>
      <path d="M15.9 4.7 L10.1 5.2 Q5.0 5.2 2.0 4.05 1.05 3.65 0.6 3.2 0.3 9.6 0.7 15.15 1.4 24.5 3.9 28.3 6.3 31.95 7.05 35.3 7.45 37.0 7.35 38.1 L7.9 38.5 9.95 38.75 10.25 38.75 Q12.75 38.75 12.9 38.05 12.8 37.0 13.2 35.3 13.95 31.95 16.35 28.3 20.35 22.25 19.65 3.2 18.7 4.15 15.9 4.7 M19.6 2.35 L19.45 1.9 19.95 1.95 20.0 2.15 Q20.35 7.45 20.1 13.05 19.55 24.2 16.7 28.55 14.4 32.1 13.6 35.4 13.25 37.05 13.35 38.05 13.35 39.2 10.25 39.2 L9.95 39.2 Q6.9 39.2 6.9 38.05 7.0 37.05 6.6 35.4 5.85 32.1 3.5 28.55 0.85 24.5 0.2 14.35 -0.15 8.3 0.2 2.55 L0.65 2.5 Q0.85 3.35 3.4 4.0 L10.1 4.75 16.95 4.0 Q19.6 3.25 19.6 2.35" fill="#c9c9c9" fill-rule="evenodd" stroke="none"/>
      <path d="M2.4 7.5 Q3.35 6.35 2.6 7.6 2.35 7.85 2.0 8.75 L2.05 9.1 2.05 9.2 Q1.7 9.2 1.7 8.75 1.65 8.5 2.4 7.5" fill="#ffd5c2" fill-rule="evenodd" stroke="none"/>
      <path d="M4.2 8.1 L5.75 6.25 4.9 7.55 Q4.2 8.55 3.45 8.85 L3.65 8.6 4.2 8.1" fill="#ffd5c2" fill-rule="evenodd" stroke="none"/>
      <path d="M8.15 7.4 L8.85 6.8 Q9.35 6.5 8.8 6.9 8.2 7.4 7.75 8.25 L7.15 9.2 Q7.2 8.5 8.15 7.4" fill="#ffd5c2" fill-rule="evenodd" stroke="none"/>
      <path d="M7.3 10.85 L8.45 10.65 Q8.8 10.55 8.55 10.75 L7.8 11.1 Q7.0 11.4 7.0 10.75 L7.05 10.7 7.3 10.85" fill="#ffd5c2" fill-rule="evenodd" stroke="none"/>
      <path d="M13.25 5.5 L13.75 5.45 13.05 5.7 11.3 6.8 11.95 6.2 Q12.4 5.65 13.25 5.5" fill="#ffd5c2" fill-rule="evenodd" stroke="none"/>
      <path d="M13.9 9.75 Q14.25 9.35 14.3 9.45 L14.2 9.75 15.15 9.85 Q17.7 9.5 14.05 10.15 13.35 10.3 13.9 9.75" fill="#ffd5c2" fill-rule="evenodd" stroke="none"/>
    </g>
  </defs>
</svg>
